<svg xmlns="http://www.w3.org/2000/svg" width="507.338" height="396.595" viewBox="0 0 507.338 396.595"><defs><style>.a{fill:#bad8f2;}.b,.i{fill:none;stroke-miterlimit:10;}.b{stroke:#fff;stroke-width:1.437px;}.c{fill:#cce7f7;}.d{fill:#ffc063;}.e{fill:#ffd89e;}.f{fill:#aed0e3;}.g{fill:#d04300;}.h{fill:#fefefe;}.i{stroke:#d04300;stroke-width:0.254px;}</style></defs><g transform="translate(-490.192 -424.465)"><path class="a" d="M533.084,674.077l12.056,40.1,103.149-25.516-15.768-26.028Z" transform="translate(19.25 106.888)"/><path class="b" d="M567.426,608.009" transform="translate(34.663 82.375)"/><path class="c" d="M610.769,618.788c.9-6.325,0-194.323,0-194.323H806.9l-3.616,194.323Z" transform="translate(54.115 0)"/><path class="a" d="M681.117,734.827H552.3L490.192,553.65c53.025-4.709,71.575-18.266,77.089-23.9a13.86,13.86,0,0,0,2.082-2.485S655.634,687.267,681.117,734.827Z" transform="translate(0 46.138)"/><path class="c" d="M659.564,739.445H617.447c-17.888-46.969-74.18-193.954-74.18-193.954a38.751,38.751,0,0,1,.309-11.121c.946-5.655,3.241-11.854,8.47-14.481a26.674,26.674,0,0,1,11.785-2.911,17.606,17.606,0,0,1,17.012,11.311c1.09,2.579,5.324,13.794,11.405,29.956v.023C610.868,607.98,646.574,704.378,659.564,739.445Z" transform="translate(23.706 41.52)"/><path class="d" d="M617.3,596.319l2.7-12,109.175,23.695-3.6,12.6Z" transform="translate(57.045 71.744)"/><path class="e" d="M712.127,611.774l-4.071.3-16.024,1.188,3.593-12.59,12.836,8.635Z" transform="translate(90.586 79.084)"/><path class="c" d="M594.371,670.809l1.111,3.7,2.053-4.24-2.552-.505Z" transform="translate(46.756 110.089)"/><path class="f" d="M595.135,677c-.271-6.869,8.571-12.888,20.059-13.341s21.018,4.751,21.289,11.621-8.825,12.8-20.311,13.255S595.4,683.866,595.135,677Z" transform="translate(47.096 107.337)"/><path d="M707.32,609.1l-4.071.3-.507-.813.261-1.216s.275-.333.652-.74Z" transform="translate(95.393 81.759)"/><path class="d" d="M835.449,579.068l-12.217-1.4,11.92-111.079,12.909,2.236Z" transform="translate(149.469 18.903)"/><path class="e" d="M840.735,454.447l.737,4.016,2.89,15.806-12.9-2.23,7.217-13.684Z" transform="translate(153.162 13.456)"/><path class="g" d="M838.5,454.446l.736,4.016-.753.591-1.237-.13s-.361-.238-.8-.569Z" transform="translate(155.397 13.456)"/><path d="M673,516.62a19.682,19.682,0,0,1-4.443,1.686,21.285,21.285,0,0,1-14.973-1.686c-10.031-5.294-12.774-18.132-10.791-27.43.369-1.708,2.393-11.185,10.809-16.159a20.438,20.438,0,0,1,2.139-1.1,22.113,22.113,0,0,1,13.125-1.391,22.988,22.988,0,0,1,6.631,2.351,20.091,20.091,0,0,1,4.9,3.664,20.8,20.8,0,0,1,5.468,11.718c.106.762.184,1.534.225,2.312C686.657,500.846,681.563,512.1,673,516.62Z" transform="translate(68.217 20.489)"/><path d="M703.944,463.922c3.489,10.905,12.974,17.715,22.193,16.952,8.083-.668,13.107-6.925,14.178-8.322.645,2.178,2.383,9.107-1.233,15.411-5.734,10-19.66,9.236-22.808,8.939-3.368-.319-10.534-.994-14.8-6.473C696.447,483.959,697.254,473.083,703.944,463.922Z" transform="translate(93.368 17.708)"/><path class="h" d="M730.232,522.288a11.736,11.736,0,0,1-.924,6.472c-1.271,2.625-4.154,5.614-8.015,5.857a8.54,8.54,0,0,1-3.7-.619q-.15,13.409-.306,26.816H660.263q.089-14.1.181-28.211.094-14.319.188-28.639.059-9.564.12-19.129.067-9.94.129-19.878a24.332,24.332,0,0,1,4.315-16.952,23.877,23.877,0,0,1,12.331-8.631c11.559-3.626,21.565,2.688,23.116,3.7a135.732,135.732,0,0,1,18.3,20.743,131.809,131.809,0,0,1,14.8,26.775q1.484,3.634,2.65,7.035l-7.7.927q.233,5.014.471,9.3C729.48,513.537,729.821,518.308,730.232,522.288Z" transform="translate(76.328 6.193)"/><path d="M723.4,468.35c-.409,4.829-1.314,15.495-8.32,19.415-4.855,2.718-11.663,1.094-25.273-2.157-8.8-2.1-13.643-4.1-16.335-1.539a5.421,5.421,0,0,0-1.513,3.118,13.3,13.3,0,0,0,.28,4.893c1.329,5.9,6.785,9.08,10.088,10.489a20.883,20.883,0,0,0,2.547.917,20.831,20.831,0,0,1-2.322,1.4,16.709,16.709,0,0,1-17.344-.917,34.731,34.731,0,0,1-2.832-2.021,55.835,55.835,0,0,1-12.31-14.616,20.424,20.424,0,0,1,2.138-1.1,22.113,22.113,0,0,1,13.125-1.391q.067-9.94.129-19.878a24.332,24.332,0,0,1,4.315-16.952,23.877,23.877,0,0,1,12.331-8.631c11.558-3.626,21.565,2.688,23.116,3.7a135.735,135.735,0,0,1,18.3,20.743A39.873,39.873,0,0,1,723.4,468.35Z" transform="translate(71.752 6.193)"/><path class="i" d="M689.856,485.269c-.42,2.724-.058,5.853,2.028,7.65a9.639,9.639,0,0,0,5.433,1.84,46.379,46.379,0,0,0,12.822-.522c2.072-.377,4.129-.9,6.2-1.188" transform="translate(89.54 27.289)"/></g></svg>