<svg xmlns="http://www.w3.org/2000/svg" width="283.602" height="483.367" viewBox="0 0 283.602 483.367"><defs><style>.a,.b{fill:#d8a35d;}.a{fill-rule:evenodd;}.c{fill:#d19442;}.d{fill:#947dce;}.e{fill:#ffc84f;}.f{opacity:0.15;}.g{fill:#62548a;}.h{opacity:0.3;}.i{opacity:0.5;}.j{fill:#999;}.k{fill:#ccc;}.l{fill:gray;}.m{fill:none;stroke:#947dce;stroke-miterlimit:10;stroke-width:1.154px;}</style></defs><g transform="translate(-4142.606 -1727.121)"><g transform="translate(4142.606 1755.847)"><path class="a" d="M4177.041,1773.465c-1.726-4.216-7.206-7.505-10.876-8.521a36.994,36.994,0,0,1-4.677-1.965c-2.841-.959,1.656,3.1,3.356,3.777,1.382.553,3.855,4.665,5.209,6.074s4.258,3.454,5.818,3.468S4176.817,1774.248,4177.041,1773.465Z" transform="translate(-4146.121 -1762.833)"/><path class="a" d="M4183.054,1789.411c-3.3-5.922-5.766-12.959-12.1-15.9s-15.81-2.891-20.842-3.661c-5.919-.906-3.437,1.021-.319,1.856,2.028.543,8.583,2.486,10.63,2.471.992-.008-8.061-1.527-8.548-1.391s-9.877-2.427-9.239-.7c1.238,3.349,11.845,3.776,15.224,4.513-1.782-.065-4.68-.6-6.4-.669-1.458-.06-5.859-1.663-6.293-.323-.684,2.111,10.178,3.485,11.622,3.6-1.429,1.149-6.879-.572-8.778-.7-.191-.014-1.921.4.159,1.133,4.378,1.542,7.768,2.951,12.774,3.69s10.877,1.51,14.213,6.082C4177.833,1789.267,4180.447,1789.734,4183.054,1789.411Z" transform="translate(-4142.606 -1764.16)"/></g><path class="b" d="M4396.747,2157.812s-11.53,118.967-6.627,121.015c8.794,3.731,43.24,15.936,5.264,13.253-19.507,1.175-18.076-3.183-18.38-6.875-.25-3.018.323-109.487-.478-117.768-.18-1.854-.289-2.975-.289-2.975Z" transform="translate(-45.706 -84.259)"/><path class="b" d="M4307.342,2157.4s5,118.967.1,121.015c-8.795,3.731-43.239,15.935-5.265,13.253,19.507,1.175,18.076-3.183,18.38-6.875.25-3.018,2.463-25.92,3.264-34.2.181-1.855,4-94.9,4-94.9Z" transform="translate(-27.799 -83.844)"/><path class="c" d="M4357.921,1775.419s-1.015,11.335,5.979,17.605-16.115,0-16.115,0,4.3-10.857,3.336-17.605S4357.921,1775.419,4357.921,1775.419Z" transform="translate(-40.14 -8.862)"/><ellipse class="b" cx="12.225" cy="16.679" rx="12.225" ry="16.679" transform="translate(4301.869 1737.595)"/><path class="d" d="M4232.039,1850.583c18.506-38.711,51.534-56.371,72.621-61.06,9.126-2.033,16.017-1.634,18.533.538a13.666,13.666,0,0,0,8.534,3.315,18.474,18.474,0,0,0,4.789-.436,23.791,23.791,0,0,0,5.08-1.727c.779-.363,1.235-.623,1.235-.623a49.56,49.56,0,0,1,12.906.771c47.708,9.341,56.01,89.334,55.582,96.215-.261,4.1-4.494,22.647-9.786,39.138-4.337,13.538-9.4,25.692-13.558,27.372-9.229,3.715-78.916,8.812-93.243,1.978-.334-.25-.7-.52-1.039-.818-5.377-4.373-11.209-13.008-14.3-21.1,0-.009-8.235-23.223-9.916-27.948a1.258,1.258,0,0,0-.047-.121c-.056-.186-.12-.363-.185-.529-.02-.065-.047-.121-.066-.186" transform="translate(-17.496 -11.948)"/><path class="e" d="M4301.478,1993.295a7.529,7.529,0,0,0,4.275,1.973c10.05.2,53.455.94,77-.413,8.306-.479,14.141-1.216,15.165-2.336a.743.743,0,0,1-.009.1c-.061,1.3-.806,16.157-1.851,35.633-2.062,38.448,1.912,93.513,6.554,110.228,1,3.607-52.927-1.857-52.927-1.857-.149-39.677,3.614-109.333,1.184-112.455-2.958-3.8-7.755,57.471-13.254,108.741-21.356,5.572-55.174,2.189-54.783,0C4287.477,2106.9,4301.478,1993.295,4301.478,1993.295Z" transform="translate(-27.433 -51.922)"/><path class="f" d="M4278.217,1929.714c.021.065.046.121.064.186.066.167.131.344.187.53.018.037.028.074.046.12,1.681,4.726,9.917,27.94,9.917,27.948,3.093,8.088,8.923,16.723,14.3,21.1-3.648-13.212-15.022-51.515-14.587-66.947C4285.97,1927.522,4278.217,1929.7,4278.217,1929.714Z" transform="translate(-26.53 -36.296)"/><path class="f" d="M4415.926,1865.07s-23.093,68.938,40.979,98.216l1.3.865-.331-16.214s-30.192-42.13-30.305-43.215S4415.926,1865.07,4415.926,1865.07Z" transform="translate(-52.678 -26.988)"/><path class="f" d="M4350.2,1796.116c.038,1.1-.548,1.829-2.322,1.588-5.534-.752-11.782-.595-16.323,1.486a3.856,3.856,0,0,1-3.732-.158c-2.907-1.7-4.708-6.769-5.423-9.016a1.543,1.543,0,0,1-.074-.492c9.126-2.033,16.017-1.634,18.533.538a13.665,13.665,0,0,0,8.534,3.315A7.543,7.543,0,0,1,4350.2,1796.116Z" transform="translate(-35.159 -11.948)"/><path class="g" d="M4321.92,2306.423c.228-1.718-12-1.557-13.377-.162s-25.74,6.421-25.258,13.655,34.237,1.546,36.648,1.376S4321.475,2309.8,4321.92,2306.423Z" transform="translate(-27.521 -113.088)"/><path class="g" d="M4376.32,2303.109c-.227-1.718,14.4.461,15.784,1.857s22.682,7.188,22.2,14.421-34.237,1.546-36.648,1.375S4376.768,2306.485,4376.32,2303.109Z" transform="translate(-45.709 -112.561)"/><g class="h" transform="translate(4313.631 1940.598)"><path d="M4355.711,1996.4l-.483-.039S4355.4,1996.376,4355.711,1996.4Z" transform="translate(-4355.228 -1993.271)"/><path class="i" d="M4355.83,1995.651c12.934,1.033,41.2-.8,41.2-.8,8.307-.479,14.142-1.216,15.166-2.336a.951.951,0,0,1-.007.1c-.062,1.3-.807,16.157-1.851,35.633a9.5,9.5,0,0,1-1.359-.157,10.588,10.588,0,0,1-6.846-4.864,23.5,23.5,0,0,1-2.662-5.559C4389.833,1999.318,4359.974,1996.024,4355.83,1995.651Z" transform="translate(-4355.346 -1992.519)"/></g><g transform="translate(4299.042 1727.121)"><g transform="translate(2.581 4.65)"><path class="e" d="M4349.01,1745.831s21.164,11.733,14.883-7.106C4359.547,1725.691,4334.576,1737.432,4349.01,1745.831Z" transform="translate(-4341.133 -1732.902)"/><path class="e" d="M4351.243,1741.535s-11.842,7.026-10.7,14.074c0,0-2.611-21.043,9.164-21.571s16.331.607,15.285,22.859C4364.993,1756.9,4361.573,1739.2,4351.243,1741.535Z" transform="translate(-4340.297 -1733.107)"/></g><path class="e" d="M4351.357,1732.839s.6-6.556,7.1-5.627,9.284,4.642,10.214,8.356,1.855,6.5,2.785,6.5c0,0-2.785,2.786-3.715,1.856,0,0,2.411,6.678-.652,12.16,0,0-1.2-8.446-5.847-9.375S4351.357,1732.839,4351.357,1732.839Z" transform="translate(-4339.88 -1727.121)"/><path class="e" d="M4349.161,1734.015s-4.643-2.786-9.286,3.714l-2.785,5.572s.93.929,2.785,0c0,0-.845,6.542.042,10.235l2.744-11.164Z" transform="translate(-4337.09 -1728.353)"/></g><g transform="translate(4283.475 1841.332)"><path class="j" d="M4317.835,1886.432l11.774,75.426a8.054,8.054,0,0,0,9.19,6.713l51.478-8.041a2.43,2.43,0,0,0,.363-.075,8.025,8.025,0,0,0,6.342-9.117l-11.773-75.425a8.042,8.042,0,0,0-9.193-6.7l-49.091,7.659-2.387.372A8.041,8.041,0,0,0,4317.835,1886.432Z" transform="translate(-4317.737 -1869.11)"/><path class="k" d="M4321.251,1885.986l11.774,75.425a8.042,8.042,0,0,0,9.192,6.7l49.092-7.661a8.025,8.025,0,0,0,6.341-9.117l-11.773-75.425a8.042,8.042,0,0,0-9.192-6.7l-49.091,7.659A8.026,8.026,0,0,0,4321.251,1885.986Z" transform="translate(-4318.405 -1869.11)"/><circle class="l" cx="6.214" cy="6.214" r="6.214" transform="translate(35.357 43.97)"/></g><path class="f" d="M4405.744,1951.842s1.206-27.726-73.075-18.44,55.711,17.642,55.711,17.642Z" transform="translate(-32.698 -39.984)"/><g transform="translate(4269.78 1776.186)"><g transform="translate(0 115.098)"><path class="a" d="M4337.819,1944.825c-.88-.3-10.17-5.858-15.208-6.323s-12.568-.676-15.169-1.415c-3.059-.869-3.831.346-.307,1.691a49.6,49.6,0,0,0,8.021,2.272c.5.021-2.777-.421-6.343-1.16-3.792-.785-7.907-1.854-8.093-1.179-.366,1.309,10.557,4.254,12.481,4.462a48.518,48.518,0,0,1-5.072-.615c-2.291-.406-4.915-1.217-5.431-.741-.812.748,4.973,3.018,9.754,3.681.084.154-1.461.4-7.086-.771-.565-.117-2.005.13-.154.985,3.9,1.8,5.439,2.865,11.086,3.04,5.507.172,11.584-.961,15.545.367Z" transform="translate(-4300.711 -1932.303)"/><path class="a" d="M4327.8,1937.906s-4.265-4.479-9.051-5.218c-2.847-.439-2.779-1.156-3.265-1.369-1.609-.71-.051,2.28,2.366,3.047,1.965.623,3.063,3.981,4.242,4.693s4.716,2.019,5.6,1.556S4327.8,1937.906,4327.8,1937.906Z" transform="translate(-4303.473 -1931.212)"/></g><path class="d" d="M4424.374,1803.213c17.49,15.648,29.592,30.184,37.141,78,3.831,24.258,2.833,48.516,1.836,61.309a15.116,15.116,0,0,1-10.387,13.142c-54.8,18.075-114.99-33.923-114.99-33.923-3.138-1.168,3.18-12.357,3.18-12.357,30.294-.315,53.508.615,77.649,9.9-.123-.057-23.732-44.405-26.927-56.64-8.369-32.085-35.91-59.85-28.785-72.426C4365.553,1785.864,4406.732,1787.428,4424.374,1803.213Z" transform="translate(-4307.829 -1788.12)"/></g><g transform="translate(4269.78 1940.435)"><line class="m" x1="13.695" y2="143.2" transform="translate(0)"/><line class="m" x1="13.591" y2="140.706" transform="translate(13.695 2.864)"/><line class="m" x1="11.302" y2="139.723" transform="translate(29.269 2.864)"/><line class="m" x2="0.291" y2="28.942" transform="translate(53.367 2.864)"/><line class="m" x1="2.622" y2="142.554" transform="translate(64.948 2.864)"/><line class="m" x1="0.731" y2="143.75" transform="translate(79.061 2.775)"/><line class="m" x2="2.765" y2="144.575" transform="translate(91.804 2.775)"/></g><path class="m" d="M4303.708,2012s77.12,3.641,97.495,0" transform="translate(-31.517 -55.733)"/><path class="m" d="M4354.577,2031c-26.983,6.112-52.805-3.551-52.805-3.551" transform="translate(-31.139 -58.754)"/><path class="m" d="M4367.058,2029.589s24.351,6.842,45.74,1.064" transform="translate(-43.91 -59.174)"/><path class="m" d="M4300.122,2040.492s19.445,10.18,51.03,4.991" transform="translate(-30.816 -61.307)"/><path class="m" d="M4298.143,2056.03s30.262,9.239,51.126,4.484" transform="translate(-30.428 -64.347)"/><path class="m" d="M4296.159,2071.466s15.411,12.082,51.142,6.662" transform="translate(-30.041 -67.366)"/><path class="m" d="M4293.85,2089.222a74.978,74.978,0,0,0,51.831,3.905" transform="translate(-29.588 -70.84)"/><path class="m" d="M4291.7,2105.488s16.643,11.814,52.158,4.952" transform="translate(-29.169 -74.023)"/><path class="m" d="M4289.456,2122.163s22.972,12.008,52.9,2.307" transform="translate(-28.729 -77.285)"/><path class="m" d="M4287.659,2135.177s13.552,13.034,53.2,3.372" transform="translate(-28.378 -79.83)"/><path class="m" d="M4285.541,2149.948s21.915,11.545,53.736,3.007" transform="translate(-27.963 -82.72)"/><path class="m" d="M4368.434,2045.839s10.172,8.4,44.633,2.165" transform="translate(-44.18 -62.353)"/><path class="m" d="M4368.766,2061.556s14.276,6.656,43.551,1.4" transform="translate(-44.245 -65.427)"/><path class="m" d="M4367.9,2079s22.043,6.639,44.247,0" transform="translate(-44.075 -68.84)"/><path class="m" d="M4367.506,2093.467s21.429,9.525,44.991,0" transform="translate(-43.999 -71.671)"/><path class="m" d="M4367.058,2109.349s20.4,7.158,45.944,0" transform="translate(-43.91 -74.778)"/><path class="m" d="M4366.648,2124.6s17.2,7.715,47.077,0" transform="translate(-43.83 -77.762)"/><path class="m" d="M4366.648,2138.1s20.416,10.521,48.115,1.118" transform="translate(-43.83 -80.402)"/><path class="m" d="M4366.038,2154.971a94.384,94.384,0,0,0,50.122.579" transform="translate(-43.711 -83.703)"/><path class="d" d="M4258.447,1905.436s-56.521,23.978-70.234-27.734,5.143-63.151-12.571-84.574l11.429-8.851s39.428,20.856,51.14,53.426S4258.447,1905.436,4258.447,1905.436Z" transform="translate(-6.462 -11.182)"/></g></svg>