<svg xmlns="http://www.w3.org/2000/svg" xmlns:xlink="http://www.w3.org/1999/xlink" width="262.919" height="185.732" viewBox="0 0 262.919 185.732"><defs><style>.a,.f,.g,.i,.j,.l,.s{fill:none;}.b{fill:#ddf0ff;}.c{fill:#fff6df;}.d{fill:#ffe4ac;}.e{fill:#ffecc3;}.f{stroke:#fbdc94;}.f,.i,.s{stroke-miterlimit:10;}.f,.i,.j,.l{stroke-width:4.35px;}.g{stroke:#a7e1ff;stroke-width:2.9px;}.g,.i,.j,.l{stroke-linecap:round;}.g,.j,.l{stroke-linejoin:round;}.h{fill:#5c3290;}.i,.j{stroke:#5c3290;}.k,.t{fill:#fff;}.l{stroke:#fff;}.m{fill:#45118a;}.n{fill:#ffd46d;}.o{fill:#441088;}.p{clip-path:url(#a);}.q{fill:#ff4c91;}.r{fill:#dc6c85;}.s{stroke:#ffde00;stroke-width:29px;}.t{font-size:20px;font-family:DejaVuSans, DejaVu Sans;}</style><clipPath id="a"><path class="a" d="M668.55,474.519h6.878s.121,2.695-3.439,2.695S668.55,474.519,668.55,474.519Z" transform="translate(-668.549 -474.519)"/></clipPath></defs><g transform="translate(-309.806 -500.663)"><g transform="translate(-259)"><g transform="translate(568.806 502.85)"><g transform="translate(10.777)"><g transform="translate(121.628 61.084)"><circle class="b" cx="3.182" cy="3.182" r="3.182" transform="translate(51.65 0)"/><path class="b" d="M744.177,504.838h-2.118a2.789,2.789,0,0,1,0,5.422h-4.565a2.475,2.475,0,0,0-2.133,2.711h0a2.475,2.475,0,0,0,2.133,2.711h9.5a2.789,2.789,0,0,1,0,5.421H706.226a2.789,2.789,0,0,1,0-5.421h2.909a2.475,2.475,0,0,0,2.133-2.711h0a2.475,2.475,0,0,0-2.133-2.711h-9.528a2.789,2.789,0,0,1,0-5.422h44.569Z" transform="translate(-697.474 -504.838)"/></g><g transform="translate(55.056 13.027)"><path class="b" d="M687.867,444.824h-.393a1.4,1.4,0,0,0,0-2.725h-1.462a1.244,1.244,0,0,1-1.072-1.363h0a1.243,1.243,0,0,1,1.072-1.362H690.8a1.4,1.4,0,0,0,0-2.725H667.928a1.4,1.4,0,0,1,0-2.725h9.244a1.4,1.4,0,0,0,0-2.725H641.095a1.4,1.4,0,0,0,0,2.725h2.2a1.4,1.4,0,0,1,0,2.725H630.716a1.4,1.4,0,0,0,0,2.725H649.44a1.243,1.243,0,0,1,1.072,1.362h0a1.244,1.244,0,0,1-1.072,1.363H637.691a1.4,1.4,0,0,0,0,2.725h50.176Z" transform="translate(-629.644 -431.2)"/><circle class="b" cx="1.441" cy="1.441" r="1.441" transform="translate(5.396 0)"/></g><rect class="c" width="111.903" height="45.621" transform="translate(29.409 23.226)"/><rect class="d" width="111.903" height="2.16" transform="translate(29.409 66.686)"/><rect class="e" width="1.905" height="45.621" transform="translate(129.719 23.226)"/><path class="f" d="M620.523,470.5l34.767,14.532L683.068,474" transform="translate(-572.391 -431.827)"/><g transform="translate(141.254)"><g transform="translate(0 18.65)"><path class="g" d="M760.217,439.816s4.875,3.147-.275,8.666-15.395,2.9-15.395,2.9" transform="translate(-733.452 -439.816)"/><path class="g" d="M754,458.79s1.207,5.849-4.311,7.6-11.348-3.176-11.348-3.176" transform="translate(-731.298 -446.407)"/><path class="g" d="M740.665,470.991s-1.162,3.156-4.289,3.34-8.83-4.585-8.83-4.585" transform="translate(-727.546 -450.213)"/></g><g transform="translate(0.426)"><circle class="h" cx="1.38" cy="1.38" r="1.38" transform="translate(12.693 23.502)"/><path class="i" d="M728.2,434.74s18.669-11.758,21.606-23.216a.374.374,0,0,1,.514-.253c1.782.786,8.617,4.432,6.21,13.26-1.656,6.807-11.221,10.21-11.221,10.21" transform="translate(-728.199 -411.239)"/><path class="i" d="M759.551,438.8s5.968,5.058.816,10.576-15.82,1.656-15.82,1.656" transform="translate(-733.878 -420.812)"/><path class="i" d="M754,458.79s1.633,7.093-3.886,8.841-11.773-4.421-11.773-4.421" transform="translate(-731.724 -427.757)"/><path class="i" d="M740.892,471.654s-.736,4.4-3.863,4.585-8.829-4.585-8.829-4.585" transform="translate(-728.199 -432.226)"/></g></g><g transform="translate(0.41 18.65)"><path class="g" d="M578.176,439.816s-4.876,3.147.275,8.666,15.395,2.9,15.395,2.9" transform="translate(-576.088 -439.816)"/><path class="g" d="M585.445,458.79s-1.207,5.849,4.312,7.6S601.1,463.21,601.1,463.21" transform="translate(-579.3 -446.407)"/><path class="g" d="M600.2,470.991s1.162,3.156,4.289,3.34,8.83-4.585,8.83-4.585" transform="translate(-584.463 -450.213)"/></g><circle class="h" cx="1.38" cy="1.38" r="1.38" transform="translate(13.385 23.502)"/><path class="i" d="M604.3,434.74s-18.669-11.758-21.605-23.216a.374.374,0,0,0-.514-.253c-1.782.786-8.617,4.432-6.21,13.26,1.656,6.807,11.221,10.21,11.221,10.21" transform="translate(-575.46 -411.239)"/><path class="i" d="M578.758,438.8s-5.967,5.058-.816,10.576,15.82,1.656,15.82,1.656" transform="translate(-575.594 -420.812)"/><path class="i" d="M585.384,458.79s-1.632,7.093,3.886,8.841,11.773-4.421,11.773-4.421" transform="translate(-578.829 -427.757)"/><path class="i" d="M600.2,471.654s.736,4.4,3.863,4.585,8.83-4.585,8.83-4.585" transform="translate(-584.053 -432.226)"/><path class="j" d="M637.435,446.828H696.3v34.767" transform="translate(-572.6 -423.602)"/><line class="j" x2="13.245" transform="translate(125.457 58.913)"/><path class="j" d="M686.379,492.448H620.523V446.828h8.094" transform="translate(-571.402 -423.602)"/><path class="j" d="M691.377,509.121h19.683s9.75.552,9.75,8.83-8.83,8.094-8.83,8.094H673.349s-7.726-.184-7.726,6.622,9.933,5.887,9.933,5.887h7.174" transform="translate(-564.781 -445.242)"/><line class="j" x2="6.806" transform="translate(107.107 93.354)"/><path class="j" d="M620.523,469.659l34.767,14.532,27.777-11.037" transform="translate(-572.391 -431.533)"/><circle class="h" cx="1.38" cy="1.38" r="1.38" transform="translate(124.504 38.494)"/><circle class="k" cx="1.38" cy="1.38" r="1.38" transform="translate(76.2 26.629)"/><circle class="h" cx="1.38" cy="1.38" r="1.38" transform="translate(130.639 67.467)"/><circle class="h" cx="1.38" cy="1.38" r="1.38" transform="translate(120.456 91.974)"/><line class="l" x2="20.603" transform="translate(46.988 28.009)"/><circle class="k" cx="1.38" cy="1.38" r="1.38" transform="translate(65.818 62.224)"/><line class="l" x1="20.603" transform="translate(76.121 63.604)"/><g transform="translate(77.143 36.963)"><path class="m" d="M668.55,474.519h6.878s.121,2.695-3.439,2.695S668.55,474.519,668.55,474.519Z" transform="translate(-663.965 -470.184)"/><circle class="n" cx="0.489" cy="0.489" r="0.489" transform="translate(0 3.211)"/><circle class="n" cx="0.489" cy="0.489" r="0.489" transform="translate(15.069 3.211)"/><circle class="o" cx="1.024" cy="1.024" r="1.024" transform="translate(3.195)"/><circle class="o" cx="1.024" cy="1.024" r="1.024" transform="translate(11.463)"/><g transform="translate(4.584 4.335)"><g class="p"><circle class="q" cx="2.014" cy="2.014" r="2.014" transform="translate(1.425 0.962)"/></g></g></g></g><rect class="r" width="207.006" height="33.875" rx="16.938" transform="translate(0 149.67)"/><g transform="translate(196.908 80.28)"><path class="s" d="M858.6,534.251s-43.163,11.474-62.286,54.638" transform="translate(-796.31 -534.251)"/></g></g></g><text class="t" transform="translate(408 676)"><tspan x="-61.279" y="0">ჩამოტვირთე</tspan></text></g></svg>