<svg xmlns="http://www.w3.org/2000/svg" xmlns:xlink="http://www.w3.org/1999/xlink" width="359" height="325" viewBox="0 0 359 325"><defs><style>.a,.o{fill:none;}.b{clip-path:url(#a);}.c,.d{fill:#d8a35d;}.c{fill-rule:evenodd;}.e{fill:#d19442;}.f{fill:#947dce;}.g{fill:#ffc84f;}.h{opacity:0.15;}.i{fill:#62548a;}.j{opacity:0.3;}.k{opacity:0.5;}.l{fill:#999;}.m{fill:#ccc;}.n{fill:gray;}.o{stroke:#947dce;stroke-miterlimit:10;stroke-width:1.154px;}</style><clipPath id="a"><rect class="a" width="359" height="325" transform="translate(0 -0.412)"/></clipPath></defs><g transform="translate(-3651.583 10467.329)"><g class="b" transform="translate(3651.583 -10466.917)"><g transform="translate(6.322 10.488)"><g transform="translate(0 35.319)"><path class="c" d="M3696.394-10407.637c-2.121-5.183-8.86-9.228-13.373-10.475a45.659,45.659,0,0,1-5.749-2.416c-3.495-1.18,2.036,3.806,4.126,4.644,1.7.682,4.74,5.736,6.406,7.469s5.234,4.247,7.153,4.264S3696.118-10406.674,3696.394-10407.637Z" transform="translate(-3658.376 10420.707)"/><path class="c" d="M3707.91-10389.589c-4.054-7.28-7.09-15.933-14.877-19.546s-19.438-3.555-25.625-4.5c-7.279-1.115-4.227,1.255-.393,2.282,2.493.667,10.552,3.056,13.071,3.039,1.22-.011-9.912-1.879-10.509-1.712s-12.145-2.983-11.36-.857c1.521,4.117,14.562,4.643,18.717,5.547-2.192-.08-5.754-.736-7.865-.821-1.792-.075-7.2-2.046-7.737-.4-.841,2.6,12.513,4.285,14.29,4.429-1.758,1.412-8.458-.7-10.793-.863-.235-.016-2.362.493.2,1.394,5.383,1.9,9.551,3.63,15.706,4.537s13.373,1.857,17.476,7.479C3701.49-10389.765,3704.7-10389.189,3707.91-10389.589Z" transform="translate(-3658.178 10420.635)"/></g><path class="d" d="M3917.026-10025.729s-14.175,146.271-8.146,148.789c10.813,4.587,53.163,19.594,6.473,16.294-23.985,1.445-22.226-3.914-22.6-8.453-.305-3.711.4-134.616-.587-144.8l-.354-3.657Z" transform="translate(-3660.754 10451.673)"/><path class="d" d="M3828.11-10025.752s6.146,146.271.118,148.788c-10.814,4.588-53.163,19.594-6.472,16.3,23.983,1.445,22.225-3.914,22.6-8.454.306-3.709,3.028-31.868,4.013-42.049.22-2.279,4.92-116.68,4.92-116.68Z" transform="translate(-3659.745 10451.695)"/><path class="e" d="M3875.822-10407.434s-1.25,13.937,7.348,21.644-19.813,0-19.813,0,5.288-13.348,4.1-21.644S3875.822-10407.434,3875.822-10407.434Z" transform="translate(-3660.44 10455.922)"/><ellipse class="d" cx="15.03" cy="20.507" rx="15.03" ry="20.507" transform="translate(195.816 12.878)"/><path class="f" d="M3747.612-10318.64c22.752-47.6,63.361-69.31,89.288-75.075,11.223-2.5,19.694-2.009,22.787.663a16.8,16.8,0,0,0,10.492,4.074,22.682,22.682,0,0,0,5.892-.535,29.31,29.31,0,0,0,6.244-2.124c.959-.444,1.518-.765,1.518-.765a60.983,60.983,0,0,1,15.87.948c58.657,11.484,68.864,109.837,68.339,118.3-.32,5.033-5.526,27.845-12.033,48.119-5.331,16.646-11.553,31.591-16.668,33.656-11.348,4.566-97.028,10.833-114.644,2.432-.411-.309-.856-.641-1.278-1-6.611-5.377-13.78-16-17.581-25.938,0-.014-10.126-28.552-12.193-34.364a1.566,1.566,0,0,0-.057-.147c-.068-.229-.148-.446-.228-.651-.024-.08-.057-.147-.08-.228" transform="translate(-3659.165 10455.748)"/><path class="g" d="M3821.329-10190.068a9.264,9.264,0,0,0,5.259,2.426c12.355.241,65.722,1.156,94.671-.509,10.213-.587,17.387-1.5,18.646-2.87,0,0,0,.042-.007.118-.077,1.595-.991,19.863-2.277,43.811-2.537,47.271,2.35,114.974,8.058,135.522,1.232,4.438-65.074-2.282-65.074-2.282-.185-48.784,4.445-134.425,1.454-138.265-3.637-4.671-9.534,70.662-16.3,133.7-26.258,6.849-67.838,2.69-67.357,0C3804.115-10050.384,3821.329-10190.068,3821.329-10190.068Z" transform="translate(-3659.724 10453.493)"/><path class="h" d="M3793.79-10249.912c.023.082.057.148.08.229.079.206.159.424.229.65.022.046.033.093.056.149,2.067,5.811,12.194,34.352,12.194,34.364,3.8,9.942,10.97,20.562,17.581,25.938-4.486-16.247-18.472-63.338-17.935-82.312C3803.323-10252.606,3793.79-10249.923,3793.79-10249.912Z" transform="translate(-3659.674 10454.374)"/><path class="h" d="M3932.43-10318.473s-28.395,84.763,50.384,120.76l1.6,1.063-.407-19.937s-37.121-51.8-37.262-53.131S3932.43-10318.473,3932.43-10318.473Z" transform="translate(-3661.147 10454.9)"/><path class="h" d="M3872.167-10385.609c.046,1.358-.674,2.249-2.854,1.953-6.8-.925-14.487-.73-20.069,1.827a4.75,4.75,0,0,1-4.59-.194c-3.573-2.089-5.788-8.323-6.667-11.084a1.926,1.926,0,0,1-.091-.607c11.223-2.5,19.694-2.009,22.787.663a16.8,16.8,0,0,0,10.492,4.074A9.277,9.277,0,0,1,3872.167-10385.609Z" transform="translate(-3660.16 10455.748)"/><path class="i" d="M3846.362-9876.833c.279-2.111-14.748-1.912-16.448-.2s-31.647,7.894-31.054,16.788,42.1,1.9,45.06,1.691S3845.812-9872.683,3846.362-9876.833Z" transform="translate(-3659.73 10450.047)"/><path class="i" d="M3891.91-9880.288c-.279-2.11,17.708.568,19.409,2.284s27.884,8.836,27.292,17.731-42.1,1.9-45.061,1.692S3892.46-9876.137,3891.91-9880.288Z" transform="translate(-3660.755 10450.077)"/><g class="j" transform="translate(210.277 262.472)"><path d="M3871.4-10187.128l-.6-.049S3871.011-10187.164,3871.4-10187.128Z" transform="translate(-3870.8 10190.979)"/><path class="k" d="M3871.4-10187.171c15.9,1.269,50.661-.98,50.661-.98,10.213-.587,17.386-1.5,18.646-2.87,0,0,0,.042-.008.118-.076,1.595-.991,19.863-2.277,43.811a12.036,12.036,0,0,1-1.672-.194,13.011,13.011,0,0,1-8.416-5.98,28.877,28.877,0,0,1-3.272-6.835C3913.209-10182.664,3876.5-10186.713,3871.4-10187.171Z" transform="translate(-3870.807 10191.021)"/></g><g transform="translate(192.34)"><g transform="translate(3.172 5.718)"><path class="g" d="M3865.6-10434.743s26.021,14.429,18.3-8.736C3878.558-10459.5,3847.856-10445.069,3865.6-10434.743Z" transform="translate(-3855.918 10450.64)"/><path class="g" d="M3869.328-10440.266s-14.559,8.639-13.154,17.3c0,0-3.21-25.873,11.265-26.523s20.082.748,18.795,28.107C3886.234-10421.377,3882.028-10443.141,3869.328-10440.266Z" transform="translate(-3855.871 10450.628)"/></g><path class="g" d="M3866.93-10449.39s.732-8.062,8.723-6.919,11.417,5.706,12.559,10.272,2.283,7.993,3.424,7.993c0,0-3.424,3.425-4.566,2.282,0,0,2.963,8.212-.8,14.95,0,0-1.481-10.384-7.19-11.525S3866.93-10449.39,3866.93-10449.39Z" transform="translate(-3852.82 10456.42)"/><path class="g" d="M3867.5-10449.391s-5.708-3.425-11.416,4.565l-3.425,6.851s1.141,1.142,3.425,0c0,0-1.041,8.043.05,12.585l3.375-13.726Z" transform="translate(-3852.663 10456.352)"/></g><g transform="translate(173.2 140.424)"><path class="l" d="M3833.429-10293.134l14.476,92.735a9.9,9.9,0,0,0,11.3,8.254l63.292-9.888a3.094,3.094,0,0,0,.445-.089,9.869,9.869,0,0,0,7.8-11.213l-14.475-92.733a9.886,9.886,0,0,0-11.3-8.243l-60.359,9.419-2.935.455A9.888,9.888,0,0,0,3833.429-10293.134Z" transform="translate(-3833.309 10314.432)"/><path class="m" d="M3836.846-10293.684l14.476,92.737a9.888,9.888,0,0,0,11.3,8.243l60.358-9.418a9.869,9.869,0,0,0,7.8-11.213l-14.475-92.733a9.886,9.886,0,0,0-11.3-8.243l-60.359,9.419A9.865,9.865,0,0,0,3836.846-10293.684Z" transform="translate(-3833.347 10314.432)"/><circle class="n" cx="7.64" cy="7.64" r="7.64" transform="translate(43.472 54.062)"/></g><path class="h" d="M3943.35-10227.031s1.485-34.086-89.848-22.672,68.5,21.691,68.5,21.691Z" transform="translate(-3660.021 10454.167)"/><g transform="translate(156.362 60.327)"><g transform="translate(0 141.514)"><path class="c" d="M3861.907-10236.873c-1.082-.363-12.5-7.2-18.7-7.775s-15.454-.83-18.65-1.738c-3.76-1.069-4.711.424-.377,2.078a61.094,61.094,0,0,0,9.863,2.792c.619.025-3.416-.517-7.8-1.426-4.662-.966-9.718-2.28-9.95-1.449-.449,1.609,12.98,5.231,15.346,5.486a59.642,59.642,0,0,1-6.238-.755c-2.815-.5-6.041-1.5-6.675-.913-1,.921,6.114,3.711,11.992,4.525.1.191-1.8.488-8.713-.948-.7-.146-2.465.159-.189,1.211,4.791,2.215,6.688,3.522,13.631,3.739,6.771.21,14.244-1.184,19.114.451Z" transform="translate(-3816.284 10252.269)"/><path class="c" d="M3846.351-10244.1s-5.242-5.5-11.128-6.414c-3.5-.537-3.417-1.418-4.014-1.682-1.98-.872-.063,2.8,2.909,3.747,2.416.767,3.764,4.893,5.216,5.77s5.8,2.479,6.882,1.915S3846.351-10244.1,3846.351-10244.1Z" transform="translate(-3816.439 10252.33)"/></g><path class="f" d="M3959.977-10376.864c21.505,19.24,36.384,37.111,45.666,95.9,4.71,29.827,3.484,59.65,2.257,75.38a18.585,18.585,0,0,1-12.771,16.159c-67.375,22.224-141.382-41.709-141.382-41.709-3.858-1.435,3.909-15.2,3.909-15.2,37.248-.385,65.789.756,95.472,12.173-.15-.069-29.179-54.6-33.107-69.642-10.289-39.447-44.154-73.585-35.391-89.047C3887.656-10398.2,3938.286-10396.271,3959.977-10376.864Z" transform="translate(-3816.685 10395.422)"/></g><g transform="translate(156.362 262.273)"><line class="o" x1="16.838" y2="176.066"/><line class="o" x1="16.711" y2="173" transform="translate(16.838 3.521)"/><line class="o" x1="13.896" y2="171.791" transform="translate(35.987 3.521)"/><line class="o" x2="0.358" y2="35.585" transform="translate(65.615 3.521)"/><line class="o" x1="3.224" y2="175.272" transform="translate(79.854 3.521)"/><line class="o" x1="0.898" y2="176.742" transform="translate(97.207 3.411)"/><line class="o" x2="3.4" y2="177.757" transform="translate(112.874 3.411)"/></g><path class="o" d="M3819.282-10171.539s94.818,4.479,119.871,0" transform="translate(-3659.955 10453.281)"/><path class="o" d="M3882.269-10151.73c-33.175,7.513-64.924-4.365-64.924-4.365" transform="translate(-3659.933 10453.11)"/><path class="o" d="M3882.63-10153.953s29.94,8.412,56.238,1.309" transform="translate(-3660.653 10453.086)"/><path class="o" d="M3815.7-10143.049s23.908,12.518,62.741,6.136" transform="translate(-3659.915 10452.966)"/><path class="o" d="M3813.716-10127.51s37.2,11.356,62.86,5.511" transform="translate(-3659.893 10452.794)"/><path class="o" d="M3811.732-10112.075s18.948,14.854,62.88,8.191" transform="translate(-3659.872 10452.625)"/><path class="o" d="M3809.422-10094.32s28.892,15.1,63.724,4.8" transform="translate(-3659.846 10452.431)"/><path class="o" d="M3807.273-10078.053s20.464,14.525,64.131,6.087" transform="translate(-3659.822 10452.249)"/><path class="o" d="M3805.029-10061.379s28.243,14.763,65.046,2.836" transform="translate(-3659.797 10452.066)"/><path class="o" d="M3803.231-10048.365s16.663,16.026,65.415,4.146" transform="translate(-3659.777 10451.922)"/><path class="o" d="M3801.114-10033.594s26.943,14.194,66.068,3.7" transform="translate(-3659.754 10451.76)"/><path class="o" d="M3884.006-10137.7s12.509,10.326,54.877,2.661" transform="translate(-3660.668 10452.907)"/><path class="o" d="M3884.339-10121.986s17.551,8.184,53.546,1.721" transform="translate(-3660.672 10452.734)"/><path class="o" d="M3883.473-10104.541s27.1,8.163,54.4,0" transform="translate(-3660.663 10452.541)"/><path class="o" d="M3883.078-10090.075s26.347,11.712,55.319,0" transform="translate(-3660.658 10452.381)"/><path class="o" d="M3882.63-10074.193s25.082,8.8,56.489,0" transform="translate(-3660.653 10452.207)"/><path class="o" d="M3882.221-10058.939s21.143,9.488,57.882,0" transform="translate(-3660.648 10452.04)"/><path class="o" d="M3882.221-10045.442s25.1,12.935,59.16,1.376" transform="translate(-3660.648 10451.89)"/><path class="o" d="M3881.61-10028.571s28.553,9.678,61.626.712" transform="translate(-3660.642 10451.704)"/><path class="f" d="M3793.024-10250.3s-69.492,29.482-86.353-34.1,6.322-77.645-15.457-103.982l14.052-10.884s48.476,25.644,62.878,65.69S3793.024-10250.3,3793.024-10250.3Z" transform="translate(-3658.542 10455.792)"/></g></g></g></svg>