<svg xmlns="http://www.w3.org/2000/svg" xmlns:xlink="http://www.w3.org/1999/xlink" width="467.176" height="624.61" viewBox="0 0 467.176 624.61"><defs><style>.a,.b{fill:#d8a35d;}.a{fill-rule:evenodd;}.c{fill:#d19442;}.d{fill:#947dce;}.e{fill:#ffc84f;}.f{opacity:0.15;}.g{fill:#62548a;}.h{opacity:0.3;}.i{opacity:0.5;}.j{fill:#999;}.k{fill:#ccc;}.l{fill:gray;}.m{fill:none;stroke:#947dce;stroke-miterlimit:10;}.n{fill:url(#a);}.o{fill:url(#d);}.p{fill:#f3eec7;}.q{fill:#ddf0ff;}</style><linearGradient id="a" x1="0.5" x2="0.5" y2="1" gradientUnits="objectBoundingBox"><stop offset="0" stop-color="#c6dce7"/><stop offset="1" stop-color="#f3eec7"/></linearGradient><linearGradient id="d" x1="0.5" x2="0.5" y2="1" gradientUnits="objectBoundingBox"><stop offset="0" stop-color="#eed2cc"/><stop offset="1" stop-color="#f3eec7"/></linearGradient></defs><g transform="translate(-751.698 -68.092)"><path class="a" d="M857.958,471.3s-7.1,3.114-10.009,8.441c-1.732,3.167-2.548,2.782-3.007,3.263-1.522,1.6,2.666,1.034,4.6-1.488,1.573-2.049,6-1.91,7.341-3s4.39-4.7,4.222-5.931S857.958,471.3,857.958,471.3Z"/><path class="a" d="M870.279,458.728c-.724.911-11.244,9.486-13.941,15.224s-6.158,14.524-8.138,17.273c-2.331,3.234-1.228,4.663,1.861,1.083a62.342,62.342,0,0,0,6.1-8.485c.239-.584-1.681,3.1-4.074,6.983-2.544,4.133-5.559,8.525-4.843,9.035,1.388.989,9.518-10.627,10.585-12.806a60.7,60.7,0,0,1-2.889,5.716c-1.456,2.525-3.531,5.272-3.191,6.082.536,1.277,5.679-4.573,8.5-9.924.218-.033-.156,1.891-3.933,8.022-.38.616-.7,2.418,1.1.6,3.785-3.824,5.7-5.189,8.312-11.768,2.552-6.417,3.81-14.063,7.065-18.165Z"/><path class="b" d="M1034.082,545.227s-12.417,128.125-7.137,130.329c9.472,4.019,46.567,17.162,5.669,14.274-21.008,1.266-19.467-3.428-19.8-7.405-.268-3.25.348-117.915-.515-126.832-.193-2-.31-3.2-.31-3.2Z"/><path class="b" d="M957.082,545.227s5.383,128.125.1,130.329c-9.472,4.019-46.568,17.162-5.67,14.274,21.009,1.266,19.468-3.428,19.8-7.405.268-3.25,2.651-27.915,3.514-36.832.194-2,4.311-102.2,4.311-102.2Z"/><path class="c" d="M998.263,214.6s-1.093,12.208,6.437,18.96-17.355,0-17.355,0,4.631-11.694,3.592-18.96S998.263,214.6,998.263,214.6Z"/><ellipse class="b" cx="13.166" cy="17.963" rx="13.166" ry="17.963" transform="translate(981.126 183.41)"/><path class="d" d="M1080.159,332.067c-.28,4.41-4.84,24.39-10.54,42.15-4.67,14.58-10.12,27.67-14.6,29.48-9.94,4-84.99,9.49-100.42,2.13-.36-.27-.75-.56-1.12-.88-5.79-4.71-12.07-14.01-15.4-22.72,0-.01-8.87-25.01-10.68-30.1-.02-.05-.03-.09-.05-.13-.06-.2-.13-.39-.2-.57-.02-.07-.05-.13-.07-.2-9.34,31.89-34.19,101.93-54.29,124.12-2.11,2.33-11.82-10.74-11.82-10.74s-16.23-83.81,26.11-172.38c19.93-41.69,55.5-60.71,78.21-65.76,9.83-2.19,17.25-1.76,19.96.58a14.72,14.72,0,0,0,9.19,3.57,19.913,19.913,0,0,0,5.16-.47,25.677,25.677,0,0,0,5.47-1.86c.84-.39,1.33-.67,1.33-.67a53.356,53.356,0,0,1,13.9.83C1071.679,238.507,1080.619,324.657,1080.159,332.067Z"/><path class="e" d="M951.159,402.874A8.122,8.122,0,0,0,955.766,405c10.823.212,57.568,1.013,82.926-.445,8.946-.515,15.229-1.309,16.333-2.516a.947.947,0,0,1-.008.1c-.066,1.4-.868,17.4-1.994,38.376-2.221,41.406,2.059,100.71,7.059,118.71,1.079,3.886-57-2-57-2-.162-42.73,3.892-117.748,1.273-121.11-3.185-4.091-8.351,61.894-14.273,117.11-23,6-59.421,2.358-59,0C936.082,525.227,951.159,402.874,951.159,402.874Z"/><path class="f" d="M927.082,351.227c.02.07.05.13.07.2.07.18.14.37.2.57.02.04.03.08.05.13,1.81,5.09,10.68,30.09,10.68,30.1,3.33,8.71,9.61,18.01,15.4,22.72-3.93-14.23-16.18-55.48-15.71-72.1C935.432,348.867,927.082,351.217,927.082,351.227Z"/><path class="f" d="M1047.23,291.632s-24.871,74.245,44.133,105.776l1.4.932-.357-17.463s-32.515-45.372-32.638-46.54S1047.23,291.632,1047.23,291.632Z"/><path class="f" d="M995.309,233.567c.04,1.19-.59,1.97-2.5,1.71-5.96-.81-12.69-.64-17.58,1.6a4.153,4.153,0,0,1-4.02-.17c-3.13-1.83-5.07-7.29-5.84-9.71a1.666,1.666,0,0,1-.08-.53c9.83-2.19,17.25-1.76,19.96.58a14.72,14.72,0,0,0,9.19,3.57A8.109,8.109,0,0,1,995.309,233.567Z"/><path class="g" d="M973.082,674.227c.244-1.849-12.918-1.676-14.407-.173s-27.721,6.915-27.2,14.7,36.872,1.665,39.469,1.482S972.6,677.863,973.082,674.227Z"/><path class="g" d="M1012.082,671.227c-.245-1.849,15.51.5,17,2s24.425,7.742,23.906,15.532-36.873,1.665-39.47,1.482S1012.563,674.863,1012.082,671.227Z"/><g class="h"><path d="M994.315,405.412l-.521-.043S993.979,405.382,994.315,405.412Z"/><path class="i" d="M994.315,405.412c13.93,1.111,44.377-.858,44.377-.858,8.946-.515,15.229-1.309,16.333-2.516a.947.947,0,0,1-.008.1c-.066,1.4-.868,17.4-1.994,38.376a10.251,10.251,0,0,1-1.464-.17,11.4,11.4,0,0,1-7.372-5.238,25.378,25.378,0,0,1-2.867-5.987C1030.935,409.361,998.778,405.813,994.315,405.412Z"/></g><path class="e" d="M989.344,191.063s22.792,12.637,16.028-7.653C1000.691,169.373,973.8,182.018,989.344,191.063Z"/><path class="e" d="M992.648,186.216s-12.752,7.566-11.522,15.157c0,0-2.812-22.662,9.868-23.232s17.589.654,16.463,24.618C1007.457,202.759,1003.773,183.7,992.648,186.216Z"/><path class="e" d="M990.441,178.289s.641-7.062,7.641-6.062,10,5,11,9,2,7,3,7c0,0-3,3-4,2,0,0,2.6,7.192-.7,13.1,0,0-1.3-9.1-6.3-10.1S990.441,178.289,990.441,178.289Z"/><path class="e" d="M991.082,178.227s-5-3-10,4l-3,6s1,1,3,0c0,0-.912,7.046.044,11.023l2.956-12.023Z"/><path class="j" d="M961.422,313.787l12.68,81.23a8.676,8.676,0,0,0,9.9,7.23l55.44-8.66a2.7,2.7,0,0,0,.39-.08,8.644,8.644,0,0,0,6.83-9.82l-12.68-81.23a8.661,8.661,0,0,0-9.9-7.22l-52.87,8.25-2.57.4A8.661,8.661,0,0,0,961.422,313.787Z"/><path class="k" d="M964.382,313.307l12.68,81.23a8.661,8.661,0,0,0,9.9,7.22l52.87-8.25a8.644,8.644,0,0,0,6.83-9.82l-12.68-81.23a8.661,8.661,0,0,0-9.9-7.22l-52.87,8.25A8.644,8.644,0,0,0,964.382,313.307Z"/><circle class="l" cx="6.692" cy="6.692" r="6.692" transform="translate(999.394 342.487)"/><path class="f" d="M1057.782,371.087s1.3-29.86-78.7-19.86,60,19,60,19Z"/><path class="a" d="M986.531,362.414c-.948-.318-10.953-6.309-16.377-6.81s-13.536-.727-16.337-1.523c-3.294-.937-4.126.372-.331,1.82a53.524,53.524,0,0,0,8.64,2.447c.542.022-2.992-.453-6.833-1.249-4.084-.847-8.513-2-8.716-1.27-.393,1.41,11.37,4.582,13.442,4.806a52.372,52.372,0,0,1-5.463-.662c-2.466-.438-5.292-1.311-5.847-.8-.875.806,5.355,3.25,10.5,3.964.09.167-1.573.427-7.632-.831-.609-.127-2.159.139-.166,1.061,4.2,1.941,5.858,3.085,11.94,3.275,5.93.184,12.476-1.036,16.742.394Z"/><path class="a" d="M972.767,356.138s-4.591-4.823-9.747-5.618c-3.065-.473-2.993-1.245-3.516-1.475-1.734-.763-.055,2.456,2.548,3.282,2.116.672,3.3,4.287,4.569,5.054s5.078,2.174,6.027,1.676S972.767,356.138,972.767,356.138Z"/><path class="d" d="M1072.082,241.227c18.836,16.854,31.869,32.507,40,84,4.125,26.125,3.05,52.25,1.976,66.027a16.278,16.278,0,0,1-11.186,14.155c-59.017,19.466-123.841-36.534-123.841-36.534-3.38-1.258,3.424-13.309,3.424-13.309,32.627-.339,57.627.661,83.627,10.661-.132-.061-25.56-47.823-29-61-9.012-34.554-38.676-64.456-31-78C1008.733,222.543,1053.082,224.227,1072.082,241.227Z"/><line class="m" x1="14.749" y2="154.222" transform="translate(946.567 401.863)"/><line class="m" x1="14.637" y2="151.536" transform="translate(961.316 404.947)"/><line class="m" x1="12.172" y2="150.477" transform="translate(978.089 404.947)"/><line class="m" x2="0.314" y2="31.17" transform="translate(1004.042 404.947)"/><line class="m" x1="2.824" y2="153.526" transform="translate(1016.514 404.947)"/><line class="m" x1="0.787" y2="154.814" transform="translate(1031.714 404.851)"/><line class="m" x2="2.978" y2="155.703" transform="translate(1045.437 404.851)"/><path class="m" d="M949.165,418.917s83.054,3.921,105,0"/><path class="m" d="M1004.355,436.117c-29.059,6.582-56.869-3.823-56.869-3.823"/><path class="m" d="M1004.042,434.151s26.225,7.369,49.26,1.146"/><path class="m" d="M946.057,443.6s20.943,10.964,54.958,5.375"/><path class="m" d="M944.343,457.056s32.589,9.95,55.061,4.83"/><path class="m" d="M942.624,470.428s16.6,13.011,55.079,7.175"/><path class="m" d="M940.623,485.81a80.746,80.746,0,0,0,55.819,4.205"/><path class="m" d="M938.763,499.9s17.924,12.724,56.173,5.333"/><path class="m" d="M936.818,514.345s24.739,12.933,56.976,2.485"/><path class="m" d="M935.261,525.619s14.6,14.037,57.3,3.631"/><path class="m" d="M933.426,538.415s23.6,12.433,57.872,3.238"/><path class="m" d="M1005.234,448.228s10.956,9.046,48.068,2.331"/><path class="m" d="M1005.522,461.843s15.374,7.168,46.9,1.507"/><path class="m" d="M1004.772,476.954s23.739,7.151,47.652,0"/><path class="m" d="M1004.43,489.486s23.077,10.259,48.454,0"/><path class="m" d="M1004.042,503.245s21.97,7.71,49.479,0"/><path class="m" d="M1003.687,516.459s18.52,8.309,50.7,0"/><path class="m" d="M1003.687,528.151s21.988,11.331,51.82,1.2"/><path class="m" d="M1003.158,542.766a101.658,101.658,0,0,0,53.98.623"/><path class="n" d="M1080.177,68.092A11.709,11.709,0,1,0,1091.885,79.8,11.725,11.725,0,0,0,1080.177,68.092Zm0,17.808a6.1,6.1,0,1,1,6.1-6.1A6.107,6.107,0,0,1,1080.177,85.9Z"/><path class="n" d="M1174.375,338.61a11.709,11.709,0,1,0,11.707,11.71A11.725,11.725,0,0,0,1174.375,338.61Zm0,17.808a6.1,6.1,0,1,1,6.1-6.1A6.107,6.107,0,0,1,1174.375,356.418Z"/><path class="n" d="M763.409,321.138a11.71,11.71,0,1,0,11.707,11.711A11.725,11.725,0,0,0,763.409,321.138Zm0,17.809a6.1,6.1,0,1,1,6.1-6.1A6.107,6.107,0,0,1,763.409,338.947Z"/><path class="o" d="M859.1,156.192l-15.735,15.736a2.313,2.313,0,1,0,3.271,3.27l15.735-15.735a2.313,2.313,0,0,0-3.271-3.271Z"/><path class="o" d="M846.632,156.192a2.313,2.313,0,0,0-3.271,3.271L859.1,175.2a2.313,2.313,0,0,0,3.271-3.27Z"/><path class="o" d="M1192.314,537.222l-15.734,15.736a2.313,2.313,0,1,0,3.271,3.27l15.734-15.735a2.313,2.313,0,0,0-3.271-3.271Z"/><path class="o" d="M1179.851,537.222a2.313,2.313,0,0,0-3.271,3.271l15.734,15.735a2.313,2.313,0,0,0,3.271-3.27Z"/><path class="o" d="M837.7,561.232l-15.735,15.736a2.313,2.313,0,0,0,3.271,3.271L840.971,564.5a2.313,2.313,0,0,0-3.271-3.271Z"/><path class="o" d="M825.236,561.232a2.313,2.313,0,0,0-3.271,3.271L837.7,580.239a2.313,2.313,0,0,0,3.271-3.271Z"/><path class="p" d="M1211.684,168.686a7.19,7.19,0,1,0,7.19,7.19A7.2,7.2,0,0,0,1211.684,168.686Zm0,10.936a3.746,3.746,0,1,1,3.746-3.746A3.75,3.75,0,0,1,1211.684,179.622Z"/><circle class="q" cx="6" cy="6" r="6" transform="translate(994.858 362.652)"/></g></svg>