<svg xmlns="http://www.w3.org/2000/svg" width="528" height="432.658" viewBox="0 0 528 432.658"><defs><style>.a{fill:#947dce;}.b{fill:#f7cf43;}.c,.e{fill:#fff;font-family:DejaVuSans, DejaVu Sans;}.c{font-size:19px;}.d{fill:#7fd1d8;}.e{font-size:21px;}.f{fill:#faa3da;}.g{fill:#62548a;}</style></defs><g transform="translate(-439.272 -175)"><g transform="translate(439.272 447.989)"><path class="a" d="M1083.672,523.409a2.66,2.66,0,0,1,1.882.779l9.207,9.206a2.659,2.659,0,0,0,3.761,0l8.8-8.8a2.658,2.658,0,0,1,1.88-.779h51.277a2.66,2.66,0,0,0,2.66-2.66v-36.01a2.661,2.661,0,0,0-2.66-2.66H968.933a2.666,2.666,0,0,0-1.831.73l-9.461,8.978a2.658,2.658,0,0,1-3.616.041l-10-9.061a2.661,2.661,0,0,0-1.786-.689H922.318a2.66,2.66,0,0,0-2.66,2.66v88.439a1.442,1.442,0,0,1,0,.578v11.662a2.659,2.659,0,0,0,2.66,2.66H942.7a2.659,2.659,0,0,1,1.881.779l9.208,9.207a2.659,2.659,0,0,0,3.761,0l8.8-8.8a2.662,2.662,0,0,1,1.882-.779h192.249a2.66,2.66,0,0,0,2.66-2.66V574.164a2.661,2.661,0,0,0-2.66-2.66h-99.235a2.659,2.659,0,0,1-2.66-2.66V526.069a2.659,2.659,0,0,1,2.66-2.66Z" transform="translate(-919.658 -439.583)"/><path class="b" d="M927.638,450.227h139.95a2.661,2.661,0,0,1,2.66,2.66V488.9a2.66,2.66,0,0,1-2.66,2.66H968.228a2.662,2.662,0,0,0-1.882.779l-8.8,8.8a2.659,2.659,0,0,1-3.761,0l-9.207-9.207a2.663,2.663,0,0,0-1.882-.778H922.318a2.66,2.66,0,0,1-2.66-2.66V458.207A7.98,7.98,0,0,1,927.638,450.227Z" transform="translate(-919.658 -450.227)"/><text class="c" transform="translate(15.835 26.555)"><tspan x="0" y="0">გაშვებისას</tspan></text><path class="d" d="M1028.3,515.18h19.923a2.652,2.652,0,0,1,1.786.689l10,9.061a2.661,2.661,0,0,0,3.617-.041l9.461-8.978a2.657,2.657,0,0,1,1.831-.73h191.545a2.66,2.66,0,0,1,2.66,2.66v36.01a2.661,2.661,0,0,1-2.66,2.66h-192.25a2.659,2.659,0,0,0-1.881.778l-8.8,8.8a2.661,2.661,0,0,1-3.762,0l-9.207-9.207a2.661,2.661,0,0,0-1.881-.779H1028.3a2.66,2.66,0,0,1-2.66-2.66v-35.6A2.659,2.659,0,0,1,1028.3,515.18Z" transform="translate(-884.692 -428.797)"/><text class="e" transform="translate(160.772 117.966)"><tspan x="0" y="0">წინ გადაადგილება</tspan></text><text class="c" transform="translate(11.001 76.147)"><tspan x="0" y="0">გაიმეორეთ</tspan></text><text class="c" transform="translate(11.001 106.838)"><tspan x="0" y="0">შესრულება</tspan></text><text class="e" transform="translate(177.857 69.168)"><tspan x="0" y="0">-ჯერ</tspan></text><rect class="f" width="25.08" height="25.08" rx="3.499" transform="translate(147.927 50.05)"/><text class="c" transform="translate(154.736 68.168)"><tspan x="0" y="0">5</tspan></text></g><g transform="translate(516.109 175)"><g transform="translate(251.751 96.348)"><g transform="translate(0 0)"><path class="g" d="M1156.863,289.37c.041-8.706-3.214-17.2-8.547-24.613a70.792,70.792,0,0,0-9.223-10.417,99.032,99.032,0,0,0-9.146-7.522l-6.484,8.878a112.327,112.327,0,0,0-15.727-28.591,128.937,128.937,0,0,1,36.049.768l-6.484,8.878a111.983,111.983,0,0,1,10.31,8.487,83.328,83.328,0,0,1,10.853,12.279c6.469,8.931,10.943,20.2,10.865,31.855Z" transform="translate(-1107.737 -226.191)"/></g></g><path class="d" d="M1082.754,294.421h19.208a2.563,2.563,0,0,1,1.723.664l9.635,8.735a2.566,2.566,0,0,0,3.487-.04l9.121-8.656a2.564,2.564,0,0,1,1.765-.7h184.663a2.564,2.564,0,0,1,2.564,2.564V331.7a2.564,2.564,0,0,1-2.564,2.564H1127.016a2.566,2.566,0,0,0-1.814.751l-8.481,8.483a2.565,2.565,0,0,1-3.627,0l-8.877-8.876a2.557,2.557,0,0,0-1.813-.751h-19.649a2.564,2.564,0,0,1-2.564-2.564V296.985A2.564,2.564,0,0,1,1082.754,294.421Z" transform="translate(-863.758 -110.593)"/><text class="c" transform="translate(236.827 211.394)"><tspan x="0" y="0">წინ გადაადგილება</tspan></text><path class="a" d="M1069.507,190.5a2.564,2.564,0,0,1,1.813.75l8.876,8.876a2.565,2.565,0,0,0,3.627,0l8.483-8.481a2.56,2.56,0,0,1,1.812-.751h49.434a2.564,2.564,0,0,0,2.564-2.564V153.61a2.564,2.564,0,0,0-2.564-2.564H958.891a2.57,2.57,0,0,0-1.766.7L948,160.406a2.564,2.564,0,0,1-3.487.04l-9.637-8.735a2.568,2.568,0,0,0-1.722-.664H913.95a2.564,2.564,0,0,0-2.564,2.564v67.559a1.4,1.4,0,0,1,0,.559v11.243a2.564,2.564,0,0,0,2.564,2.564H933.6a2.565,2.565,0,0,1,1.813.751l8.876,8.876a2.565,2.565,0,0,0,3.627,0l8.481-8.481a2.565,2.565,0,0,1,1.813-.751h185.342a2.564,2.564,0,0,0,2.564-2.564V221.728a2.564,2.564,0,0,0-2.564-2.564H1053.7a8.385,8.385,0,0,1-8.385-8.385v-11.9a8.385,8.385,0,0,1,8.385-8.385Z" transform="translate(-911.386 -151.046)"/><text class="c" transform="translate(10.606 28.85)"><tspan x="0" y="0">გაიმეორეთ</tspan></text><text class="c" transform="translate(10.606 58.438)"><tspan x="0" y="0">შესრულება</tspan></text><text class="c" transform="translate(171.466 25.003)"><tspan x="0" y="0">-ჯერ</tspan></text><rect class="d" width="24.179" height="24.179" rx="3.499" transform="translate(142.612 6.889)"/><text class="c" transform="translate(148.19 25.003)"><tspan x="0" y="0">5</tspan></text></g></g></svg>