<svg id="Layer_1" data-name="Layer 1" xmlns="http://www.w3.org/2000/svg" viewBox="0 0 500 500"><defs><style>.cls-1{fill:none;stroke:#ffffff;stroke-miterlimit:10;stroke-width:4px;}</style></defs><line class="cls-1" x1="108.4" y1="377.72" x2="225.39" y2="125.83"/><line class="cls-1" x1="135.4" y1="377.07" x2="252.38" y2="125.18"/><line class="cls-1" x1="162.39" y1="376.42" x2="279.37" y2="124.54"/><line class="cls-1" x1="189.38" y1="375.77" x2="306.36" y2="123.89"/><line class="cls-1" x1="216.37" y1="375.12" x2="333.36" y2="123.24"/><line class="cls-1" x1="243.36" y1="374.47" x2="360.35" y2="122.59"/><line class="cls-1" x1="270.36" y1="373.82" x2="387.34" y2="121.94"/><line class="cls-1" x1="297.35" y1="373.17" x2="414.33" y2="121.29"/><line class="cls-1" x1="194.16" y1="146.28" x2="424.83" y2="161.48"/><line class="cls-1" x1="179.28" y1="171.16" x2="409.95" y2="186.36"/><line class="cls-1" x1="164.4" y1="196.04" x2="395.07" y2="211.24"/><line class="cls-1" x1="149.52" y1="220.92" x2="380.19" y2="236.12"/><line class="cls-1" x1="134.64" y1="245.8" x2="365.31" y2="261"/><line class="cls-1" x1="119.76" y1="270.68" x2="350.43" y2="285.88"/><line class="cls-1" x1="104.88" y1="295.56" x2="335.55" y2="310.76"/><line class="cls-1" x1="89.99" y1="320.44" x2="320.67" y2="335.64"/><line class="cls-1" x1="75.11" y1="345.32" x2="305.79" y2="360.52"/></svg>