<svg id="Layer_1" data-name="Layer 1" xmlns="http://www.w3.org/2000/svg" viewBox="0 0 500 500"><defs><style>.cls-1{fill:none;stroke:#ffffff;stroke-miterlimit:10;stroke-width:4px;}</style></defs><line class="cls-1" x1="101.4" y1="377.72" x2="218.39" y2="125.83"/><line class="cls-1" x1="128.4" y1="377.07" x2="245.38" y2="125.18"/><line class="cls-1" x1="155.39" y1="376.42" x2="272.37" y2="124.54"/><line class="cls-1" x1="182.38" y1="375.77" x2="299.36" y2="123.89"/><line class="cls-1" x1="209.37" y1="375.12" x2="326.36" y2="123.24"/><line class="cls-1" x1="236.36" y1="374.47" x2="353.35" y2="122.59"/><line class="cls-1" x1="263.36" y1="373.82" x2="380.34" y2="121.94"/><line class="cls-1" x1="290.35" y1="373.17" x2="407.33" y2="121.29"/><line class="cls-1" x1="187.16" y1="146.28" x2="417.83" y2="161.48"/><line class="cls-1" x1="172.28" y1="171.16" x2="402.95" y2="186.36"/><line class="cls-1" x1="157.4" y1="196.04" x2="388.07" y2="211.24"/><line class="cls-1" x1="142.52" y1="220.92" x2="373.19" y2="236.12"/><line class="cls-1" x1="127.64" y1="245.8" x2="358.31" y2="261"/><line class="cls-1" x1="112.76" y1="270.68" x2="343.43" y2="285.88"/><line class="cls-1" x1="97.88" y1="295.56" x2="328.55" y2="310.76"/><line class="cls-1" x1="82.99" y1="320.44" x2="313.67" y2="335.64"/><line class="cls-1" x1="68.11" y1="345.32" x2="298.79" y2="360.52"/><line class="cls-1" x1="160" y1="126" x2="172" y2="385"/><line class="cls-1" x1="192" y1="126" x2="204" y2="385"/><line class="cls-1" x1="224" y1="126" x2="236" y2="385"/><line class="cls-1" x1="256" y1="126" x2="268" y2="385"/><line class="cls-1" x1="288" y1="126" x2="300" y2="385"/><line class="cls-1" x1="320" y1="126" x2="331" y2="357"/><line class="cls-1" x1="352" y1="126" x2="360" y2="307"/><line class="cls-1" x1="139" y1="213" x2="147" y2="394"/><line class="cls-1" x1="198" y1="120" x2="370" y2="292"/><line class="cls-1" x1="180.5" y1="137.5" x2="352.5" y2="309.5"/><line class="cls-1" x1="163" y1="155" x2="335" y2="327"/><line class="cls-1" x1="145.5" y1="172.5" x2="317.5" y2="344.5"/><line class="cls-1" x1="128" y1="190" x2="300" y2="362"/><line class="cls-1" x1="110.5" y1="207.5" x2="282.5" y2="379.5"/><line class="cls-1" x1="125" y1="257" x2="265" y2="397"/><line class="cls-1" x1="87" y1="275" x2="227" y2="415"/><line class="cls-1" x1="244" y1="120" x2="384" y2="260"/><line class="cls-1" x1="282" y1="112" x2="422" y2="252"/></svg>