<svg id="Layer_1" data-name="Layer 1" xmlns="http://www.w3.org/2000/svg" viewBox="0 0 500 500"><defs><style>.cls-1{fill:none;stroke:#ffffff;stroke-miterlimit:10;stroke-width:4px;}</style></defs><line class="cls-1" x1="113.4" y1="394.87" x2="230.39" y2="142.98"/><line class="cls-1" x1="140.4" y1="394.22" x2="257.38" y2="142.33"/><line class="cls-1" x1="167.39" y1="393.57" x2="284.37" y2="141.69"/><line class="cls-1" x1="194.38" y1="392.92" x2="311.36" y2="141.04"/><line class="cls-1" x1="221.37" y1="392.27" x2="338.36" y2="140.39"/><line class="cls-1" x1="248.36" y1="391.62" x2="365.35" y2="139.74"/><line class="cls-1" x1="275.36" y1="390.97" x2="392.34" y2="139.09"/><line class="cls-1" x1="302.35" y1="390.32" x2="419.33" y2="138.44"/><line class="cls-1" x1="199.16" y1="163.43" x2="429.83" y2="178.63"/><line class="cls-1" x1="184.28" y1="188.31" x2="414.95" y2="203.51"/><line class="cls-1" x1="169.4" y1="213.19" x2="400.07" y2="228.39"/><line class="cls-1" x1="154.52" y1="238.07" x2="385.19" y2="253.27"/><line class="cls-1" x1="139.64" y1="262.95" x2="370.31" y2="278.15"/><line class="cls-1" x1="124.76" y1="287.83" x2="355.43" y2="303.03"/><line class="cls-1" x1="109.88" y1="312.71" x2="340.55" y2="327.91"/><line class="cls-1" x1="94.99" y1="337.59" x2="325.67" y2="352.79"/><polyline class="cls-1" points="310.79 377.67 310.5 377.65 308.3 377.51 282.41 375.8 278.77 375.56 273.03 375.18 256.5 374.09 246.67 373.44 235.56 372.71 230.61 372.39 214.57 371.33 204.71 370.68 182.47 369.21 178.81 368.97 175.61 368.76 157.07 367.54 152.92 367.27 148.81 367 127.01 365.56"/><line class="cls-1" x1="172" y1="143.15" x2="184" y2="402.15"/><line class="cls-1" x1="204" y1="143.15" x2="216" y2="402.15"/><line class="cls-1" x1="236" y1="143.15" x2="248" y2="402.15"/><line class="cls-1" x1="268" y1="143.15" x2="280" y2="402.15"/><line class="cls-1" x1="300" y1="143.15" x2="312" y2="402.15"/><line class="cls-1" x1="332" y1="143.15" x2="343" y2="374.15"/><line class="cls-1" x1="364" y1="143.15" x2="372" y2="324.15"/><line class="cls-1" x1="151" y1="230.15" x2="159" y2="411.15"/><line class="cls-1" x1="210" y1="137.15" x2="382" y2="309.15"/><line class="cls-1" x1="192.5" y1="154.65" x2="364.5" y2="326.65"/><line class="cls-1" x1="175" y1="172.15" x2="347" y2="344.15"/><line class="cls-1" x1="157.5" y1="189.65" x2="329.5" y2="361.65"/><line class="cls-1" x1="140" y1="207.15" x2="312" y2="379.15"/><line class="cls-1" x1="122.5" y1="224.65" x2="294.5" y2="396.65"/><line class="cls-1" x1="137" y1="274.15" x2="277" y2="414.15"/><polyline class="cls-1" points="120.24 313.39 120.71 313.86 141.41 334.56 143.39 336.54 147.93 341.08 156.27 349.42 159.64 352.79 171.55 364.7 175.61 368.76 177.87 371.02 182.79 375.94 196.09 389.24"/><line class="cls-1" x1="256" y1="137.15" x2="396" y2="277.15"/><line class="cls-1" x1="294" y1="129.15" x2="434" y2="269.15"/><polyline class="cls-1" points="375 344.15 341.73 347.51 321.27 349.58 317.78 349.93 309.62 350.75 303.76 351.35 293.27 352.41 285.99 353.14 277.77 353.97 265.26 355.23 254.2 356.35 245.92 357.19 237.26 358.06 222.41 359.56 214.07 360.41 209.25 360.89 182.21 363.62 181.25 363.72 171.55 364.7 157.01 366.17 153.25 366.55 148.81 367 148.79 367 125.24 369.38"/><polyline class="cls-1" points="375 313.15 371.53 313.5 353.2 315.35 340.26 316.66 336.38 317.05 321.41 318.56 308.38 319.88 308.19 319.9 289.62 321.77 280.37 322.71 276.34 323.12 272.97 323.46 257.83 324.98 252.37 325.54 244.49 326.33 226.05 328.2 224.36 328.37 212.64 329.55 196.36 331.19 194.26 331.41 180.79 332.77 168.36 334.02 155.65 335.31 143.39 336.54 140.35 336.85 118.02 339.11"/><polyline class="cls-1" points="395 286.15 370.43 288.63 362.3 289.45 348.55 290.84 339.08 291.8 330.51 292.66 320.55 293.67 307.04 295.04 298.72 295.87 292.54 296.5 278.24 297.94 275.19 298.25 266.94 299.09 264.54 299.33 243.34 301.47 236.53 302.16 235.15 302.3 211.48 304.69 208.53 304.99 203.36 305.51 180.53 307.81 179.63 307.9 171.57 308.72 154.55 310.44 152.52 310.64 123.3 313.59 120.71 313.86"/><polyline class="cls-1" points="395 255.15 375.93 257.08 369.07 257.77 363.66 258.32 337.61 260.95 335.65 261.14 334.15 261.3 307.65 263.97 305.61 264.18 302.36 264.51 279.65 266.8 273.76 267.4 270.57 267.72 251.64 269.63 247.45 270.05 241.91 270.61 238.78 270.93 223.64 272.46 210.05 273.83 206.99 274.14 195.63 275.29 178.2 277.05 175.2 277.35 167.63 278.12 153.18 279.58 143.41 280.56"/><polyline class="cls-1" points="395 224.15 389.55 224.7 378.76 225.79 371.6 226.51 367.7 226.91 350.76 228.62 347.77 228.92 336.14 230.1 322.75 231.45 305.99 233.14 304.18 233.32 294.75 234.28 274.2 236.35 272.33 236.54 266.74 237.11 242.41 239.56 240.48 239.76 238.74 239.93 216.66 242.16 210.74 242.76 210.62 242.77 208.63 242.98 182.73 245.59 178.83 245.98 176.77 246.19 151.82 248.71 147.05 249.2"/><polyline class="cls-1" points="403 195.15 392.5 196.21 366.46 198.84 364.5 199.04 363.94 199.09 357.63 199.73 336.49 201.87 334.8 202.04 322.17 203.32 308.49 204.7 302.88 205.26 280.48 207.53 280.39 207.54 271.03 208.48 252.48 210.35 248.6 210.75 239.18 211.7 224.48 213.18 216.81 213.96 207.33 214.92 202.69 215.38 196.47 216.01 185.02 217.17 175.47 218.13 153.23 220.38"/><polyline class="cls-1" points="403 164.15 379.6 166.51 365.1 167.98 351.6 169.34 335.79 170.94 333.34 171.19 326.84 171.84 323.6 172.17 301.45 174.41 295.59 175 294.01 175.16 269.6 177.63 267.59 177.83 252.23 179.38 239.58 180.66 237.75 180.84 220.44 182.59 211.58 183.49 205.9 184.06 188.65 185.8 174.04 187.28"/><polyline class="cls-1" points="403 133.15 310.69 142.47 307.63 142.78 300.02 143.55 282.69 145.3 268.17 146.77 265.85 147 254.69 148.13 236.32 149.99 226.68 150.96 224.07 151.22 204.47 153.2 172.61 156.42"/><line class="cls-1" x1="355" y1="119" x2="323" y2="397"/><line class="cls-1" x1="318" y1="119" x2="286" y2="397"/><line class="cls-1" x1="281" y1="119" x2="249" y2="397"/><line class="cls-1" x1="244" y1="119" x2="212" y2="397"/><line class="cls-1" x1="207" y1="119" x2="175" y2="397"/><line class="cls-1" x1="170" y1="119" x2="138" y2="397"/></svg>