<svg xmlns="http://www.w3.org/2000/svg" xmlns:xlink="http://www.w3.org/1999/xlink" width="51.807" height="51.807" viewBox="0 0 51.807 51.807"><defs><filter id="a" x="0" y="0" width="51.807" height="51.807" filterUnits="userSpaceOnUse"><feOffset dy="3" input="SourceAlpha"/><feGaussianBlur stdDeviation="3" result="b"/><feFlood flood-opacity="0.161"/><feComposite operator="in" in2="b"/><feComposite in="SourceGraphic"/></filter></defs><g transform="translate(-401 -612.098)"><g transform="translate(313 -46)"><g transform="matrix(1, 0, 0, 1, 88, 658.1)" filter="url(#a)"><circle cx="16.903" cy="16.903" r="16.903" transform="translate(42.81 6) rotate(90)" fill="#fff"/></g><g transform="translate(105 657.416)"><g transform="translate(0 15.278)"><g transform="translate(0 0)"><path d="M14.989,20.752H13.4v-5a.473.473,0,0,0-.473-.473H3.985a.473.473,0,0,0-.473.473v5H1.923A1.925,1.925,0,0,0,0,22.675v5.083a1.925,1.925,0,0,0,1.923,1.923h1.5v1.192a.473.473,0,0,0,.473.473h9.124a.473.473,0,0,0,.473-.473V29.681h1.5a1.925,1.925,0,0,0,1.923-1.923V22.675A1.925,1.925,0,0,0,14.989,20.752Zm.977,7.006a.978.978,0,0,1-.977.977h-1.5V24.884a.473.473,0,0,0-.473-.473H3.894a.473.473,0,0,0-.473.473v3.852h-1.5a.978.978,0,0,1-.977-.977V23.934H15.967v3.824ZM4.458,16.224h8v4.529h-8ZM.946,22.675a.978.978,0,0,1,.977-.977H14.989a.978.978,0,0,1,.977.977v.314H.946Zm11.6,7.725H4.367V25.356h8.178Z" transform="translate(0 -15.278)" fill="#7fd1d8"/><path d="M518.9,253.839a.473.473,0,1,0,.334.139A.476.476,0,0,0,518.9,253.839Z" transform="translate(-504.099 -247.247)" fill="#7fd1d8"/><path d="M185.8,418.529h5.536a.473.473,0,1,0,0-.946H185.8a.473.473,0,1,0,0,.946Z" transform="translate(-180.21 -406.466)" fill="#7fd1d8"/><path d="M185.8,491.637h2.586a.473.473,0,1,0,0-.946H185.8a.473.473,0,1,0,0,.946Z" transform="translate(-180.21 -477.553)" fill="#7fd1d8"/></g></g></g></g></g></svg>