<svg xmlns="http://www.w3.org/2000/svg" width="353.059" height="267.067" viewBox="0 0 353.059 267.067"><defs><style>.a{fill:none;stroke:#000;stroke-miterlimit:10;}</style></defs><g transform="translate(-9.776 -59.583)"><path class="a" d="M10.446,126.881c7.443-5.918,18.31-1.795,26.79,2.508L67.7,144.832c4.576,2.32,9.377,4.693,14.51,4.662,6.694-.045,12.6-4.141,18.023-8.072l49.421-35.836" transform="translate(0.65 158.653)"/><path class="a" d="M58.356,105.585q32.735-4,65.749-4.962c10.194-.3,20.747-.305,30.1,3.769" transform="translate(167.699 140.949)"/><path class="a" d="M125.841,104.187c-.287-3.45-6.429-3.755-7.264-.4s4.2,6.16,6.775,3.845.785-7.39-2.647-7.838c-3.89-.511-6.762,3.612-7.852,7.381.9,2.086,4.249,1.844,5.685.081s1.5-4.24,1.5-6.515c-2.674,33.637-24.354,65.12-54.823,79.622,5.4,1.871,10.23,5.223,15.748,6.69A24.981,24.981,0,0,0,109.2,177.42a4.38,4.38,0,0,0-4.173-1.795c-1.835,5.671-7.426,9.6-13.3,10.6s-11.944-.57-17.31-3.163a32.412,32.412,0,0,0,31.542-11.167c-3.212,5.573-7.583,10.652-13.267,13.658s-16.1.085-21.841-2.813c10.423,3.091,25.911,2.158,31.788-6.986a20.65,20.65,0,0,1-1.822,6.349" transform="translate(198.581 138.305)"/><path class="a" d="M62.338,99.373a19.685,19.685,0,0,0-15.753,33.35,12.373,12.373,0,0,0,4.886,3.262c3.894,1.279,8.2-.247,11.576-2.58,7.376-5.1,11.751-14.874,9.095-23.439-.727-2.342-7.744-9.265-9.8-10.593" transform="translate(107.511 136.766)"/><path class="a" d="M47.95,109.6c5.73.022,9.332-2.894,13.487-6.838" transform="translate(131.416 148.789)"/><path class="a" d="M57.09,108.2c4.2-9.566,18.934-10.58,20.966-9.485,4.648,2.5,5.644,8.74,5.187,14-.7,7.977-3.939,16.291-10.75,20.5s-17.471,2.266-20.415-5.178a22.274,22.274,0,0,1-1.095-7.744,20.059,20.059,0,0,1,.758-7.412c.861-2.347,2.858-4.451,5.348-4.68" transform="translate(141.897 133.463)"/><path class="a" d="M45.759,185.941c-1.458-15.376,2.822-27.593,9.682-42.059,8.9-18.763,21.581-35.068,35.638-50.35,7.672-8.345,14.954-14.636,24.251-19.064" transform="translate(122.785 50.149)"/><path class="a" d="M55.613,91.063c-10.4,11.782-11.863,27.638-10.23,43.275.879,8.408,3.917,17,10.364,22.47,6.609,5.6,15.829,7.125,24.489,6.712,17.673-.839,35.243-9.445,45.181-24.085s11.154-35.261,1.418-50.036a36.8,36.8,0,0,0-12.648-11.944c-9.35-5.209-20.89-5.59-31.165-2.6s-19.41,9.1-27.409,16.211" transform="translate(120.491 44.95)"/><path class="a" d="M39.748,122.417c-3.033-.942-5.837,2.939-4.976,5.994s3.939,4.949,6.959,5.922a12.607,12.607,0,0,0,1.822-12.455c-.781-1.9-2.028-3.585-2.8-5.492a18.555,18.555,0,0,1-1.113-7.031c.04-19.607,16.9-37.716,36.45-39.156,12.805-.942,25.171,4.366,36.751,9.9a641.232,641.232,0,0,1,59.732,32.556c5.788,3.562,11.558,7.242,17.875,9.75,6.582,2.616,13.6,3.9,20.59,5.052,11.894,1.956,24.112,3.562,35.934,1.229s23.358-9.274,28.262-20.285,1.1-26.019-9.835-31.093a6.722,6.722,0,0,0-3.594-.794c-4.334.538-4.437,7.65-.79,10.05s8.462,1.494,12.715.5" transform="translate(84.916 34.886)"/><path class="a" d="M61.044,122.975c4.321-4.689,7.744-2.575,12.065-7.264-4.832,2.768-8.112-13.9-9.283-19.347s.242-12.383,2.705-17.373c3.984-8.058,7.385-9.418,14.779-14.524S99.5,58.146,106.4,63.916c4.087,3.423,7.609,6.784,9.44,11.787,1.647,4.514,1.795,10.988,1.88,15.789.238,13.6-12.159,24.919-25.489,27.616-6.308,1.274-13.128.987-18.817-2.019" transform="translate(177.071 0)"/><path class="a" d="M10.427,109.872c-.669,3.195.776,6.43,2.373,9.274,2.872,5.128,6.811,10.239,12.487,11.778-2.786-.386-5.178-2.2-7.1-4.258a26.831,26.831,0,0,1-6.815-13.877c2.535,4.626,5.092,9.288,8.5,13.312,1.822,2.149,3.98,4.164,6.676,4.976a71.434,71.434,0,0,1-9.606-9.054,24.45,24.45,0,0,1-5.689-11.751,75.2,75.2,0,0,0,14.106,23.448" transform="translate(0 173.593)"/></g></svg>