<svg xmlns="http://www.w3.org/2000/svg" width="167.076" height="81.268" viewBox="0 0 167.076 81.268"><g transform="translate(-211.863 -355.659)"><g transform="translate(213.912 355.659)"><path d="M195.96,306.137a11.951,11.951,0,0,1-.988,2.364,7.94,7.94,0,0,1-1.315,1.691,11.742,11.742,0,0,1-.864.827.268.268,0,0,0,0,.282.25.25,0,0,0,.183.084.626.626,0,0,0,.451-.207c.408-.346.64-.483.718-.564a.281.281,0,0,1,.138-.078.134.134,0,0,1,.1.011.138.138,0,0,1,.039.138.178.178,0,0,1-.1.116,13.4,13.4,0,0,1-1.535,1.227c-.152.1-.3.2-.453.3a.285.285,0,0,0-.085.159.329.329,0,0,0,.173.308c.138.076.317.011.555-.116a4.968,4.968,0,0,0,.937-.683c.581-.5.872-.744.888-.771a.489.489,0,0,1,.212-.184.061.061,0,0,1,.057,0c.028.019.015.08.014.085-.1.109-.246.252-.421.414a9.03,9.03,0,0,1-1.118.877,8.642,8.642,0,0,1-.955.552c-.116.057-.214.1-.286.135a.259.259,0,0,0-.032.169c.039.2.355.254.382.258a.686.686,0,0,0,.432-.092,8.22,8.22,0,0,0,1.414-.9,11.618,11.618,0,0,0,.912-.885.044.044,0,0,1,.053-.035.043.043,0,0,1,.028.05,5.457,5.457,0,0,1-.385.442,6.03,6.03,0,0,1-.587.527c-.2.159-.27.206-.682.513-.215.16-.39.293-.5.378a.253.253,0,0,0-.142.177.224.224,0,0,0,.049.184c.013.012.081.073.269.032a3.24,3.24,0,0,0,1.234-.658,9.069,9.069,0,0,0,1.3-1.295,6.985,6.985,0,0,0,.8-1.248c.377-.761.294-.959.725-1.846a2.981,2.981,0,0,0,.327-1.381C197.894,307.07,197.844,306.744,195.96,306.137Z" transform="translate(-163.65 -281.247)" fill="#f8b46b"/><path d="M256.956,301.153a11.944,11.944,0,0,1,1.657-1.954,7.935,7.935,0,0,1,1.765-1.214,11.7,11.7,0,0,1,1.073-.526.268.268,0,0,0,.085-.269.254.254,0,0,0-.149-.136.628.628,0,0,0-.492.061c-.493.207-.756.267-.856.32a.278.278,0,0,1-.155.033.132.132,0,0,1-.095-.042.137.137,0,0,1,.005-.143.181.181,0,0,1,.126-.083,13.489,13.489,0,0,1,1.834-.7c.177-.054.351-.1.521-.146a.28.28,0,0,0,.129-.126.327.327,0,0,0-.072-.346c-.109-.114-.3-.106-.564-.057a4.965,4.965,0,0,0-1.1.367c-.7.3-1.056.445-1.079.466a.486.486,0,0,1-.258.111c-.027,0-.046,0-.055-.014-.021-.027.01-.082.012-.085.132-.072.311-.166.526-.267a9.006,9.006,0,0,1,1.331-.5,8.73,8.73,0,0,1,1.077-.236c.127-.02.235-.033.313-.042a.26.26,0,0,0,.082-.152c.023-.2-.262-.35-.286-.362a.686.686,0,0,0-.439-.043,8.224,8.224,0,0,0-1.622.435,11.662,11.662,0,0,0-1.137.566.041.041,0,1,1-.073-.038,5.378,5.378,0,0,1,.5-.3,6.193,6.193,0,0,1,.719-.325c.234-.092.32-.114.806-.282.254-.088.461-.161.593-.208a.254.254,0,0,0,.188-.126.223.223,0,0,0,.009-.19c-.009-.016-.055-.095-.246-.112a3.242,3.242,0,0,0-1.376.253,9.058,9.058,0,0,0-1.633.84,5.724,5.724,0,0,0-.927.832c-.59.611-.765,1.236-1.444,1.951-.491.518-.691.715-.748.922C255.4,299.678,255.345,300,256.956,301.153Z" transform="translate(-186.919 -276.954)" fill="#f8b46b"/><path d="M238.27,278.961a10.543,10.543,0,0,1-1.582,2.57c-1.028,1.2-1.423,2.006-1.119,2.765a3.708,3.708,0,0,0,1.543,1.786c.373.07,1.221.3,1.221.3s1.072-3.735,2.146-4.595S238.27,278.961,238.27,278.961Z" transform="translate(-179.56 -271.242)" fill="#e6a763"/><g transform="translate(0 40.844)"><path d="M316.79,350.457c.057-.267-2.175.213-2.4-.186,0,0,.1,1.592-.139,1.8s-4.122.7-4.134,1.838,5.361.659,5.742.662S316.679,350.982,316.79,350.457Z" transform="translate(-207.041 -338.34)" fill="#a1412d"/><path d="M159.386,340.709a279.619,279.619,0,0,1,147.832,1.271q-1.694,12.814-3.389,25.627a220.451,220.451,0,0,0-144.443-2.33Z" transform="translate(-151.549 -331.387)" fill="#bfc1b4"/><path d="M146.983,360.86a210.782,210.782,0,0,1,164.776,4.872" transform="translate(-146.983 -336.924)" fill="none" stroke="#fff" stroke-miterlimit="10" stroke-width="1.201" stroke-dasharray="14.414"/></g><path d="M243.507,268.693a3.281,3.281,0,0,1,.741,1.512c.154.895-.642,1.882-.486,2.731.183,1,.884,1.36.677,1.857-.123.294-.407.263-.808.514-.947.592-.353.855-1.378,2.682-.627,1.117-1.008,1.267-1.159,1.314a2.234,2.234,0,0,1-1.746-.474c-.508-.3-2.638-1.549-2.685-3.4-.018-.738.316-.732.462-1.952.154-1.285-.181-1.588-.057-2.456a4.006,4.006,0,0,1,2.167-2.912A3.787,3.787,0,0,1,243.507,268.693Z" transform="translate(-179.998 -267.101)" fill="#f8b46b"/><path d="M236.822,267.2a1.887,1.887,0,0,0-1.616.229,1.923,1.923,0,0,0-.755,1.614c.237-.233.536-.49.654-.416.157.1-.232.639-.239,1.41-.008.837.444.968.747,2.357.2.91.083,1.206-.006,1.36-.279.483-.9.639-.875.693.03.071,1.031-.362,1.122-.21.059.1-.72.473-.651.719.044.157.418.224.7.157.655-.155.87-1.042.885-1.108a1.633,1.633,0,0,1-.293-1.055c.013-.158.071-.823.574-1.031a.905.905,0,0,1,.962.188c.433.466-.039,1.326.279,1.508.192.11.557-.1.757-.329.36-.419.1-.826.4-1.164.366-.411.979-.059,1.255-.384.451-.532-.714-2.038-.457-2.247.2-.16.85.747,2.065,1.11,1.336.4,2.675-.066,2.682-.294.005-.152-.579-.225-.587-.485-.006-.183.284-.226.442-.554.138-.285.126-.679-.025-.759s-.34.248-.878.39a.912.912,0,0,1-.789-.054c-.157-.123-.282-.367-.2-.516.1-.2.487-.034.753-.291.186-.181.245-.5.144-.589-.116-.1-.393.157-.79.287a2.644,2.644,0,0,1-1.572-.145c-.766-.2-1.683-.457-2.495-.669a2.518,2.518,0,0,0-1.618-.074A1.838,1.838,0,0,0,236.822,267.2Z" transform="translate(-179.184 -266.745)" fill="#281316"/><path d="M207.3,337.615a26.754,26.754,0,0,0-1.4,4.108c-.869,3.434.066,6.8-.5,6.826-.3.013-.329.013-1.1-.4s-3.493.375-4.1.627a36.245,36.245,0,0,0-6.124,3.682c.1,1.1.2.789.3,1.892,2-.447,3.713-.725,5.01-.9,4.584-.627,6.532-.354,7.715-.1.641.137,1.159.291,1.5.4a21.361,21.361,0,0,0,2-2.4,22.625,22.625,0,0,0,3.908-9.82Z" transform="translate(-164.318 -292.836)" fill="#f8b46b"/><path d="M242.238,306.674s.977,2.877,2.254,3.307,3.082.152,4.584-1.963,3.232-4.971,3.682-5.647-1.4-1.7-1.4-1.7-2.916,2.9-4.083,2.977-1.183-.526-1.183-.526Z" transform="translate(-182.052 -279.235)" fill="#f8b46b"/><path d="M212.147,330.393a4.73,4.73,0,0,1,1.353-.751,6.419,6.419,0,0,1,5.01.7c1.648.977,2.1,2.2,2.856,2,.633-.165.873-1.157,1-1.653,1.247-4.784,2.969-4.578,3.958-9.569a23.094,23.094,0,0,0,.4-5.661c-2.4-3.248-5.647-4.878-8.116-4.058-1.75.58-2.7,2.255-3.357,3.407-1.383,2.433-1.26,4.356-1.753,8.266A65.567,65.567,0,0,1,212.147,330.393Z" transform="translate(-170.973 -283.11)" fill="#d9b63b"/><path d="M221.5,332.411c-.2,2.843,3.761,5.556,5.01,6.413,1.8,1.234,2.959,1.46,3.507,2.805.591,1.45-.2,2.548-.6,4.509-.43,2.108.5,4.111,1.653,8.517a90.916,90.916,0,0,0,3.808,9.77c1.336-.2,1.37.2,2.706,0-.432-3.4-.61-8.57-.751-12.575-.136-3.876-.078-7.5.1-10.822-.559-2.082-2.2-4.786-4.208-8.016-1.818-2.918-3.461-4.424-5.453-4.81A4.79,4.79,0,0,0,221.5,332.411Z" transform="translate(-174.414 -289.336)" fill="#f8b46b"/><path d="M215.653,309.063c-1.842.32-2.768,6.035-2.808,6.613a14.518,14.518,0,0,0,.489,6.513c1.333,3.687,4.671,5.294,5.776,6.112,1.052-.94,1.872-1.73,2.4-2.255,1.681-1.656,1.817-2.092,2.944-2.773a8.512,8.512,0,0,1,3.068-.784c-2.355-3.205-4.877-5.232-5.862-6.964a24.937,24.937,0,0,0-3.607-4.81C216.516,309.1,216,309,215.653,309.063Z" transform="translate(-171.172 -282.32)" fill="#f2cb42"/><path d="M244.255,290.278s2.48,1.654,2.781,3.457a32.161,32.161,0,0,1-.226,6.087,5.894,5.894,0,0,0-3.082,1.878c-.9,1.353.526-7.214.526-7.214Z" transform="translate(-182.491 -275.409)" fill="#5d5d7d"/><path d="M224.311,282.2c.769.059.745,1.191,2.856,3.306,1.557,1.561,2.277,1.654,2.63,1.654,1.058,0,1.376-.843,2.254-.826,1.589.031,2.713,2.831,2.78,3.006,1.242,3.189-.231,6.437-1.5,9.243-1.317,2.9-3.02,6.659-5.786,6.914-.431.04-.655-.026-3.758-1.427-5.351-2.416-5.876-2.755-7.214-2.856-2.112-.16-3.359-1.159-3.607-1.708-.186-.412.607-.844,1.654-2.48.792-1.239.989-.731,1.427-1.9.488-1.3.469-1.573.752-2.33.742-1.989,1.858-2.741,3.231-4.358C223.04,284.9,223.107,282.112,224.311,282.2Z" transform="translate(-171.264 -272.436)" fill="#6a6a8f"/><path d="M209.8,282.891a22.467,22.467,0,0,1,4.809-1.578,15.191,15.191,0,0,1,6.012-.3c1.836.319,3.936.685,4.81,2.33.845,1.592.056,3.466-.226,4.133a8.259,8.259,0,0,1-7.364,4.885,18.869,18.869,0,0,1-5.186-1.353c-.573-.207-1.04-.395-1.353-.526a4.878,4.878,0,0,0-.6-3.607c-.548-.8-1.264-1.135-1.428-2.029A2.736,2.736,0,0,1,209.8,282.891Z" transform="translate(-169.904 -271.93)" fill="#8181ad"/><path d="M206.386,286.551s-3.507,0-4.71,2.355-3.864,10.139-4.265,11.141a1.085,1.085,0,0,0,.558,1.429s1.642-.378,1.757-.656a18.668,18.668,0,0,1,3.053-5.151,27.084,27.084,0,0,0,3.607-4.309c.1-.4,2.7-.6,2.7-.6Z" transform="translate(-165.512 -274.037)" fill="#f8b46b"/><path d="M191.908,358.708c.4-.126.008,3.327.646,3.61,0,0-2.426.1-2.7.482s-.429,6.35-2.158,6.542-1.812-8.02-1.873-8.6S191.13,358.956,191.908,358.708Z" transform="translate(-161.283 -300.6)" fill="#5d5d7d"/><path d="M241.874,385.062c-.087-.406,3.311.324,3.656-.283,0,0-.145,2.424.211,2.732s6.275,1.06,6.294,2.8-8.161,1-8.741,1.007S242.043,385.861,241.874,385.062Z" transform="translate(-181.917 -310.2)" fill="#5d5d7d"/><path d="M348.676,298.609a7.9,7.9,0,0,0,.649,1.553,5.222,5.222,0,0,0,.864,1.111,7.807,7.807,0,0,0,.567.543.175.175,0,0,1,0,.185.165.165,0,0,1-.12.055.413.413,0,0,1-.3-.135c-.268-.228-.421-.318-.472-.37a.179.179,0,0,0-.091-.052.088.088,0,0,0-.068.007.092.092,0,0,0-.025.091.117.117,0,0,0,.063.077,8.871,8.871,0,0,0,1.008.806q.15.1.3.2a.186.186,0,0,1,.056.1.216.216,0,0,1-.114.2c-.091.049-.208.008-.365-.076a3.288,3.288,0,0,1-.615-.449c-.382-.325-.572-.488-.583-.506a.323.323,0,0,0-.139-.121.041.041,0,0,0-.037,0c-.019.013-.01.052-.009.056.068.071.161.166.277.272a5.91,5.91,0,0,0,.734.576,5.625,5.625,0,0,0,.627.362c.076.038.141.068.188.088a.175.175,0,0,1,.021.112c-.025.13-.233.167-.251.169a.453.453,0,0,1-.284-.06,5.426,5.426,0,0,1-.929-.6,7.5,7.5,0,0,1-.6-.581.029.029,0,0,0-.035-.023.028.028,0,0,0-.018.033,3.561,3.561,0,0,0,.253.29,3.979,3.979,0,0,0,.386.346c.128.1.178.135.448.337.142.105.257.193.33.249a.163.163,0,0,1,.093.116.145.145,0,0,1-.032.121c-.009.008-.053.048-.176.021a2.13,2.13,0,0,1-.811-.432,5.954,5.954,0,0,1-.855-.85,4.578,4.578,0,0,1-.525-.82c-.248-.5-.193-.63-.476-1.213a1.958,1.958,0,0,1-.215-.907C347.406,299.223,347.439,299.008,348.676,298.609Z" transform="translate(-220.765 -278.476)" fill="#dba670"/><path d="M308.03,295.336a7.907,7.907,0,0,0-1.089-1.284,5.219,5.219,0,0,0-1.16-.8,7.69,7.69,0,0,0-.705-.346.175.175,0,0,1-.056-.176.167.167,0,0,1,.1-.089.412.412,0,0,1,.324.04c.324.135.5.175.562.21a.183.183,0,0,0,.1.021.085.085,0,0,0,.062-.027.09.09,0,0,0,0-.094.114.114,0,0,0-.083-.054,8.727,8.727,0,0,0-1.2-.463c-.116-.035-.23-.067-.342-.1a.181.181,0,0,1-.085-.083.214.214,0,0,1,.047-.227c.071-.075.2-.07.371-.038a3.307,3.307,0,0,1,.722.241c.462.195.694.292.709.306a.318.318,0,0,0,.169.073.042.042,0,0,0,.037-.009c.014-.018-.007-.053-.008-.056-.087-.047-.2-.109-.346-.176a5.928,5.928,0,0,0-.874-.327,5.626,5.626,0,0,0-.708-.155c-.083-.013-.154-.022-.206-.027a.171.171,0,0,1-.054-.1c-.015-.132.172-.23.188-.238a.454.454,0,0,1,.289-.028,5.433,5.433,0,0,1,1.066.286,7.617,7.617,0,0,1,.747.372.029.029,0,0,0,.04.011.029.029,0,0,0,.008-.037,3.612,3.612,0,0,0-.329-.2,4.022,4.022,0,0,0-.473-.213c-.154-.061-.21-.075-.529-.185-.167-.057-.3-.106-.39-.137a.167.167,0,0,1-.124-.083.148.148,0,0,1-.006-.125c.006-.01.036-.062.162-.073a2.134,2.134,0,0,1,.9.167,5.935,5.935,0,0,1,1.072.552,3.73,3.73,0,0,1,.609.546c.387.4.5.812.948,1.281.323.341.454.47.492.606C309.055,294.366,309.089,294.581,308.03,295.336Z" transform="translate(-204.903 -275.656)" fill="#dba670"/><path d="M321.047,280.757a6.919,6.919,0,0,0,1.039,1.688c.675.789.935,1.317.736,1.817a2.435,2.435,0,0,1-1.014,1.173c-.245.046-.8.2-.8.2s-.7-2.454-1.409-3.018S321.047,280.757,321.047,280.757Z" transform="translate(-210.479 -271.904)" fill="#d4a06c"/><path d="M316.615,274.012a2.155,2.155,0,0,0-.486.993c-.1.588.421,1.237.319,1.794-.121.656-.581.893-.445,1.219.081.193.267.172.531.337.622.389.232.562.905,1.762.412.734.662.833.761.864a1.47,1.47,0,0,0,1.147-.312c.334-.2,1.733-1.018,1.763-2.232.013-.485-.207-.481-.3-1.283-.1-.844.119-1.043.037-1.613a2.629,2.629,0,0,0-1.424-1.913A2.487,2.487,0,0,0,316.615,274.012Z" transform="translate(-209.199 -269.183)" fill="#dba670"/><path d="M319.957,273.032a1.235,1.235,0,0,1,1.061.15,1.262,1.262,0,0,1,.5,1.061c-.155-.153-.352-.322-.429-.274-.1.065.152.42.157.926.006.55-.291.636-.491,1.548-.131.6-.054.792,0,.894.183.317.59.42.575.455s-.677-.238-.737-.138c-.039.065.473.31.428.472-.029.1-.275.147-.461.1-.43-.1-.571-.684-.581-.727a1.074,1.074,0,0,0,.193-.694c-.009-.1-.047-.54-.377-.677a.594.594,0,0,0-.632.123c-.284.306.025.871-.183.99-.126.072-.366-.063-.5-.215-.236-.275-.065-.543-.263-.765-.241-.27-.643-.039-.825-.252-.3-.349.47-1.338.3-1.477-.129-.106-.559.492-1.357.729-.878.262-1.757-.043-1.762-.193,0-.1.38-.148.385-.318,0-.121-.186-.148-.291-.364-.091-.188-.083-.446.016-.5s.223.163.576.256a.6.6,0,0,0,.518-.035c.1-.081.185-.241.135-.339-.069-.133-.32-.023-.495-.191-.123-.118-.161-.329-.094-.387s.258.1.519.188a1.738,1.738,0,0,0,1.032-.095c.5-.131,1.106-.3,1.639-.439a1.654,1.654,0,0,1,1.063-.049A1.2,1.2,0,0,1,319.957,273.032Z" transform="translate(-208.684 -268.949)" fill="#ffc84f"/><path d="M335.571,319.288a17.539,17.539,0,0,1,.921,2.7c.571,2.256-.044,4.468.329,4.484.2.009.216.009.724-.263s2.295.246,2.69.411a23.77,23.77,0,0,1,4.024,2.419c-.066.724-.132.518-.2,1.242-1.315-.294-2.44-.476-3.291-.593a14.024,14.024,0,0,0-5.068-.066c-.421.09-.762.191-.988.263a14.1,14.1,0,0,1-1.316-1.58,14.86,14.86,0,0,1-2.567-6.451Z" transform="translate(-214.668 -286.089)" fill="#dba670"/><path d="M316.386,298.962s-.641,1.89-1.481,2.173a2.634,2.634,0,0,1-3.011-1.29c-.987-1.39-2.122-3.266-2.419-3.71s.921-1.116.921-1.116,1.916,1.906,2.683,1.956.777-.346.777-.346Z" transform="translate(-206.788 -277.154)" fill="#dba670"/><path d="M334.616,314.544a3.109,3.109,0,0,0-.889-.493,4.217,4.217,0,0,0-3.291.461c-1.082.642-1.376,1.447-1.876,1.317-.416-.109-.574-.76-.658-1.086-.82-3.143-1.951-3.008-2.6-6.286a15.185,15.185,0,0,1-.263-3.719c1.573-2.133,3.71-3.2,5.332-2.666a4.373,4.373,0,0,1,2.205,2.238c.909,1.6.828,2.862,1.152,5.43A43.233,43.233,0,0,0,334.616,314.544Z" transform="translate(-212.528 -279.7)" fill="#cc5d45"/><path d="M327.905,315.87c.129,1.868-2.47,3.65-3.291,4.213-1.183.811-1.944.959-2.3,1.843-.387.952.133,1.674.4,2.962.282,1.384-.328,2.7-1.086,5.6a59.689,59.689,0,0,1-2.5,6.418c-.878-.132-.9.131-1.777,0,.284-2.231.4-5.63.494-8.261.089-2.546.051-4.925-.066-7.109a23.456,23.456,0,0,1,2.765-5.266c1.195-1.917,2.273-2.906,3.582-3.16A3.147,3.147,0,0,1,327.905,315.87Z" transform="translate(-209.701 -283.79)" fill="#dba670"/><path d="M332.225,300.531c1.21.21,1.818,3.965,1.844,4.345a9.539,9.539,0,0,1-.322,4.278c-.875,2.422-3.068,3.478-3.794,4.015-.691-.617-1.23-1.136-1.58-1.481-1.1-1.088-1.194-1.374-1.935-1.822a5.59,5.59,0,0,0-2.015-.515c1.547-2.106,3.2-3.437,3.85-4.575a16.365,16.365,0,0,1,2.37-3.16C331.658,300.557,332,300.492,332.225,300.531Z" transform="translate(-212.309 -279.181)" fill="#ee6042"/><path d="M317.7,288.191s-1.629,1.086-1.827,2.271a21.082,21.082,0,0,0,.148,4,3.874,3.874,0,0,1,2.024,1.234c.592.889-.346-4.739-.346-4.739Z" transform="translate(-209.138 -274.64)" fill="#ee6042"/><path d="M323.656,282.888c-.5.039-.49.782-1.876,2.172-1.023,1.025-1.5,1.086-1.728,1.086-.694,0-.9-.555-1.481-.543-1.044.02-1.782,1.86-1.826,1.975-.816,2.1.151,4.229.987,6.073.865,1.907,1.983,4.374,3.8,4.542.283.026.43-.018,2.469-.938,3.515-1.587,3.859-1.81,4.739-1.876a2.954,2.954,0,0,0,2.37-1.122c.123-.27-.4-.554-1.086-1.629-.52-.814-.65-.48-.938-1.248-.32-.854-.308-1.033-.493-1.53-.487-1.307-1.22-1.8-2.123-2.863C324.491,284.655,324.448,282.827,323.656,282.888Z" transform="translate(-209.368 -272.688)" fill="#ee6042"/><path d="M335.408,283.339a14.71,14.71,0,0,0-3.159-1.037,9.976,9.976,0,0,0-3.95-.2c-1.206.21-2.586.45-3.159,1.53a3.268,3.268,0,0,0,.148,2.716,5.426,5.426,0,0,0,4.838,3.208,12.4,12.4,0,0,0,3.406-.888c.377-.136.683-.26.888-.346a3.205,3.205,0,0,1,.395-2.37c.36-.524.831-.746.938-1.333A1.8,1.8,0,0,0,335.408,283.339Z" transform="translate(-212.48 -272.355)" fill="#ee6042"/><path d="M339.485,285.743s2.3,0,3.094,1.547,2.539,6.661,2.8,7.319a.713.713,0,0,1-.367.939s-1.079-.248-1.154-.431a12.268,12.268,0,0,0-2-3.384,17.814,17.814,0,0,1-2.37-2.83c-.066-.263-1.777-.395-1.777-.395Z" transform="translate(-217.199 -273.739)" fill="#dba670"/><path d="M350.928,333.145c-.26-.083-.005,2.186-.424,2.371,0,0,1.594.063,1.772.317s.282,4.171,1.417,4.3,1.19-5.268,1.231-5.647S351.439,333.308,350.928,333.145Z" transform="translate(-221.91 -291.189)" fill="#a1412d"/><line x1="16.234" transform="translate(21.634 4.674)" fill="none" stroke="#6a6a8f" stroke-linecap="round" stroke-miterlimit="10" stroke-width="1.137"/><line x1="16.234" transform="translate(5.884 19.977)" fill="none" stroke="#6a6a8f" stroke-linecap="round" stroke-miterlimit="10" stroke-width="1.137"/></g><line x1="2.825" transform="translate(212.431 375.636)" fill="none" stroke="#6a6a8f" stroke-linecap="round" stroke-miterlimit="10" stroke-width="1.137"/></g></svg>