<svg xmlns="http://www.w3.org/2000/svg" width="341.294" height="447.174" viewBox="0 0 341.294 447.174"><defs><style>.a,.c{fill:#d8a35d;}.a{fill-rule:evenodd;}.b{fill:#d19442;}.d{fill:#947dce;}.e{fill:#ffc84f;}.f{opacity:0.15;}.g{opacity:0.3;}.h{opacity:0.5;}.i{fill:#999;}.j{fill:#ccc;}.k{fill:gray;}.l{fill:none;stroke:#947dce;stroke-miterlimit:10;stroke-width:1.291px;}</style></defs><g transform="translate(-545.934 -290.663)"><g transform="translate(545.934 652.376)"><path class="a" d="M562.774,676.83s-8.957,3.93-12.634,10.653c-2.185,4-3.215,3.512-3.794,4.118-1.922,2.014,3.364,1.305,5.806-1.877,1.985-2.587,7.57-2.411,9.264-3.784s5.541-5.926,5.329-7.487S562.774,676.83,562.774,676.83Z" transform="translate(-545.934 -660.959)"/><path class="a" d="M578.39,660.6c-.912,1.15-14.19,11.972-17.593,19.214s-7.772,18.33-10.273,21.8c-2.941,4.081-1.55,5.885,2.35,1.367,2.533-2.936,7.075-9.186,7.7-10.709.3-.738-2.121,3.905-5.141,8.813-3.211,5.216-7.016,10.758-6.112,11.4,1.751,1.248,12.013-13.412,13.358-16.163a76.654,76.654,0,0,1-3.646,7.215c-1.837,3.187-4.456,6.653-4.026,7.676.676,1.611,7.166-5.772,10.727-12.525.275-.041-.2,2.387-4.964,10.125-.479.778-.887,3.052,1.383.76,4.777-4.826,7.189-6.548,10.492-14.852,3.221-8.1,4.808-17.75,8.916-22.926Z" transform="translate(-546.001 -660.598)"/></g><path class="b" d="M743.947,345.391s-1.381,15.409,8.123,23.929-21.9,0-21.9,0,5.844-14.758,4.534-23.929S743.947,345.391,743.947,345.391Z" transform="translate(-4.095 -1.126)"/><ellipse class="c" cx="16.616" cy="22.67" rx="16.616" ry="22.67" transform="translate(718.223 304.899)"/><path class="d" d="M843.593,494.036c-.353,5.565-6.108,30.782-13.3,53.2-5.893,18.4-12.772,34.922-18.426,37.207-12.545,5.048-107.266,11.977-126.739,2.688-.455-.341-.947-.707-1.414-1.111-7.308-5.944-15.234-17.682-19.436-28.674,0-.013-11.194-31.565-13.48-37.989-.025-.064-.038-.113-.063-.164-.076-.252-.164-.492-.252-.72-.025-.088-.063-.163-.089-.252-11.788,40.248-43.151,128.646-68.519,156.651-2.663,2.941-14.918-13.555-14.918-13.555s-20.483-105.776,32.954-217.559c25.153-52.617,70.046-76.622,98.708-83,12.406-2.764,21.771-2.221,25.191.732a18.577,18.577,0,0,0,11.6,4.506,25.137,25.137,0,0,0,6.513-.594,32.358,32.358,0,0,0,6.9-2.348c1.061-.492,1.679-.846,1.679-.846a67.346,67.346,0,0,1,17.543,1.048C832.891,375.955,844.174,484.684,843.593,494.036Z" transform="translate(-0.381 -1.518)"/><path class="e" d="M814.294,743.927H749q.132-6,.293-12.1c.137-5.554.293-11.146.45-16.681.166-5.867.332-11.684.489-17.355.156-5.436.3-10.736.44-15.82.372-14.363.626-27.045.577-36.256-.039-8.722-.352-14.324-1.1-15.283-.284-.362-.576-.293-.89.2-.988,1.545-2.1,7.284-3.325,16.026-.655,4.644-1.33,10.139-2.034,16.3-.694,6.023-1.408,12.7-2.15,19.839-.519,5.006-1.047,10.247-1.595,15.664-.616,6.209-1.252,12.633-1.9,19.2-.479,4.811-.958,9.7-1.447,14.637q-.572,5.779-1.144,11.626h-72.8c.019-.176.039-.362.068-.538.636-4.527,1.291-9.289,1.965-14.227.8-5.867,1.623-11.978,2.454-18.226.772-5.837,1.564-11.8,2.347-17.786,1.6-12.212,3.2-24.562,4.693-36.285,1.437-11.215,2.777-21.863,3.97-31.259,2.758-21.941,4.635-37.126,4.635-37.126a7.577,7.577,0,0,0,.6.538.211.211,0,0,0,.049.039,8.6,8.6,0,0,0,2.063,1.232,12.832,12.832,0,0,0,3.109.87l6.61.117c4.889.088,11.381.176,18.832.254,5.573.059,11.684.107,18.04.127,1.662.01,3.335.02,5.016.01h.078c4.077.01,8.213.01,12.359-.01,6.512-.029,13.034-.1,19.291-.215,5.837-.107,11.459-.254,16.622-.46q3.359-.147,6.444-.3c.019.01.039,0,.059,0l.508-.029c.518-.029.8-.049.8-.049,1.046-.059,2.053-.127,3.041-.2s1.937-.127,2.855-.205h.01c.763-.059,1.5-.117,2.21-.186.469-.039.939-.088,1.388-.137.225-.02.45-.039.665-.068s.44-.049.655-.068.43-.049.636-.068.411-.049.616-.078c.293-.029.577-.068.86-.108,1.1-.147,2.083-.293,2.963-.45a20.708,20.708,0,0,0,3.364-.851c.088-.029.176-.068.264-.108a4.056,4.056,0,0,0,.46-.205c.068-.039.137-.078.2-.108s.117-.078.166-.117a1.229,1.229,0,0,0,.264-.225,1.129,1.129,0,0,1-.01.127c0,.078-.01.205-.02.372-.01.215-.02.5-.039.851-.01.235-.02.5-.039.782-.029.538-.059,1.173-.088,1.9-.01.186-.02.372-.029.567a.528.528,0,0,0-.009.117c-.011.274-.03.557-.04.851s-.039.606-.049.919c-.029.577-.059,1.183-.1,1.819-.01.264-.02.538-.039.812-.019.391-.039.792-.059,1.2-.02.274-.029.557-.039.851-.059,1.085-.117,2.229-.186,3.442-.029.606-.059,1.232-.1,1.868s-.059,1.291-.1,1.965c-.049.929-.1,1.887-.147,2.865-.078,1.5-.156,3.06-.244,4.674-.039.812-.088,1.633-.126,2.474-.1,1.916-.206,3.911-.314,5.964-.088,1.477-.156,2.992-.244,4.537-.049,1-.108,2-.156,3.021q-.176,3.212-.352,6.59c-.225,4.146-.391,8.428-.508,12.819-.44,15.556-.274,32.443.323,48.986.225,5.857.489,11.665.812,17.355s.685,11.283,1.1,16.681Q813.756,738.066,814.294,743.927Z" transform="translate(-2.599 -6.596)"/><path class="f" d="M652.38,521.311c.025.089.063.164.088.252.088.228.177.467.252.72.025.051.038.1.064.164,2.284,6.424,13.479,37.977,13.479,37.99,4.2,10.992,12.129,22.73,19.436,28.674-4.959-17.96-20.421-70.021-19.827-91C662.918,518.332,652.38,521.3,652.38,521.311Z" transform="translate(-2.366 -4.611)"/><path class="f" d="M807.34,444.914s-31.389,93.7,55.7,133.5l1.77,1.176-.45-22.039s-41.037-57.264-41.193-58.739S807.34,444.914,807.34,444.914Z" transform="translate(-5.688 -3.428)"/><path class="f" d="M739.585,369.719c.051,1.5-.744,2.486-3.155,2.159-7.522-1.023-16.016-.808-22.188,2.019a5.243,5.243,0,0,1-5.074-.214c-3.95-2.31-6.4-9.2-7.37-12.255a2.115,2.115,0,0,1-.1-.669c12.406-2.764,21.771-2.221,25.191.732a18.577,18.577,0,0,0,11.6,4.506A10.224,10.224,0,0,1,739.585,369.719Z" transform="translate(-3.462 -1.518)"/><g class="g" transform="translate(734.211 580.828)"><path d="M739.149,591.777l-.658-.054S738.724,591.739,739.149,591.777Z" transform="translate(-738.491 -587.52)"/><path class="h" d="M739.164,591.681c17.581,1.4,56.007-1.081,56.007-1.081,11.291-.65,19.221-1.653,20.614-3.176a1.267,1.267,0,0,1-.01.13c-.083,1.764-1.1,21.96-2.517,48.433a12.97,12.97,0,0,1-1.847-.213c-3.956-.733-6.992-3.186-9.3-6.612a31.959,31.959,0,0,1-3.619-7.556C785.381,596.666,744.8,592.188,739.164,591.681Z" transform="translate(-738.506 -587.424)"/></g><g transform="translate(714.381 290.663)"><g transform="translate(3.507 6.321)"><path class="e" d="M732.61,314.7s28.766,15.949,20.228-9.658C746.931,287.326,712.991,303.285,732.61,314.7Z" transform="translate(-721.902 -297.127)"/><path class="e" d="M736.674,308.61s-16.1,9.55-14.542,19.129c0,0-3.549-28.6,12.455-29.32s22.2.825,20.778,31.071C755.364,329.489,750.715,305.43,736.674,308.61Z" transform="translate(-721.796 -297.153)"/></g><path class="e" d="M734.163,298.434s.809-8.911,9.643-7.649,12.621,6.311,13.883,11.359,2.525,8.834,3.786,8.834c0,0-3.786,3.787-5.048,2.525,0,0,3.276,9.077-.886,16.528,0,0-1.638-11.48-7.948-12.742S734.163,298.434,734.163,298.434Z" transform="translate(-718.565 -290.663)"/><path class="e" d="M734.617,298.515s-6.31-3.787-12.621,5.048l-3.786,7.572s1.261,1.262,3.786,0c0,0-1.15,8.893.056,13.913l3.73-15.174Z" transform="translate(-718.21 -290.819)"/></g><path class="i" d="M696.7,472.976l16,102.521a10.95,10.95,0,0,0,12.495,9.125l69.97-10.93a3.546,3.546,0,0,0,.493-.1,10.91,10.91,0,0,0,8.62-12.394l-16-102.52a10.932,10.932,0,0,0-12.5-9.113l-66.727,10.412-3.243.5A10.932,10.932,0,0,0,696.7,472.976Z" transform="translate(-3.348 -3.529)"/><path class="j" d="M700.523,472.371l16,102.52A10.931,10.931,0,0,0,729.021,584l66.727-10.411a10.91,10.91,0,0,0,8.62-12.394l-16-102.52a10.932,10.932,0,0,0-12.495-9.113l-66.727,10.412A10.91,10.91,0,0,0,700.523,472.371Z" transform="translate(-3.433 -3.529)"/><circle class="k" cx="8.446" cy="8.446" r="8.446" transform="translate(741.279 505.668)"/><path class="f" d="M818.12,546.844s1.64-37.686-99.328-25.065,75.727,23.98,75.727,23.98Z" transform="translate(-3.149 -5.079)"/><g transform="translate(674.607 357.354)"><g transform="translate(0 156.446)"><path class="a" d="M727.969,536.03c-1.2-.4-13.824-7.964-20.67-8.6s-17.084-.917-20.617-1.922c-4.158-1.182-5.209.469-.417,2.3,3.113,1.188,9.491,3.03,10.9,3.088.684.028-3.775-.572-8.623-1.576-5.155-1.069-10.745-2.522-11-1.6-.5,1.781,14.35,5.784,16.965,6.066a65.911,65.911,0,0,1-6.9-.835c-3.112-.552-6.679-1.654-7.379-1.009-1.1,1.018,6.759,4.1,13.258,5,.112.21-1.987.54-9.633-1.049-.769-.159-2.725.176-.209,1.34,5.3,2.449,7.394,3.893,15.069,4.133,7.485.233,15.747-1.307,21.131.5Z" transform="translate(-677.531 -519.011)"/><path class="a" d="M710.949,527.97s-5.8-6.087-12.3-7.091c-3.868-.6-3.777-1.57-4.437-1.861-2.188-.964-.069,3.1,3.216,4.142,2.67.847,4.161,5.41,5.767,6.378s6.408,2.744,7.607,2.116S710.949,527.97,710.949,527.97Z" transform="translate(-677.882 -518.872)"/></g><path class="d" d="M836.846,379.386c23.774,21.271,40.223,41.026,50.484,106.016,5.206,32.972,3.85,65.944,2.494,83.332A20.542,20.542,0,0,1,875.707,586.6c-74.485,24.569-156.3-46.109-156.3-46.109-4.266-1.587,4.322-16.8,4.322-16.8,41.178-.427,72.73.835,105.545,13.456-.166-.078-32.259-60.357-36.6-76.988-11.375-43.611-48.811-81.351-39.125-98.443C756.9,355.8,812.867,357.93,836.846,379.386Z" transform="translate(-678.436 -358.87)"/></g><g transform="translate(678.239 580.604)"><path class="l" d="M681.246,743.923l.86-9.064,1.662-17.4,1.789-18.676,1.75-18.314,1.916-20,1.5-15.713,1.467-15.351,1.926-20.123,1.418-14.8.3-3.207.391-4.077" transform="translate(-681.246 -587.195)"/><path class="l" d="M700.366,744.011l.636-6.58,1.643-17,1.77-18.3,1.731-17.952L708.12,663.7l1.506-15.586,1.506-15.576,2.18-22.5,1.3-13.532.479-4.889.039-.44" transform="translate(-681.671 -587.284)"/><path class="l" d="M733.645,591.175l-.049.567-.411,5.1-1.1,13.7-1.838,22.645L729,648.62l-1.32,16.26-1.594,19.731-1.4,17.3-1.467,18.177-1.31,16.172-.626,7.754" transform="translate(-682.136 -587.284)"/><line class="l" x2="0.396" y2="39.339" transform="translate(68.906 3.895)"/><path class="l" d="M768.586,744.011l.147-8.125.323-17.131.293-16.3.323-17.238.342-18.421.284-15.7.362-19.585.381-20.5.215-11.743.068-3.813.068-3.589v-.332l.01-.352" transform="translate(-683.188 -587.284)"/><path class="l" d="M788.438,591.055v.078l-.02,2.953-.068,14.53-.01,2.18-.117,21.834-.1,19.164-.078,15.791-.1,18.431-.088,17.522-.078,15.947-.088,16.925-.039,7.6" transform="translate(-683.611 -587.281)"/><path class="l" d="M805.156,591.055l.02,1.1.342,17.883.411,21.364.01.733.342,18.03.313,15.9.332,17.786.323,16.563.313,16.71.323,16.759.2,10.13" transform="translate(-684 -587.281)"/></g><path class="l" d="M680.884,609.211s104.822,4.948,132.518,0" transform="translate(-2.999 -7.08)"/><path class="l" d="M750.492,631.3c-36.675,8.307-71.775-4.824-71.775-4.824" transform="translate(-2.951 -7.464)"/><path class="l" d="M751.719,628.874s33.1,9.3,62.172,1.446" transform="translate(-4.574 -7.517)"/><path class="l" d="M676.873,641.066S703.3,654.9,746.235,647.85" transform="translate(-2.91 -7.788)"/><path class="l" d="M674.66,658.44s41.13,12.557,69.492,6.1" transform="translate(-2.861 -8.174)"/><path class="l" d="M672.442,675.7s20.947,16.421,69.514,9.054" transform="translate(-2.812 -8.558)"/><path class="l" d="M669.859,695.555s31.94,16.689,70.449,5.307" transform="translate(-2.754 -8.999)"/><path class="l" d="M667.458,713.743s22.622,16.058,70.9,6.73" transform="translate(-2.701 -9.404)"/><path class="l" d="M664.947,732.388s31.223,16.322,71.909,3.136" transform="translate(-2.645 -9.818)"/><path class="l" d="M663.571,747.473c-.43-.342-.635-.538-.635-.538" transform="translate(-2.601 -10.141)"/><path class="l" d="M753.257,647.044s13.828,11.418,60.668,2.942" transform="translate(-4.608 -7.921)"/><path class="l" d="M753.629,664.619s19.4,9.047,59.2,1.9" transform="translate(-4.616 -8.312)"/><path class="l" d="M752.661,684.125s29.961,9.024,60.142,0" transform="translate(-4.595 -8.745)"/><path class="l" d="M752.219,700.3s29.126,12.948,61.155,0" transform="translate(-4.585 -9.105)"/><path class="l" d="M751.719,718.06s27.729,9.73,62.447,0" transform="translate(-4.574 -9.5)"/><path class="l" d="M751.261,735.117s23.374,10.487,63.989,0" transform="translate(-4.564 -9.879)"/></g></svg>