<svg xmlns="http://www.w3.org/2000/svg" width="225.422" height="243" viewBox="0 0 225.422 243"><defs><style>.a{fill:#2a2457;}.b{fill:#f2c029;}.c,.f{fill:#ecf0f1;}.c{opacity:0.24;}.d{opacity:0.5;}.e{fill:#e0635c;}.g,.h,.i,.j,.k,.l{fill:none;stroke-miterlimit:10;}.g{stroke:#fff;stroke-width:4.49px;opacity:0.4;}.g,.h,.i{stroke-linecap:round;}.h,.i{stroke:#2a2457;}.h{stroke-width:3.742px;}.i{stroke-width:5.238px;}.j{stroke:#3b3a40;stroke-width:2.245px;}.k{stroke:#da5244;stroke-width:1.497px;}.l{stroke:#f2c029;}</style></defs><g transform="translate(-572.681 -364.809)"><path class="a" d="M697.848,579.14l-1.546,7.907-4.957,25.4-6.48-.421.285-26.2.064-5.526Z" transform="translate(-2.429 -4.641)"/><path class="b" d="M619.174,470.2l-9.893-4.034.856-3.136,9.94,3.5Z" transform="translate(-0.792 -2.127)"/><path class="b" d="M624.9,435.573l-21.46,52.867-2.879,7.092s-27.328-14.776-19.22-38.38A35.439,35.439,0,0,1,584.6,450.3C601.333,422.736,624.9,435.573,624.9,435.573Z" transform="translate(-0.155 -1.468)"/><path class="c" d="M603.438,488.984l-2.879,7.092S573.23,481.3,581.339,457.7C584.449,474.519,597.217,484.856,603.438,488.984Z" transform="translate(-0.155 -2.011)"/><path class="b" d="M585.282,457.028l-12.6-8.155.209-1.178,13.323,3.86Z" transform="translate(0 -1.795)"/><path class="d" d="M697.854,579.14l-1.546,7.907-11.151-1.218.064-5.526Z" transform="translate(-2.435 -4.641)"/><path class="a" d="M767.395,539.225l7.6,2.684,24.4,8.633,2.928-5.8-22.715-13.061-4.793-2.751Z" transform="translate(-4.216 -3.554)"/><path class="b" d="M713.6,416.12l1.549-10.571-3.136-.856-2.035,10.339Z" transform="translate(-2.973 -0.864)"/><path class="b" d="M680.47,403.738l56.44,8.365,7.572,1.121s1.151-31.046-23.3-36.048a35.364,35.364,0,0,0-7.56-.673C681.38,376.92,680.47,403.738,680.47,403.738Z" transform="translate(-2.334 -0.253)"/><path class="c" d="M737.811,412.118l7.572,1.121s1.151-31.046-23.3-36.048C735,388.415,737.414,404.663,737.811,412.118Z" transform="translate(-3.235 -0.268)"/><path class="b" d="M719.443,380.224l-.625-15-1.121-.418-3.442,13.437Z" transform="translate(-3.065 0)"/><path class="a" d="M654.816,426.554c-.146-.152-4.332-7.584-4.332-7.584l-3.637,2.078a1.584,1.584,0,0,1-2.16-.589l-1.951-3.415a1.583,1.583,0,0,1,.59-2.16l10.911-6.233a1.583,1.583,0,0,1,2.16.589l1.951,3.415a1.583,1.583,0,0,1-.59,2.16l-4.125,2.357,4.105,7.185Z" transform="translate(-1.512 -0.945)"/><path class="d" d="M767.395,539.225l7.6,2.684,4.614-10.225-4.793-2.751Z" transform="translate(-4.216 -3.554)"/><circle class="e" cx="83.106" cy="83.106" r="83.106" transform="translate(612.43 412.618)"/><circle class="f" cx="73.196" cy="73.196" r="73.196" transform="translate(622.339 422.528)"/><path class="g" d="M625.229,466.687a57.458,57.458,0,0,1,9.545-15.139" transform="translate(-1.138 -1.878)"/><path class="g" d="M619.415,515.615s-3.474-20.658,3.04-41.391" transform="translate(-0.992 -2.369)"/><line class="h" x2="29.113" y2="50.96" transform="translate(666.854 445.518)"/><line class="i" y1="38.125" x2="25.34" transform="translate(670.651 494.875)"/><circle class="j" cx="66.488" cy="66.488" r="66.488" transform="translate(629.047 429.236)"/><circle class="k" cx="68.344" cy="68.344" r="68.344" transform="translate(627.192 427.38)"/><path class="l" d="M737.311,370.374s16.927,8.191,19.385,26.211" transform="translate(-3.565 -0.12)"/><path class="l" d="M585.933,496.9s-14.361-12.142-12.262-30.207" transform="translate(-0.017 -2.206)"/></g></svg>