<svg xmlns="http://www.w3.org/2000/svg" width="155.459" height="112.334" viewBox="0 0 155.459 112.334"><rect width="155.459" height="112.334" rx="17.201" fill="#b6d7db"/><g transform="translate(40.688 7.403)"><g transform="translate(26.841)"><g transform="translate(22.182 51.416)"><rect width="1.043" height="15.673" transform="translate(1.553 27.53) rotate(-89.792)" fill="#bfacb2"/><path d="M182.377,417.873l1.451-18.653.7-.355-1.66,19.01Z" transform="translate(-174.013 -372.605)" fill="#bfacb2"/><path d="M192,398.365l1.689-8.243-.64-.162-1.565,8.474Z" transform="translate(-174.392 -372.234)" fill="#bfacb2"/><path d="M193.014,417.911,191.7,399.247l-.7-.359,1.524,19.022Z" transform="translate(-174.372 -372.606)" fill="#bfacb2"/><path d="M184.286,417.88l-1.315-18.663-.7-.36,1.522,19.022Z" transform="translate(-174.009 -372.604)" fill="#bfacb2"/><path d="M173.65,417.841l1.451-18.654.7-.355-1.662,19.01Z" transform="translate(-173.65 -372.603)" fill="#bfacb2"/><path d="M181.864,397.979l1.688-8.244-.64-.161-1.565,8.475Z" transform="translate(-173.971 -372.218)" fill="#bfacb2"/><path d="M194.717,389.731a2.593,2.593,0,0,1-2.608,1.864l-7.421-.027a2.468,2.468,0,0,1-1.815-.771,1.883,1.883,0,0,1-.464-1.728l3.776-15.389a2.445,2.445,0,0,1,2.054-1.746,24.132,24.132,0,0,1,8.477-.159,1.916,1.916,0,0,1,1.67,2.238Z" transform="translate(-174.012 -371.465)" fill="#473c3c"/><path d="M191.033,399.506a.867.867,0,0,0,.69-.952.952.952,0,0,0-.97-.745l-15.885-.058a.891.891,0,0,0-.89.632.783.783,0,0,0,.516.9,3.578,3.578,0,0,0,1.3.23l14.753.053A1.675,1.675,0,0,0,191.033,399.506Z" transform="translate(-173.663 -372.558)" fill="#514747"/><path d="M193.725,389.727a2.592,2.592,0,0,1-2.608,1.864l-7.422-.027a2.474,2.474,0,0,1-1.814-.771,1.879,1.879,0,0,1-.464-1.728l3.777-15.389a2.44,2.44,0,0,1,2.053-1.745,24.108,24.108,0,0,1,8.476-.161,1.916,1.916,0,0,1,1.671,2.238Z" transform="translate(-173.971 -371.465)" fill="#605555"/><path d="M181.417,389.1l3.777-15.389a2.255,2.255,0,0,1,1.025-1.367,26.2,26.2,0,0,0,1.118,6.9c1.4,4.72,3.81,8.615,6.336,10.67a2.612,2.612,0,0,1-2.555,1.711l-7.422-.027a2.474,2.474,0,0,1-1.814-.771A1.879,1.879,0,0,1,181.417,389.1Z" transform="translate(-173.971 -371.502)" fill="#514747"/><g transform="translate(0.293 25.193)"><path d="M191.272,399.646h0Z" transform="translate(-174.677 -397.83)" fill="#ddca9f"/><path d="M173.977,398.383a.891.891,0,0,1,.891-.632l8.619.032a.893.893,0,0,0-.893.632.783.783,0,0,0,.517.9,3.516,3.516,0,0,0,1.3.23c-3.49-.012-7.4-.028-8.616-.031a3.574,3.574,0,0,1-1.3-.23A.782.782,0,0,1,173.977,398.383Z" transform="translate(-173.956 -397.751)" fill="#473c3c"/></g></g><path d="M194.36,325.2c-7.351-13.491-35.98-6.1-41.96,3.145-3.564,5.506-1.813,15.914,2.88,22.343l16.207,13.324c4.427,17.786,25.706,15,25.706,15C188.091,371.879,208.395,350.964,194.36,325.2Z" transform="translate(-150.506 -317.818)" fill="#de6449"/><path d="M194.438,325.231c-1.97-3.614-5.468-5.728-9.648-6.711a22.6,22.6,0,0,1,2.9,16.436c-2.342,11.773-13.043,19.567-23.9,17.407a19.028,19.028,0,0,1-11.4-7.186,24.227,24.227,0,0,0,2.974,5.542l16.207,13.324c4.427,17.786,25.706,15,25.706,15C188.169,371.908,208.473,350.993,194.438,325.231Z" transform="translate(-150.584 -317.847)" fill="#de4626"/><path d="M198.032,380.436c-14.143-5.415-6.316-28.762-18.9-28.523-3.866.072-7.082,9.607-6.539,14.231C177.239,382.546,196.68,380.593,198.032,380.436Z" transform="translate(-151.422 -319.236)" fill="#c23d21"/><path d="M176.057,373.539c-4.937,9.823-14.137,4.712-17.432,1.966l-.372.459s2.6,3.951,9.428,5.1c5.818.981,10.651-5.57,10.651-5.57Z" transform="translate(-150.828 -320.135)" fill="#fcc57b"/><path d="M154.015,371.543l-1.658,4.735,5.225,3.913-3.373-8.865Z" transform="translate(-150.583 -320.043)" fill="#d3edec"/><path d="M154.221,371.326l-1.555,4.919,5.226,3.913,3.407-3.083Z" transform="translate(-150.596 -320.043)" fill="#a6d1d1"/><path d="M153.117,376.255l1.411-4.139.9-.6,6.279,5.287Z" transform="translate(-150.615 -320.051)" fill="#efe8ce"/><path d="M153.613,376.285l1.838-4.772,6.279,5.287Z" transform="translate(-150.635 -320.051)" fill="#ead6bb"/><path d="M153.585,376.094l3.6-4.015,3.6,4.113Z" transform="translate(-150.634 -320.075)" fill="#e2c39f"/><path d="M160.681,373.306l-8.216,3.055,12.788,3.683.145-.317Z" transform="translate(-150.587 -320.126)" fill="#a6d1d1"/><path d="M160.681,373.306l-8.216,3.055,7.608-1.315Z" transform="translate(-150.587 -320.126)" fill="#d3edec"/><path d="M160.559,373.728l-8.094,2.651,6.692,5.381,6.028-1.68Z" transform="translate(-150.587 -320.143)" fill="#84b5b7"/><path d="M183.553,372.5c-1.044-2.61-7.85-1.867-7.732,1.478.141,4.047,2.789,15.485-2.881,16.361-3.66.186-6.772.7-7.5,1.687-1.151,1.559.7,5.114.7,5.114l19.676-.1a3.064,3.064,0,0,0,2.976-3.716C187.47,387.31,184.856,375.758,183.553,372.5Z" transform="translate(-151.111 -320.027)" fill="#5298cc"/><path d="M189.2,393.529c-1.457-6.109-4.3-17.766-5.6-21.015-.546-1.368-2.875-1.441-5.273-1.093,1.73,1.882,2.946,4.786,4.559,10.575,4.136,14.844-1.748,9.9-8.009,9.881-1.674-.007-8.693,5.276-8.693,5.276l20.018.145a3.063,3.063,0,0,0,3-3.769Z" transform="translate(-151.158 -320.04)" fill="#3c83af"/><path d="M170.056,398.85l1.906,18.16-.84-.007s-4.226-19.314-5.766-22.552C164.7,393.075,169.8,396.3,170.056,398.85Z" transform="translate(-151.121 -320.992)" fill="#fcc57b"/><path d="M177.037,398.508l-.433,18.465-.836.006s-1.732-19.611-2.853-22.887C172.438,392.7,177.107,395.92,177.037,398.508Z" transform="translate(-151.437 -320.976)" fill="#fcc57b"/><path d="M165.569,400.583l12.569.659s.87-7.816-1.5-8.284-11.189-.27-11.421.419S165.569,400.583,165.569,400.583Z" transform="translate(-151.115 -320.933)" fill="#68a1cc"/><path d="M177.064,392.961a13.147,13.147,0,0,0-1.564-.173c.822,2.349.532,7.049.434,8.319l2.634.139S179.438,393.43,177.064,392.961Z" transform="translate(-151.546 -320.936)" fill="#3c83af"/><path d="M184.961,376.493c-.7-2.938-2.056-4.712-3.036-3.96s-1.21,3.739-.513,6.676,2.055,4.712,3.034,3.962" transform="translate(-151.775 -320.086)" fill="#5298cc"/><path d="M180.648,374.292c-3.337,10.821-14.65,7.588-18.685,5.582l-.331.524s3.478,3.364,11.295,3.094c6.8-.235,10.715-7.805,10.715-7.805Z" transform="translate(-150.969 -320.167)" fill="#fcc57b"/><g transform="translate(28.41 53.837)"><path d="M181.636,379.456a25.367,25.367,0,0,0,3.006-3.916l-3.318-1.549a15.984,15.984,0,0,1-1.175,3.189A5.191,5.191,0,0,1,181.636,379.456Z" transform="translate(-180.149 -373.991)" fill="#5298cc"/></g><path d="M172.774,418.6l-3.663-.012s2.106-1.568,2.664-1.519S172.774,418.6,172.774,418.6Z" transform="translate(-151.28 -321.946)" fill="#5298cc"/><path d="M177.144,418.613l-3.662-.013s2.106-1.568,2.664-1.519S177.144,418.613,177.144,418.613Z" transform="translate(-151.462 -321.946)" fill="#5298cc"/><path d="M179.927,366.817l-3.065,1.717.829,3.594,3.55-.873Z" transform="translate(-151.602 -319.856)" fill="#ffcd9c"/><path d="M178.368,377.937c3.255-1.214,2.761-4.45,5.179-6.258a3.909,3.909,0,0,0-2.506-.911l-1.17-3.952-2.939,1.647c-.034.059-.068.118-.1.179l.685,2.976a2.486,2.486,0,0,0-1.261,2.189c0,.117.011.243.018.373a13.264,13.264,0,0,1-.765,1.152,3.467,3.467,0,0,0,1.062,2.487c.022-.019.047-.039.07-.06,0,.037.009.075.012.11A1.849,1.849,0,0,0,178.368,377.937Z" transform="translate(-151.546 -319.856)" fill="#bc5642" opacity="0.5" style="mix-blend-mode:multiply;isolation:isolate"/><path d="M180.741,368.994c-7.381,4.53-19.837,3.814-25.058-13.249-5.342-17.457,3.781-22.48,8.472-23.923,5.4-1.661,15.081-4.7,21.624,10.631S186.694,365.34,180.741,368.994Z" transform="translate(-150.654 -318.342)" fill="#ffcd9c"/><path d="M161.055,330.658c-4.314,4.266-1.191,12.52,13.839,15.478,6.7,1.32,4.622,10.451,9.533,12.84,4.887,2.377,3.457,7.272,3.419,11.031,0,0,12.666-21.612,3.553-33.167S167.342,324.44,161.055,330.658Z" transform="translate(-150.871 -318.192)" fill="#de4626"/><path d="M191.182,359.369c.375-2.863-.753-5.493-3.031-4.632-2.8,1.054-5.395,7.719-2.682,8.446A4.616,4.616,0,0,0,191.182,359.369Z" transform="translate(-151.912 -319.346)" fill="#ffcd9c"/><path d="M188.741,341.469c2.309-5.61-2.613-12.955-10.994-16.405s-17.046-1.7-19.357,3.91,2.612,12.955,10.994,16.4S186.431,347.079,188.741,341.469Z" transform="translate(-150.81 -318.046)" fill="#de6449"/><path d="M189.873,359.391c.367-1.921-.325-3.81-1.923-3.118-1.837.794-3.208,4.9-1.64,5.341A2.884,2.884,0,0,0,189.873,359.391Z" transform="translate(-151.967 -319.411)" fill="#ef8f6f"/><path d="M188.373,361.137c.315-1.311-.066-2.644-1.144-2.083-1.177.614-1.98,3.269-1.07,3.522A1.871,1.871,0,0,0,188.373,361.137Z" transform="translate(-151.973 -319.527)" fill="#ffcd9c"/><path d="M155.7,378.118l-1.505-1.2,6.027-2.045.923,1.369Z" transform="translate(-150.659 -320.191)" fill="#a3cece"/><g transform="translate(3.678 26.628)"><path d="M169.4,356.078c-.965-2.788-.293-5.415,1.49-5.872s4.02,1.432,4.981,4.218-.359,3.519-2.145,3.977S170.361,358.86,169.4,356.078Z" transform="translate(-154.951 -345.79)" fill="#af6345"/><path d="M158.794,360.489c-1.251-2.622-.984-5.265.6-5.9s3.889.981,5.142,3.6.137,3.484-1.45,4.118S160.049,363.111,158.794,360.489Z" transform="translate(-154.495 -345.969)" fill="#af6345"/><path d="M169.629,356.507c-.838-2.427-.1-4.754,1.643-5.2s3.837,1.163,4.677,3.587-.467,3.107-2.208,3.555S170.469,358.929,169.629,356.507Z" transform="translate(-154.964 -345.835)" fill="#fff9e9"/><path d="M158.873,360.96c-1.093-2.287-.649-4.667.981-5.325s3.849.666,4.944,2.954-.093,3.118-1.729,3.774S159.964,363.246,158.873,360.96Z" transform="translate(-154.506 -346.012)" fill="#fff9e9"/><path d="M170.087,357.184c-.535-1.034-.394-2.157.313-2.5s1.715.211,2.246,1.247.4,2.158-.311,2.507S170.619,358.222,170.087,357.184Z" transform="translate(-154.984 -345.975)" fill="#5795aa"/><path d="M171.237,357.85c-.231-.445-.17-.934.136-1.082s.737.094.97.54.168.93-.135,1.081S171.469,358.3,171.237,357.85Z" transform="translate(-155.04 -346.064)" fill="#7dc5d8"/><path d="M159.576,361.221c-.537-1.034-.4-2.158.313-2.505s1.715.212,2.246,1.247.395,2.159-.312,2.508S160.108,362.259,159.576,361.221Z" transform="translate(-154.547 -346.142)" fill="#5795aa"/><path d="M160.726,361.887c-.231-.445-.17-.934.135-1.082s.738.094.97.539.168.932-.134,1.082S160.957,362.332,160.726,361.887Z" transform="translate(-154.603 -346.232)" fill="#7dc5d8"/><g transform="translate(0 3.046)"><path d="M155.272,353.186a4.811,4.811,0,0,1,3.74-3.168l-.1-1.232c-1.05-.1-3.61,1.113-4.57,3.73Z" transform="translate(-154.343 -348.78)" fill="#aa5339"/></g><g transform="translate(13.266)"><path d="M168.842,347.375c1.8-1.136,4.438-.16,5,.3l.39-.986c-1.006-.815-4.054-1.722-6.044-.458Z" transform="translate(-168.185 -345.601)" fill="#aa5339"/></g><path d="M169.164,362.381a.874.874,0,0,1,.02.124c.024.635-.657,1.34-1.52,1.573a1.828,1.828,0,0,1-.925.024c.107.548.776.822,1.579.606.862-.232,1.543-.937,1.521-1.572A.82.82,0,0,0,169.164,362.381Z" transform="translate(-154.859 -346.299)" fill="#ef8f6f"/><path d="M174.245,363.608c-.55,2.384-2.893,4.02-4.885,4.576l-.325.3c2.315-.247,5.789-2.332,5.952-5.574Z" transform="translate(-154.954 -346.321)" fill="#ef8f6f"/></g></g><g transform="translate(0 64.163)"><rect width="27.079" height="0.767" transform="translate(5.825 7.063)" fill="#773728"/><rect width="27.662" height="1.507" transform="translate(5.774 1.181)" fill="#773728"/><path d="M156.116,385.725h2.032l-3.2,31.578h-.938Z" transform="translate(-123.811 -384.805)" fill="#773728"/><path d="M164.914,385.725h2.031l-3.2,31.578H162.8Z" transform="translate(-124.177 -384.805)" fill="#964630"/><path d="M137.586,385.725h-1.993l3.143,31.578h.92Z" transform="translate(-123.045 -384.805)" fill="#964630"/><path d="M128.85,385.725h-1.993L130,417.3h.92Z" transform="translate(-122.682 -384.805)" fill="#773728"/><rect width="45.681" height="1.84" fill="#773728"/><rect width="27.079" height="0.766" transform="translate(14.247 4.731)" fill="#964630"/><rect width="34.145" height="1.84" transform="translate(11.536)" fill="#964630"/></g><path d="M139.144,378.882l1.495-6.414.407-.264.462.235-1.943,7.159Z" transform="translate(-123.193 -320.08)" fill="#bfc455"/><path d="M138.059,379.831l-.764-6.541.293-.387.515.065.594,7.395Z" transform="translate(-123.116 -320.109)" fill="#a37fd3"/><path d="M136.855,379.135l-1.262-6.856.27-.424.529.039,1.152,7.765Z" transform="translate(-123.045 -320.065)" fill="#ef5959"/><path d="M139.021,378.4l.161-6.969.351-.36.511.146-.455,7.837Z" transform="translate(-123.188 -320.033)" fill="#ffc05c"/><path d="M136.859,384.444l-1.068-7.322h5.135l-.814,7.322Z" transform="translate(-123.053 -320.284)" fill="#9ca6ad"/><g transform="translate(12.739 56.838)"><path d="M135.8,377.122h0l0,.03Z" transform="translate(-135.792 -377.122)" fill="#7b8991"/><path d="M140.381,377.122c-.037,2.652-1.045,4.78-2.285,4.78-.805,0-1.511-.9-1.92-2.254l.7,4.8h3.254l.814-7.322Z" transform="translate(-135.808 -377.122)" fill="#7b8991"/></g><path d="M161.625,379.4c-.184-.223-.463-.426-.586-.38-.1.04.106.19.2.357.089.148.123.2.072.212-.032.009-.19-.168-.376-.357-.23-.24-.429-.37-.548-.323s.086.179.263.408c.156.2.242.284.127.334-.052.026-.177-.1-.414-.272-.271-.194-.5-.271-.571-.215-.1.082.1.115.368.364.359.331.515.377.528.629.012.234-.836-.265-.87-.06-.044.27,1.766.843,2.1.683C162.417,380.55,162.206,380.113,161.625,379.4Z" transform="translate(-124.051 -320.359)" fill="#fcc57b"/></g></svg>