<svg xmlns="http://www.w3.org/2000/svg" xmlns:xlink="http://www.w3.org/1999/xlink" width="536" height="481.774" viewBox="0 0 536 481.774"><defs><style>.a{fill:#f4e6ff;}.b{fill:#f7c042;}.ab,.ad,.c,.e{fill:#fff;}.c{font-size:17px;font-family:BPGArial, BPG Arial;}.aa,.ac,.d,.h,.m,.t{fill:none;}.d{stroke:#966a29;stroke-miterlimit:10;stroke-width:0.489px;}.f{fill:#dfad3b;}.g{fill:url(#a);}.h{stroke:#707070;}.aa,.ac,.ad,.af,.h,.m,.t{stroke-linecap:round;}.h,.m,.t{stroke-width:2.101px;}.i{fill:url(#b);}.j{fill:url(#c);}.k{fill:url(#d);}.l{fill:url(#e);}.m{stroke:#007fdf;}.n{fill:url(#f);}.o{fill:url(#g);}.p{fill:url(#h);}.q{fill:url(#i);}.r{fill:url(#j);}.s{fill:url(#k);}.t{stroke:#60c;}.u{fill:url(#l);}.v{fill:url(#m);}.w{fill:url(#n);}.x{fill:url(#o);}.y{fill:url(#p);}.z{fill:#f9a41e;}.ab,.ad,.ae,.af,.ah,.ai,.aj,.al,.z{fill-rule:evenodd;}.aa,.ac,.ad,.af{stroke:#231f20;stroke-linejoin:round;}.aa,.ad{stroke-width:1.76px;}.ac,.af{stroke-width:1.232px;}.ae,.af{fill:#231f20;}.ag{opacity:0.1;}.ah{fill:#fcb322;}.ai{fill:#71cbd2;}.aj{fill:#ef463c;}.ak,.al{fill:#2a3d98;}</style><radialGradient id="a" cx="0.661" cy="0.465" r="0.602" gradientTransform="matrix(5.008, 0, 0, -1, -1345.228, 403.972)" gradientUnits="objectBoundingBox"><stop offset="0" stop-color="#f0d520"/><stop offset="1" stop-color="#ff9400"/></radialGradient><radialGradient id="b" cx="0.612" cy="0.336" r="0.772" gradientTransform="matrix(1.263, 0, 0, -1, -12.279, 223.99)" gradientUnits="objectBoundingBox"><stop offset="0" stop-color="#ff0"/><stop offset="1" stop-color="#ff9400"/></radialGradient><radialGradient id="c" cx="0.661" cy="0.465" r="0.602" gradientTransform="matrix(5.007, 0, 0, -1, -1345.073, 423.484)" xlink:href="#a"/><radialGradient id="d" cx="0.612" cy="0.336" r="0.772" gradientTransform="matrix(1.263, 0, 0, -1, -12.279, 234.63)" xlink:href="#b"/><radialGradient id="e" cx="0.269" cy="0.256" r="0.698" gradientTransform="matrix(5.008, 0, 0, -1, -1343.84, 413.921)" gradientUnits="objectBoundingBox"><stop offset="0" stop-color="#03c"/><stop offset="1" stop-color="aqua"/></radialGradient><radialGradient id="f" cx="0.687" cy="0.26" r="0.858" gradientTransform="matrix(1.263, 0, 0, -1, -12.301, 229.335)" gradientUnits="objectBoundingBox"><stop offset="0" stop-color="aqua"/><stop offset="1" stop-color="#03c"/></radialGradient><radialGradient id="g" cx="0.269" cy="0.256" r="0.698" gradientTransform="matrix(5.007, 0, 0, -1, -1343.691, 420.455)" xlink:href="#e"/><radialGradient id="h" cx="0.687" cy="0.26" r="0.858" gradientTransform="matrix(1.263, 0, 0, -1, -12.301, 232.899)" xlink:href="#f"/><radialGradient id="i" cx="0.269" cy="0.256" r="0.698" gradientTransform="matrix(5.008, 0, 0, -1, -1343.831, 402.21)" xlink:href="#e"/><radialGradient id="j" cx="0.687" cy="0.26" r="0.858" gradientTransform="matrix(1.263, 0, 0, -1, -12.301, 222.945)" xlink:href="#f"/><linearGradient id="k" x1="335.547" y1="201.248" x2="335.449" y2="200.251" gradientUnits="objectBoundingBox"><stop offset="0" stop-color="#7f3f98"/><stop offset="1" stop-color="#60c"/></linearGradient><radialGradient id="l" cx="0.51" cy="0.292" r="0.827" gradientTransform="matrix(1.263, 0, 0, -1, -12.253, 222.758)" gradientUnits="objectBoundingBox"><stop offset="0" stop-color="#db50f0"/><stop offset="1" stop-color="#7f3f98"/></radialGradient><linearGradient id="m" x1="335.562" y1="197.715" x2="335.464" y2="196.718" xlink:href="#k"/><radialGradient id="n" cx="0.51" cy="0.292" r="0.827" gradientTransform="matrix(1.263, 0, 0, -1, -12.253, 218.904)" xlink:href="#l"/><linearGradient id="o" x1="335.549" y1="210.207" x2="335.451" y2="209.21" xlink:href="#k"/><radialGradient id="p" cx="0.51" cy="0.292" r="0.827" gradientTransform="matrix(1.263, 0, 0, -1, -12.253, 232.533)" xlink:href="#l"/></defs><g transform="translate(-355.385 -129.565)"><g transform="translate(355.385 132.838)"><path class="a" d="M871.9,386.574c-22.641,29.632-62.723,52.25-92.637,73.409-12.38,8.755-24.878,17.488-37.528,26.043q-8.826,5.984-17.759,11.838c-29.69,19.441-60.276,37.611-92.143,52.757a279.893,279.893,0,0,1-28.8,11.733C575.406,571.9,441.8,611.132,408.324,572.815c-26.962-30.856,65.43-57.216,81.622-82.835,1.883-2.977,3.59-6.543,2.53-9.9-1.682-5.307-8.638-6.3-14.2-6.319-26.548-.106-113.2,17.864-121.623-9.885-13.015-42.942,77.728-91.72,120.081-122.14A1965.683,1965.683,0,0,1,772.25,166.5c24.877-11.944,50.155-23.418,76.786-30.655,11.274-3.072,24.608-4.954,33.563,2.577,7.5,6.307,9.191,17.593,6.5,27.019s-9.015,17.334-15.51,24.666a312.877,312.877,0,0,1-43.33,40.388,426.578,426.578,0,0,0-39.517,34.092c-4.707,4.614-8.779,10.909-7.591,17.394,1,5.542,5.6,9.732,10.45,12.627,12.263,7.332,26.984,8.944,41.188,10.521s28.95,3.5,40.919,11.285C904.416,335.1,887.929,365.581,871.9,386.574Z" transform="translate(-355.385 -133.154)"/></g><g transform="translate(490.012 219.526)"><path class="b" d="M791.586,247.326H621.409a106.24,106.24,0,0,0-61.156-19.116c-28.646.245-48.5,15.686-56.537,21.023-.037.027-.067.06-.123.1a4.049,4.049,0,0,0-.591,2.1v52.576a4.112,4.112,0,0,0,4.112,4.112h14.673l11.561,10.023h18.8l10.388-10.023H791.586a4.112,4.112,0,0,0,4.111-4.112V251.437A4.112,4.112,0,0,0,791.586,247.326Z" transform="translate(-503.002 -228.206)"/><text class="c" transform="translate(76.682 50.706)"><tspan x="-54.333" y="0">when i receive</tspan></text><text class="c" transform="translate(199.391 50.706)"><tspan x="-34.49" y="0">Message</tspan></text><rect class="d" width="130.811" height="34.302" rx="6.498" transform="translate(149.661 30.655)"/><path class="e" d="M779.818,275.8H798.3l-8.794,8.794Z" transform="translate(-527.362 -232.394)"/></g><g transform="translate(490.012 328.96)"><path class="b" d="M757.579,348.2H564.744l-11.257,10.861H534.173L522.109,348.6H507.979a7.207,7.207,0,0,1-1.195-.358,4.209,4.209,0,0,0-3.782,4.18v54a4.224,4.224,0,0,0,4.223,4.224H522.3l11.875,10.3h19.313l10.67-10.3H757.579a4.224,4.224,0,0,0,4.223-4.224v-54A4.224,4.224,0,0,0,757.579,348.2Z" transform="translate(-503.002 -348.2)"/><text class="c" transform="translate(60.349 36.642)"><tspan x="-37.395" y="0">broadcast</tspan></text><rect class="f" width="130.811" height="34.302" rx="17.151" transform="translate(116.045 14.795)"/><path class="e" d="M742.958,378.408h18.484l-8.794,8.794Z" transform="translate(-524.118 -350.858)"/><text class="c" transform="translate(165.776 34.846)"><tspan x="-34.49" y="0">Message</tspan></text></g><g transform="translate(490.012 421.201)"><path class="b" d="M844.731,449.341H564.744L553.487,460.2H534.173l-12.064-10.459H507.979a7.3,7.3,0,0,1-1.195-.357A4.208,4.208,0,0,0,503,453.564v54.005a4.223,4.223,0,0,0,4.223,4.223H522.3l11.875,10.3h19.313l10.67-10.3H844.731a4.224,4.224,0,0,0,4.224-4.223V453.564A4.224,4.224,0,0,0,844.731,449.341Z" transform="translate(-503.002 -449.341)"/><text class="c" transform="translate(60.349 36.641)"><tspan x="-37.395" y="0">broadcast</tspan></text><text class="c" transform="translate(297.14 36.641)"><tspan x="-31.659" y="0">and wait</tspan></text><rect class="f" width="130.811" height="34.302" rx="17.151" transform="translate(116.045 14.795)"/><path class="e" d="M742.958,479.548h18.484l-8.794,8.794Z" transform="translate(-524.118 -451.999)"/><text class="c" transform="translate(165.776 34.846)"><tspan x="-34.49" y="0">Message</tspan></text></g><g transform="translate(592.125 365.223)"><g transform="translate(0)"><g transform="translate(26.435 83.291)"><path class="g" d="M647.845,479.289c-3.42,3.916-4.409,8.426-3.653,13.509.615,4.13,7.308,6,7.6.793.1-1.782.114-3.581.072-5.365-.1-4.389-4,2.646-4.162,4.537-.476,5.371-.708,11.438,4.057,15.027.012-.109.017-.219.019-.327a5.555,5.555,0,0,1,.682-2.854c.5-.871-.616-4.276.094-4.789-8.393,6.052-5.14,21.273.733,27.8-.762-.847.889-3.9.094-4.789-5.126-5.7-7.9-13.189-.921-18.222q.047-2.394.094-4.789a5.794,5.794,0,0,0-.7,2.83c-.016.462-2.149-1.721-2.183-1.765a10.452,10.452,0,0,1-1.438-2.829c-.813-2.075-.532-1.7.32-3.663a8.365,8.365,0,0,1,1.983-2.545c1.515-1.49,1.214.63,1.24,1.743q.049-2.353.1-4.7c-.3,2.969-2.715,3.874-5.227,2.514a5.3,5.3,0,0,1-2.365-3.392c.65,2.359-.115,1.859.669.015a15.54,15.54,0,0,1,2.8-3.947c.818-.938-.7-3.885.092-4.789Z" transform="translate(-643.953 -479.289)"/><path class="h" d="M653.94,502.882a34.627,34.627,0,0,1-.1,4.311,7.33,7.33,0,0,1-.767,1.82" transform="translate(-644.756 -481.365)"/></g><path class="i" d="M684.608,436c-3.261,23.756-31.623,40.839-40.186,40.543-9.339-.323-32.4-26.3-29.141-50.062s21.426-40.884,40.569-38.257S687.87,412.247,684.608,436Z" transform="translate(-614.968 -387.961)"/></g></g><g transform="translate(572.649 129.565)"><g transform="translate(26.435 83.291)"><path class="j" d="M626.491,220.893c-3.421,3.916-4.41,8.425-3.654,13.509.615,4.13,7.308,6,7.6.793.1-1.782.114-3.582.072-5.366-.1-4.389-4,2.646-4.162,4.538-.476,5.37-.708,11.438,4.057,15.026a3.276,3.276,0,0,0,.019-.327,5.563,5.563,0,0,1,.682-2.853c.5-.871-.616-4.276.094-4.789-8.392,6.052-5.139,21.272.733,27.8-.762-.847.89-3.9.094-4.788-5.125-5.7-7.9-13.189-.921-18.222q.047-2.4.094-4.789a5.789,5.789,0,0,0-.7,2.829c-.016.462-2.149-1.72-2.183-1.764a10.479,10.479,0,0,1-1.438-2.829c-.813-2.075-.531-1.7.32-3.663a8.387,8.387,0,0,1,1.983-2.545c1.516-1.489,1.215.63,1.24,1.744q.049-2.353.1-4.7c-.3,2.969-2.715,3.874-5.227,2.514a5.3,5.3,0,0,1-2.365-3.393c.65,2.359-.115,1.86.669.016a15.522,15.522,0,0,1,2.8-3.947c.818-.938-.7-3.885.093-4.789Z" transform="translate(-622.598 -220.893)"/><path class="h" d="M632.585,244.486a34.634,34.634,0,0,1-.1,4.311,7.325,7.325,0,0,1-.766,1.819" transform="translate(-623.401 -222.969)"/></g><path class="k" d="M663.254,177.606c-3.261,23.756-31.624,40.839-40.187,40.543-9.339-.323-32.4-26.3-29.141-50.062S615.351,127.2,634.5,129.831,666.516,153.85,663.254,177.606Z" transform="translate(-593.613 -129.565)"/></g><g transform="translate(457.963 250.181)"><g transform="translate(0 0)"><g transform="translate(26.434 83.244)"><path class="l" d="M500.738,353.1c-3.42,3.916-4.41,8.425-3.654,13.509.615,4.13,7.307,6,7.6.793.1-1.782.114-3.582.073-5.366-.1-4.389-4,2.646-4.162,4.538-.476,5.37-.708,11.437,4.057,15.026a3.249,3.249,0,0,0,.018-.327,5.563,5.563,0,0,1,.683-2.853c.5-.871-.616-4.277.093-4.789-8.392,6.052-5.139,21.272.734,27.8-.762-.847.889-3.9.093-4.789-5.125-5.695-7.9-13.188-.92-18.221l.093-4.789a5.8,5.8,0,0,0-.7,2.829c-.016.462-2.149-1.721-2.183-1.765a10.435,10.435,0,0,1-1.438-2.828c-.814-2.075-.532-1.7.319-3.664a8.393,8.393,0,0,1,1.984-2.545c1.515-1.489,1.214.63,1.24,1.744q.048-2.354.1-4.7c-.3,2.969-2.715,3.874-5.227,2.514a5.294,5.294,0,0,1-2.366-3.392c.651,2.359-.115,1.86.669.016a15.553,15.553,0,0,1,2.8-3.947c.819-.938-.7-3.886.093-4.789Z" transform="translate(-496.846 -353.095)"/><path class="m" d="M506.832,376.688a34.434,34.434,0,0,1-.1,4.31,7.285,7.285,0,0,1-.766,1.82" transform="translate(-497.649 -355.171)"/></g><path class="n" d="M537.5,309.86c-3.261,23.756-31.624,40.839-40.187,40.543-9.338-.323-32.4-26.3-29.14-50.062s21.426-40.884,40.569-38.257S540.763,286.1,537.5,309.86Z" transform="translate(-467.861 -261.819)"/></g></g><g transform="translate(611.89 171.235)"><g transform="translate(26.435 83.244)"><path class="o" d="M669.518,266.531c-3.42,3.916-4.409,8.425-3.653,13.509.615,4.13,7.308,6,7.6.793.1-1.782.114-3.582.072-5.366-.1-4.389-4,2.646-4.162,4.538-.476,5.37-.708,11.437,4.057,15.026a3.24,3.24,0,0,0,.019-.327,5.553,5.553,0,0,1,.682-2.853c.5-.871-.616-4.277.094-4.789-8.392,6.052-5.14,21.272.733,27.8-.762-.847.89-3.9.094-4.788-5.125-5.7-7.9-13.189-.921-18.222q.047-2.4.094-4.789a5.789,5.789,0,0,0-.7,2.829c-.016.462-2.149-1.721-2.183-1.765a10.463,10.463,0,0,1-1.438-2.828c-.813-2.075-.531-1.7.32-3.664a8.373,8.373,0,0,1,1.983-2.545c1.516-1.489,1.214.63,1.24,1.744q.049-2.354.1-4.7c-.3,2.969-2.715,3.874-5.227,2.514a5.293,5.293,0,0,1-2.365-3.392c.65,2.359-.115,1.86.669.016a15.507,15.507,0,0,1,2.8-3.947c.818-.938-.7-3.886.092-4.789Z" transform="translate(-665.626 -266.531)"/><path class="m" d="M675.613,290.124a34.627,34.627,0,0,1-.1,4.31,7.321,7.321,0,0,1-.766,1.82" transform="translate(-666.429 -268.607)"/></g><path class="p" d="M706.281,223.3c-3.261,23.756-31.623,40.839-40.186,40.543-9.339-.323-32.4-26.3-29.141-50.062s21.426-40.884,40.569-38.257S709.543,199.541,706.281,223.3Z" transform="translate(-636.641 -175.255)"/></g><g transform="translate(783.431 391.676)"><g transform="translate(0 0)"><g transform="translate(26.435 83.244)"><path class="q" d="M857.61,508.243c-3.42,3.916-4.41,8.425-3.654,13.509.615,4.129,7.307,6,7.6.792.1-1.782.114-3.582.073-5.366-.1-4.39-4,2.646-4.162,4.538-.476,5.37-.708,11.437,4.057,15.026a3.238,3.238,0,0,0,.018-.327,5.565,5.565,0,0,1,.683-2.853c.5-.871-.616-4.277.093-4.789-8.392,6.052-5.139,21.272.734,27.8-.762-.847.889-3.9.093-4.789-5.125-5.7-7.9-13.188-.92-18.221q.047-2.4.093-4.789a5.8,5.8,0,0,0-.7,2.829c-.015.462-2.149-1.721-2.183-1.765A10.437,10.437,0,0,1,858,527.01c-.813-2.075-.532-1.7.319-3.663A8.393,8.393,0,0,1,860.3,520.8c1.515-1.489,1.214.63,1.24,1.743q.048-2.353.1-4.7c-.3,2.969-2.715,3.874-5.227,2.514a5.294,5.294,0,0,1-2.366-3.392c.651,2.359-.115,1.859.669.016a15.553,15.553,0,0,1,2.8-3.947c.819-.938-.7-3.886.093-4.789Z" transform="translate(-853.718 -508.243)"/><path class="m" d="M863.7,531.836a34.436,34.436,0,0,1-.1,4.31,7.287,7.287,0,0,1-.766,1.82" transform="translate(-854.521 -510.319)"/></g><path class="r" d="M894.373,465.008c-3.261,23.756-31.624,40.839-40.187,40.543-9.338-.323-32.4-26.3-29.14-50.062s21.426-40.885,40.569-38.257S897.635,441.253,894.373,465.008Z" transform="translate(-824.733 -416.967)"/></g></g><g transform="translate(412.871 394.384)"><g transform="translate(0 0)"><g transform="translate(26.434 83.244)"><path class="s" d="M451.3,511.212c-3.42,3.915-4.41,8.425-3.654,13.509.616,4.13,7.308,6,7.6.792.1-1.781.114-3.581.073-5.365-.1-4.389-4,2.646-4.163,4.537-.475,5.371-.707,11.438,4.058,15.027.011-.108.017-.218.018-.327a5.565,5.565,0,0,1,.683-2.854c.5-.871-.616-4.276.093-4.788-8.392,6.051-5.139,21.272.734,27.8-.762-.847.889-3.9.093-4.789-5.125-5.7-7.9-13.189-.92-18.222q.047-2.394.093-4.788a5.8,5.8,0,0,0-.7,2.829c-.016.462-2.149-1.721-2.183-1.765a10.457,10.457,0,0,1-1.439-2.829c-.813-2.075-.531-1.7.32-3.663a8.38,8.38,0,0,1,1.984-2.545c1.515-1.49,1.214.63,1.24,1.743q.048-2.353.1-4.7c-.3,2.969-2.716,3.874-5.227,2.514a5.3,5.3,0,0,1-2.366-3.392c.65,2.359-.115,1.86.669.015A15.585,15.585,0,0,1,451.2,516c.819-.938-.7-3.885.093-4.788Z" transform="translate(-447.402 -511.212)"/><path class="t" d="M457.389,534.8a34.439,34.439,0,0,1-.1,4.31,7.3,7.3,0,0,1-.766,1.82" transform="translate(-448.205 -513.288)"/></g><path class="u" d="M488.058,467.978c-3.261,23.756-31.624,40.839-40.187,40.543-9.338-.323-32.4-26.3-29.14-50.062S440.156,417.574,459.3,420.2,491.32,444.221,488.058,467.978Z" transform="translate(-418.418 -419.936)"/></g></g><g transform="translate(636.39 479.766)"><g transform="translate(0)"><g transform="translate(26.435 83.243)"><path class="v" d="M696.381,604.833c-3.42,3.916-4.409,8.425-3.653,13.509.615,4.13,7.307,6,7.6.793.1-1.782.114-3.582.073-5.366-.1-4.389-4,2.646-4.163,4.538-.475,5.37-.707,11.438,4.058,15.026a3.274,3.274,0,0,0,.018-.327,5.563,5.563,0,0,1,.683-2.853c.5-.871-.617-4.276.093-4.789-8.392,6.052-5.139,21.272.734,27.8-.762-.847.889-3.9.093-4.788-5.125-5.7-7.9-13.189-.92-18.222q.046-2.4.093-4.789a5.8,5.8,0,0,0-.7,2.829c-.016.462-2.149-1.721-2.183-1.765a10.436,10.436,0,0,1-1.438-2.828c-.813-2.075-.532-1.7.319-3.664a8.4,8.4,0,0,1,1.984-2.545c1.515-1.489,1.214.63,1.24,1.744q.048-2.353.1-4.7c-.3,2.969-2.715,3.874-5.227,2.514a5.3,5.3,0,0,1-2.366-3.393c.65,2.359-.115,1.86.669.016a15.568,15.568,0,0,1,2.8-3.947c.819-.938-.7-3.885.093-4.789Z" transform="translate(-692.489 -604.833)"/><path class="t" d="M702.475,628.426a34.459,34.459,0,0,1-.1,4.311,7.287,7.287,0,0,1-.766,1.819" transform="translate(-693.292 -606.909)"/></g><path class="w" d="M733.144,561.6c-3.261,23.756-31.624,40.839-40.187,40.543-9.338-.323-32.4-26.3-29.14-50.062s21.426-40.884,40.569-38.257S736.406,537.843,733.144,561.6Z" transform="translate(-663.504 -513.557)"/></g></g><g transform="translate(765.819 177.895)"><g transform="translate(26.434 83.244)"><path class="x" d="M838.3,273.834c-3.421,3.915-4.409,8.425-3.654,13.509.615,4.13,7.308,6,7.6.793.1-1.782.114-3.582.072-5.366-.1-4.389-3.995,2.646-4.162,4.537-.476,5.371-.708,11.438,4.057,15.027a3.274,3.274,0,0,0,.019-.327,5.575,5.575,0,0,1,.682-2.854c.5-.87-.616-4.276.094-4.788-8.392,6.052-5.139,21.272.733,27.8-.762-.847.89-3.9.094-4.789-5.125-5.7-7.9-13.189-.921-18.222q.048-2.394.094-4.788a5.788,5.788,0,0,0-.7,2.829c-.016.462-2.15-1.721-2.183-1.765a10.462,10.462,0,0,1-1.439-2.828c-.813-2.076-.531-1.7.32-3.663a8.391,8.391,0,0,1,1.984-2.545c1.515-1.49,1.214.63,1.239,1.743q.049-2.353.1-4.7c-.3,2.969-2.716,3.874-5.227,2.514a5.294,5.294,0,0,1-2.366-3.392c.65,2.359-.115,1.86.669.015a15.584,15.584,0,0,1,2.8-3.947c.819-.938-.7-3.885.093-4.788Z" transform="translate(-834.406 -273.834)"/><path class="t" d="M844.393,297.427a34.445,34.445,0,0,1-.1,4.31,7.335,7.335,0,0,1-.766,1.82" transform="translate(-835.209 -275.91)"/></g><path class="y" d="M875.062,230.6c-3.261,23.756-31.624,40.839-40.187,40.543-9.339-.323-32.4-26.3-29.14-50.062S827.16,180.2,846.3,182.824,878.324,206.844,875.062,230.6Z" transform="translate(-805.422 -182.558)"/></g><g transform="translate(683.616 210.686)"><g transform="translate(77.049 96.954)"><path class="z" d="M846.162,361.261c-7.224,4.013-24.4,5.778-24.4,5.778-6.9-2.889-21.991-26.807-21.991-26.807l31.944-15.41a107.693,107.693,0,0,1,32.425,28.734" transform="translate(-799.771 -324.822)"/><path class="aa" d="M846.162,361.261c-7.224,4.013-24.4,5.778-24.4,5.778-6.9-2.889-21.991-26.807-21.991-26.807l31.944-15.41s16.213,9.632,32.425,28.734" transform="translate(-799.771 -324.822)"/><path class="ab" d="M809.487,343.862c8.989,18.62,28.733,14.767,32.1,7.384s-8.508-17.818-14.929-20.707C820.241,327.81,802.9,330.539,809.487,343.862Z" transform="translate(-800.497 -325.241)"/></g><g transform="translate(121.675 125.687)"><path class="z" d="M848.7,361.947c4.976,5.457,8.828,13.323,12.52,20.546,7.224,13.8,23.758,6.26,19.905-6.1-3.051-9.149-12.681-20.065-12.681-20.065" transform="translate(-848.702 -356.328)"/><path class="aa" d="M848.7,361.947c4.976,5.457,8.828,13.323,12.52,20.546,7.224,13.8,23.758,6.26,19.905-6.1-3.051-9.149-12.681-20.065-12.681-20.065" transform="translate(-848.702 -356.328)"/></g><g transform="translate(88.164 127.883)"><path class="z" d="M817.377,359.108c5.939-1.766,13.8,2.89,18.3,10.916,4.013,7.223,2.889,15.571-2.889,17.818-6.742,2.729-15.25-2.247-19.1-11.879C810.475,367.777,811.759,361.035,817.377,359.108Z" transform="translate(-811.958 -358.736)"/><path class="aa" d="M817.377,359.108c5.939-1.766,13.8,2.89,18.3,10.916,4.013,7.223,2.889,15.571-2.889,17.818-6.742,2.729-15.25-2.247-19.1-11.879C810.475,367.777,811.759,361.035,817.377,359.108Z" transform="translate(-811.958 -358.736)"/></g><g transform="translate(3.36 13.509)"><path class="z" d="M757.186,269.739c-9.15-6.742-19.262-24.4-21.991-31.3-4.335-11.4-21.51-2.247-14.608,12.842,6.742,14.929,32.907,28.733,32.907,28.733C759.914,283.865,766.015,276.48,757.186,269.739Z" transform="translate(-718.971 -233.326)"/><path class="aa" d="M757.186,269.739c-9.15-6.742-19.262-24.4-21.991-31.3-4.335-11.4-21.51-2.247-14.608,12.842,6.742,14.929,32.907,28.733,32.907,28.733C759.914,283.865,766.015,276.48,757.186,269.739Z" transform="translate(-718.971 -233.326)"/></g><g transform="translate(118.143 90.675)"><path class="z" d="M844.83,327.106s13-1.605,18.781,10.112c4.815,10.434,22.633,6.1,14.286-8.828-7.384-13.323-26.164-10.113-26.164-10.113Z" transform="translate(-844.83 -317.938)"/><path class="aa" d="M844.83,327.106s13-1.605,18.781,10.112c4.815,10.434,21.831,6.582,14.286-8.828-6.42-13.323-26.164-10.113-26.164-10.113Z" transform="translate(-844.83 -317.938)"/></g><g transform="translate(12.581)"><path class="z" d="M783.766,234.726l-16.052-16.213-5.136,22.473a40.838,40.838,0,0,0-15.731,16.052c-6.1,11.076-5.136,20.225-5.136,20.225s-10.755,1.445-12.36,15.41c-2.889,26.647,28.573,44.3,69.184,40.612,30.66-2.569,54.1-22.313,52.811-46.551C850.061,264.9,839.627,257.2,839.627,257.2l3.531-36.92-26,18.139a47.4,47.4,0,0,0-16.855-4.494A128.061,128.061,0,0,0,783.766,234.726Z" transform="translate(-729.09 -218.513)"/><path class="ab" d="M741.863,282.889c-6.42,1.284-10.113,4.335-12.36,15.41-3.21,14.928,11.237,45.909,69.184,40.612,19.1-1.605,39.81-10.434,32.907-35.8-6.1-23.436-41.735-8.186-55.861-10.915C761.446,289.632,756.149,280.321,741.863,282.889Z" transform="translate(-729.083 -224.139)"/><path class="ac" d="M821.068,243.171l7.384-5.3" transform="translate(-737.177 -220.217)"/><path class="aa" d="M783.766,234.726l-16.052-16.213-5.136,22.473a40.838,40.838,0,0,0-15.731,16.052c-6.1,11.076-5.136,20.225-5.136,20.225s-10.755,1.445-12.36,15.41c-2.889,26.647,28.573,44.3,69.184,40.612,30.66-2.569,54.1-22.313,52.811-46.551C850.061,264.9,839.627,257.2,839.627,257.2l3.531-36.92-26,18.139a47.4,47.4,0,0,0-16.855-4.494A128.061,128.061,0,0,0,783.766,234.726Z" transform="translate(-729.09 -218.513)"/></g><g transform="translate(129.7 57.627)"><path class="aa" d="M858.03,302.645s6.9.642,10.595.8c3.692,0,11.718-.8,11.718-.8" transform="translate(-857.549 -283.543)"/><path class="aa" d="M881.581,281.7a69.784,69.784,0,0,0-12.36,4.655,65.67,65.67,0,0,0-11.718,6.9" transform="translate(-857.502 -281.7)"/></g><g transform="translate(30.418 27.912)"><path class="ad" d="M772.638,250.261c5.457,3.531,5.457,13.322,0,22.152-5.619,8.828-14.447,13.323-19.905,9.791s-5.457-13.322,0-22.152S767.18,246.889,772.638,250.261Z" transform="translate(-748.64 -249.118)"/><path class="ae" d="M756.021,267.243a4.09,4.09,0,0,1,4.335-2.889,3.478,3.478,0,0,1,2.408,4.494,3.7,3.7,0,0,1-4.334,2.889,3.478,3.478,0,0,1-2.409-4.494" transform="translate(-749.275 -250.455)"/></g><g transform="translate(77.599 33.888)"><path class="ad" d="M825.668,257.258c6.42,4.013,7.223,14.447,1.766,23.275s-15.25,12.681-21.671,8.669S798.54,274.755,804,265.926,819.247,253.245,825.668,257.258Z" transform="translate(-800.374 -255.671)"/><path class="ae" d="M807.784,273.491a3.738,3.738,0,0,1,3.531-3.852,3.6,3.6,0,0,1,3.531,3.692,3.86,3.86,0,0,1-3.531,3.852,3.6,3.6,0,0,1-3.531-3.692" transform="translate(-801.026 -256.9)"/></g><g transform="translate(47.352 62.824)"><path class="af" d="M788.915,290.87c.482,3.05-6.582,7.544-10.434,7.384-4.013-.16-7.223-6.742-7.223-8.347.642-3.852,6.42-2.247,9.631-1.766C783.778,288.623,788.433,287.981,788.915,290.87Z" transform="translate(-767.564 -287.398)"/><path class="aa" d="M791.93,307.58c.321,4.976-24.881,2.087-24.721-1.767" transform="translate(-767.208 -289.019)"/></g><g class="ag" transform="translate(78.976 102.573)"><path class="af" d="M847.756,334.193c-1.605-1.124-3.05-2.247-4.335-3.21" transform="translate(-805.538 -330.983)"/><path class="af" d="M804.612,348.74c-1.124-1.445-2.087-2.889-2.729-3.852" transform="translate(-801.883 -332.207)"/></g><g transform="translate(0 61.318)"><path class="aa" d="M715.287,285.748a28.56,28.56,0,0,0,8.989,4.656,112.131,112.131,0,0,0,13.323,2.729" transform="translate(-715.287 -285.748)"/><path class="aa" d="M717.575,309.889a60.739,60.739,0,0,0,8.989-.482,45.347,45.347,0,0,0,10.595-2.889" transform="translate(-715.488 -287.576)"/></g></g><g transform="translate(393.412 393.851)"><g transform="translate(0 0)"><path class="ab" d="M476.649,465.111l20.892,3.309,19.267,7.032,15.824,14.2,4.954,11.443v12.823l-4.954,16.131-12.11,11.857-15.274,7.446-13.1,1.792-25.842-1.1-11.56-3.447-13.486-5.377-9.082-6.617-7.707-9.514-2.889-11.167.69-11.857,5.779-12.685,7.706-10.2,12.522-9.1,10.734-3.584,17.636-1.379" transform="translate(-399.237 -423.379)"/><path class="ah" d="M526.106,497.441l4.13,20.267-1.652,8.135-2.2,1.792-5.092-2.345-5.64-6.893-1.79,11.581-4.954,10.065-9.495,7.859-2.614,3.585,2.476,1.654-.826,9.374,1.789,2.068,5.23,7.86,4.265,4.413,6.742,10.89,1.1,4.137-1.514,4.689-4.4,2.343h-6.88l-4.816-1.377-9.8-9.791-5.006-6.065-1.433,4.55-1.238,18.2-3.715,6.342-7.982,3.171s-4.4-.967-4.954-1.517-3.852-4.55-3.852-4.55l-.649-7.032v-9.79l1.476-7.446-10.046.827-7.018.967,2.615,4.136,2.477,6.618.275,4.963-2.476,2.9-6.056,1.1-8.118-3.583-5.5-6.618-3.992-8.134-2.064,2.757-5.366,11.168-5.779,4.963-5.092.965-5.366-2.619s-2.064-5.1-2.2-5.517,0-4.273,0-4.273l3.3-6.895,2.615-5.652.963-6.2,1.238-9.239,2.614-6.755-2.2-2.482-5.642-6.482-2.888-7.995v-6.756l1.788-5.654,3.578-3.145h3.846l2.622,1.49-2.622,7.308s.145,6.617.006,7.031,1.79,4.412,1.79,4.412l5.779,4.136,6.466-2.9,2.89.965,5.779,2.483,18.99,1.932,12.936-.554,6.469-1.654-7.982-5.515-6.331-5.79-6.742-10.892-.552-6.067-12.384,8.686-2.751-2.344-1.653-6.342v-16.5l1.653-5.565,4.54-3.24,20.779,2.413,9.811-4.136,9.8-.689h10.665l10.871,4.824,11.146-2.756,13.348-2.068Z" transform="translate(-397.253 -426.066)"/><path class="ai" d="M454.178,541.551l11.146,9.238,5.918,5.514-8.808.8-3.44,1.4s-1.652,13.1-1.789,13.51,1.652,9.927,1.652,9.927l3.578,6.068-14.723.689-6.192-9.1-1.24-6.894.414-6.618,1.788-5.515.964-3.033-12.522-1.93-5.918-4-2.064-4.136v-4.136s1.447-4.754,4.4-5.377,24.495,1.24,24.495,1.24Z" transform="translate(-399.357 -429.779)"/><path class="aj" d="M478.821,421.118l5.969.689,3.853,3.723,2.533,5.79-2.12,5.791-6.5,4.549-7.944.828-5.917-4.137-1.238-6.894,1.651-5.377,4.72-4.136,5-.827" transform="translate(-403.274 -419.508)"/><path class="ak" d="M500.691,547.675c-.156,2.786-.328,5.2-.4,7.626a3.218,3.218,0,0,0,.426,1.941c3.744,4.809,7.577,9.547,11.343,14.337a31.815,31.815,0,0,1,5.488,9.087,23.73,23.73,0,0,1,1.533,4.322c.5,3.719-1.868,6.118-4.421,8.23-2.352,1.947-5.315,1.886-8.067,1.495-2.649-.377-5.47-.72-7.6-2.713-3.079-2.879-6.756-5.112-8.979-8.924a46.951,46.951,0,0,0-4.32-5.458l-.549.014c-.08,1.591-.218,3.184-.229,4.775-.022,3.164.453,6.4-.048,9.48-.965,5.933-1.9,12.1-8.033,15.378-4.246,2.273-8.535,2.683-12.756-.113a10.826,10.826,0,0,1-4.769-8.964,85.793,85.793,0,0,1,.352-11.513,63.852,63.852,0,0,1,1.579-7.511c-2.641.129-5.282.211-7.922.377-2.05.128-4.115-.5-6.151-.253,3.749,5.7,9,13.443,2.478,19.428a6.6,6.6,0,0,1-3.4,1.477c-5.712.79-10.63-.723-14.323-5.414-1.025-1.3-2.213-2.49-3.142-3.858-1.325-1.948-2.478-4.014-3.826-6.228-.459.717-1.008,1.446-1.425,2.246-2.68,5.111-5.687,9.97-10.565,13.311-4.68,3.207-12.043,1.892-14.643-4.1a13.175,13.175,0,0,1,.82-12.654c1.307-2.158,2.274-4.523,3.4-6.791,1.727-3.49,1.854-7.263,1.881-11.038a22.946,22.946,0,0,1,3.17-10.849,5.283,5.283,0,0,1,.738-.917c-1.4-1.422-2.9-2.754-4.157-4.293a28.583,28.583,0,0,1-3.857-5.541c-1.824-3.824-3.341-7.943-3.018-12.182.349-4.554,1.733-8.969,5.073-12.453,1.429-1.489,5.565-1.978,7.752-.4,1.748,1.261,2.181,3.583,1.22,6.177a44.264,44.264,0,0,0-2.039,6.425,10.165,10.165,0,0,0,6.173,11.186,2.621,2.621,0,0,0,1.757-.262c.528-.232.907-.782,1.414-1.093,2.024-1.245,1.978-1.2.953-3.511a7.509,7.509,0,0,1,.421-7.384c.283-.509,3.942-4.771,4.627-3.914-2.947-3.678-4.986-7.053-6-11.747-.793-3.663-.751-7.7-.858-11.444-.113-3.933,1.523-7.77,2.862-11.387a48.915,48.915,0,0,1,3.96-8.089,51.723,51.723,0,0,1,20.258-19.016,33.541,33.541,0,0,1,14.343-4.016c5.414-.3,10.811-.955,16.5-1.48-.206-1.354-.516-3.031-.7-4.72q-.506-4.609-.882-9.226c-.1-1.154-.7-1.289-1.7-1.275-7.028.095-11.212-3.379-12.3-10.473a13.264,13.264,0,0,1,3.1-10.437c5.257-5.954,16.816-5.221,20.553,2.045a14.175,14.175,0,0,1,.539,12.925,7.676,7.676,0,0,1-4.917,3.9c-1.73.538-2.513.319-2.446,2.333.069,1.985.907,3.883,1.1,5.854.156,1.573.191,3.208.4,4.768a17.655,17.655,0,0,0,.327,3.6c.537,1.536,1.29,1.3,2.749,1.373,3.177.16,6.292.882,9.428,1.356,5.728.865,11.463,2.952,16.989,4.67,1.654.515,3.171,1.717,4.762,2.468a41.834,41.834,0,0,1,5.392,2.775c2.219,1.47,3.852,3.4,5.786,5.132,8.923,8,15.771,19.189,14.026,31.594-.622,4.42-1.3,8.909-3.045,13.047a42.329,42.329,0,0,1-6.7,10.668,49.223,49.223,0,0,1-17.6,12.955c-2.91,1.3-6.162,1.822-9.262,2.691-.337.092-.671.2-.609.183Zm-62.156-20.938c-4.412,1.477-5.465-.244-7.24-3.241a14.054,14.054,0,0,1-1.549-5.671,91.684,91.684,0,0,1,.89-22.681c.254-1.7,1.523-3.352,2.657-4.758.444-.55,1.8-.488,2.741-.492,3.249-.013,6.5-.019,9.744.146a41.2,41.2,0,0,1,5.5.69c1.6.3,3.536.062,5.035.659,1.141.455,1.182,1.541,2.435,1.023,1.042-.43,2.109-1.826,3.133-2.443a22.589,22.589,0,0,1,7.584-2.747,55.813,55.813,0,0,1,16.406-.254,32.158,32.158,0,0,1,12.5,4.387,3.161,3.161,0,0,0,2.1.651c4.327-1.3,8.556-2.959,12.923-4.091a24.418,24.418,0,0,1,8.729-.973c3.68.431,5.443,3.451,6.067,6.945.9,5.065,1.49,10.194,2.562,15.221.706,3.313.189,6.461-.358,9.636-.419,2.418-1.877,3.572-4.266,3.369a8.764,8.764,0,0,1-4.167-1.272,71.638,71.638,0,0,1-5.857-5.032c-.373,2.489-.621,5.266-1.249,7.954-.531,2.276-1.07,4.757-2.378,6.6-2.161,3.05-4.305,6.21-7.412,8.509-2.618,1.937-5.11,4.047-7.852,6.234a41.973,41.973,0,0,0,6.279-1.171,74.934,74.934,0,0,0,9.359-3.943,43,43,0,0,0,6.212-4.132,33.9,33.9,0,0,0,8.411-8.505c2.029-3.116,4.41-6.468,5.685-9.978a29.16,29.16,0,0,0,1.411-11.117,72.038,72.038,0,0,0-1.991-11.926c-1.311-6.176-4.851-11.036-9.7-14.858-1.84-1.45-3.483-3.569-5.469-4.755-1.319-.789-2.885-1.471-4.277-2.166a87.408,87.408,0,0,0-9.178-4.481,75.168,75.168,0,0,0-9.871-2.742c-3.836-.807-7.183-1.762-11.11-1.762-7.569,0-15.014.044-22.557.359a34.24,34.24,0,0,0-13.854,3.637,43.653,43.653,0,0,0-18.082,16.153c-1.534,2.462-2.6,5.179-4.159,7.6-3.952,6.164-4.459,15.557-2.851,22.606,1.458,6.4,5.1,11.608,10.12,15.872a33.267,33.267,0,0,0,5.5,4.149c2.6,1.425,4.926,3.43,7.624,4.6,3.9,1.689,8,2.683,12.022,4.019,3.011,1,5.317,2.334,8.593,1.555a28.144,28.144,0,0,1-4.307-2.129,29.592,29.592,0,0,1-5.817-4.841,43.231,43.231,0,0,1-4.551-5.062c-.288-.43-.506-1.5-.816-1.761-.73-.617-2.192-.2-3.2-.162a18.038,18.038,0,0,1-4.449-.44c-.916-.187-3.654.112-4.07-1.046-.182-.506.237-1.23.416-1.937Zm10.987-6.929c.285,1.281.816,2.524,1.178,3.807a16.513,16.513,0,0,0,1.891,4.893,38.461,38.461,0,0,0,8.255,8.872,36.67,36.67,0,0,0,13.747,6.7c3,.751,5.949,1.739,9.217,1.432a32.349,32.349,0,0,0,20.7-10.054c4.161-4.246,7.476-8.9,8.128-14.964.423-3.927.989-8.083-1.086-11.632a59.037,59.037,0,0,0-6.626-8.456,22.1,22.1,0,0,0-4.387-3.935c-5.216-3.47-11.768-6.148-18.044-6.437-4.834-.223-9.771-.42-14.456.9a18.15,18.15,0,0,0-4.75,1.861c-2.824,1.786-6.2,3.7-7.87,6.726-2.119,3.845-4.186,7.827-5.162,12.144a57.707,57.707,0,0,0-.891,5.789,6.956,6.956,0,0,0,.153,2.357ZM465.5,574.5c.627,1.326-.5,2.708-1.014,3.807a27.946,27.946,0,0,0-1.664,6.506,40.613,40.613,0,0,0-.313,14.321,6.165,6.165,0,0,0,.6,1.649c1.788,3.621,4.515,5.212,8.69,4.639,4.793-.655,8.381-3.6,9.187-8.424.539-3.234.814-6.515,1.14-9.782a9.855,9.855,0,0,0-.016-3.532c-.71-2.511.075-4.865.4-7.268a2.339,2.339,0,0,1,.883-1.321c1.958-1.533,3.984-2.98,5.954-4.5a18.834,18.834,0,0,0,6.768-9.426,36.041,36.041,0,0,0,1.35-5.925c.3-2.272.276-4.584.4-6.9-6.293.264-12.162.513-18.03.761-4.836.205-9.678-.558-14.522.208a49.611,49.611,0,0,1-5.026.021c-2.8.15-3.177,2.255-3.653,4.725a33.784,33.784,0,0,0-.24,9.655c.364,3.336.886,6.775,2.634,9.7.725,1.213,1.641,2.54,3.2,1.905.971-.4,2.006-2.73,3.1-1.118a2.1,2.1,0,0,1,.169.294Zm-40.747,3.917c-1.786-.45-3.349-.814-4.9-1.239a1.612,1.612,0,0,1-1.34-2.152c.34-1.105,1.229-1.363,2.3-1.062,1.9.534,3.784,1.132,5.7,1.577a66.98,66.98,0,0,0,16.122,1.9,24.015,24.015,0,0,1-6.031-14.366c-.283-5.135-.191-10.35,3.222-14.928-2.341-.245-4.35-.562-6.367-.645a17.517,17.517,0,0,1-10.068-3.7,2,2,0,0,0-1.683-.328c-2.081,1.052-4.518,1.861-6.026,3.5a27.317,27.317,0,0,0-7.165,13.289c-.57,2.967-.486,6.053-.913,9.052-.544,3.817-1.42,7.5-3.712,10.807a18.579,18.579,0,0,0-3.5,9.12c-.276,3.591.737,6.668,4.1,8.467,2.507,1.34,5.229,1.423,7.455-.352a26.335,26.335,0,0,0,5.915-6.12c2.54-3.992,4.517-8.34,6.881-12.825Zm62.987-3.074c2.019,2.77,3.714,5.281,5.6,7.64,4.386,5.48,9.644,9.219,17.163,8.283a6.934,6.934,0,0,0,5.419-4.174c.891-1.75.385-3.793-.47-5.445-.937-1.812-1.824-4.12-3.162-5.663a75.37,75.37,0,0,1-5.956-6.941,36.9,36.9,0,0,0-2.657-2.765c-1.507-1.786-2.932-3.642-4.642-5.783-1.737,6.549-5.631,11.167-11.3,14.848Zm-32.788-80.5a9.721,9.721,0,0,0-1.867-.572c-5.2-.447-10.4-.929-15.6-1.236-2.567-.151-3.663.835-4.108,3.467a66.569,66.569,0,0,0-.062,24.573c.579,2.853,1.831,3.567,4.443,2.143,4.046-2.205,6.868-5.692,9.175-9.59a17.647,17.647,0,0,0,1.246-3.485c1.135-3.425,2.093-6.92,3.45-10.255.722-1.773,2.126-3.269,3.327-5.046Zm48.969-.463c1.835,2.047,3.513,3.736,4.979,5.591,2.172,2.754,4.184,5.636,6.285,8.449,2.235,2.991,4.437,6.011,6.785,8.91a6.725,6.725,0,0,0,2.468,1.382c1.49.683,2.452.031,2.9-1.4a15.176,15.176,0,0,0,.485-8.947,14.039,14.039,0,0,1-.255-1.4c-.825-4.513-1.679-9.021-2.462-13.541-.463-2.678-2.356-3.561-5.019-3.187a72.9,72.9,0,0,0-8.045,1.591c-2.694.7-5.318,1.661-8.118,2.551ZM442.684,596.718a7.03,7.03,0,0,0,1.077.05c2.229-.243,4.721-.5,5.664-2.764a6.855,6.855,0,0,0-.478-6.63c-1.6-2.311-3.361-4.507-5.1-6.721-.168-.212-.644-.227-.982-.256-4.552-.374-9.108-.679-13.653-1.132-1.454-.146-2.292.485-2.349,1.7a5.727,5.727,0,0,0,.82,3.257,84.883,84.883,0,0,0,5.851,7.948,11.72,11.72,0,0,0,9.146,4.545ZM472,441.079c-.421-2.236-.051-2.575,2.081-2.058,2.572.625,6.191-.28,7.014-1.994,1.105-2.3,2.152-4.7,1.2-7.373-.48-1.344-.671-2.972-1.562-3.954-4.3-4.739-13.029-3.816-16.1,1.578-1.831,3.22-2.338,6.275-.69,9.7s4.547,4.129,8.054,4.1Zm-15.915,105c.016-.194.029-.391.044-.586.011-.152-7.577-2.511-8.3-2.788a72.71,72.71,0,0,1-8.4-3.823,55.294,55.294,0,0,1-7.75-5.03,23.322,23.322,0,0,1-2.966-2.775c-.515-.57-1.721-2.279-2.554-2.316-.976-.041-2.776,1.815-3.27,2.54a8.727,8.727,0,0,0-1.022,3.977c-.269,3.291,4.044,8.165,7.851,8.622,2.553.305,5.111.561,7.672.793,2.142.2,4.289.33,6.436.487l12.253.9Zm-42.414-1.107c-.185-.143-.327-.241-.456-.357-1.853-1.637-4.353-2.938-5.415-4.987a14.553,14.553,0,0,1-.929-12.1c.52-1.375,1.089-2.734,1.538-4.132.5-1.565,0-2.271-1.638-2.225a3.889,3.889,0,0,0-2.183.687,11.93,11.93,0,0,0-4.428,10.607,26.687,26.687,0,0,0,1.816,7.612c1.569,4.141,3.482,8.154,8.054,9.879,1.189-1.626,2.372-3.247,3.642-4.989Zm41.682,4.137q-5.876-.462-11.759-.916c-.232-.016-.594-.034-.687.1-1.232,1.762-2.771,3.394-2.778,5.955,4.445-.309,8.761-.576,13.069-.95a1.954,1.954,0,0,0,1.314-1.053A22.549,22.549,0,0,0,455.352,549.111ZM441.5,570.44c1.66,2.492,2.952,4.5,4.329,6.436a1.634,1.634,0,0,0,1.237.388c3.1-.151,6.2-.356,9.3-.555.086-.005.163-.14.3-.263-.545-1.292-1.028-2.639-1.69-3.892a2.209,2.209,0,0,0-1.4-1.072c-2.588-.316-5.194-.485-7.794-.7-1.28-.106-2.56-.2-4.278-.34Zm12.555-1.985c-.2-1.523-.281-2.647-.518-3.736-.081-.373-.522-.925-.835-.951-4.409-.379-8.823-.68-13.617-1.028.3,1.352.55,2.135.647,2.937.181,1.5.869,2.1,2.471,2.131,3.838.084,7.669.4,11.853.647Zm-.506-8.108a13.77,13.77,0,0,1,.026-2.483c.259-1.316-.02-1.606-1.451-1.508a74.377,74.377,0,0,1-8.917.039c-3.274-.173-4.173.672-3.579,4.388,2.163,0,4.4.054,6.641-.016,2.32-.073,4.638-.263,7.28-.421Zm-14.129-33.556c3.005.183,5.653.343,8.4.509-.354-2.566-.674-4.891-.981-7.119-2.4,2.135-4.79,4.266-7.423,6.61Z" transform="translate(-397.081 -419.352)"/><g transform="translate(69.227 80.207)"><path class="al" d="M489.066,519.178c-1.913.83-2.994.761-3.654-.888-.546-1.361-.042-1.988,1.187-2.144a40.426,40.426,0,0,1,6.345-.5,3.973,3.973,0,0,1,2.461,1.606c.211.268-.459,1.514-1,2.012-.388.355-1.239.2-2.219.316.738.808,1.249,1.759,2.036,2.157a33.168,33.168,0,0,0,5.911,2.395c2.9.808,5.659-2.074,6.341-4.948.233-.979.2-2.309,1.794-2.039,1.046.177,2.492,2.782,1.955,3.609-1.7,2.632-3.16,5.407-6.608,6.432-3.129.928-5.722-.019-8.339-1.374a33.151,33.151,0,0,1-2.824-1.848,10.593,10.593,0,0,1-7.164,4.582,12.213,12.213,0,0,1-7.9-1.42c-1.394-.681-5.411-3.758-4.166-5.692s3.626,1.812,4.5,2.459a9.679,9.679,0,0,0,5.544,1.6,6.065,6.065,0,0,0,5.491-2.781c.5-.816.211-2.124.3-3.534Z" transform="translate(-472.988 -508.032)"/><path class="al" d="M500.1,507.521c.626-.42,1.394-.306,2.016.87,1.883,3.559-3.168,4.849-3.162,1.574A3.088,3.088,0,0,1,500.1,507.521Z" transform="translate(-475.273 -507.298)"/><path class="al" d="M481.262,512.37c-2.053-.471-1.57-3.782.2-4.34,2.287-.722,3.208,3.538.642,4.295a1.647,1.647,0,0,1-.84.046Z" transform="translate(-473.598 -507.355)"/></g></g></g></g></svg>