<svg xmlns="http://www.w3.org/2000/svg" xmlns:xlink="http://www.w3.org/1999/xlink" width="528" height="360.484" viewBox="0 0 528 360.484"><defs><style>.a{fill:none;}.b{fill:#e6def0;}.c{fill:#a1b4c9;}.d{fill:#e3f9ff;}.e{fill:#bbc9d0;}.f{fill:#717179;}.g{fill:#fff;}.h{fill:#bdd4ed;}.i{fill:#fafbe1;}.j{fill:#5781bf;}.k{fill:#8a7cc7;}.l{fill:#bec9f2;}.m{fill:#f0c659;}.n{clip-path:url(#a);}</style><clipPath id="a"><path class="a" d="M936.681,497.087l116.4-97.3L1039.248,322.6,922.1,413.688Z" transform="translate(-922.097 -322.596)"/></clipPath></defs><g transform="translate(-774.344 -308.328)"><g transform="translate(774.344 308.328)"><g transform="translate(0 88.127)"><path class="b" d="M1103.2,605.786c-46.744,6.339-64.853,66.811-175.562,65.415-22.1-.278-42.949-12.754-60.2-26.559-8.74-6.994-16.676-17.11-15.326-28.22,2.112-17.369,24.078-24.578,32.472-39.931,1.683-3.079,2.8-6.683,1.977-10.093-1.43-5.914-7.832-8.954-13.515-11.125q-26.172-10-52.936-18.359c-14.788-4.618-30.965-9.769-39.344-22.8-4.478-6.964-6.107-15.418-6.374-23.694-.59-18.314,5.152-36.585,15.042-52.012,8.261-12.886,19.559-24.028,33.264-30.847,29.066-14.461,63.657-7.87,95.533-1.711,52.8,10.2,106.2,18.351,159.969,19.049,62.377.81,127.927-7.855,184.618,18.175,14.855,6.821,31.3,16.015,36.016,31.664C1325.977,564.743,1189.677,594.056,1103.2,605.786Z" transform="translate(-774.344 -398.868)"/></g><g transform="translate(133.014)"><g transform="translate(24.611 100.041)"><g transform="translate(0.008 7.568)"><path class="c" d="M1156.054,453.324,1065.9,419.141a5.619,5.619,0,0,0-4.958.826L943.006,517.68l-6.712-2.141,1.033,7.785a1.827,1.827,0,0,0,1.181,1.353L1029,563.5a5.652,5.652,0,0,0,5.046-.692l127.807-104.481a1.72,1.72,0,0,0,.84-1.635l-1.456-7.932-5.846.92Z" transform="translate(-936.294 -418.883)"/></g><path class="d" d="M1064.659,411.346a5.775,5.775,0,0,0-4.948.833L937.1,513.842c-1.216,1.031-1.046,2.309.394,2.964l90.3,38.508a5.35,5.35,0,0,0,5.035-.7L1160.405,450.23c1.325-1.015,1.079-2.351-.551-3Z" transform="translate(-936.286 -411.108)"/><g transform="translate(128.592 10.403)"><path class="e" d="M1068.4,426.639l7.1,2.695,5.855-4.836-7.1-2.7Z" transform="translate(-1068.399 -421.796)"/></g><g transform="translate(117.607 19.531)"><path class="e" d="M1057.112,435.98l7.059,2.743,5.869-4.859-7.093-2.69Z" transform="translate(-1057.112 -431.173)"/></g><g transform="translate(138.814 14.347)"><path class="e" d="M1078.9,430.68l7.147,2.712,5.878-4.849-7.138-2.695Z" transform="translate(-1078.901 -425.848)"/></g><g transform="translate(138.695 17.611)"><path class="e" d="M1078.778,441.462l7.149,2.727,14.841-12.223-7.219-2.765Z" transform="translate(-1078.778 -429.2)"/></g><g transform="translate(147.511 20.993)"><path class="e" d="M1087.835,444.959l7.162,2.733,14.889-12.226-7.219-2.791Z" transform="translate(-1087.835 -432.676)"/></g><g transform="translate(156.515 24.446)"><path class="e" d="M1097.086,448.475l7.212,2.809L1119.254,439l-7.271-2.775Z" transform="translate(-1097.086 -436.223)"/></g><g transform="translate(110.292 25.577)"><path class="e" d="M1049.6,442.21l7.04,2.713,5.852-4.81-7.06-2.728Z" transform="translate(-1049.597 -437.385)"/></g><g transform="translate(102.986 31.65)"><path class="e" d="M1042.092,448.42l7.032,2.76,5.822-4.837-7.019-2.718Z" transform="translate(-1042.092 -443.625)"/></g><g transform="translate(95.692 37.666)"><path class="e" d="M1034.6,454.584l7.006,2.788,5.818-4.847-7-2.72Z" transform="translate(-1034.598 -449.804)"/></g><g transform="translate(129.975 21.653)"><path class="e" d="M1069.819,438.183l7.109,2.753,5.856-4.864-7.106-2.719Z" transform="translate(-1069.819 -433.353)"/></g><g transform="translate(122.652 27.722)"><path class="e" d="M1062.3,444.433l7.07,2.755,5.851-4.846-7.089-2.754Z" transform="translate(-1062.295 -439.588)"/></g><g transform="translate(115.27 33.811)"><path class="e" d="M1054.712,450.653l7.076,2.787,5.878-4.869-7.1-2.727Z" transform="translate(-1054.712 -445.844)"/></g><g transform="translate(107.956 39.86)"><path class="e" d="M1047.2,456.871l7.04,2.8,5.87-4.858-7.083-2.75Z" transform="translate(-1047.197 -452.059)"/></g><g transform="translate(100.631 45.899)"><path class="e" d="M1039.672,463.1l7.035,2.761,5.854-4.805-7.05-2.788Z" transform="translate(-1039.672 -458.263)"/></g><g transform="translate(93.358 51.975)"><path class="e" d="M1032.2,469.324l6.979,2.757,5.841-4.777-7.02-2.8Z" transform="translate(-1032.2 -464.506)"/></g><g transform="translate(86.034 57.972)"><path class="e" d="M1024.676,475.469l6.982,2.814,5.825-4.819-7-2.8Z" transform="translate(-1024.676 -470.667)"/></g><g transform="translate(78.769 64.01)"><path class="e" d="M1017.212,481.656l6.928,2.813,5.835-4.8-6.991-2.8Z" transform="translate(-1017.212 -476.87)"/></g><g transform="translate(71.689 69.879)"><path class="e" d="M1009.937,487.672l6.959,2.8,5.815-4.77-6.953-2.8Z" transform="translate(-1009.937 -482.9)"/></g><g transform="translate(64.433 75.88)"><path class="e" d="M1002.482,493.824l6.914,2.8,5.808-4.755-6.932-2.806Z" transform="translate(-1002.482 -489.065)"/></g><g transform="translate(57.159 81.884)"><path class="e" d="M995.01,500l6.913,2.845,5.811-4.784-6.928-2.827Z" transform="translate(-995.01 -495.234)"/></g><g transform="translate(49.909 87.891)"><path class="e" d="M987.561,506.149l6.9,2.846,5.812-4.77-6.913-2.821Z" transform="translate(-987.561 -501.405)"/></g><g transform="translate(42.682 93.842)"><path class="e" d="M980.136,512.271,987,515.122l5.789-4.752-6.879-2.851Z" transform="translate(-980.136 -507.519)"/></g><g transform="translate(35.458 99.792)"><path class="e" d="M972.714,518.393l6.844,2.878,5.772-4.761-6.854-2.879Z" transform="translate(-972.714 -513.632)"/></g><g transform="translate(140.091 34.491)"><path class="e" d="M1080.212,451.373l7.176,2.8,5.9-4.889-7.167-2.742Z" transform="translate(-1080.212 -446.543)"/></g><g transform="translate(132.689 40.578)"><path class="e" d="M1072.607,457.612l7.153,2.805,5.913-4.879L1078.5,452.8Z" transform="translate(-1072.607 -452.797)"/></g><g transform="translate(125.333 46.674)"><path class="e" d="M1065.05,463.867l7.121,2.806,5.875-4.855-7.115-2.759Z" transform="translate(-1065.05 -459.06)"/></g><g transform="translate(117.951 52.741)"><path class="e" d="M1057.466,470.139l7.107,2.812,5.892-4.848-7.126-2.811Z" transform="translate(-1057.466 -465.292)"/></g><g transform="translate(110.607 58.817)"><path class="e" d="M1049.921,476.377l7.063,2.781,5.882-4.795-7.1-2.828Z" transform="translate(-1049.921 -471.535)"/></g><g transform="translate(103.247 64.889)"><path class="e" d="M1042.36,482.6l7.06,2.807,5.864-4.8-7.066-2.828Z" transform="translate(-1042.36 -477.773)"/></g><g transform="translate(95.913 70.9)"><path class="e" d="M1034.824,488.8l7.043,2.842,5.86-4.822-7.058-2.871Z" transform="translate(-1034.824 -483.949)"/></g><g transform="translate(88.835 76.78)"><path class="e" d="M1027.553,494.819l7,2.84,5.847-4.8-7.027-2.871Z" transform="translate(-1027.553 -489.989)"/></g><g transform="translate(81.508 82.847)"><path class="e" d="M1020.025,501.031l6.99,2.842,5.864-4.787-7.027-2.863Z" transform="translate(-1020.025 -496.223)"/></g><g transform="translate(74.187 88.875)"><path class="e" d="M1012.5,507.2l6.986,2.917,5.838-4.844-7-2.859Z" transform="translate(-1012.503 -502.415)"/></g><g transform="translate(66.892 94.883)"><path class="e" d="M1005.009,513.37l6.968,2.894,5.812-4.8-6.952-2.873Z" transform="translate(-1005.009 -508.589)"/></g><g transform="translate(59.618 100.904)"><path class="e" d="M997.535,519.545l6.917,2.91,5.835-4.8-6.963-2.881Z" transform="translate(-997.535 -514.775)"/></g><g transform="translate(52.338 106.938)"><path class="e" d="M990.057,525.722l6.907,2.944,5.808-4.815-6.923-2.878Z" transform="translate(-990.057 -520.974)"/></g><g transform="translate(149.099 37.96)"><path class="e" d="M1089.467,454.936l7.19,2.813,5.911-4.892-7.2-2.751Z" transform="translate(-1089.467 -450.106)"/></g><g transform="translate(141.673 44.078)"><path class="e" d="M1081.838,461.22l7.191,2.809,5.913-4.874-7.185-2.761Z" transform="translate(-1081.838 -456.393)"/></g><g transform="translate(134.262 50.168)"><path class="e" d="M1074.224,467.514l7.168,2.816,5.929-4.867-7.194-2.814Z" transform="translate(-1074.224 -462.649)"/></g><g transform="translate(126.89 56.265)"><path class="e" d="M1066.65,473.774l7.132,2.784,5.9-4.811-7.142-2.835Z" transform="translate(-1066.65 -468.913)"/></g><g transform="translate(119.486 62.362)"><path class="e" d="M1059.043,480.021l7.12,2.811,5.91-4.824-7.143-2.83Z" transform="translate(-1059.043 -475.177)"/></g><g transform="translate(112.123 68.397)"><path class="e" d="M1051.478,486.244l7.088,2.849,5.889-4.84-7.118-2.875Z" transform="translate(-1051.478 -481.377)"/></g><g transform="translate(104.75 74.506)"><path class="e" d="M1043.9,492.5l7.085,2.875,5.871-4.849-7.086-2.868Z" transform="translate(-1043.904 -487.654)"/></g><g transform="translate(97.638 80.386)"><path class="e" d="M1036.6,498.522l7.057,2.845,5.861-4.8-7.056-2.872Z" transform="translate(-1036.597 -493.695)"/></g><g transform="translate(90.303 86.438)"><path class="e" d="M1029.061,504.712l7.023,2.925,5.851-4.86-7.04-2.866Z" transform="translate(-1029.061 -499.912)"/></g><g transform="translate(82.956 92.47)"><path class="e" d="M1021.513,510.906l7.013,2.9,5.872-4.824-7.042-2.873Z" transform="translate(-1021.513 -506.109)"/></g><g transform="translate(75.622 98.511)"><path class="e" d="M1013.978,517.108l7,2.912,5.856-4.817-7.014-2.887Z" transform="translate(-1013.978 -512.316)"/></g><g transform="translate(68.315 104.567)"><path class="e" d="M1006.471,523.307l6.99,2.946,5.821-4.831-6.968-2.885Z" transform="translate(-1006.471 -518.537)"/></g><g transform="translate(53.729 110.553)"><path class="e" d="M991.485,535.5l6.914,2.9,13.164-10.779-6.984-2.932Z" transform="translate(-991.485 -524.688)"/></g><g transform="translate(172.945 27.885)"><path class="e" d="M1113.966,445.882l7.263,2.794,7.521-6.166-7.3-2.754Z" transform="translate(-1113.966 -439.756)"/></g><g transform="translate(158.015 41.414)"><path class="e" d="M1098.627,458.516l7.257,2.841,5.921-4.918-7.232-2.783Z" transform="translate(-1098.627 -453.655)"/></g><g transform="translate(165.46 35.272)"><path class="e" d="M1106.276,452.2l7.271,2.834,5.945-4.932-7.269-2.761Z" transform="translate(-1106.276 -447.345)"/></g><g transform="translate(106.374 47.553)"><path class="e" d="M1045.572,501.183l7.083,2.879,50.286-41.316-7.234-2.784Z" transform="translate(-1045.572 -459.963)"/></g><g transform="translate(98.973 89.956)"><path class="e" d="M1037.968,508.38l7.122,2.915,5.859-4.853-7.069-2.916Z" transform="translate(-1037.968 -503.526)"/></g><g transform="translate(91.642 96.046)"><path class="e" d="M1030.436,514.6l7.056,2.95,5.88-4.867-7.075-2.9Z" transform="translate(-1030.436 -509.783)"/></g><g transform="translate(84.274 102.11)"><path class="e" d="M1022.866,520.817l7.048,2.935,5.883-4.837-7.06-2.9Z" transform="translate(-1022.866 -516.013)"/></g><g transform="translate(76.941 108.174)"><path class="e" d="M1015.334,527.038l7.015,2.926,5.886-4.811-7.047-2.911Z" transform="translate(-1015.334 -522.243)"/></g><g transform="translate(62.294 114.164)"><path class="e" d="M1000.285,539.246l6.965,2.946,13.21-10.859-7.02-2.936Z" transform="translate(-1000.285 -528.397)"/></g><g transform="translate(28.257 105.824)"><path class="e" d="M965.316,524.548l6.809,2.9,5.771-4.764-6.837-2.856Z" transform="translate(-965.316 -519.829)"/></g><g transform="translate(131.333 31.078)"><path class="e" d="M1071.214,447.9l7.115,2.757,5.9-4.848-7.151-2.769Z" transform="translate(-1071.214 -443.036)"/></g><g transform="translate(123.969 37.184)"><path class="e" d="M1063.648,454.1l7.111,2.823,5.879-4.9-7.12-2.717Z" transform="translate(-1063.648 -449.309)"/></g><g transform="translate(116.62 43.276)"><path class="e" d="M1056.1,460.381l7.087,2.819,5.866-4.874-7.1-2.757Z" transform="translate(-1056.099 -455.569)"/></g><g transform="translate(109.281 49.329)"><path class="e" d="M1048.558,466.594l7.071,2.809,5.87-4.849-7.083-2.767Z" transform="translate(-1048.558 -461.787)"/></g><g transform="translate(101.927 55.374)"><path class="e" d="M1041,472.79l7.053,2.844,5.873-4.868L1046.854,468Z" transform="translate(-1041.003 -467.998)"/></g><g transform="translate(94.607 61.439)"><path class="e" d="M1033.482,479.028l7.037,2.835,5.86-4.841-7.048-2.793Z" transform="translate(-1033.482 -474.229)"/></g><g transform="translate(87.305 67.454)"><path class="e" d="M1025.981,485.21l6.99,2.833,5.854-4.817-7.029-2.817Z" transform="translate(-1025.981 -480.409)"/></g><g transform="translate(80.229 73.324)"><path class="e" d="M1018.711,491.223l6.98,2.864,5.828-4.829-6.992-2.818Z" transform="translate(-1018.711 -486.439)"/></g><g transform="translate(72.944 79.34)"><path class="e" d="M1011.226,497.418l6.962,2.841,5.817-4.789-6.966-2.851Z" transform="translate(-1011.226 -492.62)"/></g><g transform="translate(65.663 85.347)"><path class="e" d="M1003.747,503.572l6.928,2.871,5.83-4.8-6.967-2.85Z" transform="translate(-1003.747 -498.791)"/></g><g transform="translate(58.394 91.344)"><path class="e" d="M996.278,509.726l6.9,2.916,5.8-4.825-6.931-2.864Z" transform="translate(-996.278 -504.952)"/></g><g transform="translate(51.111 97.369)"><path class="e" d="M988.8,515.925l6.929,2.854,5.788-4.752-6.9-2.885Z" transform="translate(-988.796 -511.142)"/></g><g transform="translate(36.456 103.283)"><path class="e" d="M986.729,517.218l-12.989,10.74,15.472,6.59,5.827-4.784-8.671-3.665,7.272-6.008Z" transform="translate(-973.74 -517.218)"/></g><g transform="translate(84.789 46.71)"><path class="e" d="M1023.4,463.91l6.938,2.781,5.835-4.812-7-2.782Z" transform="translate(-1023.396 -459.097)"/></g><g transform="translate(77.507 52.739)"><path class="e" d="M1015.915,470.076l6.959,2.8,5.809-4.816-6.964-2.768Z" transform="translate(-1015.915 -465.291)"/></g><g transform="translate(70.271 58.764)"><path class="e" d="M1008.48,476.256l6.894,2.781,5.823-4.776-6.96-2.78Z" transform="translate(-1008.48 -471.48)"/></g><g transform="translate(63.024 64.779)"><path class="e" d="M1001.035,482.4l6.887,2.831,5.793-4.808-6.919-2.762Z" transform="translate(-1001.035 -477.66)"/></g><g transform="translate(52.162 73.76)"><path class="e" d="M989.875,491.658l6.87,2.829,5.784-4.781-6.894-2.819Z" transform="translate(-989.875 -486.887)"/></g><g transform="translate(44.951 79.712)"><path class="e" d="M982.467,497.8l6.842,2.85,5.76-4.781L988.206,493Z" transform="translate(-982.467 -493.002)"/></g><g transform="translate(37.746 85.689)"><path class="e" d="M975.066,503.913l6.807,2.863L987.639,502l-6.854-2.857Z" transform="translate(-975.066 -499.143)"/></g><g transform="translate(30.517 91.683)"><path class="e" d="M967.638,510.048l6.831,2.85,5.722-4.748L973.4,505.3Z" transform="translate(-967.638 -505.301)"/></g><g transform="translate(18.479 97.679)"><path class="e" d="M955.27,520.188l6.778,2.856,10.562-8.725-6.8-2.858Z" transform="translate(-955.27 -511.461)"/></g><g transform="translate(112.612 65.335)"><path class="e" d="M1051.981,509.8l21.893,8.963,38.776-31.744-22.256-8.792Z" transform="translate(-1051.981 -478.232)"/></g></g><path class="c" d="M1040.44,308.421a1.861,1.861,0,0,0-1.839.448L912.843,407.218a5.584,5.584,0,0,0-1.785,4.8l17.656,101.3a1.718,1.718,0,0,0,1,1.489h0c.008.048.047.041.047.041l4.523,1.645.157-4.6,122.134-102.085a5.572,5.572,0,0,0,1.763-4.788L1042.1,314.059l.908.514,2.061-4.443-4.632-1.708Z" transform="translate(-911.001 -308.328)"/><g transform="translate(4.596 1.648)"><path class="e" d="M1043.3,310.59,917.545,408.943a5.65,5.65,0,0,0-1.766,4.814l17.659,101.317c.277,1.589,1.523,2.069,2.783,1.022L1061.275,411.54a5.6,5.6,0,0,0,1.791-4.813l-16.987-95.116C1045.8,310,1044.578,309.529,1043.3,310.59Z" transform="translate(-915.722 -310.021)"/></g><g transform="translate(25.385 12.212)"><path class="f" d="M1053.478,399.745l-116.4,97.3.428,2.453,118.437-99-14.254-79.62-2.043,1.676Z" transform="translate(-937.081 -320.874)"/></g><g transform="translate(10.801 13.888)"><path class="g" d="M936.681,497.087l116.4-97.3L1039.248,322.6,922.1,413.688Z" transform="translate(-922.097 -322.596)"/></g></g><g transform="translate(106.606 271.094)"><path class="h" d="M883.869,613.346l46.988-26.5,78.752,25.562v9.586l-47.928,31.952-77.813-31.576,1.5-1.973-.188-5.545Z" transform="translate(-883.869 -586.844)"/><g transform="translate(1.316 28.005)"><path class="i" d="M885.221,615.616l75.557,30.636,47.364-30.636v5.545l-46.424,31.106-76.309-31.106Z" transform="translate(-885.221 -615.616)"/></g><g transform="translate(19.171 39.33)"><path class="j" d="M913.639,627.251s-9.792,4.651-10.074,15.647l18.513,7.048s1.6-12.5,11.016-14.807Z" transform="translate(-903.565 -627.251)"/></g></g><g transform="translate(231.02 107.572)"><rect class="k" width="0.288" height="1.018" transform="matrix(0.981, -0.194, 0.194, 0.981, 0, 0.056)"/></g></g><g transform="translate(918.16 322.216)"><path class="l" d="M922.1,413.688,1039.248,322.6l1.122,6.263L923.629,422.45Z" transform="translate(-922.097 -322.596)"/></g><g transform="translate(957.611 399.551)"><path class="m" d="M962.629,425.46l1.528,9.206,29.688-23.8-2.013-8.818Z" transform="translate(-962.629 -402.048)"/></g><g transform="translate(991.931 403.472)"><path class="m" d="M997.888,429.489l1.528,9.206,29.687-23.8-2.012-8.818Z" transform="translate(-997.888 -406.077)"/></g><g transform="translate(1015.011 346.72)"><path class="m" d="M1021.6,367.565l1.5,9.023,24.86-19.508-1.668-9.308Z" transform="translate(-1021.6 -347.771)"/></g><g transform="translate(918.16 322.216)"><g class="n"><g transform="translate(0.078 4.962)"><g transform="translate(0 0)"><rect class="k" width="152.406" height="1.149" transform="translate(0 95.28) rotate(-38.695)"/></g><g transform="translate(1.63 9.124)"><rect class="k" width="152.405" height="1.149" transform="translate(0 95.28) rotate(-38.695)"/></g><g transform="translate(3.26 18.248)"><rect class="k" width="152.406" height="1.149" transform="translate(0 95.28) rotate(-38.695)"/></g><g transform="translate(4.89 27.372)"><rect class="k" width="152.406" height="1.149" transform="translate(0 95.28) rotate(-38.695)"/></g><g transform="translate(6.52 36.497)"><rect class="k" width="152.405" height="1.149" transform="translate(0 95.279) rotate(-38.695)"/></g><g transform="translate(8.15 45.621)"><rect class="k" width="152.406" height="1.149" transform="translate(0 95.28) rotate(-38.695)"/></g><g transform="translate(9.78 54.745)"><rect class="k" width="152.406" height="1.149" transform="translate(0 95.28) rotate(-38.695)"/></g><g transform="translate(11.411 63.869)"><rect class="k" width="152.406" height="1.149" transform="translate(0 95.28) rotate(-38.695)"/></g><g transform="translate(3.176 82.158)"><rect class="k" width="1.149" height="86.41" transform="translate(0 0.188) rotate(-9.423)"/></g><g transform="translate(32.605 58.317)"><rect class="k" width="1.149" height="86.41" transform="translate(0 0.188) rotate(-9.422)"/></g><g transform="translate(62.032 34.475)"><rect class="k" width="1.149" height="86.41" transform="translate(0 0.188) rotate(-9.422)"/></g><g transform="translate(91.459 10.634)"><rect class="k" width="1.149" height="86.41" transform="translate(0 0.188) rotate(-9.422)"/></g></g></g></g></g></svg>