<?xml version="1.0" encoding="utf-8"?>
<!-- Generator: Adobe Illustrator 24.0.0, SVG Export Plug-In . SVG Version: 6.00 Build 0)  -->
<svg version="1.1" id="Layer_1" xmlns="http://www.w3.org/2000/svg" xmlns:xlink="http://www.w3.org/1999/xlink" x="0px" y="0px"
	 viewBox="0 0 638 598" style="enable-background:new 0 0 638 598;" xml:space="preserve">
<style type="text/css">
	.st0{fill:#F7EED2;}
	.st1{fill-rule:evenodd;clip-rule:evenodd;fill:#F6DA9B;}
	.st2{fill:#444343;}
	.st3{fill:#FE674C;}
	.st4{fill:#EBDDDB;}
	.st5{opacity:0.31;fill:#E5D7D1;enable-background:new    ;}
	.st6{fill:none;}
	.st7{opacity:0.13;}
	.st8{fill:#D6BF87;}
	.st9{fill:#F6DA9B;}
	.st10{fill:#F7CF43;}
	.st11{fill:#164B55;}
	.st12{fill:#438591;}
	.st13{opacity:0.15;enable-background:new    ;}
	.st14{fill:#F8D24B;}
	.st15{fill:#FFFFFF;}
	.st16{fill:#274E55;}
	.st17{opacity:0.3;enable-background:new    ;}
	.st18{opacity:0.3;}
	.st19{fill:#D63E23;}
</style>
<g>
	<path id="Path_24864" class="st0" d="M584.67,194.03c-7.9,24.65-33.8,35.08-53.85,47.84c-25.97,16.51-47.33,39.89-45.82,72.71
		c1.1,24,14.18,46.09,16.03,70.04c2.78,36.07-21.36,76.51-53.65,92.43c-19.65,9.68-40.56,7.09-61.32,3.12
		c-2.79-0.53-5.6-1.1-8.39-1.66h-0.03c-0.02,0-0.02,0-0.03-0.02c-1.11-0.21-2.21-0.43-3.31-0.65c-0.53-0.1-1.04-0.21-1.56-0.31
		c-0.31-0.07-0.62-0.12-0.92-0.19c-0.68-0.12-1.37-0.26-2.05-0.39c-0.03,0-0.06,0-0.09-0.02c-0.02,0-0.04,0-0.05-0.02
		c-4.4-0.82-8.77-1.59-13.1-2.19c-14.99-2.05-29.94-0.99-44.72,1.73c-12.21,2.39-24.27,5.52-36.11,9.37c-5,1.58-9.97,3.2-14.89,4.85
		c-3.34,1.1-6.66,2.21-9.95,3.29c-5.16,1.7-10.35,3.37-15.59,4.85c-0.05,0.02-0.1,0.02-0.15,0.03c-0.04,0.02-0.08,0.03-0.12,0.03
		c-0.07,0.02-0.14,0.03-0.19,0.05c-0.08,0.03-0.16,0.05-0.24,0.07c-0.02,0-0.03,0.02-0.07,0.02l-0.92,0.26
		c-0.46,0.12-0.94,0.24-1.4,0.36c-0.04,0.02-0.08,0.03-0.12,0.03c-0.09,0.03-0.19,0.05-0.29,0.07c-2.02,0.55-4.08,1.03-6.11,1.46
		c-6.6,1.48-13.33,2.26-20.09,2.33c-52.95,0.07-90.78-64.99-116.67-102.95C52.56,347.3,19.23,298.41,31.51,238.05
		c1.15-5.65,16.72-77.41,67.88-93.7c61.56-19.6,106.68,58.96,162.06,62.95c0.23,0.03,0.46,0.05,0.68,0.05
		c0.45,0.03,0.89,0.05,1.32,0.07c6.37,0.26,12.73-0.53,18.84-2.33c0.43-0.1,0.87-0.24,1.32-0.39c0.48-0.14,0.98-0.29,1.47-0.48
		c4.3-1.47,8.46-3.35,12.4-5.62c2.07-1.15,4.16-2.45,6.27-3.89c9.78-6.66,17.61-15.5,24.14-25.38c5.76-8.91,10.75-18.29,14.92-28.04
		c15.78-35.7,30.46-83.11,73.02-94.45c61.84-16.46,132.94,43.61,159.74,94.59C584.09,157.61,590.27,176.62,584.67,194.03z"/>
	<g id="Group_9778" transform="translate(255.419 298.938)">
		<path id="Path_24865" class="st1" d="M119.56,167.85c0,0-4.79,4.95-5.4,10.32c-0.36,3.19-1.16,3.15-1.38,3.7
			c-0.72,1.83,2.54-0.05,3.29-2.77c0.6-2.22,4.29-3.59,5.03-4.94s2.03-5.34,1.48-6.3S119.56,167.85,119.56,167.85z"/>
		<g id="Group_9777">
			<path id="Path_24866" class="st2" d="M109.99,166.67l-0.28-0.28l-1.34,1.25l0,0l-0.19,0.18l-0.21,0.19l0,0l-1.24,1.18l0.26,0.3
				c0,0,3.91,5.5,6.6,7.83s25.78,25.32,25.78,25.32c0.26,0.23,0.65,0.25,0.93,0.04c0.34-0.15,0.61-0.42,0.79-0.74
				c0.23-0.27,0.23-0.66,0.02-0.93c0,0-21.61-24.4-23.77-27.22C115.08,171.23,112.62,168.84,109.99,166.67z"/>
			<path id="Path_24867" class="st3" d="M100.58,153.52c0.37,0.54,0.8,1.26,0.8,1.26l-6.15,5.2c0,0-1.87-1.64-2.28-1.88
				c-1.27-1.06-2.49-2.18-3.64-3.36c-0.22-0.28-0.47-0.25-0.07-0.83c0.08-0.11,0.17-0.24,0.3-0.4c0.02-0.03,0.04-0.05,0.06-0.07
				c0.46-0.58,0.98-1.1,1.55-1.57l1.04,1.11l-0.92-1.25c0,0,0.81-0.74,0.96-0.9s0.77,0.15,1.12,0.52s1.23,1.72,1.36,1.78
				c-0.4-0.71-0.85-1.39-1.33-2.04c-0.22-0.29-0.64-0.73-0.64-0.73s0.28-0.26,0.62-0.58l0,0c0.11-0.1,0.23-0.21,0.35-0.33
				c0.46-0.43,0.93-0.87,1.01-0.95c0.22-0.17,0.47-0.31,0.73-0.42c0,0,1.42,1.33,1.87,1.79S100.2,152.99,100.58,153.52z"/>
			<path id="Path_24868" class="st4" d="M97.69,156.43c-0.01,0-0.01,0-0.02,0s-0.05,0.05-0.09,0.09s-0.08,0.07-0.09,0.08
				c0,0-0.01,0.01,0,0.02c-0.67,0.7-2.75,2.95-2.75,2.95s1.73,1.4,1.98,1.59s5.91,4.64,6.45,5.06c0.59,0.48,1.21,0.9,1.87,1.27
				c0.43,0.19,0.12,0.08,0.49,0.67c0.26,0.34,0.63,0.58,1.05,0.68c0.06,0.23,0.18,0.43,0.34,0.6c0.64-0.31,1.25-0.66,1.83-1.05
				l0.04-0.04c0.43-0.56,0.82-1.15,1.16-1.77c-0.16-0.17-0.36-0.3-0.58-0.37c-0.08-0.42-0.3-0.81-0.62-1.09
				c-0.57-0.4-0.47-0.09-0.64-0.53c-0.33-0.68-0.72-1.33-1.16-1.94c-0.39-0.57-4.5-6.48-4.67-6.73s-1.48-2.07-1.48-2.07
				S98.43,155.81,97.69,156.43z"/>
			<path id="Path_24869" class="st5" d="M92.54,155.7c0,0-1.99-1.07-3.31-1.79c0.08-0.11,0.17-0.24,0.3-0.4
				c0.02-0.03,0.04-0.05,0.06-0.07L92.54,155.7z"/>
			<path id="Path_24870" class="st6" d="M97.29,149.85c-0.46-0.46-1.87-1.79-1.87-1.79c-0.26,0.11-0.5,0.25-0.73,0.42
				c-0.08,0.08-0.54,0.52-1.01,0.95c-0.12,0.12-0.24,0.23-0.35,0.33l0,0c-0.34,0.33-0.62,0.58-0.62,0.58s0.42,0.45,0.64,0.73
				c0.48,0.65,0.93,1.33,1.33,2.04c-0.12-0.06-1-1.41-1.36-1.78s-0.98-0.67-1.12-0.52s-0.96,0.9-0.96,0.9l0.92,1.25l-1.04-1.11
				c-0.57,0.47-1.09,1-1.55,1.57c-0.02,0.02-0.04,0.05-0.06,0.07c-0.12,0.16-0.22,0.29-0.3,0.4c-0.39,0.58-0.15,0.55,0.07,0.83
				c1.16,1.18,2.37,2.31,3.64,3.36c0.27,0.16,1.21,0.96,1.8,1.46l-0.01,0.01l0.36,0.29l0.14,0.12l0.01-0.01
				c0.53,0.43,1.32,1.07,1.48,1.19c0.25,0.19,5.91,4.64,6.45,5.06c0.59,0.48,1.21,0.9,1.87,1.27c0.43,0.19,0.12,0.08,0.49,0.67
				c0.26,0.34,0.63,0.59,1.05,0.68c0.06,0.23,0.18,0.43,0.34,0.6c0.01,0,0.03,0,0.04,0l0.04,0.04c0,0,3.91,5.5,6.6,7.83
				s25.78,25.32,25.78,25.32c0.26,0.23,0.65,0.25,0.93,0.04c0.34-0.15,0.61-0.42,0.79-0.74c0.23-0.27,0.24-0.66,0.02-0.93
				c0,0-21.61-24.4-23.77-27.22c-2.25-2.57-4.71-4.95-7.34-7.13l-0.05-0.05v-0.02c-0.06-0.07-0.13-0.14-0.21-0.18l-0.03-0.03
				l-0.01,0.01c-0.1-0.08-0.22-0.14-0.34-0.17c-0.08-0.42-0.3-0.81-0.62-1.09c-0.57-0.4-0.47-0.09-0.64-0.53
				c-0.33-0.68-0.72-1.33-1.16-1.94c-0.39-0.57-4.5-6.48-4.67-6.73c-0.14-0.21-1.01-1.42-1.35-1.89c-0.11-0.17-0.23-0.36-0.34-0.52
				C100.2,152.99,97.75,150.31,97.29,149.85z"/>
			<g id="Group_9776" transform="translate(0 0.396)" class="st7">
				<path id="Path_24871" d="M92.41,150.43l0.97,1.03l-0.67-0.92C92.61,150.49,92.51,150.45,92.41,150.43z"/>
				<path id="Path_24872" d="M93.36,149.34l-0.06,0.06l0,0l-0.62,0.58l0,0C92.9,149.77,93.23,149.47,93.36,149.34z"/>
				<path id="Path_24873" d="M94.53,149.82c0.35,0.37,1.23,1.72,1.36,1.78c-0.4-0.71-0.85-1.39-1.34-2.04
					c-0.21-0.28-0.61-0.71-0.64-0.73l-0.25,0.24c-0.08,0.07-0.15,0.14-0.23,0.21C93.6,149.16,94.19,149.46,94.53,149.82z"/>
				<path id="Path_24874" d="M94.72,148.06c-0.02,0.02-0.05,0.04-0.07,0.06c-0.02,0.02-0.05,0.05-0.11,0.1L94.72,148.06z"/>
				<path id="Path_24875" d="M140.56,201.13c0,0-23.1-22.99-25.78-25.32s-6.6-7.83-6.6-7.83l-0.04-0.04c-0.01,0-0.03,0-0.04,0
					c-0.16-0.17-0.28-0.37-0.34-0.6c-0.42-0.1-0.79-0.34-1.05-0.68c-0.36-0.59-0.06-0.47-0.49-0.67c-0.66-0.37-1.29-0.8-1.87-1.27
					c-0.54-0.42-6.2-4.87-6.45-5.06c-0.16-0.12-0.95-0.76-1.48-1.19l-0.01,0.01l-0.14-0.12l-0.36-0.29l0.01-0.01
					c-0.58-0.5-1.52-1.3-1.8-1.46c-1.27-1.06-2.49-2.18-3.64-3.36c-0.22-0.28-0.46-0.25-0.07-0.83c0.08-0.11,0.17-0.24,0.3-0.4
					c0.02-0.03,0.04-0.05,0.06-0.07c0.11-0.14,0.23-0.28,0.34-0.4l-0.01-0.02c-0.57,0.47-1.09,1-1.55,1.57
					c-0.02,0.02-0.04,0.05-0.06,0.07c-0.12,0.16-0.22,0.29-0.3,0.4c-0.4,0.58-0.15,0.55,0.07,0.83c1.16,1.18,2.37,2.31,3.64,3.36
					c0.28,0.16,1.21,0.96,1.8,1.46l-0.01,0.01l0.36,0.29l0.14,0.12h0.01c0.53,0.43,1.32,1.07,1.48,1.19
					c0.25,0.19,5.91,4.64,6.45,5.06c0.59,0.48,1.21,0.9,1.87,1.27c0.43,0.19,0.12,0.08,0.49,0.67c0.26,0.34,0.63,0.59,1.05,0.68
					c0.06,0.23,0.17,0.43,0.34,0.6c0.01,0,0.03,0,0.04,0l0.04,0.04c0,0,3.91,5.5,6.6,7.83s25.79,25.32,25.79,25.32
					c0.26,0.23,0.65,0.25,0.93,0.04c0.16-0.08,0.32-0.19,0.46-0.31c0.13-0.13,0.24-0.28,0.33-0.43c0.06-0.09,0.1-0.19,0.13-0.3
					C140.96,201.35,140.73,201.29,140.56,201.13z"/>
				<path id="Path_24876" d="M92.24,150.42c-0.02,0.01-0.04,0.02-0.06,0.03c-0.02,0.03-0.07,0.07-0.12,0.12
					C92.13,150.51,92.19,150.46,92.24,150.42z"/>
				<path id="Path_24877" d="M91.59,151.02c-0.2,0.18-0.36,0.33-0.36,0.33l0.02,0.03C91.36,151.25,91.48,151.13,91.59,151.02z"/>
			</g>
		</g>
		<path id="Path_24878" class="st1" d="M125.47,153.35c-0.29,0.99-6.07,11.6-6.35,17.23s-0.18,14.03-0.89,16.96
			c-0.83,3.45,0.56,4.25,1.9,0.27c0.97-2.95,1.7-5.97,2.17-9.04c0-0.56-0.34,3.11-1,7.12c-0.7,4.26-1.71,8.89-0.95,9.07
			c1.48,0.35,4.26-11.95,4.4-14.11c-0.05,1.9-0.2,3.79-0.45,5.68c-0.35,2.57-1.13,5.53-0.58,6.08c0.87,0.87,3.14-5.68,3.66-11.03
			c0.17-0.1,0.51,1.61-0.54,7.93c-0.11,0.64,0.23,2.23,1.1,0.13c1.83-4.42,2.94-6.19,2.88-12.49c-0.06-6.14-1.6-12.86-0.3-17.33
			L125.47,153.35z"/>
	</g>
	<g id="Group_9779" transform="translate(10.778 52.795)">
		<path id="Path_24879" class="st1" d="M106.69,187.88c-0.16-1.02,0.55-13.07-1.6-18.29s-5.82-12.77-6.43-15.72
			c-0.72-3.47-2.32-3.61-1.83,0.57c0.38,3.08,1.01,6.12,1.89,9.1c0.24,0.51-1.02-2.96-2.13-6.87c-1.18-4.15-2.25-8.77-3.01-8.61
			c-1.48,0.32,1.24,12.63,2.03,14.64c-0.76-1.74-1.43-3.52-2.01-5.33c-0.78-2.47-1.33-5.48-2.07-5.75
			c-1.16-0.42-0.42,6.47,1.39,11.54c-0.11,0.16-1.15-1.24-2.89-7.4c-0.18-0.62-1.16-1.91-1.05,0.36c0.23,4.78-0.02,6.85,2.71,12.53
			c2.67,5.53,6.93,10.95,7.66,15.55L106.69,187.88z"/>
		<path id="Path_24880" class="st1" d="M105.86,172.24c0,0,2.23-6.52,0.49-11.64c-1.04-3.04-0.29-3.34-0.33-3.93
			c-0.13-1.96-2.28,1.12-1.79,3.91c0.4,2.26-2.35,5.08-2.45,6.61s0.44,5.7,1.35,6.33C104.04,174.17,105.86,172.24,105.86,172.24z"/>
	</g>
	<path id="Path_24882" class="st8" d="M269.74,224c0,0,0.97,10.86-5.73,16.87s15.43,0,15.43,0s-4.12-10.4-3.2-16.87
		C277.18,217.53,269.74,224,269.74,224z"/>
	<ellipse id="Ellipse_1075" class="st9" cx="273.27" cy="212.23" rx="11.71" ry="15.98"/>
	<path id="Path_24883" class="st10" d="M386.82,456.87c0,0,7.79,10.87,5.94,12.82s-7.65-1.03-9.36,0s-6.11,3.06-7.15,1.81
		s-2.72-6.67-6.27-5.35s6.17-7.41,4.09-9.29c-27.22-24.51-42.1-55.26-50.4-83.63h-0.01v0.01c-2.96,7.75-8.93,15.87-14.08,20.07
		c-0.33,0.28-0.67,0.54-1,0.78c-13.72,6.55-80.48,1.66-89.32-1.9c-3.99-1.61-8.83-13.25-12.98-26.21
		c-5.07-15.8-9.13-33.57-9.37-37.49c-0.41-6.59,7.54-83.22,53.24-92.17c4.07-0.79,8.23-1.04,12.36-0.74c0,0,0.43,0.26,1.18,0.6
		c1.55,0.73,3.18,1.28,4.86,1.65c3.76,0.82,8.64,0.8,12.76-2.76c7.98-6.89,74.42,5.26,99.82,58.4
		C418.79,372.24,386.82,456.87,386.82,456.87z"/>
	<path id="Path_24884" class="st10" d="M263.16,245.32c-4.56,25.76-25.99,95.29-25.99,95.29c-8.68,10.1-19.03,18.63-30.61,25.2
		c-0.1,0.06-0.2,0.11-0.3,0.16c-4.81,2.72-9.78,5.13-14.9,7.2c-26.38,10.69-49.15,9.92-49.15,9.92
		c-93.77-33.83-35.1-141.1-35.1-141.1c-0.46-3.7-9.71-6.46-10.63-10.54s7.4,0.37,8.78-1.23s-1.38-8.1,3.7-5.71
		c5.08,2.39,4.15,2.7,12.01,0s0,14.25,0,14.25c23.27,30.33,27.56,61.76,28.19,69.01c-0.01-0.15-0.01-0.31-0.01-0.48
		c0.27-0.7,0.55-1.4,0.82-2.09c0.37-0.92,0.75-1.83,1.14-2.72l0.01-0.01c0-0.01,0.01-0.01,0.01-0.03
		c7.24-16.79,16.76-29.41,27.2-38.88c27.39-24.82,58.62-30.29,74.73-29.74c5.57,0.19,9.33,1.1,10.5,2.17
		c0.05,0.05,0.1,0.11,0.13,0.17C264.29,237.15,264.03,240.46,263.16,245.32z"/>
	<path id="Path_24885" class="st11" d="M311.79,476.45c-12.21,2.39-24.27,5.52-36.11,9.37c-4.45-37.29-9.11-67.69-11.36-64.8
		c-2.23,2.88-3.31,33.66-3.53,69.65c-3.34,1.1-6.66,2.21-9.95,3.29c-5.16,1.7-10.35,3.37-15.59,4.85c-0.05,0.02-0.1,0.02-0.15,0.03
		c-0.04,0.02-0.08,0.03-0.12,0.03c-0.07,0.02-0.14,0.03-0.19,0.05c-0.08,0.03-0.16,0.05-0.24,0.07c-0.02,0-0.03,0.02-0.07,0.02
		l-0.92,0.26c-0.46,0.12-0.94,0.24-1.4,0.36c-0.04,0.02-0.08,0.03-0.12,0.03c-0.09,0.03-0.19,0.05-0.29,0.07
		c-2.02,0.55-4.08,1.03-6.11,1.46c-1.49-20.37-3.31-52.04-4.59-76.24c-0.05-1.01-0.1-2.02-0.17-3.02c-0.15-2.98-0.31-5.82-0.45-8.51
		l-0.05-1.08l-0.05-0.92c-0.03-0.63-0.07-1.27-0.1-1.88c-0.02-0.26-0.03-0.53-0.03-0.79c-0.02-0.19-0.02-0.36-0.03-0.57
		c-0.02-0.45-0.05-0.87-0.07-1.3c-0.02-0.19-0.02-0.39-0.02-0.6c-0.03-0.45-0.05-0.87-0.09-1.3c-0.02-0.24-0.03-0.48-0.03-0.7
		c-0.05-1.01-0.1-2-0.14-2.93c-0.03-0.75-0.09-1.47-0.12-2.16c-0.02-0.6-0.05-1.18-0.09-1.71c0-0.09-0.02-0.17-0.02-0.26
		c-0.02-0.34-0.03-0.67-0.03-0.98c-0.02-0.41-0.03-0.8-0.07-1.18c-0.02-0.31-0.03-0.62-0.05-0.89c0-0.58-0.03-1.08-0.07-1.51
		c-0.01-0.14-0.02-0.29-0.02-0.43c-0.02-0.21-0.02-0.36-0.03-0.51c-0.01-0.1-0.02-0.21-0.02-0.31c0-0.29-0.02-0.5-0.02-0.6
		c-0.01-0.03-0.02-0.06-0.02-0.09c0.17,0.16,0.37,0.29,0.58,0.38c0.14,0.08,0.29,0.14,0.45,0.19c0.22,0.09,0.45,0.15,0.68,0.21
		c0.26,0.07,0.53,0.14,0.84,0.21c0.33,0.09,0.67,0.14,1.05,0.21c0.15,0.02,0.31,0.03,0.48,0.07c0.72,0.12,1.54,0.24,2.43,0.33
		c0.05,0.02,0.12,0.02,0.17,0.03c0.51,0.07,1.03,0.12,1.58,0.15c1.06,0.1,2.19,0.19,3.39,0.29c0.77,0.05,1.59,0.1,2.42,0.14h0.02
		c0.15,0.02,0.29,0.02,0.45,0.03l0.74,0.05c10.64,0.57,25.21,0.74,38.73,0.72h0.05c8.77-0.02,17.06-0.09,23.48-0.17
		c4.81-0.09,8.6-0.14,10.76-0.19c0.78-0.11,1.53-0.33,2.24-0.65h0.02c0.5-0.21,0.96-0.49,1.39-0.82c0.16-0.13,0.32-0.28,0.46-0.43
		C311.66,391.46,311.8,440.8,311.79,476.45z"/>
	<path id="Path_24886" class="st11" d="M299.55,390.78c-6.89,12-62.54,9.25-68.67,0c0,0-22.79-54.37-18.2-70.15
		c0,0,13.06,2.26,27.85,6c16.49,4.16,35.1,10.17,40.1,16.94c5.68,7.69,13.82,18.81,17.95,29.07l0.01,0.01
		c0.39,0.97,0.74,1.93,1.05,2.88s0.58,1.86,0.8,2.78v0.02C301.6,383.02,301.53,387.33,299.55,390.78z"/>
	<path id="Path_24887" class="st11" d="M240.53,234.74c0,0-29.26,22.09-27.85,85.89l8.66,2.79c0,0-3.51-63.82,25.31-89.5
		C246.65,233.92,243.83,232.09,240.53,234.74z"/>
	<path id="Path_24888" class="st12" d="M298.59,372.64c0.12,0.61,0.25,1.19,0.36,1.74c-7.13-10.03-36.65-7.75-36.65-7.75
		c-0.79-24.13-21.77-40.01-21.77-40.01c16.48,4.16,35.1,10.17,40.1,16.93c5.68,7.69,13.82,18.81,17.95,29.07L298.59,372.64z"/>
	<path id="Path_24889" class="st12" d="M298.95,374.38c0.26,0.36,0.49,0.74,0.69,1.14c0.44,0.87,0.71,1.81,0.8,2.78v0.02
		C300.9,382.74,300.2,380.15,298.95,374.38z"/>
	<path id="Path_24890" class="st13" d="M323.66,373.24L323.66,373.24c-2.96,7.76-8.93,15.88-14.08,20.07
		c9.08-24.57,3.12-46.51,2.7-61.29c2.09,14.25,11.06,40.28,11.38,41.2L323.66,373.24z"/>
	<path id="Path_24891" class="st13" d="M206.56,365.81c-4.9,2.79-9.98,5.25-15.2,7.37c-6-39.68,16.33-73.71,16.94-74.64
		C198.76,318.97,203.95,352.57,206.56,365.81z"/>
	<path id="Path_24892" class="st13" d="M168.39,284.98c-5.85,4-4.61,6.47-6.77,22.76S149.61,318.54,149,313
		c-0.27-3.63,0.46-7.27,2.11-10.52l0.01-0.01c0-0.01,0.01-0.01,0.01-0.03c7.24-16.79,16.76-29.41,27.2-38.88
		C182.28,266.94,173.61,281.41,168.39,284.98z"/>
	<g id="Group_9780" transform="translate(142.733 338.899)">
		<path id="Path_24893" class="st14" d="M91.76,158.94c0.32,0.05,0.51-0.22,0.8-0.21c-0.64,0-0.12-0.44-0.2-0.68l-0.49-0.11
			c-0.36,0.23-0.21,0.83-0.27,1.33L91.76,158.94z"/>
		<path id="Path_24894" class="st15" d="M92.13,158.49l-0.31-0.16C91.9,158.46,91.95,158.77,92.13,158.49z"/>
		<path id="Path_24895" class="st15" d="M90.39,158.81c-0.05,0.4,0.22-0.24,0.31,0.16C90.63,158.84,90.6,158.68,90.39,158.81z"/>
		<path id="Path_24896" class="st14" d="M91.42,157.16c0.07,0.28,0.14,0.57,0.21,0.85l0.22-0.34L91.42,157.16z"/>
		<path id="Path_24897" class="st14" d="M92.47,157.15c-0.02,0.12-0.13,0.19-0.24,0.18c-0.04-0.01-0.09-0.03-0.12-0.06
			c0.4-0.29-0.14-0.49,0.2-0.76l0.16,0.27c0.41-0.02-0.4-0.57,0.33-0.53c-0.5-0.38-0.63,0.25-0.98-0.23c0.07,0.39,0,0.79-0.19,1.14
			c0.15-0.1,0.13-0.15,0.25-0.3c0.01,0.27,0.22,0.63,0.26,0.93C92.62,157.63,92.19,157.4,92.47,157.15z"/>
		<path id="Path_24898" class="st14" d="M92.62,155.82c0.04-0.28,0.08-0.72-0.47-0.82c-0.4,0.28,0.06,0.36,0.28,0.5
			c-0.09,0.08-0.14,0.36-0.43,0.24C92.13,155.7,92.41,155.94,92.62,155.82z"/>
		<path id="Path_24899" class="st14" d="M92.77,154.72l-0.48-0.23l0.08,0.14h-0.35c0.09,0.03,0.72,0.16,0.67,0.44
			C92.95,154.92,92.64,154.86,92.77,154.72z"/>
		<path id="Path_24900" class="st14" d="M90.35,154.53c0.25-0.18,0.11-0.3-0.01-0.54c0.03,0.32-0.01,0.76,0.19,0.86l-0.08-0.03
			c0.16,0.2,0.36,0.38,0.57,0.53C90.69,155.02,91.23,154.48,90.35,154.53z"/>
		<path id="Path_24901" class="st14" d="M90.28,154.93l-0.27-0.24L90.28,154.93z"/>
		<path id="Path_24902" class="st14" d="M92.69,153.83l-0.18,0.42l0.15-0.1L92.69,153.83z"/>
		<path id="Path_24903" class="st14" d="M91.19,154.28c0.09-0.35-0.4,0.17-0.37-0.16c-0.05-0.09-0.01,0.49,0.22,0.53
			C91.14,154.56,90.78,154.29,91.19,154.28z"/>
		<path id="Path_24904" class="st14" d="M92.75,153.55l-0.35-0.38L92.75,153.55z"/>
		<path id="Path_24905" class="st14" d="M93.04,152.68l-0.26-0.09c0.24-0.33-0.09-0.82,0.49-1.03c-0.33,0.03-0.65-0.19-0.77,0.1
			c0.17,0.06,0.16,0.17,0.36,0.16c-0.07,0.12-0.3,0.08-0.4,0.16c0.27,0.24,0.03,0.57,0.27,0.77c-0.05-0.09,0.01-0.11,0.05-0.17
			c0.43,0.41-0.69,0.4,0.05,0.62C92.61,153.06,93.14,152.86,93.04,152.68z"/>
		<path id="Path_24906" class="st14" d="M91.25,152.59l-0.12,0.3c-0.34-0.12,0.01-0.38-0.31-0.45c-0.21,0.01-0.33,0.31-0.46,0.18
			c0.81,0.09,0.01,0.43,0.93,0.32c0.08,0.41-0.51,0.09-0.48,0.52l0.43,0.14C91.05,153.13,91.43,153.08,91.25,152.59z"/>
		<path id="Path_24907" class="st14" d="M91.47,151.42l0.28-0.13l-0.39,0.05c-0.02-0.69,1.58-0.96,1.4-1.39
			c-0.47-0.56,0.34-0.96,0.31-1.49c-0.31-0.29-0.22,0.22-0.42,0.23c-0.64-0.14,0.36-0.22-0.16-0.39c-0.46-0.08-0.55,0.49-0.86,0.69
			c0.05,0.2,0.19,0.21,0.45,0.3c-0.26,0.03-0.36,0.22-0.63,0.24c0.33,0.44-0.38,0.6-0.03,1.04c-0.36,0.1-0.04-0.31-0.11-0.18
			l-0.01,0.22l0.06-0.02c0.34,0.33-0.04,0.86-0.29,1.03c0.13-0.14,0.43-0.23,0.53-0.04l-0.42,0.12l0.57,0.43
			C91.4,151.81,92.22,151.53,91.47,151.42z"/>
		<path id="Path_24908" class="st14" d="M90.69,151.79c-0.25,0.45,0.62-0.01,0.39,0.48v-0.53L90.69,151.79z"/>
		<path id="Path_24909" class="st15" d="M91.89,149.67l0.3-0.2C91.61,149.54,92.35,149.97,91.89,149.67z"/>
		<path id="Path_24910" class="st15" d="M91.97,148.84l0.52,0.17l-0.28-0.24L91.97,148.84z"/>
		<path id="Path_24911" class="st14" d="M92.68,148.14c-0.25-0.2-0.5-0.02-0.45,0.18C92.27,148.15,92.51,148.08,92.68,148.14z"/>
		<path id="Path_24912" class="st14" d="M93.1,150.47c0,0.05-0.01,0.09-0.03,0.13L93.1,150.47z"/>
		<path id="Path_24913" class="st14" d="M93.12,150.39l-0.02,0.09C93.1,150.44,93.11,150.41,93.12,150.39z"/>
		<path id="Path_24914" class="st14" d="M92.47,159.62c0.02,0.06,0.03,0.12,0.03,0.18L92.47,159.62L92.47,159.62z"/>
		<path id="Path_24915" class="st14" d="M91.72,159.82c-0.34-0.32,0.8-0.33,0.57-0.84c0.07,0.21,0.13,0.42,0.17,0.64
			C91.92,159.91,92.18,159.39,91.72,159.82z"/>
		<path id="Path_24916" class="st14" d="M91.19,155.54l-0.02-0.02C91.16,155.48,91.17,155.5,91.19,155.54z"/>
		<path id="Path_24917" class="st14" d="M89.01,160.67v0.15c0.1-0.01,0.2-0.04,0.29-0.07L89.01,160.67z M91.18,155.53
			c0.03,0.05,0.05,0.19-0.17,0.19c-0.38-0.03-0.45-0.67-0.94-0.57l0.27,0.29c-0.33-0.12-0.26,0.26-0.51,0.15l0.21,0.75h-0.34
			l0.17-0.15c-0.77-0.24,0.07,0.36-0.39,0.55l0.31,0.02c-0.29,0.63-0.29,0.26-0.57,0.79l0.33,0.17c0.09,0.03-0.34-0.48,0.09-0.48
			c0.27,0.36,0.19,0.82,0.55,1.2l-0.63-0.26c0.15,0.14-0.48,0.34-0.41,0.67l0.26-0.31c0.65,0.27,0.02,0.87,0.41,1.29
			c0-0.1,0-0.22,0.21-0.24c0.21,0.09,0.09,0.36-0.05,0.51c-0.75-0.05-0.38-0.96-0.96-0.87c-0.07,0.46,0.82,0.87,0.63,1.17
			l-0.43-0.24l0.12,0.22l0.03-0.07c0.31,0.09,0.05,0.24,0.07,0.41c0.46-0.12,0.94-0.24,1.4-0.36c0.04-0.35,0.03-0.7-0.05-1.05
			c-0.14,0.1-0.33,0.06-0.43-0.08c-0.03-0.04-0.04-0.08-0.05-0.13c0.1-0.31,0.19,0.1,0.41-0.03c0.53-0.17-0.24-0.74-0.22-0.96
			c0.1,0.07,0.29-0.6,0.53-0.17c0.15-0.48-0.55-0.84,0.05-1.17c-0.17-0.05-0.46-0.17-0.53-0.31l0.43,0.02l-0.31-0.15
			C90.67,155.99,91.54,155.88,91.18,155.53L91.18,155.53z M92.04,159.99c0.02,0.02,0.02,0.02,0.02,0.03
			c0.05-0.02,0.12-0.03,0.19-0.05C92.18,159.97,92.11,159.98,92.04,159.99L92.04,159.99z M92.5,159.8
			c-0.01,0.07-0.07,0.13-0.14,0.14c0.05-0.02,0.1-0.02,0.15-0.03C92.52,159.87,92.5,159.83,92.5,159.8L92.5,159.8z M91.65,160.06
			c0.03,0.03,0.06,0.05,0.1,0.05c0.03,0,0.05-0.02,0.07-0.02c0.04-0.04,0.08-0.07,0.12-0.1C91.8,159.97,91.7,159.99,91.65,160.06
			L91.65,160.06z"/>
	</g>
	<g id="Group_9781" transform="translate(136.063 191.829)">
		<path id="Path_24918" class="st3" d="M94.3,158.08c-1.37-0.97-2.52-2.21-3.69-3.21l1.4,1.2c-0.67-0.59-1.22-1.31-1.61-2.11
			c0.47-0.07,0.7,0.57,1.15,0.31c1.54,1.64,2.83,3.51,3.83,5.53C93.96,159.98,94.76,158.48,94.3,158.08z"/>
		<path id="Path_24919" class="st3" d="M88.99,151.79c0.17,0.15,0.34,0.3,0.5,0.45C89.28,152.13,89.11,151.98,88.99,151.79z"/>
		<path id="Path_24920" class="st3" d="M107.42,166.24c0.21,0.17,0.39,0.36,0.55,0.57C107.75,166.65,107.57,166.46,107.42,166.24z"
			/>
		<path id="Path_24921" class="st3" d="M98.33,158.26c0.15,0.03,0.3,0.08,0.44,0.15c0.61,0.84,1.19,1.72,1.75,2.63
			C99.87,160.08,98.68,159.51,98.33,158.26z"/>
		<path id="Path_24922" class="st3" d="M98.34,156.7c-0.79-0.75-1.39-1.69-1.72-2.73C97.07,154.96,97.65,155.88,98.34,156.7z"/>
		<path id="Path_24923" class="st3" d="M116.78,170.7c0.07-0.04,0.16-0.06,0.24-0.05c0.05,0.02,0.1,0.04,0.15,0.04
			c0.09,0.5,0.15,1.02,0.21,1.52c-0.1-0.09-0.31-0.12-0.37-0.23C116.94,171.42,117.33,171.12,116.78,170.7z"/>
		<path id="Path_24924" class="st3" d="M107.22,166.02l-0.06,0.01l-0.21-0.17l0.01-0.04C107.05,165.87,107.14,165.94,107.22,166.02z
			"/>
		<path id="Path_24925" class="st3" d="M116.57,170.11c0.16-0.08,0.31-0.17,0.45-0.28l0.16,0.85c-0.05-0.01-0.1-0.02-0.15-0.03
			C116.82,170.54,116.87,170.2,116.57,170.11z"/>
		<path id="Path_24926" class="st3" d="M114.82,163.84c-0.1-0.14-0.51-0.07-0.64-0.09c-0.02-0.53-0.1-1.06-0.25-1.57
			c-0.13-0.02-0.24-0.15-0.49-0.18c0.07-0.16,0.11-0.32,0.15-0.48c0.32,0.5,0.62,1.01,0.92,1.55c0.3,0.53,0.58,1.09,0.85,1.67
			C115.15,164.46,114.97,164.16,114.82,163.84z"/>
		<path id="Path_24927" class="st3" d="M116.53,192.03c0.05-0.79,0.18-1.57,0.39-2.34c0.22-0.79,0.1-1.64-0.34-2.33
			c-0.59,1.7-1.1,3.95-2.77,3.92c-0.83-0.01-0.79-0.52-0.55-1.19c0.31-0.68,0.5-1.4,0.58-2.14l-0.35,0.31
			c0.18-0.15,0.35-0.31,0.16-0.45c-0.36,0.31-0.68,0.91-1.24,1.04l-0.37-0.28c-0.57,0.35-1.06,0.79-1.46,1.32
			c-0.41,0.5-0.93,0.89-1.53,1.14c2.02-1.23,3.11-3.55,2.76-5.89c-0.32-2.33-1.02-4.6-2.06-6.71c-1.45-2.21-3.58-3.88-6.07-4.78
			c-0.46-0.49-0.79-1.09-0.98-1.73c-0.85-0.94-1.87-1.72-2.99-2.31c-2.07-1.6-2.97-4.1-5.08-6.11c-0.42-0.39,0.2-2.08,1.54-1.33
			c1.15,0.49,2.16,1.24,2.95,2.2c-0.48,0.22-0.61-0.41-1.08-0.37c0.28,0.79,0.72,1.51,1.28,2.13c-0.38-0.42-0.78-0.83-1.18-1.24
			c1.01,1.03,1.92,2.29,3.06,3.35c0.38,0.43-0.68,1.75,0.71,1.73c-0.56-2.03-1.51-3.94-2.79-5.61l0.04-0.02
			c-0.65-0.68-1.18-1.37-1.81-2.05c0.24,0.17,0.51,0.32,0.61,0.57c-0.57-1.25-1.34-2.4-2.26-3.42c1.86,0.84,3.48,2.12,4.72,3.74
			c1.3,1.54,2.4,3.2,3.74,4.56c0.09-1.38-1.74-1.8-1.49-3.17c1.1,1.4,2.03,2.92,2.79,4.53c-0.13-0.08-0.26-0.15-0.4-0.21
			c0.07,0.57,0.29,1.12,0.64,1.57c0.34,0.43,0.64,0.91,0.88,1.41l0.1,0.28c-0.03-0.09-0.06-0.19-0.1-0.28
			c-0.32-0.95-0.69-1.87-1.12-2.77c0.42,0.3,0.72,0.73,0.87,1.22c0.1-0.45,0.08-0.93-0.07-1.37l-0.9-1.55
			c0.56,0.73,1.25,1.36,2.03,1.86c-0.43-1.22-0.98-2.4-1.64-3.51c0.45,0.54,0.92,1.08,1.35,1.63c0.5,1.08,0.99,2.16,1.47,3.26
			l-0.09-0.1l0.15,0.23l0.58,1.27c0.26,0.37,0.6,0.68,1,0.9l0.1,0.18c-0.2-0.05-0.37-0.04-0.34,0.23c0.03,1.16,1.23,1.93,1.05,3.32
			c0.02,0.42,0.17,0.82,0.45,1.14c-0.07,0.16,0.02,0.2,0.15,0.22l0.18,0.26c0.07,0.24,0.19,0.47,0.35,0.67
			c-0.09-0.24-0.21-0.46-0.35-0.67c-0.04-0.09-0.08-0.17-0.12-0.26c0.15,0.02,0.33,0.03,0.38,0.16c-0.38-1.76-0.96-3.46-1.75-5.07
			c0.17,0.04,0.35,0.13,0.46,0.15l-0.55-0.34c-0.28-0.52-0.6-1.03-0.95-1.5c0.18,0.12,0.38,0.2,0.59,0.23
			c-0.73-1.54-1.65-2.98-2.74-4.29c-0.67-1.46-1.43-2.89-2.27-4.26c0.16,0.92,0.47,1.81,0.92,2.63c-1.64-1.78-3.11-3.7-4.38-5.75
			c0.73,0.06,1.47,0.01,2.19-0.14c0.27-0.26-0.15-0.94,0.32-0.73c1.9,0.63,1.94,2.17,4.02,1.45c0.54-0.23,0.83-3.03,1.56-2.79
			c0.73,0.52,1.4,1.11,2,1.76c0.15,0.29,0.32,0.57,0.5,0.84c-0.01,0.06,0.13,0.05,0.29,0.04c0.66,0.73,1.22,1.55,1.66,2.43
			l0.27,0.66c-0.03,0.18-0.11,0.35-0.21,0.5c0.18,0.04,0.35,0.1,0.51,0.19c0.24,0.59,0.5,1.16,0.75,1.72c0.01,0.39,0,0.79,0.03,1.15
			c0.11-0.07,0.24-0.2,0.38-0.21l0.95,2.1c-0.02,0.38-0.13,0.76-0.32,1.09c1.4,0.25,1.55,2.31,2.15,3.51l0.04-0.02
			c0.23,0.63,0.43,1.29,0.62,1.96c-0.08,0.15-0.17,0.3-0.28,0.43c0.24,0.1,0.3,0.27,0.42,0.33c-0.01,0.54-0.08,1.08-0.22,1.61
			c0.12,0.05,0.52,0.11,0.58,0.29c0.05,0.35,0.13,0.7,0.25,1.04c0.06,0.4,0.09,0.82,0.11,1.23c0.04,0.7,0.04,1.41-0.01,2.11
			c-0.03,0.7-0.11,1.39-0.22,2.08c-0.17,0.05-0.34,0.09-0.51,0.11c0.25,0.19,0.1,0.49,0.24,0.67c-0.07-0.04-0.16-0.05-0.24-0.04
			c0.34,0.59-0.11,0.74-0.24,1.28c0.01,0.12,0.2,0.23,0.26,0.36c-0.02,0.06-0.03,0.12-0.05,0.18c-0.84,0.62-0.56,1.22-0.62,1.91
			c-0.27,0.67-0.5,1.33-0.82,1.97C117.48,191.61,116.92,191.73,116.53,192.03z"/>
		<path id="Path_24928" class="st3" d="M117.41,172.39c0.08,0.66,0.11,1.33,0.15,1.98C117.34,173.73,116.88,173.27,117.41,172.39z"
			/>
		<path id="Path_24929" class="st3" d="M109.56,157.12c0.11-0.36,0.13-0.74,0.07-1.11c0.95,1.25,1.92,2.5,2.86,3.84l-0.03,0.03
			C111.56,158.91,110.96,157.01,109.56,157.12z"/>
		<path id="Path_24930" class="st3" d="M117.02,170.65c0.05,0,0.1,0.01,0.15,0.03v0.01C117.12,170.69,117.07,170.67,117.02,170.65z"
			/>
		<path id="Path_24931" class="st3" d="M102.29,159.51l-0.08-0.11c0.29,0.21,0.58,0.43,0.85,0.66
			C102.77,159.93,102.5,159.74,102.29,159.51z"/>
		<path id="Path_24932" class="st3" d="M100.08,156.41l-1.63-1.42c-0.58-0.76-1.02-1.61-1.3-2.51
			C98.17,153.73,99.12,155.07,100.08,156.41z"/>
		<path id="Path_24933" class="st3" d="M107.97,154.53c-0.1-0.34-0.16-0.73-0.24-1.08l0.57,0.8
			C108.17,154.28,108.07,154.44,107.97,154.53z"/>
		<path id="Path_24934" class="st3" d="M104.51,161.5l-0.14-0.16l0.63,0.21C104.88,161.54,104.68,161.5,104.51,161.5z"/>
		<path id="Path_24935" class="st3" d="M106.34,151.37l0.39,0.6c-0.17-0.06-0.34-0.08-0.52-0.09
			C106.29,151.72,106.33,151.55,106.34,151.37z"/>
		<path id="Path_24936" class="st3" d="M103.79,148.78c-0.21-0.23-0.4-0.47-0.58-0.72c0.29,0.22,0.58,0.46,0.86,0.71
			C103.92,148.8,103.79,148.83,103.79,148.78z"/>
	</g>
	<g id="Group_9782" transform="translate(285.381 235.056)">
		<path id="Path_24937" class="st16" d="M92.61,151.94c-0.22-0.75-0.35-1.53-0.39-2.31c0.05,0.29,0.1,0.58,0.15,0.86
			c-0.06-0.45,0.07-0.9,0.34-1.25c0.38,0.12,0.09,0.42,0.6,0.47c-0.1,1.13-0.48,2.23-1.09,3.18
			C91.04,152.52,92.66,152.23,92.61,151.94z"/>
		<path id="Path_24938" class="st16" d="M93.25,148.06c0.02,0.1,0.03,0.21,0.03,0.31C93.23,148.26,93.19,148.15,93.25,148.06z"/>
		<path id="Path_24939" class="st16" d="M97.58,158.83c0.07,0.11,0.12,0.23,0.15,0.36C97.64,159.09,97.58,158.97,97.58,158.83z"/>
		<path id="Path_24940" class="st16" d="M95.43,153.26c0.08,0.05,0.16,0.12,0.22,0.19c-0.11,0.49-0.26,0.99-0.42,1.49
			C95.35,154.39,94.85,153.82,95.43,153.26z"/>
		<path id="Path_24941" class="st16" d="M96.49,152.71c-0.05-0.57,0.19-1.13,0.63-1.49C96.78,151.65,96.56,152.16,96.49,152.71z"/>
		<path id="Path_24942" class="st16" d="M103.64,162.4c0.08-0.01,0.16,0,0.24,0.02c0.04,0.02,0.08,0.03,0.12,0.04
			c-0.13,0.2-0.26,0.41-0.39,0.61c-0.05-0.05-0.24-0.09-0.25-0.14C103.51,162.7,103.96,162.64,103.64,162.4z"/>
		<path id="Path_24943" class="st16" d="M97.54,158.7l-0.05-0.01c-0.03-0.04-0.05-0.08-0.08-0.12l0.03-0.02
			C97.48,158.59,97.52,158.64,97.54,158.7z"/>
		<path id="Path_24944" class="st16" d="M103.69,162.15c0.18-0.01,0.37-0.02,0.52-0.04c-0.07,0.12-0.14,0.23-0.21,0.34
			c-0.04-0.01-0.08-0.02-0.13-0.03C103.75,162.35,103.94,162.22,103.69,162.15z"/>
		<path id="Path_24945" class="st16" d="M105.1,159.53c-0.01-0.07-0.39-0.13-0.49-0.16c0.24-0.17,0.46-0.38,0.64-0.61
			c-0.1-0.03-0.11-0.1-0.3-0.17c0.13-0.04,0.27-0.09,0.39-0.14c-0.04,0.51-0.11,1.01-0.23,1.5
			C105.08,159.82,105.07,159.67,105.1,159.53z"/>
		<path id="Path_24946" class="st16" d="M100.07,171.37c-0.29-0.64,0.69-1.41-0.34-2.02c-0.61,0.76-0.81,1.78-2.45,1.93
			s-0.17-1.01-0.27-1.59l-0.34,0.16c0.17-0.08,0.34-0.16,0.15-0.23c-0.37,0.25-0.77,0.44-1.2,0.57l-0.39-0.13
			c-1.23,0.42-1.47,1.16-2.7,1.58c3.92-2,2.18-4.61,1.79-6.92c-0.59-1.28-2.08-2.45-3.75-3.53c-0.22-0.21-0.12-0.72,0-1.09
			c-0.28-0.71-0.7-1.36-1.25-1.9c-0.78-1.35,0.1-2.69-0.14-4.14c-0.05-0.29,1.54-0.73,2.04-0.02c0.49,0.46,0.78,1.1,0.82,1.77
			c-0.51-0.06-0.22-0.35-0.6-0.47c-0.28,0.35-0.4,0.81-0.34,1.25c-0.05-0.29-0.1-0.58-0.15-0.86c0.04,0.78,0.17,1.56,0.39,2.31
			c0.05,0.29-1.57,0.58-0.39,0.96c0.62-0.96,0.99-2.05,1.09-3.18l0.04,0.01c-0.04-0.45-0.07-0.9-0.06-1.36
			c0.07,0.14,0.17,0.28,0.09,0.41c0.36-0.6,0.56-1.29,0.59-1.99c1.79,1.81,0.66,3.9,1.34,5.76c0.83-0.55-0.39-1.22,0.64-1.7
			c0.02,0.88-0.08,1.76-0.29,2.61c-0.07-0.07-0.14-0.13-0.23-0.19c-0.58,0.56-0.08,1.13-0.2,1.68c-0.02,0.05-0.03,0.1-0.05,0.15
			c0.02-0.05,0.04-0.1,0.05-0.15c0.16-0.51,0.31-1,0.42-1.49c0.18,0.2,0.23,0.49,0.12,0.74c0.27-0.13,0.49-0.35,0.64-0.61
			c0.02-0.29,0.04-0.58,0.08-0.87c0.09,0.49,0.34,0.94,0.73,1.27c0.24-0.59,0.42-1.21,0.52-1.85c0.07,0.33,0.15,0.66,0.22,1
			c-0.16,0.56-0.29,1.13-0.39,1.7l-0.03-0.07c0.01,0.04,0.01,0.09,0.02,0.13c-0.03,0.22-0.06,0.45-0.07,0.67
			c0.03,0.2,0.25,0.39,0.51,0.58c0.01,0.03,0.01,0.07,0.01,0.1c-0.16-0.06-0.32-0.09-0.4,0.04c-0.47,0.53,0.36,1.07-0.27,1.68
			c-0.17,0.16-0.07,0.37,0.07,0.59c-0.12,0.07-0.04,0.1,0.08,0.12c0.03,0.05,0.06,0.1,0.09,0.15c0.01,0.13,0.06,0.26,0.15,0.36
			c-0.03-0.13-0.08-0.25-0.15-0.36c-0.01-0.05-0.02-0.09-0.04-0.14c0.14,0.03,0.3,0.06,0.31,0.12c0.15-0.85,0.2-1.71,0.16-2.57
			c0.13,0.05,0.27,0.12,0.36,0.15c-0.13-0.08-0.25-0.16-0.37-0.25c-0.04-0.29-0.11-0.57-0.21-0.84c0.13,0.1,0.27,0.17,0.42,0.22
			c0.03-0.81-0.06-1.62-0.26-2.4c0.21-0.76,0.44-1.52,0.59-2.26c-0.39,0.33-0.67,0.78-0.8,1.27c-0.32-1.12-0.3-2.31,0.07-3.42
			c0.57,0.25,1.16,0.44,1.76,0.57c0.37-0.02,0.49-0.39,0.71-0.18c1.05,0.75,0.15,1.33,2.23,1.6c0.56,0.05,2.53-0.87,2.94-0.6
			c0.24,0.33,0.41,0.71,0.52,1.1c-0.05,0.13-0.08,0.27-0.08,0.41c-0.04,0.02,0.08,0.05,0.21,0.08c0.12,0.4,0.12,0.82,0.01,1.22
			c-0.05,0.1-0.09,0.2-0.13,0.29c-0.14,0.06-0.29,0.11-0.45,0.14c0.12,0.04,0.23,0.1,0.33,0.17c-0.09,0.25-0.17,0.5-0.22,0.76
			c-0.17,0.14-0.38,0.29-0.52,0.43c0.14-0.02,0.29-0.02,0.44-0.01c-0.05,0.32-0.09,0.63-0.11,0.94c-0.23,0.16-0.48,0.29-0.75,0.36
			c1.16,0.31,0.46,1.1,0.65,1.64h0.04c-0.01,0.27-0.02,0.55-0.04,0.83c-0.13,0.05-0.26,0.1-0.4,0.14c0.2,0.06,0.21,0.14,0.31,0.17
			c-0.18,0.24-0.4,0.44-0.64,0.61c0.1,0.03,0.48,0.09,0.49,0.16c-0.03,0.14-0.03,0.28,0.01,0.42c-0.04,0.16-0.08,0.33-0.13,0.49
			c-0.2,0.58-0.46,1.13-0.77,1.66c-0.15,0.02-0.33,0.03-0.52,0.04c0.24,0.08,0.05,0.2,0.19,0.27c-0.08-0.01-0.16-0.02-0.24-0.02
			c0.32,0.24-0.14,0.3-0.28,0.52c0.01,0.05,0.2,0.09,0.25,0.14l-0.05,0.08c-0.82,0.27-0.54,0.51-0.56,0.8
			c-0.21,0.28-0.42,0.57-0.62,0.85C100.95,171.11,100.41,171.21,100.07,171.37z"/>
		<path id="Path_24947" class="st16" d="M103.56,163.14c-0.18,0.27-0.37,0.53-0.56,0.8C103.02,163.66,102.74,163.41,103.56,163.14z"
			/>
		<path id="Path_24948" class="st16" d="M104.69,155.99c0.27-0.08,0.53-0.2,0.75-0.36c-0.05,0.67-0.05,1.33-0.06,2h-0.04
			C105.16,157.1,105.85,156.3,104.69,155.99z"/>
		<path id="Path_24949" class="st16" d="M103.88,162.42c0.04,0.01,0.09,0.02,0.13,0.03l0,0
			C103.96,162.45,103.92,162.44,103.88,162.42z"/>
		<path id="Path_24950" class="st16" d="M97.56,154.89l0.01-0.07c0.09,0.16,0.16,0.32,0.22,0.48
			C97.67,155.2,97.59,155.06,97.56,154.89z"/>
		<path id="Path_24951" class="st16" d="M97.96,153.13c-0.07-0.33-0.15-0.66-0.22-0.99c0.14-0.49,0.42-0.94,0.8-1.27
			C98.4,151.61,98.17,152.37,97.96,153.13z"/>
		<path id="Path_24952" class="st16" d="M105.12,154.7c0.15-0.14,0.35-0.28,0.52-0.43c-0.03,0.14-0.06,0.28-0.09,0.42
			C105.41,154.68,105.26,154.68,105.12,154.7z"/>
		<path id="Path_24953" class="st16" d="M98.02,156.25c0-0.03-0.01-0.07-0.01-0.1c0.12,0.08,0.24,0.16,0.37,0.25
			C98.28,156.37,98.15,156.3,98.02,156.25z"/>
		<path id="Path_24954" class="st16" d="M105.99,153.2c-0.04,0.1-0.08,0.21-0.12,0.31c-0.1-0.07-0.21-0.13-0.33-0.17
			C105.69,153.31,105.84,153.26,105.99,153.2z"/>
		<path id="Path_24955" class="st16" d="M105.9,151.61c0-0.14,0.03-0.28,0.08-0.41c0.05,0.16,0.09,0.33,0.13,0.49
			C105.98,151.65,105.86,151.63,105.9,151.61z"/>
	</g>
	<path id="Path_24956" class="st13" d="M274.06,272.05c0,0-22.12,66.04,39.26,94.09l1.25,0.83l-0.32-15.53
		c0,0-28.92-40.36-29.03-41.4S274.06,272.05,274.06,272.05z"/>
	<path id="Path_24957" class="st16" d="M276.97,239.74c-0.45-0.06-0.66-0.17-0.48-0.35C276.62,239.27,276.79,239.4,276.97,239.74z"
		/>
	<path id="Path_24958" class="st13" d="M269.44,241.44c-1.17,1.17-3.93,3.76-6.28,3.88c-0.93,0.07-1.83-0.35-2.38-1.1
		c-2.16-2.75-6.01-4.86-9.7-6.17c-1.18-0.42-1.32-1.06-0.94-1.74c0.78-1.03,1.77-1.88,2.91-2.49c5.57,0.19,9.33,1.1,10.5,2.17
		c0.05,0.05,0.1,0.11,0.13,0.17c1.55,0.73,3.18,1.28,4.86,1.65C269.52,239.3,270.17,240.72,269.44,241.44z"/>
	<g id="Group_9783" transform="translate(172.502 82.633)">
		<path id="Path_24959" class="st11" d="M182.11,256.08c0,0-12.05,16.42-16.64,17.12s-47.14,11.08-61.79-38.85
			c-6.13-20.88-5.08-38.62,0.61-55.72c1.3-4.11,1.87-8.42,1.68-12.73c-0.05-2.51-0.39-5-1.01-7.43c-0.12-0.47-0.29-0.92-0.5-1.35
			c0.83,0.08,1.66,0.09,2.49,0.04c2.46-0.09,5.52-0.38,5.52-0.38c1.95,1.83,3.6,3.95,4.88,6.3c2.83,4.99,5.45,12.9,3.26,23.57
			C112.06,228.39,151.94,257.76,182.11,256.08z"/>
		<path id="Path_24960" class="st17" d="M105.97,165.9c2.45-0.93,7.36-2.77,11.38-2.83c-1.28-2.35-2.92-4.47-4.88-6.3
			c0,0-3.06,0.3-5.52,0.38l-2,1.32L105.97,165.9z"/>
		<path id="Path_24961" class="st11" d="M96.42,149.69c0,0,7.02,4.13,10.53,0.98s5.66-3.43,7.2-0.98s3.7,11.64-5.85,11.2
			s-12.01,5.11-16.78-1.05S88.93,147.54,96.42,149.69z"/>
	</g>
	<g id="Group_9784" transform="translate(130.265 242.661)" class="st18">
		<path id="Path_24962" d="M142.99,151.06l0.46-0.04C143.45,151.02,143.29,151.03,142.99,151.06z"/>
		<path id="Path_24963" d="M142.99,151.06c-12.39,0.99-39.47-0.76-39.47-0.76c-7.96-0.46-13.55-1.17-14.53-2.24
			c0,0.03,0,0.06,0.01,0.09c0.06,1.24,0.77,15.48,1.77,34.14c0.44-0.02,0.87-0.07,1.3-0.15c2.73-0.58,5.11-2.27,6.56-4.66
			c1.08-1.66,1.94-3.45,2.55-5.33C110.42,154.57,139.02,151.41,142.99,151.06z"/>
	</g>
	<g id="Group_9786" transform="translate(172.436)">
		<g id="Group_9785" transform="translate(0 42.617)">
			<path id="Path_24964" class="st19" d="M105.24,160.44c0,0-20.27,11.24-14.26-6.81C95.15,141.15,119.07,152.4,105.24,160.44z"/>
			<path id="Path_24965" class="st19" d="M102.3,156.13c0,0,11.34,6.73,10.25,13.48c0,0,2.5-20.16-8.78-20.66
				s-15.65,0.58-14.64,21.9C89.13,170.85,92.4,153.89,102.3,156.13z"/>
		</g>
		<path id="Path_24966" class="st19" d="M100.78,193.16c-1.66,2.26-24.21-33.13,4.46-42.76c25.97-8.73,47.81,8.35,54.55,28.02
			c5.88,17.16,8.62,38.49-23.73,80.64c-13.63,26.48-8.41,34.41-8.41,34.41s-21.86-40.15-5.22-65.9S112.94,176.59,100.78,193.16z"/>
	</g>
</g>
</svg>
