<svg xmlns="http://www.w3.org/2000/svg" width="18.843" height="21.052" viewBox="0 0 18.843 21.052"><defs><style>.a{fill:#fff;}.b{fill:#727272;}.c{fill:#4a7db1;}</style></defs><g transform="translate(-123.709 -353.047)"><rect class="a" width="18.323" height="20.532" transform="translate(123.709 353.047)"/><g transform="translate(123.709 353.047)"><path class="b" d="M142.551,374.1H123.709V353.047h18.842Zm-17.8-1.04h16.764V354.086H124.748Z" transform="translate(-123.709 -353.047)"/></g><g transform="translate(124.228 357.595)"><rect class="b" width="17.803" height="1.04"/></g><g transform="translate(132.61 353.567)"><rect class="b" width="1.04" height="4.548"/></g><g transform="translate(124.228 368.576)"><rect class="b" width="17.803" height="1.04"/></g><g transform="translate(132.61 369.096)"><rect class="b" width="1.04" height="4.483"/></g><g transform="translate(126.86 361.022)"><g transform="translate(0.676 2.03)"><rect class="c" width="11.188" height="1.04"/></g><path class="c" d="M130.439,368.24l.426-.457-2.253-2.093,2.253-2.094-.426-.457L127.7,365.69Z" transform="translate(-127.696 -363.139)"/><g transform="translate(9.371)"><path class="c" d="M139.98,368.24l-.426-.457,2.253-2.093-2.253-2.094.426-.457,2.743,2.551Z" transform="translate(-139.554 -363.139)"/></g></g></g></svg>