<svg xmlns="http://www.w3.org/2000/svg" width="1366" height="772.5" viewBox="0 0 1366 772.5"><defs><style>.a,.ad{fill:#000;}.b{fill:#ccc1d8;}.c{fill:#e6def0;}.d,.e{fill:#caa267;}.d{fill-rule:evenodd;}.f{fill:#c2934e;}.g{fill:#8c7cc9;}.h{fill:#f1c759;}.i{opacity:0.15;}.j{fill:#5e5586;}.k{fill:#5e5587;}.l{opacity:0.3;}.m{opacity:0.5;}.n{fill:#f0c659;}.o{fill:#979797;}.p{fill:#cacaca;}.q{fill:#7f7f7f;}.r{fill:none;stroke:#8c7cc9;stroke-width:0.861px;}.ad,.r{stroke-miterlimit:10;}.s{fill:#b0b0b0;}.t{fill:#b35328;}.u{fill:#e9e9e9;}.v{fill:#8e94a0;}.w{fill:#4b3d64;}.x{fill:#cecfd4;}.y{fill:#bec9f2;}.z{fill:#8a7cc7;}.aa,.ab{font-size:4.505px;}.aa,.ab,.ac{font-family:Microsoft-Yi-Baiti, Microsoft Yi Baiti;font-style:italic;}.ab,.ac{letter-spacing:-0.07em;}.ac{font-size:3.632px;}.ad{stroke:#5e5587;stroke-width:11px;}</style></defs><rect class="a" width="1366" height="771"/><path class="b" d="M1366,11.037V769.5l-242.228-67.586-32.991-6.263,1.636-558.092L1122.535,112Z"/><path class="b" d="M316.3,126.971,300.245,683.342.2,757.74V7.688l298.845,93.571Z"/><path class="c" d="M697.978,90.571H273.37V707.955h849.165V90.571Z"/><path class="a" d="M0,62.28c121.657,30.38,335.7,73.888,615,80.372,352.972,8.194,622.429-47.1,751-78.7V1.5H0Z"/><path class="a" d="M0,724.184c121.657-29.39,335.7-71.481,615-77.753C967.968,638.5,1237.425,692,1366,722.564v47.19L.2,772.5Z"/><path class="d" d="M227.541,532.25s-6.113,2.682-8.623,7.271c-1.492,2.728-2.194,2.4-2.59,2.811-1.311,1.375,2.3.891,3.964-1.282,1.355-1.765,5.166-1.645,6.323-2.582s3.782-4.045,3.637-5.11S227.541,532.25,227.541,532.25Z"/><path class="d" d="M238.154,521.417c-.623.785-9.685,8.172-12.008,13.115s-5.306,12.512-7.012,14.88c-2.007,2.786-1.057,4.017,1.6.933a53.693,53.693,0,0,0,5.254-7.309c.206-.5-1.448,2.665-3.509,6.015-2.192,3.56-4.788,7.343-4.172,7.783,1.2.852,8.2-9.155,9.118-11.032a52.3,52.3,0,0,1-2.488,4.924c-1.254,2.176-3.042,4.542-2.749,5.24.461,1.1,4.892-3.94,7.322-8.55.188-.028-.134,1.629-3.388,6.911-.327.531-.605,2.083.944.519,3.261-3.294,4.907-4.47,7.161-10.138,2.2-5.528,3.282-12.115,6.086-15.648Z"/><path class="e" d="M379.263,595.932S368.566,706.3,373.115,708.2c8.159,3.462,40.116,14.784,4.884,12.3-18.1,1.091-16.77-2.953-17.053-6.379-.231-2.8.3-101.578-.443-109.259l-.268-2.76Z"/><path class="e" d="M312.931,595.932s4.638,110.373.089,112.272c-8.159,3.462-40.116,14.784-4.884,12.3,18.1,1.091,16.77-2.953,17.053-6.379.231-2.8,2.284-24.047,3.027-31.728.167-1.721,3.714-88.044,3.714-88.044Z"/><path class="f" d="M348.407,311.114s-.942,10.517,5.545,16.333-14.95,0-14.95,0,3.989-10.073,3.094-16.333S348.407,311.114,348.407,311.114Z"/><ellipse class="e" cx="11.342" cy="15.474" rx="11.342" ry="15.474" transform="translate(333.644 284.244)"/><path class="g" d="M418.956,412.3c-.241,3.8-4.169,21.011-9.08,36.31-4.023,12.56-8.717,23.837-12.577,25.4-8.563,3.446-73.215,8.175-86.507,1.835-.31-.233-.646-.483-.965-.758-4.987-4.058-10.4-12.069-13.266-19.573,0-.008-7.641-21.544-9.2-25.929-.018-.043-.026-.078-.043-.112-.052-.173-.112-.336-.173-.491-.017-.061-.043-.112-.06-.173-8.046,27.472-29.453,87.808-46.768,106.924-1.818,2.007-10.183-9.252-10.183-9.252s-13.981-72.2,22.493-148.5c17.169-35.914,47.811-52.3,67.374-56.649,8.468-1.887,14.86-1.517,17.2.5a12.678,12.678,0,0,0,7.916,3.076,17.181,17.181,0,0,0,4.446-.4,22.147,22.147,0,0,0,4.712-1.6c.723-.336,1.145-.577,1.145-.577a45.992,45.992,0,0,1,11.975.715C411.651,331.707,419.352,405.922,418.956,412.3Z"/><path class="h" d="M307.829,473.3a6.991,6.991,0,0,0,3.968,1.831c9.324.183,49.592.873,71.437-.383,7.707-.444,13.12-1.128,14.07-2.167,0,0,0,.031-.006.088-.057,1.2-.748,14.989-1.718,33.059-1.914,35.67,1.773,86.757,6.081,102.264.929,3.347-49.1-1.723-49.1-1.723-.14-36.811,3.353-101.435,1.1-104.331-2.744-3.524-7.194,53.319-12.3,100.885-19.813,5.169-51.188,2.03-50.826,0C294.84,578.7,307.829,473.3,307.829,473.3Z"/><path class="i" d="M287.087,428.81c.018.061.043.112.061.173.06.155.12.318.172.491.017.034.026.069.043.112,1.559,4.385,9.2,25.921,9.2,25.929,2.869,7.5,8.279,15.515,13.267,19.573-3.386-12.259-13.939-47.794-13.534-62.111C294.281,426.777,287.087,428.8,287.087,428.81Z"/><path class="i" d="M390.59,377.472s-21.426,63.958,38.018,91.121l1.208.8-.307-15.043s-28.01-39.087-28.116-40.093S390.59,377.472,390.59,377.472Z"/><path class="i" d="M345.862,327.452c.034,1.025-.508,1.7-2.154,1.473-5.134-.7-10.932-.551-15.144,1.378a3.576,3.576,0,0,1-3.463-.146c-2.7-1.577-4.368-6.28-5.031-8.365a1.424,1.424,0,0,1-.069-.456c8.468-1.887,14.86-1.517,17.2.5a12.678,12.678,0,0,0,7.916,3.076A6.971,6.971,0,0,1,345.862,327.452Z"/><path class="j" d="M326.714,707.06c.211-1.594-11.128-1.445-12.411-.15s-23.88,5.957-23.432,12.668,31.764,1.434,34,1.276S326.3,710.191,326.714,707.06Z"/><path class="k" d="M360.311,704.475c-.211-1.593,13.361.429,14.645,1.723s21.041,6.669,20.593,13.38-31.764,1.434-34,1.276S360.725,707.607,360.311,704.475Z"/><g class="l"><path d="M345.006,475.488l-.449-.038S344.716,475.462,345.006,475.488Z"/><path class="m" d="M345.006,475.488c12,.957,38.228-.739,38.228-.739,7.707-.444,13.12-1.128,14.07-2.167,0,0,0,.031-.006.088-.057,1.2-.748,14.989-1.718,33.059a8.938,8.938,0,0,1-1.261-.146,9.818,9.818,0,0,1-6.35-4.513,21.777,21.777,0,0,1-2.47-5.157C376.552,478.889,348.85,475.833,345.006,475.488Z"/></g><path class="n" d="M340.724,290.836s19.634,10.886,13.807-6.592C350.5,272.151,327.333,283.044,340.724,290.836Z"/><path class="n" d="M343.57,286.661s-10.986,6.518-9.926,13.057c0,0-2.422-19.523,8.5-20.013s15.152.563,14.182,21.207C356.327,300.912,353.153,284.491,343.57,286.661Z"/><path class="n" d="M341.669,279.832s.551-6.083,6.582-5.222,8.614,4.308,9.476,7.754,1.722,6.03,2.584,6.03c0,0-2.584,2.584-3.446,1.723,0,0,2.236,6.2-.6,11.281,0,0-1.118-7.836-5.425-8.7S341.669,279.832,341.669,279.832Z"/><path class="n" d="M342.22,279.779s-4.307-2.584-8.614,3.446l-2.585,5.169s.862.861,2.585,0c0,0-.785,6.069.038,9.495l2.546-10.357Z"/><path class="o" d="M316.67,396.558l10.923,69.975a7.474,7.474,0,0,0,8.528,6.229l47.759-7.46a2.507,2.507,0,0,0,.336-.069,7.447,7.447,0,0,0,5.884-8.46L379.177,386.8a7.462,7.462,0,0,0-8.529-6.219L325.1,387.685l-2.214.344A7.462,7.462,0,0,0,316.67,396.558Z"/><path class="p" d="M319.22,396.144l10.923,69.976a7.461,7.461,0,0,0,8.528,6.22l45.545-7.107a7.447,7.447,0,0,0,5.884-8.46L379.177,386.8a7.462,7.462,0,0,0-8.529-6.219L325.1,387.685A7.445,7.445,0,0,0,319.22,396.144Z"/><circle class="q" cx="5.765" cy="5.765" r="5.765" transform="translate(349.382 421.281)"/><path class="i" d="M399.68,445.918s1.119-25.722-67.8-17.108,51.687,16.368,51.687,16.368Z"/><path class="d" d="M338.3,438.447c-.816-.274-9.435-5.435-14.108-5.866s-11.661-.627-14.073-1.313c-2.838-.807-3.555.321-.285,1.569a46.06,46.06,0,0,0,7.442,2.107c.468.019-2.577-.39-5.886-1.076-3.518-.729-7.334-1.72-7.508-1.094-.339,1.215,9.794,3.947,11.58,4.14a44.943,44.943,0,0,1-4.707-.57c-2.124-.377-4.558-1.129-5.037-.688-.753.694,4.614,2.8,9.049,3.415.077.143-1.355.368-6.575-.716-.524-.109-1.86.12-.142.914,3.615,1.672,5.046,2.657,10.285,2.821,5.109.159,10.748-.892,14.422.34Z"/><path class="d" d="M326.444,433.041s-3.956-4.155-8.4-4.84c-2.64-.407-2.578-1.072-3.028-1.27-1.494-.658-.048,2.115,2.2,2.827,1.822.578,2.84,3.693,3.936,4.354s4.374,1.872,5.192,1.443S326.444,433.041,326.444,433.041Z"/><path class="g" d="M412,334.051c16.227,14.518,27.454,28,34.458,72.362,3.554,22.505,2.628,45.011,1.7,56.879a14.022,14.022,0,0,1-9.637,12.193c-50.84,16.769-106.683-31.472-106.683-31.472-2.911-1.084,2.95-11.465,2.95-11.465,28.106-.292,49.643.57,72.04,9.184-.113-.053-22.018-41.2-24.982-52.548-7.763-29.767-33.317-55.527-26.7-67.194C357.427,317.955,395.63,319.406,412,334.051Z"/><line class="r" x1="12.705" y2="132.855" transform="translate(303.873 472.431)"/><line class="r" x1="12.609" y2="130.541" transform="translate(316.579 475.088)"/><line class="r" x1="10.486" y2="129.629" transform="translate(331.028 475.088)"/><line class="r" x2="0.27" y2="26.851" transform="translate(353.385 475.088)"/><line class="r" x1="2.433" y2="132.255" transform="translate(364.129 475.088)"/><line class="r" x1="0.678" y2="133.365" transform="translate(377.223 475.005)"/><line class="r" x2="2.565" y2="134.131" transform="translate(389.045 475.005)"/><path class="r" d="M306.111,487.122s71.547,3.377,90.451,0"/><path class="r" d="M353.655,501.939c-25.034,5.67-48.99-3.294-48.99-3.294"/><path class="r" d="M353.385,500.245s22.592,6.348,42.436.987"/><path class="r" d="M303.434,508.382s18.041,9.445,47.343,4.63"/><path class="r" d="M301.957,519.977s28.074,8.571,47.433,4.16"/><path class="r" d="M300.476,531.5s14.3,11.209,47.448,6.181"/><path class="r" d="M298.753,544.747a69.555,69.555,0,0,0,48.085,3.622"/><path class="r" d="M297.15,556.885s15.441,10.961,48.391,4.594"/><path class="r" d="M295.474,569.329s21.312,11.14,49.083,2.14"/><path class="r" d="M294.133,579.04s12.574,12.093,49.36,3.128"/><path class="r" d="M292.553,590.063s20.331,10.711,49.854,2.79"/><path class="r" d="M354.412,512.371s9.438,7.794,41.409,2.008"/><path class="r" d="M354.66,524.1s13.244,6.176,40.4,1.3"/><path class="r" d="M354.014,537.118s20.45,6.16,41.05,0"/><path class="r" d="M353.719,547.914s19.88,8.837,41.741,0"/><path class="r" d="M353.385,559.766s18.926,6.642,42.624,0"/><path class="r" d="M353.079,571.15s15.954,7.157,43.677,0"/><path class="r" d="M353.079,581.221s18.942,9.761,44.64,1.037"/><path class="r" d="M352.624,593.811a87.575,87.575,0,0,0,46.5.538"/><path class="s" d="M848,579.5H504l50-60H808Z"/><rect class="s" width="16" height="138" transform="translate(516 579.5)"/><rect class="s" width="11" height="163" transform="translate(553 519.5)"/><rect class="s" width="11" height="163" transform="translate(796 519.5)"/><rect class="s" width="16" height="138" transform="translate(821 579.5)"/><path class="t" d="M627.825,493.749h0a.439.439,0,0,1-.259-.561l.356-.967.821.3-.356.967A.439.439,0,0,1,627.825,493.749Z"/><path class="t" d="M632.4,495.434h0a.439.439,0,0,1-.259-.562l.356-.966c.024-.065.818.311.818.311l-.353.958A.439.439,0,0,1,632.4,495.434Z"/><path class="u" d="M627.737,493.56h0a.439.439,0,0,1-.259-.562l.389-1.058a.439.439,0,0,1,.562-.259h0a.439.439,0,0,1,.259.562L628.3,493.3A.44.44,0,0,1,627.737,493.56Z"/><path class="u" d="M632.3,495.241h0a.437.437,0,0,1-.259-.561l.389-1.058a.439.439,0,0,1,.562-.26h0a.44.44,0,0,1,.259.562l-.39,1.058A.438.438,0,0,1,632.3,495.241Z"/><rect class="v" width="2.868" height="1.859" transform="translate(626.636 503.657) rotate(20.217)"/><rect class="v" width="2.868" height="1.859" transform="translate(627.862 500.581) rotate(20.217)"/><path class="w" d="M758.628,561.691H612.94a3.238,3.238,0,0,1-3.5-3.192v-2.184l15.947-29.467a5.075,5.075,0,0,1,4.546-2.818H741.422c2.08,0,6.668,4.1,7.6,5.958l13.156,26.82v.963C762.208,560.564,760.4,561.691,758.628,561.691Z"/><path class="x" d="M758.641,558.606H612.953c-1.618,0-4.281-1.419-3.281-3.163l15.729-31.68a5.075,5.075,0,0,1,4.546-2.818H741.435a5.492,5.492,0,0,1,4.912,3.037l15.569,31.154C763.008,557.122,760.416,558.606,758.641,558.606Z"/><rect class="x" width="119.308" height="75.39" rx="4.362" transform="translate(625.377 445.5)"/><rect class="a" width="110.104" height="65.326" transform="translate(629.958 449.612)"/><path class="w" d="M706.914,557.235H663.986a.774.774,0,0,1-.764-.9l1.81-11.308a1.257,1.257,0,0,1,1.242-1.058h38.719a1.1,1.1,0,0,1,1.093.945l1.66,11.371A.838.838,0,0,1,706.914,557.235Z"/><path class="g" d="M743.512,541.64H626.874c-1.294,0-2.281-.5-2.077-1.046l4.919-13.2c.265-.712,1.7-1.235,3.373-1.235h105.2c1.49,0,2.755.469,2.971,1.1l4.508,13.275C745.947,541.121,744.886,541.64,743.512,541.64Z"/><rect class="x" width="121.634" height="0.614" transform="translate(624.463 528.432)"/><rect class="x" width="121.634" height="0.614" transform="translate(624.463 531.504)"/><rect class="x" width="121.634" height="0.614" transform="translate(624.463 535.19)"/><rect class="x" width="121.634" height="0.614" transform="translate(624.463 538.568)"/><rect class="x" width="0.921" height="20.272" transform="translate(639.194 523.538) rotate(17.439)"/><rect class="x" width="0.921" height="20.272" transform="translate(648.102 523.538) rotate(17.439)"/><rect class="x" width="0.921" height="20.272" transform="translate(655.166 523.538) rotate(17.439)"/><rect class="x" width="0.921" height="20.272" transform="translate(662.231 523.538) rotate(17.439)"/><rect class="x" width="0.921" height="20.272" transform="translate(669.602 523.538) rotate(17.439)"/><rect class="x" width="0.921" height="20.272" transform="translate(677.083 523.308) rotate(10.978)"/><rect class="x" width="0.921" height="20.272" transform="translate(683.437 523.211)"/><rect class="x" width="0.921" height="20.272" transform="translate(731.102 523.815) rotate(-17.439)"/><rect class="x" width="0.921" height="20.272" transform="translate(722.501 523.815) rotate(-17.439)"/><rect class="x" width="0.921" height="20.272" transform="translate(713.901 523.815) rotate(-17.439)"/><rect class="x" width="0.921" height="20.272" transform="translate(705.3 523.815) rotate(-17.439)"/><rect class="x" width="0.921" height="20.272" transform="translate(696.7 523.815) rotate(-17.439)"/><rect class="x" width="0.921" height="20.272" transform="translate(688.1 523.815) rotate(-17.439)"/><rect class="a" width="89.049" height="52.378" transform="translate(643.903 457.558)"/><rect class="y" width="94.94" height="4.72" transform="translate(638.012 452.838)"/><rect class="y" width="5.891" height="57.098" transform="translate(638.012 452.838)"/><rect class="z" width="94.94" height="0.295" transform="translate(638.012 457.411)"/><rect class="z" width="94.94" height="0.295" transform="translate(638.012 462.648)"/><rect class="z" width="94.94" height="0.295" transform="translate(638.012 478.362)"/><rect class="z" width="94.94" height="0.295" transform="translate(638.012 494.075)"/><rect class="z" width="94.94" height="0.295" transform="translate(638.012 499.313)"/><text class="aa" transform="translate(639.569 461.393)"><tspan x="0" y="0">1</tspan></text><text class="aa" transform="translate(639.569 466.515)"><tspan x="0" y="0">2</tspan></text><text class="aa" transform="translate(639.569 471.637)"><tspan x="0" y="0">3</tspan></text><text class="aa" transform="translate(639.569 477.072)"><tspan x="0" y="0">4</tspan></text><text class="aa" transform="translate(639.569 482.195)"><tspan x="0" y="0">5</tspan></text><text class="aa" transform="translate(639.569 487.317)"><tspan x="0" y="0">6</tspan></text><text class="aa" transform="translate(639.569 492.439)"><tspan x="0" y="0">7</tspan></text><text class="aa" transform="translate(639.569 497.874)"><tspan x="0" y="0">8</tspan></text><text class="aa" transform="translate(639.569 502.997)"><tspan x="0" y="0">9</tspan></text><text class="ab" transform="translate(638.474 508.275)"><tspan x="0" y="0">10</tspan></text><text class="ac" transform="translate(652.909 455.987)"><tspan x="0" y="0">A</tspan></text><text class="ac" transform="translate(676.331 455.987)"><tspan x="0" y="0">B</tspan></text><text class="ac" transform="translate(698.227 455.987)"><tspan x="0" y="0">C</tspan></text><text class="ac" transform="translate(721.571 455.987)"><tspan x="0" y="0">D</tspan></text><rect class="n" width="22.115" height="5.238" transform="translate(666.313 468.033)"/><rect class="n" width="22.115" height="5.238" transform="translate(688.428 483.747)"/><rect class="n" width="22.115" height="5.238" transform="translate(644.05 504.698)"/><rect class="z" width="94.94" height="0.295" transform="translate(638.012 467.886)"/><rect class="z" width="94.94" height="0.295" transform="translate(638.012 473.124)"/><path class="z" d="M733.1,510.083H637.865V452.691H733.1Zm-94.94-.294H732.8v-56.8H638.16Z"/><rect class="z" width="0.295" height="57.098" transform="translate(643.756 452.838)"/><rect class="z" width="94.94" height="0.295" transform="translate(638.012 504.551)"/><rect class="z" width="0.295" height="57.098" transform="translate(666.018 452.838)"/><rect class="z" width="0.295" height="57.098" transform="translate(710.543 452.838)"/><rect class="z" width="94.94" height="0.295" transform="translate(638.012 483.6)"/><rect class="z" width="94.94" height="0.295" transform="translate(638.012 488.837)"/><rect class="z" width="0.295" height="57.098" transform="translate(688.281 452.838)"/><path class="ad" d="M1170.1,306.681v207l51,8.1,16,2.53,59,9.37v-247l-59,9.37-16,2.53Z"/><path class="k" d="M1221.1,298.581v223.2l16,2.53V296.051Z"/><path class="k" d="M1170.1,369.5v18.12l51-5.9,16-1.85,59-6.82v-18.12l-59,6.82-16,1.85Z"/></svg>