<svg xmlns="http://www.w3.org/2000/svg" xmlns:xlink="http://www.w3.org/1999/xlink" width="471.616" height="415.165" viewBox="0 0 471.616 415.165"><defs><style>.a,.k{fill:none;}.b{clip-path:url(#a);}.c{fill:#bec9f2;opacity:0.49;}.d{fill:#c2934e;}.e{fill:#caa267;}.f{fill:#f0c659;}.g{fill:#8c7cc9;}.h{fill:#f1c759;}.i{opacity:0.3;}.j{opacity:0.5;}.k{stroke:#8c7cc9;stroke-miterlimit:10;stroke-width:0.368px;}.l{opacity:0.15;}.m{fill:#cacaca;}.n{fill:#0a0059;}.o{fill:#7f7f7f;}</style><clipPath id="a"><path class="a" d="M1025.335,674.564s-120.617-7.43-157.956-73.6,25.548-102.53,50.113-117.269,54.044-26.531,66.818-118.9,89.418-103.175,122.336-98.261,54.862,34.392,67.473,55.026,41.106,52.652,85.324,86.756,91.383,115.335,55.026,200.5-123.319,69.684-123.319,69.684S1086.748,685.54,1025.335,674.564Z" transform="translate(-855.813 -265.556)"/></clipPath></defs><g transform="translate(-855.813 -265.556)"><g class="b" transform="translate(855.813 265.556)"><rect class="c" width="544.63" height="533.921" transform="translate(-29.577 -35.838)"/><g transform="translate(86.573 111.681)"><path class="d" d="M1078.048,406.6c.5,1.235,3.469,15.022,6.035,17.741s10.929,2.137,10.635,2.878-6.274,14.949-16.638,16.036-7.278-6.546-7.278-6.546a20.321,20.321,0,0,0-1.049-16.645C1065.178,411.3,1078.048,406.6,1078.048,406.6Z" transform="translate(-912.524 -357.458)"/><g transform="translate(139.623)"><ellipse class="e" cx="22.84" cy="16.968" rx="22.84" ry="16.968" transform="translate(0 56.29) rotate(-81.107)"/><g transform="translate(2.269)"><g transform="translate(1.268 6.051)"><path class="f" d="M1068.867,385.154s26.5,20.486,21.917-6.366C1087.611,360.209,1050.875,370.647,1068.867,385.154Z" transform="translate(-1056.362 -368.809)"/><path class="f" d="M1074.964,379.69s-17.732,6.922-17.671,16.705c0,0,.916-29.034,17.167-27.182s22.258,4.383,16.073,34.254C1090.533,403.467,1089.624,378.779,1074.964,379.69Z" transform="translate(-1057.293 -368.764)"/></g><path class="f" d="M1071.707,370.077s2.215-8.739,10.927-6.066,11.736,8.3,12.215,13.531,1.158,9.2,2.431,9.4c0,0-4.414,3.161-5.488,1.7,0,0,1.877,9.559-3.491,16.306,0,0,.153-11.687-6.014-13.955S1071.707,370.077,1071.707,370.077Z" transform="translate(-1054.004 -363.502)"/><path class="f" d="M1074.711,369.493s-5.77-4.78-13.521,3l-5.009,6.928s1.074,1.458,3.819.608c0,0-2.558,8.665-2.13,13.853l6.147-14.5Z" transform="translate(-1056.181 -362.866)"/></g></g><path class="g" d="M1181.59,591.836c-1.222,8.772-16,14.13-26.942,29.023-5.3,7.22-19.491,12.953-32.1,13.416-30.988,1.192-56.11,4.109-93.44-13.416-42.935-20.158-9.958-94.879-12.443-103.3-3.267-11.124,57.157-43.333,61.071-44.627s63.729-5.012,65.455-4.437S1185.032,567.094,1181.59,591.836Z" transform="translate(-921.2 -348.788)"/><g transform="translate(104.661 268.79)"><path class="h" d="M1037.089,606.148c2.17.2,3.339.251,4.89.414,10.994-.262,58.472-1.515,84.143-4.089,9.057-.909,15.4-1.981,16.465-3.237a.868.868,0,0,1,0,.1c-.006,1.4-.106,17.46-.315,38.511-.411,41.557,6.576,100.747,12.452,118.55,1.268,3.843-57.939.5-57.939.5-2.068-42.777-1.3-118.067-4.1-121.318-3.416-3.955-5.718,62.339-9.27,117.885-23.076,7.018-60.2,4.971-59.88,2.593C1027.358,727.807,1037.089,606.148,1037.089,606.148Z" transform="translate(-1023.528 -599.236)"/><g class="i" transform="translate(57.063)"><path d="M1074.105,604.541c-.179-.007-.358-.013-.531-.021C1073.574,604.52,1073.762,604.525,1074.105,604.541Z" transform="translate(-1073.574 -598.495)"/><path class="j" d="M1074.04,605.281c14.187.5,45-2.808,45-2.808,9.057-.909,15.4-1.981,16.465-3.237a.868.868,0,0,1,0,.1c-.006,1.4-.106,17.46-.315,38.511a10.411,10.411,0,0,1-1.493-.1,11.593,11.593,0,0,1-7.716-4.92,25.273,25.273,0,0,1-3.177-5.869C1111.381,607.626,1078.587,605.487,1074.04,605.281Z" transform="translate(-1073.509 -599.236)"/></g><g transform="translate(15.846 3.237)"><line class="k" x1="8.098" y2="155.063" transform="translate(0 0.705)"/><line class="k" x1="8.105" y2="152.37" transform="translate(14.986 3.15)"/><line class="k" x1="5.65" y2="151.201" transform="translate(31.962 2.521)"/><line class="k" x2="1.707" y2="31.195" transform="translate(51.599 1.916)"/><line class="k" x2="3.973" y2="153.843" transform="translate(67.123 1.243)"/><line class="k" x2="6.098" y2="155.043" transform="translate(80.478 0.569)"/><line class="k" x2="9.958" y2="155.767" transform="translate(93.607)"/></g><path class="k" d="M1034.379,618.706s84.467.275,106.564-4.615" transform="translate(-1022.007 -597.153)"/><path class="k" d="M1091.3,631.277c-29.2,7.868-57.888-1.328-57.888-1.328" transform="translate(-1022.143 -594.929)"/><path class="k" d="M1083.82,629.524s26.945,6.226,50.047-1.017" transform="translate(-1015.074 -595.131)"/><path class="k" d="M1032.577,639.928s21.743,10.058,56.017,2.967" transform="translate(-1022.259 -593.53)"/><path class="k" d="M1031.577,651.814s33.518,8.53,56.1,2.416" transform="translate(-1022.4 -591.863)"/><path class="k" d="M1030.569,663.623s17.425,12.3,56.22,4.763" transform="translate(-1022.541 -590.207)"/><path class="k" d="M1029.389,677.206s26.274,12.129,56.839,1.758" transform="translate(-1022.706 -588.303)"/><path class="k" d="M1028.284,689.651s18.759,11.952,57.249,2.871" transform="translate(-1022.861 -586.557)"/><path class="k" d="M1027.117,702.413s25.685,11.862,57.936-.017" transform="translate(-1023.025 -584.77)"/><path class="k" d="M1026.172,712.37s15.439,13.414,58.313,1.117" transform="translate(-1023.158 -583.372)"/><path class="k" d="M1025.038,723.677s24.508,11.412,58.88.7" transform="translate(-1023.317 -581.786)"/><path class="k" d="M1085.431,641.715s11.522,8.576,48.889.221" transform="translate(-1014.848 -593.279)"/><path class="k" d="M1086.219,653.727s15.922,6.5,47.669-.552" transform="translate(-1014.737 -591.672)"/><path class="k" d="M1086.142,667.216s24.412,6.116,48.364-2.095" transform="translate(-1014.748 -589.997)"/><path class="k" d="M1086.327,678.238s23.879,9.257,49.178-2.13" transform="translate(-1014.722 -588.457)"/><path class="k" d="M1086.519,690.339s22.642,6.753,50.218-2.175" transform="translate(-1014.695 -586.766)"/><path class="k" d="M1086.72,701.964s19.166,7.5,51.457-2.228" transform="translate(-1014.667 -585.143)"/><path class="k" d="M1087.177,712.088s22.82,10.38,52.645-1.072" transform="translate(-1014.603 -583.562)"/><path class="k" d="M1087.277,725.025a104.628,104.628,0,0,0,54.812-1.748" transform="translate(-1014.589 -581.842)"/></g><path class="l" d="M1074.543,545.185c2.344-2.048,8.974,5.469,17.842,3.654,8.245-1.688,12.763-10.28,13.328-11.394,5.031-9.9-.737-16.678,1.29-27.3,1.256-6.587,5.642-15.347,19.777-24.293,6.292,50.755,9.674,78.035,9.674,78.035h0l-52.667,4.514C1073.49,551.268,1073.082,546.46,1074.543,545.185Z" transform="translate(-911.801 -346.346)"/><path class="e" d="M1142.166,537.354l-9.172,24.893s-31.184-8.513-51.491-18.667-32.686-26.861-39.236-26.861-25.057,4.34-26.531,6.8,3.439,4.422,6.141,4.668,8.352-.983,8.352-.983-2.7,5.158-4.913,9.826,2.457,8.106,3.932,8.6c0,0,4.176,5.4,7.615,5.4,0,0,6.388,6.885,12.037,5.408s-.491-5.653-.491-5.653a15.36,15.36,0,0,0,7.861.737,23.689,23.689,0,0,0,7.37-2.457s10.359,4.205,16.574,11.5c13.572,15.939,30.74,43.209,41.973,49.5,16.377,9.171,23.911,14.412,34.392,9.5s28.988-38.353,33.408-56.992C1189.986,562.574,1159.853,561.264,1142.166,537.354Z" transform="translate(-919.998 -342.017)"/><path class="g" d="M1209.426,574.394c-6.439,20.161-25.6,52.925-45.4,62.538a30.729,30.729,0,0,1-7.63,2.568c-23.767,4.684-64.275-31.972-80.832-70.1,5.156-7.837,2.014-10.066,7.17-17.9,12.047,8.36,27.628,14.173,42.438,12.766a9.763,9.763,0,0,0,5.1-1.571,8.81,8.81,0,0,0,2.783-4.664c2.229-7.5.494-15.354-1.017-22.8a168.5,168.5,0,0,1-2.958-22.441c-.092-1.428-1.417-11.257-.205-12.017-18.662,11.75-73.929-2.475-92.591,9.275-7.138,4.488,22.338,34.962,15.2,39.45-11.39,60.054-7.4,45.315-15.2,60.187-27.506,5.464-48.232-17.43-50.143-37.827-3.625-38.742-11.369-71.084,13.753-104.907,26.848-36.143,73.262-47.512,80.831-40.128a18.876,18.876,0,0,0,6.5,4.951,11.722,11.722,0,0,0,2.671.781,15.054,15.054,0,0,0,8.021-1.15c6.748-2.691,10.055-8.155,11.472-9.748,3.831-4.334,15.417-4.683,29.169-.944,14.3,3.882,30.936,12.191,43.631,25.03C1223.9,487.9,1215.126,556.522,1209.426,574.394Z" transform="translate(-924.674 -355.841)"/><g transform="translate(111.614 168.774)"><path d="M1030.44,527.4a.8.8,0,0,1-.27-.047.813.813,0,0,1-.5-1.038,86.1,86.1,0,0,1,6.709-14.409.814.814,0,0,1,1.381.862,85.934,85.934,0,0,0-6.554,14.087A.814.814,0,0,1,1030.44,527.4Z" transform="translate(-1029.626 -511.52)"/></g><g transform="translate(119.228 175.898)"><path d="M1037.118,531.925a.852.852,0,0,1-.2-.024.816.816,0,0,1-.593-.987c.083-.327,2.039-8.059,5.278-12.792a.814.814,0,1,1,1.344.919c-3.076,4.5-5.023,12.191-5.041,12.268A.815.815,0,0,1,1037.118,531.925Z" transform="translate(-1036.304 -517.768)"/></g><path class="d" d="M1023.4,574.707s-8.055.252-14.6-2.77a26.155,26.155,0,0,1-9.948-8.048l16.216-4.026,20.781,3.274S1035.1,572.567,1023.4,574.707Z" transform="translate(-922.328 -335.967)"/><path class="m" d="M1074.218,581.5,957.942,563.3l-26.2-102.98L1044.1,474.067Z" transform="translate(-931.739 -349.926)"/><path class="n" d="M1030.285,472.376l3.379.983,28.127,98.6,30.145-4.875,5.648,6.134-37.185,6.591Z" transform="translate(-917.92 -348.235)"/><path class="m" d="M1088.425,556.11l-30.145,4.875-2.952-10.347Z" transform="translate(-914.408 -337.261)"/><path class="e" d="M989.346,556.456s11.958,12.964,19.005,14.852,20.767-8.809,22.907-11.7,0-3.4-1.763-3.147-5.915,3.524-5.915,3.524,8.056-12.586,5.915-14.6-12.538,12.335-12.538,12.335.959-18.125-1.18-18.252-7.3,16.033-7.3,16.033-6.67-17.165-9.691-17.165,1.636,17.242,1.636,17.242-11.706-5.159-13.97-4.657S989.346,556.456,989.346,556.456Z" transform="translate(-924.147 -338.987)"/><path class="o" d="M999.392,509.755c2.628,7.8.033,15.717-5.8,17.682s-12.687-2.767-15.315-10.568-.033-15.718,5.8-17.683S996.763,501.954,999.392,509.755Z" transform="translate(-925.357 -344.538)"/><path class="l" d="M1125.641,420.712c-4.242,3.9-18.888,9.121-25.307,9.121-8.165,0-11.031,8.74-18.2,8.6-5.567-.113-7.324-4.642-7.827-6.655a11.722,11.722,0,0,0,2.671.781A15.054,15.054,0,0,0,1085,431.4c6.748-2.691,10.055-8.155,11.472-9.748C1100.3,417.322,1111.889,416.973,1125.641,420.712Z" transform="translate(-911.747 -355.841)"/></g></g></g></svg>