<svg xmlns="http://www.w3.org/2000/svg" xmlns:xlink="http://www.w3.org/1999/xlink" width="1365.799" height="756" viewBox="0 0 1365.799 756"><defs><style>.a,.u{fill:none;}.b{clip-path:url(#a);}.c{fill:#d2c3db;}.ae,.d{fill:#eadff1;}.ab,.ag,.e{fill:#000;}.f{fill:#b3b3b3;}.g{fill:#d0d1d6;}.h{fill:#333;}.i,.j{fill:#d8a35d;}.i{fill-rule:evenodd;}.k{fill:#d19442;}.l{fill:#947dce;}.m{fill:#ffc84f;}.n{opacity:0.15;}.o{fill:#62548a;}.p{opacity:0.3;}.q{opacity:0.5;}.r{fill:#999;}.s{fill:#ccc;}.t{fill:gray;}.ae,.u{stroke:#947dce;}.ab,.ae,.u{stroke-miterlimit:10;}.u{stroke-width:0.747px;}.v{isolation:isolate;}.w{clip-path:url(#b);}.x{fill:#b9b9b9;}.y{fill:#302f30;}.z{fill:red;}.aa{fill:lime;}.ab{stroke:#4f3b65;stroke-width:6px;}.ac{fill:#6a676b;}.ad{fill:#d6633a;}.ae{stroke-width:0.675px;}.af{fill:#e6e6e6;}.ag{opacity:0.17;}.ah{fill:#4d5139;}.ai{fill:#dbbaa0;}.aj{fill:#df6569;}.ak{fill:#f09c83;}.al{fill:#663b46;}.am{fill:#1a1a1a;}.an{fill:#3a74ba;}.ao{clip-path:url(#c);}.ap{fill:#2a5699;}.aq{fill:#fdfdfe;}</style><clipPath id="a"><rect class="a" width="1365.799" height="756" transform="translate(0.1)"/></clipPath><clipPath id="b"><path class="a" d="M659.426,573.639l-8.584-26.79,31.881-2.2,8.585,26.79Z"/></clipPath><clipPath id="c"><path class="a" d="M1210.875,391.726l.156-84.074,79.712-11.2-.156,84.074Z"/></clipPath></defs><g transform="translate(-0.1)"><g class="b"><path class="c" d="M1365.9,2.037V760.5l-242.228-67.586-32.991-6.263,1.636-558.092L1122.435,103Z"/><path class="c" d="M316.2,117.971,300.145,674.342.1,748.74V-1.312L298.945,92.258Z"/><path class="d" d="M697.877,81.571H273.269V698.955h849.165V81.571Z"/><path class="e" d="M-.1,53.28c121.657,30.38,335.7,73.888,615,80.372,352.971,8.194,622.428-47.1,751-78.7V-7.5H-.1Z"/><path class="e" d="M-.1,715.184c121.657-29.39,335.7-71.481,615-77.753,352.971-7.928,622.428,45.568,751,76.133v47.19L.1,763.5Z"/></g><path class="f" d="M739.642,584.8h-344l50-60h254Z"/><rect class="f" width="16" height="138" transform="translate(407.642 584.804)"/><rect class="f" width="11" height="163" transform="translate(444.642 524.804)"/><rect class="f" width="11" height="163" transform="translate(687.642 524.804)"/><rect class="f" width="16" height="138" transform="translate(712.642 584.804)"/><path class="g" d="M625.283,575.8H479.6c-1.618,0-4.281-1-3.281-2.23l15.729-22.338a5.577,5.577,0,0,1,4.546-1.987H608.077a6.041,6.041,0,0,1,4.912,2.141l15.569,21.968C629.65,574.758,627.058,575.8,625.283,575.8Z"/><path class="h" d="M610.154,569.944H493.516c-1.294,0-2.281-.5-2.077-1.046l4.919-13.2c.265-.712,1.7-1.235,3.373-1.235h105.2c1.49,0,2.755.47,2.971,1.1l4.508,13.275C612.589,569.425,611.528,569.944,610.154,569.944Z"/><rect class="g" width="121.634" height="0.614" transform="translate(491.105 556.736)"/><rect class="g" width="121.634" height="0.614" transform="translate(491.105 559.808)"/><rect class="g" width="121.634" height="0.614" transform="translate(491.105 563.494)"/><rect class="g" width="121.634" height="0.614" transform="translate(491.105 566.872)"/><rect class="g" width="0.921" height="20.272" transform="translate(505.836 551.842) rotate(17.439)"/><rect class="g" width="0.921" height="20.272" transform="translate(514.744 551.842) rotate(17.439)"/><rect class="g" width="0.921" height="20.272" transform="translate(521.808 551.842) rotate(17.439)"/><rect class="g" width="0.921" height="20.272" transform="translate(528.873 551.842) rotate(17.439)"/><rect class="g" width="0.921" height="20.272" transform="translate(536.244 551.842) rotate(17.439)"/><rect class="g" width="0.921" height="20.272" transform="translate(543.725 551.612) rotate(10.978)"/><rect class="g" width="0.921" height="20.272" transform="translate(550.079 551.515)"/><rect class="g" width="0.921" height="20.272" transform="translate(597.743 552.119) rotate(-17.439)"/><rect class="g" width="0.921" height="20.272" transform="translate(589.143 552.119) rotate(-17.439)"/><rect class="g" width="0.921" height="20.272" transform="translate(580.543 552.119) rotate(-17.439)"/><rect class="g" width="0.921" height="20.272" transform="translate(571.942 552.119) rotate(-17.439)"/><rect class="g" width="0.921" height="20.272" transform="translate(563.342 552.119) rotate(-17.439)"/><rect class="g" width="0.921" height="20.272" transform="translate(554.742 552.119) rotate(-17.439)"/><path class="i" d="M886.473,343.691c-1.388-3.393-5.8-6.04-8.751-6.856a29.844,29.844,0,0,1-3.762-1.581c-2.288-.772,1.332,2.491,2.7,3.039,1.112.445,3.1,3.753,4.192,4.888s3.425,2.779,4.681,2.79S886.293,344.32,886.473,343.691Z"/><path class="i" d="M894.14,355.454c-2.653-4.765-4.64-10.427-9.736-12.793s-12.721-2.326-16.77-2.946c-4.764-.729-2.767.821-.257,1.494,1.631.437,6.906,2,8.553,1.988a52.359,52.359,0,0,0-6.877-1.119c-.391.109-7.948-1.953-7.434-.563.995,2.7,9.53,3.039,12.249,3.632-1.434-.052-3.766-.482-5.147-.538-1.173-.049-4.715-1.338-5.064-.26-.55,1.7,8.19,2.8,9.352,2.9-1.15.924-5.535-.46-7.063-.566-.154-.011-1.546.323.128.912a50.268,50.268,0,0,0,10.278,2.97c4.028.594,8.752,1.215,11.437,4.893C889.938,355.338,892.042,355.714,894.14,355.454Z"/><path class="j" d="M1029.307,590.774s-9.277,95.726-5.332,97.373c7.077,3,34.792,12.822,4.236,10.664-15.7.946-14.545-2.561-14.79-5.532-.2-2.428.26-88.1-.384-94.76-.145-1.492-.232-2.394-.232-2.394Z"/><path class="j" d="M971.778,590.774s4.022,95.726.077,97.373c-7.077,3-34.792,12.822-4.236,10.664,15.7.946,14.545-2.561,14.79-5.532.2-2.428,1.981-20.856,2.626-27.518.144-1.492,3.22-76.36,3.22-76.36Z"/><path class="k" d="M1002.546,343.754s-.817,9.121,4.809,14.165-12.966,0-12.966,0,3.46-8.736,2.684-14.165S1002.546,343.754,1002.546,343.754Z"/><ellipse class="j" cx="9.836" cy="13.42" rx="9.836" ry="13.42" transform="translate(989.742 320.45)"/><path class="l" d="M919.477,401.75c14.89-31.148,41.465-45.358,58.433-49.131,7.344-1.636,12.888-1.315,14.913.433a10.994,10.994,0,0,0,6.866,2.667,14.848,14.848,0,0,0,3.855-.351,19.149,19.149,0,0,0,4.087-1.389c.627-.292.993-.5.993-.5a39.9,39.9,0,0,1,10.386.62c38.387,7.516,45.066,71.882,44.723,77.418-.209,3.3-3.616,18.222-7.875,31.492-3.489,10.893-7.561,20.673-10.908,22.025-7.427,2.988-63.5,7.09-75.027,1.591-.269-.2-.56-.418-.837-.657-4.326-3.519-9.018-10.467-11.506-16.975,0-.007-6.627-18.686-7.979-22.489-.015-.037-.022-.067-.037-.1-.045-.149-.1-.291-.15-.426-.015-.052-.037-.1-.052-.149"/><path class="m" d="M967.353,484.418a6.062,6.062,0,0,0,3.442,1.587c8.086.159,43.011.757,61.956-.332,6.684-.385,11.379-.978,12.2-1.88,0,0,0,.028-.005.077-.05,1.045-.649,13-1.49,28.672-1.66,30.936,1.538,75.244,5.273,88.692.807,2.9-42.586-1.494-42.586-1.494-.121-31.926,2.908-87.973.952-90.485-2.381-3.057-6.24,46.243-10.665,87.5-17.184,4.482-44.395,1.761-44.08,0C956.088,575.832,967.353,484.418,967.353,484.418Z"/><path class="n" d="M949.364,445.831c.015.052.037.1.052.149.053.135.1.277.15.426.015.03.022.06.037.1,1.352,3.8,7.979,22.482,7.979,22.489,2.488,6.508,7.18,13.456,11.506,16.975C966.152,475.335,957,444.516,957.351,432.1,955.6,444.068,949.364,445.824,949.364,445.831Z"/><path class="n" d="M1039.131,401.306s-18.583,55.47,32.973,79.028l1.048.7-.266-13.047s-24.294-33.9-24.386-34.771S1039.131,401.306,1039.131,401.306Z"/><path class="n" d="M1000.339,357.923c.03.89-.441,1.472-1.868,1.278-4.453-.6-9.481-.478-13.135,1.2a3.1,3.1,0,0,1-3-.127c-2.339-1.367-3.788-5.446-4.363-7.254a1.243,1.243,0,0,1-.06-.4c7.344-1.636,12.888-1.315,14.913.433a10.994,10.994,0,0,0,6.866,2.667A6.075,6.075,0,0,1,1000.339,357.923Z"/><path class="o" d="M983.732,687.154c.183-1.382-9.651-1.252-10.764-.129s-20.711,5.166-20.323,10.986,27.549,1.244,29.489,1.107S983.373,689.871,983.732,687.154Z"/><path class="o" d="M1012.87,684.913c-.183-1.382,11.589.372,12.7,1.494s18.249,5.784,17.861,11.6-27.549,1.244-29.489,1.107S1013.23,687.629,1012.87,684.913Z"/><g class="p"><path d="M999.6,486.314c-.131-.011-.262-.021-.389-.033C999.207,486.281,999.345,486.291,999.6,486.314Z"/><path class="q" d="M999.6,486.314c10.408.83,33.155-.641,33.155-.641,6.684-.385,11.379-.978,12.2-1.88,0,0,0,.028-.005.077-.05,1.045-.649,13-1.49,28.672a7.805,7.805,0,0,1-1.094-.127,8.518,8.518,0,0,1-5.508-3.913,18.964,18.964,0,0,1-2.142-4.473C1026.956,489.264,1002.931,486.613,999.6,486.314Z"/></g><path class="m" d="M995.882,326.167s17.029,9.442,11.975-5.717C1004.36,309.962,984.268,319.409,995.882,326.167Z"/><path class="m" d="M998.351,322.545s-9.528,5.654-8.609,11.325c0,0-2.1-16.932,7.373-17.357s13.141.488,12.3,18.393C1009.415,334.906,1006.663,320.664,998.351,322.545Z"/><path class="m" d="M996.7,316.623s.478-5.276,5.708-4.529,7.472,3.736,8.219,6.725,1.494,5.23,2.241,5.23c0,0-2.241,2.241-2.988,1.494,0,0,1.939,5.373-.525,9.784,0,0-.97-6.8-4.705-7.543S996.7,316.623,996.7,316.623Z"/><path class="m" d="M997.18,316.577s-3.735-2.241-7.471,2.989l-2.241,4.483s.747.747,2.241,0c0,0-.681,5.264.033,8.235l2.208-8.983Z"/><path class="r" d="M975.021,417.858l9.473,60.69a6.483,6.483,0,0,0,7.4,5.4l41.421-6.471a1.878,1.878,0,0,0,.291-.059,6.458,6.458,0,0,0,5.1-7.337l-9.474-60.69a6.47,6.47,0,0,0-7.4-5.394l-39.5,6.164-1.92.3A6.47,6.47,0,0,0,975.021,417.858Z"/><path class="s" d="M977.232,417.5l9.474,60.689a6.471,6.471,0,0,0,7.4,5.4l39.5-6.164a6.458,6.458,0,0,0,5.1-7.337l-9.474-60.69a6.47,6.47,0,0,0-7.4-5.394l-39.5,6.164A6.458,6.458,0,0,0,977.232,417.5Z"/><circle class="t" cx="5" cy="5" r="5" transform="translate(1003.391 439.3)"/><path class="n" d="M1047.014,460.669s.971-22.309-58.8-14.838,44.828,14.2,44.828,14.2Z"/><path class="i" d="M993.78,454.189c-.708-.238-8.183-4.714-12.236-5.088s-10.113-.543-12.205-1.138c-2.461-.7-3.083.278-.247,1.36a40.024,40.024,0,0,0,6.455,1.828c.405.016-2.235-.339-5.1-.933-3.051-.633-6.361-1.493-6.512-.949-.294,1.053,8.494,3.423,10.043,3.59a38.941,38.941,0,0,1-4.082-.494c-1.843-.327-3.954-.979-4.369-.6-.653.6,4,2.428,7.848,2.962.067.124-1.175.319-5.7-.621-.455-.1-1.613.1-.123.793,3.135,1.45,4.376,2.3,8.92,2.446,4.431.138,9.321-.774,12.508.3Z"/><path class="i" d="M983.5,449.5s-3.43-3.6-7.282-4.2c-2.29-.353-2.237-.929-2.627-1.1-1.3-.571-.042,1.835,1.9,2.452,1.58.5,2.463,3.2,3.413,3.776s3.794,1.624,4.5,1.252S983.5,449.5,983.5,449.5Z"/><path class="l" d="M1057.7,363.647c14.073,12.591,23.811,24.287,29.885,62.759,3.082,19.518,2.28,39.037,1.477,49.33a12.159,12.159,0,0,1-8.358,10.575c-44.093,14.544-92.525-27.3-92.525-27.3-2.525-.94,2.558-9.944,2.558-9.944,24.377-.252,43.055.495,62.48,7.966-.1-.046-19.1-35.73-21.667-45.575-6.733-25.817-28.895-48.158-23.161-58.276C1010.369,349.687,1043.5,350.945,1057.7,363.647Z"/><line class="u" x1="11.019" y2="115.224" transform="translate(963.922 483.662)"/><line class="u" x1="10.936" y2="113.217" transform="translate(974.942 485.967)"/><line class="u" x1="9.094" y2="112.426" transform="translate(987.473 485.967)"/><line class="u" x2="0.234" y2="23.288" transform="translate(1006.863 485.967)"/><line class="u" x1="2.11" y2="114.704" transform="translate(1016.182 485.967)"/><line class="u" x1="0.588" y2="115.666" transform="translate(1027.538 485.895)"/><line class="u" x2="2.225" y2="116.331" transform="translate(1037.791 485.895)"/><path class="u" d="M965.863,496.4s62.052,2.929,78.448,0"/><path class="u" d="M1007.1,509.255c-21.712,4.917-42.489-2.857-42.489-2.857"/><path class="u" d="M1006.863,507.785s19.594,5.506,36.8.857"/><path class="u" d="M963.541,514.842s15.647,8.192,41.061,4.016"/><path class="u" d="M962.26,524.9s24.348,7.433,41.138,3.608"/><path class="u" d="M960.976,534.89s12.4,9.721,41.151,5.36"/><path class="u" d="M959.481,546.382a60.327,60.327,0,0,0,41.7,3.141"/><path class="u" d="M958.091,556.909s13.392,9.506,41.969,3.985"/><path class="u" d="M956.638,567.7s18.484,9.663,42.569,1.857"/><path class="u" d="M955.475,576.124s10.905,10.488,42.809,2.713"/><path class="u" d="M954.1,585.684s17.633,9.29,43.238,2.42"/><path class="u" d="M1007.754,518.3s8.186,6.759,35.914,1.741"/><path class="u" d="M1007.969,528.475s11.486,5.356,35.043,1.126"/><path class="u" d="M1007.409,539.766s17.736,5.342,35.6,0"/><path class="u" d="M1007.153,549.129s17.242,7.664,36.2,0"/><path class="u" d="M1006.863,559.408s16.415,5.76,36.968,0"/><path class="u" d="M1006.6,569.281s13.837,6.208,37.88,0"/><path class="u" d="M1006.6,578.016s16.428,8.466,38.716.9"/><path class="u" d="M1006.2,588.935a75.948,75.948,0,0,0,40.33.466"/><path class="l" d="M949.6,446.5S904.125,465.8,893.09,424.187s4.138-50.813-10.115-68.05l9.2-7.122S923.9,365.8,933.32,392,949.6,446.5,949.6,446.5Z"/><g class="v"><g class="w"><path class="t" d="M682.111,562.8c-1.387.1-3.691-.831-5.678-2.363-2.4-1.856-3.418-3.9-2.282-4.561a1.722,1.722,0,0,1,.745-.2c1.387-.1,3.691.831,5.677,2.363,2.4,1.856,3.419,3.9,2.283,4.561a1.727,1.727,0,0,1-.745.2M675.9,551.288l-8.013,3.98.046.04c.335.293.367.645.076.8l-.832.41a.627.627,0,0,1-.236.059,1.326,1.326,0,0,1-.9-.327l-.043-.038-8.012,3.977,8.918,9.058a14.616,14.616,0,0,0,10.3,3.173,12.158,12.158,0,0,0,4.535-1.162l3.795-1.886c4.413-2.189,4.932-6.639,1.152-9.943L675.9,551.288"/><path class="h" d="M661.044,550.583h0m-3.051-2.662-1.893.942c-4.413,2.189-3.8,6.083-.02,9.382l1.907,1.939L666,556.207l-5.3-4.623c-.335-.293-.369-.65-.076-.794l.146-.073-3.039-2.661.264-.132,0,0"/><path class="h" d="M663.7,545.964a10.1,10.1,0,0,0-3.8,1.013l-1.9.944,0,0,.267-.134,3.048,2.661-.268.132.414-.2a.606.606,0,0,1,.239-.062,1.339,1.339,0,0,1,.9.325l5.3,4.626,8.013-3.98-2.307-1.739a14.013,14.013,0,0,0-9.9-3.585"/><path class="t" d="M661.7,550.317a.606.606,0,0,0-.239.062l-.414.2h0l-.27.134h0l-.146.073c-.293.144-.259.5.076.794l5.3,4.623.043.038a1.326,1.326,0,0,0,.9.327.627.627,0,0,0,.236-.059l.832-.41c.291-.15.259-.5-.076-.8l-.046-.04-5.3-4.626a1.339,1.339,0,0,0-.9-.325"/><path class="t" d="M658.264,547.79l-.267.134-.264.132,3.039,2.661h0l.27-.133h0l.267-.132-3.048-2.661"/><path class="x" d="M674.9,555.671a1.722,1.722,0,0,0-.745.2c-1.136.661-.115,2.705,2.282,4.561,1.987,1.532,4.291,2.459,5.678,2.363a1.727,1.727,0,0,0,.745-.2c1.136-.661.115-2.7-2.283-4.561-1.986-1.532-4.29-2.459-5.677-2.363"/></g></g><path class="t" d="M6.09,0H67.957a6.091,6.091,0,0,1,6.091,6.091V141.278a6.091,6.091,0,0,1-6.091,6.091H6.09A6.09,6.09,0,0,1,0,141.28V6.09A6.09,6.09,0,0,1,6.09,0Z" transform="translate(749.594 570.952)"/><path class="h" d="M823.642,710.587V640.932H749.594v69.655c0,4.273,2.731,7.734,6.091,7.734h61.867C820.915,718.321,823.642,714.86,823.642,710.587Z"/><path class="y" d="M804.023,624.574a1.861,1.861,0,1,1-1.861-1.86A1.859,1.859,0,0,1,804.023,624.574Z"/><path class="z" d="M802.162,626.031a1.457,1.457,0,1,1,1.457-1.457A1.457,1.457,0,0,1,802.162,626.031Z"/><path class="aa" d="M812.095,624.574a1.454,1.454,0,1,1-1.456-1.456A1.457,1.457,0,0,1,812.095,624.574Z"/><rect class="h" width="65.037" height="16.907" rx="3.045" transform="translate(754.1 580.644)"/><rect class="h" width="65.037" height="16.909" rx="3.045" transform="translate(754.1 600.152)"/><rect width="6.014" height="2.79" transform="translate(810.639 603.046)"/><rect width="6.014" height="2.795" transform="translate(810.639 583.374)"/><path d="M749.594,710.327v1.909a6.09,6.09,0,0,0,6.091,6.085h61.867a6.087,6.087,0,0,0,6.09-6.085v-1.909Z"/><circle cx="2.198" cy="2.198" r="2.198" transform="translate(756.067 650.271)"/><circle cx="2.198" cy="2.198" r="2.198" transform="translate(765.407 650.271)"/><circle cx="2.198" cy="2.198" r="2.198" transform="translate(774.747 650.271)"/><circle cx="2.198" cy="2.198" r="2.198" transform="translate(784.086 650.271)"/><circle cx="2.198" cy="2.198" r="2.198" transform="translate(793.426 650.271)"/><circle cx="2.198" cy="2.198" r="2.198" transform="translate(802.765 650.271)"/><circle cx="2.198" cy="2.198" r="2.198" transform="translate(812.105 650.271)"/><circle cx="2.198" cy="2.198" r="2.198" transform="translate(756.067 658.512)"/><circle cx="2.198" cy="2.198" r="2.198" transform="translate(765.407 658.512)"/><circle cx="2.198" cy="2.198" r="2.198" transform="translate(774.747 658.512)"/><circle cx="2.198" cy="2.198" r="2.198" transform="translate(784.086 658.512)"/><circle cx="2.198" cy="2.198" r="2.198" transform="translate(793.426 658.512)"/><circle cx="2.198" cy="2.198" r="2.198" transform="translate(802.765 658.512)"/><circle cx="2.198" cy="2.198" r="2.198" transform="translate(812.105 658.512)"/><circle cx="2.198" cy="2.198" r="2.198" transform="translate(756.067 666.753)"/><circle cx="2.198" cy="2.198" r="2.198" transform="translate(765.407 666.753)"/><circle cx="2.198" cy="2.198" r="2.198" transform="translate(774.747 666.753)"/><circle cx="2.198" cy="2.198" r="2.198" transform="translate(784.086 666.753)"/><circle cx="2.198" cy="2.198" r="2.198" transform="translate(793.426 666.753)"/><circle cx="2.198" cy="2.198" r="2.198" transform="translate(802.765 666.753)"/><circle cx="2.198" cy="2.198" r="2.198" transform="translate(812.105 666.753)"/><circle cx="2.198" cy="2.198" r="2.198" transform="translate(756.067 674.994)"/><circle cx="2.198" cy="2.198" r="2.198" transform="translate(765.407 674.994)"/><circle cx="2.198" cy="2.198" r="2.198" transform="translate(774.747 674.994)"/><circle cx="2.198" cy="2.198" r="2.198" transform="translate(784.086 674.994)"/><circle cx="2.198" cy="2.198" r="2.198" transform="translate(793.426 674.994)"/><circle cx="2.198" cy="2.198" r="2.198" transform="translate(802.765 674.994)"/><circle cx="2.198" cy="2.198" r="2.198" transform="translate(812.105 674.994)"/><circle cx="2.198" cy="2.198" r="2.198" transform="translate(756.067 683.234)"/><circle cx="2.198" cy="2.198" r="2.198" transform="translate(765.407 683.234)"/><circle cx="2.198" cy="2.198" r="2.198" transform="translate(774.747 683.234)"/><circle cx="2.198" cy="2.198" r="2.198" transform="translate(784.086 683.234)"/><circle cx="2.198" cy="2.198" r="2.198" transform="translate(793.426 683.234)"/><circle cx="2.198" cy="2.198" r="2.198" transform="translate(802.765 683.234)"/><circle cx="2.198" cy="2.198" r="2.198" transform="translate(812.105 683.234)"/><circle cx="2.198" cy="2.198" r="2.198" transform="translate(756.067 691.475)"/><circle cx="2.198" cy="2.198" r="2.198" transform="translate(765.407 691.475)"/><circle cx="2.198" cy="2.198" r="2.198" transform="translate(774.747 691.475)"/><circle cx="2.198" cy="2.198" r="2.198" transform="translate(784.086 691.475)"/><circle cx="2.198" cy="2.198" r="2.198" transform="translate(793.426 691.475)"/><circle cx="2.198" cy="2.198" r="2.198" transform="translate(802.765 691.475)"/><circle cx="2.198" cy="2.198" r="2.198" transform="translate(812.105 691.475)"/><circle cx="2.198" cy="2.198" r="2.198" transform="translate(756.067 699.716)"/><circle cx="2.198" cy="2.198" r="2.198" transform="translate(765.407 699.716)"/><circle cx="2.198" cy="2.198" r="2.198" transform="translate(774.747 699.716)"/><circle cx="2.198" cy="2.198" r="2.198" transform="translate(784.086 699.716)"/><circle cx="2.198" cy="2.198" r="2.198" transform="translate(793.426 699.716)"/><circle cx="2.198" cy="2.198" r="2.198" transform="translate(802.765 699.716)"/><circle cx="2.198" cy="2.198" r="2.198" transform="translate(812.105 699.716)"/><path class="ab" d="M231.815,281.688V487.463a.718.718,0,0,1-.6.709l-50.4,8-16,2.53-58.17,9.238a.718.718,0,0,1-.83-.709V261.916a.718.718,0,0,1,.83-.709l58.17,9.239,16,2.53,50.4,8A.716.716,0,0,1,231.815,281.688Z"/><rect class="ac" width="17.682" height="20.534" transform="translate(550.891 516.15)"/><rect class="g" width="187.161" height="114.853" rx="4.563" transform="translate(463.923 402.071)"/><path class="h" d="M517.182,541.3v-3.52c0-1.953,18.059-3.531,40.321-3.531s40.318,1.578,40.318,3.531v3.52Z"/><rect class="h" width="33.614" height="4.178" transform="translate(542.414 509.108)"/><rect class="h" width="187.089" height="102.671" rx="4.563" transform="translate(463.923 402.071)"/><path class="ad" d="M2.838,0H164.481a2.838,2.838,0,0,1,2.838,2.838v91.2a2.836,2.836,0,0,1-2.836,2.836H2.838A2.838,2.838,0,0,1,0,94.031V2.838A2.838,2.838,0,0,1,2.838,0Z" transform="translate(473.808 404.972)"/><rect class="e" width="165.243" height="76.917" transform="translate(474.845 417.498)"/><rect class="f" width="85.528" height="3.114" transform="translate(489.904 437.012)"/><rect class="f" width="85.528" height="3.114" transform="translate(489.904 444.278)"/><rect class="f" width="85.528" height="3.114" transform="translate(489.904 451.543)"/><rect class="f" width="50.791" height="3.114" transform="translate(489.904 458.809)"/><rect class="ae" width="32.818" height="46.21" transform="translate(598.136 432.852)"/><rect class="af" width="165.752" height="2.807" transform="translate(474.336 491.609)"/><path class="ag" d="M630.955,404.972S493.209,409.609,473.808,417.5V407.81a2.838,2.838,0,0,1,2.836-2.838Z"/><path class="ab" d="M1184.151,234.032v207l51,8.1,16,2.53,59,9.37v-247l-59,9.37-16,2.53Z"/><path class="ah" d="M168.294,449.581a140.8,140.8,0,0,1,.272,15.7c-.053,1.383,2.1,1.381,2.148,0a140.8,140.8,0,0,0-.271-15.7c-.1-1.371-2.25-1.382-2.149,0Z"/><path class="ah" d="M169.575,464.605a8.379,8.379,0,0,1,3.692,1.453c1.137.793,2.212-1.069,1.085-1.855a9.806,9.806,0,0,0-4.206-1.67,1.111,1.111,0,0,0-1.321.75,1.082,1.082,0,0,0,.75,1.322Z"/><path class="ah" d="M181.142,449.581a140.566,140.566,0,0,1,.272,15.7c-.053,1.383,2.1,1.381,2.149,0a140.8,140.8,0,0,0-.272-15.7c-.1-1.371-2.25-1.382-2.149,0Z"/><path class="ah" d="M182.423,464.605a8.383,8.383,0,0,1,3.693,1.453c1.136.793,2.211-1.069,1.084-1.855a9.806,9.806,0,0,0-4.206-1.67,1.111,1.111,0,0,0-1.321.75,1.082,1.082,0,0,0,.75,1.322Z"/><path class="ai" d="M186.658,378.059c11.338.91,16.27-12.127,15.4-21.492-.573-6.156-3.882-10.634-5.921-16.265a30.234,30.234,0,0,1-.2-19.578c.839-2.641-3.308-3.772-4.143-1.142-2.991,9.419-1.714,18.76,2.73,27.465,2.668,5.225,4.142,10.561,2.874,16.437-1.157,5.358-4.6,10.771-10.74,10.278-2.757-.222-2.742,4.076,0,4.3Z"/><path class="aj" d="M193.483,427.048c-3.08,17.633-7.706,22.918-7.706,22.918s-14.323,5.292-22.037,0c0,0-12.339-24.021-12.124-41.645s9.475-33.059,10.577-41.431-3.3-27.1-3.3-27.1a15.587,15.587,0,0,1,13.657-10.141c10.578-.659,12.784,6.4,12.784,6.4s-2.206,24.679,2.643,38.558S196.57,409.423,193.483,427.048Z"/><path class="ai" d="M161.914,379.229c4.317-6.948-6.08-9.555-10.914-9.123a20.25,20.25,0,0,0-16.585,11.566c-3.136,6.74-2.065,14.663,1.557,20.991a35.266,35.266,0,0,0,7.974,9.312c1.383,1.165,2.858,2.221,4.217,3.416.627.55,6.1,6.586,3.455,6.8-2.738.216-2.761,4.515,0,4.3,5.949-.471,5.592-6.772,2.868-10.616-3.7-5.226-9.865-8.027-13.553-13.386-4.014-5.832-5.687-13.588-2.093-20.037a15.892,15.892,0,0,1,7.252-6.727,16.074,16.074,0,0,1,6.038-1.384c.785-.028,7.613.249,6.074,2.727-1.463,2.355,2.252,4.515,3.71,2.169Z"/><path class="ai" d="M191.864,308.419c-.654,3.564.3,6.726.3,10.269a1.075,1.075,0,0,0,2.149,0c0-3.294-.983-6.4-.378-9.7.248-1.352-1.822-1.932-2.072-.572Z"/><path class="ai" d="M186.576,316.167a5.542,5.542,0,0,0,3.024,3.554c1.483.655,3.3.328,3.814-1.378l-2.071-.571a8.8,8.8,0,0,0-.257,1.318c-.113.841.985,1.294,1.617.928a1.485,1.485,0,0,0,.573-2.049c-.571-.965-1.408-.645-2.307-.832-1.349-.279-1.926,1.791-.571,2.072a3.8,3.8,0,0,0,.7.094,2.2,2.2,0,0,0,.281-.012q.694.02.243-1.129l1.617.928a4.463,4.463,0,0,1,.179-.747,1.075,1.075,0,0,0-2.071-.571c-.166.547-1.388-.284-1.6-.465a3.43,3.43,0,0,1-1.091-1.712,1.075,1.075,0,0,0-2.071.572Z"/><path class="ai" d="M191.285,318.575c.536-.8,1.786-.6,2.54-.375.886.265-.091.262-.545.306-.511.05-.881.268-.861-.313a1.086,1.086,0,0,0-1.617-.928c-1.4.708-1.09,2.324-.4,3.452.767,1.254,2.1,1.3,3.457,1.152a4.325,4.325,0,0,0,3.537-2.022,2.059,2.059,0,0,0-1.17-2.882,5.506,5.506,0,0,0-4.185.359,2.052,2.052,0,0,0-.675,3.033c1.976,2.39,5.371-1.113,4.764-3.422a1.075,1.075,0,0,0-2.072.571.944.944,0,0,1-.332.9c-.256.3-.733.429-.143.587.271.073,1.8-.293,1.741.094-.064.461-1.525.642-1.855.664a2.6,2.6,0,0,1-.983-.015l-.315-.041a.561.561,0,0,0-.285-.576l-1.616-.928c-.057,1.71.888,2.543,2.574,2.49,1.437-.044,3.375-.234,3.466-2.036.18-3.565-5.376-3.39-6.881-1.156-.774,1.15,1.086,2.226,1.856,1.084Z"/><path class="ai" d="M196.874,316.292V315.3a1.074,1.074,0,0,0-2.148,0v.992a1.074,1.074,0,1,0,2.148,0Z"/><path class="ai" d="M196.18,316.174l-.24.829a1.074,1.074,0,1,0,2.071.571l.241-.828a1.075,1.075,0,0,0-2.072-.572Z"/><path class="ai" d="M193.767,315.1l-.247,1.322a1.074,1.074,0,1,0,2.071.571l.248-1.322a1.075,1.075,0,0,0-2.072-.571Z"/><path class="ak" d="M183.79,384.961c5.5,5.317,11.018,38.784-1.322,50.9S170.128,427.05,166.6,418.9s-10.577-21.155-1.542-29.088S177.18,378.571,183.79,384.961Z"/><path class="al" d="M185.333,336.045c-11.129,12.117-26.441,3.745-26.441,3.745a15.587,15.587,0,0,1,13.657-10.141C183.127,328.99,185.333,336.045,185.333,336.045Z"/><circle class="e" cx="2.369" cy="2.369" r="2.369" transform="translate(165.39 352.017)"/><ellipse class="am" cx="1.543" cy="1.197" rx="1.543" ry="1.197" transform="translate(166.848 352.199)"/><circle class="e" cx="2.369" cy="2.369" r="2.369" transform="translate(177.069 352.017)"/><ellipse class="am" cx="1.543" cy="1.197" rx="1.543" ry="1.197" transform="translate(178.527 352.199)"/><path class="al" d="M170.852,360.242c-.33,1.635-1.088,4.179-.508,5.806.428,1.2,2.166,1.826,3.316,1.962,4.06.483,2.981-5.279,3.174-7.59.038-.459-.678-.457-.716,0-.156,1.865.931,6.777-2.046,6.907a2.867,2.867,0,0,1-3.118-2.7,17.994,17.994,0,0,1,.588-4.2c.091-.45-.6-.642-.69-.19Z"/><path class="al" d="M168.165,374.4a3.7,3.7,0,0,0,2.27.14c.528-.2.63-.534,1.05-.858.653-.505.381-.272,1.09.007,1.18.466,2.447.666,2.875-.879l-.7-.1c.091,1.95,1.736,2.676,3.5,2.18a.358.358,0,0,0-.191-.69q-1.763.733-2.591-1.49a.36.36,0,0,0-.7-.1q-1.671,1.045-2.4-.175a.364.364,0,0,0-.434-.056,5.977,5.977,0,0,0-.817.632l-.381.467a2.756,2.756,0,0,1-2.369.221.359.359,0,0,0-.19.691Z"/><path class="al" d="M171.694,375.192c-.492,1.315,1.042,1.858,2.033,1.982a1.53,1.53,0,0,0,1.407-.35.914.914,0,0,0,.094-1.136c-.263-.374-.884-.017-.618.361.413.586-1.03.394-1.238.352-.5-.1-1.232-.365-.987-1.018.161-.433-.531-.619-.691-.191Z"/><path class="al" d="M172.368,350.765q-1.366,1.24-1.988.106a3.206,3.206,0,0,0-.693-.688,4.567,4.567,0,0,0-1.019-.553,19.976,19.976,0,0,0-4.5-1.1c-.451-.075-.645.615-.191.69a24.269,24.269,0,0,1,4.038.929,4.441,4.441,0,0,1,2.017,1.418,2.5,2.5,0,0,0,.978.82,1.551,1.551,0,0,0,2.077-1.625.358.358,0,0,0-.716,0Z"/><path class="al" d="M174.242,350.9a2.645,2.645,0,0,0,2.919.016c.443-.345.739-.857,1.169-1.224a7.341,7.341,0,0,1,2.968-1.4.358.358,0,0,0-.19-.69,8.363,8.363,0,0,0-2.872,1.261c-1.243.9-1.835,2.364-3.633,1.421-.408-.214-.77.4-.361.618Z"/><path class="al" d="M151.78,404.5c2.945,1.949,6.424,2.567,9.823,3.283a81.29,81.29,0,0,0,11.674,1.809,34.328,34.328,0,0,0,20.677-5.219c.389-.246.03-.866-.361-.619a33.649,33.649,0,0,1-20.316,5.121,78.041,78.041,0,0,1-11.145-1.711c-3.443-.72-7.005-1.307-9.991-3.282-.385-.255-.744.365-.361.618Z"/><path class="al" d="M187.592,406.949a40.3,40.3,0,0,1-.188,9.046,10.7,10.7,0,0,1-1.151,3.727q-.62,1.458-2.224.291l-.111-1.082a5.557,5.557,0,0,1,.233-1.658q1.314-.484,1.3.5c.083.453.773.261.69-.19-.22-1.205-1.618-2.39-2.5-.954-.644,1.05-.93,4.822.827,5.058,2.082.279,3.005-2.77,3.363-4.227.843-3.432.66-7.01.477-10.507-.024-.458-.741-.461-.716,0Z"/><path class="al" d="M178.829,408.931a40.237,40.237,0,0,1-.188,9.046,10.7,10.7,0,0,1-1.151,3.727q-.62,1.458-2.223.291l-.111-1.082a5.555,5.555,0,0,1,.232-1.658q1.314-.484,1.3.5c.083.452.773.26.691-.191-.221-1.205-1.619-2.39-2.5-.954-.644,1.05-.929,4.822.828,5.058,2.081.279,3-2.77,3.362-4.227.844-3.432.661-7.01.477-10.507-.024-.458-.74-.461-.716,0Z"/><path class="al" d="M170.019,408.931a40.236,40.236,0,0,1-.187,9.046,10.718,10.718,0,0,1-1.151,3.727q-.619,1.458-2.224.291l-.111-1.082a5.588,5.588,0,0,1,.232-1.658q1.315-.484,1.3.5c.083.452.773.26.69-.191-.22-1.205-1.618-2.39-2.5-.954-.644,1.05-.93,4.822.827,5.058,2.081.279,3-2.77,3.362-4.227.844-3.432.661-7.01.478-10.507-.024-.458-.741-.461-.717,0Z"/><path class="al" d="M161.674,407.549a40.236,40.236,0,0,1-.187,9.046,10.724,10.724,0,0,1-1.151,3.727q-.619,1.458-2.224.291L158,419.531a5.555,5.555,0,0,1,.232-1.658q1.315-.486,1.3.5c.082.453.773.261.69-.19-.221-1.206-1.618-2.39-2.5-.955-.644,1.05-.93,4.823.827,5.058,2.081.279,3-2.77,3.362-4.226.844-3.432.661-7.01.477-10.507-.024-.458-.74-.461-.716,0Z"/><path class="g" d="M646.137,515.876H468.816a4.482,4.482,0,0,1-4.143-4.545v-105.3a4.545,4.545,0,0,1,4.545-4.545H646.539a4.545,4.545,0,0,1,4.545,4.545v105.3A4.649,4.649,0,0,1,646.137,515.876Z"/><rect class="h" width="33.479" height="4.162" transform="translate(542.849 508.091)"/><rect class="h" width="186.339" height="102.259" rx="4.545" transform="translate(464.673 401.483)"/><rect class="e" width="93.508" height="177.588" rx="0.169" transform="translate(646.636 405.859) rotate(90)"/><path class="an" d="M496.348,423.588V434.3h-2.836v-7.49h-.175l-1.483,6.964h-2.741l-1.5-6.964h-.16v7.49H484.62V423.588h4.764l1.1,6.374,1.1-6.374Z"/><path class="an" d="M498.563,434.185l-.526-.111.064-2.279a24.677,24.677,0,0,0,2.757.239q.94,0,.94-.143c0-.053-.063-.1-.191-.144a4.063,4.063,0,0,0-.621-.127l-.718-.128a3.29,3.29,0,0,1-1.8-.773,2.5,2.5,0,0,1-.574-1.84,2.466,2.466,0,0,1,.877-2.024,3.585,3.585,0,0,1,2.342-.717,13.151,13.151,0,0,1,2.645.366l.574.1-.032,2.279q-2.055-.255-2.725-.255a5.768,5.768,0,0,0-.7.032c-.159.021-.239.069-.239.143s.088.154.263.207a5.868,5.868,0,0,0,.853.16l.589.1a2.873,2.873,0,0,1,1.7.805,2.582,2.582,0,0,1,.5,1.729q0,2.709-3.282,2.709A13.557,13.557,0,0,1,498.563,434.185Z"/><path class="an" d="M508.714,423.588h3l.972,8.3h.1l1.737-8.367h3.3l1.737,8.367h.1l.972-8.3h3.012L521.67,434.3h-4.048l-1.45-7.458-1.45,7.458h-4.064Z"/><path class="an" d="M525.741,433.962a3.564,3.564,0,0,1-1.338-1.513,4.98,4.98,0,0,1-.47-2.2,4.727,4.727,0,0,1,.462-2.127,3.53,3.53,0,0,1,1.323-1.466,3.786,3.786,0,0,1,2.039-.534,3.874,3.874,0,0,1,2.048.526,3.459,3.459,0,0,1,1.331,1.458,4.764,4.764,0,0,1,.462,2.143,4.976,4.976,0,0,1-.47,2.207,3.568,3.568,0,0,1-1.347,1.506,3.771,3.771,0,0,1-2.024.542A3.731,3.731,0,0,1,525.741,433.962Zm2.749-2.27a2.649,2.649,0,0,0,.319-1.443,2.445,2.445,0,0,0-.3-1.338.881.881,0,0,0-.749-.462.865.865,0,0,0-.741.462,2.5,2.5,0,0,0-.295,1.338,2.711,2.711,0,0,0,.311,1.443.874.874,0,0,0,.725.485A.89.89,0,0,0,528.49,431.692Z"/><path class="an" d="M532.905,426.329h2.756v.685a9.049,9.049,0,0,1,2.295-.892v2.789q-.493.111-1.227.207c-.085.011-.35.053-.8.127l-.255.048v5h-2.772Z"/><path class="an" d="M539.573,433.476a5.327,5.327,0,0,1-.725-3.067,5.419,5.419,0,0,1,.781-3.251,2.728,2.728,0,0,1,2.327-1.036,4.758,4.758,0,0,1,.741.064c.271.042.448.069.534.079a1.917,1.917,0,0,0,.247.048l.215.032v-3.012h2.773V434.3h-2.757v-.191a5.26,5.26,0,0,1-1.012.334,4.178,4.178,0,0,1-.741.064A2.713,2.713,0,0,1,539.573,433.476Zm3.2-1.426a1.6,1.6,0,0,0,.247.016,3.6,3.6,0,0,0,.51-.048l.16.016V428.64a6.754,6.754,0,0,0-1.164-.128.722.722,0,0,0-.661.423,3.277,3.277,0,0,0-.231,1.458,2.529,2.529,0,0,0,.231,1.3.864.864,0,0,0,.773.342A1.342,1.342,0,0,1,542.776,432.05Z"/><rect class="an" width="168.23" height="7.27" transform="translate(473.381 409.53)"/><rect class="an" width="2.02" height="76.946" transform="translate(473.381 419.426)"/><rect class="s" width="130.868" height="1.212" transform="translate(498.222 442.449)"/><rect class="s" width="130.868" height="1.212" transform="translate(498.222 446.084)"/><rect class="s" width="130.868" height="1.212" transform="translate(498.222 449.72)"/><rect class="s" width="130.868" height="1.212" transform="translate(498.222 453.355)"/><rect class="s" width="130.868" height="1.212" transform="translate(498.222 456.99)"/><rect class="s" width="130.868" height="1.212" transform="translate(498.222 460.625)"/><rect class="s" width="130.868" height="1.212" transform="translate(498.222 464.26)"/><rect class="s" width="130.868" height="1.212" transform="translate(498.222 467.896)"/><rect class="s" width="69.608" height="1.212" transform="translate(498.222 471.531)"/><rect class="s" width="69.608" height="1.212" transform="translate(498.222 475.166)"/><rect class="s" width="69.608" height="1.212" transform="translate(498.222 478.801)"/><rect class="s" width="69.608" height="1.212" transform="translate(498.222 482.437)"/><g class="v"><g class="ao"><path class="ap" d="M1247.065,329.477a.485.485,0,0,1,.07-.006c.121,0,.124.067.081.284-.007.036-.015.076-.025.121q-2.217,10.8-4.435,21.591c-.48,2.335-1.028,4.661-1.533,6.993a.6.6,0,0,1-.341.435,4.128,4.128,0,0,1-1.164.4c-.09.017-.181.032-.271.045a11.991,11.991,0,0,1-1.255.089,18.524,18.524,0,0,0-2.038.091l-.155.024-.156.029-.038.007h0c-.186.026-.242-.06-.283-.242q-.891-4.518-1.788-9.029c-.606-3.043-1.212-6.08-1.726-9.157a2.321,2.321,0,0,0-.086-.321c-.256,1.443-.5,2.825-.749,4.2-.756,4.129-1.6,8.25-2.409,12.373-.162.8-.318,1.607-.462,2.407-.032.186-.094.261-.226.287l-.028,0a.372.372,0,0,1-.049.005c-1.583.116-3.159.231-4.742.36-.191.013-.265-.056-.3-.252-1.3-7.283-2.773-14.5-4.057-21.785-.159-.925-.312-1.858-.477-2.782a.673.673,0,0,1-.014-.131c0-.112.059-.17.231-.2,1.372-.246,2.745-.506,4.111-.771l.054-.009h0a.415.415,0,0,1,.09-.005.158.158,0,0,1,.141.088.392.392,0,0,1,.032.088c.006.026.012.053.017.085.818,5.335,1.7,10.655,2.461,16.005.085.575.152,1.146.232,1.722l.086-.012c.275-1.386.549-2.779.824-4.165q1.479-7.494,2.945-14.991c.044-.22.112-.309.322-.352,1.546-.291,3.1-.6,4.644-.913l.049-.009.03,0c.144-.012.2.052.235.242q1.167,6.189,2.351,12.365c.41,2.143.839,4.271,1.323,6.4.081-.539.169-1.078.257-1.624q.891-5.66,1.782-11.325c.382-2.435.788-4.874,1.17-7.316.037-.252.112-.342.353-.383,1.57-.294,3.141-.608,4.705-.922.085-.016.153-.03.207-.038m25.981-19.783q7.315-1.027,14.628-2.066c.309-.043.328.074.327.348q-.038,15.445-.063,30.9l-.058,30.829c0,.092,0,.166,0,.224,0,.16-.009.211-.11.24a.938.938,0,0,1-.126.023c-.052.008-.116.016-.194.026q-14.532,2.043-29.058,4.091c-.34.048-.414-.035-.413-.389q.016-1.749.02-3.5t-.007-3.494c0-.34.093-.42.39-.462q5.674-.787,11.355-1.587l11.359-1.6.228-.029a.618.618,0,0,0,.13-.028c.059-.022.08-.058.087-.135,0-.024,0-.051,0-.083,0-.064,0-.147,0-.254,0-.126,0-.251,0-.376,0-.5,0-1,0-1.506,0-.376.005-.753.015-1.13,0-.021,0-.041,0-.06,0-.29-.088-.361-.4-.318q-5.68.809-11.36,1.605l-11.355,1.594c-.445.063-.445.063-.444-.4,0-.843.008-1.688.008-2.533q0-.759-.007-1.517c0-.3.075-.377.347-.416q11.4-1.592,22.782-3.2c.421-.059.421-.059.422-.526,0-.634,0-1.267,0-1.9,0-.38.005-.761.013-1.143v-.058c0-.279-.087-.35-.377-.309q-2.572.372-5.147.732l-5.147.721q-6.259.881-12.519,1.767c-.3.041-.365-.023-.364-.343q.015-1.027.017-2.058t-.01-2.059v-.058c.006-.277.1-.343.366-.38q11.379-1.59,22.752-3.191c.432-.061.432-.061.433-.535,0-.51,0-1.019,0-1.527s.005-1.015.018-1.524c.007-.328-.092-.374-.376-.334q-11.323,1.6-22.647,3.189c-.532.075-.532.075-.531-.486,0-.813.008-1.627.009-2.441,0-.489,0-.979-.008-1.468V340.5c.005-.291.09-.385.4-.428q11.306-1.569,22.616-3.166c.538-.075.538-.075.539-.662,0-.491,0-.981,0-1.471s.005-.982.019-1.474c.006-.328-.093-.367-.371-.328q-11.379,1.609-22.751,3.2c-.433.061-.433.061-.432-.426,0-.826.008-1.655.008-2.484q0-.747-.007-1.493c0-.021,0-.041,0-.06,0-.292.089-.386.4-.429q11.343-1.574,22.678-3.174c.106-.015.189-.023.254-.032.2-.028.223-.058.225-.273,0-.071,0-.163,0-.282s0-.247,0-.371c0-.495,0-.99,0-1.487,0-.373.006-.746.016-1.12v-.06c0-.285-.088-.361-.4-.318q-5.68.809-11.36,1.605l-11.355,1.594c-.445.063-.445.063-.444-.4,0-.843.008-1.689.009-2.533,0-.506,0-1.013-.008-1.517,0-.3.069-.384.347-.423q3.336-.462,6.673-.929l6.117-.857.556-.078q4.72-.663,9.437-1.331c.108-.015.189-.022.249-.03.1-.014.143-.032.161-.1a.562.562,0,0,0,.012-.14V319c0-.058,0-.131,0-.221q0-.38,0-.761c0-.38,0-.761,0-1.142s0-.763.008-1.147c0-.02,0-.038,0-.057,0-.269-.081-.352-.376-.31q-1.626.246-3.25.471l-2.166.3-8.681,1.218q-4.343.611-8.686,1.229c-.321.046-.4-.031-.4-.378q.016-1.512.018-3.028t0-3.025V312.1c0-.231.056-.327.316-.363q7.313-1.018,14.628-2.046m-15.23-8.617-.033.005c-.668.1-1.329.193-2,.287-.394.053-.788.106-1.181.162-.556.078-1.111.159-1.669.245a18.678,18.678,0,0,0-2.647.826q-5.6,1.838-11.207,3.7l-9.71,3.186q-5.278,1.732-10.557,3.459-3.729,1.224-7.453,2.435c-.284.086-.346.208-.347.5q-.029,20.568-.07,41.145-.024,13.233-.055,26.452c0,.321.061.432.376.441q5.489.24,10.976.506,6.453.3,12.9.6,5.748.273,11.495.559c1.774.091,3.542.2,5.315.287a2.876,2.876,0,0,0,.594-.01c.723-.1,1.453-.2,2.176-.3.643-.09,1.289-.184,1.935-.275.324-.045.647-.09.971-.133l.032,0c.246-.035.32-.125.315-.419,0-2.348.009-4.7,0-7.058,0-.294.05-.407.359-.451q9.042-1.26,18.1-2.536c2.516-.348,5.027-.679,7.541-1.032l.929-.132.561-.078a11.492,11.492,0,0,0,2.512-.567c1.782-.664,1.992-.981,2.441-2.879a7.856,7.856,0,0,1,.194-1.134l.1-53.7c-.025-1.377-.05-2.755-.049-4.133q0-.688.01-1.378c0-.588-.016-1.172,0-1.755.035-2.139-1.34-3.387-3.3-3.112l-.054.008q-.571.086-1.141.166c-2.091.294-4.179.535-6.266.828l-3.159.442q-6.69.94-13.379,1.9c-1.331.187-2.657.364-3.986.551l-1,.142c-.248.035-.278-.054-.278-.288.011-2.376.009-4.758.02-7.134.006-.289-.062-.359-.313-.323"/><path class="aq" d="M1290.718,309.649l-.05.007q-.01.688-.01,1.378c0,1.378.024,2.756.049,4.133l.011-5.518"/><path class="aq" d="M1287.674,307.628q-7.312,1.038-14.628,2.066t-14.628,2.046c-.26.036-.315.132-.316.363v.048q0,1.51,0,3.025t-.018,3.028c0,.347.074.424.4.378q4.344-.619,8.686-1.229l8.681-1.218,2.166-.3q1.625-.228,3.25-.471c.3-.042.373.041.376.31,0,.019,0,.037,0,.057-.005.384-.007.765-.008,1.147s0,.762,0,1.142q0,.381,0,.761c0,.09,0,.163,0,.221v.024a.562.562,0,0,1-.012.14c-.018.066-.061.084-.161.1-.06.008-.141.015-.249.03q-4.718.668-9.437,1.331l-.556.078-6.117.857q-3.337.467-6.673.929c-.278.039-.346.123-.347.423.006.5.008,1.011.008,1.517,0,.844-.007,1.69-.009,2.533,0,.467,0,.467.444.4l11.355-1.594q5.679-.8,11.36-1.605c.307-.043.391.033.4.318v.06c-.01.374-.014.747-.016,1.12,0,.5,0,.992,0,1.487,0,.124,0,.247,0,.371s0,.211,0,.282c0,.215-.029.245-.225.273-.065.009-.148.017-.254.032q-11.333,1.593-22.678,3.174c-.307.043-.392.137-.4.429,0,.019,0,.039,0,.06q.009.747.007,1.493c0,.829-.007,1.658-.008,2.484,0,.487,0,.487.432.426q11.379-1.6,22.751-3.2c.278-.039.377,0,.371.328-.014.492-.018.983-.019,1.474s0,.98,0,1.471c0,.587,0,.587-.539.662q-11.305,1.59-22.616,3.166c-.307.043-.392.137-.4.428v.061c.007.489.008.979.008,1.468,0,.814-.007,1.628-.009,2.441,0,.561,0,.561.531.486q11.323-1.592,22.647-3.189c.284-.04.383.006.376.334-.013.509-.017,1.016-.018,1.524s0,1.017,0,1.527c0,.474,0,.474-.433.535q-11.379,1.6-22.752,3.191c-.267.037-.36.1-.366.38v.058q.012,1.029.01,2.059t-.017,2.058c0,.32.067.384.364.343q6.259-.889,12.519-1.767l5.147-.721q2.574-.363,5.147-.732c.29-.041.373.03.377.309v.058c-.008.382-.011.763-.013,1.143,0,.634,0,1.267,0,1.9,0,.467,0,.467-.422.526q-11.388,1.6-22.782,3.2c-.272.039-.347.116-.347.416q.009.758.007,1.517c0,.845-.007,1.69-.008,2.533,0,.467,0,.467.444.4l11.355-1.594q5.679-.8,11.36-1.605c.307-.043.391.028.4.318,0,.019,0,.039,0,.06-.01.377-.013.754-.015,1.13,0,.5,0,1.005,0,1.506,0,.125,0,.25,0,.376,0,.107,0,.19,0,.254,0,.032,0,.059,0,.083-.007.077-.028.113-.087.135a.618.618,0,0,1-.13.028l-.228.029-11.359,1.6q-5.679.8-11.355,1.587c-.3.042-.39.122-.39.462q.01,1.744.007,3.494t-.02,3.5c0,.354.073.437.413.389q14.532-2.052,29.058-4.091c.078-.01.142-.018.194-.026a.938.938,0,0,0,.126-.023c.1-.029.111-.08.11-.24,0-.058,0-.132,0-.224l.058-30.829q.029-15.445.063-30.9c0-.274-.018-.391-.327-.348"/><path class="aq" d="M1247.065,329.477c-.054.008-.122.022-.207.038-1.564.314-3.135.628-4.705.922-.241.041-.316.131-.353.383-.382,2.442-.788,4.881-1.17,7.316q-.9,5.67-1.782,11.325c-.088.546-.176,1.085-.257,1.624-.484-2.134-.913-4.262-1.323-6.4q-1.185-6.178-2.351-12.365c-.036-.19-.091-.254-.235-.242l-.03,0-.049.009c-1.546.311-3.1.622-4.644.913-.21.043-.278.132-.322.352q-1.46,7.489-2.945,14.991c-.275,1.386-.549,2.779-.824,4.165l-.086.012c-.08-.576-.147-1.147-.232-1.722-.763-5.35-1.643-10.67-2.461-16.005-.005-.032-.011-.059-.017-.085a.392.392,0,0,0-.032-.088.158.158,0,0,0-.141-.088.415.415,0,0,0-.09.005h0l-.054.009c-1.366.265-2.739.525-4.111.771-.172.03-.229.088-.231.2a.673.673,0,0,0,.014.131c.165.924.318,1.857.477,2.782,1.284,7.284,2.76,14.5,4.057,21.785.031.2.1.265.3.252,1.583-.129,3.159-.244,4.742-.36l.049-.005.028,0c.132-.026.194-.1.226-.287.144-.8.3-1.6.462-2.407.811-4.123,1.653-8.244,2.409-12.373.25-1.376.493-2.758.749-4.2a2.321,2.321,0,0,1,.086.321c.514,3.077,1.12,6.114,1.726,9.157q.9,4.518,1.788,9.029c.041.182.1.268.283.242l.038-.007.156-.029.155-.024a18.776,18.776,0,0,1,2.038-.091,11.991,11.991,0,0,0,1.255-.089c.09-.013.181-.028.271-.045a4.128,4.128,0,0,0,1.164-.4.6.6,0,0,0,.341-.435c.505-2.332,1.053-4.658,1.533-6.993q2.236-10.793,4.435-21.591c.01-.045.018-.085.025-.121.043-.217.04-.286-.081-.284a.485.485,0,0,0-.07.006"/></g></g></g></svg>