<svg xmlns="http://www.w3.org/2000/svg" xmlns:xlink="http://www.w3.org/1999/xlink" width="495.154" height="450.429" viewBox="0 0 495.154 450.429"><defs><style>.a,.q{fill:none;}.b{clip-path:url(#a);}.c,.i{fill:#d8a35d;}.c{fill-rule:evenodd;}.d{fill:#999;}.e{fill:#ccc;}.f{fill:#2b2b2b;}.g{fill:gray;}.h{fill:#d29647;}.j{fill:#d19442;}.k{fill:#947dce;}.l{fill:#ffc84f;}.m{opacity:0.15;}.n{fill:#62548a;}.o{opacity:0.3;}.p{opacity:0.5;}.q{stroke:#947dce;stroke-miterlimit:10;stroke-width:0.785px;}.r{fill:#eadff1;}</style><clipPath id="a"><rect class="a" width="495.154" height="450.429"/></clipPath></defs><g transform="translate(-851.685 -331.952)"><g transform="translate(851.685 331.952)"><g class="b"><g transform="translate(67.009 157.422)"><g transform="translate(0 238.552)"><path class="c" d="M941.782,704.734c-.6.76-9.38,7.914-11.63,12.7s-5.138,12.118-6.791,14.411c-1.944,2.7-1.024,3.891,1.553.9A51.922,51.922,0,0,0,930,725.672c.2-.489-1.4,2.581-3.4,5.825-2.122,3.449-4.637,7.113-4.04,7.537,1.158.825,7.941-8.865,8.83-10.684a50.625,50.625,0,0,1-2.41,4.769c-1.214,2.106-2.945,4.4-2.662,5.074.447,1.065,4.737-3.815,7.091-8.28.182-.027-.13,1.577-3.281,6.693-.317.514-.586,2.018.915.5,3.158-3.19,4.752-4.328,6.935-9.819,2.129-5.352,3.178-11.733,5.894-15.155Z" transform="translate(-914.3 -704.734)"/><g transform="translate(0 6.727)"><path class="d" d="M915.305,721.317l13.776,16.953a2.233,2.233,0,0,0,3.158.369l7.681-6.425a.778.778,0,0,0,.075-.069,2.3,2.3,0,0,0,.176-3.138L926.4,712.054a2.228,2.228,0,0,0-3.157-.365l-7.171,6-.512.426A2.293,2.293,0,0,0,915.305,721.317Z" transform="translate(-914.77 -711.059)"/><path class="e" d="M915.667,720.95l13.887,16.887a2.3,2.3,0,0,0,3.244.314l7.487-6.184a2.3,2.3,0,0,0,.237-3.173l-13.887-16.887a2.3,2.3,0,0,0-3.244-.314l-7.486,6.184A2.3,2.3,0,0,0,915.667,720.95Z" transform="translate(-914.746 -711.067)"/><path class="f" d="M916.935,720.827l11.995,14.585a1.989,1.989,0,0,0,2.8.271l6.467-5.341a1.987,1.987,0,0,0,.2-2.74l-11.994-14.584a1.988,1.988,0,0,0-2.8-.272l-6.467,5.341A1.987,1.987,0,0,0,916.935,720.827Z" transform="translate(-914.663 -710.991)"/><circle class="g" cx="0.769" cy="0.769" r="0.769" transform="translate(20.313 22.165)"/></g><path class="c" d="M932.792,713.62s-5.921,2.6-8.351,7.042c-1.445,2.642-2.126,2.321-2.509,2.722-1.271,1.331,2.224.863,3.839-1.242,1.313-1.709,5-1.593,6.125-2.5s3.663-3.917,3.522-4.949S932.792,713.62,932.792,713.62Z" transform="translate(-914.341 -704.181)"/></g><path class="h" d="M1071.056,773.205S1060.7,880.1,1065.1,881.94c7.9,3.352,38.852,14.319,4.73,11.908-17.529,1.057-16.242-2.859-16.516-6.178-.223-2.712.291-98.379-.429-105.819-.161-1.666-.258-2.672-.258-2.672Z" transform="translate(-906.193 -461.923)"/><path class="i" d="M1001.961,764.4s55.951,91.2,53,94.946c-5.272,6.775-26.971,31.417,1.663,12.705,15.826-7.609,12.8-10.4,11.421-13.436-1.124-2.477-9.4-21.422-12.395-28.271-.67-1.534-38.361-76.239-38.361-76.239Z" transform="translate(-909.345 -463.111)"/><path class="j" d="M1042.378,513.672s-.912,10.186,5.37,15.818-14.479,0-14.479,0,3.863-9.756,3-15.818S1042.378,513.672,1042.378,513.672Z" transform="translate(-907.398 -478.236)"/><ellipse class="i" cx="10.984" cy="14.986" rx="10.984" ry="14.986" transform="translate(120.682 9.411)"/><path class="k" d="M1117.027,611.007c-.184,2.837-2.478,13.383-5.707,24.846-.951,3.42-1.994,6.916-3.087,10.32-1.327,4.147-2.728,8.143-4.147,11.673-2.753,6.841-5.572,11.931-8.034,12.923-8.293,3.337-70.908,7.918-83.782,1.777-.3-.225-.626-.467-.935-.734-4.83-3.929-10.07-11.689-12.849-18.955,0-.008-7.4-20.867-8.91-25.114-.017-.041-.026-.074-.041-.108-.051-.167-.108-.325-.167-.475-.017-.058-.042-.108-.059-.167-7.792,26.606-28.525,85.042-45.295,103.555-1.76,1.944-9.862-8.961-9.862-8.961s-13.541-69.924,21.784-143.819c16.628-34.783,46.3-50.652,65.253-54.865,8.2-1.827,14.392-1.468,16.652.484a12.28,12.28,0,0,0,7.668,2.978,16.605,16.605,0,0,0,4.305-.392,21.411,21.411,0,0,0,4.563-1.552c.7-.325,1.11-.559,1.11-.559a44.456,44.456,0,0,1,11.6.693C1109.952,532.948,1117.41,604.825,1117.027,611.007Z" transform="translate(-913.722 -477.569)"/><path class="l" d="M1005.827,661.433a6.762,6.762,0,0,0,3.843,1.773c9.03.177,48.03.846,69.186-.37,7.464-.43,12.706-1.093,13.627-2.1a.84.84,0,0,1-.006.086c-.055,1.166-.723,14.517-1.663,32.017-1.854,34.546,1.718,84.025,5.889,99.043.9,3.242-47.556-1.669-47.556-1.669-.135-35.651,3.248-98.24,1.063-101.045-2.658-3.413-6.968,51.641-11.91,97.707-19.189,5.006-49.576,1.967-49.224,0C993.247,763.516,1005.827,661.433,1005.827,661.433Z" transform="translate(-910.147 -468.92)"/><path class="m" d="M985.934,621.725c.017.058.041.108.058.167.058.15.117.308.167.475.017.034.024.067.042.108,1.51,4.247,8.911,25.105,8.911,25.114,2.778,7.267,8.018,15.026,12.849,18.955-3.279-11.872-13.5-46.288-13.108-60.154C992.9,619.756,985.934,621.717,985.934,621.725Z" transform="translate(-910.342 -472.301)"/><path class="m" d="M1102.084,631.938c-.951,3.42-1.994,6.916-3.087,10.32-1.327,4.147-2.728,8.143-4.147,11.673-24.52-29.361-11.146-69.282-11.146-69.282s10.362,34.657,10.47,35.633C1094.208,620.633,1097.653,625.63,1102.084,631.938Z" transform="translate(-904.487 -473.653)"/><path class="m" d="M1040.99,528.827c.034.993-.492,1.643-2.085,1.427-4.973-.676-10.588-.533-14.668,1.335a3.461,3.461,0,0,1-3.353-.142c-2.612-1.526-4.231-6.082-4.872-8.1a1.4,1.4,0,0,1-.067-.443c8.2-1.827,14.392-1.468,16.652.484a12.28,12.28,0,0,0,7.668,2.978A6.765,6.765,0,0,1,1040.99,528.827Z" transform="translate(-908.475 -477.569)"/><path class="n" d="M1063.713,846.2c-.573-1.448-10.1,4.024-10.57,5.723s-17.4,16.3-13.854,21.764,27.551-13.76,29.369-14.947S1064.839,849.049,1063.713,846.2Z" transform="translate(-907.054 -457.396)"/><path class="n" d="M1052.7,872.205c-.2-1.543,12.941.414,14.184,1.669s20.379,6.458,19.945,12.958-30.764,1.389-32.93,1.236S1053.1,875.238,1052.7,872.205Z" transform="translate(-906.193 -455.799)"/><g class="o" transform="translate(131.25 191.816)"><path d="M1038.769,663.388l-.436-.036S1038.487,663.363,1038.769,663.388Z" transform="translate(-1038.333 -660.573)"/><path class="p" d="M1038.743,663.551c11.621.927,37.023-.715,37.023-.715,7.464-.43,12.706-1.093,13.627-2.1a.84.84,0,0,1-.006.086c-.055,1.166-.723,14.517-1.663,32.017a8.5,8.5,0,0,1-1.222-.141,9.51,9.51,0,0,1-6.15-4.37,21.168,21.168,0,0,1-2.392-5C1069.3,666.846,1042.466,663.885,1038.743,663.551Z" transform="translate(-1038.308 -660.736)"/></g><g transform="translate(118.142)"><g transform="translate(2.318 4.179)"><path class="l" d="M1035.072,495.705s19.016,10.544,13.372-6.385C1044.539,477.609,1022.1,488.158,1035.072,495.705Z" transform="translate(-1027.994 -484.088)"/><path class="l" d="M1038.009,491.616s-10.639,6.314-9.613,12.647c0,0-2.347-18.907,8.233-19.383s14.674.546,13.735,20.54C1050.365,505.42,1047.291,489.515,1038.009,491.616Z" transform="translate(-1028.175 -484.044)"/></g><path class="l" d="M1035.7,485.292s.534-5.891,6.375-5.057,8.344,4.172,9.177,7.509,1.669,5.841,2.5,5.841c0,0-2.5,2.5-3.336,1.669,0,0,2.165,6-.586,10.926,0,0-1.083-7.589-5.255-8.423S1035.7,485.292,1035.7,485.292Z" transform="translate(-1025.388 -480.154)"/><path class="l" d="M1036.838,484.974s-4.171-2.5-8.344,3.337l-2.5,5.006s.834.834,2.5,0c0,0-.759,5.878.037,9.2L1031,492.483Z" transform="translate(-1025.992 -479.887)"/></g><g transform="translate(254.984 245.248)"><path class="c" d="M1157.362,711.038c.438.711,7.2,7.71,8.626,12.023s3.147,10.863,4.323,12.989c1.383,2.5.477,3.423-1.417.613a44.672,44.672,0,0,1-3.62-6.559c-.12-.437.934,2.345,2.306,5.316,1.458,3.159,3.23,6.541,2.678,6.844-1.072.585-5.871-8.374-6.444-10.017a43.589,43.589,0,0,0,1.57,4.315c.821,1.922,2.064,4.053,1.753,4.6-.49.862-3.652-3.739-5.2-7.788-.152-.041-.05,1.359,2.117,6.045.218.471.294,1.781-.832.335-2.369-3.043-3.613-4.178-4.915-9.084-1.27-4.784-1.515-10.334-3.482-13.531Z" transform="translate(-1154.82 -711.038)"/><path class="c" d="M1164.6,720.453s4.786,2.821,6.406,6.861c.964,2.4,1.576,2.2,1.862,2.579.948,1.265-1.985.509-3.148-1.451-.945-1.593-4.105-1.871-4.969-2.76s-2.726-3.716-2.5-4.581S1164.6,720.453,1164.6,720.453Z" transform="translate(-1154.359 -710.454)"/></g><g transform="translate(91.849 191.67)"><line class="q" x1="12.305" y2="128.67"/><line class="q" x1="12.212" y2="126.429" transform="translate(12.305 2.573)"/><line class="q" x1="10.155" y2="125.546" transform="translate(26.299 2.573)"/><line class="q" x2="0.262" y2="26.005" transform="translate(47.952 2.573)"/><line class="q" x1="2.356" y2="128.09" transform="translate(58.358 2.573)"/><line class="q" x1="0.656" y2="129.164" transform="translate(71.039 2.493)"/><line class="q" x2="2.484" y2="129.906" transform="translate(82.489 2.493)"/></g><path class="q" d="M1003.279,673.994s69.293,3.271,87.6,0" transform="translate(-909.263 -468.095)"/><path class="q" d="M1049.408,687.69c-24.245,5.492-47.447-3.189-47.447-3.189" transform="translate(-909.345 -467.441)"/><path class="q" d="M1046.382,685.959s21.88,6.148,41.1.956" transform="translate(-906.582 -467.35)"/><path class="q" d="M1000.838,693.378s17.472,9.148,45.852,4.485" transform="translate(-909.415 -466.889)"/><path class="q" d="M999.492,703.95s27.189,8.3,45.939,4.03" transform="translate(-909.499 -466.231)"/><path class="q" d="M998.142,714.453s13.847,10.856,45.952,5.986" transform="translate(-909.583 -465.578)"/><path class="q" d="M996.57,726.535a67.368,67.368,0,0,0,46.571,3.509" transform="translate(-909.681 -464.826)"/><path class="q" d="M995.109,737.6s14.955,10.616,46.866,4.45" transform="translate(-909.772 -464.138)"/><path class="q" d="M993.581,748.948s20.641,10.79,47.536,2.072" transform="translate(-909.867 -463.432)"/><path class="q" d="M992.358,757.8s12.177,11.712,47.8,3.029" transform="translate(-909.943 -462.881)"/><path class="q" d="M990.917,767.853s19.691,10.374,48.284,2.7" transform="translate(-910.032 -462.256)"/><path class="q" d="M1047.319,697.016s9.14,7.547,40.1,1.945" transform="translate(-906.523 -466.663)"/><path class="q" d="M1047.545,707.71s12.826,5.98,39.132,1.258" transform="translate(-906.509 -465.997)"/><path class="q" d="M1046.956,719.579s19.806,5.965,39.757,0" transform="translate(-906.546 -465.259)"/><path class="q" d="M1046.687,729.423s19.254,8.558,40.427,0" transform="translate(-906.563 -464.647)"/><path class="q" d="M1046.382,740.229s18.331,6.433,41.282,0" transform="translate(-906.582 -463.974)"/><path class="q" d="M1046.1,750.609s15.451,6.932,42.3,0" transform="translate(-906.599 -463.328)"/><path class="q" d="M1046.1,759.792s18.344,9.454,43.234,1" transform="translate(-906.599 -462.757)"/><path class="q" d="M1045.689,771.271a84.808,84.808,0,0,0,45.036.52" transform="translate(-906.625 -462.043)"/><path class="k" d="M1089.321,568.416s-53.8-42.573-40.972-44.65,33.812,2.969,33.812,2.969c18.948,4.213,37.038,18.45,53.666,53.233,35.325,73.895,33.37,145.452,33.37,145.452s-8.18,10.973-9.862,8.961c-31.21-37.344-51.279-74.833-59.746-100.055S1089.321,568.416,1089.321,568.416Z" transform="translate(-906.582 -477.472)"/></g><path class="r" d="M1200.808,818.573c-7.6-30.421,5.352-61.623,13.164-91.991a281.973,281.973,0,0,0,8.673-58.956c.6-15.028-.028-30.2-3.413-44.855-9.766-42.28-41.405-76.186-75.929-102.475s-73.115-47.2-105.691-75.861c-12.364-10.88-24.083-23.273-29.988-38.647s-4.879-34.321,6.19-46.516c9.646-10.631,24.683-14.278,38.891-16.324,40-5.761,82.178-2.749,118.493,14.985s65.9,51.585,72.476,91.46c2.895,17.551,1.388,35.562,3.681,53.2,4.771,36.731,25.428,69.088,42.548,101.935s31.365,70.426,22.091,106.285c-4.272,16.519-13.292,31.411-23.206,45.3-18.1,25.348-39.474,48.15-60.78,70.867-6.5,6.931-13.184,14-21.659,18.3s-19.242,5.348-27.223.19" transform="translate(-842.206 -331.433)"/></g></g></g></svg>