<svg xmlns="http://www.w3.org/2000/svg" xmlns:xlink="http://www.w3.org/1999/xlink" width="20.981" height="42.119" viewBox="0 0 20.981 42.119"><defs><style>.a{fill:none;}.b{fill:#7fd1d8;}.c{clip-path:url(#a);}.d{fill:#3e6569;}.e{fill:#fff;}</style><clipPath id="a"><path class="a" d="M449.882,306.454V340.09a2.961,2.961,0,0,1-2.96,2.96H440.8a2.959,2.959,0,0,1-2.958-2.96v-18.8l-2.347,1.6a2.25,2.25,0,0,1-3.518-1.86v-8.078a2.248,2.248,0,0,1,.963-1.847l9.949-6.928a2.765,2.765,0,0,1,1.587-.5H447.1c.049,0,.1,0,.143,0l.083.006c.037,0,.073.005.106.009.048.006.1.012.142.022a.961.961,0,0,1,.109.021c.035.006.07.016.106.024l.015,0c.037.01.072.02.107.032l.037.011c.038.012.073.024.108.037a2.365,2.365,0,0,1,.292.127.773.773,0,0,1,.09.047c.045.023.088.049.131.076s.078.049.115.076.093.066.138.1.062.049.094.076.083.075.122.114a.909.909,0,0,1,.082.083c.012.012.026.026.037.039.03.032.057.065.084.1v0A2.76,2.76,0,0,1,449.882,306.454Z"/></clipPath></defs><g transform="translate(-431.972 -303.678)"><path class="b" d="M449.882,306.454V340.09a2.961,2.961,0,0,1-2.96,2.96H440.8a2.959,2.959,0,0,1-2.958-2.96v-18.8l-2.347,1.6a2.25,2.25,0,0,1-3.518-1.86v-8.078a2.248,2.248,0,0,1,.963-1.847l9.949-6.928a2.765,2.765,0,0,1,1.587-.5H447.1c.049,0,.1,0,.143,0l.083.006c.037,0,.073.005.106.009.048.006.1.012.142.022a.961.961,0,0,1,.109.021c.035.006.07.016.106.024l.015,0c.037.01.072.02.107.032l.037.011c.038.012.073.024.108.037a2.365,2.365,0,0,1,.292.127.773.773,0,0,1,.09.047c.045.023.088.049.131.076s.078.049.115.076.093.066.138.1.062.049.094.076.083.075.122.114a.909.909,0,0,1,.082.083c.012.012.026.026.037.039.03.032.057.065.084.1v0A2.76,2.76,0,0,1,449.882,306.454Z"/><g class="c"><path class="d" d="M435.21,342.607s-2.243-9.99,4.078-12.437,10.194-7.748,7.543-13.456-9.816-5.838-12.641-3.67c-8.767,6.728-9.174,14.272-9.174,14.272l9.174-33.233,23.039,1.019s3.466,26.3,2.855,28.544-4.486,22.427-5.1,23.242-10.4,2.855-11.622,2.243S435.21,342.607,435.21,342.607Z"/></g><path class="e" d="M447.506,329.432l.477,5.7,4.97,2.84-5.277,2.217-1.166,5.6-3.739-4.334-5.69.623,2.966-4.895-2.351-5.219,5.573,1.308Zm-3.893,5.177-3.8-.892,1.6,3.557-2.022,3.337,3.878-.425,2.549,2.955.794-3.82,3.6-1.512-3.388-1.936-.325-3.888Z"/></g></svg>