<svg xmlns="http://www.w3.org/2000/svg" xmlns:xlink="http://www.w3.org/1999/xlink" width="33.129" height="40.033" viewBox="0 0 33.129 40.033"><defs><style>.a{fill:none;}.b{fill:#a1dd6f;}.c{clip-path:url(#a);}.d{fill:#4a5e3a;}.e{fill:#fff;}</style><clipPath id="a"><path class="a" d="M723.7,328.213h-2.761V306.762a1,1,0,0,0-1-1H709.553a1,1,0,0,0-.808.409L691.76,329.395a.977.977,0,0,0-.193.588V337.4a1,1,0,0,0,1,1h17.9v6.4a1,1,0,0,0,1,1h8.471a1,1,0,0,0,1-1v-5.9H723.7a1,1,0,0,0,1-1v-8.7A1,1,0,0,0,723.7,328.213Zm-12.653.462h-4.625l2.705-3.7,1.92-2.624Z"/></clipPath></defs><g transform="translate(-691.567 -305.764)"><path class="b" d="M723.7,328.213h-2.761V306.762a1,1,0,0,0-1-1H709.553a1,1,0,0,0-.808.409L691.76,329.395a.977.977,0,0,0-.193.588V337.4a1,1,0,0,0,1,1h17.9v6.4a1,1,0,0,0,1,1h8.471a1,1,0,0,0,1-1v-5.9H723.7a1,1,0,0,0,1-1v-8.7A1,1,0,0,0,723.7,328.213Zm-12.653.462h-4.625l2.705-3.7,1.92-2.624Z"/><g class="c"><path class="d" d="M700.37,311.718s10.375-4.4,15.406-1.257,1.572,11.632,0,18.235,5.973,15.091-4.716,16.035-7.232,6.916-7.232,6.916,24.209,2.2,26.1-1.886,4.4-20.751,1.886-27.668,1.887-18.549-5.659-20.121-15.72-3.144-19.807,0S700.37,311.718,700.37,311.718Z"/></g><path class="e" d="M719.416,334.451a4.367,4.367,0,0,1-.751-3.227l.006-.018-.49-.168-2.758,8.158a2.08,2.08,0,0,0-1.216-1.063,1.791,1.791,0,1,0-1.155,3.368,1.862,1.862,0,0,0,2.457-1.042l-.011,0-.005.014v-.006l1.824-5.356a6.324,6.324,0,0,0,.917,2,1.8,1.8,0,0,1-.43,2.673,1.69,1.69,0,0,0,1.221-2.373C719.9,336.985,720.342,335.764,719.416,334.451Zm-.777,2.232a4.448,4.448,0,0,1-.77-3.177l.219-.647a6.27,6.27,0,0,0,.918,2.018,1.8,1.8,0,0,1-.055,2.35A3.18,3.18,0,0,0,718.639,336.683Z"/></g></svg>