<svg xmlns="http://www.w3.org/2000/svg" width="714.934" height="230.144" viewBox="0 0 714.934 230.144"><defs><style>.a{fill:#b3b3b3;}.b{fill:#999;}.c{fill:#fff;}.d{fill:#e6e6e6;}.e{fill:#aa3b18;}.f{fill:#333;}.g{fill:#f15a24;}.h{fill:#a1dd6f;}.i,.j{fill:none;stroke:#fbc732;stroke-linecap:round;stroke-miterlimit:10;}.i{stroke-width:3.301px;}.j{stroke-width:1.392px;}</style></defs><g transform="translate(-765.529 -513.448)"><g transform="translate(935.976 513.448)"><path class="a" d="M1191.176,576.96a7.564,7.564,0,0,0-4.415,2.793c-.084.77-.193,1.588-.352,2.432a6.655,6.655,0,0,1,4.909-4.4Zm234.15,39.436c-3.32-8.3-12.56-7.719-14.718-7.46a9.4,9.4,0,0,0-1.062-3.6c-1.63-3.052-4.958-5.135-9.9-6.179-10.754-2.275-16.457,2.182-17.67,3.277-2.341-1.195-5.536-1.638-9.651-1.354-4.817.334-11.322,3.52-16.582,7.919a58.174,58.174,0,0,0-.084-14.818,41.193,41.193,0,0,0,3.915-3.336,21.121,21.121,0,0,0,11.155-5.236c7.994-6.781,18.129-22.569,19.275-24.376,1.822-.25,14.584-2.316,18.531-11.807,2.291-5.52.268-8.538-1.146-9.842-2.6-2.4-7.165-2.877-10.619-1.112a44.438,44.438,0,0,1-16.557,4.224c.375-1.941,2.015-9.642,5.518-15.337,2.258-3.654,2.157-8.262-.234-11.2-2.258-2.759-6-3.453-10.294-1.89-6.94,2.518-10.537,10.846-12.912,16.348-1.02,2.375-1.906,4.424-2.625,4.925l-2.416,1.689a5.223,5.223,0,0,1-3.872-5.686c.134-1.773.552-10.8-4.106-14.943-2-1.764-4.641-2.343-7.844-1.714-3.763.743-6.522,2.391-8.2,4.892-2.9,4.34-2.132,10.587-1.138,15.545.645,3.22.511,7.543.377,12.108-.193,6.556-.4,13.314,1.84,16.984-4.122-.359-9.516-.241-13.948,1.84a12.884,12.884,0,0,0-7.226,8.5l-.157-.678c-.077.018-3.688.87-9.4,1.966-21.927-13.841-39.245-13.271-40.716-13.2A34.45,34.45,0,0,0,1240,559.349c-22.47-7.66-46.562-8.187-61.613-7.476a111.7,111.7,0,0,0-48.2,13.521c.091-2.049-.979-2.725-3.045-4.038-.995-.628-2.232-1.414-3.763-2.584-4.1-3.136-5.393-7.919-6.531-12.133-.284-1.046-.552-2.032-.852-2.97-1.447-4.524-3.89-4.9-4.491-4.925-.543-.275-3.168-1.513-5.577-.568a5.821,5.821,0,0,0-3.27,3.947,54.066,54.066,0,0,0-1.823,7.685,16.316,16.316,0,0,1-1.613,5.545,6.994,6.994,0,0,0-.828,5.56c.7,2.475,2.827,4.633,6.306,6.415a23.413,23.413,0,0,1,6.1,4.29c-4.072-.2-16.648-.411-23.213,3.863-8.061,5.235-31.074,13.782-60.484,8.622-17.518-3.07-34.552-8.288-46.994-12.092-6.44-1.973-11.574-3.545-14.952-4.273a.036.036,0,0,0-.026-.007,11.673,11.673,0,0,0-3.177-.536c-4.065-1.8-3.143-13.3-1.481-20.8,1.247-5.6,1.1-17.1-3.136-24.042a15.639,15.639,0,0,0-13.914-6.94,9.342,9.342,0,0,0-8.069,6.631c-3.079,8.755,3.318,15.829,5.677,18.063-2.827-.034-10.612-.561-14.927-5.093-.82-.854-1.764-1.99-2.777-3.2-4.038-4.85-9.583-11.5-15.88-11.515h-.016c-3.168,0-6.213,1.714-9.047,5.093-2.65,3.143-3.572,6.329-2.727,9.465,1.84,6.849,11.465,11.431,14.96,12.894a7.386,7.386,0,0,0-4.256,2.843,6.056,6.056,0,0,0-1,3.6c-8.622-2.809-16.214-2.374-20.4,1.213-2.752,2.35-3.813,5.829-3.07,10.069,1.882,10.728,25.981,8.128,29.276,7.719.9,2.375,6.949,16.941,21.433,19.45a74.965,74.965,0,0,0,9.317,1.02c7,2.734,27.16,10.487,51.795,18.648,26.006,8.613,53.427,13.38,61.22,14.634-14.826,3.395-29.678,8.421-30.18,25.6-.611,20.747,16.223,36.461,46.192,43.158a6.708,6.708,0,0,0,.8,5.335,6.935,6.935,0,0,0,7,2.969,24.179,24.179,0,0,1,5.545.007c2.442,8.706,12.634,13.99,25.48,13.99a52.181,52.181,0,0,0,10.428-1.095,42.446,42.446,0,0,0,12.693-4.575c6.983,4.541,16.768,6.79,29.637,6.79a162.949,162.949,0,0,0,24.542-2.115c25.631-3.947,43.877-20.052,58.979-34.853,6.413-6.3,12.61-17.21,17.361-27.019a23.581,23.581,0,0,0,11.364-4.667,40.052,40.052,0,0,0,12.092,1.773c9.884,0,23.949-3.4,35.807-19.175a11.615,11.615,0,0,1,1.538,5.486c.1,2.174.009,4.633-.091,7.233-.3,8.22-.652,17.544,4.632,23.213,2.993,3.211,7.367,4.867,13.4,5.076.35.009.694.018,1.045.018,20.454,0,32.789-20.638,34.461-23.624a33.145,33.145,0,0,0,15.378-9.724c4.984-5.477,7.283-9.551,8.329-12.251a47.269,47.269,0,0,0,10.035,4.742,7.569,7.569,0,0,0,2.532.427,11.952,11.952,0,0,0,8.321-3.972C1425.108,626.715,1427.433,621.655,1425.326,616.4Zm-295.219,66.4c-.226-15.344,8.906-19.777,16.966-23.69a38.451,38.451,0,0,0,8.554-5.059c5.929-5.184,10.1-15.553,9.885-24.242,1.622,3.913,4.6,12.71,2.809,21.006l.82.175c2.425-11.2-3.6-23.238-3.822-23.64v-.009a15.1,15.1,0,0,0-2.934-7.526c-3.838-4.833-5.711-6.012-6.949-6.8a5.023,5.023,0,0,1-2.023-2c2.073-.509,10.728-1.772,22.51,8.045,14.183,11.816,29.092,26.415,26.584,50.323-2.493,23.674-24.426,36.15-39.211,37.447-6.438.568-18.4.468-26.165-6.54C1132.583,696.179,1130.216,690.292,1130.107,682.792Zm26.574-53.861a15.608,15.608,0,0,1-5.109,7.769c.594-2.443,1.639-7.986-.116-11.465a20.019,20.019,0,0,1,5.226,3.688Zm-15.762-3.245a9.94,9.94,0,0,0,1.163-.243l.8-.225a19.077,19.077,0,0,1,4.215-.836c-1.313,5.435-4.088,6.84-5.268,7.2A12.02,12.02,0,0,0,1140.919,625.686Zm-37.9,4.115c-1.121-1.48-2.818-4.716-1.916-10.06a7.64,7.64,0,0,1,1.773-2.232c1.873-1.589,3.772-1.213,5.811-.084C1107.3,618.887,1102.637,624.239,1103.022,629.8Zm14.375-24.042a6.549,6.549,0,0,1,2.357-3.6c.109,0,.209.007.318.016l.025-.284a4.348,4.348,0,0,1,1.865-.879l.218-.032a48.254,48.254,0,0,1,6.513-.5c4.734,0,7.87,1.029,9.341,3.068,1.556,2.157,2.124,3.8,1.747,5.026-.318,1.012-1.329,1.807-3.093,2.441-.736.26-1.539.511-2.341.77-2.943.929-5.97,1.89-7.125,3.629-1.154-1.354-4.59-5.126-8.294-6.956A2.392,2.392,0,0,1,1117.4,605.759Zm78.646-37.454c0,8.562-.87,19.09-3.311,20.57l.009.009a30.565,30.565,0,0,0-7.961,6.088,7.266,7.266,0,0,0-1.772-4.834,18.128,18.128,0,0,0,3.394-7.919.059.059,0,0,0,.009-.034,6.655,6.655,0,0,1,4.909-4.4l-.143-.827a7.564,7.564,0,0,0-4.415,2.793,29.715,29.715,0,0,0,.075-5.311l-.829.076c.009.1.845,9.374-3.579,14.984a22.48,22.48,0,0,0-3.845-2.977c-1.573-1.045-3.054-2.031-3.554-3.143-.929-2.107.334-3.922,2.081-6.431a34.23,34.23,0,0,0,2.734-4.406c2.418-4.825.4-10.06.052-10.872.057-.8.609-7.124,4.524-7.617,1.656-.209,3.888.761,5.97,2.592C1193.116,559.056,1196.043,563.38,1196.043,568.305Zm-84.617,50.909c.177.134.352.259.527.384a29.367,29.367,0,0,0,4.6,2.911c-1.122.761-3.245,2.491-3.529,4.842C1112.02,626.665,1110.063,624.591,1111.426,619.214Zm-6.338-52.632c-3.27-1.672-5.243-3.654-5.886-5.9a6.206,6.206,0,0,1,.745-4.892,16.829,16.829,0,0,0,1.713-5.836,54.009,54.009,0,0,1,1.8-7.569,5,5,0,0,1,2.777-3.42,4.3,4.3,0,0,1,1.631-.293,7.83,7.83,0,0,1,3.193.786c.4,1.439,3.136,11.633.87,18.1-1.7,4.833-.752,10.687.093,14.132h-.009A22.56,22.56,0,0,0,1105.087,566.582Zm-79.508,86c.536-18.581,18.739-22.51,34.8-25.972,2.8-.6,5.444-1.17,7.978-1.814,12.26-3.093,18.916-5.886,21.825-7.308a117.907,117.907,0,0,0-8.271,13.923c-4.456,8.328-4.791,16.591-5.217,27.042-.143,3.581-.293,7.267-.62,11.323-1.3,16.132,8.329,18.564,8.421,18.582l.184.041.159-.109c.075-.05,1.924-1.43,6.422-9.524,4.558-8.212,7.778-34.912,7.9-40.59.025-1.054,0-2.266-.025-3.547-.066-3.729-.143-8.346.861-12.057-.05,6.054,3.211,8.712,3.379,8.838l.928.743-.268-1.161c-1.321-5.736,4.215-11.892,5.385-13.13.418.259.837.545,1.272.845-2.141,7.936,2.375,9.651,2.575,9.717l.586.209-.025-.618c-.1-2.659,2.918-4.675,3.654-5.118a8.3,8.3,0,0,0,1.237.368c4.859,1.029,7.794-.8,8.906-1.714a5.406,5.406,0,0,0,2.291,2.384,17.954,17.954,0,0,0,10.135,1.873,11.167,11.167,0,0,1,.861,6.238l-.091.534.534-.041c.2-.018,4.817-.493,6.6-8.153a8.619,8.619,0,0,1,2.207.375c2.985,3.813.309,12.8.284,12.894l-.359,1.171,1-.711a16.483,16.483,0,0,0,6.271-8.529c.209.2.427.409.645.636,7.192,7.308-2.35,22.268-2.968,23.222-.009.007-.009.007-.009.016a38.388,38.388,0,0,1-8.329,4.892c-8.278,4.022-17.668,8.58-17.434,24.46.1,6.815,2.015,12.342,5.7,16.491a15.651,15.651,0,0,1-6.69,4.4,15.205,15.205,0,0,0-.861-12.653l-.418-.786-.343.82c-.034.084-3.295,7.919-5.963,11.189l-2.266-4.274-4.24,3.529-1.89-5.477-5.645,5.779-4.974.427a24.377,24.377,0,0,1-3.338-1.973,24.58,24.58,0,0,0-7.794-3.672c-1.614-.527-3.445-1.129-5.8-2.1-1.529-.627-2.85-1.3-4.013-1.882-3.788-1.914-6.288-3.168-8.856.887a7.447,7.447,0,0,0-.693,1.4C1041.609,688.319,1024.986,672.9,1025.579,652.578Zm93.13,52.967a33.89,33.89,0,0,1-15.462-2.584l3.8-.327,4.908-5.034,1.849,5.336,4.373-3.638,2.35,4.415.4-.427c2.341-2.516,5.167-8.763,6.154-11.046a14.523,14.523,0,0,1,.134,11.815A39.728,39.728,0,0,1,1118.71,705.546Zm1.313,10.553c-16.866,3.479-31.676-1.664-34.837-11.974a54.14,54.14,0,0,1,7.652,1.588l.241-.795c-.343-.109-8.521-2.55-14.457-1.731a6.124,6.124,0,0,1-6.181-2.591,6.053,6.053,0,0,1,.159-6.633c2.157-3.42,3.914-2.533,7.768-.593,1.179.593,2.509,1.271,4.072,1.915,2.384.979,4.224,1.58,5.854,2.116a23.807,23.807,0,0,1,7.568,3.563c3.972,2.859,11.03,5.5,18.505,5.5.8,0,1.605-.025,2.408-.093,8.2-.643,13.4-2.634,16.775-6.456.327.343.661.678,1.02,1a22.459,22.459,0,0,0,4,2.875C1139.723,705.469,1135.174,712.979,1120.022,716.1Z" transform="translate(-881.652 -513.448)"/><path class="b" d="M1098.814,575.871l.009.009a30.559,30.559,0,0,0-7.961,6.088,7.266,7.266,0,0,0-1.772-4.834,18.129,18.129,0,0,0,3.394-7.919.06.06,0,0,0,.009-.034,6.656,6.656,0,0,1,4.909-4.4l-.143-.827a7.565,7.565,0,0,0-4.415,2.793,29.709,29.709,0,0,0,.075-5.311l-.829.077c.009.1.845,9.374-3.579,14.984a22.5,22.5,0,0,0-3.845-2.977c-1.573-1.045-3.054-2.031-3.554-3.143-.929-2.107.334-3.922,2.081-6.431a34.211,34.211,0,0,0,2.734-4.406c2.418-4.825.4-10.06.052-10.872.057-.8.609-7.124,4.523-7.617,1.656-.209,3.888.761,5.97,2.591,2.726,2.409,5.653,6.733,5.653,11.658C1102.125,563.862,1101.255,574.39,1098.814,575.871Z" transform="translate(-787.734 -500.443)"/><path class="a" d="M1079.72,646.678c-.846,1.681-5.4,9.19-20.547,12.31-16.866,3.479-31.676-1.664-34.837-11.974a54.156,54.156,0,0,1,7.652,1.588l.241-.795c-.343-.109-8.521-2.55-14.457-1.731a6.124,6.124,0,0,1-6.181-2.591,6.053,6.053,0,0,1,.159-6.633c2.157-3.42,3.914-2.533,7.768-.593,1.179.593,2.509,1.271,4.072,1.915,2.384.979,4.224,1.58,5.854,2.116a23.808,23.808,0,0,1,7.568,3.563c3.972,2.859,11.03,5.5,18.505,5.5.8,0,1.605-.025,2.407-.093,8.2-.643,13.4-2.634,16.775-6.456.327.343.661.678,1.02,1A22.468,22.468,0,0,0,1079.72,646.678Z" transform="translate(-820.803 -456.338)"/><path class="c" d="M1056.2,646.758a39.729,39.729,0,0,1-8.5,1.489,33.889,33.889,0,0,1-15.462-2.584l3.8-.327,4.908-5.034,1.849,5.336,4.374-3.638,2.35,4.415.4-.427c2.342-2.516,5.167-8.763,6.154-11.046A14.522,14.522,0,0,1,1056.2,646.758Z" transform="translate(-810.638 -456.15)"/><path class="c" d="M1032.776,596.793c-1.121-1.48-2.818-4.716-1.916-10.06a7.639,7.639,0,0,1,1.773-2.232c1.873-1.589,3.772-1.213,5.811-.084C1037.057,585.88,1032.39,591.232,1032.776,596.793Z" transform="translate(-811.405 -480.44)"/><path class="c" d="M1043.067,588.614c-1.121.761-3.245,2.491-3.529,4.842-1-.686-2.961-2.759-1.6-8.137.177.134.352.259.527.384A29.378,29.378,0,0,0,1043.067,588.614Z" transform="translate(-808.167 -479.553)"/><path class="c" d="M1070.218,593.1v.009a15.607,15.607,0,0,1-5.109,7.769c.595-2.443,1.64-7.986-.116-11.465A20.012,20.012,0,0,1,1070.218,593.1Z" transform="translate(-795.188 -477.624)"/><path class="c" d="M1064.011,588.831c-1.313,5.435-4.088,6.84-5.269,7.2a12.021,12.021,0,0,0-.911-5.9,9.957,9.957,0,0,0,1.162-.243l.8-.225A19.076,19.076,0,0,1,1064.011,588.831Z" transform="translate(-798.565 -477.897)"/><path class="d" d="M1108.924,620.1c-.009.007-.009.007-.009.016a38.4,38.4,0,0,1-8.329,4.892c-8.278,4.022-17.668,8.579-17.434,24.46.1,6.815,2.015,12.342,5.7,16.491a15.649,15.649,0,0,1-6.69,4.4,15.206,15.206,0,0,0-.861-12.653l-.418-.786-.343.82c-.034.084-3.3,7.919-5.963,11.189l-2.266-4.274-4.24,3.529-1.89-5.477-5.645,5.779-4.974.427a24.363,24.363,0,0,1-3.338-1.973,24.585,24.585,0,0,0-7.794-3.672c-1.614-.527-3.445-1.129-5.8-2.1-.434-.177-.861-.361-1.263-.544-1.011-.459-1.923-.92-2.75-1.338-3.788-1.914-6.288-3.168-8.856.888a7.431,7.431,0,0,0-.693,1.4c-29.587-6.59-46.21-22.009-45.617-42.331.536-18.581,18.739-22.51,34.8-25.972,2.8-.6,5.444-1.17,7.978-1.815,12.26-3.093,18.916-5.886,21.825-7.308a117.89,117.89,0,0,0-8.27,13.923c-4.456,8.328-4.792,16.591-5.217,27.042-.143,3.581-.293,7.267-.62,11.323-1.088,13.4,5.377,17.344,7.651,18.305a5.057,5.057,0,0,0,.77.277l.184.041.159-.109c.075-.05,1.923-1.43,6.422-9.524,4.558-8.212,7.777-34.912,7.9-40.59.025-1.054,0-2.266-.025-3.547-.066-3.729-.143-8.345.861-12.057-.05,6.054,3.211,8.712,3.379,8.838l.928.743-.268-1.161c-1.321-5.736,4.215-11.892,5.385-13.13.418.259.837.545,1.271.845-2.141,7.936,2.375,9.651,2.575,9.717l.586.209-.025-.618c-.1-2.659,2.918-4.675,3.654-5.118a8.3,8.3,0,0,0,1.237.368c4.859,1.029,7.794-.8,8.906-1.714a5.407,5.407,0,0,0,2.291,2.384,17.952,17.952,0,0,0,10.135,1.873,11.169,11.169,0,0,1,.861,6.238l-.091.534.534-.041c.2-.018,4.817-.493,6.6-8.153a8.606,8.606,0,0,1,2.207.375c2.985,3.813.309,12.8.284,12.894l-.359,1.171,1-.711a16.482,16.482,0,0,0,6.271-8.529c.209.2.427.409.645.636C1119.084,604.186,1109.542,619.147,1108.924,620.1Z" transform="translate(-835.533 -480.107)"/><path class="e" d="M1090.359,619.98c-.009.007-.009.007-.009.016a38.4,38.4,0,0,1-8.329,4.892c-8.278,4.022-17.668,8.58-17.434,24.46.1,6.815,2.015,12.342,5.7,16.491a15.653,15.653,0,0,1-6.69,4.4,15.206,15.206,0,0,0-.861-12.653l-.418-.786-.343.82c-.034.084-3.295,7.919-5.963,11.189l-2.266-4.274-4.24,3.529-1.89-5.477-5.645,5.779-4.974.427a24.368,24.368,0,0,1-3.338-1.973,24.582,24.582,0,0,0-7.794-3.672c-1.614-.527-3.445-1.129-5.8-2.1-.434-.177-.861-.361-1.263-.544,0-1.788.084-3.763.234-5.886a5.07,5.07,0,0,0,.77.277l.184.041.159-.109c.075-.05,1.924-1.43,6.422-9.524,4.558-8.212,7.777-34.912,7.9-40.59.025-1.054,0-2.266-.025-3.546-.066-3.729-.143-8.346.861-12.057-.05,6.054,3.211,8.712,3.379,8.838l.929.743-.268-1.161c-1.321-5.736,4.215-11.892,5.385-13.13.418.259.837.544,1.272.845-2.141,7.936,2.375,9.651,2.575,9.717l.586.209-.025-.618c-.1-2.659,2.918-4.675,3.654-5.118a8.3,8.3,0,0,0,1.238.368c4.859,1.029,7.794-.8,8.906-1.714a5.406,5.406,0,0,0,2.292,2.384,17.954,17.954,0,0,0,10.135,1.873,11.168,11.168,0,0,1,.861,6.238l-.091.534.534-.041c.2-.018,4.817-.493,6.6-8.153a8.612,8.612,0,0,1,2.207.375c2.985,3.813.309,12.8.284,12.894l-.359,1.171,1-.711a16.483,16.483,0,0,0,6.271-8.529c.209.2.427.409.645.636C1100.519,604.066,1090.977,619.026,1090.359,619.98Z" transform="translate(-816.968 -479.987)"/><g transform="translate(296.394 60.626)"><path class="f" d="M1218.187,555.457c-.007,0-.025.007-.066.016-1.1.25-14.9,3.429-31.108,5.393-5.343.652-12.994.561-21.858.461-19.735-.218-44.3-.5-62.433,6.722a41.8,41.8,0,0,0-4.515,2.1c-.009.007-.018.007-.025.016-19.661,10.653-13.714,29.928-13.03,31.944.025.066.042.116.051.141l-.787.284c-.007-.032-.191-.543-.409-1.422-.987-3.913-2.884-15.168,4.867-24.526.293-.352.595-.7.92-1.045a30.563,30.563,0,0,1,7.961-6.088c.552-.309,1.12-.6,1.715-.895h.007c.929-.443,1.907-.879,2.936-1.288,18.279-7.284,42.94-7,62.749-6.783,8.831.1,16.457.193,21.75-.45,7.76-.946,14.96-2.159,20.479-3.195.411-.084.811-.159,1.205-.234,5.711-1.1,9.323-1.948,9.4-1.966l.157.679Z" transform="translate(-1083.061 -554.645)"/></g><g transform="translate(339.895 76.431)"><path class="f" d="M1251.024,565.971q-.174.187-.375.377a41.176,41.176,0,0,1-3.915,3.336c-.241.193-.493.377-.752.568-16.257,11.967-52.28,26.367-75.77,27.5-11.2.536-23.172,3.6-33.239,6.958-.844.284-1.682.568-2.493.852A199.668,199.668,0,0,0,1113,614.429l-.377-.752a204.723,204.723,0,0,1,23.951-9.717h.007c10.161-3.4,22.252-6.5,33.592-7.049,25.462-1.23,65.751-18.121,79.147-30.456.343-.316.669-.627.97-.945a1.3,1.3,0,0,0,.134-.125l.1.1Z" transform="translate(-1112.621 -565.385)"/></g><g transform="translate(449.547)"><path class="f" d="M1264.469,549.423c-3.947,9.491-16.709,11.557-18.531,11.807-1.146,1.807-11.281,17.594-19.275,24.376a21.121,21.121,0,0,1-11.155,5.236c-.47.057-.92.091-1.33.107-.2.009-.393.009-.577.009a11.536,11.536,0,0,1-3.161-.384l.252-.795a12.293,12.293,0,0,0,4.456.225,1.05,1.05,0,0,0,.234-.025,20.327,20.327,0,0,0,10.738-5.008c8.346-7.083,19.107-24.175,19.216-24.352l.1-.166.2-.025c.143-.018,14.091-1.764,18.063-11.323,1.556-3.747,1.221-6.908-.945-8.906-2.35-2.182-6.515-2.6-9.676-.986-5.66,2.9-14.357,4.574-17.468,4.29l-.443-.043.075-.443c.009-.091,1.6-9.415,5.711-16.1,2.066-3.363,2-7.569-.175-10.237-2.016-2.466-5.427-3.068-9.358-1.638-6.6,2.4-10.11,10.528-12.426,15.9-1.163,2.693-2.007,4.641-2.918,5.277l-2.718,1.907-.184-.043a6.165,6.165,0,0,1-4.7-6.615c.35-4.7-.436-11.246-3.822-14.248-1.8-1.589-4.2-2.1-7.133-1.514-3.588.7-6.1,2.191-7.66,4.524-2.727,4.089-1.974,10.119-1.013,14.919.661,3.32.527,7.685.393,12.3-.209,6.8-.418,13.823,2.091,17.068.034.059.084.109.125.168l-.643.534a5.606,5.606,0,0,1-.569-.811c-2.241-3.67-2.032-10.428-1.84-16.984.134-4.565.268-8.889-.377-12.108-.995-4.958-1.764-11.2,1.138-15.545,1.673-2.5,4.432-4.148,8.2-4.892,3.2-.628,5.845-.05,7.844,1.714,4.658,4.138,4.24,13.169,4.106,14.943a5.223,5.223,0,0,0,3.872,5.686l2.417-1.689c.719-.5,1.605-2.55,2.625-4.925,2.375-5.5,5.972-13.83,12.912-16.348,4.29-1.563,8.036-.87,10.294,1.89,2.391,2.936,2.491,7.543.234,11.2-3.5,5.7-5.143,13.4-5.519,15.337a44.438,44.438,0,0,0,16.557-4.224c3.454-1.765,8.019-1.288,10.619,1.112C1264.736,540.885,1266.76,543.9,1264.469,549.423Z" transform="translate(-1187.133 -513.448)"/></g><g transform="translate(431.196 50.811)"><path class="f" d="M1203.352,564.673a21.9,21.9,0,0,1-4.181,3.093,7.557,7.557,0,0,1-.729.411,23.967,23.967,0,0,1-11.1,2.868,15.279,15.279,0,0,1-8.563-2.341,9.227,9.227,0,0,1-4.081-8.588,11.476,11.476,0,0,1,.227-1.5c.007-.05.025-.1.032-.15a12.885,12.885,0,0,1,7.226-8.5c4.432-2.081,9.826-2.2,13.948-1.839.377.034.736.068,1.088.109a41.5,41.5,0,0,1,5.318.929l-.218.811c-.116-.034-11.782-3-19.784.745a11.732,11.732,0,0,0-7,9.449,8.4,8.4,0,0,0,3.713,7.835c6.121,4.123,16.9,2.316,23.538-3.947Z" transform="translate(-1174.663 -547.975)"/></g><g transform="translate(454.761 68.192)"><path class="f" d="M1201.245,568.037a12.665,12.665,0,0,1-10.569-5.763l.725-.415a11.673,11.673,0,0,0,12.775,5.023c8.791-1.857,11.259-7.045,11.284-7.1l.761.344c-.1.23-2.637,5.62-11.873,7.57A14.952,14.952,0,0,1,1201.245,568.037Z" transform="translate(-1190.676 -559.786)"/></g><g transform="translate(426.921 112.328)"><path class="f" d="M1241.022,614.123c-.009.016-.075.141-.193.359-1.672,2.986-14.007,23.624-34.46,23.624-.35,0-.694-.009-1.045-.018-6.029-.209-10.4-1.865-13.4-5.076-5.285-5.669-4.934-14.993-4.633-23.213.1-2.6.191-5.059.091-7.233a11.613,11.613,0,0,0-1.538-5.486c-.159-.259-.318-.509-.495-.745-4.122-5.744-13.087-5.728-13.587-5.719l-.009-.837c.167-.016,15.905-.041,16.464,12.753.1,2.207.009,4.675-.091,7.292-.3,8.061-.636,17.2,4.415,22.62,2.827,3.036,7.016,4.608,12.8,4.808,19.384.652,31.584-17.829,34.327-22.469.327-.536.518-.887.577-1,.016-.025.025-.034.025-.041l.043.025Z" transform="translate(-1171.758 -589.778)"/></g><g transform="translate(489.822 110.951)"><path class="f" d="M1244.672,592.137c-.084.25-.177.518-.293.811-1.046,2.7-3.345,6.774-8.329,12.251a33.146,33.146,0,0,1-15.378,9.724q-.6.177-1.154.3a22.466,22.466,0,0,1-4.992.727h-.025l.016-.836a22.194,22.194,0,0,0,5.577-.895.315.315,0,0,0,.068-.016,32.3,32.3,0,0,0,15.269-9.567c9.524-10.462,8.972-15.629,8.964-15.68l.829-.116A7.823,7.823,0,0,1,1244.672,592.137Z" transform="translate(-1214.501 -588.842)"/></g><g transform="translate(454.792 87.546)"><path class="f" d="M1240.82,587.01a11.249,11.249,0,0,1-10.5,9.576c-.359.032-.718.041-1.07.041-.15,0-.293-.009-.443-.016-4.131-.184-8.454-2.627-9.174-7.768l.829-.118c.718,5.168,5.184,7.033,8.8,7.067a10.49,10.49,0,0,0,10.737-8.906c.7-4.549.066-7.935-1.907-10.085-2.166-2.366-5.911-3.327-11.448-2.943-8.245.568-21.566,9.751-24.434,18.714-2.768,8.672-7.986,21.215-10.837,25.02l-.67-.5c2.518-3.361,7.719-15.394,10.712-24.769,1.172-3.688,4.065-7.4,7.652-10.571.3-.284.618-.552.936-.811,5.26-4.4,11.766-7.585,16.582-7.919,4.115-.284,7.31.159,9.651,1.354a8.863,8.863,0,0,1,.777.445,8.155,8.155,0,0,1,1.7,1.413C1240.854,578.582,1241.564,582.2,1240.82,587.01Z" transform="translate(-1190.697 -572.938)"/></g><g transform="translate(500.091 85.067)"><path class="f" d="M1250.387,582.5a14.523,14.523,0,0,1-1.113,5.586c-2.007,4.983-8.261,8.521-12.619,8.521a6.567,6.567,0,0,1-.827-.05,20.378,20.378,0,0,1-8.454-3.563l.493-.668c.041.025,4.022,2.926,8.053,3.4,4.056.461,10.571-2.968,12.576-7.953.812-2,1.891-5.861.043-9.315-1.5-2.826-4.641-4.758-9.324-5.753-9.767-2.066-15.253,1.681-16.725,2.9a3.659,3.659,0,0,0-.409.359l-.6-.577c.025-.025.1-.109.234-.227,1.213-1.095,6.915-5.552,17.67-3.277,4.942,1.045,8.269,3.127,9.9,6.179a9.4,9.4,0,0,1,1.063,3.6C1250.369,581.951,1250.387,582.227,1250.387,582.5Z" transform="translate(-1221.479 -571.253)"/></g><g transform="translate(519.239 95.367)"><path class="f" d="M1255.84,599.138a11.952,11.952,0,0,1-8.321,3.972,7.57,7.57,0,0,1-2.533-.427,47.263,47.263,0,0,1-10.035-4.742c-.286-.184-.436-.3-.461-.318l.5-.67q.013.013.252.177a45.9,45.9,0,0,0,10.026,4.767c3.052,1.086,6.965-.218,9.958-3.338,2.693-2.792,4.875-7.526,2.92-12.417-3.145-7.86-12.051-7.174-13.9-6.94-.209.025-.336.05-.343.05l-.152-.82c.018,0,.177-.034.452-.059,2.157-.259,11.4-.845,14.717,7.46C1261.033,591.093,1258.708,596.152,1255.84,599.138Z" transform="translate(-1234.491 -578.253)"/></g><g transform="translate(477.251 110.453)"><path class="f" d="M1214.905,591.983a18.015,18.015,0,0,1-8.946-2.572l.462-.7c.084.057,8.628,5.582,16.3-.209l.5.667A13.531,13.531,0,0,1,1214.905,591.983Z" transform="translate(-1205.959 -588.504)"/></g><g transform="translate(473.138 80.462)"><path class="f" d="M1204.118,583.209c-.041.343-.084.686-.125,1.038l-.829-.1c.009-.041.009-.082.018-.125a59.777,59.777,0,0,0,.1-15.06c-.068-.434-.109-.668-.109-.677l.82-.159c0,.009.016.1.041.268A58.18,58.18,0,0,1,1204.118,583.209Z" transform="translate(-1203.164 -568.124)"/></g><g transform="translate(392.678 118.669)"><path class="f" d="M1197.173,594.58c-.116.159-.234.309-.35.468-11.858,15.78-25.924,19.175-35.807,19.175a40.056,40.056,0,0,1-12.092-1.773c-.268-.084-.418-.141-.434-.15l.3-.778c.034.009.36.134.953.31,4.992,1.5,28.448,6.865,46.585-17.528a1.975,1.975,0,0,0,.168-.216Z" transform="translate(-1148.489 -594.087)"/></g><g transform="translate(381.247 123.477)"><path class="f" d="M1163.859,597.765a40.687,40.687,0,0,1-10.453,12.526c-.276.216-.543.425-.819.618a23.58,23.58,0,0,1-11.364,4.667c-.3.025-.468.025-.495.025h-.007l.007-.836a7.447,7.447,0,0,0,.921-.075,21.153,21.153,0,0,0,6.7-2.166c4.365-2.2,9.926-6.547,14.785-15.169Z" transform="translate(-1140.721 -597.354)"/></g><g transform="translate(250.98 120.709)"><path class="f" d="M1191.874,595.757c-.066.177-3.4,9.233-8.478,19.819-.143.293-.286.593-.427.886-4.75,9.808-10.947,20.722-17.36,27.019-15.1,14.8-33.348,30.907-58.979,34.854a162.949,162.949,0,0,1-24.542,2.115c-12.869,0-22.654-2.249-29.637-6.79-.082-.05-.166-.1-.25-.159l.468-.693.577.375c10.612,6.674,28.531,8.129,53.259,4.324,25.379-3.9,43.517-19.918,58.518-34.619,13.464-13.2,25.94-47.071,26.065-47.414Z" transform="translate(-1052.201 -595.473)"/></g><g transform="translate(352.308 115.006)"><path class="f" d="M1121.824,605.436l-.768-.328A35.527,35.527,0,0,1,1132.6,591.6l.478.686A34.674,34.674,0,0,0,1121.824,605.436Z" transform="translate(-1121.056 -591.598)"/></g><g transform="translate(358.284 45.265)"><path class="f" d="M1155.622,553.481l-.543.636c-11.916-10.219-24.226-9.383-28.323-8.731a12.777,12.777,0,0,0-1.422.277l-.218-.8c.009,0,.025-.009.068-.016a34.45,34.45,0,0,1,22.861,3.486q.753.388,1.505.828A40.242,40.242,0,0,1,1155.622,553.481Z" transform="translate(-1125.117 -544.207)"/></g><g transform="translate(381.113 49.367)"><path class="f" d="M1181.588,560.31l-.452.7c-.3-.193-.593-.377-.895-.561-18.371-11.39-33.314-12.56-38.006-12.61-.979-.025-1.505.016-1.539.016l-.066-.836a.656.656,0,0,0,.1-.009c1.472-.066,18.789-.636,40.716,13.2Z" transform="translate(-1140.63 -546.994)"/></g><g transform="translate(247.615 96.341)"><path class="f" d="M1100.784,590.665c-.384-.335-.761-.661-1.145-1q-1.267-1.077-2.534-2.132c-12.786-10.653-21.859-8.646-23.547-8.136a2.124,2.124,0,0,0-.277.093l-.452.168.234.425c.009.018.025.043.034.059l.009.009a6.109,6.109,0,0,0,2.534,2.693c1.186.743,2.984,1.881,6.74,6.606,5.786,7.292,2.525,22.268-4.2,30.521a.009.009,0,0,1-.009.009,20.937,20.937,0,0,1-2.45,2.559c-.007.007-.025.016-.032.025s-.009.007-.009.016a38.4,38.4,0,0,1-8.329,4.892c-8.278,4.022-17.668,8.579-17.434,24.46.1,6.815,2.015,12.342,5.7,16.491.184.209.377.418.577.618.327.343.661.678,1.02,1a22.461,22.461,0,0,0,4,2.876c.241.134.484.277.736.4,5.585,2.936,12.065,3.688,17.234,3.688,1.8,0,3.436-.093,4.825-.218,15.068-1.322,37.438-14.048,39.97-38.2C1126.323,616.353,1113.9,602.087,1100.784,590.665Zm22.37,47.839c-2.493,23.674-24.426,36.15-39.211,37.446-6.438.568-18.4.468-26.165-6.54-4.549-4.106-6.915-9.992-7.024-17.493-.227-15.344,8.906-19.777,16.966-23.69a38.465,38.465,0,0,0,8.555-5.059c5.929-5.185,10.1-15.553,9.885-24.242a23.491,23.491,0,0,0-.193-2.459v-.009a15.1,15.1,0,0,0-2.934-7.526c-3.838-4.833-5.711-6.011-6.949-6.8a5.023,5.023,0,0,1-2.024-2c2.073-.509,10.728-1.772,22.51,8.045C1110.753,600,1125.662,614.6,1123.154,638.5Z" transform="translate(-1049.914 -578.914)"/><path class="d" d="M1122.886,638.223c-2.493,23.674-24.426,36.15-39.211,37.447-6.438.568-18.4.468-26.165-6.54-4.549-4.106-6.915-9.992-7.024-17.493-.227-15.344,8.906-19.777,16.966-23.69a38.45,38.45,0,0,0,8.554-5.059c5.929-5.184,10.1-15.553,9.885-24.242,1.622,3.913,4.6,12.71,2.809,21.006l.82.175c2.425-11.2-3.6-23.238-3.822-23.64v-.009a15.1,15.1,0,0,0-2.934-7.526c-3.838-4.833-5.711-6.011-6.949-6.8a5.024,5.024,0,0,1-2.023-2c2.073-.509,10.728-1.772,22.51,8.045C1110.485,599.715,1125.394,614.315,1122.886,638.223Z" transform="translate(-1049.646 -578.634)"/></g><g transform="translate(282.924 113.885)"><path class="f" d="M1078.473,614.485l-.82-.175c1.789-8.3-1.187-17.093-2.809-21.006-.535-1.3-.92-2.049-.936-2.082l.743-.386v.009C1074.869,591.247,1080.9,603.287,1078.473,614.485Z" transform="translate(-1073.908 -590.836)"/></g><g transform="translate(194.305 87.773)"><path class="f" d="M1095.266,622.719a.009.009,0,0,1-.009.009c-.945,1.773-1.714,2.934-1.822,3.1l-.695-.468a.191.191,0,0,1,.025-.034c0-.009,0-.009.009-.016.618-.954,10.16-15.914,2.968-23.222-.218-.227-.436-.436-.645-.636-.234-.234-.459-.452-.686-.652v-.009a20.017,20.017,0,0,0-5.226-3.688,11.46,11.46,0,0,0-1.288-.477,8.611,8.611,0,0,0-2.207-.375,7,7,0,0,0-.862,0,19.078,19.078,0,0,0-4.215.836l-.8.225a9.96,9.96,0,0,1-1.163.243c-.275.05-.568.091-.861.118a17.953,17.953,0,0,1-10.135-1.873,5.406,5.406,0,0,1-2.292-2.384c-1.112.912-4.047,2.743-8.906,1.714a8.3,8.3,0,0,1-1.237-.368c-.309-.109-.627-.243-.936-.384a29.359,29.359,0,0,1-4.6-2.911c-.175-.125-.35-.25-.527-.384-.241-.168-.484-.343-.727-.511-.434-.3-.854-.586-1.272-.845-.25-.159-.493-.3-.736-.434-2.04-1.129-3.938-1.506-5.811.084a7.639,7.639,0,0,0-1.773,2.232,12.845,12.845,0,0,0-1.1,2.827c-1,3.711-.927,8.328-.861,12.057.025,1.28.05,2.493.025,3.547-.125,5.677-3.345,32.378-7.9,40.59-4.5,8.094-6.347,9.474-6.422,9.524l-.159.109-.184-.041c-.091-.018-9.724-2.45-8.42-18.582.327-4.056.477-7.742.62-11.323.425-10.451.761-18.714,5.217-27.042a117.884,117.884,0,0,1,8.27-13.923h.009c.4-.544.811-1.071,1.22-1.581a.009.009,0,0,1,.009-.009c3.7-4.533,7.827-7.417,12.476-6.213a8.621,8.621,0,0,1,2.752-5.176c2.718-2.509,7.033-3.588,12.827-3.211h.009c.218.007.436.025.652.041l-.041.552-.025.284c-.109-.009-.209-.016-.318-.016-.393-.034-.786-.059-1.17-.068-5.118-.209-8.931.8-11.348,3.02a7.644,7.644,0,0,0-2.543,5.126v.568l-.543-.175c-8.688-2.784-16.1,11.064-21.5,21.174-4.365,8.161-4.7,16.33-5.117,26.683-.15,3.588-.3,7.284-.627,11.356-1.146,14.266,6.22,17.227,7.585,17.645.493-.477,2.366-2.509,6.045-9.131,4.5-8.1,7.668-34.562,7.794-40.2.025-1.036,0-2.24-.025-3.52-.1-5.961-.252-14.141,4.031-17.761,3.336-2.827,6.781-.343,10.1,2.048,2.082,1.5,4.224,3.043,6.463,3.52,5.72,1.213,8.5-1.8,8.606-1.923l.543-.611.184.795a4.173,4.173,0,0,0,2.124,2.518,16.957,16.957,0,0,0,11.506,1.413l.8-.218c4.365-1.213,8.487-2.358,15.946,5.218C1102.181,607.442,1097.991,617.6,1095.266,622.719Z" transform="translate(-1013.688 -573.092)"/></g><g transform="translate(257.391 90.308)"><path class="f" d="M1069.976,582.089c-6.7-7.819-13.152-6.315-13.218-6.3l-.2-.812c.282-.069,7.02-1.641,14.055,6.566Z" transform="translate(-1056.557 -574.814)"/></g><g transform="translate(234.867 86.167)"><path class="f" d="M1064.473,577.042c-.134-.252-.293-.511-.468-.779s-.36-.543-.561-.827c-3.413-4.717-13.371-3.354-16.641-2.9l-.225.034a5.4,5.4,0,0,0-2.359,1.113h-.009a8.648,8.648,0,0,0-.893.793,6.87,6.87,0,0,0-2.016,3.538,3.236,3.236,0,0,0,1.991,3.579c4.29,2.116,8.378,7.167,8.421,7.217l.468.577.25-.695c.644-1.747,3.964-2.8,6.9-3.729.82-.259,1.623-.511,2.375-.777,2.032-.729,3.211-1.707,3.6-2.977A5.335,5.335,0,0,0,1064.473,577.042Zm.041,3.913c-.318,1.012-1.329,1.807-3.093,2.441-.736.261-1.539.511-2.341.77-2.943.929-5.97,1.89-7.126,3.629-1.154-1.354-4.59-5.126-8.294-6.956a2.392,2.392,0,0,1-1.53-2.693,6.55,6.55,0,0,1,2.357-3.6,3.528,3.528,0,0,1,.343-.268,4.353,4.353,0,0,1,1.865-.879l.218-.032a48.253,48.253,0,0,1,6.514-.5c4.734,0,7.87,1.029,9.341,3.068C1064.322,578.086,1064.89,579.726,1064.514,580.955Z" transform="translate(-1041.251 -572)"/><path class="f" d="M1064.245,580.679c-.318,1.012-1.329,1.807-3.093,2.441-.736.26-1.539.511-2.341.77-2.943.928-5.97,1.89-7.125,3.629-1.154-1.354-4.59-5.126-8.294-6.956a2.392,2.392,0,0,1-1.53-2.693,6.551,6.551,0,0,1,2.358-3.6c.109,0,.209.007.318.016l.025-.284a4.351,4.351,0,0,1,1.865-.879l.218-.032a48.235,48.235,0,0,1,6.513-.5c4.734,0,7.87,1.029,9.341,3.068C1064.054,577.811,1064.622,579.45,1064.245,580.679Z" transform="translate(-1040.982 -571.725)"/></g><g transform="translate(268.441 110.674)"><path class="f" d="M1071.524,593.4a6.917,6.917,0,0,1-.184.72,16.483,16.483,0,0,1-6.271,8.53l-1,.711.359-1.171c.025-.091,2.7-9.081-.284-12.894l-.075-.1.643-.536a5.582,5.582,0,0,1,.719,1.113c1.756,3.479.711,9.022.116,11.465a15.608,15.608,0,0,0,5.109-7.769v-.009c.034-.134.05-.209.05-.218Z" transform="translate(-1064.066 -588.654)"/></g><g transform="translate(258.288 110.408)"><path class="f" d="M1065.271,588.648c-.026.116-.052.234-.084.352-1.782,7.66-6.4,8.135-6.6,8.153l-.534.041.091-.534a11.168,11.168,0,0,0-.861-6.238c-.068-.159-.118-.243-.118-.252l.736-.393c.018.034.109.218.243.527a12.022,12.022,0,0,1,.911,5.9c1.18-.359,3.956-1.764,5.268-7.2.05-.168.084-.343.127-.527Z" transform="translate(-1057.167 -588.473)"/></g><g transform="translate(228.471 104.971)"><path class="f" d="M1044.429,589.161a1.607,1.607,0,0,0-.159.091c-.736.443-3.754,2.459-3.654,5.118l.025.618-.586-.209c-.2-.066-4.717-1.781-2.575-9.717.025-.091.05-.184.075-.284l.8.225c-.059.193-.109.385-.151.569-1.363,5.377.594,7.451,1.6,8.137.284-2.35,2.408-4.081,3.529-4.842.384-.268.652-.418.693-.443Z" transform="translate(-1036.905 -584.779)"/></g><g transform="translate(218.35 103.591)"><path class="f" d="M1039.452,584.661c-1.17,1.238-6.706,7.393-5.385,13.13l.268,1.161-.929-.743c-.168-.127-3.429-2.784-3.379-8.838a18.668,18.668,0,0,1,.284-3.045l.829.143a.214.214,0,0,0-.009.075c-.9,5.343.795,8.58,1.916,10.06-.386-5.561,4.281-10.913,5.669-12.376.209-.218.352-.352.385-.386l.577.594Z" transform="translate(-1030.027 -583.841)"/></g><g transform="translate(202.538 190.007)"><path class="f" d="M1076.6,642.856a4.34,4.34,0,0,1-.2.443c-.578,1.188-2.552,4.533-7.628,7.676-.259.159-.518.318-.795.477a42.447,42.447,0,0,1-12.693,4.575,52.179,52.179,0,0,1-10.428,1.095c-12.846,0-23.038-5.285-25.479-13.991a3.279,3.279,0,0,1-.093-.318l.811-.209c.059.209.118.427.184.628,3.161,10.31,17.971,15.453,34.837,11.974,15.152-3.12,19.7-10.629,20.547-12.31.1-.209.15-.325.15-.334Z" transform="translate(-1019.283 -642.563)"/></g><g transform="translate(189.055 177.38)"><path class="f" d="M1075.273,642.721c-.1.116-.2.234-.309.35-3.37,3.822-8.579,5.813-16.775,6.456-.8.068-1.606.093-2.408.093-7.476,0-14.533-2.643-18.505-5.5a23.808,23.808,0,0,0-7.568-3.563c-1.63-.536-3.47-1.137-5.854-2.116-1.563-.643-2.893-1.322-4.072-1.914-3.854-1.94-5.611-2.827-7.768.593a6.053,6.053,0,0,0-.159,6.633,6.124,6.124,0,0,0,6.181,2.592c5.936-.82,14.114,1.622,14.457,1.731l-.241.795a54.138,54.138,0,0,0-7.652-1.588l-.9-.1a24.186,24.186,0,0,0-5.545-.007,6.936,6.936,0,0,1-7-2.97,6.708,6.708,0,0,1-.8-5.335,6,6,0,0,1,.26-.8,7.441,7.441,0,0,1,.693-1.4c2.568-4.056,5.068-2.8,8.856-.887,1.163.586,2.484,1.255,4.013,1.882,2.35.97,4.181,1.572,5.8,2.1a24.582,24.582,0,0,1,7.794,3.672,24.368,24.368,0,0,0,3.338,1.973c.5.241,1.011.484,1.554.711h.009a33.893,33.893,0,0,0,15.462,2.584,39.729,39.729,0,0,0,8.5-1.489c.368-.116.711-.234,1.061-.359h.009a15.65,15.65,0,0,0,6.69-4.4,2.473,2.473,0,0,0,.243-.268Z" transform="translate(-1010.121 -633.983)"/></g><g transform="translate(219.924 176.811)"><path class="f" d="M1057.805,647.035h-.009a9.147,9.147,0,0,1-.393.9l-.736-.393c0-.007.025-.057.068-.15a14.521,14.521,0,0,0-.134-11.815c-.988,2.282-3.813,8.529-6.154,11.046l-.4.427-2.35-4.415-4.373,3.638-1.849-5.336-4.908,5.034-3.8.327h-.009l-1.588.134-.075-.837.109-.007,4.974-.427,5.645-5.779,1.89,5.477,4.24-3.529,2.266,4.274c2.668-3.27,5.929-11.1,5.963-11.189l.343-.82.418.786A15.206,15.206,0,0,1,1057.805,647.035Z" transform="translate(-1031.097 -633.596)"/></g><g transform="translate(143.075 102.362)"><path class="f" d="M1046.158,583.708a20.027,20.027,0,0,1-1.814.971h-.009c-2.909,1.422-9.566,4.215-21.825,7.308-2.534.645-5.176,1.213-7.978,1.815-16.064,3.463-34.268,7.392-34.8,25.972-.593,20.321,16.03,35.741,45.617,42.331.116.032.234.057.35.082l-.175.82-.436-.1c-29.969-6.7-46.8-22.411-46.192-43.158.5-17.184,15.353-22.21,30.18-25.6.736-.168,1.479-.334,2.216-.493q1.541-.34,3.068-.67c2.793-.6,5.435-1.17,7.953-1.806a138.921,138.921,0,0,0,18.213-5.745c.3-.118.586-.243.861-.352a41.978,41.978,0,0,0,4.181-1.981.009.009,0,0,1,.009-.009c.093-.05.143-.084.143-.084Z" transform="translate(-978.876 -583.006)"/></g><g transform="translate(204.712 47.071)"><path class="f" d="M1119.175,579.887a8.085,8.085,0,0,1-.1,1.229l-.828-.125c0-.018.009-.043.009-.059.652-4.541-2.743-6.8-5.736-8.8-1.748-1.163-3.261-2.166-3.856-3.5-1.129-2.534.327-4.608,2.157-7.242a33.631,33.631,0,0,0,2.677-4.306c1.722-3.445.97-7.226.409-9.081-1.655,5.185-3.956,8.446-7.008,9.942-3,1.472-6.772,1.254-11.547-.668-8.729-3.522-14.659,1.606-14.718,1.656l-.577-.6c.016-.009,1.054-1.1.645-2.132-.327-.828-1.873-2.266-8.53-2.559-4.85-.218-8.354.7-10.437,2.725a5.948,5.948,0,0,0-1.864,3.99l.025,1.3-.779-1.045c-1.655-2.225-3.109-3.286-4.724-3.445-3.52-.343-8.429,3.545-18.1,12.376-12.669,11.573-14.434,29.619-14.66,33.255-.025.411-.032.636-.032.654l-.837-.018c0-.016,0-.109.009-.284.125-2.584,1.531-21.959,14.96-34.227a132.117,132.117,0,0,1,11.414-9.683c.252-.175.493-.343.736-.5,2.718-1.823,4.766-2.575,6.6-2.409,1.647.159,3.118,1.088,4.683,2.977a6.925,6.925,0,0,1,1.973-3.52c2.249-2.207,5.97-3.22,11.071-2.986,5.445.243,8.563,1.289,9.274,3.095a2.287,2.287,0,0,1,.084,1.388,15.679,15.679,0,0,1,14.107-.786c4.533,1.832,8.086,2.057,10.862.695,3.052-1.5,5.318-4.959,6.924-10.6.009-.016.009-.034.018-.05l.309-1.113.468,1.054a.77.77,0,0,1,.043.1c.35.812,2.366,6.047-.051,10.872a34.233,34.233,0,0,1-2.734,4.406c-1.747,2.509-3.009,4.324-2.081,6.431.5,1.113,1.981,2.1,3.554,3.143a22.48,22.48,0,0,1,3.845,2.977,7.888,7.888,0,0,1,2.35,5.47Z" transform="translate(-1020.76 -545.434)"/></g><g transform="translate(297.407 39.737)"><path class="f" d="M1101.57,555.571c0,3.829-.193,15.193-2.418,19.684h-.007a3.781,3.781,0,0,1-1.263,1.589c-.009.007-.018.007-.025.016l-.427-.711-.009-.009c2.441-1.48,3.311-12.008,3.311-20.57,0-4.925-2.927-9.249-5.653-11.658-2.082-1.831-4.315-2.8-5.97-2.591-3.914.493-4.466,6.815-4.524,7.617v.084l-.837-.032v-.043c.034-.695.527-7.86,5.252-8.462,1.923-.243,4.34.777,6.631,2.8C1098.5,545.811,1101.57,550.369,1101.57,555.571Z" transform="translate(-1083.749 -540.45)"/></g><g transform="translate(300.485 60.994)"><path class="f" d="M1090.465,560.206c-.084.77-.193,1.588-.352,2.432a.058.058,0,0,1-.009.034,18.126,18.126,0,0,1-3.394,7.919c-.076.093-.151.177-.227.268l-.643-.543c.1-.118.2-.243.292-.361,4.424-5.61,3.588-14.884,3.579-14.984l.829-.077A29.7,29.7,0,0,1,1090.465,560.206Z" transform="translate(-1085.841 -554.895)"/></g><g transform="translate(303.887 63.512)"><path class="f" d="M1093.932,557.433a6.655,6.655,0,0,0-4.909,4.4.059.059,0,0,1-.009.034c-.025.066-.041.134-.066.209l-.795-.243a7.816,7.816,0,0,1,1.222-2.432,7.565,7.565,0,0,1,4.415-2.793Z" transform="translate(-1088.153 -556.606)"/></g><g transform="translate(231.243 67.462)"><path class="f" d="M1057.76,576.98c-5.619,0-7.664-5.71-9.479-10.774-.4-1.123-.783-2.182-1.189-3.151a4.475,4.475,0,0,0-2.594-2.664c-2.4-.855-5.286.651-5.316.665l-.393-.739c.131-.069,3.229-1.694,5.985-.715a5.264,5.264,0,0,1,3.088,3.129c.417.989.8,2.059,1.207,3.192,1.791,5,3.82,10.663,9.373,10.191,6.675-.571,6.942-7.688,6.95-7.989l.836.021c0,.081-.288,8.166-7.715,8.8C1058.254,576.97,1058,576.98,1057.76,576.98Z" transform="translate(-1038.789 -559.291)"/></g><g transform="translate(277.091 74.876)"><path class="f" d="M1079.67,569.249a6.967,6.967,0,0,0-3.494-3.683c-1.67-.681-3.645-.489-5.872.571l-.361-.755c2.452-1.167,4.658-1.366,6.558-.587a7.708,7.708,0,0,1,3.954,4.168Z" transform="translate(-1069.944 -564.328)"/></g><g transform="translate(276.48 66.472)"><path class="f" d="M1083.817,568.116l-.751-.366c.083-.172,1.988-4.253-2.6-7.377s-10.26,2.962-10.316,3.024l-.618-.564c.25-.275,6.2-6.693,11.4-3.152S1083.842,568.067,1083.817,568.116Z" transform="translate(-1069.529 -558.618)"/></g><g transform="translate(254.799 69.885)"><path class="f" d="M1054.862,567.834c-.515-2.234,2.155-6.708,2.268-6.9l.717.431c-.727,1.21-2.534,4.7-2.17,6.278Z" transform="translate(-1054.796 -560.937)"/></g><g transform="translate(256.91 82.911)"><path class="f" d="M1076.985,575.813c-3.258-2.971-9.551-2.4-15.277-1.441-2.237.374-3.825.05-4.715-.961a4.167,4.167,0,0,1-.583-3.623l.8.24a3.378,3.378,0,0,0,.411,2.833c.689.779,2.018,1.01,3.948.687,6.222-1.038,12.464-1.557,15.977,1.647Z" transform="translate(-1056.23 -569.788)"/></g><g transform="translate(232.182 80.752)"><path class="f" d="M1039.749,570.5l-.322-.77c7.542-3.163,10.715-.041,10.846.093l-.6.586C1049.649,570.383,1046.723,567.581,1039.749,570.5Z" transform="translate(-1039.427 -568.321)"/></g><g transform="translate(216.491 24.378)"><path class="f" d="M1172.2,552.08c-.519-.184-1.046-.368-1.572-.543-22.47-7.66-46.561-8.187-61.613-7.476a111.7,111.7,0,0,0-48.2,13.521c.091-2.048-.979-2.725-3.045-4.038-.995-.628-2.232-1.414-3.763-2.584-4.1-3.136-5.393-7.919-6.531-12.133-.284-1.046-.552-2.032-.852-2.97-1.447-4.524-3.89-4.9-4.491-4.925-.543-.275-3.169-1.513-5.578-.568a5.822,5.822,0,0,0-3.27,3.947,54.067,54.067,0,0,0-1.823,7.685,16.318,16.318,0,0,1-1.613,5.545,6.993,6.993,0,0,0-.828,5.56c.7,2.475,2.827,4.633,6.306,6.415a23.414,23.414,0,0,1,6.1,4.29c.3.318.57.618.786.886a7.58,7.58,0,0,1,1.163,1.823,1.174,1.174,0,0,1,.068.15c.025.075.041.125.05.143l.8-.252c-.007-.016-.025-.084-.066-.191-.025-.084-.067-.2-.118-.352-.652-2.073-2.875-10-.768-16,2.215-6.306-.043-15.637-.728-18.155.778.243,2.216,1.121,3.22,4.249.293.929.561,1.9.836,2.934,1.179,4.349,2.518,9.274,6.833,12.578,1.563,1.2,2.818,1.99,3.82,2.634,2.309,1.454,2.927,1.847,2.584,4.047l-.15.911.786-.493c.193-.125,20.12-12.5,48.517-13.832,21.583-1.011,61.831.52,88.975,22.1l.518-.652A91.288,91.288,0,0,0,1172.2,552.08Zm-129.648-2.341c-1.7,4.833-.752,10.687.093,14.132h-.009a22.561,22.561,0,0,0-6.924-5.1c-3.27-1.672-5.243-3.654-5.886-5.9a6.205,6.205,0,0,1,.745-4.892,16.831,16.831,0,0,0,1.713-5.836,54.039,54.039,0,0,1,1.8-7.568,5,5,0,0,1,2.777-3.42,4.3,4.3,0,0,1,1.63-.293,7.829,7.829,0,0,1,3.193.786C1042.08,533.081,1044.815,543.275,1042.548,549.738Z" transform="translate(-1028.765 -530.013)"/><path class="b" d="M1042.373,563.6h-.009a22.564,22.564,0,0,0-6.924-5.1c-3.27-1.672-5.243-3.654-5.886-5.9a6.205,6.205,0,0,1,.745-4.892,16.828,16.828,0,0,0,1.713-5.836,54.045,54.045,0,0,1,1.8-7.568,5,5,0,0,1,2.777-3.42,4.3,4.3,0,0,1,1.63-.293,7.831,7.831,0,0,1,3.193.786c.4,1.439,3.136,11.633.87,18.1C1040.584,554.3,1041.528,560.155,1042.373,563.6Z" transform="translate(-1028.497 -529.743)"/></g><g transform="translate(80.526 53.861)"><path class="f" d="M1086.289,554.43l-.075.836c-.018,0-.168-.016-.436-.025-2.642-.159-16.732-.752-23.547,3.679-6.381,4.148-22.027,10.353-42.756,10.353a106.24,106.24,0,0,1-18.33-1.606c-17.561-3.086-34.628-8.3-47.087-12.125-4.34-1.33-8.078-2.468-11.072-3.295h-.016c-1.346-.368-2.534-.677-3.563-.9a.028.028,0,0,0-.025-.009,16.83,16.83,0,0,0-3.009-.45l.007-.152.009-.284.009-.4h.058a18.122,18.122,0,0,1,2.868.419.037.037,0,0,1,.026.007c3.377.728,8.512,2.3,14.952,4.274,12.442,3.8,29.476,9.022,46.994,12.092,29.41,5.159,52.423-3.388,60.484-8.622,6.565-4.274,19.141-4.065,23.213-3.863.611.025,1.029.059,1.213.066h.009A.278.278,0,0,0,1086.289,554.43Z" transform="translate(-936.372 -550.048)"/></g><g transform="translate(57.604 78.396)"><path class="f" d="M1038.754,601.34l-.118.828c-.05-.009-.811-.118-2.174-.343-7.794-1.254-35.214-6.02-61.22-14.634-24.635-8.161-44.8-15.914-51.795-18.648-1.347-.527-2.209-.87-2.518-.995a1.022,1.022,0,0,0-.134-.05l.318-.778c.043.018.929.377,2.534,1l2.291.895h.009c8.446,3.27,27.151,10.353,49.553,17.778,29.769,9.867,61.4,14.676,63.178,14.935A.529.529,0,0,1,1038.754,601.34Z" transform="translate(-920.796 -566.72)"/></g><g transform="translate(66.033 53.738)"><path class="f" d="M954.228,567.616a11.409,11.409,0,0,1-8.288,7.8,15.558,15.558,0,0,1-3.52.386,20.363,20.363,0,0,1-5.218-.711c-.527-.143-1.045-.3-1.554-.486a18.531,18.531,0,0,1-5.052-2.7c-2.6-2.016-4.006-4.474-4.072-7.108l.836-.025c.075,3,2.082,5.176,3.747,6.472a19.016,19.016,0,0,0,14.65,3.361,10.614,10.614,0,0,0,7.677-7.233c1.2-3.947.016-8.229-3.261-11.758a15.265,15.265,0,0,0-6.122-4.231.028.028,0,0,0-.025-.009,10.826,10.826,0,0,0-3-.6.257.257,0,0,1-.075-.007c-.159,0-.309-.009-.452-.009a9.876,9.876,0,0,0-4.666,1.07l-.418-.718a10.359,10.359,0,0,1,3.947-1.1,11.322,11.322,0,0,1,1.43-.041,11.673,11.673,0,0,1,3.177.536.037.037,0,0,1,.026.007,13.461,13.461,0,0,1,3.62,1.773h.016a18.834,18.834,0,0,1,3.161,2.759C954.278,558.8,955.532,563.383,954.228,567.616Z" transform="translate(-926.524 -549.964)"/></g><g transform="translate(43.75 56.451)"><path class="f" d="M917.678,568.38c-9.479-4.895-5.454-16.455-5.413-16.572l.787.283c-.16.447-3.816,10.99,5.009,15.546Z" transform="translate(-911.382 -551.808)"/></g><g transform="translate(0 1.904)"><path class="f" d="M962.3,566.716l-.109.384-.084.277-.041.141a3.211,3.211,0,0,1-.41-.15,3.668,3.668,0,0,1-1.138-.745c-4.515-4.3-1.027-20.279-.87-21.022,1.054-4.716,1.237-16.432-3.035-23.424a14.732,14.732,0,0,0-13.112-6.547,8.425,8.425,0,0,0-7.359,6.079c-3.52,10.01,6.131,17.787,6.231,17.871l.87.684-1.1.059c-.452.018-11.064.52-16.65-5.343-.836-.877-1.789-2.023-2.8-3.245-3.947-4.724-9.34-11.2-15.244-11.214h-.016c-2.909,0-5.736,1.614-8.412,4.792-2.459,2.927-3.32,5.863-2.559,8.713,2.1,7.811,15.562,12.769,15.7,12.819l1.454.527-1.522.277a7.335,7.335,0,0,0-5.026,2.793,5.258,5.258,0,0,0-.811,3.663l.143.711-.695-.234c-8.588-2.945-16.148-2.627-20.2.852-2.516,2.15-3.479,5.361-2.784,9.29,1.831,10.478,28.4,7.026,28.665,6.992l.343-.043.109.327c.059.168,5.711,16.582,20.906,19.207,2.35.411,4.574.678,6.656.854.936.084,1.84.134,2.718.175a59.187,59.187,0,0,0,14.7-1.02c.927-.2,1.42-.352,1.447-.359l.241.8c-.007,0-.05.018-.134.043a53.02,53.02,0,0,1-13.112,1.438c-.275,0-.559,0-.843-.009H944.4c-.8-.007-1.63-.032-2.491-.075a74.977,74.977,0,0,1-9.317-1.02c-14.484-2.509-20.536-17.075-21.433-19.45-3.295.409-27.394,3.009-29.276-7.719-.743-4.24.318-7.719,3.07-10.069,4.19-3.586,11.782-4.022,20.4-1.213a6.056,6.056,0,0,1,1-3.6,7.386,7.386,0,0,1,4.256-2.843c-3.5-1.463-13.121-6.045-14.96-12.894-.845-3.136.076-6.322,2.727-9.465,2.834-3.379,5.879-5.093,9.047-5.093h.016c6.3.018,11.842,6.665,15.88,11.515,1.012,1.213,1.957,2.349,2.777,3.2,4.315,4.532,12.1,5.059,14.927,5.093-2.359-2.234-8.756-9.308-5.677-18.063a9.342,9.342,0,0,1,8.069-6.631,15.639,15.639,0,0,1,13.914,6.94c4.24,6.94,4.382,18.446,3.136,24.042-1.663,7.5-2.584,19,1.481,20.8a1.394,1.394,0,0,0,.309.116C962.278,566.708,962.285,566.716,962.3,566.716Z" transform="translate(-881.652 -514.741)"/></g><path class="g" d="M1066.443,611.617c1.66-.765,1.286-5.017-4.633-4.889s-8.747,0-8.747,0,2.7-2.955-5.146-4.628-12.35-1.029-21.356,1.03-19.812,2.187-23.028,9.905,2.187,15.695,14.666,12.865,20.969-9.648,29.717-11.321S1064.769,612.39,1066.443,611.617Z" transform="translate(-824.602 -472.09)"/></g><g transform="translate(766.464 579.978)"><g transform="translate(0.016 14.171)"><path class="h" d="M814.257,568.286l59.6,21.938-15.332,15.108,25.365,15.753L839.568,609.5l16.141-14.09Z" transform="translate(-743.94 -568.286)"/><path class="h" d="M766.475,602.479l98.009,4.315L849.01,636.223,893.732,647.5l-70.67,3.745L840.2,622.937Z" transform="translate(-766.475 -552.161)"/></g><path class="h" d="M956,558.657l5.468,63.275-20.191-7.459-3.481,29.655-8.344-45.049,19.614,8.624Z" transform="translate(-689.6 -558.657)"/><path class="h" d="M963.081,623.764l46.3-11.073-3.29,15.8,22.371-.709-32.471,11.184,4.217-15.5Z" transform="translate(-673.738 -533.174)"/><g transform="translate(168.101 80.877)"><path class="i" d="M892.363,613.615s4.839,42.55,49.033,35.435" transform="translate(-875.191 -613.615)"/><path class="i" d="M892.363,613.615s4.839,42.55,49.033,35.435" transform="translate(-875.191 -613.615)"/><path class="i" d="M881.083,680.052s31.466-29.047-.389-60.495" transform="translate(-880.694 -610.813)"/><path class="i" d="M941.679,648.238s-40.891-12.719-52.192,30.593" transform="translate(-876.547 -598.108)"/></g><g transform="translate(0 2.676)"><path class="j" d="M776.6,560.475s-2.976,17.811,15.765,20.054" transform="translate(-761.765 -560.475)"/><path class="j" d="M776.6,560.475s-2.976,17.811,15.765,20.054" transform="translate(-761.765 -560.475)"/><path class="j" d="M766.464,586.1s16.126-8.125,6.86-24.568" transform="translate(-766.464 -559.977)"/><path class="j" d="M793.723,579.022s-15.1-9.9-24.707,6.347" transform="translate(-765.26 -553.137)"/></g></g></g></svg>