<svg xmlns="http://www.w3.org/2000/svg" xmlns:xlink="http://www.w3.org/1999/xlink" width="28.724" height="40.666" viewBox="0 0 28.724 40.666"><defs><style>.a{fill:none;}.b{fill:#7fd1d8;}.c{fill:#084500;}.d{clip-path:url(#a);}.e{fill:#3e6569;}.f{fill:#fff;}</style><clipPath id="a"><path class="a" d="M804.7,342.621c-4.651,3.929-17.177,5.686-23.025-3.635a2.144,2.144,0,0,1,.909-3.071l4.465-2.112a2.124,2.124,0,0,1,2.666.7c.663.979,2.016,2.026,4.777,2.026,5.181,0,6.089-5.146,2.917-7.8-.074-.063-.152-.123-.232-.184-.064-.048-.133-.1-.2-.142-.033-.025-.068-.049-.1-.072a7.017,7.017,0,0,0-.819-.46l-.164-.076c-2.024-.917-5.117-1.3-9.069-.188l-.183.053a2.14,2.14,0,0,1-2.707-2.4l1.543-9.5,1.433-8.826a2.142,2.142,0,0,1,2.117-1.8h16.448a2.144,2.144,0,0,1,2.145,2.145v6a2.144,2.144,0,0,1-2.145,2.145h-9.865l-.686,3.175s8.218-.62,12.419,4.481l.011.013c.09.11.179.222.266.338.06.08.117.159.175.239s.113.164.168.248C811.906,329.925,810.049,338.1,804.7,342.621Z"/></clipPath></defs><g transform="translate(-781.35 -305.132)"><path class="b" d="M804.7,342.621c-4.651,3.929-17.177,5.686-23.025-3.635a2.144,2.144,0,0,1,.909-3.071l4.465-2.112a2.124,2.124,0,0,1,2.666.7c.663.979,2.016,2.026,4.777,2.026,5.181,0,6.089-5.146,2.917-7.8-.074-.063-.152-.123-.232-.184-.064-.048-.133-.1-.2-.142-.033-.025-.068-.049-.1-.072a7.017,7.017,0,0,0-.819-.46l-.164-.076c-2.024-.917-5.117-1.3-9.069-.188l-.183.053a2.14,2.14,0,0,1-2.707-2.4l1.543-9.5,1.433-8.826a2.142,2.142,0,0,1,2.117-1.8h16.448a2.144,2.144,0,0,1,2.145,2.145v6a2.144,2.144,0,0,1-2.145,2.145h-9.865l-.686,3.175s8.218-.62,12.419,4.481l.011.013c.09.11.179.222.266.338.06.08.117.159.175.239s.113.164.168.248C811.906,329.925,810.049,338.1,804.7,342.621Z"/><path class="c" d="M805.451,324.106a7.173,7.173,0,0,1,.819.461A7.686,7.686,0,0,0,805.451,324.106Z"/><g class="d"><path class="e" d="M806.3,301.158s-3.873,7.543-10.6,9.582-8.359,5.709-7.339,9.583,12.191,4.863,15.474,7.324,5.322,15.918,5.322,15.918-26.709,12.641-26.709,11.826-11.418-22.835-11.418-23.855,2.855-26.912,6.117-29.359S806.3,301.158,806.3,301.158Z"/></g><g class="d"><path class="f" d="M804.685,340.342v-.013l1.181-16.438h0l.02-.281-12.781.625-.127,1.95-.9,12.661a3.947,3.947,0,0,0-2.635-1.231c-1.992-.151-3.708,1.074-3.833,2.734s1.389,3.088,3.381,3.239c1.967.149,3.658-.946,3.829-2.713h.005l0,.028v-.018l.926-12.862,10.963-.664-.775,10.93a3.946,3.946,0,0,0-2.635-1.232c-1.991-.151-3.707,1.073-3.833,2.733a3.384,3.384,0,0,0,3.375,3.317c1.968.15,3.665-1.028,3.824-2.635h0Zm-10.863-13.293.063-.874,10.956-.591-.057.8Z"/></g></g></svg>