<svg xmlns="http://www.w3.org/2000/svg" xmlns:xlink="http://www.w3.org/1999/xlink" width="27.294" height="32.982" viewBox="0 0 27.294 32.982"><defs><style>.a{fill:none;}.b{fill:#a1dd6f;}.c{clip-path:url(#a);}.d{fill:#4a5e3a;}.e{fill:#fff;}</style><clipPath id="a"><path class="a" d="M392.557,273.316h-2.275V255.643a.822.822,0,0,0-.822-.822H380.9a.826.826,0,0,0-.666.337l-13.993,19.131a.805.805,0,0,0-.16.486v6.108a.823.823,0,0,0,.823.823h14.749v5.275a.822.822,0,0,0,.822.822h6.979a.822.822,0,0,0,.822-.822v-4.856h2.275a.823.823,0,0,0,.823-.823v-7.163A.823.823,0,0,0,392.557,273.316Zm-10.425.38h-3.81l2.228-3.046,1.582-2.162Z" transform="translate(-366.086 -254.821)"/></clipPath></defs><g transform="translate(0)"><path class="b" d="M392.557,273.316h-2.275V255.643a.822.822,0,0,0-.822-.822H380.9a.826.826,0,0,0-.666.337l-13.993,19.131a.805.805,0,0,0-.16.486v6.108a.823.823,0,0,0,.823.823h14.749v5.275a.822.822,0,0,0,.822.822h6.979a.822.822,0,0,0,.822-.822v-4.856h2.275a.823.823,0,0,0,.823-.823v-7.163A.823.823,0,0,0,392.557,273.316Zm-10.425.38h-3.81l2.228-3.046,1.582-2.162Z" transform="translate(-366.086 -254.821)"/><g transform="translate(0)"><g class="c"><path class="d" d="M371.8,260.7s8.547-3.626,12.692-1.036,1.295,9.584,0,15.023,4.922,12.434-3.885,13.211-5.958,5.7-5.958,5.7,19.945,1.812,21.5-1.555,3.626-17.1,1.554-22.794,1.555-15.283-4.662-16.578-12.952-2.591-16.319,0S371.8,260.7,371.8,260.7Z" transform="translate(-364.552 -255.798)"/></g></g><path class="e" d="M385.529,274.051a3.593,3.593,0,0,1-.619-2.658l.005-.015-.4-.138-2.273,6.721a1.714,1.714,0,0,0-1-.876,1.476,1.476,0,1,0-.951,2.776,1.535,1.535,0,0,0,2.024-.86l-.009,0,0,.011h0v0l1.5-4.412a5.212,5.212,0,0,0,.755,1.65,1.485,1.485,0,0,1-.354,2.2,1.392,1.392,0,0,0,1.006-1.956A1.561,1.561,0,0,0,385.529,274.051Zm-.64,1.838a3.66,3.66,0,0,1-.634-2.616l.18-.533a5.168,5.168,0,0,0,.756,1.661,1.483,1.483,0,0,1-.044,1.937A2.651,2.651,0,0,0,384.889,275.889Z" transform="translate(-362.584 -250.416)"/></g></svg>