<svg xmlns="http://www.w3.org/2000/svg" width="42.285" height="63.649" viewBox="0 0 42.285 63.649"><path d="M193.8,279.029a6.946,6.946,0,0,0-1.869.12c-.534.086-1.048-.145-.18-1.032-1.683,1.313-3.385.851-5.055.7-.364-.034-.731-.029-1.1-.042-1.511-1.982-2.958-1.976-4.816-.671-.343-.282-.013-.885-.024-1.242-.015-.515-.1-.943-.084-1.458s-.118-1.762.434-2.085a4.156,4.156,0,0,1,2.145-.555c.292,0,.658.157.868.013,1.606-1.11,2.965-.483,4.362.277.475.258.935.737,1.446.406.975-.632,2.061-1.191,3.137-.445h0c.008.229.169.4.178.631-.35,1.044.438,1.809.544,2.735l-.014,1.932C193.783,278.464,193.791,278.873,193.8,279.029Z" transform="translate(-157.423 -254.799)" fill="#3f6a22"/><path d="M190.725,283.039c.157-.074.216-.18.1-.336-.673-.931-.216-1.078.648-.963.155.371-.523.937.444,1.156,1.526.345,1.5.444,1.839-1.153.267-.011.443-.345.71-.357a.938.938,0,0,0,.809-.229c.466-.076.839.4,1.132.7.43.437.358.229.381-.1,1.048.155.789-1.014,1.36-1.342.889.135,1.787-.091,2.66.533.675.483.168,1.05.439,1.535.154.277-.264.552-.71.6a1.144,1.144,0,0,0-1.123,1.091c-.021.3-.212.441-.368.639a6.063,6.063,0,0,0-1.36,2.89l.007-.019c-.415.044-.589.345-.727.683l-.348-.026c-.448-.54-.88-1.1-1.723-.706a.413.413,0,0,1-.558-.2c0-.037.01-.072.011-.108.016-.652.164-1.576-.486-1.754-.742-.2-.8.848-1.017,1.325-.351.78-1.287,1.307-1.085,2.333.009.521-.781.4-.752.94-.43-.548-1.24-.279-1.688-.786.272-.472-.309-.357-.4-.58.132-.731,1.268-.435,1.3-1.318a4.181,4.181,0,0,1-.95-.138c-.555-.215-1.031-.868-.77-1.23.353-.488,1.121-.678,1.723-.973.007,0,.161.29.246.445a8.114,8.114,0,0,0,.421.758c.1.138.247.283.454.135.143-.1.432-.2.336-.367-.281-.472-.172-1.3-.481-1.446C190.29,284.25,190.55,283.674,190.725,283.039Z" transform="translate(-159.395 -256.881)" fill="#6aa23d"/><path d="M197.729,274.124c-.106-.926-1.047-1.635-.7-2.679l.264-.2c.682-.4,1.311-.985,2.244-.481-.089-.425-.392-.5-.517-.686-.443-.675-1.471-.348-1.837-1.116.426-.273.844-.561,1.282-.814.2-.115.6-.076.436-.449-.18-.41-.508-.159-.73-.016-.546.351-1.069.74-1.6,1.114-.6-.331-.281-.612-.049-1.042.257-.479,1.234-1.06.379-1.6-.9-.561-.425-.887-.073-1.352l.6-.64c.673-.487,1.713-.076,2.242-.916.681-.057.955.793,1.708.725.318-.028.237.521.022.7-.782.661-1.8.963-2.562,1.678-.155.147-.414.027-.617-.09-.182-.1-.411-.246-.553.04a.644.644,0,0,0-.01.423c.07.244.328.411.508.3.816-.483,1.932.1,2.648-.787.164-.2.68-.7.682.294,0,.443.838.249,1.3.091.263-.089.527-.391.783-.111.211.23-.128.457-.155.675a3.356,3.356,0,0,1-.764,1.671,1.275,1.275,0,0,0-.132,1.524c.423.676-.061,1.828.431,2.184.849.614.139.81-.068,1.129-.354.543-1.2.08-1.58.727-.087.146-.284-.2-.39-.394a1.1,1.1,0,0,0-1.959-.178C198.6,274.276,198.12,273.952,197.729,274.124Z" transform="translate(-161.363 -252.547)" fill="#6aa23d"/><path d="M159.567,281.093l.244.4c.338.634,1.149,1.07.824,1.985-.01.026.1.095.152.143.057.363-.546.548-.229,1.042.6-.392,1.328-.431,1.336.407.006.7-.12,1.691-1.264,1.732-.538.2-.724-.623-1.258-.436v.006l.007-.22c-.058-.489-.36-.608-.82-.686-1.2-.2-2.636.49-3.569-.857a.259.259,0,0,0-.2-.063c-1.155.117-1.6-.491-1.5-1.569-.57.1-.59.488-.652.849a9.808,9.808,0,0,1-2.073-.343c-.745-.176-1.005-1.107-.978-1.946.554-.095.739.4,1.053.673.4.351.721.964,1.36.416.621-.534.039-.928-.256-1.274a1.415,1.415,0,0,1-.357-1.1l.024-.1c.39.053.787.077,1.169.164a2.724,2.724,0,0,0,2.709-.405c.116.146.322.333.437.167.508-.741.962-.537,1.469-.012a.5.5,0,0,0,.61.006c.36-.191.712-.1.794.266C158.728,280.906,159.247,280.845,159.567,281.093Z" transform="translate(-149.585 -256.674)" fill="#6aa23d"/><path d="M155.227,292.3c-.719-.335-1.623-.309-2.1-1.129-.072-.123-.4-.081-.606-.147a.762.762,0,0,1-.644-.78c-.1-.789-.822-1.589.67-1.7a1.849,1.849,0,0,0,.073-.52c.05-.629.193-1.072.9-.495.423.342.555.008.691-.307.981.821,1.989,1.517,3.376.966.271-.108.481.167.62.368a2.094,2.094,0,0,0,1.662.89c.154.966.422,1.105,1.288.65.3-.157.579-.319.887-.037,1.094.25,1.372,1.052,1.38,2.037-.037.428-.095,1.076-.574.966-.921-.211-1.938.534-2.763-.31-.4-.444.008-.556.3-.664.243-.09.395-.209.317-.467s-.389-.594-.48-.517c-.617.524-1.766-.033-2.086,1.018-.173.567-.339.443-.83.245C156.692,292.109,155.935,291.366,155.227,292.3Z" transform="translate(-150.097 -258.598)" fill="#6aa23d"/><path d="M180.411,263.757a1.855,1.855,0,0,1,.649-2.023h0c.656-.25,1.185-1.085,2.02-.534,1.352.736,2.651.338,3.974-.044.055.347-.47.855-.061,1.135.371.253.552-.17.771-.407.173-.187.406-.116.614-.022.649.292,1.2-.19,1.817-.234a.49.49,0,0,0,.336-.7c-.194-.442-.037-1.093-.678-1.285a.688.688,0,0,0-.82.374,2.293,2.293,0,0,1-1.8,1.06c-.158-.48-.674-.069-1.011.01a4.085,4.085,0,0,1-3.476-.635c2.587-.525,5.2-.934,7.567-1.416.6.667,1.239.974,2.053.292a2.04,2.04,0,0,1,.724-.227,2.221,2.221,0,0,1-.184,1.093c-.2.146-.406.413-.612.417-1.33.023-1.181.861-1.009,1.731-.11.9-3.106,3.693-5.673,3.633a4.994,4.994,0,0,0-1.126-1.323C183.328,263.364,182.05,262.768,180.411,263.757Z" transform="translate(-157.355 -251.481)" fill="#3f6a22"/><path d="M161.308,279.747c-.32-.247-.839-.187-.969-.752-.082-.362-.434-.457-.794-.266a.5.5,0,0,1-.61-.006c-.507-.525-.961-.729-1.469.012-.115.167-.321-.021-.437-.167.164-.437-.456-.446-.437-.8.01-.179.19-.31.287-.444a1.3,1.3,0,0,0,.17-1.112,1.238,1.238,0,0,0-.211-.4,3.7,3.7,0,0,0-.36-.344,1.525,1.525,0,0,1,1.06-.7c.188-.042.384-.095.391.182.021.93.73.712,1.3.9,1.3.431,2.088-.194,2.883-1.032a1.53,1.53,0,0,1,1.156-.543c-.549,1.126-.673,2.438-1.521,3.46.679.512.993,0,1.277-.471.423-.694.907-1.232,1.824-1.03-.543.309,0,.994-.466,1.339a.306.306,0,0,0-.078.472c.185.2.381.083.582-.03,1.358-.762,1.505-.679,1.534.842l-.623.65a7.754,7.754,0,0,1-3.795.032A.611.611,0,0,0,161.308,279.747Z" transform="translate(-151.326 -255.328)" fill="#3f6a22"/><path d="M170.713,254.01c-.6-.059-1.561.324-1.189-.959.021-.07-.085-.206-.164-.273a1.92,1.92,0,0,1-.749-2.022c.043-.194-.207-.454-.322-.685,1.006-.007,1.638.716,1.8,2.133.416-.227.49-.988,1.216-.7.187.074.01-.492.069-.759.064-.294.053-.925.407-.671.81.581,1.141-.065,1.634-.386.152-.1.42-.274.48-.225.762.623,1.5-.067,2.24,0a2.138,2.138,0,0,1,2.219,1.62c-.936.66-2.112.9-2.826,1.989-.443.672-1.433.155-2.164.289l0,0c-1.7-.916-1.768-.91-2.42.229Z" transform="translate(-154.308 -249.062)" fill="#6aa23d"/><path d="M166.952,292.509c-.008-.984-.286-1.787-1.379-2.037.021-.193.041-.386.062-.579.374.019.55-.206.773-.484.469-.588,1.555-.71,1.785-.222.357.761.738.739,1.31.245.661-.57,1.032-.413,1.037.491a1.984,1.984,0,0,0,.152.521c-.164.087-.482-.047-.491.228-.008.251.3.221.475.307.183.582-.293,1.41.654,1.722.086.028.14.416-.1.43-1.239.074-1.469.9-1.51,1.909,0,.093-.086.183-.144.3a2.738,2.738,0,0,1-1.314-1.54l-.267-.181-.177-.217C168.175,292.478,167.662,292.4,166.952,292.509Z" transform="translate(-153.622 -259.019)" fill="#639837"/><path d="M200.1,290.064a2.941,2.941,0,0,1,1.791-.268c-.234.4-.682.167-.987.34a.652.652,0,0,0-.252.318c-.018.047.119.223.176.219.454-.031,1.055.357,1.272-.407.532.385.423.666-.17.757a9.785,9.785,0,0,1-1.393.013c.413.653.873.748,1.412.439.883-.506.953.513,1.368.8.444.3-.27.617-.426.92-.223.435-1.51-.078-1.8-.784a.841.841,0,0,0-.872-.637c.262,1.307.262,1.307,1.111,1.725a1.235,1.235,0,0,1-2.106.557c-.292-.207-.562-.33-.865-.039-.088-.2-.274-.407-.247-.585.09-.582-.627-1.418.493-1.7l.366.034.222-.191c.246-.344,1.061-.036.929-.811l-.014-.719Z" transform="translate(-161.801 -259.24)" fill="#75ad3e"/><path d="M167.174,254.655c1.008,1.03,2.571,1.587,2.836,3.243.075.465.358.462.677.543.457.116.905.272,1.357.412,0,.443,0,1.305,0,1.748-.484.155-1,.12-1.487.25-.682.181-2.79-1-2.812-1.671a4.89,4.89,0,0,0-.4-2.115c.488-1.07.246-1.579-.8-1.668l-.121-.147A1.254,1.254,0,0,1,167.174,254.655Z" transform="translate(-153.837 -250.376)" fill="#3f6a22"/><path d="M160.391,288.658a2.094,2.094,0,0,1-1.662-.889c-.138-.2-.349-.475-.62-.368-1.387.552-2.395-.145-3.376-.966-.137-.645-.659-1.011-1.064-1.46.061-.361.082-.749.652-.849-.1,1.078.342,1.686,1.5,1.569a.259.259,0,0,1,.2.063c.933,1.346,2.365.652,3.569.857.46.078.762.2.82.686-.144.069-.175.141-.007.22v-.006a.866.866,0,0,0,.312.667C161.243,288.763,160.642,288.6,160.391,288.658Z" transform="translate(-150.616 -257.818)" fill="#3f6a22"/><path d="M196.855,295.258c-.871.17-1.186,1.171-2.092,1.362-.351.073-.751.523-1.063.242a1.566,1.566,0,0,1-.288-1.5,2.342,2.342,0,0,0,.188-.918c-.061-.749.475-.909,1.031-1.006.521-.092,1.12-.1,1.37.425a.992.992,0,0,1-.142,1.279Z" transform="translate(-160.636 -260.157)" fill="#639837"/><path d="M196.448,258.334a2.041,2.041,0,0,0-.724.227c-.813.682-1.45.374-2.052-.292q.054-.289.108-.579a2.252,2.252,0,0,1,1.91-1.137.99.99,0,0,0,1.286-.291c.38-.486.617-.169.875.079a.49.49,0,0,1-.2.868A2.211,2.211,0,0,0,196.448,258.334Z" transform="translate(-160.718 -250.717)" fill="#b7cf52"/><path d="M196.484,294.87l-.995-.118a.992.992,0,0,0,.142-1.279c-.25-.523-.849-.517-1.37-.425-.556.1-1.092.257-1.032,1.006a1.819,1.819,0,0,1-1.349-1c-.029-.538.761-.419.752-.94.2.173.28.472.7.324a9.7,9.7,0,0,1,2.025-.45c.573-.068,1.23-.4,1.7.27-1.12.277-.4,1.114-.493,1.7-.027.178.158.389.247.585Z" transform="translate(-160.265 -259.768)" fill="#3f6a22"/><path d="M194.934,262.73c-.172-.87-.321-1.708,1.009-1.731.206,0,.408-.271.612-.417-.04.742.41.943,1.032.887a1.1,1.1,0,0,1,1.271.661,1.119,1.119,0,0,1-.6.662c-.973.588-1.909-.135-2.846.058Z" transform="translate(-161.009 -251.872)" fill="#639837"/><path d="M156.448,293.6c.708-.93,1.464-.187,2.084.064.49.2.657.321.83-.245.32-1.051,1.469-.494,2.086-1.018.09-.077.405.265.48.517s-.074.377-.317.467c-.292.108-.7.22-.3.664-.481.342-1.064-.39-1.527.143a1.722,1.722,0,0,1-.978.153l-1.336-.047Z" transform="translate(-151.318 -259.905)" fill="#3f6a22"/><path d="M157.3,267.854c-.049.311-.3.595-.115.937.119.22.085.54-.112.566-.967.132-.938,1.39-1.868,1.576-.457.09-.176.755-.551.985,0-.327-.007-.654,0-.981C154.688,269.034,155.374,268.238,157.3,267.854Z" transform="translate(-150.865 -253.709)" fill="#3f6a22"/><path d="M160.911,294.52c.463-.533,1.046.2,1.527-.143.824.845,1.842.1,2.763.31.479.11.537-.538.574-.967.71-.111,1.223-.031.863.892a3.221,3.221,0,0,0-.832.176c-1.259.64-2.476.933-3.737-.046C161.792,294.528,161.3,294.587,160.911,294.52Z" transform="translate(-152.445 -260.231)" fill="#597b44"/><path d="M151.388,280.474a1.415,1.415,0,0,0,.357,1.1c.3.345.878.74.256,1.274-.639.549-.965-.064-1.36-.416-.314-.278-.5-.768-1.053-.673A4.847,4.847,0,0,1,151.388,280.474Z" transform="translate(-149.585 -256.896)" fill="#b7cf52"/><path d="M155.469,278.945c-.019.358.6.368.437.8a2.724,2.724,0,0,1-2.709.405c-.382-.087-.779-.111-1.169-.164.022-.2-.062-.465.28-.481.4-.019.8-.049,1.193-.061A3.153,3.153,0,0,0,155.469,278.945Z" transform="translate(-150.202 -256.509)" fill="#b7cf52"/><path d="M183.1,251.947c.733.122,1.464.254,2.2.36.206.03.491-.066.481.254-.009.293-.241.5-.526.354-.485-.247-.67-.295-.86.377-.164.583-.8.545-1.017-.049a8.4,8.4,0,0,0-.715-1.2Z" transform="translate(-157.937 -249.692)" fill="#639837"/><path d="M195.466,256.51a3.357,3.357,0,0,0-2.181,1.535c-.31-.045-.416-.368-.5-.821a3.313,3.313,0,0,0,1.988-1.387C194.936,256.129,195.373,256.141,195.466,256.51Z" transform="translate(-160.493 -250.674)" fill="#3f6a22"/><path d="M203,290.279c-.218.765-.818.377-1.272.407-.058,0-.194-.172-.176-.219a.651.651,0,0,1,.252-.318c.3-.173.753.058.987-.34C203.072,289.872,202.986,290.1,203,290.279Z" transform="translate(-162.708 -259.253)" fill="#b7cf52"/><path d="M157.815,294.945l1.336.047C158.7,295.284,158.243,295.467,157.815,294.945Z" transform="translate(-151.663 -260.55)" fill="#597b44"/><path d="M166.219,255.719c-.007-.112-.013-.225-.021-.338.046-.052.422-.445.49-.432.04.049-.239.472-.2.52Q166.352,255.593,166.219,255.719Z" transform="translate(-153.78 -250.45)" fill="#3f6a22"/><path d="M168.809,295.217l.267.181C168.943,295.4,168.838,295.365,168.809,295.217Z" transform="translate(-154.439 -260.619)" fill="#639837"/><path d="M169.034,278.449c-.028-1.521-.176-1.6-1.534-.842-.2.113-.4.23-.582.03a.306.306,0,0,1,.078-.472c.466-.345-.076-1.03.466-1.339.354-.127.867.005.969-.537a1.023,1.023,0,0,0-.585-1.166,1.811,1.811,0,0,1-.812-.995c.442-.517,1.061-.388,1.628-.449,1.088.159,2.228-.081,3.27.428.163.278.525.484.324.894-.3.123-.472.339-.043.437a5,5,0,0,0,1.257-.019.8.8,0,0,1,.153.013c1-.09,1.8.4,1.715,1.332a2.419,2.419,0,0,1-.8,1.967l-1.51.1a7.009,7.009,0,0,1-1.36-.027c-.665-.167-.934.019-1.157.735C170.086,278.539,169.465,278.452,169.034,278.449Z" transform="translate(-153.941 -254.927)" fill="#639837"/><path d="M164.487,267.286c.094-.641,1.191-1.495,1.8-1.244.56.23.779.105.78-.395,0-.436.3-1.126-.521-1.172-.321-.018-.842-.211-.949-.462.765-1.563,1.952-1.91,2.927-1.161a2.066,2.066,0,0,0,2.055.1,6.019,6.019,0,0,1,4.482.315l0,0,.256,1.607a2.6,2.6,0,0,1-2.115-.073c-.259-.127-.475-.21-.685-.016-.538.5-1.209.4-1.851.476A2.42,2.42,0,0,0,168.4,266.6,7.813,7.813,0,0,1,164.487,267.286Z" transform="translate(-153.348 -252.35)" fill="#3f6a22"/><path d="M195.153,265.258c-.352.466-.823.792.073,1.352.855.536-.122,1.117-.379,1.6-.232.43-.554.711.049,1.042l-.229.631h0a3.789,3.789,0,0,1-2.34,1.437c-1.047.278-1.93-.413-2.734-1.048.971.213,1.786-.528,2.749-.446.317.026.381-.362.32-.587a3.387,3.387,0,0,0-1.588-2.245A3.212,3.212,0,0,1,195.153,265.258Z" transform="translate(-159.688 -252.994)" fill="#3f6a22"/><path d="M187.793,270.321l.439-.669q.016-.221.032-.443a1.61,1.61,0,0,0,1.718-1.022,1.278,1.278,0,0,1,.878-.573,3.135,3.135,0,0,1,1.347,2.277c.061.225,0,.613-.32.587-.963-.081-1.778.659-2.749.446-.058-.064-.232.052-.291-.013-.329-.262-.582-.552-1-.478A.087.087,0,0,1,187.793,270.321Z" transform="translate(-159.232 -253.648)" fill="#6aa23d"/><path d="M164.464,284.182l-.223-.032c-.054-.049-.161-.117-.152-.143.325-.914-.486-1.351-.824-1.985,1.382-.62,3.649-.28,5.505.045a1.225,1.225,0,0,1-.588,1.532c-1.08.511-2.123,1.251-3.424.709C164.716,284.134,164.612,284.108,164.464,284.182Z" transform="translate(-153.039 -257.199)" fill="#3f6a22"/><path d="M176.837,278.065a2.419,2.419,0,0,0,.8-1.967c.084-.931-.716-1.422-1.715-1.332.244-.886.921-.815,1.458-.681a2.094,2.094,0,0,1,1.362,1.833c.035,1.237,0,2.533,0,3.772C177.908,279.526,177.458,278.489,176.837,278.065Z" transform="translate(-156.235 -255.262)" fill="#3f6a22"/><path d="M180.6,258.449c.229-.1.525-.366.7-.172.769.829,1.979.453,2.883.62-.136.708-.94.845-1.415,1.026-.879.333-1.823.446-1.911,1.6h0c-.286-.111-.951.327-1.167-.16a2.8,2.8,0,0,1,.118-1.914A2.066,2.066,0,0,1,180.6,258.449Z" transform="translate(-157.158 -251.273)" fill="#3f6a22"/><path d="M168.6,268.855c.2.821.505,2.078-.1,2.858-.567.061-1.186-.067-1.628.449l-.431.054c-.035-.55.306-1.162-.27-1.623A2.53,2.53,0,0,1,168.6,268.855Z" transform="translate(-153.772 -253.961)" fill="#3f6a22"/><path d="M177.526,258.784c.219,0,.822-.075,1.042-.078a8.579,8.579,0,0,0,.213,2.446c.036.493.345,1.165-.6,1.161l0,0c.08-1.011-1.017-.607-1.349-1.123A3.747,3.747,0,0,0,177.526,258.784Z" transform="translate(-156.465 -251.398)" fill="#3f6a22"/><path d="M197.216,270.9c.366.768,1.393.441,1.837,1.116.125.191.428.261.517.686-.933-.5-1.562.084-2.245.481-.065-.182-.069-.4-.288-.491v0c.084-.6-.864-.674-.664-1.327h0C196.764,271.4,196.942,271.065,197.216,270.9Z" transform="translate(-161.393 -254.477)" fill="#3f6a22"/><path d="M194.8,281.9c-.336,1.6-.33,1.851-1.856,1.507-.967-.219-.7-1.207-.856-1.579C192.851,281.935,194.042,281.259,194.8,281.9Z" transform="translate(-160.318 -257.185)" fill="#3f6a22"/><path d="M180.218,271.292c1.176-.38,2.154.6,3.163.944a17.151,17.151,0,0,0-1.772.283C180.135,272.971,180.159,272.808,180.218,271.292Z" transform="translate(-157.315 -254.555)" fill="#3f6a22"/><path d="M175.2,274.8a5,5,0,0,1-1.257.019c-.43-.1-.274-.472.024-.6C174.409,274.253,175.05,273.921,175.2,274.8Z" transform="translate(-155.669 -255.307)" fill="#3f6a22"/><path d="M179.83,286.354a.659.659,0,0,1-.244-.62C180.015,285.8,180.048,286.029,179.83,286.354Z" transform="translate(-157.16 -258.224)" fill="#68340a"/><path d="M164.941,260.921c.591.09,1.494-.235,2.153.418-.868,1.237-1.833,2.133-2.973,2.1-.462-.36-1.545-1.069.083-1.316C164.588,262.07,164.759,261.23,164.941,260.921Z" transform="translate(-153.058 -251.957)" fill="#3f6a22"/><path d="M167.291,257.313c-.244,0-.425-.072-.442-.354l-.2-.27-.016.01c.111-.39-.384-.48-.4-.806l.269-.25C167.537,255.734,167.779,256.243,167.291,257.313Z" transform="translate(-153.787 -250.625)" fill="#b7cf52"/><path d="M163.37,262.043a.638.638,0,0,1-.439-.158c-.051-.052-.058-.144-.114-.189a.311.311,0,0,0-.425.11c-.082.112-.092.289-.228.358a.658.658,0,0,0,.207-.327.184.184,0,0,0,0-.115.2.2,0,0,0-.068-.077.414.414,0,0,0-.329-.125.363.363,0,0,0-.232.261c-.02.061-.041.129-.1.157a.321.321,0,0,1-.162,0,.337.337,0,0,0-.243.077.092.092,0,0,0,.025-.068c-.091.005-.2,0-.243-.084s.037-.207.068-.291c.043-.117.082-.235.123-.353.091-.26-.147-.283-.321-.38a1.276,1.276,0,0,1-.374-.274c-.229-.278.312-.384.487-.422.1-.022.207-.04.312-.055.383-.059.7-.948.883-1.256-1.021-.073-1.005.283-.934-.44.5.574,1.674-.174,2.032-.817a.67.67,0,0,0-.169-.913c-.311-.286-.642-.2.1-.412.11-.39-.605-.74-.623-1.066-.007-.111-.013-.224-.021-.336-.4-.159-.265-.565-.4-.847-.17-.359-.306-.9-.774-.781s-1.117-.9-1.227-.014c-.094.762-.863.479-.974,1.059-.108.564-.513,1.113.464,1.224.152.017.292.1.252.278-.019.085-.147.227-.187.215-.627-.191-1.215.386-1.86.055-1.026-.524-1.2.536-1.561,1s-.06.952.518,1.313c.721.448,1.642.469,2.246,1.141.161.18.3.363.185.555s-.331.076-.472-.035c-.389-.309-.694-.4-.893.2-.116.354-.462.283-.75.28s-.618-.154-.789.19.145.539.293.773a2.173,2.173,0,0,1-.053,2.6c-.049.311-.3.595-.115.937.119.22.085.539-.112.566-.967.132-.938,1.39-1.868,1.575-.457.092-.176.756-.551.986a1.716,1.716,0,0,1-.922-.265c-.287-.172-.693-.7-1-.146a.859.859,0,0,0,.538,1.322c.794.164.686.484.335.954a3.434,3.434,0,0,0,2.413.06,1.521,1.521,0,0,1,1.06-.7c.188-.042.384-.095.391.182.022.93.73.711,1.3.9,1.3.431,2.088-.194,2.883-1.032a1.53,1.53,0,0,1,1.156-.543c.454,0,.609-.322.721-.685-.035-.55.306-1.162-.27-1.623-.212,0-.558.064-.556-.187,0-.5.048-.939-.656-.87l-.043-.639c.094-.641,1.191-1.495,1.8-1.244.56.23.778.105.78-.395C163.894,262.78,164.192,262.089,163.37,262.043Zm-2.766.12h0a7.806,7.806,0,0,0,.021,1.05A7.808,7.808,0,0,1,160.6,262.164Zm.194,0a.7.7,0,0,0,.293-.052A.7.7,0,0,1,160.8,262.164Z" transform="translate(-150.17 -249.918)" fill="#6aa23d"/><path d="M190.7,257.517c-.46,1.542-3.171,1.837-4.625,1.26.374-.416,1.08-1.409,1.271-1.337C188.484,257.872,189.622,256.727,190.7,257.517Z" transform="translate(-158.799 -251.026)" fill="#3f6a22"/><path d="M171.532,255.325l.23-.43a6.411,6.411,0,0,1,2.42-.229l0,0c.044.621.071,1.215-.854,1.1-.632-.078-.718.336-.694.831.019.408-.061.728-.585.708-.552-.021-.513-.408-.515-.777C171.529,256.13,171.532,255.727,171.532,255.325Z" transform="translate(-155.126 -250.377)" fill="#639837"/><path d="M175.5,259.655c-.2.937-.758.794-1.379.451C174.446,259.548,175,259.674,175.5,259.655Z" transform="translate(-155.78 -251.638)" fill="#639837"/><path d="M197.309,291.107c-.472-.668-1.129-.338-1.7-.27a9.7,9.7,0,0,0-2.025.45c-.424.147-.5-.152-.7-.324-.2-1.026.735-1.552,1.085-2.333.215-.477.275-1.527,1.017-1.325.65.178.5,1.1.486,1.754,0,.036-.007.072-.01.108-.774.007-1.159.526-1.606,1.2a28.133,28.133,0,0,1,3.887-.289l.348.026.742.036c.132.775-.683.467-.928.812l-.223.191Z" transform="translate(-160.51 -258.614)" fill="#68340a"/><path d="M198.074,290.714a28.133,28.133,0,0,0-3.887.289c.447-.671.833-1.191,1.606-1.2a.412.412,0,0,0,.558.2C197.194,289.611,197.625,290.174,198.074,290.714Z" transform="translate(-160.848 -259.252)" fill="#3f6a22"/><path d="M197.225,270.395c-.274.168-.452.508-.842.466l.229-.631c.532-.374,1.055-.763,1.6-1.114.223-.144.55-.394.73.016.164.374-.235.334-.436.449C198.069,269.833,197.651,270.121,197.225,270.395Z" transform="translate(-161.402 -253.975)" fill="#6aa23d"/><path d="M163.932,289.085c.043.611.539.633.967.741q-.03.29-.061.579c-.309-.283-.59-.12-.888.037-.866.456-1.134.316-1.288-.65.251-.063.852.1.324-.477a.866.866,0,0,1-.312-.667C163.208,288.463,163.394,289.283,163.932,289.085Z" transform="translate(-152.887 -258.953)" fill="#68340a"/><path d="M162.641,288.593c-.168-.078-.138-.151.007-.22Z" transform="translate(-152.853 -258.89)" fill="#3f6a22"/><path d="M189.144,261.371c.067-.069.157-.137.223-.206a2.273,2.273,0,0,0,1.846-.958.688.688,0,0,1,.82-.374c.641.192.484.843.678,1.285a.49.49,0,0,1-.336.7c-.612.044-1.168.525-1.817.234-.209-.094-.441-.165-.614.022-.219.237-.4.66-.771.407C188.764,262.206,189.2,261.718,189.144,261.371Z" transform="translate(-159.537 -251.675)" fill="#6aa23d"/><path d="M174.26,254.446a6.411,6.411,0,0,0-2.42.229C172.493,253.536,172.556,253.53,174.26,254.446Z" transform="translate(-155.205 -250.156)" fill="#639837"/><path d="M199.3,292.381l.223-.191Z" transform="translate(-162.14 -259.854)" fill="#3f6a22"/><path d="M164.869,285.016c.148-.075.252-.048.294.126Z" transform="translate(-153.444 -258.033)" fill="#3f6a22"/><path d="M166.785,257.043l.2.27Z" transform="translate(-153.928 -250.979)" fill="#6aa23d"/><path d="M173.58,283.165s1.775-.262,1.689,1.859.338,7.051-.1,6.925-1.626-1.172-1.36-.652,1.469.922,1.46,1.792-.086,13.405,0,15.2-1.037,6.353-.407,6.262,3.766.241,3.879,0-1.386-4.654-1.286-6.326-.594-19.7-.234-20.1.877.105,1.005-.152-1.344.125-1.2-.668-.191-3.779,3.3-3.933,3.458.045,3.458.045l-.257-.679a29.887,29.887,0,0,0-4.692.255c-.868.289-2.161.851-2.093.33s-.256-6.367.477-6.6,4.54-1.992,6.308-.417l.7.836a.191.191,0,0,0,.153-.226c-.028-.193-.528-.824-.244-.954a19.909,19.909,0,0,1,2.722-.376c.289,0,.3.232.449.259s1.544-.438,1.809-.31a6.005,6.005,0,0,1,.946.8c.155.148.214-.254.223-.363s-.372-.437-.589-.71a1.229,1.229,0,0,0-1.259-.225c-.549.145-1.807.311-1.594-.064l.382-.67a4.266,4.266,0,0,1-2.921.847c-1.575-.225-3.59-.321-3.972-.064a16.935,16.935,0,0,1-3.388.663c-.754.092-.368-4.2-.433-4.857s.049-1.043.4-1.2a2.887,2.887,0,0,1,2.164-.491,1.034,1.034,0,0,0,.92-.348c.484-.463,2.627-.608,4.19.822a1.634,1.634,0,0,0,1.706-.225c.966-.659,2.561-.579,2.655-.049a4.079,4.079,0,0,0,.137.627l.3-.386a2.168,2.168,0,0,0-.562-.9c-.369-.29-.68-.546-.418-.755s1.983-1.511,2.293-1.656-.057-.4-.057-.4a10.237,10.237,0,0,0-1.835,1.168c-.273.354-.723.821-.868,1s-2.941,1.523-4.2.508-2.065-1.2-2.675-.738a2.752,2.752,0,0,1-1.88.752c-.5-.129-2.474.722-2.651.481s-.407-3.085.206-3.679a2.6,2.6,0,0,1,3.779.161c1.7,1.526,1.891,1.4,1.891,1.4l.15-.4s-1.029-.8-.482-.916a16.527,16.527,0,0,0,2.266-.289,5.824,5.824,0,0,0,1.354-1.454,3.024,3.024,0,0,1,3.074-.676l.552-.617s-1.667.045-1.637-.492l.094-.267-.514-.093a9.305,9.305,0,0,1-2.5,2.343c-1.5.9-2.576,1.6-4.038.827a4.579,4.579,0,0,0-3.988-.622s-.478-.049-.374-1.122.1-1.668.94-2.1.771-.866,2.041-.216,3.515-.081,3.728-.2-.034-.5-.034-.5a4.714,4.714,0,0,1-3.838-.058s-1.157-.064,1.253-.437a56.016,56.016,0,0,0,5.881-1.192,1.685,1.685,0,0,0,.034-.545s-.21.563-.5.185a.873.873,0,0,1-.225-.666s-.3-.271-.438,0a2.48,2.48,0,0,1-2.227,1.33c-1.545.082-2.136.2-2.226-.175s-.669-.094-.669-.094.487.255-.367.673-1.947.2-3.168,1.923c0,0-.466.166-.546-.123a3.056,3.056,0,0,1,.257-2.154c.487-.694.594-.819.594-.819a1.2,1.2,0,0,0-.691.324c-.177.255-.4.737-.579.4a.751.751,0,0,0-.418-.4s-.393.2-.1.75.614,2.2.373,2.4-1.262-.981-2.985-.723-2.462.873-3.266.348-1.526-.734-1.816-2a2.467,2.467,0,0,0-1.007-1.81c-.456-.391-.7-.2-.668,0s.807.573.839.99a1.46,1.46,0,0,1-1.976.868l-.393-.13s-.17.644.2.9a3.037,3.037,0,0,0,1.96.113c.4-.177.643.176.836.337s-.987.916-1.465,1.382a2.165,2.165,0,0,1-1.4.418s-.237.549-.139.732.164.078.46.075.429.269.717.141.242-.321.827-.932a7.39,7.39,0,0,1,1.388-1.082,3.647,3.647,0,0,0,1.976.809c.852-.081,2.507-.739,3.278-.531s1.783.241,2.041.643a5.231,5.231,0,0,1,.273,2.282c-.064.579.087.3-.679.209a4.561,4.561,0,0,0-2.53.251c-.647.376-3.189.273-3.55.436a8.145,8.145,0,0,1-3.155.7s-.731-.181-.759-.015-.016.678.043.639a.41.41,0,0,1,.573.41c0,.531-.129.643.1.643a4.6,4.6,0,0,1,.737.129.934.934,0,0,1,.626-1.146c.854-.252,1.674-.265,2.075-.66s.885.337,2.8-.262,3.373-.8,3.747.37.386,2.558-.528,2.964a3.238,3.238,0,0,1-2.473.287c-.867-.267-.947-.09-.947-.09l.425.854s1.086-.276,1.15.335v.257l.217-.016a.846.846,0,0,1,1.052-.827c1.012.184,1.816.859,1.688,3.687s.185,2.667-.916,2.313a8.83,8.83,0,0,0-4-.642s-1.151-.594-.07-.9,1.615-.227,1.71-.378-.564.138-1.03-.055-1.108-.274-1.35.129-.513.778-.152,1.04-1.245.022-2.531.2-3.409-.174-3.858.009-.431.376-.431.376l.431.305s.226-.209.981-.048a40.019,40.019,0,0,0,5.544.112c.723-.1,3.744.016,4.708,1.173a4.2,4.2,0,0,1,1.188,3.423c-.079,1.494.306,1.558-.8,1.566s-4.756.2-5.045.282-.587.095-.273.289.5.3.5.3Z" transform="translate(-152.894 -250.993)" fill="#68340a"/><path d="M176.74,256.106c-.6-.155-1.088.665-1.724.2l-.657.01c-.666-.253-1.372-.594-1.342.632-.5.019-1.053-.107-1.38.451a.972.972,0,0,0-.132.009c-.452-.14-.9-.3-1.357-.412-.319-.081-.6-.078-.677-.543-.265-1.656-1.828-2.213-2.836-3.243-.579-.8-.864-1.8-1.957-2.217-.392-.152-.752-.958.324-.972.32,0,.379-.315.574-.464a1.051,1.051,0,0,1,1.7.384c.115.23.366.49.322.685a1.92,1.92,0,0,0,.749,2.022c.078.067.185.2.164.273-.372,1.283.585.9,1.189.959,0,.4,0,.8,0,1.207,0,.369-.037.756.515.777.524.02.6-.3.585-.708-.025-.495.062-.91.694-.831.925.115.9-.479.854-1.1.731-.133,1.721.383,2.164-.289.715-1.086,1.89-1.329,2.826-1.99l.682.34a8.393,8.393,0,0,1,.715,1.2c.221.594.854.632,1.017.049.189-.671.374-.623.86-.377.286.145.517-.061.526-.354.01-.32-.276-.224-.481-.254-.736-.106-1.467-.238-2.2-.36-.691-.939.076-1.381.655-1.87a.587.587,0,0,1,.4-.038c.252.926,1.384.345,1.837,1.109.232.392.434-.172.591-.482.3-.595.656-1.266,1.531-.839.283.139.767.265.36.764-.249.3.1.327.212.469.6.742,1.444,1.31,1.366,2.488-.033.49.451.33.831.173.3-.123.3-.7.734-.489.41.2,1.011-.061,1.258.5.287.658-.552.677-.655,1.119a3.309,3.309,0,0,1-1.988,1.387l-.389-.058c-1.077-.79-2.215.354-3.355-.077-.191-.072-.724.762-1.1,1.178l-.611.058c-.9-.167-1.921.183-2.69-.646C177.264,255.74,176.969,256,176.74,256.106Z" transform="translate(-153.298 -248.93)" fill="#639837"/></svg>