<svg xmlns="http://www.w3.org/2000/svg" width="38.385" height="63.798" viewBox="0 0 38.385 63.798"><path d="M275.824,144.667c-.11-.235-.483-2.6-1.664-2.555s-6.483,3.465-6.483,3.465a31.45,31.45,0,0,0-4.234.729c-.538.289-1.406,1.717-1.31,3.92s.028,4.951.906,5.095A16.1,16.1,0,0,0,269.8,153.1a13.243,13.243,0,0,0,3.326-3.228C273.848,148.812,276.5,146.112,275.824,144.667Z" transform="translate(-242.89 -116.479)" fill="#8ac442"/><path d="M262.166,149.048l.317,10.84-2.3.437A2.414,2.414,0,0,1,260,158.85a20.878,20.878,0,0,0,.414-5.327c-.185-1.082-.853-2.865-.229-3.733A2.4,2.4,0,0,1,262.166,149.048Z" transform="translate(-242.333 -118.229)" fill="#68340a"/><path d="M272.248,123.641c.694.227,1.455.735,1.838-.407.12-.357.5-.244.715-.445.25-.238.572-.279.648.13.049.26.182.764-.36.735-.925-.051-.842.714-1.227,1.2.674.188,1.146.171,1.493-.348a.384.384,0,0,1,.651-.074c.285.286.117.473-.137.709-.4.371-1,.478-1.306,1.034.53.406,1.15-.068,1.839.259-.978.454-1.281,1.592-2.385,1.784-.222.038-.432.142-.421.425.016.4.366.263.579.342.39.145.91-.12,1.3.546-.838-.368-1.2,1.452-2.092.169-.27.276.088.7-.268.925a2.529,2.529,0,0,0-3.346-.784.374.374,0,0,0-.244.431.318.318,0,0,0,.366.315l.99-.034c-.083.485-.475.339-.781.4-.569.11-.921.6-1.3.946-.227.2.34.531.613.753.023.019-.024.123-.039.19-.375.233-.833.253-1.239.452-.685.336-2.091.45-2.39.052a3.838,3.838,0,0,0-1.786-1.1c.07-.853,1.014-1.188,1.178-1.986.067.006.134.014.2.025,1.375-.12,1.467-1.38,1.854-2.268.162-.371.264-.515.5-.339.745.555,1.3.523,1.743-.345.042-.082.183-.113.277-.168.7.1,1.2-1.058,2.055-.331a2.752,2.752,0,0,0,.983-.865c.138-.222-1.686-1.091-1.856-.828-.371.577-.791.474-1.3.16l-.09,1.291c-.678.009-1.387.191-1.961-.361a1.137,1.137,0,0,1-.1-.108c-.22-.574-.762-.39-1.179-.5-.082-.174-.241-.2-.407-.209a6.423,6.423,0,0,0-1.151-.331c-.589-.061-1.283-.422-1.753.126-.585.68-.973.514-1.338-.132-.346-.614-.665-.542-1.065-.058-.152.184-.27.451-.575.461-.44.022-.628-.537-1.087-.473l-.843-1.074c-.073-.306-.717-.551-.246-.888,1.014-.724.663-1.74.709-2.68l.622-1.335c.043-.339.22-.534.521-.538.471.207-.414.879.374.928a.733.733,0,0,0,.724-.817c-.072-.833.579-.676.979-.867.188-.09.467-.076.475-.37s-.232-.317-.456-.347c-.271-.037-.657.119-.748-.277-.126-.543.659-.21.694-.641-1.458-.73-1.613-1.407-.64-2.7a3.92,3.92,0,0,0,.3-.569,1.861,1.861,0,0,0,.265-.165c-.333-.783.691-1.018.685-1.7,0-.215.49-.537.682-.368a1.259,1.259,0,0,1,.379.983c-.207,1.253.283,1.94,1.555,1.9a1.123,1.123,0,0,1,.98.364c.739.943,1.411,1.116,2.156-.348.081.753.491,1.153.189,1.7a4.971,4.971,0,0,0,1.276,1.387.348.348,0,0,0,.241-.518c-.377-.792.034-.934.672-.8.388.084.624-.965,1.061-.115.083-.108.26-.248.235-.318-.421-1.2.795-1.161,1.273-1.647.363-.369.587-.04.567.369-.027.593.171,1.233-.495,1.683-.318.215-.226.656-.155,1.037.354-.112.644-.672,1.043-.19.373.449.111.679-.28,1.04a3.264,3.264,0,0,0-.592,1.487c-.124.444.21.444.531.448s.834-.24.907.3a1.1,1.1,0,0,1-.582,1.193c-.123.061-.25.113-.375.17.71,1.222-.89,1.123-1.055,1.844-.371-.74-.684-1.514-1.758-1.457-.338.018-.439-.37-.586-.689-.31-.676-.549-1.694-1.687-.827-.232.177-.548.019-.818-.149a3.4,3.4,0,0,1-1-.991c-.393-.564-.837-.709-1.262-.005-.129.214-.219.514-.543.454-.369-.07-.383-.395-.4-.693-.015-.281-.086-.514-.432-.512-.42,0-.464.306-.443.611a4.357,4.357,0,0,1-.475,1.614c-.2.646-1.129,1.22-.69,1.8.552.723,1.561.354,2.388.294a1.758,1.758,0,0,0,.208-.072c.647-.136,1.106-.108,1.246.755.155.951.749,1.136,1.555.555a.913.913,0,0,1,1.01-.1,1.684,1.684,0,0,0,1.568-.008A1.256,1.256,0,0,1,272.248,123.641Z" transform="translate(-241.753 -108.509)" fill="#8ac442"/><path d="M255.894,167.374c-.036-.005-.072-.013-.108-.016-.369-.025-.742.434-1.1.025-.159-.181-.061-.4.07-.593.306-.456.715-.388,1.143-.241.766.241,1.5-.484,2.285-.076.117.061.433-.2.261-.312-.51-.345.012-1.219-.688-1.349-.672-.125-1.406-.2-1.851.55-.533.041-1.12-.068-1.354.647a.352.352,0,0,1-.566.106c-.4-.322-.493-.894-1.352-.359-.6.374-1.4.188-1.905.75-.037.042-.023.131-.032.2.472.244,1.255-.407,1.456.3.184.646-.543.721-1.026.86a.24.24,0,0,0-.14.159c-.233,1.474-.794.334-1.268.105-.156.521.144,1.541-.993.962a.43.43,0,0,0-.377.147c-.345.5-.623,1.288-1.314.388-.334-.436-1.163-.38-1.1-1.212.052-.627-.465-.383-.793-.4-.18-.007-.383.009-.436-.226-.033-.149-.007-.306.17-.351.784-.2.862-1.043,1.441-1.526a9.728,9.728,0,0,0-1.224-.486c-.557-.141-.4-.635-.546-.984-.519.067-1.016.585-1.517.1-.167-.161-.016-.413.2-.539.046.313.182.453.523.329a.53.53,0,0,0,.4-.434c.2-.81,0-1.9,1.579-1.608a1.719,1.719,0,0,0,2.053-1.035c.081.577.46,1.006.323,1.541-.081.312-.357.743-.036.9.448.227.865-.253,1.312-.379.264-.074.6-.362.445-.66-.75-1.429.3-1.2,1.088-1.234.318.487.7.661,1.193.232l1.073.123a2.844,2.844,0,0,0-.348.257,1.194,1.194,0,0,0-.311,1.344c.245.551.607-.044.923-.044.966,0,1.6-.8,2.482-1.013l2.264-.242c.508-.145.773-.76,1.466-.59-.245-.408-.657-.445-.745-.812-.093-.386-.268-.693-.756-.567-.643-.521.061-1.041,0-1.562.225.283.528.689.854.351.428-.443-.522-.6-.345-1.14l.99.185c.082.349.232.941.559.761.807-.445.984-.024,1.28.567.183.365.694.4,1.1.421-.124.73-.82,1.078-1.189,1.636-.129.194-.289.4-.078.553.23.164.353-.107.486-.268.363-.441.736-.875,1.105-1.311.339.467.514.907-.241,1.133-.443.134-.433.457-.3.773a3.064,3.064,0,0,1,.144,1.172,1.767,1.767,0,0,1-1.576-.369c-.059.783-.095,1.386.845,1.379.226,0,.454.06.472.339s-.211.395-.422.413a.945.945,0,0,0-.974,1.221c-.508-.182-.537-.661-.883-.906-.525.657.011,2.136-1.513,1.991Zm-3.482-2.515c-.411-.04-.853-.283-1.141.214a.3.3,0,0,0,.063.277C251.843,165.54,252.076,165.1,252.412,164.859Z" transform="translate(-238.05 -120.434)" fill="#8ac442"/><path d="M268.217,158.78c-.405-.022-.885-.054-1.068-.419-.3-.591-.473-1.012-1.28-.567-.327.18-.478-.412-.559-.761,1.318-.2,1.913-.913,1.511-1.819l.478-.2c.78.041,1.552.065,1.831-.907l1.455.46c.056.238.2.27.44.344.783.24,1.435-.579,2.073-.317a4.569,4.569,0,0,0,3.206-.011c.428-.125,1.078-.292,1.4.283.267.476.542.629,1.058.4a.421.421,0,0,1,.635.235c.1.359-.22.421-.395.626-.721.848-1.793-.024-2.526.607-.136.117-.585-.287-.511.245a.458.458,0,0,0,.664.382c.659-.323.921.054,1.221.528.146.232.238.556.57.639l.189.385-.022.29c-.207.853-1.476.248-1.623,1.183a1.63,1.63,0,0,1-.359-.192c-.161-.146-.371-.487-.428-.46-.735.341-1.451.724-2.155,1.125-.073.042-.086.383-.046.4,1.109.481.463,1.061.167,1.7-.127.272-.11.493-.492.565-.567.105-.558.152-.956.609-.416-.224-.123-.97-.9-1.052-.428-.045-.334-1.141-.261-1.247.492-.708-.336-1.227-.177-1.887-.05.91-1.733,1.033-.988,2.3.155.263-.153.557-.324.762-.219.264-.508.149-.789-.019a11.912,11.912,0,0,0-1.085-.515,3.063,3.063,0,0,0-.144-1.172c-.131-.315-.141-.639.3-.773.755-.226.58-.666.242-1.132.194-.274-.022-.407-.191-.556A.439.439,0,0,0,268.217,158.78Z" transform="translate(-243.694 -119.509)" fill="#6aa23d"/><path d="M280.067,156.135c-.332-.083-.423-.407-.57-.639-.3-.475-.563-.851-1.221-.528a.458.458,0,0,1-.664-.382c-.074-.532.375-.128.511-.245.733-.631,1.8.241,2.526-.607.175-.206.5-.268.395-.626a.421.421,0,0,0-.635-.235c-.516.232-.791.08-1.058-.4-.324-.576-.974-.408-1.4-.283a4.569,4.569,0,0,1-3.206.011c-.638-.262-1.29.557-2.073.317-.244-.074-.384-.105-.439-.344l.034-.035c.969.032.709-.689.58-1.126-.265-.89-.668-1.739-1.014-2.6.247-.01.505.01.666-.24.249.152.5.3.746.459.366.247.615.892,1.175.519s-.123-.771-.087-1.172c.005-.057.074-.107.143-.2.119.07.236.146.36.209.306.155.591.546.969.218.349-.3-.037-.594-.1-.89-.14-.6-.591-1.1-.581-1.757l.044-.04c.633.24.82,1,1.49,1.232a1.226,1.226,0,0,0,1.319-.271.737.737,0,0,0,0-1.156c-.132.165-.213.286-.312.386-.218.221-.422.629-.791.282s.06-.566.249-.8c.162-.2.348-.377.523-.564l.83.01c.419.734,1.379.326,1.877.892.244.077.484.174.733.226.718.151,1.283.28,1.167,1.322-.044.389-.206,1.673,1.1,1.367a.318.318,0,0,1,.357.427c-.1.374-.118,1.01-.541.976-.976-.078-.9.7-1.286,1.138.362.2.484,0,.653-.144.329-.273.584-.226.738.212.119.337.244.7-.249.771-.92.122-.942.6-.656,1.315.256.644.051,1.055-.7,1.123a.829.829,0,0,0-.852.842C280.8,155.629,280.385,155.842,280.067,156.135Z" transform="translate(-245.341 -117.115)" fill="#8ac442"/><path d="M251.555,160.74l-1.073-.123c-.27-.734-.67-.8-1.193-.232-.786.033-1.839-.2-1.088,1.234.157.3-.181.586-.445.66-.447.126-.864.605-1.312.379-.321-.161-.045-.592.036-.9.138-.534-.241-.964-.323-1.541a1.719,1.719,0,0,1-2.053,1.035c-1.574-.294-1.377.8-1.579,1.608a.53.53,0,0,1-.4.434c-.342.124-.477-.016-.523-.329.007-.231.013-.463.019-.694-.081-.41-.215-.691-.641-.265l-.289.01-.8-.057.055-.059a2.121,2.121,0,0,0,.115-1.451c-.084-.4-.33-.709-.616-.076-.517,1.013-1.341.389-2.035.349-.247-.014.145-1.574.523-1.709.75-.266,1.392-.481.872-1.51-.2-.4.586-.525.529-.986a.683.683,0,0,0-.733-.079c-.657.2-1.156.278-.784-.682.2-.516-.188-.419-.454-.414a.817.817,0,0,1-.869-.813c-.043-.555.42-.57.855-.551.391.016,1.117-1.021,1.05.353a4.337,4.337,0,0,0,5.192,2.382c1.394-.534,2.339.07,3.34.7.685.428,1.369.851,2.067,1.257a1.84,1.84,0,0,0,1.869.1c.561-.271,1.132-.659,1.671.041.575.748-.36.956-.562,1.44.506.39,1.218-.164,1.629.419A9.053,9.053,0,0,1,251.555,160.74Z" transform="translate(-236.417 -119.383)" fill="#75ad3e"/><path d="M276.667,142.709l-.83-.01c-.41-1.1-1.3-1.421-2.058-.73a1.767,1.767,0,0,0-.422,1.618l-.044.04c-.414-.136-.976-1.431-1.177.169-.042.333-.448.064-.649.123-.73.218-1.153,1.093-2.052.991,0,.036,0,.072-.007.108-.093.731-.627,1.461-.04,2.265l-1.616-.817c.007-.525-.154-1.132-.75-.753-.614.39-1.1.077-1.639.089l-.242-.336a5.654,5.654,0,0,1-.466-2.834,9.246,9.246,0,0,1,1.058-3.7,3.837,3.837,0,0,1,1.786,1.1c.3.4,1.7.284,2.39-.052.407-.2.864-.219,1.239-.452.015-.067.062-.171.039-.19-.273-.223-.839-.55-.613-.753.383-.344.736-.836,1.3-.946.306-.059.7.087.781-.4.185-.342.39-.33.419.051a14.568,14.568,0,0,1-.058,1.624c.624-.258,1.38-.713.82.538-.3.679.363.372.623.466A8.447,8.447,0,0,1,276.667,142.709Z" transform="translate(-243.534 -115.184)" fill="#6aa23d"/><path d="M260.3,112.141a3.927,3.927,0,0,1-.3.569c-.973,1.3-.818,1.973.64,2.7-.035.431-.819.1-.694.641.091.4.478.24.748.277.224.03.465.043.456.347s-.287.28-.475.37c-.4.191-1.051.034-.979.867a.733.733,0,0,1-.724.817c-.789-.049.1-.721-.374-.928-.3,0-.478.2-.521.538-.593-.174-.872.151-1.038.655-.042-.4-.033-.742-.628-.821a8.194,8.194,0,0,1-1.768-.771c-.483-.191-.58-1.236-.345-1.556.434-.6,0-1.111.155-1.661.182-.665-.763-.333-1-.739.28-.158.558-.318.839-.475.719-.4.857-1.11.137-1.426-.875-.384-.235-.873-.187-1.176.1-.644.581.259.857-.1-.362-.919.445-1.6.535-2.455,0,.564,1.781.191.558,1.313.314.018.643-.044.7.052.383.663.642,1.078,1.173.052.124-.239.411.345.5.63.133.44.1,1.056.851.525.173-.12.511.032.416.308C259.6,111.331,260.191,111.647,260.3,112.141Z" transform="translate(-240.698 -107.819)" fill="#6aa23d"/><path d="M259.445,170.618l2.586.088c-.067,1.406-.2,4.217-.2,4.217v.312s-.073,6.323-.106,9.485c-.011,1.025-.1,2.082,1.1,2.756-1.495-.718-2.966.318-4.371-.247-.483-.194-.925.493-1.425.076.346-.391.712-.765,1.032-1.177a5.553,5.553,0,0,0,1.056-3.058A118.922,118.922,0,0,0,259.445,170.618Z" transform="translate(-241.601 -123.677)" fill="#68340a"/><path d="M273.83,126.059a1.256,1.256,0,0,0-1.852-.493,1.684,1.684,0,0,1-1.568.008.913.913,0,0,0-1.01.1c-.806.581-1.4.4-1.555-.555-.14-.863-.6-.891-1.246-.755a1.757,1.757,0,0,1-.208.072c-.827.061-1.836.429-2.388-.294-.439-.576.495-1.15.69-1.8a4.356,4.356,0,0,0,.475-1.614c-.021-.3.023-.608.443-.611.346,0,.417.231.432.512.016.3.029.623.4.693.324.06.414-.24.543-.454.425-.7.869-.558,1.262.005a3.4,3.4,0,0,0,1,.991c.27.167.585.326.818.149,1.138-.867,1.377.15,1.687.827.146.319.248.707.586.689,1.074-.058,1.387.717,1.758,1.457q-.083.214-.165.427l-.126.259Z" transform="translate(-243.335 -110.927)" fill="#75ad3e"/><path d="M242.071,144.605a3.337,3.337,0,0,1,1.52.074c.784.16,1.69-.3,2.155.785.018.043.4-.087.616-.109a.439.439,0,0,1,.522.433c.192,1.668.189,1.669,1.817,1.614,0,.7.62,1.069.848,1.644a3,3,0,0,1-2.09-.471c-.516-.4-.776.124-1.26.345.111-.95-.117-1.388-1.053-1.051-.4.144-.448-.267-.439-.565.028-.781-.385-.753-.905-.5a3.537,3.537,0,0,1-3.141-.244h.013a.357.357,0,0,0,.484-.364C242.2,146.094,241.792,145.151,242.071,144.605Z" transform="translate(-237.469 -117.093)" fill="#6aa23d"/><path d="M280.661,141.48c-.182-.12-.434-.311-.587-.173a1.547,1.547,0,0,1-2.307-.033c-.154-.309-.668-.715.224-.716s1.588-.655,2.452-.758c.3-.035.673-.4.864.057.168.4.221.907-.315,1.126C280.726,141.093,280.7,141.27,280.661,141.48Z" transform="translate(-246.767 -115.852)" fill="#6aa23d"/><path d="M260.277,167.716c.445-.752,1.18-.675,1.852-.55.7.13.179,1,.688,1.349.172.117-.144.372-.261.312-.786-.409-1.519.316-2.285.076Z" transform="translate(-242.421 -122.786)" fill="#68340a"/><path d="M240.443,162.528c.286-.634.531-.327.616.076a2.121,2.121,0,0,1-.115,1.451C240.412,163.664,241.075,162.885,240.443,162.528Z" transform="translate(-237.414 -121.543)" fill="#8ac442"/><path d="M245.9,118.308c-.028.426.116.906-.366,1.192C245.541,119.068,245.191,118.526,245.9,118.308Z" transform="translate(-238.68 -110.468)" fill="#8ac442"/><path d="M241.039,164.772l.8.057C241.557,165.052,241.26,165.449,241.039,164.772Z" transform="translate(-237.565 -122.201)" fill="#8ac442"/><path d="M242.5,164.763c.426-.426.56-.144.641.265Z" transform="translate(-237.933 -122.145)" fill="#8ac442"/><path d="M241.162,146.755a.357.357,0,0,1-.484.364C240.733,146.856,240.875,146.71,241.162,146.755Z" transform="translate(-237.474 -117.649)" fill="#6aa23d"/><path d="M244.842,120.49a.738.738,0,0,1-.555.338C244.324,120.472,244.518,120.374,244.842,120.49Z" transform="translate(-238.385 -111.007)" fill="#8ac442"/><path d="M277.156,127.47l.126-.259C277.239,127.3,277.2,127.384,277.156,127.47Z" transform="translate(-246.685 -112.716)" fill="#8ac442"/><path d="M256.48,123.311c-.046.94.3,1.956-.709,2.68-.471.337.173.582.246.888l-1.674-.007-.309.136.111.259-.543.033a1.315,1.315,0,0,0-1.488-1.374,3.453,3.453,0,0,1-2.5-2.349c0-.85.379-1.1,1.239-1.058,1.242.059,2.5.412,3.747-.271.395-.217.794.62,1.309.787Z" transform="translate(-239.729 -111.454)" fill="#6aa23d"/><path d="M265.515,138.79a9.246,9.246,0,0,0-1.058,3.7.522.522,0,0,1-.647-.366c.176-1.189.865-2.283.659-3.542.125-.689.649-1.283.484-2.039l.522-.1.306.161c.292.67.517.2.756-.044l.156.244C266.529,137.6,265.585,137.937,265.515,138.79Z" transform="translate(-243.315 -115.047)" fill="#68340a"/><path d="M251.657,148.144c.833-.561,1.67-1.38,2.216.332.119.372.747.352,1.187.574-1.113-.336-.834,1.069-1.588,1.168C252.573,149.783,252.387,148.726,251.657,148.144Z" transform="translate(-240.246 -117.827)" fill="#6aa23d"/><path d="M263.829,139.308c.206,1.26-.483,2.353-.659,3.542-.86.1-1.462-.1-1.333-1.152a1.185,1.185,0,0,0-.037-.214c-.034-.377-.824-.6-.394-.953.377-.313.6.357.907.564.333.225.435-.135.65-.2a.515.515,0,0,0,.377-.761C263.138,139.62,263.14,139.278,263.829,139.308Z" transform="translate(-242.676 -115.77)" fill="#639837"/><path d="M260.189,130.364q.147,1.054.292,2.109l-1.011-.024c-.212-.238-.431-.469-.633-.715s-.753-.474.147-.589c.419-.053.028-.82.118-1.254C259.561,129.827,259.748,130.386,260.189,130.364Z" transform="translate(-241.97 -113.392)" fill="#68340a"/><path d="M268.609,130.648l-1.159,2.439c-.657-.271-.671-.649-.185-1.111.534-.378.642-1.014.937-1.538C268.368,130.449,268.527,130.474,268.609,130.648Z" transform="translate(-244.102 -113.531)" fill="#68340a"/><path d="M245.048,122.777c.006.527-.73.464-.763.96-.215.25-.446.349-.48-.09a2.733,2.733,0,0,0-.4-1c.405-.419.958-.093,1.41-.281A.352.352,0,0,1,245.048,122.777Z" transform="translate(-238.162 -111.493)" fill="#fdfdfd"/><path d="M255.494,128.975c.477.414,1.188.565,1.495,1.31-.931.182-1.153-1.109-2.014-.868l-.025-.41Z" transform="translate(-241.078 -113.161)" fill="#68340a"/><g transform="translate(0 5.028)"><path d="M259.554,127.963c.126-.659-.581-.662-.839-1.033-.563-.812-.66.232-1,.309a6.819,6.819,0,0,0-2.814,1.36l-1.011-.023c-.3.236-.431.745-1.008.14-.392-.411-.916-1.07-1.724-.855-.182.049-.329.013-.262-.179.277-.8-.587-1.218-.607-1.909l-.025-.409a1.315,1.315,0,0,0-1.488-1.374,3.453,3.453,0,0,1-2.5-2.349c0-.85.379-1.1,1.239-1.058,1.242.059,2.5.412,3.747-.271.395-.217.794.621,1.31.786q.078-.2.158-.4c-.042-.4-.032-.742-.627-.821a8.154,8.154,0,0,1-1.768-.77c-.483-.191-.58-1.236-.345-1.556.434-.595,0-1.111.155-1.662.182-.665-.763-.332-1-.739-.308-.046-.7-1.373-.921.067-.035.231-.353.235-.555.225-.286-.013-.661-.192-.824.072a3.906,3.906,0,0,1-3.229,1.847c-.029.426.115.905-.367,1.191.061.319-.068.472-.4.451a.779.779,0,0,1-.561.347c-.467.869.623.61.756,1.043a.352.352,0,0,1,.233.41,1.819,1.819,0,0,0,1,.363c.608.022.607.528.662.954.026.2.061.5-.238.509-.391.007-.954-.162-1-.446-.169-.972-.709-.53-1.185-.42-.215.25-.447.349-.481-.09a2.721,2.721,0,0,0-.4-1c-.334-.091-.342-.4-.44-.653-.656.434.037,1.171-.357,1.741l-.45-.382c-.584-.5-.561-.491-.8.192-.137.4-.409.217-.583.022s-.386-.277-.575-.157c-.115.073-.222.4-.162.472.667.794-.085,1.994.86,2.658a.572.572,0,0,1-.591.088c-.321-.071-.623-.039-.693.334-.1.514.367.345.594.4.469.109.894.571,1.445.207.06-.04.3.07.351.167a.261.261,0,0,1-.249.381c-.881-.023-1.373.623-2.006,1.273-.043-.307-.109-.454-.071-.568a.539.539,0,0,0-.3-.732c-.389-.164-.277.345-.488.437-.73.319-.166.957-.041,1.04.661.442.418,1.825,1.586,1.619a.65.65,0,0,1,.831.445c.217.465-.118.562-.476.626a.97.97,0,0,0-.75.727c-.13.383-.434.725-.768.713-1.967-.073-.777.851-.56,1.56.271.884,1.006.312,1.532.517-1.129.833-1.129.833,0,1.452-.125.414-.881.189-.815.739.07.579.58.568,1.009.647a.455.455,0,0,1,.271.158c.511.731.977.579,1.506,0,.265-.291.528-.227.539.238a3.337,3.337,0,0,1,1.52.074c.784.159,1.69-.3,2.155.785.019.043.4-.087.615-.109a.439.439,0,0,1,.523.433c.192,1.668.189,1.668,1.817,1.613a.252.252,0,0,0,.179.01c.833-.561,1.67-1.381,2.216.331.119.371.747.352,1.186.574-1.112-.336-1.215.866-1.968.966.426.946,2,1.293,2.436,2.243a6.781,6.781,0,0,1-3.2-2.479,3,3,0,0,1-2.09-.472c-.516-.4-.776.125-1.26.345.111-.949-.117-1.387-1.053-1.05-.4.144-.448-.267-.439-.565.028-.781-.385-.753-.905-.5a3.535,3.535,0,0,1-3.141-.243c-.256,0-.706.079-.553.311.576.877.795,1.367-.59.9-.021-.007-.074.028-.087.056-.342.713,1.085,1.246.209,2.046-.086.078.2.249.39.265.036,0,.073,0,.11,0,.889.022.389.875.732,1.224-.691-.24-.608,1.16-1.417.667a4.335,4.335,0,0,0,5.192,2.381c1.394-.534,2.339.071,3.34.7.685.428,1.369.85,2.067,1.257a1.842,1.842,0,0,0,1.869.1c.561-.271,1.133-.659,1.671.041.575.748-.36.956-.562,1.44.506.39,1.218-.163,1.629.42l.475-.284a1.772,1.772,0,0,1,1.124-1.415c.6-.235.688-1.033.382-1.672a2.573,2.573,0,0,1-.446-1.193,3.78,3.78,0,0,0-.345-1.306,4.129,4.129,0,0,1-.22-1.374,6.125,6.125,0,0,0-.028-.73,1.524,1.524,0,0,1,.039-.774,1.056,1.056,0,0,1,.647-.574c.643-.182.738-.712,1.016-1.142A5.175,5.175,0,0,1,258,139.8a5.67,5.67,0,0,1-.467-2.834.522.522,0,0,1-.647-.366c-.86.1-1.462-.1-1.333-1.153a1.172,1.172,0,0,0-.037-.213c-.034-.377-.824-.6-.394-.953.377-.313.6.357.907.564.333.225.435-.135.65-.2a.515.515,0,0,0,.376-.761c-.2-.521-.2-.863.49-.832a4.722,4.722,0,0,1,1.312-1.983c.672-.267.648-1.192,1.348-1.433l-.466-.566C259.081,128.8,259.068,128.424,259.554,127.963Z" transform="translate(-236.391 -114.545)" fill="#8ac442"/><path d="M268.265,134.729l-.015.007.013.016Z" transform="translate(-244.436 -119.642)" fill="#8ac442"/></g><path d="M258.607,123.215l-.576-.276.158-.4c.167-.5.445-.829,1.039-.655Q258.918,122.548,258.607,123.215Z" transform="translate(-241.856 -111.358)" fill="#68340a"/><path d="M273.717,132.086l-.206-.573c.028-.4.056-.8.09-1.291.507.314.926.417,1.3-.16.17-.262,1.994.606,1.856.828a2.752,2.752,0,0,1-.983.865C274.919,131.028,274.417,132.185,273.717,132.086Z" transform="translate(-245.765 -113.423)" fill="#6aa23d"/><path d="M268.913,160.414c.17.149.386.282.191.556-.37.436-.743.869-1.106,1.31-.133.161-.256.433-.486.268-.212-.152-.051-.359.078-.553.369-.558,1.034-.909,1.157-1.638A.548.548,0,0,1,268.913,160.414Z" transform="translate(-244.224 -121.086)" fill="#68340a"/><path d="M253.612,162.547c.522-.564.923-.5,1.193.232C254.309,163.207,253.93,163.033,253.612,162.547Z" transform="translate(-240.74 -121.544)" fill="#75ad3e"/><path d="M255.838,128.446l-.309.136Z" transform="translate(-241.224 -113.028)" fill="#8ac442"/><path d="M251.6,148.376c.1-.029.428.456.48.529.147.208.276.428.416.641a3.219,3.219,0,0,0,.352.469c.121.127.274.221.4.345.28.268.512.583.808.835.246.209.53.369.789.563a1.671,1.671,0,0,1,.61.735,2.253,2.253,0,0,0-.437-.161,4.941,4.941,0,0,1-.465-.225,5.164,5.164,0,0,1-.827-.573,12.372,12.372,0,0,1-1.458-1.523c-.229-.576-.852-.948-.848-1.644A.252.252,0,0,0,251.6,148.376Z" transform="translate(-240.186 -118.058)" fill="#68340a"/><path d="M255.807,129.68s1.985,1.638,2.169,1.813.415-.442.415-.442-1.02-.791-1.614-1.19S255.807,129.68,255.807,129.68Z" transform="translate(-241.294 -113.324)" fill="#68340a"/><path d="M269.7,131.429s-2.1,3.824-2.3,4.113-.831.773-.986,1.085-.412.869-.412.869-.257-.748-.081-.925a4.743,4.743,0,0,0,1.094-1.314c.221-.546,2.387-4.142,2.387-4.142A.924.924,0,0,0,269.7,131.429Z" transform="translate(-243.832 -113.702)" fill="#68340a"/></svg>