<svg xmlns="http://www.w3.org/2000/svg" width="51.425" height="92" viewBox="0 0 51.425 92"><defs><style>.a{font-size:11px;font-family:BPGArial, BPG Arial;}.b{fill:#49b554;}.c{fill:#18894b;}.d{fill:#68340a;}</style></defs><g transform="translate(-437 -213)"><text class="a" transform="translate(463 301)"><tspan x="-17.969" y="0">წაბლი</tspan></text><g transform="translate(437 213)"><path class="b" d="M459.942,149.87c-.4.018-1.021.345-1.3-.263-.351-.773.422-.712.782-.926.405-.241.785-.4.159-.86-1.061-.786-1.076-1.14-.22-2.166.6-.715.487-1.185-.383-1.537a9.761,9.761,0,0,0-.986-.289,1.865,1.865,0,0,0-.6,2.2c.265,1.09-.039,2.261.262,3.387.12.45-.4.611-.7.793-.454.274-.89-.042-1.275-.236s-.158-.486,0-.765c.368-.631-.053-.7-.54-.706-.755.94-1.714.736-2.682.478-.151.005-.434.011-.434.018,0,.975-.913.869-1.416,1.26a2.654,2.654,0,0,1-2.929.617.588.588,0,0,0-.437,0c-1.5.722-2.451-.423-3.56-1.028.371-.017.831.19.976-.392a1.745,1.745,0,0,0-.607-.537,1.742,1.742,0,0,1,.607.537,11.17,11.17,0,0,0,4.6-2.387c.413-.325.544-1.064,1.128-1.36a2.655,2.655,0,0,1,.466-1.96c-.674-.676-1.34-1.265-2.4-.652-.359.207-.4-.221-.4-.476.006-.475-.137-1.025.546-1.209.3-.082.688.131.933-.245-.253-.471-1.262-.025-1.1-.653s.826.01,1.276-.016a6.39,6.39,0,0,0,2.346-1.057,2.042,2.042,0,0,1,1.382-.224c1.131.218,2.1-.434,3.107-.814q0-.344.007-.688l-.255-.256c-.366-.053-.789.192-1-.419a.674.674,0,0,1,.312-.943c.638-.386.221-.836.075-1.262,1.365-.389,1.391-.463.39-1.4a.48.48,0,0,1-.148-.49,7.042,7.042,0,0,0-1.472.055c-.723.089-1.44.827-2.248-.244a3.67,3.67,0,0,0-2.316-.626,4.425,4.425,0,0,0-2.291,1.1v-2.091c0-.489.341-.5.7-.537.582-.051,1.156-.511,1.194-.889a2.67,2.67,0,0,0-.666-1.526c-.3-.421-.557-.065-.785.212-.261.315-.643.542-.986.226-.366-.337.045-.605.251-.851.458-.543.217-1.328.714-1.889.407-.459.747-.807,1.3-.31,1.107.99,2.174.246,3.228-.078.423-.131.781-.472,1.275-.391.447-.063.906.161,1.508-.129-.576-.449-.508-.88.055-1.247a.268.268,0,0,0-.015-.473c-.693-.371-1.745.067-2.157-.962a.278.278,0,0,0-.213.026c-.425.5-.857.011-1.282.018-.153-.2.05-.585-.3-.669a10.8,10.8,0,0,0-3.14-.714c.038-.546-.766-.579-.7-1.141-.178.141-.36.276-.532.422-.675.578-1.285,1.007-1.989-.046a1.036,1.036,0,0,0-1.579-.346c-.656.461-1.075-.2-1.467-.512-.635-.506-1.2-.676-1.808-.068a.844.844,0,0,1-1.232-.005c-.6-.452-1.156-.973-1.751-1.439-.741-.58-1.442-.889-2.321-.095-.8.724-1.528-.3-2.324-.344-.183-.01-.345-.377-.582-.268-.7.324-.938-.064-1.138-.63a2.235,2.235,0,0,0-.386-.54l.476-.126c-.667-.709-1.609.188-2.339-.429-.49-.414-.928-.25-1.016.464-.071.576-.371.632-.889.475-.775-.234-.895.085-.514.735a1.84,1.84,0,0,1,.108.568c-.543.073-1.1-.534-1.508.065-.969,1.424-2.223,2.746-1.789,4.744-.506-.1-.968-.137-.843-.757.14-.7-.212-.749-.773-.706-.6.046-1.052.665-1.725.431-.035-.012-.259.281-.226.349.2.413-.23.793-.029,1.189.406.025.122.8.81.678.259-.047.111.591-.075.824-.309.386-.36-.051-.521-.212a5.857,5.857,0,0,0-.7-.53c-1.478,1.274-1.594,1.9-.727,3.947-.027.025-.051.066-.079.07a.97.97,0,0,1-.327.01c-.833-.215-1.42-.058-1.544.927a1.556,1.556,0,0,1-.552,1.295c-.315.221-.06.439.226.669.5.405,1.116.9.3,1.614a.559.559,0,0,0-.151.632c.194.481-.071.52-.438.451-1.108-.208-1.838.06-2.009,1.345-.039.3-.082.5.12.66.382.311.306.524-.061.774-.871.591-.911,1.079-.2,2.1l.359.241-.066-.013-.022.064c1.807-.189,2.251.162,2.381,1.992.052.743.364,1.111,1.116,1.152a5.9,5.9,0,0,1,3.147,1.455c.437.321.555.913.152,1.18-1.3.857-.624,1.556.072,2.276.373.386.652.677.114,1.194-.8.773-1.088.714-1.538-.552a4.469,4.469,0,0,1-2.249,1.053c.776.33,1.139.528.771,1.318-.164.353,1,.744,1.48,1.158,1.032.886,2.695.178,3.556,1.519-.5.3-.872-.016-1.223-.131a1.582,1.582,0,0,0-2.222.929,2.081,2.081,0,0,1-2.253,1.373c-.307.141-.617.278-.922.425-.926.446-1.088.034-.888-.788l-.549-.027c-.469.309-.857.791-1.511.709-.179.194-.322.473-.543.564a.713.713,0,0,0-.289,1.194c.354.473.707.1.984-.259.077-.1.256-.118.615-.269-.457.7.148,1.448-.59,1.907,2.013.486,2.882,2.705,4.876,3.221.069.018.118.113.186.129.828.187,1.591.538,1.585,1.495a2.059,2.059,0,0,1-1.414,1.873,1.091,1.091,0,0,0-.639.858c-.286,1.42-1.127,1.74-2.446,1.294-1.117-.378-2.118-1.241-3.422-.98-.918.752-1.091,1.561-.372,1.7a1.3,1.3,0,0,1,1.091,1.252.935.935,0,0,0,1.221.853,2.774,2.774,0,0,0,1.742-1.151c.1-.143-.342-.655.267-.545a.642.642,0,0,1,.493.783c-.12.867.52,1.5,1.61,1.613a2.385,2.385,0,0,1,.824-3.158c1.285-.776,2.3-.292,3.358.321a2.289,2.289,0,0,0,2.47.1c.41-.245.71-.037,1.07.07.74.218,1.471.71,2.271.171a1.116,1.116,0,0,1,.211-.8h0c.528.022.821-.52,1.328-.551l.242.025c.9.848,1.862-.028,2.8.063.667.064,1.167.091,1.33.831,1.052.615.123,1.354.124,2.035a2.3,2.3,0,0,0,1.721-.306.691.691,0,0,1,1.052.316c.429.932,1,.849,1.712.414.238-.145.493-.209.69.086.732.466,1.073-.3,1.662-.6-.013.241.034.427-.037.514-.505.614-.321.9.28,1.431a3.929,3.929,0,0,0,3.255.771c1.38-.1,1.4-.116.866-1.475a.873.873,0,0,1,0-.3.932.932,0,0,1,.759.5c.283.382.62.643,1.049.363.413-.268.235-.732.032-1.027a.774.774,0,0,1-.019-1.1.508.508,0,0,0-.2-.783c-.2-.107-.463-.2-.114-.443.2-.139.527-.246.594-.023.143.478.616.5.873.793.89,1.011,1.566,1,2.228-.016a.277.277,0,0,1,.48.019c.878-.673-.428-.889-.2-1.517,1.405-.105,1.412-1.672,2.23-2.51.187-.191.186-.54.582-.558.328-.016.964.138.647-.518-.188-.389-.235-1.347-1.094-.851-.693.4-1.015-.1-1.157-.481-.294-.785-.733-.759-1.336-.481-.755.349-1.632-.019-2.421.574-.386.289-.706-.638-1.023-1.035s.055-.693.25-1.011c.329-.534.593-.226.913.014a.652.652,0,0,0,.542.087c1.176-.5,2.523-.175,3.672-.781.167-.089.493-.125.505-.22a2.031,2.031,0,0,1,1.9-1.914c.2-.031.161-.489-.064-.692-.388-.348-.24-.668.025-1.039l1.033.9c-.337-1.148.261-1.084.841-1.06.458.018.917.016,1.376.023.863.059,1.306-.431,1.036-1.176-.41-1.135.084-1.582,1.023-1.958.345-.138.795-.218.965-.694A1.236,1.236,0,0,0,459.942,149.87Z" transform="translate(-409.959 -113.322)"/><path class="c" d="M413.648,146.337c1.807-.189,2.251.162,2.381,1.992.052.743.364,1.111,1.116,1.152a5.908,5.908,0,0,1,3.147,1.455c.437.321.555.913.152,1.18-1.3.857-.625,1.556.072,2.276.373.386.652.677.114,1.194-.8.772-1.088.713-1.538-.553a4.469,4.469,0,0,1-2.249,1.053c.776.33,1.139.528.771,1.318-.164.353,1,.744,1.48,1.158,1.032.887,2.695.178,3.556,1.518-.5.3-.872-.015-1.223-.131a1.583,1.583,0,0,0-2.222.93,2.08,2.08,0,0,1-2.253,1.373c.438-.7.229-1.008-.562-1.274-.994-.335-.9.52-1.248.911l-.549-.027c-.077-.48-.472-.919-.767-.492-.359.519-.934.7-1.271,1.168-1.11.463-1.695.106-1.534-1.126.069-.529-.4-.954.08-1.658.543-.8.947-.7,1.621-.581.622.113,1.072-.187.948-.838-.061-.318-.41-.832-.909-.276-.522.582-.7.313-1.171-.209-.846-.94-.414-1.564.07-2.393.238-.408.312-.514.7-.245.478.335,1.022-.025,1.271-.228.337-.273-.364-.482-.418-.718-.2-.865-1.165-1.722-.052-2.661.411-.347.73-.6,1.292-.437.311.091.709.161.709-.412,0-.455-.092-.961-.573-.961a1.185,1.185,0,0,1-.967-.383c-.715-.618-.946-1.126-.154-1.879C413.911,147.107,413.774,146.763,413.648,146.337Zm4.611,6.289c-.076-.475-.454-.5-.606-.345-.769.763-1.788.164-2.679.519a1.449,1.449,0,0,0-.934.688c-.316.542.09.75.274,1.086s.461.373.566.04c.237-.756.818-.73,1.422-.829C417.1,153.653,417.565,152.917,418.26,152.626Z" transform="translate(-409.861 -121.186)"/><path class="c" d="M463.169,182.074c.878-.673-.428-.889-.2-1.517,1.405-.1,1.412-1.671,2.23-2.509.187-.191.186-.54.582-.558.328-.015.964.138.647-.519-.188-.389-.235-1.345-1.094-.851-.693.4-1.016-.1-1.157-.481-.294-.785-.733-.759-1.336-.481-.755.348-1.632-.019-2.421.573-.386.29-.706-.639-1.023-1.035s.055-.693.251-1.011c.328-.534.593-.226.913.013a.65.65,0,0,0,.542.088c1.177-.5,2.523-.175,3.672-.781.167-.089.493-.125.505-.22a2.031,2.031,0,0,1,1.9-1.913c.2-.031.162-.489-.064-.692-.388-.348-.24-.668.025-1.039l1.033.9c-.337-1.147.261-1.084.841-1.061.458.019.917.017,1.376.024-.133.576-.636.316-.973.431a.144.144,0,0,0-.063.152c-.188.191-.707.152-.521.589.129.3.374.134.647.024.614-.246,2.57.754,2.849,1.354.1.219.232.545.091.643-1.02.708-.333,1.257.135,1.819.3.363.026.69-.1.943-.451.892-.493,2.041-1.739,2.458a.94.94,0,0,1-1.072-.122c-.543-.4-1.41-.191-1.818-.907-.228.133-.457.235-.465.579-.01.415.014.78.489.9.518.131,1.577-.167.563.972-.294.331.7.475.819,1.053-1.052.209-1.119,1.479-2.106,1.982a16.071,16.071,0,0,0-2.1.877c-.618.427-.364-.5-.656-.654C463.968,181.856,463.542,183.8,463.169,182.074Z" transform="translate(-422.083 -126.912)"/><path class="c" d="M454.073,119.183c-.178.141-.36.275-.532.422-.675.578-1.284,1.007-1.989-.046a1.036,1.036,0,0,0-1.579-.346c-.656.461-1.075-.2-1.467-.512-.635-.506-1.2-.676-1.809-.068a.843.843,0,0,1-1.231-.005c-.6-.452-1.156-.973-1.751-1.439-.74-.58-1.442-.889-2.321-.095-.8.724-1.528-.3-2.324-.344-.183-.01-.345-.378-.582-.268-.7.324-.938-.063-1.138-.63a2.235,2.235,0,0,0-.386-.54l.477-.126.68.022c.292.073.528.043.588-.315.8.043,1.336-1.121,2.333-.425-.132-.844.1-1.344.947-.968.378.167.456-.066.643-.215,1.116-.892,2.2-.765,2.85.434.381.7.986.261,1.462.439a14.451,14.451,0,0,1,2.382.861c.16.118.282.048.413,0,.172-.06.452-.256.5-.083.35,1.16,1.545.759,2.237,1.262-.089.328-.39.463-.63.629s-.441.435-.283.648c.25.337.552.1.757-.141.226-.267.431-.541.839-.473.2.315,1.355.129.469,1.01a1.465,1.465,0,0,0,.367.029c.525-.11,1.177-.037,1.3.414.164.61-.626.431-.953.668Zm-12.809-4.418c-.034-.1-.061-.218-.2-.144a.189.189,0,0,0-.062.173c.025.078.027.238.181.159C441.228,114.93,441.237,114.831,441.263,114.765Z" transform="translate(-416.448 -112.705)"/><path class="d" d="M441.322,187.513a2.308,2.308,0,0,0,1.721-.306.691.691,0,0,1,1.052.316c.43.932,1,.849,1.712.414.238-.145.493-.21.69.087a2.694,2.694,0,0,0-.827,2.24c.058,1.517.071,3.039.007,4.555a2.778,2.778,0,0,0,1.481,2.861l.019-.025c-2.506.157-5.005-.364-7.561-.015a2.5,2.5,0,0,0,1.429-2.541,25.284,25.284,0,0,0-.09-4.667q-.149-1.089-.3-2.178Z" transform="translate(-417.118 -131.482)"/><path class="c" d="M467.974,136.287a7.043,7.043,0,0,0-1.472.055c-.722.089-1.44.827-2.248-.243a3.67,3.67,0,0,0-2.316-.627,4.416,4.416,0,0,0-2.291,1.1q0-1.045,0-2.09c0-.49.342-.5.7-.537.581-.052,1.156-.511,1.194-.89a2.671,2.671,0,0,0-.666-1.526c-.3-.421-.557-.065-.785.212-.261.315-.643.542-.986.227-.366-.337.045-.605.251-.851.458-.543.217-1.328.714-1.889.407-.46.747-.807,1.3-.31,1.107.99,2.174.246,3.228-.078.423-.131.781-.472,1.275-.391-.044.226.27.561-.146.665s-.451.348-.336.676c.106.3.347.338.643.32.648-.04,1.2-.129,1.212.921.008,1.153-.743.75-1.383.88.3.414.861.756.41,1.325a1.375,1.375,0,0,1-1.024-.136l-.262.039.114.161c-.13,1.108.841.352,1.166.688,0,.227.012.453.006.679-.01.4-.738.879-.339,1.03a1.952,1.952,0,0,0,1.556.14c.266-.13.609-.212.762.172C468.314,136.152,468.126,136.247,467.974,136.287Z" transform="translate(-422.003 -116.676)"/><path class="c" d="M412.914,172.239c2.013.486,2.882,2.706,4.876,3.222.069.017.118.112.186.127.828.188,1.591.539,1.585,1.5a2.058,2.058,0,0,1-1.413,1.873,1.091,1.091,0,0,0-.639.858c-.286,1.42-1.127,1.74-2.446,1.294-1.117-.379-2.118-1.241-3.422-.98,0-.114.022-.321,0-.327-1.2-.292-.869-1.091-.679-1.887.031-.126-.237-.379-.418-.49-.4-.249-.665-.51-.383-1.008a.658.658,0,0,0,.083-.306c-1.718-.884.141-.987.354-1.2a8.9,8.9,0,0,1,1.775-1.114c-.928-.82-.929-.824-.372-1.271l.254-.147A.464.464,0,0,1,412.914,172.239Zm4.959,5.193c-1.014-.013-1.621-.2-1.976-1.067a1.188,1.188,0,0,0-1.6-.5c-.318.131-.618.17-.611-.333.013-.981-.053-.981-.969-.752-1.038.259-1.114.984-1.137,1.839,0,.155-.328.36-.162.58a.512.512,0,0,0,.73.071c.683-.6,1.662.132,2.322-.555.087-.092.482-.033.429.2-.183.777.969,1.159.405,2C416.222,178.774,416.3,178.732,417.872,177.433Z" transform="translate(-409.518 -127.719)"/><path class="c" d="M420.348,187.649a2.384,2.384,0,0,1,.824-3.157c1.285-.776,2.3-.292,3.358.321a2.29,2.29,0,0,0,2.471.1c.41-.245.71-.037,1.07.07.739.218,1.47.711,2.27.171a2.322,2.322,0,0,1,.931,1.589l-.539.46c-.17.065-.4.048-.445.3-.487.145-.546.49-.431.917a.576.576,0,0,0-.032.216l-.2.238c-.623-.262-1.1.287-1.676.3l-.014.006c-.088-.353-.024-.869-.67-.625l-.093.01-.01,0-.306-.6.3-.515c.589-.271.767-.673.377-1.235-.453-.653-.827-.167-1.207.1a1.808,1.808,0,0,1-.878.466c-.727-.443-1.458-.878-2.174-1.336-.2-.124-.375-.319-.576-.092s-.247.462.115.626a.673.673,0,0,1,.434.554c-.769.014-.987.537-1.05,1.188l-.276.094-.332-.235c-.067-.25-.168-.49-.472-.478-.235.009-.229.224-.236.4Z" transform="translate(-412.174 -130.731)"/><path class="c" d="M422.863,188.1c.064-.651.281-1.174,1.05-1.189a.673.673,0,0,0-.434-.554c-.362-.164-.309-.408-.115-.626s.381-.032.576.092c.717.458,1.448.893,2.174,1.336-.045.12-.088.241-.132.362a5.749,5.749,0,0,0,.158,2.424l-.007.008c-.33-.331-.679-.566-1.143-.232l0,0c.011-.861-.441-1.135-1.162-.765-.743.381-1.037.144-1.138-.589Z" transform="translate(-412.843 -131.12)"/><path class="c" d="M439.342,191.167c-.135-.35.327-.875-.558-1.025-.556-.093.388-.435.281-.792l1.336-.694q.149,1.089.3,2.178C440.159,190.583,439.86,191.321,439.342,191.167Z" transform="translate(-416.864 -131.884)"/><path class="c" d="M413.118,167.573c.337-.472.913-.65,1.272-1.168.3-.427.69.012.767.492-.469.309-.857.791-1.511.709Z" transform="translate(-410.427 -126.222)"/><path class="c" d="M458.077,118.047c-.408-.068-.613.206-.839.473-.206.242-.507.478-.757.141-.158-.213.028-.471.283-.648.24-.166.541-.3.63-.629C457.7,117.521,458.038,117.631,458.077,118.047Z" transform="translate(-421.362 -113.886)"/><path class="b" d="M429.141,191.641a.926.926,0,0,1-1.034.86c-.611-.01-.689-.608-.81-1.088l.008-.008a1.359,1.359,0,0,0,1.829.23Z" transform="translate(-414.008 -132.578)"/><path class="b" d="M429.561,190.067l.093-.01c.191.243.132.754.67.625l.014-.006c-.153.272-.255.6-.646.625l-.007-.007C429.667,190.883,429.331,190.5,429.561,190.067Z" transform="translate(-414.559 -132.238)"/><path class="b" d="M421.162,188.508c.007-.177,0-.392.236-.4.3-.011.406.228.472.478A.847.847,0,0,1,421.162,188.508Z" transform="translate(-412.458 -131.746)"/><path class="c" d="M439.1,115.628c-.061.357-.3.387-.588.315A.5.5,0,0,1,439.1,115.628Z" transform="translate(-416.839 -113.439)"/><path class="b" d="M413.089,172.457l-.254.146Z" transform="translate(-410.355 -127.794)"/><path class="c" d="M422.83,188.936l-.178.262a.32.32,0,0,1-.1-.168Z" transform="translate(-412.81 -131.955)"/><path class="c" d="M414.221,145.961l.359.241C414.351,146.285,414.284,146.126,414.221,145.961Z" transform="translate(-410.705 -121.103)"/><path class="c" d="M430.955,142.956c.848.019,1.457.622,2.174.943,1.194.534,2.27,1.058,3.362-.181a1.049,1.049,0,0,1,1.281-.182,2.475,2.475,0,0,0,3.239-.783c.2-.224.39-.738.765-.292.239.283.233.954-.067,1.029-.99.244-1.326,1.568-2.549,1.421a1.812,1.812,0,0,1-.939-.183c-.4-.274-.67.054-.807.36-.175.388.126.583.458.6,1.141.055,2.343.595,3.375-.379.164-.155.384-.328.587-.076.758.946,1.013-.1,1.341-.4.247-.229.4-.708.735-.345.662.713,1.466.5,2.245.541.745.04,1.108.619.6,1.094a2.114,2.114,0,0,0-.513,1.77,3.511,3.511,0,0,1-.562,2.16c-.152.2-.339.492-.646.357a.7.7,0,0,1-.357-.673c.01-.3.142-.59.164-.889.044-.6.231-1.445-.432-1.621a1.543,1.543,0,0,0-1.858.718c-.107.217-.256.512-.451.46-1.328-.36-2.749.34-4.039-.366-.067-.037-.176-.059-.194-.112-.39-1.188-1.081-1.622-2.241-.915-.889-1-2.4-.7-3.341-1.6a5.344,5.344,0,0,0-1.739-.823c-.339-.146-1.044.226-.984-.409a1.364,1.364,0,0,1,1.16-1.225A1.46,1.46,0,0,1,430.955,142.956Z" transform="translate(-414.579 -120.175)"/><path class="c" d="M440.261,132.1c-.736.081-1.166-.484-1.709-.808-.475-.284-.855-.471-1.123.3-.243.7-.724.882-1.591.847-1.291-.052-2.364-.8-3.622-.8-.2-.084-.327-.318-.254-.445.449-.769.058-1.147-.545-1.589-.38-.28-.333-.784.118-1.116a1.368,1.368,0,0,0,1.656-.319,2.424,2.424,0,0,1,2.955-.3,7.465,7.465,0,0,1,2.628,1.513c.369.412.948.147,1.425.23Q440.231,130.852,440.261,132.1Z" transform="translate(-414.983 -116.441)"/><path class="d" d="M442.333,156.1l2.979.016.471,4.777c.007.349-.14.927.524.493.392-.257.884-.426,1.112-.9a4.943,4.943,0,0,0,1.92-1.326c.615.141,1.124-.248,1.692-.34l.334.347c-.054.268-.271.342-.492.41a2.048,2.048,0,0,0-1.991.988,5.658,5.658,0,0,1-2.567,1.76c-.839.331-1.893.365-2.569,1.083-.283.3-.356.073-.5-.077-.308-.318-.755-.517-.867-1Q442.357,159.209,442.333,156.1Z" transform="translate(-417.804 -123.662)"/><path class="c" d="M440.476,156.092q.024,3.115.048,6.229c-.465-.732-1.008-1.2-1.832-.494-.187-.252-.022-.342.061-.451.176-.231.531-.463.225-.765-.262-.258-.441.2-.682.22-.493.029-.941,1.1-1.48.072l.052-.087-.046.093a8.807,8.807,0,0,1-1.211-.3.981.981,0,0,1-.623-1.1c.051-.552.408-.673.875-.679.3,0,.715.007.691-.4-.063-1.065.667-1.1,1.4-1.212a2.321,2.321,0,0,0,1.6-.771A.95.95,0,0,1,440.476,156.092Z" transform="translate(-415.947 -123.659)"/><path class="c" d="M444.867,174.018q.022-.325.046-.649c.525-.091.989.21,1.563.116,1.038-.17,1.6-.432,1.654-1.664.029-.632.736-1.3,1.265-1.822a.719.719,0,0,1,1.17.6,5.693,5.693,0,0,0,.437,2.422c.679,1.445.21,2.078-1.661,2.349A6.013,6.013,0,0,1,444.867,174.018Z" transform="translate(-418.444 -127.128)"/><path class="c" d="M441.882,173.646c-.611.482-.473,1.168-.49,1.811a1.693,1.693,0,0,1-1.413-.632,20.55,20.55,0,0,0-2.6-2.673c-.772-.674-.48-1.923-.713-2.9-.007-.026.03-.09.046-.09a11.908,11.908,0,0,1,2.646.054c.228.05.374,1.043.326,1.582a11.016,11.016,0,0,0-.138,1.106c0,.236.092.593.319.5C441.144,171.875,441.386,172.952,441.882,173.646Z" transform="translate(-416.372 -126.948)"/><path class="c" d="M432.47,176.46c-.052.283.164.713-.282.863a1.167,1.167,0,0,1-1.191-.158c-.7-.605-1.3-1.361-2.424-1.224-.378.046-.507-.432-.46-.791a1.994,1.994,0,0,0-.8-1.9c-.239-.2-.635-.58-.313-.825s1.051-.274,1.2.215c.4,1.336,1.449,1.49,2.55,1.7C432.281,174.627,432.459,174.871,432.47,176.46Z" transform="translate(-413.903 -127.742)"/><path class="c" d="M446.79,160.482l-.471-4.777a16.913,16.913,0,0,0,3.037-1.218c-.048.582-.538.756-.5,1.179-.786.315-.742,1.005-.646,1.632.1.658.638.893,1.26.907.408.01.751.1.877.546a4.944,4.944,0,0,1-1.92,1.326C447.709,159.52,447.276,160.106,446.79,160.482Z" transform="translate(-418.811 -123.256)"/><path class="c" d="M439.192,187.407l-1.336.694c-.944-.016-1.418-.931-2.252-1.188a5.347,5.347,0,0,0-.851-.262,2.318,2.318,0,0,0-.931-1.59,1.118,1.118,0,0,1,.211-.8c.528.022.822-.52,1.328-.551l.242.025c-.758,1.12.454,1.58.8,2.317.207.434.557.852,1.161.694s1.188-.458,1.262-1.14a1.021,1.021,0,0,1,.9-.978c1.053.616.123,1.354.125,2.036Z" transform="translate(-415.655 -130.636)"/><path class="c" d="M440.254,184.638a1.021,1.021,0,0,0-.9.978c-.074.682-.651.979-1.262,1.14s-.954-.26-1.161-.694c-.351-.737-1.562-1.2-.8-2.317.9.848,1.862-.028,2.8.063C439.591,183.872,440.091,183.9,440.254,184.638Z" transform="translate(-416.174 -130.644)"/><path class="c" d="M450.968,159.15c-.126-.451-.469-.537-.877-.546-.622-.015-1.159-.25-1.26-.907-.1-.626-.14-1.316.646-1.632a1.687,1.687,0,0,1,1.108.9,1.184,1.184,0,0,0,1.061.715,1.049,1.049,0,0,1,1.016,1.129C452.092,158.9,451.583,159.291,450.968,159.15Z" transform="translate(-419.432 -123.654)"/><path class="c" d="M443.794,167.187c.843.158,1.585.3,2.328.437a.423.423,0,0,1,.374.482c0,.288-.179.392-.438.41-.152.01-.357-.036-.445.045-.887.814-1.594,1.2-2.693.056-.557-.581-.606-.531.008-.9C443.247,167.532,443.493,167.219,443.794,167.187Z" transform="translate(-417.843 -126.463)"/><path class="c" d="M468.363,146.7a1.052,1.052,0,0,1-.857-.454c-1.01.38-1.976,1.032-3.107.814a2.042,2.042,0,0,0-1.382.224,6.391,6.391,0,0,1-2.346,1.057c-.45.026-1.107-.617-1.276.016s.842.182,1.1.653c-.245.376-.629.163-.933.245-.683.185-.54.735-.546,1.209,0,.256.037.683.4.476,1.062-.614,1.728-.024,2.4.652a2.655,2.655,0,0,0-.466,1.961c-.584.3-.715,1.034-1.128,1.359a11.179,11.179,0,0,1-4.6,2.388c-.145.582-.605.374-.977.392,1.11.6,2.062,1.75,3.561,1.028a.588.588,0,0,1,.436,0,2.654,2.654,0,0,0,2.929-.617c.5-.392,1.415-.285,1.416-1.26,0-.007.283-.013.434-.018.968.257,1.927.461,2.682-.478.487,0,.909.075.54.706-.162.279-.384.573,0,.765s.821.511,1.275.236c.3-.182.822-.343.7-.793-.3-1.126,0-2.3-.262-3.387a1.865,1.865,0,0,1,.6-2.2,5.456,5.456,0,0,1,.737-2.436C470.451,147.829,470.016,146.951,468.363,146.7Zm-2.215,8.286q-.03-.334-.062-.668c.281,0,.667-.126.663.338C466.746,155.028,466.393,154.954,466.148,154.99Z" transform="translate(-420.912 -121.176)"/><path class="d" d="M443.315,132.472q-.03-1.25-.062-2.5l.722-.081a1.794,1.794,0,0,0,.078.562c.141.288.132.756.552.776.348.017.436-.4.58-.641.309-.517.538-1.081.8-1.626l.783.525c-.5.83-1.317,1.476-1.45,2.517C444.62,132.032,444.1,132.833,443.315,132.472Z" transform="translate(-418.037 -116.81)"/><path class="c" d="M464.153,167.428c.382.035.822-.034.809.352a.853.853,0,0,1-.755.749c-.7.058-1.282.1-1.182,1.049.035.332-.3.391-.579.387-.256,0-.57.066-.688-.25a.927.927,0,0,1,.052-.976A3.786,3.786,0,0,1,464.153,167.428Z" transform="translate(-422.681 -126.524)"/><path class="c" d="M446.015,132.183c.133-1.041.952-1.687,1.45-2.517.59.1.778.632,1.091,1.03-.762.34-.515,1.2-.893,1.736Z" transform="translate(-418.734 -116.988)"/><path class="c" d="M416.554,166.823c.343-.391.253-1.246,1.248-.911.792.267,1,.57.562,1.274-.307.141-.617.278-.922.425C416.516,168.057,416.354,167.645,416.554,166.823Z" transform="translate(-411.275 -126.122)"/><path class="c" d="M446.229,128.929c-.262.545-.49,1.109-.8,1.626-.144.24-.232.658-.58.641-.42-.02-.411-.488-.552-.776a1.794,1.794,0,0,1-.078-.562C444.78,129.311,445.242,128.552,446.229,128.929Z" transform="translate(-418.281 -116.776)"/><path class="c" d="M445.177,182.916c-.388-.32-.808-.709-.6-1.222.238-.591.806-.2,1.215-.17a15.314,15.314,0,0,1,1.67.292c-.057.645-.537.643-.994.622A1.291,1.291,0,0,0,445.177,182.916Z" transform="translate(-418.357 -130.044)"/><path class="d" d="M448.219,132.78c.378-.537.132-1.4.893-1.736.818.394-.049.986.17,1.451-.478.226-.333.67-.368,1.052C448.631,133.338,448.268,133.2,448.219,132.78Z" transform="translate(-419.291 -117.336)"/><path class="b" d="M449.15,134.037c.034-.382-.111-.826.368-1.052.322.087.834.009.632.605C449.989,134.062,449.688,134.348,449.15,134.037Z" transform="translate(-419.526 -117.826)"/><path class="b" d="M460.3,122.9c-.341.793-.341.793-1.405.014h1.419Z" transform="translate(-421.987 -115.279)"/><path class="b" d="M465.284,124.746l-.134.514c-.058-.066-.151-.125-.167-.2-.052-.244.076-.336.309-.306Z" transform="translate(-423.521 -115.745)"/><path class="b" d="M419.288,154.621c-.694.292-1.158,1.027-1.958,1.159-.6.1-1.185.073-1.422.829-.1.333-.387.29-.566-.04s-.59-.544-.274-1.086A1.449,1.449,0,0,1,416,154.8c.891-.354,1.91.244,2.679-.519C418.835,154.126,419.212,154.146,419.288,154.621Z" transform="translate(-410.89 -123.182)"/><path class="c" d="M470.015,157.712q-.03-.334-.062-.668c.281,0,.667-.126.663.338C470.613,157.75,470.259,157.676,470.015,157.712Z" transform="translate(-424.779 -123.898)"/><path class="c" d="M442.626,115.405c-.026.065-.035.164-.082.188-.154.078-.156-.081-.181-.159a.189.189,0,0,1,.062-.173C442.565,115.186,442.591,115.309,442.626,115.405Z" transform="translate(-417.811 -113.344)"/><path class="b" d="M418.5,178.277c-1.576,1.3-1.65,1.342-2.569,1.478.564-.838-.588-1.22-.405-2,.053-.228-.342-.287-.429-.2-.66.687-1.638-.044-2.322.555a.512.512,0,0,1-.73-.071c-.166-.221.158-.425.162-.58.022-.855.1-1.579,1.137-1.839.916-.229.981-.229.969.752-.007.5.294.463.611.333a1.188,1.188,0,0,1,1.6.5C416.877,178.078,417.484,178.264,418.5,178.277Z" transform="translate(-410.143 -128.563)"/><path class="c" d="M428.93,189.494c-.23.437.106.816.125,1.227a1.36,1.36,0,0,1-1.829-.23,5.758,5.758,0,0,1-.159-2.423,1.142,1.142,0,0,0,1.167-.137c.469-.324.68-.059.676.442l-.3.515c-.231.025-.478.072-.346.382.119.28.378.314.653.219Z" transform="translate(-413.928 -131.666)"/><path class="c" d="M428.938,188.044c0-.5-.207-.766-.676-.443a1.142,1.142,0,0,1-1.167.137c.045-.122.088-.242.133-.363a1.8,1.8,0,0,0,.879-.466c.38-.268.754-.754,1.207-.1C429.7,187.37,429.527,187.773,428.938,188.044Z" transform="translate(-413.956 -131.336)"/><path class="c" d="M429.341,189.861c-.274.095-.534.061-.652-.219-.132-.309.115-.357.346-.382Q429.188,189.561,429.341,189.861Z" transform="translate(-414.349 -132.037)"/><path class="c" d="M430.383,190.661c-.537.129-.478-.382-.67-.625C430.359,189.792,430.295,190.308,430.383,190.661Z" transform="translate(-414.618 -132.217)"/><path class="c" d="M446.946,162.294c.486-.377.919-.962,1.636-.405-.228.472-.72.641-1.112.9C446.806,163.221,446.953,162.643,446.946,162.294Z" transform="translate(-418.967 -125.067)"/><path class="b" d="M437.441,162.507l.046-.093-.052.087Z" transform="translate(-416.567 -125.258)"/></g></g></svg>