<svg xmlns="http://www.w3.org/2000/svg" width="151.686" height="67.083" viewBox="0 0 151.686 67.083"><g transform="translate(-1031.819 -282.812)"><g transform="translate(1031.819 298.563)"><path d="M562.441,142.5a2.812,2.812,0,0,1-3.033,2.722,16.5,16.5,0,0,0-4.928.5c-2.3.88-5.98.884-8.314,1.156.582-3.144,2.624-6.45,4.765-6.764.806-.357,3.447,2.223,3.584.877.1-.966,1.814-3.285-1.393-3.487-1.7-.108-.684-1.08,0-1.657,1.232,1.209,2.44,1,3.7,0a15.147,15.147,0,0,1,3.07-2.142,1.587,1.587,0,0,0,.944-2.293c-.3-.783-.612-1.558-2.013-1.427-2.123.2-4.538-1.081-5.908,1.695a.432.432,0,0,1-.4.014c-1.338-1.307-1.98.584-3.037.672-1.117.093-.916,1.276-.979,1.941-.1,1.065.916.587,1.474.666.5.071,1.032-.017,1.393.458-.822.009-1.332.7-2.057.981a5.987,5.987,0,0,0-3.725,4.272,2.658,2.658,0,0,0-.419.064l-.463-.034c-.285-.585-.56-1.175-.856-1.755-1.456-2.847-1.509-6.732,1.142-8.242.974-.145,2.384-.592,2.826-1.359,1.332-2.3,1.717-5.079,3.566-7.117.725.135,1.724-.409,2.07.685a1.913,1.913,0,0,1-.99,2.4,4.9,4.9,0,0,0-1.088,1.077c-.394.461-.554.931.275,1.086a12.687,12.687,0,0,0,4.981.406,4.171,4.171,0,0,0,3.3-2.578c.413-1.339-1.333-1.262-1.934-1.979-1.174-1.4-2.9-2.441-2.784-4.7.051-1.006-.584-2.42-1.6-2.326-3.114.287-6.6-2.35-9.35,1.1-.5.625-2.364.231-1.309,1.98.671,1.114.882,2.44,2.826,1.5,1.288-.62,3-1.266,4.256.413-.632.416-.676,3.409-2.3.177.816,2.075-1.461,3.008-1.12,4.839a1.841,1.841,0,0,1-2.036,1.529c-1.12-.275-.59-1.316-.695-2.038-.072-.5-.013-1.019-.051-1.526-.034-.457-.215-.889-.707-.972s-.563.354-.62.709a.813.813,0,0,1-1.073.766c-.672-.133-.616-.7-.673-1.2-.071-.624.145-1.827-.4-1.747-2.576.378-.775-1.652-1.388-2.292.239-1.81,1.974-2.1,3.094-2.992,1.249-1,1.466-3.2.242-3.3-2.355-.193-5-1.775-7.05.8-.512.643-1.035.751-1.207-.06-.291-1.366-1.536-2.016-2.073-3.164l.483-.644c.721-1.253,2.6-2.531,3.094-2.329,2.548,1.049,4.737-2.1,7.2-.379.279.2.969-.118,1.436-.283,4.2-1.493,6.054-.472,8.117,3.533a3.769,3.769,0,0,0,4.736,1.4c-2.291,1.9-.6,3.7.308,5.321.95,1.689,2.537.711,3.893.4-.373,1.35.122,2.076,1.5,2.434a2.62,2.62,0,0,1,1.944,2.575c-.008,1.589.83,1.892,2.038,1.866,1.507-.032,2.45.472,2.674,2.1a3.325,3.325,0,0,0,.734,1.776c2.373,2.736,1.639,6.1,1.7,9.266a1.533,1.533,0,0,1-1.65,1.666c-.876-.1-1.51.441-2.243.722-.724-.095-1.765-.118-.868-1.192.6-.714.506-1.611,1.055-2.338.711-.943,0-1.815-.747-2.419-.695-.559-1.538-.954-2.317-.064a3.4,3.4,0,0,1-1.934.864,2.326,2.326,0,0,0-2,2.679c.1.7.16,1.028-.686,1.184-1.814.335-1.821,2.037-1.986,3.306-.122.934.53,1.981,1.738.76A2.448,2.448,0,0,1,562.441,142.5Z" transform="translate(-508.135 -106.539)" fill="#07662f"/><path d="M522.339,112.879c.536,1.148,1.782,1.8,2.073,3.164.172.811.7.7,1.207.06,2.05-2.571,4.7-.989,7.05-.8,1.223.1,1.007,2.3-.242,3.3-1.119.9-2.855,1.182-3.094,2.993a1.976,1.976,0,0,0-2.185,1.786c-1.754.259-2.158,2.506-3.961,2.695l.013.012c-.047-.593-.778-1.117-.864-.737-.469,2.078-2.594.969-3.514,2.024.536-1.487-.389-2.849-.363-4.312.028-1.608,2.285-2.04,1.884-3.8a1.257,1.257,0,0,0-1.433.822c-1.2,2.354-2.528.653-3.8.167-.219-.085-.31-.478-.484-.711a1.181,1.181,0,0,0-1.354-.457c-.655.185-.693.77-.584,1.247.557,2.438-.836,3.418-2.869,3.907-.617.148-1.263.276-.993,1.063.394,1.148-.467,1.942-.82,2.768-.831,1.94-4.412,2.506-5.608,1.084-.551-.72.116-1.019.492-1.418.628.076.737-.4,1.062-.8.831-1.01.277-2.87,1.233-3.255,1.623-.653,1.9-2.01,2.613-3.184l.235-.6c2.918-.07,4.164-2.256,5.493-4.338.569-.194.569-.194.833.271,1.013,1.788,2.525,1.965,3.85.388a1.56,1.56,0,0,1,1.23-.732,1.86,1.86,0,0,0,2.015-1.84A.8.8,0,0,1,522.339,112.879Z" transform="translate(-498.494 -108.591)" fill="#1c884d"/><path d="M500.632,132.092c1.2,1.422,4.778.856,5.608-1.084.354-.826,1.215-1.62.82-2.768-.27-.787.376-.915.993-1.063,2.033-.49,3.426-1.469,2.869-3.907-.109-.477-.071-1.062.584-1.247a1.181,1.181,0,0,1,1.354.457c.174.233.265.626.484.711,1.268.486,2.6,2.187,3.8-.167a1.257,1.257,0,0,1,1.433-.822c.4,1.764-1.857,2.2-1.884,3.8-.026,1.463.9,2.826.363,4.312l.01-.011c-1.885.363-4.222-1.513-5.658,1.136-.03.056-.272-.011-.415-.007-2.576.088-2.576.088-2.849,2.68a4.382,4.382,0,0,1,3.119.368c.948.366.629,1.854,1.821,1.947.762.879.459,1.464-.571,1.645a1.832,1.832,0,0,0-1.658,1.877c-.419.114-.9.421-1.244.309-1.325-.427-2.442.825-4.045.016-1.432-.723-3.037,1.994-2.638,3.807.454,2.062,2.619,3.179,2.732,5.363-1.272-.5-2.556-.966-3.809-1.506-.386-.166-.994-.54-.983-.8.135-3.106-2.782-4.513-3.787-6.957-.6-1.455-.544-3.115,1-3.668C500.384,135.69,501.01,134.28,500.632,132.092Zm10.447,5.5c-.471-.188-1.132-.237-1.307-.555-1.615-2.928-4.217-2.145-6.694-1.88-1.209.13-1.324,1.208-1.275,1.947.071,1.075.925.428,1.513.358a3.7,3.7,0,0,1,2.444.722C508.5,139.966,508.644,139.962,511.08,137.592Z" transform="translate(-496.724 -111.532)" fill="#07662f"/><path d="M575.11,155.5a2.449,2.449,0,0,0-2.235.531c-1.209,1.221-1.86.174-1.738-.76.165-1.269.172-2.97,1.986-3.306.846-.156.782-.487.686-1.184a2.326,2.326,0,0,1,2-2.679,3.4,3.4,0,0,0,1.934-.864c.779-.89,1.623-.5,2.317.064.749.6,1.459,1.476.747,2.419-.549.727-.459,1.624-1.055,2.338-.9,1.075.143,1.1.868,1.192C579.378,155.468,577.181,155.333,575.11,155.5Z" transform="translate(-520.804 -119.543)" fill="#1c884d"/><path d="M508.6,158.054c-.113-2.183-2.279-3.3-2.732-5.363-.4-1.813,1.205-4.53,2.638-3.807,1.6.809,2.72-.444,4.045-.016.346.112.826-.195,1.245-.309.327.5,1.439.981.083,1.541-.962.4-.93,1.19-.91,2-.753.731-1.029,1.91-2.227,2.239a1.184,1.184,0,0,0-.918,1.315c.18.768.962.306,1.472.413.982.2,2.548-.565,2.776.87.2,1.248-1.5,1.163-2.3,1.754-.052.039-.139.029-.21.042-.8-.1-1.523-.031-1.919.814A1.415,1.415,0,0,1,508.6,158.054Z" transform="translate(-499.662 -120.139)" fill="#1c884d"/><path d="M511.47,164.389c.4-.845,1.123-.91,1.919-.814a4.639,4.639,0,0,0,4.577,2.623c2.242-.167,4.492-.306,6.715-.626,1.133-.162,2.649-.185,2.458-2.064,1.017.35,2.189.466,2.6,1.725-.6,1.428-1.935,1.936-3.18,2.554a2.112,2.112,0,0,1-.8.246c-.868-1.557-2.274-.453-3.394-.693a8.236,8.236,0,0,0-4.158-.249c-1.477.413-3.058-.823-4.268-.771C512.081,166.4,511.96,165.44,511.47,164.389Z" transform="translate(-501.497 -124.978)" fill="#07662f"/><path d="M527.543,112.344a.8.8,0,0,0-.881.761,1.86,1.86,0,0,1-2.015,1.84,1.56,1.56,0,0,0-1.23.732c-1.325,1.577-2.836,1.4-3.85-.388-.264-.465-.264-.465-.833-.272l-.459-.127c-.06-1.117.791-1.928,1.158-2.873.456-1.179,2.033-.148,2.918-.037a4.3,4.3,0,0,0,3.215-.52c.929-.634,1.638.225,2.46.24Z" transform="translate(-503.698 -108.056)" fill="#07662f"/><path d="M572.688,120.516c-1.356.306-2.943,1.284-3.893-.4-.912-1.623-2.6-3.423-.308-5.321,1.319.864,2.711,1.679,2.86,3.488C571.428,119.26,572.941,119.354,572.688,120.516Z" transform="translate(-519.579 -109.21)" fill="#1c884d"/><path d="M508.139,124.138c-.713,1.173-.99,2.531-2.613,3.184-.956.385-.4,2.245-1.233,3.255-.325.4-.434.877-1.063.8C504.188,128.5,504.744,125.357,508.139,124.138Z" transform="translate(-498.83 -112.235)" fill="#07662f"/><path d="M515.868,116.643l.459.127c-1.328,2.083-2.575,4.269-5.492,4.339C512.584,119.7,513.465,117.315,515.868,116.643Z" transform="translate(-501.291 -109.809)" fill="#07662f"/><path d="M555.134,125.648c-1.259-1.679-2.968-1.032-4.256-.413-1.944.935-2.155-.391-2.826-1.5-1.054-1.749.811-1.355,1.309-1.98,2.751-3.447,6.236-.811,9.35-1.1,1.019-.094,1.655,1.32,1.6,2.326-.116,2.258,1.61,3.3,2.784,4.7.6.717,2.347.64,1.934,1.979a4.171,4.171,0,0,1-3.3,2.578,12.686,12.686,0,0,1-4.98-.406c-.829-.154-.669-.624-.275-1.086a4.9,4.9,0,0,1,1.088-1.077,1.912,1.912,0,0,0,.989-2.4c-.346-1.094-1.345-.55-2.071-.685C556.4,125.735,555.753,125.713,555.134,125.648Z" transform="translate(-513.234 -110.882)" fill="#1c884d"/><path d="M559.272,146.585c-.361-.475-.891-.387-1.393-.458-.557-.078-1.574.4-1.474-.666.063-.666-.138-1.848.979-1.941,1.056-.087,1.7-1.978,3.037-.672a.431.431,0,0,0,.4-.014c1.37-2.776,3.785-1.5,5.908-1.695,1.4-.131,1.714.645,2.013,1.427a1.587,1.587,0,0,1-.944,2.293,15.145,15.145,0,0,0-3.07,2.142c-1.259.991-2.467,1.205-3.7,0C560.549,146.411,559.874,146.652,559.272,146.585Z" transform="translate(-516.038 -117.697)" fill="#1c884d"/><path d="M552.336,127.529c.62.065,1.268.087,1.347.933-1.849,2.038-2.234,4.813-3.566,7.117-.442.766-.817,1.506-1.791,1.65-.055-.672.272-1.437-.8-1.738-1.723-.485-1.706-.546-2.022-2.325-1.221-.108-1.514,1.892-2.922,1.322a6.291,6.291,0,0,0-.65-2.425c-.5-1.838-1.993-2.951-2.842-4.507a1.977,1.977,0,0,1,2.185-1.786c.613.639-1.188,2.669,1.388,2.291.545-.08.329,1.123.4,1.747.058.5,0,1.072.673,1.2a.812.812,0,0,0,1.073-.766c.057-.354.135-.79.62-.709s.674.515.708.972c.038.507-.022,1.025.051,1.526.1.722-.425,1.763.695,2.038a1.841,1.841,0,0,0,2.036-1.529c-.341-1.832,1.936-2.764,1.12-4.839C551.66,130.939,551.7,127.945,552.336,127.529Z" transform="translate(-510.436 -112.763)" fill="#07662f"/><path d="M557.88,149.251c.6.067,1.277-.174,1.756.413-.688.577-1.708,1.549,0,1.657,3.207.2,1.491,2.521,1.393,3.487-.137,1.347-1.5-.236-2.3.121-.075-.429-.138-.86-.227-1.285-.2-.932-.386-1.074-1.662-1.338-1.337-.277-1.558-.223-2.306.6-.691.764-.983,2.019-2.431,1.593a5.987,5.987,0,0,1,3.725-4.272C556.548,149.95,557.058,149.26,557.88,149.251Z" transform="translate(-514.646 -120.363)" fill="#1c884d"/><path d="M551.111,157.1c-.049.35-.071.831-.577.619-.344-.145-.167-.471.114-.653Z" transform="translate(-514.079 -122.892)" fill="#3c5b1e"/><path d="M527.994,136.465c1.746.189,2.021,1.069,2.66,2.559-.67.018-1.52-.361-1.726.716-.069.362.04.806.461.845a1.888,1.888,0,0,0,2.081-1.612c2.107-.02,3.651,1.785,4.135,3.831.294,1.243,1.177,2.292,1.093,3.629-3.163-.486-5.5,2.211-8.275,3.353-1.173.122-2.475-1.256-2.793-1.789a32.125,32.125,0,0,1-2.491-6.58c.009-.917-.236-1.56-.838-1.566.768-1.179,2.107-1.694,3.071-2.645C526.245,137.187,527.121,136.484,527.994,136.465Z" transform="translate(-505.002 -116.225)" fill="#07662f"/><path d="M527.216,160.366c.192,1.878-1.325,1.9-2.458,2.064-2.223.32-4.473.459-6.715.626a4.639,4.639,0,0,1-4.577-2.623c.07-.013.158,0,.21-.042.8-.591,2.5-.506,2.3-1.754-.227-1.435-1.794-.666-2.776-.87-.509-.106-1.292.356-1.472-.413a1.184,1.184,0,0,1,.918-1.315c1.2-.329,1.473-1.508,2.227-2.239,1.075.636,2.246,1.909,3.2,1.763,1.5-.23,1.758.455,2.071,1.408.16.489.987-1.606,1.479-1.574,1.722.768,2.666,4.406,4.745,4.159C526.881,159.5,527.11,159.911,527.216,160.366Z" transform="translate(-501.573 -121.836)" fill="#07662f"/><path d="M522.549,153.749a.923.923,0,0,1-.888-.769c-.312-.953-.569-1.638-2.071-1.408-.955.146-2.126-1.126-3.2-1.763-.02-.814-.053-1.606.91-2,1.356-.56.245-1.041-.082-1.541a1.831,1.831,0,0,1,1.658-1.878c1.03-.181,1.333-.766.571-1.645.329-.413,1-.57.942-1.272.6.006,1.263-.078,1.253.839-1.88,1.48-.6,2.925.049,4.378a1.218,1.218,0,0,0-1.007,1.347c1.092.5.77,2.761,2.668,2.158A5.752,5.752,0,0,0,522.549,153.749Z" transform="translate(-503.087 -117.845)" fill="#1c884d"/><path d="M530.246,153.546c2.778-1.142,5.86-2.868,9.024-2.382a6.571,6.571,0,0,0,.155.858c1.179,3.73.889,4.143-3.014,3.976A8.767,8.767,0,0,1,530.246,153.546Z" transform="translate(-507.574 -120.955)" fill="#1c884d"/><path d="M537.2,128.411c.849,1.556,2.346,2.669,2.842,4.507a6.287,6.287,0,0,1,.65,2.425c-1.775.81-3.1,1.074-4.324-1.213-.565-1.053-2.457-1.573-3.129-3.025C535.037,130.917,535.441,128.67,537.2,128.411Z" transform="translate(-508.541 -113.618)" fill="#07662f"/><path d="M525.39,152.688c-1.9.6-1.576-1.658-2.668-2.158a1.218,1.218,0,0,1,1.007-1.347C525.108,149.961,524.554,151.655,525.39,152.688Z" transform="translate(-505.128 -120.342)" fill="#07662f"/><path d="M529.458,136.668l-2.62.057q0-.872,0-1.744l3.056,0Z" transform="translate(-506.469 -115.745)" fill="#07662f"/><path d="M530.953,134.325c-1.018,0-3.117-.588-4.136-.589-.009-.155-.017-.308-.025-.463l-.01.011c.919-1.054,3.044.055,3.514-2.023.086-.379.818.144.864.737C530.006,132.043,531.655,133.948,530.953,134.325Z" transform="translate(-506.452 -114.499)" fill="#07662f"/><path d="M534.632,141.035c-.3,1.324-1.3.825-2.081.751-.421-.04-.53-.484-.461-.845.206-1.077,1.056-.7,1.726-.716C533.8,140.781,534.146,140.981,534.632,141.035Z" transform="translate(-508.164 -117.425)" fill="#07662f"/><path d="M522.527,134.149c.008.154.016.308.025.463q0,.871,0,1.744c-.962.952-2.3,1.466-3.07,2.645.061.7-.612.859-.941,1.272-1.192-.093-.874-1.581-1.821-1.946a4.382,4.382,0,0,0-3.119-.368c.273-2.592.273-2.592,2.849-2.68.143,0,.385.063.415.007C518.305,132.636,520.642,134.512,522.527,134.149Z" transform="translate(-502.188 -115.375)" fill="#1c884d"/><path d="M513.507,143.763c-2.436,2.37-2.581,2.374-5.318.592a3.7,3.7,0,0,0-2.444-.722c-.588.07-1.442.716-1.513-.358-.049-.739.066-1.817,1.275-1.947,2.477-.266,5.079-1.048,6.694,1.88C512.375,143.526,513.036,143.575,513.507,143.763Z" transform="translate(-499.151 -117.703)" fill="#1c884d"/><path d="M520.965,139.483s2.314,3,2.726,5.047c0,0-.611,1.4-1.952-.831s-2.494-2.872-3.036-2.714-.5.666-.168,1.69.92.028,1.8,1.834-1.626.245-1.47.851.192,1.667,1.086,1.376,2.236-.163,4.472,1.946,5.942,3.9,8.753,4.983c0,0,2.087-.383,2.193,3.386s-3.047,6.776-3.047,6.776,9.862.73,11.682-.532c0,0-3.418-5.062-2.4-7.666s2.555-8.153,4.983-8.541a9.022,9.022,0,0,1,3.7,0s.938-2.675.186-2.745a13.948,13.948,0,0,0-3.372-.389c-.894.191.384-1.917,1.278-2.108l-1.278-.862s-4.748,1.692-5.983,5.334c0,0-1.236,1.278-2-2.172s0-5.558,2.236-6.836,2.747-3.747,3.833-6.809,1.022-2.54.384-2.657-.306.238-.728.859-.566.557-1,.3.222-1.278-.432-.256.176,3.762-1.293,5.3-3.382.678-3.066-1.529.078-3.37-.392-3.179-.661,1.64-1.46,1.326-1.121-.283-1.072-1.467-1.928-3.61-1.928-3.61-2.028.8-1.718,2.043,3.248,2.523,3.121,6.739c0,0-1.341,1.789-3.833-1.022s-3.244-3.515-3.6-3.259-1.086.324-.595,1.025.875,1.148.235,1.211-3.457-.831-3.773-.255-.507,1.852.131,1.66,3.706-1.336,4.408.514.7,1.611.064,1.635-.56-.224-.471.315a1.355,1.355,0,0,0,.5.83,2.428,2.428,0,0,1,2.748-.61c1.669.68,3.207,2.683,3.953,6.964s.063,4.91-2.864,4.227-6.037-1.562-7.507-4.4-3-6.18-3-6.18S520.064,137.183,520.965,139.483Z" transform="translate(-503.704 -112.705)" fill="#644014"/></g><g transform="translate(1111.505 282.812)"><path d="M645.907,94.382a2.517,2.517,0,0,0-2.5-2.2,2.281,2.281,0,0,0,.643-2.456,3.046,3.046,0,0,0-2.956-1.957,3.639,3.639,0,0,0-1.363-2.783c-1.181-.932-2.362-.821-3.731-.588-1.066.178-1.481-.45-2.375-.814a4.466,4.466,0,0,0-1.646-.327,4.566,4.566,0,0,0-2.986,1.072,3.282,3.282,0,0,0-3.785-.737,3.4,3.4,0,0,0-1.633,1.692,20.083,20.083,0,0,0-.548,2.841,2.615,2.615,0,0,0-3.179,1.874,7.726,7.726,0,0,0-.075,4.9c-1.56-.082-2.961.444-3.135,2.354a7.5,7.5,0,0,0,.9,4.952,2.308,2.308,0,0,0-2.435,1.985c-.256,1.943,1.959,3.443,1.884,5.214-.9-.237-1.855.808-2.012,1.752a43.841,43.841,0,0,0-.176,7.153.476.476,0,0,0,.214.413,2.4,2.4,0,0,0-.385,2.039.525.525,0,0,0,1.011-.279c-.444-1.748,2.724-2.954,3.976-3.495,1.6-.689,3.34-.908,4.94-1.562a3.241,3.241,0,0,0,2.157-2.385,2.126,2.126,0,0,0-.342-1.478c2.018-.168,4.192.3,5.93-.963a2.954,2.954,0,0,0,1-3.593q2.171-.518,4.341-1.039a15.4,15.4,0,0,0,4.245-1.187c2.167-1.292.967-3.721-.254-5.241C643.2,97.988,646.161,97.008,645.907,94.382Z" transform="translate(-614.543 -83.251)" fill="#1c884d"/><g transform="translate(1.693 7.67)"><path d="M617.63,120.985c2.594-4.757,6.291-8.878,9.4-13.3,3.085-4.391,6.139-8.834,10.035-12.559.293-.28-.152-.724-.444-.444-3.844,3.677-6.88,8.052-9.923,12.388-3.172,4.521-6.958,8.74-9.608,13.6-.193.355.348.672.542.317Z" transform="translate(-617.046 -94.592)" fill="#21b35b"/></g><g transform="translate(13.568 9.813)"><path d="M635.4,104.57a17.165,17.165,0,0,0-.181-6.585c-.089-.394-.694-.227-.606.167a16.257,16.257,0,0,1,.181,6.251c-.065.4.54.565.606.167Z" transform="translate(-634.604 -97.76)" fill="#21b35b"/></g><g transform="translate(11.07 15.194)"><path d="M632.085,109.949a11.76,11.76,0,0,0-.552-4.015c-.122-.383-.729-.22-.606.167a11.258,11.258,0,0,1,.53,3.848c-.014.4.614.4.628,0Z" transform="translate(-630.911 -105.716)" fill="#21b35b"/></g><g transform="translate(7.967 18.038)"><path d="M628.184,114.983a19.642,19.642,0,0,0-1.232-4.851c-.147-.371-.755-.21-.606.167a19.018,19.018,0,0,1,1.209,4.684c.049.4.678.4.628,0Z" transform="translate(-626.323 -109.921)" fill="#21b35b"/></g><g transform="translate(5.539 22.758)"><path d="M623.6,120.913a12.212,12.212,0,0,0-.257-3.789c-.089-.394-.695-.227-.606.167a11.645,11.645,0,0,1,.235,3.622c-.036.4.592.4.628,0Z" transform="translate(-622.733 -116.899)" fill="#21b35b"/></g><g transform="translate(7.725 24.173)"><path d="M626.357,120.335a27.519,27.519,0,0,1,4.88-.715c.4-.022.405-.651,0-.628a28.4,28.4,0,0,0-5.047.737c-.393.094-.227.7.167.606Z" transform="translate(-625.965 -118.992)" fill="#21b35b"/></g><g transform="translate(12.034 18.808)"><path d="M632.729,112.387a32.615,32.615,0,0,1,7.013-.7.314.314,0,0,0,0-.628,33.43,33.43,0,0,0-7.18.721c-.4.083-.229.689.167.605Z" transform="translate(-632.336 -111.059)" fill="#21b35b"/></g><g transform="translate(15.612 13.488)"><path d="M638.02,104.406a34.052,34.052,0,0,1,5.979-.586.314.314,0,0,0,0-.628,34.907,34.907,0,0,0-6.146.608c-.4.074-.229.68.167.605Z" transform="translate(-637.626 -103.193)" fill="#21b35b"/></g></g><g transform="translate(1152.126 284.068)"><path d="M705.968,96.239a2.518,2.518,0,0,0-2.5-2.2,2.278,2.278,0,0,0,.643-2.456,3.046,3.046,0,0,0-2.956-1.958,3.638,3.638,0,0,0-1.364-2.782c-1.181-.932-2.362-.821-3.731-.588-1.066.178-1.48-.45-2.375-.815a4.5,4.5,0,0,0-1.646-.327,4.569,4.569,0,0,0-2.985,1.073,3.282,3.282,0,0,0-3.786-.737,3.4,3.4,0,0,0-1.633,1.692,20.12,20.12,0,0,0-.549,2.841,2.615,2.615,0,0,0-3.179,1.874,7.729,7.729,0,0,0-.075,4.9c-1.559-.082-2.961.444-3.135,2.354a7.5,7.5,0,0,0,.9,4.952,2.308,2.308,0,0,0-2.435,1.984c-.256,1.943,1.96,3.443,1.884,5.214-.9-.236-1.855.808-2.012,1.753a43.791,43.791,0,0,0-.176,7.152.475.475,0,0,0,.214.413,2.4,2.4,0,0,0-.385,2.04.525.525,0,0,0,1.011-.279c-.444-1.748,2.724-2.954,3.977-3.495,1.6-.689,3.34-.909,4.939-1.562a3.239,3.239,0,0,0,2.157-2.385,2.126,2.126,0,0,0-.342-1.478c2.019-.167,4.192.3,5.93-.963a2.952,2.952,0,0,0,1-3.593q2.171-.518,4.341-1.039a15.415,15.415,0,0,0,4.245-1.187c2.167-1.292.967-3.721-.254-5.242C703.262,99.845,706.221,98.865,705.968,96.239Z" transform="translate(-674.604 -85.108)" fill="#fed487"/><g transform="translate(1.693 7.671)"><path d="M677.691,122.842c2.594-4.757,6.292-8.878,9.4-13.3,3.084-4.391,6.139-8.834,10.034-12.56.293-.28-.152-.724-.444-.444-3.844,3.677-6.88,8.051-9.923,12.387-3.173,4.522-6.958,8.74-9.609,13.6-.193.355.348.673.542.317Z" transform="translate(-677.107 -96.449)" fill="#fdb737"/></g><g transform="translate(13.568 9.814)"><path d="M695.461,106.427a17.15,17.15,0,0,0-.181-6.584c-.089-.394-.694-.227-.606.167a16.258,16.258,0,0,1,.181,6.25c-.065.4.54.566.606.167Z" transform="translate(-694.665 -99.618)" fill="#fdb737"/></g><g transform="translate(11.07 15.195)"><path d="M692.146,111.807a11.757,11.757,0,0,0-.552-4.014c-.122-.383-.729-.22-.606.167a11.261,11.261,0,0,1,.53,3.847c-.014.4.613.4.628,0Z" transform="translate(-690.972 -107.574)" fill="#fdb737"/></g><g transform="translate(7.967 18.039)"><path d="M688.246,116.841a19.635,19.635,0,0,0-1.232-4.851c-.147-.371-.755-.21-.606.167a18.972,18.972,0,0,1,1.209,4.684c.049.4.678.4.628,0Z" transform="translate(-686.385 -111.779)" fill="#fdb737"/></g><g transform="translate(5.539 22.758)"><path d="M683.666,122.77a12.216,12.216,0,0,0-.257-3.789c-.089-.394-.695-.227-.606.167a11.644,11.644,0,0,1,.235,3.622c-.035.4.593.4.628,0Z" transform="translate(-682.794 -118.757)" fill="#fdb737"/></g><g transform="translate(7.725 24.173)"><path d="M686.418,122.193a27.458,27.458,0,0,1,4.881-.715c.4-.022.4-.651,0-.628a28.439,28.439,0,0,0-5.048.737c-.394.094-.227.7.166.606Z" transform="translate(-686.027 -120.849)" fill="#fdb737"/></g><g transform="translate(12.034 18.809)"><path d="M692.79,114.245a32.662,32.662,0,0,1,7.013-.7.314.314,0,0,0,0-.628,33.432,33.432,0,0,0-7.18.72c-.4.083-.228.689.167.606Z" transform="translate(-692.397 -112.917)" fill="#fdb737"/></g><g transform="translate(15.612 13.488)"><path d="M698.081,106.264a33.927,33.927,0,0,1,5.979-.586.314.314,0,0,0,0-.628,34.977,34.977,0,0,0-6.147.608c-.4.075-.229.68.167.606Z" transform="translate(-697.687 -105.05)" fill="#fdb737"/></g></g></g></svg>