<svg xmlns="http://www.w3.org/2000/svg" width="47.961" height="40.909" viewBox="0 0 47.961 40.909"><path d="M552.113,232.589s-1.011,4.065-.327,5.2,2.774,3.984,2.774,3.984,2.352-.706,1.893-1.47a4.637,4.637,0,0,0-2.256-1.345Z" transform="translate(-540.719 -215.641)" fill="#9b9b68"/><path d="M586.164,236.527a2.878,2.878,0,0,1,.8,1.643c-.107.593-1.2,1.18-.625,1.58,1.905,1.321.511,3.016.413,4.335-.083,1.123-.617,2.976-2.218,3.352-1.18.276-1.769.425-.89,1.638.539.743-.016,1.2-.541,1.515-.681.4-1.028-.1-1.185-.692a1.963,1.963,0,0,0-1.31-1.495,2.959,2.959,0,0,1-2.117-2.086,1.206,1.206,0,0,0-1.232-.921c-.2-.535.984-1.415-.356-1.636a1.405,1.405,0,0,0-1.6,1.094c-.3,1.21.573,1.379,1.511,1.357-.079.91.448,2.142-.916,2.454-1.432.327-1.781-.854-1.966-1.89s-.7-.8-1.339-.573c-1.191.418-.793,1.287-.6,2.078.116.481.369.987-.3,1.218a1.092,1.092,0,0,1-1.422-.552c-.162-.3-.206-.668-.36-.978-.481-.973-.978-1.955-1.955-.366-.44.717-1,.932-1.737.377-.854-.647-.653-1.239.019-1.888.414-.4.8-.983.113-1.387a1,1,0,0,0-1.547.562c-.224,1.063-1.1,1.377-1.762,1.951-.374.326-.59,1.408-1.34.435-.442-.572-1.076-1.163-.429-2.029.385-.513,1.2-.769,1.059-1.664-.815-.351-1.546,1.358-2.354.089-1.231.655-2.339-2.864-2.471-2.858l-1.526-.108.332-1.544,1.088-.5c.1-.043-.451-.98-.758-1.239-.545-.46-1.13-1.3-1.809-.972-.585.281-.241,1.233-.232,1.9-1.859-.971-1.33-2.748-1.453-4.3,2.991-1.185,5.885.887,8.879.286a1.443,1.443,0,0,1,1.425.689c-.005.742-.241,1.7.783,1.869,1.046.17,1.034-.847,1.259-1.527,1.472-.316,3.092.041,4.411-.976a2.358,2.358,0,0,1,.611,2.089c-2.317,1.267,2.015-.318.883.053a2.08,2.08,0,0,1,2.792-1.915c1.446.325,1.7-.28,1.736-1.422l.008-.016c.852.055,1.691,1.6,2.557.023.346-1.655,1.648-1.837,3-1.944.426.913-1,1.492-.437,2.429-.148,2.3.659,2.878,2.925,2.079C584.719,236.193,585.377,236.717,586.164,236.527ZM584,237.9c-2.164-.758-1.5,1.035-1.781,1.975-.238.492-1.337,1.321.331,1.133a3.4,3.4,0,0,1,2,.031c.779.357,1.011-.067.83-.811a21.2,21.2,0,0,0-.6-2.407C584.575,237.287,584.244,237.67,584,237.9Zm-.449,5.008c-.022-.6-.216-1.236-.88-1.11a1.767,1.767,0,0,0-1.459,1.513c-.063.57.49.776.995.8A1.162,1.162,0,0,0,583.552,242.906Zm-25.192-5.192a1.284,1.284,0,0,0,1.092-1.073c.074-.582-.4-.861-.925-.85a.925.925,0,0,0-.95.9A.873.873,0,0,0,558.36,237.714Zm7.844,5.329c.114-.674-.131-.947-.511-.929a1.321,1.321,0,0,0-1.328.8c-.17.516.194.756.677.771C565.663,243.705,566.1,243.444,566.2,243.043Z" transform="translate(-541.123 -215.397)" fill="#9b9b68"/><path d="M561.733,246.259c.81,1.27,1.541-.44,2.355-.088.146.895-.674,1.15-1.059,1.664-.647.866-.013,1.457.429,2.029.75.973.966-.109,1.34-.435.658-.574,1.538-.888,1.762-1.951a1,1,0,0,1,1.547-.562c.69.4.3.987-.113,1.387-.673.649-.873,1.242-.019,1.888.734.555,1.3.34,1.737-.377.976-1.589,1.473-.607,1.955.366.153.309.2.674.36.978a1.092,1.092,0,0,0,1.422.552c.668-.232.416-.738.3-1.218-.19-.791-.588-1.66.6-2.078.643-.227,1.156-.456,1.339.573s.534,2.217,1.966,1.89c1.364-.312.836-1.544.916-2.454l.441-.815a1.206,1.206,0,0,1,1.232.921,2.959,2.959,0,0,0,2.117,2.086,1.963,1.963,0,0,1,1.31,1.495c.157.59.5,1.1,1.185.692.525-.312,1.08-.772.541-1.515-.88-1.213-.29-1.363.89-1.639,1.6-.375,2.135-2.229,2.218-3.352.1-1.319,1.492-3.014-.413-4.335-.578-.4.518-.987.625-1.58a12.159,12.159,0,0,1,1.975,8.493c-.77.165-1.441.372-1.626,1.339-.123.645-3.542,3.524-4.2,3.7-.99.265-2.009.776-2.648-.633-.207-.457-.745-.8-1.042-.01a1.959,1.959,0,0,1-3.228.762c-2.022-1.7-2.209-.138-2.712,1.15-1.533.287-2.725-1.416-4.325-.741a4.586,4.586,0,0,1-4.086-.522,6.338,6.338,0,0,1,.859-.842c.416-.282.825-.552.759-1.108-.069-.573-.6-.715-1.035-.872-.582-.208-.872.109-1.042.65-.334,1.063-1.245.874-2.05.9-2.437-1.589-2.374-4.749-4.216-6.712l.407-.413C560.8,245.956,561.1,246.392,561.733,246.259Z" transform="translate(-542.878 -217.608)" fill="#8d8b5b"/><path d="M581.275,229.153c-1.349.108-2.651.289-3,1.944a2.577,2.577,0,0,1-1.554-.506c-.588-.316-.915-.189-1,.483l-.007.017c-1.233.262-2.583-.892-3.779.408-.3.33-.657-.261-.766-.7-.075-.3-.117-.893-.552-.614a3.549,3.549,0,0,1-3.871.425c-1.251,1.858-2.162.01-3.192-.321-.582-.187-1.113-1.086-1.646.037-1.008-.559-2.033.672-3.079-.075-.869-.62-1.6-2.239-2.98-.585-.19.228-.551,0-.583-.339-.131-1.362-.783-.728-1.365-.369-.522.321-.868.949-1.595.91.043-1.98.272-3.9,1.714-5.44,2.259-.061,8.537.94,9.754,1.94.1.084,1.925.441,1.757-.768-.15-1.074.315-1.184.989-1.359.874-.226,1.495.039,1.68,1-.688.075-1.7.075-1.443,1.014.222.82,11.206-1.866,10.324-2.293-.54-.857.357-1.409.453-2.131,1.869.007,1.89,1.988,2.479,2.926a13.406,13.406,0,0,0,2.309,2.876c.4.366.9.517.171,1Z" transform="translate(-540.91 -212.926)" fill="#3b4a0f"/><path d="M565.809,255.218a4.586,4.586,0,0,0,4.086.522c1.6-.674,2.792,1.029,4.325.741a13.13,13.13,0,0,0,8.614.123,3.926,3.926,0,0,1,2.408-.459c-2.672,1.916-5.853,2-8.923,2.48a65.838,65.838,0,0,1-13.153.232,5.94,5.94,0,0,1-2.808-.729c.286-1.393.893-2.786,0-4.178-.418,0-.539-.988-.865-1.5-.516-2.674-2.2-4.631-3.406-6.916l2.169.856a.785.785,0,0,0,.83.849c1.843,1.963,1.779,5.123,4.216,6.712C563.667,255.3,564.726,255.28,565.809,255.218Z" transform="translate(-541.864 -218.909)" fill="#6f6d47"/><path d="M551.3,242.455c-.422-.085-1.206-.807-.863.472.337,1.253.78,1.92-.96,3.136-1.545,1.08-2.1.539-3.169.151-1.666-.635-3.456-.245-5.177-.471-1.084-.142-1.291-1.813-2.5-1.038.32-.707-.251-1.574.4-2.221.674-.109.387-.965.919-1.185a1.964,1.964,0,0,0,.866,1.292c2.24,1.539,4.713.269,6.931,1.875.078.056.277.007.386-.053,1-.561,1.166-4.235.247-5.24a2.013,2.013,0,0,0-2.325-.537c-1.267.446-1.383-1.062-1.791-1.649a.143.143,0,0,0-.04-.192l.774-1.523c.777.132.286,1.948,1.8,1.162.931-.485,2.284,2.236,4.142,3.206C551.5,239.913,551.558,242.121,551.3,242.455Z" transform="translate(-537.456 -216.318)" fill="#3b4a0f"/><path d="M555.55,255.1c.9,1.392.29,2.785,0,4.178a21.412,21.412,0,0,1-14.5.8c-3-.833-4.388-3.494-3.893-6.757.166-1.094.525-2.16.8-3.239.709.945.321,2.031.344,3.045.061,2.72.691,3.61,3.392,4.49.622.556,1.256.711,1.624-.206.637-1.586.926-.8,1.354.114.369.786.907,1.952,1.891.93.682-.708.724-.75,1.157.062.309.579.993.3,1.52.359a7.06,7.06,0,0,0,1.838-.043c1.8-.521,3.861-.8,4.05-3.314,0-.138.005-.276.008-.413Z" transform="translate(-537.06 -220.057)" fill="#817f57"/><path d="M552.889,234.194c-1.2.357-.644-1.639-.632-2.07.727.038,1.073-.589,1.6-.91.582-.359,1.233-.993,1.365.369.032.335.393.567.583.339,1.375-1.653,2.111-.035,2.98.585,1.047.747,2.072-.484,3.08.075.533-1.123,1.064-.224,1.646-.037,1.029.33,1.94,2.179,3.192.321a3.549,3.549,0,0,0,3.871-.425c.435-.28.478.314.552.614.109.434.463,1.025.766.7,1.2-1.3,2.547-.146,3.779-.408-.031,1.141-.291,1.746-1.736,1.421a2.081,2.081,0,0,0-2.792,1.916l-.883-.054a2.358,2.358,0,0,0-.611-2.089c-1.319,1.017-2.939.66-4.411.976l-.4-.389c-.108-.212-.235-.32-.422-.073a1.043,1.043,0,0,0-1.222.121,1.442,1.442,0,0,0-1.425-.69C558.774,235.082,555.88,233.01,552.889,234.194Z" transform="translate(-540.863 -215.176)" fill="#8d8b5b"/><path d="M541.992,256.992c-2.7-.88-3.331-1.77-3.392-4.49-.022-1.014.366-2.1-.344-3.045q.139-.816.279-1.633c1.209-.774,1.416.9,2.5,1.038,1.721.226,3.511-.164,5.177.472-.113.418.029,1.366-.52,1.088-1.736-.88-.993.546-1.182,1.108-2.555-.159-1.553,1.731-1.706,2.957C540.917,254.8,541.289,255.841,541.992,256.992Zm-.918-5.254c.083-.738-.257-.974-.829-1.008-.741-.044-1.224.214-1.173,1.036.028.448-.185,1.206.414,1.207A1.765,1.765,0,0,0,541.074,251.738Z" transform="translate(-537.362 -219.436)" fill="#8d8b5b"/><path d="M591.37,257.714a3.927,3.927,0,0,0-2.408.459,13.129,13.129,0,0,1-8.614-.123c.5-1.287.69-2.851,2.712-1.15a1.959,1.959,0,0,0,3.228-.762c.3-.792.835-.447,1.042.01.639,1.409,1.659.9,2.648.633.658-.176,4.078-3.055,4.2-3.7.185-.967.856-1.174,1.626-1.339-.233,2.566-1.934,4.1-3.856,5.476l-.654.486Z" transform="translate(-547.992 -220.478)" fill="#6f6d47"/><path d="M590.87,231.45l1.215-.516c.928,1.95,2.775,3.313,3.46,5.418-.787.19-1.446-.334-2.187-.395a2.5,2.5,0,0,0-2.925-2.079C589.87,232.942,591.3,232.362,590.87,231.45Z" transform="translate(-550.505 -215.223)" fill="#9b9b68"/><path d="M544.225,237.271a.143.143,0,0,1,.04.193q-.27.633-.541,1.265c-1.248-.127-1.525,1.014-2.129,1.686-.489.545-.686,1.392-1.643,1.36-.532.22-.245,1.076-.919,1.185-1.142-1.477.5-2.372,1.073-2.851C541.354,239.058,541.8,236.61,544.225,237.271Z" transform="translate(-537.459 -216.795)" fill="#3b4a0f"/><path d="M594.993,259.555l.654-.486Z" transform="translate(-551.69 -222.328)" fill="#6f6d47"/><path d="M593.628,239.9c.243-.229.574-.611.772-.079a21.2,21.2,0,0,1,.6,2.407c.18.744-.052,1.168-.83.811a3.4,3.4,0,0,0-2-.031c-1.668.188-.57-.641-.33-1.133C593.305,242,594.222,241.629,593.628,239.9Z" transform="translate(-550.75 -217.399)" fill="#495c13"/><path d="M590.473,234.87a2.5,2.5,0,0,1,2.925,2.079C591.133,237.748,590.325,237.174,590.473,234.87Z" transform="translate(-550.544 -216.214)" fill="#c7ae83"/><path d="M556.768,241.271l-1.712-.821c-.008-.662-.352-1.614.233-1.895.679-.326,1.264.512,1.809.972a10.532,10.532,0,0,1,.834.878,1.156,1.156,0,0,1-.076.361Z" transform="translate(-541.577 -217.129)" fill="#60760a"/><path d="M559.508,243.462c.129-.533.258-1.067.389-1.6.117-.471.2-1.046.783-1.088s.492.551.6.917c.123.407.543.369.777.563,1.076.894-.1.661-.453.838l-1.69.393A2.259,2.259,0,0,1,559.508,243.462Z" transform="translate(-542.729 -217.708)" fill="#9b9b68"/><path d="M593.031,246.338a1.162,1.162,0,0,1-1.344,1.2c-.5-.022-1.058-.228-.995-.8a1.767,1.767,0,0,1,1.459-1.513C592.815,245.1,593.009,245.74,593.031,246.338Z" transform="translate(-550.603 -218.828)" fill="#b6a07c"/><path d="M584.724,249.489l-.441.815c-.937.022-1.809-.146-1.511-1.357a1.4,1.4,0,0,1,1.6-1.094C585.707,248.074,584.525,248.953,584.724,249.489Z" transform="translate(-548.589 -219.49)" fill="#b6a07c"/><path d="M568.569,236.528l.4.389c-.224.68-.213,1.7-1.259,1.527-1.023-.167-.788-1.126-.783-1.869a1.044,1.044,0,0,1,1.222-.12Z" transform="translate(-544.595 -216.582)" fill="#60760a"/><path d="M593.822,239.956c.594,1.729-.323,2.1-1.78,1.975C592.324,240.992,591.659,239.2,593.822,239.956Z" transform="translate(-550.945 -217.455)" fill="#60760a"/><path d="M583.607,240.364l-.472-.366a2.841,2.841,0,0,1,.478-.672c.493-.384.794-1.31,1.685-.721.216.143.534.483.487.617a1.38,1.38,0,0,1-1.609.9C584,240.107,583.8,240.28,583.607,240.364Z" transform="translate(-548.695 -217.112)" fill="#b6a07c"/><path d="M559.854,239.122a.873.873,0,0,1-.782-1.023.925.925,0,0,1,.95-.9c.528-.011,1,.268.925.85A1.284,1.284,0,0,1,559.854,239.122Z" transform="translate(-542.617 -216.805)" fill="#b6a07c"/><path d="M555.577,244.73a1.21,1.21,0,0,1,1.021-.451l1.523.107q0,.842,0,1.684l-2.168-.855Z" transform="translate(-541.736 -218.593)" fill="#8d8b5b"/><path d="M569.979,246.587c-.1.4-.541.662-1.162.642-.483-.015-.847-.254-.677-.771a1.32,1.32,0,0,1,1.328-.8C569.848,245.64,570.092,245.913,569.979,246.587Z" transform="translate(-544.898 -218.941)" fill="#b6a07c"/><path d="M558.984,246.093q0-.842,0-1.684a3.643,3.643,0,0,0,.394-.037,2.328,2.328,0,0,0,.408.023,3.744,3.744,0,0,0,.438,2.134l-.407.413A.785.785,0,0,1,558.984,246.093Z" transform="translate(-542.596 -218.616)" fill="#8d8b5b"/><path d="M583.632,233.975c.089-.672.416-.8,1-.483a2.578,2.578,0,0,0,1.554.506C585.323,235.576,584.484,234.03,583.632,233.975Z" transform="translate(-548.821 -215.827)" fill="#8d8b5b"/><path d="M562.205,246.643c-.214-.2-.255-.374.081-.483Z" transform="translate(-543.368 -219.068)" fill="#8d8b5b"/><path d="M568.247,257.516c-1.083.062-2.142.079-2.51-1.271.805-.027,1.716.162,2.05-.9.171-.541.46-.858,1.042-.65.439.157.966.3,1.035.872.067.556-.342.826-.759,1.108A6.34,6.34,0,0,0,568.247,257.516Z" transform="translate(-544.302 -221.207)" fill="#6f6d47"/><path d="M556.434,252.015c-.075-.3-.135-.527-.152-.58-.771-2.372-2.5-4.006-3.632-6.162l-.379-.485c-.422-.085-1.207-.807-.863.472.337,1.253.78,1.919-.96,3.136-1.545,1.08-2.1.539-3.169.152-.113.418.029,1.366-.52,1.088-1.736-.88-.993.546-1.182,1.108a7.3,7.3,0,0,1,.912.774,1.948,1.948,0,0,1,.528,1.846c-.253.581-1.1.461-1.629.18a1.506,1.506,0,0,0-1.517.157c-1.887.312-1.515,1.355-.812,2.506.622.556,1.256.711,1.624-.206.637-1.586.926-.8,1.354.114.369.786.907,1.952,1.891.93.682-.708.723-.75,1.157.062.31.579.993.3,1.52.359a7.061,7.061,0,0,0,1.838-.043c1.8-.521,3.861-.8,4.05-3.314,0-.138.005-.276.008-.413l.419,0A12.248,12.248,0,0,1,556.434,252.015Z" transform="translate(-538.431 -218.651)" fill="#9a9968"/><path d="M568.991,236.527l-.422-.073C568.757,236.207,568.883,236.316,568.991,236.527Z" transform="translate(-545.017 -216.581)" fill="#9a9968"/><path d="M546.022,252.847a7.356,7.356,0,0,1,.912.774,1.947,1.947,0,0,1,.529,1.846c-.253.581-1.1.461-1.629.18a1.506,1.506,0,0,0-1.517.157C544.469,254.578,543.467,252.688,546.022,252.847Z" transform="translate(-538.875 -220.754)" fill="#60760a"/><path d="M541.345,252.787a1.765,1.765,0,0,1-1.588,1.236c-.6,0-.386-.759-.414-1.207-.051-.822.431-1.08,1.173-1.036C541.088,251.813,541.428,252.049,541.345,252.787Z" transform="translate(-537.633 -220.486)" fill="#60760a"/><path d="M569.566,225.726a4,4,0,0,0,1.592-2.334c.106-1.274,1.061,1.591,2.228,2.334a18.552,18.552,0,0,0,.849-3.5c0-.955,1.061,2.547,3.82,3.5,0,0,.848-1.061,0-3.183a6.7,6.7,0,0,0,4.775.531s-1.485-1.168-3.608-3.184,1.592,0,1.592,0a2.039,2.039,0,0,0-2.334-1.38c-1.911.212-.425-.955,1.061-.849s-2.44-1.485-4.669-1.379.848-3.184.848-3.184-2.122,2.334-3.077,2.228-.424-2.228-.424-2.228l-1.167.637s-3.82-.637-2.547-1.168-.764-1.911-3.141-.955-3.014.637-2.059-1.7c0,0-2.759,1.485-2.547,3.5s-1.38-2.229-1.38-2.229v1.592a13.529,13.529,0,0,0-3.29.318c-.531.318,1.38-.212,2.016,1.061s-2.547.106-3.5,2.441c0,0,1.592-.531,1.168.425a4.142,4.142,0,0,1-1.8,1.591,3.456,3.456,0,0,1-.849,2.441c-.955.955,1.061.531,1.061.531a5.754,5.754,0,0,0-1.8,4.139,13.638,13.638,0,0,0,2.865-2.441c.743-1.061.637,1.485.637,1.485a7.275,7.275,0,0,0,1.7-2.228,6.763,6.763,0,0,0,2.76,3.183l-.106-1.7,1.591,1.7.531-2.228a7.711,7.711,0,0,0,4.351,2.865s-.217-2.759.9-1.168l.48,1.168S567.868,223.6,569.566,225.726Z" transform="translate(-540.926 -209.915)" fill="#425811"/><path d="M546.759,244.706l.851,2.041.726-1.431.091,1.043a5.914,5.914,0,0,0,1.165-2.514c.171.452.984.927.984.927s-.232-1.428.191-.967a4.151,4.151,0,0,0,1.41.773,2.59,2.59,0,0,0-1.043-1.929s.908-.111.437-.48a1.968,1.968,0,0,1-.542-1.254,1.656,1.656,0,0,1-.969-.675c-.283-.521.531-.418.531-.418-.637-1.295-2.2-.144-1.968-1.05s1.266-.771.973-.913a6.348,6.348,0,0,0-1.808.164l-.151-1.072s-.522,3.059-.6,1.671c-.075-1.406-2.01-2.186-2.01-2.186.9,1.581.52,1.888-1.239,1.5a5.235,5.235,0,0,0-2.428.114c-.632.4,1.723,1.808,2.336,1.745,0,0-1.807.5-2.055.884,0,0,1.251,1.031,2.009.629,0,0-1.375,1.071-1.33,1.774a5.931,5.931,0,0,0,2.088-.82s-.836,1.73-.621,2.263a8.344,8.344,0,0,0,1.389-.922c.529-.471-.274,1.572.07,2.227Z" transform="translate(-538.12 -216.613)" fill="#425811"/><path d="M540.466,239.445l-2.21-.016,1.031,1.228-.995-.326a5.915,5.915,0,0,0,1.856,2.059,2.75,2.75,0,0,0-1.239.542s1.405.346.815.555a4.164,4.164,0,0,0-1.265.994,2.589,2.589,0,0,0,2.184-.2s-.254.878.27.59a1.972,1.972,0,0,1,1.366-.007,1.661,1.661,0,0,1,1-.627c.59-.056.176.653.176.653,1.44-.078,1-1.971,1.738-1.4s.213,1.467.458,1.253a6.331,6.331,0,0,0,.558-1.727l1.045.281s-2.609-1.68-1.3-1.2c1.323.483,2.8-.991,2.8-.991-1.807.206-1.941-.262-.895-1.729,0,0,.964-1.541.848-2.278s-2.34.876-2.522,1.465a6.4,6.4,0,0,0-.007-2.237s-1.44.747-1.368,1.6c0,0-.445-1.686-1.11-1.919a5.92,5.92,0,0,0-.064,2.242s-1.264-1.448-1.839-1.459a8.343,8.343,0,0,0,.3,1.64c.226.67-1.339-.869-2.076-.809Z" transform="translate(-537.362 -216.502)" fill="#425811"/><path d="M545.9,241.244l-.883-.007.412.49-.4-.13a2.355,2.355,0,0,0,.741.822,1.106,1.106,0,0,0-.495.217s.561.138.326.221a1.655,1.655,0,0,0-.505.4,1.034,1.034,0,0,0,.872-.081s-.1.351.108.235a.789.789,0,0,1,.546,0,.665.665,0,0,1,.4-.25c.236-.022.07.261.07.261.576-.031.4-.787.694-.559s.085.586.183.5a2.537,2.537,0,0,0,.223-.69l.418.112s-1.043-.671-.521-.481,1.118-.4,1.118-.4c-.722.083-.776-.1-.357-.69,0,0,.385-.616.339-.91s-.935.35-1.008.585a2.555,2.555,0,0,0,0-.894s-.576.3-.546.64c0,0-.178-.673-.443-.767a2.367,2.367,0,0,0-.026.9s-.5-.579-.734-.583a3.383,3.383,0,0,0,.121.655c.09.268-.534-.347-.829-.323Z" transform="translate(-539.069 -217.479)" fill="#6d8607"/><path d="M559.034,221.387a4.251,4.251,0,0,0,.952,2.3c.9,1.094,1.666-2.3,1.666-2.3a4,4,0,0,0,1.745,1.745,2.618,2.618,0,0,0,0-2.062c-.476-1.111,1.825,1.09,2.935,1.417a2.04,2.04,0,0,0-.952-2.211s3.173-.071,4.2-1.384c0,0-2.281-1.313-3.56-1.075,0,0,1.786-.793,2.237-1.9s-3.953,0-3.953,0,2.248-2.225,2.42-3.015c0,0-3.808,1.032-4.363,2.539a6.714,6.714,0,0,1-2.221-1.111c-.957-.779-.715,1.507.158,2.062s-1.624-.647-3.332.158c0,0,1.984.318.873,1.269s-2.707,1.505-2.856,3.015a5.437,5.437,0,0,0,2.856-1.031,9.126,9.126,0,0,0-1.19,2.618C556.654,223.133,559.034,221.387,559.034,221.387Z" transform="translate(-541.588 -210.669)" fill="#6d8607"/><path d="M575.737,242.925a1.266,1.266,0,0,0,.841-.051c.353-.194-.274.5-.307.887a6.869,6.869,0,0,0,1.047-.413c.253-.163-.526.668-.394,1.435a1.21,1.21,0,0,0,.844-.544,1.483,1.483,0,0,0,.528,1.135s.1-.525.339-1.333.223.348.223.348a.552.552,0,0,0,.039-.747c-.323-.382.194-.256.374.087s.052-.788-.288-1.258.963-.358.963-.358-.916-.066-1.021-.292.531-.474.531-.474l-.333-.147s-.365-.945-.046-.756.4-.494-.186-.851-.59-.551.161-.741a1.419,1.419,0,0,0-1.284.041c-.5.391.4-.683.4-.683l-.422.272s-.386-.6-.545-.665.25.265,0,.623-.384-.539-1.137-.349c0,0,.363.258.051.328a1.151,1.151,0,0,1-.674-.123,1.25,1.25,0,0,1-.765.231c-.386-.046.008.323.008.323a1.973,1.973,0,0,0-1.349.313,3.794,3.794,0,0,0,1.048.21c.385-.019-.305.393-.305.393a2.282,2.282,0,0,0,.828-.01,2.135,2.135,0,0,0-.457,1.148l.435-.313-.227.638.665-.265a2.09,2.09,0,0,0-.15,1.442s.7-.52.435,0l-.242.3S576.062,242.191,575.737,242.925Z" transform="translate(-546.22 -216.959)" fill="#425811"/><path d="M576.818,239.349a2.023,2.023,0,0,0-.923.1c-.492.175.615.64.615.64a1.8,1.8,0,0,0-.821.366,1.083,1.083,0,0,0,.727.152c.448-.053-.6.436-.845.725a.932.932,0,0,0,.891-.106s-.348.9-.007,1.29c0,0,.732-.549.8-.928a1.2,1.2,0,0,0,.408.772c.339.209.465-1.117.465-1.117s.52.8.778.905c0,0,.084-1.152-.381-1.419a2.452,2.452,0,0,1,.653-.546c.387-.213-.448-.312-.746-.107s.419-.412.336-.953c0,0-.345.537-.55.153s-.212-.876-.727-1.029a1.264,1.264,0,0,0,.027.883,2.956,2.956,0,0,0-.783-.528C576.483,238.548,576.818,239.349,576.818,239.349Z" transform="translate(-546.785 -217.069)" fill="#6d8607"/><path d="M578.449,239.606a1.31,1.31,0,0,0-.65-.336c-.407-.081.072.8.072.8a1.226,1.226,0,0,0-.718-.075.776.776,0,0,0,.393.452c.317.159-.611.082-.919.206a.625.625,0,0,0,.632.317s-.687.574-.664,1.043a2.136,2.136,0,0,0,.99-.392,1.319,1.319,0,0,0-.131.811c.113.323.873-.7.873-.7a3.694,3.694,0,0,0,.041,1.087s.644-.9.478-1.325a1.968,1.968,0,0,1,.7-.148c.359,0-.13-.456-.429-.424s.482-.144.706-.622c0,0-.5.28-.435-.124s.311-.807.055-1.163a1.447,1.447,0,0,0-.434.729,2.542,2.542,0,0,0-.237-.783C578.641,238.8,578.449,239.606,578.449,239.606Z" transform="translate(-547.044 -217.245)" fill="#829432"/><path d="M592.4,239.885a2.01,2.01,0,0,0-.923.1c-.492.175.615.64.615.64a1.787,1.787,0,0,0-.821.366,1.085,1.085,0,0,0,.727.151c.448-.052-.6.436-.845.726a.932.932,0,0,0,.892-.107s-.349.9-.008,1.29c0,0,.732-.548.8-.927a1.2,1.2,0,0,0,.408.772c.339.209.465-1.117.465-1.117s.52.8.778.905c0,0,.085-1.152-.381-1.419a2.452,2.452,0,0,1,.653-.546c.387-.214-.448-.312-.746-.107s.419-.412.336-.954c0,0-.345.537-.55.154s-.212-.876-.727-1.029a1.264,1.264,0,0,0,.027.883,2.956,2.956,0,0,0-.783-.528C592.061,239.084,592.4,239.885,592.4,239.885Z" transform="translate(-550.719 -217.205)" fill="#6d8607"/><path d="M594.027,240.142a1.31,1.31,0,0,0-.65-.336c-.407-.081.072.8.072.8a1.226,1.226,0,0,0-.718-.075.776.776,0,0,0,.393.452c.317.159-.611.082-.918.206a.622.622,0,0,0,.632.316s-.687.575-.664,1.044a2.136,2.136,0,0,0,.99-.392,1.316,1.316,0,0,0-.13.811c.112.323.872-.7.872-.7a3.7,3.7,0,0,0,.041,1.087s.644-.9.478-1.325a1.969,1.969,0,0,1,.7-.148c.359,0-.13-.456-.429-.424s.482-.144.706-.622c0,0-.5.28-.435-.124s.311-.806.055-1.164a1.452,1.452,0,0,0-.434.73,2.541,2.541,0,0,0-.237-.783C594.219,239.341,594.027,240.142,594.027,240.142Z" transform="translate(-550.978 -217.38)" fill="#829432"/><path d="M561.748,245.63a1.607,1.607,0,0,0,.673-.592c.273-.431-.943-.273-.943-.273a1.5,1.5,0,0,0,.405-.787.95.95,0,0,0-.691.249c-.323.291.177-.735.172-1.141a.762.762,0,0,0-.642.582s-.351-1.04-.9-1.222a2.619,2.619,0,0,0,.007,1.306,1.615,1.615,0,0,0-.869-.509c-.419-.015.407,1.306.407,1.306a4.541,4.541,0,0,0-1.26-.436s.739,1.134,1.3,1.135a2.408,2.408,0,0,1-.143.868c-.162.41.579.054.675-.3s-.049.614.4,1.082c0,0-.1-.694.335-.442s.783.713,1.3.58a1.774,1.774,0,0,0-.64-.819,3.126,3.126,0,0,0,1,.077C562.578,246.206,561.748,245.63,561.748,245.63Z" transform="translate(-542.376 -218.13)" fill="#60760a"/></svg>