<svg xmlns="http://www.w3.org/2000/svg" width="139.845" height="86.407" viewBox="0 0 139.845 86.407"><g transform="translate(-1026.873 -386.136)"><g transform="translate(1026.873 419.796)"><path d="M491.258,312.98l-.23-.3a5.5,5.5,0,0,1,2.188-5.208.27.27,0,0,0,.219-.1c1.23-.074,2.351-.254,1.88-1.96a.556.556,0,0,0,.122-.289c.617-.442,1.912-.313,1.792-1.3a4.623,4.623,0,0,1,.561-2.311l.95-.655c.656-.03,1.315-.03,1.968-.1.541-.058,1.129.515,1.566.084.834-.822,2.017-1.5,1.7-3l.007-.015c1.268-.782,2.59-1.309,3.927-.239,1.177.942,1.326.3,1.328-.739l.34-.34a10.568,10.568,0,0,0,2.685-.824c.333-.2.319-.528.35-.86.183-1.982.92-2.544,2.776-1.871,1.319.478,1.059-.367,1.109-1.047l.008-.02a1.551,1.551,0,0,0,.689-.954,2.656,2.656,0,0,0,2.843-1.963,3.2,3.2,0,0,1,2.763-1.842,20.521,20.521,0,0,0,6.057-1.26,1.05,1.05,0,0,1,.933.057c.989,1.159,2.4,1.031,3.674,1.324a5.2,5.2,0,0,1,1.042.482c1.273.617,1.28,2.582,2.394,2.882,1.3.348,2.362.666,2.985,1.865.209.4.375.239.62.136,1.853-.783,2.395-.6,2.6,1.412.135,1.3.57,1.877,1.8,1.957,1.146.074,1.425,1.493,2.2,1.671.82.187,1.663-.959,2.747-.766a2.392,2.392,0,0,1,2.07,1.425c.582,1.832,1.569,2.6,3.594,2.343a2.925,2.925,0,0,1,3.118,2.954c.077,1.314,1.505,1.042,2.034,1.809l-.021-.022c.076.756-.709,2.531,1.263,1.053a.882.882,0,0,1,.774.068c.363.219.162.442-.13.568-.336.145-.289.321.026.3,1.24-.072.95,1.105,1.409,1.663-.488,1.063-.684,2.313-1.951,2.866-.317.138-.38.534-.351.871.1,1.193-.606,1.524-1.612,1.56-.034-.914-.118-1.855-1.391-1.639-.98.166-1.078,1.027-.914,1.777.23,1.048.9,1.428,1.918.818.009,2.127-.773,3.714-2.2,3.533-2.311-.292-4.051,1.029-6.075,1.476-.524-.274-.747-1.191-1.629-.706-.82.451-.656,1.187-.6,1.882a2.786,2.786,0,0,0,.3.758c-.579.582-1.313.225-1.972.328a2.267,2.267,0,0,0-1.011-2.048l3.536-1.937c.405.37.86.563,1.276.081a.879.879,0,0,0,.029-1.078c-.388-.515-.845-.356-1.247.049-1.7,0-2.816,1.263-4.2,1.949-.506.252-1.011,1.129-1.447.774-.678-.553.064-1.275.341-1.884.154-.338.475-.6.632-.937.557-1.2,1.878-2.01,1.767-3.536l.369-.367a1.725,1.725,0,0,0,.492-.012c.607-.2,1.149-.479.91-1.269-.093-.309-.27-.672-.666-.62-.828.11-.8.768-.789,1.384,0,.164.019.329.029.494l-.365.368c-.538.011-.645.477-.9.813-.6.789-.92,1.836-2,2.189-.279-.414-.584-.814-1.163-.59a.883.883,0,0,0-.538.9c0,.674.419.927,1,1.027.08.8-.584,1.129-1.014,1.607a2.838,2.838,0,0,0-3.088.673,2.15,2.15,0,0,1-2.185.143c-.766-.269-1.526-.552-2.289-.829a3.272,3.272,0,0,1,.411-2.051c.676-1.223,1.478-2.378,2.228-3.561a.845.845,0,0,0,1.293-.138c.519-.667.043-1.1-.344-1.566.152-.579.261-1.173.465-1.733.288-.791.764-1.7,1.594-1.719,1.809-.03,3.622-.893,5.455,0a5.768,5.768,0,0,0,1.765.247c.03.519-.247,1.118.279,1.515a.662.662,0,0,0,.891-.107,1.158,1.158,0,0,0,.119-1.493c1.219-.5,2.3-1.245,2.254-2.673-.034-1.01-.307-2,.407-3.052a7.679,7.679,0,0,1-1.647.484c-.793.027-.988.381-1.03,1.118a2.242,2.242,0,0,1-2.645,2.115c-1.991-.348-3.945-.772-5.933.01-.365.144-.635-.181-.61-.559.094-1.453-.36-2.952.35-4.354a3.837,3.837,0,0,1,.464.143c.789.352,1.574.451,1.743-.622.122-.776.444-1.908-.863-2.045-1.023-.108-1.376.657-1.368,1.591,0,.216,0,.432,0,.649-.915.11-.59.877-.737,1.393-.732-.089-1.484-.133-1.556.868-.064.863.5,1.1,1.262,1.008.037,2,.026,2.026-1.571,1.26-.555-.265-.793-.009-1.023.4-.706,1.241-1.1.887-1.354-.258.858-.187.793-.8.569-1.391a.573.573,0,0,0-.847-.223c-.569.325-.374.816-.174,1.28.043.1.094.2.141.294-.686,1.888-.683,1.884-2.091.481a1.309,1.309,0,0,0-.652-.427c-.417-.048-.979-.12-1.247.1-.5.412.141.746.33,1.067a6.2,6.2,0,0,0,2.74,2.466c-.094.753-.238,1.521.607,1.987q-.187,2.6-.373,5.2l-.883.027c-.264-2.154-.577-2.351-2.116-1.328l-.937.332c-.422-.241-.247-1.065-.979-1,.084-1.788-.7-1.424-1.643-.663-.714-.506-.252-1.821-1.4-2.029l-.3-.85a9.37,9.37,0,0,0-2.011-4.1c.036-.689.327-1.482-.582-1.839a.678.678,0,0,0-.9.509.968.968,0,0,0,.9,1.4,2.561,2.561,0,0,1,.207.935c-.081.468-.464.911-.457,1.36.019,1.228.78.021,1.079.288.1.093.095.412.028.586-.166.43-.316.824.173,1.14q-.219,2.307,1.815,1.2.709,1.857,1.418,3.713c-1.062-.237-1.537-1.408-2.6-1.638-.291-.616-.622-1.263-1.452-.9a1.3,1.3,0,0,0-.761,1.754c.085.257.151.52.227.781l-.66,0c-.442-1.531-.832-3.081-1.351-4.586-.239-.693.089-1.7-.966-2.013-.5-.9-1.1-1.236-1.917-.344a4.337,4.337,0,0,1-.655,0c-1.086-.155-2.071-.816-3.246.176-1.1.929-2.31.567-3.222-.668a.952.952,0,0,0-1.366-.248,9.708,9.708,0,0,1,1.106,1.205c.335.511,1.591.624,1.1,1.3-.463.633-1.4-.051-2.062-.372-.263-.127-.415-.486-.617-.739.259-1.2-.454-2.422.179-3.65.187-.363-.237-.954-.873-.92-.611.032-.689.477-.576.943.1.428.264.744-.213,1.134-1.2.98-.878,1.963.171,2.859a1.924,1.924,0,0,1-2.849,1.044c-.413-.2-.7-.052-1.052-.049-.166-.714.287-1.634-.5-2.126-1.189-.747-1.58-1.42-.438-2.615a1.571,1.571,0,0,0-.183-2.1.825.825,0,0,0-1.291-.038,1.456,1.456,0,0,0-.247,2.047c.147.264.735.54.154.919-.883.576-.286,1.245-.156,1.888-.975-.154-1.859-.489-1.987-1.608-.1-.916.446-1.983-.808-2.571-.122-.058.133-.813-.551-.556-.5.189-.714.519-.37,1.006.5.714.156,1.234-.214,1.9a3.312,3.312,0,0,0-.083,3.155c.282.588,1,.9,1.021,1.641a5.365,5.365,0,0,0-.694.411c-.792.637-.627,1.407-.252,2.181a.886.886,0,0,0,1.264.337,1.332,1.332,0,0,0,.723-1.869,4.56,4.56,0,0,1-.143-.956c.9-.283,1.963.329,2.778-.476l.6.375c.049,1.029.9,1.274,1.614,1.662.047.482-.02,1.138.6,1.193.723.064.987-.547,1.1-1.186a12.209,12.209,0,0,0,4.605.668c-.06.952.078,1.746,1.323,1.66.193,2.156-.292,3.921-2.649,4.611l-1.409.01c-.507-.1-.956-.452-1.51-.335a1,1,0,0,1-1.058-.916,4.185,4.185,0,0,1,.467-.147c1.156-.228,1.022-1.009.73-1.794-.241-.649-.681-1.221-1.463-.929a1.451,1.451,0,0,0-.877,2,4.037,4.037,0,0,0,.511.828c-.4.461-.869,1.369-1.481.705-1.309-1.418-1.238-.057-1.554.625a1.155,1.155,0,0,0-1.558-.051c-2.124.377-4.216.035-5.231-1.913-.674-1.3-1.532-2.488-2.137-3.816-1.119-.177-1.648-.67-.939-1.794C492.2,313.7,491.779,313.327,491.258,312.98Zm43.006-14.418c.262-.068.711-.17.612-.414-.532-1.305.647-1.238,1.5-1.587-1.485-.832-2.492-1.2-3.4.53-.6,1.139-1.857.952-2.918.393-.375-.2-.59-.661-1.081-.693a8.136,8.136,0,0,0,.072-.818c0-.542-.189-1.079-.8-1.013-.66.072-.829.619-.666,1.239.055.211.135.417.2.625-.733.148-1.15-.88-1.975-.492-2.224,1.046-3.455-1.874-5.547-1.427-.066.014-.25-.15-.237-.193.4-1.46-1.172-1.463-1.562-2.442-.605.935.152,1.677-.168,2.538a2.683,2.683,0,0,0,3.022,3.545,2.788,2.788,0,0,1,2.684.685,2.56,2.56,0,0,0,3.434.237c.315-.223.677-.581,1.025-.331,1.3.932,2.751.442,4.139.532.02.269.052.537.059.806.02.766.321,1.276,1.169,1.176.792-.093.887-.726.824-1.338A10.894,10.894,0,0,0,534.263,298.562Zm-1.576,14.286c.013-.762-.076-1.506-1.075-1.445a1.466,1.466,0,0,0,0,2.893C532.612,314.358,532.7,313.606,532.687,312.848Zm-32.345,8a1.731,1.731,0,0,0,1.3-1.47,1.212,1.212,0,0,0-1.229-1.4,1.16,1.16,0,0,0-1.223,1.242A1.7,1.7,0,0,0,500.342,320.848Zm10.711-19.012a1.479,1.479,0,0,0-1.134,1.723c.027.674.242,1.218,1,1.192a1.2,1.2,0,0,0,1.27-1.366C512.15,302.681,511.912,302,511.053,301.836Zm12.73-.875c-.014-.584-.229-1.3-1.012-1.316a1.2,1.2,0,0,0-1.3,1.37c.035.826.422,1.392,1.271,1.43C523.652,302.485,523.779,301.809,523.783,300.961Zm31.96,9.682c-.13-.655-.3-1.3-1.181-1.261-.965.047-1.105.769-1.113,1.507s.32,1.39,1.111,1.322S555.688,311.446,555.743,310.644Zm-39.564-3.311c-.024.816.208,1.422,1.167,1.408.879-.012,1.1-.643,1.094-1.334a1.407,1.407,0,0,0-1.244-1.49C516.433,305.88,516.2,306.625,516.179,307.333Zm13.542-14.856c-.02-.716-.263-1.416-1.042-1.414a1.219,1.219,0,0,0-1.2,1.466c.07.586.13,1.379,1.081,1.376C529.541,293.9,529.741,293.285,529.721,292.477Zm16.156,20.95c0-.706-.1-1.372-1.006-1.385a1.161,1.161,0,0,0-1.181,1.305c0,.705.248,1.536,1.152,1.511C545.62,314.836,545.866,314.151,545.877,313.427ZM514.852,302.91a1.188,1.188,0,0,0-.931,1.163c-.015.468.126.932.687.893a.929.929,0,0,0,.928-1.092C515.508,303.414,515.4,303.016,514.852,302.91Zm15.617-2.374a.884.884,0,0,0-.725,1.082c.047.494.318.844.843.785.6-.068.785-.529.738-1.07A.784.784,0,0,0,530.468,300.536Zm20.973,11.7c-.055-.428-.271-.818-.789-.814-.606.005-.841.434-.817.995a.8.8,0,0,0,.788.87C551.247,313.289,551.424,312.832,551.441,312.232Zm-20.415-2.614c-.045-.331-.189-.818-.8-.816-.534,0-.723.477-.717.9.007.5.237.958.849.971C530.945,310.688,531.035,310.27,531.026,309.618Zm-15.551-11.053c-.621.025-.779.509-.867.973a.7.7,0,0,0,.68.894.77.77,0,0,0,.862-.756A.9.9,0,0,0,515.475,298.565Zm4.318,3.459a1.1,1.1,0,0,0-.868-1.061c-.458-.117-.676.278-.716.7-.053.554.126.987.738,1.088C519.368,302.822,519.721,302.733,519.792,302.024Zm21.328-2.881c.442-.09.776-.35.713-.86-.059-.473-.193-1.012-.809-1.021-.512-.007-.736.378-.745.865A.885.885,0,0,0,541.12,299.143Zm-7.176,3.074a.888.888,0,0,0-.582.989c.036.49.272.852.781.866a.7.7,0,0,0,.768-.832A1.14,1.14,0,0,0,533.944,302.217Zm19.351,4.556c-.5.061-.826.334-.771.849a1,1,0,0,0,.921.974c.467.03.622-.375.645-.779A.891.891,0,0,0,553.3,306.774Zm-57.8,11.83c.613-.054.613-.509.587-.946-.027-.452-.165-.92-.722-.862-.53.055-.6.53-.606.983C494.753,318.273,494.924,318.618,495.495,318.6Zm58.96-2.336c.037-.344-.279-.682-.82-.787-.475-.093-.5.289-.514.618-.02.519.068,1.012.674,1.13C554.338,317.335,554.4,316.919,554.455,316.267Z" transform="translate(-489.917 -285.789)" fill="#90a640"/><path d="M581.316,325.484c1.006-.035,1.715-.367,1.612-1.56-.029-.337.034-.733.351-.871,1.266-.553,1.462-1.8,1.951-2.866a3.044,3.044,0,0,1,.17,4.059,3.907,3.907,0,0,0-.375.494c1.124,1.17-.032,2.166-.253,3.213a1.252,1.252,0,0,0,.612,1.459c1.781,1.363,1.91,3.016.456,4.792a1.221,1.221,0,0,0-.365,1.013c.029.241-.108.714-.217.727-2.04.266-3.265,3.221-5.891,1.7-.956-.555-1.711-.121-1.462,1.187.267,1.4-.052,2.228-1.672,2.586a7.783,7.783,0,0,0-2.808,1.79,2.462,2.462,0,0,1-2.229.79c-1.316-.462-2.454.176-3.672.246-.373.021-.617.1-.724.49a1.847,1.847,0,0,1-2.094,1.45,1.106,1.106,0,0,0-.486.036c-2.6,1.2-2.6,1.19-6.2.95a5.973,5.973,0,0,0-1.439.256c.543-.484-.095-1.524.813-1.81,2.34-.736,3.331-3.182,5.418-4.241a.525.525,0,0,0,.155-.841c-.254-.279-.473.018-.7.132-.569.283-1.115,1.965-1.87,1.833-.85-.149-.91.677-1.614-.12-.781-.884.361-1.875.791-2.431,1.082-1.4,1.661-3.311,3.626-3.946.43.225.87.531,1.308.043.5-.555.193-1.105-.057-1.647.235-.83,1.013-1,1.643-1.342,1.085,1.994,1.4,2.072,2.656.658.659-.1,1.393.254,1.972-.328a2.111,2.111,0,0,0,1.646-.336l.3-.375-.016-1.223c2.025-.448,3.764-1.768,6.076-1.477,1.432.181,2.214-1.406,2.2-3.533Zm-7.664,11.507c-.018-.471-.185-.885-.7-.908-.7-.031-.884.465-.893,1.063-.007.5.18.849.739.808A.869.869,0,0,0,573.653,336.991Zm2.708-.743c.557-.131.662-.546.625-1.009-.041-.5-.319-.853-.844-.81s-.514.489-.5.881C575.67,335.782,575.823,336.169,576.361,336.249Z" transform="translate(-511.153 -296.922)" fill="#7e8f3d"/><path d="M501.116,336.518c.316-.682.245-2.043,1.554-.625.612.663,1.078-.245,1.481-.706l.631.043a1,1,0,0,0,1.058.916.894.894,0,0,1-.6.679c-1.731.819,3.028-.937,3.516-.737,2.323.952,1.771,5.707,4.233,6.315.56.7.515,2.427,1.086,1.315.875.658,2.259.652,2.605,2,.02.774-.371,1.744.908,1.923a3.12,3.12,0,0,1,3.512,1.618c.344.663.793,1.241,1.139,1.89a11.391,11.391,0,0,1-2.116-.181,4.373,4.373,0,0,0-2.988.032c-1.136.465-2.373-.663-3.6.062-.272.16-.678-.289-.783-.693-.12-.459-.279-.81-.857-.778-1.1.061-1.644-.56-2.33-1.409a3.128,3.128,0,0,0-3.021-.927,3.5,3.5,0,0,1-3.731-.911,6.7,6.7,0,0,0-2.753-1.549c-1.24-.371-1.71-.987-1.553-2.248.194-1.559-.308-1.924-1.76-1.412-1.4.494-2.711.526-3.609-.921a.848.848,0,0,0-.906-.5c-.793.074-1.33-.306-1.2-1.137.1-.649-.375-.829-.643-1.209-.642-.912-1.462-1.817-.611-3.04.9-1.13,2.149-2.031,2.415-3.591.605,1.328,1.463,2.52,2.137,3.816,1.015,1.948,3.106,2.29,5.231,1.913.016.609-.237,1.489.636,1.552C501.124,338.086,501.129,337.225,501.116,336.518Z" transform="translate(-489.411 -300.337)" fill="#7e8f3d"/><path d="M518.018,336.972c2.358-.69,2.843-2.455,2.648-4.611a1.489,1.489,0,0,1,.295-.077c.91,1.821,2.2.424,3.328.394-.023.488.442.659.649,1,.607,1.493,1.936.8,2.975.982a38.729,38.729,0,0,1,3.227,6.408c.175.382.338,1.118-.7,1.01-.751-.078-.528.429-.218.818a21.132,21.132,0,0,1,1.737,2.12c1.18,1.926,1.232,4.2,2.189,6.168l-.593.3a6.714,6.714,0,0,1-1.94-2.55c-1.052-2.9-3.784-3.952-6.2-5.232-.484-.257-1.326-.915-2.154-.439a1.563,1.563,0,0,0-1.267-.322,10.253,10.253,0,0,0-3.6-5.294C518.207,337.5,518.14,337.2,518.018,336.972Zm5.151.663c-.115-.48-.249-.972-.889-.966-.7.006-.931.455-.946,1.081-.012.513.172.824.74.856C522.772,338.647,523.047,338.253,523.169,337.635Zm1.9,2.343c.164.478.352.978,1.068.945.439-.02.77-.187.741-.672-.039-.631-.208-1.234-1-1.241C525.33,339.006,525.187,339.46,525.065,339.978Z" transform="translate(-498.67 -300.838)" fill="#7e8f3d"/><path d="M537.531,331.593l.66,0c1.683.581,1.892.409,1.986-1.636,1.067.23,1.542,1.4,2.6,1.638a14.874,14.874,0,0,1,1.407,5.777c.164,2.912-.917,5.651-.768,8.541a10.254,10.254,0,0,1-.277,4.548l-.985.266c.209-4-1.652-7.514-3.012-11.026C538.1,336.992,538.52,334.188,537.531,331.593Z" transform="translate(-504.986 -300.083)" fill="#7e8f3d"/><path d="M532.632,329.22c.989,2.594.567,5.4,1.614,8.1,1.36,3.512,3.221,7.031,3.012,11.026-.07.675.862,1.579-.1,1.984-1.3.547-1.055-.914-1.476-1.493-.139-.19-.083-.521-.116-.788-.958-1.969-1.009-4.242-2.189-6.168a21.108,21.108,0,0,0-1.738-2.12c-.31-.388-.533-.9.218-.818,1.042.108.879-.628.7-1.01a38.741,38.741,0,0,0-3.227-6.408,3.214,3.214,0,0,0-1.892-1.681c-.1-.541-1.564-1.205-1.648-1.173a8.321,8.321,0,0,0-3.4-1.1l.016-.02c.046-.465.34-.73.765-.631,2.035.472,2.51-.2,1.54-2.011,2.248,1.2,3.759,3.177,5.348,5.07.306.365.51.944,1.123.7.484-.2.488-.689.387-1.138a37.856,37.856,0,0,0-1.608-5.954l.348-.973c1.055.31.727,1.32.967,2.013C531.8,326.139,532.19,327.689,532.632,329.22Z" transform="translate(-500.087 -297.71)" fill="#9d6a29"/><path d="M565.078,335.416c-.63.346-1.408.512-1.642,1.342-1.3-.153-1.414.618-1.252,1.6-1.965.635-3.51,4.047-3.51,4.047s-1.688,1.446-.907,2.33c.7.8,1.844-.77,1.844-.77s1.07-.66,1.639-.943c.231-.114.45-.411.7-.132a.525.525,0,0,1-.155.841c-2.087,1.058-3.079,3.5-5.418,4.241-.908.285-.27,1.326-.813,1.81a2.5,2.5,0,0,0-.688,1.428c-.164.541-.459.891-1.042.741-.718-.184-.234-.7-.2-1.055a1.23,1.23,0,0,0-.184-.916,22.265,22.265,0,0,1,2.02-4.888c.906-1.931,3.05-5.823,3.05-5.823l.387-.48c1.993-1.282,2.877-3.358,3.868-5.358.429-.478,1.094-.808,1.014-1.608a1.5,1.5,0,0,0,.7-1.337c1.075-.353,1.4-1.4,2-2.189.254-.336.361-.8.9-.813l.021.021c.111,1.526-1.21,2.341-1.767,3.536-.157.337-.478.6-.632.937-.277.609-1.019,1.33-.341,1.884.436.355.941-.523,1.447-.774,1.381-.686,2.5-1.946,4.2-1.949q-.028.474-.057.948l-3.536,1.938A1.611,1.611,0,0,0,565.078,335.416Z" transform="translate(-510.138 -299.285)" fill="#9d6a29"/><path d="M562.349,336.185c-.991,2-1.87,4.178-3.862,5.459a1.315,1.315,0,0,0-.382.421c-.881,2.025-2.156,3.85-3.061,5.781a22.276,22.276,0,0,0-2.02,4.888l-.875-.026a4.135,4.135,0,0,1,.082-1.619c1.683-3.249,1.374-6.842,1.882-10.293,1.7-.169.935-1.151.651-1.974l.023-2.651c.763.277,1.523.56,2.289.829a2.15,2.15,0,0,0,2.185-.143A2.838,2.838,0,0,1,562.349,336.185Z" transform="translate(-509.704 -302.036)" fill="#7e8f3d"/><path d="M551.9,332.267l.883-.027c.31.951-.555,1.569-.682,2.443-.374,2.575-.512,5.177-1.143,7.736a12.411,12.411,0,0,0-.789,3.251c.042,1.733-.816,3.3-.937,5l-.74-.312c-.475-.444-.22-1.029-.3-1.549-.434-2.784.71-5.435.684-8.191-.013-1.322-.329-2.7.551-3.951a1.565,1.565,0,0,0-.007-1.422c-.837-1.264-.477-2.642-.572-3.976l.938-.332c.128.793-.36,1.83.783,2.228C551.34,333.435,551.566,332.73,551.9,332.267Z" transform="translate(-508.405 -300.402)" fill="#7e8f3d"/><path d="M549.744,348.6c.122-1.7.979-3.269.937-5a12.413,12.413,0,0,1,.789-3.251c.631-2.559.769-5.161,1.143-7.736.127-.874.992-1.492.682-2.443l.373-5.2.958-.442v3.785c.842-.944.825-2.082,1.945-2.077l.065.617c-.751,1.183-1.552,2.337-2.229,3.561a3.273,3.273,0,0,0-.411,2.051q-.011,1.325-.023,2.651c-1.445.254-1.1,1.1-.651,1.974-.508,3.451-.2,7.044-1.882,10.293A4.133,4.133,0,0,0,551.36,349c-.405.374-.329.882-.359,1.353a.679.679,0,0,1-.858.7c-.519-.055-.483-.468-.463-.852C549.707,349.663,549.723,349.129,549.744,348.6Z" transform="translate(-508.915 -298.326)" fill="#9d6a29"/><path d="M547.266,329.662c.094,1.334-.265,2.712.572,3.976a1.566,1.566,0,0,1,.007,1.422c-.881,1.251-.564,2.628-.551,3.951.026,2.756-1.119,5.407-.684,8.191.081.521-.174,1.105.3,1.549-.674.5-.389,1.184-.366,1.819.016.444.089.938-.581.931-.529-.006-.56-.408-.58-.812-.027-.534.108-1.116-.405-1.522a10.256,10.256,0,0,0,.277-4.548c-.148-2.89.932-5.629.768-8.541a14.873,14.873,0,0,0-1.407-5.777q-.709-1.857-1.417-3.712c.016-.207.031-.415.046-.623,1.146.208.684,1.524,1.4,2.03,0,.693.2,1.349.916,1.516.526.122.668-.405.728-.853C547.019,328.6,546.844,329.42,547.266,329.662Z" transform="translate(-506.821 -298.793)" fill="#9d6a29"/><path d="M525.77,348.432c.828-.476,1.67.182,2.154.439,2.416,1.28,5.148,2.336,6.2,5.232a6.712,6.712,0,0,0,1.94,2.55c-.526.638.973,1.786-.392,2.078-1.064.227-.641-1.219-1.282-1.611a3.783,3.783,0,0,1-.379-.3c-.346-.649-.8-1.227-1.139-1.89a3.12,3.12,0,0,0-3.512-1.618c.494-.454.952-.914.467-1.651a.877.877,0,0,0-1.376-.272c-.346-1.347-1.731-1.341-2.605-2Q525.807,348.911,525.77,348.432Z" transform="translate(-501.179 -306.01)" fill="#9d6a29"/><path d="M507.688,303.611c.319,1.494-.864,2.176-1.7,3-.437.431-1.025-.141-1.566-.084-.653.069-1.312.069-1.968.1.111-.945.879-.753,1.391-.663a2.072,2.072,0,0,0,2.448-1.338C506.6,303.941,507.231,303.948,507.688,303.611Z" transform="translate(-493.634 -291.557)" fill="#90a640"/><path d="M515.456,301.809c0,1.036-.151,1.681-1.328.739-1.337-1.071-2.659-.543-3.927.239.045-.363-.055-1.053.234-1.013,1.03.143,1.869-1.213,2.868-.4A3.056,3.056,0,0,0,515.456,301.809Z" transform="translate(-496.141 -290.748)" fill="#90a640"/><path d="M492.977,317.849a5.5,5.5,0,0,0-2.188,5.208A3.445,3.445,0,0,1,492.977,317.849Z" transform="translate(-489.678 -296.166)" fill="#90a640"/><path d="M499.926,309.032a4.623,4.623,0,0,0-.561,2.311c.12.985-1.175.856-1.792,1.3.624-.956,1.666-1.683,1.384-3.1C498.849,309,499.495,309.018,499.926,309.032Z" transform="translate(-492.053 -293.31)" fill="#90a640"/><path d="M518.952,299.723c.875-.718,1.532-.118,2.208.365a10.555,10.555,0,0,1-2.686.825A1.451,1.451,0,0,1,518.952,299.723Z" transform="translate(-498.818 -290.191)" fill="#90a640"/><path d="M496.492,314.8c.471,1.706-.65,1.886-1.88,1.96Z" transform="translate(-491.095 -295.179)" fill="#90a640"/><path d="M529.406,293.4a1.552,1.552,0,0,1-.688.954C528.705,293.857,528.742,293.4,529.406,293.4Z" transform="translate(-502.133 -288.251)" fill="#90a640"/><path d="M553.126,318.262a6.2,6.2,0,0,1-2.74-2.466c-.189-.321-.831-.655-.33-1.067.268-.221.83-.149,1.247-.1a1.309,1.309,0,0,1,.652.427c1.408,1.4,1.4,1.407,2.091-.481a1.2,1.2,0,0,1,.31.039c.249,1.145.648,1.5,1.354.258.231-.405.469-.661,1.023-.4,1.6.766,1.608.743,1.571-1.259a2.514,2.514,0,0,0,.294-1.876c.147-.517-.178-1.283.737-1.393q.011.142.026.284c-.71,1.4-.256,2.9-.35,4.354-.025.377.245.7.61.559,1.988-.783,3.942-.358,5.933-.01a2.242,2.242,0,0,0,2.645-2.115c.042-.737.237-1.091,1.03-1.118a7.677,7.677,0,0,0,1.647-.484c-.714,1.052-.441,2.042-.407,3.052.047,1.428-1.035,2.171-2.254,2.674l-1.288.085a5.766,5.766,0,0,1-1.765-.247c-1.833-.9-3.645-.034-5.455,0-.831.014-1.306.928-1.594,1.719-.2.56-.313,1.154-.464,1.733l-.963.081c.413-1.37-.09-1.912-1.49-1.659a2.409,2.409,0,0,1-.473-.005C554.379,318.135,553.765,318.163,553.126,318.262Z" transform="translate(-508.979 -293.608)" fill="#7e8f3d"/><path d="M541.961,299.891c.491.032.705.5,1.081.693,1.061.559,2.316.746,2.918-.393.912-1.726,1.919-1.361,3.4-.53-.852.35-2.03.282-1.5,1.587.1.244-.35.346-.611.414-.785-.113-1.436.021-1.674.912-1.388-.09-2.838.4-4.139-.532-.348-.25-.71.108-1.025.331a2.561,2.561,0,0,1-3.435-.237,2.788,2.788,0,0,0-2.684-.685,2.683,2.683,0,0,1-3.022-3.545c.32-.862-.437-1.6.168-2.538.39.979,1.963.983,1.562,2.442-.012.043.171.207.237.193,2.092-.446,3.323,2.473,5.547,1.427.825-.388,1.242.64,1.975.492Z" transform="translate(-502.909 -288.89)" fill="#7e8f3d"/><path d="M520.148,324.31c.971,1.807.5,2.483-1.54,2.011-.425-.1-.719.166-.765.631-.552-.218-1.105-.553-1.651.013a12.214,12.214,0,0,1-4.606-.668c-.561-.935-1.126-.827-1.694-.007-.709-.388-1.565-.633-1.614-1.662.62-.077,1.182-.239,1.374-.941.348,0,.638-.154,1.051.049a1.924,1.924,0,0,0,2.849-1.044l1.312-.365c.2.253.354.611.617.739.662.321,1.6,1.005,2.061.372.494-.675-.763-.789-1.1-1.3a9.711,9.711,0,0,0-1.106-1.205.951.951,0,0,1,1.365.248c.912,1.235,2.124,1.6,3.222.668,1.175-.993,2.16-.331,3.246-.177a4.318,4.318,0,0,0,.654,0c-.007.117-.014.233-.022.35C522.073,321.961,521.8,324.234,520.148,324.31Z" transform="translate(-495.518 -297.101)" fill="#7e8f3d"/><path d="M501.3,322.778c-.019-.745-.739-1.053-1.021-1.641a3.312,3.312,0,0,1,.083-3.155c.37-.661.719-1.182.214-1.9-.344-.487-.133-.816.37-1.006.684-.257.43.5.551.556,1.255.588.7,1.656.808,2.571.128,1.119,1.012,1.454,1.986,1.608.736.728-.128,1.88.684,2.588-.815.8-1.873.193-2.777.475Z" transform="translate(-492.811 -295.252)" fill="#7e8f3d"/><path d="M506.913,322.232c-.812-.708.052-1.859-.684-2.588-.13-.644-.727-1.313.156-1.889.581-.379-.007-.655-.154-.919a1.456,1.456,0,0,1,.247-2.047.825.825,0,0,1,1.291.038,1.571,1.571,0,0,1,.183,2.1c-1.142,1.194-.751,1.868.438,2.615.783.492.329,1.412.5,2.126-.192.7-.754.864-1.374.941Z" transform="translate(-494.752 -295.08)" fill="#b7cd63"/><path d="M514.257,339.058c-.375,1.471-.811,2.9-2.537,3.341-1.406-1.339-1.3-2.179.429-3a.894.894,0,0,0,.6-.679C513.3,338.606,513.75,338.961,514.257,339.058Z" transform="translate(-496.318 -302.914)" fill="#b7cd63"/><path d="M516.94,320.9l-1.312.365c-1.048-.9-1.371-1.879-.17-2.859.477-.39.317-.705.213-1.134-.113-.465-.036-.91.576-.943.636-.033,1.06.557.873.921C516.486,318.476,517.2,319.7,516.94,320.9Z" transform="translate(-497.593 -295.673)" fill="#b7cd63"/><path d="M539.456,318.643a9.371,9.371,0,0,1,2.011,4.1l-.619-.108c-.11-.1-.343-.1-.344,0l-.6.38c-.488-.317-.339-.711-.173-1.141.067-.174.077-.492-.028-.586-.3-.267-1.061.939-1.079-.288-.007-.449.376-.892.457-1.36a2.563,2.563,0,0,0-.207-.935Z" transform="translate(-505.339 -296.423)" fill="#7e8f3d"/><path d="M511.536,335.969l-.631-.043a4.027,4.027,0,0,1-.511-.828,1.451,1.451,0,0,1,.877-2c.782-.293,1.222.28,1.463.929.291.785.425,1.566-.73,1.794A4.194,4.194,0,0,0,511.536,335.969Z" transform="translate(-496.166 -301.076)" fill="#b7cd63"/><path d="M563.893,309.153q-.015-.142-.026-.284c0-.216,0-.432,0-.649-.009-.935.345-1.7,1.368-1.591,1.307.137.985,1.269.863,2.045-.169,1.073-.954.974-1.743.622A3.83,3.83,0,0,0,563.893,309.153Z" transform="translate(-513.51 -292.531)" fill="#b7cd63"/><path d="M501.354,326.487l.9.1a4.52,4.52,0,0,0,.142.957,1.332,1.332,0,0,1-.723,1.869.886.886,0,0,1-1.264-.337c-.375-.773-.54-1.543.252-2.18A5.358,5.358,0,0,1,501.354,326.487Z" transform="translate(-492.87 -298.961)" fill="#b7cd63"/><path d="M551.548,325.1c.011.759-.076,1.511-1.074,1.449a1.466,1.466,0,0,1,0-2.893C551.471,323.6,551.56,324.342,551.548,325.1Z" transform="translate(-508.777 -298.045)" fill="#b7cd63"/><path d="M570.643,338.545a1.611,1.611,0,0,1,1.645-1.389A2.265,2.265,0,0,1,573.3,339.2C572.043,340.617,571.728,340.539,570.643,338.545Z" transform="translate(-515.703 -302.415)" fill="#b7cd63"/><path d="M540.338,329.473c-.094,2.045-.3,2.217-1.986,1.636-.075-.261-.141-.524-.227-.781a1.3,1.3,0,0,1,.761-1.754C539.716,328.211,540.047,328.857,540.338,329.473Z" transform="translate(-505.147 -299.603)" fill="#b7cd63"/><path d="M592.018,327.22l-.387.955c-1.016.61-1.688.231-1.918-.818-.164-.75-.066-1.611.914-1.777C591.9,325.364,591.983,326.305,592.018,327.22Z" transform="translate(-521.854 -298.658)" fill="#b7cd63"/><path d="M504.272,336.249a1.7,1.7,0,0,1-1.155-1.633,1.16,1.16,0,0,1,1.223-1.242,1.212,1.212,0,0,1,1.229,1.4A1.731,1.731,0,0,1,504.272,336.249Z" transform="translate(-493.847 -301.19)" fill="#b7cd63"/><path d="M520.117,309.515c.859.161,1.1.845,1.141,1.548a1.2,1.2,0,0,1-1.27,1.366c-.762.026-.977-.518-1-1.192A1.479,1.479,0,0,1,520.117,309.515Z" transform="translate(-498.982 -293.468)" fill="#b7cd63"/><path d="M538.378,307.592c0,.847-.131,1.524-1.037,1.484-.849-.038-1.236-.6-1.271-1.43a1.2,1.2,0,0,1,1.3-1.37C538.149,306.295,538.364,307.008,538.378,307.592Z" transform="translate(-504.513 -292.42)" fill="#b7cd63"/><path d="M585.64,321.934c-.055.8-.378,1.5-1.183,1.568s-1.118-.6-1.111-1.322.148-1.46,1.112-1.507C585.343,320.63,585.51,321.279,585.64,321.934Z" transform="translate(-519.815 -297.079)" fill="#b7cd63"/><path d="M528.239,316.965c.022-.708.254-1.453,1.017-1.416a1.407,1.407,0,0,1,1.244,1.49c.01.691-.214,1.322-1.094,1.334C528.447,318.387,528.215,317.781,528.239,316.965Z" transform="translate(-501.978 -295.421)" fill="#b7cd63"/><path d="M547.186,295c.02.808-.18,1.424-1.158,1.427-.95,0-1.011-.79-1.081-1.376a1.219,1.219,0,0,1,1.2-1.466C546.923,293.585,547.166,294.284,547.186,295Z" transform="translate(-507.383 -288.313)" fill="#b7cd63"/><path d="M571.1,325.992c-.012.722-.258,1.408-1.035,1.429-.9.025-1.156-.806-1.152-1.511A1.161,1.161,0,0,1,570.1,324.6C571,324.618,571.1,325.284,571.1,325.992Z" transform="translate(-515.144 -298.352)" fill="#b7cd63"/><path d="M552.505,305.571c.238-.891.889-1.025,1.674-.912a10.992,10.992,0,0,1,.379,1.556c.062.612-.032,1.245-.824,1.338-.848.1-1.15-.411-1.169-1.176C552.557,306.108,552.525,305.84,552.505,305.571Z" transform="translate(-509.832 -291.885)" fill="#b7cd63"/><path d="M579.245,336.434l.016,1.224-.3.374a2.111,2.111,0,0,1-1.646.336,2.786,2.786,0,0,1-.3-.758c-.058-.7-.222-1.431.6-1.882C578.5,335.243,578.721,336.16,579.245,336.434Z" transform="translate(-517.749 -301.907)" fill="#b7cd63"/><path d="M552.714,331.982c-.337.463-.563,1.167-1.332.9-1.143-.4-.655-1.435-.783-2.228C552.137,329.631,552.449,329.827,552.714,331.982Z" transform="translate(-509.215 -300.117)" fill="#b7cd63"/><path d="M541.45,324.55l.619.108.3.85c-.016.207-.031.415-.047.622q-2.033,1.107-1.816-1.2l.6-.379Z" transform="translate(-505.941 -298.334)" fill="#b7cd63"/><path d="M519.974,329.794c.546-.566,1.1-.231,1.651-.013l-.016.02q-.008.788-.018,1.577a1.49,1.49,0,0,0-.295.077C520.052,331.54,519.913,330.746,519.974,329.794Z" transform="translate(-499.299 -299.931)" fill="#b7cd63"/><path d="M546.977,329.329c-.06.448-.2.975-.728.853-.72-.166-.916-.822-.916-1.516C546.277,327.9,547.061,327.541,546.977,329.329Z" transform="translate(-507.511 -299.464)" fill="#b7cd63"/><path d="M525.832,311.1c.551.106.656.5.684.963a.929.929,0,0,1-.928,1.092c-.561.039-.7-.425-.687-.893A1.188,1.188,0,0,1,525.832,311.1Z" transform="translate(-500.898 -293.982)" fill="#b7cd63"/><path d="M562.03,311.986a2.515,2.515,0,0,1-.294,1.876c-.764.091-1.326-.145-1.262-1.008C560.546,311.853,561.3,311.9,562.03,311.986Z" transform="translate(-512.41 -294.254)" fill="#b7cd63"/><path d="M539.108,317.74l-.584.07a.968.968,0,0,1-.9-1.4.678.678,0,0,1,.9-.509C539.435,316.258,539.145,317.051,539.108,317.74Z" transform="translate(-504.991 -295.519)" fill="#b7cd63"/><path d="M554.65,322.216c.639-.1,1.253-.126,1.6.582q-.017.481-.032.962l-.958.443C554.412,323.737,554.556,322.969,554.65,322.216Z" transform="translate(-510.503 -297.562)" fill="#b7cd63"/><path d="M531.236,322.212c.008-.116.014-.233.022-.35.821-.893,1.421-.559,1.919.344q-.175.486-.348.973C531.941,323.442,531.561,322.873,531.236,322.212Z" transform="translate(-502.948 -297.295)" fill="#b7cd63"/><path d="M549.017,307.593a.784.784,0,0,1,.856.8c.047.541-.136,1-.738,1.07-.525.06-.8-.291-.843-.785A.884.884,0,0,1,549.017,307.593Z" transform="translate(-508.466 -292.846)" fill="#b7cd63"/><path d="M579.607,324.5c-.017.6-.194,1.058-.818,1.05a.8.8,0,0,1-.788-.87c-.024-.561.211-.989.817-.995C579.337,323.678,579.553,324.068,579.607,324.5Z" transform="translate(-518.084 -298.054)" fill="#b7cd63"/><path d="M568.968,331.613a1.5,1.5,0,0,1-.7,1.337c-.583-.1-1.006-.352-1-1.026a.883.883,0,0,1,.538-.9C568.384,330.8,568.689,331.2,568.968,331.613Z" transform="translate(-514.61 -300.409)" fill="#b7cd63"/><path d="M549.465,320.631c.01.652-.081,1.07-.67,1.058-.613-.013-.843-.472-.849-.971-.006-.425.183-.9.717-.9C549.276,319.812,549.419,320.3,549.465,320.631Z" transform="translate(-508.357 -296.802)" fill="#b7cd63"/><path d="M546.457,301.176l-1.194.033c-.068-.209-.147-.415-.2-.626-.163-.62.006-1.167.666-1.239.613-.066.8.471.8,1.013A8.153,8.153,0,0,1,546.457,301.176Z" transform="translate(-507.404 -290.174)" fill="#b7cd63"/><path d="M526.775,304.679a.9.9,0,0,1,.675,1.111.77.77,0,0,1-.862.756.7.7,0,0,1-.68-.894C526,305.188,526.154,304.7,526.775,304.679Z" transform="translate(-501.218 -291.903)" fill="#b7cd63"/><path d="M532.821,309.275c-.072.709-.425.8-.846.728-.611-.1-.791-.534-.738-1.088.04-.423.258-.818.716-.7A1.1,1.1,0,0,1,532.821,309.275Z" transform="translate(-502.946 -293.04)" fill="#b7cd63"/><path d="M505.962,339.127c.013.707.007,1.568-.921,1.5-.873-.064-.62-.943-.636-1.552A1.155,1.155,0,0,1,505.962,339.127Z" transform="translate(-494.257 -302.946)" fill="#b7cd63"/><path d="M564.714,304.634a.885.885,0,0,1-.841-1.016c.009-.487.233-.872.745-.865.615.008.75.547.809,1.021C565.491,304.284,565.156,304.544,564.714,304.634Z" transform="translate(-513.512 -291.28)" fill="#b7cd63"/><path d="M510.664,328.631c.568-.82,1.134-.928,1.694.007-.108.639-.372,1.251-1.095,1.186C510.644,329.77,510.711,329.114,510.664,328.631Z" transform="translate(-496.29 -299.443)" fill="#b7cd63"/><path d="M559.926,325.523l.963-.08c.387.461.863.9.344,1.566a.845.845,0,0,1-1.293.138c-.021-.206-.043-.412-.064-.618Q559.9,326.026,559.926,325.523Z" transform="translate(-512.218 -298.623)" fill="#b7cd63"/><path d="M554.227,310.079a1.14,1.14,0,0,1,.967,1.023.7.7,0,0,1-.768.832c-.509-.014-.745-.375-.781-.866A.888.888,0,0,1,554.227,310.079Z" transform="translate(-510.2 -293.651)" fill="#b7cd63"/><path d="M582.747,316.816a.891.891,0,0,1,.794,1.044c-.022.4-.178.81-.645.779a1,1,0,0,1-.92-.974C581.921,317.15,582.247,316.877,582.747,316.816Z" transform="translate(-519.369 -295.831)" fill="#b7cd63"/><path d="M574.586,326.042c-.01-.164-.026-.329-.029-.493-.008-.617-.039-1.275.789-1.385.4-.053.573.31.666.62.239.789-.3,1.072-.91,1.269a1.753,1.753,0,0,1-.492.012Z" transform="translate(-516.969 -298.208)" fill="#b7cd63"/><path d="M575.07,320.67l1.288-.085a1.157,1.157,0,0,1-.119,1.493.662.662,0,0,1-.891.107C574.823,321.788,575.1,321.189,575.07,320.67Z" transform="translate(-517.121 -297.051)" fill="#b7cd63"/><path d="M497.3,333.44c-.57.014-.741-.33-.74-.824,0-.454.076-.929.606-.983.557-.057.7.41.722.862C497.917,332.931,497.916,333.385,497.3,333.44Z" transform="translate(-491.726 -300.625)" fill="#b7cd63"/><path d="M584.193,330.47c-.056.651-.117,1.067-.66.962-.606-.118-.695-.611-.674-1.13.013-.329.039-.711.514-.618C583.914,329.788,584.23,330.126,584.193,330.47Z" transform="translate(-519.656 -299.991)" fill="#b7cd63"/><path d="M578.3,333.659q.029-.474.058-.948c.4-.405.858-.564,1.246-.049a.879.879,0,0,1-.028,1.078C579.163,334.222,578.708,334.029,578.3,333.659Z" transform="translate(-518.182 -300.855)" fill="#b7cd63"/><path d="M556.192,316.029a1.2,1.2,0,0,0-.31-.039c-.047-.1-.1-.195-.141-.294-.2-.463-.395-.955.174-1.28a.574.574,0,0,1,.847.222C556.985,315.229,557.049,315.842,556.192,316.029Z" transform="translate(-510.814 -295.024)" fill="#b7cd63"/><path d="M574.062,327.312l.365-.368.024.022-.368.367Z" transform="translate(-516.81 -299.109)" fill="#8e7931"/><path d="M581.057,344.6a.869.869,0,0,1-.858.961c-.559.041-.746-.306-.739-.808.009-.6.2-1.094.893-1.063C580.872,343.713,581.039,344.126,581.057,344.6Z" transform="translate(-518.557 -304.529)" fill="#b7cd63"/><path d="M566.337,342.789c-.162-.987-.046-1.757,1.252-1.6.25.542.553,1.092.056,1.647C567.207,343.32,566.766,343.014,566.337,342.789Z" transform="translate(-514.291 -303.712)" fill="#b7cd63"/><path d="M585.48,343.063c-.538-.08-.691-.467-.714-.939-.019-.392-.024-.839.5-.881s.8.312.844.81C586.143,342.517,586.038,342.932,585.48,343.063Z" transform="translate(-520.272 -303.736)" fill="#b7cd63"/><path d="M579.919,339.022l.3-.374Z" transform="translate(-518.705 -302.897)" fill="#90a640"/><path d="M529.714,352.78a.877.877,0,0,1,1.376.272c.486.737.027,1.2-.467,1.651C529.343,354.523,529.734,353.554,529.714,352.78Z" transform="translate(-502.443 -307.4)" fill="#b7cd63"/><path d="M522.37,331.529q.009-.788.018-1.577a8.324,8.324,0,0,1,3.395,1.1q-.043.436-.084.875C524.57,331.953,523.28,333.35,522.37,331.529Z" transform="translate(-500.079 -300.083)" fill="#90a640"/><path d="M524.756,339.733c-.122.617-.4,1.012-1.094.971-.568-.032-.753-.344-.741-.856.016-.626.249-1.075.946-1.081C524.507,338.762,524.641,339.253,524.756,339.733Z" transform="translate(-500.257 -302.936)" fill="#b7cd63"/><path d="M528.437,343.2c.122-.518.265-.972.81-.968.791.007.96.61,1,1.241.029.486-.3.653-.741.672C528.789,344.175,528.6,343.675,528.437,343.2Z" transform="translate(-502.043 -304.056)" fill="#b7cd63"/><path d="M527.291,332.351q.042-.438.084-.875c.084-.032.17-.062.257-.088l.63-.114c.774.17.657.834.761,1.375-.122.6-.56.717-1.082.7C527.732,333.01,527.268,332.839,527.291,332.351Z" transform="translate(-501.671 -300.511)" fill="#b7cd63"/><path d="M528.251,334.007c.522.018.96-.1,1.082-.7a3.213,3.213,0,0,1,1.893,1.681C530.187,334.807,528.858,335.5,528.251,334.007Z" transform="translate(-501.982 -301.169)" fill="#90a640"/><path d="M529.486,322.63c.325.661.705,1.231,1.592.966a37.85,37.85,0,0,1,1.608,5.954c.1.449.1.942-.387,1.138-.613.248-.817-.331-1.123-.7-1.589-1.893-3.1-3.871-5.348-5.07C527.479,324.846,527.753,322.573,529.486,322.63Z" transform="translate(-501.198 -297.713)" fill="#90a640"/><path d="M554.886,342.153c-.446-.876-.794-1.721.651-1.974C555.821,341,556.587,341.984,554.886,342.153Z" transform="translate(-510.477 -303.393)" fill="#b7cd63"/><path d="M559,324.739q-.025.5-.05,1.005c-1.12,0-1.1,1.134-1.945,2.078v-3.785q.015-.482.032-.962a2.412,2.412,0,0,0,.473.005C558.905,322.827,559.408,323.37,559,324.739Z" transform="translate(-511.287 -297.839)" fill="#90a640"/><path d="M541.749,324.4l-.344,0c0-.1,0-.206,0-.31l.009-.009Z" transform="translate(-506.24 -298.184)" fill="#7e8f3d"/><path d="M518.041,338.8s3.48,5.287,5.877,6.4,5.3,2.906,5.3,2.906c.212.17-5.042-1.934-5.042-1.934l-3.994-1.629L517.4,339.08Z" transform="translate(-498.471 -302.946)" fill="#9d6a29"/><path d="M523.379,349.29a2.094,2.094,0,0,1,.35-1.27,1.563,1.563,0,0,1,1.267.322q.036.479.075.958C524.5,350.412,523.939,349.992,523.379,349.29Z" transform="translate(-500.404 -305.92)" fill="#b7cd63"/></g><g transform="translate(1076.922 386.136)"><path d="M601.954,263.244a3.3,3.3,0,0,0,.942-.313c.3-.152.8-.415.9-.766a.418.418,0,0,0-.225-.494,6.445,6.445,0,0,0-1.448-.6,2.538,2.538,0,0,0,.547-1.054.2.2,0,0,0-.118-.247,9.144,9.144,0,0,0-2.725-.726c.187-.42.537-1.1-.056-1.263a3.653,3.653,0,0,0-1.789.091c.2-.475.516-1.2.011-1.38a3.538,3.538,0,0,0-2.026.16q.373-.545.749-1.088c.076-.11.009-.312-.145-.3a10.319,10.319,0,0,0-3.531.8,4.87,4.87,0,0,0,.438-.774.318.318,0,0,0-.2-.48,2.064,2.064,0,0,0-1.1.1,4.629,4.629,0,0,0-.611.262,14.878,14.878,0,0,0,1.938-1.966.2.2,0,0,0-.195-.3,3.008,3.008,0,0,1-.748.133,3.844,3.844,0,0,0,2.09-3.063.2.2,0,0,0-.277-.189,2.185,2.185,0,0,1-.9.154,5.642,5.642,0,0,0,1.194-2.063c.092-.232.427-.806.117-1.028-.135-.1-.386-.03-.523-.012s-.291.043-.436.066a3.578,3.578,0,0,0,1.082-1.883c.061-.288.12-.6-.143-.8a.675.675,0,0,0-.549-.09,1.85,1.85,0,0,0,.31-.426,2.548,2.548,0,0,0,.374-1.228.407.407,0,0,0-.293-.373,3.8,3.8,0,0,0-1.213-.172c.277-.39.63-.959.527-1.318-.106-.377-.648-.409-1.054-.406.225-.563.456-1.412.1-1.871a1.1,1.1,0,0,0-1.215-.209c.3-.579-.148-1.245-.047-1.905a.194.194,0,0,0-.276-.188,3.84,3.84,0,0,0-1.493,1.37,2.2,2.2,0,0,0-1.784-.642,1.825,1.825,0,0,0-1.335,1.339,2.243,2.243,0,0,0-1.276-.748.2.2,0,0,0-.224.071,3.928,3.928,0,0,0-.709,2.044c-.583-.536-1.437-1.355-1.889-.489a3.671,3.671,0,0,0-.543,2.334q-.6-.424-1.2-.847a.2.2,0,0,0-.294.095,4.066,4.066,0,0,0-.07,2.31,4.522,4.522,0,0,0-.958-.565c-.193-.072-.333-.073-.455.114a3.511,3.511,0,0,0-.21,1.4,11.077,11.077,0,0,0-.018,1.307,2.04,2.04,0,0,0-1.178-.321c-.339.1-.378.539-.437.829a4.024,4.024,0,0,0,.17,2.536,5.318,5.318,0,0,1-.874-.672c-.143-.135-.263-.306-.477-.281-.231.026-.511.422-.653.58-.122.137-.239.28-.348.426a3.037,3.037,0,0,0-1.209-2.459.2.2,0,0,0-.269.049l-.732,1.292a2.724,2.724,0,0,0-1.007-1.692c-.67-.5-.976.2-1.171.87a2.881,2.881,0,0,0-.98-1.294.2.2,0,0,0-.237.011,3.073,3.073,0,0,0-.811,1.251,2.534,2.534,0,0,0-1.94-1.129.2.2,0,0,0-.206.181q-.107.781-.215,1.565-.963-.351-1.926-.7c-.147-.053-.327.117-.239.266.428.717.22,2.093,1.007,2.527a7.577,7.577,0,0,0-1.449.762c-.164.126-.237.185-.212.4a3.222,3.222,0,0,0,.69,1.1,9.892,9.892,0,0,0,.929,1.067,2.442,2.442,0,0,0-1.739.779.2.2,0,0,0,.011.237,3.435,3.435,0,0,0,1.793,1.322l-.415.2a1.906,1.906,0,0,0-.611.326.443.443,0,0,0-.015.622,2.978,2.978,0,0,0,1.2.73,6.411,6.411,0,0,0,1.058.325,6.256,6.256,0,0,0-1.094.536.2.2,0,0,0,.019.358l3.4,1.476a13.032,13.032,0,0,0-1.715.914.2.2,0,0,0,.019.357,11.9,11.9,0,0,0,3.681,1.125,8.2,8.2,0,0,0-.987.792.2.2,0,0,0,.015.306,5.174,5.174,0,0,0,3.633.657c-.056.05-.113.1-.168.148a.2.2,0,0,0,.061.33,7.612,7.612,0,0,0,6.065-.878q-.267.381-.542.76a.2.2,0,0,0-.059.035l-1.514,1.286c-.4.338-1.024.7-1.24,1.2-.308.718.349,1.1.981.9a5.192,5.192,0,0,0,2.3-1.807,14.713,14.713,0,0,0,1.43-2.109A9.7,9.7,0,0,0,581,265.7a2.174,2.174,0,0,0,1.679,1.91,4.591,4.591,0,0,0,2.94,2.31.2.2,0,0,0,.254-.22,4.277,4.277,0,0,1-.078-.981A7.174,7.174,0,0,0,590.1,270.6a.2.2,0,0,0,.162-.318,3.671,3.671,0,0,1-.618-.852,14.187,14.187,0,0,0,3.467,1.069.194.194,0,0,0,.2-.229,7.869,7.869,0,0,1-.224-1.015,3.883,3.883,0,0,0,2.761.617c.25-.041.711-.078.781-.392a.86.86,0,0,0-.128-.463c-.078-.188-.158-.377-.239-.563a4.439,4.439,0,0,0,2.409.233.2.2,0,0,0,.112-.315,3.881,3.881,0,0,1-.527-.682,2.118,2.118,0,0,0,1.752-.459,1.24,1.24,0,0,0,.108-1.627c.459-.1.914-.221,1.362-.367.322-.1.91-.19,1.116-.491C602.872,264.344,602.365,263.686,601.954,263.244Z" transform="translate(-563.411 -236.02)" fill="#90a640"/><g transform="translate(17.864 5.787)"><path d="M590.454,263.248q3.382-9.177,7.029-18.254c.155-.386-.454-.6-.609-.215q-3.647,9.075-7.029,18.254a.323.323,0,0,0,.609.215Z" transform="translate(-589.824 -244.577)" fill="#7e8f3d"/></g><g transform="translate(18.344 24.935)"><path d="M590.91,273.581a11.912,11.912,0,0,1,3.625.275,36.321,36.321,0,0,0,3.844.555,65.978,65.978,0,0,0,7.937,0c.41-.017.461-.661.045-.645a63.945,63.945,0,0,1-8.179-.015c-2.452-.214-4.922-1.095-7.394-.8-.413.049-.29.684.122.634Z" transform="translate(-590.533 -272.887)" fill="#7e8f3d"/></g><g transform="translate(5.218 14.268)"><path d="M582.9,267.425a42.931,42.931,0,0,0-5.373-5.037,73.863,73.863,0,0,1-5.817-5.171c-.292-.293-.787.122-.493.417a70.556,70.556,0,0,0,5.557,4.974,44.665,44.665,0,0,1,5.633,5.236c.273.313.766-.1.493-.417Z" transform="translate(-571.126 -257.116)" fill="#7e8f3d"/></g><g transform="translate(13.249 17.695)"><path d="M584.36,266.776a44.471,44.471,0,0,1-.976-4.441.194.194,0,0,0-.38.072,44.25,44.25,0,0,0,.975,4.441c.066.239.447.168.381-.072Z" transform="translate(-583 -262.183)" fill="#7e8f3d"/></g><g transform="translate(11.476 15.226)"><path d="M581.636,264.036a3.277,3.277,0,0,1-.729-2.388c-.049-.972-.095-1.944-.142-2.916-.012-.246-.4-.277-.386-.027.055,1.129.092,2.26.166,3.388a3.1,3.1,0,0,0,.8,2.194c.18.168.477-.081.3-.25Z" transform="translate(-580.379 -258.532)" fill="#7e8f3d"/></g><g transform="translate(8.901 15.788)"><path d="M577.834,261.961a3.533,3.533,0,0,1-.881-2.446c-.024-.248-.4-.174-.38.073a3.83,3.83,0,0,0,1.04,2.69c.187.165.406-.155.222-.318Z" transform="translate(-576.571 -259.363)" fill="#7e8f3d"/></g><g transform="translate(6.689 14.285)"><path d="M574.391,258.929a7.978,7.978,0,0,1-.7-1.641c-.07-.237-.452-.166-.38.073a8.371,8.371,0,0,0,.732,1.735c.122.216.472.051.35-.166Z" transform="translate(-573.301 -257.141)" fill="#7e8f3d"/></g><g transform="translate(4.875 17.029)"><path d="M575.663,262.343a8.9,8.9,0,0,0-4.844-1.133c-.245.013-.277.4-.027.387a8.544,8.544,0,0,1,4.649,1.064c.216.12.44-.2.222-.318Z" transform="translate(-570.62 -261.197)" fill="#7e8f3d"/></g><g transform="translate(7.651 19.148)"><path d="M578.95,265.18a23.373,23.373,0,0,0-4.027-.847c-.247-.03-.275.356-.028.386a22.79,22.79,0,0,1,3.925.827c.237.072.368-.292.129-.365Z" transform="translate(-574.723 -264.331)" fill="#7e8f3d"/></g><g transform="translate(9.842 21.323)"><path d="M581.785,267.9a26.73,26.73,0,0,0-3.62-.357c-.248-.007-.277.379-.028.387a26.74,26.74,0,0,1,3.62.356c.245.041.272-.346.027-.386Z" transform="translate(-577.964 -267.547)" fill="#7e8f3d"/></g><g transform="translate(12.016 23.438)"><path d="M584.984,270.878a14.25,14.25,0,0,1-3.609-.2c-.244-.045-.271.342-.027.387a14.654,14.654,0,0,0,3.708.194c.248-.018.174-.4-.072-.381Z" transform="translate(-581.178 -270.674)" fill="#7e8f3d"/></g><g transform="translate(16.707 17.91)"><path d="M590.087,267.527a28.3,28.3,0,0,1-1.587-4.876c-.055-.242-.436-.171-.381.073a28.9,28.9,0,0,0,1.619,4.97c.1.23.448.062.35-.167Z" transform="translate(-588.113 -262.501)" fill="#7e8f3d"/></g><g transform="translate(16.968 12.425)"><path d="M591.205,262.751c-.511-2.828-.4-5.975-2.363-8.291a.194.194,0,0,0-.3.25c1.912,2.254,1.781,5.363,2.278,8.113a.194.194,0,0,0,.381-.072Z" transform="translate(-588.5 -254.391)" fill="#7e8f3d"/></g><g transform="translate(19.476 11.402)"><path d="M593.857,258.39a35.727,35.727,0,0,1-1.266-5.36c-.038-.246-.419-.174-.38.072a35.606,35.606,0,0,0,1.265,5.36c.075.235.457.165.381-.072Z" transform="translate(-592.208 -252.878)" fill="#7e8f3d"/></g><g transform="translate(20.933 8.238)"><path d="M595.946,252.854l-1.2-4.506c-.064-.239-.444-.169-.38.072l1.2,4.506c.064.24.444.169.381-.072Z" transform="translate(-594.362 -248.199)" fill="#7e8f3d"/></g><g transform="translate(22.999 7.82)"><path d="M598.259,249.505a5.432,5.432,0,0,0-.475-1.815.194.194,0,0,0-.35.167,5.129,5.129,0,0,1,.444,1.721c.021.248.4.174.381-.073Z" transform="translate(-597.416 -247.582)" fill="#7e8f3d"/></g><g transform="translate(23.11 9.482)"><path d="M597.933,251.991a5.19,5.19,0,0,1,1.669-1.575c.213-.126.048-.477-.167-.35a5.643,5.643,0,0,0-1.819,1.7.194.194,0,0,0,.318.222Z" transform="translate(-597.581 -250.039)" fill="#7e8f3d"/></g><g transform="translate(21.678 11.918)"><path d="M595.73,255.816l3.133-1.8c.216-.124.05-.474-.166-.35l-3.134,1.8c-.215.124-.05.474.167.35Z" transform="translate(-595.462 -253.641)" fill="#7e8f3d"/></g><g transform="translate(20.783 14.039)"><path d="M594.414,259.91q3.221-1.511,6.549-2.771c.233-.088.065-.437-.167-.349q-3.326,1.259-6.549,2.77a.194.194,0,0,0,.167.35Z" transform="translate(-594.139 -256.776)" fill="#7e8f3d"/></g><g transform="translate(19.831 17.769)"><path d="M592.95,264.213l5.067-1.532c.236-.071.166-.452-.073-.38l-5.066,1.531c-.237.072-.166.452.072.381Z" transform="translate(-592.732 -262.292)" fill="#7e8f3d"/></g><g transform="translate(20.94 23.18)"><path d="M594.594,272.813a8.471,8.471,0,0,0,3.986-2.172c.179-.172-.071-.469-.25-.3a8.088,8.088,0,0,1-3.809,2.087c-.242.057-.17.438.073.381Z" transform="translate(-594.371 -270.292)" fill="#7e8f3d"/></g><g transform="translate(23.638 21.956)"><path d="M598.586,272.546a7.639,7.639,0,0,0,5.254-3.752c.122-.216-.2-.439-.318-.222a7.261,7.261,0,0,1-5.009,3.593.194.194,0,0,0,.073.381Z" transform="translate(-598.361 -268.483)" fill="#7e8f3d"/></g><g transform="translate(27.504 24.139)"><path d="M604.354,273.865a9.474,9.474,0,0,0,3.259-1.8c.172-.178-.076-.475-.25-.3a9.241,9.241,0,0,1-3.176,1.75c-.23.1-.062.448.166.35Z" transform="translate(-604.078 -271.71)" fill="#7e8f3d"/></g><g transform="translate(30.665 24.984)"><path d="M608.976,274.221a3.682,3.682,0,0,0,1.845-.916c.183-.168-.066-.465-.25-.3a3.317,3.317,0,0,1-1.667.831.194.194,0,0,0,.072.38Z" transform="translate(-608.751 -272.959)" fill="#7e8f3d"/></g><g transform="translate(30.384 26.28)"><path d="M608.463,275.251a31.851,31.851,0,0,1,3.859,1.436c.228.1.356-.264.129-.365a31.838,31.838,0,0,0-3.859-1.436c-.238-.071-.369.294-.129.365Z" transform="translate(-608.336 -274.877)" fill="#7e8f3d"/></g><g transform="translate(27.2 26.18)"><path d="M603.742,275.115a13.279,13.279,0,0,1,1.72,1.043c.532.382,1.651,1.029,1.39,1.85-.075.237.29.367.365.129.235-.74-.227-1.246-.766-1.7a13.444,13.444,0,0,0-2.58-1.687c-.221-.113-.348.254-.129.365Z" transform="translate(-603.628 -274.728)" fill="#7e8f3d"/></g><g transform="translate(22.761 25.758)"><path d="M597.152,274.451a12.221,12.221,0,0,1,3.122,2.632.194.194,0,0,0,.3-.25,12.506,12.506,0,0,0-3.2-2.7c-.214-.126-.436.191-.221.318Z" transform="translate(-597.065 -274.104)" fill="#7e8f3d"/></g><g transform="translate(20.378 25.344)"><path d="M593.618,273.851a15.41,15.41,0,0,1,2.087,1.935c.166.186.463-.064.3-.25a15.944,15.944,0,0,0-2.161-2c-.2-.152-.419.166-.222.318Z" transform="translate(-593.541 -273.493)" fill="#7e8f3d"/></g></g><g transform="translate(1126.321 386.136)"><path d="M674.993,263.244a3.307,3.307,0,0,0,.942-.313c.3-.152.8-.415.895-.766a.418.418,0,0,0-.225-.494,6.457,6.457,0,0,0-1.448-.6,2.532,2.532,0,0,0,.547-1.054.2.2,0,0,0-.118-.247,9.153,9.153,0,0,0-2.726-.726c.187-.42.537-1.1-.055-1.263a3.656,3.656,0,0,0-1.79.091c.2-.475.516-1.2.012-1.38a3.538,3.538,0,0,0-2.026.16q.373-.545.749-1.088c.076-.11.009-.312-.144-.3a10.321,10.321,0,0,0-3.531.8,4.879,4.879,0,0,0,.438-.774.318.318,0,0,0-.2-.48,2.065,2.065,0,0,0-1.1.1,4.625,4.625,0,0,0-.611.262,14.913,14.913,0,0,0,1.939-1.966.2.2,0,0,0-.195-.3,3.016,3.016,0,0,1-.749.133,3.845,3.845,0,0,0,2.091-3.063.2.2,0,0,0-.277-.189,2.185,2.185,0,0,1-.9.154,5.654,5.654,0,0,0,1.194-2.063c.091-.232.426-.806.117-1.028-.135-.1-.387-.03-.523-.012s-.29.043-.436.066a3.578,3.578,0,0,0,1.083-1.883c.06-.288.12-.6-.144-.8a.674.674,0,0,0-.549-.09,1.873,1.873,0,0,0,.31-.426,2.551,2.551,0,0,0,.373-1.228.408.408,0,0,0-.292-.373,3.809,3.809,0,0,0-1.213-.172c.277-.39.63-.959.528-1.318-.106-.377-.649-.409-1.054-.406.225-.563.455-1.412.1-1.871a1.1,1.1,0,0,0-1.215-.209c.3-.579-.147-1.245-.047-1.905a.194.194,0,0,0-.276-.188,3.835,3.835,0,0,0-1.493,1.37,2.207,2.207,0,0,0-1.784-.642,1.826,1.826,0,0,0-1.335,1.339,2.241,2.241,0,0,0-1.276-.748.2.2,0,0,0-.224.071,3.938,3.938,0,0,0-.709,2.044c-.583-.536-1.437-1.355-1.888-.489a3.663,3.663,0,0,0-.543,2.334q-.6-.424-1.2-.847a.194.194,0,0,0-.294.095,4.066,4.066,0,0,0-.071,2.31,4.51,4.51,0,0,0-.958-.565c-.192-.072-.333-.073-.454.114a3.5,3.5,0,0,0-.21,1.4,11.25,11.25,0,0,0-.019,1.307,2.038,2.038,0,0,0-1.178-.321c-.339.1-.378.539-.437.829a4.033,4.033,0,0,0,.17,2.536,5.341,5.341,0,0,1-.874-.672c-.142-.135-.263-.306-.477-.281-.231.026-.511.422-.653.58-.122.137-.239.28-.348.426a3.04,3.04,0,0,0-1.209-2.459.2.2,0,0,0-.27.049l-.732,1.292a2.724,2.724,0,0,0-1.007-1.692c-.67-.5-.976.2-1.171.87a2.882,2.882,0,0,0-.981-1.294.2.2,0,0,0-.237.011,3.071,3.071,0,0,0-.811,1.251,2.533,2.533,0,0,0-1.94-1.129.2.2,0,0,0-.206.181q-.108.781-.215,1.565l-1.926-.7c-.147-.053-.328.117-.239.266.429.717.22,2.093,1.007,2.527a7.554,7.554,0,0,0-1.448.762c-.164.126-.237.185-.213.4a3.227,3.227,0,0,0,.69,1.1,9.979,9.979,0,0,0,.929,1.067,2.44,2.44,0,0,0-1.738.779.2.2,0,0,0,.011.237,3.436,3.436,0,0,0,1.792,1.322l-.415.2a1.9,1.9,0,0,0-.611.326.443.443,0,0,0-.014.622,2.977,2.977,0,0,0,1.2.73,6.421,6.421,0,0,0,1.057.325,6.281,6.281,0,0,0-1.094.536.2.2,0,0,0,.019.358l3.4,1.476a13.02,13.02,0,0,0-1.714.914.2.2,0,0,0,.018.357,11.9,11.9,0,0,0,3.681,1.125,8.184,8.184,0,0,0-.987.792.2.2,0,0,0,.015.306,5.172,5.172,0,0,0,3.633.657l-.169.148a.2.2,0,0,0,.062.33,7.613,7.613,0,0,0,6.065-.878q-.267.381-.543.76a.216.216,0,0,0-.059.035l-1.514,1.286c-.4.338-1.025.7-1.24,1.2-.309.718.348,1.1.98.9a5.194,5.194,0,0,0,2.3-1.807,14.814,14.814,0,0,0,1.43-2.109,9.728,9.728,0,0,0,.248,2.469,2.174,2.174,0,0,0,1.679,1.91,4.593,4.593,0,0,0,2.941,2.31.2.2,0,0,0,.254-.22,4.227,4.227,0,0,1-.078-.981,7.169,7.169,0,0,0,4.308,1.878.2.2,0,0,0,.162-.318,3.691,3.691,0,0,1-.617-.852,14.177,14.177,0,0,0,3.467,1.069.194.194,0,0,0,.2-.229,7.632,7.632,0,0,1-.225-1.015,3.881,3.881,0,0,0,2.761.617c.25-.041.711-.078.781-.392a.859.859,0,0,0-.128-.463c-.079-.188-.159-.377-.239-.563a4.438,4.438,0,0,0,2.409.233.2.2,0,0,0,.112-.315,3.932,3.932,0,0,1-.528-.682,2.118,2.118,0,0,0,1.753-.459,1.24,1.24,0,0,0,.108-1.627c.459-.1.914-.221,1.362-.367.323-.1.91-.19,1.117-.491C675.91,264.344,675.4,263.686,674.993,263.244Z" transform="translate(-636.45 -236.02)" fill="#fbad18"/><g transform="translate(17.863 5.787)"><path d="M663.492,263.248q3.382-9.177,7.029-18.254c.155-.386-.454-.6-.609-.215q-3.646,9.075-7.029,18.254a.323.323,0,0,0,.609.215Z" transform="translate(-662.862 -244.577)" fill="#c98121"/></g><g transform="translate(18.344 24.935)"><path d="M663.948,273.581a11.918,11.918,0,0,1,3.626.275,36.266,36.266,0,0,0,3.844.555,65.967,65.967,0,0,0,7.936,0c.41-.017.462-.661.046-.645a63.946,63.946,0,0,1-8.179-.015c-2.452-.214-4.922-1.095-7.394-.8-.413.049-.29.684.121.634Z" transform="translate(-663.572 -272.887)" fill="#c98121"/></g><g transform="translate(5.218 14.268)"><path d="M655.937,267.425a42.926,42.926,0,0,0-5.372-5.037,73.732,73.732,0,0,1-5.817-5.171c-.292-.293-.787.122-.493.417a70.459,70.459,0,0,0,5.557,4.974,44.655,44.655,0,0,1,5.632,5.236c.274.313.767-.1.493-.417Z" transform="translate(-644.165 -257.116)" fill="#c98121"/></g><g transform="translate(13.248 17.695)"><path d="M657.4,266.776a44.437,44.437,0,0,1-.976-4.441.194.194,0,0,0-.381.072,44.4,44.4,0,0,0,.976,4.441c.066.239.446.168.381-.072Z" transform="translate(-656.038 -262.183)" fill="#c98121"/></g><g transform="translate(11.475 15.226)"><path d="M654.674,264.036a3.278,3.278,0,0,1-.728-2.388c-.05-.972-.095-1.944-.142-2.916-.012-.246-.4-.277-.387-.027.056,1.129.093,2.26.167,3.388a3.107,3.107,0,0,0,.8,2.194c.18.168.477-.081.3-.25Z" transform="translate(-653.417 -258.532)" fill="#c98121"/></g><g transform="translate(8.9 15.788)"><path d="M650.872,261.961a3.529,3.529,0,0,1-.881-2.446c-.024-.248-.405-.174-.381.073a3.833,3.833,0,0,0,1.04,2.69c.187.165.407-.155.221-.318Z" transform="translate(-649.609 -259.363)" fill="#c98121"/></g><g transform="translate(6.688 14.285)"><path d="M647.429,258.929a7.968,7.968,0,0,1-.7-1.641c-.07-.237-.452-.166-.381.073a8.4,8.4,0,0,0,.732,1.735c.122.216.472.051.35-.166Z" transform="translate(-646.339 -257.141)" fill="#c98121"/></g><g transform="translate(4.875 17.029)"><path d="M648.7,262.343a8.9,8.9,0,0,0-4.843-1.133c-.246.013-.277.4-.028.387a8.546,8.546,0,0,1,4.65,1.064c.216.12.439-.2.221-.318Z" transform="translate(-643.658 -261.197)" fill="#c98121"/></g><g transform="translate(7.651 19.148)"><path d="M651.988,265.18a23.376,23.376,0,0,0-4.027-.847c-.247-.03-.275.356-.027.386a22.794,22.794,0,0,1,3.925.827c.238.072.369-.292.129-.365Z" transform="translate(-647.762 -264.331)" fill="#c98121"/></g><g transform="translate(9.842 21.323)"><path d="M654.823,267.9a26.741,26.741,0,0,0-3.62-.357c-.248-.007-.278.379-.028.387a26.729,26.729,0,0,1,3.62.356c.245.041.272-.346.028-.386Z" transform="translate(-651.002 -267.547)" fill="#c98121"/></g><g transform="translate(12.016 23.438)"><path d="M658.022,270.878a14.246,14.246,0,0,1-3.608-.2c-.245-.045-.271.342-.028.387a14.657,14.657,0,0,0,3.709.194c.247-.018.173-.4-.073-.381Z" transform="translate(-654.216 -270.674)" fill="#c98121"/></g><g transform="translate(16.707 17.91)"><path d="M663.125,267.527a28.226,28.226,0,0,1-1.587-4.876c-.056-.242-.436-.171-.381.073a28.887,28.887,0,0,0,1.618,4.97c.1.23.448.062.35-.167Z" transform="translate(-661.152 -262.501)" fill="#c98121"/></g><g transform="translate(16.968 12.425)"><path d="M664.243,262.751c-.511-2.828-.4-5.975-2.362-8.291a.194.194,0,0,0-.3.25c1.913,2.254,1.781,5.363,2.279,8.113a.194.194,0,0,0,.38-.072Z" transform="translate(-661.538 -254.391)" fill="#c98121"/></g><g transform="translate(19.476 11.402)"><path d="M666.9,258.39a35.63,35.63,0,0,1-1.266-5.36c-.039-.246-.419-.174-.381.072a35.683,35.683,0,0,0,1.266,5.36c.075.235.457.165.381-.072Z" transform="translate(-665.246 -252.878)" fill="#c98121"/></g><g transform="translate(20.933 8.238)"><path d="M668.984,252.854l-1.2-4.506c-.064-.239-.445-.169-.381.072l1.2,4.506c.064.24.445.169.381-.072Z" transform="translate(-667.4 -248.199)" fill="#c98121"/></g><g transform="translate(22.999 7.82)"><path d="M671.3,249.505a5.454,5.454,0,0,0-.475-1.815.194.194,0,0,0-.35.167,5.147,5.147,0,0,1,.444,1.721c.02.248.4.174.381-.073Z" transform="translate(-670.455 -247.582)" fill="#c98121"/></g><g transform="translate(23.109 9.482)"><path d="M670.971,251.991a5.188,5.188,0,0,1,1.669-1.575c.213-.126.048-.477-.167-.35a5.639,5.639,0,0,0-1.82,1.7.194.194,0,0,0,.318.222Z" transform="translate(-670.619 -250.039)" fill="#c98121"/></g><g transform="translate(21.677 11.918)"><path d="M668.768,255.816l3.134-1.8c.215-.124.049-.474-.167-.35l-3.134,1.8c-.215.124-.049.474.167.35Z" transform="translate(-668.501 -253.641)" fill="#c98121"/></g><g transform="translate(20.782 14.039)"><path d="M667.452,259.91q3.221-1.511,6.549-2.771c.234-.088.066-.437-.166-.349q-3.328,1.259-6.55,2.77a.194.194,0,0,0,.167.35Z" transform="translate(-667.177 -256.776)" fill="#c98121"/></g><g transform="translate(19.831 17.769)"><path d="M665.989,264.213l5.066-1.532c.236-.071.166-.452-.072-.38l-5.067,1.531c-.236.072-.166.452.073.381Z" transform="translate(-665.771 -262.292)" fill="#c98121"/></g><g transform="translate(20.939 23.18)"><path d="M667.632,272.813a8.479,8.479,0,0,0,3.986-2.172c.178-.172-.071-.469-.25-.3a8.094,8.094,0,0,1-3.809,2.087c-.242.057-.171.438.073.381Z" transform="translate(-667.41 -270.292)" fill="#c98121"/></g><g transform="translate(23.638 21.956)"><path d="M671.624,272.546a7.642,7.642,0,0,0,5.254-3.752c.121-.216-.2-.439-.318-.222a7.264,7.264,0,0,1-5.009,3.593.194.194,0,0,0,.072.381Z" transform="translate(-671.399 -268.483)" fill="#c98121"/></g><g transform="translate(27.504 24.139)"><path d="M677.392,273.865a9.475,9.475,0,0,0,3.259-1.8c.172-.178-.077-.475-.25-.3a9.243,9.243,0,0,1-3.176,1.75c-.23.1-.062.448.167.35Z" transform="translate(-677.116 -271.71)" fill="#c98121"/></g><g transform="translate(30.665 24.984)"><path d="M682.014,274.221a3.683,3.683,0,0,0,1.844-.916c.183-.168-.066-.465-.25-.3a3.313,3.313,0,0,1-1.667.831.194.194,0,0,0,.073.38Z" transform="translate(-681.789 -272.959)" fill="#c98121"/></g><g transform="translate(30.384 26.28)"><path d="M681.5,275.251a31.9,31.9,0,0,1,3.86,1.436c.227.1.355-.264.129-.365a31.893,31.893,0,0,0-3.86-1.436c-.238-.071-.369.294-.129.365Z" transform="translate(-681.374 -274.877)" fill="#c98121"/></g><g transform="translate(27.2 26.18)"><path d="M676.78,275.115a13.375,13.375,0,0,1,1.72,1.043c.532.382,1.65,1.029,1.39,1.85-.075.237.29.367.365.129.235-.74-.227-1.246-.766-1.7a13.462,13.462,0,0,0-2.58-1.687c-.222-.113-.349.254-.129.365Z" transform="translate(-676.666 -274.728)" fill="#c98121"/></g><g transform="translate(22.761 25.758)"><path d="M670.19,274.451a12.2,12.2,0,0,1,3.122,2.632.194.194,0,0,0,.3-.25,12.522,12.522,0,0,0-3.2-2.7c-.214-.126-.436.191-.222.318Z" transform="translate(-670.103 -274.104)" fill="#c98121"/></g><g transform="translate(20.378 25.344)"><path d="M666.657,273.851a15.369,15.369,0,0,1,2.087,1.935c.166.186.463-.064.3-.25a15.956,15.956,0,0,0-2.161-2c-.2-.152-.419.166-.221.318Z" transform="translate(-666.58 -273.493)" fill="#c98121"/></g></g></g></svg>