<svg xmlns="http://www.w3.org/2000/svg" width="316.529" height="370.72" viewBox="0 0 316.529 370.72">
  <g id="Group_33183" data-name="Group 33183" transform="translate(-645 -277.191)">
    <path id="Path_29505" data-name="Path 29505" d="M610.167,386.969s-10.059-1.887-14.46,1.257A57.022,57.022,0,0,1,590.048,392s-12.573-2.515-13.831,10.688,7.544,38.979,11.316,47.78,11.316,18.232,17.6,16.975,10.688-8.8,14.459-5.658,10.688,4.4,12.574,3.772a5.343,5.343,0,0,0,3.143-1.886c1.257-1.257,8.8-12.573,10.688-27.662s5.029-47.78-14.46-48.409S610.167,386.969,610.167,386.969Z" transform="translate(136.996 59.968)" fill="#f72604"/>
    <path id="Path_29506" data-name="Path 29506" d="M715.155,300.44s-4.4-3.772-11.945-.629-16.346,9.431-16.975,22,6.941,48.164,20.445,52.687,30.479-1.763,37.394-16.223,15.089-58.468-6.915-55.325C737.159,302.955,728.357,291.638,715.155,300.44Z" transform="translate(112.48 79.857)" fill="#f72604"/>
    <path id="Path_29507" data-name="Path 29507" d="M632.784,461.1s-4.4-71.671,0-93.046,25.148-22.633,30.177-18.861,11.945,25.776,42.75,22.633,33.32-8.8,33.32-8.8-22.632-22-35.835-22.633-33.32,5.658-36.464,5.658-13.831-.629-13.831-.629,16.346-11.945,28.291-8.8,28.92,4.4,39.608-.628,47.152-36.464,47.152-36.464-37.721-7.545-54.068-1.258-25.776,24.519-31.434,28.92S654.16,337.878,648.5,342.908s-17.6,16.346-17.6,16.346-5.029-81.1-1.257-88.016,25.148-22.633,38.35-25.148c0,0,2.515,11.316,2.515,18.86s.629,13.831-1.258,14.46-7.544,5.029-3.143,5.029,6.915,0,11.316-1.886,3.143-4.4.628-4.4-3.772,0-3.772-2.515.628-27.033-1.887-29.548c0,0,10.688-2.515,13.831.629s3.772,13.2,15.718,16.975,44.637.628,44.637.628-12.574-22-32.064-25.148-20.746,4.4-25.148,4.4-11.317-.629-11.317-.629,20.118-10.688,27.034-9.431,12.573,5.658,18.86,3.772,32.692-25.776,32.692-25.776-25.148-3.143-35.835,0-14.46,16.975-17.6,18.232-22,8.8-28.919,10.688l-6.916,1.886s-36.464,13.2-41.493,26.405c0,0,0-40.865,1.886-44.008s9.431-8.173,15.089-8.173,16.346,6.915,29.548,3.143,32.064-24.519,37.722-35.206l5.658-10.688s-22.633-1.258-40.865,5.658-30.177,22-32.063,29.548-15.089,11.316-15.089,11.316,6.287-12.573,9.431-14.46-1.258-4.4-1.258-4.4-1.886,2.515-1.886,4.4-8.173,12.574-8.173,12.574-3.772-10.059-3.144-13.831,1.887-6.916,0-6.287-6.287,3.772-6.287,3.772,1.887-.629,3.143,2.515,4.4,13.2,4.4,13.2S613.3,207.111,605.75,204.6s0-18.232-15.088-25.776S541,168.761,541,168.761s7.858,34.263,30.491,38.664,32.064,0,32.064,0,16.975,6.287,20.117,15.089v55.953l.629,33.949-8.8-25.776s3.144-15.089,4.4-25.148,3.144-30.806-11.316-38.35-44.637-11.945-45.266-15.718c0,0-1.257,49.038,18.232,64.755s30.8,15.717,30.8,15.717L624.3,319.332v7.544s-19.489-15.717-38.35-20.117-30.177-7.545-32.064-13.2-.628-30.806-65.383-25.776c0,0,9.431,25.148,32.692,30.806s27.034-.629,31.435,0,22.633,9.43,33.321,11.945a18.811,18.811,0,0,1-6.916,1.887c-3.143,0-12.573-9.431-30.805-3.144s-28.291,15.088-28.291,15.088,25.776,11.316,36.464,7.545,22.632-16.347,22.632-16.347,3.772-2.515,6.916-2.515,3.143,27.662,3.143,30.178-6.916,3.772-5.658,5.657,1.257.629,5.658,3.772,4.4,3.144,6.915,0,7.545-.629,7.545-5.029-6.287,3.772-8.8-3.772-3.144-30.806-3.144-30.806,25.777,6.287,30.806,22,2.515,111.278,2.515,116.308-4.4,12.573-.629,13.831S629.955,463.3,632.784,461.1Z" transform="translate(156.5 108.43)" fill="#428b27"/>
    <g id="Group_19362" data-name="Group 19362" transform="translate(723.272 325.407)">
      <path id="Path_29508" data-name="Path 29508" d="M609.939,251.1s-2.955-11.075,4.495-20.311c0,0,9.965,8.366,9.337,15.282a20.967,20.967,0,0,1,16.975-4.4s-.629,10.688-6.287,13.831c0,0,7.544,5.609,11.63,12.863,0,0-7.23,3.482-14.774,2.854,0,0,0,11.945-3.772,16.975,0,0-9.431-4.4-11.945-10.688,0,0-4.271,5.242-15.338,4.821,0,0-1.008-11.108,4.651-16.138,0,0-12.574-5.658-15.718-13.831C589.192,252.357,601.766,247.327,609.939,251.1Z" transform="translate(-589.192 -230.788)" fill="#f6f1ff"/>
      <circle id="Ellipse_1040" data-name="Ellipse 1040" cx="5.658" cy="5.658" r="5.658" transform="translate(24.205 24.398)" fill="#428b27"/>
      <circle id="Ellipse_1041" data-name="Ellipse 1041" cx="2.829" cy="2.829" r="2.829" transform="translate(27.034 27.227)" fill="#fcdf56"/>
      <circle id="Ellipse_1042" data-name="Ellipse 1042" cx="1.572" cy="1.572" r="1.572" transform="translate(27.034 18.425)"/>
      <circle id="Ellipse_1043" data-name="Ellipse 1043" cx="1.572" cy="1.572" r="1.572" transform="translate(37.093 24.083)"/>
      <circle id="Ellipse_1044" data-name="Ellipse 1044" cx="1.572" cy="1.572" r="1.572" transform="translate(35.207 34.142)"/>
      <circle id="Ellipse_1045" data-name="Ellipse 1045" cx="1.572" cy="1.572" r="1.572" transform="translate(22.633 36.657)"/>
      <circle id="Ellipse_1046" data-name="Ellipse 1046" cx="1.572" cy="1.572" r="1.572" transform="translate(18.232 28.484)"/>
      <g id="Group_19355" data-name="Group 19355" transform="translate(28.388 39.85)">
        <path id="Path_29509" data-name="Path 29509" d="M625.737,282.775c-.11,2.469.025,6.8,2.906,7.721a.635.635,0,0,0,.71-.923c-1.118-1.646-1.967-3.116-1.469-5.152.229-.937.291-1.759-.663-2.284-.71-.39-1.345.695-.635,1.086.483.265-.1,1.41-.151,1.764a4.791,4.791,0,0,0,.061,1.674,10.232,10.232,0,0,0,1.772,3.548l.71-.923c-2.143-.689-2.06-4.762-1.982-6.509.036-.808-1.222-.807-1.258,0Z" transform="translate(-625.712 -282.053)" fill="#ccc8d4"/>
      </g>
      <g id="Group_19356" data-name="Group 19356" transform="translate(40.059 35.58)">
        <path id="Path_29510" data-name="Path 29510" d="M642.8,277.8a23.325,23.325,0,0,0,8.792.344l-.167-1.234a38.889,38.889,0,0,1-4.37.94c-1.545.145-2.379-.844-3.729-.706-1.8.184-2.405,1.962-2.6,3.485h1.258c-.01-.241.313-2.428.278-2.419-.565.152-.633,1.1,0,1.213a5.7,5.7,0,0,0,2.481-.065c.787-.185.454-1.4-.334-1.213l-1.813.065v1.213c1.144-.307,2.819-2.26.82-2.793s-2.744,2.665-2.69,4a.629.629,0,0,0,1.258,0q-.03-1.905,2.334-1.946a3.472,3.472,0,0,0,.739.4,3.366,3.366,0,0,0,1.577.116,45.2,45.2,0,0,0,5.127-1.078c.682-.146.545-1.3-.167-1.234a22.415,22.415,0,0,1-8.458-.3.629.629,0,0,0-.334,1.213Z" transform="translate(-640.726 -276.559)" fill="#ccc8d4"/>
      </g>
      <g id="Group_19357" data-name="Group 19357" transform="translate(13.791 36.33)">
        <path id="Path_29511" data-name="Path 29511" d="M611.338,277.8c-3.039-1.4-3.994,2.989-4.392,5.053a.634.634,0,0,0,1.05.612,8.558,8.558,0,0,0,1.569-2.52,4.671,4.671,0,0,1,.819-1.279c.284-.283.631-.653.053-.914a1.445,1.445,0,0,0-.765.021c-.8.127-.459,1.338.334,1.213.695-.11,1.8.439,2.061-.659a1.134,1.134,0,0,0-1.51-1.24c-1.969.546-2.153,3.236-3.449,4.489l1.05.612c.2-1.035.843-5.088,2.545-4.3.73.337,1.37-.747.635-1.086Z" transform="translate(-606.934 -277.525)" fill="#ccc8d4"/>
      </g>
      <g id="Group_19358" data-name="Group 19358" transform="translate(19.334 14.146)">
        <path id="Path_29512" data-name="Path 29512" d="M618.471,256.526l-.568-6.933a.629.629,0,0,0-1.258,0c-.129,1.68,1.632,7.775-1.771,7.166-.569-.1-1.117.592-.612,1.051a2.143,2.143,0,0,0,2.913.178,3.21,3.21,0,0,0,.723-3.522.634.634,0,0,0-1.212,0c-.3.864-1.295,2.665-.014,3.248.861.392,1.443-.339,1.514-1.106.075-.805-1.183-.8-1.258,0a.79.79,0,0,0,.613-.781l.357-1.026h-1.212a1.8,1.8,0,0,1,.139.941q.262,1.318-1.674,1.18l-.611,1.051a3,3,0,0,0,3.385-1.823c.917-2.082-.188-4.408-.023-6.556h-1.258l.568,6.933c.065.8,1.323.808,1.257,0Z" transform="translate(-614.064 -248.987)" fill="#ccc8d4"/>
      </g>
      <g id="Group_19359" data-name="Group 19359" transform="translate(34.221 16.396)">
        <path id="Path_29513" data-name="Path 29513" d="M633.816,256.638a2.63,2.63,0,0,0,2.121-1.144q1.2-1.264,2.393-2.535l-.987-.762a9.881,9.881,0,0,0-1.063,2.554c-.1.394-.079.918-.378,1.212-.278.274-.341.082-.653.095l-.242-.088a.554.554,0,0,0,.344.295l.15-1.15a4.253,4.253,0,0,1-1.172.161l.461.606,0-.1-.183.445a12.119,12.119,0,0,1,1.546-1.349l1.716-1.467c.616-.526-.277-1.412-.889-.889l-2.207,1.887c-.438.375-1.262.815-1.236,1.473a.64.64,0,0,0,.462.606,5.736,5.736,0,0,0,1.841-.161c.546-.075.593-.913.15-1.149-.758-.4-1.925-.62-2.313.41-.33.875.517,1.466,1.242,1.682a1.749,1.749,0,0,0,2.22-.774,10.226,10.226,0,0,0,.432-1.691,8.762,8.762,0,0,1,.862-1.974.631.631,0,0,0-.987-.762l-1.741,1.844c-.463.491-1.134,1.548-1.884,1.467-.8-.086-.8,1.171,0,1.258Z" transform="translate(-633.216 -251.881)" fill="#ccc8d4"/>
      </g>
      <g id="Group_19360" data-name="Group 19360" transform="translate(21.644 21.129)">
        <path id="Path_29514" data-name="Path 29514" d="M618.288,258.059l-.944.653a.646.646,0,0,0-.225.861.635.635,0,0,0,.86.225l.943-.653a.645.645,0,0,0,.225-.861.634.634,0,0,0-.86-.225Z" transform="translate(-617.035 -257.97)" fill="#ccc8d4"/>
      </g>
      <g id="Group_19361" data-name="Group 19361" transform="translate(20.61 15.433)">
        <path id="Path_29515" data-name="Path 29515" d="M616.657,258.432a2.429,2.429,0,0,0,1.252-2.1,40.643,40.643,0,0,1,.641-4.907c.183-.787-1.029-1.123-1.213-.334a25.821,25.821,0,0,0-.508,2.861c-.108.926.128,2.915-.808,3.394-.721.369-.085,1.454.634,1.086Z" transform="translate(-615.705 -250.642)" fill="#ccc8d4"/>
      </g>
    </g>
    <g id="Group_19370" data-name="Group 19370" transform="translate(827.634 427.066)">
      <path id="Path_29516" data-name="Path 29516" d="M739.038,376.828s-2.221-8.321,3.377-15.261c0,0,7.488,6.286,7.015,11.483a15.757,15.757,0,0,1,12.755-3.307s-.473,8.031-4.724,10.392A36.346,36.346,0,0,1,766.2,389.8a24.418,24.418,0,0,1-11.1,2.144s0,8.975-2.835,12.754c0,0-7.085-3.307-8.975-8.031,0,0-3.21,3.939-11.525,3.623,0,0-.757-8.346,3.494-12.126,0,0-9.448-4.251-11.809-10.392C723.449,377.774,732.9,373.994,739.038,376.828Z" transform="translate(-723.449 -361.567)" fill="#f6f1ff"/>
      <circle id="Ellipse_1047" data-name="Ellipse 1047" cx="4.251" cy="4.251" r="4.251" transform="translate(18.187 18.332)" fill="#428b27"/>
      <circle id="Ellipse_1048" data-name="Ellipse 1048" cx="2.126" cy="2.126" r="2.126" transform="translate(20.312 20.458)" fill="#fcdf56"/>
      <circle id="Ellipse_1049" data-name="Ellipse 1049" cx="1.181" cy="1.181" r="1.181" transform="translate(20.312 13.844)"/>
      <circle id="Ellipse_1050" data-name="Ellipse 1050" cx="1.181" cy="1.181" r="1.181" transform="translate(27.871 18.096)"/>
      <circle id="Ellipse_1051" data-name="Ellipse 1051" cx="1.181" cy="1.181" r="1.181" transform="translate(26.453 25.654)"/>
      <circle id="Ellipse_1052" data-name="Ellipse 1052" cx="1.181" cy="1.181" r="1.181" transform="translate(17.006 27.544)"/>
      <circle id="Ellipse_1053" data-name="Ellipse 1053" cx="1.181" cy="1.181" r="1.181" transform="translate(13.699 21.403)"/>
      <g id="Group_19363" data-name="Group 19363" transform="translate(21.33 29.943)">
        <path id="Path_29517" data-name="Path 29517" d="M750.908,400.629c-.082,1.855.019,5.106,2.183,5.8a.477.477,0,0,0,.533-.694c-.84-1.237-1.479-2.342-1.1-3.871.172-.7.218-1.321-.5-1.716-.533-.293-1.01.522-.477.816.362.2-.074,1.059-.113,1.325a3.6,3.6,0,0,0,.046,1.258,7.7,7.7,0,0,0,1.332,2.665l.533-.694c-1.611-.518-1.548-3.578-1.49-4.89.027-.608-.917-.606-.944,0Z" transform="translate(-750.889 -400.087)" fill="#ccc8d4"/>
      </g>
      <g id="Group_19364" data-name="Group 19364" transform="translate(30.1 26.734)">
        <path id="Path_29518" data-name="Path 29518" d="M763.733,396.89a17.5,17.5,0,0,0,6.607.258l-.126-.927a29.218,29.218,0,0,1-3.284.706c-1.161.109-1.787-.634-2.8-.53-1.349.138-1.807,1.475-1.955,2.619h.944c-.007-.181.235-1.824.209-1.817-.424.113-.475.829,0,.911a4.278,4.278,0,0,0,1.865-.05c.592-.139.341-1.05-.251-.91l-1.363.049v.911c.86-.231,2.118-1.7.617-2.1s-2.062,2-2.021,3.005a.473.473,0,0,0,.944,0q-.022-1.432,1.754-1.462a2.6,2.6,0,0,0,.555.3,2.529,2.529,0,0,0,1.185.087,34.123,34.123,0,0,0,3.853-.81c.512-.11.41-.98-.125-.928a16.822,16.822,0,0,1-6.356-.225.473.473,0,0,0-.251.911Z" transform="translate(-762.17 -395.959)" fill="#ccc8d4"/>
      </g>
      <g id="Group_19365" data-name="Group 19365" transform="translate(10.362 27.298)">
        <path id="Path_29519" data-name="Path 29519" d="M740.089,396.889c-2.283-1.054-3,2.246-3.3,3.8a.477.477,0,0,0,.79.46,6.44,6.44,0,0,0,1.178-1.894,3.514,3.514,0,0,1,.616-.961c.214-.213.474-.491.04-.687a1.087,1.087,0,0,0-.575.016c-.6.095-.344,1.005.252.911.522-.083,1.354.33,1.549-.5a.852.852,0,0,0-1.135-.932c-1.479.41-1.618,2.432-2.592,3.373l.789.46c.15-.778.634-3.823,1.912-3.233.549.253,1.029-.561.477-.815Z" transform="translate(-736.779 -396.685)" fill="#ccc8d4"/>
      </g>
      <g id="Group_19366" data-name="Group 19366" transform="translate(14.527 10.629)">
        <path id="Path_29520" data-name="Path 29520" d="M745.448,380.906l-.427-5.21a.473.473,0,0,0-.944,0c-.1,1.262,1.226,5.842-1.332,5.385-.427-.077-.839.445-.459.79a1.611,1.611,0,0,0,2.188.134,2.412,2.412,0,0,0,.544-2.647.477.477,0,0,0-.911,0c-.226.649-.973,2-.011,2.44.648.295,1.084-.254,1.138-.831.056-.606-.889-.6-.945,0a.592.592,0,0,0,.459-.587l.269-.771h-.911a1.342,1.342,0,0,1,.1.707q.2.991-1.258.887l-.459.79a2.256,2.256,0,0,0,2.544-1.37c.69-1.565-.142-3.312-.017-4.927h-.944l.426,5.21c.05.6,1,.607.945,0Z" transform="translate(-742.137 -375.241)" fill="#ccc8d4"/>
      </g>
      <g id="Group_19367" data-name="Group 19367" transform="translate(25.713 12.32)">
        <path id="Path_29521" data-name="Path 29521" d="M756.978,380.991a1.977,1.977,0,0,0,1.594-.861q.9-.949,1.8-1.9l-.742-.572a7.439,7.439,0,0,0-.8,1.919c-.075.3-.059.69-.283.911-.208.205-.257.061-.491.071l-.182-.066a.419.419,0,0,0,.259.222l.113-.864a3.213,3.213,0,0,1-.881.12l.347.456,0-.074-.138.334a9.179,9.179,0,0,1,1.162-1.014l1.29-1.1c.462-.4-.208-1.061-.669-.668l-1.658,1.417c-.33.282-.948.613-.929,1.107a.481.481,0,0,0,.347.456,4.288,4.288,0,0,0,1.384-.12c.41-.057.445-.686.113-.864-.57-.3-1.447-.466-1.739.308-.247.657.389,1.1.934,1.264a1.314,1.314,0,0,0,1.668-.581,7.648,7.648,0,0,0,.325-1.271,6.593,6.593,0,0,1,.648-1.483.474.474,0,0,0-.742-.572l-1.308,1.385c-.348.368-.852,1.163-1.416,1.1-.6-.065-.6.88,0,.945Z" transform="translate(-756.527 -377.416)" fill="#ccc8d4"/>
      </g>
      <g id="Group_19368" data-name="Group 19368" transform="translate(16.284 15.86)">
        <path id="Path_29522" data-name="Path 29522" d="M745.317,382.054l-.708.491c-.5.344-.025,1.163.476.815l.709-.491c.5-.344.024-1.163-.477-.815Z" transform="translate(-744.398 -381.97)" fill="#ccc8d4"/>
      </g>
      <g id="Group_19369" data-name="Group 19369" transform="translate(15.485 11.596)">
        <path id="Path_29523" data-name="Path 29523" d="M744.085,382.339a1.827,1.827,0,0,0,.941-1.578,30.573,30.573,0,0,1,.482-3.687c.138-.592-.773-.844-.911-.251a19.338,19.338,0,0,0-.382,2.149c-.082.7.1,2.19-.607,2.55-.541.277-.064,1.093.477.816Z" transform="translate(-743.37 -376.485)" fill="#ccc8d4"/>
      </g>
    </g>
    <g id="Group_19393" data-name="Group 19393" transform="translate(720.713 567.27)">
      <g id="Group_19371" data-name="Group 19371" transform="translate(58.386)">
        <path id="Path_29524" data-name="Path 29524" d="M662.291,546.772c-.983,6.163,7.428,6.884,9.01,1.341a4.488,4.488,0,0,0-2.821-5.617,4.352,4.352,0,0,0-3.813.927c-.336.264-2.058,2.968-1.66,2.89l2.141.566c1.175.91.554-.637,1.928-.5l-1.556-.644a1.139,1.139,0,0,1,.167,1.285l4.322-.585-.927.173-1.537-1.537c.619,1.471-1.559,5.148-1.911,6.744a26.743,26.743,0,0,0-.579,6.559h4.4a10.419,10.419,0,0,0-1.711-5.12c-.959-1.585-2.749-3.472-1.737-5.436.761-1.475,2.174-2.1,1.875.023a14.62,14.62,0,0,1-.846,2.611,16.03,16.03,0,0,0-1.231,6.7c.234,2.8,4.638,2.826,4.4,0-.32-3.827,2.512-7.057,2.17-10.866a4.578,4.578,0,0,0-6.16-4.037,7.289,7.289,0,0,0-4.9,7.192c.189,3.417,3.6,5.663,3.739,8.928.119,2.818,4.485,2.842,4.4,0a22.385,22.385,0,0,1,1.444-8.715c.7-1.852,2.016-4.393.667-6.284a3.22,3.22,0,0,0-4.252-.808c-1.835,1.129-1.828,3.166-1.55,5.037.4,2.669,4.056,1.641,4.322-.585.282-2.362-.694-4.994-3.43-5.082-2.411-.078-4.522,2.187-5.369,4.3-.739,1.849-.005,4.284,2.3,4.4a3.012,3.012,0,0,0,2.577-1.388,5.118,5.118,0,0,0,.634-1.293c.362-1.045-.012-1.614-.268-.014.442-2.77-3.8-3.963-4.243-1.17Z" transform="translate(-661.011 -541.931)" fill="#755b46"/>
      </g>
      <g id="Group_19372" data-name="Group 19372" transform="translate(64.5 8.68)">
        <path id="Path_29525" data-name="Path 29525" d="M668.958,554.294c-.583,4.694,2.033,8.747,5.268,11.916,1.853,1.815,3.924,3.4,5.731,5.259,2.082,2.147,3,4.688,4.64,7.092a7.625,7.625,0,0,0,4.315,3.045c3.239,1.035,4.476,2.5,6.471,5.128,3.056,4.021,10.6,5.881,11.253,11.348.19,1.587,2.707,1.606,2.515,0-.532-4.448-3.855-6.771-7.365-9.051a23.892,23.892,0,0,1-5.992-5.995,9.254,9.254,0,0,0-4.459-3.336c-1.64-.567-3.168-.843-4.378-2.208a16.987,16.987,0,0,1-1.89-3.358,21.992,21.992,0,0,0-4.372-5.456c-4.167-3.943-10.032-7.865-9.223-14.384.2-1.6-2.318-1.587-2.515,0Z" transform="translate(-668.876 -553.097)" fill="#755b46"/>
      </g>
      <g id="Group_19373" data-name="Group 19373" transform="translate(61.913 11.496)">
        <path id="Path_29526" data-name="Path 29526" d="M668.273,557.926c-1.626,17.947-2.59,35.945-2.725,53.967a1.259,1.259,0,0,0,2.516,0c.134-18.022,1.1-36.019,2.724-53.967.146-1.611-2.37-1.6-2.515,0Z" transform="translate(-665.548 -556.721)" fill="#755b46"/>
      </g>
      <g id="Group_19374" data-name="Group 19374" transform="translate(38.764 13.137)">
        <path id="Path_29527" data-name="Path 29527" d="M659.651,560.4a12.838,12.838,0,0,1-3.21,11.61c-2.208,2.415-4.328,4.307-5.458,7.472a27.277,27.277,0,0,1-2.253,5.616,34.379,34.379,0,0,1-3.8,4.58q-4.409,4.887-8.822,9.77c-1.083,1.2.69,2.982,1.778,1.778,3.322-3.678,6.666-7.337,9.965-11.036,2.84-3.185,4.082-6.114,5.559-10.039,1.545-4.1,5.6-6.279,7.527-10.164a15.561,15.561,0,0,0,1.142-10.255c-.333-1.582-2.759-.913-2.425.669Z" transform="translate(-635.768 -558.832)" fill="#755b46"/>
      </g>
      <g id="Group_19375" data-name="Group 19375" transform="translate(25.484 6.865)">
        <path id="Path_29528" data-name="Path 29528" d="M652.724,551.352c-2.322,3.692-4.476,8.394-7.818,11.285-2.906,2.515-6.784,3.339-9.617,6.055-1.368,1.312-2.53,2.827-3.916,4.121a19.563,19.563,0,0,1-5.722,3.454c-3.049,1.371-5.535,2.847-6.865,6.023-.624,1.491,1.809,2.142,2.425.668,1.7-4.074,7.183-4.613,10.393-7.036,2.992-2.257,4.945-5.6,8.188-7.562,2.924-1.769,5.916-2.648,8.23-5.317,2.7-3.114,4.687-6.947,6.872-10.422.864-1.374-1.311-2.637-2.171-1.269Z" transform="translate(-618.684 -550.763)" fill="#755b46"/>
      </g>
      <g id="Group_19376" data-name="Group 19376" transform="translate(67.054 3.507)">
        <path id="Path_29529" data-name="Path 29529" d="M672.3,548.358c1.576,3.314,4.844,3.323,8,4.125,4.662,1.182,8.394,4.711,12.081,7.6,5.545,4.348,12.523,12.327,20.334,10.518,1.576-.365.909-2.791-.669-2.425-4.7,1.088-8.454-2.475-11.864-5.148q-4.4-3.451-8.8-6.9a39.3,39.3,0,0,0-7.328-4.964c-2.882-1.351-8.094-.941-9.583-4.073-.694-1.461-2.863-.186-2.171,1.269Z" transform="translate(-672.161 -546.443)" fill="#755b46"/>
      </g>
      <g id="Group_19377" data-name="Group 19377" transform="translate(87.176 15.533)">
        <path id="Path_29530" data-name="Path 29530" d="M698.459,562.24c-.917,1.985-.2,3.58,1.166,5.181,2.96,3.464,4.739,6.7,4.352,11.419-.066.806,1.192.8,1.258,0a14.843,14.843,0,0,0-1.161-7.359c-1.019-2.3-5.679-6.115-4.528-8.607.337-.73-.747-1.369-1.086-.634Z" transform="translate(-698.048 -561.914)" fill="#755b46"/>
      </g>
      <g id="Group_19378" data-name="Group 19378" transform="translate(103.586 25.348)">
        <path id="Path_29531" data-name="Path 29531" d="M719.174,575.327c.608,2.819,3.224,2.547,5.522,2.535,5.006-.026,7.489,4.1,11.327,6.6.68.443,1.311-.645.634-1.085-2.532-1.647-4.429-4.135-7.055-5.643a8.808,8.808,0,0,0-2.641-1.042c-1.674-.329-6.025.858-6.576-1.695-.17-.791-1.382-.456-1.212.334Z" transform="translate(-719.158 -574.541)" fill="#755b46"/>
      </g>
      <g id="Group_19379" data-name="Group 19379" transform="translate(86.743 35.691)">
        <path id="Path_29532" data-name="Path 29532" d="M698.261,589.458c4.547-1.449,7.985,1.94,11.794,3.744a23.06,23.06,0,0,0,7.827,1.773,48.211,48.211,0,0,1,21.086,6.749c.692.424,1.324-.664.634-1.086a47.927,47.927,0,0,0-20.684-6.825,31.289,31.289,0,0,1-6.467-1.009,30.252,30.252,0,0,1-5.773-2.976c-2.763-1.576-5.617-2.581-8.751-1.582-.768.244-.44,1.459.334,1.212Z" transform="translate(-697.49 -587.846)" fill="#755b46"/>
      </g>
      <g id="Group_19380" data-name="Group 19380" transform="translate(104.098 40.965)">
        <path id="Path_29533" data-name="Path 29533" d="M720.42,595.925a10.592,10.592,0,0,1,8.918,3.714c1.482,1.554,2.8,2.925,4.974,3.373.79.162,1.127-1.049.334-1.213-3.2-.658-4.65-3.933-7.291-5.56a11.415,11.415,0,0,0-6.935-1.571c-.8.059-.809,1.317,0,1.257Z" transform="translate(-719.816 -594.63)" fill="#755b46"/>
      </g>
      <g id="Group_19381" data-name="Group 19381" transform="translate(103.708 51.351)">
        <path id="Path_29534" data-name="Path 29534" d="M719.326,608.6c-.136,1.921.975,2.93,2.6,3.782,2,1.048,3.24,2,3.716,4.338.255,1.252.258,2.55.507,3.806a9.631,9.631,0,0,0,3.545,5.511c2.641,2.327,5.359,4.572,8.037,6.856.613.522,1.506-.363.889-.889q-3.411-2.907-6.82-5.815c-2.767-2.366-4.248-4.3-4.7-7.955-.213-1.7-.354-3.509-1.452-4.914-1.315-1.682-5.252-2-5.06-4.72.057-.808-1.2-.8-1.257,0Z" transform="translate(-719.315 -607.992)" fill="#755b46"/>
      </g>
      <g id="Group_19382" data-name="Group 19382" transform="translate(73.983 32.585)">
        <path id="Path_29535" data-name="Path 29535" d="M687.24,584.636a11.468,11.468,0,0,1-.026,6.6c-.717,1.932-2.2,3.3-3.491,4.864a9.791,9.791,0,0,0-2.647,6.062c-.029.809,1.228.808,1.258,0,.162-4.432,4.535-6.53,6.069-10.354.972-2.424.592-5.036.051-7.511-.173-.79-1.385-.456-1.213.334Z" transform="translate(-681.075 -583.851)" fill="#755b46"/>
      </g>
      <g id="Group_19383" data-name="Group 19383" transform="translate(64.101 47.223)">
        <path id="Path_29536" data-name="Path 29536" d="M668.42,603.646c2.425,5.658,8.991,6.537,11.981,11.8,2.419,4.26,3.533,9.218,7.484,12.43.623.506,1.518-.378.889-.889-4.088-3.323-5.031-8.587-7.7-12.884-3-4.817-9.3-5.814-11.564-11.093-.318-.742-1.4-.1-1.086.634Z" transform="translate(-668.363 -602.682)" fill="#755b46"/>
      </g>
      <g id="Group_19384" data-name="Group 19384" transform="translate(43.513 54.604)">
        <path id="Path_29537" data-name="Path 29537" d="M660.893,612.506a28.244,28.244,0,0,1-10.434,12.518c-3.648,2.388-7.739,4.46-8.57,9.145-.14.791,1.072,1.131,1.213.334,1-5.624,7.378-7.486,11.243-10.831a29.243,29.243,0,0,0,7.634-10.532c.32-.735-.763-1.375-1.085-.634Z" transform="translate(-641.878 -612.177)" fill="#755b46"/>
      </g>
      <g id="Group_19385" data-name="Group 19385" transform="translate(61.977 62.185)">
        <path id="Path_29538" data-name="Path 29538" d="M665.646,622.715c1.2,5.643,2.309,11.266,2.046,17.065-.037.809,1.22.807,1.258,0,.267-5.912-.864-11.646-2.091-17.4-.169-.791-1.381-.456-1.213.334Z" transform="translate(-665.63 -621.929)" fill="#755b46"/>
      </g>
      <g id="Group_19386" data-name="Group 19386" transform="translate(25.474 51.807)">
        <path id="Path_29539" data-name="Path 29539" d="M635.294,608.767l-6.661,6.791c-2.594,2.645-5.25,6.359-9.358,6.079-.808-.054-.8,1.2,0,1.258,3.321.226,5.521-1.669,7.749-3.9,3.08-3.085,6.106-6.226,9.158-9.338.567-.578-.321-1.468-.888-.888Z" transform="translate(-618.671 -608.579)" fill="#755b46"/>
      </g>
      <g id="Group_19387" data-name="Group 19387" transform="translate(40.81 47.302)">
        <path id="Path_29540" data-name="Path 29540" d="M643.619,603.065a11.829,11.829,0,0,0-2.022,4.851c-.406,2.5.618,6.8-2.747,7.553-.789.177-.455,1.39.334,1.213a4.371,4.371,0,0,0,3.252-3.416,20.078,20.078,0,0,0,.263-3.653A11.329,11.329,0,0,1,644.7,603.7c.458-.67-.631-1.3-1.086-.635Z" transform="translate(-638.4 -602.783)" fill="#755b46"/>
      </g>
      <g id="Group_19388" data-name="Group 19388" transform="translate(52.335 38.132)">
        <path id="Path_29541" data-name="Path 29541" d="M653.347,591.585a16.373,16.373,0,0,0,.663,7c.244.769,1.458.44,1.213-.334a15.539,15.539,0,0,1-.619-6.663c.1-.8-1.161-.794-1.257,0Z" transform="translate(-653.226 -590.986)" fill="#755b46"/>
      </g>
      <g id="Group_19389" data-name="Group 19389" transform="translate(43.462 20.107)">
        <path id="Path_29542" data-name="Path 29542" d="M649.255,567.888c-1.856,1.078-2.549,2.833-2.733,4.924-.176,2,.014,3.889-.813,5.773a17.9,17.9,0,0,1-3.72,4.938c-.557.586.33,1.477.889.889a18.146,18.146,0,0,0,4.217-5.823c1.146-3.041-.465-7.723,2.8-9.616a.629.629,0,0,0-.635-1.085Z" transform="translate(-641.811 -567.798)" fill="#755b46"/>
      </g>
      <g id="Group_19390" data-name="Group 19390" transform="translate(0 38.367)">
        <path id="Path_29543" data-name="Path 29543" d="M611.737,591.613c-2,4.286-4.04,7.568-8.754,9.1a17.669,17.669,0,0,0-8.335,5.768c-4.949,5.591-9.884,11.91-8.516,19.822.138.8,1.35.459,1.213-.334-.843-4.869,1.008-9.337,3.8-13.247,2.288-3.207,5.338-7.376,8.768-9.444,2.5-1.5,5.5-1.576,7.825-3.44,2.42-1.939,3.807-4.849,5.089-7.593.341-.728-.743-1.368-1.086-.634Z" transform="translate(-585.9 -591.288)" fill="#755b46"/>
      </g>
      <g id="Group_19391" data-name="Group 19391" transform="translate(23.603 36.844)">
        <path id="Path_29544" data-name="Path 29544" d="M619.428,589.931c.313,3.581.316,6.837-1.042,10.223a29.784,29.784,0,0,0-2.118,8.485c-.075.805,1.183.8,1.258,0,.333-3.577,1.636-6.479,2.711-9.835.926-2.888.709-5.9.448-8.873-.07-.8-1.328-.807-1.257,0Z" transform="translate(-616.264 -589.329)" fill="#755b46"/>
      </g>
      <g id="Group_19392" data-name="Group 19392" transform="translate(23.419 4.921)">
        <path id="Path_29545" data-name="Path 29545" d="M652.679,548.588c-1.541,3.357-6.1,5.154-9.113,6.987a39.552,39.552,0,0,1-4.983,2.814,24.11,24.11,0,0,1-5.838,1.24,16.183,16.183,0,0,0-7.6,3.216c-2.9,2.3-4.713,5.858-8.658,6.494-.8.128-.459,1.34.334,1.213,3.457-.557,5.224-3.03,7.585-5.345,3.618-3.548,7.394-3.905,12.095-4.836,3.794-.751,7.063-3.319,10.3-5.292,2.6-1.581,5.634-2.959,6.964-5.856.335-.731-.749-1.37-1.086-.634Z" transform="translate(-616.028 -548.262)" fill="#755b46"/>
      </g>
    </g>
    <g id="Group_19394" data-name="Group 19394" transform="translate(731.602 512.898)">
      <path id="Path_29546" data-name="Path 29546" d="M600.129,475.684c3.182,7.8,13.39,9.144,17.894,1.66,1.022-1.7-.261-4.488-2.442-4.257-2.011.213-4.024.364-6.046.411-1.192.028-3.167.421-4.029-.582-2.376-2.767-6.363,1.251-4,4,3.127,3.639,9.951,2.264,14.076,1.828l-2.443-4.257c-1.755,2.917-6.149,3.133-7.553-.308-1.358-3.327-6.834-1.871-5.456,1.5Z" transform="translate(-599.909 -471.984)" fill="#d70017"/>
    </g>
    <g id="Group_19395" data-name="Group 19395" transform="translate(761.814 510.859)">
      <path id="Path_29547" data-name="Path 29547" d="M638.841,475.134a4.417,4.417,0,0,0,1.592,4.42,4.806,4.806,0,0,0,4.429.822,6.3,6.3,0,0,0,3.411-2.931c.7-1.21.952-2.614,1.668-3.81a2.882,2.882,0,0,0-.442-3.429,2.833,2.833,0,0,0-3.429-.442,14.057,14.057,0,0,1-4.575,2.376c-2.249.666-2.882,3.992-.676,5.171a6.016,6.016,0,0,0,7.965-2.048l-5.272-1.428a1.5,1.5,0,0,1,.135-.272c0,.206-.436.228-.072.106a2.9,2.9,0,0,0-1.976,3.48,2.857,2.857,0,0,0,3.48,1.976,5.814,5.814,0,0,0,4.091-5.29,2.848,2.848,0,0,0-2.077-2.728,2.921,2.921,0,0,0-3.195,1.3c.187-.282-.218.072-.065.042.4-.079-.1-.018-.086-.012.218.095.131-.045-.117,0,.349-.058-.215-.147.044-.009L643,477.6a18.324,18.324,0,0,0,5.926-2.946l-3.87-3.87c-.661,1.1-.957,2.369-1.5,3.5-.068.14-.484.885-.577.809-.139-.116.547-.129.7-.095.623.142.665,1.334.623,1.645a2.928,2.928,0,0,0-1.976-3.48c-1.318-.362-3.274.452-3.48,1.976Z" transform="translate(-638.775 -469.362)" fill="#d70017"/>
    </g>
    <g id="Group_19396" data-name="Group 19396" transform="translate(806.491 425.046)">
      <path id="Path_29548" data-name="Path 29548" d="M696.527,363.295l3.117,6.918c.731,1.622,1.286,3.728,2.589,4.989,3.153,3.049,7.588-.882,10.26-2.731a2.872,2.872,0,0,0-.676-5.171c-2.164-.822-4.086-.026-5.932-1.737-1.695-1.571-2.9-3.564-4.669-5.071-2.742-2.335-6.564,1.342-4,4a29.681,29.681,0,0,0,11.05,7.186c3.41,1.289,4.883-4.179,1.5-5.456a23.234,23.234,0,0,1-8.553-5.73l-4,4c2.136,1.818,3.558,4.3,5.785,6.02a9.5,9.5,0,0,0,3.177,1.683c1.353.387,2.847.072,4.135.561l-.675-5.171c-1.111.768-2.234,1.517-3.383,2.227q-.517.321-1.04.629-1.231.538,1.13.885a9.26,9.26,0,0,0-.839-1.807l-4.092-9.079c-1.494-3.315-6.372-.441-4.886,2.856Z" transform="translate(-696.249 -358.968)" fill="#d70017"/>
    </g>
    <g id="Group_19397" data-name="Group 19397" transform="translate(729.328 452.895)">
      <path id="Path_29549" data-name="Path 29549" d="M597.484,397.223l3.5,2c.471.27,1.292.968,1.914.8.5-.13.631-.651.839-1.043a9.027,9.027,0,0,1,2.6-3.018.632.632,0,0,0-.484-1.15,34.6,34.6,0,0,1-8.234,1.021c-.581,0-.913.906-.318,1.171a8.677,8.677,0,0,0,4.754.752l-.606-.8-.225.567c-.218.55.484.936.924.71a9.365,9.365,0,0,0,1.658-1.1l-.987-.762-.865,1.636c-.377.714.686,1.342,1.086.635a5.809,5.809,0,0,1,1.018-1.33l-.889-.889-.785.93c-.519.615.366,1.509.889.889l.785-.93c.515-.61-.3-1.465-.889-.889a6.917,6.917,0,0,0-1.215,1.584l1.086.635.864-1.636a.632.632,0,0,0-.987-.762,7.6,7.6,0,0,1-1.4.9l.923.71.224-.567a.63.63,0,0,0-.606-.8,7.517,7.517,0,0,1-4.119-.579l-.317,1.171a36.06,36.06,0,0,0,8.569-1.066l-.484-1.149a10.242,10.242,0,0,0-2.915,3.232,4.333,4.333,0,0,0-.248.482q-.094.458-.225.061a13.707,13.707,0,0,1-1.275-.851l-2.918-1.667a.629.629,0,0,0-.634,1.086Z" transform="translate(-596.983 -394.794)" fill="#d70017"/>
    </g>
    <g id="Group_19398" data-name="Group 19398" transform="translate(735.808 461.122)">
      <path id="Path_29550" data-name="Path 29550" d="M608.226,405.6l-2.758,3.494c-.29.368-.162,1.143.445,1.074,2.934-.337,6.667-.661,8.227,2.468l1.086-.634a18.722,18.722,0,0,0-5.155-5.65c-.576-.412-1.088-.846-1.779-.48-.911.483-1.664,2.228-2.246,3.053-.323.459.211,1.069.71.923a16.906,16.906,0,0,1,3.5-.637c.567-.042.924-.877.317-1.171l-1.739-.846a.647.647,0,0,0-.762.1l-.86.919c-.553.591.335,1.482.889.889l.86-.92-.762.1,1.738.845.318-1.171a18.46,18.46,0,0,0-3.832.682l.71.923c.357-.505.964-1.847,1.5-2.124.846-.438,1.8.758,2.371,1.286a17.712,17.712,0,0,1,3.137,3.914.629.629,0,0,0,1.086-.634c-1.765-3.539-5.91-3.482-9.313-3.091l.445,1.073,2.758-3.495c.5-.628-.388-1.524-.889-.888Z" transform="translate(-605.319 -405.378)" fill="#d70017"/>
    </g>
    <g id="Group_19399" data-name="Group 19399" transform="translate(740.16 463.13)">
      <path id="Path_29551" data-name="Path 29551" d="M611.859,409.246c.136-.078.078.023.064-.13-.006.11,0,.1.026-.019a.309.309,0,0,1,.192-.083.219.219,0,0,1,.15.219.644.644,0,0,0-.629-.629.634.634,0,0,0-.629.629,1.077,1.077,0,0,0,2.095.279,1.2,1.2,0,0,0-.471-1.344,1.365,1.365,0,0,0-1.432-.008.629.629,0,0,0,.634,1.086Z" transform="translate(-610.918 -407.961)" fill="#d70017"/>
    </g>
    <g id="Group_19400" data-name="Group 19400" transform="translate(756.286 458.167)">
      <path id="Path_29552" data-name="Path 29552" d="M641.617,402.479a9.035,9.035,0,0,0-9.8,3.16c-.483.62.3,1.476.889.889,1.673-1.659,3.912-1.875,6.163-1.879.894,0,2.5.329,3.016-.714,1.379-2.781-5.384-.924-5.939-.813l.71.923a2.438,2.438,0,0,1,.873-1.017c.587-.481-.16-1.273-.762-.988a12.641,12.641,0,0,0-2.6,1.662l.987.762a3.53,3.53,0,0,1,4.391-1.347c.757.288,1.084-.927.334-1.213a4.81,4.81,0,0,0-5.811,1.925c-.422.637.471,1.183.987.762a11.239,11.239,0,0,1,2.345-1.464l-.762-.987a4.276,4.276,0,0,0-1.07,1.272.637.637,0,0,0,.71.923c.665-.134,3.79-.285,4.019-.924-.024.067-3.42.053-3.653.079a7.832,7.832,0,0,0-4.83,2.149l.889.889a7.827,7.827,0,0,1,8.579-2.836.629.629,0,0,0,.334-1.213Z" transform="translate(-631.663 -401.576)" fill="#d70017"/>
    </g>
    <g id="Group_19401" data-name="Group 19401" transform="translate(753.356 450.123)">
      <path id="Path_29553" data-name="Path 29553" d="M628.036,392.071c-.573,1.274.7,1.724,1.751,1.808,1.815.145,2.908-1.118,4.6-1.357.728-.1.508-1.206-.167-1.235q-2.585-.11-5.168-.016a.635.635,0,0,0-.543.946l.62,1.011,1.086-.634a1.023,1.023,0,0,0-.927-.565l-.256.022q-.1,1.007.681.787a5.154,5.154,0,0,0,1.3-.019l-.318-1.171a3.491,3.491,0,0,0-.885.5c-.2.166-.383.574-.541.423l-.762.987c.753.448,1,1.552,2.093,1.341.895-.173,1.524-1.45,2.016-2.1s-.6-1.272-1.086-.634c-.253.334-.505.672-.761,1-.272.356-.3.492-.673.239s-.538-.691-.954-.938a.632.632,0,0,0-.762.988,1.33,1.33,0,0,0,1.462.471,1.375,1.375,0,0,0,.5-.438,2.66,2.66,0,0,1,.993-.757c.589-.259.268-1.181-.317-1.171-.75.011-2.69-.389-3,.6a.86.86,0,0,0,.19.84,1.738,1.738,0,0,0,.929.224c.456.655,1.516.065,1.086-.634l-.621-1.011-.543.946q2.585-.093,5.168.017l-.167-1.235A6.4,6.4,0,0,0,632,392.1a4.969,4.969,0,0,1-1.117.477c-.292.068-1.646-.135-1.763.125.33-.732-.754-1.373-1.085-.635Z" transform="translate(-627.894 -391.228)" fill="#d70017"/>
    </g>
    <g id="Group_19402" data-name="Group 19402" transform="translate(838.619 383.762)">
      <path id="Path_29554" data-name="Path 29554" d="M738.546,308.3a4.535,4.535,0,0,1-.865,3.842.633.633,0,0,0,.543.946l5.9-.04a.635.635,0,0,0,.543-.946,3.55,3.55,0,0,1,1.566-5.059c.627-.319.191-1.389-.484-1.149a26.344,26.344,0,0,1-6.708,1.713l.167,1.234c1.577-.3.683-.088.5.76a.637.637,0,0,0,.924.71l1.117-.71-.762-.987-2.237,2.043a.637.637,0,0,0,.127.988c1.168.816,4.152,1.487,4.539-.6a1.348,1.348,0,0,0-.771-1.494c-1-.379-1.635.621-2.313,1.147l1.074.445-.012-1.025a.638.638,0,0,0-.462-.606c.432.092-.311,2.03,1.067,1.938a.961.961,0,0,0,.744-.51c.519-.881-.154-1.633.8-2.555.364-.351.113-1.134-.445-1.074a4.925,4.925,0,0,0-1.624.445c-.735.336-.1,1.42.634,1.086l.99-.274-.445-1.073a3.273,3.273,0,0,0-.847,1.2,10.937,10.937,0,0,0-.21,1.6h.634a4.94,4.94,0,0,0-.075-1.119,1.326,1.326,0,0,0-.421-.579,1.389,1.389,0,0,0-1.552-.218,1.245,1.245,0,0,0,.413,2.351l-.462-.606.013,1.025a.638.638,0,0,0,1.073.445,1.984,1.984,0,0,0,.543-.477q.354-.387-.061.04l-1,0a2.788,2.788,0,0,1-1.188-.588l.128.987,2.237-2.044a.631.631,0,0,0-.762-.987l-1.117.71.923.71c.151-.682,1.443-.956.792-1.909-.544-.8-2.059-.546-2.834-.4a.632.632,0,0,0,.167,1.235,27.514,27.514,0,0,0,7.042-1.758l-.484-1.15a4.788,4.788,0,0,0-2.018,6.78l.543-.946-5.9.04.543.946a5.775,5.775,0,0,0,.992-4.81c-.171-.791-1.384-.456-1.213.334Z" transform="translate(-737.581 -305.858)" fill="#d70017"/>
    </g>
    <g id="Group_19403" data-name="Group 19403" transform="translate(819.762 382.022)">
      <path id="Path_29555" data-name="Path 29555" d="M716.672,304.334a7.3,7.3,0,0,1-3.06,3.678c-.5.3-.335,1.231.317,1.172a10.7,10.7,0,0,0,2.849-.669,7.11,7.11,0,0,0,2.378-1.136,1.261,1.261,0,0,0,.2-1.633c-.309-.583-.793-1.5-1.454-1.726a.63.63,0,0,0-.612.162,6.511,6.511,0,0,0-1.028,1.647,4.6,4.6,0,0,0-.716,1.378c-.112.8.672,1.15,1.349,1,2.194-.487,1.9-3.162.634-4.4-.579-.567-1.469.322-.889.889a2.06,2.06,0,0,1,.647,1.018,1.107,1.107,0,0,1-.15.889q-.55.184-.266.44c.194.216.45-.529.574-.749a5.053,5.053,0,0,1,.734-1.22l-.612.162a10.964,10.964,0,0,1,.624,1.02c.035.505-.825.676-1.175.822a10.547,10.547,0,0,1-3.086.853l.318,1.171a8.716,8.716,0,0,0,3.637-4.429c.286-.758-.929-1.086-1.213-.334Z" transform="translate(-713.322 -303.62)" fill="#d70017"/>
    </g>
    <g id="Group_19404" data-name="Group 19404" transform="translate(817.488 394.228)">
      <path id="Path_29556" data-name="Path 29556" d="M710.506,321.011a5.674,5.674,0,0,1,1.035,2.885c.042.561.885.931,1.171.317,1-2.131,3.227-2.787,5.333-3.362a.631.631,0,0,0-.167-1.234l-4.257-.17c-.734-.03-2.027-.363-2.594.3-1.286,1.495,1.87,1.634,2.534,1.586l-.445-1.073a4.241,4.241,0,0,0-1.01,1.9l1.051-.277c-.205-.253-.439-.5-.623-.769-.256-.373-.437-.31-.048-.459.579-.222,1.682.253,2.221.469l-.15-1.149a2.906,2.906,0,0,1-1.056.3c-.738.12-.5,1.189.167,1.235l.8.056v-1.258h-.8a.629.629,0,0,0,0,1.257h.8a.629.629,0,0,0,0-1.258l-.8-.056.167,1.235a5.094,5.094,0,0,0,1.356-.43c.55-.251.292-.972-.15-1.149-1.015-.409-3.129-1.023-4.05-.125-.972.947.744,2.327,1.277,2.984a.633.633,0,0,0,1.051-.277,2.925,2.925,0,0,1,.687-1.347c.332-.375.137-1.115-.445-1.073-.414.03-1.4.2-1.685-.141l.162.612c-.012.052,5.262.309,5.84.332l-.167-1.234c-2.411.658-4.951,1.514-6.084,3.939l1.171.318a6.946,6.946,0,0,0-1.207-3.52c-.454-.664-1.544-.036-1.085.634Z" transform="translate(-710.396 -319.322)" fill="#d70017"/>
    </g>
    <g id="Group_19405" data-name="Group 19405" transform="translate(844.667 397.093)">
      <path id="Path_29557" data-name="Path 29557" d="M745.459,324.446a21.947,21.947,0,0,1,.254,18.26c-.48,1.1,1.145,2.063,1.629.952a24.05,24.05,0,0,0-.254-20.165c-.514-1.1-2.14-.142-1.628.952Z" transform="translate(-745.361 -323.007)" fill="#f75c43"/>
    </g>
    <g id="Group_19406" data-name="Group 19406" transform="translate(844.933 396.677)">
      <path id="Path_29558" data-name="Path 29558" d="M747.487,324.633c1.07-1.649,1.407,3.837,1.407,3.769a28.716,28.716,0,0,1-.17,3.081,27.049,27.049,0,0,1-1.694,6.7c-.435,1.135,1.388,1.625,1.818.5,1.516-3.957,2.939-9.741,1.618-13.937-.695-2.2-3.183-3.264-4.607-1.07-.663,1.021.969,1.967,1.629.952Z" transform="translate(-745.703 -322.473)" fill="#f75c43"/>
    </g>
    <g id="Group_19407" data-name="Group 19407" transform="translate(846.188 398.127)">
      <path id="Path_29559" data-name="Path 29559" d="M747.354,325.508l1.264,4.707a.944.944,0,0,0,1.819-.5l-1.264-4.707a.944.944,0,0,0-1.819.5Z" transform="translate(-747.317 -324.339)" fill="#f75c43"/>
    </g>
    <g id="Group_19408" data-name="Group 19408" transform="translate(718.566 463.51)">
      <path id="Path_29560" data-name="Path 29560" d="M594.535,411.077c-2.661-1.792-6.179-3.779-9.323-1.812-2.975,1.862-2.022,5.224-1.529,8.11,1.74,10.186,3.7,20.35,7.595,29.965.45,1.11,2.275.625,1.819-.5a111.565,111.565,0,0,1-5.732-19.786c-.649-3.193-1.216-6.4-1.765-9.612-.425-2.48-1.014-6.9,2.466-7.1,2.021-.117,3.921,1.292,5.518,2.367,1.009.68,1.954-.953.951-1.629Z" transform="translate(-583.139 -408.45)" fill="#f75c43"/>
    </g>
    <g id="Group_19409" data-name="Group 19409" transform="translate(720.959 465.74)">
      <path id="Path_29561" data-name="Path 29561" d="M593.732,412.9c.963.839-3.357,2.76-3.878,3.195a9.437,9.437,0,0,0-2.432,3.252c-1.413,3.014-1.266,6.442-1.1,9.68.061,1.208,1.947,1.215,1.887,0a23,23,0,0,1,.321-7.18c.86-3.142,2.521-4.247,5.235-5.707,1.779-.957,3.221-2.9,1.305-4.574-.912-.794-2.251.535-1.334,1.334Z" transform="translate(-586.218 -411.318)" fill="#f75c43"/>
    </g>
    <g id="Group_19410" data-name="Group 19410" transform="translate(721.42 468.716)">
      <path id="Path_29562" data-name="Path 29562" d="M593.424,415.2c-7.27,2.337-7.44,14.071-5.7,19.952a.944.944,0,0,0,1.818-.5,19.72,19.72,0,0,1-.568-9.456c.556-2.875,1.806-7.165,4.953-8.177,1.15-.37.658-2.191-.5-1.818Z" transform="translate(-586.81 -415.147)" fill="#f75c43"/>
    </g>
    <g id="Group_19411" data-name="Group 19411" transform="translate(720.166 464.015)">
      <path id="Path_29563" data-name="Path 29563" d="M586.559,409.737a21.062,21.062,0,0,0-1.149,10.51c.148,1.086,1.821.769,1.852-.25.071-2.352.29-5.389,2.847-6.372l-1.065-1.385a32.381,32.381,0,0,1-3.184,5.573l1.629.951a12.6,12.6,0,0,1,2.369-3.612l-1.576-.917a4.37,4.37,0,0,1-.924,2.228c-.676.887.728,1.825,1.482,1.143a44.956,44.956,0,0,0,4.515-4.116,1.5,1.5,0,0,0-.157-2.31c-1.468-1.1-4.836-.04-4.327,2.131.477,2.039,3.469,1.4,3.371-.634-.134-2.816-3.552-2.011-4.53-.234a.951.951,0,0,0,1.29,1.29c1.4-.679,2.2-2.692.59-3.678a1.83,1.83,0,0,0-1.989.013c-.771.54-.441,1.957-.986,2.343l1.385.564-.1.232c1.2-.191.688-2.009-.5-1.819a1.536,1.536,0,0,0-1.22,2.089.952.952,0,0,0,1.385.564c.447-.316,1.709-2.533.481-1.936l1.29,1.29c.243-.44,2.215-.726,2.2-.673s-1.258,1.033-1.262,1.037l-2.776,2.513,1.482,1.143a5.412,5.412,0,0,0,1.113-2.679c.115-.845-.86-1.683-1.576-.918a14.107,14.107,0,0,0-2.663,3.994.944.944,0,0,0,1.629.951,32.334,32.334,0,0,0,3.184-5.573c.295-.658-.211-1.713-1.065-1.385-3.471,1.334-4.13,4.834-4.232,8.191l1.852-.251a19.171,19.171,0,0,1,1.149-9.508c.432-1.136-1.391-1.627-1.819-.5Z" transform="translate(-585.197 -409.1)" fill="#f75c43"/>
    </g>
    <g id="Group_19412" data-name="Group 19412" transform="translate(859.849 416.084)">
      <path id="Path_29564" data-name="Path 29564" d="M766.07,364.733a108.135,108.135,0,0,0,36.694-15.507c1.007-.667.065-2.3-.951-1.629a106.705,106.705,0,0,1-36.244,15.317c-1.185.259-.684,2.078.5,1.819Z" transform="translate(-764.892 -347.438)" fill="#439527"/>
    </g>
    <g id="Group_19413" data-name="Group 19413" transform="translate(859.352 464.807)">
      <path id="Path_29565" data-name="Path 29565" d="M764.39,411.523c1.616,2.725,5.556,2.836,8.342,3.493l13.819,3.256c1.181.278,1.685-1.54.5-1.818l-10.364-2.442-4.606-1.086c-1.689-.4-5.052-.648-6.063-2.355a.944.944,0,0,0-1.628.952Z" transform="translate(-764.252 -410.118)" fill="#439527"/>
    </g>
    <g id="Group_19414" data-name="Group 19414" transform="translate(847.982 353.909)">
      <path id="Path_29566" data-name="Path 29566" d="M749.9,269.063c9.435,9.365,23.51,7.707,35.472,10.549,1.18.281,1.684-1.538.5-1.819-11.576-2.749-25.528-1.02-34.64-10.063a.943.943,0,0,0-1.333,1.333Z" transform="translate(-749.625 -267.454)" fill="#439527"/>
    </g>
    <g id="Group_19415" data-name="Group 19415" transform="translate(865.511 328.495)">
      <path id="Path_29567" data-name="Path 29567" d="M773.081,245.273a43.074,43.074,0,0,0,29.478-8.7c.953-.726.014-2.365-.952-1.629a41.493,41.493,0,0,1-28.526,8.441c-1.21-.093-1.2,1.793,0,1.886Z" transform="translate(-772.175 -234.76)" fill="#439527"/>
    </g>
    <g id="Group_19416" data-name="Group 19416" transform="translate(804.696 294.284)">
      <path id="Path_29568" data-name="Path 29568" d="M694.846,217.444c16.741-1.22,28.8-13.474,39.6-25.067.827-.887-.5-2.224-1.334-1.334-10.41,11.172-22.094,23.336-38.267,24.515-1.2.088-1.213,1.974,0,1.886Z" transform="translate(-693.94 -190.75)" fill="#439527"/>
    </g>
    <g id="Group_19417" data-name="Group 19417" transform="translate(721.383 292.248)">
      <path id="Path_29569" data-name="Path 29569" d="M616.925,204.78c-11.875.048-18.9-11.714-28.73-16.543-1.086-.533-2.043,1.093-.952,1.629,10.22,5.022,17.259,16.852,29.682,16.8a.943.943,0,0,0,0-1.886Z" transform="translate(-586.762 -188.131)" fill="#439527"/>
    </g>
    <g id="Group_19418" data-name="Group 19418" transform="translate(670.397 387.231)">
      <path id="Path_29570" data-name="Path 29570" d="M551.98,323.191a53.4,53.4,0,0,1-29.164-12.629c-.916-.788-2.257.541-1.334,1.334a55.608,55.608,0,0,0,30.5,13.181c1.2.129,1.2-1.758,0-1.887Z" transform="translate(-521.172 -310.321)" fill="#439527"/>
    </g>
    <g id="Group_19419" data-name="Group 19419" transform="translate(706.306 425.143)">
      <path id="Path_29571" data-name="Path 29571" d="M568.276,366.139a57.394,57.394,0,0,0,21.851-5.321c1.1-.51.144-2.137-.951-1.629a54.919,54.919,0,0,1-20.9,5.063c-1.21.052-1.216,1.938,0,1.887Z" transform="translate(-567.367 -359.092)" fill="#439527"/>
    </g>
    <g id="Group_19420" data-name="Group 19420" transform="translate(691.141 392.254)">
      <path id="Path_29572" data-name="Path 29572" d="M558.013,321.9a16.488,16.488,0,0,1-8.557-4.833c-.836-.883-2.169.452-1.333,1.334a18.259,18.259,0,0,0,9.389,5.318c1.183.261,1.688-1.556.5-1.819Z" transform="translate(-547.858 -316.782)" fill="#439527"/>
    </g>
    <g id="Group_19421" data-name="Group 19421" transform="translate(671.678 400.407)">
      <path id="Path_29573" data-name="Path 29573" d="M540.557,328.434l-16.829-1.16c-1.212-.084-1.206,1.8,0,1.886l16.829,1.16c1.211.083,1.206-1.8,0-1.886Z" transform="translate(-522.82 -327.271)" fill="#439527"/>
    </g>
    <g id="Group_19422" data-name="Group 19422" transform="translate(709.588 424.291)">
      <path id="Path_29574" data-name="Path 29574" d="M582.753,358.516,572.5,358c-1.213-.061-1.21,1.824,0,1.886l10.255.518c1.213.061,1.21-1.824,0-1.886Z" transform="translate(-571.589 -357.997)" fill="#439527"/>
    </g>
    <g id="Group_19423" data-name="Group 19423" transform="translate(729.126 305.785)">
      <path id="Path_29575" data-name="Path 29575" d="M609.378,206.873a22.521,22.521,0,0,1-11.516-1.262c-1.136-.429-1.628,1.394-.5,1.819a24.385,24.385,0,0,0,12.518,1.262c1.2-.183.688-2-.5-1.819Z" transform="translate(-596.724 -205.546)" fill="#439527"/>
    </g>
    <g id="Group_19424" data-name="Group 19424" transform="translate(730.798 293.998)">
      <path id="Path_29576" data-name="Path 29576" d="M604.8,197.946a19.694,19.694,0,0,1-4.049-6.914c-.386-1.144-2.208-.653-1.818.5a22.013,22.013,0,0,0,4.534,7.747c.815.9,2.145-.434,1.334-1.334Z" transform="translate(-598.874 -190.381)" fill="#439527"/>
    </g>
    <g id="Group_19425" data-name="Group 19425" transform="translate(813.874 317.592)">
      <path id="Path_29577" data-name="Path 29577" d="M706.653,223.251a74.438,74.438,0,0,0,17.688-.684c1.2-.188.688-2.006-.5-1.819a72.311,72.311,0,0,1-17.186.617c-1.21-.1-1.2,1.788,0,1.886Z" transform="translate(-705.747 -220.735)" fill="#439527"/>
    </g>
    <g id="Group_19426" data-name="Group 19426" transform="translate(819.039 303.671)">
      <path id="Path_29578" data-name="Path 29578" d="M713.794,214.737a19.687,19.687,0,0,0,8.617-10.758c.386-1.154-1.435-1.649-1.818-.5a17.667,17.667,0,0,1-7.751,9.631.944.944,0,0,0,.952,1.629Z" transform="translate(-712.392 -202.826)" fill="#439527"/>
    </g>
    <g id="Group_19427" data-name="Group 19427" transform="translate(873.831 330.304)">
      <path id="Path_29579" data-name="Path 29579" d="M784.047,244.607a21.932,21.932,0,0,0,10.071-5.9c.849-.869-.483-2.2-1.333-1.334a20.021,20.021,0,0,1-9.239,5.419.944.944,0,0,0,.5,1.818Z" transform="translate(-782.878 -237.087)" fill="#439527"/>
    </g>
    <g id="Group_19428" data-name="Group 19428" transform="translate(852.885 357.982)">
      <path id="Path_29580" data-name="Path 29580" d="M756.036,274.128a22.037,22.037,0,0,0,8.688,9.43.944.944,0,0,0,.952-1.629,20.277,20.277,0,0,1-8.011-8.754c-.527-1.092-2.154-.137-1.629.952Z" transform="translate(-755.933 -272.693)" fill="#439527"/>
    </g>
    <g id="Group_19429" data-name="Group 19429" transform="translate(864.532 421.167)">
      <path id="Path_29581" data-name="Path 29581" d="M772.345,365.153a42.609,42.609,0,0,0,12.461-9.541c.81-.9-.519-2.238-1.334-1.334a41.2,41.2,0,0,1-12.08,9.246c-1.083.549-.129,2.177.952,1.628Z" transform="translate(-770.916 -353.977)" fill="#439527"/>
    </g>
    <g id="Group_19430" data-name="Group 19430" transform="translate(876.728 426.602)">
      <path id="Path_29582" data-name="Path 29582" d="M787.516,362.855h11.752a.943.943,0,0,0,0-1.886H787.516a.943.943,0,0,0,0,1.886Z" transform="translate(-786.606 -360.969)" fill="#439527"/>
    </g>
    <g id="Group_19431" data-name="Group 19431" transform="translate(862.192 466.521)">
      <path id="Path_29583" data-name="Path 29583" d="M768.084,413.683a15.306,15.306,0,0,0,7.783,5.632c1.159.371,1.655-1.45.5-1.819a13.17,13.17,0,0,1-6.655-4.765c-.711-.969-2.348-.029-1.629.952Z" transform="translate(-767.905 -412.324)" fill="#439527"/>
    </g>
    <path id="Path_29584" data-name="Path 29584" d="M650.266,206.019a3.511,3.511,0,0,0,3.964,2.107" transform="translate(120.48 100.134)" fill="none" stroke="#ccc8d4" stroke-miterlimit="10" stroke-width="0.809"/>
    <g id="Group_19434" data-name="Group 19434" transform="translate(767.707 295.878)">
      <path id="Path_29585" data-name="Path 29585" d="M654.73,206.805c-1.861.7-6.915,2.515-8.173-5.658s3.772-8.173,3.772-8.173,8.173-2.45,8.487,11.034C658.817,204.008,659.76,204.919,654.73,206.805Z" transform="translate(-646.356 -192.8)" fill="#f6f1ff"/>
      <g id="Group_19432" data-name="Group 19432" transform="translate(1.337 7.179)">
        <path id="Path_29586" data-name="Path 29586" d="M648.352,202.7c-.453,1.695-.455,3.711.814,5.076a3.551,3.551,0,0,0,4.149.854c1.1-.507.145-2.133-.951-1.629a1.72,1.72,0,0,1-2.025-.782,3.821,3.821,0,0,1-.167-3.018.944.944,0,0,0-1.819-.5Z" transform="translate(-648.076 -202.036)" fill="#ccc8d4"/>
      </g>
      <g id="Group_19433" data-name="Group 19433" transform="translate(9.269 6.034)">
        <path id="Path_29587" data-name="Path 29587" d="M658.28,201.473v2.418a.944.944,0,0,0,1.887,0v-2.418a.944.944,0,0,0-1.887,0Z" transform="translate(-658.28 -200.562)" fill="#ccc8d4"/>
      </g>
    </g>
    <g id="Group_19437" data-name="Group 19437" transform="translate(789.924 300.922)">
      <path id="Path_29588" data-name="Path 29588" d="M678.118,210.407c-1.458-.632-5.373-2.392-1.559-7.79s6.706-2.606,6.706-2.606,6.06,3.127-1.245,11.057C682.02,211.067,682.057,212.114,678.118,210.407Z" transform="translate(-674.936 -199.289)" fill="#f6f1ff"/>
      <g id="Group_19435" data-name="Group 19435" transform="translate(0.361 3.711)">
        <path id="Path_29589" data-name="Path 29589" d="M677.751,204.176a4.282,4.282,0,0,0-2.35,3.371,2.837,2.837,0,0,0,1.912,2.794c.915.32,1.267-1.147.356-1.464a1.376,1.376,0,0,1-.73-1.574,3.056,3.056,0,0,1,1.579-1.828.754.754,0,0,0-.767-1.3Z" transform="translate(-675.4 -204.063)" fill="#ccc8d4"/>
      </g>
      <g id="Group_19436" data-name="Group 19436" transform="translate(6.06 7.324)">
        <path id="Path_29590" data-name="Path 29590" d="M684.288,208.941l-1.342,1.391a.754.754,0,0,0,1.084,1.047l1.342-1.391a.754.754,0,0,0-1.084-1.047Z" transform="translate(-682.733 -208.71)" fill="#ccc8d4"/>
      </g>
    </g>
    <g id="Group_33160" data-name="Group 33160" transform="translate(1429.069 467.937) rotate(180)">
      <g id="Group_33150" data-name="Group 33150" transform="translate(469.039 141.796)">
        <rect id="Rectangle_3337" data-name="Rectangle 3337" width="54.115" height="0.71" transform="translate(0 0)" fill="#c4c4e8" stroke="#c4c4e8" stroke-width="3"/>
      </g>
      <path id="Path_78294" data-name="Path 78294" d="M1092.343,140.362l0,1.788,0,1.788,1.547-.9,1.547-.9-1.549-.892Z" transform="translate(-569.558 0)" fill="#c4c4e8" stroke="#c4c4e8" stroke-width="3"/>
    </g>
    <g id="Group_33161" data-name="Group 33161" transform="translate(1285.023 665.173) rotate(180)">
      <g id="Group_33150-2" data-name="Group 33150" transform="translate(469.039 141.088)">
        <rect id="Rectangle_3337-2" data-name="Rectangle 3337" width="27.416" height="0.36" transform="translate(0 0)" fill="#c4c4e8" stroke="#c4c4e8" stroke-width="3"/>
      </g>
      <path id="Path_78294-2" data-name="Path 78294" d="M1092.342,140.362v1.811l.784-.454.784-.454-.784-.452Z" transform="translate(-596.075 0)" fill="#c4c4e8" stroke="#c4c4e8" stroke-width="3"/>
    </g>
    <g id="Group_33162" data-name="Group 33162" transform="translate(224.146 487.638)">
      <g id="Group_33150-3" data-name="Group 33150" transform="translate(469.039 141.088)">
        <rect id="Rectangle_3337-3" data-name="Rectangle 3337" width="27.416" height="0.36" transform="translate(0 0)" fill="#c4c4e8" stroke="#c4c4e8" stroke-width="3"/>
      </g>
      <path id="Path_78294-3" data-name="Path 78294" d="M1092.342,140.362v1.811l.784-.454.784-.454-.784-.452Z" transform="translate(-596.075 0)" fill="#c4c4e8" stroke="#c4c4e8" stroke-width="3"/>
    </g>
    <g id="Group_33163" data-name="Group 33163" transform="translate(223.146 354.638)">
      <g id="Group_33150-4" data-name="Group 33150" transform="translate(469.039 141.088)">
        <rect id="Rectangle_3337-4" data-name="Rectangle 3337" width="27.416" height="0.36" transform="translate(0 0)" fill="#c4c4e8" stroke="#c4c4e8" stroke-width="3"/>
      </g>
      <path id="Path_78294-4" data-name="Path 78294" d="M1092.342,140.362v1.811l.784-.454.784-.454-.784-.452Z" transform="translate(-596.075 0)" fill="#c4c4e8" stroke="#c4c4e8" stroke-width="3"/>
    </g>
    <g id="Group_33164" data-name="Group 33164" transform="translate(202.146 208.638)">
      <g id="Group_33150-5" data-name="Group 33150" transform="translate(469.039 141.888)">
        <rect id="Rectangle_3337-5" data-name="Rectangle 3337" width="57.602" height="0.755" transform="translate(0 0)" fill="#c4c4e8" stroke="#c4c4e8" stroke-width="3"/>
      </g>
      <path id="Path_78294-5" data-name="Path 78294" d="M1092.342,140.362l0,1.9v1.9l1.646-.953,1.646-.953-1.647-.95Z" transform="translate(-566.094 0)" fill="#c4c4e8" stroke="#c4c4e8" stroke-width="3"/>
    </g>
  </g>
</svg>
