<svg xmlns="http://www.w3.org/2000/svg" xmlns:xlink="http://www.w3.org/1999/xlink" width="54" height="54" viewBox="0 0 54 54"><defs><filter id="a" x="0" y="0" width="54" height="54" filterUnits="userSpaceOnUse"><feOffset dy="3" input="SourceAlpha"/><feGaussianBlur stdDeviation="3" result="b"/><feFlood flood-opacity="0.161"/><feComposite operator="in" in2="b"/><feComposite in="SourceGraphic"/></filter></defs><g transform="translate(-1182 -14)"><g transform="matrix(1, 0, 0, 1, 1182, 14)" filter="url(#a)"><circle cx="18" cy="18" r="18" transform="translate(9 42) rotate(-90)" fill="#fff"/></g><path d="M507.872,285.034c1.331-1.328,2.571-2.569,3.814-3.806.265-.263.545-.541.956-.271s.414.672-.016,1.1q-1.633,1.636-3.28,3.258c-.162.161-.342.3-.621.543.848.814,1.641,1.568,2.426,2.333.5.49.986,1,1.49,1.489.3.294.454.6.129.96-.27.3-.668.257-1.023-.1-1.158-1.152-2.323-2.295-3.458-3.469-.287-.3-.449-.271-.715,0-1.142,1.162-2.3,2.308-3.454,3.457-.364.362-.778.42-1.01.12a.671.671,0,0,1,.136-.981c1.147-1.136,2.27-2.3,3.431-3.42.326-.315.313-.483-.008-.793-1.15-1.107-2.267-2.249-3.4-3.376-.252-.253-.428-.527-.241-.894.2-.4.638-.45,1.007-.088q1.749,1.716,3.475,3.453A4.251,4.251,0,0,1,507.872,285.034Z" transform="translate(700.813 -248.08)" fill="#7fd1d8"/></g></svg>