<svg xmlns="http://www.w3.org/2000/svg" width="42.677" height="42.399" viewBox="0 0 42.677 42.399"><g transform="translate(66.512 9.709)"><g transform="translate(-66.512 -9.709)"><path d="M-66.208,11.742S-62.32-9.709-44.181-9.709-20.139,9.726-26.042,20.955s-22.89,14.828-32.823,8.926S-66.208,11.742-66.208,11.742Z" transform="translate(66.512 9.709)" fill="#7fd1d8"/></g><path d="M-55.456,7.365h19.013A.633.633,0,0,0-35.8,6.74a.632.632,0,0,0-.624-.642H-55.453a.543.543,0,0,0-.059,0,.634.634,0,0,0-.606.662A.633.633,0,0,0-55.456,7.365Z" transform="translate(0.787 1.196)" fill="#fff"/><path d="M-55.456,10.807h19.013a.633.633,0,0,0,.642-.625.634.634,0,0,0-.624-.643H-55.453a.543.543,0,0,0-.059,0,.635.635,0,0,0-.606.662A.634.634,0,0,0-55.456,10.807Z" transform="translate(0.787 1.457)" fill="#fff"/><circle cx="1.753" cy="1.753" r="1.753" transform="translate(-41.173 6.175)" fill="#6795b8"/><circle cx="1.753" cy="1.753" r="1.753" transform="translate(-48.679 9.877)" fill="#fff"/><path d="M-55.456,15.288h19.013a.633.633,0,0,0,.642-.625.634.634,0,0,0-.624-.643H-55.512a.636.636,0,0,0-.606.663A.634.634,0,0,0-55.456,15.288Z" transform="translate(0.787 1.796)" fill="#fff"/><circle cx="1.753" cy="1.753" r="1.753" transform="translate(-53.89 14.697)" fill="#fff"/></g></svg>