<svg xmlns="http://www.w3.org/2000/svg" xmlns:xlink="http://www.w3.org/1999/xlink" width="463.605" height="272.794" viewBox="0 0 463.605 272.794"><defs><style>.a,.o{fill:none;}.b{fill:#bec9f2;opacity:0.49;}.c{fill:#c2934e;}.d{fill:#8c7cc9;}.e{opacity:0.15;}.f{fill:#caa267;}.g{fill:#f0c659;}.h{clip-path:url(#a);}.i{fill:#c39652;}.j{fill:#5e5586;}.k{fill:#5e5587;}.l{fill:#f1c759;}.m{opacity:0.3;}.n{opacity:0.5;}.o{stroke:#8c7cc9;stroke-miterlimit:10;stroke-width:0.958px;}.p{fill:#cea971;}</style><clipPath id="a"><path class="a" d="M853.02,592.244c13.009,1.239,25.657-3.707,41.137-8.418,18.2-5.536,37.453-8.984,56.165-12.268,37.422-6.569,84.706-14.7,120.727,1.845,62.457,28.69,152.618-26,162.965-83.643s-19.214-148.085-72.425-164.944-149.741,11.71-207.9,25.51c-48.241,11.446-101.459,18.84-143.118,47.751-35.025,24.307-44.8,64.929-33.869,104.791C786.175,537.39,812.838,588.417,853.02,592.244Z" transform="translate(-772.457 -319.644)"/></clipPath></defs><g transform="translate(-772.457 -319.644)"><path class="b" d="M853.02,592.244c13.026,1.054,25.657-3.707,41.137-8.418,18.2-5.536,37.453-8.984,56.165-12.268,37.422-6.569,84.706-14.7,120.727,1.845,62.457,28.69,152.618-26,162.965-83.643s-19.214-148.085-72.425-164.944-149.741,11.71-207.9,25.51c-48.241,11.446-101.459,18.84-143.118,47.751-35.025,24.307-44.8,64.929-33.869,104.791C786.175,537.39,792.072,587.313,853.02,592.244Z" transform="translate(0)"/><g transform="translate(888.709 319.937)"><path class="c" d="M1029.181,362.332s-.846,10.938,4.108,18.712c3.329,5.223-3.172,4.818-10.279,3.692-5.455-.865-6.52-3.933-6.52-3.933a7.59,7.59,0,0,0,4.214-4.994c1.134-3.65.54-10.078-.039-13.478C1019.459,355.253,1029.181,362.332,1029.181,362.332Z" transform="translate(-917.327 -324.574)"/><g transform="translate(0 53.515)"><path class="d" d="M1071.2,445.259l-86.965-57.472-31.808,54.389" transform="translate(-909.814 -381.443)"/><path class="d" d="M1076.666,479.293c-.281-.835-1.83-1.674-4.289-2.6q-1.1-.416-2.444-.87c-12.314-4.133-26.685-30.165-35.6-51.849-1.81-4.414-3.394-8.648-4.7-12.491a109.389,109.389,0,0,1-3.1-10.663c-.823-3.655-1.029-6.217-.468-7.176a.75.75,0,0,1,.724-.419,16.182,16.182,0,0,0,4.763-.637c3.9-1.008,8.245-4.01,11.36-6.5l0,0c2.529-2.021,4.237-3.7,4.237-3.7h.012c.153.006,1.565.066,3.918.369a82.425,82.425,0,0,1,8.551,1.589c1.247.293,2.563.634,3.938,1.025.592.167,1.193.346,1.8.532a90.71,90.71,0,0,1,46.884,33.1" transform="translate(-918.413 -380.809)"/><path class="e" d="M1123.727,491.42a1.579,1.579,0,0,0-.191.06C1123.618,491.454,1123.682,491.432,1123.727,491.42Z" transform="translate(-929.879 -393.596)"/><path class="d" d="M904.153,479.443c0-35.187,20.1-94.745,90.347-98.834a11.674,11.674,0,0,1,5.333,1.432c3.6,1.7,7.47,4.392,10.588,5.154a6.59,6.59,0,0,0,1.452.208c6.737.155,11.619-3.563,16.573-4.865l.016-.006.028-.01a11.445,11.445,0,0,1,4.4-.35h.012q1.951.256,3.738.514c2.263.328,4.315.659,6.12.971.938.164,1.812.325,2.612.473,1.244.233,2.31.444,3.189.624.374.076.714.148,1.016.211,1.176.249,1.805.4,1.805.4s-.09.11-.268.321c-.988,1.189-4.657,5.605-10.016,12.131-4.408,5.379-9.96,12.189-16.1,19.809l0,0q-2.4,2.984-4.923,6.129" transform="translate(-904.153 -380.6)"/></g><ellipse class="f" cx="12.826" cy="17.5" rx="12.826" ry="17.5" transform="translate(94.513 9.283)"/><g transform="translate(91.605)"><g transform="translate(2.707 4.879)"><path class="g" d="M1019.738,339.069s22.205,12.311,15.615-7.456C1030.792,317.937,1004.593,330.257,1019.738,339.069Z" transform="translate(-1011.473 -325.503)"/><path class="g" d="M1022.478,334.464s-12.424,7.372-11.225,14.766c0,0-2.74-22.078,9.614-22.633s17.135.637,16.038,23.985C1036.905,350.581,1033.316,332.01,1022.478,334.464Z" transform="translate(-1010.994 -325.62)"/></g><path class="g" d="M1021.568,325.975s.624-6.879,7.443-5.9,9.743,4.871,10.716,8.768,1.948,6.819,2.923,6.819c0,0-2.923,2.923-3.9,1.949,0,0,2.528,7.006-.684,12.758,0,0-1.265-8.862-6.136-9.835S1021.568,325.975,1021.568,325.975Z" transform="translate(-1009.527 -319.976)"/><path class="g" d="M1020.593,326.622s-4.872-2.923-9.743,3.9l-2.923,5.845s.975.974,2.923,0c0,0-.888,6.864.043,10.739l2.88-11.713Z" transform="translate(-1007.927 -320.682)"/></g><path class="d" d="M1079.722,424.355l-22.109-26.682-7.457-9-1.736-2.093-1.74-2.1-1.73-2.09.006,0,.016-.006.028-.01a58.181,58.181,0,0,1,19.612-3.017,60.3,60.3,0,0,1,7.273.523,56.4,56.4,0,0,1,29.709,13.485" transform="translate(-920.664 -326.939)"/><path class="e" d="M1062.219,379.36a18.144,18.144,0,0,1-4,3.468,8.016,8.016,0,0,1-1.165.608c-.057.026-.116.051-.175.076a53.344,53.344,0,0,1-10.855,3.071,29.076,29.076,0,0,1-4.976.476c-.137,0-.271,0-.4-.006-5.914-.18-9.917,2.285-13.57,2.462a2.185,2.185,0,0,1-2.541-2.465,6.588,6.588,0,0,0,1.452.208c6.737.154,11.619-3.563,16.573-4.865l.016-.006.028-.01A58.181,58.181,0,0,1,1062.219,379.36Z" transform="translate(-918.27 -326.939)"/><path class="e" d="M1087.383,495.278c-8.016-10.387-29.164-37.11-29.845-47.636,0,0,3.141,19.036,10.838,30.122" transform="translate(-922.14 -334.947)"/><path class="e" d="M961.8,484.375" transform="translate(-910.913 -339.254)"/></g><g transform="translate(772.457 319.644)"><g class="h"><g transform="translate(116.253 0.293)"><path class="c" d="M1029.181,362.332s-.846,10.938,4.108,18.712c3.329,5.223-3.172,4.818-10.279,3.692-5.455-.865-6.52-3.933-6.52-3.933a7.59,7.59,0,0,0,4.214-4.994c1.134-3.65.54-10.078-.039-13.478C1019.459,355.253,1029.181,362.332,1029.181,362.332Z" transform="translate(-917.327 -324.574)"/><g transform="translate(51.734 187.888)"><path class="i" d="M985.351,673.753s12.354,108.12,7.923,110.059c-7.948,3.534-39.113,15.182-4.586,12.147,17.777.765,16.406-3.18,16.625-6.546.179-2.751-2-99.664-1.4-107.214.134-1.69.216-2.713.216-2.713Z" transform="translate(-963.932 -549.35)"/><path class="f" d="M1095.529,766.743c-2.3.269-7.574,2.458-10.388,4.2-9.124-21.41-42.454-101.8-42.454-101.8l14.624-11.669S1086.176,740.687,1095.529,766.743Z" transform="translate(-972.133 -547.442)"/><path class="j" d="M1100.158,781.465c-.7-1.414-12.984,3.883-13.323,5.64-.167.867-15.836,17.47-13.8,20.117,1.071,2.822,6.761,1.6,12.615.5a16.108,16.108,0,0,0,6.442-2.766c6.9-4.969,13.151-8.9,14.095-11.24C1107.014,791.676,1101.531,784.244,1100.158,781.465Z" transform="translate(-975.671 -561.953)"/><path class="k" d="M1005.6,793.972c.18-1.567-13.1.645-14.341,1.937s-20.533,6.9-19.981,13.475,31.191.873,33.384.681S1005.245,797.052,1005.6,793.972Z" transform="translate(-963.757 -563.385)"/><path class="l" d="M969.191,540.771a6.863,6.863,0,0,0,4.03,1.47c9.133-.576,48.572-3.161,69.835-6.158,7.5-1.057,12.74-2.165,13.585-3.259,0,0,0,.032,0,.087.042,1.183.482,14.721,1,32.471,1.015,35.04,8.757,84.706,14.225,99.522,1.18,3.2-48.163,2.291-48.163,2.291-3.116-35.99-4.932-99.476-7.373-102.126-2.97-3.224-2.72,52.729-3.859,99.662-18.959,6.659-49.9,6.13-49.708,4.115C965.021,644.907,969.191,540.771,969.191,540.771Z" transform="translate(-962.76 -532.824)"/><g class="m" transform="translate(42.525)"><path d="M1011.377,540.84h-.443S1011.091,540.838,1011.377,540.84Z" transform="translate(-1010.934 -533.764)"/><path class="n" d="M1011.436,539.9c11.814-.034,37.327-3.817,37.327-3.817,7.5-1.057,12.74-2.165,13.585-3.259a.86.86,0,0,1,0,.087c.042,1.183.482,14.721,1,32.471a8.764,8.764,0,0,1-1.245-.041,9.635,9.635,0,0,1-6.576-3.9,21.38,21.38,0,0,1-2.833-4.844C1042.564,540.673,1015.223,539.927,1011.436,539.9Z" transform="translate(-1010.993 -532.824)"/></g><g transform="translate(13.247 3.039)"><line class="o" x1="1.671" y2="130.962" transform="translate(0 3.349)"/><line class="o" x1="1.764" y2="128.691" transform="translate(12.454 4.927)"/><line class="o" x2="0.239" y2="127.627" transform="translate(26.273 3.929)"/><line class="o" x2="2.438" y2="26.239" transform="translate(37.883 2.968)"/><line class="o" x2="8.327" y2="129.544" transform="translate(50.77 1.901)"/><line class="o" x2="10.133" y2="130.487" transform="translate(61.853 0.902)"/><line class="o" x2="13.367" y2="130.973" transform="translate(72.752)"/></g><path class="o" d="M969.409,556.324s70.248-2.488,88.462-7.322" transform="translate(-963.54 -534.721)"/><path class="o" d="M1017.044,569.353c-24.024,7.572-48.18.745-48.18.745" transform="translate(-963.476 -537.108)"/><path class="o" d="M1022.989,567.173s22.608,4.38,41.583-2.47" transform="translate(-969.823 -536.562)"/><path class="o" d="M968.393,581.1s18.408,7.777,46.677.7" transform="translate(-963.42 -538.485)"/><path class="o" d="M967.82,594.079s28.15,6.11,46.727.23" transform="translate(-963.353 -540.007)"/><path class="o" d="M967.236,606.978s14.891,9.8,46.9,2.2" transform="translate(-963.285 -541.52)"/><path class="o" d="M966.542,621.77a68.255,68.255,0,0,0,47.321-.35" transform="translate(-963.203 -543.213)"/><path class="o" d="M965.879,635.412s15.989,9.47,47.7.576" transform="translate(-963.126 -544.854)"/><path class="o" d="M965.164,649.1s21.745,9.171,48.176-1.88" transform="translate(-963.042 -546.239)"/><path class="o" d="M964.569,660.111s13.275,10.809,48.527-.937" transform="translate(-962.972 -547.641)"/><path class="o" d="M963.828,672.419s20.751,8.829,48.984-1.307" transform="translate(-962.885 -549.041)"/><path class="o" d="M1025.239,580.659s9.862,6.857,40.661-1.388" transform="translate(-970.087 -538.271)"/><path class="o" d="M1026.589,593.549s13.453,4.967,39.621-2" transform="translate(-970.245 -539.71)"/><path class="o" d="M1027.067,607.856s20.5,4.369,40.148-3.324" transform="translate(-970.301 -541.233)"/><path class="o" d="M1027.731,619.836s20.158,7.034,40.824-3.379" transform="translate(-970.379 -542.631)"/><path class="o" d="M1028.448,632.989s19.048,4.964,41.687-3.451" transform="translate(-970.463 -544.165)"/><path class="o" d="M1029.153,645.617s16.182,5.709,42.716-3.535" transform="translate(-970.545 -545.636)"/><path class="o" d="M1030.077,656.9s19.315,8.013,43.742-2.6" transform="translate(-970.654 -547.069)"/><path class="o" d="M1030.727,670.807a85.938,85.938,0,0,0,45.522-3.24" transform="translate(-970.73 -548.625)"/></g><g transform="translate(0 53.515)"><path class="d" d="M951.926,442.176c-1.5,2.34-7.613,68.822,0,82.614,7.657,13.871,71.441,21.285,91.5,10.615,20.349-10.827,28.186-21.24,30.906-40.659,2.726-19.456-3.629-49.486-3.629-49.486l-86.964-57.472Z" transform="translate(-909.316 -381.443)"/><g transform="translate(42.863 137.284)"><path class="p" d="M970.984,536.335a50.571,50.571,0,0,1,5.333,3.1,15.853,15.853,0,0,1,2.741,4.028c.508,1.075-1.6.1-3.208-2.261-1.563-.857-3.017-1.821-3.375-1.469s2.1,1,3.863,2.672c1.724,2.21,3.376,4.378,2.784,4.421s-1.239.066-3.686-3.134c-1.729-.793-3.413-1.736-3.55-1.371s2.012,1.048,3.714,2.525c2.381,2.442,2.936,3.332,3.817,4.19-.476.531-2.07.05-4.992-2.871-1.577-.981-3.929-1.359-4.009-.869.073.521,1.713.809,2.827,1.474a13.137,13.137,0,0,1,3.072,2.464c.332.423-.017,1.157-3.882-1.01a3.962,3.962,0,0,0-2.8-.175l-2-5.489Z" transform="translate(-954.459 -536.146)"/><path class="f" d="M958.237,538.442s9.426-1.94,10.264-2.287,2.915,2.132,2.245,2.594a4.584,4.584,0,0,0-1.506,2.757,2.171,2.171,0,0,1-.426,1.96c-.571.662-1.41,1.511-1.043,2.5s1.22,1.984.11,2.061a19.88,19.88,0,0,0-6.894,2.524c-2.371,1.483-8.277-4.958-8.277-4.958Z" transform="translate(-952.71 -536.122)"/></g><g transform="translate(125.415 137.797)"><path class="p" d="M1059.975,536.916a50.262,50.262,0,0,0-6.149-.168,15.566,15.566,0,0,0-4.416,1.991c-.988.649,1.314.925,3.9-.238,1.775.095,3.513.039,3.637.528s-2.308-.26-4.674.242c-2.611.976-5.139,1.954-4.656,2.3s1.024.711,4.762-.729c1.884.237,3.807.319,3.736.7s-2.257-.168-4.47.2c-3.292.827-4.224,1.294-5.418,1.562.132.7,1.74,1.134,5.739.184,1.851,0,4.054.913,3.868,1.375-.331.405-1.878-.214-3.173-.235a12.988,12.988,0,0,0-3.892.482c-.5.185-.582,1,3.834,1.186a4,4,0,0,1,2.48,1.329l4.541-3.626Z" transform="translate(-1046.229 -536.702)"/><path class="f" d="M1069.392,544.565s-7.04-6.627-7.577-7.366-3.587.281-3.255,1.029a4.619,4.619,0,0,1-.136,3.147,2.16,2.16,0,0,0-.648,1.9c.146.867.423,2.034-.4,2.684s-2.064,1.048-1.157,1.7a20.189,20.189,0,0,1,4.579,5.79c1.258,2.516,9.62.137,9.62.137Z" transform="translate(-1047.364 -536.731)"/></g><path class="d" d="M1135.39,511.318c-10.787,18.4-25.23,37.3-53.442,36.388-8.471-.552-12.95-4.37-15.164-8.685a16.562,16.562,0,0,1-1.138-2.85c-.037-.126-.075-.253-.109-.379a18.346,18.346,0,0,1-.464-2.216,16.182,16.182,0,0,1,.346-6.9l0-.013c.041-.119.081-.233.124-.337.016-.041.034-.085.057-.132.14-.331.358-.8.645-1.4,1.265-2.617,3.868-7.57,7.216-13.04,5.976-9.774,5.789-24.758,3.2-32.467-.281-.835-1.83-1.674-4.289-2.6q-1.1-.416-2.444-.87c-12.314-4.133-26.685-30.165-35.6-51.849-1.81-4.414-3.394-8.648-4.7-12.491a109.389,109.389,0,0,1-3.1-10.663c-.823-3.655-1.029-6.217-.468-7.176a.75.75,0,0,1,.724-.419,16.182,16.182,0,0,0,4.763-.637c3.9-1.008,8.245-4.01,11.36-6.5l0,0c2.529-2.021,4.237-3.7,4.237-3.7h.012c.153.006,1.565.066,3.918.369a82.425,82.425,0,0,1,8.551,1.589c1.247.293,2.563.634,3.938,1.025.592.167,1.193.346,1.8.532a90.71,90.71,0,0,1,46.884,33.1C1138.9,455.269,1146.3,492.692,1135.39,511.318Z" transform="translate(-918.413 -380.809)"/><path class="e" d="M1123.727,491.42a1.579,1.579,0,0,0-.191.06C1123.618,491.454,1123.682,491.432,1123.727,491.42Z" transform="translate(-929.879 -393.596)"/><path class="d" d="M1051.387,385.367s-.09.11-.268.321c-.988,1.189-4.657,5.605-10.016,12.131-4.408,5.379-9.96,12.189-16.1,19.809l0,0q-2.4,2.984-4.923,6.129c-28.982,36.2-66.625,85.23-63.1,91.734A11.313,11.313,0,0,1,958.222,519a9.365,9.365,0,0,1,.125,1.822c-.112,3.765-2.537,6.778-4.844,8.805-.006.007-.012.01-.019.016a.77.77,0,0,1-.1.088,23.236,23.236,0,0,1-1.958,1.517,20.306,20.306,0,0,1-2.1,1.3c-30.716-4.837-45.169-17.913-45.169-53.1s20.1-94.745,90.347-98.834a11.674,11.674,0,0,1,5.333,1.432c3.6,1.7,7.47,4.392,10.588,5.154a6.59,6.59,0,0,0,1.452.208c6.737.155,11.619-3.563,16.573-4.865l.016-.006.028-.01a11.445,11.445,0,0,1,4.4-.35h.012q1.951.256,3.738.514c2.263.328,4.315.659,6.12.971.938.164,1.812.325,2.612.473,1.244.233,2.31.444,3.189.624.374.076.714.148,1.016.211C1050.757,385.215,1051.387,385.367,1051.387,385.367Z" transform="translate(-904.153 -380.6)"/></g><ellipse class="f" cx="12.826" cy="17.5" rx="12.826" ry="17.5" transform="translate(94.513 9.283)"/><g transform="translate(91.605)"><g transform="translate(2.707 4.879)"><path class="g" d="M1019.738,339.069s22.205,12.311,15.615-7.456C1030.792,317.937,1004.593,330.257,1019.738,339.069Z" transform="translate(-1011.473 -325.503)"/><path class="g" d="M1022.478,334.464s-12.424,7.372-11.225,14.766c0,0-2.74-22.078,9.614-22.633s17.135.637,16.038,23.985C1036.905,350.581,1033.316,332.01,1022.478,334.464Z" transform="translate(-1010.994 -325.62)"/></g><path class="g" d="M1021.568,325.975s.624-6.879,7.443-5.9,9.743,4.871,10.716,8.768,1.948,6.819,2.923,6.819c0,0-2.923,2.923-3.9,1.949,0,0,2.528,7.006-.684,12.758,0,0-1.265-8.862-6.136-9.835S1021.568,325.975,1021.568,325.975Z" transform="translate(-1009.527 -319.976)"/><path class="g" d="M1020.593,326.622s-4.872-2.923-9.743,3.9l-2.923,5.845s.975.974,2.923,0c0,0-.888,6.864.043,10.739l2.88-11.713Z" transform="translate(-1007.927 -320.682)"/></g><path class="d" d="M1141.528,500.361l0,.006,0,.006c-9.917,26.921-61.8-76.018-61.8-76.018l-22.109-26.682-7.457-9-1.736-2.093-1.74-2.1-1.73-2.09.006,0,.016-.006.028-.01a58.181,58.181,0,0,1,19.612-3.017,60.3,60.3,0,0,1,7.273.523,56.4,56.4,0,0,1,29.709,13.485C1136.038,423.035,1151.432,473.433,1141.528,500.361Z" transform="translate(-920.664 -326.939)"/><path class="e" d="M1062.219,379.36a18.144,18.144,0,0,1-4,3.468,8.016,8.016,0,0,1-1.165.608c-.057.026-.116.051-.175.076a53.344,53.344,0,0,1-10.855,3.071,29.076,29.076,0,0,1-4.976.476c-.137,0-.271,0-.4-.006-5.914-.18-9.917,2.285-13.57,2.462a2.185,2.185,0,0,1-2.541-2.465,6.588,6.588,0,0,0,1.452.208c6.737.154,11.619-3.563,16.573-4.865l.016-.006.028-.01A58.181,58.181,0,0,1,1062.219,379.36Z" transform="translate(-918.27 -326.939)"/><path class="e" d="M1077.309,524.93s18.091-19.266,10.074-29.652-29.164-37.11-29.845-47.636c0,0,3.141,19.036,10.838,30.122S1077.309,524.93,1077.309,524.93Z" transform="translate(-922.14 -334.947)"/><path class="e" d="M961.757,517.178s-8.629-6.527-9.033-12.087,8.008-20.716,8.008-20.716-5.048,14.381-2.772,19.66A78.1,78.1,0,0,1,961.757,517.178Z" transform="translate(-909.847 -339.254)"/></g></g></g></g></svg>