<svg xmlns="http://www.w3.org/2000/svg" xmlns:xlink="http://www.w3.org/1999/xlink" width="368" height="261" viewBox="0 0 368 261"><defs><style>.a{fill:#fff;stroke:#707070;}.b{clip-path:url(#a);}.c{fill:#bec9f2;opacity:0.49;}.d{fill:#caa267;}.e{fill:#5e5586;}.f{fill:#f1c759;}.g{opacity:0.3;}.h{opacity:0.5;}.i{fill:none;stroke:#8c7cc9;stroke-miterlimit:10;stroke-width:1.391px;}.j{fill:#5e5587;}.k{fill:#8c7cc9;}.l{fill:#c2934e;}.m{fill:#979797;}.n{fill:#cacaca;}.o{fill:#7f7f7f;}.p{fill:#f0c659;}.q{opacity:0.15;}</style><clipPath id="a"><rect class="a" width="368" height="261" transform="translate(725 507)"/></clipPath></defs><g class="b" transform="translate(-725 -507)"><g transform="translate(-228.578 257.149)"><g transform="translate(953.578 286.549)"><path class="c" d="M1048.818,699.606c-52.927-66.054-79.39-99.079-88-130.087-28.765-103.594,30.438-250.767,137.739-283.129,5.583-1.684,83.116-23.879,133.911,19.131,42.53,36.009,23.307,81.31,45.914,214.26,24.2,142.336,60.9,176.647,32.582,225.738-26.809,46.479-91.976,71.68-143.538,61.217C1129.078,798.954,1101.8,765.733,1048.818,699.606Z" transform="translate(-953.578 -279.176)"/><circle class="c" cx="25.973" cy="25.973" r="25.973" transform="translate(31.902 413.474)"/><circle class="c" cx="10.893" cy="10.893" r="10.893" transform="translate(42.822 481.11)"/><circle class="c" cx="18.765" cy="18.765" r="18.765" transform="translate(318.875 89.761)"/><circle class="c" cx="7.639" cy="7.639" r="7.639" transform="translate(346.628 59.942)"/><circle class="c" cx="5.606" cy="5.606" r="5.606" transform="translate(13.968 389.124)"/><circle class="c" cx="5.606" cy="5.606" r="5.606" transform="translate(346.628 163.881)"/></g><g transform="translate(1022.313 254.351)"><path class="d" d="M1088.978,573.3s.309,141-5.759,142.855c-10.89,3.4-53.27,13.9-7.761,14.979,23.089,3.551,21.876-1.726,22.656-6.03.636-3.516,11.962-128.616,13.849-138.252l.679-3.462Z" transform="translate(-992.243 -159.621)"/><path class="d" d="M1151.8,572.988s8.993,140.183,15.08,141.977c10.927,3.288,53.418,13.338,7.925,14.9-23.049,3.8-21.895-1.494-22.721-5.79-.674-3.509-6.181-30.1-8.175-39.716-.446-2.153-16.676-110.833-16.676-110.833Z" transform="translate(-970.738 -159.714)"/><path class="e" d="M1144.148,683.313c-.487-1.987,14.067-3.312,15.887-1.847s31.413,4.345,31.748,12.89-40.519,6.056-43.407,6.154S1145.1,687.216,1144.148,683.313Z" transform="translate(-965.717 -127.681)"/><g transform="translate(67.824 251.804)"><path class="f" d="M1187.318,454.4a9.077,9.077,0,0,1-5.212,2.105c-12.016-.288-63.9-1.657-91.961-4.47-9.9-.993-16.829-2.165-17.993-3.538a1,1,0,0,0,0,.113c.005,1.533.115,19.083.343,42.089.447,45.418-7.187,110.108-13.609,129.565-1.386,4.2,63.322.549,63.322.549,2.26-46.752,1.415-129.036,4.483-132.59,3.733-4.324,6.25,68.13,10.131,128.838,25.22,7.671,65.8,5.433,65.444,2.834C1198.086,589.011,1187.318,454.4,1187.318,454.4Z" transform="translate(-1058.866 -448.494)"/><g class="g" transform="translate(13.284)"><path d="M1120.9,453.593c.2-.007.391-.013.581-.022C1121.482,453.571,1121.276,453.576,1120.9,453.593Z" transform="translate(-1053.726 -446.986)"/><path class="h" d="M1136.283,455.1c-15.506.547-49.181-3.069-49.181-3.069-9.9-.993-16.829-2.165-17.993-3.538a.9.9,0,0,0,0,.113c.005,1.533.115,19.083.343,42.089a11.507,11.507,0,0,0,1.632-.114,12.668,12.668,0,0,0,8.432-5.379,27.622,27.622,0,0,0,3.472-6.414C1095.472,457.664,1131.315,455.325,1136.283,455.1Z" transform="translate(-1069.108 -448.494)"/></g><g transform="translate(12.898 3.539)"><line class="i" x2="8.851" y2="169.471" transform="translate(104.338 0.77)"/><line class="i" x2="8.858" y2="166.527" transform="translate(87.951 3.443)"/><line class="i" x2="6.175" y2="165.249" transform="translate(72.081 2.755)"/><line class="i" x1="1.865" y2="34.093" transform="translate(54.93 2.094)"/><line class="i" x1="4.342" y2="168.137" transform="translate(35.486 1.359)"/><line class="i" x1="6.665" y2="169.448" transform="translate(18.569 0.621)"/><line class="i" x1="10.884" y2="170.24"/></g><path class="i" d="M1185.678,467.81s-92.315.3-116.466-5.043" transform="translate(-1055.793 -444.255)"/><path class="i" d="M1111.162,479.456c31.914,8.6,63.267-1.453,63.267-1.453" transform="translate(-1043.334 -439.73)"/><path class="i" d="M1124.029,477.73s-29.447,6.8-54.7-1.112" transform="translate(-1055.757 -440.141)"/><path class="i" d="M1174.758,487.592s-23.763,10.992-61.221,3.241" transform="translate(-1042.629 -436.882)"/><path class="i" d="M1175.739,499.012s-36.633,9.322-61.31,2.639" transform="translate(-1042.364 -433.49)"/><path class="i" d="M1176.738,510.357s-19.044,13.441-61.444,5.206" transform="translate(-1042.107 -430.12)"/><path class="i" d="M1178.026,523.409s-28.714,13.254-62.119,1.92" transform="translate(-1041.925 -426.244)"/><path class="i" d="M1179.191,535.366s-20.5,13.062-62.567,3.137" transform="translate(-1041.712 -422.693)"/><path class="i" d="M1180.484,547.629s-28.071,12.964-63.319-.018" transform="translate(-1041.551 -419.056)"/><path class="i" d="M1181.487,557.194s-16.872,14.66-63.732,1.222" transform="translate(-1041.376 -416.21)"/><path class="i" d="M1182.718,568.058s-26.784,12.472-64.351.764" transform="translate(-1041.194 -412.983)"/><path class="i" d="M1122.193,489.308s-12.594,9.373-53.432.241" transform="translate(-1055.928 -436.372)"/><path class="i" d="M1121.129,500.923s-17.4,7.1-52.1-.6" transform="translate(-1055.847 -433.102)"/><path class="i" d="M1121.377,514.086s-26.679,6.684-52.857-2.289" transform="translate(-1055.999 -429.693)"/><path class="i" d="M1121.4,524.681s-26.1,10.118-53.747-2.328" transform="translate(-1056.255 -426.558)"/><path class="i" d="M1121.479,536.314s-24.745,7.381-54.884-2.376" transform="translate(-1056.571 -423.117)"/><path class="i" d="M1121.6,547.49s-20.947,8.2-56.238-2.435" transform="translate(-1056.938 -419.815)"/><path class="i" d="M1121.455,557.064s-24.941,11.344-57.538-1.171" transform="translate(-1057.366 -416.596)"/><path class="i" d="M1121.9,569.584s-28.154,8.075-59.906-1.91" transform="translate(-1057.937 -413.097)"/></g><path class="j" d="M1100.507,681.25c.464-1.991-17.2-1.059-19,.426s-27.809,5.918-28.05,14.467,40.582,5.625,43.472,5.692S1099.6,685.165,1100.507,681.25Z" transform="translate(-992.649 -127.898)"/><path class="k" d="M1202,503.816c-8.628,11.818-76.283,21.962-111.48,15.362a55.3,55.3,0,0,1-11.6-3.331c-3.337-1.449-6.571-5.223-9.654-10.779-23.471-42.321-38-188-21.071-196.3,19.148-9.389,53.76,1.073,53.76,1.073l12.863,16.439,62.056,36.559s14.391,52.736,22.1,93.954c.569,3.038,1.1,6.016,1.588,8.9C1203.742,484.581,1205.01,499.693,1202,503.816Z" transform="translate(-996.394 -239.351)"/><path class="l" d="M1093.265,294.046c-.008,1.311,2.28,15,.919,18.419s-9.222,5.921-8.683,6.493,11.167,11.4,21.04,8.629,4.281-8.629,4.281-8.629a20,20,0,0,1-5.082-15.607C1106.744,293.672,1093.265,294.046,1093.265,294.046Z" transform="translate(-983.139 -242.562)"/><path class="k" d="M1216.057,492.059c-29.2,4.255-91.587-24.879-91.587-24.879l5.952-16.417s36.854,1.685,42.83,2.667c0,0-18.006-14.733-23.771-34.373-4.241-14.449-55.427-76.261-70.8-103.208-5.525-9.689,12.349-7.075,12.349-7.075s4.038,10.568,10.97,11.827a7.781,7.781,0,0,0,3.887-.3c9.293-3.053,9.662-6.912,9.662-6.912a180.273,180.273,0,0,1,23.235,3.778c12.054,2.735,26.734,7.31,38.781,14.813,25.215,15.714,42.832,64.582,45.788,81.723S1245.255,487.8,1216.057,492.059Z" transform="translate(-985.471 -238.283)"/><g transform="translate(108.34 133.185)"><path class="m" d="M1090.117,370.756l4.688,95.5a10.174,10.174,0,0,0,10.7,9.584l66.072-3.162a3.2,3.2,0,0,0,.467-.044,10.1,10.1,0,0,0,9.237-10.512l-4.687-95.5a10.158,10.158,0,0,0-10.7-9.572l-63.009,3.005-3.062.145A10.126,10.126,0,0,0,1090.117,370.756Z" transform="translate(-1090.104 -357.038)"/><path class="n" d="M1092.839,370.567l4.686,95.5a10.159,10.159,0,0,0,10.7,9.573l63.009-3.006a10.1,10.1,0,0,0,9.237-10.512l-4.687-95.5a10.158,10.158,0,0,0-10.7-9.572l-63.009,3.005A10.1,10.1,0,0,0,1092.839,370.567Z" transform="translate(-1089.296 -357.038)"/><ellipse class="o" cx="7.889" cy="7.783" rx="7.889" ry="7.783" transform="translate(40.046 52.384)"/></g><g transform="translate(93.929)"><ellipse class="d" cx="22.731" cy="16.887" rx="22.731" ry="16.887" transform="translate(4.223 59.079) rotate(-87.484)"/><g transform="translate(5.142 6.361)"><path class="p" d="M1106.4,277.233s-29.89,14.769-20.129-10.525C1093.024,249.208,1126.807,266.622,1106.4,277.233Z" transform="translate(-1082.555 -259.255)"/><path class="p" d="M1102.828,270.655s15.936,10.244,13.951,19.775c0,0,4.824-28.5-11.4-29.9s-22.577-.106-22.423,30.251C1082.961,290.786,1088.707,266.881,1102.828,270.655Z" transform="translate(-1082.958 -258.981)"/></g><path class="p" d="M1107.261,262.481s-.442-8.961-9.467-8.067-13.084,5.79-14.581,10.795-2.939,8.743-4.22,8.69c0,0,3.683,3.953,5.018,2.742,0,0-3.713,8.954.2,16.594,0,0,2.153-11.43,8.613-12.43S1107.261,262.481,1107.261,262.481Z" transform="translate(-1078.993 -254.351)"/><path class="p" d="M1100.157,260.688s6.569-3.528,12.6,5.588l3.523,7.744s-1.336,1.211-3.846-.158c0,0,.79,8.956-.65,13.934l-3.14-15.358Z" transform="translate(-1072.707 -252.668)"/></g><path class="q" d="M1194.05,431.274a81.086,81.086,0,0,1-4.895,6.862c-.017.021.137,2.5.12,2.52-3.383,4.272-7.173,6.962-14.256,13.308-.065.058-1.964.082-2.029.14q-1.114,1-2.294,2.029c-21.966,19.228-62.157,26.034-86.684,28.627a55.3,55.3,0,0,1-11.6-3.331c-3.337-1.449-6.571-5.223-9.653-10.779l129.7-48.276,4.4-1.639S1199.187,423.18,1194.05,431.274Z" transform="translate(-989.886 -204.934)"/><path class="q" d="M1059.56,327.326s22.812,26.2,36.9,52.73c1.06,1.994,6.984,16.808,7,16.848,9.139,31.413,13.656,78.326,13.656,78.326l-21.8-51.953Z" transform="translate(-990.836 -232.677)"/><path class="d" d="M1173.682,427.793c-5.352.733-19.208,5.388-19.208,5.388l-2.757-8.436s6.582-4.035,8.4-6.219,2.8-4.044,4.3-5.188,5.454-2.118,5.454-2.118l.446.572.444.568.145-.013a14.756,14.756,0,0,0,2.124-.275,7.579,7.579,0,0,1,2.342,1.576,3.879,3.879,0,0,1,.659.743,6.2,6.2,0,0,0,1.979,1.62c.22.135.4.24.5.31s.384.336.743.685c.894.883,2.284,2.346,2.723,2.865a29.422,29.422,0,0,1,2.841,2.764,3.117,3.117,0,0,1,.314.559C1185.685,424.5,1179.033,427.059,1173.682,427.793Z" transform="translate(-963.465 -207.76)"/><path class="k" d="M1099.119,365.8c0-1.4-11.939-65.964-37.492-59.054s-42.809,12.8-52.763,62.233,10.768,145.938,97.432,139.586,77.039-32.4,98.641-43.93l-4.166-16.3s-3.749,6.34-14.707,3.755-42.481-10.635-61.4-7.265c0,0-15.412-11.619-14.176-18.037s-7.538-51.265-15.76-62.068S1099.119,365.8,1099.119,365.8Z" transform="translate(-1006.573 -238.943)"/><path class="q" d="M1167.4,412.216a.656.656,0,0,1-.155.144c-.466.275-3.333,1.249-3.643,1.341s1.049-.76,1.421-.791a8.259,8.259,0,0,0,1.787-1.249l.444.568Z" transform="translate(-959.95 -207.629)"/><g transform="translate(93.628 185.612)"><path class="d" d="M1113.6,417.765c-.228-.265-3.468.593-3.76.787-1.558,1.032-2.43,2.616-4.3,2.843-.523.063-3.38.424-3.064-.671a4.4,4.4,0,0,1,1.721-2.289s-.038,0-.113.008c-.182.009-.592.038-1.191.109a37.328,37.328,0,0,0-5.442,1.11c-4.092,1.132-9.256-2.339-9.542-2.7s.343-.895,2.3-1.382c.025-.008.045-.012.071-.021,2.008-.5,6.163-.92,6.163-.92s-7.6-.141-11.9-.141a7.042,7.042,0,0,1-.95-.062h-.016a7.5,7.5,0,0,1-4.68-2.623.582.582,0,0,1,.433-.958c1.319-.045,3.547-.148,5.213-.361,2.028-.258,7.686.437,9.821.72.519.068.83.113.83.113s1.828-.087-4.264-2.776-5.678-10.975-5.678-10.975a1.025,1.025,0,0,1,.539-.113c.684.021,1.963.546,3.624,3.442,2.511,4.386,7.248,5.735,7.834,7.15s5.079,4.053,5.079,4.053,2.443,1.045,3.734,1.424c.92.27,1.114,1.551,1.148,2.259.007.207,0,.371,0,.437v.038a13.1,13.1,0,0,0,2.514-.991C1110.9,414.635,1113.6,417.765,1113.6,417.765Z" transform="translate(-1078.761 -397.459)"/><path class="q" d="M1092.882,411.21c.519.068.83.113.83.113s1.827-.087-4.265-2.776-5.678-10.975-5.678-10.975a1.026,1.026,0,0,1,.54-.113,3.817,3.817,0,0,0-.089,1.628c.233.987,2.59,7.083,4.827,8.477s5.59,3.309,6,3.6S1093.894,411.543,1092.882,411.21Z" transform="translate(-1077.275 -397.459)"/><path class="q" d="M1103.8,409.78a3.844,3.844,0,0,0-2.071.3c-.646.467-3.827.874-4.768,1.1-.65.162-5.139.569-7.859.811.025-.008.045-.012.071-.021,2.008-.5,6.163-.92,6.163-.92s-7.6-.141-11.9-.141a7.015,7.015,0,0,1-.949-.062c4.07-.092,10.374-.262,11.407-.3,1.53-.058,4.416.462,5.416,0s3.294-1.221,3.768-.987A2.27,2.27,0,0,0,1103.8,409.78Z" transform="translate(-1077.653 -393.878)"/><path class="q" d="M1101.686,412.028l-3.125,2.218c-.182.009-.592.038-1.191.109a3.087,3.087,0,0,1,1-1.52,11.058,11.058,0,0,1,3.321-1.244C1101.694,411.8,1101.691,411.962,1101.686,412.028Z" transform="translate(-1073.234 -393.261)"/></g><path class="q" d="M1133.2,316.036c-2.76,2.507-6.332,4.9-9.67,4.59-6.763-.637-11.588,1.271-17.363,4.446-3.771,2.074-7.686-2.2-9.751-5.6a7.781,7.781,0,0,0,3.887-.3c9.293-3.053,9.662-6.912,9.662-6.912A180.276,180.276,0,0,1,1133.2,316.036Z" transform="translate(-979.889 -237.152)"/></g></g></g></svg>