<svg xmlns="http://www.w3.org/2000/svg" width="402" height="306.35" viewBox="0 0 402 306.35"><defs><style>.a{opacity:0.7;}.b,.j{fill:#bec9f2;}.b{opacity:0.49;}.c{fill:#b35328;}.d{fill:#e9e9e9;}.e{fill:#8e94a0;}.f{fill:#4b3d64;}.g{fill:#cecfd4;}.h{fill:#fff;}.i{fill:#8c7cc9;}.k{fill:#8a7cc7;}.l{font-size:4px;}.l,.m,.n{font-family:Microsoft-Yi-Baiti, Microsoft Yi Baiti;font-style:italic;}.m{font-size:5px;}.m,.n{letter-spacing:-0.07em;}.n{font-size:2px;}</style></defs><g transform="translate(-487.311 -385.5)"><g transform="translate(487.311 385.5)"><g class="a"><path class="b" d="M555.209,482.51c44.038-48.19,66.057-72.285,88.661-82.535,75.52-34.245,194.713-6.64,232.142,71.277,1.947,4.054,28.084,60.5,1.353,104.322-22.38,36.692-59.189,27.434-157.811,60.478-105.586,35.376-127.365,67.422-168.144,51.685-38.608-14.9-65.565-61.56-63.727-102.1C489.051,555.491,511.122,530.753,555.209,482.51Z" transform="translate(-487.327 -385.5)"/><circle class="b" cx="20.032" cy="20.032" r="20.032" transform="translate(28.914 50.767)"/><circle class="b" cx="8.401" cy="8.401" r="8.401" transform="translate(0 65.481)"/><circle class="b" cx="14.473" cy="14.473" r="14.473" transform="translate(319.929 230.148)"/><circle class="b" cx="5.892" cy="5.892" r="5.892" transform="translate(361.69 246.528)"/><circle class="b" cx="4.323" cy="4.323" r="4.323" transform="translate(74.142 31.969)"/><circle class="b" cx="4.323" cy="4.323" r="4.323" transform="translate(285.361 258.67)"/></g><g transform="translate(34.677 57.131)"><path class="c" d="M561.891,545.283h0a.855.855,0,0,1-.505-1.094l.693-1.883,1.6.589-.693,1.883A.855.855,0,0,1,561.891,545.283Z" transform="translate(-526.078 -451.294)"/><path class="c" d="M571.324,548.755h0a.854.854,0,0,1-.505-1.094l.693-1.883c.046-.127,1.593.607,1.593.607l-.688,1.866A.853.853,0,0,1,571.324,548.755Z" transform="translate(-526.599 -451.485)"/><path class="d" d="M561.709,544.849h0a.854.854,0,0,1-.505-1.094l.759-2.061a.855.855,0,0,1,1.094-.505h0a.854.854,0,0,1,.505,1.094l-.759,2.061A.854.854,0,0,1,561.709,544.849Z" transform="translate(-526.068 -451.229)"/><path class="d" d="M571.123,548.316h0a.855.855,0,0,1-.505-1.094l.759-2.061a.855.855,0,0,1,1.094-.5h0a.855.855,0,0,1,.505,1.094l-.759,2.06A.855.855,0,0,1,571.123,548.316Z" transform="translate(-526.588 -451.421)"/><rect class="e" width="5.587" height="3.622" transform="translate(33.497 113.289) rotate(20.217)"/><rect class="e" width="5.587" height="3.622" transform="translate(35.886 107.298) rotate(20.217)"/><path class="f" d="M814.632,681.254h-283.8c-3.151,0-6.479-1.589-6.816-6.217v-4.253l31.065-57.4a9.888,9.888,0,0,1,8.856-5.491H781.115c4.052,0,12.989,7.982,14.8,11.607l25.627,52.244v1.876C821.606,679.06,818.088,681.254,814.632,681.254Z" transform="translate(-524.016 -454.917)"/><path class="g" d="M814.659,674.894h-283.8c-3.151,0-8.338-2.764-6.39-6.162l30.638-61.711a9.887,9.887,0,0,1,8.856-5.491H781.141a10.7,10.7,0,0,1,9.569,5.915l30.329,60.689C823.164,672,818.115,674.894,814.659,674.894Z" transform="translate(-524.017 -454.566)"/><rect class="g" width="232.409" height="146.858" rx="8.994" transform="translate(31.045)"/><rect class="h" width="214.48" height="127.254" transform="translate(39.967 8.01)"/><path class="f" d="M720.019,674.846H636.4a1.508,1.508,0,0,1-1.489-1.746l3.526-22.026a2.45,2.45,0,0,1,2.419-2.062h75.425a2.154,2.154,0,0,1,2.13,1.841L721.638,673A1.633,1.633,0,0,1,720.019,674.846Z" transform="translate(-530.141 -457.189)"/><path class="i" d="M786.932,642.439H559.722c-2.521,0-4.444-.968-4.045-2.038l9.581-25.714c.517-1.387,3.3-2.407,6.572-2.407H776.762c2.9,0,5.368.915,5.788,2.15l8.782,25.858C791.675,641.428,789.608,642.439,786.932,642.439Z" transform="translate(-525.762 -455.159)"/><g transform="translate(29.264 151.379)"><rect class="g" width="236.941" height="1.197" transform="translate(0 10.172)"/><rect class="g" width="236.941" height="1.197" transform="translate(0 16.155)"/><rect class="g" width="236.941" height="1.197" transform="translate(0 23.335)"/><rect class="g" width="236.941" height="1.197" transform="translate(0 29.917)"/><rect class="g" width="1.795" height="39.49" transform="translate(28.696 0.639) rotate(17.439)"/><rect class="g" width="1.795" height="39.49" transform="translate(46.047 0.639) rotate(17.439)"/><rect class="g" width="1.795" height="39.49" transform="translate(59.809 0.639) rotate(17.439)"/><rect class="g" width="1.795" height="39.49" transform="translate(73.571 0.639) rotate(17.439)"/><rect class="g" width="1.795" height="39.49" transform="translate(87.931 0.639) rotate(17.439)"/><rect class="g" width="1.795" height="39.49" transform="translate(102.502 0.19) rotate(10.978)"/><rect class="g" width="1.795" height="39.49" transform="translate(114.881)"/><rect class="g" width="1.795" height="39.49" transform="translate(207.73 1.177) rotate(-17.439)"/><rect class="g" width="1.795" height="39.49" transform="translate(190.977 1.177) rotate(-17.439)"/><rect class="g" width="1.795" height="39.49" transform="translate(174.223 1.177) rotate(-17.439)"/><rect class="g" width="1.795" height="39.49" transform="translate(157.47 1.177) rotate(-17.439)"/><rect class="g" width="1.795" height="39.49" transform="translate(140.716 1.177) rotate(-17.439)"/><rect class="g" width="1.795" height="39.49" transform="translate(123.963 1.177) rotate(-17.439)"/></g></g></g><g transform="translate(591.24 469.446)"><g transform="translate(9.725 7.838)"><rect class="h" width="143.414" height="84.355"/></g><g transform="translate(0.238 0.237)"><rect class="j" width="152.901" height="7.602"/></g><rect class="j" width="9.487" height="91.957" transform="translate(0.238 0.237)"/><path class="k" d="M750.693,566.785H597.317v-92.43H750.693Zm-152.9-.474H750.218V474.829H597.791Z" transform="translate(-597.317 -474.355)"/><g transform="translate(9.487 0.237)"><rect class="k" width="0.474" height="91.957"/></g><g transform="translate(45.341 0.237)"><rect class="k" width="0.474" height="91.957"/></g><g transform="translate(81.194 0.237)"><rect class="k" width="0.474" height="91.957"/></g><g transform="translate(117.047 0.237)"><rect class="k" width="0.474" height="91.957"/></g><g transform="translate(0.238 7.601)"><rect class="k" width="152.901" height="0.474"/></g><g transform="translate(0.238 16.037)"><rect class="k" width="152.901" height="0.474"/></g><g transform="translate(0.238 24.472)"><rect class="k" width="152.901" height="0.474"/></g><g transform="translate(0.238 32.908)"><rect class="k" width="152.901" height="0.474"/></g><g transform="translate(0.238 41.343)"><rect class="k" width="152.901" height="0.474"/></g><g transform="translate(0.238 49.779)"><rect class="k" width="152.901" height="0.474"/></g><g transform="translate(0.238 58.214)"><rect class="k" width="152.901" height="0.474"/></g><g transform="translate(0.238 66.65)"><rect class="k" width="152.901" height="0.474"/></g><g transform="translate(0.238 75.085)"><rect class="k" width="152.901" height="0.474"/></g><g transform="translate(0.238 83.521)"><rect class="k" width="152.901" height="0.474"/></g><text class="l" transform="translate(2.744 10.402)"><tspan x="0" y="0">1</tspan></text><text class="l" transform="translate(2.744 18.651)"><tspan x="0" y="0">2</tspan></text><text class="l" transform="translate(2.744 26.9)"><tspan x="0" y="0">3</tspan></text><text class="l" transform="translate(2.744 35.653)"><tspan x="0" y="0">4</tspan></text><text class="l" transform="translate(2.744 43.903)"><tspan x="0" y="0">5</tspan></text><text class="l" transform="translate(2.744 52.153)"><tspan x="0" y="0">6</tspan></text><text class="l" transform="translate(2.744 60.402)"><tspan x="0" y="0">7</tspan></text><text class="l" transform="translate(2.744 69.155)"><tspan x="0" y="0">8</tspan></text><text class="l" transform="translate(2.744 77.405)"><tspan x="0" y="0">9</tspan></text><text class="m" transform="translate(0.982 86.906)"><tspan x="0" y="0">10</tspan></text><text class="n" transform="translate(24.227 2.585)"><tspan x="0" y="0">A</tspan></text><text class="n" transform="translate(61.95 2.585)"><tspan x="0" y="0">B</tspan></text><text class="n" transform="translate(97.213 2.585)"><tspan x="0" y="0">C</tspan></text><text class="n" transform="translate(134.809 2.585)"><tspan x="0" y="0">D</tspan></text></g></g></svg>