<svg xmlns="http://www.w3.org/2000/svg" xmlns:xlink="http://www.w3.org/1999/xlink" width="528" height="360.484" viewBox="0 0 528 360.484"><defs><style>.a{fill:none;}.b{opacity:0.49;}.c{fill:#bec9f2;}.d{fill:#a1b4c9;}.e{fill:#e3f9ff;}.f{fill:#bbc9d0;}.g{fill:#717179;}.h{fill:#fff;}.i{fill:#bdd4ed;}.j{fill:#fafbe1;}.k{fill:#5781bf;}.l{fill:#8a7cc7;}.m{fill:#f0c659;}.n{clip-path:url(#a);}</style><clipPath id="a"><path class="a" d="M995.223,563.534l116.4-97.3-13.831-77.2L980.639,480.136Z" transform="translate(-980.639 -389.043)"/></clipPath></defs><g transform="translate(-872.817 -378.632)"><g transform="translate(872.817 378.632)"><g class="b" transform="translate(0 88.127)"><path class="c" d="M1201.669,651.621c-46.745,6.341-64.853,66.812-175.562,65.416-22.1-.277-42.949-12.754-60.2-26.559-8.739-6.993-16.677-17.11-15.327-28.221,2.111-17.369,24.078-24.578,32.472-39.93,1.683-3.078,2.8-6.682,1.977-10.093-1.43-5.914-7.832-8.953-13.516-11.125q-26.172-10-52.934-18.359c-14.789-4.618-30.966-9.769-39.345-22.8-4.478-6.964-6.106-15.418-6.373-23.694-.591-18.315,5.152-36.587,15.041-52.012,8.262-12.886,19.56-24.029,33.266-30.847,29.065-14.461,63.656-7.871,95.532-1.711,52.8,10.2,106.2,18.351,159.97,19.048,62.379.811,127.928-7.855,184.619,18.176,14.856,6.821,31.3,16.015,36.016,31.665C1424.45,610.578,1288.15,639.892,1201.669,651.621Z" transform="translate(-872.817 -444.703)"/></g><g transform="translate(133.015)"><g transform="translate(24.611 100.041)"><g transform="translate(0.009 7.568)"><path class="d" d="M1210.761,493.751l-90.153-34.184a5.617,5.617,0,0,0-4.958.827L997.712,558.106,991,555.965l1.032,7.784a1.824,1.824,0,0,0,1.18,1.352l90.491,38.823a5.649,5.649,0,0,0,5.046-.692l127.808-104.482a1.722,1.722,0,0,0,.84-1.635l-1.457-7.931-5.846.919Z" transform="translate(-991 -459.309)"/></g><path class="e" d="M1119.367,453.874a5.775,5.775,0,0,0-4.95.834L991.8,556.37c-1.216,1.031-1.047,2.309.393,2.964l90.3,38.508a5.352,5.352,0,0,0,5.036-.7l127.574-104.384c1.325-1.015,1.081-2.35-.551-3Z" transform="translate(-990.993 -453.635)"/><g transform="translate(128.593 10.404)"><path class="f" d="M1087.4,466.277l7.1,2.7,5.854-4.836-7.1-2.7Z" transform="translate(-1087.403 -461.435)"/></g><g transform="translate(117.607 19.531)"><path class="f" d="M1079.167,473.084l7.059,2.743,5.869-4.859-7.093-2.69Z" transform="translate(-1079.167 -468.278)"/></g><g transform="translate(138.815 14.348)"><path class="f" d="M1095.067,469.223l7.147,2.712,5.878-4.849-7.138-2.695Z" transform="translate(-1095.067 -464.392)"/></g><g transform="translate(138.695 17.611)"><path class="f" d="M1094.977,479.1l7.149,2.727,14.84-12.223-7.219-2.765Z" transform="translate(-1094.977 -466.838)"/></g><g transform="translate(147.511 20.993)"><path class="f" d="M1101.587,481.657l7.162,2.733,14.89-12.226-7.219-2.791Z" transform="translate(-1101.587 -469.374)"/></g><g transform="translate(156.515 24.446)"><path class="f" d="M1108.337,484.215l7.213,2.809,14.955-12.286-7.271-2.775Z" transform="translate(-1108.337 -471.963)"/></g><g transform="translate(110.292 25.577)"><path class="f" d="M1073.682,477.635l7.04,2.714,5.852-4.81-7.06-2.728Z" transform="translate(-1073.682 -472.81)"/></g><g transform="translate(102.987 31.651)"><path class="f" d="M1068.205,482.16l7.032,2.76,5.822-4.837-7.019-2.718Z" transform="translate(-1068.205 -477.364)"/></g><g transform="translate(95.693 37.666)"><path class="f" d="M1062.737,486.654l7.006,2.788,5.818-4.847-7-2.72Z" transform="translate(-1062.737 -481.874)"/></g><g transform="translate(129.975 21.653)"><path class="f" d="M1088.439,474.7l7.11,2.753,5.856-4.864-7.105-2.719Z" transform="translate(-1088.439 -469.868)"/></g><g transform="translate(122.652 27.722)"><path class="f" d="M1082.949,479.263l7.07,2.755,5.851-4.846-7.089-2.754Z" transform="translate(-1082.949 -474.419)"/></g><g transform="translate(115.271 33.811)"><path class="f" d="M1077.415,483.793l7.076,2.787,5.878-4.869-7.1-2.726Z" transform="translate(-1077.415 -478.984)"/></g><g transform="translate(107.956 39.86)"><path class="f" d="M1071.931,488.331l7.04,2.8,5.87-4.858-7.083-2.75Z" transform="translate(-1071.931 -483.519)"/></g><g transform="translate(100.631 45.899)"><path class="f" d="M1066.439,492.88l7.035,2.761,5.854-4.805-7.05-2.788Z" transform="translate(-1066.439 -488.047)"/></g><g transform="translate(93.358 51.976)"><path class="f" d="M1060.986,497.42l6.98,2.757,5.841-4.777-7.021-2.8Z" transform="translate(-1060.986 -492.602)"/></g><g transform="translate(86.035 57.972)"><path class="f" d="M1055.5,501.9l6.982,2.814,5.825-4.819-7-2.8Z" transform="translate(-1055.496 -497.098)"/></g><g transform="translate(78.77 64.01)"><path class="f" d="M1050.049,506.411l6.928,2.813,5.835-4.8-6.991-2.8Z" transform="translate(-1050.049 -501.625)"/></g><g transform="translate(71.689 69.879)"><path class="f" d="M1044.741,510.8l6.959,2.8,5.815-4.77-6.954-2.8Z" transform="translate(-1044.741 -506.025)"/></g><g transform="translate(64.433 75.88)"><path class="f" d="M1039.3,515.283l6.914,2.8,5.808-4.755-6.932-2.806Z" transform="translate(-1039.3 -510.524)"/></g><g transform="translate(57.16 81.885)"><path class="f" d="M1033.847,519.792l6.913,2.845,5.811-4.784-6.928-2.827Z" transform="translate(-1033.847 -515.026)"/></g><g transform="translate(49.909 87.891)"><path class="f" d="M1028.411,524.273l6.9,2.846,5.812-4.77-6.913-2.821Z" transform="translate(-1028.411 -519.529)"/></g><g transform="translate(42.682 93.842)"><path class="f" d="M1022.993,528.743l6.862,2.851,5.789-4.752-6.879-2.851Z" transform="translate(-1022.993 -523.991)"/></g><g transform="translate(35.458 99.793)"><path class="f" d="M1017.577,533.214l6.844,2.878,5.772-4.761-6.854-2.879Z" transform="translate(-1017.577 -528.452)"/></g><g transform="translate(140.092 34.491)"><path class="f" d="M1096.024,484.324l7.175,2.8,5.9-4.889-7.167-2.742Z" transform="translate(-1096.024 -479.494)"/></g><g transform="translate(132.689 40.578)"><path class="f" d="M1090.474,488.873l7.153,2.805,5.913-4.879-7.168-2.742Z" transform="translate(-1090.474 -484.058)"/></g><g transform="translate(125.334 46.674)"><path class="f" d="M1084.959,493.435l7.121,2.806,5.875-4.855-7.115-2.759Z" transform="translate(-1084.959 -488.628)"/></g><g transform="translate(117.951 52.741)"><path class="f" d="M1079.425,498.023l7.107,2.812,5.892-4.848-7.125-2.811Z" transform="translate(-1079.425 -493.176)"/></g><g transform="translate(110.607 58.817)"><path class="f" d="M1073.919,502.573l7.063,2.781,5.883-4.795-7.1-2.828Z" transform="translate(-1073.919 -497.732)"/></g><g transform="translate(103.248 64.889)"><path class="f" d="M1068.4,507.109l7.061,2.807,5.864-4.8-7.066-2.828Z" transform="translate(-1068.401 -502.284)"/></g><g transform="translate(95.913 70.9)"><path class="f" d="M1062.9,511.641l7.043,2.842,5.861-4.822-7.058-2.871Z" transform="translate(-1062.902 -506.791)"/></g><g transform="translate(88.835 76.78)"><path class="f" d="M1057.6,516.028l7,2.84,5.847-4.8-7.027-2.871Z" transform="translate(-1057.596 -511.199)"/></g><g transform="translate(81.508 82.847)"><path class="f" d="M1052.1,520.556l6.99,2.842,5.864-4.787-7.027-2.863Z" transform="translate(-1052.102 -515.748)"/></g><g transform="translate(74.187 88.875)"><path class="f" d="M1046.613,525.053l6.986,2.917,5.838-4.844-7-2.859Z" transform="translate(-1046.613 -520.267)"/></g><g transform="translate(66.892 94.884)"><path class="f" d="M1041.144,529.553l6.968,2.894,5.812-4.8-6.952-2.873Z" transform="translate(-1041.144 -524.772)"/></g><g transform="translate(59.618 100.904)"><path class="f" d="M1035.69,534.056l6.917,2.91,5.835-4.8-6.963-2.881Z" transform="translate(-1035.69 -529.286)"/></g><g transform="translate(52.339 106.939)"><path class="f" d="M1030.233,538.558l6.907,2.945,5.807-4.815-6.923-2.878Z" transform="translate(-1030.233 -533.81)"/></g><g transform="translate(149.099 37.96)"><path class="f" d="M1102.777,486.924l7.19,2.813,5.911-4.892-7.2-2.751Z" transform="translate(-1102.777 -482.094)"/></g><g transform="translate(141.674 44.079)"><path class="f" d="M1097.21,491.509l7.191,2.808,5.913-4.874-7.184-2.761Z" transform="translate(-1097.21 -486.682)"/></g><g transform="translate(134.263 50.168)"><path class="f" d="M1091.654,496.112l7.168,2.816,5.929-4.867-7.194-2.814Z" transform="translate(-1091.654 -491.247)"/></g><g transform="translate(126.89 56.265)"><path class="f" d="M1086.126,500.68l7.132,2.784,5.9-4.81-7.142-2.835Z" transform="translate(-1086.126 -495.818)"/></g><g transform="translate(119.486 62.362)"><path class="f" d="M1080.575,505.233l7.12,2.811,5.91-4.824-7.143-2.83Z" transform="translate(-1080.575 -500.39)"/></g><g transform="translate(112.123 68.397)"><path class="f" d="M1075.055,509.78l7.088,2.849,5.889-4.84-7.118-2.875Z" transform="translate(-1075.055 -504.914)"/></g><g transform="translate(104.751 74.507)"><path class="f" d="M1069.528,514.337l7.085,2.875,5.871-4.849-7.086-2.868Z" transform="translate(-1069.528 -509.494)"/></g><g transform="translate(97.638 80.386)"><path class="f" d="M1064.2,518.73l7.057,2.845,5.862-4.8-7.056-2.872Z" transform="translate(-1064.195 -513.903)"/></g><g transform="translate(90.304 86.438)"><path class="f" d="M1058.7,523.24l7.023,2.925,5.851-4.86-7.04-2.866Z" transform="translate(-1058.697 -518.44)"/></g><g transform="translate(82.956 92.47)"><path class="f" d="M1053.188,527.759l7.013,2.9,5.872-4.824-7.042-2.873Z" transform="translate(-1053.188 -522.962)"/></g><g transform="translate(75.623 98.512)"><path class="f" d="M1047.69,532.283l7,2.912,5.856-4.817-7.014-2.887Z" transform="translate(-1047.69 -527.492)"/></g><g transform="translate(68.315 104.567)"><path class="f" d="M1042.211,536.8l6.99,2.946,5.821-4.831-6.968-2.885Z" transform="translate(-1042.211 -532.032)"/></g><g transform="translate(53.729 110.554)"><path class="f" d="M1031.275,547.333l6.914,2.9,13.164-10.779-6.984-2.932Z" transform="translate(-1031.275 -536.52)"/></g><g transform="translate(172.946 27.885)"><path class="f" d="M1120.655,480.667l7.263,2.794,7.521-6.166-7.3-2.754Z" transform="translate(-1120.655 -474.541)"/></g><g transform="translate(158.016 41.414)"><path class="f" d="M1109.462,489.545l7.257,2.841,5.921-4.918-7.232-2.783Z" transform="translate(-1109.462 -484.684)"/></g><g transform="translate(165.46 35.272)"><path class="f" d="M1115.044,484.938l7.271,2.834,5.945-4.932-7.269-2.761Z" transform="translate(-1115.044 -480.079)"/></g><g transform="translate(106.375 47.553)"><path class="f" d="M1070.745,530.507l7.083,2.879,50.286-41.316-7.234-2.784Z" transform="translate(-1070.745 -489.287)"/></g><g transform="translate(98.973 89.956)"><path class="f" d="M1065.2,525.931l7.122,2.915,5.859-4.852-7.069-2.916Z" transform="translate(-1065.196 -521.077)"/></g><g transform="translate(91.642 96.046)"><path class="f" d="M1059.7,530.46l7.057,2.95,5.88-4.867-7.075-2.9Z" transform="translate(-1059.699 -525.643)"/></g><g transform="translate(84.274 102.11)"><path class="f" d="M1054.176,534.993l7.048,2.935,5.883-4.837-7.06-2.9Z" transform="translate(-1054.176 -530.19)"/></g><g transform="translate(76.942 108.174)"><path class="f" d="M1048.679,539.531l7.015,2.926,5.886-4.811-7.047-2.911Z" transform="translate(-1048.679 -534.736)"/></g><g transform="translate(62.294 114.164)"><path class="f" d="M1037.7,550.076l6.965,2.946,13.21-10.859-7.02-2.936Z" transform="translate(-1037.697 -539.227)"/></g><g transform="translate(28.257 105.824)"><path class="f" d="M1012.178,537.694l6.809,2.9,5.771-4.764-6.836-2.856Z" transform="translate(-1012.178 -532.974)"/></g><g transform="translate(131.333 31.078)"><path class="f" d="M1089.458,481.8l7.115,2.756,5.9-4.848-7.151-2.769Z" transform="translate(-1089.458 -476.935)"/></g><g transform="translate(123.969 37.184)"><path class="f" d="M1083.936,486.3l7.111,2.823,5.879-4.9-7.12-2.717Z" transform="translate(-1083.936 -481.512)"/></g><g transform="translate(116.621 43.276)"><path class="f" d="M1078.427,490.892l7.087,2.819,5.866-4.874-7.1-2.757Z" transform="translate(-1078.427 -486.08)"/></g><g transform="translate(109.281 49.329)"><path class="f" d="M1072.924,495.425l7.071,2.809,5.87-4.849-7.083-2.767Z" transform="translate(-1072.924 -490.618)"/></g><g transform="translate(101.927 55.374)"><path class="f" d="M1067.411,499.943l7.053,2.844,5.873-4.868-7.075-2.769Z" transform="translate(-1067.411 -495.15)"/></g><g transform="translate(94.607 61.44)"><path class="f" d="M1061.923,504.5l7.036,2.835,5.86-4.841-7.048-2.793Z" transform="translate(-1061.923 -499.698)"/></g><g transform="translate(87.306 67.454)"><path class="f" d="M1056.448,509.009l6.99,2.833,5.854-4.818-7.029-2.817Z" transform="translate(-1056.448 -504.207)"/></g><g transform="translate(80.229 73.324)"><path class="f" d="M1051.143,513.391l6.98,2.864,5.828-4.83-6.992-2.818Z" transform="translate(-1051.143 -508.608)"/></g><g transform="translate(72.944 79.34)"><path class="f" d="M1045.681,517.917l6.962,2.841,5.817-4.789-6.966-2.851Z" transform="translate(-1045.681 -513.118)"/></g><g transform="translate(65.663 85.347)"><path class="f" d="M1040.223,522.4l6.928,2.871,5.83-4.8-6.967-2.85Z" transform="translate(-1040.223 -517.622)"/></g><g transform="translate(58.394 91.344)"><path class="f" d="M1034.773,526.892l6.9,2.916,5.8-4.825-6.931-2.864Z" transform="translate(-1034.773 -522.118)"/></g><g transform="translate(51.111 97.369)"><path class="f" d="M1029.313,531.418l6.929,2.854,5.788-4.752-6.9-2.885Z" transform="translate(-1029.313 -526.635)"/></g><g transform="translate(36.457 103.283)"><path class="f" d="M1031.315,531.069l-12.989,10.74,15.472,6.59,5.827-4.783-8.671-3.665,7.272-6.008Z" transform="translate(-1018.326 -531.069)"/></g><g transform="translate(84.789 46.711)"><path class="f" d="M1054.562,493.468l6.938,2.781,5.835-4.813-7-2.782Z" transform="translate(-1054.562 -488.655)"/></g><g transform="translate(77.507 52.739)"><path class="f" d="M1049.1,497.96l6.959,2.8,5.809-4.816-6.964-2.768Z" transform="translate(-1049.102 -493.175)"/></g><g transform="translate(70.271 58.764)"><path class="f" d="M1043.677,502.467l6.894,2.781,5.823-4.776-6.96-2.78Z" transform="translate(-1043.677 -497.692)"/></g><g transform="translate(63.024 64.779)"><path class="f" d="M1038.244,506.94l6.887,2.831,5.793-4.808-6.919-2.762Z" transform="translate(-1038.244 -502.201)"/></g><g transform="translate(52.162 73.76)"><path class="f" d="M1030.1,513.706l6.87,2.829,5.784-4.781-6.894-2.819Z" transform="translate(-1030.1 -508.935)"/></g><g transform="translate(44.951 79.712)"><path class="f" d="M1024.694,518.2l6.843,2.85,5.76-4.781-6.864-2.868Z" transform="translate(-1024.694 -513.398)"/></g><g transform="translate(37.747 85.69)"><path class="f" d="M1019.293,522.649l6.807,2.863,5.766-4.776-6.854-2.857Z" transform="translate(-1019.293 -517.879)"/></g><g transform="translate(30.517 91.683)"><path class="f" d="M1013.873,527.119l6.831,2.85,5.722-4.748-6.792-2.85Z" transform="translate(-1013.873 -522.372)"/></g><g transform="translate(18.479 97.679)"><path class="f" d="M1004.847,535.6l6.778,2.856,10.562-8.725-6.8-2.859Z" transform="translate(-1004.847 -526.868)"/></g><g transform="translate(112.613 65.335)"><path class="f" d="M1075.422,534.191l21.894,8.963,38.776-31.744-22.256-8.792Z" transform="translate(-1075.422 -502.619)"/></g></g><path class="d" d="M1101.981,378.726a1.857,1.857,0,0,0-1.838.447l-125.76,98.349a5.591,5.591,0,0,0-1.785,4.8l17.656,101.3a1.719,1.719,0,0,0,1,1.49h0c.008.048.047.041.047.041l4.523,1.645.157-4.6,122.134-102.085a5.574,5.574,0,0,0,1.763-4.788l-16.231-90.967.908.513,2.061-4.443-4.632-1.707Z" transform="translate(-972.542 -378.632)"/><g transform="translate(4.595 1.648)"><path class="f" d="M1103.569,380.436,977.81,478.789a5.646,5.646,0,0,0-1.766,4.814L993.7,584.92c.277,1.59,1.523,2.069,2.784,1.023L1121.54,481.386a5.6,5.6,0,0,0,1.791-4.815l-16.987-95.116C1106.063,379.846,1104.843,379.375,1103.569,380.436Z" transform="translate(-975.987 -379.867)"/></g><g transform="translate(25.385 12.212)"><path class="g" d="M1107.971,466.658l-116.4,97.3.427,2.453,118.437-99-14.254-79.621-2.044,1.676Z" transform="translate(-991.573 -387.787)"/></g><g transform="translate(10.801 13.888)"><path class="h" d="M995.223,563.534l116.4-97.3-13.831-77.2L980.639,480.136Z" transform="translate(-980.639 -389.043)"/></g></g><g transform="translate(106.606 271.094)"><path class="i" d="M952.742,608.38l46.988-26.5,78.752,25.562v9.586l-47.928,31.952L952.742,617.4l1.5-1.973-.188-5.545Z" transform="translate(-952.742 -581.879)"/><g transform="translate(1.316 28.005)"><path class="j" d="M953.729,602.875l75.557,30.636,47.364-30.636v5.545l-46.424,31.106-76.309-31.106Z" transform="translate(-953.729 -602.875)"/></g><g transform="translate(19.171 39.329)"><path class="k" d="M977.189,611.365s-9.792,4.651-10.074,15.647l18.514,7.048s1.6-12.5,11.017-14.805Z" transform="translate(-967.115 -611.365)"/></g></g><g transform="translate(231.02 107.572)"><rect class="l" width="0.288" height="1.018" transform="matrix(0.981, -0.194, 0.194, 0.981, 0, 0.056)"/></g></g><g transform="translate(1016.632 392.519)"><path class="c" d="M980.639,480.136l117.151-91.092,1.122,6.263L982.171,488.9Z" transform="translate(-980.639 -389.043)"/></g><g transform="translate(1056.083 469.854)"><path class="m" d="M1010.217,470.436l1.528,9.206,29.688-23.8-2.013-8.818Z" transform="translate(-1010.217 -447.024)"/></g><g transform="translate(1090.403 473.776)"><path class="m" d="M1035.948,473.376l1.528,9.206,29.687-23.8-2.012-8.818Z" transform="translate(-1035.948 -449.964)"/></g><g transform="translate(1113.484 417.024)"><path class="m" d="M1053.252,427.209l1.5,9.023,24.86-19.509-1.668-9.308Z" transform="translate(-1053.252 -407.415)"/></g><g transform="translate(1016.632 392.519)"><g class="n"><g transform="translate(0.078 4.962)"><g transform="translate(0 0)"><rect class="l" width="152.406" height="1.149" transform="translate(0 95.28) rotate(-38.695)"/></g><g transform="translate(1.63 9.124)"><rect class="l" width="152.406" height="1.149" transform="translate(0 95.28) rotate(-38.695)"/></g><g transform="translate(3.26 18.248)"><rect class="l" width="152.406" height="1.149" transform="translate(0 95.28) rotate(-38.695)"/></g><g transform="translate(4.89 27.372)"><rect class="l" width="152.406" height="1.149" transform="translate(0 95.28) rotate(-38.695)"/></g><g transform="translate(6.521 36.497)"><rect class="l" width="152.405" height="1.149" transform="translate(0 95.279) rotate(-38.695)"/></g><g transform="translate(8.15 45.621)"><rect class="l" width="152.406" height="1.149" transform="translate(0 95.28) rotate(-38.695)"/></g><g transform="translate(9.78 54.745)"><rect class="l" width="152.407" height="1.149" transform="translate(0 95.28) rotate(-38.695)"/></g><g transform="translate(11.411 63.869)"><rect class="l" width="152.406" height="1.149" transform="translate(0 95.28) rotate(-38.695)"/></g><g transform="translate(3.176 82.159)"><rect class="l" width="1.149" height="86.411" transform="translate(0 0.188) rotate(-9.423)"/></g><g transform="translate(32.605 58.317)"><rect class="l" width="1.149" height="86.41" transform="translate(0 0.188) rotate(-9.422)"/></g><g transform="translate(62.032 34.475)"><rect class="l" width="1.149" height="86.41" transform="translate(0 0.188) rotate(-9.422)"/></g><g transform="translate(91.46 10.634)"><rect class="l" width="1.149" height="86.41" transform="translate(0 0.188) rotate(-9.422)"/></g></g></g></g></g></svg>