<svg xmlns="http://www.w3.org/2000/svg" width="338.854" height="71.049" viewBox="0 0 338.854 71.049"><g transform="translate(-746.436 -383.678)"><g transform="translate(-138.125 -10.258)"><rect width="55.709" height="70.495" transform="translate(1073.242 394.204)" fill="#fff" stroke="#201600" stroke-miterlimit="500" stroke-width="0.5"/><rect width="54.199" height="69.062" transform="translate(1074.051 394.903)" fill="#0c489b"/><rect width="44.946" height="44.946" transform="translate(1078.679 399.717)" fill="#fff"/></g><path d="M998.042,420.605l-5.056-2.986,10.069-3.651,5.666,2.8Z" transform="translate(-138.125 -10.258)" fill="#201600" fill-rule="evenodd"/><path d="M990.375,415.032v10.654l1.434-.528v-2.989l19.114,11.405v-6.349l.437-.16,10.371-3.815-12.19-6.074-11.57,4.157-6.536-3.859,12.011-4.272.769.4v-3.666Z" transform="translate(-138.125 -10.258)" fill="#201600" fill-rule="evenodd"/><path d="M1011.59,427.689v10.653l1.435-.528v-2.993l10.971-4.036v2.993l1.433-.528V422.6Z" transform="translate(-138.125 -10.258)" fill="#201600" fill-rule="evenodd"/><g transform="translate(-138.125 -10.258)"><rect width="55.709" height="70.495" transform="translate(884.812 394.24)" fill="#fff" stroke="#201600" stroke-miterlimit="500" stroke-width="0.5"/><rect width="54.199" height="69.062" transform="translate(885.62 394.939)" fill="#0c489b"/><rect width="44.946" height="44.946" transform="translate(890.248 399.753)" fill="#fff"/><path d="M912.276,425.131l-12.508,13.225a2.683,2.683,0,0,1-2.852-2.852l13.276-12.558Z" fill="#201600" fill-rule="evenodd"/><path d="M915.214,422.031l-2.022-1.923,2.888-2.724a4.419,4.419,0,0,0,1.243-3.469,3.961,3.961,0,0,1,1.671-3.151l5.564-3.955c.363-.264.816.288.5.6l-4.9,4.9a.4.4,0,0,0,.564.566l4.9-4.9c.325-.364.9.2.551.554l-4.9,4.9a.4.4,0,0,0,.567.563l4.9-4.9c.353-.352.916.225.553.552l-4.9,4.9a.4.4,0,0,0,.565.566l4.9-4.9c.325-.327.865.15.6.5l-3.956,5.563a4.229,4.229,0,0,1-3.818,1.683,3.944,3.944,0,0,0-2.8,1.232Z" fill="#201600" fill-rule="evenodd"/><path d="M909.606,417.879l2.684,2.459,16.136,15.247a2.7,2.7,0,0,1-2.861,2.861L910.32,422.309l-2.461-2.685c-2.083.892-5.269-.1-7.752-2.579-2.947-2.949-3.789-6.888-1.88-8.8s5.851-1.068,8.8,1.879C909.507,412.608,910.5,415.794,909.606,417.879Z" fill="#201600" fill-rule="evenodd"/></g><g transform="translate(-138.125 -10.258)"><rect width="55.709" height="70.495" transform="translate(979.027 394.222)" fill="#fff" stroke="#201600" stroke-miterlimit="500" stroke-width="0.5"/><rect width="54.199" height="69.062" transform="translate(979.835 394.921)" fill="#0c489b"/><rect width="44.946" height="44.946" transform="translate(984.463 399.735)" fill="#fff"/></g><g transform="translate(-138.125 -10.258)"><rect width="55.709" height="70.495" transform="translate(1167.458 394.186)" fill="#fff" stroke="#201600" stroke-miterlimit="500" stroke-width="0.5"/><rect width="54.199" height="69.062" transform="translate(1168.266 394.885)" fill="#0c489b"/><rect width="44.946" height="44.946" transform="translate(1172.894 399.699)" fill="#fff"/></g><path d="M1101.725,421.539h.392v-5.022h-8.043v-2.982h8.043V412.2h-8.043v-2.982l5.493-1.648h8.553v4.63h-3.727v1.334h3.727v2.982h-3.727v5.022h.391a.826.826,0,0,1,.826.824V436.8a.827.827,0,0,1-.826.824h-3.059a.827.827,0,0,1-.825-.824V422.363A.826.826,0,0,1,1101.725,421.539Z" transform="translate(-138.125 -10.258)" fill="#201600" fill-rule="evenodd"/><path d="M1190.493,406.752l-1.581.441,3.352,8.571,1.351-.521a.851.851,0,0,0,.311-1.116l-2.468-6.673A.823.823,0,0,0,1190.493,406.752Z" transform="translate(-138.125 -10.258)" fill="#201600" fill-rule="evenodd"/><path d="M1199.371,428.331a6.019,6.019,0,0,1-1.085,1.047,1.344,1.344,0,0,1-1.864-.446l-6.713-10.112a1.483,1.483,0,0,1,.314-2.028,4.966,4.966,0,0,1,1.255-.574l-3.394-8.72a10.165,10.165,0,0,0-2.841,1.928,11,11,0,0,0-2.162,2.958c.253,3.393,2.549,9.077,5.993,14.231,3.311,4.957,7.815,9.451,10.854,10.983a9.532,9.532,0,0,0,3.265-.868,12,12,0,0,0,2.936-1.775Z" transform="translate(-138.125 -10.258)" fill="#201600" fill-rule="evenodd"/><path d="M1202.419,426.893a.861.861,0,0,0-1.159-.118l-1.026.919,6.543,6.632.931-1.062a1.177,1.177,0,0,0-.074-1.252Z" transform="translate(-138.125 -10.258)" fill="#201600" fill-rule="evenodd"/></g></svg>