<svg xmlns="http://www.w3.org/2000/svg" xmlns:xlink="http://www.w3.org/1999/xlink" width="47.531" height="77.409" viewBox="0 0 47.531 77.409"><defs><clipPath id="a"><path d="M3944.353,227.272a3.763,3.763,0,0,1,1.557-2.27,5.39,5.39,0,0,1-.034-.591v-14.1c5.167,13.137,21.846,11.809,21.846,11.809s16.68,1.328,21.846-11.809v14.1a5.451,5.451,0,0,1-.034.591,3.767,3.767,0,0,1,1.557,2.27,15.8,15.8,0,0,1,.4,3.556c0,3.72-.613,24.5-.774,29.875a5.614,5.614,0,0,1-.791,2.708,22.9,22.9,0,0,1-7.467,7.526c-8.3,5.241-19.194,4.783-27.851.7a20.862,20.862,0,0,1-9.084-8.227,5.616,5.616,0,0,1-.791-2.708c-.16-5.376-.773-26.155-.773-29.875A15.772,15.772,0,0,1,3944.353,227.272Z" transform="translate(-3943.957 -210.31)" fill="none"/></clipPath></defs><g transform="translate(0.001)"><path d="M3944.353,247.333a3.791,3.791,0,0,1,4.125-2.906l19.244,2.181,19.244-2.181a3.792,3.792,0,0,1,4.125,2.906,15.8,15.8,0,0,1,.4,3.556c0,3.72-.613,24.5-.774,29.875a5.615,5.615,0,0,1-.791,2.708,22.9,22.9,0,0,1-7.467,7.527c-8.3,5.241-19.194,4.783-27.851.7a20.861,20.861,0,0,1-9.084-8.227,5.614,5.614,0,0,1-.791-2.708c-.16-5.376-.773-26.155-.773-29.875A15.771,15.771,0,0,1,3944.353,247.333Z" transform="translate(-3943.957 -217.437)" fill="#b42424"/><path d="M3970.465,222.119s16.68,1.328,21.846-11.809v14.1a5.361,5.361,0,0,1-1.742,3.952c-2.9,2.662-9.478,7.357-20.1,7.778-10.625-.421-17.2-5.116-20.1-7.778a5.361,5.361,0,0,1-1.742-3.952v-14.1C3953.785,223.447,3970.465,222.119,3970.465,222.119Z" transform="translate(-3946.7 -197.376)" fill="#e2e2e2"/><path d="M3944.353,208.78a3.763,3.763,0,0,1,1.557-2.27,5.39,5.39,0,0,1-.034-.591v-14.1c.006.015.013.029.019.044-.008-.143-.019-.286-.019-.431,0-6.929,9.781-12.547,21.846-12.547s21.846,5.618,21.846,12.547c0,.144-.01.288-.019.431.006-.015.013-.028.019-.044v14.1a5.451,5.451,0,0,1-.034.591,3.767,3.767,0,0,1,1.557,2.27,15.8,15.8,0,0,1,.4,3.556c0,3.72-.613,24.5-.774,29.875a5.614,5.614,0,0,1-.791,2.708,22.9,22.9,0,0,1-7.467,7.527c-8.3,5.241-19.194,4.783-27.851.7a20.861,20.861,0,0,1-9.084-8.227,5.614,5.614,0,0,1-.791-2.708c-.16-5.376-.773-26.155-.773-29.875A15.772,15.772,0,0,1,3944.353,208.78Z" transform="translate(-3943.957 -178.884)" fill="none"/><g transform="translate(0 12.934)"><g clip-path="url(#a)"><path d="M3935.945,210.494s-.345,13.352-.524,17.048a3.664,3.664,0,0,0-1.17,1.444c-.689,1.953.347,35.951.347,35.951a1.777,1.777,0,0,0,.228.969c.248.269-5.427,2.476-5.427,2.476l-10.854-12.146.776-21.622s3.359-27.2,4.221-29.375S3935.945,210.494,3935.945,210.494Z" transform="translate(-3929.003 -207.091)" fill="#020202" opacity="0.13"/></g></g><ellipse cx="21.846" cy="12.547" rx="21.846" ry="12.547" transform="translate(1.919 0)" fill="#afafaf"/><path d="M3958.284,206.826s-1-2.966,5.27-2.656,4.722,2.1,10.707,2.027,7.22-.024,8.965-2.987,7.479-6.145,8.774-7.2,2.074-2.138,3.44-1.126a13.382,13.382,0,0,1,3.576,5.083,20.135,20.135,0,0,1,.484,4.819c-.175.732-.73,2.956-1.551,3.575s-1.03,2.237-1.594,3.471-1.381,3.346-3.29,3.052-3.106-.719-4.5-.258-5.667-.1-7-.2a20.982,20.982,0,0,0-3.707.294s-10.738.738-18.979-6Z" transform="translate(-3952.353 -188.059)" fill="#b42424"/></g></svg>