<svg xmlns="http://www.w3.org/2000/svg" width="156" height="156" viewBox="0 0 156 156"><defs><style>.a{fill:#fdbb41;}.b{fill:#fff;}.c{fill:#497b90;}.d{opacity:0.86;}.e{fill:#89a527;}.f{opacity:0.85;}.g{fill:#cbdf7d;}.h{opacity:0.6;}.i{fill:#b3d336;}.j{opacity:0.2;}.k{opacity:0.1;}.l{opacity:0.38;}.m{fill:#333;}.n{fill:#fbad18;}</style></defs><g transform="translate(-182.288 -426.771)"><g transform="translate(182.288 426.771)"><circle class="a" cx="78" cy="78" r="78"/></g><g transform="translate(207.004 433.45)"><path class="b" d="M345.08,504.269a1.629,1.629,0,0,1-1.62-1.483,68.068,68.068,0,0,0-118.241-39.551,1.628,1.628,0,0,1-2.413-2.187A71.327,71.327,0,0,1,346.7,502.5a1.63,1.63,0,0,1-1.477,1.767C345.178,504.267,345.128,504.269,345.08,504.269Z" transform="translate(-222.384 -437.606)"/><g transform="translate(117.588 62.18)"><path class="b" d="M418.533,547.62a31.5,31.5,0,0,1,4.51-9.141l-4.862,2.035-5.038-1.546A31.466,31.466,0,0,1,418.533,547.62Z" transform="translate(-413.144 -538.479)"/></g></g><g transform="translate(186.871 504.771)"><g transform="translate(2.442 5.365)"><path class="b" d="M264.659,627.969A71.331,71.331,0,0,1,193.692,563.8a1.629,1.629,0,0,1,3.241-.322,68.07,68.07,0,0,0,120.249,36.462,1.628,1.628,0,0,1,2.512,2.073A71.139,71.139,0,0,1,264.659,627.969Z" transform="translate(-193.684 -562.012)"/></g><path class="b" d="M189.722,563.84l4.225-2.1,4.443,1.584-4.944-10.017Z" transform="translate(-189.722 -553.309)"/></g><g transform="translate(198.922 446.254)"><path class="c" d="M329.6,518.528q0,2.272-.175,4.519a57.968,57.968,0,0,1-1.613,10.035c-.069.285-.142.566-.219.847-.057.216-.118.432-.179.647-.114.419-.236.834-.362,1.249a1.9,1.9,0,0,1-.062.2c-.1.33-.2.659-.309.989-.139.424-.281.843-.428,1.262-.049.142-.1.285-.155.427-.122.35-.252.7-.387,1.05-.264.741-.562,1.465-.871,2.194-.6,1.417-1.246,2.813-1.963,4.177a58.085,58.085,0,0,1-3.338,5.7,61.191,61.191,0,0,1-10.332,11.862l-.008,0a60.169,60.169,0,0,1-43.285,14.9c-.2-.012-.411-.025-.615-.041a58.92,58.92,0,0,1-13.93-2.634c-.411-.126-.814-.256-1.217-.395-1.16-.387-2.3-.822-3.428-1.286-.716-.289-1.425-.591-2.129-.924l-.008,0c-1.657-.753-3.273-1.571-4.844-2.471a59.1,59.1,0,0,1-5.154-3.273c-1.213-.847-2.386-1.754-3.513-2.7-1.2-.977-2.345-2.015-3.464-3.09-.9-.871-1.779-1.767-2.609-2.7a57.454,57.454,0,0,1-5.4-6.815,59.913,59.913,0,0,1-8.142-17.687q-.061-.2-.11-.4c-.069-.261-.138-.525-.207-.79s-.139-.546-.2-.823v0c0-.025-.012-.045-.016-.069a.061.061,0,0,0-.008-.025c-.118-.513-.24-1.034-.346-1.547-.041-.183-.077-.366-.114-.549-.012-.069-.028-.142-.041-.211-.008-.045-.012-.09-.02-.139l0-.008c-.057-.293-.114-.586-.167-.88q-.251-1.392-.44-2.78c0-.008,0-.017,0-.025-.158-1.205-.28-2.41-.358-3.6,0-.073-.012-.147-.012-.22q-.049-.659-.073-1.319-.128-2.619-.012-5.211c.032-.774.077-1.547.142-2.317a59.719,59.719,0,0,1,2.381-12.526c.521-1.718,1.116-3.416,1.8-5.077.37-.949.774-1.876,1.2-2.8.5-1.079,1.034-2.146,1.616-3.2a59.76,59.76,0,0,1,5.638-8.634c.366-.469.745-.941,1.132-1.4.444-.525.887-1.054,1.351-1.563.378-.423.753-.835,1.144-1.241.138-.15.272-.3.415-.444.366-.378.741-.753,1.119-1.127h.008c.4-.411.81-.8,1.229-1.185q.6-.568,1.222-1.111c.016-.012.032-.028.049-.041.427-.378.871-.745,1.311-1.115.407-.342.827-.676,1.254-1.014.5-.395,1.018-.79,1.543-1.168.419-.305.843-.611,1.27-.912a.5.5,0,0,0,.077-.045c.472-.33.936-.643,1.417-.957.009-.008.025-.025.033-.025.468-.3.957-.6,1.433-.9h.008c.591-.358,1.18-.713,1.8-1.055.362-.2.732-.411,1.107-.607s.745-.4,1.124-.59q1.2-.611,2.45-1.172c.334-.155.68-.305,1.022-.448.4-.171.79-.333,1.193-.5s.794-.317,1.2-.472.811-.3,1.217-.448c.386-.138.774-.272,1.177-.395q2.5-.843,5.113-1.462c.656-.159,1.319-.306,1.982-.431.636-.134,1.27-.256,1.9-.358.61-.106,1.213-.2,1.82-.285.277-.036.541-.077.81-.1a2.385,2.385,0,0,1,.33-.041c.924-.114,1.84-.2,2.756-.264.219-.025.444-.037.655-.049a.344.344,0,0,1,.1,0c.489-.036.986-.057,1.478-.078.02,0,.049,0,.069,0,1.29-.045,2.581-.049,3.863-.008.652.02,1.294.041,1.938.086s1.294.093,1.937.155,1.274.126,1.91.211c.574.069,1.143.158,1.714.248.5.077,1,.163,1.5.248.358.065.708.138,1.058.211a.647.647,0,0,1,.175.036c.387.073.782.155,1.164.248.309.065.611.139.912.216.6.139,1.205.3,1.8.468.147.036.281.073.431.126.281.069.554.15.843.24.346.1.692.2,1.046.325.346.106.688.228,1.038.342s.692.228,1.034.358.68.253,1.021.383q2.065.776,4.071,1.726l.009,0c.484.228.96.456,1.429.7.391.191.769.387,1.148.591s.774.411,1.156.623c.44.24.871.48,1.294.741.509.289,1.013.6,1.506.912.3.2.611.387.9.591.106.061.208.126.3.191a.291.291,0,0,1,.106.073c.358.236.721.477,1.062.725.114.073.22.146.317.219.33.236.66.468.981.7a.008.008,0,0,1,.008.008c.33.228.639.456.932.7.273.208.55.415.814.627.387.3.761.611,1.144.932.472.4.949.79,1.413,1.209.358.317.721.651,1.074.977q.849.8,1.677,1.628a58.88,58.88,0,0,1,7.01,8.479c.09.126.167.257.256.379v.012c.912,1.347,1.759,2.732,2.557,4.156a58.577,58.577,0,0,1,3.615,7.751c.252.639.48,1.278.7,1.93.557,1.608,1.046,3.244,1.457,4.926.081.264.147.533.211.8.306,1.3.566,2.589.794,3.883l0,.008c.224,1.364.4,2.731.541,4.091q.061.6.11,1.209v0c.025.314.049.631.07.944a.493.493,0,0,1,0,.073c.012.147.02.293.025.436.016.216.024.432.036.647.025.525.041,1.05.045,1.571C329.6,517.832,329.6,518.178,329.6,518.528Z" transform="translate(-209.272 -458.377)"/><g class="d" transform="translate(10.74 70.692)"><path class="e" d="M262.258,598.242c.526,1.675.5,3.777-.88,4.858-.769.594-1.863.806-2.4,1.619-.954,1.46.629,3.628-.325,5.088a6.481,6.481,0,0,1-1.369,1.2c-2.437,2.058-1.393,6.115.567,8.634.07.091.139.172.209.263-.412-.127-.814-.256-1.219-.4-1.159-.39-2.3-.823-3.428-1.288-.715-.29-1.423-.591-2.128-.922l-.009,0c-5.236-7.816-10.329-15.853-17.531-21.851-1.889-1.566-4-3.119-4.834-5.426-.584-1.632-.427-3.441-.8-5.143-.26-1.171-.636-2.383-.934-3.555a15.478,15.478,0,0,1-.438-2.294,4.8,4.8,0,0,1,2.99-5.282c3.628-1.783,9.422.195,12.268,2.571,3.177,2.66,5.405,6.964,9.477,7.708,2.915.53,6.567-.78,8.47,1.5,1.7,2.043.318,5.121.623,7.759C260.768,595.024,261.726,596.578,262.258,598.242Z" transform="translate(-226.695 -573.059)"/></g><g class="f" transform="translate(46.623 41.638)"><path class="g" d="M295.271,529.431c-.969-1.91-4.079-.366-4.7,1.682s-.278,4.484-1.648,6.13c-1.045,1.256-2.9,1.756-3.65,3.2a5.527,5.527,0,0,0-.2,3.38l.991,6.514c.266,1.751.586,3.616,1.793,4.913s3.626,1.6,4.622.136a13.366,13.366,0,0,0,.841-2.287,3.416,3.416,0,0,1,3.136-1.992,5.939,5.939,0,0,1,3.036,1.212c7.481,4.995,11.785,13.615,14.129,22.3a14.294,14.294,0,0,0,1.765,4.583c1.105,1.581,2.9,2.646,3.758,4.371.663,1.325.721,2.942,1.635,4.108,1.683,2.148,5.408,1.369,7.013-.838s1.641-5.161,1.424-7.881-.608-5.547.333-8.108c.584-1.589,1.663-3,1.939-4.674.385-2.334-.873-4.693-.557-7.038.42-3.111,3.362-5.144,5.2-7.692s1.693-7.288-1.426-7.649c-1.18-.137-2.355.48-3.532.319-1.535-.21-2.567-1.632-3.413-2.931l-6.66-10.227c-1.338-2.053-3.176-4.365-5.616-4.133-1.382.131-2.528,1.078-3.8,1.635C307.306,530.39,296.979,521.152,295.271,529.431Z" transform="translate(-284.908 -525.925)"/></g><g class="h" transform="translate(1.122 68.292)"><path class="i" d="M222.918,579.262a.86.86,0,0,1-.538.293c-.4.1-.794.2-1.2.273-.146.028-.3.052-.444.077a16.257,16.257,0,0,1-2.63.216.924.924,0,0,1-.61-.15,1.109,1.109,0,0,1-.269-.591c-.387-1.3-1.865-1.865-3.159-2.251a10,10,0,0,0-2.019-.46c-.069-.261-.138-.525-.207-.79s-.139-.546-.2-.823v0c0-.025-.012-.045-.016-.069a.061.061,0,0,0-.008-.025c-.118-.513-.24-1.034-.346-1.547-.041-.183-.077-.366-.114-.549-.012-.069-.028-.142-.041-.211-.008-.045-.012-.09-.02-.139l0-.008a4.767,4.767,0,0,0,.366-.558c.44-.741,1.01-3.57,2.365-2.569a.972.972,0,0,1,.293,1.152c-.224.492-.851.741-.994,1.254-.179.61.407,1.176.994,1.408.224.094.464.163.7.236a2.638,2.638,0,0,1,1.026.509c.908.811.611,2.439,1.5,3.273.7.652,1.763.521,2.74.4.1-.017.2-.029.3-.041.122-.012.24-.02.367-.029.981-.02,2.068.3,2.243,1.217A.617.617,0,0,1,222.918,579.262Z" transform="translate(-211.092 -569.166)"/></g><g class="h" transform="translate(0 26.096)"><path class="i" d="M233.521,511.539q-1.8.739-3.607,1.486a3.5,3.5,0,0,0-1.437.871,1.242,1.242,0,0,0-.118,1.563,3.794,3.794,0,0,0,.806.513,2.047,2.047,0,0,1-.513,3.525c-.493.139-1.03.07-1.535.171-1.5.289-2.361,1.873-2.756,3.346-.041.155-.081.309-.114.468a9,9,0,0,1-1.425,3.794c-1.568,1.889-4.934,2.341-5.337,4.763a5.4,5.4,0,0,0,.652,2.849,3.907,3.907,0,0,1,.317,2.87,1.709,1.709,0,0,1-1.042.936,1.151,1.151,0,0,1-1.319-.293,2.22,2.22,0,0,1-.35-1.221c-.1-1.425-.216-2.846-.33-4.267A4.15,4.15,0,0,0,214.4,530c-1.119-.965-2.984-.407-3.851.79a6.917,6.917,0,0,0-.94,4.238,17.036,17.036,0,0,1-.175,3.925.014.014,0,0,0,0,.012c0-.073-.012-.147-.012-.22q-.049-.659-.073-1.319-.128-2.619-.012-5.211c.032-.774.077-1.547.142-2.317a59.719,59.719,0,0,1,2.381-12.526c.521-1.718,1.116-3.416,1.8-5.077,0,0,0,0,.008,0,.139-.049.281-.1.423-.147a7.026,7.026,0,0,0,2.37-.985,15.154,15.154,0,0,0,1.482-1.84c1.335-1.531,3.924-2.373,3.9-4.4a13.9,13.9,0,0,1-.256-2.024c.179-1.266,1.685-1.8,2.931-2.08.525-.126,1.164-.2,1.514.208a1.357,1.357,0,0,1,.2,1.087,10.377,10.377,0,0,1-3.009,6.236c-1.38,1.364-3.3,2.626-3.31,4.563.35.542,1.376.281,1.685.79a.36.36,0,0,1,.049.089c.192.5-.411.932-.545,1.453-.187.757.814,1.392,1.571,1.172a3.465,3.465,0,0,0,1.709-1.584c1.315-1.966,2.683-4.071,2.765-6.44.041-.981-.123-2.076.472-2.862a1.861,1.861,0,0,1,2.959.224c.635-.582,1.7-1.16,2.263-.488a3.926,3.926,0,0,1,.366.835c.521,1.127,2.271,1.278,2.72,2.434C236.451,509.862,234.852,511,233.521,511.539Z" transform="translate(-209.272 -500.712)"/></g><g class="h" transform="translate(27.247 3.306)"><path class="i" d="M256.964,473.472a6.857,6.857,0,0,0-2.781.677c-.8.541-1.025,1.982-.139,2.359.494.21,1.068-.018,1.593.088.971.2,1.359,1.442,1.139,2.408s-.837,1.8-1.146,2.737a4.545,4.545,0,0,0,.008,2.831,2.516,2.516,0,0,0,1.2,1.534c1.256.591,2.689-.512,3.343-1.738s.959-2.681,1.953-3.65a6.838,6.838,0,0,1,1.744-1.114l4.174-2.105a3.3,3.3,0,0,0,1.678-1.4c.38-.857-.03-1.862.129-2.787.264-1.535,2-2.475,2.313-4a4.626,4.626,0,0,1,.367-1.743c.282-.413.8-.605,1.114-.993.706-.866-.01-2.284-1.065-2.652-2.644-.92-6.466,1.781-8.108,3.688C262.374,470.066,260.408,472.881,256.964,473.472Z" transform="translate(-253.475 -463.741)"/></g><g class="h" transform="translate(53.266 10.592)"><path class="i" d="M358.922,509c.292,1.225.535,2.442.752,3.666l0,.009a3.269,3.269,0,0,1-1.987,1.517,3.672,3.672,0,0,1-3.517-1.65,28.391,28.391,0,0,1-1.943-3.623,2.631,2.631,0,0,0-1.576-1.455,10.587,10.587,0,0,0-1.466.016c-1.752-.1-2.742-2.278-4.459-2.618a5.427,5.427,0,0,0-1.634.047,8.372,8.372,0,0,1-6.135-1.275,10.44,10.44,0,0,0-1.652-1.271,1.572,1.572,0,0,0-1.913.271c.645.771,1.282,1.544,1.917,2.307a7.064,7.064,0,0,0,1.97,1.833,2.41,2.41,0,0,0,2.566-.055c.233-.185.448-.449.753-.485a.912.912,0,0,1,.615.214c1.426.983,1.552,3.143.754,4.682a10.843,10.843,0,0,1-3.678,3.574,3.416,3.416,0,0,1-1.668.758c-1.133.057-1.991-.986-2.558-1.97-1.266-2.175-2.213-4.64-4.136-6.271a8.848,8.848,0,0,1-1.777-1.6c-.484-.717-.633-1.652-1.27-2.23-.663-.61-1.8-.782-2.082-1.64a1.64,1.64,0,0,1,.686-1.661c.5-.4,1.106-.633,1.627-1.007.2-.15.419-.377.369-.624-.088-.367-.63-.4-.843-.705-.231-.352.077-.8.153-1.22.155-.942-.944-1.6-1.892-1.74s-2.042-.152-2.644-.9a5.13,5.13,0,0,1-.577-1.184,2.813,2.813,0,0,0-2.584-1.77,1.853,1.853,0,0,0-1.651,2.343c.244.561.79.912,1.155,1.4s.5,1.306-.023,1.613c-.852.5-2.135-.97-2.767-.21.571,1,1.133,2,1.706,3.014-1.061.9-2.769.133-3.584-1s-1.173-2.559-2.072-3.62-2.769-1.577-3.615-.47c.318,1.569,2.524,1.71,3.733,2.753a2.171,2.171,0,0,1,.294,3.063c-.825.806-2.595.165-2.479-.981a4.722,4.722,0,0,0,.218-1.179c-.081-.5-.586-.794-1.037-1.02-.705-.359-1.408-.71-2.11-1.06a3.783,3.783,0,0,0-1.439-.489c-1.29-.063-2.264,1.2-2.646,2.432a16.022,16.022,0,0,1-1.106,3.7,3.536,3.536,0,0,1-4.859,1.175,2.942,2.942,0,0,1,.115-4.722c.621-.342,1.465-.525,1.675-1.194.364-1.187-1.7-2.1-1.348-3.293.272-.915,1.584-.839,2.412-1.323a4.287,4.287,0,0,0,1.447-2.387c.335-.884.965-1.847,1.923-1.862a2.881,2.881,0,0,1-.282-1.615c.12-.546.709-1.019,1.222-.808a1.662,1.662,0,0,0,1.372,1.92,4.859,4.859,0,0,0,2.589-.422c.833-.309,1.833-.88,1.7-1.754-.04-.286-.216-.558-.174-.846.133-1.113,2.357-.155,2.888-1.15.317-.528-.327-1.179-.946-1.179a6.573,6.573,0,0,0-1.755.51c-.589.168-1.389.025-1.557-.563s.39-1.156.323-1.75c-.12-1.007-1.842-.865-2.239.071a3.838,3.838,0,0,0,.48,2.908c.415.928.775,2.053.22,2.906-.2.536-1.05.481-1.429.053a4.047,4.047,0,0,1-.643-1.575c-.177-.55-.572-1.121-1.15-1.141a3.062,3.062,0,0,0-1.132.408c-1.478.546-3.005-1.17-2.869-2.737s1.284-2.838,2.446-3.9c.851-.776,1.945-1.572,3.048-1.253.515.145.934.508,1.442.664a5.36,5.36,0,0,0,2.68-.314,6.244,6.244,0,0,1,4.157.573c.479.264.987.772.783,1.274-.224.534-1.155.857-.861,1.351a1.949,1.949,0,0,0,2.014-2.1,1.637,1.637,0,0,1,1.227,1.076,2.911,2.911,0,0,1,4.236-.648,3.688,3.688,0,0,0,1.005.806c.4.144.989-.115.935-.537a.853.853,0,0,0-.162-.369c-.351-.545-.709-1.079-1.059-1.615.71-.631,1.834-.178,2.56.427,2.7,2.251,3.768.258,6.761.018,2.021-.167,3.176.88,4.639,2.131,4.483,3.85,9.852,6.6,14.08,10.735.444.43.864.876,1.269,1.334.009,0,0,.009,0,.009.858,1.275,1.659,2.582,2.413,3.927a55.022,55.022,0,0,1,3.415,7.321c.235.6.453,1.2.664,1.82.528,1.52.987,3.065,1.375,4.655C358.8,508.489,358.861,508.743,358.922,509Z" transform="translate(-295.684 -475.561)"/></g><g class="j" transform="translate(0.005 0.023)"><path class="b" d="M281.454,459.625c-.053,0-.106-.012-.159-.012-.647-.045-1.29-.065-1.942-.089-1.278-.037-2.569-.033-3.863.012-.02-.008-.049,0-.069,0-.493.02-.989.036-1.478.077a.368.368,0,0,0-.1,0c-.212.012-.432.024-.652.049-.916.061-1.836.15-2.756.261-.106.008-.219.024-.333.041-.269.024-.533.069-.806.106-.607.085-1.213.179-1.824.285-.631.1-1.266.224-1.9.354q-.995.2-1.982.436-2.607.617-5.113,1.462c-.4.122-.79.256-1.176.395-.139.049-.277.1-.415.151-.264.1-.533.2-.8.3-.4.155-.806.309-1.2.472s-.794.325-1.193.5c-.338.138-.684.289-1.018.448-.835.375-1.649.766-2.455,1.172-.374.187-.749.383-1.119.591s-.749.4-1.111.607c-.61.341-1.2.7-1.8,1.05l-.008,0c-.477.3-.961.6-1.429.9a.056.056,0,0,0-.033.024c-.485.314-.949.627-1.417.957a.461.461,0,0,0-.078.045c-.427.3-.855.607-1.27.912-.53.379-1.042.774-1.543,1.169-.431.338-.851.671-1.258,1.013-.44.366-.879.737-1.311,1.116a.4.4,0,0,0-.049.04c-.032.029-.069.062-.1.094-.378.33-.753.672-1.119,1.018-.419.383-.826.774-1.225,1.181l-.012,0c-.379.375-.75.745-1.12,1.128-.142.142-.272.288-.415.439-.391.407-.761.818-1.14,1.241-.469.513-.908,1.038-1.352,1.568-.391.464-.765.932-1.135,1.4a60.274,60.274,0,0,0-5.638,8.63c-.578,1.058-1.107,2.125-1.616,3.2-.468,1.022-.912,2.051-1.327,3.1q-.934,2.35-1.669,4.779a58.744,58.744,0,0,0-1.661,6.933c-.33,1.84-.57,3.708-.724,5.593a59.759,59.759,0,0,0-.131,7.694c.081,1.653.228,3.314.444,4.974.081.586.167,1.172.264,1.759.122.753.256,1.507.411,2.26.134.7.3,1.417.464,2.12.126.517.253,1.03.387,1.539.049.191.1.382.155.574.158.578.325,1.156.5,1.726q.684,2.235,1.535,4.38a59.5,59.5,0,0,0,4.238,8.642q.891,1.5,1.865,2.935a57.341,57.341,0,0,0,5.4,6.819c.827.928,1.706,1.828,2.606,2.7,1.119,1.075,2.267,2.113,3.469,3.09.366.305.737.61,1.111.9q1.172.934,2.4,1.795a60.49,60.49,0,0,0,5.154,3.273q.922.519,1.86,1.01,2.5,1.313,5.121,2.381c1.127.464,2.267.9,3.428,1.286a59.889,59.889,0,0,0,7.075,1.921c.07.016.139.033.208.045a59.909,59.909,0,0,1-15.351-3.049c-1.16-.391-2.3-.826-3.427-1.29A60.525,60.525,0,0,1,234.6,567.6c-1.209-.847-2.386-1.751-3.509-2.7-1.2-.977-2.349-2.015-3.468-3.089-.9-.871-1.779-1.767-2.606-2.695a57.6,57.6,0,0,1-5.4-6.819,59.85,59.85,0,0,1-8.142-17.684.054.054,0,0,1,0-.024q-.061-.2-.11-.4c-.069-.261-.138-.525-.207-.79s-.139-.546-.2-.823v0c0-.025-.012-.045-.016-.069a.061.061,0,0,0-.008-.025c-.118-.513-.24-1.034-.346-1.547-.041-.183-.077-.366-.114-.549-.012-.069-.028-.142-.041-.211-.069-.342-.134-.684-.191-1.026q-.251-1.392-.439-2.78c0-.008,0-.017,0-.025-.155-1.209-.277-2.414-.354-3.615-.009-.07-.012-.139-.017-.208q-.049-.659-.073-1.319-.122-2.626-.008-5.219.049-1.148.142-2.284a59.4,59.4,0,0,1,2.386-12.526c.521-1.73,1.124-3.436,1.8-5.1q.568-1.4,1.2-2.773c.509-1.082,1.038-2.145,1.616-3.2a60.33,60.33,0,0,1,5.638-8.634c.37-.468.745-.941,1.136-1.4.44-.525.883-1.05,1.348-1.563.383-.423.753-.835,1.144-1.241.142-.15.272-.3.415-.44.37-.383.741-.753,1.119-1.128l.012,0c.4-.407.806-.8,1.225-1.18.4-.379.81-.753,1.221-1.116a.364.364,0,0,0,.049-.041c.431-.374.872-.745,1.311-1.115.407-.342.827-.676,1.258-1.014.5-.391,1.013-.79,1.539-1.168.419-.305.847-.611,1.274-.908.025-.016.049-.033.077-.049.469-.325.933-.644,1.417-.952a.057.057,0,0,1,.032-.029c.468-.3.953-.6,1.429-.9h.009c.59-.354,1.185-.713,1.8-1.055.362-.2.737-.407,1.111-.607s.745-.4,1.119-.59c.806-.407,1.621-.794,2.455-1.169.334-.158.68-.309,1.018-.448.4-.175.79-.338,1.193-.5s.794-.317,1.2-.472.81-.3,1.217-.444c.387-.142.777-.273,1.176-.4q2.5-.843,5.113-1.462c.66-.155,1.319-.3,1.982-.432.635-.131,1.27-.253,1.9-.354.611-.106,1.217-.2,1.824-.289.272-.033.537-.077.806-.1.114-.016.228-.036.334-.041.92-.11,1.84-.2,2.756-.264.216-.02.439-.037.652-.049a.65.65,0,0,1,.1,0c.489-.037.985-.057,1.478-.077.02.008.049,0,.07,0,1.294-.041,2.585-.045,3.863-.008.651.02,1.294.044,1.942.086s1.294.093,1.934.154,1.274.131,1.909.212c.574.069,1.144.159,1.714.248.5.077,1,.167,1.5.252.358.061.708.134,1.058.208A.658.658,0,0,1,281.454,459.625Z" transform="translate(-209.28 -458.415)"/></g><g class="k" transform="translate(56.644 9.807)"><path d="M364.85,524.63q0,2.272-.175,4.519a57.968,57.968,0,0,1-1.613,10.035c-.069.285-.142.566-.219.847-.057.216-.114.432-.175.643l0,0c-.114.419-.236.834-.362,1.249a1.894,1.894,0,0,1-.062.2c-.1.33-.2.659-.309.989-.139.424-.281.843-.428,1.262-.049.142-.1.285-.155.427-.122.35-.252.7-.387,1.05-.264.741-.562,1.465-.871,2.194-.6,1.417-1.246,2.813-1.963,4.177a58.092,58.092,0,0,1-3.338,5.7,61.192,61.192,0,0,1-10.332,11.862l-.008,0a60.169,60.169,0,0,1-43.285,14.9c11.227-3.977,20.045-9.473,26.851-15.97a61.145,61.145,0,0,0,7.5-8.614,62.876,62.876,0,0,0,7.8-14.671,75.023,75.023,0,0,0,4.5-21.779,94.235,94.235,0,0,0-.855-19.251,100.606,100.606,0,0,0-6.717-24.352c-.846-2.023-1.746-3.949-2.683-5.764.106.061.208.126.3.191a.291.291,0,0,1,.106.073c.358.236.721.477,1.062.725.114.073.22.146.317.219.33.236.66.468.981.7a.008.008,0,0,1,.008.008c.33.228.639.456.932.7.273.208.55.415.814.627.387.3.761.611,1.144.932.472.4.949.79,1.413,1.209.358.317.721.651,1.074.977q.849.8,1.677,1.628a58.882,58.882,0,0,1,7.01,8.479c.09.126.167.257.256.379v.012c.912,1.347,1.759,2.732,2.557,4.156a58.573,58.573,0,0,1,3.615,7.751c.252.639.48,1.278.7,1.93.557,1.608,1.046,3.244,1.457,4.926.081.264.147.533.211.8.306,1.3.566,2.589.794,3.883l0,.008c.224,1.364.4,2.731.541,4.091q.061.6.11,1.209v0c.025.314.049.631.07.944a.493.493,0,0,1,0,.073c.012.147.02.293.025.436.016.216.024.432.036.647.025.525.041,1.05.045,1.571C364.845,523.934,364.85,524.28,364.85,524.63Z" transform="translate(-301.165 -474.286)"/></g></g><g class="l" transform="translate(198.922 493.984)"><path class="m" d="M329.6,548.229q0,2.272-.175,4.519a57.969,57.969,0,0,1-1.613,10.035c-.069.285-.142.566-.219.847-.057.216-.114.432-.175.643l0,0c-3.786,3.468-10.971,4.823-19.341,4.754-1.795-.012-3.643-.094-5.528-.232a121.13,121.13,0,0,1-24-4.393,81.726,81.726,0,0,1-12.627-4.682c-.737-.358-1.47-.692-2.2-1.01a55.74,55.74,0,0,0-6.208-2.259c-15.974-4.738-30.535-1.087-39.386,2.434-1.51.6-2.85,1.193-4.005,1.743-1.307.623-2.373,1.185-3.171,1.624,0-.025-.012-.045-.016-.069a.061.061,0,0,0-.008-.025c-.118-.513-.24-1.034-.346-1.547-.041-.183-.077-.366-.114-.549-.012-.069-.028-.142-.041-.211-.069-.342-.134-.684-.191-1.026q-.251-1.392-.44-2.78c0-.008,0-.017,0-.025-.158-1.205-.28-2.41-.358-3.6,0-.073-.012-.147-.012-.22q-.049-.659-.073-1.319-.128-2.619-.012-5.211s0,0,0-.008a21.609,21.609,0,0,1,8.936-6.794,32.857,32.857,0,0,1,5.98-1.926c7.072-1.6,16.459-1.665,28.57.83q4.085.842,7.926,1.629c16.007,3.269,28.838,5.744,39.011,6.977a100.879,100.879,0,0,0,12.819.871c7.449-.049,12.693-1.437,16.186-4.567a9.329,9.329,0,0,1,.651.822v0c.025.314.049.631.07.944a.493.493,0,0,1,0,.073c.012.147.02.293.025.436.016.216.024.432.036.647.025.525.041,1.05.045,1.571C329.6,547.534,329.6,547.879,329.6,548.229Z" transform="translate(-209.272 -535.81)"/></g><g transform="translate(196.061 486.808)"><path class="a" d="M326.978,553.819c-8.02,11.476-45.757,5.24-62.842-3.033-29.4-14.24-56.646,3.517-56.646,3.517-3-3.346-3.782-9.131-1.661-14.74,3.94-10.454,17.932-20.31,46.334-12.7,43.815,11.748,65.362,15.343,74.815,6.875a14.643,14.643,0,0,1,2.658,4.637C330.943,542,331.415,547.469,326.978,553.819Z" transform="translate(-204.631 -524.168)"/></g><g transform="translate(196.061 489.208)"><path class="n" d="M326.978,555.312c-8.02,11.476-45.757,5.24-62.842-3.033-29.4-14.24-56.646,3.517-56.646,3.517-3-3.346-3.782-9.131-1.661-14.74,5.312-9.542,19.52-17.346,46.021-10.242,44.706,11.989,66.693,15.661,76.341,7.018a12.52,12.52,0,0,1,1.445,2.04C330.943,543.491,331.415,548.962,326.978,555.312Z" transform="translate(-204.631 -528.061)"/></g><g transform="translate(211.541 493.851)"><path class="b" d="M231.653,543.7a2.514,2.514,0,0,1-.124-1.038.956.956,0,0,0-.751-.094c-.354.11-.675.461-.371,1.443a1.913,1.913,0,0,0,1.873,1.43,2.834,2.834,0,0,1,1.651.538l-.3.366a1.534,1.534,0,0,0-1.421-.344,2.282,2.282,0,0,0-.954.595l-.3-.424a2.719,2.719,0,0,1,.88-.415,2.09,2.09,0,0,1-1.971-1.659c-.337-1.088.1-1.739.73-1.936a1.339,1.339,0,0,1,1.033.123,1.221,1.221,0,0,1,.8-.69c.833-.258,1.514.247,1.839,1.3.312,1.007.03,1.789-.8,2.046S231.957,544.687,231.653,543.7Zm.547-.169c.25.808.656,1.132,1.135.984s.625-.644.375-1.452c-.269-.87-.676-1.194-1.155-1.046S231.929,542.659,232.2,543.536Z" transform="translate(-229.745 -537.871)"/><path class="b" d="M240.8,541.085l.485,2.14a1.283,1.283,0,0,1-.977,1.67,1.228,1.228,0,0,1-1.584-.956,1.879,1.879,0,0,1,.017-.865l.485.017a1.986,1.986,0,0,0,.038.726.748.748,0,0,0,.947.647c.546-.123.66-.59.527-1.18l-.463-2.044c-.112-.5-.391-.812-.906-.7a.662.662,0,0,0-.556.846,1.68,1.68,0,0,0,.207.5l-.46.211a1.515,1.515,0,0,1-.293-.587,1.181,1.181,0,0,1,1-1.4A1.209,1.209,0,0,1,240.8,541.085Z" transform="translate(-233.003 -537.31)"/><path class="b" d="M246,540.469a2.509,2.509,0,0,1,.041-1.046.963.963,0,0,0-.728-.212c-.367.053-.74.349-.594,1.368a1.915,1.915,0,0,0,1.626,1.709,2.841,2.841,0,0,1,1.548.793l-.357.314a1.537,1.537,0,0,0-1.351-.564,2.288,2.288,0,0,0-1.037.438l-.231-.467a2.718,2.718,0,0,1,.935-.272,2.092,2.092,0,0,1-1.687-1.951c-.161-1.129.369-1.7,1.027-1.8a1.342,1.342,0,0,1,1,.285,1.224,1.224,0,0,1,.9-.557c.865-.123,1.458.483,1.614,1.573.149,1.045-.253,1.773-1.111,1.9S246.141,541.488,246,540.469Zm.568-.081c.12.838.471,1.223.967,1.152s.72-.537.6-1.376c-.129-.9-.48-1.287-.976-1.216S246.433,539.479,246.563,540.388Z" transform="translate(-235.264 -536.705)"/><path class="b" d="M255.5,540.308a1.226,1.226,0,0,1-1.259,1.307,1.189,1.189,0,0,1-1.383-1.1,1.426,1.426,0,0,1,.134-.7l.469.1a1.584,1.584,0,0,0-.059.552.763.763,0,1,0,1.518-.142c-.055-.93-1.143-1.126-1.207-2.2l.546-.032C254.305,538.865,255.436,539.235,255.5,540.308Z" transform="translate(-238.609 -536.554)"/><path class="b" d="M261.281,536.858l-.022,2.031c-.012,1.1-.539,1.687-1.4,1.678-.925-.01-1.412-.66-1.4-1.773.01-.944.475-1.746,1.335-1.737a1.23,1.23,0,0,1,.933.466l.007-.632c.006-.488-.173-.861-.8-.868-.508-.006-.777.226-.781.545a.549.549,0,0,0,.006.091l-.515.059a.528.528,0,0,1-.018-.15c.007-.632.57-.984,1.313-.975A1.227,1.227,0,0,1,261.281,536.858Zm-.568,1.979.009-.846a1.029,1.029,0,0,0-.841-.491c-.514,0-.825.467-.835,1.3-.01.9.259,1.319.819,1.325S260.7,539.723,260.713,538.837Z" transform="translate(-240.759 -535.593)"/><path class="b" d="M266.164,538.13c.877.074,1.316.745,1.234,1.725a4.67,4.67,0,0,1-.568,1.847l-.539-.046a5.12,5.12,0,0,0,.555-1.849c.067-.8-.22-1.2-.719-1.237s-.856.307-.923,1.1a5.354,5.354,0,0,0,.231,1.915l-.539-.045a4.79,4.79,0,0,1-.243-1.916C264.732,538.683,265.295,538.057,266.164,538.13Z" transform="translate(-243.129 -536.564)"/><path class="b" d="M273.445,540.057c-.165,1.022-.744,1.635-1.677,1.485-.913-.146-1.265-.83-1.115-1.762l.4-2.463a.862.862,0,0,1,1.039-.763.756.756,0,0,1,.7.653.621.621,0,0,1,.747-.421,1.03,1.03,0,0,1,.54.251l-.222.354a.829.829,0,0,0-.388-.168c-.251-.04-.418.1-.472.432l-.04.251-.514-.122.043-.271a.415.415,0,0,0-.371-.521c-.276-.044-.469.089-.526.443l-.172,1.074a1.311,1.311,0,0,1,1.049-.293C273.284,538.349,273.589,539.157,273.445,540.057Zm-.579-.093c.128-.8-.077-1.246-.559-1.323a1.116,1.116,0,0,0-.97.333l-.139.861c-.111.695.075,1.18.64,1.271S272.735,540.781,272.866,539.964Z" transform="translate(-245.424 -535.957)"/><path class="b" d="M278.413,540.11c.856.205,1.19.936.96,1.893a4.662,4.662,0,0,1-.84,1.742l-.526-.126a5.128,5.128,0,0,0,.827-1.745c.187-.78-.038-1.216-.526-1.333s-.893.175-1.078.948a5.371,5.371,0,0,0-.06,1.93l-.526-.126a4.792,4.792,0,0,1,.047-1.932A1.417,1.417,0,0,1,278.413,540.11Z" transform="translate(-247.705 -537.309)"/><path class="b" d="M283.385,539.145l.548.075-.946,3.169c-.227.761-.136,1.25.457,1.427.518.155.9-.154,1.07-.74.278-.929-.374-1.362-.126-2.191l.524.156c-.2.661.468,1.118.145,2.2a1.324,1.324,0,0,1-1.743.988c-.867-.259-1.172-.921-.862-1.956Z" transform="translate(-249.917 -536.955)"/><path class="b" d="M292.8,547.906a1.494,1.494,0,1,1-2.838-.9,1.723,1.723,0,0,1,1.7-1.236c.7-.063.869-.174.96-.46.069-.218-.023-.465-.377-.578-.391-.125-.621.021-.7.263a.633.633,0,0,0-.039.186l-.524-.03a.752.752,0,0,1,.031-.332,1.007,1.007,0,0,1,1.357-.484c.64.2.947.677.791,1.167a.922.922,0,0,1-.862.648A1.6,1.6,0,0,1,292.8,547.906Zm-.565-.179a1.433,1.433,0,0,0-.312-1.535c-.856.07-1.216.365-1.416.992-.237.745-.028,1.228.512,1.4C291.586,548.766,292,548.453,292.23,547.727Z" transform="translate(-252.802 -538.918)"/><path class="b" d="M298.388,548.7a1.228,1.228,0,0,1-1.653.756,1.191,1.191,0,0,1-.885-1.531,1.436,1.436,0,0,1,.382-.6l.4.268a1.587,1.587,0,0,0-.257.492.764.764,0,1,0,1.466.424c.29-.886-.652-1.468-.317-2.491l.52.171C297.8,546.919,298.722,547.679,298.388,548.7Z" transform="translate(-255.078 -539.592)"/><path class="b" d="M301.494,548.292c.429-1.291,1.026-1.868,2.066-1.878a9.881,9.881,0,0,0,1.616.071l.092.463a10.605,10.605,0,0,1-1.732-.076,1.459,1.459,0,0,0-1.253.653.8.8,0,0,1,.846-.192.819.819,0,0,1,.556.987.844.844,0,0,1,1.1-.437c.605.2.97.817.652,1.775a4.874,4.874,0,0,1-1,1.719l-.518-.173a5.077,5.077,0,0,0,.989-1.715c.261-.784,0-1.1-.314-1.2-.34-.113-.638.021-.819.565l-.337,1.013-.513-.108.358-1.075c.2-.593.008-.828-.3-.93-.433-.144-.766.116-1,.826a4.961,4.961,0,0,0-.235,1.9l-.513-.171A4.9,4.9,0,0,1,301.494,548.292Z" transform="translate(-257.161 -539.744)"/><path class="b" d="M312.552,549.411l-.764,2.286c-.318.951-.955,1.418-1.826,1.127-.9-.3-1.148-1.065-.816-2.059.283-.846.971-1.467,1.787-1.195a1.223,1.223,0,0,1,.745.73l.345-1.031c.113-.34.01-.546-.261-.637a.419.419,0,0,0-.571.29l-.087.26-.512-.13.081-.241c.109-.327.023-.521-.211-.6a.935.935,0,0,0-.422-.031L310,547.76a1.063,1.063,0,0,1,.6.03.618.618,0,0,1,.461.717.759.759,0,0,1,.929-.252A.856.856,0,0,1,312.552,549.411Zm-1.271,2.075.25-.748a1.04,1.04,0,0,0-.652-.719c-.488-.163-.929.19-1.177.932-.264.791-.144,1.271.4,1.452S311.037,552.214,311.281,551.485Z" transform="translate(-260.147 -540.249)"/><path class="b" d="M317.054,553.845l-.69,2.085a1.284,1.284,0,0,1-1.7.927,1.229,1.229,0,0,1-.865-1.638,1.882,1.882,0,0,1,.462-.733l.407.265a1.981,1.981,0,0,0-.343.642.749.749,0,0,0,.479,1.044c.532.176.87-.165,1.061-.74l.658-1.992c.159-.483.084-.9-.417-1.065a.663.663,0,0,0-.914.44,1.68,1.68,0,0,0-.081.536l-.5-.056a1.507,1.507,0,0,1,.052-.656,1.182,1.182,0,0,1,1.585-.684A1.212,1.212,0,0,1,317.054,553.845Z" transform="translate(-261.957 -541.939)"/><path class="b" d="M323.463,553.51l-.623,1.933c-.337,1.047-1.014,1.452-1.832,1.188-.88-.283-1.153-1.049-.812-2.107.29-.9.97-1.528,1.788-1.264a1.229,1.229,0,0,1,.753.721l.194-.6a.736.736,0,0,0-.512-1.068c-.483-.155-.809-.014-.907.289a.642.642,0,0,0-.022.089l-.509-.1a.516.516,0,0,1,.027-.149c.194-.6.836-.77,1.542-.542A1.227,1.227,0,0,1,323.463,553.51Zm-1.129,1.722.259-.806a1.028,1.028,0,0,0-.658-.718c-.489-.158-.927.2-1.182.994-.277.861-.143,1.335.39,1.507S322.063,556.075,322.334,555.232Z" transform="translate(-264.386 -541.812)"/><path class="b" d="M326.022,556.954c.341-1.129.986-1.4,1.573-1.22a.852.852,0,0,1,.678,1,.827.827,0,0,1,1.068-.473c.624.188,1.01.8.679,1.9a4.778,4.778,0,0,1-.931,1.685l-.524-.158a5.01,5.01,0,0,0,.923-1.682c.279-.923.006-1.237-.324-1.337s-.618.038-.785.594l-.332,1.1-.516-.094.348-1.154c.19-.631-.014-.835-.338-.933-.412-.124-.747.129-.988.927a4.971,4.971,0,0,0-.184,1.918l-.518-.156A4.736,4.736,0,0,1,326.022,556.954Z" transform="translate(-266.598 -543.299)"/><path class="b" d="M338.824,560.838a1.32,1.32,0,0,1-1.754.825,1.292,1.292,0,0,1-1.113-1.553,1.2,1.2,0,0,1,1.139-.89,1.064,1.064,0,0,1-.42-1.159,1.318,1.318,0,0,1,2.52.638c-.111.429-.423.651-.973.772A1.249,1.249,0,0,1,338.824,560.838Zm-.557-.137c.121-.467-.073-.732-.686-1.147l-.155-.1a1,1,0,0,0-.914.8c-.124.479.139.843.675.982A.8.8,0,0,0,338.268,560.7Zm-1.07-2.5c-.111.429.123.671.577.97l.115.077c.454-.118.683-.3.778-.667a.761.761,0,0,0-1.47-.38Z" transform="translate(-270.471 -543.905)"/><path class="b" d="M344.822,561.157c-.31,1.411-.946,2.091-1.881,1.886s-1.227-1.09-.915-2.508.945-2.086,1.88-1.88S345.133,559.738,344.822,561.157Zm-2.243-.5c-.278,1.266-.1,1.838.456,1.96s.958-.322,1.234-1.582.09-1.833-.457-1.953S342.856,559.4,342.579,560.657Z" transform="translate(-272.768 -544.425)"/><path class="b" d="M352.481,563.492a2.509,2.509,0,0,1,.316-1,.962.962,0,0,0-.646-.4c-.368-.046-.805.142-.933,1.163a1.913,1.913,0,0,0,1.118,2.075,2.84,2.84,0,0,1,1.283,1.172l-.427.209a1.532,1.532,0,0,0-1.154-.9,2.28,2.28,0,0,0-1.114.149l-.1-.512a2.746,2.746,0,0,1,.973-.016,2.09,2.09,0,0,1-1.113-2.325c.142-1.13.8-1.546,1.463-1.463a1.343,1.343,0,0,1,.891.538,1.223,1.223,0,0,1,1.015-.3c.865.108,1.278.849,1.141,1.941-.131,1.047-.711,1.643-1.571,1.535S352.353,564.513,352.481,563.492Zm.569.071c-.105.84.132,1.3.629,1.365s.835-.329.941-1.168c.113-.9-.124-1.367-.622-1.43S353.164,562.652,353.049,563.563Z" transform="translate(-276.124 -545.585)"/><path class="b" d="M363.744,564.082a3.4,3.4,0,0,1-.308,1.442l-.474-.129a4.212,4.212,0,0,0,.229-1.312c.01-.964-.338-1.189-.684-1.193s-.582.208-.588.775l-.012,1.159-.521.053.013-1.217c.007-.645-.239-.784-.558-.788-.469,0-.714.37-.724,1.262a1.914,1.914,0,0,0,1.347,1.935,2.84,2.84,0,0,1,1.408,1.018l-.4.256a1.532,1.532,0,0,0-1.248-.763,2.291,2.291,0,0,0-1.091.274l-.157-.5a2.727,2.727,0,0,1,.965-.126,2.09,2.09,0,0,1-1.37-2.183c.013-1.192.571-1.628,1.2-1.621a.907.907,0,0,0,1.791.02C363.215,562.454,363.757,562.936,363.744,564.082Z" transform="translate(-279.544 -545.886)"/><path class="b" d="M370.381,563.26l.242,2.18a1.283,1.283,0,0,1-1.158,1.55A1.228,1.228,0,0,1,368,565.863a1.876,1.876,0,0,1,.114-.858l.48.071a1.983,1.983,0,0,0-.044.726.749.749,0,0,0,.869.749c.556-.062.722-.513.655-1.115l-.231-2.083c-.056-.5-.3-.851-.822-.793a.661.661,0,0,0-.647.779,1.686,1.686,0,0,0,.15.52l-.48.158a1.5,1.5,0,0,1-.226-.617,1.181,1.181,0,0,1,1.155-1.281A1.21,1.21,0,0,1,370.381,563.26Z" transform="translate(-282.704 -545.764)"/><path class="b" d="M375.551,559.442l.55,2.346c.229.976-.067,1.708-.961,1.918-.925.218-1.535-.3-1.775-1.322-.2-.869.055-1.759.892-1.955a1.222,1.222,0,0,1,1.017.229l-.248-1.058c-.082-.349-.277-.47-.557-.4a.417.417,0,0,0-.333.546l.062.266-.5.158-.058-.247c-.08-.336-.255-.456-.5-.4a.934.934,0,0,0-.375.2l-.253-.335a1.069,1.069,0,0,1,.527-.291.619.619,0,0,1,.769.368.76.76,0,0,1,.658-.7A.857.857,0,0,1,375.551,559.442Zm.009,2.432-.179-.767a1.042,1.042,0,0,0-.933-.269c-.5.118-.69.65-.511,1.411.19.811.546,1.156,1.1,1.025S375.736,562.622,375.56,561.874Z" transform="translate(-284.508 -544.466)"/><path class="b" d="M380.6,559.62c.85-.225,1.491.259,1.743,1.21a4.677,4.677,0,0,1,.088,1.932l-.523.138a5.112,5.112,0,0,0-.1-1.928c-.206-.775-.609-1.052-1.094-.923s-.7.578-.5,1.346a5.367,5.367,0,0,0,.862,1.726l-.523.139a4.788,4.788,0,0,1-.875-1.723A1.417,1.417,0,0,1,380.6,559.62Z" transform="translate(-287.228 -544.788)"/></g></g></svg>