<svg xmlns="http://www.w3.org/2000/svg" xmlns:xlink="http://www.w3.org/1999/xlink" width="429.339" height="430" viewBox="0 0 429.339 430"><defs><style>.a{fill:none;}.b{fill:#947dce;}.c{clip-path:url(#a);}.d{fill:rgba(128,128,128,0.09);}.d,.e{stroke:#000;stroke-linejoin:round;stroke-width:0.076px;}.e{fill:rgba(24,0,255,0.09);}.f,.g,.h,.i,.j{isolation:isolate;}.g,.i{fill:#020202;}.g,.h{font-size:1px;}.g,.h,.i,.j{font-family:Arial-ItalicMT, Arial;font-style:italic;}.i,.j{font-size:2px;}.k{opacity:0.15;}.l{opacity:0.3;}.m{fill:#d8a35d;fill-rule:evenodd;}.n{fill:#8f7fc8;}</style><clipPath id="a"><circle class="a" cx="119.303" cy="119.303" r="119.303"/></clipPath></defs><g transform="translate(-498.025 -389.397)"><g transform="translate(498.025 389.397)"><path class="b" d="M588.675,406.25c2.862,7.119,1.8,12.11-2.836,13.976-4.092,1.644-8.4-1.075-11.252-7.973-2.823-7.022-1.349-12.1,2.9-13.814C581.9,396.664,585.993,399.584,588.675,406.25Zm-11.24,4.9c2.189,5.442,5.107,7.862,7.683,6.826,2.9-1.167,2.923-5.105.774-10.452-2.073-5.152-4.753-8-7.685-6.826C575.729,401.689,575.142,405.444,577.435,411.145Z" transform="translate(-442.749 -383.118)"/><path class="b" d="M588.092,397.994l-.068.021-3.147,3.156-1.234-2.057,3.963-3.944,2.493-.75,6.491,21.607-2.826.851Z" transform="translate(-435.017 -385.7)"/><path class="b" d="M609.016,401.607c1.535,7.516-.408,12.235-5.307,13.233-4.317.882-8.068-2.569-9.629-9.867-1.514-7.414.851-12.148,5.341-13.065C604.08,390.959,607.58,394.566,609.016,401.607Zm-11.936,2.79c1.173,5.748,3.607,8.652,6.329,8.1,3.06-.625,3.795-4.494,2.642-10.14-1.111-5.442-3.234-8.728-6.329-8.1C597.1,394.792,595.85,398.376,597.079,404.4Z" transform="translate(-427.673 -387.659)"/><path class="b" d="M609.613,393.365l-.069.007-3.666,2.54-.844-2.248,4.609-3.168,2.588-.288,2.5,22.435-2.934.326Z" transform="translate(-419.275 -388.801)"/><path class="b" d="M630,400.649c.17,7.669-2.581,11.964-7.579,12.075-4.406.1-7.482-3.967-7.716-11.424-.168-7.565,3-11.8,7.583-11.9C627.045,389.293,629.845,393.466,630,400.649Zm-12.242.618c.13,5.864,2.008,9.155,4.784,9.095,3.123-.07,4.534-3.746,4.406-9.506-.121-5.551-1.625-9.164-4.783-9.094C619.5,391.82,617.628,395.126,617.763,401.267Z" transform="translate(-412.159 -389.397)"/><path class="b" d="M631.505,392.671l-.069,0-4.057,1.849-.434-2.361,5.1-2.3,2.6.175-1.514,22.52-2.946-.2Z" transform="translate(-403.15 -389.061)"/><path class="b" d="M642.4,393.834l-.07-.012-4.206,1.479-.221-2.39,5.284-1.837,2.573.408-3.529,22.3-2.916-.462Z" transform="translate(-395.083 -388.163)"/><path class="b" d="M661.379,406.151c-1.88,7.44-5.677,10.849-10.525,9.626-4.276-1.08-6.159-5.817-4.4-13.073,1.854-7.339,6.039-10.579,10.483-9.457C661.549,394.411,663.139,399.181,661.379,406.151Zm-11.969-2.666c-1.437,5.69-.5,9.365,2.191,10.046,3.029.764,5.371-2.4,6.782-7.994,1.359-5.387.873-9.27-2.193-10.044C653.6,394.838,650.915,397.527,649.41,403.484Z" transform="translate(-389.275 -386.724)"/><path class="b" d="M664.53,399.041l-.066-.023-4.4.7.212-2.39,5.527-.858,2.456.863-7.471,21.3L658,417.653Z" transform="translate(-380.296 -384.192)"/><path class="b" d="M681.089,414.3c-3.185,6.977-7.532,9.648-12.078,7.572-4.01-1.83-5.01-6.826-1.976-13.644,3.14-6.881,7.839-9.317,12.006-7.414C683.367,402.789,684.072,407.764,681.089,414.3Zm-11.29-4.77c-2.435,5.334-2.177,9.115.349,10.268,2.843,1.3,5.713-1.4,8.1-6.64,2.305-5.052,2.524-8.957-.349-10.27C675.472,401.78,672.349,403.941,669.8,409.531Z" transform="translate(-374.95 -381.454)"/><path class="b" d="M685.887,408.037l-.059-.033-4.458-.108.642-2.312,5.588.155,2.262,1.291-11.191,19.592-2.562-1.462Z" transform="translate(-366.97 -377.484)"/><path class="b" d="M699.057,425.749c-4.385,6.3-9.143,8.148-13.247,5.293-3.619-2.521-3.71-7.617.5-13.785,4.324-6.213,9.384-7.768,13.146-5.15C703.361,414.824,703.164,419.848,699.057,425.749ZM688.8,419.031c-3.352,4.817-3.776,8.584-1.495,10.171,2.564,1.786,5.872-.352,9.165-5.085,3.175-4.56,4.09-8.365,1.5-10.171C695.769,412.418,692.31,413.986,688.8,419.031Z" transform="translate(-361.808 -373.581)"/><path class="b" d="M705.14,420.777l-.052-.045-4.366-.9,1.041-2.161,5.472,1.146,1.994,1.673-14.5,17.285-2.262-1.9Z" transform="translate(-354.929 -368.588)"/><path class="b" d="M713.791,428.278l-.049-.05-4.269-1.286,1.231-2.059,5.35,1.632,1.837,1.845L701.9,444.285l-2.081-2.092Z" transform="translate(-349.524 -363.282)"/><path class="b" d="M721.346,448.2c-5.9,4.906-10.969,5.426-14.165,1.587-2.819-3.389-1.554-8.324,4.135-13.15,5.815-4.84,11.1-4.994,14.033-1.474C728.39,438.818,726.866,443.608,721.346,448.2Zm-8.1-9.193c-4.506,3.751-5.913,7.27-4.138,9.4,2,2.4,5.753,1.217,10.181-2.468,4.269-3.55,6.159-6.975,4.138-9.4C721.716,434.486,717.964,435.079,713.243,439.008Z" transform="translate(-345.167 -357.503)"/><path class="b" d="M728.838,445.3l-.04-.057-3.974-2.026,1.58-1.809,4.973,2.559,1.481,2.144L714.281,458.94l-1.677-2.429Z" transform="translate(-340.112 -351.119)"/><path class="b" d="M732.441,466.047c-6.68,3.776-11.768,3.382-14.228-.97-2.17-3.838-.042-8.471,6.421-12.205,6.589-3.723,11.821-2.934,14.076,1.057C741.051,458.069,738.7,462.51,732.441,466.047Zm-6.333-10.5c-5.109,2.887-7.121,6.1-5.755,8.516,1.538,2.72,5.446,2.227,10.462-.609,4.836-2.734,7.31-5.767,5.754-8.516C735.255,452.611,731.457,452.525,726.108,455.549Z" transform="translate(-336.589 -344.455)"/><path class="b" d="M740.423,464.5l-.029-.062-3.548-2.7,1.878-1.5,4.437,3.408,1.073,2.375-20.574,9.3-1.217-2.691Z" transform="translate(-332.872 -337.267)"/><path class="b" d="M740.015,485.551c-7.247,2.51-12.179,1.208-13.816-3.513-1.443-4.164,1.482-8.338,8.509-10.846,7.15-2.477,12.151-.759,13.653,3.571C749.919,479.255,746.8,483.2,740.015,485.551Zm-4.338-11.462c-5.543,1.92-8.1,4.716-7.192,7.339,1.024,2.951,4.954,3.168,10.4,1.281,5.246-1.818,8.223-4.355,7.188-7.339C745.2,472.846,741.48,472.077,735.677,474.089Z" transform="translate(-330.372 -330.043)"/><path class="b" d="M748.163,485.32l-.017-.068-3-3.3,2.116-1.132,3.746,4.151.625,2.526-21.9,5.425-.708-2.864Z" transform="translate(-328.027 -322.116)"/><path class="b" d="M750.5,496.084l-.012-.069-2.687-3.553,2.208-.937,3.356,4.47.4,2.573-22.3,3.427-.448-2.915Z" transform="translate(-326.565 -314.24)"/><path class="b" d="M744.3,516.654c-7.657.479-12.061-2.1-12.374-7.086-.276-4.4,3.659-7.638,11.1-8.174,7.553-.474,11.914,2.522,12.2,7.1C755.527,513.236,751.468,516.2,744.3,516.654Zm-1.113-12.209c-5.855.366-9.068,2.377-8.895,5.149.195,3.118,3.927,4.38,9.678,4.019,5.544-.347,9.093-2,8.895-5.149C752.7,505.8,749.316,504.06,743.185,504.446Z" transform="translate(-325.905 -307.013)"/><path class="b" d="M752.081,517.965l0-.07-2.015-3.975,2.342-.531,2.509,5-.068,2.6L732.3,520.4l.076-2.949Z" transform="translate(-325.621 -298.149)"/><path class="b" d="M742.382,537.72c-7.621-.878-11.5-4.192-10.931-9.157.505-4.38,4.951-6.874,12.374-6.088,7.518.866,11.283,4.585,10.759,9.136C754.039,536.336,749.522,538.541,742.382,537.72Zm1.059-12.214c-5.829-.672-9.346.74-9.664,3.5-.357,3.105,3.093,5,8.817,5.664,5.518.635,9.3-.361,9.664-3.5C752.565,528.513,749.545,526.209,743.441,525.506Z" transform="translate(-326.283 -291.568)"/><path class="b" d="M749.69,539.673l.014-.068-1.272-4.27,2.4-.1,1.58,5.364-.531,2.548-22.09-4.6.6-2.889Z" transform="translate(-327.468 -282.075)"/><path class="b" d="M736.659,558.308c-7.339-2.238-10.563-6.2-9.107-10.978,1.286-4.218,6.109-5.871,13.269-3.762,7.242,2.2,10.277,6.541,8.94,10.926C748.376,559.045,743.535,560.4,736.659,558.308Zm3.239-11.827c-5.614-1.71-9.327-.955-10.138,1.7-.91,2.989,2.142,5.48,7.657,7.159,5.314,1.62,9.216,1.319,10.136-1.7C748.333,551.083,745.777,548.27,739.9,546.481Z" transform="translate(-329.364 -276.613)"/><path class="b" d="M743.15,561.944l.026-.064-.483-4.433,2.377.331.587,5.56-.982,2.411-20.9-8.5,1.111-2.734Z" transform="translate(-331.892 -267.887)"/><path class="b" d="M738.389,572.612l.033-.063-.083-4.458,2.338.542.085,5.591-1.194,2.314-20.059-10.348,1.354-2.621Z" transform="translate(-335.031 -261.22)"/><path class="b" d="M721.33,586.608c-6.475-4.121-8.518-8.8-5.833-13.018,2.368-3.72,7.457-4.02,13.794-.069,6.386,4.064,8.148,9.056,5.687,12.922C732.423,590.456,727.4,590.466,721.33,586.608Zm6.289-10.528c-4.951-3.151-8.732-3.418-10.224-1.075-1.679,2.637.6,5.855,5.459,8.95,4.687,2.984,8.529,3.741,10.225,1.075C734.516,582.773,732.807,579.381,727.62,576.079Z" transform="translate(-338.83 -255.99)"/><path class="b" d="M726.06,592.413l.042-.055.719-4.4,2.2.953-.92,5.515-1.588,2.06-17.871-13.773,1.8-2.337Z" transform="translate(-343.028 -248.851)"/><path class="b" d="M707.141,602.786c-5.637-5.21-6.815-10.178-3.422-13.851,2.995-3.239,8.057-2.628,13.589,2.39,5.56,5.138,6.406,10.365,3.293,13.733C717.372,608.55,712.421,607.665,707.141,602.786Zm8.067-9.24c-4.31-3.984-7.985-4.921-9.872-2.88-2.121,2.295-.457,5.867,3.779,9.782,4.081,3.77,7.725,5.2,9.87,2.88C720.8,601.362,719.723,597.718,715.208,593.545Z" transform="translate(-348.045 -244.028)"/><path class="b" d="M710.387,609.664l.052-.047,1.488-4.2,2,1.33-1.887,5.263-1.93,1.746-15.134-16.736,2.187-1.979Z" transform="translate(-353.087 -238.061)"/><path class="b" d="M690.291,616.19c-4.617-6.128-4.894-11.226-.9-14.234,3.524-2.656,8.395-1.151,12.943,4.768,4.557,6.046,4.458,11.337.8,14.1C699.33,623.684,694.619,621.931,690.291,616.19Zm9.581-7.654c-3.531-4.689-6.98-6.263-9.2-4.591-2.494,1.882-1.493,5.692,1.976,10.3,3.345,4.437,6.675,6.492,9.2,4.59C703.984,617.221,703.571,613.444,699.872,608.536Z" transform="translate(-359.252 -233.901)"/><path class="b" d="M691.875,623.814l.057-.036,2.213-3.869,1.731,1.663-2.795,4.845-2.21,1.373-11.915-19.161,2.507-1.559Z" transform="translate(-364.874 -229.208)"/><path class="b" d="M681.725,629.582l.063-.031,2.554-3.656,1.571,1.814-3.218,4.572-2.326,1.17L670.226,613.29l2.637-1.326Z" transform="translate(-371.299 -225.606)"/><path class="b" d="M661.277,630.12c-2.816-7.136-1.722-12.12,2.927-13.955,4.1-1.618,8.393,1.128,11.2,8.046,2.779,7.039,1.271,12.112-2.991,13.792C667.986,639.749,663.914,636.8,661.277,630.12Zm11.269-4.821c-2.152-5.458-5.055-7.893-7.638-6.874-2.906,1.146-2.956,5.084-.842,10.445,2.038,5.166,4.7,8.034,7.638,6.874C674.192,634.764,674.8,631.016,672.547,625.3Z" transform="translate(-379.017 -222.846)"/><path class="b" d="M660.032,638.256l.068-.021,3.17-3.137,1.221,2.068-3.989,3.92-2.5.733-6.352-21.659,2.831-.832Z" transform="translate(-384.97 -220.187)"/><path class="b" d="M640.371,634.821c-1.481-7.529.495-12.233,5.4-13.2,4.326-.852,8.053,2.627,9.561,9.936,1.462,7.426-.937,12.143-5.433,13.028C645.233,645.505,641.758,641.872,640.371,634.821Zm11.957-2.706c-1.132-5.756-3.547-8.68-6.272-8.141-3.066.6-3.826,4.466-2.715,10.122,1.073,5.449,3.173,8.753,6.272,8.141C652.238,641.721,653.515,638.143,652.328,632.114Z" transform="translate(-393.624 -218.591)"/><path class="b" d="M637.088,642.865l.07-.007,3.682-2.519.83,2.253-4.628,3.14-2.592.273-2.358-22.451,2.936-.309Z" transform="translate(-399.363 -217.303)"/><path class="b" d="M619.13,635.7c-.123-7.674,2.656-11.957,7.657-12.037,4.409-.071,7.463,4.013,7.652,11.48.12,7.57-3.076,11.789-7.661,11.861C622.02,647.076,619.244,642.884,619.13,635.7Zm12.252-.543c-.094-5.869-1.953-9.174-4.732-9.129-3.125.051-4.56,3.72-4.468,9.485.09,5.555,1.573,9.179,4.732,9.127C629.589,644.594,631.479,641.3,631.382,635.152Z" transform="translate(-408.905 -217)"/><path class="b" d="M614.422,643.379l.069.005,4.066-1.824.418,2.363-5.109,2.269-2.6-.189,1.653-22.5,2.944.215Z" transform="translate(-414.686 -217.117)"/><path class="b" d="M603.609,642.144l.069.01,4.215-1.451.2,2.39-5.291,1.8-2.569-.424,3.668-22.261,2.911.481Z" transform="translate(-422.806 -218.065)"/><path class="b" d="M588.27,629.85c1.925-7.43,5.744-10.815,10.584-9.561,4.27,1.107,6.124,5.857,4.317,13.1-1.9,7.327-6.105,10.542-10.542,9.392C588.023,641.588,586.464,636.807,588.27,629.85Zm11.952,2.739c1.474-5.68.561-9.36-2.128-10.058-3.024-.785-5.385,2.371-6.832,7.951-1.394,5.378-.931,9.265,2.128,10.058C595.977,641.211,598.678,638.54,600.221,632.589Z" transform="translate(-432.151 -219.668)"/><path class="b" d="M582.524,636.564l.064.023,4.408-.67-.227,2.389-5.532.823-2.451-.879L586.4,617l2.777.995Z" transform="translate(-438.592 -221.897)"/><path class="b" d="M569.175,621.308c3.232-6.961,7.6-9.6,12.134-7.5,4,1.857,4.968,6.862,1.889,13.663-3.189,6.866-7.9,9.27-12.061,7.341C566.822,632.81,566.149,627.826,569.175,621.308Zm11.264,4.845c2.472-5.322,2.238-9.1-.281-10.275-2.835-1.316-5.725,1.363-8.152,6.589-2.34,5.039-2.583,8.947.283,10.277C574.714,633.871,577.853,631.728,580.439,626.153Z" transform="translate(-447.033 -224.767)"/><path class="b" d="M562.7,626.959l.059.035,4.456.135-.654,2.309-5.59-.189-2.251-1.305,11.311-19.524,2.554,1.479Z" transform="translate(-453.361 -228.215)"/><path class="b" d="M551.913,609.349c4.425-6.268,9.193-8.088,13.278-5.2,3.6,2.543,3.661,7.642-.588,13.781-4.366,6.183-9.435,7.706-13.179,5.062C547.537,620.245,547.768,615.223,551.913,609.349Zm10.214,6.786c3.383-4.795,3.831-8.558,1.561-10.16-2.552-1.8-5.876.316-9.2,5.025-3.2,4.538-4.144,8.338-1.562,10.16C555.111,622.7,558.583,621.156,562.127,616.134Z" transform="translate(-460.769 -232.342)"/><path class="b" d="M544.792,613.706l.054.045,4.361.927-1.057,2.154-5.465-1.182-1.986-1.686,14.618-17.2,2.248,1.911Z" transform="translate(-466.62 -236.792)"/><path class="b" d="M536.735,605.831l.05.049,4.26,1.314-1.245,2.052-5.34-1.667-1.826-1.858,16.1-15.823L550.8,592Z" transform="translate(-472.555 -241.844)"/><path class="b" d="M530.6,585.947c5.93-4.869,11.011-5.359,14.184-1.495,2.8,3.408,1.5,8.338-4.224,13.129-5.85,4.8-11.141,4.928-14.05,1.385C523.494,595.292,525.049,590.509,530.6,585.947Zm8.049,9.253c4.534-3.725,5.965-7.235,4.2-9.383-1.984-2.415-5.749-1.255-10.2,2.4-4.295,3.526-6.208,6.94-4.2,9.381C530.146,599.67,533.9,599.1,538.652,595.2Z" transform="translate(-478.176 -247.743)"/><path class="b" d="M522.737,587.93l.04.057,3.96,2.05-1.59,1.8-4.956-2.588-1.467-2.151,18.647-12.707,1.661,2.439Z" transform="translate(-482.792 -253.259)"/><path class="b" d="M520.077,567.421c6.7-3.729,11.787-3.3,14.217,1.068,2.142,3.852-.016,8.468-6.5,12.157-6.61,3.678-11.837,2.852-14.064-1.153C511.416,575.338,513.8,570.915,520.077,567.421Zm6.26,10.539c5.126-2.852,7.161-6.05,5.81-8.475-1.519-2.731-5.428-2.262-10.462.538-4.854,2.7-7.346,5.715-5.81,8.475C517.172,580.833,520.969,580.945,526.336,577.959Z" transform="translate(-487.106 -260.247)"/><path class="b" d="M511.92,567.609l.028.064,3.529,2.725-1.887,1.484-4.413-3.435-1.057-2.38,20.626-9.159,1.2,2.7Z" transform="translate(-490.596 -266.122)"/><path class="b" d="M512.928,547.282c7.267-2.463,12.19-1.128,13.8,3.6,1.417,4.175-1.536,8.329-8.581,10.792-7.166,2.432-12.16.681-13.63-3.659C502.983,553.516,506.125,549.591,512.928,547.282Zm4.265,11.492c5.557-1.884,8.133-4.664,7.239-7.292-1-2.958-4.933-3.2-10.39-1.351-5.26,1.785-8.254,4.3-7.239,7.294C507.661,559.956,511.376,560.749,517.193,558.774Z" transform="translate(-493.53 -274.099)"/><path class="b" d="M504.662,545.508l.017.068,2.977,3.317-2.123,1.118-3.72-4.173-.609-2.531,21.935-5.286.691,2.868Z" transform="translate(-495.685 -280.022)"/><path class="b" d="M502.44,534.007l.01.069,2.666,3.573-2.215.924-3.329-4.495-.378-2.576,22.329-3.289.43,2.922Z" transform="translate(-497.164 -287.24)"/><path class="b" d="M509.024,515.587c7.662-.434,12.054,2.172,12.337,7.164.248,4.4-3.71,7.617-11.16,8.109-7.56.427-11.9-2.6-12.163-7.173C497.77,518.935,501.846,515.991,509.024,515.587Zm1.038,12.219c5.86-.332,9.087-2.323,8.93-5.095-.175-3.121-3.9-4.406-9.657-4.081-5.548.314-9.107,1.941-8.93,5.1C500.556,526.4,503.926,528.153,510.062,527.806Z" transform="translate(-498.025 -296.566)"/><path class="b" d="M500.953,510.964l0,.069,1.991,3.988-2.344.515-2.479-5.012.083-2.6,22.553.724-.094,2.949Z" transform="translate(-497.955 -302.171)"/><path class="b" d="M511.039,494.608c7.615.93,11.474,4.27,10.869,9.232-.535,4.376-5,6.84-12.415,6-7.513-.918-11.252-4.663-10.7-9.211C499.374,495.91,503.906,493.737,511.039,494.608ZM509.9,506.815c5.824.71,9.351-.677,9.688-3.434.38-3.1-3.057-5.026-8.779-5.725-5.513-.674-9.3.3-9.688,3.434C500.794,503.742,503.8,506.068,509.9,506.815Z" transform="translate(-497.497 -312.109)"/><path class="b" d="M503.479,489.4l-.016.068,1.248,4.281-2.4.09-1.547-5.376.547-2.547,22.074,4.736-.62,2.885Z" transform="translate(-496.008 -318.366)"/><path class="b" d="M516.723,474.536c7.322,2.281,10.518,6.26,9.03,11.032-1.312,4.208-6.143,5.827-13.288,3.673-7.223-2.252-10.23-6.605-8.865-10.98C505.016,473.722,509.863,472.4,516.723,474.536Zm-3.316,11.8c5.6,1.746,9.318,1.015,10.145-1.637.931-2.981-2.106-5.491-7.607-7.206-5.3-1.652-9.2-1.378-10.143,1.637C505.006,481.681,507.542,484.507,513.408,486.335Z" transform="translate(-494.158 -327.476)"/><path class="b" d="M509.846,468.574l-.026.064.453,4.435-2.375-.345-.548-5.565,1-2.406L529.2,473.4l-1.13,2.727Z" transform="translate(-491.162 -333.938)"/><path class="b" d="M514.407,458.671l-.033.061.054,4.46-2.335-.557-.047-5.593,1.21-2.307,19.989,10.487-1.371,2.612Z" transform="translate(-487.706 -341.314)"/><path class="b" d="M531.735,447.254c6.446,4.161,8.459,8.85,5.748,13.049-2.392,3.7-7.483,3.972-13.79-.019-6.357-4.105-8.088-9.107-5.6-12.957C520.672,443.333,525.7,443.355,531.735,447.254Zm-6.357,10.481c4.93,3.184,8.707,3.475,10.216,1.142,1.694-2.625-.559-5.855-5.4-8.983-4.666-3.014-8.5-3.795-10.214-1.14C518.53,451,520.217,454.4,525.378,457.736Z" transform="translate(-484.059 -348.97)"/><path class="b" d="M526.487,440.286l-.042.055-.743,4.394-2.2-.965.951-5.508,1.6-2.052,17.786,13.877-1.816,2.326Z" transform="translate(-479.272 -354.946)"/><path class="b" d="M545.542,431.776c5.6,5.246,6.749,10.219,3.331,13.87-3.014,3.22-8.07,2.574-13.568-2.477-5.527-5.175-6.338-10.405-3.2-13.75C535.352,425.945,540.3,426.863,545.542,431.776Zm-8.124,9.186c4.284,4.01,7.952,4.97,9.851,2.942,2.135-2.281.495-5.864-3.713-9.8-4.055-3.8-7.69-5.249-9.849-2.944C531.879,433.111,532.933,436.761,537.418,440.962Z" transform="translate(-474.288 -361.479)"/><path class="b" d="M541.656,424.234l-.052.047-1.514,4.192-1.989-1.342,1.918-5.249,1.941-1.736,15.031,16.823-2.2,1.965Z" transform="translate(-468.532 -366.768)"/><path class="b" d="M561.905,419c4.578,6.157,4.819,11.256.807,14.238-3.54,2.63-8.4,1.1-12.91-4.854-4.515-6.074-4.381-11.365-.7-14.1C552.916,411.446,557.617,413.23,561.905,419Zm-9.629,7.59c3.5,4.709,6.938,6.308,9.167,4.651,2.508-1.864,1.531-5.68-1.908-10.306-3.314-4.458-6.631-6.536-9.167-4.651C548.223,417.878,548.61,421.657,552.276,426.588Z" transform="translate(-462.444 -372.058)"/><path class="b" d="M559.4,411.033l-.059.035-2.241,3.859-1.719-1.677,2.828-4.828,2.22-1.361,11.794,19.25-2.517,1.542Z" transform="translate(-455.815 -376.398)"/></g><g transform="translate(541.488 432.925)"><path class="b" d="M595.36,427.914c2.283,5.678,1.435,9.659-2.264,11.146-3.262,1.312-6.7-.858-8.973-6.359-2.251-5.6-1.076-9.655,2.314-11.018C589.958,420.269,593.221,422.6,595.36,427.914Zm-8.966,3.9c1.746,4.342,4.074,6.27,6.13,5.444,2.312-.93,2.331-4.071.616-8.336-1.653-4.109-3.791-6.383-6.128-5.444C585.033,424.277,584.566,427.271,586.394,431.818Z" transform="translate(-478.978 -409.464)"/><path class="b" d="M594.894,421.329l-.054.017-2.51,2.517-.984-1.642,3.159-3.146,1.989-.6,5.177,17.232-2.253.677Z" transform="translate(-472.811 -411.523)"/><path class="b" d="M611.581,424.21c1.224,5.994-.326,9.758-4.232,10.554-3.444.7-6.435-2.048-7.68-7.869-1.206-5.914.679-9.688,4.26-10.419C607.644,415.718,610.435,418.595,611.581,424.21Zm-9.52,2.225c.936,4.585,2.878,6.9,5.048,6.458,2.441-.5,3.026-3.585,2.107-8.087-.885-4.34-2.58-6.961-5.048-6.458C602.081,418.775,601.082,421.634,602.061,426.436Z" transform="translate(-466.954 -413.085)"/><path class="b" d="M612.058,417.636l-.055.007-2.923,2.024-.674-1.792,3.677-2.527,2.064-.229,1.991,17.892-2.34.26Z" transform="translate(-460.257 -413.996)"/><path class="b" d="M628.32,423.447c.137,6.117-2.059,9.542-6.043,9.631-3.515.078-5.968-3.163-6.156-9.11-.134-6.034,2.4-9.412,6.048-9.494C625.961,414.39,628.2,417.718,628.32,423.447Zm-9.763.493c.1,4.677,1.6,7.3,3.816,7.254,2.491-.056,3.618-2.988,3.515-7.583-.1-4.428-1.3-7.308-3.815-7.253C619.943,416.406,618.45,419.043,618.558,423.94Z" transform="translate(-454.582 -414.472)"/><path class="b" d="M629.518,417.083l-.056,0-3.236,1.475-.346-1.883,4.066-1.835,2.071.139-1.206,17.96-2.349-.158Z" transform="translate(-447.396 -414.204)"/><path class="b" d="M638.209,418.01l-.056-.009L634.8,419.18l-.175-1.906,4.213-1.463,2.052.325-2.816,17.781-2.324-.368Z" transform="translate(-440.962 -413.487)"/><path class="b" d="M653.343,427.834c-1.5,5.933-4.527,8.654-8.393,7.676-3.411-.861-4.913-4.638-3.508-10.426,1.479-5.853,4.815-8.436,8.36-7.543C653.48,418.471,654.747,422.276,653.343,427.834Zm-9.546-2.126c-1.146,4.539-.4,7.47,1.748,8.011,2.416.611,4.282-1.916,5.409-6.374,1.085-4.3.7-7.393-1.748-8.01C647.138,418.813,645,420.957,643.8,425.708Z" transform="translate(-436.331 -412.34)"/><path class="b" d="M655.857,422.164l-.052-.017-3.512.557.168-1.906,4.407-.684,1.96.687-5.958,16.986-2.222-.779Z" transform="translate(-429.169 -410.32)"/><path class="b" d="M669.062,434.333c-2.54,5.565-6.006,7.7-9.631,6.041-3.2-1.46-4-5.444-1.576-10.882,2.5-5.489,6.251-7.43,9.575-5.913C670.879,425.154,671.442,429.122,669.062,434.333Zm-9-3.8c-1.942,4.255-1.736,7.27.278,8.19,2.267,1.033,4.555-1.116,6.463-5.3,1.84-4.029,2.014-7.143-.278-8.19C664.583,424.348,662.092,426.072,660.059,430.53Z" transform="translate(-424.906 -408.137)"/><path class="b" d="M672.89,429.339l-.048-.028-3.554-.085.51-1.844,4.458.122,1.8,1.031-8.926,15.625-2.043-1.167Z" transform="translate(-418.541 -404.971)"/><path class="b" d="M683.392,443.464c-3.5,5.024-7.291,6.5-10.565,4.222-2.885-2.01-2.958-6.076.4-10.994,3.449-4.956,7.485-6.2,10.485-4.107C686.826,434.751,686.668,438.759,683.392,443.464Zm-8.181-5.357c-2.673,3.842-3.012,6.846-1.193,8.112,2.045,1.423,4.685-.283,7.31-4.055,2.533-3.637,3.262-6.673,1.195-8.112C680.771,432.833,678.011,434.083,675.211,438.107Z" transform="translate(-414.424 -401.857)"/><path class="b" d="M688.244,439.5l-.043-.036-3.48-.715.83-1.724,4.364.913,1.59,1.335-11.561,13.785-1.8-1.51Z" transform="translate(-408.937 -397.876)"/><path class="b" d="M695.145,445.482l-.04-.04-3.406-1.026.982-1.642,4.267,1.3,1.465,1.472-12.755,12.7L684,456.58Z" transform="translate(-404.628 -393.644)"/><path class="b" d="M701.169,461.372c-4.7,3.913-8.749,4.328-11.3,1.264-2.248-2.7-1.239-6.636,3.3-10.487,4.638-3.859,8.855-3.984,11.191-1.175C706.786,453.889,705.571,457.708,701.169,461.372Zm-6.463-7.333c-3.6,2.991-4.717,5.8-3.3,7.5,1.594,1.915,4.588.97,8.119-1.969,3.4-2.831,4.913-5.564,3.3-7.5C701.464,450.432,698.471,450.906,694.706,454.04Z" transform="translate(-401.153 -389.035)"/><path class="b" d="M707.144,459.06l-.031-.045-3.17-1.616,1.26-1.443L709.169,458l1.18,1.71-14.816,10.23L694.2,468Z" transform="translate(-397.121 -383.943)"/><path class="b" d="M710.017,475.6c-5.326,3.012-9.384,2.7-11.346-.774-1.731-3.06-.035-6.754,5.121-9.733,5.255-2.97,9.428-2.34,11.226.842C716.884,469.242,715.008,472.783,710.017,475.6Zm-5.05-8.372c-4.074,2.3-5.68,4.864-4.59,6.793,1.227,2.17,4.343,1.776,8.344-.486,3.857-2.18,5.829-4.6,4.59-6.793C712.261,464.888,709.234,464.82,704.967,467.232Z" transform="translate(-394.311 -378.629)"/><path class="b" d="M716.383,474.368l-.024-.05-2.828-2.156,1.5-1.194,3.54,2.718.856,1.892-16.41,7.416-.97-2.146Z" transform="translate(-391.347 -372.896)"/><path class="b" d="M716.059,491.159c-5.78,2-9.714.965-11.019-2.8-1.149-3.321,1.182-6.649,6.787-8.648,5.7-1.977,9.692-.606,10.888,2.847C723.957,486.138,721.471,489.284,716.059,491.159Zm-3.461-9.141c-4.42,1.533-6.458,3.762-5.734,5.855.816,2.354,3.951,2.526,8.292,1.021,4.185-1.449,6.56-3.474,5.736-5.854C720.194,481.026,717.227,480.413,712.6,482.017Z" transform="translate(-389.353 -367.134)"/><path class="b" d="M722.556,490.974l-.014-.054-2.39-2.632,1.687-.9,2.988,3.309.5,2.015-17.465,4.326-.566-2.285Z" transform="translate(-387.483 -360.812)"/><path class="b" d="M724.417,499.56l-.009-.056-2.144-2.835,1.762-.746,2.677,3.565.314,2.052-17.783,2.732-.356-2.326Z" transform="translate(-386.317 -354.531)"/><path class="b" d="M719.475,515.965c-6.107.382-9.62-1.672-9.87-5.651-.22-3.51,2.92-6.093,8.857-6.52,6.024-.378,9.5,2.012,9.732,5.659C728.431,513.24,725.193,515.606,719.475,515.965Zm-.889-9.737c-4.669.292-7.232,1.9-7.093,4.105.154,2.488,3.132,3.493,7.718,3.206,4.421-.278,7.251-1.592,7.093-4.107C726.172,507.306,723.476,505.921,718.586,506.228Z" transform="translate(-385.791 -348.767)"/><path class="b" d="M725.682,517.01v-.056l-1.606-3.17,1.866-.423,2,3.985-.054,2.074-17.989-.467.061-2.352Z" transform="translate(-385.564 -341.698)"/><path class="b" d="M717.946,532.764c-6.079-.7-9.174-3.342-8.718-7.3.4-3.493,3.947-5.48,9.869-4.854,6,.691,9,3.656,8.579,7.287C727.242,531.662,723.64,533.42,717.946,532.764Zm.844-9.74c-4.649-.536-7.454.59-7.707,2.791-.285,2.475,2.467,3.991,7.034,4.517,4.4.507,7.418-.288,7.706-2.791C726.067,525.423,723.659,523.585,718.79,523.024Z" transform="translate(-386.092 -336.45)"/><path class="b" d="M723.774,534.324l.012-.054-1.017-3.408,1.913-.081,1.259,4.277-.424,2.033L707.9,533.425l.479-2.305Z" transform="translate(-387.036 -328.878)"/><path class="b" d="M713.382,549.185c-5.855-1.785-8.424-4.94-7.263-8.754,1.026-3.366,4.871-4.684,10.584-3,5.776,1.76,8.2,5.218,7.129,8.714C722.726,549.774,718.866,550.855,713.382,549.185Zm2.583-9.433c-4.477-1.363-7.438-.76-8.084,1.359-.727,2.383,1.708,4.371,6.105,5.709,4.239,1.292,7.352,1.052,8.084-1.357C722.691,543.424,720.653,541.181,715.965,539.752Z" transform="translate(-388.549 -324.523)"/><path class="b" d="M718.558,552.085l.021-.052-.385-3.534,1.9.264.467,4.435-.783,1.923-16.67-6.784.887-2.18Z" transform="translate(-390.566 -317.563)"/><path class="b" d="M714.761,560.593l.026-.049-.066-3.557,1.864.434.068,4.46-.953,1.845-16-8.253,1.08-2.092Z" transform="translate(-393.069 -312.246)"/><path class="b" d="M701.158,571.755c-5.164-3.286-6.794-7.017-4.654-10.381,1.89-2.967,5.949-3.208,11-.057,5.093,3.243,6.5,7.223,4.536,10.308C710,574.826,705.994,574.833,701.158,571.755Zm5.015-8.4c-3.948-2.512-6.965-2.725-8.154-.856-1.338,2.1.476,4.668,4.354,7.138,3.737,2.378,6.8,2.982,8.155.856C711.672,568.7,710.309,565.992,706.173,563.358Z" transform="translate(-396.098 -308.075)"/><path class="b" d="M704.928,576.387l.035-.045.573-3.508,1.755.76-.732,4.4-1.267,1.644-14.254-10.985,1.437-1.864Z" transform="translate(-399.447 -302.381)"/><path class="b" d="M689.841,584.657c-4.5-4.154-5.437-8.117-2.729-11.046,2.387-2.583,6.424-2.1,10.836,1.906,4.435,4.1,5.109,8.266,2.628,10.952C698,589.256,694.051,588.549,689.841,584.657Zm6.432-7.369c-3.437-3.177-6.367-3.925-7.872-2.3-1.691,1.831-.364,4.68,3.014,7.8,3.255,3.008,6.163,4.147,7.872,2.3C700.734,583.524,699.875,580.616,696.273,577.288Z" transform="translate(-403.448 -298.535)"/><path class="b" d="M692.43,590.143l.04-.038,1.187-3.35,1.594,1.061-1.505,4.2-1.54,1.392-12.07-13.348,1.745-1.578Z" transform="translate(-407.469 -293.776)"/><path class="b" d="M676.4,595.349c-3.684-4.888-3.9-8.954-.719-11.353,2.809-2.118,6.7-.918,10.322,3.8,3.635,4.821,3.555,9.042.635,11.242C683.612,601.326,679.852,599.927,676.4,595.349Zm7.642-6.105c-2.817-3.737-5.567-4.994-7.338-3.661-1.989,1.5-1.191,4.539,1.576,8.211,2.666,3.54,5.324,5.178,7.336,3.661C687.321,596.172,686.993,593.158,684.044,589.244Z" transform="translate(-412.386 -290.458)"/><path class="b" d="M677.663,601.429l.047-.028,1.765-3.086,1.38,1.326-2.229,3.862-1.764,1.1-9.5-15.283,2-1.243Z" transform="translate(-416.87 -286.716)"/><path class="b" d="M669.57,606.028l.05-.024,2.035-2.914,1.255,1.446-2.567,3.647-1.856.932-8.088-16.08,2.1-1.057Z" transform="translate(-421.994 -283.842)"/><path class="b" d="M653.262,606.459c-2.246-5.692-1.375-9.667,2.333-11.129,3.27-1.292,6.7.9,8.931,6.416,2.215,5.614,1.014,9.659-2.385,11C658.612,614.137,655.364,611.788,653.262,606.459Zm8.987-3.845c-1.717-4.352-4.031-6.3-6.091-5.484-2.317.915-2.357,4.055-.67,8.331,1.625,4.121,3.748,6.407,6.091,5.484C663.561,610.161,664.049,607.172,662.249,602.613Z" transform="translate(-428.149 -281.641)"/><path class="b" d="M652.27,612.947l.052-.016,2.527-2.5.974,1.647-3.18,3.128-1.993.583-5.067-17.274,2.258-.663Z" transform="translate(-432.897 -279.52)"/><path class="b" d="M636.589,610.207c-1.182-6,.394-9.756,4.307-10.527,3.449-.679,6.423,2.1,7.626,7.924,1.165,5.923-.748,9.687-4.333,10.391C640.465,618.729,637.695,615.83,636.589,610.207Zm9.537-2.158c-.9-4.591-2.829-6.921-5-6.494-2.446.481-3.052,3.564-2.165,8.072.854,4.347,2.529,6.982,5,6.494C646.053,615.71,647.07,612.858,646.126,608.049Z" transform="translate(-439.799 -278.248)"/><path class="b" d="M633.971,616.622l.056-.005,2.937-2.007.661,1.8-3.692,2.5-2.066.217-1.882-17.906,2.342-.246Z" transform="translate(-444.376 -277.221)"/><path class="b" d="M619.647,610.906c-.1-6.121,2.12-9.537,6.107-9.6,3.517-.056,5.952,3.2,6.1,9.155.1,6.037-2.455,9.4-6.111,9.461C621.954,619.981,619.739,616.638,619.647,610.906Zm9.772-.434c-.075-4.68-1.557-7.317-3.772-7.281-2.493.04-3.638,2.967-3.564,7.563.071,4.432,1.253,7.322,3.774,7.281C627.988,618,629.5,615.374,629.419,610.472Z" transform="translate(-451.986 -276.98)"/><path class="b" d="M615.892,617.032l.056,0,3.244-1.455.333,1.885-4.076,1.811-2.069-.153,1.317-17.946,2.347.172Z" transform="translate(-456.596 -277.072)"/><path class="b" d="M607.27,616.048l.055.009,3.361-1.158.163,1.906-4.222,1.437-2.048-.339,2.925-17.753,2.323.382Z" transform="translate(-463.073 -277.828)"/><path class="b" d="M595.036,606.242c1.536-5.925,4.581-8.624,8.442-7.624,3.4.884,4.883,4.671,3.442,10.448-1.515,5.843-4.869,8.407-8.407,7.491C594.839,615.6,593.6,611.791,595.036,606.242Zm9.532,2.186c1.175-4.531.448-7.465-1.7-8.022-2.413-.625-4.3,1.891-5.451,6.341-1.111,4.289-.741,7.388,1.7,8.022C601.182,615.3,603.337,613.173,604.567,608.427Z" transform="translate(-470.526 -279.106)"/><path class="b" d="M590.453,611.6l.052.017,3.515-.535-.182,1.9-4.411.656-1.957-.7L593.542,596l2.215.8Z" transform="translate(-475.663 -280.885)"/><path class="b" d="M579.807,599.429c2.578-5.551,6.06-7.659,9.678-5.979,3.189,1.479,3.961,5.472,1.505,10.895-2.543,5.477-6.3,7.4-9.619,5.855C577.93,608.6,577.394,604.628,579.807,599.429Zm8.983,3.866c1.97-4.246,1.784-7.263-.224-8.2-2.262-1.05-4.565,1.085-6.5,5.255-1.866,4.02-2.061,7.135.226,8.2C584.225,609.449,586.726,607.741,588.79,603.295Z" transform="translate(-482.395 -283.173)"/><path class="b" d="M574.64,603.938l.049.028,3.553.108-.523,1.84-4.458-.149-1.8-1.042,9.023-15.571,2.036,1.18Z" transform="translate(-487.442 -285.923)"/><path class="b" d="M566.04,589.893c3.529-5,7.333-6.451,10.591-4.151,2.873,2.027,2.918,6.095-.47,10.99-3.481,4.932-7.525,6.147-10.511,4.038C562.55,598.582,562.733,594.576,566.04,589.893Zm8.147,5.411c2.7-3.823,3.055-6.826,1.245-8.1-2.036-1.437-4.687.252-7.336,4.008-2.555,3.619-3.305,6.65-1.246,8.1C568.59,600.541,571.359,599.308,574.187,595.3Z" transform="translate(-493.349 -289.214)"/><path class="b" d="M560.361,593.366l.042.036,3.479.74-.842,1.718-4.361-.943-1.583-1.345,11.658-13.717,1.795,1.524Z" transform="translate(-498.016 -292.764)"/><path class="b" d="M553.935,587.086l.04.04,3.4,1.047-.993,1.637-4.258-1.33L550.666,587,563.5,574.381l1.651,1.679Z" transform="translate(-502.748 -296.792)"/><path class="b" d="M549.044,571.229c4.729-3.885,8.782-4.274,11.313-1.193,2.232,2.718,1.2,6.65-3.37,10.471-4.664,3.831-8.884,3.93-11.205,1.1C543.375,578.68,544.614,574.868,549.044,571.229Zm6.419,7.378c3.616-2.97,4.756-5.77,3.35-7.482-1.581-1.927-4.585-1-8.136,1.917-3.425,2.812-4.951,5.536-3.352,7.482C548.68,582.173,551.676,581.718,555.464,578.607Z" transform="translate(-507.232 -301.498)"/><path class="b" d="M542.772,572.809l.031.047,3.158,1.634-1.269,1.434-3.953-2.064-1.168-1.715,14.87-10.134,1.326,1.944Z" transform="translate(-510.913 -305.897)"/><path class="b" d="M540.649,556.454c5.347-2.974,9.4-2.633,11.339.851,1.708,3.073-.012,6.753-5.187,9.7-5.272,2.934-9.44,2.274-11.216-.918C533.742,562.768,535.643,559.24,540.649,556.454Zm4.992,8.4c4.088-2.274,5.711-4.824,4.633-6.758-1.21-2.179-4.329-1.805-8.344.429-3.869,2.152-5.859,4.558-4.633,6.759C538.334,567.151,541.361,567.239,545.642,564.858Z" transform="translate(-514.354 -311.469)"/><path class="b" d="M534.145,556.6l.021.05,2.816,2.175-1.505,1.182-3.52-2.739-.842-1.9,16.45-7.3.955,2.151Z" transform="translate(-517.137 -316.155)"/><path class="b" d="M534.948,540.392c5.794-1.965,9.723-.9,11,2.875,1.13,3.329-1.224,6.641-6.843,8.607-5.715,1.939-9.7.542-10.872-2.918C527.017,545.364,529.522,542.234,534.948,540.392Zm3.4,9.166c4.43-1.5,6.485-3.72,5.774-5.817-.8-2.359-3.935-2.554-8.287-1.076-4.2,1.422-6.583,3.432-5.774,5.817C530.749,550.5,533.71,551.132,538.351,549.558Z" transform="translate(-519.478 -322.517)"/><path class="b" d="M528.354,538.978l.014.054,2.375,2.646-1.692.891-2.967-3.328-.486-2.019,17.493-4.215.552,2.286Z" transform="translate(-521.196 -327.241)"/><path class="b" d="M526.584,529.8l.009.054,2.126,2.85-1.767.736-2.656-3.583-.3-2.055,17.811-2.623.342,2.33Z" transform="translate(-522.377 -332.997)"/><path class="b" d="M531.835,515.114c6.11-.346,9.613,1.731,9.837,5.713.2,3.512-2.958,6.076-8.9,6.468-6.029.34-9.494-2.071-9.7-5.722C522.859,517.785,526.11,515.437,531.835,515.114Zm.828,9.745c4.673-.264,7.246-1.852,7.121-4.064-.141-2.489-3.111-3.513-7.7-3.255-4.425.25-7.265,1.549-7.122,4.064C525.081,523.734,527.768,525.137,532.663,524.859Z" transform="translate(-523.062 -340.436)"/><path class="b" d="M525.4,511.427l0,.054,1.588,3.182-1.87.411-1.977-4L523.2,509l17.988.576-.075,2.352Z" transform="translate(-523.007 -344.906)"/><path class="b" d="M533.442,498.382c6.074.743,9.152,3.406,8.667,7.364-.427,3.491-3.985,5.454-9.9,4.787-5.991-.732-8.973-3.718-8.53-7.346C524.137,499.421,527.753,497.687,533.442,498.382Zm-.911,9.737c4.645.566,7.457-.54,7.727-2.738.3-2.474-2.439-4.008-7-4.567-4.4-.536-7.421.238-7.727,2.739C525.271,505.667,527.666,507.523,532.53,508.118Z" transform="translate(-522.641 -352.832)"/><path class="b" d="M527.412,494.23l-.012.054.995,3.414-1.913.071-1.232-4.288.436-2.031,17.6,3.777-.495,2.3Z" transform="translate(-521.453 -357.822)"/><path class="b" d="M537.974,482.375c5.841,1.819,8.39,4.992,7.2,8.8-1.047,3.355-4.9,4.649-10.6,2.93-5.76-1.8-8.157-5.268-7.07-8.758C528.638,481.725,532.5,480.668,537.974,482.375Zm-2.644,9.41c4.467,1.392,7.433.809,8.091-1.305.741-2.378-1.679-4.38-6.065-5.748-4.229-1.318-7.341-1.1-8.091,1.305C528.629,488.072,530.652,490.327,535.33,491.785Z" transform="translate(-519.978 -365.088)"/><path class="b" d="M532.492,477.62l-.023.05.363,3.538-1.894-.274-.439-4.439.795-1.92,16.63,6.893-.9,2.175Z" transform="translate(-517.59 -370.241)"/><path class="b" d="M536.127,469.721l-.024.049.042,3.557-1.863-.444-.036-4.461.964-1.838,15.943,8.362-1.094,2.085Z" transform="translate(-514.833 -376.124)"/><path class="b" d="M549.947,460.617c5.14,3.319,6.746,7.058,4.583,10.407-1.906,2.955-5.966,3.168-11-.016-5.071-3.274-6.449-7.263-4.467-10.332C541.123,457.489,545.132,457.506,549.947,460.617Zm-5.069,8.36c3.93,2.538,6.943,2.77,8.147.91,1.35-2.094-.446-4.67-4.307-7.164-3.72-2.4-6.779-3.026-8.147-.91C539.415,463.6,540.76,466.317,544.878,468.977Z" transform="translate(-511.924 -382.23)"/><path class="b" d="M545.763,455.058l-.035.045-.592,3.5-1.752-.769.759-4.394,1.278-1.635,14.184,11.066-1.448,1.856Z" transform="translate(-508.106 -386.996)"/><path class="b" d="M560.959,448.271c4.468,4.183,5.383,8.15,2.658,11.061-2.4,2.568-6.438,2.055-10.824-1.976-4.406-4.126-5.053-8.3-2.555-10.966C552.832,443.621,556.776,444.353,560.959,448.271Zm-6.479,7.326c3.416,3.2,6.341,3.965,7.855,2.349,1.7-1.821.4-4.677-2.961-7.819-3.234-3.029-6.133-4.187-7.855-2.349C550.061,449.335,550.9,452.248,554.481,455.6Z" transform="translate(-504.131 -392.206)"/><path class="b" d="M557.86,442.258l-.042.036-1.206,3.343-1.587-1.069,1.529-4.187L558.1,439l11.988,13.417-1.755,1.568Z" transform="translate(-499.54 -396.425)"/><path class="b" d="M574.009,438.081c3.651,4.911,3.843,8.976.644,11.356-2.823,2.1-6.7.873-10.3-3.871-3.6-4.845-3.494-9.065-.561-11.245C566.841,432.058,570.589,433.481,574.009,438.081Zm-7.68,6.053c2.793,3.757,5.534,5.031,7.312,3.708,2-1.486,1.222-4.529-1.521-8.22-2.644-3.555-5.289-5.211-7.312-3.708C563.1,437.187,563.406,440.2,566.329,444.134Z" transform="translate(-494.685 -400.643)"/><path class="b" d="M572.01,431.727l-.047.03-1.786,3.076-1.371-1.337,2.255-3.85,1.771-1.085,9.405,15.352-2.007,1.229Z" transform="translate(-489.399 -404.104)"/></g><g transform="translate(584.034 475.537)"><path class="b" d="M601.9,449.12c1.717,4.267,1.08,7.258-1.7,8.376-2.453.986-5.036-.644-6.744-4.779-1.692-4.208-.809-7.254,1.739-8.279C597.842,443.375,600.295,445.124,601.9,449.12Zm-6.737,2.934c1.312,3.262,3.062,4.711,4.605,4.09,1.738-.7,1.753-3.059.465-6.263-1.243-3.088-2.85-4.8-4.607-4.092C594.143,446.388,593.792,448.636,595.165,452.054Z" transform="translate(-514.443 -435.256)"/><path class="b" d="M601.552,444.172l-.04.012-1.887,1.892-.74-1.234,2.375-2.363,1.495-.45,3.89,12.95-1.693.51Z" transform="translate(-509.808 -436.804)"/><path class="b" d="M614.093,446.337c.92,4.5-.245,7.332-3.18,7.931-2.588.529-4.836-1.54-5.772-5.913-.906-4.444.51-7.282,3.2-7.831C611.135,439.956,613.232,442.117,614.093,446.337Zm-7.154,1.673c.7,3.444,2.161,5.185,3.793,4.852,1.835-.375,2.274-2.694,1.583-6.078-.665-3.262-1.937-5.23-3.793-4.852C606.953,442.252,606.2,444.4,606.939,448.01Z" transform="translate(-505.407 -437.977)"/><path class="b" d="M614.451,441.4l-.042.005-2.2,1.521-.505-1.345,2.762-1.9,1.552-.174,1.5,13.446-1.758.2Z" transform="translate(-500.373 -438.662)"/><path class="b" d="M626.673,445.763c.1,4.6-1.547,7.171-4.543,7.239-2.64.057-4.484-2.378-4.624-6.848-.1-4.534,1.8-7.072,4.544-7.133C624.9,438.958,626.577,441.458,626.673,445.763Zm-7.336.371c.078,3.513,1.2,5.487,2.866,5.451,1.873-.042,2.718-2.246,2.642-5.7-.075-3.328-.976-5.492-2.868-5.451C620.377,440.472,619.255,442.452,619.337,446.134Z" transform="translate(-496.109 -439.019)"/><path class="b" d="M627.573,440.982l-.042,0-2.432,1.109-.26-1.415,3.055-1.38,1.557.1-.908,13.5-1.766-.12Z" transform="translate(-490.709 -438.818)"/><path class="b" d="M634.1,441.678l-.04-.005-2.522.885-.132-1.432,3.166-1.1,1.543.245L634,453.631l-1.746-.276Z" transform="translate(-485.874 -438.279)"/><path class="b" d="M645.476,449.061c-1.127,4.458-3.4,6.5-6.308,5.768-2.562-.647-3.691-3.486-2.635-7.834,1.111-4.4,3.619-6.341,6.282-5.669C645.579,442.024,646.532,444.885,645.476,449.061Zm-7.173-1.6c-.861,3.411-.3,5.614,1.312,6.02,1.816.46,3.218-1.441,4.065-4.789.814-3.229.523-5.557-1.314-6.02C640.814,442.281,639.2,443.892,638.3,447.463Z" transform="translate(-482.393 -437.417)"/><path class="b" d="M647.365,444.8l-.038-.014-2.639.418.127-1.432,3.312-.514,1.474.516-4.479,12.766-1.67-.587Z" transform="translate(-477.012 -435.899)"/><path class="b" d="M657.289,453.945c-1.908,4.182-4.513,5.782-7.239,4.539-2.4-1.1-3-4.092-1.184-8.178,1.884-4.124,4.7-5.584,7.2-4.444C658.655,447.047,659.077,450.027,657.289,453.945Zm-6.765-2.859c-1.46,3.2-1.305,5.463.208,6.154,1.7.778,3.423-.838,4.857-3.979,1.382-3.027,1.514-5.369-.208-6.156C653.923,446.441,652.052,447.736,650.524,451.086Z" transform="translate(-473.807 -434.259)"/><path class="b" d="M660.167,450.191l-.036-.021-2.672-.062.385-1.387,3.349.092,1.356.774-6.708,11.743-1.536-.877Z" transform="translate(-469.025 -431.88)"/><path class="b" d="M668.06,460.806c-2.628,3.776-5.48,4.885-7.94,3.172-2.17-1.51-2.224-4.565.3-8.261,2.592-3.723,5.626-4.656,7.879-3.086C670.64,454.259,670.52,457.27,668.06,460.806Zm-6.15-4.027c-2.008,2.889-2.262,5.145-.9,6.1,1.538,1.071,3.52-.212,5.494-3.047,1.9-2.734,2.451-5.015.9-6.1C666.09,452.818,664.016,453.757,661.91,456.779Z" transform="translate(-465.931 -429.54)"/><path class="b" d="M671.705,457.827l-.031-.026-2.618-.538.625-1.3,3.279.687,1.2,1-8.688,10.36-1.356-1.137Z" transform="translate(-461.808 -426.548)"/><path class="b" d="M676.89,462.322l-.029-.029-2.559-.771.738-1.234,3.206.977,1.1,1.106-9.588,9.546-1.248-1.253Z" transform="translate(-458.569 -423.367)"/><path class="b" d="M681.417,474.263c-3.532,2.941-6.574,3.253-8.489.951-1.691-2.031-.932-4.989,2.479-7.881,3.484-2.9,6.654-2.994,8.409-.884C685.641,468.641,684.728,471.51,681.417,474.263Zm-4.855-5.51c-2.7,2.248-3.545,4.357-2.481,5.637,1.2,1.437,3.448.729,6.1-1.479,2.559-2.13,3.69-4.182,2.481-5.637C681.639,466.044,679.391,466.4,676.562,468.754Z" transform="translate(-455.957 -419.904)"/><path class="b" d="M685.908,472.527l-.023-.035-2.382-1.215.946-1.083,2.98,1.535.887,1.285L677.183,480.7l-1.005-1.455Z" transform="translate(-452.928 -416.077)"/><path class="b" d="M688.068,484.958c-4,2.264-7.053,2.028-8.527-.582-1.3-2.3-.026-5.076,3.849-7.313,3.948-2.232,7.084-1.759,8.437.632C693.229,480.178,691.817,482.84,688.068,484.958Zm-3.8-6.291c-3.06,1.731-4.267,3.656-3.448,5.105.92,1.63,3.264,1.333,6.27-.366,2.9-1.639,4.38-3.456,3.448-5.105C689.753,476.907,687.478,476.855,684.271,478.667Z" transform="translate(-450.816 -412.083)"/><path class="b" d="M692.852,484.03l-.018-.038-2.126-1.621,1.125-.9,2.66,2.041.642,1.424-12.33,5.572-.729-1.613Z" transform="translate(-448.588 -407.775)"/><path class="b" d="M692.608,496.65c-4.343,1.505-7.3.724-8.282-2.107-.865-2.495.889-5,5.1-6.5,4.284-1.484,7.282-.455,8.181,2.14C698.543,492.876,696.675,495.238,692.608,496.65Zm-2.6-6.871c-3.323,1.151-4.855,2.828-4.31,4.4.613,1.769,2.97,1.9,6.232.769,3.146-1.09,4.93-2.611,4.31-4.4C695.715,489.034,693.485,488.574,690.008,489.779Z" transform="translate(-447.09 -403.445)"/><path class="b" d="M697.49,496.509l-.01-.04-1.8-1.977,1.269-.677L699.2,496.3l.375,1.515-13.125,3.251-.425-1.717Z" transform="translate(-445.684 -398.694)"/><path class="b" d="M698.89,502.961l-.007-.042-1.611-2.13,1.323-.561,2.012,2.679.236,1.543L687.479,506.5l-.268-1.746Z" transform="translate(-444.808 -393.974)"/><path class="b" d="M695.173,515.291c-4.588.286-7.228-1.257-7.416-4.248-.165-2.637,2.194-4.578,6.656-4.9,4.527-.285,7.142,1.512,7.313,4.253C701.9,513.243,699.473,515.02,695.173,515.291Zm-.667-7.319c-3.508.22-5.435,1.425-5.331,3.086.116,1.87,2.354,2.625,5.8,2.41,3.321-.208,5.449-1.2,5.329-3.087C700.207,508.783,698.181,507.743,694.507,507.972Z" transform="translate(-444.412 -389.643)"/><path class="b" d="M699.84,516.077v-.042l-1.207-2.383,1.4-.318,1.5,2.995-.042,1.559-13.518-.351.047-1.767Z" transform="translate(-444.243 -384.33)"/><path class="b" d="M694.026,527.916c-4.569-.526-6.9-2.512-6.551-5.489.3-2.625,2.967-4.119,7.416-3.647,4.5.519,6.762,2.746,6.447,5.475C701.012,527.088,698.306,528.409,694.026,527.916Zm.634-7.32c-3.493-.4-5.6.444-5.791,2.1-.215,1.861,1.852,3,5.284,3.4,3.307.38,5.574-.217,5.791-2.1C700.128,522.4,698.319,521.017,694.66,520.6Z" transform="translate(-444.639 -380.386)"/><path class="b" d="M698.406,529.087l.009-.04-.764-2.561,1.436-.062.946,3.215-.318,1.528-13.238-2.755.359-1.732Z" transform="translate(-445.349 -374.697)"/><path class="b" d="M690.6,540.254c-4.4-1.34-6.331-3.711-5.458-6.579.769-2.528,3.661-3.519,7.952-2.253,4.34,1.321,6.159,3.92,5.359,6.548C697.618,540.7,694.717,541.511,690.6,540.254Zm1.941-7.088c-3.364-1.024-5.59-.571-6.076,1.021-.545,1.792,1.285,3.284,4.588,4.291,3.185.97,5.525.792,6.076-1.021C697.591,535.925,696.06,534.241,692.536,533.166Z" transform="translate(-446.485 -371.423)"/><path class="b" d="M694.486,542.434l.016-.038-.29-2.656,1.425.2.351,3.331-.588,1.446-12.527-5.1.667-1.639Z" transform="translate(-448.001 -366.193)"/><path class="b" d="M691.633,548.828l.019-.036-.05-2.673,1.4.326.052,3.35-.717,1.387-12.021-6.2.811-1.573Z" transform="translate(-449.882 -362.197)"/><path class="b" d="M681.408,557.217c-3.88-2.47-5.105-5.274-3.5-7.8,1.42-2.231,4.47-2.411,8.268-.043,3.828,2.437,4.883,5.428,3.408,7.746C688.057,559.524,685.043,559.531,681.408,557.217Zm3.771-6.31c-2.967-1.889-5.234-2.048-6.128-.644-1.007,1.581.356,3.508,3.271,5.364,2.81,1.788,5.112,2.243,6.129.644C689.312,554.918,688.286,552.886,685.179,550.907Z" transform="translate(-452.159 -359.063)"/><path class="b" d="M684.242,560.7l.026-.033.431-2.637,1.319.571-.55,3.305-.953,1.234L673.8,554.884l1.08-1.4Z" transform="translate(-454.675 -354.783)"/><path class="b" d="M672.905,566.912c-3.38-3.121-4.086-6.1-2.052-8.3,1.795-1.941,4.829-1.574,8.145,1.432,3.331,3.081,3.838,6.213,1.974,8.232C679.037,570.368,676.068,569.837,672.905,566.912Zm4.833-5.537c-2.583-2.387-4.786-2.949-5.916-1.725-1.271,1.375-.274,3.517,2.265,5.862,2.446,2.26,4.63,3.118,5.916,1.726C681.09,566.06,680.445,563.876,677.738,561.375Z" transform="translate(-457.682 -351.893)"/><path class="b" d="M674.849,571.035l.031-.028.892-2.517,1.2.8-1.132,3.154-1.156,1.045-9.07-10.03,1.311-1.186Z" transform="translate(-460.704 -348.317)"/><path class="b" d="M662.806,574.947c-2.769-3.673-2.934-6.728-.54-8.532,2.111-1.59,5.031-.689,7.758,2.859,2.731,3.623,2.67,6.8.476,8.449C668.224,579.439,665.4,578.387,662.806,574.947Zm5.742-4.588c-2.118-2.809-4.184-3.753-5.513-2.75-1.5,1.127-.9,3.411,1.184,6.169,2,2.659,4,3.892,5.513,2.751C671.012,575.565,670.765,573.3,668.549,570.359Z" transform="translate(-464.399 -345.823)"/><path class="b" d="M663.754,579.517l.035-.023,1.326-2.319,1.036,1-1.674,2.9-1.326.823-7.14-11.485,1.5-.934Z" transform="translate(-467.768 -343.011)"/><path class="b" d="M657.672,582.974l.036-.019,1.529-2.191.943,1.087-1.929,2.741-1.394.7-6.077-12.084,1.58-.8Z" transform="translate(-471.619 -340.852)"/><path class="b" d="M645.416,583.3c-1.687-4.277-1.033-7.265,1.753-8.364,2.458-.97,5.033.675,6.713,4.821,1.665,4.22.76,7.26-1.793,8.266C649.436,589.067,647,587.3,645.416,583.3Zm6.754-2.89c-1.29-3.271-3.029-4.73-4.578-4.119-1.743.687-1.772,3.046-.505,6.26,1.222,3.1,2.818,4.815,4.578,4.121C653.156,586.079,653.523,583.833,652.17,580.406Z" transform="translate(-476.245 -339.197)"/><path class="b" d="M644.67,588.172l.04-.012,1.9-1.88.731,1.238-2.39,2.35-1.5.439-3.809-12.981,1.7-.5Z" transform="translate(-479.813 -337.604)"/><path class="b" d="M632.885,586.114c-.887-4.513.3-7.332,3.237-7.911,2.594-.51,4.826,1.573,5.73,5.954.877,4.451-.561,7.279-3.257,7.808C635.8,592.517,633.718,590.339,632.885,586.114Zm7.168-1.623c-.679-3.449-2.127-5.2-3.758-4.88-1.838.361-2.295,2.679-1.628,6.067.642,3.267,1.9,5.246,3.76,4.88C640,590.249,640.764,588.1,640.053,584.491Z" transform="translate(-485 -336.647)"/><path class="b" d="M630.918,590.933l.042,0,2.206-1.509.5,1.351-2.776,1.882-1.552.163-1.413-13.457,1.759-.184Z" transform="translate(-488.439 -335.876)"/><path class="b" d="M620.155,586.638c-.075-4.6,1.592-7.166,4.59-7.214,2.642-.043,4.472,2.406,4.585,6.879.073,4.538-1.844,7.067-4.59,7.11C621.887,593.458,620.224,590.945,620.155,586.638Zm7.343-.326c-.056-3.517-1.17-5.5-2.837-5.472-1.873.029-2.732,2.229-2.677,5.685.054,3.33.941,5.5,2.835,5.472C626.424,591.97,627.557,589.995,627.5,586.311Z" transform="translate(-494.158 -335.694)"/><path class="b" d="M617.334,591.242l.042,0,2.437-1.094.25,1.417L617,592.928l-1.557-.113.991-13.488,1.764.13Z" transform="translate(-497.623 -335.764)"/><path class="b" d="M610.853,590.5l.042.007,2.526-.87.121,1.432-3.171,1.08-1.54-.253,2.2-13.342,1.745.286Z" transform="translate(-502.49 -336.332)"/><path class="b" d="M601.659,583.133c1.154-4.451,3.442-6.482,6.343-5.729,2.559.663,3.671,3.508,2.588,7.852-1.139,4.392-3.659,6.317-6.319,5.628C601.511,590.168,600.578,587.3,601.659,583.133Zm7.162,1.642c.883-3.4.337-5.611-1.274-6.027-1.814-.47-3.229,1.42-4.1,4.765-.837,3.222-.557,5.552,1.276,6.027C606.278,589.943,607.9,588.342,608.821,584.775Z" transform="translate(-508.091 -337.293)"/><path class="b" d="M598.214,587.158l.04.014,2.642-.4-.137,1.43-3.316.493-1.469-.526,4.56-12.733,1.665.6Z" transform="translate(-511.951 -338.629)"/><path class="b" d="M590.214,578.015c1.937-4.173,4.555-5.756,7.273-4.494,2.4,1.113,2.977,4.112,1.13,8.188-1.909,4.116-4.736,5.557-7.228,4.4C588.8,584.908,588.4,581.92,590.214,578.015Zm6.751,2.9c1.481-3.191,1.342-5.458-.168-6.159-1.7-.788-3.43.816-4.887,3.949-1.4,3.02-1.548,5.362.17,6.159C593.533,585.543,595.415,584.26,596.965,580.919Z" transform="translate(-517.01 -340.349)"/><path class="b" d="M586.331,581.4l.036.021,2.672.08-.394,1.384-3.349-.113-1.351-.783,6.781-11.7,1.529.887Z" transform="translate(-520.803 -342.416)"/><path class="b" d="M579.869,570.847c2.652-3.758,5.51-4.848,7.959-3.119,2.16,1.524,2.193,4.579-.354,8.259-2.616,3.706-5.654,4.618-7.9,3.034C577.246,577.376,577.385,574.366,579.869,570.847Zm6.123,4.066c2.027-2.873,2.295-5.13.936-6.09-1.531-1.08-3.522.189-5.515,3.012-1.92,2.72-2.482,5-.936,6.09C581.785,578.848,583.867,577.923,585.992,574.913Z" transform="translate(-525.242 -344.889)"/><path class="b" d="M575.6,573.458l.033.026,2.613.557-.632,1.29-3.277-.708-1.189-1.01,8.761-10.31,1.347,1.147Z" transform="translate(-528.75 -347.557)"/><path class="b" d="M570.773,568.738l.029.029,2.554.788-.747,1.229-3.2-1-1.094-1.115,9.648-9.482,1.239,1.26Z" transform="translate(-532.306 -350.584)"/><path class="b" d="M567.1,556.821c3.555-2.918,6.6-3.212,8.5-.9,1.677,2.043.9,5-2.533,7.869-3.5,2.88-6.676,2.953-8.421.832C562.836,562.421,563.768,559.555,567.1,556.821Zm4.824,5.546c2.719-2.232,3.576-4.336,2.519-5.624-1.189-1.446-3.446-.752-6.116,1.441-2.573,2.114-3.72,4.161-2.517,5.623C566.822,565.045,569.073,564.7,571.92,562.367Z" transform="translate(-535.675 -354.12)"/><path class="b" d="M562.383,558.008l.024.035,2.373,1.229-.953,1.076-2.972-1.55-.878-1.29,11.176-7.616,1,1.462Z" transform="translate(-538.443 -357.426)"/><path class="b" d="M560.789,545.717c4.017-2.234,7.065-1.977,8.52.64,1.285,2.307-.009,5.074-3.9,7.286-3.961,2.2-7.093,1.708-8.43-.691C555.6,550.461,557.027,547.811,560.789,545.717Zm3.751,6.315c3.073-1.708,4.291-3.625,3.482-5.079-.91-1.635-3.253-1.356-6.27.323-2.909,1.618-4.4,3.427-3.482,5.079C559.048,553.756,561.323,553.822,564.54,552.032Z" transform="translate(-541.028 -361.613)"/><path class="b" d="M555.9,545.831l.017.038,2.114,1.634-1.132.889-2.644-2.059-.634-1.427,12.362-5.489.719,1.616Z" transform="translate(-543.119 -365.135)"/><path class="b" d="M556.5,533.647c4.354-1.475,7.3-.677,8.268,2.161.849,2.5-.922,4.991-5.144,6.468-4.295,1.456-7.287.406-8.169-2.194C550.543,537.383,552.425,535.03,556.5,533.647Zm2.555,6.888c3.329-1.13,4.874-2.795,4.34-4.371-.6-1.774-2.958-1.92-6.228-.809-3.153,1.069-4.947,2.578-4.338,4.371C553.347,541.243,555.574,541.719,559.06,540.535Z" transform="translate(-544.878 -369.916)"/><path class="b" d="M551.55,532.585l.01.04,1.783,1.988-1.271.67-2.231-2.5-.365-1.517,13.146-3.168.415,1.72Z" transform="translate(-546.169 -373.466)"/><path class="b" d="M550.218,525.691l.005.042,1.6,2.141-1.328.554-1.995-2.694-.227-1.543,13.384-1.972.257,1.751Z" transform="translate(-547.056 -377.792)"/><path class="b" d="M554.164,514.651c4.591-.26,7.225,1.3,7.393,4.293.149,2.64-2.222,4.567-6.688,4.861-4.531.255-7.135-1.555-7.289-4.3C547.418,516.658,549.862,514.894,554.164,514.651Zm.621,7.324c3.513-.2,5.447-1.392,5.352-3.055-.1-1.87-2.337-2.64-5.788-2.444-3.324.188-5.458,1.163-5.352,3.054C549.088,521.129,551.108,522.183,554.785,521.975Z" transform="translate(-547.572 -383.381)"/><path class="b" d="M549.327,511.879l0,.042,1.193,2.392-1.4.307-1.486-3,.05-1.559,13.518.432-.055,1.769Z" transform="translate(-547.53 -386.741)"/><path class="b" d="M555.371,502.077c4.564.557,6.878,2.559,6.513,5.534-.32,2.623-2.995,4.1-7.44,3.6-4.5-.55-6.744-2.795-6.411-5.52C548.379,502.858,551.1,501.554,555.371,502.077Zm-.684,7.317c3.489.425,5.6-.406,5.807-2.057.226-1.859-1.833-3.013-5.262-3.432-3.305-.4-5.578.177-5.807,2.057C549.232,507.552,551.032,508.946,554.688,509.394Z" transform="translate(-547.255 -392.697)"/><path class="b" d="M550.841,498.956l-.009.042.748,2.566-1.437.054-.929-3.222.328-1.528,13.229,2.838-.371,1.731Z" transform="translate(-546.363 -396.447)"/><path class="b" d="M558.778,490.046c4.39,1.368,6.3,3.753,5.413,6.614-.786,2.521-3.682,3.493-7.964,2.2-4.329-1.351-6.131-3.96-5.314-6.581C551.761,489.559,554.667,488.765,558.778,490.046Zm-1.986,7.074c3.355,1.047,5.584.608,6.079-.981.557-1.788-1.262-3.293-4.558-4.321-3.177-.989-5.517-.826-6.079.983C551.756,494.329,553.275,496.023,556.792,497.12Z" transform="translate(-545.254 -401.908)"/><path class="b" d="M554.656,486.474l-.016.038.273,2.659-1.424-.207-.33-3.336.6-1.442,12.5,5.18L565.577,491Z" transform="translate(-543.459 -405.78)"/><path class="b" d="M557.39,480.538l-.019.036.031,2.673-1.4-.333-.028-3.354.726-1.382,11.979,6.284-.821,1.567Z" transform="translate(-541.388 -410.201)"/><path class="b" d="M567.776,473.7c3.862,2.494,5.069,5.305,3.444,7.822-1.434,2.22-4.484,2.38-8.265-.012-3.81-2.462-4.847-5.458-3.357-7.765C561.144,471.345,564.158,471.359,567.776,473.7Zm-3.81,6.282c2.955,1.908,5.22,2.083,6.123.686,1.015-1.575-.335-3.51-3.236-5.385-2.8-1.805-5.095-2.274-6.123-.684C559.862,475.94,560.872,477.98,563.965,479.978Z" transform="translate(-539.202 -414.79)"/><path class="b" d="M564.63,469.52l-.024.033-.446,2.633-1.316-.578.569-3.3.96-1.231,10.66,8.319-1.088,1.394Z" transform="translate(-536.332 -418.372)"/><path class="b" d="M576.051,464.419c3.357,3.144,4.045,6.124,2,8.313-1.805,1.929-4.838,1.543-8.133-1.486-3.312-3.1-3.8-6.235-1.92-8.24C569.944,460.924,572.907,461.475,576.051,464.419Zm-4.869,5.506c2.567,2.4,4.765,2.979,5.9,1.764,1.279-1.368.3-3.515-2.225-5.876-2.43-2.276-4.609-3.145-5.9-1.764C567.861,465.219,568.493,467.406,571.182,469.925Z" transform="translate(-533.345 -422.287)"/><path class="b" d="M573.721,459.9l-.029.028-.908,2.514-1.193-.8,1.149-3.147,1.163-1.04,9.009,10.082-1.319,1.177Z" transform="translate(-529.895 -425.457)"/><path class="b" d="M585.858,456.76c2.743,3.691,2.889,6.747.483,8.534-2.121,1.578-5.034.658-7.737-2.908-2.706-3.642-2.626-6.812-.422-8.45C580.47,452.235,583.288,453.3,585.858,456.76Zm-5.772,4.55c2.1,2.823,4.157,3.781,5.494,2.786,1.5-1.116.918-3.4-1.142-6.176-1.988-2.672-3.975-3.916-5.5-2.786C577.658,456.089,577.889,458.354,580.086,461.31Z" transform="translate(-526.247 -428.627)"/><path class="b" d="M584.356,451.988l-.035.021-1.344,2.312-1.029-1.005,1.694-2.894,1.33-.816,7.069,11.539-1.508.924Z" transform="translate(-522.274 -431.228)"/></g><g transform="translate(593.758 473.964)"><g class="c"><g transform="translate(39.065 91.542)"><rect class="d" width="12.988" height="12.988" rx="0.534" transform="translate(2.655)"/><rect class="e" width="12.988" height="12.988" rx="0.534" transform="translate(29.385)"/><rect class="d" width="12.988" height="12.988" rx="0.534" transform="translate(42.721)"/><rect class="d" width="12.988" height="12.988" rx="0.534" transform="translate(56.173)"/><rect class="d" width="12.988" height="12.988" rx="0.534" transform="translate(69.509)"/><rect class="d" width="12.988" height="12.988" rx="0.534" transform="translate(149.525)"/><rect class="e" width="12.988" height="12.988" rx="0.534" transform="translate(16.013)"/><rect class="d" width="12.988" height="12.988" rx="0.534" transform="translate(82.835)"/><rect class="d" width="12.988" height="12.988" rx="0.534" transform="translate(96.171)"/><rect class="d" width="12.988" height="12.988" rx="0.534" transform="translate(109.623)"/><rect class="d" width="12.988" height="12.988" rx="0.534" transform="translate(123.017)"/><rect class="d" width="12.988" height="12.988" rx="0.534" transform="translate(136.275)"/><rect class="d" width="12.988" height="12.988" rx="0.534" transform="translate(6.492 13.417)"/><rect class="e" width="12.988" height="12.988" rx="0.534" transform="translate(33.28 13.417)"/><rect class="e" width="12.988" height="12.988" rx="0.534" transform="translate(46.616 13.417)"/><rect class="d" width="12.988" height="12.988" rx="0.534" transform="translate(60.068 13.417)"/><rect class="d" width="12.988" height="12.988" rx="0.534" transform="translate(73.404 13.417)"/><rect class="e" width="12.988" height="12.988" rx="0.534" transform="translate(19.909 13.417)"/><rect class="d" width="12.988" height="12.988" rx="0.534" transform="translate(86.73 13.417)"/><rect class="d" width="12.988" height="12.988" rx="0.534" transform="translate(100.008 13.417)"/><rect class="d" width="12.988" height="12.988" rx="0.534" transform="translate(113.344 13.417)"/><rect class="d" width="12.988" height="12.988" rx="0.534" transform="translate(126.68 13.417)"/><rect class="d" width="12.988" height="12.988" rx="0.534" transform="translate(139.997 13.417)"/><rect class="d" width="12.988" height="12.988" rx="0.534" transform="translate(0 26.833)"/><rect class="e" width="12.988" height="12.988" rx="0.534" transform="translate(26.672 26.833)"/><rect class="e" width="12.988" height="12.988" rx="0.534" transform="translate(40.124 26.833)"/><rect class="e" width="12.988" height="12.988" rx="0.534" transform="translate(53.576 26.833)"/><rect class="d" width="12.988" height="12.988" rx="0.534" transform="translate(66.912 26.833)"/><rect class="d" width="12.988" height="12.988" rx="0.534" transform="translate(13.417 26.833)"/><rect class="d" width="12.988" height="12.988" rx="0.534" transform="translate(80.238 26.833)"/><rect class="d" width="12.988" height="12.988" rx="0.534" transform="translate(93.574 26.833)"/><rect class="d" width="12.988" height="12.988" rx="0.534" transform="translate(106.91 26.833)"/><rect class="d" width="12.988" height="12.988" rx="0.534" transform="translate(120.304 26.833)"/><rect class="d" width="12.988" height="12.988" rx="0.534" transform="translate(133.621 26.833)"/><rect class="d" width="19.913" height="12.988" rx="0.534" transform="translate(129.596 40.266)"/><rect class="d" width="19.913" height="12.988" rx="0.534" transform="translate(15.771 40.266)"/><rect class="e" width="93.272" height="12.988" rx="0.534" transform="translate(36.012 40.266)"/><g class="f" transform="translate(17.474 40.767)"><text class="g" transform="translate(0 1)"><tspan x="0" y="0">Alt</tspan></text></g><g class="f" transform="translate(131.244 41.238)"><text class="h" transform="translate(0 1)"><tspan x="0" y="0">Alt</tspan></text></g><g class="f" transform="translate(4.18 1.305)"><text class="g" transform="translate(0 1)"><tspan x="0" y="0">Q</tspan></text></g><g class="f" transform="translate(17.377 1.305)"><text class="i" transform="translate(0 2)"><tspan x="0" y="0">W</tspan></text></g><g class="f" transform="translate(30.668 1.305)"><text class="i" transform="translate(0 2)"><tspan x="0" y="0">E</tspan></text></g><g class="f" transform="translate(44.225 1.305)"><text class="i" transform="translate(0 2)"><tspan x="0" y="0">R</tspan></text></g><g class="f" transform="translate(57.398 1.305)"><text class="j" transform="translate(0 2)"><tspan x="0" y="0">T</tspan></text></g><g class="f" transform="translate(70.209 1.305)"><text class="j" transform="translate(0 2)"><tspan x="0" y="0">Z</tspan></text></g><g class="f" transform="translate(84.112 1.305)"><text class="h" transform="translate(0 1)"><tspan x="0" y="0">U</tspan></text></g><g class="f" transform="translate(97.916 1.305)"><text class="h" transform="translate(0 1)"><tspan x="0" y="0">I</tspan></text></g><g class="f" transform="translate(111.092 1.305)"><text class="h" transform="translate(0 1)"><tspan x="0" y="0">O</tspan></text></g><g class="f" transform="translate(124.208 1.305)"><text class="j" transform="translate(0 2)"><tspan x="0" y="0">P</tspan></text></g><g class="f" transform="translate(8.652 14.626)"><text class="i" transform="translate(0 2)"><tspan x="0" y="0">A</tspan></text></g><g class="f" transform="translate(21.907 14.626)"><text class="i" transform="translate(0 2)"><tspan x="0" y="0">S</tspan></text></g><g class="f" transform="translate(35.198 14.626)"><text class="i" transform="translate(0 2)"><tspan x="0" y="0">D</tspan></text></g><g class="f" transform="translate(48.753 14.626)"><text class="i" transform="translate(0 2)"><tspan x="0" y="0">F</tspan></text></g><g class="f" transform="translate(61.928 14.626)"><text class="h" transform="translate(0 1)"><tspan x="0" y="0">G</tspan></text></g><g class="f" transform="translate(74.737 14.626)"><text class="h" transform="translate(0 1)"><tspan x="0" y="0">H</tspan></text></g><g class="f" transform="translate(88.642 14.626)"><text class="h" transform="translate(0 1)"><tspan x="0" y="0">J</tspan></text></g><g class="f" transform="translate(101.697 14.626)"><text class="j" transform="translate(0 2)"><tspan x="0" y="0">K</tspan></text></g><g class="f" transform="translate(115.447 14.626)"><text class="h" transform="translate(0 1)"><tspan x="0" y="0">L</tspan></text></g><g class="f" transform="translate(1.725 27.947)"><text class="i" transform="translate(0 2)"><tspan x="0" y="0">Z</tspan></text></g><g class="f" transform="translate(14.98 27.947)"><text class="g" transform="translate(0 1)"><tspan x="0" y="0">Y</tspan></text></g><g class="f" transform="translate(28.154 27.947)"><text class="g" transform="translate(0 1)"><tspan x="0" y="0">X</tspan></text></g><g class="f" transform="translate(41.826 27.947)"><text class="i" transform="translate(0 2)"><tspan x="0" y="0">C</tspan></text></g><g class="f" transform="translate(55.001 27.947)"><text class="g" transform="translate(0 1)"><tspan x="0" y="0">V</tspan></text></g><g class="f" transform="translate(67.811 27.947)"><text class="i" transform="translate(0 2)"><tspan x="0" y="0">B</tspan></text></g><g class="f" transform="translate(81.715 27.947)"><text class="h" transform="translate(0 1)"><tspan x="0" y="0">N</tspan></text></g><g class="f" transform="translate(95.519 27.947)"><text class="h" transform="translate(0 1)"><tspan x="0" y="0">M</tspan></text></g><g class="f" transform="translate(128.113 20.378)"><text class="h" transform="translate(0 1)"><tspan x="0" y="0">;</tspan></text></g><g class="f" transform="translate(128.288 14.516)"><text class="h" transform="translate(0 1)"><tspan x="0" y="0">:</tspan></text></g><g class="f" transform="translate(108.508 34.77)"><text class="h" transform="translate(0 1)"><tspan x="0" y="0">,</tspan></text></g><g class="f" transform="translate(121.626 34.77)"><text class="h" transform="translate(0 1)"><tspan x="0" y="0">.</tspan></text></g><g class="f" transform="translate(137.39 0.566)"><text class="h" transform="translate(0 1)"><tspan x="0" y="0">{</tspan></text></g><g class="f" transform="translate(137.307 8.381)"><text class="h" transform="translate(0 1)"><tspan x="0" y="0">[</tspan></text></g><g class="f" transform="translate(150.78 0.525)"><text class="h" transform="translate(0 1)"><tspan x="0" y="0">}</tspan></text></g><g class="f" transform="translate(150.78 7.893)"><text class="h" transform="translate(0 1)"><tspan x="0" y="0">]</tspan></text></g><g class="f" transform="translate(140.363 14.199)"><text class="h" transform="translate(0 1)"><tspan x="0" y="0">&quot;</tspan></text></g><g class="f" transform="translate(141.011 21.973)"><text class="h" transform="translate(0 1)"><tspan x="0" y="0">&apos;</tspan></text></g><g class="f" transform="translate(134.906 34.755)"><text class="h" transform="translate(0 1)"><tspan x="0" y="0">/</tspan></text></g><g class="f" transform="translate(135.15 27.184)"><text class="h" transform="translate(0 1)"><tspan x="0" y="0">?</tspan></text></g><g class="f" transform="translate(121.231 26.696)"><text class="h" transform="translate(0 1)"><tspan x="0" y="0">&gt;</tspan></text></g><g class="f" transform="translate(108.776 26.696)"><text class="h" transform="translate(0 1)"><tspan x="0" y="0">&lt;</tspan></text></g><g transform="translate(48.828 41.154)"><path class="k" d="M722.669,557.331s-86.989,6-90.073,90.431l-.361,1.84,17.819-7.8s32.854-52.768,34-53.393S722.669,557.331,722.669,557.331Z" transform="translate(-582.883 -483.074)"/><g class="l" transform="translate(0 67.665)"><path d="M603.984,554.089c-.061-.186-.122-.373-.179-.556C603.8,553.534,603.871,553.73,603.984,554.089Z" transform="translate(-603.805 -553.534)"/></g><path class="k" d="M649,623.389s31.281-11.368-13.054-89.441c-22.416-30.193,5.98,69.833,5.98,69.833Z" transform="translate(-586.492 -504.462)"/><g transform="translate(27.33)"><path class="m" d="M629.807,536.191s3.625-6.353,2.837-12.028c-.47-3.373.364-3.541.441-4.164.257-2.064-2.6.717-2.649,3.717-.038,2.437-3.47,4.821-3.875,6.4s-.686,6.029.137,6.871S629.807,536.191,629.807,536.191Z" transform="translate(-614.678 -511.073)"/><path class="m" d="M632.416,556.131c.035-1.1,3.184-13.512,2-19.378s-3.562-16.035-3.609-19.232c-.054-3.76-1.693-4.224-2.019.227a78.235,78.235,0,0,0,.21,11.426,53.892,53.892,0,0,1-1.111-7.522c-.1-1.5-.738-1.51-1.578-1.285-1.562.42-.507,4.834-.668,6.928,0,0-.347-2.073-.639-5.461-.11-1.279-1-1.01-1.757-.894s-1.182,1.019-.311,6.661c.056.486-.241,1.635-.859-5.189-.062-.68-1.946-1.573-2.121.354-.379,4.216-1.05,5.984,1.125,11.79,2.286,6.1,4.605,11.325,4.446,16.264Z" transform="translate(-619.549 -514.554)"/></g><g transform="translate(21.48 4.426)"><path class="n" d="M796.932,591.059c-9.327,26.556-19.89,46.63-69.421,76.91-25.129,15.363-52.472,25.376-67.107,30.132a18.124,18.124,0,0,1-19.326-5.489c-45.148-52.449-15.1-142.991-15.1-142.991-.144-4.014,15.153-2.14,15.153-2.14,14.233,33.432,23.843,59.585,24.615,90.6.009-.161,38.338-46.654,50.434-55.8,31.726-23.978,49.875-67.23,67.078-65.1C789.2,517.916,806.342,564.272,796.932,591.059Z" transform="translate(-616.179 -517.104)"/></g></g></g></g></g></g></svg>