<svg xmlns="http://www.w3.org/2000/svg" xmlns:xlink="http://www.w3.org/1999/xlink" width="339.963" height="360.522" viewBox="0 0 339.963 360.522"><defs><style>.a,.l{fill:none;}.b,.o{fill:#b6d7db;}.b{opacity:0.49;}.c{clip-path:url(#a);}.d{fill:#d19442;}.e,.k{fill:#d8a35d;}.f{fill:#8f7fc8;}.g{fill:#ffc84f;}.h{opacity:0.15;}.i{opacity:0.3;}.j{opacity:0.5;}.k{fill-rule:evenodd;}.l{stroke:#8f7fc8;stroke-miterlimit:10;stroke-width:0.311px;}.m{fill:#9785d2;}.n{fill:#f6c865;}.o{opacity:0.73;}.p{fill:#f3d14e;}.q{fill:#ef9341;}</style><clipPath id="a"><path class="a" d="M564.646,631.706c10.143,24.529,33.942,48.918,63.07,55.185,33.534,7.216,44.759-15.908,79.4-10.7,42.312,6.362,45.653,43.881,80.526,48.991,42.808,6.273,102.6-40.764,109.808-98.546,7.009-56.19-38.824-97.576-52.37-109.808-61.2-55.264-173.164-75.147-237.636-18.583C575.187,526.546,544.515,583.02,564.646,631.706Z"/></clipPath></defs><g transform="translate(-558.212 -365.224)"><path class="b" d="M564.646,631.706c10.143,24.529,33.942,48.918,63.07,55.185,33.534,7.216,44.759-15.908,79.4-10.7,42.312,6.362,45.653,43.881,80.526,48.991,42.808,6.273,102.6-40.764,109.808-98.546,7.009-56.19-38.824-97.576-52.37-109.808-61.2-55.264-173.164-75.147-237.636-18.583C575.187,526.546,544.515,583.02,564.646,631.706Z"/><g class="c"><path class="d" d="M709.21,497.318s-.982,10.963,5.78,17.025-15.584,0-15.584,0,4.158-10.5,3.226-17.025S709.21,497.318,709.21,497.318Z"/><ellipse class="e" cx="11.822" cy="16.13" rx="11.822" ry="16.13" transform="translate(693.821 469.308)"/><path class="f" d="M782.751,602.8c-.251,3.96-4.346,21.9-9.464,37.85-4.194,13.093-9.088,24.847-13.111,26.473-8.926,3.592-76.32,8.522-90.176,1.912-.323-.242-.673-.5-1.006-.79-5.2-4.229-10.838-12.58-13.829-20.4,0-.009-7.965-22.459-9.59-27.03-.018-.044-.027-.08-.045-.116-.054-.18-.116-.35-.179-.512-.018-.063-.045-.117-.063-.18-8.387,28.637-73.941,26.554-35.92-52.981,17.9-37.437,49.838-54.516,70.231-59.051,8.828-1.967,15.491-1.581,17.924.521a13.222,13.222,0,0,0,8.253,3.206,17.891,17.891,0,0,0,4.634-.423,23.068,23.068,0,0,0,4.912-1.67c.754-.35,1.194-.6,1.194-.6a47.9,47.9,0,0,1,12.482.746C775.136,518.785,783.164,596.146,782.751,602.8Z"/><path class="g" d="M760.327,776.986H713.869q.093-4.269.209-8.606c.1-3.951.208-7.931.32-11.868.118-4.174.236-8.314.347-12.349.112-3.868.216-7.638.314-11.256.264-10.22.445-19.243.41-25.8-.028-6.206-.25-10.192-.786-10.874-.2-.257-.41-.209-.633.139-.7,1.1-1.5,5.183-2.366,11.4-.466,3.3-.946,7.214-1.447,11.6-.494,4.285-1,9.037-1.53,14.115-.369,3.562-.745,7.291-1.134,11.145-.438,4.418-.891,8.989-1.35,13.664-.341,3.422-.682,6.9-1.029,10.414q-.408,4.112-.814,8.272H652.585c.014-.125.028-.258.049-.383.452-3.221.919-6.609,1.4-10.122.57-4.174,1.154-8.522,1.746-12.968.549-4.153,1.113-8.4,1.669-12.654,1.141-8.689,2.275-17.476,3.34-25.817,1.022-7.98,1.976-15.556,2.824-22.242,1.962-15.611,3.3-26.415,3.3-26.415a5.591,5.591,0,0,0,.424.383.153.153,0,0,0,.035.028,6.148,6.148,0,0,0,1.468.876,9.1,9.1,0,0,0,2.212.619l4.7.084c3.479.062,8.1.125,13.4.181,3.965.041,8.314.076,12.836.09,1.182.007,2.372.014,3.568.007h.056c2.9.007,5.844.007,8.794-.007,4.633-.021,9.273-.069,13.726-.153,4.153-.076,8.153-.181,11.826-.327,1.593-.07,3.124-.139,4.585-.216.014.007.028,0,.042,0l.361-.02c.369-.021.571-.035.571-.035.744-.042,1.461-.091,2.163-.139s1.378-.091,2.032-.147h.007c.542-.041,1.064-.083,1.572-.132.334-.027.668-.062.988-.1.16-.014.32-.028.473-.049s.313-.035.466-.048.306-.035.452-.049.292-.035.439-.056c.208-.021.41-.048.612-.076.779-.1,1.481-.209,2.108-.32a14.717,14.717,0,0,0,2.393-.606,1.946,1.946,0,0,0,.188-.076,3.13,3.13,0,0,0,.327-.146c.048-.028.1-.056.139-.077s.083-.055.118-.083a.922.922,0,0,0,.188-.16.788.788,0,0,1-.007.09c0,.056-.007.146-.014.265-.007.153-.014.354-.028.6-.007.167-.014.355-.028.556-.021.383-.041.835-.062,1.35-.007.132-.014.264-.021.4a.328.328,0,0,0-.007.083c-.007.2-.021.4-.028.6s-.028.432-.035.654c-.02.411-.042.842-.069,1.294-.007.188-.014.383-.028.578q-.021.417-.042.855c-.014.2-.021.4-.028.606-.041.772-.083,1.586-.132,2.448-.021.432-.041.877-.069,1.329s-.042.918-.07,1.4c-.035.661-.07,1.343-.1,2.039-.056,1.064-.112,2.177-.174,3.325-.028.578-.063,1.162-.091,1.76-.069,1.364-.146,2.783-.222,4.244-.063,1.051-.112,2.129-.174,3.228-.035.71-.077,1.426-.112,2.15-.083,1.523-.166,3.089-.25,4.689-.16,2.949-.278,6-.362,9.12-.313,11.069-.194,23.083.23,34.854.16,4.167.348,8.3.577,12.349s.487,8.028.78,11.868Q759.944,772.815,760.327,776.986Z"/><path class="h" d="M645.29,620.005c.018.063.045.117.063.18.063.162.126.332.18.512.018.036.027.072.044.117,1.626,4.57,9.591,27.02,9.591,27.029,2.99,7.821,8.63,16.173,13.829,20.4-3.529-12.778-14.529-49.82-14.107-64.745C652.788,617.886,645.29,620,645.29,620.005Z"/><path class="h" d="M747.293,570.295s-27.473,64.722,32.092,97.79l1.19.933.9-15.658s-25.926-42.9-25.955-43.954S747.293,570.295,747.293,570.295Z"/><path class="h" d="M706.557,514.348c.036,1.069-.53,1.769-2.245,1.536-5.352-.727-11.4-.575-15.786,1.437a3.73,3.73,0,0,1-3.61-.153c-2.811-1.643-4.553-6.546-5.245-8.719a1.523,1.523,0,0,1-.071-.476c8.827-1.967,15.49-1.581,17.923.521a13.215,13.215,0,0,0,8.253,3.205A7.285,7.285,0,0,1,706.557,514.348Z"/><g class="i"><path d="M705.665,668.662c-.158-.013-.315-.025-.468-.039C705.2,668.623,705.363,668.635,705.665,668.662Z"/><path class="j" d="M705.665,668.662c12.509,1,39.849-.77,39.849-.77,8.034-.462,13.676-1.176,14.667-2.259a.867.867,0,0,1-.007.092c-.059,1.256-.779,15.625-1.79,34.461a9.368,9.368,0,0,1-1.315-.152,10.237,10.237,0,0,1-6.62-4.7,22.739,22.739,0,0,1-2.574-5.376C738.549,672.208,709.672,669.022,705.665,668.662Z"/></g><path class="h" d="M751.167,642.166s3.258-26.64-69.063-23.3,52.382,21.218,52.382,21.218Z"/><path class="k" d="M687.988,629.405c-.826-.352-9.362-6.417-14.184-7.246s-12.066-1.6-14.518-2.509c-2.883-1.07-3.72.043-.424,1.606a48.178,48.178,0,0,0,7.563,2.8c.484.057-2.646-.616-6.029-1.6-3.6-1.044-7.481-2.385-7.714-1.748-.451,1.235,9.857,4.9,11.7,5.245a46.7,46.7,0,0,1-4.845-.976c-2.177-.564-4.645-1.544-5.178-1.125-.84.66,4.566,3.285,9.126,4.286.068.155-1.439.272-6.775-1.28-.536-.156-1.942-.026-.222.939,3.621,2.031,5.028,3.172,10.459,3.768,5.3.582,11.242-.052,14.96,1.528Z"/><path class="k" d="M676.107,622.821s-3.772-4.64-8.332-5.714c-2.711-.638-2.593-1.324-3.044-1.566-1.5-.8-.222,2.2,2.051,3.117,1.847.749,2.651,4.069,3.736,4.844s4.393,2.3,5.278,1.924S676.107,622.821,676.107,622.821Z"/><path class="f" d="M773.077,526.913c15.681,16.41,26.251,31.337,29.918,78.006,1.86,23.678-.934,46.991-2.861,59.249a14.62,14.62,0,0,1-11.008,11.887c-54.2,13.288-108.3-41.393-108.3-41.393-2.938-1.363,4-11.674,4-11.674,29.232,1.985,51.543,4.634,74.118,15.41-.114-.065-19.527-44.606-21.683-56.644-5.645-31.567-30.1-60.417-22.282-72C717.675,505.743,757.259,510.362,773.077,526.913Z"/><path class="l" d="M665.372,776.986l.612-6.449,1.183-12.383,1.273-13.288,1.245-13.03,1.364-14.227,1.064-11.18,1.044-10.922,1.371-14.317,1.009-10.533.216-2.282.278-2.9"/><path class="l" d="M678.674,776.986l.452-4.682,1.169-12.1,1.259-13.023,1.231-12.773,1.405-14.568,1.071-11.089,1.071-11.082,1.551-16.008.925-9.628.341-3.478.028-.313"/><path class="l" d="M702.021,668.243l-.035.4-.292,3.631-.786,9.747L699.6,698.136l-.884,10.978-.939,11.569-1.134,14.039-.995,12.307-1.044,12.933-.932,11.507-.445,5.517"/><line class="l" x2="0.282" y2="27.99" transform="translate(714.399 668.245)"/><path class="l" d="M726.134,776.986l.1-5.781.23-12.188.209-11.6.23-12.265.243-13.107.2-11.173.257-13.935.271-14.589.153-8.355.049-2.713.049-2.553v-.237l.007-.25"/><path class="l" d="M739.957,668.159v.056l-.014,2.1-.049,10.338-.007,1.551L739.8,697.74l-.07,13.636-.056,11.235-.07,13.114-.063,12.467-.056,11.347-.063,12.042-.028,5.406"/><path class="l" d="M751.575,668.159l.014.779.243,12.724.292,15.2.007.522.243,12.829.223,11.312.237,12.655.23,11.785.223,11.889.23,11.924.139,7.207"/><path class="l" d="M665.12,680.79s74.582,3.521,94.287,0"/><path class="l" d="M714.681,696.235c-26.1,5.91-51.068-3.433-51.068-3.433"/><path class="l" d="M714.4,694.469s23.55,6.617,44.236,1.029"/><path class="l" d="M662.33,702.951s18.806,9.846,49.351,4.826"/><path class="l" d="M660.791,715.038s29.264,8.934,49.444,4.337"/><path class="l" d="M659.247,727.046s14.9,11.684,49.46,6.442"/><path class="l" d="M657.45,740.858a72.509,72.509,0,0,0,50.125,3.776"/><path class="l" d="M655.78,753.511s16.1,11.426,50.442,4.789"/><path class="l" d="M654.033,766.483s22.216,11.613,51.164,2.231"/><path class="l" d="M653.086,776.986c-.306-.244-.452-.383-.452-.383"/><path class="l" d="M715.469,707.11s9.839,8.124,43.166,2.093"/><path class="l" d="M715.728,719.336s13.806,6.438,42.118,1.354"/><path class="l" d="M715.055,732.906s21.317,6.421,42.791,0"/><path class="l" d="M714.748,744.16s20.723,9.212,43.511,0"/><path class="l" d="M714.4,756.515s19.729,6.923,44.432,0"/><path class="l" d="M714.081,768.381s16.63,7.461,45.528,0"/><path class="h" d="M702.186,526.388c.512,1.677,4.128,7.571,3.011,12.813s-25.385,57.541-35.384,64.3-28.054,14.442-28.054,14.442l49.335-68.257,2.727-23.3S698.987,515.908,702.186,526.388Z"/><path class="k" d="M697.638,524.906s3.012-5.278,2.356-9.994c-.389-2.8.3-2.942.368-3.459.213-1.717-2.161.595-2.2,3.087-.032,2.025-2.883,4.006-3.22,5.319s-.57,5.008.114,5.708S697.638,524.906,697.638,524.906Z"/><path class="k" d="M695.758,538.582c.03-.912,2.646-11.228,1.662-16.1s-2.961-13.323-3-15.98c-.045-3.125-1.407-3.51-1.679.188a65.319,65.319,0,0,0,.175,9.493,38.6,38.6,0,0,1-.923-6.248c-.121-2.087-.614-1.262-1.311-1.068-1.287.359-.722,3.883-.375,5.754a18.1,18.1,0,0,1-.935-4.589c-.092-1.063-.6-.786-1.236-.689s-.9.861-.17,5.549c-.123.122-.315,1.3-.8-4.326-.049-.566-1.7-1.709-1.762.295-.107,3.515-.842,3.2.586,8.57,1.392,5.233,4.174,10.635,4.042,14.739Z"/><path class="m" d="M686.024,529.882a129.035,129.035,0,0,0-46.595,15.726c-12.43,7.124-43.293,24.81-46.6,54.167-.289,2.565-2.475,24.646,11.066,33.781,9.062,6.114,20.456,3.251,23.483,2.491,5.375-1.351,12.568-4.378,40.585-41.514,15.923-21.105,24.076-34.012,30.287-51.255,1.044-2.9,1.82-5.328,2.33-6.989Z"/></g><path class="n" d="M701.2,476.18s20.467,11.348,14.392-6.872C711.39,456.7,687.242,468.058,701.2,476.18Z"/><path class="n" d="M704.168,471.827s-11.452,6.8-10.347,13.611c0,0-2.525-20.35,8.861-20.862s15.795.588,14.784,22.107C717.466,486.683,714.158,469.565,704.168,471.827Z"/><path class="n" d="M702.186,464.709s.575-6.341,6.861-5.443,8.98,4.49,9.878,8.082,1.8,6.286,2.694,6.286c0,0-2.694,2.694-3.592,1.8,0,0,2.331,6.458-.631,11.76,0,0-1.165-8.168-5.655-9.066S702.186,464.709,702.186,464.709Z"/><path class="n" d="M702.761,464.654s-4.49-2.694-8.98,3.592l-2.694,5.388s.9.9,2.694,0c0,0-.818,6.327.04,9.9l2.654-10.8Z"/><path class="b" d="M782.37,399.591c-12.5-9.034-27.02-9.22-33.24-2.816-9,9.266-2.23,33.99,12.4,37.183,7.8,1.7,16.933-2.914,23.1-11.268-.062,1.75-.481,20.856,12.4,29.3,17.1,11.21,47.059-3.336,49.014-20.845,1.16-10.389-7.821-19.309-10.7-21.972,13.672-4.074,24.13-11.89,24.225-19.718.146-12.081-24.365-26.2-38.873-17.465-9.255,5.575-10.516,18.092-10.7,20.282.095-16.326-10.143-27.215-19.156-27.042-6.092.117-11.643,5.288-14.084,10.7C773.267,383.622,775.43,393.221,782.37,399.591Z"/><path class="o" d="M747.781,452.916c-2.5-2.72-5.467-3.361-6.628-2.362-1.18,1.017-1.03,4.194.915,5.714a4.725,4.725,0,0,0,4.113.609c-.716,3.01.215,4.336.534,4.724,2.628,3.19,11.676.818,12.341-2.819.452-2.47-3.044-5.064-3.961-5.714,2.471-1.394,2.569-2.243,2.514-2.59-.2-1.27-3.5-2.3-6.1-1.371A6.754,6.754,0,0,0,747.781,452.916Z"/><path class="p" d="M805.429,424.817l5.2.624L798.435,444.3l-2.254,3.486.2-.729,4.577-16.369-6.132.574,4.573-11.328-6.546,1.421,7.066-28.128.764.273,10.189,3.644,3.283,1.174-5.61,11.952s7.378.311,7.273.623S805.429,424.817,805.429,424.817Z"/><path class="q" d="M805.429,424.817l5.2.624-14.445,22.343.2-.729,12.059-20.472-4.177-1.351,9.27-13.717h-8.21l5.549-14.373,3.283,1.174-5.61,11.952s7.378.311,7.273.623S805.429,424.817,805.429,424.817Z"/><path class="q" d="M802.312,429.7l-3.877,14.6-2.254,3.486.2-.729,4.577-16.369-6.132.574,4.573-11.328-6.546,1.421,7.066-28.128.764.273-5.961,25.6,5.716-.833s-2.909,10.809-3.014,11.433S802.312,429.7,802.312,429.7Z"/></g></svg>