<svg xmlns="http://www.w3.org/2000/svg" xmlns:xlink="http://www.w3.org/1999/xlink" width="528" height="413.21" viewBox="0 0 528 413.21"><defs><style>.a,.k{fill:none;}.b{fill:#b6d7db;opacity:0.49;}.c{clip-path:url(#a);}.d{fill:#d19442;}.e{fill:#d29647;}.f{fill:#d8a35d;}.g{fill:#62548a;}.h,.p{fill:#ffc84f;}.i{opacity:0.3;}.j{opacity:0.5;}.k{stroke:#947dce;stroke-miterlimit:10;stroke-width:0.654px;}.l{fill:#947dce;}.m{fill:#daa968;}.n{opacity:0.15;}.o,.p{fill-rule:evenodd;}</style><clipPath id="a"><path class="a" d="M622.632,828.889c58.5,65.635,144.229,65.221,151.474,65.071,69.97-1.453,122.605-41.663,134.409-51.2,9.6-7.758,16.578-14.94,32-24.534,35.7-22.207,56.3-19.816,84.272-33.07,24.368-11.546,57.5-36.474,67.2-66.136,17.753-54.231-42.842-124.056-88.54-157.877-100.11-74.095-280.742-87.917-368.022,13.868-44.117,51.448-71.657,140.918-41.6,210.145C603.3,806.973,616.357,821.848,622.632,828.889Z" transform="translate(-581.212 -502.119)"/></clipPath></defs><g transform="translate(-573.86 -490.947)"><path class="b" d="M622.632,828.889c58.5,65.635,144.229,65.221,151.474,65.071,69.97-1.453,122.605-41.663,134.409-51.2,9.6-7.758,16.578-14.94,32-24.534,35.7-22.207,56.3-19.816,84.272-33.07,24.368-11.546,57.5-36.474,67.2-66.136,17.753-54.231-42.842-124.056-88.54-157.877-100.11-74.095-280.742-87.917-368.022,13.868-44.117,51.448-71.657,140.918-41.6,210.145C603.3,806.973,616.357,821.848,622.632,828.889Z" transform="translate(6.699 10.18)"/><g transform="translate(587.911 512.299)"><g class="c"><g transform="translate(64.874 29.841)"><path class="d" d="M710.668,522.385s-1.25,16.179,6.078,27.678c4.921,7.725-4.692,7.125-15.2,5.458-8.069-1.278-9.644-5.816-9.644-5.816s4.419-1.544,6.234-7.387c1.676-5.4.8-14.906-.059-19.934C696.288,511.916,710.668,522.385,710.668,522.385Z" transform="translate(-545.227 -517.732)"/><g transform="translate(76.518 226.709)"><path class="e" d="M680.649,732.627s18.271,159.918,11.718,162.787c-11.756,5.227-57.851,22.455-6.781,17.967,26.293,1.131,24.265-4.7,24.59-9.682.266-4.069-2.966-147.413-2.078-158.58.2-2.5.319-4.012.319-4.012Z" transform="translate(-648.969 -548.624)"/><path class="f" d="M787.952,883.124c-3.406.4-11.2,3.635-15.364,6.214-13.5-31.667-62.793-150.572-62.793-150.572l21.629-17.258S774.116,844.584,787.952,883.124Z" transform="translate(-605.438 -558.757)"/><path class="g" d="M770.785,806.4c-1.032-2.093-19.2,5.743-19.7,8.34-.246,1.283-23.424,25.84-20.406,29.754,1.584,4.176,10,2.362,18.659.743a23.8,23.8,0,0,0,9.529-4.09c10.21-7.351,19.452-13.168,20.848-16.626C780.928,821.5,772.817,810.509,770.785,806.4Z" transform="translate(-586.658 -481.721)"/><path class="g" d="M711.785,815.184c.268-2.318-19.38.954-21.211,2.865s-30.371,10.2-29.555,19.93,46.135,1.29,49.378,1.005S711.262,819.739,711.785,815.184Z" transform="translate(-649.898 -474.124)"/><path class="h" d="M664.7,648.108a10.145,10.145,0,0,0,5.959,2.173c13.508-.852,71.843-4.677,103.292-9.107,11.1-1.565,18.843-3.2,20.095-4.822,0,0,0,.046,0,.13.061,1.749.713,21.773,1.474,48.027,1.5,51.829,12.952,125.288,21.039,147.2,1.747,4.73-71.235,3.387-71.235,3.387-4.61-53.231-7.3-147.132-10.905-151.052-4.392-4.769-4.023,77.991-5.707,147.409-28.043,9.848-73.8,9.067-73.523,6.085C658.536,802.134,664.7,648.108,664.7,648.108Z" transform="translate(-655.192 -636.352)"/><g class="i" transform="translate(62.898)"><path d="M688.757,641.828c-.222,0-.441,0-.656,0C688.1,641.828,688.333,641.826,688.757,641.828Z" transform="translate(-688.102 -631.362)"/><path class="j" d="M688.445,646.818c17.472-.051,55.209-5.644,55.209-5.644,11.1-1.565,18.843-3.2,20.095-4.822,0,0,0,.046,0,.13.061,1.749.713,21.773,1.474,48.027a13.014,13.014,0,0,1-1.842-.059c-3.966-.4-7.163-2.575-9.726-5.768a31.588,31.588,0,0,1-4.191-7.165C734.484,647.963,694.047,646.858,688.445,646.818Z" transform="translate(-687.789 -636.352)"/></g><g transform="translate(19.593 4.495)"><line class="k" x1="2.472" y2="193.704" transform="translate(0 4.953)"/><line class="k" x1="2.61" y2="190.346" transform="translate(18.42 7.287)"/><line class="k" x2="0.353" y2="188.772" transform="translate(38.859 5.811)"/><line class="k" x2="3.606" y2="38.809" transform="translate(56.032 4.39)"/><line class="k" x2="12.317" y2="191.607" transform="translate(75.094 2.812)"/><line class="k" x2="14.988" y2="193.002" transform="translate(91.486 1.334)"/><line class="k" x2="19.771" y2="193.721" transform="translate(107.607)"/></g><path class="k" d="M659.735,658.235s103.9-3.681,130.843-10.831" transform="translate(-651.053 -626.281)"/><path class="k" d="M730.624,661.307c-35.533,11.2-71.262,1.1-71.262,1.1" transform="translate(-651.393 -613.612)"/><path class="k" d="M696.337,661.784s33.441,6.477,61.505-3.654" transform="translate(-617.7 -616.507)"/><path class="k" d="M659.041,669.33s27.227,11.5,69.039,1.028" transform="translate(-651.685 -606.302)"/><path class="k" d="M658.649,678.2s41.636,9.038,69.112.34" transform="translate(-652.043 -598.221)"/><path class="k" d="M658.25,687.01s22.025,14.5,69.376,3.259" transform="translate(-652.406 -590.191)"/><path class="k" d="M657.776,697.394s32.9,13.868,69.991-.518" transform="translate(-652.838 -581.201)"/><path class="k" d="M657.323,706.434s23.65,14.007,70.549.852" transform="translate(-653.251 -572.491)"/><path class="k" d="M656.834,717.284S689,730.848,728.092,714.5" transform="translate(-653.696 -565.139)"/><path class="k" d="M656.428,724.053s19.636,15.987,71.776-1.386" transform="translate(-654.066 -557.7)"/><path class="k" d="M655.922,732.755s30.692,13.059,72.451-1.932" transform="translate(-654.527 -550.268)"/><path class="k" d="M697.874,670.136s14.586,10.143,60.142-2.055" transform="translate(-616.3 -607.44)"/><path class="k" d="M698.8,679.43s19.9,7.347,58.6-2.96" transform="translate(-615.459 -599.797)"/><path class="k" d="M699.123,690.255s30.321,6.462,59.384-4.916" transform="translate(-615.162 -591.714)"/><path class="k" d="M699.577,698.483s29.815,10.4,60.381-5" transform="translate(-614.748 -584.291)"/><path class="k" d="M700.066,707.525s28.175,7.341,61.66-5.1" transform="translate(-614.302 -576.147)"/><path class="k" d="M700.548,716.22s23.936,8.444,63.181-5.229" transform="translate(-613.863 -568.339)"/><path class="k" d="M701.179,723.183s28.569,11.852,64.7-3.845" transform="translate(-613.288 -560.733)"/><path class="k" d="M701.623,733.192s32.04,7.983,67.331-4.791" transform="translate(-612.883 -552.475)"/></g><g transform="translate(0 27.961)"><path class="l" d="M650.77,617.716c-2.217,3.461-11.261,101.8,0,122.194,11.324,20.517,105.668,31.482,135.328,15.7,30.1-16.014,41.692-31.417,45.715-60.139,4.031-28.779-5.369-73.194-5.369-73.194L697.817,537.271Z" transform="translate(-587.747 -527.889)"/><g transform="translate(63.395 203.055)"><path class="m" d="M663.482,638.751a74.718,74.718,0,0,1,7.888,4.585,23.372,23.372,0,0,1,4.054,5.957c.753,1.59-2.364.143-4.744-3.345-2.311-1.267-4.463-2.693-4.99-2.173s3.111,1.472,5.713,3.952c2.55,3.27,4.994,6.475,4.119,6.538-.854.063-1.835.1-5.453-4.635-2.557-1.172-5.048-2.569-5.252-2.028s2.976,1.55,5.493,3.734c3.522,3.612,4.342,4.929,5.646,6.2-.7.787-3.062.075-7.383-4.245-2.332-1.451-5.812-2.011-5.931-1.284.109.77,2.534,1.2,4.182,2.179a19.513,19.513,0,0,1,4.545,3.645c.489.627-.027,1.712-5.743-1.493a5.852,5.852,0,0,0-4.144-.258l-2.964-8.121Z" transform="translate(-639.04 -638.472)"/><path class="f" d="M656.5,642.036s13.94-2.869,15.181-3.381,4.312,3.154,3.322,3.838-2.4,3.242-2.228,4.077a3.207,3.207,0,0,1-.629,2.9c-.845.98-2.085,2.236-1.544,3.7s1.806,2.932.164,3.048a29.317,29.317,0,0,0-10.2,3.733c-3.507,2.192-12.245-7.335-12.245-7.335Z" transform="translate(-648.326 -638.605)"/></g><g transform="translate(185.5 203.812)"><path class="m" d="M732.544,639.318a74.307,74.307,0,0,0-9.1-.248,23.044,23.044,0,0,0-6.531,2.943c-1.462.961,1.944,1.37,5.772-.352,2.626.139,5.2.057,5.38.78s-3.414-.384-6.913.357c-3.863,1.445-7.6,2.892-6.886,3.408.7.5,1.514,1.051,7.043-1.078,2.786.35,5.63.47,5.525,1.04s-3.339-.248-6.613.289c-4.868,1.223-6.246,1.915-8.012,2.311.193,1.042,2.573,1.678,8.488.271,2.739-.006,6,1.351,5.722,2.034-.489.6-2.779-.315-4.692-.346a19.233,19.233,0,0,0-5.757.711c-.742.275-.862,1.473,5.671,1.756a5.9,5.9,0,0,1,3.668,1.965l6.716-5.363Z" transform="translate(-712.214 -639.002)"/><path class="f" d="M738.774,650.441s-10.414-9.8-11.207-10.9-5.306.417-4.814,1.523.374,4.031-.2,4.654a3.2,3.2,0,0,0-.96,2.8c.216,1.283.627,3.008-.589,3.97s-3.052,1.55-1.712,2.513a29.877,29.877,0,0,1,6.773,8.564c1.862,3.721,14.229.2,14.229.2Z" transform="translate(-706.192 -638.852)"/></g><path class="l" d="M860.389,724.287c-15.955,27.214-37.317,55.166-79.047,53.822-12.528-.816-19.154-6.464-22.428-12.847a24.531,24.531,0,0,1-1.682-4.216c-.055-.185-.111-.373-.162-.558a27.224,27.224,0,0,1-.686-3.28,23.9,23.9,0,0,1,.512-10.2l0-.017c.059-.178.121-.346.185-.5.023-.061.05-.126.082-.2.208-.489.529-1.189.954-2.07,1.873-3.87,5.722-11.2,10.676-19.288,8.837-14.455,8.562-36.619,4.734-48.02-.415-1.236-2.706-2.477-6.344-3.853q-1.634-.613-3.616-1.286c-18.214-6.114-39.471-44.618-52.649-76.69-2.678-6.529-5.021-12.792-6.947-18.476a160.891,160.891,0,0,1-4.593-15.77c-1.217-5.4-1.521-9.2-.692-10.613a1.109,1.109,0,0,1,1.07-.621,23.907,23.907,0,0,0,7.045-.942c5.768-1.493,12.2-5.931,16.8-9.61l.006-.006c3.738-2.989,6.267-5.474,6.267-5.474h.017c.226.01,2.315.1,5.8.545a122.159,122.159,0,0,1,12.647,2.351c1.844.434,3.792.937,5.824,1.516.877.246,1.768.512,2.67.787a134.171,134.171,0,0,1,69.345,48.958C865.58,641.386,876.527,696.737,860.389,724.287Z" transform="translate(-539.462 -531.253)"/><path class="n" d="M765.307,608.067a2.279,2.279,0,0,0-.281.09C765.146,608.119,765.24,608.086,765.307,608.067Z" transform="translate(-478.591 -463.378)"/><path class="l" d="M832.927,539.41s-.134.164-.4.476c-1.46,1.758-6.888,8.291-14.814,17.945-6.521,7.955-14.732,18.027-23.812,29.3l0,.006c-2.37,2.941-4.8,5.973-7.282,9.065-42.867,53.537-98.545,126.063-93.335,135.684a16.719,16.719,0,0,1,1.845,5.189,13.9,13.9,0,0,1,.185,2.7c-.166,5.567-3.754,10.024-7.165,13.023l-.029.023a1.349,1.349,0,0,1-.147.132,34.233,34.233,0,0,1-2.9,2.242,30.019,30.019,0,0,1-3.113,1.917c-45.432-7.154-66.807-26.5-66.807-78.546s29.721-140.137,133.629-146.184c2.362-.136,5.069.783,7.89,2.116,5.321,2.513,11.049,6.5,15.659,7.624a9.773,9.773,0,0,0,2.15.31c9.963.227,17.184-5.271,24.511-7.2l.023-.01.04-.013a16.9,16.9,0,0,1,6.517-.518h.017q2.884.378,5.529.759c3.346.485,6.381.975,9.051,1.437,1.388.243,2.678.48,3.863.7,1.84.344,3.417.657,4.717.923.554.113,1.057.22,1.5.311C831.994,539.187,832.927,539.41,832.927,539.41Z" transform="translate(-615.156 -532.362)"/></g><path class="l" d="M854.187,710.488l0,.01-.006.008c-14.667,39.819-91.406-112.437-91.406-112.437l-32.7-39.463L719.04,545.3l-2.569-3.1-2.573-3.1-2.559-3.092.009,0,.023-.01.04-.013a86.033,86.033,0,0,1,29.009-4.463,88.886,88.886,0,0,1,10.758.774,83.419,83.419,0,0,1,43.941,19.944C846.068,596.115,868.836,670.661,854.187,710.488Z" transform="translate(-527.511 -505.176)"/><path class="n" d="M753.128,531.518a26.862,26.862,0,0,1-5.911,5.128,11.654,11.654,0,0,1-1.724.9c-.084.038-.172.074-.258.113a78.855,78.855,0,0,1-16.056,4.541,42.992,42.992,0,0,1-7.358.705c-.2,0-.4,0-.6-.01-8.746-.266-14.666,3.381-20.072,3.641-2.978.145-3.771-1.772-3.757-3.647a9.77,9.77,0,0,0,2.15.31c9.963.227,17.184-5.271,24.511-7.2l.023-.01.04-.013A86.033,86.033,0,0,1,753.128,531.518Z" transform="translate(-540.218 -505.176)"/><path class="n" d="M749.181,692.477s26.759-28.5,14.9-43.859-43.136-54.888-44.144-70.457c0,0,4.646,28.156,16.031,44.553S749.181,692.477,749.181,692.477Z" transform="translate(-519.675 -462.668)"/><path class="n" d="M661.708,651.773s-12.761-9.656-13.361-17.879,11.846-30.639,11.846-30.639-7.467,21.27-4.1,29.077S661.708,651.773,661.708,651.773Z" transform="translate(-584.931 -439.802)"/></g></g></g><ellipse class="f" cx="18.971" cy="25.883" rx="18.971" ry="25.883" transform="translate(792.577 504.677)"/><g transform="translate(788.276 490.947)"><g transform="translate(4.004 7.216)"><path class="h" d="M697.827,514.788S730.67,533,720.922,503.76C714.178,483.531,675.427,501.753,697.827,514.788Z" transform="translate(-685.603 -494.722)"/><path class="h" d="M705.128,507.18s-18.375,10.9-16.6,21.841c0,0-4.052-32.655,14.219-33.477s25.345.942,23.722,35.474C726.467,531.018,721.16,503.55,705.128,507.18Z" transform="translate(-688.143 -494.1)"/></g><path class="h" d="M695.366,499.821s.923-10.175,11.01-8.734,14.409,7.2,15.85,12.968,2.882,10.088,4.323,10.088c0,0-4.323,4.323-5.764,2.882,0,0,3.74,10.363-1.011,18.87,0,0-1.871-13.105-9.075-14.546S695.366,499.821,695.366,499.821Z" transform="translate(-677.557 -490.947)"/><path class="h" d="M704.78,495.982s-7.205-4.321-14.409,5.764l-4.323,8.646s1.441,1.441,4.323,0c0,0-1.313,10.153.063,15.884l4.26-17.325Z" transform="translate(-686.048 -487.198)"/></g><g transform="translate(986.925 630.41)"><path class="o" d="M813.869,601.3c-.44,5.65-1,13.262-1.63,20.869-.43,5.181-.938,10.359-1.464,15.531a13.49,13.49,0,0,1-.724,3.406,4.115,4.115,0,0,1-5.16,2.263,3.324,3.324,0,0,1-1.984-3.706c.26-2.863.464-5.734.812-8.585.189-1.537.044-2.764-1.357-3.75-2.926-2.062-5.768-4.249-8.66-6.364a19.078,19.078,0,0,0-1.839-1.12,3.324,3.324,0,0,1-1.772-4.012c1.08-5.911,1.814-11.89,2.88-17.805.715-3.97,1.841-7.866,2.649-11.821,1.288-6.33,2.446-12.685,3.7-19.02.661-3.326,2.156-3.954,5.124-2.613a12.077,12.077,0,0,1,6.259,6.634,41.165,41.165,0,0,1,3.117,14.925C814.05,590.523,813.869,594.932,813.869,601.3Zm-12.434-34.723c.633,1.2.959,1.974,1.416,2.664a30.524,30.524,0,0,1,4.4,12.056,114.214,114.214,0,0,1,1.078,25.28c-.573,10.045-1.638,20.064-2.481,30.092a16.858,16.858,0,0,0-.118,2.955,1.49,1.49,0,0,0,.9,1.091,1.618,1.618,0,0,0,1.283-.678,4.748,4.748,0,0,0,.715-2.007c.421-4.016.812-8.035,1.128-12.06.26-3.314.3-6.646.61-9.954a216.155,216.155,0,0,0,1.049-27.982,43.33,43.33,0,0,0-3.49-16.509A7.945,7.945,0,0,0,801.434,566.581Zm3.992,42.03c.126-1.732.2-2.955.312-4.17a2.227,2.227,0,0,0-1.4-2.341,23.751,23.751,0,0,1-2.6-1.821c-1.768-1.286-3.358-2.852-5.749-3.7-.342,1.747-.738,3.295-.9,4.868a1.986,1.986,0,0,0,.9,1.445C798.929,604.74,801.926,606.5,805.427,608.611Zm-11.6,4.264c-1.628,3.65-1.525,3.958,1.531,6.02,2.662,1.8,5.29,3.648,7.951,5.449.168.115.485.015.726.015.875-3.864.875-3.864-1.877-6.294-.134-.119-.252-.256-.394-.363A38.483,38.483,0,0,0,793.824,612.875Zm10.854,4.145a32.374,32.374,0,0,0,.526-3.4,2.394,2.394,0,0,0-.449-1.728c-2.993-2.515-5.934-5.135-10.107-6.737-.262,1.781-.483,3.3-.7,4.765C797.56,612.311,800.911,614.526,804.678,617.02Zm.87-17.117c.142-1.957.237-3.234.31-4.251-1.563-1.131-2.79-2.116-4.113-2.953-1.305-.826-2.16-2.448-3.981-2.391-1.464,2.592-1.317,3.331.877,4.879,1.454,1.026,2.884,2.087,4.342,3.108C803.619,598.741,804.294,599.121,805.547,599.9Zm-6.32-17.581c-1.546,4.176-1.519,4.3,1.516,6.557.936.694,1.871,1.4,2.859,2.007a8.73,8.73,0,0,0,1.77.59,29.842,29.842,0,0,0-.032-3.2,2.711,2.711,0,0,0-.673-1.667C802.988,585.173,801.2,583.86,799.227,582.322Zm1.663-10.651c-.373,2.114-.774,3.9-.99,5.715-.287,2.414,2,4.981,4.625,5.351C804.691,579.977,802.841,574,800.89,571.671Z" transform="translate(-789.986 -563.917)"/><path class="o" d="M825.754,594.857c-.558,8.6-1.015,17.2-1.707,25.792-.466,5.81-1.235,11.6-1.924,17.388-.21,1.77-.487,3.524-2.066,4.786-1.181.946-2.288,1.793-3.87,1.089a3.349,3.349,0,0,1-1.955-3.532,52.538,52.538,0,0,1,.5-6.164,4.688,4.688,0,0,0-1.554-4.81c-2.458-2.1-4.774-4.361-7.276-6.4a3.421,3.421,0,0,1-1.464-3.192,257.752,257.752,0,0,1,3.773-28.558c1.223-7.064,2.9-14.061,3.293-21.255.04-.711-.1-1.43-.1-2.146a2.842,2.842,0,0,1,4.245-2.744,12.038,12.038,0,0,1,6.116,6.5C825.042,579.042,825.546,586.887,825.754,594.857ZM813.71,567.5a22.847,22.847,0,0,0,.673,2.494c1.347,3.325,3.1,6.536,4.035,9.971a48.778,48.778,0,0,1,1.839,14.676c-.514,13.019-1.278,26.021-2.886,38.958-.233,1.873-.384,3.755-.506,5.638-.054.789-.084,1.659.975,2.022,1.953-.354,2.079-1.942,2.228-3.473.587-5.99,1.238-11.978,1.7-17.979.476-6.183.91-12.377,1.078-18.573.143-5.294.048-10.607-.246-15.9a34.079,34.079,0,0,0-3.54-13.2C818.033,570.065,816.716,568.146,813.71,567.5Zm1.93,51.9c1.474-3.844,1.223-5.055-1.277-7.186-.952-.81-1.953-1.563-2.915-2.364-.849-.705-1.674-1.441-2.81-2.427-.485,2.389-1.445,4.384.168,6.007C810.864,615.5,813.2,617.293,815.64,619.4Zm-5.5-19.7-.677.289c-.182,1.231-.445,2.458-.5,3.694a2.3,2.3,0,0,0,.564,1.7c2.116,1.751,4.329,3.381,6.871,5.33a31.608,31.608,0,0,0,.57-3.939,2.764,2.764,0,0,0-.722-1.892C814.266,603.089,812.183,601.42,810.14,599.7Zm6.485,1.817c.239-.08.472-.162.709-.245.069-1.665.174-3.327.17-4.992a1.59,1.59,0,0,0-.6-1.12c-1.8-1.286-3.664-2.5-5.531-3.765-1.733,3.555-1.51,5.078,1.1,7.211C813.78,599.677,815.239,600.558,816.624,601.521Zm-1.548,25.534c.988-2.5.959-4.409-1.038-6.051-1.716-1.409-3.261-3.028-4.923-4.5a4.958,4.958,0,0,0-1.361-.6c-.925,2.716-.883,4.155.407,5.311C810.333,623.157,812.611,624.984,815.076,627.055Zm-2.842-43.234c-.233,1.565-.98,3.148-.478,3.883a11.086,11.086,0,0,0,5.913,4.533c-.218-1.949-.344-3.433-.577-4.895a1.751,1.751,0,0,0-.719-1.036C815.2,585.534,813.962,584.846,812.234,583.822Zm4.079-.979a16.2,16.2,0,0,0-2.54-6.03C812.192,580,813.276,582.318,816.313,582.843Z" transform="translate(-776.831 -563.143)"/><path class="p" d="M795.976,565.311a7.945,7.945,0,0,1,6.487,4.948,43.327,43.327,0,0,1,3.49,16.509,216.177,216.177,0,0,1-1.049,27.982c-.308,3.308-.35,6.64-.61,9.954-.315,4.025-.707,8.044-1.128,12.06a4.747,4.747,0,0,1-.715,2.007,1.617,1.617,0,0,1-1.282.678,1.49,1.49,0,0,1-.9-1.091,16.854,16.854,0,0,1,.118-2.955c.843-10.028,1.908-20.047,2.481-30.092a114.226,114.226,0,0,0-1.078-25.28,30.524,30.524,0,0,0-4.4-12.056C796.936,567.285,796.609,566.513,795.976,565.311Z" transform="translate(-784.527 -562.647)"/><path class="p" d="M803,593.038c-3.5-2.108-6.5-3.87-9.436-5.718a1.986,1.986,0,0,1-.9-1.445c.164-1.573.56-3.121.9-4.868,2.391.847,3.981,2.412,5.749,3.7a23.749,23.749,0,0,0,2.6,1.821,2.226,2.226,0,0,1,1.4,2.341C803.192,590.083,803.121,591.307,803,593.038Z" transform="translate(-787.554 -548.345)"/><path class="p" d="M792.492,589.533a38.493,38.493,0,0,1,7.937,4.828c.142.107.26.245.394.363,2.752,2.429,2.752,2.429,1.877,6.294-.241,0-.558.1-.726-.015-2.661-1.8-5.288-3.65-7.951-5.449C790.967,593.491,790.864,593.183,792.492,589.533Z" transform="translate(-788.654 -540.576)"/><path class="p" d="M802.788,597.358c-3.767-2.494-7.117-4.709-10.728-7.1.214-1.464.436-2.983.7-4.765,4.172,1.6,7.113,4.222,10.107,6.737a2.394,2.394,0,0,1,.449,1.728A32.352,32.352,0,0,1,802.788,597.358Z" transform="translate(-788.096 -544.255)"/><path class="p" d="M802.3,587.321c-1.254-.782-1.928-1.162-2.565-1.607-1.458-1.021-2.888-2.081-4.343-3.108-2.194-1.548-2.341-2.288-.877-4.879,1.821-.057,2.676,1.565,3.981,2.391,1.323.837,2.549,1.821,4.113,2.953C802.534,584.087,802.439,585.364,802.3,587.321Z" transform="translate(-786.736 -551.335)"/><path class="p" d="M795.3,573.547c1.976,1.538,3.761,2.852,5.439,4.287a2.712,2.712,0,0,1,.673,1.667,29.87,29.87,0,0,1,.033,3.2,8.717,8.717,0,0,1-1.77-.59c-.988-.612-1.923-1.313-2.859-2.007C793.783,577.847,793.756,577.723,795.3,573.547Z" transform="translate(-786.061 -555.142)"/><path class="p" d="M796.175,567.974c1.951,2.332,3.8,8.306,3.635,11.066-2.63-.371-4.912-2.938-4.625-5.351C795.4,571.875,795.8,570.088,796.175,567.974Z" transform="translate(-785.271 -560.221)"/><path class="p" d="M809.282,566.2c3.006.65,4.323,2.569,5.346,4.642a34.079,34.079,0,0,1,3.54,13.2c.294,5.288.39,10.6.246,15.9-.168,6.2-.6,12.39-1.078,18.573-.459,6-1.11,11.989-1.7,17.979-.149,1.531-.275,3.119-2.228,3.473-1.059-.363-1.028-1.233-.975-2.022.122-1.883.273-3.765.506-5.638,1.607-12.937,2.372-25.939,2.886-38.958a48.78,48.78,0,0,0-1.839-14.676c-.931-3.434-2.687-6.645-4.035-9.971A22.833,22.833,0,0,1,809.282,566.2Z" transform="translate(-772.403 -561.842)"/><path class="p" d="M813.977,599.063c-2.441-2.106-4.776-3.9-6.833-5.971-1.613-1.623-.654-3.618-.168-6.007,1.135.986,1.961,1.722,2.809,2.427.961.8,1.963,1.554,2.915,2.364C815.2,594.007,815.451,595.219,813.977,599.063Z" transform="translate(-775.168 -542.806)"/><path class="p" d="M807.979,583.047c2.043,1.716,4.126,3.385,6.1,5.177a2.764,2.764,0,0,1,.723,1.892,31.6,31.6,0,0,1-.57,3.939c-2.542-1.95-4.755-3.58-6.871-5.33a2.3,2.3,0,0,1-.564-1.7c.059-1.237.323-2.464.5-3.694Z" transform="translate(-774.669 -546.486)"/><path class="p" d="M813.842,588.824c-1.386-.963-2.844-1.844-4.147-2.911-2.611-2.133-2.834-3.656-1.1-7.211,1.867,1.261,3.727,2.479,5.531,3.765a1.59,1.59,0,0,1,.6,1.12c0,1.665-.1,3.328-.17,4.992C814.314,588.661,814.081,588.743,813.842,588.824Z" transform="translate(-774.048 -550.445)"/><path class="p" d="M813.791,602.678c-2.466-2.072-4.744-3.9-6.915-5.846-1.29-1.156-1.332-2.6-.407-5.311a4.961,4.961,0,0,1,1.361.6c1.663,1.475,3.207,3.094,4.923,4.5C814.75,598.269,814.779,600.174,813.791,602.678Z" transform="translate(-775.545 -538.765)"/><path class="p" d="M808.819,574.737c1.728,1.024,2.962,1.713,4.14,2.487a1.751,1.751,0,0,1,.719,1.036c.233,1.462.359,2.945.577,4.895a11.087,11.087,0,0,1-5.913-4.534C807.839,577.885,808.586,576.3,808.819,574.737Z" transform="translate(-773.415 -554.058)"/><path class="p" d="M812.2,577.1c-3.037-.526-4.121-2.838-2.54-6.03A16.2,16.2,0,0,1,812.2,577.1Z" transform="translate(-772.717 -557.399)"/></g><g transform="translate(573.86 663.202)"><path class="o" d="M663.36,600.653a10.448,10.448,0,0,0-1.368,1.122c-6.821,8.415-16.232,12.079-26.362,14.525-8.99,2.169-17.832,1.669-26.879-.069-7.737-1.487-13.956-5.3-19.682-10.212-5.063-4.337-9.959-8.924-12.922-15.08a22.576,22.576,0,0,1-2.2-5.969c-.344-2.141.291-3.557,3.1-3.545,8.442.031,16.888-.275,25.333-.348,4.044-.036,8.092.2,12.138.246,12.505.14,25,.243,37.51.373,3.442.034,6.894-.063,10.315.218A13.29,13.29,0,0,1,667,583.51c6.571,3.324,12.127,7.507,13.327,15.54.453,3.022.441,5.757-2.106,7.806-2.679,2.158-5.663,1.6-8.425.292a14.916,14.916,0,0,1-3.811-3.125A33.961,33.961,0,0,1,663.36,600.653Zm-85.182-15.009c.671,1.573,1.206,3.093,1.944,4.511,3.375,6.494,8.816,11.15,14.386,15.588a30.324,30.324,0,0,0,11.605,6.051c9.585,2.374,19.166,3.492,28.877.791.455-.13.95-.109,1.409-.216,8.666-2,16.3-5.77,22.211-12.65,2.708-3.158,2.907-7.083,3.551-10.859.157-.925-.415-1.976-.619-2.829C653.762,584.886,586.506,584.569,578.179,585.645Zm87.607,1.883a28.9,28.9,0,0,1-.055,5.453c-.984,4.835,2.039,7.782,4.876,10.747a4.418,4.418,0,0,0,5.023.352c1.4-1.111,1.412-2.7,1.133-4.241a15.489,15.489,0,0,0-4.044-8.186C670.975,589.876,669.05,587.98,665.786,587.527Z" transform="translate(-573.86 -581.075)"/><path class="p" d="M576.12,583.781c8.327-1.076,75.583-.759,83.362.386.2.852.776,1.9.619,2.829-.644,3.777-.843,7.7-3.551,10.86-5.906,6.88-13.545,10.653-22.211,12.65-.459.107-.953.086-1.409.216-9.711,2.7-19.292,1.582-28.877-.791a30.322,30.322,0,0,1-11.605-6.051c-5.569-4.438-11.011-9.094-14.386-15.588C577.326,586.873,576.791,585.354,576.12,583.781Z" transform="translate(-571.802 -579.211)"/><path class="p" d="M622.075,584.451c3.264.453,5.189,2.349,6.932,4.124a15.489,15.489,0,0,1,4.044,8.186c.279,1.536.262,3.131-1.133,4.241a4.418,4.418,0,0,1-5.023-.352c-2.836-2.964-5.86-5.911-4.875-10.747A28.9,28.9,0,0,0,622.075,584.451Zm3.975,5.888c-1.56.759-1.869,1.848-1.229,3.041a17.133,17.133,0,0,0,2.6,3.773c.491.508,1.6.415,2.433.593.149-.742.615-1.6.386-2.2C629.435,593.457,628.405,591.446,626.05,590.339Z" transform="translate(-530.15 -577.999)"/><path class="o" d="M624.773,587.532c2.355,1.107,3.385,3.117,4.193,5.21.229.594-.237,1.454-.386,2.2-.829-.178-1.942-.084-2.433-.593a17.139,17.139,0,0,1-2.6-3.773C622.9,589.38,623.213,588.291,624.773,587.532Z" transform="translate(-528.873 -575.191)"/></g><g transform="translate(673.048 540.924)"><path class="o" d="M656.336,533.8a23.11,23.11,0,0,1-6.034,15.3,54.457,54.457,0,0,1-11.182,9.728,35.556,35.556,0,0,1-6.536,3.23c-1.877.745-2.85.317-3.515-.981-.721-1.412-.329-2.815,1.244-3.9,1.416-.979,2.98-1.747,4.381-2.743,5.38-3.828,10.3-8.111,12.882-14.42,1.768-4.31,1.307-10.607-3.02-13.992-2.737-2.141-5.728-2.158-8.755-.978a3.434,3.434,0,0,0-1.825,4.853,3.07,3.07,0,0,0,3.933,1.678,3.647,3.647,0,0,0,.944-.5c.958-.738,2.016-1.317,3.169-.682,1.3.717,1.414,2.06,1.357,3.406a5.434,5.434,0,0,1-2.813,4.786c-3.542,2.045-7.119,2.253-10.552-.149-3.452-2.418-4.661-5.885-4.138-9.992.866-6.833,6.412-10.55,12.383-11.244,8.111-.94,14.68,5.132,17.044,10.5a8.939,8.939,0,0,1,.7,2.255C656.189,531.222,656.233,532.517,656.336,533.8Zm-25.414,25.738c.119.2.235.4.354.6a9.45,9.45,0,0,0,2.024-.426,19.853,19.853,0,0,0,4-2.077c3.3-2.527,6.619-5.061,9.669-7.872a21.124,21.124,0,0,0,7.23-17.7,9.651,9.651,0,0,0-1.023-4.128c-3.115-5.275-7.5-8.539-13.983-8.394a12.943,12.943,0,0,0-7.974,3.354,9.11,9.11,0,0,0-2.412,10.774,7.263,7.263,0,0,0,11.9,1.942c1.223-1.265,1.334-1.986.453-3.771-.671.369-1.33.763-2.018,1.1a4.978,4.978,0,0,1-1.571.591,4.927,4.927,0,0,1-5.539-3.454,5.549,5.549,0,0,1,2.456-6.72,10.243,10.243,0,0,1,8.14-.765c4.866,1.554,8.427,7.473,7.974,13.243-.407,5.128-2.888,9.311-6.229,12.956a45.326,45.326,0,0,1-11.758,9.342A11.114,11.114,0,0,0,630.922,559.542Z" transform="translate(-625.758 -517.096)"/><path class="p" d="M629.865,558.378a11.106,11.106,0,0,1,1.7-1.409,45.326,45.326,0,0,0,11.758-9.342c3.341-3.645,5.822-7.828,6.229-12.956.453-5.77-3.108-11.689-7.974-13.243a10.243,10.243,0,0,0-8.14.765,5.549,5.549,0,0,0-2.456,6.72,4.927,4.927,0,0,0,5.539,3.454,4.981,4.981,0,0,0,1.571-.591c.688-.336,1.347-.73,2.018-1.1.881,1.785.77,2.506-.453,3.771a7.263,7.263,0,0,1-11.9-1.942,9.11,9.11,0,0,1,2.412-10.774,12.944,12.944,0,0,1,7.974-3.354c6.481-.145,10.867,3.119,13.982,8.394a9.652,9.652,0,0,1,1.023,4.128,21.124,21.124,0,0,1-7.23,17.7c-3.05,2.811-6.368,5.346-9.669,7.872a19.852,19.852,0,0,1-4,2.078,9.453,9.453,0,0,1-2.024.426C630.1,558.778,629.984,558.577,629.865,558.378Z" transform="translate(-624.701 -515.932)"/></g></g></svg>