<svg xmlns="http://www.w3.org/2000/svg" width="528" height="298.778" viewBox="0 0 528 298.778"><defs><style>.a{fill:#e5e5e5;}.b{fill:#c964e9;}.c{fill:#cd521f;}.d{fill:#eaeaea;}.e{fill:#8d95a2;}.f{fill:#3d3d3d;}.g{fill:#cfd0d5;}.h{fill:#fff;}.i{fill:#a9a9a9;}.j{fill:#7719aa;}.k{fill:#ad4bd4;}.l{fill:#9232be;}.m{fill:#cdcdcd;}.n{fill:#fefefe;}.o{fill:#666;}.p{fill:#2a5699;}.q{fill:#fdfdfe;}.r{fill:#f1f1f1;}</style></defs><g transform="translate(-360.843 -371.522)"><path class="a" d="M803.052,666.289c-59.464-1.066-59.455-89.438,0-90.5C862.518,576.859,862.508,665.231,803.052,666.289Zm0-81.624c-47.807.857-47.8,71.9,0,72.753C850.859,656.56,850.852,585.515,803.052,584.665Z" transform="translate(-13.594 -6.984)"/><path class="b" d="M869.563,484.743c-47.283-.848-47.276-71.117,0-71.957C916.846,413.634,916.838,483.9,869.563,484.743Zm0-63.086c-35.625.639-35.619,53.58,0,54.215C905.187,475.233,905.182,422.291,869.563,421.657Z" transform="translate(-16.18 -1.411)"/><path class="a" d="M401.842,510.971c-54.67-.98-54.661-82.225,0-83.2C456.511,428.754,456.5,510,401.842,510.971Zm0-74.326c-43.011.772-43,64.69,0,65.455C444.852,501.329,444.846,437.41,401.842,436.645Z" transform="translate(0 -1.923)"/><path class="b" d="M461.721,678.706c-40.29-.723-40.284-60.6,0-61.315C502.012,618.112,502.005,677.989,461.721,678.706Zm0-52.444c-28.632.514-28.628,43.064,0,43.573C490.354,669.321,490.349,626.77,461.721,626.261Z" transform="translate(-2.416 -8.406)"/><path class="a" d="M559.149,432.837c-40.29-.722-40.284-60.6,0-61.315C599.44,372.244,599.434,432.12,559.149,432.837Zm0-52.444c-28.632.513-28.627,43.064,0,43.573C587.782,423.452,587.777,380.9,559.149,380.393Z" transform="translate(-5.747)"/><rect class="a" width="8.871" height="60.247" transform="matrix(0.505, -0.863, 0.863, 0.505, 700.662, 565.741)"/><rect class="b" width="126.391" height="8.871" transform="translate(700.443 496.003) rotate(-18.292)"/><rect class="a" width="8.871" height="99.725" transform="matrix(0.287, -0.958, 0.958, 0.287, 436.629, 480.703)"/><rect class="b" width="78.866" height="8.872" transform="translate(480.057 622.966) rotate(-28.874)"/><rect class="a" width="8.872" height="28.18" transform="translate(561.322 426.622) rotate(-29.093)"/><path class="b" d="M713.113,518.38l10-.708a94.538,94.538,0,0,0-37.9-60.723l-5.25,8.516A84.547,84.547,0,0,1,713.113,518.38Z" transform="translate(-10.91 -2.921)"/><path class="b" d="M626.357,448.46a83.956,83.956,0,0,1,49.915,16.38l5.25-8.516c-30.277-23.315-79.15-23.543-109.654-.49l6.43,7.681A83.94,83.94,0,0,1,626.357,448.46Z" transform="translate(-7.214 -2.296)"/><path class="b" d="M577.4,464.123l-6.43-7.681a95.175,95.175,0,0,0-25.265,26.607l8.647,5A85.12,85.12,0,0,1,577.4,464.123Z" transform="translate(-6.32 -2.903)"/><path class="b" d="M718.007,518.6l-10,.708c9.762,50.991-31.051,100.081-83.06,99.542-65.1,1.9-107.406-76.6-71.107-129.853l-8.647-5c-40.169,59.615,7.129,146.941,79.757,144.832C682.684,629.389,728.181,575.35,718.007,518.6Z" transform="translate(-5.8 -3.845)"/><g transform="translate(536.355 461.059)"><g transform="translate(20.172 52.035)"><path class="c" d="M563.758,519.808c-.7-.236.022-1.287.107-1.7l.915.336C564.574,518.815,564.446,520.082,563.758,519.808Z" transform="translate(-563.454 -518.106)"/></g><g transform="translate(25.266 53.903)"><path class="c" d="M569.033,521.75c-.7-.257.015-1.265.112-1.708a4.757,4.757,0,0,1,.906.352C569.847,520.767,569.719,522.024,569.033,521.75Z" transform="translate(-568.728 -520.04)"/></g><g transform="translate(20.104 51.39)"><path class="d" d="M563.657,519.573c-.724-.1.151-2.484.771-2.092C565.151,517.583,564.276,519.966,563.657,519.573Z" transform="translate(-563.384 -517.438)"/></g><g transform="translate(25.189 53.263)"><path class="d" d="M568.922,521.512c-.724-.1.151-2.483.771-2.092h0C570.417,519.522,569.542,521.9,568.922,521.512Z" transform="translate(-568.649 -519.377)"/></g><g transform="translate(18.435 64.771)"><rect class="e" width="2.071" height="3.194" transform="translate(0 1.943) rotate(-69.783)"/></g><g transform="translate(19.801 61.346)"><rect class="e" width="2.071" height="3.194" transform="translate(0 1.943) rotate(-69.783)"/></g><g transform="translate(0 87.461)"><path class="f" d="M708.723,596.73H546.465a3.607,3.607,0,0,1-3.9-3.555v-2.432l17.76-32.818a5.654,5.654,0,0,1,5.064-3.139H689.56c2.318,0,7.427,4.563,8.462,6.636l14.652,29.87C713.043,594.394,711.216,596.953,708.723,596.73Z" transform="translate(-542.568 -554.786)"/></g><g transform="translate(0.014 84.026)"><path class="g" d="M708.738,593.173H546.48c-1.8,0-4.767-1.58-3.654-3.523l17.517-35.282a5.654,5.654,0,0,1,5.064-3.139H689.575a6.116,6.116,0,0,1,5.471,3.381l17.34,34.7C713.6,591.521,710.715,593.173,708.738,593.173Z" transform="translate(-542.583 -551.229)"/></g><g transform="translate(17.749)"><rect class="g" width="132.877" height="83.964" rx="5.03"/></g><g transform="translate(22.851 4.58)"><rect class="h" width="122.626" height="72.756"/></g><g transform="translate(59.888 109.672)"><path class="f" d="M653.248,592.554H605.438a.862.862,0,0,1-.851-1l2.016-12.593a1.4,1.4,0,0,1,1.383-1.179h43.123a1.23,1.23,0,0,1,1.218,1.054l1.848,12.664A.934.934,0,0,1,653.248,592.554Z" transform="translate(-604.576 -577.783)"/></g><g transform="translate(17.074 89.831)"><path class="i" d="M692.492,574.483h-129.9c-1.441,0-2.54-.553-2.312-1.165l5.477-14.7c.3-.793,1.888-1.376,3.757-1.376H686.679c1.66,0,3.068.523,3.309,1.229l5.02,14.785C695.2,573.905,694.023,574.483,692.492,574.483Z" transform="translate(-560.246 -557.24)"/></g><g transform="translate(16.731 86.549)"><g transform="translate(0 5.816)"><rect class="g" width="135.468" height="0.684"/></g><g transform="translate(0 9.236)"><rect class="g" width="135.468" height="0.684"/></g><g transform="translate(0 13.342)"><rect class="g" width="135.468" height="0.684"/></g><g transform="translate(0 17.105)"><rect class="g" width="135.468" height="0.684"/></g><g transform="translate(9.64 0.365)"><rect class="g" width="22.578" height="1.026" transform="translate(0 21.54) rotate(-72.561)"/></g><g transform="translate(19.56 0.365)"><rect class="g" width="22.578" height="1.026" transform="translate(0 21.54) rotate(-72.561)"/></g><g transform="translate(27.429 0.365)"><rect class="g" width="22.578" height="1.026" transform="translate(0 21.54) rotate(-72.561)"/></g><g transform="translate(35.297 0.365)"><rect class="g" width="22.578" height="1.026" transform="translate(0 21.54) rotate(-72.561)"/></g><g transform="translate(43.507 0.365)"><rect class="g" width="22.578" height="1.026" transform="translate(0 21.54) rotate(-72.561)"/></g><g transform="translate(54.305 0.109)"><rect class="g" width="22.578" height="1.026" transform="translate(0 22.165) rotate(-79.022)"/></g><g transform="translate(65.681)"><rect class="g" width="1.026" height="22.578"/></g><g transform="translate(118.767 0.365)"><rect class="g" width="1.026" height="22.578" transform="translate(0 0.308) rotate(-17.439)"/></g><g transform="translate(109.188 0.365)"><rect class="g" width="1.026" height="22.578" transform="translate(0 0.308) rotate(-17.439)"/></g><g transform="translate(99.61 0.365)"><rect class="g" width="1.026" height="22.578" transform="translate(0 0.308) rotate(-17.439)"/></g><g transform="translate(90.031 0.365)"><rect class="g" width="1.026" height="22.578" transform="translate(0 0.308) rotate(-17.439)"/></g><g transform="translate(80.453 0.365)"><rect class="g" width="1.026" height="22.578" transform="translate(0 0.308) rotate(-17.439)"/></g><g transform="translate(70.874 0.365)"><rect class="g" width="1.026" height="22.578" transform="translate(0 0.308) rotate(-17.439)"/></g></g></g><g transform="translate(597.105 481.112)"><path class="b" d="M617.084,525.783q0-1.831.008-3.662c2.258,0,4.517.015,6.776-.008a21.86,21.86,0,0,0,4.061-.13,4.055,4.055,0,0,0,3.058-2.123,8.006,8.006,0,0,0,.681-3.7c.051-5.153.03-10.306.012-15.46a17.913,17.913,0,0,0-.213-2.207,11.041,11.041,0,0,0-1.236-3.091,2.7,2.7,0,0,0-2.6-1.584c-3.509-.031-7.018-.007-10.526,0l-.046-5.809c.059-2.469.626-3.017,3.122-3.017H650.8a2.187,2.187,0,0,1,2.429,1.579,1.473,1.473,0,0,1,.063.386q0,5.069-.008,10.138c-3.174,0-6.347.008-9.52,0-.431,0-.623.088-.619.574.023,3.195.018,6.39.023,9.586q.012,5.005.023,10.012,0,5.04-.008,10.081c-.284.013-.567.037-.851.037-7.47,0-14.938-.016-22.407.017A2.637,2.637,0,0,1,617.084,525.783Z" transform="translate(-605.864 -484.991)"/><path class="j" d="M616.7,518.768c-.2-.305-.519-.176-.782-.177q-4.045-.02-8.091-.01a2.2,2.2,0,0,1-2.147-1.117,1.638,1.638,0,0,1-.211-.807q.006-10.1.01-20.193a1.85,1.85,0,0,1,1.813-1.958c1.685-.074,3.375-.043,5.063-.056l4.077-.031.271-.01c3.442,0,6.885-.017,10.326,0,1.681.01,2.657.811,2.554,2.432a1.107,1.107,0,0,0,.122.57l-.112.141.006.647c0,5.966-.025,11.933,0,17.9a3.615,3.615,0,0,1-1.407,2.753,4.188,4.188,0,0,1-2.986.946c-2.346.029-4.694.013-7.041,0-.413,0-.87.134-1.229-.071C616.611,519.546,616.959,519.054,616.7,518.768Zm-2.217-15.437c1.646,2.678,3.269,5.3,4.869,7.933,1.091,1.8,1.077,1.791,3.126,1.774.474,0,.584-.159.582-.607q-.02-5.925,0-11.85c0-.442-.1-.651-.58-.606a5.683,5.683,0,0,1-1.117,0c-.487-.05-.639.107-.63.611.034,1.689.013,3.38.014,5.07v3.791c-.125-.18-.172-.241-.213-.307-1.556-2.515-3.2-4.981-4.629-7.566a2.621,2.621,0,0,0-2.982-1.62c-.553.076-.774.131-.768.76.034,3.642.018,7.286.019,10.929,0,1.4,0,1.406,1.408,1.4,1.026,0,.892.118.894-.926C614.486,509.208,614.482,506.3,614.482,503.331Z" transform="translate(-605.468 -485.313)"/><path class="k" d="M644.088,507.679c0-3.2,0-6.391-.023-9.586,0-.486.188-.576.619-.574,3.173.012,6.346,0,9.52,0q0,5.071,0,10.143Z" transform="translate(-606.788 -485.419)"/><path class="l" d="M644.089,508.039l10.112-.013-.006,10.012-10.083.013Z" transform="translate(-606.788 -485.779)"/><path class="j" d="M644.113,518.4l10.083-.013v8.166c-.146.116-.117.27-.092.423l-.006.233a2.207,2.207,0,0,1-1.735,1.243q-3.923-.015-7.846-.025c-.059,0-.118.049-.177.076l-.236-.023Z" transform="translate(-606.789 -486.133)"/><path class="k" d="M629.993,498.193c0-.215,0-.432-.007-.647l.113-.141a1.107,1.107,0,0,1-.122-.57c.1-1.621-.873-2.422-2.554-2.432-3.441-.02-6.884,0-10.326,0l.007-.269c3.509,0,7.018-.028,10.526,0a2.7,2.7,0,0,1,2.6,1.584,11.041,11.041,0,0,1,1.236,3.091,17.925,17.925,0,0,1,.213,2.207c.018,5.154.04,10.307-.012,15.46a8.005,8.005,0,0,1-.681,3.7,4.055,4.055,0,0,1-3.058,2.123,21.86,21.86,0,0,1-4.061.13c-2.259.023-4.518.008-6.776.008l-.006-1.444q4.672,0,9.345-.007a3.506,3.506,0,0,0,3.614-2.649,8.182,8.182,0,0,0,.326-2.258c0-5.111,0-10.222.008-15.332a21.669,21.669,0,0,1-.141-2.221A.274.274,0,0,0,629.993,498.193Z" transform="translate(-605.865 -485.303)"/><path class="m" d="M651.44,528.759a2.207,2.207,0,0,0,1.735-1.243,2.159,2.159,0,0,1-1.746,2.636,24.4,24.4,0,0,1-2.55.141q-13.682-.017-27.363,0c-.9,0-1.791-.068-2.68-.152a1.634,1.634,0,0,1-1.3-.892,4.664,4.664,0,0,1-.453-2.022,2.637,2.637,0,0,0,2.839,1.614c7.469-.033,14.937-.015,22.407-.017.284,0,.567-.024.851-.037l.236.022q3.758.013,7.516.024A.83.83,0,0,0,651.44,528.759Z" transform="translate(-605.865 -486.435)"/><path class="l" d="M629.993,498.337a.274.274,0,0,1,.246.328,21.669,21.669,0,0,0,.141,2.221c-.012,5.11,0,10.221-.008,15.332a8.182,8.182,0,0,1-.326,2.258,3.506,3.506,0,0,1-3.614,2.649q-4.673.01-9.345.007l.009-2.23c.261.286-.088.777.239.965.358.206.815.07,1.229.071,2.347.008,4.695.024,7.041,0a4.188,4.188,0,0,0,2.986-.946A3.615,3.615,0,0,0,630,516.235C629.968,510.27,629.989,504.3,629.993,498.337Z" transform="translate(-605.865 -485.447)"/><path class="m" d="M617.095,493.924l-.007.269-.27.011c0-1.545-.025-3.091,0-4.636a4.215,4.215,0,0,1,.232-1.454Q617.072,491.02,617.095,493.924Z" transform="translate(-605.856 -485.098)"/><path class="l" d="M654.457,527.27c-.025-.153-.054-.307.092-.423A.381.381,0,0,1,654.457,527.27Z" transform="translate(-607.142 -486.422)"/><path class="n" d="M614.719,503.526c0,2.97,0,5.877,0,8.784,0,1.044.131.921-.894.926-1.408.008-1.408,0-1.408-1.4,0-3.643.014-7.287-.019-10.929-.006-.629.214-.684.768-.76a2.621,2.621,0,0,1,2.983,1.62c1.427,2.585,3.073,5.051,4.629,7.566.041.066.088.127.213.307v-3.791c0-1.689.019-3.38-.015-5.07-.01-.5.143-.662.63-.611a5.685,5.685,0,0,0,1.117,0c.481-.045.582.163.58.606q-.023,5.925,0,11.851c0,.447-.108.6-.582.607-2.049.016-2.035.023-3.126-1.774C617.988,508.824,616.365,506.2,614.719,503.526Z" transform="translate(-605.705 -485.508)"/><path class="l" d="M630.556,497.521l-.113.141Z" transform="translate(-606.322 -485.419)"/><path class="b" d="M652.372,528.812a.83.83,0,0,1-.507.075q-3.758-.01-7.516-.024c.059-.027.118-.076.177-.076Q648.449,528.8,652.372,528.812Z" transform="translate(-606.797 -486.488)"/></g><g transform="translate(841.197 435.166)"><path class="o" d="M880.566,437.419h-20.36a2.012,2.012,0,0,0-2.006,2.007v20.361a2.012,2.012,0,0,0,2.006,2.007h20.36a2.013,2.013,0,0,0,2.008-2.007V439.426A2.013,2.013,0,0,0,880.566,437.419Zm-10.18,19.856a7.669,7.669,0,1,1,7.669-7.669A7.67,7.67,0,0,1,870.387,457.275Z" transform="translate(-858.2 -437.419)"/><path class="o" d="M874.935,449.244l-5.873-3.391c-.616-.356-1.119-.065-1.119.646v6.782c0,.711.5,1,1.119.646l5.873-3.391A.683.683,0,0,0,874.935,449.244Z" transform="translate(-858.533 -437.702)"/></g><g transform="translate(773.284 597.749)"><path class="p" d="M823.715,613.553v22.363a2.857,2.857,0,0,0-.088.46c-.2.765-.295.887-1.093,1.059a6.563,6.563,0,0,1-1.383.09c-1.269,0-2.537-.012-3.806-.013q-4.068,0-8.136,0c-.138,0-.159.044-.159.168.006.98,0,1.961.006,2.941,0,.127-.035.156-.157.156-.761-.006-1.522,0-2.284,0a1.56,1.56,0,0,1-.266-.029c-.8-.143-1.594-.291-2.391-.432q-2.583-.456-5.168-.907-2.9-.506-5.8-1.005c-1.646-.285-3.29-.574-4.936-.852-.142-.024-.168-.073-.168-.207q0-5.508,0-11.016,0-8.569,0-17.137c0-.123.028-.168.155-.189,1.117-.187,2.233-.383,3.349-.578l4.744-.823q2.182-.378,4.362-.758,2.519-.44,5.037-.883a8.062,8.062,0,0,1,1.191-.189c.726-.014,1.453,0,2.179-.007.124,0,.156.029.156.155-.006.99,0,1.98-.006,2.97,0,.1.015.137.126.137.747,0,1.493,0,2.24,0q3.717,0,7.434-.006c1.11,0,2.219.033,3.328.019a1.408,1.408,0,0,1,1.51,1.489c0,.244,0,.488,0,.731C823.68,612.02,823.7,612.786,823.715,613.553Zm-1.227,9.713q0-6.434,0-12.868c0-.112-.009-.163-.147-.162q-6.576.006-13.151,0c-.125,0-.143.042-.142.152,0,.84.006,1.681,0,2.523,0,.143.034.179.179.179q3.9-.007,7.808,0c.81,0,1.622,0,2.433,0,.142,0,.173.043.171.176-.009.422,0,.845,0,1.268,0,.224.021.19-.19.19q-5.12,0-10.241,0c-.124,0-.156.03-.155.155.007.562,0,1.125,0,1.687,0,.2,0,.2.2.2q5.105,0,10.211,0c.148,0,.182.041.178.182-.01.413,0,.826,0,1.239,0,.248.027.215-.212.215q-5.1,0-10.2,0c-.147,0-.18.039-.178.181.01.551,0,1.1,0,1.656,0,.2,0,.2.194.2q5.113,0,10.226,0c.127,0,.17.024.167.161-.011.408,0,.816,0,1.224,0,.244,0,.244-.242.244q-5.084,0-10.166,0c-.147,0-.181.039-.178.181.009.543,0,1.085,0,1.627,0,.233,0,.233.238.233q5.091,0,10.182,0c.126,0,.171.026.167.162-.01.423,0,.846,0,1.269,0,.2,0,.2-.2.2q-5.114,0-10.226,0c-.128,0-.167.026-.165.161q.013.858,0,1.716c0,.131.03.164.162.163q2.813-.007,5.628,0c1.542,0,3.085,0,4.628,0,.14,0,.173.041.171.175-.009.422,0,.846,0,1.268,0,.193,0,.194-.19.194q-5.12,0-10.241,0c-.124,0-.157.028-.156.154.008.562,0,1.125,0,1.687,0,.2,0,.2.2.2q5.105,0,10.211,0c.147,0,.181.039.177.18-.01.418,0,.836,0,1.255,0,.22.028.2-.2.2q-5.105,0-10.212,0c-.131,0-.174.028-.173.169q.01,1.454,0,2.91c0,.149.033.189.186.188q6.531-.007,13.062,0c.222,0,.191.02.192-.189Zm-27.9,2.045h-.037c-.036-.243-.069-.487-.105-.729-.348-2.275-.748-4.541-1.12-6.812-.017-.1-.051-.128-.15-.123-.616.031-1.232.059-1.85.08-.1,0-.112.039-.1.124.074.4.143.792.217,1.188.581,3.111,1.254,6.2,1.841,9.313.016.082.049.117.135.122q1.065.059,2.13.127c.085.006.121-.015.138-.1.062-.326.133-.652.2-.977.361-1.67.738-3.337,1.072-5.013.112-.559.221-1.119.336-1.7.018.063.032.1.039.137.234,1.311.509,2.614.783,3.916s.543,2.577.812,3.865c.017.084.045.123.144.117a7,7,0,0,1,1.055.077,2.7,2.7,0,0,0,1.21-.065.208.208,0,0,0,.152-.16c.227-.941.469-1.879.685-2.823q1-4.365,1.975-8.735c.042-.182.042-.179-.148-.169-.705.038-1.411.076-2.116.107-.108,0-.141.038-.158.14-.171.994-.35,1.987-.522,2.981q-.4,2.306-.791,4.614c-.038.219-.076.439-.114.66-.219-.917-.414-1.83-.6-2.745q-.537-2.644-1.065-5.289c-.019-.095-.05-.12-.144-.115-.694.04-1.391.077-2.086.109-.093,0-.124.037-.143.126q-.653,3.038-1.313,6.074Q794.776,624.468,794.59,625.311Z" transform="translate(-787.883 -605.757)"/><path class="q" d="M824.959,611.448h.023v2.3C824.964,612.981,824.947,612.215,824.959,611.448Z" transform="translate(-789.15 -605.951)"/><path class="q" d="M823.237,623.425v12.839c0,.21.03.189-.192.189q-6.531,0-13.062,0c-.154,0-.187-.04-.186-.188q.012-1.454,0-2.91c0-.141.042-.17.173-.169q5.107,0,10.212,0c.229,0,.2.025.2-.2,0-.418-.006-.836,0-1.255,0-.141-.03-.18-.177-.18q-5.105.007-10.211,0c-.2,0-.2,0-.2-.2,0-.562,0-1.125,0-1.687,0-.126.032-.155.156-.154q5.121,0,10.241,0c.19,0,.19,0,.19-.194,0-.422-.006-.846,0-1.268,0-.134-.031-.175-.171-.175-1.543.006-3.086,0-4.628,0q-2.813,0-5.628,0c-.132,0-.164-.032-.162-.163q.012-.858,0-1.716c0-.135.037-.161.165-.161q5.112.006,10.226,0c.2,0,.2,0,.2-.2,0-.423-.007-.846,0-1.269,0-.136-.041-.162-.167-.162q-5.091.006-10.182,0c-.238,0-.238,0-.238-.233,0-.543.006-1.085,0-1.627,0-.142.031-.181.178-.181q5.082.007,10.166,0c.242,0,.242,0,.242-.244,0-.408-.007-.816,0-1.224,0-.137-.041-.161-.167-.161q-5.113.006-10.226,0c-.194,0-.194,0-.194-.2,0-.552.006-1.1,0-1.656,0-.142.031-.181.178-.181q5.1.007,10.2,0c.24,0,.212.033.212-.215,0-.413-.006-.826,0-1.239,0-.141-.03-.182-.178-.182q-5.105.007-10.211,0c-.2,0-.2,0-.2-.2,0-.562,0-1.125,0-1.687,0-.125.031-.154.155-.154q5.121.006,10.241,0c.212,0,.19.034.19-.19,0-.423,0-.846,0-1.268,0-.133-.029-.177-.171-.176-.811.007-1.623,0-2.433,0q-3.9,0-7.808,0c-.145,0-.18-.036-.179-.179.008-.841.006-1.682,0-2.523,0-.109.017-.152.142-.152q6.576.006,13.151,0c.138,0,.147.05.147.162Q823.236,616.991,823.237,623.425Z" transform="translate(-788.632 -605.915)"/><path class="q" d="M794.708,625.707q.185-.843.369-1.686.658-3.037,1.313-6.074c.019-.089.05-.121.143-.125.7-.032,1.392-.07,2.086-.109.094,0,.125.02.144.115q.527,2.645,1.065,5.289c.186.915.382,1.828.6,2.745.038-.22.076-.44.114-.66q.4-2.308.791-4.614c.172-.994.351-1.987.521-2.98.017-.1.05-.136.158-.14.705-.031,1.411-.069,2.116-.107.189-.01.189-.013.148.169q-.985,4.368-1.975,8.735c-.215.945-.458,1.882-.685,2.823a.208.208,0,0,1-.152.16,2.7,2.7,0,0,1-1.21.065,7.012,7.012,0,0,0-1.055-.077c-.1.006-.126-.033-.144-.117q-.4-1.932-.812-3.865c-.274-1.3-.549-2.606-.783-3.916-.007-.038-.02-.074-.039-.137-.115.585-.224,1.145-.336,1.7-.334,1.676-.711,3.343-1.072,5.013-.07.326-.142.651-.2.977-.017.089-.053.11-.138.1q-1.065-.068-2.13-.127c-.086,0-.119-.04-.135-.122-.587-3.11-1.259-6.2-1.841-9.313-.074-.4-.143-.792-.217-1.188-.016-.085,0-.12.1-.124.617-.021,1.233-.049,1.849-.08.1,0,.132.019.15.123.372,2.271.773,4.536,1.12,6.812.037.242.07.486.105.729Z" transform="translate(-788.001 -606.153)"/></g><g transform="translate(384.818 450.261)"><rect class="r" width="37.482" height="34.377" rx="3.763" transform="translate(0)"/><path class="p" d="M423.148,479.148v5.027a3.63,3.63,0,0,1-3.633,3.634H389.3a3.634,3.634,0,0,1-3.634-3.634v-5.316l9.117-13.287a2.979,2.979,0,0,1,4.987.116l5.586,9a2.3,2.3,0,0,0,3.629.369l3.565-3.761a2.982,2.982,0,0,1,4.492.19Z" transform="translate(-385.667 -453.432)"/><circle class="p" cx="3.522" cy="3.522" r="3.522" transform="translate(25.122 3.803)"/></g><g transform="translate(447.641 628.493)"><rect class="r" width="23.392" height="25.518" rx="2.11"/><rect class="o" width="17.366" height="0.886" transform="translate(2.658 4.076)"/><rect class="o" width="17.366" height="0.886" transform="translate(2.658 7.974)"/><rect class="o" width="17.366" height="0.886" transform="translate(2.658 11.873)"/><rect class="o" width="17.366" height="0.886" transform="translate(2.658 15.772)"/><rect class="o" width="17.366" height="0.886" transform="translate(2.658 19.67)"/></g><g transform="translate(542.69 391.449)"><g transform="translate(0)"><rect class="o" width="1.329" height="18.474" transform="translate(6.55 1.453)"/><ellipse class="o" cx="3.987" cy="2.114" rx="3.987" ry="2.114" transform="translate(0 22.126) rotate(-37.18)"/><rect class="o" width="6.512" height="2.168" transform="translate(6.55)"/></g><g transform="translate(11.001)"><rect class="o" width="1.329" height="18.474" transform="translate(6.55 1.453)"/><ellipse class="o" cx="3.987" cy="2.114" rx="3.987" ry="2.114" transform="translate(0 22.126) rotate(-37.18)"/><rect class="o" width="6.512" height="2.168" transform="translate(6.55)"/></g></g></g></svg>