<svg xmlns="http://www.w3.org/2000/svg" width="162.148" height="331.237" viewBox="0 0 162.148 331.237"><defs><style>.a{fill:#ffc84f;}.b{fill:#78b1be;}.c{fill:#fff;font-size:14px;font-family:DejaVuSans, DejaVu Sans;}</style></defs><g transform="translate(-1024.84 -189.813)"><g transform="translate(1092.12 264.638)"><path class="a" d="M1123.212,327.886l13.794-14.7h-27.589Z" transform="translate(-1109.418 -289.871)"/><rect class="a" width="13.474" height="26.085" transform="translate(7.057 0)"/></g><g transform="translate(1092.12 387.142)"><path class="a" d="M1123.212,481.886l13.794-14.7h-27.589Z" transform="translate(-1109.418 -443.871)"/><rect class="a" width="13.474" height="26.085" transform="translate(7.057)"/></g><g transform="translate(1024.84 189.813)"><path class="b" d="M1175.62,249.026h-5.051a40.228,40.228,0,0,0,.713-7.536c0-18.947-13.044-34.307-29.135-34.307a25.077,25.077,0,0,0-8.264,1.409c-4.813-11.141-14.634-18.779-25.978-18.779-11.943,0-22.2,8.465-26.7,20.575a25.417,25.417,0,0,0-12.3-3.2c-16.091,0-29.135,15.36-29.135,34.307a40.238,40.238,0,0,0,.714,7.536h-4.276c-6.252,0-11.368,6.023-11.368,13.386s5.116,13.385,11.368,13.385H1175.62c6.252,0,11.368-6.023,11.368-13.385S1181.872,249.026,1175.62,249.026Z" transform="translate(-1024.84 -189.813)"/><text class="c" transform="translate(54.12 55.233)"><tspan x="0" y="0">შექმნა</tspan></text></g><g transform="translate(1024.84 312.438)"><path class="b" d="M1175.62,403.18h-5.051a40.236,40.236,0,0,0,.713-7.536c0-18.947-13.044-34.307-29.135-34.307a25.079,25.079,0,0,0-8.264,1.409c-4.813-11.141-14.634-18.78-25.978-18.78-11.943,0-22.2,8.465-26.7,20.576a25.417,25.417,0,0,0-12.3-3.2c-16.091,0-29.135,15.36-29.135,34.307a40.246,40.246,0,0,0,.714,7.536h-4.276c-6.252,0-11.368,6.023-11.368,13.386s5.116,13.385,11.368,13.385H1175.62c6.252,0,11.368-6.023,11.368-13.385S1181.872,403.18,1175.62,403.18Z" transform="translate(-1024.84 -343.966)"/><text class="c" transform="translate(31.052 55.234)"><tspan x="0" y="0">ორგანიზება</tspan></text></g><g transform="translate(1024.84 435.065)"><path class="b" d="M1175.62,557.334h-5.051a40.236,40.236,0,0,0,.713-7.536c0-18.947-13.044-34.307-29.135-34.307a25.1,25.1,0,0,0-8.264,1.408c-4.813-11.141-14.634-18.779-25.978-18.779-11.943,0-22.2,8.466-26.7,20.576a25.415,25.415,0,0,0-12.3-3.205c-16.091,0-29.135,15.36-29.135,34.307a40.246,40.246,0,0,0,.714,7.536h-4.276c-6.252,0-11.368,6.023-11.368,13.386s5.116,13.385,11.368,13.385H1175.62c6.252,0,11.368-6.023,11.368-13.385S1181.872,557.334,1175.62,557.334Z" transform="translate(-1024.84 -498.12)"/><text class="c" transform="translate(37.415 55.234)"><tspan x="0" y="0">გაზიარება</tspan></text></g></g></svg>