<svg xmlns="http://www.w3.org/2000/svg" xmlns:xlink="http://www.w3.org/1999/xlink" width="620.615" height="418.168" viewBox="0 0 620.615 418.168"><defs><style>.a,.s{fill:none;}.b{clip-path:url(#a);}.c{fill:#eadff1;}.d{clip-path:url(#b);}.e,.f{fill:#d8a35d;}.e{fill-rule:evenodd;}.g{fill:#d19442;}.h{fill:#937dcd;}.i{fill:#ffc84f;}.j{opacity:0.15;}.k{fill:#625489;}.l{fill:#62548a;}.m{opacity:0.3;}.n{opacity:0.5;}.o{fill:#ffc74f;}.p{fill:#989898;}.q{fill:#cbcbcb;}.r{fill:gray;}.s{stroke:#937dcd;stroke-miterlimit:10;stroke-width:0.605px;}</style><clipPath id="a"><rect class="a" width="620.615" height="418.168"/></clipPath><clipPath id="b"><rect class="a" width="432.555" height="389.657"/></clipPath></defs><g transform="translate(-784.11 -372.849)"><g transform="translate(784.11 372.85)"><g class="b"><path class="c" d="M800.006,790.247c-3.808-69.714,45.863-146.408,77.565-205.269A459.686,459.686,0,0,1,999.663,439.565c38.233-30.148,101.385-63.144,141.934-18.624,36.151,39.693,7.515,71.654.838,113.3-6.266,39.071,8.4,72.1,38.727,96.49,57.541,46.284,137.2,79.432,182.211,139.484,8.992,12,21.252,29.718,12.006,43.372-10.728,15.839-53.335,20.984-70.461,22.4-67.055,5.536-135.873,1.9-202.991-1.231-66.365-3.1-132.228-6.982-198.72-6.922-39.546.035-90.42-8.44-128.252,7.824" transform="translate(-786.126 -367.039)"/></g></g><g transform="translate(789.384 372.849)"><g transform="translate(0 28.512)"><g class="d"><g transform="translate(84.865 74.675)"><g transform="translate(0 31.895)"><path class="e" d="M889.42,495.358c-1.916-4.682-8-8.334-12.076-9.46a40.974,40.974,0,0,1-5.192-2.183c-3.157-1.064,1.839,3.439,3.725,4.2,1.534.614,4.281,5.179,5.785,6.744s4.727,3.835,6.46,3.851S889.171,496.227,889.42,495.358Z" transform="translate(-855.088 -483.553)"/><path class="e" d="M902.894,510.5c-3.661-6.576-6.4-14.389-13.435-17.654s-17.555-3.209-23.142-4.064c-6.573-1.007-3.817,1.134-.354,2.061,2.251.6,9.53,2.76,11.8,2.744,1.1-.009-8.95-1.7-9.491-1.545s-10.967-2.694-10.258-.776c1.374,3.719,13.151,4.194,16.9,5.011-1.979-.072-5.2-.665-7.1-.743-1.619-.067-6.506-1.846-6.988-.359-.759,2.344,11.3,3.869,12.9,4-1.586,1.276-7.637-.634-9.747-.78-.212-.015-2.133.445.177,1.258,4.861,1.712,8.626,3.277,14.184,4.1s12.078,1.678,15.782,6.754C897.1,510.338,900,510.857,902.894,510.5Z" transform="translate(-857.983 -482.461)"/></g><path class="f" d="M1051.758,772.655s-12.8,132.094-7.358,134.367c9.765,4.144,48.011,17.694,5.846,14.716-21.66,1.306-20.071-3.534-20.409-7.634-.277-3.351.36-121.569-.531-130.762-.2-2.058-.32-3.3-.32-3.3Z" transform="translate(-820.326 -387.996)"/><path class="f" d="M987.127,773s5.551,132.095.106,134.367c-9.765,4.144-48.01,17.694-5.845,14.716,21.66,1.306,20.07-3.534,20.409-7.634.276-3.351,2.733-28.78,3.623-37.973.2-2.06,4.444-105.372,4.444-105.372Z" transform="translate(-835.081 -388.338)"/><path class="g" d="M1019.417,493.9s-1.129,12.586,6.635,19.548-17.892,0-17.892,0,4.773-12.056,3.7-19.548S1019.417,493.9,1019.417,493.9Z" transform="translate(-824.913 -450.113)"/><ellipse class="f" cx="13.574" cy="18.519" rx="13.574" ry="18.519" transform="translate(176.836 11.629)"/><path class="h" d="M923.442,571.388c20.548-42.982,57.22-62.59,80.634-67.8,10.135-2.259,17.785-1.814,20.579.6a15.179,15.179,0,0,0,9.475,3.68,20.546,20.546,0,0,0,5.32-.484,26.5,26.5,0,0,0,5.64-1.917c.865-.4,1.37-.692,1.37-.692a55.064,55.064,0,0,1,14.331.857c52.972,10.372,62.189,99.191,61.716,106.83-.289,4.547-4.991,25.146-10.867,43.456-4.815,15.032-10.434,28.527-15.053,30.394-10.248,4.123-87.624,9.784-103.532,2.2-.371-.278-.774-.577-1.154-.907-5.969-4.856-12.444-14.445-15.877-23.424,0-.01-9.145-25.785-11.011-31.032-.021-.052-.031-.093-.051-.134-.062-.206-.134-.4-.206-.588-.021-.072-.051-.134-.072-.206" transform="translate(-843.568 -447.57)"/><path class="i" d="M981.322,652.531a8.367,8.367,0,0,0,4.749,2.19c11.159.22,59.352,1.044,85.5-.458,9.224-.531,15.7-1.351,16.839-2.594,0,0,0,.038-.007.106-.068,1.441-.9,17.938-2.056,39.564-2.29,42.69,2.122,103.832,7.277,122.39,1.113,4-58.766-2.062-58.766-2.062-.167-44.055,4.013-121.4,1.313-124.864-3.285-4.217-8.61,63.812-14.716,120.739-23.714,6.186-61.263,2.431-60.828,0C965.777,778.676,981.322,652.531,981.322,652.531Z" transform="translate(-835.382 -414.638)"/><path class="j" d="M957.242,612.158c.021.072.051.134.072.206.072.185.144.382.206.588.021.041.031.082.051.134,1.867,5.247,11.011,31.022,11.011,31.032,3.434,8.979,9.908,18.568,15.877,23.424-4.051-14.672-16.681-57.2-16.2-74.335C965.85,609.725,957.242,612.148,957.242,612.158Z" transform="translate(-836.125 -427.511)"/><path class="j" d="M1059.571,558.384s-25.643,76.546,45.5,109.054l1.445.961-.367-18s-33.523-46.778-33.65-47.982S1059.571,558.384,1059.571,558.384Z" transform="translate(-814.583 -435.18)"/><path class="j" d="M1020.474,510.911c.042,1.226-.608,2.03-2.577,1.763-6.145-.836-13.083-.66-18.125,1.648a4.285,4.285,0,0,1-4.145-.174c-3.226-1.886-5.226-7.516-6.021-10.011a1.72,1.72,0,0,1-.083-.547c10.135-2.259,17.785-1.814,20.579.6a15.179,15.179,0,0,0,9.475,3.68A8.354,8.354,0,0,1,1020.474,510.911Z" transform="translate(-829.016 -447.57)"/><path class="k" d="M1003.852,881.9c.253-1.907-13.319-1.729-14.854-.179s-28.58,7.128-28.044,15.16,38.016,1.717,40.693,1.528S1003.355,885.648,1003.852,881.9Z" transform="translate(-835.309 -364.245)"/><path class="l" d="M1029.075,879.243c-.253-1.907,15.991.512,17.527,2.062s25.181,7.98,24.647,16.011-38.016,1.717-40.693,1.528S1029.572,882.99,1029.075,879.243Z" transform="translate(-820.324 -364.679)"/><g class="m" transform="translate(189.896 237.032)"><path d="M1014.147,654.528l-.538-.044S1013.8,654.5,1014.147,654.528Z" transform="translate(-1013.609 -651.05)"/><path class="n" d="M1014.05,655.148c14.362,1.146,45.752-.883,45.752-.883,9.224-.531,15.7-1.351,16.839-2.594,0,0,0,.038-.007.106-.068,1.441-.9,17.938-2.056,39.564a10.5,10.5,0,0,1-1.51-.174,11.752,11.752,0,0,1-7.6-5.4,26.064,26.064,0,0,1-2.955-6.172C1051.8,659.219,1018.65,655.561,1014.05,655.148Z" transform="translate(-1013.512 -651.67)"/></g><g transform="translate(173.697)"><g transform="translate(2.866 5.163)"><path class="o" d="M1010.739,476s23.5,13.029,16.525-7.889C1022.439,453.639,994.713,466.676,1010.739,476Z" transform="translate(-1001.994 -461.646)"/><path class="o" d="M1014.834,470.835s-13.148,7.8-11.879,15.627c0,0-2.9-23.365,10.173-23.953s18.135.675,16.974,25.381C1030.1,487.891,1026.3,468.237,1014.834,470.835Z" transform="translate(-1002.682 -461.477)"/></g><path class="o" d="M1010.776,463.763s.66-7.28,7.878-6.249,10.309,5.154,11.341,9.278,2.062,7.218,3.093,7.218c0,0-3.093,3.092-4.124,2.062,0,0,2.676,7.414-.724,13.5,0,0-1.339-9.378-6.493-10.41S1010.776,463.763,1010.776,463.763Z" transform="translate(-998.033 -457.414)"/><path class="o" d="M1013.736,462.684s-5.154-3.092-10.31,4.124l-3.093,6.186s1.031,1.031,3.093,0c0,0-.94,7.264.046,11.364l3.047-12.395Z" transform="translate(-1000.333 -456.399)"/></g><g transform="translate(156.412 126.813)"><path class="p" d="M986.277,580.575l13.073,83.748a8.943,8.943,0,0,0,10.206,7.453l57.158-8.928a2.775,2.775,0,0,0,.4-.082,8.912,8.912,0,0,0,7.042-10.124l-13.073-83.748a8.928,8.928,0,0,0-10.207-7.443l-54.508,8.5-2.65.412A8.93,8.93,0,0,0,986.277,580.575Z" transform="translate(-986.168 -561.342)"/><path class="q" d="M988.778,580.08l13.073,83.748a8.927,8.927,0,0,0,10.206,7.443l54.509-8.5a8.912,8.912,0,0,0,7.042-10.124l-13.073-83.748a8.928,8.928,0,0,0-10.207-7.443l-54.508,8.5A8.912,8.912,0,0,0,988.778,580.08Z" transform="translate(-985.617 -561.342)"/><circle class="r" cx="6.9" cy="6.9" r="6.9" transform="translate(39.258 48.822)"/></g><path class="j" d="M1086.912,629.594s1.34-30.785-81.14-20.475,61.86,19.589,61.86,19.589Z" transform="translate(-831.044 -424.473)"/><g transform="translate(141.206 54.479)"><g transform="translate(0 127.797)"><path class="e" d="M1014.907,619.8c-.976-.327-11.292-6.5-16.884-7.021s-13.956-.749-16.843-1.57c-3.4-.965-4.255.383-.342,1.877a55.027,55.027,0,0,0,8.907,2.522c.559.023-3.085-.466-7.044-1.287-4.211-.872-8.777-2.06-8.987-1.309-.405,1.455,11.723,4.723,13.859,4.955a53.785,53.785,0,0,1-5.633-.683c-2.543-.45-5.455-1.351-6.029-.824-.9.831,5.521,3.351,10.83,4.088.093.172-1.623.44-7.869-.857-.627-.131-2.226.143-.171,1.093,4.327,2,6.04,3.181,12.309,3.376,6.115.19,12.863-1.068,17.261.406Z" transform="translate(-973.706 -605.896)"/><path class="e" d="M998.443,614.228s-4.733-4.972-10.05-5.792c-3.159-.487-3.086-1.282-3.624-1.52-1.789-.787-.057,2.533,2.627,3.385,2.181.692,3.4,4.419,4.71,5.21s5.236,2.24,6.214,1.728S998.443,614.228,998.443,614.228Z" transform="translate(-971.431 -606.796)"/></g><path class="h" d="M1097.245,518.82c19.42,17.376,32.857,33.514,41.239,86.6,4.252,26.935,3.146,53.87,2.038,68.073a16.778,16.778,0,0,1-11.533,14.592c-60.845,20.07-127.679-37.665-127.679-37.665-3.484-1.3,3.531-13.721,3.531-13.721,33.637-.349,59.412.682,86.217,10.992-.135-.063-26.352-49.3-29.9-62.891-9.291-35.625-39.874-66.454-31.961-80.416C1031.934,499.557,1077.656,501.293,1097.245,518.82Z" transform="translate(-967.841 -502.062)"/></g><g transform="translate(141.206 236.851)"><line class="s" x1="15.206" y2="159.001"/><line class="s" x1="15.091" y2="156.232" transform="translate(15.206 3.18)"/><line class="s" x1="12.549" y2="155.14" transform="translate(32.498 3.18)"/><line class="s" x2="0.323" y2="32.135" transform="translate(59.255 3.18)"/><line class="s" x1="2.912" y2="158.283" transform="translate(72.114 3.18)"/><line class="s" x1="0.811" y2="159.611" transform="translate(87.785 3.081)"/><line class="s" x2="3.07" y2="160.528" transform="translate(101.934 3.081)"/></g><path class="s" d="M975.9,665.931s85.628,4.042,108.252,0" transform="translate(-832.016 -411.497)"/><path class="s" d="M1033.114,681.175c-29.961,6.786-58.632-3.941-58.632-3.941" transform="translate(-832.329 -409.008)"/><path class="s" d="M1022.268,678.8s27.037,7.6,50.787,1.182" transform="translate(-821.806 -408.663)"/><path class="s" d="M973.275,686.783s21.591,11.3,56.66,5.541" transform="translate(-832.595 -406.906)"/><path class="s" d="M971.827,698.156s33.6,10.258,56.766,4.98" transform="translate(-832.914 -404.401)"/><path class="s" d="M970.374,709.454s17.112,13.415,56.786,7.4" transform="translate(-833.233 -401.913)"/><path class="s" d="M968.684,722.451s26.092,13.632,57.549,4.335" transform="translate(-833.606 -399.051)"/><path class="s" d="M967.112,734.356s18.48,13.118,57.913,5.5" transform="translate(-833.952 -396.43)"/><path class="s" d="M965.468,746.561s25.506,13.333,58.742,2.561" transform="translate(-834.314 -393.742)"/><path class="s" d="M964.153,756.086s15.047,14.473,59.074,3.744" transform="translate(-834.603 -391.645)"/><path class="s" d="M962.6,766.9s24.332,12.819,59.664,3.338" transform="translate(-834.945 -389.264)"/><path class="s" d="M1023.275,690.7s11.3,9.326,49.559,2.4" transform="translate(-821.584 -406.044)"/><path class="s" d="M1023.518,702.2s15.851,7.391,48.357,1.555" transform="translate(-821.531 -403.511)"/><path class="s" d="M1022.885,714.969s24.475,7.371,49.129,0" transform="translate(-821.67 -400.699)"/><path class="s" d="M1022.6,725.557s23.793,10.577,49.955,0" transform="translate(-821.734 -398.367)"/><path class="s" d="M1022.268,737.182s22.651,7.948,51.013,0" transform="translate(-821.806 -395.808)"/><path class="s" d="M1021.968,748.347s19.094,8.567,52.272,0" transform="translate(-821.872 -393.349)"/><path class="s" d="M1021.968,758.226s22.669,11.682,53.425,1.241" transform="translate(-821.872 -391.173)"/><path class="s" d="M1021.521,770.574a104.8,104.8,0,0,0,55.652.643" transform="translate(-821.971 -388.454)"/><path class="h" d="M974.1,633.777s-62.756,26.624-77.983-30.794,5.711-70.119-13.958-93.906l12.689-9.828s43.777,23.157,56.783,59.321S974.1,633.777,974.1,633.777Z" transform="translate(-852.658 -448.202)"/></g></g></g><g transform="translate(31.293)"><path class="i" d="M869.434,489.682l5.617.016a58.468,58.468,0,0,0,0-116.831l-5.564-.018a.481.481,0,0,0-.054.038,58.482,58.482,0,0,0,0,116.8ZM834.116,469.09a65.3,65.3,0,0,1,11.96-6.875,69.984,69.984,0,0,0,16.652,22.111A54.113,54.113,0,0,1,834.116,469.09Zm36.184,15.6a66.85,66.85,0,0,1-20.014-24.171,67.532,67.532,0,0,1,20.014-3.979Zm0-32.67a72.106,72.106,0,0,0-21.842,4.355,66.619,66.619,0,0,1-4.669-20.912l26.51-.012Zm0-21.094-26.654.017a67.426,67.426,0,0,1,3.641-21.634,71.038,71.038,0,0,0,23.013,4.876Zm11.323,53.538a69.881,69.881,0,0,0,17.21-23.067,65.492,65.492,0,0,1,12.868,6.984A53.938,53.938,0,0,1,881.624,484.467Zm33.069-19.5a69.731,69.731,0,0,0-14.115-7.731,71.372,71.372,0,0,0,4.669-21.8l21.11-.011A53.459,53.459,0,0,1,914.692,464.964Zm1.689-65.131a53.427,53.427,0,0,1,10.14,31.069l-21.139.012a72.027,72.027,0,0,0-3.7-22.5A71.318,71.318,0,0,0,916.381,399.833Zm-2.792-3.559a66.737,66.737,0,0,1-13.474,7.889,70.736,70.736,0,0,0-18.5-26.066A53.7,53.7,0,0,1,913.589,396.273Zm-38.767-17.926a66.363,66.363,0,0,1,21.089,27.486,66.521,66.521,0,0,1-21.089,3.883Zm0,35.9a71.006,71.006,0,0,0,22.645-4.169,67.468,67.468,0,0,1,3.392,20.839l-26.037.016Zm0,21.206,25.9-.015a66.854,66.854,0,0,1-4.387,20.227,72.139,72.139,0,0,0-21.509-3.694Zm0,21.035a67.654,67.654,0,0,1,19.741,3.351,66.752,66.752,0,0,1-19.741,24.385ZM870.3,377.873V409.66a66.484,66.484,0,0,1-21.388-4.575A66.5,66.5,0,0,1,870.3,377.873Zm-7.565.364a70.852,70.852,0,0,0-17.972,25.047,66.567,66.567,0,0,1-12.541-7.78A53.87,53.87,0,0,1,862.735,378.236Zm-33.375,20.77a71.147,71.147,0,0,0,13.759,8.5,71.9,71.9,0,0,0-3.995,23.435l-20.521.01A53.364,53.364,0,0,1,829.36,399.007Zm-10.587,36.472,20.49-.01a71.176,71.176,0,0,0,5,22.606,70.035,70.035,0,0,0-13.194,7.647A53.366,53.366,0,0,1,818.773,435.478Z" transform="translate(-814.078 -372.849)"/></g></g></g></svg>