<svg xmlns="http://www.w3.org/2000/svg" xmlns:xlink="http://www.w3.org/1999/xlink" width="1366" height="707.29" viewBox="0 0 1366 707.29"><defs><style>.a,.aa,.ac{fill:none;}.b{clip-path:url(#a);}.c{fill:#d2c3db;}.d{fill:#eadff1;}.e{fill:#000;}.f{fill:#b3b3b3;}.g{fill:#ce521f;}.h{fill:#ebebeb;}.i{fill:#8e96a3;}.j{fill:#4f3b65;}.k{fill:#d0d1d6;}.l{fill:#3e59a0;}.m{fill:#947dce;}.n,.t{fill:#d8a35d;}.n{fill-rule:evenodd;}.o{fill:#999;}.p{fill:#ccc;}.q{fill:#2b2b2b;}.r{fill:gray;}.s{fill:#d29647;}.u{fill:#d19442;}.v{fill:#ffc84f;}.w{opacity:0.15;}.x{fill:#62548a;}.y{opacity:0.3;}.z{opacity:0.5;}.aa{stroke:#947dce;stroke-width:0.823px;}.aa,.ac{stroke-miterlimit:10;}.ab{fill:#dfeddf;}.ac{stroke:#313431;stroke-width:5.136px;}.ad{fill:#728ad6;}.ae{fill:#5f73b3;}.af{fill:#8fa0d6;}.ag{fill:#313431;}.ah{fill:#6c4e49;}.ai{fill:#4f3936;}</style><clipPath id="a"><rect class="a" width="1366" height="707.29" transform="translate(3.988 1728.956)"/></clipPath></defs><g transform="translate(-3.988 -1728.956)"><g class="b"><path class="c" d="M1369.988,1672.982v758.464l-242.228-67.587-32.991-6.262,1.636-558.092,30.118-25.56Z"/><path class="c" d="M320.284,1788.917l-16.051,556.371-300.044,74.4V1669.633l298.845,93.57Z"/><path class="d" d="M701.965,1752.517H277.358V2369.9h849.165V1752.517Z"/><path class="e" d="M3.988,1724.225c121.657,30.38,335.7,73.888,615,80.372,352.972,8.195,622.429-47.1,751-78.7v-62.455H3.988Z"/><path class="e" d="M3.988,2386.129c121.657-29.39,335.7-71.48,615-77.753,352.972-7.927,622.429,45.568,751,76.133v47.19l-1365.8,2.746Z"/><path class="f" d="M873.988,2230.445h-344l50-60h254Z"/><rect class="f" width="16" height="138" transform="translate(541.988 2230.445)"/><rect class="f" width="11" height="163" transform="translate(578.988 2170.445)"/><rect class="f" width="11" height="163" transform="translate(821.988 2170.445)"/><rect class="f" width="16" height="138" transform="translate(846.988 2230.445)"/><path class="g" d="M653.813,2144.7h0a.439.439,0,0,1-.259-.562l.356-.967.821.3-.356.966A.439.439,0,0,1,653.813,2144.7Z"/><path class="g" d="M658.388,2146.379h0a.438.438,0,0,1-.259-.561l.356-.967c.024-.065.817.311.817.311l-.352.958A.439.439,0,0,1,658.388,2146.379Z"/><path class="h" d="M653.725,2144.5h0a.437.437,0,0,1-.259-.561l.389-1.059a.439.439,0,0,1,.562-.259h0a.439.439,0,0,1,.259.562l-.39,1.058A.438.438,0,0,1,653.725,2144.5Z"/><path class="h" d="M658.291,2146.186h0a.438.438,0,0,1-.26-.561l.39-1.058a.438.438,0,0,1,.562-.259h0a.438.438,0,0,1,.259.561l-.39,1.058A.437.437,0,0,1,658.291,2146.186Z"/><rect class="i" width="2.868" height="1.859" transform="translate(652.624 2154.602) rotate(20.217)"/><rect class="i" width="2.868" height="1.859" transform="translate(653.85 2151.527) rotate(20.217)"/><path class="j" d="M784.616,2212.636H638.928a3.239,3.239,0,0,1-3.5-3.192v-2.183l15.947-29.468a5.078,5.078,0,0,1,4.547-2.818H767.41c2.08,0,6.668,4.1,7.6,5.958l13.156,26.82v.963C788.2,2211.509,786.39,2212.636,784.616,2212.636Z"/><path class="k" d="M784.629,2209.551H638.941c-1.618,0-4.281-1.419-3.281-3.163l15.728-31.679a5.077,5.077,0,0,1,4.547-2.819H767.423a5.492,5.492,0,0,1,4.912,3.037l15.569,31.155C789,2208.068,786.4,2209.551,784.629,2209.551Z"/><rect class="k" width="119.308" height="75.39" rx="4.362" transform="translate(651.365 2096.445)"/><rect class="l" width="110.104" height="65.326" transform="translate(655.946 2100.557)"/><path class="j" d="M732.9,2208.18H689.974a.774.774,0,0,1-.764-.9l1.81-11.307a1.258,1.258,0,0,1,1.242-1.059h38.719a1.1,1.1,0,0,1,1.093.945l1.66,11.371A.839.839,0,0,1,732.9,2208.18Z"/><path class="m" d="M769.5,2192.585H652.862c-1.294,0-2.282-.5-2.077-1.046l4.918-13.2c.266-.712,1.7-1.236,3.374-1.236h105.2c1.49,0,2.755.47,2.97,1.1l4.509,13.275C771.935,2192.067,770.874,2192.585,769.5,2192.585Z"/><rect class="k" width="121.634" height="0.614" transform="translate(650.451 2179.377)"/><rect class="k" width="121.634" height="0.614" transform="translate(650.451 2182.449)"/><rect class="k" width="121.634" height="0.614" transform="translate(650.451 2186.135)"/><rect class="k" width="121.634" height="0.614" transform="translate(650.451 2189.514)"/><rect class="k" width="0.921" height="20.272" transform="translate(665.182 2174.484) rotate(17.439)"/><rect class="k" width="0.921" height="20.272" transform="translate(674.089 2174.484) rotate(17.439)"/><rect class="k" width="0.921" height="20.272" transform="translate(681.154 2174.484) rotate(17.439)"/><rect class="k" width="0.921" height="20.272" transform="translate(688.219 2174.484) rotate(17.439)"/><rect class="k" width="0.921" height="20.272" transform="translate(695.59 2174.484) rotate(17.439)"/><rect class="k" width="0.921" height="20.272" transform="translate(703.07 2174.253) rotate(10.978)"/><rect class="k" width="0.921" height="20.272" transform="translate(709.425 2174.156)"/><rect class="k" width="0.921" height="20.272" transform="translate(757.089 2174.76) rotate(-17.439)"/><rect class="k" width="0.921" height="20.272" transform="translate(748.489 2174.76) rotate(-17.439)"/><rect class="k" width="0.921" height="20.272" transform="translate(739.888 2174.76) rotate(-17.439)"/><rect class="k" width="0.921" height="20.272" transform="translate(731.288 2174.76) rotate(-17.439)"/><rect class="k" width="0.921" height="20.272" transform="translate(722.688 2174.76) rotate(-17.439)"/><rect class="k" width="0.921" height="20.272" transform="translate(714.087 2174.76) rotate(-17.439)"/><path class="n" d="M843.238,2183.83c-.595.75-9.249,7.8-11.468,12.524s-5.066,11.948-6.7,14.21c-1.917,2.66-1.01,3.836,1.531.891a51.2,51.2,0,0,0,5.018-6.98c.2-.481-1.382,2.545-3.351,5.744-2.093,3.4-4.573,7.013-3.984,7.432,1.142.814,7.83-8.742,8.707-10.534a49.856,49.856,0,0,1-2.376,4.7c-1.2,2.077-2.9,4.337-2.625,5,.441,1.05,4.671-3.762,6.992-8.165.179-.026-.128,1.556-3.235,6.6-.313.507-.578,1.989.9.495,3.115-3.146,4.686-4.268,6.839-9.681,2.1-5.278,3.133-11.569,5.811-14.943Z"/><path class="o" d="M816.669,2200.577l13.583,16.716a2.2,2.2,0,0,0,3.114.363l7.573-6.336a.582.582,0,0,0,.074-.068,2.261,2.261,0,0,0,.174-3.093L827.6,2191.444a2.2,2.2,0,0,0-3.112-.361L817.421,2197l-.5.42A2.26,2.26,0,0,0,816.669,2200.577Z"/><path class="p" d="M817.048,2200.207l13.693,16.651a2.271,2.271,0,0,0,3.2.31l7.383-6.1a2.267,2.267,0,0,0,.233-3.128l-13.693-16.651a2.271,2.271,0,0,0-3.2-.31l-7.383,6.1A2.267,2.267,0,0,0,817.048,2200.207Z"/><path class="q" d="M818.38,2200.161l11.827,14.381a1.962,1.962,0,0,0,2.762.268l6.375-5.267a1.957,1.957,0,0,0,.2-2.7l-11.826-14.381a1.961,1.961,0,0,0-2.762-.268l-6.376,5.267A1.957,1.957,0,0,0,818.38,2200.161Z"/><circle class="r" cx="0.759" cy="0.759" r="0.759" transform="translate(836.169 2212.318)"/><path class="n" d="M834.333,2193.137s-5.838,2.561-8.234,6.944c-1.424,2.6-2.1,2.289-2.473,2.684-1.253,1.312,2.193.85,3.785-1.224,1.294-1.686,4.933-1.571,6.038-2.467s3.612-3.862,3.473-4.879S834.333,2193.137,834.333,2193.137Z"/><path class="s" d="M978.7,2255.542s-10.215,105.4-5.871,107.213c7.792,3.306,38.308,14.118,4.664,11.742-17.283,1.042-16.015-2.82-16.285-6.092-.22-2.673.287-97-.423-104.336-.159-1.642-.255-2.636-.255-2.636Z"/><path class="t" d="M907.459,2245.686s55.168,89.918,52.257,93.616c-5.2,6.68-26.594,30.978,1.64,12.527,15.6-7.5,12.617-10.258,11.261-13.247-1.109-2.443-9.272-21.122-12.222-27.875-.66-1.513-37.823-75.172-37.823-75.172Z"/><path class="u" d="M949.23,1983.558s-.9,10.043,5.3,15.6-14.276,0-14.276,0,3.809-9.62,2.955-15.6S949.23,1983.558,949.23,1983.558Z"/><ellipse class="t" cx="10.83" cy="14.777" rx="10.83" ry="14.777" transform="translate(935.133 1957.899)"/><path class="m" d="M1016.6,2080.189c-.181,2.8-2.443,13.2-5.627,24.5-.937,3.373-1.966,6.82-3.043,10.176-1.308,4.089-2.69,8.029-4.089,11.509-2.715,6.745-5.495,11.763-7.922,12.742-8.177,3.291-69.916,7.807-82.609,1.753-.3-.223-.617-.461-.921-.724-4.763-3.875-9.929-11.525-12.669-18.691,0-.008-7.3-20.574-8.786-24.761a1.133,1.133,0,0,0-.041-.107c-.049-.164-.107-.321-.164-.469-.017-.057-.041-.107-.058-.164-7.683,26.234-28.126,83.851-44.661,102.1-1.735,1.917-9.723-8.835-9.723-8.835s-13.352-68.945,21.479-141.806c16.4-34.3,45.656-49.942,64.338-54.1,8.087-1.8,14.19-1.448,16.42.477a12.114,12.114,0,0,0,7.56,2.937,16.374,16.374,0,0,0,4.245-.387,21.072,21.072,0,0,0,4.5-1.53c.692-.321,1.1-.551,1.1-.551a43.835,43.835,0,0,1,11.434.683C1009.622,2003.223,1016.977,2074.093,1016.6,2080.189Z"/><path class="v" d="M910.481,2138.437a6.671,6.671,0,0,0,3.789,1.748c8.9.175,47.358.833,68.218-.366,7.36-.423,12.528-1.077,13.436-2.069,0,0,0,.03-.006.084-.054,1.15-.714,14.314-1.64,31.569-1.828,34.063,1.693,82.849,5.806,97.656.888,3.2-46.89-1.645-46.89-1.645-.133-35.152,3.2-96.864,1.048-99.63-2.621-3.365-6.87,50.916-11.742,96.339-18.921,4.936-48.882,1.939-48.536,0C898.077,2239.089,910.481,2138.437,910.481,2138.437Z"/><path class="w" d="M890.674,2095.951c.016.057.041.107.057.164.058.148.116.3.165.469.016.033.025.066.041.107,1.489,4.187,8.786,24.753,8.786,24.762,2.739,7.165,7.9,14.815,12.668,18.69-3.233-11.706-13.31-45.64-12.923-59.312C897.543,2094.009,890.674,2095.943,890.674,2095.951Z"/><path class="w" d="M1010.971,2104.687c-.937,3.373-1.966,6.82-3.043,10.176-1.308,4.089-2.69,8.029-4.089,11.509-24.177-28.949-10.99-68.312-10.99-68.312s10.217,34.172,10.324,35.135C1003.206,2093.54,1006.6,2098.468,1010.971,2104.687Z"/><path class="w" d="M946.8,1999.159c.033.979-.485,1.621-2.057,1.407-4.9-.666-10.439-.526-14.462,1.316a3.417,3.417,0,0,1-3.307-.139c-2.574-1.506-4.17-6-4.8-7.988a1.379,1.379,0,0,1-.066-.436c8.087-1.8,14.191-1.448,16.42.477a12.108,12.108,0,0,0,7.56,2.937A6.674,6.674,0,0,1,946.8,1999.159Z"/><path class="x" d="M970.607,2331.982c-.565-1.427-9.954,3.967-10.423,5.644s-17.152,16.068-13.659,21.458,27.164-13.567,28.957-14.738S971.717,2334.787,970.607,2331.982Z"/><path class="x" d="M960.6,2359.194c-.2-1.521,12.759.409,13.985,1.645s20.093,6.369,19.665,12.777-30.332,1.37-32.469,1.219S960.994,2362.185,960.6,2359.194Z"/><g class="y"><path d="M945.983,2140.525c-.145-.012-.289-.023-.43-.036C945.553,2140.489,945.706,2140.5,945.983,2140.525Z"/><path class="z" d="M945.983,2140.525c11.459.914,36.505-.706,36.505-.706,7.36-.423,12.528-1.077,13.436-2.069,0,0,0,.03-.006.084-.054,1.15-.714,14.314-1.64,31.569a8.433,8.433,0,0,1-1.2-.139,9.377,9.377,0,0,1-6.065-4.309,20.8,20.8,0,0,1-2.358-4.925C976.107,2143.773,949.654,2140.854,945.983,2140.525Z"/></g><path class="v" d="M941.893,1964.194s18.75,10.4,13.185-6.295C951.228,1946.351,929.1,1956.753,941.893,1964.194Z"/><path class="v" d="M944.611,1960.206s-10.491,6.225-9.478,12.469c0,0-2.314-18.643,8.117-19.111s14.47.538,13.543,20.252C956.793,1973.816,953.763,1958.134,944.611,1960.206Z"/><path class="v" d="M942.795,1953.685s.527-5.809,6.286-4.986,8.226,4.113,9.049,7.4,1.645,5.758,2.468,5.758c0,0-2.468,2.468-3.291,1.646,0,0,2.135,5.916-.577,10.773,0,0-1.068-7.483-5.181-8.306S942.795,1953.685,942.795,1953.685Z"/><path class="v" d="M943.322,1953.635s-4.113-2.468-8.226,3.29l-2.468,4.936s.823.823,2.468,0c0,0-.75,5.8.037,9.068l2.431-9.89Z"/><path class="n" d="M1070.061,2190.432c.431.7,7.095,7.6,8.506,11.855s3.1,10.711,4.262,12.807c1.364,2.465.47,3.376-1.4.6a44,44,0,0,1-3.569-6.467c-.119-.431.92,2.313,2.273,5.242,1.438,3.115,3.185,6.45,2.64,6.748-1.057.578-5.788-8.257-6.353-9.876a42.784,42.784,0,0,0,1.547,4.254c.81,1.895,2.036,4,1.729,4.537-.483.851-3.6-3.687-5.132-7.679-.151-.041-.05,1.34,2.087,5.96.214.465.29,1.757-.82.331-2.336-3-3.562-4.12-4.846-8.958-1.253-4.717-1.494-10.189-3.434-13.341Z"/><path class="n" d="M1077.652,2200.292s4.719,2.782,6.317,6.765c.949,2.368,1.554,2.167,1.836,2.543.935,1.247-1.958.5-3.1-1.431-.932-1.57-4.049-1.844-4.9-2.72s-2.687-3.664-2.465-4.518S1077.652,2200.292,1077.652,2200.292Z"/><line class="aa" x1="12.133" y2="126.868" transform="translate(906.703 2137.605)"/><line class="aa" x1="12.041" y2="124.659" transform="translate(918.836 2140.143)"/><line class="aa" x1="10.013" y2="123.788" transform="translate(932.634 2140.143)"/><line class="aa" x2="0.258" y2="25.641" transform="translate(953.984 2140.143)"/><line class="aa" x1="2.323" y2="126.296" transform="translate(964.244 2140.143)"/><line class="aa" x1="0.647" y2="127.355" transform="translate(976.748 2140.064)"/><line class="aa" x2="2.45" y2="128.087" transform="translate(988.037 2140.064)"/><path class="aa" d="M908.84,2151.635s68.323,3.225,86.375,0"/><path class="aa" d="M954.242,2165.784c-23.906,5.414-46.783-3.145-46.783-3.145"/><path class="aa" d="M953.984,2164.166s21.574,6.062,40.523.943"/><path class="aa" d="M906.284,2171.936s17.228,9.02,45.21,4.422"/><path class="aa" d="M904.874,2183.009s26.808,8.185,45.295,3.973"/><path class="aa" d="M903.459,2194.01s13.654,10.7,45.31,5.9"/><path class="aa" d="M901.814,2206.663a66.419,66.419,0,0,0,45.918,3.459"/><path class="aa" d="M900.283,2218.254s14.745,10.467,46.21,4.387"/><path class="aa" d="M898.683,2230.137s20.351,10.639,46.87,2.044"/><path class="aa" d="M897.4,2239.411s12.007,11.548,47.136,2.987"/><path class="aa" d="M895.893,2249.937s19.415,10.229,47.607,2.665"/><path class="aa" d="M954.964,2175.747s9.013,7.442,39.543,1.917"/><path class="aa" d="M955.2,2186.947s12.647,5.9,38.584,1.24"/><path class="aa" d="M954.584,2199.378s19.529,5.882,39.2,0"/><path class="aa" d="M954.3,2209.687s18.984,8.44,39.86,0"/><path class="aa" d="M953.984,2221.006s18.074,6.342,40.7,0"/><path class="aa" d="M953.692,2231.876s15.235,6.835,41.708,0"/><path class="aa" d="M953.692,2241.494s18.088,9.321,42.629.99"/><path class="aa" d="M953.257,2253.517a83.623,83.623,0,0,0,44.4.513"/><path class="m" d="M996.321,2038.29s-53.044-41.977-40.4-44.025,33.339,2.927,33.339,2.927c18.682,4.155,36.519,18.192,52.914,52.487,34.831,72.861,32.9,143.416,32.9,143.416s-8.065,10.819-9.723,8.835c-30.773-36.821-50.561-73.784-58.909-98.653S996.321,2038.29,996.321,2038.29Z"/><path class="ab" d="M1303.513,1926.4l-111.57,11.759v182.674s115.894,14.028,115.181,14.791,0-205.724,0-205.724l-.95-3.78Z"/><path class="ac" d="M1303.513,1926.4l-111.57,11.759v182.674s115.894,14.028,115.181,14.791,0-205.724,0-205.724l-.95-3.78Z"/><line class="ac" y2="189.205" transform="translate(1244.232 1935.618)"/><line class="ac" x2="110.049" y2="5.538" transform="translate(1194.104 2059.934)"/><line class="ac" y1="3.213" x2="110.049" transform="translate(1194.104 1994.418)"/><path class="ad" d="M1280.712,1915.177s-1.813.039,1.886,2.522c3.73,2.505,1.25-3.388,1.25-3.388l2.769.159s.891,1.2,1.748.735a5.955,5.955,0,0,1,2.6-.312l2,.621s1.05-3.508,1.689-2.529c.525.8,2.667-.371,4.3-1.047l2.061-.221c.873.428,1.424,1.424,2.331.387,1.233-1.409.04,2.505.618,1.511s1.971.273,2.785-2.366c.018-.057.036-.109.053-.157l.548-.06c.474,1.2.964,5.052,2.274,5.158,1.715.139,2.317-2.507,2.769-5.719l1.52-.173a9.054,9.054,0,0,1,.112,2.709c-.354,2.761,3.1,2.312,3.1,2.312s.1-2.917.62-3.639a18.228,18.228,0,0,1,2.519-2.136q1.334-.165,2.673-.335c.142.511.3,1.139.539,1.783.734,1.95.475,2.031,2.755,1.562s1.728,1.569,2.134-.252c.371-1.665.337-1.823.835-3.925l1.49-.21a33.243,33.243,0,0,0,1.333,3.145c1.624,3.215,2.819.718,4.8-1.63a30.018,30.018,0,0,0,1.952-2.738l.9-.147a2.117,2.117,0,0,1,.112.2c.72,1.391,1.788,3.811,3.561,2.525,1.409-1.023,1.855-3.184,2.151-3.719l.216-.038h0c.346.641.152,1.624,1.548,4.665s1.4.127,2.04-3.018a9.4,9.4,0,0,1,.963-2.5l.772-.148c-.695,21.555-.777,32.583-2.845,56.79-2.058,24.1-6.12,62.122-8.861,87.9-.547,5.14-.732,1.86-.531,6.36.013.29.019.507.02.665.046.323.1.674.15,1.065,1.4,10.013,4.481,32.829,5.021,45.313.107,2.626.71,2.912,1.017,11.764.391,11.283.147,36.022.7,45.612s4.281,19.626-.956,20.275c-2.486.309-16.1-5.779-21.869-6.252-2.825-.232-5.757,2.874-11.035.544-7.51-3.315-6.309-5.49-9.167-6.323-.281-.081-.3-.168-.3-.2a.8.8,0,0,1-.207.2c1.1-8.009-1.151-7.094.536-16.68,1.694-9.622,6.815-23.175,7.641-34.793.487-6.846.854-15.079,1.054-20.914.167-4.873.666-5.023,1.123-8.911.114-.965.3-1.728.459-2.646.76-4.293,1.661-8.639,2.486-12.841.2-1,.406-2.078.556-2.876.3-1.6.7-3.52.91-4.849a35.291,35.291,0,0,0,.4-7.733c-.019-.405-.056-.591-.086-.939s-.076-.661-.116-.982c-.02-.157-.047-.321-.065-.442-.035-.237-.1-.614-.133-.794a18.877,18.877,0,0,0-.464-1.907c-.16-.513-.171-.515-.324-.919-.57-.553-1.134-1.212-1.686-1.794-.217-.23-.445-.532-.7-.825-9.234-10.578-15.159-26.367-19.292-39.786-9.428-30.609-13.742-61.837-16.009-93.585l.365-.045Z"/><path class="ae" d="M1295.94,2007.293c.192,3.67.165,4.177,1.169,7.216,3.26,9.872,10.991,20.277,16.431,28.969.2.318.479.718.634.967,1.3,2.083,2.751,4.545,3.839,6.542a5.852,5.852,0,0,1,.664,1.508,12.41,12.41,0,0,1,.394,2.854c.034.4.041.795.044,1.306.014,2.436-.207,4.995-.249,7.465v.02c-.021,1.87-.294,4.1-.437,5.849-.167,2.052-.291,3.666-.307,5.642,0,.018,0,.033,0,.046.015.452,0,.776.044,1.25.24,2.782.571,5.711.881,8.481.068.612.173,1.545.221,1.966.233,2.022.433,3.7.664,5.622.078-1.793.208-3.812.279-5.471s.043.057.121-2.352.619-8.589.587-11.827-.4-5.132-.646-8.764c-.148-2.161-.616-6.538-.879-9.28-.119-1.25-.281-2.873-.461-4.272-.3-2.354-.385-3.515-.735-6.162-1.765-13.355-3.236-27.4-6.516-40.363-.015-.057-.02-.082-.035-.144-.2-.836-.258-.99-.462-1.934-3.575-16.53-4.429-33.783-7.311-50.354-2.256-12.969-2.994-26.567-4.1-39.775-.9.319-1.828-.337-2.719.623.034,17.493-.164,41.946-.019,57.958C1297.178,1986.548,1295.231,1993.727,1295.94,2007.293Z"/><path class="af" d="M1317.23,2085.291a9.381,9.381,0,0,0,.014,1.773c1.968,11.038-1.955-2.352,1.877,14.052,3.864,16.543,3.158,53.773,3.186,69.472-.129,8.533.188-6.213.091,3.455,7.058.84,14.284,3.879,21.477,6.454-.384-17.122-.9-32.274-.964-50.272s-2.554-39.3-5.417-57.792c-.829-5.356-.039-11.442.052-16.758.019-1.1.222-4.319.326-5.859,1.115-16.6,3.279-42.857,4.352-57.514,1.659-22.647,8.056-51.134,4.226-68.775-2.036-9.38-1.695-8.679-2.055-17.645-1.452,1.029-3.082.574-4.594,1.111-.51,2.565-.918,6.815-1.977,8.989-2.145,4.4-3.02,1.467-3.569-1.663-.235-1.342-.458-4.7-.6-6.379-2.773.349-5.524.826-8.262,1.209-.629,5.522-1.476,11.055-1.794,16.563,0,.006.011.022.011.03-.45,12.565-.713,25.7.051,37.891.765,12.216-1.979,18.3-2.353,31.872s.768,37.288,3.976,51.571a19.117,19.117,0,0,1,.418,3.611,12.022,12.022,0,0,1-.747,4.582,1.152,1.152,0,0,1-.07.164c-1.613,3.369-3.905,6.029-5.575,9.376a12.4,12.4,0,0,0-.522,1.247,22.532,22.532,0,0,0-1.011,3.452,34.876,34.876,0,0,0-.629,5.862c0,.056-.007.158-.006.2a.3.3,0,0,1,0,.051C1317.223,2078.942,1317.032,2081.868,1317.23,2085.291Z"/><path class="ae" d="M1322.769,1909.419c-3.06,1.137-6.373.155-9.234,2.2.591,16.939,2.363,46.974,4.208,61.246,2.168,16.758,2.717,22.255,3.563,34.659.848,12.427.334,21.073,2.213,32.5.734,4.468,1.058,6.759,1.73,10.652.385,2.231.411,2.682.7,4.63.012.08.012.11.018.16a48.907,48.907,0,0,1,.4,6.728c-.084,5.656-.1,16.081-.114,20.288s.165,1.907.2,3.637a14.151,14.151,0,0,0,.081,1.419c.052,1.231.175,2.685.231,4,2.15-.345,4.308-.809,6.487-1.006-.045-1.858-.033-.8-.095-3.062s.111,4.319-.057-1.481-1.263-23.018-1.868-29.429-.087-1.331-.479-6.108.516,6.842-.242-2.674c-.756-9.5-2.946-31.127-3.5-42.649s.579-20.847.282-31.087-.851-23.217-1.2-31.738-1.111-10.784-1.485-16.32-.865-9.55-1.172-12.926S1323.042,1911.874,1322.769,1909.419Z"/><path class="ag" d="M1340.039,2050.184c-8.25.471-16.374.693-24.347.965.452,1.365.841,2.757,1.247,4.144,7.273.121,14.7.57,22.2.41C1339.439,2053.864,1339.734,2052.023,1340.039,2050.184Z"/><path class="ag" d="M1315.511,2071.619c.737.234,1.552-.326,2.188-.793a4.138,4.138,0,0,0,.725-.794,3.655,3.655,0,0,0,.347-.547,10.024,10.024,0,0,0,1-3.434,34.252,34.252,0,0,0-.64-9.361c-.114-.614-.208-.992-.277-1.309-.131-.606-.158-.68-.282-1.175a2.007,2.007,0,0,0-1.418.11,1.19,1.19,0,0,0-.2.1,1.921,1.921,0,0,0-.237.129,8.129,8.129,0,0,0-1.8,1.565c-1.32,1.79-2.957,3.359-3.609,5.782C1310.324,2065.544,1312.125,2070.542,1315.511,2071.619Zm-1.953-11.039a20.538,20.538,0,0,1,3.728-4.278c.581-.6.5-.376,1.006-.422.3,2.778.52,5.478.573,8.241v.016c-.064,1.812-.425,3.675-1.845,4.45a1.158,1.158,0,0,1-.964.154C1312.85,2067.99,1312.086,2063.152,1313.558,2060.58Z"/><path class="ag" d="M1307.81,2058.675c-.125,1.626,1.754.841,2.5.356s3.257-2.209,3.965-2.626.171-.072.676-.324,1.226-.528,1.789-.791c.041-.141.057-.225.1-.378s.081-.329.126-.507.081-.332.134-.544.128-.534.191-.766c-.149-.017-.163-.012-.343-.026s-.426-.02-.683-.032c-1.315-.057-3.655-.126-4.692.573C1310.08,2054.609,1307.935,2057.048,1307.81,2058.675Zm3.318-3.8c.723-.639,3.74-1.736,5.138-.891-1.842,1.151-4.992,3.8-6.746,4.444S1310.406,2055.508,1311.128,2054.87Z"/><path class="ag" d="M1155.917,1925.332q.01.227.036.426a2.782,2.782,0,0,1,2.52-2.722l196.361-25.592s2.892-.837,3.33,2.091c.026-.275.037-.565.037-.877-.014-3.838-3.385-2.856-3.385-2.856l-196.354,25.933S1155.755,1921.849,1155.917,1925.332Z"/><path class="ah" d="M1155.953,1925.758c.351,2.985,2.792,2.19,2.792,2.19l196.071-24.257c1.287-.265,3.075-1.049,3.348-4.153v0c-.438-2.928-3.33-2.091-3.33-2.091l-196.361,25.592A2.782,2.782,0,0,0,1155.953,1925.758Z"/><path class="ag" d="M1345.124,1897.182a1.432,1.432,0,0,0-1.2-.606c-1.078.138-1.773,2.052-1.953,2.548-1.035,2.851-.365,6.524,1.182,6.742.334.048,1.007.124,2.048-.948.694-.025,1.316-.156,2.012-.181a3.957,3.957,0,0,1-1.5,2.027,3.513,3.513,0,0,1-3.992-.031c-.91-.678-1.082-1.7-1.318-3.089a8.148,8.148,0,0,1,.5-5.08c.356-.76,1.24-2.66,2.768-2.974,1.588-.326,2.683.925,2.562,1.386C1346.168,1897.224,1345.628,1897.093,1345.124,1897.182Z"/><path class="ag" d="M1330.892,1899.06a1.386,1.386,0,0,0-1.165-.6c-1.045.133-1.719,2.017-1.894,2.5-1,2.806-.354,6.424,1.146,6.643.324.047.976.124,1.986-.93.674-.024,1.276-.152,1.952-.175a3.9,3.9,0,0,1-1.456,1.994,3.366,3.366,0,0,1-3.872-.038c-.882-.67-1.049-1.674-1.278-3.046a8.129,8.129,0,0,1,.487-5c.345-.748,1.2-2.617,2.684-2.923,1.54-.318,2.6.916,2.485,1.369C1331.9,1899.1,1331.381,1898.973,1330.892,1899.06Z"/><path class="ag" d="M1317.087,1900.882a1.343,1.343,0,0,0-1.131-.593c-1.014.13-1.668,1.984-1.837,2.464-.975,2.763-.344,6.328,1.112,6.546.314.047.947.124,1.926-.913.654-.022,1.239-.146,1.894-.169a3.829,3.829,0,0,1-1.413,1.962,3.225,3.225,0,0,1-3.756-.044c-.856-.662-1.018-1.651-1.24-3a8.118,8.118,0,0,1,.472-4.925c.335-.737,1.168-2.576,2.6-2.875,1.494-.31,2.525.908,2.411,1.354C1318.069,1900.926,1317.561,1900.8,1317.087,1900.882Z"/><path class="ag" d="M1303.689,1902.65a1.3,1.3,0,0,0-1.1-.586c-.984.126-1.619,1.951-1.784,2.424-.946,2.72-.333,6.234,1.08,6.451.305.047.919.124,1.87-.9.635-.02,1.2-.142,1.838-.163a3.763,3.763,0,0,1-1.371,1.93,3.093,3.093,0,0,1-3.646-.05c-.832-.653-.989-1.628-1.2-2.96a8.107,8.107,0,0,1,.458-4.853c.326-.725,1.133-2.535,2.529-2.827,1.45-.3,2.45.9,2.34,1.339C1304.643,1902.7,1304.15,1902.567,1303.689,1902.65Z"/><path class="ag" d="M1286.272,1904.948a1.247,1.247,0,0,0-1.055-.577c-.946.121-1.557,1.909-1.715,2.372-.909,2.665-.32,6.112,1.038,6.328.293.047.884.124,1.8-.873.61-.019,1.156-.137,1.767-.156a3.671,3.671,0,0,1-1.318,1.889,2.928,2.928,0,0,1-3.505-.057c-.8-.643-.951-1.6-1.158-2.906a8.1,8.1,0,0,1,.44-4.757c.314-.71,1.09-2.484,2.432-2.766,1.394-.293,2.356.888,2.25,1.319C1287.189,1905,1286.715,1904.868,1286.272,1904.948Z"/><path class="ai" d="M1280.53,1905.706a1.235,1.235,0,0,0-1.041-.575c-.934.12-1.537,1.9-1.693,2.356-.9,2.646-.316,6.072,1.025,6.288.289.046.872.123,1.774-.867.6-.018,1.141-.135,1.744-.153a3.653,3.653,0,0,1-1.3,1.876,2.875,2.875,0,0,1-3.459-.06c-.789-.64-.939-1.59-1.143-2.888a8.092,8.092,0,0,1,.435-4.726c.309-.705,1.076-2.466,2.4-2.745,1.377-.29,2.326.884,2.221,1.311C1281.435,1905.754,1280.967,1905.627,1280.53,1905.706Z"/><path class="ad" d="M1210.609,1923.663s1.538-.353-1.588,2.711c-3.1,3.04-1.046-2.836-1.046-2.836l-2.294.728s-.733,1.278-1.435,1.031a4.422,4.422,0,0,0-2.115.253l-1.613.964s-.84-2.921-1.349-1.916c-.417.825-2.109.216-3.393-.05l-1.6.223c-.674.553-1.1,1.537-1.8.809-.943-.986-.031,2.2-.473,1.443s-1.5.624-2.118-1.513c-.014-.046-.027-.088-.04-.126l-.414.056c-.357,1.131-.725,4.569-1.707,4.907-1.276.438-1.722-1.725-2.056-4.4l-1.119.146a9.339,9.339,0,0,0-.083,2.343c.261,2.3-2.26,2.551-2.26,2.551a10.235,10.235,0,0,0-.449-2.981,9.474,9.474,0,0,0-1.811-1.333q-.951.116-1.9.224c-.1.457-.209,1.014-.381,1.6-.517,1.772-.335,1.793-1.934,1.813s-1.2,1.618-1.483.175c-.257-1.317-.233-1.456-.576-3.11-.342.035-.684.068-1.025.1-.228.774-.516,1.791-.912,2.844-1.1,2.936-1.912,1.09-3.247-.483a17.554,17.554,0,0,1-1.3-1.885l-.6.042c-.024.053-.048.112-.074.18-.475,1.259-1.179,3.41-2.339,2.676-.917-.58-1.206-2.241-1.4-2.619l-.14.008h0a32.17,32.17,0,0,1-1,4.014c-.9,2.676-.9.339-1.306-2.065a6.865,6.865,0,0,0-.613-1.825l-.489.017c.44,17.058.492,25.836,1.811,44.945,1.324,19.176,3.967,49.745,5.774,70.749.362,4.214.486,1.55.352,5.208-.009.235-.013.412-.013.54-.031.261-.064.545-.1.859-.926,8.054-2.948,26.252-3.3,36.265-.069,2.1-.461,2.255-.661,9.342-.253,9.021-.095,28.975-.45,36.576s-2.746,14.731.619,16.541c1.621.872,10.785-.665,14.819.43s10.557.331,14.9.43c.216.005.231-.066.228-.091a1.085,1.085,0,0,0,.159.233c-.847-7.315.889-5.927-.413-14.772-1.3-8.816-5.165-21.661-5.782-31.847-.362-5.986-.635-13.137-.783-18.191-.123-4.217-.493-4.409-.831-7.806-.083-.842-.218-1.519-.338-2.325-.559-3.765-1.219-7.577-1.822-11.245-.144-.876-.3-1.81-.405-2.5-.219-1.391-.507-3.057-.661-4.205a35.783,35.783,0,0,1-.292-6.608c.014-.344.041-.5.063-.794s.055-.558.084-.829c.014-.133.034-.271.047-.372.025-.2.073-.517.1-.669.075-.5.241-1.243.337-1.6.116-.429.124-.43.235-.767.415-.442.826-.977,1.23-1.447.16-.186.326-.434.514-.672,6.912-8.79,11.489-22.574,14.751-34.542,7.661-28.108,11.273-57.192,13.2-86.87l-.312.037Z"/><path class="ae" d="M1198.154,2008.753a19.837,19.837,0,0,1-.923,6.431c-2.549,8.737-8.456,17.7-12.5,25.017-.146.264-.352.595-.465.8-.949,1.724-2.005,3.755-2.793,5.4a5.082,5.082,0,0,0-.478,1.243,11.964,11.964,0,0,0-.284,2.4c-.024.334-.029.672-.031,1.1-.01,2.063.148,4.248.179,6.346v.014c.015,1.59.212,3.5.314,5,.121,1.757.21,3.139.222,4.819,0,.015,0,.028,0,.039-.011.382,0,.658-.032,1.057-.173,2.338-.411,4.789-.634,7.1-.049.511-.124,1.29-.159,1.641-.167,1.686-.31,3.082-.476,4.681-.056-1.527-.149-3.25-.2-4.662s-.03.043-.086-2-.442-7.321-.419-10.053.284-4.3.461-7.352c.106-1.817.441-5.49.629-7.8.086-1.052.2-2.419.332-3.595.219-1.981.277-2.962.529-5.194,1.277-11.307,2.349-23.282,4.762-34.459.011-.049.015-.071.026-.125.151-.725.192-.86.343-1.68,2.673-14.463,3.317-29.517,5.51-44.285,1.734-11.683,2.3-23.764,3.165-35.614.707.1,1.429-.67,2.129,0-.026,15.529.13,37.2.015,51.432C1197.177,1990.378,1198.716,1996.648,1198.154,2008.753Z"/><path class="af" d="M1182.039,2075.63a9.257,9.257,0,0,1-.01,1.508c-1.419,9.127,1.421-1.783-1.353,11.694-2.755,13.38-2.255,44.852-2.274,58.067s-.134-5.279-.065,2.886c-4.934-1.121-9.843-.452-14.593-.168.249-13.732.589-25.864.628-40.4s1.678-31.493,3.579-46.279c.554-4.315.026-9.347-.035-13.7-.013-.9-.148-3.538-.217-4.8-.742-13.577-2.172-34.921-2.877-46.765-1.084-18.2-5.2-40.407-2.747-55.039,1.318-7.868,1.1-7.247,1.33-14.535.946.572,2.015-.088,3.012.076.338,2,.609,5.387,1.314,6.982,1.436,3.249,2.025.7,2.4-1.969.159-1.144.31-3.951.4-5.354,1.89-.221,3.786-.334,5.693-.525.441,4.509,1.037,9,1.261,13.575a.089.089,0,0,0-.007.027c.317,10.491.5,21.5-.036,31.83s1.4,15.239,1.667,26.668-.546,31.45-2.808,43.34a18.614,18.614,0,0,0-.293,3,12.233,12.233,0,0,0,.523,3.876,1.482,1.482,0,0,0,.049.142c1.136,2.927,2.763,5.323,3.958,8.276.12.3.25.679.375,1.1a23.744,23.744,0,0,1,.729,3.014,35.79,35.79,0,0,1,.455,5.042c0,.048.005.135,0,.168s0,.034,0,.044C1182.044,2070.229,1182.183,2072.739,1182.039,2075.63Z"/><path class="ae" d="M1178.074,1927.04c2.179.382,4.57-1.086,6.661.112-.434,14.618-1.729,40.53-3.067,52.86-1.559,14.359-1.952,19.036-2.555,29.54-.6,10.487-.238,17.778-1.569,27.351-.518,3.723-.745,5.631-1.217,8.861-.269,1.846-.288,2.222-.492,3.834-.008.067-.008.092-.012.133a48.461,48.461,0,0,0-.279,5.6c.059,4.731.07,13.442.08,16.958a17.3,17.3,0,0,1-.139,3.017c-.024,1.441-.021.153-.057,1.176s-.122,2.221-.16,3.316c-1.491-.541-2.976-1.177-4.462-1.59.031-1.526.023-.654.065-2.512s-.075,3.546.039-1.215.86-18.883,1.273-24.144.06-1.1.329-5.03-.354,5.634.165-2.2,2.034-25.8,2.42-35.421-.4-17.356-.2-25.912.592-19.456.835-26.618.778-9.179,1.04-13.876.609-8.157.826-11.047S1177.881,1929.156,1178.074,1927.04Z"/><path class="ag" d="M1166.26,2044.634c5.543.785,11.18,1.379,16.9,2.028-.33,1.139-.613,2.3-.907,3.461-5.195-.332-10.345-.392-15.4-.951C1166.657,2047.658,1166.462,2046.145,1166.26,2044.634Z"/><path class="ag" d="M1186.38,2056.148c-.482-2.132-1.689-3.59-2.657-5.207a7.127,7.127,0,0,0-1.311-1.444,1.456,1.456,0,0,0-.172-.125.858.858,0,0,0-.144-.093,1.3,1.3,0,0,0-1.025-.177c-.088.413-.108.474-.2.98-.05.265-.118.58-.2,1.093a33.55,33.55,0,0,0-.459,7.884,10.414,10.414,0,0,0,.716,2.991,3.66,3.66,0,0,0,.25.494,3.934,3.934,0,0,0,.523.737c.461.454,1.052,1,1.588.869C1185.774,2063.529,1187.111,2059.376,1186.38,2056.148Zm-3.489,5.5a.791.791,0,0,1-.7-.212c-1.025-.777-1.286-2.386-1.332-3.928v-.014c.038-2.338.195-4.615.413-6.953.365.07.306-.127.727.42a19.348,19.348,0,0,1,2.719,3.9C1185.8,2057.178,1185.239,2061.273,1182.891,2061.647Z"/><path class="ag" d="M1186.19,2049c-.767-.661-2.486-.735-3.444-.762-.187,0-.365-.013-.5-.011s-.14,0-.248,0c.045.2.1.479.138.662l.1.471c.032.154.063.306.091.439s.04.205.069.327c.409.259.933.539,1.3.786s-.024-.083.495.319,2.377,2.05,2.929,2.52,1.963,1.283,1.869-.137S1187.293,2049.954,1186.19,2049Zm1.52,4.282c-1.306-.677-3.627-3.148-4.972-4.242,1.019-.64,3.239.477,3.775,1.071S1189.021,2053.964,1187.71,2053.285Z"/><path class="ai" d="M1162.932,1921.224c.159-.279.435-.672.78-.719.7-.1,1.158,1.317,1.276,1.684.681,2.116.24,5.218-.773,5.674-.218.1-.656.28-1.332-.4-.45.1-.851.111-1.3.215a2.289,2.289,0,0,0,.968,1.361,2.138,2.138,0,0,0,2.6-.734,5,5,0,0,0,.868-2.748,7.6,7.6,0,0,0-.331-4.03c-.235-.548-.815-1.915-1.814-1.87a1.94,1.94,0,0,0-1.662,1.611C1162.256,1921.458,1162.6,1921.249,1162.932,1921.224Z"/><path class="ai" d="M1172.416,1919.973c.163-.283.447-.682.8-.731.722-.1,1.188,1.332,1.309,1.7.7,2.141.246,5.284-.793,5.747-.223.1-.673.285-1.366-.4-.461.107-.872.113-1.332.22a2.319,2.319,0,0,0,.993,1.377,2.212,2.212,0,0,0,2.667-.748,5.033,5.033,0,0,0,.89-2.784,7.594,7.594,0,0,0-.339-4.08c-.241-.555-.836-1.938-1.86-1.891a1.98,1.98,0,0,0-1.7,1.634C1171.724,1920.21,1172.082,1920,1172.416,1919.973Z"/><path class="ag" d="M1182.143,1918.689c.167-.286.458-.691.821-.741.739-.1,1.218,1.347,1.342,1.723.716,2.168.252,5.351-.813,5.822-.229.1-.69.29-1.4-.4-.473.109-.9.116-1.366.225a2.338,2.338,0,0,0,1.018,1.393,2.289,2.289,0,0,0,2.736-.762,5.072,5.072,0,0,0,.913-2.82,7.617,7.617,0,0,0-.348-4.133c-.247-.561-.858-1.961-1.908-1.911a2.02,2.02,0,0,0-1.748,1.658C1181.433,1918.931,1181.8,1918.716,1182.143,1918.689Z"/><path class="ag" d="M1192.122,1917.372c.171-.29.47-.7.842-.752.759-.1,1.25,1.362,1.377,1.743.735,2.195.259,5.421-.835,5.9-.235.1-.708.3-1.437-.406-.485.111-.918.12-1.4.23a2.092,2.092,0,0,0,3.852.633,5.094,5.094,0,0,0,.937-2.858,7.608,7.608,0,0,0-.357-4.185c-.254-.569-.88-1.986-1.958-1.934a2.064,2.064,0,0,0-1.793,1.683C1191.393,1917.619,1191.769,1917.4,1192.122,1917.372Z"/><path class="ag" d="M1205.965,1915.546c.178-.3.487-.714.872-.768.786-.108,1.295,1.383,1.427,1.771.761,2.232.268,5.516-.864,6.005-.244.106-.734.3-1.489-.409-.5.113-.951.123-1.452.236a2.4,2.4,0,0,0,1.082,1.433,2.483,2.483,0,0,0,2.907-.8,5.128,5.128,0,0,0,.971-2.911,7.612,7.612,0,0,0-.37-4.259c-.263-.578-.912-2.019-2.028-1.963a2.126,2.126,0,0,0-1.857,1.717C1205.21,1915.8,1205.6,1915.574,1205.965,1915.546Z"/><path class="ag" d="M1210.762,1914.912c.18-.3.493-.718.883-.772.8-.11,1.311,1.39,1.444,1.78.77,2.245.271,5.549-.875,6.042-.247.107-.742.3-1.507-.411-.508.115-.962.125-1.469.24a2.413,2.413,0,0,0,1.095,1.44,2.524,2.524,0,0,0,2.943-.8,5.152,5.152,0,0,0,.982-2.93,7.606,7.606,0,0,0-.375-4.285c-.265-.581-.922-2.03-2.052-1.973a2.148,2.148,0,0,0-1.88,1.729C1210,1915.167,1210.393,1914.942,1210.762,1914.912Z"/><path class="ab" d="M95.5,1926.4l111.571,11.759v182.674s-115.895,14.028-115.182,14.791,0-205.724,0-205.724l.95-3.78Z"/><path class="ac" d="M95.5,1926.4l111.571,11.759v182.674s-115.895,14.028-115.182,14.791,0-205.724,0-205.724l.95-3.78Z"/><line class="ac" y2="189.205" transform="translate(154.778 1935.618)"/><line class="ac" x1="110.049" y2="5.538" transform="translate(94.858 2059.934)"/><line class="ac" x1="110.049" y1="3.213" transform="translate(94.858 1994.418)"/><path class="ad" d="M118.3,1915.177s1.812.039-1.887,2.522c-3.73,2.505-1.25-3.388-1.25-3.388l-2.769.159s-.891,1.2-1.748.735a5.951,5.951,0,0,0-2.6-.312l-2,.621s-1.05-3.508-1.689-2.529c-.525.8-2.666-.371-4.3-1.047l-2.061-.221c-.872.428-1.424,1.424-2.331.387-1.233-1.409-.04,2.505-.618,1.511s-1.971.273-2.785-2.366c-.018-.057-.035-.109-.052-.157l-.549-.06c-.473,1.2-.963,5.052-2.274,5.158-1.714.139-2.316-2.507-2.769-5.719l-1.519-.173a9.054,9.054,0,0,0-.113,2.709c.355,2.761-3.1,2.312-3.1,2.312s-.105-2.917-.621-3.639a18.161,18.161,0,0,0-2.519-2.136q-1.333-.165-2.673-.335c-.141.511-.3,1.139-.539,1.783-.734,1.95-.475,2.031-2.755,1.562s-1.728,1.569-2.134-.252c-.371-1.665-.337-1.823-.834-3.925q-.744-.1-1.49-.21a33.556,33.556,0,0,1-1.334,3.145c-1.624,3.215-2.818.718-4.8-1.63a29.757,29.757,0,0,1-1.951-2.738l-.9-.147c-.036.057-.073.121-.112.2-.719,1.391-1.788,3.811-3.56,2.525-1.41-1.023-1.855-3.184-2.152-3.719l-.215-.038h0c-.346.641-.151,1.624-1.548,4.665s-1.4.127-2.039-3.018a9.435,9.435,0,0,0-.964-2.5l-.771-.148c.694,21.555.776,32.583,2.844,56.79,2.059,24.1,6.121,62.122,8.862,87.9.546,5.14.731,1.86.53,6.36-.013.29-.019.507-.019.665-.047.323-.1.674-.151,1.065-1.4,10.013-4.481,32.829-5.021,45.313-.106,2.626-.71,2.912-1.017,11.764-.391,11.283-.146,36.022-.695,45.612s-4.281,19.626.955,20.275c2.487.309,16.1-5.779,21.87-6.252,2.825-.232,5.757,2.874,11.035.544,7.509-3.315,6.308-5.49,9.167-6.323.28-.081.3-.168.295-.2a.8.8,0,0,0,.207.2c-1.1-8.009,1.151-7.094-.536-16.68-1.694-9.622-6.814-23.175-7.641-34.793-.487-6.846-.854-15.079-1.053-20.914-.167-4.873-.667-5.023-1.124-8.911-.113-.965-.3-1.728-.459-2.646-.759-4.293-1.66-8.639-2.485-12.841-.2-1-.407-2.078-.557-2.876-.3-1.6-.7-3.52-.91-4.849a35.348,35.348,0,0,1-.4-7.733c.018-.405.056-.591.086-.939s.076-.661.115-.982c.02-.157.048-.321.065-.442.035-.237.1-.614.133-.794a18.577,18.577,0,0,1,.465-1.907c.159-.513.171-.515.323-.919.57-.553,1.134-1.212,1.686-1.794.218-.23.445-.532.7-.825,9.235-10.578,15.159-26.367,19.292-39.786,9.428-30.609,13.742-61.837,16.01-93.585l-.366-.045Z"/><path class="ae" d="M103.07,2007.293c-.192,3.67-.165,4.177-1.168,7.216-3.261,9.872-10.991,20.277-16.432,28.969-.2.318-.479.718-.634.967-1.3,2.083-2.75,4.545-3.839,6.542a5.923,5.923,0,0,0-.664,1.508,12.462,12.462,0,0,0-.393,2.854c-.035.4-.042.795-.045,1.306-.014,2.436.207,4.995.249,7.465v.02c.02,1.87.294,4.1.437,5.849.167,2.052.291,3.666.307,5.642,0,.018,0,.033,0,.046-.015.452,0,.776-.043,1.25-.241,2.782-.571,5.711-.881,8.481-.069.612-.173,1.545-.222,1.966-.233,2.022-.432,3.7-.664,5.622-.078-1.793-.208-3.812-.279-5.471s-.042.057-.121-2.352-.619-8.589-.587-11.827.4-5.132.646-8.764c.148-2.161.617-6.538.879-9.28.12-1.25.281-2.873.462-4.272.3-2.354.385-3.515.735-6.162,1.764-13.355,3.236-27.4,6.516-40.363.014-.057.019-.082.035-.144.2-.836.257-.99.462-1.934,3.574-16.53,4.428-33.783,7.311-50.354,2.255-12.969,2.993-26.567,4.1-39.775.906.319,1.828-.337,2.719.623-.034,17.493.165,41.946.019,57.958C101.832,1986.548,103.78,1993.727,103.07,2007.293Z"/><path class="af" d="M81.78,2085.291a9.3,9.3,0,0,1-.014,1.773c-1.967,11.038,1.956-2.352-1.876,14.052-3.865,16.543-3.159,53.773-3.186,69.472.128,8.533-.189-6.213-.092,3.455-7.057.84-14.283,3.879-21.476,6.454.383-17.122.9-32.274.964-50.272s2.553-39.3,5.416-57.792c.83-5.356.039-11.442-.052-16.758-.019-1.1-.222-4.319-.325-5.859-1.115-16.6-3.279-42.857-4.353-57.514-1.659-22.647-8.055-51.134-4.226-68.775,2.036-9.38,1.7-8.679,2.055-17.645,1.452,1.029,3.082.574,4.594,1.111.51,2.565.918,6.815,1.977,8.989,2.146,4.4,3.02,1.467,3.569-1.663.236-1.342.458-4.7.6-6.379,2.773.349,5.524.826,8.262,1.209.629,5.522,1.476,11.055,1.794,16.563,0,.006-.011.022-.011.03.45,12.565.714,25.7-.05,37.891-.765,12.216,1.978,18.3,2.352,31.872s-.768,37.288-3.975,51.571a19.046,19.046,0,0,0-.419,3.611,12.021,12.021,0,0,0,.748,4.582,1.141,1.141,0,0,0,.069.164c1.613,3.369,3.906,6.029,5.575,9.376a12.627,12.627,0,0,1,.523,1.247,22.767,22.767,0,0,1,1.011,3.452,34.977,34.977,0,0,1,.629,5.862c0,.056.007.158,0,.2a.29.29,0,0,0,0,.051C81.787,2078.942,81.979,2081.868,81.78,2085.291Z"/><path class="ae" d="M76.241,1909.419c3.06,1.137,6.373.155,9.234,2.2-.59,16.939-2.362,46.974-4.208,61.246-2.167,16.758-2.716,22.255-3.562,34.659-.848,12.427-.334,21.073-2.213,32.5-.735,4.468-1.058,6.759-1.73,10.652-.385,2.231-.411,2.682-.7,4.63-.012.08-.011.11-.018.16a49.217,49.217,0,0,0-.4,6.728c.085,5.656.1,16.081.114,20.288s-.165,1.907-.2,3.637a13.544,13.544,0,0,1-.081,1.419c-.052,1.231-.175,2.685-.231,4-2.149-.345-4.308-.809-6.487-1.006.045-1.858.033-.8.095-3.062s-.111,4.319.057-1.481,1.264-23.018,1.868-29.429.087-1.331.479-6.108-.516,6.842.242-2.674c.756-9.5,2.946-31.127,3.5-42.649s-.578-20.847-.282-31.087.851-23.217,1.2-31.738,1.111-10.784,1.484-16.32.866-9.55,1.173-12.926S75.969,1911.874,76.241,1909.419Z"/><path class="ag" d="M58.971,2050.184c8.25.471,16.374.693,24.348.965-.453,1.365-.842,2.757-1.248,4.144-7.273.121-14.7.57-22.2.41C59.571,2053.864,59.276,2052.023,58.971,2050.184Z"/><path class="ag" d="M87.7,2061.888c-.651-2.423-2.288-3.992-3.609-5.782a8.125,8.125,0,0,0-1.8-1.565,1.993,1.993,0,0,0-.237-.129,1.235,1.235,0,0,0-.2-.1,2.007,2.007,0,0,0-1.418-.11c-.123.495-.15.569-.282,1.175-.068.317-.163.695-.277,1.309a34.247,34.247,0,0,0-.639,9.361,10,10,0,0,0,1,3.434,3.651,3.651,0,0,0,.347.547,4.137,4.137,0,0,0,.725.794c.637.467,1.452,1.027,2.188.793C86.885,2070.542,88.687,2065.544,87.7,2061.888Zm-4.749,6.853a1.159,1.159,0,0,1-.965-.154c-1.419-.775-1.781-2.638-1.845-4.45v-.016c.053-2.763.271-5.463.574-8.241.5.046.424-.18,1,.422a20.482,20.482,0,0,1,3.728,4.278C86.924,2063.152,86.16,2067.99,82.955,2068.741Z"/><path class="ag" d="M87.446,2053.61c-1.037-.7-3.377-.63-4.692-.573-.257.012-.5.019-.682.032s-.194.009-.344.026c.063.232.138.554.191.766s.09.365.134.544.088.353.126.507.055.237.1.378c.563.263,1.283.539,1.789.791s-.033-.094.676.324,3.223,2.141,3.966,2.626,2.62,1.27,2.495-.356S88.93,2054.609,87.446,2053.61Zm2.044,4.813c-1.754-.648-4.9-3.293-6.746-4.444,1.4-.845,4.415.252,5.139.891S91.238,2059.068,89.49,2058.423Z"/><path class="ag" d="M243.094,1925.332c-.008.151-.019.293-.037.426a2.782,2.782,0,0,0-2.52-2.722L44.176,1897.444s-2.891-.837-3.33,2.091c-.025-.275-.037-.565-.037-.877.014-3.838,3.386-2.856,3.386-2.856l196.354,25.933S243.255,1921.849,243.094,1925.332Z"/><path class="ah" d="M243.057,1925.758c-.35,2.985-2.792,2.19-2.792,2.19l-196.07-24.257c-1.287-.265-3.076-1.049-3.349-4.153v0c.439-2.928,3.33-2.091,3.33-2.091l196.361,25.592A2.782,2.782,0,0,1,243.057,1925.758Z"/><path class="ag" d="M53.886,1897.182a1.432,1.432,0,0,1,1.2-.606c1.078.138,1.773,2.052,1.953,2.548,1.036,2.851.365,6.524-1.181,6.742-.334.048-1.007.124-2.048-.948-.695-.025-1.316-.156-2.013-.181a3.961,3.961,0,0,0,1.5,2.027,3.511,3.511,0,0,0,3.991-.031c.91-.678,1.083-1.7,1.318-3.089a8.146,8.146,0,0,0-.5-5.08c-.357-.76-1.241-2.66-2.768-2.974-1.589-.326-2.684.925-2.563,1.386C52.842,1897.224,53.382,1897.093,53.886,1897.182Z"/><path class="ag" d="M68.118,1899.06a1.387,1.387,0,0,1,1.165-.6c1.046.133,1.72,2.017,1.894,2.5,1,2.806.354,6.424-1.146,6.643-.324.047-.976.124-1.986-.93-.673-.024-1.276-.152-1.952-.175a3.905,3.905,0,0,0,1.457,1.994,3.364,3.364,0,0,0,3.871-.038c.883-.67,1.05-1.674,1.278-3.046a8.128,8.128,0,0,0-.486-5c-.346-.748-1.2-2.617-2.685-2.923-1.54-.318-2.6.916-2.485,1.369C67.106,1899.1,67.63,1898.973,68.118,1899.06Z"/><path class="ag" d="M81.924,1900.882a1.339,1.339,0,0,1,1.13-.593c1.014.13,1.668,1.984,1.838,2.464.974,2.763.343,6.328-1.112,6.546-.314.047-.948.124-1.927-.913-.654-.022-1.238-.146-1.894-.169a3.829,3.829,0,0,0,1.413,1.962,3.225,3.225,0,0,0,3.756-.044c.857-.662,1.019-1.651,1.241-3a8.125,8.125,0,0,0-.472-4.925c-.336-.737-1.168-2.576-2.606-2.875-1.494-.31-2.524.908-2.411,1.354C80.942,1900.926,81.45,1900.8,81.924,1900.882Z"/><path class="ag" d="M95.321,1902.65a1.3,1.3,0,0,1,1.1-.586c.985.126,1.62,1.951,1.784,2.424.946,2.72.333,6.234-1.079,6.451-.305.047-.92.124-1.871-.9-.634-.02-1.2-.142-1.838-.163a3.764,3.764,0,0,0,1.371,1.93,3.1,3.1,0,0,0,3.647-.05c.831-.653.989-1.628,1.2-2.96a8.11,8.11,0,0,0-.459-4.853c-.325-.725-1.133-2.535-2.528-2.827-1.451-.3-2.451.9-2.341,1.339C94.368,1902.7,94.861,1902.567,95.321,1902.65Z"/><path class="ag" d="M112.738,1904.948a1.248,1.248,0,0,1,1.055-.577c.947.121,1.557,1.909,1.715,2.372.91,2.665.321,6.112-1.038,6.328-.293.047-.884.124-1.8-.873-.61-.019-1.155-.137-1.767-.156a3.685,3.685,0,0,0,1.318,1.889,2.93,2.93,0,0,0,3.506-.057c.8-.643.951-1.6,1.158-2.906a8.09,8.09,0,0,0-.441-4.757c-.313-.71-1.09-2.484-2.431-2.766-1.395-.293-2.356.888-2.25,1.319C111.822,1905,112.3,1904.868,112.738,1904.948Z"/><path class="ai" d="M118.48,1905.706a1.236,1.236,0,0,1,1.041-.575c.934.12,1.537,1.9,1.693,2.356.9,2.646.316,6.072-1.024,6.288-.29.046-.873.123-1.775-.867-.6-.018-1.14-.135-1.744-.153a3.654,3.654,0,0,0,1.3,1.876,2.877,2.877,0,0,0,3.46-.06c.789-.64.938-1.59,1.143-2.888a8.1,8.1,0,0,0-.435-4.726c-.31-.705-1.076-2.466-2.4-2.745-1.376-.29-2.325.884-2.221,1.311C117.576,1905.754,118.044,1905.627,118.48,1905.706Z"/><path class="ad" d="M188.4,1923.663s-1.539-.353,1.588,2.711c3.1,3.04,1.045-2.836,1.045-2.836l2.295.728s.732,1.278,1.434,1.031a4.424,4.424,0,0,1,2.116.253l1.612.964s.84-2.921,1.349-1.916c.417.825,2.11.216,3.393-.05l1.6.223c.675.553,1.1,1.537,1.8.809.943-.986.03,2.2.473,1.443s1.5.624,2.118-1.513q.02-.069.039-.126l.414.056c.357,1.131.726,4.569,1.707,4.907,1.276.438,1.722-1.725,2.057-4.4l1.118.146a9.334,9.334,0,0,1,.083,2.343c-.26,2.3,2.261,2.551,2.261,2.551a10.228,10.228,0,0,1,.448-2.981,9.507,9.507,0,0,1,1.811-1.333q.953.116,1.9.224c.1.457.21,1.014.381,1.6.517,1.772.335,1.793,1.934,1.813s1.2,1.618,1.483.175c.257-1.317.233-1.456.577-3.11.342.035.683.068,1.025.1.228.774.516,1.791.912,2.844,1.1,2.936,1.912,1.09,3.246-.483a17.545,17.545,0,0,0,1.3-1.885l.6.042c.024.053.049.112.074.18.475,1.259,1.179,3.41,2.339,2.676.918-.58,1.207-2.241,1.4-2.619l.14.008h0a32.375,32.375,0,0,0,1,4.014c.9,2.676.9.339,1.306-2.065a6.865,6.865,0,0,1,.613-1.825l.49.017c-.441,17.058-.493,25.836-1.812,44.945-1.324,19.176-3.967,49.745-5.773,70.749-.363,4.214-.486,1.55-.353,5.208.009.235.013.412.013.54.031.261.064.545.1.859.926,8.054,2.949,26.252,3.3,36.265.07,2.1.462,2.255.661,9.342.254,9.021.1,28.975.451,36.576s2.745,14.731-.619,16.541c-1.622.872-10.785-.665-14.82.43s-10.556.331-14.9.43c-.216.005-.23-.066-.227-.091a1.13,1.13,0,0,1-.159.233c.846-7.315-.89-5.927.412-14.772,1.3-8.816,5.165-21.661,5.782-31.847.362-5.986.635-13.137.783-18.191.124-4.217.494-4.409.831-7.806.084-.842.219-1.519.338-2.325.559-3.765,1.22-7.577,1.822-11.245.144-.876.3-1.81.406-2.5.218-1.391.506-3.057.66-4.205a35.612,35.612,0,0,0,.292-6.608c-.014-.344-.041-.5-.062-.794s-.055-.558-.084-.829c-.014-.133-.034-.271-.047-.372-.026-.2-.074-.517-.1-.669-.074-.5-.24-1.243-.336-1.6-.117-.429-.125-.43-.236-.767-.415-.442-.826-.977-1.23-1.447-.159-.186-.326-.434-.513-.672-6.912-8.79-11.489-22.574-14.752-34.542-7.661-28.108-11.273-57.192-13.2-86.87l.312.037Z"/><path class="ae" d="M200.857,2008.753a19.835,19.835,0,0,0,.922,6.431c2.55,8.737,8.456,17.7,12.5,25.017.146.264.352.595.466.8.948,1.724,2.005,3.755,2.792,5.4a5.094,5.094,0,0,1,.479,1.243,12.035,12.035,0,0,1,.283,2.4c.024.334.03.672.032,1.1.01,2.063-.149,4.248-.179,6.346v.014c-.014,1.59-.211,3.5-.314,5-.121,1.757-.21,3.139-.222,4.819,0,.015,0,.028,0,.039.011.382,0,.658.031,1.057.173,2.338.411,4.789.634,7.1.05.511.125,1.29.16,1.641.167,1.686.31,3.082.476,4.681.055-1.527.149-3.25.2-4.662s.031.043.087-2,.442-7.321.419-10.053-.284-4.3-.462-7.352c-.1-1.817-.441-5.49-.629-7.8-.086-1.052-.2-2.419-.332-3.595-.218-1.981-.277-2.962-.529-5.194-1.277-11.307-2.349-23.282-4.762-34.459-.011-.049-.015-.071-.026-.125-.151-.725-.191-.86-.343-1.68-2.673-14.463-3.317-29.517-5.509-44.285-1.734-11.683-2.305-23.764-3.166-35.614-.706.1-1.429-.67-2.129,0,.027,15.529-.129,37.2-.015,51.432C201.834,1990.378,200.294,1996.648,200.857,2008.753Z"/><path class="af" d="M216.971,2075.63a9.491,9.491,0,0,0,.01,1.508c1.419,9.127-1.421-1.783,1.354,11.694,2.755,13.38,2.255,44.852,2.274,58.067s.133-5.279.065,2.886c4.933-1.121,9.843-.452,14.593-.168-.25-13.732-.59-25.864-.629-40.4s-1.677-31.493-3.578-46.279c-.555-4.315-.026-9.347.034-13.7.013-.9.148-3.538.217-4.8.742-13.577,2.173-34.921,2.878-46.765,1.083-18.2,5.2-40.407,2.747-55.039-1.318-7.868-1.1-7.247-1.331-14.535-.946.572-2.015-.088-3.012.076-.338,2-.608,5.387-1.313,6.982-1.437,3.249-2.026.7-2.4-1.969-.159-1.144-.309-3.951-.4-5.354-1.89-.221-3.786-.334-5.693-.525-.441,4.509-1.037,9-1.261,13.575a.127.127,0,0,1,.008.027c-.318,10.491-.5,21.5.035,31.83s-1.4,15.239-1.667,26.668.546,31.45,2.809,43.34a18.6,18.6,0,0,1,.292,3,12.233,12.233,0,0,1-.523,3.876,1.086,1.086,0,0,1-.049.142c-1.136,2.927-2.763,5.323-3.957,8.276-.121.3-.25.679-.376,1.1a23.744,23.744,0,0,0-.729,3.014,35.953,35.953,0,0,0-.454,5.042c0,.048-.006.135,0,.168a.358.358,0,0,1,0,.044C216.966,2070.229,216.828,2072.739,216.971,2075.63Z"/><path class="ae" d="M220.937,1927.04c-2.18.382-4.571-1.086-6.661.112.433,14.618,1.728,40.53,3.066,52.86,1.559,14.359,1.952,19.036,2.556,29.54.6,10.487.237,17.778,1.568,27.351.518,3.723.746,5.631,1.217,8.861.27,1.846.288,2.222.492,3.834.008.067.008.092.013.133a48.451,48.451,0,0,1,.278,5.6c-.059,4.731-.069,13.442-.079,16.958a17.407,17.407,0,0,0,.138,3.017c.024,1.441.021.153.057,1.176s.122,2.221.161,3.316c1.491-.541,2.975-1.177,4.461-1.59-.031-1.526-.022-.654-.065-2.512s.076,3.546-.038-1.215-.861-18.883-1.274-24.144-.059-1.1-.328-5.03.353,5.634-.166-2.2-2.034-25.8-2.42-35.421.4-17.356.2-25.912-.592-19.456-.835-26.618-.777-9.179-1.04-13.876-.609-8.157-.825-11.047S221.129,1929.156,220.937,1927.04Z"/><path class="ag" d="M232.75,2044.634c-5.542.785-11.18,1.379-16.9,2.028.329,1.139.612,2.3.906,3.461,5.2-.332,10.345-.392,15.4-.951Q232.451,2046.9,232.75,2044.634Z"/><path class="ag" d="M215.722,2064.15c.537.134,1.128-.415,1.588-.869a3.982,3.982,0,0,0,.524-.737,3.661,3.661,0,0,0,.249-.494,10.453,10.453,0,0,0,.717-2.991,33.606,33.606,0,0,0-.459-7.884c-.082-.513-.15-.828-.2-1.093-.1-.506-.114-.567-.2-.98a1.292,1.292,0,0,0-1.024.177.906.906,0,0,0-.145.093,1.64,1.64,0,0,0-.172.125,7.124,7.124,0,0,0-1.311,1.444c-.967,1.617-2.175,3.075-2.657,5.207C211.9,2059.376,213.236,2063.529,215.722,2064.15Zm-1.429-9.289a19.35,19.35,0,0,1,2.719-3.9c.42-.547.362-.35.726-.42.219,2.338.375,4.615.413,6.953v.014c-.046,1.542-.306,3.151-1.332,3.928a.79.79,0,0,1-.7.212C213.771,2061.273,213.207,2057.178,214.293,2054.861Z"/><path class="ag" d="M210.018,2053.62c-.1,1.42,1.314.606,1.868.137s2.41-2.118,2.93-2.52.125-.072.5-.319.893-.527,1.3-.786c.03-.122.041-.194.069-.327s.059-.285.091-.439.059-.287.1-.471.092-.462.138-.662c-.108-.007-.118,0-.249,0s-.309.006-.495.011c-.959.027-2.677.1-3.444.762C211.718,2049.954,210.112,2052.2,210.018,2053.62Zm2.479-3.506c.537-.594,2.756-1.711,3.775-1.071-1.344,1.094-3.666,3.565-4.972,4.242S211.96,2050.709,212.5,2050.114Z"/><path class="ai" d="M236.079,1921.224c-.159-.279-.436-.672-.78-.719-.7-.1-1.159,1.317-1.277,1.684-.681,2.116-.239,5.218.773,5.674.218.1.657.28,1.332-.4.45.1.851.111,1.3.215a2.3,2.3,0,0,1-.969,1.361,2.138,2.138,0,0,1-2.6-.734,5.021,5.021,0,0,1-.868-2.748,7.607,7.607,0,0,1,.331-4.03c.235-.548.816-1.915,1.814-1.87a1.94,1.94,0,0,1,1.662,1.611C236.754,1921.458,236.4,1921.249,236.079,1921.224Z"/><path class="ai" d="M226.594,1919.973c-.163-.283-.447-.682-.8-.731-.721-.1-1.188,1.332-1.309,1.7-.7,2.141-.245,5.284.793,5.747.224.1.673.285,1.366-.4.461.107.872.113,1.332.22a2.314,2.314,0,0,1-.993,1.377,2.212,2.212,0,0,1-2.667-.748,5.042,5.042,0,0,1-.89-2.784,7.6,7.6,0,0,1,.339-4.08c.241-.555.837-1.938,1.86-1.891a1.982,1.982,0,0,1,1.705,1.634C227.286,1920.21,226.929,1920,226.594,1919.973Z"/><path class="ag" d="M216.867,1918.689c-.167-.286-.458-.691-.82-.741-.74-.1-1.219,1.347-1.343,1.723-.716,2.168-.252,5.351.814,5.822.229.1.69.29,1.4-.4.472.109.894.116,1.366.225a2.346,2.346,0,0,1-1.018,1.393,2.288,2.288,0,0,1-2.736-.762,5.057,5.057,0,0,1-.913-2.82,7.6,7.6,0,0,1,.348-4.133c.247-.561.858-1.961,1.908-1.911a2.021,2.021,0,0,1,1.748,1.658C217.577,1918.931,217.21,1918.716,216.867,1918.689Z"/><path class="ag" d="M206.889,1917.372c-.172-.29-.47-.7-.842-.752-.759-.1-1.25,1.362-1.378,1.743-.735,2.195-.258,5.421.835,5.9.235.1.708.3,1.437-.406.486.111.918.12,1.4.23a2.091,2.091,0,0,1-3.852.633,5.085,5.085,0,0,1-.936-2.858,7.6,7.6,0,0,1,.357-4.185c.253-.569.88-1.986,1.957-1.934a2.065,2.065,0,0,1,1.794,1.683C207.617,1917.619,207.241,1917.4,206.889,1917.372Z"/><path class="ag" d="M193.045,1915.546c-.177-.3-.487-.714-.872-.768-.786-.108-1.295,1.383-1.427,1.771-.761,2.232-.268,5.516.865,6.005.244.106.733.3,1.489-.409.5.113.95.123,1.452.236a2.4,2.4,0,0,1-1.082,1.433,2.484,2.484,0,0,1-2.908-.8,5.129,5.129,0,0,1-.97-2.911,7.6,7.6,0,0,1,.369-4.259c.263-.578.912-2.019,2.028-1.963a2.127,2.127,0,0,1,1.858,1.717C193.8,1915.8,193.41,1915.574,193.045,1915.546Z"/><path class="ag" d="M188.248,1914.912c-.18-.3-.493-.718-.882-.772-.8-.11-1.311,1.39-1.445,1.78-.77,2.245-.271,5.549.875,6.042.247.107.743.3,1.507-.411.509.115.962.125,1.47.24a2.418,2.418,0,0,1-1.1,1.44,2.524,2.524,0,0,1-2.943-.8,5.144,5.144,0,0,1-.982-2.93,7.612,7.612,0,0,1,.374-4.285c.266-.581.923-2.03,2.052-1.973a2.145,2.145,0,0,1,1.88,1.729C189.012,1915.167,188.617,1914.942,188.248,1914.912Z"/></g></g></svg>