<svg xmlns="http://www.w3.org/2000/svg" xmlns:xlink="http://www.w3.org/1999/xlink" width="1378" height="706.29" viewBox="0 0 1378 706.29"><defs><style>.a,.af,.ag,.k,.y{fill:none;}.b{clip-path:url(#a);}.c{fill:#d2c3db;}.d{fill:#eadff1;}.e{fill:#000;}.f,.m{fill:#d8a35d;}.f{fill-rule:evenodd;}.g{fill:#947dce;}.h{fill:#ffc84f;}.i{opacity:0.3;}.j{opacity:0.5;}.k{stroke:#947dce;stroke-width:1.407px;}.af,.ag,.k,.y{stroke-miterlimit:10;}.l{fill:#d19442;}.n{opacity:0.15;}.o{fill:#999;}.p{fill:#ccc;}.q{fill:gray;}.r{fill:#b3b3b3;}.s{fill:#ce521f;}.t{fill:#ebebeb;}.u{fill:#8e96a3;}.v{fill:#4f3b65;}.w{fill:#d0d1d6;}.x{fill:#b3aef5;}.y{stroke:#dad6f3;stroke-width:0.24px;}.z{fill:#a895ee;}.aa{fill:#dad6f3;}.ab{fill:#bdb5f3;}.ac{fill:#391841;}.ad{fill:#bd649a;}.ae{fill:#a03976;}.af,.ag{stroke:#282851;stroke-width:11.268px;}.ag{stroke-linecap:round;}.ah{stroke:none;}</style><clipPath id="a"><rect class="a" width="1378" height="706.29"/></clipPath></defs><g transform="translate(0 0.686)"><g transform="translate(0 -0.686)"><g class="b"><g transform="translate(4.139 -66.163)"><path class="c" d="M1372.52-57.407V699.984l-244.356-67.491-33.281-6.254,1.65-557.3,30.382-25.524Z" transform="translate(5.479 66.93)"/><path class="c" d="M323.176,58.36,306.984,613.944,4.3,688.237V-60.755l301.47,93.438Z" transform="translate(-4.101 66.934)"/><path class="d" d="M705.81,22.128H277.472V638.639H1134.1V22.128Z" transform="translate(-1.702 66.817)"/><path class="e" d="M4.1-6.249C126.829,24.088,342.751,67.535,624.5,74.009c356.072,8.182,627.9-47.036,757.6-78.587V-66.943H4.1Z" transform="translate(-4.103 66.943)"/><path class="e" d="M1382.1,654.008v47.123l-203.885.409-11.42.02-3.832.01-18.966.04-21.1.04-17.19.03-2.239.01-15.223.03-17.513.03-22.919.05-20.922.04-19.924.04L4.3,703.878l-.2-48.252c.07-.02.131-.03.2-.05a2771.813,2771.813,0,0,1,275.57-50.928q13.541-1.812,27.52-3.555a3116.351,3116.351,0,0,1,317.111-23.107,3175.683,3175.683,0,0,1,387.414,14.979q8.065.809,16.01,1.658,10.607,1.109,21,2.287,10.757,1.213,21.274,2.477,9.973,1.183,19.712,2.427,3.753.464,7.476.949,3.586.464,7.142.929,5.932.779,11.783,1.578,10.153,1.363,20.034,2.776a.693.693,0,0,1,.141.02c2.229.31,4.439.629,6.648.949q7.08,1.019,14.032,2.057c2.813.419,5.6.839,8.373,1.268C1257.518,626.337,1330.887,641.965,1382.1,654.008Z" transform="translate(-4.103 66.032)"/><g transform="translate(700.239 312.557)"><g transform="translate(0 284.556)"><path class="f" d="M741.284,543.712s-7.25-8.186-15.7-9.832c-5.025-.978-4.854-2.234-5.7-2.644-2.81-1.364-.258,4.008,3.982,5.532,3.446,1.238,5.151,7.223,7.2,8.562s8.232,3.892,9.832,3.143S741.284,543.712,741.284,543.712Z" transform="translate(-698.064 -531.016)"/><path class="f" d="M763.75,554.9c-1.542-.583-17.647-11.042-26.564-12.224s-22.287-2.1-26.854-3.585c-5.373-1.751-6.834.331-.67,2.952,4.007,1.7,12.248,4.427,14.091,4.576.894.072-4.906-.941-11.19-2.5-6.681-1.657-13.913-3.834-14.3-2.659-.745,2.278,18.452,8.247,21.857,8.753a86.853,86.853,0,0,1-8.971-1.448c-4.04-.88-8.643-2.5-9.595-1.7-1.5,1.258,8.617,5.669,17.066,7.181.136.279-2.626.592-12.538-1.869-1-.248-3.573.083-.345,1.723,6.793,3.451,9.457,5.431,19.48,6.149,9.774.7,20.658-.855,27.6,1.768Z" transform="translate(-698.244 -531.026)"/></g><path class="g" d="M756.28,566.5c7.833,3.034,64.711,13.359,116.92,2.008,32.952-7.15,64.031-22.953,79.754-54.674,40.63-82-54.309-128.507-54.309-128.507a1.713,1.713,0,0,0-.142.225c-4.115,6.152-92.61,137.582-154.016,158.092C744.486,543.649,743.508,561.546,756.28,566.5Z" transform="translate(-697.838 -246.254)"/><g transform="translate(302.624 271.796)"><path class="h" d="M1169.484,701.458l-11.42.02-3.832.01a109.031,109.031,0,0,1-18.674,3.6,102.951,102.951,0,0,1-21.153.03,84.558,84.558,0,0,1-17.433-3.525l-2.239.01c-.363-5.6-.727-11.314-1.069-17.046-.383-6.171-.747-12.383-1.11-18.534-.383-6.531-.757-12.992-1.12-19.3-.151-2.487-.3-4.953-.444-7.38q-.3-5.213-.605-10.206c-.585-9.656-1.16-18.624-1.725-26.463-.373-5.123-.737-9.766-1.11-13.8-.888-9.666-1.785-15.848-2.714-16.846-.353-.379-.676-.26-.979.3-.957,1.807-1.653,8.278-2.189,18.094-.181,3.385-.342,7.17-.484,11.3q-.119,3.34-.221,6.97c-.192,6.75-.353,14.21-.494,22.2-.041,2.756-.091,5.572-.131,8.448-.052,2.966-.091,5.992-.141,9.077-.091,6.93-.182,14.13-.282,21.48-.061,5.382-.132,10.855-.2,16.367-.062,5.093-.131,10.226-.2,15.368l-17.513.03-22.919.05-20.922.04-19.923.04c.211-3.914.423-7.979.626-12.143.333-6.581.666-13.441,1-20.451.3-6.551.615-13.231.918-19.942.141-3.305.293-6.611.434-9.916q.271-5.932.525-11.843c.272-6.411.535-12.752.8-18.933.232-5.372.444-10.615.656-15.688.04-1.128.091-2.257.131-3.365.232-5.572.443-10.915.646-15.937v-.05c.061-1.538.121-3.056.182-4.534.212-5.233.393-10.066.564-14.39.545-13.98.869-22.7.869-22.7a11.579,11.579,0,0,0,6.769,2.427c1.816-.12,4.338-.29,7.435-.489,3.712-.26,8.252-.579,13.4-.949h.01q3.662-.27,7.687-.569c.6-.05,1.19-.09,1.8-.13h.01c5.76-.439,11.974-.929,18.44-1.458,1.866-.15,3.764-.31,5.68-.469.545-.05,1.089-.09,1.644-.14h.01c4.025-.339,8.111-.689,12.205-1.058,5.156-.469,10.311-.949,15.364-1.448,2.1-.21,4.187-.419,6.235-.629,3.268-.34,6.476-.689,9.583-1.039h.04c3.087-.349,6.082-.709,8.948-1.068,2.4-.3,4.72-.6,6.93-.909.111-.01.222-.03.332-.04.939-.13,1.453-.21,1.453-.21,5.166-.739,9.685-1.488,13.326-2.237,1.06-.22,2.049-.439,2.957-.659.121-.04.252-.07.373-.1.2-.05.4-.1.6-.15.585-.15,1.119-.3,1.614-.449.565-.17,1.078-.34,1.533-.519.131-.05.262-.1.383-.15a9.571,9.571,0,0,0,1.14-.539,2.833,2.833,0,0,0,.868-.689v.15c.01.2.02.609.04,1.208.01.15.01.3.02.459.019.539.04,1.188.071,1.957.02.609.049,1.278.07,2.027.02.559.041,1.158.062,1.787.02.34.03.689.04,1.049,0,.09.01.17.01.26.01.34.019.689.04,1.049q.061,1.962.151,4.254.03.824.06,1.708c.03,1.049.071,2.137.111,3.265.05,1.418.1,2.906.151,4.454v.1c.009.2.009.409.02.619q.015.419.029.839c.021.509.031,1.019.051,1.528.02.569.04,1.148.061,1.728.02.519.03,1.049.05,1.588.121,3.435.242,7.08.363,10.9.03.629.05,1.268.071,1.907.051,1.288.091,2.6.131,3.914.081,2.387.161,4.843.241,7.34.152,4.613.373,9.387.657,14.27.343,5.782.767,11.733,1.271,17.765q.333,3.924.706,7.889c.888,9.487,1.946,19.123,3.127,28.639.039.329.08.659.131.989.766,6.141,1.584,12.223,2.441,18.184.908,6.291,1.855,12.452,2.835,18.394,1.029,6.241,2.087,12.243,3.147,17.915C1168.829,698.1,1169.151,699.8,1169.484,701.458Z" transform="translate(-998.233 -518.237)"/><g class="i" transform="translate(67.93 0.002)"><path d="M1066.313,530.285l-.742,0S1065.834,530.283,1066.313,530.285Z" transform="translate(-1065.571 -518.256)"/><path class="j" d="M1066.307,530.268c19.831-.121,62.639-6.542,62.639-6.542,12.587-1.8,21.373-3.666,22.786-5.487a1.345,1.345,0,0,1,0,.145c.076,1.964.888,24.457,1.847,53.95a14.718,14.718,0,0,1-2.09-.06c-4.5-.436-8.14-2.865-11.06-6.445a35.459,35.459,0,0,1-4.782-8.034C1118.564,531.387,1072.665,530.292,1066.307,530.268Z" transform="translate(-1065.565 -518.239)"/></g><g transform="translate(19.923 5.093)"><path class="k" d="M1019.647,529.287l-.04,4.573-.2,20.122-.212,22.458v.04l-.171,17.156v.919l-.161,16.656-.222,22.368-.05,5.782-.141,14.679-.2,20.89-.192,19.462-.071,7.38" transform="translate(-1017.983 -523.345)"/><path class="k" d="M1040.528,531.847l-.01.5-.03,3.675-.182,16.906-.212,19.552-.061,5.612-.182,17.405-.01,1.348-.172,16.1-.242,22.878-.04,3.545-.182,16.537-.212,20.461-.2,19.023-.071,6.351" transform="translate(-1017.8 -523.349)"/><path class="k" d="M1060.573,530.127v.629l.051,8.947.02,4.554.04,7.479.081,14.959.05,10.335.091,17.236.02,5.053.071,13.1.111,22.019.03,4.923.071,14.42.1,20.291.1,18.064.04,9.546" transform="translate(-1017.608 -523.346)"/><line class="k" x2="4.234" y2="43.587" transform="translate(62.445 5.118)"/><path class="k" d="M1113.5,705.134l-.242-3.555-.968-14.23-1.3-19.043-1.231-18.094-.746-10.855-.565-8.3-.1-1.458-1.291-18.993-.373-5.412-.817-12.033-1.483-21.739-1.322-19.333-.232-3.455-.172-2.526-.03-.409-.605-8.917-.081-1.188-.565-8.228-.02-.359-.03-.389" transform="translate(-1017.25 -523.341)"/><path class="k" d="M1134.491,705.1l-.293-3.565-1.261-15.388-1.533-18.773-1.443-17.675-1.322-16.2-.272-3.255-1.664-20.441-.01-.1-.141-1.738-1.281-15.7-1.735-21.26-1.987-24.226-.161-2.017-.03-.4-.484-5.932-1.1-13.461-.01-.08" transform="translate(-1017.089 -523.339)"/><path class="k" d="M1137.893,523.337l1.4,13.191.2,1.907.625,5.9,2.522,23.656.081.809v.01l2.129,19.952,1.876,17.615.484,4.613,1.6,15.079v.01l1.432,13.431.525,4.9,1.967,18.494,1.967,18.554,2.018,18.893.111,1.128" transform="translate(-1016.929 -523.337)"/></g><path class="k" d="M1004.653,554.639S1122.56,550.129,1153.11,542" transform="translate(-998.177 -518.271)"/><path class="k" d="M1084.785,572.111c-40.287,12.71-80.872,1.495-80.872,1.495" transform="translate(-998.183 -518.313)"/><path class="k" d="M1083.4,569.386s37.976,7.157,69.789-4.326" transform="translate(-997.485 -518.303)"/><path class="k" d="M1003.273,589.621s30.944,12.825,78.357.907" transform="translate(-998.189 -518.338)"/><path class="k" d="M1002.493,608.693s47.287,10,78.437.132" transform="translate(-998.196 -518.365)"/><path class="k" d="M1001.7,627.642s25.049,16.212,78.748,3.411" transform="translate(-998.203 -518.392)"/><path class="k" d="M1000.746,649.441s37.39,15.46,79.433-.834" transform="translate(-998.211 -518.421)"/><path class="k" d="M999.836,669.415s26.891,15.65,80.071.7" transform="translate(-998.219 -518.451)"/><path class="k" d="M998.851,689.89s36.552,15.123,80.86-3.381" transform="translate(-998.228 -518.475)"/><path class="k" d="M1086.771,588.975s16.592,11.343,68.248-2.524" transform="translate(-997.455 -518.333)"/><path class="k" d="M1088.816,608.022s22.609,8.182,66.5-3.536" transform="translate(-997.437 -518.359)"/><path class="k" d="M1089.587,629.289s34.434,7.15,67.376-5.736" transform="translate(-997.43 -518.386)"/><path class="k" d="M1090.618,646.895s33.877,11.581,68.51-5.833" transform="translate(-997.421 -518.411)"/><path class="k" d="M1091.733,666.225s32,8.146,69.959-5.956" transform="translate(-997.412 -518.438)"/><path class="k" d="M1092.829,684.788s27.195,9.4,71.685-6.1" transform="translate(-997.402 -518.464)"/><path class="k" d="M1167.652,696.627a111.367,111.367,0,0,1-10.542,3.974q-1.876.614-3.722,1.138a109.038,109.038,0,0,1-18.673,3.6,102.961,102.961,0,0,1-21.154.03,84.529,84.529,0,0,1-17.432-3.525c-1.231-.4-1.886-.669-1.886-.669" transform="translate(-997.39 -518.489)"/></g><path class="l" d="M992.2,301.2s3.469,16.873,16.449,22.935-23.6,6.975-23.6,6.975,1.549-17.6-2.813-26.965S992.2,301.2,992.2,301.2Z" transform="translate(-695.757 -246.132)"/><path class="m" d="M25.266.086C39.221.134,50.561,8.527,50.6,18.832S39.348,37.452,25.393,37.4.1,28.964.063,18.659,11.312.039,25.266.086Z" transform="translate(261.828 54.623) rotate(-68.921)"/><path class="g" d="M872.11,568.407c32.952-7.15,64.031-22.953,79.754-54.674.057.085.114.155.17.24.171.211.341.435.511.688a.715.715,0,0,1,.113.155c4.527,6.124,26.75,36.2,26.75,36.215,8.061,10.4,20.378,20.383,30.157,24.4.639.281,1.291.519,1.887.73,23.969,3.709,123.789-33.84,135.681-43.224,5.365-4.229,7.465-24.05,7.891-45.543.54-26.2-1.377-54.926-2.781-60.981-2.385-10.157-49.513-122.524-123.463-115.416a76.538,76.538,0,0,0-19.243,4.467s-.554.576-1.533,1.433a36.349,36.349,0,0,1-6.683,4.706,28.544,28.544,0,0,1-6.826,2.711,21.12,21.12,0,0,1-13.949-1.123c-4.626-2.051-14.9.351-27.374,7.248-17.328,9.566-38.941,27.815-55.615,54.786a1.713,1.713,0,0,0-.142.225,175.37,175.37,0,0,0-23.9,64.942A414.587,414.587,0,0,0,872.11,568.407Z" transform="translate(-696.748 -246.148)"/><path class="n" d="M951.142,513.974c.055.086.121.155.177.241.168.215.34.442.5.687.043.046.073.1.12.155,4.528,6.124,26.739,36.211,26.743,36.225,8.064,10.385,20.379,20.38,30.165,24.393-11.121-17.574-44.525-68.177-50.633-90.737C961.539,507.441,951.138,513.96,951.142,513.974Z" transform="translate(-696.022 -246.394)"/><path class="n" d="M996.139,327.948c.538,1.586,0,2.889-2.706,3.307-8.433,1.3-17.516,4.238-23.255,9.218a5.936,5.936,0,0,1-5.535,1.387c-5-1.205-9.854-7.775-11.883-10.724a2.321,2.321,0,0,1-.324-.681c12.478-6.9,22.742-9.3,27.376-7.241a21.088,21.088,0,0,0,13.946,1.112A11.392,11.392,0,0,1,996.139,327.948Z" transform="translate(-696.011 -246.165)"/><g transform="translate(270.996)"><g transform="translate(0 4.924)"><path class="h" d="M982.915,267.78s23.731,28.08,25.128-1.932C1009.011,245.083,966.948,248.071,982.915,267.78Z" transform="translate(-966.771 -250.989)"/><path class="h" d="M989.873,263.1s-20.749,3.475-22.993,14.046c0,0,7.843-31.126,24.924-25.466s22.957,9.743,9.234,40.587C1001.038,292.263,1005.89,265.415,989.873,263.1Z" transform="translate(-966.88 -250.988)"/></g><path class="h" d="M990.787,251.583s4.452-8.932,13.21-4.085,10.69,11.607,9.973,17.354-.925,10.187.4,10.692c0,0-5.5,2.417-6.318.6,0,0-.233,10.738-7.613,16.811,0,0,2.923-12.578-3.187-16.416S990.787,251.583,990.787,251.583Z" transform="translate(-966.67 -246.057)"/><path class="h" d="M991.866,251.83s-5.089-6.458-15.283.192l-7.034,6.348s.813,1.816,3.973,1.516c0,0-4.8,8.776-5.568,14.471L978,260.09Z" transform="translate(-966.871 -246.061)"/></g><g transform="translate(275.51 168.021)"><path class="o" d="M979,510.7l107.976,43.746a12.355,12.355,0,0,0,16.046-6.653l30.156-72.955a3.661,3.661,0,0,0,.189-.526,12.1,12.1,0,0,0-6.917-15.345l-107.976-43.746a12.334,12.334,0,0,0-16.034,6.661l-28.768,69.566-1.4,3.381A12.124,12.124,0,0,0,979,510.7Z" transform="translate(-971.355 -414.315)"/><path class="p" d="M980.578,506.8l107.976,43.746a12.334,12.334,0,0,0,16.034-6.661l28.767-69.566a12.1,12.1,0,0,0-6.917-15.345l-107.976-43.746a12.334,12.334,0,0,0-16.034,6.661l-28.768,69.566A12.1,12.1,0,0,0,980.578,506.8Z" transform="translate(-971.341 -414.315)"/><ellipse class="q" cx="9.497" cy="9.401" rx="9.497" ry="9.401" transform="translate(73.911 58.982)"/></g><path class="n" d="M1136.585,488.161s-10.355-40.714-115.079,4.9,89.3,1.462,89.3,1.462Z" transform="translate(-695.677 -246.375)"/><path class="n" d="M1089.113,385.33s-3.678,109.932,102.956,124.644l2.285.691L1186.78,487.3s-62.634-48.007-63.276-49.53S1089.113,385.33,1089.113,385.33Z" transform="translate(-694.811 -246.254)"/><g transform="translate(283.498 54.78)"><g transform="translate(0 196.811)"><path class="f" d="M1036.276,505.165c-1.418-.047-17.455-4.091-25.035-2.585s-18.7,4.461-22.832,4.515c-4.86.063-5.461,2.159.289,2.584,3.737.276,11.2.209,12.742-.18.747-.188-4.252.593-9.8,1.065-5.9.5-12.388.733-12.368,1.793.037,2.057,17.32,1.6,20.23,1.068a74.864,74.864,0,0,1-7.7,1.3c-3.532.4-7.728.362-8.276,1.274-.862,1.437,8.6,2.223,15.893,1.114.19.189-1.966,1.208-10.715,1.949-.88.074-2.879,1.055.206,1.495,6.495.926,9.217,1.8,17.564-.39,8.14-2.135,16.545-6.408,22.926-6.2Z" transform="translate(-979.273 -498.01)"/><path class="f" d="M1014.891,502.242s-8.2-4.646-15.536-3.645c-4.359.6-4.575-.472-5.379-.572-2.668-.331.922,3.328,4.8,3.394,3.149.053,6.224,4.445,8.265,4.966s7.788.886,8.876-.166S1014.891,502.242,1014.891,502.242Z" transform="translate(-979.152 -498.004)"/></g><path class="g" d="M1103.161,307.376c32.456,15.116,56.533,30.948,88.495,96.994,16.215,33.508,25.361,69.105,29.493,88.081A22.759,22.759,0,0,1,1211.683,516c-72.347,49.92-183.231.592-183.231.592-5.107-.335-.746-19.291-.746-19.291,44.228-13.567,78.629-22.268,118.044-19.257-.2-.03-54.171-54.1-64.2-70.454-26.283-42.89-78.759-71.219-73.82-92.534C1009.435,307.683,1070.423,292.128,1103.161,307.376Z" transform="translate(-979.026 -300.914)"/></g></g></g></g></g><g transform="translate(255.029 485.632)"><path class="r" d="M596.069,546.632h-344l50-60h254Z" transform="translate(-252.069 -486.632)"/><rect class="r" width="16" height="138" transform="translate(12 60)"/><rect class="r" width="11" height="163" transform="translate(49)"/><rect class="r" width="11" height="163" transform="translate(292)"/><rect class="r" width="16" height="138" transform="translate(317 60)"/></g><g transform="translate(361.046 411.932)"><path class="s" d="M375.894,460.881h0a.44.44,0,0,1-.259-.562l.356-.966.821.3-.356.967A.44.44,0,0,1,375.894,460.881Z" transform="translate(-357.51 -412.632)"/><path class="s" d="M380.469,462.566h0a.439.439,0,0,1-.259-.562l.356-.967c.024-.064.818.312.818.312l-.353.957A.439.439,0,0,1,380.469,462.566Z" transform="translate(-357.51 -412.632)"/><path class="t" d="M375.806,460.692h0a.439.439,0,0,1-.259-.562l.389-1.058a.439.439,0,0,1,.562-.259h0a.438.438,0,0,1,.259.561l-.389,1.058A.439.439,0,0,1,375.806,460.692Z" transform="translate(-357.51 -412.632)"/><path class="t" d="M380.372,462.373h0a.438.438,0,0,1-.259-.562l.389-1.058a.44.44,0,0,1,.562-.259h0a.439.439,0,0,1,.259.562l-.39,1.058A.438.438,0,0,1,380.372,462.373Z" transform="translate(-357.51 -412.632)"/><rect class="u" width="2.868" height="1.859" transform="translate(17.195 58.157) rotate(20.217)"/><rect class="u" width="2.868" height="1.859" transform="translate(18.421 55.081) rotate(20.217)"/><path class="v" d="M506.7,528.822H361.009a3.238,3.238,0,0,1-3.5-3.192v-2.183l15.947-29.467A5.074,5.074,0,0,1,378,491.161H489.491c2.081,0,6.668,4.1,7.6,5.959l13.156,26.819v.964C510.277,527.7,508.472,528.822,506.7,528.822Z" transform="translate(-357.51 -412.632)"/><path class="w" d="M506.71,525.737H361.022c-1.618,0-4.281-1.418-3.281-3.162l15.729-31.68a5.075,5.075,0,0,1,4.546-2.818H489.5a5.49,5.49,0,0,1,4.912,3.036l15.569,31.155C511.077,524.254,508.485,525.737,506.71,525.737Z" transform="translate(-357.51 -412.632)"/><rect class="w" width="119.308" height="75.39" rx="4.362" transform="translate(15.936)"/><rect class="x" width="110.104" height="65.326" transform="translate(20.517 4.112)"/><path class="v" d="M454.983,524.367H412.055a.774.774,0,0,1-.764-.9l1.81-11.307a1.258,1.258,0,0,1,1.242-1.059h38.719a1.106,1.106,0,0,1,1.094.946l1.659,11.371A.839.839,0,0,1,454.983,524.367Z" transform="translate(-357.51 -412.632)"/><path class="g" d="M491.581,508.772H374.943c-1.294,0-2.281-.5-2.077-1.047l4.919-13.2c.265-.712,1.7-1.236,3.373-1.236h105.2c1.49,0,2.755.47,2.971,1.1l4.508,13.275C494.016,508.253,492.955,508.772,491.581,508.772Z" transform="translate(-357.51 -412.632)"/><g transform="translate(15.022 77.711)"><rect class="w" width="121.634" height="0.614" transform="translate(0 5.222)"/><rect class="w" width="121.634" height="0.614" transform="translate(0 8.293)"/><rect class="w" width="121.634" height="0.614" transform="translate(0 11.979)"/><rect class="w" width="121.634" height="0.614" transform="translate(0 15.358)"/><rect class="w" width="0.921" height="20.272" transform="translate(14.731 0.328) rotate(17.439)"/><rect class="w" width="0.921" height="20.272" transform="translate(23.638 0.328) rotate(17.439)"/><rect class="w" width="0.921" height="20.272" transform="translate(30.703 0.328) rotate(17.439)"/><rect class="w" width="0.921" height="20.272" transform="translate(37.768 0.328) rotate(17.439)"/><rect class="w" width="0.921" height="20.272" transform="translate(45.139 0.328) rotate(17.439)"/><rect class="w" width="0.921" height="20.272" transform="translate(52.62 0.098) rotate(10.978)"/><rect class="w" width="0.921" height="20.272" transform="translate(58.974)"/><rect class="w" width="0.921" height="20.272" transform="translate(106.638 0.604) rotate(-17.439)"/><rect class="w" width="0.921" height="20.272" transform="translate(98.038 0.604) rotate(-17.439)"/><rect class="w" width="0.921" height="20.272" transform="translate(89.438 0.604) rotate(-17.439)"/><rect class="w" width="0.921" height="20.272" transform="translate(80.837 0.604) rotate(-17.439)"/><rect class="w" width="0.921" height="20.272" transform="translate(72.237 0.604) rotate(-17.439)"/><rect class="w" width="0.921" height="20.272" transform="translate(63.636 0.604) rotate(-17.439)"/></g></g><g transform="translate(385.185 418.002)"><path class="x" d="M475.09,418.651l-92.857.587a.718.718,0,0,0-.648.768v58.659a.715.715,0,0,0,.648.766l92.857.18a.724.724,0,0,0,.664-.773V419.421A.72.72,0,0,0,475.09,418.651Z" transform="translate(-381.585 -418.651)"/><line class="y" y2="50.716" transform="translate(20.156 4.295)"/><path class="z" d="M399.772,425.531l-16.149.088v-2.568l16.149-.094Z" transform="translate(-381.585 -418.651)"/><path class="z" d="M407.819,423.877l-4.874.028v-.966l4.874-.028Z" transform="translate(-381.585 -418.651)"/><path class="z" d="M407.819,425.68l-4.874.026v-.966l4.874-.027Z" transform="translate(-381.585 -418.651)"/><path class="z" d="M407.819,427.484l-4.874.025v-.966l4.874-.026Z" transform="translate(-381.585 -418.651)"/><path class="z" d="M407.819,429.288l-4.874.024v-.966l4.874-.025Z" transform="translate(-381.585 -418.651)"/><path class="z" d="M407.819,431.091l-4.874.023v-.966l4.874-.023Z" transform="translate(-381.585 -418.651)"/><path class="z" d="M407.819,432.895l-4.874.022v-.966l4.874-.022Z" transform="translate(-381.585 -418.651)"/><path class="z" d="M407.819,434.7l-4.874.02v-.966l4.874-.021Z" transform="translate(-381.585 -418.651)"/><path class="z" d="M407.819,436.5l-4.874.019v-.966l4.874-.02Z" transform="translate(-381.585 -418.651)"/><path class="z" d="M407.819,438.306l-4.874.018v-.966l4.874-.019Z" transform="translate(-381.585 -418.651)"/><path class="z" d="M407.819,440.109l-4.874.017v-.966l4.874-.017Z" transform="translate(-381.585 -418.651)"/><path class="z" d="M407.819,441.913l-4.874.016v-.966l4.874-.016Z" transform="translate(-381.585 -418.651)"/><path class="z" d="M407.819,443.716l-4.874.014v-.966l4.874-.015Z" transform="translate(-381.585 -418.651)"/><path class="z" d="M407.819,445.52l-4.874.013v-.966l4.874-.014Z" transform="translate(-381.585 -418.651)"/><path class="z" d="M407.819,447.324l-4.874.012v-.966l4.874-.013Z" transform="translate(-381.585 -418.651)"/><path class="z" d="M407.819,449.127l-4.874.011v-.966l4.874-.011Z" transform="translate(-381.585 -418.651)"/><path class="z" d="M407.819,450.931l-4.874.01v-.966l4.874-.01Z" transform="translate(-381.585 -418.651)"/><path class="z" d="M407.819,452.735l-4.874.008v-.966l4.874-.009Z" transform="translate(-381.585 -418.651)"/><path class="z" d="M407.819,454.538l-4.874.007v-.966l4.874-.008Z" transform="translate(-381.585 -418.651)"/><path class="z" d="M407.819,456.342l-4.874.006v-.966l4.874-.007Z" transform="translate(-381.585 -418.651)"/><rect class="z" width="4.874" height="0.966" transform="translate(21.36 38.531)"/><rect class="z" width="4.874" height="0.966" transform="translate(21.36 40.334)"/><rect class="z" width="4.874" height="0.966" transform="translate(21.36 42.137)"/><rect class="z" width="4.874" height="0.966" transform="translate(21.36 43.94)"/><rect class="z" width="4.874" height="0.966" transform="translate(21.36 45.743)"/><rect class="z" width="4.874" height="0.966" transform="translate(21.36 47.546)"/><rect class="z" width="4.874" height="0.966" transform="translate(21.36 49.349)"/><rect class="z" width="4.874" height="0.966" transform="translate(21.36 51.152)"/><rect class="z" width="4.874" height="0.966" transform="translate(21.36 52.955)"/><path class="z" d="M407.819,474.378l-4.874-.006v-.966l4.874.005Z" transform="translate(-381.585 -418.651)"/><path class="z" d="M407.819,476.181l-4.874-.007v-.966l4.874.007Z" transform="translate(-381.585 -418.651)"/><path class="aa" d="M399.772,439.772l-16.149.056v-2.568l16.149-.062Z" transform="translate(-381.585 -418.651)"/><path class="aa" d="M425.011,423.973l-16.261.092v-1.16l16.261-.094Z" transform="translate(-381.585 -418.651)"/><path class="aa" d="M416.734,434.855l-7.984.033v-1.16l7.984-.034Z" transform="translate(-381.585 -418.651)"/><path class="aa" d="M426.415,436.386l-12.948.051v-1.16l12.948-.053Z" transform="translate(-381.585 -418.651)"/><path class="aa" d="M428.9,425.76l-16.278.088v-1.16l16.278-.09Z" transform="translate(-381.585 -418.651)"/><path class="aa" d="M430.851,427.656l-16.286.083v-1.161l16.286-.086Z" transform="translate(-381.585 -418.651)"/><path class="aa" d="M430.851,429.368l-16.286.08v-1.161l16.286-.082Z" transform="translate(-381.585 -418.651)"/><path class="aa" d="M430.851,431.081l-16.286.076V430l16.286-.078Z" transform="translate(-381.585 -418.651)"/><path class="aa" d="M430.851,432.793l-16.286.072V431.7l16.286-.075Z" transform="translate(-381.585 -418.651)"/><path class="aa" d="M430.851,438.415l-16.286.06v-1.161l16.286-.062Z" transform="translate(-381.585 -418.651)"/><path class="aa" d="M430.851,440.127l-16.286.056v-1.161l16.286-.058Z" transform="translate(-381.585 -418.651)"/><path class="aa" d="M425.011,442.052l-16.261.052v-1.16l16.261-.054Z" transform="translate(-381.585 -418.651)"/><path class="aa" d="M416.734,452.913l-7.984.014v-1.16l7.984-.015Z" transform="translate(-381.585 -418.651)"/><path class="aa" d="M426.415,454.468l-12.948.019v-1.16l12.948-.021Z" transform="translate(-381.585 -418.651)"/><path class="aa" d="M428.9,443.848l-16.278.048v-1.16l16.278-.05Z" transform="translate(-381.585 -418.651)"/><path class="ab" d="M430.851,445.749l-16.286.043v-1.161l16.286-.046Z" transform="translate(-381.585 -418.651)"/><path class="aa" d="M430.851,447.461l-16.286.04V446.34l16.286-.042Z" transform="translate(-381.585 -418.651)"/><path class="aa" d="M430.851,449.173l-16.286.036v-1.161l16.286-.038Z" transform="translate(-381.585 -418.651)"/><path class="aa" d="M430.851,450.886l-16.286.032v-1.161l16.286-.035Z" transform="translate(-381.585 -418.651)"/><path class="aa" d="M430.851,456.507l-16.286.02v-1.161l16.286-.022Z" transform="translate(-381.585 -418.651)"/><rect class="ab" width="16.286" height="1.162" transform="translate(32.98 38.415)"/><path class="z" d="M399.772,429.392l-10.338.051v-2.57l10.338-.054Z" transform="translate(-381.585 -418.651)"/><path class="z" d="M388.489,429.447l-2.18.011v-2.569l2.18-.011Z" transform="translate(-381.585 -418.651)"/><path class="z" d="M399.772,432.652l-10.338.046v-2.57l10.338-.05Z" transform="translate(-381.585 -418.651)"/><path class="z" d="M388.489,432.7l-2.18.01v-2.569l2.18-.01Z" transform="translate(-381.585 -418.651)"/><path class="z" d="M399.772,435.912l-10.338.042v-2.57l10.338-.045Z" transform="translate(-381.585 -418.651)"/><path class="z" d="M388.489,435.957l-2.18.009V433.4l2.18-.01Z" transform="translate(-381.585 -418.651)"/><path class="z" d="M399.772,454.014l-16.149.025v-2.568l16.149-.031Z" transform="translate(-381.585 -418.651)"/><path class="z" d="M399.772,443.633l-10.338.031v-2.57l10.338-.034Z" transform="translate(-381.585 -418.651)"/><path class="z" d="M388.489,443.666l-2.18.006V441.1l2.18-.007Z" transform="translate(-381.585 -418.651)"/><path class="z" d="M399.772,446.893l-10.338.026v-2.57l10.338-.03Z" transform="translate(-381.585 -418.651)"/><path class="z" d="M388.489,446.922l-2.18.005v-2.569l2.18-.006Z" transform="translate(-381.585 -418.651)"/><path class="z" d="M399.772,450.153l-10.338.021V447.6l10.338-.025Z" transform="translate(-381.585 -418.651)"/><path class="z" d="M388.489,450.177l-2.18,0v-2.569l2.18-.005Z" transform="translate(-381.585 -418.651)"/><rect class="z" width="16.149" height="2.571" transform="translate(2.038 47.03)"/><path class="aa" d="M399.772,457.874l-10.338.01v-2.57l10.338-.014Z" transform="translate(-381.585 -418.651)"/><path class="aa" d="M388.489,457.886l-2.18,0v-2.569l2.18,0Z" transform="translate(-381.585 -418.651)"/><rect class="z" width="10.338" height="2.572" transform="translate(7.849 39.915)"/><rect class="z" width="2.18" height="2.569" transform="translate(4.725 39.921)"/><rect class="z" width="10.338" height="2.572" transform="translate(7.849 43.172)"/><rect class="z" width="2.18" height="2.569" transform="translate(4.725 43.176)"/><g transform="translate(30.083 28.956)"><path class="ac" d="M416.97,466.168s-.724,3.28,3.472,2.694,4.013-9.18,4.013-9.18l-1.12.109Z" transform="translate(-411.668 -447.607)"/><path class="ad" d="M413.406,460.558c-.055.164-1.655,6.057-.354,7.8s5.618-1.9,7.191-3.817,5.044-5.793,5.044-5.793a1.149,1.149,0,0,0-1.356-.71C422.847,458.207,413.406,460.558,413.406,460.558Z" transform="translate(-411.668 -447.607)"/><path class="ac" d="M418.426,456.349a3.671,3.671,0,0,0-1.275-.956s-.38-.848-.733-.274.19.765.407.6c0,0,.7.028.895.492S418.426,456.349,418.426,456.349Z" transform="translate(-411.668 -447.607)"/><path class="ac" d="M420.105,453.97s-1.137.33-.974-.818c.1-.705,1.275-.628,1.3,0v.356s1.248.273.868,2.513a3.141,3.141,0,0,1-.515,0C420.731,455.994,421.57,453.861,420.105,453.97Z" transform="translate(-411.668 -447.607)"/><path class="ae" d="M411.668,463.018s.38-7.763,9.443-7.106a10.124,10.124,0,0,1,4.067,2.622S412.591,464.057,411.668,463.018Z" transform="translate(-411.668 -447.607)"/><path class="ac" d="M424.781,455.873c.071-.049,4.011-6.46,1.626-7.881s-2.493,1.528-1.879,1.856c0,0-.037.437.216.583s.94-.291.723-.619-.768-.173-.768-.173-.75-1.749.7-1.6c1.2.12,1.8,1.157,1.075,3.2a36.234,36.234,0,0,1-2.088,4.5Z" transform="translate(-411.668 -447.607)"/><path class="ad" d="M425.964,470.9c-.145.092-5.384,2.671-7.378,1.811s.445-5.564,1.919-7.556,4.4-6.306,4.4-6.306a1.154,1.154,0,0,1,1.005,1.16C426,461.114,425.964,470.9,425.964,470.9Z" transform="translate(-411.668 -447.607)"/><path class="ac" d="M428.837,465s.995.543,1.222,1.021c0,0,.906.172.436.652s-.782-.005-.675-.256c0,0-.193-.683-.685-.759S428.837,465,428.837,465Z" transform="translate(-411.668 -447.607)"/><path class="ac" d="M430.734,462.8s-.05,1.19,1.017.76c.656-.264.3-1.395-.307-1.273l-.342.084s-.557-1.156-2.627-.256a3.3,3.3,0,0,0,.122.5C428.636,462.662,430.494,461.338,430.734,462.8Z" transform="translate(-411.668 -447.607)"/><path class="ae" d="M424,473.186s7.389-2.208,4.622-10.915a10.168,10.168,0,0,0-3.487-3.362S422.784,472.529,424,473.186Z" transform="translate(-411.668 -447.607)"/><path class="ac" d="M427.8,458.67c.03-.081,5.282-5.451,7.213-3.451s-.886,2.8-1.347,2.277c0,0-.412.139-.612-.074s.059-.989.426-.854.347.711.347.711,1.861.322,1.378-1.067c-.4-1.147-1.538-1.488-3.332-.3a35.73,35.73,0,0,0-3.846,3.106Z" transform="translate(-411.668 -447.607)"/><path class="ac" d="M420.841,455.895s3.926-.916,5.611.755c1.707,1.693,1.68,2.512,1.762,5.134Z" transform="translate(-411.668 -447.607)"/></g></g><g class="af" transform="translate(550.71 375.83)"><circle class="ah" cx="66.037" cy="66.037" r="66.037"/><circle class="a" cx="66.037" cy="66.037" r="60.403"/></g><line class="ag" x2="83.951" y2="75.943" transform="translate(662.679 485.195)"/><path class="g" d="M756.177,566.761c7.765,3.038,64.147,13.378,115.9,2.011,32.665-7.16,63.473-22.986,79.059-54.751C991.414,431.909,897.3,385.332,897.3,385.332a1.717,1.717,0,0,0-.141.225c-4.079,6.161-91.8,137.777-152.675,158.316C744.486,543.873,743.516,561.795,756.177,566.761Z" transform="translate(7.773 -0.744)"/></g></svg>