<svg xmlns="http://www.w3.org/2000/svg" width="138.252" height="154.542" viewBox="0 0 138.252 154.542"><defs><style>.a{fill:#040202;}.b{fill:#d0212a;}.c{fill:#e4c9ad;}.d{fill:#a72023;}.e{fill:#211b17;}.f{fill:#f3b919;}.g{fill:#fefefe;}</style></defs><path class="a" d="M396.866,443.7c-1.632-.4-3.223-.791-4.817-1.17a10.009,10.009,0,0,1-4.734-2.605c-3.024-2.949-3.236-6.4-1.058-10.008a12.042,12.042,0,0,1,7.276-5.255,33.149,33.149,0,0,1,15.424-.638c.142.024.285.038.5.068a7.084,7.084,0,0,0-.193-.935c-1.908-5.32,3.094-11.092,7.531-12.211a18.26,18.26,0,0,1,11.729,1.236,45.955,45.955,0,0,1,14.115,9.694,54.477,54.477,0,0,1,13.073,18.453,6.356,6.356,0,0,0,2.981,3.068,80.18,80.18,0,0,1,18.6,14.1c11.148,11.6,18.232,25.209,20.227,41.3a64.943,64.943,0,0,1-.558,17.7,61.417,61.417,0,0,1-4.314,15.2,46.386,46.386,0,0,1-16.006,19.9,71.283,71.283,0,0,1-8.584,5.459,70.257,70.257,0,0,1-21.2,6.665,94.184,94.184,0,0,1-59.877-9.742,57.035,57.035,0,0,1-15.816-12.024,43.359,43.359,0,0,1-7.717-12.047c-2.033-4.642-2.695-9.484-3.363-14.376-1.387-10.15.7-19.871,4.119-29.3a85.267,85.267,0,0,1,32.2-42.06C396.565,444.056,396.8,444,396.866,443.7Zm77.365,104.62a4.208,4.208,0,0,0,1.427-.772,43.929,43.929,0,0,0,10.751-12.107,24.72,24.72,0,0,0,3.517-7.74c.252-.648.5-1.3.757-1.944a49.044,49.044,0,0,0,2.841-12.837,11.66,11.66,0,0,0,.273-2.437,54.666,54.666,0,0,0-.9-16.216c-2.47-12.472-8.416-23.148-16.888-32.488a74.581,74.581,0,0,0-19.241-15.019,10.031,10.031,0,0,1-4.787-5.28c-.194-.51-.427-1.007-.667-1.5a54.287,54.287,0,0,0-19.4-21.658,24.789,24.789,0,0,0-8.541-3.764,9.934,9.934,0,0,0-7.169.808c-3.468,1.953-4.365,5.355-2.354,8.755a16.7,16.7,0,0,0,6.111,5.87c2.827,1.663,5.678,3.285,8.522,4.92,2.08,1.2,4.166,2.381,6.245,3.579.191.11.52.17.386.508-.129.322-.4.172-.628.126-.446-.089-.893-.178-1.342-.251a31.052,31.052,0,0,1-13.271-5.228c-2-1.427-4.017-2.842-6.009-4.286a5.631,5.631,0,0,0-2.664-1.076c-1.866-.235-3.718-.586-5.587-.8a25.424,25.424,0,0,0-11.94,1.2,7.535,7.535,0,0,0-4.828,4.748,3.01,3.01,0,0,0,.466,2.925,7.116,7.116,0,0,0,3.9,2.525,50.124,50.124,0,0,0,11.668,1.831c3.369.176,6.74.187,10.112.162a2.9,2.9,0,0,1,1.939.694c-2.372.336-4.606.7-6.852.956a18.476,18.476,0,0,0-7.4,2.3,69.142,69.142,0,0,0-12.754,9.36A84.483,84.483,0,0,0,367.9,487.244c-3.068,8.468-4.94,17.14-4.164,26.225.363,2.686.684,5.38,1.1,8.058a15.365,15.365,0,0,0,2.122,6.392c2.927,8.352,8.927,14.113,16,18.971a38.788,38.788,0,0,0,7.122,4.371,91,91,0,0,0,57.53,8.44,63.389,63.389,0,0,0,23.844-9.046A13.564,13.564,0,0,0,474.231,548.321Z" transform="translate(-359.652 -410.46)"/><path class="b" d="M364.465,514.172c-.776-9.085,1.1-17.757,4.164-26.225a84.482,84.482,0,0,1,22.026-33.055,69.144,69.144,0,0,1,12.754-9.36,18.476,18.476,0,0,1,7.4-2.3c2.247-.252,4.481-.62,6.852-.956a2.9,2.9,0,0,0-1.939-.694c-3.372.025-6.743.014-10.112-.162a50.124,50.124,0,0,1-11.668-1.831,7.117,7.117,0,0,1-3.9-2.525,3.01,3.01,0,0,1-.466-2.925,7.535,7.535,0,0,1,4.828-4.748,25.423,25.423,0,0,1,11.94-1.2c1.869.213,3.721.564,5.587.8a5.632,5.632,0,0,1,2.664,1.076c1.993,1.444,4,2.859,6.009,4.286a31.052,31.052,0,0,0,13.271,5.228c.449.073.9.162,1.342.251.231.046.5.2.628-.126.134-.337-.195-.4-.386-.508-2.079-1.2-4.165-2.383-6.245-3.579-2.844-1.635-5.695-3.257-8.522-4.92a16.7,16.7,0,0,1-6.111-5.87c-2.011-3.4-1.115-6.8,2.354-8.755a9.934,9.934,0,0,1,7.169-.808,24.79,24.79,0,0,1,8.541,3.764,54.287,54.287,0,0,1,19.4,21.658c.24.491.472.988.667,1.5a10.03,10.03,0,0,0,4.787,5.281,74.58,74.58,0,0,1,19.241,15.019c8.471,9.339,14.417,20.016,16.888,32.488a54.668,54.668,0,0,1,.9,16.216,11.663,11.663,0,0,1-.273,2.436c-.688.716-1.582.537-2.43.554-.151,0-.3-.007-.454,0a3.1,3.1,0,0,0-2.833,1.612,20.42,20.42,0,0,0-2.075,8.448,2.774,2.774,0,0,0,1.473,2.716c.9.493,1.813.965,2.72,1.447a24.718,24.718,0,0,1-3.517,7.74,43.93,43.93,0,0,1-10.751,12.107,4.212,4.212,0,0,1-1.427.772c-.39-.755-.788-1.506-1.168-2.266a39.377,39.377,0,0,0-11.146-13.974A34.313,34.313,0,0,0,454,527.8l-.177-1.034a26.8,26.8,0,0,0,3.993-.764,8.923,8.923,0,0,0,6.112-5.393A23.07,23.07,0,0,0,465.679,509a22.468,22.468,0,0,0-5.823-13.1c-.37-.409-.772-.8-1.409-.634-.219-.113-.4-.258-.077-.436a4.685,4.685,0,0,1,.845-.322c3.012-.935,6.128-1.519,9.057-2.743a1.126,1.126,0,0,0,.823-1.362,45.344,45.344,0,0,0-2.68-11.4c-.206-.542-.426-.609-.936-.4-1.749.7-3.52,1.336-5.274,2.02-9.336,3.64-18.537,7.611-27.785,11.464a3.9,3.9,0,0,1-3.454.047c-.191-.093-.4-.152-.593-.234-7.641-3.213-15.274-6.445-22.927-9.63a87.943,87.943,0,0,0-8.8-3.5c-1.318-.388-1.325-.39-1.913.885a23.472,23.472,0,0,0-1.36,3.861,28.03,28.03,0,0,0-1,6.918,1.224,1.224,0,0,0,1.071,1.388c2.256.606,4.477,1.342,6.712,2.023,1.807.55,1.808.548.66,2.046-.018.024-.033.051-.05.076a1.468,1.468,0,0,0-1.612.906c-.62,1.181-1.246,2.361-1.935,3.5a21.515,21.515,0,0,0-3.076,11.144c-.016,1.581.26,3.143.192,4.718a7.731,7.731,0,0,0,1.893,5.7c1.646,1.857,3.386,3.541,6.008,3.97a20.8,20.8,0,0,1,3.868.906c-2.154,1.182-4.43,2.121-6.56,3.357-7.127,4.138-12.833,9.559-15.867,17.42-7.069-4.859-13.069-10.619-16-18.971.66-.445,1.45-.3,2.166-.48a4.414,4.414,0,0,0,3.121-5.062,23.487,23.487,0,0,0-1.418-6.525,3.689,3.689,0,0,0-3.837-2.576C366.623,513.952,365.55,514.132,364.465,514.172Zm118.5,1.218c0-2.268.2-4.558-.563-6.756-.551-1.595-.953-3.272-2.264-4.487-1.057-.981-2.978-1.251-3.847-.512A9.6,9.6,0,0,0,473,508.857a30.5,30.5,0,0,0-1,9.488,10.129,10.129,0,0,0,1.708,5,4.342,4.342,0,0,0,5.917,1.342,7.2,7.2,0,0,0,3.335-5.745C483.02,517.762,482.968,516.575,482.968,515.39Zm-95.534,2.13a36.8,36.8,0,0,0-.809-7.6,10.557,10.557,0,0,0-2.98-5.8,2.8,2.8,0,0,0-4.507.542,17.976,17.976,0,0,0-2.442,9.354,23.4,23.4,0,0,0,.556,5.933c.393,1.7.869,3.357,2.45,4.5,2.347,1.692,6.837.774,7.374-2.658C387.327,520.184,387.353,518.545,387.434,517.521Z" transform="translate(-360.377 -411.163)"/><path class="c" d="M457.6,548.528a34.317,34.317,0,0,1,8.641,4.983,39.377,39.377,0,0,1,11.146,13.974c.38.76.778,1.511,1.168,2.266a13.568,13.568,0,0,1-2.776,2.335,63.39,63.39,0,0,1-23.844,9.046,91,91,0,0,1-57.53-8.44,38.789,38.789,0,0,1-7.122-4.371c3.034-7.861,8.74-13.282,15.867-17.42,2.129-1.236,4.406-2.175,6.559-3.357l.761-.012a2.682,2.682,0,0,0,.625,2.032,6.479,6.479,0,0,0,1.994,1.253,1.483,1.483,0,0,1,.87.964,26.3,26.3,0,0,0,8.392,12.44,76.416,76.416,0,0,0,11.573,7.736.913.913,0,0,0,1.077-.077c2.08-1.26,4.123-2.572,6.079-4.017,5.1-3.766,9.452-8.2,12.279-13.956a2.928,2.928,0,0,1,1.878-1.8c1.828-.473,2.782-1.509,2.352-3.492A.311.311,0,0,1,457.6,548.528Z" transform="translate(-363.971 -431.89)"/><path class="d" d="M364.5,532.522c1.086-.04,2.159-.22,3.255-.192a3.689,3.689,0,0,1,3.837,2.576,23.489,23.489,0,0,1,1.418,6.525,4.414,4.414,0,0,1-3.121,5.062c-.715.183-1.506.035-2.166.48a15.365,15.365,0,0,1-2.122-6.392C365.181,537.9,364.86,535.208,364.5,532.522Z" transform="translate(-360.409 -429.512)"/><path class="d" d="M513.29,546.69c-.907-.482-1.819-.954-2.72-1.447a2.774,2.774,0,0,1-1.473-2.716,20.418,20.418,0,0,1,2.075-8.448A3.1,3.1,0,0,1,514,532.467c.15-.01.3,0,.454,0,.848-.017,1.741.162,2.43-.554a49.043,49.043,0,0,1-2.841,12.837C513.786,545.391,513.542,546.042,513.29,546.69Z" transform="translate(-383.015 -429.447)"/><path class="e" d="M459.207,539.577a.31.31,0,0,0-.01.09c.43,1.983-.524,3.019-2.352,3.492a2.928,2.928,0,0,0-1.878,1.8c-2.828,5.755-7.18,10.19-12.279,13.956-1.956,1.444-4,2.757-6.079,4.017a.913.913,0,0,1-1.077.077,76.426,76.426,0,0,1-11.573-7.736,26.305,26.305,0,0,1-8.392-12.44,1.483,1.483,0,0,0-.87-.964,6.479,6.479,0,0,1-1.994-1.253,2.682,2.682,0,0,1-.625-2.032c1.472-2.585,2.933-5.177,4.425-7.751.313-.539.181-.737-.379-.883-.7-.183-1.393-.423-2.081-.662a14.3,14.3,0,0,1-9.24-15.94c.349-1.877.958-3.7,1.176-5.6.017-.025.031-.052.05-.076,1.148-1.5,1.147-1.5-.66-2.046-2.236-.681-4.456-1.417-6.712-2.023a1.224,1.224,0,0,1-1.071-1.388,28.031,28.031,0,0,1,1-6.918,23.481,23.481,0,0,1,1.36-3.861c.589-1.275.6-1.273,1.913-.885a87.954,87.954,0,0,1,8.8,3.5c7.653,3.185,15.285,6.417,22.927,9.63.2.082.4.141.593.234a3.9,3.9,0,0,0,3.454-.047c9.248-3.854,18.449-7.824,27.785-11.465,1.754-.684,3.525-1.323,5.274-2.02.51-.2.731-.137.936.4a45.341,45.341,0,0,1,2.68,11.4,1.126,1.126,0,0,1-.823,1.362c-2.928,1.223-6.045,1.808-9.057,2.743a4.68,4.68,0,0,0-.845.322c-.327.178-.143.323.077.435a5.589,5.589,0,0,0,.454,1.75,15.767,15.767,0,0,1,1.249,10.61c-1.023,4.708-3.4,8.383-8.031,10.294-.672.277-1.318.618-1.991.89-.562.228-.639.53-.334,1.045,1.355,2.295,2.689,4.6,4.03,6.905Zm-52.3-27.115a8.436,8.436,0,0,0-.236.964,12.269,12.269,0,0,0,8.792,13.235,20.356,20.356,0,0,0,4.589.651.884.884,0,0,0,.748-.232,22.565,22.565,0,0,0,1.945-1.9l2.128-1.494a34.475,34.475,0,0,1,8.75-4.805.7.7,0,0,0,.529-.44,9.321,9.321,0,0,0,.5-4.746c-.052-.257-.057-.564-.4-.645l-5.031-1.175c.261.737.528,1.345.689,1.979a4.775,4.775,0,0,1-3.524,5.889,4.854,4.854,0,0,1-5.717-3.826c-.082-.42-.106-.693.382-.939a.92.92,0,0,0,.315-1.528c-.386-.435-.169-.681.034-1.014a19.039,19.039,0,0,1,1.921-2.1,3.248,3.248,0,0,0-.373-.154c-4.432-1.171-8.865-2.331-13.293-3.517a.771.771,0,0,0-.96.416A10.575,10.575,0,0,0,406.9,512.462Zm56.77,2.363a10.752,10.752,0,0,0-2.191-7.073,1.021,1.021,0,0,0-1.282-.458c-3.985,1.067-7.986,2.08-11.982,3.111l-1.335.347a10.406,10.406,0,0,1,2.021,3.077,3.861,3.861,0,0,1-2.329,4.967,4.176,4.176,0,0,1-5.282-2.151c-.186-.467-.365-.843.4-1.071a.943.943,0,0,0,.285-1.627,1,1,0,0,1-.424-1.36c.14-.435.014-.556-.422-.438-1.172.316-2.349.613-3.521.931-.219.059-.483.082-.49.43a12.93,12.93,0,0,0,.382,4.959,1.138,1.138,0,0,0,.818.752,23.27,23.27,0,0,1,6.423,3.176c1.672,1.155,3.285,2.394,4.925,3.6.731.8,1.465,1.607,2.194,2.415a.509.509,0,0,0,.629.183,36.167,36.167,0,0,0,5.583-2.164C462.141,524.13,464.643,518.937,463.673,514.825Zm-26.958,30.738c1.871.072,3.834-.548,5.847-.818a67.48,67.48,0,0,0,11.964-2.751c1.92-.627,2.288-1.326,1.732-3.287a15.308,15.308,0,0,0-1.593-3.665,32.61,32.61,0,0,0-7.627-8.624,27.185,27.185,0,0,0-9.792-5.463,5.908,5.908,0,0,0-4.246.354,43.75,43.75,0,0,0-9.224,5.816,32.375,32.375,0,0,0-7.915,8.6,5.789,5.789,0,0,0-.858,3.388,1.182,1.182,0,0,0,.718,1.136c.875.421,1.736.868,2.647,1.214a66,66,0,0,0,10.1,2.732C431.136,544.754,433.762,545.578,436.715,545.563Zm-17.4-1.871c-.659-.163-.677.132-.562.575a6.687,6.687,0,0,0,.7,1.671c3.7,6.392,9.29,10.63,15.748,13.892a.847.847,0,0,0,.85-.013,37.87,37.87,0,0,0,11.991-9.039,28.408,28.408,0,0,0,3.6-5.356c.1-.2.353-.417.2-.653-.169-.255-.488-.188-.758-.17a2.783,2.783,0,0,0-.355.078c-3.6.727-7.215,1.368-10.787,2.2a13.832,13.832,0,0,1-7.871-.188c-1.431-.491-2.923-.807-4.395-1.172A54.868,54.868,0,0,0,419.317,543.691Z" transform="translate(-365.582 -422.938)"/><path class="d" d="M406.307,510.976c-.219,1.9-.827,3.725-1.176,5.6a14.3,14.3,0,0,0,9.24,15.94c.688.239,1.378.479,2.081.662.559.146.692.344.379.883-1.492,2.574-2.953,5.166-4.425,7.751l-.761.012a20.781,20.781,0,0,0-3.868-.906c-2.622-.429-4.362-2.113-6.008-3.97a7.731,7.731,0,0,1-1.893-5.7c.067-1.575-.208-3.137-.192-4.718a21.514,21.514,0,0,1,3.076-11.144c.689-1.141,1.315-2.32,1.935-3.5A1.468,1.468,0,0,1,406.307,510.976Z" transform="translate(-365.91 -426.172)"/><path class="d" d="M469.637,541.644c-1.341-2.3-2.675-4.611-4.03-6.905-.3-.516-.228-.818.334-1.045.673-.273,1.32-.613,1.991-.89,4.63-1.91,7.007-5.586,8.031-10.294a15.767,15.767,0,0,0-1.249-10.61,5.589,5.589,0,0,1-.454-1.75c.637-.161,1.039.225,1.409.634a22.468,22.468,0,0,1,5.823,13.1,23.07,23.07,0,0,1-1.749,11.605,8.924,8.924,0,0,1-6.112,5.393A26.825,26.825,0,0,1,469.637,541.644Z" transform="translate(-376.189 -426.04)"/><path class="d" d="M502.913,531.745c0,1.185.052,2.371-.011,3.553a7.2,7.2,0,0,1-3.335,5.744,4.342,4.342,0,0,1-5.917-1.342,10.129,10.129,0,0,1-1.708-5,30.5,30.5,0,0,1,1-9.488,9.6,9.6,0,0,1,3.293-5.222c.869-.739,2.79-.469,3.847.512,1.311,1.216,1.714,2.893,2.264,4.487C503.11,527.188,502.911,529.478,502.913,531.745Z" transform="translate(-380.322 -427.518)"/><path class="d" d="M389.731,533.877c-.081,1.024-.107,2.664-.358,4.266-.537,3.432-5.026,4.349-7.374,2.658-1.581-1.14-2.057-2.8-2.45-4.5a23.4,23.4,0,0,1-.556-5.933,17.977,17.977,0,0,1,2.442-9.354,2.8,2.8,0,0,1,4.507-.542,10.557,10.557,0,0,1,2.98,5.8A36.8,36.8,0,0,1,389.731,533.877Z" transform="translate(-362.674 -427.52)"/><path class="f" d="M439.94,551.2c-2.953.015-5.579-.809-8.25-1.365a66.011,66.011,0,0,1-10.1-2.732c-.91-.346-1.772-.793-2.646-1.214a1.182,1.182,0,0,1-.718-1.136,5.79,5.79,0,0,1,.858-3.388,32.376,32.376,0,0,1,7.915-8.6,43.75,43.75,0,0,1,9.224-5.816,5.909,5.909,0,0,1,4.246-.354,27.181,27.181,0,0,1,9.792,5.463,32.6,32.6,0,0,1,7.627,8.624,15.3,15.3,0,0,1,1.593,3.665c.556,1.961.188,2.66-1.732,3.287a67.466,67.466,0,0,1-11.964,2.751C443.775,550.656,441.811,551.275,439.94,551.2Z" transform="translate(-368.807 -428.579)"/><path class="g" d="M456.984,529.133c-1.64-1.2-3.253-2.442-4.925-3.6a23.272,23.272,0,0,0-6.423-3.176,1.138,1.138,0,0,1-.818-.752,12.93,12.93,0,0,1-.382-4.959c.007-.348.271-.371.49-.43,1.172-.317,2.349-.614,3.521-.931.436-.118.562,0,.422.438a1,1,0,0,0,.423,1.36.943.943,0,0,1-.285,1.627c-.763.228-.584.6-.4,1.071a4.176,4.176,0,0,0,5.282,2.151,3.861,3.861,0,0,0,2.328-4.967,10.4,10.4,0,0,0-2.021-3.077l1.335-.347c4-1.031,8-2.043,11.982-3.111a1.021,1.021,0,0,1,1.282.458,10.752,10.752,0,0,1,2.191,7.073c-.45.062-.424.411-.489.745a12.57,12.57,0,0,1-5.631,8.427A13.858,13.858,0,0,1,456.984,529.133Z" transform="translate(-372.898 -426.08)"/><path class="f" d="M423.23,553.582a54.874,54.874,0,0,1,8.356,1.83c1.471.365,2.964.681,4.395,1.172a13.831,13.831,0,0,0,7.87.188c3.572-.836,7.189-1.478,10.787-2.2a2.794,2.794,0,0,1,.355-.078c.269-.018.589-.084.758.17.157.236-.091.451-.2.653a28.409,28.409,0,0,1-3.6,5.356,37.871,37.871,0,0,1-11.991,9.039.847.847,0,0,1-.85.013c-6.457-3.262-12.051-7.5-15.748-13.892a6.685,6.685,0,0,1-.7-1.671C422.553,553.714,422.571,553.419,423.23,553.582Z" transform="translate(-369.495 -432.828)"/><path class="g" d="M408.63,515.492a10.576,10.576,0,0,1,1.787-5.376.771.771,0,0,1,.96-.416c4.428,1.186,8.861,2.346,13.293,3.517a3.209,3.209,0,0,1,.373.154,19.022,19.022,0,0,0-1.921,2.1c-.2.333-.419.58-.034,1.014a.92.92,0,0,1-.315,1.528c-.489.246-.464.519-.382.939a4.854,4.854,0,0,0,5.717,3.826,4.775,4.775,0,0,0,3.524-5.889c-.161-.634-.429-1.242-.689-1.979l5.031,1.175c.348.082.353.389.4.645a9.321,9.321,0,0,1-.5,4.747.7.7,0,0,1-.529.44,34.479,34.479,0,0,0-8.75,4.805l-2.127,1.494c-.149-.381-.489-.286-.778-.306a47.108,47.108,0,0,1-5.035-.556,11.616,11.616,0,0,1-9.029-8.934A6.048,6.048,0,0,0,408.63,515.492Z" transform="translate(-367.309 -425.969)"/><path class="c" d="M408.568,516.573a6.047,6.047,0,0,1,1,2.924,11.616,11.616,0,0,0,9.029,8.934,47.1,47.1,0,0,0,5.035.556c.289.02.628-.075.778.306a22.709,22.709,0,0,1-1.946,1.9.884.884,0,0,1-.748.232,20.356,20.356,0,0,1-4.589-.651,12.269,12.269,0,0,1-8.792-13.235A8.44,8.44,0,0,1,408.568,516.573Z" transform="translate(-367.247 -427.049)"/><path class="c" d="M459.32,530.541a13.857,13.857,0,0,0,7.886-2,12.569,12.569,0,0,0,5.631-8.426c.064-.334.039-.683.489-.745.969,4.112-1.532,9.306-5.6,11.6a36.158,36.158,0,0,1-5.582,2.164.509.509,0,0,1-.629-.183Q460.421,531.744,459.32,530.541Z" transform="translate(-375.234 -427.487)"/></svg>