<svg xmlns="http://www.w3.org/2000/svg" xmlns:xlink="http://www.w3.org/1999/xlink" width="599.812" height="416.149" viewBox="0 0 599.812 416.149"><defs><style>.a,.l{fill:none;}.b{fill:#eadff1;}.c{clip-path:url(#a);}.d{fill:#d19442;}.e,.k{fill:#d8a35d;}.f{fill:#947dce;}.g{fill:#ffc84f;}.h{opacity:0.15;}.i{opacity:0.3;}.j{opacity:0.5;}.k{fill-rule:evenodd;}.l{stroke:#947dce;stroke-miterlimit:10;stroke-width:1.093px;}.m{fill:#9c84d9;}.n{fill:#fff;}</style><clipPath id="a"><path class="a" d="M621.284,493.608C696.05,433.7,733.433,403.747,768.53,394c117.26-32.559,283.847,34.454,320.478,155.91,1.906,6.319,27.03,94.079-21.654,151.577-40.76,48.139-92.037,26.38-242.524,51.969-161.112,27.394-199.948,68.93-255.516,36.88-52.611-30.346-81.135-104.108-69.292-162.474C508.83,584.457,546.435,553.582,621.284,493.608Z" transform="translate(-497.362 -385.806)"/></clipPath></defs><g transform="translate(-497.362 -385.806)"><path class="b" d="M621.284,493.608C696.05,433.7,733.433,403.747,768.53,394c117.26-32.559,283.847,34.454,320.478,155.91,1.906,6.319,27.03,94.079-21.654,151.577-40.76,48.139-92.037,26.38-242.524,51.969-161.112,27.394-199.948,68.93-255.516,36.88-52.611-30.346-81.135-104.108-69.292-162.474C508.83,584.457,546.435,553.582,621.284,493.608Z" transform="translate(0 0)"/><g transform="translate(497.362 385.806)"><g class="c"><g transform="translate(135.878 50.785)"><path class="d" d="M747.943,472.531s-1.547,17.255,9.1,26.8-24.53,0-24.53,0,6.545-16.527,5.077-26.8S747.943,472.531,747.943,472.531Z" transform="translate(-564.289 -412.5)"/><ellipse class="e" cx="18.609" cy="25.389" rx="18.609" ry="25.389" transform="translate(159.431 15.944)"/><path class="f" d="M900.03,634.182c-.4,6.233-6.84,34.475-14.9,59.578-6.6,20.608-14.3,39.11-20.637,41.668-14.048,5.654-120.127,13.413-141.938,3.011-.508-.381-1.059-.791-1.583-1.244-8.183-6.658-17.06-19.8-21.766-32.113,0-.014-12.538-35.35-15.1-42.544-.029-.071-.043-.128-.071-.184-.085-.283-.184-.551-.282-.806-.028-.1-.071-.184-.1-.283-13.2,45.075-116.384,41.8-56.538-83.392,28.17-58.927,78.447-85.81,110.546-92.948,13.894-3.1,24.382-2.488,28.212.819a20.815,20.815,0,0,0,12.99,5.047,28.205,28.205,0,0,0,7.294-.665A36.353,36.353,0,0,0,793.9,487.5c1.187-.552,1.88-.947,1.88-.947a75.4,75.4,0,0,1,19.647,1.173C888.044,501.941,900.68,623.709,900.03,634.182Z" transform="translate(-600.622 -408.12)"/><path class="g" d="M845.111,851.627H771.985q.147-6.718.328-13.545c.154-6.219.328-12.484.5-18.681.186-6.571.372-13.086.548-19.437.175-6.089.339-12.023.493-17.717.416-16.086.7-30.289.645-40.6-.043-9.768-.393-16.042-1.236-17.116-.318-.4-.647-.329-1,.219-1.106,1.73-2.354,8.159-3.723,17.947-.733,5.2-1.488,11.356-2.277,18.255-.777,6.745-1.576,14.224-2.409,22.218-.581,5.606-1.172,11.476-1.785,17.543-.689,6.954-1.4,14.148-2.125,21.506q-.8,8.081-1.62,16.393-.64,6.471-1.281,13.019H675.524c.022-.2.044-.4.078-.6.711-5.071,1.445-10.4,2.2-15.932.9-6.571,1.817-13.415,2.748-20.412.865-6.537,1.752-13.217,2.628-19.918,1.8-13.677,3.581-27.507,5.257-40.637,1.609-12.56,3.11-24.485,4.445-35.008,3.088-24.573,5.191-41.578,5.191-41.578a8.46,8.46,0,0,0,.667.6.3.3,0,0,0,.056.044,9.64,9.64,0,0,0,2.311,1.38,14.335,14.335,0,0,0,3.481.974c1.807.034,4.314.078,7.4.132,5.475.1,12.746.2,21.09.285,6.242.066,13.086.12,20.2.142,1.861.012,3.734.022,5.616.012h.088c4.566.01,9.2.01,13.841-.012,7.293-.032,14.6-.109,21.6-.241,6.537-.12,12.834-.285,18.616-.515,2.508-.11,4.917-.219,7.216-.34.022.012.044,0,.066,0,.2-.01.383-.021.569-.032.581-.032.9-.054.9-.054,1.172-.066,2.3-.142,3.405-.22s2.169-.142,3.2-.229h.012c.853-.066,1.675-.132,2.474-.208.526-.044,1.051-.1,1.556-.154.251-.022.5-.044.744-.076s.493-.054.733-.076.482-.056.713-.078.46-.054.691-.087c.327-.034.645-.078.963-.122,1.226-.164,2.332-.328,3.317-.5a23.2,23.2,0,0,0,3.767-.953c.1-.032.2-.076.3-.12a4.424,4.424,0,0,0,.515-.23c.076-.044.153-.087.219-.12s.132-.088.186-.131a1.421,1.421,0,0,0,.3-.252,1.207,1.207,0,0,1-.012.142c0,.088-.01.23-.022.416-.01.241-.022.559-.044.952-.01.264-.021.559-.043.877-.034.6-.066,1.314-.1,2.123-.01.208-.022.417-.032.636a.55.55,0,0,0-.01.131c-.012.307-.034.625-.044.953s-.044.679-.056,1.029c-.032.645-.066,1.324-.11,2.037-.01.295-.022.6-.044.908q-.031.658-.065,1.348c-.022.307-.034.625-.044.953-.066,1.214-.132,2.5-.208,3.854-.032.679-.066,1.38-.11,2.091s-.065,1.446-.109,2.2c-.056,1.041-.11,2.114-.164,3.208-.088,1.676-.176,3.428-.274,5.235-.044.909-.1,1.829-.142,2.77-.11,2.147-.23,4.38-.35,6.68-.1,1.654-.176,3.351-.274,5.081-.054,1.117-.12,2.245-.175,3.383q-.2,3.6-.394,7.38c-.252,4.644-.438,9.439-.569,14.356-.493,17.422-.306,36.333.361,54.861.252,6.559.547,13.064.909,19.437s.767,12.636,1.226,18.681Q844.509,845.063,845.111,851.627Z" transform="translate(-580.999 -351.395)"/><path class="h" d="M666.645,626.712c.028.1.071.184.1.283.1.255.2.522.282.806.028.057.043.112.071.184,2.558,7.194,15.1,42.53,15.1,42.544,4.706,12.312,13.583,25.456,21.766,32.113-5.554-20.114-22.869-78.417-22.2-101.908C678.447,623.377,666.645,626.7,666.645,626.712Z" transform="translate(-583.603 -373.569)"/><path class="h" d="M793.054,560.319S749.81,662.193,843.565,714.241l1.873,1.469,1.427-24.646s-40.809-67.526-40.854-69.185S793.054,560.319,793.054,560.319Z" transform="translate(-549.456 -385.42)"/><path class="h" d="M750.836,494.959c.057,1.681-.834,2.784-3.534,2.417-8.424-1.146-17.936-.905-24.848,2.261a5.869,5.869,0,0,1-5.682-.241c-4.424-2.586-7.166-10.3-8.253-13.724a2.345,2.345,0,0,1-.114-.749c13.894-3.1,24.382-2.488,28.213.82a20.8,20.8,0,0,0,12.989,5.045A11.46,11.46,0,0,1,750.836,494.959Z" transform="translate(-571.358 -408.12)"/><g class="i" transform="translate(177.336 324.962)"><path d="M740.3,680.058c-.248-.021-.5-.04-.737-.062C739.559,680,739.82,680.015,740.3,680.058Z" transform="translate(-739.559 -675.29)"/><path class="j" d="M740.129,681.125c19.689,1.571,62.723-1.212,62.723-1.212,12.645-.728,21.527-1.852,23.087-3.556,0,0,0,.052-.01.145-.094,1.976-1.227,24.594-2.818,54.242a14.526,14.526,0,0,1-2.071-.239c-4.429-.821-7.83-3.567-10.419-7.4a35.759,35.759,0,0,1-4.052-8.463C791.889,686.707,746.436,681.692,740.129,681.125Z" transform="translate(-739.392 -676.357)"/></g><g transform="translate(155.128)"><g transform="translate(3.928 7.079)"><path class="g" d="M736.229,450.232s32.217,17.862,22.655-10.817C752.267,419.573,714.258,437.447,736.229,450.232Z" transform="translate(-724.239 -430.55)"/><path class="g" d="M742.085,443.09S724.06,453.784,725.8,464.513c0,0-3.975-32.032,13.947-32.836s24.861.925,23.269,34.8C763.016,466.474,757.809,439.529,742.085,443.09Z" transform="translate(-725.424 -430.26)"/></g><path class="g" d="M735.9,433.781s.905-9.981,10.8-8.568,14.135,7.067,15.548,12.721,2.827,9.894,4.24,9.894c0,0-4.24,4.24-5.654,2.827,0,0,3.669,10.165-.993,18.51,0,0-1.834-12.856-8.9-14.269S735.9,433.781,735.9,433.781Z" transform="translate(-718.425 -425.076)"/><path class="g" d="M740.761,431.945s-7.067-4.24-14.135,5.654l-4.24,8.481s1.414,1.413,4.24,0c0,0-1.288,9.959.063,15.579l4.177-16.993Z" transform="translate(-722.386 -423.327)"/></g><path class="h" d="M828.21,656.214s5.128-41.933-108.707-36.673,82.451,33.4,82.451,33.4Z" transform="translate(-578.515 -368.189)"/><g transform="translate(94.655 77.465)"><g transform="translate(0 168.437)"><path class="k" d="M731.219,635.894c-1.3-.552-14.736-10.1-22.325-11.4s-18.994-2.519-22.853-3.951c-4.538-1.682-5.856.07-.667,2.53,3.373,1.6,10.333,4.213,11.9,4.4.762.092-4.165-.969-9.49-2.514-5.662-1.644-11.776-3.754-12.142-2.752-.71,1.944,15.515,7.711,18.412,8.256a73.875,73.875,0,0,1-7.626-1.535c-3.426-.89-7.312-2.431-8.151-1.772-1.322,1.04,7.188,5.172,14.365,6.745.107.244-2.264.428-10.664-2.014-.843-.246-3.057-.041-.35,1.477,5.7,3.2,7.915,4.993,16.463,5.932,8.336.916,17.7-.081,23.548,2.405Z" transform="translate(-675.625 -613.859)"/><path class="k" d="M708.444,626.9s-5.937-7.3-13.116-8.993c-4.266-1-4.08-2.083-4.79-2.466-2.36-1.267-.349,3.455,3.228,4.906,2.907,1.179,4.173,6.4,5.88,7.626s6.915,3.624,8.308,3.027S708.444,626.9,708.444,626.9Z" transform="translate(-671.551 -615.223)"/></g><path class="f" d="M855.361,514.128c24.682,25.828,41.32,49.325,47.093,122.782,2.928,37.268-1.47,73.963-4.5,93.258a23.008,23.008,0,0,1-17.327,18.71c-85.31,20.915-170.473-65.153-170.473-65.153-4.625-2.145,6.294-18.377,6.294-18.377,46.012,3.126,81.13,7.3,116.663,24.256-.178-.1-30.736-70.21-34.131-89.157-8.885-49.687-47.382-95.1-35.071-113.334C768.159,480.805,830.465,488.074,855.361,514.128Z" transform="translate(-665.836 -484.977)"/></g><g transform="translate(114.652 324.711)"><path class="l" d="M691.088,851.685l.964-10.151,1.862-19.491,2-20.915,1.96-20.51,2.146-22.393,1.675-17.6,1.642-17.192L705.5,700.9l1.588-16.579.339-3.592.438-4.566" transform="translate(-691.088 -676.163)"/><path class="l" d="M707.277,850.7l.712-7.37,1.84-19.043,1.982-20.5,1.938-20.1,2.212-22.93,1.686-17.455,1.686-17.444,2.442-25.2,1.456-15.155.537-5.475.044-.493" transform="translate(-686.34 -675.175)"/><path class="l" d="M738.832,679.533l-.055.635-.46,5.716-1.237,15.341-2.059,25.361-1.391,17.279-1.478,18.21-1.785,22.1L728.8,803.545,727.159,823.9l-1.467,18.112-.7,8.684" transform="translate(-681.146 -675.175)"/><line class="l" x2="0.443" y2="44.056" transform="translate(77.169 4.362)"/><path class="l" d="M765.042,850.7l.164-9.1.361-19.185.328-18.254.361-19.305.383-20.63.318-17.586.405-21.933.427-22.963.241-13.151.077-4.271.077-4.019v-.372l.011-.394" transform="translate(-669.403 -675.175)"/><path class="l" d="M782.065,679.432v.088l-.022,3.307-.077,16.272-.011,2.442-.131,24.452-.109,21.462-.088,17.685-.109,20.641-.1,19.623-.088,17.86-.1,18.955-.044,8.508" transform="translate(-664.668 -675.205)"/><path class="l" d="M796.007,679.432l.022,1.226.383,20.028.46,23.926.011.821.383,20.192.35,17.805.372,19.919.361,18.55.35,18.714.361,18.769.219,11.344" transform="translate(-660.323 -675.205)"/></g><path class="l" d="M690.781,694.805s117.392,5.542,148.409,0" transform="translate(-576.525 -345.986)"/><path class="l" d="M769.328,714.828c-41.074,9.3-80.382-5.4-80.382-5.4" transform="translate(-577.063 -341.699)"/><path class="l" d="M750.759,711.454s37.068,10.416,69.628,1.62" transform="translate(-558.939 -341.104)"/><path class="l" d="M687.385,721.778s29.6,15.5,77.679,7.6" transform="translate(-577.521 -338.076)"/><path class="l" d="M685.511,736.489s46.062,14.062,77.826,6.827" transform="translate(-578.071 -333.763)"/><path class="l" d="M683.632,751.1s23.46,18.391,77.851,10.14" transform="translate(-578.622 -329.477)"/><path class="l" d="M681.446,767.915s35.771,18.691,78.9,5.944" transform="translate(-579.263 -324.548)"/><path class="l" d="M679.412,783.316s25.336,17.984,79.4,7.538" transform="translate(-579.859 -320.032)"/><path class="l" d="M677.286,799.1s34.967,18.278,80.533,3.511" transform="translate(-580.482 -315.403)"/><path class="l" d="M676.3,812.023c-.481-.383-.711-.6-.711-.6" transform="translate(-580.982 -311.791)"/><path class="l" d="M752.062,726.84s15.486,12.786,67.943,3.294" transform="translate(-558.556 -336.592)"/><path class="l" d="M752.377,741.721s21.73,10.132,66.294,2.13" transform="translate(-558.464 -332.229)"/><path class="l" d="M751.557,758.237s33.554,10.107,67.355,0" transform="translate(-558.705 -327.386)"/><path class="l" d="M751.184,771.934s32.618,14.5,68.486,0" transform="translate(-558.814 -323.37)"/><path class="l" d="M750.759,786.971s31.054,10.9,69.938,0" transform="translate(-558.939 -318.96)"/><path class="l" d="M750.372,801.414s26.176,11.744,71.663,0" transform="translate(-559.052 -314.725)"/><path class="h" d="M757.461,508.54c.806,2.639,6.5,11.918,4.738,20.169s-39.957,90.57-55.7,101.208-44.157,22.73-44.157,22.73L740,545.211l4.294-36.671S752.425,492.044,757.461,508.54Z" transform="translate(-584.863 -402.752)"/><g transform="translate(145.733 70.606)"><path class="k" d="M731.438,510.087s4.741-8.308,3.709-15.729c-.613-4.413.479-4.632.579-5.446.335-2.7-3.4.936-3.466,4.86-.05,3.188-4.538,6.3-5.068,8.371s-.9,7.883.18,8.984S731.438,510.087,731.438,510.087Z" transform="translate(-711.733 -477.238)"/><path class="k" d="M731.868,534.049c.047-1.435,4.164-17.673,2.615-25.343s-4.661-20.971-4.72-25.153c-.07-4.919-2.214-5.523-2.642.3-.277,3.783-.123,13.384.275,14.943a60.765,60.765,0,0,1-1.454-9.836c-.19-3.285-.966-1.985-2.063-1.68-2.025.565-1.137,6.112-.591,9.056a28.5,28.5,0,0,1-1.472-7.223c-.144-1.673-.952-1.239-1.945-1.085s-1.41,1.357-.268,8.734c-.193.193-.5,2.046-1.262-6.81-.078-.89-2.677-2.689-2.773.464-.169,5.534-1.327,5.045.921,13.491,2.192,8.235,6.571,16.74,6.363,23.2Z" transform="translate(-715.122 -479.673)"/></g><path class="m" d="M749.589,511.131a203.1,203.1,0,0,0-73.341,24.753c-19.565,11.212-68.142,39.05-73.341,85.258-.454,4.039-3.9,38.794,17.418,53.173,14.264,9.622,32.2,5.116,36.962,3.92,8.462-2.126,19.782-6.892,63.883-65.344,25.063-33.219,37.9-53.535,47.672-80.675,1.644-4.561,2.866-8.388,3.668-11Z" transform="translate(-602.432 -399.843)"/></g></g></g><path class="n" d="M804.528,446.1c-3.133-3.962-8.239-4.425-10.827-2.165-2.2,1.926-2.3,5.58-1.082,8.12a8.264,8.264,0,0,0,8.661,4.331,6.6,6.6,0,0,0,1.084,8.119c2.277,2.051,5.523,1.649,7.578.542a7.456,7.456,0,0,0,3.789-7.036c.315.034,4.753.453,6.5-2.166,1.95-2.93-.81-7.646-3.79-9.744C813.182,443.812,808.555,443.862,804.528,446.1Z" transform="translate(86.347 16.648)"/><path class="n" d="M841.681,400.451c-8.14-10.291-21.4-11.5-28.121-5.624-5.722,5-5.969,14.493-2.811,21.09,3.77,7.876,12.842,12.556,22.5,11.25-4.081,7.25-2.747,16.084,2.811,21.089,5.915,5.327,14.347,4.283,19.685,1.407a19.368,19.368,0,0,0,9.841-18.278c.817.089,12.341,1.177,16.873-5.624,5.067-7.611-2.1-19.859-9.843-25.308C864.157,394.5,852.139,394.63,841.681,400.451Z" transform="translate(91.298 1.612)"/></g></svg>