<svg xmlns="http://www.w3.org/2000/svg" width="232.887" height="308.093" viewBox="0 0 232.887 308.093"><defs><style>.a{fill:#315270;}.b{fill:#eff6fd;}.c{fill:#e4e5e7;}.d{fill:#fff;}.e{fill:#eb493d;}.f{fill:#b2b2b2;}.g,.h{fill:none;stroke:#e94c3c;stroke-miterlimit:10;}.g{stroke-width:2px;}</style></defs><g transform="translate(-552.581 -405.652)"><rect class="a" width="214.722" height="290.315" rx="14.86" transform="translate(570.745 423.429)"/><path class="b" d="M583.14,429.643s141.447,3.247,174.374-2.782l2.783,37.1L588.7,459.788l-4.638-.464Z" transform="translate(3.297 2.288)"/><path class="c" d="M767.311,447.053V433.14l-180.4,6.029,3.71,245.794,172.983,10.2.464-13.449Z" transform="translate(3.703 2.965)"/><path class="d" d="M580.525,691.513l-3.246-254.606,197.563,1.855-5.1,250.432Z" transform="translate(2.664 3.372)"/><path class="e" d="M702.815,422.038H689.057s-.155-16.463-17.7-16.385c-17.447.076-16.618,16.385-16.618,16.385h-9.275s-21.488,3.092-24.579,24.734l100.945-1.082S720.129,426.212,702.815,422.038Zm-31.458,7.111a9.121,9.121,0,1,1,9.12-9.121A9.121,9.121,0,0,1,671.357,429.149Z" transform="translate(7.368)"/><rect class="f" width="78.53" height="9.894" transform="translate(640.928 472.588)"/><rect class="f" width="139.747" height="5.874" transform="translate(618.977 495.467)"/><rect class="f" width="158.298" height="6.493" transform="translate(600.426 517.727)"/><rect class="f" width="158.298" height="6.493" transform="translate(600.426 539.369)"/><rect class="f" width="158.298" height="6.493" transform="translate(600.426 561.012)"/><rect class="f" width="141.911" height="6.493" transform="translate(616.813 582.654)"/><rect class="f" width="158.298" height="6.493" transform="translate(600.426 604.296)"/><rect class="f" width="158.298" height="6.493" transform="translate(600.426 625.938)"/><line class="g" x2="83.245" transform="translate(671.536 506.751)"/><line class="g" x2="40.038" transform="translate(618.977 527.157)"/><line class="g" x2="40.038" transform="translate(705.237 592.779)"/><path class="h" d="M552.581,503.814" transform="translate(0 10.589)"/><path class="h" d="M685.369,536.92a4.515,4.515,0,0,1,.772-2.1q1.16-2.014,2.41-3.974c2.289-3.592,4.94-7.168,8.716-9.138" transform="translate(14.325 12.52)"/><path class="h" d="M682.976,523.5c1.672-.182,3.238.76,4.656,1.665,4.043,2.58,8.188,5.257,10.96,9.17" transform="translate(14.067 12.711)"/></g></svg>