<svg xmlns="http://www.w3.org/2000/svg" width="410.139" height="317" viewBox="0 0 410.139 317"><defs><style>.a{fill:#6a676b;}.b{fill:#333;}.c{fill:#fff;}.d{fill:gray;}.e{fill:#f2f2f2;opacity:0.5;}.f{fill:#d0d1d6;}.g{fill:#302f30;}.h{fill:red;}.i{fill:lime;}</style></defs><rect class="a" width="25.01" height="29.04" transform="translate(122.98 161.32)"/><g transform="translate(21.02 229.89)"><path class="b" d="M232.54,317H27.37a6.353,6.353,0,0,1-6.35-6.35v-74.4a6.363,6.363,0,0,1,6.36-6.36H236.02a6.346,6.346,0,0,1,6.35,6.35v70.94A9.827,9.827,0,0,1,232.54,317Z" transform="translate(-21.02 -229.89)"/><g transform="translate(18.22 13.3)"><path class="c" d="M48,253.93H41.21a1.972,1.972,0,0,1-1.97-1.96v-6.8a1.976,1.976,0,0,1,1.97-1.98H48a1.982,1.982,0,0,1,1.97,1.98v6.8A1.985,1.985,0,0,1,48,253.93Z" transform="translate(-39.24 -243.19)"/><g transform="translate(17.33)"><path class="c" d="M65.32,253.93H58.53a1.963,1.963,0,0,1-1.96-1.96v-6.8a1.974,1.974,0,0,1,1.96-1.98h6.79a1.974,1.974,0,0,1,1.96,1.98v6.8A1.97,1.97,0,0,1,65.32,253.93Z" transform="translate(-56.57 -243.19)"/></g><g transform="translate(34.62)"><path class="c" d="M82.63,253.93h-6.8a1.978,1.978,0,0,1-1.97-1.96v-6.8a1.976,1.976,0,0,1,1.97-1.98h6.8a1.982,1.982,0,0,1,1.97,1.98v6.8A1.978,1.978,0,0,1,82.63,253.93Z" transform="translate(-73.86 -243.19)"/></g><g transform="translate(51.95)"><path class="c" d="M99.95,253.93h-6.8a1.97,1.97,0,0,1-1.96-1.96v-6.8a1.974,1.974,0,0,1,1.96-1.98h6.8a1.974,1.974,0,0,1,1.96,1.98v6.8A1.97,1.97,0,0,1,99.95,253.93Z" transform="translate(-91.19 -243.19)"/></g><g transform="translate(69.27)"><path class="c" d="M117.27,253.93h-6.79a1.972,1.972,0,0,1-1.97-1.96v-6.8a1.976,1.976,0,0,1,1.97-1.98h6.79a1.976,1.976,0,0,1,1.97,1.98v6.8A1.985,1.985,0,0,1,117.27,253.93Z" transform="translate(-108.51 -243.19)"/></g><g transform="translate(86.58)"><path class="c" d="M134.59,253.93h-6.8a1.978,1.978,0,0,1-1.97-1.96v-6.8a1.976,1.976,0,0,1,1.97-1.98h6.8a1.974,1.974,0,0,1,1.96,1.98v6.8A1.97,1.97,0,0,1,134.59,253.93Z" transform="translate(-125.82 -243.19)"/></g><g transform="translate(103.9)"><path class="c" d="M151.91,253.93h-6.8a1.972,1.972,0,0,1-1.97-1.96v-6.8a1.976,1.976,0,0,1,1.97-1.98h6.8a1.968,1.968,0,0,1,1.96,1.98v6.8A1.97,1.97,0,0,1,151.91,253.93Z" transform="translate(-143.14 -243.19)"/></g><g transform="translate(121.22)"><path class="c" d="M169.22,253.93h-6.8a1.97,1.97,0,0,1-1.96-1.96v-6.8a1.967,1.967,0,0,1,1.96-1.98h6.8a1.967,1.967,0,0,1,1.96,1.98v6.8A1.963,1.963,0,0,1,169.22,253.93Z" transform="translate(-160.46 -243.19)"/></g><g transform="translate(136.78)"><path class="c" d="M184.78,253.93h-6.8a1.963,1.963,0,0,1-1.96-1.96v-6.8a1.967,1.967,0,0,1,1.96-1.98h6.8a1.974,1.974,0,0,1,1.96,1.98v6.8A1.97,1.97,0,0,1,184.78,253.93Z" transform="translate(-176.02 -243.19)"/></g><g transform="translate(152.92)"><path class="c" d="M200.92,253.93h-6.8a1.97,1.97,0,0,1-1.96-1.96v-6.8a1.974,1.974,0,0,1,1.96-1.98h6.8a1.968,1.968,0,0,1,1.96,1.98v6.8A1.963,1.963,0,0,1,200.92,253.93Z" transform="translate(-192.16 -243.19)"/></g><g transform="translate(168.41)"><path class="c" d="M227.91,253.93H212.19c-2.51,0-4.54-.89-4.54-1.96v-6.8c0-1.09,2.04-1.98,4.54-1.98h15.72c2.51,0,4.55.89,4.55,1.98v6.8C232.46,253.04,230.42,253.93,227.91,253.93Z" transform="translate(-207.65 -243.19)"/></g></g><g transform="translate(10.27 30.34)"><path class="c" d="M40.05,270.96H33.26a1.974,1.974,0,0,1-1.97-1.97V262.2a1.967,1.967,0,0,1,1.97-1.97h6.79a1.965,1.965,0,0,1,1.96,1.97v6.79A1.972,1.972,0,0,1,40.05,270.96Z" transform="translate(-31.29 -260.23)"/><g transform="translate(17.32)"><path class="c" d="M57.37,270.96h-6.8a1.972,1.972,0,0,1-1.96-1.97V262.2a1.965,1.965,0,0,1,1.96-1.97h6.8a1.967,1.967,0,0,1,1.97,1.97v6.79A1.987,1.987,0,0,1,57.37,270.96Z" transform="translate(-48.61 -260.23)"/></g><g transform="translate(34.63)"><path class="c" d="M74.68,270.96H67.89a1.974,1.974,0,0,1-1.97-1.97V262.2a1.967,1.967,0,0,1,1.97-1.97h6.79a1.959,1.959,0,0,1,1.96,1.97v6.79A1.959,1.959,0,0,1,74.68,270.96Z" transform="translate(-65.92 -260.23)"/></g><g transform="translate(51.95)"><path class="c" d="M92,270.96H85.21a1.974,1.974,0,0,1-1.97-1.97V262.2a1.967,1.967,0,0,1,1.97-1.97H92a1.959,1.959,0,0,1,1.96,1.97v6.79A1.965,1.965,0,0,1,92,270.96Z" transform="translate(-83.24 -260.23)"/></g><g transform="translate(69.27)"><path class="c" d="M109.32,270.96h-6.79a1.974,1.974,0,0,1-1.97-1.97V262.2a1.967,1.967,0,0,1,1.97-1.97h6.79a1.974,1.974,0,0,1,1.97,1.97v6.79A1.98,1.98,0,0,1,109.32,270.96Z" transform="translate(-100.56 -260.23)"/></g><g transform="translate(86.59)"><path class="c" d="M126.63,270.96h-6.79a1.972,1.972,0,0,1-1.96-1.97V262.2a1.965,1.965,0,0,1,1.96-1.97h6.79a1.967,1.967,0,0,1,1.97,1.97v6.79A1.974,1.974,0,0,1,126.63,270.96Z" transform="translate(-117.88 -260.23)"/></g><g transform="translate(103.91)"><path class="c" d="M143.96,270.96h-6.8a1.972,1.972,0,0,1-1.96-1.97V262.2a1.965,1.965,0,0,1,1.96-1.97h6.8a1.967,1.967,0,0,1,1.97,1.97v6.79A1.987,1.987,0,0,1,143.96,270.96Z" transform="translate(-135.2 -260.23)"/></g><g transform="translate(121.22)"><path class="c" d="M161.27,270.96h-6.79a1.974,1.974,0,0,1-1.97-1.97V262.2a1.967,1.967,0,0,1,1.97-1.97h6.79a1.974,1.974,0,0,1,1.97,1.97v6.79A1.98,1.98,0,0,1,161.27,270.96Z" transform="translate(-152.51 -260.23)"/></g><g transform="translate(138.54)"><path class="c" d="M178.59,270.96H171.8a1.974,1.974,0,0,1-1.97-1.97V262.2a1.967,1.967,0,0,1,1.97-1.97h6.79a1.974,1.974,0,0,1,1.97,1.97v6.79A1.98,1.98,0,0,1,178.59,270.96Z" transform="translate(-169.83 -260.23)"/></g><g transform="translate(155.86)"><path class="c" d="M195.91,270.96h-6.8a1.972,1.972,0,0,1-1.96-1.97V262.2a1.965,1.965,0,0,1,1.96-1.97h6.8a1.965,1.965,0,0,1,1.96,1.97v6.79A1.972,1.972,0,0,1,195.91,270.96Z" transform="translate(-187.15 -260.23)"/></g><g transform="translate(0 17.03)"><path class="c" d="M40.05,287.99H33.26a1.965,1.965,0,0,1-1.97-1.96v-6.8a1.967,1.967,0,0,1,1.97-1.97h6.79a1.965,1.965,0,0,1,1.96,1.97v6.8A1.963,1.963,0,0,1,40.05,287.99Z" transform="translate(-31.29 -277.26)"/></g><g transform="translate(17.32 17.03)"><path class="c" d="M57.37,287.99h-6.8a1.963,1.963,0,0,1-1.96-1.96v-6.8a1.965,1.965,0,0,1,1.96-1.97h6.8a1.967,1.967,0,0,1,1.97,1.97v6.8A1.978,1.978,0,0,1,57.37,287.99Z" transform="translate(-48.61 -277.26)"/></g><g transform="translate(34.63 17.03)"><path class="c" d="M74.68,287.99H67.89a1.965,1.965,0,0,1-1.97-1.96v-6.8a1.967,1.967,0,0,1,1.97-1.97h6.79a1.959,1.959,0,0,1,1.96,1.97v6.8A1.95,1.95,0,0,1,74.68,287.99Z" transform="translate(-65.92 -277.26)"/></g><g transform="translate(51.95 17.03)"><path class="c" d="M92,287.99H85.21a1.965,1.965,0,0,1-1.97-1.96v-6.8a1.967,1.967,0,0,1,1.97-1.97H92a1.959,1.959,0,0,1,1.96,1.97v6.8A1.957,1.957,0,0,1,92,287.99Z" transform="translate(-83.24 -277.26)"/></g><g transform="translate(69.27 17.03)"><path class="c" d="M109.32,287.99h-6.79a1.965,1.965,0,0,1-1.97-1.96v-6.8a1.967,1.967,0,0,1,1.97-1.97h6.79a1.974,1.974,0,0,1,1.97,1.97v6.8A1.972,1.972,0,0,1,109.32,287.99Z" transform="translate(-100.56 -277.26)"/></g><g transform="translate(86.59 17.03)"><path class="c" d="M126.63,287.99h-6.79a1.963,1.963,0,0,1-1.96-1.96v-6.8a1.965,1.965,0,0,1,1.96-1.97h6.79a1.967,1.967,0,0,1,1.97,1.97v6.8A1.965,1.965,0,0,1,126.63,287.99Z" transform="translate(-117.88 -277.26)"/></g><g transform="translate(103.91 17.03)"><path class="c" d="M143.96,287.99h-6.8a1.963,1.963,0,0,1-1.96-1.96v-6.8a1.965,1.965,0,0,1,1.96-1.97h6.8a1.967,1.967,0,0,1,1.97,1.97v6.8A1.978,1.978,0,0,1,143.96,287.99Z" transform="translate(-135.2 -277.26)"/></g><g transform="translate(121.22 17.03)"><path class="c" d="M161.27,287.99h-6.79a1.965,1.965,0,0,1-1.97-1.96v-6.8a1.967,1.967,0,0,1,1.97-1.97h6.79a1.974,1.974,0,0,1,1.97,1.97v6.8A1.972,1.972,0,0,1,161.27,287.99Z" transform="translate(-152.51 -277.26)"/></g><g transform="translate(138.54 17.03)"><path class="c" d="M178.59,287.99H171.8a1.965,1.965,0,0,1-1.97-1.96v-6.8a1.967,1.967,0,0,1,1.97-1.97h6.79a1.974,1.974,0,0,1,1.97,1.97v6.8A1.972,1.972,0,0,1,178.59,287.99Z" transform="translate(-169.83 -277.26)"/></g><g transform="translate(155.86 17.03)"><path class="c" d="M195.91,287.99h-6.8a1.963,1.963,0,0,1-1.96-1.96v-6.8a1.965,1.965,0,0,1,1.96-1.97h6.8a1.965,1.965,0,0,1,1.96,1.97v6.8A1.963,1.963,0,0,1,195.91,287.99Z" transform="translate(-187.15 -277.26)"/></g><g transform="translate(179.47)"><path class="c" d="M228.49,270.96H214.75c-2.2,0-3.99-.89-3.99-1.97V262.2c0-1.09,1.79-1.97,3.99-1.97h13.74c2.18,0,3.97.88,3.97,1.97v6.79C232.46,270.07,230.67,270.96,228.49,270.96Z" transform="translate(-210.76 -260.23)"/></g><g transform="translate(172.14 17.03)"><path class="c" d="M227.15,287.99H208.77c-2.94,0-5.34-.88-5.34-1.96v-6.8c0-1.09,2.4-1.97,5.34-1.97h18.38c2.92,0,5.31.88,5.31,1.97v6.8C232.46,287.11,230.07,287.99,227.15,287.99Z" transform="translate(-203.43 -277.26)"/></g></g><g transform="translate(18.22 64.4)"><path class="c" d="M48,305.02H41.21a1.967,1.967,0,0,1-1.97-1.97v-6.79a1.974,1.974,0,0,1,1.97-1.97H48a1.974,1.974,0,0,1,1.97,1.97v6.79A1.98,1.98,0,0,1,48,305.02Z" transform="translate(-39.24 -294.29)"/></g><g transform="translate(32.61 64.4)"><path class="c" d="M62.38,305.02H55.59a1.959,1.959,0,0,1-1.96-1.97v-6.79a1.972,1.972,0,0,1,1.96-1.97h6.79a1.965,1.965,0,0,1,1.96,1.97v6.79A1.965,1.965,0,0,1,62.38,305.02Z" transform="translate(-53.63 -294.29)"/></g><g transform="translate(46.97 64.4)"><path class="c" d="M76.76,305.02h-6.8a1.974,1.974,0,0,1-1.97-1.97v-6.79a1.974,1.974,0,0,1,1.97-1.97h6.8a1.974,1.974,0,0,1,1.97,1.97v6.79A1.98,1.98,0,0,1,76.76,305.02Z" transform="translate(-67.99 -294.29)"/></g><g transform="translate(70.17 64.4)"><path class="c" d="M135.32,305.02H93.15a1.965,1.965,0,0,1-1.96-1.97v-6.79a1.972,1.972,0,0,1,1.96-1.97h42.17a1.965,1.965,0,0,1,1.96,1.97v6.79A1.965,1.965,0,0,1,135.32,305.02Z" transform="translate(-91.19 -294.29)"/></g><g transform="translate(122.12 64.4)"><path class="c" d="M151.91,305.02h-6.8a1.967,1.967,0,0,1-1.97-1.97v-6.79a1.974,1.974,0,0,1,1.97-1.97h6.8a1.959,1.959,0,0,1,1.96,1.97v6.79A1.965,1.965,0,0,1,151.91,305.02Z" transform="translate(-143.14 -294.29)"/></g><g transform="translate(139.44 64.4)"><path class="c" d="M169.22,305.02h-6.8a1.965,1.965,0,0,1-1.96-1.97v-6.79a1.965,1.965,0,0,1,1.96-1.97h6.8a1.959,1.959,0,0,1,1.96,1.97v6.79A1.959,1.959,0,0,1,169.22,305.02Z" transform="translate(-160.46 -294.29)"/></g><g transform="translate(165.58 64.4)"><path class="c" d="M195.36,305.02h-6.8a1.959,1.959,0,0,1-1.96-1.97v-6.79a1.965,1.965,0,0,1,1.96-1.97h6.8a1.965,1.965,0,0,1,1.96,1.97v6.79A1.965,1.965,0,0,1,195.36,305.02Z" transform="translate(-186.6 -294.29)"/></g><g transform="translate(179.95 64.4)"><path class="c" d="M209.73,305.02h-6.8a1.965,1.965,0,0,1-1.96-1.97v-6.79a1.972,1.972,0,0,1,1.96-1.97h6.8a1.959,1.959,0,0,1,1.96,1.97v6.79A1.953,1.953,0,0,1,209.73,305.02Z" transform="translate(-200.97 -294.29)"/></g><g transform="translate(194.33 64.4)"><path class="c" d="M224.11,305.02h-6.8a1.965,1.965,0,0,1-1.96-1.97v-6.79a1.972,1.972,0,0,1,1.96-1.97h6.8a1.967,1.967,0,0,1,1.97,1.97v6.79A1.967,1.967,0,0,1,224.11,305.02Z" transform="translate(-215.35 -294.29)"/></g></g><g transform="translate(306.054 252.898)"><g transform="translate(4.325 13.362)"><path class="d" d="M310.38,282.85l9.05,20.96a15.8,15.8,0,0,0,21.36,6.57l6.62-3.52a15.808,15.808,0,0,0,6.53-21.37l-12.3-19.23Z" transform="translate(-310.38 -266.26)"/></g><g transform="translate(0 3.382)"><path class="b" d="M313,258.04c-7.7,4.09-8.65,12.61-4.56,20.33l1.94,4.48,15.63-8.3-9.7-18.27Z" transform="translate(-306.055 -256.28)"/></g><g transform="translate(10.265)"><path class="b" d="M339.02,262.14c-4.1-7.71-11.69-11.7-19.39-7.61l-3.31,1.76,9.7,18.27,15.63-8.3Z" transform="translate(-316.32 -252.898)"/></g><g transform="translate(12.348 9.139)"><path class="d" d="M327.44,275.5l-1.45.77a1.275,1.275,0,0,1-1.59-.74l-5.79-10.9a1.27,1.27,0,0,1,.27-1.73l1.45-.77a1.282,1.282,0,0,1,1.59.75l5.79,10.9A1.241,1.241,0,0,1,327.44,275.5Z" transform="translate(-318.402 -262.037)"/></g><g transform="translate(9.798 3.111)"><g transform="translate(0 0)"><rect class="d" width="1.06" height="7.04" transform="translate(0 0.497) rotate(-27.969)"/></g></g><ellipse class="e" cx="4.34" cy="9.34" rx="4.34" ry="9.34" transform="translate(27.048 25.285) rotate(-31.83)"/></g><path class="f" d="M258.22,162.42H6.45A6.453,6.453,0,0,1,0,155.97V6.45A6.453,6.453,0,0,1,6.45,0H258.22a6.453,6.453,0,0,1,6.45,6.45V155.96A6.455,6.455,0,0,1,258.22,162.42Z"/><g transform="translate(75.32 186.91)"><path class="b" d="M75.32,196.88V191.9c0-2.76,25.54-4.99,57.02-4.99s57.02,2.23,57.02,4.99v4.98Z" transform="translate(-75.32 -186.91)"/></g><g transform="translate(111 151.36)"><rect class="b" width="47.53" height="5.91"/></g><path class="b" d="M258.12,0H6.45A6.453,6.453,0,0,0,0,6.45V138.73a6.453,6.453,0,0,0,6.45,6.45H258.11a6.453,6.453,0,0,0,6.45-6.45V6.45A6.438,6.438,0,0,0,258.12,0Z"/><g transform="translate(301.42 6.15)"><g transform="translate(0.01)"><path class="d" d="M401.2,222.52H310.37a8.941,8.941,0,0,1-8.94-8.93V15.09a8.943,8.943,0,0,1,8.94-8.94H401.2a8.943,8.943,0,0,1,8.94,8.94V213.58A8.937,8.937,0,0,1,401.2,222.52Z" transform="translate(-301.43 -6.15)"/></g><g transform="translate(0 102.74)"><path class="b" d="M410.14,211.16V108.89H301.42V211.16c0,6.27,4.01,11.36,8.94,11.36h90.83C406.14,222.52,410.14,217.43,410.14,211.16Z" transform="translate(-301.42 -108.89)"/></g><g transform="translate(74.46 76)"><path class="g" d="M381.34,84.88a2.73,2.73,0,1,1-2.73-2.73A2.727,2.727,0,0,1,381.34,84.88Z" transform="translate(-375.88 -82.15)"/><g transform="translate(0.59 0.59)"><path class="h" d="M378.6,87.02a2.14,2.14,0,1,1,2.14-2.14A2.14,2.14,0,0,1,378.6,87.02Z" transform="translate(-376.47 -82.74)"/></g><g transform="translate(13.04 0.59)"><path class="i" d="M393.19,84.88a2.135,2.135,0,1,1-2.14-2.14A2.142,2.142,0,0,1,393.19,84.88Z" transform="translate(-388.92 -82.74)"/></g></g><g transform="translate(6.61 14.23)"><path class="b" d="M399.05,45.2H312.5a4.468,4.468,0,0,1-4.47-4.47V24.85a4.468,4.468,0,0,1,4.47-4.47h86.55a4.468,4.468,0,0,1,4.47,4.47V40.73A4.468,4.468,0,0,1,399.05,45.2Z" transform="translate(-308.03 -20.38)"/><g transform="translate(0 28.64)"><path class="b" d="M399.05,73.85H312.5a4.468,4.468,0,0,1-4.47-4.47V53.49a4.468,4.468,0,0,1,4.47-4.47h86.55a4.468,4.468,0,0,1,4.47,4.47V69.37A4.477,4.477,0,0,1,399.05,73.85Z" transform="translate(-308.03 -49.02)"/></g><g transform="translate(83.02 32.89)"><rect width="8.83" height="4.1"/></g><g transform="translate(83.02 4.01)"><rect width="8.83" height="4.1"/></g></g><g transform="translate(0 204.63)"><path d="M301.42,210.78v2.8a8.935,8.935,0,0,0,8.94,8.93h90.83a8.935,8.935,0,0,0,8.94-8.93v-2.8H301.42Z" transform="translate(-301.42 -210.78)"/></g><g transform="translate(9.5 116.45)"><circle cx="3.23" cy="3.23" r="3.23"/><circle cx="3.23" cy="3.23" r="3.23" transform="translate(13.71)"/><circle cx="3.23" cy="3.23" r="3.23" transform="translate(27.43)"/><circle cx="3.23" cy="3.23" r="3.23" transform="translate(41.14)"/><circle cx="3.23" cy="3.23" r="3.23" transform="translate(54.85)"/><circle cx="3.23" cy="3.23" r="3.23" transform="translate(68.56)"/><circle cx="3.23" cy="3.23" r="3.23" transform="translate(82.28)"/><g transform="translate(0 12.1)"><circle cx="3.23" cy="3.23" r="3.23"/><circle cx="3.23" cy="3.23" r="3.23" transform="translate(13.71)"/><circle cx="3.23" cy="3.23" r="3.23" transform="translate(27.43)"/><circle cx="3.23" cy="3.23" r="3.23" transform="translate(41.14)"/><circle cx="3.23" cy="3.23" r="3.23" transform="translate(54.85)"/><circle cx="3.23" cy="3.23" r="3.23" transform="translate(68.56)"/><circle cx="3.23" cy="3.23" r="3.23" transform="translate(82.28)"/></g><g transform="translate(0 24.2)"><circle cx="3.23" cy="3.23" r="3.23"/><circle cx="3.23" cy="3.23" r="3.23" transform="translate(13.71)"/><circle cx="3.23" cy="3.23" r="3.23" transform="translate(27.43)"/><circle cx="3.23" cy="3.23" r="3.23" transform="translate(41.14)"/><circle cx="3.23" cy="3.23" r="3.23" transform="translate(54.85)"/><circle cx="3.23" cy="3.23" r="3.23" transform="translate(68.56)"/><circle cx="3.23" cy="3.23" r="3.23" transform="translate(82.28)"/></g><g transform="translate(0 36.3)"><circle cx="3.23" cy="3.23" r="3.23"/><circle cx="3.23" cy="3.23" r="3.23" transform="translate(13.71)"/><circle cx="3.23" cy="3.23" r="3.23" transform="translate(27.43)"/><circle cx="3.23" cy="3.23" r="3.23" transform="translate(41.14)"/><circle cx="3.23" cy="3.23" r="3.23" transform="translate(54.85)"/><circle cx="3.23" cy="3.23" r="3.23" transform="translate(68.56)"/><circle cx="3.23" cy="3.23" r="3.23" transform="translate(82.28)"/></g><g transform="translate(0 48.4)"><circle cx="3.23" cy="3.23" r="3.23"/><circle cx="3.23" cy="3.23" r="3.23" transform="translate(13.71)"/><circle cx="3.23" cy="3.23" r="3.23" transform="translate(27.43)"/><circle cx="3.23" cy="3.23" r="3.23" transform="translate(41.14)"/><circle cx="3.23" cy="3.23" r="3.23" transform="translate(54.85)"/><circle cx="3.23" cy="3.23" r="3.23" transform="translate(68.56)"/><circle cx="3.23" cy="3.23" r="3.23" transform="translate(82.28)"/></g><g transform="translate(0 60.5)"><circle cx="3.23" cy="3.23" r="3.23"/><circle cx="3.23" cy="3.23" r="3.23" transform="translate(13.71)"/><circle cx="3.23" cy="3.23" r="3.23" transform="translate(27.43)"/><circle cx="3.23" cy="3.23" r="3.23" transform="translate(41.14)"/><circle cx="3.23" cy="3.23" r="3.23" transform="translate(54.85)"/><circle cx="3.23" cy="3.23" r="3.23" transform="translate(68.56)"/><circle cx="3.23" cy="3.23" r="3.23" transform="translate(82.28)"/></g><g transform="translate(0 72.6)"><circle cx="3.23" cy="3.23" r="3.23"/><circle cx="3.23" cy="3.23" r="3.23" transform="translate(13.71)"/><circle cx="3.23" cy="3.23" r="3.23" transform="translate(27.43)"/><circle cx="3.23" cy="3.23" r="3.23" transform="translate(41.14)"/><circle cx="3.23" cy="3.23" r="3.23" transform="translate(54.85)"/><circle cx="3.23" cy="3.23" r="3.23" transform="translate(68.56)"/><circle cx="3.23" cy="3.23" r="3.23" transform="translate(82.28)"/></g></g></g></svg>