<svg xmlns="http://www.w3.org/2000/svg" width="1366" height="771" viewBox="0 0 1366 771"><defs><style>.a{fill:#d2c3db;}.b{fill:#eadff1;}.c{fill:#fff;}.d{fill:#b3b3b3;}.e{fill:#ce521f;}.f{fill:#ebebeb;}.g{fill:#8e96a3;}.h{fill:#4f3b65;}.i{fill:#d0d1d6;}.j{fill:#947dce;}.k,.q{fill:#d8a35d;}.k{fill-rule:evenodd;}.l{fill:#999;}.m{fill:#ccc;}.n{fill:#2b2b2b;}.o{fill:gray;}.p{fill:#d29647;}.r{fill:#d19442;}.s{fill:#ffc84f;}.t{opacity:0.15;}.u{fill:#62548a;}.v{opacity:0.3;}.w,.z{opacity:0.5;}.x{fill:none;stroke:#947dce;stroke-miterlimit:10;stroke-width:0.823px;}.y{fill:#f0a400;}.z{fill:#f2f2f2;}</style></defs><path class="a" d="M1366,9.54V768l-242.23-67.59-32.99-6.26,1.64-558.09,30.12-25.56Z"/><path class="a" d="M316.3,125.47,300.25,681.84.2,756.24V6.19L299.05,99.76Z"/><path class="b" d="M697.98,89.07H273.37V706.46h849.17V89.07Z"/><path class="c" d="M0,60.78c121.66,30.38,335.7,73.89,615,80.37,352.97,8.19,622.43-47.1,751-78.7V0H0Z"/><path class="c" d="M0,722.68c121.66-29.39,335.7-71.48,615-77.75,352.97-7.93,622.43,45.57,751,76.13v47.19L.2,771Z"/><path class="d" d="M870,567H526l50-60H830Z"/><rect class="d" width="16" height="138" transform="translate(538 567)"/><rect class="d" width="11" height="163" transform="translate(575 507)"/><rect class="d" width="11" height="163" transform="translate(818 507)"/><rect class="d" width="16" height="138" transform="translate(843 567)"/><path class="e" d="M649.83,481.25h0a.437.437,0,0,1-.26-.56l.36-.97.82.3-.36.97A.441.441,0,0,1,649.83,481.25Z"/><path class="e" d="M654.4,482.93h0a.437.437,0,0,1-.26-.56s.33-.9.36-.97a4.065,4.065,0,0,1,.82.31l-.35.96A.44.44,0,0,1,654.4,482.93Z"/><path class="f" d="M649.74,481.06h0a.437.437,0,0,1-.26-.56l.39-1.06a.437.437,0,0,1,.56-.26h0a.437.437,0,0,1,.26.56l-.39,1.06A.437.437,0,0,1,649.74,481.06Z"/><path class="f" d="M654.3,482.74h0a.437.437,0,0,1-.26-.56l.39-1.06a.437.437,0,0,1,.56-.26h0a.437.437,0,0,1,.26.56l-.39,1.06A.434.434,0,0,1,654.3,482.74Z"/><rect class="g" width="2.87" height="1.86" transform="matrix(0.938, 0.346, -0.346, 0.938, 648.63, 491.184)"/><rect class="g" width="2.87" height="1.86" transform="matrix(0.938, 0.346, -0.346, 0.938, 649.85, 488.103)"/><path class="h" d="M780.63,549.19H634.94a3.238,3.238,0,0,1-3.5-3.19v-2.18l15.95-29.47a5.077,5.077,0,0,1,4.55-2.82H763.43c2.08,0,6.67,4.1,7.6,5.96l13.16,26.82v.96C784.21,548.06,782.4,549.19,780.63,549.19Z"/><path class="i" d="M780.64,546.11H634.95c-1.62,0-4.28-1.42-3.28-3.16l15.73-31.68a5.077,5.077,0,0,1,4.55-2.82H763.44a5.493,5.493,0,0,1,4.91,3.04l15.57,31.15C785.01,544.62,782.42,546.11,780.64,546.11Z"/><path class="i" d="M762.32,508.39H651.74a4.357,4.357,0,0,1-4.36-4.36V437.36a4.357,4.357,0,0,1,4.36-4.36H762.32a4.357,4.357,0,0,1,4.36,4.36v66.67A4.357,4.357,0,0,1,762.32,508.39Z"/><rect class="h" width="110.1" height="65.33" transform="translate(651.96 437.11)"/><path class="h" d="M728.91,544.73H685.98a.77.77,0,0,1-.76-.9l1.81-11.31a1.257,1.257,0,0,1,1.24-1.06h38.72a1.1,1.1,0,0,1,1.09.95l1.66,11.37A.832.832,0,0,1,728.91,544.73Z"/><path class="j" d="M765.51,529.14H648.87c-1.29,0-2.28-.5-2.08-1.05l4.92-13.2c.27-.71,1.7-1.24,3.37-1.24h105.2c1.49,0,2.76.47,2.97,1.1l4.51,13.27C767.95,528.62,766.89,529.14,765.51,529.14Z"/><rect class="i" width="121.63" height="0.61" transform="translate(646.46 515.93)"/><rect class="i" width="121.63" height="0.61" transform="translate(646.46 519)"/><rect class="i" width="121.63" height="0.61" transform="translate(646.46 522.69)"/><rect class="i" width="121.63" height="0.61" transform="translate(646.46 526.07)"/><rect class="i" width="0.92" height="20.27" transform="translate(661.171 511.026) rotate(17.44)"/><rect class="i" width="0.92" height="20.27" transform="translate(670.071 511.024) rotate(17.44)"/><rect class="i" width="0.92" height="20.27" transform="translate(677.14 511.026) rotate(17.44)"/><rect class="i" width="0.92" height="20.27" transform="translate(684.2 511.024) rotate(17.44)"/><rect class="i" width="0.92" height="20.27" transform="translate(691.57 511.024) rotate(17.44)"/><rect class="i" width="0.92" height="20.27" transform="translate(699.098 510.782) rotate(10.976)"/><rect class="i" width="0.92" height="20.27" transform="translate(705.44 510.71)"/><rect class="i" width="0.92" height="20.27" transform="translate(753.08 511.289) rotate(-17.44)"/><rect class="i" width="0.92" height="20.27" transform="translate(744.48 511.289) rotate(-17.44)"/><rect class="i" width="0.92" height="20.27" transform="translate(735.881 511.289) rotate(-17.44)"/><rect class="i" width="0.92" height="20.27" transform="translate(727.281 511.289) rotate(-17.44)"/><rect class="i" width="0.92" height="20.27" transform="translate(718.681 511.289) rotate(-17.44)"/><rect class="i" width="0.92" height="20.27" transform="translate(710.082 511.289) rotate(-17.44)"/><path class="k" d="M839.25,520.39c-.6.75-9.25,7.8-11.47,12.52s-5.07,11.95-6.7,14.21c-1.92,2.66-1.01,3.84,1.53.89a51.707,51.707,0,0,0,5.02-6.98c.2-.48-1.38,2.55-3.35,5.74-2.09,3.4-4.57,7.01-3.98,7.43,1.14.81,7.83-8.74,8.71-10.53a49.943,49.943,0,0,1-2.38,4.7c-1.2,2.08-2.9,4.34-2.62,5,.44,1.05,4.67-3.76,6.99-8.16.18-.03-.13,1.56-3.24,6.6-.31.51-.58,1.99.9.49,3.11-3.15,4.69-4.27,6.84-9.68,2.1-5.28,3.13-11.57,5.81-14.94Z"/><path class="l" d="M812.68,537.13l13.58,16.72a2.2,2.2,0,0,0,3.11.36l7.57-6.34a.233.233,0,0,0,.07-.07,2.257,2.257,0,0,0,.17-3.09L823.62,528a2.2,2.2,0,0,0-3.11-.36l-7.07,5.91-.5.42A2.251,2.251,0,0,0,812.68,537.13Z"/><path class="m" d="M813.06,536.76l13.69,16.65a2.271,2.271,0,0,0,3.2.31l7.38-6.1a2.264,2.264,0,0,0,.23-3.13l-13.69-16.65a2.271,2.271,0,0,0-3.2-.31l-7.38,6.1A2.265,2.265,0,0,0,813.06,536.76Z"/><path class="n" d="M814.39,536.72l11.83,14.38a1.956,1.956,0,0,0,2.76.27l6.38-5.27a1.953,1.953,0,0,0,.2-2.7l-11.83-14.38a1.956,1.956,0,0,0-2.76-.27l-6.38,5.27A1.961,1.961,0,0,0,814.39,536.72Z"/><circle class="o" cx="0.76" cy="0.76" r="0.76" transform="translate(832.18 548.87)"/><path class="k" d="M830.35,529.69s-5.84,2.56-8.23,6.94c-1.42,2.6-2.1,2.29-2.47,2.68-1.25,1.31,2.19.85,3.78-1.22,1.29-1.69,4.93-1.57,6.04-2.47s3.61-3.86,3.47-4.88S830.35,529.69,830.35,529.69Z"/><path class="p" d="M974.71,592.1s-10.21,105.4-5.87,107.21c7.79,3.31,38.31,14.12,4.66,11.74-17.28,1.04-16.01-2.82-16.28-6.09-.22-2.67.29-97-.42-104.34-.16-1.64-.26-2.64-.26-2.64Z"/><path class="q" d="M903.47,582.24s55.17,89.92,52.26,93.62c-5.2,6.68-26.59,30.98,1.64,12.53,15.6-7.5,12.62-10.26,11.26-13.25-1.11-2.44-9.27-21.12-12.22-27.88-.66-1.51-37.82-75.17-37.82-75.17Z"/><path class="r" d="M945.24,320.11s-.9,10.04,5.29,15.6-14.28,0-14.28,0,3.81-9.62,2.95-15.6C938.36,314.13,945.24,320.11,945.24,320.11Z"/><ellipse class="q" cx="10.83" cy="14.78" rx="10.83" ry="14.78" transform="translate(931.15 294.45)"/><path class="j" d="M1012.61,416.74c-.18,2.8-2.44,13.2-5.63,24.5-.94,3.37-1.97,6.82-3.04,10.18-1.31,4.09-2.69,8.03-4.09,11.51-2.71,6.75-5.5,11.76-7.92,12.74-8.18,3.29-69.92,7.81-82.61,1.75-.3-.22-.62-.46-.92-.72-4.76-3.87-9.93-11.53-12.67-18.69,0-.01-7.3-20.57-8.79-24.76-.02-.04-.02-.07-.04-.11-.05-.16-.11-.32-.16-.47-.02-.06-.04-.11-.06-.16-7.68,26.23-28.13,83.85-44.66,102.11-1.74,1.92-9.72-8.84-9.72-8.84s-13.35-68.95,21.48-141.81c16.4-34.3,45.66-49.94,64.34-54.1,8.09-1.8,14.19-1.45,16.42.48a12.1,12.1,0,0,0,7.56,2.94,16.441,16.441,0,0,0,4.24-.39,21.019,21.019,0,0,0,4.5-1.53c.69-.32,1.09-.55,1.09-.55a43.888,43.888,0,0,1,11.43.68C1005.63,339.78,1012.99,410.65,1012.61,416.74Z"/><path class="s" d="M906.49,474.99a6.725,6.725,0,0,0,3.79,1.75c8.9.17,47.36.83,68.22-.37,7.36-.42,12.53-1.08,13.44-2.07a.452.452,0,0,1-.01.08c-.05,1.15-.71,14.31-1.64,31.57-1.83,34.06,1.69,82.85,5.81,97.66.89,3.2-46.89-1.65-46.89-1.65-.13-35.15,3.2-96.86,1.05-99.63-2.62-3.37-6.87,50.92-11.74,96.34-18.92,4.94-48.88,1.94-48.54,0C894.09,575.64,906.49,474.99,906.49,474.99Z"/><path class="t" d="M886.69,432.51c.02.06.04.11.06.16a3.238,3.238,0,0,1,.16.47c.02.03.02.07.04.11,1.49,4.19,8.79,24.75,8.79,24.76,2.74,7.17,7.91,14.82,12.67,18.69-3.23-11.71-13.31-45.64-12.92-59.31C893.55,430.56,886.69,432.5,886.69,432.51Z"/><path class="t" d="M1006.98,441.24c-.94,3.37-1.97,6.82-3.04,10.18-1.31,4.09-2.69,8.03-4.09,11.51-24.18-28.95-10.99-68.31-10.99-68.31s10.22,34.17,10.32,35.13C999.22,430.1,1002.62,435.02,1006.98,441.24Z"/><path class="t" d="M942.81,335.71c.03.98-.49,1.62-2.06,1.41-4.9-.67-10.44-.53-14.46,1.32a3.417,3.417,0,0,1-3.31-.14c-2.57-1.51-4.17-6-4.8-7.99a1.392,1.392,0,0,1-.07-.44c8.09-1.8,14.19-1.45,16.42.48a12.1,12.1,0,0,0,7.56,2.94A6.445,6.445,0,0,1,942.81,335.71Z"/><path class="u" d="M966.62,668.54c-.56-1.43-9.95,3.97-10.42,5.64s-17.15,16.07-13.66,21.46,27.16-13.57,28.96-14.74S967.73,671.34,966.62,668.54Z"/><path class="u" d="M956.61,695.75c-.2-1.52,12.76.41,13.98,1.65s20.09,6.37,19.67,12.78-30.33,1.37-32.47,1.22S957.01,698.74,956.61,695.75Z"/><g class="v"><path d="M941.99,477.08c-.14-.01-.29-.02-.43-.04C941.57,477.04,941.72,477.05,941.99,477.08Z"/><path class="w" d="M941.99,477.08c11.46.91,36.51-.71,36.51-.71,7.36-.42,12.53-1.08,13.44-2.07a.452.452,0,0,1-.01.08c-.05,1.15-.71,14.31-1.64,31.57a8.964,8.964,0,0,1-1.2-.14,9.366,9.366,0,0,1-6.06-4.31,21.033,21.033,0,0,1-2.36-4.93C972.12,480.33,945.67,477.41,941.99,477.08Z"/></g><path class="s" d="M937.91,300.75s18.75,10.4,13.18-6.3C947.24,282.91,925.12,293.31,937.91,300.75Z"/><path class="s" d="M940.62,296.76s-10.49,6.22-9.48,12.47c0,0-2.31-18.64,8.12-19.11s14.47.54,13.54,20.25C952.81,310.37,949.78,294.69,940.62,296.76Z"/><path class="s" d="M938.81,290.24s.53-5.81,6.29-4.99,8.23,4.11,9.05,7.4,1.65,5.76,2.47,5.76c0,0-2.47,2.47-3.29,1.65,0,0,2.14,5.92-.58,10.77,0,0-1.07-7.48-5.18-8.31C943.45,301.71,938.81,290.24,938.81,290.24Z"/><path class="s" d="M939.33,290.19s-4.11-2.47-8.23,3.29q-2.475,4.935-2.47,4.94s.82.82,2.47,0c0,0-.75,5.8.04,9.07l2.43-9.89Z"/><path class="k" d="M1066.07,526.99c.43.7,7.09,7.6,8.51,11.86s3.1,10.71,4.26,12.81c1.36,2.47.47,3.38-1.4.6a44.741,44.741,0,0,1-3.57-6.47c-.12-.43.92,2.31,2.27,5.24,1.44,3.11,3.19,6.45,2.64,6.75-1.06.58-5.79-8.26-6.35-9.88a41.52,41.52,0,0,0,1.55,4.25c.81,1.89,2.04,4,1.73,4.54-.48.85-3.6-3.69-5.13-7.68-.15-.04-.05,1.34,2.09,5.96.21.46.29,1.76-.82.33-2.34-3-3.56-4.12-4.85-8.96-1.25-4.72-1.49-10.19-3.43-13.34Z"/><path class="k" d="M1073.66,536.85s4.72,2.78,6.32,6.76c.95,2.37,1.55,2.17,1.84,2.54.93,1.25-1.96.5-3.1-1.43-.93-1.57-4.05-1.84-4.9-2.72s-2.69-3.66-2.47-4.52S1073.66,536.85,1073.66,536.85Z"/><line class="x" x1="12.13" y2="126.87" transform="translate(902.72 474.16)"/><line class="x" x1="12.04" y2="124.66" transform="translate(914.85 476.7)"/><line class="x" x1="10.01" y2="123.79" transform="translate(928.65 476.7)"/><line class="x" x2="0.25" y2="25.64" transform="translate(950 476.7)"/><line class="x" x1="2.32" y2="126.29" transform="translate(960.26 476.7)"/><line class="x" x1="0.65" y2="127.35" transform="translate(972.76 476.62)"/><line class="x" x2="2.45" y2="128.09" transform="translate(984.05 476.62)"/><path class="x" d="M904.85,488.19s68.32,3.23,86.38,0"/><path class="x" d="M950.25,502.34c-23.91,5.41-46.78-3.14-46.78-3.14"/><path class="x" d="M950,500.72s21.57,6.06,40.52.94"/><path class="x" d="M902.3,508.49s17.23,9.02,45.21,4.42"/><path class="x" d="M900.89,519.56s26.81,8.18,45.3,3.97"/><path class="x" d="M899.47,530.56s13.65,10.7,45.31,5.9"/><path class="x" d="M897.83,543.22a66.416,66.416,0,0,0,45.92,3.46"/><path class="x" d="M896.3,554.81s14.75,10.47,46.21,4.39"/><path class="x" d="M894.7,566.69s20.35,10.64,46.87,2.04"/><path class="x" d="M893.41,575.97s12.01,11.55,47.14,2.99"/><path class="x" d="M891.91,586.49s19.42,10.23,47.61,2.66"/><path class="x" d="M950.98,512.3s9.01,7.44,39.54,1.92"/><path class="x" d="M951.21,523.5s12.65,5.9,38.58,1.24"/><path class="x" d="M950.6,535.93s19.53,5.88,39.2,0"/><path class="x" d="M950.32,546.24s18.98,8.44,39.86,0"/><path class="x" d="M950,557.56s18.07,6.34,40.7,0"/><path class="x" d="M949.7,568.43s15.23,6.84,41.71,0"/><path class="x" d="M949.7,578.05s18.09,9.32,42.63.99"/><path class="x" d="M949.27,590.07a83.662,83.662,0,0,0,44.41.51"/><path class="j" d="M992.33,374.85s-53.04-41.98-40.4-44.03,33.34,2.93,33.34,2.93c18.68,4.15,36.52,18.19,52.91,52.49,34.83,72.86,32.9,143.42,32.9,143.42s-8.07,10.82-9.72,8.84c-30.77-36.82-50.56-73.78-58.91-98.65C994.11,414.96,992.33,374.85,992.33,374.85Z"/><path class="h" d="M468.24,372.49q5.94-.72,12.9,8.54,6.39,8.715,11.55,23.18a129.368,129.368,0,0,1,7.23,34.82q1.74,25.785-10.93,30.31a16.558,16.558,0,0,1-5.29.75c-3.57-.08-5.51-.1-5.84-.07q-3.465-.15-11.3-.14-6.285.09-14.87-12.64a128.454,128.454,0,0,1-14.04-28.74q-5.955-16.71-6.68-29.72-.9-14.58,5.46-19.76a3.643,3.643,0,0,1,.86-.43,4.14,4.14,0,0,1,2.15-.01c.91.18,1.52.13,1.84-.15a21.816,21.816,0,0,1,6.33-3.52,37.672,37.672,0,0,1,10.24-1.76Q467.165,372.64,468.24,372.49Zm-11.56,12.22q-5.385,1.92-4.09,15.11a105.229,105.229,0,0,0,5.76,23.6,120.94,120.94,0,0,0,10.27,21.36q6.585,11.04,8.83,10.24,4.365-1.56,2.3-16.24a157.134,157.134,0,0,0-7.64-28.87,116.336,116.336,0,0,0-8.14-18.58Q459.47,383.71,456.68,384.71Z"/><path class="c" d="M199,278V485l-51,8.1-16,2.53L73,505V258l59,9.37,16,2.53Z"/><path class="h" d="M199,278l1.63,50.78.8,25.68c.12,4.3.32,8.57.38,12.91s-.01,8.73,0,13.09L202,485v2.56l-2.53.4-126,20-3.47.55V254.49l3.47.55,15.75,2.5c5.25.84,10.5,1.67,15.76,2.44s10.47,1.86,15.7,2.83l15.67,2.99,15.76,3,15.88,3.12C178.52,273.98,188.81,276.08,199,278Zm0,0c-10.81-1.42-21.51-2.65-31.99-3.92l-15.62-1.89-15.75-1.98-15.83-2.01c-5.27-.69-10.56-1.27-15.8-2.17s-10.49-1.74-15.74-2.56l-15.75-2.5L76,258V505l-3.47-2.96,126-20L196,485l.18-102.46c.01-4.27-.07-8.5,0-12.79s.26-8.64.38-12.96l.8-26.07Z"/><path class="h" d="M181.89,330.56,141.76,451.31a3.945,3.945,0,0,1-4.98,2.5L92.99,439.26a3.943,3.943,0,0,1-2.5-4.99L131.3,311.48a3.953,3.953,0,0,1,4.98-2.5l41.75,13.88A6.077,6.077,0,0,1,181.89,330.56Z"/><path class="c" d="M108.68,426.83l-1.33,4a1.22,1.22,0,0,1-1.54.77l-4-1.33a1.221,1.221,0,0,1-.78-1.54l1.33-4a1.227,1.227,0,0,1,1.55-.77l4,1.33A1.228,1.228,0,0,1,108.68,426.83Z"/><path class="c" d="M112.07,416.64l-1.33,4a1.22,1.22,0,0,1-1.54.77l-4-1.33a1.221,1.221,0,0,1-.78-1.54l1.33-4a1.227,1.227,0,0,1,1.55-.77l4,1.33A1.224,1.224,0,0,1,112.07,416.64Z"/><path class="c" d="M115.45,406.45l-1.33,4a1.22,1.22,0,0,1-1.54.77l-4-1.33a1.226,1.226,0,0,1-.78-1.54l1.33-4a1.227,1.227,0,0,1,1.55-.77l4,1.33A1.208,1.208,0,0,1,115.45,406.45Z"/><path class="c" d="M118.84,396.26l-1.33,4a1.22,1.22,0,0,1-1.54.77l-4-1.33a1.226,1.226,0,0,1-.78-1.54l1.33-4a1.227,1.227,0,0,1,1.55-.77l4,1.33A1.224,1.224,0,0,1,118.84,396.26Z"/><path class="c" d="M122.23,386.07l-1.33,4a1.22,1.22,0,0,1-1.54.77l-4-1.33a1.221,1.221,0,0,1-.78-1.54l1.33-4a1.219,1.219,0,0,1,1.55-.77l4,1.33A1.22,1.22,0,0,1,122.23,386.07Z"/><path class="c" d="M125.62,375.87l-1.33,4a1.22,1.22,0,0,1-1.54.77l-4-1.33a1.226,1.226,0,0,1-.78-1.54l1.33-4a1.227,1.227,0,0,1,1.55-.77l4,1.33A1.232,1.232,0,0,1,125.62,375.87Z"/><path class="c" d="M129,365.68l-1.33,4a1.22,1.22,0,0,1-1.54.77l-4-1.33a1.221,1.221,0,0,1-.78-1.54l1.33-4a1.227,1.227,0,0,1,1.55-.77l4,1.33A1.216,1.216,0,0,1,129,365.68Z"/><path class="c" d="M132.39,355.49l-1.33,4a1.216,1.216,0,0,1-1.54.77l-4-1.33a1.221,1.221,0,0,1-.78-1.54l1.33-4a1.227,1.227,0,0,1,1.55-.77l4,1.33A1.224,1.224,0,0,1,132.39,355.49Z"/><path class="c" d="M135.43,346.33l-1.33,4a1.22,1.22,0,0,1-1.54.77l-4-1.33a1.221,1.221,0,0,1-.78-1.54l1.33-4a1.227,1.227,0,0,1,1.55-.77l4,1.33A1.216,1.216,0,0,1,135.43,346.33Z"/><path class="c" d="M138.59,336.84l-1.33,4a1.224,1.224,0,0,1-1.54.77l-4-1.33a1.221,1.221,0,0,1-.78-1.54l1.33-4a1.227,1.227,0,0,1,1.55-.77l4,1.33A1.22,1.22,0,0,1,138.59,336.84Z"/><path class="c" d="M143.87,320.95l-3.08,9.25c-.49,1.48-1.41,2.5-2.04,2.29l-4-1.33c-.64-.21-.76-1.58-.27-3.06l3.08-9.25c.49-1.48,1.41-2.51,2.05-2.29l4,1.33C144.24,318.1,144.36,319.47,143.87,320.95Z"/><path class="c" d="M117.15,434.84l-1.33,4a1.212,1.212,0,0,1-1.54.77l-4-1.33a1.208,1.208,0,0,1-.77-1.54l1.33-4a1.216,1.216,0,0,1,1.54-.77l4,1.33A1.224,1.224,0,0,1,117.15,434.84Z"/><path class="c" d="M120.53,424.65l-1.33,4a1.22,1.22,0,0,1-1.54.77l-4-1.33a1.208,1.208,0,0,1-.77-1.54l1.33-4a1.216,1.216,0,0,1,1.54-.77l4,1.33A1.208,1.208,0,0,1,120.53,424.65Z"/><path class="c" d="M123.92,414.46l-1.33,4a1.212,1.212,0,0,1-1.54.77l-4-1.33a1.208,1.208,0,0,1-.77-1.54l1.33-4a1.216,1.216,0,0,1,1.54-.77l4,1.33A1.224,1.224,0,0,1,123.92,414.46Z"/><path class="c" d="M127.31,404.27l-1.33,4a1.22,1.22,0,0,1-1.54.77l-4-1.33a1.208,1.208,0,0,1-.77-1.54l1.33-4a1.216,1.216,0,0,1,1.54-.77l4,1.33A1.224,1.224,0,0,1,127.31,404.27Z"/><path class="c" d="M130.7,394.08l-1.33,4a1.22,1.22,0,0,1-1.54.77l-4-1.33a1.208,1.208,0,0,1-.77-1.54l1.33-4a1.208,1.208,0,0,1,1.54-.77l4,1.33A1.22,1.22,0,0,1,130.7,394.08Z"/><path class="c" d="M134.08,383.89l-1.33,4a1.22,1.22,0,0,1-1.54.77l-4-1.33a1.208,1.208,0,0,1-.77-1.54l1.33-4a1.208,1.208,0,0,1,1.54-.77l4,1.33A1.2,1.2,0,0,1,134.08,383.89Z"/><path class="c" d="M137.47,373.69l-1.33,4a1.22,1.22,0,0,1-1.54.77l-4-1.33a1.208,1.208,0,0,1-.77-1.54l1.33-4a1.216,1.216,0,0,1,1.54-.77l4,1.33A1.224,1.224,0,0,1,137.47,373.69Z"/><path class="c" d="M140.86,363.5l-1.33,4a1.212,1.212,0,0,1-1.54.77l-4-1.33a1.208,1.208,0,0,1-.77-1.54l1.33-4a1.224,1.224,0,0,1,1.54-.77l4,1.33A1.224,1.224,0,0,1,140.86,363.5Z"/><path class="c" d="M144.25,353.31l-1.33,4a1.212,1.212,0,0,1-1.54.77l-4-1.33a1.212,1.212,0,0,1-.77-1.54l1.33-4a1.208,1.208,0,0,1,1.54-.77l4,1.33A1.224,1.224,0,0,1,144.25,353.31Z"/><path class="c" d="M147.63,343.12l-1.33,4a1.22,1.22,0,0,1-1.54.77l-4-1.33a1.208,1.208,0,0,1-.77-1.54l1.33-4a1.224,1.224,0,0,1,1.54-.77l4,1.33A1.216,1.216,0,0,1,147.63,343.12Z"/><path class="c" d="M127.17,438.17l-1.33,4a1.221,1.221,0,0,1-1.54.78l-4-1.33a1.208,1.208,0,0,1-.77-1.54l1.33-4a1.216,1.216,0,0,1,1.54-.77l4,1.33A1.209,1.209,0,0,1,127.17,438.17Z"/><path class="c" d="M130.56,427.98l-1.33,4a1.216,1.216,0,0,1-1.54.77l-4-1.33a1.208,1.208,0,0,1-.77-1.54l1.33-4a1.216,1.216,0,0,1,1.54-.77l4,1.33A1.216,1.216,0,0,1,130.56,427.98Z"/><path class="c" d="M133.94,417.79l-1.33,4a1.208,1.208,0,0,1-1.54.77l-4-1.33a1.208,1.208,0,0,1-.77-1.54l1.33-4a1.216,1.216,0,0,1,1.54-.77l4,1.33A1.208,1.208,0,0,1,133.94,417.79Z"/><path class="c" d="M137.33,407.6l-1.33,4a1.208,1.208,0,0,1-1.54.77l-4-1.33a1.208,1.208,0,0,1-.77-1.54l1.33-4a1.216,1.216,0,0,1,1.54-.77l4,1.33A1.216,1.216,0,0,1,137.33,407.6Z"/><path class="c" d="M140.72,397.41l-1.33,4a1.208,1.208,0,0,1-1.54.77l-4-1.33a1.208,1.208,0,0,1-.77-1.54l1.33-4a1.208,1.208,0,0,1,1.54-.77l4,1.33A1.216,1.216,0,0,1,140.72,397.41Z"/><path class="c" d="M144.11,387.22l-1.33,4a1.216,1.216,0,0,1-1.54.77l-4-1.33a1.208,1.208,0,0,1-.77-1.54l1.33-4a1.208,1.208,0,0,1,1.54-.77l4,1.33A1.216,1.216,0,0,1,144.11,387.22Z"/><path class="c" d="M147.49,377.02l-1.33,4a1.216,1.216,0,0,1-1.54.77l-4-1.33a1.208,1.208,0,0,1-.77-1.54l1.33-4a1.216,1.216,0,0,1,1.54-.77l4,1.33A1.208,1.208,0,0,1,147.49,377.02Z"/><path class="c" d="M150.88,366.83l-1.33,4a1.208,1.208,0,0,1-1.54.77l-4-1.33a1.208,1.208,0,0,1-.77-1.54l1.33-4a1.224,1.224,0,0,1,1.54-.77l4,1.33A1.22,1.22,0,0,1,150.88,366.83Z"/><path class="c" d="M154.27,356.64l-1.33,4a1.208,1.208,0,0,1-1.54.77l-4-1.33a1.212,1.212,0,0,1-.77-1.54l1.33-4a1.208,1.208,0,0,1,1.54-.77l4,1.33A1.216,1.216,0,0,1,154.27,356.64Z"/><path class="c" d="M157.66,346.45l-1.33,4a1.216,1.216,0,0,1-1.54.77l-4-1.33a1.208,1.208,0,0,1-.77-1.54l1.33-4a1.224,1.224,0,0,1,1.54-.77l4,1.33A1.224,1.224,0,0,1,157.66,346.45Z"/><path class="c" d="M154.01,323.94l-2.69,8.09c-.43,1.29-1.3,2.17-1.94,1.96l-4-1.33c-.64-.21-.81-1.44-.38-2.73l2.69-8.09c.43-1.29,1.29-2.17,1.93-1.95l4,1.33C154.26,321.43,154.43,322.65,154.01,323.94Z"/><path class="c" d="M163.77,328.06l-3.59,10.82c-.57,1.73-1.56,2.97-2.2,2.76l-4-1.33c-.64-.21-.69-1.8-.11-3.52l3.59-10.82c.57-1.72,1.56-2.95,2.2-2.74l4,1.33C164.29,324.76,164.34,326.34,163.77,328.06Z"/><path class="c" d="M138.75,436.83l-1.33,4a1.208,1.208,0,0,1-1.54.77l-4-1.33a1.208,1.208,0,0,1-.77-1.54l1.33-4a1.22,1.22,0,0,1,1.54-.77l4,1.33A1.224,1.224,0,0,1,138.75,436.83Z"/><path class="c" d="M141.56,428.36l-1.33,4a1.216,1.216,0,0,1-1.54.77l-4-1.33a1.208,1.208,0,0,1-.77-1.54l1.33-4a1.216,1.216,0,0,1,1.54-.77l4,1.33A1.232,1.232,0,0,1,141.56,428.36Z"/><path class="c" d="M144.37,419.9l-1.33,4a1.216,1.216,0,0,1-1.54.77l-4-1.33a1.216,1.216,0,0,1-.77-1.54l1.33-4a1.22,1.22,0,0,1,1.54-.77l4,1.33A1.216,1.216,0,0,1,144.37,419.9Z"/><path class="c" d="M155.83,385.43l-8.25,24.82a1.216,1.216,0,0,1-1.54.77l-4-1.33a1.208,1.208,0,0,1-.77-1.54l8.25-24.82a1.216,1.216,0,0,1,1.54-.77l4,1.33A1.232,1.232,0,0,1,155.83,385.43Z"/><path class="c" d="M159.07,375.67l-1.33,4a1.216,1.216,0,0,1-1.54.77l-4-1.33a1.208,1.208,0,0,1-.77-1.54l1.33-4a1.216,1.216,0,0,1,1.54-.77l4,1.33A1.22,1.22,0,0,1,159.07,375.67Z"/><path class="c" d="M162.46,365.48l-1.33,4a1.216,1.216,0,0,1-1.54.77l-4-1.33a1.208,1.208,0,0,1-.77-1.54l1.33-4a1.216,1.216,0,0,1,1.54-.77l4,1.33A1.228,1.228,0,0,1,162.46,365.48Z"/><path class="c" d="M167.57,350.1l-1.33,4a1.216,1.216,0,0,1-1.54.77l-4-1.33a1.208,1.208,0,0,1-.77-1.54l1.33-4a1.216,1.216,0,0,1,1.54-.77l4,1.33A1.224,1.224,0,0,1,167.57,350.1Z"/><path class="c" d="M170.38,341.64l-1.33,4a1.224,1.224,0,0,1-1.54.77l-4-1.33a1.208,1.208,0,0,1-.77-1.54l1.33-4a1.216,1.216,0,0,1,1.54-.77l4,1.33A1.208,1.208,0,0,1,170.38,341.64Z"/><path class="c" d="M173.19,333.18l-1.33,4a1.216,1.216,0,0,1-1.54.77l-4-1.33a1.208,1.208,0,0,1-.77-1.54l1.33-4a1.212,1.212,0,0,1,1.54-.77l4,1.33A1.208,1.208,0,0,1,173.19,333.18Z"/><path class="c" d="M1186,305V512l51,8.1,16,2.53,59,9.37V285l-59,9.37-16,2.53Z"/><path class="h" d="M1186,305l1.63,52.72.8,26.07c.12,4.33.32,8.68.38,12.96s-.01,8.52,0,12.79L1189,512l-2.53-2.96,126,20L1309,532V285l3.47,2.96-15.75,2.5c-5.25.83-10.5,1.66-15.74,2.56s-10.53,1.48-15.8,2.17l-15.83,2.01-15.75,1.98-15.62,1.89C1207.51,302.35,1196.81,303.58,1186,305Zm0,0c10.19-1.92,20.48-4.02,31.01-6.08l15.88-3.12,15.76-3,15.67-2.99c5.23-.98,10.44-2.06,15.7-2.83s10.51-1.6,15.76-2.44l15.75-2.5,3.47-.55V535.51l-3.47-.55-126-20-2.53-.4V512l.18-104.54c.01-4.36-.07-8.75,0-13.09s.26-8.61.38-12.91l.8-25.68Z"/><path class="s" d="M1254.94,435.85a.971.971,0,0,1-.42-.43c-1.1-2.25-4.79-3.95-8.7-5.75-5.35-2.46-11.41-5.25-13.28-10.55-1.11-3.15-.63-6.73,1.47-10.94,6.3-12.68,16.07-12.65,24.68-12.63,7.46.02,13.35.04,16.19-7.48a6.831,6.831,0,0,0-.01-5.78c-2.43-4.72-11.36-7.08-20.81-9.57-11.01-2.91-22.39-5.92-26.09-13.28-1.67-3.32-1.59-7.3.22-11.83a.976.976,0,0,1,1.81.73c-1.62,4.04-1.72,7.38-.29,10.22,3.3,6.57,14.25,9.47,24.84,12.27,9.89,2.61,19.22,5.08,22.05,10.57a8.806,8.806,0,0,1,.1,7.37c-3.32,8.78-10.47,8.76-18.03,8.74-8.44-.02-17.16-.05-22.93,11.54-1.85,3.72-2.3,6.8-1.37,9.42,1.6,4.52,7.26,7.13,12.25,9.42,4.23,1.95,8.23,3.79,9.64,6.67a.982.982,0,0,1-.45,1.31A.923.923,0,0,1,1254.94,435.85Z"/><path class="s" d="M1250.22,459.95l10.14,19.85a15.437,15.437,0,0,0,21.25,5.03l6.24-3.85a15.437,15.437,0,0,0,5.03-21.25l-13.2-17.96Z"/><path class="h" d="M1251.23,435.6c-7.26,4.48-7.65,12.85-3.17,20.1l2.17,4.25,14.73-9.09-10.61-17.18Z"/><path class="h" d="M1276.86,437.92c-4.48-7.25-12.14-10.65-19.4-6.17l-3.12,1.93,10.61,17.18,14.73-9.1Z"/><path class="y" d="M1266.41,451.69l-1.37.84a1.229,1.229,0,0,1-1.59-.62l-6.33-10.25a1.243,1.243,0,0,1,.15-1.71l1.37-.84a1.235,1.235,0,0,1,1.59.63l6.33,10.25A1.231,1.231,0,0,1,1266.41,451.69Z"/><rect class="y" width="1.03" height="6.88" transform="matrix(0.851, -0.525, 0.525, 0.851, 1253.895, 434.002)"/><ellipse class="z" cx="4.25" cy="9.12" rx="4.25" ry="9.12" transform="translate(1272.118 453.941) rotate(-35.562)"/></svg>