<svg xmlns="http://www.w3.org/2000/svg" width="1366.261" height="768.368" viewBox="0 0 1366.261 768.368"><g transform="translate(0 0)"><path d="M435.644-264.643c-.24-.038-.48-.076-.707-.1-.3-.051-.62-.1-.922-.151C434.557-264.809,435.1-264.732,435.644-264.643Z" transform="translate(255.697 629.184)" fill="#adcb37"/><path d="M434.613-263.977c-.051-.416-.089-.822-.125-1.225,0,.013.013.038.013.049C434.539-264.76,434.575-264.368,434.613-263.977Z" transform="translate(255.976 629.004)" fill="#adcb37"/><path d="M436.389-264.523c-.605-.1-1.2-.189-1.794-.277l-.922-.152c.542.089,1.085.164,1.629.253C435.656-264.648,436.023-264.585,436.389-264.523Z" transform="translate(255.496 629.151)" fill="#50c6d6"/><path d="M435.7-264.643c-.569-.089-1.138-.176-1.718-.253.24.038.493.064.745.1C435.049-264.745,435.376-264.694,435.7-264.643Z" transform="translate(255.681 629.184)" fill="#50c6d6"/><path d="M434.613-263.977c-.051-.416-.089-.822-.125-1.225,0,.013.013.038.013.049C434.539-264.76,434.575-264.368,434.613-263.977Z" transform="translate(255.976 629.004)" fill="#50c6d6"/><path d="M434.613-263.977c-.051-.416-.089-.822-.125-1.225,0,.013.013.038.013.049C434.539-264.76,434.575-264.368,434.613-263.977Z" transform="translate(255.976 629.004)" fill="#005ea8"/><path d="M434.613-263.977c-.051-.416-.089-.822-.125-1.225,0,.013.013.038.013.049C434.539-264.76,434.575-264.368,434.613-263.977Z" transform="translate(255.976 629.004)" fill="#925ea8"/><path d="M434.591-264.98c.013.178.038.342.051.518C434.415-264.6,434.44-264.764,434.591-264.98Z" transform="translate(255.968 629.135)" fill="#e3f5f6"/><path d="M435.3-264.7c.354.051.721.114,1.087.176-.605-.1-1.2-.189-1.794-.277l-.922-.152C434.215-264.863,434.758-264.788,435.3-264.7Z" transform="translate(255.496 629.151)" fill="#e3f5f6"/><path d="M434.732-264.8c.316.051.644.1.973.153-.569-.089-1.138-.176-1.718-.253C434.227-264.858,434.48-264.832,434.732-264.8Z" transform="translate(255.681 629.184)" fill="#e3f5f6"/><path d="M434.613-263.977c-.051-.416-.089-.822-.125-1.225,0,.013.013.038.013.049C434.539-264.76,434.575-264.368,434.613-263.977Z" transform="translate(255.976 629.004)" fill="#e3f5f6"/><path d="M434.633-264.968c.089.24.064.392-.176.48C434.521-264.652,434.584-264.815,434.633-264.968Z" transform="translate(255.958 629.142)" fill="#e3f5f6"/><g transform="translate(-0.597 -86.166)"><path d="M611.986-31.352c2.363-4.55,3.806-7.248,5.179-9.983,4.914-9.792,4.9-9.784,15.815-8.3,2.962.4,5.94.7,9.107,1.071-.218-1-.18-1.487-.4-1.751-4.178-4.958-12.228-8.175-12.464-14.41-.211-5.6,4.739-11.385,8.028-18.407-5.339,2.667-9.711,4.233-13.357,6.822-4.667,3.318-7.819,2.149-11.273-1.667-2.926-3.232-6.361-6-10.752-10.074,1.074,6.768,1.713,12.035,2.8,17.2.661,3.135-.175,4.879-3.024,6.3-4.685,2.336-9.188,5.034-15.051,8.292,6.967,1.265,12.591,2.377,18.248,3.277,3.27.52,4.734,1.465,4.594,5.481C609.278-42.811,610.832-38.071,611.986-31.352Z" transform="translate(345.591 693.374)" fill="#947dce"/><path d="M295.041-92.147c.543-.437,1.093-.837,1.6-1.29,4.175-3.75,8.292-7.567,12.535-11.24,1.591-1.376,1.537-2.3.1-3.781-3.814-3.917-7.523-7.941-11.154-12.027-1.193-1.341-1.886-1.462-3.274-.173-4.2,3.906-8.569,7.637-12.886,11.42-.976.853-1.534,1.57-.364,2.81,4.145,4.4,8.2,8.882,12.3,13.325A12.558,12.558,0,0,0,295.041-92.147Z" transform="translate(165.512 673.63)" fill="#dc6b84"/><path d="M527.105-263.875c.545-.437,1.093-.839,1.6-1.292,4.176-3.75,8.294-7.566,12.537-11.238,1.589-1.376,1.537-2.3.1-3.782-3.814-3.916-7.523-7.939-11.154-12.027-1.193-1.341-1.886-1.462-3.274-.172-4.2,3.906-8.569,7.636-12.888,11.42-.974.853-1.532,1.569-.364,2.808,4.146,4.4,8.2,8.883,12.3,13.327A12.728,12.728,0,0,0,527.105-263.875Z" transform="translate(302.232 572.456)" fill="#7fd1d8"/><text transform="translate(672.597 394.483)" fill="#47a8a8" font-size="43" font-family="BPGArial, BPG Arial"><tspan x="-76.93" y="0">ყოჩაღ!</tspan><tspan x="-293.189" y="51">სავარჯიშო შესრულებულია</tspan></text></g><g transform="translate(0 -242.466)"><path d="M214.156-228.185c5.357.014,8.634-5.041,6.225-9.571-4.442-8.353-11.706-13.492-20.514-16.254-3.644-1.143-7.876-.938-9.13,3.925-1.087,4.222.545,7.145,5.106,8.449,5.645,1.616,9.757,5.543,13.029,10.242C210.322-229.312,211.847-227.968,214.156-228.185Z" transform="translate(112.181 635.258)" fill="#ffe9b9"/><g transform="translate(0 242.466)"><path d="M46.542-158.717l-1.683.259q-.51,8.586-1.022,17.175l1.363.146Q45.87-149.927,46.542-158.717Z" transform="translate(25.826 449.273)" fill="#95339e"/><path d="M53.8-223.372q-.789.038-1.578.078c-1.781,4.651-3.523,9.317-5.352,13.95a47.821,47.821,0,0,0-2.377,28.929c1.605-.741,1.071-1.818.982-2.566a55.421,55.421,0,0,1,5.379-31.543C52.205-217.294,52.838-220.413,53.8-223.372Z" transform="translate(25.49 411.182)" fill="#95339e"/><path d="M45.524-177.384c.877,9.284-1.427,18.574.238,27.875,2.231-9.988,1.2-20.176,1.716-30.262-.2-1.371-.405-2.746-.658-4.453C45.029-181.924,46.166-179.5,45.524-177.384Z" transform="translate(26.594 434.246)" fill="#95339e"/><path d="M83.735-20.047c2.843-11.059,8.554-21.379,9.074-33.045C91.131-41.545,84.3-31.542,82.521-20.051Q83.129-20.048,83.735-20.047Z" transform="translate(48.617 511.502)" fill="#95339e"/><g transform="translate(113.416 128.456)"><circle cx="7.257" cy="7.257" r="7.257" transform="translate(213.796 37.232)" fill="#ffe9b9"/><path d="M189.453-81.818c-5.058-3.369-11.148-3.6-17.989-5.066a24.647,24.647,0,0,0,9.385-9.638c.979-1.643,1.708-3.208-.852-3.723-11.528-2.322-20.5-9.632-30.3-15.323-1.7-6.4-1.392-13.142-3.874-19.469-8.78-22.378-26.839-34.82-50.864-34.669-2.077.013-4.152-.013-6.228-.022-12.656-13.106-18.78-28.587-17.079-46.918,3.224-14.967,10.531-27.224,23.573-35.733,8.777-5.726,18.69-7.4,28.833-8.343,15.419,1.243,28.228,7.855,39.139,18.658a73.784,73.784,0,0,0,10.668,8.623c11.9,8.028,24.1,7.2,34.934-2.156,3.938-3.4,7.736-6.967,11.642-10.406,21.153-18.622,52.013-17.787,71.133,1.9,19.5,20.08,19.575,50.854.238,71.635-12.913,13.878-25.881,27.751-40.375,39.97-15.818,13.334-30.7,28.447-52.2,32.808-3.059.62-2.044,2.2-1.5,4.078,1.213,4.226,5.384,6.1,8.2,9.938-5.627.64-10.5,1.371-14.9,3.774ZM122.347-248.506c-.51,3.932,1.5,6.933,5.619,7.574a25.214,25.214,0,0,1,15.361,8.548c2.738,3.067,5.962,4.06,9.222,1.171,3.3-2.927,3.234-6.345.477-9.886-5.076-6.52-15.958-12.565-23.386-12.773C126.008-253.7,122.852-252.39,122.347-248.506Zm168.168,14.364c-4.442-8.353-11.706-13.492-20.514-16.254-3.644-1.143-7.876-.938-9.13,3.925-1.087,4.222.545,7.145,5.106,8.449,5.645,1.616,9.757,5.543,13.029,10.242,1.449,2.082,2.975,3.426,5.284,3.208C289.647-224.556,292.924-229.611,290.515-234.142Zm-130.337,4.376c-4.1-.178-6.743,2.311-6.809,6.345-.07,4.246,2.512,7.251,6.838,7.091,3.787-.14,6.379-2.584,6.523-6.781C166.764-227.56,164.1-229.6,160.178-229.765Zm138.866,13.829c-.11-3.731-2.064-6.972-6.407-6.994-4.084-.021-6.651,2.425-6.832,6.519-.184,4.192,2.317,6.395,6.32,6.876C296.363-209.7,299.168-211.767,299.044-215.937Z" transform="translate(-71.369 260.722)" fill="#ffc84f"/></g><path d="M101.623-166.171c-3.439,1.111-8.894-1.359-10.067,2.353-1.214,3.847,4.3,5.937,7.145,9.835-7.652-.143-14.305,5.46-21.692.334-2.053-1.425-4.825-.9-7.313-.783l-1.268-1.309a18.5,18.5,0,0,0,7.836-9.9C6.832-174.89-24.021-259.8,21.434-312.315c23.432-27.073,64.282-36.695,98.187-23.151,22.8,9.109,38.548,25.514,49.074,47.339,3.369,9.741,6.1,19.626,6.736,29.982A97.6,97.6,0,0,1,166.1-213.1c-10.143.939-20.057,2.617-28.833,8.343-13.042,8.51-20.349,20.767-23.573,35.733C109.662-168.1,105.545-167.437,101.623-166.171ZM112.09-313.715a53.791,53.791,0,0,1,28.692,23.828c2.206,3.7,5.386,5.408,9.411,2.867,3.965-2.5,3.874-6.1,1.688-9.78-8.281-13.945-19.972-23.842-35.316-29.213-5.087-1.781-9.23.982-9.265,5.772C107.181-316.807,109.1-314.794,112.09-313.715ZM154.4-268.683c3.954-.111,6.549-2.52,6.724-6.679.194-4.578-2.7-7.135-6.784-7.27-4.21-.14-6.8,2.559-7.116,7.291C147.721-271.323,150.02-268.559,154.4-268.683Z" transform="translate(0 341.555)" fill="#947dce"/><path d="M160.8-149.3c-1.7-6.4-1.392-13.142-3.874-19.469-8.78-22.378-26.839-34.82-50.864-34.669-2.077.013-4.152-.013-6.228-.022-26.207,5.517-41.8,22.92-44.825,49.236-3.952,34.34-2.676,68.649.213,102.932a52.229,52.229,0,0,0,38.362,46c7.827,2.1,8.03,2.6,3.393,9.254-.936,1.343-2.109,2.52-3.315,3.943,6.63,3.854,13.706,3.294,20.689,2.452,2.735-.331,4.655-2.045,2.276-5.238a20.219,20.219,0,0,1-1.5-3.388c-2-4.143-1.613-6.5,3.892-6.169,10.15.61,19.343-4.593,25.584-12.367,10.461-13.034,15.246-31.556,16.322-47.948C162.775-92.958,164.193-121.122,160.8-149.3Z" transform="translate(30.941 422.912)" fill="#e0635c"/><path d="M143.318-83.536l-1.684.257q-.508,8.589-1.022,17.175l1.365.146Q142.647-74.746,143.318-83.536Z" transform="translate(82.841 493.566)" fill="#95339e"/><path d="M150.574-148.192l-1.578.078c-1.781,4.651-3.523,9.317-5.352,13.95a47.833,47.833,0,0,0-2.377,28.929c1.605-.741,1.073-1.816.984-2.566a55.4,55.4,0,0,1,5.379-31.543C148.982-142.114,149.612-145.233,150.574-148.192Z" transform="translate(82.504 455.474)" fill="#95339e"/><path d="M142.3-102.2c.876,9.284-1.427,18.574.237,27.877,2.233-9.989,1.2-20.177,1.716-30.264-.2-1.371-.405-2.744-.658-4.453C141.8-106.743,142.941-104.316,142.3-102.2Z" transform="translate(83.609 478.538)" fill="#95339e"/><path d="M19.518-237.1l1.249.221Q20.143-236.99,19.518-237.1Z" transform="translate(11.499 403.095)" fill="#a6e4f5"/><path d="M110.766-256.415c-3.628.18-6.784,1.487-7.289,5.371-.51,3.932,1.5,6.933,5.619,7.574a25.214,25.214,0,0,1,15.361,8.548c2.738,3.067,5.962,4.06,9.222,1.171,3.3-2.927,3.234-6.345.477-9.886C129.08-250.157,118.2-256.2,110.766-256.415Z" transform="translate(60.917 391.715)" fill="#ffe9b9"/><path d="M136.331-234.583c.033-4.45-2.633-6.485-6.552-6.655-4.1-.178-6.743,2.311-6.809,6.345-.07,4.246,2.512,7.251,6.838,7.091C133.595-227.942,136.186-230.386,136.331-234.583Z" transform="translate(72.446 400.651)" fill="#ffe9b9"/><path d="M67.525-325.8c-.122,3.437,1.8,5.451,4.787,6.53A53.791,53.791,0,0,1,101-295.447c2.206,3.7,5.386,5.408,9.411,2.867,3.965-2.5,3.874-6.1,1.688-9.78C103.821-316.3,92.13-326.2,76.787-331.573,71.7-333.355,67.557-330.591,67.525-325.8Z" transform="translate(39.779 347.115)" fill="#fdfefe"/><path d="M92.641-297.184c.5,4.019,2.8,6.782,7.177,6.659,3.954-.111,6.549-2.52,6.724-6.679.194-4.578-2.7-7.135-6.784-7.27C95.548-304.615,92.952-301.917,92.641-297.184Z" transform="translate(54.579 363.398)" fill="#fdfefe"/><path d="M128.534-163.25a7.916,7.916,0,0,0-.939-4.982c-6.2-11.544-14.933-20.428-26.966-25.919-4.356-1.986-8.359-2.074-10.5,2.825-2.115,4.842,1.144,7.129,5.142,8.917a42.429,42.429,0,0,1,21.077,20.441c1.51,3.018,3.707,5.1,7.436,4.251C126.778-158.4,128.5-160.244,128.534-163.25Z" transform="translate(52.708 427.647)" fill="#e0b6b3"/><path d="M109.344-163.991c-.334,4.334,1.9,6.771,5.49,7.444,3.9.729,6.686-1.742,7.156-5.338.461-3.522-1.4-6.655-5.374-7.205C112.693-169.634,110.52-167.2,109.344-163.991Z" transform="translate(64.4 443.117)" fill="#e0b6b3"/></g></g><g transform="translate(1044 148)"><g transform="translate(0 341.539)"><path d="M695.674-157.977s-8.458,3.71-11.929,10.06c-2.063,3.773-3.036,3.316-3.583,3.887-1.815,1.9,3.176,1.233,5.482-1.773,1.875-2.443,7.147-2.276,8.748-3.574s5.232-5.6,5.031-7.069S695.674-157.977,695.674-157.977Z" transform="translate(-679.773 172.964)" fill="#d8a35d" fill-rule="evenodd"/><path d="M709.127-166.339c-.862,1.086-13.4,11.305-16.612,18.143s-7.339,17.309-9.7,20.586c-2.778,3.853-1.464,5.556,2.217,1.29,2.393-2.773,6.681-8.674,7.269-10.112.285-.7-2,3.688-4.853,8.321-3.032,4.925-6.624,10.158-5.773,10.766,1.654,1.179,11.343-12.664,12.614-15.261a72.327,72.327,0,0,1-3.441,6.812c-1.735,3.009-4.208,6.284-3.8,7.248.638,1.522,6.767-5.448,10.13-11.827.26-.038-.186,2.255-4.689,9.562-.452.735-.837,2.882,1.307.717,4.511-4.558,6.789-6.183,9.907-14.024,3.04-7.647,4.54-16.759,8.418-21.647Z" transform="translate(-678.543 166.339)" fill="#d8a35d" fill-rule="evenodd"/></g><path d="M817.389-108.823s-14.8,152.687-8.5,155.315c11.288,4.789,55.495,20.451,6.757,17.01-25.037,1.509-23.2-4.084-23.591-8.825-.319-3.873.416-140.52-.613-151.146-.231-2.38-.369-3.819-.369-3.819Z" transform="translate(-591.601 553.444)" fill="#d8a35d"/><path d="M767.4-107.855s6.414,152.687.122,155.315c-11.287,4.789-55.495,20.451-6.755,17.01,25.036,1.509,23.2-4.084,23.589-8.825.319-3.873,3.16-33.266,4.189-43.892.231-2.38,5.136-121.8,5.136-121.8Z" transform="translate(-633.374 552.476)" fill="#d8a35d"/><path d="M787.69-326.964s-1.3,14.548,7.669,22.595-20.681,0-20.681,0,5.518-13.936,4.28-22.595S787.69-326.964,787.69-326.964Z" transform="translate(-604.586 377.577)" fill="#d19442"/><ellipse cx="15.689" cy="21.406" rx="15.689" ry="21.406" transform="translate(162.681 13.442)" fill="#d8a35d"/><path d="M953.466-194.178c-.333,5.255-5.767,29.066-12.56,50.231-5.565,17.374-12.06,32.973-17.4,35.131-11.845,4.767-101.283,11.309-119.671,2.538-.43-.321-.894-.667-1.335-1.048-6.9-5.613-14.385-16.7-18.353-27.075,0-.013-10.571-29.8-12.727-35.872-.025-.059-.036-.106-.061-.154-.07-.238-.154-.464-.238-.679-.023-.084-.059-.154-.083-.238-11.131,38-40.745,121.47-64.7,147.915-2.514,2.776-14.087-12.8-14.087-12.8s-19.34-99.877,31.117-205.427c23.751-49.682,66.139-72.349,93.2-78.367,11.714-2.609,20.557-2.1,23.786.692a17.553,17.553,0,0,0,10.952,4.255,23.734,23.734,0,0,0,6.149-.561,30.589,30.589,0,0,0,6.518-2.215c1-.466,1.584-.8,1.584-.8a63.64,63.64,0,0,1,16.566.989C943.362-305.674,954.015-203.008,953.466-194.178Z" transform="translate(-672.768 384.776)" fill="#947dce"/><path d="M761.2-203.038a9.657,9.657,0,0,0,5.49,2.532c12.9.253,68.6,1.208,98.824-.529,10.66-.615,18.148-1.561,19.464-3a1.212,1.212,0,0,1-.009.122c-.079,1.667-1.034,20.736-2.377,45.732C879.94-108.833,885.041-38.16,891-16.711c1.287,4.631-67.927-2.382-67.927-2.382-.192-50.923,4.64-140.323,1.518-144.328-3.8-4.875-9.952,73.759-17.01,139.561-27.409,7.149-70.811,2.808-70.311,0C743.227-57.228,761.2-203.038,761.2-203.038Z" transform="translate(-634.227 478.016)" fill="#ffc84f"/><path d="M734.607-228.137c.023.084.059.154.082.238.084.215.167.441.238.679.025.048.036.095.061.154,2.156,6.067,12.727,35.859,12.727,35.871,3.968,10.379,11.452,21.462,18.352,27.075-4.683-16.958-19.283-66.115-18.722-85.921C744.557-230.949,734.607-228.15,734.607-228.137Z" transform="translate(-636.331 441.568)" opacity="0.15"/><path d="M816.8-277.446s-29.64,88.479,52.595,126.055l1.67,1.111-.425-20.811s-38.748-54.07-38.9-55.462S816.8-277.446,816.8-277.446Z" transform="translate(-575.339 419.856)" opacity="0.15"/><path d="M795.787-311.562c.048,1.419-.7,2.348-2.979,2.038-7.1-.964-15.123-.762-20.951,1.907a4.949,4.949,0,0,1-4.791-.2c-3.73-2.181-6.042-8.687-6.959-11.571a1.985,1.985,0,0,1-.095-.633c11.714-2.609,20.557-2.1,23.786.692a17.553,17.553,0,0,0,10.952,4.255A9.656,9.656,0,0,1,795.787-311.562Z" transform="translate(-616.205 384.776)" opacity="0.15"/><path d="M787.117-22.339c.29-2.2-15.4-2-17.17-.206S736.913-14.3,737.531-5.021s43.942,1.984,47.037,1.765S786.543-18.006,787.117-22.339Z" transform="translate(-634.022 620.691)" fill="#62548a"/><path d="M791.167-24.683c-.292-2.2,18.483.591,20.259,2.382s29.108,9.226,28.488,18.51-43.94,1.984-47.035,1.765S791.74-20.351,791.167-24.683Z" transform="translate(-591.596 619.461)" fill="#62548a"/><g transform="translate(177.777 273.983)" opacity="0.3"><path d="M779.588-201.767c-.21-.018-.419-.034-.622-.052C778.966-201.819,779.187-201.8,779.588-201.767Z" transform="translate(-778.966 205.787)"/><path d="M779.313-200.013c16.6,1.324,52.883-1.022,52.883-1.022,10.66-.615,18.148-1.561,19.464-3a1.2,1.2,0,0,1-.009.122c-.079,1.667-1.034,20.736-2.376,45.732a12.634,12.634,0,0,1-1.744-.2c-3.735-.694-6.6-3.007-8.785-6.244a30.083,30.083,0,0,1-3.416-7.133C822.952-195.307,784.631-199.536,779.313-200.013Z" transform="translate(-778.691 204.033)" opacity="0.5"/></g><g transform="translate(159.052)"><g transform="translate(3.311 5.968)"><path d="M778.528-336.982s27.161,15.06,19.1-9.119C792.051-362.831,760-347.762,778.528-336.982Z" transform="translate(-768.418 353.576)" fill="#ffc84f"/><path d="M784.414-343.236s-15.2,9.017-13.732,18.062c0,0-3.35-27.007,11.761-27.685s20.96.78,19.62,29.337C802.062-323.521,797.671-346.238,784.414-343.236Z" transform="translate(-770.366 354.053)" fill="#ffc84f"/></g><path d="M776.736-349.567s.763-8.415,9.106-7.223,11.917,5.957,13.108,10.725,2.384,8.343,3.576,8.343c0,0-3.576,3.574-4.767,2.382,0,0,3.093,8.57-.837,15.607,0,0-1.547-10.839-7.5-12.031S776.736-349.567,776.736-349.567Z" transform="translate(-762.008 356.906)" fill="#ffc84f"/><path d="M784.01-352.515s-5.957-3.576-11.917,4.767l-3.575,7.151s1.192,1.19,3.575,0c0,0-1.086,8.4.052,13.135l3.524-14.327Z" transform="translate(-768.518 359.78)" fill="#ffc84f"/></g><path d="M757.5-252.887l15.112,96.8a10.34,10.34,0,0,0,11.8,8.617l66.067-10.321a3.065,3.065,0,0,0,.466-.095,10.3,10.3,0,0,0,8.139-11.7l-15.11-96.8a10.321,10.321,0,0,0-11.8-8.6l-63.006,9.83-3.063.477A10.323,10.323,0,0,0,757.5-252.887Z" transform="translate(-618.298 421.7)" fill="#999"/><path d="M759.465-253.459l15.11,96.8a10.322,10.322,0,0,0,11.8,8.6l63.006-9.832a10.3,10.3,0,0,0,8.139-11.7l-15.11-96.8a10.321,10.321,0,0,0-11.8-8.6l-63.006,9.83A10.3,10.3,0,0,0,759.465-253.459Z" transform="translate(-616.738 421.7)" fill="#ccc"/><circle cx="7.975" cy="7.975" r="7.975" transform="translate(184.451 203.014)" fill="gray"/><path d="M875.977-213.073s1.548-35.583-93.788-23.666,71.5,22.643,71.5,22.643Z" transform="translate(-621.946 450.171)" opacity="0.15"/><g transform="translate(121.497 62.972)"><g transform="translate(0 147.72)"><path d="M795.188-225.825c-1.129-.378-13.051-7.518-19.516-8.115s-16.132-.866-19.469-1.815c-3.925-1.117-4.918.444-.394,2.17a63.913,63.913,0,0,0,10.3,2.916c.645.025-3.565-.541-8.144-1.489-4.866-1.009-10.144-2.38-10.386-1.513-.47,1.679,13.549,5.459,16.019,5.726a62.055,62.055,0,0,1-6.511-.789c-2.937-.521-6.3-1.561-6.968-.952-1.042.961,6.382,3.873,12.519,4.724.107.2-1.875.509-9.1-.991-.726-.151-2.574.167-.2,1.265,5,2.312,6.981,3.676,14.229,3.9,7.067.22,14.868-1.235,19.951.47Z" transform="translate(-747.564 241.895)" fill="#d8a35d" fill-rule="evenodd"/><path d="M772.346-230.757s-5.473-5.748-11.617-6.694c-3.653-.565-3.567-1.484-4.19-1.758-2.066-.91-.064,2.927,3.038,3.911,2.522.8,3.929,5.11,5.445,6.024s6.051,2.59,7.181,2S772.346-230.757,772.346-230.757Z" transform="translate(-741.122 239.347)" fill="#d8a35d" fill-rule="evenodd"/></g><path d="M880.536-302.4c22.446,20.084,37.979,38.739,47.668,100.1,4.916,31.133,3.635,62.266,2.355,78.684a19.4,19.4,0,0,1-13.331,16.868c-70.331,23.2-147.583-43.539-147.583-43.539-4.027-1.5,4.081-15.859,4.081-15.859,38.882-.4,68.675.789,99.659,12.705-.158-.074-30.459-56.991-34.56-72.695-10.739-41.178-46.089-76.813-36.943-92.952C805.043-324.665,857.893-322.658,880.536-302.4Z" transform="translate(-730.959 321.77)" fill="#947dce"/></g><g transform="translate(121.497 273.773)"><line x1="17.576" y2="183.787" fill="none" stroke="#947dce" stroke-miterlimit="10" stroke-width="0.665"/><line x1="17.443" y2="180.587" transform="translate(17.576 3.676)" fill="none" stroke="#947dce" stroke-miterlimit="10" stroke-width="0.665"/><line x1="14.506" y2="179.325" transform="translate(37.565 3.676)" fill="none" stroke="#947dce" stroke-miterlimit="10" stroke-width="0.665"/><line x2="0.374" y2="37.145" transform="translate(68.493 3.676)" fill="none" stroke="#947dce" stroke-miterlimit="10" stroke-width="0.665"/><line x1="3.366" y2="182.958" transform="translate(83.356 3.676)" fill="none" stroke="#947dce" stroke-miterlimit="10" stroke-width="0.665"/><line x1="0.938" y2="184.493" transform="translate(101.47 3.561)" fill="none" stroke="#947dce" stroke-miterlimit="10" stroke-width="0.665"/><line x2="3.549" y2="185.552" transform="translate(117.824 3.561)" fill="none" stroke="#947dce" stroke-miterlimit="10" stroke-width="0.665"/></g><path d="M749.29-192.81s98.978,4.672,125.128,0" transform="translate(-624.699 486.907)" fill="none" stroke="#947dce" stroke-miterlimit="10" stroke-width="0.665"/><path d="M815.945-179.359c-34.629,7.843-67.771-4.556-67.771-4.556" transform="translate(-625.583 493.954)" fill="none" stroke="#947dce" stroke-miterlimit="10" stroke-width="0.665"/><path d="M785.78-182.681s31.253,8.782,58.7,1.366" transform="translate(-595.79 494.932)" fill="none" stroke="#947dce" stroke-miterlimit="10" stroke-width="0.665"/><path d="M747.224-176.4s24.957,13.065,65.494,6.405" transform="translate(-626.336 499.908)" fill="none" stroke="#947dce" stroke-miterlimit="10" stroke-width="0.665"/><path d="M746.084-167.45S784.92-155.594,811.7-161.7" transform="translate(-627.239 506.998)" fill="none" stroke="#947dce" stroke-miterlimit="10" stroke-width="0.665"/><path d="M744.941-158.559s19.779,15.506,65.639,8.551" transform="translate(-628.144 514.042)" fill="none" stroke="#947dce" stroke-miterlimit="10" stroke-width="0.665"/><path d="M743.611-148.331s30.16,15.757,66.52,5.011" transform="translate(-629.198 522.145)" fill="none" stroke="#947dce" stroke-miterlimit="10" stroke-width="0.665"/><path d="M742.374-138.962s21.36,15.162,66.942,6.355" transform="translate(-630.178 529.567)" fill="none" stroke="#947dce" stroke-miterlimit="10" stroke-width="0.665"/><path d="M741.08-129.357s29.484,15.411,67.9,2.961" transform="translate(-631.203 537.177)" fill="none" stroke="#947dce" stroke-miterlimit="10" stroke-width="0.665"/><path d="M740.045-121.861s17.394,16.729,68.284,4.326" transform="translate(-632.023 543.115)" fill="none" stroke="#947dce" stroke-miterlimit="10" stroke-width="0.665"/><path d="M738.825-113.353s28.125,14.818,68.967,3.86" transform="translate(-632.99 549.856)" fill="none" stroke="#947dce" stroke-miterlimit="10" stroke-width="0.665"/><path d="M786.572-173.321s13.058,10.782,57.285,2.778" transform="translate(-595.163 502.347)" fill="none" stroke="#947dce" stroke-miterlimit="10" stroke-width="0.665"/><path d="M786.764-164.267s18.32,8.542,55.894,1.8" transform="translate(-595.011 509.52)" fill="none" stroke="#947dce" stroke-miterlimit="10" stroke-width="0.665"/><path d="M786.265-154.219s28.29,8.52,56.789,0" transform="translate(-595.406 517.48)" fill="none" stroke="#947dce" stroke-miterlimit="10" stroke-width="0.665"/><path d="M786.038-145.887s27.5,12.227,57.744,0" transform="translate(-595.586 524.081)" fill="none" stroke="#947dce" stroke-miterlimit="10" stroke-width="0.665"/><path d="M785.78-136.738s26.183,9.187,58.964,0" transform="translate(-595.79 531.329)" fill="none" stroke="#947dce" stroke-miterlimit="10" stroke-width="0.665"/><path d="M785.544-127.951s22.069,9.9,60.42,0" transform="translate(-595.977 538.29)" fill="none" stroke="#947dce" stroke-miterlimit="10" stroke-width="0.665"/><path d="M785.544-120.178s26.2,13.5,61.753,1.436" transform="translate(-595.977 544.448)" fill="none" stroke="#947dce" stroke-miterlimit="10" stroke-width="0.665"/><path d="M785.192-110.46s29.8,10.1,64.329.744" transform="translate(-596.256 552.147)" fill="none" stroke="#947dce" stroke-miterlimit="10" stroke-width="0.665"/></g></g></svg>