<svg xmlns="http://www.w3.org/2000/svg" width="522.083" height="595" viewBox="0 0 522.083 595">
    <defs>
        <style>
            .a{fill:#eadff1;}.b,.c{fill:#d8a35d;}.b{fill-rule:evenodd;}.d{fill:#d19442;}.e{fill:#947dce;}.f{fill:#ffc84f;}.g{opacity:0.15;}.h{fill:#62548a;}.i{opacity:0.3;}.j{opacity:0.5;}.k{fill:#999;}.l{fill:#ccc;}.m{fill:gray;}
        </style>
    </defs>
    <g transform="translate(-650.902 -280.629)">
        <g transform="translate(650.902 280.629)">
            <path class="a"
                  d="M711.405,647.378c-10.031-13.382-16.231-28.422-20.459-44.356-12.752-48.507-13.9-97.389-36.5-141.425-11.873-24.449,7.966-53.992,31.794-55.51,80.308-5.375,171.041-23.795,218.228-97.782,13.358-18.288,31.962-26.239,52.047-27.5s41.652,4.184,60.937,12.676c17.214,8.331,34.779,13.079,52.607,20.643,62.7,26.089,59.34,107.341,27.349,160.74-8.255,14.261-10.881,30.126-13.474,45.669a207.45,207.45,0,0,0-3.1,38.32A187.264,187.264,0,0,0,1115.4,665.494c5.492,11.866,8.662,24.7,5.756,38.781-10.443,48.113-51.192,91.652-98.593,98.775-35.648,5.6-62.261-13.073-85.576-38.238-7.771-8.389-15.177-17.5-22.428-26.668a176.121,176.121,0,0,0-20.42-28.188c-36.7-40.136-92.9-62.573-145.234-50.53C733.979,658.417,721.093,654.578,711.405,647.378Z"
                  transform="translate(-650.902 -280.629)"/>
        </g>
        <g transform="translate(792.936 336.16)">
            <g transform="translate(0 297.001)">
                <g transform="translate(0 13.032)">
                    <path class="b"
                          d="M801.788,633.387s-7.355,3.228-10.373,8.748c-1.795,3.281-2.641,2.883-3.116,3.382-1.577,1.653,2.763,1.07,4.768-1.542,1.63-2.124,6.216-1.979,7.608-3.108s4.549-4.865,4.375-6.146S801.788,633.387,801.788,633.387Z"
                          transform="translate(-787.961 -633.387)"/>
                </g>
                <g transform="translate(2.419)">
                    <path class="b"
                          d="M814.471,620.812c-.75.945-11.652,9.83-14.446,15.777s-6.383,15.052-8.435,17.9c-2.415,3.351-1.273,4.832,1.929,1.122a64.6,64.6,0,0,0,6.321-8.793c.248-.606-1.742,3.206-4.222,7.235-2.636,4.284-5.761,8.834-5.019,9.363,1.438,1.025,9.863-11.013,10.969-13.271a63,63,0,0,1-2.994,5.924c-1.509,2.617-3.659,5.462-3.307,6.3.555,1.322,5.885-4.739,8.809-10.285.226-.033-.162,1.96-4.076,8.314-.394.638-.729,2.506,1.136.623,3.923-3.962,5.9-5.376,8.615-12.2,2.644-6.649,3.947-14.574,7.32-18.823Z"
                          transform="translate(-790.295 -620.812)"/>
                </g>
            </g>
            <g transform="translate(173.455 386.641)">
                <path class="c"
                      d="M978.229,707.312s-12.868,132.775-7.4,135.06c9.816,4.164,48.257,17.785,5.875,14.791-21.771,1.312-20.174-3.551-20.514-7.674-.278-3.368.362-122.195-.534-131.435-.2-2.069-.321-3.32-.321-3.32Z"
                      transform="translate(-955.339 -707.312)"/>
            </g>
            <g transform="translate(91.278 384.737)">
                <path class="c"
                      d="M901.312,707.379s5.578,132.775.107,135.06c-9.816,4.164-48.259,17.785-5.876,14.791,21.772,1.312,20.175-3.551,20.515-7.674.278-3.368,2.747-28.927,3.643-38.168.2-2.069,4.466-105.914,4.466-105.914Z"
                      transform="translate(-876.041 -705.474)"/>
            </g>
            <g transform="translate(147.911 40.666)">
                <path class="d"
                      d="M942.005,376.8s-1.134,12.652,6.67,19.648-17.985,0-17.985,0,4.8-12.117,3.722-19.648S942.005,376.8,942.005,376.8Z"
                      transform="translate(-930.69 -373.457)"/>
            </g>
            <g transform="translate(141.466 11.689)">
                <ellipse class="c" cx="13.644" cy="18.615" rx="13.644" ry="18.615"/>
            </g>
            <g transform="translate(13.78 54.828)">
                <path class="e"
                      d="M1031.572,498.037c-.29,4.57-5.016,25.275-10.923,43.68-4.839,15.109-10.487,28.674-15.13,30.55-10.3,4.145-88.075,9.835-104.066,2.207-.373-.28-.777-.58-1.161-.912-6-4.881-12.508-14.519-15.959-23.545,0-.01-9.192-25.918-11.068-31.193-.021-.052-.031-.093-.052-.135-.062-.207-.135-.4-.207-.591-.021-.072-.052-.135-.073-.207-9.679,33.048-35.431,105.63-56.261,128.626-2.187,2.415-12.249-11.13-12.249-11.13s-16.819-86.852,27.058-178.638c20.654-43.2,57.515-62.914,81.049-68.147,10.187-2.27,17.876-1.824,20.685.6a15.254,15.254,0,0,0,9.524,3.7,20.635,20.635,0,0,0,5.347-.487,26.612,26.612,0,0,0,5.669-1.927c.87-.4,1.378-.694,1.378-.694a55.294,55.294,0,0,1,14.4.86C1022.784,401.081,1032.049,490.358,1031.572,498.037Z"
                      transform="translate(-801.258 -387.122)"/>
            </g>
            <g transform="translate(89.602 238.254)">
                <path class="f"
                      d="M895.233,564.988a8.406,8.406,0,0,0,4.774,2.2c11.216.221,59.658,1.05,85.936-.46,9.271-.534,15.782-1.358,16.926-2.607a.986.986,0,0,1-.008.107c-.068,1.449-.9,18.032-2.065,39.768-2.3,42.91,2.133,104.367,7.314,123.021,1.118,4.026-59.069-2.073-59.069-2.073-.168-44.282,4.033-122.023,1.319-125.507-3.3-4.24-8.654,64.141-14.791,121.361-23.835,6.218-61.578,2.443-61.142,0C879.609,691.784,895.233,564.988,895.233,564.988Z"
                      transform="translate(-874.423 -564.123)"/>
            </g>
            <g class="g" transform="translate(85.46 166.551)">
                <path d="M870.427,513.979c.021.073.052.135.073.207.073.187.145.383.207.591.021.041.031.083.052.135,1.876,5.275,11.068,31.182,11.068,31.193,3.451,9.026,9.959,18.664,15.959,23.545-4.073-14.747-16.767-57.494-16.28-74.717C879.08,511.534,870.427,513.969,870.427,513.979Z"
                      transform="translate(-870.427 -494.932)"/>
            </g>
            <g class="g" transform="translate(205.447 123.84)">
                <path d="M990.733,453.717s-25.774,76.939,45.735,109.615l1.454.967-.37-18.1s-33.7-47.019-33.823-48.229S990.733,453.717,990.733,453.717Z"
                      transform="translate(-986.211 -453.717)"/>
            </g>
            <g class="g" transform="translate(125.054 54.828)">
                <path d="M939.744,395.962c.041,1.233-.611,2.042-2.591,1.772-6.176-.839-13.151-.663-18.218,1.658a4.3,4.3,0,0,1-4.166-.176c-3.244-1.9-5.254-7.555-6.052-10.062a1.726,1.726,0,0,1-.083-.549c10.187-2.27,17.876-1.824,20.685.6a15.254,15.254,0,0,0,9.524,3.7A8.4,8.4,0,0,1,939.744,395.962Z"
                      transform="translate(-908.634 -387.122)"/>
            </g>
            <g transform="translate(90.004 518.931)">
                <path class="h"
                      d="M917.938,836.361c.253-1.917-13.387-1.738-14.93-.18s-28.727,7.166-28.189,15.239,38.211,1.726,40.9,1.536S917.438,840.128,917.938,836.361Z"
                      transform="translate(-874.811 -834.968)"/>
            </g>
            <g transform="translate(173.466 516.51)">
                <path class="h"
                      d="M955.43,833.337c-.254-1.917,16.073.515,17.617,2.073s25.312,8.022,24.774,16.095-38.212,1.726-40.9,1.536S955.928,837.1,955.43,833.337Z"
                      transform="translate(-955.35 -832.632)"/>
            </g>
            <g class="i" transform="translate(154.594 238.254)">
                <g transform="translate(0 3.451)">
                    <path d="M937.679,567.5c-.181-.015-.364-.029-.54-.044C937.139,567.453,937.331,567.466,937.679,567.5Z"
                          transform="translate(-937.139 -567.453)"/>
                </g>
                <g class="j" transform="translate(0.54)">
                    <path d="M937.66,567.618c14.436,1.152,45.988-.888,45.988-.888,9.271-.534,15.782-1.358,16.926-2.607a.986.986,0,0,1-.008.107c-.068,1.449-.9,18.032-2.065,39.768a10.771,10.771,0,0,1-1.518-.175,11.814,11.814,0,0,1-7.64-5.428,26.271,26.271,0,0,1-2.97-6.2C975.609,571.711,942.285,568.034,937.66,567.618Z"
                          transform="translate(-937.66 -564.123)"/>
                </g>
            </g>
            <g transform="translate(138.312)">
                <g transform="translate(2.879 5.19)">
                    <g transform="translate(3.831)">
                        <path class="f"
                              d="M932.863,353.652s23.62,13.1,16.61-7.93C944.622,331.175,916.753,344.279,932.863,353.652Z"
                              transform="translate(-927.903 -339.223)"/>
                    </g>
                    <g transform="translate(0 0.939)">
                        <path class="f"
                              d="M936.421,348.6s-13.215,7.842-11.94,15.708c0,0-2.914-23.486,10.226-24.076s18.227.679,17.061,25.513C951.768,365.741,947.95,345.986,936.421,348.6Z"
                              transform="translate(-924.206 -340.129)"/>
                    </g>
                </g>
                <g transform="translate(12.808)">
                    <path class="f"
                          d="M933.786,340.6s.664-7.317,7.918-6.281,10.363,5.182,11.4,9.327,2.073,7.254,3.109,7.254c0,0-3.109,3.109-4.145,2.073,0,0,2.689,7.453-.729,13.571,0,0-1.344-9.426-6.526-10.462S933.786,340.6,933.786,340.6Z"
                          transform="translate(-933.786 -334.215)"/>
                </g>
                <g transform="translate(0 5.656)">
                    <path class="f"
                          d="M934.9,340.335s-5.182-3.109-10.363,4.145l-3.109,6.218s1.036,1.036,3.109,0c0,0-.945,7.3.046,11.423l3.063-12.459Z"
                          transform="translate(-921.427 -339.673)"/>
                </g>
            </g>
            <g transform="translate(120.937 127.467)">
                <path class="k"
                      d="M904.771,476.549l13.14,84.179a8.99,8.99,0,0,0,10.259,7.492l57.453-8.974a2.787,2.787,0,0,0,.4-.083,8.957,8.957,0,0,0,7.078-10.177l-13.14-84.179a8.976,8.976,0,0,0-10.259-7.482l-54.789,8.549-2.663.415A8.976,8.976,0,0,0,904.771,476.549Z"
                      transform="translate(-904.661 -457.216)"/>
            </g>
            <g transform="translate(124.005 127.467)">
                <path class="l"
                      d="M907.731,476.052l13.14,84.179a8.976,8.976,0,0,0,10.259,7.482l54.789-8.549A8.957,8.957,0,0,0,993,548.987l-13.14-84.179a8.976,8.976,0,0,0-10.259-7.482l-54.789,8.549A8.957,8.957,0,0,0,907.731,476.052Z"
                      transform="translate(-907.621 -457.216)"/>
            </g>
            <g transform="translate(160.398 176.54)">
                <circle class="m" cx="6.935" cy="6.935" r="6.935"/>
            </g>
            <g class="g" transform="translate(113.76 183.476)">
                <path d="M1004.88,533.966s1.347-30.943-81.557-20.58,62.178,19.69,62.178,19.69Z"
                      transform="translate(-897.736 -511.263)"/>
            </g>
            <g transform="translate(105.653 54.76)">
                <g transform="translate(0 128.457)">
                    <g transform="translate(0 5.011)">
                        <path class="b"
                              d="M931.327,524.813c-.982-.33-11.351-6.539-16.971-7.057s-14.027-.754-16.93-1.579c-3.414-.97-4.276.386-.343,1.887a55.448,55.448,0,0,0,8.954,2.535c.562.023-3.1-.469-7.081-1.294-4.232-.877-8.822-2.07-9.032-1.316-.407,1.462,11.783,4.748,13.93,4.98a53.948,53.948,0,0,1-5.661-.686c-2.556-.453-5.484-1.358-6.059-.828-.907.835,5.549,3.368,10.885,4.108.093.173-1.63.444-7.909-.861-.631-.131-2.237.145-.171,1.1,4.348,2.01,6.07,3.2,12.372,3.393,6.145.192,12.929-1.074,17.35.409Z"
                              transform="translate(-889.912 -515.85)"/>
                    </g>
                    <g transform="translate(12.672)">
                        <path class="b"
                              d="M916.62,518.485s-4.759-5-10.1-5.823c-3.176-.489-3.1-1.289-3.644-1.528-1.8-.792-.057,2.545,2.64,3.4,2.193.7,3.417,4.443,4.735,5.238s5.262,2.252,6.246,1.737S916.62,518.485,916.62,518.485Z"
                              transform="translate(-902.14 -511.014)"/>
                    </g>
                </g>
                <g transform="translate(32.666)">
                    <path class="e"
                          d="M1018.839,403.9c19.52,17.466,33.026,33.687,41.452,87.049,4.275,27.073,3.161,54.147,2.048,68.424a16.867,16.867,0,0,1-11.592,14.668c-61.159,20.174-128.337-37.86-128.337-37.86-3.5-1.3,3.548-13.792,3.548-13.792,33.811-.35,59.719.686,86.663,11.049-.137-.064-26.488-49.559-30.053-63.214-9.339-35.809-40.079-66.8-32.125-80.832C953.191,384.54,999.149,386.285,1018.839,403.9Z"
                          transform="translate(-921.434 -387.057)"/>
                </g>
            </g>
            <g transform="translate(105.133 238.023)">
                <g transform="translate(0 0)">
                    <rect class="e" width="160.549" height="1.036" transform="translate(0 159.819) rotate(-84.534)"/>
                </g>
                <g transform="translate(15.283 3.196)">
                    <rect class="e" width="157.768" height="1.036" transform="translate(0 157.036) rotate(-84.479)"/>
                </g>
                <g transform="translate(32.676 3.203)">
                    <rect class="e" width="156.449" height="1.037" transform="translate(0 155.941) rotate(-85.38)"/>
                </g>
                <g transform="translate(59.562 3.24)">
                    <rect class="e" width="1.036" height="32.303" transform="translate(0 0.01) rotate(-0.576)"/>
                </g>
                <g transform="translate(72.494 3.236)">
                    <rect class="e" width="159.126" height="1.036" transform="translate(0 159.1) rotate(-88.951)"/>
                </g>
                <g transform="translate(88.235 3.143)">
                    <rect class="e" width="160.436" height="1.036" transform="translate(0 160.434) rotate(-89.706)"/>
                </g>
                <g transform="translate(102.46 3.136)">
                    <rect class="e" width="1.036" height="161.385" transform="translate(0 0.02) rotate(-1.096)"/>
                </g>
            </g>
            <g transform="translate(108.32 255.228)">
                <path class="e"
                      d="M963.043,583.331c-32.022,0-69.985-1.767-70.557-1.794l.049-1.035c.86.04,86.271,4.014,108.695.008l.182,1.02C993.853,582.88,979.2,583.331,963.043,583.331Z"
                      transform="translate(-892.486 -580.502)"/>
            </g>
            <g transform="translate(106.423 269.123)">
                <path class="e"
                      d="M928.8,601.117a121.72,121.72,0,0,1-38.139-6.236l.363-.971c.287.108,29.03,10.648,58.638,3.942l.229,1.01A95.676,95.676,0,0,1,928.8,601.117Z"
                      transform="translate(-890.656 -593.91)"/>
            </g>
            <g transform="translate(165.074 271.034)">
                <path class="e"
                      d="M977.191,600.526a124.71,124.71,0,0,1-29.939-3.775l.28-1c.27.076,27.32,7.523,50.774,1.186l.27,1A82.734,82.734,0,0,1,977.191,600.526Z"
                      transform="translate(-947.252 -595.754)"/>
            </g>
            <g transform="translate(104.885 280.862)">
                <path class="e"
                      d="M926.776,613.414c-23.406,0-37.431-7.168-37.605-7.258l.481-.918c.215.112,21.976,11.212,56.628,5.517l.168,1.023A121.321,121.321,0,0,1,926.776,613.414Z"
                      transform="translate(-889.171 -605.238)"/>
            </g>
            <g transform="translate(103.196 294.774)">
                <path class="e"
                      d="M929.626,626.183c-20.4,0-41.815-6.448-42.084-6.53l.3-.991c.337.1,33.91,10.21,56.794,4.995l.23,1.01A69.389,69.389,0,0,1,929.626,626.183Z"
                      transform="translate(-887.542 -618.663)"/>
            </g>
            <g transform="translate(101.246 308.719)">
                <path class="e"
                      d="M923.564,642.024c-25.947,0-37.761-8.978-37.9-9.089l.639-.816c.171.134,17.533,13.269,56.681,7.331l.156,1.024A130.573,130.573,0,0,1,923.564,642.024Z"
                      transform="translate(-885.66 -632.119)"/>
            </g>
            <g transform="translate(99.253 324.607)">
                <path class="e"
                      d="M919.219,656.021a84.449,84.449,0,0,1-35.482-7.652l.48-.918c.261.136,26.418,13.495,57.459,4.32l.293.994A80.068,80.068,0,0,1,919.219,656.021Z"
                      transform="translate(-883.737 -647.451)"/>
            </g>
            <g transform="translate(97.265 339.246)">
                <path class="e"
                      d="M916.912,670.413c-23.49,0-34.948-7.887-35.094-7.99l.6-.846c.184.131,18.893,12.961,57.814,5.441l.2,1.018A124.021,124.021,0,0,1,916.912,670.413Z"
                      transform="translate(-881.818 -661.577)"/>
            </g>
            <g transform="translate(95.309 354.179)">
                <path class="e"
                      d="M912.861,683.73c-19.559,0-32.745-6.729-32.93-6.825l.48-.918c.255.133,25.846,13.17,58.645,2.54l.319.987A85.758,85.758,0,0,1,912.861,683.73Z"
                      transform="translate(-879.931 -675.987)"/>
            </g>
            <g transform="translate(93.576 365.946)">
                <path class="e"
                      d="M908.031,696.013c-21.2,0-29.318-7.486-29.772-7.924l.718-.747c.149.143,15.507,14.208,58.9,3.633l.245,1.007A127.68,127.68,0,0,1,908.031,696.013Z"
                      transform="translate(-878.259 -687.342)"/>
            </g>
            <g transform="translate(91.793 379.122)">
                <path class="e"
                      d="M910.813,707.872c-20.856,0-34.094-6.8-34.275-6.9l.483-.917c.242.128,24.705,12.676,59.6,3.315l.268,1A100.447,100.447,0,0,1,910.813,707.872Z"
                      transform="translate(-876.538 -700.056)"/>
            </g>
            <g transform="translate(166.119 285.72)">
                <path class="e"
                      d="M972.689,615.849c-17.944,0-24.087-4.842-24.429-5.123l.659-.8c.114.091,11.72,9.123,49.393,2.306l.184,1.02A145.863,145.863,0,0,1,972.689,615.849Z"
                      transform="translate(-948.26 -609.926)"/>
            </g>
            <g transform="translate(166.528 299.76)">
                <path class="e"
                      d="M973.872,628.261c-16.7,0-25.1-3.794-25.217-3.848l.437-.939c.16.074,16.2,7.285,48.3,1.522l.183,1.02A134.289,134.289,0,0,1,973.872,628.261Z"
                      transform="translate(-948.655 -623.474)"/>
            </g>
            <g transform="translate(165.821 315.394)">
                <path class="e"
                      d="M973.763,642.844a99.986,99.986,0,0,1-25.79-3.291l.3-.993c.245.074,24.745,7.278,49.086,0l.3.993A83.761,83.761,0,0,1,973.763,642.844Z"
                      transform="translate(-947.973 -638.56)"/>
            </g>
            <g transform="translate(165.406 328.396)">
                <path class="e"
                      d="M973.373,656.8a70.335,70.335,0,0,1-25.8-4.736l.421-.947c.237.1,24.029,10.414,49.809-.007l.388.961A65.978,65.978,0,0,1,973.373,656.8Z"
                      transform="translate(-947.572 -651.107)"/>
            </g>
            <g transform="translate(165.042 342.636)">
                <path class="e"
                      d="M972.794,669.391c-15.182,0-25.421-3.5-25.573-3.556l.343-.977c.227.079,22.954,7.84,50.965-.01l.279,1A96.432,96.432,0,0,1,972.794,669.391Z"
                      transform="translate(-947.221 -664.848)"/>
            </g>
            <g transform="translate(164.635 356.327)">
                <path class="e"
                      d="M971.247,682.878c-15.587,0-24.291-3.786-24.419-3.844l.424-.946c.191.086,19.44,8.429,52.2-.028l.259,1A113.853,113.853,0,0,1,971.247,682.878Z"
                      transform="translate(-946.828 -678.06)"/>
            </g>
            <g transform="translate(164.609 368.483)">
                <path class="e"
                      d="M974.966,696.346c-16.949,0-28-5.553-28.163-5.633l.475-.922c.226.117,22.965,11.515,53.3,1.219l.333.981A80.433,80.433,0,0,1,974.966,696.346Z"
                      transform="translate(-946.803 -689.79)"/>
            </g>
            <g transform="translate(164.132 383.6)">
                <path class="e"
                      d="M975.963,709.463a102.618,102.618,0,0,1-29.62-4.1l.333-.981a105.74,105.74,0,0,0,55.637.636l.272,1A101.87,101.87,0,0,1,975.963,709.463Z"
                      transform="translate(-946.343 -704.377)"/>
            </g>
        </g>
        <g transform="translate(1118.252 531.135)">
            <g transform="translate(0)">
                <path class="e"
                      d="M1114.576,530.428l-1.979-.512a6.824,6.824,0,0,0-3.534.369,29.767,29.767,0,0,1,.743,3.851,17.463,17.463,0,0,1,1.088,2.4,4.538,4.538,0,0,1-1.393,1.994,11.434,11.434,0,0,1-2.46,1.775q-1.362.73-1.813.489a.983.983,0,0,1-.262-.2q-.56-.589-.979-3.627a23.158,23.158,0,0,0-1.17-5.086,9.723,9.723,0,0,1-.935-2.4,8.479,8.479,0,0,1,1.539-3.177,19.3,19.3,0,0,1,2.657-3.493,1.162,1.162,0,0,1,1.54-.267,6.371,6.371,0,0,0,1.625.847l3.749.174a23.841,23.841,0,0,1,6.9,1.444,5.764,5.764,0,0,1-.516,2.917,7.321,7.321,0,0,1-1.544,2.7,1.541,1.541,0,0,1-1.619.342A13.648,13.648,0,0,0,1114.576,530.428Z"
                      transform="translate(-1101.881 -522.359)"/>
            </g>
            <g transform="translate(4.639 10.582)">
                <path class="e"
                      d="M1155.377,541.424q-4.311-.686-23.532,3.374-18.145,3.856-19.663,4.853a1.654,1.654,0,0,0-.818.477,8.081,8.081,0,0,1-.821.631,3.206,3.206,0,0,1-1.81.373,1.662,1.662,0,0,1-1.364-.57,8.808,8.808,0,0,1-.885-3.568q-.328-2.823.194-3.73a2.14,2.14,0,0,1,1.1-1.082q3.125-.878,20.153-4.5,19.067-4.065,24.483-4.574a7.49,7.49,0,0,1,1.355-.541,3.107,3.107,0,0,1,2.162.785,2.831,2.831,0,0,1,.335.43q.33.507.074,3.775t-.806,3.791A.22.22,0,0,1,1155.377,541.424Z"
                      transform="translate(-1106.357 -532.571)"/>
            </g>
            <g transform="translate(29.961 32.602)">
                <path class="e"
                      d="M1148.806,567.781a19.448,19.448,0,0,1-3.627,2.474,9.5,9.5,0,0,1-3.217,1.408,15.419,15.419,0,0,1-2.347-1.057,22.262,22.262,0,0,0-5.057-1.471q-3.012-.578-3.534-1.125a.771.771,0,0,1-.184-.273q-.218-.466.564-1.805a10.735,10.735,0,0,1,1.882-2.384,4.137,4.137,0,0,1,2.1-1.248q.23-.072,1.154.546a4.7,4.7,0,0,0,1.189.664q.877.137,3.806.941a7.271,7.271,0,0,0,.591-3.548q-.242-.965-.448-1.965-.034-.191-.455-1.66a1.526,1.526,0,0,1,.389-1.636,7.319,7.319,0,0,1,2.775-1.4,5.48,5.48,0,0,1,2.976-.324,22.948,22.948,0,0,1,1.047,6.923q.027,1.915.017,3.793a6.418,6.418,0,0,0,.762,1.666A1.162,1.162,0,0,1,1148.806,567.781Z"
                      transform="translate(-1130.792 -553.819)"/>
            </g>
        </g>
        <g transform="translate(798.349 325.091)">
            <path class="e"
                  d="M833.977,376.6a5.566,5.566,0,0,1,.439,3.654,3.406,3.406,0,0,1-2.064,2.591q-1.166.468-6.952-.376t-6.4-1.942a6.078,6.078,0,0,1-.412-1.409,5.909,5.909,0,0,0-.377-1.339l-14.169-29.712q-.776-1.626-4.3-.817-3.944.838-5.145-.411a4.8,4.8,0,0,1-.992-1.35,7.321,7.321,0,0,1-.2-4.421,41.116,41.116,0,0,0,.759-4.964l-.934-6.328q-.281-3.686,2.69-5.1a12.942,12.942,0,0,1,6.961-1.062q4.374.434,5.622,3.05l22.367,46.9a4.106,4.106,0,0,0,1.532,1.484A4.192,4.192,0,0,1,833.977,376.6Z"
                  transform="translate(-793.184 -323.533)"/>
        </g>
        <g transform="translate(808.058 728.579)">
            <path class="e"
                  d="M812.123,761.157a4.3,4.3,0,0,1-2.01,2.007,2.63,2.63,0,0,1-2.558-.021q-.841-.485-3.082-4.4t-1.866-4.814a4.7,4.7,0,0,1,.661-.921,4.589,4.589,0,0,0,.633-.867l11.311-22.759q.619-1.247-1.55-3-2.386-2-2.2-3.323a3.691,3.691,0,0,1,.349-1.245,5.65,5.65,0,0,1,2.593-2.226,32.063,32.063,0,0,0,3.377-1.9l3.4-3.581a3.641,3.641,0,0,1,4.382-.8,10,10,0,0,1,3.96,3.726q1.82,2.865.824,4.869l-17.854,35.929a3.185,3.185,0,0,0-.172,1.637A3.234,3.234,0,0,1,812.123,761.157Z"
                  transform="translate(-802.552 -712.887)"/>
        </g>
        <g transform="translate(1079.263 723.263)">
            <g transform="translate(0 0)">
                <path class="e"
                      d="M1073.828,756.027a4.3,4.3,0,0,1-2.011,2.007,2.63,2.63,0,0,1-2.558-.021q-.84-.485-3.082-4.4t-1.865-4.813a4.761,4.761,0,0,1,.66-.922,4.538,4.538,0,0,0,.634-.867l11.31-22.759q.62-1.247-1.549-3-2.388-2-2.2-3.323a3.723,3.723,0,0,1,.348-1.246,5.65,5.65,0,0,1,2.593-2.226,31.75,31.75,0,0,0,3.378-1.9l3.4-3.58a3.638,3.638,0,0,1,4.381-.795,9.984,9.984,0,0,1,3.961,3.724q1.82,2.865.824,4.87L1074.2,752.7a3.165,3.165,0,0,0-.172,1.637A3.244,3.244,0,0,1,1073.828,756.027Z"
                      transform="translate(-1064.258 -707.757)"/>
            </g>
        </g>
        <g transform="translate(711.909 499.51)">
            <g transform="translate(5.308 24.251)">
                <path class="e"
                      d="M738.882,528.814a2.269,2.269,0,0,1,.852,1.236,1.391,1.391,0,0,1-.254,1.326,8.3,8.3,0,0,1-2.582,1.182q-2.249.793-2.678.512a2.5,2.5,0,0,1-.417-.431,2.455,2.455,0,0,0-.39-.412l-10.751-8.044q-.589-.44-1.707.52-1.265,1.049-1.936.827a1.954,1.954,0,0,1-.615-.3,2.983,2.983,0,0,1-.91-1.559,17.049,17.049,0,0,0-.666-1.937l-1.537-2.108a1.924,1.924,0,0,1,0-2.353,5.287,5.287,0,0,1,2.313-1.7,2.582,2.582,0,0,1,2.608.035l16.97,12.7a1.665,1.665,0,0,0,.834.246A1.714,1.714,0,0,1,738.882,528.814Z"
                      transform="translate(-714.893 -515.243)"/>
            </g>
            <g transform="translate(22.511)">
                <path class="e"
                      d="M755.482,505.413a2.269,2.269,0,0,1,.852,1.236,1.393,1.393,0,0,1-.254,1.327,8.349,8.349,0,0,1-2.582,1.182q-2.249.793-2.678.511a2.5,2.5,0,0,1-.417-.431,2.4,2.4,0,0,0-.39-.411l-10.751-8.045q-.589-.44-1.707.52-1.265,1.049-1.936.827a1.954,1.954,0,0,1-.615-.3,2.98,2.98,0,0,1-.91-1.559,17.043,17.043,0,0,0-.666-1.937l-1.537-2.108a1.922,1.922,0,0,1,0-2.352,5.28,5.28,0,0,1,2.313-1.7,2.582,2.582,0,0,1,2.608.035l16.971,12.7a1.665,1.665,0,0,0,.834.246A1.718,1.718,0,0,1,755.482,505.413Z"
                      transform="translate(-731.494 -491.842)"/>
            </g>
            <g transform="translate(17.214 12.396)">
                <path class="e"
                      d="M731.807,504.128q1.031-.754,3.3.247a19.457,19.457,0,0,1,4.573,3.116,27.764,27.764,0,0,1,4.984,5.738q3.016,4.628,1.125,6.792a3.522,3.522,0,0,1-.909.692q-1.009.536-1.1.6-.662.333-2.121,1.152-1.163.674-4.092-.805a27.466,27.466,0,0,1-5.617-3.893,23.049,23.049,0,0,1-4.346-4.844q-1.691-2.626-1.045-4.256a.9.9,0,0,1,.115-.17.891.891,0,0,1,.4-.225c.189-.06.3-.134.328-.221a4.655,4.655,0,0,1,.812-1.316,8.012,8.012,0,0,1,1.725-1.4Q731.619,504.268,731.807,504.128Zm-.882,3.485q-.8.919.813,3.244a22.4,22.4,0,0,0,3.537,3.8,26.033,26.033,0,0,0,4.144,2.911q2.383,1.371,2.717.988.651-.746-1.266-3.267a33.6,33.6,0,0,0-4.437-4.585,25.043,25.043,0,0,0-3.457-2.616Q731.344,507.136,730.925,507.613Z"
                      transform="translate(-726.382 -503.804)"/>
            </g>
            <g transform="translate(0 34.911)">
                <path class="e"
                      d="M714.943,525.908q.995-.8,3.3.1a19.451,19.451,0,0,1,4.71,2.9,27.72,27.72,0,0,1,5.24,5.506q3.222,4.486,1.432,6.734a3.538,3.538,0,0,1-.876.733q-.984.581-1.067.646-.647.362-2.066,1.248-1.132.726-4.124-.619a27.383,27.383,0,0,1-5.788-3.633,23.059,23.059,0,0,1-4.563-4.642q-1.808-2.546-1.236-4.2a.836.836,0,0,1,.107-.175.88.88,0,0,1,.389-.244c.185-.069.291-.147.317-.235a4.666,4.666,0,0,1,.752-1.352,7.958,7.958,0,0,1,1.661-1.473Q714.761,526.055,714.943,525.908Zm-.723,3.52q-.76.956.961,3.2a22.335,22.335,0,0,0,3.706,3.634,25.952,25.952,0,0,0,4.273,2.719q2.442,1.262,2.759.863.617-.776-1.414-3.206a33.58,33.58,0,0,0-4.642-4.378,24.969,24.969,0,0,0-3.572-2.455Q714.616,528.932,714.22,529.429Z"
                      transform="translate(-709.771 -525.531)"/>
            </g>
        </g>
        <g transform="translate(1085.309 323.358)">
            <g transform="translate(0)">
                <path class="e"
                      d="M1112.9,333.232q2.324,2.265.774,8.368a49.5,49.5,0,0,1-5.88,12.773,70.456,70.456,0,0,1-12.279,14.912q-10.325,9.512-16.546,5.686a8.987,8.987,0,0,1-2.119-1.986q-1.77-2.3-1.956-2.493-1.115-1.52-3.785-4.83-2.178-2.629.292-10.6a69.692,69.692,0,0,1,7.387-15.719,58.545,58.545,0,0,1,10.306-12.937q5.865-5.346,10.224-4.413a2.164,2.164,0,0,1,.475.216,2.263,2.263,0,0,1,.733.906q.347.668.691.729a11.83,11.83,0,0,1,3.643,1.48,20.372,20.372,0,0,1,4.227,3.738Q1112.475,332.818,1112.9,333.232Zm-9.1-.741q-2.643-1.624-7.786,3.408a56.833,56.833,0,0,0-8.029,10.467,66.061,66.061,0,0,0-5.546,11.615q-2.433,6.549-1.331,7.225,2.148,1.32,7.654-4.551a85.439,85.439,0,0,0,9.62-13.056,63.526,63.526,0,0,0,5.094-9.767Q1105.173,333.337,1103.8,332.491Z"
                      transform="translate(-1070.091 -321.861)"/>
            </g>
        </g>
    </g>
</svg>
