<svg xmlns="http://www.w3.org/2000/svg" xmlns:xlink="http://www.w3.org/1999/xlink" width="1365.799" height="768"
     viewBox="0 0 1365.799 768">
    <defs>
        <style>
            .a,.ai,.n{fill:none;}.b{clip-path:url(#a);}.c{fill:#d2c3db;}.d{fill:#eadff1;}.e,.f,.g{fill:#000;}.f,.g{stroke:#4f3b65;}.ai,.f,.g,.n{stroke-miterlimit:10;}.f{stroke-width:6.876px;}.g{stroke-width:6px;}.h{clip-path:url(#b);}.i,.p{fill:#d8a35d;}.i{fill-rule:evenodd;}.j{fill:#947dce;}.k{fill:#ffc84f;}.l{opacity:0.3;}.m{opacity:0.5;}.n{stroke:#947dce;stroke-width:1.407px;}.o{fill:#d19442;}.q{opacity:0.15;}.r{isolation:isolate;}.s{clip-path:url(#c);}.t{fill:#bdf0ff;}.u{fill:#00a9dd;}.v{fill:#141010;}.w{fill:#005ede;}.x{clip-path:url(#d);}.y{fill:#9c8679;}.z{fill:#362e29;}.aa{fill:#ee4036;}.ab{fill:#e7e7e8;}.ac{fill:#282829;}.ad{fill:#030000;}.ae{fill:#58585a;}.af{fill:#4eaf7f;}.ag{fill:#f4f06f;}.ah{fill:#1b242c;}.ai{stroke:#1b242c;stroke-width:1.197px;}
        </style>
        <clipPath id="a">
            <rect class="a" width="1365.799" height="768" transform="translate(0.1 2841.209)"/>
        </clipPath>
        <clipPath id="b">
            <rect class="a" width="544.615" height="469.58" transform="translate(244.751 3139.63)"/>
        </clipPath>
        <clipPath id="c">
            <path class="a" d="M182.345,3278.12l-.658-129.259-101.81,7.832.658,129.259Z"/>
        </clipPath>
        <clipPath id="d">
            <path class="a" d="M1297.06,3277.126l-.2-105.44-99.622-14,.2,105.44Z"/>
        </clipPath>
    </defs>
    <g transform="translate(-0.1 -2841.209)">
        <g class="b">
            <path class="c" d="M1365.9,2855.246v758.463l-242.228-67.586-32.991-6.263,1.636-558.092,30.118-25.561Z"/>
            <path class="c" d="M316.2,2971.181l-16.051,556.371L.1,3601.95V2851.9l298.845,93.571Z"/>
            <path class="d" d="M697.877,2934.781H273.269v617.384h849.165V2934.781Z"/>
            <path class="e"
                  d="M-.1,2906.489c121.657,30.38,335.7,73.888,615,80.372,352.971,8.195,622.428-47.1,751-78.7v-62.455H-.1Z"/>
            <path class="e"
                  d="M-.1,3568.393c121.657-29.39,335.7-71.48,615-77.753,352.971-7.927,622.428,45.568,751,76.133v47.19L.1,3616.709Z"/>
        </g>
        <path class="f" d="M1160.033,3101.2v207l66.988,8.1,21.016,2.53,77.5,9.37v-247l-77.5,9.37-21.016,2.53Z"/>
        <path class="g"
              d="M201.235,3088.687V3319.1l-56.767,9.016-17.809,2.816-65.672,10.43V3066.425l65.672,10.43,17.809,2.816Z"/>
        <g class="h">
            <path class="i"
                  d="M733.359,3467.874s7.188-8.2,15.568-9.845c4.982-.98,4.813-2.237,5.652-2.649,2.786-1.365.256,4.014-3.947,5.54-3.416,1.241-5.106,7.234-7.135,8.574s-8.16,3.9-9.747,3.147S733.359,3467.874,733.359,3467.874Z"/>
            <path class="i"
                  d="M711.267,3479.065c1.529-.583,17.493-11.057,26.332-12.24s22.094-2.1,26.621-3.59c5.326-1.754,6.775.331.664,2.956-3.972,1.706-12.141,4.433-13.968,4.582-.886.073,4.863-.941,11.093-2.5,6.623-1.659,13.792-3.84,14.172-2.663.738,2.28-18.29,8.259-21.666,8.765a85.654,85.654,0,0,0,8.893-1.45c4-.882,8.568-2.5,9.511-1.7,1.485,1.26-8.542,5.677-16.917,7.191-.135.278,2.6.593,12.429-1.873.988-.248,3.541.083.342,1.725-6.734,3.456-9.375,5.44-19.31,6.159-9.689.7-20.479-.856-27.36,1.771Z"/>
            <path class="j"
                  d="M718.27,3490.905c-7.765,3.039-64.148,13.378-115.9,2.012-32.665-7.161-63.473-22.986-79.06-54.751-40.275-82.112,53.837-128.69,53.837-128.69a1.772,1.772,0,0,1,.14.225c4.08,6.162,91.805,137.778,152.675,158.316C729.96,3468.017,730.931,3485.939,718.27,3490.905Z"/>
            <path class="k"
                  d="M306.454,3625.861l11.32.02,3.8.01a106.937,106.937,0,0,0,18.51,3.61,100.959,100.959,0,0,0,20.97.03,83.07,83.07,0,0,0,17.28-3.53l2.22.01c.36-5.609.72-11.33,1.06-17.07.38-6.18.74-12.4,1.1-18.56.38-6.539.75-13.01,1.11-19.33.15-2.49.3-4.959.44-7.39q.3-5.22.6-10.22c.58-9.669,1.15-18.65,1.71-26.5.37-5.13.73-9.78,1.1-13.82.88-9.68,1.77-15.87,2.69-16.87.35-.38.67-.26.97.3.95,1.81,1.64,8.291,2.17,18.12.18,3.39.34,7.18.48,11.32q.12,3.345.22,6.98c.19,6.76.35,14.23.49,22.23.04,2.761.09,5.58.13,8.46.05,2.97.09,6,.14,9.09.09,6.94.18,14.151.28,21.51.06,5.391.13,10.87.2,16.391.06,5.1.13,10.239.2,15.389l17.36.03,22.72.05,20.74.04,19.75.04c-.21-3.92-.42-7.989-.62-12.16-.33-6.59-.66-13.46-.99-20.48-.3-6.56-.61-13.25-.91-19.969-.14-3.311-.29-6.621-.43-9.931q-.27-5.94-.52-11.86c-.27-6.42-.53-12.77-.79-18.959-.23-5.38-.44-10.63-.65-15.711-.04-1.13-.09-2.26-.13-3.37-.23-5.58-.44-10.93-.64-15.96v-.05c-.06-1.539-.12-3.06-.18-4.539-.21-5.241-.39-10.081-.56-14.411-.54-14-.86-22.73-.86-22.73a11.407,11.407,0,0,1-6.71,2.43c-1.8-.12-4.3-.289-7.37-.49-3.68-.26-8.18-.58-13.28-.95h-.01q-3.63-.27-7.62-.57c-.59-.05-1.18-.089-1.78-.13h-.01c-5.71-.44-11.87-.93-18.28-1.459q-2.775-.227-5.63-.471c-.54-.05-1.08-.089-1.63-.14h-.01c-3.99-.34-8.04-.69-12.1-1.06-5.11-.47-10.22-.95-15.23-1.45-2.08-.21-4.15-.42-6.18-.629-3.24-.341-6.42-.69-9.5-1.041h-.04c-3.06-.35-6.03-.709-8.87-1.07-2.38-.3-4.68-.6-6.87-.91-.11-.01-.22-.03-.33-.039-.93-.13-1.44-.211-1.44-.211-5.12-.74-9.6-1.49-13.21-2.24-1.05-.22-2.03-.44-2.93-.66-.12-.04-.25-.07-.37-.1-.2-.05-.4-.1-.59-.15-.58-.15-1.11-.3-1.6-.45-.56-.17-1.07-.34-1.52-.52-.13-.049-.26-.1-.38-.15a9.328,9.328,0,0,1-1.13-.54,2.787,2.787,0,0,1-.86-.69v.15c-.01.2-.02.61-.04,1.21-.01.15-.01.3-.02.46-.02.54-.04,1.19-.07,1.96-.02.611-.05,1.28-.07,2.03-.02.56-.04,1.16-.06,1.79-.02.34-.03.69-.04,1.05,0,.09-.01.17-.01.26-.01.34-.02.69-.04,1.051q-.06,1.965-.15,4.259c-.02.551-.04,1.12-.06,1.71-.03,1.05-.07,2.14-.11,3.27-.05,1.42-.1,2.91-.15,4.46v.1c-.01.2-.01.41-.02.62l-.03.84c-.02.51-.03,1.02-.05,1.53-.02.57-.04,1.15-.06,1.73-.02.52-.03,1.05-.05,1.59-.12,3.44-.24,7.09-.36,10.92-.03.63-.05,1.27-.07,1.91-.05,1.29-.09,2.6-.13,3.92-.08,2.391-.16,4.85-.24,7.35-.15,4.62-.37,9.4-.65,14.291-.34,5.789-.76,11.75-1.26,17.789q-.33,3.93-.7,7.9c-.88,9.5-1.93,19.15-3.1,28.681-.04.329-.08.659-.13.989-.76,6.15-1.57,12.24-2.42,18.21-.9,6.3-1.84,12.47-2.81,18.42-1.02,6.25-2.07,12.261-3.12,17.941C307.1,3622.5,306.784,3624.2,306.454,3625.861Z"/>
            <g class="l">
                <path d="M408.139,3454.43c.249,0,.5,0,.737,0C408.876,3454.432,408.615,3454.428,408.139,3454.43Z"/>
                <path class="m"
                      d="M408.139,3454.43c-19.658-.121-62.093-6.551-62.093-6.551-12.477-1.8-21.187-3.672-22.589-5.5,0,0,0,.052,0,.146-.076,1.967-.881,24.492-1.831,54.026a14.568,14.568,0,0,0,2.072-.061c4.463-.436,8.069-2.869,10.964-6.453A35.611,35.611,0,0,0,339.4,3482C356.338,3455.55,401.836,3454.454,408.139,3454.43Z"/>
            </g>
            <path class="n"
                  d="M454.814,3453.431l.04,4.58.2,20.15.21,22.49v.04l.17,17.18v.92l.16,16.68.22,22.4.05,5.79.14,14.7.2,20.92.19,19.49.07,7.39"/>
            <path class="n"
                  d="M433.934,3455.991l.01.5.03,3.68.18,16.93.21,19.58.06,5.62.18,17.43.01,1.35.17,16.12.24,22.91.04,3.55.18,16.56.21,20.49.2,19.05.07,6.36"/>
            <path class="n"
                  d="M413.874,3454.271v.63l-.05,8.96-.02,4.56-.04,7.49-.08,14.98-.05,10.35-.09,17.26-.02,5.06-.07,13.12-.11,22.05-.03,4.93-.07,14.44-.1,20.32-.1,18.09-.04,9.56"/>
            <line class="n" x1="4.197" y2="43.649" transform="translate(390.366 3452.607)"/>
            <path class="n"
                  d="M361.054,3629.531l.24-3.56.96-14.25,1.29-19.07,1.22-18.12.74-10.87.56-8.31.1-1.46,1.28-19.02.37-5.42.81-12.05,1.47-21.77,1.31-19.36.23-3.46.17-2.53.03-.41.6-8.93.08-1.19.56-8.24.02-.36.03-.39"/>
            <path class="n"
                  d="M340.084,3629.5l.29-3.57,1.25-15.41,1.52-18.8,1.43-17.7,1.31-16.22.27-3.26,1.65-20.47.01-.1.14-1.74,1.27-15.72,1.72-21.29,1.97-24.26.16-2.02.03-.4.48-5.94,1.09-13.48.01-.08"/>
            <path class="n"
                  d="M336.554,3447.481l-1.39,13.21-.2,1.91-.62,5.91-2.5,23.69-.08.81v.01l-2.11,19.98-1.86,17.64-.48,4.62-1.59,15.1v.01l-1.42,13.45-.52,4.91-1.95,18.52-1.95,18.58-2,18.92-.11,1.13"/>
            <path class="n" d="M469.794,3478.8s-116.88-4.517-147.164-12.657"/>
            <path class="n" d="M390.366,3496.255c39.936,12.728,80.168,1.5,80.168,1.5"/>
            <path class="n" d="M391.043,3493.537s-37.645,7.167-69.181-4.332"/>
            <path class="n" d="M471.174,3513.765s-30.674,12.843-77.676.909"/>
            <path class="n" d="M471.954,3532.838s-46.875,10.016-77.755.131"/>
            <path class="n" d="M472.751,3551.787s-24.831,16.235-78.062,3.416"/>
            <path class="n" d="M473.7,3573.586s-37.064,15.483-78.741-.835"/>
            <path class="n" d="M474.61,3593.56s-26.656,15.672-79.373.7"/>
            <path class="n" d="M475.6,3614.04s-36.233,15.144-80.156-3.387"/>
            <path class="n" d="M387.675,3513.123s-16.446,11.359-67.653-2.527"/>
            <path class="n" d="M385.63,3532.172s-22.412,8.193-65.919-3.542"/>
            <path class="n" d="M384.86,3553.442s-34.135,7.16-66.789-5.744"/>
            <path class="n" d="M383.828,3571.048s-33.581,11.6-67.912-5.841"/>
            <path class="n" d="M382.714,3590.378s-31.723,8.157-69.35-5.965"/>
            <path class="n" d="M381.618,3608.942s-26.959,9.413-71.061-6.112"/>
            <path class="n"
                  d="M307.434,3620.771a109.713,109.713,0,0,0,10.45,3.98q1.86.615,3.69,1.14a107.145,107.145,0,0,0,18.51,3.61,101.044,101.044,0,0,0,20.97.03,83.07,83.07,0,0,0,17.28-3.53c1.22-.4,1.87-.67,1.87-.67"/>
            <path class="o"
                  d="M482.339,3225.347s-3.439,16.9-16.306,22.967,23.393,6.984,23.393,6.984-1.536-17.626,2.788-27S482.339,3225.347,482.339,3225.347Z"/>
            <ellipse class="p" cx="18.521" cy="25.269" rx="18.521" ry="25.269"
                     transform="translate(463.916 3191.067) rotate(-21.079)"/>
            <path class="j"
                  d="M602.368,3492.917c-32.665-7.161-63.473-22.986-79.06-54.751-.056.084-.112.155-.168.239-.169.211-.338.436-.507.689a.766.766,0,0,0-.112.155C518.033,3445.383,496,3475.5,496,3475.515c-7.99,10.41-20.2,20.412-29.893,24.436-.633.281-1.28.52-1.871.731-23.76,3.714-122.711-33.889-134.5-43.286-5.317-4.234-7.4-24.083-7.821-45.607-.535-26.235,1.364-55,2.757-61.067,2.363-10.17,49.082-122.7,122.387-115.578a75.141,75.141,0,0,1,19.076,4.473s.549.577,1.519,1.435a36.075,36.075,0,0,0,6.626,4.713,28.121,28.121,0,0,0,6.767,2.715,20.735,20.735,0,0,0,13.828-1.126c4.586-2.054,14.771.352,27.136,7.259,17.177,9.58,38.6,27.854,55.131,54.863a1.772,1.772,0,0,1,.14.225,176.716,176.716,0,0,1,23.69,65.035A419.371,419.371,0,0,1,602.368,3492.917Z"/>
            <path class="q"
                  d="M523.3,3438.159c-.055.087-.12.156-.175.242-.167.214-.338.442-.5.688-.043.046-.073.095-.12.155-4.488,6.132-26.5,36.262-26.509,36.275-7.994,10.4-20.2,20.409-29.9,24.428,11.025-17.6,44.138-68.273,50.193-90.865C513,3431.618,523.309,3438.146,523.3,3438.159Z"/>
            <path class="q"
                  d="M478.689,3252.1c-.533,1.588,0,2.893,2.682,3.311,8.359,1.307,17.363,4.244,23.053,9.232a5.843,5.843,0,0,0,5.487,1.389c4.956-1.208,9.768-7.787,11.78-10.739a2.336,2.336,0,0,0,.321-.682c-12.369-6.908-22.544-9.315-27.139-7.251a20.706,20.706,0,0,1-13.824,1.114A11.388,11.388,0,0,0,478.689,3252.1Z"/>
            <path class="k"
                  d="M491.563,3191.948s-23.524,28.119-24.91-1.936C465.7,3169.218,507.391,3172.21,491.563,3191.948Z"/>
            <path class="k"
                  d="M484.774,3187.257s20.567,3.48,22.793,14.066c0,0-7.775-31.17-24.707-25.5s-22.757,9.758-9.155,40.644C473.7,3216.465,468.9,3189.579,484.774,3187.257Z"/>
            <path class="k"
                  d="M483.66,3175.735s-4.413-8.944-13.1-4.09-10.6,11.623-9.885,17.379.916,10.2-.4,10.706c0,0,5.456,2.42,6.262.6,0,0,.232,10.753,7.548,16.834,0,0-2.9-12.6,3.158-16.438S483.66,3175.735,483.66,3175.735Z"/>
            <path class="k"
                  d="M482.788,3175.979s5.046-6.467,15.15.191l6.974,6.358s-.807,1.819-3.938,1.518c0,0,4.761,8.787,5.519,14.491l-9.963-14.286Z"/>
            <path class="q" d="M339.134,3412.33s10.265-40.773,114.077,4.9-88.524,1.465-88.524,1.465Z"/>
            <path class="q"
                  d="M385.333,3309.475s3.647,110.087-102.058,124.82l-2.266.692,7.508-23.4s62.09-48.074,62.725-49.6S385.333,3309.475,385.333,3309.475Z"/>
            <path class="i"
                  d="M438.668,3429.314c1.4-.047,17.3-4.1,24.816-2.589s18.539,4.467,22.634,4.521c4.818.063,5.413,2.162-.287,2.587-3.7.277-11.1.21-12.63-.179-.74-.189,4.215.593,9.713,1.066,5.845.5,12.28.734,12.26,1.8-.037,2.059-17.17,1.6-20.054,1.068a73.319,73.319,0,0,0,7.631,1.307c3.5.4,7.661.363,8.2,1.276.855,1.439-8.527,2.226-15.754,1.116-.188.189,1.949,1.209,10.622,1.951.871.075,2.854,1.057-.2,1.5-6.438.926-9.138,1.8-17.412-.392-8.068-2.137-16.4-6.417-22.726-6.205Z"/>
            <path class="i"
                  d="M459.746,3426.393s8.13-4.653,15.4-3.65c4.322.6,4.536-.473,5.333-.573,2.645-.331-.914,3.333-4.756,3.4-3.122.054-6.169,4.452-8.193,4.974s-7.719.886-8.8-.166S459.746,3426.393,459.746,3426.393Z"/>
            <path class="j"
                  d="M372.12,3231.53c-32.174,15.137-56.041,30.992-87.724,97.13-16.074,33.556-25.14,69.2-29.236,88.206a22.9,22.9,0,0,0,9.383,23.582c71.717,49.99,181.634.593,181.634.593,5.062-.336.741-19.319.741-19.319-43.843-13.586-77.945-22.3-117.016-19.283.2-.03,53.7-54.177,63.64-70.554,26.054-42.952,78.072-71.321,73.177-92.665C465.03,3231.838,404.572,3216.261,372.12,3231.53Z"/>
        </g>
        <g class="r">
            <g class="s">
                <path class="t"
                      d="M148.9,3151.382a21.166,21.166,0,0,1,13.98,3.909c9.384,6.636,15.328,21.378,14.667,36.37-.5,11.423-4.482,22.953-2.7,33.967,1.655,10.229,8.122,18.586,7.38,29.173a24.037,24.037,0,0,1-8.831,16.832c-4.517,3.541-9.673,4.853-14.73,5.85-9.207,1.818-18.46,2.789-27.7,3.76q-13.752,1.446-27.505,2.885c-1.078.114-2.162.226-3.247.31-3.585.276-7.173.232-10.547-1.154a15.725,15.725,0,0,1-9.205-12.727c-.807-6.466,1.881-13.1,5.276-17.945s7.551-8.551,10.924-13.429a30.766,30.766,0,0,0,4.71-10.47,8.1,8.1,0,0,0,1.086,1.387.226.226,0,0,1,.065.182c-.18,2.425-1.287,14.72-5.313,18.836a12.629,12.629,0,0,0-4.249,7.14,10.29,10.29,0,0,0,1.18,6.617.875.875,0,0,0,.321.349,2.313,2.313,0,0,0,1.327.34,1.943,1.943,0,0,0,1.123-.482,3.794,3.794,0,0,0,.983-1.44,4.7,4.7,0,0,0,.521,1.708,1.771,1.771,0,0,0,1.763.97h.012l.046-.008a3.211,3.211,0,0,0,2.535-1.96,4.729,4.729,0,0,0,.246-2.422,2.472,2.472,0,0,0,1.2.405,1.315,1.315,0,0,0,.2,0,2.245,2.245,0,0,0,1.764-1.865c.8-3.137.375-5.528-1.216-6.724a.182.182,0,0,1-.062-.127.28.28,0,0,1,.03-.172c.675-1.2,1.783-3.261,2.779-5.471a24.451,24.451,0,0,1,.626,6.791c-.056.374-.571,4.037.789,5.949a2.551,2.551,0,0,0,2.425,1.089,4.9,4.9,0,0,0,1.047-.208c1.181-.363,1.543-1.063,1.953-2.6a4.144,4.144,0,0,0,.064-1.166l0-.119a3.916,3.916,0,0,0,2.7-2.359,6.7,6.7,0,0,0-.452-4.869c.174-.643.546-2.369-.063-3.364a1.348,1.348,0,0,0-1.356-.639,3.234,3.234,0,0,0-.773.169,16.489,16.489,0,0,1-2.384-4.463,22.766,22.766,0,0,0,11.8,2.676,16.556,16.556,0,0,0,3.406-.624,48.331,48.331,0,0,1-4.425,16.064,12.6,12.6,0,0,0-1.3,5.5c-.027,2.532.436,4.389,1.368,5.517a3.34,3.34,0,0,0,2.993,1.177,5.725,5.725,0,0,0,.786-.115l.091-.041c.049-.03,1.011-.669,1.2-2.721a2.227,2.227,0,0,0,1.557.7,1.255,1.255,0,0,0,.29-.057c.612-.2,1.093-.858,1.432-1.96a8.137,8.137,0,0,0,.43-4.733,2.768,2.768,0,0,0,.465.007,1.709,1.709,0,0,0,1.353-.764c.575-.848.6-2.287.082-4.284-.024-.458-.275-1.953-2.633-2.35.394-2.07,1.873-9.879,2.938-15.694a22.368,22.368,0,0,0,2-2.028c1.7,2.167,5.056,7.629,4.65,16.534-.014.163-.388,4,.955,5.54a1.712,1.712,0,0,0,1.487.622,3.1,3.1,0,0,0,1.074-.313,3.8,3.8,0,0,0,1.747-3.464v-.03a5.462,5.462,0,0,0,1.463.1,2.572,2.572,0,0,0,2.091-1.124,4.537,4.537,0,0,0,.239-3.48c.511-.8,2.091-3.5,1.559-5.534-.339-1.3-1.439-2.011-3.268-2.117l-.958-.058c-.57-1.375-3.653-8.642-6.791-13.1a48.465,48.465,0,0,0,2.1-4.766c.03-.079.075-.108.1-.114a.083.083,0,0,1,.035-.01.112.112,0,0,1,.084.031c.984.879,3.309,2.659,5.793,2.468a4.556,4.556,0,0,0,1.316-.3c1.7-.653,3.1-2.339,4.162-5,.029-.074.078-.123.125-.127h.017a6.242,6.242,0,0,0,.835-.012,7.089,7.089,0,0,0,5.475-3.306,14.642,14.642,0,0,0,2.048-7.128,1.64,1.64,0,0,0,.549.617.977.977,0,0,0,.6.148,2.914,2.914,0,0,0,1.77-1.292,1.3,1.3,0,0,0,.247-.516c.329-1.314,1.828-8.077-.949-12.231a.992.992,0,0,0-.179-.2c.355-1.72.478-3.95-.672-5.5a1.041,1.041,0,0,0-.575-.4,7.707,7.707,0,0,0-2.506-.229,5.763,5.763,0,0,0-3.539,1.492l-.344-.219a.594.594,0,0,0-.1-.048l-2.211-.953a13.258,13.258,0,0,0,.835-1.833l.024-.057,0-.068a1.775,1.775,0,0,0-1.051-1.637,2.6,2.6,0,0,0-1.4-.29,2.544,2.544,0,0,0-1.189.408,3.206,3.206,0,0,0-.514.412c-1.64-3.4-4.954-9.269-8.231-9.017a2.749,2.749,0,0,0-1,.279c-.085.044-7.764,3.874-9.565,12.078a5.222,5.222,0,0,0-1.287,1.022,7.279,7.279,0,0,0-1.07,1.517,21.308,21.308,0,0,0-12.5-3.157q-.717.054-1.456.168l.167-.473c4.155-11.79,8.581-24.06,16.1-32.046a25.5,25.5,0,0,1,16.482-8.366"/>
                <path class="u"
                      d="M139.949,3230.827c3.325,4.786,6.664,12.923,6.7,13.016l.086.215,1.314.077c1.064.063,2.392.378,2.7,1.537.392,1.492-.986,3.937-1.548,4.754l-.154.225.074.279a3.694,3.694,0,0,1-.032,2.784,1.96,1.96,0,0,1-1.587.79,5.049,5.049,0,0,1-1.725-.191l-.431-.128.007,1.241a2.765,2.765,0,0,1-1.255,2.517,2.559,2.559,0,0,1-.882.258,1.194,1.194,0,0,1-1.045-.412c-1.07-1.219-.734-4.677-.728-4.746.419-9.185-2.986-14.873-4.794-17.217a31.677,31.677,0,0,0,3.3-5"/>
                <path class="v"
                      d="M140.365,3230.035c3.138,4.456,6.221,11.723,6.791,13.1l.958.058c1.829.106,2.929.821,3.268,2.117.532,2.03-1.048,4.734-1.559,5.534a4.537,4.537,0,0,1-.239,3.48,2.572,2.572,0,0,1-2.091,1.124,5.462,5.462,0,0,1-1.463-.1v.03a3.8,3.8,0,0,1-1.747,3.464,3.1,3.1,0,0,1-1.074.313,1.712,1.712,0,0,1-1.487-.622c-1.343-1.538-.969-5.377-.955-5.54.406-8.905-2.954-14.367-4.65-16.534.177-.2.355-.414.53-.629,1.808,2.344,5.213,8.032,4.794,17.217-.006.069-.342,3.527.728,4.746a1.194,1.194,0,0,0,1.045.412,2.559,2.559,0,0,0,.882-.258,2.765,2.765,0,0,0,1.255-2.517l-.007-1.241.431.128a5.049,5.049,0,0,0,1.725.191,1.96,1.96,0,0,0,1.587-.79,3.694,3.694,0,0,0,.032-2.784l-.074-.279.154-.225c.562-.817,1.94-3.262,1.548-4.754-.3-1.159-1.632-1.474-2.7-1.537l-1.314-.077-.086-.215c-.038-.093-3.377-8.23-6.7-13.016q.208-.388.416-.792"/>
                <path class="u"
                      d="M110.011,3238.907a.126.126,0,0,1,.075.021c.314.2.741.466,1.265.76a16.772,16.772,0,0,0,2.986,5.85l.132.147.167-.064a3.037,3.037,0,0,1,.8-.2.827.827,0,0,1,.83.333,4.257,4.257,0,0,1-.1,2.619l-.069.226.086.2a5.723,5.723,0,0,1,.524,4.136,3.3,3.3,0,0,1-2.462,1.9l-.3.045-.016.422c-.008.2,0,.413.006.616a3.618,3.618,0,0,1-.021.78c-.355,1.333-.543,1.7-1.434,1.973a4.321,4.321,0,0,1-.936.188,2.018,2.018,0,0,1-1.929-.831c-1.157-1.616-.623-5.089-.617-5.128l.006-.047a26.988,26.988,0,0,0-.826-7.961,19.759,19.759,0,0,0,1.682-5.787.242.242,0,0,1,.072-.167.141.141,0,0,1,.075-.033"/>
                <path class="v"
                      d="M111.351,3239.688c.282.158.593.326.93.5a16.489,16.489,0,0,0,2.384,4.463,3.234,3.234,0,0,1,.773-.169,1.348,1.348,0,0,1,1.356.639c.609,1,.237,2.721.063,3.364a6.7,6.7,0,0,1,.452,4.869,3.916,3.916,0,0,1-2.7,2.359l0,.119a4.144,4.144,0,0,1-.064,1.166c-.41,1.537-.772,2.237-1.953,2.6a4.9,4.9,0,0,1-1.047.208,2.551,2.551,0,0,1-2.425-1.089c-1.36-1.912-.845-5.575-.789-5.949a24.451,24.451,0,0,0-.626-6.791c.16-.357.319-.719.471-1.081a26.988,26.988,0,0,1,.826,7.961l-.006.047c-.006.039-.54,3.512.617,5.128a2.018,2.018,0,0,0,1.929.831,4.321,4.321,0,0,0,.936-.188c.891-.273,1.079-.64,1.434-1.973a3.618,3.618,0,0,0,.021-.78c-.007-.2-.014-.42-.006-.616l.016-.422.3-.045a3.3,3.3,0,0,0,2.462-1.9,5.723,5.723,0,0,0-.524-4.136l-.086-.2.069-.226a4.257,4.257,0,0,0,.1-2.619.827.827,0,0,0-.83-.333,3.037,3.037,0,0,0-.8.2l-.167.064-.132-.147a16.772,16.772,0,0,1-2.986-5.85"/>
                <path class="u"
                      d="M143.889,3200.476c-1.481.114-2.52-1.639-2.566-1.716l-.058-.1.036-.131c.58-2.043,1.393-3.369,2.418-3.941a2.37,2.37,0,0,1,.982-.3,2.569,2.569,0,0,1,1.554.405,1.952,1.952,0,0,1,.987,1.791v.059l-.021.057c-.951,2.37-2.017,3.668-3.171,3.859a1.01,1.01,0,0,1-.161.021m-.842-19.174a2.247,2.247,0,0,0-.821.228c-.081.043-7.051,3.524-8.973,10.84a4.776,4.776,0,0,1,1.151-.231,6.218,6.218,0,0,1,3.18.665l-.135.441,1.482,3.216c.029-.016.059-.032.088-.046l.1.443,0,0h0l.1.443c-.563.269-1.181,1.609-1.652,3.585a5.93,5.93,0,0,0-.142,1.469A31.031,31.031,0,0,1,136,3212.953a4.182,4.182,0,0,1-2.9,3.035c-.088.015-.174.026-.256.032-3.019.232-4.182-4.4-4.375-6.944-.387-5.791.034-10.147,1.254-13.006a20.766,20.766,0,0,0-12.093-3.021c-4.723.363-10.171,2.611-15.728,8.682a5,5,0,0,0,.755,0l.071-.006.036.941c-.016,0-.066.009-.146.015h0l-1.917,7.026-.08.465q-.261-.072-.516-.15c-.749,6.59-.936,15.538,2.774,19.3a1.327,1.327,0,0,1,.322,1.013c-.185,2.5-1.334,15.171-5.581,19.513-.028.031-.058.055-.088.083a11.577,11.577,0,0,0-3.908,6.5,9.13,9.13,0,0,0,1.072,5.859l.058.063a1.811,1.811,0,0,0,1.029.269,1.381,1.381,0,0,0,.8-.341,5.239,5.239,0,0,0,1.27-3.067c.068-.941.2-1.656.208-1.725l.665.127c-.049.62-.116,1.191-.2,1.717a6.675,6.675,0,0,0,.426,3.4,1.2,1.2,0,0,0,1.225.638h.012a2.588,2.588,0,0,0,2-1.46,4.841,4.841,0,0,0-.193-3.273,2.386,2.386,0,0,1-.139-.41l.622-.4c.044.12.084.236.124.352a1.958,1.958,0,0,0,1.685,1.21.848.848,0,0,0,.127,0,1.442,1.442,0,0,0,1.132-1.2c.484-1.879.715-4.376-.921-5.611a1.1,1.1,0,0,1-.385-.749,1.557,1.557,0,0,1,.172-.949c1.069-1.907,4.568-8.394,4.779-11.812a1.34,1.34,0,0,1,.422-.934.69.69,0,0,1,.395-.172.623.623,0,0,1,.388.1c1.795,1.157,7.34,4.32,13.646,3.834a15.959,15.959,0,0,0,3.552-.677,50.42,50.42,0,0,0,.234-6.2l.338-.051,6.149-1.438.029-.173.66.179c-.159.924-.38,2.159-.636,3.57,2.75-2.64,5.339-6.568,7.512-12.26a1.036,1.036,0,0,1,.54-.612.617.617,0,0,1,.659.128c.926.827,3.113,2.507,5.4,2.331a4.086,4.086,0,0,0,1.171-.264c1.475-.57,2.706-2.042,3.66-4.366a20.916,20.916,0,0,1-5-1.77l.328-.85c1.19.836,5.22,1.784,5.26,1.794l-.012.077a.647.647,0,0,1,.21-.054.558.558,0,0,1,.07,0,6.092,6.092,0,0,0,.784-.01,6.442,6.442,0,0,0,4.976-2.981c1.316-1.993,1.956-4.9,1.916-8.666a19.9,19.9,0,0,1-.159-3.032l.676-.086c.091,1.03.145,2.009.158,2.943a3.28,3.28,0,0,0,.791,2.083.487.487,0,0,0,.3.071c.433-.033.948-.555,1.337-1.039l.045-.093c.3-1.213,1.673-7.38-.731-11.166-.147.524-.295.95-.4,1.224a2.058,2.058,0,0,1-.36.628c-1.548,1.807-3.012,2.771-4.367,2.875a3.212,3.212,0,0,1-.784-.038c-1.79-.317-2.882-2.16-3.372-3.232a3.18,3.18,0,0,1-.213-1.778,9.722,9.722,0,0,1,1.825-4.645l-.029-.019-2.509-1.081a3.093,3.093,0,0,1-1.69,1.277,1.838,1.838,0,0,1-.3.048,3.221,3.221,0,0,1-2.491-1.458l-.071-.1.036-.135a8.949,8.949,0,0,1,1.194-2.844c-1.516-3.149-4.72-8.941-7.684-8.712"/>
                <path class="v"
                      d="M99.446,3209.811c-.7,6.133-.926,14.368,1.92,18.9a8.1,8.1,0,0,0,1.086,1.387.226.226,0,0,1,.065.182c-.18,2.425-1.287,14.72-5.313,18.836a12.629,12.629,0,0,0-4.249,7.14,10.29,10.29,0,0,0,1.18,6.617.875.875,0,0,0,.321.349,2.313,2.313,0,0,0,1.327.34,1.943,1.943,0,0,0,1.123-.482,3.794,3.794,0,0,0,.983-1.44,4.7,4.7,0,0,0,.521,1.708,1.771,1.771,0,0,0,1.763.97h.012l.046-.008a3.211,3.211,0,0,0,2.535-1.96,4.729,4.729,0,0,0,.246-2.422,2.472,2.472,0,0,0,1.2.405,1.315,1.315,0,0,0,.2,0,2.245,2.245,0,0,0,1.764-1.865c.8-3.137.375-5.528-1.216-6.724a.182.182,0,0,1-.062-.127.28.28,0,0,1,.03-.172c.675-1.2,1.783-3.261,2.779-5.471.16-.357.319-.719.471-1.081a19.759,19.759,0,0,0,1.682-5.787.242.242,0,0,1,.072-.167.141.141,0,0,1,.075-.033.126.126,0,0,1,.075.021c.314.2.741.466,1.265.76.282.158.593.326.93.5a22.766,22.766,0,0,0,11.8,2.676,16.556,16.556,0,0,0,3.406-.624q.057-.52.1-1.014a15.959,15.959,0,0,1-3.552.677c-6.306.486-11.851-2.677-13.646-3.834a.623.623,0,0,0-.388-.1.69.69,0,0,0-.395.172,1.34,1.34,0,0,0-.422.934c-.211,3.418-3.71,9.905-4.779,11.812a1.557,1.557,0,0,0-.172.949,1.1,1.1,0,0,0,.385.749c1.636,1.235,1.4,3.732.921,5.611a1.442,1.442,0,0,1-1.132,1.2.848.848,0,0,1-.127,0,1.958,1.958,0,0,1-1.685-1.21c-.04-.116-.08-.232-.124-.352l-.622.4a2.386,2.386,0,0,0,.139.41,4.841,4.841,0,0,1,.193,3.273,2.588,2.588,0,0,1-2,1.46h-.012a1.2,1.2,0,0,1-1.225-.638,6.675,6.675,0,0,1-.426-3.4c.086-.526.153-1.1.2-1.717l-.665-.127c-.012.069-.14.784-.208,1.725a5.239,5.239,0,0,1-1.27,3.067,1.381,1.381,0,0,1-.8.341,1.811,1.811,0,0,1-1.029-.269l-.058-.063a9.13,9.13,0,0,1-1.072-5.859,11.577,11.577,0,0,1,3.908-6.5c.03-.028.06-.052.088-.083,4.247-4.342,5.4-17.015,5.581-19.513a1.327,1.327,0,0,0-.322-1.013c-3.71-3.759-3.523-12.707-2.774-19.3q-.33-.1-.649-.215M164.5,3198.3c-.074.356-.157.69-.241.992,2.4,3.786,1.035,9.953.731,11.166l-.045.093c-.389.484-.9,1.006-1.337,1.039a.487.487,0,0,1-.3-.071,3.28,3.28,0,0,1-.791-2.083c-.013-.934-.067-1.913-.158-2.943l-.676.086a19.9,19.9,0,0,0,.159,3.032c.04,3.766-.6,6.673-1.916,8.666a6.442,6.442,0,0,1-4.976,2.981,6.092,6.092,0,0,1-.784.01.558.558,0,0,0-.07,0,.647.647,0,0,0-.21.054l-.129.857c-.032-.007-.195-.045-.448-.108-.954,2.324-2.185,3.8-3.66,4.366a4.086,4.086,0,0,1-1.171.264c-2.291.176-4.478-1.5-5.4-2.331a.617.617,0,0,0-.659-.128,1.036,1.036,0,0,0-.54.612c-2.173,5.692-4.762,9.62-7.512,12.26-.08.44-.164.9-.25,1.367a22.368,22.368,0,0,0,2-2.028c.177-.2.355-.414.53-.629a31.677,31.677,0,0,0,3.3-5q.208-.388.416-.792a48.465,48.465,0,0,0,2.1-4.766c.03-.079.075-.108.1-.114a.083.083,0,0,1,.035-.01.112.112,0,0,1,.084.031c.984.879,3.309,2.659,5.793,2.468a4.556,4.556,0,0,0,1.316-.3c1.7-.653,3.1-2.339,4.162-5,.029-.074.078-.123.125-.127h.017a6.242,6.242,0,0,0,.835-.012,7.089,7.089,0,0,0,5.475-3.306,14.642,14.642,0,0,0,2.048-7.128,1.64,1.64,0,0,0,.549.617.977.977,0,0,0,.6.148,2.914,2.914,0,0,0,1.77-1.292,1.3,1.3,0,0,0,.247-.516c.329-1.314,1.828-8.077-.949-12.231a.992.992,0,0,0-.179-.2m-9.942-5.859a7.4,7.4,0,0,1-.506.785l2.509,1.081.029.019a5.963,5.963,0,0,1,.571-.622l.047-.043-.344-.219a.594.594,0,0,0-.1-.048l-2.211-.953m-36.949-.343q-.717.054-1.456.168c-4.646.721-9.881,3.292-15.2,9.326l0,0a6.678,6.678,0,0,0,.941.136c5.557-6.071,11-8.319,15.728-8.682a20.766,20.766,0,0,1,12.093,3.021q.183-.429.39-.814a21.308,21.308,0,0,0-12.5-3.157m25.422-11.739a2.749,2.749,0,0,0-1,.279c-.085.044-7.764,3.874-9.565,12.078a4.586,4.586,0,0,1,.789-.347c1.922-7.316,8.892-10.8,8.973-10.84a2.247,2.247,0,0,1,.821-.228c2.964-.229,6.168,5.563,7.684,8.712a4.388,4.388,0,0,1,.533-.637c-1.64-3.4-4.954-9.269-8.231-9.017"/>
                <path class="u"
                      d="M134.311,3233.54c-.945,5.473-3.857,20.8-3.886,20.959l-.1.531.387.038c2.373.256,2.422,1.566,2.422,1.566l0,.1.021.088c.435,1.642.469,2.8.1,3.361a1.107,1.107,0,0,1-.873.451,2.672,2.672,0,0,1-1.113-.184l-1.42-.592,1.071,1.4c1.193,1.563-.017,4.607-.029,4.638l-.021.053c-.243.8-.557,1.272-.94,1.4a.712.712,0,0,1-.174.034c-.65.05-1.379-.721-1.624-1.053l-.619-.837.039,1.231c.065,1.93-.6,2.61-.763,2.746a5.255,5.255,0,0,1-.652.094,2.83,2.83,0,0,1-2.54-.963c-.978-1.179-1.166-3.274-1.149-4.823a11.345,11.345,0,0,1,1.169-4.947c5.428-10.829,4.9-23.768,4.889-23.9l-.338.052,6.149-1.438"/>
                <path class="v"
                      d="M134.34,3233.367l.66.179c-.159.924-.38,2.159-.636,3.57-.08.44-.164.9-.25,1.367-1.065,5.815-2.544,13.624-2.938,15.694,2.358.4,2.609,1.892,2.633,2.35.519,2,.493,3.436-.082,4.284a1.709,1.709,0,0,1-1.353.764,2.768,2.768,0,0,1-.465-.007,8.137,8.137,0,0,1-.43,4.733c-.339,1.1-.82,1.76-1.432,1.96a1.255,1.255,0,0,1-.29.057,2.227,2.227,0,0,1-1.557-.7c-.185,2.052-1.147,2.691-1.2,2.721l-.091.041a5.725,5.725,0,0,1-.786.115,3.34,3.34,0,0,1-2.993-1.177c-.932-1.128-1.4-2.985-1.368-5.517a12.6,12.6,0,0,1,1.3-5.5,48.331,48.331,0,0,0,4.425-16.064q.057-.52.1-1.014a50.42,50.42,0,0,0,.234-6.2l.338-.051.338-.052c.007.127.539,13.066-4.889,23.9a11.345,11.345,0,0,0-1.169,4.947c-.017,1.549.171,3.644,1.149,4.823a2.83,2.83,0,0,0,2.54.963,5.255,5.255,0,0,0,.652-.094c.161-.136.828-.816.763-2.746l-.039-1.231.619.837c.245.332.974,1.1,1.624,1.053a.712.712,0,0,0,.174-.034c.383-.123.7-.594.94-1.4l.021-.053c.012-.031,1.222-3.075.029-4.638l-1.071-1.4,1.42.592a2.672,2.672,0,0,0,1.113.184,1.107,1.107,0,0,0,.873-.451c.372-.556.338-1.719-.1-3.361l-.021-.088,0-.1s-.049-1.31-2.422-1.566l-.387-.038.1-.531c.029-.158,2.941-15.486,3.886-20.959l.029-.173"/>
                <path class="v"
                      d="M148.639,3219.453c1.19.836,5.22,1.784,5.26,1.794l-.012.077-.129.857c-.032-.007-.195-.045-.448-.108a20.916,20.916,0,0,1-5-1.77l.328-.85"/>
                <path class="w"
                      d="M160.747,3193.11a7.221,7.221,0,0,1,2.351.219.407.407,0,0,1,.248.164c1.479,2,.314,5.573-.08,6.62a1.059,1.059,0,0,1-.184.316c-1.424,1.667-2.75,2.552-3.951,2.644a2.6,2.6,0,0,1-.662-.031c-1.531-.274-2.481-1.889-2.912-2.83a1.886,1.886,0,0,1-.128-1.083,7.888,7.888,0,0,1,2.1-4.648,5.18,5.18,0,0,1,3.223-1.371"/>
                <path class="v"
                      d="M159.131,3203.073a2.6,2.6,0,0,1-.662-.031c-1.531-.274-2.481-1.889-2.912-2.83a1.886,1.886,0,0,1-.128-1.083,7.888,7.888,0,0,1,2.1-4.648,5.18,5.18,0,0,1,3.223-1.371,7.221,7.221,0,0,1,2.351.219.407.407,0,0,1,.248.164c1.479,2,.314,5.573-.08,6.62a1.059,1.059,0,0,1-.184.316c-1.424,1.667-2.75,2.552-3.951,2.644m1.618-10.9a5.763,5.763,0,0,0-3.539,1.492l-.047.043a5.963,5.963,0,0,0-.571.622,9.722,9.722,0,0,0-1.825,4.645,3.18,3.18,0,0,0,.213,1.778c.49,1.072,1.582,2.915,3.372,3.232a3.212,3.212,0,0,0,.784.038c1.355-.1,2.819-1.068,4.367-2.875a2.058,2.058,0,0,0,.36-.628c.1-.274.251-.7.4-1.224.084-.3.167-.636.241-.992.355-1.72.478-3.95-.672-5.5a1.041,1.041,0,0,0-.575-.4,7.707,7.707,0,0,0-2.506-.229"/>
                <path style="fill:#fff"
                      d="M144.7,3194.76a2.134,2.134,0,0,1,.463.015,2.56,2.56,0,0,0-1.01,2.062,1.376,1.376,0,0,0,1.449,1.513,1.049,1.049,0,0,0,.444-.141,3.277,3.277,0,0,1-2.014,1.78c-.046.007-.091.013-.135.016-1.126.087-2-1.1-2.241-1.454.539-1.832,1.271-3.019,2.174-3.522a2.063,2.063,0,0,1,.87-.269"/>
                <path class="v"
                      d="M146.044,3198.209a3.277,3.277,0,0,1-2.014,1.78c-.046.007-.091.013-.135.016-1.126.087-2-1.1-2.241-1.454.539-1.832,1.271-3.019,2.174-3.522a2.063,2.063,0,0,1,.87-.269,2.134,2.134,0,0,1,.463.015.947.947,0,0,1,.42-.145c.734-.057,1.335.731,1.341,1.755a2.091,2.091,0,0,1-.878,1.824m-1.343-3.925a2.37,2.37,0,0,0-.982.3c-1.025.572-1.838,1.9-2.418,3.941l-.036.131.058.1c.046.077,1.085,1.83,2.566,1.716a1.01,1.01,0,0,0,.161-.021c1.154-.191,2.22-1.489,3.171-3.859l.021-.057v-.059a1.952,1.952,0,0,0-.987-1.791,2.569,2.569,0,0,0-1.554-.405"/>
                <path class="v"
                      d="M145.581,3194.63c.734-.057,1.335.731,1.341,1.755a2.091,2.091,0,0,1-.878,1.824,1.049,1.049,0,0,1-.444.141,1.376,1.376,0,0,1-1.449-1.513,2.56,2.56,0,0,1,1.01-2.062.947.947,0,0,1,.42-.145"/>
                <path style="fill:#fff"
                      d="M152.959,3189.035c.066,0,.13-.007.192-.007a2.81,2.81,0,0,0-.768,2,1.186,1.186,0,0,0,1.341,1.257c.038,0,.077-.007.116-.013a1.16,1.16,0,0,0,.52-.22,3.559,3.559,0,0,1-2.035,1.983,1.592,1.592,0,0,1-.261.041,2.846,2.846,0,0,1-2.171-1.219,5.754,5.754,0,0,1,2.012-3.464,2.26,2.26,0,0,1,1.054-.358"/>
                <path class="v"
                      d="M154.36,3192.052a3.559,3.559,0,0,1-2.035,1.983,1.592,1.592,0,0,1-.261.041,2.846,2.846,0,0,1-2.171-1.219,5.754,5.754,0,0,1,2.012-3.464,2.26,2.26,0,0,1,1.054-.358c.066,0,.13-.007.192-.007a1.044,1.044,0,0,1,.546-.287c.024,0,.047-.006.071-.008.7-.054,1.293.636,1.33,1.58a2.071,2.071,0,0,1-.738,1.739m-1.393-3.5a2.544,2.544,0,0,0-1.189.408,3.206,3.206,0,0,0-.514.412,4.388,4.388,0,0,0-.533.637,8.949,8.949,0,0,0-1.194,2.844l-.036.135.071.1a3.221,3.221,0,0,0,2.491,1.458,1.838,1.838,0,0,0,.3-.048,3.093,3.093,0,0,0,1.69-1.277,7.4,7.4,0,0,0,.506-.785,13.258,13.258,0,0,0,.835-1.833l.024-.057,0-.068a1.775,1.775,0,0,0-1.051-1.637,2.6,2.6,0,0,0-1.4-.29"/>
                <path class="v"
                      d="M153.768,3188.733c.7-.054,1.293.636,1.33,1.58a2.071,2.071,0,0,1-.738,1.739,1.16,1.16,0,0,1-.52.22c-.039.006-.078.01-.116.013a1.186,1.186,0,0,1-1.341-1.257,2.81,2.81,0,0,1,.768-2,1.044,1.044,0,0,1,.546-.287c.024,0,.047-.006.071-.008"/>
                <path class="w"
                      d="M139.114,3196.858v.005h0l0,0M134.4,3193.1a4.2,4.2,0,0,0-2.831,1.382c-2.1,2.267-2.923,7.131-2.431,14.46.022.26.527,6.378,3.7,6.134.07-.006.141-.014.214-.026a3.4,3.4,0,0,0,2.344-2.468,29.719,29.719,0,0,0,1.35-10.141,6.963,6.963,0,0,1,.18-1.8c.382-1.611,1.038-3.612,2.011-4.173l-1.482-3.216-.135.443a5.883,5.883,0,0,0-2.916-.591"/>
                <path class="v"
                      d="M134.4,3192.139a6.218,6.218,0,0,1,3.18.665l-.135.441-.135.443a5.883,5.883,0,0,0-2.916-.591,4.2,4.2,0,0,0-2.831,1.382c-2.1,2.267-2.923,7.131-2.431,14.46.022.26.527,6.378,3.7,6.134.07-.006.141-.014.214-.026a3.4,3.4,0,0,0,2.344-2.468,29.719,29.719,0,0,0,1.35-10.141,6.963,6.963,0,0,1,.18-1.8c.382-1.611,1.038-3.612,2.011-4.173.029-.016.059-.032.088-.046l.1.443v.005l.1.443c-.563.269-1.181,1.609-1.652,3.585a5.93,5.93,0,0,0-.142,1.469A31.031,31.031,0,0,1,136,3212.953a4.182,4.182,0,0,1-2.9,3.035c-.088.015-.174.026-.256.032-3.019.232-4.182-4.4-4.375-6.944-.387-5.791.034-10.147,1.254-13.006q.183-.429.39-.814a7.279,7.279,0,0,1,1.07-1.517,5.222,5.222,0,0,1,1.287-1.022,4.586,4.586,0,0,1,.789-.347,4.776,4.776,0,0,1,1.151-.231"/>
                <path class="u"
                      d="M93.434,3187.405c-.092,5.3.824,9.323,2.727,11.966a7.362,7.362,0,0,0,6.447,3.314l-1.917,7.026.079-.466c-4.263-1.165-7.028-3.729-8.221-7.614-1.54-5.01-.093-11.093.885-14.226"/>
                <path class="v"
                      d="M94.344,3183.031l-.139,2.095c-.41,6.168.411,10.728,2.437,13.549a7.115,7.115,0,0,0,4.313,2.92,6.678,6.678,0,0,0,.941.136,5,5,0,0,0,.755,0l.071-.006.036.941c-.016,0-.066.009-.146.015h0a7.362,7.362,0,0,1-6.447-3.314c-1.9-2.643-2.819-6.664-2.727-11.966-.978,3.133-2.425,9.216-.885,14.226,1.193,3.885,3.958,6.449,8.221,7.614l-.079.466-.08.465q-.261-.072-.516-.15-.33-.1-.649-.215a11.491,11.491,0,0,1-7.523-7.774c-2.293-7.479,1.491-16.761,1.653-17.156l.768-1.85"/>
            </g>
        </g>
        <g class="r">
            <g class="x">
                <path class="y"
                      d="M1253.832,3260.445a32.05,32.05,0,0,1,.173,4.569c-.151,2.668-.161,4.382-.161,4.4l0,.233.193.141a3.043,3.043,0,0,1,.582.581l-8.451-1.187c-.1-.707-.183-2.38,1.081-2.567a1.172,1.172,0,0,0,.905-.687,6.213,6.213,0,0,0-.109-3.582,13.878,13.878,0,0,0,3.073-.274,6.585,6.585,0,0,0,2.717-1.627"/>
                <path class="z"
                      d="M1254.483,3259.75a35.249,35.249,0,0,1,.252,5.418c-.118,2.092-.149,3.592-.158,4.134a2.416,2.416,0,0,1,.953,1.59v.4l-9.959-1.4-.069-.312c-.252-1.182-.256-3.481,1.552-3.753a.559.559,0,0,0,.439-.336,5.87,5.87,0,0,0-.194-3.163c.254.012.5.019.742.02a6.213,6.213,0,0,1,.109,3.582,1.172,1.172,0,0,1-.905.687c-1.264.187-1.177,1.86-1.081,2.567l8.451,1.187a3.043,3.043,0,0,0-.582-.581l-.193-.141,0-.233c0-.018.01-1.732.161-4.4a32.05,32.05,0,0,0-.173-4.569,8.777,8.777,0,0,0,.651-.7"/>
                <path class="y"
                      d="M1238.676,3258.076a8.327,8.327,0,0,0,4.43,3.456,5.824,5.824,0,0,0-.252,3.462,1.592,1.592,0,0,0,.81.877,1.144,1.144,0,0,1,.61.615,4.031,4.031,0,0,1-.114,2.428l-7.917-1.112a1.907,1.907,0,0,1,.56-.454l.217-.108-.052-.274a14.57,14.57,0,0,1,.029-4.587,12.859,12.859,0,0,1,1.679-4.3"/>
                <path class="z"
                      d="M1238.239,3257.315q.2.383.437.761a12.859,12.859,0,0,0-1.679,4.3,14.57,14.57,0,0,0-.029,4.587l.052.274-.217.108a1.907,1.907,0,0,0-.56.454l7.917,1.112a4.031,4.031,0,0,0,.114-2.428,1.144,1.144,0,0,0-.61-.615,1.592,1.592,0,0,1-.81-.877,5.824,5.824,0,0,1,.252-3.462q.351.127.707.231a5.389,5.389,0,0,0-.317,3,.674.674,0,0,0,.363.4,2.015,2.015,0,0,1,1.05,1.078,5.106,5.106,0,0,1-.173,3.274l-.091.228-9.26-1.3v-.383a1.657,1.657,0,0,1,.849-1.3,15.453,15.453,0,0,1,.07-4.617,13.694,13.694,0,0,1,1.935-4.832"/>
                <path class="y"
                      d="M1255.648,3250.441a10.865,10.865,0,0,1,.358,1.816l.045,1.426a8.223,8.223,0,0,1-.205,1.482c-.953,4.055-3.583,5.762-4.986,6.13a15.646,15.646,0,0,1-5.077.092,9.3,9.3,0,0,1-5.838-2.786,10.247,10.247,0,0,1-2.195-6.137,11.22,11.22,0,0,1,.568-4.378,34.9,34.9,0,0,0,5.711,1.3c1.61.226,3.267.393,5.032.576,2.2.225,4.4.407,6.587.477"/>
                <path class="z"
                      d="M1238.063,3248l-.364,2.951-.121.081a5.018,5.018,0,0,1-.583.337q-.008.517.028,1.045a12.257,12.257,0,0,0,1.216,4.9q.2.383.437.761a8.327,8.327,0,0,0,4.43,3.456q.351.127.707.231a14,14,0,0,0,1.978.422c.518.073,1.025.117,1.509.141.254.012.5.019.742.02a13.878,13.878,0,0,0,3.073-.274,6.585,6.585,0,0,0,2.717-1.627,8.777,8.777,0,0,0,.651-.7,10.21,10.21,0,0,0,2.073-4.3,9.03,9.03,0,0,0,.166-.923q-.266-.2-.513-.424l-.149-.138-.009-.286a8.223,8.223,0,0,1-.205,1.482c-.953,4.055-3.583,5.762-4.986,6.13a15.646,15.646,0,0,1-5.077.092,9.3,9.3,0,0,1-5.838-2.786,10.247,10.247,0,0,1-2.195-6.137,11.22,11.22,0,0,1,.568-4.378l-.255-.083m-.485-.162c-.02.059-.04.119-.058.178l.283-.1-.225-.076m18.811,2.619q-.371-.007-.741-.019a10.865,10.865,0,0,1,.358,1.816l-.047-1.5.539.32.047.028q-.07-.33-.156-.642"/>
                <path class="y"
                      d="M1253.565,3245.414c-1.378-.124-2.832-.294-4.375-.475-1.718-.2-3.392-.4-5.022-.63-1.4-.2-2.756-.415-4.078-.682-.368.418-.784.878-1.242,1.384-.567.622-1.244,1.367-1.77,1.994a36.665,36.665,0,0,0,6.983,1.6c1.589.224,3.231.393,4.978.572a73.852,73.852,0,0,0,7.655.422c-.443-.6-.927-1.241-1.352-1.8-.688-.908-1.284-1.7-1.777-2.378m3.472-75.7a37.913,37.913,0,0,1,5.007,2.092c.433.221.863.453,1.289.688q1.593.89,3.109,1.924a34.482,34.482,0,0,0-7.647-4.094q-.9-.343-1.758-.61m-23.505-6.112a17.751,17.751,0,0,0-2.537-.178l4.328,13.238-.669.22a16.1,16.1,0,0,0-3.8-5.354,13.7,13.7,0,0,0-7.355-3.54c-.134-.019-.262-.034-.384-.048l1.106,9.093-.125.117a59.784,59.784,0,0,0-7.193,8.415,59.1,59.1,0,0,0-4.106,6.421,20.777,20.777,0,0,1,4.085,2.74q.332-.747.692-1.484c.107-.22.216-.305.3-.293.138.019.191.323.005.7q-.671,1.373-1.231,2.808c-.434,1.14-.835,2.322-1.2,3.534a56.215,56.215,0,0,0-1.275,22.958c.041.309-.058.431-.191.412a.787.787,0,0,1-.469-.7q-.148-1.088-.259-2.165l-.229-.155q-1.23-.828-2.392-1.732a37.1,37.1,0,0,0,4.2,9.233,52.039,52.039,0,0,0,16.051,16.224,22.883,22.883,0,0,1,1.025-3.165,20.538,20.538,0,0,1-6.94-5.862,24.785,24.785,0,0,1-4.969-17.717,18.572,18.572,0,0,1,6.408-12.058l.4-.331.332.5a28.535,28.535,0,0,0,6.864,7.256,24.4,24.4,0,0,0,11.1,4.6l.267.036a15.986,15.986,0,0,1-2.424-3.538,15.516,15.516,0,0,1-1.534-5.04l-.182-1.47,1.009,1.116a39.029,39.029,0,0,0,5.257,4.844,36.173,36.173,0,0,0,3.07,2.114l-1.965-7.812.866.4a75.581,75.581,0,0,1,13.075,7.749c6.08,4.475,9.134,6.725,10.382,10.659,1.959,6.18-1.626,12.938-6.18,16.421a12.983,12.983,0,0,1-4.417,2.226,29.864,29.864,0,0,1,1.336,4.084c5.764-.917,11.071-3.18,15.267-7.772a19.439,19.439,0,0,0,3.8-6.463q-.816.264-1.672.49l-.055.014a9.012,9.012,0,0,1-.968,2.579c-.139.24-.289.327-.411.31-.24-.034-.372-.477-.094-.954.977-1.687.5-3.947.631-5.987.135-2.1.273-4.2.4-6.3.15-2.489.517-4.984.686-7.495l.016-.406c.019-.449.035-.9.051-1.35.007-.18.013-.361.02-.542a22.718,22.718,0,0,0-.285-3.819c-.085-.519.022-.814.156-.8.1.014.208.194.27.575.156.943.276,1.884.366,2.821a12.84,12.84,0,0,1,5.1-.786c0-.086,0-.171,0-.257-.173-13.169-7.334-23.948-10.4-27.97-2.207-2.894-8.07-10.574-17.811-14.268a30.867,30.867,0,0,0-6.619-1.7c-.342-.048-.687-.093-1.032-.127q-.079,3.033-.164,6.071c-.016.684-.231,5.263-.231,5.263s-2.336-5.485-2.733-6.245a18.562,18.562,0,0,0-14.407-10.352"/>
                <path class="z"
                      d="M1256.694,3249.594a73.852,73.852,0,0,1-7.655-.422c-1.747-.179-3.389-.348-4.978-.572a36.665,36.665,0,0,1-6.983-1.6c-.152.182-.292.353-.413.509q.454.17.913.327l.225.076.283-.1-.023.188.255.083a34.9,34.9,0,0,0,5.711,1.3c1.61.226,3.267.393,5.032.576,2.2.225,4.4.407,6.587.477q.371.012.741.019c.314.006.626.01.939.011-.192-.273-.408-.57-.634-.877m27.007-15.084q-.477.174-.971.332a19.439,19.439,0,0,1-3.8,6.463c-4.2,4.592-9.5,6.855-15.267,7.772.076.318.143.631.2.937a28.791,28.791,0,0,0,5.3-1.332,25.739,25.739,0,0,0,11.311-8.062,19.774,19.774,0,0,0,3.235-6.11m-73.95-16.6q.294,1.117.647,2.229c2.211,6.949,7.207,13.592,12.389,18.491a44.577,44.577,0,0,0,7.963,6.054c.04-.2.084-.406.133-.611a52.039,52.039,0,0,1-16.051-16.224,37.1,37.1,0,0,1-4.2-9.233q-.447-.346-.883-.706m23.968-55.094a18.384,18.384,0,0,0-3.284-.17l-.432.019s3.088,8.222,3.165,9.637a29.262,29.262,0,0,0-4.763-3.421,13.921,13.921,0,0,0-4.891-1.674q-.419-.058-.836-.09l-.389-.029,1.16,9.567c-2.608,2.541-5.441,4.851-7.572,7.876a42.363,42.363,0,0,0-3.9,7.072q.413.183.824.391a59.1,59.1,0,0,1,4.106-6.421,59.784,59.784,0,0,1,7.193-8.415l.125-.117-1.106-9.093c.122.014.25.029.384.048a13.7,13.7,0,0,1,7.355,3.54,16.1,16.1,0,0,1,3.8,5.354l.669-.22-4.328-13.238a17.751,17.751,0,0,1,2.537.178,18.562,18.562,0,0,1,14.407,10.352c.4.76,2.733,6.245,2.733,6.245s.215-4.579.231-5.263q.086-3.036.164-6.071c.345.034.69.079,1.032.127a30.867,30.867,0,0,1,6.619,1.7c9.741,3.694,15.6,11.374,17.811,14.268,3.07,4.022,10.231,14.8,10.4,27.97,0,.086,0,.171,0,.257.208.011.419.027.633.05-.01-.088-.02-.175-.031-.262.19-.032.213-.3.2-.516-.892-14.771-9.143-29.755-21.3-38.045q-1.515-1.034-3.109-1.924c-.426-.235-.856-.467-1.289-.688a37.913,37.913,0,0,0-5.007-2.092c-1.773-.606-3.565-1.107-5.379-1.594a3.972,3.972,0,0,0-.4-.074c-.465-.065-1.039-.1-1.039-.1s-.009,2.575.047,3.609c.039.673.286,2.6-.248,3.041a.234.234,0,0,1-.194.051c-1-.141-3.634-5.088-4.394-5.878a20.339,20.339,0,0,0-11.709-5.958"/>
                <path class="y"
                      d="M1287.98,3214.081a11.363,11.363,0,0,1,2.99.851c1.276.559,4.23,1.853,5.056,4.378.8,2.44-.759,4.758-1.9,6.451-.288.418-.584.817-.883,1.179a21.537,21.537,0,0,0-3.282-4.556,19.261,19.261,0,0,0-7.923-5.088q-.009-.344-.024-.689c.01-.243.018-.487.027-.729.013-.371.029-.744.042-1.115a12.092,12.092,0,0,1,5.9-.682"/>
                <path class="z"
                      d="M1281.332,3215.2c-.007.181-.013.362-.02.542-.016.451-.032.9-.051,1.35l-.016.406c.051-.764.084-1.53.087-2.3m6.645-1.905q-.206-.029-.408-.05c-.214-.023-.425-.039-.633-.05a12.84,12.84,0,0,0-5.1.786c.084.877.141,1.752.177,2.626.01-.243.018-.487.027-.729.013-.371.029-.744.042-1.115a12.092,12.092,0,0,1,5.9-.682,11.363,11.363,0,0,1,2.99.851c1.276.559,4.23,1.853,5.056,4.378.8,2.44-.759,4.758-1.9,6.451-.288.418-.584.817-.883,1.179q.1.2.2.386a23.432,23.432,0,0,1-12.353,7.575c-.028.149-.059.3-.092.445l.055-.014q.855-.227,1.672-.49.493-.159.971-.332a22.4,22.4,0,0,0,10.035-6.9c.337-.4.674-.847,1-1.326,1.157-1.721,2.9-4.318,1.975-7.152-.955-2.923-4.163-4.33-5.534-4.927a12.233,12.233,0,0,0-3.2-.911"/>
                <path class="y"
                      d="M1207.948,3191.2a17.123,17.123,0,0,1,8.365,3.988,49.833,49.833,0,0,0-1.776,5.21l-.03.112a19.257,19.257,0,0,0-8.045.665,17.78,17.78,0,0,0-6.7,3.791,10.8,10.8,0,0,1-1.724-6.734,8.342,8.342,0,0,1,3.884-5.953,8.92,8.92,0,0,1,6.023-1.079"/>
                <path class="z"
                      d="M1216.644,3196.465q-.675,1.728-1.2,3.534c.36-1.212.761-2.394,1.2-3.534m-8.7-6.05a9.539,9.539,0,0,0-6.444,1.163,8.991,8.991,0,0,0-4.184,6.452c-.283,2.281.313,4.619,1.877,7.357a53.433,53.433,0,0,0,3.448,5.046l.077.106a42.03,42.03,0,0,0,7.032,7.367q.437.359.883.706,1.163.9,2.392,1.732l.229.155q-.132-1.292-.212-2.571.057,1.1.145,2.085a41.709,41.709,0,0,1-10.195-9.7,54.891,54.891,0,0,1-3.495-5.1c.087-.081.176-.163.267-.244a10.8,10.8,0,0,1-1.724-6.734,8.342,8.342,0,0,1,3.884-5.953,8.92,8.92,0,0,1,6.023-1.079,17.123,17.123,0,0,1,8.365,3.988,49.833,49.833,0,0,0-1.776,5.21l-.03.112.272.035a44.415,44.415,0,0,1,2.1-5.816,20.777,20.777,0,0,0-4.085-2.74q-.411-.208-.824-.391a15.221,15.221,0,0,0-4.028-1.184"/>
                <path class="aa"
                      d="M1282.362,3218.258a18.349,18.349,0,0,1,7.1,4.694,20.316,20.316,0,0,1,3.041,4.179,22.235,22.235,0,0,1-10.749,6.682q.15-3.849.3-7.7.154-3.924.307-7.857"/>
                <path class="z"
                      d="M1281.752,3233.813q.15-3.849.3-7.7.154-3.924.307-7.857a18.349,18.349,0,0,1,7.1,4.694,20.316,20.316,0,0,1,3.041,4.179,22.235,22.235,0,0,1-10.749,6.682m.288-16.517c.081,2.818-.049,5.614-.222,8.4-.141,2.3-.262,4.619-.44,6.915a21.48,21.48,0,0,1-.283,2.287,23.432,23.432,0,0,0,12.353-7.575q-.1-.19-.2-.386a21.537,21.537,0,0,0-3.282-4.556,19.261,19.261,0,0,0-7.923-5.088"/>
                <path class="aa"
                      d="M1213.866,3201.279c-.3,1.2-.557,2.366-.768,3.526a56.191,56.191,0,0,0-.8,13.649,40.732,40.732,0,0,1-8.732-8.616l-.074-.1c-1.088-1.47-2.126-2.872-2.984-4.277a17.165,17.165,0,0,1,6.249-3.468,18.319,18.319,0,0,1,7.1-.712"/>
                <path class="z"
                      d="M1212.3,3218.454a40.732,40.732,0,0,1-8.732-8.616l-.074-.1c-1.088-1.47-2.126-2.872-2.984-4.277a17.165,17.165,0,0,1,6.249-3.468,18.319,18.319,0,0,1,7.1-.712c-.3,1.2-.557,2.366-.768,3.526a56.191,56.191,0,0,0-.8,13.649m2.477-17.908-.272-.035a19.257,19.257,0,0,0-8.045.665,17.78,17.78,0,0,0-6.7,3.791c-.091.081-.18.163-.267.244a54.891,54.891,0,0,0,3.495,5.1,41.709,41.709,0,0,0,10.195,9.7q-.087-.987-.145-2.085a51.553,51.553,0,0,1,1.736-17.382"/>
                <path class="ab"
                      d="M1244.687,3239.631c-.132-.018-.264-.041-.4-.063a7.807,7.807,0,0,1-4.786-3.311,17.74,17.74,0,0,1-2.88-6.933,17.365,17.365,0,0,1-.3-2.658,1.792,1.792,0,0,1,.322-1.392,1.28,1.28,0,0,1,1.073-.229l.039.005c.768.119,1.532.227,2.3.338.9.13,1.793.259,2.689.4,2.415.376,4.863.818,7.275,1.325a15.692,15.692,0,0,1,3.4,1c.778.354,2.6,1.183,2.6,2.522,0,1.977-1.428,4.638-3.477,6.474a9.621,9.621,0,0,1-7.863,2.518m18.2-14.153a.752.752,0,0,1-.36-.159,10.408,10.408,0,0,0-3.942-1.973,11.289,11.289,0,0,0-1.15-.231,5.391,5.391,0,0,0-2.9.315,4.626,4.626,0,0,0-.743.4.594.594,0,0,1-.417.09.81.81,0,0,1-.561-.384.755.755,0,0,1,.143-1.035,5.9,5.9,0,0,1,.929-.5,6.645,6.645,0,0,1,3.546-.4,12.817,12.817,0,0,1,1.282.261,12,12,0,0,1,4.535,2.265.851.851,0,0,1,.238,1.066.589.589,0,0,1-.6.283m-25.59-3.6a.748.748,0,0,1-.36-.158,10.408,10.408,0,0,0-3.942-1.974,11.57,11.57,0,0,0-1.15-.231,5.412,5.412,0,0,0-2.9.315,4.718,4.718,0,0,0-.743.4.6.6,0,0,1-.415.089.809.809,0,0,1-.562-.384.752.752,0,0,1,.143-1.034,6.037,6.037,0,0,1,.926-.5,6.644,6.644,0,0,1,3.549-.4,12.381,12.381,0,0,1,1.282.261,11.946,11.946,0,0,1,4.531,2.264.849.849,0,0,1,.242,1.067.59.59,0,0,1-.6.282m12.755-12.539,2.027,8.057-.941-.537a38.592,38.592,0,0,1-4.143-2.761,39.84,39.84,0,0,1-4.318-3.825,14.316,14.316,0,0,0,1.132,3.093,14.462,14.462,0,0,0,3.209,4.227l1.148,1.038-1.4-.095c-.517-.035-1.075-.091-1.67-.174a25.478,25.478,0,0,1-11.572-4.8,29.753,29.753,0,0,1-6.826-7.075,17.7,17.7,0,0,0-5.7,11.117,23.508,23.508,0,0,0,4.71,16.806,19.385,19.385,0,0,0,6.606,5.543,15.057,15.057,0,0,1,2.478-4.2,1.137,1.137,0,0,1,.878-.158,11.4,11.4,0,0,1,4.207,2.292c1.111.886,2.391,2.124,2.193,3a5.564,5.564,0,0,1-1.174,1.806c1.076.2,2.179.376,3.306.534,1.612.227,3.272.422,4.974.621,1.253.148,2.446.288,3.585.4a5.574,5.574,0,0,1-.805-1.513c-.153-.686.471-1.412,1.856-2.17,1.117-.607,3.4-1.507,4.828-1.3a1.541,1.541,0,0,1,.914.408,19.318,19.318,0,0,1,2.339,4.272,12.134,12.134,0,0,0,4.211-2.1c4.186-3.2,7.67-9.639,5.885-15.273-1.122-3.533-4.065-5.7-9.928-10.015a74.574,74.574,0,0,0-12-7.218"/>
                <path class="ac"
                      d="M1252.753,3244.256c-1.139-.113-2.332-.253-3.585-.4-1.7-.2-3.362-.394-4.974-.621-1.127-.158-2.23-.332-3.306-.534-.234.282-.5.591-.8.927,1.322.267,2.683.486,4.078.682,1.63.23,3.3.428,5.022.63,1.543.181,3,.351,4.375.475-.313-.431-.585-.817-.812-1.158m-4.156-36.717,1.965,7.812a36.173,36.173,0,0,1-3.07-2.114,39.029,39.029,0,0,1-5.257-4.844l-1.009-1.116.182,1.47a15.516,15.516,0,0,0,1.534,5.04,15.986,15.986,0,0,0,2.424,3.538l-.267-.036a24.4,24.4,0,0,1-11.1-4.6,28.535,28.535,0,0,1-6.864-7.256l-.332-.5-.4.331a18.572,18.572,0,0,0-6.408,12.058,24.785,24.785,0,0,0,4.969,17.717,20.538,20.538,0,0,0,6.94,5.862c.129-.322.262-.638.4-.945a19.385,19.385,0,0,1-6.606-5.543,23.508,23.508,0,0,1-4.71-16.806,17.7,17.7,0,0,1,5.7-11.117,29.753,29.753,0,0,0,6.826,7.075,25.478,25.478,0,0,0,11.572,4.8c.6.083,1.153.139,1.67.174l1.4.095-1.148-1.038a14.462,14.462,0,0,1-3.209-4.227,14.316,14.316,0,0,1-1.132-3.093,39.84,39.84,0,0,0,4.318,3.825,38.592,38.592,0,0,0,4.143,2.761l.941.537-2.027-8.057a74.574,74.574,0,0,1,12,7.218c5.863,4.317,8.806,6.482,9.928,10.015,1.785,5.634-1.7,12.074-5.885,15.273a12.134,12.134,0,0,1-4.211,2.1c.148.339.3.689.438,1.045a12.983,12.983,0,0,0,4.417-2.226c4.554-3.483,8.139-10.241,6.18-16.421-1.248-3.934-4.3-6.184-10.382-10.659a75.581,75.581,0,0,0-13.075-7.749l-.866-.4"/>
                <path class="ad"
                      d="M1257.43,3221.6a12.817,12.817,0,0,1,1.282.261,12,12,0,0,1,4.535,2.265.851.851,0,0,1,.238,1.066.589.589,0,0,1-.6.283.752.752,0,0,1-.36-.159,10.408,10.408,0,0,0-3.942-1.973,11.289,11.289,0,0,0-1.15-.231,5.391,5.391,0,0,0-2.9.315,4.626,4.626,0,0,0-.743.4.594.594,0,0,1-.417.09.81.81,0,0,1-.561-.384.755.755,0,0,1,.143-1.035,5.9,5.9,0,0,1,.929-.5,6.645,6.645,0,0,1,3.546-.4"/>
                <path class="ad"
                      d="M1231.84,3218.007a12.381,12.381,0,0,1,1.282.261,11.946,11.946,0,0,1,4.531,2.264.849.849,0,0,1,.242,1.067.59.59,0,0,1-.6.282.748.748,0,0,1-.36-.158,10.408,10.408,0,0,0-3.942-1.974,11.57,11.57,0,0,0-1.15-.231,5.412,5.412,0,0,0-2.9.315,4.718,4.718,0,0,0-.743.4.6.6,0,0,1-.415.089.809.809,0,0,1-.562-.384.752.752,0,0,1,.143-1.034,6.037,6.037,0,0,1,.926-.5,6.644,6.644,0,0,1,3.549-.4"/>
                <path class="ae"
                      d="M1237.755,3226.126c.767.118,1.535.23,2.306.342.893.129,1.786.258,2.679.4,2.4.373,4.829.817,7.224,1.314a15.193,15.193,0,0,1,3.186.933c1.7.771,1.879,1.228,1.879,1.388,0,1.438-1.088,3.873-3.171,5.74a8.785,8.785,0,0,1-7.183,2.315c-.115-.016-.23-.035-.345-.056a6.666,6.666,0,0,1-4.069-2.838,16.4,16.4,0,0,1-2.659-6.416,16.154,16.154,0,0,1-.272-2.469,1.631,1.631,0,0,1,.039-.644s.071-.049.386,0"/>
                <path class="ac"
                      d="M1244.675,3238.553c-.115-.016-.23-.035-.345-.056a6.666,6.666,0,0,1-4.069-2.838,16.4,16.4,0,0,1-2.659-6.416,16.154,16.154,0,0,1-.272-2.469,1.631,1.631,0,0,1,.039-.644s.071-.049.386,0c.767.118,1.535.23,2.306.342.893.129,1.786.258,2.679.4,2.4.373,4.829.817,7.224,1.314a15.193,15.193,0,0,1,3.186.933c1.7.771,1.879,1.228,1.879,1.388,0,1.438-1.088,3.873-3.171,5.74a8.785,8.785,0,0,1-7.183,2.315m-6.951-13.508a1.28,1.28,0,0,0-1.073.229,1.792,1.792,0,0,0-.322,1.392,17.365,17.365,0,0,0,.3,2.658,17.74,17.74,0,0,0,2.88,6.933,7.807,7.807,0,0,0,4.786,3.311c.132.022.264.045.4.063a9.621,9.621,0,0,0,7.863-2.518c2.049-1.836,3.477-4.5,3.477-6.474,0-1.339-1.82-2.168-2.6-2.522a15.692,15.692,0,0,0-3.4-1c-2.412-.507-4.86-.949-7.275-1.325-.9-.141-1.792-.27-2.689-.4-.767-.111-1.531-.219-2.3-.338l-.039-.005"/>
                <path class="y"
                      d="M1258.665,3240.074a.7.7,0,0,1,.406.159c1.033,1.058,5.072,9.591,4.084,12.773a2.718,2.718,0,0,1-2.049,2.015,3.743,3.743,0,0,1-1.3.03,6.093,6.093,0,0,1-3.011-1.41l-.047-1.568a4.341,4.341,0,0,0,1.226.436.941.941,0,0,0,.6-.074.638.638,0,0,0,.3-.586c0-.547-.818-1.677-2.977-4.523a31.345,31.345,0,0,1-3.217-4.678c-.02-.094.212-.638,1.644-1.393a8.879,8.879,0,0,1,4.346-1.181"/>
                <path class="z"
                      d="M1259.8,3255.051a6.093,6.093,0,0,1-3.011-1.41l-.047-1.568a4.341,4.341,0,0,0,1.226.436.941.941,0,0,0,.6-.074.638.638,0,0,0,.3-.586c0-.547-.818-1.677-2.977-4.523a31.345,31.345,0,0,1-3.217-4.678c-.02-.094.212-.638,1.644-1.393a8.879,8.879,0,0,1,4.346-1.181.7.7,0,0,1,.406.159c1.033,1.058,5.072,9.591,4.084,12.773a2.718,2.718,0,0,1-2.049,2.015,3.743,3.743,0,0,1-1.3.03m-1.172-15.783c-1.433-.2-3.711.7-4.828,1.3-1.385.758-2.009,1.484-1.856,2.17a5.574,5.574,0,0,0,.805,1.513c.227.341.5.727.812,1.158.493.679,1.089,1.47,1.777,2.378.425.561.909,1.2,1.352,1.8.226.307.442.6.634.877a7.861,7.861,0,0,1,.777,1.245.437.437,0,0,1-.1-.005,5.116,5.116,0,0,1-1.455-.609l-.047-.028-.539-.32.047,1.5.045,1.426.009.286.149.138q.248.224.513.424a6.846,6.846,0,0,0,3.091,1.326,4.362,4.362,0,0,0,1.528-.037,3.339,3.339,0,0,0,2.528-2.465,7.4,7.4,0,0,0-.011-3.341c-.056-.306-.123-.619-.2-.937a29.864,29.864,0,0,0-1.336-4.084c-.143-.356-.29-.706-.438-1.045a19.318,19.318,0,0,0-2.339-4.272,1.541,1.541,0,0,0-.914-.408"/>
                <path class="y"
                      d="M1235.64,3236.377a10.427,10.427,0,0,1,3.848,2.133c1.483,1.183,1.9,1.938,1.864,2.1-.131.58-1.754,2.366-3.056,3.8-2,2.207-2.821,3.161-2.82,3.694a.891.891,0,0,0,.316.7,1.026,1.026,0,0,0,.521.211,2.61,2.61,0,0,0,.882-.057l-.18,1.46a4.049,4.049,0,0,1-2.68.615,3.243,3.243,0,0,1-.977-.3,3.946,3.946,0,0,1-1.949-2.643c-.953-3.462,2.87-10.9,3.853-11.675a.52.52,0,0,1,.378-.047"/>
                <path class="z"
                      d="M1236.313,3249.021a2.61,2.61,0,0,0,.882-.057l-.18,1.46a4.049,4.049,0,0,1-2.68.615,3.243,3.243,0,0,1-.977-.3,3.946,3.946,0,0,1-1.949-2.643c-.953-3.462,2.87-10.9,3.853-11.675a.52.52,0,0,1,.378-.047,10.427,10.427,0,0,1,3.848,2.133c1.483,1.183,1.9,1.938,1.864,2.1-.131.58-1.754,2.366-3.056,3.8-2,2.207-2.821,3.161-2.82,3.694a.891.891,0,0,0,.316.7,1.026,1.026,0,0,0,.521.211m-.651-13.421a1.137,1.137,0,0,0-.878.158,15.057,15.057,0,0,0-2.478,4.2c-.136.307-.269.623-.4.945a22.883,22.883,0,0,0-1.025,3.165c-.049.2-.093.409-.133.611a8.039,8.039,0,0,0-.041,3.555,4.767,4.767,0,0,0,2.424,3.223,3.858,3.858,0,0,0,1.2.365,4.607,4.607,0,0,0,2.665-.451,5.018,5.018,0,0,0,.583-.337l.121-.081.364-2.951.023-.188-.283.1-.283.1-.039.014a3.028,3.028,0,0,1-1.178.205.406.406,0,0,1-.086-.021,2.783,2.783,0,0,1,.448-.7c.121-.156.261-.327.413-.509.526-.627,1.2-1.372,1.77-1.994.458-.506.874-.966,1.242-1.384.3-.336.564-.645.8-.927a5.564,5.564,0,0,0,1.174-1.806c.2-.878-1.082-2.116-2.193-3a11.4,11.4,0,0,0-4.207-2.292"/>
                <path class="z"
                      d="M1281.2,3210.585c.1.014.208.194.27.575.156.943.276,1.884.366,2.821.084.877.141,1.752.177,2.626q.015.345.024.689c.081,2.818-.049,5.614-.222,8.4-.141,2.3-.262,4.619-.44,6.915a21.48,21.48,0,0,1-.283,2.287c-.028.149-.059.3-.092.445a9.012,9.012,0,0,1-.968,2.579c-.139.24-.289.327-.411.31-.24-.034-.372-.477-.094-.954.977-1.687.5-3.947.631-5.987.135-2.1.273-4.2.4-6.3.15-2.489.517-4.984.686-7.495.051-.764.084-1.53.087-2.3a22.718,22.718,0,0,0-.285-3.819c-.085-.519.022-.814.156-.8"/>
                <path class="z"
                      d="M1217.87,3192.953c.138.019.191.323.005.7q-.671,1.373-1.231,2.808-.675,1.728-1.2,3.534a56.215,56.215,0,0,0-1.275,22.958c.041.309-.058.431-.191.412a.787.787,0,0,1-.469-.7q-.148-1.088-.259-2.165-.132-1.292-.212-2.571a51.553,51.553,0,0,1,1.736-17.382,44.415,44.415,0,0,1,2.1-5.816q.332-.747.692-1.484c.107-.22.216-.305.3-.293"/>
            </g>
        </g>
        <path class="af"
              d="M937.526,3346.076c-14.215,8.2-21.9-.42-22.883,13.553-.99,14.008-4.75,11.262-12.835,17.188s-1.165,13.373-6.657,18.456-14.493,3.013-18.418-2.876c0,0,1.337,12.778-8.963,18.4s-24.449-8.193-31.252-3.8c-6.818,4.4-8.409,8.159-7.288,13.153,1.112,4.979-7.026,3.826-8.969-.99s-5.369-8.612-12.34-7.356-16.466-2.931-12.848-11.828a51.258,51.258,0,0,0,2.661-8.573c1.469-7.045.9-14-5.193-16.207l11.271-50-.011,0,1.741-7.7s57.578-32.585,122.863-4.952q6.211,2.624,12.493,6.01S951.752,3337.838,937.526,3346.076Z"/>
        <path class="ag"
              d="M867.77,3410.8c-10.3,5.609-24.449-8.193-31.252-3.8-6.818,4.4-8.409,8.159-7.288,13.153,1.112,4.979-7.026,3.826-8.969-.99s-5.369-8.612-12.34-7.356-16.466-2.931-12.848-11.828a51.258,51.258,0,0,0,2.661-8.573c1.469-7.045.9-14-5.193-16.207l11.271-50,72.921,67.209S878.07,3405.175,867.77,3410.8Z"/>
        <path class="ah"
              d="M937.524,3346.069c-14.218,8.215-21.9-.419-22.886,13.565s-4.747,11.251-12.832,17.176-1.165,13.374-6.66,18.467-14.49,3-18.415-2.886c0,0,1.333,12.788-8.963,18.4s-24.449-8.192-31.255-3.794-8.405,8.149-7.285,13.142-7.029,3.838-8.969-.99-5.368-8.611-12.34-7.356-16.466-2.93-12.848-11.827a51.239,51.239,0,0,0,2.661-8.574c9.153-2.972,26.627-3.2,34.849.053,10.3,4.054,18.752,9.075,27.826-1.171s8.259-10.13,23.6-12.181,11.286-9.93,15.86-25.482,10.571-11.314,22.561-18.607c7.137-4.332,7.142-14.192,5.974-21.476,4.137,1.76,8.3,3.744,12.493,6.01C940.9,3318.536,951.747,3337.843,937.524,3346.069Z"/>
        <circle class="ah" cx="9.698" cy="9.698" r="9.698" transform="translate(812.341 3358.046)"/>
        <circle class="ag" cx="18.469" cy="18.469" r="18.469" transform="translate(849.679 3311.801)"/>
        <circle class="ah" cx="10.689" cy="10.689" r="10.689" transform="translate(857.459 3319.581)"/>
        <path class="af"
              d="M667.353,3259.851c6.835,14.922,18.1,12.347,10.8,24.3-7.307,11.991-2.652,11.931.506,21.445s-6.8,11.576-5.265,18.9,10.068,10.852,16.679,8.326c0,0-8.492,9.641-3.352,20.189s24.674,7.485,27.678,15,2.127,11.522-1.679,14.944,3.511,7.189,7.885,4.388,9.364-3.909,14.32,1.153,15.119,7.149,17.324-2.2a51.224,51.224,0,0,1,2.8-8.531c2.883-6.593,7.377-11.931,13.622-10.2l19.778-47.287.011,0L791.5,3313s-28.057-59.915-97.28-75.209q-6.582-1.461-13.665-2.339S660.529,3244.9,667.353,3259.851Z"/>
        <path class="ag"
              d="M686.722,3353.015c5.143,10.537,24.674,7.485,27.678,15s2.127,11.522-1.679,14.944,3.511,7.189,7.885,4.388,9.364-3.909,14.32,1.153,15.119,7.149,17.324-2.2a51.224,51.224,0,0,1,2.8-8.531c2.883-6.593,7.377-11.931,13.622-10.2l19.778-47.287-98.373,12.542S681.582,3342.467,686.722,3353.015Z"/>
        <path class="ah"
              d="M667.359,3259.847c6.831,14.932,18.1,12.347,10.8,24.315s-2.648,11.92.509,21.434-6.8,11.576-5.269,18.911,10.072,10.841,16.683,8.315c0,0-8.495,9.651-3.352,20.188s24.674,7.486,27.674,15.014,2.131,11.511-1.674,14.932,3.506,7.2,7.884,4.389,9.364-3.91,14.32,1.152,15.119,7.15,17.324-2.2a51.177,51.177,0,0,1,2.8-8.53c-5.74-7.724-19.851-18.033-28.437-20.145-10.747-2.663-20.542-3.465-22-17.073s-.864-13.042-12.181-23.6-3.447-14.632,1.834-29.959-2.063-15.346-7.611-28.236c-3.308-7.665,2.4-15.706,7.57-20.966-4.391-.962-8.937-1.759-13.664-2.338C680.56,3235.451,660.531,3244.9,667.359,3259.847Z"/>
        <circle class="ah" cx="9.698" cy="9.698" r="9.698" transform="translate(739.239 3334.716)"/>
        <circle class="ag" cx="18.469" cy="18.469" r="18.469" transform="translate(714.593 3268.689)"/>
        <circle class="ah" cx="10.689" cy="10.689" r="10.689" transform="translate(722.372 3276.469)"/>
        <ellipse class="ah" cx="58.19" cy="12.89" rx="58.19" ry="12.89"
                 transform="translate(758.994 3398.525) rotate(-72.3)"/>
        <path class="ai" d="M806.7,3297.514s11.1-51.74,54.069-61.609"/>
        <path class="ai" d="M803.489,3296.49s20.924-48.6-8.384-81.54"/>
        <path class="ai" d="M814.1,3293.692"/>
        <path class="ai" d="M799.365,3288.989"/>
    </g>
</svg>
