<svg xmlns="http://www.w3.org/2000/svg" xmlns:xlink="http://www.w3.org/1999/xlink" width="231.503" height="448.33" viewBox="0 0 231.503 448.33"><defs><style>.a,.j{fill:none;}.b{fill:url(#a);}.c{clip-path:url(#b);}.d{fill:#22973b;}.e{fill:#d8a35d;}.f{fill:#62548a;}.g{fill:#ffc84f;}.h{opacity:0.3;}.i{opacity:0.5;}.j{stroke:#947dce;stroke-miterlimit:10;stroke-width:0.718px;}.k{fill:#947dce;}.l{fill:#d19442;}.m{fill:#999;}.n{fill:#ccc;}.o{fill:gray;}.p{opacity:0.15;}.q{fill:url(#c);}.r{fill:#fff;}</style><radialGradient id="a" cx="0.704" cy="0.502" r="0.409" gradientTransform="matrix(1.409, 0.454, -1.121, 1.389, 0.275, -0.515)" gradientUnits="objectBoundingBox"><stop offset="0" stop-color="#fff"/><stop offset="0.196" stop-color="#fbfcfd"/><stop offset="0.38" stop-color="#eff6f9"/><stop offset="0.56" stop-color="#dcebf1"/><stop offset="0.736" stop-color="#c2dbe7"/><stop offset="0.908" stop-color="#a0c7da"/><stop offset="1" stop-color="#8bbbd2"/></radialGradient><clipPath id="b"><path class="a" d="M977.842,379.364c13.99-25.083,46.919-38.888,58.1-43.574,4.682-1.963,8.207-3.171,9.05-3.471,22.42-8,77.006-22.874,114.411,10.734,19.13,17.186,33.41,46.721,29.05,74.439-4.7,29.875-27.828,37.124-32.681,67.176-4.648,28.788,19.787,32.321,18.156,63.546-1.616,30.938-23.853,43.823-16.341,67.176,4.876,15.157,16.155,15.678,16.341,25.418.416,21.792-55.437,50.876-108.935,47.205-38.659-2.652-93.631-23.612-105.3-63.546-10.894-37.27,27.595-51.166,23.6-112.565-1.635-25.157-8.954-36.02-10.893-79.887C970.689,393.407,975.548,383.479,977.842,379.364Z" transform="translate(-957.737 -322.046)"/></clipPath><radialGradient id="c" cx="0.848" cy="0.937" r="2.301" gradientTransform="translate(0.364) scale(0.273 1)" gradientUnits="objectBoundingBox"><stop offset="0.053" stop-color="#9ed96d"/><stop offset="0.062" stop-color="#9ad667"/><stop offset="0.09" stop-color="#92d25b"/><stop offset="0.13" stop-color="#8dcf54"/><stop offset="0.237" stop-color="#8ccf53"/><stop offset="0.287" stop-color="#8acb52"/><stop offset="0.45" stop-color="#89c952"/><stop offset="0.608" stop-color="#77af47"/><stop offset="0.706" stop-color="#71a643"/><stop offset="0.851" stop-color="#5c942a"/><stop offset="1" stop-color="#43800c"/></radialGradient></defs><g transform="translate(-957.737 -246.379)"><path class="b" d="M977.842,379.364c13.99-25.083,46.919-38.888,58.1-43.574,4.682-1.963,8.207-3.171,9.05-3.471,22.42-8,77.006-22.874,114.411,10.734,19.13,17.186,33.41,46.721,29.05,74.439-4.7,29.875-27.828,37.124-32.681,67.176-4.648,28.788,19.787,32.321,18.156,63.546-1.616,30.938-23.853,43.823-16.341,67.176,4.876,15.157,16.155,15.678,16.341,25.418.416,21.792-55.437,50.876-108.935,47.205-38.659-2.652-93.631-23.612-105.3-63.546-10.894-37.27,27.595-51.166,23.6-112.565-1.635-25.157-8.954-36.02-10.893-79.887C970.689,393.407,975.548,383.479,977.842,379.364Z" transform="translate(0 6.379)"/><g transform="translate(957.737 328.426)"><g class="c"><path class="d" d="M1150.035,593.416q-110.548,37.256-221.114,74.551h-37.73V592.748a332.019,332.019,0,0,1,52.31-16.732c5.194-1.206,10.536-2.319,16.027-3.3a330.387,330.387,0,0,1,62.7-5.194h.019c2.077.037,4.155.074,6.214.149,1.02.018,2.021.055,3.023.111a344.809,344.809,0,0,1,56.873,6.994A363.482,363.482,0,0,1,1150.035,593.416Z" transform="translate(-963.347 -301.353)"/><g transform="translate(34.147 -82.046)"><path class="e" d="M1088.19,515.87s-.218,99.595,4.067,100.908c7.693,2.4,37.628,9.821,5.482,10.581-16.309,2.508-15.453-1.22-16-4.259-.449-2.484-8.449-90.851-9.783-97.656-.3-1.523-.479-2.445-.479-2.445Z" transform="translate(-982.295 -223.659)"/><path class="e" d="M1034.354,515.6S1028,614.624,1023.7,615.892c-7.718,2.323-37.733,9.422-5.6,10.521,16.281,2.682,15.465-1.055,16.049-4.089.477-2.479,4.367-21.262,5.774-28.053.316-1.521,11.779-78.289,11.779-78.289Z" transform="translate(-988.021 -223.681)"/><path class="f" d="M1036.286,608.478c.344-1.4-9.937-2.339-11.222-1.3s-22.19,3.069-22.427,9.1,28.622,4.276,30.662,4.347S1035.612,611.236,1036.286,608.478Z" transform="translate(-988.099 -215.998)"/><g transform="translate(25.02 177.867)"><path class="g" d="M1022.865,414.586a6.423,6.423,0,0,0,3.682,1.487c8.488-.2,45.141-1.171,64.959-3.158,6.992-.7,11.887-1.529,12.71-2.5,0,0,0,.029,0,.08,0,1.083-.081,13.479-.243,29.731-.317,32.081,5.077,77.775,9.613,91.52.979,2.966-44.729.387-44.729.387-1.6-33.024-1-91.147-3.167-93.657-2.637-3.053-4.415,48.126-7.156,91.007-17.814,5.418-46.476,3.837-46.227,2C1015.26,509.673,1022.865,414.586,1022.865,414.586Z" transform="translate(-1012.304 -410.416)"/><g class="h" transform="translate(44.053)"><path d="M1053.341,414.722c-.138-.005-.276-.01-.41-.016C1052.931,414.706,1053.076,414.71,1053.341,414.722Z" transform="translate(-1052.931 -410.054)"/><path class="i" d="M1053.309,415.084c10.953.386,34.74-2.169,34.74-2.169,6.992-.7,11.887-1.529,12.71-2.5,0,0,0,.029,0,.08,0,1.083-.081,13.479-.243,29.731a8.292,8.292,0,0,1-1.153-.081,8.951,8.951,0,0,1-5.956-3.8,19.519,19.519,0,0,1-2.452-4.53C1082.137,416.894,1056.819,415.242,1053.309,415.084Z" transform="translate(-1052.899 -410.416)"/></g><g transform="translate(12.234 2.5)"><line class="j" x1="6.252" y2="119.708" transform="translate(0 0.544)"/><line class="j" x1="6.257" y2="117.629" transform="translate(11.569 2.432)"/><line class="j" x1="4.362" y2="116.726" transform="translate(24.675 1.946)"/><line class="j" x2="1.318" y2="24.082" transform="translate(39.834 1.479)"/><line class="j" x2="3.067" y2="118.766" transform="translate(51.819 0.96)"/><line class="j" x2="4.708" y2="119.693" transform="translate(62.129 0.439)"/><line class="j" x2="7.688" y2="120.252" transform="translate(72.265)"/></g><path class="j" d="M1021.112,426.038s65.208.213,82.268-3.562" transform="translate(-1011.561 -409.399)"/><path class="j" d="M1065.013,436.375c-22.543,6.073-44.69-1.026-44.69-1.026" transform="translate(-1011.627 -408.314)"/><path class="j" d="M1061.249,434.964s20.8,4.807,38.635-.785" transform="translate(-1008.177 -408.413)"/><path class="j" d="M1019.649,443.451s16.786,7.765,43.246,2.29" transform="translate(-1011.684 -407.631)"/><path class="j" d="M1018.838,453.1s25.875,6.585,43.306,1.865" transform="translate(-1011.752 -406.817)"/><path class="j" d="M1018.02,462.686s13.451,9.494,43.4,3.677" transform="translate(-1011.821 -406.009)"/><path class="j" d="M1017.062,473.714a64.12,64.12,0,0,0,43.879,1.357" transform="translate(-1011.902 -405.079)"/><path class="j" d="M1016.164,483.816s14.482,9.227,44.2,2.216" transform="translate(-1011.978 -404.228)"/><path class="j" d="M1015.217,494.176s19.828,9.157,44.727-.013" transform="translate(-1012.058 -403.355)"/><path class="j" d="M1014.449,502.26s11.919,10.355,45.02.862" transform="translate(-1012.122 -402.673)"/><path class="j" d="M1013.53,511.439s18.919,8.81,45.454.54" transform="translate(-1012.2 -401.899)"/><path class="j" d="M1062.556,444.9s8.9,6.621,37.743.171" transform="translate(-1008.067 -407.509)"/><path class="j" d="M1063.2,454.631s12.293,5.019,36.8-.426" transform="translate(-1008.013 -406.724)"/><path class="j" d="M1063.134,465.52s18.845,4.721,37.336-1.617" transform="translate(-1008.018 -405.907)"/><path class="j" d="M1063.284,474.466s18.434,7.147,37.965-1.644" transform="translate(-1008.005 -405.155)"/><path class="j" d="M1063.44,484.289s17.479,5.214,38.768-1.678" transform="translate(-1007.992 -404.329)"/><path class="j" d="M1063.6,493.723s14.8,5.795,39.725-1.72" transform="translate(-1007.978 -403.537)"/><path class="j" d="M1063.974,501.988s17.618,8.012,40.642-.828" transform="translate(-1007.947 -402.765)"/><path class="j" d="M1064.055,512.464a80.777,80.777,0,0,0,42.315-1.35" transform="translate(-1007.94 -401.926)"/></g><path class="f" d="M1079.645,606.92c-.329-1.406,12.146-.748,13.42.3s19.643,4.18,19.813,10.219-28.666,3.973-30.707,4.022S1080.289,609.685,1079.645,606.92Z" transform="translate(-981.607 -216.05)"/><path class="k" d="M1016.061,429.592c6.095,8.349,53.884,15.513,78.746,10.852A39.12,39.12,0,0,0,1103,438.09c2.357-1.024,4.641-3.689,6.819-7.615,16.578-29.893,26.841-132.8,14.883-138.659-13.526-6.632-37.974.758-37.974.758l-9.085,11.613-43.834,25.824s-10.167,37.25-15.609,66.365c-.4,2.146-.776,4.249-1.121,6.286C1014.831,416,1013.935,426.679,1016.061,429.592Z" transform="translate(-987.069 -242.781)"/><path class="l" d="M1079.218,279.919c.005.927-1.611,10.6-.649,13.011s6.513,4.183,6.134,4.587-7.888,8.05-14.863,6.095-3.024-6.095-3.024-6.095a14.129,14.129,0,0,0,3.59-11.024C1069.7,279.655,1079.218,279.919,1079.218,279.919Z" transform="translate(-982.782 -243.552)"/><path class="k" d="M1000.576,421.785c20.627,3.006,64.693-17.574,64.693-17.574l-4.2-11.6s-26.032,1.189-30.253,1.883c0,0,12.719-10.407,16.791-24.281,2.995-10.206,39.152-53.868,50.011-72.9,3.9-6.843-8.723-5-8.723-5s-2.852,7.465-7.748,8.355a5.515,5.515,0,0,1-2.747-.211c-6.564-2.157-6.825-4.882-6.825-4.882a127.133,127.133,0,0,0-16.412,2.668c-8.515,1.931-18.884,5.162-27.393,10.462-17.811,11.1-30.256,45.619-32.344,57.728S979.952,418.779,1000.576,421.785Z" transform="translate(-989.229 -242.525)"/><g transform="translate(33.286 94.078)"><path class="m" d="M1084.33,342.834l-3.31,67.46a7.188,7.188,0,0,1-7.558,6.77l-46.672-2.234a2.31,2.31,0,0,1-.33-.031,7.132,7.132,0,0,1-6.524-7.425l3.31-67.461a7.176,7.176,0,0,1,7.559-6.762l44.507,2.123,2.164.1A7.153,7.153,0,0,1,1084.33,342.834Z" transform="translate(-1019.927 -333.142)"/><path class="n" d="M1081.836,342.7l-3.31,67.461a7.175,7.175,0,0,1-7.558,6.762L1026.46,414.8a7.132,7.132,0,0,1-6.524-7.425l3.31-67.461a7.176,7.176,0,0,1,7.559-6.762l44.507,2.123A7.133,7.133,0,0,1,1081.836,342.7Z" transform="translate(-1019.927 -333.142)"/><ellipse class="o" cx="5.573" cy="5.498" rx="5.573" ry="5.498" transform="translate(24.978 37.003)"/></g><g transform="translate(77.099)"><ellipse class="e" cx="11.928" cy="16.056" rx="11.928" ry="16.056" transform="translate(2.552 10.698) rotate(-2.516)"/><g transform="translate(2.782 4.494)"><path class="g" d="M1070.19,263.223s21.113,10.431,14.219-7.435C1079.639,243.427,1055.776,255.728,1070.19,263.223Z" transform="translate(-1062.67 -250.524)"/><path class="g" d="M1073.227,258.7s-11.257,7.236-9.854,13.968c0,0-3.407-20.133,8.05-21.117s15.947-.075,15.838,21.368C1087.261,272.924,1083.2,256.038,1073.227,258.7Z" transform="translate(-1062.899 -250.458)"/></g><path class="g" d="M1070.3,252.124s.311-6.33,6.686-5.7,9.243,4.091,10.3,7.626,2.077,6.176,2.982,6.139c0,0-2.6,2.791-3.546,1.935,0,0,2.623,6.326-.138,11.721,0,0-1.52-8.074-6.085-8.78S1070.3,252.124,1070.3,252.124Z" transform="translate(-1059.492 -246.379)"/><path class="g" d="M1071.722,251.641s-4.64-2.492-8.9,3.947l-2.489,5.471s.943.856,2.716-.113c0,0-.557,6.327.459,9.842l2.22-10.847Z" transform="translate(-1060.333 -245.976)"/></g><path class="p" d="M1017.09,394.407a57.368,57.368,0,0,0,3.457,4.848c.012.014-.1,1.764-.084,1.779,2.39,3.018,5.067,4.918,10.07,9.4.047.041,1.388.057,1.433.1q.787.7,1.62,1.433c15.517,13.581,43.906,18.389,61.231,20.221a39.118,39.118,0,0,0,8.194-2.353c2.357-1.024,4.641-3.689,6.819-7.615l-91.619-34.1-3.107-1.158S1013.461,388.688,1017.09,394.407Z" transform="translate(-987.079 -234.527)"/><path class="p" d="M1108.3,308.038s-16.114,18.506-26.069,37.247c-.748,1.409-4.933,11.873-4.941,11.9-6.455,22.188-9.646,55.326-9.646,55.326l15.4-36.7Z" transform="translate(-982.618 -241.181)"/><path class="e" d="M1013.6,390.629c3.78.518,13.566,3.806,13.566,3.806l1.948-5.959s-4.65-2.85-5.934-4.393-1.977-2.856-3.039-3.664a14.63,14.63,0,0,0-3.853-1.5l-.316.4-.312.4s-.038,0-.1-.009a10.526,10.526,0,0,1-1.5-.194,5.343,5.343,0,0,0-1.655,1.114,2.7,2.7,0,0,0-.465.524,4.4,4.4,0,0,1-1.4,1.145c-.157.1-.285.169-.354.219s-.272.237-.526.484c-.631.623-1.613,1.657-1.922,2.023a20.7,20.7,0,0,0-2.007,1.953,2.192,2.192,0,0,0-.222.395C1005.115,388.3,1009.814,390.111,1013.6,390.629Z" transform="translate(-987.859 -235.205)"/><path class="k" d="M1095.431,332.291c0-.992,8.433-46.595,26.483-41.714s30.239,9.043,37.271,43.96-7.606,103.085-68.823,98.6-54.417-22.889-69.677-31.031l2.943-11.511s2.648,4.478,10.388,2.652,30.007-7.512,43.368-5.132c0,0,10.887-8.206,10.014-12.74s5.324-36.213,11.133-43.844S1095.431,332.291,1095.431,332.291Z" transform="translate(-986.577 -242.684)"/><path class="p" d="M1014.769,379.687a.445.445,0,0,0,.109.1c.328.194,2.354.882,2.573.947s-.742-.537-1-.558a5.917,5.917,0,0,1-1.263-.882l-.312.4S1014.834,379.694,1014.769,379.687Z" transform="translate(-987.076 -235.173)"/><g transform="translate(83.481 131.111)"><path class="e" d="M1066.219,381.639a8.02,8.02,0,0,1,2.656.555c1.1.73,1.717,1.849,3.034,2.008.37.046,2.389.3,2.164-.473a3.112,3.112,0,0,0-1.215-1.618.759.759,0,0,1,.08.007c.128.005.417.026.84.076a26.358,26.358,0,0,1,3.844.785c2.891.8,6.538-1.652,6.741-1.911s-.242-.632-1.622-.976c-.017-.007-.033-.009-.05-.015-1.418-.349-4.354-.65-4.354-.65s5.366-.1,8.4-.1a4.952,4.952,0,0,0,.67-.044h.012a5.3,5.3,0,0,0,3.3-1.852.412.412,0,0,0-.306-.678c-.931-.031-2.506-.1-3.681-.254a42.92,42.92,0,0,0-6.937.509c-.367.047-.588.079-.588.079s-1.29-.062,3.013-1.96,4.011-7.753,4.011-7.753a.719.719,0,0,0-.382-.079c-.483.014-1.386.385-2.56,2.431-1.773,3.1-5.119,4.051-5.533,5.051s-3.588,2.864-3.588,2.864-1.725.737-2.637,1.005c-.65.191-.786,1.1-.81,1.6a3.07,3.07,0,0,0,0,.309v.026a9.21,9.21,0,0,1-1.776-.7C1068.126,379.428,1066.219,381.638,1066.219,381.639Z" transform="translate(-1066.219 -367.296)"/><path class="p" d="M1078.871,377.009c-.367.047-.588.079-.588.079s-1.29-.062,3.013-1.96,4.011-7.753,4.011-7.753a.719.719,0,0,0-.382-.079,2.681,2.681,0,0,1,.063,1.149c-.164.7-1.83,5-3.409,5.989s-3.948,2.337-4.241,2.543S1078.155,377.245,1078.871,377.009Z" transform="translate(-1065.286 -367.296)"/><path class="p" d="M1071.883,377.669a2.7,2.7,0,0,1,1.463.213,19.016,19.016,0,0,0,3.368.779c.459.115,3.629.4,5.551.574-.017-.007-.033-.009-.05-.015-1.418-.349-4.354-.65-4.354-.65s5.366-.1,8.4-.1a4.952,4.952,0,0,0,.67-.044c-2.875-.064-7.328-.185-8.057-.215-1.082-.041-3.121.326-3.827,0a6.541,6.541,0,0,0-2.661-.7A1.584,1.584,0,0,1,1071.883,377.669Z" transform="translate(-1065.741 -366.437)"/><path class="p" d="M1070.38,379.545l2.208,1.567c.128.005.417.026.84.076a2.161,2.161,0,0,0-.7-1.072,7.786,7.786,0,0,0-2.344-.879A3.071,3.071,0,0,0,1070.38,379.545Z" transform="translate(-1065.868 -366.289)"/></g><path class="p" d="M1050.032,297.977c1.95,1.771,4.473,3.461,6.83,3.242,4.777-.45,8.186.9,12.266,3.14,2.664,1.465,5.429-1.554,6.888-3.958a5.515,5.515,0,0,1-2.747-.211c-6.564-2.157-6.825-4.882-6.825-4.882A127.136,127.136,0,0,0,1050.032,297.977Z" transform="translate(-984.103 -242.254)"/></g><path class="q" d="M1270.847,589.848v78.019H907.067c38.677-35.634,99.111-77.8,179.951-93.193q13.635-2.617,28.066-4.138c.26-.036.538-.054.816-.092a340.267,340.267,0,0,1,39.01-1.744c.482,0,.964,0,1.446.018.538,0,1.094.019,1.632.037A354.621,354.621,0,0,1,1253.131,584c.019,0,.056.018.075.018C1259.512,585.933,1265.374,587.881,1270.847,589.848Z" transform="translate(-962.009 -301.253)"/><g transform="translate(-5.743 278.591)"><path class="r" d="M1075.251,647.794l-5.616-3.275a1.206,1.206,0,0,0-1.122-.05l-5.881,2.768a1.208,1.208,0,0,1-1.695-1.349l1.38-6.352a1.207,1.207,0,0,0-.3-1.083l-4.45-4.737a1.208,1.208,0,0,1,.759-2.029l6.468-.651a1.207,1.207,0,0,0,.937-.62l3.131-5.7a1.207,1.207,0,0,1,2.163.094l2.617,5.951a1.208,1.208,0,0,0,.88.7l6.385,1.218a1.208,1.208,0,0,1,.578,2.087l-4.85,4.328a1.207,1.207,0,0,0-.395,1.053l.817,6.448A1.208,1.208,0,0,1,1075.251,647.794Z" transform="translate(-943.605 -575.172)"/><path class="r" d="M1224.778,629.985l-5.615-3.275a1.206,1.206,0,0,0-1.122-.05l-5.881,2.768a1.208,1.208,0,0,1-1.695-1.349l1.38-6.352a1.21,1.21,0,0,0-.3-1.083l-4.45-4.737a1.208,1.208,0,0,1,.759-2.029l6.468-.651a1.206,1.206,0,0,0,.937-.62l3.13-5.7a1.208,1.208,0,0,1,2.164.1l2.618,5.95a1.207,1.207,0,0,0,.879.7l6.385,1.217a1.208,1.208,0,0,1,.578,2.087l-4.85,4.328a1.209,1.209,0,0,0-.395,1.053l.815,6.449A1.207,1.207,0,0,1,1224.778,629.985Z" transform="translate(-930.999 -576.673)"/><path class="r" d="M1108.984,596.054l-2.519-1.469a.54.54,0,0,0-.5-.022l-2.638,1.242a.541.541,0,0,1-.76-.605l.618-2.85a.539.539,0,0,0-.135-.486l-2-2.125a.542.542,0,0,1,.34-.91l2.9-.293a.54.54,0,0,0,.421-.278l1.4-2.556a.541.541,0,0,1,.971.043l1.174,2.669a.542.542,0,0,0,.395.314l2.865.545a.542.542,0,0,1,.259.937l-2.176,1.942a.544.544,0,0,0-.177.472l.367,2.893A.542.542,0,0,1,1108.984,596.054Z" transform="translate(-939.924 -578.432)"/><path class="r" d="M1052.627,593.188l-.7-.409a.149.149,0,0,0-.14-.005l-.733.345a.151.151,0,0,1-.211-.168l.172-.792a.152.152,0,0,0-.038-.136l-.554-.59a.15.15,0,0,1,.094-.253l.806-.081a.151.151,0,0,0,.117-.077l.39-.71a.151.151,0,0,1,.27.012l.325.742a.153.153,0,0,0,.111.087l.795.152a.151.151,0,0,1,.073.26l-.6.539a.15.15,0,0,0-.049.131l.1.8A.151.151,0,0,1,1052.627,593.188Z" transform="translate(-944.183 -578.026)"/><path class="r" d="M1198.295,587l-.7-.408a.152.152,0,0,0-.14-.006l-.733.346a.15.15,0,0,1-.21-.169l.171-.792a.15.15,0,0,0-.037-.134l-.555-.591a.151.151,0,0,1,.094-.253l.807-.081a.15.15,0,0,0,.117-.077l.389-.71a.151.151,0,0,1,.27.012l.326.742a.151.151,0,0,0,.109.088l.8.152a.15.15,0,0,1,.072.26l-.6.539a.149.149,0,0,0-.049.131l.1.8A.15.15,0,0,1,1198.295,587Z" transform="translate(-931.902 -578.548)"/><path class="r" d="M1159.281,581.929l-.7-.408a.152.152,0,0,0-.14-.006l-.733.345a.15.15,0,0,1-.211-.168l.171-.792a.15.15,0,0,0-.037-.135l-.554-.591a.15.15,0,0,1,.094-.253l.806-.081a.149.149,0,0,0,.117-.077l.39-.71a.15.15,0,0,1,.269.012l.326.742a.153.153,0,0,0,.109.088l.8.152a.15.15,0,0,1,.073.259l-.6.54a.15.15,0,0,0-.049.131l.1.8A.151.151,0,0,1,1159.281,581.929Z" transform="translate(-935.191 -578.976)"/><path class="r" d="M1015.031,598.251l-.7-.409a.152.152,0,0,0-.14-.006l-.733.346a.15.15,0,0,1-.21-.168l.171-.793a.15.15,0,0,0-.037-.134l-.555-.591a.151.151,0,0,1,.094-.253l.807-.08a.154.154,0,0,0,.117-.078l.389-.709a.151.151,0,0,1,.27.011l.326.742a.151.151,0,0,0,.109.088l.8.152a.15.15,0,0,1,.072.26l-.6.539a.15.15,0,0,0-.049.131l.1.8A.151.151,0,0,1,1015.031,598.251Z" transform="translate(-947.353 -577.599)"/><path class="r" d="M1011.379,629.879l-.7-.408a.146.146,0,0,0-.14-.006l-.733.345a.15.15,0,0,1-.21-.168l.171-.792a.152.152,0,0,0-.037-.136l-.555-.59a.15.15,0,0,1,.094-.253l.807-.081a.153.153,0,0,0,.117-.077l.389-.71a.151.151,0,0,1,.27.012l.326.742a.147.147,0,0,0,.109.087l.8.152a.15.15,0,0,1,.072.26l-.6.539a.151.151,0,0,0-.049.131l.1.8A.15.15,0,0,1,1011.379,629.879Z" transform="translate(-947.661 -574.933)"/><path class="r" d="M954.686,641.9l-.7-.408a.148.148,0,0,0-.141-.007l-.733.345a.15.15,0,0,1-.21-.168l.171-.792a.152.152,0,0,0-.037-.136l-.555-.59a.151.151,0,0,1,.1-.253l.806-.081a.153.153,0,0,0,.117-.077l.39-.71a.15.15,0,0,1,.269.012l.326.742a.147.147,0,0,0,.109.087l.8.152a.15.15,0,0,1,.072.26l-.6.539a.151.151,0,0,0-.049.131l.1.8A.151.151,0,0,1,954.686,641.9Z" transform="translate(-952.441 -573.919)"/><path class="r" d="M978.343,615.407l-.7-.409a.149.149,0,0,0-.14-.005l-.733.345a.151.151,0,0,1-.211-.168l.172-.792a.148.148,0,0,0-.038-.136l-.554-.59a.15.15,0,0,1,.094-.253l.807-.081a.149.149,0,0,0,.116-.078l.39-.709a.15.15,0,0,1,.27.012l.326.742a.152.152,0,0,0,.11.087l.8.152a.15.15,0,0,1,.072.26l-.6.539a.152.152,0,0,0-.05.131l.1.8A.151.151,0,0,1,978.343,615.407Z" transform="translate(-950.446 -576.153)"/><path class="r" d="M1140.142,636.183l-2.881-1.681a.621.621,0,0,0-.577-.026l-3.018,1.42a.62.62,0,0,1-.87-.692l.708-3.26a.619.619,0,0,0-.154-.556l-2.284-2.431a.62.62,0,0,1,.389-1.041l3.319-.334a.621.621,0,0,0,.481-.318l1.607-2.923a.62.62,0,0,1,1.11.049l1.342,3.053a.621.621,0,0,0,.451.359l3.277.625a.62.62,0,0,1,.3,1.071l-2.49,2.221a.62.62,0,0,0-.2.54l.418,3.309A.62.62,0,0,1,1140.142,636.183Z" transform="translate(-937.395 -575.178)"/><path class="r" d="M1169.653,611.186l-2.881-1.681a.622.622,0,0,0-.576-.025l-3.019,1.42a.62.62,0,0,1-.87-.692l.708-3.259a.619.619,0,0,0-.154-.556l-2.284-2.431a.62.62,0,0,1,.391-1.041l3.318-.334a.622.622,0,0,0,.481-.318l1.607-2.923a.62.62,0,0,1,1.11.049l1.342,3.053a.621.621,0,0,0,.451.359l3.277.625a.62.62,0,0,1,.3,1.071l-2.489,2.221a.616.616,0,0,0-.2.54l.419,3.309A.62.62,0,0,1,1169.653,611.186Z" transform="translate(-934.907 -577.285)"/><path class="r" d="M1185.408,646.833l-2.881-1.681a.617.617,0,0,0-.577-.025l-3.018,1.42a.62.62,0,0,1-.87-.693l.708-3.259a.617.617,0,0,0-.154-.555l-2.284-2.432a.619.619,0,0,1,.389-1.04l3.319-.334a.622.622,0,0,0,.481-.319l1.606-2.923a.62.62,0,0,1,1.11.049l1.344,3.053a.623.623,0,0,0,.451.36l3.277.625a.619.619,0,0,1,.3,1.07l-2.49,2.222a.619.619,0,0,0-.2.54l.419,3.309A.62.62,0,0,1,1185.408,646.833Z" transform="translate(-933.578 -574.28)"/></g></g></g><path class="k" d="M1016.061,429.592c6.095,8.349,53.884,15.513,78.746,10.852A39.12,39.12,0,0,0,1103,438.09c2.357-1.024,4.641-3.689,6.819-7.615,16.578-29.893,26.841-132.8,14.883-138.659-13.526-6.632-37.974.758-37.974.758l-9.085,11.613-43.834,25.824s-10.167,37.25-15.609,66.365c-.4,2.146-.776,4.249-1.121,6.286C1014.831,416,1013.935,426.679,1016.061,429.592Z" transform="translate(4.815 3.598)"/><path class="l" d="M1079.218,279.919c.005.927-1.611,10.6-.649,13.011s6.513,4.183,6.134,4.587-7.888,8.05-14.863,6.095-3.024-6.095-3.024-6.095a14.129,14.129,0,0,0,3.59-11.024C1069.7,279.655,1079.218,279.919,1079.218,279.919Z" transform="translate(9.102 2.828)"/><path class="k" d="M1000.576,421.785c20.627,3.006,64.693-17.574,64.693-17.574l-4.2-11.6s-26.032,1.189-30.253,1.883c0,0,12.719-10.407,16.791-24.281,2.995-10.206,39.152-53.868,50.011-72.9,3.9-6.843-8.723-5-8.723-5s-2.852,7.465-7.748,8.355a5.515,5.515,0,0,1-2.747-.211c-6.564-2.157-6.825-4.882-6.825-4.882a127.133,127.133,0,0,0-16.412,2.668c-8.515,1.931-18.884,5.162-27.393,10.462-17.811,11.1-30.256,45.619-32.344,57.728S979.952,418.779,1000.576,421.785Z" transform="translate(2.655 3.854)"/><g transform="translate(1025.17 340.457)"><path class="m" d="M1084.33,342.834l-3.31,67.46a7.188,7.188,0,0,1-7.558,6.77l-46.672-2.234a2.31,2.31,0,0,1-.33-.031,7.132,7.132,0,0,1-6.524-7.425l3.31-67.461a7.176,7.176,0,0,1,7.559-6.762l44.507,2.123,2.164.1A7.153,7.153,0,0,1,1084.33,342.834Z" transform="translate(-1019.927 -333.142)"/><path class="n" d="M1081.836,342.7l-3.31,67.461a7.175,7.175,0,0,1-7.558,6.762L1026.46,414.8a7.132,7.132,0,0,1-6.524-7.425l3.31-67.461a7.176,7.176,0,0,1,7.559-6.762l44.507,2.123A7.133,7.133,0,0,1,1081.836,342.7Z" transform="translate(-1019.927 -333.142)"/><ellipse class="o" cx="5.573" cy="5.498" rx="5.573" ry="5.498" transform="translate(24.978 37.003)"/></g><g transform="translate(1068.983 246.379)"><ellipse class="e" cx="11.928" cy="16.056" rx="11.928" ry="16.056" transform="translate(2.552 10.698) rotate(-2.516)"/><g transform="translate(2.782 4.494)"><path class="g" d="M1070.19,263.223s21.113,10.431,14.219-7.435C1079.639,243.427,1055.776,255.728,1070.19,263.223Z" transform="translate(-1062.67 -250.524)"/><path class="g" d="M1073.227,258.7s-11.257,7.236-9.854,13.968c0,0-3.407-20.133,8.05-21.117s15.947-.075,15.838,21.368C1087.261,272.924,1083.2,256.038,1073.227,258.7Z" transform="translate(-1062.899 -250.458)"/></g><path class="g" d="M1070.3,252.124s.311-6.33,6.686-5.7,9.243,4.091,10.3,7.626,2.077,6.176,2.982,6.139c0,0-2.6,2.791-3.546,1.935,0,0,2.623,6.326-.138,11.721,0,0-1.52-8.074-6.085-8.78S1070.3,252.124,1070.3,252.124Z" transform="translate(-1059.492 -246.379)"/><path class="g" d="M1071.722,251.641s-4.64-2.492-8.9,3.947l-2.489,5.471s.943.856,2.716-.113c0,0-.557,6.327.459,9.842l2.22-10.847Z" transform="translate(-1060.333 -245.976)"/></g><path class="p" d="M1017.09,394.407a57.368,57.368,0,0,0,3.457,4.848c.012.014-.1,1.764-.084,1.779,2.39,3.018,5.067,4.918,10.07,9.4.047.041,1.388.057,1.433.1q.787.7,1.62,1.433c15.517,13.581,43.906,18.389,61.231,20.221a39.118,39.118,0,0,0,8.194-2.353c2.357-1.024,4.641-3.689,6.819-7.615l-91.619-34.1-3.107-1.158S1013.461,388.688,1017.09,394.407Z" transform="translate(4.805 11.853)"/><path class="p" d="M1108.3,308.038s-16.114,18.506-26.069,37.247c-.748,1.409-4.933,11.873-4.941,11.9-6.455,22.188-9.646,55.326-9.646,55.326l15.4-36.7Z" transform="translate(9.266 5.198)"/><path class="e" d="M1013.6,390.629c3.78.518,13.566,3.806,13.566,3.806l1.948-5.959s-4.65-2.85-5.934-4.393-1.977-2.856-3.039-3.664a14.63,14.63,0,0,0-3.853-1.5l-.316.4-.312.4s-.038,0-.1-.009a10.526,10.526,0,0,1-1.5-.194,5.343,5.343,0,0,0-1.655,1.114,2.7,2.7,0,0,0-.465.524,4.4,4.4,0,0,1-1.4,1.145c-.157.1-.285.169-.354.219s-.272.237-.526.484c-.631.623-1.613,1.657-1.922,2.023a20.7,20.7,0,0,0-2.007,1.953,2.192,2.192,0,0,0-.222.395C1005.115,388.3,1009.814,390.111,1013.6,390.629Z" transform="translate(4.025 11.175)"/><path class="k" d="M1095.431,332.291c0-.992,8.433-46.595,26.483-41.714s30.239,9.043,37.271,43.96-7.606,103.085-68.823,98.6-54.417-22.889-69.677-31.031l2.943-11.511s2.648,4.478,10.388,2.652,30.007-7.512,43.368-5.132c0,0,10.887-8.206,10.014-12.74s5.324-36.213,11.133-43.844S1095.431,332.291,1095.431,332.291Z" transform="translate(5.307 3.695)"/><path class="p" d="M1014.769,379.687a.445.445,0,0,0,.109.1c.328.194,2.354.882,2.573.947s-.742-.537-1-.558a5.917,5.917,0,0,1-1.263-.882l-.312.4S1014.834,379.694,1014.769,379.687Z" transform="translate(4.808 11.206)"/><g transform="translate(1075.365 377.49)"><path class="e" d="M1066.219,381.639a8.02,8.02,0,0,1,2.656.555c1.1.73,1.717,1.849,3.034,2.008.37.046,2.389.3,2.164-.473a3.112,3.112,0,0,0-1.215-1.618.759.759,0,0,1,.08.007c.128.005.417.026.84.076a26.358,26.358,0,0,1,3.844.785c2.891.8,6.538-1.652,6.741-1.911s-.242-.632-1.622-.976c-.017-.007-.033-.009-.05-.015-1.418-.349-4.354-.65-4.354-.65s5.366-.1,8.4-.1a4.952,4.952,0,0,0,.67-.044h.012a5.3,5.3,0,0,0,3.3-1.852.412.412,0,0,0-.306-.678c-.931-.031-2.506-.1-3.681-.254a42.92,42.92,0,0,0-6.937.509c-.367.047-.588.079-.588.079s-1.29-.062,3.013-1.96,4.011-7.753,4.011-7.753a.719.719,0,0,0-.382-.079c-.483.014-1.386.385-2.56,2.431-1.773,3.1-5.119,4.051-5.533,5.051s-3.588,2.864-3.588,2.864-1.725.737-2.637,1.005c-.65.191-.786,1.1-.81,1.6a3.07,3.07,0,0,0,0,.309v.026a9.21,9.21,0,0,1-1.776-.7C1068.126,379.428,1066.219,381.638,1066.219,381.639Z" transform="translate(-1066.219 -367.296)"/><path class="p" d="M1078.871,377.009c-.367.047-.588.079-.588.079s-1.29-.062,3.013-1.96,4.011-7.753,4.011-7.753a.719.719,0,0,0-.382-.079,2.681,2.681,0,0,1,.063,1.149c-.164.7-1.83,5-3.409,5.989s-3.948,2.337-4.241,2.543S1078.155,377.245,1078.871,377.009Z" transform="translate(-1065.286 -367.296)"/><path class="p" d="M1071.883,377.669a2.7,2.7,0,0,1,1.463.213,19.016,19.016,0,0,0,3.368.779c.459.115,3.629.4,5.551.574-.017-.007-.033-.009-.05-.015-1.418-.349-4.354-.65-4.354-.65s5.366-.1,8.4-.1a4.952,4.952,0,0,0,.67-.044c-2.875-.064-7.328-.185-8.057-.215-1.082-.041-3.121.326-3.827,0a6.541,6.541,0,0,0-2.661-.7A1.584,1.584,0,0,1,1071.883,377.669Z" transform="translate(-1065.741 -366.437)"/><path class="p" d="M1070.38,379.545l2.208,1.567c.128.005.417.026.84.076a2.161,2.161,0,0,0-.7-1.072,7.786,7.786,0,0,0-2.344-.879A3.071,3.071,0,0,0,1070.38,379.545Z" transform="translate(-1065.868 -366.289)"/></g><path class="p" d="M1050.032,297.977c1.95,1.771,4.473,3.461,6.83,3.242,4.777-.45,8.186.9,12.266,3.14,2.664,1.465,5.429-1.554,6.888-3.958a5.515,5.515,0,0,1-2.747-.211c-6.564-2.157-6.825-4.882-6.825-4.882A127.136,127.136,0,0,0,1050.032,297.977Z" transform="translate(7.781 4.125)"/></g></svg>