<svg xmlns="http://www.w3.org/2000/svg" xmlns:xlink="http://www.w3.org/1999/xlink" width="961.168" height="284.424" viewBox="0 0 961.168 284.424"><defs><style>.a{fill:#947dce;}.b,.c,.g{fill:#fff;}.b,.f{font-size:16px;}.b,.d,.f,.g{font-family:DejaVuSans, DejaVu Sans;}.d,.g{font-size:17px;}.e{fill:#7fd1d8;}.h{fill:#f7cf43;}.i{fill:#1fb8ff;}.j,.k,.l,.s,.t,.u,.v{stroke:#77b5d4;stroke-miterlimit:10;}.j{stroke-width:4.464px;fill:url(#a);}.k{stroke-width:3.357px;fill:url(#b);}.l{stroke-width:3.81px;fill:url(#c);}.m{fill:#c92732;}.n{fill:#ca9332;}.o{fill:#c6f032;}.p{fill:#18f13b;}.q{fill:#19e5ff;}.r{fill:#bd2bff;}.s,.t,.u,.v{stroke-width:2.336px;}.s{fill:url(#d);}.t{fill:url(#e);}.u{fill:url(#f);}.v{fill:url(#g);}.w{fill:#22973b;}.x{fill:url(#h);}</style><radialGradient id="a" cx="0.471" cy="0.904" r="1.068" gradientTransform="translate(0.283) scale(0.434 1)" gradientUnits="objectBoundingBox"><stop offset="0" stop-color="#fff"/><stop offset="0.196" stop-color="#fbfcfd"/><stop offset="0.38" stop-color="#eff6f9"/><stop offset="0.56" stop-color="#dcebf1"/><stop offset="0.736" stop-color="#c2dbe7"/><stop offset="0.908" stop-color="#a0c7da"/><stop offset="1" stop-color="#8bbbd2"/></radialGradient><radialGradient id="b" cx="0.529" cy="0.904" r="1.033" gradientTransform="matrix(-0.449, 0, 0, 1.034, -49.448, -0.03)" xlink:href="#a"/><radialGradient id="c" cx="0.529" cy="0.904" r="1.033" gradientTransform="matrix(-0.449, 0, 0, 1.034, -51.838, -0.03)" xlink:href="#a"/><radialGradient id="d" cx="0.494" cy="0.631" r="0.944" gradientTransform="matrix(0.462, -0.476, 0.122, 0.429, 0.189, 0.596)" xlink:href="#a"/><radialGradient id="e" cx="0.494" cy="0.631" r="1.372" gradientTransform="matrix(0.338, -0.244, 0.031, 0.352, 0.308, 0.529)" xlink:href="#a"/><radialGradient id="f" cx="0.722" cy="0.598" r="0.944" gradientTransform="translate(0.236) scale(0.529 1)" xlink:href="#a"/><radialGradient id="g" cx="0.391" cy="0.697" r="1.607" gradientTransform="translate(0.322) scale(0.355 1)" xlink:href="#a"/><radialGradient id="h" cx="0.848" cy="0.937" r="2.301" gradientTransform="translate(0.364) scale(0.273 1)" gradientUnits="objectBoundingBox"><stop offset="0.053" stop-color="#9ed96d"/><stop offset="0.062" stop-color="#9ad667"/><stop offset="0.09" stop-color="#92d25b"/><stop offset="0.13" stop-color="#8dcf54"/><stop offset="0.237" stop-color="#8ccf53"/><stop offset="0.287" stop-color="#8acb52"/><stop offset="0.45" stop-color="#89c952"/><stop offset="0.608" stop-color="#77af47"/><stop offset="0.706" stop-color="#71a643"/><stop offset="0.851" stop-color="#5c942a"/><stop offset="1" stop-color="#43800c"/></radialGradient></defs><g transform="translate(-203 -278)"><g transform="translate(203 278)"><g transform="translate(218.201 3.294)"><path class="a" d="M685.463,337.367V357.8a8.5,8.5,0,0,1-8.5,8.5H363.771a8.75,8.75,0,0,1-8.725-8.725V337.592a8.751,8.751,0,0,1,8.725-8.725h15.363l8.448,6.893a1.181,1.181,0,0,0,1.469,0l8.448-6.893H676.964A8.5,8.5,0,0,1,685.463,337.367Z" transform="translate(-355.046 -328.867)"/><path class="a" d="M376.369,365.394l8.654,7.059a1.159,1.159,0,0,0,1.466,0l10.246-8.358a1.159,1.159,0,0,0-.812-2.055l-18.9,1.3A1.159,1.159,0,0,0,376.369,365.394Z" transform="translate(-354.772 -328.432)"/><text class="b" transform="translate(5.895 24.19)"><tspan x="0" y="0" xml:space="preserve">when actor         </tspan></text><text class="b" transform="translate(154.692 24.19)"><tspan x="0" y="0">touches</tspan></text><rect class="c" width="38.888" height="25.262" rx="9.628" transform="translate(105.828 6.554)"/><text class="d" transform="translate(114.349 25.19)"><tspan x="0" y="0">1</tspan></text><path class="e" d="M483.4,343.973l4.654,7.761,4.87-7.761Z" transform="translate(-353.364 -328.669)"/><rect class="c" width="89.647" height="25.262" rx="9.628" transform="translate(228.747 6.554)"/><text class="f" transform="translate(237.269 24.19)"><tspan x="0" y="0">actor 2</tspan></text><path class="e" d="M653.447,345.475l4.654,7.761,4.87-7.761Z" transform="translate(-351.135 -328.649)"/></g><g transform="translate(0 0)"><path class="e" d="M284.195,334.116v20.437a8.5,8.5,0,0,1-8.5,8.5h-127.3a8.75,8.75,0,0,1-8.725-8.725V334.341a8.751,8.751,0,0,1,8.725-8.725h15.363l8.448,6.893a1.182,1.182,0,0,0,1.469,0l8.448-6.893h93.574A8.5,8.5,0,0,1,284.195,334.116Z" transform="translate(-139.668 -325.616)"/><path class="e" d="M160.992,362.143l8.653,7.059a1.158,1.158,0,0,0,1.466,0l10.246-8.358a1.159,1.159,0,0,0-.813-2.055l-18.9,1.3A1.159,1.159,0,0,0,160.992,362.143Z" transform="translate(-139.394 -325.181)"/><text class="g" transform="translate(85.335 26.038)"><tspan x="0" y="0">point</tspan></text><rect class="c" width="74.806" height="21.9" rx="9.628" transform="translate(6.172 9.083)"/><text class="f" transform="translate(14.695 25.038)"><tspan x="0" y="0">score</tspan></text><path class="e" d="M202.354,343.061l4.654,7.761,4.87-7.761Z" transform="translate(-138.846 -325.387)"/></g><g transform="translate(81.544 57.288)"><path class="h" d="M220.157,383.279a179.511,179.511,0,0,0,25.5,27.733,189.425,189.425,0,0,0,30.338,22.077,180.727,180.727,0,0,0,16.639,8.551,170.715,170.715,0,0,0,17.437,6.629,156.635,156.635,0,0,0,18.028,4.575c3.029.65,6.1,1.054,9.162,1.517,1.525.263,3.075.352,4.61.532,1.54.144,3.072.354,4.616.445,6.168.483,12.353.431,18.514.35l9.219-.616c3.061-.322,6.1-.8,9.15-1.183A159.751,159.751,0,0,0,418.727,444a176.147,176.147,0,0,0,32.285-17.377,203.31,203.31,0,0,0,28.242-23.383l8.79,9.222a215.222,215.222,0,0,1-30.961,23.508,186.485,186.485,0,0,1-34.939,16.951,168.53,168.53,0,0,1-37.717,8.858c-3.219.276-6.428.634-9.646.835l-9.668.239c-6.438-.18-12.87-.405-19.25-1.176-1.6-.163-3.182-.445-4.772-.662-1.586-.254-3.183-.416-4.755-.754-3.152-.612-6.311-1.166-9.418-1.969a162.085,162.085,0,0,1-18.392-5.5,175.156,175.156,0,0,1-17.6-7.552,184.474,184.474,0,0,1-16.6-9.434,191.781,191.781,0,0,1-29.76-23.626A180.318,180.318,0,0,1,220.157,383.279Z" transform="translate(-220.157 -382.148)"/><g transform="translate(233.681)"><path class="h" d="M503.254,382.163c-6.289,15.993-12.018,37.691-12.23,54.129l-13.6-25.266-26.61-10.716C467.129,398.282,488.06,390.186,503.254,382.163Z" transform="translate(-450.815 -382.163)"/></g></g></g><g transform="translate(784.523 278)"><rect class="i" width="378.476" height="284.424" transform="translate(0)"/><path class="j" d="M813.961,362.167c-8.684-6.509-8.819-18.073-3.471-23.036,4.335-4.022,12.794-4.191,19.249.947a18.03,18.03,0,0,1,12.306-20.2c9.055-2.686,19.176,2.687,22.089,12.307,4.049-3.388,9.3-4.793,13.569-3.156,6.377,2.444,10.311,11.554,6.627,20.511,1.063-.243,14.17-3.03,22.72,5.679a21.328,21.328,0,0,1,5.364,9.783Z" transform="translate(-795.301 -291.305)"/><path class="k" d="M893.251,445.184c6.422-4.975,6.522-13.816,2.567-17.61-3.207-3.075-9.461-3.2-14.235.724,1.088-6.928-2.959-13.555-9.1-15.44-6.7-2.054-14.18,2.055-16.335,9.409-2.995-2.591-6.874-3.664-10.034-2.412-4.716,1.868-7.627,8.833-4.9,15.68-.786-.186-10.48-2.317-16.8,4.342a16.475,16.475,0,0,0-3.967,7.478Z" transform="translate(-795.123 -290.084)"/><path class="l" d="M1145.884,339.852c7.289-5.648,7.4-15.682,2.914-19.989-3.639-3.491-10.74-3.637-16.159.822,1.235-7.864-3.358-15.387-10.331-17.525-7.6-2.331-16.1,2.331-18.542,10.679-3.4-2.94-7.8-4.159-11.39-2.738-5.352,2.12-8.656,10.027-5.563,17.8-.893-.211-11.9-2.629-19.072,4.929a18.7,18.7,0,0,0-4.5,8.489Z" transform="translate(-791.941 -291.523)"/><g transform="translate(0 93.747)"><g transform="translate(78.373)"><path class="m" d="M1105.467,433.071l-6.347,6.162a134.9,134.9,0,0,0-143.7-39.687c-2.557.815-5.03,1.687-7.452,2.616-1.231.471-2.461.96-3.657,1.47-1.178.493-2.356.986-3.5,1.516a134.526,134.526,0,0,0-16.027,8.534c-.991.61-1.965,1.239-2.922,1.869-2.778,1.806-5.418,3.694-7.919,5.606-.592.422-1.149.883-1.724,1.325-.37.277-.741.571-1.1.868-.835.655-1.652,1.328-2.454,2-1.9,1.578-3.709,3.18-5.415,4.788-.485.43-.953.86-1.4,1.309-3.431,3.25-6.526,6.5-9.28,9.655-1.5,1.709-2.891,3.372-4.209,5s-2.529,3.218-3.646,4.738c-.751,1.013-1.465,1.994-2.123,2.942-.755,1.084-1.473,2.135-2.135,3.136-.1.136-.192.253-.271.389l-7.367-4.832c11.086-16.924,36.213-47.4,79.925-61.33a143.781,143.781,0,0,1,152.732,41.919Z" transform="translate(-872.81 -384.2)"/><path class="n" d="M1099.023,439.111l-5.913,5.729-2.931,2.858-14.2,13.784-5.539,5.363-11.378,11.045c-.247-.3-.494-.577-.759-.876-13.028-15.032-32.547-26.7-61.287-28.272-37.082-2.029-65.843,28.98-65.843,28.98l-12.4-5.105-9.559-3.925-9.369-3.859-9.318-3.84-1.051-.435-9.129-3.757c.663-1,1.38-2.053,2.136-3.136.25-.337.483-.677.735-1.032s.52-.709.772-1.065c.192-.271.4-.558.617-.845.287-.371.558-.761.847-1.149s.595-.776.9-1.18c.325-.421.671-.86,1.015-1.3.613-.775,1.243-1.548,1.891-2.338.326-.421.669-.825,1.03-1.244.687-.841,1.41-1.679,2.168-2.533,2.754-3.151,5.85-6.4,9.281-9.655.451-.449.919-.879,1.4-1.309,1.706-1.608,3.518-3.21,5.415-4.788.8-.675,1.619-1.349,2.454-2,.354-.3.725-.592,1.1-.869.574-.441,1.133-.9,1.723-1.324,2.5-1.913,5.143-3.8,7.919-5.606.957-.63,1.932-1.259,2.923-1.869a134.475,134.475,0,0,1,16.028-8.534c1.145-.53,2.323-1.022,3.5-1.516,1.2-.51,2.427-1,3.657-1.471,2.423-.928,4.9-1.8,7.453-2.615a134.9,134.9,0,0,1,143.7,39.687Z" transform="translate(-872.711 -384.086)"/><path class="o" d="M1092.991,444.733l-2.931,2.858-14.2,13.784-5.539,5.363-11.378,11.045c-.247-.3-.494-.577-.759-.876-13.028-15.032-32.547-26.7-61.287-28.272-37.082-2.029-65.843,28.98-65.843,28.98l-12.4-5.105-9.559-3.925-9.369-3.859-9.318-3.84-1.051-.435c.659-.948,1.354-1.913,2.068-2.911,11.709-16.145,33.349-39.009,67.445-50.177a126.23,126.23,0,0,1,73-1.77C1062.2,414.2,1082.379,432.64,1092.991,444.733Z" transform="translate(-872.593 -383.979)"/><path class="p" d="M1083.491,452.753l-8.3,7.842-5.642,5.322-11.491,10.843c-13.028-15.032-32.547-26.7-61.287-28.272-37.082-2.029-65.843,28.98-65.843,28.98l-12.4-5.105-9.559-3.925L899.6,464.58c.29-.406.6-.847.908-1.269,10.59-14.589,30.135-35.267,60.932-45.35a114.022,114.022,0,0,1,65.979-1.583C1055.654,424.4,1074.184,441.851,1083.491,452.753Z" transform="translate(-872.459 -383.832)"/><path class="q" d="M1075.609,461.08l-5.539,5.363-11.378,11.045c-.247-.3-.494-.577-.759-.876-13.028-15.032-32.547-26.7-61.287-28.272-37.082-2.029-65.843,28.98-65.843,28.98l-12.4-5.105-9.559-3.925c11.076-13.888,30.042-32.024,58.03-40.354a102.633,102.633,0,0,1,62.553,1.031c21.318,7.4,36.323,20.7,45.64,31.479C1075.264,460.671,1075.445,460.877,1075.609,461.08Z" transform="translate(-872.338 -383.684)"/><path class="r" d="M1069.947,466.293l-11.378,11.045c-.247-.3-.494-.577-.759-.876-13.028-15.032-32.547-26.7-61.287-28.272-37.082-2.029-65.843,28.98-65.843,28.98l-12.4-5.105c11.261-12.27,27.873-25.713,50.435-32.557a99.274,99.274,0,0,1,61.5.967,103.393,103.393,0,0,1,39.089,25.143Z" transform="translate(-872.214 -383.533)"/></g><g transform="translate(77.715 39.422)"><path class="m" d="M872.161,460.951l2.362.81c-.088.141-.176.264-.246.405Z" transform="translate(-872.161 -422.616)"/><path class="m" d="M1095.747,425.668l-.37.353-2.2-2.909C1094.091,423.993,1094.954,424.857,1095.747,425.668Z" transform="translate(-869.264 -423.112)"/></g><path class="s" d="M919.946,465.228q-4.257.637-8.348,1.327c-1.2.2-2.377.405-3.556.608a396.64,396.64,0,0,0-60.625,15.664c-7.74,2.69-14.651,5.362-20.713,7.887-8.918,3.7-18.113,7.924-26.793,12-1.585.276-3.078.516-4.46.718V490.622a54.339,54.339,0,0,1,9.9-6.431,57.4,57.4,0,0,1,9.342.387,20.094,20.094,0,0,1-.423-3.944,17.488,17.488,0,0,1,4.257-12.033,17.824,17.824,0,0,1,18.593-4.957,35.207,35.207,0,0,1,9.8-17.4,28.159,28.159,0,0,1,18.574-8.164,28.972,28.972,0,0,1,15.239,4.017,26.491,26.491,0,0,1,4.2,3,23.217,23.217,0,0,1,2.617,2.6v.018a24.141,24.141,0,0,1,2.4,3.206,2.446,2.446,0,0,1,.2.351,24.887,24.887,0,0,1,2.524,5.768,25.4,25.4,0,0,1,.83,3.666,20.135,20.135,0,0,1,12.512-3.169c.221.018.461.055.7.074a19.407,19.407,0,0,1,9.306,3.8A20.411,20.411,0,0,1,919.946,465.228Z" transform="translate(-795.451 -383.494)"/><path class="t" d="M956.524,486.281a391.052,391.052,0,0,0-96.6,4.073c-21.6,3.686-45.165,9.692-60.017,12.236-1.585.276-3.078.516-4.46.718V490.5a54.339,54.339,0,0,1,9.9-6.431,53.654,53.654,0,0,1,6.891-2.912c.682-.24,1.345-.443,2.027-.645a56.764,56.764,0,0,1,35.325,1.2c-.018-.792.018-9.563,7.3-14.742a17.877,17.877,0,0,1,19.238-.681,36.354,36.354,0,0,1,6.817-9.583,33.16,33.16,0,0,1,7.206-5.546,29.588,29.588,0,0,1,9.877-3.539,25.457,25.457,0,0,1,9.453.074,26.121,26.121,0,0,1,4.072,1.179,29.587,29.587,0,0,1,9.214,5.547,26.948,26.948,0,0,1,6.431,8.311,22.974,22.974,0,0,1,1.234,2.93,25.519,25.519,0,0,1,1.382,8.753c-.018.59-.036,1.105-.074,1.585a17.445,17.445,0,0,1,2.212-.664,19.824,19.824,0,0,1,11.352.59A20.3,20.3,0,0,1,956.524,486.281Z" transform="translate(-795.451 -383.374)"/><path class="u" d="M1170.658,485.741v11.646c-1.843-.24-3.944-.571-6.229-1.013-3.686-1.788-7.481-3.612-11.3-5.4-.018,0-.055-.018-.073-.018-5.087-2.414-10.209-4.755-15.277-6.929a379.274,379.274,0,0,0-65.656-21.394c-.331-.074-.663-.148-1.013-.222-2.93-.681-5.914-1.326-8.974-1.952h-.018c-5.529-1.125-11.278-2.193-17.23-3.152a20.667,20.667,0,0,1,6.395-5.27,19.046,19.046,0,0,1,6.929-2.156,18.62,18.62,0,0,1,4.883.092,20.6,20.6,0,0,1,8.292,3.17,26.1,26.1,0,0,1,2.912-8.384c.165-.331.368-.664.571-.995a1.78,1.78,0,0,1,.2-.369,25.777,25.777,0,0,1,7.629-7.648,29.209,29.209,0,0,1,7.96-3.7h.018a27.928,27.928,0,0,1,9.012-1.16c.756.036,1.529.092,2.285.2,11.941,1.6,22.647,11.7,25.761,25.725a17.834,17.834,0,0,1,18.52,5.215,17.434,17.434,0,0,1,4.109,12.087,18.871,18.871,0,0,1-.5,3.944,56.634,56.634,0,0,1,9.361-.277A57.1,57.1,0,0,1,1170.658,485.741Z" transform="translate(-792.181 -383.588)"/><path class="v" d="M1171.135,485.628v11.646c-1.843-.24-3.944-.571-6.229-1.013-14.816-2.745-38.329-9.048-59.851-13.029a387.815,387.815,0,0,0-88.654-5.768c-2.6.11-5.215.258-7.886.423a20.212,20.212,0,0,1,11.351-10.208,20,20,0,0,1,13.562.257,26.144,26.144,0,0,1,1.105-9.342l.332-.995a26.618,26.618,0,0,1,7.831-11.13,29.111,29.111,0,0,1,9.508-5.529h.019a26.736,26.736,0,0,1,3.833-1.032,27.221,27.221,0,0,1,15.829,1.991h.018a31.732,31.732,0,0,1,3.447,1.751,34.061,34.061,0,0,1,8.881,7.573,37.164,37.164,0,0,1,4.939,7.74,17.843,17.843,0,0,1,19.238.939c7.205,5.27,7.113,14.023,7.076,14.816a57,57,0,0,1,35.363-.719c.664.222,1.327.424,2.008.683a53.18,53.18,0,0,1,6.856,2.985A57.1,57.1,0,0,1,1171.135,485.628Z" transform="translate(-792.658 -383.475)"/></g><path class="w" d="M1052.585,499.642Q942.768,536.653,832.932,573.7H795.451V498.979a330,330,0,0,1,51.965-16.621c5.159-1.2,10.466-2.3,15.921-3.28a328.338,328.338,0,0,1,62.284-5.16h.018c2.064.038,4.128.074,6.173.148,1.014.018,2.009.055,3,.11a342.556,342.556,0,0,1,56.5,6.947A361.16,361.16,0,0,1,1052.585,499.642Z" transform="translate(-795.451 -289.277)"/><path class="x" d="M1173.706,496.18v77.5H812.33c38.421-35.4,98.457-77.284,178.763-92.579q13.543-2.6,27.88-4.109c.258-.036.535-.055.811-.092a337.991,337.991,0,0,1,38.752-1.731c.479,0,.958,0,1.437.017.535,0,1.088.019,1.622.037a352.277,352.277,0,0,1,94.514,15.147c.018,0,.055.018.073.018C1162.447,492.292,1168.27,494.226,1173.706,496.18Z" transform="translate(-795.23 -289.261)"/><g transform="translate(65.974 196.982)"><path class="c" d="M989.886,557.614l-5.578-3.254a1.2,1.2,0,0,0-1.115-.049l-5.842,2.75a1.2,1.2,0,0,1-1.684-1.339l1.371-6.311a1.2,1.2,0,0,0-.3-1.076l-4.421-4.707a1.2,1.2,0,0,1,.755-2.015l6.425-.645a1.2,1.2,0,0,0,.931-.616l3.11-5.659a1.2,1.2,0,0,1,2.149.094l2.6,5.911a1.2,1.2,0,0,0,.873.7l6.343,1.209a1.2,1.2,0,0,1,.574,2.074l-4.818,4.3a1.2,1.2,0,0,0-.391,1.046l.81,6.406A1.2,1.2,0,0,1,989.886,557.614Z" transform="translate(-859.111 -485.47)"/><path class="c" d="M1148.867,538.679l-5.578-3.253a1.2,1.2,0,0,0-1.115-.05l-5.843,2.751a1.2,1.2,0,0,1-1.683-1.34l1.371-6.31a1.2,1.2,0,0,0-.3-1.076l-4.421-4.707a1.2,1.2,0,0,1,.755-2.015l6.424-.646a1.2,1.2,0,0,0,.932-.616l3.109-5.659a1.2,1.2,0,0,1,2.15.1l2.6,5.91a1.2,1.2,0,0,0,.874.7l6.343,1.209a1.2,1.2,0,0,1,.573,2.074l-4.817,4.3a1.2,1.2,0,0,0-.392,1.046l.811,6.407A1.2,1.2,0,0,1,1148.867,538.679Z" transform="translate(-857.027 -485.719)"/><path class="c" d="M1026.447,503.516l-2.5-1.46a.54.54,0,0,0-.5-.022l-2.621,1.234a.538.538,0,0,1-.755-.6l.615-2.832a.536.536,0,0,0-.134-.482l-1.984-2.111a.538.538,0,0,1,.338-.9l2.882-.291a.539.539,0,0,0,.418-.276l1.4-2.539a.538.538,0,0,1,.964.043l1.166,2.651a.538.538,0,0,0,.392.312l2.845.542a.539.539,0,0,1,.258.931l-2.162,1.928a.54.54,0,0,0-.175.469l.364,2.874A.539.539,0,0,1,1026.447,503.516Z" transform="translate(-858.503 -486.009)"/><path class="c" d="M966.934,501l-.7-.406a.153.153,0,0,0-.139-.006l-.728.343a.15.15,0,0,1-.21-.167l.171-.786a.153.153,0,0,0-.037-.135l-.551-.587a.15.15,0,0,1,.094-.251l.8-.08a.148.148,0,0,0,.116-.077l.387-.705a.15.15,0,0,1,.268.012l.324.737a.148.148,0,0,0,.108.086l.79.151a.149.149,0,0,1,.072.258l-.6.536a.15.15,0,0,0-.049.131l.1.8A.15.15,0,0,1,966.934,501Z" transform="translate(-859.207 -485.942)"/><path class="c" d="M1121.809,494.429l-.7-.405a.149.149,0,0,0-.139-.006l-.729.342a.15.15,0,0,1-.21-.167l.171-.786a.15.15,0,0,0-.037-.134l-.551-.587a.15.15,0,0,1,.094-.251l.8-.08a.15.15,0,0,0,.115-.077l.388-.705a.149.149,0,0,1,.268.011l.324.737a.148.148,0,0,0,.108.087l.791.151a.149.149,0,0,1,.071.258l-.6.536a.147.147,0,0,0-.05.13l.1.8A.149.149,0,0,1,1121.809,494.429Z" transform="translate(-857.177 -486.029)"/><path class="c" d="M1080.33,489.033l-.7-.405a.149.149,0,0,0-.139-.006l-.727.342a.149.149,0,0,1-.21-.166l.17-.787a.148.148,0,0,0-.037-.134l-.55-.587a.149.149,0,0,1,.093-.251l.8-.08a.15.15,0,0,0,.115-.077l.388-.705a.149.149,0,0,1,.268.011l.324.738a.151.151,0,0,0,.109.086l.79.151a.15.15,0,0,1,.072.258l-.6.536a.149.149,0,0,0-.049.13l.1.8A.149.149,0,0,1,1080.33,489.033Z" transform="translate(-857.72 -486.099)"/><path class="c" d="M926.961,506.386l-.7-.405a.15.15,0,0,0-.139-.006l-.728.342a.149.149,0,0,1-.21-.167l.171-.786a.151.151,0,0,0-.037-.134l-.551-.587a.15.15,0,0,1,.094-.251l.8-.081a.149.149,0,0,0,.117-.076l.387-.705a.15.15,0,0,1,.268.011l.324.737a.146.146,0,0,0,.108.087l.79.151a.149.149,0,0,1,.072.258l-.6.536a.149.149,0,0,0-.049.13l.1.8A.149.149,0,0,1,926.961,506.386Z" transform="translate(-859.731 -485.872)"/><path class="c" d="M923.078,540.014l-.7-.405a.147.147,0,0,0-.139-.006l-.728.342a.15.15,0,0,1-.21-.167l.171-.786a.15.15,0,0,0-.037-.134l-.551-.587a.15.15,0,0,1,.094-.251l.8-.081a.148.148,0,0,0,.116-.077l.388-.705a.149.149,0,0,1,.268.012l.324.737a.15.15,0,0,0,.108.087l.791.15a.149.149,0,0,1,.071.258l-.6.536a.15.15,0,0,0-.05.131l.1.8A.15.15,0,0,1,923.078,540.014Z" transform="translate(-859.782 -485.431)"/><path class="c" d="M862.8,552.8l-.7-.405a.149.149,0,0,0-.14-.006l-.727.342a.149.149,0,0,1-.21-.167l.17-.786a.149.149,0,0,0-.036-.135l-.551-.587a.149.149,0,0,1,.094-.25l.8-.081a.151.151,0,0,0,.117-.077l.387-.705a.15.15,0,0,1,.268.012l.323.737a.154.154,0,0,0,.109.087l.79.15a.15.15,0,0,1,.072.258l-.6.536a.152.152,0,0,0-.049.131l.1.8A.15.15,0,0,1,862.8,552.8Z" transform="translate(-860.572 -485.263)"/><path class="c" d="M887.955,524.627l-.7-.405a.149.149,0,0,0-.14-.006l-.727.342a.149.149,0,0,1-.21-.167l.17-.786a.147.147,0,0,0-.036-.134l-.551-.587a.149.149,0,0,1,.094-.251l.8-.081a.148.148,0,0,0,.115-.077l.388-.705a.149.149,0,0,1,.267.012l.324.737a.155.155,0,0,0,.109.087l.79.15a.15.15,0,0,1,.072.258l-.6.536a.152.152,0,0,0-.049.131l.1.8A.15.15,0,0,1,887.955,524.627Z" transform="translate(-860.242 -485.633)"/><path class="c" d="M1059.492,546.073l-2.862-1.67a.616.616,0,0,0-.572-.025l-3,1.411a.616.616,0,0,1-.864-.688l.7-3.238a.617.617,0,0,0-.153-.552l-2.268-2.415a.615.615,0,0,1,.387-1.033l3.3-.332a.617.617,0,0,0,.478-.316l1.6-2.9a.616.616,0,0,1,1.1.049l1.334,3.033a.616.616,0,0,0,.448.357l3.255.62a.616.616,0,0,1,.295,1.065l-2.473,2.206a.617.617,0,0,0-.2.537l.415,3.288A.616.616,0,0,1,1059.492,546.073Z" transform="translate(-858.085 -485.471)"/><path class="c" d="M1090.869,519.5l-2.862-1.67a.616.616,0,0,0-.573-.024l-3,1.411a.616.616,0,0,1-.864-.688l.7-3.238a.612.612,0,0,0-.153-.552l-2.268-2.415a.616.616,0,0,1,.387-1.034l3.3-.331a.616.616,0,0,0,.478-.316l1.6-2.9a.616.616,0,0,1,1.1.049l1.334,3.032a.619.619,0,0,0,.449.358l3.254.62a.615.615,0,0,1,.295,1.064l-2.472,2.207a.613.613,0,0,0-.2.537l.415,3.286A.615.615,0,0,1,1090.869,519.5Z" transform="translate(-857.673 -485.82)"/><path class="c" d="M1107.62,557.4l-2.863-1.67a.616.616,0,0,0-.572-.024l-3,1.411a.616.616,0,0,1-.863-.688l.7-3.238a.615.615,0,0,0-.153-.552l-2.268-2.415a.616.616,0,0,1,.387-1.034l3.3-.331a.619.619,0,0,0,.478-.316l1.6-2.9a.616.616,0,0,1,1.1.049l1.334,3.033a.617.617,0,0,0,.448.358l3.255.62a.615.615,0,0,1,.295,1.064l-2.473,2.207a.615.615,0,0,0-.2.536l.416,3.288A.615.615,0,0,1,1107.62,557.4Z" transform="translate(-857.454 -485.323)"/></g></g></g></svg>