<svg xmlns="http://www.w3.org/2000/svg" width="382.75" height="85.238" viewBox="0 0 382.75 85.238"><defs><style>.a{fill:#e83d3d;}.b{fill:#f7cf43;stroke:#ebda75;}.b,.h,.i,.j,.k{stroke-miterlimit:10;}.b,.j{stroke-width:4px;}.c,.d,.h{fill:#fff;}.c,.e{font-size:15px;}.c,.e,.f{font-family:DejaVuSans, DejaVu Sans;}.f{font-size:14px;}.g{fill:#00b0bd;}.h{stroke:#32bcb8;}.i,.j,.k{fill:none;}.i{stroke:#000;}.j,.k{stroke:#e83d3d;}.k{stroke-width:3.079px;}</style></defs><g transform="translate(-578.915 -272.638)"><g transform="translate(590.85 332.696)"><path class="a" d="M596.5,373.528l94.42.057-.093,4.135Z" transform="translate(-596.496 -364.452)"/><g transform="translate(88.276)"><path class="a" d="M746.675,371.676c-6.666,2.3-14.962,6.3-20.147,10.623l4.254-10.981-3.756-11.159C732.011,364.706,740.119,369.077,746.675,371.676Z" transform="translate(-726.528 -360.159)"/></g></g><g transform="translate(683.472 274.638)"><path class="b" d="M1001.187,274.638H772.57l-7.889,6.436a1.1,1.1,0,0,1-1.371,0l-7.889-6.436H741.077a8.171,8.171,0,0,0-8.147,8.147v18.662a8.171,8.171,0,0,0,8.147,8.147h14.7l7.536,6.148a1.082,1.082,0,0,0,1.369,0l7.537-6.148h228.971a7.933,7.933,0,0,0,7.936-7.936V282.574A7.937,7.937,0,0,0,1001.187,274.638Z" transform="translate(-732.93 -274.638)"/><text class="c" transform="translate(8.684 22.781)"><tspan x="0" y="0" xml:space="preserve">actor         say   “                       ”  </tspan></text><rect class="d" width="110.262" height="23.587" rx="9.628" transform="translate(148.501 6.119)"/><rect class="d" width="34.985" height="20.177" rx="9.628" transform="translate(57.089 7.824)"/><text class="e" transform="translate(162.142 22.781)"><tspan x="0" y="0">type here</tspan></text><text class="f" transform="translate(65.425 21.781)"><tspan x="0" y="0">1</tspan></text><path class="g" d="M845.517,295.686l4.346,7.247,4.547-7.247Z" transform="translate(-769.084 -281.397)"/><g transform="translate(27.831 29.706)"><rect class="h" width="66.441" height="51.532"/><text class="f" transform="translate(29.259 18.206)"><tspan x="0" y="0">1</tspan></text><text class="f" transform="translate(29.259 39.834)"><tspan x="0" y="0">2</tspan></text><path class="i" d="M790.375,338.426l3.316,3.789a30.759,30.759,0,0,1,6.062-9.757" transform="translate(-779.207 -322.911)"/></g></g><rect class="j" width="66.441" height="25.766" transform="translate(711.303 330.11)"/><rect class="k" width="39.38" height="25.766" transform="translate(738.364 278.578)"/><g transform="translate(578.915 275.292)"><path class="a" d="M578.915,288.97l94.42.057-.093,4.135Z" transform="translate(-578.915 -279.894)"/><g transform="translate(88.276)"><path class="a" d="M729.094,287.118c-6.666,2.3-14.963,6.3-20.147,10.623L713.2,286.76,709.445,275.6C714.43,280.148,722.538,284.518,729.094,287.118Z" transform="translate(-708.947 -275.601)"/></g></g></g></svg>