<svg xmlns="http://www.w3.org/2000/svg" width="62.483" height="99.39" viewBox="0 0 62.483 99.39"><defs><style>.a{fill:#efe9ce;}.b{fill:#e5d3b7;}.c{fill:#7d5a42;}.d{fill:#fcc57b;}.e{fill:#fcb95d;}.f{fill:#7fd1d8;}.g{fill:#bfbfbf;}.h{fill:#9e9e9e;}.i{fill:#444;}.j{fill:#a3a3a3;}.k{fill:#c7c7c7;}.l{fill:#606060;}.m{fill:#96d9df;}.n{fill:#936a4e;}.o{fill:#8c5d4a;}.p{fill:#402c23;}.q{fill:#ef8f6f;}.r{fill:#fff9e9;}.s{fill:#894f23;}.t{fill:#2e2c23;}.u{fill:#952c23;}</style></defs><path class="a" d="M180.366,441.323h-8.823s-3.76-2.229-3.069-5.349,9.59-2.585,9.59-2.585l3.6.8a3.526,3.526,0,0,1,2.506,3.743,3.372,3.372,0,0,1-2.879,3.362C181,441.311,180.693,441.323,180.366,441.323Z" transform="translate(-149.503 -369.894)"/><path class="b" d="M178.234,437.638c-4.1-.267-7.352-1.492-7.271-2.735,0-.023.012-.043.015-.066-1.284.39-2.29,1.005-2.5,1.973-.69,3.12,3.069,5.349,3.069,5.349h8.823c.327,0,.634-.012.926-.034a3.372,3.372,0,0,0,2.879-3.362,4.1,4.1,0,0,0-.219-1.557A17.784,17.784,0,0,1,178.234,437.638Z" transform="translate(-149.503 -370.73)"/><path class="c" d="M194.018,442.445l2.545.052a3.306,3.306,0,0,0,2.754-3.972c-.2-1.3-1.038-3.1-2.311-3.178C195.842,435.277,192.561,437.224,194.018,442.445Z" transform="translate(-163.755 -371.017)"/><path class="d" d="M196.289,443.873l-5.18,16.924-.6-.415L193.88,441.3a1.188,1.188,0,0,1,1.233-1.019,1.46,1.46,0,0,1,1.229,1.226A4.655,4.655,0,0,1,196.289,443.873Z" transform="translate(-161.98 -373.799)"/><path class="e" d="M227.729,423.505c.4.09.862.076.925-.075.054-.129-.293-.118-.556-.218-.234-.087-.317-.115-.285-.171a2.888,2.888,0,0,1,.714.076c.458.067.775.044.835-.107s-.265-.122-.665-.224c-.349-.087-.513-.107-.459-.256.021-.071.266-.036.659-.05.448-.015.737-.12.744-.243.007-.173-.212-.041-.715-.088-.669-.059-.859.02-1.131-.242-.252-.245,1.036-.409.856-.659-.24-.332-2.486.555-2.629,1.011C225.819,422.921,226.464,423.218,227.729,423.505Z" transform="translate(-181.997 -363.023)"/><path class="e" d="M192.554,410.9c1.242,2.226,2.053,4.453,3.71,5.567s11.5-.186,11.5-.186l-.374-.928s-8.534.464-10.229-.741-2.956-5.195-2.956-5.195Z" transform="translate(-163.136 -356.387)"/><path class="f" d="M188.742,486.692h3.465a9.506,9.506,0,0,0-2.516-1.3C189.163,485.429,188.742,486.692,188.742,486.692Z" transform="translate(-160.985 -399.249)"/><g transform="translate(39.782 76.315)"><g transform="translate(0 9.362)"><rect class="g" width="19.961" height="0.247" transform="translate(0 0.99)"/><rect class="g" width="19.961" height="0.247"/></g><g transform="translate(9.362)"><rect class="g" width="0.247" height="19.961" transform="translate(0.99)"/><rect class="g" width="0.247" height="19.961"/></g><g transform="translate(5.59 0.523)"><rect class="g" width="0.247" height="19.961" transform="translate(0.915 0.095) rotate(-22.5)"/><rect class="g" width="0.248" height="19.962" transform="translate(0 0.473) rotate(-22.499)"/></g><g transform="translate(2.486 2.486)"><rect class="g" width="0.247" height="19.961" transform="translate(0.7 0.175) rotate(-45)"/><rect class="g" width="0.247" height="19.961" transform="translate(0 0.875) rotate(-45)"/></g><g transform="translate(0.523 5.589)"><rect class="g" width="0.247" height="19.961" transform="translate(0.379 0.229) rotate(-67.499)"/><rect class="g" width="0.248" height="19.961" transform="translate(0 1.143) rotate(-67.5)"/></g><g transform="translate(0.523 5.59)"><rect class="g" width="19.962" height="0.247" transform="translate(0.379 8.553) rotate(-22.5)"/><rect class="g" width="19.962" height="0.247" transform="translate(0 7.639) rotate(-22.5)"/></g><g transform="translate(2.486 2.486)"><rect class="g" width="19.962" height="0.247" transform="matrix(0.707, -0.707, 0.707, 0.707, 0.7, 14.815)"/><rect class="g" width="19.961" height="0.247" transform="translate(0 14.115) rotate(-45.001)"/></g><g transform="translate(5.59 0.523)"><rect class="g" width="19.962" height="0.247" transform="translate(0.915 18.821) rotate(-67.5)"/><rect class="g" width="19.962" height="0.248" transform="translate(0 18.442) rotate(-67.501)"/></g></g><g transform="translate(37.042 73.575)"><path d="M223,456.981a12.538,12.538,0,1,0,12.538,12.538A12.537,12.537,0,0,0,223,456.981Zm0,22.186a9.649,9.649,0,1,1,9.649-9.649A9.649,9.649,0,0,1,223,479.167Z" transform="translate(-210.283 -456.798)"/><path d="M225.193,460.861a10.847,10.847,0,1,0,10.847,10.847A10.847,10.847,0,0,0,225.193,460.861Zm0,20.5a9.649,9.649,0,1,1,9.649-9.649A9.649,9.649,0,0,1,225.193,481.356Z" transform="translate(-212.472 -458.987)"/><path class="g" d="M225.842,462.012a10.345,10.345,0,1,0,10.345,10.345A10.345,10.345,0,0,0,225.842,462.012Zm0,19.994a9.649,9.649,0,1,1,9.649-9.649A9.649,9.649,0,0,1,225.842,482.006Z" transform="translate(-213.121 -459.636)"/><path class="h" d="M226.349,462.91a9.953,9.953,0,1,0,9.954,9.954A9.954,9.954,0,0,0,226.349,462.91Zm0,19.6A9.649,9.649,0,1,1,236,472.864,9.649,9.649,0,0,1,226.349,482.512Z" transform="translate(-213.628 -460.143)"/><path class="i" d="M246.224,457.544q-.343-.1-.693-.185l-.353,1.319c.234.054.465.115.693.184Z" transform="translate(-229.866 -457.011)"/><path class="i" d="M242.705,456.809c-.234-.038-.471-.07-.71-.095l-.179,1.355c.24.023.476.056.711.094Z" transform="translate(-227.969 -456.647)"/><path class="i" d="M238.41,456.57v1.366c.119,0,.238-.009.359-.009s.239.006.359.009V456.57c-.119,0-.238-.009-.359-.009S238.529,456.567,238.41,456.57Z" transform="translate(-226.048 -456.561)"/><path class="i" d="M234.788,458.164c.234-.038.472-.071.71-.094l-.178-1.355c-.239.024-.475.057-.711.095Z" transform="translate(-223.904 -456.647)"/><path class="i" d="M231.241,458.862c.228-.069.459-.129.693-.184l-.353-1.319q-.35.083-.693.185Z" transform="translate(-221.804 -457.011)"/><path class="i" d="M227.834,460.019c.217-.1.438-.191.662-.275l-.522-1.26q-.336.129-.662.276Z" transform="translate(-219.787 -457.646)"/><path class="i" d="M224.62,461.616c.2-.126.409-.247.62-.36l-.682-1.181c-.211.114-.417.236-.619.361Z" transform="translate(-217.884 -458.543)"/><path class="i" d="M221.657,463.63c.185-.152.376-.3.57-.435l-.829-1.08c-.194.14-.384.285-.569.436Z" transform="translate(-216.129 -459.694)"/><path class="i" d="M219,466.02q.245-.261.507-.507l-.962-.962q-.26.246-.507.507Z" transform="translate(-214.554 -461.069)"/><path class="i" d="M215.6,467.913l1.08.829c.14-.194.284-.384.435-.57l-1.079-.828C215.885,467.528,215.741,467.719,215.6,467.913Z" transform="translate(-213.179 -462.644)"/><path class="i" d="M214.741,471.755c.113-.211.234-.418.36-.62l-1.18-.682c-.126.2-.247.409-.361.62Z" transform="translate(-212.028 -464.398)"/><path class="i" d="M213.229,475.01c.085-.224.177-.445.275-.663l-1.259-.521q-.147.327-.276.662Z" transform="translate(-211.131 -466.301)"/><path class="i" d="M212.162,478.45c.055-.234.116-.465.184-.693l-1.318-.353c-.068.228-.129.459-.185.693Z" transform="translate(-210.496 -468.32)"/><path class="i" d="M211.554,482.014c.024-.24.056-.477.094-.711l-1.355-.179c-.037.235-.07.472-.1.711Z" transform="translate(-210.132 -470.419)"/><path class="i" d="M211.412,485.284c0-.12.006-.239.009-.358h-1.366c0,.119-.009.238-.009.358s.006.239.009.358h1.366C211.418,485.523,211.412,485.4,211.412,485.284Z" transform="translate(-210.046 -472.564)"/><path class="i" d="M210.294,489.222l1.355-.178c-.038-.235-.07-.472-.094-.711l-1.355.178C210.223,488.75,210.256,488.987,210.294,489.222Z" transform="translate(-210.132 -474.486)"/><path class="i" d="M211.028,492.739l1.318-.353c-.069-.229-.129-.46-.184-.694l-1.319.353C210.9,492.279,210.96,492.51,211.028,492.739Z" transform="translate(-210.496 -476.381)"/><path class="i" d="M212.245,496.137l1.259-.522c-.1-.218-.19-.438-.275-.662l-1.26.522C212.055,495.7,212.147,495.919,212.245,496.137Z" transform="translate(-211.131 -478.22)"/><path class="i" d="M213.921,499.357l1.179-.681c-.126-.2-.246-.409-.359-.62l-1.181.682C213.674,498.948,213.8,499.154,213.921,499.357Z" transform="translate(-212.028 -479.971)"/><path class="i" d="M216.036,502.342l1.079-.828c-.151-.186-.3-.376-.435-.57l-1.08.829C215.741,501.966,215.885,502.157,216.036,502.342Z" transform="translate(-213.179 -481.6)"/><path class="i" d="M219,503.574l-.961.962q.246.26.507.507l.962-.961Q219.244,503.836,219,503.574Z" transform="translate(-214.554 -483.084)"/><path class="i" d="M220.83,506.985c.185.151.376.3.569.436l.829-1.08c-.194-.14-.385-.283-.57-.434Z" transform="translate(-216.13 -484.4)"/><path class="i" d="M223.939,509.067c.2.125.409.247.62.361l.682-1.182c-.211-.113-.417-.233-.62-.359Z" transform="translate(-217.884 -485.517)"/><path class="i" d="M227.312,510.749q.326.146.662.276l.522-1.26c-.224-.085-.445-.177-.662-.276Z" transform="translate(-219.787 -486.421)"/><path class="i" d="M230.889,512.006c.228.068.459.129.693.185l.353-1.319c-.234-.054-.465-.115-.693-.184Z" transform="translate(-221.805 -487.098)"/><path class="i" d="M234.61,512.811c.235.037.472.07.711.095l.179-1.355c-.239-.024-.476-.057-.711-.1Z" transform="translate(-223.904 -487.531)"/><path class="i" d="M239.127,513.146v-1.365c-.119,0-.238.008-.359.008s-.239,0-.359-.008v1.365c.119,0,.238.009.359.009S239.008,513.15,239.127,513.146Z" transform="translate(-226.048 -487.714)"/><path class="i" d="M242.527,511.456c-.234.038-.471.071-.711.1l.179,1.355c.239-.024.475-.057.71-.095Z" transform="translate(-227.969 -487.531)"/><path class="i" d="M245.871,510.688c-.228.069-.46.13-.693.184l.353,1.319q.35-.083.693-.185Z" transform="translate(-229.866 -487.098)"/><path class="i" d="M249.1,509.489c-.217.1-.438.191-.662.276l.522,1.26q.335-.129.662-.276Z" transform="translate(-231.706 -486.421)"/><path class="i" d="M252.162,507.887c-.2.126-.409.246-.621.359l.682,1.181c.211-.114.417-.235.62-.361Z" transform="translate(-233.456 -485.517)"/><path class="i" d="M255,505.9c-.185.151-.376.3-.57.435l.829,1.08c.194-.141.384-.285.569-.436Z" transform="translate(-235.085 -484.398)"/><path class="i" d="M257.567,503.574q-.245.261-.507.507l.961.961q.261-.246.507-.507Z" transform="translate(-236.57 -483.084)"/><path class="i" d="M260.9,501.773l-1.08-.829c-.14.194-.284.385-.435.57l1.079.828C260.62,502.156,260.765,501.966,260.9,501.773Z" transform="translate(-237.884 -481.6)"/><path class="i" d="M261.731,498.056c-.113.211-.234.417-.36.62l1.18.681c.125-.2.247-.409.361-.62Z" transform="translate(-239.002 -479.971)"/><path class="i" d="M263.25,494.953c-.085.224-.177.445-.275.662l1.259.521q.146-.326.276-.662Z" transform="translate(-239.907 -478.22)"/><path class="i" d="M264.359,491.692c-.055.234-.115.465-.184.693l1.318.353c.068-.228.129-.459.185-.693Z" transform="translate(-240.584 -476.381)"/><path class="i" d="M265.035,488.33c-.024.24-.056.477-.094.711l1.355.179c.038-.235.07-.472.1-.711Z" transform="translate(-241.016 -474.484)"/><path class="i" d="M265.274,485.284c0,.12-.005.239-.009.358h1.366c0-.119.009-.238.009-.358s-.006-.239-.009-.358h-1.366C265.269,485.045,265.274,485.164,265.274,485.284Z" transform="translate(-241.199 -472.564)"/><path class="i" d="M266.3,481.124l-1.355.179c.038.235.07.472.094.711l1.356-.179C266.366,481.6,266.333,481.359,266.3,481.124Z" transform="translate(-241.016 -470.419)"/><path class="i" d="M265.493,477.4l-1.318.353c.068.228.129.459.184.693l1.319-.353C265.622,477.862,265.561,477.631,265.493,477.4Z" transform="translate(-240.584 -468.319)"/><path class="i" d="M264.234,473.826l-1.259.521c.1.218.191.438.275.663l1.26-.522Q264.382,474.153,264.234,473.826Z" transform="translate(-239.907 -466.301)"/><path class="i" d="M262.912,471.073c-.114-.211-.235-.416-.361-.62l-1.18.682c.126.2.247.409.36.62Z" transform="translate(-239.002 -464.398)"/><path class="i" d="M260.47,467.345l-1.08.828c.151.185.3.376.435.569l1.08-.828Q260.694,467.623,260.47,467.345Z" transform="translate(-237.884 -462.645)"/><path class="i" d="M257.567,466.02l.962-.961q-.246-.261-.507-.507l-.961.962Q257.321,465.759,257.567,466.02Z" transform="translate(-236.57 -461.069)"/><path class="i" d="M255.828,462.551c-.185-.151-.376-.3-.57-.436l-.829,1.08c.194.14.385.284.571.435Z" transform="translate(-235.085 -459.694)"/><path class="i" d="M252.843,460.436c-.2-.126-.409-.247-.62-.361l-.682,1.181c.211.113.418.234.621.36Z" transform="translate(-233.456 -458.543)"/><path class="i" d="M249.622,458.76q-.327-.146-.662-.276l-.522,1.26c.224.085.445.177.662.275Z" transform="translate(-231.705 -457.646)"/></g><rect class="j" width="1.281" height="6.613" transform="translate(19.421 71.562) rotate(-12.25)"/><rect class="h" width="1.281" height="7.61" transform="matrix(0.981, -0.195, 0.195, 0.981, 42.783, 60.196)"/><path d="M238.854,484.081a1.288,1.288,0,1,1-1.288-1.288A1.288,1.288,0,0,1,238.854,484.081Z" transform="translate(-187.803 -397.785)"/><g transform="translate(0 79.429)"><g transform="translate(2.15 2.15)"><g transform="translate(0 7.345)"><rect class="g" width="15.661" height="0.194" transform="translate(0 0.777)"/><rect class="g" width="15.661" height="0.194"/></g><g transform="translate(7.345)"><rect class="g" width="0.194" height="15.661" transform="translate(0.777)"/><rect class="g" width="0.194" height="15.661"/></g><g transform="translate(4.386 0.41)"><rect class="g" width="0.194" height="15.661" transform="translate(0.717 0.074) rotate(-22.5)"/><rect class="g" width="0.194" height="15.661" transform="translate(0 0.371) rotate(-22.499)"/></g><g transform="translate(1.95 1.95)"><rect class="g" width="0.194" height="15.661" transform="translate(0.549 0.137) rotate(-45)"/><rect class="g" width="0.194" height="15.661" transform="matrix(0.707, -0.707, 0.707, 0.707, 0, 0.686)"/></g><g transform="translate(0.41 4.385)"><rect class="g" width="0.194" height="15.661" transform="translate(0.297 0.179) rotate(-67.499)"/><rect class="g" width="0.194" height="15.661" transform="translate(0 0.897) rotate(-67.501)"/></g><g transform="translate(0.41 4.385)"><rect class="g" width="15.662" height="0.194" transform="matrix(0.924, -0.383, 0.383, 0.924, 0.297, 6.711)"/><rect class="g" width="15.662" height="0.194" transform="translate(0 5.993) rotate(-22.499)"/></g><g transform="translate(1.95 1.95)"><rect class="g" width="15.662" height="0.194" transform="translate(0.549 11.624) rotate(-45)"/><rect class="g" width="15.661" height="0.194" transform="translate(0 11.074) rotate(-45.001)"/></g><g transform="translate(4.386 0.41)"><rect class="g" width="15.662" height="0.194" transform="matrix(0.383, -0.924, 0.924, 0.383, 0.717, 14.767)"/><rect class="g" width="15.661" height="0.194" transform="translate(0 14.469) rotate(-67.501)"/></g></g><g transform="translate(0 0)"><path d="M135.223,470.322a9.837,9.837,0,1,0,9.837,9.837A9.837,9.837,0,0,0,135.223,470.322Zm0,17.407a7.57,7.57,0,1,1,7.57-7.57A7.57,7.57,0,0,1,135.223,487.729Z" transform="translate(-125.242 -470.179)"/><path d="M136.94,473.366a8.51,8.51,0,1,0,8.51,8.51A8.51,8.51,0,0,0,136.94,473.366Zm0,16.08a7.57,7.57,0,1,1,7.57-7.57A7.57,7.57,0,0,1,136.94,489.446Z" transform="translate(-126.959 -471.896)"/><path class="g" d="M137.45,474.27a8.116,8.116,0,1,0,8.117,8.116A8.116,8.116,0,0,0,137.45,474.27Zm0,15.686a7.57,7.57,0,1,1,7.57-7.57A7.57,7.57,0,0,1,137.45,489.956Z" transform="translate(-127.469 -472.406)"/><path class="h" d="M137.847,474.974a7.809,7.809,0,1,0,7.809,7.809A7.809,7.809,0,0,0,137.847,474.974Zm0,15.379a7.57,7.57,0,1,1,7.57-7.57A7.57,7.57,0,0,1,137.847,490.353Z" transform="translate(-127.867 -472.803)"/><path class="i" d="M153.441,470.764c-.18-.054-.361-.1-.544-.145l-.277,1.035c.184.043.365.09.544.144Z" transform="translate(-140.607 -470.346)"/><path class="i" d="M150.681,470.187c-.184-.029-.37-.055-.558-.075l-.14,1.064c.188.018.373.044.557.074Z" transform="translate(-139.119 -470.06)"/><path class="i" d="M147.31,470v1.072c.094,0,.187-.007.282-.007s.188,0,.282.007V470c-.094,0-.187-.007-.282-.007S147.4,470,147.31,470Z" transform="translate(-137.611 -469.993)"/><path class="i" d="M144.468,471.25c.184-.03.37-.055.557-.074l-.14-1.064c-.188.02-.374.045-.558.075Z" transform="translate(-135.929 -470.06)"/><path class="i" d="M141.686,471.8c.179-.054.36-.1.544-.144l-.277-1.035c-.183.044-.365.092-.543.145Z" transform="translate(-134.282 -470.346)"/><path class="i" d="M139.012,472.706c.17-.077.343-.15.52-.216l-.409-.988c-.176.067-.349.139-.52.216Z" transform="translate(-132.699 -470.844)"/><path class="i" d="M136.491,473.958c.159-.1.321-.194.486-.283l-.535-.927c-.165.09-.327.185-.486.283Z" transform="translate(-131.205 -471.548)"/><path class="i" d="M134.166,475.539c.145-.118.3-.232.447-.342l-.65-.847c-.152.11-.3.224-.446.342Z" transform="translate(-129.829 -472.451)"/><path class="i" d="M132.08,477.414q.193-.205.4-.4l-.754-.755q-.2.194-.4.4Z" transform="translate(-128.593 -473.529)"/><path class="i" d="M129.414,478.9l.847.65c.11-.153.223-.3.342-.447l-.847-.65Q129.579,478.67,129.414,478.9Z" transform="translate(-127.515 -474.765)"/><path class="i" d="M128.74,481.914c.089-.166.184-.328.282-.487l-.926-.535c-.1.159-.194.321-.283.486Z" transform="translate(-126.611 -476.142)"/><path class="i" d="M127.553,484.468c.066-.176.139-.349.216-.52l-.988-.409c-.077.171-.149.344-.217.52Z" transform="translate(-125.907 -477.635)"/><path class="i" d="M126.717,487.166c.043-.183.091-.365.144-.544l-1.034-.278c-.054.179-.1.36-.145.544Z" transform="translate(-125.409 -479.218)"/><path class="i" d="M126.239,489.963c.019-.188.044-.374.074-.558l-1.063-.14c-.029.184-.055.37-.074.558Z" transform="translate(-125.124 -480.866)"/><path class="i" d="M126.128,492.528c0-.094,0-.187.007-.281h-1.072c0,.094-.007.187-.007.281s0,.187.007.281h1.072C126.132,492.715,126.128,492.623,126.128,492.528Z" transform="translate(-125.056 -482.548)"/><path class="i" d="M125.251,495.618l1.063-.14c-.03-.184-.055-.371-.074-.558l-1.063.14C125.2,495.248,125.221,495.433,125.251,495.618Z" transform="translate(-125.124 -484.056)"/><path class="i" d="M125.827,498.377l1.034-.277c-.054-.18-.1-.361-.144-.544l-1.035.277C125.726,498.017,125.774,498.2,125.827,498.377Z" transform="translate(-125.409 -485.543)"/><path class="i" d="M126.782,501.044l.988-.409c-.077-.171-.15-.344-.216-.52l-.988.409Q126.667,500.788,126.782,501.044Z" transform="translate(-125.908 -486.987)"/><path class="i" d="M128.1,503.57l.926-.534c-.1-.159-.194-.321-.282-.487l-.927.535C127.9,503.249,128,503.411,128.1,503.57Z" transform="translate(-126.611 -488.36)"/><path class="i" d="M129.756,505.912l.846-.649c-.119-.145-.231-.295-.341-.447l-.847.65C129.524,505.617,129.638,505.766,129.756,505.912Z" transform="translate(-127.515 -489.638)"/><path class="i" d="M132.08,506.878l-.754.755q.193.2.4.4l.754-.755Q132.273,507.084,132.08,506.878Z" transform="translate(-128.593 -490.802)"/><path class="i" d="M133.517,509.554q.218.177.447.342l.65-.848c-.152-.11-.3-.222-.447-.341Z" transform="translate(-129.829 -491.835)"/><path class="i" d="M135.957,511.188c.159.1.321.193.486.283l.535-.927c-.166-.089-.327-.183-.486-.282Z" transform="translate(-131.206 -492.711)"/><path class="i" d="M138.6,512.507c.171.077.344.149.52.217l.409-.988c-.176-.067-.349-.139-.52-.217Z" transform="translate(-132.699 -493.42)"/><path class="i" d="M141.409,513.494q.269.08.543.145l.277-1.035c-.183-.043-.365-.09-.544-.144Z" transform="translate(-134.282 -493.951)"/><path class="i" d="M144.329,514.125c.184.03.37.055.558.074l.14-1.063c-.187-.019-.374-.044-.558-.074Z" transform="translate(-135.929 -494.291)"/><path class="i" d="M147.873,514.388v-1.071c-.094,0-.187.006-.282.006s-.188,0-.282-.006v1.071c.094,0,.187.007.282.007S147.779,514.391,147.873,514.388Z" transform="translate(-137.611 -494.435)"/><path class="i" d="M150.54,513.062c-.183.03-.37.056-.557.074l.14,1.063c.187-.019.373-.045.558-.074Z" transform="translate(-139.119 -494.291)"/><path class="i" d="M153.164,512.46c-.179.054-.36.1-.544.144l.277,1.035c.183-.044.365-.092.544-.146Z" transform="translate(-140.607 -493.951)"/><path class="i" d="M155.7,511.519c-.171.077-.343.15-.52.217l.409.988q.263-.1.52-.217Z" transform="translate(-142.05 -493.42)"/><path class="i" d="M158.1,510.262c-.159.1-.321.193-.487.282l.535.927c.165-.09.327-.185.486-.283Z" transform="translate(-143.423 -492.711)"/><path class="i" d="M160.326,508.706c-.145.119-.3.232-.447.342l.65.847c.152-.11.3-.224.446-.342Z" transform="translate(-144.702 -491.834)"/><path class="i" d="M162.34,506.878q-.192.2-.4.4l.754.754q.2-.193.4-.4Z" transform="translate(-145.866 -490.802)"/><path class="i" d="M164.96,505.465l-.847-.65c-.11.152-.223.3-.341.447l.846.649C164.736,505.766,164.849,505.617,164.96,505.465Z" transform="translate(-146.898 -489.638)"/><path class="i" d="M165.607,502.549c-.089.166-.184.327-.282.487l.926.534c.1-.159.194-.321.283-.486Z" transform="translate(-147.774 -488.36)"/><path class="i" d="M166.8,500.115c-.066.176-.139.349-.216.52l.988.409q.115-.256.217-.519Z" transform="translate(-148.484 -486.987)"/><path class="i" d="M167.669,497.556c-.043.183-.091.365-.144.544l1.034.277c.054-.179.1-.36.145-.543Z" transform="translate(-149.015 -485.543)"/><path class="i" d="M168.2,494.918c-.019.188-.044.374-.074.558l1.063.14c.03-.184.055-.37.075-.558Z" transform="translate(-149.355 -484.055)"/><path class="i" d="M168.387,492.528c0,.095,0,.187-.007.281h1.072c0-.094.007-.187.007-.281s0-.187-.007-.281H168.38C168.383,492.341,168.387,492.434,168.387,492.528Z" transform="translate(-149.498 -482.548)"/><path class="i" d="M169.189,489.265l-1.063.14c.03.185.055.37.074.558l1.063-.14C169.244,489.635,169.219,489.449,169.189,489.265Z" transform="translate(-149.355 -480.866)"/><path class="i" d="M168.559,486.345l-1.034.278c.054.179.1.36.144.544l1.035-.278C168.66,486.705,168.612,486.524,168.559,486.345Z" transform="translate(-149.015 -479.218)"/><path class="i" d="M167.571,483.539l-.988.409c.077.171.15.344.216.52l.988-.409C167.721,483.883,167.648,483.71,167.571,483.539Z" transform="translate(-148.484 -477.635)"/><path class="i" d="M166.534,481.378c-.09-.165-.185-.327-.283-.486l-.926.535c.1.16.194.321.282.487Z" transform="translate(-147.774 -476.142)"/><path class="i" d="M164.618,478.453l-.847.65c.119.145.231.295.341.446l.847-.65C164.849,478.748,164.736,478.6,164.618,478.453Z" transform="translate(-146.898 -474.766)"/><path class="i" d="M162.34,477.414l.755-.754q-.194-.2-.4-.4l-.755.755Q162.147,477.21,162.34,477.414Z" transform="translate(-145.866 -473.53)"/><path class="i" d="M160.976,474.693c-.146-.119-.3-.232-.447-.343l-.65.847c.152.11.3.223.447.342Z" transform="translate(-144.702 -472.451)"/><path class="i" d="M158.634,473.032c-.16-.1-.321-.194-.486-.283l-.535.927c.166.089.328.184.487.283Z" transform="translate(-143.423 -471.548)"/><path class="i" d="M156.107,471.718c-.171-.077-.343-.149-.52-.217l-.409.989c.177.066.349.139.52.216Z" transform="translate(-142.05 -470.844)"/></g><path d="M144.875,487.651l.313-.22.246.293.359-.131.161.347.381-.034.066.377.377.066-.034.381.347.161-.131.36.293.246-.219.313.219.313-.293.246.131.359-.347.161.034.381-.377.066-.066.377-.381-.033-.161.347-.359-.131-.246.293-.313-.219-.313.219-.246-.293-.359.131-.162-.347-.381.033-.066-.377-.377-.066.034-.381-.347-.161.131-.359-.293-.246.219-.313-.219-.313.293-.246-.131-.36.347-.161-.034-.381.377-.066.066-.377.381.034.162-.347.359.131.246-.293Z" transform="translate(-134.895 -479.831)"/></g><g transform="translate(24.777 68.013)"><path class="k" d="M182.728,465.472a.824.824,0,0,1-.589-1.4l19.574-20.024a.824.824,0,1,1,1.178,1.151l-19.574,20.024A.822.822,0,0,1,182.728,465.472Z" transform="translate(-181.904 -443.799)"/><path class="k" d="M202.3,444.623l.576-.588h0a.823.823,0,0,0-1.165.013L182.14,464.072a.823.823,0,0,0,.01,1.16l.579-.584Z" transform="translate(-181.905 -443.799)"/></g><g transform="translate(9.204 68.013)"><path class="k" d="M147,466.056a.824.824,0,0,1-.628-1.356l11.863-9.531a.826.826,0,0,1,.525-.285l23.285-11.078a.824.824,0,1,1,.206,1.634L159.28,456.478l-11.656,9.287A.822.822,0,0,1,147,466.056Z" transform="translate(-146.173 -443.8)"/><path class="j" d="M158.859,455.7l23.285-11.078.816-.109a.824.824,0,0,0-.919-.709l-23.285,11.078a.825.825,0,0,0-.525.285L146.368,464.7a.823.823,0,0,0,.1,1.161.141.141,0,0,0,.016.012l.516-.64Z" transform="translate(-146.173 -443.8)"/></g><g transform="translate(9.204 77.315)"><path class="k" d="M162.57,477.513a.827.827,0,0,1-.13-.01l-15.573.584a.824.824,0,1,1,.261-1.627l14.382-.775-3.84-9.544a.824.824,0,0,1,1.61-.349l4.1,10.722a.824.824,0,0,1-.8,1Z" transform="translate(-146.173 -465.143)"/><path class="j" d="M147.017,477.3l15.573-.585-4.1-10.722-.165-.806h-.01a.823.823,0,0,0-.63.979l3.84,9.544-14.382.775a.822.822,0,0,0-.938.663Z" transform="translate(-146.193 -465.166)"/></g><g transform="translate(43.136 61.901)"><path class="k" d="M230.657,454.995a.821.821,0,0,1-.652-.32l-1.53-1.977a.828.828,0,0,1-.156-.345l-4.273-21.594a.824.824,0,1,1,1.616-.319l4.235,21.4,1.411,1.823a.824.824,0,0,1-.651,1.328Z" transform="translate(-224.03 -429.776)"/><path class="j" d="M230.657,455.015a.821.821,0,0,0,.5-.173l-2.034-2.628-3.316-16.789-1.111-5.614h-.005a.824.824,0,0,0-.649.968l4.273,21.594a.829.829,0,0,0,.156.345l1.53,1.976A.821.821,0,0,0,230.657,455.015Z" transform="translate(-224.03 -429.796)"/></g><g transform="translate(20.946 86.301)"><path d="M183.364,489.9a.332.332,0,0,1-.028-.08.346.346,0,0,1,.263-.412l3.471-.764a.346.346,0,1,1,.149.676l-3.471.763A.345.345,0,0,1,183.364,489.9Z" transform="translate(-178.876 -487.385)"/><path d="M192.332,488.723a.462.462,0,0,1-.461.461h-1.288a.46.46,0,1,1,0-.92h1.288A.462.462,0,0,1,192.332,488.723Z" transform="translate(-182.71 -487.173)"/><path class="h" d="M190.27,488.493h2.081a.46.46,0,0,0-.4-.23h-1.288A.46.46,0,0,0,190.27,488.493Z" transform="translate(-182.793 -487.173)"/><path class="l" d="M181.5,485.761a2.192,2.192,0,1,0,2.192,2.192A2.192,2.192,0,0,0,181.5,485.761Zm-1.347.957a.439.439,0,1,1,.027.62A.438.438,0,0,1,180.152,486.718Zm.154,2.071a.439.439,0,1,1,.287-.551A.439.439,0,0,1,180.306,488.789Zm1.32.615a.439.439,0,1,1-.333-.524A.439.439,0,0,1,181.626,489.4Zm.079-2.377a.439.439,0,1,1,.524-.333A.439.439,0,0,1,181.7,487.026Zm1.141,2.163a.439.439,0,1,1-.026-.621A.439.439,0,0,1,182.845,489.189Zm.11-1.233a.439.439,0,1,1,.287-.55A.439.439,0,0,1,182.955,487.955Z" transform="translate(-176.608 -485.761)"/><path class="l" d="M184.148,489.961a.641.641,0,1,1-.642-.642A.641.641,0,0,1,184.148,489.961Z" transform="translate(-178.616 -487.768)"/><path d="M175.2,491.7a.323.323,0,0,1-.028-.08.345.345,0,0,1,.263-.412l3.471-.764a.346.346,0,1,1,.149.675l-3.471.764A.345.345,0,0,1,175.2,491.7Z" transform="translate(-174.271 -488.397)"/><path d="M175.325,492.158a.462.462,0,0,1-.461.461h-1.288a.46.46,0,1,1,0-.921h1.288A.462.462,0,0,1,175.325,492.158Z" transform="translate(-173.115 -489.11)"/><path class="h" d="M173.263,491.928h2.081a.46.46,0,0,0-.4-.23H173.66A.46.46,0,0,0,173.263,491.928Z" transform="translate(-173.198 -489.11)"/></g><path d="M239.111,485.208a.417.417,0,1,1-.418-.417A.417.417,0,0,1,239.111,485.208Z" transform="translate(-188.931 -398.912)"/><rect class="i" width="2.237" height="0.943" transform="matrix(0.977, -0.215, 0.215, 0.977, 20.235, 77.568)"/><rect class="i" width="2.237" height="0.943" transform="translate(42.716 62.087) rotate(-10.966)"/><path d="M164.563,449.7a3.732,3.732,0,0,0-.826,1.657c-.115.687-.088,2.482,2.34,2.663,2.074.155,3.037-1.215,4.512-1.481,1.541-.278,4.119-.833,3.755-2.715a41.94,41.94,0,0,1-5.8.37A24.4,24.4,0,0,1,164.563,449.7Z" transform="translate(-146.858 -379.118)"/><path class="i" d="M164.775,449.7a3.983,3.983,0,0,0-.7,1.18c1.862.479,5.276.8,10.513-.711a1.83,1.83,0,0,0-.034-.345,41.94,41.94,0,0,1-5.8.37A24.4,24.4,0,0,1,164.775,449.7Z" transform="translate(-147.07 -379.118)"/><path class="i" d="M224.442,423.488l-.017-1.281.009.641-.011-.641a4.8,4.8,0,0,0,3.272-1.63l.984.82A6.023,6.023,0,0,1,224.442,423.488Z" transform="translate(-181.115 -362.685)"/><path d="M1.006,0h0A1.007,1.007,0,0,1,2.013,1.007v.244A1.006,1.006,0,0,1,1.007,2.257h0A1.007,1.007,0,0,1,0,1.25V1.006A1.006,1.006,0,0,1,1.006,0Z" transform="matrix(0.979, -0.203, 0.203, 0.979, 42.196, 59.163)"/><ellipse cx="1.167" cy="1.167" rx="1.167" ry="1.167" transform="translate(45.858 57.165)"/><path class="h" d="M232.809,420.956a.488.488,0,1,1-.488-.488A.488.488,0,0,1,232.809,420.956Z" transform="translate(-185.296 -362.624)"/><path class="m" d="M184.862,391.379c1.779-.743,6.446,8.314,6.446,8.314l-4.046,4.444S179.017,393.821,184.862,391.379Z" transform="translate(-157.615 -346.188)"/><path class="f" d="M187.119,397.281a14.5,14.5,0,0,1-.855-5.275c-.545-.513-1.035-.781-1.4-.627-5.846,2.442,2.4,12.758,2.4,12.758l2.108-2.315A15.326,15.326,0,0,1,187.119,397.281Z" transform="translate(-157.615 -346.189)"/><path class="f" d="M191.7,414l-.861-1.221,4.715-4.873.515,1.054Z" transform="translate(-162.167 -355.536)"/><path class="m" d="M174.113,392.841c.965-2.043-3.132-6.039-6.92-2.6-3.481,3.161-8.426,15.032-5.982,21.661,4.473,1.281,8-4.206,12.93-3.485C172.083,405.587,170.547,400.392,174.113,392.841Z" transform="translate(-145.085 -344.811)"/><path class="d" d="M180.55,385.7l1.74-3.632,2.977,1.873-1.54,3.726Z" transform="translate(-156.364 -340.958)"/><path class="f" d="M167.193,391.981c-3.481,3.161-8.426,15.032-5.982,21.661,2.651.76,4.434-1.719,6.925-2.792C165.8,404.8,167.193,391.981,167.193,391.981Z" transform="translate(-145.085 -346.552)"/><path class="a" d="M171.476,442.007H163.99a3.9,3.9,0,0,1-2.681-1.046,4.682,4.682,0,0,1-1.725-4.3c.606-2.737,7.533-2.661,9.221-2.6a3.881,3.881,0,0,1,.7.091l3.266.721a3.524,3.524,0,0,1,2.505,3.743,3.371,3.371,0,0,1-2.879,3.362C172.11,441.995,171.8,442.007,171.476,442.007Z" transform="translate(-144.488 -370.279)"/><path class="b" d="M169.081,439.843c-4.31-.442-7.762-1.807-8.22-3.168a2.326,2.326,0,0,0-1.277,1.47,4.685,4.685,0,0,0,1.729,4.307,3.884,3.884,0,0,0,2.672,1.042h7.492c.326,0,.634-.012.925-.034a3.371,3.371,0,0,0,2.879-3.362,4.063,4.063,0,0,0,0-.438A21.008,21.008,0,0,1,169.081,439.843Z" transform="translate(-144.488 -371.767)"/><path class="n" d="M183.675,443.181H186.2a3.307,3.307,0,0,0,2.754-3.972c-.2-1.3-1.038-3.1-2.312-3.178C185.476,435.961,182.218,437.96,183.675,443.181Z" transform="translate(-157.919 -371.403)"/><path class="d" d="M183.657,445.141s2.393.453,3.023-.176c.454-.454.752-1.507.3-1.847a14.957,14.957,0,0,0-2.9-.842A6.433,6.433,0,0,0,183.657,445.141Z" transform="translate(-158.111 -374.926)"/><path class="d" d="M182.8,445.936l-6.066,17.82-.6-.12,4.025-18.131a2.494,2.494,0,0,1,1.232-1.549c.613-.332,1.169-.269,1.34.156A2.639,2.639,0,0,1,182.8,445.936Z" transform="translate(-153.876 -375.755)"/><path class="d" d="M219.668,426.541c.391-.117.788-.357.77-.518-.017-.14-.313.04-.591.082-.246.038-.333.055-.332-.008a2.829,2.829,0,0,1,.659-.284c.433-.167.7-.342.676-.5s-.291.024-.689.13c-.347.1-.5.159-.526,0-.017-.073.1-.092.431-.3.384-.233.206-.467-.255-.262-.612.276-.5.326-.867.231-.341-.09-1.471.708-1.372,1.175C217.717,426.969,218.424,426.911,219.668,426.541Z" transform="translate(-177.246 -365.071)"/><path class="d" d="M186.917,419.73a6.741,6.741,0,0,0,2.9,4c1.354.837,12.068-1.141,12.068-1.141l-.133-.853s-9.214.958-10.581.036-2.247-3.75-2.247-3.75Z" transform="translate(-159.956 -361.241)"/><path class="m" d="M177.443,395.934c1.779-.746,7.47,9.156,7.47,9.156l-5.766,2.9S174.3,397.252,177.443,395.934Z" transform="translate(-154.014 -348.76)"/><path class="f" d="M179.6,403.256c-1.952-2.459-2.972-5.044-2.662-6.446-2.043,2.276,2.208,11.7,2.208,11.7l3.77-1.813A31.554,31.554,0,0,1,179.6,403.256Z" transform="translate(-154.014 -349.277)"/><path class="f" d="M173.539,490.039h2.747s-1-1.287-1.532-1.247S173.539,490.039,173.539,490.039Z" transform="translate(-152.408 -401.169)"/><path class="f" d="M182.457,420.019l-.227-1.475,6.091-2.308v1.173Z" transform="translate(-157.312 -360.236)"/><path class="o" d="M188.957,300.56c-1.746-3.753-7.076-3.539-7.076-3.539s-.438-4.062-5.2-8.081-12.206,3.412-12.206,3.412-5.2-7.751-14.36-.74c-9.7,7.427-1.341,16.49-1.341,16.49s-5.334,1.489-5.747,8.933,3.845,12.835,14.866,12.059l20.45-9.618C188.253,321.37,190.7,304.311,188.957,300.56Z" transform="translate(-135.181 -287.748)"/><path class="p" d="M185.253,320.221c-8.7,6.159-21.874,2.51-29.421-8.151a26.574,26.574,0,0,1-5.066-16.536c-.214.151-.429.3-.648.471-9.7,7.427-1.341,16.49-1.341,16.49s-5.334,1.489-5.747,8.933,3.845,12.835,14.866,12.059l20.45-9.618c4.125.789,6.956-1.709,8.731-5.163A15.95,15.95,0,0,1,185.253,320.221Z" transform="translate(-135.181 -292.14)"/><path class="d" d="M172.791,344.932c4.787,1.527,14.242,2.978,19.148-9.913,5.065-13.3-.855-19.857-8.6-22.678-7.9-2.878-16.41-1.263-20.43,11.983C159.015,337.157,167.946,343.387,172.791,344.932Z" transform="translate(-145.871 -300.94)"/><path class="p" d="M156.015,338.843c5.2-6.443,5.05-11.788,4.926-13.855s17.68-13.484,11.081-16.344-27.562,12.138-20.082,22.625A56.146,56.146,0,0,1,156.015,338.843Z" transform="translate(-139.326 -299.336)"/><path class="d" d="M172.242,343.97c-.941-3.428-3.328-4.3-4.677-1.647s.5,6.669,2.319,6.461S172.936,346.495,172.242,343.97Z" transform="translate(-148.776 -317.659)"/><path class="q" d="M172.754,348.993c-.516-1.878-1.824-2.357-2.563-.9s.273,3.652,1.27,3.539S173.134,350.376,172.754,348.993Z" transform="translate(-150.377 -321.31)"/><path class="d" d="M174.106,353.016c-.078-1.226-.825-1.69-1.467-.885s-.3,2.292.332,2.35S174.164,353.919,174.106,353.016Z" transform="translate(-151.706 -323.844)"/><path class="o" d="M178.234,316.1c3.206-4.49,5.905-9.73,2.819-11.933s-10.788-.534-13.994,3.956-3.3,9.917-.217,12.12S175.028,320.592,178.234,316.1Z" transform="translate(-147.36 -296.467)"/><g transform="translate(28.835 22.954)"><path class="p" d="M218.027,358.837c.847-2.146.368-4.151-1.065-4.472s-3.285,1.149-4.134,3.3.72,2.57,2.155,2.894S217.18,360.981,218.027,358.837Z" transform="translate(-203.274 -348.259)"/><path class="p" d="M197.832,350.277c1.013-2.362.513-4.6-1.115-4.994s-3.77,1.2-4.784,3.561.377,2.808,2,3.2S196.817,352.639,197.832,350.277Z" transform="translate(-191.426 -343.127)"/><path class="r" d="M217.785,359.811c.777-1.964.239-3.817-1.195-4.142s-3.228,1-4,2.964.328,2.115,1.634,2.771C215.708,362.15,217.011,361.773,217.785,359.811Z" transform="translate(-203.127 -348.992)"/><path class="r" d="M197.419,351.3c.926-2.16.357-4.231-1.272-4.627s-3.7,1.036-4.625,3.194.408,2.311,1.917,3.054S196.489,353.46,197.419,351.3Z" transform="translate(-191.215 -343.907)"/><path class="q" d="M202.426,369.969c-.618-.419-.828-1.043-.566-1.481a.926.926,0,0,0-.357.212c-.431.441-.212,1.174.481,1.644a1.681,1.681,0,0,0,2.028.064.632.632,0,0,0,.084-.159A1.912,1.912,0,0,1,202.426,369.969Z" transform="translate(-196.895 -356.252)"/><path class="s" d="M219.681,364.817c.368-.715.2-1.449-.38-1.643a1.584,1.584,0,0,0-1.717.946c-.371.715-.206,1.454.376,1.648A1.594,1.594,0,0,0,219.681,364.817Z" transform="translate(-205.98 -353.228)"/><path class="s" d="M199.839,356.514c.335-.82.049-1.611-.637-1.768a1.787,1.787,0,0,0-1.85,1.2c-.333.822-.05,1.61.635,1.766A1.785,1.785,0,0,0,199.839,356.514Z" transform="translate(-194.599 -348.484)"/><path class="t" d="M200.182,357.567c.123-.3.018-.6-.236-.655a.663.663,0,0,0-.686.447c-.124.3-.018.6.235.653A.661.661,0,0,0,200.182,357.567Z" transform="translate(-195.724 -349.716)"/><path class="t" d="M220.036,365.692c.137-.265.076-.534-.141-.607a.584.584,0,0,0-.634.349c-.138.265-.076.539.137.608A.587.587,0,0,0,220.036,365.692Z" transform="translate(-206.996 -354.322)"/><g transform="translate(1.788 0)"><path class="p" d="M201.075,342.592a7.506,7.506,0,0,0-5.051-.828.585.585,0,0,1-.674-.393l0-.015a.58.58,0,0,1,.4-.744,8.778,8.778,0,0,1,6.069.864.582.582,0,0,1,.116.882l-.116.129A.578.578,0,0,1,201.075,342.592Z" transform="translate(-195.316 -340.414)"/></g><g transform="translate(13.595 3.186)"><path class="p" d="M225.578,351.236a4.655,4.655,0,0,0-2.738-2.327.587.587,0,0,1-.419-.672l.007-.037a.578.578,0,0,1,.677-.464,5.332,5.332,0,0,1,3.557,3.034.592.592,0,0,1-.245.736l-.005,0A.593.593,0,0,1,225.578,351.236Z" transform="translate(-222.409 -347.724)"/></g></g><path class="u" d="M193.742,371.361c.708,4.011,3.555,4.418,5.064,4.223l.175.146c-1.142.389-5.318.684-5.851-4.878Z" transform="translate(-163.461 -334.632)"/></svg>