<svg xmlns="http://www.w3.org/2000/svg" xmlns:xlink="http://www.w3.org/1999/xlink" width="58.471" height="115.07" viewBox="0 0 58.471 115.07"><defs><style>.a{fill:none;}.b{clip-path:url(#a);}.c{fill:#a3a3a3;}.aa,.ad,.ae,.ah,.ak,.an,.ao,.ar,.au,.d,.j,.y{opacity:0.2;}.aa,.ad,.ae,.ah,.ak,.an,.ao,.ar,.au,.d,.j,.l,.y{mix-blend-mode:multiply;}.aa,.ad,.ae,.ah,.ak,.an,.ao,.ar,.au,.d,.j,.k,.l,.r,.y,.z{isolation:isolate;}.d{fill:url(#b);}.e{fill:url(#c);}.f{fill:url(#d);}.g{fill:url(#e);}.h{fill:url(#f);}.i{fill:url(#g);}.j{fill:url(#h);}.k,.l,.r,.z{opacity:0.5;}.k,.r,.z{mix-blend-mode:color-dodge;}.k{fill:url(#i);}.l{fill:url(#j);}.m{fill:url(#k);}.n{fill:url(#l);}.o{fill:url(#m);}.p{fill:url(#n);}.q{fill:#e8ff5c;}.r{fill:url(#p);}.s{fill:url(#q);}.t{fill:url(#r);}.u{fill:url(#s);}.v{fill:url(#t);}.w{fill:url(#u);}.x{fill:url(#v);}.y{fill:url(#w);}.z{fill:url(#x);}.aa{fill:url(#z);}.ab{fill:url(#aa);}.ac{fill:url(#ab);}.ad{fill:url(#ac);}.ae{fill:url(#ad);}.af{fill:url(#ae);}.ag{fill:url(#af);}.ah{fill:url(#ah);}.ai{fill:url(#ai);}.aj{fill:url(#aj);}.ak{fill:url(#al);}.al{fill:url(#am);}.am{fill:url(#an);}.an{fill:url(#ao);}.ao{fill:url(#ap);}.ap{fill:url(#aq);}.aq{fill:url(#ar);}.ar{fill:url(#at);}.as{fill:url(#au);}.at{fill:url(#av);}.au{fill:url(#ax);}.av{fill:url(#ay);}.aw{fill:url(#az);}.ax{fill:#c71a20;}.ay{fill:#b5181d;}.az{fill:#9c1519;}.ba{fill:#fcc57b;}.bb{fill:#ffae85;}.bc{fill:#7d74aa;}.bd{fill:#ffedd7;}.be{fill:#f9d0af;}.bf{fill:#645d9b;}.bg{fill:#ed83ae;}.bh{fill:#d66397;}.bi{fill:#938bcc;}.bj{fill:#893d23;}.bk{fill:#fff9e9;}.bl{fill:#2e2c23;}.bm{fill:#ef8f6f;}.bn{fill:#952c23;}</style><clipPath id="a"><path class="a" d="M160,589.4c6.52-10.186,16.923-14.542,20.1-8.551,1.177,2.22.329,3.911,1.6,7.723,2.578,7.759,7.628,5.374,10.21,10.758,3.562,7.426-3.224,17.843-2.393,37.79.656,15.755,6.207,17.4,4.607,26.624-2.4,13.821-1.887,22.282-12.6,27.688-7.39,3.729-22.337,1.248-26.146-4.661-3.7-5.743-.3-13.588-1.116-39.446-.681-21.674-3.469-28.932-.479-42.2A50.883,50.883,0,0,1,160,589.4Z" transform="translate(-152.42 -578.129)"/></clipPath><linearGradient id="b" x1="0.5" y1="1" x2="0.5" gradientUnits="objectBoundingBox"><stop offset="0" stop-color="#d84057"/><stop offset="1" stop-color="#ffa9ba"/></linearGradient><radialGradient id="c" cx="0.5" cy="0.5" r="0.354" gradientTransform="translate(7.334 -0.075) scale(2.016 1.149)" gradientUnits="objectBoundingBox"><stop offset="0" stop-color="#fff9e6"/><stop offset="1" stop-color="#ffbfb1"/></radialGradient><radialGradient id="d" cx="0.521" cy="0.367" r="0.452" gradientTransform="translate(8.07 -0.055) scale(2.016 1.149)" gradientUnits="objectBoundingBox"><stop offset="0" stop-color="#fff9e6"/><stop offset="1" stop-color="#ffe3da"/></radialGradient><radialGradient id="e" cx="0.521" cy="0.367" r="0.452" gradientTransform="translate(24.097 -0.055) scale(2.016 1.149)" xlink:href="#c"/><linearGradient id="f" x1="0.453" y1="1.14" x2="0.518" y2="0.006" gradientUnits="objectBoundingBox"><stop offset="0" stop-color="#ff424a"/><stop offset="1" stop-color="#ff6620"/></linearGradient><linearGradient id="g" x1="-8.206" y1="-5.905" x2="-7.835" y2="-6.892" gradientUnits="objectBoundingBox"><stop offset="0" stop-color="#ff774a"/><stop offset="1" stop-color="#ff9836"/></linearGradient><linearGradient id="h" x1="0.392" y1="0.972" x2="0.596" y2="0.044" gradientUnits="objectBoundingBox"><stop offset="0" stop-color="#fff"/><stop offset="1" stop-color="#9d0057"/></linearGradient><linearGradient id="i" y1="0.5" x2="1" y2="0.5" gradientUnits="objectBoundingBox"><stop offset="0" stop-color="#ffb0ad"/><stop offset="1"/></linearGradient><linearGradient id="j" x1="0" y1="0.5" x2="1" y2="0.5" xlink:href="#h"/><radialGradient id="k" cx="0.5" cy="0.5" r="0.354" gradientTransform="translate(6.739 -0.075) scale(2.016 1.149)" xlink:href="#c"/><radialGradient id="l" cx="0.521" cy="0.367" r="0.452" gradientTransform="translate(7.417 -0.055) scale(2.016 1.149)" xlink:href="#d"/><radialGradient id="m" cx="0.521" cy="0.367" r="0.452" gradientTransform="translate(22.238 -0.055) scale(2.016 1.149)" xlink:href="#c"/><linearGradient id="n" x1="0.453" y1="1.14" x2="0.518" y2="0.005" gradientUnits="objectBoundingBox"><stop offset="0" stop-color="#a2a709"/><stop offset="1" stop-color="#bfeb00"/></linearGradient><linearGradient id="p" x1="0" y1="0.5" x2="1" y2="0.5" xlink:href="#i"/><linearGradient id="q" y1="0.5" x2="1" y2="0.5" gradientUnits="objectBoundingBox"><stop offset="0" stop-color="#a9c200"/><stop offset="1" stop-color="#868c00"/></linearGradient><radialGradient id="r" cx="0.5" cy="0.5" r="0.354" gradientTransform="translate(5.556 -0.075) scale(2.016 1.149)" xlink:href="#c"/><radialGradient id="s" cx="0.521" cy="0.367" r="0.452" gradientTransform="translate(6.121 -0.055) scale(2.016 1.149)" xlink:href="#d"/><radialGradient id="t" cx="0.521" cy="0.367" r="0.452" gradientTransform="translate(18.542 -0.055) scale(2.016 1.149)" xlink:href="#c"/><linearGradient id="u" x1="0.453" y1="1.14" x2="0.518" y2="0.005" gradientUnits="objectBoundingBox"><stop offset="0" stop-color="#ffc56c"/><stop offset="1" stop-color="#ffde77"/></linearGradient><linearGradient id="v" x1="-6.082" y1="-4.373" x2="-5.799" y2="-5.367" gradientUnits="objectBoundingBox"><stop offset="0" stop-color="#ff7"/><stop offset="1" stop-color="#ffff95"/></linearGradient><linearGradient id="w" x1="0.392" y1="0.972" x2="0.596" y2="0.044" xlink:href="#h"/><linearGradient id="x" x1="0" y1="0.5" x2="1" y2="0.5" xlink:href="#i"/><linearGradient id="z" x1="0.086" y1="-2.818" x2="0.086" y2="-3.822" xlink:href="#h"/><radialGradient id="aa" cx="0.521" cy="0.367" r="0.528" gradientTransform="translate(-0.296) scale(1.591 1)" xlink:href="#d"/><linearGradient id="ab" x1="0.5" y1="1" x2="0.5" gradientUnits="objectBoundingBox"><stop offset="0" stop-color="#e4432f"/><stop offset="1" stop-color="#ff6436"/></linearGradient><linearGradient id="ac" x1="0.5" y1="1" x2="0.5" gradientUnits="objectBoundingBox"><stop offset="0" stop-color="#9d0057"/><stop offset="1" stop-color="#fff"/></linearGradient><linearGradient id="ad" x1="-13.309" y1="0.5" x2="-12.16" y2="0.5" xlink:href="#h"/><radialGradient id="ae" cx="0.521" cy="0.367" r="0.528" gradientTransform="translate(-0.296) scale(1.591 1)" xlink:href="#d"/><linearGradient id="af" x1="0.5" y1="1" x2="0.5" gradientUnits="objectBoundingBox"><stop offset="0" stop-color="#3e35d5"/><stop offset="1" stop-color="#4196ff"/></linearGradient><linearGradient id="ah" x1="-13.302" y1="0.5" x2="-12.153" y2="0.5" xlink:href="#h"/><radialGradient id="ai" cx="0.521" cy="0.367" r="0.528" gradientTransform="translate(-0.296) scale(1.591 1)" xlink:href="#d"/><linearGradient id="aj" x1="0.5" y1="1" x2="0.5" gradientUnits="objectBoundingBox"><stop offset="0" stop-color="#ffbe54"/><stop offset="1" stop-color="#ffde59"/></linearGradient><linearGradient id="al" x1="-13.169" y1="0.5" x2="-12.02" y2="0.5" xlink:href="#h"/><radialGradient id="am" cx="0.521" cy="0.367" r="0.528" gradientTransform="translate(-0.296) scale(1.591 1)" xlink:href="#d"/><linearGradient id="an" x1="0.5" y1="1" x2="0.5" y2="0" xlink:href="#n"/><linearGradient id="ao" x1="0.5" y1="1" x2="0.5" y2="0" xlink:href="#ac"/><linearGradient id="ap" x1="-7.783" y1="-5.03" x2="-7.353" y2="-6.096" xlink:href="#h"/><radialGradient id="aq" cx="0.521" cy="0.367" r="0.528" gradientTransform="translate(-0.296) scale(1.591 1)" xlink:href="#d"/><linearGradient id="ar" x1="0.5" y1="1" x2="0.5" y2="0" xlink:href="#f"/><linearGradient id="at" x1="-20.825" y1="0.5" x2="-19.676" y2="0.5" xlink:href="#h"/><radialGradient id="au" cx="0.521" cy="0.367" r="0.528" gradientTransform="translate(-0.296) scale(1.591 1)" xlink:href="#d"/><linearGradient id="av" x1="0.5" y1="1" x2="0.5" y2="0" xlink:href="#n"/><linearGradient id="ax" x1="-20.544" y1="0.5" x2="-19.395" y2="0.5" xlink:href="#h"/><radialGradient id="ay" cx="0.521" cy="0.367" r="0.528" gradientTransform="translate(-0.296) scale(1.591 1)" xlink:href="#d"/><linearGradient id="az" x1="0.5" y1="1" x2="0.5" y2="0" xlink:href="#af"/></defs><g transform="translate(16.485)"><g class="b" transform="translate(0)"><g transform="translate(-3.145 -13.562)"><path class="c" d="M143.652,669.5l46.663,25.471v-143.5l-43.068,18.654Z" transform="translate(-143.652 -547.476)"/><path class="d" d="M171.082,674.873s27.017,8.484,31.92,6.758,4.9-130.154,4.9-130.154v142Z" transform="translate(-161.242 -547.476)"/><g transform="translate(7.567 100.687)"><ellipse class="e" cx="2.469" cy="4.978" rx="2.469" ry="4.978" transform="translate(8.34)"/><path class="f" d="M192.5,826.753c0,2.508-1.008,4.542-2.252,4.542s-2.253-2.033-2.253-4.542,1.008-4.542,2.253-4.542S192.5,824.244,192.5,826.753Z" transform="translate(-179.653 -821.775)"/><path class="g" d="M191.452,832.029c0,.878-.353,1.59-.789,1.59s-.789-.712-.789-1.59.353-1.591.789-1.591S191.452,831.15,191.452,832.029Z" transform="translate(-180.86 -827.051)"/><path class="h" d="M175.419,830.445l-9.269-.615a9.781,9.781,0,0,0,.424,3.992l8.845-.8s.512-.067.52-1.248S175.419,830.445,175.419,830.445Z" transform="translate(-165.616 -826.661)"/><path class="i" d="M166.208,831.747c.117,1.1-.109,2.03-.5,2.072s-.81-.818-.927-1.92.109-2.03.5-2.072S166.091,830.645,166.208,831.747Z" transform="translate(-164.746 -826.658)"/><path class="j" d="M191.74,838.166a7.957,7.957,0,0,0,2.043,3.037l3.112,5.391a2.337,2.337,0,0,1-2.386.412l-2.036-5.044s-1.162-.909-1.343-3.542Z" transform="translate(-181.666 -832.007)"/><path class="k" d="M167.347,831.506s.046-.566.222-.69,8.2.048,8.156-.075-8.624-.83-8.624-.83a1.629,1.629,0,0,1-.522-.032S167.016,830.052,167.347,831.506Z" transform="translate(-165.921 -826.692)"/><path class="l" d="M168.016,834.9s8-.3,8.388-.411.5-1.43.353-1.889c0,0,.557,1.457-.353,2.2l-8.765.777A.9.9,0,0,0,168.016,834.9Z" transform="translate(-166.601 -828.439)"/></g><g transform="translate(26.935 58.679)"><ellipse class="m" cx="2.469" cy="4.978" rx="2.469" ry="4.978" transform="translate(8.34)"/><path class="n" d="M246.487,709.653c0,2.508-1.008,4.542-2.253,4.542s-2.253-2.033-2.253-4.542,1.008-4.542,2.253-4.542S246.487,707.144,246.487,709.653Z" transform="translate(-233.642 -704.675)"/><path class="o" d="M245.441,714.929c0,.878-.353,1.59-.789,1.59s-.789-.712-.789-1.59.353-1.591.789-1.591S245.441,714.05,245.441,714.929Z" transform="translate(-234.849 -709.951)"/><path class="p" d="M229.409,713.346l-9.268-.615a9.779,9.779,0,0,0,.424,3.991l8.845-.8s.512-.067.52-1.247S229.409,713.346,229.409,713.346Z" transform="translate(-219.606 -709.562)"/><path class="q" d="M220.2,714.648c.117,1.1-.108,2.03-.5,2.072s-.81-.818-.928-1.92.109-2.03.5-2.072S220.08,713.546,220.2,714.648Z" transform="translate(-218.735 -709.559)"/><path class="j" d="M245.73,721.066a7.959,7.959,0,0,0,2.043,3.037l3.113,5.391a2.337,2.337,0,0,1-2.386.412l-2.036-5.044s-1.162-.91-1.343-3.542Z" transform="translate(-235.655 -714.907)"/><path class="r" d="M221.336,714.406s.046-.566.222-.689,8.2.048,8.156-.075-8.624-.83-8.624-.83a1.623,1.623,0,0,1-.522-.032S221.005,712.952,221.336,714.406Z" transform="translate(-219.91 -709.592)"/><path class="s" d="M222.005,717.8s8-.3,8.388-.412.5-1.43.353-1.889c0,0,.557,1.456-.353,2.2l-8.765.777A.9.9,0,0,0,222.005,717.8Z" transform="translate(-220.59 -711.339)"/></g><g transform="translate(27.744 85.763)"><ellipse class="t" cx="2.916" cy="5.879" rx="2.916" ry="5.879" transform="translate(9.85)"/><ellipse class="u" cx="2.66" cy="5.364" rx="2.66" ry="5.364" transform="translate(9.85 0.515)"/><ellipse class="v" cx="0.932" cy="1.879" rx="0.932" ry="1.879" transform="translate(10.647 4.001)"/><path class="w" d="M233.6,790.553l-10.947-.726a11.552,11.552,0,0,0,.5,4.715L233.6,793.6s.605-.079.614-1.473S233.6,790.553,233.6,790.553Z" transform="translate(-222.018 -786.084)"/><path class="x" d="M222.717,792.091c.138,1.3-.128,2.4-.6,2.447s-.957-.966-1.1-2.268.128-2.4.595-2.447S222.579,790.79,222.717,792.091Z" transform="translate(-220.99 -786.081)"/><path class="y" d="M252.874,799.672a9.4,9.4,0,0,0,2.413,3.587l3.676,6.367a2.759,2.759,0,0,1-2.818.487l-2.4-5.958s-1.373-1.074-1.586-4.183Z" transform="translate(-240.974 -792.397)"/><path class="z" d="M224.062,791.805s.054-.668.263-.814,9.686.057,9.633-.089-10.186-.98-10.186-.98a1.921,1.921,0,0,1-.616-.039S223.671,790.089,224.062,791.805Z" transform="translate(-222.378 -786.12)"/><path class="l" d="M224.852,795.818s9.449-.359,9.908-.486.586-1.689.418-2.231c0,0,.657,1.72-.418,2.6l-10.353.918A1.063,1.063,0,0,0,224.852,795.818Z" transform="translate(-223.181 -788.183)"/></g><g transform="translate(37.142 125.905)"><path class="aa" d="M252.426,894.7c.211,1.989-.6,3.7-1.8,3.832s-2.358-1.38-2.569-3.368.6-3.7,1.805-3.833S252.215,892.714,252.426,894.7Z" transform="translate(-247.72 -891.314)"/><path class="ab" d="M250.947,894.284c0,1.649-.665,2.991-1.485,2.991a2.923,2.923,0,0,1-2.115-2.055,2.806,2.806,0,0,1-.16-.937c0-1.653,1.459-2.992,2.275-2.992.466,0,.881.432,1.153,1.109v0A5.015,5.015,0,0,1,250.947,894.284Z" transform="translate(-247.187 -891.292)"/><path class="ac" d="M248.635,897.931c0,.457-.226.828-.5.828s-.5-.371-.5-.828.225-.828.5-.828S248.635,897.474,248.635,897.931Z" transform="translate(-247.47 -895.018)"/><path class="ad" d="M251.232,896.274c0,1.649-.665,2.991-1.485,2.991a2.923,2.923,0,0,1-2.115-2.055s1.161,1.93,2.452,1.084c1.261-.825.837-3.76.816-3.9A5.015,5.015,0,0,1,251.232,896.274Z" transform="translate(-247.472 -893.283)"/></g><g transform="translate(31.876 97.699)"><ellipse class="ae" cx="1.351" cy="2.724" rx="1.351" ry="2.724" transform="translate(0.82)"/><path class="af" d="M235.634,815.816c0,1.37-.552,2.486-1.234,2.486a2.429,2.429,0,0,1-1.758-1.708,2.333,2.333,0,0,1-.133-.778,2.577,2.577,0,0,1,1.891-2.486c.387,0,.732.359.958.922v0A4.17,4.17,0,0,1,235.634,815.816Z" transform="translate(-232.509 -813.091)"/><path class="ag" d="M233.713,818.847c0,.38-.187.688-.419.688s-.418-.308-.418-.688.187-.688.418-.688S233.713,818.467,233.713,818.847Z" transform="translate(-232.744 -816.188)"/><path class="ad" d="M235.871,817.471c0,1.37-.552,2.486-1.234,2.486a2.429,2.429,0,0,1-1.758-1.708s.965,1.6,2.038.9c1.048-.685.7-3.125.678-3.239A4.17,4.17,0,0,1,235.871,817.471Z" transform="translate(-232.746 -814.746)"/></g><g transform="translate(32.009 70.584)"><ellipse class="ah" cx="1.351" cy="2.724" rx="1.351" ry="2.724" transform="translate(0.82)"/><path class="ai" d="M236,740.231c0,1.37-.552,2.486-1.234,2.486a2.429,2.429,0,0,1-1.758-1.708,2.334,2.334,0,0,1-.133-.779,2.577,2.577,0,0,1,1.891-2.486c.387,0,.732.359.958.922v0A4.17,4.17,0,0,1,236,740.231Z" transform="translate(-232.877 -737.507)"/><path class="aj" d="M234.081,743.262c0,.38-.187.688-.419.688s-.418-.308-.418-.688.187-.688.418-.688S234.081,742.882,234.081,743.262Z" transform="translate(-233.112 -740.603)"/><path class="ad" d="M236.239,741.886c0,1.37-.552,2.486-1.234,2.486a2.429,2.429,0,0,1-1.758-1.708s.965,1.6,2.038.9c1.047-.685.7-3.125.678-3.239A4.169,4.169,0,0,1,236.239,741.886Z" transform="translate(-233.114 -739.161)"/></g><g transform="translate(34.419 30.181)"><ellipse class="ak" cx="1.351" cy="2.724" rx="1.351" ry="2.724" transform="translate(0.82)"/><path class="al" d="M242.721,627.607c0,1.37-.552,2.486-1.234,2.486a2.429,2.429,0,0,1-1.758-1.708,2.334,2.334,0,0,1-.133-.779,2.577,2.577,0,0,1,1.891-2.486c.387,0,.732.359.958.922v0A4.168,4.168,0,0,1,242.721,627.607Z" transform="translate(-239.596 -624.883)"/><path class="am" d="M240.8,630.638c0,.38-.188.688-.419.688s-.419-.308-.419-.688.187-.688.419-.688S240.8,630.258,240.8,630.638Z" transform="translate(-239.831 -627.979)"/><path class="an" d="M242.958,629.262c0,1.37-.552,2.486-1.234,2.486a2.429,2.429,0,0,1-1.758-1.708s.965,1.6,2.038.9c1.047-.685.7-3.125.678-3.239A4.169,4.169,0,0,1,242.958,629.262Z" transform="translate(-239.833 -626.537)"/></g><g transform="translate(41.683 8.664)"><path class="ao" d="M266.09,568.7c.359,1.9-.129,3.582-1.089,3.764s-2.03-1.209-2.388-3.106.129-3.582,1.089-3.764S265.731,566.8,266.09,568.7Z" transform="translate(-261.544 -565.182)"/><path class="ap" d="M263.574,567.445c0,1.636-.659,2.967-1.473,2.967a2.9,2.9,0,0,1-2.1-2.038,2.791,2.791,0,0,1-.159-.929c0-1.64,1.448-2.967,2.257-2.967.462,0,.874.428,1.143,1.1v0A4.975,4.975,0,0,1,263.574,567.445Z" transform="translate(-259.844 -564.477)"/><path class="aq" d="M261.281,571.062c0,.453-.224.821-.5.821s-.5-.368-.5-.821.223-.821.5-.821S261.281,570.609,261.281,571.062Z" transform="translate(-260.125 -568.173)"/><path class="ad" d="M263.857,569.42c0,1.636-.659,2.967-1.473,2.967a2.9,2.9,0,0,1-2.1-2.038s1.152,1.914,2.432,1.075c1.25-.818.83-3.729.809-3.867A4.975,4.975,0,0,1,263.857,569.42Z" transform="translate(-260.127 -566.452)"/></g><g transform="translate(15.305 91.175)"><path class="ar" d="M189.723,796.342c0,1.028-.414,1.862-.924,1.862s-.923-.834-.923-1.862.414-1.862.923-1.862S189.723,795.314,189.723,796.342Z" transform="translate(-187.316 -794.48)"/><path class="as" d="M188.45,796.634c0,.937-.378,1.7-.844,1.7a1.661,1.661,0,0,1-1.2-1.168,1.6,1.6,0,0,1-.091-.532,1.762,1.762,0,0,1,1.293-1.7c.265,0,.5.245.655.63v0A2.851,2.851,0,0,1,188.45,796.634Z" transform="translate(-186.314 -794.771)"/><path class="at" d="M187.137,798.706c0,.26-.128.47-.286.47s-.286-.21-.286-.47.128-.47.286-.47S187.137,798.447,187.137,798.706Z" transform="translate(-186.475 -796.889)"/><path class="ad" d="M188.613,797.765c0,.937-.378,1.7-.844,1.7a1.661,1.661,0,0,1-1.2-1.168s.66,1.1,1.393.616c.716-.468.476-2.136.464-2.215A2.851,2.851,0,0,1,188.613,797.765Z" transform="translate(-186.476 -795.902)"/></g><g transform="translate(18.789 51.102)"><ellipse class="au" cx="0.924" cy="1.862" rx="0.924" ry="1.862" transform="translate(0.56)"/><path class="av" d="M198.162,684.93c0,.937-.378,1.7-.844,1.7a1.66,1.66,0,0,1-1.2-1.167,1.6,1.6,0,0,1-.091-.532,1.762,1.762,0,0,1,1.293-1.7c.265,0,.5.245.655.63v0A2.849,2.849,0,0,1,198.162,684.93Z" transform="translate(-196.026 -683.067)"/><path class="aw" d="M196.849,687c0,.26-.128.47-.286.47s-.286-.211-.286-.47.128-.47.286-.47S196.849,686.742,196.849,687Z" transform="translate(-196.187 -685.184)"/><path class="ad" d="M198.325,686.061c0,.937-.378,1.7-.844,1.7a1.66,1.66,0,0,1-1.2-1.167s.66,1.1,1.393.616c.716-.469.476-2.136.464-2.215A2.85,2.85,0,0,1,198.325,686.061Z" transform="translate(-196.188 -684.198)"/></g><path class="d" d="M237.654,540.325s-26.806,15.643-27.915,17.285-2.545,45.489-2.545,45.489l-5.451,34.625,2.8,35.46,33.113,21.64-36.823-21.64.725-35.814,4.827-34.408-1.841-47.13Z" transform="translate(-180.319 -540.325)"/></g></g></g><g transform="translate(0 9.14)"><path class="ax" d="M114.754,649.422a17.455,17.455,0,0,1-4.858-15.786s-5.072-4.013-2.879-12.752c0,0-1.444-18.212,12.792-15.783,6.467-4.105,16.85.213,14.546,13.379-1.718,9.81-1.787,24.389-5.2,28.231C126.9,649.246,118.349,653.28,114.754,649.422Z" transform="translate(-106.467 -603.606)"/><path class="ay" d="M120.628,628.428c-6.376-2.788-10.347-8.86-9.778-14.369-4.55,4.494-3.834,13.528-3.834,13.528-2.193,8.74,2.879,12.752,2.879,12.752a17.456,17.456,0,0,0,4.858,15.786c3.595,3.857,12.142-.177,14.4-2.712,3.1-3.485,3.445-15.809,4.765-25.391C130.469,630.235,125.467,630.543,120.628,628.428Z" transform="translate(-106.467 -610.309)"/><path class="az" d="M146.862,684.711a6.436,6.436,0,0,0,.975-1.561c3.232-8.909,6.265-22.325-2.966-20.023-3.918.978-11.519,13.956-10.727,25.436C138.23,690.227,144.908,686.908,146.862,684.711Z" transform="translate(-124.178 -641.607)"/><path class="ba" d="M172.014,777.833l.753-.271.66-29.793-3.561,1.447Z" transform="translate(-147.122 -696.052)"/><path class="bb" d="M172.962,768.761l.465-20.992-3.56,1.447,1.708,22.751A8.438,8.438,0,0,1,172.962,768.761Z" transform="translate(-147.122 -696.052)"/><path class="bc" d="M173.437,828.111l3.437.718a15.806,15.806,0,0,0-2.429-2.274C173.89,826.35,173.437,828.111,173.437,828.111Z" transform="translate(-149.412 -746.564)"/><path class="bd" d="M171.654,767.362l.212,2.192.076.778.485,4.949-6.879,1.867-.781-5.6-.35-2.506-.261-1.866Z" transform="translate(-143.461 -708.501)"/><path class="be" d="M172.332,772.891l-7.45-.507.35,2.506,7.175-1.22Z" transform="translate(-143.926 -711.837)"/><path class="ba" d="M191.8,777.052l.353.711s7.406-10.517,7.193-12.68-9.006-8.946-9.006-8.946l-1.493,2.162s8.014,6.274,8.227,7.407S191.8,777.052,191.8,777.052Z" transform="translate(-159.297 -701.418)"/><path class="bb" d="M197.078,765.706a6.177,6.177,0,0,1-.666,2.09,6.494,6.494,0,0,1,2.857-2.081,1.958,1.958,0,0,0,.081-.633c-.213-2.162-9.006-8.946-9.006-8.946l-1.493,2.162S196.865,764.573,197.078,765.706Z" transform="translate(-159.297 -701.418)"/><path class="bc" d="M193.545,814.105l2.692,3.079a18.842,18.842,0,0,0-.853-3.624C195,812.991,193.545,814.105,193.545,814.105Z" transform="translate(-162.307 -738.138)"/><path class="bd" d="M178.212,757.65s-2.07,5.033-5.015,5.532l-7.752-3.053a40.177,40.177,0,0,0-4.5-.187,3.781,3.781,0,0,1-3.72-2.135,2.665,2.665,0,0,1,.115-2.034,3.533,3.533,0,0,1,2.063-1.338,35.658,35.658,0,0,1,6.665-1.37h.011c1.543-.194,2.665-.283,2.665-.283l1.614.829Z" transform="translate(-138.918 -699.267)"/><path class="be" d="M170.355,753.611l-13.133,4.2a2.665,2.665,0,0,1,.115-2.034,3.533,3.533,0,0,1,2.063-1.338l6.665-1.37h.011c1.543-.194,2.665-.283,2.665-.283Z" transform="translate(-138.918 -699.267)"/><path class="ba" d="M225.065,663.9c.175-.591.217-1.283.018-1.378-.168-.083-.2.434-.369.827-.15.349-.2.471-.27.426a4.623,4.623,0,0,1,.2-1.064c.152-.685.163-1.161-.039-1.247s-.2.394-.391.985c-.166.525-.213.765-.411.688-.093-.031-.013-.4.02-.987.039-.667-.065-1.1-.232-1.109-.237-.011-.084.315-.215,1.064-.169,1-.086,1.284-.48,1.689-.37.376-.425-1.549-.788-1.282-.485.355.429,3.71,1.035,3.926C224.014,666.744,224.507,665.786,225.065,663.9Z" transform="translate(-180.533 -640.435)"/><path class="ba" d="M227.764,716.913c.585-.211,1.172-.585,1.132-.8-.033-.183-.473.1-.893.194-.372.086-.5.12-.506.036a4.694,4.694,0,0,1,.981-.472c.647-.283,1.041-.556.991-.767-.053-.2-.439.073-1.034.27-.526.177-.749.282-.8.078-.029-.093.316-.245.814-.568.566-.362.853-.7.763-.839-.131-.2-.306.12-.992.457-.914.456-1.1.69-1.659.615-.526-.073,1.007-1.253.573-1.385-.578-.177-2.761,2.532-2.576,3.144C224.824,717.755,225.9,717.582,227.764,716.913Z" transform="translate(-182.184 -674.22)"/><path class="ba" d="M189.811,682.459c1.834.143,6.828-.641,7.344-1.066s5.825-8.437,5.825-8.437l.6.352s-4.728,9.147-6.088,10.048-7.479,1.444-7.479,1.444Z" transform="translate(-159.912 -648.078)"/><path class="bb" d="M196.1,697.8c-.06-.076-.108-.16-.161-.24a28.417,28.417,0,0,1-6.131.677l.2,2.34s6.119-.543,7.479-1.444a1.6,1.6,0,0,0,.213-.183A3.713,3.713,0,0,1,196.1,697.8Z" transform="translate(-159.912 -663.856)"/><path class="bc" d="M174.393,697.914l9.024-.513.452,6.087s-6.094-.041-7.339-.744S174.393,697.914,174.393,697.914Z" transform="translate(-150.025 -663.753)"/><path class="bf" d="M185.677,714.767l-1.483-4.467,5.907-.421.166,1.928-4.561-.015Z" transform="translate(-156.31 -671.755)"/><path class="bg" d="M199.045,703.087l-.93.311-1.178-6.927,1.06.182Z" transform="translate(-164.481 -663.156)"/><path class="bh" d="M198.073,703.16l.77,4.528.931-.311-.541-3.319A3.089,3.089,0,0,1,198.073,703.16Z" transform="translate(-165.21 -667.446)"/><path class="bc" d="M164.007,699.345c1.067,1.648,3.2,14.932,3.734,18.228,0,0-9.6,3.913-14.188,4.223,0,0,1.707-9.577,1.707-11.637,0-2.593-1.28-8.238.32-10.4C156.526,698.478,163.167,698.047,164.007,699.345Z" transform="translate(-136.661 -664.496)"/><path class="bg" d="M159.434,699.5c-.682.807,3.728,1.345,5.182.583s-.546-1.7-.546-1.7S160.343,698.424,159.434,699.5Z" transform="translate(-140.387 -664.38)"/><path class="bf" d="M162.046,722.474c-1.483-4.782-3.766-12.683-3.11-14.127.568-1.249-2.921-3.273-3.58-5.425-1.244,2.377-.1,7.575-.1,10.034,0,2.06-1.707,11.637-1.707,11.637A39.766,39.766,0,0,0,162.046,722.474Z" transform="translate(-136.661 -667.294)"/><path class="ba" d="M177.628,720.022c1.355,1.227,5.789,3.649,6.464,3.632s9.929-3.048,9.929-3.048l.252.641s-9.017,4.224-10.659,4.1-7.3-3.374-7.3-3.374Z" transform="translate(-151.254 -678.259)"/><path class="bb" d="M182.84,724.116a1.094,1.094,0,0,1,.155-.847,28.4,28.4,0,0,1-5.366-3.247l-1.319,1.952s5.663,3.251,7.3,3.374a4.033,4.033,0,0,0,1.181-.21C183.723,725.011,183,724.666,182.84,724.116Z" transform="translate(-151.254 -678.259)"/><path class="bc" d="M165.751,707.079l6.791,5.926-3.4,4.365s-4.171-4.2-4.636-5.526S165.751,707.079,165.751,707.079Z" transform="translate(-143.632 -669.959)"/><g transform="translate(23.953 38.72)"><path class="bi" d="M177.881,716.268l.313-.4-4.957-4.326Z" transform="translate(-173.237 -711.539)"/><path class="bi" d="M177.384,733.984l.067.068.747-.959Z" transform="translate(-175.896 -725.361)"/></g><path class="bf" d="M166.451,713.541a6.692,6.692,0,0,1-1.381-6.455l-.009-.007s-2.113,3.658-1.648,4.988,5.036,5.3,5.036,5.3l1-1.288A12.183,12.183,0,0,1,166.451,713.541Z" transform="translate(-142.941 -669.959)"/><path class="bf" d="M175.529,724.844l3.305-3.263.605.567-3.227,3.9Z" transform="translate(-150.754 -679.259)"/><path class="bg" d="M176.117,726.794l-.878-.451,3.9-5.1.632.845Z" transform="translate(-150.568 -679.042)"/><path class="bh" d="M177.792,726.168l-2.553,3.334.878.451L178,727.526A2.771,2.771,0,0,1,177.792,726.168Z" transform="translate(-150.568 -682.2)"/><path class="ba" d="M161.734,693.905l-.272-3.9,2.319.135,1.091,3.677S162.735,694.757,161.734,693.905Z" transform="translate(-141.733 -659.01)"/><path class="ba" d="M139.243,646.246c3.647-1.768,10.09-6.234,5.8-16.338s-11.124-10.256-16.89-7.459-9.579,8.223-5.243,17.524S135.6,648.016,139.243,646.246Z" transform="translate(-115.809 -614.693)"/><path class="ay" d="M122.8,645.711a5.314,5.314,0,0,0,4.9-5.5,10.677,10.677,0,0,0-1.879-5.854c-3.964-7.924,6.258-16.912.709-16.058-14.252,2.192-17.9,28.2-3.8,27.412Z" transform="translate(-111.178 -612.995)"/><path class="ax" d="M133.473,619.1c2.405-3.28,2.849-6.746.99-7.741s-5.315.856-7.72,4.136-2.849,6.745-.991,7.741S131.067,622.375,133.473,619.1Z" transform="translate(-118.097 -608.402)"/><path class="bj" d="M156.485,654.726c-.351-1.7-1.742-2.786-3.1-2.441a3.039,3.039,0,0,0-1.829,3.692c.349,1.692,1.5,1.634,2.863,1.289S156.837,656.417,156.485,654.726Z" transform="translate(-135.326 -634.782)"/><path class="bj" d="M178.543,649.924c-.18-1.7-1.366-2.894-2.647-2.672s-2.179,1.783-2,3.481,1.243,1.742,2.527,1.517S178.722,651.622,178.543,649.924Z" transform="translate(-149.692 -631.578)"/><g transform="translate(24.38 15.058)"><path class="bj" d="M174.679,648.763l-.251-1.221.607.768Z" transform="translate(-174.428 -646.837)"/><path class="bj" d="M177.87,646.8l.342-1.225.166,1.01Z" transform="translate(-176.635 -645.58)"/><path class="bj" d="M181.842,646.559l.887-.861-.368.972Z" transform="translate(-179.182 -645.655)"/></g><g transform="translate(16.453 16.785)"><path class="bj" d="M152.592,653.482l-.262-1.241.623.794Z" transform="translate(-152.33 -651.578)"/><path class="bj" d="M155.861,651.622l.343-1.228.173,1.026Z" transform="translate(-154.594 -650.394)"/><path class="bj" d="M159.912,651.526l.9-.842-.371.973Z" transform="translate(-157.192 -650.58)"/></g><path class="bk" d="M156.7,656.122a2.483,2.483,0,0,0-2.963-2.06,2.759,2.759,0,0,0-1.854,3.282c.307,1.475,1.426,1.395,2.755,1.059S157.008,657.594,156.7,656.122Z" transform="translate(-135.552 -635.917)"/><path class="bk" d="M178.62,651.291a2.375,2.375,0,0,0-2.68-2.261,2.79,2.79,0,0,0-2.118,3.1c.157,1.478,1.252,1.486,2.578,1.257S178.777,652.771,178.62,651.291Z" transform="translate(-149.648 -632.714)"/><path class="bj" d="M161.273,659.008a1.076,1.076,0,0,0-1.107-1.144,1.277,1.277,0,0,0-1.059,1.341,1.077,1.077,0,0,0,1.106,1.147A1.28,1.28,0,0,0,161.273,659.008Z" transform="translate(-140.223 -638.397)"/><path class="bj" d="M182.97,654.213a1.06,1.06,0,0,0-1.194-1.014,1.245,1.245,0,0,0-.939,1.386,1.061,1.061,0,0,0,1.2,1.015A1.245,1.245,0,0,0,182.97,654.213Z" transform="translate(-154.153 -635.398)"/><path class="bl" d="M183.457,655.555a.455.455,0,0,0-.514-.437.534.534,0,0,0-.4.6.455.455,0,0,0,.514.438A.535.535,0,0,0,183.457,655.555Z" transform="translate(-155.246 -636.634)"/><path class="bl" d="M161.758,660.331a.464.464,0,0,0-.478-.494.552.552,0,0,0-.456.578.464.464,0,0,0,.477.494A.551.551,0,0,0,161.758,660.331Z" transform="translate(-141.324 -639.663)"/><g transform="translate(25.045 12.477)"><path class="ay" d="M179.3,639.452a3.406,3.406,0,0,0-2.524-.128.35.35,0,0,1-.423-.153l-.024-.039a.353.353,0,0,1,.158-.508,3.944,3.944,0,0,1,3.126.188.362.362,0,0,1,.175.452h0A.356.356,0,0,1,179.3,639.452Z" transform="translate(-176.28 -638.387)"/></g><g transform="translate(15.175 13.891)"><path class="ay" d="M152.2,643.1a4.748,4.748,0,0,0-2.8,1.459.355.355,0,0,1-.453.067l-.006,0a.356.356,0,0,1-.086-.534,5.547,5.547,0,0,1,3.266-1.76.36.36,0,0,1,.4.378l0,.063A.35.35,0,0,1,152.2,643.1Z" transform="translate(-148.768 -642.327)"/></g><path class="bm" d="M168.663,665.412a.767.767,0,0,0-.017.1c-.02.471.5.8,1.166.725a1.718,1.718,0,0,0,.71-.242,1.337,1.337,0,0,1-1.214.886c-.662.071-1.183-.252-1.164-.724A.98.98,0,0,1,168.663,665.412Z" transform="translate(-146.017 -643.24)"/><path class="bn" d="M170.411,673.231l-5.436.217s-.1,3.376,2.613,3.032S170.411,673.231,170.411,673.231Z" transform="translate(-143.986 -648.254)"/><path class="bk" d="M166.169,674.146a3.77,3.77,0,0,0,.234,1.328l3.652.006a3.4,3.4,0,0,0,.488-1.509Z" transform="translate(-144.751 -648.728)"/></g></svg>