<svg xmlns="http://www.w3.org/2000/svg" width="140.53" height="63.738" viewBox="0 0 140.53 63.738"><defs><style>.a{fill:#dae4e5;}.b{fill:#c2cbcc;}</style></defs><g transform="translate(85.262 30.485)"><path class="a" d="M1148.589,265.383c-.28-3.66-3.377-5.867-6.848-5.867a4.965,4.965,0,0,0-1.263.167,6.865,6.865,0,0,0,.3-2.517c-.311-4.076-3.759-6.533-7.625-6.533a6.433,6.433,0,0,0-5.265,3.054,10.258,10.258,0,0,0-2.285-2.907,8.242,8.242,0,0,0-3-2.266,11.365,11.365,0,0,0-3.124-1q-1.49-.128-2.983-.177a10.874,10.874,0,0,0-9.8,8.709c-.021.11-.035.221-.053.331a8.8,8.8,0,0,0-4.585,15.492,9.071,9.071,0,0,0,8.372,1.688,25.736,25.736,0,0,0,2.387,2.913,9.142,9.142,0,0,0,3.808,1.937c3.834.873,8.645-1.67,10.354-5.117a8.627,8.627,0,0,0,.365-.858l.1.069a9.166,9.166,0,0,0,10.589-1.891,7.3,7.3,0,0,0,4.688,1.621C1146.2,272.23,1148.839,268.643,1148.589,265.383Z" transform="translate(-1098.927 -247.336)"/></g><g transform="translate(19.214)"><path class="a" d="M1070.083,227.558c-.013-.074-.027-.147-.04-.222-.01-.055-.025-.107-.035-.16a10.756,10.756,0,0,0-5.832-8.484q-.286-.149-.584-.28l-.084-.034a9.677,9.677,0,0,0-2.814-.724c-.278-.036-.552-.061-.823-.075a7.886,7.886,0,0,0,.568-4.342c-.014-.086-.027-.173-.041-.259-.017-.107-.04-.212-.06-.318a10.215,10.215,0,0,0-3.145-5.965c-.031-.032-.065-.06-.1-.091-.069-.062-.134-.13-.205-.19a9.609,9.609,0,0,0-15.787,4.343,12.772,12.772,0,0,0-18.943-5.672l-.469.27a12.452,12.452,0,0,0-4.2,4.791,12.8,12.8,0,0,0-.841,2.222,15.009,15.009,0,0,0-8.907,26.251,12.335,12.335,0,0,0,3.407,2.277,15.3,15.3,0,0,0,7.914,1.546,16.03,16.03,0,0,0,5.279-1.393c.154.152.312.3.475.449a7.8,7.8,0,0,0,2.606,1.736,12.591,12.591,0,0,0,6.264,1.248,8.662,8.662,0,0,0,2.125-.372,11.256,11.256,0,0,0,6.877-4.05l.133.119a9.605,9.605,0,0,0,13.9-1.271,10.755,10.755,0,0,0,6.133-.281C1067.085,237.14,1070.943,232.278,1070.083,227.558Z" transform="translate(-1002.648 -202.898)"/></g><path class="b" d="M1102.99,270.113s-23.955.648-45.913,2.644-28.746,0-28.746,0,21.559,7.585,35.134,5.19,12.377-3.992,26.749-2,28.347-.978,39.526-1.686S1107.769,269.956,1102.99,270.113Z" transform="translate(-991.498 -224.002)"/><path class="b" d="M1023.277,293.9a155.507,155.507,0,0,0-17.167-1.2c-6.654.133-13.176.133-10.381-1.065s12.51-1.6,17.7-1.2,15.172,1.743,21.293,1.67a124.2,124.2,0,0,0,15.836-1.82S1043.242,295.049,1023.277,293.9Z" transform="translate(-981.053 -230.338)"/><path class="b" d="M1007.471,251.47c-.558-.032-12.235-1.549-19.979-1.394s-15.333.155-12.08-1.239,14.558-1.858,20.6-1.394,17.656,2.029,24.78,1.943,18.43-2.118,18.43-2.118S1030.705,252.811,1007.471,251.47Z" transform="translate(-974.639 -216.83)"/></svg>