<svg xmlns="http://www.w3.org/2000/svg" width="126.982" height="102.411" viewBox="0 0 126.982 102.411"><defs><style>.a{fill:#8a8a8a;}.b{fill:#efc85b;}.c{fill:#c7c7c7;}.d{fill:#b8b8b8;}.e{fill:#a3a3a3;}.f{fill:#718389;}.g{fill:#879ba0;}.h{fill:#ffedb8;opacity:0.2;mix-blend-mode:overlay;isolation:isolate;}.i{fill:#4c5d63;}.j{fill:#ffc95c;}.k{fill:#ffe8c0;}.l{fill:#8ca7af;}.m{fill:#705c62;}.n{fill:#5e4a51;}.o{fill:#c1acb4;}.p{fill:#ead9ca;}.q{fill:#e5c8b3;}.r{fill:#f7db7e;}.s{fill:#ffe79c;}.t{fill:#8c5d4a;}.u{fill:#593b2f;}.v{fill:#312c23;}.w{fill:#fcc57b;}.x{fill:#96d9df;}.y{fill:#7fd1d8;}.z{fill:#3e6569;}.aa{fill:#ffc494;}.ab{fill:#fcb95d;}.ac{fill:#ef8f6f;}.ad{fill:#402c23;}.ae{fill:#fff9e9;}.af{fill:#894f23;}.ag{fill:#2e2c23;}.ah{fill:#952c23;}.ai{fill:#acc447;}.aj{fill:#f7cfba;}.ak{fill:#fcda97;}.al{fill:#f2bd7c;}.am{fill:#ffeae6;}.an{fill:#ea6a42;}.ao{fill:#ff8b6c;}</style></defs><path class="a" d="M202.259,176.258h-5.331l-.448.969h6.375Z" transform="translate(-132.763 -103.458)"/><path class="b" d="M190.371,129.623c-.007-.551-.961-1.958-.309-2.012S190.371,129.623,190.371,129.623Z" transform="translate(-129.127 -76.839)"/><path class="b" d="M196.834,132.988c.45-.317,1.069-1.9,1.483-1.394S196.834,132.988,196.834,132.988Z" transform="translate(-132.957 -78.965)"/><path class="b" d="M187.093,135.356c-.5-.224-2.181.056-1.958-.559S187.093,135.356,187.093,135.356Z" transform="translate(-126.544 -80.674)"/><path class="b" d="M208.957,138.493c1.329-.772,2.9-2.8,5.327.656Z" transform="translate(-139.59 -82.084)"/><path class="b" d="M197.959,138.578c1.592-.822,3.4-2.9,6.62.41Z" transform="translate(-133.572 -82.074)"/><path class="b" d="M179.116,140.112c1.165-1.314,2.049-4.107,6.307-1.092Z" transform="translate(-123.262 -82.344)"/><rect class="a" width="11.705" height="0.717" transform="translate(60.922 73.607)"/><g transform="translate(64.273 71.739)"><g transform="translate(0 0)"><path class="a" d="M198.145,176.553l-.437-.1a3.014,3.014,0,0,0,.029-.426,2.436,2.436,0,0,1,.595-1.878,1.452,1.452,0,0,1,1.256-.178l-.1.436a1.043,1.043,0,0,0-.883.1c-.383.3-.406,1.043-.421,1.537A3.057,3.057,0,0,1,198.145,176.553Z" transform="translate(-197.708 -173.915)"/></g><g transform="translate(2.846 0)"><path class="a" d="M205.612,176.558a2.811,2.811,0,0,1-.044-.512c-.017-.5-.04-1.2-.434-1.506a1.264,1.264,0,0,0-1.051-.127l-.09-.438a1.673,1.673,0,0,1,1.418.214,2.386,2.386,0,0,1,.6,1.843,2.63,2.63,0,0,0,.032.421Z" transform="translate(-203.992 -173.915)"/></g></g><path class="c" d="M170.876,208.249h29.908l-1.676-27.073H172.68Z" transform="translate(-118.753 -106.149)"/><path class="d" d="M199.78,201.124l-.123,15.049H172l.174-18.351-1.3,19.535h29.908Z" transform="translate(-118.753 -115.258)"/><path class="e" d="M171.249,205.008c0-10.953,6.46-19.833,14.427-19.833s14.428,8.88,14.428,19.833a27.34,27.34,0,0,1-.195,3.241h.875l-1.676-27.073H172.681l-1.8,27.073h.567A27.243,27.243,0,0,1,171.249,205.008Z" transform="translate(-118.753 -106.149)"/><path class="c" d="M172.014,178.9h28.62v1.547H172.4Z" transform="translate(-119.376 -104.903)"/><path class="a" d="M187.219,180.586a127.7,127.7,0,0,1-14.955-.686l.273,1.094h28.233v-.928C197.633,180.381,192.732,180.586,187.219,180.586Z" transform="translate(-119.513 -105.451)"/><path class="f" d="M177.287,141.278a68.037,68.037,0,0,1,22.744-.232s-.857,13.457-1.641,14.13-17.732.756-18.648-.047S177.287,141.278,177.287,141.278Z" transform="translate(-122.261 -83.725)"/><path class="g" d="M199,163.712c-.751.663-16.953.776-17.827-.01-.432-.387-1.271-3.806-2.01-7.174.5,3.465,1.011,7.248,1.48,7.662.915.807,18.1.652,18.883-.027.3-.255.5-2.617.737-4.892A19.076,19.076,0,0,1,199,163.712Z" transform="translate(-123.285 -92.662)"/><path class="h" d="M201,169.291a1.815,1.815,0,0,0,.289-.773c-1.758-1.327-5.1-2.32-8.969-2.5-4.846-.225-8.982.9-10.266,2.619a1.6,1.6,0,0,0,.3.606C183.264,170.046,200.212,169.965,201,169.291Z" transform="translate(-124.867 -97.84)"/><path class="i" d="M175.573,147.289c-1.661.3-2.992.807-2.714,1.69s3.323.51,3.323.51Z" transform="translate(-119.818 -87.607)"/><path class="i" d="M225.879,148.266c1.684-.133,3.059-.5,2.873-1.4s-3.253-.848-3.253-.848Z" transform="translate(-148.641 -86.909)"/><g transform="translate(62.231 70.019)"><path class="j" d="M208.355,173.525c.659.306,1.535-.383,1.515-2C209.87,171.522,207.492,173.125,208.355,173.525Z" transform="translate(-201.388 -170.885)"/><path class="j" d="M194.222,174c.285.444.925,1.332,3.768,1.148s3.6.094,4.007-1.841a12.015,12.015,0,0,1-3.35.656C197.316,173.916,194.222,174,194.222,174Z" transform="translate(-193.758 -171.86)"/><path class="j" d="M198.577,172.942c-.977.352-2.252-.486-2.187-2.419C196.39,170.523,199.857,172.481,198.577,172.942Z" transform="translate(-194.943 -170.339)"/><path class="j" d="M195.625,174.562c-.376.6-1.508.472-2.427-.9C193.2,173.666,196.117,173.781,195.625,174.562Z" transform="translate(-193.198 -172.059)"/><path class="j" d="M206.654,172.578c.765.374,1.4-.472.807-2.462C207.461,170.116,205.652,172.089,206.654,172.578Z" transform="translate(-200.395 -170.116)"/><path class="j" d="M204.756,172.9c.867.175,1.222-.649.024-2.208C204.779,170.7,203.62,172.673,204.756,172.9Z" transform="translate(-199.249 -170.433)"/><path class="j" d="M202.63,173.449c-.982.257-1.973-.358-1.483-1.771C201.147,171.678,203.915,173.114,202.63,173.449Z" transform="translate(-197.477 -170.971)"/><g transform="translate(0.887 0.805)"><path class="k" d="M197.335,175.291c.194.327.366.874,2.526.741s2.975-.084,3.388-1.245a9.665,9.665,0,0,1-2.564.481C199.679,175.235,197.335,175.291,197.335,175.291Z" transform="translate(-196.349 -173.477)"/><path class="k" d="M206.374,174.2c.6.35,1.159-.443.8-2.307C207.174,171.893,205.592,173.741,206.374,174.2Z" transform="translate(-201.176 -171.893)"/><path class="k" d="M208.177,175.2c.155.42.678.245,1.142-.847C209.319,174.358,207.975,174.655,208.177,175.2Z" transform="translate(-202.27 -173.242)"/><path class="k" d="M201.414,175.853c.317-.116.268-.563-.432-.992C200.982,174.861,201,176,201.414,175.853Z" transform="translate(-198.344 -173.517)"/><path class="k" d="M204.976,174.469c.552.048.781-.684.019-1.858C204.995,172.611,204.253,174.407,204.976,174.469Z" transform="translate(-200.357 -172.286)"/><path class="k" d="M202.613,174.864c.528-.243.425-.984-.774-1.594C201.839,173.27,201.923,175.182,202.613,174.864Z" transform="translate(-198.813 -172.646)"/><path class="k" d="M199.389,174.451c-.405.415-1.151.069-1.3-1.742C198.091,172.709,199.836,173.994,199.389,174.451Z" transform="translate(-196.762 -172.34)"/><path class="k" d="M197.843,175.77c-.038.576-1.035.835-2.686-.379C195.157,175.392,197.886,175.135,197.843,175.77Z" transform="translate(-195.157 -173.779)"/></g></g><path class="l" d="M198.936,140.763a.441.441,0,0,0,.341-.087.434.434,0,0,0,.166-.309.263.263,0,0,0-.219-.277,72.459,72.459,0,0,0-23.242.032.388.388,0,0,0-.32.426.279.279,0,0,0,.111.192.282.282,0,0,0,.216.053A75.785,75.785,0,0,1,198.936,140.763Z" transform="translate(-121.37 -83.16)"/><path class="f" d="M208.345,143.229l-.16,2.119s-9.222-2.643-13.777-2.726A59.647,59.647,0,0,1,208.345,143.229Z" transform="translate(-131.629 -84.965)"/><path class="m" d="M181.894,201.546h19.653l-.457-11.776H182.443Z" transform="translate(-124.782 -110.851)"/><path class="n" d="M182.83,190.63H200.7l.424,10.916h.424l-.457-11.776H182.443l-.549,11.776h.427Z" transform="translate(-124.782 -110.851)"/><path class="o" d="M185.284,201.465l6.263-11.128,5.872.056s-3.747,11.3-3.97,11.184S185.284,201.465,185.284,201.465Z" transform="translate(-126.637 -111.162)"/><rect class="p" width="20.634" height="0.559" transform="translate(56.746 88.905)"/><rect class="q" width="19.74" height="0.559" transform="translate(57.193 81.748)"/><g transform="translate(100.314 0)"><path class="r" d="M292.029,47.123l-14.713-8.047,10.1-16.611,11.916,6.3Z" transform="translate(-277.308 -19.306)"/><path class="s" d="M289.591,43.327c2.71-4.156,2.846-8.76.305-10.283-1.4-.836-3.309-.564-5.2.535l6.758-11.115,11.916,6.3-7.3,18.362-6.6-3.612C289.505,43.448,289.55,43.39,289.591,43.327Z" transform="translate(-281.347 -19.306)"/><path class="r" d="M295.1,31.638c-.26,3.577,4.173,6.571,7.441,3.81s-1.322-5.248-1.322-5.248,4.343-2.7,2.116-6.049-7.543-3.773-7.543-3.773-.877-4.4-3.04-4.848-5.165,3-5.165,3-5.209-4.392-8.944-.114,1.3,8.474,3.4,9.035c3.464.926,7.037-1.081,9.75,1.682C291.41,31.95,295.1,31.638,295.1,31.638Z" transform="translate(-277.299 -15.489)"/><path class="s" d="M289.354,33.789c6.209-.108,11.446-2.752,13.26-6.323A8.892,8.892,0,0,1,307.53,30.7c2.227,3.346-2.116,6.049-2.116,6.049S310,39.241,306.736,42s-7.7-.233-7.441-3.81c0,0-3.686.312-3.307-2.5-2.712-2.763-6.286-.756-9.75-1.682a5.071,5.071,0,0,1-1.267-.584A21.552,21.552,0,0,0,289.354,33.789Z" transform="translate(-281.497 -22.043)"/><path class="r" d="M307.511,44.626c-.306-.835.5-1.6,1.956-1.569,1.588.034,2.876.967,2.763,1.9-.095.778-1.166,1.215-2.335,1.092A2.877,2.877,0,0,1,307.511,44.626Z" transform="translate(-293.795 -30.573)"/><path class="r" d="M320.313,56.779c-.62-.779-.2-1.429,1.144-1.313,1.464.127,3.022,1.054,3.3,1.9.232.7-.567,1.037-1.685.855A4.881,4.881,0,0,1,320.313,56.779Z" transform="translate(-300.682 -37.356)"/></g><path class="t" d="M269.263,55.3c-5.5-2.3-7.735,1.676-7.735,1.676.387-11.989-14.954-.9-18.822,4s-1.418,8.38.516,14.955l-1.161,9.024c-4.9,22.947,28.877,25.4,28.877,25.4s-3.481-.644,3.223-13.794S282.8,60.976,269.263,55.3Z" transform="translate(-156.936 -35.246)"/><path class="u" d="M274.964,69.372c-.218,6.127-8.69,11.054-19.115,11.054-6.19,0-11.69-1.738-15.185-4.432-.007,2.75,1.373,5.621,2.561,9.661l-1.161,9.024c-4.9,22.947,28.877,25.4,28.877,25.4s-3.481-.644,3.223-13.794C279.705,95.416,281.977,78.22,274.964,69.372Z" transform="translate(-156.939 -44.973)"/><path class="v" d="M264.8,119.817c-8.616,2.37-9.166,11.561-7.329,20.177,8.056,6.047,20.246,7.333,21.987,7.489C262.34,137.488,276.36,116.638,264.8,119.817Z" transform="translate(-165.667 -72.396)"/><path class="w" d="M256.107,203.889l1.578,14.093-.705,0s-3.565-15.174-4.961-18.224C251.426,198.458,255.81,201.487,256.107,203.889Z" transform="translate(-163.122 -116.144)"/><path class="w" d="M269.073,203.125l-.379,14.388-.7.006s-1.478-15.461-2.522-18.55C265.025,197.658,269.051,200.681,269.073,203.125Z" transform="translate(-170.494 -115.712)"/><path class="w" d="M220.3,117.149l-.264.515c1.8,1.942,8.457,6.673,14.765,14.528l1.023-2.612S229.994,124.569,220.3,117.149Z" transform="translate(-145.651 -71.115)"/><path class="x" d="M247.973,143.938l1.666-3.577s5.436,2.246,5.964,2.875-2.388,4.065-3.547,4.385S248.665,144.547,247.973,143.938Z" transform="translate(-160.939 -83.816)"/><path class="y" d="M255.6,144.715a15.8,15.8,0,0,0-3.13-1.651,1.574,1.574,0,0,1-.109,1.829c-.824,1.009-2.724,1.011-4.106.171-.033-.02-.059-.043-.091-.064l-.194.418c.692.61,2.923,4,4.083,3.683S256.132,145.342,255.6,144.715Z" transform="translate(-160.939 -85.295)"/><path class="z" d="M249.023,139.391l.613.161-1.876,5.006-.723-.786Z" transform="translate(-160.426 -83.285)"/><g transform="translate(86.61 56.106)"><path class="z" d="M247.519,146.712l-.483,1.065.723.787.468-1.248A1.743,1.743,0,0,1,247.519,146.712Z" transform="translate(-247.036 -143.397)"/><path class="z" d="M251.513,140.084l.2-.532-.613-.161-.269.591A1.628,1.628,0,0,1,251.513,140.084Z" transform="translate(-249.113 -139.391)"/></g><path class="aa" d="M275.706,153.22c.052-.77-.273-1.394-.725-1.394s-.863.624-.915,1.394.273,1.394.726,1.394S275.653,153.99,275.706,153.22Z" transform="translate(-175.213 -90.089)"/><path class="x" d="M257.6,150.677c-.754-2.625-7.99-4.092-9.472-1.1-1.376,2.774-4.966,18.765-5.224,28.82,4.254,1.289,14.052,2.534,17.532.644C260.079,172.179,258.689,154.463,257.6,150.677Z" transform="translate(-158.165 -87.949)"/><path class="x" d="M256.723,145.527s-3.914,1.231-4.753,8l1.566-.056c.149-2.963.783-5.2,4.473-7.717Z" transform="translate(-163.126 -86.643)"/><path class="y" d="M253.328,157.1A11.393,11.393,0,0,1,247,155.429c-1.613,6.274-3.892,19.065-4.1,27.077a44.482,44.482,0,0,0,13.828,1.529,49.042,49.042,0,0,1-.291-5.558c0-5.189.667-9.395,1.492-9.395s2.013,8.829,2.013,14.018c0,.1,0,.185,0,.278a4.82,4.82,0,0,0,.493-.227c-.322-6.176-1.481-21.149-2.5-26.835A13.215,13.215,0,0,1,253.328,157.1Z" transform="translate(-158.165 -92.061)"/><path class="s" d="M252.2,183.375s-7.629.142-12.048-2.459c0,0,2.015-13.878,4.777-22.515l8.681,1.29S252.408,174.3,252.2,183.375Z" transform="translate(-156.66 -93.687)"/><path class="r" d="M243.626,176.928a4.976,4.976,0,0,1-1.879-.244c-.993,5.154-1.593,9.284-1.593,9.284,4.42,2.6,12.048,2.459,12.048,2.459.149-6.583.823-16.076,1.182-20.794C251.483,172.733,247.421,176.721,243.626,176.928Z" transform="translate(-156.66 -98.739)"/><path class="w" d="M286.233,168.75l.764-.166c-1.67-2.053-7.673-8.36-13.6-15.019l.373,2.946S277.752,160.964,286.233,168.75Z" transform="translate(-174.853 -91.041)"/><path class="x" d="M260.313,240.248h2.407s-.258-1.2-.945-1.16S260.313,240.248,260.313,240.248Z" transform="translate(-167.691 -137.836)"/><path class="x" d="M268.756,240.248h3.482s-1.5-1.2-2.192-1.16S268.756,240.248,268.756,240.248Z" transform="translate(-172.311 -137.836)"/><path class="x" d="M277.284,156.964l-2.611,3.355s-4.043-3.8-4.383-4.544-.688-5.513.515-5.511S276.781,156.191,277.284,156.964Z" transform="translate(-172.973 -89.235)"/><path class="y" d="M272.8,159.228c-1.272-2.136-1.346-3.937-.165-4.022,1.137-.082,3.019,1.457,4.294,3.477l.167-.215c-.5-.773-3.5-5.825-5.345-5.433-1.177.249-2.41,4.007-2.069,4.753s4.8,4.035,4.8,4.035l.191-.245A11.035,11.035,0,0,1,272.8,159.228Z" transform="translate(-172.787 -90.739)"/><path class="s" d="M269.8,151.284a7.827,7.827,0,0,0-3.91,5.586l1.589,1.332c.473-3.932,2.277-6.137,3.33-6.524Z" transform="translate(-170.741 -89.793)"/><path class="s" d="M256.038,145.116s-4.407.57-5.481,6.224l1.521.263c.822-4.661,3.733-5.507,5.15-5.937Z" transform="translate(-162.353 -86.418)"/><path class="ab" d="M262.289,143.887l.556-3.894,3.117-.245.3,4.76Z" transform="translate(-168.772 -83.481)"/><path class="z" d="M279.7,167.592l-.559-.3,2.983-4.436.522.932Z" transform="translate(-177.992 -96.126)"/><g transform="translate(101.147 66.732)"><path class="z" d="M284.632,164.715l.716-.925-.522-.932-.744,1.106A1.744,1.744,0,0,1,284.632,164.715Z" transform="translate(-281.844 -162.858)"/><path class="z" d="M279.455,171.614l-.317.471.559.3.4-.513A1.624,1.624,0,0,1,279.455,171.614Z" transform="translate(-279.138 -167.649)"/></g><path class="r" d="M267.642,180.97l5.368.056.056.671-5.536.559Z" transform="translate(-171.64 -106.037)"/><path class="w" d="M249.412,104.634c-5.082-2.037-14.252-7.376-10.008-20.8s13.265-14.106,21.3-10.885,13.859,9.994,9.445,22.377S254.493,106.67,249.412,104.634Z" transform="translate(-155.654 -46.051)"/><path class="u" d="M292.676,102.332a51.75,51.75,0,0,1-7.662,5.849s-.578-6.331,1.5-9.315c2.577-3.705,2.441-10.292,1.248-13.684S278.8,71.394,285.5,71.657C302.259,72.317,301.174,94.568,292.676,102.332Z" transform="translate(-180 -46.22)"/><path class="w" d="M293.2,116.948c1.685.141,2.615,4.049.892,4.76-1.566.648-4.325,1-4.869.142C288.653,120.949,290.651,116.733,293.2,116.948Z" transform="translate(-183.457 -71.001)"/><path class="ac" d="M293.561,120.327c.908.09,1.534,2.229.582,2.652-.9.4-2.562.641-2.878.111C290.938,122.544,292.161,120.186,293.561,120.327Z" transform="translate(-184.598 -72.85)"/><path class="t" d="M292.31,69.778c-2.751-2.709-6.527-3.335-8.434-1.4s-1.223,5.7,1.528,8.411,6.527,3.335,8.434,1.4S295.06,72.487,292.31,69.778Z" transform="translate(-179.993 -43.814)"/><path class="ad" d="M269.01,104.1c.722-2.623,2.6-4.27,4.2-3.685s2.307,3.185,1.583,5.805-2.11,2.487-3.707,1.9S268.288,106.72,269.01,104.1Z" transform="translate(-172.332 -61.896)"/><path class="ad" d="M247.253,99.009c.418-2.648,2-4.517,3.533-4.174s2.444,2.776,2.028,5.423-1.715,2.719-3.253,2.372S246.838,101.656,247.253,99.009Z" transform="translate(-160.499 -58.883)"/><g transform="translate(88.257 34.988)"><path class="ad" d="M258.587,97.076l.448-1.907-.828,1.2Z" transform="translate(-254.795 -94.077)"/><path class="ad" d="M255.864,94.666l-.274-1.909-.319,1.577Z" transform="translate(-253.189 -92.756)"/><path class="ad" d="M251.653,94.254l-.98-1.341.335,1.515Z" transform="translate(-250.673 -92.842)"/></g><g transform="translate(98.528 37.403)"><path class="ad" d="M281.255,102.41l.534-1.92-.9,1.212Z" transform="translate(-277.48 -99.403)"/><path class="ad" d="M278.535,100.011l-.2-1.922-.389,1.589Z" transform="translate(-275.865 -98.089)"/><path class="ad" d="M274.307,99.631l-.951-1.342.283,1.526Z" transform="translate(-273.356 -98.198)"/></g><path class="ae" d="M268.982,105.694c.629-2.281,2.4-3.668,3.963-3.1s2.311,2.887,1.684,5.169-1.978,2.118-3.535,1.55S268.355,107.972,268.982,105.694Z" transform="translate(-172.34 -63.082)"/><path class="ae" d="M246.895,100.565c.363-2.309,1.944-3.887,3.525-3.535s2.579,2.516,2.216,4.826-1.7,2.321-3.283,1.967S246.531,102.873,246.895,100.565Z" transform="translate(-160.314 -60.08)"/><path class="af" d="M269.275,108.884c.133-1.066.826-1.847,1.546-1.741s1.194,1.056,1.056,2.121-.826,1.847-1.545,1.743S269.138,109.949,269.275,108.884Z" transform="translate(-172.582 -65.634)"/><path class="af" d="M247.287,103.769c.162-1.035.866-1.744,1.57-1.586s1.144,1.124.981,2.16-.865,1.746-1.572,1.585S247.125,104.807,247.287,103.769Z" transform="translate(-160.545 -62.914)"/><path class="ag" d="M247.774,105.518c.07-.447.374-.755.677-.685s.493.484.423.931-.372.753-.677.683S247.7,105.962,247.774,105.518Z" transform="translate(-160.822 -64.37)"/><path class="ag" d="M270.054,109.928c.057-.459.358-.8.667-.752s.511.456.456.916-.358.795-.667.751S270,110.387,270.054,109.928Z" transform="translate(-173.016 -66.75)"/><g transform="translate(87.63 30.981)"><path class="ad" d="M250.045,85.6a4.723,4.723,0,0,1,3.625-.33.5.5,0,0,0,.6-.221l.083-.144a.5.5,0,0,0-.253-.717,5.486,5.486,0,0,0-4.56.5.507.507,0,0,0-.225.605l.014.041A.5.5,0,0,0,250.045,85.6Z" transform="translate(-249.288 -83.907)"/></g><g transform="translate(100.76 34.302)"><path class="ad" d="M278.691,92.452a5.006,5.006,0,0,1,2.969,2.3.5.5,0,0,0,.707.159h0a.493.493,0,0,0,.179-.617,5.889,5.889,0,0,0-3.653-3.045.5.5,0,0,0-.59.454l-.018.22A.5.5,0,0,0,278.691,92.452Z" transform="translate(-278.284 -91.24)"/></g><path class="ah" d="M252.874,120.3l6.333,1.234s-.989,4.32-3.605,3.489S252.874,120.3,252.874,120.3Z" transform="translate(-163.62 -72.839)"/><path class="ae" d="M258.574,123.728a7.453,7.453,0,0,0,.675-1.724l-5.623-1.1a7.087,7.087,0,0,0,.467,2.171Z" transform="translate(-164.032 -73.172)"/><path class="w" d="M273.625,116.374c.175-.655-1.547-1.685-3.847-2.3s-4.306-.584-4.482.071,1.547,1.685,3.846,2.3S273.449,117.028,273.625,116.374Z" transform="translate(-170.411 -69.19)"/><path class="w" d="M252.68,111.775c.11-.669-1.541-1.5-3.688-1.848s-3.976-.095-4.086.573,1.542,1.5,3.688,1.849S252.57,112.444,252.68,111.775Z" transform="translate(-159.258 -67.077)"/><path class="w" d="M212.39,118.384c-.558.2-1.218.289-1.319.117-.088-.147.405-.211.77-.393.325-.161.44-.215.391-.276a4.818,4.818,0,0,0-1.005.255c-.646.186-1.1.23-1.2.057s.366-.211.921-.425c.491-.188.72-.248.635-.42-.036-.083-.383.017-.943.087-.638.084-1.054.021-1.074-.13-.025-.212.3-.1,1.006-.269.947-.225,1.222-.171,1.587-.556.338-.36-1.505-.27-1.27-.619.312-.461,3.573.12,3.814.65C215.053,117.232,214.162,117.745,212.39,118.384Z" transform="translate(-139.924 -70.292)"/><path class="w" d="M301.144,185.041c.32.5.551,1.123.406,1.261-.124.118-.3-.348-.554-.664-.229-.281-.307-.382-.355-.32a4.822,4.822,0,0,0,.47.924c.326.589.469,1.022.321,1.153-.146.116-.287-.31-.619-.8-.292-.437-.4-.647-.55-.525-.073.053.1.369.294.9.223.6.254,1.022.112,1.076-.2.071-.162-.268-.485-.921-.429-.874-.437-1.153-.894-1.424-.426-.251.071,1.527-.322,1.375-.52-.2-.675-3.51-.212-3.863C299.43,182.7,300.127,183.455,301.144,185.041Z" transform="translate(-188.576 -107.175)"/><path class="ai" d="M212.71,116.983a.541.541,0,1,0-.54.559A.55.55,0,0,0,212.71,116.983Z" transform="translate(-141.052 -70.718)"/><path class="ai" d="M206.816,116.943a.376.376,0,1,0-.375.389A.382.382,0,0,0,206.816,116.943Z" transform="translate(-138.008 -70.789)"/><path class="ai" d="M216.426,114.691a.541.541,0,1,0-.541.56A.55.55,0,0,0,216.426,114.691Z" transform="translate(-143.085 -69.464)"/><path class="ai" d="M210.614,123.29a.381.381,0,1,0-.38.393A.387.387,0,0,0,210.614,123.29Z" transform="translate(-140.08 -74.26)"/><path class="ai" d="M217.447,118.432a.381.381,0,1,0-.38.393A.387.387,0,0,0,217.447,118.432Z" transform="translate(-143.819 -71.602)"/><path class="ai" d="M203.893,125.088a.381.381,0,1,0-.38.394A.387.387,0,0,0,203.893,125.088Z" transform="translate(-136.403 -75.243)"/><path class="aj" d="M148.547,144.283c.147-.472.063-.918-.187-1s-.573.241-.72.712-.063.918.187,1S148.4,144.755,148.547,144.283Z" transform="translate(-105.999 -85.411)"/><path class="aj" d="M132.494,147.247c.147-.472.063-.917-.187-1s-.573.24-.72.712-.063.918.187,1S132.346,147.719,132.494,147.247Z" transform="translate(-97.215 -87.033)"/><path class="w" d="M163.189,120.748l-.426-.374c-2.342,11.282-8.525,12.2-13.056,11.658l1.135,2.47C161.262,135.295,163.189,120.748,163.189,120.748Z" transform="translate(-107.17 -72.88)"/><path class="x" d="M155.662,148.159l-.236-5.794s-2.145.987-6.9.536l1.948,6.563Z" transform="translate(-106.521 -84.913)"/><path class="y" d="M154.133,146.737c-2.162,0-4.958-2-4.958-3.132V143.6c-.214-.015-.429-.031-.654-.052l1.948,6.563,5.193-1.305-.1-2.443A2.726,2.726,0,0,1,154.133,146.737Z" transform="translate(-106.521 -85.56)"/><path class="y" d="M160.75,146.773l.391-3.9.41-.149.28,4.138Z" transform="translate(-113.213 -85.111)"/><path class="r" d="M74.112,53.373l12.511-9.694L75.118,29.092,64.956,36.731Z" transform="translate(-60.796 -22.932)"/><path class="s" d="M79.586,48.861c-3.047-3.625-3.779-8.024-1.636-9.827,1.177-.989,2.977-.984,4.865-.183l-7.7-9.76L64.956,36.731l9.156,16.642,5.617-4.352C79.682,48.966,79.633,48.917,79.586,48.861Z" transform="translate(-60.796 -22.932)"/><path class="r" d="M64.71,39.3c.71,3.4-2.984,6.865-6.361,4.653s.528-5.213.528-5.213-4.363-2.011-2.75-5.522,6.46-4.631,6.46-4.631.23-4.339,2.166-5.06,5.159,2.188,5.159,2.188S74.14,20.8,78.149,24.41s-.082,8.306-1.946,9.126c-3.073,1.352-6.634-.1-8.772,2.92C68.152,39.108,64.71,39.3,64.71,39.3Z" transform="translate(-55.769 -19.647)"/><path class="s" d="M73.3,41.439c-5.741.729-10.92-1.107-13.064-4.29a8.363,8.363,0,0,0-4.108,3.766c-1.613,3.51,2.75,5.522,2.75,5.522s-3.906,3-.528,5.213S65.42,50.394,64.71,47c0,0,3.442-.2,2.721-2.846,2.138-3.015,5.7-1.568,8.772-2.92a4.691,4.691,0,0,0,1.091-.731A19.341,19.341,0,0,1,73.3,41.439Z" transform="translate(-55.769 -27.341)"/><path class="w" d="M130.981,204.172l-3,14.376.7-.026s5.033-15.532,6.605-18.665C135.952,198.526,131.427,201.731,130.981,204.172Z" transform="translate(-95.282 -116.2)"/><path class="w" d="M155.139,202.14l2.615,14.814.693-.026s-.946-16-.379-19.21C158.309,196.353,154.8,199.637,155.139,202.14Z" transform="translate(-110.129 -115.025)"/><path class="t" d="M108.752,56.614c-.992-.45-1.015.738-1.015.738-1.57-6.121-12.84-7.3-13.365-6.8s.474,1.413.474,1.413c-2.514-.866-7.491.06-7.793.864s1.092,1.2,1.092,1.2c-10.162,5.985-4.472,5.127-4.472,5.127C73.653,63.046,75.758,69.6,75.758,69.6c-3.051,6.318,2.193,12.462,2.193,12.462s-2.263.24-1.65,1.083c.928,1.275,12.115,9.346,20.487,8.06l16.174-12.347C116.59,72.116,109.744,57.064,108.752,56.614Z" transform="translate(-66.185 -34.62)"/><path class="ad" d="M97.181,85.077c-8.663-.633-17.57-5.186-16.99-11.573-5.861,3.825-4.434,8.708-4.434,8.708-3.051,6.318,2.193,12.462,2.193,12.462s-2.263.24-1.65,1.083c.928,1.275,12.115,9.346,20.487,8.06L112.961,91.47c1.694-3.147,1.105-8.105-.106-12.544C110.2,83.018,104.289,85.6,97.181,85.077Z" transform="translate(-66.185 -47.233)"/><path class="ak" d="M125.325,201.028c2.788,1.47,4.62,1.372,8,.847,0,0,1.668-7.164,2.184-7.035s1.289,6.575,1.289,6.575A9.309,9.309,0,0,0,143.5,200s-.258-12.634-1.418-16.372L129.321,185.3S126.485,196.774,125.325,201.028Z" transform="translate(-93.829 -107.489)"/><path class="al" d="M142.084,183.624,129.321,185.3s-2.836,11.474-4,15.728c.081.043.158.079.237.12l.006-.029c.978-4.486,2.65-7.931,3.737-7.694s1.174,4.065.2,8.551c-.018.082-.038.16-.056.241a20.419,20.419,0,0,0,3.879-.342s1.668-7.164,2.184-7.035,1.289,6.575,1.289,6.575c.211.03.413.044.617.063a4.082,4.082,0,0,1,3.058-2.842,4.743,4.743,0,0,1,2.995.082C143.367,195.415,143.019,186.636,142.084,183.624Z" transform="translate(-93.829 -107.489)"/><path class="x" d="M131.743,146.081c.023-3.1,9.867-4.1,10.843-.572a102.237,102.237,0,0,1,3.665,17.967c-4.56,1.2-10.66,4.015-14.505,2.849C132.712,160.394,131.707,151.394,131.743,146.081Z" transform="translate(-97.34 -85.41)"/><path class="z" d="M134.405,144.4s3.614,1.493,5.172.307c.7-.531-.111-1.425-.111-1.425A6.511,6.511,0,0,0,134.405,144.4Z" transform="translate(-98.797 -85.348)"/><path class="y" d="M144.173,154.792c-1.06,3.211-3.147,5.634-5.549,6.051-3.474.6-6.291-3.216-6.291-8.528,0-1.7-.584-3.747-.59-3.023-.036,5.313.969,14.313,0,20.243,3.845,1.166,9.945-1.65,14.505-2.849A84.415,84.415,0,0,0,144.173,154.792Z" transform="translate(-97.34 -88.621)"/><path class="y" d="M148.285,143.485l-1.253-.09c2.376,1.092,3.889,5.356,3.661,6.875l1.867.516A10.559,10.559,0,0,0,148.285,143.485Z" transform="translate(-105.706 -85.476)"/><path class="y" d="M133.161,145.833l-.551.662c3.087,3.1,3.384,5.382,3.459,13.049l2.275.336C138.12,148.584,133.161,145.833,133.161,145.833Z" transform="translate(-97.815 -86.81)"/><path class="ab" d="M134.6,141.289l-.9-2.578,3.449-.9,1.751,3.051C138.915,141.834,137.219,141.9,134.6,141.289Z" transform="translate(-98.408 -82.419)"/><path class="s" d="M138.183,184.608s8.133-1.036,12.674-3.626c0,0,.051-16.316-3.327-25.638l-7.88,1.424S139.314,175.544,138.183,184.608Z" transform="translate(-100.864 -92.014)"/><path class="r" d="M139.46,174.344c-.639,6.3-.6,15.218-1.277,20.661,0,0,8.133-1.036,12.674-3.626,0,0,.009-2.97-.243-7.094C147.338,184.407,141.144,179.441,139.46,174.344Z" transform="translate(-100.864 -102.411)"/><path class="s" d="M133.6,145.3l-.945.473c2.492.773,4.211,6.961,4.168,8.637l1.741-1.547A12.447,12.447,0,0,0,133.6,145.3Z" transform="translate(-97.837 -86.521)"/><path class="s" d="M150.227,143.313h-1.16c2.312,1.092,3.463,5.356,3.094,6.875l1.848.516A9.647,9.647,0,0,0,150.227,143.313Z" transform="translate(-106.82 -85.431)"/><path class="r" d="M135.8,183.5l-4.19.324.129,1.188,4.189.486Z" transform="translate(-97.265 -107.422)"/><path class="y" d="M126.223,240.248h2.406s-.258-1.2-.945-1.16S126.223,240.248,126.223,240.248Z" transform="translate(-94.32 -137.836)"/><path class="y" d="M159.15,240.248h3.482s-1.5-1.2-2.192-1.16S159.15,240.248,159.15,240.248Z" transform="translate(-112.337 -137.836)"/><path class="w" d="M121.28,168.741c-2.308-.876-5.091-3.035-5.687-4.439-.9-2.127,2.572-4.382,6.386-7.451L120,155.422s-8.416,5.923-5.313,9.975c1.39,1.815,4.17,3.154,6.47,3.844C121.376,169.305,121.5,168.846,121.28,168.741Z" transform="translate(-87.634 -92.057)"/><path class="x" d="M120.412,157.995l-3.131-3.616s2.33-5.695,6.972-7.222l1.127,7.949Z" transform="translate(-89.427 -87.535)"/><path class="y" d="M118.224,157.875a23.316,23.316,0,0,0-1.565,2.387l3.288,3.8,4.823-2.367.249-.871C121.342,162.922,116.927,161.663,118.224,157.875Z" transform="translate(-89.087 -93.399)"/><path class="al" d="M143.832,161.8c0-.324-.175-.587-.392-.587s-.391.263-.391.587.175.587.391.587S143.832,162.123,143.832,161.8Z" transform="translate(-103.527 -95.225)"/><path class="al" d="M157.416,157.723c0-.325-.175-.587-.391-.587s-.391.263-.391.587.175.587.391.587S157.416,158.048,157.416,157.723Z" transform="translate(-110.96 -92.995)"/><path class="z" d="M163.263,147.915l-.969.559-.289-6.589.895.112Z" transform="translate(-113.899 -84.65)"/><g transform="translate(48.106 57.235)"><path class="z" d="M162.686,142.323a1.318,1.318,0,0,1,.236.028L162.9,142l-.895-.112.027.609A1.377,1.377,0,0,1,162.686,142.323Z" transform="translate(-162.005 -141.885)"/><path class="z" d="M162.891,150.544a1.36,1.36,0,0,1-.511-.106l.119,2.716.969-.559-.131-2.135A1.357,1.357,0,0,1,162.891,150.544Z" transform="translate(-162.21 -146.565)"/></g><path class="z" d="M116.128,161.706l.587-1.174,3.7,4.815-.8.411Z" transform="translate(-88.796 -94.853)"/><g transform="translate(27.332 65.679)"><path class="z" d="M116.575,162.089a2.065,2.065,0,0,1,.387-1.235l-.248-.322-.587,1.174.459.533C116.584,162.189,116.575,162.14,116.575,162.089Z" transform="translate(-116.128 -160.532)"/><path class="z" d="M121.119,166.764a1.225,1.225,0,0,1-.909.5l1.64,1.9.8-.411Z" transform="translate(-118.362 -163.942)"/></g><path class="w" d="M100.707,66.718c6.56-3.065,14.825-5.994,22.24,7.079s1.064,20.942-5.054,23.27c-5.108,1.944-14.353,6.479-21.691-5.495S92.877,70.376,100.707,66.718Z" transform="translate(-75.779 -42.088)"/><path class="ad" d="M90.959,99.76c3.969,4.517,6.44,4.824,6.44,4.824s.328-7.145-2.508-8.95-4.964-6.188-4.19-9.089,4.448-12.891-.516-10.313S84.035,91.88,90.959,99.76Z" transform="translate(-72.373 -48.496)"/><path class="w" d="M93.029,114.889c-.722-1.18,1.375-3.657,2.928-2.8s3.816,2.978,3.314,3.843S94.166,116.751,93.029,114.889Z" transform="translate(-76.076 -68.25)"/><path class="ac" d="M96.224,116.282c-.418-.684.8-2.119,1.7-1.622s2.211,1.726,1.92,2.227S96.884,117.361,96.224,116.282Z" transform="translate(-77.859 -69.697)"/><path class="w" d="M99.749,117.817c-.289-.473.551-1.465,1.173-1.122s1.53,1.194,1.328,1.54A2.235,2.235,0,0,1,99.749,117.817Z" transform="translate(-79.802 -70.828)"/><path class="w" d="M292.426,123.1c.554.011.937,1.254.312,1.593s-1.83.644-2.013.288S291.552,123.086,292.426,123.1Z" transform="translate(-184.319 -74.374)"/><path class="t" d="M96.607,80.284c1.174-2.655,1.118-5.253-.124-5.8s-3.2,1.157-4.376,3.812-1.119,5.253.124,5.8S95.432,82.939,96.607,80.284Z" transform="translate(-75.19 -47.712)"/><path class="r" d="M77.974,51.688c.173-.841-.672-1.469-2.011-1.243-1.461.245-2.525,1.314-2.3,2.193.19.734,1.236,1.01,2.3.735A2.7,2.7,0,0,0,77.974,51.688Z" transform="translate(-65.545 -34.59)"/><path class="r" d="M67.855,64.946c.47-.83,0-1.4-1.228-1.107-1.334.318-2.649,1.417-2.794,2.263-.121.706.66.919,1.667.595A4.539,4.539,0,0,0,67.855,64.946Z" transform="translate(-60.175 -41.903)"/><path class="ad" d="M146.4,89.714c-1.055-2.535-3.133-3.949-4.637-3.154s-1.878,3.488-.824,6.026,2.717,2.138,4.225,1.345S147.451,92.249,146.4,89.714Z" transform="translate(-102.043 -54.256)"/><path class="ad" d="M123.257,96.352c-1.09-2.852-3.379-4.454-5.113-3.58s-2.256,3.9-1.165,6.751,2.851,2.6,4.583,1.723S124.345,99.205,123.257,96.352Z" transform="translate(-88.95 -57.646)"/><path class="ae" d="M146.767,90.792c-.963-2.323-2.968-3.558-4.474-2.767s-1.951,3.316-.989,5.635,2.342,2.047,4.013,1.644C147.222,94.847,147.731,93.11,146.767,90.792Z" transform="translate(-102.294 -55.048)"/><path class="ae" d="M123.423,97.671c-1-2.606-3.213-4.012-4.946-3.136s-2.328,3.7-1.333,6.306,2.541,2.358,4.461,1.881C123.507,102.249,124.418,100.283,123.423,97.671Z" transform="translate(-89.089 -58.598)"/><g transform="translate(36.057 45.865)"><path class="ah" d="M135.478,119.923a.879.879,0,0,1-.05-.608.561.561,0,0,1,.343-.4l6.666-2.131a.361.361,0,0,1,.361.127.784.784,0,0,1,.2.467c.115,1.269.024,3.918-2.475,4.978C137.741,123.54,136.119,121.223,135.478,119.923Z" transform="translate(-135.396 -116.775)"/><path class="am" d="M137.132,120.127a.262.262,0,0,1,0-.286.48.48,0,0,1,.28-.223l5.31-1.733a.311.311,0,0,1,.274.027.232.232,0,0,1,.112.215c-.036.626.752,1.522-2.352,2.678C137.2,122.133,137.537,120.683,137.132,120.127Z" transform="translate(-136.323 -117.372)"/></g><path class="ac" d="M139.688,114.03a1.478,1.478,0,0,1-1.72-.884,1.014,1.014,0,0,0-.131.457c0,.715.793,1.2,1.782,1.091s1.794-.758,1.8-1.469a.767.767,0,0,0-.06-.2A2.12,2.12,0,0,1,139.688,114.03Z" transform="translate(-100.675 -68.856)"/><path class="af" d="M150.569,96.022c-.277-.91-1.031-1.436-1.694-1.169a1.723,1.723,0,0,0-.693,2.13c.274.912,1.032,1.442,1.694,1.176A1.733,1.733,0,0,0,150.569,96.022Z" transform="translate(-106.28 -58.877)"/><path class="af" d="M127.549,103.157c-.393-.979-1.3-1.463-2.019-1.084a1.954,1.954,0,0,0-.6,2.453c.394.978,1.3,1.463,2.016,1.086A1.956,1.956,0,0,0,127.549,103.157Z" transform="translate(-93.516 -62.796)"/><path class="ag" d="M127.856,105.033c-.146-.362-.48-.542-.748-.4a.724.724,0,0,0-.22.911c.145.362.48.542.746.4A.723.723,0,0,0,127.856,105.033Z" transform="translate(-94.647 -64.239)"/><path class="ag" d="M150.8,97.635c-.1-.339-.38-.53-.626-.432a.635.635,0,0,0-.257.786c.1.337.382.533.624.435A.639.639,0,0,0,150.8,97.635Z" transform="translate(-107.265 -60.187)"/><g transform="translate(24.816 31.888)"><path class="ad" d="M116.88,87.475a8.318,8.318,0,0,0-5.01,3.063.67.67,0,0,1-.874.182l-.091-.053a.674.674,0,0,1-.211-.97,9.658,9.658,0,0,1,6.008-3.782.67.67,0,0,1,.755.643l.008.23A.67.67,0,0,1,116.88,87.475Z" transform="translate(-110.572 -85.909)"/></g><g transform="translate(37.52 28.653)"><path class="ad" d="M144.024,80.648a5.684,5.684,0,0,0-4.387,0,.674.674,0,0,1-.85-.244l-.054-.085a.673.673,0,0,1,.264-.964,6.557,6.557,0,0,1,5.579.073.674.674,0,0,1,.346.794h0A.666.666,0,0,1,144.024,80.648Z" transform="translate(-138.627 -78.766)"/></g><path class="w" d="M177.211,113.3c.01-.594-.121-1.246-.317-1.286-.168-.035-.07.452-.124.856-.048.36-.061.486-.135.459a4.769,4.769,0,0,1-.085-1.034c-.032-.672-.138-1.115-.334-1.149s-.082.414-.105,1.01c-.019.525,0,.761-.194.736-.09-.007-.108-.367-.223-.92-.127-.63-.323-1-.472-.974-.211.045,0,.313.07,1.039.094.968.235,1.211-.013,1.681-.232.438-.746-1.335-1-1-.337.446,1.275,3.34,1.857,3.4C176.98,116.191,177.178,115.182,177.211,113.3Z" transform="translate(-120.59 -67.748)"/><path class="w" d="M129.792,186.709c.222.394.564.75.716.672.131-.067-.126-.333-.244-.626-.106-.26-.144-.351-.083-.372a3.037,3.037,0,0,1,.457.631c.282.422.527.656.677.573s-.1-.315-.317-.716c-.189-.354-.292-.5-.149-.585.066-.044.217.182.51.483.331.345.611.485.7.386.129-.142-.122-.2-.45-.642-.438-.584-.63-.667-.639-1.107-.007-.409,1.034.476,1.082.121.063-.471-2.174-1.506-2.6-1.233C128.837,184.693,129.088,185.459,129.792,186.709Z" transform="translate(-95.896 -107.831)"/><g transform="translate(56.068 46.733)"><path class="an" d="M179.724,119.288c.037.255.438.408.9.342s.8-.325.764-.581-.438-.408-.9-.342S179.688,119.034,179.724,119.288Z" transform="translate(-179.661 -118.692)"/><path class="ao" d="M179.59,119.2c.029.2.424.312.883.246s.807-.282.778-.484-.424-.311-.883-.245S179.561,119,179.59,119.2Z" transform="translate(-179.588 -118.696)"/></g><g transform="translate(54.848 44.374)"><path class="an" d="M177.2,115.074c.241.09.568-.19.729-.624s.1-.859-.145-.949-.568.19-.729.624S176.963,114.985,177.2,115.074Z" transform="translate(-176.935 -113.484)"/><path class="ao" d="M177.053,115.1c.191.071.476-.224.638-.659s.137-.844-.054-.915-.476.224-.637.659S176.863,115.034,177.053,115.1Z" transform="translate(-176.893 -113.504)"/></g><g transform="translate(56.311 45.437)"><path class="an" d="M180.3,116.677c.1.208.489.228.865.044s.6-.5.494-.71-.49-.229-.864-.044S180.2,116.468,180.3,116.677Z" transform="translate(-180.208 -115.836)"/><path class="ao" d="M180.141,116.611c.081.165.451.15.826-.034s.614-.466.533-.632-.451-.149-.826.035S180.06,116.447,180.141,116.611Z" transform="translate(-180.125 -115.831)"/></g><g transform="translate(59.275 48.82)"><path class="an" d="M186.847,124.148c.1.209.489.229.865.044s.6-.5.494-.711-.49-.228-.864-.044S186.745,123.94,186.847,124.148Z" transform="translate(-186.753 -123.307)"/><path class="ao" d="M186.686,124.082c.081.165.451.149.826-.034s.614-.466.533-.631-.451-.149-.826.034S186.605,123.918,186.686,124.082Z" transform="translate(-186.67 -123.302)"/></g><path class="ac" d="M261.548,114.21a.743.743,0,0,1-.049.106,1.747,1.747,0,0,1-1.976.4,1.7,1.7,0,0,1-.716-.464c-.2.474.161,1.03.885,1.284a1.746,1.746,0,0,0,1.976-.4A.754.754,0,0,0,261.548,114.21Z" transform="translate(-166.835 -69.507)"/></svg>