<svg xmlns="http://www.w3.org/2000/svg" width="682.454" height="306.376" viewBox="0 0 682.454 306.376"><defs><style>.a{fill:#dae4e5;}.b{fill:#c2cbcc;}</style></defs><g transform="translate(-352.153 -355.307)"><path class="a" d="M1000.7,588.588c-1.349-17.594-16.233-28.2-32.915-28.2a23.876,23.876,0,0,0-6.071.8,33.065,33.065,0,0,0,1.443-12.1c-1.5-19.589-18.072-31.4-36.652-31.4-10.543,0-19.637,6.165-25.311,14.681a49.25,49.25,0,0,0-10.978-13.97,39.6,39.6,0,0,0-14.428-10.891c-4.855-2.041-9.769-4.26-15.017-4.821q-7.158-.61-14.337-.849A52.271,52.271,0,0,0,799.323,543.7c-.1.528-.169,1.061-.256,1.593a42.309,42.309,0,0,0-22.037,74.467,43.6,43.6,0,0,0,40.241,8.111c-.6.19,10.259,12.984,11.472,14a43.929,43.929,0,0,0,18.3,9.313c18.434,4.2,41.56-8.03,49.774-24.6a42.043,42.043,0,0,0,1.755-4.12c.164.111.327.222.495.333a44.057,44.057,0,0,0,50.9-9.093A35.065,35.065,0,0,0,972.5,621.5C989.212,621.5,1001.9,604.259,1000.7,588.588Z"/><path class="a" d="M768.655,473.842c-.062-.356-.128-.711-.192-1.067-.045-.262-.118-.512-.169-.766a51.7,51.7,0,0,0-28.029-40.783c-.918-.478-1.85-.926-2.808-1.346-.13-.058-.269-.109-.4-.165a46.594,46.594,0,0,0-13.524-3.48c-1.335-.175-2.652-.292-3.958-.363A37.892,37.892,0,0,0,722.3,405c-.068-.414-.13-.832-.2-1.247-.081-.514-.192-1.017-.288-1.525A49.1,49.1,0,0,0,706.7,373.56c-.151-.151-.313-.292-.467-.439-.333-.3-.644-.628-.984-.916-15.051-13.769-37.428-17.973-57.554-4.4a45.654,45.654,0,0,0-18.33,25.281,61.388,61.388,0,0,0-91.053-27.263c-.753.435-1.506.868-2.253,1.3a59.873,59.873,0,0,0-20.183,23.03,61.736,61.736,0,0,0-4.044,10.682,72.143,72.143,0,0,0-42.812,126.184c4.863,4.374,10.336,8.424,16.379,10.942,13.605,5.665,23.124,8.571,38.037,7.43a77.1,77.1,0,0,0,25.375-6.7c.74.732,1.5,1.457,2.285,2.157a37.482,37.482,0,0,0,12.523,8.345c12.146,4.994,16.972,6.186,30.114,6a41.626,41.626,0,0,0,10.211-1.79A54.1,54.1,0,0,0,637,533.932l.642.569a46.17,46.17,0,0,0,66.8-6.109,51.722,51.722,0,0,0,29.478-1.348C754.243,519.9,772.788,496.533,768.655,473.842Z"/><path class="b" d="M895.026,576.953s-115.145,3.111-220.694,12.707-138.174,0-138.174,0,103.63,36.462,168.879,24.948,54.8-13.468,124.425-17.716c78.923-4.815,140.408,3.419,194.142.012S918,576.2,895.026,576.953Z"/><path class="b" d="M555.115,660.819c-2.3-.133-50.536-6.4-82.521-5.758s-63.329.64-49.9-5.117,60.131-7.677,85.079-5.757,72.925,8.38,102.351,8.028,76.124-8.748,76.124-8.748S651.08,666.359,555.115,660.819Z"/><path class="b" d="M509.969,521.812c-2.679-.155-58.812-7.444-96.035-6.7s-73.7.744-58.068-5.956,69.98-8.933,99.013-6.7,84.869,9.753,119.114,9.343,88.59-10.18,88.59-10.18S621.652,528.259,509.969,521.812Z"/></g></svg>