<svg xmlns="http://www.w3.org/2000/svg" xmlns:xlink="http://www.w3.org/1999/xlink" width="1366" height="707.29" viewBox="0 0 1366 707.29"><defs><style>.a,.g,.x{fill:none;}.b{clip-path:url(#a);}.c{fill:#f7d45e;}.d{fill:#ffe182;}.e{fill:#c2c2c2;}.e,.y{opacity:0.2;}.f{fill:#fff;}.g{stroke:#96874c;stroke-width:2px;}.g,.x{stroke-miterlimit:10;}.h,.w{fill:#7fd1d8;}.i{fill:#b6e5e9;}.j{fill:#66a8ad;}.k{fill:#fcb95d;}.aa,.k,.l,.m,.p,.q,.u,.v,.w,.x,.y,.z{fill-rule:evenodd;}.ak,.l{fill:#a1dd6f;}.m,.t{opacity:0.15;}.n{opacity:0.5;}.o{fill:#243330;}.p,.r{fill:#d1d3d4;}.q{fill:#36a5ad;}.s{fill:#bcbec0;}.u{fill:#c98121;}.v{fill:#f7805c;}.x{stroke:#3e6569;stroke-width:9.369px;}.z{fill:#243e41;}.aa{fill:#171f1c;}.ab{fill:#4a5e3a;}.ac{fill:#ffe131;}.ad{fill:#f7cf43;}.ae{fill:#ffbd09;}.af{fill:#40342e;}.ag{fill:#332925;}.ah{fill:#7d5947;}.ai{opacity:0.28;}.aj{opacity:0.4;}.al{fill:#ffe1ea;}.am{fill:#a5a5a5;}.an{fill:#604e45;}.ao{clip-path:url(#b);}.ap{fill:#d3c2a9;}.aq{fill:#b2b2b2;}.ar{fill:#8a624f;}</style><clipPath id="a"><rect class="a" width="1366" height="707.29" transform="translate(1366 -933.697) rotate(-180)"/></clipPath><clipPath id="b"><path class="a" d="M1232.3-1277.85l15.954,1.155-5.388-170.011-7.911,1.791Z"/></clipPath></defs><g transform="translate(0 1640.987)"><g class="b"><path class="c" d="M0-1683.452v758.464l242.228-67.586,32.991-6.263-1.636-558.092L244.576-1595Z"/><path class="c" d="M1049.7-1549.507l16.051,556.371,300.044,74.4v-750.053l-298.845,93.57Z"/><path class="d" d="M668.022-1611.582H1092.63V-994.2H243.465v-617.384Z"/><path class="e" d="M243.465-1595.4v-16.18H1092.63v2.648l273.169-85.531v750.053l-273.169-67.734V-994.2H250.78l-8.552,1.623L0-924.988v-758.463Z"/><path class="f" d="M1366-1639.873c-121.657,30.38-335.7,73.888-615,80.372-352.972,8.194-622.429-47.1-751-78.7v-62.454H1366Z"/><path class="f" d="M1366-975.324c-121.657-30.38-335.7-73.888-615-80.372-352.972-8.194-622.429,47.1-751,78.7v48.779l1365.8,2.839Z"/><line class="g" x1="37.609" y1="271.722" transform="translate(202.347 -1317.38)"/><line class="g" x1="42.31" y1="292.407" transform="translate(202.817 -1350.053)"/><line class="g" x1="40.429" y1="304.63" transform="translate(208.458 -1371.678)"/><line class="g" x1="37.909" y1="287.199" transform="translate(215.04 -1363.216)"/><line class="g" x1="39.153" y1="297.338" transform="translate(219.976 -1370.032)"/><line class="g" x1="37.709" y1="292.72" transform="translate(225.382 -1374.733)"/><line class="g" x1="35.705" y1="293.287" transform="translate(238.416 -1362.209)"/><line class="g" x1="35.317" y1="300.492" transform="translate(242.776 -1378.729)"/><line class="g" x1="32.528" y1="285.035" transform="translate(249.828 -1372.148)"/><line class="g" x1="33.225" y1="292.728" transform="translate(255.234 -1376.379)"/><line class="g" x1="31.099" y1="293.496" transform="translate(261.532 -1386.375)"/><line class="g" x2="17.551" y2="167.358" transform="translate(282.108 -1335.323)"/><line class="g" x2="13.79" y2="129.75" transform="translate(297.779 -1326.547)"/><line class="g" x2="10.029" y2="97.782" transform="translate(317.837 -1322.786)"/><path class="g" d="M330.373-1330.935c0,2.507,8.148,80.859,8.148,80.859"/><line class="g" x2="7.522" y2="55.159" transform="translate(347.297 -1335.323)"/><line class="g" x2="5.014" y2="37.609" transform="translate(359.206 -1342.218)"/><path class="h" d="M275-962.15s-11.6,6.9-11.283,15.044l.941,4.074,9.088,3.134s17.238-3.761,24.759-16.3Z"/><path class="h" d="M210.575-985.761s-11.6,6.895-11.283,15.043l.941,4.075,9.088,3.134s17.238-3.761,24.759-16.3Z"/><path class="h" d="M384.67-1339.083,285.029-953.374s24.446,1.88,36.982-19.432L398.7-1327.8Z"/><path class="i" d="M285.029-953.374,209.4-984.309l161.09-344.746,12.234-2.762a4.422,4.422,0,0,1,5.238,5.488Z"/><path class="j" d="M230.083-959.864,224.442-963s4.388-13.789,1.88-23.818-25.7-88.381-32.594-124.109-27.579-182.4-28.833-246.963c0,0-3.761-43.876-12.536-60.8l6.268-1.881s20.685,68.949,23.192,83.993,3.761,26.953,3.761,26.953,6.268,125.988,11.909,144.166,22.565,143.539,33.848,162.344S230.083-959.864,230.083-959.864Z"/><path class="j" d="M221.308-1364.783s10.029-1.253,41.369,23.819,47.638,34.475,77.725,19.431L246.38-1372.3Z"/><path class="h" d="M158.627-1420.569s12.536,31.968,13.79,62.054,18.177,244.456,57.666,371.072c0,0,3.761,18.177,0,27.579H244.5s10.029-17.55-8.149-58.293c0,0-32.968-136.644-33.408-215.622-.4-72.5-10.046-132.85,31.816-130.143a29.535,29.535,0,0,1,18.419,8.1c11.475,10.9,37.408,33.639,57.764,37.426,26.953,5.015,53.9-21.311,59.547-18.177s0,7.521,0,7.521l19.431-4.387,8.775,5.641s9.4-31.967-17.551-40.743-36.355,21.312-64.561,23.192S274.587-1448.775,158.627-1420.569Z"/><path class="h" d="M314.489-964.97s20.058,2.507,23.819-2.508l1.253-6.581s-6.581-5.015-19.744-2.821Z"/></g><path class="k" d="M895.5-986.525s1.122,15.748,2.8,20.862-10.693,3.524-11.239,3.717-10.122-6.118-10.122-6.118,6.131-1.866,4.126-21.347S895.5-986.525,895.5-986.525Z"/><path class="l" d="M869.636-1021.157c0,9.377,6.119,26.379,7.693,33.132s28.062,4.464,28.062,4.464,10.876-44.328,8.934-66.939c-.825-9.628,10.555-15.087,11.83-43.776a109.173,109.173,0,0,1,3.625-24.1c3.469-12.716,8.245-20.232,9.493-26.059,1.88-8.811-9.316-15.5-15.36-17.84s-34.25,9.779-34.25,9.779a204.019,204.019,0,0,0-6.719,19.714c-5.431,18.167-11.427,43.422-7.932,53.425,2.188,6.249,1.322,24.389,0,28.376S869.636-1030.533,869.636-1021.157Z"/><path class="m" d="M882.944-1132.784a84.526,84.526,0,0,1,27.626,9.165c5.752,3.026,12.45,4.539,19.21,5.241,3.469-12.716,8.245-20.232,9.493-26.059,1.88-8.811-9.316-15.5-15.36-17.84s-34.25,9.779-34.25,9.779A204.019,204.019,0,0,0,882.944-1132.784Z"/><g class="n"><path class="o" d="M890.041-1073.3l-.264.518-2.524,4.945-4.224,8.278c-.293-.06-.59-.109-.893-.146-.194-.024-.39-.044-.585-.061l4.42-7.432,3.779-6.325Z"/><path class="o" d="M891.411-1072.292l-.953,1.869-2.014,3.947-3.774,7.4a8.939,8.939,0,0,0-1.131-.365l3.88-6.525,3.385-5.665.46-.765Z"/><path class="o" d="M885.235-1058.828c1.382-2.327,6.817-11.473,7.5-12.555l.012.007-6.37,12.492-.708.287C885.529-1058.678,885.384-1058.756,885.235-1058.828Z"/><path class="o" d="M893.362-1069.439c-.189.241-6.3,10.536-6.3,10.536l1.17-.473Z"/><path class="o" d="M893.923-1067.721c-.151.192-5.03,8.414-5.03,8.414l.935-.376Z"/><path class="o" d="M894.456-1066.534c-.121.153-4.019,6.721-4.019,6.721l.747-.3Z"/><path class="o" d="M881.382-1064.82l13.427,4.553q-.131.684-.231,1.373c-3.615-1.445-8.928-3.571-13.511-5.413Z"/><path class="o" d="M882.282-1066.292l12.9,4.373q-.147.567-.267,1.139c-3.035-1.214-8.5-3.4-12.851-5.149Z"/><path class="o" d="M883.156-1067.7l11.86,4.022.481.654q-.081.252-.154.506c-2.094-.836-8.16-3.261-12.337-4.943Z"/><path class="o" d="M883.957-1068.937l10,3.391.857,1.166s-6.911-2.759-10.965-4.394Z"/><path class="o" d="M884.707-1070.037l8.466,2.871.685.933s-6.075-2.426-9.224-3.7Z"/><path class="o" d="M885.209-1070.94l7.1,2.409.548.746s-5.273-2.106-7.679-3.08Z"/></g><path class="p" d="M843.23-949.782c5.8.777,17.554-.109,26.1-.586h.007c.272-.021.524-.034.783-.048,4.457-.238,7.919-.347,8.982-.007.116.041.259.075.429.116.423.1,1.009.218,1.724.327,6.447,1,23.094,2,23.3-3.005a12.263,12.263,0,0,0-.273-2.869c-.041-.2-.082-.409-.136-.613-.007-.014-.007-.02-.014-.034-.061-.273-.129-.552-.211-.831-.007-.007-.007-.007-.007-.014-1.472-5.165-5.036-10.624-5.826-10.154-10.576,6.3-20.92-1.151-23.053-2.848-.266-.211-.4-.334-.4-.334s-.4.027-1.166.1c-.415.048-.947.109-1.574.184-.341.041-.709.089-1.111.143-.136.021-.272.034-.408.062-.328.041-.675.088-1.043.143-.177.027-.354.054-.545.088h-.007c-1,.157-2.119.348-3.353.58-.77.143-1.574.3-2.426.477-1.281.259-2.657.565-4.116.906-.136.041-.279.089-.415.136-.729.225-1.445.477-2.147.736A44.741,44.741,0,0,0,849.608-964L849.6-964C839.707-958.334,836.068-950.736,843.23-949.782Z"/><path class="q" d="M849.6-964a13.883,13.883,0,0,1,9.956,10.119s4.552-.838,9.711-1.594l1.356-.184c.824-.116,1.662-.232,2.494-.334.715-.089,1.424-.17,2.112-.245,3.83-.409,7.142-.559,8.218-.048,2.917,1.377,21.03,4.818,20.832.429a2.142,2.142,0,0,0-.136-.613c-.007-.014-.007-.02-.014-.034a5.213,5.213,0,0,1-.211-.831c-.007-.007-.007-.007-.007-.014-1.472-5.165-5.036-10.624-5.826-10.154-10.576,6.3-20.92-1.151-23.053-2.848-.266-.211-.4-.334-.4-.334s-.4.027-1.166.1c-.415.048-.947.109-1.574.184-.341.041-.709.089-1.111.143-.136.021-.272.034-.408.062-.328.041-.675.088-1.043.143-.177.027-.354.054-.545.088h-.007c-1,.157-2.119.348-3.353.58-.77.143-1.574.3-2.426.477-1.281.259-2.657.565-4.116.906-.136.041-.279.089-.415.136-.729.225-1.445.477-2.147.736A44.741,44.741,0,0,0,849.608-964Z"/><path class="r" d="M869.329-970.048c.2.184.477.45.818.8a20.252,20.252,0,0,1,3.2,4.1,9.594,9.594,0,0,1,.743,1.594c.075.211.137.429.191.648l1.983-.484a10.375,10.375,0,0,0-1.036-2.576v-.007a15.252,15.252,0,0,0-.961-1.533,22.628,22.628,0,0,0-2.378-2.883c-.341.041-.709.089-1.111.143-.136.021-.272.034-.408.062C870.044-970.15,869.7-970.1,869.329-970.048Z"/><path class="r" d="M863-968.9c1.138,1.07,4.062,4.054,4.764,6.957l1.989-.484c-.661-2.725-2.814-5.363-4.327-6.95C864.654-969.237,863.85-969.081,863-968.9Z"/><path class="r" d="M856.32-967.125c1.329,1.322,3.673,3.939,4.293,6.5l1.983-.484c-.627-2.616-2.637-5.151-4.129-6.753C857.738-967.636,857.022-967.384,856.32-967.125Z"/><path class="s" d="M873.118-955.99a8.385,8.385,0,0,0,1.608,1.036,11.681,11.681,0,0,1,4.8,4.647c1.206,2.1,1.581,4.212,1.159,5.322l1.274.484a7.617,7.617,0,0,0-.709-5.479,13.177,13.177,0,0,0-5.915-6.194l-.109-.061c-3.393-1.765-2.835-3.789-1.138-7.326q.144-.306.307-.634c.191-.388.381-.783.565-1.178.1-.205.184-.409.266-.607a4.81,4.81,0,0,0,.205-3.68,3.159,3.159,0,0,0-.4-.688c-.266-.211-.4-.334-.4-.334s-.4.027-1.166.1l-.184.539a1.728,1.728,0,0,1,.913.933,2.729,2.729,0,0,1,.075,1.595,6.664,6.664,0,0,1-.531,1.56l-.389.8c-.061.122-.115.245-.177.361C871.653-961.68,870.085-958.47,873.118-955.99Z"/><path class="s" d="M865.738-962.668a25.542,25.542,0,0,0,1.737,3.455,18.472,18.472,0,0,1,1.793,3.741,5.878,5.878,0,0,1-.539,4.777l.6.327h.007l.593.32c.068-.122.129-.245.19-.368a7.087,7.087,0,0,0,.505-5.24,18.885,18.885,0,0,0-1.963-4.232,23.226,23.226,0,0,1-1.649-3.264,3.692,3.692,0,0,1-.232-1.131,4.174,4.174,0,0,1,.8-2.522,9.535,9.535,0,0,1,2.569-2.446c.327-.218.538-.341.552-.347l-.327-.593c-.328.041-.675.088-1.043.143-.177.027-.354.054-.545.088h-.007a11,11,0,0,0-2.078,2.017,6.593,6.593,0,0,0-1.057,1.963A4.882,4.882,0,0,0,865.738-962.668Z"/><path class="k" d="M995.049-988.993s3.086,15.484,5.4,20.346-10.167,4.836-10.685,5.1-10.808-4.8-10.808-4.8,5.848-2.619,1.417-21.7S995.049-988.993,995.049-988.993Z"/><path class="l" d="M1014.8-1151.94c-.516,6.082-4.489,14.38-6.281,27.986a109.942,109.942,0,0,0-.448,23.424c2.022,24.767-5.653,33.23-6.441,41.18a11.9,11.9,0,0,0,.19,3.733c4.76,22.189-.476,67.53-.476,67.53s-2.274.487-5.532,1.008c-7.777,1.243-21.177,2.661-22.868-1.92-2.408-6.5-10.609-22.6-11.784-31.906s.785-26.138,1.6-30.266-.6-22.226-3.555-28.152c-3.369-6.765-2.914-21.817-1.254-36.684,1.925-17.223,5.483-34.191,6.625-37.714,0,0,26.465-15.548,32.754-13.994S1015.566-1160.917,1014.8-1151.94Z"/><path class="m" d="M1014.8-1151.94c-.516,6.082-4.489,14.38-6.281,27.986-7.022-.019-16.459-2.846-25.79-4.888-7.812-1.706-17.893,6.305-24.782,12.835,1.925-17.223,5.483-34.191,6.625-37.714,0,0,26.465-15.548,32.754-13.994S1015.566-1160.917,1014.8-1151.94Z"/><g class="n"><path class="o" d="M982.779-1108.336l-.5.766-4.8,7.316-8.03,12.244q.465.532.9,1.109c.184.247.364.5.54.753L977.607-1098l5.705-10.111Q983.045-1108.222,982.779-1108.336Z"/><path class="o" d="M980.331-1109.425l-1.813,2.765-3.829,5.838-7.179,10.943a14.553,14.553,0,0,1,1.383,1.263l5.9-10.406c1.841-3.263,3.694-6.546,5.109-9.055q.364-.652.688-1.227Z"/><path class="o" d="M966.728-1090.458c2.106-3.708,10.379-18.288,11.323-20.073l-.019-.009-12.121,18.471.16,1.193C966.294-1090.743,966.514-1090.6,966.728-1090.458Z"/><path class="o" d="M974.9-1109.865c-.182.447-9.5,16.847-9.5,16.847l-.267-1.971Z"/><path class="o" d="M972.114-1109.292c-.145.357-7.585,13.454-7.585,13.454l-.217-1.572Z"/><path class="o" d="M970.074-1109.094c-.115.285-6.06,10.748-6.06,10.748l-.174-1.256Z"/><path class="o" d="M977.938-1089.865l-16.716-14.818q-.834.711-1.7,1.389c4.8,3.818,11.86,9.428,17.959,14.262Z"/><path class="o" d="M979.25-1092.246l-16.056-14.232q-.66.644-1.35,1.254c4.031,3.206,11.295,8.982,17.083,13.565Z"/><path class="o" d="M980.492-1094.541l-14.766-13.089-1.27-.147c-.188.2-.38.407-.572.606,2.78,2.212,10.836,8.62,16.4,13.022C980.353-1094.28,980.423-1094.41,980.492-1094.541Z"/><path class="o" d="M981.561-1096.6l-12.449-11.036-2.266-.263s9.174,7.3,14.576,11.574C981.469-1096.419,981.515-1096.511,981.561-1096.6Z"/><path class="o" d="M982.48-1098.489l-10.54-9.343-1.811-.209s8.065,6.419,12.265,9.735C982.422-1098.367,982.452-1098.428,982.48-1098.489Z"/><path class="o" d="M983.324-1099.88l-8.841-7.838-1.45-.167s7,5.572,10.212,8.1C983.271-1099.814,983.3-1099.848,983.324-1099.88Z"/></g><path class="t" d="M1001.824-1055.617c4.76,22.189-.476,67.53-.476,67.53s-2.274.487-5.532,1.008c-.012-.472-5.6.278-5.34-.2,10.61-19.643,8.4-52.455,9.14-61.033.169-1.975.443-7.957,2.018-11.041A11.9,11.9,0,0,0,1001.824-1055.617Z"/><path class="p" d="M948.532-945.018c5.857.043,17.4-2.308,25.82-3.852h.006c.268-.055.517-.1.772-.146,4.392-.795,7.812-1.337,8.91-1.132.12.026.266.042.44.061.432.049,1.028.09,1.752.109,6.521.186,23.162-.913,22.738-5.9a12.284,12.284,0,0,0-.63-2.812c-.066-.2-.132-.4-.212-.592-.008-.012-.009-.019-.018-.032-.095-.262-.2-.531-.313-.8-.008-.006-.008-.006-.009-.013-2.107-4.94-6.327-9.909-7.053-9.343-9.7,7.572-20.9,1.479-23.228.063-.29-.177-.441-.281-.441-.281s-.395.077-1.143.247c-.407.1-.926.227-1.539.38-.333.083-.692.177-1.084.281-.133.037-.266.068-.4.112q-.478.123-1.016.273c-.173.049-.345.1-.53.156h-.007c-.974.281-2.059.61-3.253.995-.747.238-1.525.494-2.348.777-1.238.417-2.565.894-3.969,1.415-.131.057-.267.123-.4.187-.7.315-1.373.654-2.037,1a44.719,44.719,0,0,0-6.268,3.938l-.006.007C943.965-953.062,941.306-945.068,948.532-945.018Z"/><path class="q" d="M953.072-959.92a13.885,13.885,0,0,1,11.145,8.792s4.411-1.4,9.434-2.8c.432-.117.877-.235,1.323-.353.8-.218,1.62-.438,2.432-.644.7-.177,1.392-.347,2.065-.508,3.749-.885,7.016-1.449,8.148-1.077,3.066,1,21.467,2.145,20.721-2.184a2.155,2.155,0,0,0-.212-.592c-.008-.012-.009-.019-.018-.032a5.065,5.065,0,0,1-.313-.8c-.008-.006-.008-.006-.009-.013-2.107-4.94-6.327-9.909-7.053-9.343-9.7,7.572-20.9,1.479-23.228.063-.29-.177-.441-.281-.441-.281s-.395.077-1.143.247c-.407.1-.926.227-1.539.38-.333.083-.692.177-1.084.281-.133.037-.266.068-.4.112q-.478.123-1.016.273c-.173.049-.345.1-.53.156h-.007c-.974.281-2.059.61-3.253.995-.747.238-1.525.494-2.348.777-1.238.417-2.565.894-3.969,1.415-.131.057-.267.123-.4.187-.7.315-1.373.654-2.037,1a44.719,44.719,0,0,0-6.268,3.938Z"/><path class="r" d="M971.886-968.4c.219.158.529.386.911.688a20.28,20.28,0,0,1,3.691,3.662,9.582,9.582,0,0,1,.936,1.489c.1.2.189.409.271.619l1.907-.729a10.427,10.427,0,0,0-1.351-2.426v-.006a15.179,15.179,0,0,0-1.145-1.4,22.651,22.651,0,0,0-2.721-2.562c-.333.083-.692.177-1.084.281-.133.037-.266.068-.4.112Q972.424-968.545,971.886-968.4Z"/><path class="r" d="M965.748-966.466c1.264.919,4.538,3.514,5.6,6.306l1.914-.73c-1-2.621-3.465-4.968-5.164-6.353C967.349-967.005,966.571-966.749,965.748-966.466Z"/><path class="r" d="M959.346-963.865c1.484,1.145,4.137,3.448,5.074,5.912l1.906-.729c-.949-2.517-3.262-4.78-4.943-6.182C960.688-964.549,960.01-964.21,959.346-963.865Z"/><path class="u" d="M986.967-1372.751s-27.431-.392-29.782-10.972-2.743-16.352,0-22.48-15.675,6.805-15.675,6.805,1.96,8.229,0,14.5-6.27,6.4-12.931,5.745,0,20.51,0,20.51,23.864,2.588,25.647,3.45,26.471.314,27.647,0S986.967-1372.751,986.967-1372.751Z"/><path class="v" d="M995.234-1208.313c-1.116.084-6.43-2.154-14.93,3.238s-17.188,13.819-23.62,12.523-2.123-8.627,1.6-10.236c3.349-1.449,9.673-3.334,8.3-5.737s-4.353-2.132-7.358.008-5.4.078-4.373-1.121,8.485-5.477,10.283-5.837c1.33-.267,7.374,1.554,10.549.787s15.79-4.953,15.79-4.953Z"/><path class="w" d="M818.489-1301.278s14.4,41.734,29.4,48.743c13.38,6.254,24.251,5.187,33.871,1.8s15.149-14.2,15.149-14.2l-.136,1.4-.988,5.738L865.363-1141.9l163.5,3.608-12.141-118.736-.832-7.38-.422-3.727,2.385,10.3a76.549,76.549,0,0,0,14.14-13.043,79.923,79.923,0,0,0,14.876-27.36c2.964-9.247,5.219-17.356,6.869-24.484,9.56-41.35-1.261-49.848-12.416-57-.382-.225-.77-.443-1.159-.654a.243.243,0,0,0-.048-.02c-15.134-8.225-35.871-10.951-59.81-3.244a113.408,113.408,0,0,0-12.348,4.8c-2.126.968-10.255,18.277-23.407,12.185-.28-.13-.559-.259-.832-.4-12.007-5.792-14.753-12.4-16.722-15.114,0-.007-.007-.014-.014-.021-.068-.081-.129-.163-.191-.245-1.383-1.744-4.75-3.591-9.356-5.158-12.511-4.259-34.222-6.808-45.473,1.09s-21.622,22.249-27.489,41.97C834.609-1314.249,818.489-1301.278,818.489-1301.278Z"/><path class="x" d="M955.557-1341.579l-15.382,31.167-34.4,5,24.888,24.26-5.875,34.256,30.764-16.173,30.764,16.173-5.875-34.256,24.888-24.26-34.4-5Z"/><path class="y" d="M1009.659-1229.643c4.253,5.315,10.4,25.751,13.558,36.164l-9.735-89.685-2.623-11.66c-16.355-14.671-53.618,33.8-55.3,46.791S1003.887-1236.86,1009.659-1229.643Z"/><path class="y" d="M943.716-1367.054c3.891,5.043,12.995,10.229,18.221,6.808,7.714-5.043,21.507-5.05,23.912-16.832.954-4.661-1.833-6.3-5.547-6.562a113.312,113.312,0,0,0-12.347,4.8c-2.127.968-10.256,18.277-23.408,12.185C944.268-1366.788,943.988-1366.917,943.716-1367.054Z"/><path class="v" d="M885.507-1248.033a9.839,9.839,0,0,0-.675.927Z"/><path class="w" d="M1013.311-1333.009l18.679,62.134a79.923,79.923,0,0,0,14.876-27.36c2.964-9.247,5.219-17.356,6.869-24.484l-25.466-22.651Z"/><path class="y" d="M866.625-1281.177s13.635,10.425,4.463,19.293-10.35-15.183-10.35-15.183l4.625-4.11Z"/><path class="k" d="M822.49-1329.189c-.533-.969-3.854-14.042-8.049-18.158s-10.923-9.706-12.621-12.413c-2-3.184-3.847-2.317-1.869,1.751,1.286,2.644,4.329,7.553,5.245,8.339.444.382-2.16-2.461-4.745-5.853-2.75-3.607-5.528-7.771-6.335-7.118-1.565,1.267,5.714,12.448,7.289,14.057a43.934,43.934,0,0,1-4.088-4.317c-1.724-2.1-3.376-4.9-4.3-4.717-1.45.3,1.74,7.044,5.514,11.209-.069.24-1.716-.574-5.792-5.928-.41-.538-1.965-1.272-1.066,1.039,1.892,4.864,2.313,7.2,7.34,11.409,4.9,4.108,11.47,7.087,14.716,11.52Z"/><path class="k" d="M840.627-1265.847c-12.956-19.569-20.535-46.4-25.122-58.3a25.73,25.73,0,0,0,6.006-9.191l.446.806c6.986,8.7,23.057,26.381,31.979,42.451-.279,2.225,1.305-11.477,6.757-14.273,11.027-5.654,30.4-3.852,29.823,4.433C880.58-1293.284,852.094-1248.507,840.627-1265.847Z"/><path class="k" d="M813.733-1328.369l3.452,9.1,6.06-11.612s-.894-.032-3.26-5.8-6.031,1.52-6.031,1.52Z"/><path class="k" d="M816-1343.433s.223-8.028-3.443-12.316c-2.18-2.549-1.465-3.29-1.71-3.877-.813-1.95-2.129,2.475-.638,5.074,1.213,2.112-.858,6.607-.438,8.249s2.432,5.645,3.654,5.776S816-1343.433,816-1343.433Z"/><path class="z" d="M929.355-1403.872c5.459,2.207,5.376.132,3.509,8.443-.214,4.8,5.188,1.681,10.09,1.26a8.473,8.473,0,0,1,3.034.2c2.86.516,6.844-1.367,10.744-2.958,7.094-5.428,12.528-.463,7.787-7.989-.089-.082-.188-.158-.267-.246-5.7-5.362,8.544-5.773,2.953-10.229-6.356.689,6.27-3.408-2.958-10.744-7.7-.831,2.224-11.144-7.989-7.787-2.69-3.211-9.692,4.126-10.465-2.692-4.126-1.476-7.7,2.88-10.754,2.964-10.426,3.362-2.428,8.091-7.777,7.983-6.229,1.314-3.628,8.813-2.7,10.471C923.476-1410.228,921.411-1399.179,929.355-1403.872Z"/><path class="aa" d="M942.954-1394.169a8.473,8.473,0,0,1,3.034.2c2.86.516,6.844-1.367,10.744-2.958,7.094-5.428,12.528-.463,7.787-7.989-.089-.082-.188-.158-.267-.246-2.778,1.01-5.612,1.451-6.779-.527-5.269-8.928-16.442-3.688-16.442-3.688s.711,7.765.92,8.528C942.061-1400.46,942.524-1397.331,942.954-1394.169Z"/><path class="k" d="M937.944-1418.8s-13.061,4.086-5.17,17.444,10.238,14.249,17.968,4.22S949.773-1424.97,937.944-1418.8Z"/><rect class="a" width="3.593" height="2.875" transform="translate(878.531 -1357.231) rotate(-19.685)"/><rect class="a" width="2.875" height="2.875" transform="translate(871.088 -1354.568) rotate(-19.685)"/><rect class="a" width="2.875" height="10.78" transform="translate(866.004 -1368.778) rotate(-19.685)"/><path class="a" d="M917.947-1379.334l.089.25c1.854,5.181-.234,11.62-5.416,13.474l-6.238,2.231c-.012-.759-.861-1.619-1.1-2.284l-.013-.035c-1.015-2.838-3.49-4.43-6.326-3.416L885.2-1364.2l-3.632-10.15,30.187-10.8C914.595-1384.636,916.821-1382.48,917.947-1379.334Z"/><path class="a" d="M902.762-1364.373c.321.9-.246,1.614-1.144,1.935l-14,5.008-.969-2.706,14-5.008A1.5,1.5,0,0,1,902.762-1364.373Z"/><rect class="a" width="3.593" height="10.78" transform="translate(873.447 -1371.441) rotate(-19.685)"/><path class="a" d="M842.024-1348.75a9.556,9.556,0,0,1-.793-1.654,8.875,8.875,0,0,1,5.587-11.51l14.449-5.17,3.632,10.15Z"/><path class="a" d="M851.216-1344.406c-2.527.141-4.608.122-6.3-.8l21.439-7.671.969,2.707Z"/><path class="a" d="M838.679-1339.92a1.5,1.5,0,0,1-2.112-.771c-.322-.9.244-1.614,1.144-1.936l3.254-1.164a16.267,16.267,0,0,0,3.269,1.883Z"/><rect class="ab" width="3.593" height="1.437" transform="translate(872.963 -1372.795) rotate(-19.685)"/><path class="ab" d="M851.216-1344.406l-6.982,2.5a16.267,16.267,0,0,1-3.269-1.883l3.947-1.412C846.608-1344.284,848.689-1344.265,851.216-1344.406Z"/><path class="ab" d="M911.473-1388.862l22.043-7.886c-.19.068-.037.831.147,1.344a3.388,3.388,0,0,0,1.619,1.84l-18.264,6.535A12.252,12.252,0,0,0,911.473-1388.862Z"/><path class="ab" d="M911.754-1385.146l-30.187,10.8-.484-1.354,24.758-8.857A14.341,14.341,0,0,1,911.754-1385.146Z"/><path class="ab" d="M868.227-1371.1l.484,1.353-2.707.969-.641-1.792a19.843,19.843,0,0,1,2.241-.307Z"/><path class="ab" d="M860.738-1368.564l.529,1.48-14.449,5.17a8.875,8.875,0,0,0-5.587,11.51,9.556,9.556,0,0,0,.793,1.654l-3.53,1.263a14.11,14.11,0,0,1-.87-1.937,12.962,12.962,0,0,1,.588-10.235c10.2-4.026,18.756-7.374,21.775-8.57A5.458,5.458,0,0,0,860.738-1368.564Z"/><path class="ac" d="M776.289-1356.918c3.653,2.773,8.1,6.075,19.537,3.4S850.7-1370.5,858.3-1372.939a6.628,6.628,0,0,1,.788-.23l1.648,4.6a6.577,6.577,0,0,1-.755.322c-3.02,1.2-11.745,4.59-21.945,8.616-14.9,5.882-32.5,12.956-38.753,16.033-10.537,5.183-11.842,10.544-12.907,15.005-.775,3.247-1.845,6.736-4.1,3.587a64.631,64.631,0,0,1-8.231-15.143,64.416,64.416,0,0,1-3.227-16.935C770.564-1360.945,773.629-1358.936,776.289-1356.918Z"/><rect class="ad" width="3.593" height="3.593" transform="translate(871.753 -1376.178) rotate(-19.685)"/><path class="ae" d="M868.227-1371.1l-.623.223a19.843,19.843,0,0,0-2.241.307l-1.425-3.982a8.354,8.354,0,0,0,2.321.34l.757-.271Z"/><rect class="ad" width="3.593" height="4.312" transform="translate(877.079 -1361.291) rotate(-19.685)"/><rect class="ad" width="2.875" height="4.312" transform="translate(872.056 -1351.861) rotate(-19.685)"/><rect class="ad" width="2.875" height="4.312" transform="translate(869.635 -1358.628) rotate(-19.685)"/><rect class="ad" width="3.593" height="4.312" transform="translate(879.5 -1354.525) rotate(-19.685)"/><path class="ac" d="M887.62-1357.43l14-5.008c.9-.321,1.465-1.036,1.144-1.935a1.5,1.5,0,0,0-2.113-.771l-14,5.008-1.452-4.06,13.745-4.918c2.836-1.014,5.311.578,6.326,3.416l.013.035c.238.665,1.087,1.525,1.1,2.284l6.238-2.231c5.182-1.854,7.27-8.293,5.416-13.474l-.089-.25a8.717,8.717,0,0,0-6.311-5.763,9.667,9.667,0,0,0-5.795.54l-24.758,8.857-1.21-3.383,24.758-8.857c2.29-.82,4.5-1.481,6.77-1.123a12.169,12.169,0,0,1,5.282,2.127,12.227,12.227,0,0,1,4.647,6.391l.09.251c2.545,7.115-.474,15.521-7.59,18.067l-11.013,3.94-13.745,4.917Z"/><path class="ac" d="M864.9-1356.934l1.452,4.06-21.439,7.671-3.947,1.412-3.254,1.164c-.9.322-1.466,1.038-1.144,1.936a1.5,1.5,0,0,0,2.112.771l5.555-1.988,6.982-2.5,16.1-5.761,1.452,4.06-24.843,8.888-4.087,1.462c-2.838,1.016-6.624-.923-7.639-3.76l-.013-.035c-1.015-2.838.941-6.016,3.779-7.031l2.525-.9,3.53-1.263Z"/><path class="ad" d="M874.745-1384.881l-2.03.726-.726-2.03,4.737-1.695.726,2.03-1.353.484.726,2.03-1.353.484Z"/><path class="ab" d="M882.755-1356.093l-1.165-3.256-1.164-3.255-3.689-10.309-.582-1.628-1.359-3.8-.927-2.591a1.268,1.268,0,0,1,.767-1.622L875.9-1383l1.086-.388h0a1.269,1.269,0,0,1,1.622.767l.927,2.592,1.359,3.8.582,1.627,3.688,10.31,1.165,3.254,1.165,3.256,1.358,3.8,2.322,6.488a2.392,2.392,0,0,1-1.447,3.058h0a2.638,2.638,0,0,1-3.373-1.595l-2.238-6.256Z"/><path class="ad" d="M867.3-1382.218l-2.707.968-.726-2.03,4.737-1.695.726,2.03-.677.242.726,2.03-1.353.484Z"/><path class="ab" d="M874.635-1353.188l-1.165-3.256-1.164-3.255-3.689-10.309-.582-1.628-1.359-3.8-.507-1.418a2.515,2.515,0,0,1,1.521-3.215l.613-.22,1.628-.582.127-.046,1.355,3.787,1.359,3.8.582,1.627,3.688,10.31,1.165,3.255,1.165,3.255,1.358,3.8,2.28,6.372a2.516,2.516,0,0,1-1.521,3.216h0a2.516,2.516,0,0,1-3.216-1.521l-2.279-6.372Z"/><path class="ad" d="M859.182-1379.313l-2.03.726-.726-2.03,4.737-1.695.726,2.03-1.353.484.726,2.03-1.353.484Z"/><path class="ab" d="M867.192-1350.525l-1.165-3.256-1.165-3.255-3.688-10.309-.436-1.219-1.648-4.6-.364-1.02a2.515,2.515,0,0,1,1.521-3.215l.46-.165,1.627-.582.281-.1,1.323,3.7,1.425,3.982.548,1.53,3.688,10.31,1.164,3.255,1.165,3.255,1.359,3.8,2.28,6.372a2.516,2.516,0,0,1-1.521,3.216h0a2.516,2.516,0,0,1-3.216-1.521l-2.28-6.372Z"/><path class="ac" d="M933.274-1397.424a3.9,3.9,0,0,1,2.582-3.438,3.915,3.915,0,0,1,1.246-.226,1.327,1.327,0,0,1,.856-1.072,1.545,1.545,0,0,1,1.992,1.124l1.942,5.425a1.546,1.546,0,0,1-.828,2.132,1.571,1.571,0,0,1-1.741-.492,3.459,3.459,0,0,1-.892.479,3.841,3.841,0,0,1-3.27-.323,3.88,3.88,0,0,1-1.68-2.052A3.9,3.9,0,0,1,933.274-1397.424Z"/><path class="y" d="M930.24-1288.576s25.384,27.059,23.145,49.027l24.7-31.561-17.277-23.54Z"/><path class="k" d="M952.653-1281.986c-1.118-.137-35.886,1.578-43.838-5.748s-30.745-58.554-33.072-72.964c0,0,12.567,8.507,13.55,8.924s32.719,46.765,37.49,48.886c1.628.724,18.034-4.96,35.05,1.569S952.653-1281.986,952.653-1281.986Z"/><path class="k" d="M887.213-1356.533c-.529-.964-3.873-13.835-8.016-18s-8.909-7.738-10.591-10.44c-1.98-3.177-5.662-4.526-3.694-.487,1.278,2.626,4.3,7.524,5.2,8.324.438.389-2.135-2.479-4.694-5.881-2.721-3.618-4.115-2.981-4.9-2.374-1.527,1.178,4.329,7.55,5.884,9.176a45.859,45.859,0,0,1-4.039-4.359c-1.7-2.109-3.448-2.679-4.35-2.53-1.42.235,1.858,4.706,5.587,8.906-.065.231-1.687-.623-5.721-5.993-.4-.539-1.936-1.312-1.039.975,1.888,4.812,2.316,7.1,7.276,11.394,4.837,4.185,11.383,7.347,13.762,11.685Z"/><path class="k" d="M880.945-1372.228s.224-8.027-3.443-12.315c-2.18-2.549-1.465-3.29-1.71-3.878-.813-1.949-2.129,2.476-.638,5.075,1.213,2.112-.858,6.607-.437,8.249s2.432,5.645,3.653,5.775S880.945-1372.228,880.945-1372.228Z"/><path class="k" d="M887.213-1356.533s.786,2.69,5.65,9.457-5.756.79-5.756.79l-9.518-12.887Z"/><path class="w" d="M953.385-1239.549s24.416,1.445,48.948-9.465a88.109,88.109,0,0,0,14.386-8.014c.381-.265.756-.531,1.131-.8a76.549,76.549,0,0,0,14.14-13.043c6.139-7.3,12.16-13.593,17.764-23.775,28.381-51.559,2.72-77.917-8.435-85.072-.034-.02-.062-.041-.1-.061a11.6,11.6,0,0,0-1.063-.593.243.243,0,0,0-.048-.02c-13.342-6.392-36.634,17.894-36.634,17.894L974.3-1348.471s-16.007,27.095-36.661,38.427C937.644-1310.044,960.908-1262.636,953.385-1239.549Z"/><path class="k" d="M816-1344.629s.223-8.028-3.443-12.316c-2.18-2.548-1.465-3.289-1.71-3.877-.813-1.95-2.129,2.475-.638,5.075,1.213,2.112-.858,6.607-.438,8.248s2.432,5.646,3.654,5.776S816-1344.629,816-1344.629Z"/><path class="w" d="M843.084-1306.5s29.1,18.418,25.688,39.4,18.077,10.235,18.077,10.235L900-1289.092l-8.685-15.393-19.771-17.958Z"/><path class="af" d="M1198.505-1407.376l2.194,2.982,95.129-1.337-5.623-6.548Z"/><path class="ag" d="M1291.029-1451.92s3.9,3.368,3.556,3.029,1.243,43.161,1.243,43.161l-9.375-6.871,4.6-38.654"/><path class="ah" d="M1196.479-1432.167s3.931-4.921,6.271-.437c2.357,4.517,17.849-23.875,36.334-23.7,20.56.2,22.251,10.358,28.883,9.733,6.867-.646,9.695-5.976,15.162-7.354,5.626-1.417,7.9,2,7.9,2l1.334,43.521-93.83,1.355Z"/><path class="af" d="M1178.776-1149.273l5.154-1.725,1.591-7.838Z"/><path class="af" d="M1293.818-1170.29l3.928-1.457-3.489-4.564-1.13,1.031Z"/><path class="af" d="M1292.86-1173.562l-42.529-34.189a10.6,10.6,0,0,0-5.406-2.289,7.589,7.589,0,0,0-6.416,2.045l-52.791,55.7c-2.216,2.34-3.1,1.45-1.961-1.959l17.549-52.835,26.2-78.876a10.509,10.509,0,0,1,4.637-5.536l4.83-1.706.05-3.825.03-1.95.06-3.825.03-1.951.06-3.833.03-1.951.049-3.833.03-1.95.06-3.833.03-1.95.1-6.734.03-1.959.1-6.722.03-1.959.1-6.731.03-1.959.149-10.215.03-1.958.13-8.476.029-1.967.15-10.22.03-1.967.04-3.042.109-7.186.03-1.967.149-10.235.03-1.966.129-8.507.03-1.966.15-10.25.029-1.965.219-14.514.02-1.178c.289-.067-.477-3.853-.547-4.079a5.819,5.819,0,0,0-5.512-4.371c-.782.019-2.187.745-2.619-.049-.351-.634.7-3.843.874-4.726.291-1.423.612-2.844.933-4.264.121-.558.231-1.108.351-1.667a7.179,7.179,0,0,1-3.878,1.117c-2.622-.014-4.422-1.425-4.048-3.157s2.788-3.155,5.427-3.177a4.989,4.989,0,0,1,3.391,1.082c.35-1.656.7-3.3,1.05-4.964.06-.265.11-.53.17-.794a7.362,7.362,0,0,1-3.838,1.135c-2.645.034-4.461-1.348-4.077-3.093s2.811-3.22,5.472-3.291a5.048,5.048,0,0,1,3.353.972c.409-1.9.818-3.79,1.227-5.7a7.517,7.517,0,0,1-3.808,1.16c-2.659.085-4.49-1.27-4.118-3.021.383-1.769,2.845-3.292,5.519-3.413a5.12,5.12,0,0,1,3.344.876c.379-1.759.757-3.518,1.135-5.294.318-1.447.607-2.895.925-4.35.01-.018,1.39-6.213,2.916-6.723l.624-.2c1.542-.517,2.993,4.823,2.993,4.823q1.138,4.113,2.274,8.247a11.723,11.723,0,0,1,2.935-2.322c2.866-1.617,5.567-1.65,5.985-.051s-1.587,4.211-4.477,5.8a9.37,9.37,0,0,1-3.185,1.125q.589,2.128,1.177,4.255a11.912,11.912,0,0,1,2.849-2.161c2.9-1.579,5.618-1.566,6.045.047s-1.612,4.2-4.523,5.749a9.229,9.229,0,0,1-3.077,1.073c.391,1.4.773,2.8,1.164,4.195a11.681,11.681,0,0,1,2.761-2.019c2.918-1.542,5.671-1.484,6.1.143s-1.626,4.193-4.558,5.714a9.838,9.838,0,0,1-2.971,1c.02.059.039.127.059.2.7,2.539,1.5,5.15,2.046,7.767a2.664,2.664,0,0,1,.059.858c-.136,1.11-1.218,1.433-2.545,2.09a11.5,11.5,0,0,0-4.778,3.908,12.822,12.822,0,0,0-2.479,6.459,6.977,6.977,0,0,0-.039,1.267l.492,15.775.069,1.98.325,10.336.059,1.978.266,8.582.068,1.988.325,10.355.059,2,.324,10.37.059,1.985.324,10.394.069,1.994.265,8.624.069,1.993.324,10.413.059,2,.216,6.873.068,2,.216,6.88.059,2,.216,6.9.068,2,.118,3.933.059,2,.127,3.932.059,2.009.127,3.931.059,2.008.127,3.94.059,2.008.118,3.577.009.362,3.509,2.182a13.4,13.4,0,0,1,5.452,6.639l36.668,107.354C1299.542-1171.211,1297.293-1170,1292.86-1173.562Z"/><path class="af" d="M1255.3-1477.18l3.513-.718.41,2.558Z"/><path class="af" d="M1252.383-1486.156l3.525-.7.411,2.565Z"/><path class="af" d="M1250.126-1495.2l3.535-.682.412,2.571Z"/><path class="af" d="M1239.084-1504.939l4.821-.831-.691,3.914s-2.89.372-2.9-.03A24.956,24.956,0,0,0,1239.084-1504.939Z"/><path class="ai" d="M1257.163-1461.3c-.136,1.11-1.218,1.433-2.545,2.09a11.5,11.5,0,0,0-4.778,3.908,12.822,12.822,0,0,0-2.479,6.459,6.977,6.977,0,0,0-.039,1.267l.492,15.775.069,1.98.325,10.336.059,1.978.266,8.582.068,1.988.325,10.355.059,2,.324,10.37.059,1.985.324,10.394.069,1.994.265,8.624.069,1.993.324,10.413.059,2,.216,6.873.068,2,.216,6.88.059,2,.216,6.9.068,2,.118,3.933.059,2,.127,3.932.059,2.009.127,3.931.059,2.008.127,3.94.059,2.008.118,3.577-8.267,2.443s-3.082-54.141-5.557-95.633c-1.435-24.087-2.673-43.886-2.973-46.269-.32-2.492,1.418-7.312,3.848-12.287,3.89-7.956,9.514-16.282,11.292-16.209A42,42,0,0,0,1257.163-1461.3Z"/><path class="aj" d="M1244.925-1210.04a7.589,7.589,0,0,0-6.416,2.045l-52.791,55.7c-2.216,2.34-3.1,1.45-1.961-1.959l17.549-52.835c19.508-11.383,41.225-21.595,45.02-13.093C1247.381-1217.817,1246.76-1214.308,1244.925-1210.04Z"/><path class="ak" d="M1180.975-1150.487c-2.228,2.346-3.109,1.462-1.971-1.96l43.989-132.113a10.672,10.672,0,0,1,10.069-6.984l12.79.714c4.471.247,9.432,4.1,10.962,8.571l36.853,107.6c1.744,5.086-.518,6.311-4.974,2.743l-42.75-34.239c-3.805-3.047-9.143-3.121-11.892-.228Z"/><path class="al" d="M1226.855-1276.707a27.941,27.941,0,0,1,3.184-6.906c.759-.849,5.505-1.265,8.62-1.056l1.368.091a29.415,29.415,0,0,1,7.861,1.412c1.151.566,3.567,5.385,4.663,8.62l28.2,83.323c1.21,3.572-.359,4.488-3.463,2.045l-22.917-18.046c-2.843-2.238-7.425-5.447-10.184-7.137l-2.771-.527c-4.745-.9-7.6.78-7.6.78a43.021,43.021,0,0,0-7.988,6.4l-31.691,33.949c-1.7,1.824-2.375,1.2-1.5-1.389Z"/><path class="am" d="M1250.756-1263.757l-21.547-2.2.075-12.134,21.553,1.73Z"/><path class="am" d="M1250.582-1236.974l-21.534-3.2.038-6.064,21.537,2.969Z"/><path class="am" d="M1250.475-1220.452l-21.525-3.82.066-10.695,21.531,3.407Z"/><path class="am" d="M1254.886-1234.357a3.971,3.971,0,0,1,4.686-4.007,5.637,5.637,0,0,1,4.7,5.435,3.979,3.979,0,0,1-4.764,3.995A5.634,5.634,0,0,1,1254.886-1234.357Z"/><path class="am" d="M1258.15-1218.587a3.893,3.893,0,0,1,4.739-3.9,5.87,5.87,0,0,1,4.754,5.6,3.894,3.894,0,0,1-4.816,3.886A5.882,5.882,0,0,1,1258.15-1218.587Z"/><path class="am" d="M1211.633-1217a3.371,3.371,0,0,1,4.01-3.575,5.308,5.308,0,0,1,4.016,5.156,3.369,3.369,0,0,1-4.072,3.562A5.318,5.318,0,0,1,1211.633-1217Z"/><path class="am" d="M1206.113-1205.975c.014-2.366,1.765-3.915,3.926-3.458a5.379,5.379,0,0,1,3.934,5.184c-.012,2.4-1.805,3.941-3.984,3.444A5.4,5.4,0,0,1,1206.113-1205.975Z"/><path class="an" d="M1232.3-1277.85l15.954,1.155-5.34-169.922-8.125,1.839Z"/><g class="ao"><path class="ap" d="M1253.512-1430.766l-29.077,5.661v-1.932l29.077-5.764Z"/><path class="ap" d="M1253.526-1418.136l-29.08,5.026v-1.932l29.08-5.129Z"/><path class="ap" d="M1253.533-1407.306l-29.079,4.479v-1.932l29.079-4.582Z"/><path class="ap" d="M1253.544-1394.676l-29.081,3.849v-1.932l29.081-3.951Z"/><path class="ap" d="M1253.554-1382.042l-29.079,3.209v-1.932l29.079-3.312Z"/><path class="ap" d="M1253.567-1369.411l-29.085,2.578v-1.932l29.085-2.681Z"/><path class="ap" d="M1253.576-1358.583l-29.081,2.033v-1.932l29.081-2.135Z"/><path class="ap" d="M1253.59-1345.948l-29.088,1.4v-1.932l29.088-1.5Z"/><path class="ap" d="M1253.595-1336.923l-29.084.944v-1.932l29.084-1.046Z"/><path class="ap" d="M1253.6-1327.9l-29.082.489v-1.932l29.082-.591Z"/><path class="ap" d="M1253.606-1318.872l-29.082.034v-1.932l29.082-.137Z"/><path class="ap" d="M1253.614-1312.855l-29.088-.267v-1.932l29.088.165Z"/><path class="ap" d="M1253.622-1306.838l-29.089-.572v-1.932l29.089.47Z"/><path class="ap" d="M1253.627-1300.824l-29.089-.872,0-1.932,29.091.769Z"/><path class="ap" d="M1253.631-1294.8l-29.088-1.178,0-1.932,29.089,1.075Z"/><path class="ap" d="M1253.636-1288.788l-29.087-1.479,0-1.932,29.089,1.377Z"/><path class="ap" d="M1253.641-1282.769l-29.087-1.783,0-1.932,29.089,1.681Z"/></g><path class="aq" d="M1248.843-1488.393c2.9-1.6,4.928-4.219,4.505-5.827s-3.138-1.568-6.022.056c-2.863,1.616-4.826,4.189-4.414,5.766S1245.966-1486.807,1248.843-1488.393Z"/><path class="aq" d="M1251.223-1479.353c2.922-1.56,4.971-4.155,4.539-5.776s-3.159-1.625-6.068-.039c-2.887,1.574-4.865,4.127-4.452,5.721S1248.321-1477.8,1251.223-1479.353Z"/><path class="aq" d="M1253.62-1470.234c2.95-1.522,5.013-4.1,4.583-5.731s-3.193-1.682-6.125-.132c-2.913,1.535-4.9,4.066-4.486,5.67S1250.7-1468.725,1253.62-1470.234Z"/><path class="aq" d="M1228.687-1482.741c-2.677.087-4.519-1.27-4.141-3.035s2.859-3.3,5.55-3.416c2.718-.119,4.619,1.242,4.224,3.039S1231.393-1482.831,1228.687-1482.741Z"/><path class="aq" d="M1226.506-1472.763c-2.658.039-4.486-1.346-4.1-3.1s2.831-3.232,5.505-3.3c2.692-.069,4.576,1.322,4.188,3.1S1229.188-1472.805,1226.506-1472.763Z"/><path class="aq" d="M1224.343-1462.863c-2.639-.006-4.449-1.421-4.076-3.156s2.813-3.169,5.462-3.192c2.676-.023,4.547,1.394,4.157,3.164S1227-1462.853,1224.343-1462.863Z"/><path class="al" d="M1234.79-1444.778c.293-.068-.475-3.861-.55-4.088a5.84,5.84,0,0,0-5.539-4.383c-.781.019-2.2.752-2.633-.046-.348-.635.706-3.853.886-4.741.288-1.421.614-2.85.93-4.276.8-3.589,1.538-7.186,2.308-10.789q2.182-10.209,4.407-20.524c.312-1.455.607-2.91.928-4.365.005-.016,1.4-6.232,2.933-6.742l.624-.207c1.549-.513,3.012,4.84,3.012,4.84q1.511,5.474,3.037,10.987,2.76,9.978,5.559,20.083c.708,2.542,1.511,5.167,2.061,7.787.383,1.834-.875,2.157-2.5,2.954a11.632,11.632,0,0,0-4.808,3.927,12.755,12.755,0,0,0-2.485,6.47,6.359,6.359,0,0,0-.044,1.274Z"/><path class="ar" d="M1271.6-1443.828a19.152,19.152,0,0,0,6.971-2.393c2.5-1.479,4.434-3.237,7.405-3.807,2.179-.419,3.231,1.018,3.345,3.03.067,1.183-.334,5.1-2.247,3.152a5.96,5.96,0,0,1-1.462-2.493c-.074-.254-.085-.607.163-.7a.564.564,0,0,1,.334.017c.869.228,1.927.548,1.482-.76-.311-.916-1.028-.937-1.84-.937C1281.037-1447.088,1277.222-1443.294,1271.6-1443.828Z"/><path class="ar" d="M1205.44-1429.762a6.137,6.137,0,0,1-2.662-.646,7.832,7.832,0,0,0-2.919-1.244c-.808-.057-1.081.636-.977,1.529.061.524.485,2.224,1.029,1.255a2.833,2.833,0,0,0,.343-1.182c.008-.116-.013-.272-.108-.3a.168.168,0,0,0-.118.027c-.295.151-.649.354-.584-.248.045-.421.3-.472.59-.52C1201.836-1430.646,1203.471-1429.2,1205.44-1429.762Z"/><path class="af" d="M1227.6-1423.346l.918.533,26.783-1.573Z"/><path class="ar" d="M1255.305-1424.387l-4.927.19-6.707.251-16.067.6-.868-5.69,16.209-3.844,6.208-1.531,4.722-1.161Z"/></g></svg>