<svg xmlns="http://www.w3.org/2000/svg" xmlns:xlink="http://www.w3.org/1999/xlink" width="536" height="350.772" viewBox="0 0 536 350.772"><defs><style>.a{fill:#7fd1d8;}.b{fill:#fdd20d;}.c{fill:url(#a);}.d{fill:url(#b);}.e{fill:url(#c);}.f{fill:url(#d);}.g{fill:url(#e);}.h{fill:url(#f);}.i{fill:url(#g);}.j{fill:url(#h);}.k{fill:url(#i);}.l{fill:url(#j);}.m{fill:url(#l);}.n{fill:url(#m);}.o{fill:url(#n);}.p{fill:url(#p);}.q{fill:url(#q);}.r{fill:url(#r);}.s{fill:#abe1e5;}</style><linearGradient id="a" x1="0.172" y1="-0.056" x2="0.681" y2="0.825" gradientUnits="objectBoundingBox"><stop offset="0" stop-color="#fdd20d"/><stop offset="1" stop-color="#fff" stop-opacity="0"/></linearGradient><linearGradient id="b" x1="0.081" y1="0.073" x2="0.682" y2="0.691" xlink:href="#a"/><linearGradient id="c" x1="43.702" y1="-23.326" x2="45.131" y2="-22.196" xlink:href="#a"/><linearGradient id="d" x1="36.129" y1="-175.475" x2="36.657" y2="-169.227" xlink:href="#a"/><linearGradient id="e" x1="-67.744" y1="49.5" x2="-67.419" y2="53.65" xlink:href="#a"/><linearGradient id="f" x1="0.052" y1="0.026" x2="0.749" y2="0.792" xlink:href="#a"/><linearGradient id="g" x1="1" y1="0" x2="0.5" y2="1" xlink:href="#a"/><linearGradient id="h" x1="370.803" y1="-295.192" x2="372.017" y2="-292.009" xlink:href="#a"/><linearGradient id="i" x1="0.068" y1="1" x2="0.929" y2="0.078" gradientUnits="objectBoundingBox"><stop offset="0" stop-color="#fdd20d"/><stop offset="0.601" stop-color="#feed9e" stop-opacity="0.4"/><stop offset="1" stop-color="#fff" stop-opacity="0"/></linearGradient><linearGradient id="j" x1="1" y1="0.852" x2="0.531" y2="-0.168" xlink:href="#a"/><linearGradient id="l" x1="18.518" y1="-73.944" x2="19.017" y2="-69.948" xlink:href="#a"/><linearGradient id="m" x1="81.562" y1="-78.581" x2="82.438" y2="-76.475" xlink:href="#a"/><linearGradient id="n" x1="-244.955" y1="22.073" x2="-244.195" y2="23.14" xlink:href="#a"/><linearGradient id="p" x1="0.91" y1="0.221" x2="0.304" y2="0" xlink:href="#a"/><linearGradient id="q" x1="314.831" y1="-700.132" x2="315.758" y2="-692.927" xlink:href="#a"/><linearGradient id="r" x1="0.096" y1="0.84" x2="1.256" y2="-0.303" xlink:href="#a"/></defs><g transform="translate(-350.645 -299.192)"><path class="a" d="M916.188,604.88a34.062,34.062,0,0,1-1.734-25.966l.071-.131-3.607-1.968-31.984,59.256a16.656,16.656,0,0,0-8.132-9.886c-7.652-4.174-16.855-2.056-20.558,4.731s-.43,15.54,7.221,19.715c7.584,4.137,16.471,2.491,20.527-4.688l-.082-.045-.057.1.01-.019.013-.024,21.1-38.886c.163,3.937,1.409,9.167,4.6,16.731,6.382,15.133-6.781,20.066-6.781,20.066,7.683.184,14.4-6.648,12.573-16.665C916.715,625.116,921.741,616.289,916.188,604.88Zm-8.918,16.175a34.678,34.678,0,0,1-1.951-25.6l2.539-4.694c.142,3.952,1.358,9.2,4.582,16.845,4.182,9.918-.035,15.452-3.437,18.089A24.978,24.978,0,0,0,907.27,621.055Z" transform="translate(-32.25 -48.572)"/><path class="a" d="M358.146,485.626c-.822,7.494,4.5,12.185,10.164,11.645,0,0-9.982-2.949-6.066-14.463,1.957-5.754,2.6-9.682,2.514-12.6l17.631,27.607.011.018.008.013-.048-.075-.059.038c3.374,5.088,10.025,5.835,15.407,2.38,5.431-3.487,7.387-10.124,4.294-14.941s-10-5.9-15.432-2.411a12.327,12.327,0,0,0-5.484,7.73l-26.745-42.077-2.561,1.643.06.093a25.221,25.221,0,0,1,.088,19.268C348.429,478.215,352.607,484.469,358.146,485.626Zm.187-1.139c-2.652-1.768-6.059-5.632-3.492-13.178,1.978-5.815,2.6-9.756,2.5-12.682l2.124,3.333a25.678,25.678,0,0,1-.092,19.012A18.476,18.476,0,0,0,358.333,484.487Z" transform="translate(0 -22.71)"/><g transform="translate(700.388 299.192)"><path class="a" d="M729.447,337.5c-1.085,4.195,2.514,7.69,2.514,7.69l-.079.1-1.568,1.922-.877,1.076a57.536,57.536,0,0,0-3.527,4.675,7.772,7.772,0,0,0-1.13,2.243,6.632,6.632,0,0,0-.178,1.817,8.294,8.294,0,0,0,.331,2.2,8.546,8.546,0,0,0,2.484,3.864,7.388,7.388,0,0,0,1.735,1.247s4.977,2.892,9.235.457c.05-.026.1-.06.148-.089.128-.078.258-.142.384-.23l-.03-.006a4.944,4.944,0,0,0,1.6-1.766,5.006,5.006,0,1,0-8.566.43l-.1-.033a5.683,5.683,0,0,1-1.078-.5,6.507,6.507,0,0,1-1.766-1.553,8.315,8.315,0,0,1-1.556-2.917,5.823,5.823,0,0,1-.193-1.083,5.405,5.405,0,0,1,.343-2.457c.188-.355.343-.718.548-1.066.642-1.09,1.372-2.139,2.091-3.169.91-1.306,1.869-2.578,2.861-3.821a19.817,19.817,0,0,0,6.933,3.771,15.481,15.481,0,0,0,6.147,1.027,11.923,11.923,0,0,0,8.115-4.578,15.022,15.022,0,0,0,3.282-8.54c.287-5.215-2.141-10.14-4.3-14.895a1.882,1.882,0,0,1-.245-1.036,1.918,1.918,0,0,1,.479-.86,36.134,36.134,0,0,0,5.517-8.843,18.869,18.869,0,0,0,1.377-10.232,3.9,3.9,0,0,0-1.5-2.819c-1.259-.759-2.884-.1-4.111.709a18.224,18.224,0,0,0-5.684,24.434l-3.482,4.206c-.458.554-1.12,1.78-1.745,2.111-.673.357-.685.15-1.472-.219a10.105,10.105,0,0,0-5.394-1.079C730.861,330.758,729.447,337.5,729.447,337.5Zm28.982-26.555a35.076,35.076,0,0,1-4.141,7.3c-.1.141-.33.516-.442.652l-1.531,1.839a31.441,31.441,0,0,1-1.532-5.091,12.847,12.847,0,0,1,1.289-9.92,3.628,3.628,0,0,1,6.6,1.447A7.74,7.74,0,0,1,758.429,310.947Zm-24.543,34.574.039-.048c2.679-3.281,5.8-6.987,8.453-10.1a5.142,5.142,0,0,1,2.176,6.006,7.309,7.309,0,0,1-1.774,2.943c-.291.294-2.141,1.947-2.59,1.644a3.466,3.466,0,0,0,3.587-.036,6.576,6.576,0,0,0,2.44-2.818,9.56,9.56,0,0,0-.441-9.5,2.176,2.176,0,0,1-.523-1.244,1.939,1.939,0,0,1,.588-1.09l3.923-4.529a30.257,30.257,0,0,1,3.176,8.819c.584,3.031.652,6.352-.922,9.008a9.975,9.975,0,0,1-6.484,4.405A12.779,12.779,0,0,1,733.886,345.521Zm-1.313-8.716c3.3-4.1,7.026-2.887,8.278-2.307l-6.726,8.076c-.033.039-.056.084-.087.124l-1.155,1.443C730,339.84,732.573,336.806,732.573,336.806Z" transform="translate(-724.602 -299.192)"/></g><g transform="translate(421.278 333.438)"><g transform="translate(64.773)"><circle class="b" cx="35.522" cy="35.522" r="35.522" transform="translate(120.089 88.794)"/><path class="c" d="M661.29,536.081l69.615,159.293,36.465-4.05L677.865,527.981Z" transform="translate(-506.165 -378.848)"/><path class="d" d="M681.247,521.3,821.918,623.432l29.4-21.951L691.441,505.92Z" transform="translate(-507.458 -377.419)"/><path class="e" d="M641.343,523.852l6.7,111.392,31.091,19.182-21.69-124.656Z" transform="translate(-504.874 -378.58)"/><path class="f" d="M687.065,486.684,769.383,473.9l20,19.685L694.5,497.519Z" transform="translate(-507.834 -375.346)"/><path class="g" d="M693.092,510.3l159.5,26.619,1.018-15.1L687.651,501.359Z" transform="translate(-507.872 -377.124)"/><path class="h" d="M679.095,527.95,791.9,642.061l5.511-9.392L677.767,518.733Z" transform="translate(-507.232 -378.249)"/><path class="i" d="M631.837,524.138,606.58,610.357l9.936,2.9,21.494-90.825Z" transform="translate(-502.623 -378.489)"/><path class="j" d="M623.724,511.523l-40.315,37.53,5.071,8.841L627.9,514.768Z" transform="translate(-501.123 -377.782)"/><path class="k" d="M685.055,479.634l48.969-25.216,6.6,7.767-53.932,22.48Z" transform="translate(-507.704 -374.085)"/><path class="l" d="M617.626,480.639l-122.2-57.385,17.037-19.089,118.706,68.582Z" transform="translate(-495.426 -370.831)"/><path class="l" d="M643.584,469.975l-43.366-88.406,31.045-13.047,30.278,97.9Z" transform="translate(-502.211 -368.523)"/><path class="m" d="M623.246,495.718,522.5,478.149l-6.442-19.114L623.632,486.32Z" transform="translate(-496.762 -374.383)"/><path class="n" d="M680.428,474.367l41.833-42.636-10.95-13.215-38.211,50.5Z" transform="translate(-506.93 -371.76)"/><path class="o" d="M661.64,465.7l33.45-89.056,14.355,1.345-41.507,91.755Z" transform="translate(-506.188 -369.049)"/><path class="l" d="M635.594,472.014l-64.611-74.931L581.69,395.3l61.958,78.585Z" transform="translate(-500.318 -370.257)"/><path class="p" d="M621.3,502.161l-89.072,2.763.931-5.7,91.968-.164Z" transform="translate(-497.809 -376.975)"/><path class="q" d="M632.823,507.588l-49.454,16.961-6.343-3.834,54.313-15.779Z" transform="translate(-500.709 -377.356)"/><path class="r" d="M685.656,478.174l41.2-23.155-4.79-4.521-40.473,26.166Z" transform="translate(-507.48 -373.831)"/></g><g transform="translate(308.817 49.327)"><path class="s" d="M912.864,478.135c-.885-11.534-10.642-18.488-21.579-18.488a15.611,15.611,0,0,0-3.979.528,21.679,21.679,0,0,0,.946-7.934c-.983-12.842-11.848-20.586-24.028-20.586-6.911,0-12.874,4.041-16.592,9.625a32.314,32.314,0,0,0-7.2-9.159,25.963,25.963,0,0,0-9.459-7.14c-3.182-1.338-6.4-2.793-9.843-3.16q-4.694-.4-9.4-.556a34.266,34.266,0,0,0-30.888,27.443c-.066.346-.11.695-.167,1.044a27.737,27.737,0,0,0-14.447,48.82,28.588,28.588,0,0,0,26.381,5.317c-.392.124,6.725,8.512,7.521,9.178a28.805,28.805,0,0,0,12,6.105c12.084,2.751,27.245-5.264,32.63-16.126a27.891,27.891,0,0,0,1.151-2.7c.107.073.214.145.324.218A28.883,28.883,0,0,0,879.6,494.6a22.984,22.984,0,0,0,14.772,5.108C905.331,499.711,913.65,488.408,912.864,478.135Z" transform="translate(-756.366 -421.265)"/></g><g transform="translate(0 156.926)"><path class="s" d="M624.2,608.73c-.037-.218-.078-.435-.117-.652-.028-.161-.072-.313-.1-.469a31.584,31.584,0,0,0-17.124-24.915q-.84-.439-1.715-.823c-.08-.036-.165-.066-.247-.1a28.448,28.448,0,0,0-8.262-2.127c-.816-.107-1.62-.179-2.419-.222a23.146,23.146,0,0,0,1.669-12.75c-.042-.253-.08-.508-.122-.761-.05-.314-.117-.622-.176-.931a29.992,29.992,0,0,0-9.234-17.515c-.093-.093-.192-.179-.285-.268-.2-.182-.394-.383-.6-.559-9.2-8.413-22.866-10.981-35.162-2.69a27.891,27.891,0,0,0-11.2,15.446,37.5,37.5,0,0,0-55.627-16.657c-.46.266-.92.531-1.377.793a36.582,36.582,0,0,0-12.331,14.07,37.683,37.683,0,0,0-2.47,6.525,44.075,44.075,0,0,0-26.155,77.09,36.171,36.171,0,0,0,10.006,6.684c8.312,3.461,14.127,5.236,23.238,4.54a47.1,47.1,0,0,0,15.5-4.091c.453.447.916.89,1.4,1.318a22.894,22.894,0,0,0,7.651,5.1c7.42,3.051,10.368,3.779,18.4,3.663a25.465,25.465,0,0,0,6.238-1.093,33.049,33.049,0,0,0,20.195-11.893c.135.118.247.219.393.348a28.208,28.208,0,0,0,40.808-3.733,31.6,31.6,0,0,0,18.009-.824C615.392,636.869,626.722,622.593,624.2,608.73Z" transform="translate(-426.169 -536.314)"/></g><g transform="translate(56.116 20.239)"><path class="s" d="M572.167,421.611c-.017-.094-.034-.188-.051-.282-.011-.07-.031-.137-.044-.2a13.719,13.719,0,0,0-7.437-10.82q-.365-.189-.745-.357c-.035-.015-.072-.029-.108-.043a12.335,12.335,0,0,0-3.588-.924c-.354-.046-.7-.078-1.05-.1a10.057,10.057,0,0,0,.725-5.538c-.018-.109-.035-.221-.052-.33-.021-.137-.051-.27-.077-.4a13.024,13.024,0,0,0-4.009-7.606c-.041-.04-.083-.078-.124-.117-.088-.079-.171-.166-.261-.242a12.253,12.253,0,0,0-20.132,5.539,16.287,16.287,0,0,0-24.157-7.232l-.6.343a15.891,15.891,0,0,0-5.355,6.111,16.4,16.4,0,0,0-1.073,2.834,19.14,19.14,0,0,0-11.358,33.477,15.7,15.7,0,0,0,4.345,2.9c3.609,1.5,6.135,2.274,10.091,1.971a20.441,20.441,0,0,0,6.732-1.776c.2.195.4.386.606.572a9.946,9.946,0,0,0,3.323,2.214,16.054,16.054,0,0,0,7.99,1.591,11.03,11.03,0,0,0,2.708-.475,14.345,14.345,0,0,0,8.77-5.164l.171.152a12.249,12.249,0,0,0,17.721-1.621,13.724,13.724,0,0,0,7.821-.358C568.344,433.831,573.263,427.631,572.167,421.611Z" transform="translate(-486.17 -390.163)"/></g></g></g></svg>