<svg xmlns="http://www.w3.org/2000/svg" xmlns:xlink="http://www.w3.org/1999/xlink" width="692.062" height="358.378" viewBox="0 0 692.062 358.378"><defs><style>.a{fill:none;}.b{clip-path:url(#a);}.c{fill:#eadff1;}.d,.f{fill:#d8a35d;}.d{fill-rule:evenodd;}.e{fill:#937dcd;}.g{fill:#625489;}.h{fill:#ffc84f;}.i{opacity:0.3;}.j{opacity:0.5;}.k{fill:#d19442;}.l{opacity:0.15;}.m{fill:#ffc74f;}.n{fill:#989898;}.o{fill:#cbcbcb;}.p{fill:gray;}.q{fill:#62548a;}</style><clipPath id="a"><rect class="a" width="692.062" height="358.378" transform="translate(692.062 358.378) rotate(-180)"/></clipPath></defs><g transform="translate(-683 -342.989)"><g class="b" transform="translate(683 342.989)"><path class="c" d="M1336.026,760.486c3.7-67.812-44.612-142.416-75.451-199.672a447.155,447.155,0,0,0-118.764-141.449c-37.191-29.327-98.622-61.423-138.065-18.118-35.166,38.611-7.312,69.7-.815,110.21,6.095,38.006-8.176,70.134-37.671,93.86C909.287,650.338,831.8,682.583,788.014,741c-8.745,11.669-20.672,28.908-11.677,42.189,10.436,15.409,51.881,20.412,68.54,21.788,65.226,5.386,132.17,1.849,197.458-1.2,64.556-3.012,128.623-6.792,193.3-6.734,38.467.034,87.954-8.211,124.756,7.61" transform="translate(-666.149 -336.045)"/><g transform="translate(41.599 73.684)"><g transform="translate(0 222.818)"><g transform="translate(15.992)"><path class="d" d="M749.029,602.733s-5.62-6.409-12.173-7.7c-3.9-.766-3.763-1.748-4.419-2.07-2.178-1.068-.2,3.138,3.086,4.331,2.672.97,3.993,5.657,5.58,6.705s6.38,3.047,7.62,2.461S749.029,602.733,749.029,602.733Z" transform="translate(-731.52 -592.792)"/></g><g transform="translate(0 5.807)"><path class="d" d="M768.822,610.569c-1.2-.457-13.678-8.646-20.59-9.571s-17.276-1.642-20.815-2.807c-4.165-1.371-5.3.259-.519,2.312,3.1,1.333,9.492,3.466,10.921,3.582.693.057-3.8-.736-8.674-1.956-5.179-1.3-10.783-3-11.081-2.083-.577,1.784,14.3,6.458,16.941,6.855a67,67,0,0,1-6.953-1.135c-3.131-.688-6.7-1.954-7.437-1.328-1.161.984,6.68,4.438,13.227,5.621.107.218-2.034.464-9.718-1.464-.773-.193-2.769.065-.268,1.348,5.266,2.7,7.331,4.254,15.1,4.815,7.576.548,16.013-.668,21.395,1.385Z" transform="translate(-718.047 -597.685)"/></g></g><g transform="translate(36.144 108.903)"><path class="e" d="M757.653,638.684c6.072,2.375,50.159,10.461,90.628,1.573,25.542-5.6,49.631-17.974,61.818-42.812C941.592,533.239,868,496.819,868,496.819a1.265,1.265,0,0,0-.109.176c-3.19,4.818-71.785,107.732-119.382,123.792C748.512,620.787,747.754,634.8,757.653,638.684Z" transform="translate(-748.499 -496.819)"/></g><g transform="translate(321.028 371.727)"><path class="f" d="M1012.044,718.248s-1.531,141.586,4.463,143.5c10.76,3.511,52.653,14.419,7.56,15.109-22.906,3.367-21.658-1.922-22.393-6.249-.6-3.536-10.732-129.259-12.519-138.951l-.642-3.482Z" transform="translate(-988.513 -718.248)"/></g><g transform="translate(202.809 361.753)"><path class="f" d="M933.436,709.845s-10.128,140.694-16.174,142.444c-10.853,3.208-53.036,12.935-7.98,14.89,22.8,4.009,21.7-1.313,22.559-5.619.7-3.518,6.386-30.175,8.444-39.812.461-2.158,17.484-111.155,17.484-111.155Z" transform="translate(-888.914 -709.845)"/></g><g transform="translate(201.406 502.151)"><path class="g" d="M935.021,830.71c.5-1.99-13.907-3.446-15.722-1.99s-31.159,4.094-31.564,12.672,40.088,6.427,42.948,6.552S934.042,834.624,935.021,830.71Z" transform="translate(-887.731 -828.13)"/></g><g transform="translate(232.431 212.827)"><path class="h" d="M921.7,595.08a8.932,8.932,0,0,0,5.249,1.9c11.881-.788,63.186-4.317,90.839-8.3,9.757-1.408,16.567-2.871,17.663-4.3,0,0,0,.04,0,.113.058,1.538.688,19.151,1.432,42.246,1.468,45.588,11.748,110.178,18.925,129.434,1.549,4.156-62.656,3.181-62.656,3.181-4.205-46.815-6.832-129.411-10.02-132.85-3.876-4.183-3.317,68.62-4.6,129.691-24.641,8.743-64.9,8.184-64.66,5.561C916.712,730.594,921.7,595.08,921.7,595.08Z" transform="translate(-913.87 -584.375)"/><g class="i" transform="translate(54.793)"><g transform="translate(0 9.419)"><path d="M960.609,592.311h-.576S960.236,592.309,960.609,592.311Z" transform="translate(-960.033 -592.31)"/></g><g class="j" transform="translate(0.576)"><path d="M960.518,593.795c15.371-.095,48.552-5.123,48.552-5.123,9.757-1.408,16.567-2.871,17.663-4.3,0,0,0,.04,0,.113.058,1.538.688,19.151,1.432,42.246a11.588,11.588,0,0,1-1.62-.047,12.537,12.537,0,0,1-8.573-5.047,27.835,27.835,0,0,1-3.706-6.291C1001.022,594.671,965.446,593.812,960.518,593.795Z" transform="translate(-960.518 -584.375)"/></g></g><g transform="translate(16.692 3.926)"><g transform="translate(0 4.709)"><rect class="e" width="170.414" height="1.1" transform="translate(0 170.407) rotate(-89.453)"/></g><g transform="translate(16.201 6.709)"><rect class="e" width="167.462" height="1.1" transform="translate(0 167.453) rotate(-89.399)"/></g><g transform="translate(33.656 5.363)"><rect class="e" width="1.1" height="166.062" transform="translate(0 0.005) rotate(-0.28)"/></g><g transform="translate(48.745 4.015)"><rect class="e" width="1.1" height="34.287" transform="translate(0 0.105) rotate(-5.491)"/></g><g transform="translate(65.504 2.589)"><rect class="e" width="1.1" height="168.904" transform="translate(0 0.074) rotate(-3.864)"/></g><g transform="translate(79.886 1.238)"><rect class="e" width="1.1" height="170.295" transform="translate(0 0.089) rotate(-4.65)"/></g><g transform="translate(94.124)"><rect class="e" width="1.1" height="171.301" transform="matrix(0.995, -0.104, 0.104, 0.995, 0, 0.115)"/></g></g><g transform="translate(7.138 18.048)"><path class="e" d="M919.926,610.558c.915-.036,91.725-3.607,115.193-9.916l-.285-1.062c-23.35,6.278-114.037,9.843-114.95,9.879Z" transform="translate(-919.884 -599.58)"/></g><g transform="translate(6.432 41.6)"><path class="e" d="M949.722,625.214a107.854,107.854,0,0,0,32.567-4.743l-.333-1.048c-30.716,9.789-62.058,1.252-62.371,1.164l-.3,1.06A126.711,126.711,0,0,0,949.722,625.214Z" transform="translate(-919.289 -619.423)"/></g><g transform="translate(68.634 36.094)"><path class="e" d="M993.136,620.937c9.934,0,21.945-1.11,32.944-5.119l-.377-1.034c-24.227,8.833-53.51,3.42-53.8,3.364l-.205,1.08A128.822,128.822,0,0,0,993.136,620.937Z" transform="translate(-971.694 -614.784)"/></g><g transform="translate(5.867 55.308)"><path class="e" d="M949.124,636.681a124.945,124.945,0,0,0,30.774-3.958l-.271-1.066c-36.155,9.18-60.151-.585-60.389-.685l-.425,1.015C918.978,632.056,930.342,636.681,949.124,636.681Z" transform="translate(-918.813 -630.972)"/></g><g transform="translate(5.354 70.191)"><path class="e" d="M953.107,648.084c8.989,0,18.373-.855,26.355-3.41l-.335-1.047c-23.727,7.6-60.151-.039-60.516-.116l-.23,1.075A189.66,189.66,0,0,0,953.107,648.084Z" transform="translate(-918.381 -643.511)"/></g><g transform="translate(4.546 85.084)"><path class="e" d="M949.139,663.561a128.345,128.345,0,0,0,30.03-3.835l-.258-1.071c-40.865,9.842-60.417-2.471-60.61-2.6l-.6.921C917.84,657.072,928.1,663.561,949.139,663.561Z" transform="translate(-917.7 -656.058)"/></g><g transform="translate(3.892 101.426)"><path class="e" d="M947.617,676.694a86.172,86.172,0,0,0,31.515-5.843l-.4-1.024c-32.011,12.534-60.869.779-61.157.658l-.424,1.015A87.59,87.59,0,0,0,947.617,676.694Z" transform="translate(-917.149 -669.826)"/></g><g transform="translate(3.114 117.734)"><path class="e" d="M945.415,690.164a122.938,122.938,0,0,0,33.571-5.044l-.3-1.059c-40.477,11.493-61.429-.374-61.636-.495l-.557.948C916.635,684.6,926.427,690.164,945.415,690.164Z" transform="translate(-916.494 -683.566)"/></g><g transform="translate(2.411 131.068)"><path class="e" d="M943.576,703.017a90.777,90.777,0,0,0,35.427-7.2l-.427-1.014c-33.719,14.224-61.969,2.764-62.25,2.647l-.424,1.015C916.077,698.535,927.107,703.017,943.576,703.017Z" transform="translate(-915.901 -694.8)"/></g><g transform="translate(1.633 144.782)"><path class="e" d="M940.057,714.723c9.64,0,22.408-1.791,38.848-7.328l-.351-1.041c-44.926,15.13-62.444,1.651-62.616,1.515l-.691.855C915.7,709.095,922.966,714.723,940.057,714.723Z" transform="translate(-915.246 -706.354)"/></g><g transform="translate(0.96 158.497)"><path class="e" d="M942.952,725.388a104.914,104.914,0,0,0,35.858-6.444l-.375-1.035c-36.071,13.083-63.06,2.031-63.328,1.917l-.427,1.014C914.851,720.912,925.777,725.388,942.952,725.388Z" transform="translate(-914.679 -717.909)"/></g><g transform="translate(71.058 52.806)"><path class="e" d="M992.242,635.372c8.2,0,19.541-1.294,34.85-5.447l-.287-1.061c-39.221,10.636-52.317,2.14-52.445,2.053l-.623.907C974.064,632.051,979.115,635.372,992.242,635.372Z" transform="translate(-973.736 -628.864)"/></g><g transform="translate(72.78 66.907)"><path class="e" d="M993.086,646.74a130.914,130.914,0,0,0,33.977-4.934l-.286-1.062c-33.465,9.027-51.039,2.847-51.213,2.785l-.377,1.033C975.289,644.6,981.378,646.74,993.086,646.74Z" transform="translate(-975.187 -640.744)"/></g><g transform="translate(73.459 81.837)"><path class="e" d="M993.954,660.4c9.746,0,22.214-1.257,34.344-6.051l-.4-1.022c-25.09,9.913-51.644,4.519-51.909,4.464l-.225,1.077A99.693,99.693,0,0,0,993.954,660.4Z" transform="translate(-975.759 -653.323)"/></g><g transform="translate(74.198 95.549)"><path class="e" d="M997.478,673.4a71.347,71.347,0,0,0,32.436-7.541l-.5-.98C1003.1,678.241,977,669.5,976.74,669.411l-.359,1.04A71.973,71.973,0,0,0,997.478,673.4Z" transform="translate(-976.382 -664.875)"/></g><g transform="translate(75.112 110.543)"><path class="e" d="M995.562,685.037a103.184,103.184,0,0,0,36.147-6.5l-.387-1.03c-28.906,10.847-53.649,4.709-53.9,4.646l-.274,1.066A82.892,82.892,0,0,0,995.562,685.037Z" transform="translate(-977.152 -677.507)"/></g><g transform="translate(75.925 124.939)"><path class="e" d="M995.778,697.657c9.487,0,22.413-1.5,37.988-6.984l-.366-1.037c-33.877,11.925-54.991,4.851-55.2,4.779l-.362,1.039C977.953,695.494,984.389,697.657,995.778,697.657Z" transform="translate(-977.837 -689.636)"/></g><g transform="translate(76.999 138.98)"><path class="e" d="M1002.027,709.741a84.482,84.482,0,0,0,34.049-7.268l-.442-1.008c-31.164,13.661-56.225,3.664-56.475,3.561l-.418,1.017C978.893,706.106,988.006,709.741,1002.027,709.741Z" transform="translate(-978.742 -701.466)"/></g><g transform="translate(77.875 154.195)"><path class="e" d="M1001,721.822a111.238,111.238,0,0,0,38.013-6.5l-.377-1.034a112.171,112.171,0,0,1-58.9,4.388l-.262,1.067A100.972,100.972,0,0,0,1001,721.822Z" transform="translate(-979.48 -714.284)"/></g></g><g transform="translate(221.418 41.44)"><path class="k" d="M912.954,441.662s2.688,13.212,12.75,17.958-18.292,5.461-18.292,5.461,1.2-13.783-2.181-21.115S912.954,441.662,912.954,441.662Z" transform="translate(-904.591 -439.981)"/></g><g transform="translate(202.948 5.899)"><ellipse class="f" cx="19.758" cy="14.482" rx="19.758" ry="14.482" transform="translate(0 36.873) rotate(-68.921)"/></g><g transform="translate(133.178 50.527)"><path class="e" d="M833,649.451c25.542-5.6,49.631-17.974,61.818-42.812.044.066.088.121.132.188.133.165.265.341.4.539a.586.586,0,0,1,.088.121c3.51,4.8,20.735,28.347,20.735,28.357,6.248,8.14,15.8,15.961,23.375,19.106.495.221,1,.407,1.464.572,18.578,2.9,95.951-26.5,105.169-33.846,4.158-3.312,5.785-18.832,6.115-35.662.419-20.514-1.067-43.009-2.156-47.75-1.848-7.954-38.378-95.941-95.7-90.375a58.84,58.84,0,0,0-14.915,3.5s-.43.451-1.188,1.123a28.223,28.223,0,0,1-5.181,3.684,21.975,21.975,0,0,1-5.291,2.123,16.211,16.211,0,0,1-10.812-.881c-3.587-1.606-11.55.275-21.219,5.676-13.43,7.491-30.184,21.78-43.109,42.9a1.265,1.265,0,0,0-.109.176,138.2,138.2,0,0,0-18.525,50.852A327.937,327.937,0,0,0,833,649.451Z" transform="translate(-830.249 -447.637)"/></g><g class="l" transform="translate(197.748 186.787)"><path d="M884.65,585.173c.043.068.093.121.136.189.131.167.264.345.391.538.033.036.056.075.093.121,3.51,4.8,20.726,28.355,20.729,28.365,6.252,8.132,15.8,15.958,23.382,19.1-8.62-13.761-34.513-53.384-39.248-71.051C892.708,580.059,884.646,585.162,884.65,585.173Z" transform="translate(-884.65 -562.436)"/></g><g class="l" transform="translate(198.758 59.775)"><path d="M919.376,459.693c.418,1.243,0,2.262-2.1,2.59-6.536,1.022-13.578,3.319-18.026,7.218a4.566,4.566,0,0,1-4.291,1.086c-3.874-.944-7.638-6.088-9.211-8.4a1.831,1.831,0,0,1-.252-.533c9.672-5.4,17.629-7.284,21.221-5.67a16.2,16.2,0,0,0,10.809.871A8.918,8.918,0,0,1,919.376,459.693Z" transform="translate(-885.501 -455.428)"/></g><g transform="translate(210.053)"><g transform="translate(0 3.855)"><g transform="translate(9.707 0.464)"><path class="m" d="M906,421.392s18.394,21.988,19.478-1.513C926.23,403.619,893.626,405.959,906,421.392Z" transform="translate(-903.195 -408.707)"/></g><path class="m" d="M912.84,417.8s-16.082,2.722-17.823,11c0,0,6.079-24.373,19.32-19.941s17.793,7.63,7.157,31.782C921.494,440.636,925.254,419.613,912.84,417.8Z" transform="translate(-895.017 -408.316)"/></g><g transform="translate(18.694)"><path class="m" d="M910.767,409.4s3.45-6.995,10.24-3.2,8.285,9.088,7.729,13.589-.717,7.976.31,8.372c0,0-4.266,1.892-4.9.47,0,0-.18,8.408-5.9,13.163,0,0,2.267-9.849-2.47-12.853S910.767,409.4,910.767,409.4Z" transform="translate(-910.767 -405.068)"/></g><g transform="translate(0.84 2.314)"><path class="m" d="M914.26,409.221s-3.945-5.056-11.847.15l-5.453,4.972s.631,1.422,3.08,1.186c0,0-3.724,6.871-4.316,11.332l7.79-11.17Z" transform="translate(-895.725 -407.017)"/></g></g><g transform="translate(213.553 131.566)"><path class="n" d="M903.894,591.388l83.7,34.254a9.541,9.541,0,0,0,12.437-5.209l23.374-57.125a3.088,3.088,0,0,0,.146-.413,9.508,9.508,0,0,0-5.363-12.015l-83.694-34.255a9.528,9.528,0,0,0-12.428,5.217l-22.3,54.472-1.085,2.647A9.527,9.527,0,0,0,903.894,591.388Z" transform="translate(-897.966 -515.912)"/><g transform="translate(1.236)"><path class="o" d="M904.93,588.327l83.7,34.255a9.527,9.527,0,0,0,12.428-5.215l22.3-54.472a9.508,9.508,0,0,0-5.363-12.015l-83.694-34.255a9.528,9.528,0,0,0-12.428,5.217l-22.3,54.472A9.506,9.506,0,0,0,904.93,588.327Z" transform="translate(-899.007 -515.912)"/></g><g transform="translate(57.29 46.185)"><circle class="p" cx="7.361" cy="7.361" r="7.361"/></g></g><g class="l" transform="translate(228.513 176.229)"><path d="M1023.813,566.639s-8.026-31.881-89.2,3.834,69.219,1.145,69.219,1.145Z" transform="translate(-910.569 -553.541)"/></g><g class="l" transform="translate(305.62 108.902)"><path d="M975.544,496.818s-2.852,86.081,79.8,97.6l1.772.541-5.87-18.293s-48.55-37.592-49.047-38.783S975.544,496.818,975.544,496.818Z" transform="translate(-975.532 -496.818)"/></g><g transform="translate(219.743 42.895)"><g transform="translate(0 154.109)"><g transform="translate(0 3.315)"><path class="d" d="M947.365,576.125c-1.1-.037-13.529-3.2-19.4-2.025s-14.5,3.493-17.7,3.535c-3.766.05-4.231,1.691.224,2.024a58.906,58.906,0,0,0,9.876-.14c.578-.147-3.3.464-7.6.833-4.571.393-9.6.575-9.587,1.4.03,1.611,13.426,1.252,15.681.836a57.215,57.215,0,0,1-5.967,1.022c-2.736.315-5.989.284-6.414,1-.668,1.124,6.668,1.74,12.319.872.147.147-1.524.945-8.306,1.525-.681.058-2.231.827.16,1.172,5.034.724,7.144,1.408,13.614-.306,6.309-1.671,12.824-5.017,17.77-4.852Z" transform="translate(-903.181 -573.837)"/></g><g transform="translate(10.776)"><path class="d" d="M929.187,574.364s-6.357-3.639-12.043-2.855c-3.379.465-3.547-.37-4.17-.449-2.068-.259.714,2.607,3.719,2.658,2.442.043,4.825,3.481,6.406,3.89s6.037.693,6.881-.131S929.187,574.364,929.187,574.364Z" transform="translate(-912.26 -571.044)"/></g></g><g transform="translate(21.998)"><path class="e" d="M995.937,446.267c25.157,11.836,43.82,24.234,68.593,75.949,12.569,26.237,19.657,54.112,22.861,68.971a17.907,17.907,0,0,1-7.337,18.439c-56.078,39.089-142.026.463-142.026.463-3.957-.262-.579-15.1-.579-15.1,34.283-10.624,60.947-17.437,91.5-15.079-.159-.022-41.989-42.362-49.763-55.168-20.373-33.585-61.047-55.767-57.219-72.458C923.288,446.508,970.561,434.327,995.937,446.267Z" transform="translate(-921.714 -441.207)"/></g></g><g transform="translate(332.317 510.795)"><path class="q" d="M998.032,836.506c-.443-2,17.046-.917,18.819.589s27.5,6.182,27.664,14.768-40.254,5.3-43.117,5.345S998.9,840.444,998.032,836.506Z" transform="translate(-998.024 -835.413)"/></g></g></g></g></svg>