<svg xmlns="http://www.w3.org/2000/svg" width="380.432" height="398.973" viewBox="0 0 380.432 398.973"><defs><style>.a,.d{fill:#d8a35d;}.a,.b{fill-rule:evenodd;}.b{fill:#c89757;}.c{fill:#d19442;}.e{fill:#937dcd;}.f{opacity:0.15;}.g{fill:#ffc74f;}.h{fill:#eadff1;}.i{fill:#62548a;}.j{fill:#f8a84b;}</style></defs><g transform="translate(-956.451 -326.948)"><g transform="translate(963.352 417.174)"><g transform="translate(36.514 25.33)"><path class="a" d="M1016.122,470.766c-.28-.96-1.142-12.517-3.792-17.3s-7.026-11.645-7.967-14.4c-1.107-3.245-3.611-6.324-1.632.709a66.707,66.707,0,0,0,2.911,8.5c.286.463-.274-.325-1.8-3.949-1.622-3.852-2.187,1.59-1.2,3.435,0,0,.276.2-.946-2.495-1.038-2.286-3.82-1.488-1.494,3.178-.042.082-1.895-3.488-2.462-2.865-1.382,1.515.372,5.624,2.005,8.2,3.185,5.03,7.83,9.811,9.092,14.13Z" transform="translate(-997.242 -435.518)"/><path class="a" d="M1012.74,455.419s.926-5.459-.117-7.878c-1.231-2.856-1.756-2.32-4.441-3.786-1.527-.943-1.871.714,1.811,3.02.656,2.122-1.8,2.735-1.692,4.207s1.127,5.4,2.055,5.916S1012.74,455.419,1012.74,455.419Z" transform="translate(-996.608 -435.005)"/><path class="b" d="M1008.956,449.283s-2.294,3.338-2.348,5.744S1004.49,447.915,1008.956,449.283Z" transform="translate(-996.673 -434.641)"/></g><g transform="translate(44.111)"><path class="c" d="M1149.4,451.951s-1.1,12.249,6.457,19.023-17.412,0-17.412,0,4.646-11.732,3.6-19.023S1149.4,451.951,1149.4,451.951Z" transform="translate(-995.753 -409.339)"/><ellipse class="d" cx="13.209" cy="18.022" rx="13.209" ry="18.022" transform="translate(136.456 11.317)"/><path class="e" d="M1043.933,529c20-41.828,55.683-60.911,78.469-65.978,9.862-2.2,17.306-1.766,20.026.582a14.762,14.762,0,0,0,9.22,3.582,19.946,19.946,0,0,0,5.177-.471,25.76,25.76,0,0,0,5.488-1.866c.843-.392,1.335-.673,1.335-.673a53.5,53.5,0,0,1,13.946.833c51.55,10.093,60.519,96.528,60.058,103.962-.281,4.424-4.857,24.47-10.575,42.29-4.685,14.628-10.153,27.761-14.648,29.577-9.973,4.014-85.271,9.522-100.752,2.137-.362-.271-.752-.562-1.124-.883-5.809-4.726-12.11-14.056-15.451-22.8,0-.01-8.9-25.092-10.715-30.2-.02-.051-.031-.09-.051-.131-.059-.2-.13-.392-.2-.572-.02-.07-.05-.131-.07-.2" transform="translate(-1001.835 -408.51)"/><path class="f" d="M1081.642,581.66c.019.07.05.131.07.2.07.18.14.37.2.572.02.04.03.08.05.131,1.816,5.107,10.716,30.189,10.716,30.2,3.341,8.739,9.642,18.069,15.451,22.8-3.943-14.277-16.234-55.663-15.763-72.338C1090.019,579.293,1081.642,581.65,1081.642,581.66Z" transform="translate(-999.408 -401.971)"/><path class="f" d="M1195.164,524.368s-24.954,74.49,44.28,106.125l1.407.936-.358-17.52s-32.623-45.522-32.747-46.694S1195.164,524.368,1195.164,524.368Z" transform="translate(-992.385 -404.471)"/><path class="f" d="M1147.777,470.15c.04,1.194-.592,1.976-2.509,1.716-5.98-.813-12.732-.642-17.637,1.605a4.166,4.166,0,0,1-4.034-.17c-3.14-1.836-5.087-7.314-5.859-9.742a1.663,1.663,0,0,1-.08-.532c9.862-2.2,17.306-1.766,20.026.582a14.762,14.762,0,0,0,9.22,3.582A8.152,8.152,0,0,1,1147.777,470.15Z" transform="translate(-997.091 -408.51)"/><g transform="translate(133.402)"><g transform="translate(2.787 5.025)"><path class="g" d="M1140.623,430.411s22.868,12.678,16.081-7.677C1152.009,408.649,1125.027,421.336,1140.623,430.411Z" transform="translate(-1132.112 -416.441)"/><path class="g" d="M1144.163,425.493s-12.795,7.592-11.561,15.207c0,0-2.821-22.738,9.9-23.309s17.648.657,16.518,24.7C1159.02,442.091,1155.325,422.965,1144.163,425.493Z" transform="translate(-1132.336 -416.386)"/></g><path class="g" d="M1141.367,417.9s.643-7.084,7.667-6.081,10.033,5.016,11.036,9.03,2.006,7.023,3.01,7.023c0,0-3.01,3.01-4.014,2.007,0,0,2.6,7.215-.7,13.138,0,0-1.3-9.126-6.318-10.128S1141.367,417.9,1141.367,417.9Z" transform="translate(-1128.967 -411.72)"/><path class="g" d="M1142.759,417.506s-5.016-3.01-10.032,4.013l-3.01,6.02s1,1,3.01,0c0,0-.914,7.069.044,11.06l2.966-12.062Z" transform="translate(-1129.717 -411.388)"/></g><path class="f" d="M1221.5,600.489s-12.906-27.067-79.077,19.457,62.1-11.415,62.1-11.415Z" transform="translate(-996.717 -400.076)"/><path class="e" d="M1086.934,589.325s-61.072,25.908-75.89-29.968.6-69.278-5.429-96.479l9.823-4.73s36.973,22.8,49.63,57.989S1086.934,589.325,1086.934,589.325Z" transform="translate(-1004.38 -408.732)"/></g><path class="h" d="M962.935,692.051h373.53l-56.39-58.456H1013.137l-3.5,7.214Z" transform="translate(-962.935 -397.442)"/><path class="f" d="M1083.179,633.595c5.3,5.537,19.1,15.114,52.583,18.217,48.081,4.45,115.473-18.217,115.473-18.217Z" transform="translate(-955.198 -397.442)"/><g transform="translate(148.682 53.017)"><g transform="translate(0 176.003)"><path class="a" d="M1142.724,640.13c-.951-.319-10.99-6.331-16.431-6.833s-13.581-.729-16.39-1.528c-3.306-.94-4.14.374-.332,1.826a53.641,53.641,0,0,0,8.668,2.455c.544.021-3-.454-6.855-1.254-4.1-.849-8.542-2-8.745-1.274-.395,1.415,11.407,4.6,13.486,4.822a52.352,52.352,0,0,1-5.481-.664c-2.475-.438-5.309-1.314-5.867-.8-.878.809,5.374,3.261,10.539,3.977.091.167-1.578.429-7.657-.833-.611-.128-2.167.139-.166,1.064,4.21,1.947,5.877,3.1,11.978,3.286,5.95.185,12.518-1.04,16.8.4Z" transform="translate(-1102.629 -626.6)"/><path class="a" d="M1128.174,634.126s-4.607-4.84-9.78-5.637c-3.075-.475-3-1.248-3.527-1.479-1.739-.766-.055,2.464,2.557,3.292,2.123.674,3.308,4.3,4.584,5.07s5.1,2.181,6.048,1.682S1128.174,634.126,1128.174,634.126Z" transform="translate(-1101.887 -626.893)"/></g><path class="e" d="M1223.946,477.84c18.9,16.909,31.975,32.614,40.132,84.277,4.138,26.212,3.061,52.423,1.983,66.245a16.331,16.331,0,0,1-11.224,14.2c-59.212,19.531-122.415,15.63-122.415,15.63-3.391-1.261.266-13.53.266-13.53,30.294-41.111,73.589-34.2,85.237-41.411,3.633-21.311-25.644-47.981-29.1-61.2-9.042-34.668-38.8-64.67-31.1-78.257C1160.389,459.094,1204.883,460.784,1223.946,477.84Z" transform="translate(-1100.804 -461.531)"/></g><rect class="i" width="373.53" height="14.138" transform="translate(0 294.609)"/></g><g transform="translate(956.451 326.948)"><path class="e" d="M1004.735,428.857l4.9.015a51,51,0,0,0,0-101.908l-4.853-.016-.046.032a51.012,51.012,0,0,0,0,101.877ZM973.93,410.9a57.018,57.018,0,0,1,10.433-6,61.042,61.042,0,0,0,14.524,19.287A47.2,47.2,0,0,1,973.93,410.9Zm31.562,13.611a58.32,58.32,0,0,1-17.457-21.084,58.944,58.944,0,0,1,17.457-3.472Zm0-28.5a62.868,62.868,0,0,0-19.053,3.8,58.169,58.169,0,0,1-4.072-18.24l23.125-.012Zm0-18.4-23.25.014a58.818,58.818,0,0,1,3.176-18.871,61.957,61.957,0,0,0,20.074,4.253Zm9.876,46.7a60.966,60.966,0,0,0,15.013-20.12,57.071,57.071,0,0,1,11.225,6.091A47.057,47.057,0,0,1,1015.368,424.309Zm28.846-17.014a60.905,60.905,0,0,0-12.313-6.744,62.282,62.282,0,0,0,4.073-19.013l18.412-.011A46.629,46.629,0,0,1,1044.214,407.3Zm1.472-56.812a46.6,46.6,0,0,1,8.846,27.1l-18.439.011a62.822,62.822,0,0,0-3.227-19.629A62.172,62.172,0,0,0,1045.686,350.484Zm-2.434-3.1a58.289,58.289,0,0,1-11.753,6.88,61.713,61.713,0,0,0-16.136-22.737A46.841,46.841,0,0,1,1043.252,347.38Zm-33.817-15.637a57.882,57.882,0,0,1,18.4,23.975,58.027,58.027,0,0,1-18.4,3.387Zm0,31.312a61.948,61.948,0,0,0,19.753-3.637,58.89,58.89,0,0,1,2.959,18.177l-22.712.014Zm0,18.5,22.589-.012a58.307,58.307,0,0,1-3.826,17.643,62.925,62.925,0,0,0-18.762-3.222Zm0,18.348a59,59,0,0,1,17.219,2.923,58.2,58.2,0,0,1-17.219,21.27Zm-3.943-68.571v27.727a58.036,58.036,0,0,1-18.657-3.991A57.988,57.988,0,0,1,1005.492,331.33Zm-6.6.316a61.8,61.8,0,0,0-15.677,21.849,58.1,58.1,0,0,1-10.94-6.787A47,47,0,0,1,998.893,331.646ZM969.78,349.763a62.072,62.072,0,0,0,12,7.418,62.769,62.769,0,0,0-3.485,20.442l-17.9.01A46.542,46.542,0,0,1,969.78,349.763Zm-9.233,31.814,17.872-.01a62.08,62.08,0,0,0,4.361,19.718,61.06,61.06,0,0,0-11.509,6.67A46.546,46.546,0,0,1,960.547,381.578Z" transform="translate(-956.451 -326.948)"/></g><g transform="translate(987.768 347.439)"><path class="j" d="M1003.932,394.043a2.277,2.277,0,0,1-2.278-2.271v-.015a21.316,21.316,0,0,1,1.271-7.748,17.621,17.621,0,0,1,3.006-4.953,57.025,57.025,0,0,1,5.482-5.313,25.917,25.917,0,0,0,5.145-5.569,8.977,8.977,0,0,0,1.186-4.53,10.561,10.561,0,0,0-3.473-7.811,11.757,11.757,0,0,0-8.509-3.367,11.445,11.445,0,0,0-8.13,3.048,14.484,14.484,0,0,0-3.882,7.492,2.305,2.305,0,0,1-2.511,1.783l-3.339-.4a2.3,2.3,0,0,1-1.978-2.742,19.1,19.1,0,0,1,5.888-10.835q5.229-4.614,13.823-4.615,9.1,0,14.523,4.953a15.652,15.652,0,0,1,5.42,11.982,15.178,15.178,0,0,1-1.905,7.494q-1.906,3.429-7.453,8.34a37.807,37.807,0,0,0-4.868,4.869,10.838,10.838,0,0,0-1.693,3.6,22.486,22.486,0,0,0-.561,4.426,2.3,2.3,0,0,1-2.291,2.18Zm-2.7,12.99v-4.092a2.294,2.294,0,0,1,2.295-2.294h4.091a2.294,2.294,0,0,1,2.294,2.294v4.092a2.294,2.294,0,0,1-2.294,2.294h-4.091A2.294,2.294,0,0,1,1001.23,407.034Z" transform="translate(-985.875 -346.2)"/></g></g></svg>