<svg xmlns="http://www.w3.org/2000/svg" width="87.873" height="130.321" viewBox="0 0 87.873 130.321"><defs><style>.a{fill:#f1f1f1;}.b{fill:#d91406;}.c{fill:#fedca0;}.d,.f{fill:#1b5b5d;}.d,.g{font-size:7px;}.d,.e,.g{font-family:Arial-BoldMT, Arial;font-weight:700;}.e,.i{fill:#b65813;}.e{font-size:6px;}.g,.h{fill:#aa0708;}</style></defs><g transform="translate(36.512)"><rect class="a" width="14.551" height="120.144" transform="translate(0 10.176)"/><path class="b" d="M709.588,455.807v8.44L695.037,478.8v-8.44Z" transform="translate(-695.037 -443.318)"/><path class="b" d="M709.588,484.377v8.44l-14.551,14.551v-8.44Z" transform="translate(-695.037 -448.793)"/><path class="b" d="M709.588,512.947v8.44l-14.551,14.559v-8.44Z" transform="translate(-695.037 -454.267)"/><path class="b" d="M709.588,541.517v8.448l-14.551,14.551v-8.44Z" transform="translate(-695.037 -459.741)"/><path class="b" d="M709.588,570.1v8.44l-14.551,14.551v-8.44Z" transform="translate(-695.037 -465.217)"/><path class="b" d="M702.313,440.359l-7.276,10.176h14.551Z" transform="translate(-695.037 -440.359)"/></g><g transform="translate(0 18.118)"><path class="c" d="M649.872,470.046l10.177,7.276V462.77Z" transform="translate(-649.872 -462.77)"/><rect class="c" width="55.061" height="14.551" transform="translate(10.177)"/><text class="d" transform="translate(20.785 8.776)"><tspan x="0" y="0">OCEAN</tspan></text></g><g transform="translate(22.635 51.3)"><path class="c" d="M756.16,511.093l-10.176,7.276V503.817Z" transform="translate(-690.922 -503.817)"/><rect class="c" width="55.061" height="14.551"/><text class="e" transform="translate(4.617 7.477)"><tspan x="0" y="0">MOUNTAIN</tspan></text></g><g transform="translate(8.588 23.139)"><path class="f" d="M662.933,471.335h-.186l2.354-2.354h-1.664l-2.942,2.942,2.942,2.942H665.1l-2.354-2.354h.186Z" transform="translate(-660.495 -468.981)"/><g transform="translate(2.303 2.369)"><rect class="f" width="7.585" height="1.146"/></g></g><rect class="c" width="55.061" height="14.551" transform="translate(71.318 97.798) rotate(-180)"/><text class="g" transform="translate(25.821 91.747)"><tspan x="0" y="0">TOWN</tspan></text><g transform="translate(58.592 85.318)"><path class="h" d="M725.881,548.336v-.186l2.354,2.354V548.84l-2.942-2.942-2.942,2.942V550.5l2.354-2.354v.186Z" transform="translate(-722.35 -545.898)"/><g transform="translate(2.369 2.303)"><rect class="h" width="1.146" height="7.585"/></g></g><g transform="translate(71.136 55.856)"><g transform="translate(5.282)"><path class="i" d="M746.569,512.983h.186l-2.354,2.354h1.664l2.942-2.942-2.942-2.942H744.4l2.354,2.354h-.186Z" transform="translate(-744.401 -509.453)"/></g><g transform="translate(0 2.369)"><rect class="i" width="7.585" height="1.146"/></g></g></svg>