<svg xmlns="http://www.w3.org/2000/svg" width="161.207" height="70.484" viewBox="0 0 161.207 70.484"><defs><style>.a{fill:#ffc84f;}.b{fill:#fff;}.c{fill:#937dcd;}</style></defs><rect class="a" width="70.484" height="70.484"/><g transform="translate(20.049 11.44)"><path class="b" d="M835.372,512.759a12.5,12.5,0,0,1,10.389,4.742q4.46,5.615,4.461,18.625,0,12.978-4.492,18.655-3.713,4.681-10.357,4.68a13.088,13.088,0,0,1-10.763-5.132q-4.088-5.132-4.086-18.3,0-12.915,4.492-18.593Q828.727,512.759,835.372,512.759Zm0,7.269a4.385,4.385,0,0,0-2.839,1.014,6.81,6.81,0,0,0-1.935,3.635q-.9,3.4-.9,11.449t.812,11.059a7.77,7.77,0,0,0,2.043,4.009,4.487,4.487,0,0,0,5.663-.015,6.813,6.813,0,0,0,1.934-3.635q.9-3.369.9-11.418t-.811-11.059a7.89,7.89,0,0,0-2.044-4.025A4.322,4.322,0,0,0,835.372,520.028Z" transform="translate(-820.523 -512.759)"/></g><rect class="c" width="70.484" height="70.484" transform="translate(90.723)"/><g transform="translate(113.143 11.44)"><path class="b" d="M955.772,558.681h-8.766V525.643a30.218,30.218,0,0,1-11.325,6.645v-7.955a25.366,25.366,0,0,0,7.457-4.259,16.186,16.186,0,0,0,5.521-7.316h7.113Z" transform="translate(-935.681 -512.759)"/></g></svg>