<svg xmlns="http://www.w3.org/2000/svg" width="373" height="359.634" viewBox="0 0 373 359.634"><defs><style>.a{fill:none;stroke:#947dce;stroke-miterlimit:10;stroke-width:2px;}</style></defs><g transform="translate(0 1)"><g transform="translate(60.828)"><rect class="a" width="311.172" height="357.634"/><line class="a" x2="311.172" transform="translate(0 321.87)"/><line class="a" x2="311.172" transform="translate(0 286.107)"/><line class="a" x2="311.172" transform="translate(0 250.343)"/><line class="a" x2="311.172" transform="translate(0 214.58)"/><line class="a" x2="311.172" transform="translate(0 178.817)"/><line class="a" x2="311.172" transform="translate(0 143.053)"/><line class="a" x2="311.172" transform="translate(0 107.29)"/><line class="a" x2="311.172" transform="translate(0 71.527)"/><line class="a" x2="311.172" transform="translate(0 35.763)"/><line class="a" y2="357.634" transform="translate(272.275)"/><line class="a" y2="357.634" transform="translate(233.379)"/><line class="a" y2="357.634" transform="translate(194.482)"/><line class="a" y2="357.634" transform="translate(155.586)"/><line class="a" y2="357.634" transform="translate(116.689)"/><line class="a" y2="357.634" transform="translate(77.793)"/><line class="a" y2="357.634" transform="translate(38.896)"/></g><line class="a" x2="41.164" transform="translate(0 35.763)"/><line class="a" x2="41.164" transform="translate(0 71.527)"/><line class="a" x2="41.164" transform="translate(0 107.29)"/><line class="a" x2="41.164" transform="translate(0 143.053)"/><line class="a" x2="41.164" transform="translate(0 178.817)"/><line class="a" x2="41.164" transform="translate(0 214.58)"/><line class="a" x2="41.164" transform="translate(0 250.343)"/><line class="a" x2="41.164" transform="translate(0 286.107)"/><line class="a" x2="41.164" transform="translate(0 321.87)"/><line class="a" x2="41.164" transform="translate(0 357.634)"/></g></svg>