<svg xmlns="http://www.w3.org/2000/svg" xmlns:xlink="http://www.w3.org/1999/xlink" width="92.14" height="92.14" viewBox="0 0 92.14 92.14"><defs><style>.a{fill:none;}.b,.g{fill:#fff;}.b{stroke:#a1dd6f;stroke-miterlimit:10;}.c{fill:#084500;}.d{fill:#a1dd6f;}.e{clip-path:url(#a);}.f{fill:#4a5e3a;}.h{stroke:none;}</style><clipPath id="a"><path class="a" d="M759.563,326.719v3.849a2.452,2.452,0,0,1-2.452,2.454H727.327a2.453,2.453,0,0,1-2.452-2.385l-.1-3.375a5.726,5.726,0,0,1,2.023-4.531c.079-.07.164-.141.249-.211.15-.128.3-.261.469-.4l1.239-1.057.316-.269c.638-.546,1.322-1.136,2.037-1.749.312-.269.629-.544.952-.824,1.021-.882,2.081-1.8,3.134-2.726.642-.561,1.282-1.123,1.908-1.68.251-.22.5-.442.743-.66a70.638,70.638,0,0,0,6.913-6.68c2.147-2.984,1.871-6.6-2.548-7.192-3-.406-5.759,3.274-7.223,5.681a2.46,2.46,0,0,1-3.2.936l-6.635-3.318A2.457,2.457,0,0,1,724,299.419c4.9-11.408,13.351-13.46,19.209-12.98.094.005.186.016.276.022l.247.025c.26.031.514.063.761.1s.487.078.721.124.46.094.68.144c.3.068.581.144.847.222.227.067.445.135.649.206l.272.1c.184.063.366.132.555.2l.279.106c.195.076.393.157.593.242l.254.11c.189.081.38.166.571.256l.287.137c.094.047.191.092.287.142s.191.1.287.146l.287.153c.094.054.189.106.287.161s.189.108.283.166.191.114.285.171c3.761,2.328,7.189,6.406,7.614,14.238.447,8.231-6.523,15.108-10.688,18.456l-.06.049c-.077.063-.155.124-.231.184-.1.083-.207.164-.308.242l-.018.016q-.378.289-.708.537l-.038.027c-.1.07-.189.139-.278.2l-.288.209c-.245.171-.454.316-.622.429l-.1.07c-.227.153-.352.231-.352.231h11.276A2.454,2.454,0,0,1,759.563,326.719Z" transform="translate(-723.797 -286.376)"/></clipPath></defs><g transform="translate(-708.164 -274.108)"><g class="b" transform="translate(708.164 274.108)"><circle class="h" cx="46.07" cy="46.07" r="46.07"/><circle class="a" cx="46.07" cy="46.07" r="45.57"/></g><path class="c" d="M732.17,306.98c.22-.166.454-.344.707-.537C732.628,306.638,732.39,306.816,732.17,306.98Z" transform="translate(19.277 25.966)"/><path class="d" d="M759.563,326.719v3.849a2.452,2.452,0,0,1-2.452,2.454H727.327a2.453,2.453,0,0,1-2.452-2.385l-.1-3.375a5.726,5.726,0,0,1,2.023-4.531c.079-.07.164-.141.249-.211.15-.128.3-.261.469-.4l1.239-1.057.316-.269c.638-.546,1.322-1.136,2.037-1.749.312-.269.629-.544.952-.824,1.021-.882,2.081-1.8,3.134-2.726.642-.561,1.282-1.123,1.908-1.68.251-.22.5-.442.743-.66a70.638,70.638,0,0,0,6.913-6.68c2.147-2.984,1.871-6.6-2.548-7.192-3-.406-5.759,3.274-7.223,5.681a2.46,2.46,0,0,1-3.2.936l-6.635-3.318A2.457,2.457,0,0,1,724,299.419c4.9-11.408,13.351-13.46,19.209-12.98.094.005.186.016.276.022l.247.025c.26.031.514.063.761.1s.487.078.721.124.46.094.68.144c.3.068.581.144.847.222.227.067.445.135.649.206l.272.1c.184.063.366.132.555.2l.279.106c.195.076.393.157.593.242l.254.11c.189.081.38.166.571.256l.287.137c.094.047.191.092.287.142s.191.1.287.146l.287.153c.094.054.189.106.287.161s.189.108.283.166.191.114.285.171c3.761,2.328,7.189,6.406,7.614,14.238.447,8.231-6.523,15.108-10.688,18.456l-.06.049c-.077.063-.155.124-.231.184-.1.083-.207.164-.308.242l-.018.016q-.378.289-.708.537l-.038.027c-.1.07-.189.139-.278.2l-.288.209c-.245.171-.454.316-.622.429l-.1.07c-.227.153-.352.231-.352.231h11.276A2.454,2.454,0,0,1,759.563,326.719Z" transform="translate(12.554 9.852)"/><g transform="translate(736.351 296.228)"><g class="e"><path class="f" d="M723.479,291.915a6.553,6.553,0,0,1,7.427,3.116c2.634,4.551,7.665,2.155,12.935-1.677s8.862-.48,10.059,3.114-.24,8.862-5.988,13.173-7.127,10.573-4.071,12.7c4.8,3.337,18.683,2.636,20.6,4.791s-21.319,10.779-22.756,10.541-17.725-2.876-20.6-9.343Z" transform="translate(-725.975 -282.138)"/></g></g><path class="g" d="M735.373,314.665l0,0v0l2.5-9.34h0l.043-.159L730.1,304l-.289,1.109-1.917,7.2a2.512,2.512,0,0,0-1.462-1.024,1.808,1.808,0,1,0-.921,3.391,2.012,2.012,0,0,0,2.614-1.111l0,0,0,.016v-.005l0-.005,1.955-7.308,6.716.918-1.655,6.211a2.511,2.511,0,0,0-1.462-1.022,1.826,1.826,0,1,0,1.67,2.369h0Zm-5.142-8.956.134-.5,6.7.959-.123.454Z" transform="translate(12.529 24.006)"/></g></svg>