<svg xmlns="http://www.w3.org/2000/svg" xmlns:xlink="http://www.w3.org/1999/xlink" width="98.929" height="150.062" viewBox="0 0 98.929 150.062"><defs><style>.a,.n,.o{fill:none;}.b{fill:#c44c0c;}.c{fill:#683f04;}.d,.q{fill:#132d38;}.e{fill:#f3c7c4;}.f{fill:#805103;}.g{clip-path:url(#a);}.h{fill:#e6cc17;}.i{fill:#a36803;}.j{fill:#949297;}.k{fill:#516469;}.l{opacity:0.18;}.m{fill:#fff;opacity:0.15;}.n,.o{stroke-miterlimit:10;}.o{stroke:#132d38;stroke-linecap:round;stroke-width:0.545px;}.p,.q{stroke:none;}</style><clipPath id="a"><path class="a" d="M722.893,406.517c.467,1.4,4.241,12.985,0,21.429s3.212,6.385,5.039,4.039,4.082-.922,4.449,2.908,1.939,3.327,3.994,0,2.312-1.387,4.568,1.009,4.026,1.836,5.573-1.009,2.029-1.972,5.4,0,5.168,8.22,7.161,2.688,4.316-4.659,6.044-2.687.376,4.772,4.184,0,3.1-3.024,5.929-.754,1.284.379,5.121-1.579,7.44,2.333,7.44,2.333,1.42-8.324,5.412-3.9,4.357,3.376,5.321,1.512-1.448-9.888.961-4.911,8.858,9.085,6.264,2.867-2.8-21.544-2.409-25.831S722.893,406.517,722.893,406.517Z" transform="translate(-721.607 -403.115)"/></clipPath></defs><path class="b" d="M741.271,425.277v8.159s-5.572-.2-5.373.6a24.194,24.194,0,0,0,.995,2.587h17.513v-8.558Z" transform="translate(-704.238 -286.559)"/><path class="b" d="M761.491,427.068c-.2.6-.6,5.771-.6,5.771a36.6,36.6,0,0,0-3.781,1.194c-.8.4,0,1.99,0,1.99l18.31.6.2-11.343Z" transform="translate(-699.58 -286.559)"/><path class="c" d="M724.215,406.421c.467,1.4,2.919,13.084-1.322,21.528s3.212,6.385,5.039,4.039,4.082-.922,4.449,2.908,1.939,3.327,3.994,0,2.312-1.387,4.568,1.009,4.026,1.836,5.573-1.009,2.029-1.972,5.4,0,5.168,8.22,7.161,2.688,4.316-4.659,6.044-2.688.376,4.772,4.184,0,3.1-3.024,5.929-.754,1.284.379,5.121-1.579,7.44,2.333,7.44,2.333,1.42-8.324,5.412-3.9,4.357,3.376,5.321,1.512-1.448-9.888.961-4.911,8.858,9.085,6.264,2.867-2.8-21.544-2.409-25.831S724.215,406.421,724.215,406.421Z" transform="translate(-707.427 -291.509)"/><path class="d" d="M712.544,364.668a30.372,30.372,0,0,1,3.18-.318l.382,84.347h-3.879Z" transform="translate(-709.521 -300.161)"/><path class="e" d="M723.69,367.428a46.637,46.637,0,0,1-7.472-.8c-2.862-.635-6.707.357-6.148,2.115.327,1.029.735,1.512.477,2.241a1.1,1.1,0,0,0,.663,1.445c1.921.63,7.233-.554,7.869-.872a53.025,53.025,0,0,1,5.247-1.112Z" transform="translate(-710.015 -299.694)"/><path class="f" d="M738.819,351.552c-1.759,1.715-11.705,17.341-16.641,16.619s-4.935,7.757-4.935,7.757l13.413,1.155Z" transform="translate(-708.402 -303.018)"/><g transform="translate(14.179 111.609)"><g class="g"><g transform="translate(2.3 12.773)"><circle class="h" cx="1.152" cy="1.152" r="1.152" transform="translate(0 6.996)"/><circle class="h" cx="1.195" cy="1.195" r="1.195" transform="translate(18.136 16.407)"/><circle class="h" cx="1.195" cy="1.195" r="1.195" transform="translate(11.575 9.847)"/><circle class="h" cx="1.195" cy="1.195" r="1.195" transform="translate(25.72 9.3)"/><circle class="h" cx="1.195" cy="1.195" r="1.195" transform="translate(54.268 8.105)"/><circle class="h" cx="1.195" cy="1.195" r="1.195" transform="translate(76.607 9.847)"/><circle class="h" cx="1.195" cy="1.195" r="1.195" transform="translate(51.489 2.247)"/><circle class="h" cx="1.195" cy="1.195" r="1.195" transform="translate(37.818 16.725)"/><circle class="h" cx="2.134" cy="2.134" r="2.134" transform="translate(28.206 17.346)"/><circle class="h" cx="2.134" cy="2.134" r="2.134" transform="translate(36.271 3.442)"/><circle class="h" cx="2.134" cy="2.134" r="2.134" transform="translate(67.379 2.134)"/><circle class="h" cx="2.134" cy="2.134" r="2.134" transform="translate(77.236)"/><circle class="h" cx="2.134" cy="2.134" r="2.134" transform="translate(47.856 14.003)"/><circle class="h" cx="2.134" cy="2.134" r="2.134" transform="translate(61.938 13.652)"/><circle class="h" cx="1.771" cy="1.771" r="1.771" transform="translate(25.326 0.725)"/></g></g></g><path class="i" d="M765.094,335.048s5.262-1.561,17.2,7.591,24.188,50.255,20.815,77.231-29.336,12-42.068,12-27.224,15.188-35.874-1.078S730.334,330.231,765.094,335.048Z" transform="translate(-707.193 -306.747)"/><path class="j" d="M759.525,318.4c-.243-.283-2.154-3.141,0-5.062s10.407-.229,10.478,3.862,1.678,6.009,1.678,6.009-1.556,3.534-5.144,2.4S759.525,318.4,759.525,318.4Z" transform="translate(-699.188 -311.726)"/><path class="k" d="M762.689,330.658c-.07.176.212,1.588.635,1.234s.565-.952.777-.317,1.3.247,1.408-.917-.385-3.809-.739-3.491A38.959,38.959,0,0,0,762.689,330.658Z" transform="translate(-698.258 -308.468)"/><path class="e" d="M739,330.935a15.437,15.437,0,0,1,30.874,0c0,1.21-1.267,1.867-1.531,3-1.591,6.831-6.59,12.439-13.9,12.439A15.437,15.437,0,0,1,739,330.935Z" transform="translate(-703.544 -311.067)"/><path class="j" d="M776.063,322.972c-.713,2.779-3.247,1.892-4.526,1.938a1.144,1.144,0,0,0-.549.128c-.228.155-.292.476-.091,1.087a14.866,14.866,0,0,1-.275,8.33c-.576,1.819-.85-3.347-1.828-5.834s-7.178,2.194-11.484-2.779-7.845-6.51-9.563-4.5-8.329,4.215-8.329,4.215c6.217-14.263,21.1-11.573,23.332-9.161.149.161.393-.073.494-.174a.325.325,0,0,0,.119-.274,1.078,1.078,0,0,0-.018-.155c-.677-2.963,2.579-4.307,6.985-3.823S777.124,318.858,776.063,322.972Z" transform="translate(-703.451 -311.876)"/><path class="l" d="M762.565,327.1c-.13-.061,2.01-.287,1.149,1.579s-2.058,1.913-1.675.957.763-.1.908-.766S764.1,327.814,762.565,327.1Z" transform="translate(-698.417 -308.487)"/><path class="m" d="M758.608,324.622l-8.184,12.856a8.466,8.466,0,0,1-3.755-2.226l7.132-12.82Z" transform="translate(-701.832 -309.519)"/><path class="m" d="M760.012,327.994c0,.086-5.48,6.373-7.658,8.869a3.617,3.617,0,0,1-.514.024c-.208,0-.416-.012-.612-.024l8.245-10.251S760.012,327.9,760.012,327.994Z" transform="translate(-700.814 -308.586)"/><path class="m" d="M744.719,323.785l-.22.4-4.534,8.248-2.432,4.423a6.5,6.5,0,0,1-.785-.588l-.73-1.111,4.2-9.831.993-2.324.306-.713Z" transform="translate(-704.21 -309.551)"/><path class="m" d="M746.046,330.161l-5.076,6.066-.745.889H740.2a5.967,5.967,0,0,1-1.206-.121l1.272-2.185,5.391-9.247Z" transform="translate(-703.545 -308.82)"/><g class="n" transform="translate(-704.545 -309.423)"><path class="p" d="M747.886,330.291a7.264,7.264,0,0,1-5.459,7.3,5.937,5.937,0,0,1-1.2.125H741.2a5.966,5.966,0,0,1-1.206-.121,6.21,6.21,0,0,1-2.127-.868,6.52,6.52,0,0,1-.785-.588,7.739,7.739,0,0,1-2.564-5.85c0-4.1,2.992-7.426,6.683-7.426.067,0,.133,0,.2,0,.049,0,.1,0,.146.006a6.2,6.2,0,0,1,3.288,1.183A7.648,7.648,0,0,1,747.886,330.291Z"/><path class="q" d="M 741.2005615234375 323.6705932617188 C 737.9599609375 323.6705932617188 735.3236083984375 326.6406555175781 735.3236083984375 330.2913208007812 C 735.3236083984375 332.3558349609375 736.1574096679688 334.2665710449219 737.6112670898438 335.5335998535156 C 737.8316040039062 335.7256469726562 738.0631713867188 335.8992309570312 738.3028564453125 336.0516662597656 C 738.8783569335938 336.4215698242188 739.501220703125 336.6761169433594 740.1572875976562 336.808837890625 C 740.4931640625 336.8781433105469 740.8441772460938 336.9132995605469 741.2005615234375 336.9132995605469 L 741.221435546875 336.9132995605469 C 741.5762939453125 336.9122009277344 741.9259643554688 336.8760375976562 742.2640380859375 336.8050842285156 C 745.0546264648438 336.2312927246094 747.080078125 333.4918518066406 747.080078125 330.2913208007812 C 747.080078125 328.0219116210938 746.0643920898438 325.93603515625 744.3619384765625 324.7107849121094 C 743.5072021484375 324.0934753417969 742.5175170898438 323.7367553710938 741.5 323.6791076660156 L 741.491943359375 323.6786499023438 L 741.4839477539062 323.6780395507812 C 741.4559936523438 323.6759033203125 741.4175415039062 323.6749572753906 741.3804321289062 323.6740417480469 L 741.3753051757812 323.6739196777344 L 741.3702392578125 323.6737365722656 C 741.3130493164062 323.671630859375 741.2575073242188 323.6705932617188 741.2005615234375 323.6705932617188 M 741.2005615234375 322.8649597167969 C 741.2678833007812 322.8649597167969 741.3339233398438 322.8662109375 741.3999633789062 322.86865234375 C 741.448974609375 322.8698425292969 741.497802734375 322.87109375 741.5455322265625 322.874755859375 C 742.754150390625 322.9432067871094 743.8782958984375 323.3677368164062 744.8336181640625 324.0576477050781 C 746.6709594726562 325.3800048828125 747.8857421875 327.6784362792969 747.8857421875 330.2913208007812 C 747.8857421875 333.9281005859375 745.5320434570312 336.9556274414062 742.42626953125 337.5942077636719 C 742.0360717773438 337.6761169433594 741.6336669921875 337.7176818847656 741.223876953125 337.7189331054688 L 741.2005615234375 337.7189331054688 C 740.7896118164062 337.7189331054688 740.3858642578125 337.6786193847656 739.9945068359375 337.5978698730469 C 739.2323608398438 337.4436950683594 738.5142822265625 337.1452941894531 737.8672485351562 336.7293701171875 C 737.592041015625 336.5543823242188 737.330322265625 336.3574523925781 737.0819091796875 336.1409301757812 C 735.5211181640625 334.7807006835938 734.5179443359375 332.6657104492188 734.5179443359375 330.2913208007812 C 734.5179443359375 326.1897888183594 737.5100708007812 322.8649597167969 741.2005615234375 322.8649597167969 Z"/></g><path class="m" d="M760.618,315.48s1.4-2.679,3.6-2.615c0,0-.349.032-.7.607s.287.415.287.415.478-.16-.127.446-1.531.669-1.6,1.754-.542,0-.542,0l-.127-.511s-.607.766-.575.383A.432.432,0,0,0,760.618,315.48Z" transform="translate(-698.718 -311.655)"/><path class="j" d="M757.5,325.538c.04.105,2.187.317,3.245,1.057s.782,1.165.955,2.152.526,1.234.808-.635a1.4,1.4,0,0,1,2.574-.782c.389.853,2.152.641.917-1.264s-2.01-3.034-3.668-2.822S757.5,325.538,757.5,325.538Z" transform="translate(-699.415 -309.343)"/><g class="n" transform="translate(-702.261 -309.698)"><path class="p" d="M761.838,329.816a8.336,8.336,0,0,1-8.037,8.159,3.612,3.612,0,0,1-.514.024c-.208,0-.416-.012-.612-.024a8,8,0,0,1-1.823-.318,8.466,8.466,0,0,1-3.755-2.226,7.91,7.91,0,0,1-2.349-5.615,8.552,8.552,0,0,1,17.089,0Z"/><path class="q" d="M 753.2872924804688 337.0431518554688 C 753.4346313476562 337.0431518554688 753.5618286132812 337.0431518554688 753.6659545898438 337.0282897949219 L 753.707275390625 337.0223999023438 L 753.7489013671875 337.0201110839844 C 757.7487182617188 336.8015441894531 760.8818969726562 333.6369323730469 760.8818969726562 329.8155517578125 C 760.8818969726562 325.8302001953125 757.4749755859375 322.587890625 753.2872924804688 322.587890625 C 749.1063842773438 322.587890625 745.7049560546875 325.8302001953125 745.7049560546875 329.8155517578125 C 745.7049560546875 331.6663818359375 746.4396362304688 333.4203186035156 747.7736206054688 334.7542724609375 L 747.7777099609375 334.7583618164062 L 747.78173828125 334.7624816894531 C 748.6912841796875 335.6942443847656 749.8434448242188 336.376953125 751.1136474609375 336.73681640625 L 751.1198120117188 336.7385864257812 L 751.1259765625 336.7404174804688 C 751.643310546875 336.8945617675781 752.1832275390625 336.9887084960938 752.7354125976562 337.0205383300781 C 752.9258422851562 337.032470703125 753.111328125 337.0431518554688 753.2872924804688 337.0431518554688 M 753.2872924804688 337.9991149902344 C 753.0794067382812 337.9991149902344 752.8713989257812 337.9868774414062 752.6757202148438 337.9746398925781 C 752.0396118164062 337.9379577636719 751.4279174804688 337.8278503417969 750.85302734375 337.6565856933594 C 749.3851318359375 337.2406921386719 748.1007690429688 336.4578247070312 747.09765625 335.4302368164062 C 745.6297607421875 333.9623718261719 744.7490234375 331.980712890625 744.7490234375 329.8155517578125 C 744.7490234375 325.3017272949219 748.5778198242188 321.6319274902344 753.2872924804688 321.6319274902344 C 758.009033203125 321.6319274902344 761.8378295898438 325.3017272949219 761.8378295898438 329.8155517578125 C 761.8378295898438 334.1702880859375 758.2781982421875 337.72998046875 753.8010864257812 337.9746398925781 C 753.6297607421875 337.9991149902344 753.4586181640625 337.9991149902344 753.2872924804688 337.9991149902344 Z"/></g><line class="o" x2="5.66" transform="translate(59.359 18.452)"/><path class="e" d="M762.362,377.815s-4.1.977-5.219,2.943-.708,2.673-.168,2.905c1.336.572,1.017.685.974,1.026-.158,1.268.636.765,1.3,1.132.744.409.678,1.02,1.826.169s3.708-4.784,3.708-4.784Z" transform="translate(-699.652 -297.155)"/><path class="f" d="M760.175,362.244a27.6,27.6,0,0,1,2.347-8.072,19.186,19.186,0,0,1,4.568-6.328c3.2-2.609,5.05-.516,6.569,2.621,3.724,7.691,6.93,19.765,3.761,28.116a22.515,22.515,0,0,1-5.069,7.574c-.591.608-6.554,6.01-6.739,5.784l-6.952-8.529c-.811-1-.083-3.558.083-4.669C759.562,373.268,759.346,367.7,760.175,362.244Z" transform="translate(-699.239 -304.109)"/></svg>