<svg xmlns="http://www.w3.org/2000/svg" xmlns:xlink="http://www.w3.org/1999/xlink" width="1366" height="771" viewBox="0 0 1366 771"><defs><style>.a,.ab,.ah,.n{fill:none;}.b{fill:#fcb95d;}.aa,.ab,.ah,.b,.c,.d,.h,.i,.k,.l,.m,.n,.o,.w,.x,.z{fill-rule:evenodd;}.c{fill:#a1dd6f;}.d,.g{opacity:0.15;}.e{opacity:0.5;}.aa,.f{fill:#243330;}.h,.j{fill:#d1d3d4;}.i{fill:#36a5ad;}.k{fill:#c98121;}.l{fill:#f7805c;}.m,.v{fill:#7fd1d8;}.ah,.n{stroke:#3e6569;}.ab,.ah,.n{stroke-miterlimit:10;}.n{stroke-width:15.079px;}.o,.t{opacity:0.2;}.p{fill:#4a5e3a;}.q{fill:#6dcecd;}.ad,.ap,.r{fill:#000;}.s{fill:#454c53;}.u{fill:#bcbec0;}.w,.y{fill:#243e41;}.x{fill:#171f1c;}.z{fill:#f5f880;}.ab{stroke:#fff;stroke-width:2px;}.ac{clip-path:url(#a);}.ad{opacity:0.31;}.ae{clip-path:url(#b);}.af{fill:#ebcc65;}.ag{fill:#f2d785;}.ah{stroke-width:14.837px;}.ai{fill:#1c283b;}.aj{fill:#293e59;}.ak{fill:#667b8e;}.al{fill:#182434;}.am{fill:#ba001a;}.an{fill:#a9001a;}.ao{fill:#0c0e1b;}.ap{opacity:0.11;}.aq{fill:#273747;}.ar{fill:#364c63;}</style><clipPath id="a"><path class="a" d="M3369.85,138.52V339.357l145.559-10.037V147.447S3390.6,143.016,3369.85,138.52Z"/></clipPath><clipPath id="b"><rect class="a" width="1366" height="771" transform="translate(2971.816)"/></clipPath></defs><g transform="translate(-2971.816)"><path class="b" d="M4012.3,377.7c-.177.93.59,12.467-1.735,16.936s-6.322,10.813-6.986,13.47c-.781,3.125-2.52,2.91-1.989-.931a40.414,40.414,0,0,1,2.058-8.189c.261-.429-1.106,2.579-2.312,6.031-1.282,3.67-2.44,7.8-3.271,7.484-1.612-.616,1.35-11.663,2.205-13.392a37.644,37.644,0,0,0-2.184,4.6c-.848,2.168-1.448,4.894-2.248,4.986-1.259.144-.453-6.2,1.515-10.6-.119-.177-1.245.924-3.145,6.37-.191.548-1.263,1.559-1.144-.563.249-4.467-.027-6.479,2.95-11.248,2.9-4.651,7.464-8.824,8.931-13.3Z"/><path class="b" d="M4019.364,297.033c-5.359,19.39-13.521,67.5-14.1,78.418a22.062,22.062,0,0,1,7.336,5.894c.051-.262.1-.522.149-.775,3.382-8.946,21.026-46.261,24.026-61.728-2.472-5.258,9.632,1.185,8.987.66-.983-.8-1.983-10.8,4.9-13.6C4042.611,297.492,4024.1,279.854,4019.364,297.033Z"/><path class="b" d="M4011.392,392.294s2.42,6.642.529,11.1c-1.124,2.649-.317,3.1-.36,3.644-.141,1.821-2.478-1.553-1.947-4.079.432-2.052-2.559-5.3-2.662-6.774s.476-5.292,1.467-5.694S4011.392,392.294,4011.392,392.294Z"/><path class="b" d="M4004.944,379.36l.4-8.332,8.024,7.853s-.72.263-1.116,5.592-5.318.364-5.318.364Z"/><path class="b" d="M4131.658,563.3s-2.95,13.208-5.026,17.329,8.617,4.344,9.055,4.578,9.357-3.9,9.357-3.9-4.96-2.36-.787-18.62S4131.658,563.3,4131.658,563.3Z"/><path class="c" d="M4117.938,423.278c.323,5.222,3.564,12.411,4.831,24.107a94.26,94.26,0,0,1-.077,20.081c-2.221,21.184,4.189,28.588,4.708,35.416a10.207,10.207,0,0,1-.236,3.2c-4.516,18.921-.923,57.879-.923,57.879s1.939.462,4.722.973c6.639,1.218,18.094,2.7,19.634-1.2,2.191-5.525,9.537-19.161,10.727-27.11s-.158-22.415-.772-25.968.954-19.035,3.6-24.054c3.02-5.732,2.927-18.639,1.8-31.413-1.31-14.8-4.025-29.407-4.934-32.449,0,0-22.373-13.845-27.793-12.637S4117.462,415.57,4117.938,423.278Z"/><path class="d" d="M4117.938,423.278c.323,5.222,3.564,12.411,4.831,24.107,6.018.121,14.161-2.115,22.2-3.682,6.728-1.308,15.209,5.756,20.983,11.487-1.31-14.8-4.025-29.407-4.934-32.449,0,0-22.373-13.845-27.793-12.637S4117.462,415.57,4117.938,423.278Z"/><g class="e"><path class="f" d="M4144.523,461.276l.415.666,3.966,6.364,6.64,10.65q-.409.447-.79.933c-.164.208-.322.42-.479.634l-5.524-10.289-4.689-8.776Z"/><path class="f" d="M4146.642,460.39l1.5,2.4,3.167,5.079,5.936,9.519a12.553,12.553,0,0,0-1.21,1.054l-4.85-9.032-4.2-7.861-.565-1.065Z"/><path class="f" d="M4157.925,476.912c-1.731-3.219-8.533-15.876-9.307-17.424l.016-.008,10.024,16.068-.161,1.019C4158.3,476.676,4158.112,476.791,4157.925,476.912Z"/><path class="f" d="M4151.3,460.12c.147.386,7.809,14.624,7.809,14.624l.267-1.683Z"/><path class="f" d="M4153.681,460.666c.117.309,6.235,11.679,6.235,11.679l.217-1.343Z"/><path class="f" d="M4155.425,460.876c.093.246,4.982,9.33,4.982,9.33l.174-1.073Z"/><path class="f" d="M4148.307,477.2l14.617-12.37q.7.627,1.429,1.224c-4.19,3.177-10.349,7.846-15.671,11.868Z"/><path class="f" d="M4147.231,475.133l14.039-11.88q.552.566,1.132,1.1c-3.518,2.669-9.857,7.475-14.906,11.289Z"/><path class="f" d="M4146.211,473.142l12.912-10.926,1.091-.1c.157.18.317.356.479.531-2.427,1.841-9.456,7.173-14.31,10.836C4146.325,473.369,4146.268,473.256,4146.211,473.142Z"/><path class="f" d="M4145.336,471.354l10.885-9.211,1.947-.181s-8.006,6.077-12.719,9.631C4145.411,471.514,4145.373,471.434,4145.336,471.354Z"/><path class="f" d="M4144.585,469.719l9.216-7.8,1.556-.143s-7.037,5.342-10.7,8.1C4144.632,469.825,4144.608,469.772,4144.585,469.719Z"/><path class="f" d="M4143.889,468.511l7.731-6.542,1.245-.115s-6.107,4.637-8.91,6.744Z"/></g><path class="g" d="M4127.164,506.078c-4.516,18.921-.923,57.879-.923,57.879s1.939.462,4.722.973c.019-.4,4.79.348,4.579-.064-8.705-17.042-6.169-45.117-6.63-52.482-.106-1.7-.223-6.828-1.512-9.5A10.207,10.207,0,0,1,4127.164,506.078Z"/><path class="h" d="M4170.654,601.905c-5.02-.078-14.867-2.32-22.051-3.809h0c-.229-.052-.441-.1-.659-.14-3.747-.768-6.668-1.3-7.613-1.146-.1.02-.229.031-.378.044-.371.033-.883.057-1.5.058-5.592.031-19.831-1.238-19.37-5.5a10.573,10.573,0,0,1,.595-2.4c.061-.168.122-.336.194-.5.007-.011.008-.017.016-.028.086-.223.18-.451.284-.678.007,0,.007,0,.008-.01,1.9-4.192,5.617-8.367,6.228-7.868,8.166,6.68,17.881,1.679,19.9.511.252-.145.383-.232.383-.232s.338.074.975.235c.347.093.789.212,1.311.355.284.078.59.165.924.263.113.034.227.063.339.1q.408.114.865.253c.147.046.294.091.451.144h.006q1.244.39,2.769.917c.634.219,1.3.454,2,.712,1.053.382,2.181.817,3.374,1.291.11.052.225.11.335.168.589.283,1.164.588,1.726.9a38.328,38.328,0,0,1,5.294,3.5l.005.007C4174.726,595.1,4176.847,602.005,4170.654,601.905Z"/><path class="i" d="M4167.057,589.046a11.9,11.9,0,0,0-9.724,7.315s-3.753-1.288-8.03-2.584c-.368-.109-.747-.219-1.126-.329-.684-.2-1.38-.407-2.072-.6-.6-.166-1.186-.325-1.76-.476-3.194-.833-5.983-1.38-6.96-1.084-2.648.8-18.439,1.415-17.715-2.28a1.882,1.882,0,0,1,.194-.5c.007-.011.008-.017.016-.028a4.439,4.439,0,0,0,.284-.678c.007,0,.007,0,.008-.01,1.9-4.192,5.617-8.367,6.228-7.868,8.166,6.68,17.881,1.679,19.9.511.252-.145.383-.232.383-.232s.338.074.975.235c.347.093.789.212,1.311.355.284.078.59.165.924.263.113.034.227.063.339.1q.408.114.865.253c.147.046.294.091.451.144h.006q1.244.39,2.769.917c.634.219,1.3.454,2,.712,1.053.382,2.181.817,3.374,1.291.11.052.225.11.335.168.589.283,1.164.588,1.726.9a38.328,38.328,0,0,1,5.294,3.5Z"/><path class="j" d="M4151.1,581.412c-.191.131-.461.321-.794.572a17.381,17.381,0,0,0-3.235,3.066,8.243,8.243,0,0,0-.832,1.257c-.09.17-.17.347-.244.525l-1.62-.662a8.959,8.959,0,0,1,1.205-2.052v-.006a13.15,13.15,0,0,1,1.009-1.178,19.568,19.568,0,0,1,2.382-2.142c.284.078.59.165.924.263.113.034.227.063.339.1Q4150.644,581.273,4151.1,581.412Z"/><path class="j" d="M4156.323,583.186c-1.1.763-3.958,2.922-4.921,5.294l-1.626-.663a14.638,14.638,0,0,1,4.551-5.343C4154.961,582.693,4155.623,582.928,4156.323,583.186Z"/><path class="j" d="M4161.758,585.542c-1.294.952-3.613,2.872-4.464,4.966l-1.62-.662a14.3,14.3,0,0,1,4.358-5.2C4160.621,584.928,4161.2,585.233,4161.758,585.542Z"/><path class="k" d="M4137.748,228.628s-23.513-.336-25.528-9.406-2.352-14.016,0-19.268-13.436,5.832-13.436,5.832,1.679,7.054,0,12.429-5.375,5.482-11.085,4.924,0,17.581,0,17.581,20.455,2.218,21.984,2.957,22.691.269,23.7,0S4137.748,228.628,4137.748,228.628Z"/><path class="l" d="M4144.834,369.58c-.956.072-5.512-1.846-12.8,2.776S4117.3,384.2,4111.79,383.09s-1.819-7.395,1.369-8.774c2.871-1.242,8.291-2.858,7.118-4.918s-3.731-1.827-6.307.007-4.632.067-3.748-.961,7.272-4.7,8.814-5c1.14-.229,6.321,1.332,9.042.674s13.535-4.245,13.535-4.245Z"/><path class="m" d="M4050.2,336.328l.578-.8A8.519,8.519,0,0,0,4050.2,336.328Z"/><path class="m" d="M3990.467,322.588c3.744,3.837,30.4,10.6,36.481,11.986,33.295,7.594,35.59-21.485,35.59-21.485l-3.9,19.626-4.346,25.269-19.621,62a54.452,54.452,0,0,0,12.717,8.324c.911.444,1.875.882,2.874,1.3a57.985,57.985,0,0,0,21.022,4.637c2.629,0,30.286.333,56.432.655a.019.019,0,0,0,.023,0c.228.005.45.005.672.011,24.252.3,46.992.59,46.992.59l-4.188-37.126-2.26-20.047-1.549-13.686-4.865-43.149-.362-3.189,4.094,17.663,60.258-17.4s-3.306-14.656-22.3-72.536c-7.026-21.42-35.14-38.669-72.191-26.735a95.8,95.8,0,0,0-10.584,4.112c-1.823.829-8.791,15.666-20.065,10.444-.239-.111-.479-.222-.712-.345-10.292-4.965-12.646-10.625-14.334-12.95,0-.011-.006-.011-.012-.017-.059-.07-.111-.14-.164-.211-1.185-1.495-4.071-3.078-8.019-4.421-7.115-2.424-17.7-4.2-26.829-3.137-4.638.531-8.9,1.787-12.15,4.071-9.089,6.385-17.512,17.682-22.658,33.114-.315.94-.619,1.892-.905,2.862-.146.45-.292.906-.444,1.355-1.3,4.025-2.623,8.137-3.937,12.29-1.344,4.241-2.675,8.511-3.984,12.746C4004.669,287.539,3992.646,315.1,3990.467,322.588Z"/><path class="n" d="M4110.825,255.348l-13.185,26.716-29.483,4.284,21.334,20.8-5.036,29.364,26.37-13.864,26.37,13.864-5.037-29.364,21.334-20.8-29.482-4.284Z"/><path class="o" d="M4159.261,367.374c3.645,4.556,9.247,22.073,11.951,31l-8.674-76.876-2.249-9.994c-14.019-12.576-8.037,24.124-9.48,35.257S4154.314,361.188,4159.261,367.374Z"/><path class="o" d="M4100.674,233.511c3.335,4.323,11.139,8.768,15.619,5.835,6.612-4.322,18.435-4.328,20.5-14.427.818-4-1.571-5.4-4.755-5.625a96.8,96.8,0,0,0-10.584,4.112c-1.822.829-8.791,15.666-20.064,10.444C4101.147,233.739,4100.908,233.628,4100.674,233.511Z"/><path class="l" d="M4050.2,336.328l.578-.8A8.519,8.519,0,0,0,4050.2,336.328Z"/><path class="p" d="M4144.758,297.178c3.676-2.263,5.6-.995,9.389,3.738,3.711,4.639,27.6,35.756,33.6,43.748l-.839.629s-.347-.464-.288-.384l.686.918.84-.629c5.578,7.477,28.651,39.019,32.054,43.887,3.475,4.968,3.771,6.707.561,9.6s-19.878,15.494-26.331,19.591-8.927,6.32-15.485-2.442L4148.5,375.15l-1.64-2.191c-5.592-7.47-23.931-31.973-30.447-40.679-6.558-8.763-3.676-10.415,2.074-15.452S4141.081,299.441,4144.758,297.178Z"/><path class="p" d="M4187.146,343.864c3.663,4.911,13.634,18.509,21.882,29.813l-19.767,14.795-21.81-29.14-22.508-30.072,19.767-14.794C4173.231,325.566,4183.467,338.966,4187.146,343.864Z"/><path class="p" d="M4187.345,344.131c3.392,4.547,12.637,17.175,20.085,27.413l-19.766,14.794-20.224-27.021-20.5-27.389,19.768-14.8C4174.429,327.166,4183.939,339.6,4187.345,344.131Z"/><path class="q" d="M4200.549,385.744a7.036,7.036,0,1,0,9.847,1.417A7.038,7.038,0,0,0,4200.549,385.744Z"/><path class="r" d="M4203.71,389.969a1.759,1.759,0,1,0,2.463.354A1.758,1.758,0,0,0,4203.71,389.969Z"/><path class="q" d="M4142.933,308.765a7.036,7.036,0,1,0,9.849,1.417A7.037,7.037,0,0,0,4142.933,308.765Z"/><path class="r" d="M4146.1,312.991a1.759,1.759,0,1,0,2.462.354A1.755,1.755,0,0,0,4146.1,312.991Z"/><rect class="r" width="18.656" height="3.332" transform="matrix(0.801, -0.599, 0.599, 0.801, 4179.11, 412.716)"/><rect class="r" width="18.656" height="3.331" transform="translate(4176.314 408.981) rotate(-36.809)"/><rect class="r" width="18.657" height="3.998" transform="translate(4173.12 404.712) rotate(-36.805)"/><rect class="r" width="18.657" height="3.332" transform="translate(4170.726 401.515) rotate(-36.828)"/><rect class="r" width="18.656" height="3.332" transform="matrix(0.8, -0.599, 0.599, 0.8, 4167.931, 397.781)"/><rect class="r" width="18.657" height="3.998" transform="matrix(0.801, -0.599, 0.599, 0.801, 4164.736, 393.512)"/><rect class="r" width="18.657" height="3.332" transform="translate(4161.94 389.777) rotate(-36.807)"/><rect class="r" width="18.657" height="3.331" transform="translate(4159.546 386.578) rotate(-36.822)"/><rect class="r" width="18.657" height="3.332" transform="matrix(0.8, -0.6, 0.6, 0.8, 4156.752, 382.847)"/><rect class="r" width="18.656" height="3.332" transform="matrix(0.801, -0.599, 0.599, 0.801, 4153.557, 378.576)"/><rect class="r" width="18.657" height="3.331" transform="translate(4150.762 374.841) rotate(-36.811)"/><rect class="r" width="18.656" height="3.332" transform="matrix(0.801, -0.599, 0.599, 0.801, 4148.367, 371.642)"/><rect class="r" width="18.657" height="3.998" transform="translate(4145.171 367.372) rotate(-36.804)"/><rect class="r" width="18.657" height="2.665" transform="translate(4142.778 364.174) rotate(-36.825)"/><rect class="r" width="18.656" height="3.331" transform="translate(4139.583 359.905) rotate(-36.814)"/><rect class="r" width="18.656" height="3.997" transform="matrix(0.801, -0.599, 0.599, 0.801, 4136.788, 356.17)"/><rect class="r" width="18.657" height="3.332" transform="matrix(0.801, -0.599, 0.599, 0.801, 4133.994, 352.438)"/><rect class="r" width="18.657" height="3.998" transform="matrix(0.801, -0.599, 0.599, 0.801, 4131.198, 348.702)"/><rect class="r" width="18.657" height="3.331" transform="translate(4128.402 344.966) rotate(-36.796)"/><rect class="r" width="18.657" height="3.332" transform="matrix(0.801, -0.599, 0.599, 0.801, 4125.609, 341.235)"/><rect class="r" width="18.657" height="3.331" transform="matrix(0.801, -0.599, 0.599, 0.801, 4122.814, 337.501)"/><rect class="r" width="18.656" height="3.332" transform="translate(4120.021 333.77) rotate(-36.839)"/><rect class="r" width="18.657" height="3.997" transform="matrix(0.801, -0.599, 0.599, 0.801, 4116.826, 329.5)"/><rect class="s" width="11.994" height="2.666" transform="translate(4183.245 407.122) rotate(-36.809)"/><rect class="s" width="11.994" height="1.999" transform="translate(4177.656 399.655) rotate(-36.818)"/><rect class="s" width="11.995" height="1.999" transform="matrix(0.801, -0.599, 0.599, 0.801, 4174.861, 395.921)"/><rect class="s" width="11.993" height="2.666" transform="translate(4172.067 392.187) rotate(-36.823)"/><rect class="s" width="11.993" height="1.999" transform="translate(4166.477 384.719) rotate(-36.818)"/><rect class="s" width="11.994" height="2.665" transform="matrix(0.801, -0.599, 0.599, 0.801, 4163.682, 380.984)"/><rect class="s" width="11.993" height="1.999" transform="translate(4158.093 373.516) rotate(-36.812)"/><rect class="s" width="11.993" height="1.999" transform="translate(4155.297 369.781) rotate(-36.806)"/><rect class="s" width="11.994" height="1.999" transform="translate(4152.502 366.046) rotate(-36.801)"/><rect class="s" width="11.992" height="2.665" transform="matrix(0.801, -0.599, 0.599, 0.801, 4146.914, 358.578)"/><rect class="s" width="11.994" height="1.999" transform="translate(4144.119 354.848) rotate(-36.832)"/><rect class="s" width="11.994" height="1.998" transform="translate(4138.527 347.374) rotate(-36.777)"/><rect class="s" width="11.993" height="2" transform="matrix(0.801, -0.599, 0.599, 0.801, 4135.733, 343.641)"/><rect class="s" width="11.993" height="2.665" transform="translate(4132.541 339.378) rotate(-36.83)"/><rect class="s" width="11.993" height="3.331" transform="translate(4126.951 331.908) rotate(-36.822)"/><rect class="s" width="11.993" height="2.665" transform="matrix(0.801, -0.599, 0.599, 0.801, 4124.156, 328.173)"/><path class="q" d="M4157.185,325.2c-2.161,1.618,5,14.835,16,29.526s21.658,25.288,23.819,23.672-5-14.837-16-29.527S4159.345,323.579,4157.185,325.2Z"/><path class="r" d="M4171.433,347.973l7.378,9.857,5.14-.917L4173.762,343.3Z"/><path class="b" d="M4212.364,282.787c.221.94,5.288,30.61,1.75,39.176s-31.393,39.859-42.295,46c0,0,3.122-12.628,3.167-13.542S4196.31,316.462,4196.6,312c.1-1.524-2.723-15.249-2.509-30.869S4212.364,282.787,4212.364,282.787Z"/><path class="b" d="M4171.773,357.5c-.619.711-9.983,7.211-12.108,11.778s-4.744,11.593-6.418,13.746c-1.971,2.534-.809,3.759,1.858.981a41.877,41.877,0,0,0,5.157-6.648c.182-.467-1.363,2.452-3.342,5.518-2.1,3.259-4.637,6.707-3.916,7.16,1.4.88,8.25-8.231,9.1-9.964a39.329,39.329,0,0,1-2.31,4.54c-1.192,2-2.957,4.143-2.57,4.824.61,1.072,5.059-3.464,7.333-7.707.2-.016,0,1.541-3.127,6.376-.314.486-.482,1.946,1.091.548,3.313-2.944,5.028-3.967,7.012-9.227,1.934-5.13,2.54-11.332,5.325-14.53Z"/><path class="b" d="M4161,367.189s-6.524,2.2-8.888,6.416c-1.405,2.508-2.212,2.153-2.612,2.524-1.328,1.231,2.621.98,4.27-.99,1.341-1.6,5.569-1.266,6.765-2.09s3.821-3.628,3.565-4.649S4161,367.189,4161,367.189Z"/><path class="b" d="M4171.773,357.5s1.931-1.429,5.934-7.345,2.341,4.4,2.341,4.4l-7.549,11.473Z"/><path class="m" d="M4226.528,318.568l-60.257,17.4,18.621-80.618,23.759,4.254Z"/><path class="t" d="M4119.111,421.874l9.293,13.062-30.373-.4-2.628-29.512Z"/><path class="b" d="M4025.45,529.761s-4.633,12.715-5.1,17.306-9.6-.985-10.095-1.024-5.78-8.33-5.78-8.33,5.45.686,10.7-15.26S4025.45,529.761,4025.45,529.761Z"/><path class="c" d="M4017.331,493.612c-3.281,7.337-4.442,22.783-5.573,28.618s20.4,13.312,20.4,13.312,24.021-30.882,30.413-49.254c2.724-7.823,13.539-8.112,24.575-30.115a93.605,93.605,0,0,1,11.27-17.592c7.164-8.737,13.532-12.947,16.546-17.07,4.555-6.236-1.864-15.39-5.776-19.334s-30.222-4.333-30.222-4.333A174.5,174.5,0,0,0,4066.8,410.92c-10.607,12.315-24.136,29.979-24.9,39.03-.475,5.655-7.5,19.547-9.929,22.2S4020.612,486.275,4017.331,493.612Z"/><path class="d" d="M4066.8,410.92a72.452,72.452,0,0,1,18.41,16.838,45.586,45.586,0,0,0,13.2,10.823c7.164-8.737,13.532-12.947,16.546-17.07,4.555-6.236-1.864-15.39-5.776-19.334s-30.222-4.333-30.222-4.333A174.5,174.5,0,0,0,4066.8,410.92Z"/><g class="e"><path class="f" d="M4051.544,459.95l-.388.313-3.706,2.986-6.2,5c-.209-.149-.424-.291-.648-.426-.144-.087-.29-.171-.436-.253l6.059-4.269,5.17-3.627Q4051.468,459.812,4051.544,459.95Z"/><path class="f" d="M4052.264,461.218l-1.4,1.128-2.957,2.385-5.543,4.469a7.95,7.95,0,0,0-.757-.681l5.319-3.748,4.631-3.249.628-.438C4052.211,461.129,4052.238,461.173,4052.264,461.218Z"/><path class="f" d="M4042.72,469.593c1.9-1.338,9.348-6.593,10.264-7.2l.006.01-9.355,7.547-.654-.024Q4042.855,469.755,4042.72,469.593Z"/><path class="f" d="M4052.791,464.133c-.232.122-8.615,6.04-8.615,6.04l1.081.04Z"/><path class="f" d="M4052.63,465.673c-.186.1-6.88,4.824-6.88,4.824l.862.033Z"/><path class="f" d="M4052.631,466.788c-.148.078-5.5,3.854-5.5,3.854l.689.027Z"/><path class="f" d="M4041.8,463.555l8.913,8.261q-.341.49-.661.994c-2.323-2.4-5.736-5.919-8.678-8.964C4041.517,463.75,4041.659,463.652,4041.8,463.555Z"/><path class="f" d="M4043.021,462.718l8.56,7.935q-.313.391-.607.8c-1.95-2.011-5.464-5.636-8.254-8.525Z"/><path class="f" d="M4044.2,461.923l7.873,7.3.147.68q-.152.168-.3.342c-1.346-1.388-5.245-5.408-7.924-8.185Z"/><path class="f" d="M4045.256,461.235l6.638,6.152.263,1.213s-4.443-4.578-7.043-7.275C4045.161,461.294,4045.209,461.265,4045.256,461.235Z"/><path class="f" d="M4046.229,460.637l5.619,5.208.21.97s-3.905-4.024-5.924-6.122Z"/><path class="f" d="M4046.937,460.106l4.714,4.369.168.776s-3.39-3.493-4.932-5.1Z"/></g><path class="h" d="M3971.694,540.223c4.271,2.64,13.774,6.057,20.627,8.674l.006,0c.22.08.422.157.63.237,3.571,1.373,6.317,2.5,7.03,3.138.076.072.177.149.3.241.294.227.712.523,1.234.859,4.694,3.039,17.373,9.643,19.283,5.8a10.538,10.538,0,0,0,.791-2.341c.039-.174.079-.348.107-.527,0-.013,0-.019,0-.032.047-.234.092-.477.125-.724,0-.008,0-.008,0-.013.655-4.557-.223-10.075-1.007-9.984-10.479,1.226-15.967-8.221-17.042-10.3-.134-.258-.2-.4-.2-.4s-.324-.119-.948-.327c-.341-.108-.779-.246-1.3-.407-.281-.087-.585-.179-.919-.277-.114-.032-.225-.069-.341-.095-.271-.082-.559-.167-.866-.253-.148-.04-.3-.081-.458-.121l0,0c-.839-.227-1.78-.469-2.826-.719-.653-.158-1.337-.317-2.066-.476-1.093-.246-2.277-.487-3.537-.731-.121-.016-.25-.028-.373-.039-.65-.079-1.3-.132-1.938-.175a38.351,38.351,0,0,0-6.344.093l-.008,0C3971.929,532.3,3966.423,536.971,3971.694,540.223Z"/><path class="i" d="M3981.653,531.329a11.9,11.9,0,0,1,4.25,11.4s3.855.937,8.156,2.15l1.126.33c.686.2,1.382.4,2.068.612.591.181,1.175.365,1.739.547,3.14,1.02,5.784,2.062,6.448,2.838,1.8,2.1,14.77,11.129,16.151,7.625a1.858,1.858,0,0,0,.107-.527c0-.013,0-.019,0-.032a4.361,4.361,0,0,1,.125-.724c0-.008,0-.008,0-.013.655-4.557-.223-10.075-1.007-9.984-10.479,1.226-15.967-8.221-17.042-10.3-.134-.258-.2-.4-.2-.4s-.324-.119-.948-.327c-.341-.108-.779-.246-1.3-.407-.281-.087-.585-.179-.919-.277-.114-.032-.225-.069-.341-.095-.271-.082-.559-.167-.866-.253-.148-.04-.3-.081-.458-.121l0,0c-.839-.227-1.78-.469-2.826-.719-.653-.158-1.337-.317-2.066-.476-1.093-.246-2.277-.487-3.537-.731-.121-.016-.25-.028-.373-.039-.65-.079-1.3-.132-1.938-.175a38.351,38.351,0,0,0-6.344.093Z"/><path class="j" d="M3999.208,533.5c.09.213.216.519.361.91a17.434,17.434,0,0,1,1.073,4.326,8.274,8.274,0,0,1,.023,1.507c-.015.192-.044.384-.077.574l1.721.315a8.966,8.966,0,0,0,.091-2.378l0-.005a13.177,13.177,0,0,0-.215-1.536,19.413,19.413,0,0,0-.853-3.088c-.281-.087-.585-.179-.919-.277-.114-.032-.225-.069-.341-.095C3999.8,533.668,3999.515,533.583,3999.208,533.5Z"/><path class="j" d="M3993.853,532.178c.517,1.235,1.76,4.594,1.293,7.111l1.727.318a14.646,14.646,0,0,0-.954-6.953C3995.266,532.5,3994.582,532.337,3993.853,532.178Z"/><path class="j" d="M3988,531.233c.578,1.5,1.5,4.367,1.085,6.589l1.721.315a14.307,14.307,0,0,0-.868-6.729C3989.293,531.329,3988.645,531.276,3988,531.233Z"/><path class="u" d="M3997.253,545.824a7.29,7.29,0,0,0,.9,1.373,10.016,10.016,0,0,1,2.134,5.318c.209,2.064-.237,3.848-.956,4.57l.828.824a6.528,6.528,0,0,0,1.362-4.535,11.294,11.294,0,0,0-2.461-6.917c-.019-.028-.044-.058-.064-.086-2.038-2.569-.892-3.957,1.673-6.131.146-.126.3-.256.462-.388.285-.237.573-.48.855-.725.146-.126.287-.255.42-.381a4.126,4.126,0,0,0,1.448-2.808,2.752,2.752,0,0,0-.074-.68c-.134-.258-.2-.4-.2-.4s-.324-.119-.948-.327l-.332.357a1.487,1.487,0,0,1,.388,1.05,2.352,2.352,0,0,1-.5,1.274,5.816,5.816,0,0,1-.962,1.035q-.293.243-.583.488c-.091.074-.177.151-.265.22C3998.1,540.859,3995.748,542.822,3997.253,545.824Z"/><path class="u" d="M3993.815,538.016a21.943,21.943,0,0,0,.151,3.311,15.842,15.842,0,0,1,.093,3.555,5.037,5.037,0,0,1-2.092,3.549l.354.466.006,0,.352.459c.1-.073.187-.147.278-.222a6.082,6.082,0,0,0,2.228-3.924,16.182,16.182,0,0,0-.055-4,19.875,19.875,0,0,1-.148-3.131,3.15,3.15,0,0,1,.214-.966,3.585,3.585,0,0,1,1.506-1.694,8.179,8.179,0,0,1,2.867-1.016c.332-.056.54-.078.553-.078l-.048-.579c-.271-.082-.559-.167-.866-.253-.148-.04-.3-.081-.458-.121l0,0a9.423,9.423,0,0,0-2.332.852,5.622,5.622,0,0,0-1.514,1.166A4.187,4.187,0,0,0,3993.815,538.016Z"/><path class="v" d="M4047.386,428.306c.911.444,1.875.882,2.874,1.3,6.139-7.454,21.1-20.521,42.6-5.807,13.75,9.411,31.2,10.888,34.855,11.1a.019.019,0,0,0,.023,0c.432.029.666.035.666.035l.006-.024,5.584-17.64-23.166-42.156L4082,375.4s-34.013,42.495-34.118,42.816C4047.818,418.4,4047.579,423.867,4047.386,428.306Z"/><path class="w" d="M4119.186,191.178c-3.066,4.009-3.91,2.441,1.092,7.76,2.252,3.454-3.1,3.5-6.9,5.329a7.269,7.269,0,0,0-2.154,1.469c-1.886,1.627-5.647,1.975-9.219,2.5-7.6-.913-9.448,5.12-9.23-2.5.03-.1.07-.2.09-.3,1.865-6.44-8.823-.536-6.639-6.262,4.991-2.262-6.113.218-2.5-9.219,5.319-3.97-6.5-7.255,2.5-9.229.585-3.543,8.951-1.181,6.549-6.55,2.4-2.888,6.937-1.231,9.23-2.5,9.16-2.064,5.319,4.912,9.219,2.5,5.17-1.747,6.52,4.922,6.56,6.55C4120.754,183.923,4127.1,191.178,4119.186,191.178Z"/><path class="x" d="M4113.381,204.267a7.269,7.269,0,0,0-2.154,1.469c-1.886,1.627-5.647,1.975-9.219,2.5-7.6-.913-9.448,5.12-9.23-2.5.03-.1.07-.2.09-.3,2.491-.466,4.774-1.376,4.773-3.344,0-8.887,10.527-9.89,10.527-9.89s2.861,6.039,3.039,6.694C4111.3,199.236,4112.319,201.747,4113.381,204.267Z"/><path class="b" d="M4106.34,183.907s11.42-2.679,11.42,10.62-1.343,14.979-11.42,10.948S4094.919,184.509,4106.34,183.907Z"/><path class="y" d="M3518.432,143.344v188.93l-63.53,5.02-.29.02-6.89.54-.18.01-8.65.69-6.29.5h-.03l-66.16,5.22V135.424Z"/><path class="v" d="M3515.412,147.444v181.88l-60.85,4.19-21.96,1.52-62.75,4.32V138.524C3390.6,143.014,3515.412,147.444,3515.412,147.444Z"/><path class="z" d="M3454.562,333.513l-21.96,1.52v-2.58l.01-18.43v-.61l.01-6.67.01-17.77.01-8.16v-.56l6.26-.04,6.82-.04,1.43-.01,6.76-.04h.02v.21l.08,6.58.35,29.81.14,11.52Z"/><path class="z" d="M3434.155,283.182l-9.016-14.13c-3.9-6.109,13.451-62.209,22.079-76.046,2.4-3.849,6.782-5.971,8.776-1.173l6.235,15.005c1.691,4.071-7.9,11.869-4.036,27.167l6.1,24.126c1.115,4.409-4.512,6.683-7.453,12.3s-2.924,8.774-3.067,13.852S3435.772,289.651,3434.155,283.182Z"/><rect class="f" width="3.055" height="6.557" transform="translate(3437.016 204.904) rotate(-72.557)"/><path class="aa" d="M3437.216,207.726a8.649,8.649,0,0,0,2.57-7.937l-3.427-1.077c-1.058.212-3.506,2.412-2.686,7.839Z"/><rect class="f" width="3.056" height="6.558" transform="translate(3432.885 216.205) rotate(-72.543)"/><path class="aa" d="M3433.085,219.026a8.651,8.651,0,0,0,2.571-7.934l-3.43-1.079c-1.056.211-3.5,2.413-2.684,7.838Z"/><rect class="f" width="3.055" height="6.558" transform="translate(3429.272 227.522) rotate(-72.531)"/><path class="aa" d="M3429.473,230.344a8.64,8.64,0,0,0,2.57-7.934l-3.427-1.079c-1.058.213-3.5,2.413-2.684,7.841Z"/><rect class="f" width="3.055" height="6.558" transform="matrix(0.3, -0.954, 0.954, 0.3, 3425.972, 239.052)"/><path class="aa" d="M3426.172,241.873a8.647,8.647,0,0,0,2.57-7.934l-3.426-1.078c-1.059.212-3.506,2.412-2.684,7.839Z"/><rect class="f" width="3.055" height="6.558" transform="translate(3423.215 250.285) rotate(-72.531)"/><path class="aa" d="M3423.414,253.107a8.646,8.646,0,0,0,2.571-7.934l-3.427-1.078c-1.058.21-3.506,2.412-2.687,7.839Z"/><rect class="f" width="3.056" height="6.558" transform="matrix(0.3, -0.954, 0.954, 0.3, 3421.577, 262.381)"/><path class="aa" d="M3421.777,265.2a8.638,8.638,0,0,0,2.571-7.934l-3.427-1.079c-1.059.211-3.5,2.413-2.684,7.839Z"/><path class="ab" d="M3428.752,261.434l8.18,11.36,1.97,2.73v46.41l-.01,12.66"/><path class="ab" d="M3430.392,249.334v.01l1.36,2.01,4.58,6.81,1.55,2.29,4.08,6.06,5.15,7.65.04,6v.5l.01,1.22.04,6.08.14,19.79.12,17.29.01,1.03.04,6.86.01,1.07"/><g class="ac"><path class="r" d="M3492.4,124.631a146.714,146.714,0,0,1,41.115,46.1c1.186,2.1,2.308,4.778.972,6.739-4.712-.989-8.945-3.563-13.073-6.1l-57.862-35.489q13.9,13.919,27.66,27.868c6.049,6.13,12.186,12.415,15.95,20.119-1.809,1.606-4.658.307-6.724-1.024l-50.155-32.319c6.359,11.809,19.825,19.049,24.714,31.471a12.43,12.43,0,0,1-7.231.036"/></g><path class="ad" d="M3515.409,296.693,3398.672,139.087l-19.306-.379,127.461,191.2,8.582-.592Z"/><path class="ad" d="M3466.85,332.668l-97.463-124.434v16.234L3453.3,333.662Z"/><g class="ae"><rect class="r" width="1366" height="771" transform="translate(2971.816)"/><path class="af" d="M4337.816,9.537V768l-242.228-67.586-32.991-6.263,1.636-558.092,30.118-25.56Z"/><path class="af" d="M3288.113,125.471l-16.051,556.371-300.044,74.4V6.188l298.844,93.571Z"/><path class="ag" d="M3669.794,89.071H3245.186V706.455h849.165V89.071Z"/><path class="r" d="M2971.816,60.78c121.657,30.38,335.7,73.888,615,80.372,352.972,8.194,622.429-47.1,751-78.7V0h-1366Z"/><path class="r" d="M2971.816,722.684c121.657-29.39,335.7-71.481,615-77.753,352.972-7.928,622.429,45.568,751,76.133v47.19L2972.016,771Z"/></g><path class="b" d="M3555.909,477.7c.174.916-.581,12.267,1.707,16.665s6.221,10.64,6.874,13.254c.769,3.075,2.48,2.864,1.957-.916a39.844,39.844,0,0,0-2.025-8.058c-.257-.422,1.088,2.538,2.274,5.935,1.262,3.611,2.4,7.676,3.22,7.363,1.585-.606-1.328-11.476-2.17-13.177a37.028,37.028,0,0,1,2.149,4.53c.834,2.134,1.425,4.816,2.212,4.906,1.239.142.446-6.1-1.491-10.43.117-.175,1.225.909,3.094,6.268.188.538,1.244,1.534,1.127-.554-.246-4.4.026-6.376-2.9-11.069-2.857-4.576-7.345-8.682-8.788-13.085Z"/><path class="b" d="M3548.957,398.318c5.273,19.08,13.3,66.417,13.87,77.163a21.709,21.709,0,0,0-7.219,5.8c-.049-.258-.1-.514-.146-.763-3.328-8.8-20.689-45.52-23.642-60.738,2.434-5.174-9.477,1.166-8.842.649.967-.79,1.951-10.626-4.82-13.382C3526.082,398.77,3544.295,381.415,3548.957,398.318Z"/><path class="b" d="M3556.8,492.054s-2.382,6.535-.521,10.919c1.107,2.606.312,3.046.354,3.586.139,1.792,2.439-1.529,1.916-4.014-.425-2.02,2.518-5.22,2.62-6.666s-.468-5.207-1.443-5.6S3556.8,492.054,3556.8,492.054Z"/><path class="b" d="M3563.146,479.327l-.39-8.2-7.9,7.727s.709.259,1.1,5.5,5.233.358,5.233.358Z"/><path class="b" d="M3438.462,660.325s2.9,13,4.946,17.051-8.48,4.275-8.911,4.505-9.207-3.84-9.207-3.84,4.881-2.322.775-18.321S3438.462,660.325,3438.462,660.325Z"/><path class="c" d="M3451.962,522.541c-.317,5.139-3.507,12.213-4.753,23.72a92.706,92.706,0,0,0,.075,19.76c2.186,20.845-4.122,28.13-4.633,34.849a10.057,10.057,0,0,0,.233,3.144c4.444,18.618.908,56.953.908,56.953s-1.908.454-4.646.957c-6.533,1.2-17.8,2.654-19.32-1.176-2.156-5.436-9.384-18.854-10.555-26.676s.156-22.055.76-25.551-.939-18.73-3.544-23.67c-2.971-5.64-2.88-18.34-1.768-30.909,1.289-14.559,3.961-28.936,4.855-31.929,0,0,22.015-13.624,27.348-12.435S3452.43,514.957,3451.962,522.541Z"/><path class="d" d="M3451.962,522.541c-.317,5.139-3.507,12.213-4.753,23.72-5.922.12-13.935-2.08-21.843-3.622-6.62-1.287-14.965,5.664-20.647,11.3,1.289-14.559,3.961-28.936,4.855-31.929,0,0,22.015-13.624,27.348-12.435S3452.43,514.957,3451.962,522.541Z"/><g class="e"><path class="f" d="M3425.8,559.93l-.408.655-3.9,6.262-6.534,10.481q.4.439.778.917c.161.205.317.414.471.624l5.435-10.124c1.631-3.051,3.27-6.119,4.614-8.636Z"/><path class="f" d="M3423.718,559.059l-1.475,2.366-3.116,5-5.842,9.367a12.279,12.279,0,0,1,1.191,1.038c1.134-2.112,2.945-5.486,4.772-8.888l4.133-7.735.557-1.048Z"/><path class="f" d="M3412.615,575.316c1.7-3.168,8.4-15.622,9.159-17.145l-.017-.008-9.862,15.811.158,1C3412.244,575.084,3412.432,575.2,3412.615,575.316Z"/><path class="f" d="M3419.132,558.793c-.145.38-7.683,14.39-7.683,14.39l-.263-1.657Z"/><path class="f" d="M3416.792,559.33c-.116.3-6.136,11.492-6.136,11.492l-.213-1.322Z"/><path class="f" d="M3415.075,559.537c-.091.242-4.9,9.18-4.9,9.18l-.171-1.056Z"/><path class="f" d="M3422.079,575.6,3407.7,563.428q-.688.617-1.405,1.2c4.123,3.126,10.183,7.72,15.42,11.678Q3421.894,575.954,3422.079,575.6Z"/><path class="f" d="M3423.139,573.566l-13.814-11.69q-.545.555-1.114,1.083c3.461,2.626,9.7,7.355,14.667,11.108Z"/><path class="f" d="M3424.142,571.607l-12.705-10.752-1.074-.1c-.154.177-.312.35-.471.522,2.388,1.812,9.3,7.059,14.081,10.663C3424.029,571.829,3424.086,571.718,3424.142,571.607Z"/><path class="f" d="M3425,569.847l-10.711-9.064-1.915-.177s7.877,5.979,12.515,9.476Z"/><path class="f" d="M3425.742,568.238l-9.069-7.674-1.531-.141s6.925,5.257,10.53,7.972C3425.7,568.343,3425.719,568.291,3425.742,568.238Z"/><path class="f" d="M3426.427,567.049l-7.608-6.437-1.225-.113s6.01,4.562,8.768,6.636C3426.383,567.106,3426.405,567.077,3426.427,567.049Z"/></g><path class="g" d="M3442.884,604.014c4.444,18.618.908,56.953.908,56.953s-1.908.454-4.646.957c-.019-.4-4.713.342-4.506-.063,8.565-16.769,6.07-44.394,6.524-51.641.1-1.669.219-6.719,1.487-9.35A10.057,10.057,0,0,0,3442.884,604.014Z"/><path class="h" d="M3400.09,698.306c4.94-.077,14.629-2.283,21.7-3.748h.006c.224-.051.433-.094.647-.137,3.688-.756,6.562-1.279,7.491-1.128.1.02.226.03.373.043.365.033.868.056,1.479.058,5.5.03,19.513-1.219,19.059-5.417a10.336,10.336,0,0,0-.586-2.359c-.059-.165-.119-.331-.19-.494a.211.211,0,0,0-.016-.027c-.085-.22-.177-.444-.28-.667-.006-.005-.006-.005-.007-.011-1.873-4.125-5.528-8.233-6.128-7.742-8.036,6.573-17.595,1.653-19.586.5-.248-.144-.377-.229-.377-.229s-.332.073-.959.231c-.341.092-.777.209-1.29.35-.279.077-.58.162-.909.258-.111.034-.223.063-.333.1-.268.075-.552.159-.852.25-.144.045-.289.09-.444.142h0c-.816.256-1.725.554-2.725.9-.624.215-1.275.446-1.964.7-1.036.376-2.146.8-3.32,1.27-.108.051-.222.108-.33.165-.58.279-1.145.579-1.7.882a37.741,37.741,0,0,0-5.209,3.442l-.005.006C3396.084,691.613,3394,698.405,3400.09,698.306Z"/><path class="i" d="M3403.63,685.653a11.712,11.712,0,0,1,9.568,7.2s3.693-1.268,7.9-2.543l1.108-.323c.674-.2,1.358-.4,2.039-.59.586-.163,1.167-.32,1.732-.468,3.143-.819,5.887-1.358,6.849-1.066,2.6.784,18.143,1.392,17.43-2.244a1.837,1.837,0,0,0-.19-.494.211.211,0,0,0-.016-.027,4.438,4.438,0,0,1-.28-.667c-.006-.005-.006-.005-.007-.011-1.873-4.125-5.528-8.233-6.128-7.742-8.036,6.573-17.595,1.653-19.586.5-.248-.144-.377-.229-.377-.229s-.332.073-.959.231c-.341.092-.777.209-1.29.35-.279.077-.58.162-.909.258-.111.034-.223.063-.333.1-.268.075-.552.159-.852.25-.144.045-.289.09-.444.142h0c-.816.256-1.725.554-2.725.9-.624.215-1.275.446-1.964.7-1.036.376-2.146.8-3.32,1.27-.108.051-.222.108-.33.165-.58.279-1.145.579-1.7.882a37.741,37.741,0,0,0-5.209,3.442Z"/><path class="j" d="M3419.33,678.142c.188.129.454.316.782.563a17.144,17.144,0,0,1,3.183,3.016,8.085,8.085,0,0,1,.818,1.237c.089.167.168.342.241.517l1.593-.652a8.8,8.8,0,0,0-1.186-2.019V680.8a13.071,13.071,0,0,0-.993-1.158,19.154,19.154,0,0,0-2.344-2.108c-.279.077-.58.162-.909.258-.111.034-.223.063-.333.1C3419.914,677.967,3419.63,678.051,3419.33,678.142Z"/><path class="j" d="M3414.192,679.888c1.083.75,3.894,2.874,4.843,5.208l1.6-.652a14.4,14.4,0,0,0-4.478-5.257C3415.532,679.4,3414.881,679.633,3414.192,679.888Z"/><path class="j" d="M3408.844,682.205c1.273.937,3.556,2.827,4.393,4.887l1.594-.651a14.078,14.078,0,0,0-4.289-5.118C3409.962,681.6,3409.4,681.9,3408.844,682.205Z"/><path class="k" d="M3432.469,331.009s23.136-.33,25.12-9.255,2.313-13.792,0-18.96,13.22,5.74,13.22,5.74-1.652,6.941,0,12.229,5.289,5.395,10.908,4.846,0,17.3,0,17.3-20.128,2.183-21.633,2.909-22.327.265-23.318,0S3432.469,331.009,3432.469,331.009Z"/><path class="l" d="M3425.5,469.7c.94.071,5.423-1.817,12.592,2.731s14.5,11.655,19.922,10.562,1.791-7.277-1.347-8.634c-2.825-1.222-8.158-2.811-7-4.839s3.672-1.8,6.206.007,4.558.066,3.689-.945-7.156-4.62-8.673-4.924c-1.122-.224-6.22,1.312-8.9.664s-13.318-4.177-13.318-4.177Z"/><path class="m" d="M3518.615,436.984l-.569-.782A8.478,8.478,0,0,1,3518.615,436.984Z"/><path class="m" d="M3577.391,423.464c-3.685,3.776-29.908,10.427-35.9,11.8-32.762,7.471-35.019-21.142-35.019-21.142l3.839,19.312,4.276,24.864,19.307,61a53.539,53.539,0,0,1-12.513,8.191c-.9.436-1.845.867-2.828,1.281a57.053,57.053,0,0,1-20.686,4.564c-2.586,0-29.8.327-55.527.644a.02.02,0,0,1-.023,0c-.224,0-.443,0-.661.011-23.864.293-46.24.581-46.24.581l4.122-36.532,2.224-19.726,1.523-13.467,4.788-42.457.356-3.138-4.029,17.38-59.292-17.122s3.253-14.421,21.944-71.374c6.914-21.076,34.578-38.049,71.035-26.306a94.305,94.305,0,0,1,10.414,4.046c1.794.816,8.65,15.415,19.743,10.277.236-.11.472-.219.7-.34,10.127-4.885,12.443-10.454,14.1-12.742,0-.011.006-.011.012-.017.057-.069.109-.138.161-.207,1.166-1.472,4.006-3.029,7.891-4.351,7-2.385,17.415-4.133,26.4-3.087a25.938,25.938,0,0,1,11.955,4.007c8.943,6.282,17.231,17.4,22.3,32.583.31.925.609,1.862.891,2.816.143.443.287.891.436,1.334,1.282,3.96,2.581,8.006,3.875,12.092,1.321,4.173,2.632,8.375,3.919,12.542C3563.416,388.977,3575.247,416.1,3577.391,423.464Z"/><path class="ah" d="M3458.961,357.3l12.974,26.288,29.01,4.215-20.992,20.462,4.956,28.893-25.948-13.641-25.948,13.641,4.956-28.893L3416.977,387.8l29.01-4.215Z"/><path class="o" d="M3411.3,467.532c-3.587,4.483-9.1,21.721-11.76,30.5l8.536-75.644,2.212-9.835c13.795-12.374,7.909,23.738,9.329,34.693S3416.169,461.446,3411.3,467.532Z"/><path class="o" d="M3468.949,335.814c-3.281,4.254-10.96,8.628-15.369,5.742-6.506-4.253-18.139-4.259-20.168-14.2-.805-3.932,1.546-5.311,4.679-5.535a95.587,95.587,0,0,1,10.414,4.046c1.793.816,8.65,15.415,19.743,10.277C3468.484,336.039,3468.72,335.929,3468.949,335.814Z"/><path class="l" d="M3518.615,436.984l-.569-.782A8.478,8.478,0,0,1,3518.615,436.984Z"/><path class="p" d="M3425.571,398.461c-3.617-2.226-5.512-.979-9.238,3.679-3.652,4.564-27.155,35.182-33.06,43.047l.826.619.283-.378-.675.9-.826-.619c-5.489,7.357-28.192,38.394-31.541,43.184-3.419,4.888-3.71,6.6-.552,9.442s19.56,15.246,25.909,19.278,8.785,6.218,15.237-2.4l29.959-40.028c1.024-1.367,1.613-2.156,1.613-2.156,5.5-7.35,23.547-31.461,29.96-40.027,6.452-8.623,3.616-10.248-2.042-15.205S3429.19,400.689,3425.571,398.461Z"/><path class="p" d="M3383.863,444.4c-3.6,4.833-13.416,18.213-21.532,29.335l19.45,14.558,21.461-28.672,22.148-29.591-19.451-14.557C3397.555,426.394,3387.483,439.58,3383.863,444.4Z"/><path class="p" d="M3383.667,444.663c-3.338,4.474-12.435,16.9-19.764,26.973l19.45,14.557,19.9-26.589,20.172-26.949L3403.974,418.1C3396.376,427.969,3387.018,440.2,3383.667,444.663Z"/><path class="q" d="M3370.674,485.609a6.923,6.923,0,1,1-9.689,1.394A6.923,6.923,0,0,1,3370.674,485.609Z"/><path class="r" d="M3367.564,489.765a1.731,1.731,0,1,1-2.424.349A1.731,1.731,0,0,1,3367.564,489.765Z"/><path class="q" d="M3427.367,409.863a6.923,6.923,0,1,1-9.691,1.394A6.922,6.922,0,0,1,3427.367,409.863Z"/><path class="r" d="M3424.255,414.021a1.73,1.73,0,1,1-2.422.348A1.726,1.726,0,0,1,3424.255,414.021Z"/><rect class="r" width="3.278" height="18.357" transform="matrix(0.599, -0.801, 0.801, 0.599, 3375.11, 503.772)"/><rect class="r" width="3.278" height="18.358" transform="translate(3377.859 500.099) rotate(-53.191)"/><rect class="r" width="3.934" height="18.358" transform="translate(3380.609 496.425) rotate(-53.195)"/><rect class="r" width="3.279" height="18.358" transform="translate(3383.36 492.747) rotate(-53.172)"/><rect class="r" width="3.278" height="18.358" transform="matrix(0.599, -0.8, 0.8, 0.599, 3386.111, 489.073)"/><rect class="r" width="3.934" height="18.358" transform="matrix(0.599, -0.801, 0.801, 0.599, 3388.86, 485.4)"/><rect class="r" width="3.278" height="18.358" transform="translate(3392.002 481.202) rotate(-53.193)"/><rect class="r" width="3.278" height="18.358" transform="translate(3394.36 478.051) rotate(-53.178)"/><rect class="r" width="3.278" height="18.358" transform="matrix(0.6, -0.8, 0.8, 0.6, 3397.111, 474.375)"/><rect class="r" width="3.278" height="18.358" transform="matrix(0.599, -0.801, 0.801, 0.599, 3400.253, 470.178)"/><rect class="r" width="3.278" height="18.358" transform="translate(3403.002 466.505) rotate(-53.189)"/><rect class="r" width="3.278" height="18.357" transform="matrix(0.599, -0.801, 0.801, 0.599, 3405.36, 463.354)"/><rect class="r" width="3.934" height="18.358" transform="translate(3408.109 459.682) rotate(-53.196)"/><rect class="r" width="2.623" height="18.358" transform="translate(3411.253 455.48) rotate(-53.175)"/><rect class="r" width="3.278" height="18.357" transform="translate(3414.003 451.807) rotate(-53.186)"/><rect class="r" width="3.933" height="18.357" transform="matrix(0.599, -0.801, 0.801, 0.599, 3416.36, 448.66)"/><rect class="r" width="3.278" height="18.358" transform="matrix(0.599, -0.801, 0.801, 0.599, 3419.503, 444.458)"/><rect class="r" width="3.934" height="18.358" transform="matrix(0.599, -0.801, 0.801, 0.599, 3421.859, 441.311)"/><rect class="r" width="3.278" height="18.358" transform="translate(3425.001 437.113) rotate(-53.204)"/><rect class="r" width="3.278" height="18.358" transform="matrix(0.599, -0.801, 0.801, 0.599, 3427.753, 433.435)"/><rect class="r" width="3.278" height="18.358" transform="matrix(0.599, -0.801, 0.801, 0.599, 3430.503, 429.762)"/><rect class="r" width="3.279" height="18.358" transform="translate(3433.254 426.084) rotate(-53.161)"/><rect class="r" width="3.933" height="18.358" transform="matrix(0.599, -0.801, 0.801, 0.599, 3436.003, 422.412)"/><rect class="s" width="2.623" height="11.802" transform="translate(3376.681 501.673) rotate(-53.191)"/><rect class="s" width="1.967" height="11.802" transform="translate(3382.574 493.798) rotate(-53.182)"/><rect class="s" width="1.967" height="11.802" transform="matrix(0.599, -0.801, 0.801, 0.599, 3385.324, 490.124)"/><rect class="s" width="2.623" height="11.801" transform="translate(3387.681 486.975) rotate(-53.177)"/><rect class="s" width="1.967" height="11.801" transform="translate(3393.575 479.102) rotate(-53.182)"/><rect class="s" width="2.622" height="11.801" transform="matrix(0.599, -0.801, 0.801, 0.599, 3395.931, 475.953)"/><rect class="s" width="1.967" height="11.801" transform="translate(3401.824 468.08) rotate(-53.188)"/><rect class="s" width="1.967" height="11.801" transform="translate(3404.574 464.407) rotate(-53.194)"/><rect class="s" width="1.967" height="11.801" transform="translate(3407.323 460.732) rotate(-53.199)"/><rect class="s" width="2.622" height="11.8" transform="matrix(0.599, -0.801, 0.801, 0.599, 3412.431, 453.908)"/><rect class="s" width="1.967" height="11.802" transform="translate(3415.575 449.706) rotate(-53.168)"/><rect class="s" width="1.966" height="11.802" transform="translate(3421.072 442.362) rotate(-53.223)"/><rect class="s" width="1.968" height="11.801" transform="matrix(0.599, -0.801, 0.801, 0.599, 3423.823, 438.688)"/><rect class="s" width="2.622" height="11.801" transform="translate(3426.575 435.01) rotate(-53.17)"/><rect class="s" width="3.278" height="11.801" transform="translate(3431.682 428.187) rotate(-53.178)"/><rect class="s" width="2.622" height="11.801" transform="matrix(0.599, -0.801, 0.801, 0.599, 3434.824, 423.989)"/><path class="q" d="M3413.344,426.029c2.126,1.592-4.921,14.6-15.74,29.053s-21.311,24.883-23.437,23.293,4.921-14.6,15.739-29.054S3411.218,424.44,3413.344,426.029Z"/><path class="r" d="M3399.324,448.443l-7.26,9.7-5.057-.9,10.026-13.394Z"/><path class="b" d="M3359.049,384.3c-.218.925-5.2,30.12-1.722,38.549s30.89,39.219,41.617,45.259c0,0-3.072-12.425-3.116-13.325s-20.982-37.347-21.271-41.742c-.1-1.5,2.679-15.005,2.469-30.375S3359.049,384.3,3359.049,384.3Z"/><path class="b" d="M3398.99,457.817c.609.7,9.822,7.1,11.914,11.589s4.667,11.407,6.315,13.526c1.939,2.493.795,3.7-1.829.965a41.175,41.175,0,0,1-5.074-6.541c-.179-.46,1.341,2.412,3.288,5.429,2.071,3.208,4.564,6.6,3.853,7.046-1.377.866-8.117-8.1-8.951-9.8a38.63,38.63,0,0,0,2.274,4.467c1.172,1.964,2.909,4.076,2.528,4.746-.6,1.056-4.977-3.408-7.215-7.584-.2-.015,0,1.517,3.077,6.275.309.478.474,1.915-1.074.539-3.26-2.9-4.947-3.9-6.9-9.079-1.9-5.048-2.5-11.151-5.24-14.3Z"/><path class="b" d="M3409.586,467.35s6.42,2.163,8.745,6.314c1.383,2.468,2.177,2.118,2.571,2.483,1.307,1.212-2.579.964-4.2-.974-1.319-1.575-5.48-1.245-6.657-2.056s-3.76-3.57-3.507-4.575S3409.586,467.35,3409.586,467.35Z"/><path class="b" d="M3398.99,457.817s-1.9-1.406-5.84-7.227-2.3,4.326-2.3,4.326l7.428,11.288Z"/><path class="m" d="M3345.112,419.509l59.292,17.118L3386.082,357.3l-23.378,4.186Z"/><path class="t" d="M3450.808,521.16l-9.145,12.853,29.887-.392,2.586-29.039Z"/><path class="b" d="M3542.969,627.318s4.558,12.512,5.022,17.029,9.447-.969,9.934-1.008,5.687-8.2,5.687-8.2-5.363.675-10.526-15.016S3542.969,627.318,3542.969,627.318Z"/><path class="c" d="M3550.957,591.748c3.228,7.22,4.371,22.418,5.484,28.16s-20.07,13.1-20.07,13.1-23.637-30.386-29.926-48.464c-2.681-7.7-13.322-7.983-24.181-29.633a92.073,92.073,0,0,0-11.09-17.31c-7.049-8.6-13.315-12.74-16.281-16.8-4.482-6.137,1.835-15.144,5.684-19.025s29.738-4.263,29.738-4.263a172.022,172.022,0,0,1,11.961,12.866c10.437,12.118,23.749,29.5,24.5,38.4.467,5.564,7.379,19.234,9.77,21.848S3547.729,584.529,3550.957,591.748Z"/><path class="d" d="M3502.276,510.381a71.291,71.291,0,0,0-18.115,16.569,44.856,44.856,0,0,1-12.987,10.649c-7.049-8.6-13.315-12.74-16.281-16.8-4.482-6.137,1.835-15.144,5.684-19.025s29.738-4.263,29.738-4.263A172.022,172.022,0,0,1,3502.276,510.381Z"/><g class="e"><path class="f" d="M3517.293,558.626l.381.308,3.646,2.938,6.1,4.92q.309-.22.638-.42.213-.128.429-.249l-5.961-4.2-5.088-3.569Z"/><path class="f" d="M3516.584,559.873l1.378,1.111,2.909,2.346,5.454,4.4a7.679,7.679,0,0,1,.745-.671l-5.234-3.688-4.556-3.2-.618-.431Z"/><path class="f" d="M3525.975,568.114c-1.865-1.316-9.2-6.488-10.1-7.084l-.007.009,9.205,7.426.644-.023C3525.8,568.33,3525.886,568.22,3525.975,568.114Z"/><path class="f" d="M3516.065,562.742c.228.12,8.477,5.943,8.477,5.943l-1.064.039Z"/><path class="f" d="M3516.224,564.257c.183.1,6.77,4.747,6.77,4.747l-.849.032Z"/><path class="f" d="M3516.223,565.354c.145.077,5.408,3.792,5.408,3.792l-.678.027Z"/><path class="f" d="M3526.879,562.173l-8.77,8.129q.335.481.65.977c2.286-2.357,5.645-5.823,8.54-8.819Z"/><path class="f" d="M3525.679,561.35l-8.423,7.807q.307.386.6.785c1.919-1.979,5.377-5.547,8.122-8.39Z"/><path class="f" d="M3524.522,560.567l-7.747,7.181-.145.669q.149.167.293.336c1.324-1.365,5.16-5.321,7.8-8.054Z"/><path class="f" d="M3523.48,559.89l-6.532,6.054-.259,1.193s4.372-4.505,6.93-7.159Z"/><path class="f" d="M3522.522,559.3l-5.529,5.125-.206.954s3.842-3.959,5.829-6.023Z"/><path class="f" d="M3521.826,558.779l-4.639,4.3-.165.763s3.335-3.436,4.853-5.015Z"/></g><path class="h" d="M3595.864,637.613c-4.2,2.6-13.554,5.96-20.3,8.535l0,0c-.217.078-.416.155-.62.233-3.514,1.351-6.217,2.459-6.918,3.087a3.619,3.619,0,0,1-.29.237c-.291.224-.7.515-1.215.846-4.619,2.991-17.095,9.489-18.974,5.708a10.386,10.386,0,0,1-.778-2.3c-.039-.172-.078-.343-.106-.519,0-.013,0-.018,0-.031-.046-.231-.09-.47-.123-.713,0-.008,0-.008,0-.013-.645-4.484.22-9.914.991-9.824,10.311,1.207,15.711-8.09,16.769-10.13.132-.255.2-.4.2-.4s.319-.117.932-.322c.337-.107.767-.243,1.276-.4.276-.086.576-.176.9-.272.112-.031.222-.068.336-.094q.4-.121.852-.248c.146-.04.292-.08.45-.12l.006,0q1.237-.336,2.781-.709c.642-.154,1.315-.311,2.032-.468,1.075-.241,2.241-.479,3.481-.719.119-.015.245-.028.367-.038.639-.078,1.276-.13,1.906-.172a37.667,37.667,0,0,1,6.243.092l.007,0C3595.632,629.815,3601.05,634.412,3595.864,637.613Z"/><path class="i" d="M3586.063,628.862a11.71,11.71,0,0,0-4.181,11.219s-3.794.922-8.026,2.116c-.362.1-.735.215-1.108.325-.674.2-1.36.394-2.035.6-.581.178-1.155.359-1.711.538-3.089,1-5.691,2.029-6.344,2.793-1.772,2.064-14.533,10.95-15.892,7.5a1.842,1.842,0,0,1-.106-.519c0-.013,0-.018,0-.031a4.312,4.312,0,0,0-.123-.713c0-.008,0-.008,0-.013-.645-4.484.22-9.914.991-9.824,10.311,1.207,15.711-8.09,16.769-10.13.132-.255.2-.4.2-.4s.319-.117.932-.322c.337-.107.767-.243,1.276-.4.276-.086.576-.176.9-.272.112-.031.222-.068.336-.094q.4-.121.852-.248c.146-.04.292-.08.45-.12l.006,0q1.237-.336,2.781-.709c.642-.154,1.315-.311,2.032-.468,1.075-.241,2.241-.479,3.481-.719.119-.015.245-.028.367-.038.639-.078,1.276-.13,1.906-.172a37.667,37.667,0,0,1,6.243.092Z"/><path class="j" d="M3568.79,630.995c-.089.209-.212.51-.355.9a17.12,17.12,0,0,0-1.056,4.256,8.22,8.22,0,0,0-.023,1.484c.015.188.043.377.076.564l-1.693.31a8.814,8.814,0,0,1-.09-2.34l0-.005a12.987,12.987,0,0,1,.212-1.511,19.051,19.051,0,0,1,.839-3.039c.276-.086.576-.176.9-.272.112-.031.222-.068.336-.094Q3568.337,631.121,3568.79,630.995Z"/><path class="j" d="M3574.059,629.7c-.508,1.216-1.731,4.521-1.272,7l-1.7.312a14.393,14.393,0,0,1,.939-6.842C3572.669,630.01,3573.342,629.853,3574.059,629.7Z"/><path class="j" d="M3579.813,628.767c-.568,1.475-1.472,4.3-1.067,6.483l-1.694.311a14.075,14.075,0,0,1,.855-6.622C3578.546,628.861,3579.183,628.809,3579.813,628.767Z"/><path class="u" d="M3570.713,643.124a7.144,7.144,0,0,1-.881,1.351,9.841,9.841,0,0,0-2.1,5.232c-.207,2.032.232,3.787.94,4.5l-.815.811a6.422,6.422,0,0,1-1.34-4.462,11.116,11.116,0,0,1,2.421-6.806c.019-.028.044-.058.063-.085,2.005-2.527.878-3.893-1.646-6.032-.144-.125-.295-.252-.454-.383-.281-.233-.564-.472-.842-.713-.143-.124-.282-.251-.413-.375a4.052,4.052,0,0,1-1.424-2.763,2.623,2.623,0,0,1,.072-.668c.132-.255.2-.4.2-.4s.319-.117.932-.322l.327.351a1.466,1.466,0,0,0-.381,1.033,2.308,2.308,0,0,0,.491,1.254,5.706,5.706,0,0,0,.946,1.018l.574.48c.089.074.174.149.261.217C3569.882,638.238,3572.194,640.17,3570.713,643.124Z"/><path class="u" d="M3574.1,635.441a21.63,21.63,0,0,1-.148,3.258,15.565,15.565,0,0,0-.092,3.5,4.955,4.955,0,0,0,2.059,3.492l-.349.459,0,0-.346.451c-.095-.071-.185-.144-.274-.218a5.985,5.985,0,0,1-2.193-3.861,15.962,15.962,0,0,1,.055-3.934,19.587,19.587,0,0,0,.145-3.081,3.08,3.08,0,0,0-.211-.951,3.522,3.522,0,0,0-1.482-1.667,8.047,8.047,0,0,0-2.82-1c-.327-.055-.532-.077-.545-.077l.048-.57q.4-.121.852-.248c.146-.04.292-.08.45-.12l.006,0a9.242,9.242,0,0,1,2.294.837,5.532,5.532,0,0,1,1.489,1.148A4.117,4.117,0,0,1,3574.1,635.441Z"/><path class="v" d="M3521.384,527.489c-.9.436-1.845.867-2.828,1.281-6.04-7.334-20.766-20.191-41.917-5.713-13.53,9.26-30.7,10.714-34.3,10.921a.02.02,0,0,1-.023,0c-.425.028-.655.034-.655.034l-.006-.023-5.495-17.358,22.795-41.48,28.365.276s33.468,41.814,33.572,42.13C3520.959,517.746,3521.194,523.12,3521.384,527.489Z"/><path class="w" d="M3450.734,294.159c3.017,3.945,3.847,2.4-1.074,7.636-2.217,3.4,3.046,3.447,6.786,5.244a7.126,7.126,0,0,1,2.119,1.445c1.856,1.6,5.557,1.943,9.072,2.461,7.48-.9,9.3,5.039,9.081-2.461-.029-.1-.068-.2-.087-.293-1.836-6.337,8.681-.527,6.532-6.161-4.911-2.227,6.016.214,2.461-9.072-5.234-3.906,6.4-7.138-2.461-9.082-.576-3.486-8.808-1.162-6.445-6.444-2.363-2.842-6.825-1.211-9.081-2.461-9.013-2.031-5.234,4.834-9.072,2.461-5.087-1.719-6.415,4.843-6.454,6.444C3449.191,287.021,3442.951,294.159,3450.734,294.159Z"/><path class="x" d="M3456.446,307.039a7.126,7.126,0,0,1,2.119,1.445c1.856,1.6,5.557,1.943,9.072,2.461,7.48-.9,9.3,5.039,9.081-2.461-.029-.1-.068-.2-.087-.293-2.451-.459-4.7-1.354-4.7-3.291,0-8.744-10.358-9.731-10.358-9.731s-2.815,5.943-2.991,6.587C3458.5,302.088,3457.491,304.559,3456.446,307.039Z"/><path class="b" d="M3463.374,287.005s-11.237-2.636-11.237,10.449,1.322,14.74,11.237,10.773S3474.612,287.6,3463.374,287.005Z"/><path class="ai" d="M4088.936,546.429l-28-28L4047.107,733.45s32.841-25.582,32.5-27.31S4088.936,546.429,4088.936,546.429Z"/><path class="ai" d="M4074.071,703.72v16.939h-9.68V709.251Z"/><path class="ai" d="M4051.255,728.61v12.1s-10.025,3.8-14.174,0l-1.037-9.333Z"/><path class="ai" d="M3949.621,716.511v4.839s-9.68,1.729-11.754-2.419,1.037-5.877,1.037-5.877Z"/><path class="aj" d="M4060.935,518.427l-113.388,4.148-13.482,190.478,113.042,23.507Z"/><path class="ak" d="M4052.719,525.139l-1.221,38.792a7.939,7.939,0,0,1-8.131,7.609l-93.2-1.441a7.915,7.915,0,0,1-7.86-8.441l2.626-34.168a7.938,7.938,0,0,1,7.7-7.257l91.795-3.183A7.931,7.931,0,0,1,4052.719,525.139Z"/><path class="al" d="M3952.724,566.734l86.056,1.2c4.038.062,7.382-2.762,7.506-6.33l.174-4.98.954-27.264c.136-3.778-3.37-6.863-7.643-6.727L3955,525.273c-3.766.124-6.826,2.725-7.111,6.033l-2.168,25.319-.26,3.1C3945.143,563.463,3948.463,566.684,3952.724,566.734Z"/><path class="r" d="M3952.724,566.734l86.056,1.2c4.038.062,7.382-2.762,7.506-6.33l.174-4.98H3945.725l-.26,3.1C3945.143,563.463,3948.463,566.684,3952.724,566.734Z"/><rect class="am" width="4.667" height="6.547" transform="translate(4028.237 559.047)"/><rect class="am" width="4.667" height="6.806" transform="translate(4020.632 559.047)"/><circle class="an" cx="2.42" cy="2.42" r="2.42" transform="translate(4000.128 559.824)"/><path class="an" d="M4002.893,559.824h-2.074v4.84h2.14Z"/><circle class="am" cx="2.42" cy="2.42" r="2.42" transform="translate(3998.81 559.824)"/><circle class="an" cx="2.42" cy="2.42" r="2.42" transform="translate(3992.566 559.824)"/><path class="an" d="M3995.331,559.824h-2.074v4.84h2.14Z"/><circle class="am" cx="2.42" cy="2.42" r="2.42" transform="translate(3991.248 559.824)"/><circle class="an" cx="2.42" cy="2.42" r="2.42" transform="translate(3985.004 559.824)"/><path class="an" d="M3987.769,559.824H3985.7v4.84h2.14Z"/><circle class="am" cx="2.42" cy="2.42" r="2.42" transform="translate(3983.686 559.824)"/><circle class="an" cx="2.42" cy="2.42" r="2.42" transform="translate(3977.441 559.824)"/><path class="an" d="M3980.207,559.824h-2.074v4.84h2.14Z"/><circle class="am" cx="2.42" cy="2.42" r="2.42" transform="translate(3976.124 559.824)"/><circle class="an" cx="2.42" cy="2.42" r="2.42" transform="translate(3969.879 559.824)"/><path class="an" d="M3972.645,559.824h-2.074v4.84h2.14Z"/><circle class="am" cx="2.42" cy="2.42" r="2.42" transform="translate(3968.562 559.824)"/><circle class="an" cx="2.42" cy="2.42" r="2.42" transform="translate(3962.317 559.824)"/><path class="an" d="M3965.083,559.824h-2.074v4.84h2.14Z"/><circle class="am" cx="2.42" cy="2.42" r="2.42" transform="translate(3960.999 559.824)"/><path class="ao" d="M4013.747,621.79l7.087,24.717s-4.321,23.335-4.321,23.853-9.853,20.915-10.544,21.088-17.631,7.951-17.631,7.951-12.79-3.8-13.654-3.976-13.655-11.062-14-11.58-6.223-13.483-6.223-13.483l-1.382-7.951.864-20.741,8.124-23.162s13.482-12.1,14-12.618,19.532.346,19.532.346l10.889,8.815Z"/><path class="ap" d="M3995.08,642.7l-11.062-36.982L3967.6,612.8l-1.611,5.769,20.969,26.372Z"/><path class="ap" d="M3985.227,648.82c-.518.172-29.038-17.8-29.038-17.112s-1.9,6.4-1.383,6.568S3985.227,648.82,3985.227,648.82Z"/><path class="ap" d="M3983.326,655.734s-29.557,8.058-29.211,8.4,4.412,18.585,10.025,21.779,22.729-24.091,22.729-24.091Z"/><ellipse class="aq" cx="9.334" cy="10.717" rx="9.334" ry="10.717" transform="translate(3983.326 642.705)"/><ellipse class="ar" cx="9.334" cy="10.717" rx="9.334" ry="10.717" transform="translate(3980.906 642.705)"/><path class="ar" d="M3951.176,651.866c0,27.493,15.981,49.78,35.693,49.78s35.693-22.287,35.693-49.78-15.98-49.78-35.693-49.78S3951.176,624.373,3951.176,651.866Zm3.976,0c0-24.431,14.2-44.236,31.717-44.236s31.718,19.8,31.718,44.236-14.2,44.235-31.718,44.235S3955.152,676.3,3955.152,651.866Z"/><path class="ai" d="M3164.406,535.318l28-28,13.827,215.023s-32.841-25.582-32.5-27.31S3164.406,535.318,3164.406,535.318Z"/><path class="ai" d="M3179.271,692.609v16.939h9.68V698.14Z"/><path class="ai" d="M3202.087,717.5v12.1s10.025,3.8,14.174,0l1.037-9.333Z"/><path class="ai" d="M3303.722,705.4v4.839s9.679,1.729,11.753-2.419-1.037-5.877-1.037-5.877Z"/><path class="aj" d="M3192.408,507.316l113.388,4.148,13.482,190.478L3206.235,725.45Z"/><path class="ak" d="M3200.623,514.028l1.221,38.792a7.94,7.94,0,0,0,8.131,7.609l93.2-1.441a7.915,7.915,0,0,0,7.86-8.441l-2.626-34.168a7.938,7.938,0,0,0-7.7-7.257l-91.8-3.183A7.931,7.931,0,0,0,3200.623,514.028Z"/><path class="al" d="M3300.618,555.623l-86.056,1.2c-4.038.062-7.382-2.762-7.506-6.33l-.174-4.98-.953-27.264c-.137-3.778,3.369-6.863,7.642-6.727l84.768,2.639c3.765.124,6.825,2.725,7.11,6.033l2.168,25.319.26,3.1C3308.2,552.352,3304.879,555.573,3300.618,555.623Z"/><path class="r" d="M3300.618,555.623l-86.056,1.2c-4.038.062-7.382-2.762-7.506-6.33l-.174-4.98h100.735l.26,3.1C3308.2,552.352,3304.879,555.573,3300.618,555.623Z"/><rect class="am" width="4.667" height="6.547" transform="translate(3220.438 547.935)"/><rect class="am" width="4.667" height="6.806" transform="translate(3228.043 547.935)"/><circle class="an" cx="2.42" cy="2.42" r="2.42" transform="translate(3248.375 548.713)"/><path class="an" d="M3250.449,548.713h2.074v4.84h-2.14Z"/><circle class="am" cx="2.42" cy="2.42" r="2.42" transform="translate(3249.693 548.713)"/><circle class="an" cx="2.42" cy="2.42" r="2.42" transform="translate(3255.937 548.713)"/><path class="an" d="M3258.011,548.713h2.074v4.84h-2.14Z"/><circle class="am" cx="2.42" cy="2.42" r="2.42" transform="translate(3257.255 548.713)"/><circle class="an" cx="2.42" cy="2.42" r="2.42" transform="translate(3263.499 548.713)"/><path class="an" d="M3265.573,548.713h2.074v4.84h-2.14Z"/><circle class="am" cx="2.42" cy="2.42" r="2.42" transform="translate(3264.817 548.713)"/><circle class="an" cx="2.42" cy="2.42" r="2.42" transform="translate(3271.061 548.713)"/><path class="an" d="M3273.135,548.713h2.074v4.84h-2.14Z"/><circle class="am" cx="2.42" cy="2.42" r="2.42" transform="translate(3272.379 548.713)"/><circle class="an" cx="2.42" cy="2.42" r="2.42" transform="translate(3278.623 548.713)"/><path class="an" d="M3280.7,548.713h2.074v4.84h-2.14Z"/><circle class="am" cx="2.42" cy="2.42" r="2.42" transform="translate(3279.941 548.713)"/><circle class="an" cx="2.42" cy="2.42" r="2.42" transform="translate(3286.185 548.713)"/><path class="an" d="M3288.259,548.713h2.074v4.84h-2.14Z"/><circle class="am" cx="2.42" cy="2.42" r="2.42" transform="translate(3287.503 548.713)"/><path class="ao" d="M3239.595,610.679l-7.087,24.717s4.321,23.335,4.321,23.853,9.853,20.915,10.544,21.088S3265,688.288,3265,688.288s12.79-3.8,13.655-3.976,13.655-11.062,14-11.581,6.223-13.482,6.223-13.482l1.383-7.951-.865-20.741-8.124-23.162s-13.482-12.1-14-12.618-19.532.346-19.532.346l-10.889,8.815Z"/><path class="ap" d="M3258.263,631.594l11.062-36.982,16.42,7.08,1.611,5.769-20.97,26.372Z"/><path class="ap" d="M3268.115,637.709c.518.172,29.038-17.8,29.038-17.112s1.9,6.4,1.383,6.568S3268.115,637.709,3268.115,637.709Z"/><path class="ap" d="M3270.016,644.622s29.557,8.059,29.211,8.4-4.412,18.585-10.025,21.779-22.729-24.091-22.729-24.091Z"/><ellipse class="aq" cx="9.334" cy="10.717" rx="9.334" ry="10.717" transform="translate(3251.349 631.594)"/><ellipse class="ar" cx="9.334" cy="10.717" rx="9.334" ry="10.717" transform="translate(3253.769 631.594)"/><path class="ar" d="M3266.473,590.975c-19.713,0-35.693,22.287-35.693,49.78s15.98,49.78,35.693,49.78,35.693-22.288,35.693-49.78S3286.186,590.975,3266.473,590.975Zm0,94.015c-17.517,0-31.718-19.8-31.718-44.235s14.2-44.236,31.718-44.236,31.717,19.8,31.717,44.236S3283.99,684.99,3266.473,684.99Z"/></g></svg>