<svg xmlns="http://www.w3.org/2000/svg" xmlns:xlink="http://www.w3.org/1999/xlink" width="587.317" height="365.498" viewBox="0 0 587.317 365.498"><defs><style>.a,.k,.l,.n{fill:none;}.b{clip-path:url(#a);}.c{fill:#e3f5f6;}.d,.m{fill:#4a5e3a;}.d,.f,.g,.h,.i{fill-rule:evenodd;}.e,.f{fill:#243330;}.g{fill:#7dacb0;}.h,.j{fill:#99d3d8;}.i{fill:#5e8285;}.k,.l{stroke:#243330;}.k,.l,.n{stroke-miterlimit:10;}.k{stroke-width:0.5px;}.l{stroke-width:0.407px;}.n{stroke:#4a5e3a;stroke-width:1.552px;}</style><clipPath id="a"><path class="a" d="M727.475,750.478c48.521,4.6,46.6,16.5,90.614,21.089,51.145,5.334,105.741-6.188,105.741-6.188h0c1.458-.394,46.724-5.593,75.385-22.79,36.05-21.633,24.389-49.386,60.485-87.658,40.889-43.355,77.417-30.608,87.658-58.732,14.74-40.471-41.411-120.415-109.574-134.117-59.45-11.95-85.788,34.984-149.894,17.532-41.723-11.358-40.434-33.925-86.782-46.46-16.524-4.468-74.953-17.356-126.228,16.656C628.019,480.9,595.053,545.9,613.519,586.557,630,622.848,677,616.669,686.276,651.424c10.037,37.6-37.889,71.366-24.544,91.165C669.168,753.622,686.375,746.583,727.475,750.478Z" transform="translate(-608.305 -427.017)"/></clipPath></defs><g transform="translate(-582.101 -427.017)"><g transform="translate(622.811 427.017)"><g class="b"><path class="c" d="M717.535,782c55.253,5.236,53.069,18.79,103.188,24.017,58.242,6.072,120.414-7.047,120.414-7.047h0c1.662-.449,53.21-6.369,85.848-25.953,41.052-24.634,27.772-56.238,68.878-99.822,46.562-49.372,88.158-34.857,99.822-66.882,16.784-46.088-47.157-137.124-124.778-152.727-67.7-13.609-97.693,39.838-170.7,19.965-47.512-12.935-46.044-38.632-98.823-52.905-18.817-5.089-85.354-19.767-143.744,18.966-53.365,35.4-90.906,109.426-69.877,155.723,18.773,41.326,72.289,34.29,82.854,73.867,11.429,42.821-43.147,81.269-27.951,103.816C651.137,785.581,670.731,777.565,717.535,782Z" transform="translate(-623.412 -434.641)"/><g transform="translate(160.442 23.294)"><g transform="translate(50.539)"><path class="d" d="M767.479,488.519l.953,207.623c-2.065-.031-4.17-.078-6.276-.127-2.609-.064-5.23-.129-7.777-.206-1.748-.049-3.462-.1-5.126-.165l1.178-207.081,0-.041h5.013l6.612,0,5.406,0Z" transform="translate(-738.869 -415.222)"/><path class="d" d="M753.525,517.1l-7.148-11.355c-3.091-4.91,11.077-49.73,18.053-60.763,1.94-3.07,5.458-4.748,7.031-.9l4.916,12.043c1.333,3.267-6.386,9.461-3.366,21.727l4.763,19.343c.87,3.535-3.644,5.326-6.026,9.811s-2.386,7.009-2.524,11.074S754.788,522.285,753.525,517.1Z" transform="translate(-740.757 -441.849)"/><rect class="e" width="2.446" height="5.249" transform="matrix(0.306, -0.952, 0.952, 0.306, 15.448, 12.603)"/><path class="f" d="M753.642,453.935a6.922,6.922,0,0,0,2.1-6.34l-2.738-.88c-.848.165-2.818,1.914-2.189,6.262Z" transform="translate(-738.049 -439.072)"/><rect class="e" width="2.446" height="5.249" transform="matrix(0.306, -0.952, 0.952, 0.306, 12.085, 21.628)"/><path class="f" d="M751.5,459.682a6.926,6.926,0,0,0,2.1-6.339l-2.741-.881c-.845.163-2.816,1.914-2.186,6.26Z" transform="translate(-739.27 -435.793)"/><rect class="e" width="2.446" height="5.25" transform="translate(9.137 30.67) rotate(-72.175)"/><path class="f" d="M749.624,465.438a6.915,6.915,0,0,0,2.1-6.339l-2.738-.879c-.848.163-2.816,1.913-2.188,6.262Z" transform="translate(-740.341 -432.508)"/><rect class="e" width="2.446" height="5.25" transform="translate(6.437 39.883) rotate(-72.175)"/><path class="f" d="M747.9,471.3a6.925,6.925,0,0,0,2.1-6.339l-2.738-.881c-.848.165-2.818,1.914-2.188,6.262Z" transform="translate(-741.321 -429.162)"/><rect class="e" width="2.446" height="5.25" transform="translate(4.174 48.861) rotate(-72.175)"/><path class="f" d="M746.464,477.022a6.924,6.924,0,0,0,2.1-6.339l-2.737-.881c-.848.163-2.818,1.914-2.189,6.262Z" transform="translate(-742.144 -425.9)"/><rect class="e" width="2.446" height="5.249" transform="translate(2.803 58.535) rotate(-72.188)"/><path class="f" d="M745.59,483.18a6.911,6.911,0,0,0,2.1-6.339l-2.737-.88c-.848.163-2.816,1.913-2.186,6.262Z" transform="translate(-742.641 -422.386)"/></g><path class="g" d="M715.261,579.54l-1.5-36.311,156.473-45.295,36.685,23.958-23.209,53.156-166.58,14.973Z" transform="translate(-708.577 -409.849)"/><path class="h" d="M711.959,576.586l-1.5-36.311,156.473-45.295,36.685,23.958-23.209,53.156-166.58,14.973Z" transform="translate(-710.462 -411.535)"/><path class="g" d="M833.807,510.235l5.187,4.64-6.169.273.169-3.049Z" transform="translate(-640.648 -402.831)"/><path class="i" d="M712.607,559.054l5.187,4.64,166.58-14.974-5.187-4.64Z" transform="translate(-709.238 -383.521)"/><path class="h" d="M730.6,620.082v-39.3l99.574-15.723V625.7Z" transform="translate(-698.973 -371.554)"/><path class="g" d="M794,565.055l6.738,4.866v53.53L794,625.7Z" transform="translate(-662.8 -371.554)"/><path class="d" d="M824.812,665.556c-.215-1.288-15.735.416-31.953,2.415-12.42,1.516-25.272,3.206-31.937,3.849a39.634,39.634,0,0,1-4.212.269c-7.512-.336-19.008-2.214-23.381-9.255-.925-1.462-1.971-3.193-3.045-5.084-4.346-7.606-10.6-19.544-5.566-28.183,10.543-18.121,35.855-2.106,50.315-8.771,12.085-5.58,38.524-15.922,53.655-.685S821.1,643.866,824.812,665.556Z" transform="translate(-703.394 -344.682)"/><path class="f" d="M779.028,652.377c-12.42,1.516-25.272,3.205-31.937,3.849,1.005-9.43,7.941-16.74,16.351-16.74C770.659,639.486,776.8,644.878,779.028,652.377Z" transform="translate(-689.563 -329.088)"/><path class="j" d="M735.018,614.371,722.85,592.238l12.168-17.173Z" transform="translate(-703.394 -365.843)"/><line class="k" y1="26.139" x2="116.584" transform="translate(21.352 109.86)"/><line class="k" y1="23.777" x2="124.249" transform="translate(21.352 117.926)"/><line class="k" y1="19.82" x2="129.326" transform="translate(21.352 126.698)"/><line class="k" y1="18.299" x2="125.38" transform="translate(21.352 135.012)"/><line class="k" y1="15.569" x2="123.529" transform="translate(21.352 143.002)"/><g transform="translate(31.68 210.217)"><line class="l" x1="84.796" y2="8.685" transform="translate(3.304)"/><line class="l" x1="87.016" y2="6.152" transform="translate(0.911 7.505)"/><line class="l" x1="87.759" y2="2.962" transform="translate(0 14.806)"/><line class="l" x1="87.163" y2="2.3" transform="translate(0.455 20.961)"/><line class="l" x1="84.971" y2="0.591" transform="translate(2.507 27.022)"/></g><ellipse class="e" cx="3.93" cy="3.18" rx="3.93" ry="3.18" transform="translate(64.516 146.899) rotate(-5.513)"/><ellipse class="e" cx="2.943" cy="2.382" rx="2.943" ry="2.382" transform="translate(63.703 232.771)"/><ellipse class="e" cx="2.943" cy="2.382" rx="2.943" ry="2.382" transform="translate(92.521 223.567)"/><ellipse class="e" cx="2.943" cy="2.382" rx="2.943" ry="2.382" transform="translate(47.302 217.97) rotate(-4.678)"/><ellipse class="e" cx="3.93" cy="3.18" rx="3.93" ry="3.18" transform="translate(35.589 154.148) rotate(-5.513)"/><ellipse class="e" cx="3.93" cy="3.18" rx="3.93" ry="3.18" transform="translate(97.549 131.342) rotate(-5.513)"/></g></g></g><path class="m" d="M977.218,545.824a27.633,27.633,0,0,1,2.148-21.667l.077-.094-2.761-2.295-35.139,42.7a15.046,15.046,0,0,0-5.469-9.651c-5.858-4.869-13.9-4.856-17.953.027s-2.522,12.693,3.336,17.56c5.806,4.825,13.511,5.14,17.921,0l-.063-.052-.063.075.011-.014.014-.017,23.151-28c-.41,3.267-.086,7.8,1.545,14.614,3.268,13.637-8.492,15.22-8.492,15.22,6.438,1.594,13.04-2.76,12.893-11.336C974.851,562.557,980.306,556.245,977.218,545.824Zm-9.75,11.62a28.224,28.224,0,0,1,1.916-21.41l2.788-3.381c-.429,3.275-.135,7.817,1.516,14.705,2.141,8.938-2.175,12.695-5.406,14.221A21.322,21.322,0,0,0,967.468,557.444Z" transform="translate(189.974 54.06)"/><path class="m" d="M675.372,620.575c-3.634,3.075-4.449,8.1-2,11.119l-.061.052-.006-.008.008.011.042-.011,23.071,27.04L678.62,678.313l-19.933-23.341a9.519,9.519,0,0,0,6.611-2.34c3.673-3.11,4.551-8.112,1.96-11.174s-7.628-2.978-11.3.13c-3.633,3.074-4.448,8.095-2,11.118l-.061.052-.006-.008.009.011.041-.011L679.687,682.9h0l.452.531,20.9-22.669-3.086-3.568-19.85-23.238a9.5,9.5,0,0,0,6.607-2.34c3.673-3.108,4.572-8.085,1.982-11.149S679.046,617.467,675.372,620.575Z" transform="translate(39.753 109.083)"/><g transform="translate(582.879 482.008)"><path class="n" d="M591.239,615.5S553.99,556,636.745,538.683s61.85-76.652,61.85-76.652" transform="translate(-582.879 -462.031)"/><path class="n" d="M601.253,626.848S564,567.352,646.761,550.03s61.85-76.652,61.85-76.652" transform="translate(-577.166 -455.557)"/></g></g></svg>