<svg xmlns="http://www.w3.org/2000/svg" xmlns:xlink="http://www.w3.org/1999/xlink" width="52.683" height="52.683" viewBox="0 0 52.683 52.683"><defs><style>.a{fill:none;}.b{clip-path:url(#a);}.c{fill:#7fd1d8;}.d{fill:#3e6569;}</style><clipPath id="a"><ellipse class="a" cx="26.341" cy="26.341" rx="26.341" ry="26.341"/></clipPath></defs><g class="b"><path class="c" d="M490.865,448.792c.043-1.067.072-2.117.043-3.139a54.549,54.549,0,0,1,.44-8.318c.891-6.984,3.184-14.4,8.6-19.224a19.392,19.392,0,0,1,8.158-4.283c20.1-5.1,35.366,17.846,33.94,33.222s-12.1,21.112-25.307,22.3-22.481-2.171-25-8.648C490.31,457.043,490.7,452.805,490.865,448.792Z" transform="translate(-485.939 -415.316)"/><path class="d" d="M494.274,427.032s17.547-19.824,32.593-9.763a20.1,20.1,0,0,1,4.763,5.232c.323.512.629,1.037.912,1.581s.547,1.1.784,1.675c.208,1.056.395,2.12.539,3.211.645,6.464-4.31,9.552-7.48,13.9-.456,1.045-.912,2.085-.464,3.08,2.243,5.568,9.944,6.008,9.515,15.19a27.625,27.625,0,0,1-.88,3.056,8.592,8.592,0,0,1-.861,1.837c-2.875,4.1-6.621,6.776-23.03,4.752-16.4-1.968-28.289-10.142-26.921-24.723C483.743,446.062,484.556,437.3,494.274,427.032Z" transform="translate(-497.697 -413.122)"/></g><path class="c" d="M501.057,422.948a11.156,11.156,0,0,1-6.947-4.691l-.019-.043-1.1.472,8.6,19.819a5.349,5.349,0,0,0-4.107.088,4.8,4.8,0,0,0-2.883,6.123c.976,2.28,3.832,3.192,6.4,2.091,2.547-1.093,3.9-3.659,2.891-6.107l.069-.029.016.035,0-.005-.005-.011-8.035-18.483a15.616,15.616,0,0,0,5.139,2.195c5.083,1.392,3.688,5.7,3.688,5.7C506.633,427.837,505.673,423.948,501.057,422.948Z" transform="translate(-482.106 -406.798)"/></svg>