<svg xmlns="http://www.w3.org/2000/svg" width="251.565" height="180.255" viewBox="0 0 251.565 180.255"><defs><style>.a{fill:#f8bf8a;}.b{fill:#fbe9ab;}.c,.o{fill:#d6725e;}.d,.k{fill:#fefefd;}.d{opacity:0.17;}.e{fill:#dc7763;}.f{fill:#ef9a74;}.g{fill:#f8d59d;}.h{fill:#ee9a74;}.i{fill:#e9b178;}.j,.n{fill:#423f3a;}.l{fill:#e98363;}.m{fill:#da7a61;}.n{opacity:0.32;}.o{font-size:15px;font-family:BPGArial, BPG Arial;}</style></defs><rect class="a" width="212.741" height="38.824" transform="translate(37.24 3.566)"/><rect class="b" width="199.272" height="135.291" transform="translate(43.974 44.965)"/><rect class="c" width="215.911" height="5.15" transform="translate(35.655 42.39)"/><rect class="d" width="206.372" height="1.367" transform="translate(40.424 14.311)"/><rect class="d" width="206.372" height="1.367" transform="translate(40.424 20.89)"/><rect class="d" width="206.372" height="1.367" transform="translate(40.424 27.469)"/><rect class="d" width="206.372" height="1.367" transform="translate(40.424 34.048)"/><rect class="c" width="215.911" height="5.15" transform="translate(35.655 0)"/><rect class="e" width="43.182" height="2.312" transform="translate(0 52.359)"/><ellipse class="f" cx="18.224" cy="18.224" rx="18.224" ry="18.224" transform="translate(1.453 62.99)"/><rect class="f" width="1.056" height="13.338" transform="translate(11.357 54.671)"/><rect class="f" width="1.056" height="13.338" transform="translate(27.666 54.671)"/><ellipse class="g" cx="14.262" cy="14.262" rx="14.262" ry="14.262" transform="translate(5.414 66.952)"/><path class="e" d="M721.039,278.43h17.878s2.228,10.5-8.221,11.389S721.039,278.43,721.039,278.43Z" transform="translate(-710.195 -201.078)"/><path class="e" d="M727.333,288.645v1.119h4.65V288.4Z" transform="translate(-709.501 -199.983)"/><path class="e" d="M735.405,285.513c0-.038,1.638-.453,1.755-.493a4.671,4.671,0,0,0,2.333-1.329,1.523,1.523,0,0,0-1.278-2.289,1.837,1.837,0,0,0-1.407.792l-.115-2.872s3.02-.3,4.011,1.882.4,3.961-2.476,4.7S735.405,285.515,735.405,285.513Z" transform="translate(-708.614 -200.982)"/><path class="h" d="M726.793,277.18a1.584,1.584,0,0,1,.649-1.635,2.364,2.364,0,0,0,.193-3.318,3,3,0,0,0-1.287-.891s1.678,1.981.938,2.625A2.576,2.576,0,0,0,726.793,277.18Z" transform="translate(-709.61 -201.858)"/><rect class="i" width="104.588" height="80.554" transform="translate(59.821 63.783)"/><path class="h" d="M730.32,277.18a1.585,1.585,0,0,1,.648-1.635,2.361,2.361,0,0,0,.193-3.318,3,3,0,0,0-1.287-.891s1.679,1.981.939,2.625A2.576,2.576,0,0,0,730.32,277.18Z" transform="translate(-709.222 -201.858)"/><rect class="j" width="96.358" height="74.215" transform="translate(63.936 66.952)"/><rect class="e" width="8.815" height="1.263" rx="0.362" transform="translate(15.723 89.781)"/><path class="k" d="M790.63,268.109c-.636.264.636,17.959-4.453,30.108s-18.448,23.242-18.448,23.242l-.424-53.35Z" transform="translate(-705.107 -202.213)"/><path class="k" d="M835.835,267.157S837.684,302.019,846.4,311s13.47,12.413,13.47,12.413V267.157Z" transform="translate(-697.573 -202.318)"/><rect class="l" width="55.991" height="112.775" transform="translate(175.766 56.388)"/><rect class="j" width="43.842" height="83.195" transform="translate(181.84 61.934)"/><rect class="i" width="43.446" height="11.489" transform="translate(182.236 150.939)"/><rect class="m" width="41.333" height="8.319" transform="translate(184.349 154.109)"/><path class="i" d="M873.67,308.1c.4-.264,6.734,0,6.734,0v19.147H873.67v-2.508h4.622V311H873.67Z" transform="translate(-693.414 -197.83)"/><path class="i" d="M765.164,266.2v80.553H869.751V266.2ZM865.636,343.59H769.279V269.374h96.358Z" transform="translate(-705.342 -202.422)"/><path class="n" d="M841.278,274.534c-.007-.373-1.744,17.96,7.131,30.505C848.409,305.039,841.542,289.06,841.278,274.534Z" transform="translate(-696.99 -201.507)"/><path class="n" d="M786.213,274.528s-.848,24.3-11.874,31.039C774.339,305.567,782.821,295.651,786.213,274.528Z" transform="translate(-704.334 -201.507)"/><path class="n" d="M781.164,278.43c-.636,1.221-4.029,18.652-9.118,22.614Z" transform="translate(-704.586 -201.078)"/><path class="n" d="M848.413,292.145c.11-.517-1.215,5.546,3.433,12.677C851.846,304.822,847.62,295.876,848.413,292.145Z" transform="translate(-696.201 -199.574)"/><rect class="c" width="211.157" height="11.093" transform="translate(37.24 169.163)"/><rect class="a" width="63.674" height="31.25" transform="translate(111.773 7.337)"/><text class="o" transform="translate(111.63 162.039)"><tspan x="-18.556" y="0">კაფე</tspan></text></svg>