<svg xmlns="http://www.w3.org/2000/svg" xmlns:xlink="http://www.w3.org/1999/xlink" width="526.165" height="470.439" viewBox="0 0 526.165 470.439"><defs><style>.a,.e,.f,.s{fill:none;}.b{clip-path:url(#a);}.c,.h,.l{fill:#a1dd6f;}.c,.u{opacity:0.5;}.d{fill:#545b5e;}.e,.f{stroke:#fff;stroke-linecap:round;stroke-width:1.656px;}.e,.f,.s{stroke-miterlimit:10;}.e{stroke-dasharray:12.421;}.f{stroke-dasharray:9.937;}.g{opacity:0.32;}.i,.j,.t{opacity:0.2;}.j{fill:#333;}.k{fill:#fcb95d;}.k,.l,.m,.n,.o,.p,.q,.r,.s,.t,.x,.y{fill-rule:evenodd;}.m,.w{opacity:0.15;}.n{fill:#243e41;}.o{fill:#171f1c;}.p{fill:#c98121;}.q{fill:#f7805c;}.r{fill:#7fd1d8;}.s{stroke:#3e6569;stroke-width:6.15px;}.v{fill:#243330;}.x,.z{fill:#d1d3d4;}.y{fill:#36a5ad;}.aa{fill:#bcbec0;}</style><clipPath id="a"><path class="a" d="M614.246,293.727c6.194-12.129,18.675-32.811,40.951-49.91,9.451-7.255,37.775-29,69.99-26.182,40.86,3.569,43.916,42.793,91.582,67.91,54.2,28.56,78.875-7.08,122.854,18.818,48.765,28.719,81.9,109.92,60.31,167.731-15.033,40.257-51.349,55.1-108.707,78.547-60.943,24.91-165.314,67.573-220.392,15.545-27.95-26.4-9.268-45.131-58.077-131.73C597.026,406.546,583.52,387.973,584.463,360,585.439,331.072,601.326,308.2,614.246,293.727Z" transform="translate(-584.417 -217.385)"/></clipPath></defs><g transform="translate(-584.417 -217.385)"><g transform="translate(584.417 217.385)"><g class="b"><rect class="c" width="614.467" height="528.556" transform="translate(-96.112 -94.472)"/><g transform="translate(96.096 30.815)"><g transform="translate(0 33.459)"><path class="d" d="M719.67,398.606c-.322.146-.644.3-.957.469-15.793,8.034-21.569,23.279-23.318,29.466a11.238,11.238,0,1,0,21.627,6.118,27.839,27.839,0,0,1,7.33-12.344Zm0,0c-.322.146-.644.3-.957.469-15.793,8.034-21.569,23.279-23.318,29.466a11.238,11.238,0,1,0,21.627,6.118,27.839,27.839,0,0,1,7.33-12.344Zm0,0c-.322.146-.644.3-.957.469-15.793,8.034-21.569,23.279-23.318,29.466a11.238,11.238,0,1,0,21.627,6.118,27.839,27.839,0,0,1,7.33-12.344Zm59.938,18.109a46.84,46.84,0,0,0-21.169-18.266A49.474,49.474,0,0,0,748.09,395.2q-1.8-15.465-3.909-30.922l-.011-.058c-.205-1.534-.409-3.059-.625-4.593,1.31-1.437,2.591-2.893,3.851-4.349a179.967,179.967,0,0,0,14.152-18.569c12.91-19.682,16.4-35.817,10.369-47.976-5.121-10.329-17.318-17.248-29.662-16.877A33.343,33.343,0,0,0,711.872,295.2l-.85,2.659.489,2.736q4.514,25.6,8.258,51.405c-1.1,1.1-2.219,2.18-3.342,3.235-1.632,1.554-3.283,3.059-4.935,4.506-3.372,2.941-6.294,5.258-9.118,7.486-6.988,5.532-13.027,10.3-20.064,20.24-6.792,9.6-19.419,27.452-15.842,50.75,3.342,21.754,18.628,34.586,23.231,38.007,12.138,9,28.234,13.546,44.252,12.7q.234,3.8.448,7.594c.1,1.612.186,3.215.274,4.827.421,7.652.792,15.432,1.1,23.182a15.112,15.112,0,0,1-7.662,6.567c-5.883,2.16-11.19-.43-12.675-1.27-6.49-3.685-7.819-10.848-7.956-11.659a11.237,11.237,0,0,0-22.185,3.587c.7,4.349,4.144,19.174,19.048,27.617a39.392,39.392,0,0,0,19.008,5.063,36.073,36.073,0,0,0,12.5-2.238c14.309-5.248,20.211-17.435,21.676-21.041l.919-2.248-.1-2.434c-.342-8.785-.762-17.659-1.242-26.348-.166-3.02-.332-6.039-.518-9.069l-.439-7.154a48.314,48.314,0,0,0,20.62-16.389C785.814,454.643,790.2,433.944,779.608,416.715Zm-76.522,41.447c-2.043-1.514-12.314-9.744-14.405-23.357-2.2-14.317,6.333-26.377,11.981-34.352,5.16-7.3,9.333-10.6,15.647-15.588,1.094-.87,2.247-1.779,3.459-2.756l.84-.685,1.876-1.544.977-.812q1.115,8.605,2.13,17.231a42.284,42.284,0,0,0-5.922,2.306c-.322.146-.644.3-.957.469-15.793,8.034-21.569,23.279-23.318,29.466a11.238,11.238,0,1,0,21.627,6.118,27.839,27.839,0,0,1,7.33-12.344,19.7,19.7,0,0,1,3.811-2.8q1.993,19.188,3.557,38.358.352,4.325.675,8.63C721.713,466.948,710.885,463.948,703.086,458.161ZM742.755,324.39q-1.7,2.579-3.627,5.239-.483-3.109-.987-6.207-1.877-11.786-3.929-23.5a10.575,10.575,0,0,1,8.766-5.591c3.723-.117,7.721,2.219,8.805,4.4,1.515,3.078.156,11.434-8.591,24.989Zm15.627,130.2a23.131,23.131,0,0,1-4.027,4.349q-.469-5.849-.968-11.689-1.188-13.751-2.6-27.5a25.228,25.228,0,0,1,3.3,2.012,23.04,23.04,0,0,1,6.362,6.714C765.437,436.592,763.179,447.753,758.382,454.595ZM719.67,398.606c-.322.146-.644.3-.957.469-15.793,8.034-21.569,23.279-23.318,29.466a11.238,11.238,0,1,0,21.627,6.118,27.839,27.839,0,0,1,7.33-12.344Zm0,0c-.322.146-.644.3-.957.469-15.793,8.034-21.569,23.279-23.318,29.466a11.238,11.238,0,1,0,21.627,6.118,27.839,27.839,0,0,1,7.33-12.344Zm0,0c-.322.146-.644.3-.957.469-15.793,8.034-21.569,23.279-23.318,29.466a11.238,11.238,0,1,0,21.627,6.118,27.839,27.839,0,0,1,7.33-12.344Zm0,0c-.322.146-.644.3-.957.469-15.793,8.034-21.569,23.279-23.318,29.466a11.238,11.238,0,1,0,21.627,6.118,27.839,27.839,0,0,1,7.33-12.344Z" transform="translate(-665.841 -271.847)"/></g><g transform="translate(115.644 197.756)"><rect class="d" width="280.369" height="7.818"/></g><g transform="translate(94.281)"><path class="d" d="M753.544,298.431h-7.818c0-.53.113-13.073,10-21.868,7.565-6.729,18.51-9.3,32.544-7.652,37.559,4.419,51.271-1.282,61.139-25.415l7.236,2.959c-12.655,30.949-33.259,34.46-69.29,30.222-11.709-1.38-20.6.546-26.423,5.72C753.641,288.876,753.544,298.337,753.544,298.431Z" transform="translate(-745.727 -243.496)"/></g><g transform="translate(56.048 302.032)"><rect class="d" width="7.818" height="59.455"/></g><path class="e" d="M721.826,386.66a31.248,31.248,0,0,0-4.172,1.75c-12.744,6.477-16.792,19.675-17.591,22.5" transform="translate(-659.674 -217.7)"/><path class="f" d="M720.157,351.226q-1.5,1.375-2.966,2.659c-11.853,10.388-18.666,13.417-27.41,25.773-6.313,8.922-16.8,23.738-13.909,42.547,2.841,18.5,16.828,29.207,18.818,30.682,20.876,15.483,56.746,14.412,71.184-6.137,6.751-9.608,10.336-25.636,2.455-38.455a36.109,36.109,0,0,0-19.261-14.98" transform="translate(-664.122 -224.085)"/><path class="f" d="M734.89,463.011c-4.4-57.736-11.613-113.142-20.962-166.086a22.1,22.1,0,0,1,20.047-15.545c7.532-.243,15.93,3.99,19.228,10.637,6.214,12.529-5.583,33.417-20.771,51.639" transform="translate(-657.176 -236.672)"/><path class="f" d="M691.743,487.109c.251,1.553,2.362,13.322,13.5,19.636,1.836,1.041,11.182,6.052,22.092,2.046a26.854,26.854,0,0,0,15.137-14.727q-.51-13.013-1.227-26.182-.375-6.869-.8-13.695" transform="translate(-661.173 -205.533)"/><path class="g" d="M732.507,351.757c.216,1.534.42,3.059.625,4.593l-6.029-40.8q.5,3.094.987,6.207,1.921-2.654,3.627-5.239l.439-.674c.988,7.231,3,22.145,4.2,31.566C735.1,348.865,733.817,350.32,732.507,351.757Z" transform="translate(-654.802 -230.513)"/><path class="g" d="M715.739,366.832l-.977.812-1.876,1.544-.84.685L708.7,343c1.124-1.055,2.238-2.14,3.342-3.235Z" transform="translate(-658.118 -226.151)"/><path class="g" d="M744.271,431.587s-6.685,7.271-21.96,7.554c-.215-2.874-.274-3.687-.509-6.57l21.819-8.9C743.955,427.573,743.959,427.688,744.271,431.587Z" transform="translate(-655.757 -211.031)"/><path class="g" d="M746.194,458.682,724,464.145q-.22-3.8-.448-7.594s15.958-.722,22.2-5.023Z" transform="translate(-655.442 -206.012)"/><path class="g" d="M719.651,400.51a19.7,19.7,0,0,0-3.811,2.8l-2.756-24.628a18.778,18.778,0,0,1,4-1.387Z" transform="translate(-657.328 -219.387)"/><path class="g" d="M745.882,379.615l-4.349,23.318a25.228,25.228,0,0,0-3.3-2.012l-2.7-24.55A49.474,49.474,0,0,1,745.882,379.615Z" transform="translate(-653.283 -219.554)"/></g></g></g><g transform="translate(821.218 372.111)"><path class="h" d="M790.4,378.649c-.843-.306-7.551-2.059-4.576-9.154s9.381-2.287,9.381-2.287-6.407-5.264-1.374-9.839,6.407,5.491,6.407,5.491-2.516-12.126,8.467-14.187S822.888,362.4,822.888,362.4s1.145-11.9,6.179-12.357,0,10.755,0,10.755,6.152-9.61,15.2-2.745-1.933,20.593-1.933,20.593S813.1,385.6,790.4,378.649Z" transform="translate(-785.064 -348.488)"/><g transform="translate(0.062 0)"><path class="i" d="M789.412,371.743c1.21-3.237,8.173-2.317,8.173-2.317s-3.648-7.735-2.175-8.657,5.9,4.789,5.9,4.789-.595-7.92,3.662-11.237,12.179-.3,16.6,9.246c0,0,.51-.729,1.221-1.559-.583-2.426-4.148-15.2-14.1-13.336-9.648,1.809-8.879,11.385-8.549,13.687-.359-1.97-1.974-8.946-6.325-4.991-5.033,4.576,1.374,9.839,1.374,9.839s-6.407-4.806-9.381,2.287,4.575,9.154,4.575,9.154S788.2,374.98,789.412,371.743Z" transform="translate(-785.117 -348.488)"/><path class="i" d="M838.485,357.82c-9.051-6.865-15.2,2.745-15.2,2.745s5.034-11.212,0-10.755c-4.369.4-5.808,9.406-6.112,11.782,1.146-1.3,2.724-2.74,3.595-1.978,1.473,1.289.92,4.973.92,4.973s6.263-6.631,11.237-4.053,3.63,17.879,3.63,17.879S847.536,364.684,838.485,357.82Z" transform="translate(-779.341 -348.252)"/></g></g><g transform="translate(653.217 313.259)"><path class="h" d="M647.035,323.07c-.683-.247-6.12-1.669-3.709-7.42s7.605-1.854,7.605-1.854-5.194-4.266-1.113-7.976,5.193,4.452,5.193,4.452-2.039-9.83,6.863-11.5,11.5,11.129,11.5,11.129.926-9.644,5.007-10.016,0,8.718,0,8.718,4.987-7.79,12.324-2.226-1.566,16.693-1.566,16.693S665.439,328.7,647.035,323.07Z" transform="translate(-642.713 -298.622)"/><g transform="translate(0.05 0)"><path class="i" d="M646.238,317.472c.98-2.624,6.624-1.877,6.624-1.877s-2.958-6.27-1.763-7.017,4.779,3.882,4.779,3.882-.483-6.42,2.968-9.107,9.872-.242,13.455,7.494c0,0,.414-.591.991-1.264-.473-1.967-3.364-12.321-11.427-10.811-7.821,1.467-7.2,9.229-6.93,11.095-.29-1.6-1.6-7.252-5.126-4.047-4.081,3.709,1.113,7.976,1.113,7.976s-5.194-3.895-7.605,1.854,3.709,7.42,3.709,7.42S645.258,320.1,646.238,317.472Z" transform="translate(-642.755 -298.622)"/><path class="i" d="M686.015,306.186c-7.336-5.565-12.324,2.226-12.324,2.226s4.08-9.089,0-8.718c-3.542.322-4.707,7.625-4.954,9.55.929-1.056,2.209-2.221,2.914-1.6,1.194,1.046.747,4.032.747,4.032s5.076-5.375,9.108-3.284,2.943,14.491,2.943,14.491S693.352,311.75,686.015,306.186Z" transform="translate(-638.074 -298.431)"/></g></g><g transform="translate(623.644 326.735)"><path class="h" d="M660.781,334.488c.633-.248,5.668-1.67,3.435-7.42s-7.042-1.854-7.042-1.854,4.809-4.266,1.03-7.976-4.809,4.452-4.809,4.452,1.889-9.83-6.355-11.5-10.65,11.128-10.65,11.128-.858-9.644-4.637-10.015,0,8.717,0,8.717-4.619-7.789-11.414-2.225,1.45,16.693,1.45,16.693S643.739,340.118,660.781,334.488Z" transform="translate(-617.655 -310.04)"/><path class="i" d="M658.642,328.89c-.908-2.624-6.135-1.876-6.135-1.876s2.739-6.272,1.632-7.017-4.424,3.882-4.424,3.882.447-6.42-2.75-9.109-9.142-.241-12.46,7.494c0,0-.384-.591-.918-1.264.439-1.966,3.116-12.321,10.583-10.809,7.243,1.467,6.664,9.229,6.418,11.095.269-1.6,1.482-7.252,4.747-4.047,3.779,3.709-1.03,7.976-1.03,7.976s4.809-3.9,7.042,1.854-3.435,7.42-3.435,7.42S659.55,331.513,658.642,328.89Z" transform="translate(-614.785 -310.04)"/><path class="i" d="M620.34,317.6c6.794-5.565,11.414,2.225,11.414,2.225s-3.779-9.087,0-8.717c3.28.322,4.358,7.624,4.587,9.55-.86-1.056-2.045-2.221-2.7-1.6-1.107,1.044-.692,4.032-.692,4.032s-4.7-5.375-8.435-3.284S621.79,334.3,621.79,334.3,613.545,323.168,620.34,317.6Z" transform="translate(-617.655 -309.849)"/></g><g transform="translate(819.52 478.892)"><path class="h" d="M787.777,473.858s-6.587-6.587-3.165-14.626,13.685-6.758,13.685-6.758-2.994-9.081,8.382-12.794,17.533,8.262,17.533,8.262.6-5.987,5.816-5.559,3.25,7.7,1.112,9.236c0,0,5.9-5.474,9.58-.769s-5.56,5.562-5.56,5.562,8.212-1.316,10.862,3.574a5.1,5.1,0,0,1-1.881,7.285s6.072-2.395,7.7.769-8.3,5.389-8.3,5.389Z" transform="translate(-783.626 -438.966)"/><path class="i" d="M788.638,461.734c3.093-4.565,14.33-5.323,14.33-5.323s-2.986-5.738,1.052-9.6,14.733-1.756,17.813,3.686c0,0,3.591-2.107,6.144-1.755s2.379,6.144,2.379,6.144.791-2.809,4.082-1.755-.317,4.694-.317,4.694,5.364-.129,7.822,3.206-1.406,8.251-1.406,8.251,7.309-2.747,8.307,2.4h0c2.046-.932,3.741-2.187,2.993-3.642-1.625-3.164-7.7-.769-7.7-.769a5.1,5.1,0,0,0,1.881-7.285c-2.245-4.14-8.473-3.832-10.33-3.64,1.907-.27,8.166-1.482,5.028-5.5-3.185-4.075-8.036-.516-9.279.511,2.007-1.956,3.559-8.57-1.413-8.978-5.216-.428-5.816,5.559-5.816,5.559s-6.157-11.974-17.533-8.262-8.382,12.794-8.382,12.794-10.264-1.282-13.685,6.758,3.165,14.626,3.165,14.626S785.546,466.3,788.638,461.734Z" transform="translate(-783.626 -438.966)"/></g><g transform="translate(867.189 495.275)"><path class="h" d="M830.468,478.039s-8.705-3.666-2.136-8.9c0,0-7.753-6.633-2.475-10.9s10.782,2.834,10.782,2.834-4.763-6.662,1.855-8.056c6.765-1.423,5.621,6.87,5.621,6.87s1.023-9.406,8.425-5.34c6.721,3.693,4.272,9.493-.594,10.324,0,0,7.12-2.254,8.307,2.136s-5.459,5.7-5.459,5.7,7.714-1.662,8.9,1.9-11.485,5.442-17.589,6.184S830.468,478.039,830.468,478.039Z" transform="translate(-824.017 -452.849)"/><path class="j" d="M828.91,471.136c2.069-2.759,3.172-3.034,3.172-3.034s-4.034-2.483-3.81-5.379,8.638.965,8.638.965-.7-5.794,2.613-6.345,4.386,4.414,4.386,4.414,2.379-5.379,5.277-5.1,6.207,4.479,1.793,8.79c0,0,5.356-.38,5.988,1.9s-3.72,5.882-3.72,5.882,8.343-.163,7.827,4.214c1.748-.474,3.127-1.322,2.622-2.841-1.146-3.436-8.37-2.008-8.871-1.9.456-.1,6.573-1.462,5.43-5.69-.909-3.36-5.287-2.829-7.295-2.393,4.157-1.4,5.816-6.641-.419-10.067-7.1-3.9-8.332,4.6-8.419,5.291.078-.647.849-8.183-5.627-6.82-6.618,1.394-1.855,8.056-1.855,8.056s-5.505-7.106-10.782-2.834,2.475,10.9,2.475,10.9c-6.569,5.234,2.136,8.9,2.136,8.9S826.841,473.894,828.91,471.136Z" transform="translate(-824.017 -452.849)"/></g><path class="k" d="M975.637,587.905s-.928,13.032-2.321,17.264,8.849,2.915,9.3,3.076,8.376-5.063,8.376-5.063-5.074-1.544-3.414-17.664S975.637,587.905,975.637,587.905Z" transform="translate(70.05 65.143)"/><path class="k" d="M901.82,588.8s.929,13.032,2.321,17.263-8.848,2.916-9.3,3.076-8.376-5.063-8.376-5.063,5.074-1.543,3.413-17.664S901.82,588.8,901.82,588.8Z" transform="translate(54.425 65.305)"/><path class="l" d="M936.333,478.1c-1.054,4.939-5.176,11.339-8.057,22.324a90.906,90.906,0,0,0-2.8,19.184c-.909,20.542-8.087,26.695-9.558,33.141a9.86,9.86,0,0,0-.231,3.084c1.607,18.711-7.393,55.392-7.393,55.392s-1.918.164-4.646.254c-6.513.215-17.661-.011-18.575-3.947-1.3-5.589-6.367-19.658-6.367-27.417s3.355-21.378,4.449-24.682,1.81-18.309,0-23.481c-2.063-5.9-.13-18.214,2.775-30.247,3.367-13.94,8.047-27.5,9.349-30.276,0,0,23.34-10.02,28.342-8.091S937.889,470.812,936.333,478.1Z" transform="translate(53.027 44.273)"/><path class="l" d="M1002.22,580.119c0,7.758-5.063,21.827-6.366,27.417s-23.221,3.693-23.221,3.693-9-36.681-7.393-55.392c.682-7.967-8.734-12.484-9.79-36.225a90.381,90.381,0,0,0-3-19.945c-2.87-10.523-6.823-16.742-7.855-21.563-1.556-7.291,7.709-12.829,12.711-14.763s28.342,8.091,28.342,8.091a169.071,169.071,0,0,1,5.56,16.314c4.494,15.033,9.457,35.932,6.563,44.21-1.809,5.172-1.094,20.182,0,23.481S1002.22,572.359,1002.22,580.119Z" transform="translate(64.867 44.273)"/><path class="m" d="M935.23,478.1c-1.054,4.939-5.176,11.339-8.057,22.324-5.764-.745-13.218-4.043-20.667-6.688-6.236-2.211-15.344,3.322-21.677,7.969,3.367-13.94,8.047-27.5,9.349-30.276,0,0,23.34-10.02,28.342-8.091S936.787,470.812,935.23,478.1Z" transform="translate(54.13 44.273)"/><path class="m" d="M991.208,487.746a69.944,69.944,0,0,0-22.861,7.585,44,44,0,0,1-15.9,4.336c-2.87-10.523-6.823-16.742-7.855-21.563-1.556-7.291,7.709-12.829,12.711-14.763s28.342,8.091,28.342,8.091A169.071,169.071,0,0,1,991.208,487.746Z" transform="translate(64.867 44.273)"/><path class="k" d="M861.1,392.746c-.266.8-4.246,17.789-1.858,25.48s30.782,43.25,36.354,49.618c0,0-1.709-11.173-1.675-11.967s-21.011-36.953-20.914-40.84c.033-1.327,2.988-8.757,4.031-22.291S861.1,392.746,861.1,392.746Z" transform="translate(49.383 30.514)"/><path class="n" d="M952.288,283.282c-2.96,3.871-3.774,2.357,1.054,7.492,2.175,3.334-2.989,3.382-6.659,5.144a6.977,6.977,0,0,0-2.078,1.419c-1.821,1.571-5.451,1.906-8.9,2.413-7.338-.88-9.12,4.944-8.909-2.413.028-.1.067-.192.086-.288,1.8-6.217-8.517-.517-6.41-6.045,4.819-2.185-5.9.21-2.415-8.9,5.135-3.833-6.275-7,2.415-8.91.565-3.42,8.641-1.14,6.323-6.323,2.318-2.788,6.7-1.187,8.909-2.413,8.843-1.993,5.135,4.742,8.9,2.413,4.991-1.685,6.294,4.753,6.332,6.323C953.8,276.279,959.924,283.282,952.288,283.282Z" transform="translate(59.942 8.414)"/><path class="o" d="M945.2,292.836a6.977,6.977,0,0,0-2.078,1.419c-1.821,1.571-5.451,1.906-8.9,2.413-7.338-.88-9.12,4.944-8.909-2.413.028-.1.067-.192.086-.288,2.4-.45,4.609-1.328,4.607-3.229,0-8.579,10.163-9.548,10.163-9.548s2.762,5.831,2.934,6.464C943.192,287.98,944.178,290.4,945.2,292.836Z" transform="translate(61.422 11.497)"/><path class="p" d="M911.127,314.066s22.7-.325,24.646-9.08,2.269-13.531,0-18.6,12.97,5.631,12.97,5.631-1.622,6.81,0,12,5.188,5.293,10.7,4.754,0,16.972,0,16.972-19.748,2.142-21.224,2.855-21.9.26-22.878,0S911.127,314.066,911.127,314.066Z" transform="translate(58.868 12.187)"/><path class="q" d="M905.331,426.36c.923.07,5.322-1.782,12.354,2.679s14.224,11.436,19.546,10.363,1.756-7.139-1.322-8.47c-2.771-1.2-8-2.759-6.871-4.748s3.6-1.764,6.089.007,4.472.065,3.618-.928-7.021-4.533-8.509-4.83c-1.1-.221-6.1,1.286-8.73.651s-13.066-4.1-13.066-4.1Z" transform="translate(57.824 35.965)"/><path class="k" d="M937.6,274.436s11.025-2.586,11.025,10.252-1.3,14.462-11.025,10.57S926.57,275.017,937.6,274.436Z" transform="translate(62.234 10.241)"/><path class="r" d="M1065.348,411.95l-.191.017c-1.737.163-15.136,1.409-28.787,2.549-1.478.124-2.961.248-4.433.366-3.22.26-6.384.507-9.338.728-7.94.585-14.385.964-16.41.828l-3.061-6.806-2.588-5.758-1.185-2.633.113,1.161.818,4.748,5.115,29.741,12.608,73.273-129.527,1.567,4.043-35.847,2.182-19.353,1.494-13.212,4.7-41.65.349-3.084-3.954,17.051-62.215-1.809s7.235-29.138,25.573-85.009c6.784-20.684,33.923-37.335,69.692-25.815a94.015,94.015,0,0,1,10.217,3.97c1.76.8,8.487,15.124,19.37,10.082.231-.106.463-.214.688-.327,9.936-4.793,12.208-10.263,13.838-12.508,0,0,.006-.011.012-.017.057-.067.107-.136.158-.2,1.145-1.443,3.93-2.972,7.742-4.269,10.353-3.524,28.318-5.634,37.629.9s17.891,18.413,22.748,34.732c8.159,25.059,16.99,54.343,21.062,70.4.067.266.13.519.191.767C1064.857,409.965,1065.348,411.95,1065.348,411.95Z" transform="translate(45.166 14.237)"/><path class="s" d="M939.44,331.487l12.729,25.791,28.462,4.136-20.6,20.076,4.862,28.347L939.44,396.453l-25.457,13.384,4.862-28.347-20.6-20.076,28.462-4.136Z" transform="translate(56.548 20.559)"/><path class="t" d="M895.292,431.741c-3.518,4.4-8.927,21.309-11.537,29.926l8.375-74.215,2.17-9.648c13.533-12.141,7.76,23.289,9.152,34.036S900.068,425.769,895.292,431.741Z" transform="translate(53.936 28.454)"/><path class="t" d="M946.8,315.721c-3.22,4.173-10.754,8.464-15.079,5.634-6.382-4.173-17.8-4.179-19.787-13.929-.79-3.858,1.518-5.21,4.591-5.431a94.015,94.015,0,0,1,10.217,3.97c1.76.8,8.487,15.124,19.37,10.082C946.344,315.941,946.576,315.834,946.8,315.721Z" transform="translate(58.985 15.245)"/><g class="u" transform="translate(938.931 552.551)"><g transform="translate(3.162)"><path class="v" d="M903.419,503.331l-.492.576-4.7,5.509-7.862,9.22q.327.485.622,1c.125.223.247.447.366.675l6.745-9.034,5.731-7.709Z" transform="translate(-886.965 -501.028)"/><path class="v" d="M901.737,502.358l-1.776,2.082-3.748,4.4-7.029,8.239a12.081,12.081,0,0,1,1,1.18l5.922-7.931,5.134-6.9.692-.937Z" transform="translate(-887.179 -501.204)"/><path class="v" d="M888.767,516.7c2.114-2.827,10.417-13.938,11.378-15.306l-.015-.009-11.867,13.908.008,1C888.44,516.417,888.606,516.552,888.767,516.7Z" transform="translate(-887.345 -501.38)"/><path class="v" d="M897.541,501.575c-.2.347-9.545,12.846-9.545,12.846l-.014-1.646Z" transform="translate(-887.395 -501.345)"/><path class="v" d="M895.258,501.728c-.156.279-7.623,10.259-7.623,10.259l-.014-1.314Z" transform="translate(-887.46 -501.317)"/><path class="v" d="M893.587,501.687c-.124.222-6.09,8.2-6.09,8.2l-.012-1.049Z" transform="translate(-887.485 -501.325)"/></g><g transform="translate(0 0.862)"><path class="v" d="M898.531,517.877l-12.187-13.9q-.759.5-1.539.963c3.546,3.633,8.759,8.971,13.265,13.572Z" transform="translate(-884.806 -501.773)"/><path class="v" d="M899.534,516.251,887.828,502.9q-.607.46-1.238.89c2.976,3.05,8.342,8.545,12.617,12.908C899.317,516.551,899.426,516.4,899.534,516.251Z" transform="translate(-884.484 -501.967)"/><path class="v" d="M900.506,514.639,889.74,502.361l-1.028-.251c-.176.149-.353.294-.532.438,2.052,2.1,8,8.2,12.113,12.391Z" transform="translate(-884.198 -502.11)"/><path class="v" d="M901.213,513.035l-9.076-10.351-1.833-.45s6.774,6.945,10.767,11.012Z" transform="translate(-883.815 -502.088)"/><path class="v" d="M901.751,511.547l-7.684-8.763-1.466-.36s5.955,6.106,9.059,9.264Z" transform="translate(-883.401 -502.053)"/><path class="v" d="M902.226,510.427l-6.446-7.351-1.172-.288s5.168,5.3,7.543,7.713C902.175,510.476,902.2,510.451,902.226,510.427Z" transform="translate(-883.04 -501.988)"/></g></g><g class="u" transform="translate(1045.687 581.059)"><g transform="translate(0.862 0)"><path class="v" d="M979.089,525.719l.218.428,2.089,4.092,3.495,6.851c.243-.05.489-.09.739-.12.162-.02.323-.037.485-.051l-3.657-6.15c-1.106-1.849-2.216-3.709-3.127-5.234Z" transform="translate(-975.435 -525.535)"/><path class="v" d="M978.128,526.41l.788,1.546,1.666,3.267,3.123,6.124a7.589,7.589,0,0,1,.936-.3l-3.21-5.4-2.8-4.689-.381-.633C978.209,526.352,978.168,526.381,978.128,526.41Z" transform="translate(-975.608 -525.393)"/><path class="v" d="M983.407,537.424c-1.144-1.926-5.64-9.495-6.208-10.39l-.009.007,5.27,10.337.587.237C983.164,537.548,983.284,537.483,983.407,537.424Z" transform="translate(-975.777 -525.265)"/><path class="v" d="M976.76,528.4c.157.2,5.213,8.718,5.213,8.718l-.969-.391Z" transform="translate(-975.855 -525.019)"/><path class="v" d="M976.367,529.6c.125.159,4.162,6.962,4.162,6.962l-.774-.31Z" transform="translate(-975.926 -524.802)"/><path class="v" d="M975.993,530.434c.1.127,3.326,5.562,3.326,5.562l-.618-.248Z" transform="translate(-975.993 -524.652)"/></g><g transform="translate(0 2.136)"><path class="v" d="M986.856,531.636l-11.11,3.768c.072.377.135.755.191,1.135,2.992-1.2,7.388-2.955,11.18-4.479Z" transform="translate(-975.176 -526.572)"/><path class="v" d="M986.158,530.6l-10.671,3.618q.122.469.221.943c2.511-1,7.037-2.815,10.635-4.262Z" transform="translate(-975.223 -526.758)"/><path class="v" d="M985.475,529.618l-9.814,3.328-.4.541c.045.139.087.28.127.419,1.733-.692,6.753-2.7,10.209-4.091Z" transform="translate(-975.263 -526.935)"/><path class="v" d="M984.726,528.75l-8.274,2.805-.709.965s5.719-2.284,9.073-3.636Z" transform="translate(-975.176 -527.092)"/><path class="v" d="M983.984,527.978l-7,2.376-.568.772s5.028-2.008,7.633-3.06Z" transform="translate(-975.056 -527.231)"/><path class="v" d="M983.443,527.345l-5.876,1.993-.454.617s4.364-1.742,6.355-2.548Z" transform="translate(-974.93 -527.345)"/></g></g><path class="w" d="M912.549,542.148c1.607,18.711-7.393,55.392-7.393,55.392s-1.918.164-4.646.254c.039-.39-4.624-.352-4.363-.715,10.747-15.026,12.339-42.193,13.832-49.159.344-1.6,1.188-6.487,2.8-8.855A9.86,9.86,0,0,0,912.549,542.148Z" transform="translate(56.167 57.961)"/><g transform="translate(1038.189 666.159)"><path class="x" d="M1019.659,614.937c-4.8.643-14.526-.09-21.6-.485h0c-.227-.017-.434-.028-.649-.039-3.688-.2-6.552-.288-7.432-.006-.1.034-.215.061-.355.1-.35.085-.836.18-1.427.27-5.334.83-19.111,1.652-19.279-2.487a10.111,10.111,0,0,1,.225-2.373c.033-.17.067-.339.112-.508.006-.012.006-.018.012-.028.051-.225.107-.457.175-.688.006-.006.006-.006.006-.012,1.218-4.273,4.167-8.791,4.821-8.4,8.752,5.21,17.312-.952,19.077-2.357.219-.175.333-.276.333-.276s.333.022.964.084l1.3.152c.282.034.587.073.919.119.112.017.225.028.338.051.271.033.558.073.863.118.148.022.294.045.452.073h0q1.244.195,2.775.479c.637.119,1.3.249,2.008.4,1.06.214,2.2.467,3.406.749.113.034.231.073.345.113.6.185,1.2.394,1.776.609a37,37,0,0,1,5.554,2.582l.006.006C1022.575,607.861,1025.586,614.148,1019.659,614.937Z" transform="translate(-968.909 -597.643)"/><path class="y" d="M1014.352,603.174a11.489,11.489,0,0,0-8.239,8.373s-3.767-.693-8.036-1.319c-.366-.051-.744-.1-1.121-.152-.683-.1-1.376-.191-2.064-.276-.593-.073-1.179-.14-1.748-.2-3.17-.339-5.91-.463-6.8-.039-2.413,1.139-17.4,3.987-17.238.355a1.794,1.794,0,0,1,.112-.508c.006-.012.006-.018.012-.028a4.293,4.293,0,0,0,.175-.688c.006-.006.006-.006.006-.012,1.218-4.273,4.167-8.791,4.821-8.4,8.752,5.21,17.312-.952,19.077-2.357.219-.175.333-.276.333-.276s.333.022.964.084l1.3.152c.282.034.587.073.919.119.112.017.225.028.338.051.271.033.558.073.863.118.148.022.294.045.452.073h0q1.244.195,2.775.479c.637.119,1.3.249,2.008.4,1.06.214,2.2.467,3.406.749.113.034.231.073.345.113.6.185,1.2.394,1.776.609a37,37,0,0,1,5.554,2.582Z" transform="translate(-968.874 -597.643)"/><g transform="translate(23.412 0.236)"><path class="z" d="M994.487,598.131c-.163.152-.394.372-.676.66a16.789,16.789,0,0,0-2.651,3.39,7.877,7.877,0,0,0-.614,1.319c-.062.175-.113.355-.158.536l-1.642-.4a8.576,8.576,0,0,1,.858-2.131v0a12.616,12.616,0,0,1,.794-1.269,18.833,18.833,0,0,1,1.969-2.386c.282.034.587.073.919.119.112.017.225.028.338.051C993.9,598.046,994.183,598.086,994.487,598.131Z" transform="translate(-988.747 -597.843)"/></g><g transform="translate(28.803 1.076)"><path class="z" d="M998.9,598.95c-.942.885-3.361,3.355-3.942,5.757l-1.646-.4a14.149,14.149,0,0,1,3.581-5.752C997.533,598.674,998.2,598.8,998.9,598.95Z" transform="translate(-993.315 -598.555)"/></g><g transform="translate(34.724 2.334)"><path class="z" d="M1003.526,600.23c-1.1,1.094-3.04,3.26-3.552,5.379l-1.642-.4a13.8,13.8,0,0,1,3.418-5.588C1002.353,599.806,1002.945,600.015,1003.526,600.23Z" transform="translate(-998.332 -599.621)"/></g><g transform="translate(18.487)"><path class="aa" d="M992.1,609.8a6.953,6.953,0,0,1-1.331.857A9.673,9.673,0,0,0,986.8,614.5c-1,1.737-1.309,3.485-.959,4.4l-1.054.4a6.3,6.3,0,0,1,.587-4.534,10.905,10.905,0,0,1,4.894-5.126c.028-.017.063-.033.091-.051,2.808-1.46,2.345-3.135.942-6.061q-.118-.255-.255-.525c-.157-.321-.315-.648-.467-.975-.079-.17-.152-.339-.219-.5a3.981,3.981,0,0,1-.17-3.046,2.617,2.617,0,0,1,.333-.569c.219-.175.333-.276.333-.276s.333.022.964.084l.152.446a1.435,1.435,0,0,0-.755.772,2.27,2.27,0,0,0-.062,1.321,5.541,5.541,0,0,0,.44,1.291l.321.66c.051.1.1.2.147.3C993.317,605.092,994.614,607.748,992.1,609.8Z" transform="translate(-984.574 -597.643)"/></g><g transform="translate(27.846 0.406)"><path class="aa" d="M996.782,604.213a21.035,21.035,0,0,1-1.437,2.858,15.287,15.287,0,0,0-1.484,3.1,4.868,4.868,0,0,0,.446,3.954l-.5.27h0l-.491.266c-.057-.1-.107-.2-.158-.3a5.869,5.869,0,0,1-.417-4.337,15.6,15.6,0,0,1,1.624-3.5,19.2,19.2,0,0,0,1.364-2.7,3.026,3.026,0,0,0,.191-.936,3.453,3.453,0,0,0-.66-2.087,7.9,7.9,0,0,0-2.125-2.024c-.27-.181-.445-.282-.457-.288l.27-.49c.271.033.558.073.863.118.148.022.294.045.452.073h0a9.116,9.116,0,0,1,1.721,1.669,5.448,5.448,0,0,1,.873,1.625A4.03,4.03,0,0,1,996.782,604.213Z" transform="translate(-992.504 -597.987)"/></g></g><g transform="translate(910.394 668.088)"><path class="x" d="M863.728,616.573c4.8.642,14.526-.091,21.6-.485h0c.227-.018.434-.028.649-.04,3.688-.2,6.552-.287,7.432,0,.1.033.215.061.355.1.35.085.836.181,1.427.27,5.334.83,19.111,1.652,19.281-2.487a10.181,10.181,0,0,0-.227-2.373c-.033-.17-.067-.339-.112-.509-.006-.011-.006-.017-.012-.027-.051-.227-.107-.457-.175-.688-.006-.006-.006-.006-.006-.012-1.218-4.275-4.167-8.791-4.821-8.4-8.751,5.211-17.312-.954-19.077-2.357-.219-.176-.333-.277-.333-.277s-.333.024-.964.085l-1.3.152c-.282.034-.586.073-.919.118-.112.018-.225.028-.338.051-.271.034-.558.074-.863.119-.148.022-.294.045-.452.073h0q-1.245.195-2.775.479c-.637.118-1.3.248-2.007.4-1.06.214-2.2.467-3.406.749-.113.034-.231.073-.345.113-.6.185-1.194.394-1.776.609a37,37,0,0,0-5.554,2.582l-.006.006C860.811,609.495,857.8,615.783,863.728,616.573Z" transform="translate(-860.626 -599.277)"/><path class="y" d="M867.721,604.81a11.489,11.489,0,0,1,8.239,8.373s3.767-.694,8.036-1.319c.366-.051.744-.1,1.122-.152.682-.1,1.375-.191,2.063-.276.592-.073,1.179-.142,1.749-.2,3.169-.339,5.909-.463,6.8-.04,2.414,1.14,17.4,3.988,17.238.356a1.8,1.8,0,0,0-.112-.509c-.006-.011-.006-.017-.012-.027a4.325,4.325,0,0,1-.175-.688c-.006-.006-.006-.006-.006-.012-1.218-4.275-4.167-8.791-4.821-8.4-8.751,5.211-17.312-.954-19.077-2.357-.219-.176-.333-.277-.333-.277s-.333.024-.964.085l-1.3.152c-.282.034-.586.073-.919.118-.112.018-.225.028-.338.051-.271.034-.558.074-.863.119-.148.022-.294.045-.452.073h0q-1.245.195-2.775.479c-.637.118-1.3.248-2.007.4-1.06.214-2.2.467-3.406.749-.113.034-.231.073-.345.113-.6.185-1.194.394-1.776.609a37,37,0,0,0-5.554,2.582Z" transform="translate(-859.348 -599.277)"/><g transform="translate(24.699 0.237)"><path class="z" d="M881.554,599.766c.163.152.394.372.676.66a16.813,16.813,0,0,1,2.651,3.388,8.025,8.025,0,0,1,.615,1.321c.061.175.112.355.157.535l1.642-.4a8.615,8.615,0,0,0-.857-2.131v-.006a12.968,12.968,0,0,0-.8-1.269,18.8,18.8,0,0,0-1.969-2.385c-.282.034-.586.073-.919.118-.112.018-.225.028-.338.051C882.145,599.681,881.858,599.721,881.554,599.766Z" transform="translate(-881.554 -599.478)"/></g><g transform="translate(19.46 1.078)"><path class="z" d="M877.115,600.585c.942.885,3.361,3.354,3.942,5.757l1.646-.4a14.131,14.131,0,0,0-3.581-5.752C878.485,600.308,877.82,600.438,877.115,600.585Z" transform="translate(-877.115 -600.19)"/></g><g transform="translate(13.933 2.336)"><path class="z" d="M872.432,601.865c1.1,1.094,3.04,3.259,3.553,5.379l1.641-.4a13.8,13.8,0,0,0-3.418-5.588C873.605,601.441,873.014,601.65,872.432,601.865Z" transform="translate(-872.432 -601.256)"/></g></g><g transform="translate(1052.02 424.167)"><path class="q" d="M980.629,396.834a8.717,8.717,0,0,1,.592.785Z" transform="translate(-980.629 -391.833)"/><path class="q" d="M1009.39,396.46a1.113,1.113,0,0,0-.288.238h-.006a8.311,8.311,0,0,0-.693.849c-.919-.149-1.974-.329-3.118-.555-3.648.279-7.2.544-10.432.764-6.614.446-11.857.729-13.723.633v-.006c8.261-2.86,8.811-4.564,10.026-5.631a2.36,2.36,0,0,1,1.383-.13C996.87,392.951,1009.39,396.46,1009.39,396.46Z" transform="translate(-980.538 -392.597)"/></g><g transform="translate(980.646 378.534)"><path class="k" d="M952.207,377.7c-.686-.675-6.725-10.622-11.245-13.073s-11.516-5.556-13.606-7.4c-2.458-2.166-3.78-1.059-1.115,1.833a42.686,42.686,0,0,0,6.452,5.668c.465.216-2.412-1.54-5.414-3.748-3.19-2.349-6.544-5.144-7.052-4.437-.984,1.371,7.872,8.92,9.584,9.891a40.056,40.056,0,0,1-4.481-2.638c-1.959-1.338-4.036-3.27-4.755-2.919-1.131.554,3.214,5.37,7.4,7.952,0,.21-1.571-.1-6.3-3.584-.476-.351-1.953-.613-.627,1.078,2.792,3.559,3.728,5.371,8.965,7.721,5.105,2.291,11.388,3.3,14.471,6.332Z" transform="translate(-920.151 -353.542)"/><path class="k" d="M940.921,366.507s-1.832-6.785-5.984-9.457c-2.468-1.587-2.055-2.389-2.407-2.819-1.172-1.429-1.163,2.611.741,4.414,1.547,1.465.942,5.753,1.708,7.023s3.458,4.12,4.514,3.922S940.921,366.507,940.921,366.507Z" transform="translate(-918.065 -353.931)"/></g><path class="k" d="M1008.708,398.774c-1.216,1.063-5.372,1.956-13.632,4.816-3.766-5.8-31.525-19.847-42.994-26.481-2.563-2.137-5.861-4.92-6.971-6-1.908-1.855-5.312-6.052-5.262-7.157s-1.878,1.568-2.941,3.557-.082-2.126,1.819,2.873-6.457,4.7,1.357,7.2c3.575,1.142,5.411,4.8,7.664,6.51,5.242,3.984,24.086,26.811,42.1,39.573s28.977-24.951,31-25.855C1020.847,397.8,1009.922,397.711,1008.708,398.774Z" transform="translate(63.434 26.362)"/><path class="r" d="M1041.756,399.544s-3.776.33-9.418.814-13.135,1.121-20.582,1.7c-1.286.106-2.549.2-3.812.3l-2.714.212h-.012c-2.691.2-5.3.389-7.707.555-5.677.389-10.339.649-12.734.649-.389,0-.732-.012-.991-.024l-.59-.791-8.745-11.6-1.133-1.5a.012.012,0,0,1-.012-.012l-.047-.071a2.149,2.149,0,0,1-.059-.224c-.625-2.455-1.393-4.862-2.136-7.27-.909-2.95-1.935-5.913-2.891-8.9-.118-.366-.236-.743-.354-1.109-.366-1.192-.72-2.384-1.039-3.576-.094-.862-.236-1.711-.389-2.549a17.93,17.93,0,0,0,5.028.118,15.69,15.69,0,0,0,7.53-2.9,8.038,8.038,0,0,0,1.192,0c11.129-1.027,22.483-.283,33.635.083,5.854.189,11.849.6,17.738.248,3.517,11.129,6.526,21.149,8.521,28.49.071.271.142.543.212.791.6,2.62,1.05,4.544,1.3,5.618C1041.686,399.214,1041.756,399.544,1041.756,399.544Z" transform="translate(68.825 26.208)"/><path class="t" d="M1004.946,400.956c-2.691.2-5.3.389-7.707.555-5.677.389-10.339.649-12.734.649-.389,0-.732-.012-.991-.024l-.59-.791-8.745-11.6-1.133-1.5a.012.012,0,0,1-.012-.012l-.047-.071a2.149,2.149,0,0,1-.059-.224c-.625-2.455-1.393-4.862-2.136-7.27-.909-2.95-1.935-5.913-2.891-8.9,1.7,1.381,4.4,3.635,7.388,6.29,5.016,4.461,10.846,10.079,14.056,14.681a12.444,12.444,0,0,1,1.511,1.345,17.8,17.8,0,0,0,4.072,3.116A39.2,39.2,0,0,0,1004.946,400.956Z" transform="translate(69.098 27.818)"/><path class="k" d="M999.795,415.339c-1.216,1.063-1.482-6.917-6.34-13.739-3.766-5.8-31.525-19.847-42.994-26.481-2.563-2.137-6.588,5.266-4.335,6.978C951.368,386.082,1001.01,414.275,999.795,415.339Z" transform="translate(65.055 28.352)"/></g></svg>