<?xml version="1.0" encoding="utf-8"?>
<!-- Generator: Adobe Illustrator 24.1.3, SVG Export Plug-In . SVG Version: 6.00 Build 0)  -->
<svg version="1.1" id="Layer_1" xmlns="http://www.w3.org/2000/svg" xmlns:xlink="http://www.w3.org/1999/xlink" x="0px" y="0px"
	 viewBox="0 0 120.1 131.1" style="enable-background:new 0 0 120.1 131.1;" xml:space="preserve">
<style type="text/css">
	.st0{fill:#5F7682;}
	.st1{fill:#7D9BAB;}
	.st2{fill:#3B4A52;}
	.st3{fill:#E3B076;}
	.st4{fill:#5F7682;stroke:#5F7682;stroke-width:0.227;stroke-miterlimit:10;}
</style>
<g transform="translate(-761 -309.692)">
	<rect x="761" y="377.6" class="st0" width="120.1" height="63.2"/>
	<path class="st1" d="M845.1,377.6H797v-33.2l4.2-0.5l18.9-33.1l20,34h4.7v29.2L845.1,377.6z"/>
	<g transform="translate(789.617 341.645)">
		<path class="st2" d="M39.5,5.8C39,2.5,35.6,0,31.5,0s-7.5,2.5-8,5.8h-0.1v27.8h16.3L39.5,5.8L39.5,5.8z"/>
		<path class="st3" d="M38.4,6.2c-0.5-2.8-3.4-5-6.9-5s-6.5,2.2-6.9,5h-0.1v24h14L38.4,6.2L38.4,6.2z"/>
	</g>
	<path class="st4" d="M846.4,345.9h-6.1L820.8,313l-18.6,32.6h-7v-1.5h6.1l19.5-34.2l20.5,34.5h5.2L846.4,345.9z"/>
	<g transform="translate(770.222 388.833)">
		<rect x="4.4" y="1" class="st2" width="20" height="37.4"/>
		<rect x="6.2" y="3.6" class="st3" width="16" height="31.7"/>
		<g transform="translate(1.636 12.588)">
			<rect x="4.4" y="1" class="st2" width="16.2" height="0.7"/>
		</g>
		<g transform="translate(1.636 24.618)">
			<rect x="4.4" y="1" class="st2" width="16.2" height="0.7"/>
		</g>
		<g transform="translate(9.305 2.298)">
			<rect x="4.4" y="1" class="st2" width="0.5" height="32.2"/>
		</g>
	</g>
	<g transform="translate(803.221 388.833)">
		<rect x="44.4" y="1" class="st2" width="20" height="37.4"/>
		<rect x="46.2" y="3.6" class="st3" width="16" height="31.7"/>
		<g transform="translate(1.636 12.588)">
			<rect x="44.4" y="1" class="st2" width="16.2" height="0.7"/>
		</g>
		<g transform="translate(1.636 24.618)">
			<rect x="44.4" y="1" class="st2" width="16.2" height="0.7"/>
		</g>
		<g transform="translate(9.305 2.298)">
			<rect x="44.4" y="1" class="st2" width="0.5" height="32.2"/>
		</g>
	</g>
	<g transform="translate(803.221 388.833)">
		<rect x="8.5" y="1" class="st2" width="20" height="37.4"/>
		<rect x="10.4" y="3.6" class="st3" width="16" height="31.7"/>
		<g transform="translate(1.636 12.588)">
			<rect x="8.5" y="1" class="st2" width="16.2" height="0.7"/>
		</g>
		<g transform="translate(1.636 24.618)">
			<rect x="8.5" y="1" class="st2" width="16.2" height="0.7"/>
		</g>
		<g transform="translate(9.305 2.298)">
			<rect x="8.5" y="1" class="st2" width="0.5" height="32.2"/>
		</g>
	</g>
</g>
</svg>
