<svg xmlns="http://www.w3.org/2000/svg" width="157.357" height="221.212" viewBox="0 0 157.357 221.212"><g transform="translate(-384 -439.788)"><g transform="translate(-107.385 201.272)"><rect width="127.895" height="21.456" transform="translate(506.922 239.727)" fill="#585977"/><rect width="127.899" height="160.221" transform="translate(506.913 265.805)" fill="#748cb1"/><rect width="127.895" height="5.89" transform="translate(506.922 261.183)" fill="#748cb1"/><path d="M514.088,265.533V295.9l-22.7-.06,15.588-30.3Z" fill="#fa7070"/><path d="M514.088,296.046v12.995c-.06-.211-.121-.422-.18-.633-.995,4.1-5.609,7.206-11.156,7.206-5.91,0-10.7-3.528-11.247-7.99h-.12V296.046Z" fill="#fa7070"/><path d="M536.37,265.533V308.98a4.064,4.064,0,0,1-.181-.572c-.965,4.1-5.578,7.206-11.126,7.206-5.276,0-9.708-2.774-10.975-6.573V265.533Z" fill="#fac6c6"/><path d="M558.681,265.533V308.98a4.2,4.2,0,0,1-.181-.572c-.994,4.1-5.577,7.206-11.155,7.206-5.277,0-9.709-2.8-10.975-6.634V265.533Z" fill="#fa7070"/><path d="M580.963,265.533v43.508c-.06-.211-.121-.422-.181-.633-.965,4.1-5.578,7.206-11.126,7.206-5.306,0-9.709-2.8-10.975-6.634V265.533Z" fill="#fac6c6"/><path d="M603.274,265.533v42.091h-.09c-.543,4.462-5.337,7.99-11.246,7.99-5.247,0-9.679-2.774-10.975-6.573V265.533Z" fill="#fa7070"/><path d="M625.556,265.533v43.628c-1.327,3.709-5.669,6.453-10.885,6.453-5.909,0-10.7-3.528-11.246-7.99h-.151V265.533Z" fill="#fac6c6"/><path d="M648.742,296.046v11.578h-.121c-.542,4.462-5.337,7.99-11.246,7.99s-10.7-3.528-11.246-7.99h-.212a7.12,7.12,0,0,1-.361,1.537V265.533h9.316l13.749,30.362.06.151Z" fill="#fa7070"/><rect width="36.181" height="79.409" transform="translate(552.78 346.612)" fill="#585977"/><rect width="18.511" height="9.864" transform="translate(561.614 378.392)" fill="#fa7070"/><rect width="40.613" height="84.302" transform="translate(506.913 321.613)" fill="#fff" opacity="0.38"/><rect width="41.367" height="84.301" transform="translate(593.445 321.734)" fill="#fff" opacity="0.38"/><path d="M648.742,296.046v11.578h-.121c-.542,4.462-5.337,7.99-11.246,7.99s-10.7-3.528-11.246-7.99h-.212a7.12,7.12,0,0,1-.361,1.537c-1.327,3.709-5.669,6.453-10.885,6.453-5.909,0-10.7-3.528-11.246-7.99h-.241c-.543,4.462-5.337,7.99-11.246,7.99-5.247,0-9.679-2.774-10.975-6.573-.06-.211-.121-.422-.181-.633-.965,4.1-5.578,7.206-11.126,7.206-5.306,0-9.709-2.8-10.975-6.634a4.2,4.2,0,0,1-.181-.572c-.994,4.1-5.577,7.206-11.155,7.206-5.277,0-9.709-2.8-10.975-6.634a4.064,4.064,0,0,1-.181-.572c-.965,4.1-5.578,7.206-11.126,7.206-5.276,0-9.708-2.774-10.975-6.573-.06-.211-.121-.422-.18-.633-.995,4.1-5.609,7.206-11.156,7.206-5.91,0-10.7-3.528-11.247-7.99h-.12V296.046h22.7v-.151H648.621l.06.151Z" opacity="0.52"/><path d="M566.481,379.983c0-.573,4.389-7.827,4.389-7.827l4.389,7.827" fill="none" stroke="#fff" stroke-miterlimit="10" stroke-width="0.498"/><path d="M547.526,321.613v12.152l-40.613,40.612V347.061c9.2-9.287,19.779-19.9,25.417-25.448Z" fill="#fff" opacity="0.33"/><path d="M547.526,341.755v11.577l-40.613,40.614V382.518C519.214,370.1,538.329,350.83,547.526,341.755Z" fill="#fff" opacity="0.33"/><path d="M634.812,338.83V344.5l-41.367,52.1V390.84C600.742,381.734,622.33,354.659,634.812,338.83Z" fill="#fff" opacity="0.33"/><path d="M634.812,356.739v8.834c-8.955,11.367-24.663,30.663-32.864,40.462h-8.5v-1.507C600.711,396.086,622.3,371,634.812,356.739Z" fill="#fff" opacity="0.33"/><text transform="translate(570.87 253.515)" fill="#fff" font-size="14.679" font-family="BPGArial, BPG Arial"><tspan x="-32.416" y="0">სურსათი</tspan></text></g><g transform="translate(109.91 213.499)"><circle cx="31.5" cy="31.5" r="31.5" transform="translate(321.09 383.501)" fill="#fff" stroke="#5fdde2" stroke-width="2"/></g></g></svg>