<svg xmlns="http://www.w3.org/2000/svg" width="73.398" height="289.163" viewBox="0 0 73.398 289.163"><defs><style>.a{fill:#5f7682;}.b{fill:#3b4a52;}.c{fill:#e3b076;}.d{fill:#7d9bab;}</style></defs><g transform="translate(-953.403 -210.361)"><rect class="a" width="73.398" height="221.487" transform="translate(953.403 278.037)"/><g transform="translate(963.743 396.663)"><rect class="b" width="19.991" height="37.422" transform="translate(0)"/><rect class="c" width="16.012" height="31.701" transform="translate(1.862 2.644)"/><g transform="translate(1.635 12.588)"><rect class="b" width="16.229" height="0.668"/></g><g transform="translate(1.635 24.618)"><rect class="b" width="16.229" height="0.668"/></g><g transform="translate(9.305 2.298)"><rect class="b" width="0.545" height="32.221"/></g></g><g transform="translate(996.742 396.663)"><rect class="b" width="19.991" height="37.422" transform="translate(0)"/><rect class="c" width="16.012" height="31.701" transform="translate(1.862 2.644)"/><g transform="translate(1.635 12.588)"><rect class="b" width="16.229" height="0.668"/></g><g transform="translate(1.635 24.618)"><rect class="b" width="16.229" height="0.668"/></g><g transform="translate(9.305 2.298)"><rect class="b" width="0.545" height="32.221"/></g></g><path class="d" d="M809.307,263.879H761.22v-33.2l4.245-.5,18.888-33.137,20.007,34.012h4.694v29.153Z" transform="translate(204.814 14.159)"/><g transform="translate(982.02 242.088)"><path class="b" d="M800.944,248.39c-.564-3.291-3.942-5.823-8.036-5.823s-7.471,2.532-8.036,5.823h-.092v27.82h16.256V248.39Z" transform="translate(-784.78 -242.567)"/><path class="c" d="M800.351,249.362c-.488-2.836-3.4-5.018-6.94-5.018s-6.453,2.182-6.941,5.018h-.079v23.975h14.04V249.362Z" transform="translate(-785.298 -243.138)"/></g><path class="a" d="M809.725,231.814h-6.079L784.1,198.889,765.48,231.511h-7.026v-1.518h6.1L784.077,195.8,804.549,230.3h5.176Z" transform="translate(205.704 14.556)"/><g transform="translate(962.624 289.275)"><rect class="b" width="19.991" height="37.422" transform="translate(0)"/><rect class="c" width="16.012" height="31.701" transform="translate(1.862 2.644)"/><g transform="translate(1.636 12.588)"><rect class="b" width="16.229" height="0.668"/></g><g transform="translate(1.636 24.618)"><rect class="b" width="16.229" height="0.668"/></g><g transform="translate(9.305 2.298)"><rect class="b" width="0.545" height="32.221"/></g></g><g transform="translate(995.623 289.275)"><rect class="b" width="19.991" height="37.422" transform="translate(0)"/><rect class="c" width="16.012" height="31.701" transform="translate(1.862 2.644)"/><g transform="translate(1.636 12.588)"><rect class="b" width="16.229" height="0.668"/></g><g transform="translate(1.636 24.618)"><rect class="b" width="16.229" height="0.668"/></g><g transform="translate(9.305 2.298)"><rect class="b" width="0.545" height="32.221"/></g></g><g transform="translate(962.624 341.851)"><rect class="b" width="19.991" height="37.422" transform="translate(0)"/><rect class="c" width="16.012" height="31.701" transform="translate(1.862 2.644)"/><g transform="translate(1.636 12.588)"><rect class="b" width="16.229" height="0.668"/></g><g transform="translate(1.636 24.618)"><rect class="b" width="16.229" height="0.668"/></g><g transform="translate(9.305 2.298)"><rect class="b" width="0.545" height="32.221"/></g></g><g transform="translate(995.623 341.851)"><rect class="b" width="19.991" height="37.422" transform="translate(0)"/><rect class="c" width="16.012" height="31.701" transform="translate(1.862 2.644)"/><g transform="translate(1.636 12.588)"><rect class="b" width="16.229" height="0.668"/></g><g transform="translate(1.636 24.618)"><rect class="b" width="16.229" height="0.668"/></g><g transform="translate(9.305 2.298)"><rect class="b" width="0.545" height="32.221"/></g></g><g transform="translate(981.137 448.119)"><rect class="b" width="19.991" height="37.422"/><rect class="c" width="16.012" height="31.701" transform="translate(1.862 2.644)"/><g transform="translate(1.635 12.588)"><rect class="b" width="16.229" height="0.668"/></g><g transform="translate(1.635 24.618)"><rect class="b" width="16.229" height="0.668"/></g><g transform="translate(9.305 2.298)"><rect class="b" width="0.545" height="32.221"/></g></g></g></svg>