<svg xmlns="http://www.w3.org/2000/svg" xmlns:xlink="http://www.w3.org/1999/xlink" width="1366" height="955.83" viewBox="0 0 1366 955.83"><defs><style>.a,.ab,.ad,.n{fill:none;}.b{clip-path:url(#a);}.af,.c{fill:#000;}.d{fill:#ebcc65;}.e{fill:#f2d785;}.f{fill:#a1dd6f;}.aa,.ab,.ac,.f,.g,.j,.k,.l,.m,.n,.o,.p,.q,.r,.y,.z{fill-rule:evenodd;}.g{opacity:0.15;}.h{opacity:0.5;}.i{fill:#243330;}.j{fill:#d1d3d4;}.k{fill:#c98121;}.l{fill:#f7805c;}.m,.x{fill:#7fd1d8;}.n{stroke:#3e6569;stroke-width:8.687px;}.ab,.ad,.n{stroke-miterlimit:10;}.o{opacity:0.2;}.p{fill:#fcb95d;}.q,.w{fill:#243e41;}.r{fill:#171f1c;}.s{fill:#4a5e3a;}.t{fill:#ffe131;}.u{fill:#f7cf43;}.v{fill:#ffbd09;}.y{fill:#106c26;}.z{fill:#f5f880;}.aa{fill:#f6fc85;}.ab{stroke:#a1dd70;stroke-width:1.346px;}.ac{fill:#3db6ac;}.ad{stroke:#b4ede9;stroke-width:0.269px;}.ae{clip-path:url(#b);}.af{opacity:0.31;}</style><clipPath id="a"><rect class="a" width="1366" height="771" transform="translate(-4161.938 7884.895)"/></clipPath><clipPath id="b"><path class="a" d="M-2838.443,8112.705v200.837L-2984,8303.5V8121.632S-2859.194,8117.2-2838.443,8112.705Z"/></clipPath></defs><g transform="translate(4161.938 -7884.895)"><g class="b"><rect class="c" width="1366" height="771" transform="translate(-4161.938 7884.895)"/><path class="d" d="M-2795.938,7894.432V8652.9l-242.228-67.587-32.991-6.263,1.636-558.092,30.118-25.56Z"/><path class="d" d="M-3845.642,8010.366l-16.051,556.371-300.044,74.4V7891.083l298.844,93.571Z"/><path class="e" d="M-3463.96,7973.966h-424.608v617.384H-3039.4V7973.966Z"/><path class="c" d="M-4161.938,7945.675c121.657,30.38,335.7,73.888,615,80.372,352.972,8.2,622.429-47.1,751-78.7V7884.9h-1366Z"/><path class="c" d="M-4161.938,8607.579c121.657-29.39,335.7-71.481,615-77.753,352.972-7.928,622.429,45.567,751,76.133v47.19l-1365.8,2.745Z"/></g><path class="f" d="M-3711.97,8655.595l-76.03.16a138.815,138.815,0,0,1-1.8-17.35,163.983,163.983,0,0,0-5.43-36.141c-4.05-14.859-9.31-24.979-12.3-32.859a42.588,42.588,0,0,1-1.94-6.2c-1.22-5.7,1.22-10.811,5.1-15.061,5.13-5.6,12.78-9.7,17.93-11.689,4.58-1.76,17.66,2,29.47,6.16,11.54,4.06,21.88,8.5,21.88,8.5,1.05,2.229,3.29,8.3,6,16.56,1.28,3.9,2.67,8.29,4.07,13C-3717.7,8605.175-3709.68,8638.285-3711.97,8655.595Z"/><path class="g" d="M-3725.021,8580.67a126.73,126.73,0,0,0-41.415,13.741c-8.623,4.536-18.665,6.8-28.8,7.855-5.2-19.062-12.361-30.331-14.231-39.065-2.82-13.209,13.965-23.241,23.027-26.745s51.345,14.66,51.345,14.66C-3733.551,8554.395-3729.414,8565.99-3725.021,8580.67Z"/><path class="f" d="M-3893.63,8798.885c-.02.1-.04.21-.06.311l-.54-.09C-3894.23,8798.985-3894,8798.915-3893.63,8798.885Z"/><path class="f" d="M-3837.56,8655.855l-74.6.159a124.962,124.962,0,0,1-.45-26.989,165.172,165.172,0,0,0-.67-35.12,163.517,163.517,0,0,0-4.56-22.061c-.66-2.439-1.32-4.71-1.92-6.83-1.46-5.109-2.62-9.359-2.94-13.06-1.14-13.46,16.77-21.311,26.2-23.65s49.1,20.98,49.1,20.98c.29.91.69,2.42,1.17,4.42.93,3.87,2.14,9.61,3.42,16.479,1.88,10.181,3.92,22.87,5.34,35.641C-3835.33,8624.985-3834.53,8644.355-3837.56,8655.855Z"/><path class="g" d="M-3922.7,8551.953c.774,9.118,6.73,21.557,9.416,41.955,10.527-.029,24.675-4.267,38.664-7.329,11.712-2.557,26.825,9.453,37.152,19.242-2.886-25.819-8.22-51.257-9.932-56.539,0,0-39.675-23.31-49.1-20.979S-3923.842,8538.5-3922.7,8551.953Z"/><g class="h"><path class="i" d="M-3874.689,8617.322l.753,1.147,7.19,10.969,12.038,18.355q-.7.8-1.344,1.662-.416.557-.811,1.129l-10.073-17.769-8.551-15.157Q-3875.088,8617.492-3874.689,8617.322Z"/><path class="i" d="M-3871.019,8615.689l2.717,4.145,5.741,8.752,10.763,16.406a21.77,21.77,0,0,0-2.073,1.892l-8.844-15.6-7.66-13.576q-.546-.979-1.031-1.84Z"/><path class="i" d="M-3850.627,8644.123c-3.156-5.559-15.558-27.416-16.974-30.091l.029-.016,18.171,27.692-.24,1.789Q-3850.144,8643.8-3850.627,8644.123Z"/><path class="i" d="M-3862.882,8615.029c.273.67,14.241,25.257,14.241,25.257l.4-2.954Z"/><path class="i" d="M-3858.7,8615.888c.217.536,11.372,20.17,11.372,20.17l.324-2.356Z"/><path class="i" d="M-3855.643,8616.185c.173.428,9.085,16.113,9.085,16.113l.261-1.883Z"/><path class="i" d="M-3867.432,8645.013l25.061-22.215q1.25,1.066,2.546,2.082c-7.2,5.724-17.779,14.134-26.923,21.381Q-3867.089,8645.637-3867.432,8645.013Z"/><path class="i" d="M-3869.4,8641.443l24.07-21.336q.988.964,2.024,1.88c-6.043,4.807-16.934,13.465-25.609,20.337Z"/><path class="i" d="M-3871.261,8638l22.137-19.623,1.905-.22q.423.46.857.908c-4.168,3.316-16.244,12.923-24.585,19.521C-3871.051,8638.395-3871.157,8638.2-3871.261,8638Z"/><path class="i" d="M-3872.863,8634.912l18.663-16.544,3.4-.395s-13.752,10.948-21.851,17.352C-3872.725,8635.188-3872.794,8635.05-3872.863,8634.912Z"/><path class="i" d="M-3874.241,8632.083l15.8-14.006,2.715-.313s-12.09,9.623-18.386,14.6C-3874.154,8632.267-3874.2,8632.175-3874.241,8632.083Z"/><path class="i" d="M-3875.506,8630l13.255-11.749,2.172-.251s-10.493,8.353-15.309,12.15C-3875.427,8630.1-3875.466,8630.047-3875.506,8630Z"/></g><path class="j" d="M-3912.66,8840.725c.14-.39.29-.8.47-1.2A8.815,8.815,0,0,1-3912.66,8840.725Z"/><path class="k" d="M-3880.968,8220.922s41.123-.587,44.648-16.449,4.113-24.514,0-33.7,23.5,10.2,23.5,10.2-2.937,12.336,0,21.737,9.4,9.588,19.387,8.613,0,30.747,0,30.747-35.776,3.88-38.45,5.171-39.684.471-41.447,0S-3880.968,8220.922-3880.968,8220.922Z"/><path class="l" d="M-3893.36,8467.441c1.672.126,9.639-3.229,22.381,4.854s25.769,20.717,35.41,18.774,3.183-12.935-2.394-15.347c-5.021-2.172-14.5-5-12.449-8.6s6.526-3.2,11.031.013,8.1.117,6.556-1.681-12.72-8.211-15.415-8.751c-1.994-.4-11.056,2.33-15.815,1.18s-23.672-7.424-23.672-7.424Z"/><path class="m" d="M-3628.392,8328.072s-21.587,62.565-44.072,73.072c-20.06,9.375-36.357,7.776-50.779,2.705s-22.71-21.28-22.71-21.28l.2,2.1,1.481,8.6,45.6,173.728-245.107,5.408,18.2-178,1.247-11.064.633-5.588-3.575,15.446a114.694,114.694,0,0,1-21.2-19.553,119.792,119.792,0,0,1-22.3-41.018c-4.444-13.862-7.825-26.02-10.3-36.706-14.333-61.989,1.89-74.729,18.613-85.456.572-.337,1.154-.664,1.737-.98a.512.512,0,0,1,.071-.03c22.69-12.331,53.777-16.417,89.666-4.863a169.933,169.933,0,0,1,18.511,7.192c3.187,1.45,15.375,27.4,35.091,18.266.419-.193.838-.388,1.247-.593,18-8.683,22.117-18.593,25.07-22.659,0-.01.01-.02.02-.029.1-.123.194-.245.286-.368,2.074-2.615,7.121-5.384,14.026-7.733,18.757-6.385,51.305-10.206,68.171,1.634s32.415,33.355,41.211,62.92C-3652.559,8308.627-3628.392,8328.072-3628.392,8328.072Z"/><path class="n" d="M-3833.88,8267.654l23.06,46.725,51.563,7.492-37.312,36.37,8.808,51.355-46.12-24.247L-3880,8409.6l8.808-51.355-37.312-36.37,51.563-7.492Z"/><path class="o" d="M-3914.987,8435.463c-6.374,7.968-15.594,38.606-20.324,54.216l14.593-134.452,3.933-17.479c24.518-21.994,80.382,50.676,82.905,70.147S-3906.334,8424.644-3914.987,8435.463Z"/><path class="o" d="M-3816.127,8229.463c-5.833,7.561-19.481,15.334-27.317,10.206-11.564-7.56-32.242-7.57-35.848-25.233-1.43-6.987,2.748-9.439,8.316-9.838a169.856,169.856,0,0,1,18.511,7.192c3.188,1.45,15.375,27.4,35.092,18.266C-3816.954,8229.862-3816.535,8229.668-3816.127,8229.463Z"/><path class="l" d="M-3728.862,8407.895a14.7,14.7,0,0,1,1.011,1.39Z"/><path class="m" d="M-3920.462,8280.5l-28,93.149a119.792,119.792,0,0,1-22.3-41.018c-4.444-13.862-7.825-26.02-10.3-36.706l38.177-33.958Z"/><path class="o" d="M-3700.556,8358.205s-20.44,15.63-6.691,28.925,15.517-22.762,15.517-22.762l-6.934-6.163Z"/><path class="p" d="M-3634.39,8286.228c.8-1.451,5.777-21.05,12.066-27.221s16.376-14.551,18.92-18.608c2.993-4.773,5.768-3.474,2.8,2.625-1.927,3.964-6.489,11.321-7.862,12.5-.666.571,3.237-3.69,7.114-8.776,4.121-5.406,8.287-11.649,9.5-10.67,2.346,1.9-8.567,18.662-10.928,21.073a65.968,65.968,0,0,0,6.129-6.472c2.585-3.146,5.061-7.353,6.441-7.071,2.172.442-2.61,10.56-8.267,16.8.1.359,2.572-.862,8.683-8.888.614-.807,2.946-1.907,1.6,1.558-2.836,7.291-3.468,10.788-11,17.1-7.35,6.159-17.2,10.625-22.061,17.271Z"/><path class="p" d="M-3661.581,8381.188c19.424-29.338,30.785-69.56,37.662-87.406-3.894-3.557-6.815-8.5-9-13.777-.226.409-.45.814-.668,1.207-10.474,13.042-34.567,39.55-47.942,63.64.418,3.338-1.957-17.2-10.13-21.4-16.531-8.478-45.571-5.775-44.71,6.645C-3721.476,8340.056-3678.772,8407.184-3661.581,8381.188Z"/><path class="p" d="M-3621.262,8287.458l-5.176,13.64-9.085-17.407s1.341-.048,4.888-8.694,9.041,2.279,9.041,2.279Z"/><path class="p" d="M-3624.661,8264.874s-.335-12.035,5.162-18.463c3.268-3.821,2.2-4.933,2.563-5.813,1.219-2.923,3.192,3.711.956,7.608-1.817,3.166,1.287,9.905.657,12.366s-3.647,8.463-5.478,8.659S-3624.661,8264.874-3624.661,8264.874Z"/><path class="q" d="M-3794.6,8174.267c-8.184,3.309-8.06.2-5.26,12.657.32,7.2-7.779,2.52-15.126,1.889a12.684,12.684,0,0,0-4.55.3c-4.287.773-10.259-2.049-16.107-4.435-10.635-8.137-18.781-.694-11.673-11.976.133-.123.281-.237.4-.369,8.539-8.039-12.808-8.655-4.426-15.335,9.529,1.033-9.4-5.11,4.435-16.108,11.541-1.245-3.335-16.706,11.976-11.673,4.033-4.814,14.53,6.185,15.689-4.036,6.185-2.212,11.54,4.318,16.122,4.444,15.629,5.04,3.64,12.129,11.658,11.967,9.34,1.97,5.44,13.212,4.052,15.7C-3785.784,8164.738-3782.688,8181.3-3794.6,8174.267Z"/><path class="r" d="M-3814.984,8188.813a12.684,12.684,0,0,0-4.55.3c-4.287.773-10.259-2.049-16.107-4.435-10.635-8.137-18.781-.694-11.673-11.976.133-.123.281-.237.4-.369,4.166,1.513,8.414,2.175,10.163-.79,7.9-13.386,24.65-5.529,24.65-5.529s-1.065,11.64-1.379,12.785C-3813.647,8179.383-3814.341,8184.073-3814.984,8188.813Z"/><path class="p" d="M-3807.474,8151.891s19.58,6.125,7.75,26.151-15.348,21.361-26.937,6.326S-3825.208,8142.638-3807.474,8151.891Z"/><rect class="a" width="4.31" height="5.387" transform="translate(-3724.929 8246.432) rotate(-70.315)"/><rect class="a" width="4.31" height="4.31" transform="translate(-3712.756 8250.787) rotate(-70.315)"/><rect class="a" width="16.161" height="4.31" transform="translate(-3709.127 8240.643) rotate(-70.315)"/><path class="a" d="M-3777.5,8211.053l-.135.376c-2.779,7.768.352,17.419,8.121,20.2l9.351,3.345c.018-1.137,1.292-2.427,1.648-3.423l.019-.054c1.522-4.253,5.233-6.642,9.484-5.12l20.606,7.372,5.444-15.216-45.255-16.191C-3772.471,8203.105-3775.808,8206.337-3777.5,8211.053Z"/><path class="a" d="M-3754.73,8233.482c-.483,1.348.368,2.42,1.715,2.9l20.985,7.507,1.451-4.057-20.984-7.508C-3752.911,8231.844-3754.249,8232.135-3754.73,8233.482Z"/><rect class="a" width="16.161" height="5.387" transform="translate(-3721.3 8236.288) rotate(-70.315)"/><path class="a" d="M-3663.675,8256.9a14.342,14.342,0,0,0,1.189-2.48,13.3,13.3,0,0,0-8.376-17.255l-21.662-7.75-5.444,15.216Z"/><path class="a" d="M-3677.455,8263.417c3.788.211,6.907.182,9.45-1.2l-32.141-11.5-1.451,4.058Z"/><path class="a" d="M-3658.66,8270.141c1.349.482,2.684.192,3.166-1.155s-.366-2.419-1.715-2.9l-4.879-1.746c-1.232.7-3.127,2.314-4.9,2.824Z"/><rect class="s" width="2.155" height="5.387" transform="translate(-3715.856 8221.071) rotate(-70.315)"/><path class="s" d="M-3677.455,8263.417l10.467,3.744c1.773-.51,3.668-2.12,4.9-2.824l-5.917-2.117C-3670.548,8263.6-3673.667,8263.628-3677.455,8263.417Z"/><path class="s" d="M-3767.79,8196.77l-33.046-11.823c.285.1.056,1.246-.22,2.015a5.086,5.086,0,0,1-2.428,2.759l27.38,9.8A18.371,18.371,0,0,1-3767.79,8196.77Z"/><path class="s" d="M-3768.212,8202.34l45.255,16.191.726-2.029-37.116-13.279A21.5,21.5,0,0,0-3768.212,8202.34Z"/><path class="s" d="M-3702.957,8223.4l-.726,2.028,4.058,1.452.961-2.687c-1-.409-2.71-.228-3.36-.46Z"/><path class="s" d="M-3691.73,8227.2l-.794,2.22,21.662,7.75a13.3,13.3,0,0,1,8.376,17.255,14.342,14.342,0,0,1-1.189,2.48l5.292,1.893a21.22,21.22,0,0,0,1.305-2.9,19.44,19.44,0,0,0-.883-15.344c-15.288-6.036-28.117-11.054-32.644-12.848A8.206,8.206,0,0,1-3691.73,8227.2Z"/><path class="t" d="M-3565.128,8244.659c-5.477,4.156-12.149,9.106-29.289,5.093s-82.258-25.457-93.661-29.112a10.013,10.013,0,0,0-1.182-.344l-2.47,6.9a9.961,9.961,0,0,0,1.132.482c4.527,1.793,17.607,6.882,32.9,12.916,22.332,8.818,48.721,19.425,58.1,24.037,15.8,7.771,17.752,15.808,19.349,22.494,1.162,4.868,2.766,10.1,6.151,5.377a96.828,96.828,0,0,0,12.34-22.7,96.59,96.59,0,0,0,4.838-25.388C-3556.545,8238.621-3561.14,8241.633-3565.128,8244.659Z"/><rect class="u" width="5.387" height="5.387" transform="translate(-3715.131 8219.042) rotate(-70.315)"/><path class="v" d="M-3702.957,8223.4l.933.334c.65.232,2.362.051,3.36.46l2.136-5.97a12.464,12.464,0,0,1-3.479.51l-1.135-.406Z"/><rect class="u" width="6.464" height="5.387" transform="translate(-3723.477 8242.374) rotate(-70.315)"/><rect class="u" width="6.464" height="4.31" transform="translate(-3714.934 8256.873) rotate(-70.315)"/><rect class="u" width="6.464" height="4.31" transform="translate(-3711.305 8246.729) rotate(-70.315)"/><rect class="u" width="6.464" height="5.387" transform="translate(-3727.106 8252.519) rotate(-70.315)"/><path class="t" d="M-3732.03,8243.891l-20.985-7.507c-1.347-.481-2.2-1.554-1.715-2.9s1.819-1.639,3.167-1.156l20.984,7.508,2.178-6.087-20.606-7.372c-4.251-1.521-7.962.867-9.484,5.12l-.019.054c-.356,1-1.63,2.286-1.648,3.423l-9.351-3.345c-7.769-2.779-10.9-12.431-8.121-20.2l.135-.376a13.064,13.064,0,0,1,9.46-8.639,14.485,14.485,0,0,1,8.688.809l37.116,13.279,1.814-5.072-37.115-13.278c-3.434-1.229-6.753-2.221-10.151-1.684a18.247,18.247,0,0,0-7.918,3.188,18.335,18.335,0,0,0-6.966,9.582l-.135.376c-3.816,10.667.711,23.269,11.378,27.085l16.511,5.907,20.6,7.371Z"/><path class="t" d="M-3697.968,8244.635l-2.178,6.087,32.141,11.5,5.917,2.117,4.879,1.746c1.349.483,2.2,1.555,1.715,2.9s-1.817,1.638-3.166,1.155l-8.328-2.979-10.467-3.744-24.142-8.638-2.178,6.087,37.245,13.325,6.126,2.19c4.255,1.523,9.931-1.384,11.452-5.636l.019-.054c1.522-4.254-1.409-9.019-5.664-10.54l-3.786-1.355-5.292-1.893Z"/><path class="u" d="M-3712.729,8202.737l3.043,1.089,1.089-3.044-7.1-2.54-1.089,3.043,2.029.727-1.089,3.043,2.029.726Z"/><path class="s" d="M-3724.737,8245.895l1.746-4.881,1.746-4.879,5.529-15.456.873-2.439,2.037-5.694,1.39-3.885a1.9,1.9,0,0,0-1.15-2.433l-1.892-.677-1.627-.582h0a1.9,1.9,0,0,0-2.432,1.151l-1.39,3.885-2.037,5.693-.873,2.44-5.529,15.455-1.746,4.88-1.746,4.88-2.037,5.694-3.48,9.728a3.586,3.586,0,0,0,2.169,4.584h0a3.956,3.956,0,0,0,5.057-2.393l3.355-9.379Z"/><path class="u" d="M-3701.571,8206.729l4.058,1.451,1.089-3.043-7.1-2.54-1.089,3.043,1.014.363-1.089,3.043,2.029.726Z"/><path class="s" d="M-3712.564,8250.25l1.746-4.881,1.746-4.879,5.529-15.455.873-2.441,2.037-5.693.761-2.125a3.772,3.772,0,0,0-2.28-4.821l-.92-.329-2.44-.873-.191-.068-2.031,5.677-2.037,5.693-.873,2.44-5.529,15.455-1.746,4.88-1.746,4.881-2.037,5.693-3.418,9.553a3.773,3.773,0,0,0,2.281,4.821h0a3.771,3.771,0,0,0,4.82-2.281l3.418-9.553Z"/><path class="u" d="M-3689.4,8211.085l3.043,1.088,1.089-3.043-7.1-2.54-1.089,3.043,2.029.726-1.089,3.044,2.029.726Z"/><path class="s" d="M-3701.405,8254.242l1.746-4.881,1.746-4.879,5.529-15.455.654-1.828,2.47-6.9.547-1.529a3.771,3.771,0,0,0-2.281-4.82l-.689-.246-2.44-.873-.421-.151-1.984,5.546-2.136,5.97-.821,2.295-5.529,15.455-1.746,4.88-1.746,4.881-2.037,5.692-3.418,9.554a3.771,3.771,0,0,0,2.28,4.82h0a3.771,3.771,0,0,0,4.821-2.28l3.418-9.553Z"/><path class="t" d="M-3800.474,8183.933a5.85,5.85,0,0,0-3.869-5.154,5.851,5.851,0,0,0-1.869-.338,1.99,1.99,0,0,0-1.283-1.608,2.317,2.317,0,0,0-2.987,1.685l-2.91,8.134a2.317,2.317,0,0,0,1.241,3.2,2.356,2.356,0,0,0,2.61-.738,5.2,5.2,0,0,0,1.337.718,5.756,5.756,0,0,0,4.9-.484,5.817,5.817,0,0,0,2.518-3.076A5.839,5.839,0,0,0-3800.474,8183.933Z"/><path class="o" d="M-3795.925,8347.114s-38.055,40.565-34.7,73.5l-37.025-47.315,25.9-35.29Z"/><path class="p" d="M-3829.525,8356.993c1.676-.205,53.8,2.366,65.72-8.617s46.091-87.782,49.58-109.384c0,0-18.84,12.754-20.314,13.379s-49.05,70.106-56.2,73.287c-2.441,1.085-27.037-7.437-52.545,2.351S-3829.525,8356.993-3829.525,8356.993Z"/><path class="p" d="M-3731.42,8245.235c.793-1.445,5.8-20.741,12.016-26.988s13.356-11.6,15.879-15.65c2.967-4.764,8.487-6.786,5.538-.729-1.917,3.936-6.441,11.279-7.8,12.479-.657.582,3.2-3.717,7.037-8.817,4.079-5.423,6.169-4.47,7.349-3.559,2.29,1.767-6.489,11.318-8.82,13.756a68.712,68.712,0,0,0,6.055-6.534c2.557-3.162,5.169-4.017,6.521-3.792,2.129.352-2.785,7.055-8.376,13.351.1.347,2.529-.934,8.577-8.984.608-.809,2.9-1.967,1.558,1.461-2.83,7.216-3.473,10.648-10.908,17.082-7.251,6.274-17.065,11.015-20.631,17.518Z"/><path class="p" d="M-3722.024,8221.707s-.335-12.035,5.162-18.463c3.268-3.821,2.2-4.933,2.563-5.813,1.219-2.923,3.193,3.711.956,7.607-1.817,3.167,1.287,9.905.657,12.367s-3.646,8.463-5.477,8.659S-3722.024,8221.707-3722.024,8221.707Z"/><path class="p" d="M-3731.42,8245.235s-1.179,4.032-8.471,14.177,8.63,1.186,8.63,1.186l14.269-19.32Z"/><path class="m" d="M-3830.623,8420.613s-36.6,2.166-73.381-14.19a132.261,132.261,0,0,1-21.566-12.013c-.571-.4-1.133-.8-1.695-1.206a114.694,114.694,0,0,1-21.2-19.553c-9.205-10.941-18.231-20.379-26.633-35.644-42.546-77.294-4.076-116.809,12.647-127.536.051-.03.092-.061.143-.092a17.369,17.369,0,0,1,1.594-.889.512.512,0,0,1,.071-.03c20-9.583,54.921,26.827,54.921,26.827l43.734,21.034s24,40.619,54.962,57.607C-3807.024,8314.93-3841.9,8386-3830.623,8420.613Z"/><path class="p" d="M-3624.661,8263.082s-.335-12.035,5.162-18.463c3.268-3.821,2.2-4.933,2.563-5.813,1.219-2.923,3.192,3.711.956,7.607-1.817,3.167,1.287,9.905.657,12.367s-3.647,8.462-5.478,8.658S-3624.661,8263.082-3624.661,8263.082Z"/><path class="m" d="M-3665.265,8320.248s-43.62,27.613-38.51,59.063-27.1,15.345-27.1,15.345l-19.711-48.315,13.02-23.076,29.641-26.922Z"/><path class="w" d="M-2987.02,8306.453V8117.527l152.014-7.92v208.85Z"/><path class="x" d="M-2838.443,8112.705v200.837L-2984,8303.5V8121.632S-2859.194,8117.2-2838.443,8112.705Z"/><path class="y" d="M-2863.477,8170.306s.348-8.6,4.282-11.857c6.321-5.23,20.752-19.805,20.752-19.805v-4.757l-25.217,24.017S-2871.888,8164.163-2863.477,8170.306Z"/><path class="y" d="M-2984,8296.768s55.218,12.074,88.7-19.55c33.695-31.828,21.636-64.763,27.835-69.254s17.252-11.782,23.136-14.241l.693-15.371s-49.5,22.069-55.72,36.062C-2905.577,8228.39-2984,8280.6-2984,8280.6Z"/><path class="z" d="M-2849.011,8185.393c-5.449,4.517-18.223,6.2-27.352,15.226-9.392,9.252,5.558,32.018-18.93,57.539-22.972,23.938-61.9,35.917-88.709,25.295V8175.846c32.327-17.945,54.875-6.048,61.581-11.939,7.385-6.445,5.835-20.9,21.024-27.516,11.641-5.075,24.738-.254,33.11,4.124,1.333.677,2.535,1.357,3.589,1.99.824.474,1.549.934,2.191,1.331,1.121.7,2.687,1.257,3.874,1.971,1.946,1.173,2.919,2.754-.577,6.052a20.61,20.61,0,0,0-4.45,6.045c-2.339,4.87-2.438,10.454,1.928,14.413,6.546,5.937,13.382,1.443,16.489,3.586C-2842.117,8178.046-2843.606,8180.9-2849.011,8185.393Z"/><path class="aa" d="M-2868.287,8140.515l29.844-26.814v20.187l-25.217,24.017v.017l-6.454,6.135-4.638-3.216-5.734-4.009-3.365-2.336Z"/><path class="r" d="M-2893.574,8195.244c-1.3,12.263-14.026,22.673-28.347,22.812-14.28.139-23.929-10.006-21.666-22.221,2.178-11.758,14.67-21.121,28.006-21.306C-2902.21,8174.344-2892.325,8183.441-2893.574,8195.244Z"/><path class="c" d="M-2837.98,8119.191l-62.91,57.048a9.027,9.027,0,0,0-1.489,1.675,9.3,9.3,0,0,0-1.9,5.831,5.715,5.715,0,0,0,.049.761c.212,1.733-.073,14.935-2.149,17.422-1.927,2.308-15.095,9.975-20.409,12.271-3.769,1.628-5.059,1.765-5.336,1.962a2.377,2.377,0,0,1-.292-.127l-.2-.192-.146.05h-.016c-.212-.095-.407-.206-.618-.316.228-.5,1.647-.643,6.229-2.651,5.969-2.616,18.252-10.043,19.755-11.842,1.405-1.687,2.263-13.093,1.838-16.4-.033-.276-.049-.584-.066-.891a10.735,10.735,0,0,1,2.076-6.547,11.371,11.371,0,0,1,1.766-1.986l62.883-57.065Z"/><path class="ab" d="M-2965.909,8234.338"/><path class="ab" d="M-2959.573,8239.932"/><path class="c" d="M-2837.98,8127.465l-57.837,53.93a7.112,7.112,0,0,0-1.146,1.379,5.937,5.937,0,0,0-.933,3.663c.2,1.944-1.211,16.126-1.555,17.59-.343,1.594-2.028,3.136-4.971,4.595-1.537.762-12.669,6.612-18.015,9.417-.879.009-1.742-.048-2.589-.12,3.811-2.012,18.2-9.612,20.015-10.491,2.485-1.226,3.99-2.523,4.251-3.679.36-1.61,1.686-15.626,1.522-17.117a7.523,7.523,0,0,1,1.391-4.934,9.154,9.154,0,0,1,1.113-1.28l57.827-53.915Z"/><path class="ac" d="M-2969.257,8230.032l14.411,13.354-6.514,5.614-14.061-13.689Z"/><path class="ad" d="M-2912.058,8193.936a56.236,56.236,0,0,0,2.118-13.5c.084-2.508.042-5.178,1.391-7.319a12.656,12.656,0,0,1,2.537-2.69,269.755,269.755,0,0,1,30.223-22.7"/><path class="ad" d="M-2964.9,8242.575l17.643-16.322"/><path class="ad" d="M-2969.243,8236.255l25.465-22.787"/><g class="ae"><path class="c" d="M-2961,8098.815a146.7,146.7,0,0,0-41.115,46.1c-1.186,2.1-2.308,4.777-.972,6.738,4.712-.989,8.945-3.563,13.073-6.095l57.862-35.488q-13.9,13.917-27.66,27.867c-6.049,6.131-12.186,12.415-15.95,20.119,1.809,1.606,4.658.307,6.724-1.024l50.155-32.319c-6.359,11.81-19.825,19.049-24.714,31.471a12.421,12.421,0,0,0,7.231.036"/></g><path class="af" d="M-2984,8270.877l116.737-157.606,19.306-.379-127.461,191.2-8.582-.592Z"/><path class="af" d="M-2935.442,8306.853l97.463-124.434v16.234l-83.728,111.3Z"/></g></svg>