<svg xmlns="http://www.w3.org/2000/svg" width="1366" height="775.525" viewBox="0 0 1366 775.525"><defs><style>.a{fill:#d2c3db;}.b{fill:#eadff1;}.c{fill:#000;}.d{fill:#6ed0f7;stroke:#4f3b65;stroke-width:6.891px;}.aa,.ab,.d,.j,.u,.x,.y{stroke-miterlimit:10;}.e,.l{fill:#d8a35d;}.e{fill-rule:evenodd;}.f{fill:#947dce;}.g{fill:#ffc84f;}.h{opacity:0.3;}.i{opacity:0.5;}.j,.u{fill:none;}.j{stroke:#947dce;stroke-width:1.407px;}.k{fill:#d19442;}.m{opacity:0.15;}.n{fill:#999;}.o{fill:#ccc;}.p{fill:gray;}.q{fill:#eaf7ff;}.r{fill:#ed3624;}.s{fill:#5b3b4a;}.t{fill:#d6e4f5;}.u{stroke:#5b3b4a;stroke-width:0.787px;}.v{fill:#fdc319;}.w{fill:#c5141d;}.x{fill:#f88e44;stroke-width:0.825px;}.aa,.ab,.x,.y{stroke:#852830;}.ab,.y{fill:#f5f095;}.y{stroke-width:0.412px;}.z{fill:#852830;}.aa{fill:#5ac5bf;}.aa,.ab{stroke-width:0.561px;}</style></defs><g transform="translate(-1500.279)"><path class="a" d="M2866.279,9.537V768l-242.228-67.586-32.991-6.263,1.636-558.092,30.118-25.56Z"/><path class="a" d="M1816.576,125.471l-16.051,556.371-300.045,74.4V6.188l298.845,93.571Z"/><path class="b" d="M2198.257,89.071H1773.649V706.455h849.165V89.071Z"/><path class="c" d="M1500.279,60.78c121.657,30.38,335.7,73.888,615,80.372,352.972,8.194,622.429-47.1,751-78.7V0h-1366Z"/><path class="c" d="M1500.279,724.637c121.657-29.39,335.7-71.48,615-77.753,352.972-7.927,622.429,45.568,751,76.133v47.19l-1365.8,2.746Z"/><path class="d" d="M2656.948,245.959v207l66.988,8.1,21.016,2.53,77.5,9.37v-247l-77.5,9.37-21.016,2.53Z"/><path class="e" d="M2237.433,612.631s-7.188-8.2-15.568-9.845c-4.982-.979-4.813-2.237-5.652-2.648-2.786-1.366-.256,4.014,3.947,5.54,3.416,1.24,5.106,7.233,7.135,8.574s8.16,3.9,9.747,3.147S2237.433,612.631,2237.433,612.631Z"/><path class="e" d="M2259.525,623.823c-1.529-.584-17.493-11.058-26.332-12.241s-22.094-2.1-26.621-3.59c-5.326-1.753-6.775.331-.664,2.956,3.972,1.706,12.141,4.433,13.968,4.583.886.072-4.863-.942-11.093-2.5-6.623-1.659-13.792-3.839-14.172-2.663-.738,2.281,18.29,8.259,21.666,8.765a85.3,85.3,0,0,1-8.893-1.45c-4-.881-8.568-2.5-9.511-1.7-1.485,1.26,8.542,5.677,16.917,7.191.135.279-2.6.593-12.429-1.872-.988-.248-3.541.083-.342,1.725,6.734,3.456,9.375,5.439,19.31,6.158,9.689.7,20.479-.856,27.36,1.771Z"/><path class="f" d="M2252.522,635.662c7.765,3.039,64.148,13.379,115.9,2.012,32.665-7.16,63.473-22.986,79.06-54.751,40.275-82.112-53.837-128.689-53.837-128.689a1.674,1.674,0,0,0-.14.225c-4.08,6.161-91.805,137.777-152.675,158.316C2240.832,612.775,2239.861,630.7,2252.522,635.662Z"/><path class="g" d="M2664.338,770.619l-11.32.02-3.8.01a107.123,107.123,0,0,1-18.51,3.61,101.04,101.04,0,0,1-20.97.03,83.054,83.054,0,0,1-17.28-3.53l-2.22.01c-.36-5.61-.72-11.33-1.06-17.07-.38-6.18-.74-12.4-1.1-18.56-.38-6.54-.75-13.01-1.11-19.33-.15-2.49-.3-4.96-.44-7.39q-.3-5.22-.6-10.22c-.58-9.67-1.15-18.65-1.71-26.5-.37-5.13-.73-9.78-1.1-13.82-.88-9.68-1.77-15.87-2.69-16.87-.35-.38-.67-.26-.97.3-.95,1.81-1.64,8.29-2.17,18.12-.18,3.39-.34,7.18-.48,11.32q-.12,3.345-.22,6.98c-.19,6.76-.35,14.23-.49,22.23-.04,2.76-.09,5.58-.13,8.46-.05,2.97-.09,6-.14,9.09-.09,6.94-.18,14.15-.28,21.51-.06,5.39-.13,10.87-.2,16.39-.06,5.1-.13,10.24-.2,15.39l-17.36.03-22.72.05-20.74.04-19.75.04c.21-3.92.42-7.99.62-12.16.33-6.59.66-13.46.99-20.48.3-6.56.61-13.25.91-19.97.14-3.31.29-6.62.43-9.93q.27-5.94.52-11.86c.27-6.42.53-12.77.79-18.96.23-5.38.44-10.63.65-15.71.04-1.13.09-2.26.13-3.37.23-5.58.44-10.93.64-15.96v-.05c.06-1.54.12-3.06.18-4.54.21-5.24.39-10.08.56-14.41.54-14,.86-22.73.86-22.73a11.407,11.407,0,0,0,6.71,2.43c1.8-.12,4.3-.29,7.37-.49,3.68-.26,8.18-.58,13.28-.95h.01q3.63-.27,7.62-.57c.59-.05,1.18-.09,1.78-.13h.01c5.71-.44,11.87-.93,18.28-1.46q2.775-.225,5.63-.47c.54-.05,1.08-.09,1.63-.14h.01c3.99-.34,8.04-.69,12.1-1.06,5.11-.47,10.22-.95,15.23-1.45,2.08-.21,4.15-.42,6.18-.63,3.24-.34,6.42-.69,9.5-1.04h.04c3.06-.35,6.03-.71,8.87-1.07,2.38-.3,4.68-.6,6.87-.91.11-.01.22-.03.33-.04.93-.13,1.44-.21,1.44-.21,5.12-.74,9.6-1.49,13.21-2.24,1.05-.22,2.03-.44,2.93-.66.12-.04.25-.07.37-.1.2-.05.4-.1.59-.15.58-.15,1.11-.3,1.6-.45.56-.17,1.07-.34,1.52-.52.13-.05.26-.1.38-.15a9.285,9.285,0,0,0,1.13-.54,2.8,2.8,0,0,0,.86-.69v.15c.01.2.02.61.04,1.21.01.15.01.3.02.46.02.54.04,1.19.07,1.96.02.61.05,1.28.07,2.03.02.56.04,1.16.06,1.79.02.34.03.69.04,1.05,0,.09.01.17.01.26.01.34.02.69.04,1.05q.06,1.965.15,4.26.03.825.06,1.71c.03,1.05.07,2.14.11,3.27.05,1.42.1,2.91.15,4.46v.1c.01.2.01.41.02.62l.03.84c.02.51.03,1.02.05,1.53.02.57.04,1.15.06,1.73.02.52.03,1.05.05,1.59.12,3.44.24,7.09.36,10.92.03.63.05,1.27.07,1.91.05,1.29.09,2.6.13,3.92.08,2.39.16,4.85.24,7.35.15,4.62.37,9.4.65,14.29.34,5.79.76,11.75,1.26,17.79q.33,3.93.7,7.9c.88,9.5,1.93,19.15,3.1,28.68.04.33.08.66.13.99.76,6.15,1.57,12.24,2.42,18.21.9,6.3,1.84,12.47,2.81,18.42,1.02,6.25,2.07,12.26,3.12,17.94C2663.688,767.259,2664.008,768.959,2664.338,770.619Z"/><g class="h"><path d="M2562.653,599.187c-.249,0-.5,0-.737,0C2561.916,599.19,2562.177,599.185,2562.653,599.187Z"/><path class="i" d="M2562.653,599.187c19.658-.121,62.093-6.551,62.093-6.551,12.477-1.8,21.187-3.671,22.589-5.495,0,0,0,.051,0,.145.076,1.967.881,24.492,1.831,54.026a14.456,14.456,0,0,1-2.072-.06c-4.463-.437-8.069-2.869-10.964-6.454a35.584,35.584,0,0,1-4.74-8.045C2614.454,600.307,2568.956,599.211,2562.653,599.187Z"/></g><path class="j" d="M2515.978,598.189l-.04,4.58-.2,20.15-.21,22.49v.04l-.17,17.18v.92l-.16,16.68-.22,22.4-.05,5.79-.14,14.7-.2,20.92-.19,19.49-.07,7.39"/><path class="j" d="M2536.858,600.749l-.01.5-.03,3.68-.18,16.93-.21,19.58-.06,5.62-.18,17.43-.01,1.35-.17,16.12-.24,22.91-.04,3.55-.18,16.56-.21,20.49-.2,19.05-.07,6.36"/><path class="j" d="M2556.918,599.029v.63l.05,8.96.02,4.56.04,7.49.08,14.98.05,10.35.09,17.26.02,5.06.07,13.12.11,22.05.03,4.93.07,14.44.1,20.32.1,18.09.04,9.56"/><line class="j" x2="4.197" y2="43.649" transform="translate(2576.229 597.364)"/><path class="j" d="M2609.738,774.289l-.24-3.56-.96-14.25-1.29-19.07-1.22-18.12-.74-10.87-.56-8.31-.1-1.46-1.28-19.02-.37-5.42-.81-12.05-1.47-21.77-1.31-19.36-.23-3.46-.17-2.53-.03-.41-.6-8.93-.08-1.19-.56-8.24-.02-.36-.03-.39"/><path class="j" d="M2630.708,774.259l-.29-3.57-1.25-15.41-1.52-18.8-1.43-17.7-1.31-16.22-.27-3.26-1.65-20.47-.01-.1-.14-1.74-1.27-15.72-1.72-21.29-1.97-24.26-.16-2.02-.03-.4-.48-5.94-1.09-13.48-.01-.08"/><path class="j" d="M2634.238,592.239l1.39,13.21.2,1.91.62,5.91,2.5,23.69.08.81v.01l2.11,19.98L2643,675.4l.48,4.62,1.59,15.1v.01l1.42,13.45.52,4.91,1.95,18.52,1.95,18.58,2,18.92.11,1.13"/><path class="j" d="M2501,623.559s116.88-4.517,147.164-12.657"/><path class="j" d="M2580.426,641.013c-39.936,12.728-80.168,1.5-80.168,1.5"/><path class="j" d="M2579.749,638.294s37.645,7.167,69.181-4.332"/><path class="j" d="M2499.618,658.523s30.674,12.843,77.676.908"/><path class="j" d="M2498.838,677.595s46.875,10.016,77.755.131"/><path class="j" d="M2498.041,696.544s24.831,16.235,78.062,3.416"/><path class="j" d="M2497.091,718.344s37.064,15.482,78.741-.835"/><path class="j" d="M2496.182,738.317s26.656,15.672,79.373.7"/><path class="j" d="M2495.2,758.8s36.233,15.144,80.156-3.386"/><path class="j" d="M2583.117,657.881s16.446,11.359,67.653-2.528"/><path class="j" d="M2585.162,676.929s22.412,8.194,65.919-3.542"/><path class="j" d="M2585.932,698.2s34.135,7.16,66.789-5.744"/><path class="j" d="M2586.964,715.8s33.581,11.6,67.912-5.841"/><path class="j" d="M2588.078,735.135s31.723,8.158,69.35-5.964"/><path class="j" d="M2589.174,753.7s26.959,9.413,71.061-6.112"/><path class="j" d="M2663.358,765.529a109.658,109.658,0,0,1-10.45,3.98q-1.86.615-3.69,1.14a107.123,107.123,0,0,1-18.51,3.61,101.04,101.04,0,0,1-20.97.03,83.054,83.054,0,0,1-17.28-3.53c-1.22-.4-1.87-.67-1.87-.67"/><path class="k" d="M2488.453,370.1s3.439,16.9,16.306,22.967-23.393,6.984-23.393,6.984,1.536-17.625-2.788-27S2488.453,370.1,2488.453,370.1Z"/><ellipse class="l" cx="25.269" cy="18.521" rx="25.269" ry="18.521" transform="translate(2454.137 369.659) rotate(-68.921)"/><path class="f" d="M2368.424,637.674c32.665-7.16,63.473-22.986,79.06-54.751.056.085.112.155.168.239.169.212.338.437.507.69a.714.714,0,0,1,.112.155c4.488,6.133,26.518,36.252,26.518,36.266,7.99,10.41,20.2,20.412,29.893,24.435.633.281,1.28.52,1.871.731,23.76,3.714,122.711-33.888,134.5-43.285,5.317-4.235,7.4-24.084,7.821-45.607.535-26.236-1.364-55-2.757-61.067-2.363-10.171-49.082-122.7-122.387-115.579a75.227,75.227,0,0,0-19.076,4.473s-.549.577-1.519,1.435a36.086,36.086,0,0,1-6.626,4.713,28.131,28.131,0,0,1-6.767,2.715,20.74,20.74,0,0,1-13.828-1.125c-4.586-2.054-14.771.351-27.136,7.258-17.177,9.58-38.6,27.854-55.131,54.864a1.674,1.674,0,0,0-.14.225,176.718,176.718,0,0,0-23.69,65.034A419.369,419.369,0,0,0,2368.424,637.674Z"/><path class="m" d="M2447.487,582.917c.055.086.12.155.175.241.167.215.338.443.5.688.043.046.073.1.12.155,4.488,6.133,26.5,36.262,26.509,36.276,7.994,10.4,20.2,20.409,29.9,24.427-11.025-17.6-44.138-68.273-50.193-90.865C2457.793,576.375,2447.483,582.9,2447.487,582.917Z"/><path class="m" d="M2492.1,396.858c.533,1.588,0,2.893-2.682,3.311-8.359,1.307-17.363,4.245-23.053,9.232a5.841,5.841,0,0,1-5.487,1.389c-4.956-1.207-9.768-7.786-11.78-10.739a2.33,2.33,0,0,1-.321-.682c12.369-6.908,22.544-9.314,27.139-7.251a20.706,20.706,0,0,0,13.824,1.114A11.406,11.406,0,0,1,2492.1,396.858Z"/><path class="g" d="M2479.229,336.7s23.524,28.12,24.91-1.935C2505.1,313.976,2463.4,316.968,2479.229,336.7Z"/><path class="g" d="M2486.018,332.015s-20.567,3.48-22.793,14.066c0,0,7.775-31.17,24.707-25.5s22.757,9.758,9.155,40.645C2497.087,361.223,2501.9,334.337,2486.018,332.015Z"/><path class="g" d="M2487.132,320.493s4.413-8.945,13.1-4.091,10.6,11.623,9.885,17.379-.917,10.2.4,10.706c0,0-5.456,2.421-6.262.6,0,0-.232,10.753-7.548,16.835,0,0,2.9-12.6-3.158-16.439S2487.132,320.493,2487.132,320.493Z"/><path class="g" d="M2488,320.736s-5.046-6.467-15.15.191l-6.974,6.358s.807,1.819,3.938,1.518c0,0-4.761,8.788-5.519,14.492l9.963-14.287Z"/><path class="n" d="M2475.281,579.742l107.037,43.808a12.2,12.2,0,0,0,15.906-6.663l29.892-73.057a3.806,3.806,0,0,0,.188-.527,12.161,12.161,0,0,0-6.858-15.367L2514.41,484.128a12.183,12.183,0,0,0-15.894,6.67L2470,560.462l-1.388,3.386A12.184,12.184,0,0,0,2475.281,579.742Z"/><path class="o" d="M2476.856,575.829l107.036,43.808a12.185,12.185,0,0,0,15.9-6.67L2628.3,543.3a12.161,12.161,0,0,0-6.858-15.367L2514.41,484.128a12.183,12.183,0,0,0-15.894,6.67L2470,560.462A12.159,12.159,0,0,0,2476.856,575.829Z"/><circle class="p" cx="9.414" cy="9.414" r="9.414" transform="translate(2540.968 542.283)"/><path class="m" d="M2631.658,557.087s-10.265-40.772-114.077,4.9,88.524,1.464,88.524,1.464Z"/><path class="m" d="M2585.459,454.232s-3.647,110.088,102.058,124.82l2.266.692-7.508-23.4s-62.09-48.075-62.725-49.6S2585.459,454.232,2585.459,454.232Z"/><path class="e" d="M2532.124,574.071c-1.405-.047-17.3-4.1-24.816-2.589s-18.539,4.467-22.634,4.521c-4.818.063-5.413,2.162.287,2.587,3.7.277,11.1.21,12.63-.179.74-.188-4.215.594-9.713,1.066-5.845.5-12.28.734-12.26,1.8.037,2.06,17.17,1.6,20.054,1.069a73.464,73.464,0,0,1-7.631,1.306c-3.5.4-7.661.363-8.2,1.276-.855,1.439,8.527,2.226,15.754,1.116.188.189-1.949,1.21-10.622,1.952-.871.074-2.854,1.057.2,1.5,6.438.927,9.138,1.8,17.411-.391,8.069-2.138,16.4-6.417,22.727-6.206Z"/><path class="e" d="M2511.046,571.15s-8.13-4.653-15.4-3.65c-4.322.6-4.536-.473-5.333-.573-2.645-.331.914,3.333,4.756,3.4,3.122.053,6.169,4.451,8.193,4.973s7.719.887,8.8-.166S2511.046,571.15,2511.046,571.15Z"/><path class="f" d="M2598.672,376.287c32.174,15.137,56.041,30.992,87.724,97.131,16.074,33.555,25.14,69.2,29.236,88.206a22.9,22.9,0,0,1-9.383,23.581c-71.717,49.991-181.634.593-181.634.593-5.062-.335-.741-19.318-.741-19.318,43.843-13.586,77.945-22.3,117.016-19.284-.2-.03-53.7-54.177-63.64-70.554-26.054-42.951-78.073-71.321-73.177-92.665C2505.762,376.6,2566.22,361.018,2598.672,376.287Z"/><path class="d" d="M1730.5,261.923V443.91c0,.312-.382.578-.9.627l-75.156,7.078-23.861,2.238-86.751,8.17c-.65.061-1.238-.236-1.238-.626V244.436c0-.39.588-.687,1.238-.626l86.751,8.17,23.861,2.237L1729.6,261.3C1730.12,261.345,1730.5,261.611,1730.5,261.923Z"/><path class="q" d="M1630.966,290.249c-.256-6.265,2.813-11.94,7.681-14.179,8.624-3.968,19.173,4.561,19.5,10.634.292,5.492-7.835,7.86-7.089,13.589.54,4.146,4.958,4.151,7.68,10.044,2.083,4.508,2.769,11.587-.591,14.77-4.1,3.886-11.2-.916-14.77,2.954-2.987,3.239.911,7.768-1.772,12.407-3.613,6.247-17.138,9.194-22.451,2.954-3.274-3.845-2.132-9.654-1.772-11.225-.044.455-1,9.028-8.272,12.406-5.83,2.709-13.909,1.239-17.133-4.135a11.884,11.884,0,0,1-1.182-8.271c-2.769,6.291-9.8,8.428-14.179,5.908-3.2-1.846-4.958-6.176-4.136-10.635a15.234,15.234,0,0,1-10.634,0c-.407-.156-7.59-3-8.862-9.453-1.2-6.083,3.267-13.268,11.225-15.952-5.808-3.445-9.268-8.736-8.271-12.407,1.237-4.559,9.855-8.479,20.087-4.726.615-6.627,4.978-12.091,10.635-13.589,7.322-1.938,15.967,2.993,18.315,11.816a13.5,13.5,0,0,1,25.995,7.09Z"/><path class="q" d="M1698.893,407.413a6.66,6.66,0,0,1,3.486-6.437c3.916-1.8,8.7,2.071,8.851,4.828.133,2.493-3.557,3.568-3.218,6.169.245,1.882,2.251,1.884,3.486,4.559.946,2.047,1.258,5.261-.268,6.7-1.862,1.765-5.085-.415-6.7,1.341-1.356,1.471.413,3.527-.805,5.633-1.64,2.836-7.779,4.174-10.191,1.341-1.487-1.746-.968-4.383-.805-5.1-.02.207-.454,4.1-3.755,5.632-2.647,1.23-6.314.563-7.778-1.877a5.391,5.391,0,0,1-.536-3.755c-1.258,2.856-4.451,3.826-6.437,2.682a4.578,4.578,0,0,1-1.878-4.828,6.912,6.912,0,0,1-4.827,0c-.185-.071-3.446-1.362-4.024-4.291-.544-2.762,1.484-6.024,5.1-7.242-2.636-1.564-4.207-3.966-3.755-5.632.562-2.07,4.474-3.85,9.119-2.146a6.916,6.916,0,0,1,4.828-6.168c3.324-.88,7.249,1.358,8.315,5.364a6.129,6.129,0,0,1,11.8,3.218Z"/><path class="r" d="M1608.011,377.341s56.969-20.984,74.758-23.6l17.788-2.618s6.366,14.248,9.114,16.515c0,0-29.823,11.756-39.6,14.707s-35.719,13.881-51.169,18.545Z"/><path class="s" d="M1637.131,396.589s5.234,3.63,7.664-1.109-3.056-6.991-5.593-5.279S1635.235,394.582,1637.131,396.589Z"/><path class="s" d="M1677.043,381.079s5.234,3.63,7.664-1.109-3.056-6.991-5.593-5.279S1675.147,379.071,1677.043,381.079Z"/><path class="t" d="M1675.643,355.208s-17.552-5.716-21.193-13.218c0,0-23.141,11.287-31.226,9.771,0,0,2.832,17.568,1.393,19.629Z"/><path class="u" d="M1641.4,392.2a184.828,184.828,0,0,1-6.258-24.156c-.022-.1-.042-.193-.054-.288-1.471-7.512-2.367-13.882-2.785-17.093"/><path class="u" d="M1644.4,346.439a86.794,86.794,0,0,1,14.768,13.442c.133.141.256.276.383.426a90.493,90.493,0,0,1,13.668,21.016"/><path class="v" d="M1612.767,382.27s-14.721.243-17.7,1.78-.4,2.67-.4,2.67-8.075,3.451-9.176,5.5,1.422,1.291,1.422,1.291-11.113,4.215-11.419,9.468a43.475,43.475,0,0,0,9.459-2.856s-6.036,3.371-5.934,7.125c0,0,11.212-1.607,13.512-3.105l-1.114,3.146s24.7-7.63,26.257-12.744S1612.767,382.27,1612.767,382.27Z"/><path class="u" d="M1638.447,373.313s3.391-.164,4.887-1.476"/><path class="w" d="M1612.488,384.763s-11.86,1.172-13.734,2.942-4.515,6.7-6.517,7.473c0,0,4.232-1.937,6.119-2.522s-2.809,7.217-6.777,8.32c0,0,9.918-5.326,11.134-4.145s-5.434,4.221-5.434,4.221,11.543-4.5,13.849-5.978a35.2,35.2,0,0,0,4.448-3.5Z"/><path class="x" d="M2729.143,367.646l-.13,4.77-2.4,85.32-3.48-.42-37.79-4.58-1.76-82.15-.08-3.64Z"/><path class="y" d="M2710.566,401.982l.219,9.911-8.18-.438-.051-9.878Z"/><path class="y" d="M2698.651,401.083l.271,10.735-9.98-.43c-.013-1.232-.268-10.248-.268-10.248Z"/><path class="y" d="M2710.994,414.732l.233,10.455-8.4-.484-.057-10.419Z"/><path class="y" d="M2689.124,424.139l9.639.443.131-10.506-9.919-.54Z"/><path class="y" d="M2711.159,428.143l.244,11.044-8.64-.534-.058-11Z"/><path class="y" d="M2698.728,427.414l-.139,11.1-9.264-.37c-.053-3.647-.1-7.188-.151-10.593Z"/><path class="y" d="M2711.331,442.109l.255,11.674-8.885-.588-.058-11.63Z"/><path class="y" d="M2698.555,441.307l-.147,11.731-8.87-.367c-.058-3.816-.111-7.577-.164-11.244Z"/><path class="y" d="M2713.585,402.575l.181,10.041,10.133.652c.006-1.245-.245-10.339-.245-10.339Z"/><path class="y" d="M2711.136,389.338l.235,9.838-9.041-.449-.047-9.8Z"/><path class="y" d="M2698.108,388.8l.312,9.935-10.092-.485-.237-10.193Z"/><path class="y" d="M2724.076,390.265l-.113,9.754-9.612-.582.091-10.121Z"/><path class="y" d="M2711.159,376.253l.266,10.8-9.424-.434-.045-10.762Z"/><path class="y" d="M2697.627,375.675l-.175,10.852-9.4-.341-.238-10.365Z"/><path class="y" d="M2724.543,377.417l-.266,10.442-9.743-.546-.229-10.926Z"/><path class="y" d="M2723.877,415.435l-10.07-.548L2714,425.46l9.786.677Z"/><path class="y" d="M2714.049,428.31l.2,11.173,9.407.787c.034-3.68.065-7.253.095-10.689Z"/><path class="y" d="M2714.3,442.294l.213,11.811,9.008.82c.037-3.849.069-7.644.1-11.343Z"/><path class="z" d="M2682.157,370.527l-.085-5.4,48.54,1.636-.131,5.713Z"/><path class="aa" d="M2803.673,277.736l-.16,3.93-7.72,184.41-51.64-6.24-12.2-1.46-.56-176.34-.01-4.69Z"/><path class="ab" d="M2759.71,319.582l0,.088a5.3,5.3,0,0,0,5.364,5.586l2.22-.032a5.3,5.3,0,0,0,5.219-5.137l0-.084a5.3,5.3,0,0,0-5.359-5.455l-2.217.027A5.3,5.3,0,0,0,2759.71,319.582Z"/><path class="ab" d="M2778.867,314.086l-.689,11.589,15.811-.111c.051-1.331.672-11.063.672-11.063Z"/><path class="ab" d="M2758.706,333.639v0a5.631,5.631,0,0,0,5.717,5.94l1.9-.033a5.63,5.63,0,0,0,5.533-5.458h0a5.631,5.631,0,0,0-5.711-5.8l-1.9.028A5.631,5.631,0,0,0,2758.706,333.639Z"/><path class="ab" d="M2788.048,339.383l-4.222.038a5.631,5.631,0,0,1-5.681-5.654v-.126a5.631,5.631,0,0,1,5.548-5.607l4.227-.062a5.63,5.63,0,0,1,5.709,5.871l-.007.151A5.63,5.63,0,0,1,2788.048,339.383Z"/><path class="ab" d="M2758.124,348.11l-.035.637a5.63,5.63,0,0,0,5.733,5.937l2.271-.045a5.631,5.631,0,0,0,5.517-5.46l.019-.631a5.631,5.631,0,0,0-5.727-5.8l-2.255.04A5.629,5.629,0,0,0,2758.124,348.11Z"/><path class="ab" d="M2778.085,348.324l0,.526a5.631,5.631,0,0,0,5.658,5.654l3.631-.018a5.634,5.634,0,0,0,5.6-5.39l.017-.392a5.629,5.629,0,0,0-5.445-5.868l-3.645-.117A5.631,5.631,0,0,0,2778.085,348.324Z"/><path class="ab" d="M2757.492,363.641l-.018.32a6.127,6.127,0,0,0,6.257,6.457l1.654-.038a6.125,6.125,0,0,0,5.984-5.943l.01-.316a6.126,6.126,0,0,0-6.249-6.306l-1.646.033A6.128,6.128,0,0,0,2757.492,363.641Z"/><path class="ab" d="M2778.022,363.845v.2a6.126,6.126,0,0,0,6.162,6.151l2.037-.012a6.126,6.126,0,0,0,6.084-5.86l.006-.122a6.126,6.126,0,0,0-5.929-6.389l-2.042-.064A6.126,6.126,0,0,0,2778.022,363.845Z"/><path class="ab" d="M2777.607,379.811l0,.7a6.127,6.127,0,0,0,6.149,6.155l1.738-.007a6.128,6.128,0,0,0,6.1-5.862l.032-.731a6.125,6.125,0,0,0-6.265-6.387l-1.767.041A6.127,6.127,0,0,0,2777.607,379.811Z"/><path class="ab" d="M2764.943,374.151l-2.238.053a6.126,6.126,0,0,0-5.977,5.875l-.025.609a6.127,6.127,0,0,0,6.28,6.374l2.254-.059a6.125,6.125,0,0,0,5.966-6.028l.01-.6A6.127,6.127,0,0,0,2764.943,374.151Z"/><path class="ab" d="M2777.254,397.692v.113a6.389,6.389,0,0,0,6.421,6.422l.81,0a6.386,6.386,0,0,0,6.351-6.108l.006-.131a6.393,6.393,0,0,0-6.555-6.668l-.815.022A6.388,6.388,0,0,0,2777.254,397.692Z"/><path class="ab" d="M2764.367,392.025l-1,.027a6.389,6.389,0,0,0-6.212,6.139v.01a6.388,6.388,0,0,0,6.572,6.634l1-.029a6.388,6.388,0,0,0,6.2-6.286v-.007A6.388,6.388,0,0,0,2764.367,392.025Z"/><path class="ab" d="M2777.037,417.217l-.015,2.871a6.424,6.424,0,0,0,6.641,6.456h0a6.422,6.422,0,0,0,6.2-6.139q.062-1.428.125-2.875a6.429,6.429,0,0,0-6.616-6.7l-.11,0A6.426,6.426,0,0,0,2777.037,417.217Z"/><path class="ab" d="M2763.3,410.417h0a7.708,7.708,0,0,0-7.466,7.4l-.019.477a7.706,7.706,0,0,0,7.959,8.008h.012a7.707,7.707,0,0,0,7.448-7.59l.007-.476A7.708,7.708,0,0,0,2763.3,410.417Z"/><path class="ab" d="M2776.918,439.485l0,.65a6.042,6.042,0,0,0,6.267,6.07h0a6.038,6.038,0,0,0,5.81-5.773l.029-.655a6.043,6.043,0,0,0-6.58-6.279l-.024,0A6.042,6.042,0,0,0,2776.918,439.485Z"/><path class="ab" d="M2754.916,320.733l-.017.348a5.3,5.3,0,0,1-5.176,5.037l-5.416.116a5.3,5.3,0,0,1-5.4-5.61l.027-.459a5.3,5.3,0,0,1,5.278-4.978l5.406-.009A5.3,5.3,0,0,1,2754.916,320.733Z"/><path class="ab" d="M2759.1,305.9v.009a5.3,5.3,0,0,0,5.349,5.6l3.567-.041a5.3,5.3,0,0,0,5.233-5.141h0a5.3,5.3,0,0,0-5.343-5.452l-3.566.033A5.3,5.3,0,0,0,2759.1,305.9Z"/><path class="ab" d="M2780.023,300.83l-.734,10.723,15.989-.167.621-11Z"/><path class="ab" d="M2738.847,306.535v.078a5.3,5.3,0,0,0,5.4,5.324l4.657-.088a5.3,5.3,0,0,0,5.2-5.247l0-.2a5.3,5.3,0,0,0-5.533-5.34l-4.659.209A5.3,5.3,0,0,0,2738.847,306.535Z"/><path class="ab" d="M2759.374,291.768l-.061,1.052a5.3,5.3,0,0,0,5.335,5.6l4.162-.038a5.3,5.3,0,0,0,5.247-5.145l.03-1.042a5.3,5.3,0,0,0-5.331-5.448l-4.13.029A5.3,5.3,0,0,0,2759.374,291.768Z"/><path class="ab" d="M2781.1,286.669l.014,11.731,14.9-.036.626-11.191Z"/><path class="ab" d="M2738.523,292.731l.013.858a5.3,5.3,0,0,0,5.38,5.217l5.2-.083a5.3,5.3,0,0,0,5.2-5.014l.054-1.019a5.3,5.3,0,0,0-5.534-5.572l-5.262.243A5.3,5.3,0,0,0,2738.523,292.731Z"/><path class="ab" d="M2744.076,328.619l4.463-.066a5.631,5.631,0,0,1,5.707,5.9l-.01.2a5.631,5.631,0,0,1-5.484,5.354l-4.455.111a5.631,5.631,0,0,1-5.77-5.684l0-.244A5.63,5.63,0,0,1,2744.076,328.619Z"/><path class="ab" d="M2753.522,349.273l-.028.578a5.63,5.63,0,0,1-5.429,5.352l-3.857.134a5.633,5.633,0,0,1-5.825-5.684l0-.451a5.627,5.627,0,0,1,5.254-5.562l3.881-.26A5.631,5.631,0,0,1,2753.522,349.273Z"/><path class="ab" d="M2752.755,364.963l-.012.25a6.127,6.127,0,0,1-5.876,5.823l-2.253.089a6.127,6.127,0,0,1-6.369-6.179l0-.178a6.124,6.124,0,0,1,5.688-6.052l2.263-.162A6.125,6.125,0,0,1,2752.755,364.963Z"/><path class="ab" d="M2752.323,381.018l-.037.773a6.125,6.125,0,0,1-5.825,5.824l-1.948.094a6.128,6.128,0,0,1-6.421-6.178l.008-.821a6.125,6.125,0,0,1,5.982-6.065l1.978-.047A6.127,6.127,0,0,1,2752.323,381.018Z"/><path class="ab" d="M2751.725,399.061l-.009.189a6.388,6.388,0,0,1-6.04,6.075l-1.013.054a6.388,6.388,0,0,1-6.731-6.435l0-.216a6.394,6.394,0,0,1,6.218-6.332l1.019-.027A6.39,6.39,0,0,1,2751.725,399.061Z"/><path class="ab" d="M2750.9,418.856l-.133,2.8a6.521,6.521,0,0,1-6.295,6.208h0a6.518,6.518,0,0,1-6.741-6.575q.014-1.389.027-2.8a6.524,6.524,0,0,1,6.321-6.46l.107,0A6.522,6.522,0,0,1,2750.9,418.856Z"/><path class="ab" d="M2749.831,441.23l-.029.608a6.132,6.132,0,0,1-5.9,5.837h0a6.131,6.131,0,0,1-6.361-6.184l.005-.605a6.136,6.136,0,0,1,6.255-6.079h.024A6.132,6.132,0,0,1,2749.831,441.23Z"/><path class="ab" d="M2765.647,434.394l-4.711.165a6.227,6.227,0,0,0-6.005,5.977v.011a6.229,6.229,0,0,0,6.457,6.471l4.711-.177a6.228,6.228,0,0,0,6-6.143h0A6.228,6.228,0,0,0,2765.647,434.394Z"/><path class="z" d="M2805.718,281.655l.265-5.836-76.889.049.069,6.177Z"/><path class="q" d="M2721.369,281.634c-.15-3.661,1.643-6.977,4.488-8.286,5.04-2.318,11.2,2.666,11.393,6.215.171,3.209-4.579,4.593-4.143,7.941.316,2.422,2.9,2.425,4.488,5.869,1.218,2.634,1.619,6.771-.345,8.631-2.4,2.271-6.546-.535-8.631,1.726-1.745,1.893.532,4.54-1.036,7.25-2.111,3.651-10.014,5.373-13.119,1.727-1.913-2.247-1.246-5.642-1.036-6.56-.025.266-.584,5.276-4.833,7.25-3.407,1.583-8.129.724-10.013-2.417a6.945,6.945,0,0,1-.69-4.833c-1.618,3.676-5.729,4.925-8.286,3.452a5.893,5.893,0,0,1-2.417-6.214,8.9,8.9,0,0,1-6.214,0c-.238-.092-4.435-1.753-5.179-5.524-.7-3.555,1.909-7.754,6.56-9.322-3.394-2.013-5.416-5.105-4.834-7.25.724-2.664,5.76-4.955,11.739-2.762a8.9,8.9,0,0,1,6.214-7.941c4.279-1.132,9.331,1.749,10.7,6.9a7.889,7.889,0,0,1,15.191,4.143Z"/></g></svg>