<svg xmlns="http://www.w3.org/2000/svg" width="68.79" height="68.79" viewBox="0 0 68.79 68.79"><defs><style>.a{fill:#f6f6f6;}.b{fill:#f8bf8a;}.c{fill:#fbe9ab;}.d{fill:#d6725e;}.e,.l{fill:#fefefd;}.e{opacity:0.17;}.f{fill:#dc7763;}.g{fill:#ef9a74;}.h{fill:#f8d59d;}.i{fill:#ee9a74;}.j{fill:#e9b178;}.k,.o{fill:#423f3a;}.m{fill:#e98363;}.n{fill:#da7a61;}.o{opacity:0.32;}.p{fill:#fff;}.q,.r{fill:#e8391c;font-family:BPGArial, BPG Arial;}.q{font-size:3px;}.r{font-size:32px;}</style></defs><circle class="a" cx="34.395" cy="34.395" r="34.395"/><g transform="translate(6.808 14.445)"><rect class="b" width="37.689" height="6.878" transform="translate(6.597 0.632)"/><rect class="c" width="35.303" height="23.968" transform="translate(7.791 7.966)"/><rect class="d" width="38.251" height="0.912" transform="translate(6.317 7.51)"/><rect class="e" width="36.561" height="0.242" transform="translate(7.162 2.535)"/><rect class="e" width="36.561" height="0.242" transform="translate(7.162 3.701)"/><rect class="e" width="36.561" height="0.242" transform="translate(7.162 4.866)"/><rect class="e" width="36.561" height="0.242" transform="translate(7.162 6.032)"/><rect class="d" width="38.251" height="0.912" transform="translate(6.317)"/><rect class="f" width="7.65" height="0.41" transform="translate(0 9.276)"/><circle class="g" cx="3.228" cy="3.228" r="3.228" transform="translate(0.257 11.159)"/><rect class="g" width="0.187" height="2.363" transform="translate(2.012 9.685)"/><rect class="g" width="0.187" height="2.363" transform="translate(4.901 9.685)"/><circle class="h" cx="2.527" cy="2.527" r="2.527" transform="translate(0.959 11.861)"/><path class="f" d="M236.16,464.492h3.167a1.6,1.6,0,0,1-1.456,2.018C236.02,466.667,236.16,464.492,236.16,464.492Z" transform="translate(-234.239 -450.788)"/><path class="f" d="M238.712,468.572v.2h.824v-.242Z" transform="translate(-235.553 -452.864)"/><path class="f" d="M241.981,465.947c0-.006.29-.08.311-.087a.824.824,0,0,0,.413-.235.27.27,0,0,0-.226-.405.324.324,0,0,0-.249.14l-.021-.509s.535-.052.711.334.07.7-.439.833S241.981,465.947,241.981,465.947Z" transform="translate(-237.235 -450.971)"/><path class="i" d="M238.392,462.654a.28.28,0,0,1,.115-.289.419.419,0,0,0,.034-.588.532.532,0,0,0-.228-.158s.3.351.167.465A.455.455,0,0,0,238.392,462.654Z" transform="translate(-235.348 -449.31)"/><rect class="j" width="18.529" height="14.271" transform="translate(10.598 11.3)"/><path class="i" d="M239.82,462.654a.28.28,0,0,1,.115-.289.419.419,0,0,0,.034-.588.532.532,0,0,0-.228-.158s.3.351.167.465A.455.455,0,0,0,239.82,462.654Z" transform="translate(-236.082 -449.31)"/><rect class="k" width="17.071" height="13.148" transform="translate(11.327 11.861)"/><rect class="f" width="1.562" height="0.224" rx="0.112" transform="translate(2.785 15.906)"/><path class="l" d="M259.03,460.312c-.113.047.113,3.182-.789,5.334a13.227,13.227,0,0,1-3.269,4.117l-.075-9.452Z" transform="translate(-243.879 -448.638)"/><path class="l" d="M282.649,459.927s.328,6.176,1.871,7.767a21.031,21.031,0,0,0,2.387,2.2v-9.966Z" transform="translate(-258.155 -448.44)"/><rect class="m" width="9.919" height="19.979" transform="translate(31.139 9.99)"/><rect class="k" width="7.767" height="14.739" transform="translate(32.215 10.972)"/><rect class="j" width="7.697" height="2.035" transform="translate(32.285 26.74)"/><rect class="n" width="7.323" height="1.474" transform="translate(32.659 27.302)"/><path class="j" d="M297.97,476.478a10.164,10.164,0,0,1,1.193,0v3.392H297.97v-.444h.819v-2.433h-.819Z" transform="translate(-266.036 -456.943)"/><path class="j" d="M254.031,459.541v14.271H272.56V459.541Zm17.8,13.71H254.76V460.1h17.07Z" transform="translate(-243.433 -448.241)"/><path class="o" d="M284.821,462.913a9.15,9.15,0,0,0,1.263,5.4A16.936,16.936,0,0,1,284.821,462.913Z" transform="translate(-259.259 -449.975)"/><path class="o" d="M259.851,462.912s-.15,4.306-2.1,5.5A11.8,11.8,0,0,0,259.851,462.912Z" transform="translate(-245.345 -449.975)"/><path class="o" d="M258.434,464.492c-.113.216-.714,3.3-1.616,4.006Z" transform="translate(-244.867 -450.788)"/><path class="o" d="M287.719,470.038a3.381,3.381,0,0,0,.608,2.246A5.7,5.7,0,0,1,287.719,470.038Z" transform="translate(-260.754 -453.639)"/><rect class="d" width="37.408" height="1.965" transform="translate(6.597 29.969)"/><rect class="b" width="11.281" height="5.536" transform="translate(19.802 1.3)"/><g transform="translate(21.984 3.185)"><path class="p" d="M278.521,444.567a.458.458,0,0,0-.09-.283.282.282,0,0,0-.238-.12h-.2v-.2h.213a.252.252,0,0,0,.214-.1.351.351,0,0,0,.073-.215.265.265,0,0,0-.111-.216.393.393,0,0,0-.25-.087v-.207a.678.678,0,0,1,.43.149.457.457,0,0,1,.19.369.437.437,0,0,1-.061.227.513.513,0,0,1-.18.175.5.5,0,0,1,.194.208.6.6,0,0,1,.078.29.931.931,0,0,1-.073.4.531.531,0,0,1-.226.234.712.712,0,0,1-.352.085.721.721,0,0,1-.354-.085.526.526,0,0,1-.226-.231.762.762,0,0,1-.071-.336.711.711,0,0,1,.1-.315h.257a.865.865,0,0,0-.092.392.332.332,0,0,0,.12.257.42.42,0,0,0,.512.036.3.3,0,0,0,.122-.172A1.065,1.065,0,0,0,278.521,444.567Z" transform="translate(-277.479 -442.989)"/><path class="p" d="M282.042,443.9a.672.672,0,0,1-.176.443.646.646,0,0,1-.942,0,.69.69,0,0,1-.184-.484.79.79,0,0,1,.141-.429l.225.1a.8.8,0,0,0-.1.324.483.483,0,0,0,.123.369.391.391,0,0,0,.265.112.4.4,0,0,0,.251-.091.5.5,0,0,0,.14-.347.643.643,0,0,0-.319-.559.611.611,0,0,1-.32-.51h.248q0,.237.326.456A.7.7,0,0,1,282.042,443.9Z" transform="translate(-279.157 -442.83)"/><path class="p" d="M285.436,445.28a.9.9,0,0,1-.483-.125.492.492,0,0,1-.237-.348h.27a.43.43,0,0,0,.416.262.517.517,0,0,0,.377-.109.456.456,0,0,0,.111-.32.384.384,0,0,0-.077-.219.215.215,0,0,0-.174-.111h-.079l0-.22h.066a.217.217,0,0,0,.184-.114.5.5,0,0,0,.077-.282.379.379,0,0,0-.085-.256.292.292,0,0,0-.233-.1.27.27,0,0,0-.223.113.294.294,0,0,0-.079.2.947.947,0,0,1,.031.232.933.933,0,0,1-.083.386.619.619,0,0,1-.239.282.6.6,0,0,1-.656,0,.617.617,0,0,1-.239-.282.925.925,0,0,1-.083-.386.942.942,0,0,1,.075-.366.6.6,0,0,1,.221-.278.618.618,0,0,1,.354-.1.539.539,0,0,1,.471.241.524.524,0,0,1,.451-.241.591.591,0,0,1,.409.151.527.527,0,0,1,.169.412.7.7,0,0,1-.062.3.546.546,0,0,1-.165.2.574.574,0,0,1,.217.423.58.58,0,0,1-.209.5A.821.821,0,0,1,285.436,445.28Zm-.785-.84a.35.35,0,0,0,.27-.143.628.628,0,0,0,.12-.415.619.619,0,0,0-.118-.391.34.34,0,0,0-.272-.152.349.349,0,0,0-.273.143.611.611,0,0,0-.118.4.629.629,0,0,0,.12.415A.35.35,0,0,0,284.651,444.439Z" transform="translate(-280.834 -442.989)"/><path class="p" d="M290.287,444.475a1.21,1.21,0,0,1-.071.488.519.519,0,0,1-.226.23.691.691,0,0,1-.337.086.7.7,0,0,1-.34-.086.515.515,0,0,1-.225-.23.755.755,0,0,1-.071-.336.738.738,0,0,1,.124-.343h.256a.837.837,0,0,0-.121.421.329.329,0,0,0,.121.258.386.386,0,0,0,.256.1.409.409,0,0,0,.236-.07.3.3,0,0,0,.13-.172,1.5,1.5,0,0,0,.024-.351v-.823a.269.269,0,0,0-.118-.227.4.4,0,0,0-.238-.087.324.324,0,0,0-.243.1.3.3,0,0,0-.094.216.371.371,0,0,0,.075.239l-.22.115a.669.669,0,0,1-.108-.347.468.468,0,0,1,.175-.366.623.623,0,0,1,.421-.151.6.6,0,0,1,.428.157.486.486,0,0,1,.168.361Z" transform="translate(-283.414 -442.989)"/></g></g><text class="q" transform="translate(26.211 50.856)"><tspan x="-11.97" y="0">სკოლის შემდეგ</tspan></text><text class="r" transform="translate(56.231 43.644)"><tspan x="-4.445" y="0">!</tspan></text></svg>