<svg xmlns="http://www.w3.org/2000/svg" width="374.442" height="336.553" viewBox="0 0 374.442 336.553"><defs><style>.a,.g{fill:#c78516;}.b{fill:none;stroke:#8c1c10;stroke-linecap:round;stroke-miterlimit:10;stroke-width:8.494px;}.c{fill:#8c1c10;}.d,.e{fill:#380b06;}.e{opacity:0.33;}.f{fill:#fefeff;opacity:0.7;}.g{font-size:38px;font-family:BPGArial, BPG Arial;}.h{fill:#a87112;}.i{fill:#e6a73e;}.j{fill:#ffcd9c;}.k{fill:#ffae85;}.l{fill:#f4536a;}.m{fill:#dd3c5b;}.n{fill:#ffedd7;}.o{fill:#edc7b2;}.p{fill:#f7d7ba;}.q{fill:#f9e7d7;}.r{fill:#bc5642;opacity:0.5;mix-blend-mode:multiply;isolation:isolate;}.s{fill:#7c2921;}.t{fill:#8e372b;}.u{fill:#a54838;}.v{fill:#ed7d5f;}.w{fill:#af6345;}.x{fill:#fff9e9;}.y{fill:#5795aa;}.z{fill:#7dc5d8;}.aa{fill:#ef8f6f;}.ab{fill:#42251d;}</style></defs><g transform="translate(-564.822 -416.524)"><rect class="a" width="258.276" height="252.451" transform="translate(575.017 500.627)"/><path class="a" d="M571.044,499.67l135.935-76.706L829.321,499.67Z" transform="translate(3.973 0.957)"/><path class="b" d="M571.044,498.171l135.935-76.706,122.341,76.706" transform="translate(3.973 0)"/><rect class="c" width="86.416" height="112.632" transform="translate(660.948 640.446)"/><rect class="d" width="0.971" height="96.611" transform="translate(702.214 650.155)"/><rect class="e" width="27.915" height="43.208" transform="translate(668.958 652.825)"/><rect class="e" width="27.915" height="43.208" transform="translate(709.01 652.825)"/><rect class="e" width="27.915" height="43.208" transform="translate(668.958 703.558)"/><rect class="e" width="27.915" height="43.208" transform="translate(709.01 703.558)"/><rect class="f" width="188.61" height="47.334" transform="translate(607.787 528.056)"/><text class="g" transform="translate(707.376 561.829)"><tspan x="-66.992" y="0">სკოლა</tspan></text><rect class="h" width="32.77" height="11.652" transform="translate(564.822 604.52)"/><rect class="i" width="32.77" height="11.652" transform="translate(587.397 619.084)"/><rect class="i" width="32.77" height="11.652" transform="translate(587.397 589.47)"/><rect class="h" width="32.77" height="11.652" transform="translate(761.442 704.044)"/><rect class="i" width="32.77" height="11.652" transform="translate(784.017 718.608)"/><rect class="i" width="32.77" height="11.652" transform="translate(784.017 688.994)"/><g transform="translate(843.786 606.636)"><path class="j" d="M736.771,579.767c-.849-.678-1.588-1.645-1.367-2,.185-.3.737.419,1.386.816.575.349.768.475.839.333.046-.1-.623-.68-1.34-1.347-.906-.839-1.386-1.524-1.152-1.863.229-.315.7.361,1.575,1.024.772.588,1.078.891,1.316.565.116-.144-.365-.595-.988-1.424-.711-.932-.963-1.671-.711-1.868.364-.27.439.372,1.371,1.327,1.237,1.281,1.383,1.786,2.4,1.958.949.156-.836-2.718,0-2.715,1.109,0,2.925,5.882,2.178,6.846C741.194,582.808,739.486,581.931,736.771,579.767Z" transform="translate(-735.078 -509.278)"/><path class="j" d="M790.684,594.427c.927.57,1.781,1.439,1.606,1.815-.146.32-.785-.328-1.476-.641-.615-.277-.823-.378-.875-.228a7.609,7.609,0,0,0,1.5,1.172c1,.721,1.566,1.342,1.375,1.709-.187.339-.736-.274-1.689-.824-.839-.49-1.183-.754-1.378-.4-.1.157.439.547,1.16,1.293.823.839,1.167,1.542.94,1.768-.326.311-.483-.316-1.527-1.15-1.389-1.122-1.6-1.6-2.625-1.652-.96-.038,1.17,2.6.341,2.7-1.1.134-3.639-5.481-3.02-6.528C785.914,591.951,787.718,592.61,790.684,594.427Z" transform="translate(-703.255 -497.353)"/><path class="j" d="M765.032,579.283l-2.5-8.969-5.97,1.3,1.444,9.239Z" transform="translate(-721.36 -511.597)"/><path class="j" d="M761.739,588.483c-2.849,1.617-5.574,4.53-8.994,3.682s-15.115-13.976-15.115-13.976l1.365-.67s13.378,11.08,14.625,11.007,5.256-2.836,5.256-2.836Z" transform="translate(-733.449 -506.997)"/><path class="k" d="M747.005,584.838a2.862,2.862,0,0,0,1.068.5c1.245-.072,5.256-2.836,5.256-2.836l2.862,2.794c-2.849,1.617-5.574,4.53-8.994,3.682a3.835,3.835,0,0,1-.881-.382A4.976,4.976,0,0,0,747.005,584.838Z" transform="translate(-727.902 -503.813)"/><path class="l" d="M749.284,585.659l4.65,8.825s14.356-12.325,14.4-14.807-5.13-3.878-6.467-3.528S749.284,585.659,749.284,585.659Z" transform="translate(-726.007 -507.905)"/><path class="m" d="M763.753,576.34c1.806.554,3.729,1.661,3.7,3.18-.044,2.482-14.4,14.807-14.4,14.807l-2.391-4.537C754.038,586.828,763.057,578.749,763.753,576.34Z" transform="translate(-725.127 -507.749)"/><path class="j" d="M746.992,636.1l-1.565-.657s9.417-22.587,11.5-24.694c4.358-4.4,13.994-11.373,13.994-11.373l3.587,5.322s-13.767,8.376-15.135,9.733C757.614,616.181,746.992,636.1,746.992,636.1Z" transform="translate(-728.47 -493.039)"/><path class="k" d="M750.214,617.555c1.6-3.41,3-6.138,3.66-6.8,4.358-4.4,13.994-11.373,13.994-11.373l3.587,5.322s-13.767,8.376-15.135,9.733c-.741.732-3.044,4.675-5.466,9A44.625,44.625,0,0,0,750.214,617.555Z" transform="translate(-725.414 -493.039)"/><path class="k" d="M803.743,613.985l-.557,1.586s-19.39,5.268-21.976,3.793c-5.684-3.239-14.443-14.3-14.443-14.3l5.132-3.9s8.83,14.068,10.609,14.61C784.9,616.493,803.743,613.985,803.743,613.985Z" transform="translate(-714.845 -491.904)"/><path class="n" d="M774.635,622.772s-15.094-17.964-15.313-20.811,3.886-9.552,3.886-9.552l16.429,4.452,7.6,17.381S780.736,623.355,774.635,622.772Z" transform="translate(-719.604 -497.489)"/><path class="o" d="M763.208,592.409l16.429,4.452,7.6,17.381a29.857,29.857,0,0,1-7.051,6.859c-3.742-4.773-7.244-9.539-11.523-8.7a2.549,2.549,0,0,0-1.644.973c-3.786-4.83-7.585-10-7.694-11.417C759.1,599.114,763.208,592.409,763.208,592.409Z" transform="translate(-719.604 -497.489)"/><path class="n" d="M761.152,620.565s21.176-10.708,22.5-13.247.927-12.661.927-12.661l-17.93.077-13.931,13.077S755.216,618.733,761.152,620.565Z" transform="translate(-723.815 -496.054)"/><path class="p" d="M774.579,604.444c1.493-4.858-6.254-7.195-12.415-7.437l2.42-2.273,17.93-.077s.393,10.119-.927,12.661-22.5,13.247-22.5,13.247a7.666,7.666,0,0,1-3.139-2.019C761.068,615.805,773.211,608.9,774.579,604.444Z" transform="translate(-721.752 -496.054)"/><path class="l" d="M786.335,608.528s-22.67,1.67-24.156.2-9.515-22.7-6.162-30.771c1.026-2.466,12.7-2.951,13.388-2.379S785.172,606.026,786.335,608.528Z" transform="translate(-722.227 -508.373)"/><path class="n" d="M766.972,575.379s-3.221,8.073-7.748,7.042a3.736,3.736,0,0,1-2.959-5.153,24.443,24.443,0,0,1,5.137-1.889A25.436,25.436,0,0,1,766.972,575.379Z" transform="translate(-721.718 -508.469)"/><g transform="translate(32.666 69.284)"><path class="m" d="M768.747,597.777a118.082,118.082,0,0,0-3.924-21.014c3.729,6.908,14.738,28.747,15.726,30.871,0,0-9.218.678-16.283.79C767.417,604.716,768.893,600.38,768.747,597.777Z" transform="translate(-749.107 -576.763)"/><path class="m" d="M757.2,592.769c-1.617-4.945-2.735-10.311-1.9-13.847C755.957,582.466,756.8,588.343,757.2,592.769Z" transform="translate(-755.014 -575.384)"/></g><path class="j" d="M773.536,579.744c4.245,1.776,11.469,4.095,12.762,5.99s10.609,16.19,10.609,16.19l-1.276.592s-9.977-13.224-12.818-14.5-13.291-5.268-13.291-5.268Z" transform="translate(-713.086 -505.576)"/><path class="k" d="M782.2,587.751c-3.485-1.489-12.679-5-12.679-5l4.014-3.007c3.182,1.33,8.035,2.967,10.812,4.5A6.466,6.466,0,0,0,782.2,587.751Z" transform="translate(-713.086 -505.576)"/><path class="l" d="M779.276,592.533l3.562-10.291s-16.7-7.77-19.006-6.767-2.078,6.31-1.193,7.36S779.276,592.533,779.276,592.533Z" transform="translate(-717.881 -508.359)"/><path class="m" d="M774.755,586.249l4.442-7.214c.387.169,2.028.877,2.028.877l-3.51,10.976s-9.12-5.507-13.18-8.071A55.114,55.114,0,0,0,774.755,586.249Z" transform="translate(-716.269 -506.028)"/><path class="q" d="M749.362,624.9l-7.943-3.664s7.839-1.525,8.974-.2S749.362,624.9,749.362,624.9Z" transform="translate(-731.029 -479.556)"/><path class="q" d="M791.252,607.669l5.224,6.946s-7.632-2.332-7.993-4.027S791.252,607.669,791.252,607.669Z" transform="translate(-700.997 -487.746)"/><path class="n" d="M771.517,590.539l4.353-11.766,1.741,1.2-3.57,11.765Z" transform="translate(-711.812 -506.195)"/><g transform="translate(59.705 72.577)"><path class="p" d="M774.354,581.619c-.259-.08-.518-.147-.775-.21l.975-2.636,1.742,1.2-.646,2.127A11.848,11.848,0,0,0,774.354,581.619Z" transform="translate(-770.201 -578.773)"/><path class="p" d="M773.388,585.05a11.471,11.471,0,0,0,1.44.346l-.786,2.59-2.525-1.2.788-2.13A11.275,11.275,0,0,0,773.388,585.05Z" transform="translate(-771.517 -575.018)"/></g><path class="m" d="M755.59,588.193l-5.137-6.956-1.169,1.139,4.565,7.964Z" transform="translate(-726.007 -504.623)"/><path class="n" d="M754.462,592.493l-6.538-10.736,2.042-.58L757,591.312Z" transform="translate(-726.876 -504.661)"/><g transform="translate(21.048 76.516)"><path class="p" d="M750.041,583.7c-.228.149-.442.306-.652.464l-1.465-2.405,2.042-.58,1.271,1.834A11.667,11.667,0,0,0,750.041,583.7Z" transform="translate(-747.924 -581.177)"/><path class="p" d="M752.185,586.888a11.854,11.854,0,0,0,1.178-.886l1.548,2.23-2.536,1.18-1.183-1.942C751.525,587.295,751.857,587.1,752.185,586.888Z" transform="translate(-745.837 -578.096)"/></g><path class="j" d="M764.62,575.754s-3.592,5.763-6.218,5.23-.731-4.534-.731-4.534l.039-1.255,3.66-.388,2.55-.069Z" transform="translate(-721.075 -508.772)"/><path class="p" d="M765.605,582.809l.61,3.249-1.742,2.333-2-2.083-.784-3.416Z" transform="translate(-718.088 -503.619)"/><path class="r" d="M760.794,590.7c-5.16-1.309-6.436-4.889-6.57-7.758.9-.682,1.74-1.314,2.456-1.828a1.912,1.912,0,0,1,.714-.706l0-.013.054-.026a6.106,6.106,0,0,1,1.039-.483c.241-.107.511-.223.8-.342l-1.239-7.925,5.971-1.3,2.246,8.06c1.049.049,1.835.133,1.835.133l-.034.082c.449,0,.839.02,1.152.046a10.819,10.819,0,0,1,3.136.6C770.034,584.007,767.04,592.286,760.794,590.7Z" transform="translate(-722.853 -511.597)"/><path class="s" d="M767,542.77c3.208-7.593,22.3-11.646,33.376-.044s1.729,37.474,1.729,37.474-5.627-10.118-11.768-12.133S764.037,549.786,767,542.77Z" transform="translate(-714.883 -533.845)"/><path class="t" d="M767.638,541.429c0-2.987,6.159-5.545,13.757-5.71s13.755,2.122,13.755,5.11-6.159,5.543-13.755,5.71S767.638,544.418,767.638,541.429Z" transform="translate(-714.289 -533.691)"/><path class="u" d="M796.562,547.486c11.622,38.267-22.4,52.114-29.032,52.558L738.6,560.9c-8.4-11.571,13.475-24.577,20.64-25.964C775.009,531.889,795.772,544.887,796.562,547.486Z" transform="translate(-734.033 -534.478)"/><path class="t" d="M752.5,555.522c16.708-1.979,29.483-9.921,28.531-17.738a6.74,6.74,0,0,0-.259-1.17c8.591,3.333,15.3,8.053,15.748,9.508,11.622,38.267-22.4,52.114-29.032,52.558l-28.924-39.142a9.556,9.556,0,0,1-1.784-4.175A58.618,58.618,0,0,0,752.5,555.522Z" transform="translate(-733.992 -533.114)"/><path class="j" d="M752.717,540.419c10.965-1.384,22.2,4.832,31.628,23.588,10.649,21.191-3.887,30.35-15.751,32.731-17.222,3.456-27-4.811-31.212-23.843C734.905,561.7,739.744,542.054,752.717,540.419Z" transform="translate(-734.006 -530.803)"/><path class="j" d="M752.877,540.419c10.963-1.384,22.2,4.832,31.626,23.588,10.65,21.191-3.886,30.35-15.749,32.731-17.222,3.456-27-4.811-31.212-23.843C735.065,561.7,739.9,542.054,752.877,540.419Z" transform="translate(-733.904 -530.803)"/><path class="t" d="M777.768,592.858c2.207-11.034-5.522-25.484-10.539-28.151S737,549.759,746.211,541.1s28.4-6.633,36.883,3.908C805,572.249,777.768,592.858,777.768,592.858Z" transform="translate(-729.251 -533.706)"/><path class="u" d="M743.2,544.053c0-4.411,13.3-8.684,22.336-8.684s12.313,3.329,12.313,7.739-5.933,13.827-14.974,13.827S743.2,548.464,743.2,544.053Z" transform="translate(-729.894 -533.909)"/><path class="t" d="M762.161,574.944c-1.012-3.642-1.815-8.32-.937-10.516s-1.039-9.942-1.519-10.619,10.406,8.247,8.319,13.445A17.606,17.606,0,0,1,762.161,574.944Z" transform="translate(-719.364 -522.158)"/><path class="j" d="M763.356,565.192c1.789-2.772,6.934-4.352,8.709.364s-4.208,11.682-7.843,10.133S761.354,568.288,763.356,565.192Z" transform="translate(-718.096 -516.555)"/><path class="v" d="M763.567,566.241c1.109-1.72,4.3-2.7,5.407.226s-2.615,7.252-4.871,6.292S762.323,568.163,763.567,566.241Z" transform="translate(-717.555 -515.246)"/><path class="j" d="M762.967,567.513a2.259,2.259,0,0,1,3.685.808c.724,1.86-1.848,3.944-3.379,3.1S762.1,568.488,762.967,567.513Z" transform="translate(-717.746 -513.792)"/><g transform="translate(3.805 26.515)"><path class="w" d="M749.54,562.449c-.457-4.478,1.5-8.1,4.354-8.1s5.543,3.626,5.994,8.1-1.8,5.056-4.66,5.061S749.99,566.917,749.54,562.449Z" transform="translate(-729.691 -548.307)"/><path class="w" d="M739.369,564.082c-.947-4.344.4-8.14,3.013-8.482s5.512,2.913,6.461,7.255-1.045,5.191-3.664,5.53S740.319,568.422,739.369,564.082Z" transform="translate(-736.336 -547.522)"/><path class="x" d="M749.648,562.438c-.393-3.9,1.55-7.057,4.337-7.06s5.371,3.161,5.767,7.055-1.82,4.409-4.6,4.414S750.043,566.325,749.648,562.438Z" transform="translate(-729.612 -547.648)"/><path class="x" d="M739.307,564.1c-.826-3.788.695-7.136,3.387-7.486s5.564,2.433,6.393,6.221-1.257,4.563-3.957,4.917S740.132,567.882,739.307,564.1Z" transform="translate(-736.326 -546.88)"/><path class="y" d="M749.968,561.68c-.437-1.732.179-3.334,1.368-3.58s2.512.957,2.94,2.687-.175,3.333-1.367,3.582S750.4,563.407,749.968,561.68Z" transform="translate(-729.465 -545.931)"/><path class="y" d="M739.7,563.1c-.372-1.7.3-3.2,1.5-3.352s2.474,1.093,2.846,2.79-.3,3.2-1.507,3.351S740.078,564.8,739.7,563.1Z" transform="translate(-735.994 -544.865)"/><path class="z" d="M740.436,562.262c-.161-.732.129-1.386.649-1.447s1.063.47,1.224,1.2-.128,1.38-.646,1.445S740.6,562.99,740.436,562.262Z" transform="translate(-735.49 -544.18)"/><path class="z" d="M750.818,561.651c-.188-.747.077-1.444.593-1.547s1.075.416,1.267,1.16-.08,1.437-.592,1.545S751.006,562.393,750.818,561.651Z" transform="translate(-728.872 -544.639)"/><g transform="translate(0 3.026)"><path class="u" d="M738.291,556.81c2.7-2.754,6.5-2.556,7.283-2.109l.631-1.778c-1.422-.8-5.812-.673-8.805,2.381Z" transform="translate(-737.4 -552.507)"/></g><g transform="translate(18.143)"><path class="u" d="M749.273,554c3.542-2.217,7.916-.986,8.758-.3l1.006-1.739c-1.524-1.222-6.633-2.273-10.563.2Z" transform="translate(-748.473 -550.66)"/></g><path class="aa" d="M750.972,564.985a1.122,1.122,0,0,1-.1.167c-.6.755-2.1.888-3.346.29a2.89,2.89,0,0,1-1.111-.9c-.42.744.095,1.734,1.252,2.289,1.242.6,2.741.467,3.344-.29A1.248,1.248,0,0,0,750.972,564.985Z" transform="translate(-731.735 -541.799)"/><path class="ab" d="M758.693,567.437c-.1,2.114-.778,6.433-3.126,7.136s-7.948-1.394-9.027-3.711l.071-.02C752.824,569.438,755.49,568.135,758.693,567.437Z" transform="translate(-731.564 -539.948)"/><path class="x" d="M757.077,567.718c-.077,1.586-.585,4.829-2.348,5.356s-5.971-1.05-6.78-2.79l.054-.013C752.668,569.216,754.67,568.241,757.077,567.718Z" transform="translate(-730.665 -539.769)"/><path class="j" d="M749.58,565.565c-.415-1.381,2.272-3.349,6-4.4s7.09-.783,7.5.6-2.271,3.351-6,4.4S750,566.946,749.58,565.565Z" transform="translate(-729.65 -544.363)"/><path class="j" d="M739.8,566.453c-.377-1.391,1.794-3.144,4.843-3.916s5.83-.272,6.207,1.119-1.792,3.146-4.845,3.918S740.171,567.844,739.8,566.453Z" transform="translate(-735.898 -543.309)"/></g></g></g></svg>