<svg xmlns="http://www.w3.org/2000/svg" width="197.442" height="51.219" viewBox="0 0 197.442 51.219"><defs><style>.a{fill:#51ad37;}.b{fill:#479e2e;}.c{fill:#408f2a;}.d{fill:#d3e6a4;}.e{fill:#e68740;}.f{fill:#c47337;}.g{fill:#4982de;}.h{fill:#4071c2;}.i{fill:#d42d2d;}.j{fill:#b82727;}</style></defs><g transform="translate(0)"><path class="a" d="M244.627,627.79H224.98a6.309,6.309,0,0,1-6.3-5.417l-5.269-43.651h42.508l-5.241,43.959A6.006,6.006,0,0,1,244.627,627.79Z" transform="translate(-211.271 -576.571)"/><path class="b" d="M259.5,580.948H212.3l-.137-3.473H259.5Z" transform="translate(-212.168 -577.475)"/><path class="c" d="M235.317,582.988l.019-.209a2.277,2.277,0,0,1,.234-.988c.405-.683,1.593-.476,2.067.055.4.452.3,1.126.3,1.677.005.965-3.553,36.711-3.553,36.711a1.042,1.042,0,0,1-.829.9c-.731.1-1.534.067-1.438-.738.15-1.274.229-2.562.34-3.845q.375-4.314.748-8.67.453-5.249.907-10.561C234.488,592.581,234.91,587.805,235.317,582.988Z" transform="translate(-197.73 -574.663)"/><path class="c" d="M218.569,582.816l-.021-.208a2.367,2.367,0,0,0-.253-.993c-.417-.693-1.6-.512-2.067.007-.4.443-.278,1.12-.271,1.672.012.965,4.2,36.806,4.2,36.806a1.1,1.1,0,0,0,.845.921c.734.116,1.536.1,1.427-.708-.174-1.276-.276-2.567-.41-3.853q-.45-4.324-.9-8.689-.543-5.262-1.093-10.586C219.567,592.431,219.062,587.644,218.569,582.816Z" transform="translate(-209.441 -574.806)"/><g transform="translate(16.314 18.334)"><path class="d" d="M221.635,595.017a6.845,6.845,0,0,1,6.744-6.9,6.675,6.675,0,0,1,7.086,6.331,6.849,6.849,0,0,1-6.677,6.848A6.681,6.681,0,0,1,221.635,595.017Z" transform="translate(-221.631 -588.109)"/><path class="a" d="M227,600.764a10.72,10.72,0,0,1-1.067-.419q-.243-.109-.481-.227a7.234,7.234,0,0,1-1.515-1.009,5.505,5.505,0,0,1-1.159-1.429l-.052-.093a3.571,3.571,0,0,1-.084-3.1,8.42,8.42,0,0,1,2.989-3.82,3.918,3.918,0,0,1,2.262-.8c.264,0,.345-.119.341-.345,0-.243.005-.484.012-.727.012-.312.081-.355.372-.21a13.617,13.617,0,0,1,2.748,1.879,4.909,4.909,0,0,1,.953,1.04.743.743,0,0,1,.007.865,6.679,6.679,0,0,1-1.974,1.864c-.564.39-1.145.755-1.727,1.12-.3.186-.333.166-.346-.162-.022-.543-.034-1.09-.053-1.695a9.634,9.634,0,0,0-1.359.774,12.128,12.128,0,0,0-2.645,2.062c-.571.641-.555,1.057.064,1.634a13.473,13.473,0,0,0,3.133,1.988c.364.186.731.36,1.095.54a10.775,10.775,0,0,0-.043-1.128c-.045-.326.033-.491.4-.562a9.026,9.026,0,0,0,2.246-.779,5.406,5.406,0,0,0,3-3.157,5.769,5.769,0,0,0,.159-3.029c-.09-.438-.372-1.281-.348-1.324a7.5,7.5,0,0,1,1.045,4.591,6.505,6.505,0,0,1-2.579,4.437,8.365,8.365,0,0,1-2.357,1.609.687.687,0,0,1-.205.007c-.159,0-.315-.005-.474-.014-.4-.021-.805-.048-1.2-.105A6.788,6.788,0,0,1,227,600.764Z" transform="translate(-221.122 -587.822)"/></g></g><g transform="translate(50.038)"><path class="e" d="M273.651,627.79H254a6.309,6.309,0,0,1-6.3-5.417l-5.269-43.651h42.508L279.7,622.682A6.006,6.006,0,0,1,273.651,627.79Z" transform="translate(-240.295 -576.571)"/><path class="f" d="M288.52,580.948H241.329l-.137-3.473H288.52Z" transform="translate(-241.192 -577.475)"/><path class="f" d="M264.341,582.988l.019-.209a2.276,2.276,0,0,1,.234-.988c.405-.683,1.593-.476,2.067.055.4.452.3,1.126.3,1.677.007.965-3.551,36.711-3.551,36.711a1.042,1.042,0,0,1-.829.9c-.731.1-1.534.067-1.438-.738.15-1.274.229-2.562.34-3.845q.375-4.314.748-8.67.452-5.249.907-10.561C263.512,592.581,263.934,587.805,264.341,582.988Z" transform="translate(-226.754 -574.663)"/><path class="f" d="M247.593,582.816l-.021-.208a2.368,2.368,0,0,0-.253-.993c-.417-.693-1.6-.512-2.067.007-.4.443-.278,1.12-.271,1.672.012.965,4.2,36.806,4.2,36.806a1.1,1.1,0,0,0,.845.921c.734.116,1.536.1,1.426-.708-.172-1.276-.274-2.567-.409-3.853q-.45-4.324-.9-8.689-.543-5.262-1.093-10.586C248.591,592.431,248.086,587.644,247.593,582.816Z" transform="translate(-238.465 -574.806)"/><g transform="translate(16.314 18.334)"><path class="d" d="M250.659,595.017a6.845,6.845,0,0,1,6.744-6.9,6.676,6.676,0,0,1,7.086,6.331,6.849,6.849,0,0,1-6.677,6.848A6.681,6.681,0,0,1,250.659,595.017Z" transform="translate(-250.655 -588.109)"/><path class="e" d="M256.027,600.764a10.724,10.724,0,0,1-1.067-.419q-.243-.109-.481-.227a7.234,7.234,0,0,1-1.515-1.009,5.506,5.506,0,0,1-1.159-1.429l-.052-.093a3.571,3.571,0,0,1-.084-3.1,8.42,8.42,0,0,1,2.989-3.82,3.918,3.918,0,0,1,2.262-.8c.264,0,.345-.119.341-.345,0-.243,0-.484.012-.727.01-.312.081-.355.372-.21a13.618,13.618,0,0,1,2.748,1.879,4.91,4.91,0,0,1,.953,1.04.743.743,0,0,1,.007.865,6.679,6.679,0,0,1-1.974,1.864c-.564.39-1.145.755-1.727,1.12-.3.186-.333.166-.346-.162-.022-.543-.034-1.09-.053-1.695a9.633,9.633,0,0,0-1.359.774,12.087,12.087,0,0,0-2.645,2.062c-.571.641-.555,1.057.064,1.634a13.473,13.473,0,0,0,3.133,1.988c.364.186.731.36,1.095.54a10.792,10.792,0,0,0-.043-1.128c-.045-.326.033-.491.4-.562a9.028,9.028,0,0,0,2.246-.779,5.405,5.405,0,0,0,3-3.157,5.767,5.767,0,0,0,.159-3.029c-.09-.438-.372-1.281-.348-1.324A7.5,7.5,0,0,1,264,595.107a6.505,6.505,0,0,1-2.579,4.437,8.366,8.366,0,0,1-2.357,1.609.687.687,0,0,1-.205.007c-.159,0-.316-.005-.474-.014-.4-.021-.805-.048-1.2-.105A6.788,6.788,0,0,1,256.027,600.764Z" transform="translate(-250.146 -587.822)"/></g></g><g transform="translate(100.076)"><path class="g" d="M302.675,627.79H283.028a6.309,6.309,0,0,1-6.3-5.417l-5.269-43.651h42.508l-5.241,43.959A6.006,6.006,0,0,1,302.675,627.79Z" transform="translate(-269.319 -576.571)"/><path class="h" d="M317.544,580.948H270.353l-.137-3.473h47.328Z" transform="translate(-270.216 -577.475)"/><path class="h" d="M293.365,582.988l.019-.209a2.275,2.275,0,0,1,.234-.988c.405-.683,1.593-.476,2.067.055.4.452.3,1.126.3,1.677.007.965-3.552,36.711-3.552,36.711a1.042,1.042,0,0,1-.829.9c-.731.1-1.534.067-1.438-.738.15-1.274.229-2.562.34-3.845q.375-4.314.748-8.67.452-5.249.907-10.561C292.536,592.581,292.958,587.805,293.365,582.988Z" transform="translate(-255.778 -574.663)"/><path class="h" d="M276.617,582.816l-.022-.208a2.34,2.34,0,0,0-.252-.993c-.417-.693-1.6-.512-2.067.007-.4.443-.278,1.12-.271,1.672.012.965,4.2,36.806,4.2,36.806a1.1,1.1,0,0,0,.845.921c.734.116,1.536.1,1.426-.708-.172-1.276-.274-2.567-.409-3.853q-.45-4.324-.9-8.689-.543-5.262-1.093-10.586C277.615,592.431,277.11,587.644,276.617,582.816Z" transform="translate(-267.489 -574.806)"/><g transform="translate(16.314 18.334)"><path class="d" d="M279.683,595.017a6.845,6.845,0,0,1,6.744-6.9,6.675,6.675,0,0,1,7.086,6.331,6.849,6.849,0,0,1-6.677,6.848A6.681,6.681,0,0,1,279.683,595.017Z" transform="translate(-279.679 -588.109)"/><path class="g" d="M285.051,600.764a10.723,10.723,0,0,1-1.067-.419q-.243-.109-.481-.227a7.234,7.234,0,0,1-1.515-1.009,5.473,5.473,0,0,1-1.159-1.429l-.052-.093a3.571,3.571,0,0,1-.084-3.1,8.42,8.42,0,0,1,2.989-3.82,3.918,3.918,0,0,1,2.262-.8c.264,0,.345-.119.341-.345,0-.243,0-.484.012-.727.01-.312.081-.355.372-.21a13.614,13.614,0,0,1,2.748,1.879,4.909,4.909,0,0,1,.953,1.04.743.743,0,0,1,.007.865,6.68,6.68,0,0,1-1.974,1.864c-.564.39-1.145.755-1.728,1.12-.3.186-.333.166-.347-.162-.022-.543-.034-1.09-.053-1.695a9.631,9.631,0,0,0-1.359.774,12.045,12.045,0,0,0-2.645,2.062c-.571.641-.555,1.057.064,1.634a13.437,13.437,0,0,0,3.133,1.988c.364.186.731.36,1.095.54a10.742,10.742,0,0,0-.043-1.128c-.045-.326.033-.491.4-.562a9.028,9.028,0,0,0,2.246-.779,5.406,5.406,0,0,0,3-3.157,5.769,5.769,0,0,0,.159-3.029c-.09-.438-.372-1.281-.348-1.324a7.5,7.5,0,0,1,1.045,4.591,6.505,6.505,0,0,1-2.579,4.437,8.365,8.365,0,0,1-2.357,1.609.688.688,0,0,1-.205.007c-.159,0-.315-.005-.474-.014-.4-.021-.805-.048-1.2-.105A6.79,6.79,0,0,1,285.051,600.764Z" transform="translate(-279.17 -587.822)"/></g></g><g transform="translate(150.114)"><path class="i" d="M331.7,627.79H312.052a6.309,6.309,0,0,1-6.3-5.417l-5.269-43.651h42.508l-5.241,43.959A6.006,6.006,0,0,1,331.7,627.79Z" transform="translate(-298.343 -576.571)"/><path class="j" d="M346.568,580.948H299.377l-.137-3.473h47.328Z" transform="translate(-299.24 -577.475)"/><path class="j" d="M322.389,582.988l.019-.209a2.276,2.276,0,0,1,.234-.988c.405-.683,1.593-.476,2.067.055.4.452.3,1.126.3,1.677.007.965-3.552,36.711-3.552,36.711a1.042,1.042,0,0,1-.829.9c-.731.1-1.534.067-1.438-.738.15-1.274.229-2.562.34-3.845q.375-4.314.748-8.67.453-5.249.907-10.561C321.56,592.581,321.982,587.805,322.389,582.988Z" transform="translate(-284.802 -574.663)"/><path class="j" d="M305.641,582.816l-.022-.208a2.341,2.341,0,0,0-.252-.993c-.417-.693-1.6-.512-2.067.007-.4.443-.278,1.12-.271,1.672.012.965,4.2,36.806,4.2,36.806a1.1,1.1,0,0,0,.846.921c.734.116,1.536.1,1.426-.708-.172-1.276-.274-2.567-.409-3.853q-.45-4.324-.9-8.689-.543-5.262-1.093-10.586C306.639,592.431,306.134,587.644,305.641,582.816Z" transform="translate(-296.513 -574.806)"/><g transform="translate(16.314 18.334)"><path class="d" d="M308.707,595.017a6.845,6.845,0,0,1,6.744-6.9,6.675,6.675,0,0,1,7.086,6.331,6.849,6.849,0,0,1-6.677,6.848A6.681,6.681,0,0,1,308.707,595.017Z" transform="translate(-308.703 -588.109)"/><path class="i" d="M314.075,600.764a10.73,10.73,0,0,1-1.067-.419q-.243-.109-.481-.227a7.234,7.234,0,0,1-1.515-1.009,5.47,5.47,0,0,1-1.159-1.429l-.052-.093a3.57,3.57,0,0,1-.085-3.1,8.419,8.419,0,0,1,2.99-3.82,3.917,3.917,0,0,1,2.262-.8c.264,0,.343-.119.341-.345,0-.243,0-.484.012-.727.01-.312.081-.355.372-.21a13.62,13.62,0,0,1,2.748,1.879,4.911,4.911,0,0,1,.953,1.04.743.743,0,0,1,.007.865,6.68,6.68,0,0,1-1.974,1.864c-.564.39-1.145.755-1.727,1.12-.3.186-.333.166-.347-.162-.022-.543-.034-1.09-.053-1.695a9.635,9.635,0,0,0-1.359.774,12.046,12.046,0,0,0-2.645,2.062c-.571.641-.555,1.057.064,1.634a13.441,13.441,0,0,0,3.133,1.988c.362.186.731.36,1.095.54a10.776,10.776,0,0,0-.043-1.128c-.045-.326.033-.491.4-.562a9.027,9.027,0,0,0,2.246-.779,5.406,5.406,0,0,0,3-3.157,5.768,5.768,0,0,0,.159-3.029c-.09-.438-.372-1.281-.348-1.324a7.5,7.5,0,0,1,1.045,4.591,6.506,6.506,0,0,1-2.579,4.437,8.366,8.366,0,0,1-2.357,1.609.687.687,0,0,1-.205.007c-.159,0-.315-.005-.474-.014-.4-.021-.805-.048-1.2-.105A6.788,6.788,0,0,1,314.075,600.764Z" transform="translate(-308.194 -587.822)"/></g></g></svg>