<svg xmlns="http://www.w3.org/2000/svg" xmlns:xlink="http://www.w3.org/1999/xlink" width="626" height="360" viewBox="0 0 626 360"><defs><style>.a{fill:#fff;stroke:#707070;}.b,.o{fill:none;}.c{clip-path:url(#a);}.d{fill:#bcd3d7;opacity:0.49;}.e{clip-path:url(#b);}.f{fill:#c2934e;}.g,.n{fill:#caa267;}.h{fill:#8a7cc7;}.i{fill:#f1c759;}.j{opacity:0.15;}.k{opacity:0.3;}.l{opacity:0.5;}.m{fill:#eec459;}.n{fill-rule:evenodd;}.o{stroke:#8a7cc7;stroke-miterlimit:10;stroke-width:1.093px;}.p{fill:#9180d2;}</style><clipPath id="a"><rect class="a" width="626" height="360" transform="translate(377 408)"/></clipPath><clipPath id="b"><path class="b" d="M890.94,495.553c76.328-61.16,114.492-91.738,150.321-101.687,119.708-33.241,289.773,35.171,327.169,159.164,1.947,6.452,27.594,96.044-22.106,154.742-41.611,49.144-93.959,26.932-247.588,53.055C934.26,788.792,894.614,831.2,837.885,798.477c-53.709-30.979-82.829-106.282-70.74-165.866C776.138,588.3,814.527,556.78,890.94,495.553Z" transform="translate(-764.43 -385.5)"/></clipPath></defs><g class="c" transform="translate(-377 -408)"><g transform="translate(-387.43 22.5)"><path class="d" d="M890.94,495.553c76.328-61.16,114.492-91.738,150.321-101.687,119.708-33.241,289.773,35.171,327.169,159.164,1.947,6.452,27.594,96.044-22.106,154.742-41.611,49.144-93.959,26.932-247.588,53.055C934.26,788.792,894.614,831.2,837.885,798.477c-53.709-30.979-82.829-106.282-70.74-165.866C776.138,588.3,814.527,556.78,890.94,495.553Z" transform="translate(0 0)"/><g transform="translate(764.43 385.5)"><g class="e"><g transform="translate(138.716 51.846)"><path class="f" d="M1009.521,470.29s-1.578,17.615,9.287,27.358-25.042,0-25.042,0,6.682-16.872,5.183-27.358S1009.521,470.29,1009.521,470.29Z" transform="translate(-822.033 -409.005)"/><ellipse class="g" cx="18.997" cy="25.919" rx="18.997" ry="25.919" transform="translate(162.76 16.277)"/><path class="h" d="M1170.434,634.635c-.4,6.362-6.984,35.193-15.209,60.82-6.739,21.039-14.6,39.927-21.067,42.538-14.342,5.772-122.636,13.694-144.9,3.074-.52-.39-1.082-.808-1.616-1.27-8.355-6.8-17.416-20.216-22.221-32.785,0-.014-12.8-36.088-15.412-43.433-.028-.072-.043-.13-.072-.187-.087-.288-.187-.563-.288-.823-.028-.1-.073-.187-.1-.288-13.477,46.016-118.813,42.668-57.718-85.135,28.759-60.156,80.084-87.6,112.854-94.888,14.184-3.16,24.89-2.54,28.8.837a21.244,21.244,0,0,0,13.261,5.152,28.825,28.825,0,0,0,7.447-.678,37.032,37.032,0,0,0,7.892-2.684c1.213-.563,1.92-.967,1.92-.967a76.989,76.989,0,0,1,20.058,1.2C1158.2,499.632,1171.1,623.942,1170.434,634.635Z" transform="translate(-864.775 -403.853)"/><path class="i" d="M1111.317,847.8h-74.653c.1-4.571.213-9.189.336-13.828.156-6.35.334-12.744.513-19.071.191-6.707.38-13.359.559-19.842.18-6.216.347-12.275.5-18.088.425-16.422.715-30.921.659-41.451-.045-9.971-.4-16.377-1.263-17.473-.324-.413-.659-.334-1.017.225-1.129,1.765-2.4,8.328-3.8,18.322-.749,5.309-1.52,11.592-2.326,18.635-.793,6.886-1.609,14.521-2.458,22.682-.593,5.723-1.2,11.715-1.823,17.908-.7,7.1-1.431,14.444-2.169,21.956-.547,5.5-1.1,11.089-1.654,16.734q-.654,6.607-1.308,13.292H938.189c.023-.2.045-.413.078-.615.727-5.175,1.476-10.62,2.247-16.264.916-6.708,1.856-13.7,2.806-20.839.883-6.674,1.788-13.492,2.683-20.334,1.833-13.962,3.655-28.081,5.365-41.485,1.643-12.822,3.176-25,4.539-35.739,3.153-25.085,5.3-42.446,5.3-42.446a8.653,8.653,0,0,0,.681.615.231.231,0,0,0,.057.045,9.827,9.827,0,0,0,2.358,1.409,14.778,14.778,0,0,0,3.555,1l7.558.134c5.589.1,13.012.2,21.53.29,6.372.068,13.358.123,20.625.146,1.9.011,3.812.022,5.734.011h.091c4.661.011,9.389.011,14.13-.011,7.445-.034,14.9-.112,22.056-.246,6.674-.123,13.1-.291,19-.525,2.56-.112,5.019-.223,7.367-.347.022.011.045,0,.068,0l.581-.034c.592-.034.917-.055.917-.055,1.2-.068,2.347-.146,3.476-.223s2.215-.146,3.265-.235h.011c.872-.066,1.71-.134,2.526-.213.537-.045,1.073-.1,1.588-.156.257-.023.514-.045.76-.078s.5-.056.75-.079.491-.055.727-.079.468-.055.7-.089c.334-.034.659-.079.983-.123,1.252-.167,2.381-.334,3.388-.513a23.722,23.722,0,0,0,3.846-.973c.1-.034.2-.078.3-.123a4.511,4.511,0,0,0,.525-.234c.078-.045.156-.089.223-.123s.134-.089.189-.134a1.38,1.38,0,0,0,.3-.257,1.329,1.329,0,0,1-.011.145c0,.089-.011.236-.022.425-.012.246-.023.57-.045.973-.012.268-.023.57-.046.893-.034.615-.066,1.342-.1,2.169-.011.213-.023.425-.034.648a.565.565,0,0,0-.011.134c-.011.314-.034.638-.045.973s-.045.693-.056,1.05c-.034.659-.068,1.352-.112,2.079-.011.3-.023.615-.045.929-.021.447-.045.9-.066,1.374-.023.314-.034.638-.045.973-.068,1.24-.135,2.549-.214,3.935-.032.693-.066,1.408-.111,2.135s-.066,1.476-.112,2.247c-.056,1.061-.111,2.158-.166,3.275-.089,1.711-.18,3.5-.28,5.344-.045.927-.1,1.867-.145,2.828-.112,2.192-.235,4.471-.359,6.82-.1,1.688-.179,3.421-.279,5.186-.056,1.141-.123,2.292-.179,3.455q-.2,3.673-.4,7.535c-.257,4.739-.448,9.637-.582,14.655-.5,17.786-.313,37.092.37,56.007.257,6.7.559,13.336.927,19.842s.782,12.9,1.252,19.071Q1110.7,841.1,1111.317,847.8Z" transform="translate(-841.69 -337.122)"/><path class="j" d="M929.529,621.636c.03.1.072.188.1.288.1.26.2.535.288.823.029.058.043.115.072.188,2.613,7.344,15.412,43.418,15.412,43.433,4.8,12.568,13.866,25.987,22.221,32.784-5.67-20.534-23.347-80.056-22.669-104.037C941.578,618.232,929.529,621.623,929.529,621.636Z" transform="translate(-844.753 -363.208)"/><path class="j" d="M1053.266,555.7s-44.146,104,51.567,157.137l1.911,1.5,1.457-25.161s-41.662-68.935-41.707-70.628S1053.266,555.7,1053.266,555.7Z" transform="translate(-804.584 -377.149)"/><path class="j" d="M1013.574,492.5c.057,1.718-.851,2.843-3.607,2.468-8.6-1.168-18.311-.923-25.368,2.308a5.991,5.991,0,0,1-5.8-.245c-4.516-2.64-7.315-10.519-8.427-14.011a2.4,2.4,0,0,1-.115-.765c14.184-3.16,24.892-2.54,28.8.837a21.244,21.244,0,0,0,13.261,5.152A11.709,11.709,0,0,1,1013.574,492.5Z" transform="translate(-830.349 -403.853)"/><g class="k" transform="translate(181.039 331.747)"><path d="M1001.394,672.481c-.255-.02-.508-.041-.753-.062C1000.641,672.419,1000.908,672.437,1001.394,672.481Z" transform="translate(-1000.641 -667.613)"/><path class="l" d="M1001.2,673.737c20.1,1.6,64.032-1.237,64.032-1.237,12.91-.743,21.976-1.89,23.568-3.631,0,0,0,.053-.01.149-.1,2.017-1.253,25.107-2.878,55.374a15.036,15.036,0,0,1-2.112-.245c-4.522-.838-7.995-3.641-10.637-7.559a36.479,36.479,0,0,1-4.137-8.638C1054.037,679.434,1007.636,674.315,1001.2,673.737Z" transform="translate(-1000.444 -668.869)"/></g><g transform="translate(158.366)"><g transform="translate(4.011 7.227)"><path class="m" d="M997.7,449.231s32.889,18.234,23.128-11.042C1014.075,417.932,975.272,436.178,997.7,449.231Z" transform="translate(-985.461 -429.138)"/><path class="m" d="M1003.864,441.894s-18.4,10.917-16.626,21.872c0,0-4.058-32.7,14.238-33.523s25.38.943,23.756,35.523C1025.232,465.767,1019.916,438.26,1003.864,441.894Z" transform="translate(-986.855 -428.797)"/></g><path class="m" d="M997.067,432.686s.924-10.189,11.024-8.746,14.43,7.215,15.873,12.987,2.886,10.1,4.328,10.1c0,0-4.328,4.329-5.771,2.886,0,0,3.744,10.377-1.014,18.9,0,0-1.872-13.125-9.087-14.568S997.067,432.686,997.067,432.686Z" transform="translate(-979.232 -423.8)"/><path class="m" d="M1002.651,430.54s-7.215-4.329-14.43,5.772l-4.329,8.657s1.443,1.443,4.329,0c0,0-1.315,10.168.065,15.906l4.264-17.349Z" transform="translate(-983.892 -421.742)"/></g><path class="j" d="M1093.676,650.917s5.235-42.808-110.976-37.439,84.171,34.1,84.171,34.1Z" transform="translate(-838.768 -356.878)"/><g transform="translate(96.631 79.082)"><g transform="translate(0 171.954)"><path class="n" d="M995.043,630.137c-1.328-.563-15.045-10.311-22.792-11.642s-19.39-2.572-23.329-4.033c-4.634-1.719-5.978.07-.681,2.582,3.442,1.632,10.548,4.3,12.153,4.493.777.094-4.253-.988-9.69-2.566-5.779-1.677-12.021-3.832-12.394-2.809-.726,1.984,15.839,7.872,18.8,8.428a75.106,75.106,0,0,1-7.785-1.568c-3.5-.907-7.466-2.481-8.323-1.809-1.348,1.061,7.338,5.279,14.665,6.886.111.25-2.311.437-10.885-2.055-.862-.251-3.122-.043-.357,1.508,5.818,3.264,8.079,5.1,16.806,6.055,8.511.935,18.064-.082,24.039,2.456Z" transform="translate(-938.287 -607.642)"/><path class="n" d="M971.158,621.162s-6.062-7.455-13.389-9.181c-4.355-1.025-4.165-2.128-4.891-2.518-2.41-1.293-.357,3.528,3.295,5.009,2.969,1.2,4.26,6.538,6,7.785s7.06,3.7,8.482,3.09S971.158,621.162,971.158,621.162Z" transform="translate(-933.494 -609.246)"/></g><path class="h" d="M1120.254,511.978c25.2,26.368,42.182,50.354,48.075,125.346,2.99,38.048-1.5,75.509-4.6,95.206a23.487,23.487,0,0,1-17.689,19.1c-87.091,21.352-174.032-66.512-174.032-66.512-4.72-2.19,6.426-18.761,6.426-18.761,46.973,3.191,82.824,7.447,119.1,24.763-.183-.1-31.378-71.676-34.843-91.02-9.07-50.723-48.372-97.082-35.8-115.7C1031.23,477.961,1094.837,485.382,1120.254,511.978Z" transform="translate(-926.772 -482.22)"/></g><g transform="translate(117.046 331.491)"><path class="o" d="M953.367,847.866l.984-10.363,1.9-19.9,2.046-21.352,2-20.938,2.191-22.861L964.2,734.49l1.677-17.551,2.2-23.006,1.621-16.925.347-3.667.447-4.662" transform="translate(-953.367 -668.68)"/><path class="o" d="M969.157,846.7l.727-7.523,1.878-19.44,2.023-20.927,1.979-20.525,2.258-23.409,1.722-17.819,1.721-17.808,2.493-25.723,1.487-15.472.548-5.589.045-.5" transform="translate(-947.783 -667.517)"/><path class="o" d="M1000.563,671.967l-.056.648-.47,5.835-1.263,15.662-2.1,25.89-1.42,17.64-1.509,18.591-1.822,22.559-1.6,19.776-1.677,20.781-1.5,18.49-.715,8.865" transform="translate(-941.673 -667.517)"/><line class="o" x2="0.452" y2="44.976" transform="translate(78.78 4.453)"/><path class="o" d="M1025.494,846.7l.168-9.29.369-19.585.335-18.635.369-19.708.391-21.061.324-17.953.414-22.391.436-23.442.246-13.426.078-4.36.078-4.1v-.38l.011-.4" transform="translate(-927.857 -667.517)"/><path class="o" d="M1042.136,671.868v.089l-.022,3.376-.078,16.612-.011,2.493-.134,24.963-.112,21.911-.089,18.054-.112,21.072-.1,20.032-.09,18.233-.1,19.351-.045,8.686" transform="translate(-922.288 -667.552)"/><path class="o" d="M1055.694,671.868l.022,1.252.391,20.446.469,24.426.011.838.391,20.614.358,18.177.38,20.334.369,18.937.358,19.1.369,19.161.224,11.581" transform="translate(-917.176 -667.552)"/></g><path class="o" d="M953.068,686.861s119.844,5.657,151.508,0" transform="translate(-836.428 -330.759)"/><path class="o" d="M1033.339,706.636c-41.932,9.5-82.06-5.516-82.06-5.516" transform="translate(-837.06 -325.715)"/><path class="o" d="M1011.564,703.1s37.842,10.633,71.082,1.653" transform="translate(-815.738 -325.016)"/><path class="o" d="M949.756,713.167s30.218,15.821,79.3,7.755" transform="translate(-837.599 -321.455)"/><path class="o" d="M947.929,727.515s47.024,14.356,79.45,6.969" transform="translate(-838.245 -316.38)"/><path class="o" d="M946.1,741.769s23.948,18.774,79.475,10.352" transform="translate(-838.893 -311.339)"/><path class="o" d="M943.964,758.164s36.517,19.082,80.544,6.068" transform="translate(-839.648 -305.54)"/><path class="o" d="M941.981,773.184s25.864,18.36,81.055,7.7" transform="translate(-840.349 -300.227)"/><path class="o" d="M939.907,788.582s35.7,18.661,82.215,3.585" transform="translate(-841.082 -294.781)"/><path class="o" d="M938.974,801.21c-.493-.391-.727-.615-.727-.615" transform="translate(-841.67 -290.533)"/><path class="o" d="M1012.835,718.1s15.81,13.054,69.362,3.364" transform="translate(-815.289 -319.708)"/><path class="o" d="M1013.142,732.617s22.184,10.344,67.679,2.175" transform="translate(-815.18 -314.575)"/><path class="o" d="M1012.343,748.725s34.254,10.318,68.76,0" transform="translate(-815.463 -308.878)"/><path class="o" d="M1011.978,762.084s33.3,14.8,69.918,0" transform="translate(-815.592 -304.153)"/><path class="o" d="M1011.564,776.749s31.7,11.125,71.4,0" transform="translate(-815.738 -298.967)"/><path class="o" d="M1011.187,790.835s26.722,11.99,73.158,0" transform="translate(-815.872 -293.985)"/><path class="j" d="M1022.437,505.534c.823,2.7,6.633,12.167,4.838,20.591s-40.791,92.461-56.857,103.32-45.08,23.2-45.08,23.2l79.276-109.68L1009,505.534S1017.3,488.695,1022.437,505.534Z" transform="translate(-846.236 -397.538)"/><g transform="translate(148.776 72.08)"><path class="n" d="M992.938,507.717s4.841-8.481,3.786-16.059c-.625-4.5.489-4.727.591-5.558.343-2.757-3.474.956-3.537,4.961-.053,3.254-4.634,6.437-5.175,8.546s-.915,8.048.184,9.173S992.938,507.717,992.938,507.717Z" transform="translate(-972.821 -474.182)"/><path class="n" d="M993.9,532.558c.047-1.465,4.251-18.042,2.67-25.872s-4.758-21.41-4.819-25.678c-.072-5.022-2.259-5.639-2.7.3-.284,3.861-.126,13.663.282,15.255a61.71,61.71,0,0,1-1.485-10.04c-.2-3.354-.986-2.028-2.105-1.716-2.068.577-1.161,6.241-.6,9.246a29.037,29.037,0,0,1-1.5-7.374c-.146-1.708-.972-1.263-1.986-1.107s-1.439,1.385-.273,8.918c-.2.2-.5,2.087-1.289-6.953-.079-.908-2.732-2.745-2.831.474-.172,5.649-1.354,5.149.941,13.771,2.238,8.409,6.707,17.089,6.495,23.684Z" transform="translate(-976.808 -477.047)"/></g><path class="p" d="M1017.134,507.727A207.322,207.322,0,0,0,942.261,533c-19.974,11.447-69.566,39.866-74.872,87.039-.464,4.122-3.979,39.6,17.782,54.283,14.56,9.824,32.87,5.223,37.732,4,8.638-2.17,20.2-7.035,65.217-66.708,25.586-33.912,38.687-54.652,48.668-82.359,1.677-4.655,2.925-8.562,3.743-11.23Q1028.833,512.876,1017.134,507.727Z" transform="translate(-866.903 -394.116)"/></g></g></g></g></g></svg>