<svg xmlns="http://www.w3.org/2000/svg" width="251.028" height="379.24" viewBox="0 0 251.028 379.24"><defs><style>.a{fill:#bcd3d7;opacity:0.49;}.b,.h{fill:#caa267;}.b{fill-rule:evenodd;}.c{fill:#979797;}.d{fill:#cacaca;}.e{fill:#2f2f2f;}.f{fill:#7f7f7f;}.g{fill:#c39652;}.i{fill:#c2934e;}.j{fill:#8c7cc9;}.k{fill:#f1c759;}.l{opacity:0.15;}.m{fill:#5e5586;}.n{fill:#5e5587;}.o{opacity:0.3;}.p{opacity:0.5;}.q{fill:#f0c659;}.r{fill:none;stroke:#8c7cc9;stroke-miterlimit:10;stroke-width:0.823px;}</style></defs><g transform="translate(-919.888 -275.121)"><g transform="translate(919.888 275.237)"><path class="a" d="M984.916,562.317c-36.137-45.1-54.205-67.65-60.085-88.822-19.64-70.733,20.783-171.22,94.047-193.317,3.812-1.149,56.751-16.3,91.433,13.061,29.039,24.587,15.914,55.519,31.349,146.295,16.524,97.185,41.58,120.612,22.247,154.131-18.3,31.736-62.8,48.942-98.007,41.8C1039.717,630.15,1021.094,607.467,984.916,562.317Z" transform="translate(-919.889 -275.252)"/><circle class="a" cx="17.734" cy="17.734" r="17.734" transform="translate(21.782 282.315)"/><circle class="a" cx="7.438" cy="7.438" r="7.438" transform="translate(29.238 328.496)"/><circle class="a" cx="12.813" cy="12.813" r="12.813" transform="translate(217.724 61.287)"/><circle class="a" cx="5.216" cy="5.216" r="5.216" transform="translate(236.673 40.928)"/><circle class="a" cx="3.827" cy="3.827" r="3.827" transform="translate(9.537 265.689)"/><circle class="a" cx="3.827" cy="3.827" r="3.827" transform="translate(236.673 111.896)"/></g><g transform="translate(924.82 275.121)"><g transform="translate(0 208.298)"><path class="b" d="M950.359,510.332c-.527.664-8.192,6.911-10.156,11.091s-4.486,10.581-5.929,12.584c-1.7,2.356-.894,3.4,1.356.789a45.408,45.408,0,0,0,4.444-6.181c.174-.426-1.225,2.254-2.968,5.087-1.853,3.011-4.049,6.211-3.527,6.582,1.01.721,6.934-7.742,7.711-9.329a44.3,44.3,0,0,1-2.105,4.164c-1.06,1.839-2.572,3.841-2.324,4.431.39.93,4.136-3.332,6.192-7.231.158-.023-.114,1.378-2.866,5.845-.276.449-.512,1.761.8.438,2.758-2.786,4.15-3.78,6.056-8.573,1.859-4.674,2.775-10.245,5.147-13.233Z" transform="translate(-926.362 -510.332)"/><g transform="translate(0 5.874)"><path class="c" d="M925.925,525.937l12.029,14.8a1.95,1.95,0,0,0,2.758.321l6.707-5.611a.6.6,0,0,0,.066-.06,2,2,0,0,0,.154-2.739l-12.03-14.8a1.944,1.944,0,0,0-2.756-.32l-6.261,5.236-.447.372A2,2,0,0,0,925.925,525.937Z" transform="translate(-925.457 -516.98)"/><path class="d" d="M926.306,525.594l12.126,14.746a2.011,2.011,0,0,0,2.832.275l6.537-5.4a2.008,2.008,0,0,0,.206-2.77L935.881,517.7a2.011,2.011,0,0,0-2.832-.275l-6.537,5.4A2.006,2.006,0,0,0,926.306,525.594Z" transform="translate(-925.502 -516.965)"/><path class="e" d="M927.646,525.7l10.473,12.735a1.737,1.737,0,0,0,2.446.237l5.646-4.664a1.733,1.733,0,0,0,.178-2.392l-10.473-12.735a1.737,1.737,0,0,0-2.446-.237l-5.646,4.664A1.733,1.733,0,0,0,927.646,525.7Z" transform="translate(-925.662 -517.112)"/><circle class="f" cx="0.672" cy="0.672" r="0.672" transform="translate(17.737 19.354)"/></g><path class="b" d="M942.394,519.639s-5.17,2.269-7.293,6.149c-1.261,2.307-1.855,2.027-2.19,2.377-1.109,1.162,1.942.753,3.352-1.084,1.146-1.493,4.37-1.391,5.348-2.184s3.2-3.421,3.076-4.322S942.394,519.639,942.394,519.639Z" transform="translate(-926.283 -511.397)"/></g><path class="g" d="M1085.933,582.044s-9.045,93.34-5.2,94.945c6.9,2.928,33.925,12.5,4.13,10.4-15.3.923-14.182-2.5-14.421-5.4-.2-2.367.253-85.9-.375-92.4-.141-1.454-.226-2.333-.226-2.333Z" transform="translate(-941.978 -310.24)"/><path class="h" d="M1016.776,571.026s48.856,79.63,46.277,82.9c-4.6,5.916-23.55,27.433,1.452,11.094,13.819-6.644,11.174-9.084,9.973-11.731-.981-2.163-8.21-18.705-10.823-24.685-.585-1.34-33.5-66.571-33.5-66.571Z" transform="translate(-935.906 -307.951)"/><path class="i" d="M1057.519,309.756s-.8,8.894,4.689,13.812-12.644,0-12.644,0,3.374-8.518,2.617-13.812S1057.519,309.756,1057.519,309.756Z" transform="translate(-939.658 -278.815)"/><ellipse class="h" cx="9.591" cy="13.086" rx="9.591" ry="13.086" transform="translate(105.376 8.218)"/><path class="j" d="M1105,396.617c-.16,2.477-2.165,11.685-4.983,21.695-.831,2.987-1.741,6.04-2.7,9.012-1.158,3.621-2.382,7.11-3.62,10.192-2.4,5.973-4.867,10.418-7.016,11.284-7.241,2.914-61.916,6.914-73.157,1.552-.263-.2-.546-.408-.817-.641-4.218-3.432-8.793-10.206-11.219-16.552,0,0-6.462-18.22-7.781-21.928-.015-.036-.022-.066-.036-.095-.044-.145-.095-.284-.146-.415-.014-.051-.036-.095-.05-.145-6.8,23.232-24.908,74.257-39.551,90.422-1.537,1.7-8.611-7.824-8.611-7.824s-11.823-61.056,19.021-125.58c14.519-30.371,40.432-44.228,56.976-47.906,7.162-1.6,12.567-1.282,14.541.422a10.722,10.722,0,0,0,6.695,2.6,14.493,14.493,0,0,0,3.759-.343,18.674,18.674,0,0,0,3.985-1.355c.612-.284.969-.488.969-.488a38.822,38.822,0,0,1,10.126.6C1098.818,328.457,1105.33,391.218,1105,396.617Z" transform="translate(-927.475 -280.101)"/><path class="k" d="M1017.907,464.86a5.913,5.913,0,0,0,3.356,1.548c7.884.155,41.938.738,60.411-.323,6.518-.375,11.1-.955,11.9-1.833,0,0,0,.027-.005.074-.049,1.018-.633,12.676-1.453,27.957-1.618,30.165,1.5,73.369,5.143,86.482.785,2.83-41.526-1.457-41.526-1.457-.118-31.13,2.836-85.781.928-88.23-2.32-2.98-6.084,45.09-10.4,85.316-16.755,4.371-43.289,1.717-42.982,0C1006.923,554,1017.907,464.86,1017.907,464.86Z" transform="translate(-934.361 -296.762)"/><path class="l" d="M999.99,420.723c.015.05.036.095.051.145.051.131.1.27.145.415a1.015,1.015,0,0,1,.036.095c1.319,3.708,7.781,21.921,7.781,21.921,2.427,6.353,7,13.128,11.219,16.559-2.863-10.367-11.788-40.418-11.445-52.525C1006.073,419,999.99,420.716,999.99,420.723Z" transform="translate(-933.985 -290.249)"/><path class="l" d="M1117.8,425.854c-.831,2.987-1.741,6.04-2.7,9.012-1.158,3.621-2.382,7.11-3.62,10.192-21.411-25.637-9.733-60.5-9.733-60.5s9.048,30.262,9.143,31.115C1110.926,415.982,1113.936,420.346,1117.8,425.854Z" transform="translate(-945.266 -287.644)"/><path class="l" d="M1053.29,324.859c.029.866-.43,1.435-1.821,1.245-4.342-.59-9.245-.466-12.807,1.165a3.026,3.026,0,0,1-2.929-.123c-2.28-1.334-3.694-5.311-4.254-7.074a1.2,1.2,0,0,1-.058-.386c7.161-1.6,12.566-1.282,14.541.422a10.72,10.72,0,0,0,6.7,2.6A5.909,5.909,0,0,1,1053.29,324.859Z" transform="translate(-937.582 -280.101)"/><path class="m" d="M1077.113,658.457c-.5-1.264-8.815,3.513-9.229,5s-15.189,14.229-12.1,19,24.056-12.015,25.644-13.052S1078.1,660.941,1077.113,658.457Z" transform="translate(-940.321 -318.959)"/><path class="n" d="M1069.907,685.632c-.178-1.347,11.3.362,12.385,1.457s17.794,5.64,17.416,11.315-26.862,1.213-28.754,1.08S1070.258,688.281,1069.907,685.632Z" transform="translate(-941.979 -322.036)"/><g class="o" transform="translate(114.605 167.49)"><path d="M1055.25,467.023c-.128-.011-.256-.02-.38-.032C1054.87,466.991,1055,467,1055.25,467.023Z" transform="translate(-1054.87 -464.565)"/><path class="p" d="M1055.3,466.71c10.148.809,32.328-.624,32.328-.624,6.518-.375,11.1-.955,11.9-1.833a.743.743,0,0,1-.005.074c-.049,1.018-.633,12.676-1.453,27.957a7.468,7.468,0,0,1-1.066-.123,8.3,8.3,0,0,1-5.37-3.816,18.452,18.452,0,0,1-2.089-4.361C1081.977,469.586,1058.55,467,1055.3,466.71Z" transform="translate(-1054.919 -464.252)"/></g><g transform="translate(103.159)"><g transform="translate(2.024 3.649)"><path class="q" d="M1050.759,289.385s16.6,9.206,11.676-5.575C1059.025,273.584,1039.435,282.8,1050.759,289.385Z" transform="translate(-1044.579 -279.242)"/><path class="q" d="M1052.818,285.939s-9.291,5.513-8.394,11.042c0,0-2.048-16.51,7.189-16.924s12.813.476,11.993,17.935C1063.607,297.992,1060.922,284.1,1052.818,285.939Z" transform="translate(-1044.231 -279.327)"/></g><path class="q" d="M1052.112,279.607s.467-5.144,5.566-4.415,7.286,3.642,8.014,6.557,1.458,5.1,2.186,5.1c0,0-2.186,2.186-2.914,1.458,0,0,1.891,5.239-.512,9.54,0,0-.946-6.627-4.588-7.356S1052.112,279.607,1052.112,279.607Z" transform="translate(-1043.108 -275.121)"/><path class="q" d="M1051.415,280.077s-3.642-2.186-7.286,2.914l-2.185,4.371s.728.729,2.185,0c0,0-.663,5.133.033,8.03l2.153-8.758Z" transform="translate(-1041.945 -275.635)"/></g><g transform="translate(222.646 214.144)"><path class="b" d="M1179.09,516.934c.382.621,6.283,6.732,7.533,10.5s2.748,9.485,3.774,11.341c1.208,2.183.417,2.99-1.237.535a38.961,38.961,0,0,1-3.161-5.727c-.1-.382.815,2.048,2.013,4.642,1.274,2.759,2.821,5.712,2.339,5.976-.936.512-5.127-7.312-5.627-8.746a38.016,38.016,0,0,0,1.371,3.767c.716,1.678,1.8,3.539,1.53,4.018-.428.754-3.189-3.265-4.545-6.8-.133-.036-.043,1.187,1.848,5.279.19.411.257,1.555-.726.292-2.069-2.659-3.154-3.649-4.292-7.932-1.109-4.178-1.322-9.024-3.04-11.815Z" transform="translate(-1176.871 -516.934)"/><path class="b" d="M1186.7,526.791s4.18,2.464,5.594,5.991c.841,2.1,1.377,1.919,1.626,2.252.828,1.1-1.733.444-2.749-1.267-.825-1.39-3.586-1.633-4.339-2.409s-2.38-3.245-2.183-4S1186.7,526.791,1186.7,526.791Z" transform="translate(-1177.759 -518.06)"/></g><g transform="translate(80.2 167.362)"><line class="r" x1="10.745" y2="112.352"/><line class="r" x1="10.663" y2="110.395" transform="translate(10.745 2.247)"/><line class="r" x1="8.867" y2="109.624" transform="translate(22.964 2.247)"/><line class="r" x2="0.228" y2="22.707" transform="translate(41.871 2.247)"/><line class="r" x1="2.057" y2="111.845" transform="translate(50.957 2.247)"/><line class="r" x1="0.573" y2="112.783" transform="translate(62.03 2.177)"/><line class="r" x2="2.169" y2="113.431" transform="translate(72.027 2.177)"/></g><path class="r" d="M1018.156,478.137s60.506,2.856,76.493,0" transform="translate(-936.064 -298.351)"/><path class="r" d="M1058.205,491.926c-21.17,4.795-41.429-2.785-41.429-2.785" transform="translate(-935.906 -299.61)"/><path class="r" d="M1063.3,490.668s19.105,5.368,35.887.835" transform="translate(-941.23 -299.784)"/><path class="r" d="M1015.6,498.438s15.257,7.988,40.037,3.916" transform="translate(-935.772 -300.673)"/><path class="r" d="M1014.19,509.511s23.741,7.248,40.112,3.518" transform="translate(-935.61 -301.94)"/><path class="r" d="M1012.776,520.512s12.091,9.478,40.126,5.227" transform="translate(-935.448 -303.199)"/><path class="r" d="M1011.13,533.165a58.822,58.822,0,0,0,40.665,3.063" transform="translate(-935.26 -304.647)"/><path class="r" d="M1009.6,544.756s13.058,9.269,40.922,3.885" transform="translate(-935.085 -305.973)"/><path class="r" d="M1008,556.639s18.023,9.422,41.508,1.81" transform="translate(-934.902 -307.333)"/><path class="r" d="M1006.719,565.913s10.633,10.227,41.742,2.645" transform="translate(-934.755 -308.394)"/><path class="r" d="M1005.209,576.44s17.194,9.058,42.161,2.359" transform="translate(-934.583 -309.599)"/><path class="r" d="M1064.281,502.249s7.982,6.59,35.018,1.7" transform="translate(-941.342 -301.109)"/><path class="r" d="M1064.518,513.449s11.2,5.222,34.169,1.1" transform="translate(-941.369 -302.391)"/><path class="r" d="M1063.9,525.88s17.294,5.209,34.716,0" transform="translate(-941.298 -303.813)"/><path class="r" d="M1063.62,536.189s16.812,7.474,35.3,0" transform="translate(-941.266 -304.993)"/><path class="r" d="M1063.3,547.508s16.006,5.616,36.047,0" transform="translate(-941.23 -306.288)"/><path class="r" d="M1063.009,558.378s13.491,6.053,36.936,0" transform="translate(-941.196 -307.532)"/><path class="r" d="M1063.009,568s16.018,8.255,37.75.877" transform="translate(-941.196 -308.632)"/><path class="r" d="M1062.574,580.019a74.052,74.052,0,0,0,39.324.454" transform="translate(-941.146 -310.008)"/><path class="j" d="M1100.792,359.7s-46.975-37.174-35.776-38.988,29.524,2.592,29.524,2.592c16.545,3.68,32.341,16.11,46.86,46.481,30.845,64.524,29.138,127.006,29.138,127.006s-7.142,9.581-8.611,7.824c-27.252-32.608-44.776-65.341-52.169-87.365S1100.792,359.7,1100.792,359.7Z" transform="translate(-941.228 -280.287)"/></g></g></svg>