<svg xmlns="http://www.w3.org/2000/svg" width="310.2" height="443.974" viewBox="0 0 310.2 443.974"><defs><style>.a{fill:#bcd3d7;opacity:0.49;}.b,.c{fill:#caa267;}.b{fill-rule:evenodd;}.d{fill:#c2934e;}.e{fill:#8a7cc7;}.f{fill:#f1c759;}.g{opacity:0.15;}.h{fill:#5e5584;}.i{fill:#5e5587;}.j{opacity:0.3;}.k{opacity:0.5;}.l{fill:#eec459;}.m{fill:#959595;}.n{fill:#c8c8c8;}.o{fill:#7f7f7f;}.p{fill:none;stroke:#8a7cc7;stroke-miterlimit:10;stroke-width:0.747px;}</style></defs><g transform="translate(-936.746 -258.299)"><g transform="translate(936.746 258.299)"><path class="a" d="M1018.428,611.851c-45.024-54.875-67.534-82.311-75.056-108.227-25.127-86.587,23.087-210.573,112.748-238.753,4.665-1.467,69.463-20.831,112.477,14.74,36.012,29.781,20.333,67.956,40.582,179.219,21.677,119.118,52.781,147.532,29.515,188.973-22.027,39.235-76.427,61-119.766,52.729C1086.695,694.378,1063.5,666.785,1018.428,611.851Z" transform="translate(-936.745 -258.299)"/><circle class="a" cx="21.78" cy="21.78" r="21.78" transform="translate(28.755 348.08)"/><circle class="a" cx="9.135" cy="9.135" r="9.135" transform="translate(38.423 404.836)"/><circle class="a" cx="15.736" cy="15.736" r="15.736" transform="translate(266.177 73.916)"/><circle class="a" cx="6.406" cy="6.406" r="6.406" transform="translate(289.051 48.751)"/><circle class="a" cx="4.701" cy="4.701" r="4.701" transform="translate(13.283 328.035)"/><circle class="a" cx="4.701" cy="4.701" r="4.701" transform="translate(290.041 135.927)"/></g><g transform="translate(939.347 260.005)"><g transform="translate(0 26.752)"><path class="b" d="M965.212,293.6c-1.553-3.672-6.382-6.5-9.6-7.346a32.192,32.192,0,0,1-4.112-1.673c-2.5-.81,1.48,2.693,2.975,3.272,1.215.47,3.422,4.044,4.62,5.263s3.761,2.979,5.127,2.976S965.024,294.291,965.212,293.6Z" transform="translate(-938.125 -284.464)"/><path class="b" d="M974.711,305.908c-2.945-5.15-5.177-11.282-10.749-13.792s-13.865-2.369-18.276-2.992c-5.19-.733-3,.928-.261,1.627,1.779.455,7.536,2.089,9.328,2.055a56.913,56.913,0,0,0-7.494-1.13c-.424.124-8.669-2.023-8.092-.518,1.116,2.918,10.4,3.185,13.367,3.795-1.56-.038-4.1-.476-5.6-.521-1.276-.037-5.144-1.4-5.51-.219-.576,1.854,8.943,2.946,10.208,3.036-1.239,1.019-6.026-.431-7.69-.526-.166-.01-1.676.371.151.991,3.847,1.3,6.828,2.5,11.216,3.1s9.535,1.211,12.5,5.178C970.141,305.834,972.433,306.217,974.711,305.908Z" transform="translate(-939.137 -284.071)"/></g><path class="c" d="M1111.171,538.279s-8.883,104.227-4.573,105.968c7.735,3.176,38,13.507,4.742,11.544-17.06,1.227-15.851-2.6-16.155-5.831-.249-2.638-.828-95.816-1.613-103.055-.175-1.621-.282-2.6-.282-2.6Z" transform="translate(-925.625 -235.463)"/><path class="c" d="M1053.693,539.082s5.581,104.059,1.311,105.9c-7.658,3.354-37.678,14.383-4.473,11.651,17.084.831,15.786-2.968,16.016-6.2.187-2.643,1.891-22.708,2.509-29.962.138-1.624,2.54-83.088,2.54-83.088Z" transform="translate(-930.714 -235.541)"/><path class="d" d="M1080.809,291.792s-.775,9.93,5.409,15.346-14.1.163-14.1.163,3.653-9.545,2.741-15.44S1080.809,291.792,1080.809,291.792Z" transform="translate(-927.481 -257.294)"/><ellipse class="c" cx="10.699" cy="14.597" rx="10.699" ry="14.597" transform="translate(139.108 9.314) rotate(-0.664)"/><path class="e" d="M997.716,355.008c15.8-34.063,44.525-49.854,62.932-54.171,7.967-1.872,14-1.592,16.224.283a11.959,11.959,0,0,0,7.5,2.815,16.183,16.183,0,0,0,4.189-.431,20.9,20.9,0,0,0,4.428-1.563c.679-.325,1.073-.557,1.073-.557a43.361,43.361,0,0,1,11.3.544c41.844,7.69,49.92,77.609,49.617,83.634-.186,3.586-3.7,19.864-8.168,34.349-3.657,11.891-7.963,22.579-11.586,24.092-8.039,3.344-68.971,8.512-81.578,2.677-.3-.216-.615-.448-.919-.7-4.749-3.772-9.939-11.27-12.727-18.316,0,0-7.444-20.239-8.962-24.358-.016-.04-.025-.073-.042-.106-.051-.161-.11-.315-.169-.461-.016-.057-.041-.1-.059-.161" transform="translate(-934.003 -256.388)"/><path class="f" d="M1047.748,432.781a6.6,6.6,0,0,0,3.763,1.684c8.8.071,46.788.281,67.38-1.142,7.264-.5,12.362-1.208,13.248-2.2,0,0,0,.03,0,.084-.041,1.137-.542,14.147-1.26,31.2-1.415,33.667,2.621,81.816,6.853,96.395.914,3.147-46.335-1.089-46.335-1.089-.534-34.72,2.055-95.715-.105-98.422-2.627-3.294-6.2,50.372-10.495,95.294-18.633,5.092-48.261,2.476-47.942.556C1036.649,532.344,1047.748,432.781,1047.748,432.781Z" transform="translate(-930.923 -244.856)"/><path class="g" d="M1028.112,395.483c.017.058.042.106.059.162.059.146.117.3.169.461.016.033.025.065.041.106,1.518,4.119,8.962,24.349,8.962,24.349,2.788,7.055,7.978,14.552,12.727,18.325-3.327-11.526-13.67-44.929-13.445-58.438C1034.875,393.487,1028.112,395.475,1028.112,395.483Z" transform="translate(-931.338 -249.298)"/><path class="g" d="M1117.62,348.709s-19.51,60.563,36.857,85.534l1.149.744-.455-14.186s-26.848-36.562-26.959-37.51S1117.62,348.709,1117.62,348.709Z" transform="translate(-923.778 -252.08)"/><path class="g" d="M1080.036,306.324c.043.967-.461,1.607-2.015,1.413-4.851-.6-10.318-.4-14.27,1.466a3.377,3.377,0,0,1-3.268-.1c-2.56-1.458-4.187-5.877-4.837-7.836a1.345,1.345,0,0,1-.069-.43c7.967-1.872,14-1.592,16.224.283a11.959,11.959,0,0,0,7.5,2.815A6.593,6.593,0,0,1,1080.036,306.324Z" transform="translate(-928.931 -256.388)"/><path class="h" d="M1067.99,635.263c.182-1.505-10.512-1.24-11.709-.005s-22.459,5.88-21.964,12.206,29.978,1.006,32.086.832S1067.633,638.222,1067.99,635.263Z" transform="translate(-930.795 -227.052)"/><path class="i" d="M1094.385,632.648c-.216-1.5,12.608.259,13.833,1.465s19.919,6.06,19.571,12.4-29.947,1.7-32.058,1.575S1094.811,635.6,1094.385,632.648Z" transform="translate(-925.529 -227.241)"/><g class="j" transform="translate(151.492 186.267)"><path d="M1078.845,434.171l-.425-.029S1078.571,434.151,1078.845,434.171Z" transform="translate(-1078.42 -430.858)"/><path class="k" d="M1078.811,434.436c11.329.772,36.051-1.114,36.051-1.114,7.264-.5,12.362-1.208,13.248-2.2,0,0,0,.03,0,.084-.041,1.137-.542,14.147-1.26,31.2a8.392,8.392,0,0,1-1.191-.124,9.261,9.261,0,0,1-6.04-4.186,20.546,20.546,0,0,1-2.385-4.838C1108.6,437.3,1082.44,434.72,1078.811,434.436Z" transform="translate(-1078.386 -431.123)"/></g><g transform="translate(136.68)"><g transform="translate(2.331 4.076)"><path class="l" d="M1073.559,274.993s18.639,10.054,12.951-6.368C1082.575,257.262,1060.842,267.791,1073.559,274.993Z" transform="translate(-1066.711 -263.615)"/><path class="l" d="M1076.432,270.964s-10.292,6.268-9.22,12.424c0,0-2.5-18.388,7.8-18.971s14.3.367,13.61,19.85C1088.621,284.267,1085.447,268.811,1076.432,270.964Z" transform="translate(-1066.945 -263.555)"/></g><path class="l" d="M1073.95,264.932s.453-5.744,6.151-5,8.173,3.969,9.023,7.21,1.691,5.669,2.5,5.659c0,0-2.409,2.466-3.231,1.663,0,0,2.176,5.819-.447,10.648,0,0-1.141-7.379-5.213-8.144S1073.95,264.932,1073.95,264.932Z" transform="translate(-1064 -259.867)"/><path class="l" d="M1075.272,264.512s-4.092-2.391-8.089,3.345l-2.381,4.9s.822.8,2.437-.028c0,0-.673,5.733.14,8.956l2.288-9.8Z" transform="translate(-1064.802 -259.504)"/></g><g transform="translate(124.226 99.677)"><path class="m" d="M1053.451,367.273l11.068,65.886a7.051,7.051,0,0,0,8.113,5.782l44.967-7.559a2.2,2.2,0,0,0,.317-.069,7.023,7.023,0,0,0,5.457-8.044L1112.3,357.384a7.039,7.039,0,0,0-8.113-5.774l-42.882,7.2-2.085.349A7.038,7.038,0,0,0,1053.451,367.273Z" transform="translate(-1053.352 -351.511)"/><path class="n" d="M1055.658,366.856l11.068,65.886a7.039,7.039,0,0,0,8.113,5.773l42.883-7.2a7.023,7.023,0,0,0,5.457-8.044l-11.068-65.885A7.039,7.039,0,0,0,1104,351.61l-42.882,7.2A7.024,7.024,0,0,0,1055.658,366.856Z" transform="translate(-1053.158 -351.511)"/><circle class="o" cx="5.438" cy="5.438" r="5.438" transform="translate(31.287 38.662)"/></g><path class="g" d="M1132.709,409.374s.774-24.274-64.136-15.4,48.932,14.874,48.932,14.874Z" transform="translate(-929.545 -248.283)"/><g transform="translate(112.652 42.733)"><g transform="translate(0 101.284)"><path class="b" d="M1075.245,402.654c-.773-.249-8.96-5.024-13.373-5.38s-11.005-.463-13.288-1.083c-2.687-.731-3.35.34-.252,1.483a43.406,43.406,0,0,0,7.044,1.906c.441.013-2.435-.339-5.564-.95-3.326-.649-6.936-1.543-7.094-.951-.307,1.15,9.282,3.616,10.968,3.779a42.335,42.335,0,0,1-4.445-.486c-2.009-.333-4.312-1.015-4.76-.594-.7.663,4.383,2.591,8.573,3.122.075.135-1.275.362-6.209-.6-.5-.1-1.753.134-.124.864,3.428,1.537,4.789,2.452,9.732,2.548,4.82.094,10.128-.959,13.608.163Z" transform="translate(-1042.71 -391.956)"/><path class="b" d="M1063.206,398.007s-3.776-3.876-7.974-4.474c-2.5-.356-2.444-.983-2.87-1.165-1.417-.6-.022,2,2.1,2.642,1.725.526,2.719,3.452,3.76,4.063s4.146,1.718,4.913,1.305S1063.206,398.007,1063.206,398.007Z" transform="translate(-1041.915 -392.278)"/></g><path class="e" d="M1141.547,311.861c15.464,13.517,26.2,26.114,33.293,67.879,3.6,21.19,2.971,42.428,2.229,53.633a13.227,13.227,0,0,1-8.957,11.606c-47.772,16.374-100.974-28.519-100.974-28.519-2.757-.991,2.657-10.847,2.657-10.847,26.508-.582,46.833-.005,68.053,7.876-.108-.049-21.218-38.618-24.139-49.294-7.648-27.993-32.034-52.011-25.924-63.089C1089.9,297.275,1125.948,298.226,1141.547,311.861Z" transform="translate(-1040.638 -299.156)"/></g><g transform="translate(114.537 187.008)"><line class="p" x1="10.532" y2="125.455"/><line class="p" x1="10.467" y2="123.271" transform="translate(11.988 2.368)"/><line class="p" x1="8.473" y2="122.387" transform="translate(25.607 2.234)"/><line class="p" x2="0.548" y2="25.324" transform="translate(45.279 2.104)"/><line class="p" x1="0.849" y2="124.777" transform="translate(56.859 1.96)"/><line class="p" x2="0.819" y2="125.804" transform="translate(68.402 1.758)"/><line class="p" x2="3.886" y2="126.491" transform="translate(78.914 1.636)"/></g><path class="p" d="M1045.2,444.73s67.524,2.4,85.319-.989" transform="translate(-929.841 -243.75)"/><path class="p" d="M1090.3,457.229c-23.551,5.622-46.246-2.571-46.246-2.571" transform="translate(-929.94 -242.793)"/><path class="p" d="M1086.326,455.555s21.379,5.742,40.038.468" transform="translate(-926.235 -242.714)"/><path class="p" d="M1043.089,463.114s17.12,8.712,44.707,3.85" transform="translate(-930.025 -242.051)"/><path class="p" d="M1041.924,473.185s26.575,7.778,44.786,3.405" transform="translate(-930.127 -241.169)"/><path class="p" d="M1040.756,483.19s13.609,10.415,44.822,5.31" transform="translate(-930.23 -240.292)"/><path class="p" d="M1039.394,494.7a65.613,65.613,0,0,0,45.4,2.891" transform="translate(-930.349 -239.283)"/><path class="p" d="M1038.126,505.241s14.686,10.17,45.695,3.8" transform="translate(-930.46 -238.359)"/><path class="p" d="M1036.8,516.049s20.225,10.276,46.321,1.482" transform="translate(-930.577 -237.411)"/><path class="p" d="M1035.733,524.485s11.993,11.269,46.593,2.411" transform="translate(-930.67 -236.672)"/><path class="p" d="M1034.473,534.06s19.3,9.881,47.055,2.087" transform="translate(-930.781 -235.832)"/><path class="p" d="M1087.338,466.062s8.988,7.247,39.082,1.441" transform="translate(-926.147 -241.793)"/><path class="p" d="M1087.671,476.231s12.56,5.68,38.126.783" transform="translate(-926.117 -240.902)"/><path class="p" d="M1087.242,487.563s19.357,5.586,38.721-.449" transform="translate(-926.155 -239.948)"/><path class="p" d="M1087.095,496.929s18.848,8.119,39.372-.456" transform="translate(-926.168 -239.127)"/><path class="p" d="M1086.924,507.212s17.926,6.058,40.205-.466" transform="translate(-926.183 -238.227)"/><path class="p" d="M1086.774,517.089s15.126,6.577,41.2-.478" transform="translate(-926.196 -237.362)"/><path class="p" d="M1086.875,525.784s17.974,9,42.118.491" transform="translate(-926.187 -236.558)"/><path class="p" d="M1086.606,536.707a82.61,82.61,0,0,0,43.869,0" transform="translate(-926.211 -235.6)"/><path class="e" d="M1034.291,403.428s-49.219,21.556-61.744-23.558,3.86-55.316-11.859-73.884l9.912-7.863s34.714,17.852,45.3,46.235S1034.291,403.428,1034.291,403.428Z" transform="translate(-937.248 -256.514)"/></g></g></svg>