<svg xmlns="http://www.w3.org/2000/svg" xmlns:xlink="http://www.w3.org/1999/xlink" width="636" height="384" viewBox="0 0 636 384"><defs><style>.a{fill:#fff;stroke:#707070;}.b,.o{fill:none;}.c{clip-path:url(#a);}.d{fill:#bcd3d7;opacity:0.49;}.e{clip-path:url(#b);}.f{fill:#c2934e;}.g,.n{fill:#caa267;}.h{fill:#8a7cc7;}.i{fill:#f1c759;}.j{opacity:0.15;}.k{opacity:0.3;}.l{opacity:0.5;}.m{fill:#eec459;}.n{fill-rule:evenodd;}.o{stroke:#8a7cc7;stroke-miterlimit:10;stroke-width:1.093px;}.p{fill:#9180d2;}</style><clipPath id="a"><rect class="a" width="636" height="384" transform="translate(393 384)"/></clipPath><clipPath id="b"><path class="b" d="M578.684,473.823C499.3,410.216,459.61,378.413,422.347,368.067,297.849,333.5,120.979,404.646,82.086,533.6c-2.024,6.71-28.7,99.887,22.99,160.933,43.276,51.112,97.719,28.011,257.5,55.178C533.63,778.8,574.863,822.9,633.862,788.867c55.858-32.217,86.144-110.535,73.57-172.5C698.08,570.279,658.155,537.5,578.684,473.823Z" transform="translate(-73.416 -359.366)"/></clipPath></defs><g class="c" transform="translate(-393 -384)"><g transform="translate(319.131 42.634)"><path class="d" d="M578.684,473.823C499.3,410.216,459.61,378.413,422.347,368.067,297.849,333.5,120.979,404.646,82.086,533.6c-2.024,6.71-28.7,99.887,22.99,160.933,43.276,51.112,97.719,28.011,257.5,55.178C533.63,778.8,574.863,822.9,633.862,788.867c55.858-32.217,86.144-110.535,73.57-172.5C698.08,570.279,658.155,537.5,578.684,473.823Z" transform="translate(0)"/><g transform="translate(73.416 359.366)"><g class="e"><g transform="translate(139.829 53.92)"><path class="f" d="M288.2,444.342s1.642,18.32-9.659,28.453,26.044,0,26.044,0-6.949-17.549-5.391-28.453S288.2,444.342,288.2,444.342Z" transform="translate(-130.45 -380.605)"/><ellipse class="g" cx="19.757" cy="26.956" rx="19.757" ry="26.956" transform="translate(143.957 16.928)"/><path class="h" d="M197.5,614.68c.42,6.618,7.263,36.6,15.817,63.255,7.008,21.88,15.186,41.525,21.91,44.24,14.916,6,127.543,14.242,150.7,3.2.539-.405,1.125-.842,1.681-1.322,8.689-7.068,18.113-21.024,23.11-34.1,0-.015,13.311-37.532,16.028-45.171.03-.075.045-.135.075-.194.09-.3.194-.586.3-.856.03-.106.075-.2.106-.3,14.017,47.857,123.567,44.376,60.028-88.541-29.91-62.564-83.289-91.107-117.37-98.685-14.752-3.287-25.888-2.642-29.954.87a22.083,22.083,0,0,1-13.791,5.357,29.85,29.85,0,0,1-7.745-.705,38.6,38.6,0,0,1-8.208-2.79c-1.261-.586-2-1.007-2-1.007a80.125,80.125,0,0,0-20.86,1.246C210.226,474.276,196.81,603.561,197.5,614.68Z" transform="translate(-162.646 -374.664)"/><path class="i" d="M224.111,828.825h77.64q-.156-7.133-.349-14.381c-.162-6.6-.348-13.255-.535-19.835-.2-6.975-.394-13.893-.58-20.636-.187-6.463-.362-12.765-.524-18.81-.442-17.08-.743-32.158-.686-43.111.046-10.37.418-17.032,1.314-18.171.336-.431.686-.349,1.057.232,1.174,1.837,2.5,8.662,3.953,19.055.779,5.523,1.581,12.057,2.419,19.382.825,7.162,1.674,15.1,2.557,23.588.617,5.953,1.245,12.185,1.9,18.626.732,7.383,1.488,15.02,2.255,22.834.569,5.72,1.139,11.533,1.72,17.4q.68,6.872,1.36,13.824h86.558c-.024-.21-.046-.431-.082-.639-.756-5.384-1.535-11.045-2.337-16.917-.953-6.976-1.93-14.242-2.918-21.671-.918-6.941-1.86-14.032-2.79-21.147-1.906-14.522-3.8-29.206-5.579-43.145-1.711-13.335-3.3-26-4.721-37.169-3.279-26.09-5.512-44.146-5.512-44.146a9.019,9.019,0,0,1-.708.641.312.312,0,0,1-.059.047,10.253,10.253,0,0,1-2.453,1.464,15.244,15.244,0,0,1-3.7,1.035c-1.919.035-4.581.082-7.86.139-5.813.106-13.532.21-22.392.3-6.627.07-13.893.128-21.45.151-1.977.013-3.965.024-5.965.013h-.093c-4.847.011-9.765.011-14.7-.013-7.743-.034-15.5-.115-22.938-.255-6.941-.128-13.627-.3-19.765-.546q-3.994-.175-7.662-.36c-.024.011-.046,0-.07,0l-.6-.035c-.617-.035-.953-.059-.953-.059-1.245-.069-2.441-.151-3.615-.232s-2.3-.151-3.4-.244h-.011c-.907-.07-1.778-.139-2.628-.221-.558-.047-1.115-.1-1.65-.163-.268-.023-.535-.046-.79-.08s-.524-.059-.78-.082-.511-.059-.756-.082-.488-.058-.732-.093c-.349-.035-.686-.082-1.023-.128-1.3-.175-2.475-.349-3.523-.535a24.7,24.7,0,0,1-4-1.011c-.1-.035-.208-.082-.314-.128a4.937,4.937,0,0,1-.546-.245c-.082-.047-.162-.093-.232-.127s-.139-.093-.2-.14a1.434,1.434,0,0,1-.314-.268,1.389,1.389,0,0,0,.011.151c0,.093.011.244.023.442.013.255.024.593.046,1.011.013.279.024.593.046.931.035.639.07,1.4.106,2.255.011.221.024.442.035.674a.584.584,0,0,1,.011.139c.011.325.035.663.046,1.011s.046.721.058,1.094c.035.686.07,1.406.117,2.162.011.314.023.639.046.964.023.465.046.942.069,1.43.024.325.035.663.046,1.011.07,1.291.139,2.651.222,4.093.034.721.069,1.466.115,2.222s.069,1.535.115,2.336c.059,1.105.117,2.244.175,3.407.093,1.779.187,3.639.291,5.557.046.966.1,1.943.151,2.942.117,2.278.245,4.65.372,7.091.106,1.756.187,3.558.291,5.395.058,1.186.128,2.383.186,3.593q.209,3.818.418,7.836c.267,4.929.466,10.021.605,15.242.522,18.5.325,38.577-.384,58.247-.267,6.965-.581,13.87-.964,20.636s-.814,13.417-1.3,19.835Q224.752,821.854,224.111,828.825Z" transform="translate(-151.782 -297.712)"/><path class="j" d="M372.142,596.564c-.031.1-.076.194-.106.3-.105.27-.21.555-.3.856-.03.059-.045.12-.075.194-2.717,7.639-16.028,45.156-16.028,45.171-5,13.071-14.421,27.028-23.11,34.1,5.9-21.354,24.281-83.258,23.576-108.2C359.611,593.022,372.142,596.548,372.142,596.564Z" transform="translate(-107.566 -327.794)"/><path class="j" d="M256.135,529.565S302.047,637.726,202.5,692.989l-1.989,1.56L199,668.381s43.33-71.694,43.376-73.455S256.135,529.565,256.135,529.565Z" transform="translate(-162.024 -343.87)"/><path class="j" d="M287.939,466.862c-.059,1.785.886,2.956,3.752,2.566,8.944-1.216,19.044-.962,26.382,2.4a6.23,6.23,0,0,0,6.033-.255c4.7-2.747,7.609-10.94,8.765-14.571a2.5,2.5,0,0,0,.12-.8c-14.752-3.287-25.888-2.641-29.954.87a22.083,22.083,0,0,1-13.791,5.357A12.186,12.186,0,0,0,287.939,466.862Z" transform="translate(-125.751 -374.664)"/><g class="k" transform="translate(72.574 345.021)"><path d="M289,646.349c.265-.021.527-.042.783-.065C289.78,646.284,289.5,646.3,289,646.349Z" transform="translate(-197.892 -641.286)"/><path class="l" d="M315.39,647.8c-20.9,1.668-66.594-1.287-66.594-1.287-13.427-.771-22.855-1.964-24.511-3.776,0,0,0,.056.01.155.1,2.1,1.3,26.112,2.993,57.59a15.426,15.426,0,0,0,2.2-.253c4.7-.873,8.315-3.787,11.063-7.861a37.959,37.959,0,0,0,4.3-8.985C260.436,653.724,308.693,648.4,315.39,647.8Z" transform="translate(-224.285 -642.734)"/></g><g transform="translate(137.017)"><g transform="translate(6.706 7.516)"><path class="m" d="M301.809,423.9s-34.2,18.965-24.052-11.484C284.781,391.35,325.137,410.326,301.809,423.9Z" transform="translate(-274.394 -403.004)"/><path class="m" d="M297.28,416.231s19.138,11.356,17.291,22.747c0,0,4.221-34.01-14.808-34.864s-26.4.983-24.706,36.945C275.057,441.059,280.585,412.451,297.28,416.231Z" transform="translate(-274.823 -402.61)"/></g><path class="m" d="M302.535,406.907s-.962-10.6-11.466-9.1-15.008,7.5-16.509,13.506-3,10.505-4.5,10.505c0,0,4.5,4.5,6,3,0,0-3.9,10.793,1.054,19.652,0,0,1.947-13.649,9.451-15.15S302.535,406.907,302.535,406.907Z" transform="translate(-270.059 -397.666)"/><path class="m" d="M292.444,404.442s7.5-4.5,15.008,6l4.5,9s-1.5,1.5-4.5,0c0,0,1.367,10.573-.068,16.542l-4.435-18.043Z" transform="translate(-260.929 -395.293)"/></g><path class="j" d="M234.995,626.3s-5.444-44.522,115.417-38.937-87.54,35.458-87.54,35.458Z" transform="translate(-147.359 -320.495)"/><g transform="translate(0 82.246)"><g transform="translate(193.22 178.836)"><path class="n" d="M309.98,604.658c1.381-.587,15.647-10.724,23.7-12.107s20.166-2.675,24.263-4.194c4.818-1.788,6.217.072.708,2.685-3.58,1.7-10.97,4.473-12.64,4.673-.808.1,4.423-1.028,10.077-2.669,6.01-1.746,12.5-3.987,12.89-2.923.755,2.064-16.473,8.188-19.548,8.767a78.552,78.552,0,0,0,8.1-1.63c3.638-.945,7.764-2.582,8.654-1.881,1.4,1.1-7.631,5.491-15.25,7.162-.115.26,2.4.455,11.321-2.138.9-.261,3.247-.044.372,1.568-6.051,3.4-8.4,5.3-17.479,6.3-8.851.971-18.788-.087-25,2.552Z" transform="translate(-309.98 -581.262)"/><path class="n" d="M324.173,595.505s6.3-7.754,13.925-9.548c4.529-1.067,4.332-2.213,5.087-2.619,2.506-1.346.37,3.669-3.427,5.209-3.087,1.253-4.432,6.8-6.244,8.1s-7.342,3.848-8.822,3.214S324.173,595.505,324.173,595.505Z" transform="translate(-304.316 -583.112)"/></g><path class="h" d="M223.758,487.035c-26.206,27.422-43.87,52.369-50,130.362-3.11,39.569,1.56,78.529,4.781,99.016a24.43,24.43,0,0,0,18.4,19.865c90.576,22.206,181-69.175,181-69.175,4.909-2.278-6.683-19.51-6.683-19.51-48.853,3.318-86.138,7.745-123.864,25.753.19-.107,32.634-74.543,36.237-94.661,9.433-52.754,50.307-100.967,37.238-120.331C316.344,451.656,250.192,459.374,223.758,487.035Z" transform="translate(-172.736 -456.085)"/></g><g transform="translate(83.479 344.755)"><path class="o" d="M341.986,828.9l-1.023-10.778-1.976-20.695-2.128-22.206-2.081-21.776L332.5,729.673l-1.779-18.684-1.744-18.253-2.29-23.927L325,651.207l-.36-3.813-.465-4.848" transform="translate(-194.449 -642.546)"/><path class="o" d="M326.123,827.562l-.756-7.824-1.953-20.218-2.1-21.764-2.058-21.346L316.9,732.064l-1.79-18.532-1.79-18.521-2.593-26.752-1.546-16.091-.57-5.813-.046-.523" transform="translate(-200.815 -641.205)"/><path class="o" d="M293.323,645.832l.058.674.488,6.069,1.314,16.288,2.186,26.926,1.477,18.346,1.57,19.334,1.9,23.462,1.663,20.567,1.744,21.613,1.558,19.23.744,9.22" transform="translate(-207.033 -641.205)"/><line class="o" x1="0.471" y2="46.776" transform="translate(65.134 4.631)"/><path class="o" d="M265.67,827.562,265.5,817.9l-.384-20.369-.349-19.381-.384-20.5-.407-21.9-.337-18.672-.43-23.287-.453-24.38-.256-13.963-.081-4.534-.081-4.267v-.4l-.012-.419" transform="translate(-219.677 -641.205)"/><path class="o" d="M248.291,645.733v.093l.023,3.511.081,17.277.012,2.593.14,25.961.116,22.787.093,18.776.116,21.915.1,20.834.093,18.962.1,20.125.046,9.034" transform="translate(-225.399 -641.246)"/><path class="o" d="M235.507,645.733l-.023,1.3-.407,21.264-.488,25.4-.012.872-.407,21.439-.372,18.9-.4,21.148-.384,19.695-.372,19.869-.384,19.927-.233,12.045" transform="translate(-232.031 -641.246)"/></g><path class="o" d="M382.773,660.727s-124.639,5.883-157.57,0" transform="translate(-151.337 -290.375)"/><path class="o" d="M278.3,680.722c43.61,9.877,85.344-5.737,85.344-5.737" transform="translate(-129.683 -284.56)"/><path class="o" d="M300.045,676.964s-39.355,11.059-73.925,1.72" transform="translate(-150.963 -283.752)"/><path class="o" d="M364.331,687.033S332.9,703.487,281.856,695.1" transform="translate(-128.231 -279.646)"/><path class="o" d="M366.2,701.381s-48.906,14.93-82.63,7.248" transform="translate(-127.531 -273.794)"/><path class="o" d="M368.043,715.634S343.136,735.16,285.386,726.4" transform="translate(-126.791 -267.981)"/><path class="o" d="M370.5,732.03s-37.978,19.844-83.767,6.31" transform="translate(-126.243 -261.294)"/><path class="o" d="M372.634,747.05s-26.9,19.093-84.3,8" transform="translate(-125.588 -255.168)"/><path class="o" d="M375.058,762.447s-37.127,19.409-85.5,3.729" transform="translate(-125.092 -248.888)"/><path class="o" d="M351.41,775.1c.512-.407.756-.639.756-.639" transform="translate(-99.863 -243.988)"/><path class="o" d="M298.257,691.97s-16.442,13.576-72.137,3.5" transform="translate(-150.963 -277.632)"/><path class="o" d="M297.443,706.483s-23.072,10.758-70.387,2.261" transform="translate(-150.581 -271.713)"/><path class="o" d="M298.568,722.591s-35.624,10.731-71.512,0" transform="translate(-150.581 -265.143)"/><path class="o" d="M299.282,735.949s-34.632,15.4-72.716,0" transform="translate(-150.781 -259.695)"/><path class="o" d="M300.14,750.615s-32.971,11.57-74.253,0" transform="translate(-151.058 -253.714)"/><path class="o" d="M301.049,764.7s-27.791,12.469-76.086,0" transform="translate(-151.435 -247.969)"/><path class="j" d="M294.688,479.7c-.856,2.8-6.9,12.654-5.032,21.413s42.423,96.161,59.133,107.456S395.673,632.7,395.673,632.7L313.225,518.634,308.666,479.7S300.033,462.185,294.688,479.7Z" transform="translate(-125.195 -367.382)"/><g transform="translate(172.518 74.964)"><path class="n" d="M299.852,482.486s-5.034-8.82-3.939-16.7c.652-4.684-.507-4.918-.614-5.782-.356-2.868,3.613,1,3.679,5.16.053,3.386,4.818,6.694,5.382,8.889s.952,8.37-.191,9.538S299.852,482.486,299.852,482.486Z" transform="translate(-295.276 -447.609)"/><path class="n" d="M301.668,508.645c-.049-1.525-4.421-18.764-2.776-26.908s4.949-22.265,5.012-26.7c.075-5.223,2.35-5.866,2.8.314.3,4.015.131,14.209-.293,15.865a64.337,64.337,0,0,0,1.543-10.443c.2-3.487,1.026-2.109,2.191-1.784,2.151.6,1.208,6.489.628,9.616a30.217,30.217,0,0,0,1.563-7.669c.152-1.777,1.011-1.315,2.064-1.153s1.5,1.44.286,9.275c.2.2.525,2.172,1.34-7.231.082-.945,2.841-2.855,2.944.494.179,5.874,1.408,5.355-.979,14.322-2.327,8.744-6.977,17.773-6.755,24.63Z" transform="translate(-293.952 -450.912)"/></g><path class="p" d="M319.362,481.593a215.622,215.622,0,0,1,77.868,26.282c20.773,11.9,72.35,41.46,77.868,90.522.483,4.287,4.138,41.187-18.494,56.453-15.144,10.217-34.186,5.433-39.243,4.162-8.983-2.257-21-7.315-67.826-69.376-26.61-35.27-40.235-56.841-50.615-85.655-1.744-4.843-3.042-8.906-3.894-11.681Z" transform="translate(-122.859 -363.435)"/></g></g></g></g></g></svg>