<svg xmlns="http://www.w3.org/2000/svg" width="46.172" height="54.836" viewBox="0 0 46.172 54.836"><defs><style>.a,.b{fill:#bfc1c3;}.b{mix-blend-mode:multiply;isolation:isolate;}.c{fill:#221f1f;}.d{fill:#c1ccf5;}.e{fill:#22323b;}</style></defs><g transform="translate(0 0)"><path class="a" d="M235.425,667.438H211.9c-.355,0-.566-.531-.367-.926l1-1.969a2.239,2.239,0,0,1,1.921-1.361h3.965V646.747h10.5v16.435h3.962a2.233,2.233,0,0,1,1.92,1.361l1,1.969C235.994,666.906,235.783,667.438,235.425,667.438Z" transform="translate(-200.577 -612.601)"/><path class="b" d="M230.8,646.747V657.22a19.6,19.6,0,0,1-10.5,0V646.747Z" transform="translate(-202.47 -612.601)"/><circle class="a" cx="19.499" cy="19.499" r="19.499" transform="translate(0 38.167) rotate(-78.154)"/><g transform="translate(8.396 8.396)"><circle class="c" cx="12.417" cy="12.417" r="12.417" transform="matrix(0.204, -0.979, 0.979, 0.204, 0, 24.31)"/><circle class="d" cx="10.443" cy="10.443" r="10.443" transform="matrix(0.204, -0.979, 0.979, 0.204, 2.337, 22.785)"/><circle class="e" cx="5.181" cy="5.181" r="5.181" transform="matrix(0.203, -0.979, 0.979, 0.203, 8.565, 18.712)"/></g></g></svg>