<svg xmlns="http://www.w3.org/2000/svg" width="850.994" height="149.074" viewBox="0 0 850.994 149.074"><defs><style>.a{fill:#75bc65;stroke:#609952;stroke-width:0.569px;}.a,.b,.g{stroke-miterlimit:10;}.b{fill:none;stroke:#539144;stroke-width:0.5px;}.c,.d,.g,.i{fill:#fff;}.c{font-size:18px;}.c,.e,.f,.h,.i,.j,.k{font-family:BPGArial, BPG Arial;}.e,.f{font-size:11px;}.f,.k{fill:#f9f9f9;}.g{stroke:#000;stroke-width:0.567px;}.h{font-size:31px;}.i{font-size:16px;}.j,.k{font-size:12px;}</style></defs><g transform="translate(-251.097 -220.556)"><g transform="translate(-0.363 -84.004)"><g transform="translate(251.863 304.843)"><path class="a" d="M592.249,304.843H276.728l-24.865,24.865,24.865,24.865H592.249l24.864-24.865Z" transform="translate(-251.863 -304.843)"/><path class="b" d="M381.529,308.1H276.719L257.614,327.2l19.105,19.105H381.529l19.1-19.105Z" transform="translate(-247.429 -302.336)"/><path class="b" d="M494.247,308.1H389.437L370.332,327.2l19.105,19.105H494.247l19.1-19.105Z" transform="translate(-160.533 -302.336)"/><text class="c" transform="translate(178.682 29.452)"><tspan x="-8.073" y="0">or</tspan></text><rect class="d" width="34.324" height="27.893" rx="7.875" transform="translate(29.964 10.099)"/><text class="e" transform="translate(45.048 28.291)"><tspan x="-9.177" y="0">100</tspan></text><text class="f" transform="translate(81.153 28.291)"><tspan x="-3.212" y="0">&gt;</tspan></text><text class="f" transform="translate(282.296 28.291)"><tspan x="-3.212" y="0">=</tspan></text><rect class="d" width="34.324" height="27.893" rx="7.875" transform="translate(100.883 10.099)"/><text class="e" transform="translate(116.508 28.291)"><tspan x="-6.118" y="0">50</tspan></text><rect class="d" width="34.324" height="27.893" rx="7.875" transform="translate(230.366 10.099)"/><text class="e" transform="translate(245.449 28.291)"><tspan x="-9.177" y="0">100</tspan></text><rect class="d" width="34.324" height="27.893" rx="7.875" transform="translate(298.072 10.099)"/><text class="e" transform="translate(313.698 28.291)"><tspan x="-6.118" y="0">50</tspan></text></g><g transform="translate(368.512 375.232)"><path class="g" d="M438.879,368.147H404.273a2.466,2.466,0,0,0-.6-1.071l-9.421-9.637-11.819-12.087a2.533,2.533,0,0,0-3.62,0l-11.817,12.087-9.421,9.637a2.466,2.466,0,0,0-.6,1.071H322.359a4.628,4.628,0,0,0-4.627,4.627v39.961a4.628,4.628,0,0,0,4.627,4.627H438.879a4.628,4.628,0,0,0,4.627-4.627V372.774A4.628,4.628,0,0,0,438.879,368.147Z" transform="translate(-317.732 -344.59)"/><text class="h" transform="translate(63.316 59.178)"><tspan x="-26.709" y="0">true</tspan></text></g></g><g transform="translate(7.814 -91.3)"><g transform="translate(712.746 312.256)"><path class="a" d="M1067.93,312.256H738.692L712.746,338.2l25.946,25.946H1067.93l25.945-25.946Z" transform="translate(-712.746 -312.256)"/><path class="b" d="M847.8,315.508H738.434L718.5,335.444l19.936,19.936H847.8l19.936-19.936Z" transform="translate(-707.87 -309.498)"/><path class="b" d="M960.517,315.508H851.152l-19.936,19.936,19.936,19.936H960.517l19.936-19.936Z" transform="translate(-612.296 -309.498)"/><text class="i" transform="translate(185.102 28.036)"><tspan x="-7.176" y="0">or</tspan></text><rect class="d" width="35.816" height="29.105" rx="7.875" transform="translate(31.267 10.538)"/><text class="j" transform="translate(48.006 28.087)"><tspan x="-3.337" y="0">1</tspan></text><text class="k" transform="translate(83.551 28.087)"><tspan x="-3.504" y="0">&gt;</tspan></text><text class="k" transform="translate(293.438 28.087)"><tspan x="-3.504" y="0">=</tspan></text><rect class="d" width="35.816" height="29.105" rx="7.875" transform="translate(105.269 10.538)"/><text class="j" transform="translate(121.312 28.087)"><tspan x="-6.674" y="0">50</tspan></text><rect class="d" width="35.816" height="29.105" rx="7.875" transform="translate(240.38 10.538)"/><text class="j" transform="translate(257.12 28.087)"><tspan x="-3.337" y="0">1</tspan></text><rect class="d" width="35.816" height="29.105" rx="7.875" transform="translate(311.03 10.538)"/><text class="j" transform="translate(327.074 28.087)"><tspan x="-6.674" y="0">50</tspan></text></g><g transform="translate(845.163 384.711)"><path class="g" d="M910.817,376.046h-36.11a2.56,2.56,0,0,0-.63-1.118l-9.831-10.056-12.333-12.612a2.643,2.643,0,0,0-3.777,0l-12.331,12.612-9.831,10.056a2.56,2.56,0,0,0-.63,1.118H789.233a4.829,4.829,0,0,0-4.829,4.829v41.7a4.829,4.829,0,0,0,4.829,4.829H910.817a4.829,4.829,0,0,0,4.829-4.829v-41.7A4.829,4.829,0,0,0,910.817,376.046Z" transform="translate(-784.404 -351.465)"/><text class="h" transform="translate(65.352 60.533)"><tspan x="-32.741" y="0">false</tspan></text></g></g></g></svg>