<svg xmlns="http://www.w3.org/2000/svg" width="465.271" height="250.476" viewBox="0 0 465.271 250.476"><defs><style>.a{opacity:0.71;}.b{fill:#5998f7;stroke:#4b81d1;stroke-width:0.542px;}.b,.c{stroke-miterlimit:10;}.c{fill:#f7c042;stroke:#d1a338;stroke-width:0.621px;}.d{fill:#8f6ef6;}.e{fill:#f9a41e;}.e,.g,.i,.j,.k{fill-rule:evenodd;}.f,.h{fill:none;}.f,.h,.i,.k{stroke:#231f20;stroke-linecap:round;stroke-linejoin:round;}.f,.i{stroke-width:2.31px;}.g,.i{fill:#fff;}.h,.k{stroke-width:1.617px;}.j,.k{fill:#231f20;}.l{opacity:0.1;}</style></defs><g transform="translate(-2661.269 -2897.994)"><g class="a" transform="translate(3015.359 3051.9)"><path class="b" d="M3097.28,3040.241h-80.245l-5.233,5.05h-8.978l-5.608-4.862h-6.569a3.246,3.246,0,0,1-.555-.167,1.956,1.956,0,0,0-1.758,1.943v25.106a1.964,1.964,0,0,0,1.963,1.964h7.008q2.761,2.392,5.521,4.786h8.978l4.96-4.786h80.518a1.964,1.964,0,0,0,1.963-1.964V3042.2A1.964,1.964,0,0,0,3097.28,3040.241Z" transform="translate(-2988.333 -3040.241)"/></g><g class="a" transform="translate(2722.812 2924.722)"><path class="c" d="M2811.62,2931.936h-36.747a50.928,50.928,0,0,0-29.316-9.164c-13.731.117-23.247,7.519-27.1,10.077-.018.013-.032.029-.059.048a1.938,1.938,0,0,0-.283,1.009v25.2a1.971,1.971,0,0,0,1.97,1.97h7.034q2.77,2.4,5.542,4.8h9.013l4.979-4.8h64.966a1.971,1.971,0,0,0,1.97-1.97v-25.2A1.971,1.971,0,0,0,2811.62,2931.936Z" transform="translate(-2718.115 -2922.77)"/></g><g class="a" transform="translate(2661.269 3069.37)"><path class="d" d="M2738.148,3056.378h-48.176l-5.233,5.049h-8.978l-5.608-4.863h-6.569a3.347,3.347,0,0,1-.555-.166,1.956,1.956,0,0,0-1.758,1.942v25.108a1.963,1.963,0,0,0,1.963,1.963h7.008l5.52,4.786h8.978q2.481-2.392,4.961-4.786h48.449a1.964,1.964,0,0,0,1.964-1.963v-25.108A1.963,1.963,0,0,0,2738.148,3056.378Z" transform="translate(-2661.269 -3056.378)"/></g><g transform="translate(2810.472 2899.149)"><g transform="translate(20.653 151.066)"><path class="e" d="M2818.161,3083.455a167.776,167.776,0,0,1,50.523-44.77l49.771,24.011s-23.51,37.266-34.264,41.768c0,0-26.763-2.751-38.017-9" transform="translate(-2818.161 -3038.685)"/><path class="f" d="M2818.161,3083.455c25.261-29.764,50.523-44.77,50.523-44.77l49.771,24.011s-23.51,37.266-34.264,41.768c0,0-26.763-2.751-38.017-9" transform="translate(-2818.161 -3038.685)"/><path class="g" d="M2874.99,3046.423c-10,4.5-28.512,20.758-23.26,32.263s36.016,17.509,50.022-11.505C2912.006,3046.423,2884.994,3042.17,2874.99,3046.423Z" transform="translate(-2815.463 -3038.168)"/></g><g transform="translate(0 195.836)"><path class="e" d="M2819.737,3080.038s-15.006,17.007-19.758,31.263c-6,19.259,19.758,31.014,31.013,9.5,5.753-11.255,11.755-23.51,19.509-32.014" transform="translate(-2799.084 -3080.038)"/><path class="f" d="M2819.737,3080.038s-15.006,17.007-19.758,31.263c-6,19.259,19.758,31.014,31.013,9.5,5.753-11.255,11.755-23.51,19.509-32.014" transform="translate(-2799.084 -3080.038)"/></g><g transform="translate(62.964 199.257)"><path class="e" d="M2895.217,3110.04c-6,15.007-19.259,22.76-29.763,18.508-9-3.5-10.754-16.507-4.5-27.762,7-12.505,19.259-19.758,28.512-17.007C2898.219,3086.779,2900.219,3097.284,2895.217,3110.04Z" transform="translate(-2857.243 -3083.198)"/><path class="f" d="M2895.217,3110.04c-6,15.007-19.259,22.76-29.763,18.508-9-3.5-10.754-16.507-4.5-27.762,7-12.505,19.259-19.758,28.512-17.007C2898.219,3086.779,2900.219,3097.284,2895.217,3110.04Z" transform="translate(-2857.243 -3083.198)"/></g><g transform="translate(169.347 21.049)"><path class="e" d="M2968.133,2991.333s40.769-21.509,51.273-44.769c10.754-23.511-16.008-37.767-22.76-20.009-4.253,10.755-20.009,38.267-34.265,48.772C2948.625,2985.831,2958.129,2997.336,2968.133,2991.333Z" transform="translate(-2955.506 -2918.591)"/><path class="f" d="M2968.133,2991.333s40.769-21.509,51.273-44.769c10.754-23.511-16.008-37.767-22.76-20.009-4.253,10.755-20.009,38.267-34.265,48.772C2948.625,2985.831,2958.129,2997.336,2968.133,2991.333Z" transform="translate(-2955.506 -2918.591)"/></g><g transform="translate(1.978 141.283)"><path class="e" d="M2845.1,3030.177s-29.262-5-40.768,15.757c-13.006,23.26,14.756,30.014,22.26,13.757,9-18.259,29.262-15.758,29.262-15.758Z" transform="translate(-2800.911 -3029.648)"/><path class="f" d="M2845.063,3030.177s-30.763-5-40.768,15.757c-11.755,24.01,14.756,30.014,22.26,13.757,9-18.259,29.262-15.758,29.262-15.758Z" transform="translate(-2800.876 -3029.648)"/></g><g transform="translate(30.829)"><path class="e" d="M2907.175,2923.159c-14.007.75-26.261,7-26.261,7l-40.519-28.262,5.5,57.525s-16.258,12.006-18.259,46.02c-2,37.767,34.515,68.531,82.286,72.532,63.278,5.753,112.3-21.76,107.8-63.278-2.5-21.76-19.258-24.01-19.258-24.01s1.5-14.256-8-31.513a63.617,63.617,0,0,0-24.511-25.011l-8-35.016-25.011,25.261A199.539,199.539,0,0,0,2907.175,2923.159Z" transform="translate(-2827.561 -2899.149)"/><path class="g" d="M2943.249,2998.261c-22.01,4.252-77.534-19.508-87.038,17.008-10.755,39.517,21.509,53.273,51.272,55.774,90.289,8.254,112.8-40.017,107.8-63.278-3.5-17.257-9.254-22.01-19.259-24.01C2973.761,2979.753,2965.507,2994.26,2943.249,2998.261Z" transform="translate(-2825.368 -2892.215)"/><path class="h" d="M2872.22,2924.561l11.505,8.254" transform="translate(-2823.87 -2897.049)"/><path class="f" d="M2907.175,2923.159c-14.007.75-26.261,7-26.261,7l-40.519-28.262,5.5,57.525s-16.258,12.006-18.259,46.02c-2,37.767,34.515,68.531,82.286,72.532,63.278,5.753,112.3-21.76,107.8-63.278-2.5-21.76-19.258-24.01-19.258-24.01s1.5-14.256-8-31.513a63.617,63.617,0,0,0-24.511-25.011l-8-35.016-25.011,25.261A199.539,199.539,0,0,0,2907.175,2923.159Z" transform="translate(-2827.561 -2899.149)"/></g><g transform="translate(1.395 89.789)"><path class="f" d="M2802.221,3009.576s12.506,1.251,18.259,1.251c5.752-.251,16.507-1.251,16.507-1.251" transform="translate(-2800.22 -2979.813)"/><path class="f" d="M2837.889,3000.093a102.289,102.289,0,0,0-18.259-10.755c-12.505-5.753-19.258-7.254-19.258-7.254" transform="translate(-2800.373 -2982.085)"/></g><g transform="translate(149.835 43.491)"><path class="i" d="M2974.875,2956.356c8.5,13.756,8.5,29.012,0,34.514s-22.26-1.5-31.014-15.256c-8.5-13.756-8.5-29.012,0-34.514C2952.365,2935.847,2966.371,2942.6,2974.875,2956.356Z" transform="translate(-2937.484 -2939.32)"/><path class="j" d="M2969.025,2963.831c1,3.251-1,6.5-3.751,7-2.752.75-6-1.25-6.753-4.5-1-3.251,1-6.5,3.751-7s5.753,1.5,6.753,4.5" transform="translate(-2935.767 -2937.673)"/></g><g transform="translate(72.282 52.801)"><path class="i" d="M2908.012,2963.9c8.5,13.756,7.253,30.014-2.751,36.266s-25.261.25-33.765-13.506-7.253-30.013,2.751-36.266S2899.508,2950.142,2908.012,2963.9Z" transform="translate(-2865.85 -2947.92)"/><path class="j" d="M2901.123,2972.257a5.608,5.608,0,0,1-5.5,5.752c-2.752,0-5.5-2.751-5.5-6a5.609,5.609,0,0,1,5.5-5.752,5.825,5.825,0,0,1,5.5,6" transform="translate(-2863.844 -2946.405)"/></g><g transform="translate(128.696 97.886)"><path class="k" d="M2935.321,2990.721c5-.75,14.007-3.251,15.008,2.751,0,2.5-5,12.755-11.255,13.006-6,.25-17.007-6.754-16.258-11.505C2923.567,2990.471,2930.82,2991.471,2935.321,2990.721Z" transform="translate(-2917.559 -2989.564)"/><path class="f" d="M2956.479,3013.735c.25,6-39.017,10.5-38.517,2.75" transform="translate(-2917.958 -2987.567)"/></g><g class="l" transform="translate(52.167 159.82)"><path class="k" d="M2854.022,3046.771c-2,1.5-4.251,3.251-6.752,5" transform="translate(-2847.27 -3046.771)"/><path class="k" d="M2908.353,3065.021c-1,1.5-2.5,3.752-4.251,6" transform="translate(-2842.574 -3045.263)"/></g><g transform="translate(206.234 95.541)"><path class="f" d="M2989.578,2998.9s13.756-2,20.76-4.252a44.488,44.488,0,0,0,14.006-7.253" transform="translate(-2989.578 -2987.398)"/><path class="f" d="M2990.5,3014.659a70.668,70.668,0,0,0,16.508,4.5,94.626,94.626,0,0,0,14.006.75" transform="translate(-2989.501 -2985.146)"/></g></g></g></svg>