<svg xmlns="http://www.w3.org/2000/svg" width="528" height="341.11" viewBox="0 0 528 341.11"><defs><style>.a{fill:#b6d7db;opacity:0.49;}.b{fill:#75bc65;stroke:#609952;stroke-miterlimit:10;stroke-width:1.326px;}.c{fill:#539144;}.d{fill:#fff;font-size:49px;font-family:BPGArial, BPG Arial;}</style></defs><g transform="translate(-301.361 -340.184)"><path class="a" d="M351.773,461.736c4.937-2.978-.125-36.2-.014-42.344.54-29.91,13.108-60.791,42.262-72.414,25.324-10.1,56.1-8.063,81.6.365a131.119,131.119,0,0,1,41.688,23.288c5.387,4.408,43.436,39.8,39.458,45.86,38.784-59.1,150.519-46.171,150.519-46.171,53.234,6.962,126.179,58.577,121.892,132.05-3.62,62.055-61.033,117.367-134.819,119.121a206.263,206.263,0,0,1-30.473,23.086c-70.658,43.818-185.366,54.851-231.781-2.769-7.989-9.918-19.318-28.528-21.238-60.946-38.205,22.335-81.3,16.859-98.806-4.618C290.771,550.122,299.883,491.175,351.773,461.736Z" transform="translate(0 0)"/><g transform="translate(349.261 455.461)"><path class="b" d="M727.2,414.7H383.007L332.323,465.38l50.684,50.684H727.2l50.683-50.684Z" transform="translate(-332.323 -414.696)"/><path class="c" d="M426.488,422.285H386.421l-38.944,38.944,38.944,38.943h40.067l38.943-38.943Z" transform="translate(-324.032 -410.545)"/><path class="c" d="M610.282,422.285H570.215l-38.944,38.944,38.944,38.943h40.067l38.943-38.943Z" transform="translate(-223.48 -410.545)"/><text class="d" transform="translate(221.574 64.592)"><tspan x="-21.976" y="0">or</tspan></text></g></g></svg>