<svg xmlns="http://www.w3.org/2000/svg" xmlns:xlink="http://www.w3.org/1999/xlink" width="1366" height="771" viewBox="0 0 1366 771"><defs><style>.a,.f,.n{fill:none;}.b{fill:#d2c3db;}.c{fill:#eadff1;}.d,.w{fill:#000;}.e{fill:#b3b3b3;}.f{stroke:#000;stroke-width:12.476px;}.f,.n,.w{stroke-miterlimit:10;}.g{fill:#060606;}.h{fill:#ccc;}.i{opacity:0.18;}.j{clip-path:url(#a);}.k{fill:#edba49;}.l{opacity:0.3;}.m{opacity:0.5;}.n{stroke:#947dce;stroke-width:0.837px;}.o{opacity:0.2;}.p{fill:#d8a35d;}.q{fill:#62548a;}.r{fill:#d19442;}.s{fill:#ffc84f;}.t{fill:#947dce;}.u{opacity:0.15;}.v{opacity:0.1;}.w{stroke:#4f3b65;stroke-width:7.018px;}</style><clipPath id="a"><path class="a" d="M-48.229,1651.362s-.7-15.712,1.15-17.9,63.955-15.648,63.955-15.648L34.7,1632.163Z"/></clipPath></defs><g transform="translate(1037.992 -1057.407)"><path class="b" d="M328.008,1066.943v758.464L85.78,1757.82l-32.991-6.263,1.636-558.092,30.118-25.56Z"/><path class="b" d="M-721.7,1182.878l-16.051,556.371-300.045,74.4V1063.594l298.845,93.57Z"/><path class="c" d="M-340.015,1146.478H-764.623v617.384H84.543V1146.478Z"/><path class="d" d="M-1037.992,1118.187c121.657,30.38,335.7,73.888,615,80.372,352.971,8.194,622.429-47.1,751-78.7v-62.454h-1366Z"/><path class="d" d="M-1037.992,1780.09c121.657-29.39,335.7-71.48,615-77.753,352.971-7.927,622.429,45.568,751,76.133v47.19l-1365.8,2.747Z"/><path class="e" d="M-79.443,1638.5H-493.048l60.117-72.14h305.395Z"/><rect class="e" width="19.237" height="165.923" transform="translate(-478.62 1638.499)"/><rect class="e" width="13.226" height="195.982" transform="translate(-434.134 1566.359)"/><rect class="e" width="13.226" height="195.982" transform="translate(-141.965 1566.359)"/><line class="f" y2="100.112" transform="translate(70.062 1672.715)"/><ellipse class="g" cx="23.542" cy="4.938" rx="23.542" ry="4.938" transform="translate(46.52 1768.468)"/><path class="h" d="M124.542,1629.885c-4.656,14.779-14.879,27.5-27.739,36.005a58.786,58.786,0,0,1-12.446,6.226c-12.1,4.417-25.373,5.18-38.355,4.755-1.9-.061-23.62-.874-24.228-5.856-.741-6.054,30.1-14.8,55.876-21.159,11.528-10.1,16.62-20.132,19.075-26.606.885-2.339,2.72-7.625,5.131-29.271.995-8.962,1.653-16.791,2.1-23.084.132-1.924.248-3.7.348-5.33C125.006,1578.94,131.7,1607.144,124.542,1629.885Z"/><path class="i" d="M69.819,1656.756s-.051.038-.151.109c-1.662,1.18-13.674,11.387-39.073,12.358-26.936,1.03,55.194-38.505,55.194-38.505Z"/><g class="j"><path class="k" d="M74.9,1658.525s-.034,0-.084,0c-1.141.029-14.218.3-31.365.6-33.839.579-81.845,7.8-96.181,13.153-3.093,1.158-1.961-48.887-1.961-48.887,34.769-2.7,96.084-3.726,98.658-6.172,2.745-2.6,19.694-2.294,23.792-2.181.569.014.892.027.892.027l.028.239,3.13,29.328c.008.052.01.074.01.074C72.8,1652.327,73.847,1657.654,74.9,1658.525Z"/><g class="l"><path class="m" d="M74.9,1658.525s-.034,0-.084,0c-1.141.029-14.218.3-31.365.6a9.029,9.029,0,0,1,.047-1.264,9.782,9.782,0,0,1,3.8-6.622,20.209,20.209,0,0,1,4.694-2.809c11-7.179,14.59-23.322,15.769-33.392.569.014.892.027.892.027l.028.239c.85,12.28,2.968,28.109,3.13,29.328.008.052.01.074.01.074C72.8,1652.327,73.847,1657.654,74.9,1658.525Z"/></g><line class="n" x1="125.141" y2="6.789" transform="translate(-54.861 1628.167)"/><line class="n" y1="8.61" x2="126.061" transform="translate(-54.873 1639.422)"/><line class="n" x1="126.547" y2="11.884" transform="translate(-54.544 1650.49)"/><path class="n" d="M61.1,1658.8"/><path class="n" d="M43.965,1617.217"/><path class="n" d="M45.546,1616.831s-4.345,22.879,2.172,42.214"/><path class="n" d="M34.163,1618.695s-6.673,9.916,1.132,41.265"/><path class="n" d="M23.1,1619.758s-4.866,13.583,1.729,40.218"/><path class="n" d="M10.752,1620.022s-4.324,20.739,3,40.77"/><path class="n" d="M.53,1620.481s-6.9,20.359,3.054,41.456"/><path class="n" d="M-10.693,1620.974s-4.891,19.259,3.118,42.333"/><path class="n" d="M-21.472,1621.463s-5.595,16.343,3.2,43.377"/><path class="n" d="M-30.988,1622.164s-7.837,19.491,2.286,44.407"/><path class="n" d="M-42.917,1622.588a91.469,91.469,0,0,0,2.9,46.22"/><path class="o" d="M-49.241,1654.149s-1.912-9.471,4.483-10.522,34.169-7.068,39.724-10.308,17.726-17.492,17.726-17.492l33.887,12.443s-38.652,18.7-40.735,19.28S-49.241,1654.149-49.241,1654.149Z"/></g><path class="p" d="M-61.844,1663.733s-37.984,97.526-42.653,97.442c-8.4-.1-40.432-2.441-8.918,8.809,15.287,7.835,15.674,3.821,17.224.956,1.265-2.341,11.134-19.994,14.7-26.376.8-1.429,36.731-74.974,36.731-74.974Z"/><path class="q" d="M-90.125,1761c.705-1.513-13.365-3.733-15.038-2.85s-22.911.058-24.556,6.842,31.009,11.3,33.273,11.842S-91.509,1763.97-90.125,1761Z"/><path class="p" d="M-30.5,1670.516s41.591,69.637,52.346,89.647c-.695,3.461-.829,3.832-1.438,4.009-8.053,2.38-39.352,9.6-5.921,11.048,16.918,2.974,16.1-.975,16.739-4.169.243-1.226.772-4.535,1.986-10.249-2.064-6.761-46.045-94.221-46.045-94.221Z"/><path class="q" d="M34.189,1759.412c.261-1.648-13.876.095-15.241,1.405s-22.008,6.37-21.719,13.345,32.923,2.319,35.248,2.213S33.677,1762.651,34.189,1759.412Z"/><path class="r" d="M-8.768,1482.352s8.574,9.3,17.21,8.39S-1.551,1501.8-1.551,1501.8s-4.782-9.683-10.008-13.206S-8.768,1482.352-8.768,1482.352Z"/><path class="p" d="M-59.964,1660.4c4.354-5.236,97.485-37.733,97.485-37.733l37.015,28.548s-121.314,18.729-122.765,21.632S-64.319,1665.635-59.964,1660.4Z"/><path class="s" d="M91.182,1653.358s-.032.009-.081.02c-1.1.323-36.366,6.8-52.85,11.533-32.534,9.325-77.032,28.73-89.491,37.617-2.689,1.92-14.557-46.711-14.557-46.711,32.883-11.611,91.84-28.486,93.693-31.515,1.977-3.225,18.427-7.317,22.415-8.269.553-.134.868-.206.868-.206l.089.225,10.619,27.516c.022.048.029.069.029.069C64.843,1650.747,89.94,1652.79,91.182,1653.358Z"/><g class="l"><path class="m" d="M91.182,1653.358s-.032.009-.081.02c-1.1.323-36.366,6.8-52.85,11.533a9.041,9.041,0,0,1-.282-1.233,9.783,9.783,0,0,1,1.953-7.38,20.283,20.283,0,0,1,3.806-3.929c8.761-9.781,8.052-26.3,6.583-36.336.553-.134.868-.206.868-.206l.089.225c4,11.64,10.147,26.38,10.619,27.516.022.048.029.069.029.069C64.843,1650.747,89.94,1652.79,91.182,1653.358Z"/></g><line class="n" x1="119.112" y2="38.971" transform="translate(-62.964 1628.064)"/><line class="n" y1="40.968" x2="119.529" transform="translate(-59.589 1638.7)"/><path class="n" d="M77.352,1649.424l-10.992,1.8a155.433,155.433,0,0,0-28.937,7.673l-92.979,34.535"/><path class="n" d="M55.219,1660.028"/><path class="n" d="M27.9,1624.3"/><path class="n" d="M29.322,1623.522s1.729,23.223,13.032,40.211"/><path class="n" d="M18.81,1628.27s-3.877,11.306,11.782,39.564"/><path class="n" d="M8.4,1632.163s-1.182,14.379,12.087,38.4"/><path class="n" d="M-3.459,1635.616s1.2,21.151,13.461,38.6"/><path class="n" d="M-13.213,1638.707s-1.387,21.451,13.688,39.25"/><path class="n" d="M-23.925,1642.09s.265,19.869,13.977,40.081"/><path class="n" d="M-34.209,1645.354s-1.172,17.235,14.322,41.07"/><path class="n" d="M-43.219,1648.5s-2.521,20.856,13.71,42.3"/><path class="n" d="M-54.631,1651.995a91.467,91.467,0,0,0,14.767,43.893"/><path class="p" d="M-116.869,1587.771a67.28,67.28,0,0,0-18.884,4.771,67.308,67.308,0,0,0-16.8,10.038l31.507.994a9.646,9.646,0,0,1,2.485-3.777,10.06,10.06,0,0,1,6.56-2.584Z"/><path class="s" d="M-18.76,1471.416s13.772,17.638,15.235-.669C-2.367,1456.267-28.155,1458.856-18.76,1471.416Z"/><path class="s" d="M-14.522,1468.694s-6.2-.05-10.119,2.248c-1.187.695-2.8.471-3.166,1.961,0,0,4.475-15.7,14.688-11.9s12.771,4.984,3.838,23.547C-9.281,1484.551-4.884,1470.437-14.522,1468.694Z"/><path class="s" d="M-20.942,1459.532s4.719-4.949,12.653-.848c5.394,2.789,6.678,7.583,6.126,11.08s.49,5.422,1.28,5.757c0,0-3.378,1.365-3.833.239,0,0,.79,1.914-3.3,6.592A5.249,5.249,0,0,0-9.961,1476C-13.577,1473.529-20.942,1459.532-20.942,1459.532Z"/><path class="p" d="M-27.206,1471.317a17.062,17.062,0,0,1,1.69,5.405,26.4,26.4,0,0,1-.13,6.335c-.133,1.381-.3,2.524-.431,3.322l3.583.721a8.136,8.136,0,0,0,3.3,4.458c7.511,5.294,14.666-6.736,10.713-13.045.047.074.963-.73,1.017-.789a3.39,3.39,0,0,0,.913-2.021,1.707,1.707,0,0,0-.233-1.037,2.015,2.015,0,0,0-1.539-.8c-1.276-.126-1.459.835-1.992,1.744-.641-.848.311-4.329-.329-5.177a6.3,6.3,0,0,1-3.413-.26c-1.826-.71-2.135-1.972-4.663-3.864-1.639-1.225-3.118-2.8-4.074-2.388-1.156.495-2.166,1.17-3.739,3.347C-27.332,1468.382-26.581,1470.955-27.206,1471.317Z"/><path class="s" d="M-17.088,1459.475s-1.911-3.039-6.254-.91a6.9,6.9,0,0,0-2.751,2.6,11.694,11.694,0,0,1-4.691,3.93s.568,1.073,2.462.756c-.784.131-1.03,3.308-1.065,3.827-.128,1.942.189,4.9,1.852,6.188.542-2.254.61-4.349,1.716-6.5a18.585,18.585,0,0,1,4.552-5.361C-20.973,1463.752-17.009,1459.6-17.088,1459.475Z"/><path class="t" d="M90.686,1665.728c-7.532,3.01-24.8-7.18-59.359-27.562-14-8.253-25.073-15.338-38.417-14.655-1.14.057-2.28.171-3.457.342a38.018,38.018,0,0,0-5.4,1.216,43.834,43.834,0,0,0-13.173,6.734c-.028-.39-.047-.789-.076-1.2-.427-6.753-.826-15.348-.978-25.311-.019-1.453-.038-2.972-.048-4.549-.389-28.606-.18-74.735,16.431-88.744a90.171,90.171,0,0,0,9.754-9.2c.978-1.082,1.994-2.251,3.02-3.514a86.771,86.771,0,0,0,7.95-11.663c.455.086.93.181,1.405.276a116.731,116.731,0,0,1,42.6,17.741c43.033,29.29,50.175,77.983,51.942,90.121C105.92,1616.5,107.487,1659.013,90.686,1665.728Z"/><path class="u" d="M7.673,1614.764a92.985,92.985,0,0,0-14.759,8.747c-1.139.057-2.288.171-3.466.342a37.844,37.844,0,0,0-5.385,1.216c-.285-5.622-.532-12.176-.636-19.451-.019-1.453-.038-2.972-.058-4.549,14.883-25.073,45.949-73.548,49.539-47.924C37.647,1586.994,25.168,1606.416,7.673,1614.764Z"/><path class="t" d="M-120.6,1586.034c-.185,1.359,1.274,1.995,3.71,7.421a49.927,49.927,0,0,1,2.651,7.421c12.875.769,23.54,13.548,30.875,17.87,12.858,7.578,33.368,17.116,54.6,12.722,12.153-2.515,20.145-8.907,30.215-16.963a130.94,130.94,0,0,0,32.865-39.226c.792-2.64,10.742-37.771-11.132-60.43-2.868-2.972-10.24-10.609-19.613-11.662-21.335-2.4-47.977,29.881-63.081,81.1-7.856-2.044-16.818-3.7-32.479-4.748C-106.957,1579.434-115.036,1580.819-120.6,1586.034Z"/><path d="M-215.918,1539.864l2.584-1.391,35.582,63.412-.994,3.181Z"/><path d="M-106.388,1605.065v-3.181h-71.363l-.994,3.181Z"/><path class="u" d="M8.343,1487.9a8.116,8.116,0,0,1-1.168,3.267c-1.6,2.156-1.2,7.987-2.194,9.773s-.389,3.58-6.5,2.317c-.922-.19-1.757-.342-2.517-.456.978-1.082,1.994-2.251,3.02-3.514a86.771,86.771,0,0,0,7.95-11.663C7.393,1487.708,7.868,1487.8,8.343,1487.9Z"/><path class="h" d="M65.629,1659.844s20.948-17.531,24.026-23.271,10.484-22.172,10.484-22.172l5.323-16.2,6.058,36.386-7.833,19.9-6.191,6.464-6.972,6.264-9.6-.421Z"/><path class="g" d="M27.32,1669.381c5.249-.154,31.827-1.09,52.065-23,26.175-28.34,23.254-74,22.907-78.651-.239-1.546.455-2.81,1.211-2.991.837-.2,2.248.808,2.5,2.69.368,4.285,4.092,54.364-24.447,80.986C59.122,1669.339,32.271,1669.523,27.32,1669.381Z"/><path class="v" d="M124.542,1629.885c-4.656,14.779-14.879,27.5-27.739,36.005a58.786,58.786,0,0,1-12.446,6.226c9.742-7.36,18.765-15.874,25.555-25.473,11.451-16.183,16.045-37.968,7.857-56.578a57.3,57.3,0,0,0-13.817-19.17c.132-1.924.248-3.7.348-5.33C125.006,1578.94,131.7,1607.144,124.542,1629.885Z"/><rect class="e" width="19.237" height="165.923" transform="translate(-111.906 1638.499)"/><path class="w" d="M114.029,1277.645v205.776c0,.352.351.653.828.708l68.944,8,21.89,2.53,79.581,9.238c.6.069,1.136-.267,1.136-.708v-245.32c0-.441-.54-.777-1.136-.708l-79.581,9.238-21.89,2.53-68.944,8C114.38,1276.992,114.029,1277.293,114.029,1277.645Z"/><path class="w" d="M-824.014,1277.645v205.776c0,.352-.351.653-.827.708l-68.945,8-21.889,2.53-79.582,9.238c-.6.069-1.135-.267-1.135-.708v-245.32c0-.441.539-.777,1.135-.708l79.582,9.238,21.889,2.53,68.945,8C-824.365,1276.992-824.014,1277.293-824.014,1277.645Z"/></g></svg>