<svg xmlns="http://www.w3.org/2000/svg" width="1366" height="771" viewBox="0 0 1366 771"><defs><style>.a{fill:#d2c3db;}.b{fill:#eadff1;}.c,.o{fill:#000;}.d,.f{fill:#d8a35d;}.d{fill-rule:evenodd;}.e{fill:#d29647;}.g{fill:#d19442;}.h{fill:#947dce;}.i{fill:#ffc84f;}.j{opacity:0.15;}.k{fill:#62548a;}.l{opacity:0.3;}.m{opacity:0.5;}.n,.v{fill:none;}.n{stroke:#947dce;stroke-width:0.823px;}.n,.o{stroke-miterlimit:10;}.o{stroke:#4f3b65;stroke-width:7.018px;}.p{fill:#70cbd2;}.q{fill:#32429b;}.r{fill:#db6fab;}.s{fill:#f7b3d1;}.t{fill:#bddd9d;}.u{fill:#f8ec22;}.w{fill:#65b8e7;}.x{fill:#ef463c;}.y{fill:#30419a;}.z{fill:#fbae5a;}.aa{fill:#79c8a2;}</style></defs><g transform="translate(-1942.054 -1058.093)"><path class="a" d="M3308.054,1067.63v758.464l-242.228-67.586-32.991-6.263,1.636-558.092,30.118-25.56Z"/><path class="a" d="M2258.351,1183.564,2242.3,1739.935l-300.044,74.4V1064.281l298.845,93.571Z"/><path class="b" d="M2640.032,1147.164H2215.424v617.384h849.165V1147.164Z"/><path class="c" d="M1942.054,1118.873c121.657,30.38,335.7,73.888,615,80.372,352.971,8.194,622.428-47.1,751-78.7v-62.454h-1366Z"/><path class="c" d="M1942.054,1780.777c121.657-29.39,335.7-71.481,615-77.753,352.971-7.928,622.428,45.568,751,76.133v47.19l-1365.8,2.746Z"/><path class="d" d="M2712.874,1580.081c-.595.75-9.25,7.8-11.468,12.524s-5.066,11.948-6.7,14.21c-1.917,2.66-1.01,3.836,1.531.891a51.333,51.333,0,0,0,5.018-6.98c.2-.481-1.383,2.545-3.352,5.744-2.092,3.4-4.572,7.013-3.983,7.432,1.141.814,7.83-8.742,8.707-10.535a49.954,49.954,0,0,1-2.377,4.7c-1.2,2.077-2.9,4.337-2.624,5,.44,1.051,4.671-3.762,6.992-8.164.179-.026-.129,1.556-3.236,6.6-.312.507-.578,1.989.9.495,3.114-3.146,4.686-4.268,6.838-9.681,2.1-5.279,3.134-11.569,5.812-14.943Z"/><path class="d" d="M2703.969,1589.388s-5.838,2.561-8.235,6.944c-1.424,2.6-2.095,2.288-2.473,2.684-1.252,1.312,2.193.85,3.785-1.224,1.294-1.686,4.934-1.572,6.039-2.467s3.611-3.862,3.473-4.879S2703.969,1589.388,2703.969,1589.388Z"/><path class="e" d="M2848.331,1651.793s-10.214,105.4-5.871,107.213c7.792,3.306,38.308,14.118,4.664,11.742-17.282,1.041-16.014-2.82-16.284-6.092-.221-2.673.286-97-.424-104.336l-.255-2.636Z"/><path class="f" d="M2777.095,1641.937s55.168,89.918,52.256,93.616c-5.2,6.68-26.593,30.978,1.64,12.527,15.6-7.5,12.618-10.258,11.261-13.247-1.108-2.443-9.271-21.122-12.221-27.875-.661-1.513-37.824-75.172-37.824-75.172Z"/><path class="g" d="M2818.866,1379.809s-.9,10.043,5.295,15.6-14.277,0-14.277,0,3.81-9.62,2.955-15.6S2818.866,1379.809,2818.866,1379.809Z"/><ellipse class="f" cx="10.83" cy="14.777" rx="10.83" ry="14.777" transform="translate(2804.768 1354.15)"/><path class="h" d="M2886.234,1476.44c-.181,2.8-2.444,13.2-5.627,24.5-.938,3.373-1.966,6.82-3.044,10.176-1.308,4.088-2.69,8.029-4.088,11.509-2.715,6.745-5.5,11.763-7.922,12.742-8.177,3.291-69.916,7.807-82.609,1.752-.3-.222-.617-.46-.922-.723-4.763-3.875-9.929-11.526-12.668-18.691,0-.008-7.3-20.574-8.786-24.761-.017-.041-.025-.074-.041-.107-.05-.164-.107-.321-.165-.469-.016-.057-.041-.107-.057-.164-7.684,26.233-28.126,83.851-44.661,102.1-1.736,1.917-9.724-8.835-9.724-8.835s-13.351-68.945,21.479-141.806c16.4-34.3,45.656-49.942,64.338-54.1,8.087-1.8,14.191-1.448,16.42.477a12.114,12.114,0,0,0,7.56,2.937,16.373,16.373,0,0,0,4.245-.387,21.088,21.088,0,0,0,4.5-1.53c.691-.321,1.094-.551,1.094-.551a43.887,43.887,0,0,1,11.435.682C2879.258,1399.474,2886.612,1470.344,2886.234,1476.44Z"/><path class="i" d="M2780.116,1534.688a6.678,6.678,0,0,0,3.79,1.748c8.9.175,47.357.833,68.217-.366,7.36-.423,12.529-1.077,13.437-2.07a.841.841,0,0,1-.006.085c-.055,1.15-.715,14.314-1.641,31.569-1.827,34.063,1.693,82.848,5.807,97.656.887,3.2-46.891-1.645-46.891-1.645-.133-35.152,3.2-96.864,1.048-99.63-2.62-3.365-6.87,50.916-11.742,96.339-18.92,4.936-48.882,1.939-48.535,0C2767.713,1635.34,2780.116,1534.688,2780.116,1534.688Z"/><path class="j" d="M2760.309,1492.2c.017.057.041.107.058.164.057.148.115.305.164.469.017.033.025.066.041.107,1.489,4.187,8.786,24.753,8.786,24.761,2.74,7.166,7.906,14.816,12.669,18.691-3.233-11.706-13.311-45.64-12.924-59.312C2767.178,1490.26,2760.309,1492.193,2760.309,1492.2Z"/><path class="j" d="M2880.607,1500.938c-.938,3.373-1.966,6.82-3.044,10.176-1.308,4.088-2.69,8.029-4.088,11.509-24.178-28.949-10.991-68.312-10.991-68.312s10.217,34.172,10.324,35.135C2872.841,1489.791,2876.239,1494.719,2880.607,1500.938Z"/><path class="j" d="M2816.435,1395.41c.033.979-.485,1.621-2.056,1.407-4.9-.666-10.44-.526-14.462,1.316a3.414,3.414,0,0,1-3.307-.14c-2.575-1.505-4.171-6-4.8-7.987a1.357,1.357,0,0,1-.066-.436c8.086-1.8,14.19-1.448,16.42.477a12.111,12.111,0,0,0,7.56,2.937A6.675,6.675,0,0,1,2816.435,1395.41Z"/><path class="k" d="M2840.242,1728.233c-.564-1.427-9.954,3.967-10.422,5.644s-17.152,16.068-13.66,21.458,27.164-13.567,28.957-14.738S2841.352,1731.038,2840.242,1728.233Z"/><path class="k" d="M2830.233,1755.445c-.2-1.522,12.76.409,13.985,1.645s20.093,6.369,19.666,12.777-30.333,1.37-32.469,1.219S2830.629,1758.436,2830.233,1755.445Z"/><g class="l"><path d="M2815.618,1536.776l-.429-.036S2815.341,1536.751,2815.618,1536.776Z"/><path class="m" d="M2815.618,1536.776c11.459.914,36.505-.706,36.505-.706,7.36-.423,12.529-1.077,13.437-2.07a.841.841,0,0,1-.006.085c-.055,1.15-.715,14.314-1.641,31.569a8.451,8.451,0,0,1-1.2-.139,9.378,9.378,0,0,1-6.064-4.309,20.841,20.841,0,0,1-2.359-4.925C2845.743,1540.024,2819.289,1537.1,2815.618,1536.776Z"/></g><path class="i" d="M2811.528,1360.445s18.75,10.4,13.185-6.3C2820.863,1342.6,2798.741,1353,2811.528,1360.445Z"/><path class="i" d="M2814.247,1356.457s-10.491,6.225-9.479,12.469c0,0-2.313-18.643,8.118-19.111s14.469.538,13.543,20.252C2826.429,1370.067,2823.4,1354.385,2814.247,1356.457Z"/><path class="i" d="M2812.431,1349.936s.527-5.809,6.285-4.986,8.227,4.113,9.049,7.4,1.646,5.758,2.468,5.758c0,0-2.468,2.468-3.29,1.645,0,0,2.135,5.917-.578,10.774,0,0-1.068-7.483-5.181-8.306S2812.431,1349.936,2812.431,1349.936Z"/><path class="i" d="M2812.958,1349.886s-4.113-2.468-8.227,3.29l-2.467,4.936s.822.823,2.467,0c0,0-.749,5.8.037,9.068l2.431-9.891Z"/><path class="d" d="M2939.7,1586.683c.431.7,7.095,7.6,8.506,11.855s3.1,10.711,4.262,12.807c1.364,2.465.471,3.376-1.4.6a44,44,0,0,1-3.569-6.467c-.118-.431.92,2.313,2.273,5.242,1.439,3.115,3.186,6.45,2.641,6.748-1.057.578-5.789-8.257-6.354-9.877a43.009,43.009,0,0,0,1.548,4.255c.809,1.894,2.035,4,1.728,4.537-.483.851-3.6-3.687-5.132-7.679-.15-.041-.049,1.34,2.087,5.96.215.465.29,1.756-.82.331-2.336-3-3.562-4.12-4.846-8.958-1.252-4.717-1.493-10.19-3.433-13.341Z"/><path class="d" d="M2947.287,1596.543s4.72,2.782,6.317,6.765c.95,2.368,1.555,2.167,1.836,2.543.935,1.247-1.957.5-3.1-1.431-.932-1.57-4.049-1.844-4.9-2.72s-2.687-3.664-2.465-4.518S2947.287,1596.543,2947.287,1596.543Z"/><line class="n" x1="12.133" y2="126.868" transform="translate(2776.339 1533.856)"/><line class="n" x1="12.041" y2="124.659" transform="translate(2788.472 1536.394)"/><line class="n" x1="10.013" y2="123.788" transform="translate(2802.27 1536.394)"/><line class="n" x2="0.258" y2="25.641" transform="translate(2823.619 1536.394)"/><line class="n" x1="2.323" y2="126.296" transform="translate(2833.879 1536.394)"/><line class="n" x1="0.647" y2="127.355" transform="translate(2846.383 1536.314)"/><line class="n" x2="2.45" y2="128.087" transform="translate(2857.673 1536.314)"/><path class="n" d="M2778.475,1547.886s68.324,3.225,86.376,0"/><path class="n" d="M2823.877,1562.035c-23.905,5.414-46.782-3.145-46.782-3.145"/><path class="n" d="M2823.619,1560.417s21.574,6.062,40.524.943"/><path class="n" d="M2775.919,1568.187s17.228,9.02,45.21,4.422"/><path class="n" d="M2774.509,1579.26s26.809,8.185,45.295,3.973"/><path class="n" d="M2773.095,1590.26s13.653,10.7,45.31,5.9"/><path class="n" d="M2771.449,1602.914a66.422,66.422,0,0,0,45.919,3.459"/><path class="n" d="M2769.919,1614.505s14.745,10.467,46.209,4.387"/><path class="n" d="M2768.318,1626.388s20.352,10.639,46.871,2.044"/><path class="n" d="M2767.038,1635.662s12.007,11.548,47.135,2.987"/><path class="n" d="M2765.528,1646.188s19.415,10.229,47.608,2.665"/><path class="n" d="M2824.6,1572s9.013,7.443,39.543,1.918"/><path class="n" d="M2824.837,1583.2s12.647,5.9,38.584,1.24"/><path class="n" d="M2824.22,1595.629s19.528,5.882,39.2,0"/><path class="n" d="M2823.939,1605.938s18.984,8.44,39.86,0"/><path class="n" d="M2823.619,1617.257s18.074,6.342,40.7,0"/><path class="n" d="M2823.328,1628.127s15.234,6.835,41.708,0"/><path class="n" d="M2823.328,1637.745s18.088,9.321,42.628.99"/><path class="n" d="M2822.893,1649.768a83.621,83.621,0,0,0,44.405.513"/><path class="h" d="M2865.956,1434.541s-53.044-41.977-40.4-44.025,33.339,2.927,33.339,2.927c18.683,4.154,36.52,18.192,52.915,52.487,34.83,72.861,32.9,143.416,32.9,143.416s-8.065,10.819-9.724,8.835c-30.773-36.821-50.561-73.784-58.909-98.653S2865.956,1434.541,2865.956,1434.541Z"/><path class="o" d="M3101.481,1310.243v205.775c0,.353.351.654.828.709l68.944,8,21.89,2.53,79.581,9.238c.6.069,1.135-.267,1.135-.709V1290.471c0-.441-.539-.778-1.135-.708L3193.143,1299l-21.89,2.53-68.944,8C3101.832,1309.59,3101.481,1309.89,3101.481,1310.243Z"/><path class="o" d="M2163.438,1310.243v205.775c0,.353-.351.654-.827.709l-68.945,8-21.889,2.53-79.582,9.238c-.6.069-1.135-.267-1.135-.709V1290.471c0-.441.539-.778,1.135-.708l79.582,9.238,21.889,2.53,68.945,8C2163.087,1309.59,2163.438,1309.89,2163.438,1310.243Z"/><path class="p" d="M2058.194,1418.811h8.19l15.269.279,7.055-.139.469-5.784,1.17-9.73,1.122-5.4,1.031-3.709v-3.593l-.588-3.459-2.033-.875a10.031,10.031,0,0,0-2.107-.234c-.093.14-2.621,1.357-2.621,1.357l-3.931,2.048-4.633,1.708-4.576.425-3.614.389-.562,4.613s.375,2.331.375,2.471-.095,2.441-.095,2.441l-.654,1.337-2.133.482H2061.7l-1.45-.921-.374-2.244.14-2.236s2.012-.593,2.246-.588,3.333,0,3.333,0h3.174l.441-2.515-.213-2.448-2.617-.863-5.565-1.489-3.885-1.309-1.548-.42-.749.859s-.982,3.246-.935,3.222.421,2.821.421,2.821l.571,3.281,1.147,1.382s.106,2.612.2,2.938.655,7.09.655,7.09l1.4,6.762Z"/><path class="p" d="M2087.734,1425.16l-16.693-.334H2060.3l-3.931.7-1.756,5.945s5.406,1.98,5.827,1.865,9.1,2.332,9.1,2.332,3.748.56,3.958.56,3.089-.872,3.089-.872l4.633.382,6.025-2.728,2.61-2.483.38-2.41-1.268-2.662Z"/><path class="q" d="M2090.5,1411.7c.282-1.72.673-3.422.922-5.145.231-1.6.345-3.226.494-4.841l.22-3.674a.453.453,0,0,1-.07-.067c-.324-.5-.751-1.008-1.34-.612a2.477,2.477,0,0,0-1.088,1.416c-.259,1.907-.315,3.841-.487,5.76-.144,1.621-.355,3.233-.508,4.853-.107,1.148-.106,2.309-.266,3.448-.222,1.577-.52,3.147-.868,4.7-.049.221-.548.464-.852.483a25.061,25.061,0,0,1-3.1.031c-2.7-.162-5.4-.376-8.1-.579a2.082,2.082,0,0,1-.5-.2,4.853,4.853,0,0,1-.042-.914q-.2-4.353-.4-8.707t-.4-8.716l-.2-4.362c-.044-.957.168-2.505-.789-3.111a1.163,1.163,0,0,0-1.462.174,1.372,1.372,0,0,0-.366.789,3.16,3.16,0,0,0,.018.39c0,.1-.036.242-.023.34.023.175.2.338.289.507a3.2,3.2,0,0,1,.263,1.466c-.023,1.333.2,2.669.272,4.006.046.88-.011,1.765.011,2.648.029,1.185.072,2.371.142,3.553.144,2.369.308,4.737.468,7.1.03.444.126.889.114,1.332-.019.683-.1,1.366-.166,2.048-.038.415-.095.828-.166,1.424-1.829.065-3.757.142-5.686.2-2.17.063-4.343.078-6.511.173-.739.033-.891-.389-1-.931-.365-1.742-.749-3.482-1.083-5.231-.439-2.295-.913-4.589-1.231-6.9-.253-1.83-.254-3.693-.466-5.529a1.453,1.453,0,0,0-.852-.941.246.246,0,0,0-.106-.011l-.541,2.307c.887,4.857.334,9.611,1.864,14.447-2.734-1.481-4.9-.768-7.067.6a8.824,8.824,0,0,0-3.78,5.995,8.144,8.144,0,0,0,1.1,6.225,9.942,9.942,0,0,0,3.586,3.343,8.9,8.9,0,0,0,2.36.834,9.89,9.89,0,0,0,1.359.178c.18.012.385-.034.549-.02h0c.033-.037.069-.074.1-.113.012-.06.023-.122.039-.18l-.222.285c.292-.61.634-1.248.905-1.872a14.277,14.277,0,0,0,.543-2.032,11.094,11.094,0,0,0,.628-1.968c.675.119,1.355.272,2.028.446.068.01.137.015.2.022a2.49,2.49,0,0,1,.932.044c.126,0,.253-.007.379-.017,0-.012,0-.025-.008-.036.073.008.146.01.219.018.031,0,.064-.005.1-.009a.5.5,0,0,1,.263.039c1.006.1,2.018.152,3.027.16,1.718.015,3.437-.117,5.152-.084a2.369,2.369,0,0,1,.686.141,16.1,16.1,0,0,1,2.193-.014,1.7,1.7,0,0,1,.948.3.641.641,0,0,1,.591.66v.793c0,.015-.008.028-.009.042a2.363,2.363,0,0,1,.126.921c-.02.97-.08,1.947-.01,2.913a6.639,6.639,0,0,1-.049,1.635c-.066.369-.1.934.347,1.1a1.762,1.762,0,0,0,1.671-.474c.439-.4.186-.924.095-1.4-.05-.256-.1-.515-.149-.772a3.178,3.178,0,0,1-.137-.73c.156-1.14.285-1.98.384-2.823a1.142,1.142,0,0,1,1.407-1.073c2.008.151,4.009.4,6.018.494a33.742,33.742,0,0,0,4.429-.109,4.9,4.9,0,0,1,1.617.042,9.9,9.9,0,0,0,1.982-.638c-.05-.084-.1-.167-.153-.251a1.221,1.221,0,0,1-.211-.611c.1-1.921.146-3.85.372-5.757.209-1.777.535-3.5-1.295-4.7-.153-.1-.2-.474-.176-.706C2090.129,1414.334,2090.282,1413.009,2090.5,1411.7Z"/><path class="q" d="M2068.947,1398.26c-.08-.974-.49-1.753-1.564-1.879a18.022,18.022,0,0,0-2.106-.016c0-.024,0-.047-.005-.07-1.86.17-3.717.376-5.581.492-.83.051-1.017.471-.968,1.163.123,1.778.253,3.556.37,5.335.068,1.016.663,1.19,1.55,1.073a24,24,0,0,1,3-.233c1.194-.007,2.39.174,3.582.141,1.511-.042,2.066-.695,1.977-2.1C2069.123,1400.86,2069.054,1399.559,2068.947,1398.26Zm-1.668,2.782c-.077,1.017-.8,1.228-1.677,1.193-.56-.022-1.12,0-1.68,0s-1.119-.024-1.675.005c-.6.033-.892-.11-1.074-.787-.568-2.115-.306-2.888,2.052-2.758a22.876,22.876,0,0,1,2.949.133C2067.382,1399.052,2067.351,1400.106,2067.279,1401.042Z"/><path class="p" d="M2097.4,1444.554l-2.342-6.435-3.614-8.215-.852-1.369-1.157-.215-3.328,1.584s-4.422,2.109-4.843,2.468a22.024,22.024,0,0,1-3.019,1.315l-.631,2.053,1.123,2.686,3.019,6.828,1.614,5.107,2.738,2.378a18.863,18.863,0,0,0,3.328.428c.393-.148,3.342-.708,3.342-.708a25.441,25.441,0,0,0,3.018-1.259c.141-.21,1.194-2.031,1.194-2.031s.772-1.327.843-1.537S2097.4,1444.554,2097.4,1444.554Z"/><path class="q" d="M2090.872,1429.9c1.515,3.593,3.077,7.184,4.273,10.887.532,1.65,1,3.321,1.432,5,.335,1.29.483,3.42,2.3,3.381,1.274-.027.048-2.9-.106-3.47-.626-2.335-1.358-4.648-2.166-6.928-.829-2.34-1.716-4.668-2.752-6.922a43.971,43.971,0,0,0-2.432-4.167,9.932,9.932,0,0,1-1.983.638C2090.065,1428.485,2090.46,1428.927,2090.872,1429.9Z"/><path class="q" d="M2082.992,1445.457a50.739,50.739,0,0,0-4.555-9.5,6.258,6.258,0,0,0-1.926-2.032c-.3-.184-.541-.476-.909-.505a.651.651,0,0,0-.69.522,2.779,2.779,0,0,0,.285,1.836,3.622,3.622,0,0,0,.212.367c.161.235.441.388.617.618a22.252,22.252,0,0,1,2.7,3.917c1.04,2.23,2.015,4.488,2.945,6.765.469,1.149.871,2.341,1.379,3.473.308.686.578,1.716,1.568,1.519.485-.1.521-.328.515-.838a9.691,9.691,0,0,0-.905-2.669C2083.821,1447.767,2083.414,1446.61,2082.992,1445.457Z"/><path class="p" d="M2053.156,1388.779l-4.165,1.356-4.166,2.234-3.8,3.358-1.114,1.722-.235,1.918.281,1.817,1.311,2.254,2.2,1.166,2.621.595,1.76-.4,1.936-1.365,1.353-1.518,2.906-2.368.972-.782.4-1.941.983-2.9.4-2.116s-.375-1.731-.422-1.871-.782-1.4-.782-1.4l-1.26-.252Z"/><path class="q" d="M2041.959,1396.285c.04-.054.079-.1.119-.155a15.064,15.064,0,0,1,3.6-3.082,31.425,31.425,0,0,1,8.624-3.452q.547-.15,1.1-.295a1.215,1.215,0,0,1,.275-.035c.8-1.023-1.147-2.107-2.688-1.622l.028.042c-.747.228-1.471.4-2.157.668-1.553.608-3.123,1.193-4.617,1.925-1.027.5-1.9,1.3-2.91,1.856a11.433,11.433,0,0,0-3.4,2.92c-.46.573-1.719,2.446-.576,2.968C2040.67,1398.626,2041.312,1397.162,2041.959,1396.285Z"/><path class="q" d="M2048.653,1403.6c-.093.078-.185.158-.277.236l1.457,1.266a4.968,4.968,0,0,0,.8-1.049c1.014-1.852,2.941-2.311,4.429-3.7l0,.022.541-2.307a2.563,2.563,0,0,0-.892.522c-.62.445-1.229.909-1.812,1.4-1.417,1.2-2.856,2.378-4.243,3.611-.534.474-1.507,1.9-.227,2.154a1.343,1.343,0,0,0,1.25-.519c.389-.465.211-.875.108-1.44"/><path class="p" d="M2096.258,1388.729l-4.13-1.456-2.671-.689h-1.5s-1.373.719-1.291.951a15.46,15.46,0,0,1-.022,1.987s-.285,2.8,0,3.031a26.407,26.407,0,0,1,1.366,3.53l2.711,1.273,3.93,2.193a19.689,19.689,0,0,0,1.791,2.69,25.908,25.908,0,0,1,2.437,2.022l1.106.744,1.17-.4,2.247-2.684,1.941-2.555.54-1.917-1.2-2.08-3.344-3.558Z"/><path class="q" d="M2092.437,1398.166c-.911-.3-1.724-.248-1.814.893-.143,1.807,1.492,1.327,2.579,1.913a7.048,7.048,0,0,1,1.5.975c1.148,1.067,2.247,2.308,3.482,3.264.418-.331,1.016.209,1.266-.545.521-1.573-1.19-2.533-2.21-3.415a20.357,20.357,0,0,0-2.388-1.8A12.3,12.3,0,0,0,2092.437,1398.166Z"/><path class="q" d="M2101.228,1390.688c-1.467-1.4-2.947-2.755-5.138-3.188a54.157,54.157,0,0,1-6.292-1.987.86.86,0,0,1-.278-.2c-.651-.1-1.325-.2-1.617.025a1.546,1.546,0,0,0-.351,1.26c.065.274.753.62.755.677.079.133.3-.073.379.061a26.4,26.4,0,0,1,9.543,3.4,14.079,14.079,0,0,1,2.449,2.08c.642.626,1.267,1.269,1.891,1.913.471.486,1.111,1.458,1.76,1.631,1.19.317,1.21-1.285.68-1.883C2103.832,1393.147,2102.508,1391.915,2101.228,1390.688Z"/><path class="r" d="M2034.585,1390.162l1.615-1.26,2.01-4.057,4.583-8.4,3.867-7.694,2.528-6.716,1.754-5.456,1.545-3.5h.772l.491,1.749,2.165,8.744.995,2.448,6.669-14.48,7.582,13.222,6.6-16.16,4.843,14.411,5.9-14.411,9.91,21.126,4.551,10.983,2.471,5.316,1.091.42,1.282-21.755-2.036-13.927-3.247-7.9-6.437-6.574-5.761-3.638-11.793-2.729-12.943.42-12.119,1.329-8.284,4.127-6.037,5.667-3.37,6.785-2.247,7.556-1.4,10.563.421,13.409,1.123,9.185.912,1.19"/><path class="s" d="M2052.234,1354.066l-1.853,5.246-1.263,4.2-1.966,4.547v3.848l.983,4.546,1.943,4.268,4.305,5.806,6.8,3.847,9,1.749,8.214-1.749,10.835-6.366,5.434-6.855,2.334-5.806.421-2.8-3.3-7.765-2.386-5.6-2.008-5.106-1.573-1.469-1.514,3.148-.873,3.5-1.053,2.309-.913,1.819s-.211.979-.281,1.189a6.461,6.461,0,0,1-1.052.98l-.983-1.12-1.685-5.247-1.685-6.575-2.243,3.287-1.407,5.177-1.342,3.777-1,1.26-.117.84-2.2.21-2.08-3.778-3.931-7.625-1.684,2.588-.927,3.358-1.66,4.057-1.556,2.309-1.053,1.119-.994-2.868-2.586-6.715-.7-2.939Z"/><path class="q" d="M2081.809,1373.091a5.456,5.456,0,0,0-.026-.966c-.272-.969-.935-1.64-1.558-1.653a1.4,1.4,0,0,0-1.318,1.379c.055,1.4.748,2.531,1.583,2.3A3.448,3.448,0,0,0,2081.809,1373.091Z"/><path class="q" d="M2064.319,1373.221c.082.764.168,1.552,1.217,1.545.852-.007,1.459-.734,1.438-1.8-.073-.235-.172-.593-.3-.943-.268-.736-.7-1.289-1.585-1.027a1.072,1.072,0,0,0-.781,1.566C2064.38,1372.755,2064.294,1373,2064.319,1373.221Z"/><path class="q" d="M2108.569,1361.779c-.121-2.057-.378-4.112-.675-6.152-.176-1.209-.62-2.378-.822-3.587a24.565,24.565,0,0,0-3.323-9.656,31.452,31.452,0,0,0-6.657-6.93,22.405,22.405,0,0,0-3.569-2.694,27.436,27.436,0,0,0-9.729-3.2c-2.8-.307-5.632-.487-8.452-.533-1.82-.03-3.777-.108-5.6-.005-1.784.1-3.7.025-5.483.1-1.408.057-3.165.362-5.791.559-.175.013-.35.035-.526.054-1.671.486-3.338,1.072-5.03,1.442-1.727.735-3.421,1.56-5.11,2.384a23.98,23.98,0,0,0-8.541,6.571,45.362,45.362,0,0,0-4.5,6.746c-.262.548-.451.8-.562,1.026a14.572,14.572,0,0,0-.822,2.158,34.714,34.714,0,0,0-1.146,4.849,101.475,101.475,0,0,0-1.577,16.788c.019,3.866.15,7.741.475,11.592.2,2.318.878,4.592,1.3,6.894a1.879,1.879,0,0,0,1.523,1.72,2.032,2.032,0,0,0,2.412-.941c1.8-3.208,3.7-6.366,5.491-9.58,1.121-2.011,2.129-4.085,3.177-6.136.256-.5.468-1.023.692-1.512a79.528,79.528,0,0,0,3.072,7.348,62.779,62.779,0,0,0,3.872,5.907.707.707,0,0,1,.516.289,7.736,7.736,0,0,0,3.306,2.131.741.741,0,0,1,.236.143,3.082,3.082,0,0,1,.3.109c4.14,1.776,8.3,3.413,12.943,3.218a2.329,2.329,0,0,1,1.117.2c.62-.066,1.241-.082,1.862-.093l.019-.006a7.178,7.178,0,0,1,1.306-.124c.011,0,.017-.012.028-.015a10.331,10.331,0,0,1,2.08-.42c1.24-.455,2.477-.911,3.7-1.382.784-.3,1.538-.688,2.29-1.062,1.457-.725,2.883-1.515,4.364-2.181a25.584,25.584,0,0,0,3.043-2.312c-.03-.027-.06-.054-.094-.08,3.505-3.707,6.648-7.615,8.088-12.681a2.526,2.526,0,0,1,.8.922c.373.888.681,1.8,1.037,2.7.934,2.344,1.842,4.7,2.838,7.018a12.315,12.315,0,0,0,2.768,4.275c.83.782,2.02.969,2.27.212a10.918,10.918,0,0,0,.669-2.786c.269-4.934.527-9.87.646-14.807C2108.877,1367.431,2108.733,1364.6,2108.569,1361.779Zm-12.059,7.19a16.124,16.124,0,0,1-1.227,4.348,54.931,54.931,0,0,1-3.032,6.083c-1.54,2.639-4.085,4.31-6.435,6.152a19.158,19.158,0,0,1-6.356,3.472c-1.356.4-2.723.768-4.08,1.169a22.175,22.175,0,0,1-11.473-.106,21.468,21.468,0,0,1-8.459-3.973,13.41,13.41,0,0,1-3.24-3.667c-1.57-2.652-2.89-5.452-4.247-8.223a5.375,5.375,0,0,1-.179-1.643c-.349-2.879.649-5.363,1.973-7.874a58.051,58.051,0,0,0,2.6-6.75c.091-.24.164-.487.264-.722.021-.05.126-.065.431-.206.3,1.1.578,2.115.852,3.138.4,1.5.791,3.012,1.2,4.515a11.924,11.924,0,0,0,.581,1.791,2.274,2.274,0,0,0,.852,1.147,1.139,1.139,0,0,0,1.594-.631c.733-1.746,1.413-3.514,2.133-5.265.549-1.336,1.1-2.672,1.694-3.985.5-1.1,1.083-2.177,1.719-3.446a10.359,10.359,0,0,1,1.369,1.728c.935,1.9,1.777,3.842,2.634,5.777.615,1.387,1.148,2.811,1.823,4.167.18.36.851.819,1.118.725a2.855,2.855,0,0,0,1.656-1.161c1.537-3.631,2.953-7.312,4.379-10.988.214-.551.233-1.176.429-1.737a4.416,4.416,0,0,1,.6-.934l.4.04c.351,1.49.7,2.98,1.056,4.468.366,1.516.746,3.031,1.123,4.545a24.163,24.163,0,0,0,.791,3c.22.564.8,1.422,1.169,1.395a2.272,2.272,0,0,0,1.586-1.154c.595-1.271.9-2.674,1.389-4,1.042-2.858,2.121-5.7,3.194-8.55a7.423,7.423,0,0,1,.482-.842c.433.865.829,1.559,1.136,2.29.953,2.264,1.841,4.556,2.814,6.812.934,2.17,1.968,4.3,2.9,6.47A5.748,5.748,0,0,1,2096.51,1368.969Zm9.877,4.628c-.2,2.918-.645,5.82-.989,8.728a2.232,2.232,0,0,1-.175.451c-.174-.144-.329-.211-.382-.326-.991-2.161-2.03-4.3-2.934-6.5-1.614-3.922-3.043-7.923-4.743-11.805-1.369-3.128-3.094-6.1-4.533-9.2-.845-1.822-1.433-3.761-2.153-5.641a10.225,10.225,0,0,0-.871-1.932,1.412,1.412,0,0,0-1.054-.554c-.673.029-2.142,1.864-2.33,2.509-.942,3.247-1.93,6.483-2.918,9.717a4.393,4.393,0,0,1-.561.83c-.415-1.379-.773-2.532-1.107-3.693-.829-2.859-1.625-5.728-2.49-8.577-.118-.388-.552-.951-.846-.954a1.832,1.832,0,0,0-1.429.618,22.574,22.574,0,0,0-1.755,4.062,69.686,69.686,0,0,1-3.673,10.162l-.465.323c-.265-.426-.553-.839-.791-1.278-1.249-2.314-2.481-4.637-3.726-6.953-.459-.854-.941-1.7-1.4-2.549-.371-.688-.789-1.306-1.713-1.164a2.227,2.227,0,0,0-1.819,1.828c-.517,1.735-.976,3.495-1.631,5.178-.724,1.862-1.64,3.649-2.556,5.652a8.617,8.617,0,0,1-.658-1.346c-.592-2.069-1.144-4.148-1.7-6.227a14.813,14.813,0,0,0-.706-2.553,1.808,1.808,0,0,0-1.31-.932,1.764,1.764,0,0,0-1.289.976c-1.161,3.3-2.146,6.656-3.339,9.942-.566,1.558-1.482,2.988-2.2,4.492-1.484,3.084-2.872,6.217-4.44,9.258-1.188,2.306-2.623,4.484-3.887,6.753-.411.738-.6,1.6-.944,2.374-.455,1.023-.964,2.024-1.449,3.035l-.595-.1a30.259,30.259,0,0,1-.9-4.059c-.368-4.25-.772-8.51-.831-12.77a79.221,79.221,0,0,1,.657-10.107,61.592,61.592,0,0,1,1.549-8.554,47.266,47.266,0,0,1,2.493-6.331,29.962,29.962,0,0,1,1.863-3.8,17.372,17.372,0,0,1,6.578-6.239,49.478,49.478,0,0,1,6.651-3.178,27.025,27.025,0,0,1,4.934-.845c.987-.164,1.961-.429,2.954-.528,1.186-.119,2.387-.086,3.577-.163,1.069-.07,2.131-.276,3.2-.291,2.757-.038,5.515-.026,8.273.015a4.331,4.331,0,0,1,.438.032.67.67,0,0,1,.234-.027c1.062.061,2.126.043,3.187.1.03,0,.06,0,.089-.008a.646.646,0,0,1,.3.033c.079,0,.159-.009.239-.006a12.589,12.589,0,0,1,2.736.393c2.257.629,4.486,1.353,6.729,2.033a16.881,16.881,0,0,1,7.114,4.487c.559.562,1.377.875,1.918,1.45a16.953,16.953,0,0,1,2.587,3.2,31.508,31.508,0,0,1,3.647,9.81c.568,3.256.89,6.556,1.292,9.84a23.348,23.348,0,0,1,.2,2.891C2106.514,1368.258,2106.571,1370.936,2106.387,1373.6Z"/><path class="q" d="M2075.078,1381.842c1.972-.071,3.939-.309,6.244-.5,1.092-.244,2.493-.636,3.922-.845.926-.137,1.157-.819,1.347-1.442.127-.411-.038-1.257-.3-1.37a2.876,2.876,0,0,0-1.806-.042c-1.809.524-3.562,1.245-5.381,1.724a21.245,21.245,0,0,1-3.114.27,34.867,34.867,0,0,1-5.546.606c-3.868-.217-7.8-.152-11.512-1.595-.559-.216-1.2-.36-1.49.454-.306.843.424,1.041.894,1.307a13.12,13.12,0,0,0,6.01,1.6C2067.916,1382.137,2071.5,1381.969,2075.078,1381.842Z"/><path class="p" d="M2054.608,1433.685l-1.9,6.841-1.386,6.3v2.517s1.734,2.31,2.016,2.519a44.25,44.25,0,0,0,4.353,1.307,23.48,23.48,0,0,0,4.985,0c.351-.047,2.567-.4,3.229-.537s2.388-2.379,2.388-2.379l2.666-7.585,2.532-6.265-1-1.818-1.957-1.54-6.318-1.539h-7.364l-1.632,1.039Z"/><path class="q" d="M2054.194,1439.405c.625-1.927,1.02-3.928,1.656-5.85.7-2.118,1.57-4.182,2.334-6.281.118-.326.482-.568.5-.888a1.2,1.2,0,0,0-.709-.958,1.109,1.109,0,0,0-1.452.563,5.355,5.355,0,0,0-.286.918c-.138.391-.324.764-.434,1.166a14.549,14.549,0,0,1-.543,2.032c-.278.64-.631,1.294-.928,1.921l.067,0a6.059,6.059,0,0,1-.2.929c-.542,1.377-1.19,2.718-1.641,4.124-.6,1.861-1.09,3.76-1.546,5.661-.292,1.21-.709,2.451-.888,3.683-.1.689-.069,1.653.845,1.638.666-.011.827-.561.993-1.091.248-.793.411-1.622.631-2.43C2053.067,1442.813,2053.639,1441.111,2054.194,1439.405Z"/><path class="q" d="M2074.922,1433.761a.436.436,0,0,0-.157-.056,1.8,1.8,0,0,0-.742.04,1.181,1.181,0,0,0-.421.341,3.585,3.585,0,0,0-.445,1.027,3.449,3.449,0,0,1-.307.53c-.1.135-.352.333-.4.478a18.532,18.532,0,0,1-1.108,2.413c-.127.268-.269.527-.418.781-.378.938-.754,1.878-1.067,2.839-.586,1.8-1.159,3.608-1.731,5.415q-.427,1.355-.856,2.71c-.236.75-.661,1.683-.2,2.44a.821.821,0,0,0,.96.421c.635-.114.609-.718.775-1.2.185-.544.568-1,.744-1.565.829-2.654,1.527-5.354,2.46-7.969.032-.09.065-.179.1-.268.483-1.279,1.12-2.491,1.724-3.715a16.51,16.51,0,0,1,.751-1.549c.241-.382.723-.611.911-1.018a2.014,2.014,0,0,0-.232-1.674A1.022,1.022,0,0,0,2074.922,1433.761Z"/><path class="p" d="M2049.763,1457.586l8.073,1.749,5.757.98,2.247-2.31,1.03-3.777-.263-2.042-1.189-3-3.579-1.467-7.451-.91s-2.248-.139-2.453.28-1.26,1.6-1.33,2.1a29.152,29.152,0,0,1-.516,3.639,23.2,23.2,0,0,0-1.274,4.249C2048.921,1457.306,2049.763,1457.586,2049.763,1457.586Z"/><path class="t" d="M2064.295,1460.315l-15.023-2.939-2.106,10.015v1.738h-6.74l-5.967,1.538-3.651,3.778-.437,4.407.859,4.127,4.493,3.707,7.862,1.4h9.548l5.554-.909,1.536-4.967,4.072-20.147v-1.748"/><path class="q" d="M2066.819,1451.778a8.407,8.407,0,0,0-.649,1.522c-.527,1.65-1.12,3.279-1.608,4.941-.193.653-.566.694-1.094.6q-5.9-1.009-11.8-2.022a9.892,9.892,0,0,1-1.11-.32c.373-2.2.861-4.278,1.05-6.378.089-.973,1.022-3.569-.1-4.258-1.408-.86-1.68,2.244-1.836,2.911-.393,1.681-.769,3.369-1.1,5.064-.765,3.9-1.355,7.838-1.969,11.766-.284,1.814-.7,2.183-2.765,2.052a18.155,18.155,0,0,0-7.18.872c-2.734.944-5.1,2.323-6.282,5.108-.826,1.946-1.751,3.854-1.348,6.12a9.552,9.552,0,0,0,6.289,7.525c2.706,1.1,5.428,2.149,8.474,1.64a15.723,15.723,0,0,1,2.221.136c3.8-.06,7.6-.037,11.392-.287,1.752-.116,2.917-1.821,3.043-3.659a5.808,5.808,0,0,1,.168-.879c.44-1.914.9-3.825,1.32-5.743.484-2.18.9-4.375,1.42-6.545.378-1.574.944-3.1,1.31-4.681.4-1.732.6-3.512,1.015-5.239.538-2.224,1.484-4.32,2.168-6.5.312-.991.518-2,.738-3.007.107-.493.353-1.571-.358-1.761C2067.664,1450.614,2067.182,1451.144,2066.819,1451.778Zm-3.353,10.639c-.48,1.984-1.038,3.949-1.519,5.933-.261,1.077-.434,2.176-.62,3.271-.273,1.607-.495,3.221-.784,4.825-.486,2.7-1.02,5.387-1.509,8.082a3.155,3.155,0,0,1-2.769,2.154c-2.788.127-5.578.469-8.368.349-.959.059-1.916.091-2.875.087a14.562,14.562,0,0,1-2.23-.015c-1.94.348-3.74-.616-5.522-1.3a10.422,10.422,0,0,1-4.867-3.065,6.338,6.338,0,0,1-.94-6.707c1.713-4.317,5.127-5.947,9.538-6.015.412-.006.824-.039,1.236-.059,1.382-.056,2.719-.14,3.866.975.784.764,1.565.451,1.762-.66.583-3.273,1.13-6.552,1.612-9.841.251-1.719.381-1.919,2.118-1.578q4.722.927,9.425,1.948a10.09,10.09,0,0,1,2.184.78A.939.939,0,0,1,2063.466,1462.417Z"/><path class="p" d="M2084.734,1453.19l1.123,3.89s2.037,1.419,2.247,1.454,8.424-1.155,8.424-1.155l2.95-.77v-2.169l-.593-3.777-.321-1.959-2.387-.613-3.673-.577a13.782,13.782,0,0,1-3.038,1.677c-1.081.282-3.328,1.052-3.4,1.332S2084.734,1453.19,2084.734,1453.19Z"/><path class="t" d="M2099.478,1456.608l-12.919,1.926,2.411,11.436,2.363,12.941,1.171,6.646,2.48.909s8.143.35,8.425,0,9.9-2.868,9.9-2.868l4.773-4.547v-4.827l-2.971-5.491-5.172-4.651-3.3-.688h-3.651l-1.264-1.271-1.684-9.514h-.561Z"/><path class="q" d="M2098.541,1453.354c.019.072.021.15.046.22.7,1.985.853,2.075-1.752,2.477-2.055.317-4.1.721-6.143,1.087-.147.026-.295.051-.439.088-2.258.577-2.927.318-3.708-1.775-.619-1.656-1.126-3.376-1.845-4.989a1.036,1.036,0,0,0-.985-.733c-1.522-.083-.151,2.552.066,3.157q1.046,2.906,1.837,5.9c.549,2.064.815,4.2,1.206,6.308.08.438.153.877.223,1.317a51.881,51.881,0,0,0,1.149,6.939c1.169,3.871,1.466,7.875,2.265,11.8a25.46,25.46,0,0,0,1.41,4.812c.837,1.981,1.244,2.072,3.289,1.61a3.037,3.037,0,0,1,.987-.16,22.145,22.145,0,0,0,7.274-.253c3.538-.729,7.223-.85,10.386-2.926,1.055-.692,2.377-1.054,3.283-1.884,2.54-2.328,2.824-5.737,2-8.691a18.25,18.25,0,0,0-6-8.719,8.921,8.921,0,0,0-3-2.052,34.362,34.362,0,0,0-5.731-.936c-.7-.084-1.227-.19-1.411-.964-.283-1.184-.689-2.345-.888-3.542-.307-1.833-.357-3.715-.742-5.528q-.573-2.692-1.237-5.362c-.244-.989-.447-3.706-2.04-3.431-1.066.185-.75,1.345-.565,1.991C2097.874,1450.506,2098.173,1451.942,2098.541,1453.354Zm1.132,6.43a27.169,27.169,0,0,0,.3,2.953,15.825,15.825,0,0,1,.13,2.753,2.447,2.447,0,0,0,2.285,2.74c.749.028,1.5.04,2.247.018a11.112,11.112,0,0,1,9.154,4.425,16.931,16.931,0,0,1,3.391,7.23c.414,1.874-1.134,4.731-2.81,5.666a24.7,24.7,0,0,1-7.7,2.976c-2.374.419-4.782.68-7.182.931-1.372.143-2.761.135-4.143.176a1.891,1.891,0,0,1-2.12-1.559c-.314-1.4-.558-2.808-.845-4.21-.342-1.671-.672-3.346-1.054-5.009-.407-1.771-.866-3.532-1.3-5.3a1.37,1.37,0,0,1-.1-.319c.141-4.577-1.38-8.908-2.04-13.507,1-.133,1.943-.283,2.9-.384,2.558-.274,5.118-.522,7.677-.787C2099.364,1458.485,2099.7,1458.827,2099.673,1459.784Z"/><path class="u" d="M2108.565,1425.528l4.636,2.8,3.831.63-.492,1.679-4.085,5.246h-3.075l-3.768-2.815.379-4.32,2.574-3.217"/><path class="p" d="M2104.617,1398.034a.983.983,0,0,0,.249-.787l-2.384-.225a20.213,20.213,0,0,0-1.638,2.005c-.046.233-.935,2.883-.935,2.883s.281,1.147.281,1.348a5.179,5.179,0,0,0,.308.895c.275-.366.527-.677.74-1C2102.363,1401.444,2103.438,1399.7,2104.617,1398.034Z"/><path class="t" d="M2111,1414.685c3.223-1.428,2.108-4.45,1.6-7.468h0a1.412,1.412,0,0,1-.6.109h-.018a1.4,1.4,0,0,1-.553-.155l-.033-.016a1.776,1.776,0,0,1-.245-.163.334.334,0,0,1-.029-.025,1.929,1.929,0,0,1-.207-.2l-.03-.032a2.5,2.5,0,0,1-.2-.257l-.041-.064a3.04,3.04,0,0,1-.172-.31,28.153,28.153,0,0,0-1.86-2.96,4.81,4.81,0,0,1-.339-.556c-.375-.8-.706-1.627-1.13-2.4a.82.82,0,0,0-.769-.095c-1.275,1.338-2.551,2.682-3.737,4.1-1,1.191-.848,1.7.5,2.524a1.637,1.637,0,0,1,.41.363c1.11,1.387,2.209,2.782,3.319,4.167a8.419,8.419,0,0,0,1.24,1.44c1.21.952,1.238.945.562,2.381-.018.039-.034.078-.052.116A4.383,4.383,0,0,0,2111,1414.685Z"/><path class="t" d="M2112,1405.729l3.844-1.689h4.7l2.6,1.245-1.614,3.453s-.421,1.33-.561,1.889.982,1.831,1.123,2.281a21.429,21.429,0,0,0,2.176,2.616l3.51.349,1.685,1.391-1.053,4.276-3.019,2.938-4.66,3.058s-2.641.289-3.2.434-5.228-1.184-5.228-1.184l-4.42-3.428-1.205-4.966,1-3.988,2.8-3.707,2.072-2.728Z"/><path class="u" d="M2127.211,1415.211l-1.614-.113-2.317-1.673-2.316-2.8,10.179-14.576-2.808-4.307.14-5.959,2.668-3.558,5.9-2.817h3.792l.7,1.138-5.266,9.237,5.266,4.507,7.231-8.507,2.667,3.128.632,5.379-.7,2.616-2.106,3.2-4.142,2.22-2.949-.164-2.878-.9h-1.053l-11.022,13.949"/><path class="v" d="M2124.338,1416.786c-1.384-1.337-2.8-2.646-4.087-4.073-1.475-1.642-1.995-3.072-.053-5.059a23.378,23.378,0,0,0,1.565-2c-2.423-.425-4.7-.908-6.946.111a4.967,4.967,0,0,0-1.447,1.007,1.605,1.605,0,0,1-2.518.084c.014-.036.027-.074.041-.111l-.012-.012a2.466,2.466,0,0,1-.2-.257c-.014-.021-.027-.043-.041-.063a3.366,3.366,0,0,1-.172-.311,28.267,28.267,0,0,0-1.86-2.96,4.844,4.844,0,0,1-.339-.556c-.375-.8-.706-1.627-1.13-2.4a.822.822,0,0,0-.768-.095c-1.276,1.338-2.552,2.682-3.738,4.1-.995,1.191-.848,1.7.5,2.523a1.6,1.6,0,0,1,.41.363c1.11,1.387,2.208,2.783,3.319,4.168.255.318.5.659.762.967a3.11,3.11,0,0,1,.9.572,3.187,3.187,0,0,1,.51.766.868.868,0,0,1,.08.437,8.435,8.435,0,0,1-.743,1.953,6.478,6.478,0,0,0-.027,5.221,16.214,16.214,0,0,0,.877,1.891,8.321,8.321,0,0,0,9.736,3.8c3.337-1.235,6.433-3.042,7.953-6.555a21.929,21.929,0,0,0,.835-3.045C2126.24,1417.954,2125.432,1417.841,2124.338,1416.786Z"/><path class="v" d="M2109.907,1427.123c-.821-.45-1.4-.359-1.86.194-1.579,1.879-2.542,4.313.159,6.413,1.371,1.064,4.069,1.242,5,.161,1.093-1.275,2.056-2.66,3.313-4.306C2113.712,1429.787,2111.9,1428.212,2109.907,1427.123Z"/><path class="v" d="M2147.959,1388.253c-.844.989-1.619,2.038-2.453,3.035-1.064,1.275-2.175,2.513-3.235,3.791-.808.976-1.653.432-2.277-.073-1.528-1.238-2.957-2.6-4.389-3.951-.338-.317-.837-.883-.744-1.162a13.824,13.824,0,0,1,1.44-3.088c1.137-1.771,2.429-3.442,3.582-5.2.127-.193-.129-.9-.386-1.033-1.612-.85-3.12-.1-4.575.522a12.573,12.573,0,0,0-4.363,3.784c-2.42,2.817-2.1,7.76,1.118,9.945,1.394.945,1.319,1.5-.049,2.491a2.242,2.242,0,0,0-.452.484c-1.27,1.7-2.527,3.415-3.8,5.116-1.722,2.3-3.427,4.624-5.206,6.887a.9.9,0,0,0,.05,1.367c.715.71,1.5,1.352,2.254,2.02,1.886,1.663,2.708,1.556,4.227-.5.177-.242.341-.492.5-.746a15.462,15.462,0,0,0,3-3.652.623.623,0,0,0,.1-.439c.013-.01.022-.021.035-.029a4.773,4.773,0,0,0,1.037-1.172q2.25-3.157,4.464-6.341c.483-.693.91-.979,1.835-.486a22.911,22.911,0,0,0,3.55,1.24,9.219,9.219,0,0,0,7.325-5.4,7.98,7.98,0,0,0-.815-7.264C2149.135,1387.435,2148.709,1387.374,2147.959,1388.253Z"/><path class="q" d="M2150.127,1384.771a2.436,2.436,0,0,0-1.889-.8c-.553.119-.99.937-1.408,1.5-.764,1.03-1.444,2.121-2.218,3.143-.641.846-1.412,1.6-2.035,2.454-.516.71-1.113,1.225-1.923.707a19.108,19.108,0,0,1-2.527-2.1c-.118-.109-.06-.556.061-.755.7-1.144,1.415-2.284,2.186-3.381a12.144,12.144,0,0,0,2.454-5.207,1.869,1.869,0,0,0-1.447-2.288c-.909-.146-1.816-.3-2.726-.431a1.471,1.471,0,0,0-.727.018,36.435,36.435,0,0,0-6.065,2.82c-4.5,2.847-7.63,11.408-2.67,15.3.516.405.384.7.041,1.1-.561.651-1.088,1.331-1.641,1.989-1.412,1.682-2.831,3.358-4.191,4.971a11.781,11.781,0,0,0-1.227-.65,12.224,12.224,0,0,0-7.8-.13,5.841,5.841,0,0,0-2.125,1.112,1.023,1.023,0,0,1-.293-.317c-.884-1.378-1.841-2.707-2.75-4.068a24.221,24.221,0,0,0-2-3.029c-.754-.826-1.529-1.632-2.3-2.439l-1.091,1.64c.141.144.28.292.422.435a1.158,1.158,0,0,1,.349.541.986.986,0,0,1-.25.787c-1.178,1.668-2.253,3.41-3.377,5.116-.216.326-.465.637-.742,1-.026.035-.049.064-.076.1l-.986-.973-1.27,1.909c.564.548,1.123,1.1,1.669,1.666,2.244,2.324,4.4,4.728,6.581,7.116a.973.973,0,0,1,.121.685c0,.015,0,.031,0,.047a9.14,9.14,0,0,0-.314.905,31.041,31.041,0,0,0-.386,3.091,6.135,6.135,0,0,0,1.09,4.634,1.985,1.985,0,0,1,.319,2.282,26.384,26.384,0,0,0-2.219,4.213c-.59,1.679-1.225,3.559.818,4.89a1.134,1.134,0,0,1,.3.331,6.026,6.026,0,0,0,4.486,2.775c1.606.183,3.259.184,4.306-1.245,1.511-2.066,2.839-4.265,4.264-6.394a1.6,1.6,0,0,1,.667-.54c1.4-.6,2.812-1.161,4.211-1.756a12.385,12.385,0,0,0,3.578-2.739,9.394,9.394,0,0,0,2.7-9.012c-.158-.746-.387-.978.041-1.713a50.7,50.7,0,0,1,4.085-5.331c1.493-1.905,3.017-3.784,4.545-5.66a1.67,1.67,0,0,1,1.336-.24c.893.163,1.743.6,2.637.708a8.115,8.115,0,0,0,5.324-1.527,12.4,12.4,0,0,0,5.052-6.18,8,8,0,0,0,.533-3.266A12.31,12.31,0,0,0,2150.127,1384.771Zm-36.925,49.12c-.927,1.081-3.625.9-5-.161-2.7-2.1-1.738-4.534-.16-6.413.464-.552,1.04-.643,1.86-.194,1.988,1.089,3.806,2.664,6.608,2.461C2115.258,1431.231,2114.295,1432.616,2113.2,1433.891Zm13.7-13.592c-1.52,3.512-4.615,5.319-7.952,6.555a8.322,8.322,0,0,1-9.737-3.8,16.444,16.444,0,0,1-.876-1.891,6.48,6.48,0,0,1,.026-5.222,8.4,8.4,0,0,0,.744-1.953.587.587,0,0,0-.005-.182.6.6,0,0,0-.075-.254,3.251,3.251,0,0,0-.51-.767,3.124,3.124,0,0,0-.9-.572c-.266-.307-.507-.648-.761-.967-1.111-1.385-2.21-2.78-3.32-4.167a1.633,1.633,0,0,0-.409-.363c-1.344-.824-1.491-1.333-.5-2.524,1.186-1.417,2.461-2.762,3.737-4.1a.821.821,0,0,1,.769.094c.424.776.755,1.6,1.129,2.4a4.818,4.818,0,0,0,.34.556,28.205,28.205,0,0,1,1.859,2.96,3.041,3.041,0,0,0,.173.31c.013.021.027.043.041.063a2.4,2.4,0,0,0,.195.258l.012.012c-.013.037-.027.075-.041.11a1.6,1.6,0,0,0,2.519-.084,4.967,4.967,0,0,1,1.447-1.007c2.243-1.018,4.522-.535,6.945-.11a23.29,23.29,0,0,1-1.565,2c-1.942,1.986-1.422,3.416.054,5.058,1.283,1.429,2.7,2.737,4.087,4.073,1.093,1.056,1.9,1.168,3.4.467A21.979,21.979,0,0,1,2126.906,1420.3Zm23.639-24.64a9.215,9.215,0,0,1-7.324,5.4,22.911,22.911,0,0,1-3.55-1.24c-.926-.493-1.352-.207-1.835.486q-2.221,3.177-4.464,6.341a4.737,4.737,0,0,1-1.038,1.172.313.313,0,0,0-.034.029.619.619,0,0,1-.1.439,15.462,15.462,0,0,1-3,3.652c-.16.254-.324.5-.5.746-1.52,2.058-2.341,2.164-4.227.5-.756-.668-1.539-1.31-2.254-2.02a.9.9,0,0,1-.05-1.367c1.778-2.262,3.483-4.583,5.206-6.887,1.271-1.7,2.528-3.412,3.8-5.116a2.222,2.222,0,0,1,.453-.484c1.367-.986,1.443-1.546.049-2.491-3.222-2.185-3.539-7.129-1.119-9.945a12.567,12.567,0,0,1,4.364-3.784c1.455-.626,2.962-1.372,4.575-.522a1.141,1.141,0,0,1,.386,1.033c-1.153,1.761-2.445,3.433-3.583,5.2a13.824,13.824,0,0,0-1.44,3.088c-.093.279.407.845.744,1.162,1.433,1.351,2.862,2.713,4.389,3.951.624.505,1.469,1.049,2.277.073,1.061-1.278,2.171-2.517,3.235-3.791.835-1,1.609-2.046,2.454-3.035.75-.879,1.176-.817,1.77.142A7.974,7.974,0,0,1,2150.545,1395.659Z"/><path class="p" d="M2040.677,1397.821c-.939,1.269-1.792,2.61-2.675,3.923-.483.718-.437,1.276.543,1.732a15.319,15.319,0,0,1,2.94,1.97c.911.723,1.725,1.566,2.625,2.4a15.078,15.078,0,0,1,1.286-1.42c.632-.548,1.264-1.095,1.9-1.635.267-.225.611-.622.95-.9l-.075-.676v-1.026l-1.82-1.969-2.387-2.207-2.247-.618h-.683a.845.845,0,0,1-.117.23A.958.958,0,0,1,2040.677,1397.821Z"/><path class="t" d="M2033.507,1409.028h-4.352v1.309s.632,2.482.7,2.86a30.472,30.472,0,0,1-.351,3.176l-2.668,2.055-2.878,1.094h-3.089l-2.339-.752s-1.522,1.031-1.522,1.311.07,2.588,0,2.868,1.754,4.877,1.754,4.877l2.879,2.643,4.423,2.887s4.781.388,5.058.271,3.857-1.114,4.067-1.315,4.309-2.508,4.309-2.508l2.291-4.532-.754-4.7-2.134-3.987-2.774-2.028Z"/><path class="t" d="M2036.386,1418.891a7.544,7.544,0,0,0,2.517.076,16.788,16.788,0,0,0-1.115-1.513c-.763-.926-.647-1.6.361-2.35a4.175,4.175,0,0,0,.456-.489c.906-.937,1.779-1.908,2.731-2.8,1.218-1.141,1.271-1.776.107-2.878-.188-.178-.343-.394-.537-.566-1.245-1.1-2.481-2.2-3.753-3.268-.515-.431-.922-.275-1.224.353-.742,1.545-1.629,3.029-2.268,4.615-.474,1.174-1.253,1.118-2.169.892a2.182,2.182,0,0,1-.393-.143C2031.056,1414.464,2032.031,1418.024,2036.386,1418.891Z"/><path class="u" d="M2040.4,1430.469l-11,3.6,1.741,3.637,3.069,2.448,4.694.539,4.066-1.938,1.1-2.117-1.094-3.619-2.58-2.553"/><path class="u" d="M2029.857,1413.365l-.351,3.008-3.651,2.665-3.452.973-2.866-1.583-5.336-9.4-.421-3.314.983-1.17-6.529-13.325-6.108.461-1.4-11.193,7.02-3.054,9.617,7.713.071,1.381-5.126,2.677,8.285,14.32,2.317-.752,6.95,10.593"/><path class="v" d="M2014.961,1402.3a17.63,17.63,0,0,0,1.226,2.6,4.3,4.3,0,0,0,1.23.991c1.536.022,1.848-.182,1.573-1.289a12.16,12.16,0,0,0-1.407-3.2c-2.114-3.562-4.371-7.042-6.427-10.637-.853-1.491-.87-1.778.982-2.46.947-.349,1.888-.724,2.8-1.154a1.113,1.113,0,0,0,.42-1.9c-1.767-1.829-3.548-3.644-5.374-5.414a2.7,2.7,0,0,0-3.243-.641c-1.046.47-2.213.663-3.306,1.038-.691.237-1.334.505-1.227,1.514.3,2.836.492,5.683.806,8.517.026.222.709.567,1.043.524,1.2-.154,2.376-.476,3.572-.675a1.038,1.038,0,0,1,.839.243,11,11,0,0,1,1.072,1.661c.8,1.455,1.574,2.931,2.368,4.392.989,1.818,1.992,3.628,2.979,5.446C2014.955,1401.987,2014.9,1402.17,2014.961,1402.3Z"/><path class="v" d="M2038.025,1404.331l0,0,0,0h0"/><path class="v" d="M2024.145,1418.508a26.651,26.651,0,0,0,3.1-1.924,2.551,2.551,0,0,0,.779-3.669c-.594-1.145-1.323-2.219-1.982-3.33-.378-.639-.681-1.329-1.116-1.925-.914-1.251-1.892-2.455-2.848-3.681-.695,1.265-.014,2.664-1.362,3.555-2.405,1.59-4.358,1.24-6.006-1.267-.093.1-.184.2-.277.306a5.9,5.9,0,0,0,.277,1.811c.666,1.313,1.451,2.57,2.239,3.817q1.641,2.589,3.364,5.127C2020.888,1418.169,2023.367,1418.936,2024.145,1418.508Z"/><path class="v" d="M2039.9,1431.032c-2.849,1.857-5.689,3.646-9.57,3.834a32.619,32.619,0,0,0,3.225,3.835c1.835,1.585,5.8,1.131,8.112-.612a2.443,2.443,0,0,0,.94-2.715A7.24,7.24,0,0,0,2039.9,1431.032Z"/><path class="v" d="M2040.407,1424.412a8.8,8.8,0,0,0-1.627-5.552c-.163-.251-.323-.5-.484-.757-.164-.218-.331-.435-.507-.649a1.947,1.947,0,0,1-.487-.965c-.1-.17-.208-.336-.305-.508a.833.833,0,0,1,.1-.786c.147-.139.531-.092.794-.04.05.011.092.031.14.042.04-.031.072-.062.115-.094a4.165,4.165,0,0,0,.456-.488c.906-.937,1.779-1.909,2.731-2.8,1.218-1.141,1.271-1.776.107-2.878-.188-.178-.343-.393-.537-.565-1.245-1.1-2.481-2.2-3.753-3.269-.515-.431-.922-.275-1.224.354-.742,1.544-1.629,3.029-2.268,4.614-.474,1.175-1.253,1.119-2.169.893a2.342,2.342,0,0,1-.393-.143c0-.051,0-.1,0-.149v0a2,2,0,0,0-.386-.116,8.788,8.788,0,0,0-1.142-.01c.393,0,1.038,1.506,1.16,1.853a5.044,5.044,0,0,1,.214,2.437,5.872,5.872,0,0,1-2.538,3.926c-2.607,1.78-6.529,3.76-9.268.983a2.746,2.746,0,0,0-1.153,3.237,16.909,16.909,0,0,0,1.807,4.155,10.772,10.772,0,0,0,4.786,4.241,11.048,11.048,0,0,0,4.59.781,23.35,23.35,0,0,0,4.961-.7A8.481,8.481,0,0,0,2040.407,1424.412Z"/><path class="v" d="M2039.012,1396.186l-.043.061.007.024Z"/><path class="v" d="M2038.025,1404.331l0,0,0,0h0"/><path class="v" d="M2040.677,1397.821l-.167.092A1.738,1.738,0,0,0,2040.677,1397.821Z"/><path class="v" d="M2014.961,1402.3a17.63,17.63,0,0,0,1.226,2.6,4.3,4.3,0,0,0,1.23.991c1.536.022,1.848-.182,1.573-1.289a12.16,12.16,0,0,0-1.407-3.2c-2.114-3.562-4.371-7.042-6.427-10.637-.853-1.491-.87-1.778.982-2.46.947-.349,1.888-.724,2.8-1.154a1.113,1.113,0,0,0,.42-1.9c-1.767-1.829-3.548-3.644-5.374-5.414a2.7,2.7,0,0,0-3.243-.641c-1.046.47-2.213.663-3.306,1.038-.691.237-1.334.505-1.227,1.514.3,2.836.492,5.683.806,8.517.026.222.709.567,1.043.524,1.2-.154,2.376-.476,3.572-.675a1.038,1.038,0,0,1,.839.243,11,11,0,0,1,1.072,1.661c.8,1.455,1.574,2.931,2.368,4.392.989,1.818,1.992,3.628,2.979,5.446C2014.955,1401.987,2014.9,1402.17,2014.961,1402.3Z"/><path class="v" d="M2040.907,1408.373c-1.245-1.1-2.481-2.2-3.753-3.268-.515-.431-.922-.275-1.224.353-.742,1.545-1.629,3.029-2.268,4.615-.474,1.174-1.253,1.118-2.169.892a2.18,2.18,0,0,1-.393-.143c0-.05,0-.1,0-.149h0a1.979,1.979,0,0,0-.386-.117,9,9,0,0,0-1.141-.009c.393,0,1.038,1.505,1.16,1.852a5.043,5.043,0,0,1,.213,2.437,5.87,5.87,0,0,1-2.538,3.926c-2.607,1.781-6.529,3.76-9.268.984a2.745,2.745,0,0,0-1.153,3.237,16.959,16.959,0,0,0,1.807,4.155,10.777,10.777,0,0,0,4.786,4.241,11.067,11.067,0,0,0,4.59.78,23.368,23.368,0,0,0,4.962-.695,8.481,8.481,0,0,0,6.273-7.05,8.794,8.794,0,0,0-1.627-5.552c-.162-.251-.322-.505-.484-.757-.164-.219-.331-.436-.507-.65a1.933,1.933,0,0,1-.486-.964c-.1-.17-.208-.337-.306-.509a.827.827,0,0,1,.1-.785c.147-.14.531-.092.793-.04.05.01.092.03.141.042.04-.032.071-.062.115-.094a4.348,4.348,0,0,0,.456-.489c.906-.937,1.779-1.908,2.73-2.8,1.219-1.141,1.272-1.776.108-2.878C2041.255,1408.761,2041.1,1408.545,2040.907,1408.373Z"/><path class="v" d="M2024.145,1418.508a26.651,26.651,0,0,0,3.1-1.924,2.551,2.551,0,0,0,.779-3.669c-.594-1.145-1.323-2.219-1.982-3.33-.378-.639-.681-1.329-1.116-1.925-.914-1.251-1.892-2.455-2.848-3.681-.695,1.265-.014,2.664-1.362,3.555-2.405,1.59-4.358,1.24-6.006-1.267-.093.1-.184.2-.277.306a5.9,5.9,0,0,0,.277,1.811c.666,1.313,1.451,2.57,2.239,3.817q1.641,2.589,3.364,5.127C2020.888,1418.169,2023.367,1418.936,2024.145,1418.508Z"/><path class="v" d="M2039.9,1431.032c-2.849,1.857-5.689,3.646-9.57,3.834a32.619,32.619,0,0,0,3.225,3.835c1.835,1.585,5.8,1.131,8.112-.612a2.443,2.443,0,0,0,.94-2.715A7.24,7.24,0,0,0,2039.9,1431.032Z"/><path class="q" d="M2049.827,1403.821a1.055,1.055,0,0,0-1.147-.214,1.662,1.662,0,0,0-.431.277c-.339.28-.684.676-.95.9-.638.54-1.271,1.087-1.9,1.635a15.079,15.079,0,0,0-1.286,1.42c-.9-.83-1.714-1.673-2.625-2.4a15.339,15.339,0,0,0-2.94-1.97c-.981-.457-1.027-1.014-.543-1.732.882-1.312,1.735-2.654,2.675-3.923-.051.031-.108.062-.167.092l.167-.092.36-.433a1.423,1.423,0,0,0-.018-.993,1.165,1.165,0,0,0-1.467-.645c-.617.24-1,1.114-1.3,1.644-1.88,3.3-3.393,6.8-5.048,10.225a1.988,1.988,0,0,1-.452.635c-.023-.052-.047-.1-.065-.149a5.3,5.3,0,0,1-1.461-.115,3.551,3.551,0,0,0-2.686-.233.928.928,0,0,1-.8-.295c-.811-1.063-1.565-2.168-2.338-3.26-.8-1.121-1.46-2.606-3-2.618-1.579-.014-2.468-.29-3.161-1.92a48.707,48.707,0,0,0-3.517-5.891c-.692-1.141-1.35-2.3-2.082-3.553a16.534,16.534,0,0,0,2.043-.866,8.156,8.156,0,0,0,2.565-1.819c.838-1.165.355-2.779-.838-3.926-1.038-1-2.081-2-3.169-2.941-1.689-1.465-3.417-2.885-5.132-4.32a2.1,2.1,0,0,0-.674-.384q-1.091.238-2.171.521a3.64,3.64,0,0,1-1.059.708c-.825.257-1.67.454-2.518.633q-1.408.651-2.831,1.273a2.74,2.74,0,0,0-.383,1.592,23.978,23.978,0,0,1,.983,6.7,48.5,48.5,0,0,0,.59,5.075c.118.886.938.986,1.515.929,1.528-.152,3.037-.491,4.744-.789,2.1,3.753,4.159,7.414,6.181,11.095a1.073,1.073,0,0,1-.023.976,4.138,4.138,0,0,0-.687,4.859,47.827,47.827,0,0,0,2.539,4.378c.7,1.183,1.426,2.357,2.147,3.545a7.723,7.723,0,0,0-1.5,7.933,13.679,13.679,0,0,0,5.6,7.267,25.364,25.364,0,0,0,3.984,1.893c1.138.487,2.572.306,3.387,1.514.539.8,1.044,1.625,1.627,2.391.738.97,1.364,2.381,2.351,2.732a21.983,21.983,0,0,0,5.8.9c1.69.115,3.013-1,4.424-1.755a4.618,4.618,0,0,0,2.165-4.411,11.182,11.182,0,0,0-3.22-6.031c-.231-.2-.161-.846-.093-1.264.1-.6.384-1.177.469-1.781.118-.827.116-1.671.175-2.507.024-.327.077-.65.109-.975a7.318,7.318,0,0,0-1.505-5.244c-.4-.525-.772-1.094-1.207-1.6a1.055,1.055,0,0,1,.092-.683c1.093-1.521,2.444-2.857,3.54-4.377a19.687,19.687,0,0,1,4.1-4.6,8.1,8.1,0,0,0,1.678-1.627C2049.82,1404.748,2050.506,1404.435,2049.827,1403.821Zm-10.815-7.635-.036.086-.007-.024C2038.983,1396.228,2039,1396.206,2039.012,1396.186Zm-.987,8.145,0,0Zm-26.116-7.913c-.8-1.46-1.564-2.937-2.368-4.392a10.921,10.921,0,0,0-1.072-1.661,1.042,1.042,0,0,0-.839-.243c-1.195.2-2.373.52-3.572.675-.334.043-1.017-.3-1.043-.524-.314-2.833-.506-5.681-.806-8.516-.107-1.009.536-1.279,1.227-1.515,1.093-.375,2.26-.568,3.306-1.037a2.7,2.7,0,0,1,3.243.64c1.825,1.771,3.607,3.585,5.374,5.414a1.113,1.113,0,0,1-.42,1.9c-.913.43-1.854.8-2.8,1.154-1.852.683-1.835.968-.982,2.46,2.056,3.594,4.313,7.075,6.427,10.637a12.159,12.159,0,0,1,1.407,3.2c.275,1.107-.036,1.31-1.573,1.29a4.355,4.355,0,0,1-1.23-.992,17.724,17.724,0,0,1-1.226-2.6c-.058-.132-.006-.315-.073-.437C2013.9,1400.046,2012.9,1398.236,2011.909,1396.418Zm5.043,15.784c-.789-1.248-1.574-2.505-2.239-3.818a5.858,5.858,0,0,1-.278-1.81c.093-.1.184-.2.278-.306,1.647,2.506,3.6,2.856,6.005,1.267,1.348-.891.667-2.291,1.362-3.556.956,1.227,1.934,2.43,2.848,3.682.435.595.737,1.286,1.116,1.924.659,1.112,1.389,2.186,1.982,3.33a2.551,2.551,0,0,1-.779,3.669,26.509,26.509,0,0,1-3.1,1.924c-.778.429-3.257-.339-3.831-1.179Q2018.587,1414.8,2016.952,1412.2Zm25.655,23.172a2.445,2.445,0,0,1-.94,2.715c-2.313,1.743-6.278,2.2-8.112.612a32.539,32.539,0,0,1-3.225-3.835c3.88-.188,6.721-1.976,9.569-3.834A7.237,7.237,0,0,1,2042.607,1435.374Zm-1.271-23.558c-.951.89-1.824,1.862-2.73,2.8a4.239,4.239,0,0,1-.456.488c-.044.032-.075.063-.115.094-.049-.011-.091-.031-.14-.042-.263-.052-.647-.1-.794.04a.833.833,0,0,0-.1.786c.1.172.205.338.306.508a1.936,1.936,0,0,0,.486.965c.176.214.344.431.507.649.163.252.321.506.484.757a8.8,8.8,0,0,1,1.628,5.552,8.482,8.482,0,0,1-6.275,7.05,23.289,23.289,0,0,1-4.961.7,11.047,11.047,0,0,1-4.59-.781,10.765,10.765,0,0,1-4.786-4.241,16.942,16.942,0,0,1-1.807-4.155,2.747,2.747,0,0,1,1.153-3.237c2.739,2.777,6.662.8,9.269-.983a5.879,5.879,0,0,0,2.538-3.926,5.065,5.065,0,0,0-.214-2.437c-.122-.347-.767-1.853-1.16-1.853a8.8,8.8,0,0,1,1.142.01,1.991,1.991,0,0,1,.385.116v0c0,.05,0,.1,0,.149a2.339,2.339,0,0,0,.393.143c.917.226,1.695.282,2.169-.893.639-1.585,1.526-3.069,2.268-4.614.3-.629.71-.784,1.224-.354,1.272,1.066,2.508,2.173,3.754,3.269.194.172.348.387.537.565C2042.607,1410.041,2042.555,1410.675,2041.336,1411.816Z"/><path class="w" d="M3177.076,1407.216l-1.571,5.368-2.04,11.284-.458,11.949-.321,3.166,10.546,8.957,2.185.65.824.149,15.022-8.042,2.378-5.121,3.026-12.305.478-13.919-.9-1.783-5.773.928-6.865.309-9.281-1.278-6.342-1.2-.912.885"/><path class="x" d="M3203.076,1434.273l-8.545-.094-2.2-1.123-1.957-1.08-3.389.538-2.157,1.061-11.573-1.342-.575,5.947,12.11,1.139a7.872,7.872,0,0,0,1.165,1.611c.318.158,2.729.394,2.857.517s4.642-1.312,4.642-1.312l5.345.345,2.751-.182Z"/><path class="y" d="M3184.414,1448.947a.33.33,0,0,1,.1.013,3.336,3.336,0,0,1,.678.458c.226.145.962.633,1.231.382.134-.126.137-.612.112-.785a2.557,2.557,0,0,0-.4-.837,2.8,2.8,0,0,0-.761-1.064,2.411,2.411,0,0,0-1.143-.5c-.99-.1-1.737.995-1.831,1.86-.034.307.014,1.37.454,1.429.287.039.839-.492,1.065-.665C3184.074,1449.119,3184.228,1448.952,3184.414,1448.947Z"/><path class="c" d="M3193.8,1415.242l-4.082-1.239-3.918-.208s-2.945,2.168-2.954,2.217-1.307,3.9-1.307,3.9l1.823,3.491,3.674,2.108,3.856,1.1,3.808-.571,2.217-1.941.552-3.05-.581-2.956Z"/><path class="y" d="M3195.882,1415.129a13.288,13.288,0,0,0-9.364-2.513,6.5,6.5,0,0,0-5.8,7.958,9.344,9.344,0,0,0,7.434,6.909,33.033,33.033,0,0,0,4.332.195c3.588-.292,5.485-2.77,6.021-6.183A6.251,6.251,0,0,0,3195.882,1415.129Zm-.234,8.687a3.653,3.653,0,0,1-2.769,1.67,22.136,22.136,0,0,1-2.666.109c-.517,0-1.035-.1-1.82-.184a7.482,7.482,0,0,1-5.4-4.323,4.48,4.48,0,0,1,3.023-6.164,9.23,9.23,0,0,1,8.642,1.957A5.649,5.649,0,0,1,3195.648,1423.816Z"/><path class="y" d="M3208.092,1418.6q.094-1.292.175-2.588.077-1.23.156-2.459.039-.623.078-1.246a5.5,5.5,0,0,0,.076-1.209l.033.022q-.123-.8-.247-1.607a5.605,5.605,0,0,0-.136-.878,1.8,1.8,0,0,0-.216-.352c-.136-.244-.1-.552-.351-.748a1.343,1.343,0,0,0-1.147-.095,1.261,1.261,0,0,0-.764,1.591,6.187,6.187,0,0,1,.11.974c.051.494.168.979.2,1.474a23.472,23.472,0,0,1,.159,3.625c-.281,3.167-.52,6.354-1.1,9.469-.484,2.592-1.564,5.069-2.126,7.653-.286,1.311-.918,1.415-1.956,1.323-2.426-.213-4.858-.378-7.283-.613a1.379,1.379,0,0,1-.84-.582,3.575,3.575,0,0,0-4.09-1.385c-1.226.467-2.38,1.123-3.722,1.771-.584-1.066-1.822-.771-2.834-.854-2.211-.179-4.44-.117-6.658-.224-1.477-.073-1.795-.621-1.648-2.124.262-2.652.358-5.322.677-7.967.3-2.525.752-5.035,1.239-7.531.321-1.646.837-3.253,1.236-4.885a2.009,2.009,0,0,1,.883-1.056c.372-.256.88-.312,1.038-.761a1.393,1.393,0,0,0,.055-.538,1.651,1.651,0,0,0-.86-1.154,2.062,2.062,0,0,0-1.349-.215,2.156,2.156,0,0,0-.857.572c-.27.283-.27.588-.408.931-.1.262-.166.538-.253.807a15.472,15.472,0,0,0-.44,1.564c-.095.461-.3.853-.365,1.328a38.308,38.308,0,0,1-.928,5.99c-.15.5-.214,1.021-.324,1.527-.162.739-.294,1.493-.436,2.237-.074.388-.14.779-.211,1.167a7.524,7.524,0,0,0-.168.808c-.014.2.049.379.034.58a16.208,16.208,0,0,1-.313,1.661,6.308,6.308,0,0,0,.09,3.279c.132.369-.107.867-.164,1.306-.089.7-.205,1.4-.244,2.1-.066,1.181-.072,2.363-.121,3.545-.016.368-.236.787-.118,1.089a3.593,3.593,0,0,1,.25,1.54c-.022.335-.18.682.019.985a2.439,2.439,0,0,0,1.526.764c1.25.23,2.508.166,3.77.337,1.942.264,3.892.482,5.841.69a5.822,5.822,0,0,0,1.169-.119c1.36,2.552,1.919,2.859,4.737,2.181,1.246-.3,2.391-1.048,3.639-1.292a19.414,19.414,0,0,1,3.833-.127c.8.006,1.59.14,2.388.155a2.721,2.721,0,0,1,.914.088,7.639,7.639,0,0,0,1.111.24,2.292,2.292,0,0,0,1.593-.245c.347-.189.58-.331.6-.7a7.713,7.713,0,0,1,.65-2.929,17,17,0,0,0,.889-2.389c.121-.431.243-.862.362-1.293.544-1.96,1.072-3.924,1.623-5.883.274-.979.57-1.953.843-2.932a8.239,8.239,0,0,0,.108-1.057c.073-.484.134-.971.2-1.456.087-.606.154-1.193.208-1.8Q3208.013,1419.642,3208.092,1418.6Zm-32.975,19.214a1.975,1.975,0,0,1-1.044-1.225,9.311,9.311,0,0,1-.228-2.2.945.945,0,0,1,1-1.084,19.4,19.4,0,0,1,6.332.588c.848.241,1.713.422,2.423.6-.129,1.357-.235,2.477-.349,3.682A22.379,22.379,0,0,1,3175.117,1437.817Zm12.722,2.79c-.263.033-.61-.231-.849-.438a4.277,4.277,0,0,1-.886-5.175c.838-1.83,2.425-2.148,4.073-2.491a.886.886,0,0,1,.525.134c.914.486,2.3,3.3,2.115,4.25C3192.234,1439.667,3190.477,1440.285,3187.839,1440.607Zm13.211-2.259a.989.989,0,0,1-.71.425c-1.65.144-3.3.272-4.959.317-.234.008-.677-.456-.685-.712-.03-1.024.072-2.052.142-3.383l7.435.461C3201.866,1436.442,3201.494,1437.414,3201.05,1438.348Z"/><path class="x" d="M3208.088,1421.251l3.946-8.476-4.112-2.464.166,10.94"/><path class="w" d="M3213.077,1412.734l-4.474,9.236s2.295,1.716,2.488,1.751,2.6.82,2.6.82l1.8.278,1.631-1.006,1.332-1.86.924-2.585-.1-1.968-1.963-2.4Z"/><path class="y" d="M3210.818,1412.613c.115.085.134.44.062.615q-.691,1.68-1.409,3.351c-.2.463-.4.93-.606,1.389-.114.252-.214.488-.488.589s-.579.049-.858.146a1.735,1.735,0,0,0-.667.44,4.352,4.352,0,0,0-.878,3.246c.047.629.429,2.5,1.474,2.09.194-.078.239-.292.347-.45a1.06,1.06,0,0,1,1.478-.436c.4.181.8.386,1.19.572a10.06,10.06,0,0,0,1.1.613c.6.2,1.71,1.108,2.309.388a.89.89,0,0,0,.11-.948c-.215-.316-.6-.426-.9-.647a6.373,6.373,0,0,0-.9-.657c-.621-.322-1.239-.646-1.851-.985a1.115,1.115,0,0,1-.5-1.67c.862-1.793,1.709-3.594,2.518-5.412a.721.721,0,0,1,1.171-.388,13.709,13.709,0,0,0,2.144.986,5.486,5.486,0,0,0,1.276.456c.688.06.832-.691.633-1.206-.306-.8-1.4-1.116-2.066-1.519-1.07-.645-2.191-1.211-3.238-1.889-.844-.547-1.677-1.114-2.506-1.683-.426-.3-.858-.581-1.279-.883s-.609-.349-1.029.038a1.13,1.13,0,0,0-.288,1.161,2.231,2.231,0,0,0,1.428,1.439,4.74,4.74,0,0,1,1.033.439C3210.036,1412.062,3210.434,1412.33,3210.818,1412.613Z"/><path class="x" d="M3175.452,1407.43l-6.434,1.023,3.316,9.115,1.9-.158,1.786-9.877-.566-.1"/><path class="w" d="M3168.215,1408.591l3.1,9.843-1.56.769-2.266.463-1.8-.1-1.509-.949-1.437-1.034s-.806-3.3-.78-3.442-.234-1.752-.16-2.16.688-2.145.688-2.145Z"/><path class="y" d="M3173.047,1415.952c-.285-.008-.528-.078-.621-.33-.728-1.965-1.428-3.94-2.071-5.933-.047-.146.388-.62.641-.659.766-.116,1.537-.2,2.31-.253.615-.044,1.182-.011,1.791-.006a1.956,1.956,0,0,0,2.185-1.458c.1-.569-.152-.686-.667-.775a3.643,3.643,0,0,0-1.691.029,10.91,10.91,0,0,1-1.522.412c-2.014.3-4.032.58-6.049.864q-1.512.211-3.025.427c-.423.062-.892.068-1.3.158a2.328,2.328,0,0,0-.841.491c-.23.188-.562.51-.368.832.377.632,1.688.659,2.273.481a34,34,0,0,1,3.755-.693c.784,2.735,1.512,5.273,2.286,7.978-.86.225-1.683.519-2.529.651-.577.09-1.156.166-1.734.239a3.449,3.449,0,0,0-1.344.3c-.525.3-1.386,1.082-.636,1.627a2.358,2.358,0,0,0,.921.314,2.279,2.279,0,0,0,1-.123,35.832,35.832,0,0,1,3.7-.374c.714-.074,1.419-.143,2.122-.268.655-.116,1.361.161,2.041.069.5-.069.7-.535.738-.986a4.6,4.6,0,0,0-.073-.669c-.015-.3.24-.5.307-.79.131-.565.246-1.272-.4-1.555A4.511,4.511,0,0,0,3173.047,1415.952Z"/><path class="w" d="M3159.9,1419.766l-2.48-9.091,2.2-.752,2.335-.005,2.179.821s1.277,3.255,1.3,3.41.384,2.557.4,2.772-.4,2.215-.4,2.215l-2.922.81Z"/><path class="c" d="M3157.2,1410.385l-5.3.817a9.465,9.465,0,0,0-1.506-.112,15.8,15.8,0,0,1-1.657-1.636l-3.584-3.023-3.127-.566s-5.014,1.01-5.1.937-4.32,3.262-4.32,3.262l-2.416,6.165,1.441,6.288,3.608,4.278,4.437,1.352,4.969-.627,4.4-2.755,2.2-3.854,8.12-.882-1.557-9.384Z"/><path class="y" d="M3161.238,1419.088c-1.067.221-1.357-.26-1.509-1.02-.41-2.057-.76-4.125-1.123-6.19a3.357,3.357,0,0,1,.022-.67c0-.092,2.52-.456,2.765-.5a7.437,7.437,0,0,0,1.358-.269,9.913,9.913,0,0,1,.992-.2.82.82,0,0,0,.687-.647c.074-.347-.016-.813-.36-.94-.03-.011-.061-.021-.092-.03a6.278,6.278,0,0,0-2.762.109q-1.5.217-3,.441c-2,.3-4,.61-5.986.959a2.188,2.188,0,0,1-2.493-1.055,10.106,10.106,0,0,0-4.8-3.923c-1.839-.645-3.59-.23-5.389-.036a11.311,11.311,0,0,0-9.824,7.33c-1.491,3.489-.668,6.858.469,10.122,1.028,2.953,3.6,4.728,6.1,6.412a4.122,4.122,0,0,0,1.8.512,13.953,13.953,0,0,0,8.809-2.115,9.327,9.327,0,0,0,4.564-4.931,1.077,1.077,0,0,1,.714-.553c1.08-.216,2.174-.381,3.269-.519,2.277-.288,4.657.725,6.863-.534.083-.046.221.015.331.005,1.276-.124,3.532.029,4.13-1.444.164-.4-.034-.554-.393-.712a4.211,4.211,0,0,0-2.2-.065C3163.189,1418.746,3162.209,1418.888,3161.238,1419.088Zm-10.909,0c-.174.706-.363,1.336-.479,1.979a5.614,5.614,0,0,1-2.36,3.878c-2.022,1.211-4.108,2.412-6.668,2.522-2.855.124-7.022-2.5-7.891-5.108a32.629,32.629,0,0,1-1.431-7.1,6.964,6.964,0,0,1,1.738-4.661c2.419-3.29,5.755-4.317,9.674-4a6.264,6.264,0,0,1,5.307,4.78,2.015,2.015,0,0,0,.833,1.306,2.784,2.784,0,0,0,.737.138,2.137,2.137,0,0,0,.842.04c2.034-.443,4.058-.934,6.242-1.446.559,2.792,1.062,5.317,1.593,7.972C3155.75,1419.537,3153.164,1420.195,3150.329,1419.091Z"/><path class="w" d="M3218.676,1426.634l3.711-7.439-2.427-1.533-2.383-1.931-2.381.845s-1.921,2.129-1.989,2.3-.841,2.361-.824,2.477,1.313,3.188,1.313,3.188l3.381,1.8Z"/><path class="c" d="M3222.408,1419.081l-3.7,8.184,9.563,4.842.805,4.085,3.053,2.614,5.682.765,7.578-3.281,2.289-5.6-.547-2.375-2-4.288-5.368-5-5.551-.659-2.836.943-1.464,1.241-.407,1.422-.4.565-5.858-3.536-.838.075"/><path class="y" d="M3220.607,1418.7c.135.184.305.474.259.587-.806,2.026-1.494,3.81-2.229,5.576-.392.941-1.191.919-2.006.539-.383-.178-.761-.381-1.131-.586a9.393,9.393,0,0,0-.9-.438,5.676,5.676,0,0,0-1.04-.414c-.231-.042-.293-.066-.469.09a1.235,1.235,0,0,0-.352.531c-.233.958.951,1.079,1.494,1.477a3.149,3.149,0,0,0,.914.6,9.743,9.743,0,0,1,1.5.607c1.37.715,2.779,1.328,4.208,1.916.932.384,1.918.534,2.855.986.993.481,2.436.85,2.886,1.938.287.692.323,1.543.59,2.263a20.1,20.1,0,0,0,.972,2.177c2.362,4.639,9.221,5.155,13.416,2.863a16.31,16.31,0,0,0,4.764-3.363,8.693,8.693,0,0,0,1.862-7.705,16.989,16.989,0,0,0-4.492-8.131,10.162,10.162,0,0,0-5.995-3.023c-2.736-.474-5.437-.269-7.627,1.721a13.143,13.143,0,0,0-1.595,2.309c-.988-.744-1.964-1.5-2.964-2.211s-2.191-1.026-3.213-1.677a13.607,13.607,0,0,0-1.4-.987c-.453-.212-.894-.524-1.361-.709a9.39,9.39,0,0,1-1.606-.984c-.409-.27-.995-.651-1.464-.3-.8.592.068,1.34.537,1.765.31.282.657.518.963.807a10.42,10.42,0,0,0,1.065.95,2.861,2.861,0,0,0,.746.4,1.783,1.783,0,0,1,.7.3A.935.935,0,0,1,3220.607,1418.7Zm2.808,1.8c1.636,1.176,3.087,2.177,4.484,3.247a7.24,7.24,0,0,1,.947,1.219,1.7,1.7,0,0,0,2.116.347c.762-.292.622-.9.562-1.565-.232-2.516.6-3.634,3.7-4.033,3.676-.473,6.544,1.194,8.83,4.031a9.772,9.772,0,0,1,2.406,6.532c-.123,2.251-.773,4.7-3.069,6.035-.641.373-1.572.373-2.058.856a2.428,2.428,0,0,1-1.845.742c-1.083.055-2.145.564-3.227.609a7.783,7.783,0,0,1-4.959-1.207,4.846,4.846,0,0,1-1.747-4.684c.4-1.194.194-1.6-.994-2.168-2.612-1.243-5.214-2.51-8.058-3.883C3221.483,1424.529,3222.413,1422.591,3223.415,1420.5Z"/><path class="w" d="M3182.8,1448.106l.058-3.645s-3.642-3.122-3.868-3.256-6.038-1.852-6.038-1.852l-2.639,1.94s-4.475,7.494-4.518,7.635-6.776,11.628-6.776,11.628l-1,3.07,2.016,2.415,5.722,5.036,1.981.008,6.86-9.713,6.985-10.39Z"/><path class="y" d="M3160.915,1459.045c.908-1.465,1.725-2.984,2.637-4.446.536-.859,1.2-1.638,1.77-2.474a11.484,11.484,0,0,0,.965-1.624c.79-1.7,1.549-3.411,2.3-5.128.828-1.9,2.617-2.987,3.829-4.548a3.54,3.54,0,0,1,1.909-1.3c.311-.081.853-.158.729-.61-.1-.346-.57-.566-.855-.719a3.6,3.6,0,0,0-1.473-.5,1.56,1.56,0,0,0-.668.085c-.277.117-.247.272-.319.532a4.631,4.631,0,0,1-1.08,1.781,54.932,54.932,0,0,0-5.612,8.345c-2.119,3.443-4.135,6.947-6.193,10.426-.357.6-1.62,2.42-.627,3.053a.6.6,0,0,0,.771-.064c.174-.165.266-.405.426-.575a4.582,4.582,0,0,0,.5-.662Q3160.424,1459.835,3160.915,1459.045Z"/><path class="y" d="M3180.559,1449.893c-1.9,3.04-3.814,6.072-5.783,9.068l-.2.306q-1.682,2.553-3.392,5.084-.853,1.268-1.709,2.532c-.251.371-.49.751-.741,1.124a4.108,4.108,0,0,0-.564.85c-.111.3-.2.749.062.979.806.714,1.931-1.058,2.3-1.524.787-.982,1.652-1.9,2.372-2.939,3.087-4.43,6.1-8.913,9.154-13.366.613-.892,1.277-1.747,1.916-2.621.388-.532.992-1.344.543-2.006C3183.406,1445.736,3181.069,1449.077,3180.559,1449.893Z"/><path class="w" d="M3205.647,1449.678l-3.348-6.957-1.168-1.562-2.133.165a16.147,16.147,0,0,0-2.618.076c-.277.151-4.481,1.8-4.481,1.8l-4.792,3.121s-1.24,1.723-1.051,2.06,1.224,3.472,1.224,3.472l8.545,18.65s1.148,2.508,1.307,2.737a12.706,12.706,0,0,0,2.087.628c-.007.048,5.64-1.281,5.64-1.281l4.572-2.024,1.027-1.809-.251-2.82Z"/><path class="y" d="M3201.227,1442.179c.76,1.576,1.445,3.186,2.126,4.8.643,1.52.8,3.054,1.383,4.584.919,2.4,2.116,4.538,2.682,7.072.347,1.554.745,3.1,1.153,4.634a7.673,7.673,0,0,0,.616,2.066c.217.339.815.878,1.22.494s.015-.771-.054-1.211a12.81,12.81,0,0,0-.391-1.526c-1.074-3.761-2-7.566-3.159-11.3-.891-2.882-1.953-5.72-3.1-8.514a9.1,9.1,0,0,1-.458-1.421c-.109-.478-.09-.97-.183-1.443-.184-.942-1.593-.815-2.233-.539a1.147,1.147,0,0,0-.558,1.246c.064.239.246.265.433.412A1.868,1.868,0,0,1,3201.227,1442.179Z"/><path class="y" d="M3193.928,1464.643c-1.338-2.775-2.05-5.835-3.493-8.532-.536-1-1.123-1.974-1.584-3.01-.522-1.175-1.026-2.361-1.639-3.492-.488-.9-1.106-2.26-2.2-2.526a.629.629,0,0,0-.725.408,1.672,1.672,0,0,0,.082,1.084,9.794,9.794,0,0,0,1.123,1.784,21.453,21.453,0,0,1,1.164,2.064c.691,1.384,1.27,2.818,1.9,4.231.877,1.975.944,4.255,2.277,6.054a7.882,7.882,0,0,1,.921,1.106c.277.58.331,1.262.591,1.852.581,1.32,1.194,2.627,1.795,3.939.42.918.665,1.937,1.867,1.965a.906.906,0,0,0,.847-.7c.383-1.018-.628-2.319-1.122-3.137C3195.113,1466.715,3194.448,1465.72,3193.928,1464.643Z"/><path class="w" d="M3198,1474.126l13-4.178a40.62,40.62,0,0,0-3.84-5.345c-1.88-2.065-7.183,2.284-7.183,2.284l-1.908,2.307-.787,4.352Z"/><path class="c" d="M3228.2,1482.387l-6.077-.45-6.362,3.2-4.9-14.448-13.768,3.872,4.137,13.651,3.389,12.842s.449,4.582,4.25,4.744,14.016-2.342,14.016-2.342l7.79-2.793,4.27-5.754-.857-5.23-1.725-4.165Z"/><path class="y" d="M3235.471,1492.286a12.228,12.228,0,0,0-1.691-6.595,16.683,16.683,0,0,0-2.561-3.433c-1.771-1.774-4.206-1.472-6.451-1.769a11.294,11.294,0,0,0-7.982,2.134c-.607.406-.927.292-1.138-.384q-.625-2-1.288-3.992c-.2-.6-.49-1.166-.641-1.773-.4-1.6-.754-3.208-1.1-4.819a5.812,5.812,0,0,1-.069-1.161c-.007-.846.573-1.861-.721-2.328-.165-.061-.292-.334-.362-.534-.237-.686-.48-1.37-.717-2.055a4.016,4.016,0,0,0-.822-1.644c-.175-.168-.472-.595-.755-.294-.374.4-.013,1.293.044,1.745a15.627,15.627,0,0,0,.429,2c.228.891.207,1.674-.875,2.052-1.9.667-3.768,1.415-5.67,2.066-1.537.525-3.106.959-4.664,1.426-.247.074-.506.107-.743.154-.073-.08-.163-.133-.164-.188-.01-1.2-.254-3.066-1.429-3.715-.238-.132-.729-.292-.98-.109s-.247.7-.3.981c-.192,1.106.456,2.138.85,3.129.7,1.738,1.11,3.585,1.654,5.382,1.019,3.365,2.076,6.718,3.05,10.1.533,1.844.9,3.738,1.4,5.592.833,3.108,1.7,6.206,2.572,9.3.983,3.508,4.8,3.5,7.835,2.922,2.148-.407,4.528-.367,6.59-1.107,1.8-.645,3.624-1.011,5.472-1.524a35.886,35.886,0,0,0,8.466-3.2,5.568,5.568,0,0,0,1.5-1.947c.223-.36.157-.9.392-1.249C3235.692,1495.853,3235.4,1494.007,3235.471,1492.286Zm-2.791,4.962a9.118,9.118,0,0,1-2.248,2.19,8.7,8.7,0,0,1-2.932,1.482,34.83,34.83,0,0,1-4.536,1.406c-1.563.264-3.16.477-4.739.76-1.406.251-2.805.632-4.218.836a36.033,36.033,0,0,1-5.07.546,2.672,2.672,0,0,1-2.474-1.491,19.519,19.519,0,0,1-1.679-4.472c-.547-1.553-1.123-3.1-1.616-4.669a25.7,25.7,0,0,1-.573-3.439,27.14,27.14,0,0,0-.687-3.8c-.824-2.587-1.828-5.117-2.713-7.685a12.9,12.9,0,0,1-.566-2.479.99.99,0,0,1,.536-.759,24.612,24.612,0,0,1,3.064-1.019,27.576,27.576,0,0,0,8.189-2.966c.672,2.317,1.336,4.464,1.913,6.636.49,1.846.887,3.721,1.307,5.586.061.267-.061.59.038.833a3.653,3.653,0,0,0,.785,1.423,1.265,1.265,0,0,0,1.576.085c2.215-1.178,4.019-3.214,6.829-3.209a15.765,15.765,0,0,1,6.15.878,4.578,4.578,0,0,1,2.129,1.858c1.066,1.969,2.541,3.818,2.6,6.2A9.774,9.774,0,0,1,3232.68,1497.248Z"/><path class="w" d="M3165.813,1471.461l-8.81-8.044,2.453-1.658,2.206-1.4s3.442,1.123,3.663,1.313a18.311,18.311,0,0,1,1.913,1.905c.1.261,1,2.772,1,2.772l-.067,2.485-.738,2.523-.793.505Z"/><path class="c" d="M3166.131,1472.468l-9.268-8.277-8.43,14.78-.806.305-9.69-4s-4.4-.595-7.375.918a12.558,12.558,0,0,0-5.079,5.383c-.466.916-1.793,6.027.747,9.988s12.771,7.46,14.023,7.736,5.915,1.07,7.091.382,5.571-6.445,5.571-6.445l6.258-8.221,5.28-7.969S3167.147,1474.051,3166.131,1472.468Z"/><path class="y" d="M3167.421,1469.9c-.224.332-.508.625-.78.953-2.764-2.523-5.481-5-8.416-7.682-.022-.019.595-.906.649-.987a3.192,3.192,0,0,0,.385-.83c.158-.471.583-1.244.18-1.708-.667-.77-1.63.957-1.87,1.358-.225.374-.8.518-1.145.846a2.76,2.76,0,0,0-.675,1.005c-.181.5-.1,1.123-.358,1.562-1.328,2.265-2.731,4.486-4.1,6.727a6.87,6.87,0,0,0-.32.7c-.858,1.845-1.668,3.715-2.59,5.528-.627,1.232-.713,1.123-1.935.41a36.039,36.039,0,0,0-3.879-1.853c-.642-.279-1.377-.35-2.01-.644a10.584,10.584,0,0,0-5.041-1.011,12.122,12.122,0,0,0-7.837,2.83,8.644,8.644,0,0,0-1.561,2.133c-1.116,1.919-2.3,3.841-2.116,6.192.23,2.993.659,5.565,2.477,8.026,1.658,2.244,4.77,3.339,7.181,4.569a30.623,30.623,0,0,0,4.717,2.15c2.086.652,4.291.911,6.405,1.482a3.284,3.284,0,0,0,3.575-1.209,37.426,37.426,0,0,0,3.394-4.347c2.236-3.5,4.852-6.715,7.3-10.054.692-.941,1.255-1.976,1.92-2.937,1.62-2.346,3.274-4.665,4.9-7.008.483-.7.934-1.421,1.346-2.163.571-1.027,1.073-2.09,1.638-3.119.25-.456.5-.892.713-1.364.166-.378.439-.829.289-1.258-.192-.551-.826-.129-1.154.031C3168.151,1468.5,3167.766,1469.388,3167.421,1469.9Zm-3.555,4.738a14.13,14.13,0,0,0-1.088,2.115,5.74,5.74,0,0,1-.361.679c-1.251,1.8-2.47,3.631-3.774,5.394-2.107,2.849-4.292,5.642-6.407,8.487-1.325,1.783-2.4,3.73-3.576,5.609a3.484,3.484,0,0,1-1.836,1.757c-1.584.659-2.722.323-4.3.02a34.1,34.1,0,0,1-5.315-1.36c-1.815-.666-3.524-1.868-5.3-2.694a9.606,9.606,0,0,1-3.666-2.8c-1.119-1.485-2.332-2.943-2.331-4.848,0-2.17-.2-4.09,1.051-6.017,2.036-3.145,4.815-5.2,8.667-5.31a9.87,9.87,0,0,1,3.652.795c1.436.545,2.84,1.171,4.225,1.834a10.677,10.677,0,0,1,1.964,1.054,9.71,9.71,0,0,0,1.418,1.149c2.6,1.331,3.439-2.71,4.125-4.374a39.606,39.606,0,0,1,3.147-5.5c.969-1.558,2.039-3.051,3.214-4.794,1.862,1.825,3.656,3.583,5.45,5.339.266.259.525.522.8.765C3164.78,1472.941,3164.777,1473.415,3163.866,1474.639Z"/><path class="c" d="M3190.775,1408.155l-6.98-.716-5.77-1.589-3.644-1.31-6.512-4.273-7.267-7.17-3.941-8.515-.841-6.979.952-9.506,3.379-6.141,2.732-4.307,5.124-4.25,8.4-3.659,7.686-1.986,6.139-.54,8.944.791,9.713,3.182,10.325,5.618,5.633,6.645,3.268,7.668,1.723,6.888-.533,5.23-2.2,7.179-3.623,6.323-4.336,4.467-5.4,3.675-8.812,3.055-7.832,1.364-6.327-1.144"/><path class="z" d="M3176.221,1374.564l-3.623,6.747-.2,8.867,3.259,9.941,9.658,6.4,12.269,1.368,9.417-3.349,6.994-7.388,3.045-10.753-1.278-7.583-2.927-4.88-14.06-6.693s-7.457-.3-7.58-.171-8.409,2.481-8.409,2.481Z"/><path class="aa" d="M3177.609,1374.916s4.452.855,4.7.85,7.09-1.069,7.09-1.069l5.507-3.255,1.718-3.992,2.661,3.032,4.294,5.878s7,3.367,7.235,3.459,4.518.216,4.518.216l.386-2.131,2.214-.9s4.036-1.27,4.238-1.285,3.729-6.227,3.729-6.227l-2.617-7.676-5.378-5.973-4.364-1.338-4.062.866-3.108,2.789-1.177,3.738-.485,2.963,1,3.032-.431.722-4.959-1.1-4.266-.771-5.247.152-6.636,1.051.665-4.231-1.559-6.332-4.24-4.518-3.835-1.494-7.793,2.393-5.651,5.229-.99,5.473,1.517,4.626,3.944,4.214s5.431,1.532,5.762,1.641S3177.609,1374.916,3177.609,1374.916Z"/><path class="x" d="M3199.271,1336.521s-1.886-.091-2.041-.069-3.13-1.517-3.13-1.517-2.055-4.423-1.979-4.559,2.593-5.483,2.593-5.483,5.742-1.012,5.974-.92,5.1,1.972,5.1,1.972l1.641,5.048-1.375,4-2.963,1.715Z"/><path class="y" d="M3179.87,1407.606c.691.231,1.381.461,2.074.684,1.88.606,3.78,1.2,5.706,1.644a25.851,25.851,0,0,0,3.468.534c.564.052,1.109.1,1.664.2a16.14,16.14,0,0,0,1.855.113c.453.024.906.025,1.359.046a16.541,16.541,0,0,0,2.583-.227,21.611,21.611,0,0,0,2.7-.474,36.022,36.022,0,0,0,3.664-1.068c.648-.232,1.273-.515,1.933-.708,1.2-.351,2.415-.68,3.625-1.023.367-.1.725-.136,1.082-.272s.721-.31,1.08-.47a22.161,22.161,0,0,0,3.736-2.175c3.143-2.221,6.721-5.027,8.9-8.246.788-1.165,1.4-2.425,2.12-3.631a17.157,17.157,0,0,0,1.455-3.448,32.6,32.6,0,0,0,1.643-7.4,12.317,12.317,0,0,0,.22-2.929c-.149-1.05-.3-2.115-.438-3.173a28.711,28.711,0,0,0-.712-3.76,30.462,30.462,0,0,0-9.273-15.321,38.327,38.327,0,0,0-10.846-6.4c-2.542-1.007-5.225-1.662-7.855-2.442-.712-.211-1.46-.3-2.182-.481a.949.949,0,0,1-.855-1.167c.262-2.317.5-4.639.634-6.966.055-.969.47-1.014,1.289-1.162a14.66,14.66,0,0,0,5.061-1.444c2.12-1.3,2.579-3.67,2.775-6.1.219-2.725-2.618-7.43-5.96-7.81a22.018,22.018,0,0,0-5.5.2,5.25,5.25,0,0,0-3.984,2.114,9.439,9.439,0,0,0-1.666,6.939c.36,2.375,1.429,4.474,4.019,5.418,1.9.692,1.881.826,1.755,2.877-.1,1.73-.263,3.454-.372,5.183-.058.909-.428,1.275-1.362.98a4.677,4.677,0,0,0-1.406-.223c-1.852.009-3.714-.044-5.554.124-2.58.237-5.144.64-7.711,1a8.078,8.078,0,0,0-1.158.377c-.664.2-1.352.329-1.994.583-2.329.922-4.7,1.766-6.944,2.869a30.646,30.646,0,0,0-4.653,3.007,16.113,16.113,0,0,0-3.715,3.271c-1.4,1.984-2.962,3.846-4.167,5.961a18.66,18.66,0,0,0-2.392,5.815c-.3,1.691-.6,3.5-.738,5.213-.477,5.849.206,11.365,3.051,16.542a31.869,31.869,0,0,0,3.414,5.07c1.176,1.407,2.731,2.491,4.01,3.821a19.59,19.59,0,0,0,4.078,3.226,27.8,27.8,0,0,0,3.483,1.825c.836.351,1.614.806,2.465,1.127.771.292,1.486.7,2.268.967C3178.358,1407.063,3179.1,1407.347,3179.87,1407.606Zm22.02-1.849a33.175,33.175,0,0,1-4.933,1.161c-.844.107-1.765.014-2.628.1a16.152,16.152,0,0,1-4.7-.6,27.318,27.318,0,0,1-5-1.367,19.522,19.522,0,0,1-8.378-5.881,15.348,15.348,0,0,1-3.075-7.748c-.143-1.134-.363-2.267-.4-3.406a16.57,16.57,0,0,1,2.751-9.9c.7-1.034,1.268-1.9,2.612-1.741a27.3,27.3,0,0,0,13.053-1.207,4.114,4.114,0,0,0,1.284-.585c1.324-.995,2.655-1.991,3.888-3.095a9.8,9.8,0,0,0,1.294-2c.531.827,1.1,1.62,1.574,2.469a16.834,16.834,0,0,0,7.628,7.545c2.3,1.042,4.755,2.153,7.492,1.51.239-.056.765.341.876.634,1.173,3.1.57,6.222-.082,9.312a18.314,18.314,0,0,1-3.435,7.6,28.673,28.673,0,0,1-3.5,3.361A16.6,16.6,0,0,1,3201.89,1405.757Zm-22.947-31.4a38.413,38.413,0,0,1,4.881-3.936,17.931,17.931,0,0,1,5.569-2,37.724,37.724,0,0,1,5.98-.2c.05.182.1.365.145.547-1.5,1.755-2.776,3.741-5.288,4.349-2.215.537-4.405,1.182-6.624,1.707A8.17,8.17,0,0,1,3178.943,1374.354Zm20.464-5.772a14.334,14.334,0,0,1,4.793,1.085c4.311,1.854,8.385,3.947,10.126,8.954a15.651,15.651,0,0,1-7.41-1.2C3203,1375.767,3201.251,1372.309,3199.407,1368.582Zm26.707,3.344c.319-.986.51-1.147.934-.067a17.489,17.489,0,0,1,.826,2.73,21.957,21.957,0,0,1,.213,9.128c-.172.934-.281,1.9-.508,2.824a27.3,27.3,0,0,1-5.334,9.883c-.672.865-1.432,1.769-2.187,2.567-1.438,1.515-3.281,2.345-4.92,3.608a18.16,18.16,0,0,1-4.339,2.375c-1.772.671-3.6,1.2-5.4,1.794-.042-.094-.082-.188-.123-.282A20.088,20.088,0,0,0,3207.6,1405c2.636-2.222,5.573-4.006,7.224-7.126a30.5,30.5,0,0,0,2.753-10.154,19.931,19.931,0,0,0-.892-8.546c-.257-.863.08-1.1.842-1.069a8.37,8.37,0,0,0,6.709-2.767A9.542,9.542,0,0,0,3226.114,1371.926Zm-6.969-13.558c1.483,1.75,2.931,3.543,4.251,5.417,1.174,1.666,1.462,3.6,1.029,6.382a15.886,15.886,0,0,1-1.659,3.565c-1.637,2.2-4.15,2.516-6.718,2.317a1.328,1.328,0,0,1-.832-.631,15.625,15.625,0,0,0-6.745-6.377,4.457,4.457,0,0,1-1.461-1.615c-1.285-1.911-1.158-3.97-.623-6.1.891-3.548,3.434-5.013,6.769-5.428A6.517,6.517,0,0,1,3219.145,1358.368Zm-21.107-22.744a4.212,4.212,0,0,1-2.321-.445,4.848,4.848,0,0,1-2.248-6.077,8.489,8.489,0,0,1,.825-2.16,4.284,4.284,0,0,1,3.106-2.139c1.762-.214,3.448-.621,5.289.106,2.418.955,3.953,4.514,3.431,6.707-.6,2.836-2.663,3.864-5.1,4.092-.074.007-.185.028-.217-.01C3199.893,1334.6,3198.977,1335.541,3198.038,1335.624Zm-14.783,13.117a40.56,40.56,0,0,1,6.063-.592c1.845-.066,3.7.075,5.55.173.726.04,1.489.064,1.915.885a.843.843,0,0,0,.788.255c.867-.486,1.64-.1,2.443.129,3.123.908,6.257,1.78,9.364,2.738a10.2,10.2,0,0,1,2.444,1.322,8.143,8.143,0,0,0-6.8,5.132c-1.035,2.67-1.814,5.563.017,8.638a41.305,41.305,0,0,0-19.414-.684c1.185-7.124-1.71-12.367-7.85-15.981-.035-.137-.069-.276-.1-.412A58.06,58.06,0,0,1,3183.255,1348.741Zm-20.373,10.216a36.532,36.532,0,0,1,3.275-3.017,13.3,13.3,0,0,1,10.023-3.091c3.905,1.013,5.832,3.863,7.228,7.185a10.914,10.914,0,0,1,.066,7.252c-.442,1.565-1.981,2.76-3.517,3.632a9.868,9.868,0,0,0-1.521.915c-3.241,2.743-6.811,2.44-10.5,1.2a8.388,8.388,0,0,1-5.005-5.041,11.358,11.358,0,0,1-1.062-7.135A4.217,4.217,0,0,1,3162.882,1358.957Zm7.855,42.318a46.862,46.862,0,0,1-5.29-4.048c-4.75-4.692-8.428-10.065-8.727-17a51.224,51.224,0,0,1,.557-9.961c.3-1.957,1.5-3.774,2.4-5.9,1.23,3.376,2.153,6.544,4.938,8.734a14.123,14.123,0,0,0,9.284,2.849,51.966,51.966,0,0,0-2.028,4.92,16.573,16.573,0,0,0-.74,7.122,40.873,40.873,0,0,0,2.024,8.866,14.679,14.679,0,0,0,5.369,6.928,14.125,14.125,0,0,1,2.509,2.08,3.705,3.705,0,0,1-.923-.049A31.3,31.3,0,0,1,3170.737,1401.275Z"/><path class="y" d="M3206.907,1388.99c-.405.015-.807.14-1.21.144a73.289,73.289,0,0,1-7.769-.313,57.24,57.24,0,0,1-6.423-.728c-2.029-.442-4.063-.833-6.048-1.424-2.46-.732-4.836-1.748-7.416-2.706-.978.768-.947,1.6.435,2.285a16.677,16.677,0,0,0,2.2.747c2.814.919,5.582,2.041,8.458,2.7,2.915.664,5.943.826,8.908,1.287a32.356,32.356,0,0,0,10.356.151C3208.906,1389.479,3208.491,1388.932,3206.907,1388.99Z"/><path class="y" d="M3199.427,1384.1a1.553,1.553,0,0,0,1.234-.9c.236-1.16-.392-2.266-1.114-2.337-.911-.091-1.178.424-1.065,1.287C3198.073,1383.114,3198.31,1383.94,3199.427,1384.1Z"/><path class="y" d="M3189.563,1382.338c.4.01.8-.334,1.014-.434.22-1.173-.382-2.4-1.047-2.372a1.475,1.475,0,0,0-1.118.733C3188.1,1381.131,3188.8,1382.319,3189.563,1382.338Z"/></g></svg>