<svg xmlns="http://www.w3.org/2000/svg" xmlns:xlink="http://www.w3.org/1999/xlink" width="714.5" height="495.599" viewBox="0 0 714.5 495.599"><defs><style>.a,.c,.q{fill:none;}.b{fill:#b6d7db;opacity:0.49;}.c{stroke:#000;}.c,.q{stroke-miterlimit:10;}.d{fill:#40bf4a;}.e{font-size:16px;}.e,.g{font-family:BPGArial, BPG Arial;}.f{fill:#4cbfe6;}.g{font-size:10px;}.h{fill:#ff8c1a;}.i{clip-path:url(#a);}.j,.l{fill:#d8a35d;}.j{fill-rule:evenodd;}.k{fill:#947dce;}.m{fill:#62548a;}.n{fill:#ffc84f;}.o{opacity:0.3;}.p{opacity:0.5;}.q{stroke:#947dce;stroke-width:1.486px;}.r{fill:#d19442;}.s{opacity:0.15;}.t{fill:#999;}.u{fill:#ccc;}.v{fill:gray;}</style><clipPath id="a"><path class="a" d="M864.188,750.848s162.126-15.176,252.13-9.814,143.053-72.721,143.053-72.721l52.75-340.643L923.2,255.249,692.526,493.754l-87.173,217.6Z" transform="translate(-605.353 -255.249)"/></clipPath></defs><g transform="translate(-598.081 -255.249)"><g transform="translate(598.581 343.417)"><rect class="b" width="100.049" height="72.856" transform="translate(0 98.23)"/><line class="c" y2="278.238" transform="translate(100.049)"/><line class="c" y2="278.238"/><g transform="translate(11.935 108.83)"><circle class="d" cx="15.181" cy="15.181" r="15.181" transform="translate(19.882)"/><text class="e" transform="translate(35 49.851)"><tspan x="-35.41" y="0">Operators</tspan></text></g><circle class="f" cx="10.011" cy="10.011" r="10.011" transform="translate(36.987 44.404)"/><text class="g" transform="translate(46.234 76.227)"><tspan x="-18.069" y="0">Sensing</tspan></text><circle class="h" cx="9.812" cy="9.812" r="9.812" transform="translate(36.405 185.812)"/><text class="g" transform="translate(45.288 218.038)"><tspan x="-20.474" y="0">Variables</tspan></text></g><g transform="translate(605.813 255.249)"><g class="i"><g transform="translate(44.532 81.357)"><g transform="translate(0 321.529)"><path class="j" d="M693.926,646.854s-8.109-9.249-17.565-11.109c-5.622-1.105-5.43-2.525-6.378-2.989-3.143-1.54-.288,4.529,4.454,6.252,3.854,1.4,5.761,8.162,8.051,9.674s9.207,4.4,11,3.551S693.926,646.854,693.926,646.854Z" transform="translate(-645.585 -632.509)"/><path class="j" d="M720.322,658.949c-1.726-.658-19.738-12.477-29.712-13.811s-24.929-2.369-30.038-4.051c-6.009-1.978-7.644.374-.749,3.336,4.481,1.924,13.7,5,15.76,5.17,1,.082-5.487-1.063-12.517-2.824-7.473-1.871-15.562-4.332-15.991-3.005-.833,2.574,20.639,9.32,24.447,9.89a96.157,96.157,0,0,1-10.034-1.636c-4.518-.994-9.668-2.82-10.732-1.918-1.676,1.421,9.639,6.406,19.088,8.114.153.314-2.937.669-14.024-2.113-1.114-.279-4,.094-.387,1.947,7.6,3.9,10.579,6.137,21.789,6.949,10.932.79,23.107-.965,30.872,2Z" transform="translate(-647.053 -631.976)"/></g><path class="k" d="M709.1,683.3c8.762,3.428,72.381,15.1,130.777,2.269,36.856-8.079,71.618-25.936,89.205-61.777,45.445-92.649-60.745-145.2-60.745-145.2a1.909,1.909,0,0,0-.159.254c-4.6,6.952-103.587,155.459-172.268,178.633C695.912,657.471,694.817,677.693,709.1,683.3Z" transform="translate(-643.735 -321.436)"/><path class="l" d="M1114.792,833.72s-2.21,204.312,6.441,207.08c15.526,5.066,75.979,20.806,10.908,21.8-33.052,4.86-31.254-2.772-32.313-9.018-.866-5.1-15.487-186.523-18.065-200.508-.577-3.132-.927-5.026-.927-5.026Z" transform="translate(-617.588 -297.313)"/><path class="l" d="M985.341,820.244S970.726,1023.267,962,1025.792c-15.662,4.629-76.533,18.666-11.516,21.487,32.9,5.786,31.319-1.895,32.554-8.108,1.008-5.077,9.215-43.544,12.184-57.45.665-3.114,25.229-160.4,25.229-160.4Z" transform="translate(-628.439 -298.228)"/><path class="m" d="M987.44,1013.677c.72-2.873-20.07-4.973-22.689-2.872s-44.962,5.906-45.548,18.284,57.848,9.276,61.977,9.455S986.025,1019.323,987.44,1013.677Z" transform="translate(-628.567 -285.342)"/><g transform="translate(335.401 307.112)"><path class="n" d="M972.424,634.459A12.882,12.882,0,0,0,980,637.193c17.145-1.136,91.179-6.228,131.083-11.982,14.077-2.031,23.907-4.142,25.487-6.2a1.486,1.486,0,0,1,0,.164c.086,2.219.994,27.635,2.067,60.959,2.118,65.785,16.953,158.99,27.308,186.775,2.235,6-90.414,4.591-90.414,4.591-6.068-67.555-9.86-186.743-14.46-191.7-5.594-6.036-4.787,99.018-6.643,187.146-35.558,12.616-93.651,11.81-93.306,8.024C965.221,830.006,972.424,634.459,972.424,634.459Z" transform="translate(-961.121 -619.009)"/><g class="o" transform="translate(79.066)"><path d="M1035.989,631.737c-.28,0-.56,0-.831,0C1035.158,631.74,1035.453,631.735,1035.989,631.737Z" transform="translate(-1035.158 -618.144)"/><path class="p" d="M1035.936,632.6c22.181-.137,70.062-7.391,70.062-7.391,14.077-2.031,23.907-4.142,25.487-6.2a1.526,1.526,0,0,1,0,.164c.085,2.219.994,27.635,2.067,60.959a16.406,16.406,0,0,1-2.339-.068c-5.035-.492-9.1-3.237-12.371-7.281a40.169,40.169,0,0,1-5.348-9.078C1094.385,633.866,1043.047,632.628,1035.936,632.6Z" transform="translate(-1035.105 -619.009)"/></g><g transform="translate(24.88 5.753)"><line class="q" x1="2.347" y2="245.9" transform="translate(0 6.716)"/><line class="q" x1="2.537" y2="241.637" transform="translate(23.379 9.603)"/><line class="q" x2="1.218" y2="239.627" transform="translate(48.542 7.657)"/><line class="q" x2="4.735" y2="49.25" transform="translate(70.335 5.783)"/><line class="q" x2="16.416" y2="243.178" transform="translate(94.526 3.702)"/><line class="q" x2="19.813" y2="244.937" transform="translate(115.328 1.76)"/><line class="q" x2="25.888" y2="245.831" transform="translate(135.787)"/></g><path class="q" d="M970.794,658.4s131.879-5.1,166.05-14.281" transform="translate(-960.464 -617.304)"/><path class="q" d="M1060.467,675.929c-45.061,14.362-90.455,1.689-90.455,1.689" transform="translate(-960.517 -615.143)"/><path class="q" d="M1054,673.368s42.476,8.086,78.059-4.888" transform="translate(-954.812 -615.649)"/><path class="q" d="M969.336,694.429s34.61,14.492,87.644,1.025" transform="translate(-960.563 -613.886)"/><path class="q" d="M968.512,714.581s52.89,11.3,87.732.147" transform="translate(-960.619 -612.517)"/><path class="q" d="M967.669,734.6s28.018,18.319,88.08,3.854" transform="translate(-960.676 -611.157)"/><path class="q" d="M966.666,757.694s41.82,17.469,88.846-.942" transform="translate(-960.744 -609.653)"/><path class="q" d="M965.705,778.737s30.077,17.684,89.56.793" transform="translate(-960.81 -608.159)"/><path class="q" d="M964.664,800.619s40.883,17.087,90.443-3.821" transform="translate(-960.88 -606.932)"/><path class="q" d="M963.8,817.4s24.992,20.215,91.107-2.05" transform="translate(-960.939 -605.672)"/><path class="q" d="M962.707,836.626s39.016,16.452,91.962-2.75" transform="translate(-961.013 -604.414)"/><path class="q" d="M1057.558,693.932s18.557,12.816,76.335-2.852" transform="translate(-954.57 -614.113)"/><path class="q" d="M1059.718,714.131s25.289,9.245,74.38-4" transform="translate(-954.423 -612.819)"/><path class="q" d="M1060.532,736.762s38.516,8.079,75.361-6.481" transform="translate(-954.368 -611.451)"/><path class="q" d="M1061.622,755.371s37.891,13.084,76.628-6.591" transform="translate(-954.294 -610.194)"/><path class="q" d="M1062.8,775.8s35.794,9.2,78.249-6.73" transform="translate(-954.214 -608.816)"/><path class="q" d="M1063.958,795.428s30.418,10.622,80.18-6.9" transform="translate(-954.136 -607.494)"/><path class="q" d="M1065.447,812.63s36.314,14.929,82.114-5.145" transform="translate(-954.034 -606.207)"/><path class="q" d="M1066.525,834.417s40.7,10,85.451-6.356" transform="translate(-953.961 -604.809)"/></g><path class="r" d="M958.307,389.85s3.881,19.066,18.4,25.914-26.395,7.88-26.395,7.88,1.733-19.887-3.146-30.468S958.307,389.85,958.307,389.85Z" transform="translate(-626.73 -327.628)"/><ellipse class="l" cx="28.512" cy="20.898" rx="28.512" ry="20.898" transform="translate(292.857 61.72) rotate(-68.921)"/><path class="k" d="M830.973,690.924c36.856-8.079,71.618-25.936,89.2-61.777.064.1.127.175.191.27.19.238.38.492.571.777a.858.858,0,0,1,.126.175c5.064,6.92,29.921,40.9,29.921,40.92,9.016,11.746,22.793,23.032,33.729,27.572.714.317,1.445.587,2.111.826,26.809,4.19,138.459-38.238,151.761-48.841,6-4.778,8.349-27.174,8.825-51.46.6-29.6-1.54-62.064-3.111-68.9-2.667-11.476-55.382-138.443-138.094-130.411a84.842,84.842,0,0,0-21.523,5.047s-.619.651-1.715,1.619a40.7,40.7,0,0,1-7.475,5.318,31.747,31.747,0,0,1-7.635,3.063,23.4,23.4,0,0,1-15.6-1.27c-5.174-2.317-16.666.4-30.619,8.191-19.381,10.81-43.555,31.428-62.206,61.9a1.913,1.913,0,0,0-.159.254,199.412,199.412,0,0,0-26.73,73.38A473.187,473.187,0,0,0,830.973,690.924Z" transform="translate(-634.829 -326.794)"/><path class="s" d="M914.256,616.633c.062.1.135.175.2.273.188.241.38.5.563.775.048.052.082.108.135.175,5.065,6.92,29.907,40.915,29.913,40.932,9.02,11.734,22.794,23.028,33.739,27.562-12.439-19.858-49.8-77.035-56.634-102.526C925.885,609.252,914.252,616.618,914.256,616.633Z" transform="translate(-628.903 -314.287)"/><path class="s" d="M964.505,418.354c.6,1.792,0,3.265-3.026,3.737-9.432,1.475-19.591,4.789-26.011,10.417a6.594,6.594,0,0,1-6.192,1.567c-5.591-1.362-11.021-8.786-13.291-12.117a2.64,2.64,0,0,1-.362-.77c13.957-7.794,25.437-10.509,30.622-8.181a23.363,23.363,0,0,0,15.6,1.257A12.869,12.869,0,0,1,964.505,418.354Z" transform="translate(-628.81 -325.945)"/><g transform="translate(303.111)"><g transform="translate(0 5.564)"><path class="n" d="M948.051,355.572s26.543,31.728,28.107-2.184C977.239,329.925,930.192,333.3,948.051,355.572Z" transform="translate(-929.993 -336.599)"/><path class="n" d="M956.6,350.322s-23.207,3.927-25.719,15.872c0,0,8.773-35.171,27.878-28.775s25.677,11.01,10.329,45.86C969.091,383.278,974.517,352.942,956.6,350.322Z" transform="translate(-930.884 -336.641)"/></g><path class="n" d="M956.143,337.675s4.98-10.092,14.777-4.616,11.957,13.114,11.153,19.609-1.034,11.51.448,12.08c0,0-6.156,2.731-7.067.679,0,0-.262,12.133-8.516,19,0,0,3.27-14.213-3.565-18.549S956.143,337.675,956.143,337.675Z" transform="translate(-929.168 -331.431)"/><path class="n" d="M958.765,337.738s-5.692-7.3-17.094.215l-7.868,7.174s.911,2.051,4.444,1.713c0,0-5.372,9.915-6.227,16.351l11.241-16.12Z" transform="translate(-930.807 -331.219)"/></g><g transform="translate(308.161 189.851)"><path class="t" d="M944.167,618.12l120.772,49.431a13.771,13.771,0,0,0,17.948-7.518l33.729-82.433a4.331,4.331,0,0,0,.211-.6,13.72,13.72,0,0,0-7.738-17.338L988.316,510.234a13.747,13.747,0,0,0-17.934,7.527l-32.177,78.6-1.566,3.82A13.748,13.748,0,0,0,944.167,618.12Z" transform="translate(-935.613 -509.207)"/><path class="u" d="M945.83,613.7,1066.6,663.135a13.747,13.747,0,0,0,17.934-7.527l32.178-78.6a13.72,13.72,0,0,0-7.738-17.338L988.2,510.234a13.747,13.747,0,0,0-17.934,7.527l-32.177,78.6A13.719,13.719,0,0,0,945.83,613.7Z" transform="translate(-935.5 -509.207)"/><circle class="v" cx="10.623" cy="10.623" r="10.623" transform="translate(82.67 66.646)"/></g><path class="s" d="M1119.239,588.458s-11.583-46.005-128.717,5.532,99.884,1.652,99.884,1.652Z" transform="translate(-626.079 -315.256)"/><path class="s" d="M1060.033,478.583S1055.918,602.8,1175.19,619.421l2.556.781-8.472-26.4s-70.057-54.243-70.775-55.964S1060.033,478.583,1060.033,478.583Z" transform="translate(-619.002 -321.436)"/><g transform="translate(317.094 61.898)"><g transform="translate(0 222.382)"><path class="j" d="M1007.737,605.41c-1.586-.052-19.524-4.623-28-2.921s-20.918,5.041-25.538,5.1c-5.436.072-6.106,2.439.323,2.92,4.18.312,12.529.236,14.252-.2.835-.213-4.755.67-10.96,1.2-6.6.567-13.855.828-13.833,2.026.043,2.324,19.373,1.806,22.627,1.206a82.912,82.912,0,0,1-8.61,1.474c-3.949.455-8.644.41-9.257,1.441-.964,1.623,9.622,2.511,17.777,1.259.213.213-2.2,1.365-11.985,2.2-.984.083-3.221,1.192.231,1.689,7.264,1.045,10.31,2.031,19.646-.442,9.1-2.411,18.506-7.241,25.643-7Z" transform="translate(-943.978 -597.325)"/><path class="j" d="M982.964,602.419s-9.173-5.25-17.376-4.118c-4.876.672-5.117-.534-6.017-.647-2.985-.374,1.031,3.761,5.365,3.835,3.523.061,6.962,5.022,9.244,5.612s8.71,1,9.928-.188S982.964,602.419,982.964,602.419Z" transform="translate(-942.989 -597.63)"/></g><path class="k" d="M1080.806,396.693c36.3,17.079,63.233,34.969,98.982,109.6,18.137,37.861,28.366,78.084,32.988,99.525a25.835,25.835,0,0,1-10.587,26.607c-80.921,56.407-204.945.67-204.945.67-5.711-.378-.835-21.8-.835-21.8,49.47-15.33,87.947-25.161,132.033-21.758-.229-.034-60.59-61.13-71.807-79.61-29.4-48.464-88.092-80.474-82.568-104.557C975.971,397.04,1044.188,379.465,1080.806,396.693Z" transform="translate(-941.959 -389.392)"/></g><path class="m" d="M1096.1,1023.21c-.639-2.892,24.6-1.323,27.157.851s39.68,8.92,39.918,21.31-58.086,7.649-62.217,7.711S1097.358,1028.894,1096.1,1023.21Z" transform="translate(-616.552 -284.548)"/></g></g></g></g></svg>