<svg xmlns="http://www.w3.org/2000/svg" width="144.536" height="262.2" viewBox="0 0 144.536 262.2"><defs><style>.a{fill:#fff;stroke:#7fd1d8;stroke-miterlimit:10;stroke-width:3.058px;}.b{fill:#e6e7e8;}.c{fill:#295c6b;opacity:0.6;}.d{fill:#99afba;}.e{fill:#d0d2d3;}.f{fill:#a1c3d4;}.g,.h{fill:#60b1b8;font-family:DejaVuSans, DejaVu Sans;}.g{font-size:16px;}.h{font-size:12px;}</style></defs><g transform="translate(-138.471 -477.471)"><rect class="a" width="141.477" height="259.141" transform="translate(140 479)"/><g transform="translate(177.881 488.407)"><g transform="translate(0)"><path class="b" d="M4722.986-827.161c-.006,0,0,0-.007.013a.11.11,0,0,0-.018.028.973.973,0,0,1-.177.18,3.352,3.352,0,0,1-.615.377,10.385,10.385,0,0,1-1.4.539c-.912.285-1.706.462-2.257.579-.276.058-.494.1-.641.127l-.221.039.346,1.644.244-.064c.156-.041.381-.1.667-.188.571-.17,1.383-.418,2.343-.8a11.752,11.752,0,0,0,1.54-.74,4.442,4.442,0,0,0,.825-.613,1.97,1.97,0,0,0,.393-.518c.028-.059.054-.12.078-.182a1.288,1.288,0,0,0,.051-.209.844.844,0,0,0,.016-.111c0-.047,0-.095,0-.143s-.008-.095-.016-.142l-.012-.067-.008-.028-.037-.111,0-.007c-.046-.132-.016-.044-.028-.077l-.014-.026-.027-.053a.723.723,0,0,0-.062-.1,1.33,1.33,0,0,0-.278-.288,2.156,2.156,0,0,0-.554-.3,5.472,5.472,0,0,0-1.042-.261,15.256,15.256,0,0,0-2.036-.157c-1.347-.026-2.68.043-3.926.137s-2.4.221-3.391.347c-1.977.249-3.278.514-3.278.514s1.317-.161,3.3-.253c.991-.046,2.149-.081,3.387-.077s2.558.042,3.856.17a14.534,14.534,0,0,1,1.892.3,4.393,4.393,0,0,1,.819.273,1.039,1.039,0,0,1,.269.172.181.181,0,0,1,.025.028l.021.084.007.028-.01-.009a.071.071,0,0,1-.012-.026.05.05,0,0,1,0-.027S4722.987-827.161,4722.986-827.161Z" transform="translate(-4668.648 917.067)"/><path class="b" d="M4731.349-847.323a12.375,12.375,0,0,0-2.447-.8,26.681,26.681,0,0,0-3-.429c-2.151-.2-4.585-.313-7.242-.355s-5.536-.009-8.581.15c-1.523.081-3.086.192-4.684.377-.8.093-1.605.2-2.42.356a11.321,11.321,0,0,0-2.47.7,2.713,2.713,0,0,0-.636.39c-.053.044-.106.1-.158.157-.011.01-.056.069-.047.058l-.023.032-.046.063c-.032.046-.061.076-.1.133l-.1.188a1.85,1.85,0,0,0-.053,1.616,3.489,3.489,0,0,0,.887,1.168,7.707,7.707,0,0,0,1.095.809,22.626,22.626,0,0,0,4.72,2.079c-.349.042-.7.08-1.045.129a24.4,24.4,0,0,0-3.8.81,9.1,9.1,0,0,0-.9.337c-.147.063-.3.139-.441.215l-.219.126c-.08.051-.161.107-.24.163-.046.031-.061.047-.092.071l-.083.066-.021.015-.037.033-.016.014-.059.058a1.547,1.547,0,0,0-.123.138,1.146,1.146,0,0,0-.23.471.955.955,0,0,0-.008.379,1.013,1.013,0,0,0,.131.347,1.227,1.227,0,0,0,.35.359,1.893,1.893,0,0,0,.29.163,3.314,3.314,0,0,0,.483.172,10.067,10.067,0,0,0,1.609.272c.5.051.961.08,1.4.1.871.041,1.623.05,2.244.052s1.106-.005,1.439-.012l.514-.013-.086-1.716-.492.03c-.322.017-.8.041-1.4.061s-1.336.037-2.17.028c-.417-.006-.858-.018-1.315-.048a10.045,10.045,0,0,1-1.152-.133c.1-.055.2-.112.306-.163a7.23,7.23,0,0,1,.755-.317,22.967,22.967,0,0,1,3.557-.9c1.131-.207,2.31-.38,3.512-.526l.019.005c.876.217,1.732.4,2.6.584l5.183,1.077c1.719.375,3.432.768,5.089,1.256a20.791,20.791,0,0,1,2.39.845,6.918,6.918,0,0,1,1.036.544l.213.151c.056.052.112.1.169.151l.007.008c-.031.014-.063.026-.1.038a7.383,7.383,0,0,1-1.115.291c-.8.156-1.639.261-2.473.353-1.671.181-3.347.3-5,.421-3.3.236-6.512.445-9.565.776-1.526.164-3.015.357-4.461.614a24.137,24.137,0,0,0-4.215,1.08,7.733,7.733,0,0,0-2.031,1.092,3.771,3.771,0,0,0-.921,1.051l-.091.174-.044.088-.059.153-.077.217-.038.108a.734.734,0,0,0-.041.14c-.03.134-.055.271-.077.407a3.051,3.051,0,0,0,.171,1.527,4.136,4.136,0,0,0,.354.64,3.663,3.663,0,0,0,.434.5,5.268,5.268,0,0,0,1.289.892q-.562.12-1.122.264a11.789,11.789,0,0,0-2.214.785,4.721,4.721,0,0,0-.564.336,2.265,2.265,0,0,0-.583.587,1.4,1.4,0,0,0-.212.58,1.262,1.262,0,0,0,.113.692,1.783,1.783,0,0,0,.646.715,4.754,4.754,0,0,0,1.162.531,11.011,11.011,0,0,0,1.076.287c.176.038.351.074.522.106l.147.027.124.02.246.04.968.156c.766.136,1.526.235,2.264.325-1.1.179-2.21.395-3.338.691a13.253,13.253,0,0,0-1.6.528,5.3,5.3,0,0,0-1.6.963,2.413,2.413,0,0,0-.638.967,1.961,1.961,0,0,0-.1.624v.078a.732.732,0,0,0,.006.1l0,.024.013.1.026.2a3.01,3.01,0,0,0,1.051,1.792,5.682,5.682,0,0,0,1.562.911,12.722,12.722,0,0,0,1.6.52c1.061.275,2.113.461,3.142.651a28.812,28.812,0,0,1,2.981.654,5.58,5.58,0,0,1,1.291.537,1.281,1.281,0,0,1,.667.842l.007.032,0,.015h0v.079l0,.187a1.875,1.875,0,0,1-.049.237,1.424,1.424,0,0,1-.267.5,3.477,3.477,0,0,1-1.016.8,16.526,16.526,0,0,1-2.531,1.064,23.945,23.945,0,0,0-4.8,2.008,5.94,5.94,0,0,0-.951.758,3.233,3.233,0,0,0-.67.963,1.931,1.931,0,0,0-.117,1.141,2.623,2.623,0,0,0,.423.963,6.041,6.041,0,0,0,1.286,1.323,12.788,12.788,0,0,0,1.282.873,19.54,19.54,0,0,0,1.918,1c.455.206.7.3.7.3s-.243-.107-.688-.332a19.294,19.294,0,0,1-1.868-1.077,12.722,12.722,0,0,1-1.23-.913,5.847,5.847,0,0,1-1.183-1.32,2.364,2.364,0,0,1-.346-.876,1.616,1.616,0,0,1,.13-.936,3.788,3.788,0,0,1,1.542-1.5,23.557,23.557,0,0,1,4.771-1.761,17.163,17.163,0,0,0,2.693-1.007,4.246,4.246,0,0,0,1.288-.948,2.306,2.306,0,0,0,.45-.776,2.414,2.414,0,0,0,.1-.488l.005-.187,0-.093a.55.55,0,0,0,0-.062l0-.031-.01-.061a1.553,1.553,0,0,0-.124-.48,1.633,1.633,0,0,0-.24-.427,2.517,2.517,0,0,0-.315-.347c-.113-.1-.232-.184-.35-.275a6.452,6.452,0,0,0-1.5-.7,29.884,29.884,0,0,0-3.067-.811c-1.022-.232-2.043-.458-3.024-.757a11.121,11.121,0,0,1-1.408-.523,4.346,4.346,0,0,1-1.161-.73,1.6,1.6,0,0,1-.522-.911l-.019-.2-.006-.072v0l0-.021a.438.438,0,0,1,.036-.157.917.917,0,0,1,.256-.328,3.876,3.876,0,0,1,1.141-.6,11.661,11.661,0,0,1,1.415-.4,50.3,50.3,0,0,1,5.978-.814c1.977-.181,3.9-.33,5.74-.518a47.506,47.506,0,0,0,5.228-.76,14.308,14.308,0,0,0,2.4-.716,6.788,6.788,0,0,0,1.154-.6,4.939,4.939,0,0,0,.559-.438c.1-.089.211-.216.309-.326l.163-.206c-.008.011.088-.127.056-.082l.017-.027.032-.054.062-.109a1.543,1.543,0,0,0,.113-.237,1.986,1.986,0,0,0,.143-.6,1.968,1.968,0,0,0-.055-.667,2.174,2.174,0,0,0-.241-.553,2.319,2.319,0,0,0-.3-.394,3.492,3.492,0,0,0-.294-.273,4.229,4.229,0,0,0-.539-.361,7.229,7.229,0,0,0-1.231-.53c.342,0,.678.01,1.005.021a20.131,20.131,0,0,1,5.355.68c.61.206,1.078.506,1.179.851a.56.56,0,0,1-.023.387.451.451,0,0,1-.069.119.5.5,0,0,0,.075-.116.577.577,0,0,0,.044-.4,1.016,1.016,0,0,0-.389-.519,3.392,3.392,0,0,0-.779-.421,20.345,20.345,0,0,0-5.372-.958c-.955-.077-1.98-.131-3.057-.167-.282-.055-.527-.1-.735-.131l-.6-.089-.217-.027-.02.2c-1-.018-2.027-.023-3.086-.018q-.48.005-.966.014l-.01-.2-.3.015-.915.031c-.8.015-1.991.031-3.482-.051-.745-.041-1.565-.108-2.436-.231a12.772,12.772,0,0,1-2.644-.626,3.378,3.378,0,0,1-1.028-.577c-.237-.212-.256-.332-.252-.494a.083.083,0,0,0-.01-.043c-.011,0,.008-.046.018-.08l.035-.108.062-.19a.318.318,0,0,0,.016-.032,1.343,1.343,0,0,1,.308-.357,5.454,5.454,0,0,1,1.376-.764,21.872,21.872,0,0,1,3.766-1.057c1.364-.278,2.8-.5,4.294-.7,2.982-.4,6.164-.687,9.469-1.005,1.654-.163,3.337-.325,5.054-.553.858-.117,1.723-.246,2.612-.441a8.91,8.91,0,0,0,1.38-.4,2.745,2.745,0,0,0,.812-.47,1.468,1.468,0,0,0,.117-.107c.042-.05.084-.1.124-.155a1.28,1.28,0,0,0,.225-.545.316.316,0,0,0,.009-.074l0-.04v-.041c0,.023-.012-.312-.014-.208-.021-.1-.046-.207-.077-.308a2.222,2.222,0,0,0-.257-.506c-.1-.126-.208-.249-.316-.361l-.326-.275-.326-.221a8.48,8.48,0,0,0-1.3-.646,22.2,22.2,0,0,0-2.6-.849c-1.736-.465-3.482-.819-5.227-1.154l-3.852-.7.357-.028c2.78-.208,5.571-.324,8.188-.357,1.308-.016,2.574-.012,3.772.022a30.719,30.719,0,0,1,3.357.236c.254.039.506.089.743.149a2.181,2.181,0,0,1,.642.255c.088.059.138.13.129.191a.4.4,0,0,1-.156.215,2.478,2.478,0,0,1-.549.315,11.937,11.937,0,0,1-2.1.637c-.6.132-1.071.208-1.4.256s-.5.064-.5.064.174-.01.5-.045.8-.094,1.408-.2a12.02,12.02,0,0,0,2.145-.562,2.618,2.618,0,0,0,.6-.318.576.576,0,0,0,.239-.331.35.35,0,0,0-.052-.238.612.612,0,0,0-.148-.156,2.367,2.367,0,0,0-.7-.317c-.248-.074-.5-.133-.761-.184a31,31,0,0,0-3.386-.371c-1.2-.081-2.474-.135-3.788-.17-2.628-.069-5.434-.061-8.239.038-1.309.048-2.617.118-3.908.212-.106-.022-.217-.044-.323-.067-.844-.191-1.677-.414-2.5-.66a22.033,22.033,0,0,1-4.661-1.9,6.792,6.792,0,0,1-.973-.679,2.574,2.574,0,0,1-.665-.81.933.933,0,0,1-.1-.412,1.024,1.024,0,0,1,.02-.2,1.406,1.406,0,0,1,.074-.2l.042-.089a1.483,1.483,0,0,1,.083-.124l.044-.064.023-.032,0,0h0c.022-.021.035-.042.062-.065a1.884,1.884,0,0,1,.419-.266,10.676,10.676,0,0,1,2.25-.687c.782-.166,1.571-.3,2.355-.406,1.568-.222,3.117-.371,4.626-.489,3.021-.232,5.89-.334,8.538-.362s5.077.024,7.222.175a26.545,26.545,0,0,1,2.981.35,12.178,12.178,0,0,1,2.436.728,1.749,1.749,0,0,1,.83.633.428.428,0,0,1-.024.434,1.176,1.176,0,0,1-.32.315,4.824,4.824,0,0,1-1.389.593,9.19,9.19,0,0,1-.922.209l-.32.053.322-.045c.211-.033.525-.085.928-.187a4.9,4.9,0,0,0,1.421-.567,1.234,1.234,0,0,0,.348-.329.515.515,0,0,0,.04-.517A1.83,1.83,0,0,0,4731.349-847.323Zm-31.551,23.5c.441.1.866.186,1.274.255.974.162,1.86.255,2.659.321,1.6.127,2.843.141,3.7.146l.977-.009.348-.009-.088-1.807c.318-.021.636-.042.95-.061,1.028-.057,2.032-.1,3-.133l-.192,2,.172.014.527.055a17.12,17.12,0,0,1,1.961.341,6.622,6.622,0,0,1,.994.318l-.017.014a4.226,4.226,0,0,1-.716.406,11.832,11.832,0,0,1-1.963.671,43.24,43.24,0,0,1-4.525.864l-.064-.711s-.155.02-.5.046-.836.055-1.475.089c-.643.016-1.421.048-2.321.036-.9.012-1.913-.042-3.02-.08-1.1-.082-2.278-.138-3.57-.3l-.976-.108-.247-.027-.125-.013-.1-.014c-.158-.021-.315-.046-.473-.07-.313-.053-.624-.117-.918-.2a3.707,3.707,0,0,1-.677-.245,3.174,3.174,0,0,1,.347-.23,10.322,10.322,0,0,1,1.887-.77A30.43,30.43,0,0,1,4699.8-823.828Z" transform="translate(-4666.299 919.88)"/><path class="b" d="M4734.475-856.4l-.033-.194v-.012c-.042-.23-.016-.077-.028-.135l-.015-.048-.033-.095a1.223,1.223,0,0,0-.076-.178,2.2,2.2,0,0,0-.387-.55,3.616,3.616,0,0,0-.842-.641,9.02,9.02,0,0,0-1.661-.7,25.9,25.9,0,0,0-3.335-.788c-2.229-.391-4.458-.621-6.548-.788s-4.041-.255-5.714-.3c-2.983-.088-5.073-.016-5.49,0-.375-.008-.858-.028-1.44-.049-.754-.05-1.672-.095-2.724-.2-1.054-.081-2.24-.252-3.532-.415-1.279-.213-2.656-.4-4.155-.733l-1.131-.229-.287-.058-.145-.029-.117-.027c-.183-.041-.364-.087-.547-.133-.361-.1-.719-.2-1.057-.328a4.269,4.269,0,0,1-.767-.359,3.854,3.854,0,0,1,.431-.233,12.268,12.268,0,0,1,2.294-.7,40.166,40.166,0,0,1,5.12-.713,92.349,92.349,0,0,1,10.313-.2c3.3.116,6.385.314,9.009.632a23.7,23.7,0,0,1,6.206,1.367c.693.307,1.209.707,1.291,1.123a.661.661,0,0,1-.069.451.547.547,0,0,1-.094.132.552.552,0,0,0,.1-.127.683.683,0,0,0,.094-.461,1.2,1.2,0,0,0-.4-.65,4,4,0,0,0-.868-.576,23.946,23.946,0,0,0-6.2-1.693c-2.624-.452-5.708-.8-9.021-1.086a93.656,93.656,0,0,0-10.445-.323,41.684,41.684,0,0,0-5.355.478,13.829,13.829,0,0,0-2.679.685,5.591,5.591,0,0,0-.7.335,2.633,2.633,0,0,0-.747.627,1.647,1.647,0,0,0-.31.658,1.484,1.484,0,0,0,.059.821,2.1,2.1,0,0,0,.681.907,5.61,5.61,0,0,0,1.306.746c.418.18.827.323,1.231.451.2.063.4.124.6.179l.169.047.142.036.284.072,1.119.286c1.454.4,2.911.679,4.236.967,1.327.236,2.541.471,3.63.612,1.083.168,2.04.263,2.826.353.792.07,1.411.127,1.846.147s.681.034.681.034v-2.772c.956.055,2.563.168,4.574.387,1.657.178,3.586.421,5.64.748s4.232.731,6.353,1.28a24.318,24.318,0,0,1,3.061.981,7.4,7.4,0,0,1,1.288.663,1.76,1.76,0,0,1,.4.355.635.635,0,0,1,.035.054l.012.145,0,.048s-.01-.011-.012-.017a.1.1,0,0,1-.014-.046.1.1,0,0,1,.007-.044c0-.005-.009,0-.011,0s0,.008-.015.02a.145.145,0,0,0-.037.04,1.609,1.609,0,0,1-.34.253,5.635,5.635,0,0,1-1.119.466,17.466,17.466,0,0,1-2.464.531c-1.585.237-2.947.324-3.892.378-.474.025-.846.038-1.1.046l-.375.008.148,2.816.422-.042c.269-.03.659-.075,1.155-.14.991-.136,2.4-.337,4.093-.728a19.584,19.584,0,0,0,2.745-.83,7.5,7.5,0,0,0,1.528-.8,3.392,3.392,0,0,0,.786-.757q.092-.138.175-.281a2.187,2.187,0,0,0,.138-.335c.02-.06.04-.112.056-.18s.024-.156.032-.237.011-.16.011-.24v-.114Z" transform="translate(-4666.257 922.338)"/><path class="b" d="M4732.461-875.831a1.194,1.194,0,0,0-.249-.364,4.857,4.857,0,0,0-1.324-.87c-.478-.23-.967-.433-1.481-.622a63.7,63.7,0,0,0-6.736-1.854c-2.411-.556-4.965-1.078-7.615-1.578-1.706-.321-3.457-.63-5.231-.928l.626-.089c.41-.062,1.005-.159,1.759-.307s1.665-.345,2.709-.629a22.467,22.467,0,0,0,3.5-1.234,9.929,9.929,0,0,0,1.989-1.193,5.339,5.339,0,0,0,.989-1.013,3.589,3.589,0,0,0,.667-1.587,3.411,3.411,0,0,0-.218-1.755,5.019,5.019,0,0,0-.775-1.3,8.129,8.129,0,0,0-.944-.978q-.244-.218-.513-.428c-.185-.153-.326-.247-.49-.371a18.078,18.078,0,0,0-4.67-2.3,37.906,37.906,0,0,0-4.99-1.317,80.358,80.358,0,0,0-9.92-1.255c-3.171-.225-6.131-.3-8.666-.322-5.07-.034-8.439.166-8.439.166s3.377.021,8.418.384c2.519.183,5.454.453,8.573.881a78.96,78.96,0,0,1,9.633,1.861,36.239,36.239,0,0,1,4.647,1.555,16.041,16.041,0,0,1,3.921,2.238c.143.124.32.263.427.37.123.11.244.225.363.348a5.373,5.373,0,0,1,.612.72,2.422,2.422,0,0,1,.337.652.684.684,0,0,1,.022.409.944.944,0,0,1-.2.346,2.686,2.686,0,0,1-.5.428,7.218,7.218,0,0,1-1.446.729,19.578,19.578,0,0,1-3.069.854c-.956.193-1.807.32-2.51.411s-1.257.145-1.632.177l-.556.041.326,3.5c-3.729-.625-7.579-1.195-11.445-1.677-2.952-.364-5.91-.682-8.833-.919l-.06-3.073-.778.025c-.516.012-1.279.026-2.25.022-1.942-.009-4.73-.064-8.037-.384a53.1,53.1,0,0,1-5.275-.768,24.074,24.074,0,0,1-5.518-1.726,8.59,8.59,0,0,1-2.343-1.577,3.743,3.743,0,0,1-1.156-2.227,4.52,4.52,0,0,1,.06-1.375,3.99,3.99,0,0,1,.473-1.282,4.961,4.961,0,0,1,.874-1.137c.165-.181.367-.337.554-.506.208-.151.4-.316.622-.454a13.709,13.709,0,0,1,2.85-1.427,26.082,26.082,0,0,1,3.124-.946,49.066,49.066,0,0,1,6.364-1.038c2.092-.218,4.131-.328,6.065-.392s3.77-.065,5.462-.04c3.387.049,6.209.21,8.182.347s3.1.257,3.1.257-1.118-.173-3.084-.408-4.782-.532-8.174-.747c-1.7-.107-3.539-.191-5.49-.227s-4.012-.02-6.147.1a50.517,50.517,0,0,0-6.578.748,27.768,27.768,0,0,0-3.352.84,15.323,15.323,0,0,0-3.268,1.448c-.266.15-.516.337-.773.509-.244.2-.5.378-.729.6a6.865,6.865,0,0,0-1.253,1.48,6.409,6.409,0,0,0-.968,3.781,5.9,5.9,0,0,0,1.6,3.641,10.861,10.861,0,0,0,2.875,2.172,26.465,26.465,0,0,0,6.019,2.224,55.456,55.456,0,0,0,5.517,1.081l.346.049a40.384,40.384,0,0,0-4.9.391,18.3,18.3,0,0,0-1.929.391c-.32.077-.643.184-.964.291l-.484.184c-.178.077-.361.165-.539.251-.1.047-.14.076-.209.114l-.188.106-.047.027-.085.053-.036.022-.138.1a3.341,3.341,0,0,0-.3.24,2.378,2.378,0,0,0-.62.879,1.982,1.982,0,0,0-.14.766,2.05,2.05,0,0,0,.154.744,2.517,2.517,0,0,0,.59.843,3.918,3.918,0,0,0,.533.422,6.747,6.747,0,0,0,.923.507,20.7,20.7,0,0,0,3.173,1.076c.986.263,1.917.474,2.792.659,1.749.368,3.271.631,4.527.839s2.243.349,2.919.445l1.044.141.385-3.5-1-.1c-.66-.07-1.628-.176-2.857-.332s-2.719-.36-4.4-.653c-.841-.147-1.732-.316-2.649-.525a20.727,20.727,0,0,1-2.288-.645c.215-.081.435-.163.674-.23a15.312,15.312,0,0,1,1.63-.4,47.279,47.279,0,0,1,7.5-.665,161.709,161.709,0,0,1,16.721.672c5.7.488,11.388,1.162,16.7,1.947,2.655.394,5.216.816,7.632,1.274a63.45,63.45,0,0,1,6.724,1.571c.5.162.995.344,1.454.544a4.485,4.485,0,0,1,1.219.726c.16.149.237.309.2.428a.816.816,0,0,1-.386.384,5.127,5.127,0,0,1-1.215.459,24.693,24.693,0,0,1-4.454.607c-1.251.071-2.238.072-2.91.063s-1.031-.03-1.031-.03.358.034,1.03.07,1.659.074,2.917.051a24.833,24.833,0,0,0,4.526-.439,5.413,5.413,0,0,0,1.326-.447,1.168,1.168,0,0,0,.589-.593A.7.7,0,0,0,4732.461-875.831Z" transform="translate(-4662.01 927.553)"/><path class="b" d="M4666.245-920.14a11.461,11.461,0,0,0,2.8,2.114,33.015,33.015,0,0,0,5.464,2.335c1.718.578,3.306,1.023,4.716,1.39s2.649.647,3.67.867,1.829.378,2.382.482l.863.155.5-3.489-.8-.106c-.532-.074-1.316-.189-2.311-.354s-2.2-.383-3.575-.67-2.913-.643-4.557-1.113a30.294,30.294,0,0,1-5.073-1.882,9.062,9.062,0,0,1-2.221-1.489,2.576,2.576,0,0,1-.606-.863,1.215,1.215,0,0,1-.035-.837,4.756,4.756,0,0,1,1.613-2.037l.141-.119.169-.128.341-.257.642-.412a12.4,12.4,0,0,1,1.4-.778,24.723,24.723,0,0,1,6.43-1.949,51.607,51.607,0,0,1,6.855-.713c2.285-.095,4.545-.078,6.732,0,4.376.156,8.458.581,11.943,1.023s6.379.936,8.4,1.3,3.167.618,3.167.618-1.134-.3-3.137-.767-4.873-1.083-8.345-1.7-7.55-1.226-11.96-1.592a67.052,67.052,0,0,0-13.924.084,26.624,26.624,0,0,0-7.024,1.785,14.6,14.6,0,0,0-1.653.819l-.4.233-.2.116-.1.058-.05.029-.025.015-.044.029-.353.241-.175.12-.192.144a9.52,9.52,0,0,0-1.435,1.284,5.27,5.27,0,0,0-1.11,1.809,3.831,3.831,0,0,0-.212,1.179,3.791,3.791,0,0,0,.186,1.193A5.02,5.02,0,0,0,4666.245-920.14Z" transform="translate(-4662.422 931.428)"/></g><path class="c" d="M4672.4-925.494a51.249,51.249,0,0,0-5.875,17.625c-1.174,9.634,4.7,20.444,16.684,28.433s20.443,19.5,15.274,32.428-12.648,27.494,1.548,46.528c0,0-6.717-12.69-1.078-21.854s28.2-22.325,25.613-42.67c-2.094-16.482-13.9-21.574-9.4-35.346,3.994-12.219,18.8-15.509,18.8-15.509S4695.2-933.718,4672.4-925.494Z" transform="translate(-4662.622 930.901)"/><path class="d" d="M4674.614-923.95s16.382-5.4,51.193,7.99c0,0-15.882-5.429-25.3-4.534,0,0,14.905,3.992,18.545,8.593,0,0-15.535-3.589-26.108-1.473,0,0,15.692,1.788,22.885,6.651,0,0-30.641-7.448-44.5,0,0,0,.705-2.422,5.169-4.066a12.622,12.622,0,0,0-7.743.94,10.687,10.687,0,0,1,6.8-5.4s-1.672-.87-5.4-.621C4670.148-915.877,4672.219-921.566,4674.614-923.95Z" transform="translate(-4662.953 930.532)"/><path class="d" d="M4720.244-856.958s4.607-.607,6.252,0c0,0-2.077-8.171-5.69-13.215-4.207-.006-13.927.116-20.507,1.274,10.3,7.66,6.663,15.611,6.663,15.611s7.6-2.794,20.5.714C4727.459-852.574,4726.916-855.215,4720.244-856.958Z" transform="translate(-4667.369 922.854)"/><path class="d" d="M4716.388-874.763c-.56-.7-1.143-1.461-1.73-2.271a79.309,79.309,0,0,0-14.224-1.573s6.993-1.983,12-1.722a40.648,40.648,0,0,1-2.646-4.894,29.8,29.8,0,0,0-5.489-2.243,31.34,31.34,0,0,1,4.531-.26,15.112,15.112,0,0,1-.437-1.721c-8.363-4.449-18.529-5.731-18.529-5.731a37.752,37.752,0,0,1,15.149,1.082,55.516,55.516,0,0,0-32.25-2.111,12.612,12.612,0,0,0,1.25,5.805c8.767-2.673,24.755.175,24.755.175-13.654-.328-20.26.9-23.41,2.328,2.412,3.788,7.032,8.245,15.859,11.959a21.478,21.478,0,0,1,3.086,1.741c4.468-.568,11.5-.751,22.541.036C4716.7-874.368,4716.543-874.57,4716.388-874.763Z" transform="translate(-4663.513 926.698)"/><g transform="translate(30.777 71.931)"><path class="e" d="M4699.74-794.867c-.112-.69-.183-1.365-.229-2.031q-.376.079-.755.162A5.517,5.517,0,0,0,4699.74-794.867Z" transform="translate(-4697.93 840.667)"/><path class="d" d="M4700.748-808.493a27.143,27.143,0,0,1,4.377-7.348c-2.08.384-4.147.816-6.1,1.326a48.6,48.6,0,0,0-1.085,6.646c.687-.167,1.384-.324,2.09-.476C4700.265-808.4,4700.51-808.443,4700.748-808.493Z" transform="translate(-4697.816 843.319)"/><path class="e" d="M4712.391-836.445c-2.043-.109-3.957-.15-5.606-.156a96.384,96.384,0,0,0-4.267,9.642c2.807-.429,5.479-.735,7.961-.961,1.956-.174,3.795-.3,5.494-.36a38.072,38.072,0,0,0,5.9-6.931,24.729,24.729,0,0,0-3.027-.625C4716.677-836.161,4714.466-836.333,4712.391-836.445Z" transform="translate(-4698.457 846.225)"/><path class="e" d="M4707.738-838.631c1.6-.119,3.431-.222,5.4-.273,2.1-.052,4.336-.056,6.595.1a25.935,25.935,0,0,1,3.4.436c.149.032.3.066.447.1a55.6,55.6,0,0,0,3.787-7.036c-3.524-3.479-18.691-2.3-18.691-2.3C4710.093-844.276,4709.385-842.087,4707.738-838.631Z" transform="translate(-4699.188 847.791)"/><path class="d" d="M4701.848-824.856c-.554,1.547-1.11,3.255-1.655,5.161-.245.857-.46,1.674-.657,2.466,1.933-.406,3.936-.737,5.947-1.023.239-.034.479-.063.717-.1a61.957,61.957,0,0,1,8.224-7.564c.256-.2.509-.416.76-.631-1.582.1-3.279.265-5.077.47C4707.535-825.775,4704.756-825.384,4701.848-824.856Z" transform="translate(-4698.04 844.817)"/><path class="d" d="M4699.963-804.518q-1.107.273-2.165.569a19.668,19.668,0,0,0,.533,5.184q.5-.085,1-.163A20.459,20.459,0,0,1,4699.963-804.518Z" transform="translate(-4697.796 841.734)"/></g><g transform="translate(0 7.863)"><path class="f" d="M4738.514-907.7a1.17,1.17,0,0,0-.313-.5l-.046-.047-.052-.045-.083-.071-.166-.144c-.1-.1-.231-.188-.356-.282a20.161,20.161,0,0,0-3.209-1.888,67.754,67.754,0,0,0-7.354-2.982c-2.6-.906-5.309-1.742-8.084-2.522s-5.615-1.5-8.469-2.16c-5.711-1.316-11.487-2.369-16.958-3.067a89.819,89.819,0,0,0-15.147-.811,33.929,33.929,0,0,0-6.2.809,17.591,17.591,0,0,0-2.613.827,11.392,11.392,0,0,0-2.186,1.193c-.163.1-.311.244-.459.361a4.647,4.647,0,0,0-.421.371,6.507,6.507,0,0,0-.7.793l-.287.394c-1.292,2.1,2.438,3.249,2.438,3.249l.265-.913a3.291,3.291,0,0,1,1.178-1.546,8.054,8.054,0,0,1,1.487-.881,14.343,14.343,0,0,1,2.1-.751,30.932,30.932,0,0,1,5.595-.939,87.251,87.251,0,0,1,14.688.239c5.4.483,11.15,1.307,16.853,2.4,2.851.544,5.692,1.151,8.471,1.822s5.5,1.4,8.1,2.195a66.431,66.431,0,0,1,7.355,2.662,19.508,19.508,0,0,1,3.144,1.688,3.8,3.8,0,0,1,.344.25l.17.137.085.068.031.025.031.029a.574.574,0,0,1,.16.212.132.132,0,0,1-.025.14,1.386,1.386,0,0,1-.553.379,5.53,5.53,0,0,1-.742.261,17.7,17.7,0,0,1-3.047.5c-.985.089-1.927.126-2.812.135a43.117,43.117,0,0,1-4.583-.2c-1.268-.123-2.257-.28-2.93-.4s-1.028-.2-1.028-.2.353.095,1.02.243,1.654.342,2.921.513a43.309,43.309,0,0,0,4.6.373c.892.023,1.843.022,2.845-.03a18.076,18.076,0,0,0,3.156-.4,6.2,6.2,0,0,0,.83-.256,1.911,1.911,0,0,0,.828-.562.827.827,0,0,0,.143-.307A.749.749,0,0,0,4738.514-907.7Z" transform="translate(-4662.448 922.285)"/><path class="b" d="M4664.64-897.014a4.961,4.961,0,0,1,.874-1.137c.165-.181.367-.337.554-.506.208-.151.4-.316.622-.454a13.709,13.709,0,0,1,2.85-1.427,26.082,26.082,0,0,1,3.124-.946,49.066,49.066,0,0,1,6.364-1.038c2.092-.218,4.131-.328,6.065-.392s3.77-.065,5.462-.04c3.387.049,6.209.21,8.182.347s3.1.257,3.1.257-1.118-.173-3.084-.408-4.782-.532-8.174-.747c-1.7-.107-3.539-.191-5.49-.227s-4.012-.02-6.147.1a50.517,50.517,0,0,0-6.578.748,27.768,27.768,0,0,0-3.352.84,15.323,15.323,0,0,0-3.268,1.448c-.266.15-.516.337-.773.509-.244.2-.5.378-.729.6a6.865,6.865,0,0,0-1.253,1.48,6.409,6.409,0,0,0-.968,3.781,5.9,5.9,0,0,0,1.6,3.641,10.861,10.861,0,0,0,2.875,2.172c.06.033.12.06.18.091v-2.737a7.551,7.551,0,0,1-1.417-1.073,3.743,3.743,0,0,1-1.156-2.227,4.52,4.52,0,0,1,.06-1.375A3.99,3.99,0,0,1,4664.64-897.014Z" transform="translate(-4662.01 919.69)"/><path class="b" d="M4722.513-887.282a2.718,2.718,0,0,1-.5.428,5.872,5.872,0,0,1-.9.5v3.237c.207-.085.417-.175.63-.273a9.943,9.943,0,0,0,1.989-1.193,5.369,5.369,0,0,0,.989-1.013,3.588,3.588,0,0,0,.667-1.587,3.411,3.411,0,0,0-.217-1.755,5.019,5.019,0,0,0-.775-1.3,8.169,8.169,0,0,0-.945-.978q-.244-.218-.513-.428c-.185-.153-.326-.247-.49-.371a18.081,18.081,0,0,0-4.67-2.3,37.886,37.886,0,0,0-4.99-1.317,80.35,80.35,0,0,0-9.919-1.255c-3.171-.225-6.131-.3-8.666-.322-5.07-.034-8.439.166-8.439.166s3.377.021,8.417.384c2.52.183,5.454.453,8.573.881a78.953,78.953,0,0,1,9.632,1.861,36.239,36.239,0,0,1,4.647,1.555,16.023,16.023,0,0,1,3.921,2.238c.143.124.32.263.428.37.123.11.244.225.363.348a5.41,5.41,0,0,1,.612.72,2.419,2.419,0,0,1,.337.652.685.685,0,0,1,.022.409A.951.951,0,0,1,4722.513-887.282Z" transform="translate(-4665.334 918.776)"/><path class="b" d="M4733.155-873.157a4.844,4.844,0,0,0-1.324-.87c-.478-.23-.967-.433-1.481-.622a63.739,63.739,0,0,0-6.737-1.854c-2.41-.556-4.965-1.078-7.615-1.578-5.3-1-10.983-1.9-16.7-2.609a163.609,163.609,0,0,0-16.916-1.34,49.761,49.761,0,0,0-7.958.4,18.33,18.33,0,0,0-1.928.391c-.32.077-.644.184-.964.291l-.484.184c-.178.077-.361.165-.54.251-.1.047-.139.076-.209.114l-.188.106-.046.027-.086.053-.035.022-.139.1a3.34,3.34,0,0,0-.3.24,2.378,2.378,0,0,0-.62.879,1.992,1.992,0,0,0-.139.766,2.05,2.05,0,0,0,.154.744,2.51,2.51,0,0,0,.59.843,3.917,3.917,0,0,0,.533.422,6.756,6.756,0,0,0,.923.506,20.7,20.7,0,0,0,3.172,1.076c.986.263,1.918.474,2.792.659l.223.046v-3.281c-.727-.131-1.482-.276-2.262-.454a20.706,20.706,0,0,1-2.288-.645c.215-.081.435-.163.674-.23a15.313,15.313,0,0,1,1.63-.4,47.274,47.274,0,0,1,7.5-.665,161.732,161.732,0,0,1,16.721.672c5.7.488,11.387,1.162,16.7,1.947,2.655.394,5.216.816,7.632,1.274a63.394,63.394,0,0,1,6.724,1.571c.5.162,1,.344,1.455.544a4.485,4.485,0,0,1,1.218.726c.16.149.237.309.2.428a.821.821,0,0,1-.386.384,5.135,5.135,0,0,1-1.215.459,24.7,24.7,0,0,1-4.455.607c-1.251.071-2.238.072-2.909.063s-1.031-.03-1.031-.03.357.034,1.03.071,1.659.074,2.917.051a24.843,24.843,0,0,0,4.527-.439,5.422,5.422,0,0,0,1.326-.447,1.167,1.167,0,0,0,.589-.593.7.7,0,0,0-.027-.5A1.186,1.186,0,0,0,4733.155-873.157Z" transform="translate(-4662.953 916.652)"/><path class="b" d="M4731.137-838.92a2.37,2.37,0,0,0-.705-.317c-.248-.074-.5-.133-.761-.184a31,31,0,0,0-3.386-.371c-1.2-.081-2.474-.135-3.788-.17-2.628-.069-5.434-.061-8.239.038a79.9,79.9,0,0,0-8.246.666,24.386,24.386,0,0,0-3.8.81,9.054,9.054,0,0,0-.9.337c-.147.063-.3.139-.441.215l-.219.126c-.08.051-.161.107-.24.163-.046.031-.061.047-.092.071l-.083.066-.021.015-.037.033-.015.014-.059.058a1.547,1.547,0,0,0-.123.138,1.36,1.36,0,0,0-.085.124h2.518c.077-.031.152-.061.231-.09a22.967,22.967,0,0,1,3.557-.9,78.409,78.409,0,0,1,8.1-.971c2.78-.208,5.571-.324,8.188-.357,1.308-.016,2.574-.012,3.772.022a30.719,30.719,0,0,1,3.357.236c.254.039.505.089.743.149a2.178,2.178,0,0,1,.642.255c.089.059.139.13.129.191a.4.4,0,0,1-.156.215,2.47,2.47,0,0,1-.55.315,11.921,11.921,0,0,1-2.1.637c-.6.132-1.071.208-1.4.256s-.5.064-.5.064.175-.01.5-.045.8-.094,1.408-.2a12.02,12.02,0,0,0,2.145-.562,2.628,2.628,0,0,0,.6-.318.576.576,0,0,0,.239-.331.35.35,0,0,0-.052-.238A.621.621,0,0,0,4731.137-838.92Z" transform="translate(-4667.313 910.769)"/><path class="b" d="M4693.123-861.939a5.61,5.61,0,0,0,1.306.746c.4.17.786.307,1.171.431v-2.132c-.144-.046-.287-.091-.425-.143a4.269,4.269,0,0,1-.767-.359,3.854,3.854,0,0,1,.431-.233,12.268,12.268,0,0,1,2.294-.7,40.166,40.166,0,0,1,5.12-.713,92.349,92.349,0,0,1,10.313-.2c3.3.116,6.385.314,9.009.632a23.7,23.7,0,0,1,6.206,1.367c.693.307,1.209.707,1.291,1.123a.661.661,0,0,1-.069.451.547.547,0,0,1-.094.132.552.552,0,0,0,.1-.127.683.683,0,0,0,.094-.461,1.2,1.2,0,0,0-.4-.65,4,4,0,0,0-.868-.576,23.946,23.946,0,0,0-6.2-1.693c-2.624-.452-5.708-.8-9.021-1.086a93.656,93.656,0,0,0-10.445-.323,41.684,41.684,0,0,0-5.355.478,13.829,13.829,0,0,0-2.679.685,5.591,5.591,0,0,0-.7.335,2.633,2.633,0,0,0-.747.627,1.647,1.647,0,0,0-.31.658,1.484,1.484,0,0,0,.059.821A2.1,2.1,0,0,0,4693.123-861.939Z" transform="translate(-4666.257 914.475)"/><path class="b" d="M4737.384-855.487l-.033-.194v-.012c-.042-.23-.017-.077-.028-.135l-.015-.048-.033-.095a1.223,1.223,0,0,0-.076-.178,2.213,2.213,0,0,0-.387-.55,3.616,3.616,0,0,0-.842-.641,9.024,9.024,0,0,0-1.662-.7,25.892,25.892,0,0,0-3.335-.788c-2.229-.391-4.458-.621-6.548-.788s-4.042-.255-5.714-.3c-3.347-.1-5.572.005-5.572.005s2.227.073,5.542.434c1.657.178,3.586.421,5.639.748s4.232.731,6.353,1.28a24.318,24.318,0,0,1,3.061.981,7.416,7.416,0,0,1,1.287.663,1.739,1.739,0,0,1,.4.355.548.548,0,0,1,.036.054l.012.145,0,.048s-.009-.011-.012-.017a.1.1,0,0,1-.014-.046.1.1,0,0,1,.007-.044c0-.005-.009,0-.011,0s0,.008-.015.02a.145.145,0,0,0-.037.04,1.623,1.623,0,0,1-.34.253,5.635,5.635,0,0,1-1.119.466c-.408.125-.823.227-1.234.313v2.359a17.515,17.515,0,0,0,1.969-.635,7.51,7.51,0,0,0,1.528-.8,3.392,3.392,0,0,0,.786-.757q.092-.138.175-.281a2.187,2.187,0,0,0,.138-.335c.02-.06.04-.112.056-.18s.024-.156.032-.237.011-.16.011-.24v-.114Z" transform="translate(-4669.166 913.562)"/><path class="b" d="M4732.412-847.323a12.375,12.375,0,0,0-2.447-.8,26.681,26.681,0,0,0-3-.429c-2.151-.2-4.585-.313-7.242-.355s-5.536-.009-8.581.15c-1.523.081-3.086.192-4.684.377-.8.093-1.605.2-2.42.356a11.321,11.321,0,0,0-2.47.7,2.713,2.713,0,0,0-.636.39c-.053.044-.106.1-.158.157-.011.01-.056.069-.047.058l-.023.032-.046.063c-.032.046-.061.076-.1.133l-.1.188a1.85,1.85,0,0,0-.053,1.616,3.489,3.489,0,0,0,.887,1.168,7.707,7.707,0,0,0,1.095.809c.427.263.865.5,1.31.718v-1.17c-.264-.132-.526-.27-.779-.417a6.792,6.792,0,0,1-.973-.679,2.574,2.574,0,0,1-.665-.81.933.933,0,0,1-.1-.412,1.024,1.024,0,0,1,.02-.2,1.406,1.406,0,0,1,.074-.2l.042-.089a1.483,1.483,0,0,1,.083-.124l.044-.064.023-.032,0,0h0c.022-.021.035-.042.062-.065a1.884,1.884,0,0,1,.419-.266,10.676,10.676,0,0,1,2.25-.687c.782-.166,1.571-.3,2.355-.406,1.568-.222,3.117-.371,4.626-.489,3.021-.232,5.89-.334,8.538-.362s5.077.024,7.222.175a26.545,26.545,0,0,1,2.981.35,12.178,12.178,0,0,1,2.436.728,1.749,1.749,0,0,1,.83.633.428.428,0,0,1-.024.434,1.176,1.176,0,0,1-.32.315,4.824,4.824,0,0,1-1.389.593,9.19,9.19,0,0,1-.922.209l-.32.053.322-.045c.211-.033.525-.085.928-.187a4.9,4.9,0,0,0,1.421-.567,1.234,1.234,0,0,0,.348-.329.515.515,0,0,0,.04-.517A1.83,1.83,0,0,0,4732.412-847.323Z" transform="translate(-4667.361 912.017)"/><path class="b" d="M4727.606-833.087c-.021-.1-.046-.207-.076-.308-.008-.028-.019-.052-.029-.077h-2.245c.052.031.109.061.159.092l.213.151c.056.052.111.1.169.151l.007.008c-.031.014-.063.026-.1.038a7.377,7.377,0,0,1-1.114.291c-.8.156-1.639.261-2.473.353-1.671.181-3.347.3-5,.421-3.3.236-6.512.445-9.565.776-1.526.164-3.015.357-4.461.614a24.114,24.114,0,0,0-4.215,1.08,7.725,7.725,0,0,0-2.031,1.092,3.771,3.771,0,0,0-.921,1.051l-.091.174-.043.088-.059.153-.076.217-.038.108a.763.763,0,0,0-.042.14c-.03.134-.055.271-.077.407a2.883,2.883,0,0,0-.023.583h2.507a.5.5,0,0,1-.035-.227.084.084,0,0,0-.011-.043c-.011,0,.008-.046.018-.08l.035-.108.063-.19a.235.235,0,0,0,.015-.032,1.347,1.347,0,0,1,.308-.357,5.459,5.459,0,0,1,1.376-.764,21.891,21.891,0,0,1,3.766-1.057c1.364-.278,2.8-.5,4.294-.7,2.982-.4,6.164-.687,9.469-1.005,1.653-.163,3.336-.325,5.053-.553.858-.117,1.724-.246,2.612-.441a8.889,8.889,0,0,0,1.38-.4,2.746,2.746,0,0,0,.812-.47,1.465,1.465,0,0,0,.116-.107c.043-.05.084-.1.124-.155a1.281,1.281,0,0,0,.224-.545.285.285,0,0,0,.009-.074l0-.04,0-.041C4727.625-832.855,4727.608-833.191,4727.606-833.087Z" transform="translate(-4666.694 909.854)"/><path class="b" d="M4706.189-803a1.553,1.553,0,0,0-.124-.48,1.635,1.635,0,0,0-.241-.427,2.487,2.487,0,0,0-.315-.347c-.112-.1-.232-.184-.35-.275a5.118,5.118,0,0,0-.746-.409v1.086c.076.039.153.079.224.123a1.279,1.279,0,0,1,.666.842l.008.032,0,.015h0v.079l0,.187a1.869,1.869,0,0,1-.049.237,1.432,1.432,0,0,1-.267.5,3.485,3.485,0,0,1-1.017.8,16.485,16.485,0,0,1-2.531,1.064,23.929,23.929,0,0,0-4.8,2.008,5.919,5.919,0,0,0-.951.758,3.235,3.235,0,0,0-.671.963,1.935,1.935,0,0,0-.117,1.141,2.632,2.632,0,0,0,.423.963,6.043,6.043,0,0,0,1.286,1.323,12.841,12.841,0,0,0,1.282.873l.069.04v-.139l0,0a12.662,12.662,0,0,1-1.23-.913,5.861,5.861,0,0,1-1.184-1.32,2.381,2.381,0,0,1-.346-.876,1.62,1.62,0,0,1,.131-.936,3.788,3.788,0,0,1,1.542-1.5,23.535,23.535,0,0,1,4.771-1.761,17.14,17.14,0,0,0,2.692-1.007,4.246,4.246,0,0,0,1.288-.948,2.307,2.307,0,0,0,.451-.776,2.414,2.414,0,0,0,.1-.488l0-.187,0-.093c0,.023,0-.058,0-.062Z" transform="translate(-4666.611 905.86)"/><path class="b" d="M4715.347-817.638a11.832,11.832,0,0,1-1.963.671,45.692,45.692,0,0,1-4.935.924c-1.793.258-3.706.485-5.694.752a51.672,51.672,0,0,0-6.166,1.107,13.253,13.253,0,0,0-1.6.528,5.3,5.3,0,0,0-1.6.963,2.413,2.413,0,0,0-.638.967,1.961,1.961,0,0,0-.1.624v.078a.732.732,0,0,0,.006.1l0,.024.039.3c.012.069.035.132.051.2h1.538a1.334,1.334,0,0,1-.122-.369l-.019-.2-.006-.072v0l0-.021a.438.438,0,0,1,.036-.157.917.917,0,0,1,.256-.328,3.876,3.876,0,0,1,1.141-.6,11.661,11.661,0,0,1,1.415-.4,50.3,50.3,0,0,1,5.978-.814c1.977-.181,3.9-.33,5.74-.518a47.506,47.506,0,0,0,5.228-.76,14.308,14.308,0,0,0,2.4-.716,6.788,6.788,0,0,0,1.154-.6,4.939,4.939,0,0,0,.559-.438c.1-.089.211-.216.309-.326l.163-.206c-.008.011.088-.127.056-.082l.017-.027.032-.054.062-.109a1.543,1.543,0,0,0,.113-.237,2.2,2.2,0,0,0,.118-.45h-3.076A5.286,5.286,0,0,1,4715.347-817.638Z" transform="translate(-4666.299 907.674)"/><path class="b" d="M4723.456-820.372a3.392,3.392,0,0,0-.779-.421,20.345,20.345,0,0,0-5.372-.958c-2.255-.181-4.891-.242-7.716-.227a79.533,79.533,0,0,0-8.861.53,35.347,35.347,0,0,0-4.495.814,11.789,11.789,0,0,0-2.214.785,4.721,4.721,0,0,0-.564.336,2.265,2.265,0,0,0-.583.587,1.4,1.4,0,0,0-.212.58,1.262,1.262,0,0,0,.113.692,1.783,1.783,0,0,0,.646.715,4.754,4.754,0,0,0,1.162.531c.349.114.688.2,1.022.274l-.163-1.8c-.125-.028-.25-.055-.37-.088a3.707,3.707,0,0,1-.677-.245,3.174,3.174,0,0,1,.347-.23,10.322,10.322,0,0,1,1.887-.77,34.173,34.173,0,0,1,4.277-1,78.512,78.512,0,0,1,8.709-.956c2.8-.155,5.428-.224,7.671-.157a20.131,20.131,0,0,1,5.355.68c.61.206,1.078.506,1.179.851a.56.56,0,0,1-.023.387.451.451,0,0,1-.069.119.5.5,0,0,0,.075-.116.577.577,0,0,0,.044-.4A1.016,1.016,0,0,0,4723.456-820.372Z" transform="translate(-4666.299 908.246)"/><path class="b" d="M4724.043-827.638l-.014-.026-.027-.053a.723.723,0,0,0-.062-.1,1.33,1.33,0,0,0-.278-.288,2.156,2.156,0,0,0-.554-.3,5.472,5.472,0,0,0-1.042-.261,15.256,15.256,0,0,0-2.036-.157c-1.347-.026-2.68.043-3.926.137s-2.4.221-3.391.347c-1.977.249-3.278.514-3.278.514s1.317-.161,3.3-.253c.991-.046,2.149-.081,3.387-.077s2.558.042,3.856.17a14.534,14.534,0,0,1,1.892.3,4.393,4.393,0,0,1,.819.273,1.039,1.039,0,0,1,.269.172.181.181,0,0,1,.025.028l.021.084.007.028-.01-.009a.071.071,0,0,1-.012-.026.05.05,0,0,1,0-.027s-.005,0-.006,0,0,0-.007.013a.11.11,0,0,0-.018.028.973.973,0,0,1-.177.18,2.571,2.571,0,0,1-.267.186h1.569a1.36,1.36,0,0,0,.047-.2.844.844,0,0,0,.016-.111c0-.047,0-.095,0-.143s-.008-.095-.016-.142l-.012-.067-.008-.028-.037-.111,0-.007C4724.025-827.694,4724.056-827.6,4724.043-827.638Z" transform="translate(-4668.648 909.204)"/></g></g><text class="g" transform="translate(151.336 635)"><tspan x="0" y="0">ქარბორბალა</tspan></text><text class="h" transform="translate(150.327 671.877)"><tspan x="0" y="11">გადადი დასაწყისში</tspan></text></g></svg>