<svg xmlns="http://www.w3.org/2000/svg" xmlns:xlink="http://www.w3.org/1999/xlink" width="63.568" height="63.568" viewBox="0 0 63.568 63.568"><defs><style>.a{fill:none;}.b{clip-path:url(#a);}.c{fill:#c0e8ec;}.d{fill:#a4dbe0;}</style><clipPath id="a"><ellipse class="a" cx="31.784" cy="31.784" rx="31.784" ry="31.784"/></clipPath></defs><g transform="translate(0 0)"><g class="b"><path class="c" d="M723.4,554.259s25.3-21.494,47.454-4.324,14.086,52.274,9.984,57.234-9.437,8.522-32.823,8.14-40.616-11.32-39.249-34.214C708.764,581.095,709.586,567.487,723.4,554.259Z" transform="translate(-717.899 -551.187)"/><path class="d" d="M709.3,586.288c3.47-13.887,10.855-28.658,26.859-32.352.987-.223,2-.4,3.023-.535,4.979-.08,9.9-.7,14.211,1.151,6.771,2.462,3.693,9.848,4.924,14.773,1.231,5.539,11.079,6.771,14.806,12.789a19.72,19.72,0,0,1,2.128,3.474,21.62,21.62,0,0,1,1.5,4.248,16.379,16.379,0,0,1,1.077,2.462c1.078,3.219.6,6.16-2.889,8.417-5.54,3.693-12.31,4.924-16.374,10.479a23.34,23.34,0,0,1-2.587,2.555c-4.633,3.9-10.922,5.9-19.411,4.8a38.14,38.14,0,0,1-5.684-.586,30.782,30.782,0,0,1-10.25-3.718,22.809,22.809,0,0,1-9.723-11.273,27.6,27.6,0,0,1-1.658-6.09,33.694,33.694,0,0,1-.39-5.339A30.107,30.107,0,0,1,709.3,586.288Z" transform="translate(-717.865 -549.256)"/></g></g></svg>