<svg xmlns="http://www.w3.org/2000/svg" xmlns:xlink="http://www.w3.org/1999/xlink" width="1366" height="771" viewBox="0 0 1366 771"><defs><style>.a,.ag,.l,.n{fill:none;}.b{clip-path:url(#a);}.c,.p{fill:#000;}.d{fill:#ebcc65;}.e{fill:#f2d785;}.an,.f{fill:#243e41;}.af,.g{fill:#7fd1d8;}.h{fill:#106c26;}.aa,.ab,.ad,.ae,.af,.ag,.ah,.an,.h,.i,.j,.k,.l,.m,.u,.v,.w{fill-rule:evenodd;}.i{fill:#f5f880;}.j{fill:#f6fc85;}.k{fill:#171f1c;}.l{stroke:#a1dd70;stroke-width:1.346px;}.ag,.l,.n{stroke-miterlimit:10;}.m{fill:#3db6ac;}.n{stroke:#b4ede9;stroke-width:0.269px;}.o{clip-path:url(#b);}.p{opacity:0.31;}.q{fill:#724f2f;}.r{fill:#5c3c20;}.s{fill:#6e9a65;}.t{fill:#497043;}.u{fill:#fcb95d;}.v{fill:#a1dd6f;}.w,.z{opacity:0.15;}.x{opacity:0.5;}.y{fill:#243330;}.aa,.ac{fill:#d1d3d4;}.ab{fill:#36a5ad;}.ad{fill:#c98121;}.ae{fill:#f7805c;}.ag{stroke:#3e6569;stroke-width:16.362px;}.ah,.al{opacity:0.2;}.ai{fill:#4a5e3a;}.aj{fill:#6dcecd;}.ak{fill:#454c53;}.am{fill:#bcbec0;}</style><clipPath id="a"><rect class="a" width="1366" height="771" transform="translate(4536.026 1322.372)"/></clipPath><clipPath id="b"><path class="a" d="M4607.048,1558.913l3.2,195.925,143.3-2.966-.463-176.226S4628.039,1564.511,4607.048,1558.913Z"/></clipPath></defs><g transform="translate(-4536.026 -1322.372)"><g class="b"><rect class="c" width="1366" height="771" transform="translate(4536.026 1322.372)"/><path class="d" d="M5902.026,1331.909v758.464L5659.8,2022.786l-32.991-6.263,1.636-558.092,30.118-25.56Z"/><path class="d" d="M4852.322,1447.843l-16.051,556.371-300.044,74.4V1328.56l298.845,93.57Z"/><path class="e" d="M5234,1411.443H4809.4v617.384h849.166V1411.443Z"/><path class="c" d="M4536.026,1383.152c121.657,30.38,335.7,73.888,615,80.372,352.972,8.195,622.429-47.1,751-78.7v-62.455h-1366Z"/><path class="c" d="M4536.026,2045.056c121.657-29.39,335.7-71.481,615-77.753,352.972-7.928,622.429,45.568,751,76.133v47.19l-1365.8,2.746Z"/></g><path class="f" d="M4756.509,1754.818l-.429-183.055-152.554-16.12,3.394,203.742Z"/><path class="g" d="M4607.048,1558.913l3.2,195.925,143.3-2.966-.463-176.226S4628.039,1564.511,4607.048,1558.913Z"/><path class="h" d="M4633.084,1617.155s-.467-8.472-4.458-11.882c-6.42-5.485-21.158-20.644-21.158-20.644l-.076-4.707,25.706,25.049S4641.428,1611.558,4633.084,1617.155Z"/><path class="h" d="M4753.53,1745.449s-54.157,9.005-87.465-22.834c-33.816-32.323-22.239-63.719-28.48-68.406-6.257-4.7-17.4-12.377-23.332-15.082l-.933-15.1s49.77,24.119,56.114,38.057c6.317,13.879,84.056,67.918,84.056,67.918Z"/><path class="i" d="M4618.81,1631.208c5.522,4.7,18.321,7.007,27.555,16.284,9.475,9.492-5.134,30.884,19.487,56.765,22.945,24.118,61.362,37.392,87.645,28.474l-.273-103.936c-32.182-19.218-54.558-8.734-61.29-14.854-7.425-6.709-6-20.841-21.268-28.168-11.725-5.634-24.811-1.574-33.16,2.3-1.33.6-2.528,1.2-3.578,1.773-.82.425-1.542.84-2.182,1.2-1.116.629-2.681,1.1-3.863,1.739-1.939,1.055-2.893,2.562.665,6a22.355,22.355,0,0,1,4.55,6.189c2.411,4.914,2.585,10.407-1.734,14.068-6.474,5.487-13.392.723-16.475,2.665C4611.787,1623.647,4613.325,1626.529,4618.81,1631.208Z"/><path class="j" d="M4637.506,1588.074l-30.442-28.172.327,20.02,25.706,25.049v.016l6.552,6.373,4.6-2.919,5.694-3.642,3.343-2.122Z"/><path class="k" d="M4663.469,1643.117c1.425,12.022,14.191,22.782,28.413,23.626,14.165.841,23.664-8.527,21.345-20.52-2.238-11.573-14.733-21.362-28.023-22.23C4671.865,1623.122,4662.094,1631.519,4663.469,1643.117Z"/><path class="c" d="M4606.686,1565.33l63.881,59.58a9.769,9.769,0,0,1,1.5,1.716,9.476,9.476,0,0,1,1.95,5.8,5.636,5.636,0,0,1-.042.742c-.194,1.682.22,14.583,2.311,17.112,1.94,2.345,15.1,10.461,20.39,12.956,3.751,1.768,5.032,1.965,5.308,2.17a2.249,2.249,0,0,0,.289-.108l.192-.177.146.056h.016c.209-.082.4-.18.61-.278-.229-.5-1.638-.7-6.2-2.883-5.946-2.839-18.223-10.682-19.735-12.511-1.415-1.714-2.38-12.889-1.989-16.094.03-.268.043-.568.057-.868a10.914,10.914,0,0,0-2.135-6.51,12.245,12.245,0,0,0-1.783-2.037l-63.849-59.606Z"/><path class="l" d="M4735.525,1684.667"/><path class="l" d="M4729.294,1689.761"/><path class="c" d="M4606.82,1573.536l58.737,56.161a7.6,7.6,0,0,1,1.158,1.407,5.971,5.971,0,0,1,.97,3.63c-.176,1.89,1.374,15.8,1.732,17.245.358,1.569,2.051,3.156,4.993,4.724,1.536.818,12.654,7.061,17.984,10.05.873.051,1.729.039,2.569.011-3.8-2.143-18.166-10.248-19.979-11.194-2.485-1.319-4-2.658-4.267-3.8-.375-1.587-1.84-15.332-1.692-16.781a7.6,7.6,0,0,0-1.439-4.9,9.952,9.952,0,0,0-1.124-1.31l-58.723-56.154Z"/><path class="m" d="M4738.812,1680.67l-14.169,12.195,6.456,5.726,13.814-12.523Z"/><path class="n" d="M4681.869,1642.777a55.536,55.536,0,0,1-2.234-13.291c-.107-2.458-.091-5.07-1.457-7.235a13.673,13.673,0,0,0-2.558-2.767,295.343,295.343,0,0,0-30.492-23.892"/><path class="n" d="M4734.568,1692.569l-17.516-16.63"/><path class="n" d="M4738.823,1686.68l-25.3-23.306"/><g class="o"><path class="c" d="M4730.039,1551.856a157.656,157.656,0,0,1,41.089,47.63c1.179,2.117,2.295,4.8.97,6.652-4.674-1.215-8.879-3.958-12.983-6.658l-57.881-38.062q14,14.516,27.805,28.983c6.053,6.345,12.183,12.834,15.952,20.58-1.792,1.478-4.627.058-6.685-1.353l-50.243-34.449c6.461,11.991,19.964,19.832,24.92,32.289a12.615,12.615,0,0,1-7.206-.343"/></g><path class="p" d="M4753.465,1720.689l-117.352-159.636-19.46-1.433,128.487,192.426,8.407-.174Z"/><path class="p" d="M4705.907,1752.858l-98.2-125.133.261,15.9,84.451,111.569Z"/><path class="q" d="M4963.9,1964.257c0,23.915-18.362,43.3-41.017,43.3s-41.031-19.388-41.031-43.3a44.164,44.164,0,0,1,14.485-33c.014-.014.041-.042.055-.042,3.074-2.672,13.765-4.639,26.5-4.639,12.6,0,23.209,1.925,26.394,4.556.1.083.194.166.291.263a.655.655,0,0,1,.138.139A44.179,44.179,0,0,1,4963.9,1964.257Z"/><path class="r" d="M4950.27,1932.781c0,3.42-12.255,6.2-27.377,6.2s-27.391-2.784-27.391-6.2a2.1,2.1,0,0,1,.831-1.523c.014-.014.041-.042.055-.042,3.074-2.672,13.765-4.639,26.5-4.639,12.6,0,23.209,1.925,26.394,4.556.1.083.194.166.291.263a.655.655,0,0,1,.138.139A1.876,1.876,0,0,1,4950.27,1932.781Z"/><rect class="s" width="5.024" height="38.259" transform="translate(4919.581 1897.128)"/><path class="t" d="M4919.58,1905.63s-34.394-17.777-38.645-18.164-37.872,8.889-47.92,9.082,13.139,5.6,18.163,5.217,30.53-3.091,37.486.773,21.3-.193,21.3-.193Z"/><path class="s" d="M4844.9,1927.126s19.709-3.913,28.26-10.869,25.506-23.042,32.317-21.738,15.216,3.478,15.216,3.478l-.434,1.739s-4.493-1.594-5.652-.724-10.869,10-14.782,13.187-20.868,15.507-34.636,16.231S4844.9,1927.126,4844.9,1927.126Z"/><path class="s" d="M4922.72,1912.779c.145-.435,12.608-5.459,19.854-7.149s28.115-2.126,37.39,2.222,18.694,19.419,17.39,18.694-14.927-9.854-20.289-11.448-24.346,1.449-32.172-.58a99.871,99.871,0,0,1-12.318-3.913l-9.42,3.333Z"/><path class="t" d="M4922.72,1906.113l12.608-6.811s4.2,1.884,7.826,3.405,22.752,21.521,25.216,25,1.014-3.913.58-6.232-8.551-22.184-12.174-24.932-15.8-3.907-18.984-3.617-5.942,4.493-7.391,5.507S4922.72,1906.113,4922.72,1906.113Z"/><path class="t" d="M4922.72,1898.142l-6.666-16.81s-14.782-29.854-19.854-38.114-18.84-17.391-24.926-19.42-1.3.87,1.739,3.768,11.883,11.739,11.448,15.942-4.492,3.333.58,9.274-4.782,7.681-4.782,7.681-18.84-4.2-30.723.145-13.478,4.348-13.333,5.217,17.97-2.608,24.781-2.463,36.085,13.187,39.708,15.651,18.1,13.541,19.557,18.871S4922.72,1898.142,4922.72,1898.142Z"/><path class="s" d="M4843.449,1880.317c1.289-4.35,30.723-22.752,37.389-22.9s12.9.2,17.826,4.3,11.56,7.961,13.1,11.031-18.029-3.159-30.492-.985S4842.29,1884.23,4843.449,1880.317Z"/><path class="s" d="M4922.092,1899.012c-.241-.435-2.27-35.163-1.835-37.291s7.825-20.967,8.115-23.576-3.333-11.593.435-19.129a69.114,69.114,0,0,0,5.8-14.782c.724-2.9,4.782-7.246,5.507-7.1s-5.942-.29-9.13,3.768-15.507,22.752-16.811,28.4-2.029,12.895-.725,18.766-.145,5.726-1.594,1.668-4.637-13.043-6.811-17.535-12.028-10.434-15.651-12.753-2.319.238-.29,3.669,8.695,19.518,12.463,22.271,12.608,10.725,14.347,14.2,5.465,40.669,5.465,40.669Z"/><path class="s" d="M4921.416,1880.317s19.274-22.173,20.868-26.085,3.478-10.58,5.218-11.884,14.057-8.55,18.259-10.869,15.362-2.174,16.087-3.188-7.971-4.689-10.58-5.171-18.694,8.649-24.491,13.142-10.144,5.8-13.912,13.042-12.174,28.549-12.174,28.549Z"/><path class="t" d="M4921.517,1891.334s8.594-8.263,11.493-14.64,13.912-31.882,12.9-43.041-1.159-17.68,2.029-20,2.319-5.507-8.405,3.913,2.609,28.133-13.623,63.629l-4.48,8.685Z"/><path class="t" d="M4923.735,1899.591s10.434-16.955,12.753-23.621,19.709-16.231,24.636-19.13,15.941-4.927,24.781-1.159,6.232,3.043,3.188,3.043-14.347-4.492-22.9,2.029-14.782,16.231-18.984,19.564-14.492,7.971-14.927,7.971-8.55,13.187-8.55,13.187Z"/><path class="s" d="M4923.735,1901.475s10.4-21.3,16.43-21.448,22.988.435,31.248,3.623,22.318-1.884,28.694-3.333-2.028,3.043-9.854,6.087-23.332,5.652-38.114,3.333-12.463-6.521-17.68-1.159A143.1,143.1,0,0,0,4923.735,1901.475Z"/><path class="u" d="M5616.062,1822.517c.192,1.01-.641,13.529,1.882,18.378s6.861,11.733,7.581,14.616c.848,3.391,2.735,3.158,2.158-1.01-.375-2.708-1.65-7.926-2.233-8.886-.283-.466,1.2,2.8,2.508,6.544,1.391,3.982,2.648,8.466,3.55,8.121,1.749-.669-1.464-12.655-2.393-14.532a41.005,41.005,0,0,1,2.371,5c.919,2.353,1.571,5.311,2.439,5.41,1.366.157.492-6.731-1.645-11.5.13-.192,1.352,1,3.413,6.912.207.594,1.371,1.692,1.242-.611-.27-4.847.029-7.031-3.2-12.206-3.151-5.046-8.1-9.574-9.692-14.43Z"/><path class="u" d="M5608.4,1734.983c5.815,21.041,14.672,73.242,15.3,85.092a23.942,23.942,0,0,0-7.96,6.4c-.055-.285-.109-.567-.162-.841-3.67-9.707-22.815-50.2-26.071-66.981,2.683-5.706-10.451,1.286-9.751.715,1.066-.87,2.152-11.717-5.316-14.757C5583.17,1735.481,5603.254,1716.342,5608.4,1734.983Z"/><path class="u" d="M5617.045,1838.352s-2.625,7.207-.573,12.041c1.22,2.874.344,3.359.39,3.954.154,1.976,2.69-1.686,2.113-4.426-.469-2.227,2.777-5.756,2.888-7.351s-.516-5.742-1.591-6.178S5617.045,1838.352,5617.045,1838.352Z"/><path class="u" d="M5624.042,1824.317l-.429-9.042-8.707,8.522s.781.286,1.211,6.068,5.771.4,5.771.4Z"/><path class="u" d="M5486.545,2023.916s3.2,14.332,5.454,18.8-9.351,4.714-9.827,4.967-10.153-4.234-10.153-4.234,5.382-2.56.855-20.2S5486.545,2023.916,5486.545,2023.916Z"/><path class="v" d="M5501.432,1871.973c-.35,5.666-3.867,13.467-5.242,26.157a102.292,102.292,0,0,0,.084,21.791c2.41,22.987-4.546,31.021-5.109,38.431a11.073,11.073,0,0,0,.256,3.467c4.9,20.531,1,62.805,1,62.805s-2.1.5-5.123,1.055c-7.2,1.323-19.634,2.927-21.3-1.3-2.378-6-10.349-20.792-11.64-29.417s.172-24.323.838-28.178-1.035-20.655-3.908-26.1c-3.277-6.219-3.176-20.225-1.95-34.085,1.422-16.056,4.368-31.911,5.354-35.212,0,0,24.277-15.023,30.158-13.712S5501.949,1863.608,5501.432,1871.973Z"/><path class="w" d="M5501.432,1871.973c-.35,5.666-3.867,13.467-5.242,26.157-6.53.132-15.366-2.294-24.087-3.994-7.3-1.42-16.5,6.246-22.769,12.465,1.422-16.056,4.368-31.911,5.354-35.212,0,0,24.277-15.023,30.158-13.712S5501.949,1863.608,5501.432,1871.973Z"/><g class="x"><path class="y" d="M5472.585,1913.2l-.45.722-4.3,6.906-7.205,11.557c.3.324.582.66.857,1.012.178.226.35.456.519.689,1.566-2.916,3.772-7.026,6-11.165,1.8-3.365,3.6-6.748,5.088-9.524Z"/><path class="y" d="M5470.286,1912.243l-1.627,2.61-3.436,5.51-6.442,10.329a13.807,13.807,0,0,1,1.313,1.145l5.263-9.8,4.557-8.529q.325-.615.614-1.156Z"/><path class="y" d="M5458.042,1930.171c1.878-3.493,9.26-17.228,10.1-18.907l-.019-.009-10.876,17.436.174,1.106C5457.632,1929.915,5457.839,1930.039,5458.042,1930.171Z"/><path class="y" d="M5465.229,1911.95c-.16.419-8.473,15.869-8.473,15.869l-.291-1.827Z"/><path class="y" d="M5462.648,1912.542c-.128.335-6.767,12.673-6.767,12.673l-.234-1.457Z"/><path class="y" d="M5460.755,1912.77c-.1.267-5.406,10.124-5.406,10.124l-.188-1.164Z"/><path class="y" d="M5468.478,1930.483l-15.861-13.422q-.761.68-1.549,1.328c4.546,3.448,11.229,8.513,17,12.878Z"/><path class="y" d="M5469.647,1928.241l-15.234-12.892q-.6.614-1.228,1.2c3.816,2.895,10.695,8.11,16.174,12.249Z"/><path class="y" d="M5470.753,1926.08l-14.01-11.856-1.185-.109c-.17.194-.344.386-.519.576,2.633,2,10.261,7.784,15.528,11.758Z"/><path class="y" d="M5471.7,1924.14l-11.812-9.995-2.112-.2s8.686,6.594,13.8,10.45Z"/><path class="y" d="M5472.518,1922.366l-10-8.463-1.689-.155s7.636,5.8,11.613,8.791C5472.466,1922.481,5472.492,1922.424,5472.518,1922.366Z"/><path class="y" d="M5473.273,1921.055l-8.39-7.1-1.351-.125s6.628,5.031,9.669,7.318C5473.225,1921.117,5473.248,1921.086,5473.273,1921.055Z"/></g><path class="z" d="M5491.421,1961.819c4.9,20.531,1,62.805,1,62.805s-2.1.5-5.123,1.055c-.021-.439-5.2.378-4.969-.069,9.446-18.492,6.694-48.956,7.194-56.948.115-1.841.242-7.409,1.641-10.31A11.073,11.073,0,0,0,5491.421,1961.819Z"/><path class="aa" d="M5444.23,2065.8c5.447-.085,16.132-2.518,23.927-4.133h.006c.248-.057.478-.1.715-.152,4.066-.833,7.236-1.41,8.261-1.243.112.021.248.033.41.047.4.036.958.062,1.631.064,6.068.033,21.519-1.344,21.018-5.974a11.409,11.409,0,0,0-.646-2.6c-.065-.182-.131-.365-.209-.545-.009-.012-.009-.018-.018-.03-.094-.242-.2-.49-.308-.735-.008-.006-.008-.006-.009-.012-2.065-4.549-6.095-9.079-6.758-8.538-8.861,7.249-19.4,1.822-21.6.555-.273-.158-.416-.252-.416-.252s-.366.081-1.058.255c-.375.1-.856.231-1.422.386-.308.085-.64.179-1,.285-.123.037-.246.068-.368.112q-.443.125-.939.276c-.16.049-.319.1-.49.156h-.006q-1.351.423-3,.995c-.689.237-1.407.492-2.166.773-1.143.414-2.367.886-3.661,1.4-.12.056-.245.12-.364.183-.64.307-1.263.638-1.873.972a41.616,41.616,0,0,0-5.745,3.8l-.005.007C5439.811,2058.42,5437.51,2065.91,5444.23,2065.8Z"/><path class="ab" d="M5448.133,2051.848a12.917,12.917,0,0,1,10.552,7.937s4.072-1.4,8.713-2.8c.4-.117.81-.237,1.222-.356.742-.22,1.5-.442,2.248-.65.646-.181,1.287-.353,1.91-.517,3.466-.9,6.492-1.5,7.553-1.176,2.872.865,20.008,1.536,19.221-2.474a1.964,1.964,0,0,0-.209-.545c-.009-.012-.009-.018-.018-.03a4.741,4.741,0,0,1-.308-.735c-.008-.006-.008-.006-.009-.012-2.065-4.549-6.095-9.079-6.758-8.538-8.861,7.249-19.4,1.822-21.6.555-.273-.158-.416-.252-.416-.252s-.366.081-1.058.255c-.375.1-.856.231-1.422.386-.308.085-.64.179-1,.285-.123.037-.246.068-.368.112q-.443.125-.939.276c-.16.049-.319.1-.49.156h-.006q-1.351.423-3,.995c-.689.237-1.407.492-2.166.773-1.143.414-2.367.886-3.661,1.4-.12.056-.245.12-.364.183-.64.307-1.263.638-1.873.972a41.616,41.616,0,0,0-5.745,3.8Z"/><path class="ac" d="M5465.447,2043.565c.207.142.5.348.862.62a18.887,18.887,0,0,1,3.51,3.327,8.962,8.962,0,0,1,.9,1.364c.1.184.184.376.264.569l1.758-.718a9.665,9.665,0,0,0-1.308-2.227v-.006a13.926,13.926,0,0,0-1.1-1.278,21.073,21.073,0,0,0-2.584-2.324c-.308.085-.64.179-1,.285-.123.037-.246.068-.368.112Q5465.943,2043.413,5465.447,2043.565Z"/><path class="ac" d="M5459.781,2045.49c1.194.827,4.294,3.17,5.34,5.744l1.764-.72c-.984-2.416-3.328-4.545-4.938-5.8C5461.258,2044.954,5460.54,2045.209,5459.781,2045.49Z"/><path class="ac" d="M5453.883,2048.045c1.4,1.033,3.921,3.118,4.844,5.389l1.758-.718a15.512,15.512,0,0,0-4.729-5.643C5455.116,2047.38,5454.493,2047.711,5453.883,2048.045Z"/><path class="ad" d="M5479.936,1660.756s25.514-.364,27.7-10.206,2.552-15.209,0-20.908,14.58,6.329,14.58,6.329-1.823,7.654,0,13.486,5.832,5.949,12.028,5.344,0,19.077,0,19.077-22.2,2.407-23.855,3.208-24.622.292-25.716,0S5479.936,1660.756,5479.936,1660.756Z"/><path class="ae" d="M5472.247,1813.7c1.038.078,5.981-2,13.887,3.011s15.987,12.854,21.969,11.648,1.975-8.024-1.485-9.521c-3.115-1.348-9-3.1-7.724-5.336s4.049-1.983,6.844.008,5.026.072,4.067-1.043-7.891-5.1-9.564-5.429c-1.237-.248-6.859,1.445-9.812.732s-14.686-4.607-14.686-4.607Z"/><path class="af" d="M5574.935,1777.622l-.628-.862A9.412,9.412,0,0,1,5574.935,1777.622Z"/><path class="af" d="M5639.752,1762.713c-4.063,4.164-32.982,11.5-39.587,13.007-36.128,8.239-38.618-23.315-38.618-23.315l4.235,21.3,4.715,27.419,21.29,67.275a59.032,59.032,0,0,1-13.8,9.032c-.989.482-2.035.957-3.118,1.414a62.955,62.955,0,0,1-22.812,5.032c-2.852,0-32.864.362-61.234.71a.022.022,0,0,1-.026,0c-.247.006-.488.006-.729.013-26.316.323-50.991.64-50.991.64l4.544-40.286,2.453-21.753,1.68-14.851,5.28-46.821.393-3.461-4.443,19.167-65.386-18.881s3.587-15.9,24.2-78.71c7.625-23.242,38.132-41.959,78.335-29.01a104.141,104.141,0,0,1,11.485,4.462c1.978.9,9.539,17,21.773,11.333.259-.12.519-.241.773-.374,11.168-5.387,13.722-11.529,15.554-14.052,0-.013.006-.013.013-.019.063-.076.12-.152.177-.228,1.287-1.623,4.418-3.34,8.7-4.8,7.72-2.631,19.206-4.557,29.112-3.4,5.033.577,9.66,1.94,13.184,4.418,9.862,6.928,19,19.186,24.586,35.932.343,1.02.672,2.053.983,3.106.158.488.317.982.481,1.47,1.414,4.367,2.846,8.829,4.272,13.336,1.458,4.6,2.9,9.235,4.323,13.83C5624.341,1724.681,5637.387,1754.587,5639.752,1762.713Z"/><path class="ag" d="M5509.151,1689.75l14.307,28.99,31.992,4.649-23.149,22.565,5.465,31.862-28.614-15.043-28.615,15.043,5.465-31.862-23.149-22.565,31.992-4.649Z"/><path class="ah" d="M5456.592,1811.31c-3.955,4.944-10.033,23.953-12.968,33.638l9.413-83.419,2.44-10.845c15.212-13.646,8.721,26.178,10.287,38.258S5461.961,1804.6,5456.592,1811.31Z"/><path class="ah" d="M5520.166,1666.055c-3.62,4.691-12.087,9.514-16.949,6.332-7.175-4.69-20-4.7-22.241-15.655-.887-4.336,1.705-5.857,5.159-6.1a105.346,105.346,0,0,1,11.485,4.462c1.978.9,9.539,17,21.772,11.333C5519.652,1666.3,5519.912,1666.182,5520.166,1666.055Z"/><path class="ae" d="M5574.935,1777.622l-.628-.862A9.412,9.412,0,0,1,5574.935,1777.622Z"/><path class="ai" d="M5472.329,1735.141c-3.988-2.456-6.078-1.08-10.187,4.056-4.027,5.034-29.946,38.8-36.457,47.471l.91.683s.377-.5.313-.417l-.745,1-.912-.682c-6.052,8.113-31.089,42.339-34.782,47.621-3.771,5.391-4.091,7.278-.609,10.413s21.571,16.813,28.572,21.259,9.688,6.857,16.8-2.651c7.072-9.448,26.971-36.035,33.038-44.142,1.129-1.507,1.779-2.377,1.779-2.377,6.068-8.106,25.967-34.694,33.039-44.141,7.115-9.509,3.988-11.3-2.252-16.768S5476.32,1737.6,5472.329,1735.141Z"/><path class="ai" d="M5426.335,1785.8c-3.975,5.329-14.795,20.084-23.745,32.35l21.449,16.054,23.667-31.62,24.423-32.631L5450.68,1753.9C5441.433,1765.944,5430.326,1780.485,5426.335,1785.8Z"/><path class="ai" d="M5426.118,1786.09c-3.68,4.934-13.712,18.636-21.794,29.745l21.449,16.054,21.944-29.322,22.246-29.719-21.451-16.055C5440.133,1767.681,5429.814,1781.168,5426.118,1786.09Z"/><path class="aj" d="M5411.791,1831.244a7.635,7.635,0,1,1-10.686,1.537A7.635,7.635,0,0,1,5411.791,1831.244Z"/><path class="c" d="M5408.361,1835.828a1.909,1.909,0,1,1-2.673.384A1.909,1.909,0,0,1,5408.361,1835.828Z"/><path class="aj" d="M5474.31,1747.714a7.635,7.635,0,1,1-10.687,1.538A7.635,7.635,0,0,1,5474.31,1747.714Z"/><path class="c" d="M5470.878,1752.3a1.908,1.908,0,1,1-2.672.384A1.906,1.906,0,0,1,5470.878,1752.3Z"/><rect class="c" width="3.615" height="20.244" transform="matrix(0.599, -0.801, 0.801, 0.599, 5416.682, 1851.274)"/><rect class="c" width="3.615" height="20.244" transform="translate(5419.714 1847.223) rotate(-53.191)"/><rect class="c" width="4.338" height="20.245" transform="translate(5422.746 1843.172) rotate(-53.195)"/><rect class="c" width="3.616" height="20.244" transform="translate(5425.78 1839.117) rotate(-53.172)"/><rect class="c" width="3.615" height="20.244" transform="matrix(0.599, -0.8, 0.8, 0.599, 5428.813, 1835.064)"/><rect class="c" width="4.338" height="20.244" transform="matrix(0.599, -0.801, 0.801, 0.599, 5431.845, 1831.015)"/><rect class="c" width="3.615" height="20.245" transform="translate(5435.31 1826.385) rotate(-53.193)"/><rect class="c" width="3.615" height="20.245" transform="translate(5437.911 1822.91) rotate(-53.178)"/><rect class="c" width="3.615" height="20.245" transform="matrix(0.6, -0.8, 0.8, 0.6, 5440.944, 1818.856)"/><rect class="c" width="3.615" height="20.244" transform="matrix(0.599, -0.801, 0.801, 0.599, 5444.409, 1814.228)"/><rect class="c" width="3.615" height="20.245" transform="translate(5447.441 1810.177) rotate(-53.189)"/><rect class="c" width="3.615" height="20.244" transform="matrix(0.599, -0.801, 0.801, 0.599, 5450.042, 1806.703)"/><rect class="c" width="4.338" height="20.244" transform="translate(5453.073 1802.653) rotate(-53.196)"/><rect class="c" width="2.892" height="20.245" transform="translate(5456.54 1798.019) rotate(-53.175)"/><rect class="c" width="3.614" height="20.244" transform="translate(5459.572 1793.969) rotate(-53.186)"/><rect class="c" width="4.337" height="20.244" transform="matrix(0.599, -0.801, 0.801, 0.599, 5462.171, 1790.498)"/><rect class="c" width="3.615" height="20.245" transform="matrix(0.599, -0.801, 0.801, 0.599, 5465.637, 1785.864)"/><rect class="c" width="4.338" height="20.245" transform="matrix(0.599, -0.801, 0.801, 0.599, 5468.236, 1782.394)"/><rect class="c" width="3.614" height="20.245" transform="translate(5471.701 1777.765) rotate(-53.204)"/><rect class="c" width="3.615" height="20.245" transform="matrix(0.599, -0.801, 0.801, 0.599, 5474.735, 1773.709)"/><rect class="c" width="3.615" height="20.244" transform="matrix(0.599, -0.801, 0.801, 0.599, 5477.768, 1769.658)"/><rect class="c" width="3.615" height="20.244" transform="translate(5480.802 1765.603) rotate(-53.161)"/><rect class="c" width="4.337" height="20.244" transform="matrix(0.599, -0.801, 0.801, 0.599, 5483.833, 1761.553)"/><rect class="ak" width="2.892" height="13.015" transform="translate(5418.414 1848.96) rotate(-53.191)"/><rect class="ak" width="2.169" height="13.014" transform="translate(5424.914 1840.275) rotate(-53.182)"/><rect class="ak" width="2.169" height="13.015" transform="matrix(0.599, -0.801, 0.801, 0.599, 5427.946, 1836.224)"/><rect class="ak" width="2.892" height="13.014" transform="translate(5430.545 1832.75) rotate(-53.177)"/><rect class="ak" width="2.169" height="13.014" transform="translate(5437.044 1824.069) rotate(-53.182)"/><rect class="ak" width="2.892" height="13.014" transform="matrix(0.599, -0.801, 0.801, 0.599, 5439.643, 1820.596)"/><rect class="ak" width="2.169" height="13.014" transform="translate(5446.142 1811.914) rotate(-53.188)"/><rect class="ak" width="2.17" height="13.013" transform="translate(5449.174 1807.863) rotate(-53.194)"/><rect class="ak" width="2.169" height="13.014" transform="translate(5452.207 1803.81) rotate(-53.199)"/><rect class="ak" width="2.892" height="13.013" transform="matrix(0.599, -0.801, 0.801, 0.599, 5457.839, 1796.285)"/><rect class="ak" width="2.169" height="13.015" transform="translate(5461.306 1791.652) rotate(-53.168)"/><rect class="ak" width="2.168" height="13.015" transform="translate(5467.368 1783.553) rotate(-53.223)"/><rect class="ak" width="2.17" height="13.014" transform="matrix(0.599, -0.801, 0.801, 0.599, 5470.401, 1779.501)"/><rect class="ak" width="2.892" height="13.014" transform="translate(5473.436 1775.445) rotate(-53.17)"/><rect class="ak" width="3.615" height="13.014" transform="translate(5479.067 1767.921) rotate(-53.178)"/><rect class="ak" width="2.892" height="13.014" transform="matrix(0.599, -0.801, 0.801, 0.599, 5482.533, 1763.292)"/><path class="aj" d="M5458.845,1765.542c2.345,1.755-5.426,16.1-17.357,32.039s-23.5,27.44-25.846,25.686,5.427-16.1,17.357-32.039S5456.5,1763.789,5458.845,1765.542Z"/><path class="c" d="M5443.385,1790.259l-8.006,10.7-5.577-1,11.056-14.77Z"/><path class="u" d="M5398.97,1719.525c-.24,1.02-5.738,33.215-1.9,42.51s34.064,43.251,45.894,49.911c0,0-3.388-13.7-3.436-14.694s-23.139-41.186-23.458-46.032c-.108-1.654,2.955-16.547,2.723-33.5S5398.97,1719.525,5398.97,1719.525Z"/><path class="u" d="M5443.016,1800.6c.671.771,10.832,7.825,13.138,12.78s5.147,12.579,6.965,14.916c2.138,2.749.877,4.079-2.017,1.064-1.881-1.96-5.187-6.168-5.6-7.214-.2-.507,1.478,2.66,3.626,5.988,2.283,3.537,5.032,7.277,4.248,7.77-1.518.954-8.951-8.933-9.87-10.812a42.515,42.515,0,0,0,2.507,4.925c1.293,2.167,3.208,4.5,2.788,5.235-.662,1.164-5.489-3.758-7.956-8.363-.223-.017,0,1.673,3.392,6.919.341.528.524,2.112-1.184.594-3.594-3.194-5.455-4.3-7.608-10.012-2.1-5.566-2.756-12.3-5.778-15.766Z"/><path class="u" d="M5454.7,1811.109s7.079,2.385,9.643,6.963c1.525,2.722,2.4,2.336,2.835,2.738,1.441,1.336-2.844,1.064-4.634-1.073-1.454-1.737-6.043-1.374-7.341-2.269s-4.146-3.936-3.868-5.044S5454.7,1811.109,5454.7,1811.109Z"/><path class="u" d="M5443.016,1800.6s-2.1-1.551-6.439-7.971-2.54,4.771-2.54,4.771l8.191,12.448Z"/><path class="af" d="M5383.6,1758.351l65.385,18.878-20.205-87.479L5403,1694.367Z"/><path class="al" d="M5500.16,1870.449l-10.084,14.174,32.958-.432,2.852-32.023Z"/><path class="u" d="M5601.792,1987.517s5.027,13.8,5.539,18.779,10.417-1.068,10.954-1.111,6.272-9.038,6.272-9.038-5.914.744-11.608-16.559S5601.792,1987.517,5601.792,1987.517Z"/><path class="v" d="M5610.6,1948.292c3.561,7.962,4.82,24.722,6.048,31.054s-22.133,14.444-22.133,14.444-26.066-33.509-33-53.445c-2.955-8.489-14.691-8.8-26.666-32.679a101.581,101.581,0,0,0-12.229-19.089c-7.774-9.48-14.684-14.048-17.955-18.522-4.942-6.767,2.024-16.7,6.269-20.98s32.794-4.7,32.794-4.7a189.694,189.694,0,0,1,13.19,14.188c11.51,13.364,26.19,32.531,27.02,42.352.516,6.137,8.138,21.211,10.774,24.094S5607.041,1940.33,5610.6,1948.292Z"/><path class="w" d="M5556.917,1858.562a78.644,78.644,0,0,0-19.977,18.272c-3.735,4.753-8.848,8.581-14.321,11.743-7.774-9.48-14.684-14.048-17.955-18.522-4.942-6.767,2.024-16.7,6.269-20.98s32.794-4.7,32.794-4.7A189.694,189.694,0,0,1,5556.917,1858.562Z"/><g class="x"><path class="y" d="M5573.477,1911.766l.421.339,4.021,3.241,6.729,5.425c.226-.162.46-.317.7-.463q.234-.141.474-.274l-6.575-4.633-5.61-3.935C5573.586,1911.566,5573.532,1911.666,5573.477,1911.766Z"/><path class="y" d="M5572.7,1913.141l1.519,1.225,3.209,2.587,6.014,4.85a8.659,8.659,0,0,1,.821-.74l-5.772-4.066-5.024-3.526-.682-.475C5572.753,1913.045,5572.724,1913.093,5572.7,1913.141Z"/><path class="y" d="M5583.052,1922.229c-2.057-1.452-10.144-7.155-11.138-7.813l-.006.011,10.151,8.189.71-.025C5582.86,1922.467,5582.954,1922.346,5583.052,1922.229Z"/><path class="y" d="M5572.123,1916.3c.252.133,9.349,6.555,9.349,6.555l-1.173.043Z"/><path class="y" d="M5572.3,1917.976c.2.106,7.465,5.234,7.465,5.234l-.936.036Z"/><path class="y" d="M5572.3,1919.186c.161.084,5.964,4.181,5.964,4.181l-.748.03Z"/><path class="y" d="M5584.049,1915.677l-9.672,8.964q.371.531.718,1.078c2.52-2.6,6.224-6.422,9.416-9.726Z"/><path class="y" d="M5582.726,1914.769l-9.29,8.61c.227.283.446.572.659.865,2.117-2.182,5.93-6.116,8.957-9.251Z"/><path class="y" d="M5581.449,1913.907l-8.543,7.918-.16.738c.11.122.217.246.323.371,1.461-1.506,5.691-5.868,8.6-8.882Z"/><path class="y" d="M5580.3,1913.159l-7.2,6.676-.285,1.316s4.82-4.967,7.642-7.894Z"/><path class="y" d="M5579.244,1912.51l-6.1,5.652-.227,1.052s4.237-4.366,6.428-6.642Z"/><path class="y" d="M5578.476,1911.934l-5.115,4.742-.182.841s3.677-3.79,5.351-5.531Z"/></g><path class="aa" d="M5660.123,1998.87c-4.635,2.864-14.947,6.573-22.384,9.412l0,0c-.24.086-.459.17-.684.257-3.875,1.49-6.855,2.711-7.629,3.4-.082.079-.191.162-.32.262-.32.247-.774.568-1.34.932-5.093,3.3-18.851,10.464-20.924,6.294a11.475,11.475,0,0,1-.858-2.539c-.042-.189-.085-.378-.117-.572,0-.015,0-.02,0-.035-.052-.254-.1-.517-.136-.786,0-.008,0-.008,0-.014-.711-4.945.242-10.933,1.092-10.833,11.371,1.33,17.326-8.922,18.493-11.172.146-.28.215-.436.215-.436s.352-.13,1.028-.356c.371-.117.846-.267,1.407-.441.3-.095.635-.194,1-.3.124-.034.244-.074.37-.1q.441-.133.94-.274c.161-.044.322-.088.5-.132l0,0q1.365-.371,3.067-.781c.708-.171,1.451-.343,2.241-.516,1.186-.266,2.471-.529,3.839-.793.131-.017.271-.031.4-.042.7-.086,1.408-.144,2.1-.19a41.661,41.661,0,0,1,6.884.1l.009,0C5659.867,1990.271,5665.842,1995.341,5660.123,1998.87Z"/><path class="ab" d="M5649.316,1989.219a12.916,12.916,0,0,0-4.612,12.373s-4.183,1.017-8.85,2.333c-.4.116-.811.238-1.222.359-.744.215-1.5.434-2.244.663-.641.2-1.274.4-1.887.594-3.407,1.107-6.276,2.237-7,3.08-1.954,2.276-16.027,12.075-17.526,8.274a2.079,2.079,0,0,1-.117-.572c0-.015,0-.02,0-.035a4.914,4.914,0,0,0-.136-.786c0-.008,0-.008,0-.014-.711-4.945.242-10.933,1.092-10.833,11.371,1.33,17.326-8.922,18.493-11.172.146-.28.215-.436.215-.436s.352-.13,1.028-.356c.371-.117.846-.267,1.407-.441.3-.095.635-.194,1-.3.124-.034.244-.074.37-.1q.441-.133.94-.274c.161-.044.322-.088.5-.132l0,0q1.365-.371,3.067-.781c.708-.171,1.451-.343,2.241-.516,1.186-.266,2.471-.529,3.839-.793.131-.017.271-.031.4-.042.7-.086,1.408-.144,2.1-.19a41.661,41.661,0,0,1,6.884.1Z"/><path class="ac" d="M5630.267,1991.572c-.1.231-.234.563-.392.987a18.942,18.942,0,0,0-1.164,4.694,8.878,8.878,0,0,0-.025,1.636,6.231,6.231,0,0,0,.084.622l-1.868.342a9.679,9.679,0,0,1-.1-2.58l0-.006a14.091,14.091,0,0,1,.234-1.667,21.008,21.008,0,0,1,.925-3.35c.3-.095.635-.194,1-.3.124-.034.244-.074.37-.1Q5629.768,1991.712,5630.267,1991.572Z"/><path class="ac" d="M5636.077,1990.14c-.56,1.341-1.909,4.985-1.4,7.716l-1.873.345c-.474-2.565.353-5.622,1.035-7.545C5634.544,1990.485,5635.287,1990.313,5636.077,1990.14Z"/><path class="ac" d="M5642.423,1989.115c-.627,1.627-1.623,4.739-1.177,7.15l-1.868.342a15.526,15.526,0,0,1,.943-7.3C5641.025,1989.219,5641.729,1989.161,5642.423,1989.115Z"/><path class="am" d="M5632.388,2004.947a7.874,7.874,0,0,1-.972,1.49,10.863,10.863,0,0,0-2.315,5.771c-.227,2.24.256,4.176,1.037,4.958l-.9.9a7.079,7.079,0,0,1-1.479-4.921,12.261,12.261,0,0,1,2.671-7.505c.021-.031.048-.064.069-.094,2.211-2.787.968-4.293-1.815-6.652-.159-.138-.326-.278-.5-.422-.31-.257-.622-.52-.928-.786-.159-.137-.312-.277-.456-.414a4.478,4.478,0,0,1-1.571-3.047,2.945,2.945,0,0,1,.08-.737c.146-.28.215-.436.215-.436s.352-.13,1.028-.356l.361.387a1.616,1.616,0,0,0-.421,1.14,2.538,2.538,0,0,0,.542,1.382,6.191,6.191,0,0,0,1.043,1.123l.633.53c.1.081.192.164.288.239C5631.471,1999.56,5634.021,2001.69,5632.388,2004.947Z"/><path class="am" d="M5636.119,1996.475a23.869,23.869,0,0,1-.164,3.593,17.109,17.109,0,0,0-.1,3.857,5.468,5.468,0,0,0,2.27,3.852l-.385.505,0,0-.382.5c-.1-.078-.2-.159-.3-.24a6.6,6.6,0,0,1-2.418-4.258,17.655,17.655,0,0,1,.06-4.339,21.673,21.673,0,0,0,.161-3.4,3.413,3.413,0,0,0-.233-1.049,3.886,3.886,0,0,0-1.634-1.838,8.9,8.9,0,0,0-3.111-1.1c-.36-.061-.586-.085-.6-.085l.052-.628q.441-.133.94-.274c.161-.044.322-.088.5-.132l0,0a10.257,10.257,0,0,1,2.531.924,6.119,6.119,0,0,1,1.642,1.265A4.55,4.55,0,0,1,5636.119,1996.475Z"/><path class="g" d="M5577.989,1877.428c-.989.482-2.035.957-3.118,1.414-6.662-8.088-22.9-22.267-46.226-6.3-14.92,10.211-33.859,11.815-37.82,12.043a.022.022,0,0,1-.026,0c-.469.032-.722.038-.722.038l-.007-.025-6.059-19.142,25.138-45.743,31.279.3s36.908,46.111,37.022,46.46C5577.52,1866.685,5577.78,1872.611,5577.989,1877.428Z"/><path class="an" d="M5500.078,1620.119c3.328,4.35,4.243,2.649-1.184,8.421-2.445,3.747,3.359,3.8,7.484,5.783a7.869,7.869,0,0,1,2.336,1.593c2.046,1.766,6.128,2.143,10,2.714,8.249-.991,10.252,5.557,10.015-2.714-.032-.107-.075-.215-.1-.323-2.024-6.988,9.573-.581,7.2-6.8-5.416-2.455,6.634.237,2.714-10-5.772-4.307,7.053-7.871-2.714-10.014-.635-3.845-9.713-1.282-7.107-7.108-2.606-3.133-7.527-1.335-10.015-2.713-9.939-2.24-5.772,5.33-10,2.713-5.61-1.9-7.075,5.342-7.118,7.108C5498.377,1612.247,5491.5,1620.119,5500.078,1620.119Z"/><path class="k" d="M5506.378,1634.323a7.869,7.869,0,0,1,2.336,1.593c2.046,1.766,6.128,2.143,10,2.714,8.249-.991,10.252,5.557,10.015-2.714-.032-.107-.075-.215-.1-.323-2.7-.506-5.181-1.493-5.18-3.629,0-9.643-11.422-10.732-11.422-10.732s-3.1,6.554-3.3,7.265C5508.639,1628.863,5507.53,1631.587,5506.378,1634.323Z"/><path class="u" d="M5514.018,1612.229s-12.393-2.907-12.393,11.524,1.458,16.254,12.393,11.88S5526.41,1612.883,5514.018,1612.229Z"/></g></svg>