<svg xmlns="http://www.w3.org/2000/svg" width="528" height="435.661" viewBox="0 0 528 435.661"><defs><style>.a{fill:#f8f8f8;}.b{fill:#bcbec9;opacity:0.54;}.c{fill:#ccd1e8;}.d{fill:#7986cb;}.e{fill:#c98121;}.f{fill:#fcb95d;}</style></defs><g transform="translate(-561.924 -185.018)"><g transform="translate(580.238 398.476)"><path class="a" d="M799.045,416.649l-54.908,22.583h0L687.919,416.11l54.912-22.583Z" transform="translate(-523.638 -304.808)"/><path class="a" d="M796.477,385.48l-53.4,21.956L687.36,384.52l53.4-21.956Z" transform="translate(-523.889 -318.718)"/><path class="b" d="M835.42,401.494l-53.392,21.961h0l-56.215-23.121,53.4-21.956Z" transform="translate(-506.617 -311.614)"/><path class="b" d="M832.5,370.561l-52.578,21.622L724.2,369.266l52.573-21.622h0Z" transform="translate(-507.338 -325.42)"/><path class="a" d="M793.527,354.533l-52.573,21.622-54.035-22.224L739.5,332.309Z" transform="translate(-524.087 -332.309)"/><path class="c" d="M683.648,431.687l-51.872,21.334L576.054,430.1,627.93,408.77Z" transform="translate(-573.891 -297.961)"/><path class="b" d="M683.12,400.184,628.6,422.608l-54.039-22.224,54.523-22.42Z" transform="translate(-574.561 -311.799)"/><path class="b" d="M760.1,400.631l-54.912,22.583L649.469,400.3l54.912-22.583Z" transform="translate(-540.911 -311.912)"/><path class="b" d="M757.505,369.452l-53.4,21.956-54.035-22.219,53.4-21.961Z" transform="translate(-540.639 -325.606)"/><path class="c" d="M833.991,462.23l-54.519,22.424h0L726.2,462.744l54.519-22.42Z" transform="translate(-506.441 -283.786)"/><path class="b" d="M835.4,431.6l-54.912,22.583-53.78-22.115,54.908-22.583h0Z" transform="translate(-506.212 -297.641)"/><path class="c" d="M909.27,401.022,854.359,423.6l-53.78-22.115,54.907-22.583h0Z" transform="translate(-473.029 -311.376)"/><path class="a" d="M871.773,416.447,818.381,438.4,764.6,416.289l53.392-21.961Z" transform="translate(-489.19 -304.448)"/><path class="b" d="M761.033,432.231l-54.519,22.42L650.3,431.534l54.519-22.424Z" transform="translate(-540.538 -297.808)"/><path class="b" d="M758.949,462.649l-51.876,21.334-53.78-22.115,51.876-21.334Z" transform="translate(-539.193 -283.691)"/><path class="a" d="M797.392,447.179,742.873,469.6h0l-53.78-22.115,54.519-22.42h0Z" transform="translate(-523.113 -290.641)"/><path class="a" d="M795.549,477.7l-51.876,21.334L690.4,477.128l51.876-21.334h0Z" transform="translate(-522.523 -276.836)"/><path class="a" d="M722.091,416.214l-54.519,22.424h0l-55.718-22.917L666.369,393.3Z" transform="translate(-557.81 -304.912)"/></g><path class="d" d="M803.423,398.956l0-.032.006-.041,12.455-93.091h0l.213-1.587-68.6-.3-1.4,11.047-9.527,71.7a20.43,20.43,0,0,0-13.636-7.793c-10.6-1.456-20.233,4.984-21.524,14.384s6.28,17.978,16.876,19.434c10.471,1.439,19.921-4.275,21.5-14.272l.023,0-.022.161c0-.014,0-.032,0-.046s0-.039,0-.058l9.755-72.835,58.894-.474-8.226,61.9a20.435,20.435,0,0,0-13.634-7.8c-10.6-1.456-20.233,4.981-21.524,14.381s6.219,18.418,16.815,19.875c10.471,1.441,19.986-4.743,21.438-13.829l.022,0Zm-53.15-78.838.664-4.949,58.828-.061-.6,4.536Z" transform="translate(62.593 53.409)"/><g transform="translate(694.338 185.018)"><path class="e" d="M795.122,328.876a59.582,59.582,0,0,0-16.043-56.74L752.47,246.311a18.858,18.858,0,0,0-9,33.261Q769.3,304.224,795.122,328.876Z" transform="translate(-615.905 -157.484)"/><path class="f" d="M653.293,239.41l183.521-2.348a64.031,64.031,0,0,0,10.566-2.348c10.469-3.283,17.879-8.6,25.434-14.87a287.773,287.773,0,0,0,34.826-34.826l70.24,72.587L838.772,398.476c-2.722-6.911-6.816-20.425-2.936-35.8,3.425-13.572,11.647-23.012,14.675-26.414,6.256-7.03,21.088-20.731,28.761-29.935a14.3,14.3,0,0,0,3.227-6.456,15.346,15.346,0,0,0-2.348-10.858,16.751,16.751,0,0,0-10.859-7.045H785.945V331.27a57.9,57.9,0,0,1-7.924,25.238,59.173,59.173,0,0,1-28.173,24.066v-76.6l-44.609,25.534a56.146,56.146,0,0,1-51.946-4.11l96.555-55.466-54-.294a50.3,50.3,0,0,1-29.934-12.326A48.881,48.881,0,0,1,653.293,239.41Z" transform="translate(-653.293 -185.018)"/></g><path class="c" d="M600.681,260a21.347,21.347,0,0,1-3.02-15.737l.035-.084-2.128-.856-15.244,38.387a10.211,10.211,0,0,0-5.662-5.44c-4.959-2-10.414-.046-12.184,4.353s.849,9.5,5.808,11.492c4.917,1.978,10.213.339,12.171-4.325l.136.055-.028.068,0-.012.007-.016,14.192-35.823c.368,2.4,1.451,5.494,3.962,9.92,4.971,8.762-2.749,12.688-2.749,12.688C601.583,274.145,605.554,267.6,600.681,260Z" transform="translate(0 26.19)"/><path class="c" d="M925.1,246.588a20.888,20.888,0,0,1-11.646-10.916l-.023-.088-2.44.628,10.463,39.955a10.217,10.217,0,0,0-7.784-1.028c-5.178,1.332-8.417,6.133-7.236,10.726s6.312,7.148,11.49,5.817c5.132-1.32,8.427-5.778,7.24-10.7l-.055.014.017.071,0-.013,0-.016L918.3,254.778c1.722,1.7,4.47,3.52,9.066,5.577,9.2,4.113,5.359,11.834,5.359,11.834,3.52-3.133,3.674-9.008-1.339-12.733C933.806,255.441,932.364,249.379,925.1,246.588Zm2.772,10.985a21.26,21.26,0,0,1-11.591-10.662l-.828-3.168c1.719,1.713,4.461,3.556,9.105,5.635,6.027,2.7,6.452,6.942,6.03,9.549A15.218,15.218,0,0,0,927.872,257.573Z" transform="translate(154.653 22.716)"/></g></svg>