<svg xmlns="http://www.w3.org/2000/svg" xmlns:xlink="http://www.w3.org/1999/xlink" width="343.23" height="321.285" viewBox="0 0 343.23 321.285"><defs><style>.a,.b,.j{fill:none;}.b{stroke:#000;stroke-width:12.476px;}.b,.j{stroke-miterlimit:10;}.c{fill:#060606;}.d{fill:#ccc;}.e{opacity:0.18;}.f{clip-path:url(#a);}.g{fill:#edba49;}.h{opacity:0.3;}.i{opacity:0.5;}.j{stroke:#947dce;stroke-width:0.837px;}.k{opacity:0.2;}.l{fill:#d8a35d;}.m{fill:#62548a;}.n{fill:#d19442;}.o{fill:#ffc84f;}.p{fill:#947dce;}.q{opacity:0.15;}.r{opacity:0.1;}</style><clipPath id="a"><path class="a" d="M1148.96,5693.068s-.7-15.712,1.15-17.9,63.955-15.648,63.955-15.648l17.821,14.35Z"/></clipPath></defs><g transform="translate(-981.271 -5498.764)"><line class="b" y2="100.112" transform="translate(1267.251 5714.421)"/><ellipse class="c" cx="23.542" cy="4.938" rx="23.542" ry="4.938" transform="translate(1243.709 5810.174)"/><path class="d" d="M1321.731,5671.591c-4.656,14.779-14.879,27.5-27.739,36.005a58.8,58.8,0,0,1-12.446,6.226c-12.1,4.417-25.373,5.18-38.355,4.755-1.9-.061-23.62-.874-24.228-5.856-.741-6.054,30.1-14.8,55.876-21.159,11.528-10.1,16.62-20.132,19.075-26.606.885-2.339,2.721-7.625,5.131-29.271.995-8.962,1.653-16.792,2.1-23.084q.2-2.886.348-5.33C1322.195,5620.646,1328.885,5648.85,1321.731,5671.591Z"/><path class="e" d="M1267.008,5698.462s-.051.038-.151.109c-1.662,1.18-13.674,11.387-39.073,12.358-26.936,1.03,55.194-38.505,55.194-38.505Z"/><g class="f"><path class="g" d="M1272.088,5700.231s-.033,0-.084,0c-1.141.029-14.218.3-31.365.6-33.839.579-81.845,7.8-96.18,13.153-3.094,1.158-1.962-48.887-1.962-48.887,34.769-2.7,96.084-3.726,98.658-6.172,2.746-2.6,19.694-2.295,23.792-2.181.569.014.892.026.892.026l.029.24,3.129,29.328c.008.052.01.074.01.074C1269.993,5694.033,1271.036,5699.36,1272.088,5700.231Z"/><g class="h"><path class="i" d="M1272.088,5700.231s-.033,0-.084,0c-1.141.029-14.218.3-31.365.6a9.012,9.012,0,0,1,.047-1.264,9.78,9.78,0,0,1,3.8-6.622,20.223,20.223,0,0,1,4.694-2.809c10.995-7.179,14.59-23.322,15.769-33.392.569.014.892.026.892.026l.029.24c.849,12.28,2.967,28.109,3.129,29.328.008.052.01.074.01.074C1269.993,5694.033,1271.036,5699.36,1272.088,5700.231Z"/></g><line class="j" x1="125.141" y2="6.789" transform="translate(1142.328 5669.873)"/><line class="j" y1="8.61" x2="126.061" transform="translate(1142.316 5681.128)"/><line class="j" x1="126.547" y2="11.884" transform="translate(1142.645 5692.196)"/><path class="j" d="M1258.293,5700.5"/><path class="j" d="M1241.154,5658.923"/><path class="j" d="M1242.735,5658.537s-4.345,22.879,2.172,42.214"/><path class="j" d="M1231.352,5660.4s-6.673,9.916,1.133,41.265"/><path class="j" d="M1220.288,5661.464s-4.866,13.583,1.729,40.218"/><path class="j" d="M1207.941,5661.728s-4.324,20.739,3,40.77"/><path class="j" d="M1197.719,5662.187s-6.9,20.359,3.054,41.456"/><path class="j" d="M1186.5,5662.68s-4.891,19.259,3.118,42.333"/><path class="j" d="M1175.717,5663.169s-5.6,16.343,3.2,43.377"/><path class="j" d="M1166.2,5663.87s-7.837,19.491,2.286,44.407"/><path class="j" d="M1154.272,5664.294a91.47,91.47,0,0,0,2.9,46.22"/><path class="k" d="M1147.948,5695.855s-1.912-9.471,4.484-10.522,34.168-7.068,39.723-10.308,17.726-17.492,17.726-17.492l33.887,12.443s-38.652,18.7-40.735,19.28S1147.948,5695.855,1147.948,5695.855Z"/></g><path class="l" d="M1135.345,5705.439s-37.984,97.526-42.653,97.442c-8.4-.1-40.432-2.441-8.917,8.809,15.286,7.835,15.673,3.821,17.223.956,1.266-2.341,11.134-19.994,14.7-26.376.8-1.429,36.732-74.974,36.732-74.974Z"/><path class="m" d="M1107.064,5802.7c.705-1.513-13.365-3.733-15.038-2.85s-22.911.058-24.556,6.842,31.009,11.3,33.273,11.842S1105.68,5805.676,1107.064,5802.7Z"/><path class="l" d="M1166.691,5712.222s41.591,69.637,52.346,89.647c-.695,3.461-.828,3.832-1.438,4.009-8.053,2.38-39.352,9.6-5.921,11.048,16.918,2.974,16.1-.975,16.739-4.169.243-1.227.772-4.535,1.986-10.249-2.064-6.761-46.045-94.221-46.045-94.221Z"/><path class="m" d="M1231.378,5801.118c.261-1.648-13.876.095-15.241,1.4s-22.008,6.37-21.719,13.345,32.923,2.319,35.248,2.213S1230.866,5804.357,1231.378,5801.118Z"/><path class="n" d="M1188.421,5524.058s8.574,9.3,17.21,8.39-9.993,11.054-9.993,11.054-4.782-9.683-10.008-13.206S1188.421,5524.058,1188.421,5524.058Z"/><path class="l" d="M1137.225,5702.1c4.354-5.236,97.485-37.733,97.485-37.733l37.015,28.548s-121.314,18.729-122.765,21.632S1132.87,5707.341,1137.225,5702.1Z"/><path class="o" d="M1288.371,5695.064s-.032.009-.081.02c-1.1.323-36.365,6.8-52.85,11.533-32.534,9.325-77.032,28.73-89.491,37.617-2.689,1.92-14.557-46.711-14.557-46.711,32.883-11.611,91.84-28.486,93.693-31.515,1.977-3.225,18.427-7.317,22.415-8.269.553-.135.868-.206.868-.206l.089.225,10.619,27.516c.022.048.029.069.029.069C1262.032,5692.453,1287.129,5694.5,1288.371,5695.064Z"/><g class="h"><path class="i" d="M1288.371,5695.064s-.032.009-.081.02c-1.1.323-36.365,6.8-52.85,11.533a9.222,9.222,0,0,1-.282-1.233,9.783,9.783,0,0,1,1.953-7.38,20.268,20.268,0,0,1,3.806-3.929c8.761-9.781,8.052-26.3,6.583-36.336.553-.135.868-.206.868-.206l.089.225c4,11.64,10.147,26.38,10.619,27.516.022.048.029.069.029.069C1262.032,5692.453,1287.129,5694.5,1288.371,5695.064Z"/></g><line class="j" x1="119.112" y2="38.971" transform="translate(1134.225 5669.77)"/><line class="j" y1="40.968" x2="119.529" transform="translate(1137.601 5680.406)"/><path class="j" d="M1274.541,5691.13l-10.992,1.8a155.45,155.45,0,0,0-28.937,7.673l-92.979,34.535"/><path class="j" d="M1252.409,5701.734"/><path class="j" d="M1225.084,5666.01"/><path class="j" d="M1226.511,5665.228s1.729,23.223,13.032,40.211"/><path class="j" d="M1216,5669.976s-3.877,11.306,11.782,39.564"/><path class="j" d="M1205.588,5673.868s-1.182,14.38,12.088,38.4"/><path class="j" d="M1193.73,5677.322s1.2,21.151,13.461,38.6"/><path class="j" d="M1183.976,5680.413s-1.387,21.451,13.688,39.25"/><path class="j" d="M1173.264,5683.8s.265,19.869,13.977,40.081"/><path class="j" d="M1162.98,5687.06s-1.172,17.235,14.322,41.07"/><path class="j" d="M1153.97,5690.2s-2.521,20.856,13.71,42.3"/><path class="j" d="M1142.558,5693.7a91.482,91.482,0,0,0,14.767,43.893"/><path class="l" d="M1080.32,5629.477a67.289,67.289,0,0,0-35.682,14.809l31.507.994a9.645,9.645,0,0,1,2.485-3.777,10.061,10.061,0,0,1,6.56-2.584Z"/><path class="o" d="M1178.429,5513.122s13.773,17.637,15.236-.669C1194.822,5497.973,1169.034,5500.562,1178.429,5513.122Z"/><path class="o" d="M1182.667,5510.4s-6.2-.05-10.119,2.248c-1.187.695-2.8.471-3.166,1.961,0,0,4.475-15.705,14.688-11.9s12.771,4.984,3.838,23.547C1187.908,5526.257,1192.305,5512.143,1182.667,5510.4Z"/><path class="o" d="M1176.247,5501.238s4.719-4.949,12.653-.848c5.394,2.789,6.678,7.583,6.126,11.08s.49,5.422,1.28,5.757c0,0-3.378,1.364-3.832.238,0,0,.789,1.915-3.305,6.593a5.248,5.248,0,0,0-1.941-6.355C1183.612,5515.235,1176.247,5501.238,1176.247,5501.238Z"/><path class="l" d="M1169.983,5513.023a17.063,17.063,0,0,1,1.69,5.405,26.4,26.4,0,0,1-.13,6.335c-.133,1.381-.3,2.524-.431,3.322l3.583.721a8.143,8.143,0,0,0,3.3,4.458c7.511,5.294,14.667-6.736,10.713-13.045.047.074.963-.73,1.017-.789a3.39,3.39,0,0,0,.913-2.021,1.708,1.708,0,0,0-.233-1.037,2.014,2.014,0,0,0-1.539-.795c-1.276-.126-1.459.835-1.992,1.744-.64-.848.311-4.329-.329-5.177a6.3,6.3,0,0,1-3.413-.26c-1.826-.71-2.135-1.972-4.663-3.864-1.638-1.226-3.118-2.8-4.073-2.388-1.157.5-2.167,1.17-3.74,3.347C1169.857,5510.088,1170.608,5512.661,1169.983,5513.023Z"/><path class="o" d="M1180.1,5501.181s-1.911-3.039-6.254-.91a6.9,6.9,0,0,0-2.751,2.6,11.7,11.7,0,0,1-4.691,3.93s.568,1.073,2.462.756c-.784.131-1.03,3.308-1.065,3.827-.128,1.942.189,4.9,1.852,6.187.542-2.253.61-4.348,1.716-6.5a18.574,18.574,0,0,1,4.553-5.361C1176.216,5505.458,1180.18,5501.306,1180.1,5501.181Z"/><path class="p" d="M1287.875,5707.434c-7.532,3.01-24.8-7.181-59.359-27.562-14-8.253-25.073-15.338-38.417-14.655-1.14.057-2.28.171-3.457.342a38.086,38.086,0,0,0-5.4,1.216,43.854,43.854,0,0,0-13.173,6.734c-.028-.39-.047-.789-.076-1.2-.427-6.753-.826-15.348-.978-25.311-.019-1.453-.038-2.972-.047-4.549-.39-28.606-.181-74.735,16.43-88.744a90.241,90.241,0,0,0,9.754-9.2c.978-1.083,1.995-2.251,3.02-3.514a86.793,86.793,0,0,0,7.95-11.663c.455.086.93.181,1.405.276a116.732,116.732,0,0,1,42.6,17.741c43.033,29.29,50.175,77.983,51.942,90.121C1303.109,5658.208,1304.676,5700.719,1287.875,5707.434Z"/><path class="q" d="M1204.863,5656.47a92.878,92.878,0,0,0-14.759,8.747c-1.14.057-2.289.171-3.467.342a37.947,37.947,0,0,0-5.385,1.216c-.285-5.622-.532-12.176-.636-19.451-.019-1.453-.038-2.972-.057-4.549,14.882-25.073,45.948-73.548,49.538-47.924C1234.836,5628.7,1222.357,5648.122,1204.863,5656.47Z"/><path class="p" d="M1076.586,5627.74c-.185,1.359,1.274,1.995,3.71,7.421a49.924,49.924,0,0,1,2.651,7.421c12.875.769,23.541,13.548,30.875,17.87,12.858,7.578,33.368,17.116,54.6,12.722,12.153-2.515,20.145-8.907,30.215-16.963a130.936,130.936,0,0,0,32.865-39.226c.792-2.64,10.742-37.771-11.132-60.43-2.868-2.972-10.24-10.609-19.613-11.662-21.335-2.4-47.977,29.881-63.08,81.1-7.857-2.044-16.819-3.7-32.48-4.748C1090.232,5621.14,1082.153,5622.525,1076.586,5627.74Z"/><path d="M981.271,5581.57l2.584-1.391,35.582,63.412-.994,3.181Z"/><path d="M1090.8,5646.771v-3.181h-71.363l-.994,3.181Z"/><path class="q" d="M1205.532,5529.6a8.117,8.117,0,0,1-1.168,3.267c-1.595,2.156-1.2,7.987-2.194,9.773s-.389,3.58-6.5,2.317c-.921-.19-1.757-.342-2.517-.456.978-1.083,1.995-2.251,3.02-3.514a86.793,86.793,0,0,0,7.95-11.663C1204.582,5529.414,1205.057,5529.509,1205.532,5529.6Z"/><path class="d" d="M1262.818,5701.55s20.949-17.532,24.026-23.271,10.484-22.172,10.484-22.172l5.323-16.2,6.058,36.386-7.833,19.9-6.191,6.464-6.972,6.264-9.6-.421Z"/><path class="c" d="M1224.509,5711.087c5.25-.154,31.827-1.09,52.065-23,26.175-28.34,23.254-74,22.907-78.651-.239-1.546.456-2.81,1.211-2.991.837-.2,2.248.808,2.5,2.69.368,4.285,4.092,54.364-24.447,80.986C1256.311,5711.045,1229.46,5711.229,1224.509,5711.087Z"/><path class="r" d="M1321.731,5671.591c-4.656,14.779-14.879,27.5-27.739,36.005a58.8,58.8,0,0,1-12.446,6.226c9.742-7.36,18.765-15.874,25.555-25.473,11.451-16.183,16.045-37.968,7.857-56.578a57.3,57.3,0,0,0-13.817-19.17q.2-2.886.348-5.33C1322.195,5620.646,1328.885,5648.85,1321.731,5671.591Z"/></g></svg>