<svg xmlns="http://www.w3.org/2000/svg" width="335.448" height="466.44" viewBox="0 0 335.448 466.44">
    <defs>
        <style>
            .a,.e{fill:#393938;}.a{opacity:0.1;}.b{fill:#947dce;}.c{fill:#574a7a;}.d{fill:#5f5085;}.e{opacity:0.2;}.f{fill:#827d94;}.g{fill:#d5d2da;}.h{fill:#ececec;}.i{fill:#ff9100;}.j{fill:#eee;}.k{fill:#ffc84f;}.l{fill:#bdbdbd;}.m{fill:#0060ac;}.n{fill:#848484;}.o{fill:#004c88;}.p,.q{fill:#323232;}.q{font-size:9px;font-family:BPGArial,
            BPG
            Arial;}.r{fill:#fff;}.s{fill:#00a19b;}.t{fill:#00cac5;}.u{fill:#00716b;}.v{fill:#bd6600;}.w{fill:#007f7a;}.x{fill:#bb7613;}.y{fill:#006560;}.z{fill:#a95b00;}.aa{fill:#00726d;}.ab{fill:#a8690f;}.ac{fill:#803e00;}.ad{fill:#a594ce;}.ae{fill:#a0a0ad;}.af{fill:#858594;}
        </style>
    </defs>
    <g transform="translate(-3915.912 -322.366)">
        <ellipse class="a" cx="167.724" cy="20.636" rx="167.724" ry="20.636" transform="translate(3915.912 747.533)"/>
        <g transform="translate(3933.082 374.252)">
            <path class="b"
                  d="M4210.061,524.975l-4-4.429-3.921-4.364-17.125-19.057-22.471-25.015s-32.064-36.417-57.513-64.01c-11.731-12.72-39.352-12.074-50.215,0s-89.857,99.994-89.857,99.994l-1.8,2.007-2.122,2.358-33.387,37.163-.03.015H4232.21Z"
                  transform="translate(-3927.618 -338.602)"/>
            <rect class="c" width="304.591" height="182.882" transform="translate(0 211.035)"/>
            <path class="d" d="M4081.458,637.648,3927.621,501.662h304.591Z" transform="translate(-3927.621 -290.627)"/>
            <path class="e" d="M4192.127,641.067l-193.44,34.108L3963.6,476.2l193.441-34.109,35.084,198.977"
                  transform="translate(-3910.839 -318.412)"/>
            <g transform="translate(92.078)">
                <path class="f"
                      d="M4038.041,505.412c-.952,0-1.892-.045-2.812-.138-1-.107-2-.246-2.967-.446a25.4,25.4,0,0,1-3.259-.845l-.015-.016c-.492-.154-1-.337-1.475-.538a24.816,24.816,0,0,1-4.228-2.044c-.415-.23-.814-.477-1.214-.738a30.946,30.946,0,0,1-3.72-2.89l-.061-.045c-.324-.308-.662-.645-1-.984l-.075-.092c-.292-.306-.6-.6-.861-.922a12.091,12.091,0,0,1-.908-1.046c-.214-.261-.431-.538-.629-.8-.308-.4-.616-.814-.894-1.245-.213-.323-.416-.631-.613-.953-.2-.306-.4-.645-.583-.968v-.016q-.3-.484-.553-.968c-.37-.677-.679-1.368-.984-2.075-.155-.339-.293-.692-.415-1.046a8.261,8.261,0,0,1-.355-.938l-.091-.321a9.251,9.251,0,0,1-.293-.922,27.541,27.541,0,0,1-.768-3.414c-.078-.368-.122-.752-.169-1.153-.107-.783-.171-1.582-.2-2.381-.015-.4-.015-.8-.015-1.2v-88.7a15.1,15.1,0,1,0-6.655.018v88.678c0,.892.029,1.8.091,2.675v.107c.062.661.14,1.337.216,1.984.092.66.2,1.321.322,1.952q.256,1.313.6,2.582c.216.83.462,1.644.756,2.443l.031.123c.136.384.292.785.445,1.153.153.4.323.8.491,1.2a29.616,29.616,0,0,0,1.907,3.751c.168.276.322.553.491.83A24.77,24.77,0,0,0,4009,497.2c.2.277.415.553.614.83l.308.384c.214.277.431.538.661.815.613.736,1.289,1.461,1.968,2.151l.046.062c.4.4.814.8,1.229,1.169s.846.768,1.292,1.136c.738.616,1.506,1.216,2.307,1.783a7.735,7.735,0,0,0,.769.507c.491.339,1.012.676,1.519.969.34.2.677.4,1,.6l.047.016c.491.277.984.522,1.506.785.522.246,1.031.475,1.567.721,1.076.462,2.214.877,3.336,1.245a33.829,33.829,0,0,0,3.949,1.015c.556.107,1.122.216,1.69.292a34.507,34.507,0,0,0,5.228.384h.023v-6.656Zm-40.4-132.556a7.875,7.875,0,1,1,7.875,7.876A7.884,7.884,0,0,1,3997.644,372.856Z"
                      transform="translate(-3990.412 -357.749)"/>
                <path class="g"
                      d="M4033.281,508.935v-3.524h-.023c-.952,0-1.892-.045-2.812-.138-1-.107-2-.246-2.967-.446a25.4,25.4,0,0,1-3.259-.845l-.015-.016c-.492-.154-1-.337-1.475-.538a24.816,24.816,0,0,1-4.228-2.044c-.415-.23-.814-.477-1.214-.738a30.946,30.946,0,0,1-3.72-2.89l-.061-.045c-.324-.308-.662-.645-1-.984l-.075-.092c-.292-.306-.6-.6-.861-.922a12.091,12.091,0,0,1-.908-1.046c-.214-.261-.431-.538-.629-.8-.308-.4-.616-.814-.894-1.245-.213-.323-.416-.631-.613-.953-.2-.306-.4-.645-.583-.968v-.016q-.3-.484-.553-.968c-.37-.677-.679-1.368-.984-2.075-.155-.339-.293-.692-.415-1.046a8.261,8.261,0,0,1-.355-.938l-.091-.321a9.251,9.251,0,0,1-.293-.922,27.541,27.541,0,0,1-.768-3.414c-.078-.368-.122-.752-.169-1.153-.107-.783-.171-1.582-.2-2.381-.015-.4-.015-.8-.015-1.2v-88.7a15.1,15.1,0,0,0-3.362-29.824c-.024,0-.046,0-.069,0v7.235c.023,0,.045-.007.069-.007a7.875,7.875,0,0,1,0,15.751c-.024,0-.046-.007-.069-.007v98.306C4000.667,503.687,4033.281,508.935,4033.281,508.935Z"
                      transform="translate(-3985.629 -357.749)"/>
            </g>
            <g transform="translate(39.574 106.913)">
                <path class="h" d="M4183.133,629.634l-193.44,34.109-35.085-198.977,193.441-34.109,35.084,198.977"
                      transform="translate(-3954.608 -430.657)"/>
                <path class="i"
                      d="M4065.294,475.781a30.391,30.391,0,1,1-35.207-24.652,30.393,30.393,0,0,1,35.207,24.652"
                      transform="translate(-3931.119 -421.326)"/>
                <path class="h"
                      d="M4063.309,475.562a28.868,28.868,0,1,1-33.441-23.417,28.871,28.871,0,0,1,33.441,23.417"
                      transform="translate(-3930.634 -420.842)"/>
                <path class="j" d="M4135.164,532.228l-147.453,26-4.005-22.711,147.454-26,4,22.712"
                      transform="translate(-3941.036 -393.877)"/>
                <g transform="translate(37.728 87.619)">
                    <path class="h" d="M3987.711,558.228l1.775-.314,145.677-25.686-3.69-20.935-.313-1.776-147.454,26Z"
                          transform="translate(-3978.764 -481.495)"/>
                    <path class="h" d="M3980.336,516.407l4,22.711,1.775-.311,145.677-25.688-3.691-20.935-.312-1.775Z"
                          transform="translate(-3980.336 -490.408)"/>
                    <path class="k"
                          d="M3980.336,516.407l4,22.71,1.776-.311,145.677-25.689-3.691-20.934-.312-1.776Zm149.368-4.753-143.9,25.373-3.378-19.159,143.9-25.373Z"
                          transform="translate(-3980.336 -490.408)"/>
                    <path class="k"
                          d="M3987.711,558.229l1.775-.314,145.677-25.687-3.69-20.934-.313-1.777-147.454,26Zm-1.917-21.25,143.9-25.372,3.378,19.16-143.9,25.372Z"
                          transform="translate(-3978.764 -481.496)"/>
                </g>
                <path class="l" d="M4087.634,528.656l0-.028.027-.005-.023.033"
                      transform="translate(-3892.565 -384.965)"/>
                <path class="m" d="M3989.852,561.951l-.045.008.249-.358.023.017-.227.333"
                      transform="translate(-3938.191 -369.584)"/>
                <path class="n" d="M3989.815,561.894l-.008-.047.045-.008-.037.055"
                      transform="translate(-3938.191 -369.473)"/>
                <path class="o" d="M3990.367,561.851l-.529.094.227-.333.3.239"
                      transform="translate(-3938.176 -369.579)"/>
                <path class="k"
                      d="M4050.12,485.725c-.194-.016-.387-.035-.583-.053-.278-.056-.569-.125-.876-.183l-.087-.019c-.472-.109-.95-.207-1.452-.3l0-.007a26.351,26.351,0,0,1-4.285-1.172c-.279-.107-.551-.217-.814-.333a8.89,8.89,0,0,1-3.261-2.247l-.078-.092a5.21,5.21,0,0,1-.4-.563,4.057,4.057,0,0,1-.475-1.244,13.344,13.344,0,1,0-11.456,2.556c0,.028.007.053.007.079l0,.018a4.1,4.1,0,0,1-.057.661l-.019.088a4.428,4.428,0,0,1-.148.548l-.136.355a9.081,9.081,0,0,1-2.22,3.056c-.209.2-.425.4-.651.592-.446.381-.919.743-1.4,1.1l-.214.158c-.462.326-.936.642-1.407.934-.2.13-.4.264-.608.384-.755.447-1.465.9-2.1,1.3-.175.082-.352.167-.528.249a15.952,15.952,0,0,0-3.563,2.288c5.733,6.819,14.083,10.5,22.561,9.008,8.521-1.5,15.13-7.876,18.157-16.309A16.048,16.048,0,0,0,4050.12,485.725Z"
                      transform="translate(-3927.229 -418.945)"/>
                <path class="p"
                      d="M4026.82,472.05a.914.914,0,0,1-1.056-.739l-2.107-11.956a.91.91,0,0,1,1.793-.315l2.108,11.954a.914.914,0,0,1-.739,1.056"
                      transform="translate(-3922.409 -417.77)"/>
                <text class="q" transform="translate(51.827 125.251) rotate(-10)">
                    <tspan x="0" y="0">შეიყვანეთ თქვენი მეილი</tspan>
                    <tspan x="0" y="28">პაროლი...</tspan>
                </text>
                <path class="i"
                      d="M4132.679,552.526l-135.895,23.961a5.607,5.607,0,0,1-6.476-4.536l-1.707-9.677a5.606,5.606,0,0,1,4.536-6.476l135.894-23.963a5.608,5.608,0,0,1,6.477,4.534l1.705,9.678A5.608,5.608,0,0,1,4132.679,552.526Z"
                      transform="translate(-3938.792 -383.506)"/>
                <g transform="translate(103.565 163.488)">
                    <path class="r"
                          d="M4025.392,547.521l-.159-.893q1.369-.24,1.863.482a1.328,1.328,0,0,1,1.013-.988,1.473,1.473,0,0,1,1.906,1.274l.757,4.3q.451,2.91-1.691,3.393-2.175.277-2.739-2.619-.456-2.791,1.7-3.3a2.494,2.494,0,0,1,1.284.153l-.309-1.755q-.223-.642-.751-.548-.656.114-.525,1.107l.091.521-.94.166-.092-.521Q4026.585,547.311,4025.392,547.521Zm1.917,4.778q.407,1.986,1.609,1.884,1.154-.306.859-2.318-.348-1.966-1.569-1.769Q4027.037,550.43,4027.308,552.3Z"
                          transform="translate(-4025.233 -540.31)"/>
                    <path class="r"
                          d="M4029.924,552.486a2.714,2.714,0,0,1,.389-1.786l.873.262a2.787,2.787,0,0,0-.267,1.349,1.257,1.257,0,1,0,2.452-.433l-.8-4.547a1.085,1.085,0,0,0-1.274-.9q-.921.279-.862.963a1.953,1.953,0,0,0,.6,1.113l-.645.581a2.022,2.022,0,0,1-.93-1.56q-.237-1.564,1.7-2.013a1.92,1.92,0,0,1,2.409,1.644l.8,4.549a2.257,2.257,0,1,1-4.44.781Z"
                          transform="translate(-4023.274 -540.59)"/>
                    <path class="r"
                          d="M4033.838,551.392l-1.1-6.215.967-.17,1.1,6.215q.293,1.59,1.542,1.535,1.148-.37.947-1.974a3.305,3.305,0,0,0-.963-1.971c-.456-.38-.488-1.054-.1-2.016l.9.373a.934.934,0,0,0,.146,1.422,3.323,3.323,0,0,1,.983,2.021q.38,2.508-1.771,3.052Q4034.276,553.888,4033.838,551.392Z"
                          transform="translate(-4021.731 -540.812)"/>
                    <path class="r"
                          d="M4037.349,551.185a2.763,2.763,0,0,1,.142-1.44l.968.191a1.821,1.821,0,0,0-.116,1.075q.336,1.287,1.474,1.191a1.23,1.23,0,0,0,1.016-1.409l-.192-1.085a1.149,1.149,0,0,0-1.295-1l-.77.136-.157-.893.77-.136q1.066-.293.777-1.94a1.03,1.03,0,0,0-1.291-.713c-.67.147-1,.462-.981.944a1.664,1.664,0,0,0,.243.749l-.725.428a2.121,2.121,0,0,1-.513-1q-.182-1.648,1.818-2.054,2.019-.3,2.439,1.455a2.237,2.237,0,0,1-.728,2.351,2.15,2.15,0,0,1,1.425,1.6l.173.978a2.068,2.068,0,0,1-1.853,2.484A2.161,2.161,0,0,1,4037.349,551.185Z"
                          transform="translate(-4019.891 -541.193)"/>
                    <path class="r"
                          d="M4040.488,547.96q-.63-3.506,1.576-4.008a1.834,1.834,0,0,1,1.943.78,1.62,1.62,0,0,1,1.346-1.361,1.662,1.662,0,0,1,1.752.815,1.781,1.781,0,0,1,1.525-1.393q2.241-.284,2.675,2.565.324,2.771-1.038,4l-.571-.721a4.158,4.158,0,0,0,.616-3.1q-.339-1.912-1.517-1.815-1.211.214-.878,2.173l.309,1.748-.994.175-.31-1.748q-.343-1.958-1.406-1.77t-.711,2.142l.308,1.749-.994.176-.309-1.749q-.354-1.956-1.578-1.739-1.206.323-.749,2.909,1.1,4.307,6.622,3.324l1.151-.2.158.892-1.152.2Q4041.855,553.134,4040.488,547.96Z"
                          transform="translate(-4018.183 -541.856)"/>
                    <path class="r"
                          d="M4048.8,548.43l.1-1.242.959.129-.06.915q.412,1.988,1.606,1.884,1.143-.308.851-2.323a6,6,0,0,0-1.618-3.041,3.622,3.622,0,0,1-1.539-2.434l.968-.172a3.761,3.761,0,0,0,1.537,2.263,6.445,6.445,0,0,1,1.646,3.208q.453,2.919-1.679,3.4Q4049.369,551.3,4048.8,548.43Z"
                          transform="translate(-4014.241 -542.146)"/>
                </g>
            </g>
            <path class="s" d="M3927.648,502.165h0l.451-.5-.45.5" transform="translate(-3927.608 -290.627)"/>
            <path class="t" d="M4008.6,411.613V411.6l.015-.016v.016l-.015.017"
                  transform="translate(-3889.852 -332.642)"/>
            <path class="u" d="M3927.631,502.026h-.01l.008,0h0l0,0m0,0h0m.013-.013,0,0h0l-.006,0"
                  transform="translate(-3927.621 -290.467)"/>
            <path class="v" d="M3927.626,502.018h0l0,0h.008l-.006,0" transform="translate(-3927.618 -290.462)"/>
            <path class="w" d="M3927.63,502.021h0l.012-.013.006,0h.009l0,0-.024.013"
                  transform="translate(-3927.617 -290.467)"/>
            <path class="x" d="M3927.637,502.02h-.007l.024-.013-.006.009-.011,0"
                  transform="translate(-3927.617 -290.467)"/>
            <path class="y" d="M3928.8,502.019h-1.171l0,0h1.167v0" transform="translate(-3927.617 -290.462)"/>
            <path class="z" d="M3928.8,502.018h-1.173l.013,0h1.157l0,0" transform="translate(-3927.618 -290.462)"/>
            <path class="aa" d="M3927.646,502.007l0,0h0l0,0h0" transform="translate(-3927.609 -290.467)"/>
            <path class="ab" d="M3928.791,502.021h-1.157l.011,0,.006-.009h0l0,0h1.122l.015.015"
                  transform="translate(-3927.614 -290.467)"/>
            <path class="u" d="M4157.665,626.7h-68.047l-2.174-.007h70.221v.007"
                  transform="translate(-3853.079 -232.786)"/>
            <path class="ac" d="M4031.648,618.181l-.007-.006h0l-.521-.576.521.576.613-.67.006,0h0l-.615.68"
                  transform="translate(-3879.348 -236.6)"/>
            <path class="b"
                  d="M4232.207,502.063V684.351H3927.621V502.063l.819.894,28.541,31.855.038.057.3.335,1.99,2.194.02.019,3.758,4.222.019.02v.019l50.07,55.858,12.913,14.4.577.65.019.037h.018l.3.335.241.261.057.074h.019l.037.057,10.884,12.147,7.257,8.113h.019l4.67,5.229,2.419,2.715h.019l2.679,3,2.475,2.771h.019l8.857,9.9.78.874.186.2,3.014,3.367h.019l2.457,2.773h.019l6.028,6.755.242.242.521.576.613-.67,5.117-5.712,6.755-7.535,11.944-13.323L4132.5,613.35l.315-.373h.018v-.02l.3-.335.613-.687,38.312-42.74,24.671-27.537,3.8-4.261,9.58-10.7,21.3-23.742.8-.894"
                  transform="translate(-3927.62 -290.44)"/>
            <path class="ad"
                  d="M4231.057,653.459H3928.611l20.856-13.814,15.425-10.222s57.8-37.19,74.5-49.081c21.933-15.625,53.459-15.988,77.69-1.443,36.393,21.848,77.675,50.524,77.675,50.524l36.3,24.036Z"
                  transform="translate(-3927.159 -259.548)"/>
            <path class="b"
                  d="M4231.057,644.809H3928.611l20.856-9.4,15.425-6.958s57.8-25.315,74.5-33.408c21.933-10.636,53.459-10.884,77.69-.982,36.393,14.872,77.675,34.39,77.675,34.39l36.3,16.361Z"
                  transform="translate(-3927.159 -250.899)"/>
            <g transform="translate(141.952 99.336)">
                <path class="g"
                      d="M4061,430.778V425.49c-2.9,14.331-22.326,24.6-22.326,24.6l-.018.018,15.706-2.227a28.666,28.666,0,0,1-1.382,8.819c-.116.4-.265.8-.4,1.182v.016a28.75,28.75,0,0,1-3.412,6.539c-.2.283-.417.566-.616.849v.016a29.443,29.443,0,0,1-3.309,3.711,28.9,28.9,0,0,1-20.033,8.018c-.258,0-.526-.006-.791-.012l1.279,6.653a35.831,35.831,0,0,0,35.317-35.792Z"
                      transform="translate(-4024.423 -425.49)"/>
                <path class="f"
                      d="M4061,425.49c-2.9,14.331-22.326,24.6-22.326,24.6l-.018.018,15.706-2.227a28.666,28.666,0,0,1-1.382,8.819c-.116.4-.265.8-.4,1.182v.016a28.75,28.75,0,0,1-3.412,6.539c-.2.283-.417.566-.616.849v.016a29.443,29.443,0,0,1-3.309,3.711,28.9,28.9,0,0,1-20.033,8.018c-.258,0-.526-.006-.791-.012l.6,3.109c5.673.063,14.054.443,24.767-10.3,11.271-11.309,5.9-28.388,7.508-30.822S4061,425.49,4061,425.49Z"
                      transform="translate(-4024.423 -425.49)"/>
            </g>
        </g>
        <g transform="translate(4035.192 322.366)">
            <rect class="ae" width="10.009" height="64.724"/>
            <rect class="af" width="5.004" height="64.724" transform="translate(5.005)"/>
        </g>
    </g>
</svg>
