<svg xmlns="http://www.w3.org/2000/svg" width="287" height="239.897" viewBox="0 0 287 239.897">
    <defs>
        <style>
            .a{fill:#ffc84f;}.b{opacity:0.3;}.c{fill:#947dce;}.d{opacity:0.15;}.e{fill:#62548a;}.f,.g,.j{fill:none;stroke:#947dce;stroke-miterlimit:10;}.f{stroke-width:0.516px;}.g{stroke-width:0.504px;}.h{fill:#999;}.i{fill:#ccc;}.j{stroke-width:0.397px;}.k{fill:#d19442;}.l{fill:#d8a35d;}
        </style>
    </defs>
    <g transform="translate(-1394.634 -5559.071)">
        <g transform="translate(1394.634 5613.631)">
            <path class="a"
                  d="M1533.817,5738.983s-91.606-63.628-130.355-26.94c-30.94,29.293,23.982,63.708,94.242,54.455,49.455-6.514,55.059,2.947,63.722,2.743,64.46-4.94,151.314-24.225,109.045-54.524-57.581-41.275-96.529,2.482-116.592,13.375Z"
                  transform="translate(-1394.634 -5589.369)"/>
            <path class="b"
                  d="M1650.025,5712.475c-24.077-4.968-115.8,29.044-115.8,29.044s-79.873-24.076-98.982-26.369-27.9,4.968-27.9,4.968,9.017-10.16,19.49-11.083,25.607-3.439,25.607-3.439,152.868-7.261,173.123-2.676S1650.025,5712.475,1650.025,5712.475Z"
                  transform="translate(-1392.403 -5588.656)"/>
            <path class="c"
                  d="M1521.815,5605.486a49.96,49.96,0,0,0-20.02,4.183c-17.363,7.589-49.7,23.547-50.223,31.34-.693,10.317,15.47,94.025,46.73,104.918a93.472,93.472,0,0,0,28.958,4.822,49.956,49.956,0,0,0,47.983-33.472c9.852-28.1,21.963-68.251,15.081-79.116-8.026-12.673-36.906-24.412-51.548-29.712a49.836,49.836,0,0,0-16.961-2.964Z"
                  transform="translate(-1384.646 -5605.486)"/>
            <path class="c"
                  d="M1476.677,5622.709c-53.947,28.907-67.2,81.1-52.928,92.6,10,8.061,47.695,25.89,80.368,24.744a532.969,532.969,0,0,1,63.36,1.93s56.051-11.4,67.23-28.2-19.835-71.364-47.644-87.135S1476.677,5622.709,1476.677,5622.709Z"
                  transform="translate(-1390.461 -5603.212)"/>
            <path class="d"
                  d="M1557.89,5647.476c15.286,8.153,28.608,39.047,28.608,39.047s-34.4,5.351-41.53,10.7,1.019-2.04,5.1-16.816S1557.89,5647.476,1557.89,5647.476Z"
                  transform="translate(-1368.749 -5598.119)"/>
            <path class="d"
                  d="M1470.211,5645.582c3.568,16.305,20.638,61.829,20.638,61.829s-15.811-18.008-32.612-19.026-23.037-1.274-22.93,2.8c.021.8,2.8-18.089,15.8-29.809S1470.211,5645.582,1470.211,5645.582Z"
                  transform="translate(-1387.496 -5598.451)"/>
            <path class="e"
                  d="M1534.5,5758.623s12.61-9.5,29.234-7.783,30.955,5.345,16.624,9.837-29.234,5.066-36.113,4.493A12.478,12.478,0,0,1,1534.5,5758.623Z"
                  transform="translate(-1370.091 -5580.017)"/>
        </g>
        <path class="f" d="M1429.149,5702.119s-42.481,11.795-26.472,34.246c12.864,18.043,66.328,16.164,94.53,15.439"
              transform="translate(0.779 25.101)"/>
        <path class="g" d="M1410.2,5715.656s31-1.5,55.211,10.73,68.666,17.311,68.666,17.311"
              transform="translate(2.731 27.466)"/>
        <path class="h"
              d="M1568.75,5745.1h-92.305a7.613,7.613,0,0,1-7.509-6.354l-11.129-66.427a7.612,7.612,0,0,1,7.508-8.872h114.566a7.612,7.612,0,0,1,7.508,8.872l-11.129,66.427A7.614,7.614,0,0,1,1568.75,5745.1Z"
              transform="translate(11.067 18.316)"/>
        <path class="i"
              d="M1568.75,5744.662h-92.305a7.539,7.539,0,0,1-7.509-6.125l-11.129-64.031a7.427,7.427,0,0,1,7.508-8.551h114.566a7.427,7.427,0,0,1,7.508,8.551l-11.129,64.031A7.539,7.539,0,0,1,1568.75,5744.662Z"
              transform="translate(11.067 18.755)"/>
        <path class="g"
              d="M1409.014,5744.731c11.878,5.412,30.206,10.378,55.563,8.168,49.776-4.338,66.179,6.128,66.179,6.128"
              transform="translate(2.523 32.58)"/>
        <path class="e"
              d="M1534.441,5756.367c-.552-.095-59.615-14.876-72.8-3.985s44.139,11.077,54.457,8.691S1534.441,5756.367,1534.441,5756.367Z"
              transform="translate(11.414 33.219)"/>
        <path class="j" d="M1568.12,5737.879s48.144-6.833,62.59-19.913" transform="translate(30.442 27.883)"/>
        <path class="j" d="M1569.384,5743.616s45.682-2.147,68.133-17.179" transform="translate(30.664 29.368)"/>
        <path class="j" d="M1579.042,5724.775s6.412,11.714,6.217,24.99" transform="translate(32.359 29.077)"/>
        <path class="j" d="M1589.646,5723.946s3.9,7.028,4.49,22.84" transform="translate(34.22 28.931)"/>
        <g transform="translate(1513.372 5559.071)">
            <path class="k"
                  d="M1509.135,5597.271s1.141,12.737-6.716,19.782,18.107,0,18.107,0-4.832-12.2-3.749-19.782S1509.135,5597.271,1509.135,5597.271Z"
                  transform="translate(-1494.718 -5552.959)"/>
            <ellipse class="l" cx="13.736" cy="18.741" rx="13.736" ry="18.741" transform="translate(4.825 11.769)"/>
            <g transform="translate(4.662 5.225)">
                <path class="a"
                      d="M1518.521,5578.043s-23.781,13.185-16.722-7.983C1506.681,5555.414,1534.739,5568.606,1518.521,5578.043Z"
                      transform="translate(-1499.459 -5563.516)"/>
                <path class="a"
                      d="M1515.227,5572.846s13.305,7.895,12.022,15.814c0,0,2.934-23.645-10.3-24.24s-18.351.683-17.176,25.686C1499.776,5590.106,1503.62,5570.217,1515.227,5572.846Z"
                      transform="translate(-1499.613 -5563.375)"/>
            </g>
            <path class="a"
                  d="M1518.225,5565.5s-.669-7.367-7.972-6.324-10.433,5.216-11.476,9.39-2.087,7.3-3.13,7.3c0,0,3.13,3.131,4.173,2.086,0,0-2.707,7.5.734,13.664,0,0,1.353-9.49,6.57-10.533S1518.225,5565.5,1518.225,5565.5Z"
                  transform="translate(-1495.647 -5559.071)"/>
            <path class="a"
                  d="M1514.286,5564.582s5.217-3.13,10.434,4.173l3.13,6.26s-1.044,1.043-3.13,0c0,0,.951,7.352-.046,11.5l-3.084-12.545Z"
                  transform="translate(-1492.376 -5558.22)"/>
        </g>
        <path class="c"
              d="M1506,5608.02s4.1,7.418,10.346,5.662,8.005-2.7,8.005-2.7,9.176,12.263,4.881,14.213-35.336,5.663-36.9-1.17,13.276-15.423,13.276-15.423"
              transform="translate(17.125 8.59)"/>
        <path class="j" d="M1435.592,5713.513s-21.056,20.586-7.1,46.2" transform="translate(5.103 27.101)"/>
        <path class="j" d="M1445.818,5715.773s-16,27.44-6.617,47.258" transform="translate(7.303 27.498)"/>
        <path class="b"
              d="M1519.064,5736.456l33.639,9.754s10.691,4.848,9.126.676-10.143-5.736-15.633-7.562S1519.064,5736.456,1519.064,5736.456Z"
              transform="translate(21.834 31.126)"/>
    </g>
</svg>
