<svg xmlns="http://www.w3.org/2000/svg" xmlns:xlink="http://www.w3.org/1999/xlink" width="352.702" height="334.514" viewBox="0 0 352.702 334.514"><defs><style>.a,.k{fill:none;}.b{fill:#b6d7db;opacity:0.49;}.c{clip-path:url(#a);}.d,.f{fill:#d8a35d;}.d{fill-rule:evenodd;}.e{fill:#947dce;}.g{fill:#62548a;}.h{fill:#ffc84f;}.i{opacity:0.3;}.j{opacity:0.5;}.k{stroke:#947dce;stroke-miterlimit:10;stroke-width:0.325px;}.l{fill:#d19442;}.m{opacity:0.15;}.n{fill:#999;}.o{fill:#ccc;}.p{fill:gray;}</style><clipPath id="a"><path class="a" d="M1495.78,6007.785c-67.607,5.2-109.053,92.419-122.468,141.744-2.438,8.966-29.405,112.442,18.141,149.683,18.535,14.52,29.487,4.165,96.389,17.011,57.066,10.958,60.105,20.6,99.788,23.814,36.126,2.923,77.808,6.292,104.326-18.145,44.657-41.155,14.582-131.953,11.34-141.745-22.156-66.894-73.493-102.885-111.131-129.273C1550.654,6021.771,1527.251,6005.363,1495.78,6007.785Z" transform="translate(-1363.5 -6007.55)"/></clipPath></defs><g transform="translate(-1363.5 -6007.55)"><path class="b" d="M1495.78,6007.785c-67.607,5.2-109.053,92.419-122.468,141.744-2.438,8.966-29.405,112.442,18.141,149.683,18.535,14.52,29.487,4.165,96.389,17.011,57.066,10.958,60.105,20.6,99.788,23.814,36.126,2.923,77.808,6.292,104.326-18.145,44.657-41.155,14.582-131.953,11.34-141.745-22.156-66.894-73.493-102.885-111.131-129.273C1550.654,6021.771,1527.251,6005.363,1495.78,6007.785Z" transform="translate(0 0)"/><g transform="translate(1363.5 6007.55)"><g class="c"><g transform="translate(19.239 84.846)"><g transform="translate(285.518 178.183)"><path class="d" d="M1481.272,6112.6s4.494-5.125,9.733-6.157c3.115-.612,3.01-1.4,3.535-1.654,1.742-.855.16,2.51-2.468,3.465-2.138.773-3.194,4.523-4.462,5.36s-5.1,2.438-6.1,1.966S1481.272,6112.6,1481.272,6112.6Z" transform="translate(-1467.456 -6104.647)"/><path class="d" d="M1476,6116.664c.956-.365,10.939-6.914,16.468-7.653s13.813-1.314,16.644-2.245c3.332-1.1,4.237.208.417,1.846a54.818,54.818,0,0,1-8.736,2.868c-.552.045,3.042-.588,6.938-1.564,4.142-1.038,8.625-2.4,8.861-1.665.463,1.424-11.437,5.162-13.547,5.479a53.459,53.459,0,0,0,5.561-.908c2.5-.55,5.358-1.564,5.946-1.062.929.789-5.34,3.55-10.578,4.5-.084.173,1.628.372,7.772-1.171.617-.157,2.216.053.214,1.078-4.21,2.163-5.862,3.4-12.074,3.849-6.057.441-12.805-.533-17.107,1.109Z" transform="translate(-1476.001 -6101.717)"/></g><path class="e" d="M1558.478,6184.465c-4.858,1.9-40.111,8.365-72.474,1.26-20.425-4.478-39.688-14.374-49.435-34.235-25.182-51.345,33.664-80.471,33.664-80.471a1.4,1.4,0,0,1,.089.14c2.549,3.855,57.405,86.152,95.465,99C1565.787,6170.154,1566.393,6181.361,1558.478,6184.465Z" transform="translate(-1268.58 -5983.933)"/><path class="f" d="M1405.668,6148.606s1.224,113.222-3.568,114.758c-8.6,2.806-42.1,11.529-6.047,12.083,18.318,2.691,17.321-1.541,17.909-5,.479-2.828,8.582-103.367,10.009-111.118.32-1.734.515-2.784.515-2.784Z" transform="translate(-1355.083 -5851.343)"/><path class="f" d="M1430.252,6145.662s8.1,112.508,12.935,113.908c8.68,2.565,42.411,10.345,6.382,11.908-18.234,3.207-17.356-1.05-18.041-4.493-.558-2.812-5.107-24.129-6.753-31.837-.368-1.725-13.981-88.891-13.981-88.891Z" transform="translate(-1301.917 -5856.374)"/><path class="g" d="M1417.58,6189.171c-.4-1.595,11.123-2.756,12.575-1.59s24.917,3.272,25.242,10.129-32.058,5.143-34.347,5.24S1418.366,6192.3,1417.58,6189.171Z" transform="translate(-1290.336 -5785.547)"/><g transform="translate(26.721 170.194)"><path class="h" d="M1487.734,6110.258a7.135,7.135,0,0,1-4.2,1.517c-9.5-.632-50.527-3.451-72.643-6.64-7.8-1.128-13.247-2.3-14.125-3.437a.828.828,0,0,0,0,.092c-.049,1.229-.552,15.313-1.146,33.78-1.173,36.456-9.395,88.107-15.135,103.507-1.238,3.324,50.107,2.543,50.107,2.543,3.362-37.437,5.464-103.488,8.013-106.238,3.1-3.345,2.652,54.876,3.682,103.712,19.7,6.992,51.9,6.545,51.708,4.448C1491.724,6218.625,1487.734,6110.258,1487.734,6110.258Z" transform="translate(-1380.466 -6101.698)"/><g class="i" transform="translate(15.157)"><path d="M1406.031,6104.48h.461S1406.329,6104.477,1406.031,6104.48Z" transform="translate(-1351.934 -6096.947)"/><path class="j" d="M1440.158,6109.231c-12.29-.077-38.827-4.1-38.827-4.1-7.8-1.128-13.247-2.3-14.125-3.437a.828.828,0,0,0,0,.092c-.049,1.229-.552,15.313-1.146,33.78a8.7,8.7,0,0,0,1.295-.04,10.019,10.019,0,0,0,6.856-4.031,22.26,22.26,0,0,0,2.964-5.032C1407.768,6109.93,1436.217,6109.244,1440.158,6109.231Z" transform="translate(-1386.061 -6101.698)"/></g><g transform="translate(10.147 3.188)"><line class="k" x2="1.301" y2="136.271" transform="translate(88.295 3.722)"/><line class="k" x2="1.406" y2="133.909" transform="translate(75.234 5.321)"/><line class="k" x1="0.675" y2="132.795" transform="translate(62.02 4.243)"/><line class="k" x1="2.624" y2="27.293" transform="translate(47.994 3.204)"/><line class="k" x1="9.097" y2="134.763" transform="translate(28.115 2.052)"/><line class="k" x1="10.98" y2="135.738" transform="translate(14.704 0.975)"/><line class="k" x1="14.346" y2="136.233"/></g><path class="k" d="M1478.315,6115.1s-73.084-2.822-92.022-7.912" transform="translate(-1370.508 -6092.325)"/><path class="k" d="M1401.929,6114.132c24.971,7.959,50.126.938,50.126.938" transform="translate(-1343.787 -6080.447)"/><path class="k" d="M1429.375,6115.214s-23.54,4.481-43.259-2.708" transform="translate(-1370.81 -6083.229)"/><path class="k" d="M1451.22,6118.175s-19.179,8.031-48.568.568" transform="translate(-1342.552 -6073.541)"/><path class="k" d="M1451.432,6122.576s-29.31,6.264-48.62.084" transform="translate(-1342.276 -6066.017)"/><path class="k" d="M1451.738,6126.95s-15.525,10.153-48.812,2.139" transform="translate(-1342.083 -6058.542)"/><path class="k" d="M1452.227,6132.31a71.028,71.028,0,0,1-49.238-.52" transform="translate(-1341.975 -6050.271)"/><path class="k" d="M1452.683,6136.594s-16.668,9.8-49.63.438" transform="translate(-1341.866 -6042.063)"/><path class="k" d="M1453.221,6142.655s-22.657,9.472-50.121-2.117" transform="translate(-1341.786 -6035.321)"/><path class="k" d="M1453.643,6145.73s-13.851,11.2-50.489-1.139" transform="translate(-1341.694 -6028.397)"/><path class="k" d="M1454.179,6150.162s-21.62,9.118-50.963-1.522" transform="translate(-1341.588 -6021.478)"/><path class="k" d="M1427.994,6119.024s-10.283,7.1-42.3-1.583" transform="translate(-1371.536 -6074.791)"/><path class="k" d="M1426.838,6123.822s-14.013,5.122-41.219-2.216" transform="translate(-1371.659 -6067.677)"/><path class="k" d="M1427,6129.6s-21.346,4.478-41.763-3.591" transform="translate(-1372.305 -6060.154)"/><path class="k" d="M1427.208,6133.7s-21,7.252-42.465-3.652" transform="translate(-1373.156 -6053.249)"/><path class="k" d="M1427.518,6138.21s-19.835,5.1-43.364-3.729" transform="translate(-1374.163 -6045.671)"/><path class="k" d="M1427.941,6142.553s-16.858,5.887-44.435-3.82" transform="translate(-1375.271 -6038.407)"/><path class="k" d="M1428.291,6145.727s-20.125,8.272-45.5-2.853" transform="translate(-1376.501 -6031.332)"/><path class="k" d="M1429.222,6150.891a89.433,89.433,0,0,1-47.354-3.523" transform="translate(-1378.072 -6023.649)"/></g><path class="l" d="M1430.68,6052.448s-2.148,10.564-10.2,14.358,14.628,4.371,14.628,4.371-.959-11.023,1.745-16.884S1430.68,6052.448,1430.68,6052.448Z" transform="translate(-1288.309 -6017.966)"/><ellipse class="f" cx="11.581" cy="15.8" rx="11.581" ry="15.8" transform="translate(130.852 13.047) rotate(-21.079)"/><path class="e" d="M1561.528,6215.175c-20.425-4.478-39.688-14.374-49.435-34.236-.035.053-.071.095-.105.149a5.221,5.221,0,0,0-.317.432.447.447,0,0,0-.068.1c-2.806,3.833-16.581,22.667-16.581,22.677-5,6.51-12.632,12.762-18.694,15.278-.4.175-.8.325-1.17.458-14.855,2.323-76.73-21.189-84.1-27.066-3.324-2.647-4.627-15.06-4.889-28.517-.336-16.405.853-34.394,1.723-38.186,1.479-6.361,30.692-76.723,76.53-72.272a47.149,47.149,0,0,1,11.927,2.8s.342.36.951.9a22.435,22.435,0,0,0,4.142,2.947,17.679,17.679,0,0,0,4.231,1.7,12.973,12.973,0,0,0,8.647-.7c2.866-1.285,9.235.219,16.969,4.537,10.738,5.991,24.137,17.418,34.471,34.306a1.426,1.426,0,0,1,.089.14,110.477,110.477,0,0,1,14.813,40.667A262.16,262.16,0,0,1,1561.528,6215.175Z" transform="translate(-1344.104 -6013.382)"/><path class="m" d="M1455.178,6112.192c-.032.055-.073.1-.108.15-.1.134-.211.277-.312.431-.027.029-.046.06-.075.1-2.807,3.836-16.573,22.676-16.576,22.685-5,6.5-12.632,12.762-18.7,15.272,6.894-11,27.6-42.69,31.386-56.816C1448.737,6108.1,1455.181,6112.185,1455.178,6112.192Z" transform="translate(-1287.192 -5944.641)"/><path class="m" d="M1422.389,6059.927c-.333.992,0,1.808,1.677,2.071,5.228.817,10.857,2.655,14.414,5.771a3.658,3.658,0,0,0,3.432.868c3.1-.754,6.109-4.869,7.366-6.713a1.535,1.535,0,0,0,.2-.429c-7.734-4.317-14.1-5.823-16.969-4.533a12.961,12.961,0,0,1-8.644.7A7.088,7.088,0,0,0,1422.389,6059.927Z" transform="translate(-1282.299 -6008.715)"/><g transform="translate(128.579)"><g transform="translate(3.675 3.082)"><path class="h" d="M1435.121,6050.291s-14.709,17.58-15.576-1.212C1418.943,6036.077,1445.017,6037.949,1435.121,6050.291Z" transform="translate(-1419.235 -6039.774)"/><path class="h" d="M1431.062,6047.592s12.862,2.174,14.254,8.8c0,0-4.863-19.492-15.449-15.948s-14.23,6.1-5.724,25.415C1424.144,6065.854,1421.137,6049.044,1431.062,6047.592Z" transform="translate(-1419.423 -6040.009)"/></g><path class="h" d="M1432.684,6042.33s-2.758-5.591-8.186-2.557-6.627,7.269-6.182,10.868.571,6.376-.249,6.7c0,0,3.413,1.514,3.917.376,0,0,.144,6.723,4.719,10.525,0,0-1.812-7.876,1.975-10.28S1432.684,6042.33,1432.684,6042.33Z" transform="translate(-1418.067 -6038.87)"/><path class="h" d="M1423.262,6041.317s3.156-4.046,9.473.119l4.361,3.974s-.5,1.138-2.462.951c0,0,2.977,5.493,3.451,9.061l-6.231-8.934Z" transform="translate(-1409.189 -6037.704)"/></g><g transform="translate(54.475 105.21)"><path class="n" d="M1486.844,6138.065l-66.929,27.393a7.63,7.63,0,0,1-9.947-4.167l-18.691-45.679a2.7,2.7,0,0,1-.117-.332,7.6,7.6,0,0,1,4.288-9.607l66.93-27.394a7.62,7.62,0,0,1,9.939,4.169l17.83,43.563.867,2.114A7.618,7.618,0,0,1,1486.844,6138.065Z" transform="translate(-1390.712 -6077.709)"/><path class="o" d="M1485.858,6135.619l-66.929,27.393a7.617,7.617,0,0,1-9.937-4.172l-17.833-43.56a7.6,7.6,0,0,1,4.288-9.607l66.93-27.394a7.62,7.62,0,0,1,9.939,4.169l17.83,43.563A7.6,7.6,0,0,1,1485.858,6135.619Z" transform="translate(-1390.712 -6077.709)"/><circle class="p" cx="5.887" cy="5.887" r="5.887" transform="translate(43.286 36.934)"/></g><path class="m" d="M1390.1,6101.37s6.418-25.5,71.332,3.063-55.354.918-55.354.918Z" transform="translate(-1337.276 -5949.968)"/><path class="m" d="M1441.919,6071.02s2.281,68.835-63.817,78.048l-1.417.434,4.694-14.632s38.824-30.06,39.223-31.013S1441.919,6071.02,1441.919,6071.02Z" transform="translate(-1360.204 -5983.933)"/><g transform="translate(0 34.302)"><g transform="translate(115.065 123.239)"><path class="d" d="M1413.078,6099.834c.878-.029,10.82-2.562,15.517-1.617s11.591,2.794,14.154,2.825c3.012.042,3.383,1.354-.179,1.619a47,47,0,0,1-7.9-.111c-.463-.116,2.636.37,6.074.666,3.654.313,7.68.457,7.666,1.124-.024,1.286-10.735,1-12.54.666a46.315,46.315,0,0,0,4.774.819c2.189.249,4.789.227,5.128.795.534.9-5.331,1.394-9.852.7-.117.12,1.219.758,6.643,1.22.547.049,1.785.662-.127.938-4.026.578-5.714,1.126-10.887-.245-5.044-1.339-10.254-4.012-14.211-3.882Z" transform="translate(-1413.078 -6095.355)"/><path class="d" d="M1418.465,6099.681s5.084-2.909,9.63-2.283c2.7.372,2.836-.295,3.335-.357,1.655-.206-.572,2.084-2.975,2.126-1.95.033-3.857,2.783-5.123,3.108s-4.827.554-5.5-.105S1418.465,6099.681,1418.465,6099.681Z" transform="translate(-1405.286 -6097.027)"/></g><path class="e" d="M1444.055,6055.578c-20.119,9.464-35.043,19.379-54.853,60.737-10.053,20.98-15.72,43.271-18.282,55.154a14.318,14.318,0,0,0,5.868,14.744c44.843,31.258,113.574.372,113.574.372,3.167-.209.463-12.079.463-12.079-27.414-8.5-48.736-13.944-73.168-12.057.127-.02,33.577-33.878,39.794-44.118,16.292-26.857,48.817-44.6,45.756-57.945C1502.15,6055.771,1464.347,6046.032,1444.055,6055.578Z" transform="translate(-1370.602 -6051.532)"/></g><path class="g" d="M1416.337,6190.533c.355-1.6-13.632-.733-15.05.471s-21.989,4.944-22.121,11.81,32.19,4.239,34.479,4.272S1415.641,6193.684,1416.337,6190.533Z" transform="translate(-1355.968 -5781.186)"/></g></g></g></g></svg>