<svg xmlns="http://www.w3.org/2000/svg" width="402" height="304.82" viewBox="0 0 402 304.82"><defs><style>.a{fill:#b6d7db;opacity:0.49;}.b{fill:#fff;}.c{fill:#e65a4d;}.d{fill:#b7b5ac;opacity:0.57;}</style></defs><g transform="translate(-533.856 -436.365)"><path class="a" d="M867.463,451.6c-83.833-30.674-190.17-13.984-257.809,40.676C574.42,520.746,520.445,583.951,536.9,641.94c21.008,74.034,142.308,88.447,202.671,95.62,12.882,1.53,170.826,19.047,193.318-39.495,8.783-22.864-3.7-55.765-14.552-73.795-18.425-30.6-39.053-29.785-42.614-49.889-5.826-32.91,73.474-75.541,36.3-100.352A210.279,210.279,0,0,0,867.463,451.6Z"/><g transform="translate(603.545 506.012)"><path class="b" d="M818.821,483.431l-213.841,0a23.583,23.583,0,0,0-23.469,23.7c.006,33.553.016,95.984,0,142.473A23.583,23.583,0,0,0,605,673.315q53.45-.031,106.9-.016t106.9.016a23.584,23.584,0,0,0,23.485-23.706c-.013-46.488,0-108.92,0-142.474A23.584,23.584,0,0,0,818.821,483.431Z" transform="translate(-580.59 -483.34)"/><path class="c" d="M712.327,602.3l-.61-.016-.333-.185q-23.648-16.464-47.3-32.928-23.588-16.4-47.2-32.777c-2.155-1.5-4.334-2.957-6.549-4.466a6.3,6.3,0,0,0-.311,2.9q-.014,67.243,0,134.486c0,.745.056,1.491.088,2.237a1.341,1.341,0,0,0,.062,1.381,30.105,30.105,0,0,1-8.545.227A21.2,21.2,0,0,1,583.463,661.8a20.255,20.255,0,0,1-2.563-10.078q-.015-73.4,0-146.8a21.669,21.669,0,0,1,20.5-21.541,2.72,2.72,0,0,1,1.894.645q28.017,20.77,56.047,41.522,25.746,19.052,51.5,38.089a1.726,1.726,0,0,0,2.421-.047q37.039-27.3,74.109-54.556Q804.2,496.65,821.038,484.29a4.352,4.352,0,0,1,3.18-.781c10.188.714,19.681,9.631,19.665,22.334q-.1,72.711-.018,145.421a27.736,27.736,0,0,1-2.027,11.108c-2.018,4.684-5.832,7.277-10.521,8.735-5.439,1.692-11.083,1.91-16.718,2.116a2.582,2.582,0,0,1-.788-.228c.018-.517.049-1.034.049-1.551q0-68.634-.015-137.267a2.337,2.337,0,0,0-.239-1.606q-5.75,3.963-11.471,7.9-15.493,10.655-30.99,21.3Q750.524,575.941,729.9,590.1C724.027,594.142,718.184,598.23,712.327,602.3Z" transform="translate(-580.889 -483.37)"/><path class="d" d="M669.6,586.3c5.857-4.067,11.7-8.155,17.573-12.2q20.61-14.18,41.245-28.323,15.5-10.646,30.99-21.3,5.732-3.943,11.471-7.9a2.337,2.337,0,0,1,.239,1.606q.018,68.634.015,137.267c0,.517-.031,1.034-.049,1.551-6.35-4.353-12.713-8.687-19.046-13.066-6-4.149-11.971-8.349-17.96-12.516q-19.245-13.388-38.5-26.762c-7.269-5.045-14.567-10.049-21.83-15.1C672.305,588.551,670.692,587.751,669.6,586.3Z" transform="translate(-538.159 -467.375)"/><path class="d" d="M600.739,634.661l102.745-70.984-1.536,0-101.271,69.6S600.187,634.263,600.739,634.661Z" transform="translate(-571.454 -444.687)"/></g></g></svg>