<svg xmlns="http://www.w3.org/2000/svg" xmlns:xlink="http://www.w3.org/1999/xlink" width="1366" height="772.192" viewBox="0 0 1366 772.192"><defs><style>.a,.ac,.t{fill:none;}.b{fill:#d2c3db;}.c{fill:#eadff1;}.d,.y{fill:#000;}.e{clip-path:url(#a);}.f,.l{fill:#d8a35d;}.f{fill-rule:evenodd;}.g{fill:#999;}.h{fill:#ccc;}.i{fill:#2b2b2b;}.j{fill:gray;}.k{fill:#d29647;}.m{fill:#d19442;}.n{fill:#947dce;}.o{fill:#ffc84f;}.p{opacity:0.15;}.q{fill:#62548a;}.r{opacity:0.3;}.s{opacity:0.5;}.t{stroke:#947dce;stroke-width:1.301px;}.ac,.t,.y{stroke-miterlimit:10;}.u{fill:#b3b3b3;}.v{fill:#d0d1d6;}.w{fill:#333;}.x{fill:#6a676b;}.y{stroke:#595959;stroke-width:0.94px;}.z{fill:#95a9fe;}.aa{fill:#fd5e5a;}.ab{fill:#dfeddf;}.ac{stroke:#313431;stroke-width:5.136px;}.ad{fill:#728ad6;}.ae{fill:#5f73b3;}.af{fill:#8fa0d6;}.ag{fill:#313431;}.ah{fill:#6c4e49;}.ai{fill:#4f3936;}</style><clipPath id="a"><rect class="a" width="1365.799" height="770" transform="translate(0.301 -1.447)"/></clipPath></defs><g transform="translate(-0.1 1.447)"><path class="b" d="M1366.1,9.282V767.745l-242.228-67.586-32.991-6.263,1.636-558.092,30.118-25.56Z"/><path class="b" d="M316.4,125.217,300.346,681.588.3,755.986V5.933L299.146,99.5Z"/><path class="c" d="M698.078,88.817H273.47V706.2h849.165V88.817Z"/><path class="d" d="M.1,60.525c121.657,30.38,335.7,73.888,615,80.372,352.971,8.195,622.428-47.1,751-78.7V-.255H.1Z"/><path class="d" d="M.1,722.429c121.657-29.39,335.7-71.48,615-77.753,352.971-7.927,622.428,45.568,751,76.133V768L.3,770.745Z"/><g class="e"><g transform="translate(745.774 249.406)"><g transform="translate(0 374.612)"><path class="f" d="M788.64,619.8C787.7,621,774.009,632.232,770.5,639.749s-8.014,19.03-10.591,22.632c-3.033,4.237-1.6,6.109,2.422,1.42,2.612-3.048,7.3-9.536,7.938-11.117.311-.766-2.187,4.054-5.3,9.149-3.31,5.415-7.233,11.168-6.3,11.837,1.806,1.3,12.387-13.923,13.775-16.778a79.858,79.858,0,0,1-3.76,7.489c-1.894,3.308-4.594,6.907-4.152,7.969.7,1.672,7.39-5.991,11.061-13,.284-.042-.2,2.478-5.118,10.511-.494.807-.915,3.168,1.426.788,4.927-5.01,7.412-6.8,10.818-15.419,3.321-8.407,4.957-18.425,9.193-23.8Z" transform="translate(-745.774 -619.804)"/><g transform="translate(0 10.563)"><path class="g" d="M746.609,646.4,768.1,673.026a3.467,3.467,0,0,0,4.926.579L785,663.513a1.08,1.08,0,0,0,.117-.109,3.62,3.62,0,0,0,.275-4.926l-21.488-26.622a3.459,3.459,0,0,0-4.923-.575L747.8,640.7l-.8.669A3.62,3.62,0,0,0,746.609,646.4Z" transform="translate(-745.774 -630.294)"/><path class="h" d="M747.21,645.815l21.661,26.52a3.577,3.577,0,0,0,5.059.494l11.679-9.712a3.627,3.627,0,0,0,.368-4.982l-21.661-26.52a3.577,3.577,0,0,0-5.059-.494l-11.679,9.712A3.627,3.627,0,0,0,747.21,645.815Z" transform="translate(-745.774 -630.295)"/><path class="i" d="M749.317,645.728l18.708,22.9a3.089,3.089,0,0,0,4.369.427l10.087-8.388a3.133,3.133,0,0,0,.318-4.3l-18.708-22.9a3.088,3.088,0,0,0-4.369-.427l-10.087,8.388A3.134,3.134,0,0,0,749.317,645.728Z" transform="translate(-745.774 -630.282)"/><ellipse class="j" cx="1.2" cy="1.208" rx="1.2" ry="1.208" transform="translate(31.684 34.807)"/></g><path class="f" d="M774.554,634.525s-9.236,4.08-13.027,11.06c-2.253,4.148-3.315,3.645-3.912,4.275-1.981,2.09,3.469,1.354,5.987-1.95,2.047-2.685,7.8-2.5,9.553-3.927s5.713-6.151,5.494-7.771S774.554,634.525,774.554,634.525Z" transform="translate(-745.774 -619.704)"/></g><path class="k" d="M1002.925,733.247S986.766,901.113,993.637,904c12.327,5.264,60.6,22.484,7.379,18.7-27.34,1.659-25.334-4.49-25.761-9.7-.349-4.258.453-154.489-.67-166.173-.251-2.617-.4-4.2-.4-4.2Z" transform="translate(-745.774 -244.422)"/><path class="l" d="M890.234,717.764s87.272,143.209,82.666,149.1c-8.223,10.64-42.069,49.337,2.595,19.951,24.685-11.948,19.96-16.337,17.813-21.1-1.753-3.89-14.666-33.64-19.333-44.4C972.93,818.911,914.141,701.6,914.141,701.6Z" transform="translate(-745.774 -244.637)"/><path class="m" d="M956.313,303.014s-1.424,15.995,8.376,24.84-22.584,0-22.584,0,6.026-15.32,4.674-24.84S956.313,303.014,956.313,303.014Z" transform="translate(-745.774 -247.369)"/><ellipse class="l" cx="17.133" cy="23.534" rx="17.133" ry="23.534" transform="translate(188.237 14.779)"/><path class="n" d="M1062.884,456.795c-.286,4.455-3.865,21.016-8.9,39.017-1.483,5.372-3.11,10.861-4.815,16.207-2.069,6.512-4.255,12.787-6.468,18.33-4.294,10.743-8.693,18.735-12.532,20.295-12.935,5.24-110.6,12.434-130.682,2.791-.468-.354-.976-.734-1.457-1.153-7.535-6.172-15.707-18.356-20.041-29.768,0-.013-11.543-32.768-13.9-39.437-.026-.065-.039-.118-.066-.17-.078-.262-.169-.511-.26-.747-.026-.092-.065-.17-.091-.262-12.155,41.781-44.493,133.547-70.651,162.62-2.745,3.053-15.381-14.072-15.381-14.072S756.519,520.64,811.619,404.6c25.936-54.621,72.225-79.541,101.779-86.157,12.792-2.869,22.448-2.306,25.975.76a19.088,19.088,0,0,0,11.959,4.678,25.768,25.768,0,0,0,6.715-.616,33.266,33.266,0,0,0,7.119-2.437c1.093-.51,1.731-.878,1.731-.878a69,69,0,0,1,18.088,1.088C1051.849,334.214,1063.483,447.086,1062.884,456.795Z" transform="translate(-745.774 -247.249)"/><path class="o" d="M895.014,548a10.525,10.525,0,0,0,5.994,2.785c14.085.278,74.917,1.327,107.916-.583,11.643-.675,19.819-1.716,21.255-3.3,0,0,0,.048-.009.135-.086,1.831-1.13,22.8-2.6,50.279-2.891,54.25,2.679,131.949,9.185,155.533,1.405,5.09-74.177-2.621-74.177-2.621-.21-55.985,5.066-154.271,1.658-158.677-4.146-5.359-10.868,81.093-18.575,153.437-29.932,7.861-77.328,3.088-76.78,0C875.392,708.307,895.014,548,895.014,548Z" transform="translate(-745.774 -245.686)"/><path class="p" d="M863.68,480.946c.026.092.065.17.091.262.091.237.183.485.261.747.026.052.039.1.065.17,2.355,6.669,13.9,39.424,13.9,39.437,4.334,11.412,12.506,23.6,20.041,29.768-5.114-18.645-21.056-72.689-20.444-94.464C874.547,477.854,863.68,480.933,863.68,480.946Z" transform="translate(-745.774 -246.297)"/><path class="p" d="M1053.983,495.1c-1.483,5.372-3.11,10.861-4.815,16.207-2.069,6.512-4.255,12.787-6.468,18.329-38.247-46.106-17.386-108.8-17.386-108.8s16.163,54.425,16.332,55.957C1041.7,477.352,1047.073,485.2,1053.983,495.1Z" transform="translate(-745.774 -246.541)"/><path class="p" d="M952.468,327.742c.052,1.559-.768,2.58-3.253,2.24-7.756-1.061-16.515-.839-22.878,2.1a5.374,5.374,0,0,1-5.232-.223c-4.073-2.4-6.6-9.551-7.6-12.722a2.174,2.174,0,0,1-.1-.695c12.793-2.869,22.449-2.306,25.975.76a19.085,19.085,0,0,0,11.96,4.678A10.669,10.669,0,0,1,952.468,327.742Z" transform="translate(-745.774 -247.249)"/><path class="q" d="M990.129,854.172c-.893-2.273-15.746,6.319-16.488,8.989s-27.133,25.59-21.608,34.175,42.972-21.607,45.808-23.473S991.885,858.64,990.129,854.172Z" transform="translate(-745.774 -243.604)"/><path class="q" d="M974.295,897.223c-.318-2.423,20.185.651,22.123,2.621s31.786,10.142,31.11,20.349-47.984,2.182-51.363,1.941S974.922,901.986,974.295,897.223Z" transform="translate(-745.774 -243.316)"/><g class="r" transform="translate(204.722 301.221)"><path d="M951.175,551.3l-.679-.056S950.737,551.258,951.175,551.3Z" transform="translate(-950.496 -546.878)"/><path class="s" d="M951.175,551.327c18.128,1.457,57.749-1.124,57.749-1.124,11.643-.675,19.819-1.716,21.255-3.3,0,0,0,.048-.009.135-.086,1.831-1.13,22.8-2.6,50.279a13.419,13.419,0,0,1-1.9-.221c-4.079-.762-7.21-3.306-9.594-6.863a33.266,33.266,0,0,1-3.73-7.844C998.83,556.5,956.983,551.852,951.175,551.327Z" transform="translate(-950.496 -546.907)"/></g><g transform="translate(184.275)"><g transform="translate(3.617 6.562)"><path class="o" d="M944.706,272.476s29.661,16.557,20.857-10.026C959.472,244.058,924.477,260.625,944.706,272.476Z" transform="translate(-933.666 -254.233)"/><path class="o" d="M949.006,266.117s-16.6,9.914-14.995,19.859c0,0-3.659-29.692,12.842-30.438s22.889.858,21.424,32.255C968.277,287.793,963.483,262.817,949.006,266.117Z" transform="translate(-933.666 -254.225)"/></g><path class="o" d="M946.133,255.783s.834-9.251,9.943-7.941,13.014,6.55,14.315,11.791,2.6,9.171,3.9,9.171c0,0-3.9,3.93-5.2,2.621,0,0,3.378,9.422-.914,17.158,0,0-1.689-11.917-8.2-13.227S946.133,255.783,946.133,255.783Z" transform="translate(-930.049 -247.716)"/><path class="o" d="M946.967,255.656s-6.507-3.93-13.014,5.24l-3.9,7.861s1.3,1.311,3.9,0c0,0-1.185,9.231.058,14.442l3.846-15.752Z" transform="translate(-930.049 -247.667)"/></g><g transform="translate(397.719 385.127)"><path class="f" d="M1147.459,630.248c.682,1.116,11.223,12.107,13.455,18.881s4.909,17.058,6.743,20.4c2.157,3.927.744,5.377-2.21.962-1.92-2.868-5.259-8.885-5.646-10.3-.188-.686,1.455,3.684,3.6,8.35,2.275,4.96,5.039,10.272,4.177,10.746-1.672.92-9.157-13.151-10.052-15.73a68.8,68.8,0,0,0,2.449,6.777c1.281,3.017,3.22,6.365,2.735,7.225-.765,1.355-5.7-5.871-8.119-12.23-.238-.064-.078,2.135,3.3,9.494.34.74.459,2.8-1.3.527-3.695-4.78-5.635-6.561-7.666-14.266-1.981-7.514-2.362-16.229-5.432-21.249Z" transform="translate(-1143.493 -630.248)"/><path class="f" d="M1159.467,645.845s7.466,4.431,9.993,10.775c1.5,3.77,2.459,3.45,2.905,4.049,1.478,1.986-3.1.8-4.911-2.278-1.474-2.5-6.405-2.937-7.752-4.333s-4.251-5.835-3.9-7.194S1159.467,645.845,1159.467,645.845Z" transform="translate(-1143.493 -630.142)"/></g><g transform="translate(143.264 300.991)"><line class="t" x1="19.193" y2="202.058"/><line class="t" x1="19.048" y2="198.54" transform="translate(19.193 4.041)"/><line class="t" x1="15.84" y2="197.152" transform="translate(41.021 4.041)"/><line class="t" x2="0.408" y2="40.838" transform="translate(74.794 4.041)"/><line class="t" x1="3.675" y2="201.147" transform="translate(91.025 4.041)"/><line class="t" x1="1.024" y2="202.834" transform="translate(110.805 3.915)"/><line class="t" x2="3.875" y2="203.999" transform="translate(128.665 3.915)"/></g><path class="t" d="M892.418,568.873s108.083,5.137,136.64,0" transform="translate(-745.774 -245.537)"/><path class="t" d="M964.241,591.289c-37.817,8.624-74.007-5.009-74.007-5.009" transform="translate(-745.774 -245.419)"/><path class="t" d="M963.833,588.7s34.128,9.655,64.1,1.5" transform="translate(-745.774 -245.403)"/><path class="t" d="M888.374,600.988s27.254,14.366,71.52,7.042" transform="translate(-745.774 -245.319)"/><path class="t" d="M886.143,618.5s42.41,13.035,71.654,6.328" transform="translate(-745.774 -245.2)"/><path class="t" d="M883.906,635.906s21.6,17.047,71.677,9.4" transform="translate(-745.774 -245.082)"/><path class="t" d="M881.3,655.923s32.934,17.325,72.64,5.509" transform="translate(-745.774 -244.947)"/><path class="t" d="M878.882,674.26s23.326,16.67,73.1,6.987" transform="translate(-745.774 -244.822)"/><path class="t" d="M876.35,693.058s32.2,16.944,74.146,3.255" transform="translate(-745.774 -244.695)"/><path class="t" d="M874.324,707.729s18.994,18.392,74.565,4.757" transform="translate(-745.774 -244.595)"/><path class="t" d="M871.937,724.381s30.713,16.29,75.312,4.243" transform="translate(-745.774 -244.482)"/><path class="t" d="M965.384,607.016s14.258,11.852,62.554,3.054" transform="translate(-745.774 -245.278)"/><path class="t" d="M965.758,624.734s20.007,9.392,61.038,1.974" transform="translate(-745.774 -245.158)"/><path class="t" d="M964.783,644.4s30.893,9.368,62.013,0" transform="translate(-745.774 -245.025)"/><path class="t" d="M964.338,660.708s30.032,13.44,63.056,0" transform="translate(-745.774 -244.914)"/><path class="t" d="M963.833,678.612s28.591,10.1,64.39,0" transform="translate(-745.774 -244.793)"/><path class="t" d="M963.371,695.809s24.1,10.886,65.98,0" transform="translate(-745.774 -244.676)"/><path class="t" d="M963.371,711.024s28.614,14.845,67.436,1.577" transform="translate(-745.774 -244.573)"/><path class="t" d="M962.683,730.043s32.546,11.107,70.246.816" transform="translate(-745.774 -244.444)"/><path class="n" d="M1030.807,390.047S946.894,323.19,966.9,319.929s52.74,4.662,52.74,4.662c29.554,6.617,57.771,28.972,83.707,83.594C1158.447,524.229,1155.4,636.6,1155.4,636.6s-12.759,17.232-15.382,14.072c-48.681-58.643-79.985-117.514-93.191-157.122S1030.807,390.047,1030.807,390.047Z" transform="translate(-745.774 -247.231)"/></g></g><path class="u" d="M701.732,580.838H288.127L348.244,508.7H653.638Z"/><rect class="u" width="19.237" height="165.923" transform="translate(302.555 580.838)"/><rect class="u" width="13.226" height="195.982" transform="translate(347.041 508.697)"/><rect class="u" width="13.226" height="195.982" transform="translate(639.21 508.697)"/><rect class="u" width="19.237" height="165.923" transform="translate(669.269 580.838)"/><path class="v" d="M580.017,568.356H434.329c-1.618,0-4.281-1-3.28-2.23l15.728-22.337a5.574,5.574,0,0,1,4.546-1.988H562.811a6.037,6.037,0,0,1,4.912,2.142l15.569,21.967C584.384,567.311,581.792,568.356,580.017,568.356Z"/><path class="w" d="M564.888,562.5H448.25c-1.294,0-2.281-.5-2.077-1.047l4.919-13.2c.265-.712,1.695-1.236,3.373-1.236h105.2c1.491,0,2.755.47,2.971,1.1l4.508,13.274C567.323,561.978,566.262,562.5,564.888,562.5Z"/><rect class="v" width="121.634" height="0.614" transform="translate(445.839 549.289)"/><rect class="v" width="121.634" height="0.614" transform="translate(445.839 552.36)"/><rect class="v" width="121.634" height="0.614" transform="translate(445.839 556.046)"/><rect class="v" width="121.634" height="0.614" transform="translate(445.839 559.425)"/><rect class="v" width="0.921" height="20.272" transform="translate(460.57 544.395) rotate(17.439)"/><rect class="v" width="0.921" height="20.272" transform="translate(469.478 544.395) rotate(17.439)"/><rect class="v" width="0.921" height="20.272" transform="translate(476.542 544.395) rotate(17.439)"/><rect class="v" width="0.921" height="20.272" transform="translate(483.607 544.395) rotate(17.439)"/><rect class="v" width="0.921" height="20.272" transform="translate(490.979 544.395) rotate(17.439)"/><rect class="v" width="0.921" height="20.272" transform="translate(498.459 544.165) rotate(10.978)"/><rect class="v" width="0.921" height="20.272" transform="translate(504.813 544.067)"/><rect class="v" width="0.921" height="20.272" transform="translate(552.478 544.671) rotate(-17.439)"/><rect class="v" width="0.921" height="20.272" transform="translate(543.877 544.671) rotate(-17.439)"/><rect class="v" width="0.921" height="20.272" transform="translate(535.277 544.671) rotate(-17.439)"/><rect class="v" width="0.921" height="20.272" transform="translate(526.676 544.671) rotate(-17.439)"/><rect class="v" width="0.921" height="20.272" transform="translate(518.076 544.671) rotate(-17.439)"/><rect class="v" width="0.921" height="20.272" transform="translate(509.476 544.671) rotate(-17.439)"/><rect class="x" width="19.317" height="22.433" transform="translate(487.705 505.851)"/><rect class="v" width="204.47" height="125.474" rx="4.985" transform="translate(392.694 381.222)"/><path class="w" d="M450.879,533.324v-3.846c0-2.134,19.729-3.858,44.049-3.858s44.047,1.724,44.047,3.858v3.846Z"/><rect class="w" width="36.722" height="4.565" transform="translate(478.444 498.158)"/><rect class="w" width="204.391" height="112.166" rx="4.985" transform="translate(392.694 381.222)"/><rect class="y" width="187.863" height="97.932" rx="4.985" transform="translate(400.958 388.339)"/><rect class="z" width="65.175" height="41.025" rx="4.014" transform="translate(465.421 414.518) rotate(4.094)"/><path class="d" d="M523.422,422.345,472.8,418.721,496,444.009Z"/><path class="d" d="M495.514,450.2,468.38,420.631l-2.247,31.393,58.251,4.169,2.185-30.532Z"/><circle class="aa" cx="10.205" cy="10.205" r="10.205" transform="translate(454.221 416.305)"/><path class="d" d="M461.576,424.336l-1.05.3a3.2,3.2,0,0,1,5.223-2.9,2.446,2.446,0,0,1,.042,3.678,3.1,3.1,0,0,1,2.693,3.973,3.614,3.614,0,0,1-6.815.5l1.008-.291c2.232,3.719,6.711-.421,4.132-2.663-.856-.745-1.863-.612-3-.347l-.273-.945c1.167-.337,2.232-1.254,1.9-2.412-.421-1.459-2.553-1.571-3.407-.4A2.943,2.943,0,0,0,461.576,424.336Z"/><path class="ab" d="M1290.958,217.82l-111.571,11.758V412.253s115.9,14.028,115.182,14.791,0-205.724,0-205.724l-.95-3.78Z"/><path class="ac" d="M1290.958,217.82l-111.571,11.758V412.253s115.9,14.028,115.182,14.791,0-205.724,0-205.724l-.95-3.78Z"/><line class="ac" y2="189.205" transform="translate(1231.676 227.036)"/><line class="ac" x2="110.049" y2="5.538" transform="translate(1181.548 351.352)"/><line class="ac" y1="3.213" x2="110.049" transform="translate(1181.548 285.836)"/><path class="ad" d="M1268.156,206.6s-1.812.039,1.886,2.522c3.731,2.5,1.251-3.388,1.251-3.388l2.769.158s.891,1.205,1.747.736a5.956,5.956,0,0,1,2.6-.312l2,.621s1.05-3.508,1.688-2.53c.526.805,2.667-.37,4.305-1.046l2.06-.221c.873.428,1.425,1.424,2.332.387,1.232-1.41.039,2.5.617,1.51s1.972.274,2.786-2.365c.017-.057.035-.109.052-.157l.549-.06c.473,1.2.963,5.052,2.273,5.158,1.715.139,2.317-2.507,2.77-5.719l1.519-.174a9.087,9.087,0,0,1,.113,2.71c-.355,2.761,3.1,2.312,3.1,2.312s.1-2.917.62-3.64a18.259,18.259,0,0,1,2.52-2.135q1.334-.165,2.672-.335c.142.511.3,1.139.54,1.783.734,1.95.475,2.031,2.755,1.562s1.728,1.569,2.134-.252c.371-1.665.337-1.824.834-3.925l1.49-.21a33.558,33.558,0,0,0,1.334,3.145c1.623,3.215,2.818.717,4.8-1.63a29.762,29.762,0,0,0,1.951-2.738l.9-.147c.036.057.073.121.112.2.719,1.391,1.788,3.811,3.56,2.525,1.41-1.023,1.855-3.184,2.151-3.719l.216-.038h0a28,28,0,0,0,1.548,4.665c1.4,3.049,1.4.127,2.039-3.018a9.4,9.4,0,0,1,.964-2.5c.257-.05.514-.1.771-.149-.694,21.556-.776,32.584-2.844,56.79-2.059,24.1-6.121,62.123-8.862,87.9-.546,5.14-.731,1.86-.53,6.36.013.29.019.507.019.664.046.324.1.675.151,1.066,1.4,10.013,4.481,32.829,5.02,45.313.107,2.626.71,2.912,1.017,11.763.392,11.284.147,36.023.7,45.613s4.281,19.625-.955,20.275c-2.487.309-16.1-5.78-21.87-6.253-2.825-.231-5.757,2.875-11.035.545-7.509-3.316-6.308-5.49-9.167-6.323-.281-.081-.3-.168-.3-.2a.79.79,0,0,1-.206.2c1.1-8.009-1.152-7.094.536-16.68,1.694-9.622,6.814-23.175,7.641-34.793.487-6.846.854-15.079,1.053-20.914.167-4.873.667-5.024,1.124-8.911.113-.965.3-1.729.458-2.646.76-4.293,1.661-8.639,2.486-12.841.2-1.005.406-2.078.557-2.876.3-1.6.7-3.52.91-4.85a35.339,35.339,0,0,0,.4-7.732c-.018-.406-.056-.591-.086-.939s-.076-.661-.116-.982c-.019-.158-.047-.321-.065-.442-.035-.237-.1-.614-.133-.795a18.849,18.849,0,0,0-.464-1.906c-.16-.513-.171-.515-.323-.92-.571-.552-1.134-1.211-1.686-1.793-.218-.23-.445-.532-.7-.825-9.235-10.578-15.159-26.367-19.293-39.786-9.428-30.61-13.741-61.838-16.009-93.585l.366-.045Z"/><path class="ae" d="M1283.385,298.711c.191,3.669.165,4.177,1.168,7.216,3.261,9.872,10.991,20.277,16.432,28.969.2.318.479.718.634.967,1.3,2.083,2.75,4.545,3.838,6.542a5.886,5.886,0,0,1,.665,1.508,12.456,12.456,0,0,1,.393,2.854c.034.4.042.8.045,1.306.013,2.435-.208,4.995-.25,7.465v.02c-.021,1.87-.294,4.1-.437,5.849-.167,2.052-.291,3.666-.307,5.642,0,.018,0,.033,0,.046.015.452,0,.775.043,1.25.24,2.782.571,5.71.881,8.481.069.612.173,1.545.222,1.966.233,2.022.432,3.7.664,5.622.078-1.793.208-3.812.279-5.472s.042.058.12-2.352.619-8.588.587-11.826-.4-5.132-.646-8.764c-.147-2.161-.616-6.539-.878-9.28-.12-1.25-.281-2.873-.462-4.272-.3-2.354-.385-3.515-.735-6.162-1.765-13.355-3.236-27.4-6.516-40.363l-.035-.144c-.2-.836-.258-.99-.462-1.934-3.575-16.53-4.428-33.783-7.311-50.355-2.256-12.968-2.993-26.566-4.1-39.774-.906.318-1.829-.337-2.72.623.034,17.493-.164,41.946-.018,57.957C1284.622,277.966,1282.675,285.144,1283.385,298.711Z"/><path class="af" d="M1304.675,376.709a9.3,9.3,0,0,0,.014,1.773c1.967,11.038-1.956-2.352,1.876,14.052,3.865,16.543,3.159,53.773,3.186,69.472-.129,8.533.188-6.213.092,3.455,7.057.84,14.283,3.879,21.476,6.454-.383-17.122-.9-32.274-.964-50.272s-2.553-39.3-5.416-57.792c-.83-5.356-.039-11.442.052-16.759.018-1.1.221-4.318.325-5.858,1.115-16.6,3.279-42.857,4.353-57.515,1.658-22.646,8.055-51.133,4.226-68.774-2.037-9.38-1.7-8.679-2.056-17.646-1.451,1.029-3.082.575-4.593,1.112-.511,2.565-.918,6.815-1.977,8.989-2.146,4.4-3.02,1.466-3.57-1.663-.235-1.342-.457-4.705-.595-6.379-2.773.349-5.525.826-8.263,1.209-.629,5.522-1.475,11.055-1.793,16.563,0,.006.011.022.011.03-.45,12.565-.714,25.695.05,37.891.765,12.216-1.978,18.3-2.353,31.872s.769,37.288,3.976,51.571a19.038,19.038,0,0,1,.418,3.611,12.013,12.013,0,0,1-.747,4.581,1.1,1.1,0,0,1-.069.165c-1.613,3.369-3.906,6.029-5.575,9.376a12.45,12.45,0,0,0-.523,1.246,22.827,22.827,0,0,0-1.011,3.453,34.992,34.992,0,0,0-.629,5.862c0,.056-.007.158-.005.2a.465.465,0,0,1,0,.051C1304.667,370.36,1304.476,373.286,1304.675,376.709Z"/><path class="ae" d="M1310.213,200.837c-3.06,1.137-6.373.154-9.233,2.2.59,16.939,2.362,46.974,4.208,61.245,2.167,16.759,2.716,22.256,3.562,34.66.848,12.427.334,21.073,2.213,32.5.735,4.467,1.058,6.759,1.73,10.652.385,2.231.411,2.682.7,4.63.012.08.011.11.018.159a49.241,49.241,0,0,1,.4,6.729c-.085,5.656-.1,16.081-.114,20.288s.164,1.907.2,3.637a13.505,13.505,0,0,0,.081,1.418c.051,1.232.175,2.685.23,4,2.15-.345,4.309-.809,6.488-1.006-.045-1.859-.033-.8-.1-3.062s.112,4.319-.056-1.481-1.264-23.019-1.868-29.429-.087-1.331-.48-6.109.517,6.843-.241-2.673c-.757-9.5-2.947-31.127-3.5-42.649s.578-20.847.281-31.087-.85-23.217-1.2-31.738-1.111-10.784-1.485-16.321-.865-9.549-1.172-12.925S1310.486,203.291,1310.213,200.837Z"/><path class="ag" d="M1327.483,341.6c-8.249.471-16.373.693-24.347.965.452,1.365.842,2.757,1.247,4.143,7.274.122,14.7.571,22.2.411Q1327.031,344.363,1327.483,341.6Z"/><path class="ag" d="M1302.956,363.036c.736.235,1.551-.325,2.187-.792a4.1,4.1,0,0,0,.726-.794,3.572,3.572,0,0,0,.346-.547,10,10,0,0,0,1-3.435,34.236,34.236,0,0,0-.64-9.36c-.113-.614-.208-.992-.277-1.309-.131-.606-.158-.68-.281-1.175a2.01,2.01,0,0,0-1.419.11,1.188,1.188,0,0,0-.2.1,1.982,1.982,0,0,0-.237.129,8.127,8.127,0,0,0-1.8,1.565c-1.321,1.79-2.958,3.359-3.609,5.782C1297.768,356.962,1299.569,361.96,1302.956,363.036ZM1301,352a20.563,20.563,0,0,1,3.728-4.277c.582-.6.5-.376,1.006-.422.3,2.778.521,5.478.574,8.24v.017c-.065,1.812-.426,3.675-1.846,4.45a1.157,1.157,0,0,1-.964.154C1300.294,359.407,1299.53,354.57,1301,352Z"/><path class="ag" d="M1295.255,350.093c-.125,1.626,1.753.841,2.495.356s3.258-2.209,3.965-2.627.171-.071.677-.323,1.226-.528,1.788-.792c.041-.141.057-.224.1-.378l.125-.507c.045-.178.082-.331.135-.543s.127-.534.19-.766c-.149-.018-.162-.013-.343-.026s-.426-.021-.682-.032c-1.316-.057-3.655-.126-4.693.573C1297.524,346.027,1295.38,348.466,1295.255,350.093Zm3.317-3.806c.724-.639,3.741-1.736,5.139-.891-1.843,1.152-4.992,3.8-6.746,4.445S1297.85,346.926,1298.572,346.287Z"/><path class="ag" d="M1143.361,216.75q.011.227.036.426a2.785,2.785,0,0,1,2.521-2.723l196.361-25.591s2.891-.837,3.329,2.091c.026-.275.038-.565.038-.877-.014-3.838-3.386-2.856-3.386-2.856l-196.354,25.933S1143.2,213.267,1143.361,216.75Z"/><path class="ah" d="M1143.4,217.176c.351,2.985,2.792,2.19,2.792,2.19l196.071-24.257c1.287-.265,3.076-1.049,3.348-4.153v0c-.438-2.928-3.329-2.091-3.329-2.091l-196.361,25.591A2.785,2.785,0,0,0,1143.4,217.176Z"/><path class="ag" d="M1332.569,188.6a1.435,1.435,0,0,0-1.2-.6c-1.078.138-1.773,2.051-1.953,2.547-1.036,2.852-.365,6.525,1.181,6.743.334.047,1.007.124,2.048-.948.695-.025,1.316-.156,2.013-.182a3.962,3.962,0,0,1-1.5,2.028,3.513,3.513,0,0,1-3.992-.031c-.91-.679-1.082-1.7-1.318-3.09a8.145,8.145,0,0,1,.5-5.079c.357-.761,1.241-2.66,2.768-2.974,1.588-.326,2.684.925,2.563,1.386C1333.613,188.642,1333.073,188.51,1332.569,188.6Z"/><path class="ag" d="M1318.336,190.478a1.385,1.385,0,0,0-1.164-.6c-1.046.133-1.72,2.017-1.9,2.505-1,2.806-.353,6.424,1.146,6.642.324.048.977.124,1.986-.93.674-.023,1.277-.151,1.952-.175a3.892,3.892,0,0,1-1.456,1.995,3.366,3.366,0,0,1-3.871-.038c-.883-.67-1.05-1.675-1.278-3.046a8.128,8.128,0,0,1,.486-5c.346-.749,1.2-2.617,2.685-2.923,1.54-.319,2.6.916,2.485,1.369C1319.349,190.521,1318.825,190.391,1318.336,190.478Z"/><path class="ag" d="M1304.531,192.3a1.344,1.344,0,0,0-1.13-.592c-1.014.13-1.669,1.984-1.838,2.464-.975,2.762-.343,6.328,1.112,6.546.314.047.947.123,1.927-.913.653-.022,1.238-.147,1.894-.169a3.841,3.841,0,0,1-1.413,1.962,3.227,3.227,0,0,1-3.756-.044c-.857-.662-1.019-1.652-1.241-3a8.117,8.117,0,0,1,.472-4.925c.336-.737,1.168-2.576,2.6-2.875,1.495-.31,2.525.908,2.411,1.354C1305.513,192.344,1305.005,192.215,1304.531,192.3Z"/><path class="ag" d="M1291.134,194.067a1.3,1.3,0,0,0-1.1-.585c-.985.125-1.62,1.951-1.784,2.424-.946,2.72-.334,6.234,1.079,6.451.3.047.92.124,1.87-.9.635-.02,1.2-.142,1.839-.163a3.764,3.764,0,0,1-1.372,1.93,3.093,3.093,0,0,1-3.646-.05c-.831-.653-.989-1.629-1.2-2.96a8.117,8.117,0,0,1,.458-4.853c.326-.725,1.134-2.535,2.529-2.827,1.451-.3,2.451.9,2.34,1.339C1292.087,194.113,1291.594,193.985,1291.134,194.067Z"/><path class="ag" d="M1273.717,196.366a1.249,1.249,0,0,0-1.055-.577c-.947.121-1.557,1.909-1.715,2.372-.91,2.665-.321,6.112,1.037,6.328.294.047.885.124,1.8-.873.61-.019,1.155-.137,1.767-.156a3.686,3.686,0,0,1-1.319,1.889,2.928,2.928,0,0,1-3.505-.057c-.8-.643-.951-1.6-1.158-2.906a8.091,8.091,0,0,1,.441-4.757c.313-.71,1.09-2.484,2.431-2.766,1.4-.293,2.356.888,2.25,1.318C1274.633,196.413,1274.159,196.286,1273.717,196.366Z"/><path class="ai" d="M1267.975,197.124a1.234,1.234,0,0,0-1.041-.575c-.935.12-1.537,1.9-1.693,2.356-.9,2.646-.317,6.072,1.024,6.287.29.047.873.124,1.775-.866.6-.018,1.14-.135,1.744-.153a3.654,3.654,0,0,1-1.3,1.876,2.877,2.877,0,0,1-3.46-.061c-.789-.639-.939-1.589-1.143-2.887a8.092,8.092,0,0,1,.435-4.726c.309-.705,1.076-2.466,2.4-2.745,1.376-.29,2.325.884,2.22,1.311C1268.879,197.172,1268.411,197.045,1267.975,197.124Z"/><path class="ad" d="M1198.053,215.081s1.538-.353-1.588,2.711c-3.1,3.04-1.045-2.836-1.045-2.836l-2.3.728s-.732,1.278-1.434,1.03a4.42,4.42,0,0,0-2.116.254l-1.613.964s-.839-2.921-1.348-1.916c-.418.824-2.11.215-3.394-.05l-1.6.223c-.675.553-1.1,1.537-1.8.808-.943-.986-.03,2.2-.473,1.444s-1.5.624-2.118-1.513c-.013-.047-.027-.088-.04-.126l-.414.056c-.356,1.131-.725,4.569-1.706,4.906-1.276.439-1.722-1.725-2.057-4.4q-.559.075-1.119.147a9.28,9.28,0,0,0-.082,2.343c.26,2.3-2.261,2.551-2.261,2.551a10.23,10.23,0,0,0-.448-2.981,9.5,9.5,0,0,0-1.811-1.333q-.953.114-1.9.224c-.1.457-.21,1.014-.381,1.6-.518,1.772-.335,1.793-1.934,1.813s-1.2,1.618-1.483.175c-.257-1.317-.234-1.456-.577-3.11-.342.035-.684.068-1.025.1-.228.774-.516,1.791-.912,2.844-1.1,2.936-1.912,1.09-3.246-.483a17.286,17.286,0,0,1-1.3-1.886l-.6.043c-.024.053-.049.112-.074.179-.476,1.26-1.179,3.411-2.34,2.677-.917-.58-1.206-2.241-1.4-2.619l-.139.007h0a32.014,32.014,0,0,1-1,4.014c-.9,2.676-.9.339-1.3-2.065a6.9,6.9,0,0,0-.614-1.825l-.489.017c.44,17.057.493,25.836,1.812,44.945,1.323,19.176,3.966,49.745,5.773,70.749.363,4.214.486,1.55.352,5.207-.008.236-.012.413-.013.541-.03.261-.063.544-.1.859-.925,8.054-2.948,26.252-3.3,36.265-.069,2.1-.461,2.255-.66,9.341-.254,9.022-.095,28.976-.451,36.576s-2.745,14.732.619,16.542c1.622.872,10.785-.666,14.82.429s10.556.332,14.9.431c.216,0,.231-.066.228-.091a1.132,1.132,0,0,0,.159.233c-.847-7.315.889-5.927-.413-14.772-1.3-8.816-5.165-21.661-5.781-31.847-.363-5.986-.635-13.138-.783-18.191-.124-4.217-.494-4.409-.831-7.806-.084-.842-.219-1.519-.339-2.325-.558-3.765-1.219-7.577-1.822-11.245-.143-.876-.3-1.81-.405-2.5-.219-1.391-.507-3.057-.661-4.206a35.7,35.7,0,0,1-.291-6.607c.013-.345.041-.5.062-.795s.055-.558.084-.828c.014-.133.034-.271.047-.372.025-.2.074-.518.1-.669.075-.5.241-1.243.337-1.6.116-.429.124-.43.235-.767.415-.442.827-.977,1.231-1.447.159-.186.326-.434.513-.672,6.912-8.79,11.489-22.574,14.751-34.542,7.662-28.108,11.273-57.193,13.2-86.871l-.311.038Z"/><path class="ae" d="M1185.6,300.17a19.837,19.837,0,0,1-.922,6.432c-2.55,8.736-8.456,17.7-12.5,25.017-.146.264-.351.6-.465.8-.948,1.724-2.005,3.755-2.792,5.4a5.1,5.1,0,0,0-.479,1.244,11.963,11.963,0,0,0-.283,2.4c-.025.334-.03.672-.032,1.1-.01,2.064.149,4.249.179,6.347v.014c.015,1.59.212,3.5.315,5,.12,1.757.21,3.139.221,4.818,0,.016,0,.028,0,.039-.011.383,0,.659-.031,1.058-.174,2.338-.412,4.788-.635,7.1-.049.511-.124,1.29-.159,1.641-.167,1.686-.31,3.082-.476,4.681-.056-1.527-.149-3.25-.2-4.662s-.03.043-.086-2-.442-7.321-.419-10.053.284-4.3.461-7.353c.106-1.816.442-5.489.63-7.794.086-1.052.2-2.419.331-3.6.219-1.981.278-2.962.53-5.194,1.277-11.308,2.349-23.282,4.762-34.459.011-.049.015-.071.026-.125.15-.726.191-.86.342-1.68,2.673-14.463,3.318-29.517,5.51-44.285,1.734-11.683,2.305-23.764,3.166-35.614.706.1,1.428-.67,2.129,0-.027,15.53.129,37.205.014,51.433C1184.621,281.8,1186.16,288.066,1185.6,300.17Z"/><path class="af" d="M1169.483,367.048a9.257,9.257,0,0,1-.01,1.507c-1.418,9.128,1.422-1.782-1.353,11.7-2.755,13.38-2.255,44.852-2.274,58.067s-.134-5.279-.065,2.886c-4.933-1.121-9.843-.452-14.593-.168.25-13.732.59-25.865.629-40.4s1.677-31.492,3.578-46.278c.555-4.315.026-9.347-.035-13.7-.012-.9-.148-3.539-.217-4.8-.742-13.577-2.172-34.921-2.877-46.765-1.083-18.2-5.2-40.407-2.747-55.039,1.318-7.868,1.1-7.247,1.33-14.535.947.571,2.015-.088,3.013.075.338,2,.608,5.388,1.313,6.983,1.436,3.249,2.025.7,2.4-1.969.16-1.144.31-3.951.4-5.354,1.889-.221,3.785-.335,5.693-.525.441,4.509,1.036,9,1.26,13.575a.144.144,0,0,0-.007.027c.318,10.491.5,21.5-.036,31.83s1.4,15.239,1.668,26.668-.547,31.45-2.809,43.34a18.614,18.614,0,0,0-.293,3,12.23,12.23,0,0,0,.524,3.876,1.082,1.082,0,0,0,.049.142c1.136,2.927,2.763,5.322,3.957,8.276.121.3.25.679.376,1.1a23.743,23.743,0,0,1,.728,3.014,35.81,35.81,0,0,1,.455,5.042c0,.048.005.135,0,.168a.352.352,0,0,0,0,.044C1169.489,361.647,1169.627,364.157,1169.483,367.048Z"/><path class="ae" d="M1165.518,218.458c2.18.382,4.571-1.086,6.661.112-.433,14.618-1.728,40.53-3.067,52.859-1.559,14.36-1.951,19.037-2.555,29.541-.6,10.487-.237,17.777-1.569,27.351-.517,3.723-.745,5.631-1.216,8.861-.27,1.846-.288,2.222-.492,3.834-.009.066-.008.092-.013.133a48.435,48.435,0,0,0-.279,5.6c.06,4.731.07,13.442.08,16.958a17.3,17.3,0,0,1-.139,3.017c-.024,1.441-.02.153-.056,1.176s-.122,2.221-.161,3.316c-1.491-.541-2.975-1.178-4.461-1.59.03-1.526.022-.654.064-2.512s-.075,3.546.039-1.215.861-18.884,1.274-24.145.059-1.1.328-5.029-.354,5.634.166-2.2,2.034-25.806,2.419-35.421-.4-17.356-.2-25.912.593-19.456.835-26.618.778-9.179,1.04-13.876.609-8.157.826-11.048S1165.325,220.574,1165.518,218.458Z"/><path class="ag" d="M1153.7,336.052c5.543.785,11.181,1.379,16.9,2.028-.329,1.139-.612,2.3-.907,3.461-5.195-.332-10.345-.393-15.4-.951Q1154,338.319,1153.7,336.052Z"/><path class="ag" d="M1173.825,347.566c-.483-2.132-1.69-3.59-2.658-5.207a7.124,7.124,0,0,0-1.311-1.445,1.549,1.549,0,0,0-.172-.124.866.866,0,0,0-.144-.093,1.293,1.293,0,0,0-1.024-.177c-.089.413-.108.474-.2.98-.049.265-.117.58-.2,1.093a33.6,33.6,0,0,0-.459,7.884,10.454,10.454,0,0,0,.716,2.991,3.779,3.779,0,0,0,.25.494,4.034,4.034,0,0,0,.523.737c.461.454,1.052,1,1.588.869C1173.219,354.947,1174.555,350.794,1173.825,347.566Zm-3.489,5.5a.792.792,0,0,1-.7-.212c-1.026-.777-1.286-2.386-1.333-3.928v-.014c.038-2.339.194-4.615.413-6.953.364.07.306-.127.726.42a19.346,19.346,0,0,1,2.719,3.9C1173.247,348.6,1172.683,352.691,1170.336,353.065Z"/><path class="ag" d="M1173.634,340.421c-.767-.661-2.485-.736-3.444-.762-.187-.005-.364-.013-.495-.011s-.141,0-.249,0c.046.2.1.478.138.662l.1.471c.033.154.064.306.092.439s.039.205.069.327c.408.259.933.539,1.3.786s-.024-.083.495.319,2.377,2.05,2.93,2.519,1.962,1.284,1.868-.136S1174.737,341.371,1173.634,340.421Zm1.521,4.281c-1.306-.676-3.628-3.148-4.972-4.241,1.019-.641,3.238.477,3.774,1.071S1176.466,345.382,1175.155,344.7Z"/><path class="ai" d="M1150.376,212.642c.159-.279.436-.672.78-.72.7-.1,1.159,1.317,1.277,1.685.68,2.115.239,5.218-.774,5.674-.218.1-.656.28-1.332-.4-.449.1-.85.11-1.3.215a2.294,2.294,0,0,0,.968,1.361,2.14,2.14,0,0,0,2.6-.735,5.006,5.006,0,0,0,.867-2.747,7.6,7.6,0,0,0-.33-4.03c-.235-.548-.816-1.915-1.814-1.87a1.94,1.94,0,0,0-1.662,1.611C1149.7,212.876,1150.05,212.667,1150.376,212.642Z"/><path class="ai" d="M1159.861,211.391c.163-.283.446-.682.8-.731.721-.1,1.187,1.332,1.309,1.7.7,2.141.245,5.284-.793,5.747-.224.1-.673.285-1.366-.4-.461.106-.872.113-1.332.219a2.315,2.315,0,0,0,.992,1.378,2.213,2.213,0,0,0,2.668-.748,5.033,5.033,0,0,0,.889-2.784,7.594,7.594,0,0,0-.339-4.08c-.24-.555-.836-1.938-1.86-1.891a1.98,1.98,0,0,0-1.7,1.634C1159.168,211.628,1159.526,211.416,1159.861,211.391Z"/><path class="ag" d="M1169.587,210.107c.168-.287.459-.691.821-.741.74-.1,1.218,1.347,1.343,1.723.716,2.168.252,5.351-.814,5.822-.229.1-.69.29-1.4-.4-.473.109-.894.116-1.366.225a2.337,2.337,0,0,0,1.018,1.393,2.288,2.288,0,0,0,2.736-.762,5.066,5.066,0,0,0,.913-2.821,7.6,7.6,0,0,0-.348-4.132c-.247-.561-.858-1.961-1.908-1.912a2.023,2.023,0,0,0-1.748,1.658C1168.877,210.349,1169.244,210.134,1169.587,210.107Z"/><path class="ag" d="M1179.566,208.79c.171-.29.47-.7.842-.752.759-.1,1.25,1.362,1.378,1.743.734,2.195.258,5.42-.835,5.9-.235.1-.708.3-1.438-.406-.485.111-.917.119-1.4.23a2.091,2.091,0,0,0,3.851.633,5.085,5.085,0,0,0,.937-2.858,7.6,7.6,0,0,0-.357-4.186c-.253-.568-.88-1.985-1.958-1.933a2.065,2.065,0,0,0-1.793,1.683C1178.837,209.036,1179.214,208.818,1179.566,208.79Z"/><path class="ag" d="M1193.41,206.963c.177-.3.486-.714.872-.767.786-.109,1.3,1.383,1.427,1.771.761,2.232.267,5.516-.865,6.005-.244.1-.734.3-1.489-.41-.5.114-.951.124-1.452.237a2.4,2.4,0,0,0,1.082,1.432,2.483,2.483,0,0,0,2.908-.8,5.136,5.136,0,0,0,.97-2.911,7.606,7.606,0,0,0-.37-4.259c-.262-.578-.911-2.019-2.028-1.963a2.126,2.126,0,0,0-1.857,1.717C1192.655,207.216,1193.045,206.992,1193.41,206.963Z"/><path class="ag" d="M1198.207,206.33c.179-.3.492-.718.882-.772.8-.11,1.311,1.39,1.445,1.78.77,2.245.271,5.549-.876,6.042-.246.106-.742.3-1.506-.411-.509.115-.963.125-1.47.239a2.42,2.42,0,0,0,1.095,1.441,2.523,2.523,0,0,0,2.943-.8,5.141,5.141,0,0,0,.982-2.929,7.612,7.612,0,0,0-.374-4.285c-.266-.581-.923-2.03-2.053-1.973a2.148,2.148,0,0,0-1.88,1.728C1197.443,206.585,1197.838,206.36,1198.207,206.33Z"/><path class="ab" d="M94.6,217.82l111.571,11.758V412.253S90.277,426.281,90.99,427.044s0-205.724,0-205.724l.949-3.78Z"/><path class="ac" d="M94.6,217.82l111.571,11.758V412.253S90.277,426.281,90.99,427.044s0-205.724,0-205.724l.949-3.78Z"/><line class="ac" y2="189.205" transform="translate(153.882 227.036)"/><line class="ac" x1="110.049" y2="5.538" transform="translate(93.961 351.352)"/><line class="ac" x1="110.049" y1="3.213" transform="translate(93.961 285.836)"/><path class="ad" d="M117.4,206.6s1.813.039-1.886,2.522c-3.731,2.5-1.251-3.388-1.251-3.388l-2.769.158s-.89,1.205-1.747.736a5.956,5.956,0,0,0-2.6-.312l-2,.621s-1.049-3.508-1.688-2.53c-.525.805-2.667-.37-4.305-1.046l-2.06-.221c-.873.428-1.424,1.424-2.331.387-1.233-1.41-.04,2.5-.618,1.51s-1.971.274-2.785-2.365c-.018-.057-.036-.109-.053-.157l-.549-.06c-.473,1.2-.963,5.052-2.273,5.158-1.715.139-2.317-2.507-2.77-5.719l-1.519-.174a9.092,9.092,0,0,0-.113,2.71c.355,2.761-3.1,2.312-3.1,2.312s-.1-2.917-.62-3.64a18.257,18.257,0,0,0-2.52-2.135q-1.332-.165-2.672-.335c-.142.511-.3,1.139-.54,1.783-.733,1.95-.474,2.031-2.755,1.562s-1.727,1.569-2.133-.252c-.372-1.665-.337-1.824-.835-3.925l-1.49-.21a33.546,33.546,0,0,1-1.334,3.145c-1.623,3.215-2.818.717-4.8-1.63a29.965,29.965,0,0,1-1.951-2.738l-.9-.147c-.036.057-.073.121-.112.2-.719,1.391-1.787,3.811-3.56,2.525-1.41-1.023-1.855-3.184-2.151-3.719l-.216-.038h0c-.346.641-.152,1.624-1.549,4.665s-1.4.127-2.039-3.018a9.368,9.368,0,0,0-.964-2.5c-.257-.05-.513-.1-.771-.149.694,21.556.776,32.584,2.844,56.79,2.059,24.1,6.121,62.123,8.862,87.9.546,5.14.732,1.86.531,6.36-.013.29-.019.507-.02.664-.046.324-.1.675-.15,1.066-1.4,10.013-4.482,32.829-5.021,45.313-.107,2.626-.71,2.912-1.017,11.763-.391,11.284-.147,36.023-.7,45.613s-4.281,19.625.955,20.275c2.487.309,16.1-5.78,21.87-6.253,2.825-.231,5.757,2.875,11.035.545,7.509-3.316,6.309-5.49,9.167-6.323.281-.081.3-.168.3-.2a.79.79,0,0,0,.206.2c-1.1-8.009,1.152-7.094-.536-16.68-1.693-9.622-6.814-23.175-7.64-34.793-.487-6.846-.855-15.079-1.054-20.914-.167-4.873-.667-5.024-1.124-8.911-.113-.965-.3-1.729-.458-2.646-.76-4.293-1.661-8.639-2.486-12.841-.2-1.005-.406-2.078-.556-2.876-.3-1.6-.7-3.52-.91-4.85a35.277,35.277,0,0,1-.4-7.732c.019-.406.056-.591.086-.939s.076-.661.116-.982c.019-.158.047-.321.065-.442.035-.237.1-.614.133-.795a18.831,18.831,0,0,1,.464-1.906c.16-.513.171-.515.324-.92.57-.552,1.133-1.211,1.686-1.793.217-.23.444-.532.7-.825,9.234-10.578,15.159-26.367,19.292-39.786,9.428-30.61,13.742-61.838,16.009-93.585l-.365-.045Z"/><path class="ae" d="M102.174,298.711c-.192,3.669-.165,4.177-1.169,7.216C97.745,315.8,90.014,326.2,84.574,334.9c-.2.318-.479.718-.635.967-1.3,2.083-2.75,4.545-3.838,6.542a5.839,5.839,0,0,0-.664,1.508,12.4,12.4,0,0,0-.394,2.854c-.034.4-.042.8-.044,1.306-.014,2.435.207,4.995.249,7.465v.02c.021,1.87.294,4.1.437,5.849.167,2.052.291,3.666.307,5.642,0,.018,0,.033,0,.046-.015.452,0,.775-.043,1.25-.24,2.782-.571,5.71-.881,8.481-.069.612-.173,1.545-.222,1.966-.233,2.022-.432,3.7-.664,5.622-.078-1.793-.208-3.812-.279-5.472s-.042.058-.12-2.352-.619-8.588-.587-11.826.4-5.132.646-8.764c.147-2.161.616-6.539.878-9.28.12-1.25.281-2.873.462-4.272.3-2.354.385-3.515.735-6.162,1.765-13.355,3.236-27.4,6.516-40.363l.035-.144c.2-.836.258-.99.462-1.934,3.575-16.53,4.429-33.783,7.311-50.355,2.256-12.968,2.993-26.566,4.1-39.774.9.318,1.828-.337,2.719.623-.034,17.493.164,41.946.018,57.957C100.936,277.966,102.883,285.144,102.174,298.711Z"/><path class="af" d="M80.883,376.709a9.386,9.386,0,0,1-.013,1.773c-1.968,11.038,1.955-2.352-1.877,14.052-3.865,16.543-3.158,53.773-3.186,69.472.129,8.533-.188-6.213-.091,3.455-7.058.84-14.284,3.879-21.477,6.454.384-17.122.9-32.274.964-50.272s2.553-39.3,5.417-57.792c.829-5.356.038-11.442-.052-16.759-.019-1.1-.222-4.318-.326-5.858-1.115-16.6-3.279-42.857-4.353-57.515-1.658-22.646-8.055-51.133-4.225-68.774,2.036-9.38,1.695-8.679,2.055-17.646,1.452,1.029,3.082.575,4.593,1.112.511,2.565.918,6.815,1.978,8.989,2.145,4.4,3.019,1.466,3.569-1.663.235-1.342.457-4.705.6-6.379,2.772.349,5.524.826,8.262,1.209.629,5.522,1.476,11.055,1.793,16.563,0,.006-.011.022-.01.03.45,12.565.713,25.695-.051,37.891-.765,12.216,1.978,18.3,2.353,31.872s-.769,37.288-3.976,51.571a19.027,19.027,0,0,0-.418,3.611,12.013,12.013,0,0,0,.747,4.581,1.011,1.011,0,0,0,.07.165c1.613,3.369,3.9,6.029,5.575,9.376a12.711,12.711,0,0,1,.522,1.246,22.7,22.7,0,0,1,1.011,3.453,34.874,34.874,0,0,1,.629,5.862c0,.056.007.158.005.2s0,.039,0,.051C80.891,370.36,81.082,373.286,80.883,376.709Z"/><path class="ae" d="M75.345,200.837c3.06,1.137,6.373.154,9.234,2.2-.591,16.939-2.363,46.974-4.209,61.245-2.167,16.759-2.716,22.256-3.562,34.66-.848,12.427-.334,21.073-2.213,32.5-.734,4.467-1.058,6.759-1.73,10.652-.385,2.231-.411,2.682-.7,4.63-.012.08-.011.11-.018.159a49.241,49.241,0,0,0-.4,6.729c.085,5.656.1,16.081.114,20.288s-.164,1.907-.2,3.637a13.5,13.5,0,0,1-.081,1.418c-.051,1.232-.175,2.685-.23,4-2.15-.345-4.308-.809-6.487-1.006.045-1.859.032-.8.1-3.062s-.112,4.319.057-1.481,1.263-23.019,1.867-29.429.087-1.331.48-6.109-.516,6.843.241-2.673c.757-9.5,2.947-31.127,3.5-42.649s-.579-20.847-.282-31.087.85-23.217,1.2-31.738S73.131,222.941,73.5,217.4s.865-9.549,1.172-12.925S75.072,203.291,75.345,200.837Z"/><path class="ag" d="M58.075,341.6c8.25.471,16.373.693,24.347.965-.452,1.365-.841,2.757-1.247,4.143-7.274.122-14.7.571-22.2.411Q58.527,344.363,58.075,341.6Z"/><path class="ag" d="M86.807,353.306c-.651-2.423-2.288-3.992-3.609-5.782a8.127,8.127,0,0,0-1.8-1.565,1.991,1.991,0,0,0-.237-.129,1.149,1.149,0,0,0-.2-.1,2.009,2.009,0,0,0-1.419-.11c-.123.495-.15.569-.281,1.175-.069.317-.164.695-.277,1.309a34.236,34.236,0,0,0-.64,9.36,10.02,10.02,0,0,0,1,3.435,3.574,3.574,0,0,0,.346.547,4.1,4.1,0,0,0,.726.794c.636.467,1.451,1.027,2.188.792C85.989,361.96,87.79,356.962,86.807,353.306Zm-4.749,6.853a1.158,1.158,0,0,1-.964-.154c-1.42-.775-1.781-2.638-1.846-4.45v-.017c.053-2.762.271-5.462.574-8.24.505.046.424-.18,1.006.422A20.561,20.561,0,0,1,84.556,352C86.028,354.57,85.264,359.407,82.058,360.159Z"/><path class="ag" d="M86.55,345.028c-1.037-.7-3.377-.63-4.693-.573-.256.011-.5.018-.682.032s-.194.008-.343.026c.063.232.137.554.19.766s.09.365.135.543.087.354.126.507.054.237.1.378c.563.264,1.282.54,1.788.792s-.032-.1.677.323,3.222,2.142,3.965,2.627,2.62,1.27,2.5-.356S88.034,346.027,86.55,345.028Zm2.044,4.813c-1.755-.648-4.9-3.293-6.747-4.445,1.4-.845,4.416.252,5.139.891S90.341,350.486,88.594,349.841Z"/><path class="ag" d="M242.2,216.75q-.011.227-.036.426a2.784,2.784,0,0,0-2.521-2.723L43.28,188.862s-2.892-.837-3.33,2.091c-.026-.275-.038-.565-.038-.877.014-3.838,3.386-2.856,3.386-2.856l196.354,25.933S242.358,213.267,242.2,216.75Z"/><path class="ah" d="M242.161,217.176c-.351,2.985-2.792,2.19-2.792,2.19L43.3,195.109c-1.287-.265-3.076-1.049-3.348-4.153v0c.438-2.928,3.33-2.091,3.33-2.091l196.36,25.591A2.784,2.784,0,0,1,242.161,217.176Z"/><path class="ag" d="M52.989,188.6a1.437,1.437,0,0,1,1.2-.6c1.078.138,1.773,2.051,1.954,2.547,1.035,2.852.364,6.525-1.182,6.743-.334.047-1.007.124-2.048-.948-.695-.025-1.316-.156-2.013-.182a3.968,3.968,0,0,0,1.5,2.028,3.513,3.513,0,0,0,3.992-.031c.91-.679,1.082-1.7,1.318-3.09a8.145,8.145,0,0,0-.5-5.079c-.356-.761-1.241-2.66-2.768-2.974-1.588-.326-2.683.925-2.563,1.386C51.945,188.642,52.485,188.51,52.989,188.6Z"/><path class="ag" d="M67.222,190.478a1.387,1.387,0,0,1,1.165-.6c1.045.133,1.719,2.017,1.894,2.505,1,2.806.354,6.424-1.146,6.642-.324.048-.977.124-1.986-.93-.674-.023-1.276-.151-1.952-.175a3.9,3.9,0,0,0,1.456,1.995,3.366,3.366,0,0,0,3.871-.038c.883-.67,1.05-1.675,1.279-3.046a8.137,8.137,0,0,0-.487-5c-.346-.749-1.2-2.617-2.685-2.923-1.54-.319-2.6.916-2.485,1.369C66.209,190.521,66.733,190.391,67.222,190.478Z"/><path class="ag" d="M81.027,192.3a1.344,1.344,0,0,1,1.13-.592c1.015.13,1.669,1.984,1.838,2.464.975,2.762.344,6.328-1.112,6.546-.314.047-.947.123-1.927-.913-.653-.022-1.238-.147-1.893-.169a3.831,3.831,0,0,0,1.412,1.962,3.227,3.227,0,0,0,3.756-.044c.857-.662,1.019-1.652,1.241-3A8.118,8.118,0,0,0,85,193.625c-.336-.737-1.168-2.576-2.605-2.875-1.494-.31-2.525.908-2.411,1.354C80.045,192.344,80.553,192.215,81.027,192.3Z"/><path class="ag" d="M94.424,194.067a1.3,1.3,0,0,1,1.1-.585c.985.125,1.62,1.951,1.785,2.424.946,2.72.333,6.234-1.08,6.451-.305.047-.92.124-1.87-.9-.635-.02-1.2-.142-1.838-.163a3.755,3.755,0,0,0,1.371,1.93,3.093,3.093,0,0,0,3.646-.05c.831-.653.989-1.629,1.2-2.96a8.108,8.108,0,0,0-.458-4.853c-.326-.725-1.134-2.535-2.529-2.827-1.45-.3-2.451.9-2.34,1.339C93.471,194.113,93.964,193.985,94.424,194.067Z"/><path class="ag" d="M111.842,196.366a1.246,1.246,0,0,1,1.054-.577c.947.121,1.557,1.909,1.716,2.372.909,2.665.32,6.112-1.038,6.328-.294.047-.884.124-1.8-.873-.61-.019-1.156-.137-1.767-.156a3.676,3.676,0,0,0,1.318,1.889,2.928,2.928,0,0,0,3.5-.057c.8-.643.951-1.6,1.158-2.906a8.091,8.091,0,0,0-.441-4.757c-.313-.71-1.09-2.484-2.431-2.766-1.394-.293-2.356.888-2.25,1.318C110.925,196.413,111.4,196.286,111.842,196.366Z"/><path class="ai" d="M117.584,197.124a1.23,1.23,0,0,1,1.04-.575c.935.12,1.537,1.9,1.693,2.356.9,2.646.317,6.072-1.024,6.287-.289.047-.873.124-1.775-.866-.6-.018-1.14-.135-1.744-.153a3.667,3.667,0,0,0,1.3,1.876,2.877,2.877,0,0,0,3.46-.061c.789-.639.939-1.589,1.143-2.887a8.092,8.092,0,0,0-.435-4.726c-.309-.705-1.076-2.466-2.4-2.745-1.376-.29-2.325.884-2.22,1.311C116.679,197.172,117.147,197.045,117.584,197.124Z"/><path class="ad" d="M187.505,215.081s-1.538-.353,1.588,2.711c3.1,3.04,1.046-2.836,1.046-2.836l2.294.728s.733,1.278,1.434,1.03a4.42,4.42,0,0,1,2.116.254l1.613.964s.839-2.921,1.348-1.916c.418.824,2.11.215,3.394-.05l1.6.223c.674.553,1.1,1.537,1.8.808.943-.986.03,2.2.473,1.444s1.5.624,2.118-1.513c.014-.047.027-.088.04-.126l.414.056c.357,1.131.725,4.569,1.706,4.906,1.277.439,1.723-1.725,2.057-4.4q.56.075,1.119.147a9.285,9.285,0,0,1,.082,2.343c-.26,2.3,2.261,2.551,2.261,2.551a10.235,10.235,0,0,1,.449-2.981,9.457,9.457,0,0,1,1.81-1.333q.952.114,1.9.224c.1.457.21,1.014.381,1.6.518,1.772.335,1.793,1.934,1.813s1.2,1.618,1.484.175c.256-1.317.233-1.456.576-3.11.342.035.684.068,1.025.1.228.774.516,1.791.912,2.844,1.1,2.936,1.912,1.09,3.246-.483a17.145,17.145,0,0,0,1.3-1.886l.6.043c.024.053.049.112.075.179.475,1.26,1.178,3.411,2.339,2.677.917-.58,1.206-2.241,1.4-2.619l.139.007h0a32.21,32.21,0,0,0,1,4.014c.9,2.676.9.339,1.3-2.065a6.892,6.892,0,0,1,.614-1.825l.489.017c-.44,17.057-.492,25.836-1.812,44.945-1.323,19.176-3.966,49.745-5.773,70.749-.363,4.214-.486,1.55-.352,5.207.008.236.012.413.013.541.03.261.064.544.1.859.925,8.054,2.948,26.252,3.3,36.265.069,2.1.461,2.255.66,9.341.254,9.022.1,28.976.451,36.576s2.745,14.732-.619,16.542c-1.622.872-10.785-.666-14.82.429s-10.556.332-14.9.431c-.216,0-.231-.066-.228-.091a1.082,1.082,0,0,1-.159.233c.847-7.315-.889-5.927.413-14.772,1.3-8.816,5.165-21.661,5.781-31.847.363-5.986.635-13.138.783-18.191.124-4.217.494-4.409.832-7.806.083-.842.218-1.519.338-2.325.558-3.765,1.219-7.577,1.822-11.245.144-.876.3-1.81.4-2.5.219-1.391.507-3.057.661-4.206a35.688,35.688,0,0,0,.291-6.607c-.013-.345-.04-.5-.062-.795s-.055-.558-.084-.828c-.014-.133-.034-.271-.047-.372-.025-.2-.074-.518-.1-.669-.075-.5-.241-1.243-.337-1.6-.116-.429-.124-.43-.235-.767-.415-.442-.827-.977-1.23-1.447-.16-.186-.326-.434-.514-.672-6.912-8.79-11.489-22.574-14.751-34.542-7.662-28.108-11.273-57.193-13.2-86.871l.311.038Z"/><path class="ae" d="M199.96,300.17a19.864,19.864,0,0,0,.922,6.432c2.55,8.736,8.456,17.7,12.5,25.017.146.264.352.6.465.8.948,1.724,2,3.755,2.793,5.4a5.132,5.132,0,0,1,.478,1.244,11.961,11.961,0,0,1,.283,2.4c.025.334.03.672.032,1.1.01,2.064-.149,4.249-.179,6.347v.014c-.015,1.59-.212,3.5-.315,5-.12,1.757-.21,3.139-.221,4.818,0,.016,0,.028,0,.039.011.383,0,.659.031,1.058.174,2.338.412,4.788.635,7.1.049.511.124,1.29.159,1.641.167,1.686.31,3.082.476,4.681.056-1.527.149-3.25.2-4.662s.03.043.086-2,.442-7.321.419-10.053-.284-4.3-.461-7.353c-.106-1.816-.442-5.489-.63-7.794-.086-1.052-.2-2.419-.331-3.6-.219-1.981-.277-2.962-.529-5.194-1.278-11.308-2.35-23.282-4.763-34.459-.01-.049-.014-.071-.026-.125-.15-.726-.191-.86-.342-1.68-2.673-14.463-3.318-29.517-5.51-44.285-1.734-11.683-2.305-23.764-3.165-35.614-.707.1-1.429-.67-2.13,0,.027,15.53-.129,37.205-.014,51.433C200.937,281.8,199.4,288.066,199.96,300.17Z"/><path class="af" d="M216.075,367.048a9.247,9.247,0,0,0,.01,1.507c1.419,9.128-1.422-1.782,1.353,11.7,2.755,13.38,2.255,44.852,2.274,58.067s.134-5.279.065,2.886c4.934-1.121,9.843-.452,14.593-.168-.25-13.732-.589-25.865-.629-40.4s-1.677-31.492-3.578-46.278c-.555-4.315-.026-9.347.035-13.7.012-.9.148-3.539.217-4.8.742-13.577,2.172-34.921,2.877-46.765,1.084-18.2,5.2-40.407,2.747-55.039-1.318-7.868-1.1-7.247-1.33-14.535-.946.571-2.015-.088-3.012.075-.339,2-.609,5.388-1.314,6.983-1.436,3.249-2.025.7-2.4-1.969-.159-1.144-.31-3.951-.4-5.354-1.889-.221-3.785-.335-5.693-.525-.441,4.509-1.036,9-1.26,13.575a.143.143,0,0,1,.007.027c-.317,10.491-.5,21.5.036,31.83s-1.4,15.239-1.667,26.668.546,31.45,2.808,43.34a18.616,18.616,0,0,1,.293,3,12.232,12.232,0,0,1-.524,3.876,1.08,1.08,0,0,1-.049.142c-1.135,2.927-2.762,5.322-3.957,8.276-.12.3-.25.679-.375,1.1a23.741,23.741,0,0,0-.729,3.014,35.8,35.8,0,0,0-.455,5.042c0,.048-.005.135,0,.168a.36.36,0,0,1,0,.044C216.069,361.647,215.931,364.157,216.075,367.048Z"/><path class="ae" d="M220.04,218.458c-2.18.382-4.57-1.086-6.661.112.434,14.618,1.728,40.53,3.067,52.859,1.559,14.36,1.951,19.037,2.555,29.541.6,10.487.238,17.777,1.569,27.351.518,3.723.745,5.631,1.217,8.861.269,1.846.287,2.222.491,3.834.009.066.008.092.013.133a48.451,48.451,0,0,1,.279,5.6c-.06,4.731-.07,13.442-.08,16.958a17.314,17.314,0,0,0,.139,3.017c.024,1.441.02.153.056,1.176s.122,2.221.161,3.316c1.491-.541,2.976-1.178,4.461-1.59-.03-1.526-.022-.654-.064-2.512s.075,3.546-.039-1.215-.86-18.884-1.273-24.145-.06-1.1-.329-5.029.354,5.634-.165-2.2-2.034-25.806-2.42-35.421.4-17.356.2-25.912-.592-19.456-.835-26.618-.778-9.179-1.04-13.876-.609-8.157-.826-11.048S220.233,220.574,220.04,218.458Z"/><path class="ag" d="M231.854,336.052c-5.543.785-11.181,1.379-16.9,2.028.33,1.139.612,2.3.907,3.461,5.2-.332,10.345-.393,15.4-.951C231.457,339.076,231.652,337.563,231.854,336.052Z"/><path class="ag" d="M214.826,355.568c.536.134,1.127-.415,1.588-.869a3.937,3.937,0,0,0,.523-.737,3.662,3.662,0,0,0,.25-.494,10.419,10.419,0,0,0,.716-2.991,33.552,33.552,0,0,0-.459-7.884c-.082-.513-.149-.828-.2-1.093-.1-.506-.114-.567-.2-.98a1.293,1.293,0,0,0-1.024.177.863.863,0,0,0-.144.093,1.561,1.561,0,0,0-.172.124,7.156,7.156,0,0,0-1.311,1.445c-.968,1.617-2.175,3.075-2.658,5.207C211,350.794,212.339,354.947,214.826,355.568Zm-1.43-9.289a19.347,19.347,0,0,1,2.719-3.9c.42-.547.362-.35.727-.42.218,2.338.375,4.614.413,6.953v.014c-.047,1.542-.307,3.151-1.333,3.928a.792.792,0,0,1-.7.212C212.875,352.691,212.311,348.6,213.4,346.279Z"/><path class="ag" d="M209.121,345.038c-.094,1.42,1.315.606,1.868.136s2.411-2.117,2.93-2.519.125-.072.495-.319.894-.527,1.3-.786c.029-.122.041-.194.069-.327s.058-.285.091-.439l.1-.471c.039-.184.093-.462.138-.662-.108-.007-.118,0-.249,0s-.308.006-.5.011c-.958.026-2.677.1-3.444.762C210.821,341.371,209.215,343.618,209.121,345.038Zm2.48-3.506c.536-.594,2.755-1.712,3.775-1.071-1.345,1.093-3.666,3.565-4.973,4.241S211.064,342.127,211.6,341.532Z"/><path class="ai" d="M235.182,212.642c-.159-.279-.436-.672-.78-.72-.7-.1-1.158,1.317-1.277,1.685-.68,2.115-.239,5.218.774,5.674.218.1.656.28,1.332-.4.449.1.85.11,1.3.215a2.289,2.289,0,0,1-.968,1.361,2.138,2.138,0,0,1-2.6-.735,5,5,0,0,1-.868-2.747,7.587,7.587,0,0,1,.331-4.03c.234-.548.815-1.915,1.813-1.87a1.94,1.94,0,0,1,1.662,1.611C235.857,212.876,235.508,212.667,235.182,212.642Z"/><path class="ai" d="M225.7,211.391c-.163-.283-.447-.682-.8-.731-.721-.1-1.187,1.332-1.308,1.7-.7,2.141-.246,5.284.793,5.747.223.1.673.285,1.365-.4.461.106.873.113,1.333.219a2.322,2.322,0,0,1-.993,1.378,2.211,2.211,0,0,1-2.667-.748,5.034,5.034,0,0,1-.89-2.784,7.594,7.594,0,0,1,.339-4.08c.241-.555.836-1.938,1.86-1.891a1.979,1.979,0,0,1,1.7,1.634C226.39,211.628,226.032,211.416,225.7,211.391Z"/><path class="ag" d="M215.971,210.107c-.167-.287-.459-.691-.821-.741-.74-.1-1.218,1.347-1.343,1.723-.716,2.168-.252,5.351.814,5.822.229.1.69.29,1.4-.4.473.109.894.116,1.366.225a2.337,2.337,0,0,1-1.018,1.393,2.289,2.289,0,0,1-2.736-.762,5.065,5.065,0,0,1-.913-2.821,7.6,7.6,0,0,1,.348-4.132c.247-.561.858-1.961,1.908-1.912a2.023,2.023,0,0,1,1.748,1.658C216.681,210.349,216.314,210.134,215.971,210.107Z"/><path class="ag" d="M205.992,208.79c-.171-.29-.47-.7-.842-.752-.759-.1-1.25,1.362-1.377,1.743-.735,2.195-.259,5.42.834,5.9.236.1.709.3,1.438-.406.485.111.918.119,1.4.23a2.092,2.092,0,0,1-3.852.633,5.093,5.093,0,0,1-.937-2.858,7.6,7.6,0,0,1,.357-4.186c.253-.568.88-1.985,1.958-1.933a2.065,2.065,0,0,1,1.793,1.683C206.721,209.036,206.344,208.818,205.992,208.79Z"/><path class="ag" d="M192.149,206.963c-.178-.3-.487-.714-.872-.767-.787-.109-1.295,1.383-1.427,1.771-.762,2.232-.268,5.516.864,6.005.244.1.734.3,1.489-.41.5.114.951.124,1.452.237a2.4,2.4,0,0,1-1.082,1.432,2.483,2.483,0,0,1-2.908-.8,5.136,5.136,0,0,1-.97-2.911,7.613,7.613,0,0,1,.37-4.259c.262-.578.912-2.019,2.028-1.963a2.126,2.126,0,0,1,1.857,1.717C192.9,207.216,192.513,206.992,192.149,206.963Z"/><path class="ag" d="M187.352,206.33c-.18-.3-.493-.718-.883-.772-.8-.11-1.311,1.39-1.444,1.78-.771,2.245-.271,5.549.875,6.042.246.106.742.3,1.507-.411.508.115.962.125,1.469.239a2.416,2.416,0,0,1-1.1,1.441,2.523,2.523,0,0,1-2.943-.8,5.148,5.148,0,0,1-.982-2.929,7.612,7.612,0,0,1,.374-4.285c.266-.581.923-2.03,2.053-1.973a2.148,2.148,0,0,1,1.88,1.728C188.115,206.585,187.721,206.36,187.352,206.33Z"/></g></svg>