<svg xmlns="http://www.w3.org/2000/svg" xmlns:xlink="http://www.w3.org/1999/xlink" width="340.301" height="405.166" viewBox="0 0 340.301 405.166"><defs><style>.a{fill:#9197d0;}.b{fill:url(#a);}.c{fill:#dae0f0;}.d{fill:#fff;}.e{fill:#452197;}.f{fill:url(#b);}.g{fill:#4a3748;}.h{fill:#00a1e8;}.i{fill:#e9eae8;opacity:0.53;}.j{fill:#9bb6cc;}.k{fill:#dbfaff;}.l{fill:#b7cbd2;}.m{fill:#72727a;}.n{fill:#bac5d6;}.o{fill:#dde1e8;}.p,.v{fill:#947dce;}.q{fill:#ffc84f;}.r{fill:#d19442;}.s,.t{fill:#d8a35d;}.t,.v{fill-rule:evenodd;}.u{fill:#a088db;}</style><linearGradient id="a" x1="159.922" y1="-87.482" x2="160.314" y2="-86.589" gradientUnits="objectBoundingBox"><stop offset="0" stop-color="#c7cce8"/><stop offset="1" stop-color="#dae0f0"/></linearGradient><linearGradient id="b" x1="589.522" y1="-518.288" x2="590.594" y2="-518.288" gradientUnits="objectBoundingBox"><stop offset="0" stop-color="#351797"/><stop offset="1" stop-color="#264fcf"/></linearGradient></defs><g transform="translate(-585.957 -302.913)"><g transform="translate(585.957 552.532)"><path class="a" d="M609.374,593.148,587.316,580.2a2.736,2.736,0,0,1-1.238-1.331c-.1-.05-.095-.372-.095-.372a1.786,1.786,0,0,1,0-.632l.032-2.569,2.144-.241.36-.2,5.009-.889,40.1-22.759c2.384-1.35,6-1.478,8.039-.282l18.964,11.134,4.49-.8-.031,2.552c.2,1.083-.456,2.256-1.99,3.127l-45.689,25.933C615.029,594.217,611.414,594.345,609.374,593.148Z" transform="translate(-585.957 -545.373)"/><g transform="translate(0)"><path class="b" d="M662.3,558.922l-13.122-7.578-3.848,4.23,12.663,7.31-21.268,12.28-5.414,5.949,30.4-17.55C664.081,562.193,664.35,560.1,662.3,558.922Z" transform="translate(-584.644 -545.337)"/><path class="c" d="M617.523,590c-2.371,1.369-5.987,1.524-8.036.341l-22.153-12.789c-2.047-1.182-1.782-3.272.593-4.641l45.5-26.268c2.371-1.371,5.99-1.524,8.036-.342l22.152,12.79c2.05,1.182,1.781,3.271-.593,4.641Z" transform="translate(-585.958 -545.506)"/><g transform="translate(5.162 2.981)"><path class="d" d="M634.436,548.7l-10.8,6.238-10.625,6.135-10.8,6.238L591.485,573.5l24.707,14.265,10.8-6.238,10.629-6.136,10.8-6.238,10.717-6.187Z" transform="translate(-590.959 -548.394)"/><path class="e" d="M590.974,573.5l43.477-25.1,25.233,14.566-43.478,25.1Zm43.477-24.5-42.425,24.5,24.181,13.962,42.429-24.5Z" transform="translate(-590.974 -548.403)"/></g><path class="f" d="M653.148,556.286a1.4,1.4,0,0,1-1.266.053l-6.893-3.981c-.325-.187-.283-.513.092-.731a1.406,1.406,0,0,1,1.267-.052l6.892,3.981c.325.186.283.513-.092.73Z" transform="translate(-584.254 -545.334)"/><path class="g" d="M653.339,556.4c.476-.276.519-.7.095-.946l-6.9-3.981a1.812,1.812,0,0,0-1.633.056c-.476.275-.519.7-.1.944l6.9,3.98A1.817,1.817,0,0,0,653.339,556.4Zm-.276-.732c.222.129.18.359-.092.518a1,1,0,0,1-.9.053l-6.9-3.981c-.222-.129-.18-.36.092-.519a1.011,1.011,0,0,1,.9-.052Z" transform="translate(-584.261 -545.338)"/></g><path class="h" d="M591.485,572.8l1.178.679-.868-.857Z" transform="translate(-585.797 -544.721)"/><path class="i" d="M624.68,583.314l5.069-3.2-.057-29.2-4.413,2.741Z" transform="translate(-584.836 -545.349)"/><path class="i" d="M621.266,585.3l1.813-1.215-.056-29.2-1.157.753Z" transform="translate(-584.934 -545.234)"/></g><g transform="translate(630.871 302.913)"><g transform="translate(90.951 161.465)"><g transform="translate(0 84.952)"><path class="j" d="M722.632,589.292,789.4,549.028a4.408,4.408,0,0,1,4-.169L898.665,610.5l5.984-2.772-.557,6.714a1.8,1.8,0,0,1-1.006,1.307l-76.356,43.2a4.726,4.726,0,0,1-4.184.009L718.7,593.87a1.162,1.162,0,0,1-.694-1.118l.631-6.188,4.288-.126Z" transform="translate(-717.998 -542.219)"/><path class="k" d="M789.974,542.955a4.535,4.535,0,0,1,4-.177l109.858,63.99c1.158.693,1.066,1.8-.213,2.557L827.3,652.619a4.477,4.477,0,0,1-4.182.02L719.306,587.891c-1.013-.582-.906-1.625.239-2.346Z" transform="translate(-717.98 -542.394)"/><path class="l" d="M788.848,554.664l-5.5,3.292-4.869-2.879,5.459-3.3Z" transform="translate(-716.246 -542.123)"/><path class="l" d="M797.863,559.972l-5.523,3.319-4.932-2.924,5.518-3.285Z" transform="translate(-715.988 -541.969)"/><path class="l" d="M781.174,559.3l-5.472,3.277-4.841-2.883,5.432-3.264Z" transform="translate(-716.467 -541.988)"/><path class="l" d="M782.015,567.622l-5.472,3.256-12.168-7.286,5.441-3.3Z" transform="translate(-716.655 -541.876)"/><path class="l" d="M775.462,571.552l-5.431,3.232-12.1-7.275,5.389-3.291Z" transform="translate(-716.841 -541.762)"/><path class="l" d="M768.831,575.485l-5.415,3.268-12.054-7.305,5.379-3.256Z" transform="translate(-717.032 -541.647)"/><path class="l" d="M803.918,563.546l-5.551,3.291-4.95-2.909,5.533-3.307Z" transform="translate(-715.814 -541.867)"/><path class="l" d="M810.006,567.13l-5.585,3.324-4.962-2.955L805,564.208Z" transform="translate(-715.639 -541.763)"/><path class="l" d="M816.125,570.705l-5.606,3.34-4.994-2.984,5.574-3.288Z" transform="translate(-715.463 -541.659)"/><path class="l" d="M788.348,563.556l-5.49,3.3-4.864-2.921,5.455-3.275Z" transform="translate(-716.26 -541.865)"/><path class="l" d="M794.338,567.133l-5.5,3.294-4.893-2.928,5.483-3.3Z" transform="translate(-716.088 -541.763)"/><path class="l" d="M800.415,570.7l-5.547,3.317-4.949-2.963,5.536-3.275Z" transform="translate(-715.915 -541.659)"/><path class="l" d="M806.481,574.305l-5.56,3.317-4.977-2.976,5.562-3.289Z" transform="translate(-715.74 -541.555)"/><path class="l" d="M812.6,577.938l-5.6,3.285-5-2.957,5.577-3.311Z" transform="translate(-715.565 -541.451)"/><path class="l" d="M818.714,581.6l-5.6,3.27-5.018-2.956,5.6-3.311Z" transform="translate(-715.388 -541.346)"/><path class="l" d="M824.911,585.225l-5.641,3.314-5.043-3.013,5.62-3.3Z" transform="translate(-715.211 -541.241)"/><path class="l" d="M831.1,588.914l-5.64,3.3L820.38,589.2l5.658-3.3Z" transform="translate(-715.033 -541.134)"/><path class="l" d="M837.184,592.521l-5.709,3.29-5.1-3.016,5.669-3.294Z" transform="translate(-714.859 -541.03)"/><path class="l" d="M843.455,596.233l-5.716,3.286-5.131-3.026,5.7-3.294Z" transform="translate(-714.678 -540.923)"/><path class="l" d="M849.787,599.989l-5.758,3.317-5.17-3.071,5.736-3.307Z" transform="translate(-714.498 -540.815)"/><path class="l" d="M856.143,603.753l-5.791,3.314-5.207-3.081,5.768-3.3Z" transform="translate(-714.315 -540.706)"/><path class="l" d="M862.522,607.527l-5.8,3.309-5.223-3.092,5.783-3.314Z" transform="translate(-714.132 -540.598)"/><path class="l" d="M868.944,611.328l-5.833,3.326-5.246-3.123,5.8-3.33Z" transform="translate(-713.947 -540.488)"/><path class="l" d="M781.22,574.953l-5.48,3.285-4.849-2.95,5.443-3.24Z" transform="translate(-716.466 -541.536)"/><path class="l" d="M787.212,578.528l-5.5,3.282-4.895-2.96,5.486-3.237Z" transform="translate(-716.294 -541.432)"/><path class="l" d="M793.209,582.146l-5.521,3.275-4.9-2.967,5.485-3.239Z" transform="translate(-716.121 -541.328)"/><path class="l" d="M799.271,585.8l-5.552,3.275-4.945-2.979,5.533-3.279Z" transform="translate(-715.948 -541.224)"/><path class="l" d="M805.341,589.457,799.78,592.7l-4.968-2.959,5.551-3.286Z" transform="translate(-715.773 -541.118)"/><path class="l" d="M811.467,593.125l-5.6,3.258-4.989-2.99,5.57-3.279Z" transform="translate(-715.598 -541.012)"/><path class="l" d="M817.614,596.807l-5.629,3.281-5.021-3.026,5.6-3.309Z" transform="translate(-715.421 -540.907)"/><path class="l" d="M823.587,600.411l-5.632,3.27-5.043-3.029,5.622-3.3Z" transform="translate(-715.249 -540.803)"/><path class="l" d="M829.815,604.153l-5.671,3.267-5.091-3.039,5.666-3.292Z" transform="translate(-715.071 -540.695)"/><path class="l" d="M836.078,607.889l-5.708,3.324-5.109-3.11,5.685-3.281Z" transform="translate(-714.891 -540.586)"/><path class="l" d="M842.364,611.655l-5.739,3.3-5.121-3.1,5.691-3.284Z" transform="translate(-714.711 -540.478)"/><path class="l" d="M848.677,615.455l-5.739,3.3-5.177-3.118,5.744-3.288Z" transform="translate(-714.529 -540.368)"/><path class="l" d="M855.039,619.282l-5.775,3.326-5.19-3.156,5.756-3.277Z" transform="translate(-714.346 -540.258)"/><path class="l" d="M774.537,578.92l-5.438,3.266-4.819-2.947,5.415-3.22Z" transform="translate(-716.658 -541.421)"/><path class="l" d="M780.5,582.522l-5.481,3.259-4.853-2.953,5.446-3.224Z" transform="translate(-716.487 -541.317)"/><path class="l" d="M786.489,586.159l-5.506,3.259-4.9-2.966,5.493-3.264Z" transform="translate(-716.316 -541.213)"/><path class="l" d="M792.489,589.8l-5.521,3.226-4.9-2.946,5.492-3.269Z" transform="translate(-716.142 -541.108)"/><path class="l" d="M798.555,593.452,793,596.694l-4.949-2.976,5.536-3.263Z" transform="translate(-715.969 -541.002)"/><path class="l" d="M804.63,597.118l-5.568,3.265-4.968-3.012,5.556-3.292Z" transform="translate(-715.794 -540.897)"/><path class="l" d="M810.757,600.829l-5.608,3.282-4.988-3.043,5.574-3.279Z" transform="translate(-715.618 -540.79)"/><path class="l" d="M816.707,604.43l-5.629,3.251-5.011-3.026,5.592-3.275Z" transform="translate(-715.447 -540.686)"/><path class="l" d="M822.885,608.15l-5.64,3.307-5.041-3.1,5.623-3.265Z" transform="translate(-715.269 -540.578)"/><path class="l" d="M829.117,611.9l-5.677,3.284-5.091-3.086,5.668-3.268Z" transform="translate(-715.092 -540.47)"/><path class="l" d="M835.381,615.679l-5.71,3.287-5.114-3.1,5.688-3.272Z" transform="translate(-714.912 -540.361)"/><path class="l" d="M841.668,619.489l-5.745,3.31-5.122-3.142,5.694-3.26Z" transform="translate(-714.731 -540.251)"/><path class="l" d="M854.533,627.276l-5.773,3.255-11.7-7.062,5.75-3.3Z" transform="translate(-714.549 -540.142)"/><path class="l" d="M756.263,575.737l-5.363,3.237-5.989-3.648,5.355-3.214Z" transform="translate(-717.219 -541.534)"/><path class="l" d="M767.987,582.851l-5.438,3.266-4.787-2.963,5.389-3.22Z" transform="translate(-716.846 -541.307)"/><path class="l" d="M762.1,579.259l-5.408,3.266-4.774-2.95,5.377-3.212Z" transform="translate(-717.015 -541.411)"/><path class="l" d="M810.977,609l-5.6,3.251-41.765-25.506,5.432-3.218Z" transform="translate(-716.677 -541.203)"/><path class="l" d="M816.122,612.084l-5.669,3.282-5-3.086,5.59-3.278Z" transform="translate(-715.465 -540.465)"/><path class="l" d="M822.288,615.849l-5.657,3.3-5.057-3.116,5.64-3.263Z" transform="translate(-715.288 -540.356)"/><path class="l" d="M828.529,619.634l-5.7,3.281L817.74,619.8l5.672-3.258Z" transform="translate(-715.109 -540.247)"/><path class="l" d="M834.783,623.454l-5.713,3.267-5.131-3.114,5.7-3.261Z" transform="translate(-714.93 -540.137)"/><path class="l" d="M847.589,631.235,841.83,634.5l-11.64-7.113,5.726-3.274Z" transform="translate(-714.749 -540.028)"/><path class="l" d="M875.393,615.182l-5.847,3.336-5.282-3.148,5.836-3.305Z" transform="translate(-713.762 -540.377)"/><path class="l" d="M787.779,571.053l-5.485,3.271-4.888-2.92,5.48-3.289Z" transform="translate(-716.277 -541.65)"/><path class="l" d="M793.79,574.606l-5.521,3.32-4.91-2.982,5.5-3.24Z" transform="translate(-716.105 -541.546)"/><path class="l" d="M799.834,578.249l-5.545,3.311-4.933-2.986,5.521-3.265Z" transform="translate(-715.931 -541.441)"/><path class="l" d="M805.91,581.866l-5.575,3.3-4.968-2.986,5.552-3.268Z" transform="translate(-715.757 -541.337)"/><path class="l" d="M812.039,585.494l-5.6,3.321-5.007-3.022,5.59-3.266Z" transform="translate(-715.581 -541.232)"/><path class="l" d="M818.185,589.183l-5.633,3.308-5.029-3.023,5.609-3.278Z" transform="translate(-715.405 -541.126)"/><path class="l" d="M824.357,592.86l-5.638,3.3-5.059-3.026,5.636-3.292Z" transform="translate(-715.227 -541.02)"/><path class="l" d="M830.38,596.462l-5.671,3.318-5.072-3.06,5.648-3.284Z" transform="translate(-715.054 -540.916)"/><path class="l" d="M836.625,600.2l-5.7,3.293-5.1-3.05,5.669-3.3Z" transform="translate(-714.875 -540.809)"/><path class="l" d="M842.907,603.935l-5.716,3.31-5.144-3.08,5.714-3.3Z" transform="translate(-714.695 -540.701)"/><path class="l" d="M849.224,607.7l-5.738,3.34-5.157-3.125,5.727-3.3Z" transform="translate(-714.513 -540.593)"/><path class="l" d="M855.6,611.518l-5.807,3.29-5.178-3.089,5.741-3.313Z" transform="translate(-714.331 -540.483)"/><path class="l" d="M856.927,612.11l11.831,7.075-13.1,7.475-5.242-3.15,7.27-4.153-6.559-3.942Z" transform="translate(-714.163 -540.375)"/><path class="l" d="M825.358,576.185l-5.615,3.32-5.058-2.985,5.636-3.333Z" transform="translate(-715.198 -541.503)"/><path class="l" d="M831.575,579.825,825.9,583.16l-5.072-3.012,5.646-3.313Z" transform="translate(-715.02 -541.397)"/><path class="l" d="M837.8,583.511l-5.666,3.308-5.117-3L832.7,580.5Z" transform="translate(-714.841 -541.291)"/><path class="l" d="M844.072,587.19l-5.7,3.345-5.129-3.05,5.7-3.3Z" transform="translate(-714.66 -541.184)"/><path class="l" d="M853.562,592.8l-5.754,3.336-5.174-3.062,5.739-3.334Z" transform="translate(-714.388 -541.023)"/><path class="l" d="M859.916,596.552l-5.774,3.346-5.19-3.087,5.756-3.367Z" transform="translate(-714.205 -540.916)"/><path class="l" d="M866.309,600.3l-5.788,3.349-5.232-3.1,5.793-3.354Z" transform="translate(-714.022 -540.807)"/><path class="l" d="M872.77,604.1l-5.855,3.34-5.229-3.108,5.785-3.336Z" transform="translate(-713.836 -540.697)"/><path class="l" d="M883.757,610.58l-5.886,3.331-9.741-5.76,5.833-3.34Z" transform="translate(-713.65 -540.587)"/><path class="l" d="M806.506,615.947l-17.04,9.9-31.722-19.709,16.66-9.866Z" transform="translate(-716.847 -540.834)"/></g><g transform="translate(72.709)"><path class="j" d="M801.613,460.064a1.469,1.469,0,0,1,1.529-.035l115.21,56.293a3.982,3.982,0,0,1,1.909,3.8l-11.409,89.785a1.672,1.672,0,0,1-.841,1.407h0a.044.044,0,0,1-.042.041l-4.053,2.044-.369-3.861L793.837,545.047a3.872,3.872,0,0,1-1.664-3.525l8.376-76.506-.715.612-1.912-3.17,3.691-2.393Z" transform="translate(-788.559 -459.834)"/><path class="l" d="M799.589,462.321l114.672,56.3a4.022,4.022,0,0,1,1.884,3.805l-11.317,89.529a1.551,1.551,0,0,1-2.486,1.265L790.359,547.1a3.889,3.889,0,0,1-1.681-3.534l8.7-79.819C797.526,462.38,798.495,461.733,799.589,462.321Z" transform="translate(-788.66 -459.768)"/><path class="m" d="M796.281,535.772,900.96,596.707l-.268,2.138L794.333,536.806l7.4-67.038,1.76.932Z" transform="translate(-788.496 -459.546)"/><path class="d" d="M796.226,535.748l30.581,17.8,19.818,11.535,17.873,10.4,21.814,12.708,14.591,8.489,9.281-73.653-61.264-30.046-10.691-5.248-12.09-5.927-10.578-5.186-12.121-5.947Z" transform="translate(-788.441 -459.52)"/></g></g><path class="i" d="M832.255,484.9l31.2,90.17,21.814,12.708-37.393-95.21Z" transform="translate(-623.738 -297.642)"/><path class="i" d="M817.74,477.792l31.4,88.912,7.8,4.54c-8.987-23.82-23.9-65.143-31.422-89.639Z" transform="translate(-624.158 -297.848)"/><path class="n" d="M637.017,324.324l26.773-15.458.213.123c5.119-3.6,12.55-3.439,20.826,1.339a43.7,43.7,0,0,1,5.887,4.117l13.663-7.887.21.122c7.525-5.392,18.5-5.191,30.738,1.871,21,12.124,38.306,40.2,40.771,64.956.1.059.207.11.312.171,12.917,7.459,23.389,25.522,23.389,40.345,0,8.573-3.509,14.178-8.961,15.944l.379.218-26.334,15.2L734.408,428.3l21.818-12.6-71.4-41.221c-11.458-6.616-21.3-20.211-25.619-34.025Z" transform="translate(-629.392 -302.913)"/><path class="o" d="M657.563,325.747a48.675,48.675,0,0,1,11.146,9.091c5.075-16.5,20.769-21.6,39.351-10.867,21,12.124,38.307,40.2,40.771,64.955.1.058.208.11.313.171,12.917,7.458,23.389,25.521,23.389,40.346s-10.473,20.794-23.389,13.335l-91.58-52.872c-15.44-8.915-27.956-30.5-27.956-48.221S642.123,316.833,657.563,325.747Z" transform="translate(-629.607 -302.466)"/><path class="o" d="M759.528,441.908c5.585,0,8.919-4.7,8.919-12.576,0-13.307-9.8-30.207-21.4-36.908l-1.765-1.02-.513-2.2c-2.379-23.894-19.058-50.51-38.8-61.908-5.787-3.342-11.475-5.108-16.448-5.108-8.325,0-14.409,4.867-17.121,13.7l-2.025,6.573-4.682-5.037a44.643,44.643,0,0,0-10.222-8.354,21.812,21.812,0,0,0-10.56-3.307c-7.163,0-11.442,5.909-11.442,15.806,0,16.424,11.652,36.514,25.972,44.781l91.58,52.87a17.583,17.583,0,0,0,8.512,2.684Z" transform="translate(-629.495 -302.355)"/><g transform="translate(150.473 31.855)"><g transform="translate(3.645)"><path class="p" d="M822.108,512.374h3.065v-178.5l-45.786,26.436,1.533,2.654,41.188-23.781Z" transform="translate(-779.387 -333.871)"/></g><g transform="translate(43.287 173.661)"><path class="p" d="M817.914,507.255a4.61,4.61,0,1,0,4.611-4.611A4.61,4.61,0,0,0,817.914,507.255Z" transform="translate(-817.914 -502.644)"/></g><g transform="translate(0 23.037)"><path class="p" d="M782.759,364.863a4.61,4.61,0,1,1,1.688-6.3A4.608,4.608,0,0,1,782.759,364.863Z" transform="translate(-775.845 -356.26)"/></g></g><path class="q" d="M696.43,498.172s4.275-2.564,8.551,3.42l2.565,5.13s-.855.855-2.565,0c0,0,.779,6.025-.038,9.425l-2.527-10.28Z" transform="translate(-627.672 -297.274)"/><path class="r" d="M690.651,528.461s.935,10.439-5.5,16.211,14.839,0,14.839,0-3.959-10-3.071-16.211S690.651,528.461,690.651,528.461Z" transform="translate(-628.034 -296.461)"/><path class="s" d="M705.337,517.824c0,8.482-5.04,15.358-11.257,15.358s-11.257-6.877-11.257-15.358,5.04-15.359,11.257-15.359c3.242,0,7.156-.338,9.21,2.656C705.175,507.865,705.337,513.764,705.337,517.824Z" transform="translate(-628.066 -297.134)"/><g transform="translate(54.624 199.968)"><path class="q" d="M698.29,509.158s-19.489,10.805-13.7-6.543C688.588,490.613,711.581,501.424,698.29,509.158Z" transform="translate(-682.669 -497.253)"/><path class="q" d="M695.489,504.992s12.256-6.417,1.414-6.9-15.039.559-14.076,21.049C682.827,519.138,685.976,502.838,695.489,504.992Z" transform="translate(-682.693 -497.231)"/></g><path class="q" d="M697.5,498.313s-.189-4.466-6.174-3.611-8.963,4.331-9.818,7.751-2.349,6.511-3.2,6.511c0,0,3.258.412,4.113-.443,0,0-2.219,6.149.6,11.2,0,0,1.11-7.777,5.385-8.632S697.5,498.313,697.5,498.313Z" transform="translate(-628.197 -297.361)"/><g transform="translate(121.299 274.685)"><path class="t" d="M748.255,596.48c.663-.546,9.705-5.077,12.475-8.822s6.506-9.592,8.353-11.273c2.173-1.979,1.523-3.2-1.268-1.1a43.436,43.436,0,0,0-5.691,5.192c-.255.388,1.664-1.983,3.969-4.429,2.449-2.6,5.287-5.309,4.811-5.8-.922-.951-8.548,6.193-9.631,7.609a42.081,42.081,0,0,1,2.912-3.7c1.422-1.605,3.34-3.269,3.187-3.916-.242-1.021-4.873,2.4-7.687,5.848-.169-.012.359-1.355,3.994-5.211.365-.387.84-1.649-.751-.619-3.348,2.169-4.965,2.851-7.782,7.225-2.746,4.265-4.673,9.641-7.654,12.1Z" transform="translate(-747.492 -569.867)"/><path class="t" d="M758.9,588.978s5.759-1.105,8.639-4.516c1.712-2.027,2.28-1.612,2.688-1.888,1.354-.914-1.882-1.194-3.665.329-1.45,1.238-4.775.409-5.929.982s-3.916,2.706-3.946,3.636S758.9,588.978,758.9,588.978Z" transform="translate(-747.226 -569.52)"/></g><path class="p" d="M747.705,616.394s3.122-13.445,4.051-19.452a10.525,10.525,0,0,0-3.487-9.494l-8.139-.542Z" transform="translate(-626.406 -294.688)"/><path class="u" d="M758.292,635.636c-4.583-31.236-10.329-50.29-23.69-67.587-8.294-10.739-22.952-24.266-30.26-27.769a14.251,14.251,0,0,1-6.489,1.013s-7.384.067-9.945-1.9c-6.829,2.621-17.6,11.084-25.114,20.953-13.263,17.429-13.946,27.844-17.673,65.811-2.856,29.089-3.684,23.819,2.237,40.523,10.795,30.453,37.163,32.234,40.985,32.939,26.422,4.874,65.259-.811,77.282-24.242C773.851,659.351,766.3,690.223,758.292,635.636Z" transform="translate(-629.221 -296.064)"/><g transform="translate(171.385 318.892)"><path class="t" d="M796.168,631.605c.67-.53,6.982-8.249,11.2-10.223s10.679-4.507,12.7-5.959c2.379-1.708,3.428-.9.793,1.369a45.714,45.714,0,0,1-6.241,4.471c-.43.175,2.275-1.231,5.135-2.984,3.04-1.864,6.269-4.074,6.643-3.548.725,1.021-7.818,6.98-9.421,7.761a44.514,44.514,0,0,0,4.2-2.116c1.857-1.066,3.878-2.588,4.473-2.337.937.4-3.367,4.166-7.3,6.232-.024.161,1.389-.112,5.9-2.88.454-.278,1.778-.513.441.806-2.814,2.777-3.818,4.179-8.656,6.094-4.718,1.868-10.337,2.782-13.354,5.168Z" transform="translate(-796.168 -612.781)"/><path class="t" d="M805.161,622.617s2.3-5.21,6.214-7.344c2.327-1.269,2.047-1.869,2.4-2.205,1.174-1.116.756,1.96-1.1,3.379-1.507,1.152-1.411,4.4-2.211,5.389s-3.455,3.221-4.363,3.1S805.161,622.617,805.161,622.617Z" transform="translate(-795.908 -612.83)"/></g><path class="v" d="M742.22,632.819c1.529-7.15,5.145-28.6-6.556-49.563-10.923-19.575-35.45-39.183-52.694-32.366-14.569,5.759-17.732,27.929-19.98,43.685-2.7,18.946-8.549,59.926,21.242,86.1a74.637,74.637,0,0,0,65.754,16.131c28.929-6.877,51.537-31.087,57.536-61.842l-6.84-6.544a167.567,167.567,0,0,0-58.461,4.4Z" transform="translate(-628.708 -295.771)"/><path class="r" d="M704.4,514.081c.549,1.555,1.351,3.936,1.682,4.922a.428.428,0,0,1-.318.554l-2.718.6a.431.431,0,0,1-.517-.5l1.041-5.5A.43.43,0,0,1,704.4,514.081Z" transform="translate(-627.495 -296.805)"/><path class="q" d="M697.214,508.945s-7,3.825-7.1,8.992c0,0-2.148-5.213-1.757-6.391S697.214,508.945,697.214,508.945Z" transform="translate(-627.907 -296.946)"/><path class="q" d="M688.892,513.954a2.732,2.732,0,0,0-2.511-1.562c-1.758.1-.827,7-.207,7.171s-1.774.167-1.447,5.127-4.619-10.221-2.969-14.257,3.278-1.349,5.139-.108A5.067,5.067,0,0,1,688.892,513.954Z" transform="translate(-628.106 -296.965)"/></g><g transform="translate(617.336 357.804)"><g transform="translate(2.719 2.759)"><path class="p" d="M619.1,533.319h2.709V369.75l18.128-8.348L638.8,358.94l-19.7,9.075Z" transform="translate(-619.096 -358.94)"/></g><g transform="translate(0 172.858)"><path class="p" d="M616.453,528.327a4.074,4.074,0,1,0,4.074-4.075A4.075,4.075,0,0,0,616.453,528.327Z" transform="translate(-616.453 -524.252)"/></g><g transform="translate(18.727)"><path class="p" d="M637.024,356.634a4.075,4.075,0,1,1-2,5.406A4.076,4.076,0,0,1,637.024,356.634Z" transform="translate(-634.653 -356.259)"/></g></g></g></svg>