<svg xmlns="http://www.w3.org/2000/svg" width="460.91" height="369.222" viewBox="0 0 460.91 369.222"><defs><style>.a{fill:#b6d7db;}.b{fill:#f9a94b;}.c{fill:#c7873c;}.d,.f{fill:#d8a35d;}.d{fill-rule:evenodd;}.e{fill:#d19442;}.g{fill:#947dce;}.h{opacity:0.15;}.i{fill:#ffc84f;}</style></defs><g transform="translate(-374.914 -334.497)"><path class="a" d="M374.914,703.72C449.837,513.058,497.072,463.427,527.306,457.7c27.988-5.3,48.532,25.672,89.692,8.683,5.282-2.18,15.236-6.938,47.415-37.627,63.2-60.275,67.2-82.354,91.513-91.171,33.817-12.266,72.5,13.619,78.928,49.2,5.569,30.844-14.081,63.524-27.821,86.83-31.428,53.309-73.383,127.889-125.318,230.1Z" transform="translate(0 0)"/><g transform="translate(458.484 338.589)"><path class="b" d="M811.816,638.815H526.026l43.144-44.725H770.152Z" transform="translate(-478.992 -373.821)"/><rect class="c" width="285.79" height="10.817" transform="translate(47.034 264.994)"/><g transform="translate(0 31.67)"><path class="d" d="M506.941,398.673c-.78-.637-8.068-9.841-13-12.243s-12.489-5.5-14.842-7.25c-2.769-2.054-4.018-1.118-.96,1.6a53.922,53.922,0,0,0,7.265,5.379c.5.214-2.656-1.492-5.989-3.608-3.544-2.251-7.307-4.912-7.756-4.3-.873,1.188,9.076,8.362,10.948,9.311a52.435,52.435,0,0,1-4.909-2.568c-2.167-1.29-4.517-3.118-5.222-2.834-1.111.448,3.887,4.967,8.481,7.473.025.188-1.634-.158-6.892-3.5-.528-.336-2.083-.638-.534.94,3.262,3.321,4.419,4.99,10.078,7.333,5.518,2.285,12.118,3.467,15.625,6.332Z" transform="translate(-471.606 -376.173)"/><path class="d" d="M498.392,387.566s-2.608-6.177-7.18-8.761c-2.718-1.537-2.376-2.238-2.786-2.64-1.361-1.336-.927,2.294,1.232,4,1.754,1.385,1.579,5.211,2.5,6.385s4.008,3.855,5.079,3.724S498.392,387.566,498.392,387.566Z" transform="translate(-473.784 -375.875)"/></g><g transform="translate(21.837)"><path class="e" d="M673.537,388.194s-1.1,12.291,6.48,19.089-17.472,0-17.472,0,4.663-11.772,3.617-19.089S673.537,388.194,673.537,388.194Z" transform="translate(-519.357 -345.436)"/><ellipse class="f" cx="13.255" cy="18.084" rx="13.255" ry="18.084" transform="translate(136.927 11.357)"/><path class="g" d="M545.749,468.506c20.065-41.972,55.876-61.12,78.74-66.2,9.9-2.2,17.366-1.772,20.095.584a14.819,14.819,0,0,0,9.252,3.594,20.041,20.041,0,0,0,5.2-.473,25.887,25.887,0,0,0,5.507-1.873c.845-.392,1.339-.674,1.339-.674a53.694,53.694,0,0,1,13.994.835c51.728,10.129,60.729,96.861,60.266,104.322-.282,4.44-4.873,24.555-10.612,42.435-4.7,14.678-10.188,27.857-14.7,29.679-10.007,4.027-85.565,9.554-101.1,2.144-.362-.272-.755-.564-1.127-.886-5.83-4.742-12.152-14.105-15.5-22.874,0-.01-8.93-25.179-10.753-30.3-.02-.05-.03-.091-.05-.131-.061-.2-.13-.392-.2-.573-.02-.071-.05-.131-.07-.2" transform="translate(-503.506 -347.596)"/><path class="h" d="M592.347,544.949c.02.07.05.13.07.2.071.181.141.372.2.573.021.041.03.081.051.131,1.822,5.124,10.752,30.294,10.752,30.3,3.353,8.769,9.675,18.132,15.5,22.874-3.957-14.326-16.289-55.856-15.816-72.588C600.753,542.573,592.347,544.939,592.347,544.949Z" transform="translate(-509.83 -364.64)"/><path class="h" d="M731.613,478.435s-25.04,74.747,44.432,106.491l1.411.939-.359-17.58s-32.736-45.68-32.859-46.855S731.613,478.435,731.613,478.435Z" transform="translate(-528.135 -358.124)"/><path class="h" d="M667.076,409.449c.04,1.2-.594,1.983-2.517,1.721-6-.815-12.776-.644-17.7,1.611a4.18,4.18,0,0,1-4.047-.171c-3.151-1.843-5.1-7.339-5.88-9.776a1.668,1.668,0,0,1-.08-.533c9.9-2.2,17.366-1.772,20.095.584a14.819,14.819,0,0,0,9.252,3.594A8.179,8.179,0,0,1,667.076,409.449Z" transform="translate(-515.87 -347.596)"/><g transform="translate(133.861)"><g transform="translate(2.798 5.042)"><path class="i" d="M664.117,359.085s22.947,12.722,16.135-7.7C675.541,337.248,648.467,349.978,664.117,359.085Z" transform="translate(-655.576 -345.066)"/><path class="i" d="M666.859,354.347s-12.838,7.619-11.6,15.261c0,0-2.831-22.816,9.934-23.389s17.708.659,16.575,24.785C681.768,371,678.059,351.812,666.859,354.347Z" transform="translate(-654.992 -345.209)"/></g><path class="i" d="M666.152,345.432s.645-7.11,7.692-6.1,10.067,5.034,11.074,9.061,2.014,7.047,3.021,7.047c0,0-3.021,3.021-4.027,2.014,0,0,2.614,7.24-.707,13.185,0,0-1.307-9.158-6.34-10.165S666.152,345.432,666.152,345.432Z" transform="translate(-653.708 -339.232)"/><path class="i" d="M664.843,346.233s-5.034-3.02-10.068,4.028l-3.021,6.04s1.007,1.007,3.021,0c0,0-.917,7.093.045,11.1l2.976-12.1Z" transform="translate(-651.754 -340.095)"/></g><path class="h" d="M742.4,570.681s-12.95-27.16-79.35,19.524,62.318-11.453,62.318-11.453Z" transform="translate(-516.844 -369.578)"/><path class="g" d="M579.712,528.234s-61.283,26-76.152-30.071.6-69.517-5.448-96.811l9.857-4.746s37.1,22.874,49.8,58.189S579.712,528.234,579.712,528.234Z" transform="translate(-496.873 -347.019)"/></g><g transform="translate(126.768 53.2)"><g transform="translate(0 176.609)"><path class="d" d="M658.515,619.469c-.954-.32-11.027-6.352-16.488-6.856s-13.628-.732-16.447-1.533c-3.316-.943-4.155.374-.333,1.833a53.907,53.907,0,0,0,8.7,2.462c.546.022-3.011-.456-6.879-1.258-4.111-.852-8.571-2.01-8.775-1.278-.4,1.42,11.447,4.613,13.534,4.838a52.4,52.4,0,0,1-5.5-.666c-2.482-.44-5.327-1.319-5.887-.8-.881.812,5.392,3.272,10.575,3.99.091.168-1.583.43-7.683-.837-.613-.127-2.174.141-.167,1.068,4.226,1.954,5.9,3.106,12.021,3.3,5.97.186,12.561-1.043,16.855.4Z" transform="translate(-618.281 -605.892)"/><path class="d" d="M646.591,612.386s-4.622-4.856-9.813-5.657c-3.085-.476-3.014-1.253-3.54-1.485-1.746-.768-.055,2.473,2.565,3.3,2.131.676,3.32,4.316,4.6,5.088s5.112,2.188,6.068,1.688S646.591,612.386,646.591,612.386Z" transform="translate(-620.214 -605.128)"/></g><path class="g" d="M746.6,417.15c18.964,16.968,32.085,32.727,40.27,84.568,4.153,26.3,3.072,52.6,1.99,66.474a16.389,16.389,0,0,1-11.263,14.25c-59.416,19.6-122.836,15.684-122.836,15.684-3.4-1.266.267-13.577.267-13.577,30.4-41.254,73.843-34.317,85.53-41.554,3.646-21.385-25.732-48.146-29.2-61.413-9.073-34.788-38.937-64.893-31.21-78.528C682.827,398.34,727.475,400.036,746.6,417.15Z" transform="translate(-623.036 -400.786)"/></g></g></g></svg>