<svg xmlns="http://www.w3.org/2000/svg" width="326" height="438.664" viewBox="0 0 326 438.664"><defs><style>.a{fill:#9bb6cc;}.b{fill:#dbfaff;}.c{fill:#b7cbd2;}.d{fill:#72727a;}.e{fill:#fff;}.f,.p{fill:#e9eae8;}.f{opacity:0.53;}.g{fill:#bac5d6;}.h{fill:#dde1e8;}.i,.v{fill:#947dce;}.j{fill:#595594;}.k{fill:#6b75b2;}.l{fill:#63d4fb;}.m{fill:#9197d0;}.n{fill:#f4f4f4;}.o{fill:#03baf9;}.q{fill:#ffc84f;}.r{fill:#d19442;}.s,.t{fill:#d8a35d;}.t,.v{fill-rule:evenodd;}.u{fill:#a088db;}</style></defs><g transform="translate(-700.532 -255.6)"><g transform="translate(804.907 430.073)"><g transform="translate(0 92.094)"><path class="a" d="M799.126,544.9l72.378-43.65a4.775,4.775,0,0,1,4.336-.182L989.96,567.9l6.488-3.006-.6,7.278a1.951,1.951,0,0,1-1.091,1.417l-82.777,46.837a5.121,5.121,0,0,1-4.534.01L794.859,549.867a1.262,1.262,0,0,1-.752-1.214l.684-6.708,4.648-.136Z" transform="translate(-794.102 -493.871)"/><path class="b" d="M872.078,495.179a4.913,4.913,0,0,1,4.334-.191l119.094,69.369c1.256.751,1.157,1.948-.23,2.773l-82.733,46.934a4.854,4.854,0,0,1-4.533.021L795.468,543.893c-1.1-.631-.983-1.761.259-2.543Z" transform="translate(-794.031 -494.572)"/><path class="c" d="M865.824,507.084l-5.958,3.569-5.279-3.121,5.918-3.576Z" transform="translate(-787.117 -493.488)"/><path class="c" d="M874.846,512.392l-5.987,3.6-5.347-3.17,5.983-3.561Z" transform="translate(-786.087 -492.876)"/><path class="c" d="M858.145,511.721l-5.932,3.553-5.248-3.125,5.888-3.538Z" transform="translate(-787.997 -492.95)"/><path class="c" d="M859.6,520.416l-5.932,3.529-13.191-7.9,5.9-3.579Z" transform="translate(-788.747 -492.505)"/><path class="c" d="M853.041,524.346l-5.888,3.5-13.122-7.887,5.842-3.568Z" transform="translate(-789.491 -492.051)"/><path class="c" d="M846.4,528.276l-5.87,3.543L827.466,523.9l5.831-3.529Z" transform="translate(-790.249 -491.592)"/><path class="c" d="M880.9,515.969l-6.018,3.567-5.366-3.153,6-3.586Z" transform="translate(-785.393 -492.467)"/><path class="c" d="M887,519.553l-6.055,3.6-5.379-3.2,6.009-3.567Z" transform="translate(-784.695 -492.053)"/><path class="c" d="M893.121,523.129l-6.077,3.621-5.414-3.235,6.042-3.564Z" transform="translate(-783.995 -491.641)"/><path class="c" d="M865.323,515.977l-5.952,3.578-5.273-3.167,5.914-3.55Z" transform="translate(-787.174 -492.462)"/><path class="c" d="M871.316,519.557l-5.963,3.57-5.3-3.174,5.944-3.575Z" transform="translate(-786.487 -492.053)"/><path class="c" d="M877.4,523.125l-6.013,3.6-5.365-3.212,6-3.551Z" transform="translate(-785.797 -491.64)"/><path class="c" d="M883.47,526.731l-6.027,3.6-5.4-3.226,6.03-3.565Z" transform="translate(-785.101 -491.227)"/><path class="c" d="M889.592,530.366l-6.071,3.561-5.416-3.205,6.046-3.589Z" transform="translate(-784.402 -490.812)"/><path class="c" d="M895.71,534.034l-6.069,3.545-5.44-3.2,6.066-3.59Z" transform="translate(-783.698 -490.39)"/><path class="c" d="M901.913,537.655l-6.116,3.593-5.467-3.267,6.093-3.582Z" transform="translate(-782.99 -489.972)"/><path class="c" d="M908.111,541.344,902,544.925l-5.512-3.27,6.134-3.582Z" transform="translate(-782.279 -489.548)"/><path class="c" d="M914.2,544.952l-6.189,3.567-5.53-3.27,6.146-3.571Z" transform="translate(-781.587 -489.132)"/><path class="c" d="M920.471,548.666l-6.2,3.563-5.562-3.281,6.174-3.571Z" transform="translate(-780.867 -488.705)"/><path class="c" d="M926.81,552.424l-6.242,3.6-5.6-3.329,6.218-3.585Z" transform="translate(-780.145 -488.274)"/><path class="c" d="M933.172,556.188l-6.278,3.592-5.645-3.34,6.253-3.575Z" transform="translate(-779.419 -487.84)"/><path class="c" d="M939.553,559.964l-6.292,3.587L927.6,560.2l6.269-3.593Z" transform="translate(-778.686 -487.408)"/><path class="c" d="M945.979,563.768l-6.323,3.606-5.687-3.386,6.292-3.61Z" transform="translate(-777.951 -486.973)"/><path class="c" d="M858.193,527.375l-5.941,3.561-5.257-3.2,5.9-3.512Z" transform="translate(-787.994 -491.147)"/><path class="c" d="M864.191,530.95l-5.967,3.558-5.307-3.209,5.947-3.509Z" transform="translate(-787.31 -490.736)"/><path class="c" d="M870.189,534.569,864.2,538.12l-5.309-3.216,5.947-3.512Z" transform="translate(-786.62 -490.32)"/><path class="c" d="M876.257,538.227l-6.019,3.551-5.36-3.23,6-3.555Z" transform="translate(-785.929 -489.904)"/><path class="c" d="M882.331,541.887,876.3,545.4l-5.386-3.208,6.018-3.562Z" transform="translate(-785.232 -489.484)"/><path class="c" d="M888.461,545.555l-6.072,3.532-5.408-3.241,6.038-3.554Z" transform="translate(-784.531 -489.061)"/><path class="c" d="M894.614,549.242l-6.1,3.557-5.444-3.28,6.076-3.587Z" transform="translate(-783.828 -488.641)"/><path class="c" d="M900.589,552.846l-6.106,3.545-5.467-3.284,6.094-3.58Z" transform="translate(-783.142 -488.225)"/><path class="c" d="M906.824,556.588l-6.148,3.542-5.519-3.295,6.142-3.569Z" transform="translate(-782.433 -487.794)"/><path class="c" d="M913.092,560.325l-6.189,3.6-5.539-3.372L907.527,557Z" transform="translate(-781.716 -487.363)"/><path class="c" d="M919.381,564.091l-6.222,3.578-5.551-3.362,6.17-3.56Z" transform="translate(-780.995 -486.93)"/><path class="c" d="M925.7,567.893l-6.222,3.581-5.612-3.381,6.227-3.564Z" transform="translate(-780.272 -486.493)"/><path class="c" d="M932.065,571.721l-6.26,3.606-5.627-3.422,6.24-3.552Z" transform="translate(-779.543 -486.052)"/><path class="c" d="M851.5,531.342l-5.9,3.54-5.224-3.2,5.87-3.491Z" transform="translate(-788.758 -490.689)"/><path class="c" d="M857.47,534.944l-5.942,3.533-5.261-3.2,5.9-3.495Z" transform="translate(-788.078 -490.275)"/><path class="c" d="M863.468,538.586,857.5,542.12l-5.31-3.215,5.954-3.538Z" transform="translate(-787.394 -489.861)"/><path class="c" d="M869.469,542.229l-5.985,3.5-5.316-3.194,5.954-3.544Z" transform="translate(-786.704 -489.443)"/><path class="c" d="M875.542,545.881l-6.02,3.515-5.365-3.226,6-3.537Z" transform="translate(-786.012 -489.022)"/><path class="c" d="M881.62,549.551l-6.036,3.539-5.385-3.266,6.023-3.569Z" transform="translate(-785.315 -488.603)"/><path class="c" d="M887.752,553.262l-6.079,3.558-5.407-3.3,6.043-3.555Z" transform="translate(-784.614 -488.175)"/><path class="c" d="M893.706,556.864l-6.1,3.525-5.433-3.28,6.062-3.55Z" transform="translate(-783.932 -487.76)"/><path class="c" d="M899.887,560.584l-6.114,3.586-5.465-3.357,6.1-3.539Z" transform="translate(-783.224 -487.331)"/><path class="c" d="M906.126,564.333l-6.155,3.56-5.52-3.346L900.6,561Z" transform="translate(-782.514 -486.9)"/><path class="c" d="M912.4,568.116l-6.19,3.563-5.544-3.365,6.166-3.547Z" transform="translate(-781.797 -486.465)"/><path class="c" d="M918.686,571.926l-6.228,3.589-5.552-3.406,6.172-3.535Z" transform="translate(-781.076 -486.026)"/><path class="c" d="M932.106,580.051l-6.259,3.528-12.681-7.656,6.233-3.575Z" transform="translate(-780.353 -485.59)"/><path class="c" d="M833.321,528.219l-5.814,3.509-6.493-3.955,5.8-3.484Z" transform="translate(-790.994 -491.14)"/><path class="c" d="M844.951,535.273l-5.9,3.541-5.19-3.213,5.842-3.491Z" transform="translate(-789.51 -490.237)"/><path class="c" d="M839.062,531.68l-5.863,3.541-5.175-3.2,5.829-3.482Z" transform="translate(-790.185 -490.649)"/><path class="c" d="M891.063,563.317,885,566.842l-45.277-27.651,5.889-3.489Z" transform="translate(-788.834 -489.822)"/><path class="c" d="M893.123,564.521l-6.146,3.558-5.425-3.345,6.06-3.554Z" transform="translate(-784.003 -486.88)"/><path class="c" d="M899.293,568.285l-6.133,3.575-5.483-3.378,6.115-3.537Z" transform="translate(-783.296 -486.445)"/><path class="c" d="M905.54,572.071l-6.174,3.557-5.522-3.375,6.148-3.532Z" transform="translate(-782.584 -486.009)"/><path class="c" d="M911.8,575.892l-6.194,3.541-5.562-3.376,6.184-3.535Z" transform="translate(-781.868 -485.57)"/><path class="c" d="M925.156,584.011l-6.244,3.544-12.619-7.711,6.207-3.55Z" transform="translate(-781.146 -485.135)"/><path class="c" d="M952.432,567.622l-6.338,3.616-5.726-3.413,6.327-3.583Z" transform="translate(-777.212 -486.526)"/><path class="c" d="M864.755,523.477l-5.947,3.546-5.3-3.166,5.941-3.566Z" transform="translate(-787.242 -491.602)"/><path class="c" d="M870.771,527.028l-5.985,3.6-5.323-3.233,5.962-3.512Z" transform="translate(-786.554 -491.187)"/><path class="c" d="M876.819,530.673l-6.011,3.589-5.348-3.237,5.985-3.54Z" transform="translate(-785.862 -490.771)"/><path class="c" d="M882.9,534.292l-6.044,3.575-5.386-3.237,6.019-3.543Z" transform="translate(-785.168 -490.355)"/><path class="c" d="M889.035,537.92l-6.073,3.6-5.428-3.276,6.06-3.541Z" transform="translate(-784.468 -489.937)"/><path class="c" d="M895.186,541.612,889.08,545.2l-5.452-3.277,6.081-3.554Z" transform="translate(-783.764 -489.514)"/><path class="c" d="M901.36,545.291l-6.112,3.574-5.484-3.28,6.11-3.569Z" transform="translate(-783.055 -489.093)"/><path class="c" d="M907.387,548.893l-6.147,3.6-5.5-3.317,6.122-3.56Z" transform="translate(-782.365 -488.678)"/><path class="c" d="M913.636,552.636l-6.18,3.57-5.525-3.306,6.145-3.582Z" transform="translate(-781.65 -488.25)"/><path class="c" d="M919.924,556.37l-6.2,3.588-5.576-3.339,6.194-3.579Z" transform="translate(-780.932 -487.82)"/><path class="c" d="M926.244,560.133l-6.22,3.621-5.591-3.388,6.209-3.582Z" transform="translate(-780.207 -487.387)"/><path class="c" d="M932.628,563.957l-6.3,3.566-5.613-3.348,6.224-3.591Z" transform="translate(-779.481 -486.949)"/><path class="c" d="M933.578,564.287l12.826,7.669-14.2,8.1-5.683-3.415,7.881-4.5-7.111-4.273Z" transform="translate(-778.811 -486.521)"/><path class="c" d="M902.359,528.614l-6.088,3.6-5.483-3.235,6.109-3.614Z" transform="translate(-782.937 -491.016)"/><path class="c" d="M908.583,532.254l-6.153,3.615-5.5-3.265,6.121-3.592Z" transform="translate(-782.228 -490.594)"/><path class="c" d="M914.808,535.941l-6.142,3.586-5.547-3.251,6.164-3.6Z" transform="translate(-781.513 -490.171)"/><path class="c" d="M921.086,539.619l-6.181,3.626-5.561-3.306,6.176-3.573Z" transform="translate(-780.794 -489.745)"/><path class="c" d="M930.585,545.233l-6.238,3.617-5.609-3.319,6.222-3.614Z" transform="translate(-779.709 -489.104)"/><path class="c" d="M936.942,548.99l-6.26,3.628-5.626-3.346,6.24-3.651Z" transform="translate(-778.98 -488.677)"/><path class="c" d="M943.339,552.743l-6.275,3.631-5.672-3.365,6.281-3.636Z" transform="translate(-778.248 -488.243)"/><path class="c" d="M949.805,556.537l-6.347,3.62-5.669-3.37,6.271-3.617Z" transform="translate(-777.509 -487.805)"/><path class="c" d="M961.175,563.243l-6.381,3.611-10.56-6.244,6.324-3.621Z" transform="translate(-776.765 -487.364)"/><path class="c" d="M886.709,569.778,868.237,580.51l-34.389-21.367,18.061-10.7Z" transform="translate(-789.512 -488.35)"/></g><g transform="translate(78.822)"><path class="a" d="M878.512,412.262a1.59,1.59,0,0,1,1.658-.038l124.9,61.027a4.314,4.314,0,0,1,2.069,4.122l-12.368,97.334a1.812,1.812,0,0,1-.911,1.525h0a.047.047,0,0,1-.046.045l-4.394,2.216-.4-4.186L870.083,504.389a4.2,4.2,0,0,1-1.8-3.822l9.08-82.939-.775.665-2.074-3.438,4-2.594Z" transform="translate(-864.361 -412.011)"/><path class="c" d="M876.612,414.518l124.313,61.033a4.361,4.361,0,0,1,2.042,4.126L990.7,576.734a1.683,1.683,0,0,1-2.7,1.37l-121.4-71.678a4.216,4.216,0,0,1-1.823-3.832l9.436-86.53C874.375,414.58,875.425,413.878,876.612,414.518Z" transform="translate(-864.764 -411.749)"/><path class="d" d="M872.548,493.5l113.481,66.058-.291,2.318-115.3-67.256,8.019-72.675,1.908,1.01Z" transform="translate(-864.109 -410.864)"/><path class="e" d="M872.33,493.4l33.152,19.3,21.484,12.5,19.376,11.278,23.648,13.776,15.817,9.2,10.062-79.846-66.416-32.572-11.59-5.689-13.107-6.425L893.29,429.3l-13.14-6.447Z" transform="translate(-863.891 -410.759)"/></g></g><path class="f" d="M908.359,437.082l33.822,97.751,23.648,13.776L925.293,445.394Z" transform="translate(23.999 20.957)"/><path class="f" d="M893.844,429.969l34.039,96.388,8.454,4.92c-9.743-25.823-25.907-70.62-34.064-97.176Z" transform="translate(22.323 20.136)"/><g transform="translate(700.532 255.6)"><path class="g" d="M707.942,278.81l29.025-16.757.23.134c5.549-3.9,13.605-3.729,22.577,1.45a47.215,47.215,0,0,1,6.382,4.464l14.811-8.55.229.132c8.156-5.844,20.057-5.626,33.322,2.029,22.762,13.144,41.527,43.579,44.2,70.417.11.065.224.12.338.185,14,8.086,25.356,27.668,25.356,43.738,0,9.294-3.8,15.37-9.715,17.284l.41.236-28.548,16.482-33.034-18.524,23.651-13.653-77.4-44.687C747.352,326.018,736.681,311.28,732,296.3Z" transform="translate(-699.676 -255.6)"/><path class="h" d="M730.838,279.057a52.765,52.765,0,0,1,12.084,9.855c5.5-17.883,22.514-23.413,42.659-11.782,22.766,13.144,41.527,43.578,44.2,70.418.114.062.224.119.338.185,14,8.084,25.356,27.666,25.356,43.737s-11.352,22.543-25.356,14.458l-99.28-57.319c-16.737-9.663-30.306-33.068-30.306-52.275S714.1,269.393,730.838,279.057Z" transform="translate(-700.532 -253.819)"/><path class="h" d="M841.053,404.661c6.055,0,9.669-5.1,9.669-13.633,0-14.425-10.622-32.747-23.2-40.012l-1.914-1.105-.557-2.384c-2.579-25.9-20.661-54.755-42.063-67.112-6.273-3.624-12.44-5.537-17.83-5.537-9.026,0-15.62,5.276-18.562,14.854l-2.2,7.126-5.076-5.461a48.418,48.418,0,0,0-11.081-9.055,23.648,23.648,0,0,0-11.448-3.586c-7.765,0-12.4,6.407-12.4,17.136,0,17.8,12.632,39.584,28.156,48.547l99.28,57.315a19.076,19.076,0,0,0,9.227,2.909Z" transform="translate(-700.087 -253.374)"/></g><g transform="translate(869.434 289.564)"><g transform="translate(3.951)"><path class="i" d="M901.8,479.56h3.323V286.048l-49.636,28.658,1.662,2.877L901.8,291.8Z" transform="translate(-855.491 -286.048)"/></g><g transform="translate(46.927 188.263)"><path class="i" d="M894.018,459.819a5,5,0,1,0,5-5A5,5,0,0,0,894.018,459.819Z" transform="translate(-894.018 -454.822)"/></g><g transform="translate(0 24.974)"><path class="i" d="M859.444,317.765a5,5,0,1,1,1.831-6.829A5,5,0,0,1,859.444,317.765Z" transform="translate(-851.949 -308.437)"/></g></g><g transform="translate(736.582 293.394)"><path class="j" d="M801.238,372.661c-.209.009-1.253.58-1.284-.591l-.833-45.81c.944,1.22,1.123-.349,1.276-.185l1.176,46.106C801.708,372.363,801.558,372.578,801.238,372.661Z" transform="translate(-725.198 -285.257)"/><g transform="translate(1.307 0.256)"><g transform="translate(1.39 49.626)"><path class="k" d="M735.453,334.2c9.54,1.621,28.857,16.347,30.437,16.6l-30.622-16.231c.058-.123.119-.245.184-.367Z" transform="translate(-735.268 -334.2)"/></g><path class="l" d="M808.756,376.859a5.073,5.073,0,0,1-1.924-.421,40.68,40.68,0,0,1-3.2-2.549L796.1,355.574c-.136-.183-6.09-2.431.335-.48l-54.056-10.02-8.358-55.363,32.293,19.09s2.123-1.214,7.314,1.554a29.143,29.143,0,0,1,4.122,3.747s7.64,5.036,25.274,13.889c1.377.692,4.736,2.117,4.889,2.281l1.176,46.106C809.225,376.561,809.076,376.776,808.756,376.859Z" transform="translate(-734.022 -289.711)"/><path class="m" d="M767.137,349.644l-29.559-18.129a.833.833,0,0,0-.811.222c-.122.19.042.4.366.463l29.56,18.13a.835.835,0,0,0,.81-.222C767.626,349.918,767.462,349.712,767.137,349.644Z" transform="translate(-733.71 -284.886)"/><path class="m" d="M792.683,348.928c-.939-2.784-24.054.041-28.929-.328.068-.253.136-.505.2-.757,20.26,1.535,24.323.087,23.92-1.111C787.443,346.787,793.115,348.874,792.683,348.928Z" transform="translate(-730.589 -283.126)"/><g transform="translate(1.39 49.626)"><path class="k" d="M735.453,334.2c9.54,1.621,28.857,16.347,30.437,16.6l-30.622-16.231c.058-.123.119-.245.184-.367Z" transform="translate(-735.268 -334.2)"/></g></g><path class="n" d="M787.77,329.953l1.213,45.785a26.669,26.669,0,0,0,7.267-2.624c.38-.184.782-.38,1.182-.6.55-.282,1.112-.588,1.685-.928.229-.135.754-.486.754-.486l-1.182-44.58-2.483-.222-1.182.52Z" transform="translate(-726.508 -285.23)"/><g transform="translate(0 2.22)"><path class="e" d="M802.044,332.659c-3.436,1.643-3.878.076-7.932,1.316l-20.771-.766-4.615-20.046L733,300.95a2.583,2.583,0,0,1-.145-.656c-.008-.226-.01-.371-.008-.531,0-.2.01-.319.017-.446s.012-.207.017-.28c.022-.27.054-.561.095-.87.024-.181.056-.367.088-.559,0-.017.1-.537.1-.537.029-.138.056-.26.085-.384s.063-.251.094-.377c.016-.064.035-.127.051-.191.035-.127.073-.257.112-.386s.08-.259.124-.389l.633-1.581c.019-.042.04-.084.06-.126l.186-.367c.027-.049.051-.1.078-.146s.054-.1.079-.144c.035-.061.068-.122.1-.182l.244-.4c.08-.126.165-.253.252-.378.043-.061.087-.124.133-.185l.277-.366c.124-.189,30.155,17.6,30.155,17.6l.293-.036.143-.019c1.032,2.8,4.763,4.829,9.463,5.239l.228.018c-.044.155-.06.226-.08.3s29.15,15.97,29.15,15.97A21.277,21.277,0,0,1,802.044,332.659Z" transform="translate(-732.85 -291.472)"/><path class="k" d="M734.365,293.085c9.538,1.621,28.856,16.347,30.436,16.6l-30.624-16.234c.06-.122.122-.245.186-.366Z" transform="translate(-732.697 -291.285)"/><path class="k" d="M765.946,311.1l-32.98-13.564c.024-.181.056-.367.088-.559Z" transform="translate(-732.837 -290.836)"/></g><g transform="translate(0.005)"><path class="o" d="M766.6,308.074,734.883,289.5a.881.881,0,0,0-.857.234c-.129.2.041.418.385.489l31.715,18.57a.879.879,0,0,0,.854-.233C767.11,308.363,766.94,308.144,766.6,308.074Z" transform="translate(-732.725 -289.481)"/><path class="o" d="M773.356,311.6l30.112,16.039c.143.193-.017.421-.354.508a.891.891,0,0,1-.871-.192l-30.111-16.041c-.143-.193.017-.421.354-.508A.888.888,0,0,1,773.356,311.6Z" transform="translate(-728.326 -286.953)"/><path class="o" d="M773.2,312.458c-.991-2.939-5.082-5.16-10.229-5.549.07-.267.143-.533.215-.8,5.728.434,10.283,2.9,11.385,6.176Z" transform="translate(-729.377 -287.561)"/><g transform="translate(0 2.221)"><path class="e" d="M768.725,313.162s-11.311,9.651-14.916,8.6C748.174,320.115,733,300.95,733,300.95a2.583,2.583,0,0,1-.145-.656,14.381,14.381,0,0,1,.859-5.154c.084-.209,1.639-3.735,1.963-3.668l30.37,17.907a.743.743,0,0,1,.213.076c.175.095.243.245.153.387C766.3,310.027,768.887,313.064,768.725,313.162Z" transform="translate(-732.855 -291.472)"/><path class="n" d="M734.365,293.085c9.538,1.621,28.856,16.347,30.436,16.6l-30.624-16.234c.06-.122.122-.245.186-.366Z" transform="translate(-732.703 -291.286)"/><path class="n" d="M765.946,311.1l-32.98-13.564c.024-.181.056-.367.088-.559Z" transform="translate(-732.842 -290.837)"/></g></g><path class="n" d="M732.9,299.779l2.311,42.892s9.77,10.4,21.1,13.3c3.565.914,13.937,1.393,13.937,1.393L768.72,312.2a26.279,26.279,0,0,1-15.464.2C743.25,309.5,732.9,299.779,732.9,299.779Z" transform="translate(-732.844 -288.292)"/><path class="p" d="M765.012,310.917l1.528,45.163s1.366,7.325,2.907,9.171c8.15,9.763,22.168,12.259,22.168,12.259L790.4,331.725S774.685,328,768.99,320.769C767.347,318.683,765.012,310.917,765.012,310.917Z" transform="translate(-729.136 -287.006)"/></g><path class="q" d="M772.534,450.4s4.635-2.781,9.27,3.708l2.781,5.561s-.927.927-2.781,0c0,0,.844,6.531-.041,10.218l-2.74-11.145Z" transform="translate(8.315 22.426)"/><path class="r" d="M767.32,480.871s1.014,11.315-5.966,17.574,16.086,0,16.086,0-4.292-10.839-3.33-17.574S767.32,480.871,767.32,480.871Z" transform="translate(6.872 25.668)"/><path class="s" d="M783.334,471.293c0,9.195-5.464,16.65-12.2,16.65s-12.2-7.455-12.2-16.65,5.464-16.65,12.2-16.65c3.515,0,7.758-.366,9.985,2.878C783.159,460.5,783.334,466.892,783.334,471.293Z" transform="translate(6.743 22.983)"/><g transform="translate(765.525 471.813)"><path class="q" d="M775.636,462.336s-21.127,11.714-14.856-7.092C765.119,442.232,790.045,453.952,775.636,462.336Z" transform="translate(-758.703 -449.43)"/><path class="q" d="M772.668,457.757s13.288-6.957,1.534-7.485-16.3.606-15.26,22.819C758.942,473.092,762.356,455.421,772.668,457.757Z" transform="translate(-758.797 -449.343)"/></g><path class="q" d="M775.22,450.8s-.2-4.841-6.693-3.914-9.716,4.7-10.643,8.4-2.547,7.059-3.474,7.059c0,0,3.532.446,4.459-.481,0,0-2.406,6.666.65,12.14,0,0,1.2-8.432,5.838-9.359S775.22,450.8,775.22,450.8Z" transform="translate(6.222 22.076)"/><g transform="translate(837.806 552.812)"><path class="t" d="M824.424,550.895c.718-.592,10.521-5.5,13.524-9.564S845,530.932,847,529.109c2.356-2.145,1.65-3.472-1.374-1.19a47.269,47.269,0,0,0-6.171,5.629c-.277.421,1.8-2.15,4.3-4.8,2.655-2.819,5.731-5.757,5.216-6.288-1-1.031-9.266,6.713-10.441,8.248a45.618,45.618,0,0,1,3.157-4.009c1.542-1.739,3.621-3.544,3.455-4.245-.262-1.107-5.283,2.607-8.334,6.34-.184-.014.388-1.47,4.33-5.65.4-.419.91-1.788-.814-.672-3.63,2.352-5.383,3.091-8.436,7.833-2.977,4.624-5.065,10.452-8.3,13.118Z" transform="translate(-823.595 -522.044)"/><path class="t" d="M835.193,541.758s6.243-1.2,9.366-4.9c1.856-2.2,2.472-1.748,2.914-2.046,1.468-.992-2.04-1.294-3.974.357-1.571,1.341-5.176.442-6.426,1.063s-4.245,2.934-4.279,3.942S835.193,541.758,835.193,541.758Z" transform="translate(-822.533 -520.663)"/></g><path class="i" d="M824.445,571.05s3.384-14.576,4.393-21.087a11.409,11.409,0,0,0-3.781-10.291l-8.823-.589Z" transform="translate(13.361 32.736)"/><path class="u" d="M844.1,595.9c-4.968-33.863-11.2-54.519-25.682-73.27-8.993-11.641-24.883-26.306-32.8-30.1a15.458,15.458,0,0,1-7.034,1.1s-8,.074-10.781-2.056c-7.4,2.841-19.084,12.017-27.225,22.716-14.378,18.893-15.118,30.184-19.159,71.344-3.1,31.534-3.993,25.822,2.425,43.93,11.7,33.014,40.288,34.945,44.429,35.709,28.643,5.284,70.747-.879,83.781-26.28C860.962,621.614,852.78,655.082,844.1,595.9Z" transform="translate(2.136 27.249)"/><g transform="translate(892.104 600.737)"><path class="t" d="M872.272,585.221c.726-.576,7.57-8.943,12.143-11.083s11.575-4.886,13.768-6.46c2.578-1.852,3.715-.972.86,1.484a49.455,49.455,0,0,1-6.765,4.847c-.466.19,2.466-1.334,5.566-3.235,3.3-2.021,6.8-4.416,7.2-3.845.786,1.107-8.475,7.566-10.213,8.413a48.267,48.267,0,0,0,4.557-2.293c2.013-1.156,4.2-2.805,4.849-2.533,1.016.428-3.65,4.517-7.915,6.756-.027.174,1.506-.122,6.394-3.122.492-.3,1.928-.557.479.875-3.051,3.01-4.14,4.53-9.385,6.6-5.113,2.025-11.2,3.016-14.476,5.6Z" transform="translate(-872.272 -564.813)"/><path class="t" d="M881.265,575.619s2.489-5.649,6.735-7.962c2.524-1.374,2.22-2.025,2.6-2.389,1.273-1.211.82,2.124-1.191,3.662-1.634,1.249-1.529,4.774-2.4,5.843s-3.746,3.49-4.73,3.354S881.265,575.619,881.265,575.619Z" transform="translate(-871.233 -565.007)"/></g><path class="v" d="M825.182,592c1.658-7.751,5.577-31-7.107-53.731-11.842-21.221-38.43-42.477-57.125-35.087-15.8,6.243-19.223,30.277-21.66,47.359-2.93,20.538-9.267,64.964,23.028,93.343A80.915,80.915,0,0,0,833.6,661.371c31.362-7.454,55.87-33.7,62.373-67.041l-7.415-7.094A181.689,181.689,0,0,0,825.182,592Z" transform="translate(4.184 28.417)"/><path class="r" d="M780.663,466.282c.6,1.685,1.465,4.267,1.824,5.335a.464.464,0,0,1-.345.6l-2.947.648a.467.467,0,0,1-.559-.543l1.129-5.967A.466.466,0,0,1,780.663,466.282Z" transform="translate(9.018 24.293)"/><path class="q" d="M774.066,461.122s-7.589,4.146-7.7,9.748c0,0-2.328-5.651-1.9-6.928S774.066,461.122,774.066,461.122Z" transform="translate(7.376 23.733)"/><path class="q" d="M765.624,466.608a2.962,2.962,0,0,0-2.723-1.694c-1.9.112-.9,7.593-.223,7.774s-1.923.181-1.57,5.56-5.006-11.081-3.217-15.457,3.554-1.461,5.571-.117A5.494,5.494,0,0,1,765.624,466.608Z" transform="translate(6.581 23.658)"/></g></svg>