<svg xmlns="http://www.w3.org/2000/svg" xmlns:xlink="http://www.w3.org/1999/xlink" width="482.249" height="406.104" viewBox="0 0 482.249 406.104"><defs><style>.a{fill:none;}.b{clip-path:url(#a);}.c{opacity:0.15;}.d{opacity:0.3;}.e{fill:#999;}.f{fill:#ccc;}.g{fill:gray;}.h{fill:#d8a35d;fill-rule:evenodd;}.i{fill:#947dce;}</style><clipPath id="a"><rect class="a" width="482.249" height="406.104"/></clipPath></defs><g transform="translate(-950.751 -406.317)"><g class="b" transform="translate(950.751 406.317)"><g transform="translate(24.623 56.756)"><path class="c" d="M1325.4,636.24s-227.811,15.713-235.886,236.827l-.95,4.818,46.665-20.422s86.044-138.2,89.055-139.831S1325.4,636.24,1325.4,636.24Z" transform="translate(-953.138 -425.974)"/><g class="d" transform="translate(6.181 193.008)"><path d="M977.739,622.834c-.158-.49-.316-.978-.464-1.454C977.275,621.38,977.446,621.893,977.739,622.834Z" transform="translate(-977.275 -621.38)"/></g><path class="e" d="M1188.872,458.886l-204.788,124.7a25.3,25.3,0,0,0-8.452,34.739l85.126,139.763a7.809,7.809,0,0,0,.649.962,25.209,25.209,0,0,0,34.078,7.464l204.789-124.7a25.26,25.26,0,0,0,8.424-34.728l-81.156-133.294-3.942-6.48A25.259,25.259,0,0,0,1188.872,458.886Z" transform="translate(-971.953 -455.187)"/><path class="f" d="M1192.826,465.294,988.037,590a25.259,25.259,0,0,0-8.426,34.728l81.156,133.293a25.209,25.209,0,0,0,34.077,7.464l204.789-124.7a25.259,25.259,0,0,0,8.424-34.728L1226.9,472.757A25.207,25.207,0,0,0,1192.826,465.294Z" transform="translate(-971.314 -454.153)"/><circle class="g" cx="19.517" cy="19.517" r="19.517" transform="translate(151.798 143.999)"/><path class="c" d="M1129.63,777.8s81.922-29.775-34.187-234.235,15.662,182.879,15.662,182.879Z" transform="translate(-959.746 -450.542)"/><g transform="translate(62.43 10.541)"><g transform="translate(9.235)"><path class="h" d="M1075.847,579.285c-.2-2.909,4.8-36.55.1-51.728s-13.125-37.291-14.1-45.724c-1.148-9.923-5.6-10.706-5.276,1.137.212,7.7,1.911,22.944,3.036,26.011.545,1.487-2.114-8.567-4.249-19.807-2.269-11.949-4.1-25.17-6.29-24.906-4.24.512.322,35.749,2.028,41.584a152.5,152.5,0,0,1-4.3-15.462c-1.569-7.134-2.365-15.722-4.363-16.649-3.147-1.459-2.791,18.055,1.023,32.728-.348.427-2.9-3.764-6.265-21.5-.338-1.782-2.783-5.664-3.045.737-.553,13.472-1.785,19.225,4.482,35.825,6.111,16.189,16.7,32.471,17.594,45.561Z" transform="translate(-1033.661 -464.264)"/><path class="h" d="M1072.8,531.66s7.88-17.75,4.277-32.533c-2.141-8.787.019-9.453.056-11.118.125-5.526-6.68,2.587-6.005,10.524.549,6.45-7.877,13.664-8.528,17.948s-.2,16.107,2.2,18.11S1072.8,531.66,1072.8,531.66Z" transform="translate(-1029.036 -460.725)"/></g><path class="i" d="M1499.079,672.449C1474.65,742,1446.988,794.568,1317.274,873.867c-65.811,40.233-137.418,66.454-175.744,78.912a47.469,47.469,0,0,1-50.614-14.375c-118.236-137.357-39.557-374.473-39.557-374.473-.378-10.51,39.686-5.6,39.686-5.6,37.272,87.554,62.439,156.045,64.465,237.261.019-.424,100.4-122.181,132.079-146.139,83.082-62.8,130.612-176.067,175.666-170.476C1478.835,480.9,1523.721,602.3,1499.079,672.449Z" transform="translate(-1025.709 -461.923)"/></g></g></g></g></svg>