<svg xmlns="http://www.w3.org/2000/svg" width="554.721" height="313.234" viewBox="0 0 554.721 313.234"><defs><style>.a{fill:#89bbe1;}.b{fill:#ffc84f;}.c{fill:none;stroke:#3f6fa4;stroke-miterlimit:10;stroke-width:3px;}.d{fill:#ce521f;}.e{fill:#ebebeb;}.f{fill:#8e96a3;}.g{fill:#3d3d3d;}.h{fill:#d0d1d6;}.i{fill:#aaa;}</style></defs><g transform="translate(1663.461 1690.625)"><path class="a" d="M-949.33-1253.195a47.49,47.49,0,0,1-47.437-47.437,47.49,47.49,0,0,1,47.437-47.437,47.49,47.49,0,0,1,47.437,47.437A47.491,47.491,0,0,1-949.33-1253.195Zm0-85.574a38.18,38.18,0,0,0-38.136,38.136A38.18,38.18,0,0,0-949.33-1262.5a38.181,38.181,0,0,0,38.137-38.137A38.18,38.18,0,0,0-949.33-1338.769Z" transform="translate(-264.146 -135.722)"/><path class="b" d="M-831.961-1545.988a37.762,37.762,0,0,1-37.719-37.72,37.762,37.762,0,0,1,37.719-37.719,37.762,37.762,0,0,1,37.719,37.719A37.762,37.762,0,0,1-831.961-1545.988Zm0-66.139a28.451,28.451,0,0,0-28.419,28.419,28.451,28.451,0,0,0,28.419,28.419,28.451,28.451,0,0,0,28.419-28.419A28.451,28.451,0,0,0-831.961-1612.127Z" transform="translate(-314.499 -27.416)"/><path class="a" d="M-1619.849-1509.07a43.661,43.661,0,0,1-43.612-43.612,43.661,43.661,0,0,1,43.612-43.612,43.661,43.661,0,0,1,43.612,43.612A43.661,43.661,0,0,1-1619.849-1509.07Zm0-77.923a34.351,34.351,0,0,0-34.311,34.311,34.351,34.351,0,0,0,34.311,34.311,34.35,34.35,0,0,0,34.311-34.311A34.35,34.35,0,0,0-1619.849-1586.993Z" transform="translate(0 -37.375)"/><path class="b" d="M-1512.546-1214.031a32.177,32.177,0,0,1-32.141-32.141,32.177,32.177,0,0,1,32.141-32.141,32.177,32.177,0,0,1,32.141,32.141A32.177,32.177,0,0,1-1512.546-1214.031Zm0-54.981a22.866,22.866,0,0,0-22.84,22.84,22.866,22.866,0,0,0,22.84,22.84,22.866,22.866,0,0,0,22.84-22.84A22.866,22.866,0,0,0-1512.546-1269.013Z" transform="translate(-47.059 -163.359)"/><path class="a" d="M-1349.162-1626.344a32.177,32.177,0,0,1-32.141-32.141,32.177,32.177,0,0,1,32.141-32.141,32.177,32.177,0,0,1,32.141,32.141A32.177,32.177,0,0,1-1349.162-1626.344Zm0-54.981a22.866,22.866,0,0,0-22.84,22.84,22.866,22.866,0,0,0,22.84,22.841,22.866,22.866,0,0,0,22.841-22.841A22.866,22.866,0,0,0-1349.162-1681.325Z" transform="translate(-111.792)"/><rect class="a" width="9.3" height="63.162" transform="matrix(0.505, -0.863, 0.863, 0.505, -1306.57, -1487.008)"/><rect class="b" width="132.506" height="9.3" transform="translate(-1306.8 -1560.121) rotate(-18.292)"/><rect class="a" width="9.3" height="104.55" transform="matrix(0.287, -0.958, 0.958, 0.287, -1583.379, -1576.161)"/><rect class="b" width="82.682" height="9.301" transform="translate(-1537.849 -1427.015) rotate(-28.874)"/><rect class="a" width="9.301" height="29.543" transform="translate(-1452.652 -1632.858) rotate(-29.093)"/><path class="b" d="M-1092.509-1482.964l10.489-.743a99.117,99.117,0,0,0-39.733-63.661l-5.5,8.928A88.643,88.643,0,0,1-1092.509-1482.964Z" transform="translate(-212.446 -56.759)"/><path class="b" d="M-1251.411-1567.888a88.029,88.029,0,0,1,52.33,17.173l5.5-8.928a98.415,98.415,0,0,0-57.833-18.707,98.417,98.417,0,0,0-57.126,18.2l6.741,8.052A88,88,0,0,1-1251.411-1567.888Z" transform="translate(-140.622 -44.483)"/><path class="b" d="M-1319.176-1540.164l-6.741-8.052a99.77,99.77,0,0,0-26.487,27.894l9.065,5.244A89.239,89.239,0,0,1-1319.176-1540.164Z" transform="translate(-123.241 -56.423)"/><path class="b" d="M-1181.3-1465.739l-10.489.743a88.65,88.65,0,0,1,1.425,15.855,88.6,88.6,0,0,1-88.5,88.5,88.6,88.6,0,0,1-88.5-88.5,87.948,87.948,0,0,1,13.955-47.632l-9.065-5.244a98.364,98.364,0,0,0-15.353,52.876,99.078,99.078,0,0,0,98.966,98.966,99.078,99.078,0,0,0,98.966-98.966A99.207,99.207,0,0,0-1181.3-1465.739Z" transform="translate(-113.167 -74.727)"/><path class="c" d="M-822.109-1591.4c-12.52,0-22.706,8-22.706,17.833s10.186,17.833,22.706,17.833c.655,0,1.331-.025,2.012-.073l1.782,4.312a1.019,1.019,0,0,0,.773.621.94.94,0,0,0,.184.017,1.035,1.035,0,0,0,.77-.343l6.5-7.233c6.692-3.279,10.684-8.931,10.684-15.134C-799.4-1583.4-809.589-1591.4-822.109-1591.4Zm-8.509,22.415a2.718,2.718,0,0,1-2.714-2.715,2.717,2.717,0,0,1,2.714-2.714,2.717,2.717,0,0,1,2.714,2.714A2.717,2.717,0,0,1-830.619-1568.981Zm8.57,0a2.717,2.717,0,0,1-2.714-2.715,2.717,2.717,0,0,1,2.714-2.714,2.717,2.717,0,0,1,2.714,2.714A2.718,2.718,0,0,1-822.048-1568.981Zm8.175,0a2.717,2.717,0,0,1-2.713-2.715,2.717,2.717,0,0,1,2.713-2.714,2.717,2.717,0,0,1,2.714,2.714A2.717,2.717,0,0,1-813.873-1568.981Z" transform="translate(-324.35 -39.315)"/><g transform="translate(-1479.043 -1598.158)"><g transform="translate(21.132 54.552)"><path class="d" d="M-1322.7-1445.349h0a.512.512,0,0,1-.3-.656l.415-1.129.959.353-.416,1.128A.512.512,0,0,1-1322.7-1445.349Z" transform="translate(1323.032 1447.134)"/></g><g transform="translate(26.474 56.511)"><path class="d" d="M-1313.851-1442.1h0a.512.512,0,0,1-.3-.656l.415-1.129c.028-.075.955.363.955.363l-.412,1.118A.512.512,0,0,1-1313.851-1442.1Z" transform="translate(1314.185 1443.89)"/></g><g transform="translate(21.029 53.891)"><path class="e" d="M-1322.868-1446.005h0a.512.512,0,0,1-.3-.656l.455-1.235a.512.512,0,0,1,.656-.3h0a.512.512,0,0,1,.3.656l-.455,1.235A.512.512,0,0,1-1322.868-1446.005Z" transform="translate(1323.203 1448.23)"/></g><g transform="translate(26.36 55.854)"><path class="e" d="M-1314.039-1442.753h0a.513.513,0,0,1-.3-.656l.455-1.235a.512.512,0,0,1,.656-.3h0a.512.512,0,0,1,.3.656l-.455,1.235A.513.513,0,0,1-1314.039-1442.753Z" transform="translate(1314.374 1444.979)"/></g><g transform="translate(19.327 67.905)"><rect class="f" width="2.171" height="3.349" transform="translate(0 2.037) rotate(-69.783)"/></g><g transform="translate(20.759 64.314)"><rect class="f" width="2.171" height="3.349" transform="translate(0 2.037) rotate(-69.783)"/></g><g transform="translate(0 91.693)"><path class="g" d="M-1183.836-1341.649h-170.109a3.781,3.781,0,0,1-4.086-3.727v-2.549l18.62-34.407a5.926,5.926,0,0,1,5.308-3.291h130.177c2.429,0,7.785,4.784,8.872,6.957l15.361,31.315v1.125C-1179.656-1342.964-1181.765-1341.649-1183.836-1341.649Z" transform="translate(1358.031 1385.622)"/></g><g transform="translate(0.015 88.091)"><path class="h" d="M-1183.811-1347.614H-1353.92c-1.889,0-5-1.657-3.83-3.693l18.365-36.99a5.927,5.927,0,0,1,5.308-3.291H-1203.9a6.412,6.412,0,0,1,5.735,3.546l18.179,36.377C-1178.713-1349.346-1181.739-1347.614-1183.811-1347.614Z" transform="translate(1358.006 1391.588)"/></g><g transform="translate(18.608 0)"><rect class="h" width="139.306" height="88.027" rx="8.435"/></g><g transform="translate(23.956 4.801)"><rect class="g" width="128.56" height="76.276"/></g><g transform="translate(62.785 114.979)"><path class="g" d="M-1203.02-1331.571h-50.124a.9.9,0,0,1-.892-1.046l2.113-13.2a1.468,1.468,0,0,1,1.45-1.236h45.209a1.29,1.29,0,0,1,1.277,1.1l1.937,13.277A.978.978,0,0,1-1203.02-1331.571Z" transform="translate(1254.047 1347.056)"/></g><g transform="translate(17.899 94.178)"><path class="i" d="M-1189.741-1363.429h-136.189c-1.511,0-2.663-.581-2.425-1.222l5.743-15.412c.31-.831,1.98-1.443,3.939-1.443h122.837c1.741,0,3.218.548,3.469,1.288l5.264,15.5C-1186.9-1364.035-1188.137-1363.429-1189.741-1363.429Z" transform="translate(1328.387 1381.507)"/></g><g transform="translate(17.541 90.737)"><g transform="translate(0 6.097)"><rect class="h" width="142.023" height="0.717"/></g><g transform="translate(0 9.683)"><rect class="h" width="142.023" height="0.717"/></g><g transform="translate(0 13.987)"><rect class="h" width="142.023" height="0.717"/></g><g transform="translate(0 17.932)"><rect class="h" width="142.023" height="0.717"/></g><g transform="translate(10.106 0.383)"><rect class="h" width="1.076" height="23.67" transform="translate(7.094) rotate(17.439)"/></g><g transform="translate(20.507 0.383)"><rect class="h" width="1.076" height="23.67" transform="translate(7.094 0) rotate(17.439)"/></g><g transform="translate(28.756 0.383)"><rect class="h" width="1.076" height="23.67" transform="translate(7.094) rotate(17.439)"/></g><g transform="translate(37.004 0.383)"><rect class="h" width="1.076" height="23.67" transform="translate(7.094) rotate(17.439)"/></g><g transform="translate(45.612 0.383)"><rect class="h" width="1.076" height="23.67" transform="translate(7.094 0) rotate(17.439)"/></g><g transform="translate(56.932 0.114)"><rect class="h" width="1.076" height="23.67" transform="translate(4.508) rotate(10.978)"/></g><g transform="translate(68.859)"><rect class="h" width="1.076" height="23.67"/></g><g transform="translate(124.513 0.383)"><rect class="h" width="1.076" height="23.67" transform="translate(0 0.322) rotate(-17.439)"/></g><g transform="translate(114.471 0.383)"><rect class="h" width="1.076" height="23.67" transform="translate(0 0.322) rotate(-17.439)"/></g><g transform="translate(104.429 0.383)"><rect class="h" width="1.076" height="23.67" transform="translate(0 0.322) rotate(-17.439)"/></g><g transform="translate(94.387 0.383)"><rect class="h" width="1.076" height="23.67" transform="translate(0 0.322) rotate(-17.439)"/></g><g transform="translate(84.345 0.383)"><rect class="h" width="1.076" height="23.67" transform="translate(0 0.322) rotate(-17.439)"/></g><g transform="translate(74.303 0.383)"><rect class="h" width="1.076" height="23.67" transform="translate(0 0.322) rotate(-17.439)"/></g></g></g><g transform="translate(-1418.597 -1583.224)"><path class="a" d="M-1230.53-1454.936l2.78.008a28.836,28.836,0,0,0,27.708-28.906,28.837,28.837,0,0,0-27.709-28.906l-2.753-.009-.026.018a28.9,28.9,0,0,0-27.39,28.9A28.9,28.9,0,0,0-1230.53-1454.936Zm-17.476-10.19a32.386,32.386,0,0,1,5.918-3.4,34.63,34.63,0,0,0,8.239,10.941A26.774,26.774,0,0,1-1248.005-1465.125Zm17.905,7.721a33.083,33.083,0,0,1-9.9-11.961,33.411,33.411,0,0,1,9.9-1.969Zm0-16.166a35.67,35.67,0,0,0-10.809,2.154,33,33,0,0,1-2.31-10.347l13.119-.007Zm0-10.438-13.189.008a33.363,33.363,0,0,1,1.8-10.705,35.132,35.132,0,0,0,11.388,2.413Zm5.6,26.492a34.586,34.586,0,0,0,8.517-11.414,32.408,32.408,0,0,1,6.368,3.456A26.691,26.691,0,0,1-1224.5-1457.516Zm16.364-9.652a34.556,34.556,0,0,0-6.985-3.826,35.331,35.331,0,0,0,2.311-10.786l10.445-.006A26.451,26.451,0,0,1-1208.134-1467.167Zm.835-32.229a26.438,26.438,0,0,1,5.018,15.374l-10.46.006a35.626,35.626,0,0,0-1.831-11.135A35.256,35.256,0,0,0-1207.3-1499.4Zm-1.381-1.761a33.061,33.061,0,0,1-6.667,3.9,35.011,35.011,0,0,0-9.154-12.9A26.574,26.574,0,0,1-1208.68-1501.157Zm-19.184-8.871a32.836,32.836,0,0,1,10.435,13.6,32.893,32.893,0,0,1-10.435,1.921Zm0,17.764a35.174,35.174,0,0,0,11.206-2.063,33.416,33.416,0,0,1,1.679,10.311l-12.884.008Zm0,10.493,12.814-.007a33.081,33.081,0,0,1-2.171,10.009,35.716,35.716,0,0,0-10.644-1.828Zm0,10.409a33.472,33.472,0,0,1,9.768,1.658,33.026,33.026,0,0,1-9.768,12.066Zm-2.237-38.9v15.729a32.92,32.92,0,0,1-10.584-2.264A32.9,32.9,0,0,1-1230.1-1510.262Zm-3.744.179a35.055,35.055,0,0,0-8.893,12.395,32.954,32.954,0,0,1-6.206-3.85A26.663,26.663,0,0,1-1233.844-1510.083Zm-16.516,10.278a35.21,35.21,0,0,0,6.808,4.208,35.61,35.61,0,0,0-1.977,11.6l-10.155.005A26.408,26.408,0,0,1-1250.36-1499.805Zm-5.238,18.048,10.138-.005a35.241,35.241,0,0,0,2.474,11.187,34.6,34.6,0,0,0-6.529,3.783A26.4,26.4,0,0,1-1255.6-1481.757Z" transform="translate(1257.921 1512.748)"/></g><path class="b" d="M-908.9-1274.022a11.1,11.1,0,0,0-11.342-10.805,11.92,11.92,0,0,0-1.234.065c.022-.325.032-.646.032-.955a14.1,14.1,0,0,0-14.081-14.082,14.031,14.031,0,0,0-9.572,3.755,14.028,14.028,0,0,0-4.463,9.172,11.976,11.976,0,0,0-1.559-.1A11.893,11.893,0,0,0-963-1275.094a11.9,11.9,0,0,0,11.806,11.875l11.866,0a1.089,1.089,0,0,0,.787-.338,1.085,1.085,0,0,0,.3-.8c0-.008,0-.016,0-.026v-8.848a1.086,1.086,0,0,0-1.086-1.086h-1.52l4.73-5.823c.113-.14.223-.14.337,0l4.729,5.823h-1.519a1.085,1.085,0,0,0-1.086,1.086v8.857c0,.025,0,.051,0,.074a1.086,1.086,0,0,0,1.086,1.086h12.391A11.1,11.1,0,0,0-908.9-1274.022Zm-11.3,8.633-11.286,0v-6.759h1.02a1.922,1.922,0,0,0,1.891-1.009,1.831,1.831,0,0,0-.367-2.008l-5.155-6.346a2.4,2.4,0,0,0-1.854-.915,2.4,2.4,0,0,0-1.854.915l-5.156,6.347a1.831,1.831,0,0,0-.366,2.007,1.922,1.922,0,0,0,1.891,1.009h1.02v6.759h-10.551l-.205,0a9.726,9.726,0,0,1-9.655-9.7,9.719,9.719,0,0,1,9.707-9.709,9.863,9.863,0,0,1,1.288.085l1.119.148a1.091,1.091,0,0,0,.824-.232,1.083,1.083,0,0,0,.4-.756l.092-1.125a11.863,11.863,0,0,1,3.776-7.768,11.863,11.863,0,0,1,8.1-3.176,11.923,11.923,0,0,1,11.909,11.91c0,.266-.009.543-.028.823l-.087,1.271a1.085,1.085,0,0,0,.329.856,1.078,1.078,0,0,0,.866.3l1.272-.132a9.569,9.569,0,0,1,1.02-.055,8.925,8.925,0,0,1,9.17,8.634A8.93,8.93,0,0,1-920.2-1265.389Z" transform="translate(-277.525 -154.847)"/><g transform="translate(-1634.943 -1607.043)"><path class="b" d="M-1616.229-1510.972v7.438a1.178,1.178,0,0,0,1.177,1.177h29.219a1.179,1.179,0,0,0,1.177-1.177v-7.438a1.179,1.179,0,0,0-1.177-1.177h-2.876a1.178,1.178,0,0,0-1.176,1.177v3.378H-1611v-3.378a1.178,1.178,0,0,0-1.177-1.177h-2.877A1.178,1.178,0,0,0-1616.229-1510.972Zm1.423.245h2.385v3.844a.711.711,0,0,0,.711.711h22.535a.711.711,0,0,0,.711-.711v-3.844h2.386v6.948h-28.728Z" transform="translate(1616.229 1536.33)"/><path class="b" d="M-1598.378-1547.234h9.023a1.256,1.256,0,0,0,1.255-1.255v-2.453a1.256,1.256,0,0,0-1.255-1.255h-9.023a1.256,1.256,0,0,0-1.255,1.255v2.453A1.256,1.256,0,0,0-1598.378-1547.234Zm.168-3.541h8.687v2.118h-8.687Z" transform="translate(1609.654 1552.197)"/><path class="b" d="M-1603.958-1536.417h-4.61a1.8,1.8,0,0,0-1.68.929,1.233,1.233,0,0,0,.2,1.343l5.225,6.124h0l5.226,6.124a1.918,1.918,0,0,0,1.477.615h0a1.921,1.921,0,0,0,1.479-.615l10.45-12.249a1.233,1.233,0,0,0,.2-1.343,1.8,1.8,0,0,0-1.68-.929h-4.767v-4.347a1.179,1.179,0,0,0-1.176-1.178h-9.171a1.179,1.179,0,0,0-1.176,1.178Zm.711,1.422a.711.711,0,0,0,.711-.711v-4.814h8.678v4.814a.711.711,0,0,0,.711.711h5.478a.783.783,0,0,1,.29.051l-10.343,12.124a.6.6,0,0,1-.4.117h0a.594.594,0,0,1-.4-.116l-5.226-6.124h0l-5.118-6a.788.788,0,0,1,.29-.051Z" transform="translate(1613.905 1548.134)"/></g><g transform="translate(-1574.808 -1422.145)"><path class="a" d="M-1497.977-1208.777a3.382,3.382,0,0,0,3.378,3.378,3.382,3.382,0,0,0,3.378-3.378,3.382,3.382,0,0,0-3.378-3.378A3.382,3.382,0,0,0-1497.977-1208.777Zm5.773,0a2.4,2.4,0,0,1-2.395,2.395,2.4,2.4,0,0,1-2.4-2.395,2.4,2.4,0,0,1,2.4-2.4A2.4,2.4,0,0,1-1492.2-1208.777Z" transform="translate(1509.243 1232.574)"/><path class="a" d="M-1501.991-1245.972a19.764,19.764,0,0,0-14.223,5.981,1.466,1.466,0,0,0-.421,1.047,1.465,1.465,0,0,0,.442,1.038,1.464,1.464,0,0,0,1.032.422h.016a1.466,1.466,0,0,0,1.039-.443,16.836,16.836,0,0,1,12.116-5.1,16.833,16.833,0,0,1,12.115,5.1,1.465,1.465,0,0,0,1.054.443,1.467,1.467,0,0,0,1.032-.422,1.466,1.466,0,0,0,.443-1.038,1.466,1.466,0,0,0-.422-1.047A19.764,19.764,0,0,0-1501.991-1245.972Zm13.513,7.364a.5.5,0,0,1-.695-.007,17.812,17.812,0,0,0-12.818-5.39,17.813,17.813,0,0,0-12.819,5.39.489.489,0,0,1-.346.148.5.5,0,0,1-.349-.141.489.489,0,0,1-.147-.346.491.491,0,0,1,.14-.349,18.787,18.787,0,0,1,13.521-5.686,18.785,18.785,0,0,1,13.52,5.686.491.491,0,0,1,.141.349A.492.492,0,0,1-1488.478-1238.608Z" transform="translate(1516.635 1245.972)"/><path class="a" d="M-1490.114-1227.765a1.466,1.466,0,0,0,1.028-.417,1.477,1.477,0,0,0,.03-2.086,14.484,14.484,0,0,0-10.47-4.429,14.486,14.486,0,0,0-10.47,4.429,1.477,1.477,0,0,0,.03,2.086,1.476,1.476,0,0,0,2.085-.03,11.558,11.558,0,0,1,8.355-3.535,11.557,11.557,0,0,1,8.354,3.535A1.462,1.462,0,0,0-1490.114-1227.765Zm-18.472-1.133a.491.491,0,0,1-.695.01.493.493,0,0,1-.01-.7,13.51,13.51,0,0,1,9.765-4.13,13.51,13.51,0,0,1,9.765,4.13.492.492,0,0,1-.01.7.5.5,0,0,1-.694-.01,12.534,12.534,0,0,0-9.06-3.833A12.535,12.535,0,0,0-1508.586-1228.9Z" transform="translate(1514.17 1241.505)"/><path class="a" d="M-1491.3-1217.22a1.469,1.469,0,0,0,1.019-.408,1.466,1.466,0,0,0,.456-1.033,1.466,1.466,0,0,0-.409-1.052,9.643,9.643,0,0,0-7.034-3.011,9.643,9.643,0,0,0-7.034,3.011,1.462,1.462,0,0,0-.408,1.052,1.466,1.466,0,0,0,.455,1.033,1.467,1.467,0,0,0,1.018.408h.034a1.467,1.467,0,0,0,1.033-.455,6.721,6.721,0,0,1,4.9-2.1,6.721,6.721,0,0,1,4.9,2.1A1.481,1.481,0,0,0-1491.3-1217.22Zm-11.581-1.135a.487.487,0,0,1-.344.151.493.493,0,0,1-.35-.136.49.49,0,0,1-.153-.344.492.492,0,0,1,.136-.351,8.668,8.668,0,0,1,6.323-2.707,8.667,8.667,0,0,1,6.323,2.707.493.493,0,0,1,.136.351.492.492,0,0,1-.152.344.5.5,0,0,1-.7-.016,7.7,7.7,0,0,0-5.612-2.4A7.7,7.7,0,0,0-1502.879-1218.355Z" transform="translate(1511.91 1236.761)"/></g><g transform="translate(-1475.669 -1668.728)"><path class="b" d="M-1324.736-1653.736a2.134,2.134,0,0,0-1.509-.624h-24.064a2.138,2.138,0,0,0-1.511.627,2.135,2.135,0,0,0-.624,1.508v15.785a2.132,2.132,0,0,0,.626,1.51,2.123,2.123,0,0,0,1.509.625h24.063a2.126,2.126,0,0,0,1.511-.626,2.131,2.131,0,0,0,.624-1.509v-15.785a2.134,2.134,0,0,0-.624-1.508Zm-.525,17.3a.982.982,0,0,1-.287.7.981.981,0,0,1-.7.289h-24.063a.978.978,0,0,1-.694-.287.987.987,0,0,1-.29-.7v-15.784a.987.987,0,0,1,.287-.7.989.989,0,0,1,.7-.29h24.062a.988.988,0,0,1,.7.288.985.985,0,0,1,.287.7Z" transform="translate(1352.443 1654.36)"/><path class="b" d="M-1326.044-1642.311l-5.414-3.425h0l-3.7-2.341a.576.576,0,0,0-.584-.019.577.577,0,0,0-.3.5l-.061,11.44a.577.577,0,0,0,.294.505.577.577,0,0,0,.282.074.574.574,0,0,0,.3-.086l9.176-5.674a.574.574,0,0,0,.272-.487A.574.574,0,0,0-1326.044-1642.311Zm-8.9,5.124.049-9.363,7.461,4.72Z" transform="translate(1345.969 1651.906)"/></g></g></svg>