<svg xmlns="http://www.w3.org/2000/svg" xmlns:xlink="http://www.w3.org/1999/xlink" width="587.78" height="437.916" viewBox="0 0 587.78 437.916"><defs><style>.a{fill:none;}.b{clip-path:url(#a);}.c{fill:#497b90;}.d{fill:#89a527;opacity:0.86;}.e{fill:#cbdf7d;opacity:0.85;}.f{fill:#b3d336;opacity:0.6;}.g{fill:#fff;opacity:0.2;}.h{opacity:0.1;}.i{fill:#ce521f;}.j{fill:#ebebeb;}.k{fill:#8e96a3;}.l{fill:#3d3d3d;}.m{fill:#d0d1d6;}.n{fill:#aaa;}</style><clipPath id="a"><rect class="a" width="587.78" height="437.916"/></clipPath></defs><g transform="translate(-857.224 -378)"><g transform="translate(857.224 378)"><g class="b"><g transform="translate(12.443 32.953)"><g transform="translate(0 13.872)"><path class="c" d="M1526.588,747.875c0,7.3-.261,14.489-.678,21.681v.052c-.52,7.557-1.3,15.062-2.292,22.464a328.717,328.717,0,0,1-33.878,107.209,316.73,316.73,0,0,1-19.649,32.888c-2.346,3.6-4.848,7.089-7.4,10.58-5,6.775-10.215,13.394-15.741,19.753a319.69,319.69,0,0,1-25.017,26.112,324.944,324.944,0,0,1-40.914,32.522,329.153,329.153,0,0,1-29.135,17.564h-.052a329.435,329.435,0,0,1-249.39,24.5,324.065,324.065,0,0,1-74.062-32.678c-2.032-1.2-4.013-2.4-5.994-3.648-5.68-3.544-11.205-7.3-16.626-11.206-3.439-2.448-6.828-4.951-10.163-7.609h-.052q-11.8-9.146-22.672-19.284a325.822,325.822,0,0,1-23.3-23.975c-5.368-6.046-10.476-12.352-15.271-18.816-5.16-6.722-9.955-13.707-14.541-20.847-3.7-5.785-7.244-11.675-10.476-17.668a315.4,315.4,0,0,1-20.118-43.155,328.222,328.222,0,0,1-20.952-104.5c-.052-.782-.052-1.513-.052-2.294-.1-3.18-.156-6.411-.156-9.642,0-3.962.052-7.975.208-11.884,0-.625.053-1.2.1-1.824v-.052c.26-6.88.729-13.6,1.408-20.379.676-6.619,1.563-13.186,2.657-19.649a322.239,322.239,0,0,1,11.727-48.211,326.018,326.018,0,0,1,28.563-63.69c4.951-8.5,10.266-16.783,16-24.756,3.178-4.586,6.514-9.017,9.955-13.394,4.065-5.108,8.234-10.112,12.665-15.01A328.116,328.116,0,0,1,992.26,490.2c2.553-2.032,5.16-4.065,7.818-6.045,3.023-2.242,6.046-4.483,9.172-6.62,2.554-1.772,5.057-3.491,7.662-5.16.939-.625,1.824-1.251,2.763-1.824,2.449-1.563,4.9-3.075,7.4-4.586h.052c2.658-1.668,5.317-3.232,8.027-4.743,2.606-1.511,5.263-2.971,7.922-4.377l.313-.157c2.763-1.459,5.576-2.866,8.391-4.273,2.606-1.3,5.265-2.554,7.975-3.805,3.179-1.46,6.41-2.919,9.694-4.274,2.605-1.095,5.263-2.19,7.922-3.232l.47-.157c2.919-1.146,5.785-2.241,8.756-3.284a.406.406,0,0,1,.209-.1c2.866-.99,5.837-1.98,8.755-2.971h.053c3.6-1.147,7.193-2.293,10.893-3.336,2.189-.625,4.431-1.251,6.671-1.824q3.363-.938,6.724-1.72,7.193-1.719,14.541-3.127c1.981-.417,4.013-.782,5.994-1.095,2.346-.417,4.638-.781,6.985-1.146,2.293-.366,4.638-.677,6.984-.99s4.69-.575,7.036-.834c2.242-.261,4.482-.47,6.775-.626,9.59-.886,19.285-1.3,29.083-1.3,3.7,0,7.4.052,11.1.209,3.544.1,7.089.261,10.58.522,3.387.208,6.724.468,10.06.781,1.511.157,2.971.261,4.429.47.627.052,1.252.1,1.824.208,5.056.575,10.06,1.252,15.01,2.085,1.2.157,2.4.366,3.544.573a2.248,2.248,0,0,1,.522.105c2.658.416,5.315.938,7.975,1.459.1.052.26.052.365.1,6.932,1.408,13.812,3.023,20.587,4.847,3.441.938,6.828,1.876,10.215,2.918s6.776,2.138,10.112,3.285c3.335,1.094,6.619,2.293,9.9,3.543,2.971,1.095,5.889,2.294,8.808,3.492,2.554,1.043,5.108,2.137,7.662,3.232,1.824.782,3.6,1.615,5.368,2.449a4.558,4.558,0,0,1,.885.417c1.981.886,3.962,1.824,5.89,2.814,1.563.73,3.076,1.513,4.586,2.295,3.023,1.51,6.047,3.127,9.017,4.794a22.214,22.214,0,0,1,2.137,1.2c1.408.729,2.762,1.511,4.17,2.346,1.72.99,3.441,1.981,5.16,3.075,1.72.991,3.389,2.085,5.108,3.128,1.668,1.042,3.389,2.085,5.056,3.232,1.668,1.094,3.284,2.189,4.952,3.334q10.007,6.725,19.492,14.333h.053c2.294,1.824,4.534,3.648,6.723,5.524,1.824,1.513,3.6,3.024,5.368,4.587,1.824,1.563,3.6,3.179,5.369,4.8,2.033,1.824,4.013,3.648,5.942,5.576,2.346,2.19,4.638,4.482,6.879,6.776,1.356,1.408,2.762,2.814,4.066,4.273.47.47.938.938,1.354,1.408a1.471,1.471,0,0,1,.469.52c1.616,1.72,3.232,3.44,4.743,5.213a18.911,18.911,0,0,1,1.406,1.563c1.459,1.668,2.919,3.336,4.327,5a.052.052,0,0,1,.052.053c1.46,1.615,2.814,3.232,4.066,4.9,1.2,1.46,2.4,2.919,3.543,4.378,1.668,2.085,3.284,4.222,4.9,6.41,2.033,2.71,4.065,5.42,5.994,8.236,1.51,2.136,3.023,4.377,4.481,6.566q3.518,5.317,6.88,10.79a321.023,321.023,0,0,1,26.582,54.047c.313.781.573,1.563.885,2.346v.052q4.692,12.509,8.339,25.382a319.313,319.313,0,0,1,9.434,45.865c.52,3.7.938,7.4,1.3,11.153.938,9.277,1.46,18.607,1.512,28.093C1526.588,744.851,1526.588,746.362,1526.588,747.875Z" transform="translate(-868.008 -418.584)"/><path class="d" d="M1072.5,876.594c.677,9.59-2.137,20.743-10.841,24.756-4.847,2.19-10.945,1.929-14.855,5.577-6.931,6.567-1.25,20.117-8.182,26.685-2.449,2.292-5.837,3.127-8.808,4.638-15.584,7.87-15.167,30.8-7.922,46.7.261.573.52,1.095.781,1.668-2.032-1.2-4.013-2.4-5.994-3.648-5.68-3.544-11.205-7.3-16.626-11.206-3.439-2.448-6.828-4.951-10.163-7.609h-.052c-17.981-48.262-34.92-97.515-65.67-138.585-8.079-10.737-17.356-21.682-18.868-35.024-1.043-9.434,2.085-18.868,2.241-28.406.105-6.567-.365-13.5-.468-20.118a84.544,84.544,0,0,1,.573-12.769c1.615-11.466,6.984-20.8,22.619-24.34,21.578-4.9,49.93,12.978,62.074,29.239,13.551,18.19,19.962,43.936,40.706,53.058,14.854,6.514,35.962,4.168,43.207,18.711,6.462,13.029-4.8,27.675-6.515,42.112C1068.646,857.569,1071.774,867.056,1072.5,876.594Z" transform="translate(-862.306 -374.684)"/><path class="e" d="M1165.366,633.115c-2.738-11.4-21.259-7.12-27.175,3s-7.166,23.529-16.548,30.557c-7.156,5.36-17.648,5.68-23.5,12.443-4.114,4.757-4.818,11.483-5.336,17.751q-1.488,17.973-2.977,35.947c-.8,9.663-1.462,20,3.32,28.436s17.285,13.121,24.445,6.582c3.3-3.01,4.683-7.554,7.374-11.114a18.694,18.694,0,0,1,19.228-6.633c5.846,1.552,10.52,5.87,14.635,10.3,33.509,36.078,45.509,87.444,46.986,136.66.27,9.005.278,18.263,3.593,26.642,3.884,9.821,12.071,17.759,14.478,28.041,1.848,7.9.111,16.581,3.5,23.949,6.242,13.569,27.071,14.144,38.412,4.425s15.277-25.4,17.57-40.164,3.791-30.312,12.05-42.756c5.123-7.719,12.662-13.895,16.247-22.438,5.01-11.94,1.3-26.1,5.952-38.183,6.178-16.038,24.422-23.135,37.42-34.381s18.249-36.667,2.1-42.543c-6.11-2.224-13.153-.43-19.215-2.782-7.909-3.064-11.6-11.945-14.461-19.93l-22.512-62.9c-4.521-12.633-11.382-27.271-24.669-29.13-7.524-1.051-14.829,2.538-22.3,3.9C1228.24,653.476,1184.954,591.191,1165.366,633.115Z" transform="translate(-833.986 -387.839)"/><path class="f" d="M923.775,742.444a3.385,3.385,0,0,1-1.042,2.606,4.631,4.631,0,0,1-3.232.885c-2.24.053-4.482.053-6.723-.052a90.4,90.4,0,0,1-16.731-2.346,5.008,5.008,0,0,1-3.075-1.563c-.73-.99-.625-2.293-.677-3.492-.418-7.4-7.557-12.3-13.969-16a55.67,55.67,0,0,0-10.164-5c-.1-3.18-.156-6.411-.156-9.642,0-3.962.052-7.975.208-11.884,0-.625.053-1.2.1-1.824v-.052a28.461,28.461,0,0,0,2.658-2.5c3.282-3.387,9.9-17.719,15.844-10.684a5.319,5.319,0,0,1,.1,6.515c-1.824,2.346-5.474,2.866-6.88,5.419-1.72,3.024.677,6.776,3.491,8.757,2.815,2.033,6.255,3.284,8.236,6.15,3.8,5.472.157,13.76,3.857,19.337,3.179,4.794,9.955,5.107,15.74,5.733.677.1,1.3.208,1.981.313C918.615,734.26,923.984,737.336,923.775,742.444Z" transform="translate(-868.008 -378.546)"/><path class="f" d="M1051.51,553.423c1.095,7.766-8.86,11.78-16.626,12.979-7.037,1.094-14.072,2.189-21.109,3.336-3.075.468-6.253.99-8.755,2.814-2.5,1.876-4.066,5.42-2.606,8.182.834,1.511,2.449,2.5,3.648,3.753,5.838,5.837,1.043,17.876-7.193,18.137-2.814.1-5.577-.938-8.391-1.042-8.338-.366-14.958,6.984-18.919,14.332s-6.932,15.741-13.6,20.743c-10.737,8.079-29.239,6.2-34.451,18.607-2.085,5-.99,10.632-.156,16,.833,5.317,1.2,11.258-1.929,15.689-3.075,4.377-11.1,5.315-13.394.417-.99-2.137-.678-4.638-.313-6.932,1.251-7.714,2.449-15.428,3.648-23.141.886-5.733,1.668-12.143-1.72-16.835-4.742-6.567-15.375-5.942-21.526-.677-6.1,5.263-8.651,13.5-10.371,21.368-1.251,5.838-2.71,14.072-5.942,20.745a322.239,322.239,0,0,1,11.727-48.211A326.018,326.018,0,0,1,912.091,570c4.951-8.5,10.266-16.783,16-24.756.834-.1,1.667-.209,2.5-.261,4.69-.365,9.642-.208,13.864-2.241,3.909-1.929,6.671-5.422,10.215-7.922,9.068-6.463,23.923-7.662,26.373-18.5.833-3.648-.157-7.609,1.2-11.1,2.553-6.515,11.257-7.453,18.241-7.348,2.971,0,6.463.417,7.818,3.022.991,1.824.418,4.118-.312,6.047a56.651,56.651,0,0,1-23.923,29.394c-9.07,5.525-20.9,9.8-23.4,20.118,1.251,3.492,7.609,3.232,8.13,6.88.365,2.919-3.387,4.43-4.743,7.037-1.981,3.8,2.555,8.443,6.88,8.234s7.923-3.336,11.1-6.253c9.486-8.809,19.441-18.294,22.88-30.8,1.46-5.161,1.981-11.207,6.15-14.646,4.952-4.065,13.812-1.251,15.48,4.952,4.118-2.294,10.528-4.014,12.665.26.73,1.511.521,3.284.886,4.9C1041.451,543.677,1050.572,546.7,1051.51,553.423Z" transform="translate(-867.425 -406.395)"/><path class="f" d="M1072.177,458.7c-5.264-.335-10.737-1.781-15.669.085s-7.971,9.259-3.725,12.387c2.362,1.741,5.711,1.256,8.373,2.491,4.921,2.281,5.412,9.4,3.011,14.265s-6.731,8.5-9.568,13.124a24.86,24.86,0,0,0-3.547,15.088c.325,3.644,1.61,7.413,4.47,9.693,5.942,4.741,14.974.681,20.006-5.017s8.5-13.062,15.028-16.961c3.257-1.945,7.013-2.849,10.7-3.726q12.447-2.961,24.895-5.919c3.961-.941,8.243-2.085,10.71-5.322,3.113-4.084,2.2-9.957,4.222-14.678,3.354-7.842,13.776-10.649,17.388-18.375,1.39-2.973,1.733-6.6,4.159-8.815,2.023-1.841,5.02-2.213,7.193-3.877,4.855-3.719,2.842-12.18-2.312-15.472-12.919-8.249-36.694,1.288-47.856,9.364C1105.307,447.42,1091.268,459.921,1072.177,458.7Z" transform="translate(-839.907 -417.674)"/><path class="f" d="M1474.6,724.284c0,6.891-.246,13.684-.64,20.476v.05c-3.4,3.3-7.826,5.66-12.5,5.561-7.482-.1-13.634-6.349-16.637-13.239-3.052-6.891-3.74-14.52-5.759-21.756-1.083-3.888-2.905-8.023-6.546-9.746-2.413-1.132-5.267-.984-7.826-1.771-9.2-2.756-11.715-15.6-20.427-19.591-2.756-1.23-5.808-1.476-8.761-1.821-11.665-1.378-23.724-5.413-31.058-14.57-2.411-2.953-4.233-6.447-7.186-8.86-3-2.411-7.63-3.445-10.534-.984,2.461,4.922,4.874,9.844,7.285,14.717,2.215,4.429,4.479,9.007,8.171,12.255,3.74,3.3,9.253,5.021,13.732,2.954,1.477-.689,2.954-1.822,4.627-1.625a5,5,0,0,1,3,1.92c6.349,7.039,4.282,18.7-1.92,25.89-6.153,7.137-15.308,10.878-24.118,14.372-3.15,1.23-6.5,2.509-9.844,1.92-6.1-1.133-9.352-7.778-11.125-13.733-3.986-13.191-5.906-27.515-14.077-38.638-2.609-3.495-5.856-6.694-7.431-10.78-1.674-4.429-1.281-9.6-3.939-13.486-2.756-4.085-8.613-6.447-9.007-11.369-.246-3.446,2.609-6.5,5.76-7.975,3.15-1.525,6.694-1.968,9.943-3.3,1.28-.541,2.707-1.477,2.756-2.854,0-2.068-2.855-2.9-3.594-4.824-.787-2.166,1.427-4.184,2.363-6.3,2.018-4.824-3-9.7-7.875-11.666-4.824-1.968-10.681-3.4-12.945-8.121-1.034-2.166-1.132-4.675-1.575-7.038-1.132-5.956-5.513-11.714-11.518-12.7-6.054-.984-12.748,4.381-11.764,10.386.591,3.3,3.052,5.858,4.381,8.908,1.379,3.052.984,7.58-2.166,8.564-5.169,1.576-10.139-7.874-14.47-4.627,1.772,6.055,3.495,12.109,5.266,18.212-6.792,3.446-14.914-2.806-17.817-9.893-2.9-7.038-3-15.111-6.447-21.9-3.447-6.842-12.749-11.911-18.655-7.088-.3,8.762,11.271,12.3,16.39,19.392,3.692,5.119,3.15,13.438-2.313,16.686-5.415,3.249-14.028-2.411-11.96-8.367.737-2.068,2.46-3.79,2.657-6.005.2-2.756-2.116-4.971-4.233-6.743-3.3-2.806-6.6-5.562-9.893-8.319-2.116-1.772-4.381-3.642-7.038-4.43-6.793-1.968-13.585,3.544-17.178,9.6-3.593,6.1-5.611,13.24-10.583,18.311-7.137,7.383-20.673,7.825-27.367.1-6.742-7.728-3.3-22.2,6.6-25,3.74-1.034,8.466-.936,10.435-4.233,3.445-5.858-6.4-13.339-3-19.246,2.609-4.527,9.5-2.461,14.52-3.986,4.971-1.525,7.776-6.546,10.73-10.878,2.9-4.283,7.482-8.614,12.6-7.482-.393-3-.788-6.251.541-8.958,1.329-2.756,5.07-4.529,7.531-2.756-2.509,4.134.493,9.892,4.874,11.96s9.5,1.576,14.323,1.035c4.824-.592,10.878-2.363,11.272-7.187.148-1.575-.443-3.249.148-4.726,2.116-5.758,12.748,2.166,16.833-2.461,2.363-2.411-.246-6.694-3.544-7.481-3.248-.836-6.645.393-9.992.493-3.347.147-7.432-1.626-7.58-4.971-.148-3.3,3.544-5.661,3.938-8.909.64-5.513-8.712-6.94-12.01-2.461-3.249,4.479-2.117,10.631-1.132,16.095,1.033,5.463,1.525,11.911-2.51,15.751-1.723,2.609-6.2,1.23-7.678-1.526-1.526-2.756-1.181-6.1-1.428-9.2-.246-3.15-1.623-6.693-4.676-7.531-2.116-.591-4.38.443-6.545.738-8.564,1.034-14.52-10.04-11.813-18.211,2.658-8.221,10.435-13.487,17.966-17.67,5.513-3.053,12.354-5.907,17.818-2.806,2.559,1.427,4.331,3.888,6.842,5.365,4.331,2.559,9.7,1.623,14.668,1.723a34.166,34.166,0,0,1,21.41,8.319c2.215,2.018,4.283,5.365,2.56,7.776-1.87,2.559-7.235,3.1-6.3,6.1,5.808,1.92,12.749-2.559,13.388-8.614a8.959,8.959,0,0,1,5.169,7.285c6.25-6.349,18.26-5.415,23.379,1.92,1.379,1.92,2.363,4.233,4.333,5.562,1.968,1.28,5.413.639,5.66-1.674a4.7,4.7,0,0,0-.395-2.166c-1.18-3.347-2.411-6.645-3.593-9.942,4.578-2.461,9.991,1.378,13.093,5.513,11.517,15.406,19.738,6.152,35.98,8.662,10.977,1.673,15.8,8.712,22,17.228,19,26.185,44.1,47.646,61.378,75.012,1.822,2.854,3.495,5.758,5.07,8.712.05,0,0,.05,0,.05q4.43,11.813,7.875,23.971a301.587,301.587,0,0,1,8.909,43.315c.491,3.495.886,6.99,1.231,10.533.885,8.762,1.378,17.572,1.427,26.531C1474.6,721.429,1474.6,722.857,1474.6,724.284Z" transform="translate(-824.847 -409.528)"/><path class="g" d="M1063.981,1042.975c-5.681-3.544-11.205-7.3-16.626-11.205A332.524,332.524,0,0,1,991.171,980.9c-5.368-6.046-10.476-12.352-15.271-18.815-5.16-6.723-9.955-13.707-14.541-20.847-3.7-5.785-7.246-11.675-10.476-17.669a315.42,315.42,0,0,1-20.118-43.155,328.206,328.206,0,0,1-20.952-104.5c-.156-3.961-.209-7.922-.209-11.936,0-3.961.053-7.974.209-11.883.261-7.505.782-14.907,1.511-22.256A327.814,327.814,0,0,1,954.27,598.294a334.314,334.314,0,0,1,25.955-38.151c4.066-5.108,8.235-10.112,12.665-15.01a328.19,328.19,0,0,1,40.967-38.829c2.553-2.033,5.16-4.065,7.818-6.046,3.023-2.241,6.046-4.482,9.172-6.619,2.554-1.772,5.056-3.492,7.662-5.16.938-.625,1.824-1.251,2.762-1.824,2.449-1.565,4.9-3.076,7.4-4.586h.053c2.658-1.668,5.315-3.233,8.027-4.744,2.606-1.51,5.263-2.97,7.922-4.377l.313-.156c2.762-1.46,5.576-2.867,8.391-4.275,2.606-1.3,5.263-2.553,7.974-3.8,3.18-1.46,6.411-2.919,9.694-4.274,2.606-1.095,5.265-2.19,7.923-3.233l.47-.156c2.918-1.147,5.785-2.242,8.756-3.284a.394.394,0,0,1,.208-.1c2.867-.99,5.838-1.981,8.757-2.971h.052c3.6-1.147,7.193-2.294,10.893-3.336,2.189-.625,4.43-1.251,6.671-1.824q3.361-.938,6.723-1.72,7.192-1.72,14.542-3.127c1.981-.418,4.013-.782,5.994-1.095,2.344-.417,4.638-.781,6.984-1.147,2.294-.365,4.638-.677,6.984-.99s4.691-.573,7.037-.834c2.241-.261,4.481-.47,6.775-.625,9.59-.886,19.284-1.3,29.083-1.3,3.7,0,7.4.052,11.1.208,3.544.1,7.088.262,10.58.521,3.387.209,6.724.47,10.06.782,1.511.156,2.97.261,4.429.468.625.052,1.251.105,1.824.209,5.056.573,10.06,1.251,15.01,2.085,1.2.156,2.4.365,3.544.573a2.3,2.3,0,0,1,.522.1c2.657.418,5.315.938,7.974,1.46.1.052.261.052.366.1,6.931,1.406,13.811,3.023,20.587,4.847,3.439.938,6.828,1.876,10.215,2.918.276.085.548.182.824.269a4.177,4.177,0,0,0-.568-.269c-1.773-.834-3.544-1.667-5.368-2.449-2.554-1.095-5.108-2.189-7.662-3.232-2.919-1.2-5.837-2.4-8.808-3.492-3.284-1.251-6.567-2.448-9.9-3.543-3.336-1.147-6.723-2.241-10.112-3.284s-6.775-1.981-10.215-2.919c-6.775-1.824-13.655-3.439-20.587-4.847-.1-.052-.261-.052-.365-.1-2.659-.521-5.317-1.043-7.975-1.46a2.312,2.312,0,0,0-.522-.105c-1.147-.208-2.346-.417-3.544-.572-4.951-.834-9.955-1.511-15.01-2.085-.572-.105-1.2-.157-1.824-.209-1.458-.209-2.918-.313-4.429-.47-3.335-.313-6.672-.572-10.06-.781-3.491-.261-7.036-.417-10.58-.522-3.7-.156-7.4-.208-11.1-.208-9.8,0-19.493.416-29.083,1.3-2.293.156-4.533.365-6.775.625-2.346.261-4.691.52-7.036.834s-4.691.625-6.984.99c-2.347.365-4.639.729-6.985,1.147-1.981.313-4.013.677-5.994,1.094q-7.348,1.407-14.541,3.128-3.363.78-6.724,1.72c-2.241.573-4.482,1.2-6.671,1.823-3.7,1.043-7.3,2.19-10.893,3.337h-.053c-2.918.99-5.889,1.98-8.755,2.971a.4.4,0,0,0-.209.1c-2.971,1.043-5.837,2.137-8.756,3.284l-.47.157c-2.658,1.042-5.317,2.136-7.922,3.231-3.284,1.356-6.515,2.814-9.694,4.273-2.71,1.251-5.369,2.5-7.975,3.805-2.815,1.408-5.628,2.814-8.391,4.274l-.313.157c-2.658,1.406-5.315,2.866-7.922,4.377-2.71,1.511-5.369,3.076-8.027,4.743h-.052c-2.5,1.511-4.951,3.023-7.4,4.586-.939.573-1.824,1.2-2.763,1.825-2.605,1.667-5.108,3.386-7.662,5.16-3.127,2.137-6.15,4.377-9.172,6.619-2.658,1.98-5.265,4.013-7.818,6.045a328.206,328.206,0,0,0-40.965,38.83c-4.43,4.9-8.6,9.9-12.665,15.01a334.117,334.117,0,0,0-25.955,38.151,327.765,327.765,0,0,0-42.946,131.55c-.73,7.348-1.252,14.749-1.513,22.255-.156,3.908-.208,7.922-.208,11.883,0,4.013.052,7.974.208,11.935a328.223,328.223,0,0,0,20.952,104.5,315.412,315.412,0,0,0,20.118,43.155c3.232,5.994,6.775,11.883,10.476,17.668,4.586,7.141,9.381,14.126,14.541,20.848,4.8,6.462,9.9,12.769,15.271,18.816a332.514,332.514,0,0,0,56.185,50.868c5.42,3.908,10.946,7.661,16.626,11.205a327.332,327.332,0,0,0,77.883,35.709A328.262,328.262,0,0,1,1063.981,1042.975Z" transform="translate(-868.008 -418.568)"/><path class="h" d="M1495.345,734.177c0,7.3-.261,14.489-.678,21.681v.052c-.52,7.557-1.3,15.062-2.292,22.464A328.717,328.717,0,0,1,1458.5,885.583a316.73,316.73,0,0,1-19.649,32.888c-2.346,3.6-4.848,7.089-7.4,10.58-5,6.775-10.215,13.394-15.741,19.753a319.69,319.69,0,0,1-25.017,26.112,324.944,324.944,0,0,1-40.914,32.522A329.153,329.153,0,0,1,1320.64,1025h-.052a329.435,329.435,0,0,1-249.39,24.5c331.393-35.575,378.105-362.324,333.772-541.832.47.47.938.938,1.354,1.408a1.471,1.471,0,0,1,.469.52c1.616,1.72,3.232,3.44,4.743,5.213a18.911,18.911,0,0,1,1.406,1.563c1.459,1.668,2.919,3.336,4.327,5a.052.052,0,0,1,.052.053c1.46,1.615,2.814,3.232,4.066,4.9,1.2,1.46,2.4,2.919,3.543,4.378,1.668,2.085,3.284,4.222,4.9,6.41,2.033,2.71,4.065,5.42,5.994,8.236,1.51,2.136,3.023,4.377,4.481,6.566q3.518,5.317,6.88,10.79a321.023,321.023,0,0,1,26.582,54.047c.313.781.573,1.563.885,2.346v.052q4.692,12.509,8.339,25.382a319.313,319.313,0,0,1,9.434,45.865c.52,3.7.938,7.4,1.3,11.153.938,9.277,1.46,18.607,1.512,28.093C1495.345,731.153,1495.345,732.665,1495.345,734.177Z" transform="translate(-836.765 -404.887)"/></g><g transform="translate(54.448 82.629)"><g transform="translate(24.133 92.608)"><path class="i" d="M936.761,559.863h0a.409.409,0,0,1-.474-.329l-.171-.945.8-.145.171.945A.41.41,0,0,1,936.761,559.863Z" transform="translate(-936.116 -558.444)"/></g><g transform="translate(28.606 91.808)"><path class="i" d="M940.638,559.161h0a.41.41,0,0,1-.474-.329l-.171-.945a3.458,3.458,0,0,1,.805-.136l.168.936A.408.408,0,0,1,940.638,559.161Z" transform="translate(-939.993 -557.751)"/></g><g transform="translate(23.949 92.073)"><path class="j" d="M936.625,559.824h0a.408.408,0,0,1-.474-.329l-.187-1.035a.407.407,0,0,1,.329-.473h0a.409.409,0,0,1,.474.329l.187,1.034A.409.409,0,0,1,936.625,559.824Z" transform="translate(-935.957 -557.98)"/></g><g transform="translate(28.414 91.266)"><path class="j" d="M940.494,559.125h0a.409.409,0,0,1-.473-.329l-.187-1.035a.409.409,0,0,1,.329-.474h0a.409.409,0,0,1,.473.329l.187,1.035A.409.409,0,0,1,940.494,559.125Z" transform="translate(-939.827 -557.28)"/></g><g transform="translate(28.505 102.077)"><rect class="k" width="2.675" height="1.734" transform="matrix(0.984, -0.178, 0.178, 0.984, 0, 0.476)"/></g><g transform="translate(28.037 99.026)"><rect class="k" width="2.675" height="1.734" transform="translate(0 0.476) rotate(-10.245)"/></g><g transform="translate(38.453 64.286)"><path class="l" d="M1072.11,556.413l-117.1,68.873a3.021,3.021,0,0,1-4.322-.912l-1.032-1.755-1.112-31.224a4.733,4.733,0,0,1,2.323-4.414l89.614-52.706c1.672-.983,7.3.142,8.923,1.2l23.254,15.338.456.774C1074.455,553.814,1073.536,555.574,1072.11,556.413Z" transform="translate(-948.528 -533.896)"/></g><g transform="translate(37.005 61.471)"><path class="m" d="M1070.855,554.3l-117.1,68.874c-1.3.764-4.112.883-4.133-.992l-2.334-32.9a4.734,4.734,0,0,1,2.323-4.415l89.614-52.7a5.117,5.117,0,0,1,5.384.119l27.242,17.681C1073.663,551.046,1072.281,553.463,1070.855,554.3Z" transform="translate(-947.273 -531.457)"/></g><rect class="m" width="111.255" height="70.302" rx="3.525" transform="translate(0 56.402) rotate(-30.461)"/><g transform="translate(5.626 5.491)"><rect class="l" width="102.673" height="60.917" transform="translate(0 52.051) rotate(-30.461)"/></g><g transform="translate(78.846 97.774)"><path class="l" d="M1023.053,572.816l-34.505,20.294a.722.722,0,0,1-1.038-.359l-3.891-9.944a1.174,1.174,0,0,1,.5-1.439l31.123-18.3a1.029,1.029,0,0,1,1.326.242l6.709,8.356A.782.782,0,0,1,1023.053,572.816Z" transform="translate(-983.538 -562.921)"/></g><g transform="translate(42.19 67.134)"><path class="n" d="M1049.982,547.063,956.23,602.2c-1.041.612-2.069.678-2.164.141l-2.287-12.936c-.124-.7.778-1.794,2.127-2.588l84.562-49.734c1.2-.7,2.437-.924,2.91-.517l9.9,8.539C1051.694,545.495,1051.087,546.413,1049.982,547.063Z" transform="translate(-951.767 -536.365)"/></g><g transform="translate(38.471 65.993)"><rect class="m" width="113.425" height="0.573" transform="translate(0 57.502) rotate(-30.461)"/><g transform="translate(1.452 2.469)"><rect class="m" width="113.425" height="0.573" transform="translate(0 57.502) rotate(-30.461)"/></g><g transform="translate(3.195 5.432)"><rect class="m" width="113.425" height="0.573" transform="translate(0 57.502) rotate(-30.461)"/></g><g transform="translate(4.792 8.147)"><rect class="m" width="113.425" height="0.573" transform="translate(0 57.502) rotate(-30.461)"/></g><g transform="translate(9.527 46.41)"><rect class="m" width="0.859" height="18.904" transform="matrix(0.974, -0.225, 0.225, 0.974, 0, 0.194)"/></g><g transform="translate(16.687 42.199)"><rect class="m" width="0.859" height="18.904" transform="matrix(0.974, -0.225, 0.225, 0.974, 0, 0.194)"/></g><g transform="translate(22.365 38.86)"><rect class="m" width="0.859" height="18.904" transform="matrix(0.974, -0.225, 0.225, 0.974, 0, 0.194)"/></g><g transform="translate(28.044 35.52)"><rect class="m" width="0.859" height="18.904" transform="matrix(0.974, -0.225, 0.225, 0.974, 0, 0.194)"/></g><g transform="translate(33.969 32.035)"><rect class="m" width="0.859" height="18.904" transform="matrix(0.974, -0.225, 0.225, 0.974, 0, 0.194)"/></g><g transform="translate(39.873 28.221)"><rect class="m" width="0.859" height="18.904" transform="translate(0 0.287) rotate(-19.483)"/></g><g transform="translate(44.935 24.989)"><rect class="m" width="0.859" height="18.904" transform="translate(0 0.436) rotate(-30.461)"/></g><g transform="translate(83.533 2.74)"><rect class="m" width="0.859" height="18.904" transform="translate(0 0.638) rotate(-47.9)"/></g><g transform="translate(76.62 6.806)"><rect class="m" width="0.859" height="18.904" transform="translate(0 0.638) rotate(-47.9)"/></g><g transform="translate(69.707 10.871)"><rect class="m" width="0.859" height="18.904" transform="translate(0 0.638) rotate(-47.9)"/></g><g transform="translate(62.794 14.937)"><rect class="m" width="0.859" height="18.904" transform="translate(0 0.638) rotate(-47.9)"/></g><g transform="translate(55.881 19.003)"><rect class="m" width="0.859" height="18.904" transform="translate(0 0.638) rotate(-47.9)"/></g><g transform="translate(48.968 23.069)"><rect class="m" width="0.859" height="18.904" transform="translate(0 0.638) rotate(-47.9)"/></g></g></g><g transform="translate(240.27)"><g transform="translate(5.568 30.538)"><path class="i" d="M1081.254,433.812h0a.224.224,0,0,1-.165-.27l.126-.513.435.106-.126.513A.224.224,0,0,1,1081.254,433.812Z" transform="translate(-1081.083 -433.029)"/></g><g transform="translate(7.994 31.126)"><path class="i" d="M1083.356,434.327h0a.225.225,0,0,1-.164-.271l.125-.512a1.882,1.882,0,0,1,.435.111l-.125.508A.225.225,0,0,1,1083.356,434.327Z" transform="translate(-1083.185 -433.538)"/></g><g transform="translate(5.512 30.228)"><path class="j" d="M1081.2,433.763h0a.224.224,0,0,1-.164-.271l.136-.561a.224.224,0,0,1,.271-.164h0a.224.224,0,0,1,.165.27l-.137.562A.225.225,0,0,1,1081.2,433.763Z" transform="translate(-1081.034 -432.76)"/></g><g transform="translate(7.933 30.819)"><path class="j" d="M1083.3,434.276h0a.226.226,0,0,1-.165-.271l.137-.561a.225.225,0,0,1,.271-.165h0a.225.225,0,0,1,.164.271l-.137.561A.224.224,0,0,1,1083.3,434.276Z" transform="translate(-1083.132 -433.273)"/></g><g transform="translate(5.481 36.433)"><rect class="k" width="0.952" height="1.469" transform="matrix(0.237, -0.971, 0.971, 0.237, 0, 0.925)"/></g><g transform="translate(5.927 34.797)"><rect class="k" width="0.952" height="1.469" transform="translate(0 0.925) rotate(-76.273)"/></g><g transform="translate(0.005 40.15)"><path class="l" d="M1152.5,459.536l-74.146,8.435a1.659,1.659,0,0,1-1.966-1.423l-.126-1.111,6.409-15.92a2.6,2.6,0,0,1,2.151-1.7l56.741-6.454c1.059-.121,3.631,1.7,4.211,2.593l8.248,12.888.057.49A1.779,1.779,0,0,1,1152.5,459.536Z" transform="translate(-1076.261 -441.36)"/></g><g transform="translate(0 38.566)"><path class="m" d="M1152.327,458.177l-74.145,8.434c-.824.095-2.261-.474-1.853-1.419l6.17-17.034a2.6,2.6,0,0,1,2.151-1.7l56.741-6.455a2.815,2.815,0,0,1,2.676,1.261l9.727,14.955C1154.464,457.169,1153.23,458.074,1152.327,458.177Z" transform="translate(-1076.257 -439.987)"/></g><g transform="translate(1.699)"><rect class="m" width="61.112" height="38.616" rx="1.936" transform="translate(0 6.907) rotate(-6.49)"/></g><g transform="translate(4.268 2.36)"><rect class="l" width="56.397" height="33.461" transform="translate(0 6.375) rotate(-6.49)"/></g><g transform="translate(27.376 52.41)"><path class="l" d="M1122.273,458.629l-21.848,2.485a.4.4,0,0,1-.441-.412l.266-5.86a.644.644,0,0,1,.571-.61l19.705-2.242a.566.566,0,0,1,.611.418l1.5,5.692A.431.431,0,0,1,1122.273,458.629Z" transform="translate(-1099.985 -451.987)"/></g><g transform="translate(6.903 41.397)"><path class="n" d="M1142.725,450.041l-59.361,6.753c-.659.075-1.19-.121-1.117-.412l1.739-7c.093-.377.79-.727,1.645-.824l53.542-6.091c.758-.087,1.43.08,1.576.389l3.062,6.5C1143.935,449.636,1143.424,449.961,1142.725,450.041Z" transform="translate(-1082.24 -442.441)"/></g><g transform="translate(6.035 40.452)"><g transform="translate(0 1.673)"><rect class="m" width="62.303" height="0.315" transform="translate(0 7.042) rotate(-6.49)"/></g><g transform="translate(0.178 3.237)"><rect class="m" width="62.303" height="0.315" transform="translate(0 7.042) rotate(-6.49)"/></g><g transform="translate(0.391 5.112)"><rect class="m" width="62.303" height="0.315" transform="translate(0 7.042) rotate(-6.49)"/></g><g transform="translate(0.587 6.832)"><rect class="m" width="62.303" height="0.315" transform="translate(0 7.042) rotate(-6.49)"/></g><g transform="translate(5.241 5.372)"><rect class="m" width="0.472" height="10.384" transform="translate(1.972 0) rotate(10.949)"/></g><g transform="translate(9.775 4.856)"><rect class="m" width="0.472" height="10.384" transform="translate(1.972) rotate(10.949)"/></g><g transform="translate(13.37 4.447)"><rect class="m" width="0.472" height="10.384" transform="translate(1.972 0) rotate(10.949)"/></g><g transform="translate(16.966 4.038)"><rect class="m" width="0.472" height="10.384" transform="translate(1.972) rotate(10.949)"/></g><g transform="translate(20.717 3.611)"><rect class="m" width="0.472" height="10.384" transform="translate(1.972) rotate(10.949)"/></g><g transform="translate(25.671 3.061)"><rect class="m" width="0.472" height="10.384" transform="matrix(0.997, 0.078, -0.078, 0.997, 0.813, 0)"/></g><g transform="translate(29.712 2.59)"><rect class="m" width="0.472" height="10.384" transform="translate(0 0.053) rotate(-6.49)"/></g><g transform="translate(54.005)"><rect class="m" width="0.472" height="10.384" transform="translate(0 0.191) rotate(-23.929)"/></g><g transform="translate(49.628 0.498)"><rect class="m" width="0.472" height="10.384" transform="translate(0 0.191) rotate(-23.929)"/></g><g transform="translate(45.251 0.996)"><rect class="m" width="0.472" height="10.384" transform="translate(0 0.191) rotate(-23.929)"/></g><g transform="translate(40.874 1.494)"><rect class="m" width="0.472" height="10.384" transform="translate(0 0.191) rotate(-23.929)"/></g><g transform="translate(36.497 1.992)"><rect class="m" width="0.472" height="10.384" transform="translate(0 0.191) rotate(-23.929)"/></g><g transform="translate(32.12 2.49)"><rect class="m" width="0.472" height="10.384" transform="translate(0 0.191) rotate(-23.929)"/></g></g></g><g transform="translate(483.189 116.05)"><g transform="translate(50.023 30.826)"><path class="i" d="M1330.2,534.766h0a.376.376,0,0,1,.165-.5l.787-.4.339.669-.787.4A.377.377,0,0,1,1330.2,534.766Z" transform="translate(-1330.159 -533.863)"/></g><g transform="translate(51.913 34.553)"><path class="i" d="M1331.837,538h0a.376.376,0,0,1,.165-.5l.787-.4c.053-.027.332.673.332.673l-.781.4A.374.374,0,0,1,1331.837,538Z" transform="translate(-1331.797 -537.093)"/></g><g transform="translate(50.078 30.578)"><path class="j" d="M1330.246,534.629h0a.378.378,0,0,1,.165-.5l.863-.437a.378.378,0,0,1,.5.165h0a.377.377,0,0,1-.165.5l-.863.437A.376.376,0,0,1,1330.246,534.629Z" transform="translate(-1330.206 -533.647)"/></g><g transform="translate(51.964 34.298)"><path class="j" d="M1331.881,537.854h0a.376.376,0,0,1,.165-.5l.862-.437a.376.376,0,0,1,.5.165h0a.375.375,0,0,1-.165.5l-.862.437A.376.376,0,0,1,1331.881,537.854Z" transform="translate(-1331.841 -536.872)"/></g><g transform="translate(42.112 37.257)"><rect class="k" width="1.594" height="2.459" transform="translate(0 0.721) rotate(-26.88)"/></g><g transform="translate(44.677 36.042)"><rect class="k" width="1.594" height="2.459" transform="translate(0 0.721) rotate(-26.88)"/></g><g transform="translate(0 50.812)"><path class="l" d="M1379.357,651.111l-91.492-85.029a2.775,2.775,0,0,1-.335-4.046l1.274-1.372,27.213-9.2a4.353,4.353,0,0,1,4.5.883l70.015,65.069c1.306,1.215,1.8,6.466,1.293,8.177l-7.391,24.521-.562.606A2.978,2.978,0,0,1,1379.357,651.111Z" transform="translate(-1286.803 -551.186)"/></g><g transform="translate(1.728 48.882)"><path class="m" d="M1380.935,649.439l-91.493-85.03c-1.015-.944-1.86-3.389-.214-3.9l28.366-10.715a4.351,4.351,0,0,1,4.5.884l70.015,65.069a4.707,4.707,0,0,1,1.313,4.774l-8.405,28.651C1384.543,651.056,1382.05,650.474,1380.935,649.439Z" transform="translate(-1288.3 -549.513)"/></g><g transform="translate(32.685)"><rect class="m" width="64.634" height="102.286" rx="3.241" transform="translate(0 47.345) rotate(-47.097)"/></g><g transform="translate(39.036 5.256)"><rect class="l" width="56.006" height="94.396" transform="translate(0 41.025) rotate(-47.097)"/></g><g transform="translate(35.508 85.422)"><path class="l" d="M1344.749,613.518l-26.959-25.054a.664.664,0,0,1,.043-1.01l7.736-6.045a1.081,1.081,0,0,1,1.4.06l24.316,22.6a.946.946,0,0,1,.135,1.231l-5.594,8.11A.718.718,0,0,1,1344.749,613.518Z" transform="translate(-1317.578 -581.182)"/></g><g transform="translate(20.619 53.879)"><path class="n" d="M1378.818,629.289l-73.249-68.074c-.812-.756-1.142-1.644-.693-1.869l10.792-5.419c.583-.293,1.786.213,2.841,1.193l66.068,61.4c.936.87,1.456,1.9,1.221,2.427l-4.916,10.968C1380.65,630.385,1379.681,630.09,1378.818,629.289Z" transform="translate(-1304.674 -553.843)"/></g><g transform="translate(21.435 51.548)"><g transform="translate(5.916)"><rect class="m" width="104.281" height="0.527" transform="translate(0.359 0) rotate(42.903)"/></g><g transform="translate(4.123 1.929)"><rect class="m" width="104.281" height="0.527" transform="translate(0.359) rotate(42.903)"/></g><g transform="translate(1.972 4.244)"><rect class="m" width="104.281" height="0.527" transform="translate(0.359) rotate(42.903)"/></g><g transform="translate(0 6.366)"><rect class="m" width="104.281" height="0.527" transform="translate(0.359) rotate(42.903)"/></g><g transform="translate(3.278 5.524)"><rect class="m" width="0.79" height="17.38" transform="translate(15.103 0) rotate(60.342)"/></g><g transform="translate(8.872 10.723)"><rect class="m" width="0.79" height="17.38" transform="translate(15.103 0) rotate(60.342)"/></g><g transform="translate(13.309 14.846)"><rect class="m" width="0.79" height="17.38" transform="translate(15.103) rotate(60.342)"/></g><g transform="translate(17.746 18.969)"><rect class="m" width="0.79" height="17.38" transform="translate(15.103 0) rotate(60.342)"/></g><g transform="translate(22.375 23.272)"><rect class="m" width="0.79" height="17.38" transform="translate(15.103) rotate(60.342)"/></g><g transform="translate(28.271 27.493)"><rect class="m" width="0.79" height="17.38" transform="matrix(0.589, 0.808, -0.808, 0.589, 14.04, 0)"/></g><g transform="translate(34.526 31.14)"><rect class="m" width="0.79" height="17.38" transform="translate(11.832) rotate(42.903)"/></g><g transform="translate(68.466 59.338)"><rect class="m" width="0.79" height="17.38" transform="matrix(0.903, 0.43, -0.43, 0.903, 7.472, 0)"/></g><g transform="translate(63.065 54.319)"><rect class="m" width="0.79" height="17.38" transform="matrix(0.903, 0.43, -0.43, 0.903, 7.472, 0)"/></g><g transform="translate(57.664 49.299)"><rect class="m" width="0.79" height="17.38" transform="matrix(0.903, 0.43, -0.43, 0.903, 7.472, 0)"/></g><g transform="translate(52.263 44.28)"><rect class="m" width="0.79" height="17.38" transform="matrix(0.903, 0.43, -0.43, 0.903, 7.472, 0)"/></g><g transform="translate(46.862 39.26)"><rect class="m" width="0.79" height="17.38" transform="matrix(0.903, 0.43, -0.43, 0.903, 7.472, 0)"/></g><g transform="translate(41.461 34.241)"><rect class="m" width="0.79" height="17.38" transform="matrix(0.903, 0.43, -0.43, 0.903, 7.472, 0)"/></g></g></g><g transform="translate(278.159 265.483)"><g transform="translate(17.236 30.684)"><path class="i" d="M1124.191,664.247h0a.288.288,0,0,1-.122-.388l.313-.6.51.265-.313.6A.289.289,0,0,1,1124.191,664.247Z" transform="translate(-1124.036 -663.258)"/></g><g transform="translate(20.08 32.161)"><path class="i" d="M1126.655,665.529h0a.289.289,0,0,1-.122-.388l.313-.6c.021-.04.508.27.508.27l-.31.6A.287.287,0,0,1,1126.655,665.529Z" transform="translate(-1126.5 -664.538)"/></g><g transform="translate(17.194 30.342)"><path class="j" d="M1124.155,664.161h0a.287.287,0,0,1-.122-.388l.342-.658a.289.289,0,0,1,.388-.122h0a.287.287,0,0,1,.122.388l-.342.658A.287.287,0,0,1,1124.155,664.161Z" transform="translate(-1124 -662.961)"/></g><g transform="translate(20.032 31.819)"><path class="j" d="M1126.614,665.441h0a.289.289,0,0,1-.122-.388l.343-.658a.289.289,0,0,1,.388-.122h0a.289.289,0,0,1,.122.388l-.343.658A.287.287,0,0,1,1126.614,665.441Z" transform="translate(-1126.459 -664.241)"/></g><g transform="translate(15.225 38.035)"><rect class="k" width="1.223" height="1.886" transform="translate(0 1.085) rotate(-62.503)"/></g><g transform="translate(16.281 36.132)"><rect class="k" width="1.223" height="1.886" transform="matrix(0.462, -0.887, 0.887, 0.462, 0, 1.085)"/></g><g transform="translate(0 51.57)"><path class="l" d="M1206.137,716.673l-95.019-12.139a2.129,2.129,0,0,1-2.017-2.373l.182-1.424,12.855-17.89a3.34,3.34,0,0,1,3.2-1.46l72.713,9.29c1.357.173,4.008,3.227,4.459,4.519l6.346,18.587-.081.629A2.282,2.282,0,0,1,1206.137,716.673Z" transform="translate(-1109.097 -681.361)"/></g><g transform="translate(0.197 49.559)"><path class="m" d="M1206.377,714.931l-95.019-12.14c-1.056-.134-2.674-1.282-1.876-2.335l12.9-19.352a3.337,3.337,0,0,1,3.2-1.46l72.714,9.29a3.61,3.61,0,0,1,2.951,2.389l7.558,21.617C1209.348,714.327,1207.534,715.079,1206.377,714.931Z" transform="translate(-1109.268 -679.618)"/></g><g transform="translate(13.533)"><rect class="m" width="49.57" height="78.446" rx="2.486" transform="translate(0 49.17) rotate(-82.72)"/></g><g transform="translate(17.016 3.064)"><rect class="l" width="42.953" height="72.394" transform="translate(0 42.606) rotate(-82.72)"/></g><g transform="translate(35.241 67.626)"><path class="l" d="M1168.083,707.319l-28-3.577a.509.509,0,0,1-.425-.648l2.123-7.224a.827.827,0,0,1,.9-.587l25.254,3.226a.728.728,0,0,1,.635.708l.135,7.554A.552.552,0,0,1,1168.083,707.319Z" transform="translate(-1139.641 -695.276)"/></g><g transform="translate(11.481 53.207)"><path class="n" d="M1196.419,702.118l-76.073-9.718c-.843-.107-1.446-.515-1.267-.855l4.308-8.2c.232-.442,1.208-.665,2.3-.525l68.614,8.765c.973.125,1.758.536,1.846.968l1.833,9.033C1198.051,701.983,1197.315,702.234,1196.419,702.118Z" transform="translate(-1119.048 -682.779)"/></g><g transform="translate(11.412 52.049)"><g transform="translate(0.845 1.964)"><rect class="m" width="79.976" height="0.404" transform="translate(0.051 0) rotate(7.28)"/></g><g transform="translate(0.589 3.968)"><rect class="m" width="79.976" height="0.404" transform="translate(0.051) rotate(7.28)"/></g><g transform="translate(0.282 6.372)"><rect class="m" width="79.976" height="0.404" transform="translate(0.051 0) rotate(7.28)"/></g><g transform="translate(0 8.575)"><rect class="m" width="79.976" height="0.404" transform="translate(0.051 0) rotate(7.28)"/></g><g transform="translate(5.337)"><rect class="m" width="0.606" height="13.329" transform="translate(5.574 0) rotate(24.719)"/></g><g transform="translate(11.147 0.742)"><rect class="m" width="0.606" height="13.329" transform="translate(5.574) rotate(24.719)"/></g><g transform="translate(15.754 1.331)"><rect class="m" width="0.606" height="13.329" transform="translate(5.574) rotate(24.719)"/></g><g transform="translate(20.362 1.919)"><rect class="m" width="0.606" height="13.329" transform="translate(5.574) rotate(24.719)"/></g><g transform="translate(25.17 2.534)"><rect class="m" width="0.606" height="13.329" transform="translate(5.574 0) rotate(24.719)"/></g><g transform="translate(31.466 3.007)"><rect class="m" width="0.606" height="13.329" transform="translate(4.176) rotate(18.258)"/></g><g transform="translate(38.105 3.473)"><rect class="m" width="0.606" height="13.329" transform="translate(1.689) rotate(7.28)"/></g><g transform="translate(70.831 7.731)"><rect class="m" width="0.606" height="13.329" transform="translate(0 0.107) rotate(-10.159)"/></g><g transform="translate(65.222 7.014)"><rect class="m" width="0.606" height="13.329" transform="translate(0 0.107) rotate(-10.159)"/></g><g transform="translate(59.613 6.298)"><rect class="m" width="0.606" height="13.329" transform="translate(0 0.107) rotate(-10.159)"/></g><g transform="translate(54.003 5.581)"><rect class="m" width="0.606" height="13.329" transform="translate(0 0.107) rotate(-10.159)"/></g><g transform="translate(48.394 4.865)"><rect class="m" width="0.606" height="13.329" transform="translate(0 0.107) rotate(-10.159)"/></g><g transform="translate(42.785 4.148)"><rect class="m" width="0.606" height="13.329" transform="translate(0 0.107) rotate(-10.159)"/></g></g></g><g transform="translate(118.361 452.587)"><g transform="translate(14.978 58.303)"><path class="i" d="M983.973,850.268h0a.261.261,0,0,1-.3-.216l-.1-.606.515-.083.1.606A.261.261,0,0,1,983.973,850.268Z" transform="translate(-983.577 -849.364)"/></g><g transform="translate(17.845 57.846)"><path class="i" d="M986.459,849.867h0a.26.26,0,0,1-.3-.216l-.1-.606a2.222,2.222,0,0,1,.516-.077l.1.6A.263.263,0,0,1,986.459,849.867Z" transform="translate(-986.062 -848.968)"/></g><g transform="translate(14.864 57.954)"><path class="j" d="M983.886,850.242h0a.26.26,0,0,1-.3-.216l-.107-.662a.26.26,0,0,1,.216-.3h0a.261.261,0,0,1,.3.216l.106.662A.26.26,0,0,1,983.886,850.242Z" transform="translate(-983.478 -849.062)"/></g><g transform="translate(17.726 57.492)"><path class="j" d="M986.368,849.842h0a.261.261,0,0,1-.3-.216l-.107-.663a.262.262,0,0,1,.216-.3h0a.262.262,0,0,1,.3.216l.107.663A.261.261,0,0,1,986.368,849.842Z" transform="translate(-985.958 -848.661)"/></g><g transform="translate(17.653 64.427)"><rect class="k" width="1.709" height="1.108" transform="translate(0 0.272) rotate(-9.164)"/></g><g transform="translate(17.391 62.472)"><rect class="k" width="1.709" height="1.108" transform="translate(0 0.272) rotate(-9.164)"/></g><g transform="translate(23.78 41.505)"><path class="l" d="M1070.568,849.545l-75.636,42.585a1.928,1.928,0,0,1-2.749-.635l-.638-1.133-.335-19.96a3.024,3.024,0,0,1,1.536-2.792l57.881-32.588c1.08-.608,4.659.178,5.686.872l14.67,10.078.281.5A2.069,2.069,0,0,1,1070.568,849.545Z" transform="translate(-991.205 -834.805)"/></g><g transform="translate(22.884 39.697)"><path class="m" d="M1069.792,848.181l-75.636,42.585c-.84.473-2.636.515-2.627-.683l-1.095-21.045a3.022,3.022,0,0,1,1.537-2.792l57.88-32.588a3.272,3.272,0,0,1,3.438.141l17.19,11.623C1071.625,846.135,1070.712,847.662,1069.792,848.181Z" transform="translate(-990.429 -833.238)"/></g><rect class="m" width="71.083" height="44.917" rx="2.252" transform="translate(0 34.874) rotate(-29.381)"/><g transform="translate(3.58 3.486)"><rect class="l" width="65.599" height="38.921" transform="translate(0 32.184) rotate(-29.381)"/></g><g transform="translate(49.634 62.64)"><path class="l" d="M1038.971,859.532l-22.286,12.548a.461.461,0,0,1-.659-.242l-2.366-6.4a.751.751,0,0,1,.336-.913l20.1-11.317a.659.659,0,0,1,.845.171l4.185,5.419A.5.5,0,0,1,1038.971,859.532Z" transform="translate(-1013.614 -853.123)"/></g><g transform="translate(26.184 43.308)"><path class="n" d="M1056.538,843.315l-60.554,34.094c-.671.378-1.329.408-1.383.063l-1.306-8.291c-.07-.446.519-1.136,1.39-1.628L1049.3,836.8c.774-.436,1.568-.562,1.866-.3l6.221,5.575C1057.65,842.333,1057.251,842.913,1056.538,843.315Z" transform="translate(-993.289 -836.368)"/></g><g transform="translate(23.767 42.642)"><rect class="m" width="72.469" height="0.366" transform="translate(0 35.554) rotate(-29.381)"/><g transform="translate(0.898 1.595)"><rect class="m" width="72.469" height="0.366" transform="translate(0 35.554) rotate(-29.381)"/></g><g transform="translate(1.975 3.508)"><rect class="m" width="72.469" height="0.366" transform="translate(0 35.554) rotate(-29.381)"/></g><g transform="translate(2.963 5.262)"><rect class="m" width="72.469" height="0.366" transform="translate(0 35.554) rotate(-29.381)"/></g><g transform="translate(6.217 28.594)"><rect class="m" width="0.549" height="12.078" transform="translate(0 0.114) rotate(-11.942)"/></g><g transform="translate(10.842 25.99)"><rect class="m" width="0.549" height="12.078" transform="translate(0 0.114) rotate(-11.942)"/></g><g transform="translate(14.509 23.925)"><rect class="m" width="0.549" height="12.078" transform="translate(0 0.114) rotate(-11.942)"/></g><g transform="translate(18.177 21.86)"><rect class="m" width="0.549" height="12.078" transform="translate(0 0.114) rotate(-11.942)"/></g><g transform="translate(22.004 19.705)"><rect class="m" width="0.549" height="12.078" transform="translate(0 0.114) rotate(-11.942)"/></g><g transform="translate(25.82 17.34)"><rect class="m" width="0.549" height="12.078" transform="translate(0 0.173) rotate(-18.403)"/></g><g transform="translate(29.091 15.336)"><rect class="m" width="0.549" height="12.078" transform="translate(0 0.269) rotate(-29.381)"/></g><g transform="translate(54.013 1.586)"><rect class="m" width="0.549" height="12.078" transform="translate(0 0.4) rotate(-46.82)"/></g><g transform="translate(49.548 4.1)"><rect class="m" width="0.549" height="12.078" transform="translate(0 0.4) rotate(-46.82)"/></g><g transform="translate(45.083 6.613)"><rect class="m" width="0.549" height="12.078" transform="translate(0 0.4) rotate(-46.82)"/></g><g transform="translate(40.618 9.127)"><rect class="m" width="0.549" height="12.078" transform="translate(0 0.4) rotate(-46.82)"/></g><g transform="translate(36.153 11.641)"><rect class="m" width="0.549" height="12.078" transform="translate(0 0.4) rotate(-46.82)"/></g><g transform="translate(31.688 14.155)"><rect class="m" width="0.549" height="12.078" transform="translate(0 0.4) rotate(-46.82)"/></g></g></g><g transform="translate(51.594 351.796)"><g transform="translate(4.809 29.018)"><path class="i" d="M917.051,737.268h0a.186.186,0,0,1-.155-.212l.069-.431.367.059-.069.432A.186.186,0,0,1,917.051,737.268Z" transform="translate(-916.894 -736.624)"/></g><g transform="translate(6.854 29.34)"><path class="i" d="M918.822,737.554h0a.186.186,0,0,1-.153-.213l.069-.431a1.575,1.575,0,0,1,.366.062l-.068.428A.186.186,0,0,1,918.822,737.554Z" transform="translate(-918.666 -736.903)"/></g><g transform="translate(4.757 28.75)"><path class="j" d="M917,737.232h0a.186.186,0,0,1-.153-.212l.076-.473a.186.186,0,0,1,.212-.153h0a.186.186,0,0,1,.155.212l-.076.473A.186.186,0,0,1,917,737.232Z" transform="translate(-916.849 -736.391)"/></g><g transform="translate(6.797 29.076)"><path class="j" d="M918.774,737.516h0a.186.186,0,0,1-.155-.212l.076-.473a.186.186,0,0,1,.212-.155h0a.186.186,0,0,1,.155.213l-.076.473A.186.186,0,0,1,918.774,737.516Z" transform="translate(-918.617 -736.674)"/></g><g transform="translate(5.155 33.889)"><rect class="k" width="0.79" height="1.218" transform="translate(0 0.78) rotate(-80.885)"/></g><g transform="translate(5.415 32.507)"><rect class="k" width="0.79" height="1.218" transform="translate(0 0.78) rotate(-80.886)"/></g><g transform="translate(2.421 32.977)"><path class="l" d="M977.433,754.357l-60.711,11.914A1.375,1.375,0,0,1,915,765.227l-.179-.909,4.235-13.584a2.154,2.154,0,0,1,1.664-1.546l46.46-9.117c.868-.171,3.114,1.162,3.654,1.862l7.676,10.1.078.4A1.475,1.475,0,0,1,977.433,754.357Z" transform="translate(-914.824 -740.055)"/></g><g transform="translate(2.407 31.661)"><path class="m" d="M977.188,753.246,916.477,765.16c-.675.132-1.9-.241-1.626-1.05l3.963-14.488a2.154,2.154,0,0,1,1.664-1.546l46.46-9.117a2.331,2.331,0,0,1,2.3.863l9.035,11.711C978.886,752.271,977.927,753.1,977.188,753.246Z" transform="translate(-914.812 -738.915)"/></g><rect class="m" width="50.666" height="32.016" rx="1.606" transform="translate(0 9.756) rotate(-11.102)"/><g transform="translate(2.245 2.092)"><rect class="l" width="46.758" height="27.742" transform="translate(0 9.004) rotate(-11.102)"/></g><g transform="translate(24.664 44.273)"><path class="l" d="M952.554,755.224l-17.889,3.511a.329.329,0,0,1-.391-.311l-.171-4.86a.534.534,0,0,1,.43-.543l16.135-3.166a.47.47,0,0,1,.533.3l1.621,4.6A.356.356,0,0,1,952.554,755.224Z" transform="translate(-934.103 -749.845)"/></g><g transform="translate(7.532 34.081)"><path class="n" d="M968.813,747.09l-48.606,9.538c-.539.106-.991-.021-.951-.265l.97-5.9c.052-.318.606-.653,1.305-.79l43.841-8.6c.621-.121,1.186-.029,1.328.217l2.964,5.164C969.785,746.675,969.386,746.978,968.813,747.09Z" transform="translate(-919.254 -741.012)"/></g><g transform="translate(6.401 33.559)"><g transform="translate(0 0.885)"><rect class="m" width="51.654" height="0.261" transform="translate(0 9.947) rotate(-11.102)"/></g><g transform="translate(0.251 2.165)"><rect class="m" width="51.654" height="0.261" transform="translate(0 9.947) rotate(-11.102)"/></g><g transform="translate(0.553 3.701)"><rect class="m" width="51.654" height="0.261" transform="translate(0 9.947) rotate(-11.102)"/></g><g transform="translate(0.829 5.109)"><rect class="m" width="51.654" height="0.261" transform="translate(0 9.947) rotate(-11.102)"/></g><g transform="translate(4.788 7.588)"><rect class="m" width="0.391" height="8.609" transform="matrix(0.994, 0.11, -0.11, 0.994, 0.95, 0)"/></g><g transform="translate(8.5 6.859)"><rect class="m" width="0.391" height="8.609" transform="matrix(0.994, 0.11, -0.11, 0.994, 0.95, 0)"/></g><g transform="translate(11.444 6.282)"><rect class="m" width="0.391" height="8.609" transform="matrix(0.994, 0.11, -0.11, 0.994, 0.95, 0)"/></g><g transform="translate(14.388 5.704)"><rect class="m" width="0.391" height="8.609" transform="matrix(0.994, 0.11, -0.11, 0.994, 0.95, 0)"/></g><g transform="translate(17.46 5.101)"><rect class="m" width="0.391" height="8.609" transform="matrix(0.994, 0.11, -0.11, 0.994, 0.95, 0)"/></g><g transform="translate(21.509 4.393)"><rect class="m" width="0.391" height="8.609" transform="matrix(1, -0.002, 0.002, 1, 0, 0.001)"/></g><g transform="translate(24.149 3.758)"><rect class="m" width="0.391" height="8.609" transform="translate(0 0.075) rotate(-11.102)"/></g><g transform="translate(44.061)"><rect class="m" width="0.391" height="8.609" transform="matrix(0.878, -0.478, 0.478, 0.878, 0, 0.187)"/></g><g transform="translate(40.477 0.703)"><rect class="m" width="0.391" height="8.609" transform="matrix(0.878, -0.478, 0.478, 0.878, 0, 0.187)"/></g><g transform="translate(36.893 1.407)"><rect class="m" width="0.391" height="8.609" transform="matrix(0.878, -0.478, 0.478, 0.878, 0, 0.187)"/></g><g transform="translate(33.309 2.11)"><rect class="m" width="0.391" height="8.609" transform="matrix(0.878, -0.478, 0.478, 0.878, 0, 0.187)"/></g><g transform="translate(29.725 2.813)"><rect class="m" width="0.391" height="8.609" transform="matrix(0.878, -0.478, 0.478, 0.878, 0, 0.187)"/></g><g transform="translate(26.141 3.516)"><rect class="m" width="0.391" height="8.609" transform="matrix(0.878, -0.478, 0.478, 0.878, 0, 0.187)"/></g></g></g><g transform="translate(386.983 417.918)"><g transform="translate(48.716 30.816)"><path class="i" d="M1245.685,796.4h0a.369.369,0,0,1,.153-.5l.768-.407.346.653-.768.407A.371.371,0,0,1,1245.685,796.4Z" transform="translate(-1245.642 -795.492)"/></g><g transform="translate(50.643 34.454)"><path class="i" d="M1247.355,799.553h0a.37.37,0,0,1,.154-.5l.768-.407c.052-.028.339.657.339.657l-.761.4A.372.372,0,0,1,1247.355,799.553Z" transform="translate(-1247.312 -798.645)"/></g><g transform="translate(48.767 30.565)"><path class="j" d="M1245.729,796.263h0a.372.372,0,0,1,.153-.5l.842-.445a.37.37,0,0,1,.5.153h0a.371.371,0,0,1-.155.5l-.841.445A.37.37,0,0,1,1245.729,796.263Z" transform="translate(-1245.686 -795.275)"/></g><g transform="translate(50.69 34.197)"><path class="j" d="M1247.4,799.411h0a.37.37,0,0,1,.153-.5l.842-.445a.368.368,0,0,1,.5.153h0a.37.37,0,0,1-.153.5l-.841.445A.369.369,0,0,1,1247.4,799.411Z" transform="translate(-1247.353 -798.423)"/></g><g transform="translate(41.036 37.281)"><rect class="k" width="1.571" height="2.423" transform="translate(0 0.735) rotate(-27.899)"/></g><g transform="translate(43.541 36.039)"><rect class="k" width="1.571" height="2.423" transform="translate(0 0.735) rotate(-27.899)"/></g><g transform="translate(0 50.857)"><path class="l" d="M1296.118,910.214,1204.5,828.057a2.735,2.735,0,0,1-.4-3.98l1.231-1.373,26.645-9.537a4.289,4.289,0,0,1,4.449.792l70.108,62.871c1.308,1.173,1.883,6.336,1.418,8.031l-6.851,24.284-.543.606A2.934,2.934,0,0,1,1296.118,910.214Z" transform="translate(-1203.418 -812.862)"/></g><g transform="translate(1.662 48.925)"><path class="m" d="M1297.645,908.539l-91.616-82.157c-1.018-.911-1.892-3.305-.279-3.839l27.755-11.052a4.289,4.289,0,0,1,4.449.792l70.108,62.871a4.637,4.637,0,0,1,1.376,4.68L1301.66,908.2C1301.227,910.069,1298.76,909.539,1297.645,908.539Z" transform="translate(-1204.858 -811.187)"/></g><g transform="translate(31.914)"><rect class="m" width="63.679" height="100.775" rx="3.193" transform="translate(0 47.408) rotate(-48.116)"/></g><g transform="translate(38.151 5.169)"><rect class="l" width="55.178" height="93" transform="translate(0 41.08) rotate(-48.116)"/></g><g transform="translate(35.48 84.715)"><path class="l" d="M1261.381,873.738l-26.995-24.208a.654.654,0,0,1,.025-.995l7.514-6.09a1.062,1.062,0,0,1,1.378.033l24.349,21.835a.933.933,0,0,1,.153,1.212l-5.368,8.086A.709.709,0,0,1,1261.381,873.738Z" transform="translate(-1234.17 -842.208)"/></g><g transform="translate(20.245 53.857)"><path class="n" d="M1295.221,888.682l-73.347-65.775c-.815-.73-1.155-1.6-.717-1.83l10.537-5.526c.568-.3,1.763.178,2.819,1.125L1300.669,876c.937.841,1.468,1.851,1.246,2.37l-4.651,10.89C1297.045,889.728,1296.085,889.456,1295.221,888.682Z" transform="translate(-1220.965 -815.462)"/></g><g transform="translate(21.023 51.636)"><g transform="translate(5.716)"><rect class="m" width="102.74" height="0.519" transform="translate(0.346) rotate(41.884)"/></g><g transform="translate(3.984 1.932)"><rect class="m" width="102.74" height="0.519" transform="translate(0.346 0) rotate(41.884)"/></g><g transform="translate(1.905 4.249)"><rect class="m" width="102.74" height="0.519" transform="translate(0.346) rotate(41.884)"/></g><g transform="translate(0 6.374)"><rect class="m" width="102.74" height="0.519" transform="translate(0.346 0) rotate(41.884)"/></g><g transform="translate(3.359 5.23)"><rect class="m" width="0.778" height="17.123" transform="translate(14.727 0) rotate(59.324)"/></g><g transform="translate(8.96 10.253)"><rect class="m" width="0.778" height="17.123" transform="translate(14.727 0) rotate(59.324)"/></g><g transform="translate(13.403 14.237)"><rect class="m" width="0.778" height="17.123" transform="translate(14.727 0) rotate(59.324)"/></g><g transform="translate(17.845 18.221)"><rect class="m" width="0.778" height="17.123" transform="translate(14.727) rotate(59.324)"/></g><g transform="translate(22.481 22.378)"><rect class="m" width="0.778" height="17.123" transform="translate(14.727) rotate(59.324)"/></g><g transform="translate(28.391 26.451)"><rect class="m" width="0.778" height="17.123" transform="matrix(0.604, 0.797, -0.797, 0.604, 13.651, 0)"/></g><g transform="translate(34.661 29.973)"><rect class="m" width="0.778" height="17.123" transform="translate(11.432 0) rotate(41.884)"/></g><g transform="translate(68.639 57.232)"><rect class="m" width="0.778" height="17.123" transform="matrix(0.91, 0.414, -0.414, 0.91, 7.086, 0)"/></g><g transform="translate(63.231 52.382)"><rect class="m" width="0.778" height="17.123" transform="matrix(0.91, 0.414, -0.414, 0.91, 7.086, 0)"/></g><g transform="translate(57.823 47.532)"><rect class="m" width="0.778" height="17.123" transform="matrix(0.91, 0.414, -0.414, 0.91, 7.086, 0)"/></g><g transform="translate(52.414 42.682)"><rect class="m" width="0.778" height="17.123" transform="matrix(0.91, 0.414, -0.414, 0.91, 7.086, 0)"/></g><g transform="translate(47.006 37.832)"><rect class="m" width="0.778" height="17.123" transform="matrix(0.91, 0.414, -0.414, 0.91, 7.086, 0)"/></g><g transform="translate(41.598 32.982)"><rect class="m" width="0.778" height="17.123" transform="matrix(0.91, 0.414, -0.414, 0.91, 7.086, 0)"/></g></g></g></g></g></g></g></svg>