<svg xmlns="http://www.w3.org/2000/svg" width="164.322" height="164.155" viewBox="0 0 164.322 164.155"><defs><style>.a{fill:#947dce;}.b{fill:#f9a94b;}</style></defs><g transform="translate(4120.429 -6326.707)"><g transform="translate(-4120.429 6326.707)"><path class="a" d="M-4042.663,6490.838l7.891.024a81.867,81.867,0,0,0,78.664-82.065,81.869,81.869,0,0,0-78.667-82.063l-7.817-.026c-.024.015-.048.032-.075.051a82.055,82.055,0,0,0-77.762,82.039A82.057,82.057,0,0,0-4042.663,6490.838Zm-49.615-28.929a91.912,91.912,0,0,1,16.8-9.658,98.279,98.279,0,0,0,23.392,31.063A76.008,76.008,0,0,1-4092.278,6461.909Zm50.834,21.921a93.917,93.917,0,0,1-28.116-33.956,94.858,94.858,0,0,1,28.116-5.591Zm0-45.9a101.245,101.245,0,0,0-30.686,6.117,93.691,93.691,0,0,1-6.559-29.377l37.245-.019Zm0-29.633-37.444.022a94.675,94.675,0,0,1,5.115-30.393,99.7,99.7,0,0,0,32.33,6.85Zm15.906,75.212a98.178,98.178,0,0,0,24.177-32.405,92.058,92.058,0,0,1,18.079,9.811A75.782,75.782,0,0,1-4025.538,6483.513Zm46.457-27.4a97.892,97.892,0,0,0-19.83-10.859,100.334,100.334,0,0,0,6.561-30.624l29.654-.018A75.086,75.086,0,0,1-3979.082,6456.111Zm2.373-91.5a75.06,75.06,0,0,1,14.246,43.647l-29.7.017a101.085,101.085,0,0,0-5.2-31.612A100.127,100.127,0,0,0-3976.709,6364.612Zm-3.92-5a93.879,93.879,0,0,1-18.93,11.081,99.359,99.359,0,0,0-25.987-36.617A75.429,75.429,0,0,1-3980.63,6359.614Zm-54.463-25.185a93.221,93.221,0,0,1,29.626,38.613,93.4,93.4,0,0,1-29.626,5.455Zm0,50.431a99.821,99.821,0,0,0,31.812-5.857,94.823,94.823,0,0,1,4.768,29.273l-36.579.023Zm0,29.789,36.378-.018a93.869,93.869,0,0,1-6.161,28.414,101.433,101.433,0,0,0-30.218-5.189Zm0,29.552a95.045,95.045,0,0,1,27.732,4.707,93.758,93.758,0,0,1-27.732,34.257Zm-6.351-110.437v44.656a93.426,93.426,0,0,1-30.048-6.429A93.394,93.394,0,0,1-4041.444,6333.765Zm-10.628.509a99.518,99.518,0,0,0-25.25,35.188,93.59,93.59,0,0,1-17.619-10.931A75.692,75.692,0,0,1-4052.072,6334.273Zm-46.888,29.179a99.89,99.89,0,0,0,19.329,11.948,101,101,0,0,0-5.612,32.923l-28.83.016A74.978,74.978,0,0,1-4098.96,6363.452Zm-14.871,51.239,28.783-.016a100.082,100.082,0,0,0,7.023,31.759,98.208,98.208,0,0,0-18.534,10.741A74.968,74.968,0,0,1-4113.831,6414.691Z" transform="translate(4120.43 -6326.707)"/></g><g transform="translate(-4069.989 6359.708)"><path class="b" d="M-4061.923,6423.014a3.666,3.666,0,0,1-3.668-3.658v-.023a34.373,34.373,0,0,1,2.045-12.48,28.384,28.384,0,0,1,4.843-7.978,91.472,91.472,0,0,1,8.83-8.558q6.374-5.625,8.285-8.969a14.437,14.437,0,0,0,1.91-7.295,17.015,17.015,0,0,0-5.592-12.581,18.937,18.937,0,0,0-13.707-5.421,18.418,18.418,0,0,0-13.091,4.91q-4.389,4.1-6.253,12.066a3.709,3.709,0,0,1-4.042,2.869l-5.377-.64a3.7,3.7,0,0,1-3.185-4.415q2.3-11.108,9.481-17.45,8.421-7.433,22.264-7.433,14.662,0,23.389,7.978a25.2,25.2,0,0,1,8.729,19.3,24.423,24.423,0,0,1-3.068,12.069q-3.067,5.522-12,13.433a60.737,60.737,0,0,0-7.842,7.843,17.507,17.507,0,0,0-2.727,5.795,36.344,36.344,0,0,0-.9,7.127,3.7,3.7,0,0,1-3.689,3.512Zm-4.35,20.922v-6.59a3.694,3.694,0,0,1,3.694-3.7h6.591a3.694,3.694,0,0,1,3.694,3.7v6.59a3.693,3.693,0,0,1-3.694,3.693h-6.591A3.693,3.693,0,0,1-4066.273,6443.936Z" transform="translate(4091.004 -6345.959)"/></g></g></svg>