<svg xmlns="http://www.w3.org/2000/svg" xmlns:xlink="http://www.w3.org/1999/xlink" width="1367.652" height="768.427" viewBox="0 0 1367.652 768.427"><defs><style>.a,.r{fill:none;}.b{clip-path:url(#a);}.c{fill:#d2c3db;}.d{fill:#eadff1;}.ai,.e,.v{fill:#000;}.f,.g{fill:#d8a35d;}.f{fill-rule:evenodd;}.h{fill:#d19442;}.i{fill:#947dce;}.j{fill:#ffc84f;}.k{opacity:0.15;}.l{fill:#62548a;}.m{opacity:0.3;}.n{opacity:0.5;}.o{fill:#999;}.p{fill:#ccc;}.q{fill:gray;}.r{stroke:#947dce;stroke-width:0.861px;}.ai,.r,.v{stroke-miterlimit:10;}.s{clip-path:url(#b);}.t{fill:#b3b3b3;}.u{fill:#4f3b65;}.ai,.v{stroke:#4f3b65;}.v{stroke-width:6px;}.w{fill:#ce521f;}.x{fill:#ebebeb;}.y{fill:#8e96a3;}.z{fill:#3d3d3d;}.aa{fill:#d0d1d6;}.ab{fill:#aaa;}.ac{fill:#e0ebfc;opacity:0.75;}.ad{isolation:isolate;}.ae{clip-path:url(#c);}.af{fill:#403129;}.ag{fill:#5d483d;}.ah{fill:#ff0;}.ai{stroke-width:6.375px;}.aj{clip-path:url(#d);}.ak{clip-path:url(#e);}.al{fill:url(#f);}.am{clip-path:url(#g);}.an{fill:#100f0d;}</style><clipPath id="a"><rect class="a" width="1365.799" height="767" transform="translate(0.1 -11)"/></clipPath><clipPath id="b"><rect class="a" width="565.741" height="201.862" transform="translate(366.598 554.138)"/></clipPath><clipPath id="c"><path class="a" d="M1202.388,436.908l-6.868-123.863,101.921,5.6,6.868,123.863Z"/></clipPath><clipPath id="d"><rect class="a" width="143.417" height="59.857" transform="translate(435.438 316.205)"/></clipPath><clipPath id="e"><path class="a" d="M578.008,329.123s-.835-5.864-3.4-8.446c-3.251-3.389-6.895-3.407-8.565-3.605-11.962-.861-29.9-.861-29.9-.861H536.1s-17.943,0-29.905.861c-1.671.2-5.314.216-8.565,3.605-2.563,2.582-3.4,8.446-3.4,8.446a128.1,128.1,0,0,0-.855,13.773v6.456a128.1,128.1,0,0,0,.855,13.772s.834,5.863,3.4,8.446c3.251,3.39,7.523,3.282,9.425,3.637,6.839.653,29.063.855,29.063.855s17.962-.027,29.924-.887c1.67-.2,5.314-.215,8.565-3.6,2.563-2.583,3.4-8.446,3.4-8.446a128.241,128.241,0,0,0,.854-13.772V342.9A128.248,128.248,0,0,0,578.008,329.123Z"/></clipPath><linearGradient id="f" x1="-96.09" y1="38.798" x2="-96.087" y2="38.798" gradientUnits="objectBoundingBox"><stop offset="0" stop-color="#e42526"/><stop offset="1" stop-color="#be1f26"/></linearGradient><clipPath id="g"><rect class="a" width="143.417" height="59.851" transform="translate(435.438 316.211)"/></clipPath></defs><g transform="translate(-0.1 11)"><g class="b"><path class="c" d="M1365.9,2.037V760.5l-242.228-67.586-32.991-6.263,1.636-558.092L1122.435,103Z"/><path class="c" d="M316.2,117.971,300.145,674.342.1,748.74V-1.312L298.945,92.258Z"/><path class="d" d="M697.877,81.571H273.269V698.955h849.165V81.571Z"/><path class="e" d="M-.1,53.28c121.657,30.38,335.7,73.888,615,80.372,352.971,8.194,622.428-47.1,751-78.7V-7.5H-.1Z"/><path class="e" d="M-.1,715.184c121.657-29.39,335.7-71.481,615-77.753,352.971-7.928,622.428,45.568,751,76.133v47.19L.1,763.5Z"/></g><path class="f" d="M786.476,538.473s-6.114,2.683-8.623,7.272c-1.492,2.728-2.2,2.4-2.59,2.811-1.312,1.374,2.3.891,3.963-1.282,1.355-1.765,5.167-1.645,6.324-2.583s3.782-4.044,3.637-5.109S786.476,538.473,786.476,538.473Z"/><path class="f" d="M797.089,527.641c-.623.785-9.686,8.171-12.009,13.114s-5.3,12.512-7.011,14.88c-2.007,2.786-1.058,4.017,1.6.934a53.561,53.561,0,0,0,5.255-7.31c.206-.5-1.448,2.666-3.509,6.015-2.192,3.561-4.789,7.344-4.172,7.783,1.2.852,8.2-9.154,9.118-11.032a52.112,52.112,0,0,1-2.489,4.925c-1.254,2.175-3.041,4.541-2.748,5.239.461,1.1,4.891-3.939,7.322-8.549.187-.028-.135,1.629-3.388,6.911-.327.531-.606,2.083.944.518,3.261-3.294,4.907-4.469,7.161-10.137,2.2-5.528,3.281-12.115,6.085-15.648Z"/><path class="g" d="M938.2,602.156s-10.7,110.373-6.148,112.272c8.16,3.462,40.116,14.784,4.884,12.3-18.1,1.091-16.77-2.953-17.052-6.379-.231-2.8.3-101.578-.444-109.259-.166-1.721-.267-2.761-.267-2.761Z"/><path class="g" d="M871.866,602.156s4.637,110.373.089,112.272c-8.16,3.462-40.116,14.784-4.884,12.3,18.1,1.091,16.77-2.953,17.053-6.379.23-2.8,2.283-24.047,3.027-31.729.167-1.72,3.713-88.044,3.713-88.044Z"/><path class="h" d="M907.342,317.338s-.943,10.517,5.544,16.333-14.95,0-14.95,0,3.989-10.074,3.1-16.333S907.342,317.338,907.342,317.338Z"/><ellipse class="g" cx="11.342" cy="15.474" rx="11.342" ry="15.474" transform="translate(892.579 290.468)"/><path class="i" d="M977.891,418.529c-.241,3.8-4.17,21.01-9.08,36.31-4.023,12.56-8.718,23.836-12.577,25.4-8.563,3.445-73.215,8.175-86.507,1.834-.31-.232-.646-.482-.965-.758-4.988-4.057-10.4-12.069-13.266-19.572,0-.008-7.641-21.545-9.2-25.93-.017-.043-.026-.077-.043-.112-.052-.172-.112-.336-.172-.491-.017-.06-.043-.112-.06-.172-8.046,27.472-29.453,87.808-46.769,106.924-1.817,2.007-10.182-9.252-10.182-9.252s-13.981-72.2,22.493-148.5c17.168-35.914,47.81-52.3,67.374-56.649,8.468-1.886,14.86-1.516,17.194.5a12.679,12.679,0,0,0,7.917,3.075,17.125,17.125,0,0,0,4.445-.4,22.077,22.077,0,0,0,4.712-1.6c.724-.336,1.146-.577,1.146-.577a45.983,45.983,0,0,1,11.974.715C970.586,337.931,978.287,412.145,977.891,418.529Z"/><path class="j" d="M866.764,479.525a6.994,6.994,0,0,0,3.968,1.831c9.323.183,49.592.872,71.437-.383,7.707-.444,13.119-1.128,14.07-2.168a.812.812,0,0,1-.007.089c-.057,1.2-.747,14.989-1.717,33.059-1.914,35.669,1.773,86.757,6.08,102.263.93,3.347-49.1-1.723-49.1-1.723-.139-36.81,3.354-101.434,1.1-104.331-2.745-3.523-7.2,53.319-12.3,100.886-19.813,5.168-51.188,2.03-50.825,0C853.775,584.927,866.764,479.525,866.764,479.525Z"/><path class="k" d="M846.022,435.034c.017.06.043.112.06.172.061.155.121.319.173.491.017.035.025.069.043.112,1.559,4.385,9.2,25.922,9.2,25.93,2.869,7.5,8.279,15.515,13.266,19.572-3.385-12.258-13.938-47.793-13.533-62.11C853.215,433,846.022,435.025,846.022,435.034Z"/><path class="k" d="M949.524,383.7s-21.425,63.958,38.019,91.12l1.208.8-.307-15.043s-28.01-39.086-28.116-40.092S949.524,383.7,949.524,383.7Z"/><path class="k" d="M904.8,333.676c.034,1.025-.509,1.7-2.154,1.473-5.134-.7-10.932-.552-15.144,1.378a3.581,3.581,0,0,1-3.463-.146c-2.7-1.577-4.368-6.28-5.031-8.365a1.426,1.426,0,0,1-.069-.457c8.468-1.886,14.86-1.516,17.194.5a12.679,12.679,0,0,0,7.917,3.075A7,7,0,0,1,904.8,333.676Z"/><path class="l" d="M885.649,713.283c.211-1.593-11.128-1.444-12.411-.149s-23.88,5.957-23.433,12.667,31.765,1.435,34,1.277S885.234,716.415,885.649,713.283Z"/><path class="l" d="M919.245,710.7c-.21-1.593,13.362.428,14.645,1.723s21.041,6.669,20.594,13.379-31.764,1.435-34,1.277S919.66,713.831,919.245,710.7Z"/><g class="m"><path d="M903.941,481.711l-.45-.037S903.651,481.685,903.941,481.711Z"/><path class="n" d="M903.941,481.711c12,.958,38.228-.738,38.228-.738,7.707-.444,13.119-1.128,14.07-2.168a.812.812,0,0,1-.007.089c-.057,1.2-.747,14.989-1.717,33.059a9.065,9.065,0,0,1-1.261-.146,9.82,9.82,0,0,1-6.351-4.513,21.835,21.835,0,0,1-2.47-5.157C935.487,485.113,907.785,482.057,903.941,481.711Z"/></g><path class="j" d="M899.658,297.06s19.635,10.886,13.807-6.592C909.433,278.375,886.267,289.268,899.658,297.06Z"/><path class="j" d="M902.5,292.884s-10.985,6.519-9.925,13.058c0,0-2.423-19.523,8.5-20.014s15.153.564,14.183,21.208C915.262,307.136,912.088,290.714,902.5,292.884Z"/><path class="j" d="M900.6,286.056s.552-6.083,6.582-5.222,8.615,4.307,9.476,7.753,1.723,6.03,2.584,6.03c0,0-2.584,2.585-3.445,1.723,0,0,2.236,6.2-.6,11.282,0,0-1.118-7.836-5.426-8.7S900.6,286.056,900.6,286.056Z"/><path class="j" d="M901.155,286s-4.307-2.585-8.615,3.446l-2.584,5.168s.862.862,2.584,0c0,0-.785,6.07.039,9.5l2.546-10.357Z"/><path class="o" d="M875.6,402.781l10.923,69.976a7.474,7.474,0,0,0,8.529,6.228l47.759-7.46a2.227,2.227,0,0,0,.336-.069A7.444,7.444,0,0,0,949.034,463l-10.923-69.976a7.461,7.461,0,0,0-8.528-6.22l-45.545,7.107-2.214.345A7.461,7.461,0,0,0,875.6,402.781Z"/><path class="p" d="M878.154,402.368l10.923,69.976a7.461,7.461,0,0,0,8.529,6.219l45.545-7.107A7.444,7.444,0,0,0,949.034,463l-10.923-69.976a7.461,7.461,0,0,0-8.528-6.22l-45.545,7.107A7.447,7.447,0,0,0,878.154,402.368Z"/><circle class="q" cx="5.765" cy="5.765" r="5.765" transform="translate(908.316 427.504)"/><path class="k" d="M958.614,452.142s1.12-25.722-67.8-17.108S942.505,451.4,942.505,451.4Z"/><path class="f" d="M897.235,444.671c-.817-.274-9.436-5.436-14.109-5.867s-11.66-.626-14.072-1.312c-2.838-.807-3.555.321-.286,1.568a45.983,45.983,0,0,0,7.443,2.108c.467.019-2.577-.39-5.886-1.076-3.518-.729-7.334-1.721-7.509-1.094-.338,1.215,9.8,3.947,11.58,4.14a44.942,44.942,0,0,1-4.706-.57c-2.125-.377-4.559-1.129-5.037-.688-.754.694,4.613,2.8,9.049,3.414.077.144-1.356.369-6.575-.715-.524-.109-1.86.12-.143.914,3.616,1.671,5.047,2.657,10.286,2.82,5.108.16,10.747-.892,14.422.341Z"/><path class="f" d="M885.378,439.264s-3.955-4.154-8.4-4.839c-2.64-.408-2.578-1.072-3.029-1.271-1.494-.657-.047,2.116,2.195,2.828,1.823.578,2.841,3.692,3.937,4.353s4.374,1.873,5.192,1.444S885.378,439.264,885.378,439.264Z"/><path class="i" d="M970.933,340.274c16.226,14.519,27.454,28,34.458,72.362,3.553,22.506,2.628,45.011,1.7,56.879a14.022,14.022,0,0,1-9.636,12.194c-50.84,16.769-106.683-31.473-106.683-31.473-2.912-1.083,2.949-11.465,2.949-11.465,28.107-.291,49.643.57,72.041,9.185-.114-.053-22.018-41.2-24.982-52.549-7.764-29.767-33.317-55.526-26.7-67.193C916.361,324.179,954.565,325.63,970.933,340.274Z"/><line class="r" x1="12.705" y2="132.855" transform="translate(862.808 478.654)"/><line class="r" x1="12.609" y2="130.541" transform="translate(875.513 481.311)"/><line class="r" x1="10.486" y2="129.629" transform="translate(889.962 481.311)"/><line class="r" x2="0.27" y2="26.851" transform="translate(912.319 481.311)"/><line class="r" x1="2.433" y2="132.255" transform="translate(923.064 481.311)"/><line class="r" x1="0.678" y2="133.365" transform="translate(936.158 481.228)"/><line class="r" x2="2.565" y2="134.131" transform="translate(947.98 481.228)"/><path class="r" d="M865.045,493.346s71.548,3.377,90.452,0"/><path class="r" d="M912.59,508.162c-25.034,5.67-48.991-3.293-48.991-3.293"/><path class="r" d="M912.319,506.468s22.592,6.349,42.436.988"/><path class="r" d="M862.369,514.6s18.04,9.446,47.343,4.63"/><path class="r" d="M860.892,526.2s28.073,8.57,47.432,4.16"/><path class="r" d="M859.411,537.72s14.3,11.208,47.448,6.18"/><path class="r" d="M857.688,550.97a69.559,69.559,0,0,0,48.085,3.623"/><path class="r" d="M856.085,563.109s15.441,10.96,48.39,4.594"/><path class="r" d="M854.409,575.552s21.312,11.141,49.082,2.14"/><path class="r" d="M853.068,585.264s12.573,12.093,49.359,3.128"/><path class="r" d="M851.487,596.287s20.332,10.711,49.854,2.79"/><path class="r" d="M913.346,518.595s9.439,7.793,41.409,2.008"/><path class="r" d="M913.594,530.324s13.244,6.175,40.405,1.3"/><path class="r" d="M912.948,543.342s20.451,6.159,41.051,0"/><path class="r" d="M912.654,554.138s19.88,8.837,41.741,0"/><path class="r" d="M912.319,565.99s18.927,6.641,42.625,0"/><path class="r" d="M912.014,577.373s15.954,7.158,43.676,0"/><path class="r" d="M912.014,587.445s18.942,9.761,44.64,1.037"/><path class="r" d="M911.558,600.035a87.569,87.569,0,0,0,46.5.537"/><g class="s"><path class="t" d="M932.338,673.323H411.494l75.7-90.845H871.775Z"/><rect class="t" width="24.225" height="208.943" transform="translate(429.663 673.323)"/><rect class="t" width="16.655" height="246.796" transform="translate(485.684 582.478)"/><rect class="t" width="16.655" height="246.796" transform="translate(853.606 582.478)"/><rect class="t" width="24.225" height="208.943" transform="translate(891.458 673.323)"/></g><path class="e" d="M211.753,261.7V467.48a.718.718,0,0,1-.605.709l-50.395,8-16,2.53-58.17,9.238a.717.717,0,0,1-.83-.709V241.933a.717.717,0,0,1,.83-.708l58.17,9.238,16,2.53,50.395,8A.717.717,0,0,1,211.753,261.7Z"/><path class="u" d="M211.19,260.987a.713.713,0,0,1,.581.68l1.615,50.206.8,25.682c.121,4.3.315,8.575.381,12.911s-.012,8.732,0,13.088l.185,104.539,0,1.947a.718.718,0,0,1-.6.71l-1.928.306-126,20-2.64.419a.718.718,0,0,1-.83-.709V238.419a.717.717,0,0,1,.83-.708l2.64.419,15.75,2.5c5.248.842,10.5,1.67,15.759,2.441s10.47,1.856,15.7,2.834l15.673,2.985,15.755,3,15.883,3.116C191.074,257.033,201.182,259.1,211.19,260.987Zm.543.757a.722.722,0,0,0-.627-.736c-10.589-1.38-21.077-2.589-31.34-3.839l-15.616-1.887L148.4,253.3l-15.827-2.012c-5.273-.69-10.563-1.273-15.8-2.169s-10.489-1.736-15.741-2.562L86.819,244.3a.717.717,0,0,1-.353-1.254l1.1-.943a.717.717,0,0,1,1.183.546V486.537a.718.718,0,0,1-1.183.546l-1.1-.943a.717.717,0,0,1,.353-1.254l122.542-19.451a.717.717,0,0,1,.658,1.174h0a.717.717,0,0,1-1.263-.467l.181-100.511c.011-4.268-.074-8.5,0-12.787s.261-8.638.382-12.964l.8-26.068Z"/><path class="u" d="M147.864,439.74a4.476,4.476,0,0,1,.482,2.873,2.626,2.626,0,0,1-1.509,2.1q-.891.4-5.432-.125t-5.058-1.375a4.89,4.89,0,0,1-.375-1.1,4.786,4.786,0,0,0-.346-1.048l-12.174-23.1q-.667-1.265-3.38-.539-3.041.76-4.025-.2a3.876,3.876,0,0,1-.824-1.042,5.871,5.871,0,0,1-.323-3.484,35.256,35.256,0,0,0,.4-3.873.661.661,0,0,0-.015-.133l-.955-4.9a3.671,3.671,0,0,1,1.9-4.094,9.9,9.9,0,0,1,5.384-1.01q3.426.234,4.5,2.268l19.219,36.466a3.31,3.31,0,0,0,1.25,1.133A3.366,3.366,0,0,1,147.864,439.74Z"/><path class="u" d="M174.469,417.964a6.2,6.2,0,0,1-2.642,3.052,3.639,3.639,0,0,1-3.571.238q-1.212-.6-4.663-5.91t-3-6.617a6.789,6.789,0,0,1,.847-1.373,6.646,6.646,0,0,0,.813-1.3l13.921-33.4q.762-1.827-2.409-4.084-3.5-2.577-3.343-4.473a5.385,5.385,0,0,1,.385-1.8,8.138,8.138,0,0,1,3.436-3.421,48.224,48.224,0,0,0,4.512-3.006.811.811,0,0,0,.091-.094l4.409-5.371q2.781-2.946,6.051-1.584a13.714,13.714,0,0,1,5.832,4.858q2.775,3.864,1.549,6.8l-21.975,52.721a4.593,4.593,0,0,0-.106,2.336A4.672,4.672,0,0,1,174.469,417.964Z"/><path class="u" d="M181.391,283.485q1.761.914,1.933,4.76a30.229,30.229,0,0,1-1.183,8.515,43.05,43.05,0,0,1-4.548,10.9q-4.36,7.392-8.678,6.254a5.532,5.532,0,0,1-1.591-.787q-1.443-1.035-1.586-1.114-.921-.693-3.069-2.157-1.74-1.154-1.7-6.252a42.674,42.674,0,0,1,1.543-10.506,35.767,35.767,0,0,1,3.744-9.393q2.487-4.167,5.2-4.391a1.33,1.33,0,0,1,.316.042,1.384,1.384,0,0,1,.589.4c.214.22.391.321.533.3a7.227,7.227,0,0,1,2.393.222,12.437,12.437,0,0,1,3.136,1.44Q181.066,283.318,181.391,283.485Zm-5.46,1.176q-1.835-.483-3.954,3.372a34.756,34.756,0,0,0-2.847,7.545,40.416,40.416,0,0,0-1.192,7.778q-.266,4.263.5,4.464,1.489.393,3.675-4.018a52.193,52.193,0,0,0,3.32-9.341,38.7,38.7,0,0,0,1.254-6.617Q176.885,284.913,175.931,284.661Z"/><path class="u" d="M129.324,314.53q2.724.215,5.008,4.995a41.638,41.638,0,0,1,3.076,11.428,59.313,59.313,0,0,1,.09,16.257q-1.556,11.712-7.639,12.588a7.529,7.529,0,0,1-2.439-.143q-2.386-.535-2.609-.558-1.539-.384-5.048-1.086-2.826-.526-5.518-7.01a58.672,58.672,0,0,1-3.687-14.143,49.307,49.307,0,0,1-.3-13.918q.915-6.615,4.236-8.36a1.835,1.835,0,0,1,.423-.116,1.9,1.9,0,0,1,.962.191q.585.246.839.1a9.955,9.955,0,0,1,3.153-1,17.152,17.152,0,0,1,4.747.14Q128.824,314.493,129.324,314.53Zm-6.287,4.424q-2.584.373-3.2,6.4a47.824,47.824,0,0,0,.445,11.093,55.617,55.617,0,0,0,2.667,10.5q1.955,5.544,3.031,5.389,2.1-.3,2.5-7.066a71.867,71.867,0,0,0-.81-13.624,53.35,53.35,0,0,0-1.966-9.061Q124.383,318.762,123.037,318.954Z"/><path class="v" d="M1184.151,256.345v207l51,8.1,16,2.53,59,9.37v-247l-59,9.37-16,2.53Z"/><rect class="a" width="1366" height="756.24" transform="translate(1.753 1.187)"/><path class="w" d="M590.182,522.362h0a.738.738,0,0,1-.436-.944l.6-1.625,1.379.508-.6,1.625A.739.739,0,0,1,590.182,522.362Z"/><path class="w" d="M597.872,525.193h0a.736.736,0,0,1-.436-.944l.6-1.624c.04-.11,1.374.523,1.374.523l-.593,1.609A.736.736,0,0,1,597.872,525.193Z"/><path class="x" d="M590.034,522.043h0a.737.737,0,0,1-.436-.944l.655-1.778a.736.736,0,0,1,.944-.436h0a.737.737,0,0,1,.435.944l-.655,1.778A.736.736,0,0,1,590.034,522.043Z"/><path class="x" d="M597.708,524.869h0a.736.736,0,0,1-.436-.944l.655-1.778a.737.737,0,0,1,.944-.436h0a.739.739,0,0,1,.436.944l-.655,1.778A.737.737,0,0,1,597.708,524.869Z"/><rect class="y" width="3.126" height="4.821" transform="translate(587.103 541.947) rotate(-69.783)"/><rect class="y" width="3.126" height="4.821" transform="translate(589.164 536.778) rotate(-69.783)"/><path class="z" d="M810.04,636.559H565.162c-2.719,0-5.591-1.371-5.882-5.364v-3.67l26.8-49.53a8.532,8.532,0,0,1,7.642-4.737H781.119c3.5,0,11.208,6.887,12.771,10.015L816,628.352v1.619C816.057,634.666,813.022,636.559,810.04,636.559Z"/><path class="aa" d="M810.062,631.374H565.184c-2.719,0-7.2-2.384-5.514-5.316l26.436-53.248a8.532,8.532,0,0,1,7.642-4.737H781.141a9.23,9.23,0,0,1,8.257,5.1l26.169,52.366C817.4,628.881,813.044,631.374,810.062,631.374Z"/><rect class="aa" width="200.536" height="126.718" rx="7.332" transform="translate(586.067 441.262)"/><rect class="e" width="185.066" height="109.802" transform="translate(593.766 448.174)"/><path class="z" d="M723.117,629.07H650.963a1.3,1.3,0,0,1-1.285-1.506l3.043-19.006a2.113,2.113,0,0,1,2.086-1.779h65.081a1.857,1.857,0,0,1,1.838,1.589l2.789,19.113A1.409,1.409,0,0,1,723.117,629.07Z"/><path class="ab" d="M784.632,602.858H588.583c-2.176,0-3.835-.836-3.491-1.759l8.267-22.187c.446-1.2,2.849-2.078,5.67-2.078H775.858c2.505,0,4.631.79,4.993,1.856L788.429,601C788.725,601.986,786.941,602.858,784.632,602.858Z"/><rect class="aa" width="204.447" height="1.033" transform="translate(584.531 580.658)"/><rect class="aa" width="204.447" height="1.033" transform="translate(584.531 585.821)"/><rect class="aa" width="204.447" height="1.033" transform="translate(584.531 592.016)"/><rect class="aa" width="204.447" height="1.033" transform="translate(584.531 597.695)"/><rect class="aa" width="1.549" height="34.074" transform="translate(609.291 572.432) rotate(17.439)"/><rect class="aa" width="1.549" height="34.074" transform="translate(624.263 572.432) rotate(17.439)"/><rect class="aa" width="1.549" height="34.074" transform="translate(636.137 572.432) rotate(17.439)"/><rect class="aa" width="1.549" height="34.074" transform="translate(648.012 572.432) rotate(17.439)"/><rect class="aa" width="1.549" height="34.074" transform="translate(660.402 572.432) rotate(17.439)"/><rect class="aa" width="1.549" height="34.074" transform="translate(672.975 572.045) rotate(10.978)"/><rect class="aa" width="1.549" height="34.074" transform="translate(683.656 571.881)"/><rect class="aa" width="1.549" height="34.074" transform="translate(763.772 572.896) rotate(-17.439)"/><rect class="aa" width="1.549" height="34.074" transform="translate(749.316 572.896) rotate(-17.439)"/><rect class="aa" width="1.549" height="34.074" transform="translate(734.86 572.896) rotate(-17.439)"/><rect class="aa" width="1.549" height="34.074" transform="translate(720.405 572.896) rotate(-17.439)"/><rect class="aa" width="1.549" height="34.074" transform="translate(705.949 572.896) rotate(-17.439)"/><rect class="aa" width="1.549" height="34.074" transform="translate(691.493 572.896) rotate(-17.439)"/><path class="i" d="M741.912,510.068H626.95a8.256,8.256,0,1,1,0-16.512H741.912a8.256,8.256,0,1,1,0,16.512ZM626.95,494.3a7.515,7.515,0,1,0,0,15.03H741.912a7.515,7.515,0,0,0,0-15.03Z"/><path class="i" d="M741.912,493.926H728.679V509.7h13.233a7.885,7.885,0,0,0,7.885-7.885h0A7.886,7.886,0,0,0,741.912,493.926Z"/><path class="e" d="M744.216,505.616l-2.611-2.61a4.124,4.124,0,1,0-1.393,1.181l2.716,2.717a.911.911,0,0,0,1.288-1.288Zm-2.951-5.063a2.944,2.944,0,1,1-2.943-2.943A2.946,2.946,0,0,1,741.265,500.553Z"/><path class="ac" d="M660.043,505.206h-32.9a3.4,3.4,0,0,1-3.394-3.394h0a3.394,3.394,0,0,1,3.394-3.394h32.9a3.394,3.394,0,0,1,3.394,3.394h0A3.4,3.4,0,0,1,660.043,505.206Z"/><g class="ad"><g class="ae"><path class="af" d="M1243.807,366.8c-2.137,1.976-7.252,1.17-9.642,1.94-1.852,3.836-3.094,8.718-2.832,12.461a20.883,20.883,0,0,0,7.4,14.507,11.331,11.331,0,0,0,6.415,2.672c6.694.367,12.323-6.826,12.627-16.823a15.7,15.7,0,0,0-.118-2.458,30.084,30.084,0,0,1-4.269-6.641,9.647,9.647,0,0,1-1.4.023,10.5,10.5,0,0,1-4.324-1.2c3.025,3.067,4.066,9.431,2.3,14.837-1.417,4.33-4.245,6.814-7.072,6.659a5.084,5.084,0,0,1-2.831-1.107c-3.562-2.731-4.914-9.66-3.011-15.464,1.421-4.336,4.248-6.821,7.074-6.666a4.723,4.723,0,0,1,1.681.415,7.3,7.3,0,0,1-2-3.158m-2.512-4.6a3.559,3.559,0,0,0-2.421.653c-.088.043-.175.091-.263.142,1.115.212,2.381.716,3.573.918a14.046,14.046,0,0,1-.595-1.689q-.148-.017-.294-.024"/><path class="af" d="M1250.6,365.514a4,4,0,0,1-2.216-.878c-2.464-1.889-3.549-6.213-2.422-9.657.8-2.439,2.494-3.781,4.29-3.682a3.984,3.984,0,0,1,2.215.879c2.465,1.9,3.55,6.219,2.422,9.655-.795,2.44-2.491,3.781-4.289,3.683m1.085-20.959c-.011.154-.021.289-.03.4-.2,2.532-1.538,2.764-3.5,2.774a1.81,1.81,0,0,1,.144-.316,7.326,7.326,0,0,1-.618-2.593,7.157,7.157,0,0,0-1.2.554c.12,1.046.23,2.092.31,3.14a5.071,5.071,0,0,1-.461.777c.331.218.656.413.975.582,0,2.5-1.041,3.264-2.36,3.192a7.392,7.392,0,0,1-3.318-1.328,13.667,13.667,0,0,0-.543,2.313l.142.01a3.287,3.287,0,0,0,1.622-.285c.968,3.6-.189,5.182-1.844,5.388a18.683,18.683,0,0,0,.588,3.054,14.046,14.046,0,0,0,.595,1.689,6.151,6.151,0,0,0,.676.078,2.959,2.959,0,0,0,1.857-.434,3.463,3.463,0,0,1-.91,3.245,7.3,7.3,0,0,0,2,3.158,5.727,5.727,0,0,1,1.148.692,7.072,7.072,0,0,1,.715.634,10.5,10.5,0,0,0,4.324,1.2,9.647,9.647,0,0,0,1.4-.023,4.357,4.357,0,0,1,.2-4.269,8.56,8.56,0,0,0,2.631,3.429,4.232,4.232,0,0,0,.851-.656,7.958,7.958,0,0,0,1.477-2.161c-1.541-1.815-2.177-4.493.106-6.618a7.483,7.483,0,0,0,1.2,1.827,24,24,0,0,0,.175-2.421c-2.317-1.1-5.107-3.446-3.531-6.9a10.792,10.792,0,0,0,.988.485,8.622,8.622,0,0,1-.086-1.077c.388-.663.794-1.3,1.206-1.932-.206-.6-.435-1.18-.684-1.734a3.182,3.182,0,0,1-1.336,1.3,2.706,2.706,0,0,1,0,.4c-1.571-1.941-2.555-3.427-1.8-5.655.035-.1.078-.229.129-.373a6.292,6.292,0,0,0-2.9-1.492q-.163-.033-.324-.06"/><path class="af" d="M1241.326,321.309a1.118,1.118,0,0,0-.493.093c-.349,2.548.753,4.048,1.563,6.213.934,2.493.61,3.383.212,6.029a48.2,48.2,0,0,0-.382,9.275,17.163,17.163,0,0,0,.781,3.685,26.9,26.9,0,0,0,3.32,2.687,5.071,5.071,0,0,0,.461-.777c-.08-1.048-.19-2.094-.31-3.14a87.042,87.042,0,0,1-.8-8.987c-.03-2.239.683-4.344.629-6.53-.07-2.665-1.108-2.918-2.409-4.7-.891-1.227-1.334-3.778-2.575-3.846"/><path class="af" d="M1243.585,351.138c-.447-.025-1.162-1.022-1.819-1.366-.963-.5-2.241-2.189-3.557-4.037s-2.622-.324-4.243-3.567c-.613-1.226-.316-1.536.166-1.51a2.8,2.8,0,0,1,1.044.356,49.953,49.953,0,0,1,5.085,5.4c1.358,1.616,3.932,2.078,3.746,3.938-.058.6-.21.8-.422.789m-23.719-36.756c-.541-.03-.307,1.182.114,2.542.78,2.531,1.312,5,2.037,7.545,1.727,6.05,4.166,11.309,7.817,15.43,3.264,3.685,6.8,6.829,10.083,10.445a9.651,9.651,0,0,0,1.707,1.393,7.392,7.392,0,0,0,3.318,1.328c1.319.072,2.362-.69,2.36-3.192-.319-.169-.644-.364-.975-.582a26.9,26.9,0,0,1-3.32-2.687c-2.114-1.955-4.235-4.261-6.024-6.015-1.977-1.939-3.923-4.12-5.811-5.961-2.654-2.6-3.709-5.164-5.515-9.145-1.185-2.608-2.708-8.4-4.6-10.268-.576-.572-.958-.82-1.193-.833"/><path class="af" d="M1241.513,358.278a12.922,12.922,0,0,1-3.192-1.183c-1.538-.648-1.911-1.161-3.678-2.714s-2.6-1.206-3-2.05c-.416-.869-.361-1.183-.034-1.165.706.039,2.684,1.631,3.921,2.529,1.8,1.319,3.254,1.477,5.233,1.844s1.883,1.551,1.453,2.42a.667.667,0,0,1-.707.319m-36.32-35.735c-.272-.015-.5.13-.66.5-1.171,2.667,4.149,7.388,5.4,8.7,3.121,3.293,5.154,6.042,8.125,9.656a86.907,86.907,0,0,0,8.879,9.1,83.017,83.017,0,0,0,11.378,8,4.769,4.769,0,0,0,2.108.679,3.342,3.342,0,0,0,.577-.019c1.655-.206,2.812-1.787,1.844-5.388a3.287,3.287,0,0,1-1.622.285l-.142-.01c-2.33-.2-5.172-2.109-7.229-2.991-3.459-1.481-6.111-4.85-9.078-7.775-2.943-2.9-6.053-4.895-8.762-8.291-2.1-2.635-4.249-5.28-6.459-7.82-.881-1.014-3.1-4.561-4.36-4.63"/><path class="af" d="M1226.407,377.874c-.864-.047,2.042-6.14,2.042-6.14s1.911-5.083,4.052-6.108,1.681-.894,4.168-.906h.042c.929.051.678,1.826.07,2.032a26.869,26.869,0,0,0-4.374,1.387c-1.177.663-2.922,3.494-3.393,5.44s-1.667,4.267-2.589,4.3h-.018m10.777-15.035A8.512,8.512,0,0,0,1231.86,364c-2.93,1.944-3.761,6.124-5.468,9.661-1.163,2.417-2.562,5.384-4.144,7.159-1.341,1.507-3.055,1.89-4.764,2.485a24.863,24.863,0,0,0-7.764,4.895c-1.781,1.5-3.349,3.314-5.018,5.022-1.159,1.181-3.736,2.682-4.229,4.721-.3,1.259-.327,2.134.661,2.994a1.334,1.334,0,0,0,.792.376c1.127.062,1.861-2.026,2.714-2.977a38.682,38.682,0,0,1,12.793-9.118c3.06-1.412,7.744-1.734,9.654-5.636.924-1.9.9-4.372,1.789-6.365,1.063-2.406,2.761-6.508,4.429-8.028a2.335,2.335,0,0,1,.86-.456c2.39-.77,7.505.036,9.642-1.94a3.463,3.463,0,0,0,.91-3.245,2.959,2.959,0,0,1-1.857.434,6.151,6.151,0,0,1-.676-.078c-1.192-.2-2.458-.706-3.573-.918-.167-.032-.331-.057-.49-.074-.311-.032-.624-.058-.937-.075"/><path class="af" d="M1250.2,341.1a.858.858,0,0,1-.482-.192,1.993,1.993,0,0,1-.528-2.094.99.99,0,0,1,.93-.8.87.87,0,0,1,.483.192,2.015,2.015,0,0,1,.528,2.094c-.176.533-.542.825-.931.8m-.1-4.08c-1.719-.1-2.7,4.417-2.416,7.8a7.326,7.326,0,0,0,.618,2.593,1.81,1.81,0,0,0-.144.316c1.964-.01,3.3-.242,3.5-2.774.009-.111.019-.246.03-.4.118-1.731.3-5.921-.3-6.673a1.928,1.928,0,0,0-1.291-.858"/><path class="af" d="M1270.9,337.2c-.853-.047-1.8.9-2.679.984a6.223,6.223,0,0,1-.99.009l-.2-.012-.22-.013c-.885-.049-1.54.011-2.239,1.428-.841,1.7-1.036,4.09-1.873,5.86a54.386,54.386,0,0,1-4.1,6.705c-.412.63-.818,1.269-1.206,1.932a8.622,8.622,0,0,0,.086,1.077,18.947,18.947,0,0,0,3.637,1.1,8.388,8.388,0,0,0,1.974-2.189,35.69,35.69,0,0,0,3.066-7.821c.645-2.508.711-3.537,2.37-4.627,1.434-.939,2.862-1.072,3.514-3.454-.347-.7-.736-.953-1.148-.975"/><path class="af" d="M1265.122,361.22c-.819-.045-1.57-.1-2.165-.174a28.924,28.924,0,0,1-4.366-.866s-2.313-2.17.386-3.273l.033-.015s-1.54.739,3.751,1.631c5.707.963,7.645.983,9.505,1.414s1.215,1.444-.282,1.448c-1.136,0-4.321-.025-6.862-.165m24.818-8.665c-2.193-.121-5.369,2.856-7.208,3.754-2.544,1.255-4.226,2.2-6.681,2.067a10.009,10.009,0,0,1-1.074-.121c-2.18-.371-4.537-.531-6.834-.916-2.073-.339-4.615-.566-7.023-1.069a18.947,18.947,0,0,1-3.637-1.1,10.792,10.792,0,0,1-.988-.485c-1.576,3.449,1.214,5.8,3.531,6.9a7.27,7.27,0,0,0,2.215.7c3.952.319,7.932,1.258,11.891,1.5l.075.005c4.4.241,8.244-1.586,11.815-4.728,1.507-1.333,2.834-2.786,4.383-4.055,1.192-.975,1.965-2.083-.246-2.431a1.982,1.982,0,0,0-.219-.023"/><path class="af" d="M1270.523,372.565a12.811,12.811,0,0,1-3.746-.918c-3.361-1.319-5.184-1.177-6.227-2.126s-2.26-3.129-1.3-3.483a.92.92,0,0,1,.365-.058c1.057.058,1.752,2.068,2.668,2.681,1.017.69,6.826,2.386,8.664,3.215,1.015.462.662.748-.424.689m-11.877-10.387c-2.283,2.125-1.647,4.8-.106,6.618a6.541,6.541,0,0,0,2.02,1.61,66.43,66.43,0,0,0,12.036,4.722,51.144,51.144,0,0,0,8.984,1.34c.513.029,1,.044,1.454.047,2.9.011,5.151-.119,7.773.025.718.04,1.464.1,2.26.189.615.069,2,.355,3.416.433,2,.11,4.065-.2,4.086-2.126.01-1.291-1.073-1.671-2.314-1.739-1.211-.067-2.573.164-3.217.136-2.7-.125-5.381-.107-8.032-.049q-.467.009-.928-.017c-3.068-.168-6.01-1.407-9.123-1.912-3.442-.557-6.8-.452-10.107-2.645-2.008-1.332-5.061-2.606-7-4.8a7.483,7.483,0,0,1-1.2-1.827"/><path class="af" d="M1262.6,395.411c-.053,0-.095-.07-.123-.212-.24-1.226.332-4.442.1-8.6s-1.381-4.129-1.916-5.457-2.753-3.673-2.484-5.254c.051-.3.176-.423.351-.413.581.032,1.714,1.529,2.514,3a21.95,21.95,0,0,1,1.6,4.149,26.96,26.96,0,0,1,1.308,7.138c.049,1.941-.954,5.669-1.356,5.647m-9.022-27.227a4.357,4.357,0,0,0-.2,4.269,30.084,30.084,0,0,0,4.269,6.641c1.414,1.852,2.683,3.537,3.029,4.793.787,2.853.65,7.806.631,10.779-.019,2.464-.934,4.432-.882,6.861.11,5,3.756,9.846,5.687,13.967a92.36,92.36,0,0,1,6.954,19.842c.408,1.94.064,5.067,1.864,5.517a1.846,1.846,0,0,0,.354.058c.816.045,1.076-.657,1.263-1.808.345-2.117-1.175-5.847-1.675-7.932-.717-3-1.318-6-2.193-8.94a60.262,60.262,0,0,0-4.451-11.528,24.476,24.476,0,0,1-2.918-6.662,56.26,56.26,0,0,1-.715-9.79c-.078-4.519.771-8.682-.872-13.115a21.082,21.082,0,0,0-4.622-7c-.825-.881-1.9-1.656-2.9-2.524a8.56,8.56,0,0,1-2.631-3.429"/><path class="af" d="M1257.742,345.682a.872.872,0,0,1-.483-.192,2.017,2.017,0,0,1-.528-2.1.994.994,0,0,1,.931-.8.868.868,0,0,1,.482.192,2,2,0,0,1,.528,2.1.99.99,0,0,1-.93.8m-.022-4.609q-.07,0-.144,0c-.758.009-2.125,3.513-2.665,5.037-.051.144-.094.27-.129.373-.756,2.228.228,3.714,1.8,5.655a2.706,2.706,0,0,0,0-.4,3.182,3.182,0,0,0,1.336-1.3c1.833-2.866,2.809-9.192-.2-9.358"/><path class="ag" d="M1244.123,369.538c-2.826-.155-5.653,2.33-7.074,6.666-1.9,5.8-.551,12.733,3.011,15.464a5.084,5.084,0,0,0,2.831,1.107c2.827.155,5.655-2.329,7.072-6.659,1.77-5.406.729-11.77-2.3-14.837a7.072,7.072,0,0,0-.715-.634,5.727,5.727,0,0,0-1.148-.692,4.723,4.723,0,0,0-1.681-.415"/><path class="ag" d="M1250.256,351.3c-1.8-.1-3.491,1.243-4.29,3.682-1.127,3.444-.042,7.768,2.422,9.657a4,4,0,0,0,2.216.878c1.8.1,3.494-1.243,4.289-3.683,1.128-3.436.043-7.76-2.422-9.655a3.984,3.984,0,0,0-2.215-.879"/><path class="ah" d="M1250.118,338.015a.99.99,0,0,0-.93.8,1.993,1.993,0,0,0,.528,2.094.858.858,0,0,0,.482.192c.389.022.755-.27.931-.8a2.015,2.015,0,0,0-.528-2.094.87.87,0,0,0-.483-.192"/><path class="ah" d="M1257.662,342.592a.994.994,0,0,0-.931.8,2.017,2.017,0,0,0,.528,2.1.872.872,0,0,0,.483.192.99.99,0,0,0,.93-.8,2,2,0,0,0-.528-2.1.868.868,0,0,0-.482-.192"/><path d="M1259.01,356.892l-.033.015c-2.7,1.1-.386,3.273-.386,3.273a28.924,28.924,0,0,0,4.366.866c.595.072,1.346.129,2.165.174,2.541.14,5.726.161,6.862.165,1.5,0,2.136-1.025.282-1.448s-3.8-.451-9.505-1.414c-5.291-.892-3.751-1.631-3.751-1.631"/><path d="M1259.615,365.98a.92.92,0,0,0-.365.058c-.96.354.257,2.533,1.3,3.483s2.866.807,6.227,2.126a12.811,12.811,0,0,0,3.746.918c1.086.059,1.439-.227.424-.689-1.838-.829-7.647-2.525-8.664-3.215-.916-.613-1.611-2.623-2.668-2.681"/><path d="M1258.533,375.473c-.175-.01-.3.114-.351.413-.269,1.581,1.948,3.925,2.484,5.254s1.686,1.3,1.916,5.457-.342,7.376-.1,8.6c.028.142.07.209.123.212.4.022,1.405-3.706,1.356-5.647a26.96,26.96,0,0,0-1.308-7.138,21.95,21.95,0,0,0-1.6-4.149c-.8-1.475-1.933-2.972-2.514-3"/><path d="M1236.711,364.721h-.042c-2.487.012-2.032-.112-4.168.906s-4.052,6.108-4.052,6.108-2.906,6.093-2.042,6.14h.018c.922-.028,2.118-2.341,2.589-4.3s2.216-4.777,3.393-5.44a26.869,26.869,0,0,1,4.374-1.387c.608-.206.859-1.981-.07-2.032"/><path d="M1231.613,351.166c-.327-.018-.382.3.034,1.165.4.844,1.229.49,3,2.05s2.14,2.066,3.678,2.714a12.922,12.922,0,0,0,3.192,1.183.667.667,0,0,0,.707-.319c.43-.869.525-2.061-1.453-2.42s-3.429-.525-5.233-1.844c-1.237-.9-3.215-2.49-3.921-2.529"/><path d="M1234.132,340.658c-.482-.026-.779.284-.166,1.51,1.621,3.243,2.927,1.711,4.243,3.567s2.594,3.538,3.557,4.037c.657.344,1.372,1.341,1.819,1.366.212.011.364-.194.422-.789.186-1.86-2.388-2.322-3.746-3.938a49.953,49.953,0,0,0-5.085-5.4,2.8,2.8,0,0,0-1.044-.356"/></g></g><rect class="ai" width="209.28" height="103.154" transform="translate(401.98 296.82)"/><g class="aj"><g class="ak"><path class="al" d="M533.568,376.062v-.028h-2.147v-.029H529.5v-.029h-1.746v-.028h-1.6v-.029h-1.46v-.028H523.32v-.029H522v-.029h-1.2V375.8h-1.116v-.029h-1.06v-.029h-1v-.028h-.944v-.029h-.888v-.028h-.83v-.029h-.8V375.6h-.745v-.028H512.7v-.029h-.659v-.029h-.629v-.028h-.573v-.029h-.572v-.028h-.487V375.4h-.487v-.029h-.458v-.028h-.429v-.029h-.372v-.029h-.372v-.028h-.315v-.029h-.315V375.2h-.172v-.029h-.2v-.029h-.2v-.028h-.229v-.029H506v-.029h-.229v-.028h-.229V375h-.257v-.028h-.2v-.029h-.2v-.029h-.229v-.028h-.172v-.029h-.172v-.029h-.171V374.8h-.172v-.029h-.143v-.028h-.143v-.029h-.144v-.029H503.4v-.028h-.114v-.029h-.115V374.6h-.114v-.028h-.143v-.029H502.8v-.029h-.086v-.028H502.6v-.029h-.086v-.028h-.115V374.4h-.086v-.029h-.114v-.028h-.086v-.029h-.086v-.029h-.086v-.028h-.086v-.029h-.085V374.2h-.086v-.029h-.058v-.029h-.085v-.028h-.086v-.029h-.058v-.029h-.085v-.028h-.058V374h-.086v-.028h-.057v-.029h-.057v-.029h-.086v-.028h-.057v-.029h-.086v-.029h-.057V373.8H500.7v-.029h-.057v-.028h-.057v-.029h-.057v-.029h-.058v-.028h-.057v-.029h-.057V373.6H500.3v-.028h-.058v-.029h-.057v-.028h-.057v-.029H500.1v-.029h-.057v-.028h-.057V373.4h-.058v-.029H499.9v-.028h-.057v-.029h-.058v-.028h-.057v-.029H499.7v-.029h-.057V373.2h-.057v-.029h-.029v-.029H499.5v-.028h-.029v-.029h-.057v-.028h-.028v-.029h-.058V373H499.3v-.028h-.058v-.029h-.028v-.029h-.057v-.028h-.029v-.029h-.057v-.028h-.029V372.8h-.029v-.029h-.057v-.028h-.028v-.029h-.058v-.029h-.028v-.028h-.029v-.029h-.057V372.6h-.029v-.029H498.7v-.029h-.029v-.028h-.029v-.029h-.057v-.029h-.029v-.028h-.028V372.4H498.5v-.028h-.057v-.029h-.029v-.029h-.028v-.028h-.029v-.029H498.3v-.029h-.029V372.2h-.028v-.029h-.029v-.028h-.029v-.029h-.028v-.029h-.029v-.028H498.1v-.029h-.028V372h-.029v-.028h-.028v-.029h-.029v-.028h-.029v-.029h-.028v-.029h-.058v-.028h-.028V371.8h-.029v-.029h-.028v-.028h-.029v-.029h-.029v-.029H497.7v-.028h-.029v-.029h-.029V371.6h-.028v-.029h-.029v-.029h-.029v-.028h-.028v-.058H497.5v-.028h-.028V371.4h-.029v-.028h-.029v-.029h-.028v-.029h-.029v-.028h-.029v-.058H497.3V371.2h-.029v-.029h-.028v-.028h-.029v-.029h-.029v-.029h-.028v-.028h-.029v-.058H497.1v-.028h-.028v-.057h-.029v-.029h-.028v-.029h-.029V370.8h-.029v-.029h-.028v-.057H496.9v-.028h-.029v-.029h-.028V370.6h-.029v-.029h-.028v-.029h-.029v-.057h-.029v-.028H496.7v-.058h-.029v-.057h-.029v-.029h-.028v-.057h-.029v-.057h-.028v-.029h-.029v-.057H496.5v-.057h-.028v-.029h-.029v-.057h-.029v-.057h-.028v-.029h-.029v-.057h-.028v-.057H496.3v-.058h-.029v-.057h-.028v-.057h-.029v-.057h-.029v-.058h-.028v-.057h-.029v-.057H496.1v-.029h-.029v-.057h-.029v-.057h-.028v-.058h-.029v-.085h-.029v-.058h-.028v-.057H495.9v-.057h-.028v-.086h-.029v-.057h-.029V368.7h-.028v-.057h-.029v-.057h-.029v-.086H495.7v-.057h-.029v-.086h-.028V368.3h-.029v-.086h-.029v-.058h-.028v-.085h-.029v-.058h-.029v-.086h-.028v-.057h-.029v-.086h-.028V367.7h-.029v-.085h-.029v-.058h-.028v-.086H495.3v-.085h-.029V367.3h-.028v-.086h-.029v-.086h-.028v-.086h-.029v-.086h-.029v-.086H495.1v-.086h-.029V366.7h-.029v-.115h-.028V366.5h-.029v-.086h-.028V366.3h-.029v-.086h-.029V366.1h-.028v-.085h-.029V365.9h-.029v-.086h-.028V365.7h-.029v-.115h-.029v-.114h-.028v-.115h-.029v-.114h-.028v-.115h-.029v-.114h-.029V364.9h-.028v-.143h-.029v-.115h-.029V364.5h-.028v-.114h-.029v-.143h-.028V364.1h-.029v-.144h-.029v-.143h-.028v-.171h-.029v-.144h-.029v-.171h-.028v-.2h-.029v-.229h-.028v-.257h-.029v-.258h-.029v-.258h-.028v-.257h-.029v-.287h-.029v-.257h-.028v-.315h-.029v-.286h-.028v-.287h-.029v-.314h-.029V359.8h-.028v-.315h-.029v-.344h-.029V358.8h-.028v-.344h-.029v-.372h-.028v-.372h-.029v-.4h-.029v-.4h-.028v-.429h-.029v-.458h-.029v-.458h-.028v-.515h-.029v-.516h-.028v-.629h-.029v-.659h-.029v-.83h-.028v-1.059h-.029V340.881h.029v-1.059h.028v-.831h.029v-.658h.029v-.6h.028v-.544h.029v-.515h.028v-.458h.029v-.458h.029v-.43h.028v-.4h.029v-.4h.029v-.372h.028v-.344h.029v-.372h.028v-.344h.029v-.315h.029v-.343h.028v-.315h.029v-.286h.029v-.315h.028v-.286h.029v-.287h.028v-.286h.029v-.286h.029v-.258h.028v-.257h.029V329.6h.029v-.258h.028v-.229h.029v-.2h.028v-.143h.029V328.6h.029v-.143h.028v-.172h.029v-.143h.029V328h.028v-.115h.029v-.143h.028V327.6h.029v-.114h.029v-.115h.028v-.143h.029v-.115h.029V327h.028v-.115h.029v-.114h.028v-.115h.029v-.114h.029v-.086h.028v-.114h.029v-.115h.029v-.086h.028v-.114h.029v-.086h.029v-.115h.028v-.086h.029v-.085h.028v-.086h.029v-.086h.029v-.115h.028v-.086h.029v-.085h.029v-.086h.028v-.086h.029v-.086h.028v-.086h.029v-.057h.029v-.086h.028v-.086h.029v-.086h.029v-.086h.028v-.057h.029v-.086h.028v-.057h.029v-.086h.029v-.086h.028v-.057h.029v-.086h.029v-.057h.028v-.086h.029v-.057h.028v-.058h.029v-.057h.029v-.086h.028v-.057h.029v-.057h.029v-.058h.028v-.085h.029v-.058h.028v-.057h.029V323.1h.029v-.057h.028v-.058h.029v-.057h.029v-.057h.028v-.057h.029v-.058h.028V322.7h.029v-.057h.029v-.057h.028v-.058h.029v-.057h.029v-.057h.028v-.029h.029v-.057h.028v-.057h.029v-.029h.029v-.057h.028v-.057h.029V322.1h.029v-.057h.028v-.058h.029v-.028h.028V321.9h.029v-.057h.029v-.028h.028v-.058h.029v-.028h.029v-.058h.028v-.028h.029v-.029h.028v-.057h.029v-.029h.029v-.057h.028v-.029h.029v-.028h.029v-.057h.028v-.029h.029v-.057h.028v-.029h.029v-.029h.029v-.057h.028v-.028h.029V321.1h.029v-.029h.028v-.028h.029v-.029h.028v-.029h.029v-.028h.029V320.9h.028v-.029h.029v-.029h.029v-.028h.028v-.029h.029v-.029h.028v-.028h.029v-.057h.029v-.029h.028v-.029h.029v-.028h.029v-.029h.057v-.029h.029V320.5h.028v-.029h.029v-.028h.028v-.029h.029v-.029h.029v-.028h.028v-.029h.029V320.3h.029v-.028h.028v-.029h.029v-.028h.028v-.029h.029v-.029h.029v-.028h.028V320.1h.029v-.029h.029v-.028h.028v-.029h.029v-.028h.057v-.029h.029v-.029h.028V319.9h.029v-.029h.029v-.029h.057v-.028h.028v-.029h.029v-.028h.029v-.029h.028V319.7h.029v-.028h.057v-.029h.029v-.029h.028v-.028h.029v-.029h.029v-.028h.057V319.5h.029v-.029h.028v-.028h.057v-.029h.029v-.029h.057v-.028h.029v-.029h.029V319.3h.057v-.029h.028v-.029h.029v-.028h.057v-.029h.029v-.029h.057v-.028h.029V319.1h.028v-.028h.058v-.029h.028v-.029h.058v-.028h.057v-.029h.028v-.029h.058V318.9h.028v-.029h.058v-.029h.057v-.028h.028v-.029h.058v-.028h.028v-.029h.058V318.7h.057v-.028h.057v-.029h.029v-.029h.057v-.028h.057v-.029h.057v-.028h.058v-.029h.057v-.029h.029v-.028h.057v-.029h.057v-.029h.057v-.028h.058v-.029h.057V318.3h.086v-.029h.057v-.029h.057v-.028h.058v-.029h.057v-.029h.057v-.028h.086v-.029h.057v-.028h.057v-.029h.086v-.029h.086v-.028h.057v-.029h.086v-.029h.058v-.028h.085v-.029h.058v-.028h.086v-.029h.114v-.029h.086v-.028h.086v-.029h.086v-.029h.086v-.028h.085v-.029h.115v-.028h.114v-.029h.086v-.029h.115v-.028h.114v-.029h.115v-.029h.143v-.028h.114v-.029h.144v-.028h.143v-.029h.172v-.029h.143v-.028h.2v-.029h.2v-.029h.2v-.028h.229v-.029h.257v-.028h.287v-.029h.286v-.029H506v-.028h.315v-.029h.4v-.029h.429v-.028h.43v-.029h.458v-.028h.458v-.029h.515v-.029h.487v-.028h.515v-.029h.544v-.029h.572v-.028h.6v-.029h.6v-.028h.658v-.029h.658v-.029h.687v-.028h.745v-.029h.773v-.029h.8v-.028h.859v-.029h.916v-.028h.973v-.029h1.059V316.4h1.117v-.028h1.2v-.029h1.346v-.029h1.488v-.028h1.718v-.029h2.032v-.028h2.691V316.2h8.159v.029h2.662v.028H544.9v.029h1.718v.028h1.488v.029h1.346v.029h1.231v.028H551.8v.029h1.031v.029h.973v.028h.916v.029h.859v.028h.83v.029h.744v.029h.745v.028h.715v.029h.659v.029h.629v.028h.63v.029h.573v.028h.572v.029h.544v.029h.515v.028h.516v.029h.486v.029h.458v.028h.458v.029h.458v.028h.4v.029h.43v.029h.314v.028h.258v.029h.315v.029h.258v.028h.257v.029h.229v.028h.229v.029h.172v.029h.2v.028h.144v.029h.171v.029h.172v.028h.115v.029h.143v.028h.114v.029h.143v.029h.086v.028h.115v.029h.114v.029h.115v.028h.086v.029h.114v.028h.086v.029h.086v.029h.086v.028h.086v.029h.085v.029h.086v.028h.086v.029h.057v.028h.086v.029h.058v.029h.085v.028h.058v.029h.086v.029h.085v.028h.058v.029h.057v.028h.057v.029h.058v.029h.085v.028h.058v.029h.057v.029h.057v.028h.057v.029h.058v.028h.057v.029h.057v.029h.057v.028h.058v.029h.057v.029h.029v.028h.057v.029h.057v.028h.057v.029h.058v.029h.057v.028h.028v.029h.058v.029h.057v.028h.029v.029h.057v.028h.028v.029h.058v.029h.057v.028h.029v.029h.057v.029h.028v.028h.058v.029h.028v.029h.058v.028h.028v.029h.057v.028h.029v.029h.057v.029h.029v.028h.029v.029h.057v.029h.028v.028h.029v.029h.057v.028h.029v.029h.057v.029h.029v.028h.028v.029h.058v.029h.028v.028h.029v.029h.029v.028h.057v.029h.028v.029h.029v.028h.029v.029h.028v.029h.058v.028h.028v.029h.029v.028h.028v.029h.029v.029h.029v.028h.057v.029h.029v.029h.028v.028h.029v.029h.029v.028h.028v.029h.029v.029h.028v.028h.058v.029h.028v.029h.029v.028h.029v.029h.028v.028h.029v.029h.028v.029h.029v.028h.029v.029h.028v.029h.029v.028h.029v.029h.028v.028h.029v.029h.028v.029h.029v.028h.029v.029h.028v.029h.029v.028h.029v.029h.028v.028h.029v.058h.028v.028h.029v.029h.029v.029h.028v.028h.029v.029h.029v.028h.028v.029h.029v.057h.028v.029h.029v.029h.029v.028h.028v.029h.029v.057h.029v.029h.028v.028h.029v.058h.028v.028h.029v.057h.029v.029h.028v.029h.029v.057h.029v.029h.028v.028h.029v.057h.028v.029h.029v.057h.029v.029h.028v.057h.029v.029h.029v.057h.028v.057h.029v.029h.028v.057h.029v.058h.029v.028h.028v.057h.029v.058h.029v.028h.028v.058h.029v.057h.028v.057h.029v.057h.029v.029h.028v.057h.029v.057h.029v.058h.028v.057h.029v.057h.028v.057h.029v.058h.029v.057h.028v.057h.029v.057h.029v.058h.028v.086h.029v.057h.028v.057h.029v.057h.029v.058h.028v.085h.029v.058h.029v.057h.028v.057h.029v.086h.028v.057h.029v.086h.029v.086h.028v.057h.029v.086h.029v.057h.028v.086h.029v.058h.028v.085h.029v.086h.029v.086h.028v.057h.029v.086h.029v.086h.028v.086h.029v.086h.029v.086h.028v.086h.029v.086h.028v.086h.029v.085h.029v.115h.028v.086h.029v.086h.029v.086h.028v.114h.029v.115h.028v.085h.029v.115h.029v.086h.028v.114h.029v.115h.029v.114h.028v.115h.029v.086h.028v.114h.029v.143h.029v.115h.028v.114h.029v.143h.029v.115h.028v.143h.029v.115h.028v.143h.029v.143h.029v.143h.028v.172h.029v.143h.029v.172H578v.171h.029v.229h.028v.229h.029v.258h.029V330h.028v.286h.029v.258h.029v.286h.028v.286h.029v.286h.028v.287h.029v.315h.029v.314h.028v.315h.029v.344h.029v.315h.028v.372h.029v.343h.028v.373h.029v.4h.029v.4h.028v.4h.029v.458h.029v.458h.028v.487h.029v.543h.028v.573h.029v.63h.029v.773h.028v.887h.029v11.479h-.029v.859H578.8v.773h-.029v.63h-.029v.6h-.028v.515h-.029v.515h-.028v.43h-.029v.458H578.6v.4h-.028v.4h-.029v.4h-.029v.372h-.028v.372h-.029v.344h-.028v.343H578.4v.315h-.029v.315h-.028v.315h-.029v.315h-.029v.286h-.028v.286h-.029v.315H578.2v.258h-.029v.286h-.029v.258h-.028v.257h-.029v.258h-.029v.258h-.028v.2H578v.172h-.028v.172h-.029v.171h-.029v.144h-.028v.143h-.029v.143h-.029v.143H577.8v.143h-.029v.115h-.028v.143h-.029v.114h-.029v.115h-.028v.143h-.029v.114h-.029v.115h-.028v.114h-.029v.115h-.028v.114h-.029v.115h-.029v.086h-.028v.114H577.4v.086h-.029v.115h-.028v.086h-.029v.114h-.028v.086h-.029v.086h-.029v.114H577.2v.086h-.029v.086h-.029v.086h-.028v.086h-.029v.114h-.028v.058h-.029v.085h-.029v.086h-.028v.086h-.029v.086h-.029v.086h-.028v.086h-.029v.057h-.029v.086h-.028v.086h-.029v.057h-.028v.086h-.029v.057h-.029v.086h-.028v.057h-.029v.086h-.029v.057h-.028v.086h-.029v.058h-.028v.057h-.029v.086h-.029v.057h-.028v.057h-.029v.057h-.029v.086h-.028v.058h-.029v.057h-.028v.057h-.029v.057h-.029v.058h-.028v.057h-.029v.057h-.029v.057h-.028v.058h-.029v.057h-.028v.057h-.029v.057h-.029v.058h-.028v.057h-.029v.057h-.029v.057h-.028v.029h-.029v.057h-.028v.058h-.029v.028h-.029v.057h-.028v.058h-.029v.028h-.029v.058h-.028v.057h-.029v.028h-.028v.058h-.029v.057h-.029v.029h-.028v.057h-.029v.028h-.029v.029h-.028v.057h-.029v.029h-.028v.057h-.029v.029H575.3v.028h-.028v.058h-.029v.028h-.029v.058h-.028v.028h-.029v.029h-.028v.057H575.1v.029h-.029v.028h-.028v.029h-.029v.057h-.029v.029h-.028v.028h-.029v.029h-.028v.029h-.029v.028h-.029v.029h-.028v.029h-.029v.057h-.029v.028h-.028v.029H574.7v.029h-.028v.028h-.029v.029h-.029v.029h-.028v.028h-.029v.029h-.029v.028H574.5v.029h-.029v.029h-.028v.028h-.029v.029h-.029v.029h-.028v.028h-.029v.029H574.3v.029h-.028v.028h-.029v.029h-.028V372h-.029v.029h-.029v.029h-.028v.028H574.1v.029h-.029v.029h-.028v.028h-.029v.029h-.057v.028h-.029v.029H573.9v.029h-.029v.028h-.029v.029h-.028v.029h-.058v.028h-.028v.029H573.7v.028h-.028v.029h-.029v.029h-.057v.028h-.029v.029h-.029v.029H573.5v.028h-.029v.029h-.028v.028h-.058v.029h-.028v.029h-.029v.028h-.057v.029h-.029v.029h-.028v.028h-.058v.029h-.028v.028h-.058v.029h-.028v.029h-.029V373h-.057v.029h-.029v.029H572.9v.028h-.058v.029h-.028v.028h-.029v.029h-.057v.029h-.057v.028h-.029v.029h-.057v.029h-.029v.028H572.5v.029h-.057v.028h-.029v.029h-.057v.029h-.029v.028h-.057v.029h-.057v.029h-.029v.028h-.057v.029h-.057v.028h-.029v.029h-.057v.029h-.058v.028h-.057v.029h-.057v.029h-.057v.028H571.7v.029h-.028v.028h-.057v.029h-.058v.029H571.5v.028h-.057v.029h-.086v.029H571.3V374h-.058v.029h-.057v.028h-.057v.029h-.057v.029h-.086v.028h-.058v.029h-.057v.029h-.086v.028h-.057v.029h-.086v.028h-.086v.029H570.5v.029h-.086v.028h-.057v.029h-.086v.029h-.086v.028h-.086v.029h-.086v.028h-.085v.029h-.115v.029h-.086v.028h-.086v.029h-.114v.029h-.115v.028h-.086v.029h-.114v.029h-.143v.028h-.115v.029h-.143v.028h-.114v.029h-.143v.029h-.172v.028h-.143v.029h-.2v.029h-.172V375h-.2v.029h-.229v.028h-.258v.029h-.286v.029H566.6v.028h-.286v.029h-.258v.029h-.4v.028h-.429v.029h-.43v.028h-.458v.029h-.458v.029H563.4v.028h-.487v.029H562.4v.029h-.544v.028h-.544v.029h-.572v.028h-.6v.029H559.5v.029h-.63v.028h-.687v.029h-.716v.029h-.744v.028h-.773v.029h-.8v.028h-.887v.029h-.916v.029h-.973v.028h-1.031v.029h-1.116v.029h-1.2v.028H547.71v.029h-1.46v.028h-1.632v.029H542.7v.029h-2.405v.028"/></g></g><g class="am"><path class="an" d="M488.969,364.646H483.53V361.5c-2.062,2.363-3.81,3.557-5.716,3.557a3.421,3.421,0,0,1-3.414-2.213,11.529,11.529,0,0,1-.6-4.207v-22.9h5.439v23.474c.127.8.468,1.1,1.159,1.1,1.041,0,1.984-.9,3.135-2.528V335.733h5.439v28.913"/><path class="an" d="M464.35,356.058c.286,2.863-.6,4.283-2.29,4.283s-2.576-1.42-2.29-4.283v-11.45c-.286-2.863.6-4.2,2.29-4.2s2.579,1.342,2.293,4.2Zm5.439-10.878c0-3.09-.621-5.41-1.718-6.87a7.214,7.214,0,0,0-6.011-2.787,6.854,6.854,0,0,0-6.012,2.787c-1.114,1.46-1.712,3.806-1.712,6.895l-.005,10.281c0,3.072.532,5.2,1.646,6.641a7.577,7.577,0,0,0,6.083,3.016,7.66,7.66,0,0,0,6.126-3.016c1.1-1.446,1.6-3.569,1.6-6.641V345.18"/><path class="an" d="M448.319,348.9v15.745h-5.725V348.9s-5.933-19.3-7.156-22.9h6.011l4.018,15.08,4-15.08h6.012l-7.157,22.9"/><path class="e" d="M561.393,343.737c0-2.675.734-3.4,2.464-3.4s2.4.8,2.4,3.441V346.9l-4.866.005Zm10.315,7.455V345.34c0-3.058-.6-5.294-1.685-6.741a7.254,7.254,0,0,0-6.117-2.994A7.423,7.423,0,0,0,557.7,338.6c-1.1,1.447-1.743,3.81-1.743,6.867v10.02a10.587,10.587,0,0,0,1.807,6.6,7.419,7.419,0,0,0,6.273,2.93,7.168,7.168,0,0,0,6.268-3.1,7.381,7.381,0,0,0,1.212-3.105,32.418,32.418,0,0,0,.184-3.371v-.811H566.26c0,2.079.009,3.315-.039,3.6a2.229,2.229,0,0,1-2.316,2.079c-1.778,0-2.53-1.33-2.512-3.972v-5.14h10.315"/><path class="e" d="M547.08,356.344c0,2.863-.675,3.96-2.169,3.96a3.99,3.99,0,0,1-2.7-1.306l.006-17.36a4.026,4.026,0,0,1,2.7-1.306c1.494,0,2.169.84,2.169,3.7Zm.6-20.784c-1.906,0-3.8,1.173-5.476,3.233l.006-12.506h-5.152v38.359h5.152l.008-2.882c1.731,2.142,3.619,3.251,5.462,3.251a4.25,4.25,0,0,0,4.263-3.232,22,22,0,0,0,.573-5.725v-11.45a20.089,20.089,0,0,0-.693-5.713c-.692-2.143-2.079-3.335-4.143-3.335"/><path class="e" d="M532.767,364.646h-5.439V361.5c-2.062,2.363-3.81,3.557-5.715,3.557a3.419,3.419,0,0,1-3.414-2.213,11.5,11.5,0,0,1-.6-4.207V336.02h5.439v23.187c.127.8.468,1.1,1.159,1.1,1.042,0,1.984-.9,3.135-2.528V336.02h5.439v28.626"/><path class="e" d="M512.156,364.646h-5.725v-32.92h-6.012v-5.433l18.035-.006v5.439h-6.3v32.92"/></g></g></svg>