<svg xmlns="http://www.w3.org/2000/svg" width="420.206" height="478.894" viewBox="0 0 420.206 478.894"><defs><style>.a{fill:#eadff1;}.b,.c{fill:#d8a35d;}.b{fill-rule:evenodd;}.d{fill:#d19442;}.e{fill:#947dce;}.f{fill:#ffc84f;}.g{opacity:0.15;}.h{fill:#62548a;}.i{opacity:0.3;}.j{opacity:0.5;}.k{fill:#999;}.l{fill:#ccc;}.m{fill:gray;}</style></defs><g transform="translate(-740.557 -366.737)"><g transform="translate(740.557 366.737)"><path class="a" d="M789.253,661.919c-8.073-10.77-13.063-22.876-16.466-35.7-10.263-39.042-11.183-78.385-29.378-113.828-9.556-19.679,6.412-43.457,25.59-44.678,64.637-4.326,137.665-19.151,175.644-78.7,10.751-14.719,25.725-21.119,41.89-22.13s33.525,3.367,49.047,10.2c13.855,6.705,27.993,10.527,42.341,16.615,50.468,21,47.76,86.4,22.012,129.374-6.644,11.478-8.758,24.248-10.845,36.757a166.989,166.989,0,0,0-2.493,30.843,150.724,150.724,0,0,0,27.823,85.828c4.421,9.55,6.972,19.884,4.632,31.213-8.405,38.725-41.2,73.767-79.354,79.5-28.692,4.511-50.112-10.522-68.877-30.776-6.256-6.751-12.215-14.083-18.051-21.464a141.789,141.789,0,0,0-16.436-22.688c-29.54-32.3-74.772-50.363-116.893-40.67C807.423,670.8,797.051,667.714,789.253,661.919Z" transform="translate(-740.557 -366.737)"/></g><g transform="translate(854.875 411.431)"><g transform="translate(0 239.046)"><g transform="translate(0 10.489)"><path class="b" d="M888.744,719.494s-5.919,2.6-8.348,7.041c-1.445,2.641-2.125,2.32-2.508,2.722-1.269,1.33,2.224.862,3.838-1.241,1.312-1.71,5-1.593,6.123-2.5s3.662-3.916,3.522-4.947S888.744,719.494,888.744,719.494Z" transform="translate(-877.616 -719.494)"/></g><g transform="translate(1.946)"><path class="b" d="M899.408,706.919c-.6.761-9.378,7.912-11.628,12.7s-5.136,12.115-6.789,14.408c-1.943,2.7-1.023,3.889,1.553.9a52,52,0,0,0,5.088-7.077c.2-.488-1.4,2.581-3.4,5.824-2.122,3.448-4.637,7.111-4.039,7.536,1.158.825,7.939-8.864,8.829-10.681a50.675,50.675,0,0,1-2.41,4.768c-1.214,2.106-2.945,4.4-2.662,5.073.447,1.064,4.736-3.814,7.09-8.278.182-.027-.13,1.577-3.281,6.692-.317.514-.586,2.017.913.5,3.158-3.189,4.752-4.327,6.934-9.815,2.129-5.352,3.178-11.73,5.893-15.15Z" transform="translate(-879.949 -706.919)"/></g></g><g transform="translate(139.608 311.194)"><path class="c" d="M1063.417,793.419s-10.357,106.866-5.953,108.705c7.9,3.351,38.841,14.314,4.729,11.9-17.523,1.056-16.237-2.859-16.511-6.176-.224-2.711.29-98.35-.43-105.788-.161-1.666-.259-2.672-.259-2.672Z" transform="translate(-1044.994 -793.419)"/></g><g transform="translate(73.466 309.661)"><path class="c" d="M986.036,793.114s4.49,106.866.086,108.705c-7.9,3.351-38.842,14.315-4.729,11.9,17.523,1.056,16.238-2.858,16.511-6.176.224-2.711,2.211-23.283,2.931-30.72.162-1.666,3.6-85.247,3.6-85.247Z" transform="translate(-965.696 -791.581)"/></g><g transform="translate(119.048 32.731)"><path class="d" d="M1029.452,462.257s-.913,10.183,5.369,15.814-14.475,0-14.475,0,3.863-9.753,3-15.814S1029.452,462.257,1029.452,462.257Z" transform="translate(-1020.345 -459.564)"/></g><g transform="translate(113.861 9.408)"><ellipse class="c" cx="10.981" cy="14.982" rx="10.981" ry="14.982"/></g><g transform="translate(11.091 44.129)"><path class="e" d="M1076.285,562.5c-.234,3.678-4.037,20.343-8.791,35.157-3.9,12.161-8.441,23.079-12.178,24.589-8.291,3.336-70.889,7.916-83.759,1.777-.3-.225-.626-.467-.934-.734-4.829-3.928-10.067-11.685-12.845-18.95,0-.008-7.4-20.86-8.908-25.106-.017-.042-.025-.075-.042-.108-.05-.167-.108-.325-.167-.475-.017-.058-.042-.108-.058-.167-7.79,26.6-28.517,85.018-45.282,103.526-1.76,1.943-9.859-8.958-9.859-8.958s-13.537-69.9,21.778-143.779c16.623-34.773,46.292-50.637,65.234-54.849,8.2-1.827,14.388-1.468,16.648.484a12.278,12.278,0,0,0,7.665,2.978,16.611,16.611,0,0,0,4.3-.392,21.418,21.418,0,0,0,4.562-1.551c.7-.325,1.109-.559,1.109-.559a44.5,44.5,0,0,1,11.594.692C1069.212,484.464,1076.668,556.32,1076.285,562.5Z" transform="translate(-890.913 -473.229)"/></g><g transform="translate(72.117 191.762)"><path class="f" d="M980.827,650.926a6.763,6.763,0,0,0,3.842,1.772c9.027.178,48.017.845,69.167-.37,7.463-.43,12.7-1.093,13.624-2.1a.791.791,0,0,1-.007.086c-.055,1.166-.724,14.513-1.663,32.008-1.853,34.537,1.718,84,5.888,99.015.9,3.24-47.543-1.668-47.543-1.668-.135-35.641,3.246-98.212,1.062-101.016-2.656-3.412-6.965,51.625-11.9,97.68-19.184,5-49.562,1.966-49.211,0C968.252,752.98,980.827,650.926,980.827,650.926Z" transform="translate(-964.078 -650.23)"/></g><g class="g" transform="translate(68.784 134.051)"><path d="M960.082,596.369c.017.058.041.108.058.167.058.15.117.309.167.475.016.033.024.067.042.108,1.51,4.245,8.908,25.1,8.908,25.106,2.778,7.265,8.015,15.022,12.845,18.95-3.279-11.869-13.5-46.275-13.1-60.137C967.046,594.4,960.082,596.361,960.082,596.369Z" transform="translate(-960.082 -581.039)"/></g><g class="g" transform="translate(165.357 99.675)"><path d="M1079.506,539.824s-20.745,61.926,36.811,88.225l1.17.778-.3-14.566s-27.12-37.844-27.223-38.818S1079.506,539.824,1079.506,539.824Z" transform="translate(-1075.866 -539.824)"/></g><g class="g" transform="translate(100.652 44.129)"><path d="M1023.328,480.344c.033.993-.492,1.643-2.085,1.426-4.971-.676-10.584-.534-14.663,1.335a3.464,3.464,0,0,1-3.353-.142c-2.611-1.526-4.229-6.08-4.871-8.1a1.389,1.389,0,0,1-.067-.442c8.2-1.827,14.388-1.468,16.648.484a12.278,12.278,0,0,0,7.665,2.978A6.765,6.765,0,0,1,1023.328,480.344Z" transform="translate(-998.289 -473.229)"/></g><g transform="translate(72.44 417.669)"><path class="h" d="M999.177,922.2c.2-1.543-10.775-1.4-12.017-.145s-23.122,5.768-22.689,12.265,30.755,1.39,32.921,1.236S998.775,925.228,999.177,922.2Z" transform="translate(-964.465 -921.075)"/></g><g transform="translate(139.616 415.721)"><path class="h" d="M1045.069,919.306c-.2-1.543,12.937.415,14.179,1.668s20.372,6.457,19.939,12.954-30.754,1.39-32.921,1.236S1045.47,922.338,1045.069,919.306Z" transform="translate(-1045.005 -918.739)"/></g><g class="i" transform="translate(124.427 191.762)"><g transform="translate(0 2.778)"><path d="M1027.229,653.6l-.435-.036S1026.948,653.571,1027.229,653.6Z" transform="translate(-1026.794 -653.56)"/></g><g class="j" transform="translate(0.435)"><path d="M1027.315,653.043c11.619.927,37.013-.715,37.013-.715,7.462-.43,12.7-1.093,13.624-2.1a.791.791,0,0,1-.007.086c-.055,1.166-.724,14.513-1.663,32.008a8.672,8.672,0,0,1-1.221-.141,9.509,9.509,0,0,1-6.149-4.369,21.185,21.185,0,0,1-2.391-4.994C1057.859,656.337,1031.037,653.378,1027.315,653.043Z" transform="translate(-1027.315 -650.23)"/></g></g><g transform="translate(111.322)"><g transform="translate(2.318 4.177)"><g transform="translate(3.084)"><path class="f" d="M1021.55,436.944s19.01,10.54,13.369-6.382C1031.014,418.853,1008.584,429.4,1021.55,436.944Z" transform="translate(-1017.558 -425.33)"/></g><g transform="translate(0 0.756)"><path class="f" d="M1023.692,433.051s-10.637,6.312-9.61,12.643c0,0-2.345-18.9,8.231-19.377s14.671.545,13.732,20.533C1036.044,446.85,1032.971,430.95,1023.692,433.051Z" transform="translate(-1013.861 -426.237)"/></g></g><g transform="translate(10.308)"><path class="f" d="M1023.441,425.458s.535-5.889,6.373-5.055,8.341,4.17,9.175,7.507,1.668,5.839,2.5,5.839c0,0-2.5,2.5-3.336,1.668,0,0,2.164,6-.586,10.923,0,0-1.082-7.587-5.252-8.421S1023.441,425.458,1023.441,425.458Z" transform="translate(-1023.441 -420.322)"/></g><g transform="translate(0 4.552)"><path class="f" d="M1021.925,426.313s-4.17-2.5-8.341,3.336l-2.5,5s.834.834,2.5,0c0,0-.761,5.877.037,9.194l2.466-10.028Z" transform="translate(-1011.082 -425.78)"/></g></g><g transform="translate(97.338 102.593)"><path class="k" d="M994.4,558.884l10.576,67.753a7.236,7.236,0,0,0,8.257,6.03l46.242-7.223a2.233,2.233,0,0,0,.326-.067,7.21,7.21,0,0,0,5.7-8.191l-10.576-67.753a7.225,7.225,0,0,0-8.257-6.022l-44.1,6.881-2.144.334A7.224,7.224,0,0,0,994.4,558.884Z" transform="translate(-994.316 -543.323)"/></g><g transform="translate(99.806 102.593)"><path class="l" d="M997.364,558.483l10.576,67.753a7.225,7.225,0,0,0,8.258,6.022l44.1-6.881a7.21,7.21,0,0,0,5.7-8.191l-10.576-67.753a7.225,7.225,0,0,0-8.257-6.022l-44.1,6.881A7.21,7.21,0,0,0,997.364,558.483Z" transform="translate(-997.276 -543.323)"/></g><g transform="translate(129.098 142.091)"><circle class="m" cx="5.582" cy="5.582" r="5.582"/></g><g class="g" transform="translate(91.562 147.673)"><path d="M1073.628,615.644s1.084-24.906-65.642-16.565,50.045,15.848,50.045,15.848Z" transform="translate(-987.391 -597.37)"/></g><g transform="translate(85.036 44.075)"><g transform="translate(0 103.39)"><g transform="translate(0 4.034)"><path class="b" d="M1012.9,609.171c-.791-.265-9.136-5.263-13.661-5.68s-11.289-.607-13.626-1.271c-2.747-.781-3.441.31-.276,1.519a44.612,44.612,0,0,0,7.206,2.04c.452.018-2.5-.378-5.7-1.042-3.406-.706-7.1-1.666-7.27-1.059-.328,1.177,9.484,3.822,11.212,4.009a43.419,43.419,0,0,1-4.557-.552c-2.057-.365-4.414-1.093-4.877-.666-.73.672,4.467,2.712,8.761,3.307.075.138-1.312.356-6.366-.694-.508-.105-1.8.117-.138.886,3.5,1.618,4.886,2.572,9.959,2.731,4.946.154,10.406-.863,13.964.329Z" transform="translate(-979.567 -601.957)"/></g><g transform="translate(10.199)"><path class="b" d="M1003.449,603.134s-3.829-4.023-8.13-4.687c-2.556-.394-2.5-1.038-2.933-1.229-1.446-.637-.046,2.049,2.125,2.737,1.765.56,2.75,3.576,3.811,4.215s4.236,1.812,5.027,1.4S1003.449,603.134,1003.449,603.134Z" transform="translate(-991.795 -597.121)"/></g></g><g transform="translate(26.292)"><path class="e" d="M1089.487,486.722c15.711,14.058,26.581,27.114,33.363,70.063,3.441,21.79,2.544,43.581,1.648,55.072a13.575,13.575,0,0,1-9.331,11.806c-49.224,16.237-103.293-30.472-103.293-30.472-2.819-1.048,2.856-11.1,2.856-11.1,27.214-.282,48.066.552,69.752,8.893-.11-.052-21.319-39.888-24.188-50.879-7.518-28.821-32.259-53.763-25.857-65.059C1036.649,471.138,1073.639,472.543,1089.487,486.722Z" transform="translate(-1011.089 -473.164)"/></g></g><g transform="translate(84.618 191.577)"><rect class="e" width="129.221" height="0.834" transform="translate(0 128.633) rotate(-84.534)"/><g transform="translate(12.3 2.572)"><rect class="e" width="126.982" height="0.834" transform="translate(0 126.393) rotate(-84.479)"/></g><g transform="translate(26.299 2.578)"><rect class="e" width="125.92" height="0.834" transform="translate(0 125.511) rotate(-85.38)"/></g><g transform="translate(47.94 2.608)"><rect class="e" width="0.834" height="25.999" transform="translate(0 0.008) rotate(-0.576)"/></g><g transform="translate(58.348 2.604)"><rect class="e" width="128.075" height="0.834" transform="translate(0 128.054) rotate(-88.951)"/></g><g transform="translate(71.017 2.53)"><rect class="e" width="129.129" height="0.834" transform="translate(0 129.128) rotate(-89.706)"/></g><g transform="translate(82.467 2.524)"><rect class="e" width="0.834" height="129.893" transform="translate(0 0.016) rotate(-1.096)"/></g></g><g transform="translate(87.183 205.424)"><path class="e" d="M1038.93,668.886c-25.773,0-56.328-1.422-56.789-1.444l.039-.833c.691.033,69.437,3.23,87.484.007l.147.821C1063.728,668.523,1051.935,668.886,1038.93,668.886Z" transform="translate(-982.141 -666.609)"/></g><g transform="translate(85.656 216.607)"><path class="e" d="M1011.008,685.818a97.976,97.976,0,0,1-30.7-5.02l.293-.781c.231.087,23.365,8.57,47.2,3.173l.184.813A77.007,77.007,0,0,1,1011.008,685.818Z" transform="translate(-980.31 -680.017)"/></g><g transform="translate(132.862 218.145)"><path class="e" d="M1061,685.7a100.38,100.38,0,0,1-24.1-3.039l.225-.8c.218.061,21.988,6.055,40.866.954l.218.806A66.6,66.6,0,0,1,1061,685.7Z" transform="translate(-1036.907 -681.861)"/></g><g transform="translate(84.417 226.056)"><path class="e" d="M1009.093,697.926c-18.839,0-30.128-5.769-30.268-5.842l.387-.739c.173.09,17.688,9.024,45.578,4.441l.135.823A97.638,97.638,0,0,1,1009.093,697.926Z" transform="translate(-978.825 -691.345)"/></g><g transform="translate(83.059 237.253)"><path class="e" d="M1011.069,710.823c-16.421,0-33.655-5.189-33.872-5.255l.244-.8c.271.083,27.293,8.217,45.711,4.02l.185.813A55.847,55.847,0,0,1,1011.069,710.823Z" transform="translate(-977.197 -704.77)"/></g><g transform="translate(81.489 248.477)"><path class="e" d="M1005.822,726.2c-20.884,0-30.393-7.226-30.507-7.316l.515-.656c.138.108,14.111,10.68,45.62,5.9l.126.825A105.2,105.2,0,0,1,1005.822,726.2Z" transform="translate(-975.315 -718.226)"/></g><g transform="translate(79.886 261.265)"><path class="e" d="M1001.95,740.456a67.954,67.954,0,0,1-28.558-6.159l.386-.739c.21.109,21.263,10.861,46.247,3.477l.236.8A64.45,64.45,0,0,1,1001.95,740.456Z" transform="translate(-973.392 -733.558)"/></g><g transform="translate(78.285 273.047)"><path class="e" d="M999.719,754.8c-18.906,0-28.129-6.348-28.246-6.431l.483-.681c.148.1,15.206,10.432,46.533,4.379l.159.819A99.835,99.835,0,0,1,999.719,754.8Z" transform="translate(-971.473 -747.684)"/></g><g transform="translate(76.711 285.066)"><path class="e" d="M996.09,768.326c-15.743,0-26.356-5.416-26.5-5.493l.386-.739c.205.107,20.8,10.6,47.2,2.044l.258.794A69.021,69.021,0,0,1,996.09,768.326Z" transform="translate(-969.586 -762.094)"/></g><g transform="translate(75.316 294.537)"><path class="e" d="M991.876,780.428c-17.065,0-23.6-6.025-23.962-6.377l.578-.6c.12.115,12.481,11.435,47.4,2.924l.2.811A102.765,102.765,0,0,1,991.876,780.428Z" transform="translate(-967.914 -773.449)"/></g><g transform="translate(73.881 305.143)"><path class="e" d="M993.779,792.454c-16.785,0-27.44-5.476-27.586-5.552l.389-.737c.2.1,19.885,10.2,47.968,2.667l.216.806A80.844,80.844,0,0,1,993.779,792.454Z" transform="translate(-966.193 -786.164)"/></g><g transform="translate(133.703 229.966)"><path class="e" d="M1057.577,700.8c-14.442,0-19.387-3.9-19.662-4.124l.531-.644c.091.074,9.433,7.343,39.755,1.856l.148.821A117.393,117.393,0,0,1,1057.577,700.8Z" transform="translate(-1037.915 -696.033)"/></g><g transform="translate(134.033 241.266)"><path class="e" d="M1058.606,713.434c-13.441,0-20.2-3.054-20.3-3.1l.352-.757c.128.059,13.037,5.864,38.872,1.225l.147.821A108.1,108.1,0,0,1,1058.606,713.434Z" transform="translate(-1038.31 -709.581)"/></g><g transform="translate(133.464 253.849)"><path class="e" d="M1058.386,728.115a80.467,80.467,0,0,1-20.758-2.649l.24-.8c.2.059,19.916,5.858,39.507,0l.239.8A67.416,67.416,0,0,1,1058.386,728.115Z" transform="translate(-1037.628 -724.667)"/></g><g transform="translate(133.128 264.314)"><path class="e" d="M1057.992,741.794a56.625,56.625,0,0,1-20.766-3.812l.34-.762c.191.084,19.34,8.382,40.089-.006l.313.773A53.1,53.1,0,0,1,1057.992,741.794Z" transform="translate(-1037.226 -737.214)"/></g><g transform="translate(132.836 275.775)"><path class="e" d="M1057.459,754.612a68.968,68.968,0,0,1-20.583-2.862l.276-.786a74.916,74.916,0,0,0,41.02-.008l.224.8A77.616,77.616,0,0,1,1057.459,754.612Z" transform="translate(-1036.876 -750.955)"/></g><g transform="translate(132.509 286.795)"><path class="e" d="M1056.137,768.045c-12.546,0-19.551-3.047-19.654-3.094l.341-.761c.153.068,15.646,6.784,42.013-.023l.209.807A91.635,91.635,0,0,1,1056.137,768.045Z" transform="translate(-1036.483 -764.167)"/></g><g transform="translate(132.488 296.58)"><path class="e" d="M1059.125,781.174c-13.641,0-22.539-4.469-22.667-4.534l.382-.742c.182.093,18.483,9.268,42.9.98l.268.79A64.736,64.736,0,0,1,1059.125,781.174Z" transform="translate(-1036.458 -775.898)"/></g><g transform="translate(132.103 308.746)"><path class="e" d="M1059.837,794.578a82.614,82.614,0,0,1-23.84-3.3l.269-.79a85.107,85.107,0,0,0,44.78.512l.218.8A81.98,81.98,0,0,1,1059.837,794.578Z" transform="translate(-1035.997 -790.484)"/></g></g><g transform="translate(1116.711 568.359)"><g transform="translate(0 0)"><path class="e" d="M1201.754,614.96l-1.593-.412a5.493,5.493,0,0,0-2.844.3,24.065,24.065,0,0,1,.6,3.1,14.156,14.156,0,0,1,.876,1.934,3.649,3.649,0,0,1-1.122,1.6,9.173,9.173,0,0,1-1.979,1.429q-1.1.588-1.46.394a.81.81,0,0,1-.212-.159,6.742,6.742,0,0,1-.787-2.919,18.648,18.648,0,0,0-.942-4.094,7.829,7.829,0,0,1-.752-1.933,6.823,6.823,0,0,1,1.239-2.557,15.526,15.526,0,0,1,2.139-2.812.934.934,0,0,1,1.239-.215,5.157,5.157,0,0,0,1.308.681l3.019.14a19.19,19.19,0,0,1,5.551,1.162,4.641,4.641,0,0,1-.415,2.348,5.9,5.9,0,0,1-1.243,2.172,1.241,1.241,0,0,1-1.3.275A10.947,10.947,0,0,0,1201.754,614.96Z" transform="translate(-1191.536 -608.466)"/></g><g transform="translate(3.734 8.517)"><path class="e" d="M1235.467,625.8q-3.469-.552-18.94,2.716-14.6,3.105-15.827,3.906a1.333,1.333,0,0,0-.657.384,6.49,6.49,0,0,1-.661.508,2.582,2.582,0,0,1-1.457.3,1.341,1.341,0,0,1-1.1-.459,7.1,7.1,0,0,1-.711-2.872,5.655,5.655,0,0,1,.155-3,1.723,1.723,0,0,1,.886-.871q2.515-.707,16.22-3.619,15.345-3.27,19.705-3.682a6.023,6.023,0,0,1,1.09-.435,2.5,2.5,0,0,1,1.741.631,2.291,2.291,0,0,1,.269.346,7.84,7.84,0,0,1,.059,3.039q-.206,2.631-.649,3.051A.178.178,0,0,1,1235.467,625.8Z" transform="translate(-1196.012 -618.678)"/></g><g transform="translate(24.114 26.24)"><path class="e" d="M1234.946,651.164a15.654,15.654,0,0,1-2.919,1.991,7.644,7.644,0,0,1-2.589,1.133,12.4,12.4,0,0,1-1.889-.85,17.87,17.87,0,0,0-4.07-1.184,6.9,6.9,0,0,1-2.844-.906.621.621,0,0,1-.148-.22q-.175-.375.454-1.453a8.635,8.635,0,0,1,1.515-1.918,3.326,3.326,0,0,1,1.692-1q.185-.057.929.44a3.766,3.766,0,0,0,.957.535q.706.11,3.064.757a5.84,5.84,0,0,0,.475-2.856c-.129-.518-.25-1.044-.359-1.581q-.027-.154-.366-1.336a1.23,1.23,0,0,1,.312-1.317,5.9,5.9,0,0,1,2.235-1.129,4.409,4.409,0,0,1,2.4-.261,18.47,18.47,0,0,1,.842,5.572q.021,1.541.013,3.053a5.185,5.185,0,0,0,.612,1.341A.933.933,0,0,1,1234.946,651.164Z" transform="translate(-1220.447 -639.926)"/></g></g><g transform="translate(859.232 402.522)"><path class="e" d="M915.671,452.355a4.476,4.476,0,0,1,.354,2.941,2.741,2.741,0,0,1-1.661,2.085q-.938.377-5.6-.3t-5.148-1.563a4.85,4.85,0,0,1-.332-1.134,4.748,4.748,0,0,0-.3-1.078l-11.4-23.914q-.624-1.309-3.458-.657-3.174.674-4.141-.331a3.864,3.864,0,0,1-.8-1.087,5.893,5.893,0,0,1-.159-3.558,33.108,33.108,0,0,0,.611-4l-.752-5.093a3.794,3.794,0,0,1,2.165-4.107,10.416,10.416,0,0,1,5.6-.855q3.521.349,4.525,2.455l18,37.749a3.3,3.3,0,0,0,1.233,1.194A3.37,3.37,0,0,1,915.671,452.355Z" transform="translate(-882.839 -409.64)"/></g><g transform="translate(867.046 727.275)"><path class="e" d="M899.911,837.845a3.457,3.457,0,0,1-1.619,1.616,2.117,2.117,0,0,1-2.059-.017q-.676-.39-2.481-3.544t-1.5-3.874a3.779,3.779,0,0,1,.532-.742,3.7,3.7,0,0,0,.51-.7l9.1-18.318q.5-1-1.248-2.415-1.922-1.608-1.771-2.674a2.969,2.969,0,0,1,.281-1,4.539,4.539,0,0,1,2.086-1.792,25.694,25.694,0,0,0,2.719-1.531l2.737-2.882a2.93,2.93,0,0,1,3.527-.641,8.048,8.048,0,0,1,3.187,3q1.465,2.306.663,3.919l-14.37,28.918a2.563,2.563,0,0,0-.138,1.318A2.6,2.6,0,0,1,899.911,837.845Z" transform="translate(-892.207 -798.994)"/></g><g transform="translate(1085.33 722.996)"><path class="e" d="M1161.616,832.715A3.453,3.453,0,0,1,1160,834.33a2.117,2.117,0,0,1-2.058-.017q-.676-.39-2.481-3.544t-1.5-3.874a3.767,3.767,0,0,1,.531-.741,3.676,3.676,0,0,0,.51-.7l9.1-18.318q.5-1-1.247-2.415-1.922-1.608-1.771-2.675a2.977,2.977,0,0,1,.28-1,4.548,4.548,0,0,1,2.087-1.792,25.538,25.538,0,0,0,2.719-1.531l2.737-2.882a2.928,2.928,0,0,1,3.526-.64,8.036,8.036,0,0,1,3.188,3q1.464,2.306.663,3.919l-14.37,28.917a2.547,2.547,0,0,0-.139,1.318A2.609,2.609,0,0,1,1161.616,832.715Z" transform="translate(-1153.912 -793.864)"/></g><g transform="translate(789.659 542.906)"><g transform="translate(4.272 19.518)"><path class="e" d="M823.856,612.273a1.826,1.826,0,0,1,.686,1,1.117,1.117,0,0,1-.205,1.068,6.659,6.659,0,0,1-2.078.952q-1.81.638-2.155.412a2.01,2.01,0,0,1-.335-.347,1.946,1.946,0,0,0-.314-.332l-8.652-6.474q-.474-.354-1.374.419-1.018.845-1.558.666a1.57,1.57,0,0,1-.495-.242,2.4,2.4,0,0,1-.732-1.254,13.484,13.484,0,0,0-.537-1.559l-1.237-1.7a1.55,1.55,0,0,1,0-1.894,4.255,4.255,0,0,1,1.862-1.37,2.078,2.078,0,0,1,2.1.028l13.658,10.22a1.348,1.348,0,0,0,.672.2A1.382,1.382,0,0,1,823.856,612.273Z" transform="translate(-804.548 -601.35)"/></g><g transform="translate(18.118 0)"><path class="e" d="M840.456,588.872a1.827,1.827,0,0,1,.686,1,1.12,1.12,0,0,1-.205,1.068,6.7,6.7,0,0,1-2.078.952q-1.811.638-2.155.411a2.012,2.012,0,0,1-.335-.347,1.9,1.9,0,0,0-.314-.331l-8.652-6.475q-.474-.354-1.374.419-1.018.846-1.558.666a1.589,1.589,0,0,1-.495-.241,2.4,2.4,0,0,1-.732-1.255,13.452,13.452,0,0,0-.537-1.559l-1.237-1.7a1.547,1.547,0,0,1,0-1.893,4.25,4.25,0,0,1,1.862-1.371,2.08,2.08,0,0,1,2.1.028l13.658,10.22a1.347,1.347,0,0,0,.672.2A1.382,1.382,0,0,1,840.456,588.872Z" transform="translate(-821.148 -577.95)"/></g><g transform="translate(13.855 9.977)"><path class="e" d="M820.4,590.172q.829-.607,2.654.2a15.645,15.645,0,0,1,3.68,2.508,22.33,22.33,0,0,1,4.012,4.618q2.427,3.725.906,5.467a2.838,2.838,0,0,1-.732.557q-.812.432-.882.48-.534.268-1.707.928-.936.543-3.294-.648a22.084,22.084,0,0,1-4.521-3.134,18.5,18.5,0,0,1-3.5-3.9q-1.361-2.113-.841-3.425a.582.582,0,0,1,.414-.319c.152-.048.239-.108.264-.178a3.765,3.765,0,0,1,.654-1.059,6.451,6.451,0,0,1,1.39-1.123Q820.252,590.284,820.4,590.172Zm-.71,2.8q-.647.739.655,2.611a18.008,18.008,0,0,0,2.847,3.058,20.952,20.952,0,0,0,3.336,2.343q1.918,1.1,2.187.795.524-.6-1.019-2.629a26.994,26.994,0,0,0-3.572-3.691,20.073,20.073,0,0,0-2.783-2.1Q820.031,592.592,819.694,592.977Z" transform="translate(-816.037 -589.911)"/></g><g transform="translate(0 28.099)"><path class="e" d="M803.589,611.942q.8-.644,2.66.078a15.671,15.671,0,0,1,3.79,2.338,22.29,22.29,0,0,1,4.217,4.431q2.595,3.611,1.153,5.42a2.845,2.845,0,0,1-.7.59q-.792.468-.859.52-.521.292-1.663,1-.911.584-3.32-.5A22.038,22.038,0,0,1,804.2,622.9a18.556,18.556,0,0,1-3.672-3.736q-1.456-2.048-1-3.383a.665.665,0,0,1,.086-.141.708.708,0,0,1,.313-.2c.149-.056.234-.118.255-.189a3.738,3.738,0,0,1,.605-1.089,6.454,6.454,0,0,1,1.337-1.185Q803.442,612.06,803.589,611.942Zm-.582,2.834q-.612.768.773,2.578a17.977,17.977,0,0,0,2.983,2.925,20.918,20.918,0,0,0,3.438,2.189q1.966,1.016,2.22.7.5-.626-1.137-2.581a27.072,27.072,0,0,0-3.736-3.524,20.084,20.084,0,0,0-2.875-1.976Q803.326,614.375,803.007,614.776Z" transform="translate(-799.426 -611.638)"/></g></g><g transform="translate(1090.196 401.127)"><g transform="translate(0)"><path class="e" d="M1194.2,417.12q1.87,1.824.623,6.735a39.842,39.842,0,0,1-4.733,10.281,56.711,56.711,0,0,1-9.883,12q-8.31,7.656-13.318,4.577a7.252,7.252,0,0,1-1.7-1.6q-1.425-1.854-1.576-2.007-.9-1.224-3.045-3.888-1.753-2.116.235-8.528a56.1,56.1,0,0,1,5.945-12.651,47.114,47.114,0,0,1,8.3-10.413q4.72-4.3,8.229-3.552a1.744,1.744,0,0,1,.382.173,1.82,1.82,0,0,1,.59.729q.279.538.557.586a9.491,9.491,0,0,1,2.931,1.192,16.348,16.348,0,0,1,3.4,3.008Q1193.859,416.787,1194.2,417.12Zm-7.328-.6q-2.128-1.307-6.267,2.743a45.778,45.778,0,0,0-6.462,8.424,53.163,53.163,0,0,0-4.464,9.348q-1.958,5.271-1.071,5.815,1.728,1.062,6.161-3.663a68.705,68.705,0,0,0,7.742-10.509,51.055,51.055,0,0,0,4.1-7.861Q1187.982,417.205,1186.875,416.524Z" transform="translate(-1159.746 -407.968)"/></g></g></g></svg>