<svg xmlns="http://www.w3.org/2000/svg" width="403.579" height="346.698" viewBox="0 0 403.579 346.698"><defs><style>.a{fill:none;stroke:#f7a81d;stroke-miterlimit:10;stroke-width:3px;}.b{fill:#f5ad43;}.c,.e{fill:#fff;}.d,.e{font-size:13px;font-family:BPGArial, BPG Arial;}.f{fill:#1c1f29;}.g{fill:#f7a81d;}.h{fill:#fdfdfd;}</style></defs><g transform="translate(-806.191 -394.301)"><path class="a" d="M878,726.109c71.944,21.254,152.731,18.4,218.575-17.546s113.56-107.52,111.576-182.512c-.623-23.546-6.03-47.2-17.605-67.715-18.76-33.251-53.891-56.618-91.754-61.512s-77.592,8.636-104.915,35.3c-26.135,25.507-40.218,60.8-50.5,95.838s-17.612,71.257-33.457,104.16c-9.616,19.97-22.628,38.812-40.582,51.809s-41.359,19.552-62.826,14.033" transform="translate(0.056)"/><g transform="translate(961.983 464.368)"><path class="b" d="M1125.715,489.371l-39.025-8.754-84.108-18.867-10.843,6.6-15.3-3.431-7.7-10.426-11.191-2.511a5.831,5.831,0,0,1-.883-.5,3.417,3.417,0,0,0-3.738,2.639L943.344,496.9a3.427,3.427,0,0,0,2.594,4.095l21.112,4.735,7.575,10.263,15.3,3.431q5.139-3.128,10.279-6.258l114.422,25.665a3.427,3.427,0,0,0,4.095-2.594l9.593-42.768A3.426,3.426,0,0,0,1125.715,489.371Z" transform="translate(-930.214 -451.467)"/><path class="b" d="M1111.01,551.477l-39.025-8.754-74.933-16.808-10.843,6.6-15.3-3.431-7.7-10.427-20.366-4.568a5.819,5.819,0,0,1-.883-.5,3.417,3.417,0,0,0-3.738,2.638l-5.477,24.417a3.428,3.428,0,0,0,2.594,4.095l11.937,2.678q3.788,5.132,7.576,10.263l15.294,3.431q5.139-3.13,10.279-6.258l123.6,27.724a3.428,3.428,0,0,0,4.095-2.6l5.477-24.416A3.427,3.427,0,0,0,1111.01,551.477Z" transform="translate(-932.67 -437.065)"/><g transform="translate(72.72 19.455)"><rect class="c" width="42.117" height="35.261" rx="14.311" transform="translate(7.717 0) rotate(12.643)"/><text class="d" transform="translate(21.967 25.164) rotate(12.643)"><tspan x="-7.23" y="0">10</tspan></text></g><text class="e" transform="translate(41.118 34.11) rotate(12.643)"><tspan x="-18.25" y="0">repeat</tspan></text><g transform="translate(144.945 120.346)"><path class="c" d="M1063.693,549.159l-7.71,5.915,12.155,2.727Z" transform="translate(-1049.019 -549.159)"/><path class="c" d="M1066.02,555.066a8.163,8.163,0,0,1-15.69.847,6,6,0,0,0,10.9-1.923Z" transform="translate(-1050.33 -548.038)"/></g><path class="b" d="M945.538,485.9,936.7,525.29l24.765,5.555.813-5.768-7.6-1.7a2.812,2.812,0,0,1-2.129-3.359l4.908-21.882A2.811,2.811,0,0,1,960.823,496l7.747,1.737.038-6.661Z" transform="translate(-931.735 -443.481)"/></g><g transform="translate(806.265 471.569)"><path class="f" d="M935.679,601.578c4.913,5.481,9.328,10.15,14.741,13.8,2.489,1.679,4.467,1.882,6.774-.556a30.536,30.536,0,0,1,9.13-7.16c5.1-2.368,10.3-1.621,13.895,2.283,3.055,3.316,3.59,7.761.511,12.422-11.692,17.7-29.611,23.783-46.689,8.4-2.906-2.618-3.861-2.229-5.622.9a40.225,40.225,0,0,1-6.555,8.572c-2.094,2.1-1.353,3.182.324,4.782,7.619,7.273,15.12,14.671,22.768,21.914,3.815,3.613,7.934,5.965,13.789,5.094a40.009,40.009,0,0,1,20.107,1.726c6.046,2.264,9.276,6.468,9.165,11.782-.1,5-3.475,8.91-9.78,10.674-11.208,3.136-22.6,2.646-33.979,1.139-3.775-.5-6.226-3.423-8.837-5.843q-17.967-16.649-35.8-33.445c-1.919-1.816-3.128-1.987-5.4-.441a137.757,137.757,0,0,1-33.543,16.91c-2.123.712-2.615,1.1-1.492,3.449,1.976,4.127,4.972,8.02,3.681,13.248-1.466,5.93-7.954,9.968-13.828,8.027C839.8,696.2,834.576,688.72,829.6,681.11a30.815,30.815,0,0,1-5.312-14.062c-.8-8.718,4.245-13.139,13.309-10.7,6.094,1.64,9.982-2.148,14.832-3.993-7.34-1.064-14.535-2.041-21.439-4.6-15.438-5.732-25.479-20.089-24.683-35.589a18.625,18.625,0,0,1,3.239-10.178c3.3-4.577,8.171-5.019,12.251-1.114,4.44,4.246,7.15,9.776,10.517,14.8,5.573,8.312,12.521,14.656,22.308,17.572.888.264,1.409.685,2.2-.063,1.068-1.01-.249-1.478-.493-2.077-1.122-2.751-2.506-5.395-3.669-8.132-2.812-6.623-1.057-12.19,4.3-16.645,3.77-3.135,7.752-6.019,11.685-8.956A52.22,52.22,0,0,1,882,590.448c-3.534-2.571-6.843-4.765-9.914-7.253a58.737,58.737,0,0,1-17.03-21.577c-.979-2.178-2.072-3.127-4.44-3.088a71.8,71.8,0,0,1-7.346-.515c-1.1-.095-2.134-.551-1.938-1.818s1.369-1.294,2.417-1.18c2.99.32,5.955,1.141,9.117.5a54.792,54.792,0,0,1-.859-11.317c.089-6.874-.1-7.388-6.833-8.929-2.072-.474-3.294-1.711-5.211-2.647,3.824-1.631,6.835.376,9.737,1.546,2.593,1.045,3.411.634,4.066-1.935a69.489,69.489,0,0,1,10.515-22.667,7.52,7.52,0,0,0,1.365-5.649c-1.556-12.474-2.952-24.969-4.394-37.457-.2-1.691-.774-3.447,1.067-4.723,1.8-1.25,3,.335,4.132,1.042,7.883,4.92,15.733,9.9,23.439,15.092,2.582,1.738,4.8,2.428,7.947,1.4a76.53,76.53,0,0,1,33-2.851c5.143.606,7.8-3.46,10.469-6.349,3.89-4.208,8.468-7.6,12.383-11.747,1.957-2.072,4.49-.828,5.3,2.378,1.765,7,3.516,14.01,5.063,21.063a7.994,7.994,0,0,0,3.112,4.92c3.29,2.588,6.48,5.321,9.564,8.153,8.791,8.07,13.515,18.365,15.773,29.868.461,2.347,1.133,3.839,3.5,4.8a29.736,29.736,0,0,1,12.766,9.4c1.18,1.541,2.444,1.653,4.138,1.388,7.22-1.128,14.053-3.242,20.139-7.438,1.1-.758,2.429-2.374,3.583-.4.9,1.534-.927,2.226-1.865,2.886a43.9,43.9,0,0,1-19.218,7.46c-3.011.435-3.9,1.391-2.67,4.323a8.742,8.742,0,0,1,.644,4.665c-.862,4.8,1.427,6.359,5.766,6.49,3.745.112,7.464.809,11.239.361,1.23-.145,2.973-.432,3.012,1.433.038,1.849-1.72,1.531-2.961,1.62a59.208,59.208,0,0,1-15.1-.974c-1.454-.27-2.714-.755-3.441,1.264C1005.785,579.345,991.77,588,975.585,594,963.031,598.66,949.871,600.524,935.679,601.578ZM834.93,624.233l.074.043c-4.275-6.278-8.568-12.543-12.815-18.838-1.647-2.442-3.272-5.015-6.737-4.466-3.543.562-4.871,3.512-5.576,6.469-2.623,11.006.623,20.345,8.531,28.222l-.037-.084a1.076,1.076,0,0,0,1.423.928c.744,2.428,2.963,3.407,4.828,4.563,10.705,6.635,22.593,8.147,34.854,7.447,2-.113,3.959-1.513,5.855-2.476a1.7,1.7,0,0,0,.437-2.883c-3.524-1.941-5.138-6.152-9.905-6.859a33.227,33.227,0,0,1-20.072-11.145C835.711,624.652,835.605,624.176,834.93,624.233Zm95.1-2.885c3.128-3.922,3.315-8.819,3.658-13.371.393-5.208-1.176-6.073-6.748-6.206a50.588,50.588,0,0,1-10.2-.823c-8.179-1.9-16.912-1.218-24.552-5.861a12.7,12.7,0,0,0-12.025-.583c-8.867,3.866-16.39,9.576-23.233,16.259a9.437,9.437,0,0,0-2.434,9.615,54.869,54.869,0,0,0,11.447,19.636,14.148,14.148,0,0,0,10.138,4.5,8.878,8.878,0,0,0,8.3-4.61c1.8-3.023.8-5.867-.941-8.515-1.424-2.166-2.946-4.273-4.532-6.322-3.6-4.654-3.129-6.584,1.8-9.918,5.18-3.5,10.711-6.725,14.014-12.353.686-1.17,1.454-1.46,2.4-.866a1.731,1.731,0,0,1,.361,2.659c-1.123,1.492-2.313,2.941-3.565,4.326-3.572,3.952-8.312,6.464-12.465,9.679-2.306,1.786-2.337,2.046-.537,4.171,3.594,4.243,8.521,8.753,7.037,14.648-1.393,5.532.875,8.134,4.472,10.873a65.813,65.813,0,0,1,5.351,4q18.573,17.414,37.035,34.948c5.078,4.8,10.455,8.722,18.045,8.17,4.455-.324,8.958.1,13.429-.087a34.672,34.672,0,0,0,13.823-3.228c5.959-2.888,6.585-9.712,1.218-13.6a16.386,16.386,0,0,0-5.493-2.471c-6.986-1.854-14.044-1.684-21.074-.649a7.028,7.028,0,0,1-5.913-1.624c-9.381-7.345-17.745-15.787-26.2-24.127-2.437-2.4-5.411-4.353-6.943-7.595A44.159,44.159,0,0,0,930.034,621.348Zm59.486-92.043a3.044,3.044,0,0,0,.349-2.495c-2.424-14.072-8.759-25.779-20.521-34.3-4.394-3.183-8.264-6.508-9.014-12.74-.747-6.214-2.934-12.254-4.675-19.093-6.528,6.049-12.526,11.573-18.48,17.144-1.4,1.316-2.657,2.4-4.894,2.033a72.78,72.78,0,0,0-36.7,3.332,4.2,4.2,0,0,1-4.065-.238c-7.019-4.775-14.028-9.568-21.123-14.226-1.741-1.142-3.309-2.851-5.874-2.778.049,1.069.037,2.066.15,3.049,1.327,11.48,2.633,22.963,4.041,34.433a10.5,10.5,0,0,1-1.949,8.032,71.956,71.956,0,0,0-9.779,20.169c-.981,3.035-.92,5.25,2.82,6.7a27.6,27.6,0,0,1,10.759,6.929c.681.753,1.112,1.285.505,2.136-.493.691-1.238.5-1.97.372-1.282-.22-1.725-1.468-2.618-2.052-3.351-2.19-7.607-6.5-10.389-4.972-2.99,1.64-1.1,7.325-.769,11.267.023.287.122.567.153.854.25,2.311,1.47,3.281,3.81,2.891,3.263-.542,6.61-.588,9.768-1.755,1.182-.437,2.511-.4,2.88.976.312,1.155-.894,1.637-1.839,1.964a29.048,29.048,0,0,1-8.064,1.515c-4.99.254-5.243.779-2.623,5.213a65.281,65.281,0,0,0,26.6,25.462c10.2,5.247,21.011,8.67,32.62,9.053,1.87.006,3.746-.078,5.61.033a122.908,122.908,0,0,0,55.134-8.986c12.565-5.213,23.293-12.84,29.175-25.753.889-1.953,2.552-4.3-1.243-5.319a1.418,1.418,0,0,1-1.128-1.625,1.586,1.586,0,0,1,2-1.189c.893.161,1.774,1.183,2.573-.227,1.572-2.773-.979-10.2-3.97-11.184-1.132-.373-2.217-1.158-1.391-2.009,2.384-2.458-.277-3.24-1.3-4.312C1000.079,533.414,994.5,531.86,989.52,529.305ZM833.681,658.753c-5.414-.254-7.777,2.533-6.37,8.689,2.714,11.869,9.784,20.932,19.49,27.96,3.382,2.448,8.269,1.605,11.324-1.1,3.523-3.118,2.857-6.5.961-10.07-.738-1.391-1.393-2.826-2.157-4.2-3.394-6.116-3.2-6.544,3.283-8.654,11.194-3.645,21.456-9.182,31.268-15.611,1.03-.675,2.677-1.792,1.855-2.676a64.309,64.309,0,0,0-8.384-7.4c-1.759-1.327-3.044,1-4.661,1.376-2.589.6-5.1,1.074-7.653.1s-4.477.134-6.694,1.439C856.036,654.443,846.7,662.318,833.681,658.753Zm103.136-51.415a32.583,32.583,0,0,1-3.545,15.122c-1.085,2.1-.1,3.486,1.38,4.9,16.3,15.559,32.409,9.786,43.474-6.559,1.838-2.714,2.484-5.571-.023-8.3-2.682-2.922-5.9-4.147-9.659-2.33-2.681,1.294-5.273,2.634-7.329,5.072-4.944,5.867-8.161,6.036-14.392,1.334A46.4,46.4,0,0,1,936.817,607.339Z" transform="translate(-806.265 -457.313)"/><path class="g" d="M909.553,597.546c-11.6-.382-22.411-3.805-32.612-9.052a65.282,65.282,0,0,1-26.6-25.462c-2.62-4.435-2.368-4.96,2.623-5.213a29.049,29.049,0,0,0,8.064-1.515c.945-.326,2.151-.808,1.839-1.964-.37-1.375-1.7-1.413-2.88-.976-3.157,1.168-6.5,1.214-9.768,1.756-2.341.389-3.56-.58-3.81-2.891-.031-.287-.129-.567-.153-.854-.327-3.942-2.221-9.627.769-11.267,2.781-1.528,7.038,2.782,10.388,4.972.893.584,1.335,1.832,2.618,2.052.732.127,1.477.319,1.97-.372.607-.851.176-1.383-.505-2.136a27.6,27.6,0,0,0-10.76-6.929c-3.74-1.448-3.8-3.663-2.82-6.7a71.955,71.955,0,0,1,9.779-20.169,10.5,10.5,0,0,0,1.949-8.032c-1.408-11.47-2.714-22.953-4.041-34.433-.113-.983-.1-1.98-.15-3.049,2.565-.073,4.133,1.636,5.874,2.778,7.1,4.658,14.1,9.451,21.123,14.226a4.2,4.2,0,0,0,4.065.238,72.778,72.778,0,0,1,36.7-3.332c2.237.372,3.49-.717,4.894-2.033,5.954-5.572,11.952-11.1,18.48-17.144,1.741,6.84,3.928,12.879,4.675,19.093.75,6.232,4.62,9.557,9.014,12.74,11.762,8.519,18.1,20.225,20.521,34.3a3.044,3.044,0,0,1-.349,2.495l-4.322-.317a65.032,65.032,0,0,0-.829-9.312c-1.6-12.082-8.123-20.531-18.847-25.407-10.292-4.68-18.832,1.169-18.6,12.462.281,13.635,7.566,23.143,18.949,29.9-1.274,1.131-3.454,1.1-4.027,3.13.6-2.729-.807-4.016-3.26-4.6a40.032,40.032,0,0,0-17.148-.136c-2.856.566-4.649,2.267-4.118,5.525l-12.94-3.182c.012-2.432,0-4.864.041-7.3.23-13.191-6.65-22.187-17.539-28.254-9.983-5.565-19.7-.31-21.212,11.04-1.334,10.034,3.045,18.155,9.083,25.633-1.592,1.432-3.266,2.782-4.763,4.305-8.535,8.7-10.389,23.549-4.305,33.769,4.707,7.908,11.63,12.7,19.6,16.572C900.531,594.6,905.494,594.861,909.553,597.546Z" transform="translate(-797.198 -456.679)"/><path class="h" d="M970.92,515.5l4.322.317c4.983,2.555,10.558,4.108,14.566,8.305,1.024,1.072,3.685,1.854,1.3,4.312-.827.851.259,1.636,1.391,2.009,2.991.988,5.542,8.411,3.97,11.185-.8,1.409-1.68.388-2.573.227a1.586,1.586,0,0,0-2,1.189,1.419,1.419,0,0,0,1.128,1.625c3.8,1.016,2.132,3.367,1.243,5.319-5.882,12.913-16.61,20.539-29.175,25.753a122.908,122.908,0,0,1-55.134,8.985c-1.864-.111-3.74-.027-5.614-.035-4.063-2.684-9.026-2.942-13.335-5.034-7.974-3.869-14.9-8.664-19.6-16.571-6.083-10.22-4.229-25.072,4.305-33.769,1.5-1.524,3.171-2.874,4.764-4.3a71.9,71.9,0,0,0,6.868,5.068c9.021,5.188,18.126,2.638,22.758-6.194q6.471,1.591,12.939,3.178a16.6,16.6,0,0,0,2.05,2.725c4.346,3.846,9.03,7.665,15.215,6.259,4.653-1.058,6.264-5.439,7.262-9.774.573-2.034,2.753-2,4.027-3.13C962.352,526.339,966.336,524.763,970.92,515.5Zm-72.232,31.583c.287,9.733,2.9,18.289,12.2,23.246,7.438,3.968,15.427,4.57,23.568,3.08,12.962-2.371,21.789-10.014,26.938-21.976,1.913-4.443.329-6.219-4.522-5.566-2.283.307-4.579.564-6.878.67a128.789,128.789,0,0,1-45.638-6.112c-4.26-1.367-5.5-.393-5.662,4.059C898.662,545.346,898.688,546.213,898.688,547.079Z" transform="translate(-791.987 -443.82)"/><path class="g" d="M906.714,616.429c1.532,3.241,4.506,5.191,6.943,7.595,8.456,8.34,16.819,16.782,26.2,24.127a7.028,7.028,0,0,0,5.913,1.624c7.03-1.035,14.088-1.2,21.074.649a16.385,16.385,0,0,1,5.493,2.471c5.366,3.888,4.74,10.713-1.218,13.6a34.672,34.672,0,0,1-13.823,3.228c-4.471.186-8.975-.237-13.429.087-7.59.552-12.967-3.365-18.045-8.17q-18.493-17.5-37.035-34.948a65.793,65.793,0,0,0-5.351-4c-3.6-2.739-5.865-5.34-4.472-10.873,1.484-5.9-3.443-10.406-7.037-14.649-1.8-2.125-1.769-2.385.537-4.171,4.154-3.215,8.893-5.727,12.466-9.679,1.252-1.386,2.442-2.835,3.565-4.326a1.731,1.731,0,0,0-.361-2.658c-.942-.594-1.71-.3-2.4.866-3.3,5.629-8.834,8.85-14.014,12.353-4.93,3.334-5.406,5.264-1.8,9.918,1.587,2.049,3.108,4.156,4.532,6.322,1.742,2.647,2.737,5.492.941,8.515a8.879,8.879,0,0,1-8.3,4.61,14.148,14.148,0,0,1-10.139-4.5,54.873,54.873,0,0,1-11.447-19.636,9.437,9.437,0,0,1,2.434-9.615c6.842-6.683,14.365-12.393,23.232-16.259a12.7,12.7,0,0,1,12.025.583c7.64,4.643,16.373,3.957,24.552,5.862a50.584,50.584,0,0,0,10.2.823c5.572.133,7.141,1,6.748,6.206-.342,4.552-.53,9.449-3.658,13.366-1.36-.509-1.725-1.781-2.378-2.9-3.726-6.394-13.461-9.721-18.306-5.957a25.29,25.29,0,0,0-7.718,10.028,7.416,7.416,0,0,0,1.29,8.386A52.112,52.112,0,0,0,906.714,616.429Z" transform="translate(-797.269 -431.719)"/><path class="g" d="M829.794,623.368c13.015,3.565,22.355-4.31,32.261-10.141,2.217-1.3,4.123-2.413,6.694-1.439s5.063.5,7.653-.1c1.617-.377,2.9-2.7,4.661-1.376a64.332,64.332,0,0,1,8.384,7.4c.822.883-.825,2-1.855,2.676-9.812,6.428-20.074,11.966-31.268,15.611-6.481,2.11-6.677,2.538-3.283,8.654.764,1.376,1.419,2.811,2.157,4.2,1.9,3.571,2.562,6.951-.961,10.069-3.055,2.7-7.942,3.547-11.324,1.1-9.706-7.028-16.776-16.091-19.49-27.96C822.017,625.9,824.38,623.114,829.794,623.368Z" transform="translate(-802.379 -421.927)"/><path class="g" d="M912.995,579.1a46.4,46.4,0,0,0,9.9,9.233c6.231,4.7,9.449,4.533,14.392-1.334,2.056-2.438,4.648-3.778,7.329-5.072,3.764-1.817,6.978-.593,9.659,2.33,2.507,2.731,1.861,5.588.023,8.3-11.065,16.345-27.174,22.117-43.474,6.559-1.477-1.409-2.465-2.8-1.38-4.9A32.583,32.583,0,0,0,912.995,579.1Z" transform="translate(-782.443 -429.071)"/><path class="g" d="M833.511,593.731a33.228,33.228,0,0,0,20.071,11.145c4.767.707,6.381,4.918,9.906,6.859a1.7,1.7,0,0,1-.437,2.883c-1.9.963-3.858,2.363-5.855,2.476-12.261.7-24.149-.812-34.854-7.447-1.865-1.156-4.084-2.135-4.828-4.563l-1.423-.927.037.084c.926-7.561,4.053-10.764,11.017-11.216,1.855-.121,3.72-.117,5.58-.17l-.074-.043Z" transform="translate(-803.987 -425.89)"/><path class="h" d="M897.9,613.11a52.111,52.111,0,0,1-12.788-11.124,7.416,7.416,0,0,1-1.29-8.385,25.288,25.288,0,0,1,7.718-10.028c4.845-3.764,14.58-.436,18.306,5.957.653,1.118,1.018,2.391,2.378,2.9A44.15,44.15,0,0,1,897.9,613.11Z" transform="translate(-788.454 -428.4)"/><path class="h" d="M834.492,597.247c-1.86.053-3.725.049-5.581.17-6.964.452-10.09,3.655-11.017,11.216-7.908-7.877-11.154-17.216-8.531-28.222.7-2.956,2.033-5.907,5.576-6.469,3.465-.549,5.09,2.024,6.737,4.466C825.924,584.7,830.218,590.969,834.492,597.247Z" transform="translate(-805.754 -430.283)"/><path class="h" d="M830.394,593.732q-.431-.46-.86-.92C830.209,592.755,830.315,593.231,830.394,593.732Z" transform="translate(-800.869 -425.891)"/><path class="h" d="M816.091,602.021l1.423.927A1.076,1.076,0,0,1,816.091,602.021Z" transform="translate(-803.987 -423.755)"/><path class="f" d="M909.477,529.417c-4.632,8.832-13.737,11.382-22.758,6.194a71.888,71.888,0,0,1-6.868-5.068c-6.039-7.48-10.418-15.6-9.084-25.635,1.509-11.351,11.229-16.6,21.212-11.04,10.889,6.067,17.769,15.062,17.538,28.254C909.476,524.553,909.49,526.985,909.477,529.417Zm-36.028-22.06c-.481,10.824,8.373,24.246,18.255,27.014,10.205,2.859,15.979-2.173,15.561-12.234-.451-10.895-6.142-19.375-15.542-24.957C882.274,491.569,873.937,496.335,873.449,507.357Z" transform="translate(-791.363 -449.354)"/><path class="f" d="M958.721,522.337c-4.584,9.268-8.568,10.843-19.326,7.645-11.383-6.759-18.668-16.267-18.949-29.9-.233-11.293,8.307-17.142,18.6-12.462,10.724,4.876,17.248,13.324,18.847,25.407A65.055,65.055,0,0,1,958.721,522.337Zm-2.753-4.891c.049-10.32-8.462-23.452-18.063-27.131-8.74-3.35-14.747.26-14.416,9.976.408,11.93,6.486,21.169,17.258,26.666C949.168,531.255,955.924,526.842,955.968,517.446Z" transform="translate(-779.788 -450.661)"/><path class="f" d="M937.193,525.3c-1,4.335-2.609,8.716-7.262,9.774-6.185,1.406-10.869-2.413-15.215-6.259a16.594,16.594,0,0,1-2.05-2.725c-.53-3.255,1.264-4.956,4.12-5.521a40.033,40.033,0,0,1,17.148.135C936.386,521.28,937.794,522.567,937.193,525.3Z" transform="translate(-781.613 -442.844)"/><path class="f" d="M892.882,542.495c0-.866-.026-1.733,0-2.6.159-4.452,1.4-5.426,5.662-4.059a128.79,128.79,0,0,0,45.638,6.111c2.3-.106,4.6-.363,6.878-.67,4.851-.653,6.435,1.122,4.522,5.566-5.149,11.962-13.976,19.6-26.938,21.976-8.14,1.49-16.129.888-23.567-3.08C895.787,560.784,893.169,552.228,892.882,542.495Zm59.981,1.71c-2.235.192-4.08.384-5.93.505a133.555,133.555,0,0,1-47.954-5.493c-1.282-.391-3.205-1.965-3.231,1.224-.1,12.368,3.984,21.573,16.753,24.982a35.8,35.8,0,0,0,13.324.832C938.646,564.834,949.927,555.726,952.863,544.2Z" transform="translate(-786.181 -439.235)"/><path class="h" d="M872.9,506.758c.488-11.022,8.825-15.788,18.275-10.177,9.4,5.582,15.091,14.062,15.541,24.957.418,10.061-5.356,15.093-15.561,12.234C881.276,531,872.422,517.581,872.9,506.758ZM892.617,520c.463,2.573,1.617,4.712,4.636,4.661,3.035-.051,4.383-2.266,4.353-4.929-.029-2.715-1.6-4.764-4.565-4.735C894.012,515.031,892.916,517.193,892.617,520Z" transform="translate(-790.816 -448.755)"/><path class="h" d="M955.4,516.863c-.044,9.4-6.8,13.808-15.221,9.51-10.772-5.5-16.85-14.736-17.258-26.666-.331-9.716,5.675-13.325,14.416-9.976C946.935,493.412,955.446,506.544,955.4,516.863ZM950.46,514.1c-.175-2.572-1.062-4.792-4.22-4.849-3.034-.055-4.457,1.921-4.57,4.692-.117,2.821,1.311,4.823,4.266,4.976C949,519.079,950.242,517.086,950.46,514.1Z" transform="translate(-779.217 -450.078)"/><path class="h" d="M952.322,543.6c-2.935,11.521-14.217,20.629-27.039,22.05a35.8,35.8,0,0,1-13.324-.832c-12.768-3.409-16.853-12.613-16.753-24.982.026-3.189,1.949-1.615,3.231-1.224a133.552,133.552,0,0,0,47.954,5.493C948.242,543.983,950.087,543.791,952.322,543.6Z" transform="translate(-785.64 -438.629)"/><path class="f" d="M888.9,516.092c.3-2.811,1.4-4.973,4.424-5,2.966-.028,4.536,2.02,4.565,4.735.03,2.663-1.318,4.878-4.354,4.929C890.519,520.8,889.365,518.665,888.9,516.092Z" transform="translate(-787.102 -444.842)"/><path class="f" d="M946.929,510.2c-.218,2.985-1.46,4.978-4.525,4.819-2.955-.153-4.383-2.155-4.266-4.976.113-2.772,1.536-4.748,4.57-4.692C945.867,505.4,946.754,507.625,946.929,510.2Z" transform="translate(-775.686 -446.173)"/></g></g></svg>