<svg xmlns="http://www.w3.org/2000/svg" width="205.674" height="143.943" viewBox="0 0 205.674 143.943"><g transform="translate(-580.163 -341.701)"><g transform="translate(580.163 368.328)"><g transform="translate(0 -26.627)"><path d="M106.617,57.038a68.242,68.242,0,0,0,34.808-9.832,82.136,82.136,0,0,1,82.811-.011,68.253,68.253,0,0,0,34.808,9.844H283.2a2.385,2.385,0,0,1,2.478,2.281V167.764c0,6.727-5.924,12.18-13.23,12.18H93.23c-7.307,0-13.23-5.453-13.23-12.18V59.319a2.385,2.385,0,0,1,2.478-2.281Z" transform="translate(-80 -36)" fill="#a8d3e6"/><path d="M83.75,103.557v42.388c0,5.482,5.924,9.927,13.23,9.927H267.172c7.307,0,13.23-4.444,13.23-9.927V107c-9.338-1.432-18.228-5.677-31.626-8.939-37.422-9.121-55.89,4.849-110.4,6.9C118.664,105.706,101.208,104.731,83.75,103.557Z" transform="translate(-79.24 -15.129)" fill="#f3fbfb"/></g></g><g transform="translate(629.101 442.234)"><line x2="107.799" fill="none" stroke="#000" stroke-miterlimit="10" stroke-width="1"/><line x2="107.799" transform="translate(0 5.089)" fill="none" stroke="#000" stroke-miterlimit="10" stroke-width="1"/><line x2="107.799" transform="translate(0 10.542)" fill="none" stroke="#000" stroke-miterlimit="10" stroke-width="1"/><line x2="107.799" transform="translate(0 15.995)" fill="none" stroke="#000" stroke-miterlimit="10" stroke-width="1"/><line x2="107.799" transform="translate(0 21.448)" fill="none" stroke="#000" stroke-miterlimit="10" stroke-width="1"/><line x2="10.984" transform="translate(5.306 24.837)" fill="none" stroke="#000" stroke-miterlimit="10" stroke-width="1"/><line x2="10.984" transform="translate(19.744 24.837)" fill="none" stroke="#000" stroke-miterlimit="10" stroke-width="1"/><path d="M107.827,146.165h-.863v16.4a1.982,1.982,0,0,0-.618-.261,4.324,4.324,0,0,0-3,.569c-1.711.971-2.582,2.675-1.935,3.816s2.559,1.28,4.271.309a5.435,5.435,0,0,0,.752-.511,3.573,3.573,0,0,0,1.379-2.188c.007-.054,0-.1.007-.157h.007Z" transform="translate(-93.714 -140.364)"/><path d="M142.989,149h-.863v11.846a1.985,1.985,0,0,0-.619-.261,4.318,4.318,0,0,0-3,.569c-1.712.971-2.583,2.675-1.935,3.816s2.559,1.28,4.271.308a5.4,5.4,0,0,0,.751-.511,3.574,3.574,0,0,0,1.379-2.189c.007-.053.005-.1.007-.157h.008Z" transform="translate(-102.701 -141.088)"/><path d="M127.582,150.523v15.171h-.007c-.007.052,0,.1-.007.156a3.589,3.589,0,0,1-1.385,2.189,4.785,4.785,0,0,1-.752.514c-1.712.968-3.618.834-4.265-.313s.223-2.844,1.935-3.811a4.331,4.331,0,0,1,3-.573,2.269,2.269,0,0,1,.618.261v-13.5Z" transform="translate(-98.763 -141.478)"/><path d="M141.033,148.893l-.127,2.806-11.345,1.064-.863.082V150.2l.863-.089Z" transform="translate(-100.743 -141.061)"/><g transform="translate(47.187 0.096)"><path d="M161.165,142.269H160.3v16.4a2,2,0,0,0-.619-.261,4.319,4.319,0,0,0-3,.569c-1.712.971-2.583,2.675-1.935,3.816s2.559,1.28,4.271.308a5.4,5.4,0,0,0,.751-.511,3.574,3.574,0,0,0,1.379-2.189c.007-.053.005-.1.007-.156h.008Z" transform="translate(-154.534 -139.464)"/><path d="M176.967,138.5H176.1v16.4a1.981,1.981,0,0,0-.618-.261,4.323,4.323,0,0,0-3,.568c-1.711.971-2.582,2.675-1.935,3.817s2.56,1.28,4.271.308a5.3,5.3,0,0,0,.751-.511,3.572,3.572,0,0,0,1.38-2.188c.007-.053,0-.1.007-.157h.007Z" transform="translate(-158.573 -138.501)"/><path d="M191.723,142.269h-.863v16.4a2,2,0,0,0-.619-.261,4.319,4.319,0,0,0-3,.569c-1.711.971-2.583,2.675-1.935,3.816s2.56,1.28,4.271.308a5.4,5.4,0,0,0,.751-.511,3.575,3.575,0,0,0,1.379-2.189,1.381,1.381,0,0,0,.007-.156h.008Z" transform="translate(-162.345 -139.464)"/><path d="M207.106,141.651h-.863v19.354a1.986,1.986,0,0,0-.619-.261,4.321,4.321,0,0,0-3,.569c-1.711.971-2.582,2.675-1.935,3.816s2.559,1.28,4.271.308a5.366,5.366,0,0,0,.752-.511,3.574,3.574,0,0,0,1.379-2.189c.007-.053,0-.1.007-.157h.007Z" transform="translate(-166.277 -139.306)"/><rect width="35.074" height="2.804" transform="translate(5.756 0)"/></g></g><text transform="translate(626.5 384.809)" font-size="16" font-family="BPGArial, BPG Arial"><tspan x="0" y="0">დო-დო-რე-მი-</tspan><tspan x="0" y="20">ფა-მი-რე</tspan></text></g></svg>