<svg xmlns="http://www.w3.org/2000/svg" width="720" height="144.506" viewBox="0 0 720 144.506"><defs><style>.a,.b,.c{fill:none;stroke:#000;}.a,.b{stroke-miterlimit:10;}.b{stroke-width:2px;}.c{stroke-linejoin:bevel;}</style></defs><g transform="translate(-231 -376)"><g transform="translate(400.308 388.001)"><line class="a" x2="117.047"/><line class="a" x2="117.047" transform="translate(0 6.837)"/><line class="a" x2="117.047" transform="translate(0 14.163)"/><line class="a" x2="117.047" transform="translate(0 21.488)"/><line class="a" x2="117.047" transform="translate(0 28.814)"/><line class="a" x2="14.756" transform="translate(12.291 35.721)"/><path d="M115.267,42.613h-1.16V64.647a2.663,2.663,0,0,0-.83-.351,5.814,5.814,0,0,0-4.03.764c-2.3,1.305-3.469,3.594-2.6,5.127s3.438,1.719,5.737.414a7.063,7.063,0,0,0,1.009-.687,4.8,4.8,0,0,0,1.854-2.939c.009-.072.006-.141.009-.211h.01Z" transform="translate(-91.144 -32.465)"/><line class="a" x2="14.756" transform="translate(35.523 35.721)"/><path d="M138.5,42.613h-1.16V64.647a2.669,2.669,0,0,0-.831-.351,5.812,5.812,0,0,0-4.029.764c-2.3,1.305-3.47,3.594-2.6,5.127s3.438,1.719,5.738.414a7.177,7.177,0,0,0,1.009-.687,4.8,4.8,0,0,0,1.853-2.939c.009-.072.007-.141.009-.211h.011Z" transform="translate(-91.144 -32.465)"/><line class="a" x2="14.756" transform="translate(58.756 35.721)"/><path d="M161.732,42.613h-1.16V64.647a2.663,2.663,0,0,0-.83-.351,5.814,5.814,0,0,0-4.03.764c-2.3,1.305-3.469,3.594-2.6,5.127s3.438,1.719,5.737.414a7.062,7.062,0,0,0,1.009-.687,4.8,4.8,0,0,0,1.854-2.939c.009-.072.006-.141.009-.211h.01Z" transform="translate(-91.144 -32.465)"/><path d="M185.383,39.525h-1.16V61.559a2.662,2.662,0,0,0-.83-.35,5.808,5.808,0,0,0-4.03.763c-2.3,1.305-3.469,3.594-2.6,5.127s3.438,1.719,5.737.414a7.129,7.129,0,0,0,1.01-.687,4.8,4.8,0,0,0,1.853-2.939c.009-.071.006-.141.009-.211h.01Z" transform="translate(-91.144 -32.465)"/></g><g transform="translate(488.156 481)"><line class="a" x2="117.047"/><line class="a" x2="117.047" transform="translate(0 6.837)"/><line class="a" x2="117.047" transform="translate(0 14.163)"/><line class="a" x2="117.047" transform="translate(0 21.488)"/><line class="a" x2="117.047" transform="translate(0 28.814)"/><line class="a" x2="14.756" transform="translate(12.291 35.721)"/><path d="M115.267,42.613h-1.16V64.647a2.663,2.663,0,0,0-.83-.351,5.814,5.814,0,0,0-4.03.764c-2.3,1.305-3.469,3.594-2.6,5.127s3.438,1.719,5.737.414a7.063,7.063,0,0,0,1.009-.687,4.8,4.8,0,0,0,1.854-2.939c.009-.072.006-.141.009-.211h.01Z" transform="translate(-91.144 -32.465)"/><line class="a" x2="14.756" transform="translate(35.523 35.721)"/><path d="M138.5,42.613h-1.16V64.647a2.669,2.669,0,0,0-.831-.351,5.812,5.812,0,0,0-4.029.764c-2.3,1.305-3.47,3.594-2.6,5.127s3.438,1.719,5.738.414a7.177,7.177,0,0,0,1.009-.687,4.8,4.8,0,0,0,1.853-2.939c.009-.072.007-.141.009-.211h.011Z" transform="translate(-91.144 -32.465)"/><line class="a" x2="14.756" transform="translate(58.756 35.721)"/><path d="M161.732,42.613h-1.16V64.647a2.663,2.663,0,0,0-.83-.351,5.814,5.814,0,0,0-4.03.764c-2.3,1.305-3.469,3.594-2.6,5.127s3.438,1.719,5.737.414a7.062,7.062,0,0,0,1.009-.687,4.8,4.8,0,0,0,1.854-2.939c.009-.072.006-.141.009-.211h.01Z" transform="translate(-91.144 -32.465)"/><path d="M185.383,39.525h-1.16V61.559a2.662,2.662,0,0,0-.83-.35,5.808,5.808,0,0,0-4.03.763c-2.3,1.305-3.469,3.594-2.6,5.127s3.438,1.719,5.737.414a7.129,7.129,0,0,0,1.01-.687,4.8,4.8,0,0,0,1.853-2.939c.009-.071.006-.141.009-.211h.01Z" transform="translate(-91.144 -32.465)"/></g><g transform="translate(833.953 481)"><line class="a" x2="117.047"/><line class="a" x2="117.047" transform="translate(0 6.837)"/><line class="a" x2="117.047" transform="translate(0 14.163)"/><line class="a" x2="117.047" transform="translate(0 21.488)"/><line class="a" x2="117.047" transform="translate(0 28.814)"/><line class="a" x2="14.756" transform="translate(12.291 35.721)"/><line class="b" x2="9.256" transform="translate(71.291 11.721)"/><path class="c" d="M115.267,42.613h-1.16V64.647a2.663,2.663,0,0,0-.83-.351,5.814,5.814,0,0,0-4.03.764c-2.3,1.305-3.469,3.594-2.6,5.127s3.438,1.719,5.737.414a7.063,7.063,0,0,0,1.009-.687,4.8,4.8,0,0,0,1.854-2.939c.009-.072.006-.141.009-.211h.01Z" transform="translate(-91.144 -32.465)"/></g><g transform="translate(833.953 387.002)"><line class="a" x2="117.047"/><line class="a" x2="117.047" transform="translate(0 6.837)"/><line class="a" x2="117.047" transform="translate(0 14.163)"/><line class="a" x2="117.047" transform="translate(0 21.488)"/><line class="a" x2="117.047" transform="translate(0 28.814)"/><line class="a" x2="14.756" transform="translate(7.128 36.087)"/><line class="a" x2="14.756" transform="translate(26.523 36.087)"/><path d="M110.1,95.932h-1.16v22.034a2.661,2.661,0,0,0-.83-.35,5.808,5.808,0,0,0-4.03.763c-2.3,1.305-3.469,3.594-2.6,5.127s3.438,1.719,5.737.414a7.129,7.129,0,0,0,1.01-.687,4.8,4.8,0,0,0,1.853-2.939c.009-.071.006-.141.009-.211h.01Z" transform="translate(-91.144 -85.419)"/><path d="M185.383,92.479h-1.16v22.034a2.663,2.663,0,0,0-.83-.351,5.808,5.808,0,0,0-4.03.764c-2.3,1.305-3.469,3.594-2.6,5.126s3.438,1.719,5.737.415a7.3,7.3,0,0,0,1.01-.687,4.8,4.8,0,0,0,1.853-2.94c.009-.071.006-.14.009-.21h.01Z" transform="translate(-91.144 -85.419)"/><path d="M163.058,88.851H161.9v22.034a2.669,2.669,0,0,0-.831-.351,5.807,5.807,0,0,0-4.029.764c-2.3,1.305-3.47,3.594-2.6,5.126s3.439,1.719,5.738.415a7.351,7.351,0,0,0,1.009-.687,4.8,4.8,0,0,0,1.853-2.939,1.879,1.879,0,0,0,.009-.211h.011Z" transform="translate(-91.144 -85.419)"/><path d="M145.266,98.763h-1.16v15.915a2.669,2.669,0,0,0-.831-.351,5.807,5.807,0,0,0-4.029.764c-2.3,1.305-3.47,3.594-2.6,5.126s3.438,1.72,5.738.415a7.264,7.264,0,0,0,1.009-.687,4.8,4.8,0,0,0,1.853-2.939c.009-.072.007-.141.009-.211h.011Z" transform="translate(-91.144 -85.419)"/><path d="M123.83,119.489a5.818,5.818,0,0,1,4.03-.77,3.047,3.047,0,0,1,.83.35V100.584l1.16.05v20.555h-.01c-.01.07,0,.14-.01.21a4.821,4.821,0,0,1-1.86,2.94,6.429,6.429,0,0,1-1.01.69c-2.3,1.3-4.86,1.12-5.73-.42S121.53,120.789,123.83,119.489Z" transform="translate(-91.144 -85.419)"/><path d="M145.094,102.432l-16.4,1.535v-3.558l16.569-1.744Z" transform="translate(-91.144 -85.419)"/></g><g transform="translate(647.384 482.999)"><line class="a" x2="144.814"/><line class="a" x2="144.814" transform="translate(0 6.837)"/><line class="a" x2="144.814" transform="translate(0 14.162)"/><line class="a" x2="144.814" transform="translate(0 21.487)"/><line class="a" x2="144.814" transform="translate(0 28.813)"/><line class="a" x2="14.756" transform="translate(7.128 33.366)"/><line class="a" x2="14.756" transform="translate(26.523 33.366)"/><path d="M110.1,146.165h-1.16V168.2a2.663,2.663,0,0,0-.83-.351,5.808,5.808,0,0,0-4.03.764c-2.3,1.305-3.469,3.594-2.6,5.126s3.438,1.719,5.737.415a7.3,7.3,0,0,0,1.01-.687,4.8,4.8,0,0,0,1.853-2.939c.009-.072.006-.141.009-.211h.01Z" transform="translate(-91.144 -138.372)"/><path d="M110.1,146.165h-1.16V168.2a2.663,2.663,0,0,0-.83-.351,5.808,5.808,0,0,0-4.03.764c-2.3,1.305-3.469,3.594-2.6,5.126s3.438,1.719,5.737.415a7.3,7.3,0,0,0,1.01-.687,4.8,4.8,0,0,0,1.853-2.939c.009-.072.006-.141.009-.211h.01Z" transform="translate(24.856 -139.372)"/><path d="M145.266,149h-1.16V164.91a2.667,2.667,0,0,0-.831-.35,5.8,5.8,0,0,0-4.029.764c-2.3,1.3-3.47,3.593-2.6,5.126s3.438,1.719,5.738.414a7.257,7.257,0,0,0,1.009-.686,4.8,4.8,0,0,0,1.853-2.94c.009-.071.007-.14.009-.211h.011Z" transform="translate(-91.144 -138.372)"/><path d="M129.859,150.523V170.9h-.01c-.01.07,0,.14-.01.21a4.821,4.821,0,0,1-1.86,2.94,6.428,6.428,0,0,1-1.01.69c-2.3,1.3-4.86,1.12-5.73-.42s.3-3.82,2.6-5.12a5.819,5.819,0,0,1,4.03-.77,3.047,3.047,0,0,1,.83.35v-18.14Z" transform="translate(-91.144 -138.372)"/><path d="M145.269,148.893l-.17,3.77-15.24,1.43-1.16.11v-3.56l1.16-.12Z" transform="translate(-91.144 -138.372)"/><g transform="translate(63.39 0.129)"><path d="M163.442,142.269h-1.16V164.3a2.691,2.691,0,0,0-.831-.35,5.8,5.8,0,0,0-4.029.764c-2.3,1.3-3.47,3.593-2.6,5.126s3.438,1.719,5.738.414a7.257,7.257,0,0,0,1.009-.686,4.8,4.8,0,0,0,1.853-2.94c.009-.071.007-.14.009-.21h.011Z" transform="translate(-154.534 -138.501)"/><path d="M179.244,138.5h-1.16v22.034a2.662,2.662,0,0,0-.83-.35,5.808,5.808,0,0,0-4.03.763c-2.3,1.305-3.469,3.594-2.6,5.127s3.439,1.719,5.738.414a7.12,7.12,0,0,0,1.009-.687,4.8,4.8,0,0,0,1.854-2.939c.009-.071.006-.141.009-.211h.01Z" transform="translate(-154.534 -138.501)"/><path d="M194,142.269h-1.16V164.3a2.691,2.691,0,0,0-.831-.35,5.8,5.8,0,0,0-4.029.764c-2.3,1.3-3.47,3.593-2.6,5.126s3.439,1.719,5.738.414a7.257,7.257,0,0,0,1.009-.686,4.8,4.8,0,0,0,1.853-2.94,1.851,1.851,0,0,0,.009-.21H194Z" transform="translate(-154.534 -138.501)"/><path d="M209.383,141.651h-1.159v26a2.667,2.667,0,0,0-.831-.35,5.805,5.805,0,0,0-4.03.764c-2.3,1.3-3.469,3.593-2.6,5.126s3.438,1.719,5.737.414a7.207,7.207,0,0,0,1.01-.686,4.8,4.8,0,0,0,1.853-2.94c.009-.071.006-.14.009-.211h.01Z" transform="translate(-154.534 -138.501)"/><rect width="47.117" height="3.767" transform="translate(7.732 0)"/></g></g><g transform="translate(231 384)"><line class="a" x2="124.302" transform="translate(0 3.348)"/><line class="a" x2="124.302" transform="translate(0 10.185)"/><line class="a" x2="124.302" transform="translate(0 17.511)"/><line class="a" x2="124.302" transform="translate(0 24.836)"/><line class="a" x2="124.302" transform="translate(0 32.162)"/><path d="M161.935,189.722v23.45h-.01a1.619,1.619,0,0,1-.01.22,4.834,4.834,0,0,1-1.85,2.94,8.5,8.5,0,0,1-1.01.68c-2.3,1.31-4.87,1.12-5.74-.41s.3-3.82,2.6-5.13a5.823,5.823,0,0,1,4.03-.76,2.661,2.661,0,0,1,.83.35v-21.34Z" transform="translate(-91.144 -189.722)"/><path d="M177.738,192.874h-1.16v22.034a2.669,2.669,0,0,0-.831-.351,5.816,5.816,0,0,0-4.03.764c-2.3,1.305-3.469,3.594-2.6,5.127s3.438,1.719,5.737.414a7.129,7.129,0,0,0,1.01-.687,4.8,4.8,0,0,0,1.853-2.939c.009-.072.006-.141.009-.211h.011Z" transform="translate(-91.144 -189.722)"/><path d="M192.493,192.874h-1.16v25.3a2.663,2.663,0,0,0-.83-.351,5.808,5.808,0,0,0-4.03.764c-2.3,1.305-3.469,3.593-2.6,5.126s3.438,1.719,5.737.414a7.208,7.208,0,0,0,1.01-.686,4.8,4.8,0,0,0,1.853-2.94c.009-.071.006-.14.009-.21h.01Z" transform="translate(-91.144 -189.722)"/><path d="M207.877,192.874h-1.16v29.269a2.663,2.663,0,0,0-.83-.351,5.814,5.814,0,0,0-4.03.764c-2.3,1.3-3.469,3.594-2.6,5.127s3.438,1.719,5.737.414A7.145,7.145,0,0,0,206,227.41a4.8,4.8,0,0,0,1.854-2.939c.009-.072.006-.141.009-.211h.01Z" transform="translate(-91.144 -189.722)"/><rect width="47.11" height="3.77" transform="translate(69.62 0)"/><path d="M101.935,201.792v26.59h-.01a1.62,1.62,0,0,1-.01.22,4.835,4.835,0,0,1-1.85,2.94,8.5,8.5,0,0,1-1.01.68c-2.3,1.31-4.87,1.12-5.74-.41s.3-3.82,2.6-5.13a5.823,5.823,0,0,1,4.03-.76,2.661,2.661,0,0,1,.83.35v-24.48Z" transform="translate(-91.144 -189.722)"/><path d="M117.738,200.538h-1.16v22.033a2.667,2.667,0,0,0-.831-.35,5.805,5.805,0,0,0-4.03.764c-2.3,1.3-3.469,3.593-2.6,5.126s3.438,1.719,5.737.414a7.207,7.207,0,0,0,1.01-.686,4.8,4.8,0,0,0,1.853-2.94c.009-.071.006-.14.009-.211h.011Z" transform="translate(-91.144 -189.722)"/><path d="M132.493,199.9h-1.16v18.9a2.663,2.663,0,0,0-.83-.351,5.809,5.809,0,0,0-4.03.764c-2.3,1.305-3.469,3.594-2.6,5.126s3.438,1.72,5.737.415a7.214,7.214,0,0,0,1.01-.687,4.8,4.8,0,0,0,1.853-2.939c.009-.072.006-.141.009-.211h.01Z" transform="translate(-91.144 -189.722)"/><path d="M147.877,198.535h-1.16v16.491a2.661,2.661,0,0,0-.83-.35,5.8,5.8,0,0,0-4.03.764c-2.3,1.3-3.469,3.593-2.6,5.126s3.438,1.719,5.737.414a7.139,7.139,0,0,0,1.009-.686,4.8,4.8,0,0,0,1.854-2.94c.009-.071.006-.14.009-.211h.01Z" transform="translate(-91.144 -189.722)"/><rect width="47.11" height="3.77" transform="translate(9.62 8.931)"/><line class="a" x2="14.756" transform="translate(0.314 39.371)"/></g><g transform="translate(568.19 376)"><line class="a" x2="217.49" transform="translate(0 10.979)"/><line class="a" x2="217.49" transform="translate(0 17.816)"/><line class="a" x2="217.49" transform="translate(0 25.142)"/><line class="a" x2="217.49" transform="translate(0 32.468)"/><line class="a" x2="217.49" transform="translate(0 39.793)"/><path d="M55.476,267.4v23.79h-.01v.21a4.821,4.821,0,0,1-1.86,2.94,7.28,7.28,0,0,1-1.01.691c-2.3,1.3-4.86,1.109-5.73-.421s.3-3.82,2.59-5.13a5.833,5.833,0,0,1,4.03-.76,2.565,2.565,0,0,1,.83.35v-21.63Z" transform="translate(-37.958 -244.951)"/><path d="M77.527,267.042H76.368v22.034a2.669,2.669,0,0,0-.831-.351,5.809,5.809,0,0,0-4.03.764c-2.3,1.3-3.469,3.594-2.6,5.126s3.438,1.72,5.737.415a7.214,7.214,0,0,0,1.01-.687,4.8,4.8,0,0,0,1.853-2.939c.009-.072.006-.141.009-.211h.01Z" transform="translate(-37.958 -244.951)"/><path d="M90.786,266.194v21.091h-.01c-.01.069,0,.139-.01.209a4.778,4.778,0,0,1-1.86,2.94,6.835,6.835,0,0,1-1,.69c-2.3,1.3-4.87,1.12-5.74-.42s.3-3.82,2.6-5.12a5.829,5.829,0,0,1,4.03-.77,2.921,2.921,0,0,1,.83.35v-18.93Z" transform="translate(-37.958 -244.951)"/><line class="a" x2="14.756" transform="translate(6.407 47.398)"/><line class="a" x2="14.756" transform="translate(26.709 47.398)"/><path d="M90.786,265.915v3.9l-1.16.04-12.1.47-1.16.04-20.89.81-1.16.04v-4.05l1.16-.04,34.15-1.17Z" transform="translate(-37.958 -244.951)"/><path d="M76.98,272.54l13.134-.262v3.4H76.98Z" transform="translate(-37.958 -244.951)"/><path d="M130.849,262.287h-1.16V278.2a2.661,2.661,0,0,0-.83-.35,5.8,5.8,0,0,0-4.03.764c-2.3,1.305-3.469,3.593-2.6,5.126s3.438,1.719,5.737.414a7.207,7.207,0,0,0,1.01-.686,4.8,4.8,0,0,0,1.853-2.94c.009-.071.006-.14.009-.211h.01Z" transform="translate(-37.958 -244.951)"/><path d="M109.673,263.933v20.38h-.01c-.01.07,0,.14-.01.21a4.821,4.821,0,0,1-1.86,2.94,6.431,6.431,0,0,1-1.01.69c-2.3,1.3-4.86,1.12-5.73-.42s.3-3.82,2.6-5.12a5.818,5.818,0,0,1,4.03-.77,3.047,3.047,0,0,1,.83.35v-18.14Z" transform="translate(-37.958 -244.951)"/><path d="M131.019,258.938l-.17,3.77-21.372,2.021-1.16.11v-3.56l1.16-.12Z" transform="translate(-37.958 -244.951)"/><g transform="translate(104.297 0)"><path d="M151.162,252.521H150v22.034a2.661,2.661,0,0,0-.83-.35,5.808,5.808,0,0,0-4.03.763c-2.3,1.305-3.469,3.594-2.6,5.127s3.438,1.719,5.737.414a7.128,7.128,0,0,0,1.01-.687,4.8,4.8,0,0,0,1.853-2.939c.009-.071.006-.141.009-.211h.01Z" transform="translate(-142.255 -244.952)"/><path d="M163.72,244.952h-1.159v25.836a2.669,2.669,0,0,0-.831-.351,5.81,5.81,0,0,0-4.03.764c-2.3,1.305-3.469,3.594-2.6,5.126s3.438,1.719,5.737.415a7.3,7.3,0,0,0,1.01-.687,4.8,4.8,0,0,0,1.853-2.939c.009-.072.006-.141.009-.211h.01Z" transform="translate(-142.255 -244.952)"/><path d="M178,252.521h-1.16v22.034a2.662,2.662,0,0,0-.83-.35,5.808,5.808,0,0,0-4.03.763c-2.3,1.305-3.469,3.594-2.6,5.127s3.438,1.719,5.737.414a7.128,7.128,0,0,0,1.01-.687,4.8,4.8,0,0,0,1.853-2.939c.009-.071.006-.141.009-.211H178Z" transform="translate(-142.255 -244.952)"/><path d="M190.72,251.9h-1.159v26a2.669,2.669,0,0,0-.831-.351,5.816,5.816,0,0,0-4.03.764c-2.3,1.305-3.469,3.594-2.6,5.127s3.438,1.719,5.737.414a7.129,7.129,0,0,0,1.01-.687,4.8,4.8,0,0,0,1.853-2.939c.009-.072.006-.141.009-.211h.01Z" transform="translate(-142.255 -244.952)"/><rect width="40.733" height="7.57" transform="translate(7.732)"/></g><path d="M231.388,262.07h-1.16v23.5a2.661,2.661,0,0,0-.83-.35,5.8,5.8,0,0,0-4.03.764c-2.3,1.3-3.469,3.593-2.6,5.126s3.438,1.719,5.737.414a7.142,7.142,0,0,0,1.009-.686,4.8,4.8,0,0,0,1.854-2.94c.009-.071.006-.14.009-.211h.01Z" transform="translate(-37.958 -244.951)"/><path d="M210.211,257.954v25.917h-.01c-.01.07,0,.14-.01.21a4.821,4.821,0,0,1-1.86,2.94,6.429,6.429,0,0,1-1.01.69c-2.3,1.3-4.86,1.12-5.73-.42s.3-3.82,2.6-5.12a5.819,5.819,0,0,1,4.03-.77,3.047,3.047,0,0,1,.83.35V258.074Z" transform="translate(-37.958 -244.951)"/><path d="M208.856,256.822l.17,3.77,21.372,2.021,1.16.11v-3.56l-1.16-.12Z" transform="translate(-37.958 -244.951)"/></g><g transform="translate(231 467.999)"><line class="a" x2="217.49" transform="translate(0 12.841)"/><line class="a" x2="217.49" transform="translate(0 19.678)"/><line class="a" x2="217.49" transform="translate(0 27.003)"/><line class="a" x2="217.49" transform="translate(0 34.329)"/><line class="a" x2="217.49" transform="translate(0 41.654)"/><path d="M238.941,326.888h-1.16v23.5a2.643,2.643,0,0,0-.831-.35,5.806,5.806,0,0,0-4.029.763c-2.3,1.3-3.47,3.594-2.6,5.127s3.439,1.719,5.738.414a7.179,7.179,0,0,0,1.009-.687,4.8,4.8,0,0,0,1.853-2.939c.009-.071.007-.141.009-.211h.011Z" transform="translate(-37.958 -309.16)"/><path d="M217.764,322.772V348.69h-.01c-.01.07,0,.14-.01.21a4.821,4.821,0,0,1-1.86,2.94,6.356,6.356,0,0,1-1.01.689c-2.3,1.3-4.86,1.121-5.73-.419s.3-3.821,2.6-5.12a5.813,5.813,0,0,1,4.03-.77,3.045,3.045,0,0,1,.83.349V322.892Z" transform="translate(-37.958 -309.16)"/><path d="M216.409,321.641l.17,3.77,21.372,2.021,1.16.11v-3.56l-1.16-.12Z" transform="translate(-37.958 -309.16)"/><path d="M69.986,328.285h-1.16v23.5a2.661,2.661,0,0,0-.83-.35,5.8,5.8,0,0,0-4.03.764c-2.3,1.3-3.47,3.593-2.6,5.126s3.439,1.719,5.738.414a7.259,7.259,0,0,0,1.009-.686,4.8,4.8,0,0,0,1.854-2.94c.009-.071.006-.14.008-.211h.011Z" transform="translate(-37.958 -309.16)"/><path d="M83.538,327.76h-1.16v20.261a2.663,2.663,0,0,0-.83-.351,5.808,5.808,0,0,0-4.03.764c-2.3,1.305-3.469,3.594-2.6,5.126s3.438,1.72,5.737.415a7.214,7.214,0,0,0,1.01-.687,4.8,4.8,0,0,0,1.853-2.939c.009-.072.006-.141.009-.211h.01Z" transform="translate(-37.958 -309.16)"/><path d="M96.829,326.016h-1.16v17.557a2.661,2.661,0,0,0-.83-.35,5.808,5.808,0,0,0-4.03.763c-2.3,1.3-3.47,3.594-2.6,5.127s3.439,1.719,5.738.414a7.179,7.179,0,0,0,1.009-.687A4.8,4.8,0,0,0,96.81,345.9c.009-.071.006-.141.009-.211h.01Z" transform="translate(-37.958 -309.16)"/><path d="M57.181,330.866v25.918h-.01c-.01.069,0,.139-.01.209a4.821,4.821,0,0,1-1.86,2.94,6.429,6.429,0,0,1-1.01.69c-2.3,1.3-4.86,1.12-5.73-.42s.3-3.82,2.6-5.12a5.818,5.818,0,0,1,4.03-.77,3.079,3.079,0,0,1,.83.35V330.986Z" transform="translate(-37.958 -309.16)"/><path d="M56.021,337.074l40.116-1.884v-3.977l-40.116,1.779Z" transform="translate(-37.958 -309.16)"/><path d="M56.021,331.877l40.116-1.884v-3.977L56.021,327.8Z" transform="translate(-37.958 -309.16)"/><path d="M135.642,315.452h-1.16V336.24a2.663,2.663,0,0,0-.83-.351,5.814,5.814,0,0,0-4.03.764c-2.3,1.3-3.47,3.594-2.6,5.127s3.439,1.719,5.738.414a7.176,7.176,0,0,0,1.009-.687,4.8,4.8,0,0,0,1.853-2.939,1.879,1.879,0,0,0,.009-.211h.011Z" transform="translate(-37.958 -309.16)"/><path d="M114.465,317.475v24.877h-.01c-.01.069,0,.139-.01.209a4.821,4.821,0,0,1-1.86,2.94,6.431,6.431,0,0,1-1.01.69c-2.3,1.3-4.86,1.12-5.73-.42s.3-3.82,2.6-5.12a5.818,5.818,0,0,1,4.03-.77,3.046,3.046,0,0,1,.83.35V317.6Z" transform="translate(-37.958 -309.16)"/><path d="M135.812,313.558l-.17,3.77-21.372,2.021-1.16.11V315.9l1.16-.12Z" transform="translate(-37.958 -309.16)"/><path d="M183.43,311.428h-1.16v29.246a2.664,2.664,0,0,0-.83-.351,5.808,5.808,0,0,0-4.03.764c-2.3,1.3-3.47,3.594-2.6,5.126s3.439,1.72,5.738.415a7.264,7.264,0,0,0,1.009-.687A4.8,4.8,0,0,0,183.41,343a1.883,1.883,0,0,0,.009-.211h.011Z" transform="translate(-37.958 -309.16)"/><path d="M170.1,310.9h-1.16v26.421a2.663,2.663,0,0,0-.83-.351,5.814,5.814,0,0,0-4.03.764c-2.3,1.3-3.469,3.594-2.6,5.127s3.438,1.719,5.737.414a7.128,7.128,0,0,0,1.01-.687,4.8,4.8,0,0,0,1.853-2.939c.009-.072.006-.141.009-.211h.01Z" transform="translate(-37.958 -309.16)"/><path d="M157.313,309.16h-1.159v23.445a2.669,2.669,0,0,0-.831-.351,5.815,5.815,0,0,0-4.03.764c-2.3,1.3-3.469,3.594-2.6,5.127s3.438,1.719,5.737.414a7.128,7.128,0,0,0,1.01-.687,4.8,4.8,0,0,0,1.853-2.939c.009-.072.006-.141.009-.211h.01Z" transform="translate(-37.958 -309.16)"/><path d="M195.874,314.009v33.2h-.01c-.01.07,0,.14-.01.21a4.821,4.821,0,0,1-1.86,2.94,6.431,6.431,0,0,1-1.01.69c-2.3,1.3-4.86,1.12-5.73-.42s.3-3.82,2.6-5.12a5.818,5.818,0,0,1,4.03-.77,3.046,3.046,0,0,1,.83.35V314.13Z" transform="translate(-37.958 -309.16)"/><path d="M195.874,320.218l-40.116-1.884v-3.977l40.116,1.779Z" transform="translate(-37.958 -309.16)"/><path d="M195.874,315.02l-40.116-1.884V309.16l40.116,1.779Z" transform="translate(-37.958 -309.16)"/></g></g></svg>