<svg xmlns="http://www.w3.org/2000/svg" xmlns:xlink="http://www.w3.org/1999/xlink" width="720.779" height="460.093" viewBox="0 0 720.779 460.093"><defs><style>.a,.k,.l,.n{fill:none;}.b{clip-path:url(#a);}.c{fill:#e3f5f6;}.d,.m{fill:#4a5e3a;}.d,.f,.g,.h,.i{fill-rule:evenodd;}.e,.f{fill:#243330;}.g{fill:#7dacb0;}.h,.j{fill:#99d3d8;}.i{fill:#5e8285;}.k,.l{stroke:#243330;}.k,.l,.n{stroke-miterlimit:10;}.k{stroke-width:0.5px;}.l{stroke-width:0.407px;}.n{stroke:#4a5e3a;stroke-width:1.552px;}</style><clipPath id="a"><path class="a" d="M326.782,563.868c59.561,5.789,57.2,20.773,111.232,26.549,62.782,6.712,129.8-7.789,129.8-7.789h0c1.789-.5,57.355-7.04,92.537-28.691,44.255-27.231,29.938-62.165,74.247-110.345,50.193-54.576,95.032-38.53,107.6-73.931,18.093-50.948-50.833-151.58-134.5-168.83-72.979-15.043-105.31,44.04-184,22.07-51.217-14.3-49.634-42.7-106.528-58.482-20.283-5.625-92.007-21.85-154.949,20.964C204.7,224.514,164.229,306.347,186.9,357.522c20.235,45.683,77.924,37.905,89.312,81.657,12.321,47.334-46.511,89.836-30.129,114.758C255.208,567.826,276.33,558.965,326.782,563.868Z" transform="translate(-180.496 -156.692)"/></clipPath></defs><g transform="translate(-154.291 -156.692)"><g transform="translate(204.088 156.692)"><g class="b"><path class="c" d="M320.6,607.008c67.826,6.591,65.144,23.653,126.667,30.231,71.494,7.645,147.812-8.869,147.812-8.869h0c2.04-.565,65.317-8.019,105.381-32.672,50.393-31.01,34.091-70.791,84.55-125.657,57.157-62.148,108.217-43.876,122.536-84.189,20.6-58.018-57.887-172.616-153.17-192.257-83.106-17.131-119.921,50.151-209.536,25.132-58.323-16.283-56.52-48.631-121.309-66.6-23.1-6.406-104.776-24.881-176.451,23.874-65.508,44.56-111.591,137.749-85.776,196.026,23.044,52.023,88.738,43.166,101.707,92.987,14.031,53.9-52.965,102.3-34.311,130.683C239.1,611.514,263.151,601.423,320.6,607.008Z" transform="translate(-205.065 -169.748)"/><g transform="translate(196.948 29.323)"><g transform="translate(62.039)"><path class="d" d="M343.817,218.193l1.17,261.36c-2.535-.04-5.119-.1-7.7-.162-3.2-.079-6.42-.16-9.547-.259-2.144-.059-4.249-.125-6.293-.208l1.446-260.676.006-.049,6.154,0,8.116,0,6.636,0Z" transform="translate(-308.697 -125.929)"/><path class="d" d="M327.442,266.247l-8.774-14.3c-3.794-6.18,13.6-62.6,22.161-76.489,2.383-3.863,6.7-5.975,8.631-1.127l6.034,15.158c1.637,4.114-7.839,11.912-4.132,27.35l5.847,24.349c1.068,4.45-4.473,6.706-7.4,12.352s-2.928,8.821-3.1,13.938S328.992,272.775,327.442,266.247Z" transform="translate(-311.768 -171.524)"/><path class="e" d="M.048.022,3.119,0,3.071,6.459,0,6.481Z" transform="matrix(0.306, -0.952, 0.952, 0.306, 18.927, 15.903)"/><path class="f" d="M326.5,185.478a8.841,8.841,0,0,0,2.574-7.983l-3.36-1.105c-1.041.206-3.459,2.408-2.687,7.88Z" transform="translate(-307.363 -166.769)"/><path class="e" d="M.048.022,3.12,0,3.072,6.459,0,6.482Z" transform="matrix(0.306, -0.952, 0.952, 0.306, 14.799, 27.264)"/><path class="f" d="M324.364,191.223a8.845,8.845,0,0,0,2.574-7.979l-3.362-1.107c-1.039.206-3.457,2.408-2.686,7.88Z" transform="translate(-309.35 -161.154)"/><path class="e" d="M.048.022,3.119,0,3.071,6.459,0,6.482Z" transform="translate(11.18 38.645) rotate(-72.175)"/><path class="f" d="M322.486,196.98A8.828,8.828,0,0,0,325.06,189l-3.36-1.107c-1.041.208-3.457,2.408-2.686,7.884Z" transform="translate(-311.091 -155.529)"/><path class="e" d="M.048.022,3.119,0,3.071,6.459,0,6.482Z" transform="translate(7.866 50.242) rotate(-72.175)"/><path class="f" d="M320.767,202.846a8.843,8.843,0,0,0,2.574-7.979l-3.36-1.107c-1.041.208-3.459,2.408-2.686,7.882Z" transform="translate(-312.686 -149.798)"/><path class="e" d="M.048.022,3.119,0,3.071,6.459,0,6.482Z" transform="translate(5.088 61.545) rotate(-72.175)"/><path class="f" d="M319.327,208.563a8.841,8.841,0,0,0,2.574-7.979l-3.36-1.107c-1.041.206-3.459,2.408-2.687,7.882Z" transform="translate(-314.024 -144.213)"/><path class="e" d="M.048.022,3.12,0,3.072,6.459,0,6.481Z" transform="translate(3.406 73.723) rotate(-72.188)"/><path class="f" d="M318.452,214.722a8.823,8.823,0,0,0,2.574-7.977l-3.36-1.109c-1.041.206-3.457,2.41-2.684,7.882Z" transform="translate(-314.832 -138.195)"/></g><path class="g" d="M287.793,330.335l-1.838-45.708,192.077-57.018,45.032,30.158-28.49,66.913L290.091,343.53Z" transform="translate(-279.588 -116.727)"/><path class="h" d="M284.491,327.381l-1.838-45.708,192.077-57.018,45.032,30.158-28.49,66.913L286.788,340.575Z" transform="translate(-282.653 -119.613)"/><path class="g" d="M406.221,239.909l6.367,5.841-7.573.344.207-3.839Z" transform="translate(-169.112 -104.709)"/><path class="i" d="M284.8,292.6l6.367,5.841L495.648,279.6l-6.367-5.841Z" transform="translate(-280.662 -71.642)"/><path class="h" d="M302.789,364V314.52l122.229-19.79v76.337Z" transform="translate(-263.968 -51.148)"/><path class="g" d="M366.189,294.73l8.271,6.126V368.24l-8.271,2.827Z" transform="translate(-205.139 -51.149)"/><path class="d" d="M420.2,409.052c-.264-1.621-19.316.522-39.223,3.039-15.246,1.908-31.022,4.035-39.2,4.846a47.492,47.492,0,0,1-5.171.338c-9.221-.421-23.333-2.786-28.7-11.651-1.136-1.841-2.42-4.019-3.736-6.4-5.336-9.575-13.009-24.6-6.834-35.476,12.942-22.813,44.014-2.651,61.764-11.044,14.835-7.024,47.29-20.043,65.863-.862C443.534,371.042,415.641,381.748,420.2,409.052Z" transform="translate(-271.158 -5.133)"/><path class="f" d="M358.486,385.387c-15.246,1.908-31.022,4.035-39.2,4.846,1.234-11.87,9.747-21.073,20.071-21.073C348.212,369.16,355.754,375.949,358.486,385.387Z" transform="translate(-248.664 21.571)"/><path class="j" d="M309.978,354.218l-14.937-27.861,14.937-21.617Z" transform="translate(-271.158 -41.368)"/><line class="k" y1="32.904" x2="143.111" transform="translate(26.211 138.292)"/><line class="k" y1="29.931" x2="152.521" transform="translate(26.211 148.446)"/><line class="k" y1="24.949" x2="158.753" transform="translate(26.211 159.488)"/><line class="k" y1="23.035" x2="153.908" transform="translate(26.211 169.954)"/><line class="k" y1="19.598" x2="151.636" transform="translate(26.211 180.011)"/><g transform="translate(38.888 264.623)"><line class="l" x1="104.09" y2="10.933" transform="translate(4.055)"/><line class="l" x1="106.815" y2="7.744" transform="translate(1.119 9.448)"/><line class="l" x1="107.728" y2="3.728" transform="translate(0 18.638)"/><line class="l" x1="106.995" y2="2.895" transform="translate(0.558 26.386)"/><line class="l" x1="104.305" y2="0.744" transform="translate(3.077 34.016)"/></g><path class="e" d="M4.835,0C7.5-.006,9.655,1.78,9.65,3.99S7.48,8,4.816,8-.005,6.224,0,4.013,2.17.007,4.835,0Z" transform="translate(79.185 184.906) rotate(-5.513)"/><ellipse class="e" cx="3.613" cy="2.998" rx="3.613" ry="2.998" transform="translate(78.198 293.014)"/><ellipse class="e" cx="3.613" cy="2.998" rx="3.613" ry="2.998" transform="translate(113.573 281.428)"/><path class="e" d="M3.62,0c2,0,3.611,1.335,3.608,2.99s-1.624,3-3.62,3S0,4.66,0,3,1.624,0,3.62,0Z" transform="translate(58.058 274.375) rotate(-4.678)"/><path class="e" d="M4.835,0C7.5-.006,9.655,1.78,9.65,3.99S7.48,8,4.816,8-.005,6.224,0,4.013,2.17.007,4.835,0Z" transform="translate(43.676 194.031) rotate(-5.513)"/><path class="e" d="M4.835,0C7.5-.006,9.655,1.78,9.65,3.99S7.48,8,4.816,8-.005,6.224,0,4.013,2.17.007,4.835,0Z" transform="translate(119.734 165.323) rotate(-5.513)"/></g></g></g><path class="m" d="M563.373,281.726c-4.556-15.773,2.581-27.208,2.637-27.275l.1-.119-3.391-2.89-43.135,53.749a19.075,19.075,0,0,0-6.713-12.151c-7.191-6.129-17.058-6.111-22.038.036s-3.1,15.976,4.095,22.105c7.128,6.073,16.586,6.471,22,0l-.077-.067-.077.095.014-.016.017-.022,28.419-35.246c-.5,4.112-.106,9.818,1.9,18.4,4.012,17.166-10.424,19.157-10.424,19.157,7.9,2.007,16.007-3.474,15.826-14.27C560.468,302.787,567.163,294.843,563.373,281.726ZM551.4,296.352a36.321,36.321,0,0,1,2.352-26.951l3.422-4.257c-.526,4.124-.166,9.84,1.86,18.513,2.628,11.249-2.67,15.978-6.634,17.9A27.649,27.649,0,0,0,551.4,296.352Z" transform="translate(308.963 92.573)"/><path class="m" d="M252.755,350.863c-4.461,3.869-5.462,10.19-2.456,14l-.075.063-.008-.01.01.014.052-.014,28.321,34.04-21.857,24.59-24.469-29.383a11.506,11.506,0,0,0,8.115-2.948C244.9,387.3,245.975,381,242.8,377.147s-9.364-3.748-13.875.164c-4.459,3.871-5.46,10.19-2.456,14l-.075.065-.008-.01.012.014.05-.014,31.608,37.957,0,0,.555.668,25.658-28.534-3.788-4.494-24.367-29.252a11.488,11.488,0,0,0,8.111-2.944c4.511-3.913,5.612-10.18,2.433-14.035S257.265,346.95,252.755,350.863Z" transform="translate(64.651 186.797)"/><g transform="translate(155.07 225.914)"><path class="n" d="M165.332,384.9s-45.724-74.9,55.861-96.7S297.116,191.7,297.116,191.7" transform="translate(-155.07 -191.705)"/><path class="n" d="M175.346,396.242s-45.724-74.893,55.863-96.7,75.923-96.49,75.923-96.49" transform="translate(-145.778 -180.618)"/></g></g></svg>