<svg xmlns="http://www.w3.org/2000/svg" width="205.674" height="145" viewBox="0 0 205.674 145"><defs><style>.a{fill:#a8d3e6;}.b{fill:#f3fbfb;}.c{fill:none;stroke:#000;stroke-miterlimit:10;}.d{font-size:16px;font-family:BPGArial, BPG Arial;}</style></defs><g transform="translate(-323 -567)"><g transform="translate(323 594.684)"><path class="a" d="M259.044,228.192a67.882,67.882,0,0,1-34.808-9.916,81.62,81.62,0,0,0-82.811.011,67.871,67.871,0,0,1-34.808,9.9H82.475a2.39,2.39,0,0,0-2.475,2.3V339.731C80,346.507,85.924,352,93.23,352H272.443c7.307,0,13.23-5.493,13.23-12.269V230.488a2.39,2.39,0,0,0-2.475-2.3Z" transform="translate(-80 -234.684)"/><path class="b" d="M280.051,276.513v39.643c0,5.482-5.924,9.927-13.23,9.927H97.23c-7.307,0-13.23-4.444-13.23-9.927V273.021c17.4,1.19,19.33,2.179,38.981,1.427,24.512-.936,42.4-7.509,58.471-10.5,19.571-3.641,46.594-1.576,67.071,3.5C261.879,270.755,270.742,275.06,280.051,276.513Z" transform="translate(-79.189 -212.376)"/></g><line class="c" x2="161.899" transform="translate(344.101 670.173)"/><line class="c" x2="161.899" transform="translate(344.101 675.263)"/><line class="c" x2="161.899" transform="translate(344.101 680.716)"/><line class="c" x2="161.899" transform="translate(344.101 686.169)"/><line class="c" x2="161.899" transform="translate(344.101 691.622)"/><path d="M53.2,267.4v17.709h-.007v.156a3.589,3.589,0,0,1-1.385,2.189,5.418,5.418,0,0,1-.752.514c-1.712.967-3.618.826-4.265-.313s.223-2.844,1.928-3.819a4.342,4.342,0,0,1,3-.566,1.91,1.91,0,0,1,.618.261v-16.1Z" transform="translate(303.939 411.31)"/><path d="M75.25,267.042h-.863v16.4a1.987,1.987,0,0,0-.619-.261,4.325,4.325,0,0,0-3,.569c-1.711.971-2.582,2.675-1.935,3.816s2.559,1.28,4.271.309a5.369,5.369,0,0,0,.752-.511,3.573,3.573,0,0,0,1.379-2.188c.007-.054,0-.1.007-.157h.007Z" transform="translate(298.305 411.403)"/><path d="M88.509,266.194v15.7H88.5c-.007.051,0,.1-.007.156a3.556,3.556,0,0,1-1.385,2.189,5.089,5.089,0,0,1-.744.514c-1.712.968-3.625.834-4.273-.313s.223-2.844,1.935-3.811a4.339,4.339,0,0,1,3-.573,2.174,2.174,0,0,1,.618.261V266.224Z" transform="translate(294.917 411.62)"/><line class="c" x2="10.984" transform="translate(348.87 697.283)"/><line class="c" x2="10.984" transform="translate(363.983 697.283)"/><path d="M81.464,265.915v2.9l-.863.03-9.007.35-.863.03-15.55.6-.863.03v-3.015l.863-.03,25.421-.871Z" transform="translate(301.962 411.691)"/><path d="M76.98,272.473l9.777-.195v2.532H76.98Z" transform="translate(296.169 410.064)"/><path d="M128.572,262.287h-.864v11.846a1.981,1.981,0,0,0-.618-.26,4.32,4.32,0,0,0-3,.569c-1.711.971-2.582,2.675-1.935,3.816s2.559,1.28,4.271.308a5.369,5.369,0,0,0,.752-.511,3.575,3.575,0,0,0,1.379-2.189c.007-.053,0-.1.007-.157h.007Z" transform="translate(284.676 412.618)"/><path d="M107.4,263.933V279.1h-.007c-.007.052,0,.1-.007.156A3.589,3.589,0,0,1,106,281.449a4.787,4.787,0,0,1-.752.514c-1.712.968-3.618.834-4.265-.313s.223-2.844,1.935-3.811a4.331,4.331,0,0,1,3-.573,2.268,2.268,0,0,1,.618.261v-13.5Z" transform="translate(290.089 412.198)"/><path d="M125.217,258.938l-.127,2.806-15.909,1.5-.863.082v-2.65l.863-.089Z" transform="translate(288.159 413.474)"/><g transform="translate(421.739 662.001)"><path d="M148.885,252.521h-.864v16.4a1.981,1.981,0,0,0-.618-.261,4.324,4.324,0,0,0-3,.568c-1.711.971-2.582,2.675-1.935,3.817s2.559,1.28,4.271.308a5.3,5.3,0,0,0,.752-.511,3.571,3.571,0,0,0,1.379-2.188c.007-.053,0-.1.007-.157h.007Z" transform="translate(-142.255 -246.886)"/><path d="M161.443,244.952h-.863v19.232a1.986,1.986,0,0,0-.619-.261,4.325,4.325,0,0,0-3,.569c-1.711.971-2.582,2.675-1.935,3.816s2.559,1.28,4.271.309a5.435,5.435,0,0,0,.752-.511,3.573,3.573,0,0,0,1.379-2.188c.007-.054,0-.1.007-.157h.007Z" transform="translate(-145.465 -244.952)"/><path d="M175.722,252.521h-.863v16.4a1.98,1.98,0,0,0-.618-.261,4.324,4.324,0,0,0-3,.568c-1.711.971-2.582,2.675-1.935,3.817s2.559,1.28,4.271.308a5.3,5.3,0,0,0,.752-.511,3.571,3.571,0,0,0,1.379-2.188c.007-.053,0-.1.007-.157h.007Z" transform="translate(-149.115 -246.886)"/><path d="M188.443,251.9h-.863v19.354a1.987,1.987,0,0,0-.619-.261,4.329,4.329,0,0,0-3,.569c-1.711.971-2.582,2.675-1.935,3.817s2.559,1.28,4.271.308a5.307,5.307,0,0,0,.752-.511,3.573,3.573,0,0,0,1.379-2.188c.007-.054,0-.1.007-.157h.007Z" transform="translate(-152.366 -246.729)"/><rect width="30.322" height="5.635" transform="translate(5.756)"/></g><path d="M229.111,262.07h-.863v17.5a1.981,1.981,0,0,0-.618-.261,4.32,4.32,0,0,0-3,.569c-1.711.971-2.582,2.675-1.935,3.816s2.559,1.28,4.271.308a5.315,5.315,0,0,0,.751-.511,3.572,3.572,0,0,0,1.38-2.189c.007-.053,0-.1.007-.157h.007Z" transform="translate(258.978 412.674)"/><path d="M207.934,257.954v19.293h-.007c-.007.052,0,.1-.007.156a3.589,3.589,0,0,1-1.385,2.189,4.787,4.787,0,0,1-.752.514c-1.712.968-3.618.834-4.265-.313s.223-2.844,1.935-3.811a4.331,4.331,0,0,1,3-.573,2.268,2.268,0,0,1,.618.261V258.043Z" transform="translate(264.391 413.726)"/><path d="M208.856,256.822l.127,2.806,15.909,1.5.863.082v-2.65l-.863-.089Z" transform="translate(262.461 414.015)"/><text class="d" transform="translate(330 610.809)"><tspan x="0" y="0">დო-დო-რე-მი-ფა-</tspan><tspan x="0" y="20">სოლ-ლა-სოლ-ფა-მი-რე</tspan></text></g></svg>