<svg xmlns="http://www.w3.org/2000/svg" xmlns:xlink="http://www.w3.org/1999/xlink" width="1366" height="707.29" viewBox="0 0 1366 707.29"><defs><style>.a,.ae,.n,.t{fill:none;}.b{clip-path:url(#a);}.c{fill:#f7d45e;}.d{fill:#ffe182;}.e{fill:#c2c2c2;}.e,.v{opacity:0.2;}.f{fill:#fff;}.g{fill:#fcb95d;}.ab,.ac,.g,.h,.i,.j,.l,.n,.o,.p,.q,.r,.s,.t,.u,.v{fill-rule:evenodd;}.aj,.h{fill:#a1dd6f;}.aa,.i{opacity:0.15;}.ag,.j{fill:#4a5e3a;}.k,.l{fill:#243330;}.m,.p{fill:#171f1c;}.n{stroke:#a1dd70;stroke-width:1.305px;}.ae,.n,.t{stroke-miterlimit:10;}.o{fill:#243e41;}.q{fill:#c98121;}.r{fill:#f7805c;}.s{fill:#7fd1d8;}.t{stroke:#3e6569;stroke-width:8.509px;}.w{fill:#6d6e71;}.x{fill:#bcbec0;}.y{fill:#e6e7e8;}.z{opacity:0.5;}.ab,.ad{fill:#d1d3d4;}.ac{fill:#36a5ad;}.ae{stroke:#4a5e3a;stroke-width:1.249px;}.af{fill:#2e1f1a;}.ah{fill:#39472e;}.ai{fill:#222e17;}.ak{fill:#93c965;}.al{fill:#bababa;}.am{fill:#3b3b3b;}</style><clipPath id="a"><rect class="a" width="1366" height="707.29" transform="translate(0 -1861.953)"/></clipPath></defs><g transform="translate(0 1861.953)"><g class="b"><path class="c" d="M1366-1905.534v758.464l-242.228-67.587-32.991-6.263,1.636-558.092,29.006-38.07Z"/><path class="c" d="M316.3-1797.265l-16.051,556.371L.2-1166.5v-750.053l298.845,93.571Z"/><path class="d" d="M697.978-1833.665H273.37v617.384h849.165v-617.384Z"/><path class="e" d="M1122.535-1817.484v-16.18H273.37v2.648L.2-1916.548V-1166.5L273.37-1234.23v17.949h841.85l8.552,1.624L1366-1147.071v-758.464Z"/><path class="f" d="M0-1861.956c121.657,30.38,335.7,73.888,615,80.372,352.972,8.195,622.429-47.1,751-78.7v-62.455H0Z"/><path class="f" d="M0-1197.406c121.657-30.38,335.7-73.889,615-80.373,352.972-8.194,622.429,47.1,751,78.7v48.78L.2-1147.462Z"/><path class="g" d="M383.137-1250.662s-.979,13.757-2.45,18.224,9.341,3.078,9.818,3.247,8.842-5.345,8.842-5.345-5.356-1.629-3.6-18.647S383.137-1250.662,383.137-1250.662Z"/><path class="g" d="M288.718-1249.548s.979,13.757,2.45,18.224-9.341,3.078-9.818,3.247-8.842-5.345-8.842-5.345,5.356-1.629,3.6-18.647S288.718-1249.548,288.718-1249.548Z"/><path class="h" d="M323.675-1388.607c-1.113,5.215-5.464,11.971-8.506,23.567a95.969,95.969,0,0,0-2.953,20.252c-.958,21.686-8.536,28.18-10.09,34.984a10.412,10.412,0,0,0-.244,3.256c1.7,19.752-7.8,58.475-7.8,58.475s-2.024.172-4.9.268c-6.876.226-18.644-.012-19.609-4.167-1.375-5.9-6.72-20.752-6.72-28.943s3.542-22.567,4.7-26.055,1.911-19.329,0-24.788c-2.178-6.232-.137-19.227,2.929-31.93,3.554-14.716,8.495-29.032,9.87-31.961,0,0,24.639-10.578,29.919-8.542S325.318-1396.3,323.675-1388.607Z"/><path class="h" d="M405.729-1280.915c0,8.191-5.346,23.043-6.721,28.943s-24.514,3.9-24.514,3.9-9.5-38.723-7.8-58.475c.72-8.411-9.221-13.179-10.334-38.24a95.378,95.378,0,0,0-3.167-21.055c-3.03-11.108-7.2-17.674-8.292-22.764-1.643-7.7,8.137-13.542,13.418-15.584s29.918,8.542,29.918,8.542a178.049,178.049,0,0,1,5.87,17.221c4.744,15.871,9.983,37.932,6.929,46.67-1.911,5.459-1.155,21.305,0,24.788S405.729-1289.106,405.729-1280.915Z"/><path class="i" d="M323.675-1388.607c-1.113,5.215-5.464,11.971-8.506,23.567-6.084-.786-13.954-4.268-21.817-7.06-6.584-2.333-16.2,3.506-22.883,8.412,3.554-14.716,8.495-29.032,9.87-31.961,0,0,24.639-10.578,29.919-8.542S325.318-1396.3,323.675-1388.607Z"/><path class="i" d="M394.1-1378.428a73.849,73.849,0,0,0-24.133,8.007,46.467,46.467,0,0,1-16.781,4.578c-3.03-11.108-7.2-17.674-8.292-22.764-1.643-7.7,8.137-13.542,13.418-15.584s29.918,8.542,29.918,8.542A178.049,178.049,0,0,1,394.1-1378.428Z"/><path class="j" d="M299.377-1491.984c-5.071-3.983-18.357-13.362-28.782-7.47s-7.73,18.847-12.24,24.322-26.115-8.412-48.423,15.574c-25.682,27.614-4.339,48.958,13.058,63.291,17.91,14.755,46.449,8.227,60.91-9.326,13.721-16.654,3.091-32.821,8.7-39.622s14.012-7.983,17.52-11.465c3.527-3.5,4.482-5.776,2.325-7.553s-6.667,1.8-11.334-3.119c-4.632-4.881-2.873-12.764.954-17.408S301.58-1490.252,299.377-1491.984Z"/><path class="j" d="M284.746-1482.773l10.216,8.417L421.955-1630.3l-8.254-6.8Z"/><path class="j" d="M413.505-1635.678l1.069-8.351c.462-3.611,25.2-19.667,32.986-22.227,2.164-.713,4.537-.121,3.762,2.371l-2.423,7.794c-.658,2.114-6.867,2.035-10.3,9.18l-5.41,11.269c-.989,2.059-3.89,1.126-6.833,2.348s-3.952,2.443-5.641,4.355S412.048-1632.662,413.505-1635.678Z"/><rect class="k" width="1.535" height="3.294" transform="matrix(0.841, -0.541, 0.541, 0.841, 439.796, -1664.95)"/><path class="l" d="M438.965-1663.8a4.343,4.343,0,0,0,3.546-2.235l-.975-1.518c-.477-.259-2.129-.2-3.559,2.159Z"/><rect class="k" width="1.535" height="3.294" transform="matrix(0.841, -0.54, 0.54, 0.841, 434.567, -1661.921)"/><path class="l" d="M433.736-1660.768a4.345,4.345,0,0,0,3.545-2.233l-.976-1.52c-.475-.258-2.127-.2-3.557,2.16Z"/><rect class="k" width="1.535" height="3.294" transform="translate(429.532 -1658.718) rotate(-32.695)"/><path class="l" d="M428.7-1657.565a4.338,4.338,0,0,0,3.544-2.233l-.974-1.519c-.477-.258-2.128-.2-3.558,2.161Z"/><rect class="k" width="1.535" height="3.294" transform="matrix(0.842, -0.54, 0.54, 0.842, 424.549, -1655.333)"/><path class="l" d="M423.718-1654.18a4.341,4.341,0,0,0,3.544-2.233l-.974-1.519c-.477-.258-2.129-.2-3.558,2.16Z"/><rect class="k" width="1.535" height="3.294" transform="translate(419.871 -1651.887) rotate(-32.695)"/><path class="l" d="M419.04-1650.734a4.345,4.345,0,0,0,3.544-2.233l-.974-1.519c-.476-.259-2.129-.2-3.559,2.159Z"/><rect class="k" width="1.535" height="3.294" transform="translate(415.347 -1647.748) rotate(-32.708)"/><path class="l" d="M414.516-1646.6a4.341,4.341,0,0,0,3.545-2.233l-.975-1.519c-.476-.259-2.127-.2-3.557,2.16Z"/><circle class="m" cx="16.622" cy="16.622" r="16.622" transform="translate(247.768 -1465.028)"/><path class="n" d="M418.419-1645.806l-.62,8.7-179.81,215.49"/><path class="n" d="M242.708-1417.777l178.7-217.21,1.535-14.957"/><path class="n" d="M235.282-1424.605l10.8,9.162-3.375,3.68L232.092-1421Z"/><path class="g" d="M240.411-1493.238c-.28.84-4.482,18.779-1.961,26.9s32.5,45.657,38.378,52.38c0,0-1.8-11.794-1.769-12.633s-22.18-39.009-22.077-43.113c.035-1.4,3.155-9.245,4.256-23.531S240.411-1493.238,240.411-1493.238Z"/><path class="o" d="M347.818-1632.124c-3.125,4.086-3.985,2.488,1.113,7.909,2.3,3.52-3.156,3.57-7.029,5.431a7.4,7.4,0,0,0-2.2,1.5c-1.922,1.659-5.755,2.013-9.395,2.549-7.747-.931-9.628,5.218-9.406-2.549.03-.1.071-.2.091-.3,1.9-6.564-8.991-.546-6.766-6.382,5.087-2.306-6.23.222-2.549-9.395,5.421-4.046-6.624-7.393,2.549-9.406.6-3.611,9.123-1.2,6.675-6.675,2.448-2.943,7.069-1.254,9.406-2.549,9.334-2.1,5.42,5.007,9.395,2.549,5.269-1.78,6.645,5.016,6.685,6.675C349.416-1639.517,355.879-1632.124,347.818-1632.124Z"/><path class="p" d="M341.9-1618.784a7.4,7.4,0,0,0-2.2,1.5c-1.922,1.659-5.755,2.013-9.395,2.549-7.747-.931-9.628,5.218-9.406-2.549.03-.1.071-.2.091-.3,2.539-.476,4.866-1.4,4.865-3.409-.005-9.056,10.727-10.079,10.727-10.079s2.916,6.155,3.1,6.823C339.778-1623.911,340.82-1621.353,341.9-1618.784Z"/><path class="q" d="M303.233-1595.645s23.962-.343,26.016-9.585,2.4-14.285,0-19.637,13.693,5.944,13.693,5.944-1.711,7.189,0,12.666,5.477,5.587,11.3,5.019,0,17.916,0,17.916-20.847,2.261-22.4,3.013-23.124.275-24.151,0S303.233-1595.645,303.233-1595.645Z"/><path class="r" d="M296.012-1452c.974.074,5.617-1.881,13.042,2.829s15.015,12.071,20.633,10.94,1.854-7.537-1.4-8.943c-2.926-1.265-8.45-2.912-7.254-5.011s3.8-1.862,6.428.007,4.72.068,3.82-.979-7.412-4.785-8.983-5.1c-1.162-.233-6.442,1.358-9.215.687S299.3-1461.9,299.3-1461.9Z"/><path class="g" d="M334.726-1639.533s11.639-2.73,11.639,10.822-1.369,15.266-11.639,11.158S323.088-1638.92,334.726-1639.533Z"/><path class="s" d="M451.571-1490.15l-.2.018c-1.834.173-15.978,1.488-30.389,2.691-1.56.131-3.126.262-4.679.387-3.4.274-6.739.536-9.858.768-8.382.619-15.186,1.018-17.323.875l-3.232-7.185-2.732-6.078-1.251-2.78.12,1.226.863,5.013,5.4,31.4,13.31,77.35-136.735,1.655,4.268-37.842,2.3-20.43,1.577-13.947L277.97-1501l.369-3.256-4.173,18-65.677-1.911s7.637-30.758,27-89.739c7.161-21.835,35.812-39.413,73.57-27.252a98.969,98.969,0,0,1,10.787,4.191c1.857.846,8.959,15.966,20.447,10.644.245-.113.489-.226.727-.345,10.489-5.06,12.888-10.835,14.608-13.2,0-.006.006-.012.012-.018.059-.071.113-.142.166-.214,1.209-1.524,4.15-3.137,8.174-4.506,10.929-3.721,29.894-5.948,39.723.951s18.885,19.439,24.013,36.665c8.614,26.454,17.936,57.367,22.234,74.314.071.28.137.548.2.81C451.053-1492.245,451.571-1490.15,451.571-1490.15Z"/><path class="g" d="M402.764-1491.445c-1.256,1.062-1.848,2.791-10.312,5.56-3.734-5.972-38.628-33.06-50.193-40.017-2.573-2.222-5.883-5.113-7-6.233-1.911-1.924-5.3-6.258-5.235-7.382s-5.562-5.626-6.857-5.842-1.727,2.375,1.086,3.588,3.831,3.819,2.714,5.826-3.9-2.464-6.933-2.382-6.925,3.245-5.077,8.369,7.549,2.557,15.464,5.239c3.62,1.227,5.033,4.066,7.3,5.849,5.27,4.15,27.272,39.13,45.4,52.443s36.073-20.037,38.152-20.923C421.27-1487.35,404.02-1492.507,402.764-1491.445Z"/><path class="t" d="M330.671-1568.415l13.437,27.226,30.046,4.366-21.741,21.193,5.132,29.925-26.874-14.129L303.8-1485.705l5.132-29.925-21.741-21.193,30.046-4.366Z"/><path class="u" d="M420.247-1486.262c-.482.613-1.1,1.458-1.827,2.464Z"/><path class="v" d="M281.309-1454.248c-3.714,4.643-9.423,22.495-12.179,31.591L277.97-1501l2.292-10.185c14.286-12.816,8.191,24.585,9.661,35.931S286.351-1460.552,281.309-1454.248Z"/><path class="v" d="M341.016-1590.668c-3.4,4.405-11.352,8.935-15.918,5.946-6.739-4.4-18.787-4.411-20.888-14.7-.834-4.072,1.6-5.5,4.845-5.733a98.969,98.969,0,0,1,10.787,4.191c1.857.846,8.959,15.966,20.447,10.644C340.534-1590.436,340.778-1590.549,341.016-1590.668Z"/><path class="j" d="M346.266-1519.485c-18.34,21.192-74.832,76.4-74.832,76.4l1.279-13.685c.1-.084.191-.173.3-.262,7.685-6.87,45.557-44.432,66.028-71.374,20.758-27.306,15.2-72.833,15.2-72.833s.548-1.119,1.387-2.631c0-.006.006-.012.012-.018.059-.071.113-.142.166-.214,1.209-1.524,4.15-3.137,8.174-4.506C366.452-1581.614,362.678-1538.445,346.266-1519.485Z"/><path class="w" d="M323.407-1548.079l.067,1.171-10.8,26.661.167.8,2.766,1.373,1.125-.382,14.315-24.69.973-.654s-.478-3.226-.389-3.4S323.407-1548.079,323.407-1548.079Z"/><path class="x" d="M315.782-1518.573l-2.651-1.316a1.434,1.434,0,0,1-.676-1.861l11.019-25.158,7.574,3.759-13.375,23.989A1.435,1.435,0,0,1,315.782-1518.573Z"/><path class="x" d="M314.077-1516.127l-1.863-.925.628-2.4,2.766,1.373Z"/><path class="x" d="M334.486-1559.4l-.148-.074a8.2,8.2,0,0,0-10.99,3.7l-.074.148a8.193,8.193,0,0,0,.133,7.547l8.614,4.276a8.191,8.191,0,0,0,6.091-4.458l.073-.149A8.2,8.2,0,0,0,334.486-1559.4Z"/><rect class="y" width="3.644" height="1.466" rx="0.726" transform="translate(323.631 -1539.177) rotate(-63.603)"/><rect class="w" width="3.644" height="1.466" rx="0.726" transform="translate(323.631 -1539.177) rotate(-63.603)"/><path class="r" d="M391.865-1486.7a8.748,8.748,0,0,1,.589.81Z"/><path class="g" d="M418.42-1483.8c-6.143,8.441-20.668,28.127-35.3,17.37-18.126-13.31-40.128-48.3-45.4-52.444-2.268-1.78-3.679-4.619-7.3-5.845a36.623,36.623,0,0,0-8.775-1.578,3.571,3.571,0,0,1-.357-.036c-2.351-.232-4.179-.565-5.369-1.94a3.8,3.8,0,0,1-.393-.512,5.694,5.694,0,0,1-.572-1.173c-1.78-4.941,1.768-8.054,4.745-8.346.1-.012.2-.018.291-.024h.042a6.575,6.575,0,0,1,3.661,1.542,2.356,2.356,0,0,0,.643.453c.958.672,1.756,1.16,2.31.762a1.084,1.084,0,0,0,.321-.375,3.288,3.288,0,0,0,.268-.637,3.5,3.5,0,0,0,.113-.494,3.155,3.155,0,0,0,.464-.762l.018-.018a.085.085,0,0,0-.012.035c.018-.029.03-.053.042-.077s.018-.018.036-.036c.035-.047.077-.089.119-.137.059-.065.125-.131.2-.2.078-.089.167-.173.25-.256.125-.119.244-.238.363-.357a6.494,6.494,0,0,0,.971-1.209,1.031,1.031,0,0,1,.226.572c-.066,1.125,3.328,5.459,5.238,7.381,1.114,1.119,4.423,4.013,6.995,6.233,8.352,5.024,28.871,20.549,41.032,31.032,1.34,5.768,3.251,14.233,3.066,15.06-.28,1.262,9.947.56,11.066.84C398.174-1478.78,411.146-1481.7,418.42-1483.8Z"/><path class="r" d="M421.271-1487.352a1.093,1.093,0,0,0-.3.238h-.006a8.128,8.128,0,0,0-.721.852c-.934-.167-2.006-.37-3.166-.62-3.721.221-7.346.429-10.638.6-6.745.339-12.09.536-13.989.405v-.006c8.465-2.768,9.054-4.495,10.31-5.56a2.4,2.4,0,0,1,1.411-.107C408.58-1491.144,421.271-1487.352,421.271-1487.352Z"/><path class="s" d="M450.148-1495.87c-.065-.262-.131-.53-.2-.81-1.906-7.514-4.8-17.775-8.181-29.174-6.01.267-12.107-.259-18.065-.557-11.358-.568-22.9-1.52-34.259-.677a7.57,7.57,0,0,1-1.206-.016,16.125,16.125,0,0,1-7.728,2.827,18.178,18.178,0,0,1-5.114-.208c.143.857.268,1.726.351,2.6.3,1.22.643,2.441,1,3.661,1,3.441,2.143,6.858,3.126,10.245.714,2.464,1.452,4.935,2.047,7.441l.054.232.054.077a.021.021,0,0,0,.005.012l1.126,1.542,8.709,11.977.589.81v.006c1.9.131,7.244-.066,13.989-.405,3.292-.167,6.917-.375,10.638-.6l3.887-.232h.006c15.185-.934,30.6-2.036,30.6-2.036s-.071-.339-.2-.982C451.136-1491.227,450.72-1493.2,450.148-1495.87Z"/><path class="v" d="M404.175-1491.554a17.921,17.921,0,0,1-4.09-3.245,12.382,12.382,0,0,0-1.516-1.394h0c-6.384-9.484-23.345-23.29-23.345-23.29l6.8,19.255a.021.021,0,0,0,.005.012c.042.191.578,2.423,1.262,5.346a79.9,79.9,0,0,1,8.573,8.173l.589.81v.006c1.9.131,7.244-.066,13.989-.405,3.292-.167,6.917-.375,10.638-.6A44.406,44.406,0,0,1,404.175-1491.554Z"/><g class="z"><path class="k" d="M291.147-1354.322l-.519.609-4.957,5.815-8.3,9.733q.345.512.656,1.059c.133.235.261.472.386.712l7.121-9.537,6.05-8.138Q291.365-1354.195,291.147-1354.322Z"/><path class="k" d="M289.145-1355.534l-1.874,2.2-3.958,4.641-7.419,8.7a12.855,12.855,0,0,1,1.06,1.246l6.251-8.372,5.42-7.289.73-.988Z"/><path class="k" d="M275.28-1340.585c2.23-2.983,11-14.714,12.01-16.157l-.016-.01-12.527,14.682.009,1.051C274.935-1340.879,275.11-1340.735,275.28-1340.585Z"/><path class="k" d="M284.489-1356.51c-.207.367-10.077,13.561-10.077,13.561l-.015-1.737Z"/><path class="k" d="M282.009-1356.318c-.165.293-8.047,10.829-8.047,10.829l-.015-1.386Z"/><path class="k" d="M280.22-1356.37c-.132.234-6.429,8.651-6.429,8.651l-.014-1.107Z"/><path class="k" d="M284.93-1338.844l-12.866-14.672q-.8.525-1.624,1.018c3.744,3.834,9.247,9.469,14,14.326C284.605-1338.4,284.768-1338.62,284.93-1338.844Z"/><path class="k" d="M286.327-1340.764l-12.357-14.092q-.642.486-1.307.939c3.142,3.22,8.806,9.021,13.32,13.627Z"/><path class="k" d="M287.655-1342.617l-11.364-12.96-1.085-.266c-.186.157-.373.31-.562.462,2.167,2.222,8.447,8.657,12.787,13.081C287.506-1342.406,287.581-1342.511,287.655-1342.617Z"/><path class="k" d="M288.807-1344.286l-9.581-10.927-1.935-.476s7.152,7.333,11.366,11.626Z"/><path class="k" d="M289.811-1345.821l-8.112-9.251-1.547-.379s6.286,6.446,9.563,9.779Z"/><path class="k" d="M290.694-1346.934l-6.8-7.76-1.237-.3s5.456,5.6,7.963,8.141C290.641-1346.883,290.667-1346.909,290.694-1346.934Z"/></g><g class="z"><path class="k" d="M387.9-1326.464l.231.452,2.2,4.32,3.689,7.231c.256-.052.516-.095.781-.127.17-.021.34-.038.511-.054l-3.861-6.492-3.3-5.525Z"/><path class="k" d="M386.706-1325.585l.833,1.633,1.759,3.448,3.3,6.464a8.149,8.149,0,0,1,.988-.319l-3.39-5.7-2.956-4.948-.4-.669Z"/><path class="k" d="M392.1-1313.823c-1.207-2.032-5.954-10.023-6.554-10.968l-.01.007,5.564,10.912.619.251C391.845-1313.692,391.972-1313.76,392.1-1313.823Z"/><path class="k" d="M385-1323.092c.165.21,5.5,9.2,5.5,9.2l-1.022-.413Z"/><path class="k" d="M384.512-1321.592c.132.168,4.394,7.35,4.394,7.35l-.816-.328Z"/><path class="k" d="M384.047-1320.555c.105.134,3.51,5.872,3.51,5.872l-.652-.262Z"/><path class="k" d="M395.467-1319.058l-11.729,3.978q.114.6.2,1.2c3.158-1.262,7.8-3.119,11.8-4.728Z"/><path class="k" d="M394.681-1320.343l-11.265,3.82c.086.33.163.661.233.995,2.651-1.06,7.429-2.971,11.226-4.5C394.811-1320.132,394.746-1320.238,394.681-1320.343Z"/><path class="k" d="M393.918-1321.572l-10.361,3.513-.42.572c.047.147.092.294.135.442,1.829-.731,7.128-2.849,10.777-4.319Z"/><path class="k" d="M393.219-1322.653l-8.735,2.962-.749,1.018s6.037-2.41,9.578-3.838C393.282-1322.559,393.25-1322.606,393.219-1322.653Z"/><path class="k" d="M392.563-1323.615l-7.4,2.508-.6.815s5.307-2.119,8.058-3.23Z"/><path class="k" d="M392.125-1324.4l-6.2,2.1-.479.652s4.607-1.84,6.709-2.691C392.142-1324.36,392.133-1324.381,392.125-1324.4Z"/></g><path class="aa" d="M301.882-1306.548c1.7,19.752-7.8,58.475-7.8,58.475s-2.024.172-4.9.268c.042-.411-4.881-.372-4.606-.756,11.345-15.863,13.026-44.541,14.6-51.894.363-1.694,1.255-6.849,2.957-9.349A10.412,10.412,0,0,0,301.882-1306.548Z"/><path class="ab" d="M428.8-1218.565c-5.072.678-15.335-.1-22.8-.512h-.006c-.238-.018-.459-.03-.685-.042-3.893-.208-6.917-.3-7.846-.006a3.684,3.684,0,0,1-.375.1c-.369.09-.881.191-1.506.286-5.631.875-20.174,1.744-20.352-2.625a10.694,10.694,0,0,1,.238-2.506c.035-.179.071-.357.119-.536.006-.012.006-.018.012-.03.053-.238.113-.482.184-.726.006-.006.006-.006.006-.012,1.286-4.512,4.4-9.28,5.09-8.87,9.239,5.5,18.275-1.006,20.138-2.488.232-.184.351-.292.351-.292s.351.024,1.018.09c.363.041.828.1,1.375.161.3.035.619.077.971.125.119.017.238.029.357.053.286.036.589.077.911.125.154.024.309.048.476.077h.006q1.313.205,2.928.506c.673.125,1.376.262,2.12.417,1.119.226,2.321.494,3.6.792.119.036.244.077.363.119.637.2,1.262.417,1.875.643a39.127,39.127,0,0,1,5.864,2.726l.006.006C431.873-1226.036,435.052-1219.4,428.8-1218.565Z"/><path class="ac" d="M423.23-1230.983a12.129,12.129,0,0,0-8.7,8.84s-3.977-.732-8.483-1.393l-1.184-.161c-.721-.1-1.453-.2-2.179-.291-.625-.078-1.244-.149-1.846-.215-3.345-.357-6.238-.488-7.179-.041-2.547,1.2-18.37,4.208-18.2.375a1.888,1.888,0,0,1,.119-.536c.006-.012.006-.018.012-.03a4.542,4.542,0,0,0,.184-.726c.006-.006.006-.006.006-.012,1.286-4.512,4.4-9.28,5.09-8.87,9.239,5.5,18.275-1.006,20.138-2.488.232-.184.351-.292.351-.292s.351.024,1.018.09c.363.041.828.1,1.375.161.3.035.619.077.971.125.119.017.238.029.357.053.286.036.589.077.911.125.154.024.309.048.476.077h.006q1.313.205,2.928.506c.673.125,1.376.262,2.12.417,1.119.226,2.321.494,3.6.792.119.036.244.077.363.119.637.2,1.262.417,1.875.643a39.127,39.127,0,0,1,5.864,2.726Z"/><path class="ad" d="M406-1236.269c-.173.161-.417.393-.715.7a17.756,17.756,0,0,0-2.8,3.577,8.449,8.449,0,0,0-.648,1.393,5.83,5.83,0,0,0-.167.566l-1.732-.423a9.091,9.091,0,0,1,.9-2.25v-.006a13.235,13.235,0,0,1,.84-1.339,19.686,19.686,0,0,1,2.077-2.518c.3.035.619.077.971.125.119.017.238.029.357.053C405.372-1236.358,405.675-1236.317,406-1236.269Z"/><path class="ad" d="M411.527-1235.269c-.994.935-3.548,3.542-4.161,6.078l-1.739-.423a14.935,14.935,0,0,1,3.78-6.072C410.08-1235.561,410.783-1235.424,411.527-1235.269Z"/><path class="ad" d="M417.36-1233.715c-1.16,1.155-3.208,3.441-3.75,5.679l-1.732-.423a14.584,14.584,0,0,1,3.607-5.9C416.122-1234.162,416.747-1233.941,417.36-1233.715Z"/><path class="x" d="M402.687-1223.988a7.365,7.365,0,0,1-1.4.905,10.206,10.206,0,0,0-4.2,4.059c-1.053,1.834-1.381,3.679-1.012,4.649l-1.113.423a6.657,6.657,0,0,1,.619-4.786,11.517,11.517,0,0,1,5.167-5.411c.03-.018.066-.036.1-.054,2.965-1.541,2.477-3.309.995-6.4-.084-.178-.173-.363-.268-.553-.167-.34-.334-.685-.494-1.03-.084-.179-.161-.357-.233-.53a4.2,4.2,0,0,1-.178-3.215,2.758,2.758,0,0,1,.351-.6c.232-.184.351-.292.351-.292s.351.024,1.018.09l.161.47a1.514,1.514,0,0,0-.8.816,2.393,2.393,0,0,0-.065,1.393,5.863,5.863,0,0,0,.464,1.363l.339.7c.054.107.1.214.155.316C403.967-1228.959,405.336-1226.155,402.687-1223.988Z"/><path class="x" d="M409.134-1229.822a22.407,22.407,0,0,1-1.518,3.018,16.163,16.163,0,0,0-1.566,3.268,5.136,5.136,0,0,0,.47,4.173l-.523.286h-.006l-.518.28c-.06-.108-.113-.215-.167-.322a6.2,6.2,0,0,1-.44-4.578,16.474,16.474,0,0,1,1.714-3.7,20.394,20.394,0,0,0,1.441-2.852,3.211,3.211,0,0,0,.2-.988,3.644,3.644,0,0,0-.7-2.2,8.32,8.32,0,0,0-2.244-2.137c-.286-.191-.47-.3-.482-.3l.286-.518c.286.036.589.077.911.125.154.024.309.048.476.077h.006a9.591,9.591,0,0,1,1.815,1.763,5.728,5.728,0,0,1,.923,1.714A4.262,4.262,0,0,1,409.134-1229.822Z"/><path class="ab" d="M243.589-1216.529c5.072.679,15.335-.095,22.8-.512h.006c.238-.017.459-.029.685-.041,3.893-.209,6.917-.3,7.846-.006.1.036.226.065.375.1.369.089.881.19,1.506.286,5.631.875,20.174,1.744,20.352-2.625a10.7,10.7,0,0,0-.238-2.507c-.035-.178-.071-.357-.119-.535-.006-.012-.006-.018-.012-.03-.053-.238-.113-.482-.184-.726-.006-.006-.006-.006-.006-.012-1.286-4.512-4.4-9.281-5.09-8.87-9.239,5.5-18.275-1.006-20.138-2.488-.232-.185-.351-.292-.351-.292s-.352.024-1.018.089l-1.375.161c-.3.036-.619.078-.971.125-.119.018-.238.03-.357.054-.286.035-.589.077-.911.125-.154.024-.309.047-.476.077h-.006q-1.312.206-2.929.506c-.672.125-1.375.262-2.119.417-1.119.226-2.321.494-3.6.792-.119.035-.244.077-.363.119-.637.2-1.262.416-1.875.642a39.129,39.129,0,0,0-5.864,2.727l-.006.006C240.512-1224,237.333-1217.362,243.589-1216.529Z"/><path class="ac" d="M249.155-1228.946a12.129,12.129,0,0,1,8.7,8.84s3.977-.732,8.483-1.393c.387-.054.786-.107,1.184-.161.721-.1,1.453-.2,2.179-.292.625-.077,1.244-.148,1.846-.214,3.345-.357,6.238-.488,7.179-.042,2.547,1.2,18.37,4.209,18.2.375a1.884,1.884,0,0,0-.119-.535c-.006-.012-.006-.018-.012-.03a4.439,4.439,0,0,1-.184-.726c-.006-.006-.006-.006-.006-.012-1.286-4.512-4.4-9.281-5.09-8.87-9.239,5.5-18.275-1.006-20.138-2.488-.232-.185-.351-.292-.351-.292s-.352.024-1.018.089l-1.375.161c-.3.036-.619.078-.971.125-.119.018-.238.03-.357.054-.286.035-.589.077-.911.125-.154.024-.309.047-.476.077h-.006q-1.312.206-2.929.506c-.672.125-1.375.262-2.119.417-1.119.226-2.321.494-3.6.792-.119.035-.244.077-.363.119-.637.2-1.262.416-1.875.642a39.129,39.129,0,0,0-5.864,2.727Z"/><path class="ad" d="M266.388-1234.232c.173.16.417.393.715.7a17.765,17.765,0,0,1,2.8,3.578,8.411,8.411,0,0,1,.648,1.393c.066.184.119.375.167.565l1.732-.422a9.094,9.094,0,0,0-.9-2.25v-.006a13.255,13.255,0,0,0-.84-1.34,19.826,19.826,0,0,0-2.077-2.518c-.3.036-.619.078-.971.125-.119.018-.238.03-.357.054C267.013-1234.322,266.71-1234.28,266.388-1234.232Z"/><path class="ad" d="M260.858-1233.232c.994.934,3.548,3.542,4.161,6.078l1.738-.423a14.914,14.914,0,0,0-3.78-6.072C262.3-1233.524,261.6-1233.387,260.858-1233.232Z"/><path class="ad" d="M255.025-1231.679c1.16,1.155,3.208,3.441,3.75,5.679l1.732-.422a14.584,14.584,0,0,0-3.607-5.9C256.263-1232.125,255.638-1231.905,255.025-1231.679Z"/><line class="ae" x1="1.698" y1="7.209" transform="translate(326.317 -1568.137)"/><line class="ae" y1="7.326" x2="2.345" transform="translate(334.081 -1568.471)"/><line class="ae" y1="3.73" x2="5.018" transform="translate(339.042 -1561.328)"/><path class="af" d="M998.16-1205.745l-4.283-.066,69.119-127.7,4.283.066Z"/><path class="af" d="M962.455-1206.3l-4.283-.066,69.119-127.7,4.283.066Z"/><path class="ag" d="M1163.58-1331.952s13.329,3.777,13.069,20.551l1.517.024-1.34,86.614,16.954.262,1.34-86.614,1.516.024c.26-16.775,13.7-20.137,13.7-20.137Z"/><path class="ah" d="M855.69-1396.356l-.243,15.675a9.488,9.488,0,0,1-9.634,9.34l-8.952-.138a13.03,13.03,0,0,0-13.229,12.826l-.337,21.772,417.1,6.453.928-59.962Z"/><rect class="ag" width="59.969" height="99.403" transform="translate(1141.001 -1331.966) rotate(-89.114)"/><path class="ag" d="M867.38-1336.534s13.329,3.776,13.069,20.551l1.517.023-1.376,85.893,16.953.263,1.376-85.893,1.517.023c.26-16.775,13.7-20.137,13.7-20.137Z"/><path class="ag" d="M1043.9-1333.8s13.33,3.776,13.07,20.551l1.517.023-1.72,111.175,16.953.263,1.72-111.175,1.517.023c.259-16.775,13.7-20.137,13.7-20.137Z"/><path class="aa" d="M1176.151-1317.142l21.161.327a19.27,19.27,0,0,1,13.023-14.413l-46.755-.724A19.274,19.274,0,0,1,1176.151-1317.142Z"/><path class="aa" d="M879.951-1321.725l21.161.327a19.27,19.27,0,0,1,13.023-14.413l-46.755-.723A19.271,19.271,0,0,1,879.951-1321.725Z"/><path class="aa" d="M1056.473-1318.994l21.16.327a19.272,19.272,0,0,1,13.024-14.413l-46.756-.723A19.271,19.271,0,0,1,1056.473-1318.994Z"/><path class="ag" d="M999.059-1334.162,997.22-1215.31l-36.728-.568,1.839-118.853-10.189-.158-2.035,131.523,57.107.883L1009.248-1334Z"/><rect class="ah" width="118.867" height="7.122" transform="translate(960.492 -1215.878) rotate(-89.114)"/><rect class="ah" width="131.539" height="7.122" transform="translate(1007.213 -1202.482) rotate(-89.114)"/><path class="ag" d="M1229.128-1429.982c-.085-9.508-16.254-16.089-45.614-16.544l-5.653-.087c-26.284-.407-34.352-9.276-18-19.785l.8-.512c5.868-3.771,9.732-7.4,11.918-10.8l1.975.03.1-6.2h-.03c-.143-9.129-15.627-15.461-43.863-15.9l-42.275-.654c-43.563-.674-100.73,12.9-127.685,30.322l-105.013,67.866-.091,5.889,14.976.232.091-5.89,320.055,4.952,23.4-15.124.511-.331c5.6-3.617,9.487-7.115,11.812-10.41l2.51-.564.1-6.491Z"/><path class="ai" d="M1183.423-1440.636l-5.653-.088c-26.284-.407-34.352-9.275-18-19.785l.8-.512c27.168-17.46,13.763-32.194-29.9-32.869l-42.276-.654c-43.563-.674-100.729,12.9-127.684,30.322L855.69-1396.356l335.031,5.183,23.4-15.124.512-.331C1242.617-1424.711,1228.642-1439.937,1183.423-1440.636Z"/><path class="aj" d="M1082.2-1492.116l-4.818-.074,36.747,99.636,4.818.074Z"/><path class="aj" d="M972.6-1209.265l-11.841-.183a6.184,6.184,0,0,0-6.279,6.088v.062l18.024.279Z"/><path class="ak" d="M982.5-1209.111l-11.841-.183a6.184,6.184,0,0,0-6.279,6.088v.062l18.024.279Z"/><path class="aj" d="M993.925-1208.935l-11.84-.183a6.185,6.185,0,0,0-6.28,6.088v.062l18.025.279Z"/><rect class="al" width="4.64" height="212.033" transform="translate(846.587 -1371.328) rotate(-89.114)"/><path class="ag" d="M1060.175-1393.192l-.243,15.675a9.488,9.488,0,0,1-9.634,9.34l-8.951-.138a13.028,13.028,0,0,0-13.229,12.826l-.337,21.771,44.911.7.928-59.961Z"/><path class="ah" d="M1070.491-1198.16l-10.7-.165a3.078,3.078,0,0,1-3.03-3.126l.009-.6,16.859.261-.01.6A3.077,3.077,0,0,1,1070.491-1198.16Z"/><path class="aj" d="M1073.752-1192.9a8.779,8.779,0,0,1-10.287,9.973,8.763,8.763,0,0,1-7.049-7.27,8.779,8.779,0,0,1,10.286-9.973A8.764,8.764,0,0,1,1073.752-1192.9Z"/><path class="am" d="M1066.79-1191.523a1.705,1.705,0,0,1-1.732,1.68,1.707,1.707,0,0,1-1.681-1.733,1.708,1.708,0,0,1,1.733-1.68A1.707,1.707,0,0,1,1066.79-1191.523Z"/><path class="ah" d="M1190.549-1220.869l-10.7-.166a3.079,3.079,0,0,1-3.03-3.126l.009-.6,16.859.26-.009.6A3.08,3.08,0,0,1,1190.549-1220.869Z"/><circle class="aj" cx="8.768" cy="8.768" r="8.768" transform="translate(1176.374 -1223.027)"/><path class="am" d="M1186.849-1214.233a1.707,1.707,0,0,1-1.733,1.68,1.705,1.705,0,0,1-1.68-1.733,1.706,1.706,0,0,1,1.733-1.68A1.708,1.708,0,0,1,1186.849-1214.233Z"/><path class="ah" d="M894.313-1226.173l-10.7-.165a3.079,3.079,0,0,1-3.03-3.126l.009-.6,16.859.261-.01.6A3.077,3.077,0,0,1,894.313-1226.173Z"/><circle class="aj" cx="8.768" cy="8.768" r="8.768" transform="translate(880.138 -1228.33)"/><path class="am" d="M890.612-1219.536a1.706,1.706,0,0,1-1.732,1.68,1.705,1.705,0,0,1-1.68-1.733,1.706,1.706,0,0,1,1.732-1.68A1.707,1.707,0,0,1,890.612-1219.536Z"/></g></g></svg>