<svg xmlns="http://www.w3.org/2000/svg" width="117.047" height="46.77" viewBox="0 0 117.047 46.77"><defs><style>.a,.b{fill:none;stroke:#000;}.a{stroke-miterlimit:10;}</style></defs><g transform="translate(0 0)"><line class="a" x2="117.047" transform="translate(0 6.852)"/><line class="a" x2="117.047" transform="translate(0 13.69)"/><line class="a" x2="117.047" transform="translate(0 21.015)"/><line class="a" x2="117.047" transform="translate(0 28.341)"/><line class="a" x2="117.047" transform="translate(0 35.666)"/><path d="M115.267,42.613h-1.16V64.647a2.663,2.663,0,0,0-.83-.351,5.814,5.814,0,0,0-4.03.764c-2.3,1.305-3.469,3.594-2.6,5.127s3.438,1.719,5.737.414a7.063,7.063,0,0,0,1.009-.687,4.8,4.8,0,0,0,1.854-2.939c.009-.072.006-.141.009-.211h.01Z" transform="translate(-91.144 -35.613)"/><path d="M138.5,42.613h-1.16V64.647a2.669,2.669,0,0,0-.831-.351,5.812,5.812,0,0,0-4.029.764c-2.3,1.305-3.47,3.594-2.6,5.127s3.438,1.719,5.738.414a7.177,7.177,0,0,0,1.009-.687,4.8,4.8,0,0,0,1.853-2.939c.009-.072.007-.141.009-.211h.011Z" transform="translate(-91.144 -42.613)"/><path d="M161.732,42.613h-1.16V64.647a2.663,2.663,0,0,0-.83-.351,5.814,5.814,0,0,0-4.03.764c-2.3,1.305-3.469,3.594-2.6,5.127s3.438,1.719,5.737.414a7.062,7.062,0,0,0,1.009-.687,4.8,4.8,0,0,0,1.854-2.939c.009-.072.006-.141.009-.211h.01Z" transform="translate(-91.144 -32.613)"/><path d="M185.383,39.525h-1.16V61.559a2.662,2.662,0,0,0-.83-.35,5.808,5.808,0,0,0-4.03.763c-2.3,1.305-3.469,3.594-2.6,5.127s3.438,1.719,5.737.414a7.129,7.129,0,0,0,1.01-.687,4.8,4.8,0,0,0,1.853-2.939c.009-.071.006-.141.009-.211h.01Z" transform="translate(-91.144 -21.613)"/></g><line class="b" x2="14" transform="translate(82.5 43.352)"/><line class="b" y1="28" transform="translate(109.5 7.352)"/><line class="b" y1="28" transform="translate(7.5 7.352)"/></svg>