<svg xmlns="http://www.w3.org/2000/svg" width="117.965" height="39.505" viewBox="0 0 117.965 39.505"><defs><style>.a,.b{fill:none;stroke:#000;}.a{stroke-miterlimit:10;}</style></defs><g transform="translate(0 0.5)"><g transform="translate(0 0)"><line class="a" x2="117.965"/><line class="a" x2="117.965" transform="translate(0 6.837)"/><line class="a" x2="117.965" transform="translate(0 14.163)"/><line class="a" x2="117.965" transform="translate(0 21.489)"/><line class="a" x2="117.965" transform="translate(0 28.814)"/><path d="M115.267,42.613h-1.16V64.647a2.663,2.663,0,0,0-.83-.351,5.814,5.814,0,0,0-4.03.764c-2.3,1.305-3.469,3.594-2.6,5.127s3.438,1.719,5.737.414a7.063,7.063,0,0,0,1.009-.687,4.8,4.8,0,0,0,1.854-2.939c.009-.072.006-.141.009-.211h.01Z" transform="translate(-91.144 -42.465)"/><path d="M138.5,42.613h-1.16V64.647a2.669,2.669,0,0,0-.831-.351,5.812,5.812,0,0,0-4.029.764c-2.3,1.305-3.47,3.594-2.6,5.127s3.438,1.719,5.738.414a7.177,7.177,0,0,0,1.009-.687,4.8,4.8,0,0,0,1.853-2.939c.009-.072.007-.141.009-.211h.011Z" transform="translate(-90.791 -35.465)"/><path d="M161.732,42.613h-1.16V64.647a2.663,2.663,0,0,0-.83-.351,5.814,5.814,0,0,0-4.03.764c-2.3,1.305-3.469,3.594-2.6,5.127s3.438,1.719,5.737.414a7.062,7.062,0,0,0,1.009-.687,4.8,4.8,0,0,0,1.854-2.939c.009-.072.006-.141.009-.211h.01Z" transform="translate(-90.578 -32.465)"/><path d="M185.383,39.525h-1.16V61.559a2.662,2.662,0,0,0-.83-.35,5.808,5.808,0,0,0-4.03.763c-2.3,1.305-3.469,3.594-2.6,5.127s3.438,1.719,5.737.414a7.129,7.129,0,0,0,1.01-.687,4.8,4.8,0,0,0,1.853-2.939c.009-.071.006-.141.009-.211h.01Z" transform="translate(-90.361 -29.465)"/></g><line class="b" x2="14" transform="translate(83.5 35.5)"/><line class="b" x2="14" transform="translate(59.5 35.5)"/></g></svg>