<svg xmlns="http://www.w3.org/2000/svg" width="140.086" height="123.377" viewBox="0 0 140.086 123.377"><defs><style>.a{fill:#f8bf8a;}.b{fill:#fbe9ab;}.c{fill:#d6725e;}.d,.k{fill:#fefefd;}.d{opacity:0.17;}.e{fill:#dc7763;}.f{fill:#ef9a74;}.g{fill:#f8d59d;}.h{fill:#ee9a74;}.i{fill:#e9b178;}.j,.n{fill:#423f3a;}.l{fill:#e98363;}.m{fill:#da7a61;}.n{opacity:0.32;}.o{fill:#fff;font-size:9px;}.o,.p{font-family:BPGArial, BPG Arial;}.p{font-size:16px;}</style></defs><g transform="translate(0 23.001)"><g transform="translate(0 0)"><rect class="a" width="118.466" height="21.62" transform="translate(20.737 1.986)"/><rect class="b" width="110.966" height="75.338" transform="translate(24.487 25.039)"/><rect class="c" width="120.231" height="2.868" transform="translate(19.855 23.605)"/><rect class="d" width="114.92" height="0.761" transform="translate(22.51 7.969)"/><rect class="d" width="114.92" height="0.761" transform="translate(22.51 11.633)"/><rect class="d" width="114.92" height="0.761" transform="translate(22.51 15.296)"/><rect class="d" width="114.92" height="0.761" transform="translate(22.51 18.96)"/><rect class="c" width="120.231" height="2.868" transform="translate(19.855)"/><rect class="e" width="24.046" height="1.287" transform="translate(0 29.157)"/><circle class="f" cx="10.148" cy="10.148" r="10.148" transform="translate(0.809 35.077)"/><rect class="f" width="0.588" height="7.427" transform="translate(6.324 30.444)"/><rect class="f" width="0.588" height="7.427" transform="translate(15.406 30.444)"/><circle class="g" cx="7.942" cy="7.942" r="7.942" transform="translate(3.015 37.283)"/><path class="e" d="M27.543,1024.693H37.5s1.241,5.846-4.578,6.342S27.543,1024.693,27.543,1024.693Z" transform="translate(-21.504 -981.619)"/><path class="e" d="M40.263,1044.943v.623h2.589v-.761Z" transform="translate(-30.333 -995.571)"/><path class="e" d="M56.55,1029.923c0-.021.912-.252.977-.275a2.593,2.593,0,0,0,1.3-.739.848.848,0,0,0-.711-1.275,1.024,1.024,0,0,0-.784.441l-.064-1.6s1.682-.166,2.234,1.048.221,2.206-1.379,2.62S56.55,1029.924,56.55,1029.923Z" transform="translate(-41.631 -982.851)"/><path class="h" d="M38.522,1013.632a.881.881,0,0,1,.361-.91,1.315,1.315,0,0,0,.108-1.848,1.673,1.673,0,0,0-.717-.5s.935,1.1.523,1.462A1.434,1.434,0,0,0,38.522,1013.632Z" transform="translate(-28.953 -971.689)"/><rect class="i" width="58.24" height="44.857" transform="translate(33.311 35.518)"/><path class="h" d="M45.638,1013.632a.881.881,0,0,1,.361-.91,1.315,1.315,0,0,0,.108-1.848,1.672,1.672,0,0,0-.717-.5s.935,1.1.523,1.462A1.434,1.434,0,0,0,45.638,1013.632Z" transform="translate(-33.89 -971.689)"/><rect class="j" width="53.658" height="41.327" transform="translate(35.603 37.283)"/><rect class="e" width="4.909" height="0.703" rx="0.352" transform="translate(8.755 49.995)"/><path class="k" d="M133.911,1003.866c-.354.147.354,10-2.48,16.766s-10.273,12.942-10.273,12.942l-.236-29.708Z" transform="translate(-86.287 -967.171)"/><path class="k" d="M259.21,1001.945s1.029,19.414,5.883,24.414a66.116,66.116,0,0,0,7.5,6.912v-31.326Z" transform="translate(-182.218 -965.839)"/><rect class="l" width="31.179" height="62.8" transform="translate(97.876 31.4)"/><rect class="j" width="24.414" height="46.328" transform="translate(101.259 34.489)"/><rect class="i" width="24.193" height="6.398" transform="translate(101.479 84.052)"/><rect class="m" width="23.017" height="4.633" transform="translate(102.656 85.816)"/><path class="i" d="M335.556,1084.385a31.864,31.864,0,0,1,3.75,0v10.663h-3.75v-1.4h2.574V1086h-2.574Z" transform="translate(-235.18 -1022.983)"/><path class="i" d="M116.6,1000.025v44.857h58.24v-44.857Zm55.949,43.092H118.892V1001.79H172.55Z" transform="translate(-83.289 -964.507)"/><path class="n" d="M269.986,1016.823c0-.208-.971,10,3.971,16.987C273.958,1033.81,270.133,1024.912,269.986,1016.823Z" transform="translate(-189.639 -976.158)"/><path class="n" d="M141.728,1016.82s-.472,13.534-6.613,17.284C135.115,1034.1,139.838,1028.583,141.728,1016.82Z" transform="translate(-96.133 -976.158)"/><path class="n" d="M135.566,1024.693c-.354.68-2.243,10.387-5.077,12.593Z" transform="translate(-92.923 -981.619)"/><path class="n" d="M284.445,1052.323a10.625,10.625,0,0,0,1.912,7.059S284,1054.4,284.445,1052.323Z" transform="translate(-199.686 -1000.775)"/><rect class="c" width="117.584" height="6.177" transform="translate(20.737 94.199)"/><rect class="a" width="35.457" height="17.402" transform="translate(62.241 4.086)"/><text class="o" transform="translate(79.637 15.026)"><tspan x="-11.134" y="0">კაფე</tspan></text></g></g><text class="p" transform="translate(25.449 14)"><tspan x="0" y="0">დო-ფა-მი-რე</tspan></text></svg>