<svg xmlns="http://www.w3.org/2000/svg" width="199.005" height="95.618" viewBox="0 0 199.005 95.618"><g transform="translate(-1028 -245)"><g transform="translate(1028 294)"><line x2="199.005" transform="translate(0 10.046)" fill="none" stroke="#000" stroke-miterlimit="10" stroke-width="1"/><line x2="199.005" transform="translate(0 16.302)" fill="none" stroke="#000" stroke-miterlimit="10" stroke-width="1"/><line x2="199" transform="translate(0 22.617)" fill="none" stroke="#000" stroke-miterlimit="10" stroke-width="1"/><line x2="199.005" transform="translate(0 29.708)" fill="none" stroke="#000" stroke-miterlimit="10" stroke-width="1"/><line x2="199.005" transform="translate(0 36.411)" fill="none" stroke="#000" stroke-miterlimit="10" stroke-width="1"/><path d="M194.9,532.962V554.73h-.009v.192a4.411,4.411,0,0,1-1.7,2.69,6.661,6.661,0,0,1-.924.632c-2.1,1.189-4.447,1.015-5.243-.385s.275-3.5,2.37-4.694a5.338,5.338,0,0,1,3.688-.7,2.346,2.346,0,0,1,.759.32V533Z" transform="translate(-178.872 -512.417)"/><path d="M216.952,532.6h-1.061v20.161a2.442,2.442,0,0,0-.76-.321,5.313,5.313,0,0,0-3.687.7c-2.1,1.194-3.175,3.289-2.379,4.69s3.146,1.574,5.25.38a6.648,6.648,0,0,0,.923-.629,4.391,4.391,0,0,0,1.7-2.689c.008-.066.006-.129.008-.193h.01Z" transform="translate(-180.745 -512.386)"/><path d="M230.21,531.752v19.3H230.2c-.009.063,0,.127-.009.191a4.372,4.372,0,0,1-1.7,2.69,6.255,6.255,0,0,1-.915.631c-2.1,1.19-4.456,1.025-5.252-.384s.275-3.5,2.379-4.685a5.334,5.334,0,0,1,3.687-.7,2.7,2.7,0,0,1,.759.32V531.789Z" transform="translate(-181.872 -512.314)"/><path d="M227.868,531.474v3.568l-1.061.037-11.072.43-1.061.037-19.115.741-1.061.037v-3.706l1.061-.037,31.248-1.07Z" transform="translate(-179.53 -512.291)"/><path d="M217.162,538.076l12.017-.239v3.112H217.162Z" transform="translate(-181.456 -512.832)"/><path d="M270.273,527.845h-1.06v14.561a2.439,2.439,0,0,0-.76-.32,5.312,5.312,0,0,0-3.687.7c-2.1,1.194-3.174,3.288-2.378,4.69s3.146,1.573,5.249.379a6.6,6.6,0,0,0,.924-.628,4.393,4.393,0,0,0,1.7-2.69c.008-.065.005-.128.008-.193h.009Z" transform="translate(-185.277 -511.982)"/><path d="M249.1,529.491v18.648h-.009c-.009.064,0,.128-.009.192a4.412,4.412,0,0,1-1.7,2.69,5.885,5.885,0,0,1-.924.631c-2.1,1.189-4.447,1.025-5.243-.384s.275-3.5,2.379-4.685a5.324,5.324,0,0,1,3.687-.7,2.79,2.79,0,0,1,.759.32V529.6Z" transform="translate(-183.478 -512.122)"/><path d="M269.271,524.5l-.156,3.45-19.556,1.849-1.061.1v-3.257l1.061-.11Z" transform="translate(-184.119 -511.698)"/><g transform="translate(95.432 0)"><path d="M290.587,518.079h-1.061V538.24a2.44,2.44,0,0,0-.76-.32,5.316,5.316,0,0,0-3.687.7c-2.1,1.194-3.174,3.289-2.378,4.691s3.146,1.573,5.249.379a6.525,6.525,0,0,0,.924-.629,4.389,4.389,0,0,0,1.7-2.689c.008-.065.005-.129.008-.193h.01Z" transform="translate(-282.436 -511.153)"/><path d="M303.145,510.51h-1.061v23.64a2.444,2.444,0,0,0-.76-.321,5.313,5.313,0,0,0-3.687.7c-2.1,1.194-3.175,3.289-2.379,4.69s3.147,1.573,5.25.38a6.717,6.717,0,0,0,.923-.629,4.391,4.391,0,0,0,1.7-2.689c.008-.066.006-.129.008-.193h.01Z" transform="translate(-283.504 -510.51)"/><path d="M317.424,518.079h-1.061V538.24a2.441,2.441,0,0,0-.76-.32,5.313,5.313,0,0,0-3.687.7c-2.1,1.194-3.175,3.289-2.379,4.691s3.146,1.573,5.25.379a6.567,6.567,0,0,0,.923-.629,4.389,4.389,0,0,0,1.7-2.689c.008-.065.005-.129.008-.193h.01Z" transform="translate(-284.717 -511.153)"/><path d="M330.145,517.462h-1.061v23.79a2.442,2.442,0,0,0-.76-.321,5.318,5.318,0,0,0-3.687.7c-2.1,1.194-3.175,3.289-2.379,4.691s3.147,1.573,5.25.379a6.569,6.569,0,0,0,.923-.629,4.389,4.389,0,0,0,1.7-2.689c.008-.066.006-.129.008-.193h.01Z" transform="translate(-285.798 -511.101)"/><rect width="37.271" height="6.926" transform="translate(7.075)"/></g><path d="M370.812,527.628h-1.061v21.505a2.435,2.435,0,0,0-.759-.32,5.31,5.31,0,0,0-3.687.7c-2.1,1.194-3.174,3.288-2.378,4.69s3.146,1.573,5.249.379a6.6,6.6,0,0,0,.924-.628,4.394,4.394,0,0,0,1.7-2.69c.008-.065.005-.128.008-.192h.009Z" transform="translate(-193.823 -511.963)"/><path d="M349.636,523.512v23.714h-.009c-.009.064,0,.128-.009.192a4.412,4.412,0,0,1-1.7,2.69,5.885,5.885,0,0,1-.924.631c-2.1,1.189-4.447,1.025-5.243-.384s.274-3.5,2.379-4.685a5.324,5.324,0,0,1,3.688-.7,2.789,2.789,0,0,1,.759.32V523.622Z" transform="translate(-192.023 -511.613)"/><path d="M349.037,522.38l.156,3.45,19.555,1.849,1.061.1v-3.257l-1.061-.11Z" transform="translate(-192.665 -511.518)"/></g><text transform="translate(1118 275)" fill="#0b2228" font-size="30" font-family="BPGArial, BPG Arial"><tspan x="0" y="0">6</tspan></text></g></svg>