<svg xmlns="http://www.w3.org/2000/svg" width="43.41" height="164.906" viewBox="0 0 43.41 164.906">
  <g id="Path_35720" data-name="Path 35720" transform="translate(-765.467 -158.702)" fill="#fbb03b" stroke-miterlimit="10">
    <path d="M 789.1376953125 322.6075744628906 C 787.1544799804688 322.6075744628906 785.541015625 320.9941101074219 785.541015625 319.0108642578125 L 785.541015625 317.0978393554688 L 785.541015625 314.5440063476563 L 785.541015625 313.5440063476563 L 784.541015625 313.5440063476563 L 782.2601318359375 313.5440063476563 L 782.2601318359375 311.9808959960938 C 782.2601318359375 310.6072998046875 781.1426391601563 309.4897766113281 779.76904296875 309.4897766113281 C 778.3954467773438 309.4897766113281 777.2778930664063 310.6072998046875 777.2778930664063 311.9808959960938 L 777.2778930664063 313.5440063476563 L 773.90283203125 313.5440063476563 L 772.90283203125 313.5440063476563 L 772.90283203125 314.5440063476563 L 772.90283203125 316.7343139648438 C 772.90283203125 316.7781066894531 772.8644409179688 316.8164978027344 772.8206176757813 316.8164978027344 L 767.838134765625 316.8164978027344 C 767.7920532226563 316.8164978027344 767.7671508789063 316.774169921875 767.7671508789063 316.7343139648438 L 767.7671508789063 313.8312377929688 L 768.7886962890625 313.8312377929688 L 769.7886962890625 313.8312377929688 L 769.7886962890625 312.8312377929688 L 769.7886962890625 308.8910827636719 L 769.7886962890625 307.8910827636719 L 768.7886962890625 307.8910827636719 L 766.4669799804688 307.8910827636719 L 766.4669799804688 303.725341796875 L 768.7886962890625 303.725341796875 L 769.7886962890625 303.725341796875 L 769.7886962890625 302.725341796875 L 769.7886962890625 298.7740478515625 L 769.7886962890625 297.7740478515625 L 768.7886962890625 297.7740478515625 L 767.7671508789063 297.7740478515625 L 767.7671508789063 294.8821105957031 C 767.7671508789063 294.8514404296875 767.7763671875 294.7999267578125 767.838134765625 294.7999267578125 L 772.8206176757813 294.7999267578125 C 772.8585205078125 294.7999267578125 772.90283203125 294.8214416503906 772.90283203125 294.8821105957031 L 772.90283203125 297.0733642578125 L 772.90283203125 298.0733642578125 L 773.90283203125 298.0733642578125 L 777.2778930664063 298.0733642578125 L 777.2778930664063 299.6355285644531 C 777.2778930664063 301.0096435546875 778.3954467773438 302.1275634765625 779.76904296875 302.1275634765625 C 781.1426391601563 302.1275634765625 782.2601318359375 301.0096435546875 782.2601318359375 299.6355285644531 L 782.2601318359375 298.0733642578125 L 784.541015625 298.0733642578125 L 785.541015625 298.0733642578125 L 785.541015625 297.0733642578125 L 785.541015625 287.57763671875 L 785.541015625 218.0706329345703 L 785.541015625 217.4600830078125 L 784.9979248046875 217.1811218261719 C 784.7859497070313 217.0722503662109 784.5459594726563 216.9469299316406 784.3733520507813 216.8429870605469 L 784.3624877929688 216.8364562988281 L 784.3544921875 216.8319244384766 C 784.3526000976563 216.8280792236328 784.3484497070313 216.8175659179688 784.3484497070313 216.7983703613281 L 784.3484497070313 213.5175170898438 L 784.3484497070313 213.5110626220703 L 784.3484497070313 213.1889801025391 L 784.1604614257813 212.9274444580078 C 783.4171752929688 211.8932189941406 783.0242919921875 210.6690368652344 783.0242919921875 209.3872375488281 C 783.0242919921875 207.5845489501953 783.812255859375 205.8854675292969 785.1860961914063 204.7256317138672 L 785.541015625 204.4259948730469 L 785.541015625 203.9615173339844 L 785.541015625 197.6409301757813 L 785.541015625 197.6335144042969 L 785.541015625 196.8434448242188 L 784.7723999023438 196.66064453125 C 780.74658203125 195.7032012939453 777.0964965820313 193.3845825195313 774.4945068359375 190.1318664550781 C 773.1946411132813 188.5069122314453 772.1821899414063 186.6939544677734 771.4853515625 184.7433624267578 C 770.764404296875 182.7252044677734 770.3988037109375 180.604736328125 770.3988037109375 178.4408721923828 C 770.3988037109375 175.91064453125 770.89404296875 173.4566650390625 771.870849609375 171.1470947265625 C 772.8145141601563 168.9157867431641 774.165771484375 166.9116821289063 775.886962890625 165.1904296875 C 777.608154296875 163.4691772460938 779.6122436523438 162.1179046630859 781.8435668945313 161.1741638183594 C 784.1531982421875 160.1973114013672 786.6072998046875 159.7019958496094 789.1376953125 159.7019958496094 C 791.6679077148438 159.7019958496094 794.1218872070313 160.1973114013672 796.431396484375 161.1741638183594 C 798.6627197265625 162.1179046630859 800.6668090820313 163.4691772460938 802.3880615234375 165.1904449462891 C 804.1093139648438 166.9116973876953 805.4606323242188 168.9158325195313 806.4043579101563 171.1471252441406 C 807.3812255859375 173.4566955566406 807.8765258789063 175.9106750488281 807.8765258789063 178.4408721923828 C 807.8765258789063 180.6066589355469 807.5109252929688 182.7286224365234 806.789794921875 184.7477569580078 C 806.0928344726563 186.6993713378906 805.0801391601563 188.5130157470703 803.7799682617188 190.1383514404297 C 801.1773681640625 193.3916320800781 797.5250244140625 195.7105712890625 793.4957885742188 196.6680145263672 L 792.7269897460938 196.8507080078125 L 792.7269897460938 197.6409301757813 L 792.7269897460938 203.9541015625 L 792.7269897460938 204.4167022705078 L 793.0795288085938 204.7162017822266 C 794.454345703125 205.8841552734375 795.2427978515625 207.5867004394531 795.2427978515625 209.3872375488281 C 795.2427978515625 210.6697998046875 794.8502197265625 211.8939971923828 794.1074829101563 212.9274749755859 L 793.9195556640625 213.1889953613281 L 793.9195556640625 213.5110626220703 L 793.9195556640625 213.5175170898438 L 793.9195556640625 216.7983703613281 C 793.9195556640625 216.8175354003906 793.9154052734375 216.8280181884766 793.9135131835938 216.8318634033203 L 793.9130859375 216.8320922851563 L 793.9097290039063 216.8340759277344 C 793.720458984375 216.9435424804688 793.5052490234375 217.060302734375 793.27001953125 217.1811676025391 L 792.7269897460938 217.4601440429688 L 792.7269897460938 218.0706329345703 L 792.7269897460938 319.0108642578125 C 792.7269897460938 320.9941101074219 791.1168212890625 322.6075744628906 789.1376953125 322.6075744628906 Z M 789.1376953125 163.2955627441406 C 780.7860107421875 163.2955627441406 773.991455078125 170.0897216796875 773.991455078125 178.4408721923828 C 773.991455078125 186.7920074462891 780.7860107421875 193.5861663818359 789.1376953125 193.5861663818359 C 797.4888305664063 193.5861663818359 804.282958984375 186.7920074462891 804.282958984375 178.4408721923828 C 804.282958984375 170.0897216796875 797.4888305664063 163.2955627441406 789.1376953125 163.2955627441406 Z" stroke="none"/>
    <path d="M 789.1376953125 160.7019958496094 C 784.3991088867188 160.7019958496094 779.9443359375 162.5471496582031 776.5940551757813 165.8975219726563 C 773.2438354492188 169.2478637695313 771.3988037109375 173.7024841308594 771.3988037109375 178.4408569335938 C 771.3988037109375 180.48974609375 771.7447509765625 182.4970397949219 772.4270629882813 184.4069213867188 C 773.0865478515625 186.2529602050781 774.044921875 187.9689331054688 775.2754516601563 189.5072021484375 C 777.7388305664063 192.586669921875 781.1937255859375 194.7816467285156 785.0037841796875 195.6877746582031 L 786.541015625 196.0533752441406 L 786.541015625 197.6335144042969 L 786.541015625 197.6409301757813 L 786.541015625 203.9615173339844 L 786.541015625 204.8904724121094 L 785.8311767578125 205.48974609375 C 784.682861328125 206.4591674804688 784.0242919921875 207.8797302246094 784.0242919921875 209.3872375488281 C 784.0242919921875 210.4583435058594 784.3521728515625 211.480712890625 784.9724731445313 212.3438110351563 L 785.3484497070313 212.8668823242188 L 785.3484497070313 213.5110473632813 L 785.3484497070313 213.5175170898438 L 785.3484497070313 216.2367248535156 C 785.3849487304688 216.2556457519531 785.420654296875 216.2740478515625 785.454833984375 216.2915954589844 L 786.541015625 216.8495483398438 L 786.541015625 218.0706481933594 L 786.541015625 287.57763671875 L 786.541015625 297.0733642578125 L 786.541015625 299.0733642578125 L 784.541015625 299.0733642578125 L 783.2601318359375 299.0733642578125 L 783.2601318359375 299.6355285644531 C 783.2601318359375 301.56103515625 781.6940307617188 303.1275634765625 779.76904296875 303.1275634765625 C 777.8440551757813 303.1275634765625 776.2778930664063 301.56103515625 776.2778930664063 299.6355285644531 L 776.2778930664063 299.0733642578125 L 773.90283203125 299.0733642578125 L 771.90283203125 299.0733642578125 L 771.90283203125 297.0733642578125 L 771.90283203125 295.7999267578125 L 768.7671508789063 295.7999267578125 L 768.7671508789063 296.7740478515625 L 768.7886962890625 296.7740478515625 L 770.7886962890625 296.7740478515625 L 770.7886962890625 298.7740478515625 L 770.7886962890625 302.725341796875 L 770.7886962890625 304.725341796875 L 768.7886962890625 304.725341796875 L 767.4669799804688 304.725341796875 L 767.4669799804688 306.8910827636719 L 768.7886962890625 306.8910827636719 L 770.7886962890625 306.8910827636719 L 770.7886962890625 308.8910827636719 L 770.7886962890625 312.8312377929688 L 770.7886962890625 314.8312377929688 L 768.7886962890625 314.8312377929688 L 768.7671508789063 314.8312377929688 L 768.7671508789063 315.8164672851563 L 771.90283203125 315.8164672851563 L 771.90283203125 314.5440063476563 L 771.90283203125 312.5440063476563 L 773.90283203125 312.5440063476563 L 776.2778930664063 312.5440063476563 L 776.2778930664063 311.9808959960938 C 776.2778930664063 310.0558776855469 777.8440551757813 308.4898071289063 779.76904296875 308.4898071289063 C 781.6940307617188 308.4898071289063 783.2601318359375 310.0558776855469 783.2601318359375 311.9808959960938 L 783.2601318359375 312.5440063476563 L 784.541015625 312.5440063476563 L 786.541015625 312.5440063476563 L 786.541015625 314.5440063476563 L 786.541015625 317.0978393554688 L 786.541015625 319.0108642578125 C 786.541015625 320.4426879882813 787.7059326171875 321.6075439453125 789.1376953125 321.6075439453125 C 790.5654296875 321.6075439453125 791.7269897460938 320.4426879882813 791.7269897460938 319.0108642578125 L 791.7269897460938 218.0706481933594 L 791.7269897460938 216.8496704101563 L 792.8129272460938 216.2917175292969 C 792.8490600585938 216.2731628417969 792.8845825195313 216.2547607421875 792.9195556640625 216.2364807128906 L 792.9195556640625 213.5175170898438 L 792.9195556640625 213.5110473632813 L 792.9195556640625 212.8669128417969 L 793.2954711914063 212.3438415527344 C 793.9152221679688 211.4814758300781 794.2427978515625 210.4591064453125 794.2427978515625 209.3872375488281 C 794.2427978515625 207.8807067871094 793.5828247070313 206.4559631347656 792.4320678710938 205.4783020019531 L 791.7269897460938 204.8792724609375 L 791.7269897460938 203.9541015625 L 791.7269897460938 197.6409301757813 L 791.7269897460938 196.0604858398438 L 793.2645874023438 195.6950988769531 C 797.0780029296875 194.7889709472656 800.5350952148438 192.5936889648438 802.9990234375 189.513671875 C 804.2299194335938 187.9750671386719 805.1884765625 186.2584228515625 805.8480224609375 184.4114379882813 C 806.530517578125 182.5005493164063 806.8765258789063 180.4917297363281 806.8765258789063 178.4408569335938 C 806.8765258789063 173.7025756835938 805.0313720703125 169.2479553222656 801.6809692382813 165.8975524902344 C 798.33056640625 162.5471496582031 793.8759765625 160.7019958496094 789.1376953125 160.7019958496094 M 789.1376953125 194.5861511230469 C 780.234619140625 194.5861511230469 772.991455078125 187.3434143066406 772.991455078125 178.4408569335938 C 772.991455078125 169.5382995605469 780.234619140625 162.2955627441406 789.1376953125 162.2955627441406 C 798.0402221679688 162.2955627441406 805.282958984375 169.5382995605469 805.282958984375 178.4408569335938 C 805.282958984375 187.3434143066406 798.0402221679688 194.5861511230469 789.1376953125 194.5861511230469 M 789.1376953125 158.7019958496094 C 800.0392456054688 158.7019958496094 808.8765258789063 167.539306640625 808.8765258789063 178.4408569335938 C 808.8765258789063 187.7650146484375 802.4177856445313 195.5758056640625 793.7269897460938 197.6409301757813 L 793.7269897460938 203.9541015625 C 795.2681884765625 205.2634582519531 796.2427978515625 207.2127075195313 796.2427978515625 209.3872375488281 C 796.2427978515625 210.928466796875 795.7559204101563 212.3472595214844 794.9195556640625 213.5110473632813 L 794.9195556640625 213.5175170898438 L 794.9195556640625 216.7983703613281 C 794.9195556640625 217.17578125 794.7303466796875 217.5179748535156 794.410400390625 217.69970703125 C 794.22119140625 217.8091430664063 793.9959106445313 217.9324645996094 793.7269897460938 218.0706481933594 L 793.7269897460938 319.0108642578125 C 793.7269897460938 321.5488891601563 791.6683349609375 323.6075439453125 789.1376953125 323.6075439453125 C 786.599609375 323.6075439453125 784.541015625 321.5488891601563 784.541015625 319.0108642578125 L 784.541015625 317.0978393554688 L 784.541015625 314.5440063476563 L 781.2601318359375 314.5440063476563 L 781.2601318359375 311.9808959960938 C 781.2601318359375 311.1629638671875 780.5868530273438 310.4898071289063 779.76904296875 310.4898071289063 C 778.94091796875 310.4898071289063 778.2778930664063 311.1629638671875 778.2778930664063 311.9808959960938 L 778.2778930664063 314.5440063476563 L 773.90283203125 314.5440063476563 L 773.90283203125 316.7343139648438 C 773.90283203125 317.33056640625 773.4168701171875 317.8164672851563 772.8206176757813 317.8164672851563 L 767.838134765625 317.8164672851563 C 767.2418823242188 317.8164672851563 766.7671508789063 317.33056640625 766.7671508789063 316.7343139648438 L 766.7671508789063 312.8312377929688 L 768.7886962890625 312.8312377929688 L 768.7886962890625 308.8910827636719 L 765.4669799804688 308.8910827636719 L 765.4669799804688 302.725341796875 L 768.7886962890625 302.725341796875 L 768.7886962890625 298.7740478515625 L 766.7671508789063 298.7740478515625 L 766.7671508789063 294.8821105957031 C 766.7671508789063 294.2747192382813 767.2418823242188 293.7999267578125 767.838134765625 293.7999267578125 L 772.8206176757813 293.7999267578125 C 773.4168701171875 293.7999267578125 773.90283203125 294.2747192382813 773.90283203125 294.8821105957031 L 773.90283203125 297.0733642578125 L 778.2778930664063 297.0733642578125 L 778.2778930664063 299.6355285644531 C 778.2778930664063 300.4534301757813 778.94091796875 301.1275634765625 779.76904296875 301.1275634765625 C 780.5868530273438 301.1275634765625 781.2601318359375 300.4534301757813 781.2601318359375 299.6355285644531 L 781.2601318359375 297.0733642578125 L 784.541015625 297.0733642578125 L 784.541015625 287.57763671875 L 784.541015625 218.0706481933594 C 784.2720336914063 217.9324645996094 784.039306640625 217.8091430664063 783.8575439453125 217.69970703125 C 783.53759765625 217.5179748535156 783.3484497070313 217.17578125 783.3484497070313 216.7983703613281 L 783.3484497070313 213.5175170898438 L 783.3484497070313 213.5110473632813 C 782.5120239257813 212.3472595214844 782.0242919921875 210.928466796875 782.0242919921875 209.3872375488281 C 782.0242919921875 207.2127075195313 782.9988403320313 205.2634582519531 784.541015625 203.9615173339844 L 784.541015625 197.6409301757813 L 784.541015625 197.6335144042969 C 775.8576049804688 195.5683898925781 769.3988037109375 187.7575988769531 769.3988037109375 178.4408569335938 C 769.3988037109375 167.539306640625 778.2352294921875 158.7019958496094 789.1376953125 158.7019958496094 Z M 789.1376953125 192.5861511230469 C 796.948486328125 192.5861511230469 803.282958984375 186.2516479492188 803.282958984375 178.4408569335938 C 803.282958984375 170.6300659179688 796.948486328125 164.2955627441406 789.1376953125 164.2955627441406 C 781.326904296875 164.2955627441406 774.991455078125 170.6300659179688 774.991455078125 178.4408569335938 C 774.991455078125 186.2516479492188 781.326904296875 192.5861511230469 789.1376953125 192.5861511230469 Z" stroke="none" fill="#a67c52"/>
  </g>
</svg>
