<svg xmlns="http://www.w3.org/2000/svg" xmlns:xlink="http://www.w3.org/1999/xlink" width="1366" height="707.29" viewBox="0 0 1366 707.29"><defs><style>.a,.ae,.ar,.n,.t{fill:none;}.b{clip-path:url(#a);}.c{fill:#f7d45e;}.d{fill:#ffe182;}.e{fill:#c2c2c2;}.e,.v{opacity:0.2;}.f{fill:#fff;}.g{fill:#fcb95d;}.ab,.ac,.g,.h,.i,.j,.l,.n,.o,.p,.q,.r,.s,.t,.u,.v{fill-rule:evenodd;}.h{fill:#a1dd6f;}.aa,.i{opacity:0.15;}.j{fill:#4a5e3a;}.k,.l{fill:#243330;}.m,.p{fill:#171f1c;}.n{stroke:#a1dd70;stroke-width:1.974px;}.ae,.ar,.n,.t{stroke-miterlimit:10;}.o{fill:#243e41;}.q{fill:#c98121;}.r{fill:#f7805c;}.s{fill:#7fd1d8;}.t{stroke:#3e6569;stroke-width:12.871px;}.w{fill:#6d6e71;}.x{fill:#bcbec0;}.y{fill:#e6e7e8;}.z{opacity:0.5;}.ab,.ad{fill:#d1d3d4;}.ac{fill:#36a5ad;}.ae{stroke:#4a5e3a;stroke-width:1.89px;}.af{fill:#fab411;}.ag{fill:#d49500;}.ah{fill:#a68641;}.ai{fill:#bb9749;}.aj{fill:#917539;}.ak{fill:#826933;}.al{fill:#a38136;}.am{fill:#d5d8d6;}.an{fill:#1d1d1c;}.ao{fill:#eba910;}.ap{fill:#c48d0d;}.aq{fill:#b37d00;}.ar{stroke:#917539;}.as{fill:#a9aaa7;}.at{fill:#90918f;}</style><clipPath id="a"><rect class="a" width="1366" height="707.29" transform="translate(-3536.372 3878.237)"/></clipPath></defs><g transform="translate(3536.372 -3878.237)"><g class="b"><path class="c" d="M-2170.372,3835.773v758.464L-2412.6,4526.65l-32.991-6.263,1.636-558.092,29.007-38.07Z"/><path class="c" d="M-3220.076,3944.042l-16.051,556.371-300.044,74.4V3824.759l298.844,93.571Z"/><path class="d" d="M-2838.395,3907.643H-3263v617.384h849.165V3907.643Z"/><path class="e" d="M-2413.837,3923.823v-16.18H-3263v2.647l-273.169-85.531v750.053L-3263,4507.077v17.949h841.85l8.552,1.624,242.228,67.586V3835.773Z"/><path class="f" d="M-3536.372,3879.351c121.657,30.38,335.7,73.888,615,80.372,352.972,8.2,622.429-47.1,751-78.7v-62.455h-1366Z"/><path class="f" d="M-3536.372,4543.9c121.657-30.38,335.7-73.889,615-80.373,352.972-8.194,622.429,47.1,751,78.7v48.78l-1365.8,2.839Z"/><path class="g" d="M-3186.607,4622.858s-1.242,17.439-3.106,23.1,11.84,3.9,12.445,4.117,11.208-6.776,11.208-6.776-6.788-2.065-4.568-23.638S-3186.607,4622.858-3186.607,4622.858Z"/><path class="g" d="M-3306.3,4624.27s1.242,17.439,3.107,23.1-11.841,3.9-12.446,4.116-11.208-6.775-11.208-6.775,6.788-2.066,4.568-23.638S-3306.3,4624.27-3306.3,4624.27Z"/><path class="h" d="M-3261.984,4447.993c-1.411,6.611-6.927,15.175-10.783,29.875a121.7,121.7,0,0,0-3.743,25.672c-1.215,27.49-10.821,35.722-12.791,44.347a13.2,13.2,0,0,0-.309,4.128c2.151,25.038-9.893,74.125-9.893,74.125s-2.565.219-6.218.339c-8.715.287-23.634-.015-24.856-5.282-1.743-7.478-8.52-26.3-8.52-36.689s4.49-28.607,5.954-33.029,2.422-24.5,0-31.421c-2.762-7.9-.173-24.374,3.713-40.477,4.5-18.654,10.768-36.8,12.511-40.515,0,0,31.233-13.409,37.926-10.828S-3259.9,4438.236-3261.984,4447.993Z"/><path class="h" d="M-3157.97,4584.508c0,10.384-6.776,29.211-8.519,36.689s-31.074,4.943-31.074,4.943-12.044-49.087-9.893-74.125c.913-10.662-11.689-16.707-13.1-48.475a120.96,120.96,0,0,0-4.015-26.691c-3.841-14.081-9.13-22.4-10.511-28.856-2.083-9.757,10.315-17.167,17.008-19.755s37.927,10.828,37.927,10.828a226,226,0,0,1,7.44,21.831c6.014,20.118,12.655,48.083,8.784,59.161-2.423,6.919-1.464,27.007,0,31.421S-3157.97,4574.125-3157.97,4584.508Z"/><path class="i" d="M-3261.984,4447.993c-1.411,6.611-6.927,15.175-10.783,29.875-7.712-1-17.688-5.411-27.656-8.95-8.346-2.958-20.533,4.445-29.007,10.663,4.5-18.654,10.768-36.8,12.511-40.515,0,0,31.233-13.409,37.926-10.828S-3259.9,4438.236-3261.984,4447.993Z"/><path class="i" d="M-3172.707,4460.9a93.613,93.613,0,0,0-30.592,10.149c-6.368,3.351-13.786,5.026-21.272,5.8-3.841-14.081-9.13-22.4-10.511-28.856-2.083-9.757,10.315-17.167,17.008-19.755s37.927,10.828,37.927,10.828A226,226,0,0,1-3172.707,4460.9Z"/><path class="j" d="M-3292.785,4316.948c-6.428-5.049-23.271-16.939-36.485-9.469s-9.8,23.891-15.516,30.831-33.105-10.663-61.384,19.743c-32.556,35-5.5,62.061,16.553,80.23,22.7,18.7,58.881,10.429,77.213-11.822,17.393-21.111,3.918-41.6,11.021-50.227s17.762-10.12,22.21-14.533c4.47-4.435,5.681-7.322,2.946-9.575s-8.45,2.281-14.366-3.953c-5.872-6.188-3.642-16.18,1.208-22.068S-3289.993,4319.143-3292.785,4316.948Z"/><path class="j" d="M-3311.332,4328.624l12.951,10.67,160.981-197.683-10.463-8.621Z"/><path class="j" d="M-3148.111,4134.795l1.355-10.586c.585-4.578,31.951-24.93,41.814-28.177,2.744-.9,5.752-.153,4.769,3.007l-3.072,9.88c-.833,2.68-8.7,2.579-13.054,11.636l-6.857,14.286c-1.254,2.61-4.932,1.426-8.663,2.975s-5.009,3.1-7.15,5.522S-3149.959,4138.618-3148.111,4134.795Z"/><rect class="k" width="1.945" height="4.175" transform="matrix(0.841, -0.541, 0.541, 0.841, -3114.783, 4097.688)"/><path class="l" d="M-3115.837,4099.15a5.505,5.505,0,0,0,4.494-2.833l-1.236-1.924c-.6-.328-2.7-.251-4.511,2.737Z"/><rect class="k" width="1.946" height="4.176" transform="matrix(0.841, -0.54, 0.54, 0.841, -3121.413, 4101.529)"/><path class="l" d="M-3122.466,4102.99a5.509,5.509,0,0,0,4.493-2.831l-1.237-1.926c-.6-.328-2.7-.25-4.509,2.737Z"/><rect class="k" width="1.945" height="4.176" transform="translate(-3127.796 4105.589) rotate(-32.695)"/><path class="l" d="M-3128.849,4107.05a5.5,5.5,0,0,0,4.493-2.831l-1.235-1.925c-.6-.328-2.7-.249-4.51,2.739Z"/><rect class="k" width="1.945" height="4.176" transform="matrix(0.842, -0.54, 0.54, 0.842, -3134.112, 4109.88)"/><path class="l" d="M-3135.165,4111.341a5.5,5.5,0,0,0,4.493-2.831l-1.236-1.925c-.6-.328-2.7-.25-4.509,2.738Z"/><rect class="k" width="1.945" height="4.176" transform="translate(-3140.042 4114.248) rotate(-32.695)"/><path class="l" d="M-3141.1,4115.709a5.5,5.5,0,0,0,4.493-2.831l-1.235-1.925c-.6-.329-2.7-.25-4.511,2.737Z"/><rect class="k" width="1.946" height="4.176" transform="translate(-3145.777 4119.494) rotate(-32.708)"/><path class="l" d="M-3146.83,4120.955a5.5,5.5,0,0,0,4.494-2.831l-1.236-1.925c-.6-.329-2.7-.249-4.51,2.738Z"/><circle class="m" cx="21.071" cy="21.071" r="21.071" transform="translate(-3358.208 4351.118)"/><path class="n" d="M-3141.883,4121.956l-.785,11.034L-3370.6,4406.155"/><path class="n" d="M-3364.621,4411.016l226.525-275.345,1.946-18.96"/><path class="n" d="M-3374.036,4402.36l13.693,11.614-4.279,4.665-13.458-11.709Z"/><path class="g" d="M-3367.533,4315.358c-.355,1.065-5.682,23.805-2.486,34.1s41.192,57.877,48.65,66.4c0,0-2.287-14.951-2.242-16.014s-28.117-49.45-27.987-54.652c.045-1.776,4-11.719,5.4-29.829S-3367.533,4315.358-3367.533,4315.358Z"/><path class="o" d="M-3231.379,4139.3c-3.962,5.179-5.052,3.154,1.41,10.025,2.91,4.462-4,4.526-8.91,6.885a9.369,9.369,0,0,0-2.782,1.9c-2.436,2.1-7.3,2.551-11.91,3.231-9.821-1.179-12.2,6.615-11.923-3.231.038-.128.089-.256.115-.384,2.41-8.321-11.4-.693-8.577-8.09,6.449-2.923-7.9.282-3.231-11.91,6.872-5.128-8.4-9.372,3.231-11.923.757-4.577,11.564-1.526,8.462-8.462,3.1-3.73,8.961-1.589,11.923-3.23,11.833-2.667,6.871,6.346,11.91,3.23,6.679-2.256,8.423,6.359,8.474,8.462C-3229.354,4129.929-3221.161,4139.3-3231.379,4139.3Z"/><path class="p" d="M-3238.879,4156.211a9.369,9.369,0,0,0-2.782,1.9c-2.436,2.1-7.3,2.551-11.91,3.231-9.821-1.179-12.2,6.615-11.923-3.231.038-.128.089-.256.115-.384,3.218-.6,6.168-1.778,6.167-4.321-.006-11.481,13.6-12.777,13.6-12.777s3.7,7.8,3.926,8.649C-3241.571,4149.711-3240.251,4152.954-3238.879,4156.211Z"/><path class="q" d="M-3287.9,4185.542s30.376-.434,32.98-12.15,3.038-18.108,0-24.893,17.358,7.535,17.358,7.535-2.17,9.113,0,16.056,6.943,7.083,14.32,6.362,0,22.712,0,22.712-26.426,2.866-28.4,3.82-29.314.348-30.615,0S-3287.9,4185.542-3287.9,4185.542Z"/><path class="r" d="M-3297.051,4367.634c1.235.093,7.12-2.385,16.532,3.585s19.034,15.3,26.156,13.868,2.351-9.554-1.769-11.336c-3.709-1.6-10.711-3.691-9.195-6.353s4.82-2.36,8.148.01,5.984.086,4.842-1.242-9.4-6.065-11.386-6.464c-1.473-.294-8.166,1.722-11.682.872s-17.485-5.484-17.485-5.484Z"/><path class="g" d="M-3247.975,4129.908s14.754-3.461,14.754,13.719-1.736,19.352-14.754,14.144S-3262.729,4130.686-3247.975,4129.908Z"/><path class="s" d="M-3099.858,4319.273l-.256.023c-2.324.219-20.254,1.886-38.523,3.411-1.977.166-3.961.332-5.931.49-4.309.347-8.542.679-12.5.974-10.625.784-19.25,1.29-21.959,1.109l-4.1-9.108-3.464-7.705-1.585-3.524.151,1.555,1.094,6.353,6.845,39.8,16.873,98.053-173.333,2.1,5.411-47.97,2.92-25.9,2-17.68,6.286-55.735.468-4.128-5.29,22.819-83.255-2.422s9.681-38.99,34.221-113.756c9.078-27.679,45.4-49.963,93.261-34.546a125.553,125.553,0,0,1,13.673,5.312c2.355,1.072,11.357,20.239,25.921,13.493.309-.144.619-.287.921-.438,13.3-6.414,16.337-13.734,18.518-16.737,0-.008.007-.015.015-.023.075-.09.143-.181.211-.271,1.532-1.932,5.26-3.977,10.361-5.713,13.854-4.716,37.9-7.539,50.355,1.206s23.939,24.641,30.44,46.478c10.919,33.534,22.736,72.721,28.184,94.2.091.355.174.694.257,1.026C-3100.514,4316.617-3099.858,4319.273-3099.858,4319.273Z"/><path class="g" d="M-3161.727,4317.631c-1.593,1.346-2.343,3.538-13.072,7.048-4.734-7.57-48.967-41.908-63.627-50.727-3.262-2.817-7.458-6.482-8.868-7.9-2.423-2.439-6.725-7.932-6.636-9.357s-7.051-7.131-8.693-7.4-2.19,3.01,1.376,4.548,4.857,4.841,3.441,7.385-4.949-3.124-8.788-3.019-8.778,4.113-6.436,10.608,9.568,3.242,19.6,6.641c4.589,1.555,6.38,5.154,9.25,7.415,6.681,5.26,34.572,49.6,57.547,66.479s45.727-25.4,48.362-26.523C-3138.269,4322.822-3160.135,4316.284-3161.727,4317.631Z"/><path class="t" d="M-3253.115,4220.061l17.033,34.513,38.088,5.534-27.561,26.865,6.506,37.934-34.066-17.91-34.067,17.91,6.506-37.934-27.56-26.865,38.087-5.534Z"/><path class="u" d="M-3139.565,4324.2c-.611.777-1.388,1.848-2.316,3.124Z"/><path class="v" d="M-3315.689,4364.783c-4.709,5.886-11.945,28.517-15.439,40.047l11.206-99.313,2.905-12.912c18.11-16.246,10.383,31.166,12.247,45.548S-3309.3,4356.792-3315.689,4364.783Z"/><path class="v" d="M-3240,4191.851c-4.309,5.584-14.391,11.327-20.178,7.538-8.542-5.584-23.816-5.591-26.479-18.638-1.057-5.162,2.029-6.973,6.142-7.267a125.553,125.553,0,0,1,13.673,5.312c2.355,1.072,11.357,20.239,25.921,13.493C-3240.614,4192.145-3240.3,4192-3240,4191.851Z"/><path class="j" d="M-3233.347,4282.086c-23.249,26.864-94.861,96.846-94.861,96.846l1.623-17.348c.12-.106.241-.219.377-.332,9.742-8.708,57.75-56.324,83.7-90.477,26.313-34.614,19.265-92.326,19.265-92.326s.695-1.418,1.759-3.335c0-.008.007-.015.015-.023.075-.09.143-.181.211-.271,1.532-1.932,5.26-3.977,10.361-5.713C-3207.758,4203.328-3212.542,4258.052-3233.347,4282.086Z"/><path class="w" d="M-3262.324,4245.839l.085,1.485-13.69,33.8.212,1.01,3.506,1.741,1.427-.484,18.146-31.3,1.234-.83s-.606-4.089-.494-4.315S-3262.324,4245.839-3262.324,4245.839Z"/><path class="x" d="M-3271.99,4283.242l-3.36-1.668a1.82,1.82,0,0,1-.858-2.359l13.969-31.891,9.6,4.765-16.954,30.41A1.819,1.819,0,0,1-3271.99,4283.242Z"/><path class="x" d="M-3274.151,4286.343l-2.362-1.172.8-3.041,3.506,1.74Z"/><path class="x" d="M-3248.279,4231.489l-.188-.093a10.4,10.4,0,0,0-13.932,4.689l-.093.188a10.378,10.378,0,0,0,.168,9.566l10.92,5.42a10.377,10.377,0,0,0,7.72-5.651l.094-.188A10.394,10.394,0,0,0-3248.279,4231.489Z"/><rect class="y" width="4.619" height="1.858" rx="0.92" transform="translate(-3262.041 4257.125) rotate(-63.603)"/><rect class="w" width="4.619" height="1.858" rx="0.92" transform="translate(-3262.041 4257.125) rotate(-63.603)"/><path class="r" d="M-3175.544,4323.65a11.17,11.17,0,0,1,.747,1.026Z"/><path class="g" d="M-3141.881,4327.325c-7.788,10.7-26.2,35.655-44.748,22.019-22.978-16.873-50.868-61.221-57.546-66.48-2.875-2.257-4.664-5.856-9.252-7.411a46.424,46.424,0,0,0-11.123-2c-.15-.008-.3-.023-.452-.046-2.981-.294-5.3-.716-6.807-2.46a4.756,4.756,0,0,1-.5-.649,7.131,7.131,0,0,1-.724-1.486c-2.257-6.263,2.241-10.21,6.014-10.58.121-.015.249-.022.37-.03h.052c1.653-.045,3.245.981,4.641,1.955a2.978,2.978,0,0,0,.815.573c1.215.853,2.226,1.472,2.928.966a1.377,1.377,0,0,0,.408-.475,4.23,4.23,0,0,0,.339-.808,4.471,4.471,0,0,0,.144-.626,3.99,3.99,0,0,0,.588-.966l.023-.023a.1.1,0,0,0-.015.046c.022-.038.037-.068.052-.1a.339.339,0,0,1,.046-.045c.045-.06.1-.113.151-.173q.113-.125.249-.249c.1-.114.211-.219.317-.325.158-.151.309-.3.46-.453a8.237,8.237,0,0,0,1.23-1.531,1.3,1.3,0,0,1,.287.724c-.083,1.426,4.218,6.92,6.64,9.357,1.411,1.419,5.607,5.086,8.867,7.9,10.587,6.369,36.6,26.049,52.015,39.337,1.7,7.312,4.12,18.043,3.886,19.092-.355,1.6,12.609.709,14.028,1.064C-3167.545,4333.686-3151.1,4329.988-3141.881,4327.325Z"/><path class="r" d="M-3138.267,4322.82a1.371,1.371,0,0,0-.377.3h-.008a10.22,10.22,0,0,0-.913,1.079c-1.185-.212-2.543-.468-4.014-.785-4.717.279-9.312.543-13.485.755-8.55.43-15.326.679-17.733.513v-.008c10.73-3.509,11.477-5.7,13.07-7.048a3.045,3.045,0,0,1,1.788-.136C-3154.355,4318.013-3138.267,4322.82-3138.267,4322.82Z"/><path class="s" d="M-3101.661,4312.021c-.083-.332-.166-.671-.257-1.026-2.415-9.525-6.084-22.533-10.37-36.982-7.618.338-15.347-.328-22.9-.706-14.4-.721-29.029-1.927-43.428-.859a9.68,9.68,0,0,1-1.529-.02,20.446,20.446,0,0,1-9.8,3.584,23.062,23.062,0,0,1-6.482-.264c.181,1.086.339,2.188.445,3.3.385,1.547.815,3.094,1.268,4.641,1.268,4.362,2.716,8.693,3.962,12.987.905,3.124,1.841,6.255,2.595,9.432l.068.295.068.1a.024.024,0,0,0,.008.015l1.426,1.954,11.04,15.183.747,1.026v.008c2.407.166,9.183-.083,17.733-.513,4.173-.212,8.768-.476,13.485-.755l4.927-.294h.008c19.25-1.185,38.786-2.581,38.786-2.581s-.09-.43-.256-1.245C-3100.408,4317.907-3100.937,4315.41-3101.661,4312.021Z"/><path class="v" d="M-3159.939,4317.492a22.694,22.694,0,0,1-5.184-4.112,15.816,15.816,0,0,0-1.922-1.767h0c-8.093-12.024-29.593-29.524-29.593-29.524l8.62,24.409a.024.024,0,0,0,.008.015c.053.241.732,3.071,1.6,6.776a101.291,101.291,0,0,1,10.866,10.361l.747,1.026v.008c2.407.166,9.183-.083,17.733-.513,4.173-.212,8.768-.476,13.485-.755C-3148.6,4322.322-3154.9,4320.511-3159.939,4317.492Z"/><g class="z"><path class="k" d="M-3303.218,4491.454l-.658.772-6.284,7.372-10.521,12.337q.437.65.831,1.343c.169.3.332.6.49.9l9.026-12.089c2.71-3.645,5.435-7.309,7.67-10.316Q-3302.942,4491.616-3303.218,4491.454Z"/><path class="k" d="M-3305.756,4489.918l-2.375,2.785-5.017,5.883-9.406,11.026a16.219,16.219,0,0,1,1.344,1.579l7.924-10.612,6.871-9.24q.491-.666.926-1.253C-3305.579,4490.031-3305.667,4489.974-3305.756,4489.918Z"/><path class="k" d="M-3323.332,4508.868c2.827-3.782,13.939-18.652,15.224-20.481l-.019-.014-15.88,18.612.01,1.333C-3323.77,4508.5-3323.548,4508.677-3323.332,4508.868Z"/><path class="k" d="M-3311.658,4488.681c-.262.465-12.774,17.191-12.774,17.191l-.02-2.2Z"/><path class="k" d="M-3314.8,4488.924c-.209.372-10.2,13.728-10.2,13.728l-.019-1.757Z"/><path class="k" d="M-3317.07,4488.858c-.167.3-8.15,10.967-8.15,10.967l-.017-1.4Z"/><path class="k" d="M-3311.1,4511.075l-16.309-18.6q-1.016.666-2.059,1.29c4.745,4.861,11.721,12,17.751,18.161Z"/><path class="k" d="M-3309.328,4508.641l-15.664-17.864q-.814.617-1.657,1.191c3.983,4.082,11.163,11.435,16.885,17.273Z"/><path class="k" d="M-3307.644,4506.292l-14.407-16.429-1.375-.337q-.352.3-.713.586c2.748,2.816,10.709,10.974,16.21,16.582Z"/><path class="k" d="M-3306.184,4504.176l-12.146-13.852-2.452-.6s9.065,9.3,14.407,14.738C-3306.311,4504.365-3306.248,4504.27-3306.184,4504.176Z"/><path class="k" d="M-3304.912,4502.23-3315.2,4490.5l-1.961-.48s7.969,8.171,12.123,12.4C-3304.993,4502.357-3304.952,4502.294-3304.912,4502.23Z"/><path class="k" d="M-3303.792,4500.819l-8.626-9.837-1.569-.385s6.916,7.092,10.094,10.321C-3303.859,4500.885-3303.826,4500.851-3303.792,4500.819Z"/></g><g class="z"><path class="k" d="M-3180.566,4526.768l.293.573,2.795,5.476,4.677,9.167c.324-.066.654-.12.989-.161.215-.027.432-.049.648-.068l-4.894-8.23c-1.479-2.474-2.965-4.962-4.185-7C-3180.35,4526.6-3180.458,4526.686-3180.566,4526.768Z"/><path class="k" d="M-3182.083,4527.883l1.056,2.069,2.23,4.371,4.179,8.195a10.307,10.307,0,0,1,1.252-.405c-1.021-1.716-2.652-4.459-4.3-7.225l-3.748-6.273-.51-.848Z"/><path class="k" d="M-3175.244,4542.793c-1.53-2.577-7.548-12.705-8.308-13.9l-.013.009,7.053,13.833.784.318C-3175.569,4542.959-3175.408,4542.873-3175.244,4542.793Z"/><path class="k" d="M-3184.243,4531.043c.21.266,6.975,11.666,6.975,11.666l-1.3-.523Z"/><path class="k" d="M-3184.864,4532.945c.167.213,5.57,9.317,5.57,9.317l-1.035-.416Z"/><path class="k" d="M-3185.454,4534.259c.134.169,4.45,7.443,4.45,7.443l-.828-.331Z"/><path class="k" d="M-3170.977,4536.157l-14.868,5.042q.144.757.256,1.521c4-1.6,9.886-3.955,14.961-6C-3170.744,4536.536-3170.861,4536.347-3170.977,4536.157Z"/><path class="k" d="M-3171.974,4534.527l-14.28,4.843q.163.627.295,1.261c3.362-1.344,9.417-3.766,14.231-5.7Z"/><path class="k" d="M-3172.942,4532.969l-13.133,4.454-.532.724c.059.187.116.373.17.561,2.319-.927,9.037-3.612,13.661-5.474C-3172.831,4533.145-3172.886,4533.057-3172.942,4532.969Z"/><path class="k" d="M-3173.828,4531.6l-11.072,3.755-.95,1.291s7.653-3.056,12.142-4.866Z"/><path class="k" d="M-3174.659,4530.38l-9.375,3.179-.758,1.033s6.727-2.686,10.214-4.095Z"/><path class="k" d="M-3175.214,4529.381l-7.864,2.667-.607.826s5.839-2.332,8.5-3.411C-3175.192,4529.436-3175.2,4529.408-3175.214,4529.381Z"/></g><path class="aa" d="M-3289.61,4552.015c2.151,25.038-9.893,74.125-9.893,74.125s-2.565.219-6.218.339c.053-.52-6.186-.471-5.839-.958,14.382-20.108,16.513-56.462,18.51-65.783.46-2.147,1.591-8.681,3.749-11.851A13.2,13.2,0,0,0-3289.61,4552.015Z"/><path class="ab" d="M-3128.729,4663.545c-6.429.861-19.438-.12-28.9-.649h-.007c-.3-.022-.581-.037-.868-.052-4.935-.265-8.769-.385-9.946-.008-.128.045-.287.083-.475.128-.468.114-1.117.242-1.909.363-7.139,1.109-25.574,2.211-25.8-3.328a13.552,13.552,0,0,1,.3-3.177c.045-.226.09-.453.151-.679.007-.015.007-.023.015-.038.068-.3.143-.611.234-.921.007-.007.007-.007.007-.015,1.63-5.72,5.577-11.764,6.452-11.243,11.711,6.972,23.166-1.276,25.528-3.155.294-.233.445-.369.445-.369s.446.03,1.291.113c.46.053,1.049.121,1.743.2.377.045.785.1,1.23.158.151.023.3.038.453.068q.543.068,1.154.159c.2.03.393.06.6.1h.007c1.11.173,2.347.384,3.713.641.853.158,1.743.332,2.686.528,1.419.287,2.943.627,4.558,1,.151.045.31.1.461.151.807.249,1.6.528,2.377.815a49.545,49.545,0,0,1,7.432,3.456l.008.007C-3124.827,4654.075-3120.8,4662.489-3128.729,4663.545Z"/><path class="ac" d="M-3135.784,4647.8a15.376,15.376,0,0,0-11.025,11.206s-5.041-.928-10.753-1.766c-.49-.067-1-.135-1.5-.2-.913-.129-1.841-.257-2.761-.37-.793-.1-1.578-.189-2.34-.272-4.24-.452-7.908-.618-9.1-.053-3.23,1.525-23.287,5.336-23.068.476a2.381,2.381,0,0,1,.151-.679c.007-.015.007-.023.015-.038a5.748,5.748,0,0,0,.234-.921c.007-.007.007-.007.007-.015,1.63-5.72,5.577-11.764,6.452-11.243,11.711,6.972,23.166-1.276,25.528-3.155.294-.233.445-.369.445-.369s.446.03,1.291.113c.46.053,1.049.121,1.743.2.377.045.785.1,1.23.158.151.023.3.038.453.068q.543.068,1.154.159c.2.03.393.06.6.1h.007c1.11.173,2.347.384,3.713.641.853.158,1.743.332,2.686.528,1.419.287,2.943.627,4.558,1,.151.045.31.1.461.151.807.249,1.6.528,2.377.815a49.545,49.545,0,0,1,7.432,3.456Z"/><path class="ad" d="M-3157.63,4641.1c-.219.2-.528.5-.905.882a22.436,22.436,0,0,0-3.547,4.536,10.6,10.6,0,0,0-.822,1.765c-.083.234-.151.476-.212.717l-2.2-.536a11.559,11.559,0,0,1,1.147-2.852v-.007a16.81,16.81,0,0,1,1.064-1.7,25.052,25.052,0,0,1,2.634-3.192c.377.045.785.1,1.23.158.151.023.3.038.453.068Q-3158.241,4641.013-3157.63,4641.1Z"/><path class="ad" d="M-3150.62,4642.371c-1.26,1.185-4.5,4.49-5.274,7.705l-2.2-.536c.732-3.018,3.117-5.939,4.792-7.7C-3152.453,4642-3151.563,4642.175-3150.62,4642.371Z"/><path class="ad" d="M-3143.224,4644.341c-1.472,1.464-4.068,4.361-4.754,7.2l-2.2-.536c.694-2.9,2.92-5.705,4.573-7.478C-3144.794,4643.775-3144,4644.054-3143.224,4644.341Z"/><path class="x" d="M-3161.825,4656.671a9.321,9.321,0,0,1-1.781,1.147,12.933,12.933,0,0,0-5.32,5.146c-1.336,2.324-1.751,4.664-1.283,5.894l-1.411.536c-.559-1.464-.287-3.743.785-6.067a14.589,14.589,0,0,1,6.55-6.86c.037-.022.083-.045.12-.068,3.758-1.954,3.139-4.195,1.261-8.112q-.159-.339-.34-.7c-.211-.431-.423-.868-.626-1.306-.106-.226-.2-.453-.295-.671a5.33,5.33,0,0,1-.226-4.075,3.488,3.488,0,0,1,.445-.763c.294-.233.445-.369.445-.369s.446.03,1.291.113l.2.6a1.921,1.921,0,0,0-1.012,1.034,3.041,3.041,0,0,0-.083,1.766,7.438,7.438,0,0,0,.589,1.728q.215.441.43.883c.068.135.128.271.2.4C-3160.2,4650.37-3158.467,4653.924-3161.825,4656.671Z"/><path class="x" d="M-3153.653,4649.276a28.4,28.4,0,0,1-1.924,3.826,20.455,20.455,0,0,0-1.985,4.142,6.512,6.512,0,0,0,.6,5.29l-.664.362h-.007l-.657.355c-.075-.136-.143-.272-.211-.407a7.858,7.858,0,0,1-.559-5.8,20.934,20.934,0,0,1,2.174-4.686,25.863,25.863,0,0,0,1.826-3.615,4.085,4.085,0,0,0,.256-1.253,4.625,4.625,0,0,0-.882-2.792,10.6,10.6,0,0,0-2.845-2.709c-.363-.241-.6-.377-.612-.384l.363-.657q.543.068,1.154.159c.2.03.393.06.6.1h.007a12.1,12.1,0,0,1,2.3,2.233,7.306,7.306,0,0,1,1.17,2.174A5.406,5.406,0,0,1-3153.653,4649.276Z"/><path class="ab" d="M-3363.5,4666.127c6.429.86,19.438-.121,28.9-.649h.007c.3-.022.581-.038.868-.053,4.935-.264,8.769-.385,9.946-.007.128.045.287.083.475.128.468.113,1.117.242,1.909.362,7.139,1.11,25.574,2.211,25.8-3.328a13.57,13.57,0,0,0-.3-3.176c-.045-.227-.09-.453-.151-.68-.007-.015-.007-.022-.015-.037-.068-.3-.143-.611-.234-.921l-.007-.007c-1.63-5.728-5.577-11.772-6.452-11.252-11.711,6.973-23.166-1.275-25.528-3.154-.295-.234-.445-.37-.445-.37s-.446.031-1.291.114c-.46.052-1.049.12-1.743.2-.377.046-.785.1-1.23.159-.151.023-.3.038-.453.068q-.543.067-1.154.158c-.2.03-.393.061-.6.1h-.007c-1.11.174-2.347.385-3.713.642-.853.158-1.743.332-2.686.528-1.419.287-2.943.626-4.558,1-.151.045-.31.1-.461.151-.807.249-1.6.528-2.377.814a49.651,49.651,0,0,0-7.432,3.457l-.008.007C-3367.406,4656.657-3371.435,4665.071-3363.5,4666.127Z"/><path class="ac" d="M-3356.449,4650.386a15.375,15.375,0,0,1,11.025,11.206s5.041-.928,10.753-1.766c.49-.068,1-.136,1.5-.2.913-.128,1.841-.256,2.761-.369.793-.1,1.578-.189,2.34-.272,4.24-.453,7.908-.619,9.1-.053,3.23,1.525,23.287,5.335,23.068.476a2.4,2.4,0,0,0-.151-.68c-.007-.015-.007-.022-.015-.037a5.762,5.762,0,0,1-.234-.921l-.007-.007c-1.63-5.728-5.577-11.772-6.452-11.252-11.711,6.973-23.166-1.275-25.528-3.154-.295-.234-.445-.37-.445-.37s-.446.031-1.291.114c-.46.052-1.049.12-1.743.2-.377.046-.785.1-1.23.159-.151.023-.3.038-.453.068q-.543.067-1.154.158c-.2.03-.393.061-.6.1h-.007c-1.11.174-2.347.385-3.713.642-.853.158-1.743.332-2.686.528-1.419.287-2.943.626-4.558,1-.151.045-.31.1-.461.151-.807.249-1.6.528-2.377.814a49.651,49.651,0,0,0-7.432,3.457Z"/><path class="ad" d="M-3334.6,4643.685c.219.2.528.5.905.883a22.455,22.455,0,0,1,3.547,4.535,10.646,10.646,0,0,1,.822,1.766c.083.234.151.475.212.717l2.2-.536a11.55,11.55,0,0,0-1.147-2.852v-.008a17.031,17.031,0,0,0-1.064-1.7,25.212,25.212,0,0,0-2.634-3.192c-.377.046-.785.1-1.23.159-.151.023-.3.038-.453.068Q-3333.992,4643.594-3334.6,4643.685Z"/><path class="ad" d="M-3341.613,4644.953c1.26,1.185,4.5,4.49,5.274,7.7l2.2-.535c-.732-3.019-3.117-5.939-4.792-7.7C-3339.78,4644.583-3340.67,4644.757-3341.613,4644.953Z"/><path class="ad" d="M-3349.009,4646.922c1.472,1.464,4.068,4.362,4.754,7.2l2.2-.535c-.694-2.9-2.92-5.705-4.573-7.478C-3347.439,4646.357-3348.231,4646.636-3349.009,4646.922Z"/><line class="ae" x1="2.153" y1="9.138" transform="translate(-3258.635 4220.414)"/><line class="ae" y1="9.287" x2="2.972" transform="translate(-3248.793 4219.989)"/><line class="ae" y1="4.729" x2="6.361" transform="translate(-3242.504 4229.044)"/><path class="af" d="M-2647.652,4246.571s-31.451,34.364-29.7,76.882l-2.621,45.721s4.951,31.742,16.89,46.6,41.936,24.171,41.936,24.171,53.875-18.056,58.534-31.161,25.045-77.755,24.463-80.084-25.045-47.76-25.045-47.76Z"/><path class="ag" d="M-2602.222,4217.159s-31.16,5.824-46.886,32.325c0,0,18.638,36.693,71.057,72.221l6.115,5.242,21.259-4.95Z"/><path class="af" d="M-2548.638,4314.134l-.874,10.192s-32.325-30.577-43.974-53.292-13.978-42.809-8.736-53.875c0,0,29.995-12.232,46.3,9.027Z"/><path class="ag" d="M-2548.638,4314.134s-11.066-13.979-13.687-31.452-1.748-47.759,6.406-56.5c0,0,27.084,12.814,26.792,46.886S-2548.638,4314.134-2548.638,4314.134Z"/><path class="ah" d="M-2421.279,4485.175V4507.7l-49.7,52.613.194-34.363Z"/><path class="ah" d="M-2620.278,4529.634v11.843l34.17,7.184s-4.271-6.019.582-7.378,2.33-6.407,2.33-6.407Z"/><path class="ah" d="M-2511.557,4549.826s-3.494,3.494-1.553,5.63,3.107,4.465-.194,6.989l42.13,8.348v-12.425Z"/><path class="ah" d="M-2471.174,4570.793l21.744-20.773s-8.737,1.359-4.66-5.048-.776-8.154-.776-8.154l-16.5,15.726Z"/><path class="ah" d="M-2440.888,4525.363s.777,3.5,7.96-.776c0,0,3.3-.194,2.136,4.853l9.707-9.9v-13.008Z"/><path class="ai" d="M-2621.442,4501.678l1.165,27.957,149.3,30.675.194-34.363Z"/><path class="aj" d="M-2627.849,4495.562l.291,4.951,160.752,26.209V4520.9Z"/><path class="ak" d="M-2415.261,4475.177l.583,4.951-52.128,46.595V4520.9Z"/><path class="al" d="M-2415.261,4475.177l-143.279-21.55-69.31,41.935,161.043,25.336Z"/><path class="am" d="M-2520.1,4470.809l22.424,2.038-4.077,15.726s-9.9,2.912-13.4,2.912-17.764-3.2-19.221-4.951-4.077-6.7-3.2-8.445,8.737-6.407,8.737-6.407Z"/><path class="am" d="M-2577.177,4473.721l-4.369,6.7s-7.863,17.764,45.139,23.588,72.8-7.28,80.376-17.764a20.268,20.268,0,0,0,.582-7.863l-4.077-4.077S-2550.968,4502.26-2577.177,4473.721Z"/><path class="an" d="M-2479.62,4462.655s-47.759-11.067-81.832,2.329c0,0-20.385,6.116-16.89,16.308s52.128,30.287,110.953,8.737C-2467.389,4490.029-2437.976,4476.342-2479.62,4462.655ZM-2506.7,4477.8c-1.456,4.368-14.852,5.242-19.511,2.621s4.659-4.951,4.659-4.951S-2505.247,4473.43-2506.7,4477.8Z"/><path class="am" d="M-2477,4442.561s-5.811,11.832-3.772,19.986l-13.119-2.136-.582-41.439,18.347-.874Z"/><path class="am" d="M-2497.384,4405.285v9.464s3.64,3.349,13.978,2.33,7.572-2.621,7.572-2.621v-9.9Z"/><path class="am" d="M-2496.365,4403.392s2.767-14.415-6.7-19.657l10.047-19.075s8.009,2.912,11.8,10.338,4.077,25.773,3.2,28.831C-2478.018,4403.829-2484.425,4409.216-2496.365,4403.392Z"/><path class="af" d="M-2492.609,4366.828l-34.755-24.25c1.136-3.04,1.876-5,1.876-5l32.474,27.086Z"/><path class="ao" d="M-2492.58,4366.991l-.873,6.4-.048.057-38.039-19.645c1.561-4.224,3.064-8.247,4.176-11.23l34.755,24.25Z"/><path class="ap" d="M-2493.5,4373.453l-4.611,5.77-1.069.974c-4.429-1.747-11.254-4.386-17.716-6.653a83.347,83.347,0,0,0-20.4-3.943c1.551-4.362,3.709-10.252,5.756-15.793Z"/><path class="aq" d="M-2499.181,4380.2l-3.88,3.536s-35.819-7.426-36.4-7.426c-.158,0,.749-2.716,2.162-6.706h0a83.347,83.347,0,0,1,20.4,3.943C-2510.435,4375.811-2503.61,4378.45-2499.181,4380.2Z"/><line class="ar" x1="1.327" y1="0.926" transform="translate(-2528.69 4341.652)"/><line class="ar" x1="2.391" y1="1.236" transform="translate(-2533.931 4352.572)"/><path class="ar" d="M-2539.9,4369.463s.969.024,2.6.138"/><path class="an" d="M-2496.2,4401.71s-5.372,1.179-2.883,3.538,14.675,5.5,23.585.917c0,0,3.407-1.7.131-3.8l-1.965-1.048s1.31,3.276-9.172,2.882S-2496.2,4401.71-2496.2,4401.71Z"/><path class="an" d="M-2497.238,4413.73s-5.97,1.311-3.2,3.931,16.308,6.116,26.21,1.02c0,0,3.786-1.893.145-4.223l-2.184-1.165s1.456,3.64-10.192,3.2S-2497.238,4413.73-2497.238,4413.73Z"/><path class="as" d="M-2488.647,4425.379l-6.7,24.462,20.677,27.375h8.445l-25.627-27.375,7.572-24.171Z"/><path class="ag" d="M-2530.874,4338.014c-.108-.867-18.347-.874-18.347-.874s-17.181,25.336-23.006,39.023c0,0-2.33,11.358,2.039,19.8a106.426,106.426,0,0,0,7.571,12.813S-2527.962,4361.311-2530.874,4338.014Z"/><path class="af" d="M-2549.221,4337.14s-1.747-4.077-.582-11.066,2.912-23.88,2.621-27.666,8.154-21.55,18.055-25.336c0,0,4.951,32.034,4.077,41.062s-5.824,23.88-5.824,23.88Z"/><path class="ag" d="M-2584.167,4340.052l-2.621,18.347s-65.815-4.66-93.189,10.775c0,0-5.824-40.479,0-54.167l3.2-5.533Z"/><path class="ag" d="M-2663.087,4415.769s31.452-42.227,81.832-43.392l5.534,2.912s-25.628,10.193-36.985,33.49-8.445,31.161-8.445,31.161S-2656.68,4424.8-2663.087,4415.769Z"/><path class="an" d="M-2572.227,4376.163s-17.473-1.456-14.852-24.171,19.22-37.276,28.831-37.567,8.445,11.649,8.445,11.649l.582,11.066Z"/><path class="an" d="M-2562.18,4214.392c-37.567-15.289-78.192,21.841-78.192,21.841-67.271,72.076-41.935,158.568-20.967,180.409,17.433,18.16,32.762,28.831,65.087,19.657s67.708-66.4,73.386-107.022S-2524.613,4229.681-2562.18,4214.392Zm7.863,177.788c-33.2,55.477-90.423,53.293-115.322,11.357s-13.978-171.672,77.755-188.271c0,0,32.762-6.553,51.545,34.946S-2521.118,4336.7-2554.317,4392.18Z"/><path class="f" d="M-2474.669,4477.215l-.1,2.264h7.729l.818-2.264Z"/><path class="f" d="M-2471.415,4479.072l-.2,2.136,1.525-2.136Z"/><path class="at" d="M-2474.771,4479.479l-20.491-28.525-.083-1.113,20.677,27.375Z"/></g></g></svg>