<svg xmlns="http://www.w3.org/2000/svg" width="380.457" height="106.801" viewBox="0 0 380.457 106.801"><defs><style>.a,.c,.d{fill:#7fd1d8;}.b,.f{fill:none;}.b{stroke:#7fd1d8;stroke-miterlimit:10;stroke-width:4px;}.c{font-size:14px;}.c,.d{font-family:DejaVuSans, DejaVu Sans;}.d{font-size:27px;}.e{stroke:none;}</style></defs><g transform="translate(-605 -352.853)"><g transform="translate(605 355.084)"><rect class="a" width="29.556" height="14.69" transform="translate(44.697 13.604)"/><g class="b" transform="translate(0 0)"><rect class="e" width="29.556" height="41.898"/><rect class="f" x="2" y="2" width="25.556" height="37.898"/></g><path class="a" d="M216.376,320.629l-11.242,7.882-11.242,7.882V304.865l11.242,7.882Z" transform="translate(-123.662 -299.68)"/></g><text class="c" transform="translate(706.657 381.39)"><tspan x="0" y="0" xml:space="preserve">= წადი წინ         -ჯერ</tspan></text><g transform="translate(605 417.756)"><g class="b"><rect class="e" width="29.556" height="41.898"/><rect class="f" x="2" y="2" width="25.556" height="37.898"/></g></g><text class="c" transform="translate(706.657 444.062)"><tspan x="0" y="0">=</tspan></text><g class="b" transform="translate(787.442 352.853)"><rect class="e" width="29.556" height="41.898"/><rect class="f" x="2" y="2" width="25.556" height="37.898"/></g><text class="d" transform="translate(611.455 448.764)"><tspan x="0" y="0">5</tspan></text><rect class="a" width="29.556" height="14.69" transform="translate(649.697 431.36)"/><path class="a" d="M216.376,454.523l-11.242,7.882-11.242,7.882V438.759l11.242,7.882Z" transform="translate(481.338 -15.818)"/><rect class="a" width="29.556" height="14.69" transform="translate(726.867 431.36)"/><path class="a" d="M324.376,454.523l-11.242,7.882-11.242,7.882V438.759l11.242,7.882Z" transform="translate(450.508 -15.818)"/><rect class="a" width="29.556" height="14.69" transform="translate(779.51 431.36)"/><path class="a" d="M398.05,454.523l-11.242,7.882-11.242,7.882V438.759l11.242,7.882Z" transform="translate(429.477 -15.818)"/><rect class="a" width="29.556" height="14.69" transform="translate(832.153 431.36)"/><path class="a" d="M471.725,454.523l-11.242,7.882-11.242,7.882V438.759l11.242,7.882Z" transform="translate(408.446 -15.818)"/><rect class="a" width="29.556" height="14.69" transform="translate(884.796 431.36)"/><path class="a" d="M545.4,454.523l-11.242,7.882-11.242,7.882V438.759l11.242,7.882Z" transform="translate(387.415 -15.818)"/><rect class="a" width="29.556" height="14.69" transform="translate(937.439 431.36)"/><path class="a" d="M619.074,454.523l-11.242,7.882-11.242,7.882V438.759l11.242,7.882Z" transform="translate(366.383 -15.818)"/></g></svg>