<svg xmlns="http://www.w3.org/2000/svg" xmlns:xlink="http://www.w3.org/1999/xlink" width="1366" height="771" viewBox="0 0 1366 771"><defs><style>.a,.aj{fill:none;}.b{fill:#cec3d8;}.c{fill:#e8e0f0;}.d,.k{fill:#000;}.e{fill:#b1b1b1;}.f{fill:gray;}.g{fill:#f0f0f0;}.h{fill:#cfd0d5;}.i{fill:#333;}.j{fill:#69676b;}.k{stroke:#595959;stroke-width:0.94px;}.aj,.k{stroke-miterlimit:10;}.l{fill:#856bc2;}.m{opacity:0.45;}.m,.p{mix-blend-mode:multiply;isolation:isolate;}.n{clip-path:url(#a);}.o{fill:#e6e7e8;}.p{opacity:0.22;}.q{clip-path:url(#b);}.r{fill:#808285;}.s{fill:#a08ede;}.t{clip-path:url(#c);}.u{fill:#624f94;}.v{clip-path:url(#d);}.w{clip-path:url(#e);}.x{clip-path:url(#f);}.y{clip-path:url(#g);}.z{clip-path:url(#h);}.aa{clip-path:url(#i);}.ab{clip-path:url(#j);}.ac,.ae{fill:#d0a56e;}.ac{fill-rule:evenodd;}.ad{fill:#8f7fc8;}.af{fill:#5f5585;}.ag{fill:#f7c965;}.ah{opacity:0.3;}.ai{opacity:0.5;}.aj{stroke:#8f7fc8;stroke-width:1.26px;}.ak{fill:#c99656;}.al{opacity:0.15;}.am{fill:#f6c865;}.an{fill:#989898;}.ao{fill:#cbcbcb;}.ap{fill:#5f5586;}</style><clipPath id="a"><path class="a" d="M177.669,3467.517h13.159l-.038-3.071H177.841Z"/></clipPath><clipPath id="b"><path class="a" d="M170.526,3501.547h9.363l.09-2.373h-9.265Z"/></clipPath><clipPath id="c"><path class="a" d="M172.585,3499.174h9.449l.949-33.2h-8.047Z"/></clipPath><clipPath id="d"><path class="a" d="M199.5,3430.446h13.148l-.037-3.1H199.661Z"/></clipPath><clipPath id="e"><path class="a" d="M192.542,3464.446h9.265l.083-2.35h-9.174Z"/></clipPath><clipPath id="f"><path class="a" d="M194.568,3462.1h9.356l.881-33.212h-8.043Z"/></clipPath><clipPath id="g"><path class="a" d="M220.524,3467.577H233.66l-.035-3.13H220.676Z"/></clipPath><clipPath id="h"><path class="a" d="M213.739,3501.547h9.17l.076-2.327H213.9Z"/></clipPath><clipPath id="i"><path class="a" d="M215.734,3499.22H225l.823-33.22h-8.04Z"/></clipPath><clipPath id="j"><rect class="a" width="584.592" height="424.988" transform="translate(436.641 3350.213)"/></clipPath></defs><g transform="translate(261.312 -3007.523)"><path class="b" d="M1104.688,3017.06v758.464L862.46,3707.937l-32.991-6.263,1.636-558.092,30.118-25.561Z"/><path class="b" d="M54.985,3132.995,38.933,3689.366l-300.044,74.4V3013.711l298.845,93.57Z"/><path class="c" d="M436.666,3096.595H12.058v617.384H861.223V3096.595Z"/><path class="d" d="M-261.312,3068.3c121.657,30.38,335.7,73.889,615,80.373,352.971,8.194,622.428-47.1,751-78.7v-62.455h-1366Z"/><path class="d" d="M-261.312,3730.207c121.657-29.39,335.7-71.48,615-77.753,352.971-7.927,622.428,45.568,751,76.133v47.19l-1365.8,2.746Z"/><path class="e" d="M38.992,3623.139v120.213l-8.417,9.712-4.209-133.487Z"/><path class="f" d="M22.158,3619.578v133.487h8.417V3623.139Z"/><path class="e" d="M379.633,3623.139v120.213l8.417,9.712,4.209-133.487Z"/><path class="f" d="M396.467,3619.578v133.487H388.05V3623.139Z"/><path class="e" d="M84.979,3593.154v115.218l-6.1,7.042-3.051-124.841Z"/><path class="f" d="M72.773,3590.572v124.841h6.1v-122.26Z"/><path class="e" d="M331.96,3593.154v115.218l6.1,7.042,3.051-124.841Z"/><path class="f" d="M344.166,3590.572v124.841h-6.1v-122.26Z"/><path class="g" d="M9.64,3616.017l60.085-67.553H347.071l62.273,67.553Z"/><rect class="e" width="399.704" height="7.122" transform="translate(9.64 3616.017)"/><path class="h" d="M284.793,3597.014H139.1c-1.618,0-4.281-1-3.28-2.23l15.728-22.338a5.577,5.577,0,0,1,4.546-1.987H267.586a6.042,6.042,0,0,1,4.913,2.141l15.569,21.968C289.159,3595.968,286.567,3597.014,284.793,3597.014Z"/><path class="i" d="M269.663,3591.154H153.025c-1.294,0-2.281-.5-2.077-1.046l4.919-13.2c.265-.712,1.695-1.236,3.373-1.236h105.2c1.491,0,2.756.47,2.971,1.1l4.508,13.275C272.1,3590.636,271.037,3591.154,269.663,3591.154Z"/><rect class="h" width="121.634" height="0.614" transform="translate(150.614 3577.947)"/><rect class="h" width="121.634" height="0.614" transform="translate(150.614 3581.018)"/><rect class="h" width="121.634" height="0.614" transform="translate(150.614 3584.704)"/><rect class="h" width="121.634" height="0.614" transform="translate(150.614 3588.083)"/><rect class="h" width="0.921" height="20.272" transform="translate(165.345 3573.053) rotate(17.439)"/><rect class="h" width="0.921" height="20.272" transform="translate(174.253 3573.053) rotate(17.439)"/><rect class="h" width="0.921" height="20.272" transform="translate(181.317 3573.053) rotate(17.439)"/><rect class="h" width="0.921" height="20.272" transform="translate(188.382 3573.053) rotate(17.439)"/><rect class="h" width="0.921" height="20.272" transform="translate(195.754 3573.053) rotate(17.439)"/><rect class="h" width="0.921" height="20.272" transform="translate(203.234 3572.823) rotate(10.978)"/><rect class="h" width="0.921" height="20.272" transform="translate(209.588 3572.725)"/><rect class="h" width="0.921" height="20.272" transform="translate(257.253 3573.329) rotate(-17.439)"/><rect class="h" width="0.921" height="20.272" transform="translate(248.652 3573.329) rotate(-17.439)"/><rect class="h" width="0.921" height="20.272" transform="translate(240.052 3573.329) rotate(-17.439)"/><rect class="h" width="0.921" height="20.272" transform="translate(231.452 3573.329) rotate(-17.439)"/><rect class="h" width="0.921" height="20.272" transform="translate(222.851 3573.329) rotate(-17.439)"/><rect class="h" width="0.921" height="20.272" transform="translate(214.251 3573.329) rotate(-17.439)"/><rect class="j" width="19.317" height="22.433" transform="translate(202.307 3534.509)"/><rect class="h" width="204.47" height="125.474" rx="4.985" transform="translate(107.297 3409.88)"/><path class="i" d="M165.482,3561.981v-3.846c0-2.133,19.728-3.857,44.049-3.857s44.047,1.724,44.047,3.857v3.846Z"/><rect class="i" width="36.722" height="4.565" transform="translate(193.047 3526.816)"/><rect class="i" width="204.391" height="112.166" rx="4.985" transform="translate(107.297 3409.88)"/><rect class="k" width="187.863" height="97.932" rx="4.985" transform="translate(115.561 3416.997)"/><path class="l" d="M177.669,3467.517H199.1q-.293-1.375-.58-2.752a160.919,160.919,0,0,0-20.28,0q-.282,1.375-.568,2.751"/><g class="m"><g class="n"><path class="o" d="M182.552,3467.517q.25-1.375.5-2.751,3.872-.245,7.741-.3-6.27-.093-12.553.3-.282,1.375-.568,2.751Z"/></g></g><path class="l" d="M170.714,3499.174h35.322l-.458,2.373h-34.4Z"/><g class="p"><g class="q"><path class="r" d="M170.714,3499.174h8.623l.552,2.373h-8.715Z"/></g></g><path class="s" d="M188.375,3499.174h-15.79c1.627-11.542,3.2-23.765,4.522-33.205h22.552c1.313,9.44,2.885,21.663,4.508,33.205Z"/><g class="m"><g class="t"><path class="o" d="M179.483,3499.174c1.272-11.542,2.473-23.765,3.5-33.205h-5.876c-1.317,9.44-2.895,21.663-4.522,33.205Z"/></g></g><path class="l" d="M172.825,3497.459c-.08.573-.16,1.146-.24,1.715h31.582c-.08-.569-.16-1.142-.24-1.715h-31.1Z"/><path class="u" d="M177.993,3465.969l20.623-.747.157.747Z"/><path class="l" d="M199.5,3430.446h21.409q-.288-1.389-.573-2.779a159.369,159.369,0,0,0-20.277,0q-.279,1.389-.559,2.778"/><g class="m"><g class="v"><path class="o" d="M204.377,3430.446q.248-1.389.493-2.778,3.87-.248,7.739-.3-6.27-.094-12.552.3-.276,1.389-.558,2.778Z"/></g></g><path class="l" d="M192.716,3462.1H227.69l-.465,2.35H193.184Z"/><g class="p"><g class="w"><path class="r" d="M192.716,3462.1h8.539l.553,2.35h-8.624Z"/></g></g><path class="s" d="M210.2,3462.1H194.568c1.562-11.473,3.083-23.706,4.364-33.212h22.542c1.281,9.506,2.8,21.739,4.365,33.212Z"/><g class="m"><g class="x"><path class="o" d="M201.4,3462.1c1.232-11.473,2.4-23.706,3.407-33.212h-5.873c-1.281,9.506-2.8,21.739-4.364,33.212Z"/></g></g><path class="l" d="M194.8,3460.4c-.077.568-.153,1.136-.23,1.7h31.271c-.077-.564-.154-1.132-.23-1.7H194.8Z"/><path class="u" d="M199.818,3428.884l20.616-.755.155.755Z"/><path class="l" d="M220.524,3467.577h21.39q-.283-1.4-.564-2.8a157.658,157.658,0,0,0-20.276,0q-.273,1.4-.55,2.8"/><g class="m"><g class="y"><path class="o" d="M225.4,3467.577q.246-1.4.488-2.8,3.87-.249,7.739-.307-6.27-.1-12.551.307-.273,1.4-.55,2.8Z"/></g></g><path class="l" d="M213.9,3499.219h34.637l-.471,2.327H214.374Z"/><g class="p"><g class="z"><path class="r" d="M213.9,3499.219h8.456l.553,2.327h-8.535Z"/></g></g><path class="s" d="M231.219,3499.22H215.734c1.5-11.407,2.972-23.649,4.219-33.22h22.532c1.247,9.571,2.716,21.813,4.219,33.22Z"/><g class="m"><g class="aa"><path class="o" d="M222.5,3499.22c1.2-11.407,2.335-23.649,3.324-33.22h-5.87c-1.247,9.571-2.716,21.813-4.219,33.22Z"/></g></g><path class="l" d="M215.955,3497.534q-.111.846-.221,1.686H246.7q-.109-.839-.221-1.686H215.955Z"/><path class="u" d="M220.838,3466l20.609-.762.152.762Z"/><g class="ab"><path class="ac" d="M529.032,3683.689s-6.439-7.344-13.948-8.821c-4.463-.877-4.311-2-5.063-2.372-2.5-1.224-.23,3.6,3.536,4.963,3.061,1.111,4.575,6.481,6.393,7.682s7.31,3.491,8.732,2.819S529.032,3683.689,529.032,3683.689Z"/><path class="ac" d="M548.825,3693.716c-1.37-.523-15.672-9.907-23.592-10.967s-19.794-1.881-23.85-3.216c-4.772-1.571-6.07.3-.6,2.648,3.559,1.529,10.877,3.972,12.515,4.106.794.065-4.357-.844-9.939-2.242-5.934-1.486-12.357-3.44-12.7-2.386-.661,2.043,16.388,7.4,19.412,7.853a76.631,76.631,0,0,1-7.967-1.3c-3.588-.79-7.677-2.24-8.522-1.523-1.33,1.128,7.654,5.085,15.157,6.442.121.25-2.332.531-11.136-1.678-.885-.222-3.173.075-.306,1.546,6.033,3.1,8.4,4.873,17.3,5.517,8.681.629,18.348-.766,24.513,1.587Z"/><path class="ad" d="M542.551,3704.324c6.957,2.722,57.472,11.985,103.84,1.8,29.266-6.415,56.868-20.594,70.832-49.053,36.084-73.567-48.233-115.3-48.233-115.3a1.474,1.474,0,0,0-.126.2c-3.655,5.521-82.251,123.439-136.787,141.841C532.077,3683.818,531.208,3699.874,542.551,3704.324Z"/><path class="ae" d="M885.442,3842.918s-1.754,162.229,5.114,164.428c12.328,4.022,60.33,16.52,8.661,17.31-26.244,3.859-24.815-2.2-25.657-7.16-.688-4.052-12.3-148.1-14.344-159.209-.458-2.487-.736-3.99-.736-3.99Z"/><path class="ae" d="M774.039,3831.491s-11.6,161.207-18.532,163.212c-12.436,3.675-60.769,14.821-9.143,17.061,26.125,4.594,24.867-1.5,25.848-6.438.8-4.031,7.317-34.575,9.675-45.617.528-2.473,20.032-127.362,20.032-127.362Z"/><path class="af" d="M775.6,3995.315c.571-2.281-15.935-3.949-18.016-2.281s-35.7,4.69-36.166,14.519,45.933,7.365,49.211,7.507S774.48,3999.8,775.6,3995.315Z"/><path class="ag" d="M765.941,3673.118a10.227,10.227,0,0,0,6.014,2.171c13.613-.9,72.4-4.945,104.083-9.514,11.179-1.613,18.983-3.289,20.238-4.924a1.3,1.3,0,0,1,0,.13c.068,1.763.789,21.944,1.641,48.4,1.682,52.235,13.462,126.242,21.684,148.3,1.775,4.763-71.792,3.645-71.792,3.645-4.818-53.64-7.829-148.279-11.481-152.218-4.442-4.793-3.8,78.624-5.275,148.6-28.234,10.019-74.361,9.378-74.087,6.372C760.222,3828.388,765.941,3673.118,765.941,3673.118Z"/><g class="ah"><path d="M820.407,3671.644c-.222,0-.444,0-.66,0C819.747,3671.646,819.981,3671.643,820.407,3671.644Z"/><path class="ai" d="M820.407,3671.644c17.612-.108,55.631-5.869,55.631-5.869,11.179-1.613,18.983-3.289,20.238-4.924a1.3,1.3,0,0,1,0,.13c.068,1.763.789,21.944,1.641,48.4a13.049,13.049,0,0,1-1.857-.054c-4-.391-7.229-2.57-9.822-5.782a31.875,31.875,0,0,1-4.247-7.208C866.817,3672.648,826.054,3671.665,820.407,3671.644Z"/></g><line class="aj" x1="1.864" y2="195.252" transform="translate(776.722 3670.752)"/><line class="aj" x1="2.014" y2="191.867" transform="translate(795.285 3673.044)"/><line class="aj" x2="0.967" y2="190.271" transform="translate(815.266 3671.499)"/><line class="aj" x2="3.76" y2="39.106" transform="translate(832.57 3670.011)"/><line class="aj" x2="13.035" y2="193.09" transform="translate(851.778 3668.359)"/><line class="aj" x2="15.732" y2="194.488" transform="translate(868.296 3666.816)"/><line class="aj" x2="20.555" y2="195.197" transform="translate(884.541 3665.419)"/><path class="aj" d="M765.169,3693.48s104.716-4.047,131.848-11.34"/><path class="aj" d="M836.33,3709.117c-35.779,11.4-71.824,1.341-71.824,1.341"/><path class="aj" d="M835.724,3706.681s33.728,6.422,61.982-3.881"/><path class="aj" d="M763.933,3724.8s27.481,11.506,69.591.814"/><path class="aj" d="M763.233,3741.892s42,8.974,69.663.118"/><path class="aj" d="M762.519,3758.869s22.247,14.546,69.938,3.061"/><path class="aj" d="M761.668,3778.4s33.207,13.871,70.547-.748"/><path class="aj" d="M760.854,3796.295s23.882,14.041,71.113.63"/><path class="aj" d="M759.971,3814.644s32.463,13.567,71.814-3.034"/><path class="aj" d="M759.234,3828.968s19.844,16.051,72.342-1.629"/><path class="aj" d="M758.312,3845.234s30.979,13.064,73.02-2.183"/><path class="aj" d="M838.741,3724.23s14.735,10.176,60.613-2.265"/><path class="aj" d="M840.573,3741.295s20.08,7.342,59.06-3.172"/><path class="aj" d="M841.264,3760.352s30.582,6.415,59.838-5.146"/><path class="aj" d="M842.188,3776.126s30.087,10.39,60.845-5.233"/><path class="aj" d="M843.187,3793.444s28.421,7.309,62.132-5.343"/><path class="aj" d="M844.169,3810.076s24.152,8.434,63.665-5.475"/><path class="aj" d="M845.431,3824.757s28.835,11.854,65.2-4.084"/><path class="aj" d="M846.346,3843.167s32.32,7.944,67.85-5.047"/><path class="ak" d="M753.929,3466.4s3.081,15.138,14.61,20.576-20.959,6.258-20.959,6.258,1.376-15.792-2.5-24.193S753.929,3466.4,753.929,3466.4Z"/><ellipse class="ae" cx="22.639" cy="16.593" rx="22.639" ry="16.593" transform="translate(723.185 3466.002) rotate(-68.921)"/><path class="ad" d="M646.391,3706.126c29.266-6.415,56.868-20.594,70.832-49.053.051.075.1.138.152.214.151.189.3.391.453.618a.66.66,0,0,1,.1.138c4.021,5.5,23.758,32.48,23.758,32.492,7.159,9.327,18.1,18.288,26.782,21.893.567.252,1.147.466,1.677.655,21.287,3.327,109.94-30.362,120.5-38.781,4.764-3.794,6.629-21.577,7.008-40.861.479-23.5-1.223-49.28-2.471-54.712-2.117-9.112-43.974-109.928-109.65-103.55a67.339,67.339,0,0,0-17.091,4.008s-.491.516-1.361,1.285a32.32,32.32,0,0,1-5.936,4.222,25.206,25.206,0,0,1-6.063,2.433,18.581,18.581,0,0,1-12.389-1.009c-4.109-1.84-13.234.316-24.312,6.5-15.389,8.583-34.584,24.955-49.393,49.154a1.474,1.474,0,0,0-.126.2,158.332,158.332,0,0,0-21.225,58.266A375.764,375.764,0,0,0,646.391,3706.126Z"/><path class="al" d="M717.227,3657.067c.049.077.107.139.156.216.15.192.3.4.447.616.039.042.065.086.107.139,4.022,5.495,23.748,32.489,23.751,32.5,7.162,9.318,18.1,18.285,26.791,21.885-9.877-15.768-39.545-61.168-44.97-81.409C726.46,3651.206,717.223,3657.055,717.227,3657.067Z"/><path class="al" d="M757.2,3490.371c.478,1.423,0,2.592-2.4,2.967-7.49,1.171-15.556,3.8-20.654,8.271a5.236,5.236,0,0,1-4.916,1.244c-4.44-1.082-8.752-6.976-10.554-9.621a2.083,2.083,0,0,1-.288-.611c11.082-6.189,20.2-8.345,24.314-6.5a18.557,18.557,0,0,0,12.386,1A10.213,10.213,0,0,1,757.2,3490.371Z"/><path class="am" d="M745.665,3436.478s21.076,25.193,22.317-1.734C768.841,3416.114,731.484,3418.795,745.665,3436.478Z"/><path class="am" d="M751.748,3432.276s-18.427,3.118-20.421,12.6c0,0,6.965-27.926,22.135-22.848s20.389,8.742,8.2,36.414C761.664,3458.444,765.973,3434.356,751.748,3432.276Z"/><path class="am" d="M752.745,3421.953s3.954-8.014,11.733-3.665,9.494,10.413,8.857,15.571-.821,9.138.355,9.592c0,0-4.888,2.168-5.611.538,0,0-.207,9.635-6.762,15.083,0,0,2.6-11.285-2.83-14.728S752.745,3421.953,752.745,3421.953Z"/><path class="am" d="M753.526,3422.171s-4.52-5.794-13.573.171l-6.248,5.7s.723,1.629,3.528,1.36c0,0-4.265,7.873-4.944,12.983l8.926-12.8Z"/><path class="an" d="M742.128,3654.222l95.9,39.25a10.933,10.933,0,0,0,14.251-5.97l26.782-65.454a3.442,3.442,0,0,0,.168-.473,10.894,10.894,0,0,0-6.144-13.767l-95.9-39.249a10.915,10.915,0,0,0-14.24,5.976l-25.55,62.414-1.243,3.033A10.916,10.916,0,0,0,742.128,3654.222Z"/><path class="ao" d="M743.539,3650.716l95.9,39.25a10.917,10.917,0,0,0,14.24-5.976l25.55-62.415a10.894,10.894,0,0,0-6.144-13.767l-95.9-39.249a10.915,10.915,0,0,0-14.24,5.976l-25.55,62.414A10.894,10.894,0,0,0,743.539,3650.716Z"/><circle class="f" cx="8.435" cy="8.435" r="8.435" transform="translate(800.979 3620.662)"/><path class="al" d="M882.231,3633.925s-9.2-36.529-102.205,4.393,79.311,1.312,79.311,1.312Z"/><path class="al" d="M840.839,3541.774s-3.267,98.631,91.438,111.83l2.03.62-6.727-20.96s-55.628-43.072-56.2-44.438S840.839,3541.774,840.839,3541.774Z"/><path class="ac" d="M793.056,3649.142c-1.26-.042-15.5-3.671-22.234-2.32s-16.61,4-20.279,4.051c-4.316.056-4.849,1.937.257,2.318,3.319.247,9.948.188,11.316-.161.663-.169-3.776.532-8.7.956-5.237.45-11,.657-10.984,1.608.033,1.845,15.383,1.434,17.967.958a65.891,65.891,0,0,1-6.837,1.17c-3.136.361-6.864.325-7.35,1.144-.766,1.288,7.64,1.994,14.116,1,.168.169-1.747,1.083-9.517,1.748-.781.067-2.558.947.182,1.341,5.768.831,8.187,1.613,15.6-.35,7.229-1.915,14.694-5.75,20.361-5.56Z"/><path class="ac" d="M774.171,3646.525s-7.284-4.169-13.8-3.271c-3.872.534-4.063-.423-4.777-.513-2.37-.3.818,2.986,4.26,3.045,2.8.048,5.528,3.988,7.341,4.456s6.916.794,7.883-.149S774.171,3646.525,774.171,3646.525Z"/><path class="ad" d="M852.678,3471.941c28.825,13.562,50.209,27.767,78.594,87.022,14.4,30.064,22.524,62,26.194,79.027a20.514,20.514,0,0,1-8.406,21.127c-64.254,44.788-162.733.531-162.733.531-4.535-.3-.663-17.308-.663-17.308,39.28-12.172,69.833-19.978,104.838-17.276-.181-.027-48.11-48.539-57.017-63.212-23.342-38.481-69.947-63.9-65.562-83.022C769.437,3472.217,823.6,3458.261,852.678,3471.941Z"/><path class="ap" d="M871.425,4003.515c-.507-2.3,19.531-1.051,21.563.675s31.508,7.083,31.7,16.921-46.122,6.074-49.4,6.124S872.422,4008.028,871.425,4003.515Z"/></g></g></svg>