<svg xmlns="http://www.w3.org/2000/svg" xmlns:xlink="http://www.w3.org/1999/xlink" width="899.902" height="500.506" viewBox="0 0 899.902 500.506"><defs><style>.f{fill:#fff;}.a,.ai,.d{fill:none;}.b,.c{fill:#7fd1d8;}.b{font-size:17px;}.b,.e,.f{font-family:DejaVuSans, DejaVu Sans;}.ai,.d{stroke:#fff;stroke-miterlimit:10;}.d{stroke-width:0.877px;}.e{font-size:19px;}.f{font-size:12px;}.g{fill:#856bc2;}.h{opacity:0.45;}.h,.k{mix-blend-mode:multiply;isolation:isolate;}.i{clip-path:url(#a);}.j{fill:#e6e7e8;}.k{opacity:0.22;}.l{clip-path:url(#b);}.m{fill:#808285;}.n{fill:#a08ede;}.o{clip-path:url(#c);}.p{fill:#624f94;}.q{clip-path:url(#d);}.r{clip-path:url(#e);}.s{clip-path:url(#f);}.t{clip-path:url(#g);}.u{clip-path:url(#h);}.v{clip-path:url(#i);}.w{clip-path:url(#j);}.x{clip-path:url(#k);}.y{clip-path:url(#l);}.z{clip-path:url(#m);}.aa{clip-path:url(#n);}.ab{clip-path:url(#o);}.ac{clip-path:url(#p);}.ad{clip-path:url(#q);}.ae{clip-path:url(#r);}.af{clip-path:url(#s);}.ag{clip-path:url(#t);}.ah{clip-path:url(#u);}.ai{stroke-width:1.132px;}</style><clipPath id="a"><path class="a" d="M813.409,555.312h33.332l-.094-7.861H813.82Z" transform="translate(-813.409 -547.451)"/></clipPath><clipPath id="b"><path class="a" d="M791.473,662.988h23.489l.209-5.958H791.913Z" transform="translate(-791.473 -657.03)"/></clipPath><clipPath id="c"><path class="a" d="M797.861,636.5H821.58l2.234-84.2H803.422Z" transform="translate(-797.861 -552.302)"/></clipPath><clipPath id="d"><path class="a" d="M813.409,530.81h33.332l-.094-7.861H813.82Z" transform="translate(-813.409 -522.948)"/></clipPath><clipPath id="e"><path class="a" d="M791.473,638.486h23.489l.209-5.958H791.913Z" transform="translate(-791.473 -632.528)"/></clipPath><clipPath id="f"><path class="a" d="M797.861,612H821.58l2.234-84.2H803.422Z" transform="translate(-797.861 -527.8)"/></clipPath><clipPath id="g"><path class="a" d="M813.409,506.308h33.332l-.094-7.861H813.82Z" transform="translate(-813.409 -498.446)"/></clipPath><clipPath id="h"><path class="a" d="M791.473,613.983h23.489l.209-5.958H791.913Z" transform="translate(-791.473 -608.026)"/></clipPath><clipPath id="i"><path class="a" d="M797.861,587.5H821.58l2.234-84.2H803.422Z" transform="translate(-797.861 -503.297)"/></clipPath><clipPath id="j"><path class="a" d="M938.991,557.393h33.332l-.094-7.861H939.4Z" transform="translate(-938.991 -549.532)"/></clipPath><clipPath id="k"><path class="a" d="M917.054,665.069h23.49l.209-5.958H917.494Z" transform="translate(-917.054 -659.111)"/></clipPath><clipPath id="l"><path class="a" d="M923.442,638.584h23.719l2.234-84.2H929Z" transform="translate(-923.442 -554.383)"/></clipPath><clipPath id="m"><path class="a" d="M998.1,545.335H964.767l.094,7.861h32.828Z" transform="translate(-964.767 -545.335)"/></clipPath><clipPath id="n"><path class="a" d="M1022.385,438.123H998.9l-.209,5.958h23.259Z" transform="translate(-998.686 -438.123)"/></clipPath><clipPath id="o"><path class="a" d="M1015.447,445.532H991.728l-2.234,84.2h20.391Z" transform="translate(-989.495 -445.532)"/></clipPath><clipPath id="p"><path class="a" d="M1062.785,557.393h33.332l-.094-7.861H1063.2Z" transform="translate(-1062.785 -549.532)"/></clipPath><clipPath id="q"><path class="a" d="M1040.848,665.069h23.49l.209-5.958h-23.258Z" transform="translate(-1040.848 -659.111)"/></clipPath><clipPath id="r"><path class="a" d="M1047.236,638.584h23.719l2.234-84.2H1052.8Z" transform="translate(-1047.236 -554.383)"/></clipPath><clipPath id="s"><path class="a" d="M1121.894,545.335h-33.332l.094,7.861h32.828Z" transform="translate(-1088.561 -545.335)"/></clipPath><clipPath id="t"><path class="a" d="M1146.179,438.123h-23.49l-.209,5.958h23.259Z" transform="translate(-1122.48 -438.123)"/></clipPath><clipPath id="u"><path class="a" d="M1139.242,445.532h-23.719l-2.234,84.2h20.391Z" transform="translate(-1113.289 -445.532)"/></clipPath></defs><g transform="translate(-164.067 -49.248)"><g transform="translate(172.724 191.901)"><text class="b" transform="translate(0 16)"><tspan x="0" y="0">აიღე ჭიქა</tspan></text></g><g transform="translate(335.755 187.368)"><text class="b" transform="translate(0 16)"><tspan x="0" y="0">დადე ჭიქა</tspan></text></g><g transform="translate(339.799 335.777)"><text class="b" transform="translate(0 16)"><tspan x="0" y="0">გადაადგილება </tspan><tspan x="0" y="21">უკან</tspan></text></g><g transform="translate(339.799 528.754)"><text class="b" transform="translate(0 16)"><tspan x="0" y="0">ამოატრიალე</tspan></text></g><g transform="translate(164.067 337.719)"><text class="b" transform="translate(0 16)"><tspan x="0" y="0">გადაადგილება </tspan><tspan x="0" y="21">წინ</tspan></text></g><g transform="translate(175.015 64.41)"><rect class="c" width="34.55" height="69.511" transform="translate(19.801 43.419)"/><path class="c" d="M214.759,67.968,233.3,94.408l18.538,26.44h-74.15l18.538-26.44Z" transform="translate(-177.684 -67.968)"/></g><g transform="translate(343.061 64.41)"><rect class="c" width="34.55" height="69.511" transform="translate(19.8)"/><path class="c" d="M423.776,195.539,405.238,169.1,386.7,142.659h74.15L442.313,169.1Z" transform="translate(-386.7 -82.609)"/></g><g transform="translate(164.067 260.215)"><rect class="c" width="69.511" height="34.55" transform="translate(0 19.801)"/><path class="c" d="M291.637,348.587,265.2,367.125l-26.44,18.538v-74.15L265.2,330.05Z" transform="translate(-178.707 -311.512)"/></g><g transform="translate(343.061 260.215)"><rect class="c" width="69.511" height="34.55" transform="translate(43.419 19.8)"/><path class="c" d="M386.7,348.587l26.44-18.538,26.44-18.538v74.15l-26.44-18.538Z" transform="translate(-386.7 -311.512)"/></g><g transform="translate(619.084 65.095)"><line class="d" y1="212.013" transform="translate(32.584 59.263)"/><line class="d" y1="212.013" transform="translate(85.144 59.263)"/><line class="d" y1="212.013" transform="translate(137.704 59.263)"/><line class="d" y1="212.013" transform="translate(190.265 59.263)"/><line class="d" y1="212.013" transform="translate(242.825 59.263)"/><line class="d" y1="212.013" transform="translate(295.385 59.263)"/><line class="d" y1="212.013" transform="translate(347.945 59.263)"/><line class="d" y1="212.013" transform="translate(400.506 59.263)"/><text class="e f" transform="translate(30.351 46.669) rotate(-45)"><tspan x="0" y="0">1</tspan></text><text class="e f" transform="translate(83.502 46.669) rotate(-45)"><tspan x="0" y="0">0</tspan></text><text class="e f" transform="translate(136.159 46.67) rotate(-45)"><tspan x="0" y="0">1</tspan></text><text class="e f" transform="translate(188.252 46.669) rotate(-45)"><tspan x="0" y="0">2</tspan></text><text class="e f" transform="translate(239.287 46.669) rotate(-45)"><tspan x="0" y="0">3</tspan></text><text class="e f" transform="translate(291.733 46.669) rotate(-45)"><tspan x="0" y="0">4</tspan></text><text class="e f" transform="translate(343.121 46.669) rotate(-45)"><tspan x="0" y="0">5</tspan></text><text class="e f" transform="translate(396.271 46.669) rotate(-45)"><tspan x="0" y="0">6</tspan></text><text class="f" transform="translate(7.778 67.818) rotate(-45)"><tspan x="0" y="0" xml:space="preserve">უკან    ნაბიჯი</tspan></text><text class="f" transform="translate(83.669 46.836) rotate(-45)"><tspan x="0" y="0" xml:space="preserve">    ნაბიჯი</tspan></text><text class="f" transform="translate(136.402 49.199) rotate(-45)"><tspan x="0" y="0" xml:space="preserve">    ნაბიჯი</tspan></text><text class="f" transform="translate(188.419 48.608) rotate(-45)"><tspan x="0" y="0" xml:space="preserve">    ნაბიჯი</tspan></text><text class="f" transform="translate(242.604 46.098) rotate(-45)"><tspan x="0" y="0" xml:space="preserve">    ნაბიჯი</tspan></text><text class="f" transform="translate(294.084 46.098) rotate(-45)"><tspan x="0" y="0" xml:space="preserve">    ნაბიჯი</tspan></text><text class="f" transform="translate(345.945 47.722) rotate(-45)"><tspan x="0" y="0" xml:space="preserve">    ნაბიჯი</tspan></text><text class="f" transform="translate(398.063 46.098) rotate(-45)"><tspan x="0" y="0" xml:space="preserve">    ნაბიჯი</tspan></text></g><g transform="translate(355.063 414.345)"><g transform="translate(0 43.713)"><path class="c" d="M450.467,604.66c-23,0-43.883-17.177-48.838-41.112l28.783-5.958c2.239,10.817,12.1,18.7,21.965,17.569,7.932-.906,14.895-7.646,16.932-16.389l28.626,6.671c-4.883,20.952-21.85,36.593-42.22,38.92A46.17,46.17,0,0,1,450.467,604.66Z" transform="translate(-401.629 -557.59)"/></g><path class="c" d="M494.366,503.22,512.9,529.66l18.538,26.44H457.291l18.537-26.44Z" transform="translate(-412.54 -503.22)"/></g><g transform="translate(668.491 449.904)"><path class="g" d="M813.41,555.312h54.276q-.731-3.521-1.451-7.045a403.689,403.689,0,0,0-51.408,0q-.7,3.523-1.417,7.044" transform="translate(-795.773 -547.448)"/><g class="h" transform="translate(17.637 0.002)"><g class="i"><path class="j" d="M825.778,555.312q.628-3.521,1.249-7.044,9.812-.626,19.621-.772-15.9-.241-31.823.772-.7,3.523-1.417,7.044Z" transform="translate(-813.409 -547.451)"/></g></g><path class="g" d="M792.021,657.031h88.668l-1.178,5.958h-86.3Z" transform="translate(-791.58 -568.928)"/><g class="k" transform="translate(0 88.102)"><g class="l"><path class="m" d="M792.021,657.031h21.647l1.4,5.958H793.207Z" transform="translate(-791.58 -657.03)"/></g></g><path class="n" d="M837.5,636.5H797.86c3.962-29.087,7.817-60.1,11.065-84.2h57.149c3.248,24.1,7.1,55.113,11.065,84.2Z" transform="translate(-792.725 -548.4)"/><g class="h" transform="translate(5.136 3.902)"><g class="o"><path class="j" d="M815.178,636.5c3.122-29.087,6.084-60.1,8.636-84.2H808.925c-3.248,24.1-7.1,55.113-11.065,84.2Z" transform="translate(-797.86 -552.302)"/></g></g><path class="g" d="M798.445,651.671c-.195,1.44-.389,2.88-.584,4.31h79.281c-.2-1.43-.39-2.87-.584-4.31H798.445Z" transform="translate(-792.725 -567.877)"/><path class="p" d="M814.417,551.835l52.265-1.913.392,1.913Z" transform="translate(-795.97 -547.933)"/></g><g transform="translate(668.491 430.205)"><path class="g" d="M813.41,530.809h54.276q-.731-3.52-1.451-7.045a403.7,403.7,0,0,0-51.408,0q-.7,3.523-1.417,7.043" transform="translate(-795.773 -522.946)"/><g class="h" transform="translate(17.637 0.002)"><g class="q"><path class="j" d="M825.778,530.809q.628-3.52,1.249-7.043,9.812-.626,19.621-.772-15.9-.241-31.823.772-.7,3.523-1.417,7.043Z" transform="translate(-813.409 -522.948)"/></g></g><path class="g" d="M792.021,632.528h88.668l-1.178,5.958h-86.3Z" transform="translate(-791.58 -544.426)"/><g class="k" transform="translate(0 88.102)"><g class="r"><path class="m" d="M792.021,632.528h21.647l1.4,5.958H793.207Z" transform="translate(-791.58 -632.528)"/></g></g><path class="n" d="M837.5,612H797.86c3.962-29.087,7.817-60.1,11.065-84.2h57.149c3.248,24.1,7.1,55.114,11.065,84.2Z" transform="translate(-792.725 -523.897)"/><g class="h" transform="translate(5.136 3.902)"><g class="s"><path class="j" d="M815.178,612c3.122-29.087,6.084-60.1,8.636-84.2H808.925c-3.248,24.1-7.1,55.114-11.065,84.2Z" transform="translate(-797.86 -527.799)"/></g></g><path class="g" d="M798.445,627.169c-.195,1.44-.389,2.88-.584,4.31h79.281c-.2-1.43-.39-2.87-.584-4.31H798.445Z" transform="translate(-792.725 -543.375)"/><path class="p" d="M814.417,527.333l52.265-1.913.392,1.913Z" transform="translate(-795.97 -523.431)"/></g><g transform="translate(668.491 410.505)"><path class="g" d="M813.41,506.307h54.276q-.731-3.52-1.451-7.045a403.7,403.7,0,0,0-51.408,0q-.7,3.523-1.417,7.043" transform="translate(-795.773 -498.444)"/><g class="h" transform="translate(17.637 0.002)"><g class="t"><path class="j" d="M825.778,506.307q.628-3.52,1.249-7.043,9.812-.627,19.621-.773-15.9-.24-31.823.773-.7,3.523-1.417,7.043Z" transform="translate(-813.409 -498.446)"/></g></g><path class="g" d="M792.021,608.026h88.668l-1.178,5.958h-86.3Z" transform="translate(-791.58 -519.924)"/><g class="k" transform="translate(0 88.102)"><g class="u"><path class="m" d="M792.021,608.026h21.647l1.4,5.958H793.207Z" transform="translate(-791.58 -608.026)"/></g></g><path class="n" d="M837.5,587.5H797.86c3.962-29.087,7.817-60.1,11.065-84.2h57.149c3.248,24.1,7.1,55.114,11.065,84.2Z" transform="translate(-792.725 -499.395)"/><g class="h" transform="translate(5.136 3.902)"><g class="v"><path class="j" d="M815.178,587.5c3.122-29.087,6.084-60.1,8.636-84.2H808.925c-3.248,24.1-7.1,55.114-11.065,84.2Z" transform="translate(-797.86 -503.297)"/></g></g><path class="g" d="M798.445,602.667c-.195,1.44-.389,2.879-.584,4.309h79.281c-.2-1.43-.39-2.869-.584-4.309H798.445Z" transform="translate(-792.725 -518.873)"/><path class="p" d="M814.417,502.831l52.265-1.913.392,1.913Z" transform="translate(-795.97 -498.929)"/></g><g transform="translate(769.457 451.577)"><path class="g" d="M938.991,557.393h54.277q-.731-3.52-1.452-7.045a403.71,403.71,0,0,0-51.408,0q-.7,3.524-1.417,7.044" transform="translate(-921.354 -549.529)"/><g class="h" transform="translate(17.637 0.002)"><g class="w"><path class="j" d="M951.359,557.393q.628-3.52,1.249-7.044,9.812-.626,19.621-.772-15.9-.24-31.822.772-.7,3.524-1.417,7.044Z" transform="translate(-938.991 -549.532)"/></g></g><path class="g" d="M917.6,659.112h88.668l-1.178,5.958h-86.3Z" transform="translate(-917.162 -571.009)"/><g class="k" transform="translate(0 88.102)"><g class="x"><path class="m" d="M917.6,659.112h21.647l1.4,5.958H918.788Z" transform="translate(-917.162 -659.112)"/></g></g><path class="n" d="M963.082,638.584h-39.64c3.961-29.087,7.817-60.1,11.065-84.2h57.149c3.248,24.1,7.1,55.114,11.065,84.2Z" transform="translate(-918.306 -550.481)"/><g class="h" transform="translate(5.136 3.903)"><g class="y"><path class="j" d="M940.76,638.584c3.122-29.087,6.083-60.1,8.635-84.2H934.507c-3.248,24.1-7.1,55.114-11.065,84.2Z" transform="translate(-923.442 -554.383)"/></g></g><path class="g" d="M924.027,653.752c-.195,1.44-.39,2.88-.585,4.31h79.28c-.195-1.43-.39-2.87-.585-4.31H924.027Z" transform="translate(-918.306 -569.958)"/><path class="p" d="M940,553.917,992.263,552l.392,1.913Z" transform="translate(-921.552 -550.014)"/></g><g transform="translate(769.678 362.008)"><path class="g" d="M992.993,545.335H938.716q.731,3.52,1.451,7.044a403.688,403.688,0,0,0,51.408,0q.7-3.523,1.417-7.043" transform="translate(-921.521 -459.138)"/><g class="h" transform="translate(38.139 86.197)"><g class="z"><path class="j" d="M985.755,545.335q-.628,3.52-1.249,7.043-9.813.626-19.622.772,15.9.241,31.823-.772.7-3.523,1.417-7.043Z" transform="translate(-964.79 -545.335)"/></g></g><path class="g" d="M1006,444.08H917.329l1.178-5.958h86.3Z" transform="translate(-917.329 -438.122)"/><g class="k" transform="translate(65.41 0)"><g class="aa"><path class="m" d="M1022,444.08h-21.647l-1.4-5.958h21.863Z" transform="translate(-998.737 -438.123)"/></g></g><path class="n" d="M962.807,445.532h39.64c-3.962,29.087-7.817,60.1-11.065,84.2H934.232c-3.248-24.1-7.1-55.114-11.065-84.2Z" transform="translate(-918.474 -439.575)"/><g class="h" transform="translate(58.02 5.957)"><g class="ab"><path class="j" d="M998.13,445.532c-3.122,29.087-6.084,60.1-8.635,84.2h14.887c3.248-24.1,7.1-55.114,11.065-84.2Z" transform="translate(-989.495 -445.532)"/></g></g><path class="g" d="M1001.861,449.841c.195-1.44.39-2.88.584-4.31H923.165c.2,1.43.39,2.87.585,4.31h78.112Z" transform="translate(-918.473 -439.575)"/><path class="p" d="M992.381,550.261l-52.265,1.913-.392-1.913Z" transform="translate(-921.719 -460.103)"/></g><g transform="translate(868.986 451.577)"><path class="g" d="M1062.785,557.393h54.277q-.731-3.52-1.451-7.045a403.71,403.71,0,0,0-51.408,0q-.7,3.524-1.417,7.044" transform="translate(-1045.148 -549.529)"/><g class="h" transform="translate(17.637 0.002)"><g class="ac"><path class="j" d="M1075.153,557.393q.628-3.52,1.25-7.044,9.813-.626,19.622-.772-15.9-.24-31.823.772-.7,3.524-1.417,7.044Z" transform="translate(-1062.785 -549.532)"/></g></g><path class="g" d="M1041.4,659.112h88.668l-1.178,5.958h-86.3Z" transform="translate(-1040.956 -571.009)"/><g class="k" transform="translate(0 88.102)"><g class="ad"><path class="m" d="M1041.4,659.112h21.647l1.4,5.958h-21.863Z" transform="translate(-1040.956 -659.112)"/></g></g><path class="n" d="M1086.876,638.584h-39.64c3.961-29.087,7.817-60.1,11.065-84.2h57.149c3.248,24.1,7.1,55.114,11.065,84.2Z" transform="translate(-1042.1 -550.481)"/><g class="h" transform="translate(5.136 3.903)"><g class="ae"><path class="j" d="M1064.554,638.584c3.122-29.087,6.084-60.1,8.635-84.2H1058.3c-3.248,24.1-7.1,55.114-11.065,84.2Z" transform="translate(-1047.236 -554.383)"/></g></g><path class="g" d="M1047.82,653.752c-.195,1.44-.39,2.88-.585,4.31h79.28c-.194-1.43-.39-2.87-.584-4.31H1047.82Z" transform="translate(-1042.1 -569.958)"/><path class="p" d="M1063.792,553.917,1116.057,552l.392,1.913Z" transform="translate(-1045.346 -550.014)"/></g><g transform="translate(869.207 362.008)"><path class="g" d="M1116.787,545.335H1062.51q.731,3.52,1.452,7.044a403.689,403.689,0,0,0,51.408,0q.7-3.523,1.417-7.043" transform="translate(-1045.316 -459.138)"/><g class="h" transform="translate(38.139 86.197)"><g class="af"><path class="j" d="M1109.549,545.335q-.628,3.52-1.249,7.043-9.812.626-19.621.772,15.9.241,31.822-.772.7-3.523,1.417-7.043Z" transform="translate(-1088.584 -545.335)"/></g></g><path class="g" d="M1129.792,444.08h-88.668l1.178-5.958h86.3Z" transform="translate(-1041.123 -438.122)"/><g class="k" transform="translate(65.41 0)"><g class="ag"><path class="m" d="M1145.79,444.08h-21.647l-1.4-5.958H1144.6Z" transform="translate(-1122.531 -438.123)"/></g></g><path class="n" d="M1086.6,445.532h39.64c-3.961,29.087-7.817,60.1-11.065,84.2h-57.149c-3.248-24.1-7.1-55.114-11.065-84.2Z" transform="translate(-1042.268 -439.575)"/><g class="h" transform="translate(58.02 5.957)"><g class="ah"><path class="j" d="M1121.924,445.532c-3.122,29.087-6.083,60.1-8.635,84.2h14.887c3.248-24.1,7.1-55.114,11.065-84.2Z" transform="translate(-1113.289 -445.532)"/></g></g><path class="g" d="M1125.656,449.841c.194-1.44.39-2.88.584-4.31h-79.28c.195,1.43.39,2.87.585,4.31h78.111Z" transform="translate(-1042.267 -439.575)"/><path class="p" d="M1116.175,550.261l-52.266,1.913-.392-1.913Z" transform="translate(-1045.513 -460.103)"/></g><rect class="ai" width="462.412" height="286.557" transform="translate(600.991 49.814)"/></g></svg>