<svg xmlns="http://www.w3.org/2000/svg" xmlns:xlink="http://www.w3.org/1999/xlink" width="187.921" height="159.219" viewBox="0 0 187.921 159.219"><defs><style>.a{fill:none;}.b{fill:#eaeaea;}.c{fill:#856bc2;}.d{opacity:0.45;}.d,.g{mix-blend-mode:multiply;isolation:isolate;}.e{clip-path:url(#a);}.f{fill:#e6e7e8;}.g{opacity:0.22;}.h{clip-path:url(#b);}.i{fill:#808285;}.j{fill:#a08ede;}.k{clip-path:url(#c);}.l{fill:#624f94;}.m{clip-path:url(#d);}.n{clip-path:url(#e);}.o{clip-path:url(#f);}.p{clip-path:url(#g);}.q{clip-path:url(#h);}.r{clip-path:url(#i);}.s{clip-path:url(#j);}.t{clip-path:url(#k);}.u{clip-path:url(#l);}</style><clipPath id="a"><path class="a" d="M546.157,463.7h26.764l-.078-6.246H546.507Z" transform="translate(-546.157 -457.453)"/></clipPath><clipPath id="b"><path class="a" d="M527.043,555.211h19.044l.182-4.827H527.425Z" transform="translate(-527.043 -550.384)"/></clipPath><clipPath id="c"><path class="a" d="M532.55,529.062h19.218l1.93-67.534H537.332Z" transform="translate(-532.55 -461.528)"/></clipPath><clipPath id="d"><path class="a" d="M425.948,465.777h26.764l-.078-6.246H426.3Z" transform="translate(-425.948 -459.531)"/></clipPath><clipPath id="e"><path class="a" d="M406.834,557.289h19.044l.182-4.827H407.216Z" transform="translate(-406.834 -552.462)"/></clipPath><clipPath id="f"><path class="a" d="M412.341,531.14H431.56l1.93-67.534H417.123Z" transform="translate(-412.341 -463.606)"/></clipPath><clipPath id="g"><path class="a" d="M425.948,448.614h26.764l-.078-6.246H426.3Z" transform="translate(-425.948 -442.368)"/></clipPath><clipPath id="h"><path class="a" d="M406.834,540.126h19.044l.182-4.827H407.216Z" transform="translate(-406.834 -535.299)"/></clipPath><clipPath id="i"><path class="a" d="M412.341,513.977H431.56l1.93-67.534H417.123Z" transform="translate(-412.341 -446.444)"/></clipPath><clipPath id="j"><path class="a" d="M425.948,429.358h26.764l-.078-6.246H426.3Z" transform="translate(-425.948 -423.112)"/></clipPath><clipPath id="k"><path class="a" d="M406.834,520.87h19.044l.182-4.827H407.216Z" transform="translate(-406.834 -516.043)"/></clipPath><clipPath id="l"><path class="a" d="M412.341,494.721H431.56l1.93-67.534H417.123Z" transform="translate(-412.341 -427.188)"/></clipPath></defs><g transform="translate(0 0)"><rect class="b" width="187.921" height="159.219" transform="translate(0 0)"/><g transform="translate(106.587 48.837)"><path class="c" d="M546.157,463.7h43.582q-.6-2.8-1.18-5.6a327.444,327.444,0,0,0-41.247,0q-.572,2.8-1.155,5.6" transform="translate(-531.63 -457.451)"/><g class="d" transform="translate(14.527 0.001)"><g class="e"><path class="f" d="M556.088,463.7q.51-2.8,1.012-5.6,7.873-.5,15.743-.613-12.752-.192-25.532.613-.572,2.8-1.155,5.6Z" transform="translate(-546.157 -457.452)"/></g></g><path class="c" d="M527.546,550.384h71.839l-.932,4.827H528.482Z" transform="translate(-527.164 -479.752)"/><g class="g" transform="translate(0 70.632)"><g class="h"><path class="i" d="M527.546,550.384h17.539l1.122,4.827H528.482Z" transform="translate(-527.164 -550.384)"/></g></g><path class="j" d="M564.667,529.062H532.55c3.31-23.474,6.52-48.334,9.2-67.534h45.868c2.671,19.2,5.868,44.06,9.168,67.534Z" transform="translate(-528.365 -458.429)"/><g class="d" transform="translate(4.186 3.099)"><g class="k"><path class="f" d="M546.582,529.062c2.586-23.474,5.028-48.334,7.117-67.534H541.749c-2.68,19.2-5.889,44.06-9.2,67.534Z" transform="translate(-532.55 -461.528)"/></g></g><path class="c" d="M533.04,545.8c-.163,1.165-.327,2.33-.49,3.488h64.235c-.163-1.158-.326-2.323-.489-3.488H533.04Z" transform="translate(-528.365 -478.651)"/><path class="l" d="M547.025,461.048l41.944-1.519.318,1.519Z" transform="translate(-531.838 -457.949)"/></g><g transform="translate(15.225 50.417)"><path class="c" d="M425.948,465.776H469.53q-.6-2.8-1.18-5.6a327.437,327.437,0,0,0-41.247,0q-.572,2.8-1.155,5.6" transform="translate(-411.421 -459.529)"/><g class="d" transform="translate(14.527 0.002)"><g class="m"><path class="f" d="M435.879,465.777q.51-2.8,1.012-5.6,7.873-.5,15.743-.613-12.753-.192-25.531.613-.573,2.8-1.155,5.6Z" transform="translate(-425.948 -459.531)"/></g></g><path class="c" d="M407.337,552.462h71.84l-.932,4.827H408.273Z" transform="translate(-406.955 -481.83)"/><g class="g" transform="translate(0 70.632)"><g class="n"><path class="i" d="M407.337,552.462h17.539L426,557.289H408.273Z" transform="translate(-406.955 -552.462)"/></g></g><path class="j" d="M444.458,531.14H412.341c3.31-23.474,6.52-48.334,9.2-67.534h45.868c2.671,19.2,5.868,44.06,9.168,67.534Z" transform="translate(-408.156 -460.507)"/><g class="d" transform="translate(4.186 3.099)"><g class="o"><path class="f" d="M426.373,531.14c2.586-23.474,5.028-48.334,7.117-67.534H421.54c-2.68,19.2-5.889,44.06-9.2,67.534Z" transform="translate(-412.341 -463.606)"/></g></g><path class="c" d="M412.831,547.874c-.163,1.165-.327,2.33-.49,3.488h64.235c-.163-1.158-.326-2.323-.489-3.488H412.831Z" transform="translate(-408.156 -480.729)"/><path class="l" d="M426.816,463.126l41.944-1.519.318,1.519Z" transform="translate(-411.629 -460.027)"/></g><g transform="translate(15.225 37.373)"><path class="c" d="M425.948,448.613H469.53q-.6-2.8-1.18-5.6a327.311,327.311,0,0,0-41.247,0q-.572,2.8-1.155,5.6" transform="translate(-411.421 -442.366)"/><g class="d" transform="translate(14.527 0.002)"><g class="p"><path class="f" d="M435.879,448.614q.51-2.8,1.012-5.6,7.873-.5,15.743-.613-12.753-.19-25.531.613-.573,2.8-1.155,5.6Z" transform="translate(-425.948 -442.368)"/></g></g><path class="c" d="M407.337,535.3h71.84l-.932,4.827H408.273Z" transform="translate(-406.955 -464.667)"/><g class="g" transform="translate(0 70.632)"><g class="q"><path class="i" d="M407.337,535.3h17.539L426,540.127H408.273Z" transform="translate(-406.955 -535.299)"/></g></g><path class="j" d="M444.458,513.977H412.341c3.31-23.474,6.52-48.334,9.2-67.534h45.868c2.671,19.2,5.868,44.06,9.168,67.534Z" transform="translate(-408.156 -443.344)"/><g class="d" transform="translate(4.186 3.099)"><g class="r"><path class="f" d="M426.373,513.977c2.586-23.474,5.028-48.334,7.117-67.534H421.54c-2.68,19.2-5.889,44.06-9.2,67.534Z" transform="translate(-412.341 -446.443)"/></g></g><path class="c" d="M412.831,530.711q-.245,1.748-.49,3.489h64.235q-.245-1.737-.489-3.489H412.831Z" transform="translate(-408.156 -463.566)"/><path class="l" d="M426.816,445.964l41.944-1.519.318,1.519Z" transform="translate(-411.629 -442.865)"/></g><g transform="translate(15.225 22.738)"><path class="c" d="M425.948,429.357H469.53q-.6-2.8-1.18-5.6a327.282,327.282,0,0,0-41.247,0q-.572,2.8-1.155,5.6" transform="translate(-411.421 -423.11)"/><g class="d" transform="translate(14.527 0.002)"><g class="s"><path class="f" d="M435.879,429.358q.51-2.8,1.012-5.6,7.873-.5,15.743-.613-12.753-.19-25.531.613-.573,2.8-1.155,5.6Z" transform="translate(-425.948 -423.112)"/></g></g><path class="c" d="M407.337,516.044h71.84l-.932,4.827H408.273Z" transform="translate(-406.955 -445.412)"/><g class="g" transform="translate(0 70.632)"><g class="t"><path class="i" d="M407.337,516.044h17.539L426,520.871H408.273Z" transform="translate(-406.955 -516.044)"/></g></g><path class="j" d="M444.458,494.721H412.341c3.31-23.474,6.52-48.334,9.2-67.533h45.868c2.671,19.2,5.868,44.059,9.168,67.533Z" transform="translate(-408.156 -424.089)"/><g class="d" transform="translate(4.186 3.099)"><g class="u"><path class="f" d="M426.373,494.721c2.586-23.474,5.028-48.334,7.117-67.533H421.54c-2.68,19.2-5.889,44.059-9.2,67.533Z" transform="translate(-412.341 -427.188)"/></g></g><path class="c" d="M412.831,511.456c-.163,1.164-.327,2.329-.49,3.488h64.235c-.163-1.158-.326-2.323-.489-3.488H412.831Z" transform="translate(-408.156 -444.311)"/><path class="l" d="M426.816,426.708l41.944-1.519.318,1.519Z" transform="translate(-411.629 -423.609)"/></g></g></svg>