<svg xmlns="http://www.w3.org/2000/svg" xmlns:xlink="http://www.w3.org/1999/xlink" width="503.09" height="465.6" viewBox="0 0 503.09 465.6"><defs><style>.a{fill:none;}.b{fill:#b3576b;}.c{opacity:0.45;}.c,.f{mix-blend-mode:multiply;isolation:isolate;}.d{clip-path:url(#a);}.e{fill:#e6e7e8;}.f{opacity:0.22;}.g{clip-path:url(#b);}.h{fill:#808285;}.i{fill:#dc6c85;}.j{clip-path:url(#c);}.k{fill:#9c4c5d;}.l{clip-path:url(#d);}.m{clip-path:url(#e);}.n{clip-path:url(#f);}.o{clip-path:url(#g);}.p{clip-path:url(#h);}.q{clip-path:url(#i);}.ab,.r{fill:#f7c965;}.s{fill:#c99656;}.ag,.t{fill:#d0a56e;}.ae,.u{fill:#8f7fc8;}.ab,.ad,.af,.ag,.u,.x,.y,.z{fill-rule:evenodd;}.v{fill:#f6c865;}.af,.w{opacity:0.15;}.x{fill:#cbcbcb;}.y{fill:#bcbcbc;}.z{fill:#d3d3d3;}.aa{fill:#5f5585;}.ac{opacity:0.22;}.ad{fill:#c69a60;}.ah{fill:gray;}.ai{fill:#363636;}.aj{fill:#d0d0d0;opacity:0.54;}</style><clipPath id="a"><path class="a" d="M615.31,538.49h81.35l-.237-18.985H616.373Z" transform="translate(-615.31 -519.505)"/></clipPath><clipPath id="b"><path class="a" d="M591.663,649.145h57.884l.554-14.672H592.825Z" transform="translate(-591.663 -634.473)"/></clipPath><clipPath id="c"><path class="a" d="M598.477,729.819h58.415l5.865-205.272H613.011Z" transform="translate(-598.477 -524.547)"/></clipPath><clipPath id="d"><path class="a" d="M754.168,538.49h81.349l-.237-18.985H755.231Z" transform="translate(-754.168 -519.505)"/></clipPath><clipPath id="e"><path class="a" d="M730.522,649.145h57.884l.554-14.672H731.683Z" transform="translate(-730.522 -634.473)"/></clipPath><clipPath id="f"><path class="a" d="M737.335,729.819H795.75l5.865-205.272H751.87Z" transform="translate(-737.335 -524.547)"/></clipPath><clipPath id="g"><path class="a" d="M689.477,412.548h83.789l-.245-19.554H690.572Z" transform="translate(-689.477 -392.994)"/></clipPath><clipPath id="h"><path class="a" d="M665.121,526.521h59.62l.571-15.112H666.317Z" transform="translate(-665.121 -511.409)"/></clipPath><clipPath id="i"><path class="a" d="M672.139,609.614h60.166l6.041-211.427H687.109Z" transform="translate(-672.139 -398.187)"/></clipPath></defs><g transform="translate(-578.665 -392.992)"><g transform="translate(602.938 392.992)"><g transform="translate(0 236.238)"><path class="b" d="M615.31,538.493H747.777q-1.807-8.507-3.587-17.015a994.9,994.9,0,0,0-125.371,0q-1.742,8.5-3.509,17.011" transform="translate(-571.154 -519.502)"/><g class="c" transform="translate(44.156 0.005)"><g class="d"><path class="e" d="M645.495,538.49q1.552-8.507,3.077-17.011,23.929-1.51,47.852-1.862-38.763-.583-77.6,1.862-1.742,8.5-3.513,17.011Z" transform="translate(-615.31 -519.505)"/></g></g><path class="b" d="M592.286,634.473h218.36l-2.832,14.672H595.131Z" transform="translate(-591.124 -419.784)"/><g class="f" transform="translate(0 214.689)"><g class="g"><path class="h" d="M592.286,634.473H645.6l3.411,14.672H595.131Z" transform="translate(-591.124 -634.473)"/></g></g><path class="i" d="M696.1,729.818H598.477c10.059-71.351,19.814-146.913,27.96-205.271H765.854c8.119,58.358,17.837,133.92,27.866,205.271Z" transform="translate(-585.754 -515.127)"/><g class="c" transform="translate(12.723 9.42)"><g class="j"><path class="e" d="M641.125,729.818c7.862-71.351,15.284-146.913,21.633-205.271H626.437c-8.145,58.358-17.9,133.92-27.96,205.271Z" transform="translate(-598.477 -524.547)"/></g></g><path class="b" d="M599.965,628.8c-.495,3.54-.992,7.083-1.488,10.6H793.72c-.495-3.52-.99-7.062-1.483-10.6H599.965Z" transform="translate(-585.754 -424.707)"/><path class="k" d="M616.384,526.692l127.489-4.618.968,4.618Z" transform="translate(-570.222 -517.272)"/></g><g transform="translate(259.295 236.238)"><path class="b" d="M754.168,538.493H886.635q-1.807-8.507-3.587-17.015a994.9,994.9,0,0,0-125.371,0q-1.739,8.5-3.509,17.011" transform="translate(-710.012 -519.502)"/><g class="c" transform="translate(44.156 0.005)"><g class="l"><path class="e" d="M784.354,538.49q1.549-8.507,3.075-17.011,23.932-1.51,47.853-1.862-38.763-.583-77.6,1.862-1.742,8.5-3.51,17.011Z" transform="translate(-754.168 -519.505)"/></g></g><path class="b" d="M731.144,634.473H949.5l-2.832,14.672H733.99Z" transform="translate(-729.982 -419.784)"/><g class="f" transform="translate(0 214.689)"><g class="m"><path class="h" d="M731.144,634.473h53.311l3.412,14.672H733.99Z" transform="translate(-729.982 -634.473)"/></g></g><path class="i" d="M834.956,729.818H737.335c10.059-71.351,19.816-146.913,27.96-205.271H904.712c8.119,58.358,17.837,133.92,27.866,205.271Z" transform="translate(-724.612 -515.127)"/><g class="c" transform="translate(12.723 9.42)"><g class="n"><path class="e" d="M779.983,729.818c7.863-71.351,15.286-146.913,21.633-205.271H765.295c-8.143,58.358-17.9,133.92-27.96,205.271Z" transform="translate(-737.335 -524.547)"/></g></g><path class="b" d="M738.823,628.8c-.495,3.54-.992,7.083-1.488,10.6H932.578c-.495-3.52-.99-7.062-1.483-10.6H738.823Z" transform="translate(-724.612 -424.707)"/><path class="k" d="M755.242,526.692l127.49-4.618.968,4.618Z" transform="translate(-709.081 -517.272)"/></g><g transform="translate(137.171)"><path class="b" d="M689.477,412.551H825.916q-1.86-8.764-3.7-17.525a1024.935,1024.935,0,0,0-129.13,0q-1.793,8.759-3.613,17.521" transform="translate(-643.997 -392.992)"/><g class="c" transform="translate(45.48 0.004)"><g class="o"><path class="e" d="M720.567,412.549q1.6-8.764,3.169-17.521,24.649-1.557,49.286-1.918-39.925-.6-79.93,1.918-1.793,8.759-3.617,17.521Z" transform="translate(-689.477 -392.994)"/></g></g><path class="b" d="M665.762,511.41H890.669l-2.917,15.112H668.693Z" transform="translate(-664.565 -290.283)"/><g class="f" transform="translate(0 221.126)"><g class="p"><path class="h" d="M665.762,511.41h54.909l3.514,15.112H668.693Z" transform="translate(-664.565 -511.409)"/></g></g><path class="i" d="M772.686,609.615H672.139c10.362-73.491,20.41-151.32,28.8-211.428h143.6c8.362,60.108,18.371,137.937,28.7,211.428Z" transform="translate(-659.034 -388.486)"/><g class="c" transform="translate(13.104 9.701)"><g class="q"><path class="e" d="M716.066,609.615c8.1-73.491,15.743-151.32,22.281-211.428h-37.41c-8.388,60.108-18.436,137.937-28.8,211.428Z" transform="translate(-672.139 -398.187)"/></g></g><path class="b" d="M673.672,505.563c-.51,3.647-1.021,7.3-1.533,10.92h201.1c-.51-3.625-1.02-7.273-1.527-10.92H673.672Z" transform="translate(-659.034 -295.354)"/><path class="k" d="M690.583,400.4,821.9,395.64l1,4.757Z" transform="translate(-643.037 -390.695)"/></g></g><path class="r" d="M705.342,528.362c-.3.5-.633,1.008-.982,1.514a39.6,39.6,0,0,1-3.983,4.874,24.4,24.4,0,0,1-6.013,4.437h-.013c-.672.387-1.384.736-2.108,1.1h-.013c-6.089,2.833-13.706,4.629-20.651,5.755h-.011c-.958.168-1.89.31-2.82.439a153.094,153.094,0,0,1-16.578,1.475l7.514-4.618,1.408-.865,10.319-6.338,1.669-1.022,9.4-5.766,2.108-1.294,23.2-14.237S710.682,519.518,705.342,528.362Z" transform="translate(63.753 104.795)"/><g transform="translate(578.665 418.254)"><path class="s" d="M650.313,432.614s2.179,12.894-5.268,20.7S663.5,451.87,663.5,451.87s-5.9-12.05-5.4-19.865S650.313,432.614,650.313,432.614Z" transform="translate(-522.257 -387.297)"/><ellipse class="t" cx="14.044" cy="19.161" rx="14.044" ry="19.161" transform="translate(115.685 12.91) rotate(-4.47)"/><path class="u" d="M602.429,546.612c5.335,13.15,16.134,22.755,33.015,20.853A373.827,373.827,0,0,1,675.64,565a330.388,330.388,0,0,1,36.69,1.7q7.053.725,13.318,1.679c.542-.3,37.158,12.274,44.114,13.54,8.693,1.587-9.643-36.3-10.575-38.237l18.261,26.712a25.9,25.9,0,0,0,2.8-1.828c16.619-12.573,14.177-43.07,10.222-58.963-9.7-39.039-45.307-57.318-50.306-59.8a104.974,104.974,0,0,0-19.921-7.387c-.672-.166-1.361-.353-2.052-.5-1.716-.411-3.451-.784-5.186-1.119a96.055,96.055,0,0,0-9.867-1.436c-.336-.058-.691-.075-1.025-.112a.609.609,0,0,1,.019.409c-.149.373-.71.747-1.55,1.1-4.14,1.7-15.071,2.685-15.165,1.212a7.471,7.471,0,0,0-4.644-2.183c-.894-.075-1.809-.056-2.779-.131-19.4-1.679-37.418,12.722-50.063,25.853C607.764,486.437,590.528,517.382,602.429,546.612Z" transform="translate(-561.442 -378.135)"/><g transform="translate(111.167)"><g transform="translate(5.209 5.252)"><path class="v" d="M659.879,423.622s-23.189,15.335-17.682-6.8C646.008,401.5,675.658,412.711,659.879,423.622Z" transform="translate(-640.671 -409.333)"/><path class="v" d="M656.277,418.427s14.192,6.986,13.514,15.161c0,0,1.107-24.335-12.425-23.885s-18.651,2.157-15.461,27.549C641.9,437.252,644.237,416.674,656.277,418.427Z" transform="translate(-640.987 -409.017)"/></g><path class="v" d="M660.385,412.568s-1.268-7.456-8.629-5.811-10.218,6.149-10.95,10.487-1.544,7.609-2.609,7.693c0,0,3.44,2.941,4.42,1.794,0,0-2.162,7.863,1.835,13.869,0,0,.624-9.781,5.86-11.26S660.385,412.568,660.385,412.568Z" transform="translate(-638.197 -406.52)"/><path class="v" d="M649.712,410.183s5.068-3.606,10.967,3.423l3.69,6.13s-.98,1.147-3.191.25c0,0,1.555,7.417.87,11.725L657.9,419.172Z" transform="translate(-628.21 -404.146)"/></g><path class="w" d="M674.475,468.672s-29.9,56.078,31.883,84.312l1.257.835,7.314-5.234s-29.115-40.628-29.226-41.673S674.475,468.672,674.475,468.672Z" transform="translate(-501.839 -352.613)"/><path class="w" d="M719.175,515.884s1.165-26.737-70.47-17.783,53.725,17.013,53.725,17.013Z" transform="translate(-537.092 -328.679)"/><path class="x" d="M625.064,514.659l14.485,2.607,2.489-19.357.181-1.417a1.864,1.864,0,0,0-.149-1.031v-.011a1.97,1.97,0,0,0-1.309-1.1l-11.45-2.874a1.937,1.937,0,0,0-2.267,1.139,2.033,2.033,0,0,0-.148.586Z" transform="translate(-538.421 -332.883)"/><path class="y" d="M626.124,492.619l13.652,3.623,1.374-.792a1.97,1.97,0,0,0-1.309-1.1l-11.45-2.874A1.937,1.937,0,0,0,626.124,492.619Z" transform="translate(-537.501 -332.883)"/><path class="z" d="M633.163,494.648V496.1l1.85-.063.181-1.417a1.863,1.863,0,0,0-.149-1.031Z" transform="translate(-531.396 -331.006)"/><g transform="translate(0 170.927)"><g transform="translate(14.323 59.488)"><path class="t" d="M586.335,535.477S617.3,653.524,613.654,656.493c-6.519,5.389-32.6,24.083-1.421,14.248,16.589-2.5,14.41-6.588,13.833-10.339-.471-3.064-3.774-26.387-4.967-34.819-.267-1.89-18.012-95.671-18.012-95.671Z" transform="translate(-586.335 -529.912)"/><path class="aa" d="M621.109,595.832c-.2-1.761-10.388.7-11.232,2.358S589.782,609.46,591.814,616.6s29-4.9,30.979-5.525S621.493,599.292,621.109,595.832Z" transform="translate(-581.713 -473.264)"/></g><path class="t" d="M652.95,512.1s-13.994,121.237-18.466,122.682c-8.031,2.654-39.115,10.608-6.5,12.76,16.365,3.694,15.82-.908,16.644-4.612.674-3.027,6.061-25.958,8.009-34.249.437-1.856,17.939-95.684,17.939-95.684Z" transform="translate(-548.547 -485.877)"/><path class="aa" d="M647.679,579.229c.456-1.712-9.934-3.117-11.322-1.879s-22.815,3.206-23.515,10.6,28.8,5.959,30.873,6.1S646.782,582.594,647.679,579.229Z" transform="translate(-549.032 -429.687)"/><g transform="translate(0 11.968)"><path class="ab" d="M579.044,548.875a11.187,11.187,0,0,0,.28,1.139c.112.355.243.708.392,1.063a14.889,14.889,0,0,0,2.741,4.1q.588.613,1.231,1.231a27.89,27.89,0,0,0,3.059,2.463c.205.15.411.3.635.446a47.079,47.079,0,0,0,5.6,3.191c1.7.839,3.469,1.621,5.3,2.33.3.112.614.243.932.355.112.037.205.075.317.112a3.734,3.734,0,0,1,.485.187,86.465,86.465,0,0,0,9.7,2.835,1.1,1.1,0,0,0,.334.075c.486.131.952.243,1.419.336h.019c.446.093.876.185,1.305.26a36.788,36.788,0,0,0,8.338.9c2.648-.112,3.6-.168,3.1-2.872-.28-1.51.784-2.835,2.052-3.824.28-.224.577-.411.857-.6.149-.093.317-.187.467-.28,4.011-2.426,8.543-3.862,13.094-5.223.5-.15.99-.3,1.492-.448,2.183-.654,4.366-1.324,6.474-2.089,2.069-.764,4.159-1.529,6.248-2.276.486-.166.969-.316,1.455-.5.857-.28,1.7-.56,2.555-.84a89.784,89.784,0,0,1,13.357-3.339c.2-.037.39-.056.577-.092a1.33,1.33,0,0,1,.261-.039c.913-.147,1.791-.28,2.648-.392.542-.075,1.083-.129,1.606-.2.726-.075,1.455-.149,2.144-.224,3.189-.318,6.007-.485,8.487-.691.822-.056,1.585-.149,2.314-.224,1.025-.13,1.977-.259,2.872-.446.523-.093,1.008-.205,1.492-.336.187-.056.392-.112.56-.168.224-.093.448-.168.652-.261.318-.131.6-.278.9-.428.243-.149.485-.3.745-.467,2.519-1.755,4.086-4.683,4.982-7.91.075-.3.166-.6.241-.895a35.987,35.987,0,0,0,.635-11.658c-.168-1.492-1.305-2.836-2.984-4.235-.224-.187-.467-.353-.691-.558-2.872-2.183-7-4.5-10.892-7.649-.168-.149-.355-.3-.542-.446-.28-.224-.542-.467-.8-.691-.353-.318-.689-.616-1.025-.894a1.1,1.1,0,0,0-.168-.149c-.093-.075-.168-.149-.261-.224-.372-.336-.745-.654-1.081-.952-1.025-.876-1.9-1.6-2.5-2.108-.614-.521-.969-.8-.969-.8-.261,0-.6.019-.988.056h-.019c-.149.019-.3.019-.485.037-.243.019-.523.056-.822.093-.353.037-.726.075-1.119.131-.43.056-.876.112-1.361.168-.43.056-.878.131-1.343.206q-.728.084-1.511.222H673.8c-.3.037-.6.1-.915.131-.187.039-.355.056-.56.093h-.017a3.483,3.483,0,0,0-.355.075h-.075c-.317.056-.672.093-1.027.149-.521.075-1.081.168-1.641.261h-.019c-.82.149-1.66.28-2.517.429h-.019c-.5.093-1.027.187-1.548.28-.56.11-1.139.205-1.716.317-.224.054-.448.092-.672.129-1.231.243-2.5.467-3.806.71-2.984.6-6.1,1.249-9.251,1.959-.261.075-.523.131-.784.187-.708.187-1.436.355-2.162.5-.448.11-.915.222-1.38.316a.353.353,0,0,1-.149.037h-.075c-7.537,1.66-15.3,2.7-22.981,4.086-.446.093-.894.168-1.343.26-10.409,1.922-20.574,4.571-29.657,10.259-.28.168-.56.336-.84.523a3.988,3.988,0,0,0-.355.243C582.178,531.511,577.216,539.251,579.044,548.875Z" transform="translate(-578.665 -504.464)"/></g><path class="ac" d="M619.083,552.33c2.553-.928,5-1.7,7.314-2.344,3.094-1,6-1.778,8.73-2.386,2.288-.519,4.454-.928,6.5-1.247,4.375-4.134,7.436-7.128,7.436-7.128l1.9-30.908c-1.513-1.315-2.773-2.375-3.58-3.049-.618-.519-.973-.807-.973-.807-.708.022-1.867.121-3.425.331-3.382.409-8.586,1.2-14.653,2.332-.22.045-.443.077-.663.121C626.829,518.274,624.651,536.893,619.083,552.33Z" transform="translate(-543.608 -492.498)"/><path class="ab" d="M617.843,576.39a4.5,4.5,0,0,0,.6.726,9.541,9.541,0,0,0,1.492,1.324c.355.261.745.523,1.175.784a22.934,22.934,0,0,0,2.7,1.38c.243.112.486.224.747.336,1.4.579,2.947,1.119,4.607,1.623h.019c.43.112.878.243,1.344.373.075.017.129.037.2.056.261.073.5.147.766.205,2.071.54,4.254,1.007,6.51,1.4q1.316.252,2.685.446a.377.377,0,0,1,.149.021c.224.037.429.075.635.112.28.035.542.075.822.091.334.056.689.094,1.025.131.467.075.932.131,1.4.187,2.687.3,5.391.523,7.983.616.43.017.859.037,1.289.056.484.019.951.019,1.417.019,1.324.037,2.611.017,3.841-.019.261-.019.542-.019.784-.039,1.175-.054,2.295-.129,3.357-.241.486-.037.951-.093,1.4-.168a27.334,27.334,0,0,0,3.563-.67,7.721,7.721,0,0,0,.8-.245,6.722,6.722,0,0,0,3.71-2.219c.28-.448.541-.9.8-1.363.131-.222.261-.465.374-.708a26.938,26.938,0,0,0,1.9-5.242c.129-.467.241-.932.334-1.4.3-1.287.523-2.594.728-3.9.28-1.716.5-3.451.782-5.186l3.806-2.7h.019a4.64,4.64,0,0,1,1.008-.56,2.435,2.435,0,0,1,1.417-.168,2.091,2.091,0,0,0,.708-.2c.243-.1.523-.207.859-.355,1.324-.579,3.432-1.567,6.005-2.835.56-.282,1.12-.56,1.716-.859.467-.224.934-.448,1.417-.691.3-.149.616-.3.915-.448,1.417-.689,2.891-1.436,4.42-2.2.448-.224.9-.448,1.343-.654,1.623-.82,3.264-1.66,4.943-2.5.3-.168.616-.317.915-.467.28-.149.579-.3.876-.448.15-.075.318-.166.467-.241,1.6-.822,3.19-1.625,4.737-2.444h.019c.523-.261,1.046-.523,1.548-.782h.019c1.529-.8,3.021-1.55,4.4-2.276.28-.131.558-.28.8-.411.5-.261,1.008-.523,1.473-.766.654-.334,1.289-.67,1.866-.969.374-.187.728-.373,1.046-.558.056-.037.075-.058.131-.1,0,.02.019.02.037,0,3.1-1.6,5.111-2.685,5.242-2.835.091-.093.428-.372.951-.782.28-.224.614-.486.988-.784,1.064-.857,2.426-1.978,3.824-3.245.728-.652,1.473-1.343,2.164-2.052a25.515,25.515,0,0,0,3.469-4.121c.932-1.494,1.287-2.818.614-3.712-.131-.168-.243-.317-.39-.485l-.019-.019a19.028,19.028,0,0,0-1.94-1.959c-.149-.148-.336-.278-.5-.446a33.8,33.8,0,0,0-8.375-5.092c-.018,0-.018-.019-.037-.019h-.019c-.075-.037-.149-.056-.224-.093a11.2,11.2,0,0,0-1.305-.523c-.728-.28-1.492-.542-2.276-.766-.019-.017-.019-.017-.037-.017a34.925,34.925,0,0,0-5.333-1.176q-1.2-.2-2.463-.28h-.018a38.541,38.541,0,0,0-5.074-.019h-.019a1.714,1.714,0,0,0-.3.019l-1.006-.316H712.6l-1.343-.448c-1.569-.5-3.768-1.214-6.362-2.09-.3-.093-.614-.205-.932-.317-2.538-.838-5.391-1.826-8.282-2.853-.3-.093-.6-.205-.9-.318-3.432-1.212-6.883-2.5-9.9-3.71h-.019c-.6-.224-1.156-.467-1.716-.691-.334-.149-.67-.3-1.006-.429-1.6-.691-3-1.343-4.123-1.94-5.669-2.984-11.789-1.473-17.159.654-.261.093-.5.205-.766.3-2.5,1.027-4.868,2.164-6.883,2.967a2.077,2.077,0,0,1-.3.131,5.344,5.344,0,0,0-1.287.726H651.6a10.9,10.9,0,0,0-1.978,1.884c-.205.243-.411.5-.633.784-.205.3-.429.6-.616.913a23.045,23.045,0,0,0-1.193,2h-.019c-.056.112-.131.224-.187.336a.143.143,0,0,0-.037.093c-.019.019-.019.019-.019.037-.149.241-.261.521-.392.764,0,.019-.019.019-.019.037-.019.056-.056.093-.075.149a2.8,2.8,0,0,0-.206.411c-.224.243-.429.485-.652.745-.336.392-.654.8-.971,1.232a2.787,2.787,0,0,0-.28.428.135.135,0,0,0-.075.112.194.194,0,0,0-.093.131,19.083,19.083,0,0,0-1.268,2.164,24.772,24.772,0,0,0-1.716,4.607c-.261.971-.541,1.94-.857,2.947-.131.431-.28.878-.43,1.326-.112.372-.261.745-.392,1.137-.168.523-.374,1.062-.577,1.585-.093.28-.187.56-.3.822-1.753,4.625-3.955,9.493-6.306,14.306-.131.261-.241.5-.372.747-.243.5-.485.988-.747,1.492-.205.428-.411.838-.633,1.268-.878,1.753-1.772,3.507-2.668,5.2-.374.728-.764,1.455-1.137,2.164-.131.243-.243.484-.373.727-.168.317-.355.654-.523.99-.037.075-.075.129-.112.2-.056.1-.094.187-.131.261-.241.467-.484.915-.726,1.363-.131.241-.243.465-.373.689-.71,1.343-1.4,2.666-2.071,3.936-.131.224-.241.448-.353.67-.224.429-.448.84-.672,1.249-.131.28-.28.542-.411.8-.131.243-.261.5-.373.747-1.193,2.293-2.274,4.42-3.171,6.285A3.951,3.951,0,0,0,617.843,576.39Z" transform="translate(-545.371 -498.055)"/></g><path class="x" d="M625.615,517.807l11.824,2.129a1.374,1.374,0,0,0,1.608-1.193l2.5-21.833a1.926,1.926,0,0,0-.15-1.044,1.974,1.974,0,0,0-1.309-1.1L628.642,491.9a1.937,1.937,0,0,0-2.267,1.139,2.063,2.063,0,0,0-.149.584l-1.735,22.731A1.369,1.369,0,0,0,625.615,517.807Z" transform="translate(-538.921 -332.521)"/><g transform="translate(85.908 60.477)"><g transform="translate(0 112.913)"><path class="ad" d="M633.345,502.715v.011a8.448,8.448,0,0,0,1.755,2.287c1.139.682,4.555,1.948,5.4,1.5s.106-2.618.106-2.618a20.211,20.211,0,0,0-6.821-4.523Z" transform="translate(-617.147 -499.374)"/><path class="ad" d="M660.455,508.4c-.85-.284-9.807-5.649-14.664-6.1s-12.121-.652-14.629-1.365c-2.948-.838-3.693.332-.295,1.63a47.812,47.812,0,0,0,7.734,2.19c.486.021-2.678-.405-6.117-1.119-3.656-.758-7.622-1.789-7.806-1.137-.351,1.264,10.181,4.1,12.037,4.3a46.458,46.458,0,0,1-4.892-.594c-2.207-.39-4.737-1.173-5.234-.715-.784.723,4.8,2.911,9.406,3.55.08.149-1.41.383-6.834-.743-.545-.114-1.933.125-.148.951,3.757,1.737,5.244,2.762,10.691,2.932,5.309.164,11.17-.928,14.991.353Z" transform="translate(-624.67 -498.259)"/></g><path class="ae" d="M640.632,567.741s41.121,33.911,93.963,16.489c5.6-1.847,13.56-8.45,17.981-15.407,13.7-21.549,8.371-52.532.271-75.347-11.441-32.223-38.32-52.381-72.279-54.418-5.727-.336-10.465-.093-13.225.6a6.377,6.377,0,0,0-1.006.3,2.757,2.757,0,0,0-1.494.969.4.4,0,0,0-.056.133,11,11,0,0,0-.764,7.46c2.629,13.971,21.917,36.69,28.576,62.244,3.1,11.807,4.513,33.276,13.8,45.065-23.278-8.952-33.5-.3-62.711.019,0,0-3.339,5.951-3.843,9.458C639.68,566.529,639.848,567.462,640.632,567.741Z" transform="translate(-611.558 -438.907)"/></g><path class="w" d="M660.557,447.973a14.652,14.652,0,0,1,1.473.54c9.083,3.768,9.531,13.411,16.657-.635,1.436-2.835,1.828-4.495,1.716-5.669-.168-1.363-1.044-2.052-1.828-3.152-5.727-.336-10.465-.093-13.225.6-.336-.058-.691-.075-1.025-.112a.609.609,0,0,1,.019.409,2.758,2.758,0,0,0-1.494.969.4.4,0,0,0-.056.133c-4.14,1.7-15.071,2.685-15.165,1.212a7.471,7.471,0,0,0-4.644-2.183c-.187.037-.355.093-.54.131C639.721,445.884,653.058,445.659,660.557,447.973Z" transform="translate(-523.658 -378.43)"/><path class="af" d="M634.426,519.49s1.173-9.113-6.846-12.349,4.646-28.916,4.646-28.916-17.93,13.5-18.565,20.335,7.01,15.74,11.058,17.224S634.426,519.49,634.426,519.49Z" transform="translate(-548.343 -344.327)"/><g transform="translate(59.905 161.761)"><g transform="translate(10.011 3.786)"><path class="ag" d="M616.106,495.174l.584,5.5.149,1.4c3.447,1.268,6.491,5.736,10.1,8.834,3.7,3.171,5.429,3.234,9.174,4.1,1.787.415,1.053-.629.6-.874-1.074-.573-1.936-1.085-2.616-1.522a10.037,10.037,0,0,1-2.321-1.776c-.118-.149-.138-.224-.1-.245.032.021.075.041.106.063.34.213.691.426,1.053.627.106.063.213.118.319.181a25.5,25.5,0,0,0,3.884,1.681,7.38,7.38,0,0,0,3.107.564c.2-.052.31-.148.319-.308,0-.224-.233-.469-.616-.734-.788-.543-2.183-1.171-3.354-1.864a35.572,35.572,0,0,1-3.427-2.319,1.727,1.727,0,0,1-.138-.118c.043.022.086.054.149.086,1.9,1.16,10.173,4.853,10.844,3.651.362-.65-3-2.215-5.959-3.82-1.5-.82-2.894-1.649-3.8-2.192a47.606,47.606,0,0,0,5.652,2.3c3.182,1,3.554-.415,1-1.522-1.522-.659-4.385-2.937-7.172-5.13a.661.661,0,0,0-.1-.075c-.319-.256-.627-.5-.937-.745-.84-.659-1.649-1.277-2.405-1.83a9.4,9.4,0,0,0-1.882-1.033C624.033,496.207,616.765,495.407,616.106,495.174Z" transform="translate(-616.106 -495.174)"/><path class="ag" d="M621.67,499.046c.224.883,3.395,1.914,4.64,2.043a3.453,3.453,0,0,0,1.4-.288c.319-.106.67-.235,1.033-.362-.319-.256-.627-.5-.937-.745l.267-3.053a19.82,19.82,0,0,0-4.554.19S621.437,498.163,621.67,499.046Z" transform="translate(-611.296 -493.948)"/></g><path class="ag" d="M620.754,496.927s-2.063-.282-7.572-3.117.049,4.319.049,4.319l10.521,5.583Z" transform="translate(-610.745 -493.147)"/></g><path class="u" d="M627.346,500.076c.715-.011-.021,11.609-2.921,15.172S605.9,508.173,605.3,502.89s8.13-13.479,11.286-13.182S627.346,500.076,627.346,500.076Z" transform="translate(-555.585 -334.374)"/><ellipse class="ah" cx="2.413" cy="2.561" rx="2.413" ry="2.561" transform="translate(91.99 166.337)"/><ellipse class="ah" cx="0.63" cy="0.669" rx="0.63" ry="0.669" transform="translate(88.836 160.332)"/><ellipse class="ai" cx="0.571" cy="0.606" rx="0.571" ry="0.606" transform="translate(88.895 160.395)"/><circle class="aj" cx="0.117" cy="0.117" r="0.117" transform="translate(89.505 160.721)"/></g><g transform="translate(696.687 629.705)"><path class="ae" d="M641.868,567.154c.485-.037.951-.093,1.4-.168a51.843,51.843,0,0,1,1.343-10.743c.112-.467.224-.934.336-1.382,1.473-6.005,3.675-11.882,5.522-17.794.149-.448.28-.9.411-1.361a63.552,63.552,0,0,0,3-15.277c.037-.9-1.361-.9-1.4,0a63.714,63.714,0,0,1-2.967,15.182c-.131.448-.278.9-.409,1.344-1.847,5.912-4.048,11.807-5.522,17.813-.131.467-.243.915-.336,1.38A49.722,49.722,0,0,0,641.868,567.154Z" transform="translate(-641.868 -519.757)"/></g><g transform="translate(687.286 602.649)"><path class="ae" d="M636.834,580c.484.019.951.019,1.417.019.8-4.011,1.66-8.02,2.536-12.05.093-.467.205-.915.3-1.382,1.287-6.024,2.575-12.048,3.638-18.091.093-.448.168-.915.243-1.363.205-1.118.39-2.22.54-3.339.187-1.063.355-2.106.5-3.171.672-4.644.243-9.1.373-13.691,0-.353.019-.708.037-1.062,0-.112.019-.243.019-.355a58.936,58.936,0,0,1,1.38-8.861c.205-.913.411-1.828.635-2.723.5-2.09,1.006-4.16,1.455-6.175.131-.54.243-1.081.355-1.6.185-.9-1.158-1.27-1.344-.373-.129.652-.278,1.305-.428,1.959-.392,1.791-.822,3.58-1.251,5.391-.2.895-.409,1.808-.6,2.7a74.384,74.384,0,0,0-1.361,7.7c-.056.56-.112,1.119-.131,1.679-.037.467-.056.952-.056,1.417-.056,3.471.3,6.958-.019,10.465-.206,2.388-.5,4.775-.859,7.163-.131.894-.28,1.809-.429,2.7-.073.448-.148.9-.222,1.361-1.046,6.026-2.388,12.089-3.75,18.095-.093.465-.205.913-.3,1.361C638.587,571.887,637.654,575.953,636.834,580Z" transform="translate(-636.834 -505.268)"/></g><g transform="translate(676.617 605.288)"><path class="ae" d="M631.12,577.916c.467.075.932.131,1.4.187,1.137-4.272,2.444-8.618,3.619-13,.112-.448.243-.915.355-1.363a93,93,0,0,0,3.245-18.242c.037-.428.056-.857.075-1.287V544.1c.28-7.012,1.7-13.82,3.1-20.61.093-.448.187-.915.28-1.361a119.128,119.128,0,0,0,2.33-15.389c-.446-.037-.913-.058-1.4-.058a107.092,107.092,0,0,1-2.573,14.942c-.093.446-.187.913-.3,1.361-1.343,6.005-2.648,12.031-2.853,18.242-.037.84-.075,1.7-.131,2.536l-.112,1.4a117.355,117.355,0,0,1-3.264,18.244c-.093.467-.205.915-.336,1.361C633.471,569.168,632.257,573.534,631.12,577.916Z" transform="translate(-631.12 -506.681)"/></g><g transform="translate(662.477 605.55)"><path class="ae" d="M623.548,574.96c.43.112.878.243,1.345.374q2.266-6.857,4.4-13.747c.168-.448.3-.9.429-1.343,1.529-4.924,3-9.85,4.42-14.812.056-.168.112-.353.149-.521.243-.784.448-1.567.652-2.351.15-.448.28-.894.392-1.343.28-.971.56-1.94.822-2.909a148.419,148.419,0,0,0,3.339-18.263c.075-.465.149-.932.205-1.4.577-3.953,1.175-7.908,2.052-11.788-.373,0-.728,0-1.083-.017a1.846,1.846,0,0,1-.336-.021c-.82,3.75-1.417,7.537-1.957,11.322-.075.467-.131.934-.205,1.4a148.358,148.358,0,0,1-3.376,18.391c-.261.969-.523,1.922-.8,2.891-.131.448-.243.9-.374,1.343-.278,1.027-.577,2.034-.876,3.059a4.252,4.252,0,0,1-.131.467q-2.042,7.081-4.216,14.139c-.129.448-.278.895-.409,1.343C626.551,565.782,625.059,570.37,623.548,574.96Z" transform="translate(-623.548 -506.821)"/></g><g transform="translate(653.226 643.285)"><path class="ae" d="M618.594,553.31c.355.261.745.523,1.175.784a96.481,96.481,0,0,0,4.123-13.318c.131-.448.243-.915.334-1.382.654-2.835,1.214-5.669,1.718-8.543,0-.075.019-.15.019-.2.222-1.212.409-2.407.6-3.619-.374.728-.764,1.455-1.137,2.164-.131.243-.243.484-.373.727-.168.317-.355.654-.523.99a.842.842,0,0,1-.037.187.939.939,0,0,1-.037.222c-.446,2.538-.932,5.074-1.511,7.593-.112.467-.205.913-.336,1.38A94.385,94.385,0,0,1,618.594,553.31Z" transform="translate(-618.594 -527.029)"/></g><g transform="translate(654.718 654.289)"><path class="ae" d="M619.393,534.171c.82.355,1.66.672,2.517,1.008.429.168.859.336,1.289.486q4.112,1.566,8.394,2.872c.428.149.857.28,1.305.411,1.679.5,3.357.988,5.073,1.417,2.239.614,4.476,1.156,6.752,1.641.523.131,1.062.243,1.585.336,2.295.467,4.588.895,6.883,1.249a123.907,123.907,0,0,0,20.724,1.53c.129-.467.241-.932.334-1.4a122.869,122.869,0,0,1-20.778-1.511c-2.276-.355-4.553-.765-6.808-1.232-.542-.11-1.064-.222-1.6-.334-2.314-.5-4.609-1.064-6.9-1.679-1.623-.429-3.227-.878-4.831-1.361-.448-.131-.9-.261-1.326-.411-2.872-.9-5.707-1.865-8.468-2.911-.446-.149-.857-.316-1.287-.484-.745-.28-1.473-.56-2.181-.878C619.841,533.352,619.617,533.762,619.393,534.171Z" transform="translate(-619.393 -532.922)"/></g><g transform="translate(663.859 636.813)"><path class="ae" d="M624.288,524.831c2.872,1.025,5.781,1.978,8.691,2.816.448.15.878.28,1.324.392,3.229.934,6.493,1.772,9.776,2.48.54.133,1.063.245,1.585.336a161.65,161.65,0,0,0,25.386,3.285c.895.054.895-1.344,0-1.4a160.308,160.308,0,0,1-25.312-3.285c-.523-.093-1.046-.205-1.548-.336-3.189-.689-6.342-1.509-9.5-2.424q-.67-.168-1.343-.392c-2.835-.82-5.632-1.753-8.431-2.741C624.716,523.991,624.51,524.4,624.288,524.831Z" transform="translate(-624.288 -523.563)"/></g><g transform="translate(673.184 615.398)"><path class="ae" d="M629.282,513.421c1.287.54,2.592,1.063,3.918,1.548.428.187.876.355,1.324.5,2.741,1.046,5.522,1.977,8.319,2.818.542.185,1.1.355,1.66.5v.017A152.764,152.764,0,0,0,663.38,523.1c.876.149,1.249-1.212.374-1.343a151.547,151.547,0,0,1-18.97-4.327c-.541-.15-1.1-.318-1.641-.5-2.836-.859-5.634-1.81-8.412-2.855-.448-.147-.878-.317-1.324-.5-1.232-.465-2.463-.95-3.694-1.473C629.581,512.526,629.431,512.973,629.282,513.421Z" transform="translate(-629.282 -512.095)"/></g><g transform="translate(710.613 625.792)"><path class="ae" d="M707.808,525.026c-.3.5-.633,1.008-.982,1.515-4.758.142-14.134-.131-21.88-.53-4.435-.233-8.326-.5-10.5-.777-.57-.078-1.111-.155-1.667-.22a107.97,107.97,0,0,1-22.98-5.961c-.84-.31-.465-1.656.376-1.345a105.5,105.5,0,0,0,23.689,6.013c.543.077,1.074.155,1.617.22,2.471.284,6.75.555,11.574.775C694.167,525.026,702.454,525.194,707.808,525.026Z" transform="translate(-649.326 -517.661)"/></g><g transform="translate(710.824 632.565)"><path class="ae" d="M696.718,532.7c-.672.387-1.384.736-2.108,1.1-.013-.013-.013,0-.013,0-5.365-.982-14.56-2.818-20.819-4.151-2.96-.633-5.262-1.15-6.194-1.41-.555-.168-1.111-.334-1.668-.5-5.456-1.628-10.849-3.582-16-5.068-.853-.273-.478-1.617.375-1.345,5.443,1.576,11.2,3.71,17.017,5.391.557.168,1.1.31,1.654.465,1.008.286,3.414.816,6.48,1.449C681.886,529.974,691.223,531.786,696.718,532.7Z" transform="translate(-649.439 -521.289)"/></g><g transform="translate(709.733 639.971)"><path class="ae" d="M674.442,536.118c-.958.168-1.89.31-2.82.439-2.586-.893-6.155-2.1-9.064-3.143-2.329-.827-4.23-1.552-4.928-1.914-.478-.245-.943-.5-1.41-.762-2.379-1.305-4.706-2.728-7.034-4.164a.7.7,0,0,1,.711-1.216c2.547,1.565,5.107,3.13,7.733,4.552.491.258.971.517,1.462.749.712.375,2.586,1.074,4.874,1.89C667.392,533.763,671.764,535.212,674.442,536.118Z" transform="translate(-648.854 -525.254)"/></g><g transform="translate(714.748 625.06)"><path class="ae" d="M676.861,518.124c-3.434,10.293-15.452,16.716-24.277,21.908a.7.7,0,0,1-.706-1.208c8.444-4.967,20.38-11.318,23.635-21.071.282-.85,1.634-.486,1.348.372Z" transform="translate(-651.541 -517.269)"/></g><path class="ac" d="M649.726,530a114.435,114.435,0,0,1,.448,27.308c.28-1.716.5-3.451.782-5.186l3.806-2.7h.019a4.635,4.635,0,0,1,1.008-.56c-1.083-3.879-2.351-10.353-.486-15.314,2.33-6.173-.374-14.829-3.171-18.69a5.611,5.611,0,0,0-1.884-1.807c-.784-.392-1.343-.373-1.7.054C647.415,514.425,648.1,519.742,649.726,530Z" transform="translate(60.129 103.884)"/><g transform="translate(582.458 588.241)"><path class="ad" d="M631.43,502.726a8.79,8.79,0,0,0,1.305.243C632.959,502.969,632.418,502.894,631.43,502.726Z" transform="translate(-536.692 -493.064)"/><g transform="translate(0 16.863)"><path class="ae" d="M580.7,553.344q.588.613,1.231,1.231a36.755,36.755,0,0,1,11.77-19.4,15.208,15.208,0,0,1,1.176-1.009c.913-.764,1.864-1.492,2.891-2.237,7.051-5.113,14.044-10.278,22.531-12.666.037,0,.056-.019.093-.019l1.232-.336c7.367-2.013,14.866-3.675,22.419-5.2l1.38-.28c5.019-1.008,10.054-1.959,15.09-2.911,5-.951,9.981-1.9,14.905-2.909.075-.149.187-.3.278-.448a.193.193,0,0,1,.093-.131c0-.037.019-.054.056-.093a15.247,15.247,0,0,1-2.386-.353c-.019.019-.019.019-.019,0a4.549,4.549,0,0,1-.485.11c-1.063.243-2.146.467-3.208.691-3.04.635-6.061,1.27-9.1,1.9-5.111,1.081-10.2,2.164-15.312,3.227-.467.093-.915.205-1.382.3-1.212.261-2.442.5-3.656.766-6.173,1.285-12.776,2.162-19.024,3.879-.448.112-.9.243-1.324.373a46.814,46.814,0,0,0-8.244,3.208A102.862,102.862,0,0,0,593.79,532.77c-.411.336-.82.691-1.212,1.044-1.38,1.176-2.687,2.407-3.9,3.638C584.24,541.983,582.132,547.449,580.7,553.344Z" transform="translate(-580.696 -506.582)"/></g><g transform="translate(15.818 32.552)"><path class="ae" d="M589.167,555.718c.3.112.614.243.932.355.112.037.205.075.318.112,2.144-4.478,4.625-8.991,7.759-12.311,4.625-4.906,12.666-8.3,18.5-11.4a144.641,144.641,0,0,1,21.973-9.141c.374-.129.766-.26,1.156-.373,7.182-2.368,14.457-4.42,21.712-6.6a.7.7,0,0,0-.372-1.344c-7.2,2.164-14.382,4.235-21.471,6.586l-1.175.39a152.721,152.721,0,0,0-25.424,10.836c-5.856,3.247-13.056,6.306-17.271,11.772A64.76,64.76,0,0,0,589.167,555.718Z" transform="translate(-589.167 -514.984)"/></g><g transform="translate(27.588 52.153)"><path class="ae" d="M595.47,550.178c.48.131.945.246,1.41.338h.026c7.772-12.44,24.789-17.418,40.164-21.041.607-.153,1.2-.3,1.8-.439,2.911-.659,5.742-1.292,8.407-1.914.271-.544.555-1.085.84-1.641-3.169.775-6.543,1.525-10.022,2.327-.583.129-1.176.26-1.772.414C620.505,531.985,603.307,537.118,595.47,550.178Z" transform="translate(-595.47 -525.481)"/></g><g transform="translate(7.479 34.003)"><path class="ae" d="M584.7,516.527a29.051,29.051,0,0,0,3.656,8.319c.243.336.486.672.747,1.006.355.467.726.915,1.119,1.363,2.612,3.1,5.8,5.875,8.6,8.691,1.455,1.475,2.928,2.948,4.42,4.4.317.3.635.6.952.913a90.711,90.711,0,0,0,7.889,6.79c.523.392,1.044.766,1.585,1.119.429.28.859.56,1.288.8,1.976,1.249,4.047,2.332,6.08,3.47.28-.224.577-.411.857-.6.149-.093.317-.187.467-.28-2.015-1.158-4.086-2.258-6.1-3.488-.43-.261-.878-.542-1.305-.84-.71-.446-1.382-.913-2.052-1.417a86.6,86.6,0,0,1-7.574-6.453c-.318-.28-.633-.579-.951-.894-1.548-1.475-3.059-2.986-4.569-4.515-2.837-2.853-5.877-5.615-8.412-8.711-.374-.467-.747-.932-1.083-1.4A24.3,24.3,0,0,1,586.622,518c-.26-.766-.484-1.511-.726-2.239-.28.168-.56.336-.84.523A3.954,3.954,0,0,0,584.7,516.527Z" transform="translate(-584.701 -515.761)"/></g><g transform="translate(38.331 23.484)"><path class="ae" d="M601.223,510.388c.243,1.473.56,2.93.915,4.366a12.86,12.86,0,0,0,.353,1.436,86.958,86.958,0,0,0,6.493,17.609c.185.411.39.8.6,1.193a83.094,83.094,0,0,0,6.566,10.763c.261.39.542.8.84,1.193,1.305,1.791,2.685,3.526,4.14,5.242.5-.149.99-.3,1.492-.448-1.511-1.716-2.909-3.47-4.233-5.26-.3-.392-.6-.784-.859-1.193a83.422,83.422,0,0,1-6.7-10.894c-.2-.392-.409-.782-.6-1.193a84.552,84.552,0,0,1-6.416-17.366,13.728,13.728,0,0,1-.355-1.455q-.532-2.1-.9-4.252C602.119,510.221,601.671,510.3,601.223,510.388Z" transform="translate(-601.223 -510.128)"/></g><g transform="translate(61.309)"><path class="ae" d="M613.531,498.223q.669,9.347,1.567,18.69,1.006,10.1,2.274,20.2c.019.094.019.187.037.28.037.355.093.71.112,1.063.486,4.123.71,8.58,2.314,12.386a12.979,12.979,0,0,0,.82,1.6,12.062,12.062,0,0,0,.747,1.249c1.025,1.569,2.218,3.04,3.264,4.588.486-.166.969-.316,1.455-.5-.913-1.548-1.94-3-2.909-4.515l-.784-1.231a20.772,20.772,0,0,1-2.312-5.2,55.55,55.55,0,0,1-1.438-8.75c-.056-.446-.093-.913-.131-1.36-.2-2.183-.372-4.347-.614-6.437q-.812-6.826-1.455-13.689c-.6-6.119-1.1-12.255-1.548-18.375C614.855,497.328,613.457,497.328,613.531,498.223Z" transform="translate(-613.528 -497.552)"/></g></g><g transform="translate(733.871 622.562)"><path class="ae" d="M661.781,544.436h.026c7.41-1.654,14.832-4.151,20.378-8.379,4.747-3.621,7.228-9.271,10.668-13.992.336-.465.685-.93,1.034-1.371a19.423,19.423,0,0,1,5.044-4.513c.091-.064.181-.116.273-.168a.586.586,0,0,1,.594,1.01,20.083,20.083,0,0,0-5.561,4.913c-4.538,5.6-7.292,12.995-13.966,16.849a51.709,51.709,0,0,1-6.982,3.337Z" transform="translate(-661.781 -515.931)"/></g></g></svg>