<svg xmlns="http://www.w3.org/2000/svg" width="435" height="365.628" viewBox="0 0 435 365.628"><defs><style>.a{fill:#f9e480;}.b{fill:#1762d0;}.c{fill:#6bf3fb;}.d{fill:none;stroke:#1762d0;stroke-miterlimit:10;stroke-width:1.267px;}.e{fill:#9bd3ec;}.f{fill:#c6e5f0;}.g{fill:#6b90dd;}.h{fill:#7fb4e0;}.i{fill:#8ecbeb;}.j{fill:#88beeb;}</style></defs><g transform="translate(-852.608 -218.346)"><rect class="a" width="435" height="365.628" rx="21.237" transform="translate(852.608 218.346)"/><g transform="translate(1046.244 263.644)"><g transform="translate(0 0)"><circle class="b" cx="37.112" cy="37.112" r="37.112" transform="translate(0.85)"/><path class="b" d="M1106.144,311.1s-5.1,22.714-55.732,40.16c0,0-22.732-36.5-14.342-63.68Z" transform="translate(-1034.211 -259.057)"/><circle class="c" cx="21.217" cy="21.217" r="21.217" transform="translate(25.453 14.334)"/></g><path class="d" d="M1050.2,345.878l-2.412,1.683a.45.45,0,0,0-.2.224c-.084.3.377.389.684.433a3.308,3.308,0,0,1,1.378.786,1.49,1.49,0,0,0,1.489.321c.724-.374.548-1.427.454-2.237a5.141,5.141,0,0,1,.994-3.643" transform="translate(-1033.325 -255.355)"/></g><g transform="translate(1055.359 513.844)"><path class="e" d="M1055.657,535.651l22.1-22.94-24.853-17.231-10.149,13.214,1.163,14.906Z" transform="translate(-1042.76 -495.48)"/><path class="f" d="M1043.922,522.779l4.478-3.7-.778-8.88-4.863-2.326Z" transform="translate(-1042.76 -494.659)"/><path class="g" d="M1077.131,512.712l-22-4.44-2.854-12.791Z" transform="translate(-1042.129 -495.48)"/><path class="h" d="M1059.452,508.385l17.5,3.532-21.259,7.717-.74-12.157,4.5.908" transform="translate(-1041.951 -494.685)"/><path class="i" d="M1054.855,534.581l.846-15.223,20.826-7.717Z" transform="translate(-1041.958 -494.409)"/><path class="j" d="M1047.32,510.225l8.14-2.749.74,12.157-8.1-.529Z" transform="translate(-1042.457 -494.685)"/></g></g></svg>