<svg xmlns="http://www.w3.org/2000/svg" width="807" height="356.134" viewBox="0 0 807 356.134">
    <defs>
        <style>
            .a{fill:#4eaf7f;}.b{fill:#f4f06f;}.c{fill:#1b242c;}.d,.j,.p{fill:none;stroke-miterlimit:10;}.d{stroke:#1b242c;stroke-width:1.142px;}.e{fill:#f5ad43;}.f,.g,.k{fill:#fff;}.f,.m{font-size:14px;}.f,.h,.k,.m{font-family:BPGArial,
            BPG
            Arial;}.h{font-size:13px;}.i{fill:#6eb0d2;}.j{stroke:#fff;stroke-width:0.943px;}.k{font-size:15px;}.l{fill:#5998f7;}.n{fill:#f7c042;}.o{font-family:BPGArial;}.p{stroke:#966a29;stroke-width:0.358px;}.q{fill:#ff0;}
        </style>
    </defs>
    <g transform="translate(-293.56 -180.504)">
        <g transform="translate(841.978 317.257)">
            <g transform="translate(142.82)">
                <path class="a"
                      d="M1069.3,333.192c-3.052,15.884-14.437,16.054-4.655,25.795,9.8,9.77,5.33,10.8,4.533,20.648s9.216,9.492,9.462,16.861-7.1,12.745-14.019,11.873c0,0,10.385,7.243,7.932,18.544s-21.871,12.938-22.989,20.837c-1.12,7.915.659,11.527,5.1,13.913,4.428,2.382-1.678,7.7-6.521,6.046s-9.88-1.552-13.44,4.453-12.8,10.382-17.1,1.949a50.615,50.615,0,0,0-4.674-7.512c-4.3-5.638-9.853-9.7-15.427-6.581l-30-40.643-.01.006-4.615-6.262s12.844-63.923,75.536-94.758q5.961-2.939,12.535-5.436S1072.339,317.279,1069.3,333.192Z"
                      transform="translate(-962.889 -312.923)"/>
                <path class="b"
                      d="M1072.411,423.889c-2.459,11.29-21.871,12.938-22.989,20.837-1.12,7.915.659,11.527,5.1,13.913,4.428,2.382-1.678,7.7-6.521,6.046s-9.88-1.552-13.44,4.453-12.8,10.382-17.1,1.949a50.615,50.615,0,0,0-4.674-7.512c-4.3-5.638-9.853-9.7-15.427-6.581l-30-40.643,97.111-11.006S1074.864,412.588,1072.411,423.889Z"
                      transform="translate(-962.742 -309.898)"/>
                <path class="c"
                      d="M1067.714,333.189c-3.047,15.894-14.438,16.054-4.649,25.8s5.325,10.792,4.526,20.639,9.216,9.492,9.468,16.872-7.105,12.735-14.026,11.863c0,0,10.391,7.253,7.932,18.544s-21.871,12.938-22.982,20.847.653,11.519,5.1,13.9-1.672,7.713-6.521,6.046-9.88-1.551-13.44,4.453-12.8,10.382-17.1,1.949a50.539,50.539,0,0,0-4.674-7.512c3.688-8.737,14.786-21.907,22.512-25.937,9.665-5.065,18.856-8.123,17.071-21.493s-2.224-12.687,6.141-25.444-.124-14.814-8.765-28.251-1.615-15.174.682-28.812c1.374-8.112-5.971-14.475-12.153-18.3,3.98-1.949,8.145-3.775,12.535-5.435C1049.368,312.923,1070.753,317.285,1067.714,333.189Z"
                      transform="translate(-961.303 -312.923)"/>
                <circle class="c" cx="9.558" cy="9.558" r="9.558" transform="translate(38.537 110.753)"/>
                <circle class="b" cx="18.201" cy="18.201" r="18.201" transform="translate(31.698 43.582)"/>
                <circle class="c" cx="10.534" cy="10.534" r="10.534" transform="translate(39.365 51.249)"/>
            </g>
            <g transform="translate(0 104.033)">
                <path class="a"
                      d="M835.354,475.646c15.528,4.529,20.872-5.526,25.078,7.623,4.225,13.178,7.182,9.671,16.309,13.451s4.243,12.531,10.69,16.112,14.58-.506,16.961-7.062c0,0,1.709,12.546,12.884,15.517s21.489-13.562,29.029-10.953,9.959,5.844,10.054,10.887c.1,5.026,7.622,2.019,8.356-3.047s3.124-9.5,10.092-9.929,15.079-6.658,9.533-14.328a50.515,50.515,0,0,1-4.553-7.586c-3.054-6.4-4.135-13.191,1.18-16.73l-22.488-45.233.01-.006-3.468-6.963s-62.746-17.726-118.781,24q-5.333,3.964-10.555,8.676S819.808,471.087,835.354,475.646Z"
                      transform="translate(-824.596 -413.658)"/>
                <path class="b"
                      d="M914.746,520.947c11.169,2.962,21.489-13.562,29.029-10.953s9.959,5.844,10.054,10.887c.1,5.026,7.622,2.019,8.356-3.047s3.124-9.5,10.092-9.929,15.079-6.658,9.533-14.328a50.515,50.515,0,0,1-4.553-7.586c-3.054-6.4-4.135-13.191,1.18-16.73l-22.488-45.233-54.087,81.4S903.571,517.976,914.746,520.947Z"
                      transform="translate(-822.067 -413.319)"/>
                <path class="c"
                      d="M835.354,474.76c15.534,4.538,20.872-5.526,25.084,7.632s7.176,9.66,16.3,13.442,4.243,12.53,10.7,16.121,14.574-.515,16.954-7.071c0,0,1.715,12.555,12.884,15.517s21.489-13.563,29.035-10.944,9.952,5.834,10.048,10.877,7.627,2.029,8.355-3.046,3.124-9.5,10.093-9.93,15.078-6.657,9.532-14.328a50.46,50.46,0,0,1-4.552-7.585c-9.458-.7-26.241,3.166-33.351,8.2-8.914,6.291-15.829,13.074-26.913,5.389s-10.276-7.766-25.444-6.141-13.127-6.866-21.144-20.685-12.767-8.359-25.951-12.535c-7.846-2.478-10.158-11.917-10.743-19.162-3.549,2.653-7.074,5.526-10.555,8.676C825.685,449.19,819.814,470.211,835.354,474.76Z"
                      transform="translate(-824.596 -412.779)"/>
                <circle class="c" cx="9.558" cy="9.558" r="9.558" transform="translate(116.831 46.157)"/>
                <circle class="b" cx="18.201" cy="18.201" r="18.201" transform="translate(55.279 12.424)"/>
                <circle class="c" cx="10.534" cy="10.534" r="10.534" transform="translate(62.946 20.091)"/>
            </g>
            <ellipse class="c" cx="12.703" cy="57.347" rx="12.703" ry="57.347"
                     transform="translate(113.39 89.281) rotate(-31.432)"/>
            <path class="d" d="M949.765,399.178s-31.4-41.637-11.049-80.024" transform="translate(-821.085 -312.719)"/>
            <path class="d" d="M948.554,399.786s-22.731-46.937-66.175-46.333" transform="translate(-822.705 -311.596)"/>
            <path class="d" d="M951.063,388.911" transform="translate(-820.456 -310.436)"/>
            <path class="d" d="M938.468,396.609" transform="translate(-820.869 -310.184)"/>
        </g>
        <g transform="translate(293.56 180.504)">
            <g transform="translate(23.665 123.471)">
                <path class="e"
                      d="M468.467,300.426l-103.457-.343-8.848,8.517L341,308.582l-9.463-8.225-11.1-.013a5.585,5.585,0,0,1-.938-.282,3.306,3.306,0,0,0-2.974,3.279l-.051,42.405a3.317,3.317,0,0,0,3.313,3.321l27.231.032c3.105,2.7,6.189,5.954,9.295,8.652l15.165.019c2.8-2.691,5.057-5.384,7.853-8.075l89.077-.23a3.316,3.316,0,0,0,3.32-3.313l.052-42.405A3.317,3.317,0,0,0,468.467,300.426Z"
                      transform="translate(-316.475 -300.062)"/>
                <text class="f" transform="translate(45.365 30.339)">
                    <tspan x="-19.653" y="0">repeat</tspan>
                </text>
                <g transform="translate(75.738 8.947)">
                    <rect class="g" width="39.444" height="33.023" rx="15.988"/>
                    <text class="h" transform="translate(19.593 21.125)">
                        <tspan x="-3.615" y="0">4</tspan>
                    </text>
                </g>
            </g>
            <path class="e"
                  d="M316.06,341.645v58.778a3.755,3.755,0,0,0,3.755,3.755h28.02l-.457-5.669H334.053a2.745,2.745,0,0,1-2.746-2.745v-45.02A2.745,2.745,0,0,1,334.053,348h13.474l-8.381-6.354Z"
                  transform="translate(-292.823 -175.229)"/>
            <path class="e"
                  d="M300.559,293.212v219.5a3.85,3.85,0,0,0,3.937,3.756h29.375l-.48-5.669H319.422a2.814,2.814,0,0,1-2.878-2.746V302.312a2.814,2.814,0,0,1,2.878-2.746h14.125l-8.784-6.354Z"
                  transform="translate(-293.331 -176.815)"/>
            <g transform="translate(7.228 73.739)">
                <path class="e"
                      d="M629.9,251.906H349.489q-4.46,4.3-8.921,8.608H325.263l-9.561-8.289H304.5a5.689,5.689,0,0,1-.947-.283,3.336,3.336,0,0,0-3,3.312v42.8a3.347,3.347,0,0,0,3.348,3.347h27.484c3.137,2.72,6.253,6,9.391,8.72h15.305c2.819-2.719,5.1-5.439,7.916-8.159l265.9-.562a3.347,3.347,0,0,0,3.347-3.347v-42.8A3.348,3.348,0,0,0,629.9,251.906Z"
                      transform="translate(-300.559 -251.906)"/>
                <text class="f" transform="translate(49.75 30.458)">
                    <tspan x="-34.439" y="0">repeat until</tspan>
                </text>
                <path class="i" d="M602.542,260.781H417.482l-20.124,15.441,20.124,15.441h185.06l20.124-15.441Z"
                      transform="translate(-297.391 -251.615)"/>
                <text class="f" transform="translate(150.565 29.822)">
                    <tspan x="-28.465" y="0">touching</tspan>
                </text>
                <text class="f" transform="translate(299.055 28.682)">
                    <tspan x="-3.893" y="0">?</tspan>
                </text>
                <g transform="translate(193.245 13.557)">
                    <rect class="j" width="97.746" height="22.517" rx="10.279"/>
                    <path class="g" d="M562.246,275.151h10.223l-4.863,4.864Z" transform="translate(-485.238 -264.702)"/>
                    <text class="k" transform="translate(41.002 16.069)">
                        <tspan x="-16.685" y="0">edge</tspan>
                    </text>
                </g>
            </g>
            <g transform="translate(38.687 172.68)">
                <path class="l"
                      d="M504.994,347.711H380.468q-4.506,4.35-9.015,8.7H355.985l-9.661-8.376H335.007a5.744,5.744,0,0,1-.957-.286,3.37,3.37,0,0,0-3.029,3.347v43.252a3.382,3.382,0,0,0,3.382,3.382h12.072l9.51,8.246h15.468L380,397.728H504.994a3.383,3.383,0,0,0,3.383-3.382V351.094A3.384,3.384,0,0,0,504.994,347.711Z"
                      transform="translate(-331.021 -347.711)"/>
                <text class="f" transform="translate(23.057 30.785)">
                    <tspan x="-17.172" y="0">move</tspan>
                </text>
                <text class="f" transform="translate(133.79 29.334)">
                    <tspan x="-16.536" y="0">steps</tspan>
                </text>
                <rect class="g" width="41.56" height="34.795" rx="16.846" transform="translate(52.917 7.088)"/>
                <text class="m" transform="translate(73.435 29.334)">
                    <tspan x="-7.786" y="0">10</tspan>
                </text>
            </g>
            <g transform="translate(20.703 256.642)">
                <path class="l"
                      d="M487.58,429.012H363.054l-9.015,8.7H338.572l-9.662-8.376H317.593a5.761,5.761,0,0,1-.957-.287,3.372,3.372,0,0,0-3.029,3.347v43.252a3.383,3.383,0,0,0,3.382,3.383h12.072l9.511,8.245h15.467l8.546-8.245H487.58a3.384,3.384,0,0,0,3.383-3.383V432.394A3.383,3.383,0,0,0,487.58,429.012Z"
                      transform="translate(-313.607 -429.012)"/>
                <text class="f" transform="translate(72.319 30.784)">
                    <tspan x="-57.712" y="0">if on edge, bounce</tspan>
                </text>
            </g>
            <g transform="translate(7.228 7.229)">
                <path class="n"
                      d="M581.243,203.364H398.776a88.138,88.138,0,0,0-50.728-15.857c-23.761.2-40.229,13.011-46.9,17.439-.031.023-.056.05-.1.083a3.357,3.357,0,0,0-.491,1.746v43.61a3.411,3.411,0,0,0,3.411,3.411h12.172l9.59,8.313h15.6l8.617-8.313h231.3a3.41,3.41,0,0,0,3.41-3.411v-43.61A3.41,3.41,0,0,0,581.243,203.364Z"
                      transform="translate(-300.559 -187.504)"/>
                <text class="k" transform="translate(30.495 43.809)">
                    <tspan x="-17.93" y="0">when</tspan>
                    <tspan class="o">
                        <tspan x="0" y="18"></tspan>
                    </tspan>
                </text>
                <text class="f" transform="translate(103.587 42.809)">
                    <tspan x="-18.484" y="0">space</tspan>
                </text>
                <text class="k" transform="translate(227.299 45.109)">
                    <tspan x="-40.228" y="0">key pressed</tspan>
                    <tspan class="o">
                        <tspan x="0" y="18"></tspan>
                    </tspan>
                </text>
                <rect class="p" width="108.505" height="28.453" rx="4.76" transform="translate(61.145 25.428)"/>
                <path class="g" d="M442.33,222.37h15.332l-7.294,7.294Z" transform="translate(-295.918 -186.363)"/>
            </g>
            <g transform="translate(23.169 222.677)">
                <path class="e"
                      d="M497.852,396.123H381.494l-9.612,9.274H356.761l-10.3-8.931H333.67c-.247-.047-14.038-.146-14.446-.306a3.594,3.594,0,0,0-3.229,3.569v26.327a3.606,3.606,0,0,0,3.606,3.606h8.739l10.368,8.792H355.2l9.112-8.792H497.852a3.606,3.606,0,0,0,3.606-3.606V399.729A3.606,3.606,0,0,0,497.852,396.123Z"
                      transform="translate(-315.995 -396.123)"/>
                <g transform="translate(144.941 8.324)">
                    <path class="g" d="M469.24,404.183l-6.482,7.763h12.964Z" transform="translate(-456.132 -404.183)"/>
                    <path class="g" d="M472.082,410.87a8.495,8.495,0,0,1-15.74,4.435,6.246,6.246,0,0,0,10.628-4.435Z"
                          transform="translate(-456.342 -403.964)"/>
                </g>
            </g>
            <path class="e"
                  d="M603.43,477.8H363.347l-9.508,9.175H338.881l-10.19-8.835H316.039a6.009,6.009,0,0,1-1.009-.3,3.556,3.556,0,0,0-3.2,3.53v26.042a3.568,3.568,0,0,0,3.568,3.568h12.73l10.255,8.7H354.7q4.506-4.348,9.013-8.7H603.43A3.568,3.568,0,0,0,607,507.412V481.37A3.568,3.568,0,0,0,603.43,477.8Z"
                  transform="translate(-292.962 -170.773)"/>
            <path class="g" d="M577.214,486.291l-6.482,7.763H583.7Z" transform="translate(-284.487 -170.495)"/>
            <path class="q"
                  d="M630.129,247.014H592.112V207a10.651,10.651,0,0,0-10.639-10.64H401.219a95.911,95.911,0,0,0-52.2-15.86l-.8,0c-23.916.2-40.842,11.808-48.977,17.384-.687.471-1.306.9-1.855,1.261l-.148.1s-.27.2-.332.25l-1.036.739-.771,1.272A10.6,10.6,0,0,0,293.56,207v43.61a10.558,10.558,0,0,0,.6,3.489,10.532,10.532,0,0,0-.6,3.489V516.4a11.089,11.089,0,0,0,11.166,10.985h7.88a10.738,10.738,0,0,0,3.4.555H326.08l10.255,8.7h21.884l9.014-8.7h236.8a10.809,10.809,0,0,0,10.8-10.8V491.1a10.809,10.809,0,0,0-10.8-10.8H498.849V443.937a10.842,10.842,0,0,0,10.574-10.822v-23.18a10.63,10.63,0,0,0,7.41-10.116V356.567a10.625,10.625,0,0,0-10.612-10.612H479.713l.042-34.672,150.373-.317A10.588,10.588,0,0,0,640.7,300.39v-42.8A10.589,10.589,0,0,0,630.129,247.014Z"
                  transform="translate(-293.56 -180.504)"/>
            <path class="g" d="M580.056,492.978a8.495,8.495,0,0,1-15.74,4.435,6.246,6.246,0,0,0,10.628-4.435Z"
                  transform="translate(-284.697 -170.276)"/>
            <g transform="translate(7.228 7.229)">
                <g transform="translate(16.437 116.242)">
                    <path class="e"
                          d="M468.467,300.426l-103.457-.343-8.848,8.517L341,308.582l-9.463-8.225-11.1-.013a5.585,5.585,0,0,1-.938-.282,3.306,3.306,0,0,0-2.974,3.279l-.051,42.405a3.317,3.317,0,0,0,3.313,3.321l27.231.032c3.105,2.7,6.189,5.954,9.295,8.652l15.165.019c2.8-2.691,5.057-5.384,7.853-8.075l89.077-.23a3.316,3.316,0,0,0,3.32-3.313l.052-42.405A3.317,3.317,0,0,0,468.467,300.426Z"
                          transform="translate(-316.475 -300.062)"/>
                    <text class="f" transform="translate(45.365 30.339)">
                        <tspan x="-19.653" y="0">repeat</tspan>
                    </text>
                    <g transform="translate(75.738 8.947)">
                        <rect class="g" width="39.444" height="33.023" rx="15.988"/>
                        <text class="h" transform="translate(19.593 21.125)">
                            <tspan x="-3.615" y="0">4</tspan>
                        </text>
                    </g>
                </g>
                <path class="e"
                      d="M316.06,341.645v58.778a3.755,3.755,0,0,0,3.755,3.755h28.02l-.457-5.669H334.053a2.745,2.745,0,0,1-2.746-2.745v-45.02A2.745,2.745,0,0,1,334.053,348h13.474l-8.381-6.354Z"
                      transform="translate(-300.052 -182.458)"/>
                <path class="e"
                      d="M300.559,293.212v219.5a3.85,3.85,0,0,0,3.937,3.756h29.375l-.48-5.669H319.422a2.814,2.814,0,0,1-2.878-2.746V302.312a2.814,2.814,0,0,1,2.878-2.746h14.125l-8.784-6.354Z"
                      transform="translate(-300.559 -184.044)"/>
                <g transform="translate(0 66.51)">
                    <path class="e"
                          d="M629.9,251.906H349.489q-4.46,4.3-8.921,8.608H325.263l-9.561-8.289H304.5a5.689,5.689,0,0,1-.947-.283,3.336,3.336,0,0,0-3,3.312v42.8a3.347,3.347,0,0,0,3.348,3.347h27.484c3.137,2.72,6.253,6,9.391,8.72h15.305c2.819-2.719,5.1-5.439,7.916-8.159l265.9-.562a3.347,3.347,0,0,0,3.347-3.347v-42.8A3.348,3.348,0,0,0,629.9,251.906Z"
                          transform="translate(-300.559 -251.906)"/>
                    <text class="f" transform="translate(49.75 30.458)">
                        <tspan x="-34.439" y="0">repeat until</tspan>
                    </text>
                    <path class="i" d="M602.542,260.781H417.482l-20.124,15.441,20.124,15.441h185.06l20.124-15.441Z"
                          transform="translate(-297.391 -251.615)"/>
                    <text class="f" transform="translate(150.565 29.822)">
                        <tspan x="-28.465" y="0">touching</tspan>
                    </text>
                    <text class="f" transform="translate(299.055 28.682)">
                        <tspan x="-3.893" y="0">?</tspan>
                    </text>
                    <g transform="translate(193.245 13.557)">
                        <rect class="j" width="97.746" height="22.517" rx="10.279"/>
                        <path class="g" d="M562.246,275.151h10.223l-4.863,4.864Z"
                              transform="translate(-485.238 -264.702)"/>
                        <text class="k" transform="translate(41.002 16.069)">
                            <tspan x="-16.685" y="0">edge</tspan>
                        </text>
                    </g>
                </g>
                <g transform="translate(31.459 165.451)">
                    <path class="l"
                          d="M504.994,347.711H380.468q-4.506,4.35-9.015,8.7H355.985l-9.661-8.376H335.007a5.744,5.744,0,0,1-.957-.286,3.37,3.37,0,0,0-3.029,3.347v43.252a3.382,3.382,0,0,0,3.382,3.382h12.072l9.51,8.246h15.468L380,397.728H504.994a3.383,3.383,0,0,0,3.383-3.382V351.094A3.384,3.384,0,0,0,504.994,347.711Z"
                          transform="translate(-331.021 -347.711)"/>
                    <text class="f" transform="translate(23.057 30.785)">
                        <tspan x="-17.172" y="0">move</tspan>
                    </text>
                    <text class="f" transform="translate(133.79 29.334)">
                        <tspan x="-16.536" y="0">steps</tspan>
                    </text>
                    <rect class="g" width="41.56" height="34.795" rx="16.846" transform="translate(52.917 7.088)"/>
                    <text class="m" transform="translate(73.435 29.334)">
                        <tspan x="-7.786" y="0">10</tspan>
                    </text>
                </g>
                <g transform="translate(13.475 249.413)">
                    <path class="l"
                          d="M487.58,429.012H363.054l-9.015,8.7H338.572l-9.662-8.376H317.593a5.761,5.761,0,0,1-.957-.287,3.372,3.372,0,0,0-3.029,3.347v43.252a3.383,3.383,0,0,0,3.382,3.383h12.072l9.511,8.245h15.467l8.546-8.245H487.58a3.384,3.384,0,0,0,3.383-3.383V432.394A3.383,3.383,0,0,0,487.58,429.012Z"
                          transform="translate(-313.607 -429.012)"/>
                    <text class="f" transform="translate(72.319 30.784)">
                        <tspan x="-57.712" y="0">if on edge, bounce</tspan>
                    </text>
                </g>
                <path class="n"
                      d="M581.243,203.364H398.776a88.138,88.138,0,0,0-50.728-15.857c-23.761.2-40.229,13.011-46.9,17.439-.031.023-.056.05-.1.083a3.357,3.357,0,0,0-.491,1.746v43.61a3.411,3.411,0,0,0,3.411,3.411h12.172l9.59,8.313h15.6l8.617-8.313h231.3a3.41,3.41,0,0,0,3.41-3.411v-43.61A3.41,3.41,0,0,0,581.243,203.364Z"
                      transform="translate(-300.559 -187.504)"/>
                <text class="k" transform="translate(30.495 43.809)">
                    <tspan x="-17.93" y="0">when</tspan>
                    <tspan class="o">
                        <tspan x="0" y="18"></tspan>
                    </tspan>
                </text>
                <text class="f" transform="translate(103.587 42.809)">
                    <tspan x="-18.484" y="0">space</tspan>
                </text>
                <text class="k" transform="translate(227.299 45.109)">
                    <tspan x="-40.228" y="0">key pressed</tspan>
                    <tspan class="o">
                        <tspan x="0" y="18"></tspan>
                    </tspan>
                </text>
                <rect class="p" width="108.505" height="28.453" rx="4.76" transform="translate(61.145 25.428)"/>
                <path class="g" d="M442.33,222.37h15.332l-7.294,7.294Z" transform="translate(-295.918 -186.363)"/>
                <g transform="translate(15.941 215.448)">
                    <path class="e"
                          d="M497.852,396.123H381.494l-9.612,9.274H356.761l-10.3-8.931H333.67c-.247-.047-14.038-.146-14.446-.306a3.594,3.594,0,0,0-3.229,3.569v26.327a3.606,3.606,0,0,0,3.606,3.606h8.739l10.368,8.792H355.2l9.112-8.792H497.852a3.606,3.606,0,0,0,3.606-3.606V399.729A3.606,3.606,0,0,0,497.852,396.123Z"
                          transform="translate(-315.995 -396.123)"/>
                    <g transform="translate(144.941 8.324)">
                        <path class="g" d="M469.24,404.183l-6.482,7.763h12.964Z"
                              transform="translate(-456.132 -404.183)"/>
                        <path class="g"
                              d="M472.082,410.87a8.495,8.495,0,0,1-15.74,4.435,6.246,6.246,0,0,0,10.628-4.435Z"
                              transform="translate(-456.342 -403.964)"/>
                    </g>
                </g>
                <g transform="translate(11.645 299.8)">
                    <path class="e"
                          d="M603.43,477.8H363.347l-9.508,9.175H338.881l-10.19-8.835H316.039a6.009,6.009,0,0,1-1.009-.3,3.556,3.556,0,0,0-3.2,3.53v26.042a3.568,3.568,0,0,0,3.568,3.568h12.73l10.255,8.7H354.7q4.506-4.348,9.013-8.7H603.43A3.568,3.568,0,0,0,607,507.412V481.37A3.568,3.568,0,0,0,603.43,477.8Z"
                          transform="translate(-311.835 -477.802)"/>
                    <g transform="translate(260.745 8.767)">
                        <path class="g" d="M577.214,486.291l-6.482,7.763H583.7Z"
                              transform="translate(-564.106 -486.291)"/>
                        <path class="g"
                              d="M580.056,492.978a8.495,8.495,0,0,1-15.74,4.435,6.246,6.246,0,0,0,10.628-4.435Z"
                              transform="translate(-564.316 -486.072)"/>
                    </g>
                </g>
            </g>
        </g>
    </g>
</svg>
