<svg xmlns="http://www.w3.org/2000/svg" width="900" height="388.604" viewBox="0 0 900 388.604">
    <defs>
        <style>
            .a{fill:#f5ad43;}.b,.e,.f,.h,.j,.m,.p{fill:#fff;}.b{font-size:14.38px;}.b,.f,.h,.i,.j,.k,.m,.p,.q,.r{font-family:BPGArial,
            BPG
            Arial;}.c{fill:#6eb0d2;}.d,.o{fill:none;}.d{stroke:#fff;stroke-width:0.943px;}.d,.o,.t{stroke-miterlimit:10;}.f{font-size:15.326px;}.g{fill:#5998f7;}.h,.i{font-size:15.051px;}.j,.k{font-size:14.532px;}.l{fill:#f7c042;}.m{font-size:14.653px;}.n{font-family:BPGArial;}.o{stroke:#966a29;stroke-width:0.358px;}.p,.q{font-size:15.144px;}.r{font-size:14.836px;}.s,.t,.v{fill:#bc1e2d;}.s{opacity:0.33;}.t{stroke:#333;stroke-width:0.856px;}.u{fill:#999;}.w{fill:#e3e4e5;}.x{fill:#1a1a1a;}.y{fill:#333;}
        </style>
    </defs>
    <g transform="translate(-233 -249)">
        <g transform="translate(62.362 91.724)">
            <path class="a"
                  d="M507.036,504.99H234.562l-9.207,8.883H210.872l-9.867-8.554H188.754a5.836,5.836,0,0,1-.977-.293,3.443,3.443,0,0,0-3.094,3.418v25.218a3.455,3.455,0,0,0,3.455,3.455h12.327l9.931,8.42h15.795l8.727-8.42H507.036a3.455,3.455,0,0,0,3.455-3.455V508.444A3.454,3.454,0,0,0,507.036,504.99Z"/>
            <path class="a"
                  d="M171.683,314.238V533.781a3.637,3.637,0,0,0,3.637,3.636h27.132l-.443-5.488h-12.9a2.659,2.659,0,0,1-2.658-2.659V323.049a2.658,2.658,0,0,1,2.658-2.658h13.048l-8.115-6.153Z"/>
            <path class="a"
                  d="M490.585,271.874H219.063l-8.639,8.334H195.6l-9.258-8.026H175.5a5.536,5.536,0,0,1-.917-.274,3.23,3.23,0,0,0-2.9,3.207v41.442a3.242,3.242,0,0,0,3.242,3.241h26.613c3.038,2.634,6.055,5.811,9.093,8.445h14.82c2.73-2.634,4.936-5.267,7.665-7.9l257.469-.544a3.241,3.241,0,0,0,3.241-3.241V275.115A3.241,3.241,0,0,0,490.585,271.874Z"/>
            <text class="b" transform="translate(221.934 301.778)">
                <tspan x="-35.374" y="0">repeat until</tspan>
            </text>
            <path class="c" d="M467.163,280.749H287.968L268.482,295.7l19.486,14.952H467.163L486.649,295.7Z"/>
            <text class="b" transform="translate(319.363 301.162)">
                <tspan x="-29.237" y="0">touching</tspan>
            </text>
            <text class="b" transform="translate(461.387 300.058)">
                <tspan x="-3.999" y="0">?</tspan>
            </text>
            <rect class="d" width="94.648" height="21.803" rx="10.279" transform="translate(358.803 285.001)"/>
            <path class="e" d="M433.37,295.119h9.9l-4.709,4.709Z"/>
            <text class="f" transform="translate(399.045 301.004)">
                <tspan x="-17.048" y="0">edge</tspan>
            </text>
            <path class="g"
                  d="M345.111,222.327H220.228l-9.041,8.724H195.675l-9.69-8.4H174.636a5.72,5.72,0,0,1-.96-.287,3.381,3.381,0,0,0-3.038,3.357V269.1a3.392,3.392,0,0,0,3.392,3.392h12.106l9.539,8.27h15.512l8.57-8.27H345.111A3.392,3.392,0,0,0,348.5,269.1V225.72A3.393,3.393,0,0,0,345.111,222.327Z"/>
            <text class="h" transform="translate(232.355 253.627)">
                <tspan x="-54.711" y="0">point in direction</tspan>
            </text>
            <rect class="e" width="41.68" height="34.895" rx="17.447" transform="translate(292.707 229.436)"/>
            <text class="i" transform="translate(313.547 252.172)">
                <tspan x="-4.185" y="0">0</tspan>
            </text>
            <path class="g"
                  d="M355.1,320.3H234.525q-4.365,4.212-8.729,8.423H210.818l-9.355-8.111H190.5a5.582,5.582,0,0,1-.926-.277,3.264,3.264,0,0,0-2.933,3.241v41.881a3.275,3.275,0,0,0,3.275,3.275h11.689l9.209,7.985H225.8l8.275-7.985H355.1a3.276,3.276,0,0,0,3.276-3.275V323.58A3.276,3.276,0,0,0,355.1,320.3Z"/>
            <text class="j" transform="translate(210.509 350.525)">
                <tspan x="-17.825" y="0">move</tspan>
            </text>
            <text class="j" transform="translate(316.733 349.121)">
                <tspan x="-17.165" y="0">steps</tspan>
            </text>
            <rect class="e" width="40.243" height="33.692" rx="16.846" transform="translate(237.884 327.168)"/>
            <text class="k" transform="translate(258.005 349.121)">
                <tspan x="-8.082" y="0">10</tspan>
            </text>
            <path class="l"
                  d="M442.425,172.633H265.741a85.341,85.341,0,0,0-49.12-15.354c-23.008.2-38.953,12.6-45.41,16.886-.029.022-.054.048-.1.08a3.251,3.251,0,0,0-.475,1.691v42.228a3.3,3.3,0,0,0,3.3,3.3h11.785l9.286,8.05h15.1l8.343-8.05H442.425a3.3,3.3,0,0,0,3.3-3.3V175.936A3.3,3.3,0,0,0,442.425,172.633Z"/>
            <text class="m" transform="translate(200.737 199.141)">
                <tspan x="-17.515" y="0">when</tspan>
                <tspan class="n">
                    <tspan x="0" y="17.583"></tspan>
                </tspan>
            </text>
            <text class="m" transform="translate(272.512 199.141)">
                <tspan x="-19.346" y="0">space</tspan>
            </text>
            <text class="m" transform="translate(391 200.399)">
                <tspan x="-39.297" y="0">key pressed</tspan>
                <tspan class="n">
                    <tspan x="0" y="17.583"></tspan>
                </tspan>
            </text>
            <rect class="o" width="105.066" height="27.551" rx="4.76" transform="translate(229.844 181.898)"/>
            <path class="e" d="M312.409,192.142h14.847l-7.063,7.063Z"/>
            <path class="a"
                  d="M186.055,413.652V504.99h32.794l-.472-5.85H204.625a2.834,2.834,0,0,1-2.834-2.834V423.044a2.834,2.834,0,0,1,2.834-2.834h13.906l-8.649-6.558Z"/>
            <path class="g"
                  d="M407.971,421.632H251.694l-9.1,8.778H226.99l-9.75-8.452H205.821a5.875,5.875,0,0,1-.966-.29,3.4,3.4,0,0,0-3.057,3.378V468.69a3.413,3.413,0,0,0,3.414,3.413h12.18l9.6,8.321H242.6l8.624-8.321h156.75a3.413,3.413,0,0,0,3.413-3.413V425.046A3.414,3.414,0,0,0,407.971,421.632Z"/>
            <text class="p" transform="translate(226.667 453.124)">
                <tspan x="-13.048" y="0">turn</tspan>
            </text>
            <text class="p" transform="translate(367.985 451.662)">
                <tspan x="-27.363" y="0">degrees</tspan>
            </text>
            <rect class="e" width="41.937" height="35.11" rx="17.555" transform="translate(279.692 428.785)"/>
            <text class="q" transform="translate(300.662 451.662)">
                <tspan x="-8.422" y="0">90</tspan>
            </text>
            <path class="e" d="M267.865,444.992l-8.785,4.768,2.528-12.562Z"/>
            <path class="e" d="M261.687,441.1a8.4,8.4,0,0,0-7.366,14.387,6.174,6.174,0,0,1,6.369-9.433Z"/>
            <path class="a"
                  d="M363.615,370.054l-127.76-.358-9.217,8.873-15.8-.019-9.857-8.567-11.557-.013a5.95,5.95,0,0,1-.977-.294,3.443,3.443,0,0,0-3.1,3.414l-.053,44.17a3.456,3.456,0,0,0,3.451,3.459l28.364.034c3.235,2.811,6.447,6.2,9.681,9.012l15.8.019c2.913-2.8,5.267-5.608,8.179-8.411l112.783-.24a3.454,3.454,0,0,0,3.459-3.45l.053-44.17A3.456,3.456,0,0,0,363.615,370.054Z"/>
            <text class="f" transform="translate(233.234 401.72)">
                <tspan x="-21.515" y="0">repeat</tspan>
            </text>
            <rect class="e" width="41.085" height="34.397" rx="17.198" transform="translate(264.189 378.995)"/>
            <text class="r" transform="translate(284.733 401.408)">
                <tspan x="-4.126" y="0">4</tspan>
            </text>
            <path class="a"
                  d="M377.249,472.488H251.579l-9.307,8.981H227.63l-9.975-8.648H205.27a5.919,5.919,0,0,1-.987-.3,3.481,3.481,0,0,0-3.128,3.456v25.493a3.493,3.493,0,0,0,3.492,3.492H200.11l10.038,8.513h15.969l8.822-8.513h142.31a3.493,3.493,0,0,0,3.492-3.492V475.981A3.493,3.493,0,0,0,377.249,472.488Z"/>
            <path class="e" d="M360.458,480.549l-6.277,7.517h12.553Z"/>
            <path class="e" d="M363.006,487.235a8.226,8.226,0,0,1-15.241,4.3,6.048,6.048,0,0,0,10.29-4.3Z"/>
            <path class="e" d="M489.857,513.479,483.58,521h12.553Z"/>
            <path class="e" d="M492.4,520.165a8.226,8.226,0,0,1-15.241,4.3,6.049,6.049,0,0,0,10.291-4.3Z"/>
        </g>
        <g transform="translate(-120.405 -23.656)">
            <ellipse class="s" cx="93.451" cy="19.893" rx="93.451" ry="19.893" transform="translate(990.151 621.474)"/>
            <path class="t"
                  d="M1177.625,500.256A56.667,56.667,0,0,1,1163,518.822a13.1,13.1,0,0,0-4.23,5.667c-2.227,6.478-5.745,12.943-10.826,16.68-6.428,4.728-10.4,12.13-17.9,15.4-1.057.462-2.033,1.87-3.133,1.3-1.687-.871-.022-2.415-.21-3.654-.065-.426-.131-.852-.283-1.834a75.574,75.574,0,0,1-26.869,11.376c4.3,3.459,4.441,9.54,10.007,11.209.313.094.756.878.649,1.074-1.341,2.457-1.8,5.426-3.873,7.431-1.908,1.845-4.122,1.126-6.165.087-1.268-.644-2.439-1.477-3.927-2.393-1.206,2.458-.284,4.811.128,6.974,1.054,5.54,1.02,11.328,3.613,16.541,1.219,2.45-.6,3.383-2.377,3.866-2.167.59-4.557,1.374-6.658,1-5.654-1.013-11.247.018-16.859-.152-3.146-.095-4.641-.887-4.3-4.875a96.728,96.728,0,0,0-.587-18.037c-.393-3.777-1.959-4.119-4.766-1.744-4.315,3.65-6.424,2.888-9.416-1.693-2.159-3.306-2.691-4.821.808-7.719,2.5-2.075,3.289-6.222,5.009-9.793-9.365-.964-18.1-3.371-26.88-6.156.206,5.934,5.268,5.964,8.759,8-6.375,2.261-14.843.41-18.732-5.478-3.666-5.551-9.937-7.09-14.171-11.475a1.459,1.459,0,0,0-2.048-.075c-2.17,1.923-2.151,1.947-4.256.179-8.4-7.056-14.723-15.412-16.426-26.589a7.122,7.122,0,0,0-3.655-4.736c-7.956-4.784-11.927-12.812-17.076-19.892,2.678-1.056,3.476,1.23,4.426,2.739a67.184,67.184,0,0,0,7.392,9.082c1.685,1.863,2.705,1.546,3.289-.733,1.745-6.806,1.321-13.473-2.545-19.417-2.548-3.918-5.215-7.779-6.94-12.085-2.181-5.444-6.189-8.745-11.23-11.115-1.7-.8-3.858-2.47-5.293-1.221-1.345,1.171.761,3.174,1.009,4.887.631,4.353,4.412,8.019,2.8,12.859-4.524-8.177-6.689-17.194-9.154-26.088-.772-2.783.757-3.874,3.532-3.35,12.162,2.3,22.473,7.549,29.367,18.295a2.08,2.08,0,0,0,.254.374c1.462,1.435,2.5,4.3,4.619,3.774,2.092-.52,1.053-3.348,1.21-5.139.747-8.51,1.838-16.894,5.235-24.88,2.459-5.781,6.684-10.206,10.434-15.025,1.547-1.988,2.823-4.193,4.42-6.137,3.07-3.739,7.08-6.392,10.94-9.237,10.34-7.622,21.047-14.674,31.9-21.54,16.445-10.4,24.515-25.708,25.18-45.034.087-2.533.012-5.072.012-8.667,7.741,7.22,11.4,16.015,15.6,25.581.321-2.575.516-4.148.73-5.86,2.178.713,1.969,2.486,2.527,3.744,3.8,8.587,6.807,17.725,12.806,25.007,4.469,5.426,9.032,10.987,15.217,14.9,6.038,3.821,9.725,10.009,14.215,15.4,9.726,11.69,16.182,25.152,22,39,1.4,3.34,2.44,6.833,3.825,10.765a37.141,37.141,0,0,1,16.928-12.325c3.651-1.289,7.472-2.107,11.237-3.056,3.3-.831,3.779.3,2.932,3.5a229.288,229.288,0,0,1-10.481,30.154c-3.515.591-1.5-1.541-1.144-2.54,2.372-6.6,4.841-13.159,7.525-20.4-7.039,2.141-13.328,4.24-16.436,10.819-2.516,5.326-5.822,10.153-8.67,15.255-3.816,6.839-3.884,14.128-1.122,21.8a70.506,70.506,0,0,0,9.376-11.031C1175.028,501.327,1175.275,498.958,1177.625,500.256Zm-164.353,22.019-.579,1.181a13.833,13.833,0,0,0,.39,2.178c2.959,8.56,8.475,14.6,16.446,19.212,11.509,6.661,24.028,10.478,36.734,12.7a74.53,74.53,0,0,0,30.038-1.377c15.544-3.761,29.156-10.59,37.1-25.5.968-1.818,2.252-3.612,1.932-6.255-3.233,1.893-4.767,5.108-7.819,6.512-.662.3-1.238,1.085-1.986.665-.976-.55-.775-1.592-.385-2.392,2.227-4.571,2.6-9.588,2.963-14.465.542-7.325-.2-14.991-5.854-20.145-9.446-8.617-21.439-12.106-34.054-14.715,1.962,4.341,6.173,5.931,8.244,9.437.5.848,1.655,1.675.991,2.752-.765,1.243-1.967.271-2.855,0-19.024-5.723-38.051-11.44-57.005-17.389-1.563-.491-1.876-.442-2.65.781a79.245,79.245,0,0,0-8.692,17.292c-3.255,9.77-1.368,19.414.587,28.955,1,4.883,5.19,6.883,10.309,6.9C1027.371,533.7,1019.738,530.484,1013.272,522.275Zm59.977,60.261c-.041,4.827,3.116,8.131,7.793,8.157,4.858.026,10.959-3.6,11.061-6.576.262-7.679-4.081-13.079-10.55-13.118C1075.873,570.965,1073.317,574.515,1073.249,582.536Zm11.623,19.982c-.323-2.888,1.244-5.591.821-8.392-.131-.866-.149-2.615-1.959-2.488-2.04.143-1.422,1.743-1.2,2.7C1083.187,597.066,1083.058,600,1084.872,602.518Z"/>
            <path class="u"
                  d="M959.259,484.31c1.61-4.84-2.171-8.506-2.8-12.859-.248-1.713-2.354-3.716-1.009-4.887,1.435-1.249,3.591.421,5.293,1.221,5.041,2.37,9.049,5.671,11.23,11.115,1.725,4.306,4.392,8.167,6.94,12.085,3.866,5.944,4.29,12.611,2.545,19.417-.584,2.279-1.6,2.6-3.289.733a67.184,67.184,0,0,1-7.392-9.082c-.95-1.509-1.748-3.8-4.426-2.739C963.794,494.4,959.7,490.222,959.259,484.31Z"/>
            <path class="u"
                  d="M1177.625,500.256c-2.35-1.3-2.6,1.071-3.347,2.111A70.506,70.506,0,0,1,1164.9,513.4c-2.762-7.667-2.694-14.956,1.122-21.8,2.848-5.1,6.154-9.929,8.67-15.255,3.108-6.579,9.4-8.678,16.436-10.819-2.684,7.239-5.153,13.8-7.525,20.4-.359,1-2.371,3.131,1.144,2.54-.544,4.129-3.545,6.8-5.853,9.885-.491-.3-.969-.484-1.435.059a1.057,1.057,0,0,0,.13,1.728Z"/>
            <path class="v"
                  d="M1177.591,500.139a1.057,1.057,0,0,1-.13-1.728c.466-.543.944-.356,1.435-.059C1178.435,498.929,1178.829,500.13,1177.591,500.139Z"/>
            <path class="w"
                  d="M1013.272,522.275c6.466,8.209,14.1,11.428,23.856,6.327-5.119-.013-9.308-2.013-10.309-6.9-1.955-9.541-3.842-19.185-.587-28.955a79.245,79.245,0,0,1,8.692-17.292c.774-1.223,1.087-1.272,2.65-.781,18.954,5.949,37.981,11.666,57.005,17.389.888.267,2.09,1.239,2.855,0,.664-1.077-.489-1.9-.991-2.752-2.071-3.506-6.282-5.1-8.244-9.437,12.615,2.609,24.608,6.1,34.054,14.715,5.65,5.154,6.4,12.82,5.854,20.145-.361,4.877-.736,9.894-2.963,14.465-.39.8-.591,1.842.385,2.392.748.42,1.324-.361,1.986-.665,3.052-1.4,4.586-4.619,7.819-6.512.32,2.643-.964,4.437-1.932,6.255-7.945,14.913-21.557,21.742-37.1,25.5a74.53,74.53,0,0,1-30.038,1.377c-12.706-2.225-25.225-6.042-36.734-12.7-7.971-4.614-13.487-10.652-16.446-19.212a13.833,13.833,0,0,1-.39-2.178Zm44.805-6.314a2.339,2.339,0,0,0,2.448-2.076,2.418,2.418,0,0,0-2.241-2.87,75.244,75.244,0,0,0-8.983-.9c-2.276-.05-4.543-5.8-6.845-.083a3.063,3.063,0,0,1-.8-.363c-1.024-.894-2.347-1.442-3.1-.142-.911,1.562.819,3.012.927,4.658.1,1.454,1.4,1.97,2.705,1.7C1047.293,514.83,1052.387,515.124,1058.077,515.961Zm46.178-6.747a12.854,12.854,0,0,0-7.148,1.291,2.739,2.739,0,0,0-1.6,3.357,2.079,2.079,0,0,0,2.79,1.6c4.581-1.931,9.081-1.017,13.674-.121,2.276.444,5.882-4.926,4.93-7.031-.476-1.052-1.664-1.382-2.159-.742-1.28,1.658-2.066,2.16-3.278-.046a1.292,1.292,0,0,0-2.26.183C1108.119,509.961,1106.242,509.161,1104.255,509.214Zm-10.644,24.1c-6.651,5.5-14.7,5.216-22.715,5.066C1079.37,540.426,1087.312,540.268,1093.611,533.316Z"/>
            <path class="w"
                  d="M1073.249,582.536c.068-8.021,2.624-11.571,8.3-11.537,6.469.039,10.812,5.439,10.55,13.118-.1,2.975-6.2,6.6-11.061,6.576C1076.365,590.667,1073.208,587.363,1073.249,582.536Z"/>
            <path class="w"
                  d="M1084.872,602.518c-1.814-2.516-1.685-5.452-2.333-8.178-.227-.959-.845-2.559,1.2-2.7,1.81-.127,1.828,1.622,1.959,2.488C1086.116,596.927,1084.549,599.63,1084.872,602.518Z"/>
            <path class="x"
                  d="M1058.077,515.961c-5.69-.837-10.784-1.131-15.9-.078-1.309.27-2.61-.246-2.705-1.7-.108-1.646-1.838-3.1-.927-4.658.757-1.3,2.08-.752,3.1.142a3.063,3.063,0,0,0,.8.363c2.3-5.718,4.569.033,6.845.083a75.244,75.244,0,0,1,8.983.9,2.418,2.418,0,0,1,2.241,2.87A2.339,2.339,0,0,1,1058.077,515.961Z"/>
            <path class="x"
                  d="M1104.255,509.214c1.987-.053,3.864.747,4.949-1.51a1.292,1.292,0,0,1,2.26-.183c1.212,2.206,2,1.7,3.278.046.5-.64,1.683-.31,2.159.742.952,2.105-2.654,7.475-4.93,7.031-4.593-.9-9.093-1.81-13.674.121a2.079,2.079,0,0,1-2.79-1.6,2.739,2.739,0,0,1,1.6-3.357A12.854,12.854,0,0,1,1104.255,509.214Z"/>
            <path class="y"
                  d="M1093.611,533.316c-6.3,6.952-14.241,7.11-22.715,5.066C1078.912,538.532,1086.96,538.812,1093.611,533.316Z"/>
            <path class="v"
                  d="M1195.6,558.494a138.151,138.151,0,0,0,14.247-7.89,121.231,121.231,0,0,0,13.1-9.443c8.254-6.781,15.537-14.846,19.932-24.214a45.44,45.44,0,0,0,4.074-14.677,44.219,44.219,0,0,0-1.241-15.072,64.968,64.968,0,0,0-5.9-14.279,132.285,132.285,0,0,0-8.565-13.392c-6.168-8.738-13.105-17.048-20.064-25.386l-10.415-12.6c-1.73-2.114-3.459-4.234-5.159-6.382-1.683-2.163-3.363-4.331-5-6.538-6.549-8.8-12.832-18.043-16.922-28.5-1.937-5.23-3.286-10.854-2.912-16.513a25.636,25.636,0,0,1,1.882-8.168,26.044,26.044,0,0,1,4.4-6.961,25.393,25.393,0,0,0-4.343,15.163,38.957,38.957,0,0,0,4.136,15.14,90.718,90.718,0,0,0,8.208,13.692c3.1,4.367,6.4,8.621,9.844,12.773,6.925,8.277,14.109,16.414,21.328,24.6,7.142,8.249,14.225,16.636,20.717,25.628a139.008,139.008,0,0,1,8.877,14.2,66.982,66.982,0,0,1,6.3,15.929,50.527,50.527,0,0,1,.906,17.348,47.318,47.318,0,0,1-5.285,16.428,61.252,61.252,0,0,1-10,13.7,89.7,89.7,0,0,1-12.733,10.8,112.328,112.328,0,0,1-14.226,8.4A104.714,104.714,0,0,1,1195.6,558.494Z"/>
            <path class="v"
                  d="M982.438,597.075a96.284,96.284,0,0,1-14.728-.887,119.516,119.516,0,0,1-14.565-2.867,92.015,92.015,0,0,1-27.4-12.1,72.739,72.739,0,0,1-11.691-9.835,67.238,67.238,0,0,1-9.118-12.437,68.859,68.859,0,0,1-8.059-29.521l-.081-3.82-.037-1.909c0-.636.059-1.266.086-1.9l.211-3.8.229-3.7.518-7.223c.169-2.409.387-4.818.389-7.226.067-4.815.344-9.647.079-14.449-.088-2.4-.116-4.817-.251-7.218L897.412,471c-.131-2.412-.589-4.765-.924-7.146l-.535-3.566c-.188-1.188-.48-2.349-.711-3.527l-.738-3.528c-.132-.586-.226-1.185-.39-1.761l-.491-1.729-.984-3.467c-.173-.575-.311-1.165-.51-1.73l-.609-1.693-1.2-3.4c-.379-1.147-.931-2.212-1.39-3.326l-.721-1.657a15.5,15.5,0,0,0-.777-1.63l-1.664-3.212a60.674,60.674,0,0,0-3.9-6.11,16.049,16.049,0,0,0-1.093-1.455l-1.147-1.42a31.853,31.853,0,0,0-2.561-2.612,30.566,30.566,0,0,1,5.612,4.806,60.463,60.463,0,0,1,4.724,5.752l2.075,3.1a16.576,16.576,0,0,1,.965,1.6l.911,1.628c.585,1.1,1.269,2.157,1.774,3.292l1.581,3.387.78,1.7c.253.571.443,1.163.667,1.744l1.3,3.508.649,1.758c.216.586.36,1.191.544,1.786l1.048,3.59c.329,1.2.744,2.389.995,3.607l.763,3.656c.484,2.441,1.092,4.874,1.368,7.344l1.043,7.4c.259,2.473.373,4.955.565,7.435.491,4.963.316,9.923.393,14.89.079,2.488-.123,4.957-.247,7.432l-.407,7.424-.2,3.623-.177,3.532c-.022.588-.079,1.178-.072,1.765l.047,1.759.088,3.516.018.88.089.87.177,1.742c.124,1.159.218,2.325.362,3.481l.642,3.425.317,1.714c.117.569.3,1.119.441,1.679l.908,3.354c.337,1.106.786,2.172,1.17,3.262l.6,1.627c.2.544.481,1.048.717,1.575l1.464,3.139a65.383,65.383,0,0,0,7.84,11.438,76.266,76.266,0,0,0,10.289,9.538,91.529,91.529,0,0,0,12.079,7.516,100.779,100.779,0,0,0,13.194,5.756A139.074,139.074,0,0,0,982.438,597.075Z"/>
        </g>
    </g>
</svg>
