<svg xmlns="http://www.w3.org/2000/svg" width="27.811" height="26.228" viewBox="0 0 27.811 26.228"><defs><style>.a{fill:#0c0c0c;}.b{fill:#fff;}</style></defs><g transform="translate(-165.962 -79.198)"><g transform="translate(165.962 79.198)"><rect class="a" width="27.811" height="26.228"/><g transform="translate(6.972 6.601)"><path class="b" d="M179.871,93.764c0,.059-.017.071-.073.071q-1.76.006-3.521.017l-1.721.008V89.435L176.3,89.2c.557-.075,1.114-.153,1.67-.23l1.588-.214c.077-.011.156-.019.233-.034.058-.012.073,0,.073.063q0,1.214,0,2.428Q179.868,92.487,179.871,93.764Z" transform="translate(-174.556 -87.595)"/><path class="b" d="M179.87,100.791c0,.063-.016.076-.076.068-.564-.08-1.127-.157-1.691-.234l-1.573-.217-1.573-.215c-.13-.018-.259-.037-.388-.057q0-2.162,0-4.326c0-.027.011-.058-.012-.081V95.7c.414,0,.828.01,1.242.012q1.565.011,3.128.019c.286,0,.572.007.858.006.062,0,.08.012.08.077q0,1.374,0,2.749Q179.865,99.68,179.87,100.791Z" transform="translate(-174.556 -88.914)"/><path class="b" d="M174.568,95.816q0,2.162,0,4.326l-.013.006V95.735C174.58,95.759,174.568,95.789,174.568,95.816Z" transform="translate(-174.556 -88.92)"/><path class="b" d="M188.932,93.431c0,.063-.015.078-.079.079-.824,0-1.649.011-2.474.016-.323,0-.646,0-.969,0v.026h-2.33c-.371,0-.742,0-1.112.01-.056,0-.078-.009-.078-.072q0-2.534,0-5.067c0-.042,0-.068.058-.076.811-.116,1.622-.235,2.432-.353l2.335-.341c.718-.1,1.437-.208,2.154-.316.064-.01.06.015.06.059v2.389Q188.93,91.608,188.932,93.431Z" transform="translate(-175.94 -87.334)"/><path class="b" d="M188.929,101.894c0,.057-.018.062-.067.055-.516-.075-1.032-.146-1.547-.219L185.7,101.5l-1.275-.179-1.52-.217c-.317-.045-.634-.092-.952-.131-.061-.008-.067-.032-.067-.083q0-1.608-.007-3.214c0-.6,0-1.2,0-1.8,0-.063.011-.084.08-.083q1.721,0,3.443,0V95.8h1.931c.51,0,1.021,0,1.532,0,.051,0,.066.012.066.065Q188.928,98.883,188.929,101.894Z" transform="translate(-175.938 -88.931)"/></g></g></g></svg>