<svg xmlns="http://www.w3.org/2000/svg" width="528" height="402.369" viewBox="0 0 528 402.369"><defs><style>.a{opacity:0.7;}.b{fill:#bec9f2;opacity:0.49;}.c,.f{fill:#caa267;}.c,.d{fill-rule:evenodd;}.d{fill:#ba965b;}.e{fill:#c2934e;}.g{fill:#8c7cc9;}.h{opacity:0.15;}.i{fill:#f0c659;}.j{fill:#e4a653;}.k{fill:#b58543;}.l{fill:#b35328;}.m{fill:#e9e9e9;}.n{fill:#8e94a0;}.o{fill:#4b3d64;}.p{fill:#cecfd4;}.q{fill:#fff;}.r{fill:#eabf80;}.s{fill:#97a4ac;}.t{fill:#3d4346;}.u{fill:#8d98a1;}.v{fill:#ff5000;}</style></defs><g transform="translate(-465.331 -404.672)"><g transform="translate(465.331 404.672)"><g class="a"><path class="b" d="M554.437,532.088c57.841-63.293,86.762-94.941,116.451-108.4,99.19-44.978,255.743-8.719,304.9,93.619,2.558,5.325,36.886,79.457,1.778,137.019-29.4,48.193-77.742,36.034-207.275,79.433-138.679,46.465-167.285,88.553-220.846,67.884-50.709-19.569-86.115-80.856-83.7-134.1C467.543,627.944,496.531,595.453,554.437,532.088Z" transform="translate(-465.279 -404.672)"/><circle class="b" cx="26.31" cy="26.31" r="26.31" transform="translate(37.977 66.68)"/><circle class="b" cx="11.035" cy="11.035" r="11.035" transform="translate(0 86.005)"/><circle class="b" cx="19.009" cy="19.009" r="19.009" transform="translate(420.206 302.284)"/><circle class="b" cx="7.738" cy="7.738" r="7.738" transform="translate(475.055 323.798)"/><circle class="b" cx="5.679" cy="5.679" r="5.679" transform="translate(97.38 41.99)"/><circle class="b" cx="5.679" cy="5.679" r="5.679" transform="translate(374.802 339.746)"/></g><g transform="translate(73.301 47.216)"><g transform="translate(40.364 28.001)"><path class="c" d="M582.81,507.564c-.309-1.061-1.264-13.835-4.192-19.119s-7.767-12.872-8.807-15.921c-1.224-3.586-3.992-6.99-1.8.785a73.848,73.848,0,0,0,3.217,9.4c.318.512-.3-.359-1.987-4.365-1.793-4.258-2.418,1.758-1.327,3.8,0,0,.3.22-1.046-2.757-1.147-2.528-4.223-1.646-1.652,3.512-.046.092-2.094-3.854-2.723-3.166-1.526,1.674.413,6.216,2.218,9.067,3.52,5.56,8.656,10.846,10.049,15.62Z" transform="translate(-561.939 -468.601)"/><path class="c" d="M578.033,489.76s1.024-6.035-.129-8.709c-1.361-3.155-1.941-2.564-4.91-4.184-1.688-1.044-2.068.79,2,3.338.725,2.345-1.986,3.024-1.87,4.651s1.245,5.964,2.271,6.539S578.033,489.76,578.033,489.76Z" transform="translate(-560.199 -467.194)"/><path class="d" d="M573.954,482.38s-2.534,3.69-2.594,6.35S569.018,480.869,573.954,482.38Z" transform="translate(-560.377 -466.194)"/></g><g transform="translate(48.762)"><path class="e" d="M715.255,485.376s-1.213,13.54,7.138,21.028-19.247,0-19.247,0,5.136-12.968,3.984-21.028S715.255,485.376,715.255,485.376Z" transform="translate(-545.405 -438.271)"/><ellipse class="f" cx="14.602" cy="19.922" rx="14.602" ry="19.922" transform="translate(150.843 12.51)"/><path class="g" d="M608.63,569.2c22.1-46.239,61.554-67.334,86.741-72.934,10.9-2.428,19.132-1.952,22.137.644a16.334,16.334,0,0,0,10.193,3.959,22.115,22.115,0,0,0,5.724-.521,28.5,28.5,0,0,0,6.066-2.062c.932-.433,1.475-.744,1.475-.744a59.185,59.185,0,0,1,15.415.92c56.986,11.157,66.9,106.706,66.39,114.924-.311,4.891-5.368,27.05-11.689,46.747-5.179,16.171-11.224,30.688-16.193,32.7-11.024,4.436-94.262,10.524-111.375,2.363-.4-.3-.832-.621-1.242-.977-6.421-5.224-13.386-15.539-17.079-25.2,0-.01-9.838-27.739-11.846-33.384-.022-.055-.033-.1-.055-.144-.067-.222-.144-.433-.221-.633-.022-.078-.056-.144-.078-.221" transform="translate(-562.093 -435.997)"/><path class="h" d="M646.338,616.687c.022.078.055.144.078.221.078.2.155.411.222.633.021.044.033.088.055.144,2.007,5.645,11.844,33.373,11.844,33.384,3.693,9.66,10.659,19.975,17.08,25.2-4.359-15.782-17.945-61.532-17.424-79.965C655.6,614.069,646.338,616.675,646.338,616.687Z" transform="translate(-555.435 -418.053)"/><path class="h" d="M760.322,557.451s-27.585,82.343,48.947,117.314l1.555,1.034-.4-19.369s-36.062-50.322-36.2-51.617S760.322,557.451,760.322,557.451Z" transform="translate(-536.164 -424.913)"/><path class="h" d="M715.65,504.136c.043,1.319-.655,2.185-2.773,1.9-6.61-.9-14.074-.711-19.5,1.774a4.607,4.607,0,0,1-4.458-.188c-3.472-2.03-5.624-8.085-6.477-10.77a1.827,1.827,0,0,1-.089-.587c10.9-2.428,19.132-1.952,22.137.644a16.335,16.335,0,0,0,10.193,3.959A8.987,8.987,0,0,1,715.65,504.136Z" transform="translate(-549.076 -435.997)"/><g transform="translate(147.466)"><g transform="translate(3.082 5.554)"><path class="i" d="M705.827,464.967s25.279,14.015,17.776-8.488C718.411,440.911,688.586,454.934,705.827,464.967Z" transform="translate(-696.417 -449.523)"/><path class="i" d="M710.106,459.44s-14.143,8.391-12.779,16.811c0,0-3.119-25.135,10.944-25.767s19.507.726,18.259,27.3C726.531,477.789,722.444,456.646,710.106,459.44Z" transform="translate(-697.033 -449.372)"/></g><path class="i" d="M706.064,451.632s.711-7.831,8.474-6.722,11.091,5.545,12.2,9.981,2.219,7.764,3.327,7.764c0,0-3.327,3.327-4.436,2.218,0,0,2.878,7.977-.779,14.525,0,0-1.44-10.088-6.985-11.2S706.064,451.632,706.064,451.632Z" transform="translate(-692.356 -444.802)"/><path class="i" d="M708.832,450.656s-5.546-3.327-11.092,4.436l-3.327,6.655s1.109,1.109,3.327,0c0,0-1.011,7.815.049,12.226l3.278-13.335Z" transform="translate(-694.413 -443.894)"/></g><path class="h" d="M796.536,634.4s-14.267-29.921-87.415,21.508,68.653-12.618,68.653-12.618Z" transform="translate(-548.051 -412.855)"/><path class="g" d="M660.335,636.237s-67.511,28.641-83.891-33.127.658-76.581-6-106.65l10.86-5.229s40.871,25.2,54.863,64.1S660.335,636.237,660.335,636.237Z" transform="translate(-569.077 -436.605)"/></g><path class="j" d="M527.632,731.3H940.544l-62.335-64.619H583.126l-3.872,7.974Z" transform="translate(-527.632 -405.627)"/><path class="h" d="M647.876,666.678c5.86,6.119,21.117,16.707,58.126,20.137,53.15,4.919,127.649-20.137,127.649-20.137Z" transform="translate(-506.401 -405.627)"/><g transform="translate(164.358 58.606)"><g transform="translate(0 194.559)"><path class="c" d="M711.649,674.126c-1.052-.352-12.148-7-18.164-7.552s-15.013-.807-18.119-1.69c-3.653-1.039-4.577.413-.367,2.019a59.3,59.3,0,0,0,9.582,2.713c.6.025-3.318-.5-7.578-1.385-4.529-.939-9.442-2.215-9.667-1.408-.435,1.564,12.61,5.082,14.909,5.33a57.887,57.887,0,0,1-6.06-.734c-2.734-.485-5.869-1.453-6.484-.886-.971.894,5.939,3.6,11.65,4.4.1.185-1.746.474-8.465-.922-.675-.14-2.394.155-.184,1.178,4.654,2.152,6.5,3.421,13.242,3.631,6.577.206,13.838-1.148,18.567.438Z" transform="translate(-667.325 -659.171)"/><path class="c" d="M694.349,667.971s-5.093-5.349-10.811-6.231c-3.4-.523-3.319-1.38-3.9-1.635-1.924-.846-.061,2.725,2.826,3.64,2.346.745,3.657,4.754,5.067,5.605s5.631,2.411,6.684,1.859S694.349,667.971,694.349,667.971Z" transform="translate(-665.29 -659.976)"/></g><path class="g" d="M798.444,512.641c20.891,18.692,35.346,36.053,44.364,93.164,4.576,28.975,3.384,57.949,2.193,73.229a18.055,18.055,0,0,1-12.408,15.7c-65.453,21.59-135.32,17.278-135.32,17.278-3.749-1.394.294-14.957.294-14.957,33.487-45.447,81.348-37.805,94.223-45.777,4.017-23.558-28.347-53.041-32.163-67.655-10-38.324-42.9-71.488-34.383-86.509C728.185,491.92,777.371,493.787,798.444,512.641Z" transform="translate(-662.319 -494.614)"/></g><rect class="k" width="412.912" height="15.628" transform="translate(0 325.67)"/></g><g transform="translate(176.196 196.064)"><path class="l" d="M637.193,629.5h0a.62.62,0,0,1-.365-.793l.5-1.364,1.159.427-.5,1.364A.62.62,0,0,1,637.193,629.5Z" transform="translate(-611.254 -561.421)"/><path class="l" d="M642.681,631.52h0a.618.618,0,0,1-.366-.792l.5-1.365c.033-.091,1.153.44,1.153.44l-.5,1.351A.618.618,0,0,1,642.681,631.52Z" transform="translate(-610.285 -561.066)"/><path class="m" d="M637.089,629.352h0a.619.619,0,0,1-.366-.793l.55-1.493a.62.62,0,0,1,.792-.366h0a.619.619,0,0,1,.366.793l-.549,1.493A.62.62,0,0,1,637.089,629.352Z" transform="translate(-611.272 -561.541)"/><path class="m" d="M642.564,631.367h0a.619.619,0,0,1-.366-.793l.549-1.492a.619.619,0,0,1,.793-.366h0a.619.619,0,0,1,.366.792L643.355,631A.617.617,0,0,1,642.564,631.367Z" transform="translate(-610.306 -561.185)"/><rect class="n" width="4.047" height="2.624" transform="translate(24.262 82.057) rotate(20.217)"/><rect class="n" width="4.047" height="2.624" transform="translate(25.992 77.717) rotate(20.217)"/><path class="o" d="M825.583,718.625H620.024a4.57,4.57,0,0,1-4.938-4.5v-3.08l22.5-41.577A7.162,7.162,0,0,1,644,665.487h157.3c2.936,0,9.409,5.782,10.721,8.408l18.563,37.841v1.359C830.634,717.036,828.086,718.625,825.583,718.625Z" transform="translate(-615.086 -554.686)"/><path class="p" d="M825.6,714.925H620.039c-2.283,0-6.04-2-4.629-4.463l22.192-44.7a7.162,7.162,0,0,1,6.413-3.977H801.322a7.749,7.749,0,0,1,6.931,4.285l21.966,43.958C831.759,712.833,828.1,714.925,825.6,714.925Z" transform="translate(-615.083 -555.339)"/><rect class="p" width="168.337" height="106.371" rx="5.231" transform="translate(22.486)"/><rect class="q" width="155.351" height="92.172" transform="translate(28.949 5.802)"/><path class="o" d="M741.231,708.116h-60.57a1.091,1.091,0,0,1-1.078-1.265l2.553-15.954a1.775,1.775,0,0,1,1.752-1.494h54.631a1.559,1.559,0,0,1,1.542,1.334l2.341,16.044A1.183,1.183,0,0,1,741.231,708.116Z" transform="translate(-603.701 -550.463)"/><path class="g" d="M801.008,689.884H636.437c-1.826,0-3.218-.7-2.93-1.477l6.939-18.625c.374-1,2.392-1.744,4.76-1.744H793.643c2.1,0,3.888.664,4.192,1.558l6.361,18.73C804.445,689.152,802.947,689.884,801.008,689.884Z" transform="translate(-611.84 -554.235)"/><g transform="translate(21.196 109.646)"><rect class="p" width="171.62" height="0.867" transform="translate(0 7.368)"/><rect class="p" width="171.62" height="0.867" transform="translate(0 11.701)"/><rect class="p" width="171.62" height="0.867" transform="translate(0 16.902)"/><rect class="p" width="171.62" height="0.867" transform="translate(0 21.669)"/><rect class="p" width="1.3" height="28.603" transform="translate(20.785 0.463) rotate(17.439)"/><rect class="p" width="1.3" height="28.603" transform="translate(33.353 0.463) rotate(17.439)"/><rect class="p" width="1.3" height="28.603" transform="translate(43.321 0.463) rotate(17.439)"/><rect class="p" width="1.3" height="28.603" transform="translate(53.288 0.463) rotate(17.439)"/><rect class="p" width="1.3" height="28.603" transform="translate(63.689 0.463) rotate(17.439)"/><rect class="p" width="1.3" height="28.603" transform="translate(74.244 0.138) rotate(10.978)"/><rect class="p" width="1.3" height="28.603" transform="translate(83.21)"/><rect class="p" width="1.3" height="28.603" transform="translate(150.462 0.852) rotate(-17.439)"/><rect class="p" width="1.3" height="28.603" transform="translate(138.327 0.852) rotate(-17.439)"/><rect class="p" width="1.3" height="28.603" transform="translate(126.192 0.852) rotate(-17.439)"/><rect class="p" width="1.3" height="28.603" transform="translate(114.058 0.852) rotate(-17.439)"/><rect class="p" width="1.3" height="28.603" transform="translate(101.923 0.852) rotate(-17.439)"/><rect class="p" width="1.3" height="28.603" transform="translate(89.788 0.852) rotate(-17.439)"/></g></g><g transform="translate(267.154 287.423)"><line class="r" x1="5.714"/></g></g><g transform="translate(728.837 626.703)"><g transform="translate(5.16)"><path class="s" d="M724.26,598.918v38.409a5.559,5.559,0,0,1-5.565,5.536h-19.48a5.534,5.534,0,0,1-5.536-5.536V598.918a5.534,5.534,0,0,1,5.536-5.534H718.7A5.559,5.559,0,0,1,724.26,598.918Z" transform="translate(-693.679 -593.383)"/></g><g transform="translate(5.16 33.333)"><path class="t" d="M724.26,621.714v10.61a5.559,5.559,0,0,1-5.565,5.536h-19.48a5.534,5.534,0,0,1-5.536-5.536v-10.61Z" transform="translate(-693.679 -621.714)"/></g><g transform="translate(0 22.248)"><path class="u" d="M717.772,646.313H701.716a12.438,12.438,0,0,1-12.423-12.423v-21.6h3.058v21.6a9.378,9.378,0,0,0,9.365,9.365h16.055a9.377,9.377,0,0,0,9.365-9.365v-21.6H730.2v21.6A12.437,12.437,0,0,1,717.772,646.313Z" transform="translate(-689.293 -612.292)"/></g><g transform="translate(18.922 54.74)"><rect class="u" width="3.058" height="7.263"/></g><g transform="translate(8.792 60.092)"><rect class="u" width="23.318" height="3.058"/></g><g transform="translate(18.903 56.233)"><rect class="t" width="3.058" height="1.043"/></g><g transform="translate(15.673 35.436)"><circle class="v" cx="4.778" cy="4.778" r="4.778"/></g></g></g></svg>