<svg xmlns="http://www.w3.org/2000/svg" width="1366" height="772.5" viewBox="0 0 1366 772.5"><defs><style>.a,.k{fill:#000;}.b{fill:#ccc1d8;}.c{fill:#e6def0;}.d{fill:#b0b0b0;}.e{fill:#b35328;}.f{fill:#e9e9e9;}.g{fill:#8e94a0;}.h{fill:#4b3d64;}.i{fill:#cecfd4;}.j{fill:#8c7cc9;}.k{stroke:#5e5587;stroke-width:11px;}.k,.t{stroke-miterlimit:10;}.l{fill:#5e5587;}.m{fill:#c2934e;}.n{fill:#c39652;}.o{fill:#caa267;}.p{fill:#5e5586;}.q{fill:#f1c759;}.r{opacity:0.3;}.s{opacity:0.5;}.t{fill:none;stroke:#8c7cc9;stroke-width:1.41px;}.u{fill:#cea971;}.v{opacity:0.15;}.w{fill:#f0c659;}.x{fill:#dc4c2c;}.y{fill:#f7a278;}.z{fill:#c06346;}.aa{fill:#9b341f;}</style></defs><g transform="translate(0 -1717.718)"><rect class="a" width="1366" height="771" transform="translate(0 1717.718)"/><path class="b" d="M1366,1728.755v758.463l-242.228-67.586-32.991-6.263,1.636-558.092,30.118-25.56Z"/><path class="b" d="M316.3,1844.69l-16.051,556.371L.2,2475.459V1725.406l298.845,93.57Z"/><path class="c" d="M697.978,1808.29H273.37v617.384h849.165V1808.29Z"/><path class="a" d="M0,1780c121.657,30.38,335.7,73.889,615,80.372,352.972,8.195,622.429-47.1,751-78.7v-62.455H0Z"/><path class="a" d="M0,2441.9c121.657-29.39,335.7-71.48,615-77.753,352.972-7.927,622.429,45.568,751,76.133v47.19L.2,2490.218Z"/><path class="d" d="M848,2297.218H504l50-60H808Z"/><rect class="d" width="16" height="138" transform="translate(516 2297.218)"/><rect class="d" width="11" height="163" transform="translate(553 2237.218)"/><rect class="d" width="11" height="163" transform="translate(796 2237.218)"/><rect class="d" width="16" height="138" transform="translate(821 2297.218)"/><path class="e" d="M627.825,2211.468h0a.44.44,0,0,1-.259-.562l.356-.967.821.3-.356.966A.439.439,0,0,1,627.825,2211.468Z"/><path class="e" d="M632.4,2213.152h0a.438.438,0,0,1-.259-.561l.356-.967c.024-.065.818.311.818.311l-.353.958A.439.439,0,0,1,632.4,2213.152Z"/><path class="f" d="M627.737,2211.278h0a.438.438,0,0,1-.259-.561l.389-1.058a.44.44,0,0,1,.562-.26h0a.439.439,0,0,1,.259.562l-.389,1.058A.439.439,0,0,1,627.737,2211.278Z"/><path class="f" d="M632.3,2212.96h0a.438.438,0,0,1-.259-.562l.389-1.058a.439.439,0,0,1,.562-.259h0a.439.439,0,0,1,.259.561l-.39,1.058A.438.438,0,0,1,632.3,2212.96Z"/><rect class="g" width="2.868" height="1.859" transform="translate(626.636 2221.375) rotate(20.217)"/><rect class="g" width="2.868" height="1.859" transform="translate(627.862 2218.3) rotate(20.217)"/><path class="h" d="M758.628,2279.409H612.94a3.238,3.238,0,0,1-3.5-3.192v-2.183l15.947-29.467a5.075,5.075,0,0,1,4.546-2.819H741.422c2.08,0,6.668,4.1,7.6,5.958l13.156,26.82v.963C762.208,2278.283,760.4,2279.409,758.628,2279.409Z"/><path class="i" d="M758.641,2276.324H612.953c-1.618,0-4.281-1.419-3.281-3.163l15.729-31.679a5.074,5.074,0,0,1,4.546-2.819H741.435a5.492,5.492,0,0,1,4.912,3.037l15.569,31.155C763.008,2274.841,760.416,2276.324,758.641,2276.324Z"/><rect class="i" width="119.308" height="75.39" rx="4.362" transform="translate(625.377 2163.218)"/><rect class="a" width="110.104" height="65.326" transform="translate(629.958 2167.33)"/><path class="h" d="M706.914,2274.953H663.986a.774.774,0,0,1-.764-.9l1.81-11.307a1.258,1.258,0,0,1,1.242-1.059h38.719a1.1,1.1,0,0,1,1.093.945l1.66,11.371A.838.838,0,0,1,706.914,2274.953Z"/><path class="j" d="M743.512,2259.358H626.874c-1.294,0-2.281-.5-2.077-1.046l4.919-13.2c.265-.712,1.7-1.236,3.373-1.236h105.2c1.49,0,2.755.47,2.971,1.1l4.508,13.274C745.947,2258.84,744.886,2259.358,743.512,2259.358Z"/><rect class="i" width="121.634" height="0.614" transform="translate(624.463 2246.151)"/><rect class="i" width="121.634" height="0.614" transform="translate(624.463 2249.222)"/><rect class="i" width="121.634" height="0.614" transform="translate(624.463 2252.908)"/><rect class="i" width="121.634" height="0.614" transform="translate(624.463 2256.287)"/><rect class="i" width="0.921" height="20.272" transform="translate(639.194 2241.257) rotate(17.439)"/><rect class="i" width="0.921" height="20.272" transform="translate(648.102 2241.257) rotate(17.439)"/><rect class="i" width="0.921" height="20.272" transform="translate(655.166 2241.257) rotate(17.439)"/><rect class="i" width="0.921" height="20.272" transform="translate(662.231 2241.257) rotate(17.439)"/><rect class="i" width="0.921" height="20.272" transform="translate(669.602 2241.257) rotate(17.439)"/><rect class="i" width="0.921" height="20.272" transform="translate(677.083 2241.027) rotate(10.978)"/><rect class="i" width="0.921" height="20.272" transform="translate(683.437 2240.929)"/><rect class="i" width="0.921" height="20.272" transform="translate(731.102 2241.533) rotate(-17.439)"/><rect class="i" width="0.921" height="20.272" transform="translate(722.501 2241.533) rotate(-17.439)"/><rect class="i" width="0.921" height="20.272" transform="translate(713.901 2241.533) rotate(-17.439)"/><rect class="i" width="0.921" height="20.272" transform="translate(705.3 2241.533) rotate(-17.439)"/><rect class="i" width="0.921" height="20.272" transform="translate(696.7 2241.533) rotate(-17.439)"/><rect class="i" width="0.921" height="20.272" transform="translate(688.1 2241.533) rotate(-17.439)"/><path class="k" d="M1170.1,2024.4v207l51,8.1,16,2.53,59,9.37v-247l-59,9.37-16,2.53Z"/><path class="l" d="M1221.1,2016.3v223.2l16,2.53v-228.26Z"/><path class="l" d="M1170.1,2087.219v18.12l51-5.9,16-1.85,59-6.82v-18.12l-59,6.82-16,1.85Z"/><path class="m" d="M360.967,2040.1s.845,10.928-4.1,18.7c-3.326,5.219,3.169,4.814,10.269,3.689,5.451-.864,6.515-3.93,6.515-3.93a7.582,7.582,0,0,1-4.211-4.989c-1.133-3.647-.54-10.069.04-13.466C370.682,2033.028,360.967,2040.1,360.967,2040.1Z"/><path class="n" d="M399.637,2314.405s-12.343,108.028-7.916,109.967c7.941,3.531,39.08,15.168,4.582,12.136-17.762.765-16.392-3.177-16.612-6.541-.179-2.748,2-99.58,1.4-107.123-.135-1.69-.216-2.711-.216-2.711Z"/><path class="o" d="M297.745,2409.224c2.3.268,7.567,2.455,10.379,4.2,9.116-21.391,42.418-101.714,42.418-101.714l-14.611-11.66S307.09,2383.19,297.745,2409.224Z"/><path class="p" d="M296.654,2409.433c.7-1.413,12.973,3.88,13.312,5.635.167.866,15.823,17.456,13.784,20.1-1.07,2.82-6.755,1.595-12.605.5a16.083,16.083,0,0,1-6.436-2.763c-6.9-4.965-13.14-8.9-14.083-11.231C289.8,2419.636,295.283,2412.21,296.654,2409.433Z"/><path class="l" d="M379.231,2420.5c-.18-1.566,13.092.645,14.328,1.936s20.517,6.891,19.965,13.463-31.165.872-33.355.68S379.585,2423.577,379.231,2420.5Z"/><path class="q" d="M414.612,2198.047a6.862,6.862,0,0,1-4.026,1.468c-9.126-.576-48.532-3.159-69.776-6.153-7.5-1.056-12.729-2.163-13.574-3.256a.739.739,0,0,0,0,.087c-.042,1.182-.482,14.708-1,32.444-1.015,35.011-8.75,84.635-14.213,99.439-1.179,3.2,48.122,2.288,48.122,2.288,3.114-35.959,4.928-99.392,7.367-102.04,2.967-3.221,2.717,52.685,3.855,99.579,18.944,6.653,49.857,6.125,49.667,4.111C418.779,2302.095,414.612,2198.047,414.612,2198.047Z"/><g class="r"><path d="M378.106,2197.176h.442S378.391,2197.174,378.106,2197.176Z"/><path class="s" d="M378.106,2197.176c-11.8-.035-37.3-3.814-37.3-3.814-7.5-1.056-12.729-2.163-13.574-3.256a.739.739,0,0,0,0,.087c-.042,1.182-.482,14.708-1,32.444a8.77,8.77,0,0,0,1.244-.04,9.631,9.631,0,0,0,6.571-3.9,21.407,21.407,0,0,0,2.831-4.841C347,2197.949,374.321,2197.2,378.106,2197.176Z"/></g><line class="t" x2="1.67" y2="130.852" transform="translate(406.132 2196.488)"/><line class="t" x2="1.763" y2="128.583" transform="translate(393.595 2198.065)"/><line class="t" x1="0.239" y2="127.52" transform="translate(381.313 2197.068)"/><line class="t" x1="2.436" y2="26.217" transform="translate(367.515 2196.108)"/><line class="t" x1="8.32" y2="129.435" transform="translate(348.754 2195.042)"/><line class="t" x1="10.125" y2="130.378" transform="translate(335.876 2194.044)"/><line class="t" x1="13.356" y2="130.864" transform="translate(321.755 2193.142)"/><path class="t" d="M415.173,2211.691s-70.189-2.486-88.388-7.316"/><path class="t" d="M367.515,2222.324c24,7.566,48.139.745,48.139.745"/><path class="t" d="M367.916,2220.691s-22.59,4.376-41.548-2.468"/><path class="t" d="M416.069,2232.682s-18.393,7.771-46.638.7"/><path class="t" d="M416.574,2244.133s-28.126,6.1-46.687.229"/><path class="t" d="M417.09,2255.509s-14.879,9.8-46.866,2.2"/><path class="t" d="M417.7,2268.6a68.2,68.2,0,0,1-47.281-.35"/><path class="t" d="M418.286,2280.588s-15.975,9.462-47.658.575"/><path class="t" d="M418.917,2292.883s-21.726,9.163-48.135-1.879"/><path class="t" d="M419.442,2302.482s-13.264,10.8-48.486-.936"/><path class="t" d="M420.1,2313.381s-20.734,8.822-48.942-1.306"/><path class="t" d="M365.932,2232.458s-9.854,6.852-40.627-1.387"/><path class="t" d="M364.74,2243.9s-13.441,4.964-39.588-2"/><path class="t" d="M364.319,2256.673s-20.482,4.364-40.115-3.321"/><path class="t" d="M363.733,2267.246s-20.141,7.028-40.789-3.377"/><path class="t" d="M363.1,2278.855s-19.032,4.959-41.652-3.448"/><path class="t" d="M362.479,2290s-16.169,5.7-42.68-3.532"/><path class="t" d="M361.664,2299.845s-19.3,8.007-43.7-2.6"/><path class="t" d="M361.091,2312.185a85.861,85.861,0,0,1-45.483-3.236"/><path class="j" d="M430.154,2116.527c1.5,2.338,7.607,68.765,0,82.545-7.65,13.86-71.381,21.268-91.418,10.606-20.332-10.818-28.163-21.222-30.881-40.625-2.723-19.441,3.626-49.445,3.626-49.445l86.892-57.424Z"/><path class="u" d="M413.391,2193.2a50.7,50.7,0,0,0-5.329,3.1,15.835,15.835,0,0,0-2.739,4.025c-.507,1.074,1.6.1,3.205-2.26,1.562-.856,3.015-1.819,3.372-1.468s-2.1,1-3.86,2.67c-1.722,2.209-3.373,4.375-2.782,4.417s1.239.066,3.684-3.131c1.728-.791,3.41-1.735,3.547-1.37s-2.01,1.047-3.71,2.524c-2.38,2.439-2.934,3.329-3.814,4.186.475.531,2.068.051,4.987-2.868,1.576-.979,3.927-1.358,4.006-.867-.072.52-1.711.808-2.825,1.472a13.172,13.172,0,0,0-3.069,2.462c-.331.423.017,1.156,3.879-1.009a3.96,3.96,0,0,1,2.8-.174l2-5.485Z"/><path class="o" d="M424.379,2195.333s-9.417-1.939-10.255-2.286-2.913,2.131-2.244,2.593a4.578,4.578,0,0,1,1.505,2.754,2.17,2.17,0,0,0,.425,1.958c.571.662,1.409,1.51,1.043,2.5s-1.219,1.981-.11,2.06a19.84,19.84,0,0,1,6.888,2.521c2.369,1.482,8.271-4.954,8.271-4.954Z"/><path class="u" d="M333.684,2193.74a50.176,50.176,0,0,1,6.144-.168,15.529,15.529,0,0,1,4.412,1.989c.988.649-1.313.925-3.9-.238-1.774.094-3.511.039-3.634.527s2.306-.26,4.67.242c2.609.976,5.134,1.952,4.652,2.3s-1.023.71-4.758-.729c-1.882.237-3.8.319-3.733.7s2.255-.167,4.467.2c3.288.826,4.22,1.293,5.413,1.56-.131.7-1.738,1.133-5.734.184-1.849,0-4.05.912-3.865,1.373.33.405,1.876-.213,3.169-.234a13.008,13.008,0,0,1,3.889.481c.5.186.582,1-3.83,1.186a3.993,3.993,0,0,0-2.479,1.328l-4.537-3.623Z"/><path class="o" d="M325.408,2201.354s7.034-6.621,7.571-7.359,3.583.281,3.251,1.028a4.611,4.611,0,0,0,.137,3.144,2.166,2.166,0,0,1,.647,1.894c-.146.866-.423,2.032.4,2.681s2.062,1.047,1.156,1.7a20.185,20.185,0,0,0-4.575,5.785c-1.257,2.513-9.612.136-9.612.136Z"/><path class="j" d="M255.933,2186.245c10.777,18.384,25.208,37.265,53.4,36.358,8.463-.551,12.939-4.366,15.15-8.678a16.531,16.531,0,0,0,1.137-2.848c.037-.126.075-.252.109-.378a18.289,18.289,0,0,0,.464-2.214,16.154,16.154,0,0,0-.346-6.89l0-.012c-.04-.12-.081-.233-.124-.337-.016-.041-.035-.085-.056-.132-.141-.331-.359-.8-.645-1.4-1.265-2.615-3.866-7.563-7.211-13.029-5.971-9.765-5.784-24.737-3.2-32.439.281-.835,1.829-1.673,4.286-2.6.735-.277,1.551-.567,2.442-.87,12.3-4.129,26.663-30.139,35.565-51.8,1.81-4.411,3.392-8.641,4.694-12.481a109.333,109.333,0,0,0,3.1-10.654c.822-3.65,1.028-6.211.467-7.169a.749.749,0,0,0-.723-.419,16.192,16.192,0,0,1-4.759-.636c-3.9-1.008-8.239-4.007-11.351-6.493l0,0c-2.526-2.019-4.233-3.7-4.233-3.7h-.012c-.153.006-1.564.066-3.916.369a82.592,82.592,0,0,0-8.544,1.587q-1.869.439-3.934,1.024c-.591.167-1.193.347-1.8.532A90.638,90.638,0,0,0,279.042,2094C252.426,2130.243,245.031,2167.635,255.933,2186.245Z"/><path class="v" d="M279.044,2153.588a1.64,1.64,0,0,1,.19.06C279.152,2153.622,279.089,2153.6,279.044,2153.588Z"/><path class="j" d="M325.618,2060.608s.09.11.268.321c.987,1.188,4.654,5.6,10.008,12.122,4.4,5.374,9.952,12.178,16.085,19.792l0,0q2.4,2.982,4.918,6.124c28.959,36.165,66.57,85.158,63.05,91.657a11.325,11.325,0,0,0-1.245,3.506,9.329,9.329,0,0,0-.125,1.821c.112,3.761,2.535,6.772,4.84,8.8l.019.016a.9.9,0,0,0,.1.088,23.438,23.438,0,0,0,1.956,1.515,20.357,20.357,0,0,0,2.1,1.295c30.691-4.833,45.131-17.9,45.131-53.06s-20.078-94.666-90.271-98.751a11.653,11.653,0,0,0-5.329,1.43c-3.6,1.7-7.463,4.388-10.578,5.15a6.563,6.563,0,0,1-1.452.208c-6.731.154-11.609-3.56-16.558-4.861l-.016-.006-.028-.009a11.446,11.446,0,0,0-4.4-.35h-.012q-1.949.255-3.735.514c-2.261.327-4.311.658-6.114.97-.938.164-1.81.324-2.611.472-1.242.233-2.308.444-3.186.624-.374.076-.713.148-1.015.211C326.247,2060.457,325.618,2060.608,325.618,2060.608Z"/><ellipse class="o" cx="12.815" cy="17.485" rx="12.815" ry="17.485" transform="translate(352.664 2011.651)"/><path class="w" d="M370.237,2020.8s-22.186,12.3-15.6-7.449C359.192,1999.691,385.369,2012,370.237,2020.8Z"/><path class="w" d="M367.021,2016.086s12.414,7.366,11.216,14.754c0,0,2.737-22.059-9.606-22.614s-17.121.637-16.025,23.964C352.606,2032.19,356.192,2013.634,367.021,2016.086Z"/><path class="w" d="M369.169,2008.37s-.623-6.874-7.437-5.9-9.734,4.867-10.707,8.761-1.947,6.813-2.921,6.813c0,0,2.921,2.921,3.894,1.947,0,0-2.526,7,.684,12.748,0,0,1.263-8.854,6.13-9.828S369.169,2008.37,369.169,2008.37Z"/><path class="w" d="M368.546,2008.31s4.867-2.92,9.734,3.894l2.92,5.84s-.973.974-2.92,0c0,0,.887,6.859-.043,10.73l-2.877-11.7Z"/><path class="j" d="M252.049,2175.652l0,.006,0,.006c9.909,26.9,61.748-75.954,61.748-75.954l22.091-26.659,7.451-8.99,1.734-2.092,1.739-2.095,1.728-2.088-.006,0-.016-.006-.028-.009a58.088,58.088,0,0,0-19.6-3.015,60.163,60.163,0,0,0-7.267.523,56.345,56.345,0,0,0-29.684,13.473C257.534,2098.39,242.153,2148.747,252.049,2175.652Z"/><path class="v" d="M328.9,2054.752a18.12,18.12,0,0,0,3.993,3.465,8.038,8.038,0,0,0,1.165.608l.175.076a53.316,53.316,0,0,0,10.845,3.068,29.175,29.175,0,0,0,4.972.476c.137,0,.271,0,.4-.007,5.909-.179,9.909,2.284,13.559,2.46a2.183,2.183,0,0,0,2.539-2.463,6.563,6.563,0,0,1-1.452.208c-6.731.154-11.609-3.56-16.558-4.861l-.016-.006-.028-.009A58.088,58.088,0,0,0,328.9,2054.752Z"/><path class="v" d="M317.69,2192.2s-18.076-19.249-10.067-29.627,29.14-37.079,29.821-47.6c0,0-3.138,19.02-10.829,30.1S317.69,2192.2,317.69,2192.2Z"/><path class="v" d="M420.862,2180.15s8.621-6.522,9.026-12.077-8-20.7-8-20.7,5.044,14.369,2.769,19.644A77.973,77.973,0,0,0,420.862,2180.15Z"/><path class="x" d="M662.349,2200.928a21.935,21.935,0,0,0,43.871,0H662.349Z"/><path class="y" d="M684.284,2178.992v21.936H706.22A21.936,21.936,0,0,0,684.284,2178.992Z"/><path class="z" d="M684.284,2178.992a21.936,21.936,0,0,0-21.935,21.936h21.935Z"/><path class="aa" d="M679.8,2213.114H659.523a2.049,2.049,0,0,1-2.049-2.048V2190.79a2.05,2.05,0,0,1,2.049-2.049H679.8a2.05,2.05,0,0,1,2.049,2.049v20.276A2.049,2.049,0,0,1,679.8,2213.114Z"/><path class="a" d="M670.481,2194.849h-5.7v12.187h2.467v-4.291h2.773a4.141,4.141,0,0,0,4.14-4.14v-.071A3.685,3.685,0,0,0,670.481,2194.849Zm1.093,4.078a1.9,1.9,0,0,1-1.9,1.9h-2.425v-4.052h2.425a1.9,1.9,0,0,1,1.9,1.9Z"/></g></svg>