<svg xmlns:xlink="http://www.w3.org/1999/xlink" xmlns="http://www.w3.org/2000/svg" width="1366" height="768.002" viewBox="0 0 1366 768.002"><defs><style>.a,.v{fill:none;}.b{fill:#ccc1d8;}.c{fill:#e5ddef;}.d{fill:#000;}.e{fill:#adadad;}.f{fill:#cccdd2;}.g{fill:#363636;}.h,.i{fill:#caa267;}.h{fill-rule:evenodd;}.j{fill:#c2934e;}.k{fill:#8a7cc7;}.l{fill:#f1c759;}.m{opacity:0.15;}.ah,.m,.q{isolation:isolate;}.n{fill:#5e5584;}.o{fill:#5e5587;}.p{opacity:0.3;}.q{opacity:0.5;}.r{fill:#eec459;}.s{fill:#959595;}.t{fill:#c8c8c8;}.u{fill:#7f7f7f;}.v{stroke:#8a7cc7;stroke-miterlimit:10;stroke-width:0.75px;}.w{fill:#69676a;}.x{clip-path:url(#a);}.y{fill:#b5b5b5;}.z{fill:#333;}.aa{fill:#d80100;}.ab{fill:#8fff3c;}.ac{fill:#4b3d64;}.ad{fill:#d2512a;}.ae{fill:#90b72b;}.af{fill:#5ca2eb;}.ag{fill:#ecb72b;}.ah{font-size:23.56px;font-family:MicrosoftTaiLe-Bold, Microsoft Tai Le;font-weight:700;}.ai{fill:#7bd6d6;}.aj{fill:#60a9b0;}.ak{fill:#df9466;}.al{fill:#bb4972;}.am{fill:#efc87e;}</style><clipPath id="a"><path class="a" d="M743.49,575.47l-8.58-26.79,31.88-2.2,8.58,26.79Z"/></clipPath></defs><g transform="translate(0 0.002)"><path class="b" d="M1366,.09V756.2l-242.22-75.33-1.24-.25-31.75-6.44.07-25,1.56-570.5,30.12-27.28,1.79-.79,111-50.47H1360.9C1362.63-.32,1364.33.52,1366,.09Z"/><path class="b" d="M316.3,67.32,300.65,646.35l-.4,14.71-26.88,7.1L.21,756.19V.09h183.7l89.46,31.22,25.68,8.58,12.68,20.17Z"/><path class="c" d="M697.98,28.49H273.37V687.32h849.17V28.49Z"/><path class="d" d="M1360.9.09c-55.54,14.42-135.82,34.44-236.57,50.47l-1.79.28A2806.683,2806.683,0,0,1,615,84.07a2785.183,2785.183,0,0,1-303.27-24q-19.58-2.64-38.36-5.45C165,38.37,76.59,17,11.84.09Z"/><path class="d" d="M0,712c121.66-34.1,335.7-82.92,615-90.22,353-9.2,622.43,52.86,751,88.32V768H.2Z"/><path class="e" d="M823.71,586.63h-344l50-60h254Z"/><rect class="e" width="16" height="138" transform="translate(491.71 586.63)"/><rect class="e" width="11" height="163" transform="translate(528.71 526.63)"/><rect class="e" width="11" height="163" transform="translate(771.71 526.63)"/><rect class="e" width="16" height="138" transform="translate(796.71 586.63)"/><path class="f" d="M709.35,577.63H563.66c-1.62,0-4.28-1-3.28-2.23l15.73-22.34a5.579,5.579,0,0,1,4.55-2H692.14a6,6,0,0,1,4.91,2.14l15.57,22C713.71,576.59,711.12,577.63,709.35,577.63Z"/><path class="g" d="M694.22,571.77H577.58c-1.29,0-2.28-.5-2.08-1l4.92-13.2c.27-.71,1.7-1.24,3.37-1.24H689c1.49,0,2.76.47,3,1.1l4.51,13.27C696.65,571.25,695.59,571.77,694.22,571.77Z"/><rect class="f" width="121.63" height="0.61" transform="translate(575.17 558.57)"/><rect class="f" width="121.63" height="0.61" transform="translate(575.17 561.64)"/><rect class="f" width="121.63" height="0.61" transform="translate(575.17 565.32)"/><rect class="f" width="121.63" height="0.61" transform="translate(575.17 568.7)"/><rect class="f" width="20.27" height="0.92" transform="translate(583.819 573.012) rotate(-72.56)"/><rect class="f" width="20.27" height="0.92" transform="translate(592.719 573.012) rotate(-72.56)"/><rect class="f" width="20.194" height="0.917" transform="translate(597.186 570.873) rotate(-72.474)"/><rect class="f" width="20.27" height="0.92" transform="translate(606.85 573.017) rotate(-72.56)"/><rect class="f" width="20.27" height="0.92" transform="translate(614.221 573.016) rotate(-72.56)"/><rect class="f" width="20.27" height="0.92" transform="matrix(0.19, -0.982, 0.982, 0.19, 623.91, 573.353)"/><rect class="f" width="0.92" height="20.27" transform="translate(634.14 553.34)"/><rect class="f" width="0.92" height="20.27" transform="translate(681.81 553.928) rotate(-17.44)"/><rect class="f" width="0.92" height="20.27" transform="translate(673.205 553.936) rotate(-17.44)"/><rect class="f" width="0.92" height="20.27" transform="translate(664.61 553.933) rotate(-17.44)"/><rect class="f" width="0.92" height="20.27" transform="translate(656.006 553.931) rotate(-17.44)"/><rect class="f" width="0.92" height="20.27" transform="translate(647.411 553.928) rotate(-17.44)"/><rect class="f" width="0.92" height="20.27" transform="translate(638.806 553.936) rotate(-17.44)"/><path class="h" d="M991.59,341.5c-1.39-3.39-5.8-6-8.75-6.86a29.771,29.771,0,0,1-3.76-1.58c-2.29-.77,1.33,2.49,2.7,3,1.11.45,3.1,3.75,4.19,4.89s3.43,2.78,4.68,2.79S991.41,342.13,991.59,341.5Z"/><path class="h" d="M999.25,353.27c-2.65-4.77-4.64-10.43-9.74-12.79s-12.72-2.33-16.77-2.95c-4.76-.73-2.77.82-.26,1.49,1.63.44,6.91,2,8.55,2a52.3,52.3,0,0,0-6.88-1.12c-.39.11-7.95-2-7.43-.56,1,2.7,9.53,3,12.25,3.63-1.43-.05-3.77-.48-5.15-.54-1.17,0-4.71-1.34-5.06-.26-.55,1.7,8.19,2.8,9.35,2.9-1.15.92-5.53-.46-7.06-.57-.15,0-1.55.32.13.91a50.266,50.266,0,0,0,10.28,3c4,.59,8.75,1.22,11.44,4.89C995.05,353.15,997.16,353.53,999.25,353.27Z"/><path class="i" d="M1134.42,588.59s-9.28,95.73-5.33,97.37c7.08,3,34.79,12.82,4.24,10.66-15.7.95-14.54-2.56-14.79-5.53-.2-2.43.26-88.1-.38-94.76l-.23-2.39Z"/><path class="i" d="M1076.89,588.59s4,95.73.08,97.37c-7.08,3-34.79,12.82-4.24,10.66,15.7.95,14.54-2.56,14.79-5.53.2-2.43,2-20.86,2.63-27.52.14-1.49,3.22-76.36,3.22-76.36Z"/><path class="j" d="M1107.66,341.57s-.82,9.12,4.81,14.17-13,0-13,0,3.46-8.74,2.68-14.17S1107.66,341.57,1107.66,341.57Z"/><ellipse class="i" cx="9.84" cy="13.42" rx="9.84" ry="13.42" transform="translate(1094.85 318.26)"/><path class="k" d="M1024.59,399.56c14.89-31.15,41.47-45.36,58.43-49.13,7.34-1.64,12.89-1.31,14.91.43a11,11,0,0,0,6.87,2.67,14.907,14.907,0,0,0,3.86-.35,19.193,19.193,0,0,0,4.09-1.39c.63-.29,1-.5,1-.5a39.868,39.868,0,0,1,10.39.62c38.39,7.52,45.07,71.88,44.72,77.42-.21,3.29-3.62,18.22-7.87,31.49-3.49,10.89-7.56,20.67-10.91,22-7.43,3-63.5,7.09-75,1.59-.27-.2-.56-.42-.84-.66-4.33-3.52-9-10.47-11.51-17l-8-22.49v-.1a1.377,1.377,0,0,0-.15-.43l-.05-.15"/><path class="l" d="M1072.47,482.23a6.064,6.064,0,0,0,3.44,1.59c8.09.16,43,.76,62-.33,6.68-.38,11.38-1,12.2-1.88v.08c0,1-.65,13-1.49,28.67-1.66,30.94,1.54,75.24,5.27,88.69.81,2.9-42.59-1.49-42.59-1.49-.12-31.93,2.91-88,1-90.49-2.38-3.06-6.24,46.24-10.66,87.5-17.18,4.48-44.4,1.76-44.08,0C1061.2,573.64,1072.47,482.23,1072.47,482.23Z"/><path class="m" d="M1054.48,443.64l.05.15c.05.13.1.28.15.43v.1l8,22.49c2.49,6.51,7.18,13.46,11.51,17-2.94-10.63-12.09-41.45-11.74-53.87C1060.72,441.88,1054.48,443.64,1054.48,443.64Z"/><path class="m" d="M1144.24,399.12s-18.58,55.47,33,79l1,.7-.27-13s-24.29-33.9-24.39-34.77S1144.24,399.12,1144.24,399.12Z"/><path class="m" d="M1105.45,355.74c0,.89-.44,1.47-1.87,1.28-4.45-.61-9.48-.48-13.13,1.2a3.1,3.1,0,0,1-3-.13c-2.34-1.37-3.79-5.45-4.36-7.25a1.231,1.231,0,0,1-.06-.4c7.34-1.64,12.89-1.31,14.91.43a11,11,0,0,0,6.87,2.67A6.076,6.076,0,0,1,1105.45,355.74Z"/><path class="n" d="M1088.85,685c.18-1.38-9.65-1.25-10.76-.13s-20.71,5.17-20.32,11,27.55,1.24,29.49,1.11S1088.49,687.68,1088.85,685Z"/><path class="o" d="M1118,682.72c-.18-1.38,11.59.37,12.7,1.49s18.25,5.78,17.86,11.6-27.55,1.24-29.49,1.11S1118.34,685.44,1118,682.72Z"/><g class="p"><path d="M1104.71,484.13h0Z"/><path class="q" d="M1104.71,484.13c10.41.83,33.15-.64,33.15-.64,6.68-.38,11.38-1,12.2-1.88v.08c0,1-.65,13-1.49,28.67a7.683,7.683,0,0,1-1.09-.13,8.518,8.518,0,0,1-5.51-3.91,18.933,18.933,0,0,1-2.14-4.47C1132.07,487.08,1108,484.42,1104.71,484.13Z"/></g><path class="r" d="M1101,324s17,9.44,12-5.72C1109.47,307.77,1089.38,317.22,1101,324Z"/><path class="r" d="M1103.46,320.36s-9.53,5.65-8.61,11.32c0,0-2.1-16.93,7.37-17.36s13.14.49,12.3,18.39C1114.53,332.72,1111.78,318.48,1103.46,320.36Z"/><path class="r" d="M1101.82,314.43s.48-5.28,5.71-4.53,7.47,3.74,8.22,6.72,1.49,5.23,2.24,5.23c0,0-2.24,2.24-3,1.49,0,0,1.94,5.37-.52,9.78,0,0-1-6.8-4.71-7.54S1101.82,314.43,1101.82,314.43Z"/><path class="r" d="M1102.29,314.39s-3.74-2.24-7.47,3l-2.24,4.48s.75.75,2.24,0c0,0-.68,5.26,0,8.24l2.21-9Z"/><path class="s" d="M1080.13,415.67l9.47,60.69a6.48,6.48,0,0,0,7.4,5.4l41.42-6.47.29-.06a6.46,6.46,0,0,0,5.1-7.34l-9.47-60.69a6.47,6.47,0,0,0-7.393-5.391h-.007l-39.5,6.16-1.92.3a6.47,6.47,0,0,0-5.391,7.393Z"/><path class="t" d="M1082.35,415.31l9.47,60.69a6.47,6.47,0,0,0,7.393,5.391h.007l39.5-6.16a6.46,6.46,0,0,0,5.1-7.34l-9.47-60.69a6.47,6.47,0,0,0-7.393-5.391h-.007l-39.5,6.16A6.46,6.46,0,0,0,1082.35,415.31Z"/><circle class="u" cx="5" cy="5" r="5" transform="translate(1108.5 437.11)"/><path class="m" d="M1152.13,458.48s1-22.31-58.8-14.84,44.83,14.2,44.83,14.2Z"/><path class="h" d="M1098.89,452c-.71-.24-8.18-4.71-12.24-5.09s-10.11-.54-12.21-1.14c-2.46-.7-3.08.28-.25,1.36a40.013,40.013,0,0,0,6.45,1.83c.41,0-2.24-.34-5.11-.93-3.05-.63-6.36-1.49-6.51-.95-.29,1.05,8.49,3.42,10,3.59a39.115,39.115,0,0,1-4.08-.49c-1.84-.33-4-1-4.37-.6-.65.6,4,2.43,7.85,3,.07.12-1.18.32-5.7-.62-.45-.09-1.61.1-.12.79,3.14,1.45,4.38,2.3,8.92,2.45s9.32-.77,12.51.29Z"/><path class="h" d="M1088.61,447.31s-3.43-3.6-7.28-4.2a3.847,3.847,0,0,1-2.63-1.1c-1.3-.57,0,1.84,1.9,2.45,1.58.5,2.46,3.2,3.41,3.78s3.79,1.62,4.5,1.25S1088.61,447.31,1088.61,447.31Z"/><path class="k" d="M1162.81,361.46c14.07,12.59,23.81,24.29,29.89,62.76,3.08,19.52,2.28,39,1.48,49.33a12.16,12.16,0,0,1-8.36,10.58c-44.09,14.54-92.53-27.3-92.53-27.3-2.53-.94,2.56-9.94,2.56-9.94,24.38-.25,43.05.49,62.48,8-.1,0-19.1-35.73-21.67-45.58-6.73-25.82-28.9-48.16-23.16-58.28C1115.48,347.5,1148.62,348.76,1162.81,361.46Z"/><line class="v" x1="11.02" y2="115.23" transform="translate(1069.04 481.47)"/><line class="v" x1="10.93" y2="113.22" transform="translate(1080.06 483.78)"/><line class="v" x1="9.09" y2="112.42" transform="translate(1092.59 483.78)"/><line class="v" x2="0.23" y2="23.29" transform="translate(1111.98 483.78)"/><line class="v" x1="2.11" y2="114.7" transform="translate(1121.3 483.78)"/><line class="v" x1="0.59" y2="115.66" transform="translate(1132.65 483.71)"/><line class="v" x2="2.23" y2="116.33" transform="translate(1142.9 483.71)"/><path class="v" d="M1071,494.22s62.05,2.93,78.45,0"/><path class="v" d="M1112.21,507.07c-21.71,4.92-42.49-2.86-42.49-2.86"/><path class="v" d="M1112,505.6s19.59,5.51,36.8.86"/><path class="v" d="M1068.65,512.65s15.65,8.19,41.06,4"/><path class="v" d="M1067.37,522.71s24.35,7.43,41.14,3.61"/><path class="v" d="M1066.09,532.7s12.4,9.72,41.15,5.36"/><path class="v" d="M1064.59,544.19a60.33,60.33,0,0,0,41.7,3.14"/><path class="v" d="M1063.2,554.72s13.39,9.51,42,4"/><path class="v" d="M1061.75,565.51s18.48,9.66,42.57,1.86"/><path class="v" d="M1060.59,573.94s10.9,10.49,42.81,2.71"/><path class="v" d="M1059.22,583.5s17.63,9.29,43.24,2.42"/><path class="v" d="M1112.87,516.11s8.19,6.76,35.91,1.74"/><path class="v" d="M1113.08,526.29s11.49,5.36,35,1.13"/><path class="v" d="M1112.52,537.58s17.74,5.34,35.6,0"/><path class="v" d="M1112.27,546.94s17.24,7.66,36.2,0"/><path class="v" d="M1112,557.22s16.41,5.76,37,0"/><path class="v" d="M1111.71,567.09s13.84,6.21,37.88,0"/><path class="v" d="M1111.71,575.83s16.43,8.47,38.72.9"/><path class="v" d="M1111.32,586.75a76.005,76.005,0,0,0,40.33.47"/><path class="k" d="M1054.72,444.31s-45.48,19.3-56.52-22.31,4.14-50.81-10.12-68.05l9.2-7.12s31.72,16.78,41.15,43S1054.72,444.31,1054.72,444.31Z"/><rect class="w" width="19.32" height="22.43" transform="translate(626.25 519.05)"/><rect class="f" width="204.47" height="125.47" rx="4.99" transform="translate(531.24 394.42)"/><path class="g" d="M589.42,546.52v-3.85c0-2.13,19.73-3.86,44-3.86s44,1.72,44,3.86v3.85Z"/><rect class="g" width="36.72" height="4.56" transform="translate(616.99 511.35)"/><rect class="g" width="204.39" height="112.17" rx="4.99" transform="translate(531.24 394.42)"/><path class="d" d="M536.22,501.58l.02-102.18,194.4.02-.01,102.16Z"/><g class="x"><path class="u" d="M766.18,564.63c-1.39.1-3.69-.83-5.68-2.36-2.4-1.86-3.42-3.9-2.28-4.56a1.721,1.721,0,0,1,.74-.2c1.39-.1,3.69.83,5.68,2.36,2.4,1.86,3.42,3.9,2.28,4.56a1.721,1.721,0,0,1-.74.2M760,553.12l-8,4h0c.33.29.37.64.08.79l-.83.41a.625.625,0,0,1-.24.06,1.329,1.329,0,0,1-.9-.33h0l-8,4,8.92,9.06a14.62,14.62,0,0,0,10.3,3.17,12.121,12.121,0,0,0,4.53-1.16l3.8-1.89c4.41-2.19,4.93-6.64,1.15-9.94L760,553.12"/><path class="g" d="M745.11,552.41h0m-3.05-2.66-1.89.94c-4.41,2.19-3.8,6.08,0,9.38l1.91,1.94,8-4-5.3-4.62c-.33-.29-.37-.65-.08-.79l.15-.07-3-2.66.26-.13h0"/><path class="g" d="M747.76,547.79a10.073,10.073,0,0,0-3.8,1l-1.9.94h0l.27-.13,3,2.66-.27.13.41-.2a.624.624,0,0,1,.24-.06,1.337,1.337,0,0,1,.9.32l5.3,4.63,8-4-2.31-1.74a14,14,0,0,0-9.9-3.59"/><path class="u" d="M745.76,552.15a.624.624,0,0,0-.24.06l-.41.2h0l-.27.13h0l-.15.07c-.29.14-.26.5.08.79l5.3,4.62h0a1.329,1.329,0,0,0,.9.33.624.624,0,0,0,.24-.06l.83-.41c.29-.15.26-.5-.08-.79h0l-5.3-4.63a1.339,1.339,0,0,0-.9-.32"/><path class="u" d="M742.33,549.62l-.27.13-.26.14,3.04,2.66h0l.27-.14h0l.27-.13-3.05-2.66"/><path class="y" d="M759,557.5a1.721,1.721,0,0,0-.74.2c-1.14.66-.11,2.7,2.28,4.56,2,1.53,4.29,2.46,5.68,2.36a1.721,1.721,0,0,0,.74-.2c1.14-.66.11-2.7-2.28-4.56-2-1.53-4.29-2.46-5.68-2.36"/></g><path class="u" d="M901.62,720.15H839.75a6.091,6.091,0,0,1-6.09-6.09h0V578.87a6.091,6.091,0,0,1,6.09-6.09h61.87a6.091,6.091,0,0,1,6.09,6.09h0v135.2A6.089,6.089,0,0,1,901.62,720.15Z"/><path class="g" d="M907.71,712.42V642.76h-74v69.66c0,4.27,2.73,7.73,6.09,7.73h61.87C905,720.15,907.71,716.69,907.71,712.42Z"/><circle class="z" cx="1.86" cy="1.86" r="1.86" transform="translate(884.37 624.54)"/><circle class="aa" cx="1.46" cy="1.46" r="1.46" transform="translate(884.77 624.94)"/><circle class="ab" cx="1.45" cy="1.45" r="1.45" transform="translate(893.25 624.95)"/><rect class="g" width="65.04" height="16.91" rx="3.05" transform="translate(838.16 582.47)"/><rect class="g" width="65.04" height="16.91" rx="3.05" transform="translate(838.16 601.98)"/><rect width="6.01" height="2.79" transform="translate(894.7 604.88)"/><rect width="6.01" height="2.79" transform="translate(894.7 585.2)"/><path d="M833.66,712.16v1.91a6.091,6.091,0,0,0,6.09,6.09h61.87a6.091,6.091,0,0,0,6.09-6.09h0v-1.91Z"/><circle cx="2.2" cy="2.2" r="2.2" transform="translate(840.13 652.1)"/><circle cx="2.2" cy="2.2" r="2.2" transform="translate(849.47 652.1)"/><circle cx="2.2" cy="2.2" r="2.2" transform="translate(858.81 652.1)"/><circle cx="2.2" cy="2.2" r="2.2" transform="translate(868.15 652.1)"/><circle cx="2.2" cy="2.2" r="2.2" transform="translate(877.49 652.1)"/><circle cx="2.2" cy="2.2" r="2.2" transform="translate(886.83 652.1)"/><circle cx="2.2" cy="2.2" r="2.2" transform="translate(896.17 652.1)"/><circle cx="2.2" cy="2.2" r="2.2" transform="translate(840.13 660.34)"/><circle cx="2.2" cy="2.2" r="2.2" transform="translate(849.47 660.34)"/><circle cx="2.2" cy="2.2" r="2.2" transform="translate(858.81 660.34)"/><circle cx="2.2" cy="2.2" r="2.2" transform="translate(868.15 660.34)"/><circle cx="2.2" cy="2.2" r="2.2" transform="translate(877.49 660.34)"/><circle cx="2.2" cy="2.2" r="2.2" transform="translate(886.83 660.34)"/><circle cx="2.2" cy="2.2" r="2.2" transform="translate(896.17 660.34)"/><circle cx="2.2" cy="2.2" r="2.2" transform="translate(840.13 668.58)"/><circle cx="2.2" cy="2.2" r="2.2" transform="translate(849.47 668.58)"/><circle cx="2.2" cy="2.2" r="2.2" transform="translate(858.81 668.58)"/><circle cx="2.2" cy="2.2" r="2.2" transform="translate(868.15 668.58)"/><circle cx="2.2" cy="2.2" r="2.2" transform="translate(877.49 668.58)"/><circle cx="2.2" cy="2.2" r="2.2" transform="translate(886.83 668.58)"/><circle cx="2.2" cy="2.2" r="2.2" transform="translate(896.17 668.58)"/><circle cx="2.2" cy="2.2" r="2.2" transform="translate(840.13 676.82)"/><circle cx="2.2" cy="2.2" r="2.2" transform="translate(849.47 676.82)"/><circle cx="2.2" cy="2.2" r="2.2" transform="translate(858.81 676.82)"/><circle cx="2.2" cy="2.2" r="2.2" transform="translate(868.15 676.82)"/><circle cx="2.2" cy="2.2" r="2.2" transform="translate(877.49 676.82)"/><circle cx="2.2" cy="2.2" r="2.2" transform="translate(886.83 676.82)"/><circle cx="2.2" cy="2.2" r="2.2" transform="translate(896.17 676.82)"/><circle cx="2.2" cy="2.2" r="2.2" transform="translate(840.13 685.06)"/><circle cx="2.2" cy="2.2" r="2.2" transform="translate(849.47 685.06)"/><circle cx="2.2" cy="2.2" r="2.2" transform="translate(858.81 685.06)"/><circle cx="2.2" cy="2.2" r="2.2" transform="translate(868.15 685.06)"/><circle cx="2.2" cy="2.2" r="2.2" transform="translate(877.49 685.06)"/><circle cx="2.2" cy="2.2" r="2.2" transform="translate(886.83 685.06)"/><circle cx="2.2" cy="2.2" r="2.2" transform="translate(896.17 685.06)"/><circle cx="2.2" cy="2.2" r="2.2" transform="translate(840.13 693.3)"/><circle cx="2.2" cy="2.2" r="2.2" transform="translate(849.47 693.3)"/><circle cx="2.2" cy="2.2" r="2.2" transform="translate(858.81 693.3)"/><circle cx="2.2" cy="2.2" r="2.2" transform="translate(868.15 693.3)"/><circle cx="2.2" cy="2.2" r="2.2" transform="translate(877.49 693.3)"/><circle cx="2.2" cy="2.2" r="2.2" transform="translate(886.83 693.3)"/><circle cx="2.2" cy="2.2" r="2.2" transform="translate(896.17 693.3)"/><circle cx="2.2" cy="2.2" r="2.2" transform="translate(840.13 701.54)"/><circle cx="2.2" cy="2.2" r="2.2" transform="translate(849.47 701.54)"/><circle cx="2.2" cy="2.2" r="2.2" transform="translate(858.81 701.54)"/><circle cx="2.2" cy="2.2" r="2.2" transform="translate(868.15 701.54)"/><circle cx="2.2" cy="2.2" r="2.2" transform="translate(877.49 701.54)"/><circle cx="2.2" cy="2.2" r="2.2" transform="translate(886.83 701.54)"/><circle cx="2.2" cy="2.2" r="2.2" transform="translate(896.17 701.54)"/><path class="d" d="M205.82,255.65V461.42a.721.721,0,0,1-.6.71l-50.4,8-16,2.53L80.65,481.9a.721.721,0,0,1-.822-.6.773.773,0,0,1-.008-.108V235.88a.72.72,0,0,1,.722-.718.655.655,0,0,1,.108.008l58.17,9.24,16,2.53,50.4,8A.721.721,0,0,1,205.82,255.65Z"/><path class="ac" d="M205.25,254.93a.71.71,0,0,1,.58.68l1.61,50.21.8,25.68c.12,4.3.32,8.57.38,12.91s0,8.73,0,13.09l.2,104.5v2a.721.721,0,0,1-.6.71l-1.93.31-126,20-2.64.42a.721.721,0,0,1-.822-.6.773.773,0,0,1-.008-.108V232.36a.72.72,0,0,1,.722-.718.655.655,0,0,1,.108.008l2.64.42L96,234.57c5.25.84,10.5,1.67,15.76,2.44s10.47,1.86,15.7,2.83l15.67,3,15.76,3L174.81,249C185.14,251,195.25,253,205.25,254.93Zm.54.76a.72.72,0,0,0-.63-.74c-10.59-1.38-21.08-2.59-31.34-3.84l-15.62-1.89-15.75-2-15.83-2c-5.27-.69-10.56-1.27-15.8-2.17s-10.49-1.74-15.74-2.56l-14.21-2.26a.72.72,0,0,1-.35-1.25l1.1-.94a.72.72,0,0,1,1.18.55V480.48a.72.72,0,0,1-1.18.55l-1.1-.94a.72.72,0,0,1,.35-1.25l122.54-19.45a.72.72,0,0,1,.66,1.17h0a.72.72,0,0,1-1.26-.47L203,359.57c0-4.27-.07-8.5,0-12.79s.26-8.64.38-13l.8-26.07Z"/><rect class="ad" width="32.89" height="36.14" transform="translate(107.17 319.53)"/><rect class="ae" width="32.89" height="36.14" transform="translate(144.1 319.53)"/><rect class="af" width="32.89" height="36.14" transform="translate(107.17 359.62)"/><rect class="ag" width="32.89" height="36.14" transform="translate(144.1 359.62)"/><text class="ah" transform="translate(93.24 425.42)"><tspan style="fill:#fff" x="0" y="0">Microsoft</tspan></text><path class="ai" d="M664,478.82a39.892,39.892,0,0,0,9.19-37.1l-35.35,10.94Z"/><path class="aj" d="M635,454.67l-18.31,32.8a39.84,39.84,0,0,0,44.87-6.24Z"/><path class="ak" d="M637.81,408.86v35.7l25.25-25.25A39.7,39.7,0,0,0,637.81,408.86Z"/><path class="al" d="M672.15,438.47A39.835,39.835,0,0,0,664,424.92l-23.29,23.29Z"/><path class="am" d="M613.71,485.81l19.19-34.38V412.06a39.85,39.85,0,0,0-19.19,73.76Z"/></g></svg>