<svg xmlns="http://www.w3.org/2000/svg" width="616.087" height="427.44" viewBox="0 0 616.087 427.44"><defs><style>.a{fill:#b4d5d9;opacity:0.49;}.b,.e{fill:#d8a35d;}.b,.c{fill-rule:evenodd;}.c{fill:#c79657;}.d{fill:#d19442;}.f{fill:#927dcc;}.g{opacity:0.15;}.h{fill:#fdc64f;}.i{fill:#f7a64c;}.j{fill:#c5853c;}.k{fill:#cc5220;}.l{fill:#e9e9e9;}.m{fill:#8c94a1;}.n{fill:#3d3d3d;}.o{fill:#cecfd4;}.p{fill:#a8a8a8;}</style></defs><g transform="translate(-436.224 -342.442)"><path class="a" d="M563.508,453.17c76.8-61.534,115.193-92.3,151.242-102.311C835.191,317.415,1006.3,386.247,1043.924,511c1.958,6.49,27.762,96.633-22.241,155.689-41.866,49.447-94.535,27.1-249.1,53.38-165.484,28.138-205.373,70.8-262.449,37.881-54.038-31.168-83.337-106.933-71.173-166.881C448,546.483,486.628,514.771,563.508,453.17Z"/><g transform="translate(460.772 377.266)"><g transform="translate(101.151 31.124)"><path class="b" d="M571.694,444.654c-.345-1.179-1.4-15.378-4.66-21.251s-8.633-14.309-9.79-17.7c-1.359-3.987-4.437-7.77-2,.872.878,3.12,2.848,9.276,3.576,10.449.353.569-.335-.4-2.21-4.851-1.993-4.734-2.687,1.953-1.476,4.219,0,0,.34.244-1.162-3.064-1.275-2.81-4.693-1.829-1.836,3.9-.05.1-2.328-4.285-3.025-3.52-1.7,1.862.459,6.91,2.464,10.079,3.913,6.18,9.622,12.055,11.17,17.362Z" transform="translate(-548.493 -401.344)"/><path class="b" d="M566.94,425.314s1.136-6.708-.144-9.68c-1.514-3.509-2.157-2.851-5.458-4.651-1.877-1.16-2.3.877,2.226,3.709.8,2.608-2.208,3.361-2.078,5.169s1.384,6.63,2.525,7.27S566.94,425.314,566.94,425.314Z" transform="translate(-547.117 -400.231)"/><path class="c" d="M562.35,417.432s-2.817,4.1-2.884,7.058S556.863,415.751,562.35,417.432Z" transform="translate(-547.258 -399.44)"/></g><g transform="translate(110.486)"><path class="d" d="M726.9,420.736s-1.349,15.05,7.935,23.373-21.395,0-21.395,0,5.709-14.415,4.428-23.373S726.9,420.736,726.9,420.736Z" transform="translate(-538.099 -368.377)"/><ellipse class="e" cx="16.231" cy="22.144" rx="16.231" ry="22.144" transform="translate(167.67 13.906)"/><path class="f" d="M603.033,514.633c24.57-51.4,68.421-74.844,96.417-81.069,12.119-2.7,21.266-2.17,24.607.715a18.151,18.151,0,0,0,11.329,4.4,24.528,24.528,0,0,0,6.362-.579,31.641,31.641,0,0,0,6.743-2.293c1.036-.481,1.64-.826,1.64-.826a65.792,65.792,0,0,1,17.136,1.023c63.341,12.4,74.363,118.609,73.8,127.744-.346,5.437-5.968,30.067-12.994,51.963-5.757,17.974-12.476,34.111-18,36.343-12.254,4.932-104.776,11.7-123.8,2.627-.445-.334-.925-.691-1.381-1.085-7.139-5.806-14.881-17.272-18.985-28.009,0-.012-10.935-30.833-13.167-37.107-.025-.062-.037-.111-.062-.16-.074-.247-.16-.481-.246-.7-.025-.086-.062-.16-.086-.246" transform="translate(-551.305 -366.577)"/><path class="g" d="M647.08,573.17c.025.086.062.16.086.246.086.222.172.456.246.7.025.049.037.1.062.16,2.231,6.274,13.167,37.1,13.167,37.107,4.1,10.737,11.847,22.2,18.985,28.009-4.846-17.543-19.947-68.4-19.368-88.885C657.374,570.26,647.08,573.157,647.08,573.17Z" transform="translate(-546.036 -352.377)"/><path class="g" d="M779.95,505.129s-30.662,91.529,54.408,130.4l1.729,1.149-.439-21.528s-40.086-55.935-40.237-57.375S779.95,505.129,779.95,505.129Z" transform="translate(-530.786 -357.806)"/><path class="g" d="M726.158,442.317c.049,1.467-.727,2.428-3.081,2.108-7.348-1-15.644-.789-21.674,1.972a5.118,5.118,0,0,1-4.955-.209c-3.858-2.256-6.251-8.987-7.2-11.971a2.024,2.024,0,0,1-.1-.653c12.119-2.7,21.266-2.17,24.607.715a18.151,18.151,0,0,0,11.329,4.4A9.992,9.992,0,0,1,726.158,442.317Z" transform="translate(-541.004 -366.577)"/><g transform="translate(163.917)"><g transform="translate(3.425 6.174)"><path class="h" d="M716.267,396.226s28.1,15.579,19.758-9.434C730.256,369.486,697.1,385.075,716.267,396.226Z" transform="translate(-705.809 -379.06)"/><path class="h" d="M720.828,390.131s-15.722,9.328-14.2,18.685c0,0-3.467-27.938,12.165-28.64s21.684.806,20.3,30.349C739.084,410.526,734.542,387.025,720.828,390.131Z" transform="translate(-706.296 -378.941)"/></g><path class="h" d="M716.845,381.137s.789-8.705,9.418-7.472,12.328,6.165,13.562,11.1,2.465,8.63,3.7,8.63c0,0-3.7,3.7-4.932,2.465,0,0,3.2,8.866-.865,16.145,0,0-1.6-11.213-7.763-12.447S716.845,381.137,716.845,381.137Z" transform="translate(-701.608 -373.545)"/><path class="h" d="M719.262,380.343s-6.165-3.7-12.328,4.931l-3.7,7.4s1.233,1.233,3.7,0c0,0-1.123,8.686.055,13.589l3.643-14.822Z" transform="translate(-703.236 -372.826)"/></g><path class="g" d="M816.4,594.52s-15.858-33.258-97.166,23.908S795.541,604.4,795.541,604.4Z" transform="translate(-540.192 -348.264)"/><path class="f" d="M658.269,588.96S583.227,620.8,565.02,552.137s.731-85.124-6.672-118.547l12.071-5.811s45.431,28.009,60.983,71.252S658.269,588.96,658.269,588.96Z" transform="translate(-556.831 -367.058)"/></g><path class="i" d="M458.149,704.543H973.406l-77.785-71.828H527.4l-4.832,8.864Z" transform="translate(-458.149 -342.544)"/><path class="g" d="M648.876,632.715c6.514,6.8,23.473,18.572,64.611,22.384,59.079,5.468,141.887-22.384,141.887-22.384Z" transform="translate(-435.335 -342.544)"/><g transform="translate(238.977 65.144)"><g transform="translate(0 216.262)"><path class="b" d="M720.862,640.874c-1.169-.392-13.5-7.778-20.19-8.395s-16.687-.9-20.14-1.878c-4.061-1.155-5.086.458-.408,2.244,3.041,1.161,9.27,2.96,10.651,3.016.668.027-3.688-.559-8.424-1.539-5.034-1.044-10.5-2.463-10.745-1.566-.485,1.739,14.017,5.648,16.572,5.925a64.246,64.246,0,0,1-6.736-.816c-3.04-.539-6.523-1.616-7.208-.984-1.078.993,6.6,4.006,12.949,4.887.111.2-1.939.526-9.408-1.026-.751-.156-2.662.172-.2,1.309,5.174,2.393,7.223,3.8,14.72,4.036,7.311.228,15.38-1.276,20.639.487Z" transform="translate(-671.594 -624.25)"/><path class="b" d="M702.283,633.774s-5.661-5.945-12.017-6.926c-3.779-.583-3.69-1.534-4.334-1.818-2.138-.942-.068,3.029,3.141,4.046,2.609.827,4.065,5.285,5.634,6.231s6.26,2.679,7.43,2.066S702.283,633.774,702.283,633.774Z" transform="translate(-669.984 -624.887)"/></g><path class="f" d="M818.943,451.769c23.221,20.778,39.288,40.074,49.312,103.556,5.085,32.207,3.761,64.415,2.436,81.4A20.065,20.065,0,0,1,856.9,654.172c-72.755,24-150.416,19.206-150.416,19.206-4.166-1.551.328-16.624.328-16.624,37.223-50.517,90.421-42.023,104.733-50.884,4.464-26.186-31.509-58.956-35.752-75.2-11.11-42.6-47.679-79.463-38.217-96.158C740.846,428.735,795.519,430.811,818.943,451.769Z" transform="translate(-667.633 -431.73)"/></g><rect class="j" width="515.257" height="17.372" transform="translate(0 361.999)"/></g><g transform="translate(540.269 549.738)"><g transform="translate(210.61 73.743)"><path class="k" d="M718.711,595.869h0a.693.693,0,0,0,.409-.887l-.562-1.526-1.3.477.562,1.526A.692.692,0,0,0,718.711,595.869Z" transform="translate(-717.262 -593.456)"/></g><g transform="translate(203.394 76.391)"><path class="k" d="M712.26,598.245h0a.693.693,0,0,0,.41-.887l-.562-1.526c-.038-.1-1.291.492-1.291.492l.556,1.511A.693.693,0,0,0,712.26,598.245Z" transform="translate(-710.817 -595.82)"/></g><g transform="translate(210.653 72.849)"><path class="l" d="M718.845,595.665h0a.693.693,0,0,0,.41-.887l-.616-1.67a.692.692,0,0,0-.886-.409h0a.692.692,0,0,0-.41.887l.615,1.669A.694.694,0,0,0,718.845,595.665Z" transform="translate(-717.301 -592.657)"/></g><g transform="translate(203.447 75.503)"><path class="l" d="M712.409,598.035h0a.692.692,0,0,0,.409-.887l-.615-1.669a.694.694,0,0,0-.887-.41h0a.692.692,0,0,0-.409.887l.615,1.67A.692.692,0,0,0,712.409,598.035Z" transform="translate(-710.865 -595.027)"/></g><g transform="translate(209.687 91.794)"><rect class="m" width="4.527" height="2.935" transform="translate(0 1.564) rotate(-20.217)"/></g><g transform="translate(207.751 86.94)"><rect class="m" width="4.527" height="2.935" transform="translate(0 1.564) rotate(-20.217)"/></g><g transform="translate(0 123.95)"><path class="n" d="M534.754,697.742H764.706c2.554,0,5.25-1.288,5.524-5.038v-3.445l-25.171-46.511a8.01,8.01,0,0,0-7.176-4.448H561.912c-3.284,0-10.524,6.467-11.992,9.4l-20.766,42.332v1.519C529.1,695.964,531.953,697.742,534.754,697.742Z" transform="translate(-529.153 -638.299)"/></g><g transform="translate(0.001 119.081)"><path class="o" d="M534.733,693.393H764.685c2.554,0,6.757-2.239,5.178-4.992l-24.825-50a8.01,8.01,0,0,0-7.176-4.448H561.892a8.666,8.666,0,0,0-7.753,4.793l-24.574,49.174C527.842,691.052,531.933,693.393,534.733,693.393Z" transform="translate(-529.154 -633.95)"/></g><g transform="translate(27.609)"><rect class="o" width="188.313" height="118.994" rx="6.149"/></g><g transform="translate(34.906 6.49)"><rect class="n" width="173.786" height="103.109"/></g><g transform="translate(85.902 155.427)"><path class="n" d="M607.2,687.346h67.756a1.222,1.222,0,0,0,1.207-1.415l-2.857-17.847a1.985,1.985,0,0,0-1.959-1.672H610.233a1.744,1.744,0,0,0-1.725,1.492l-2.619,17.948A1.323,1.323,0,0,0,607.2,687.346Z" transform="translate(-605.878 -666.413)"/></g><g transform="translate(25.865 127.308)"><path class="p" d="M555.85,665.736h184.1c2.042,0,3.6-.785,3.278-1.651l-7.763-20.835c-.419-1.124-2.676-1.952-5.325-1.952H564.089c-2.352,0-4.349.742-4.689,1.742l-7.115,20.953C552.007,664.917,553.681,665.736,555.85,665.736Z" transform="translate(-552.255 -641.298)"/></g><g transform="translate(25.38 122.657)"><g transform="translate(0 8.242)"><rect class="o" width="191.985" height="0.97" transform="translate(191.985 0.97) rotate(-180)"/></g><g transform="translate(0 13.09)"><rect class="o" width="191.985" height="0.97" transform="translate(191.985 0.97) rotate(-180)"/></g><g transform="translate(0 18.908)"><rect class="o" width="191.985" height="0.97" transform="translate(191.985 0.97) rotate(-180)"/></g><g transform="translate(0 24.241)"><rect class="o" width="191.985" height="0.97" transform="translate(191.985 0.97) rotate(-180)"/></g><g transform="translate(167.347 0.517)"><rect class="o" width="1.454" height="31.997" transform="translate(10.977 30.527) rotate(162.561)"/></g><g transform="translate(153.287 0.517)"><rect class="o" width="1.454" height="31.997" transform="translate(10.977 30.527) rotate(162.561)"/></g><g transform="translate(142.136 0.517)"><rect class="o" width="1.454" height="31.997" transform="translate(10.977 30.527) rotate(162.561)"/></g><g transform="translate(130.986 0.517)"><rect class="o" width="1.454" height="31.997" transform="translate(10.977 30.527) rotate(162.561)"/></g><g transform="translate(119.35 0.517)"><rect class="o" width="1.454" height="31.997" transform="translate(10.977 30.527) rotate(162.561)"/></g><g transform="translate(107.503 0.154)"><rect class="o" width="1.454" height="31.997" transform="translate(7.521 31.412) rotate(169.022)"/></g><g transform="translate(97.447)"><rect class="o" width="1.454" height="31.997" transform="translate(1.454 31.997) rotate(-180)"/></g><g transform="translate(12.692 0.518)"><rect class="o" width="1.454" height="31.997" transform="translate(1.388 30.963) rotate(-162.561)"/></g><g transform="translate(26.267 0.518)"><rect class="o" width="1.454" height="31.997" transform="translate(1.388 30.963) rotate(-162.561)"/></g><g transform="translate(39.841 0.518)"><rect class="o" width="1.454" height="31.997" transform="translate(1.388 30.963) rotate(-162.561)"/></g><g transform="translate(53.416 0.518)"><rect class="o" width="1.454" height="31.997" transform="translate(1.388 30.963) rotate(-162.561)"/></g><g transform="translate(66.991 0.518)"><rect class="o" width="1.454" height="31.997" transform="translate(1.388 30.963) rotate(-162.561)"/></g><g transform="translate(80.565 0.518)"><rect class="o" width="1.454" height="31.997" transform="translate(1.388 30.963) rotate(-162.561)"/></g></g></g></g></svg>