<svg xmlns="http://www.w3.org/2000/svg" width="129.201" height="77.458" viewBox="0 0 129.201 77.458"><g transform="translate(-555.731 -310)"><g transform="translate(555.731 310)"><path d="M548.928,293.42h0c.929,2.115,1.14,4.812,1.35,7.5.065.838.131,1.674.216,2.476l8.651-8.274.266-.253.359.063a269.115,269.115,0,0,1,27.5,6.863l2.727.783.577.165-.053.595c-.192,2.183-.435,4.612-.678,7.044-.366,3.657-.733,7.321-.991,11q.779-2.793,1.629-5.573c1.252-4.1,2.6-8.151,4.02-12.163l.113-.318.316-.12a40.265,40.265,0,0,1,5.657-1.537c1.456-.319,2.912-.64,4.313-1.08l.029-.01.056-.011h0c3.7-.679,7.4-1.551,11.1-2.418,5.091-1.2,10.162-2.389,15.331-3.1l.737-.1.081.74h0c.745,6.571,1.412,13.455,2.076,20.281.292,3.006.583,6,.892,9.09l.062.612-.595.16h0v0a30.729,30.729,0,0,1-5.28.813c-.6.057-1.193.114-1.774.181,1.185,1.44,2.114,2.428,3.06,3.436,2.1,2.233,4.285,4.558,9.6,12.149l.218.312-.133.356h0l0,.005c-.078.2-.2.562-.342.978-.823,2.414-2.318,6.8-5.473,8.745l-.16.1-.187.01-24.138,1.2q-.644.952-1.351,1.964-.869,1.242-1.635,2.3c-2.871,3.969-6.029,7.993-9.088,11.546l-.413.48-.532-.347a123.206,123.206,0,0,0-11.842-6.729c-3.864-1.942-7.816-3.73-11.739-5.418a21.264,21.264,0,0,1-4.287,5.44c-2.066,1.729-4.545,2.574-7.4,1.16l-.118-.058-.1-.1c-3.195-3.49-4.556-7.514-5.977-11.714l-.1-.3c-6.057.539-11.684,4.637-13.915,6.261l-.137.1-.659.481-.4-.71h0l-.006-.011c-.33-.614-.891-1.474-1.494-2.4a27.564,27.564,0,0,1-2.67-4.664l-.123-.352.214-.3a12.872,12.872,0,0,1,2.119-2.244,7.2,7.2,0,0,0,2.521-3.511,11.26,11.26,0,0,0,.544-3.64,8.913,8.913,0,0,0-.842-3.488,42.266,42.266,0,0,0-5.731-.094c-.3.009-.584.018-.881.025-1,.025-1.019-.364-1.064-1.115,0-.053-.006-.112-.013-.176a14.342,14.342,0,0,1-1.134,1.067,9.109,9.109,0,0,0-1.326,1.317l-.444.61-.589-.465a4.885,4.885,0,0,0-1.99-.815c-1.256-.3-2.279-.542-2.549-2.181l-.008-.044v-.058a5.094,5.094,0,0,1,.175-1.524,2.759,2.759,0,0,1,.9-1.417,2.62,2.62,0,0,1,1.631-.554,4.23,4.23,0,0,1,.837.072,2.69,2.69,0,0,1,.533-.59,2.388,2.388,0,0,1,1.357-.531,2.7,2.7,0,0,1,.809.07,29.2,29.2,0,0,0-2.144-5.677l-.246-.472.377-.377h0c1.006-1.139,2.036-2.412,3.068-3.687,1.315-1.625,2.631-3.251,4.08-4.794-.693-3.013-1.363-5.987-2-8.9-.657-3-1.309-6.082-1.953-9.273l-.106-.522.467-.254v0q.974-.535,2.026-1.024t2.088-.9a39.887,39.887,0,0,1,11.416-2.586l.514-.04.207.475Zm18.7,31-.414-2.378a6.48,6.48,0,0,0-1.016,1.9c-.074.215-.135.417-.182.605a9.912,9.912,0,0,0,1.054-.072c.186-.019.371-.039.557-.054Zm52-5.729c-1.494-.128-3.019-.159-4.574-.162a16.4,16.4,0,0,0-4.369,3.8,34.36,34.36,0,0,0-2.932,4.171,19.782,19.782,0,0,0,4.256-.341,21.719,21.719,0,0,1,4.093-.363h0l.156.006.136.067a1.278,1.278,0,0,1,.685.743c.449-.508.876-1.034,1.3-1.556a21.452,21.452,0,0,1,3.056-3.282l.185-.162h.269a3.148,3.148,0,0,1,2.552,1.515c-.022-.375-.053-.754-.094-1.131a13.244,13.244,0,0,0-.534-2.626,25.76,25.76,0,0,0-4.185-.68Zm-22.086,15.444-1.1-2.175q-.473,1.279-.938,2.572a3.189,3.189,0,0,1,2.038-.4Zm-1.821,4.142a3.036,3.036,0,0,1-1.211-.889c-.466,1.385-.906,2.783-1.308,4.2.007.051.014.1.022.149,1.07-.947,2.14-1.94,3.208-2.953l-.142-.155a2.4,2.4,0,0,0-.569-.353Zm-.738,16.7H594.9l-.069.006.095.044.051-.05Zm-39.867-37.63c.249-.746.5-1.485.715-2.21-.255.173-.512.346-.768.518a35.355,35.355,0,0,0-3.392,2.481,33.668,33.668,0,0,0,.275,3.5c.127,1.119.253,2.234.275,3.334l.107,0c.338-.017.682-.033,1.022-.061a27.866,27.866,0,0,1,1.765-7.553Zm8.938,19.629-.336-.014c0,.441.033.906.069,1.368.031.406.063.811.069,1.216.3.026.638.022.98.017.209,0,.418-.005.628,0l-1.411-2.584Zm60.157.811c-.151-.141-.3-.273-.438-.4l-2.143,2.346c1.2-.108,2.422-.279,3.633-.449l.365-.051c-.448-.5-.924-.994-1.417-1.451Zm-58.185,14.591c-.1-.024-.2-.047-.3-.069a4.983,4.983,0,0,0,.239.54c.019-.165.04-.323.063-.472Z" transform="translate(-519.746 -292.945)" fill="#1e0f00"/><path d="M548.439,294.841c.262.061.7-.179.785.183,1.412,10.17,1.97,20.523,2.776,30.936l-10.567.484c-2.205-9.385-4.176-18.588-5.993-28.03a41.015,41.015,0,0,1,13-3.574Z" transform="translate(-521.011 -293.17)" fill="#c76cab" fill-rule="evenodd"/><path d="M572.944,303.859c4.782.605,6.356,5.327,6.661,9.442a1.375,1.375,0,0,0,2.419-.484c-2.754.545-1.979-2.142-.208-3.586,2.418-1.97,4.639,0,5.584,2.352,1.423,3.546,1.424,7.38,1.334,11.307-.411,17.927-13.52,37.789-17.364,40.946-1.273.589-2.725,1.286-4.1.667-3.627-3.042-5.166-7.868-6.116-12.271a20.583,20.583,0,0,1,6.386.239c1.1,1.456,1.164,4.573,3.4,4.708,2.179-6.343,2.846-13.244,3.025-19.9.4.091.813,1.118,1.114.883,1.276-.993,2.8-1.6,3.306-3.123a1.6,1.6,0,0,0-.968-1.513c-.759-.627-1.238.751-1.557.387-.554-.632-1.06-.984-2.017.219a54.366,54.366,0,0,0-1.33-13.2c-2.363-.663-3.147,3.814-4.176,5.571-3.126.062-6.3.122-9.307.362,1.229-8.657,4.4-20.4,13.906-23Z" transform="translate(-523.842 -294.254)" fill="#c76cab" fill-rule="evenodd"/><path d="M551.795,342.178l1.743.121c.706,1.814.658,3.814,1.482,5.567,3.287-.484,6.931-1.207,10.576-.846,1.456-.362,3.33.906,4.3-.245l-2.546-4.477a9.773,9.773,0,0,1,1.879.118c.667-.061.968.366,1.574.427-.423,4.6-.906,9.141-1.451,13.68-10.194-3.048-18.3.36-26.622,5.854a37.364,37.364,0,0,1-2.546-4.276c1.757-3.575,6.207-6.482,4.524-10.719l-.771-4.481a63.979,63.979,0,0,1,6.874-.6,4.609,4.609,0,0,0-1.988,1.269,1.444,1.444,0,0,0-2.3.728c.24,1.874,3.043.784,3.575,2.419.824-1.33,3.7-2.843,1.351-4.3-.458-.179.249-.118.345-.239Z" transform="translate(-521.58 -298.851)" fill="#c76cab" fill-rule="evenodd"/><path d="M604.31,294.908c1.391-.3,3.086,1.334,2.419,2.664-1.09.849-2.725.788-3.693,1.817-.483-1.15-2-1.273-2.968-2-.545-.972.789-1.517,1.517-1.635l.484-.061c.846.846,1.33-.729,2.241-.789Z" transform="translate(-528.748 -293.176)" fill="#1e0f00" fill-rule="evenodd"/><path d="M604.556,295.323c.968-.118,2.241.912,1.879,1.94a14.348,14.348,0,0,1-3.269,1.391,3.609,3.609,0,0,0-1.09-.785c-.545-.244-1.512-.305-1.573-1.029a2.239,2.239,0,0,1,1.635-.667c.422.062.061.785.545.728a3.239,3.239,0,0,1,1.875-1.578Z" transform="translate(-528.815 -293.229)" fill="#b25c4f" fill-rule="evenodd"/><path d="M635.845,335.316c-.714-.131-1.588-.987-2.173-.178-.7.976-2.592-1.483-2.971,1.813.745,1.736,2.9.877,3.931,2.321a4.742,4.742,0,0,0,1.518-3.59c1.875,2.6,4,5.144,5.632,7.869-.912,2.725-3.152,4.843-4.787,7.144-14.167,1.757-28.09,2-42.44,2.969a22.126,22.126,0,0,1-6.661,3.069l-5.933-8.7a80.761,80.761,0,0,0,5.331-14.046A53.944,53.944,0,0,0,588.928,318c.484-5.933-2.785-13.5-9.69-9.987-1.635-3.269-5.567-6.661-9.5-5.271-5.715,4.059-9.1,10.414-15.541,13.745l-.728-10.17c3.256-3.091,6.194-6.6,9.908-9.146,9.991,1.15,19.254,4.725,28.823,7.026-.428,10.292-2,21.068-2.241,31.177.605.606.846-.3.846-.723,2.362-10.113,4.721-20.283,8.6-30.03,11.442-2.6,23.007-5.388,34.633-7.507,1.212,7.629,1.935,15.619,2.663,23.488a11.325,11.325,0,0,0,.183,2.062c.545,3.448-4.9,1.7-7.266,2.48a52.966,52.966,0,0,1-1.273-7.628c-8.841-3.753-17.07,2-19.194,10.775,3.213.729,6.722-.422,9.991-.605.362,2.3.85,4.542,1.151,6.844-4.481,3.509-10.292,6.115-14.412,9.93,7.267-.484,14.229-2.484,21.556-3.151,1.274-.545,3.331.183,4.237-.723-1.513-1.574-3.269-3.148-4.66-4.9-1.395.667-1.94,2.3-3.209,3.269-1.516,1.814-3.151,3.209-5.631,3.147.846-.906,3.453-2.3,1.817-3.753-.992-.23-1.924-.283-2.63,1.525-.357-.185-1.071-1.106-2.818.532-.546,2.058,3.752.667,2.842,1.817a32.415,32.415,0,0,1-4.237.785c-1.875.366-4.1.121-1.624-1.274,2.785-2.241,6.594-4.2,9.5-6.256-.41-2.118-.52-3.773-.729-5.848a53.575,53.575,0,0,1,5.266-5.932,30.209,30.209,0,0,1,3.7,3.692,102.631,102.631,0,0,1,6.595,7.929Zm-10.409-29.18a5.022,5.022,0,0,1,.784,3.875c-4.843.606-10.048-.061-14.529,1.574-3.091,4.3-6.783,8.3-9.263,12.956-.483.244-.667,1.029-1.273,1.09-.061-.122-.183-.24-.183-.362,1.817-3.937,3.513-8.052,4.965-12.171,6.238-3.086,13.2-4.237,19.5-6.961ZM600.671,326.9a.345.345,0,0,1,.423.24,5.418,5.418,0,0,0,.483,5.631,2.087,2.087,0,0,0,3.392.968c1.451-.3,3.086-2.18,4.421-1.39-4.237,4.237-9.08,8.052-13.139,12.41-.183,0-.362.122-.545.061a7.293,7.293,0,0,1-.667-3.569c.484-1.818,1.456-3.514,1.94-5.331,1.09-3.086,1.875-6.234,3.692-9.02Z" transform="translate(-523.173 -293.445)" fill="#c76cab" fill-rule="evenodd"/><path d="M537.992,321.057a61.922,61.922,0,0,1,1.9,9.2c3.814.122,7.92-.3,11.91-.362,5.758-.183,11.695-.667,17.5-.667.122,3.209.606,6.233.362,9.324-11.411-.967-22.868-.061-34.31.724a62.043,62.043,0,0,1-3.709-10.715,78.04,78.04,0,0,1,6.355-7.506Z" transform="translate(-520.555 -296.317)" fill="#c76cab" fill-rule="evenodd"/><path d="M536.423,330.066c.362-.062.623.244.846.484.868-.484,1.9.605,1.5,1.456-.671.362-1.47.466-1.813,1.353a3.163,3.163,0,0,1-1.749-1.658c-.109-.784.623-1.391,1.212-1.634Z" transform="translate(-520.982 -297.397)" fill="#1e0f00" fill-rule="evenodd"/><path d="M536.5,330.685c.458-.061.214.244.122.545.257.366.854-.239,1.268-.239a.646.646,0,0,1,.536.723l-1.665.911c-.946-.305-1.308-1.574-.261-1.94Z" transform="translate(-521.063 -297.471)" fill="#b25c4f" fill-rule="evenodd"/><path d="M553.975,331.924a1.977,1.977,0,0,1,1.321.728c.654,2.725-3.082,2.908-4.115,4.844-.765-.931-3.57-2.03-3.379-3.57a2.1,2.1,0,0,1,3.379-.728,4.174,4.174,0,0,1,2.794-1.273Z" transform="translate(-522.493 -297.621)" fill="#1e0f00" fill-rule="evenodd"/><path d="M553.924,332.473a1.266,1.266,0,0,1,1.077.488c.157,2.179-2.751,2.419-3.862,3.87l-.68-.6c-.92-.366-2.183-.85-2.105-2.062a1.563,1.563,0,0,1,2.48-.663l.14.545c.122.056.226-.061.335-.061a3.313,3.313,0,0,1,2.616-1.517Z" transform="translate(-522.56 -297.685)" fill="#b25c4f" fill-rule="evenodd"/><path d="M654.031,332.543c2.724-.117,1.757,3.635-.062,4.36-.3.483-.545,1.089-1.089,1.273-.179-1.334-1.635-1.513-2.6-2.18-.846-1.212.911-3.086,2-1.879a3.205,3.205,0,0,1,1.753-1.574Z" transform="translate(-534.759 -297.694)" fill="#1e0f00" fill-rule="evenodd"/><path d="M654.221,333.029c2.119.179.907,2.964-.422,3.509l-.606.789c-.667-.972-2.058-.972-2.541-1.94-.245-.845,1.207-1.7,1.329-.666.305-.484.366-.057.729.061a2.144,2.144,0,0,1,1.512-1.752Z" transform="translate(-534.827 -297.753)" fill="#b25c4f" fill-rule="evenodd"/><path d="M638.293,333.648c2.363.362.907,3.086-.244,3.932-.545-1.029-2.058-.545-2.6-1.574-.122-.846.789-1.391,1.513-1.269a2.562,2.562,0,0,1,1.333-1.089Z" transform="translate(-533.006 -297.827)" fill="#1e0f00" fill-rule="evenodd"/><path d="M560.637,333.845c1.125-.239,2.816.484,2.471,1.818-.937,1.634-2.99,2.179-4.106,3.452a26.294,26.294,0,0,0-2.462-2.062c-.711-1.513,1.054-2.241,2.21-1.753a3.386,3.386,0,0,1,1.888-1.456Z" transform="translate(-523.522 -297.846)" fill="#1e0f00" fill-rule="evenodd"/><path d="M638.422,334.2c1.513.3.484,2.118-.362,2.6-.606-.484-1.635-.244-2.062-.968.244-.789.911-.427,1.395-.545.061-.545.606-.911,1.029-1.09Z" transform="translate(-533.073 -297.893)" fill="#b25c4f" fill-rule="evenodd"/><path d="M560.9,334.33c.754-.056,1.875.184,1.875,1.09-.8,1.395-2.385,2.062-3.693,2.785-.6-.663-2.65-.906-1.918-2.241a2.374,2.374,0,0,1,1.918.122,2.921,2.921,0,0,1,1.818-1.757Z" transform="translate(-523.598 -297.908)" fill="#b25c4f" fill-rule="evenodd"/><path d="M567.467,335.778a1.529,1.529,0,0,1,1.395,1.451c-.4.972-1.556,1.273-2.406,1.7-.009.305.2.85-.319.789l-.8-.606a1.1,1.1,0,0,1-.663-.422c-1.883-.484-.1-3.269,1.207-2.058a2.853,2.853,0,0,1,1.587-.85Z" transform="translate(-524.419 -298.083)" fill="#1e0f00" fill-rule="evenodd"/><path d="M623.715,335.847c2,.122,1.94,2.908.183,3.452a9.413,9.413,0,0,0-1.879,1.452c-.3-.062-.179-.423-.422-.606-1.029-.422-2.542-1.029-2.119-2.419a2.169,2.169,0,0,1,2.786-.667,1.852,1.852,0,0,1,1.451-1.212Z" transform="translate(-531.083 -298.091)" fill="#1e0f00" fill-rule="evenodd"/><path d="M542.785,335.913c.872-.184,1.914.483,1.565,1.451a6.489,6.489,0,0,1-1.909,1.513c-.531-.846-1.883-.6-2.136-1.574a1.438,1.438,0,0,1,2-1.09l.483-.3Z" transform="translate(-521.595 -298.095)" fill="#1e0f00" fill-rule="evenodd"/><path d="M567.4,336.258a1.162,1.162,0,0,1,1.033.85c-.462,1.09-1.708,1.09-2.484,1.757a13.137,13.137,0,0,1-1.617-.972c-.148-.606.558-1.269,1.12-.968.654,1.151,1.108-.667,1.948-.667Z" transform="translate(-524.474 -298.14)" fill="#b25c4f" fill-rule="evenodd"/><path d="M589.005,336.328c2.118.605.362,3.029-.789,3.875l-.3-.484c-.911.062-2.062-.545-2-1.574.244-.906,1.334-.967,2.118-.728a2.144,2.144,0,0,1,.973-1.09Z" transform="translate(-527.065 -298.149)" fill="#1e0f00" fill-rule="evenodd"/><path d="M543.105,336.4c.409,0,.9.183.955.667-.258.605-.951.846-1.439,1.212-.466-.484-1.185-.366-1.678-.789-.091-.545.527-.846.95-.906l.17.061c.1.907.7-.121,1.042-.244Z" transform="translate(-521.67 -298.157)" fill="#b25c4f" fill-rule="evenodd"/><path d="M623.73,336.4c2.724.789-.24,2.908-1.452,3.631-.605-.663-1.879-.6-2.241-1.574-.122-1.029,1.273-1.451,2-.968.545,1.395.728-1.212,1.7-1.09Z" transform="translate(-531.158 -298.157)" fill="#b25c4f" fill-rule="evenodd"/><path d="M589.136,336.878c1.212.605-.118,2.061-.846,2.607-.606-.305-1.817-.183-1.757-1.212.366-.85,1.151-.245,1.7-.062.305-.422.362-1.089.906-1.333Z" transform="translate(-527.139 -298.215)" fill="#b25c4f" fill-rule="evenodd"/><path d="M663.61,336.877a1.575,1.575,0,0,1,1.634,1.333c-.362,1.029-1.7,1.33-2.48,1.875-.305-.906-1.395-.967-2-1.574a1.281,1.281,0,0,1,1.94-1.151l.907-.483Z" transform="translate(-536.043 -298.214)" fill="#1e0f00" fill-rule="evenodd"/><path d="M663.683,337.426c.545-.056,1.212.305,1.15.912-.422.545-1.212.666-1.7,1.15a8.165,8.165,0,0,0-1.757-1.029c-.117-.488.546-.789.912-.667.362.667.967-.3,1.391-.366Z" transform="translate(-536.116 -298.28)" fill="#b25c4f" fill-rule="evenodd"/><path d="M579.133,338.046a1,1,0,0,1,.6.184c.85,1.878-1.875,2.118-2.664,3.33l-.3-.545c.968-.846-1.15-1.574-.244-2.542.667-.366,1.029.239,1.273.723.667-.118.606-1.089,1.334-1.151Z" transform="translate(-525.912 -298.355)" fill="#b25c4f" fill-rule="evenodd"/><path d="M530.44,338.463c1.064-.062,2.285,1.029,1.866,2.179-.662.968-1.817,1.452-2.607,2.358a6.69,6.69,0,0,0-1.016-.545c-.9-.24-2.245-.179-2.48-1.33a2.239,2.239,0,0,1,2.406-2.058c.07,1.33,1.147-.545,1.831-.605Z" transform="translate(-519.903 -298.405)" fill="#b25c4f" fill-rule="evenodd"/><path d="M644.866,340.589c2.062-.3,1.456,2.469.183,3.075-1.283-.671-2.18-.833-3.147-1.44-.423-.723.484-1.451,1.151-1.391a.55.55,0,0,1,.422.183l.245.828c.667,0,.482-1.134,1.145-1.256Z" transform="translate(-533.768 -298.657)" fill="#b25c4f" fill-rule="evenodd"/><path d="M656.115,340.726a1.552,1.552,0,0,1,1.513,2.363c-.667.784-2,.906-2.241,2.058a1.2,1.2,0,0,1-.362.244c-.362-.183,0-.728-.362-.972a3.281,3.281,0,0,0-.667-.24,1.624,1.624,0,0,1-1.7-1.817,1.3,1.3,0,0,1,2.363-.423,2.827,2.827,0,0,1,1.451-1.212Z" transform="translate(-535.026 -298.672)" fill="#1e0f00" fill-rule="evenodd"/><path d="M606.345,341.078c.484.056,1.273-.122,1.39.422.061.667.789-.3,1.151,0l-.118.362a7.085,7.085,0,0,0-2.241,1.334l-.305-.244c-1.513.061-.906-1.7.122-1.875Z" transform="translate(-529.392 -298.719)" fill="#b25c4f" fill-rule="evenodd"/><path d="M656.434,341.212c1.512-.062,1.208,2.241-.122,2.3l-.423.244-.605.606a2.787,2.787,0,0,0-.667-.488l-.606-.118c-1.451.179-1.512-2.3,0-1.879l.184.423.723.366a2.574,2.574,0,0,1,1.517-1.456Z" transform="translate(-535.1 -298.735)" fill="#b25c4f" fill-rule="evenodd"/><path d="M560.682,341.9l5.615.122.061,4.176a39.455,39.455,0,0,0-6.569.428c-.288-1.395-1.107-2.969-1.029-4.6l1.922-.122Z" transform="translate(-523.808 -298.817)" fill="#c76cab" fill-rule="evenodd"/><path d="M582.935,342.381c2.057.427,1.212,3.212-.546,3.513-.483.3-.326.153-.958.914L580,345.431c-2.763-.921-.458-4.319,1.543-2.322a2.6,2.6,0,0,1,1.391-.728Z" transform="translate(-526.203 -298.875)" fill="#1e0f00" fill-rule="evenodd"/><path d="M551.765,342.864a1.016,1.016,0,0,1,1.076,1.268c-.431.789-1.382,1.09-1.866,1.818-.688-.906-1.839-.667-2.768-1.029-.592-.606.275-1.334.881-1.212.518.122.483,1.151,1.1.728-.218-.85,1-1.273,1.578-1.574Z" transform="translate(-522.519 -298.931)" fill="#b25c4f" fill-rule="evenodd"/><path d="M582.8,342.866c1.7.179.972,2.481-.484,2.542l-.846.728c-.606-.788-1.757-.85-2.3-1.634a1.211,1.211,0,0,1,1.941-1.09c.179.3,0,.906.6.663,0-.6.606-1.029,1.09-1.207Z" transform="translate(-526.254 -298.933)" fill="#b25c4f" fill-rule="evenodd"/><path d="M521.83,343.685a2.435,2.435,0,0,1,2.786,1.456c-.127,1.268-1.43,1.875-2.18,2.663a2.209,2.209,0,0,0-.8-.667c-.933.062-2.237.245-2.594-.967-.03-.912,1.055-1.273,1.805-1.09.17-.545.388-1.212.98-1.395Z" transform="translate(-519.044 -299.029)" fill="#1e0f00" fill-rule="evenodd"/><path d="M614.391,343.825c.724-.122,1.269.545,1.452,1.151-.484,1.089-1.7,1.634-2.485,2.424l-.422-.488c-.545-.179-1.39-.118-1.635-.785a1.665,1.665,0,0,1,2.18-1.451,2.428,2.428,0,0,1,.911-.85Z" transform="translate(-530.11 -299.046)" fill="#1e0f00" fill-rule="evenodd"/><path d="M596.321,344.035c2.847.606-.3,3.269-1.39,4.3l-.906-.906-.911-.305a1.31,1.31,0,0,1-.968-2.058,1.9,1.9,0,0,1,2.785-.183,3.106,3.106,0,0,1,1.39-.846Z" transform="translate(-527.786 -299.073)" fill="#1e0f00" fill-rule="evenodd"/><path d="M522.333,344.174c.789,0,1.792.239,1.94,1.146-.279.85-1.1,1.212-1.647,1.818a3.03,3.03,0,0,0-2.411-.362.613.613,0,0,1,.183-1.212.929.929,0,0,0,1.2-.245.852.852,0,0,1,.737-1.146Z" transform="translate(-519.123 -299.09)" fill="#b25c4f" fill-rule="evenodd"/><path d="M627.6,344.307c1.935.428-.245,2.18-1.09,2.725-.906-.362-2.118-.117-3.025-.484-.062-.666,1.268-1.268,1.573-.723h.239l.667-.061a2.208,2.208,0,0,1,1.635-1.456Z" transform="translate(-531.571 -299.106)" fill="#b25c4f" fill-rule="evenodd"/><path d="M614.465,344.374a.721.721,0,0,1,.907.789l-1.879,1.574c-.423-.423-1.029-.305-1.513-.546-.239-.483.305-.906.667-1.089l.3-.061c.667.728,1.029-.245,1.516-.667Z" transform="translate(-530.185 -299.111)" fill="#b25c4f" fill-rule="evenodd"/><path d="M596.27,344.583a1.467,1.467,0,0,1,.724.061c.484,1.33-1.33,2-1.936,3.026-.667-.906-2-.606-2.541-1.513-.367-1.09,1.813-1.935,2-.789.362,1.273,1.029-.723,1.757-.784Z" transform="translate(-527.852 -299.137)" fill="#b25c4f" fill-rule="evenodd"/><path d="M533.184,347.061c1.617-.122,1.029,2.362-.288,2.3l-.484.179a1.854,1.854,0,0,1-.924.427l-.5-.427c-2.336-.179-.471-3.147,1.1-2.118l1.09-.362Z" transform="translate(-520.345 -299.436)" fill="#1e0f00" fill-rule="evenodd"/><path d="M540.462,347.122c2.136-.545,2.476,2.48.745,3.086l-.484.422c-.275.305-.292.85-.728.972l-.576-.972c-1.007-.362-2.4-.723-2.35-2.058a2.176,2.176,0,0,1,2.6-1.212l.789-.239Z" transform="translate(-521.206 -299.436)" fill="#1e0f00" fill-rule="evenodd"/><path d="M533.3,347.608h.41c.462,1.334-1.308,1.391-2.106,1.818l-1.194-.545c-.192-.606.466-1.151,1.029-1.151l.275.061c.223.907.989-.366,1.587-.183Z" transform="translate(-520.404 -299.5)" fill="#b25c4f" fill-rule="evenodd"/><path d="M540.65,347.608c2.009-.3,1.347,2.241.018,2.6l-.5.546-.436-.484-.654-.24c-.716-.061-1.522-.545-1.456-1.395a1.9,1.9,0,0,1,1.395-.846c.719-.183.131.663.471.846.667.362.236-1.15,1.164-1.029Z" transform="translate(-521.272 -299.499)" fill="#b25c4f" fill-rule="evenodd"/><path d="M638.418,348.639c.846-.118,2.3.3,1.757,1.395a12.789,12.789,0,0,0-2.3,1.757c-.484-.85-1.574-.606-2.3-1.033a.9.9,0,0,1,.545-1.268,2.432,2.432,0,0,1,1.15,0,1.413,1.413,0,0,1,1.151-.85Z" transform="translate(-533.009 -299.623)" fill="#1e0f00" fill-rule="evenodd"/><path d="M638.613,349.127c.422,0,1.268-.061,1.268.545l-1.935,1.452c-.545-.484-1.273-.423-1.879-.667.122-.728,1.029-.423,1.457-.484.422-.183.545-.846,1.09-.846Z" transform="translate(-533.081 -299.684)" fill="#b25c4f" fill-rule="evenodd"/><path d="M592.308,351.465a1.027,1.027,0,0,1,1.029,1.268l-1.207,1.635c-.545-.906-1.94-.362-2.363-1.33-.122-.968,1.03-1.395,1.757-1.15a2.454,2.454,0,0,1,.784-.423Z" transform="translate(-527.527 -299.965)" fill="#1e0f00" fill-rule="evenodd"/><path d="M592.258,352.015c1.208,0,.3,1.272-.183,1.634-.484-.422-1.151-.3-1.7-.545-.245-.422.3-.728.605-.789h.183c.057.244,0,.728.423.605l.667-.906Z" transform="translate(-527.594 -300.031)" fill="#b25c4f" fill-rule="evenodd"/><path d="M599.185,352.287a3.019,3.019,0,0,1,.968.305,1.249,1.249,0,0,1,1.935,1.029c-.606,1.089-1.574,1.818-2.241,2.846a.445.445,0,0,1-.362-.121,4.752,4.752,0,0,0-1.273-2.18,1.372,1.372,0,0,1,.972-1.879Z" transform="translate(-528.527 -300.063)" fill="#1e0f00" fill-rule="evenodd"/><path d="M599.316,352.905c.366-.056.545.305.605.606h.305c.239-.545,1.151-.785,1.39-.061a7.642,7.642,0,0,1-1.634,2.062c-.546-.606-2.119-2.119-.667-2.608Z" transform="translate(-528.601 -300.137)" fill="#b25c4f" fill-rule="evenodd"/><path d="M584.6,356.488c3.03,2.058,4.242,6.172,6.661,8.535,2.241-.109,4.119-1.513,6.238-2.424,1.573.428,2.9,1.508,4.481,1.923l2.6-2.769c3.392,0,6.6-.667,10.047-.667-3.509,4.664-7.2,9.281-10.775,13.867-7.751-3.885-15.318-8.143-23.308-11.5,1.391-2.3,2.724-4.6,4.054-6.961Z" transform="translate(-526.422 -300.567)" fill="#c76cab" fill-rule="evenodd"/><path d="M636.7,361.92c.85-.061,2.363.3,1.757,1.452a12.55,12.55,0,0,0-2.725,2.058.281.281,0,0,1-.3-.14c-.305-1.138-1.7-.859-2.546-1.268-.484-.711.427-1.434,1.09-1.556a2.323,2.323,0,0,1,1.574.061l1.151-.606Z" transform="translate(-532.683 -301.218)" fill="#1e0f00" fill-rule="evenodd"/><path d="M637.132,362.4c.362.061,1.029.122,1.029.605l-2.363,1.757c-.545-.881-1.695-.724-2.48-1.108a1.431,1.431,0,0,1,1.574-.771h.24l.061.422c.728-.118,1.212-.906,1.94-.906Z" transform="translate(-532.752 -301.276)" fill="#b25c4f" fill-rule="evenodd"/><path d="M586.036,370.243a1.659,1.659,0,0,1,1.573,1.739c-.362.946-1.691.916-2,1.91-.061.083-.183.034-.239.048-.062-1.425-2-.806-2.485-1.879-.061-1.011,1.513-1.866,2.18-1.273l.968-.545Z" transform="translate(-526.702 -302.217)" fill="#1e0f00" fill-rule="evenodd"/><path d="M586.409,370.794c.484.161,1.09.784.724,1.312l-1.513.985c-.545-.576-1.391-.532-2.058-.924-.362-.422.3-.859.606-1.06.484-.266,1.029-.187.785.471.545.345.667-1.029,1.456-.784Z" transform="translate(-526.771 -302.28)" fill="#b25c4f" fill-rule="evenodd"/></g></g></svg>