<svg xmlns="http://www.w3.org/2000/svg" width="1366" height="773.006" viewBox="0 0 1366 773.006"><defs><style>.a{fill:#ccc1d8;}.b{fill:#e5ddef;}.c{fill:#000;}.d{fill:#4b3d64;}.e,.l{fill:#caa267;}.e,.p,.q,.r{fill-rule:evenodd;}.f{fill:#8a7cc7;}.g{fill:#f1c759;}.h{opacity:0.3;}.i{opacity:0.5;}.i,.m{isolation:isolate;}.j{fill:none;stroke:#8a7cc7;stroke-miterlimit:10;stroke-width:1.41px;}.k{fill:#c2934e;}.m{opacity:0.15;}.n{fill:#eec459;}.o,.q{fill:#201605;}.p{fill:#b16ca6;}.r{fill:#9d5c51;}.s{fill:#ecc180;}.t{fill:#493b86;}.u{fill:#5f4fa7;}</style></defs><g transform="translate(0 0.002)"><path class="a" d="M1366,.09V756.2l-242.22-75.33-1.24-.25-31.75-6.44.07-25,1.56-570.5,30.12-27.28,1.79-.79,111-50.47H1360.9C1362.63-.32,1364.33.52,1366,.09Z"/><path class="a" d="M316.3,67.32,300.65,646.35l-.4,14.71-26.88,7.1L.21,756.19V.09h183.7l89.46,31.22,25.68,8.58,12.68,20.17Z"/><path class="b" d="M697.98,28.49H273.37V687.32h849.17V28.49Z"/><path class="c" d="M1360.9.09c-55.54,14.42-135.82,34.44-236.57,50.47l-1.79.28A2806.683,2806.683,0,0,1,615,84.07a2785.183,2785.183,0,0,1-303.27-24q-19.58-2.64-38.36-5.45C165,38.37,76.59,17,11.84.09Z"/><path class="c" d="M0,712.18c121.66-34.17,335.7-83.1,615-90.42,353-9.22,622.43,53,751,88.51v58.05H.2Z"/><path class="c" d="M1162.95,243.45v207l66.98,8.1,21.02,2.53,77.5,9.37v-247l-77.5,9.37-21.02,2.53Z"/><path class="d" d="M1162.95,243.45l1.69,52.79.84,26.08.43,13c.15,4.32.32,8.64.33,12.9-.05,8.49,0,17,0,25.54l.07,25.56.05,51.15-3-3.41,165.5,20-3.85,3.41v-247l3.85,3.41-41.38,5c-6.9.83-13.79,1.66-20.68,2.58-3.45.43-6.91.72-10.37,1l-10.38.92-20.66,1.82-20.47,1.7C1191.19,241,1177.16,242.15,1162.95,243.45Zm0,0c13.37-2,26.92-4.26,40.77-6.46l20.91-3.3,20.72-3.17,10.3-1.58c3.43-.53,6.87-1.07,10.32-1.47,6.91-.75,13.8-1.58,20.7-2.43l41.37-5,3.85-.47V474.33l-3.85-.47-165.5-20-3-.37v-3l.05-52.35.07-26.19c0-8.73.07-17.45,0-26.21,0-4.37.18-8.67.33-13l.43-12.89.84-25.67Z"/><path class="e" d="M736.27,610.13s7.19-8.2,15.57-9.85c5-1,4.81-2.24,5.65-2.65,2.79-1.37.26,4-3.95,5.54-3.42,1.24-5.11,7.23-7.13,8.57s-8.16,3.9-9.75,3.15S736.27,610.13,736.27,610.13Z"/><path class="e" d="M714.18,621.32c1.53-.58,17.49-11.06,26.33-12.24s22.09-2.1,26.62-3.59c5.33-1.75,6.78.33.66,3-4,1.71-12.14,4.43-14,4.58-.89.07,4.86-.94,11.09-2.5,6.62-1.66,13.79-3.84,14.17-2.66.74,2.28-18.29,8.26-21.67,8.77a85.589,85.589,0,0,0,8.89-1.45c4-.88,8.57-2.5,9.51-1.7,1.49,1.26-8.54,5.68-16.92,7.19-.14.28,2.6.59,12.43-1.87,1-.25,3.54.08.34,1.72-6.73,3.46-9.38,5.44-19.31,6.16-9.69.7-20.48-.86-27.36,1.77Z"/><path class="f" d="M721.18,633.16c-7.77,3-64.15,13.38-115.9,2-32.66-7.16-63.47-23-79.06-54.75-40.28-82.11,53.84-128.69,53.84-128.69a1.745,1.745,0,0,1,.14.23c4.08,6.16,91.8,137.78,152.67,158.32C732.87,610.27,733.84,628.19,721.18,633.16Z"/><path class="g" d="M309.37,768.11h15.12A107.185,107.185,0,0,0,343,771.75a100.961,100.961,0,0,0,21,0,83.021,83.021,0,0,0,17.28-3.53h2.22c.36-5.61.72-11.33,1.06-17.07.38-6.18.74-12.4,1.1-18.56.38-6.54.75-13,1.11-19.33.15-2.49.3-5,.44-7.39q.3-5.22.6-10.22c.58-9.67,1.15-18.65,1.71-26.5.37-5.13.73-9.78,1.1-13.82.88-9.68,1.77-15.87,2.69-16.87.35-.38.67-.26,1,.3.95,1.81,1.64,8.29,2.17,18.12.18,3.39.34,7.18.48,11.32q.12,3.34.22,7c.19,6.76.35,14.23.49,22.23,0,2.76.09,5.58.13,8.46s.09,6,.14,9.09c.09,6.94.18,14.15.28,21.51.06,5.39.13,10.87.2,16.39.06,5.1.13,10.24.2,15.39h80.57c-.21-3.92-.42-8-.62-12.16-.33-6.59-.66-13.46-1-20.48-.3-6.56-.61-13.25-.91-20-.14-3.31-.29-6.62-.43-9.93q-.27-5.94-.52-11.86c-.27-6.42-.53-12.77-.79-19-.23-5.38-.44-10.63-.65-15.71,0-1.13-.09-2.26-.13-3.37-.23-5.58-.44-10.93-.64-16h0c-.06-1.54-.12-3.06-.18-4.54-.21-5.24-.39-10.08-.56-14.41-.54-14-.86-22.73-.86-22.73a11.409,11.409,0,0,1-6.71,2.43l-7.37-.49-13.28-1h0l-7.62-.57-1.78-.13h0c-5.71-.44-11.87-.93-18.28-1.46l-5.63-.47-1.63-.14h0c-4-.34-8-.69-12.1-1.06-5.11-.47-10.22-1-15.23-1.45L376,593.4c-3.24-.34-6.42-.69-9.5-1h0c-3.06-.35-6-.71-8.87-1.07-2.38-.3-4.68-.6-6.87-.91h-.33l-1.44-.21c-5.12-.74-9.6-1.49-13.21-2.24-1.05-.22-2-.44-2.93-.66l-.37-.1-.59-.15c-.58-.15-1.11-.3-1.6-.45s-1.07-.34-1.52-.52l-.38-.15a9.291,9.291,0,0,1-1.13-.54,2.806,2.806,0,0,1-.86-.69v1.82c0,.54,0,1.19-.07,2,0,.61,0,1.28-.07,2,0,.56,0,1.16-.06,1.79v2.31q-.06,2-.15,4.26,0,.829-.06,1.71c0,1-.07,2.14-.11,3.27,0,1.42-.1,2.91-.15,4.46v1.56c0,.51,0,1-.05,1.53l-.06,1.73v1.59c-.12,3.44-.24,7.09-.36,10.92a17.51,17.51,0,0,1-.07,1.91c0,1.29-.09,2.6-.13,3.92-.08,2.39-.16,4.85-.24,7.35-.15,4.62-.37,9.4-.65,14.29-.34,5.79-.76,11.75-1.26,17.79q-.33,3.93-.7,7.9c-.88,9.5-1.93,19.15-3.1,28.68a7.029,7.029,0,0,1-.13,1c-.76,6.15-1.57,12.24-2.42,18.21-.9,6.3-1.84,12.47-2.81,18.42-1,6.25-2.07,12.26-3.12,17.94A31.485,31.485,0,0,0,309.37,768.11Z"/><g class="h"><path d="M411.05,596.68"/><path class="i" d="M411.05,596.68c-19.66-.12-62.09-6.55-62.09-6.55-12.48-1.8-21.19-3.67-22.59-5.5v.15c-.08,2-.88,24.49-1.83,54a14.6,14.6,0,0,0,2.07-.06c4.46-.44,8.07-2.87,11-6.45a35.63,35.63,0,0,0,4.74-8C359.25,597.8,404.75,596.7,411.05,596.68Z"/></g><path class="j" d="M457.73,595.68l.04,4.58.2,20.15.21,22.49v.04l.17,17.18v.92l.16,16.68.22,22.4.05,5.79.14,14.7.2,20.92.19,19.49.07,7.39"/><path class="j" d="M436.85,598.24l.01.5.03,3.68.18,16.93.21,19.58.06,5.62.18,17.43.01,1.35.17,16.12.24,22.91.04,3.55.18,16.56.21,20.49.2,19.05.07,6.36"/><path class="j" d="M416.79,596.52v.63l-.05,8.96-.02,4.56-.04,7.49-.08,14.98-.05,10.35-.09,17.26-.02,5.06-.07,13.12-.11,22.05-.03,4.93-.07,14.44-.1,20.32-.1,18.09-.04,9.56"/><line class="j" x1="4.2" y2="43.65" transform="translate(393.28 594.86)"/><path class="j" d="M363.97,771.78l.24-3.56.96-14.25,1.29-19.07,1.22-18.12.74-10.87.56-8.31.1-1.46,1.28-19.02.37-5.42.81-12.05,1.47-21.77,1.31-19.36.23-3.46.17-2.53.03-.41.6-8.93.08-1.19.56-8.24.02-.36.03-.39"/><path class="j" d="M343,771.75l.29-3.57,1.25-15.41,1.52-18.8,1.43-17.7,1.31-16.22.27-3.26,1.65-20.47.01-.1.14-1.74,1.27-15.72,1.72-21.29,1.97-24.26.16-2.02.03-.4.48-5.94,1.09-13.48.01-.08"/><path class="j" d="M339.47,589.73l-1.39,13.21-.2,1.91-.62,5.91-2.5,23.69-.08.81v.01l-2.11,19.98-1.86,17.64-.48,4.62-1.59,15.1v.01l-1.42,13.45-.52,4.91-1.95,18.52-1.95,18.58-2,18.92-.11,1.13"/><path class="j" d="M472.71,621.05s-116.88-4.52-147.16-12.66"/><path class="j" d="M393.28,638.51c39.94,12.73,80.17,1.5,80.17,1.5"/><path class="j" d="M394,635.79s-37.64,7.17-69.18-4.33"/><path class="j" d="M474.09,656s-30.67,12.84-77.68.91"/><path class="j" d="M474.87,675.09s-46.87,10-77.75.13"/><path class="j" d="M475.66,694s-24.83,16.24-78.06,3.42"/><path class="j" d="M476.61,715.84s-37.06,15.48-78.74-.84"/><path class="j" d="M477.52,735.81s-26.66,15.67-79.37.7"/><path class="j" d="M478.51,756.29s-36.23,15.14-80.16-3.39"/><path class="j" d="M390.59,655.37s-16.45,11.36-67.65-2.53"/><path class="j" d="M388.54,674.42s-22.41,8.19-65.92-3.54"/><path class="j" d="M387.77,695.69s-34.13,7.16-66.79-5.74"/><path class="j" d="M386.74,713.3s-33.58,11.6-67.91-5.84"/><path class="j" d="M385.63,732.63s-31.72,8.16-69.35-6"/><path class="j" d="M384.53,751.19s-27,9.41-71.06-6.11"/><path class="j" d="M310.35,763a109.858,109.858,0,0,0,10.45,4q1.86.62,3.69,1.14A107.157,107.157,0,0,0,343,771.75a100.961,100.961,0,0,0,21,0,83.021,83.021,0,0,0,17.28-3.53c1.22-.4,1.87-.67,1.87-.67"/><path class="k" d="M485.25,367.6s-3.44,16.9-16.31,23,23.39,7,23.39,7-1.54-17.63,2.79-27S485.25,367.6,485.25,367.6Z"/><ellipse class="l" cx="18.52" cy="25.27" rx="18.52" ry="25.27" transform="matrix(0.933, -0.36, 0.36, 0.933, 466.836, 333.314)"/><path class="f" d="M605.28,635.17c-32.66-7.16-63.47-23-79.06-54.75l-.17.24q-.255.315-.51.69a.71.71,0,0,0-.11.15c-4.49,6.13-26.52,36.25-26.52,36.27-8,10.41-20.2,20.41-29.89,24.44-.63.28-1.28.52-1.87.73-23.76,3.71-122.71-33.89-134.5-43.29-5.32-4.23-7.4-24.08-7.82-45.61-.53-26.24,1.36-55,2.76-61.07C330,482.8,376.67,370.28,450,377.39a75.176,75.176,0,0,1,19.08,4.47s.55.58,1.52,1.43a36.076,36.076,0,0,0,6.6,4.71,28.125,28.125,0,0,0,6.77,2.72,20.745,20.745,0,0,0,13.83-1.13c4.59-2.05,14.77.35,27.14,7.26,17.18,9.58,38.6,27.85,55.13,54.86a1.745,1.745,0,0,1,.14.23,176.717,176.717,0,0,1,23.69,65A419.376,419.376,0,0,1,605.28,635.17Z"/><path class="m" d="M526.22,580.41c-.06.09-.12.16-.17.24s-.34.44-.5.69l-.12.16-26.51,36.28c-8,10.4-20.2,20.41-29.9,24.43,11-17.6,44.14-68.27,50.19-90.87C515.91,573.87,526.22,580.4,526.22,580.41Z"/><path class="m" d="M481.6,394.35c-.53,1.59,0,2.89,2.68,3.31,8.36,1.31,17.36,4.24,23.05,9.23a5.841,5.841,0,0,0,5.49,1.39c5-1.21,9.77-7.79,11.78-10.74a2.326,2.326,0,0,0,.32-.68c-12.37-6.91-22.54-9.31-27.14-7.25A20.709,20.709,0,0,1,484,390.73,11.423,11.423,0,0,0,481.6,394.35Z"/><path class="n" d="M494.48,334.2s-23.52,28.12-24.91-1.94C468.61,311.47,510.3,314.46,494.48,334.2Z"/><path class="n" d="M487.69,329.51s20.57,3.48,22.79,14.07c0,0-7.77-31.17-24.71-25.5s-22.76,9.76-9.15,40.64C476.62,358.72,471.81,331.83,487.69,329.51Z"/><path class="n" d="M486.57,318s-4.41-8.94-13.1-4.09-10.6,11.62-9.89,17.38.92,10.2-.4,10.71c0,0,5.46,2.42,6.26.6,0,0,.23,10.75,7.55,16.83,0,0-2.9-12.6,3.16-16.44S486.57,318,486.57,318Z"/><path class="n" d="M485.7,318.23s5-6.47,15.15.19l7,6.36s-.81,1.82-3.94,1.52c0,0,4.76,8.79,5.52,14.49l-10-14.29Z"/><path class="m" d="M342,554.58s10.27-40.77,114.08,4.9-88.52,1.46-88.52,1.46Z"/><path class="m" d="M388.25,451.73s3.65,110.09-102.06,124.82l-2.27.69,7.51-23.4s62.09-48.07,62.73-49.6S388.25,451.73,388.25,451.73Z"/><path class="e" d="M441.58,571.56c1.41,0,17.3-4.1,24.82-2.59s18.54,4.47,22.63,4.52c4.82.06,5.41,2.16-.29,2.59-3.7.28-11.1.21-12.63-.18-.74-.19,4.21.59,9.71,1.07,5.85.5,12.28.73,12.26,1.8,0,2.06-17.17,1.6-20.05,1.07a73.26,73.26,0,0,0,7.63,1.31c3.5.4,7.66.36,8.2,1.28.85,1.44-8.53,2.23-15.75,1.12-.19.19,1.95,1.21,10.62,2,.87.07,2.85,1.06-.2,1.5-6.44.93-9.14,1.8-17.41-.39-8.07-2.14-16.4-6.42-22.73-6.21Z"/><path class="e" d="M462.66,568.64s8.13-4.65,15.4-3.65c4.32.6,4.54-.47,5.33-.57,2.65-.33-.91,3.33-4.76,3.4-3.12.05-6.17,4.45-8.19,5s-7.72.89-8.8-.17S462.66,568.64,462.66,568.64Z"/><path class="f" d="M375,373.78c-32.17,15.14-56,31-87.72,97.13-16.07,33.56-25.14,69.2-29.24,88.21a22.9,22.9,0,0,0,9.38,23.58c71.72,50,181.63.59,181.63.59,5.06-.34.74-19.32.74-19.32-43.84-13.59-77.94-22.3-117-19.28.2,0,53.7-54.18,63.64-70.55,26.05-43,78.07-71.32,73.18-92.66C467.94,374.09,407.49,358.51,375,373.78Z"/><path class="c" d="M204.15,230.94V461.35l-56.77,9.01-17.81,2.82L63.9,483.61V208.68l65.67,10.43,17.81,2.81Z"/><path class="d" d="M204.15,230.94l1.63,56.63.8,28.61c.12,4.79.32,9.55.38,14.37s0,9.7,0,14.55l.18,116.24v2.56l-2.53.4L64.37,486.57l-3.47.55v-282l3.47.55L81.9,208.5c5.84.94,11.69,1.86,17.54,2.72s11.66,2,17.48,3.13l17.45,3.29,35.2,6.67C181.29,226.53,192.77,228.83,204.15,230.94Zm0,0c-12-1.61-23.89-3-35.54-4.51L133.68,222l-17.61-2.27c-5.87-.78-11.75-1.45-17.59-2.44S86.81,215.34,81,214.42l-17.53-2.78,3.47-3V483.61l-3.47-3,140.25-22.26-2.53,3,.18-114.17c0-4.75-.07-9.47,0-14.25s.26-9.61.38-14.43l.8-29Z"/><path class="o" d="M1212.08,321.61h0a22.793,22.793,0,0,1,1.28,7.11c.06.79.12,1.59.21,2.35l8.21-7.85.25-.24.34.06a255.433,255.433,0,0,1,26.1,6.51l2.59.74.55.16v.56c-.18,2.07-.41,4.38-.64,6.68-.35,3.47-.7,6.95-.94,10.43q.739-2.65,1.55-5.29c1.19-3.89,2.47-7.74,3.81-11.54l.11-.3.3-.11a38.074,38.074,0,0,1,5.37-1.46c1.38-.3,2.76-.61,4.09-1h.08c3.51-.64,7-1.47,10.53-2.29,4.83-1.14,9.64-2.27,14.55-2.94l.7-.1.08.7h0c.71,6.24,1.34,12.77,2,19.25.28,2.85.55,5.7.85,8.63l.06.58-.56.15h0a29.128,29.128,0,0,1-5,.77l-1.68.17c1.12,1.37,2,2.3,2.9,3.26,2,2.12,4.07,4.33,9.11,11.53l.21.3-.13.34h0c-.07.19-.19.53-.32.93-.78,2.29-2.2,6.45-5.19,8.3l-.15.09h-.3l-22.91,1.14-1.28,1.86q-.821,1.181-1.55,2.19c-2.72,3.77-5.72,7.59-8.62,11l-.39.46-.51-.33a116.8,116.8,0,0,0-11.24-6.39c-3.67-1.84-7.42-3.54-11.14-5.14a20.175,20.175,0,0,1-4.07,5.16c-2,1.64-4.31,2.44-7,1.1l-.11-.06-.09-.1c-3-3.31-4.32-7.13-5.67-11.12l-.1-.29c-5.75.51-11.09,4.4-13.2,5.94l-.13.1-.63.46-.38-.67h0c-.31-.58-.84-1.4-1.42-2.28a26.127,26.127,0,0,1-2.53-4.43l-.12-.33.2-.29a12.159,12.159,0,0,1,2-2.13,6.848,6.848,0,0,0,2.39-3.33,10.688,10.688,0,0,0,.52-3.45,8.474,8.474,0,0,0-.8-3.31,40.145,40.145,0,0,0-5.44-.09h-.84c-.95,0-1-.34-1-1.06v-.17a13.592,13.592,0,0,1-1.08,1,8.6,8.6,0,0,0-1.26,1.25l-.42.58-.56-.44a4.634,4.634,0,0,0-1.89-.77c-1.19-.28-2.16-.51-2.42-2.07v-.1a4.826,4.826,0,0,1,.17-1.45,2.606,2.606,0,0,1,.85-1.34,2.481,2.481,0,0,1,1.55-.53,3.948,3.948,0,0,1,.79.07,2.538,2.538,0,0,1,.51-.56,2.256,2.256,0,0,1,1.29-.5,2.559,2.559,0,0,1,.77.07,27.686,27.686,0,0,0-2-5.39l-.23-.45.36-.36h0c1-1.08,1.93-2.29,2.91-3.5,1.25-1.54,2.5-3.08,3.87-4.55-.66-2.86-1.29-5.68-1.9-8.44s-1.24-5.77-1.85-8.8l-.1-.5.44-.24h0q.93-.51,1.92-1a18.5,18.5,0,0,1,2-.85,37.842,37.842,0,0,1,10.83-2.45h.49l.2.45ZM1229.83,351l-.39-2.26a6.1,6.1,0,0,0-1,1.8,5.86,5.86,0,0,0-.17.57,9.562,9.562,0,0,0,1-.07l.53-.05Zm49.34-5.44c-1.42-.12-2.86-.15-4.34-.15a15.572,15.572,0,0,0-4.15,3.61,32.621,32.621,0,0,0-2.78,4,18.7,18.7,0,0,0,4-.32,20.7,20.7,0,0,1,3.88-.34h.15l.13.06a1.208,1.208,0,0,1,.65.7c.43-.48.83-1,1.23-1.48a20.44,20.44,0,0,1,2.9-3.11l.18-.15h.26a3,3,0,0,1,2.42,1.44,9.442,9.442,0,0,0-.09-1.07,12.519,12.519,0,0,0-.51-2.49,24.384,24.384,0,0,0-4-.65Zm-21,14.66-1-2.06q-.45,1.211-.89,2.44a3,3,0,0,1,1.93-.38Zm-1.73,3.93a2.89,2.89,0,0,1-1.15-.84c-.44,1.31-.86,2.64-1.24,4v.14c1-.9,2-1.84,3-2.8l-.13-.15a2.269,2.269,0,0,0-.54-.34Zm-.7,15.85h0ZM1218,344.31c.24-.71.47-1.41.68-2.1l-.73.49a33.7,33.7,0,0,0-3.22,2.35,32.071,32.071,0,0,0,.26,3.32c.12,1.06.24,2.12.26,3.16h.1l1-.06a26.433,26.433,0,0,1,1.68-7.17Zm8.48,18.63h-.32a8.227,8.227,0,0,0,.07,1.3,7.857,7.857,0,0,1,.07,1.15h1.53l-1.34-2.45Zm57.09.77-.42-.38-2,2.23c1.14-.1,2.3-.26,3.45-.43h.35c-.43-.48-.88-.94-1.34-1.38Zm-55.22,13.85-.29-.06a4.55,4.55,0,0,0,.23.51A1.118,1.118,0,0,1,1228.35,377.56Z"/><path class="p" d="M1210.42,322.74c.25.06.67-.17.74.17,1.34,9.65,1.87,19.48,2.64,29.36l-10,.46c-2.09-8.91-4-17.64-5.69-26.6a38.915,38.915,0,0,1,12.34-3.39Z"/><path class="p" d="M1231,330.27c4.54.57,6,5.05,6.32,9a1.31,1.31,0,0,0,2.3-.46c-2.61.52-1.88-2-.2-3.4,2.29-1.87,4.4,0,5.3,2.23,1.35,3.36,1.35,7,1.27,10.73-.39,17-12.83,35.86-16.48,38.86-1.21.56-2.59,1.22-3.89.63-3.44-2.89-4.9-7.47-5.8-11.64a19.562,19.562,0,0,1,6.06.23c1,1.38,1.1,4.34,3.23,4.47,2.07-6,2.7-12.57,2.87-18.89.38.09.77,1.06,1.06.84,1.21-.94,2.66-1.51,3.14-3a1.52,1.52,0,0,0-.92-1.44c-.72-.6-1.17.71-1.48.37-.53-.6-1-.93-1.91.21a51.507,51.507,0,0,0-1.26-12.53c-2.24-.63-3,3.62-4,5.29-3,.06-6,.12-8.83.34,1.17-8.22,4.18-19.36,13.2-21.83Z"/><path class="p" d="M1213.06,362.27l1.65.12c.67,1.72.62,3.62,1.41,5.28,3.12-.46,6.58-1.15,10-.8,1.38-.34,3.16.86,4.08-.23l-2.42-4.25a9.222,9.222,0,0,1,1.78.11c.63-.06.92.35,1.49.41-.4,4.36-.86,8.67-1.38,13-9.67-2.89-17.37.34-25.26,5.56a35.366,35.366,0,0,1-2.42-4.06c1.67-3.39,5.89-6.15,4.29-10.17l-.73-4.25a60.586,60.586,0,0,1,6.52-.57,4.374,4.374,0,0,0-1.89,1.2,1.37,1.37,0,0,0-1.927.2,1.386,1.386,0,0,0-.253.488c.23,1.78,2.89.74,3.39,2.3.78-1.26,3.51-2.7,1.28-4.08-.43-.17.24-.11.33-.23Z"/><path class="q" d="M1256.1,322.8c1.32-.29,2.93,1.27,2.3,2.53-1,.81-2.59.75-3.5,1.73-.46-1.09-1.89-1.21-2.82-1.89-.52-.92.75-1.44,1.44-1.55l.46-.06c.8.8,1.26-.69,2.13-.75Z"/><path class="r" d="M1256.27,323.14c.92-.11,2.13.86,1.78,1.84a13.609,13.609,0,0,1-3.1,1.32,3.415,3.415,0,0,0-1-.74c-.52-.23-1.44-.29-1.49-1a2.121,2.121,0,0,1,1.55-.63c.4.06.06.74.52.69a3.074,3.074,0,0,1,1.78-1.5Z"/><path class="p" d="M1291.31,360.89c-.68-.12-1.51-.94-2.06-.17-.67.93-2.46-1.41-2.82,1.72.71,1.65,2.75.83,3.73,2.2a4.5,4.5,0,0,0,1.44-3.41c1.78,2.47,3.79,4.88,5.34,7.47-.86,2.59-3,4.6-4.54,6.78-13.44,1.67-26.66,1.9-40.28,2.82a20.993,20.993,0,0,1-6.32,2.91l-5.63-8.26a76.689,76.689,0,0,0,5.06-13.33,51.181,51.181,0,0,0,1.55-15.17c.46-5.63-2.64-12.81-9.2-9.48-1.55-3.1-5.28-6.32-9-5-5.42,3.85-8.64,9.88-14.75,13l-.69-9.65c3.09-2.93,5.88-6.26,9.4-8.68,9.48,1.09,18.27,4.48,27.35,6.67-.41,9.77-1.9,20-2.13,29.59.57.58.8-.29.8-.69,2.24-9.6,4.48-19.25,8.16-28.5,10.86-2.47,21.83-5.11,32.87-7.12,1.15,7.24,1.84,14.82,2.53,22.29a10.726,10.726,0,0,0,.17,2c.52,3.27-4.65,1.61-6.9,2.35a50.383,50.383,0,0,1-1.21-7.24c-8.39-3.56-16.2,1.89-18.21,10.23,3,.69,6.38-.4,9.48-.58.34,2.18.81,4.31,1.09,6.49-4.25,3.33-9.77,5.8-13.68,9.42,6.9-.46,13.5-2.36,20.46-3,1.21-.52,3.16.17,4-.69-1.44-1.49-3.1-3-4.42-4.65-1.32.63-1.84,2.18-3,3.1-1.44,1.72-3,3-5.34,3,.8-.86,3.28-2.18,1.73-3.56-.94-.22-1.83-.27-2.5,1.45-.34-.18-1-1-2.67.51-.52,2,3.56.63,2.7,1.73a30.666,30.666,0,0,1-4,.74c-1.78.35-3.89.11-1.54-1.21,2.64-2.13,6.26-4,9-5.94-.39-2-.49-3.58-.69-5.55a50.8,50.8,0,0,1,5-5.63,28.573,28.573,0,0,1,3.51,3.5,97.332,97.332,0,0,1,6.26,7.52Zm-9.88-27.69a4.77,4.77,0,0,1,.74,3.68c-4.6.58-9.54-.06-13.79,1.49-2.93,4.08-6.44,7.87-8.79,12.29-.46.23-.63,1-1.21,1-.06-.12-.17-.23-.17-.34,1.73-3.74,3.33-7.64,4.71-11.55,5.92-2.93,12.53-4,18.5-6.61Zm-23.5,19.71a.329.329,0,0,1,.4.23,5.14,5.14,0,0,0,.46,5.34,2,2,0,0,0,3.22.92c1.38-.29,2.93-2.07,4.19-1.32-4,4-8.62,7.64-12.47,11.78-.17,0-.34.12-.52.06a6.923,6.923,0,0,1-.63-3.39c.46-1.73,1.38-3.33,1.84-5.06,1-2.93,1.78-5.92,3.5-8.56Z"/><path class="p" d="M1200.94,344.63a58.9,58.9,0,0,1,1.8,8.73c3.62.12,7.52-.29,11.3-.34,5.46-.17,11.1-.63,16.6-.63.12,3,.58,5.92.34,8.85-10.83-.92-21.7-.06-32.56.69a58.862,58.862,0,0,1-3.52-10.17,74.122,74.122,0,0,1,6-7.12Z"/><path class="q" d="M1199,352.16c.34-.06.59.23.8.46.82-.46,1.8.58,1.43,1.38-.64.34-1.39.44-1.72,1.28a3,3,0,0,1-1.66-1.57c-.1-.74.59-1.32,1.15-1.55Z"/><path class="r" d="M1199,352.67c.43-.06.2.23.12.52.24.35.81-.23,1.2-.23a.61.61,0,0,1,.51.69l-1.58.86c-.9-.29-1.24-1.49-.25-1.84Z"/><path class="q" d="M1214.27,353.71a1.872,1.872,0,0,1,1.25.69c.62,2.59-2.92,2.76-3.9,4.6-.73-.88-3.39-1.93-3.21-3.39a2,2,0,0,1,2.617-1.073,1.979,1.979,0,0,1,.593.383A4,4,0,0,1,1214.27,353.71Z"/><path class="r" d="M1214.16,354.17a1.2,1.2,0,0,1,1,.46c.15,2.07-2.61,2.3-3.67,3.67l-.65-.57c-.87-.35-2.07-.81-2-2a1.48,1.48,0,0,1,1.892-.894,1.463,1.463,0,0,1,.458.264l.13.52c.12.05.22-.06.32-.06a3.136,3.136,0,0,1,2.48-1.44Z"/><path class="q" d="M1297.58,354.22c2.59-.11,1.67,3.45-.06,4.14-.29.46-.52,1-1,1.21-.17-1.27-1.55-1.44-2.47-2.07-.8-1.15.86-2.93,1.9-1.78a3,3,0,0,1,1.66-1.49Z"/><path class="r" d="M1297.69,354.63c2,.17.86,2.81-.4,3.33l-.58.75c-.63-.92-2-.92-2.41-1.84-.23-.8,1.15-1.61,1.26-.63.29-.46.35-.05.69.06a2,2,0,0,1,1.44-1.66Z"/><path class="q" d="M1284.31,355.15c2.24.34.86,2.93-.23,3.73-.52-1-2-.52-2.47-1.49-.12-.8.75-1.32,1.44-1.2a2.43,2.43,0,0,1,1.27-1Z"/><path class="q" d="M1219.61,355.32c1.07-.23,2.67.46,2.35,1.73-.89,1.55-2.84,2.07-3.9,3.28a25.041,25.041,0,0,0-2.34-2c-.67-1.44,1-2.13,2.1-1.66a3.212,3.212,0,0,1,1.79-1.38Z"/><path class="r" d="M1284.36,355.61c1.44.29.46,2-.34,2.47-.58-.46-1.55-.23-2-.92.23-.75.86-.41,1.32-.52a1.372,1.372,0,0,1,1-1Z"/><path class="r" d="M1219.79,355.72c.72-.05,1.78.17,1.78,1-.76,1.32-2.26,2-3.5,2.64-.57-.63-2.52-.86-1.82-2.13a2.249,2.249,0,0,1,1.82.12,2.768,2.768,0,0,1,1.73-1.67Z"/><path class="q" d="M1225.24,356.93a1.449,1.449,0,0,1,1.32,1.38c-.38.92-1.48,1.21-2.28,1.61,0,.29.19.81-.3.75l-.76-.57a1,1,0,0,1-.63-.4c-1.79-.46-.1-3.1,1.15-2a2.711,2.711,0,0,1,1.51-.81Z"/><path class="q" d="M1272.3,357c1.9.12,1.84,2.76.17,3.28a8.958,8.958,0,0,0-1.78,1.38c-.29-.06-.17-.4-.4-.58-1-.4-2.41-1-2-2.3a2.06,2.06,0,0,1,2.64-.63,1.759,1.759,0,0,1,1.38-1.15Z"/><path class="q" d="M1204.5,357c.83-.17,1.82.46,1.49,1.38a6.151,6.151,0,0,1-1.81,1.44c-.5-.8-1.79-.57-2-1.49a1.36,1.36,0,0,1,1.89-1l.46-.29Z"/><path class="r" d="M1225.13,357.33a1.1,1.1,0,0,1,1,.81c-.44,1-1.62,1-2.36,1.67a12.485,12.485,0,0,1-1.53-.92c-.14-.58.53-1.2,1.06-.92.62,1.09,1.05-.63,1.85-.63Z"/><path class="q" d="M1243.17,357.39c2,.58.34,2.88-.75,3.68l-.29-.46c-.86.06-2-.52-1.9-1.49.23-.86,1.27-.92,2-.69a2,2,0,0,1,.92-1Z"/><path class="r" d="M1204.73,357.44c.39,0,.86.17.91.63-.24.58-.9.8-1.37,1.15-.44-.46-1.13-.35-1.59-.75-.09-.52.5-.8.9-.86l.16.06c.09.86.66-.12,1-.23Z"/><path class="r" d="M1272.24,357.44c2.59.75-.23,2.76-1.38,3.45-.58-.63-1.78-.57-2.13-1.49-.12-1,1.21-1.38,1.89-.92.52,1.32.69-1.15,1.61-1Z"/><path class="r" d="M1243.22,357.84c1.15.58-.11,2-.8,2.47-.58-.29-1.73-.17-1.67-1.15.35-.81,1.09-.23,1.61-.06.29-.4.34-1,.86-1.27Z"/><path class="q" d="M1305.45,357.84a1.5,1.5,0,0,1,1.55,1.27c-.34,1-1.61,1.26-2.35,1.78-.29-.86-1.32-.92-1.9-1.49a1.22,1.22,0,0,1,1.84-1.09l.86-.46Z"/><path class="r" d="M1305.45,358.3c.52-.05,1.15.29,1.09.86-.4.52-1.15.63-1.61,1.09a7.663,7.663,0,0,0-1.67-1c-.11-.46.52-.75.86-.63.34.63.92-.29,1.32-.35Z"/><path class="r" d="M1234.9,358.82a1,1,0,0,1,.57.17c.81,1.78-1.78,2-2.53,3.16l-.29-.52c.92-.8-1.09-1.49-.23-2.41.63-.35,1,.23,1.21.69.63-.11.58-1,1.27-1.09Z"/><path class="r" d="M1194.39,359.17c1-.06,2.17,1,1.77,2.07-.63.92-1.72,1.38-2.47,2.24a6.278,6.278,0,0,0-1-.52c-.86-.23-2.13-.17-2.35-1.26a2.131,2.131,0,0,1,2.251-2l.029,0c.07,1.26,1.09-.52,1.74-.58Z"/><path class="r" d="M1289.82,360.95c2-.29,1.38,2.34.17,2.92-1.22-.64-2.07-.79-3-1.37-.4-.69.46-1.38,1.09-1.32a.522.522,0,0,1,.4.17l.23.79c.63,0,.46-1.08,1.09-1.19Z"/><path class="q" d="M1299.3,361.06a1.47,1.47,0,0,1,1.44,2.24c-.63.74-1.89.86-2.13,2a1.134,1.134,0,0,1-.34.23c-.34-.17,0-.69-.34-.92a3.07,3.07,0,0,0-.63-.23,1.541,1.541,0,0,1-1.62-1.456,1.571,1.571,0,0,1,.01-.274,1.23,1.23,0,0,1,2.24-.4,2.675,2.675,0,0,1,1.38-1.15Z"/><path class="r" d="M1257.42,361.35c.46.05,1.21-.12,1.32.4s.75-.29,1.09,0l-.11.34a6.7,6.7,0,0,0-2.13,1.27l-.29-.23c-1.44.06-.86-1.61.12-1.78Z"/><path class="r" d="M1299.53,361.46c1.44-.06,1.15,2.13-.12,2.18l-.4.23-.58.57a2.617,2.617,0,0,0-.63-.46l-.58-.11c-1.38.17-1.44-2.18,0-1.78l.17.4.69.35a2.453,2.453,0,0,1,1.44-1.38Z"/><path class="p" d="M1219.38,362l5.33.12.06,4a37.438,37.438,0,0,0-6.23.41c-.27-1.32-1.05-2.82-1-4.37l1.82-.12Z"/><path class="q" d="M1238.23,362.44c2,.41,1.15,3-.52,3.33-.46.29-.31.15-.91.87l-1.36-1.31c-2.62-.87-.43-4.1,1.46-2.2a2.471,2.471,0,0,1,1.32-.69Z"/><path class="r" d="M1212.15,362.85a1,1,0,0,1,1.02.98.956.956,0,0,1-.02.22c-.41.75-1.31,1-1.77,1.73-.65-.86-1.75-.63-2.63-1-.56-.58.26-1.27.84-1.15s.46,1.09,1,.69c-.21-.81,1-1.21,1.5-1.49Z"/><path class="r" d="M1238.05,362.85c1.61.17.92,2.35-.46,2.41l-.8.69c-.58-.75-1.67-.81-2.18-1.55a1.15,1.15,0,0,1,1.84-1c.17.29,0,.86.57.63,0-.57.58-1,1-1.15Z"/><path class="q" d="M1187,363.53a2.309,2.309,0,0,1,2.64,1.38c-.12,1.2-1.36,1.78-2.07,2.53a2.081,2.081,0,0,0-.76-.63c-.89.06-2.12.23-2.46-.92,0-.86,1-1.21,1.71-1,.16-.52.37-1.15.93-1.32Z"/><path class="q" d="M1264.37,363.65c.69-.12,1.2.52,1.38,1.09-.46,1-1.61,1.55-2.36,2.3l-.4-.46c-.52-.17-1.32-.11-1.55-.74a1.579,1.579,0,0,1,2.07-1.38,2.306,2.306,0,0,1,.86-.81Z"/><path class="q" d="M1249.43,363.82c2.7.58-.29,3.1-1.32,4.08l-.86-.86-.86-.29a1.24,1.24,0,0,1-.92-2,1.8,1.8,0,0,1,2.532-.265c.037.03.073.062.108.1a3.006,3.006,0,0,1,1.32-.8Z"/><path class="r" d="M1187.44,363.94c.75,0,1.7.23,1.84,1.09-.26.81-1,1.15-1.56,1.73a2.878,2.878,0,0,0-2.29-.34.581.581,0,1,1,.17-1.15.88.88,0,0,0,1.14-.23.811.811,0,0,1,.7-1.09Z"/><path class="r" d="M1275.52,364c1.84.41-.23,2.07-1,2.59-.86-.34-2-.11-2.87-.46-.06-.63,1.2-1.2,1.49-.69h.23l.63-.06a2.1,2.1,0,0,1,1.55-1.38Z"/><path class="r" d="M1264.37,364.11a.679.679,0,0,1,.86.75l-1.78,1.49c-.4-.4-1-.29-1.44-.52-.23-.46.29-.86.63-1l.29-.06c.63.69,1-.23,1.44-.63Z"/><path class="r" d="M1249.32,364.28a1.384,1.384,0,0,1,.69.06c.46,1.26-1.26,1.89-1.84,2.87-.63-.86-1.89-.58-2.41-1.44-.35-1,1.72-1.84,1.89-.75C1247.99,366.23,1248.65,364.33,1249.32,364.28Z"/><path class="q" d="M1196.57,366.35c1.53-.12,1,2.24-.27,2.18l-.46.17a1.76,1.76,0,0,1-.88.41l-.47-.41c-2.22-.17-.45-3,1-2l1-.34Z"/><path class="q" d="M1202.66,366.41c2-.52,2.35,2.35.71,2.93l-.46.4c-.26.29-.28.81-.69.92l-.55-.92c-1-.34-2.28-.69-2.23-2a2.06,2.06,0,0,1,2.47-1.15l.75-.23Z"/><path class="r" d="M1196.63,366.81h.39c.44,1.27-1.24,1.32-2,1.73l-1.13-.52c-.18-.57.44-1.09,1-1.09l.26.06c.21.86.94-.35,1.51-.17Z"/><path class="r" d="M1202.78,366.81c1.91-.29,1.28,2.13,0,2.47l-.48.52-.41-.46-.62-.23c-.68-.06-1.44-.52-1.38-1.32a1.8,1.8,0,0,1,1.32-.8c.68-.17.12.63.45.8.63.34.22-1.09,1.1-1Z"/><path class="q" d="M1284.42,367.67c.8-.11,2.18.29,1.67,1.32a12.068,12.068,0,0,0-2.18,1.67c-.46-.81-1.49-.58-2.18-1a.849.849,0,0,1,.374-1.142.868.868,0,0,1,.146-.058,2.308,2.308,0,0,1,1.09,0,1.339,1.339,0,0,1,1.09-.81Z"/><path class="r" d="M1284.54,368.07c.4,0,1.2-.06,1.2.52L1283.9,370c-.52-.46-1.21-.4-1.78-.63.12-.69,1-.4,1.38-.46s.52-.8,1-.8Z"/><path class="q" d="M1245.87,370a1,1,0,0,1,1.02.98,1.013,1.013,0,0,1-.02.22l-1.15,1.55c-.52-.86-1.84-.34-2.24-1.26-.12-.92,1-1.32,1.67-1.09a2.351,2.351,0,0,1,.74-.4Z"/><path class="r" d="M1245.76,370.49c1.15,0,.29,1.21-.17,1.55-.46-.4-1.09-.29-1.61-.52-.23-.4.29-.69.58-.75h.17c.05.23,0,.69.4.58Z"/><path class="q" d="M1251.44,370.71a2.863,2.863,0,0,1,.92.29,1.19,1.19,0,0,1,1.84,1c-.58,1-1.49,1.73-2.13,2.7a.42.42,0,0,1-.34-.12,4.5,4.5,0,0,0-1.21-2.07,1.3,1.3,0,0,1,.92-1.78Z"/><path class="r" d="M1251.5,371.23c.35-.05.52.29.58.57h.29c.23-.52,1.09-.74,1.32-.06a7.218,7.218,0,0,1-1.55,2c-.52-.58-2-2-.63-2.47Z"/><path class="p" d="M1239.6,374.22c2.88,2,4,5.86,6.32,8.1,2.13-.1,3.91-1.44,5.92-2.3,1.49.41,2.75,1.43,4.25,1.82l2.47-2.63c3.22,0,6.26-.63,9.54-.63-3.33,4.43-6.83,8.81-10.23,13.16-7.36-3.69-14.54-7.73-22.12-10.92,1.32-2.18,2.59-4.37,3.85-6.61Z"/><path class="q" d="M1283.1,378.76c.81-.06,2.24.29,1.67,1.38a11.887,11.887,0,0,0-2.59,2,.269.269,0,0,1-.29-.13c-.29-1.08-1.61-.81-2.42-1.2-.46-.67.41-1.36,1-1.48a2.211,2.211,0,0,1,1.49.06l1.09-.58Z"/><path class="r" d="M1283.45,379.16c.34.06,1,.12,1,.57l-2.24,1.67c-.52-.84-1.61-.69-2.35-1.05a1.36,1.36,0,0,1,1.49-.73h.23l.06.4c.69-.11,1.15-.86,1.84-.86Z"/><path class="q" d="M1240.7,385.71a1.579,1.579,0,0,1,1.49,1.65c-.34.9-1.61.87-1.89,1.81-.06.08-.17,0-.23,0-.06-1.35-1.9-.77-2.36-1.78-.06-1,1.44-1.77,2.07-1.21l.92-.52Z"/><path class="r" d="M1241,386.17c.46.15,1,.74.69,1.25l-1.44.93c-.52-.55-1.32-.5-2-.88-.34-.4.29-.81.58-1,.46-.25,1-.18.74.45.52.33.63-1,1.38-.74Z"/><path class="s" d="M151.25,390.22a27.308,27.308,0,0,1,8.25-12.61,33.127,33.127,0,0,0,11.88-25.46,33.48,33.48,0,0,0-33.448-33.512q-.857,0-1.712.042c-17.22.73-31.28,15.28-31.77,32.5a33.22,33.22,0,0,0,11.88,26.43,26.006,26.006,0,0,1,8.49,12.61Z"/><path class="t" d="M130.39,412.53a8.1,8.1,0,0,0,15,0Z"/><path class="t" d="M146.88,412.77h-17.7a4.351,4.351,0,0,1-4.37-4.33V390h26.43v18.4a4.351,4.351,0,0,1-4.33,4.37Z"/><path class="u" d="M151,399.19H124.82a2.69,2.69,0,0,1-2.67-2.67h0a2.69,2.69,0,0,1,2.67-2.67H151a2.69,2.69,0,0,1,2.67,2.67h0A2.69,2.69,0,0,1,151,399.19Z"/><path class="u" d="M151,407.68H124.82a2.69,2.69,0,0,1-2.67-2.67h0a2.69,2.69,0,0,1,2.67-2.67H151a2.69,2.69,0,0,1,2.67,2.67h0A2.69,2.69,0,0,1,151,407.68Z"/><path class="s" d="M137.91,301.22a2.43,2.43,0,0,0-2.43,2.43v8.25a2.43,2.43,0,0,0,2.43,2.43,2.29,2.29,0,0,0,2.43-2.141,2.324,2.324,0,0,0,0-.289v-8.25A2.43,2.43,0,0,0,137.91,301.22Z"/><path class="s" d="M105.41,316a2.4,2.4,0,0,0-3.4,3.4l5.82,5.82a2.4,2.4,0,1,0,3.4-3.39Z"/><path class="s" d="M97.9,349.47H89.65a2.43,2.43,0,0,0-2.43,2.43h0a2.43,2.43,0,0,0,2.43,2.43H97.9a2.43,2.43,0,0,0,2.43-2.43h0A2.61,2.61,0,0,0,97.9,349.47Z"/><path class="s" d="M107.84,378.58,102,384.4a2.4,2.4,0,0,0,3.4,3.4l5.82-5.82a2.4,2.4,0,0,0-3.39-3.39Z"/><path class="s" d="M168,378.58a2.4,2.4,0,0,0-3.4,3.39h0l5.82,5.82a2.4,2.4,0,0,0,3.4-3.4Z"/><path class="s" d="M186.17,349.47h-8.25a2.43,2.43,0,0,0-2.43,2.43h0a2.43,2.43,0,0,0,2.43,2.43h8.25a2.43,2.43,0,0,0,2.43-2.43h0A2.43,2.43,0,0,0,186.17,349.47Z"/><path class="s" d="M170.41,316l-5.82,5.82a2.4,2.4,0,0,0,3.39,3.39l5.82-5.82a2.4,2.4,0,0,0-3.4-3.4h0Z"/><path class="c" d="M126.14,389.39c4.56-8.43,7.16-17.56,9.44-26.82,1-4.17,3.95-14.76-2.41-16.66-5.4-1.62-9,5.48-8.93,9.72.06,5.17,4.74,13.46,9.81,15.3,5.9,2.14,11.25-5,13.32-9.59,1.4-3.09,1.93-6.61.35-9.76-.61-1.22-2.1-3.58-3.79-3.45-4.89.38-3.65,13.5-3.68,16.41-.11,8.86.62,17.49,4.5,25.57.78,1.62,3.19.21,2.42-1.41-4.19-8.74-4.31-18.33-4-27.83a49.978,49.978,0,0,1,.24-5.34c.64-5.83,2.6-1.81,2.53.68-.17,6-7.18,15.26-13.39,10-3.36-2.85-7.28-9.68-4.77-13.92q1-3.72,6.22-1.25a12.9,12.9,0,0,1,.07,5.72c-.27,1.7-.75,3.41-1.16,5.08-2.23,9-4.71,17.93-9.16,26.15-.86,1.58,1.56,3,2.42,1.41Z"/></g></svg>