<svg xmlns="http://www.w3.org/2000/svg" xmlns:xlink="http://www.w3.org/1999/xlink" width="703.075" height="487.792" viewBox="0 0 703.075 487.792"><defs><style>.a,.m{fill:none;}.b{fill:#b4d5d9;opacity:0.49;}.c{clip-path:url(#a);}.d{fill:#d19442;}.e,.l{fill:#d8a35d;}.f{fill:#927dcc;}.g{fill:#ffc84f;}.h{opacity:0.15;}.i{opacity:0.3;}.j{opacity:0.5;}.k{fill:#fdc64f;}.l{fill-rule:evenodd;}.m{stroke:#927dcc;stroke-miterlimit:10;stroke-width:1.093px;}.n{fill:#9a82d7;}</style><clipPath id="a"><path class="a" d="M958.773,490.361c87.639-70.221,131.458-105.331,172.6-116.756,137.446-38.165,332.711,40.385,375.651,182.75,2.234,7.406,31.682,110.276-25.382,177.672-47.778,56.426-107.884,30.922-284.276,60.916-188.849,32.111-234.372,80.8-299.506,43.229-61.668-35.57-95.1-122.031-81.221-190.445C826.96,596.85,871.038,560.66,958.773,490.361Z" transform="translate(-813.517 -364)"/></clipPath></defs><g transform="translate(-813.517 -364)"><path class="b" d="M958.773,490.361c87.639-70.221,131.458-105.331,172.6-116.756,137.446-38.165,332.711,40.385,375.651,182.75,2.234,7.406,31.682,110.276-25.382,177.672-47.778,56.426-107.884,30.922-284.276,60.916-188.849,32.111-234.372,80.8-299.506,43.229-61.668-35.57-95.1-122.031-81.221-190.445C826.96,596.85,871.038,560.66,958.773,490.361Z" transform="translate(0)"/><g transform="translate(813.517 364)"><g class="c"><g transform="translate(159.271 59.528)"><path class="d" d="M1066.755,451.511s-1.811,20.226,10.664,31.412-28.753,0-28.753,0,7.672-19.373,5.951-31.412S1066.755,451.511,1066.755,451.511Z" transform="translate(-851.484 -381.145)"/><ellipse class="e" cx="21.812" cy="29.76" rx="21.812" ry="29.76" transform="translate(186.878 18.689)"/><path class="f" d="M1266.357,638.42c-.464,7.307-8.019,40.41-17.463,69.834-7.737,24.155-16.767,45.843-24.189,48.841-16.468,6.627-140.81,15.723-166.374,3.529-.6-.447-1.241-.928-1.855-1.458-9.592-7.8-20-23.211-25.513-37.642,0-.017-14.7-41.436-17.695-49.869-.033-.083-.05-.15-.083-.215-.1-.332-.214-.646-.33-.944-.033-.115-.083-.215-.117-.332-15.474,52.835-136.418,48.991-66.27-97.749,33.02-69.072,91.951-100.583,129.575-108.949,16.286-3.629,28.58-2.917,33.07.96a24.392,24.392,0,0,0,15.225,5.916,33.058,33.058,0,0,0,8.549-.779,42.58,42.58,0,0,0,9.062-3.082c1.393-.647,2.2-1.11,2.2-1.11a88.378,88.378,0,0,1,23.029,1.375C1252.307,483.413,1267.118,626.144,1266.357,638.42Z" transform="translate(-915.404 -373.44)"/><path class="g" d="M1190.462,859.995h-85.716q.173-7.874.385-15.877c.18-7.29.385-14.633.591-21.9.218-7.7.435-15.339.641-22.783.206-7.137.4-14.093.577-20.767.488-18.856.822-35.5.758-47.593-.052-11.449-.462-18.8-1.451-20.062-.373-.474-.756-.385-1.169.256-1.3,2.028-2.759,9.564-4.364,21.037-.859,6.1-1.745,13.311-2.669,21.4-.911,7.907-1.848,16.673-2.822,26.042-.681,6.571-1.375,13.452-2.094,20.563-.808,8.151-1.643,16.583-2.49,25.209q-.942,9.473-1.9,19.215-.75,7.585-1.5,15.26H991.68c.026-.23.052-.474.089-.7.834-5.944,1.695-12.194,2.58-18.675,1.052-7.7,2.131-15.724,3.221-23.926,1.014-7.663,2.054-15.492,3.082-23.347,2.1-16.032,4.2-32.242,6.161-47.633,1.887-14.722,3.645-28.7,5.212-41.034,3.62-28.8,6.083-48.736,6.083-48.736a9.682,9.682,0,0,0,.784.706.261.261,0,0,0,.064.052,11.306,11.306,0,0,0,2.709,1.617,16.8,16.8,0,0,0,4.081,1.141c2.118.039,5.057.091,8.677.155,6.418.115,14.94.23,24.721.333,7.317.077,15.339.141,23.682.167,2.181.014,4.376.026,6.585.014h.1c5.352.012,10.782.012,16.224-.014,8.548-.038,17.109-.127,25.325-.282,7.661-.141,15.042-.333,21.819-.6,2.939-.129,5.763-.256,8.459-.4.026.012.052,0,.077,0l.667-.039c.681-.038,1.052-.064,1.052-.064,1.373-.077,2.7-.167,3.993-.258,1.282-.076,2.542-.167,3.749-.268h.012c1-.077,1.963-.155,2.9-.244.615-.052,1.231-.117,1.822-.18.3-.026.59-.052.872-.089s.579-.064.861-.089.566-.065.834-.091.54-.064.809-.1c.385-.039.756-.091,1.129-.142,1.437-.193,2.733-.385,3.89-.59a27.223,27.223,0,0,0,4.414-1.117,3.723,3.723,0,0,0,.347-.141,5.1,5.1,0,0,0,.6-.27c.089-.052.179-.1.256-.141s.155-.1.218-.153a1.627,1.627,0,0,0,.347-.3,1.431,1.431,0,0,1-.013.167c0,.1-.012.27-.024.488-.014.282-.026.655-.052,1.116-.014.309-.026.655-.052,1.028-.039.7-.077,1.54-.117,2.489-.012.244-.026.488-.038.746a.642.642,0,0,0-.012.153c-.014.359-.039.732-.052,1.117s-.052.8-.065,1.207c-.038.756-.077,1.552-.127,2.387-.014.346-.026.7-.052,1.064q-.039.771-.077,1.579c-.026.359-.038.732-.052,1.117-.077,1.423-.153,2.926-.244,4.517-.038.8-.076,1.617-.127,2.451s-.077,1.695-.129,2.58c-.065,1.22-.129,2.479-.192,3.761-.1,1.964-.206,4.019-.321,6.136-.051,1.066-.115,2.143-.167,3.247-.127,2.516-.27,5.134-.411,7.829-.115,1.939-.2,3.928-.321,5.956-.064,1.31-.141,2.631-.2,3.965q-.23,4.218-.462,8.651c-.3,5.443-.512,11.064-.667,16.828-.578,20.422-.359,42.588.423,64.306.3,7.688.643,15.313,1.066,22.783s.9,14.811,1.438,21.9Q1189.754,852.3,1190.462,859.995Z" transform="translate(-880.881 -273.644)"/><path class="h" d="M982.8,609.379c.033.117.083.215.117.332.115.3.232.612.331.944.033.067.05.132.083.215,3,8.433,17.695,49.852,17.695,49.869,5.516,14.431,15.921,29.838,25.515,37.642-6.512-23.576-26.808-91.917-26.029-119.453C996.635,605.469,982.8,609.362,982.8,609.379Z" transform="translate(-885.462 -312.655)"/><path class="h" d="M1110.923,538.513s-50.687,119.412,59.208,180.421l2.2,1.722,1.67-28.889s-47.834-79.15-47.887-81.1S1110.923,538.513,1110.923,538.513Z" transform="translate(-825.389 -333.504)"/><path class="h" d="M1074.3,475.228c.067,1.971-.978,3.264-4.141,2.833-9.874-1.343-21.025-1.061-29.127,2.65a6.88,6.88,0,0,1-6.659-.28c-5.186-3.033-8.4-12.078-9.676-16.088a2.753,2.753,0,0,1-.133-.878c16.286-3.629,28.58-2.917,33.07.961a24.388,24.388,0,0,0,15.225,5.913A13.437,13.437,0,0,1,1074.3,475.228Z" transform="translate(-863.92 -373.44)"/><g class="i" transform="translate(207.865 380.907)"><path d="M1056.578,658.263c-.291-.024-.582-.047-.864-.073C1055.714,658.19,1056.02,658.213,1056.578,658.263Z" transform="translate(-1055.714 -652.674)"/><path class="j" d="M1056.284,660.14c23.079,1.842,73.522-1.42,73.522-1.42,14.822-.853,25.231-2.171,27.06-4.169,0,0,0,.061-.012.17-.109,2.316-1.439,28.829-3.3,63.58a17.011,17.011,0,0,1-2.425-.28c-5.194-.963-9.178-4.181-12.215-8.678a41.968,41.968,0,0,1-4.749-9.92C1116.955,666.682,1063.678,660.8,1056.284,660.14Z" transform="translate(-1055.42 -654.551)"/></g><g transform="translate(181.834)"><g transform="translate(4.605 8.298)"><path class="k" d="M1053.549,431.814s37.762,20.937,26.553-12.679C1072.349,395.877,1027.795,416.828,1053.549,431.814Z" transform="translate(-1039.494 -408.744)"/><path class="k" d="M1061.108,423.272s-21.128,12.536-19.089,25.112c0,0-4.66-37.546,16.349-38.489s29.141,1.084,27.276,40.787C1085.643,450.681,1079.539,419.1,1061.108,423.272Z" transform="translate(-1041.579 -408.233)"/></g><path class="k" d="M1052.05,413.473s1.061-11.7,12.659-10.043,16.567,8.284,18.224,14.912,3.314,11.6,4.97,11.6c0,0-4.97,4.97-6.627,3.314,0,0,4.3,11.915-1.163,21.7,0,0-2.151-15.069-10.435-16.726S1052.05,413.473,1052.05,413.473Z" transform="translate(-1031.572 -403.27)"/><path class="k" d="M1060.08,410.294s-8.284-4.971-16.568,6.627l-4.97,9.941s1.657,1.657,4.97,0c0,0-1.51,11.674.074,18.262l4.9-19.918Z" transform="translate(-1038.541 -400.193)"/></g><path class="h" d="M1169.192,640.8s6.01-49.152-127.42-42.987,96.644,39.147,96.644,39.147Z" transform="translate(-876.511 -303.189)"/><g transform="translate(110.95 90.801)"><g transform="translate(0 197.435)"><path class="l" d="M1056.947,616.846c-1.525-.647-17.275-11.839-26.17-13.367s-22.263-2.953-26.785-4.631c-5.321-1.972-6.864.082-.782,2.965,3.952,1.874,12.11,4.939,13.953,5.159.893.108-4.884-1.135-11.125-2.947-6.636-1.927-13.8-4.4-14.232-3.226-.832,2.278,18.187,9.039,21.581,9.677a86.638,86.638,0,0,1-8.939-1.8c-4.016-1.043-8.571-2.85-9.554-2.077-1.549,1.219,8.425,6.062,16.838,7.907.126.286-2.654.5-12.5-2.36-.99-.288-3.585-.049-.411,1.731,6.68,3.749,9.276,5.853,19.3,6.953,9.773,1.073,20.742-.1,27.6,2.82Z" transform="translate(-991.78 -591.017)"/><path class="l" d="M1027.857,607.1s-6.959-8.56-15.372-10.541c-5-1.178-4.782-2.442-5.616-2.891-2.766-1.486-.409,4.05,3.784,5.751,3.408,1.383,4.892,7.507,6.893,8.939s8.107,4.247,9.739,3.549S1027.857,607.1,1027.857,607.1Z" transform="translate(-984.612 -593.417)"/></g><path class="f" d="M1196.713,497.34c28.931,30.275,48.432,57.816,55.2,143.92,3.432,43.684-1.722,86.7-5.28,109.313a26.969,26.969,0,0,1-20.308,21.932c-100,24.516-199.822-76.369-199.822-76.369-5.419-2.515,7.378-21.54,7.378-21.54,53.934,3.664,95.1,8.551,136.747,28.431-.209-.118-36.028-82.3-40.005-104.506-10.414-58.241-55.54-111.469-41.11-132.845C1094.5,458.281,1167.529,466.8,1196.713,497.34Z" transform="translate(-974.558 -463.171)"/></g><g transform="translate(134.39 380.613)"><path class="m" d="M1007.243,860.1l1.13-11.9,2.182-22.847,2.349-24.516,2.3-24.041,2.516-26.248,1.964-20.626,1.925-20.152,2.529-26.415L1026,663.919l.4-4.21.514-5.352" transform="translate(-1007.243 -654.357)"/><path class="m" d="M1023.433,858.357l.834-8.638,2.156-22.321,2.323-24.028,2.272-23.566,2.593-26.877,1.977-20.46,1.977-20.447,2.862-29.534,1.707-17.764.629-6.418.051-.578" transform="translate(-998.891 -652.619)"/><path class="m" d="M1057.37,657.727l-.064.744-.539,6.7-1.451,17.982-2.413,29.727-1.63,20.254-1.733,21.345-2.092,25.9-1.835,22.706-1.925,23.861-1.72,21.23-.822,10.178" transform="translate(-989.753 -652.619)"/><line class="m" x2="0.519" y2="51.641" transform="translate(90.454 5.113)"/><path class="m" d="M1081.2,858.357l.193-10.666.424-22.488.385-21.4.423-22.629.449-24.182.372-20.614.475-25.709.5-26.916.282-15.415.09-5.006.09-4.711v-.436l.013-.462" transform="translate(-969.093 -652.619)"/><path class="m" d="M1098.371,657.625v.1l-.026,3.876-.09,19.073-.013,2.862-.154,28.661-.128,25.157-.1,20.729-.128,24.195-.115,23-.1,20.935-.115,22.218-.052,9.973" transform="translate(-960.763 -652.671)"/><path class="m" d="M1112.162,657.625l.026,1.438.449,23.476.539,28.045.013.963.449,23.668.411,20.87.436,23.348.423,21.743.411,21.936.423,22,.257,13.3" transform="translate(-953.119 -652.671)"/></g><path class="m" d="M1006.936,673s137.6,6.5,173.958,0" transform="translate(-873.011 -264.128)"/><path class="m" d="M1099.32,693.952c-48.145,10.905-94.218-6.333-94.218-6.333" transform="translate(-873.957 -256.586)"/><path class="m" d="M1066.915,689.648s43.449,12.209,81.614,1.9" transform="translate(-842.07 -255.539)"/><path class="m" d="M1003.54,699.972s34.7,18.165,91.053,8.9" transform="translate(-874.763 -250.214)"/><path class="m" d="M1001.666,714.683s53.992,16.484,91.224,8" transform="translate(-875.73 -242.625)"/><path class="m" d="M999.788,729.3s27.5,21.557,91.251,11.886" transform="translate(-876.699 -235.085)"/><path class="m" d="M997.6,746.109s41.929,21.909,92.479,6.967" transform="translate(-877.827 -226.413)"/><path class="m" d="M995.567,761.51s29.7,21.08,93.066,8.836" transform="translate(-878.876 -218.469)"/><path class="m" d="M993.441,777.3s40.989,21.425,94.4,4.116" transform="translate(-879.973 -210.324)"/><path class="m" d="M992.573,790.321c-.564-.449-.834-.7-.834-.7" transform="translate(-880.851 -203.97)"/><path class="m" d="M1068.217,705.034s18.152,14.987,79.64,3.861" transform="translate(-841.399 -247.602)"/><path class="m" d="M1068.532,719.915s25.471,11.877,77.708,2.5" transform="translate(-841.236 -239.926)"/><path class="m" d="M1067.713,736.431s39.331,11.846,78.949,0" transform="translate(-841.659 -231.406)"/><path class="m" d="M1067.339,750.128s38.234,17,80.278,0" transform="translate(-841.852 -224.34)"/><path class="m" d="M1066.915,765.165s36.4,12.774,81.976,0" transform="translate(-842.07 -216.583)"/><path class="m" d="M1066.527,779.608s30.682,13.766,84,0" transform="translate(-842.271 -209.133)"/><path class="h" d="M1089.99,488c.944,3.094,7.615,13.97,5.554,23.641s-46.835,106.162-65.282,118.631-51.76,26.643-51.76,26.643l91.023-125.932L1074.557,488S1084.088,468.66,1089.99,488Z" transform="translate(-887.679 -363.996)"/><g transform="translate(170.822 82.761)"><path class="l" d="M1048.413,492.087s5.559-9.738,4.347-18.437c-.719-5.172.561-5.43.679-6.383.392-3.167-3.988,1.1-4.061,5.7-.061,3.737-5.321,7.39-5.942,9.812s-1.05,9.241.211,10.531S1048.413,492.087,1048.413,492.087Z" transform="translate(-1025.315 -453.582)"/><path class="l" d="M1050.908,521.6c.053-1.683,4.88-20.716,3.063-29.706s-5.462-24.581-5.533-29.483c-.082-5.766-2.6-6.474-3.1.347-.326,4.434-.146,15.688.323,17.516a70.966,70.966,0,0,1-1.7-11.53c-.224-3.85-1.134-2.327-2.418-1.969-2.375.662-1.334,7.164-.694,10.616a33.379,33.379,0,0,1-1.724-8.466c-.17-1.961-1.116-1.451-2.28-1.272s-1.654,1.59-.315,10.238c-.226.226-.581,2.4-1.479-7.983-.091-1.043-3.136-3.151-3.25.544-.2,6.486-1.555,5.913,1.079,15.813,2.57,9.653,7.7,19.621,7.458,27.191Z" transform="translate(-1031.276 -457.867)"/></g><path class="n" d="M1091.08,489.325a238.061,238.061,0,0,0-85.969,29.015c-22.932,13.142-79.874,45.773-85.966,99.936-.534,4.734-4.567,45.473,20.416,62.328,16.72,11.278,37.742,6,43.326,4.595,9.917-2.492,23.187-8.078,74.881-76.593,29.376-38.938,44.419-62.752,55.878-94.564,1.927-5.346,3.359-9.832,4.3-12.9Q1104.512,495.236,1091.08,489.325Z" transform="translate(-918.587 -358.878)"/></g></g></g></g></svg>