<svg xmlns="http://www.w3.org/2000/svg" xmlns:xlink="http://www.w3.org/1999/xlink" width="660.36" height="232.743" viewBox="0 0 660.36 232.743"><defs><style>.a,.ax,.k{fill:none;}.b,.e,.f,.j,.l{fill:#fff;}.c,.y{fill:#231f20;}.c,.d,.e,.h,.i,.j,.l,.m{fill-rule:evenodd;}.d{fill:#e00;}.f,.k{stroke:#1e0e00;}.f{stroke-miterlimit:500;}.f,.j,.k{stroke-width:0.5px;}.g,.h{fill:#00469e;}.i{fill:#1090d5;}.j,.l{stroke:#231f20;stroke-miterlimit:22.926;}.ax,.k{stroke-miterlimit:10;}.l{stroke-width:0.75px;}.m{fill:#e81c24;}.n,.s,.x{fill:#00cfed;}.o{fill:#fdc64f;}.p{font-size:13px;}.p,.q{font-family:FiraGO-Medium, FiraGO;font-weight:500;}.q{font-size:5px;}.r{clip-path:url(#a);}.s{opacity:0.8;}.t{fill:#ffb67e;}.u{fill:#ff9e63;}.v{fill:#dbaa49;}.w{fill:#fbfffb;}.x{opacity:0.5;}.aa,.z{fill:#6d9b99;}.z{opacity:0.6;}.ab{fill:#c1a486;}.ac{fill:#ffcb98;}.ad{fill:#ffbc81;}.ae{fill:#008bab;}.af{fill:#007088;}.ag,.aj{fill:#d9d8d5;}.ah{fill:#c7c4c3;}.ai{fill:#593325;}.aj,.as,.be{mix-blend-mode:multiply;isolation:isolate;}.ak{fill:#2c2624;}.al{fill:#221e1c;}.am{fill:#837771;}.an{fill:#ffa4a4;}.ao{fill:#e59393;}.ap{fill:#cdc3b9;}.aq,.as{fill:#b9a8a0;}.ar{fill:#131313;}.at{fill:#aa8c64;}.au{fill:#987c58;}.av{fill:#0a0a0a;}.aw{fill:#0c0c0c;}.ax{stroke:#91837d;stroke-width:0.25px;}.ay{fill:#e1a4a4;}.az{fill:#1f1f1f;}.ba{fill:#ececec;}.bb{fill:#7f5050;}.bc{fill:#cfab7a;}.bd{fill:#bf9d71;}.be{opacity:0.83;}</style><clipPath id="a"><circle class="a" cx="27.399" cy="27.399" r="27.399"/></clipPath></defs><g transform="translate(-190.353 -342.16)"><g transform="translate(608.593 348.632)"><g transform="translate(87.229 158.571)"><circle class="b" cx="30.526" cy="30.526" r="30.526" transform="matrix(1, -0.029, 0.029, 1, 1.556, 3.35)"/><path class="c" d="M1007.975,622.052h-.35l-.039-1.562-.117-1.542-.195-1.518-.265-1.5-.34-1.468-.409-1.44-.477-1.409-.545-1.38-.607-1.344-.669-1.309-.732-1.271-.79-1.233-.846-1.189-.9-1.146-.953-1.1-1-1.053-1.055-1.005-1.1-.953-1.146-.9-1.191-.846-1.23-.79-1.273-.731-1.309-.67-1.343-.608-1.378-.542-1.411-.478-1.438-.41-1.469-.34-1.495-.265-1.518-.195-1.544-.117-1.56-.039v-.35l1.578.04,1.559.119,1.537.195,1.512.27,1.485.344,1.458.414,1.424.483,1.4.55,1.361.614,1.323.679,1.286.739,1.245.8,1.2.856,1.159.91,1.115.966,1.067,1.016,1.016,1.068.965,1.114.911,1.16.856,1.2.8,1.246.74,1.284.677,1.324.615,1.36.551,1.394.483,1.425.412,1.458.343,1.485.271,1.512.2,1.536.119,1.559.039,1.579Zm-30.7,30.7,1.578-.041,1.559-.119,1.537-.195,1.512-.271,1.485-.343,1.458-.413,1.424-.483,1.4-.549,1.361-.616,1.323-.677,1.286-.741,1.245-.8,1.2-.856,1.159-.912,1.115-.964,1.067-1.018,1.016-1.066.965-1.115.911-1.159.856-1.2.8-1.245.74-1.285.677-1.325.615-1.359.551-1.394.483-1.427.412-1.456.343-1.485.271-1.512.2-1.536.119-1.559.039-1.578h-.35l-.039,1.562-.117,1.542-.195,1.517-.265,1.5-.34,1.469-.409,1.44-.477,1.409-.545,1.379-.607,1.344-.669,1.309-.732,1.272-.79,1.231-.846,1.19-.9,1.147-.953,1.1-1,1.055-1.055,1.005-1.1.953-1.146.9-1.191.846-1.23.791-1.273.731-1.309.669-1.343.609-1.378.541-1.411.479-1.438.41-1.469.338-1.495.267-1.518.194-1.544.118-1.56.039v.35Zm-30.7-30.7.038,1.578.119,1.559.2,1.536.271,1.512.342,1.485.413,1.456.482,1.427.551,1.394.615,1.359.679,1.325.738,1.285.8,1.245.856,1.2.911,1.159.965,1.115,1.017,1.066,1.066,1.018,1.115.964,1.16.912,1.2.856,1.245.8,1.286.741,1.323.677,1.361.616,1.4.549,1.425.483,1.457.413,1.485.343,1.512.271,1.538.195,1.559.119,1.578.041v-.35l-1.563-.039-1.542-.118-1.517-.194-1.5-.267-1.469-.338-1.438-.41-1.411-.479-1.378-.541-1.345-.609-1.308-.669-1.273-.731-1.23-.791-1.191-.846-1.146-.9-1.1-.953-1.055-1.005-1-1.055-.953-1.1-.9-1.147-.847-1.19-.79-1.231-.732-1.272-.669-1.309-.607-1.344-.545-1.379-.477-1.409-.408-1.44-.341-1.469-.265-1.5-.195-1.517-.117-1.542-.039-1.562Zm30.7-30.7-1.578.04-1.559.119-1.538.195-1.512.27-1.485.344-1.457.414-1.425.483-1.4.55-1.361.614-1.323.679-1.286.739-1.245.8-1.2.856-1.16.91-1.115.966-1.066,1.016-1.017,1.068-.965,1.114-.911,1.16-.856,1.2-.8,1.246-.738,1.284-.679,1.324-.615,1.36-.551,1.394-.482,1.425-.413,1.458-.342,1.485-.271,1.512-.2,1.536-.119,1.559-.038,1.579h.35l.039-1.562.117-1.542.195-1.518.265-1.5.341-1.468.408-1.44.477-1.409.545-1.38.607-1.344.669-1.309.732-1.271.79-1.233.847-1.189.9-1.146.953-1.1,1-1.053,1.055-1.005,1.1-.953,1.146-.9,1.191-.846,1.23-.79,1.273-.731,1.308-.67,1.345-.608,1.378-.542,1.411-.478,1.438-.41,1.469-.34,1.5-.265,1.517-.195,1.542-.117,1.563-.039Z" transform="translate(-944.308 -589.085)"/><path class="d" d="M977.9,652.095a29.416,29.416,0,1,0-29.416-29.415A29.474,29.474,0,0,0,977.9,652.095Z" transform="translate(-944.937 -589.714)"/><circle class="b" cx="23.31" cy="23.31" r="23.31" transform="translate(0 32.966) rotate(-45)"/><path class="c" d="M980.9,620.836V622.2c-1.068,0-3.127-.373-3.551.966l-.541,1.762h12.161l.516-1.364-2.884-.684a.346.346,0,0,1,.076-.68h5.805v1.364H990.94l-.5,1.364,1.97,4.427a6.816,6.816,0,1,1-4.568,7.837h-2.4l.407.771.771-.445.44.845-2.263,1.209-.436-.851.668-.383-.637-1.222c-.037,0-.074,0-.109,0a2.108,2.108,0,0,1-2.108-2.109,2.453,2.453,0,0,1,.013-.245l-6.274-6.956-.541,1.752a6.834,6.834,0,1,1-1.3-.4l1.981-6.4C976.732,620.5,979.1,620.836,980.9,620.836Z" transform="translate(-950.658 -598.768)"/><path class="e" d="M989.411,635.584a2.094,2.094,0,0,1,1.482.612l2.709-7.223H981.519l4.982,5.53,1.83-.979.438.849-.667.386.51.982A2.084,2.084,0,0,1,989.411,635.584Z" transform="translate(-955.791 -601.448)"/><path class="e" d="M990.325,638.708l-.3-.559-.136.078Z" transform="translate(-958.542 -604.463)"/><path class="e" d="M974.323,635.158l-1.6,5.161a.68.68,0,0,0,1.3.4l1.609-5.16a5.487,5.487,0,1,1-1.314-.4Z" transform="translate(-951.324 -603.452)"/><path class="e" d="M996.354,638.734h1.364a6.785,6.785,0,0,1,3.451-5.919l-1.405-3.152Z" transform="translate(-960.666 -601.674)"/><path class="e" d="M1000.667,641.876h5.624a.718.718,0,0,0,.631-.953L1004.4,635.3a5.451,5.451,0,1,1,3.1,10.45C1004.709,646.571,1001.258,644.849,1000.667,641.876Z" transform="translate(-962.083 -603.451)"/><path class="e" d="M1000.42,640.894h4.733l-2.085-4.659A5.393,5.393,0,0,0,1000.42,640.894Z" transform="translate(-962.002 -603.834)"/></g><g transform="translate(182.292 0.628)"><rect class="f" width="59.578" height="59.578"/><rect class="g" width="57.075" height="57.075" transform="translate(1.251 1.251)"/><g transform="translate(1.252 1.252)"><path class="h" d="M1089.145,411.672a2.5,2.5,0,0,1-2.493-2.494V357.1a2.5,2.5,0,0,1,2.493-2.5h52.075a2.5,2.5,0,0,1,2.507,2.5v52.075a2.5,2.5,0,0,1-2.507,2.494Z" transform="translate(-1086.652 -354.599)"/><path class="e" d="M1091.857,407.106h50.085l-25.048-43.387Z" transform="translate(-1088.362 -357.596)"/><path class="c" d="M1099.982,421l5.089-8.519h3.785L1105.092,421Z" transform="translate(-1091.032 -373.62)"/><path class="c" d="M1112.669,421l2.88-8.519h1.4l-2.3,4.234.561.3a2.976,2.976,0,0,0,3.359-.365l-.794,4.345Z" transform="translate(-1095.201 -373.62)"/><path class="c" d="M1125.358,421l.66-8.519h3.777l.662,8.519Z" transform="translate(-1099.37 -373.62)"/><path class="c" d="M1137.487,421l-1.111-6.115,1.477,2.716.56-.305a2.958,2.958,0,0,0,1.191-4.02l-.428-.794h.549L1142.6,421Z" transform="translate(-1102.991 -373.62)"/><path class="c" d="M1148.871,421l-3.744-8.519h3.766l5.087,8.519Z" transform="translate(-1105.866 -373.62)"/><path class="c" d="M1125.556,401.356l-5.486,10.128a2.315,2.315,0,0,1-3.155.927l6.177-11.39a1.057,1.057,0,0,0,.142-.548v-.3h4.651v.3a1.156,1.156,0,0,0,.144.548l4.622,8.519a2.332,2.332,0,0,1-.939,3.156Z" transform="translate(-1096.596 -369.575)"/><path class="c" d="M1128.077,387.433v6.738h-4.651V388.6l-3.021,4.639c-.613.947-3.431,1.547-2.82.6l5.73-8.814a2.922,2.922,0,0,1,4.018-.916,48.471,48.471,0,0,1,4.194,3.552,1.762,1.762,0,0,1,.623,1.333v2.849c0,1.131-2.036,3.164-2.036,2.036v-4.744Z" transform="translate(-1096.788 -364.149)"/><path class="c" d="M1129.24,377.814a2.321,2.321,0,1,1-2.31-2.331A2.319,2.319,0,0,1,1129.24,377.814Z" transform="translate(-1099.121 -361.461)"/></g></g><g transform="translate(89.494 80.585)"><path class="e" d="M977.36,472.083a30.526,30.526,0,1,1-30.526,30.526A30.528,30.528,0,0,1,977.36,472.083Z" transform="translate(-946.659 -471.908)"/><path class="c" d="M1007.974,502.523h-.351l-.038-1.563-.117-1.54-.195-1.519-.265-1.493-.34-1.47-.408-1.439-.477-1.411-.542-1.378-.609-1.343-.67-1.309-.73-1.272-.792-1.231-.845-1.19-.9-1.147-.955-1.1-1-1.054-1.055-1.005-1.1-.955-1.148-.9-1.189-.845-1.232-.79-1.27-.73-1.31-.671-1.343-.608-1.378-.542-1.411-.477-1.44-.41-1.47-.338-1.492-.267-1.52-.195-1.541-.117-1.561-.039v-.35l1.578.04,1.559.119,1.535.2,1.514.271,1.483.343,1.458.413,1.427.481,1.393.551,1.362.614,1.323.679,1.284.739,1.245.8,1.2.855,1.158.913,1.115.964,1.066,1.017,1.016,1.065.966,1.117.912,1.159.857,1.2.8,1.246.739,1.284.677,1.324.615,1.362.55,1.394.483,1.426.413,1.458.344,1.484.269,1.512.2,1.536.119,1.56.039,1.578Zm-30.7,30.7,1.578-.04,1.559-.119,1.535-.2,1.514-.27,1.483-.344,1.458-.412,1.427-.483,1.393-.55,1.362-.615,1.323-.678,1.284-.74,1.245-.8,1.2-.856,1.158-.912,1.115-.965,1.066-1.016,1.016-1.066.966-1.117.912-1.158.857-1.2.8-1.247.739-1.285.677-1.323.615-1.36.55-1.4.483-1.425.413-1.458.344-1.485.269-1.512.2-1.536.119-1.559.039-1.579h-.351l-.038,1.562-.117,1.542-.195,1.519-.265,1.494-.34,1.47-.408,1.439-.477,1.41-.542,1.378-.609,1.344-.67,1.309-.73,1.271-.792,1.232-.845,1.19-.9,1.147-.955,1.1-1,1.054-1.055,1-1.1.955-1.148.9-1.189.846-1.232.79-1.27.73-1.31.669-1.343.609-1.378.543-1.411.477-1.44.41-1.47.339-1.492.265-1.52.195-1.541.118-1.561.038v.351Zm-30.7-30.7.041,1.579.119,1.559.194,1.536.271,1.512.342,1.485.415,1.458.483,1.425.549,1.4.615,1.36.679,1.323.739,1.285.8,1.247.857,1.2.91,1.158.966,1.117,1.016,1.066,1.066,1.016,1.115.965,1.16.912,1.2.856,1.245.8,1.286.74,1.323.678,1.36.615,1.394.55,1.426.483,1.458.412,1.485.344,1.512.27,1.536.2,1.559.119,1.58.04v-.351l-1.562-.038-1.542-.118-1.518-.195-1.495-.265-1.469-.339-1.44-.41-1.411-.477-1.378-.543-1.343-.609-1.308-.669-1.272-.73-1.232-.79-1.189-.846-1.146-.9-1.1-.955-1.055-1-1-1.054-.954-1.1-.9-1.147-.847-1.19-.79-1.232-.729-1.271-.671-1.309-.608-1.344-.542-1.378-.479-1.41-.408-1.439-.339-1.47-.266-1.494-.193-1.519-.119-1.542-.039-1.562Zm30.7-30.7-1.58.04-1.559.119-1.536.2-1.512.271-1.485.343-1.458.413-1.426.481-1.394.551-1.36.614-1.323.679-1.286.739-1.245.8-1.2.855-1.16.913-1.115.964-1.066,1.017-1.016,1.065L953.585,483l-.91,1.159-.857,1.2-.8,1.246-.739,1.284-.679,1.324-.615,1.362-.549,1.394-.483,1.426-.415,1.458-.342,1.484-.271,1.512-.194,1.536-.119,1.56-.041,1.578h.35l.039-1.563.119-1.54.193-1.519.266-1.493.339-1.47.408-1.439.479-1.411.542-1.378.608-1.343.671-1.309.729-1.272.79-1.231.847-1.19.9-1.147.954-1.1,1-1.054,1.055-1.005,1.1-.955,1.146-.9,1.189-.845,1.232-.79,1.272-.73,1.308-.671,1.343-.608,1.378-.542,1.411-.477,1.44-.41,1.469-.338,1.495-.267,1.518-.195,1.542-.117,1.562-.039Z" transform="translate(-946.573 -471.823)"/><path class="d" d="M977.9,532.568a29.416,29.416,0,1,0-29.415-29.417A29.473,29.473,0,0,0,977.9,532.568Z" transform="translate(-947.202 -472.452)"/><path class="i" d="M962.129,524.612a23.311,23.311,0,0,1,0-27.665l13.833,13.832Z" transform="translate(-950.19 -480.078)"/><path class="i" d="M999.362,538.722a23.3,23.3,0,0,1-27.667,0l13.834-13.832Z" transform="translate(-954.828 -489.26)"/><path class="i" d="M1013.472,496.947a23.3,23.3,0,0,1,0,27.665l-13.833-13.832Z" transform="translate(-964.01 -480.078)"/><path class="i" d="M985.529,482.83a23.2,23.2,0,0,1,13.833,4.549l-13.833,13.834L971.7,487.379A23.209,23.209,0,0,1,985.529,482.83Z" transform="translate(-954.828 -475.44)"/></g><g transform="translate(89.492 0)"><path class="e" d="M977.359,352.061a30.526,30.526,0,1,1-30.527,30.526A30.532,30.532,0,0,1,977.359,352.061Z" transform="translate(-946.657 -351.886)"/><path class="c" d="M1007.975,382.5h-.35l-.039-1.56-.118-1.542-.193-1.52-.267-1.493-.339-1.469-.41-1.44-.477-1.409-.544-1.38-.607-1.343-.671-1.31-.73-1.27-.79-1.232-.847-1.191-.9-1.146-.953-1.1-1.005-1.053-1.054-1.006-1.1-.953-1.147-.9-1.19-.846-1.231-.79-1.272-.73-1.309-.671-1.344-.608-1.378-.543-1.41-.477-1.44-.411-1.469-.338L981.9,352.5l-1.519-.193-1.542-.119-1.562-.039v-.35l1.578.041,1.559.119,1.536.195,1.512.271,1.485.344,1.458.412,1.426.483,1.394.551,1.361.613,1.323.679,1.286.739,1.245.8,1.2.856,1.16.911,1.114.967,1.067,1.016,1.016,1.067.966,1.113.91,1.16.857,1.2.8,1.245.74,1.284.679,1.323.614,1.362.551,1.392.483,1.428.412,1.458.344,1.485.271,1.512.2,1.536.119,1.558.04,1.578Zm-30.7,30.7,1.578-.039,1.559-.118,1.536-.195,1.512-.271,1.485-.344,1.458-.413,1.425-.482,1.394-.551,1.361-.615,1.323-.677,1.286-.74,1.245-.8,1.2-.857,1.16-.912,1.114-.964,1.067-1.016,1.016-1.068.966-1.113.91-1.16.857-1.2.8-1.245.74-1.286.679-1.323.614-1.36.551-1.393.483-1.427.412-1.458.344-1.484.271-1.513.2-1.537.119-1.557.04-1.581h-.35l-.039,1.563-.118,1.541-.193,1.518-.267,1.495-.339,1.47-.41,1.438-.477,1.411-.544,1.378-.607,1.345-.671,1.308-.73,1.273-.79,1.23-.847,1.19-.9,1.147-.953,1.1-1.005,1.053-1.054,1.006-1.1.953-1.147.9-1.19.845-1.231.792-1.272.73-1.309.669-1.344.609-1.378.543-1.411.477-1.44.41-1.469.339-1.494.265-1.519.195-1.542.117-1.562.039v.35Zm-30.7-30.7.04,1.581.119,1.557.195,1.537.271,1.513.342,1.484.414,1.458.483,1.427.551,1.393.614,1.36.678,1.323.739,1.286.8,1.245.857,1.2.91,1.16.966,1.113,1.017,1.068,1.067,1.016,1.114.964,1.159.912,1.2.857,1.245.8,1.286.74,1.323.677,1.36.615,1.395.551,1.425.482,1.458.413,1.485.344,1.512.271,1.536.195,1.559.118,1.579.039v-.35l-1.562-.039-1.542-.117-1.519-.195-1.494-.265-1.469-.339-1.439-.41-1.411-.477-1.378-.543-1.343-.609-1.31-.669-1.272-.73-1.231-.792-1.19-.845-1.147-.9-1.1-.953-1.054-1.006-1.005-1.053-.953-1.1-.9-1.147-.847-1.19-.79-1.23-.73-1.273-.671-1.308-.607-1.345-.544-1.378-.478-1.411-.408-1.438-.34-1.47-.266-1.495-.193-1.518-.118-1.541-.038-1.563Zm30.7-30.7-1.579.041-1.559.119-1.536.195-1.512.271-1.485.344-1.458.412-1.426.483-1.394.551-1.36.613-1.323.679-1.286.739-1.245.8-1.2.856-1.159.911-1.114.967-1.067,1.016-1.017,1.067-.966,1.113-.91,1.16-.857,1.2-.8,1.245-.739,1.284-.678,1.323-.614,1.362-.551,1.392-.483,1.428-.414,1.458-.342,1.485-.271,1.512-.195,1.536-.119,1.558-.04,1.578h.351l.038-1.56.118-1.542.193-1.52.266-1.493.34-1.469.408-1.44.478-1.409.544-1.38.607-1.343.671-1.31.73-1.27.79-1.232.847-1.191.9-1.146.953-1.1,1.005-1.053,1.054-1.006,1.1-.953,1.147-.9,1.19-.846,1.231-.79,1.272-.73,1.31-.671,1.343-.608,1.378-.543,1.41-.477,1.439-.411,1.469-.338,1.494-.267,1.519-.193,1.542-.119,1.562-.039Z" transform="translate(-946.571 -351.8)"/><path class="d" d="M977.9,412.545a29.416,29.416,0,1,0-29.416-29.415A29.473,29.473,0,0,0,977.9,412.545Z" transform="translate(-947.201 -352.429)"/><rect class="b" width="47.731" height="9.491" transform="translate(6.836 25.955)"/></g><g transform="translate(0 84.371)"><path class="j" d="M871.443,531.112a2.924,2.924,0,0,0,2.51-4.36L846.322,478.9a2.914,2.914,0,0,0-5.026,0l-27.63,47.85a2.93,2.93,0,0,0,2.515,4.36Z" transform="translate(-813.281 -477.463)"/><path class="d" d="M871.976,530.548a1.828,1.828,0,0,0,1.568-2.721l-27.639-47.85a1.823,1.823,0,0,0-3.136,0l-27.622,47.85a1.825,1.825,0,0,0,1.567,2.721Z" transform="translate(-813.814 -477.996)"/><path class="e" d="M869.653,529.539H826.967l21.343-36.971Z" transform="translate(-817.778 -482.426)"/><path class="c" d="M859.662,511.405a1.747,1.747,0,1,1-1.746,1.748A1.749,1.749,0,0,1,859.662,511.405Z" transform="translate(-827.947 -488.616)"/><path class="c" d="M845.554,539.253a.936.936,0,1,1-.937.935A.936.936,0,0,1,845.554,539.253Z" transform="translate(-823.578 -497.766)"/><path class="c" d="M842.677,543.341a1.311,1.311,0,1,1-1.312,1.312A1.31,1.31,0,0,1,842.677,543.341Z" transform="translate(-822.509 -499.11)"/><path class="c" d="M847.153,530.541a2.416,2.416,0,1,1-2.416,2.417A2.418,2.418,0,0,1,847.153,530.541Z" transform="translate(-823.617 -494.904)"/><path class="c" d="M852.407,520.663a1.748,1.748,0,1,1-1.746,1.746A1.746,1.746,0,0,1,852.407,520.663Z" transform="translate(-825.564 -491.658)"/><path class="c" d="M862.305,503.32c-.426,1.662-.814,3.373-1.179,5.125a2.734,2.734,0,0,1-.892,4.628c-1.15,6.369-2.109,13.156-3.359,20h22.606Z" transform="translate(-827.605 -485.959)"/></g><g transform="translate(0 3.788)"><path class="j" d="M871.445,411.091a2.924,2.924,0,0,0,2.508-4.361L846.32,358.88a2.912,2.912,0,0,0-5.023,0l-27.631,47.85a2.931,2.931,0,0,0,2.517,4.361Z" transform="translate(-813.281 -357.441)"/><path class="d" d="M871.978,410.527a1.828,1.828,0,0,0,1.568-2.721l-27.641-47.849a1.822,1.822,0,0,0-3.134,0l-27.623,47.849a1.826,1.826,0,0,0,1.568,2.721Z" transform="translate(-813.814 -357.975)"/><path class="e" d="M826.967,409.516h42.687l-21.343-36.969Z" transform="translate(-817.778 -362.405)"/><path class="c" d="M839.264,407.859l1.587-1.711,1.118-2.072.608-.27-.067-.632a1.489,1.489,0,0,1-1.476-1.515,1.521,1.521,0,0,1,1.5-1.551,1.494,1.494,0,0,1,1.4.985l1.683.145-.81,1.488-.851-.569a1.481,1.481,0,0,1-.534.735l.3.781h1.014l3.04,2.3,1.834-2.058,1.073-3.485,1.35-.742-.351-.905a1.544,1.544,0,0,1-.62.128,1.69,1.69,0,1,1,1.634-1.689,1.716,1.716,0,0,1-.289.958l.641,1.036h1.891s1.756,1.891,2.365,2.769a5.266,5.266,0,0,1,.743,2.1l1.622-.472,1.014,1.484-2.906,1.149.338,2.026,3.716.068,1.421,2.569-2.232-1.15-4.324.067-1.352-2.3-2.161,2.364,2.358,5.336h10.487v1.845H837.5v-1.845h3.017l.908-.606-.329-2.9-.541-.085,2.288-2.9v-1.148l-.54-1.488-2.161,2.028Z" transform="translate(-821.24 -369.957)"/><path class="e" d="M865.608,407.075,865,406.94l-1.825-3.109L865,405.318Z" transform="translate(-829.676 -372.685)"/><path class="e" d="M855.295,418.745l.761-.539-2.7-4.73,2.634-4.189-1.825-3.04L852.73,408.2l-2.147,2.917-3.243-2.365-.474,2.025,1.555,2.162L851.6,413v2.1l-.676-.946-2.312-.135-4.015,1.073.567,3.655Z" transform="translate(-823.57 -373.478)"/></g><g transform="translate(182.961 82.365)"><g transform="translate(0 0.003)"><rect class="g" width="56.727" height="56.724" transform="translate(0.757 0.757)"/><path class="b" d="M1144.024,532.717h-58.241V474.479h58.241ZM1087.3,531.2h55.213v-55.21H1087.3Z" transform="translate(-1085.783 -474.479)"/><g transform="translate(8.264 18.985)"><path class="e" d="M1131.716,521.608h8.089v2.747h-6.726v1.934h-6.723v1.934h-6.728v1.934h-6.721V532.1h-6.728v1.931h-8.086v-2.747h6.725v-1.934h6.722v-1.934h2.073a1.616,1.616,0,0,1-.062-.29l-1.039-8.7a1.655,1.655,0,0,1,.393-1.278l3.175-4.155.154-3.815-1.452,1.505h0a1.612,1.612,0,0,1-.182.159l-3.031,2.316a1.653,1.653,0,0,1-2.007-2.627l2.939-2.245,4.705-4.859a1.631,1.631,0,0,1,1-.491l1.358-.162a1.65,1.65,0,0,1,1.321.44l3.212,2.742a1.649,1.649,0,0,1,.555.967l.63,3.073a1.651,1.651,0,1,1-3.235.659l-.525-2.552-.588-.5-.22,5.4,5.284,9.795a1.662,1.662,0,0,1,.2.749h5.526Z" transform="translate(-1098.092 -502.755)"/></g><g transform="translate(24.581 13.669)"><path class="e" d="M1124.989,494.838a2.6,2.6,0,1,1-2.595,2.6A2.6,2.6,0,0,1,1124.989,494.838Z" transform="translate(-1122.394 -494.838)"/></g><g transform="translate(26.052 31.739)"><path class="h" d="M1125.483,533.652h1.489v-1.937h6.723V531.4a1.649,1.649,0,0,1-1.908-.808l-4.773-8.846-2.429,3.183.958,8.041A1.622,1.622,0,0,1,1125.483,533.652Z" transform="translate(-1124.585 -521.751)"/></g></g><g transform="translate(7.658 31.168)"><path class="e" d="M1101.447,526.293l5.576-2.33-.876-2.106-5.591,2.319,1.354-3.279-2.731,1.138-1.99,4.814,4.811,1.977,2.731-1.139Z" transform="translate(-1097.188 -520.896)"/></g><rect class="k" width="58.241" height="58.241" transform="translate(0.001)"/></g><g transform="translate(182.961 162.619)"><rect class="g" width="56.726" height="56.724" transform="translate(0.757 0.757)"/><path class="b" d="M1144.024,652.244h-58.24V594.005h58.24ZM1087.3,650.73h55.212V595.52H1087.3Z" transform="translate(-1085.784 -594.005)"/><g transform="translate(26.905 13.454)"><path class="e" d="M1128.453,614.043a2.6,2.6,0,1,1-2.6,2.594A2.6,2.6,0,0,1,1128.453,614.043Z" transform="translate(-1125.857 -614.043)"/></g><g transform="translate(8.263 18.722)"><path class="e" d="M1131.715,641.005h8.09v2.747h-6.728v1.934h-6.724v1.934h-6.726v1.934H1112.9v1.934h-6.723v1.934h-8.089v-2.747h6.727v-1.934h6.722v-.94a1.649,1.649,0,0,1-2.444-2.05l6.09-13.007a1.306,1.306,0,0,1,0-.145l.22-5.409-.218.168-1.013,2.671a1.652,1.652,0,1,1-3.092-1.166l1.153-3.04a1.647,1.647,0,0,1,.559-.8l3.6-2.792a1.631,1.631,0,0,1,1.218-.334l1.245.16c0,.05.853.284,1.133.671l3.472,4.821,2.314,2.218a1.653,1.653,0,1,1-2.29,2.384l-2.415-2.316a10.635,10.635,0,0,1-1.091-1.275l-.171,4.161,3.305,4.353a1.629,1.629,0,0,1,.391,1.242l-.685,6.548h2.171v-1.934h6.724Z" transform="translate(-1098.091 -621.889)"/></g><g transform="translate(22.418 32.142)"><path class="h" d="M1125.193,651.439h1.234l.651-6.24-2.52-3.321-5.384,11.5h6.02Z" transform="translate(-1119.173 -641.878)"/></g><g transform="translate(39.034 17.759)"><path class="e" d="M1149.5,622.988l-5.576,2.33.876,2.106,5.591-2.319-1.354,3.279,2.731-1.138,1.99-4.814-4.811-1.977-2.731,1.139Z" transform="translate(-1143.922 -620.455)"/></g><rect class="k" width="58.24" height="58.239" transform="translate(0 0)"/></g><path class="l" d="M871.31,652.852a2.892,2.892,0,0,0,2.48-4.314L846.453,601.2a2.88,2.88,0,0,0-4.968,0l-27.336,47.336a2.9,2.9,0,0,0,2.491,4.314Z" transform="translate(-813.441 -433.283)"/><path class="m" d="M871.838,652.294a1.809,1.809,0,0,0,1.55-2.692l-27.343-47.335a1.8,1.8,0,0,0-3.1,0L815.617,649.6a1.807,1.807,0,0,0,1.552,2.692Z" transform="translate(-813.969 -433.811)"/><path class="e" d="M827.3,651.295h42.231l-21.115-36.573Z" transform="translate(-817.887 -438.194)"/><path class="c" d="M859.693,630.239a1.852,1.852,0,1,1-1.842-1.86A1.849,1.849,0,0,1,859.693,630.239Z" transform="translate(-827.314 -442.681)"/><path class="c" d="M858.485,637.914v5.379h-3.714v-4.443l-2.414,3.7c-.485.755-2.737,1.234-2.249.478L854.681,636a2.332,2.332,0,0,1,3.209-.732,38.405,38.405,0,0,1,3.346,2.834,1.407,1.407,0,0,1,.5,1.064v2.275c0,.9-1.625,2.526-1.625,1.624v-3.785Z" transform="translate(-825.359 -444.826)"/><path class="c" d="M856.124,649.029l-4.38,8.082a1.847,1.847,0,0,1-2.516.739l4.93-9.089a.85.85,0,0,0,.114-.44v-.235h3.714v.235a.956.956,0,0,0,.111.44l3.689,6.8a1.858,1.858,0,0,1-.747,2.517Z" transform="translate(-825.093 -449.157)"/><path class="c" d="M856.474,664.709l-2.992-6.8h3.007l4.062,6.8Z" transform="translate(-826.491 -452.385)"/><path class="c" d="M855.937,664.709l-.886-4.882,1.178,2.168.448-.242a2.363,2.363,0,0,0,.949-3.209l-.342-.635h.439l2.291,6.8Z" transform="translate(-827.006 -452.384)"/><path class="c" d="M855.716,664.709l.527-6.8h3.013l.529,6.8Z" transform="translate(-827.225 -452.385)"/><path class="c" d="M855.239,664.709l2.3-6.8h1.12l-1.838,3.379.448.244a2.374,2.374,0,0,0,2.68-.293l-.631,3.469Z" transform="translate(-827.068 -452.384)"/><path class="c" d="M853.473,664.709l4.06-6.8h3.022l-3.005,6.8Z" transform="translate(-826.487 -452.385)"/></g><g transform="translate(190.353 342.16)"><rect class="n" width="380.575" height="232.743" rx="12"/><circle class="b" cx="27.399" cy="27.399" r="27.399" transform="translate(164.258 102.525)"/><rect class="o" width="380.575" height="76.452" rx="12"/><text class="p" transform="translate(180.906 35.294)"><tspan x="-139.172" y="0">როგორ უნდა შევამციროთ კორონავირუსის</tspan><tspan x="-102.284" y="15">ინფექციის გავრცელების რისკი</tspan></text><g transform="translate(25.21 171.062)"><text class="q" transform="translate(23 5)"><tspan x="-9.677" y="0">ხშირად</tspan><tspan x="-22.778" y="6">დაიბანეთ ხელები</tspan><tspan x="-9.125" y="12">საპნით</tspan></text><text class="q" transform="translate(93.152 5)"><tspan x="-19.785" y="0">ცემინებისას და</tspan><tspan x="-15.17" y="6">ხველებისას</tspan><tspan x="-13.53" y="12">დაიფარეთ</tspan><tspan x="-19.94" y="18">პირი და ცხვირი</tspan></text><text class="q" transform="translate(162.947 5)"><tspan x="-16.965" y="0">არ მიირთვათ</tspan><tspan x="-8.347" y="6">უმი და</tspan><tspan x="-20.02" y="12">დაუმუშავებელი</tspan><tspan x="-12.395" y="18">ხორცი და</tspan><tspan x="-10.46" y="24">კვერცხი</tspan></text><text class="q" transform="translate(232.071 5)"><tspan x="-13.682" y="0">მოერიდეთ</tspan><tspan x="-20.462" y="6">ახლო კონტაქტს</tspan><tspan x="-18.118" y="12">ადამიანებთან</tspan><tspan x="-7.142" y="18">ვისაც</tspan><tspan x="-14.575" y="24">აღენიშნება</tspan><tspan x="-19.26" y="30">გრიპის მსგავსი</tspan><tspan x="-15.062" y="36">სიმპტომები</tspan></text><text class="q" transform="translate(301.866 5)"><tspan x="-14.307" y="0">მოერიდეთ </tspan><tspan x="-20.462" y="6">ახლო კონტაქტს</tspan><tspan x="-18.07" y="12">ცხოველებთან</tspan></text></g><circle class="b" cx="27.399" cy="27.399" r="27.399" transform="translate(234.053 102.525)"/><circle class="b" cx="27.399" cy="27.399" r="27.399" transform="translate(303.848 102.525)"/><g transform="translate(24.667 102.525)"><circle class="b" cx="27.399" cy="27.399" r="27.399"/><g class="r"><g transform="translate(3.235 8.647)"><path class="s" d="M249.831,538.036c-4.592-4.731-6.888-7.1-7.635-9.318-2.5-7.42,2.641-17.962,11.95-20.281.485-.12,7.212-1.71,11.619,1.37,3.69,2.58,2.022,5.824,3.983,15.348,2.1,10.2,5.283,12.653,2.827,16.169-2.326,3.329-7.98,5.134-12.453,4.385C256.794,545.152,254.428,542.772,249.831,538.036Z" transform="translate(-235.085 -507.799)"/><path class="t" d="M231.912,541.441s11.877-13.752,12.065-15.034-.753-4.2.807-7.222c1.186-2.3,1.573-6.466,1.979-7.754s1.371-1.262,1.9.7a10.833,10.833,0,0,1-.163,4.7c-.294,2.449,1.671,2.118,3.2.739,2.577-2.318,7.385-6.938,8.927-8.722,1.382-1.6,2.97-1.264,1.493.917-1.363,2.013-4.585,6.566-4.585,6.566s5.762-6.536,6.479-7.477c1.345-1.765,3.38-1.485,1.6,1.274-2.1,3.251-5.869,8.135-5.869,8.135s4.911-5.142,7.19-7.59c2.073-2.227,3.136-.861,1.716,1.253-1.64,2.441-6.62,9.042-6.62,9.042s3.864-4.21,5.945-6.212c1.894-1.822,3.1-.627,1.44,1.689-1.014,1.417-5.663,7.111-7.153,8.863-2.172,2.555-6.25,6.807-9.492,8.156-2.284.951-14.154,15.626-14.154,15.626Z" transform="translate(-231.912 -507.739)"/><path class="u" d="M261.463,524.322a11,11,0,0,1,.093,3.808,32.078,32.078,0,0,1-1.75,5,10.315,10.315,0,0,0,2.527-4.621A5.892,5.892,0,0,0,261.463,524.322Z" transform="translate(-241.078 -513.188)"/><path class="u" d="M263.816,522.677a44.846,44.846,0,0,1,3.83,3.035,11.674,11.674,0,0,1,2.339,3.552s-3.476-3.141-4.057-3.895C265.157,524.371,263.816,522.677,263.816,522.677Z" transform="translate(-242.395 -512.647)"/><path class="u" d="M259.931,545.29a6.953,6.953,0,0,1-3.031-.634,5.863,5.863,0,0,1-1.67-1.441,4.231,4.231,0,0,0,2.035,2.153A3.393,3.393,0,0,0,259.931,545.29Z" transform="translate(-239.574 -519.396)"/><g transform="translate(9.371 7.93)"><path class="b" d="M274.148,528.351c-.148-1.464-1.636-1.795-3.019-1.739,1.27-1.108,2.552-2.657,1.352-4.184a2.6,2.6,0,0,0-3.449-.473c-.135-1.256-.428-2.273-2.117-1.86a3.61,3.61,0,0,0-2.42,2.016c-.744-1.574-2.621-3.708-3.849-1.824a3.624,3.624,0,0,0-.122,3.629,2.276,2.276,0,0,0-1.474.041,1.513,1.513,0,0,0-1.027,1.517A2.4,2.4,0,0,0,259.4,527.3c-.693.191-1.252.516-1.071,1.513a1.65,1.65,0,0,0,1.286,1.325c-1.255.98-1.825,2.718-.3,3.987a2.875,2.875,0,0,0,2.295.671,2.438,2.438,0,0,0,4.419.085c1.708,1.517,6.116-1.094,4.273-3.724C271.989,530.967,274.341,530.256,274.148,528.351Z" transform="translate(-249.861 -519.55)"/><path class="b" d="M255.554,547.325a1.93,1.93,0,0,0-2.008-.618,1.107,1.107,0,0,0-.606-1.535,1.708,1.708,0,0,0-1.9.365,1.054,1.054,0,0,0-1.706-.317,1.438,1.438,0,0,0-.186,1.789c-.523.077-1,.389-.89,1.03.139.779,1.2,1,1.938,1.039a1.549,1.549,0,0,0,1.073,1.983,2.038,2.038,0,0,0,2.412-1.433.511.511,0,0,0,.25.044.178.178,0,0,0,.14,0C254.958,549.334,256.288,548.442,255.554,547.325Z" transform="translate(-246.647 -527.883)"/><path class="b" d="M255.161,535.647a.885.885,0,0,0-.137-1.04c-.328-.361-1-.175-1.378-.018-.795-.728-1.659.3-.852.946-1.209.746.058,1.757.688,1.521a1.215,1.215,0,0,0,2.053-.216A.837.837,0,0,0,255.161,535.647Z" transform="translate(-247.979 -524.409)"/><path class="b" d="M283.749,535.477c-.373.083-.489.527-.457.981a.776.776,0,0,0,1.411.34A.925.925,0,0,0,283.749,535.477Z" transform="translate(-258.164 -524.778)"/><path class="b" d="M246.785,533.829a.527.527,0,0,0-.782.18c-.284.394-.107,1.043.444.981A.687.687,0,0,0,246.785,533.829Z" transform="translate(-245.869 -524.206)"/><path class="b" d="M285.339,528.234a.528.528,0,0,0-.783.181c-.283.393-.106,1.043.444.98A.687.687,0,0,0,285.339,528.234Z" transform="translate(-258.537 -522.368)"/><path class="b" d="M250.8,533.558a.656.656,0,0,0-.353.935c.213.565,1.008.829,1.323.216A.855.855,0,0,0,250.8,533.558Z" transform="translate(-247.352 -524.143)"/></g><g transform="translate(13.71 9.463)"><path class="t" d="M266.356,561.78s-2.273-8.869-3.2-9.774-3.836-1.857-5.367-4.9c-1.163-2.312-4.305-5.074-5.108-6.16s-.215-1.851,1.679-1.124a10.852,10.852,0,0,1,3.7,2.894c1.807,1.678,2.7-.106,2.482-2.158-.36-3.447-1.27-10.053-1.806-12.349-.481-2.059.724-3.147,1.62-.669.827,2.286,2.615,7.569,2.615,7.569s-1.9-8.5-2.238-9.637c-.637-2.126.786-3.607,1.968-.541,1.394,3.613,3.13,9.53,3.13,9.53s-1.272-7-1.912-10.279c-.582-2.986,1.147-3.043,2.023-.651,1.01,2.761,3.422,10.671,3.422,10.671s-1.133-5.6-1.529-8.462c-.36-2.6,1.313-2.873,2.213-.17.551,1.653,2.422,8.761,2.963,11,.789,3.26,1.832,9.059,1.017,12.473-.575,2.407,1.66,10.831,1.66,10.831Z" transform="translate(-252.331 -521.833)"/><path class="u" d="M274.817,543.866s1.18,1.632,1.625-.317A3.39,3.39,0,0,1,274.817,543.866Z" transform="translate(-259.72 -528.968)"/><path class="u" d="M279.158,543.153s1.18,1.632,1.625-.317A3.39,3.39,0,0,1,279.158,543.153Z" transform="translate(-261.146 -528.734)"/><path class="u" d="M270.691,544.75s1.179,1.632,1.624-.317A3.387,3.387,0,0,1,270.691,544.75Z" transform="translate(-258.364 -529.259)"/><path class="u" d="M266.3,545.6s1.517,1.644,1.768-.455A5.425,5.425,0,0,1,266.3,545.6Z" transform="translate(-256.92 -529.493)"/><path class="u" d="M262.366,529.982s-.343-1.253.1-1.425.737.664.831,1.138Z" transform="translate(-255.587 -524.034)"/><path class="u" d="M265.448,525.614s-.342-1.254.1-1.426.845.646.939,1.12Z" transform="translate(-256.6 -522.599)"/><path class="u" d="M270.164,523.658s-.342-1.254.1-1.426.845.646.94,1.12Z" transform="translate(-258.149 -521.956)"/><path class="u" d="M276.274,526.391s-.342-1.254.1-1.426.845.647.939,1.12Z" transform="translate(-260.157 -522.854)"/><path class="u" d="M254.169,549.585c-.081-.081-.839-1.121-1.217-.581-.282.4.637,1.256.637,1.256Z" transform="translate(-252.517 -530.71)"/></g></g></g></g><g transform="translate(94.463 102.525)"><circle class="b" cx="27.399" cy="27.399" r="27.399"/><path class="s" d="M352.341,541.135c-5.133-5.289-7.7-7.933-8.534-10.415-2.79-8.293,2.952-20.076,13.357-22.667.541-.135,8.06-1.911,12.986,1.531,4.124,2.883,2.26,6.509,4.452,17.153,2.347,11.4,5.905,14.142,3.16,18.072-2.6,3.721-8.919,5.739-13.92,4.9C360.124,549.089,357.479,546.428,352.341,541.135Z" transform="translate(-335.009 -499.006)"/><g transform="translate(13.221 16.572)"><rect class="v" width="28.356" height="12.3" transform="translate(0 12.595)"/><path class="o" d="M374.674,526.424H355.156l-4.419,7.974h28.356Z" transform="translate(-350.737 -521.804)"/><path class="w" d="M363.427,529.209l-2.708-7.951a1.166,1.166,0,0,1,.906-1.445,3.479,3.479,0,0,1,2.171.193,3,3,0,0,0,2.764-.263h0a.193.193,0,0,1,.077-.034,3.509,3.509,0,0,1,2.347.311,3.007,3.007,0,0,0,1.789.486,6.682,6.682,0,0,0,2.525-.751,2.258,2.258,0,0,1,1.521-.136,1.1,1.1,0,0,1,.829,1.34l-2.5,8.249Z" transform="translate(-354 -519.542)"/><path class="x" d="M366.858,531.788s-1.814-4.172-1.381-5.031c0,0,.4-.377,1.687,4.979Z" transform="translate(-355.559 -521.911)"/><path class="x" d="M371.728,531.633s-.406-4.531.276-5.21c0,0,.5-.232.031,5.256Z" transform="translate(-357.595 -521.803)"/><path class="x" d="M376.794,531.792s1.78-4.187,1.34-5.042c0,0-.4-.374-1.647,4.992Z" transform="translate(-359.198 -521.909)"/><rect class="y" width="11.241" height="0.939" rx="0.47" transform="translate(8.509 9.197)"/><circle class="y" cx="2.649" cy="2.649" r="2.649" transform="translate(11.481 16.096)"/></g></g><path class="s" d="M453.948,519.121c5.288-5.132,7.932-7.7,10.414-8.534,8.294-2.789,20.076,2.952,22.667,13.357.135.542,1.912,8.06-1.531,12.986-2.882,4.125-6.509,2.261-17.153,4.453-11.4,2.347-14.142,5.905-18.072,3.16-3.721-2.6-5.739-8.92-4.9-13.92C445.994,526.9,448.654,524.259,453.948,519.121Z" transform="translate(-274.088 -397.273)"/><g transform="translate(181.762 116.378)"><circle class="z" cx="10.659" cy="10.659" r="10.659" transform="translate(0.703 0.69)"/><path class="aa" d="M480.454,518.822a11.35,11.35,0,0,0-16.934,15.06,10.352,10.352,0,0,0,1.865,1.874,11.353,11.353,0,0,0,15.069-16.934Zm-8.025,18.684a10.659,10.659,0,1,1,10.659-10.659A10.63,10.63,0,0,1,472.428,537.505Z" transform="translate(-461.07 -515.494)"/><path class="aa" d="M478.981,548.783v12.549a1.322,1.322,0,1,1-2.643.006V548.777A10.717,10.717,0,0,0,478.981,548.783Z" transform="translate(-466.087 -526.43)"/><rect class="b" width="0.958" height="2.605" rx="0.362" transform="translate(11.095 32.361)"/><g transform="translate(5.173 5.59)"><g transform="translate(1.745)"><path class="b" d="M483.613,527.851c-.046-.176-.821-3.055-2.5-3.323-1-.159-1.321.759-2.635.81-1.775.068-2.263-1.567-3.754-1.516a4.04,4.04,0,0,0-3.341,3.961c.15,1.438,1.57,1.44,2.566,3.6.914,1.982.144,2.9,1.033,3.892,1.19,1.323,3.974,1.237,5.837.189C483.587,533.909,484.242,530.29,483.613,527.851Z" transform="translate(-471.373 -523.82)"/></g><g transform="translate(7.203 5.084)"><circle class="o" cx="2.217" cy="2.217" r="2.217"/></g><g transform="translate(0 1.878)"><path class="ab" d="M474.663,538.328a1.174,1.174,0,0,1-.575-.15c-4.079-2.283-5.128-5.111-5.289-7.082a7.375,7.375,0,0,1,.711-3.856,1.179,1.179,0,0,1,2.083,1.107A5.216,5.216,0,0,0,471.16,531c.2,1.993,1.577,3.714,4.081,5.115a1.18,1.18,0,0,1-.577,2.209Z" transform="translate(-468.775 -526.617)"/></g></g></g><path class="s" d="M567.06,540.306c-7.368-.11-11.053-.165-13.4-1.33-7.837-3.892-12.109-16.283-6.584-25.473.288-.478,4.348-7.051,10.266-8.1,4.954-.878,6.2,3,15.277,8.981,9.717,6.4,14.175,5.824,15.013,10.545.793,4.469-2.249,10.365-6.377,13.307C578.188,540.427,574.437,540.417,567.06,540.306Z" transform="translate(-306.748 -395.76)"/><path class="s" d="M661.471,518.61c5.289-5.132,7.933-7.7,10.415-8.534,8.293-2.789,20.076,2.951,22.667,13.357.135.541,1.912,8.06-1.531,12.986-2.883,4.124-6.509,2.26-17.153,4.452-11.4,2.347-14.142,5.906-18.072,3.16-3.721-2.6-5.739-8.919-4.9-13.919C653.517,526.393,656.177,523.748,661.471,518.61Z" transform="translate(-342.278 -397.105)"/><g transform="translate(234.053 102.525)"><g class="r"><g transform="translate(13.367 10.107)"><rect class="ac" width="5.164" height="5.784" transform="translate(11.45 25.864)"/><path class="ad" d="M575.915,549.115a8.665,8.665,0,0,0,5.164,1.063v-1.744h-5.164Z" transform="translate(-564.465 -522.571)"/><ellipse class="ad" cx="2.52" cy="2.875" rx="2.52" ry="2.875" transform="translate(1.484 14.02)"/><ellipse class="ad" cx="2.52" cy="2.875" rx="2.52" ry="2.875" transform="translate(21.541 14.02)"/><path class="ac" d="M584.871,523.309c0-4.235-3.1-7.333-10.018-7.333s-10.019,3.1-10.019,7.333-.723,15.389,10.019,15.389S584.871,527.544,584.871,523.309Z" transform="translate(-560.82 -511.905)"/><path class="ae" d="M572.893,568.4c5.342,0,10.234-.149,14.032-3.329-.432-1.667-.969-5.333-1.483-6.668-1.125-2.917-6.61-6.507-12.549-6.507h0c-5.939,0-11.424,3.589-12.548,6.507-.515,1.335-1.052,5-1.484,6.668C562.66,568.25,567.552,568.4,572.893,568.4Z" transform="translate(-558.861 -523.708)"/><path class="af" d="M571.108,553.2l5.81,7.886v-3.236l-3.808-5.246A19.815,19.815,0,0,0,571.108,553.2Z" transform="translate(-562.885 -523.942)"/><path class="af" d="M585.57,553.2l-5.809,7.886v-3.236l3.807-5.246A19.814,19.814,0,0,1,585.57,553.2Z" transform="translate(-565.729 -523.942)"/><path class="ag" d="M573.268,552.514c1.176,1.936,3.3,5.267,4.359,5.888V551.9A16.79,16.79,0,0,0,573.268,552.514Z" transform="translate(-563.595 -523.708)"/><path class="ag" d="M584.12,552.514c-1.176,1.936-3.3,5.267-4.359,5.888V551.9A16.789,16.789,0,0,1,584.12,552.514Z" transform="translate(-565.729 -523.708)"/><path class="ah" d="M577.964,551.9a16.466,16.466,0,0,0-3.81.477,5.1,5.1,0,0,0,3.81,1.795,5.665,5.665,0,0,0,3.947-1.762A16.521,16.521,0,0,0,577.964,551.9Z" transform="translate(-563.886 -523.708)"/><path class="ac" d="M575.915,552.019a3.739,3.739,0,0,0,5.164,0A8.161,8.161,0,0,0,575.915,552.019Z" transform="translate(-564.465 -523.606)"/><path class="ai" d="M582.3,513.258s-3.718-4.725-11.446-2.943-8.307,6.429-8.074,10.951.852,7.175,1.585,6.847.352-3.313.429-4,.775-3.8,5.475-3.339a19.448,19.448,0,0,0,8.661-1.239,9.731,9.731,0,0,0,2.643,2.4c2.1.771,1.409,5.915,2.23,5.915S588.657,515.969,582.3,513.258Z" transform="translate(-560.137 -509.913)"/><path class="ad" d="M583.495,537.14c.153-.219.791.79,1.8.922s1.889-.7,2.241-.22-1.01,1.494-2.5,1.362A1.613,1.613,0,0,1,583.495,537.14Z" transform="translate(-566.922 -518.85)"/><path class="ad" d="M573.948,537.14c-.154-.219-.791.79-1.8.922s-1.889-.7-2.24-.22,1.01,1.494,2.5,1.362A1.614,1.614,0,0,0,573.948,537.14Z" transform="translate(-562.472 -518.85)"/><g transform="translate(17.474 16.555)"><ellipse class="ai" cx="1.054" cy="1.186" rx="1.054" ry="1.186"/><circle class="b" cx="0.329" cy="0.329" r="0.329" transform="translate(0.395 0.307)"/></g><g transform="translate(8.513 16.555)"><ellipse class="ai" cx="1.054" cy="1.186" rx="1.054" ry="1.186"/><circle class="b" cx="0.329" cy="0.329" r="0.329" transform="translate(0.395 0.307)"/></g><path class="ai" d="M587.276,529.946a5.51,5.51,0,0,1-3.93-.973c-.147-.1-.322.162-.185.316a3.784,3.784,0,0,0,4.181,1.3C587.6,530.482,587.563,529.924,587.276,529.946Z" transform="translate(-566.83 -516.169)"/><path class="ai" d="M570.332,530.012a5.513,5.513,0,0,0,3.93-.974c.147-.1.321.162.185.316a3.782,3.782,0,0,1-4.181,1.3C570.008,530.547,570.044,529.989,570.332,530.012Z" transform="translate(-562.552 -516.19)"/><path class="ag" d="M569.512,541.037s-3.279-1.051-3.524-1.19-.418-.816-.235-.816,3.861,1.233,3.861,1.233Z" transform="translate(-561.1 -519.481)"/><path class="ag" d="M570.8,544.934s-1.262.531-1.47.664.376.621.546.522,1.221-.587,1.221-.587Z" transform="translate(-562.286 -521.421)"/><path class="b" d="M576.884,539.032v6.621a9.892,9.892,0,0,1-5.124-1.788c-.763-.387-.849-3.238-.686-3.576S573.347,539.032,576.884,539.032Z" transform="translate(-562.851 -519.481)"/><path class="ag" d="M588.083,541.037s3.278-1.051,3.524-1.19.418-.816.235-.816-3.861,1.233-3.861,1.233Z" transform="translate(-568.43 -519.481)"/><path class="ag" d="M587.836,544.934s1.262.531,1.47.664-.376.621-.546.522-1.221-.587-1.221-.587Z" transform="translate(-568.284 -521.421)"/><path class="b" d="M579.761,539.032v6.621a9.891,9.891,0,0,0,5.124-1.788c.763-.387.849-3.238.686-3.576S583.3,539.032,579.761,539.032Z" transform="translate(-565.729 -519.481)"/><g transform="translate(4.315 36.174)"><path class="aj" d="M593.438,563.791l.424,6.3q.4-.2.795-.41Z" transform="translate(-574.538 -563.791)"/><path class="aj" d="M566.134,570.432l.447-6.641-1.293,6.243Q565.706,570.241,566.134,570.432Z" transform="translate(-565.288 -563.791)"/></g></g></g></g><g transform="translate(314.443 114.833)"><path class="ak" d="M672.057,551.671,671.978,553a.555.555,0,0,0,.31.53,2.635,2.635,0,0,0,2.706.04s.1-.849-1.158-1.4Z" transform="translate(-663.053 -525.836)"/><path class="al" d="M674.533,552.355l-.432-.121c.214.183.438.353.663.516.251.181.485.4.355.731a1.486,1.486,0,0,1-.645.643,1.833,1.833,0,0,0,1.216-.37S675.791,552.9,674.533,552.355Z" transform="translate(-663.751 -526.021)"/><path class="am" d="M670.651,540.243s.837,6.352,1.445,7.226a1.62,1.62,0,0,1,.875.545,1.6,1.6,0,0,1,.33.735,3.774,3.774,0,0,1-.812-.036,4.43,4.43,0,0,1-1.838-.749l.106-.3a1.513,1.513,0,0,0-.046-1.109,32.661,32.661,0,0,1-2.076-6Z" transform="translate(-661.955 -522.081)"/><path class="an" d="M672.906,538.923l-3.081-2.929-2.89,4.032a3.859,3.859,0,0,0,1.645.669,1.814,1.814,0,0,0,.3.66.289.289,0,0,0,.508-.1,2.555,2.555,0,0,0,.085-.517,4.013,4.013,0,0,0,.575-.081,1.659,1.659,0,0,0,.31.494.289.289,0,0,0,.495-.148,2.386,2.386,0,0,0,.03-.615q.211-.091.428-.21a1.659,1.659,0,0,0,.361.457.288.288,0,0,0,.475-.2,2.312,2.312,0,0,0-.072-.761A7.716,7.716,0,0,0,672.906,538.923Z" transform="translate(-661.396 -520.685)"/><path class="ao" d="M670.342,538.657c.727.1,1.44.275,2.169.357a6.6,6.6,0,0,0,.72.061c.05-.05.1-.1.152-.152l-3.081-2.929-1.916,2.673A7.341,7.341,0,0,1,670.342,538.657Z" transform="translate(-661.873 -520.685)"/><path class="ao" d="M672.906,540.184l-.451-.429c-2,2.825-5.164,1.254-5.285,1.2l-.235.328a3.854,3.854,0,0,0,1.645.668,1.816,1.816,0,0,0,.3.661.289.289,0,0,0,.508-.1,2.54,2.54,0,0,0,.085-.516,4.013,4.013,0,0,0,.575-.081,1.676,1.676,0,0,0,.31.494.289.289,0,0,0,.495-.149,2.379,2.379,0,0,0,.03-.614q.211-.091.428-.21a1.66,1.66,0,0,0,.361.457.288.288,0,0,0,.475-.2,2.311,2.311,0,0,0-.072-.761A7.709,7.709,0,0,0,672.906,540.184Z" transform="translate(-661.396 -521.921)"/><path class="ak" d="M695.567,551.671,695.487,553a.554.554,0,0,0,.31.53,2.635,2.635,0,0,0,2.706.04s.1-.849-1.159-1.4Z" transform="translate(-670.778 -525.836)"/><g transform="translate(24.785 25.835)"><path class="al" d="M697.381,552.17l-1.777-.5,0,.058,1.23.346c1.258.549,1.158,1.4,1.158,1.4a1.871,1.871,0,0,1-1.337.363,2.119,2.119,0,0,0,1.889-.268S698.64,552.719,697.381,552.17Z" transform="translate(-695.6 -551.671)"/></g><path class="ak" d="M691.431,553.087l-.078,1.327a.552.552,0,0,0,.309.53,2.635,2.635,0,0,0,2.706.04s.1-.849-1.158-1.4Z" transform="translate(-669.419 -526.302)"/><g transform="translate(22.009 26.785)"><path class="al" d="M693.246,553.587l-1.778-.5,0,.059,1.229.345c1.258.549,1.159,1.4,1.159,1.4a1.868,1.868,0,0,1-1.337.363,2.118,2.118,0,0,0,1.889-.268S694.5,554.136,693.246,553.587Z" transform="translate(-691.465 -553.087)"/></g><path class="am" d="M695.419,539.1s.342,2.967-.8,4.526a10.232,10.232,0,0,0,.645,3c.267.027,1.047.616.99,1.187a5.347,5.347,0,0,1-2.815-.361,3.992,3.992,0,0,0,.342-2.3s-.912-6.2-2.206-6.77A3.873,3.873,0,0,1,695.419,539.1Z" transform="translate(-669.494 -521.394)"/><path class="ap" d="M669.9,521.123c3.765,1.042,6.566.322,10.447-.406,4.868-.912,6.618-.684,9.394-1.1,1.288-.195,4.052,1.295,5.312,1.61l-2.258,5.923s-.227,10.863-10.673,6.3c0,0-5.68,4.159-12.374-2.028C669.748,531.418,666.6,520.21,669.9,521.123Z" transform="translate(-661.875 -515.297)"/><g transform="translate(8.531 10.907)"><path class="aq" d="M689.968,536.887a6.146,6.146,0,0,1-3.524.068,12.011,12.011,0,0,0-2.653-.677c-1.815-.061-2.684,1.145-6.415.963-2.612-.127-4.868-2.1-5.984-1.09,6.313,5.248,11.689,1.47,11.689,1.47,2.075.906,4.611,1.618,6.807.7a5.918,5.918,0,0,0,3.044-3.285,10.825,10.825,0,0,0,.761-2.961,15.335,15.335,0,0,1-.8,1.68A6.28,6.28,0,0,1,689.968,536.887Z" transform="translate(-671.392 -530.303)"/><path class="aq" d="M704.981,529.578a1.111,1.111,0,0,0-.09.428c.046-.189.1-.377.144-.569Z" transform="translate(-682.399 -529.437)"/></g><path class="ak" d="M664.814,552.846l-.079,1.327a.552.552,0,0,0,.31.53,2.634,2.634,0,0,0,2.705.04s.1-.849-1.158-1.4Z" transform="translate(-660.673 -526.222)"/><path class="al" d="M667.258,553.532l-.417-.117a2.439,2.439,0,0,1,.542.461c.1.118.195.242.288.366.041.056.083.111.124.166a1.039,1.039,0,0,1,.15.191.39.39,0,0,1-.076.3,1.128,1.128,0,0,1-.555.4,1.8,1.8,0,0,0,1.1-.371S668.516,554.081,667.258,553.532Z" transform="translate(-661.365 -526.409)"/><g transform="translate(0 7.123)"><path class="am" d="M662.642,524.184a2.9,2.9,0,0,0-1.3.69,2.64,2.64,0,0,0-.751,1.174,3.741,3.741,0,0,0-.094,1.436c.026.252.064.509.111.77l.152.8a21.106,21.106,0,0,1,.406,3.31c.009.281,0,.562-.007.844-.009.14-.013.281-.026.422s-.027.281-.046.421a7.594,7.594,0,0,1-.391,1.643l-.367-.1a11.506,11.506,0,0,0,.064-3.181c-.051-.53-.139-1.059-.231-1.588s-.2-1.059-.314-1.591c-.056-.265-.114-.534-.165-.811a8.6,8.6,0,0,1-.122-.853,4.955,4.955,0,0,1,0-.9,3.46,3.46,0,0,1,.2-.909,3.072,3.072,0,0,1,1.147-1.448,2.848,2.848,0,0,1,1.7-.512Z" transform="translate(-658.965 -523.802)"/><path class="ak" d="M659.529,541.642a4.9,4.9,0,0,0-.833,2.78,3.465,3.465,0,0,0,.856,2.493,2.41,2.41,0,0,1,.157-1.944c.277-.611.671-1.167.9-1.8a2.1,2.1,0,0,0-.009-1.718C660.31,540.993,659.809,541.205,659.529,541.642Z" transform="translate(-658.685 -529.518)"/></g><path class="ap" d="M670.921,527.17a4.671,4.671,0,0,0-7.619-4.563c-.044.039-.088.079-.132.12,0,0-3.575,3.309.532,9.357a24.028,24.028,0,0,1-.494,3.309l-.288.334a1.22,1.22,0,0,0-.107,1.446c1.039,1.657.905,2.393.814,5.5a2.887,2.887,0,0,0,2.535.71l-.481-.786a1.536,1.536,0,0,1-.579-.959l-.068-4.53a4.585,4.585,0,0,0,1.027-2.016S669.908,531.576,670.921,527.17Z" transform="translate(-659.685 -515.899)"/><path class="aq" d="M664.96,538.645a2.461,2.461,0,0,0,.222-1.006,1.438,1.438,0,0,0-.2-.165c-.291-.275-.591-.539-.874-.822.094.149.192.3.3.452,0,0-.24,2.33-.475,3.281A9.4,9.4,0,0,0,664.96,538.645Z" transform="translate(-660.41 -520.901)"/><path class="ap" d="M691.8,528.97s-.05,4.463-1.673,6.086c0,0,1.318,6.187.2,9.787a.743.743,0,0,1,.558,1.015s1.623.1,1.977-.2a1.561,1.561,0,0,0-.912-1.065l.1-2.84a69.623,69.623,0,0,0,3.7-7.3A5.959,5.959,0,0,0,691.8,528.97Z" transform="translate(-669.016 -518.377)"/><path class="ar" d="M675.337,529.576a2.288,2.288,0,0,0-.318,2.359,1.332,1.332,0,0,0,.994.831,1.848,1.848,0,0,0,.912-.225l1.551-.681a2.074,2.074,0,0,0,.81-.52,1.329,1.329,0,0,0-.118-1.648A2.636,2.636,0,0,0,675.337,529.576Z" transform="translate(-663.989 -518.323)"/><path class="ar" d="M666.443,530.192a3.092,3.092,0,0,0,.9.621,1.049,1.049,0,0,1,.6.857c-.025.526-.653.784-.936,1.229a7.3,7.3,0,0,0-.319.769.676.676,0,0,1-.64.441.641.641,0,0,1-.467-.551c-.047-.253-.01-.514-.037-.769a3.357,3.357,0,0,0-.621-1.376,2.53,2.53,0,0,1-.512-1.411c.022-.476.541-1.136,1.07-1.1C666.067,528.943,666.157,529.829,666.443,530.192Z" transform="translate(-660.567 -518.354)"/><path class="ar" d="M692.553,536.4a1.689,1.689,0,0,0-.169,1.207c.069.41.21.807.261,1.22.042.336.052.734.334.921.333.221.78-.033,1.043-.333a2.892,2.892,0,0,0,.688-1.534,1.87,1.87,0,0,0-.209-1.206C694.111,536.032,693.042,535.651,692.553,536.4Z" transform="translate(-669.746 -520.683)"/><g transform="translate(2.043 4.3)"><path class="a" d="M692.585,520.8a1.133,1.133,0,0,0,.169,1.439,1.288,1.288,0,0,0,.825.205c1.159-.039,2.91-1.309,2.618-2.565-.968.093-1.9.138-3.014.236A2.83,2.83,0,0,0,692.585,520.8Z" transform="translate(-671.81 -519.691)"/><path class="ar" d="M670.017,523.737c-.613.493-1.587.775-1.657,1.559-.075.829.955,1.291,1.314,2.041.17.354.224.823.577.994a.815.815,0,0,0,.953-.38c.209-.309.294-.685.477-1.011.61-1.088,2.062-1.31,3.309-1.335s2.659-.04,3.507-.955a2.845,2.845,0,0,0,.488-2.726c-.026-.085-.054-.169-.085-.251-2.89.553-5.264.961-8.144.344A2.126,2.126,0,0,1,670.017,523.737Z" transform="translate(-663.907 -520.279)"/><path class="ar" d="M685.564,523.916c.158.389.435.733.567,1.13a4.217,4.217,0,0,1-.376,2.519,2.174,2.174,0,0,0,.387,2.414,1.8,1.8,0,0,0,1.824.14,2.129,2.129,0,0,0,1.111-1.388,11.872,11.872,0,0,1,.267-1.334,1.117,1.117,0,0,1,1.086-.769,1.189,1.189,0,0,1,.9.949,3.784,3.784,0,0,0,.41,1.272,1.806,1.806,0,0,0,1.633.612,3.8,3.8,0,0,0,1.679-.682c.906-.6,1.736-1.564,1.469-2.556-.218-.81-1.106-1.362-1.326-2.172-.363-1.333,1.215-2.565,1.052-3.93a1.671,1.671,0,0,0-.132-.472,2.5,2.5,0,0,0-.782-.036c-.5.076-.973.13-1.434.174.292,1.256-1.459,2.526-2.618,2.565a1.288,1.288,0,0,1-.825-.205,1.133,1.133,0,0,1-.169-1.439,2.829,2.829,0,0,1,.6-.684c-1.074.094-2.324.236-3.953.514-.107.077-.211.157-.31.242A2.875,2.875,0,0,0,685.564,523.916Z" transform="translate(-669.511 -519.597)"/><path class="ar" d="M662.45,526.459c.107-.288.138-.6.216-.894a2.937,2.937,0,0,1,1.256-1.716,7.959,7.959,0,0,1,1.5-.636,3.25,3.25,0,0,0,1.372-.842,1.58,1.58,0,0,0,.373-.86,4.473,4.473,0,0,0-3.861,1.1c-.044.039-.088.079-.132.12a5.566,5.566,0,0,0-1.42,4.4.487.487,0,0,0,.095-.018A1.008,1.008,0,0,0,662.45,526.459Z" transform="translate(-661.729 -520.2)"/></g><path class="as" d="M701.166,519.849a6.388,6.388,0,0,0,.177,5.008,6.176,6.176,0,0,0,2.092,2.345c.243-.632.55-1.411.831-2.272a8.37,8.37,0,0,0,.273-4.46Z" transform="translate(-672.502 -515.38)"/><g transform="translate(25.579)"><path class="at" d="M708.869,513.28a2.781,2.781,0,0,1-.448,1.377,2.828,2.828,0,0,1-.234.308,2.689,2.689,0,0,1-.286.272,2.914,2.914,0,0,1-.688.419.5.5,0,1,1-.423-.9.487.487,0,0,1,.14-.042h.013a2.03,2.03,0,0,0,.8-.256,2.334,2.334,0,0,0,.242-.172,2.275,2.275,0,0,0,.42-.455,2.55,2.55,0,0,0,.3-.57l0-.007a.082.082,0,0,1,.16.032Z" transform="translate(-699.977 -513.193)"/><path class="au" d="M707.878,514.88a3.222,3.222,0,0,1-.912.454,2.869,2.869,0,0,1-.409.1.514.514,0,0,0,.034.095.5.5,0,0,0,.664.241,2.951,2.951,0,0,0,.687-.419,2.752,2.752,0,0,0,.287-.272,2.8,2.8,0,0,0,.233-.309,2.71,2.71,0,0,0,.319-.671,2.834,2.834,0,0,0,.109-.489A3.049,3.049,0,0,1,707.878,514.88Z" transform="translate(-699.995 -513.33)"/><path class="aq" d="M703.865,526.654a2.3,2.3,0,0,0,1.06.761c1.6.336,2.167-.115,2.167-.115a.886.886,0,0,0,.576-.853Z" transform="translate(-699.11 -517.548)"/><path class="ap" d="M704.016,526.087a2.3,2.3,0,0,0,1.06.761c1.6.336,2.167-.115,2.167-.115a.888.888,0,0,0,.577-.853Z" transform="translate(-699.16 -517.362)"/><path class="av" d="M707.888,516.986s-.138.876.323,1.268a1.828,1.828,0,0,0,1.66.069,2.334,2.334,0,0,0,1.037-2.189C709.248,515.257,708.556,517.47,707.888,516.986Z" transform="translate(-700.425 -514.091)"/><path d="M709.264,518.336a1.564,1.564,0,0,1-.725-.181.966.966,0,0,1-.217-.651,1.654,1.654,0,0,0,.8-.494,1.886,1.886,0,0,1,1.174-.631,1.234,1.234,0,0,1,.511.12,2.28,2.28,0,0,1-.915,1.7,1.494,1.494,0,0,1-.628.14Z" transform="translate(-700.575 -514.24)"/><path class="ap" d="M703.613,514.665s-2.766-.381-3.009,3.181c0,0-.782,5.374,2.984,5.226a.864.864,0,0,0,.18-.028,5.775,5.775,0,0,1,2.784-.15,1.71,1.71,0,0,0-.311-2.178,3.838,3.838,0,0,1,.034-1.971,1.811,1.811,0,0,0-.449-1.936A2.6,2.6,0,0,0,703.613,514.665Z" transform="translate(-698.016 -513.673)"/><path class="ao" d="M705.673,524.3a1.559,1.559,0,0,0,.555,1.387.776.776,0,0,0,.469.146l.788-.013a.787.787,0,0,0,.732-.52,2.281,2.281,0,0,0,.127-1.087.262.262,0,0,0-.156-.2,2.774,2.774,0,0,0-2.37.073A.268.268,0,0,0,705.673,524.3Z" transform="translate(-699.703 -516.67)"/><path class="aw" d="M707.685,519.134a2.349,2.349,0,0,0,.729,1.925,2.223,2.223,0,0,0-.165-.179,4.28,4.28,0,0,1,.11-1.946,1.811,1.811,0,0,0-.45-1.936,3.249,3.249,0,0,0-1.26-1.844A5.309,5.309,0,0,1,707.685,519.134Z" transform="translate(-700.025 -513.837)"/><path class="ar" d="M702,517.5a3.041,3.041,0,0,0-1.985-1.23,4.13,4.13,0,0,0-.614,1.311c-.565-.33-1.27-1.525-2.565-.842a2.335,2.335,0,0,0,1.037,2.19,1.808,1.808,0,0,0,1.342.072c-.06,1.151.023,3.587,1.687,4.367a.564.564,0,0,0,.271.053c1.282-.071.953-1,1.535-2.073A3.74,3.74,0,0,0,702,517.5Z" transform="translate(-696.783 -514.205)"/><path d="M698.775,519.072a1.481,1.481,0,0,1-.627-.14,2.277,2.277,0,0,1-.915-1.7,1.241,1.241,0,0,1,.51-.12,1.885,1.885,0,0,1,1.174.631,1.647,1.647,0,0,0,.8.494.971.971,0,0,1-.218.651A1.574,1.574,0,0,1,698.775,519.072Z" transform="translate(-696.931 -514.482)"/><path class="ax" d="M704.022,527c.608.3,2.405-.726,3.675-.154" transform="translate(-699.162 -517.619)"/><path class="ay" d="M708.323,524.119c-.006.082-.431.038-1.166.07a4.075,4.075,0,0,1-1.388-.032,2,2,0,0,1,1.319-.38A1.739,1.739,0,0,1,708.323,524.119Z" transform="translate(-699.735 -516.671)"/><path d="M709.084,519.6a.533.533,0,0,0-.158,1.031A3.914,3.914,0,0,0,709.084,519.6Z" transform="translate(-700.66 -515.299)"/><path class="az" d="M709.172,519.861a.361.361,0,0,0-.124.686A2.048,2.048,0,0,0,709.172,519.861Z" transform="translate(-700.745 -515.384)"/><g transform="translate(8.201 4.604)"><path d="M709.207,520.05a.225.225,0,0,0-.21.238.243.243,0,0,0,.143.222.553.553,0,0,0,.077-.459Z" transform="translate(-708.997 -520.05)"/></g><path class="ba" d="M709.129,520.187a.064.064,0,1,1-.019-.094A.068.068,0,0,1,709.129,520.187Z" transform="translate(-700.8 -515.458)"/><path class="bb" d="M706.306,524.633a.723.723,0,0,1,.16.057,1.374,1.374,0,0,1,.149.085c.048.031.1.064.142.1a1.16,1.16,0,0,1,.134.119.041.041,0,0,1,0,.058.043.043,0,0,1-.029.011,1.168,1.168,0,0,1-.178-.017c-.058-.009-.115-.021-.171-.035a1.5,1.5,0,0,1-.164-.05.731.731,0,0,1-.151-.079.139.139,0,0,1-.032-.194A.14.14,0,0,1,706.306,524.633Z" transform="translate(-699.857 -516.951)"/><path class="bb" d="M709.021,524.844a.707.707,0,0,1-.152.079,1.449,1.449,0,0,1-.164.05,1.73,1.73,0,0,1-.17.036,1.278,1.278,0,0,1-.178.017.041.041,0,0,1-.042-.041.037.037,0,0,1,.011-.029,1.212,1.212,0,0,1,.134-.118c.046-.036.094-.07.142-.1a1.354,1.354,0,0,1,.148-.085.707.707,0,0,1,.161-.058.139.139,0,0,1,.108.25Z" transform="translate(-700.573 -516.938)"/><path d="M703.554,520.5a.73.73,0,0,1-.031-.117.887.887,0,0,1,0-.256.522.522,0,0,0-.046-.275.536.536,0,1,0-.41.75,1.212,1.212,0,0,1,.251-.017c.057,0,.113.009.161.015A.073.073,0,0,0,703.554,520.5Z" transform="translate(-698.646 -515.277)"/><path class="az" d="M702.667,520.125a.39.39,0,1,1,.389.39A.39.39,0,0,1,702.667,520.125Z" transform="translate(-698.716 -515.343)"/><circle cx="0.292" cy="0.292" r="0.292" transform="translate(4.049 4.491)"/><path class="ba" d="M703.064,519.977a.086.086,0,1,1-.085-.085A.086.086,0,0,1,703.064,519.977Z" transform="translate(-698.791 -515.394)"/><path class="bc" d="M699.99,513.673a3.2,3.2,0,0,0,.083.638,1.7,1.7,0,0,0,.22.552.671.671,0,0,0,.35.291.86.86,0,0,0,.427-.011l.037-.006a.447.447,0,0,1,.517.372.448.448,0,0,1-.487.535l-.214-.023a.86.86,0,0,1-.212-.044c-.072-.023-.143-.044-.211-.073s-.136-.077-.2-.117a1.345,1.345,0,0,1-.491-.7,2.226,2.226,0,0,1-.091-.741,3.455,3.455,0,0,1,.093-.7.091.091,0,0,1,.11-.069.093.093,0,0,1,.069.089Z" transform="translate(-697.747 -513.319)"/><path class="bd" d="M702.082,516.267a.448.448,0,0,0-.518-.372l-.037.006a.91.91,0,0,1-.412.016c.052.036.105.071.163.106.2.122.487.279.512.542a.408.408,0,0,1-.047.227A.458.458,0,0,0,702.082,516.267Z" transform="translate(-698.207 -514.078)"/></g><g class="be" transform="translate(25.579 2.329)"><path class="aq" d="M702.5,520.6a1.687,1.687,0,0,0-.971-.492,3.309,3.309,0,0,1-1.038-.253,1.212,1.212,0,0,1-.541-.985,3.44,3.44,0,0,0-.174-.891,3.041,3.041,0,0,1-.162-.869,4.084,4.084,0,0,0-.211.6c-.565-.33-1.27-1.525-2.565-.842a2.335,2.335,0,0,0,1.037,2.19,1.809,1.809,0,0,0,1.342.072c-.06,1.151.023,3.587,1.687,4.367a.567.567,0,0,0,.272.053c1.3-.073.943-1.027,1.56-2.119v-.006A2.95,2.95,0,0,0,702.5,520.6Z" transform="translate(-696.783 -516.662)"/></g></g></g></g></svg>