<svg xmlns="http://www.w3.org/2000/svg" width="38.943" height="70.762" viewBox="0 0 38.943 70.762"><defs><style>.a{fill:#231f20;fill-rule:evenodd;}</style></defs><path class="a" d="M214.066,260.6a5.643,5.643,0,1,1-5.613-5.667A5.636,5.636,0,0,1,214.066,260.6Z" transform="translate(-188.952 -254.932)"/><path class="a" d="M212.909,281.215V297.6H201.594V284.064l-7.355,11.289c-1.478,2.3-8.341,3.759-6.851,1.457l13.93-21.429a7.106,7.106,0,0,1,9.778-2.229c3.39,2.2,7.033,5.962,10.194,8.634a4.288,4.288,0,0,1,1.513,3.243v6.93c0,2.746-4.95,7.7-4.95,4.948V285.375Z" transform="translate(-185.52 -258.698)"/><path class="a" d="M206.063,309.487l-13.345,24.627a5.626,5.626,0,0,1-7.666,2.249l15.021-27.691a2.6,2.6,0,0,0,.346-1.34v-.716h11.315v.716a2.907,2.907,0,0,0,.341,1.34l11.238,20.715a5.659,5.659,0,0,1-2.275,7.668Z" transform="translate(-185.052 -266.301)"/></svg>