<svg xmlns="http://www.w3.org/2000/svg" xmlns:xlink="http://www.w3.org/1999/xlink" width="372" height="327.473" viewBox="0 0 372 327.473"><defs><style>.a,.k{fill:none;}.b{clip-path:url(#a);}.c{fill:#bec9f2;}.c,.j{opacity:0.5;}.d{fill:#c2934e;}.e{fill:#caa267;}.f{fill:#f0c659;}.g{fill:#8c7cc9;}.h{fill:#f1c759;}.i{opacity:0.3;}.k{stroke:#8c7cc9;stroke-miterlimit:10;stroke-width:0.368px;}.l{opacity:0.15;}.m{fill:#cacaca;}.n{fill:#0a0059;}.o{fill:#7f7f7f;}</style><clipPath id="a"><path class="a" d="M973.655,615.391s-95.14-5.861-124.592-58.057,20.152-80.873,39.528-92.5,42.629-20.927,52.7-93.783,70.532-81.382,96.5-77.507,43.275,27.127,53.222,43.4,32.424,41.531,67.3,68.432,72.081,90.974,43.4,158.146-97.272,54.965-97.272,54.965S1022.1,624.049,973.655,615.391Z" transform="translate(-839.94 -292.774)"/></clipPath></defs><g transform="translate(-839.94 -292.774)"><g transform="translate(839.94 292.774)"><g class="b"><rect class="c" width="429.593" height="421.146" transform="translate(-23.33 -28.268)"/><g transform="translate(68.287 88.092)"><path class="d" d="M1059.36,433.254c.395.974,2.736,11.849,4.761,13.993s8.621,1.686,8.389,2.27-4.95,11.792-13.124,12.649-5.74-5.163-5.74-5.163a16.029,16.029,0,0,0-.828-13.129C1049.208,436.959,1059.36,433.254,1059.36,433.254Z" transform="translate(-928.798 -394.49)"/><g transform="translate(110.131)"><ellipse class="e" cx="18.016" cy="13.384" rx="18.016" ry="13.384" transform="translate(0 44.4) rotate(-81.107)"/><g transform="translate(1.79)"><g transform="translate(1 4.772)"><path class="f" d="M1051.116,408.5s20.906,16.159,17.288-5.021C1065.9,388.829,1036.924,397.061,1051.116,408.5Z" transform="translate(-1041.252 -395.612)"/><path class="f" d="M1054.55,404.261s-13.987,5.46-13.939,13.176c0,0,.722-22.9,13.542-21.439s17.556,3.457,12.677,27.018C1066.83,423.016,1066.113,403.542,1054.55,404.261Z" transform="translate(-1040.611 -395.643)"/></g><path class="f" d="M1054.967,395.512s1.747-6.893,8.618-4.784,9.258,6.55,9.636,10.673.913,7.254,1.917,7.414c0,0-3.481,2.493-4.329,1.343,0,0,1.481,7.539-2.753,12.862,0,0,.12-9.219-4.744-11.008S1054.967,395.512,1054.967,395.512Z" transform="translate(-1041.003 -390.327)"/><path class="f" d="M1054.119,395.992s-4.55-3.77-10.665,2.366l-3.951,5.465s.848,1.15,3.012.479c0,0-2.017,6.834-1.68,10.927l4.848-11.439Z" transform="translate(-1039.503 -390.765)"/></g></g><path class="g" d="M1128.211,592.174c-.964,6.919-12.623,11.146-21.251,22.893-4.18,5.7-15.374,10.218-25.321,10.582-24.442.94-44.259,3.242-73.7-10.582-33.867-15.9-7.854-74.839-9.815-81.482-2.576-8.775,45.084-34.18,48.17-35.2s50.269-3.953,51.631-3.5S1130.925,572.658,1128.211,592.174Z" transform="translate(-922.821 -400.463)"/><g transform="translate(82.554 212.015)"><path class="h" d="M1017.678,630.565c1.712.155,2.633.2,3.858.327,8.672-.208,46.121-1.2,66.371-3.226,7.144-.717,12.146-1.562,12.986-2.554a.707.707,0,0,1,0,.082c0,1.106-.084,13.772-.248,30.377-.324,32.778,5.186,79.467,9.821,93.51,1,3.03-45.7.4-45.7.4-1.631-33.742-1.021-93.129-3.236-95.694-2.695-3.12-4.51,49.172-7.312,92.985-18.2,5.536-47.487,3.922-47.232,2.045C1010,726.528,1017.678,630.565,1017.678,630.565Z" transform="translate(-1006.982 -625.113)"/><g class="i" transform="translate(45.01)"><path d="M1057.245,630.392l-.419-.016S1056.975,630.38,1057.245,630.392Z" transform="translate(-1056.826 -625.623)"/><path class="j" d="M1057.29,629.882c11.191.4,35.5-2.215,35.5-2.215,7.144-.717,12.146-1.562,12.986-2.554a.707.707,0,0,1,0,.082c0,1.106-.084,13.772-.248,30.377a8.458,8.458,0,0,1-1.178-.083,9.144,9.144,0,0,1-6.085-3.881,19.956,19.956,0,0,1-2.506-4.629C1086.744,631.731,1060.877,630.043,1057.29,629.882Z" transform="translate(-1056.871 -625.113)"/></g><g transform="translate(12.499 2.554)"><line class="k" x1="6.388" y2="122.311" transform="translate(0 0.556)"/><line class="k" x1="6.393" y2="120.186" transform="translate(11.821 2.485)"/><line class="k" x1="4.457" y2="119.264" transform="translate(25.211 1.989)"/><line class="k" x2="1.346" y2="24.606" transform="translate(40.7 1.511)"/><line class="k" x2="3.134" y2="121.348" transform="translate(52.945 0.981)"/><line class="k" x2="4.81" y2="122.295" transform="translate(63.479 0.448)"/><line class="k" x2="7.855" y2="122.866" transform="translate(73.836)"/></g><path class="k" d="M1017.789,643.548s66.626.218,84.055-3.639" transform="translate(-1008.03 -626.548)"/><path class="k" d="M1062.482,656.75c-23.032,6.206-45.661-1.047-45.661-1.047" transform="translate(-1007.936 -628.08)"/><path class="k" d="M1067.031,655.07s21.253,4.911,39.476-.8" transform="translate(-1012.806 -627.941)"/><path class="k" d="M1015.994,665.642s17.151,7.934,44.185,2.341" transform="translate(-1007.856 -629.044)"/><path class="k" d="M1015,677.481s26.438,6.727,44.248,1.905" transform="translate(-1007.76 -630.192)"/><path class="k" d="M1013.995,689.242s13.744,9.7,44.344,3.756" transform="translate(-1007.662 -631.333)"/><path class="k" d="M1012.819,702.771a65.516,65.516,0,0,0,44.834,1.386" transform="translate(-1007.548 -632.645)"/><path class="k" d="M1011.718,715.166s14.8,9.427,45.157,2.265" transform="translate(-1007.441 -633.847)"/><path class="k" d="M1010.556,727.873s20.259,9.356,45.7-.013" transform="translate(-1007.329 -635.078)"/><path class="k" d="M1009.615,737.793s12.177,10.581,46,.881" transform="translate(-1007.237 -636.042)"/><path class="k" d="M1008.486,749.055s19.331,9,46.443.552" transform="translate(-1007.128 -637.134)"/><path class="k" d="M1068.636,667.422s9.089,6.764,38.563.174" transform="translate(-1012.962 -629.216)"/><path class="k" d="M1069.421,679.271s12.559,5.129,37.6-.435" transform="translate(-1013.038 -630.323)"/><path class="k" d="M1069.344,692.386s19.256,4.824,38.148-1.652" transform="translate(-1013.031 -631.477)"/><path class="k" d="M1069.529,703.357s18.834,7.3,38.79-1.68" transform="translate(-1013.048 -632.539)"/><path class="k" d="M1069.72,715.4s17.859,5.327,39.61-1.715" transform="translate(-1013.067 -633.703)"/><path class="k" d="M1069.92,726.967s15.117,5.92,40.588-1.757" transform="translate(-1013.086 -634.821)"/><path class="k" d="M1070.375,737.29s18,8.187,41.526-.845" transform="translate(-1013.13 -635.911)"/><path class="k" d="M1070.475,750.036a82.527,82.527,0,0,0,43.235-1.379" transform="translate(-1013.14 -637.095)"/></g><path class="l" d="M1057.663,558.985c1.849-1.616,7.079,4.313,14.073,2.882,6.5-1.331,10.067-8.109,10.513-8.987,3.968-7.809-.581-13.156,1.018-21.535.991-5.2,4.45-12.106,15.6-19.161l7.63,61.552h0l-41.543,3.561C1056.833,563.784,1056.51,559.991,1057.663,558.985Z" transform="translate(-929.296 -402.146)"/><path class="e" d="M1098.889,559.2l-7.234,19.635s-24.6-6.714-40.615-14.724-25.782-21.187-30.95-21.187-19.764,3.422-20.926,5.36,2.713,3.488,4.844,3.682a31.429,31.429,0,0,0,6.588-.775s-2.131,4.069-3.875,7.751,1.937,6.394,3.1,6.782c0,0,3.294,4.263,6.007,4.263,0,0,5.038,5.431,9.494,4.266s-.387-4.459-.387-4.459a12.111,12.111,0,0,0,6.2.581,18.689,18.689,0,0,0,5.814-1.937s8.171,3.316,13.074,9.073c10.705,12.573,24.247,34.083,33.107,39.044,12.918,7.234,18.86,11.368,27.127,7.492s22.865-30.251,26.352-44.954C1136.609,579.1,1112.841,578.064,1098.889,559.2Z" transform="translate(-923.649 -405.127)"/><path class="g" d="M1145.035,567.993c-5.08,15.9-20.2,41.747-35.809,49.33a24.312,24.312,0,0,1-6.019,2.025c-18.746,3.694-50.7-25.22-63.758-55.292,4.067-6.181,1.588-7.939,5.655-14.12,9.5,6.595,21.792,11.18,33.475,10.069a7.7,7.7,0,0,0,4.026-1.239,6.948,6.948,0,0,0,2.2-3.678c1.758-5.915.389-12.112-.8-17.985a132.866,132.866,0,0,1-2.333-17.7c-.072-1.126-1.118-8.879-.162-9.479-14.72,9.269-58.314-1.952-73.034,7.316-5.63,3.54,17.621,27.577,11.99,31.117-8.985,47.369-5.842,35.744-11.99,47.474-21.7,4.31-38.045-13.747-39.551-29.837-2.86-30.558-8.968-56.07,10.848-82.748,21.177-28.508,57.787-37.477,63.758-31.651a14.885,14.885,0,0,0,5.127,3.9,9.277,9.277,0,0,0,2.107.616,11.871,11.871,0,0,0,6.327-.908c5.322-2.123,7.931-6.432,9.049-7.688,3.022-3.419,12.16-3.694,23.008-.745,11.277,3.062,24.4,9.616,34.415,19.743C1156.449,499.772,1149.531,553.9,1145.035,567.993Z" transform="translate(-920.428 -395.604)"/><g transform="translate(88.038 133.125)"><path d="M1013.7,550.273a.628.628,0,0,1-.213-.037.641.641,0,0,1-.392-.819,67.837,67.837,0,0,1,5.293-11.365.642.642,0,0,1,1.088.68,67.858,67.858,0,0,0-5.17,11.112A.642.642,0,0,1,1013.7,550.273Z" transform="translate(-1013.055 -537.75)"/></g><g transform="translate(94.044 138.744)"><path d="M1020.349,555.14a.669.669,0,0,1-.156-.019.644.644,0,0,1-.468-.779c.066-.258,1.608-6.356,4.163-10.089a.642.642,0,1,1,1.061.724c-2.426,3.547-3.961,9.616-3.977,9.677A.643.643,0,0,1,1020.349,555.14Z" transform="translate(-1019.706 -543.973)"/></g><path class="d" d="M1001.764,597.607a29.4,29.4,0,0,1-11.515-2.183,20.634,20.634,0,0,1-7.847-6.349l12.79-3.176,16.392,2.583S1011,595.92,1001.764,597.607Z" transform="translate(-922.044 -409.295)"/><path class="m" d="M1027.946,582.34l-91.716-14.354-20.668-81.228,88.631,10.842Z" transform="translate(-915.561 -399.679)"/><path class="n" d="M1013.712,498.763l2.665.775,22.186,77.773,23.778-3.845,4.455,4.838-29.33,5.2Z" transform="translate(-925.08 -400.844)"/><path class="m" d="M1064.76,581.027l-23.778,3.845-2.328-8.162Z" transform="translate(-927.499 -408.404)"/><path class="e" d="M972.218,578.75s9.431,10.225,14.991,11.714,16.381-6.949,18.068-9.232,0-2.68-1.391-2.482-4.666,2.779-4.666,2.779,6.354-9.928,4.666-11.516-9.89,9.73-9.89,9.73.757-14.3-.931-14.4-5.759,12.646-5.759,12.646-5.261-13.54-7.644-13.54,1.29,13.6,1.29,13.6-9.232-4.071-11.02-3.673S972.218,578.75,972.218,578.75Z" transform="translate(-920.79 -407.215)"/><path class="o" d="M978.354,533.71c2.073,6.153.026,12.4-4.572,13.947s-10.008-2.183-12.081-8.336-.025-12.4,4.573-13.947S976.281,527.557,978.354,533.71Z" transform="translate(-919.957 -403.391)"/><path class="l" d="M1098.048,446.773c-3.346,3.078-14.9,7.193-19.962,7.193-6.44,0-8.7,6.895-14.355,6.781a6.4,6.4,0,0,1-6.174-5.249,9.277,9.277,0,0,0,2.107.616,11.871,11.871,0,0,0,6.327-.908c5.322-2.123,7.931-6.432,9.049-7.688C1078.062,444.1,1087.2,443.824,1098.048,446.773Z" transform="translate(-929.333 -395.604)"/></g></g></g></g></svg>