<svg xmlns="http://www.w3.org/2000/svg" xmlns:xlink="http://www.w3.org/1999/xlink" width="528" height="366.325" viewBox="0 0 528 366.325"><defs><style>.a,.m{fill:none;}.b{fill:#bec9f2;}.b,.j{opacity:0.5;}.c{clip-path:url(#a);}.d{fill:#c2934e;}.e,.l{fill:#caa267;}.f{fill:#8a7cc7;}.g{fill:#f1c759;}.h{opacity:0.15;}.i{opacity:0.3;}.k{fill:#eec459;}.l{fill-rule:evenodd;}.m{stroke:#8a7cc7;stroke-miterlimit:10;stroke-width:1.093px;}.n{fill:#9180d2;}</style><clipPath id="a"><path class="a" d="M959.623,430.271c65.815-52.736,98.723-79.1,129.618-87.682,103.22-28.663,249.862,30.327,282.109,137.242,1.678,5.563,23.793,82.816-19.061,133.429-35.88,42.377-81.018,23.224-213.487,45.748-141.823,24.115-176.01,60.678-224.925,32.464-46.311-26.711-71.421-91.644-61-143.021C860.632,510.242,893.734,483.064,959.623,430.271Z" transform="translate(-850.537 -335.375)"/></clipPath></defs><g transform="translate(-850.537 -335.375)"><path class="b" d="M959.623,430.271c65.815-52.736,98.723-79.1,129.618-87.682,103.22-28.663,249.862,30.327,282.109,137.242,1.678,5.563,23.793,82.816-19.061,133.429-35.88,42.377-81.018,23.224-213.487,45.748-141.823,24.115-176.01,60.678-224.925,32.464-46.311-26.711-71.421-91.644-61-143.021C860.632,510.242,893.734,483.064,959.623,430.271Z" transform="translate(0 0)"/><g transform="translate(850.537 335.375)"><g class="c"><g transform="translate(119.61 44.705)"><path class="d" d="M1093.458,419.523s-1.361,15.189,8.009,23.59-21.593,0-21.593,0,5.762-14.55,4.469-23.59S1093.458,419.523,1093.458,419.523Z" transform="translate(-931.793 -366.679)"/><ellipse class="e" cx="16.381" cy="22.349" rx="16.381" ry="22.349" transform="translate(140.343 14.034)"/><path class="f" d="M1215.565,563.238c-.349,5.487-6.022,30.347-13.114,52.444-5.811,18.14-12.591,34.428-18.166,36.679-12.367,4.977-105.745,11.808-124.944,2.651-.448-.336-.933-.7-1.394-1.1-7.2-5.86-15.018-17.43-19.16-28.268,0-.013-11.036-31.117-13.289-37.451-.025-.062-.037-.112-.062-.161-.075-.25-.161-.486-.249-.71-.025-.086-.063-.162-.088-.249-11.621,39.678-102.449,36.791-49.769-73.409,24.8-51.871,69.054-75.536,97.311-81.819,12.23-2.726,21.462-2.191,24.834.721a18.309,18.309,0,0,0,11.434,4.441,24.751,24.751,0,0,0,6.421-.585,32.009,32.009,0,0,0,6.8-2.313c1.046-.486,1.655-.835,1.655-.835a66.433,66.433,0,0,1,17.3,1.033C1205.014,446.83,1216.137,554.019,1215.565,563.238Z" transform="translate(-952.004 -364.243)"/><path class="g" d="M1173.579,773.03h-64.371q.129-5.914.29-11.923c.134-5.476.288-10.99.442-16.445.165-5.782.328-11.518.482-17.109.155-5.359.3-10.583.434-15.6.367-14.161.616-26.662.569-35.743-.039-8.6-.347-14.121-1.089-15.066-.279-.356-.569-.29-.877.193-.973,1.523-2.073,7.182-3.278,15.8-.645,4.579-1.311,10-2.005,16.069-.684,5.938-1.388,12.521-2.12,19.557-.511,4.935-1.032,10.1-1.572,15.443-.607,6.121-1.234,12.453-1.87,18.931-.471,4.743-.944,9.562-1.426,14.429q-.564,5.7-1.128,11.461H1024.3c.02-.174.038-.357.068-.53.627-4.464,1.272-9.157,1.938-14.026.79-5.784,1.6-11.808,2.42-17.967.761-5.755,1.542-11.634,2.313-17.533,1.58-12.04,3.152-24.214,4.626-35.771,1.417-11.056,2.739-21.553,3.914-30.816,2.719-21.631,4.57-36.6,4.57-36.6a7.468,7.468,0,0,0,.587.531.257.257,0,0,0,.048.039,8.534,8.534,0,0,0,2.035,1.214,12.637,12.637,0,0,0,3.065.858l6.517.116c4.82.088,11.219.174,18.565.251,5.494.058,11.518.106,17.784.125,1.639.01,3.287.02,4.944.01h.078c4.019.009,8.1.009,12.184-.01,6.42-.028,12.849-.1,19.018-.211,5.755-.106,11.3-.251,16.387-.453q3.311-.145,6.352-.3c.019.009.039,0,.058,0l.5-.029c.51-.029.79-.049.79-.049,1.031-.057,2.024-.125,3-.193s1.91-.125,2.815-.2h.009c.752-.058,1.474-.116,2.178-.183.463-.039.926-.086,1.369-.135.222-.019.443-.039.655-.067s.434-.049.647-.068.424-.049.627-.068.4-.048.607-.077c.288-.029.568-.068.847-.106,1.08-.145,2.053-.289,2.922-.444a20.479,20.479,0,0,0,3.316-.838c.087-.029.173-.068.26-.106a4.116,4.116,0,0,0,.453-.2c.068-.039.134-.077.193-.105s.115-.077.163-.116a1.217,1.217,0,0,0,.26-.222,1.157,1.157,0,0,1-.009.125c0,.077-.009.2-.019.367-.01.211-.02.491-.04.838-.009.231-.019.491-.038.772-.029.53-.057,1.157-.086,1.87-.009.183-.02.367-.029.559a.48.48,0,0,0-.009.116c-.009.27-.029.55-.039.838s-.039.6-.048.907c-.029.568-.058,1.166-.1,1.793-.009.26-.02.53-.039.8-.019.385-.039.781-.057,1.186-.02.27-.029.55-.038.838-.058,1.07-.117,2.2-.185,3.393-.028.6-.057,1.215-.1,1.842s-.058,1.272-.1,1.936c-.048.916-.1,1.861-.144,2.825-.078,1.475-.155,3.017-.242,4.607-.038.8-.086,1.611-.125,2.44-.1,1.889-.2,3.855-.309,5.879-.086,1.456-.154,2.95-.241,4.473-.048.983-.106,1.976-.154,2.979q-.173,3.166-.348,6.5c-.221,4.086-.385,8.308-.5,12.637-.433,15.336-.27,31.984.319,48.292.222,5.774.482,11.5.8,17.109s.675,11.124,1.08,16.445Q1173.048,767.25,1173.579,773.03Z" transform="translate(-941.088 -332.689)"/><path class="h" d="M1015.636,567.859c.025.088.062.161.088.249.086.224.174.46.249.71.025.049.037.1.062.161,2.253,6.333,13.289,37.438,13.289,37.451,4.142,10.837,11.956,22.409,19.16,28.268-4.89-17.7-20.131-69.028-19.547-89.707C1026.026,564.922,1015.636,567.846,1015.636,567.859Z" transform="translate(-942.536 -345.024)"/><path class="h" d="M1137.974,505.574s-38.066,89.676,44.465,135.493l1.648,1.293,1.256-21.7s-35.924-59.441-35.963-60.9S1137.974,505.574,1137.974,505.574Z" transform="translate(-923.542 -351.616)"/><path class="h" d="M1093.715,440.684c.049,1.48-.734,2.451-3.111,2.128-7.416-1.008-15.789-.8-21.874,1.99a5.166,5.166,0,0,1-5-.211c-3.894-2.277-6.308-9.071-7.266-12.081a2.079,2.079,0,0,1-.1-.659c12.23-2.726,21.462-2.19,24.834.721a18.31,18.31,0,0,0,11.434,4.441A10.106,10.106,0,0,1,1093.715,440.684Z" transform="translate(-935.725 -364.243)"/><g class="i" transform="translate(156.105 286.054)"><path d="M1087.4,622.347c-.219-.018-.438-.035-.649-.054C1086.748,622.293,1086.978,622.309,1087.4,622.347Z" transform="translate(-1086.748 -618.149)"/><path class="j" d="M1087.3,622.94c17.331,1.383,55.213-1.066,55.213-1.066,11.132-.641,18.949-1.63,20.322-3.132a1.267,1.267,0,0,1-.009.128c-.082,1.739-1.08,21.649-2.48,47.747a12.768,12.768,0,0,1-1.821-.21c-3.9-.724-6.894-3.14-9.173-6.518a31.509,31.509,0,0,1-3.566-7.449C1132.866,627.855,1092.857,623.44,1087.3,622.94Z" transform="translate(-1086.655 -618.743)"/></g><g transform="translate(136.554)"><g transform="translate(3.458 6.231)"><path class="k" d="M1082.857,396.337s28.359,15.724,19.942-9.521C1096.976,369.351,1063.517,385.084,1082.857,396.337Z" transform="translate(-1072.303 -379.013)"/><path class="k" d="M1087.627,390.145s-15.866,9.415-14.335,18.859c0,0-3.5-28.2,12.277-28.906s21.885.815,20.484,30.631C1106.053,410.729,1101.47,387.011,1087.627,390.145Z" transform="translate(-1072.962 -378.852)"/></g><path class="k" d="M1083.174,381.337s.8-8.786,9.506-7.542,12.443,6.22,13.687,11.2,2.489,8.71,3.732,8.71c0,0-3.732,3.733-4.976,2.489,0,0,3.229,8.948-.874,16.294,0,0-1.614-11.316-7.836-12.561S1083.174,381.337,1083.174,381.337Z" transform="translate(-1067.796 -373.675)"/><path class="k" d="M1086.175,380.287s-6.221-3.732-12.443,4.977L1070,392.73s1.244,1.244,3.733,0c0,0-1.133,8.766.056,13.715l3.677-14.959Z" transform="translate(-1069.999 -372.702)"/></g><path class="h" d="M1159.506,595.571s4.514-36.913-95.692-32.282,72.578,29.4,72.578,29.4Z" transform="translate(-939.706 -342.03)"/><g transform="translate(83.322 68.189)"><g transform="translate(0 148.271)"><path class="l" d="M1073.333,577.76c-1.145-.487-12.973-8.891-19.653-10.038s-16.719-2.218-20.116-3.477c-4-1.482-5.155.06-.587,2.226,2.968,1.408,9.1,3.708,10.478,3.874.671.081-3.666-.852-8.354-2.213-4.983-1.447-10.365-3.306-10.687-2.423-.626,1.711,13.658,6.789,16.207,7.268a65.124,65.124,0,0,1-6.713-1.352c-3.016-.783-6.437-2.141-7.176-1.559-1.163.914,6.328,4.552,12.645,5.938.1.216-1.993.377-9.386-1.773-.744-.216-2.692-.036-.308,1.3,5.017,2.815,6.966,4.4,14.491,5.222,7.338.805,15.576-.072,20.728,2.116Z" transform="translate(-1024.394 -558.362)"/><path class="l" d="M1054.6,569.4s-5.227-6.429-11.545-7.916c-3.755-.885-3.592-1.835-4.217-2.171-2.078-1.116-.308,3.042,2.841,4.319,2.56,1.039,3.673,5.638,5.177,6.713s6.087,3.19,7.314,2.665S1054.6,569.4,1054.6,569.4Z" transform="translate(-1022.128 -559.121)"/></g><path class="f" d="M1185.783,457.755c21.727,22.736,36.372,43.419,41.453,108.082,2.578,32.807-1.293,65.108-3.964,82.093a20.255,20.255,0,0,1-15.252,16.47c-75.1,18.411-150.063-57.352-150.063-57.352-4.07-1.889,5.54-16.176,5.54-16.176,40.5,2.751,71.418,6.421,102.7,21.351-.158-.089-27.057-61.8-30.044-78.483-7.822-43.738-41.71-83.711-30.873-99.765C1109.02,428.422,1163.867,434.821,1185.783,457.755Z" transform="translate(-1018.949 -432.094)"/></g><g transform="translate(100.925 285.834)"><path class="m" d="M1039.475,773.062l.848-8.936,1.639-17.158,1.764-18.411,1.725-18.054,1.889-19.712,1.475-15.49,1.446-15.134,1.9-19.837,1.4-14.594.3-3.162.386-4.02" transform="translate(-1039.475 -618.555)"/><path class="m" d="M1055.264,772.512l.627-6.487,1.619-16.763,1.745-18.045,1.706-17.7,1.947-20.185,1.484-15.365,1.484-15.355,2.15-22.18,1.282-13.341.472-4.82.038-.434" transform="translate(-1036.834 -618.005)"/><path class="m" d="M1084.724,621.841l-.048.559-.4,5.032-1.089,13.5-1.812,22.324-1.224,15.211-1.3,16.03-1.571,19.452-1.378,17.052-1.446,17.919-1.292,15.943-.617,7.644" transform="translate(-1033.945 -618.005)"/><line class="m" x2="0.39" y2="38.782" transform="translate(67.93 3.84)"/><path class="m" d="M1111.6,772.512l.145-8.01.318-16.888.289-16.069.318-16.994.337-18.16.279-15.481.357-19.307.376-20.213.212-11.577.068-3.759.067-3.538v-.328l.01-.347" transform="translate(-1027.412 -618.005)"/><path class="m" d="M1128.12,621.742v.077l-.019,2.911-.068,14.324-.01,2.15-.116,21.524-.1,18.893-.077,15.567-.1,18.17-.087,17.274-.077,15.721-.087,16.685-.039,7.49" transform="translate(-1024.778 -618.022)"/><path class="m" d="M1141.8,621.742l.019,1.08.337,17.63.4,21.062.01.723.337,17.775.308,15.673.328,17.534.318,16.329.308,16.473.318,16.522.193,9.986" transform="translate(-1022.361 -618.022)"/></g><path class="m" d="M1039.175,636.736s103.338,4.878,130.641,0" transform="translate(-938.6 -329.68)"/><path class="m" d="M1108.144,655.75c-36.156,8.189-70.758-4.756-70.758-4.756" transform="translate(-938.899 -327.295)"/><path class="m" d="M1097.671,652.973s32.63,9.169,61.292,1.426" transform="translate(-928.817 -326.964)"/><path class="m" d="M1035.863,663.042s26.056,13.642,68.379,6.687" transform="translate(-939.154 -325.28)"/><path class="m" d="M1034.036,677.39s40.546,12.379,68.508,6.009" transform="translate(-939.459 -322.881)"/><path class="m" d="M1032.2,691.643s20.651,16.188,68.53,8.927" transform="translate(-939.766 -320.497)"/><path class="m" d="M1030.071,708.039s31.487,16.452,69.451,5.232" transform="translate(-940.122 -317.755)"/><path class="m" d="M1028.088,723.059s22.3,15.83,69.891,6.636" transform="translate(-940.454 -315.243)"/><path class="m" d="M1026.014,738.456s30.781,16.092,70.891,3.092" transform="translate(-940.801 -312.668)"/><path class="m" d="M1024.981,751c-.425-.337-.627-.53-.627-.53" transform="translate(-941.078 -310.659)"/><path class="m" d="M1098.942,667.979s13.632,11.256,59.808,2.9" transform="translate(-928.604 -324.455)"/><path class="m" d="M1099.249,682.492s19.129,8.919,58.357,1.875" transform="translate(-928.553 -322.027)"/><path class="m" d="M1098.45,698.6s29.536,8.9,59.29,0" transform="translate(-928.686 -319.333)"/><path class="m" d="M1098.085,711.958s28.713,12.765,60.288,0" transform="translate(-928.747 -317.099)"/><path class="m" d="M1097.671,726.624s27.337,9.592,61.564,0" transform="translate(-928.817 -314.647)"/><path class="m" d="M1097.293,740.71s23.043,10.338,63.083,0" transform="translate(-928.88 -312.291)"/><path class="h" d="M1095.17,454.379c.709,2.324,5.719,10.491,4.172,17.754s-35.174,79.726-49.027,89.091-38.871,20.009-38.871,20.009l68.357-94.573,3.78-32.28S1090.738,439.857,1095.17,454.379Z" transform="translate(-943.238 -361.257)"/><g transform="translate(128.285 62.152)"><path class="l" d="M1078.375,454.484s4.174-7.313,3.265-13.847c-.539-3.883.421-4.077.51-4.794.3-2.378-3,.825-3.05,4.278-.045,2.807-4,5.55-4.462,7.37s-.789,6.939.159,7.908S1078.375,454.484,1078.375,454.484Z" transform="translate(-1061.03 -425.567)"/><path class="l" d="M1077.656,474.787c.041-1.264,3.665-15.557,2.3-22.31s-4.1-18.46-4.155-22.14c-.062-4.33-1.949-4.864-2.325.26-.245,3.329-.109,11.781.243,13.154a53.265,53.265,0,0,1-1.281-8.659c-.168-2.891-.851-1.747-1.815-1.479-1.784.5-1,5.38-.521,7.972a25.047,25.047,0,0,1-1.3-6.358c-.127-1.473-.838-1.09-1.712-.956s-1.241,1.194-.236,7.69c-.169.169-.435,1.8-1.111-5.995-.068-.783-2.356-2.367-2.441.41-.148,4.87-1.167,4.44.811,11.874,1.929,7.25,5.784,14.735,5.6,20.421Z" transform="translate(-1062.915 -426.921)"/></g><path class="n" d="M1082.549,457.6a178.769,178.769,0,0,0-64.56,21.79c-17.223,9.869-59.985,34.374-64.56,75.051-.4,3.554-3.431,34.148,15.333,46.805,12.555,8.471,28.343,4.5,32.536,3.45,7.448-1.871,17.414-6.065,56.234-57.519,22.062-29.242,33.359-47.126,41.965-71.016,1.446-4.015,2.522-7.384,3.227-9.685Z" transform="translate(-953.01 -359.638)"/></g></g></g></g></svg>