<svg xmlns="http://www.w3.org/2000/svg" xmlns:xlink="http://www.w3.org/1999/xlink" width="1366" height="771" viewBox="0 0 1366 771"><defs><style>.a,.v{fill:none;}.b,.e{fill:#000;}.c{fill:#ccc1d8;}.d{fill:#e6def0;}.e{stroke:#5e5587;stroke-width:11px;}.e,.v{stroke-miterlimit:10;}.f{fill:#5e5587;}.g,.m{fill:#caa267;}.g{fill-rule:evenodd;}.h{fill:#979797;}.i{fill:#cacaca;}.j{fill:#2f2f2f;}.k{fill:#7f7f7f;}.l{fill:#c39652;}.n{fill:#c2934e;}.o{fill:#8c7cc9;}.p{fill:#f1c759;}.ah,.q{opacity:0.15;}.r{fill:#5e5586;}.s{opacity:0.3;}.t{opacity:0.5;}.u{fill:#f0c659;}.v{stroke:#8c7cc9;stroke-width:0.823px;}.w{fill:#ababab;}.x{fill:#cacbd0;}.y{fill:#363636;}.z{fill:#69676a;}.aa{clip-path:url(#a);}.ab{fill:#b3b3b3;}.ac{fill:#333;}.ad{fill:#d60100;}.ae{fill:#8fff3c;}.af{fill:#8abcc2;}.ag{fill:#c86a5e;}.ah{fill:#272425;mix-blend-mode:multiply;isolation:isolate;}</style><clipPath id="a"><path class="a" d="M502.63,2948.6l8.58-26.79,31.88,2.2-8.58,26.79Z"/></clipPath></defs><g transform="translate(0 -2372.326)"><rect class="b" width="1366" height="771" transform="translate(0 2372.326)"/><path class="c" d="M1366,2381.863v758.463l-242.228-67.586-32.991-6.263,1.636-558.092,30.118-25.56Z"/><path class="c" d="M316.3,2497.8l-16.051,556.371L.2,3128.567V2378.514l298.845,93.571Z"/><path class="d" d="M697.978,2461.4H273.37v617.384h849.165V2461.4Z"/><path class="b" d="M0,2433.107c121.657,30.38,335.7,73.888,615,80.372,352.972,8.194,622.429-47.1,751-78.7v-62.454H0Z"/><path class="b" d="M0,3095.01c121.657-29.39,335.7-71.48,615-77.753,352.972-7.927,622.429,45.568,751,76.133v47.19L.2,3143.327Z"/><path class="e" d="M199,2639.326v207l-51,8.1-16,2.53-59,9.37v-247l59,9.37,16,2.53Z"/><path class="f" d="M148,2631.226v223.2l-16,2.53V2628.7Z"/><path class="f" d="M199,2702.146v18.12l-51-5.9-16-1.85-59-6.82v-18.12l59,6.82,16,1.85Z"/><path class="e" d="M1178,2639.326v207l51,8.1,16,2.53,59,9.37v-247l-59,9.37-16,2.53Z"/><path class="f" d="M1229,2631.226v223.2l16,2.53V2628.7Z"/><path class="f" d="M1178,2702.146v18.12l51-5.9,16-1.85,59-6.82v-18.12l-59,6.82-16,1.85Z"/><path class="g" d="M845.25,2895.712c-.595.749-9.249,7.8-11.467,12.523s-5.066,11.949-6.7,14.21c-1.916,2.66-1.01,3.836,1.532.891a51.084,51.084,0,0,0,5.017-6.98c.2-.481-1.382,2.546-3.351,5.744-2.093,3.4-4.572,7.013-3.984,7.433,1.142.813,7.83-8.742,8.708-10.535a49.893,49.893,0,0,1-2.377,4.7c-1.2,2.078-2.9,4.337-2.625,5,.441,1.05,4.672-3.762,6.992-8.165.18-.026-.128,1.556-3.235,6.6-.312.507-.578,1.989.9.5,3.115-3.145,4.686-4.268,6.839-9.681,2.1-5.278,3.134-11.569,5.811-14.942Z"/><path class="h" d="M818.681,2912.459l13.583,16.715a2.2,2.2,0,0,0,3.114.363l7.574-6.336a.684.684,0,0,0,.074-.068,2.261,2.261,0,0,0,.173-3.093l-13.583-16.715a2.2,2.2,0,0,0-3.112-.361l-7.07,5.914-.505.419A2.262,2.262,0,0,0,818.681,2912.459Z"/><path class="i" d="M819.06,2912.088l13.693,16.651a2.271,2.271,0,0,0,3.2.31l7.383-6.1a2.267,2.267,0,0,0,.233-3.128l-13.693-16.65a2.271,2.271,0,0,0-3.2-.311l-7.383,6.1A2.268,2.268,0,0,0,819.06,2912.088Z"/><path class="j" d="M820.393,2912.042l11.826,14.381a1.962,1.962,0,0,0,2.762.268l6.376-5.267a1.958,1.958,0,0,0,.2-2.7l-11.826-14.381a1.962,1.962,0,0,0-2.762-.268l-6.376,5.267A1.957,1.957,0,0,0,820.393,2912.042Z"/><circle class="k" cx="0.759" cy="0.759" r="0.759" transform="translate(838.182 2924.199)"/><path class="g" d="M836.346,2905.018s-5.838,2.562-8.235,6.944c-1.424,2.6-2.1,2.289-2.473,2.684-1.253,1.313,2.193.851,3.785-1.224,1.294-1.686,4.933-1.571,6.039-2.466s3.611-3.863,3.473-4.88S836.346,2905.018,836.346,2905.018Z"/><path class="l" d="M980.708,2967.423s-10.215,105.4-5.871,107.214c7.792,3.3,38.308,14.117,4.664,11.741-17.283,1.042-16.015-2.819-16.285-6.091-.22-2.674.287-97-.423-104.336-.159-1.643-.255-2.636-.255-2.636Z"/><path class="m" d="M909.471,2957.567s55.168,89.918,52.257,93.616c-5.2,6.68-26.594,30.978,1.64,12.527,15.605-7.5,12.618-10.257,11.261-13.247-1.109-2.443-9.271-21.121-12.221-27.875-.661-1.512-37.824-75.172-37.824-75.172Z"/><path class="n" d="M951.243,2695.439s-.9,10.043,5.294,15.6-14.276,0-14.276,0,3.809-9.619,2.955-15.6S951.243,2695.439,951.243,2695.439Z"/><ellipse class="m" cx="10.83" cy="14.777" rx="10.83" ry="14.777" transform="translate(937.145 2669.78)"/><path class="o" d="M1018.61,2792.07c-.181,2.8-2.443,13.195-5.626,24.5-.938,3.373-1.966,6.82-3.044,10.176-1.308,4.089-2.69,8.029-4.089,11.509-2.714,6.746-5.495,11.764-7.922,12.743-8.177,3.29-69.915,7.806-82.609,1.752-.3-.222-.617-.461-.921-.724-4.763-3.875-9.929-11.525-12.669-18.69,0-.009-7.3-20.574-8.785-24.762-.017-.041-.025-.074-.041-.107-.05-.164-.107-.32-.165-.468-.016-.058-.041-.107-.058-.165-7.683,26.234-28.125,83.851-44.661,102.106-1.735,1.916-9.723-8.836-9.723-8.836s-13.351-68.945,21.479-141.8c16.4-34.3,45.656-49.943,64.338-54.1,8.087-1.8,14.191-1.448,16.42.477a12.108,12.108,0,0,0,7.56,2.937,16.373,16.373,0,0,0,4.245-.387,21.117,21.117,0,0,0,4.5-1.53c.691-.321,1.094-.551,1.094-.551a43.907,43.907,0,0,1,11.434.683C1011.635,2715.1,1018.989,2785.975,1018.61,2792.07Z"/><path class="p" d="M912.493,2850.318a6.677,6.677,0,0,0,3.789,1.748c8.9.175,47.358.834,68.218-.365,7.36-.424,12.529-1.078,13.436-2.07,0,0,0,.03-.006.085-.054,1.15-.714,14.313-1.64,31.569-1.828,34.062,1.693,82.848,5.806,97.655.888,3.2-46.89-1.645-46.89-1.645-.133-35.152,3.2-96.864,1.048-99.63-2.621-3.365-6.87,50.917-11.742,96.339-18.921,4.936-48.882,1.94-48.536,0C900.09,2950.971,912.493,2850.318,912.493,2850.318Z"/><path class="q" d="M892.686,2807.832c.016.058.041.107.058.165.057.148.115.3.164.468.016.033.025.066.041.107,1.489,4.188,8.786,24.754,8.786,24.762,2.739,7.165,7.905,14.815,12.669,18.69-3.233-11.706-13.311-45.64-12.924-59.312C899.555,2805.891,892.686,2807.824,892.686,2807.832Z"/><path class="q" d="M1012.984,2816.568c-.938,3.373-1.966,6.82-3.044,10.176-1.308,4.089-2.69,8.029-4.089,11.509-24.177-28.948-10.99-68.312-10.99-68.312s10.217,34.173,10.324,35.135C1005.218,2805.422,1008.615,2810.349,1012.984,2816.568Z"/><path class="q" d="M948.812,2711.041c.033.979-.485,1.62-2.057,1.407-4.9-.667-10.439-.527-14.461,1.316a3.419,3.419,0,0,1-3.307-.14c-2.575-1.506-4.171-6-4.8-7.988a1.377,1.377,0,0,1-.065-.436c8.086-1.8,14.19-1.448,16.419.477a12.108,12.108,0,0,0,7.56,2.937A6.66,6.66,0,0,1,948.812,2711.041Z"/><path class="r" d="M972.619,3043.864c-.564-1.428-9.954,3.967-10.423,5.643s-17.151,16.068-13.659,21.458,27.164-13.566,28.957-14.738S973.729,3046.669,972.619,3043.864Z"/><path class="f" d="M962.61,3071.075c-.2-1.521,12.759.409,13.985,1.646s20.093,6.368,19.666,12.776-30.333,1.37-32.469,1.219S963.006,3074.066,962.61,3071.075Z"/><g class="s"><path d="M947.995,2852.406c-.145-.012-.289-.023-.429-.036C947.566,2852.37,947.718,2852.381,947.995,2852.406Z"/><path class="t" d="M947.995,2852.406c11.459.914,36.505-.705,36.505-.705,7.36-.424,12.529-1.078,13.436-2.07,0,0,0,.03-.006.085-.054,1.15-.714,14.313-1.64,31.569a8.556,8.556,0,0,1-1.2-.14,9.376,9.376,0,0,1-6.065-4.309,20.834,20.834,0,0,1-2.358-4.925C978.119,2855.655,951.666,2852.736,947.995,2852.406Z"/></g><path class="u" d="M943.905,2676.075s18.75,10.4,13.185-6.295C953.24,2658.232,931.118,2668.634,943.905,2676.075Z"/><path class="u" d="M946.623,2672.088s-10.49,6.224-9.478,12.469c0,0-2.314-18.643,8.117-19.112s14.47.538,13.544,20.252C958.806,2685.7,955.775,2670.015,946.623,2672.088Z"/><path class="u" d="M944.808,2665.566s.527-5.808,6.285-4.986,8.226,4.114,9.049,7.4,1.645,5.759,2.468,5.759c0,0-2.468,2.467-3.291,1.645,0,0,2.136,5.916-.577,10.773,0,0-1.068-7.483-5.181-8.3S944.808,2665.566,944.808,2665.566Z"/><path class="u" d="M945.335,2665.516s-4.114-2.468-8.227,3.291l-2.468,4.936s.823.822,2.468,0c0,0-.749,5.8.037,9.067l2.431-9.89Z"/><path class="g" d="M1072.073,2902.314c.431.7,7.095,7.6,8.506,11.855s3.1,10.711,4.262,12.806c1.364,2.466.47,3.376-1.4.6a44,44,0,0,1-3.569-6.467c-.119-.43.92,2.313,2.273,5.243,1.439,3.114,3.186,6.449,2.641,6.747-1.057.578-5.789-8.257-6.354-9.876a42.731,42.731,0,0,0,1.547,4.254c.81,1.9,2.036,4,1.729,4.537-.483.851-3.6-3.686-5.132-7.679-.15-.041-.049,1.34,2.087,5.961.215.464.29,1.756-.82.33-2.336-3-3.562-4.12-4.846-8.957-1.253-4.718-1.493-10.19-3.434-13.342Z"/><path class="g" d="M1079.664,2912.174s4.72,2.781,6.317,6.764c.949,2.368,1.554,2.167,1.836,2.543.935,1.248-1.958.5-3.1-1.431-.932-1.57-4.049-1.844-4.9-2.72s-2.688-3.664-2.466-4.517S1079.664,2912.174,1079.664,2912.174Z"/><line class="v" x1="12.133" y2="126.868" transform="translate(908.716 2849.487)"/><line class="v" x1="12.041" y2="124.659" transform="translate(920.848 2852.024)"/><line class="v" x1="10.013" y2="123.788" transform="translate(934.646 2852.024)"/><line class="v" x2="0.258" y2="25.641" transform="translate(955.996 2852.024)"/><line class="v" x1="2.323" y2="126.296" transform="translate(966.256 2852.024)"/><line class="v" x1="0.647" y2="127.355" transform="translate(978.76 2851.945)"/><line class="v" x2="2.45" y2="128.087" transform="translate(990.049 2851.945)"/><path class="v" d="M910.852,2863.516s68.324,3.225,86.376,0"/><path class="v" d="M956.254,2877.665c-23.906,5.415-46.783-3.145-46.783-3.145"/><path class="v" d="M956,2876.048s21.574,6.062,40.524.942"/><path class="v" d="M908.3,2883.818s17.228,9.019,45.21,4.421"/><path class="v" d="M906.886,2894.891s26.808,8.184,45.3,3.973"/><path class="v" d="M905.472,2905.891s13.653,10.7,45.309,5.9"/><path class="v" d="M903.826,2918.544A66.419,66.419,0,0,0,949.744,2922"/><path class="v" d="M902.295,2930.136s14.746,10.466,46.21,4.387"/><path class="v" d="M900.7,2942.019s20.352,10.638,46.871,2.043"/><path class="v" d="M899.414,2951.292s12.007,11.548,47.136,2.987"/><path class="v" d="M897.905,2961.819s19.415,10.228,47.608,2.664"/><path class="v" d="M956.977,2887.628s9.013,7.442,39.543,1.917"/><path class="v" d="M957.213,2898.828s12.648,5.9,38.584,1.24"/><path class="v" d="M956.6,2911.26s19.528,5.882,39.2,0"/><path class="v" d="M956.315,2921.569s18.985,8.439,39.861,0"/><path class="v" d="M956,2932.887s18.074,6.342,40.7,0"/><path class="v" d="M955.7,2943.758s15.235,6.835,41.708,0"/><path class="v" d="M955.7,2953.375s18.088,9.322,42.629.991"/><path class="v" d="M955.269,2965.4a83.623,83.623,0,0,0,44.406.513"/><path class="o" d="M998.333,2750.172s-53.044-41.978-40.4-44.026,33.339,2.928,33.339,2.928c18.682,4.154,36.52,18.191,52.915,52.487,34.83,72.861,32.9,143.415,32.9,143.415s-8.066,10.819-9.724,8.835c-30.773-36.821-50.561-73.784-58.909-98.653S998.333,2750.172,998.333,2750.172Z"/><path class="w" d="M494.29,2901.957h254l50,60h-344Z"/><rect class="w" width="16" height="138" transform="translate(770.29 2961.957)"/><rect class="w" width="11" height="163" transform="translate(738.29 2901.957)"/><rect class="w" width="11" height="163" transform="translate(495.29 2901.957)"/><rect class="w" width="16" height="138" transform="translate(465.29 2961.957)"/><path class="x" d="M565.38,2950.527l15.57-22a6,6,0,0,1,4.91-2.14H697.34a5.579,5.579,0,0,1,4.55,2l15.73,22.34c1,1.23-1.66,2.23-3.28,2.23H568.65C566.88,2952.957,564.29,2951.917,565.38,2950.527Z"/><path class="y" d="M581.49,2946.027l4.51-13.27c.24-.63,1.51-1.1,3-1.1H694.21c1.67,0,3.1.53,3.37,1.24l4.92,13.2c.2.5-.79,1-2.08,1H583.78C582.41,2947.1,581.35,2946.577,581.49,2946.027Z"/><rect class="x" width="121.63" height="0.61" transform="translate(581.2 2933.896)"/><rect class="x" width="121.63" height="0.61" transform="translate(581.2 2936.967)"/><rect class="x" width="121.63" height="0.61" transform="translate(581.2 2940.646)"/><rect class="x" width="121.63" height="0.61" transform="translate(581.2 2944.027)"/><rect class="x" width="0.92" height="20.27" transform="translate(687.228 2929.286) rotate(-17.44)"/><rect class="x" width="0.92" height="20.27" transform="translate(678.327 2929.283) rotate(-17.44)"/><rect class="x" width="0.92" height="20.19" transform="translate(673.88 2927.148) rotate(-17.53)"/><rect class="x" width="0.92" height="20.27" transform="translate(664.197 2929.278) rotate(-17.44)"/><rect class="x" width="0.92" height="20.27" transform="translate(656.826 2929.277) rotate(-17.44)"/><rect class="x" width="0.92" height="20.27" transform="matrix(0.982, -0.19, 0.19, 0.982, 649.324, 2928.964)"/><rect class="x" width="0.92" height="20.27" transform="translate(642.94 2928.667)"/><rect class="x" width="20.27" height="0.92" transform="translate(589.237 2948.317) rotate(-72.56)"/><rect class="x" width="20.27" height="0.92" transform="translate(597.844 2948.335) rotate(-72.56)"/><rect class="x" width="20.27" height="0.92" transform="translate(606.442 2948.321) rotate(-72.56)"/><rect class="x" width="20.27" height="0.92" transform="translate(615.04 2948.323) rotate(-72.56)"/><rect class="x" width="20.27" height="0.92" transform="translate(623.637 2948.319) rotate(-72.56)"/><rect class="x" width="20.27" height="0.92" transform="translate(632.244 2948.327) rotate(-72.56)"/><rect class="z" width="19.32" height="22.43" transform="translate(582.43 2884.376)"/><path class="x" d="M502.955,2759.747H682.619a4.811,4.811,0,0,1,4.609,4.99v115.49a4.812,4.812,0,0,1-4.609,4.99H502.955a4.812,4.812,0,0,1-4.61-4.99v-115.49A4.811,4.811,0,0,1,502.955,2759.747Z"/><path class="y" d="M550.58,2911.847V2908c0-2.14,19.73-3.86,44-3.86s44,1.73,44,3.86v3.85Z"/><rect class="y" width="36.72" height="4.56" transform="translate(574.29 2876.677)"/><path class="y" d="M503.029,2759.747h179.59a4.811,4.811,0,0,1,4.609,4.99v102.19a4.812,4.812,0,0,1-4.609,4.99H503.029a4.812,4.812,0,0,1-4.61-4.99v-102.19A4.811,4.811,0,0,1,503.029,2759.747Z"/><path class="b" d="M503.038,2866.906l-.009-102.16,179.58-.02.018,102.18Z"/><g class="aa"><path class="k" d="M511.82,2939.957a1.737,1.737,0,0,1-.74-.2c-1.14-.66-.12-2.7,2.28-4.56,2-1.531,4.29-2.46,5.68-2.36a1.707,1.707,0,0,1,.74.2c1.14.66.12,2.7-2.28,4.56-2,1.53-4.29,2.46-5.68,2.36m6.18-11.51-10.81,8.17c-3.78,3.3-3.26,7.75,1.15,9.94l3.8,1.89a12.155,12.155,0,0,0,4.53,1.16,14.624,14.624,0,0,0,10.3-3.17l8.92-9.06-8-4h0a1.334,1.334,0,0,1-.9.33.648.648,0,0,1-.24-.06l-.83-.41c-.29-.15-.25-.5.08-.79h0l-8-4"/><path class="y" d="M532.89,2927.737h0m3-2.67h0l.26.13-3,2.66.15.07c.29.14.25.5-.08.789l-5.3,4.62,8,4,1.91-1.94c3.8-3.3,4.41-7.19,0-9.38l-1.89-.94"/><path class="y" d="M530.3,2923.077a14,14,0,0,0-9.9,3.59l-2.31,1.74,8,4,5.3-4.63a1.334,1.334,0,0,1,.9-.32.6.6,0,0,1,.24.06l.41.2-.27-.13,3-2.66.27.13h0l-1.9-.94a10.058,10.058,0,0,0-3.8-1"/><path class="k" d="M532.24,2927.467a1.334,1.334,0,0,0-.9.32l-5.3,4.63h0c-.34.29-.37.64-.08.79l.83.41a.639.639,0,0,0,.24.06,1.33,1.33,0,0,0,.9-.331h0l5.3-4.62c.34-.289.37-.65.08-.789l-.15-.07h0l-.27-.13h0l-.41-.2a.643.643,0,0,0-.24-.06"/><path class="k" d="M535.67,2924.947l-3.05,2.66.27.13h0l.27.14h0l3.04-2.66-.26-.14-.27-.13"/><path class="ab" d="M519,2932.827c-1.39-.1-3.68.83-5.68,2.36-2.39,1.86-3.42,3.9-2.28,4.56a1.737,1.737,0,0,0,.74.2c1.39.1,3.68-.83,5.68-2.36,2.39-1.86,3.42-3.9,2.28-4.56a1.707,1.707,0,0,0-.74-.2"/></g><path class="k" d="M370.29,3089.4V2954.2h0a6.09,6.09,0,0,1,6.09-6.09h61.87a6.09,6.09,0,0,1,6.09,6.089h0v135.19h0a6.091,6.091,0,0,1-6.09,6.09H376.38A6.09,6.09,0,0,1,370.29,3089.4Z"/><path class="y" d="M376.33,3095.477H438.2c3.36,0,6.09-3.46,6.09-7.73v-69.66h-74v69.66C370.29,3092.017,373,3095.477,376.33,3095.477Z"/><circle class="ac" cx="1.86" cy="1.86" r="1.86" transform="translate(389.91 2999.866)"/><circle class="ad" cx="1.46" cy="1.46" r="1.46" transform="translate(390.31 3000.267)"/><circle class="ae" cx="1.45" cy="1.45" r="1.45" transform="translate(381.85 3000.277)"/><rect class="y" width="65.04" height="16.91" rx="3.05" transform="translate(374.8 2957.796)"/><rect class="y" width="65.04" height="16.91" rx="3.05" transform="translate(374.8 2977.306)"/><rect width="6.01" height="2.79" transform="translate(377.29 2980.207)"/><rect width="6.01" height="2.79" transform="translate(377.29 2960.527)"/><path d="M370.29,3087.487v1.909h0a6.091,6.091,0,0,0,6.09,6.091h61.87a6.091,6.091,0,0,0,6.09-6.09h0v-1.909Z"/><circle cx="2.2" cy="2.2" r="2.2" transform="translate(433.47 3027.427)"/><circle cx="2.2" cy="2.2" r="2.2" transform="translate(424.13 3027.427)"/><circle cx="2.2" cy="2.2" r="2.2" transform="translate(414.79 3027.427)"/><circle cx="2.2" cy="2.2" r="2.2" transform="translate(405.45 3027.427)"/><circle cx="2.2" cy="2.2" r="2.2" transform="translate(396.11 3027.427)"/><circle cx="2.2" cy="2.2" r="2.2" transform="translate(386.77 3027.427)"/><circle cx="2.2" cy="2.2" r="2.2" transform="translate(377.43 3027.427)"/><circle cx="2.2" cy="2.2" r="2.2" transform="translate(433.47 3035.667)"/><circle cx="2.2" cy="2.2" r="2.2" transform="translate(424.13 3035.667)"/><circle cx="2.2" cy="2.2" r="2.2" transform="translate(414.79 3035.667)"/><circle cx="2.2" cy="2.2" r="2.2" transform="translate(405.45 3035.667)"/><circle cx="2.2" cy="2.2" r="2.2" transform="translate(396.11 3035.667)"/><circle cx="2.2" cy="2.2" r="2.2" transform="translate(386.77 3035.667)"/><circle cx="2.2" cy="2.2" r="2.2" transform="translate(377.43 3035.667)"/><circle cx="2.2" cy="2.2" r="2.2" transform="translate(433.47 3043.906)"/><circle cx="2.2" cy="2.2" r="2.2" transform="translate(424.13 3043.906)"/><circle cx="2.2" cy="2.2" r="2.2" transform="translate(414.79 3043.906)"/><circle cx="2.2" cy="2.2" r="2.2" transform="translate(405.45 3043.906)"/><circle cx="2.2" cy="2.2" r="2.2" transform="translate(396.11 3043.906)"/><circle cx="2.2" cy="2.2" r="2.2" transform="translate(386.77 3043.906)"/><circle cx="2.2" cy="2.2" r="2.2" transform="translate(377.43 3043.906)"/><circle cx="2.2" cy="2.2" r="2.2" transform="translate(433.47 3052.146)"/><circle cx="2.2" cy="2.2" r="2.2" transform="translate(424.13 3052.146)"/><circle cx="2.2" cy="2.2" r="2.2" transform="translate(414.79 3052.146)"/><circle cx="2.2" cy="2.2" r="2.2" transform="translate(405.45 3052.146)"/><circle cx="2.2" cy="2.2" r="2.2" transform="translate(396.11 3052.146)"/><circle cx="2.2" cy="2.2" r="2.2" transform="translate(386.77 3052.146)"/><circle cx="2.2" cy="2.2" r="2.2" transform="translate(377.43 3052.146)"/><circle cx="2.2" cy="2.2" r="2.2" transform="translate(433.47 3060.386)"/><circle cx="2.2" cy="2.2" r="2.2" transform="translate(424.13 3060.386)"/><circle cx="2.2" cy="2.2" r="2.2" transform="translate(414.79 3060.386)"/><circle cx="2.2" cy="2.2" r="2.2" transform="translate(405.45 3060.386)"/><circle cx="2.2" cy="2.2" r="2.2" transform="translate(396.11 3060.386)"/><circle cx="2.2" cy="2.2" r="2.2" transform="translate(386.77 3060.386)"/><circle cx="2.2" cy="2.2" r="2.2" transform="translate(377.43 3060.386)"/><circle cx="2.2" cy="2.2" r="2.2" transform="translate(433.47 3068.626)"/><circle cx="2.2" cy="2.2" r="2.2" transform="translate(424.13 3068.626)"/><circle cx="2.2" cy="2.2" r="2.2" transform="translate(414.79 3068.626)"/><circle cx="2.2" cy="2.2" r="2.2" transform="translate(405.45 3068.626)"/><circle cx="2.2" cy="2.2" r="2.2" transform="translate(396.11 3068.626)"/><circle cx="2.2" cy="2.2" r="2.2" transform="translate(386.77 3068.626)"/><circle cx="2.2" cy="2.2" r="2.2" transform="translate(377.43 3068.626)"/><circle cx="2.2" cy="2.2" r="2.2" transform="translate(433.47 3076.866)"/><circle cx="2.2" cy="2.2" r="2.2" transform="translate(424.13 3076.866)"/><circle cx="2.2" cy="2.2" r="2.2" transform="translate(414.79 3076.866)"/><circle cx="2.2" cy="2.2" r="2.2" transform="translate(405.45 3076.866)"/><circle cx="2.2" cy="2.2" r="2.2" transform="translate(396.11 3076.866)"/><circle cx="2.2" cy="2.2" r="2.2" transform="translate(386.77 3076.866)"/><circle cx="2.2" cy="2.2" r="2.2" transform="translate(377.43 3076.866)"/><rect class="b" width="69.98" height="62.92" transform="translate(557.1 2784.356)"/><path class="af" d="M619.088,2791.324a34.659,34.659,0,1,0,0,49.015A34.659,34.659,0,0,0,619.088,2791.324Zm-29.929,29.928a7.666,7.666,0,1,1,10.842,0A7.665,7.665,0,0,1,589.159,2821.252Z"/><path class="b" d="M570.083,2838.874a33.439,33.439,0,0,1-5.813-8.455l22.836-10.143a8.486,8.486,0,0,0,.641.933Z"/><path class="ag" d="M586.678,2823.733a11.174,11.174,0,1,1,15.8,0A11.188,11.188,0,0,1,586.678,2823.733Zm14.7-14.7a9.613,9.613,0,1,0,0,13.595A9.625,9.625,0,0,0,601.378,2809.034Z"/><path class="ah" d="M594.58,2781.172v26.993a7.667,7.667,0,0,1,0,15.333v26.993a34.659,34.659,0,0,0,0-69.319Z"/><path class="b" d="M602.238,2811.71a8.623,8.623,0,0,0-.825-1.257l17.664-17.664a33.339,33.339,0,0,1,6.41,9.766Z"/></g></svg>