<svg xmlns="http://www.w3.org/2000/svg" width="588" height="324.766" viewBox="0 0 588 324.766"><defs><style>.a{fill:#ba9bc9;}.b{opacity:0.43;}.c{fill:#62548a;}.d{fill:#eadff1;}.e{fill:#fff;}.f{fill:#fcc450;}.g{fill:#f4971c;}.h{fill:#fffdb6;}.i{fill:#ffc84f;}.j{opacity:0.3;}.k{fill:#947dce;}.l{opacity:0.15;}.m,.n,.q{fill:none;stroke:#947dce;stroke-miterlimit:10;}.m{stroke-width:0.247px;}.n{stroke-width:0.241px;}.o{fill:#999;}.p{fill:#ccc;}.q{stroke-width:0.19px;}.r{fill:#d19442;}.s{fill:#d8a35d;}</style></defs><g transform="translate(-420.066 -346.565)"><path class="a" d="M522.772,613.461A273.7,273.7,0,0,1,459,602.1c-15.17-4.609-39.367-24.817-38.929-77.475.216-26.019,20.081-55.386,40.593-72.116,17.8-14.517,41.707-18.686,64.555-21.01,31.171-3.172,64.238-3.5,91.917,11.183,5.311,2.818,10.495,6.209,16.413,7.272,9.206,1.655,18.631-2.741,25.473-9.118s11.64-14.582,16.712-22.441c16.715-25.9,38.234-49.832,66.219-62.751s63.294-12.943,87.809,5.742c31.638,24.114,39.375,72.665,74.263,91.775,14.5,7.941,31.716,9.462,46.656,16.537,26.5,12.55,42.653,42.438,42.194,71.758-.119,7.661-1.283,15.433-4.629,22.326-4.173,8.6-11.416,15.243-18.491,21.669-15.072,13.69-30.865,27.793-50.406,33.512-13.908,4.07-28.692,3.561-43.167,2.882-121.972-5.718-244.255-21.02-365.8-9.284" transform="translate(0)"/><g class="b" transform="translate(469.084 445.9)"><path class="c" d="M546.015,603.9c-20.276,1.564-69.442-4.607-77.5-23.278s23.851-89.416,84.095-99.837c37.247-6.442,99.223,24.047,117.578,23.915,51.918-.372,88.87-68.354,140.4-62.036,57.044,6.993,66.822,58.959,91.632,78.553,11.062,8.736,22.909,18.746,25.271,32.642,2.341,13.771-5.833,27.672-17.112,35.915s-39.464-11.814-53.108-8.815c-105.4,23.175-116.739,9.863-224.543,4.876-9.73-.451-105.783,29.044-107.39,19.438" transform="translate(-467.282 -442.248)"/></g><path class="d" d="M726.536,565.4c-10.449,8.131-24.826,8.678-38.028,7.671-42.1-3.212-83.413-18.58-125.471-14.811-27.207,2.439-53.54,12.854-80.853,12.409-10.362-.168-20.92-1.888-30.963.667a37.264,37.264,0,0,0-14.065,65.229c10,7.986,23.341,10.291,36.114,11.072,11.932.73,24.021.355,35.647-2.426,32.7-7.822,62.679-34.4,95.52-27.181,15.654,3.441,28.52,14.172,42.687,21.666a111.381,111.381,0,0,0,93.539,4.285c13.415-5.593,25.687-13.834,39.475-18.431,21.471-7.159,44.963-4.931,67.059-.032s43.641,12.379,66.037,15.65c15.7,2.293,31.644,2.486,47.5,1.854,10.279-.41,21.263-1.435,29.26-7.9,5.746-4.65,9.169-11.525,12.187-18.274,2.922-6.533,5.673-13.365,5.763-20.521.246-19.434-18.463-33.5-36.347-41.107C921.667,533.969,865.071,536.4,811.185,542.8c-33.933,4.031-68.664,9.829-97.941,27.449" transform="translate(0.12 7.318)"/><g transform="translate(454.342 500.283)"><path class="e" d="M461.1,586.794a7.753,7.753,0,0,1-5.777-2.438,8.183,8.183,0,0,1-2.236-5.737V562.756c0-5.331.329-12.916.978-22.545.712-10.292,1.11-17.754,1.18-22.183v-7.4a35.5,35.5,0,0,1,.751-8.556c1.464-5.6,5.2-6.442,7.3-6.442q.336,0,.684.028a30.146,30.146,0,0,1,4.9-.749c2.2-.187,4.92-.281,8.082-.281a32.615,32.615,0,0,1,20.384,7.392c7.081,5.552,10.669,12.386,10.669,20.317,0,9.866-3.807,17.845-11.315,23.716-6.56,5.155-14.528,7.77-23.677,7.77a32.515,32.515,0,0,1-3.678-.3c-.191,5.616-.288,14.029-.288,25.093a8.19,8.19,0,0,1-2.236,5.737A7.693,7.693,0,0,1,461.1,586.794Zm12.1-49.374c5.343-.028,9.689-1.333,13.282-3.989a12.967,12.967,0,0,0,5.562-11.092c0-2.975-1.678-5.555-5.132-7.887a19.643,19.643,0,0,0-11.19-3.471c-1.512,0-2.878.034-4.059.1l-.314.02-.079,7.285-.986,18.686Z" transform="translate(-453.082 -494.631)"/><path class="e" d="M472.909,550.664a63.392,63.392,0,0,1-6.583-.7q-.433,8.148-.432,28.544a5.1,5.1,0,0,1-1.4,3.642,4.625,4.625,0,0,1-3.507,1.484,4.686,4.686,0,0,1-3.561-1.484,5.1,5.1,0,0,1-1.4-3.642V562.643q0-7.933.972-22.339,1.079-15.593,1.187-22.339v-7.447a33.214,33.214,0,0,1,.648-7.77q1.241-4.748,5.288-4.1a24.252,24.252,0,0,1,4.909-.81q3.183-.269,7.825-.27a29.515,29.515,0,0,1,18.507,6.745q9.5,7.447,9.5,17.915,0,13.383-10.144,21.314Q485.642,550.664,472.909,550.664Zm2.7-42.843q-2.375,0-4.236.108a30.342,30.342,0,0,0-3.156.323l-.108,9.929-1.134,21.476,5.936.7q9.065,0,15.271-4.587a15.966,15.966,0,0,0,6.8-13.544q0-6.042-6.475-10.414A22.819,22.819,0,0,0,475.606,507.821Z" transform="translate(-452.97 -494.519)"/><path class="e" d="M549.385,588.681c-10.849,0-20.2-3.318-27.783-9.86-8.152-7.053-12.281-16.253-12.281-27.346a59.752,59.752,0,0,1,11.641-35.73c8.811-12.081,20.007-18.2,33.281-18.2,12.571,0,22.145,2.96,28.456,8.8,6.628,6.113,9.99,15.69,9.99,28.462a62,62,0,0,1-10.668,35.38C573.68,582.458,562.7,588.681,549.385,588.681Zm4.857-73.979c-7.825,0-14.331,3.88-19.891,11.86a42.637,42.637,0,0,0-7.924,24.913,18.087,18.087,0,0,0,6.636,14.615c4.385,3.648,9.731,5.43,16.323,5.43,7.7,0,13.944-3.867,19.075-11.824a45.205,45.205,0,0,0,7.121-24.9c0-7.66-1.605-13-4.772-15.871C567.73,516.123,562.158,514.7,554.242,514.7Z" transform="translate(-450.936 -494.52)"/><path class="e" d="M549.273,585.519q-15.216,0-25.792-9.118-11.225-9.714-11.224-25.038a56.511,56.511,0,0,1,11.062-33.941q12.355-16.943,30.811-16.943,17.751,0,26.386,7.986,9.01,8.311,9.011,26.224a58.744,58.744,0,0,1-10.145,33.671Q567.727,585.519,549.273,585.519Zm4.856-73.978q-13.221,0-22.393,13.166a45.424,45.424,0,0,0-8.471,26.656,21.151,21.151,0,0,0,7.716,16.943q7.392,6.151,18.293,6.151,13.112,0,21.638-13.22a47.986,47.986,0,0,0,7.609-26.548q0-12.9-5.774-18.13Q567.241,511.54,554.129,511.541Z" transform="translate(-450.823 -494.408)"/><path class="e" d="M625,590.812a41.641,41.641,0,0,1-9.736-1.329,29.809,29.809,0,0,1-9.424-3.7,8.225,8.225,0,0,1-5.641-2.538,8.546,8.546,0,0,1-2.421-6.059c0-3.817.173-9.573.516-17.108.338-7.46.509-13.123.509-16.832,0-4.172-.081-10.5-.242-18.8-.162-8.339-.243-14.7-.243-18.918a9.938,9.938,0,0,1,3.087-6.721c2.1-2.254,4.378-3.4,6.762-3.4,1.055,0,2.613.3,9.981,3.928,7.324,3.568,8.889,4.211,9.221,4.322a69.97,69.97,0,0,1,27.314,16.821c9,9.082,13.568,19.263,13.568,30.264a41.5,41.5,0,0,1-4.679,19.09,39.274,39.274,0,0,1-12.837,14.724C644.67,588.709,636.013,590.812,625,590.812Zm-10.067-19.437a18.448,18.448,0,0,0,10.013,2.492c7.547,0,13-1.1,16.212-3.258a22.523,22.523,0,0,0,7.329-8.445,24.135,24.135,0,0,0,2.764-11.148c0-9.128-4.984-16.817-15.237-23.508-3.111-2.044-10.035-5.479-20.616-10.232l.186,10.755.163,15.567Z" transform="translate(-447.559 -494.601)"/><path class="e" d="M648.9,581.931q-8.364,5.718-24.012,5.719a38.427,38.427,0,0,1-9.011-1.241,25.13,25.13,0,0,1-9.173-3.777h-.539a5.184,5.184,0,0,1-3.886-1.619,5.455,5.455,0,0,1-1.565-3.939q0-5.665.513-16.97t.513-16.97q0-6.313-.243-18.859t-.243-18.858a7.026,7.026,0,0,1,2.266-4.641q2.266-2.428,4.533-2.428,1.294,0,8.633,3.615,8.308,4.047,9.6,4.479a66.628,66.628,0,0,1,26.117,16.08q12.679,12.788,12.68,28.113a38.3,38.3,0,0,1-4.344,17.7A36.082,36.082,0,0,1,648.9,581.931Zm-11.332-57.089q-5.5-3.614-25.414-12.41l.27,15.54.162,15.485-.864,29.462a7.114,7.114,0,0,1,1.134.7q4.747,3.185,11.978,3.183,12.3,0,17.915-3.777a25.437,25.437,0,0,0,8.336-9.578,27.028,27.028,0,0,0,3.1-12.545Q654.193,535.688,637.573,524.842Z" transform="translate(-447.447 -494.489)"/><path class="e" d="M699.149,586.7A27.472,27.472,0,0,1,678,577.11a31.554,31.554,0,0,1-8.229-21.68c0-12.846,5.38-26.1,15.99-39.4,9.094-11.395,18.574-17.173,28.177-17.173a45,45,0,0,1,5.1.263q1.215.14,2.313.375a8.479,8.479,0,0,1,5.971-2.364c1.872,0,6.369.717,7.686,7.368a59.811,59.811,0,0,1,.921,11.329,9.562,9.562,0,0,1-1.749,5.65,7.749,7.749,0,0,1-6.642,3.39c-2.042,0-5.8-.767-7.984-5.9a11.094,11.094,0,0,0-1.5-2.7,21.861,21.861,0,0,0-4.112-.246c-4.158,0-9.341,3.745-14.991,10.83-8.155,10.126-12.285,19.74-12.285,28.586a14.306,14.306,0,0,0,3.7,9.949,11.257,11.257,0,0,0,8.786,4.161,21.535,21.535,0,0,0,9.786-2.527,82.306,82.306,0,0,0,9.186-6.11c2.679-1.975,4.669-2.857,6.444-2.857a8.06,8.06,0,0,1,6.159,2.772,8.725,8.725,0,0,1,2.34,5.943A8.634,8.634,0,0,1,730,573.3C719.959,582.193,709.585,586.7,699.149,586.7Z" transform="translate(-444.811 -494.536)"/><path class="e" d="M727.42,521.7q-3.452,0-5.179-4.047-1.512-3.453-2.806-4.209-1.134-.593-5.611-.594-7.825,0-17.375,11.979Q683.5,540.911,683.5,555.317a17.385,17.385,0,0,0,4.479,11.979,14.265,14.265,0,0,0,11.062,5.179,24.423,24.423,0,0,0,11.17-2.859,84.167,84.167,0,0,0,9.605-6.368q3.076-2.266,4.641-2.265a5,5,0,0,1,3.885,1.753,5.732,5.732,0,0,1,1.564,3.912,5.57,5.57,0,0,1-2.05,4.263q-14.244,12.626-28.814,12.626a24.435,24.435,0,0,1-18.885-8.579,28.46,28.46,0,0,1-7.447-19.641q0-18.292,15.324-37.5,12.79-16.026,25.793-16.026a41.738,41.738,0,0,1,4.747.243,18.588,18.588,0,0,1,3.724.783,5.726,5.726,0,0,1,4.911-2.752q3.722,0,4.693,4.911a56.564,56.564,0,0,1,.864,10.738,6.545,6.545,0,0,1-1.187,3.885A4.752,4.752,0,0,1,727.42,521.7Z" transform="translate(-444.699 -494.424)"/><path class="e" d="M799.467,586.934c-6.507,0-9.716-8.526-11.564-14.939-.853-2.954-1.859-7.673-3.062-14.378-3.126.519-6.9,1.26-11.271,2.213L760.8,562.47c-1.875,4.69-4.8,11.182-8.716,19.335l-.048.1-.054.1a8.174,8.174,0,0,1-7.342,4.558,8.64,8.64,0,0,1-5.923-2.371,8.13,8.13,0,0,1-2.684-6.128c0-1.117,0-3.17,7.808-19.667a9.14,9.14,0,0,1-.578-3.266c0-2.347.852-6.367,6.259-8.189,4.02-7.462,9.073-16.064,15.035-25.589,12.653-20.235,15.866-21.881,18.5-21.881,2.469,0,6.892,1.066,8.776,8.207l.029.107,3.412,18.2,7.989,37.262,3.006,8.332c1.547,4.323,1.745,5.937,1.745,6.862a8.176,8.176,0,0,1-2.638,6.112A8.55,8.55,0,0,1,799.467,586.934Zm-28.042-44.443q4.226-.881,9.736-1.895L779,530.284Z" transform="translate(-442.282 -494.446)"/><path class="e" d="M799.355,583.773q-4.966,0-8.633-12.734-1.4-4.857-3.508-17-5.5.755-14.407,2.7l-14.354,2.968q-2.7,7.07-9.227,20.667a5.241,5.241,0,0,1-4.695,3.021,5.542,5.542,0,0,1-3.858-1.565,5.067,5.067,0,0,1-1.7-3.885q0-2.59,8.148-19.7a5.781,5.781,0,0,1-.917-3.238q0-4.37,5.287-5.611,6.151-11.547,15.54-26.548,12.788-20.45,15.918-20.451,4.262,0,5.827,5.935l3.4,18.13,8.04,37.5,3.076,8.525a22.521,22.521,0,0,1,1.565,5.828,5.108,5.108,0,0,1-1.672,3.885A5.455,5.455,0,0,1,799.355,583.773ZM780.307,522.1l-15.432,24.876q6.528-1.672,19.8-4.047Z" transform="translate(-442.17 -494.334)"/><path class="e" d="M845.376,588.37a45.919,45.919,0,0,1-19.352-4.057c-7.812-3.612-11.838-8.807-11.971-15.443a7.616,7.616,0,0,1,2.549-6.026,8.628,8.628,0,0,1,5.95-2.211c1.954,0,4.786.762,7.184,4.389,1.988,2.963,3.313,4.2,4.073,4.712,2.507,1.653,6.427,2.5,11.621,2.5a31.19,31.19,0,0,0,14.169-3.289c5.042-2.552,7.5-5.88,7.5-10.173,0-2.118-.627-5.252-6.054-8.023-3.941-2.052-8.924-3.171-14.833-3.337a34.644,34.644,0,0,1-15.934-4.12c-6.026-3.436-9.206-8.681-9.206-15.171,0-7.4,4.089-14.133,12.155-20,7.452-5.366,15.3-8.083,23.323-8.083a48.994,48.994,0,0,1,12.614,1.886c2.709.718,10.994,2.918,10.994,8.878,0,4.882-2.955,7.8-7.906,7.8a44.317,44.317,0,0,1-8.2-1.228,38.528,38.528,0,0,0-7.457-1.04l-.211,0a22.353,22.353,0,0,0-12.625,3.618c-3.178,2.185-4.723,4.663-4.723,7.579,0,1.851,3.929,2.953,5.619,3.341a79.926,79.926,0,0,0,11.023,1.225c8.954.665,16.1,3.571,21.245,8.64a23.636,23.636,0,0,1,7.276,17.443c0,9.624-4.463,17.384-13.267,23.066A46.367,46.367,0,0,1,845.376,588.37Z" transform="translate(-439.304 -494.425)"/><path class="e" d="M816.989,568.7a4.578,4.578,0,0,1,1.539-3.7,5.641,5.641,0,0,1,3.912-1.431q2.643,0,4.641,3.022a20.666,20.666,0,0,0,4.909,5.557q4.586,3.023,13.328,3.022a34.057,34.057,0,0,0,15.54-3.615q9.174-4.641,9.173-12.9,0-6.8-7.716-10.739-6.53-3.4-16.134-3.669a31.459,31.459,0,0,1-14.515-3.723Q824,536.159,824,528.01q0-9.6,10.9-17.537,10.413-7.5,21.529-7.5a45.754,45.754,0,0,1,11.818,1.781q8.741,2.32,8.741,5.935,0,4.75-4.857,4.749a42.45,42.45,0,0,1-7.554-1.16,39.455,39.455,0,0,0-8.365-1.107,25.213,25.213,0,0,0-14.3,4.155q-6.044,4.156-6.043,10.091,0,4.479,7.986,6.313a86.485,86.485,0,0,0,11.494,1.295q12.355.919,19.317,7.771a20.6,20.6,0,0,1,6.367,15.27q0,12.843-11.87,20.5a43.186,43.186,0,0,1-23.9,6.636,42.7,42.7,0,0,1-18.076-3.777Q817.151,576.791,816.989,568.7Z" transform="translate(-439.192 -494.313)"/><path class="e" d="M926.286,585.821a8.732,8.732,0,0,1-5.894-2.266,7.972,7.972,0,0,1-2.768-6.179,18.421,18.421,0,0,1,.312-2.931,13.261,13.261,0,0,0,.228-1.926c0-1.682-.116-4.283-.345-7.73-.237-3.567-.357-6.322-.357-8.187,0-5.028-.413-12.235-1.229-21.423-.693-8.076-1.147-14.4-1.357-18.879l-1.939.021c-8.246,0-14.565-.6-19.352-1.822-4.238-1.1-6.663-4.121-6.663-8.3a8.867,8.867,0,0,1,2.116-5.845,7.809,7.809,0,0,1,6.1-2.829c.194,0,.39.006.59.02,1.323.076,4.216.4,8.825.989a74.015,74.015,0,0,0,8.355.623c2.141,0,5.424-.046,9.758-.134,4.48-.091,7.713-.136,9.883-.136,2.827,0,7.049.2,12.55.6,5.344.388,9.417.586,12.108.586a8.307,8.307,0,0,1,6.059,2.5,8.788,8.788,0,0,1,0,12.155,8.308,8.308,0,0,1-6.06,2.5c-2.767,0-6.868-.215-12.539-.657-4.838-.354-8.66-.534-11.347-.534-.236,0-.462,0-.68,0h-.72c.2,4.934.655,11.938,1.348,20.89.794,10.437,1.2,18.666,1.2,24.462,0,1.157.122,2.982.362,5.42.264,2.685.392,4.672.392,6.073a18.414,18.414,0,0,1-1.442,7.533C931.772,585.12,928.225,585.821,926.286,585.821Z" transform="translate(-436.523 -494.52)"/><path class="e" d="M957.092,514.077q-3.993,0-12.3-.648-8.093-.594-12.3-.54h-3.832q.162,7.447,1.458,24.174,1.187,15.6,1.187,24.228,0,1.89.378,5.72t.378,5.773a15.327,15.327,0,0,1-1.188,6.313q-1.511,3.562-4.694,3.562a5.744,5.744,0,0,1-3.886-1.512,4.923,4.923,0,0,1-1.727-3.885,16.134,16.134,0,0,1,.27-2.428,16.264,16.264,0,0,0,.27-2.428q0-2.643-.351-7.932t-.351-7.986q0-7.716-1.241-21.693-1.3-15.107-1.458-21.691l-4.91.054q-11.818,0-18.562-1.726-4.371-1.134-4.371-5.342a5.866,5.866,0,0,1,1.4-3.885,4.79,4.79,0,0,1,4.155-1.727q1.889.109,8.634.971a76.611,76.611,0,0,0,8.741.648q3.238,0,9.82-.135t9.821-.135q4.155,0,12.329.594t12.329.594a5.233,5.233,0,0,1,3.886,1.591,5.436,5.436,0,0,1,1.565,3.966,5.366,5.366,0,0,1-1.565,3.912A5.23,5.23,0,0,1,957.092,514.077Z" transform="translate(-436.411 -494.408)"/></g><g transform="translate(917.004 384.61)"><path class="c" d="M947.872,438.291c4.048-4.1,5.408-10.316,4.7-16.038s-3.25-11.05-6.121-16.049-6.116-9.807-8.443-15.08c-.886-2.01-1.6-4.48-.346-6.285,1.6-2.311,5.18-1.841,7.686-.565,6,3.057,10.075,9.1,12.073,15.535s2.148,13.286,1.977,20.021c-.132,5.164-.558,10.657-3.638,14.8-2.7,3.636-7.012,5.646-11.14,7.512" transform="translate(-897.274 -383.211)"/><path class="c" d="M942.166,484.21a9.981,9.981,0,0,0,10.8.892,13.962,13.962,0,0,0,6.72-8.912,23.671,23.671,0,0,0-.171-11.377c-.737-3.148-1.9-6.23-2.065-9.459s.907-6.783,3.655-8.487c2.894-1.794,6.889-.942,9.44,1.313s3.868,5.612,4.527,8.953a28.731,28.731,0,0,1-7.74,25.784c-6.711,6.518-17.194,9.036-25.969,5.8" transform="translate(-897.107 -380.818)"/><path class="c" d="M939.6,486.512a4.949,4.949,0,0,1-4.858,1.6,12.406,12.406,0,0,1-4.8-2.356A55.967,55.967,0,0,1,908.572,455.2c-.662-2.418-1.642-5.36-4.114-5.773-2.047-.343-3.892,1.412-4.746,3.3-1.664,3.683-.944,7.99.245,11.854,2.755,8.958,8.083,17.359,15.932,22.481s18.368,6.531,26.766,2.368" transform="translate(-898.734 -380.686)"/><path class="c" d="M939.7,466.129a36.136,36.136,0,0,1-24.517-17.978c-2.914-5.375-4.391-11.39-5.841-17.329-.551-2.263-1.081-4.757-.022-6.831a6.333,6.333,0,0,1,5.181-3.135c4.5-.362,8.631,3.02,10.555,7.1s2.1,8.743,2.179,13.256.109,9.15,1.786,13.34,5.431,7.888,9.94,8.063" transform="translate(-898.354 -381.775)"/><path class="c" d="M939.69,505.875c-4.025-9.159-4.187-19.521-3.567-29.5s1.949-20.029.665-29.95c-1.127-8.705-4.258-17.283-3.418-26.021.2-2.09.714-4.314,2.283-5.709,1.958-1.742,5.082-1.624,7.346-.305a13.839,13.839,0,0,1,4.995,5.926c4.455,8.742,4.922,19.032,3.623,28.756s-4.249,19.144-6.325,28.732-3.266,19.618-1.027,29.17" transform="translate(-897.417 -382.059)"/><ellipse class="c" cx="11.225" cy="3.388" rx="11.225" ry="3.388" transform="translate(32.38 122.197)"/></g><g transform="translate(427.106 484.435)"><g transform="translate(21.335 18.641)"><path class="f" d="M455.094,591.845l-2.3-47.64c-.321-6.636-.648-13.317-2.18-19.78-.892-3.763-2.188-7.434-2.8-11.253a32.214,32.214,0,0,1,.085-10.732,6.922,6.922,0,0,1,1.964-4.25c2.218-1.852,5.859-.52,7.413,1.917s1.606,5.5,1.608,8.394l.087,84.695" transform="translate(-447.399 -497.322)"/></g><g transform="translate(30.785 21.275)"><path class="f" d="M457.262,543.26a10.932,10.932,0,0,0,5.448-6.47,29.735,29.735,0,0,0,1.3-8.563q.489-10.373.069-20.763a13.164,13.164,0,0,1,.317-4.475,3.824,3.824,0,0,1,7.3-.775,12.126,12.126,0,0,1,1.25,5q.617,6.332.846,12.692c.18,5,.136,10.209-2.035,14.719-2.965,6.161-9.288,9.862-15.258,13.2" transform="translate(-456.501 -499.858)"/></g><g transform="translate(6.949 67.179)"><path class="f" d="M455.094,570.2c-1.31,1.971-4.556,1.625-6.17-.108s-1.989-4.258-2.146-6.619c-.238-3.593-.143-7.223-.777-10.768-.478-2.669-1.456-5.4-3.531-7.143s-5.473-2.115-7.413-.22a5.917,5.917,0,0,0-1.474,4.873,17.542,17.542,0,0,0,1.595,5l3.113,7.18c1.646,3.793,3.368,7.7,6.378,10.532s7.682,4.331,11.377,2.475" transform="translate(-433.541 -544.075)"/></g><path class="f" d="M448.289,512.02a5.68,5.68,0,0,1-5.585-1.337,13.756,13.756,0,0,1-3.243-5.031,51.236,51.236,0,0,1-4.14-18.936,14.1,14.1,0,0,0-.529-4.5,4.065,4.065,0,0,0-3.24-2.838c-2.432-.182-4.019,2.557-4.438,4.959-.986,5.645.957,11.344,2.873,16.745,1.762,4.968,3.6,10.071,7.106,14.008s9.123,6.471,14.133,4.83" transform="translate(-426.847 -479.366)"/><ellipse class="f" cx="10.134" cy="2.363" rx="10.134" ry="2.363" transform="translate(21.336 112.715)"/></g><path class="d" d="M755.294,377.484l5.84,17.975h18.9l-15.29,11.109,5.841,17.975-15.29-11.109L740,424.542l5.84-17.975-15.29-11.109h18.9Z" transform="translate(11.851 1.18)"/><path class="c" d="M538.838,383.151l-2.277,10.678,9.452,5.466-10.859,1.134-2.277,10.678-4.434-9.977-10.859,1.134,8.119-7.3-4.434-9.977,9.452,5.466Z" transform="translate(3.722 1.396)"/><g transform="translate(570.944 543.9)"><path class="a" d="M601.925,608.686s-3.539,10.116-6.989,11.539-9.588-9.612-9.588-9.612Z" transform="translate(-564.636 -533.895)"/><path class="c" d="M612,606.394a12.057,12.057,0,0,1-1.936,2.9c-1.043,1.011-4.134,4.157-4.134,4.157l-8.113,5.708-3.228,1.15,5.293-11.342Z" transform="translate(-564.283 -533.983)"/><path class="g" d="M609.482,609.361l-7.953-34.215-26.581,7.148c-7.732,1.813-11.276,10.758-8.736,18.877,2.329,7.442,8.949,12.122,15.363,11.213v0Z" transform="translate(-565.397 -535.175)"/><path class="c" d="M609.482,609.361l-7.953-34.215-26.581,7.148c-7.732,1.813-11.276,10.758-8.736,18.877,2.329,7.442,8.949,12.122,15.363,11.213v0Z" transform="translate(-565.397 -535.175)"/><path class="a" d="M591.219,596.318c2.909,9.3,10.884,15.073,17.813,12.905s10.19-11.461,7.282-20.757S605.43,573.392,598.5,575.561,588.311,587.021,591.219,596.318Z" transform="translate(-564.452 -535.177)"/><path class="d" d="M636.857,615.684c-9.805-11.048-21.384-10.325-27.076-9.063a8.342,8.342,0,0,1-3.513,1.052l-.014.007v0a11.19,11.19,0,0,1-8.245-3.266c-7.891-7.2-7.884-21.791.3-25.412v0c.085-.031,16.324-4.294,21.582-9.113,2.708-2.482,7.482-10.332,7.482-10.332C637.639,620.316,636.227,611.955,636.857,615.684Z" transform="translate(-564.377 -535.771)"/><path class="c" d="M625,590.252c5.135,26.259,22.379,44.989,38.516,41.834s25.055-27,19.92-53.26-22.378-44.99-38.515-41.834S619.865,563.992,625,590.252Z" transform="translate(-563.178 -536.645)"/><path class="a" d="M662.518,627.386c-17.719,3.455-30.766-19.211-34.654-36.994-2.863-12.884-1.637-31.451,6.458-41.8a18.631,18.631,0,0,1,12.951-7.47c15.747-1.65,29.347,18.041,33.267,38.081C685.185,602.961,677.113,624.528,662.518,627.386Z" transform="translate(-563.067 -536.478)"/><path class="d" d="M655.678,591.122c-12.3,3.956-20.824,6.711-24.821,7.992a67.423,67.423,0,0,1-3.972-15.833c-.223-1.917-.479-5.869-.418-6.176,2.112-.174,21.173-1.7,21.126-1.692v-.005c2.646-.206,4.662-.372,5.326-.423C653.2,576.634,651.9,569.006,655.678,591.122Z" transform="translate(-563.067 -535.182)"/><path class="d" d="M647.594,575.469v.005l-.452.037-20.674,1.73c-.009-.058-.019-1.068-.019-1.382l19.376-2.515a1.148,1.148,0,0,1,1.218.714Z" transform="translate(-563.067 -535.244)"/><path class="d" d="M650.994,593.313a1.145,1.145,0,0,1-.837,1.133l-18.963,5.3c-.169-.422-.339-.85-.5-1.278l1.748-.56,13.454-4.334v-.005l5.054-1.626Z" transform="translate(-562.905 -534.534)"/><path class="d" d="M614.509,642.2l-11.074-19.449,7.313-4.654,2.741-.978-.477,3.489s6.013,10.557,8.1,11.857c3.093,1.917,3.721,1.271,3.828,3.5C620.957,634.516,617.108,644.21,614.509,642.2Z" transform="translate(-563.945 -533.573)"/><path class="d" d="M606.216,611.209l7.294,6.136-2.743.979-7.871-6.478A6.384,6.384,0,0,0,606.216,611.209Z" transform="translate(-563.966 -533.799)"/><path class="d" d="M609.472,607.9l-4.487.932,6.336,7.825,1.614-.576Z" transform="translate(-563.886 -533.925)"/><path class="a" d="M611.132,617.752l.2-1.126L605,608.8s-.744,3.011-.281,3.772S611.132,617.752,611.132,617.752Z" transform="translate(-563.902 -533.891)"/><path class="d" d="M612.63,616.865l.079-1.082-1.614.576-.2,1.126Z" transform="translate(-563.661 -533.624)"/><path class="c" d="M648.339,584.042c.868,4.441,3.785,7.61,6.514,7.076s4.238-4.568,3.37-9.009-3.785-7.61-6.515-7.076S647.47,579.6,648.339,584.042Z" transform="translate(-562.241 -535.182)"/><path class="d" d="M608.507,621.765l4.294-1.033.5-3.614-2.742.979Z" transform="translate(-563.752 -533.573)"/><path class="d" d="M624.379,636.842c-.278,2.079-2.076,6.168-2.941,6.6a5.105,5.105,0,0,1-5.531-.268L621.978,636l2.44-1.3A8.505,8.505,0,0,1,624.379,636.842Z" transform="translate(-563.469 -532.902)"/><path class="h" d="M624.288,635.347l-2.98,1.353-.8-.964s1.766-1.451,2.888-2.319A2,2,0,0,1,624.288,635.347Z" transform="translate(-563.294 -532.951)"/><path class="c" d="M603.122,611.822l7.871,6.478-2.046,3.668s9.5,13.016,10.873,13.291c.652.131,1.379.33,1.962.5a1.292,1.292,0,0,1,.894,1.515c-.439,2.032-1.509,6.087-3.164,6.773-2.225.922-2.9.271-5.432-2.338a80.407,80.407,0,0,1-9.021-10.25c-3.118-4.441-2.007-6.752-3.9-8.82a21.079,21.079,0,0,0-4.17-3.425S601.084,612.549,603.122,611.822Z" transform="translate(-564.192 -533.775)"/></g><ellipse class="a" cx="34.214" cy="11.746" rx="34.214" ry="11.746" transform="translate(785.866 647.84)"/><ellipse class="d" cx="18.266" cy="9.212" rx="18.266" ry="9.212" transform="translate(554.41 643.591)"/><g transform="translate(835.508 522.957)"><g transform="translate(0 23.072)"><path class="i" d="M879.09,600.283s-38.736-26.906-55.123-11.393c-13.083,12.387,10.141,26.94,39.851,23.028,20.913-2.754,23.283,1.246,26.947,1.16,27.257-2.089,63.985-10.244,46.111-23.056-24.348-17.454-40.819,1.05-49.3,5.655Z" transform="translate(-820.234 -537.018)"/><path class="j" d="M928.941,589.3c-10.181-2.1-48.966,12.282-48.966,12.282S846.2,591.4,838.118,590.433s-11.8,2.1-11.8,2.1,3.812-4.3,8.242-4.686,10.827-1.455,10.827-1.455,64.643-3.07,73.209-1.13S928.941,589.3,928.941,589.3Z" transform="translate(-820.002 -536.943)"/><path class="k" d="M877.2,538.7a21.121,21.121,0,0,0-8.466,1.768c-7.342,3.21-21.017,9.958-21.238,13.253-.293,4.363,6.543,39.76,19.76,44.366a39.556,39.556,0,0,0,12.245,2.039,21.124,21.124,0,0,0,20.29-14.154c4.166-11.881,9.287-28.861,6.377-33.456-3.394-5.358-15.606-10.322-21.8-12.563A21.061,21.061,0,0,0,877.2,538.7Z" transform="translate(-819.194 -538.696)"/><path class="k" d="M856.257,546.7c-22.812,12.223-28.415,34.294-22.381,39.158,4.227,3.409,20.168,10.948,33.984,10.464a225.4,225.4,0,0,1,26.793.816s23.7-4.822,28.429-11.925-8.387-30.177-20.147-36.846S856.257,546.7,856.257,546.7Z" transform="translate(-819.8 -538.459)"/><path class="l" d="M897.52,558.8c6.464,3.448,12.1,16.512,12.1,16.512s-14.545,2.263-17.561,4.525.431-.862,2.154-7.111S897.52,558.8,897.52,558.8Z" transform="translate(-817.538 -537.929)"/><path class="l" d="M854.468,557.893c1.509,6.895,8.727,26.145,8.727,26.145s-6.686-7.615-13.79-8.046-9.741-.539-9.7,1.185c.009.342,1.186-7.649,6.68-12.6A82.869,82.869,0,0,1,854.468,557.893Z" transform="translate(-819.491 -537.963)"/><path class="c" d="M887.2,611.569a19.1,19.1,0,0,1,12.362-3.291c7.029.727,13.089,2.259,7.029,4.16a44.559,44.559,0,0,1-15.27,1.9A5.28,5.28,0,0,1,887.2,611.569Z" transform="translate(-817.678 -536.043)"/></g><path class="m" d="M835.078,584.962s-17.963,4.988-11.194,14.481c5.441,7.631,28.049,6.835,39.974,6.529" transform="translate(-820.153 -513.858)"/><path class="n" d="M827.686,591.44s13.11-.635,23.347,4.538,29.036,7.32,29.036,7.32" transform="translate(-819.95 -513.611)"/><path class="o" d="M897.39,600.975H858.356a3.218,3.218,0,0,1-3.175-2.687l-4.707-28.09a3.22,3.22,0,0,1,3.175-3.752H902.1a3.22,3.22,0,0,1,3.176,3.752l-4.707,28.09A3.218,3.218,0,0,1,897.39,600.975Z" transform="translate(-819.082 -514.564)"/><path class="p" d="M897.39,600.93H858.356a3.187,3.187,0,0,1-3.175-2.59l-4.707-27.077a3.141,3.141,0,0,1,3.175-3.616H902.1a3.142,3.142,0,0,1,3.176,3.616l-4.707,27.077A3.187,3.187,0,0,1,897.39,600.93Z" transform="translate(-819.082 -514.518)"/><path class="n" d="M827.119,605.365c5.023,2.288,12.774,4.388,23.5,3.453,21.049-1.833,27.986,2.592,27.986,2.592" transform="translate(-819.971 -513.079)"/><path class="c" d="M882.991,610.489c-.234-.04-25.209-6.291-30.784-1.686s18.664,4.684,23.028,3.676S882.991,610.489,882.991,610.489Z" transform="translate(-819.045 -513.012)"/><path class="q" d="M903.3,600.971s20.358-2.889,26.467-8.421" transform="translate(-817.064 -513.568)"/><path class="q" d="M903.9,603.87s19.317-.908,28.811-7.265" transform="translate(-817.041 -513.413)"/><path class="q" d="M908.527,595.81a24.047,24.047,0,0,1,2.63,10.568" transform="translate(-816.864 -513.444)"/><path class="q" d="M913.6,595.413s1.652,2.971,1.9,9.658" transform="translate(-816.67 -513.459)"/><g transform="translate(50.21)"><path class="r" d="M874.6,534.573s.483,5.386-2.84,8.366,7.658,0,7.658,0-2.043-5.16-1.585-8.366S874.6,534.573,874.6,534.573Z" transform="translate(-868.501 -515.835)"/><ellipse class="s" cx="5.809" cy="7.925" rx="5.809" ry="7.925" transform="translate(2.041 4.977)"/><g transform="translate(1.972 2.21)"><path class="i" d="M878.541,524.744s-10.056,5.575-7.071-3.376C873.535,515.174,885.4,520.753,878.541,524.744Z" transform="translate(-870.482 -518.601)"/><path class="i" d="M877.1,522.591s5.627,3.339,5.084,6.687c0,0,1.241-10-4.354-10.25s-7.76.289-7.263,10.862C870.567,529.89,872.191,521.479,877.1,522.591Z" transform="translate(-870.498 -518.586)"/></g><path class="i" d="M878.146,519.189a2.883,2.883,0,0,0-3.371-2.674c-3.089.441-4.412,2.206-4.853,3.971s-.882,3.088-1.324,3.088c0,0,1.324,1.324,1.765.882a7.781,7.781,0,0,0,.311,5.777s.572-4.013,2.778-4.454S878.146,519.189,878.146,519.189Z" transform="translate(-868.598 -516.472)"/><path class="i" d="M877.523,519.073s2.206-1.324,4.412,1.765l1.323,2.647s-.441.441-1.323,0a17.717,17.717,0,0,1-.02,4.863l-1.3-5.3Z" transform="translate(-868.257 -516.383)"/></g><path class="k" d="M872.787,539.908s1.733,3.137,4.375,2.4a20.4,20.4,0,0,0,3.384-1.141s3.881,5.186,2.064,6.011-14.942,2.394-15.6-.5,5.613-6.522,5.613-6.522" transform="translate(-818.451 -515.577)"/><path class="q" d="M839.181,590.417s-8.9,8.706-3,19.538" transform="translate(-819.703 -513.649)"/><path class="q" d="M844.206,591.5s-6.767,11.6-2.8,19.984" transform="translate(-819.474 -513.608)"/><path class="j" d="M879.811,601.4l14.224,4.126s4.52,2.049,3.859.285-4.289-2.426-6.61-3.2S879.811,601.4,879.811,601.4Z" transform="translate(-817.96 -513.23)"/></g><g transform="translate(540.628 409.687)"><path class="f" d="M536.691,411.82c13.422,20.8,27.22,42.3,46.721,58a102.728,102.728,0,0,0,29.617,16.988c10.256,3.675,22.639,6.11,33.464,3.729,5.107-1.123,9.952-4.138,11.662-9.3a10.8,10.8,0,0,0-3.835-12.6c-3.174-2.268-6.2,2.977-3.054,5.225,2.248,1.607,1.734,5.12.352,7.127-1.6,2.328-4.656,3.332-7.288,3.832-6.087,1.155-12.914.389-18.916-.828-12.093-2.453-23.315-7.946-33.307-15.1-21.49-15.391-36.083-38.262-50.19-60.125-2.1-3.261-7.345-.23-5.225,3.054Z" transform="translate(-536.196 -407.366)"/></g><g transform="translate(523.045 409.762)"><path class="f" d="M519.541,410.354a216.572,216.572,0,0,0,9.362,75.133c2.577,8.291,5.491,21.392,15.23,24.136,8.267,2.33,16.828-4.747,16.756-13.109-.033-3.892-6.084-3.9-6.05,0a7.594,7.594,0,0,1-6.584,7.408c-4.19.565-6.894-3.1-8.58-6.423-4.234-8.352-6.529-18.256-8.694-27.319a211.316,211.316,0,0,1-5.389-59.827c.2-3.892-5.854-3.882-6.05,0Z" transform="translate(-519.259 -407.439)"/></g><g transform="translate(540.399 432.927)"><path class="f" d="M536.127,432.3a214.345,214.345,0,0,0,30.315,53.956c6.02,7.784,12.579,16.437,20.427,22.469,5.708,4.388,14.859,5.077,17.942-2.7,1-2.534-3.09-3.635-4.084-1.126-2.052,5.176-8.74,2.568-11.761.117a79.917,79.917,0,0,1-8.257-8.343,204.935,204.935,0,0,1-16.332-20.3,209.984,209.984,0,0,1-24.164-45.2c-.972-2.517-5.069-1.423-4.084,1.125Z" transform="translate(-535.975 -429.752)"/></g></g></svg>