<svg xmlns="http://www.w3.org/2000/svg" xmlns:xlink="http://www.w3.org/1999/xlink" width="900" height="466.057" viewBox="0 0 900 466.057"><defs><style>.a{fill:none;}.b{clip-path:url(#a);}.c{fill:#eadff1;}.d,.f{fill:#d8a35d;}.d{fill-rule:evenodd;}.e{fill:#947dce;}.g{fill:#62548a;}.h{fill:#ffc84f;}.i{opacity:0.3;}.j{opacity:0.5;}.k{fill:#d19442;}.l{opacity:0.15;}.m{fill:#999;}.n{fill:#ccc;}.o{fill:gray;}</style><clipPath id="a"><rect class="a" width="900" height="466.057" transform="translate(900 466.057) rotate(-180)"/></clipPath></defs><g transform="translate(-805.583 -411.464)"><g class="b" transform="translate(805.583 411.464)"><path class="c" d="M1627.736,943.242c4.817-88.189-58.015-185.206-98.121-259.666-39.031-72.468-89.82-132.988-154.448-183.951-48.363-38.137-128.254-79.878-179.547-23.56-45.733,50.212-9.508,90.643-1.06,143.324,7.925,49.425-10.632,91.207-48.992,122.061C1072.777,800,972.005,841.932,915.069,917.9c-11.375,15.175-26.884,37.594-15.187,54.865,13.571,20.039,67.47,26.545,89.134,28.334,84.826,7,171.882,2.4,256.786-1.556,83.952-3.918,167.27-8.832,251.385-8.757,50.024.045,114.38-10.678,162.24,9.9" transform="translate(-756.587 -391.273)"/><g transform="translate(54.158 25.903)"><g transform="translate(0 289.733)"><g transform="translate(20.795)"><path class="d" d="M876.869,674.193s-7.306-8.334-15.828-10.011c-5.065-1-4.894-2.273-5.748-2.692-2.832-1.389-.259,4.081,4.014,5.632,3.473,1.261,5.19,7.356,7.254,8.719s8.3,3.962,9.91,3.2S876.869,674.193,876.869,674.193Z" transform="translate(-854.104 -661.267)"/></g><g transform="translate(0 7.551)"><path class="d" d="M906.653,682.914c-1.554-.594-17.785-11.244-26.773-12.446s-22.463-2.135-27.066-3.65c-5.416-1.783-6.888.336-.674,3.005,4.037,1.735,12.344,4.508,14.2,4.66.9.074-4.945-.957-11.279-2.544-6.734-1.687-14.023-3.9-14.411-2.709-.75,2.32,18.6,8.4,22.031,8.912a86.945,86.945,0,0,1-9.043-1.474c-4.071-.9-8.711-2.541-9.671-1.729-1.509,1.281,8.686,5.772,17.2,7.311.137.284-2.647.6-12.637-1.9-1-.252-3.6.085-.347,1.753,6.846,3.514,9.532,5.532,19.633,6.262,9.85.713,20.822-.869,27.818,1.8Z" transform="translate(-840.63 -666.16)"/></g></g><g transform="translate(47 141.608)"><path class="e" d="M882.986,749.762c7.894,3.088,65.222,13.6,117.843,2.045,33.212-7.28,64.535-23.372,80.385-55.669,40.949-83.487-54.738-130.845-54.738-130.845a1.747,1.747,0,0,0-.144.228c-4.149,6.265-93.343,140.085-155.232,160.969C871.1,726.491,870.112,744.712,882.986,749.762Z" transform="translate(-871.083 -565.294)"/></g><g transform="translate(417.436 483.361)"><path class="f" d="M1141.694,786.723s-1.991,184.106,5.8,186.6c13.989,4.565,68.465,18.749,9.828,19.646-29.783,4.379-28.163-2.5-29.118-8.126-.779-4.6-13.955-168.078-16.278-180.679-.52-2.821-.835-4.528-.835-4.528Z" transform="translate(-1111.096 -786.723)"/></g><g transform="translate(263.715 470.392)"><path class="f" d="M1069.39,778.32s-13.17,182.947-21.032,185.222c-14.113,4.172-68.964,16.82-10.376,19.362,29.65,5.214,28.223-1.707,29.334-7.306.909-4.575,8.305-39.236,10.98-51.769.6-2.806,22.734-144.536,22.734-144.536Z" transform="translate(-1011.497 -778.32)"/></g><g transform="translate(261.89 652.953)"><path class="g" d="M1071.807,899.96c.648-2.588-18.084-4.481-20.445-2.588s-40.516,5.323-41.044,16.477,52.128,8.357,55.848,8.52S1070.532,905.049,1071.807,899.96Z" transform="translate(-1010.314 -896.605)"/></g><g transform="translate(302.233 276.742)"><path class="h" d="M1046.638,666.77a11.617,11.617,0,0,0,6.825,2.465c15.449-1.025,82.163-5.613,118.121-10.8,12.685-1.831,21.541-3.733,22.966-5.587,0,0,0,.052,0,.147.077,2,.9,24.9,1.861,54.933,1.909,59.279,15.278,143.266,24.609,168.3,2.014,5.4-81.475,4.135-81.475,4.135-5.467-60.873-8.884-168.274-13.027-172.745-5.042-5.439-4.315,89.227-5.989,168.639-32.039,11.369-84.388,10.642-84.078,7.231C1040.148,842.98,1046.638,666.77,1046.638,666.77Z" transform="translate(-1036.453 -652.85)"/><g class="i" transform="translate(71.248)"><g transform="translate(0 12.247)"><path d="M1083.365,660.786c-.252,0-.5,0-.749,0C1082.616,660.788,1082.881,660.783,1083.365,660.786Z" transform="translate(-1082.616 -660.785)"/></g><g class="j" transform="translate(0.749)"><path d="M1083.1,665.1c19.987-.123,63.134-6.661,63.134-6.661,12.685-1.831,21.541-3.733,22.966-5.587,0,0,0,.052,0,.147.077,2,.895,24.9,1.861,54.933a15.046,15.046,0,0,1-2.107-.062c-4.538-.445-8.2-2.919-11.148-6.562a36.246,36.246,0,0,1-4.818-8.18C1135.769,666.237,1089.509,665.122,1083.1,665.1Z" transform="translate(-1083.101 -652.85)"/></g></g><g transform="translate(21.705 5.105)"><g transform="translate(0 6.123)"><rect class="e" width="221.592" height="1.43" transform="translate(0 221.582) rotate(-89.453)"/></g><g transform="translate(21.067 8.724)"><rect class="e" width="217.753" height="1.43" transform="translate(0 217.741) rotate(-89.399)"/></g><g transform="translate(43.763 6.974)"><rect class="e" width="1.43" height="215.932" transform="translate(0 0.007) rotate(-0.28)"/></g><g transform="translate(63.384 5.221)"><rect class="e" width="1.431" height="44.584" transform="translate(0 0.137) rotate(-5.491)"/></g><g transform="translate(85.175 3.366)"><rect class="e" width="1.43" height="219.628" transform="translate(0 0.096) rotate(-3.864)"/></g><g transform="translate(103.877 1.61)"><rect class="e" width="1.43" height="221.436" transform="translate(0 0.116) rotate(-4.65)"/></g><g transform="translate(122.39 0)"><rect class="e" width="1.43" height="222.745" transform="matrix(0.995, -0.104, 0.104, 0.995, 0, 0.149)"/></g></g><g transform="translate(9.282 23.467)"><path class="e" d="M1042.523,682.33c1.188-.046,119.271-4.69,149.787-12.894l-.372-1.381c-30.362,8.163-148.283,12.8-149.47,12.846Z" transform="translate(-1042.467 -668.055)"/></g><g transform="translate(8.365 54.093)"><path class="e" d="M1081.444,695.428a140.236,140.236,0,0,0,42.348-6.167l-.434-1.363c-39.94,12.728-80.695,1.628-81.1,1.514l-.384,1.378A164.726,164.726,0,0,0,1081.444,695.428Z" transform="translate(-1041.873 -687.898)"/></g><g transform="translate(89.245 46.933)"><path class="e" d="M1122.159,691.26c12.917,0,28.537-1.443,42.837-6.657l-.489-1.344c-31.5,11.486-69.581,4.447-69.961,4.374l-.269,1.4A167.531,167.531,0,0,0,1122.159,691.26Z" transform="translate(-1094.277 -683.259)"/></g><g transform="translate(7.63 71.918)"><path class="e" d="M1080.809,706.871a162.472,162.472,0,0,0,40.016-5.147l-.352-1.386c-47.013,11.937-78.213-.761-78.523-.89l-.552,1.32C1041.61,700.856,1056.388,706.871,1080.809,706.871Z" transform="translate(-1041.397 -699.447)"/></g><g transform="translate(6.964 91.27)"><path class="e" d="M1086.12,717.933c11.686,0,23.889-1.111,34.269-4.434l-.437-1.361c-30.852,9.876-78.215-.051-78.69-.151l-.3,1.4A246.633,246.633,0,0,0,1086.12,717.933Z" transform="translate(-1040.965 -711.986)"/></g><g transform="translate(5.911 110.635)"><path class="e" d="M1081.163,734.289a166.964,166.964,0,0,0,39.048-4.987l-.335-1.392c-53.136,12.8-78.561-3.213-78.811-3.377l-.783,1.2C1040.465,725.851,1053.809,734.289,1081.163,734.289Z" transform="translate(-1040.283 -724.533)"/></g><g transform="translate(5.061 131.885)"><path class="e" d="M1079.349,747.231a112.044,112.044,0,0,0,40.979-7.6l-.522-1.332c-41.622,16.3-79.148,1.012-79.524.855l-.551,1.32C1039.98,740.579,1056.308,747.231,1079.349,747.231Z" transform="translate(-1039.732 -738.301)"/></g><g transform="translate(4.05 153.091)"><path class="e" d="M1076.683,760.621c11.829,0,26.4-1.659,43.655-6.559l-.391-1.377c-52.633,14.945-79.877-.486-80.147-.644l-.724,1.233C1039.262,753.382,1051.994,760.621,1076.683,760.621Z" transform="translate(-1039.077 -752.041)"/></g><g transform="translate(3.134 170.43)"><path class="e" d="M1074.47,773.96a118.042,118.042,0,0,0,46.067-9.367l-.557-1.318c-43.845,18.5-80.578,3.594-80.945,3.442l-.551,1.32C1038.714,768.132,1053.057,773.96,1074.47,773.96Z" transform="translate(-1038.484 -763.275)"/></g><g transform="translate(2.123 188.261)"><path class="e" d="M1070.091,785.712c12.537,0,29.139-2.329,50.515-9.529l-.457-1.355c-58.419,19.675-81.2,2.148-81.421,1.971l-.9,1.111C1038.425,778.393,1047.869,785.712,1070.091,785.712Z" transform="translate(-1037.829 -774.828)"/></g><g transform="translate(1.25 206.096)"><path class="e" d="M1074.027,796.109a136.417,136.417,0,0,0,46.626-8.379l-.487-1.346c-46.906,17.011-82,2.641-82.347,2.493l-.556,1.318C1037.485,790.289,1051.692,796.109,1074.027,796.109Z" transform="translate(-1037.263 -786.384)"/></g><g transform="translate(92.397 68.664)"><path class="e" d="M1120.384,705.8c10.657,0,25.408-1.682,45.316-7.083l-.375-1.38c-51,13.83-68.028,2.783-68.194,2.67l-.812,1.179C1096.746,701.483,1103.315,705.8,1120.384,705.8Z" transform="translate(-1096.319 -697.339)"/></g><g transform="translate(94.636 87)"><path class="e" d="M1121.044,717.015c10.983,0,25.765-1.446,44.181-6.414l-.372-1.381c-43.514,11.738-66.366,3.7-66.593,3.619l-.491,1.344C1097.9,714.232,1105.82,717.015,1121.044,717.015Z" transform="translate(-1097.77 -709.219)"/></g><g transform="translate(95.519 106.413)"><path class="e" d="M1122,731c12.673,0,28.885-1.635,44.658-7.868l-.525-1.33c-32.626,12.892-67.153,5.877-67.5,5.806l-.293,1.4A129.618,129.618,0,0,0,1122,731Z" transform="translate(-1098.342 -721.797)"/></g><g transform="translate(96.481 124.242)"><path class="e" d="M1126.4,744.431a92.774,92.774,0,0,0,42.176-9.805l-.646-1.276c-34.219,17.382-68.155,6.018-68.493,5.9l-.468,1.352A93.586,93.586,0,0,0,1126.4,744.431Z" transform="translate(-1098.965 -733.349)"/></g><g transform="translate(97.671 143.74)"><path class="e" d="M1123.674,755.773a134.179,134.179,0,0,0,47-8.452l-.5-1.34c-37.588,14.105-69.762,6.123-70.083,6.041l-.355,1.386C1099.909,753.452,1109.242,755.773,1123.674,755.773Z" transform="translate(-1099.736 -745.982)"/></g><g transform="translate(98.726 162.46)"><path class="e" d="M1123.748,768.541c12.338,0,29.144-1.952,49.4-9.081l-.475-1.349c-44.049,15.506-71.506,6.308-71.779,6.214l-.471,1.35C1100.571,765.728,1108.939,768.541,1123.748,768.541Z" transform="translate(-1100.42 -758.111)"/></g><g transform="translate(100.123 180.718)"><path class="e" d="M1131.6,780.7a109.85,109.85,0,0,0,44.274-9.45l-.574-1.31c-40.523,17.763-73.111,4.765-73.433,4.63l-.545,1.323C1101.523,775.974,1113.371,780.7,1131.6,780.7Z" transform="translate(-1101.325 -769.941)"/></g><g transform="translate(101.262 200.501)"><path class="e" d="M1130.049,792.561a144.659,144.659,0,0,0,49.43-8.458l-.491-1.344c-39.658,14.5-76.219,5.8-76.585,5.706l-.341,1.388A131.309,131.309,0,0,0,1130.049,792.561Z" transform="translate(-1102.063 -782.759)"/></g></g><g transform="translate(287.913 53.884)"><path class="k" d="M1038.048,510.642s3.5,17.18,16.581,23.352-23.785,7.1-23.785,7.1,1.562-17.922-2.835-27.456S1038.048,510.642,1038.048,510.642Z" transform="translate(-1027.175 -508.456)"/></g><g transform="translate(263.896 7.67)"><ellipse class="f" cx="25.692" cy="18.831" rx="25.692" ry="18.831" transform="translate(0 47.946) rotate(-68.921)"/></g><g transform="translate(173.173 65.701)"><path class="e" d="M956.406,778.533c33.212-7.28,64.536-23.372,80.385-55.669.057.086.114.157.171.244.171.215.343.443.516.7a.839.839,0,0,1,.114.157c4.562,6.235,26.962,36.859,26.962,36.873,8.123,10.585,20.538,20.754,30.394,24.844.644.287,1.3.529,1.9.744,24.159,3.777,124.767-34.456,136.753-44.01,5.406-4.306,7.524-24.487,7.953-46.371.543-26.675-1.387-55.925-2.8-62.089-2.4-10.342-49.9-124.753-124.436-117.516a76.447,76.447,0,0,0-19.4,4.548s-.557.586-1.545,1.46a36.7,36.7,0,0,1-6.737,4.791,28.6,28.6,0,0,1-6.879,2.761,21.094,21.094,0,0,1-14.06-1.145c-4.663-2.088-15.019.358-27.591,7.38-17.464,9.74-39.247,28.321-56.053,55.783a1.747,1.747,0,0,0-.144.228,179.678,179.678,0,0,0-24.086,66.124A426.423,426.423,0,0,0,956.406,778.533Z" transform="translate(-952.833 -516.112)"/></g><g class="l" transform="translate(257.134 242.881)"><path d="M1007.233,660.476c.056.088.122.157.178.245.17.218.344.449.508.7.043.046.074.1.122.157,4.562,6.235,26.949,36.87,26.954,36.884,8.128,10.574,20.539,20.751,30.4,24.836-11.208-17.894-44.876-69.416-51.032-92.388C1017.711,653.826,1007.228,660.462,1007.233,660.476Z" transform="translate(-1007.233 -630.911)"/></g><g class="l" transform="translate(258.449 77.726)"><path d="M1052.134,529.448c.542,1.616,0,2.942-2.727,3.368-8.5,1.329-17.653,4.315-23.44,9.385a5.937,5.937,0,0,1-5.579,1.412c-5.038-1.227-9.93-7.916-11.977-10.918a2.386,2.386,0,0,1-.326-.693c12.575-7.024,22.921-9.472,27.593-7.373a21.048,21.048,0,0,0,14.056,1.131A11.628,11.628,0,0,1,1052.134,529.448Z" transform="translate(-1008.085 -523.903)"/></g><g transform="translate(273.136)"><g transform="translate(0 5.013)"><g transform="translate(12.622 0.602)"><path class="h" d="M1029.429,493.677s23.918,28.59,25.326-1.968C1055.73,470.566,1013.336,473.608,1029.429,493.677Z" transform="translate(-1025.779 -477.181)"/></g><path class="h" d="M1040.775,489.12s-20.911,3.538-23.174,14.3c0,0,7.905-31.692,25.12-25.929s23.139,9.921,9.308,41.326C1052.03,518.818,1056.919,491.481,1040.775,489.12Z" transform="translate(-1017.601 -476.791)"/></g><g transform="translate(24.307)"><path class="h" d="M1033.35,479.17s4.487-9.1,13.315-4.159,10.774,11.818,10.051,17.67-.931,10.372.4,10.886c0,0-5.547,2.46-6.367.611,0,0-.236,10.933-7.674,17.116,0,0,2.946-12.807-3.212-16.714S1033.35,479.17,1033.35,479.17Z" transform="translate(-1033.35 -473.543)"/></g><g transform="translate(1.091 3.009)"><path class="h" d="M1042.41,478.358s-5.13-6.575-15.4.194l-7.09,6.464s.819,1.849,4,1.543c0,0-4.84,8.935-5.612,14.735l10.129-14.525Z" transform="translate(-1018.308 -475.492)"/></g></g><g transform="translate(277.686 171.077)"><path class="m" d="M1028.257,682.528l108.83,44.543a12.406,12.406,0,0,0,16.172-6.774l30.394-74.281a3.91,3.91,0,0,0,.19-.537,12.363,12.363,0,0,0-6.971-15.624l-108.83-44.542a12.39,12.39,0,0,0-16.161,6.782l-28.994,70.831-1.411,3.443A12.386,12.386,0,0,0,1028.257,682.528Z" transform="translate(-1020.549 -584.387)"/><g transform="translate(1.607)"><path class="n" d="M1029.293,678.549l108.828,44.543a12.387,12.387,0,0,0,16.161-6.782l28.994-70.831a12.363,12.363,0,0,0-6.971-15.624l-108.83-44.542a12.39,12.39,0,0,0-16.161,6.782l-28.994,70.831A12.362,12.362,0,0,0,1029.293,678.549Z" transform="translate(-1021.591 -584.387)"/></g><g transform="translate(74.495 60.055)"><circle class="o" cx="9.572" cy="9.572" r="9.572"/></g></g><g class="l" transform="translate(297.138 229.152)"><path d="M1180.4,639.048s-10.437-41.456-115.988,4.985,90.006,1.489,90.006,1.489Z" transform="translate(-1033.152 -622.016)"/></g><g class="l" transform="translate(397.401 141.607)"><path d="M1098.13,565.293S1094.423,677.225,1201.9,692.2l2.3.7-7.634-23.787s-63.13-48.881-63.776-50.431S1098.13,565.293,1098.13,565.293Z" transform="translate(-1098.115 -565.293)"/></g><g transform="translate(285.737 55.777)"><g transform="translate(0 200.39)"><g transform="translate(0 4.311)"><path class="d" d="M1083.218,645.288c-1.429-.048-17.593-4.167-25.233-2.633s-18.848,4.542-23.012,4.6c-4.9.065-5.5,2.2.292,2.631,3.766.281,11.288.213,12.841-.182.753-.191-4.286.6-9.876,1.083-5.942.511-12.484.747-12.464,1.826.037,2.094,17.457,1.628,20.39,1.087a74.851,74.851,0,0,1-7.759,1.329c-3.559.409-7.789.369-8.34,1.3-.87,1.461,8.669,2.263,16.017,1.134.192.191-1.981,1.228-10.8,1.983-.886.076-2.9,1.076.207,1.523,6.545.942,9.291,1.831,17.7-.4,8.2-2.173,16.676-6.524,23.107-6.309Z" transform="translate(-1025.765 -642.312)"/></g><g transform="translate(14.012)"><path class="d" d="M1056.853,643.834s-8.266-4.731-15.659-3.71c-4.392.605-4.61-.482-5.42-.583-2.69-.336.929,3.389,4.834,3.456,3.175.054,6.274,4.527,8.331,5.058s7.848.9,8.946-.17S1056.853,643.834,1056.853,643.834Z" transform="translate(-1034.843 -639.519)"/></g></g><g transform="translate(28.603)"><path class="e" d="M1140.81,516.261c32.713,15.391,56.979,31.512,89.193,98.757,16.343,34.117,25.562,70.362,29.726,89.684a23.279,23.279,0,0,1-9.54,23.975c-72.919,50.829-184.677.6-184.677.6-5.147-.341-.753-19.641-.753-19.641,44.576-13.815,79.25-22.674,118.976-19.607-.207-.029-54.6-55.084-64.705-71.736-26.491-43.67-79.382-72.515-74.4-94.218C1046.344,516.575,1107.814,500.736,1140.81,516.261Z" transform="translate(-1044.297 -509.682)"/></g></g><g transform="translate(432.116 664.193)"><path class="g" d="M1120.618,905.31c-.576-2.607,22.165-1.193,24.472.766s35.756,8.038,35.97,19.2-52.341,6.893-56.064,6.95S1121.749,910.43,1120.618,905.31Z" transform="translate(-1120.607 -903.888)"/></g></g></g></g></svg>