<svg xmlns="http://www.w3.org/2000/svg" xmlns:xlink="http://www.w3.org/1999/xlink" width="621" height="305.842" viewBox="0 0 621 305.842"><defs><style>.a{fill:none;}.b{fill:#b6d7db;opacity:0.49;}.c{clip-path:url(#a);}.d{fill:#d19442;}.e,.i{fill:#d8a35d;}.f{fill:#ffc84f;}.g{fill:#947dce;}.h{opacity:0.15;}.i{fill-rule:evenodd;}</style><clipPath id="a"><path class="a" d="M768.761,601.707c70.831,21.892,112.288,34.7,174.328,36.428,83.549,2.318,162.274,4.5,206.853-44.234,22.257-24.333,32.751-57.8,74.155-76.756,13.165-6.026,26.968-9.447,36.427-23.417,15.36-22.687,5.979-53.577,3.9-59.844-15.353-46.348-68.391-65.877-101.476-78.059-36.5-13.439-103.09-37.959-162.62-9.106-52.156,25.279-62.721,74-102.776,71.553-20.864-1.274-23.706-14.84-50.737-27.321-42.8-19.761-112.878-21.392-157.416,20.815-33.978,32.2-53.607,90.4-32.524,131.4C662.106,553.331,675.151,572.777,768.761,601.707Z" transform="translate(-648.162 -333.265)"/></clipPath></defs><g transform="translate(-648.162 -333.265)"><path class="b" d="M768.761,601.707c70.831,21.892,112.288,34.7,174.328,36.428,83.549,2.318,162.274,4.5,206.853-44.234,22.257-24.333,32.751-57.8,74.155-76.756,13.165-6.026,26.968-9.447,36.427-23.417,15.36-22.687,5.979-53.577,3.9-59.844-15.353-46.348-68.391-65.877-101.476-78.059-36.5-13.439-103.09-37.959-162.62-9.106-52.156,25.279-62.721,74-102.776,71.553-20.864-1.274-23.706-14.84-50.737-27.321-42.8-19.761-112.878-21.392-157.416,20.815-33.978,32.2-53.607,90.4-32.524,131.4C662.106,553.331,675.151,572.777,768.761,601.707Z" transform="translate(0 0)"/><g transform="translate(648.162 333.265)"><g class="c"><g transform="translate(133.352 77.264)"><path class="d" d="M914.405,448.613s-1.462,16.325,8.607,25.354c6.536,5.86-9.317,31.715-19.454,30.3-5.478-.766-7.48-28.5-7.48-28.5s9.92-17.429,8.531-27.147S914.405,448.613,914.405,448.613Z" transform="translate(-739.864 -391.876)"/><ellipse class="e" cx="17.605" cy="24.019" rx="17.605" ry="24.019" transform="translate(151.625 15.029)"/><g transform="translate(146.904)"><g transform="translate(3.716 6.696)"><path class="f" d="M901.922,423.768s30.478,16.9,21.432-10.233C917.094,394.764,881.135,411.673,901.922,423.768Z" transform="translate(-890.577 -405.149)"/><path class="f" d="M907.05,417.112S890,427.231,891.643,437.381c0,0-3.76-30.3,13.195-31.065s23.52.875,22.015,32.919C926.852,439.234,921.927,413.744,907.05,417.112Z" transform="translate(-891.288 -404.975)"/></g><path class="f" d="M902.257,407.65s.856-9.442,10.217-8.1,13.371,6.686,14.708,12.034,2.675,9.36,4.012,9.36c0,0-4.012,4.012-5.349,2.675,0,0,3.471,9.616-.939,17.512,0,0-1.734-12.164-8.421-13.5S902.257,407.65,902.257,407.65Z" transform="translate(-885.73 -399.416)"/><path class="f" d="M905.49,406.519s-6.686-4.012-13.372,5.348l-4.011,8.023s1.337,1.337,4.011,0c0,0-1.218,9.422.06,14.74l3.953-16.078Z" transform="translate(-888.107 -398.366)"/></g><path class="g" d="M1018.906,596.371c-16.876.915-24.672-23.19-24.827-21-.829,11.721.525,26.44-7.951,34.259-19.195,17.708-58.425,21.4-92.262,12.194-18.431-5.014-31.584-25.879-23.379-43.129.125-.263,3.6.018,3.718-.223-3.761,5.605-14.776,17.035-29.194,16.97-.186-.145-.362-.3-.549-.457-9.852-8.193-20.584-18.688-26-28.57-12.628-23.01,8.37-50.016,10.246-53.766,1.875-3.731,3.8-7.2,5.812-10.443a1.866,1.866,0,0,1,.165-.27c1.513-2.455,3.087-4.775,4.693-6.972a80.792,80.792,0,0,1,34.539-27.421c16.482-7.076,36.216-11.25,40.237-3.47l.031.062c.932,1.844.849,4.04.786,6.206-.02.548-.03,1.087-.03,1.615,0,2.062.249,3.989,1.668,5.418,2.568,2.559,7.263,1.906,10.308-.581,3.523-2.859,5.138-8.412,3.936-13.871a92.032,92.032,0,0,1,35.5-.041c1.709.331,3.449.736,5.231,1.191,9.51,2.476,32.187,8.37,48.244,25.888a58.684,58.684,0,0,1,3.936,4.725c.114.134.208.27.311.4a.34.34,0,0,1,.053.083,64.306,64.306,0,0,1,10.266,20.946q.7,2.393,1.212,4.88C1040.34,543.151,1040.038,595.225,1018.906,596.371Z" transform="translate(-753.579 -389.256)"/><path class="h" d="M988.449,560.2c.249-.943-2.88-3.574-3.45-4.216a41.376,41.376,0,0,1-4.526-6.185c-3.606-6.071-5.605-13.239-4.683-20.3.973-7.521,4.962-14.162,8.008-20.968a43,43,0,0,0,3.511-10.712c.642-3.936,1.078-7.459,3.823-10.67a6.409,6.409,0,0,1,1.627-1.5,62.6,62.6,0,0,1,4.247,5.128.339.339,0,0,1,.053.083,64.635,64.635,0,0,1,5.1,15.809c.311,1.636.559,3.294.746,4.983Z" transform="translate(-726.51 -384.93)"/><path class="i" d="M790.333,467.754s-3.1-7.782-8.744-11.129c-3.355-1.989-2.91-2.856-3.412-3.37-1.667-1.7-1.216,2.841,1.435,5.026,2.155,1.775,1.839,6.549,2.963,8.042s4.908,4.918,6.249,4.782S790.333,467.754,790.333,467.754Z" transform="translate(-759.836 -390.434)"/><path class="i" d="M805.953,481.228c-.958-.815-9.826-12.5-15.923-15.628s-15.459-7.2-18.353-9.439c-3.407-2.638-4.992-1.5-1.24,1.97,2.438,2.255,7.652,6.328,8.938,6.906.622.28-3.28-1.932-7.39-4.663-4.371-2.9-9-6.322-9.579-5.569-1.12,1.462,11.123,10.679,13.437,11.914a65.812,65.812,0,0,1-6.067-3.335c-2.674-1.668-5.562-4.012-6.45-3.675-1.4.53,4.727,6.3,10.4,9.553.026.236-2.037-.239-8.519-4.549-.652-.433-2.586-.849-.69,1.161,3.988,4.233,5.39,6.348,12.4,9.421,6.836,3,15.049,4.64,19.357,8.31Z" transform="translate(-762.333 -390.128)"/><path class="g" d="M873.168,570.965c-.218,6.279-1.938,11.852-5.916,15.934a17.124,17.124,0,0,1-1.657,1.492c-4.206,3.4-9.634,4.776-15.094,5.087a49.311,49.311,0,0,1-5.107,0,72.277,72.277,0,0,1-18.389-3.636c-34.746-12.39-42.588-56.532-43.5-62.127A92.279,92.279,0,0,1,785,491.353c1.43-2.787-3.232-8.6-3.232-8.6l7.583-4.309,8.992-5.1,3.066-1.74s8.361,5.232,7.646,6.257A119.068,119.068,0,0,1,838.038,497.9c.715.663,1.431,1.357,2.134,2.072a106.258,106.258,0,0,1,13.862,16.938l.03.041c.425.642.84,1.3,1.254,1.958a145.931,145.931,0,0,1,9.592,18.3C869.656,548.04,873.52,560.492,873.168,570.965Z" transform="translate(-759.068 -387.287)"/><path class="i" d="M1049.81,458.737s2.712-7.926,8.185-11.546c3.254-2.151,2.766-3,3.242-3.533,1.58-1.785,1.355,2.777-1.187,5.09-2.064,1.879-1.514,6.632-2.564,8.177s-4.659,5.154-6.006,5.084S1049.81,458.737,1049.81,458.737Z" transform="translate(-714.036 -392.051)"/><path class="i" d="M1039.17,472.964c.916-.862,9.2-12.97,15.134-16.393s15.086-7.949,17.867-10.331c3.273-2.8,4.912-1.745,1.336,1.906-2.324,2.373-7.331,6.7-8.587,7.339-.607.311,3.18-2.091,7.152-5.02,4.221-3.115,8.678-6.759,9.293-6.035,1.191,1.405-10.583,11.215-12.834,12.561a65.687,65.687,0,0,0,5.895-3.629c2.588-1.8,5.359-4.281,6.262-3.988,1.424.461-4.41,6.53-9.919,10.053-.015.238,2.023-.339,8.285-4.963.628-.465,2.54-.975.746,1.126-3.775,4.424-5.071,6.605-11.922,10.019-6.679,3.33-14.8,5.378-18.924,9.255Z" transform="translate(-715.824 -391.869)"/><path class="g" d="M1065.475,479.4a36.062,36.062,0,0,1,5.91-9.075l-21.407-11.9s-4.143,6.289-3.537,7.372c-11.889,4.505-36.849,12.435-53.63,34.193-11.608,15.051-34.639,59.519-21.254,76.261,10.959,13.709,6.8,22.24,27.634,18.718,36.378-6.147,62.786-73.749,64.237-79.231A92.2,92.2,0,0,0,1065.475,479.4Z" transform="translate(-727.865 -389.503)"/><path class="g" d="M976.463,572.858a48.3,48.3,0,0,1-9.054,8.65,626.166,626.166,0,0,0-68.632-11.086c-26.085-2.776-33.565-2.1-45.157-2.641-5.759-13.82-2.434-29.7,3.2-43.459,10.154-24.79,38.311-30.374,50.235-32.736,8.753-1.74,49.808-9.872,69.977,18.057C989.826,527.379,990.8,554.936,976.463,572.858Z" transform="translate(-747.502 -384.341)"/><path class="h" d="M952.1,462.7c-2.108,2.507-7.764,5.946-10.795,5.821-3.679-.145-9.335,3.616-15,7.086s-12.578,13-21.629,9.106-3.963-14.555-3.963-14.555h.01c-.091,2.641-.162,5.232,1.632,7.034,2.564,2.559,7.267,1.906,10.308-.581,3.527-2.858,5.138-8.412,3.933-13.871A92.06,92.06,0,0,1,952.1,462.7Z" transform="translate(-739.325 -389.071)"/></g></g></g></g></svg>