<svg xmlns="http://www.w3.org/2000/svg" xmlns:xlink="http://www.w3.org/1999/xlink" width="1366" height="707.29" viewBox="0 0 1366 707.29"><defs><style>.a,.aa,.ab,.ac,.ae,.j,.y,.z{fill:none;}.b{clip-path:url(#a);}.c{fill:#70b8b8;}.d{fill:#9cd6d6;}.e,.u{fill:#fff;}.f,.l{fill:#f6da9b;}.g{fill:#d63e23;}.h{fill:#164b55;}.i{fill:#f8d24b;}.j{stroke:#f8d24b;stroke-linecap:round;stroke-linejoin:round;}.k{opacity:0.3;}.l{fill-rule:evenodd;}.m{fill:#d6bf87;}.n{fill:#f7cf43;}.o{fill:#438591;}.p{opacity:0.15;}.q{fill:#fe674c;}.r{fill:#274e55;}.s{fill:#e8d9a9;}.t{fill:#6a5342;}.u{opacity:0.2;}.v{fill:#c5907b;}.w{fill:#183242;}.x{fill:#d1b77e;}.y{stroke:#251211;stroke-width:1.957px;}.aa,.ab,.ac,.ae,.y,.z{stroke-miterlimit:10;}.z{stroke:#f7b172;}.aa,.ab,.z{stroke-width:0.217px;}.aa{stroke:#ca341f;}.ab{stroke:#4a4748;}.ac,.ae{stroke:#4e91f2;}.ac{stroke-width:1.272px;}.ad{fill:#7797b6;}.ae{stroke-width:1.118px;}</style><clipPath id="a"><rect class="a" width="1366" height="707.29" transform="translate(0 -904.186)"/></clipPath></defs><g transform="translate(0 904.186)"><g class="b"><path class="c" d="M1366-955.144v758.464l-242.228-67.586-32.991-6.263,1.636-558.092,30.118-25.56Z"/><path class="c" d="M316.3-839.209,300.245-282.838.2-208.44V-958.493l298.845,93.57Z"/><path class="d" d="M697.978-875.609H273.37v617.384h849.165V-875.609Z"/><path class="e" d="M0-903.9c121.657,30.38,335.7,73.889,615,80.373,352.972,8.194,622.429-47.1,751-78.7v-62.455H0Z"/><path class="e" d="M0-239.351c121.657-30.38,335.7-73.888,615-80.372,352.972-8.2,622.429,47.1,751,78.7v48.78L.2-189.407Z"/><path class="f" d="M912.122-259.6s21.155.087,22.749,4.07c2.908,7.147,12.352,35.107,10.639,4.41,1.183-15.739-2.354-14.635-5.333-14.925-2.433-.237-20.9-2.3-27.577-3.044l-2.4-.268Z"/><path class="g" d="M924.717-268.892c-1.385-.2,1.784,11.057-.183,12.343,0,0,8.113-1,9.223.136s4.878,20.862,10.725,20.559,1.657-27.629,1.548-29.578S927.437-268.491,924.717-268.892Z"/><path class="f" d="M970.507-269.2s21.131-.99,22.926,2.907c3.268,6.99,14.123,34.433,10.85,3.862.38-15.778-3.1-14.5-6.085-14.634-2.443-.113-20.991-1.231-27.7-1.636l-2.41-.146Z"/><path class="g" d="M982.6-279.37c-1.393-.134,2.344,10.951.446,12.336,0,0,8.051-1.409,9.218-.333s5.933,20.586,11.757,19.986.249-27.678.041-29.619S985.34-279.108,982.6-279.37Z"/><path class="h" d="M921.746-270.64l-.055,1.109-.364,7.509-.348,7.073L899.8-257.823c-.7-.094-1.412-.193-2.157-.293-5.7-.772-13.131-1.12-21.241-1.489H876.4c-25.065-1.142-56.716-2.5-64.661-17.429-10.516-19.751,55.911-74.216,55.911-74.216l35.546,9.318s9.021,18.052-5.55,32.656a39.143,39.143,0,0,1-7.018,5.451c-.645.408-1.307.8-1.98,1.186a85.513,85.513,0,0,1-13.628,6.075c-3.073,1.092-6.14,2.035-9.048,2.841-.64.176-1.269.347-1.887.507-6.995,1.849-12.871,2.891-15.431,3.3,7.112-.866,17.622.993,28.474,3.857a370.615,370.615,0,0,1,39.083,13.175c.006,0,.017.005.022.005C919.694-271.506,921.746-270.64,921.746-270.64Z"/><path class="e" d="M837.626-309.084c.055-.259.334-.473.473-.131a.657.657,0,0,1-.03-.675c.092.228.257.084.371.014-.17-.119-.319-.087-.619-.024-.04.6-.888.077-.886.72C837.156-309.139,837.473-308.866,837.626-309.084Z"/><path class="e" d="M839.381-308.074l-.02-.151-.339.4C839.062-307.976,839.3-308.228,839.381-308.074Z"/><path class="i" d="M840.624-309.01c.062.265.34.321.428.552-.21-.5.3-.242.467-.381l-.077-.418c-.3-.207-.714.1-1.123.227Z"/><path class="e" d="M841.094-308.867l.026-.3C841.042-309.058,840.816-308.923,841.094-308.867Z"/><path class="e" d="M840.281-310.118c-.325.093.255.09-.026.3C840.334-309.928,840.448-309.995,840.281-310.118Z"/><path class="i" d="M841.893-309.857c-.2.147-.4.289-.59.441l.34.061Z"/><path class="i" d="M842.25-309.042a.179.179,0,0,1-.207-.242c.355.217.335-.271.654-.094l-.159.211c.152.313.311-.5.518.082.131-.513-.4-.409-.141-.837a1.435,1.435,0,0,1-.945.221c.13.085.156.05.312.1-.2.1-.414.377-.641.507C841.918-308.771,841.964-309.178,842.25-309.042Z"/><path class="i" d="M843.329-309.361c.234-.057.584-.169.484-.628-.351-.223-.258.159-.3.382-.094-.046-.329.009-.324-.254C843.26-309.78,843.167-309.488,843.329-309.361Z"/><path class="i" d="M844.237-309.608l.023-.448-.082.1-.113-.273c.006.076.112.611-.124.661C844.136-309.394,844.083-309.662,844.237-309.608Z"/><path class="i" d="M843.593-311.549c.224.135.274-.011.413-.185-.235.127-.592.243-.607.429l-.006-.076a2.3,2.3,0,0,0-.223.616C843.323-311.125,843.921-310.878,843.593-311.549Z"/><path class="i" d="M843.263-311.469l.1-.29Z"/><path class="i" d="M844.9-309.95l-.39,0,.127.089Z"/><path class="i" d="M844.065-310.976c.3-.045-.263-.252,0-.338.055-.07-.383.15-.337.342C843.825-310.925,843.918-311.291,844.065-310.976Z"/><path class="i" d="M845.134-310l.181-.395Z"/><path class="i" d="M845.908-310.061l-.015-.228c.334.08.608-.337.96.047-.134-.243-.064-.573-.333-.569.009.152-.079.178-.01.338-.12-.016-.162-.209-.256-.258-.1.287-.437.209-.51.462.055-.068.088-.027.149-.02-.178.466-.54-.4-.462.245C845.473-310.266,845.8-309.925,845.908-310.061Z"/><path class="i" d="M845.392-311.475l-.273.005c-.02-.3.3-.115.249-.384-.071-.159-.345-.153-.294-.3.2.661-.326.149.055.832-.289.2-.237-.364-.56-.208l.028.379C844.908-311.454,845.078-311.176,845.392-311.475Z"/><path class="i" d="M846.378-311.7l.191.175-.167-.285c.534-.241,1.266.918,1.538.638.281-.547.861-.049,1.26-.245.123-.333-.246-.1-.318-.252-.1-.54.285.211.25-.247-.089-.387-.559-.271-.813-.441-.142.1-.1.221-.084.449-.106-.2-.287-.21-.394-.408-.237.4-.59-.1-.813.319-.2-.253.226-.133.1-.141l-.176.063.034.04c-.145.372-.676.252-.9.112.155.057.318.265.2.4l-.229-.292-.146.585C846.05-311.622,846.535-311.073,846.378-311.7Z"/><path class="i" d="M845.835-312.175c-.429-.051.211.478-.246.46l.415-.176Z"/><path class="e" d="M847.873-311.929l.254.17C847.88-312.194,847.792-311.481,847.873-311.929Z"/><path class="e" d="M848.545-312.145l.037.458.1-.3Z"/><path class="i" d="M849.318-311.819c.071-.258-.148-.393-.291-.29C849.175-312.136,849.307-311.971,849.318-311.819Z"/><path class="i" d="M847.646-310.729a.267.267,0,0,1-.112.022Z"/><path class="i" d="M847.718-310.743l-.072.014A.223.223,0,0,1,847.718-310.743Z"/><path class="i" d="M840.325-308.245a.341.341,0,0,1-.128.081l.125-.083Z"/><path class="i" d="M839.927-308.755c.138-.365.519.518.838.166a4.61,4.61,0,0,1-.443.342C839.924-308.569,840.409-308.539,839.927-308.755Z"/><path class="i" d="M843.086-310.566c0-.007.007-.009.009-.018C843.114-310.608,843.107-310.589,843.086-310.566Z"/><path class="e" d="M829.625-303.282l.058.109-.283-.023Z"/><path class="e" d="M829.761-303.1l.465.014c-.684.4-1.36.806-2.03,1.223l-.019-.186C828.035-302.233,829.915-302.97,829.761-303.1Z"/><path class="e" d="M829.768-303.327c-.042-.558.426-.021.5-.474-.051.3-.041.6-.263.574Z"/><path class="j" d="M830-304.574c.161.029.193-.236.293-.2C830.435-304.41,830.118-304.581,830-304.574Z"/><path class="i" d="M829.593-306.055a.1.1,0,0,1,.052-.032.511.511,0,0,0-.02.094Z"/><path class="i" d="M829.625-305.993l.08.157A.149.149,0,0,1,829.625-305.993Z"/><path class="i" d="M829.645-306.087a.726.726,0,0,0,.045-.235l-.062,0c.046-.077.1-.266.178-.2-.148.044-.092.154.02.374l.232-.085C830.292-305.686,829.856-306.155,829.645-306.087Z"/><path class="j" d="M830.264-306.571l-.066.415C829.986-306.409,830.179-306.53,830.264-306.571Z"/><path class="i" d="M830.77-306.4c-.007.113-.239.2-.037.265,0,.077-.053.086-.1.108C830.744-306.179,830.423-306.457,830.77-306.4Z"/><path class="i" d="M830.635-306.032a.146.146,0,0,1-.055.048A.119.119,0,0,1,830.635-306.032Z"/><path class="j" d="M829.042-303.512a.143.143,0,0,1,.077.1Z"/><path class="i" d="M831.381-306.316l.084-.04a.2.2,0,0,0-.059.049Z"/><path class="i" d="M826.235-299.838a1.253,1.253,0,0,0,.918-.562c-.225-.355.1-.2-.106-.59-.19.148.161-.14.509-.461s.7-.66.489-.646l0,.225-.117-.44c.256-.019.7.129.712-.168.1.1-1.688,1-1.554,1.075-.42-.357,2.075-1.776,2.035-2l.158.218c.174-.419.19-.868.365-1.178l.214.25c-.244.014-.192.236-.321.467.313-.241.47-.1.7-.3-.209-.364-.322-.058-.1-.444.178.1.178.627.43.389.408-.093.047-.6.343-.8l-.285-.028c.106-.078.28-.271.5-.129a.584.584,0,0,0-.162.789c.089-.152.455-.165.561-.243l.066.3c.254.179.133-.228.409-.087.073-.226-.287-.327-.258-.477.077.072.442.06.455-.165-.356-.512-.262.345-.726-.088l.328-.049c-.106-.633-.44.24-.577-.241-.083-.672.716.312.54-.506-.2-.069-.621.134-.669-.089.251.127.156-.314.323-.49l.375.127c.015-.227-.069-.186-.208-.255.523.132.948-.545,1.655-.409.265-.23-.081-.261-.038-.525.326.255.465-.157.638-.231.062,0-.005-.373-.118-.485l-.33.412c-.065-.187-.269-.446-.4-.331.423.593-.8-.1-.468.649l-.158-.335-.434.5.039.037c-.053-.109-.347.453-.715.47.029-.154.6-.282.116-.494.127-.3.679-.2,1.017-.547l-.191-.184c.274-.532,1.049-.4,1.5-.7l0,.374c.225.037.561.186.6-.151-.2.112-.175-.112-.2-.262.2-.3.694-.3,1.02-.6a.249.249,0,0,0,.049.113l.315-.37c.213-.035.361.118.57.272.051-.075.226-.147.078-.3-.045,0-.09,0-.106.029.05-.432.186.036.347-.287-.068.375.243.38.349.683.239-.259-.2-.53-.225-.681.435.006.591.236.979.139-.057-.189-.311-.012-.431-.2.125,0,.239-.067.228-.142l-.286-.047a1.448,1.448,0,0,0,1.221-.37l-.072-.078.265-.1.048.378c.1-.147.381.09.343-.213l-.062,0,.131-.183-.041.412c.282.047.307-.77.7-.864.267.428-.568.419-.369,1.028.159.047.406.061.415-.126-.08-.154-.169-.122-.257-.089.194-.438.874-.137.868-.738l-.318-.093c.258-.174.687.377.646,0l.013.677c.169-.4.558-.493.741-.814-.127-.346-.384.159-.392.083l.031-.3c.5.037.2.164.787.171l-.084-.232c.3.287.5-.562.564.119l-.192-.09.117.273.513-.412c.021.228.281.06.307.364l.125-.327c.243.359-.222.619-.131.929.075.178.167.117.207.073-.148.39-.532-.248-.793-.159l-.032.3-.125-.347a.91.91,0,0,0-.071.519c-.433-.371-.488.3-.908.341.238-.323-.331-.246-.313-.358-.177.065-.361.841-.677.484-.167-.122.114-.33-.159-.309a.275.275,0,0,0-.007.449,5.669,5.669,0,0,1-1.128.5l0-.263c-.317-.087-.416.321-.436.619-.071-.077-.061,0-.082-.152-.463-.244-.188.627-.718.754.168.3.4.241.491.021l.116.378a2.519,2.519,0,0,0,1.131-.81l-.046.335c.5.362.017-.563.528-.123.155-.214-.228-.127-.135-.344.191.044.223.644.479.567-.842.568-1.9.973-2.818,1.466.011.075.072.077.133.079-.053.32-.89.434-1.661.628s-1.495.42-1.309.908c-.112-.112-.034-.337-.224-.223a.443.443,0,0,0,.118.3c-.747-.252-1.154.6-1.919.584.093.147,0,.3.058.41-.389-.251-.539.313-.836.211l.154.144-.6.316c.017.074.1.034.16.032-.086.151-.221-.031-.315-.176l-.061.524c-1.121-.206-1.545,1.3-2.642,1.416.038.371,0,.56-.2.722l.161.027c-.081.377-.1-.142-.221.089-.02.262.221.468.3.2.168.037.16.179.123.3A3.311,3.311,0,0,1,826.235-299.838Z"/><path class="k" d="M899.8-257.823c8.122-.508,16.348-1.876,21.523-4.2l.364-7.509a47.425,47.425,0,0,0-5.457-3.343c-.005,0-.016-.005-.022-.005a370.615,370.615,0,0,0-39.083-13.175c-2.047,6.239-7.067,23.585-.728,26.449h.005Z"/><path d="M912.919-289.7a9.207,9.207,0,0,1,1.726-.315Z"/><path class="k" d="M921.492-294.082a67.2,67.2,0,0,1-8.573,4.381s-6.185-1.716-7.923-1.617C906.326-291.489,914.745-292.581,921.492-294.082Z"/><path class="k" d="M897.647-320.57l-7.018,16.745c-.645.408-1.307.8-1.98,1.186a85.513,85.513,0,0,1-13.628,6.075c-3.073,1.092-6.14,2.035-9.048,2.841a15.092,15.092,0,0,0-1.887.507c14.676-10.217,16.033-39.271,16.033-39.271a20.5,20.5,0,0,0,4.039-1.064c5.517-1.81,14.135-2.317,15.028-2.7C900.549-336.845,897.647-320.57,897.647-320.57Z"/><path class="h" d="M977.458-281.718l-.977,16.838c-4.088-1.754-52,0-82.21,4.668s-6.968-87.6-6.968-87.6,37.864-34.046,54.972,2.792c12.3,26.482-8.253,43.475-20.783,50.939a67.2,67.2,0,0,1-8.573,4.381,9.207,9.207,0,0,1,1.726-.315C927.064-291.224,977.458-281.718,977.458-281.718Z"/><path class="k" d="M867.652-351.251,852.57-338.019s10.512,10.98,32.165,4.293,33.192,2.42,39.359-3.006,1.944-8.811,1.944-8.811Z"/><path class="l" d="M926.333-288.687s-5.81.122-9.357,2.977c-2.108,1.7-2.563,1.2-3.019,1.4-1.512.669,1.551,1.481,3.615.289,1.677-.969,4.7.4,5.946.029s4.389-1.994,4.627-2.9S926.333-288.687,926.333-288.687Z"/><path class="l" d="M938.477-293.865c-.763.424-10.512,3.347-14.026,6.548s-8.434,8.3-10.594,9.633c-2.543,1.573-2.189,2.879.978,1.285a46.636,46.636,0,0,0,6.661-4.129c.333-.337-2.053,1.662-4.826,3.669-2.948,2.134-6.3,4.312-5.947,4.871.678,1.083,9.643-4.632,11.007-5.837a45.606,45.606,0,0,1-3.641,3.132c-1.733,1.332-3.959,2.64-3.956,3.3.005,1.038,5.246-1.539,8.736-4.438.161.04-.65,1.266-5.026,4.43-.44.318-1.181,1.474.586.731,3.72-1.563,5.435-1.96,9.136-5.768,3.609-3.714,6.674-8.651,10.106-10.559Z"/><path class="l" d="M780.321-473.7c-.136-.862.459-11.022-1.344-15.421s-4.9-10.766-5.419-13.254c-.606-2.927-1.954-3.043-1.542.479a46.678,46.678,0,0,0,1.6,7.672c.2.429-.858-2.5-1.793-5.791-.994-3.5-1.892-7.393-2.537-7.256-1.25.265,1.046,10.647,1.71,12.341a45.535,45.535,0,0,1-1.694-4.495c-.657-2.084-1.123-4.623-1.743-4.846-.977-.351-.352,5.456,1.175,9.728-.093.137-.966-1.045-2.439-6.241-.148-.522-.98-1.614-.888.3.193,4.03-.021,5.778,2.288,10.559,2.252,4.663,5.839,9.235,6.455,13.113Z"/><path class="l" d="M779.619-486.883s1.877-5.5.41-9.811c-.872-2.562-.246-2.818-.279-3.315-.109-1.65-1.922.949-1.51,3.3.335,1.908-1.985,4.282-2.065,5.576s.369,4.806,1.137,5.34S779.619-486.883,779.619-486.883Z"/><path class="m" d="M908.7-487.762s.82,9.155-4.827,14.218,13.014,0,13.014,0-3.473-8.769-2.694-14.218S908.7-487.762,908.7-487.762Z"/><ellipse class="f" cx="9.873" cy="13.47" rx="9.873" ry="13.47" transform="translate(901.8 -511.152)"/><path class="n" d="M954.156-361.3h-.006v.005a44.532,44.532,0,0,1-11.873,16.916c-.281.237-.568.452-.844.656-11.569,5.517-67.849,1.4-75.3-1.6-3.36-1.357-7.443-11.172-10.946-22.1-4.276-13.324-7.7-28.3-7.9-31.608-.347-5.556,6.356-70.161,44.888-77.7a40.067,40.067,0,0,1,10.422-.629s.364.215,1,.507a19.429,19.429,0,0,0,4.1,1.391,12.012,12.012,0,0,0,10.759-2.323c4.412-3.811,38.865,1.848,53.712,10.708s38.095,35.425,35.049,77.649c-5.842,80.969-68.354,102.283-68.354,102.283s-1.784,11.131-4.047,11.2-3.972-5.154-5.609-5.556-5.478-1.792-5.359-3.158,2.329-5.613-.583-6.922,8.091-.783,7.959-3.135c-1.765-30.831,7.575-58.079,19.432-80"/><path class="n" d="M903.15-469.785c-3.846,21.721-21.909,80.335-21.909,80.335A97.5,97.5,0,0,1,855.432-368.2c-.083.05-.165.094-.248.138a106.9,106.9,0,0,1-12.563,6.075,112.092,112.092,0,0,1-41.439,8.364c-79.055-28.524-29.594-118.961-29.594-118.961-.391-3.122-8.181-5.451-8.959-8.882s6.234.314,7.4-1.038-1.164-6.824,3.117-4.816,3.5,2.273,10.124,0,0,12.011,0,12.011c19.619,25.566,23.238,52.07,23.768,58.178-.006-.127-.006-.259-.011-.408.232-.591.463-1.181.695-1.76.315-.773.635-1.54.96-2.29a.016.016,0,0,0,.006-.011c0-.006.005-.011.005-.022A93.38,93.38,0,0,1,831.626-454.4c23.094-20.927,49.422-25.539,63-25.07,4.7.16,7.867.927,8.855,1.832a.459.459,0,0,1,.11.143C904.1-476.67,903.878-473.884,903.15-469.785Z"/><path class="h" d="M933.825-347.15c-5.81,10.113-52.727,7.8-57.891,0,0,0-19.216-45.837-15.343-59.144,0,0,11.012,1.9,23.475,5.054,13.9,3.509,29.594,8.573,33.809,14.278,4.789,6.483,11.652,15.856,15.133,24.507,0,.006,0,.006.006.011q.489,1.225.888,2.428.39,1.184.679,2.344v.017C935.552-353.694,935.5-350.063,933.825-347.15Z"/><path class="h" d="M884.066-478.7s-24.668,18.62-23.475,72.41l7.3,2.351s-2.958-53.806,21.336-75.451A4.449,4.449,0,0,0,884.066-478.7Z"/><path class="o" d="M933.014-362.444c.105.513.21,1,.309,1.468-6.008-8.453-30.9-6.533-30.9-6.533-.662-20.341-18.356-33.731-18.356-33.731,13.9,3.509,29.594,8.573,33.809,14.278,4.789,6.483,11.652,15.856,15.133,24.507C933.008-362.449,933.008-362.449,933.014-362.444Z"/><path class="o" d="M933.323-360.976a6.4,6.4,0,0,1,.579.96,6.7,6.7,0,0,1,.679,2.344v.017C934.967-353.931,934.371-356.116,933.323-360.976Z"/><path class="p" d="M855.432-368.2a106.95,106.95,0,0,1-12.811,6.213c-5.059-33.456,13.766-62.14,14.284-62.923C848.85-407.69,853.231-379.365,855.432-368.2Z"/><path class="p" d="M823.251-436.351c-4.933,3.376-3.89,5.451-5.711,19.188s-10.123,9.109-10.642,4.436a15.655,15.655,0,0,1,.822-6.576,15.619,15.619,0,0,1,.96-2.29.016.016,0,0,0,.006-.011c0-.006.005-.011.005-.022A93.38,93.38,0,0,1,831.626-454.4C834.958-451.556,827.648-439.358,823.251-436.351Z"/><path class="q" d="M875.5-381.614c-1.154-.82-2.12-1.86-3.108-2.7l1.177,1.012a5.716,5.716,0,0,1-1.364-1.784c.395-.06.587.479.975.261a19.267,19.267,0,0,1,3.226,4.661C875.208-380.005,875.882-381.271,875.5-381.614Z"/><path class="q" d="M871.018-386.913c.147.125.287.251.422.378A1.09,1.09,0,0,1,871.018-386.913Z"/><path class="q" d="M886.553-374.729a2.786,2.786,0,0,1,.465.477A2,2,0,0,1,886.553-374.729Z"/><path class="q" d="M878.9-381.461a1.73,1.73,0,0,1,.37.125q.772,1.063,1.475,2.216C880.193-379.926,879.19-380.406,878.9-381.461Z"/><path class="q" d="M878.906-382.769a5.5,5.5,0,0,1-1.452-2.3A10.01,10.01,0,0,0,878.906-382.769Z"/><path class="q" d="M894.451-370.97a.362.362,0,0,1,.2-.043.27.27,0,0,0,.129.031c.074.423.125.856.177,1.281-.08-.078-.262-.105-.308-.2C894.586-370.364,894.911-370.619,894.451-370.97Z"/><path class="q" d="M886.39-374.914l-.049.006-.179-.148.006-.037A1.037,1.037,0,0,1,886.39-374.914Z"/><path class="q" d="M894.27-371.467a2.079,2.079,0,0,0,.375-.235l.134.715a.618.618,0,0,0-.128-.026C894.485-371.108,894.527-371.4,894.27-371.467Z"/><path class="q" d="M892.8-376.752c-.089-.121-.431-.06-.536-.075a5.481,5.481,0,0,0-.209-1.326c-.107-.013-.2-.131-.413-.154a2.068,2.068,0,0,0,.125-.409q.4.63.774,1.311c.252.446.491.918.717,1.411A4.637,4.637,0,0,1,892.8-376.752Z"/><path class="q" d="M894.237-352.987a10,10,0,0,1,.329-1.973,2.466,2.466,0,0,0-.285-1.968c-.5,1.43-.925,3.327-2.333,3.306-.7-.007-.667-.436-.467-1a5.933,5.933,0,0,0,.493-1.8l-.3.261c.149-.128.3-.261.136-.382-.3.264-.571.764-1.047.878l-.315-.239a4.541,4.541,0,0,0-1.233,1.115,3.271,3.271,0,0,1-1.288.963,4.947,4.947,0,0,0,2.323-4.967,18.582,18.582,0,0,0-1.736-5.655,10.34,10.34,0,0,0-5.113-4.032,3.624,3.624,0,0,1-.822-1.461,9.008,9.008,0,0,0-2.523-1.95c-1.748-1.346-2.506-3.46-4.28-5.152-.354-.329.172-1.751,1.3-1.122a6.65,6.65,0,0,1,2.492,1.857c-.405.186-.516-.348-.911-.308a5.332,5.332,0,0,0,1.082,1.8c-.323-.353-.659-.7-1-1.047.852.866,1.618,1.932,2.58,2.826.317.367-.578,1.48.6,1.461a13.853,13.853,0,0,0-2.354-4.729l.03-.013c-.553-.577-1-1.157-1.529-1.727.206.141.433.272.515.482a11.282,11.282,0,0,0-1.908-2.878,10.386,10.386,0,0,1,3.979,3.153c1.093,1.3,2.025,2.694,3.151,3.847.075-1.159-1.468-1.514-1.256-2.673A19.8,19.8,0,0,1,884.9-372.3a1.768,1.768,0,0,0-.335-.175,2.752,2.752,0,0,0,.54,1.327,6.154,6.154,0,0,1,.738,1.186l.081.234a2.41,2.41,0,0,0-.081-.234,21.148,21.148,0,0,0-.943-2.338,1.98,1.98,0,0,1,.735,1.028,2.124,2.124,0,0,0-.063-1.154l-.756-1.3a6.693,6.693,0,0,0,1.708,1.565,17.186,17.186,0,0,0-1.38-2.96c.379.456.771.906,1.137,1.375.425.912.838,1.822,1.24,2.743l-.08-.086.126.19q.242.535.485,1.075a2.592,2.592,0,0,0,.843.755l.082.156c-.17-.043-.315-.033-.289.19.023.979,1.035,1.63.885,2.8a1.532,1.532,0,0,0,.379.958c-.063.134.015.167.127.184l.153.222a1.7,1.7,0,0,0,.293.569,3.013,3.013,0,0,0-.293-.569c-.03-.073-.064-.145-.1-.215.126.016.276.028.321.137a18.883,18.883,0,0,0-1.475-4.277c.14.036.3.109.386.128l-.468-.284a9.444,9.444,0,0,0-.8-1.261,1.224,1.224,0,0,0,.5.2,16.935,16.935,0,0,0-2.309-3.614,33.7,33.7,0,0,0-1.911-3.592,7.273,7.273,0,0,0,.774,2.217,32.539,32.539,0,0,1-3.7-4.848,6.188,6.188,0,0,0,1.844-.122c.231-.214-.129-.793.267-.616,1.6.532,1.638,1.832,3.384,1.224.459-.2.7-2.559,1.314-2.353a10.63,10.63,0,0,1,1.689,1.486,6.749,6.749,0,0,0,.423.709c-.007.048.108.038.243.033a8.981,8.981,0,0,1,1.4,2.052l.224.556a1.072,1.072,0,0,1-.181.42,1.4,1.4,0,0,1,.43.164c.2.5.417.978.632,1.453.012.327,0,.661.029.969.094-.059.2-.171.323-.175l.8,1.768a2.019,2.019,0,0,1-.269.921c1.182.212,1.3,1.949,1.811,2.959l.033-.014c.2.534.361,1.091.523,1.654a2.04,2.04,0,0,1-.233.361c.2.086.255.23.353.276a5.672,5.672,0,0,1-.184,1.353c.1.046.441.1.485.245a4.756,4.756,0,0,0,.21.873c.05.338.075.688.1,1.041a14.062,14.062,0,0,1,0,1.778,15.221,15.221,0,0,1-.187,1.756,2.058,2.058,0,0,1-.431.09c.214.159.082.414.2.565a.338.338,0,0,0-.2-.032c.283.5-.1.621-.207,1.082.01.1.17.2.219.3-.014.051-.024.1-.041.154-.71.528-.474,1.031-.521,1.611-.228.566-.424,1.121-.687,1.661C895.04-353.344,894.566-353.239,894.237-352.987Z"/><path class="q" d="M894.976-369.546c.068.554.093,1.123.129,1.675C894.917-368.415,894.534-368.807,894.976-369.546Z"/><path class="q" d="M888.36-382.42a2.01,2.01,0,0,0,.059-.937c.8,1.053,1.624,2.106,2.411,3.237l-.028.022C890.047-380.9,889.542-382.513,888.36-382.42Z"/><path class="q" d="M894.651-371.013a.618.618,0,0,1,.128.026v.005A.27.27,0,0,1,894.651-371.013Z"/><path class="q" d="M882.229-380.4l-.069-.095q.372.264.719.554A2.046,2.046,0,0,1,882.229-380.4Z"/><path class="q" d="M880.365-383.018l-1.375-1.2a6.948,6.948,0,0,1-1.095-2.118C878.759-385.274,879.562-384.151,880.365-383.018Z"/><path class="q" d="M887.023-384.605c-.081-.286-.132-.61-.2-.911l.482.671C887.186-384.812,887.1-384.682,887.023-384.605Z"/><path class="q" d="M884.1-378.729l-.12-.136.53.173C884.417-378.69,884.246-378.726,884.1-378.729Z"/><path class="q" d="M885.65-387.266l.326.511a1.4,1.4,0,0,0-.44-.073A1.1,1.1,0,0,0,885.65-387.266Z"/><path class="q" d="M883.5-389.453a5.7,5.7,0,0,1-.487-.607c.244.189.489.392.726.6C883.61-389.434,883.5-389.4,883.5-389.453Z"/><path class="r" d="M968.18-344.709a8.476,8.476,0,0,1,.771-1.817c-.1.227-.192.454-.289.681a1.406,1.406,0,0,1,.813-.733c.215.261-.125.338.21.61a5.913,5.913,0,0,1-2.222,1.765C966.8-345.008,968.083-344.482,968.18-344.709Z"/><path class="r" d="M970.4-347.177a2.383,2.383,0,0,1-.117.237C970.29-347.042,970.308-347.137,970.4-347.177Z"/><path class="r" d="M968.575-337.56a.885.885,0,0,1-.053.323A.46.46,0,0,1,968.575-337.56Z"/><path class="r" d="M969.58-342.491a.919.919,0,0,1,.075.235c-.3.3-.633.584-.98.869C969.01-341.722,968.91-342.358,969.58-342.491Z"/><path class="r" d="M970.586-342.4a1.465,1.465,0,0,1,1.124-.771A2.5,2.5,0,0,0,970.586-342.4Z"/><path class="r" d="M971.264-332.269a.781.781,0,0,1,.161.119.388.388,0,0,0,.072.082c-.182.087-.367.173-.557.255-.016-.059-.13-.173-.113-.213C971.033-332.119,971.382-331.954,971.264-332.269Z"/><path class="r" d="M968.609-337.673l-.033-.033c0-.041,0-.082,0-.122l.029,0A.359.359,0,0,1,968.609-337.673Z"/><path class="r" d="M971.416-332.429c.135.078.272.157.386.209-.1.051-.2.1-.3.151a.926.926,0,0,0-.075-.081C971.364-332.261,971.552-332.264,971.416-332.429Z"/><path class="r" d="M973.6-333.643c.024-.057-.222-.269-.276-.335a2.457,2.457,0,0,0,.73-.145c-.054-.067-.03-.124-.141-.258a2.977,2.977,0,0,0,.344.079,8.1,8.1,0,0,1-.843.964A.73.73,0,0,1,973.6-333.643Z"/><path class="r" d="M964.651-327.525c.083-.588,1.13-.692.675-1.589-.779.258-1.385.9-2.619.259s.337-.795.53-1.249l-.318-.041c.159.02.318.041.208-.093a3.52,3.52,0,0,1-1.111-.144l-.221-.268c-1.06-.257-1.571.155-2.632-.1,3.695.36,3.645-2.283,4.416-4.1a8.513,8.513,0,0,0-1.057-4.211c-.062-.247.241-.567.5-.774a4.634,4.634,0,0,0-.023-1.92c.056-1.31,1.294-1.863,1.778-3,.1-.227,1.427.185,1.455.907a2.2,2.2,0,0,1-.224,1.632c-.335-.272.006-.348-.21-.61a1.406,1.406,0,0,0-.813.733c.1-.227.193-.453.289-.681a8.495,8.495,0,0,0-.771,1.817c-.1.228-1.379-.3-.716.507A5.9,5.9,0,0,0,966-342.222c.009.006.016.013.025.02a11.189,11.189,0,0,1,.572-.991c-.012.132-.007.278-.125.33a3.541,3.541,0,0,0,1.323-1.147c.449,2.1-1.3,3.067-1.658,4.7.841-.01.275-1.042,1.226-.919a8.34,8.34,0,0,1-1.392,1.723,1.009,1.009,0,0,0-.075-.236c-.67.134-.571.769-.905,1.1l-.1.083a.821.821,0,0,0,.1-.083c.346-.285.676-.573.98-.869a.57.57,0,0,1-.254.58,1.227,1.227,0,0,0,.73-.145c.146-.2.291-.4.454-.582a1.819,1.819,0,0,0-.06,1.232,7.163,7.163,0,0,0,1.208-1.074c-.1.267-.2.537-.3.8a13.445,13.445,0,0,0-1.048,1.032c0-.02,0-.041.005-.061-.014.034-.029.068-.042.1-.125.144-.245.291-.357.445a.945.945,0,0,0,.1.649l-.036.076c-.089-.116-.192-.208-.306-.157-.571.166-.227.929-.957,1.074-.191.038-.218.229-.221.452-.114-.008-.074.048,0,.122,0,.048,0,.1,0,.145a.468.468,0,0,0-.053.324.914.914,0,0,0,.053-.324.54.54,0,0,0,.035-.112c.085.082.189.177.167.229a9.874,9.874,0,0,0,1.283-1.753c.072.1.134.205.184.266-.052-.116-.1-.231-.148-.342a3.23,3.23,0,0,0,.234-.689,1.026,1.026,0,0,0,.2.349,6.942,6.942,0,0,0,.905-1.827c.5-.444,1-.876,1.444-1.343a2.175,2.175,0,0,0-1.148.538,4.861,4.861,0,0,1,1.6-2.4,7.385,7.385,0,0,0,.992,1.207c.27.155.524-.052.586.2.408,1.011-.5,1.01.857,2.144.38.288,2.191.527,2.365.909a2.966,2.966,0,0,1-.127,1.017,1.092,1.092,0,0,0-.245.253c-.036-.005.035.068.114.152a1.9,1.9,0,0,1-.548.87c-.077.048-.15.1-.223.148a1.7,1.7,0,0,1-.38-.106,1.138,1.138,0,0,1,.156.271,5.365,5.365,0,0,0-.507.441c-.189.022-.4.034-.565.067a1.858,1.858,0,0,1,.314.192,7.683,7.683,0,0,0-.507.615,2.036,2.036,0,0,1-.7-.084c.686.748-.173,1-.286,1.461l.031.018c-.13.189-.263.379-.4.567a2.821,2.821,0,0,1-.344-.079c.11.134.087.191.142.259a2.47,2.47,0,0,1-.731.144c.055.067.3.278.276.335a.752.752,0,0,0-.185.3c-.1.1-.206.194-.318.289a7.6,7.6,0,0,1-1.3.828c-.115-.052-.25-.13-.386-.207.135.164-.052.166.01.278a.772.772,0,0,0-.161-.118c.116.314-.231.149-.438.242-.017.04.1.154.114.214l-.07.03c-.708-.181-.617.12-.757.312q-.412.162-.83.323C965.4-327.309,964.969-327.483,964.651-327.525Z"/><path class="r" d="M970.871-331.783c-.248.107-.5.211-.757.312C970.254-331.662,970.162-331.964,970.871-331.783Z"/><path class="r" d="M974.919-336.348a2.044,2.044,0,0,0,.7.084c-.338.45-.635.923-.955,1.394l-.031-.018C974.747-335.352,975.6-335.6,974.919-336.348Z"/><path class="r" d="M971.425-332.15a.926.926,0,0,1,.075.081h0A.388.388,0,0,1,971.425-332.15Z"/><path class="r" d="M970.354-340.366l.036-.041a3.161,3.161,0,0,1-.06.446A.581.581,0,0,1,970.354-340.366Z"/><path class="r" d="M971.439-341.438c.1-.269.193-.54.295-.807a2.182,2.182,0,0,1,1.149-.537C972.439-342.315,971.933-341.884,971.439-341.438Z"/><path class="r" d="M975.811-337.071c.169-.034.376-.045.565-.068-.087.085-.17.171-.251.259A1.814,1.814,0,0,0,975.811-337.071Z"/><path class="r" d="M970.059-339.2c.013-.026.025-.051.036-.077.045.111.1.227.149.343C970.194-338.991,970.132-339.1,970.059-339.2Z"/><path class="r" d="M977.109-337.744c-.078.054-.153.109-.226.165a1.116,1.116,0,0,0-.155-.272A1.652,1.652,0,0,0,977.109-337.744Z"/><path class="r" d="M977.764-338.915a1.133,1.133,0,0,1,.245-.253c-.037.137-.081.274-.13.406C977.8-338.847,977.728-338.919,977.764-338.915Z"/><path class="p" d="M912.34-447.245s-18.65,55.675,33.1,79.32l1.051.7-.267-13.1s-24.383-34.025-24.475-34.9S912.34-447.245,912.34-447.245Z"/><path class="r" d="M914.791-474.486c-.381-.049-.557-.143-.408-.292C914.493-474.888,914.636-474.778,914.791-474.486Z"/><path class="p" d="M908.446-473.057c-.987.988-3.31,3.167-5.3,3.272a2.275,2.275,0,0,1-2.008-.927c-1.821-2.323-5.065-4.1-8.177-5.2-1-.353-1.109-.893-.794-1.462a7.563,7.563,0,0,1,2.455-2.1c4.7.16,7.867.927,8.855,1.832a.459.459,0,0,1,.11.143,19.436,19.436,0,0,0,4.1,1.39C908.507-474.861,909.053-473.664,908.446-473.057Z"/><path class="h" d="M980.246-391.056s-10.157,13.843-14.03,14.433-39.74,9.341-52.093-32.75c-5.169-17.605-4.281-32.556.519-46.972a31.314,31.314,0,0,0,1.418-10.731,27.785,27.785,0,0,0-.85-6.268,5.937,5.937,0,0,0-.419-1.142,13.506,13.506,0,0,0,2.1.033c2.074-.071,4.651-.325,4.651-.325a21.123,21.123,0,0,1,4.11,5.313c2.389,4.209,4.59,10.88,2.748,19.873C921.191-414.393,954.812-389.632,980.246-391.056Z"/><path class="k" d="M916.06-467.076c2.069-.789,6.207-2.334,9.594-2.389a21.123,21.123,0,0,0-4.11-5.313s-2.577.254-4.651.325l-1.683,1.109Z"/><path class="h" d="M908.006-480.739s5.923,3.482,8.876.827,4.771-2.894,6.069-.827,3.115,9.812-4.933,9.445-10.126,4.3-14.15-.887S901.69-482.552,908.006-480.739Z"/><path class="g" d="M915.383-505.414s-17.092,9.476-12.019-5.738C906.874-521.679,927.04-512.2,915.383-505.414Z"/><path class="g" d="M912.905-509.049s9.563,5.674,8.641,11.367c0,0,2.109-16.995-7.4-17.422s-13.19.491-12.346,18.461C901.8-496.643,904.563-510.938,912.905-509.049Z"/><path class="g" d="M911.621-513.76c-1.4,1.9-20.41-27.929,3.762-36.051,21.9-7.358,40.311,7.042,45.993,23.627,4.956,14.466,7.27,32.453-20.005,67.985-11.492,22.328-7.089,29.008-7.089,29.008s-18.434-33.847-4.4-55.557S921.877-527.73,911.621-513.76Z"/><path class="p" d="M940.562-370.358s-.7,22.672-4.592,28.149l1.119-.282s7.906-16.415,9.4-24.735Z"/><path class="s" d="M457.744-44.613S371.839,44.98,305.8-54.794l16.916-207.725,4.58-56.3s.6-34.661,37.856-38.037c21.783-1.99,36.9-2.2,59.3,6.358,15.873,6.054,28.379,15.079,32.509,27.472l-.625,107.032Z"/><path class="t" d="M435.206-312A304.9,304.9,0,0,0,319.472-226.9l4.58-56.295s.6-34.661,37.856-38.038C383.69-323.225,412.8-320.557,435.206-312Z"/><path class="u" d="M414.939-331.3l-.2,299.021S434.987-241.546,414.939-331.3Z"/><path class="u" d="M392.388-332.078l-19.4,298.391S366.5-243.836,392.388-332.078Z"/><path class="s" d="M252.018-369.965,413.41-409.94l102.621,87.859L348.1-293.411Z"/><path class="v" d="M252.018-369.965l-1.639,17.984,97.781,77.235-.064-18.664Z"/><path class="v" d="M516.031-322.081,348.1-293.411l.064,18.664,166.569-33.04Z"/><path class="e" d="M356.558-483.187v.639c.064,1.757.351,4.888.735,8.977,2.939,28.177,13.257,102.8,13.257,102.8,8.818,9.137,41.244,4.249,41.244,4.249s19.935-69.612,26.26-103.922a95.109,95.109,0,0,0,1.885-14.919,11.9,11.9,0,0,0-.192-2.364,45.374,45.374,0,0,0-3.386-9.808c-5.815-12.236-15.207-18.913-14.184-22.043,1.309-3.9,6.485-34.439,6.485-34.439l-57.792,3.9,5.175,32.489C366.973-513.728,356.558-494.241,356.558-483.187Z"/><path class="w" d="M425.437-550.115c-9.743,6.6-48.733,9.746-54.58,0S445.579-563.76,425.437-550.115Z"/><path class="x" d="M356.558-482.548c.064,1.757.351,4.888.735,8.977,18.433,2.875,57.983,7.955,80.761,3.131a95.109,95.109,0,0,0,1.885-14.919,11.9,11.9,0,0,0-.192-2.364,45.374,45.374,0,0,0-3.386-9.808C426.777-492.324,398.376-479.513,356.558-482.548Z"/><path class="e" d="M437.066-488.9s-8.643,3.094-9.817,3.735,6.616,8.11,7.043,8.963S437.066-488.9,437.066-488.9Z"/><path class="e" d="M422.98-483.78,429.7-474.6s-10.137,1.814-12.7,1.6S422.98-483.78,422.98-483.78Z"/><path class="e" d="M417.538-482.286c-.32.32-11.311,2.134-11.311,2.134l5.229,7.576Z"/><path class="e" d="M401.532-479.939l4.162,7.363-8.644-.409Z"/><path class="e" d="M390.22-478.383l5.869-.7-3.521,5.442-3.521-4.74Z"/></g><path class="x" d="M84.206-568.772s16.9-20.512,44.658-23.023a50.177,50.177,0,0,0,39.063-24.758l2.093,74.572-85.814,7.535Z"/><path class="e" d="M1167.554-670.912s20.265-9.209,34.412,12.14-4.187,36,12.305,68.651,44.639,31.392,44.627,32.648l-.422,42.289-93.015-10.174Z"/><path class="y" d="M126.765-645.332a78.388,78.388,0,0,0-8.278,29.352,81.682,81.682,0,0,0,21.576,61.971"/><path class="w" d="M119.788-656.921c.78-4.388,3.758-7.463,7.345-7.712,4.376-.3,7.529,3.766,8.3,4.842a14.278,14.278,0,0,1,2.48,9.014l-11.7,5.2Q123.033-651.191,119.788-656.921Z"/><path class="g" d="M127.706-648.052a22.968,22.968,0,0,1,10.7-4.746c1.951-.294,11.917-1.793,16.683,5.223,1.823,2.684,3.653,7.713,1.784,11.145a6,6,0,0,1-6.58,2.847c-3.45-.759-5.394-5.6-6.539-8.269-1.3-3.028-.822-3.547-1.812-4.551-3.09-3.135-9.953-.3-13.336,1.73a21.722,21.722,0,0,0-2.315,1.6c-4.915-11.362-8.513-13.793-10.916-13.856-1.135-.03-1.417.483-6.748,2.7-4.212,1.747-6.379,2.63-7.87,2.448-3.8-.462-8.336-4.23-8.888-8.463-.659-5.058,4.571-9.062,8.434-9.948C108.207-672.011,119.133-662.884,127.706-648.052Z"/><path class="z" d="M121.942-670.815a50.2,50.2,0,0,1,2.412,7.8"/><path class="z" d="M128.4-673.383q-.06,5.09.058,10.2"/><path class="z" d="M134.9-671.583a99.916,99.916,0,0,0-2.593,10.472"/><path class="z" d="M141.331-666.823q-2.791,4.689-5.709,9.407"/><path class="z" d="M142.181-668.05a.592.592,0,0,0-.355-.732.464.464,0,0,0-.525.5.793.793,0,0,0,.487.718.521.521,0,0,0,.684-.431c.047-.341-.25-.745-.549-.715s-.445.391-.691.563"/><path class="z" d="M135.569-672.956a.266.266,0,0,0-.3-.226.465.465,0,0,0-.278.248.763.763,0,0,0-.091.712.459.459,0,0,0,.648.2.777.777,0,0,0,.255-.708c-.018-.227-.142-.5-.341-.525-.093-.01-.178.041-.271.036-.145-.008-.293-.151-.43-.113s-.169.2-.195.347a1.979,1.979,0,0,0-.04.733.715.715,0,0,0,.426.568c.27.077.492-.161.63-.405"/><path class="z" d="M128.736-674.951c.029-.051-.022-.132-.08-.149a.222.222,0,0,0-.162.034l-.489.244a.459.459,0,0,0-.259.234.653.653,0,0,0,.049.412c.129.364.336.764.668.867a.62.62,0,0,0,.622-.191,1.11,1.11,0,0,0,.261-1.007,1.067,1.067,0,0,0-.721-.8.29.29,0,0,0-.187.008.323.323,0,0,0-.127.145,1.748,1.748,0,0,0-.2.912c.011.216.115.5.307.51a.271.271,0,0,0,.222-.125.839.839,0,0,0,.139-.673.589.589,0,0,0-.323.478"/><path class="z" d="M121.654-672.038c-.02-.163-.246-.145-.359-.057a.734.734,0,0,0-.326.607.679.679,0,0,0,.473.572.657.657,0,0,0,.64-.189,1.014,1.014,0,0,0,.27-.726.644.644,0,0,0-.183-.475.494.494,0,0,0-.345-.1.7.7,0,0,0-.6.355.748.748,0,0,0,.069.774.337.337,0,0,0,.349.157"/><path class="e" d="M119.513-625.739a23.467,23.467,0,0,1,7.824-10.692A18.967,18.967,0,0,1,141.218-640a22.777,22.777,0,0,1-7.72,10.421A20.8,20.8,0,0,1,119.513-625.739Z"/><path class="e" d="M119.411-595.862a18.5,18.5,0,0,1,5.579-8.022,14.665,14.665,0,0,1,10.051-3.364,18.2,18.2,0,0,1-5.614,7.92A15.769,15.769,0,0,1,119.411-595.862Z"/><path class="aa" d="M145.113-607.593"/><path class="x" d="M118-613.472a29.064,29.064,0,0,1,12.494-11.006,23.618,23.618,0,0,1,17.835-.479,27.4,27.4,0,0,1-11.967,10.581A26.424,26.424,0,0,1,118-613.472Z"/><path class="ab" d="M119.942-614.262l5.115-2.467c6.98-3.367,13.876-6.664,20.968-7.229"/><path class="ab" d="M125.645-615.938a13.434,13.434,0,0,1,5.826,2.2"/><path class="ab" d="M130.817-618.113l1.632.393a6.259,6.259,0,0,1,.982.294,6.57,6.57,0,0,1,1.1.648l2.624,1.785"/><path class="ab" d="M135.408-620.13a7.917,7.917,0,0,1,4.735,2.631"/><path class="ab" d="M139.39-621.527a4.667,4.667,0,0,1,2.707,1.083"/><path class="x" d="M116.965-613.761a34.657,34.657,0,0,0-6.347-16.982,34.6,34.6,0,0,0-18.241-12.732,36.679,36.679,0,0,0,7.441,18.332A31.739,31.739,0,0,0,116.965-613.761Z"/><path class="ab" d="M115.6-615.49l-3.523-5.033c-5.052-7.218-10.359-14.75-17.659-20.283"/><path class="ab" d="M111.157-620.15c-2.013-1.121-4.375-1.272-6.679-1.4"/><path class="ab" d="M107.254-625.178l-1.795-.641a7.591,7.591,0,0,0-1.124-.337,7.486,7.486,0,0,0-1.427-.085l-3.6.016"/><path class="ab" d="M103.685-629.91a9.464,9.464,0,0,0-6.258-.631"/><path class="ab" d="M100.293-633.838a6.09,6.09,0,0,0-3.434-.824"/><path class="ac" d="M84.521-720.424l93.452,26.53L177.3-538.505,84.51-527.939Z"/><path class="e" d="M165.525-691.919l12.448-1.975-93.452-26.53.041,6.778Z"/><path class="ad" d="M177.973-693.894l-12.448,1.975,1.618,148.5,10.159,4.912Z"/><path class="ad" d="M167.143-543.418l-82.682,7.484.049,7.995L177.3-538.505Z"/><path d="M1187.364-575.113a1.8,1.8,0,0,0,.447-.169,5.983,5.983,0,0,0,.645-.382,12.03,12.03,0,0,0,1.271-1.059,20.856,20.856,0,0,0,2.273-2.616,42.959,42.959,0,0,0,3.7-6.071c.556-1.057,1.045-2.152,1.551-3.238.477-1.111.918-2.188,1.45-3.351a25.177,25.177,0,0,1,4.219-6.106,58.192,58.192,0,0,1,11.418-9.108l6.128-3.907c1.008-.666,2.007-1.349,2.951-2.1a8.094,8.094,0,0,0,2.39-2.679,8.17,8.17,0,0,1-2.3,2.783c-.921.793-1.9,1.516-2.885,2.222l-5.977,4.133a57.393,57.393,0,0,0-10.907,9.376,24.006,24.006,0,0,0-3.8,5.95c-.438,1.056-.873,2.238-1.31,3.37-.475,1.128-.933,2.264-1.463,3.372a44.608,44.608,0,0,1-3.617,6.466,22.749,22.749,0,0,1-2.382,2.951,13.868,13.868,0,0,1-1.471,1.319,8.058,8.058,0,0,1-.9.576,3.477,3.477,0,0,1-1.255.435Z"/><path d="M1224.748-599.269a6.7,6.7,0,0,0-1.108-1.718,8.02,8.02,0,0,0-1.647-1.437,9.775,9.775,0,0,0-4.247-1.494,16.752,16.752,0,0,0-4.718.144c-.779.178-1.571.327-2.35.53l-2.314.728,2.227-.985c.759-.292,1.54-.532,2.316-.8a17.5,17.5,0,0,1,4.914-.7,11.125,11.125,0,0,1,4.989,1.167,9.829,9.829,0,0,1,2.185,1.514,8.547,8.547,0,0,1,1.744,2.181Z"/><path d="M1214.271-606.843a19.323,19.323,0,0,0-2.414-6.084,15.414,15.414,0,0,0-1.921-2.553,14.182,14.182,0,0,0-2.349-2.038l1.368-1.686a16.03,16.03,0,0,1,2.267,2.724,16.776,16.776,0,0,1,1.606,3.067A19.844,19.844,0,0,1,1214.271-606.843Z"/><path class="s" d="M1209.381-616.042c-.341.544-7.342,5.2-9.8,1.51-2.576-3.866-.613-8.957-3.265-7.317-2.556,1.58-4.988,2.97-3.585,1.188,1.452-1.846,1.595-.312,1.247-2.009-.356-1.738.8-2.109.8-2.109l.58-2.154,1.643-2.132.74-.68.209-1.562a.215.215,0,0,1,.271-.178h0c1.051.3,1.693.514,2.336-.37.247-.341.458-.6.531-.594h0a1.058,1.058,0,0,1,.563,1.845c-1.716,1.481-2.319,1.789-1.315,3.011,1.573,1.916,4.39-.341,8.018,1.342C1211.952-624.581,1212.955-621.736,1209.381-616.042Z"/><path class="s" d="M1223.047-616.134c-2.068-1.674-8.432-2.74-5.1-6.658s5.616-3.875,5.225-5.9-3.2-2.934-2.866-1.593-1.856,2.431-1.549.582a3.049,3.049,0,0,1,4.174-2.162c1.644.779.639,2.457,2.623,1.612a4.722,4.722,0,0,1,3.4-.275s-.08,1.831,1.224,1.042,1.152.135,2.511.025,3.835,2.3,3.08,4.247c0,0-3.233-3.323-3.313-1.492s1.517,4.667.812,7.233S1228.172-611.987,1223.047-616.134Z"/><path class="s" d="M1225.218-600.5c2.483-.954,6.587-5.933,8.315-1.088s.549,6.8,2.495,7.472,4.141-1.306,2.812-1.685-1.178-2.823.271-1.633a3.051,3.051,0,0,1-.214,4.7c-1.5,1.034-2.448-.675-2.708,1.466a4.725,4.725,0,0,1-1.461,3.081s-1.546-.984-1.514.54-.693.93-1.277,2.162-3.906,2.173-5.218.545c0,0,4.494-1.14,2.948-2.124s-4.8-1.019-6.67-2.912S1219.064-598.137,1225.218-600.5Z"/><path class="e" d="M1170.485-696.047l-14.237-4.107,104.232-16.014-.07,7.01Z"/><path class="ad" d="M1156.248-700.154l14.237,4.107-1.535,170.688-12.7,3.717Z"/><path class="ad" d="M1168.95-525.358l89.526,10.174-.079,7.947-102.149-14.4Z"/><path class="ae" d="M1260.48-716.167l-104.232,16.014v178.512l102.149,14.4Z"/></g></svg>