<svg xmlns="http://www.w3.org/2000/svg" width="249" height="196.993" viewBox="0 0 249 196.993"><g transform="translate(-756.565 -349.348)"><path d="M834.711,388.947c1.8-2.372,3.613-4.742,5.545-7,24.95-29.1,72.428-40.8,107.911-26.525,27.844,11.206,53.358,37.607,54.329,68.9.57,18.388,5.067,30.005,2.016,47.89-3.559,20.87-37.827,67.228-83.624,58.373-38.882-7.519-51.442,14.3-91.023,15.611-25.856.859-56.726-1.362-65.914-29.057-4.671-14.083-9.376-27.806-6.515-42.22,4.6-23.16,16.941-48.071,39-58.474,9-4.246,18.668-7.538,26.3-13.93C827.376,398.629,831.034,393.784,834.711,388.947Z" fill="#d9d5c8"/><g transform="translate(872.636 402.552)"><path d="M1056.5,504.877l-.083.3c-.15.549-.31,1.089-.486,1.625a43.472,43.472,0,0,1-8.116,14.577c-.4.482-.8.948-1.222,1.411a52.741,52.741,0,0,1-12.972,10.4c-.341.2-.685.39-1.028.577l-1.213.632.012-.012a52.07,52.07,0,0,1-17.518,5.451c-.332.037-.663.075-.993.108-.295.03-.582.056-.869.077-.088.005-.179.015-.268.02-.286.021-.571.036-.85.054-.315.019-.623.034-.935.042-.713.021-1.428.029-2.135.011q-.935-.01-1.856-.07c-.091-.007-.179-.008-.269-.021-.322-.018-.641-.047-.961-.077a.062.062,0,0,1-.034,0c-.359-.034-.711-.072-1.066-.117-.312-.033-.627-.078-.936-.122-.118-.015-.235-.036-.353-.056-.18-.026-.363-.059-.542-.09-.163-.021-.324-.053-.485-.086-.306-.055-.606-.114-.909-.179q-.531-.11-1.057-.237c-.345-.083-.683-.17-1.026-.264-.212-.058-.429-.118-.639-.181a54.2,54.2,0,0,1-9.227-3.632C967.8,524.6,958.094,502.308,964.6,478.57c.115-.419.233-.83.359-1.246.108-.35.214-.7.327-1.044.076-.236.154-.477.241-.71.07-.215.14-.424.221-.635.113-.325.229-.644.351-.961.1-.275.207-.545.316-.813s.212-.52.323-.776c.13-.326.273-.656.42-.977.156-.354.317-.708.488-1.057a1.3,1.3,0,0,1,.066-.134c.118-.26.246-.517.374-.768.073-.138.142-.283.215-.42.115-.231.237-.461.362-.683.126-.246.264-.495.4-.737s.285-.506.43-.759c.188-.322.379-.638.572-.958s.394-.628.595-.936.427-.642.637-.959a45.482,45.482,0,0,1,12.693-12.411c11.755-7.686,27.006-9.986,42.156-5.568,19.563,5.706,31.716,22.433,32.323,42.53l0,.016,0,0A56.364,56.364,0,0,1,1056.5,504.877Z" transform="translate(-962.595 -443.787)" fill="#fff" stroke="#fff" stroke-miterlimit="10" stroke-width="0.448"/><path d="M1013.878,554.149c-.332.037-.663.075-.993.108-.295.03-.582.056-.869.077-.088.005-.179.015-.268.02-.286.021-.571.036-.85.054-.315.019-.623.034-.935.042-.713.021-1.428.029-2.135.011q-.935-.01-1.856-.07c-.091-.007-.179-.008-.269-.021-.322-.018-.641-.047-.961-.077a.062.062,0,0,1-.034,0c-.359-.034-.711-.072-1.066-.117-.312-.033-.627-.078-.936-.122-.118-.015-.235-.035-.353-.056-.18-.026-.363-.059-.542-.09-.163-.021-.324-.053-.485-.086-.306-.055-.606-.114-.909-.179q-.531-.11-1.057-.237c-.345-.083-.683-.17-1.026-.264-.212-.058-.429-.118-.639-.181a54.2,54.2,0,0,1-9.227-3.632C967.8,538.9,958.094,516.614,964.6,492.876c.115-.419.233-.83.359-1.246.108-.35.214-.7.327-1.044.076-.236.154-.477.241-.71.07-.215.14-.424.221-.635.113-.325.229-.644.351-.961.1-.275.207-.545.316-.813s.212-.52.323-.776c.13-.326.273-.656.42-.977.156-.354.317-.708.488-1.057a1.3,1.3,0,0,1,.066-.134c.123-.259.246-.517.374-.768.073-.138.142-.283.215-.42.115-.231.237-.461.362-.683.126-.246.264-.495.4-.737s.285-.506.43-.759c.188-.322.379-.638.572-.958s.394-.628.595-.936.427-.642.637-.959q.62-.89,1.268-1.749a54.752,54.752,0,0,0-5.191,11.872c-.153.5-.3.994-.432,1.493-.042.153-.085.31-.121.464a54.99,54.99,0,0,0-1.83,15.766l0,.005c0,.217.015.437.025.655.03.785.084,1.571.15,2.354.021.222.042.444.064.66A52.359,52.359,0,0,0,968.7,524.14c.085.222.176.446.266.669q.388.92.8,1.819c.091.2.182.4.281.6l.006,0a48.9,48.9,0,0,0,9.274,13.293c.451.462.913.91,1.383,1.349a45.416,45.416,0,0,0,33.167,12.28Z" transform="translate(-962.595 -458.093)" fill="#d0cbcf"/><circle cx="35.39" cy="35.39" r="35.39" transform="translate(13.595 11.968)" fill="#ecedef"/><path d="M1015.866,534.746a35.389,35.389,0,0,1-4.881-66.534,35.39,35.39,0,1,0,25.355,66A35.221,35.221,0,0,1,1015.866,534.746Z" transform="translate(-973.125 -454.452)" fill="#b3aeb2"/><path d="M1039.06,468.468a35.389,35.389,0,0,1,12.074,62.3,35.389,35.389,0,1,0-39.615-58.523A35.288,35.288,0,0,1,1039.06,468.468Z" transform="translate(-983.957 -453.057)" fill="#d0cbcf" opacity="0.72"/><g transform="translate(53.39 5.296)"><path d="M1068.606,460.962a22.214,22.214,0,0,0-.392-3.11c-.322-1.577-.91-3.544-1.909-3.9a1.613,1.613,0,0,0-1.483.1l-.012-.021a1.756,1.756,0,0,0-1.206-.821c-1.043-.2-2.552,1.193-3.628,2.388a21.748,21.748,0,0,0-1.932,2.491q-.354.526-.681,1.076l.139.091.161.1a5.577,5.577,0,0,1,2.649-2.166,1.917,1.917,0,0,1,2.99,1.707c0,.006-.008.01-.01.015l-.143.2.538.148-.021-.245c0-.006,0-.012,0-.018a1.917,1.917,0,0,1,3.443.055,5.579,5.579,0,0,1,1.176,3.214h.188l.165-.007Q1068.641,461.6,1068.606,460.962Zm-1.224-2.14a3.024,3.024,0,0,0-1.459-1.159,1.459,1.459,0,0,0-.261-.048,1.783,1.783,0,0,1-3.374-.924,2.7,2.7,0,0,0-2.095.162,5.456,5.456,0,0,0-1.42.791,21.226,21.226,0,0,1,1.461-1.814c1.941-2.161,2.9-2.353,3.305-2.278a1.434,1.434,0,0,1,.964.638l.15.5.378-.358a1.281,1.281,0,0,1,1.154-.052c.382.14,1.114.8,1.683,3.644a20.17,20.17,0,0,1,.332,2.305A5.448,5.448,0,0,0,1067.382,458.822Z" transform="translate(-1057.364 -453.188)" fill="#d9be61"/></g><g transform="translate(53.373 2.091)"><path d="M1068.617,459.815l-.335-.1c1.181-3.962.827-8.983-2.567-11.445-4.175.389-7.039,4.528-8.042,8.54l-.339-.085c1-4,3.817-8.129,7.941-8.753l-.715-.473,2.541.7-.857.043C1069.475,450.875,1069.8,455.862,1068.617,459.815Z" transform="translate(-1057.334 -447.499)" fill="#d9be61"/></g><g transform="translate(67.204 12.677)"><path d="M1092.387,472.582c.322-1.582.541-3.619-.242-4.342a1.631,1.631,0,0,0-1.4-.483v-.018a1.781,1.781,0,0,0-.792-1.227c-.89-.589-2.82.1-4.276.791a21.931,21.931,0,0,0-2.748,1.543q-.526.356-1.041.731l.091.136.11.153a5.6,5.6,0,0,1,3.286-.97,1.915,1.915,0,0,1,2.09,2.734c0,.005-.007,0-.014.008l-.207.136.438.342.076-.236,0-.016a2.441,2.441,0,0,1,2.2-.192,2.406,2.406,0,0,1,.951,1.581,5.645,5.645,0,0,1-.165,3.418l.18.067.148.058c.167-.4.324-.8.468-1.2A22.412,22.412,0,0,0,1092.387,472.582Zm-1.138.571a3.031,3.031,0,0,0-.9-1.635,1.649,1.649,0,0,0-.222-.149,1.781,1.781,0,0,1-2.749-2.161,2.718,2.718,0,0,0-2-.658,5.081,5.081,0,0,0-1.613.177,21.687,21.687,0,0,1,2.05-1.109c2.627-1.231,3.592-1.043,3.932-.815a1.424,1.424,0,0,1,.636.963l-.048.518.484-.189a1.269,1.269,0,0,1,1.082.4c.3.276.72,1.167.138,4.016a21.231,21.231,0,0,1-.587,2.252A5.394,5.394,0,0,0,1091.249,473.153Z" transform="translate(-1081.884 -466.29)" fill="#e8cd74"/></g><g transform="translate(67.169 10.302)"><path d="M1091.021,475l-.27-.221c2.627-3.194,4.248-7.959,2.076-11.545-4-1.262-8.244,1.442-10.726,4.75l-.279-.21c2.475-3.3,6.673-6.011,10.716-4.985l-.476-.714,2.073,1.628-.807-.293C1095.281,467.094,1093.642,471.814,1091.021,475Z" transform="translate(-1081.822 -462.074)" fill="#e8cd74"/></g><g transform="translate(78.113 25.012)"><path d="M1111.226,491.575a1.613,1.613,0,0,0-1.108-.987l.006-.022a1.774,1.774,0,0,0-.255-1.437c-.593-.887-2.636-1-4.249-.93a21.228,21.228,0,0,0-3.129.358c-.412.074-.828.165-1.242.268l.032.161.038.18a5.644,5.644,0,0,1,3.405.384,1.922,1.922,0,0,1,.869,3.334c-.005,0-.012,0-.018,0l-.244.038.269.488.163-.189c.006,0,.007,0,.014-.008a1.915,1.915,0,0,1,2.365,2.5,5.6,5.6,0,0,1-1.477,3.088l.134.13.115.114c.3-.3.6-.6.887-.914a21.71,21.71,0,0,0,1.96-2.465C1110.674,494.339,1111.661,492.547,1111.226,491.575Zm-1.751,3.9a21.944,21.944,0,0,1-1.417,1.849,5.413,5.413,0,0,0,.429-1.564,2.992,2.992,0,0,0-.187-1.856,1.983,1.983,0,0,0-.149-.222,1.78,1.78,0,0,1-1.692-3.057,2.746,2.746,0,0,0-1.583-1.386,5.264,5.264,0,0,0-1.556-.461,20.651,20.651,0,0,1,2.316-.225c2.9-.117,3.713.433,3.942.771a1.464,1.464,0,0,1,.214,1.139l-.247.452.52.02a1.271,1.271,0,0,1,.842.785C1111.074,492.088,1111.113,493.075,1109.475,495.47Z" transform="translate(-1101.249 -488.184)" fill="#e8cd74"/></g><g transform="translate(78.065 23.697)"><path d="M1106.837,498.056l-.163-.309c3.66-1.923,7-5.686,6.394-9.834-3.2-2.715-8.158-1.871-11.728.215l-.176-.3c3.562-2.082,8.483-2.95,11.811-.436l-.162-.842,1.278,2.3-.629-.584C1113.832,492.423,1110.489,496.137,1106.837,498.056Z" transform="translate(-1101.164 -485.851)" fill="#e8cd74"/></g><g transform="translate(84.338 38.813)"><path d="M1120.492,519.09a1.613,1.613,0,0,0-.637-1.343l.017-.019a1.753,1.753,0,0,0,.319-1.42c-.2-1.047-2.043-1.944-3.555-2.5a21.426,21.426,0,0,0-3-.88c-.417-.1-.846-.174-1.27-.243l-.03.15-.036.195a5.673,5.673,0,0,1,2.989,1.671,1.922,1.922,0,0,1-.491,3.411l-.016,0-.24-.06.059.553.223-.108c.006,0,.007,0,.014-.008a1.923,1.923,0,0,1,1.212,3.229,5.653,5.653,0,0,1-2.562,2.271l.07.171.065.146c.4-.154.789-.322,1.177-.5a20.727,20.727,0,0,0,2.76-1.5C1118.913,521.42,1120.521,520.155,1120.492,519.09ZM1117.369,522a21.807,21.807,0,0,1-2.026,1.15,5.355,5.355,0,0,0,1.008-1.272,3.036,3.036,0,0,0,.542-1.785,1.556,1.556,0,0,0-.045-.264,1.781,1.781,0,0,1-.38-3.474,2.718,2.718,0,0,0-.918-1.893,5.339,5.339,0,0,0-1.255-1.028,21.353,21.353,0,0,1,2.224.691c2.717,1.019,3.256,1.844,3.333,2.245a1.438,1.438,0,0,1-.244,1.125l-.41.326.477.219a1.283,1.283,0,0,1,.472,1.052C1120.156,519.506,1119.8,520.426,1117.369,522Z" transform="translate(-1112.299 -512.681)" fill="#e8cd74"/></g><g transform="translate(84.355 38.687)"><path d="M1113.586,524.216l-.03-.349c4.12-.352,8.661-2.522,9.708-6.582-1.891-3.742-6.792-4.891-10.892-4.354l-.045-.346c4.09-.536,8.963.573,11.053,4.182l.178-.839.283,2.62-.354-.781C1122.219,521.738,1117.7,523.865,1113.586,524.216Z" transform="translate(-1112.328 -512.458)" fill="#e8cd74"/></g><g transform="translate(81.744 53.389)"><path d="M1116,546.116a1.752,1.752,0,0,0,.851-1.186c.221-1.043-1.127-2.581-2.3-3.686a21.2,21.2,0,0,0-2.436-1.982c-.348-.247-.7-.479-1.068-.707l-.089.134-.1.153a5.638,5.638,0,0,1,2.1,2.7,1.924,1.924,0,0,1-1.779,2.953.02.02,0,0,0-.015-.01l-.2-.148-.156.53.242-.01a.02.02,0,0,1,.018,0,1.916,1.916,0,0,1-.136,3.438,5.634,5.634,0,0,1-3.24,1.1v.344c.423.011.85.011,1.268,0a21.575,21.575,0,0,0,3.142-.319c1.583-.279,3.559-.818,3.949-1.815a1.605,1.605,0,0,0-.068-1.479Zm-.276,1.367c-.145.381-.825,1.094-3.685,1.6a20.776,20.776,0,0,1-2.313.278,5.264,5.264,0,0,0,1.424-.784,3.018,3.018,0,0,0,1.192-1.432,2.1,2.1,0,0,0,.059-.259,1.78,1.78,0,0,1,1-3.348,2.722,2.722,0,0,0-.113-2.1,5.326,5.326,0,0,0-.758-1.434,20.084,20.084,0,0,1,1.778,1.5c2.112,1.992,2.286,2.957,2.2,3.361a1.41,1.41,0,0,1-.666.939l-.5.144.355.389A1.259,1.259,0,0,1,1115.726,547.483Z" transform="translate(-1107.694 -538.555)" fill="#e8cd74"/></g><g transform="translate(81.697 53.367)"><path d="M1107.61,549.723l.107-.333c3.934,1.274,8.962,1.037,11.5-2.3-.291-4.183-4.362-7.143-8.349-8.239l.093-.337c3.978,1.093,8.038,4.007,8.564,8.144l.49-.7-.755,2.524-.022-.857C1116.527,550.79,1111.535,550.994,1107.61,549.723Z" transform="translate(-1107.61 -538.516)" fill="#e8cd74"/></g><g transform="translate(72.647 67.085)"><path d="M1101.166,566.707a21.648,21.648,0,0,0-1.479-2.771c-.221-.365-.462-.722-.711-1.071l-.129.087-.158.109a5.618,5.618,0,0,1,.888,3.3,2.386,2.386,0,0,1-.6,1.747,2.415,2.415,0,0,1-2.186.283c0-.007,0-.012-.008-.014l-.127-.216-.351.43.233.087.016,0a1.917,1.917,0,0,1-1.461,3.116,5.6,5.6,0,0,1-3.415-.241l-.071.174-.064.146c.384.175.777.341,1.168.49a21.9,21.9,0,0,0,3.018.926c1.573.355,3.6.625,4.344-.142a1.593,1.593,0,0,0,.509-1.39l.025-.005a1.746,1.746,0,0,0,1.243-.764C1102.461,570.122,1101.813,568.181,1101.166,566.707Zm.4,4.095a1.42,1.42,0,0,1-.979.608l-.515-.06.175.492a1.27,1.27,0,0,1-.422,1.07c-.285.3-1.186.686-4.019.044a21.46,21.46,0,0,1-2.237-.642,5.37,5.37,0,0,0,1.613-.172,3,3,0,0,0,1.653-.855,1.223,1.223,0,0,0,.154-.221,2.535,2.535,0,0,0,.006-2.258,2.572,2.572,0,0,0,2.223-.437,2.722,2.722,0,0,0,.706-1.98,5.173,5.173,0,0,0-.14-1.621,21.5,21.5,0,0,1,1.055,2.077C1102.017,569.5,1101.8,570.462,1101.569,570.8Z" transform="translate(-1091.547 -562.865)" fill="#e8cd74"/></g><g transform="translate(72.604 67.049)"><path d="M1091.47,571.829l.228-.265c3.131,2.7,7.857,4.434,11.493,2.346,1.355-3.968-1.248-8.276-4.5-10.834l.216-.274c3.242,2.552,5.852,6.812,4.732,10.83l.725-.459-1.676,2.034.312-.8C1099.274,576.273,1094.593,574.524,1091.47,571.829Z" transform="translate(-1091.47 -562.802)" fill="#e8cd74"/></g><g transform="translate(59.79 77.762)"><path d="M1079.6,586.208a21.212,21.212,0,0,0-.284-3.139c-.068-.415-.151-.835-.242-1.252l-.148.03-.191.035a5.646,5.646,0,0,1-.463,3.395,2.44,2.44,0,0,1-1.224,1.376,2.414,2.414,0,0,1-2.129-.589.018.018,0,0,0,0-.012l-.037-.25-.492.263.182.167c.006,0,.01.008.015.01a1.92,1.92,0,0,1-2.559,2.307,5.629,5.629,0,0,1-3.051-1.549l-.136.132-.112.11c.293.314.589.623.9.918a21.275,21.275,0,0,0,2.411,2.009c1.307.943,3.074,1.976,4.06,1.556a1.6,1.6,0,0,0,1.01-1.085l.022.006a1.752,1.752,0,0,0,1.444-.218C1079.468,589.859,1079.624,587.816,1079.6,586.208Zm-1.215,3.926a1.434,1.434,0,0,1-1.137.185l-.449-.257-.032.523a1.278,1.278,0,0,1-.81.824c-.377.16-1.356.172-3.719-1.521a22.227,22.227,0,0,1-1.813-1.46,5.343,5.343,0,0,0,1.553.472,3.02,3.02,0,0,0,1.864-.15,1.511,1.511,0,0,0,.226-.143,1.782,1.782,0,0,1,3.1-1.622,2.735,2.735,0,0,0,1.423-1.55,5.31,5.31,0,0,0,.494-1.546,19.855,19.855,0,0,1,.17,2.324C1079.3,589.117,1078.727,589.918,1078.382,590.133Z" transform="translate(-1068.724 -581.817)" fill="#d9be61"/></g><g transform="translate(59.76 77.716)"><path d="M1068.671,587.168l.313-.156c1.837,3.7,5.52,7.136,9.681,6.622,2.789-3.131,2.062-8.112.06-11.73l.306-.169c2,3.61,2.75,8.55.158,11.817l.846-.141-2.333,1.224.6-.615C1074.139,594.293,1070.5,590.864,1068.671,587.168Z" transform="translate(-1068.671 -581.736)" fill="#d9be61"/></g><g transform="translate(45.19 83.674)"><path d="M1054.452,592.381l-.155-.03-.188-.04a5.6,5.6,0,0,1-1.742,2.946,2.4,2.4,0,0,1-1.66.8,2.426,2.426,0,0,1-1.736-1.363l.072-.261-.555.046.1.226c0,.007,0,.012.006.019a1.92,1.92,0,0,1-3.253,1.13,5.619,5.619,0,0,1-2.21-2.615l-.178.074-.145.06c.143.4.3.795.471,1.18a22,22,0,0,0,1.441,2.8c.845,1.371,2.073,3.01,3.136,3.009a1.624,1.624,0,0,0,1.357-.6l.015.01a1.758,1.758,0,0,0,1.415.358c1.054-.179,1.989-2,2.587-3.5a20.2,20.2,0,0,0,.953-3.01C1054.289,593.213,1054.373,592.8,1054.452,592.381Zm-1.542,4.117c-1.085,2.7-1.92,3.212-2.324,3.283a1.439,1.439,0,0,1-1.118-.271l-.318-.414-.228.469a1.273,1.273,0,0,1-1.062.445c-.409,0-1.319-.367-2.837-2.845a19.924,19.924,0,0,1-1.109-2.05,5.43,5.43,0,0,0,1.252,1.038,2.966,2.966,0,0,0,1.768.584,1.529,1.529,0,0,0,.268-.038,2.574,2.574,0,0,0,1.619-1.584,2.543,2.543,0,0,0,1.861,1.287,2.706,2.706,0,0,0,1.912-.878,5.335,5.335,0,0,0,1.061-1.228A22.8,22.8,0,0,1,1052.91,596.5Z" transform="translate(-1042.809 -592.311)" fill="#d9be61"/></g><g transform="translate(45.178 83.696)"><path d="M1042.788,593.335l.349-.022c.256,4.127,2.319,8.719,6.353,9.861,3.785-1.8,5.048-6.675,4.607-10.787l.348-.037c.44,4.1-.784,8.947-4.44,10.953l.835.2-2.626.222.79-.335C1045.062,602.024,1043.043,597.453,1042.788,593.335Z" transform="translate(-1042.788 -592.35)" fill="#d9be61"/></g><g transform="translate(31.11 80.485)"><path d="M1028.824,590.173l-.156-.113a5.621,5.621,0,0,1-2.75,2.044,1.919,1.919,0,0,1-2.905-1.847c0-.006.008-.009.01-.015l.152-.192-.531-.175.009.248c0,.005,0,.012,0,.017a2.411,2.411,0,0,1-2,.937,2.151,2.151,0,0,1-1.313-.985c-.043-.053-.086-.112-.128-.169a5.622,5.622,0,0,1-1.022-3.265l-.185,0-.163,0c-.023.426-.03.856-.025,1.284a21.194,21.194,0,0,0,.242,3.127c.028.177.055.354.087.537.269,1.47.766,3.09,1.635,3.456a1.62,1.62,0,0,0,1.488-.037l.006.02a1.784,1.784,0,0,0,1.167.88c1.037.243,2.607-1.073,3.739-2.218a22.137,22.137,0,0,0,2.042-2.379c.252-.346.5-.7.735-1.061Zm-2.892,3.285c-2.037,2.065-3.012,2.212-3.408,2.122a1.422,1.422,0,0,1-.927-.687l-.131-.5-.392.343a1.27,1.27,0,0,1-1.156,0c-.367-.153-1.038-.816-1.472-3.5-.015-.074-.029-.148-.039-.221a20.121,20.121,0,0,1-.223-2.322,5.332,5.332,0,0,0,.749,1.444c.06.081.119.161.183.249a2.653,2.653,0,0,0,1.222.977,2.176,2.176,0,0,0,.256.065,1.781,1.781,0,0,1,3.326,1.08,2.74,2.74,0,0,0,2.1-.066,5.386,5.386,0,0,0,1.454-.723A23.24,23.24,0,0,1,1025.932,593.458Z" transform="translate(-1017.817 -586.651)" fill="#d1b451"/></g><g transform="translate(30.304 80.435)"><path d="M1017.227,586.562l.33.115c-1.366,3.9-1.247,8.935,2.028,11.554,4.189-.193,7.243-4.193,8.433-8.154l.335.1c-1.187,3.951-4.194,7.942-8.343,8.371l.693.506-2.506-.815.858,0C1015.951,595.452,1015.863,590.456,1017.227,586.562Z" transform="translate(-1016.386 -586.562)" fill="#d1b451"/></g><g transform="translate(17.906 71.115)"><path d="M1005.064,577.529l-.107-.164a5.612,5.612,0,0,1-3.326.818,1.923,1.923,0,0,1-1.963-2.833c.007,0,.012,0,.014-.008l.22-.121-.427-.363-.086.228,0,.016a1.916,1.916,0,0,1-3.084-1.534,5.615,5.615,0,0,1,.319-3.406l-.172-.077-.145-.069c-.186.381-.358.772-.517,1.161a21.955,21.955,0,0,0-.995,2.993c-.393,1.563-.708,3.586.042,4.346a1.6,1.6,0,0,0,1.38.548v.023a1.757,1.757,0,0,0,.736,1.259c.861.633,2.813.029,4.3-.591a20.983,20.983,0,0,0,2.808-1.4c.365-.221.725-.45,1.083-.691Zm-3.945,1.9c-2.682,1.112-3.639.873-3.964.632a1.424,1.424,0,0,1-.593-.992l.076-.511-.495.162a1.289,1.289,0,0,1-1.062-.448c-.287-.3-.658-1.2.048-4.017a21.509,21.509,0,0,1,.7-2.221,5.3,5.3,0,0,0,.136,1.614,2.964,2.964,0,0,0,.814,1.678c.067.053.14.108.213.158a1.782,1.782,0,0,1,2.646,2.284,2.739,2.739,0,0,0,1.964.761,5.353,5.353,0,0,0,1.618-.106A20.48,20.48,0,0,1,1001.119,579.433Z" transform="translate(-994.378 -570.018)" fill="#ccb04f"/></g><g transform="translate(16.219 71.075)"><path d="M995.024,569.948l.259.234c-2.773,3.066-4.616,7.751-2.615,11.435,3.935,1.448,8.3-1.053,10.936-4.242l.269.223c-2.627,3.181-6.948,5.691-10.937,4.478l.442.735-1.994-1.723.791.331C990.4,577.646,992.257,573.008,995.024,569.948Z" transform="translate(-991.385 -569.948)" fill="#ccb04f"/></g><g transform="translate(8.309 58.094)"><path d="M987.24,557.226l-.03-.189a5.614,5.614,0,0,1-3.38-.54,1.918,1.918,0,0,1-.713-3.367.017.017,0,0,1,.012,0l.248-.031-.243-.5-.172.181c-.007,0-.008.009-.015.013a1.92,1.92,0,0,1-2.246-2.612,5.636,5.636,0,0,1,1.62-3.015l-.131-.141-.108-.117c-.317.281-.622.565-.914.865l-.014.008a23.033,23.033,0,0,0-2.074,2.37c-.966,1.289-2.046,3.032-1.651,4.022a1.611,1.611,0,0,0,1.059,1.038l-.006.021a1.748,1.748,0,0,0,.188,1.448c.551.91,2.586,1.117,4.2,1.127a22.35,22.35,0,0,0,3.13-.212c.425-.059.846-.125,1.266-.208Zm-4.368.229c-2.9-.019-3.695-.609-3.9-.958a1.428,1.428,0,0,1-.161-1.142l.269-.446-.52-.043a1.257,1.257,0,0,1-.8-.821c-.153-.381-.146-1.366,1.605-3.684a20.36,20.36,0,0,1,1.5-1.779,5.463,5.463,0,0,0-.51,1.542,3.027,3.027,0,0,0,.1,1.857,1.89,1.89,0,0,0,.136.23,1.785,1.785,0,0,1,1.553,3.136,2.725,2.725,0,0,0,1.516,1.461,5.374,5.374,0,0,0,1.531.53A19.857,19.857,0,0,1,982.872,557.456Z" transform="translate(-977.345 -546.906)" fill="#c4a94c"/></g><g transform="translate(5.413 58.069)"><path d="M979.88,546.862l.148.317c-3.746,1.75-7.263,5.351-6.848,9.524,3.065,2.861,8.061,2.251,11.725.335l.162.31c-3.656,1.912-8.612,2.549-11.818-.118l.122.85-1.168-2.362.6.612C972.629,552.161,976.142,548.608,979.88,546.862Z" transform="translate(-972.203 -546.862)" fill="#c4a94c"/></g><g transform="translate(4.739 43.467)"><path d="M978.867,532.45l.045-.186a5.6,5.6,0,0,1-2.91-1.808,1.922,1.922,0,0,1,.652-3.384l.016,0,.238.071-.034-.558-.226.1c-.006,0-.007,0-.014.008-.377-.139-1.408-.6-1.6-1.52a2.4,2.4,0,0,1,.547-1.761,5.653,5.653,0,0,1,2.662-2.15l-.063-.175-.058-.15c-.412.138-.816.29-1.216.45a22.265,22.265,0,0,0-2.81,1.368c-1.39.811-3.06,2-3.083,3.064a1.628,1.628,0,0,0,.576,1.373l-.015.013a1.782,1.782,0,0,0-.391,1.406c.154,1.059,1.954,2.037,3.434,2.669a20.559,20.559,0,0,0,2.967,1.023c.409.107.83.21,1.251.3Zm-4.115-1.483c-2.671-1.146-3.169-2-3.228-2.4a1.423,1.423,0,0,1,.3-1.116l.417-.306-.459-.242a1.284,1.284,0,0,1-.424-1.074c.012-.406.4-1.31,2.913-2.765A21.71,21.71,0,0,1,976.342,522a5.367,5.367,0,0,0-1.061,1.229,3,3,0,0,0-.632,1.754,2.243,2.243,0,0,0,.038.268,1.781,1.781,0,0,1,.213,3.487,2.733,2.733,0,0,0,.831,1.934,5.515,5.515,0,0,0,1.208,1.09A22.531,22.531,0,0,1,974.752,530.967Z" transform="translate(-971.008 -520.942)" fill="#b89e47"/></g><g transform="translate(1.387 43.455)"><path d="M975.569,520.922l.014.349c-4.132.159-8.771,2.114-10.007,6.12,1.714,3.826,6.555,5.2,10.676,4.859l.029.348c-4.111.344-8.926-.993-10.846-4.7l-.217.83-.16-2.63.317.8C966.83,522.992,971.447,521.08,975.569,520.922Z" transform="translate(-965.058 -520.922)" fill="#b89e47"/></g><g transform="translate(7.014 29.455)"><path d="M978.814,504.077a1.92,1.92,0,0,1,1.912-2.864c.006,0,.01.008.015.01l.191.157.185-.527-.246,0a.019.019,0,0,1-.018,0,1.917,1.917,0,0,1,.3-3.429,5.608,5.608,0,0,1,3.292-.95l.006-.192.008-.155c-.425-.028-.851-.052-1.276-.057a22.191,22.191,0,0,0-3.143.173c-1.6.205-3.6.656-4.028,1.631a1.609,1.609,0,0,0,0,1.483l-.02.006a1.746,1.746,0,0,0-.9,1.149c-.27,1.029,1.008,2.63,2.128,3.789a21.5,21.5,0,0,0,2.346,2.1c.331.26.677.512,1.026.754l.094-.132.112-.15A5.613,5.613,0,0,1,978.814,504.077Zm-1.352-.014c-2.021-2.09-2.145-3.065-2.042-3.462a1.413,1.413,0,0,1,.7-.911l.506-.119-.335-.4a1.292,1.292,0,0,1,.03-1.154c.167-.375.878-1.051,3.754-1.425a21.164,21.164,0,0,1,2.325-.17,5.4,5.4,0,0,0-1.458.716,3.039,3.039,0,0,0-1.26,1.379,2.122,2.122,0,0,0-.07.255,1.781,1.781,0,0,1-1.155,3.3,2.732,2.732,0,0,0,.013,2.107,5.429,5.429,0,0,0,.69,1.469A21.8,21.8,0,0,1,977.463,504.064Z" transform="translate(-975.046 -496.071)" fill="#b89e47"/></g><g transform="translate(3.901 28.568)"><path d="M982.092,495.453l-.123.327c-3.87-1.457-8.9-1.456-11.6,1.757.094,4.192,4.022,7.34,7.954,8.622l-.109.332c-3.922-1.279-7.841-4.379-8.173-8.536l-.523.681.873-2.487-.018.858C973.234,493.969,978.231,494,982.092,495.453Z" transform="translate(-969.52 -494.496)" fill="#b89e47"/></g><g transform="translate(15.421 16.346)"><path d="M999.459,474.347a22,22,0,0,0-2.974-1.065c-1.553-.431-3.569-.79-4.346-.063a1.62,1.62,0,0,0-.579,1.366h-.023a1.779,1.779,0,0,0-1.28.706c-.646.845-.087,2.815.494,4.318a21.649,21.649,0,0,0,1.35,2.852c.2.366.424.735.654,1.09l.133-.08.168-.1a5.6,5.6,0,0,1-.737-3.345,2.408,2.408,0,0,1,.675-1.719,2.435,2.435,0,0,1,2.2-.18c0,.007,0,.012.008.014l.116.219.376-.411-.232-.093a.02.02,0,0,1-.015-.01,1.916,1.916,0,0,1,1.6-3.042,5.6,5.6,0,0,1,3.4.4l.082-.171.069-.145C1000.227,474.7,999.844,474.517,999.459,474.347Zm-2.479.116a2.979,2.979,0,0,0-1.7.774,1.6,1.6,0,0,0-.163.212,1.784,1.784,0,0,1-2.352,2.592,2.724,2.724,0,0,0-.8,1.943,5.538,5.538,0,0,0,.063,1.624,21.23,21.23,0,0,1-.956-2.119c-1.045-2.71-.785-3.661-.538-3.985a1.428,1.428,0,0,1,1-.567l.514.088-.15-.5a1.256,1.256,0,0,1,.474-1.05c.3-.281,1.215-.637,4.015.142a22.678,22.678,0,0,1,2.2.744A5.3,5.3,0,0,0,996.979,474.462Z" transform="translate(-989.968 -472.802)" fill="#c4a94c"/></g><g transform="translate(13.273 14.562)"><path d="M998.977,473.535l-.241.253c-3-2.844-7.64-4.8-11.371-2.882-1.54,3.9.859,8.326,3.985,11.032l-.229.264c-3.118-2.7-5.527-7.079-4.22-11.039l-.746.424,1.769-1.953-.349.784C991.39,468.73,995.983,470.7,998.977,473.535Z" transform="translate(-986.156 -469.636)" fill="#c4a94c"/></g><g transform="translate(28.311 7.059)"><path d="M1022.912,460.264a21.8,21.8,0,0,0-2.314-2.129c-1.262-1-2.984-2.114-3.985-1.745a1.631,1.631,0,0,0-1.06,1.035l-.022-.006a1.746,1.746,0,0,0-1.449.152c-.927.528-1.181,2.562-1.225,4.173-.011.424-.011.85,0,1.274.016.624.066,1.251.14,1.878.044.415.1.834.177,1.252l.157-.021.188-.025a6.059,6.059,0,0,1,.157-2.235,4.9,4.9,0,0,1,.463-1.135,2.411,2.411,0,0,1,1.29-1.318,2.437,2.437,0,0,1,2.1.685c0,.006,0,.012,0,.018l.021.245.508-.234-.174-.176c-.006,0-.01-.008-.015-.01a1.92,1.92,0,0,1,2.661-2.186,5.611,5.611,0,0,1,2.977,1.692l.147-.13.115-.1C1023.488,460.89,1023.207,460.573,1022.912,460.264Zm-2.319-.851a3.015,3.015,0,0,0-1.861.057,2.05,2.05,0,0,0-.235.134,1.78,1.78,0,0,1-3.167,1.475,2.71,2.71,0,0,0-1.493,1.483,5.458,5.458,0,0,0-.44,1.007c-.053.172-.1.341-.134.512-.018-.233-.031-.464-.043-.7-.025-.55-.033-1.1-.014-1.634.088-2.9.692-3.677,1.05-3.877a1.411,1.411,0,0,1,1.146-.13l.438.278.054-.517a1.275,1.275,0,0,1,.841-.786c.384-.146,1.368-.11,3.65,1.689a21.78,21.78,0,0,1,1.743,1.547A5.412,5.412,0,0,0,1020.593,459.413Z" transform="translate(-1012.849 -456.318)" fill="#ccb04f"/></g><g transform="translate(27.136 4.117)"><path d="M1022.882,458.977l-.32.141c-1.661-3.786-5.18-7.386-9.36-7.069-2.933,3-2.44,8.006-.61,11.714l-.314.154c-1.826-3.7-2.346-8.669.4-11.812l-.852.1,2.389-1.113-.626.586C1017.754,451.6,1021.224,455.2,1022.882,458.977Z" transform="translate(-1010.763 -451.095)" fill="#ccb04f"/></g><g transform="translate(40.935 3.973)"><path d="M1046.516,456.85a21.311,21.311,0,0,0-1.3-2.851c-.782-1.411-1.93-3.1-3-3.157a1.624,1.624,0,0,0-1.381.544l-.014-.015a1.775,1.775,0,0,0-1.4-.423c-1.058.13-2.082,1.906-2.751,3.37a21.555,21.555,0,0,0-1.093,2.966c-.122.4-.227.808-.322,1.22l.157.043.181.043a5.64,5.64,0,0,1,1.876-2.862,1.923,1.923,0,0,1,3.369.73l0,.016-.076.236.554-.017-.088-.234a.012.012,0,0,1-.008-.014c.144-.376.62-1.39,1.551-1.567a2.429,2.429,0,0,1,1.75.584,5.721,5.721,0,0,1,2.089,2.716l.18-.061.149-.053C1046.809,457.655,1046.67,457.249,1046.516,456.85Zm-1.808-1.675a2.968,2.968,0,0,0-1.738-.669,1.493,1.493,0,0,0-.265.027,1.782,1.782,0,0,1-3.5.135,2.694,2.694,0,0,0-1.95.786,5.281,5.281,0,0,0-1.117,1.178,21.08,21.08,0,0,1,.851-2.168c1.2-2.644,2.064-3.12,2.468-3.167a1.42,1.42,0,0,1,1.11.321l.3.426.248-.458a1.287,1.287,0,0,1,1.083-.393c.409.019,1.3.427,2.7,2.972a21.787,21.787,0,0,1,1.008,2.1A5.382,5.382,0,0,0,1044.708,455.175Z" transform="translate(-1035.257 -450.84)" fill="#d1b451"/></g><g transform="translate(40.905 0.618)"><path d="M1046.92,455.515l-.35.006c-.062-4.135-1.907-8.817-5.884-10.147-3.865,1.624-5.356,6.432-5.108,10.559l-.349.021c-.247-4.118,1.2-8.9,4.949-10.733l-.825-.237,2.633-.1-.8.3C1045.055,446.729,1046.858,451.39,1046.92,455.515Z" transform="translate(-1035.203 -444.885)" fill="#d1b451"/></g></g><path d="M1004.358,515.322a53.711,53.711,0,0,1-5.172,12.485c-.394.692-.81,1.379-1.234,2.051q-1.281,2.023-2.721,3.9c-.073.1-.146.193-.225.289q-.328.427-.671.85c-.1.125-.2.244-.3.368-.245.3-.495.589-.744.883-.1.123-.207.241-.314.358q-1.645,1.88-3.452,3.581c-.348.331-.7.661-1.056.978-20.673-10.423-30.375-32.713-23.872-56.451.115-.419.233-.83.359-1.246.108-.35.214-.7.327-1.044.076-.236.154-.477.241-.71.07-.215.14-.424.221-.635.113-.325.229-.644.351-.961.1-.275.207-.545.316-.813s.212-.52.323-.776c.13-.326.273-.656.42-.977.156-.354.317-.708.488-1.057a1.3,1.3,0,0,1,.066-.134c.123-.259.246-.517.374-.768.073-.138.142-.283.215-.42.115-.231.237-.461.362-.683.126-.246.264-.495.4-.737s.285-.506.43-.759c.188-.322.379-.638.572-.958s.394-.628.595-.936.427-.642.637-.959a45.481,45.481,0,0,1,12.693-12.411,52.384,52.384,0,0,1,5.917,4.95c.145.134.286.277.424.415q.3.291.589.6c.12.115.243.242.361.367.06.057.119.12.177.183.1.1.186.2.281.3.674.716,1.33,1.457,1.958,2.213l.005,0c.107.122.2.242.3.368a1.931,1.931,0,0,1,.137.161A53.571,53.571,0,0,1,1004.358,515.322Z" transform="translate(-89.959 -47.278)" opacity="0.2"/><g transform="translate(812.553 408.495)"><path d="M857.946,489.118c7.406-27.037,34.633-40.4,61.545-32.554,24.774,7.224,37.687,32.131,30.281,59.168-6.742,24.614-36.4,40.026-58.727,33.472C864.149,541.308,850.541,516.155,857.946,489.118Z" transform="translate(-855.945 -454.336)" fill="#fff" stroke="#fff" stroke-miterlimit="10" stroke-width="0.448"/><path d="M893.181,563.135c-25.717-7.044-40.443-35.1-32.892-62.669a55.286,55.286,0,0,1,5.62-13.367,47.864,47.864,0,0,0-7.962,16.324c-7.405,27.037,6.2,52.191,33.1,60.086a40.5,40.5,0,0,0,16.181,1.191A45.289,45.289,0,0,1,893.181,563.135Z" transform="translate(-855.945 -468.641)" fill="#d0cbcf"/><circle cx="35.39" cy="35.39" r="35.39" transform="translate(13.596 11.969)" fill="#ecedef"/><path d="M909.216,545.3a35.389,35.389,0,0,1-4.88-66.534,35.39,35.39,0,1,0,25.354,66A35.224,35.224,0,0,1,909.216,545.3Z" transform="translate(-866.475 -465.002)" fill="#b3aeb2"/><path d="M932.411,479.019a35.389,35.389,0,0,1,12.074,62.3A35.389,35.389,0,1,0,904.87,482.8,35.285,35.285,0,0,1,932.411,479.019Z" transform="translate(-877.307 -463.606)" fill="#d0cbcf" opacity="0.72"/><g transform="translate(53.392 5.297)"><path d="M961.64,472.81a5.625,5.625,0,0,0-1.176-3.216,1.919,1.919,0,0,0-3.444-.056l0,.017.019.247-.537-.147.143-.2.01-.014a1.92,1.92,0,0,0-2.992-1.707,5.625,5.625,0,0,0-2.651,2.168l-.3-.186a22.114,22.114,0,0,1,2.608-3.567c1.079-1.2,2.584-2.585,3.632-2.39a1.764,1.764,0,0,1,1.206.823l.011.019a1.616,1.616,0,0,1,1.481-.1c1,.366,1.59,2.327,1.908,3.907a22.136,22.136,0,0,1,.426,4.4Zm-2.364-4.6a3.011,3.011,0,0,1,1.459,1.16,5.38,5.38,0,0,1,.818,1.4,21.5,21.5,0,0,0-.332-2.3c-.572-2.848-1.3-3.508-1.685-3.648a1.28,1.28,0,0,0-1.152.052l-.377.361-.153-.5a1.429,1.429,0,0,0-.959-.641c-.4-.075-1.366.122-3.309,2.281a21.316,21.316,0,0,0-1.46,1.813,5.362,5.362,0,0,1,1.418-.79,2.726,2.726,0,0,1,2.1-.165,1.781,1.781,0,0,0,3.371.924A1.85,1.85,0,0,1,959.276,468.214Z" transform="translate(-950.718 -463.738)" fill="#d9be61"/></g><g transform="translate(53.374 2.092)"><path d="M961.967,470.365l-.335-.1c1.182-3.963.827-8.983-2.567-11.446-4.175.389-7.039,4.528-8.042,8.54l-.339-.085c1-4,3.817-8.129,7.941-8.753l-.716-.473,2.542.7-.857.042C962.826,461.426,963.147,466.412,961.967,470.365Z" transform="translate(-950.685 -458.049)" fill="#d9be61"/></g><g transform="translate(67.205 12.679)"><path d="M984.1,487.222a5.622,5.622,0,0,0,.164-3.42,1.92,1.92,0,0,0-3.152-1.388l-.005.016-.079.235-.438-.344.211-.132.015-.008a1.92,1.92,0,0,0-2.1-2.734,5.623,5.623,0,0,0-3.284.968l-.2-.286a22.065,22.065,0,0,1,3.787-2.275c1.459-.686,3.385-1.38,4.275-.793a1.762,1.762,0,0,1,.792,1.226l0,.022a1.616,1.616,0,0,1,1.4.48c.781.726.563,2.761.242,4.341a22.127,22.127,0,0,1-1.314,4.219Zm-.395-5.153a3.009,3.009,0,0,1,.894,1.635,5.366,5.366,0,0,1,.209,1.61,21.388,21.388,0,0,0,.588-2.253c.578-2.846.162-3.738-.137-4.016a1.279,1.279,0,0,0-1.082-.4l-.488.186.051-.518a1.432,1.432,0,0,0-.635-.962c-.341-.225-1.305-.417-3.934.818a21.25,21.25,0,0,0-2.05,1.1,5.387,5.387,0,0,1,1.614-.178,2.727,2.727,0,0,1,2,.663,1.782,1.782,0,0,0,2.749,2.16A1.794,1.794,0,0,1,983.7,482.069Z" transform="translate(-975.236 -476.841)" fill="#e8cd74"/></g><g transform="translate(67.17 10.303)"><path d="M984.372,485.55l-.27-.221c2.627-3.194,4.248-7.959,2.076-11.545-4-1.261-8.244,1.442-10.725,4.75l-.279-.21c2.475-3.3,6.673-6.011,10.715-4.985l-.476-.714,2.072,1.628-.806-.293C988.632,477.644,986.992,482.365,984.372,485.55Z" transform="translate(-975.173 -472.625)" fill="#e8cd74"/></g><g transform="translate(78.112 25.012)"><path d="M1000.013,509.353a5.619,5.619,0,0,0,1.478-3.088,1.919,1.919,0,0,0-2.366-2.5l-.011.013-.164.186-.27-.487.245-.04.017,0a1.919,1.919,0,0,0-.869-3.332,5.622,5.622,0,0,0-3.4-.382l-.073-.341a22.1,22.1,0,0,1,4.373-.627c1.611-.065,3.656.042,4.248.928a1.766,1.766,0,0,1,.254,1.437l-.006.021a1.617,1.617,0,0,1,1.109.988c.438.972-.553,2.763-1.463,4.095a22.075,22.075,0,0,1-2.848,3.377Zm1.635-4.9a3.007,3.007,0,0,1,.19,1.854,5.364,5.364,0,0,1-.432,1.565,21.385,21.385,0,0,0,1.417-1.848c1.637-2.4,1.6-3.382,1.432-3.755a1.279,1.279,0,0,0-.842-.787l-.522-.018.248-.456a1.432,1.432,0,0,0-.212-1.133c-.227-.34-1.041-.892-3.944-.773a21.319,21.319,0,0,0-2.318.223,5.38,5.38,0,0,1,1.556.462,2.726,2.726,0,0,1,1.584,1.386,1.781,1.781,0,0,0,1.7,3.057A1.7,1.7,0,0,1,1001.649,504.45Z" transform="translate(-994.597 -498.733)" fill="#e8cd74"/></g><g transform="translate(78.066 23.698)"><path d="M1000.188,508.607l-.163-.309c3.66-1.924,7-5.686,6.393-9.835-3.195-2.714-8.158-1.871-11.728.215l-.176-.3c3.562-2.081,8.483-2.95,11.81-.435l-.161-.843,1.278,2.3-.629-.583C1007.183,502.973,1003.84,506.688,1000.188,508.607Z" transform="translate(-994.515 -496.401)" fill="#e8cd74"/></g><g transform="translate(84.34 38.816)"><path d="M1006.836,534.533a5.624,5.624,0,0,0,2.561-2.273,1.919,1.919,0,0,0-1.21-3.225l-.015.007-.224.109-.06-.553.241.058.017,0a1.919,1.919,0,0,0,.492-3.408,5.621,5.621,0,0,0-2.988-1.673l.065-.343a22.084,22.084,0,0,1,4.274,1.119c1.51.565,3.353,1.457,3.554,2.5a1.764,1.764,0,0,1-.324,1.423l-.014.017a1.618,1.618,0,0,1,.638,1.34c.026,1.066-1.583,2.332-2.937,3.207a22.114,22.114,0,0,1-3.935,2.007Zm3.41-3.883a3.012,3.012,0,0,1-.545,1.782,5.371,5.371,0,0,1-1.006,1.274,21.391,21.391,0,0,0,2.023-1.153c2.44-1.575,2.787-2.5,2.777-2.9a1.277,1.277,0,0,0-.471-1.053l-.474-.219.406-.325a1.428,1.428,0,0,0,.245-1.126c-.077-.4-.613-1.226-3.334-2.243a21.241,21.241,0,0,0-2.223-.694,5.374,5.374,0,0,1,1.255,1.03,2.729,2.729,0,0,1,.922,1.892,1.782,1.782,0,0,0,.376,3.475A1.783,1.783,0,0,1,1010.246,530.649Z" transform="translate(-1005.651 -523.236)" fill="#e8cd74"/></g><g transform="translate(84.355 38.688)"><path d="M1006.937,534.766l-.031-.348c4.12-.353,8.662-2.522,9.709-6.582-1.891-3.742-6.792-4.89-10.892-4.353l-.045-.347c4.091-.536,8.963.574,11.054,4.182l.178-.839.284,2.62-.354-.782C1015.569,532.289,1011.047,534.414,1006.937,534.766Z" transform="translate(-1005.678 -523.008)" fill="#e8cd74"/></g><g transform="translate(81.745 53.388)"><path d="M1001.045,559.948a5.623,5.623,0,0,0,3.242-1.1,1.92,1.92,0,0,0,.137-3.442h-.017l-.248.013.16-.534.2.148.014.01a1.92,1.92,0,0,0,1.776-2.951,5.624,5.624,0,0,0-2.1-2.7l.193-.291a22.09,22.09,0,0,1,3.5,2.69c1.172,1.107,2.524,2.644,2.3,3.687a1.764,1.764,0,0,1-.851,1.186l-.02.011a1.617,1.617,0,0,1,.068,1.483c-.389.993-2.363,1.535-3.951,1.815a22.07,22.07,0,0,1-4.406.323Zm4.65-2.256a3.014,3.014,0,0,1-1.194,1.432,5.391,5.391,0,0,1-1.421.784,21.447,21.447,0,0,0,2.312-.278c2.86-.5,3.538-1.219,3.687-1.6a1.278,1.278,0,0,0-.025-1.153l-.352-.386.5-.141a1.432,1.432,0,0,0,.663-.944c.084-.4-.09-1.368-2.2-3.361a21.391,21.391,0,0,0-1.779-1.5,5.375,5.375,0,0,1,.757,1.437,2.725,2.725,0,0,1,.115,2.1,1.782,1.782,0,0,0-1,3.349A1.826,1.826,0,0,1,1005.7,557.692Z" transform="translate(-1001.045 -549.102)" fill="#e8cd74"/></g><g transform="translate(81.697 53.368)"><path d="M1000.96,560.273l.108-.332c3.933,1.274,8.962,1.037,11.5-2.3-.291-4.182-4.362-7.143-8.349-8.239l.093-.337c3.977,1.094,8.038,4.007,8.564,8.144l.49-.7-.756,2.524-.023-.857C1009.878,561.34,1004.885,561.545,1000.96,560.273Z" transform="translate(-1000.96 -549.066)" fill="#e8cd74"/></g><g transform="translate(72.647 67.086)"><path d="M985.029,582.112a5.628,5.628,0,0,0,3.416.244,1.919,1.919,0,0,0,1.461-3.119l-.016-.006-.233-.084.354-.429.127.213.009.015a1.919,1.919,0,0,0,2.782-2.03,5.622,5.622,0,0,0-.891-3.306l.291-.193a22.119,22.119,0,0,1,2.186,3.839c.651,1.475,1.3,3.417.692,4.292a1.765,1.765,0,0,1-1.245.763l-.022,0a1.617,1.617,0,0,1-.513,1.393c-.744.764-2.773.5-4.346.14a22.14,22.14,0,0,1-4.186-1.412Zm5.161-.274a3.01,3.01,0,0,1-1.656.856,5.37,5.37,0,0,1-1.615.171,21.354,21.354,0,0,0,2.239.641c2.832.645,3.733.25,4.018-.043a1.28,1.28,0,0,0,.424-1.072l-.175-.492.516.064a1.433,1.433,0,0,0,.977-.612c.233-.336.448-1.3-.725-3.953a21.405,21.405,0,0,0-1.056-2.075,5.382,5.382,0,0,1,.14,1.617,2.725,2.725,0,0,1-.709,1.981,1.782,1.782,0,0,0-2.223,2.7A1.819,1.819,0,0,1,990.19,581.838Z" transform="translate(-984.895 -573.417)" fill="#e8cd74"/></g><g transform="translate(72.604 67.05)"><path d="M984.82,582.379l.228-.265c3.131,2.7,7.857,4.434,11.493,2.346,1.355-3.968-1.248-8.276-4.5-10.834l.216-.274c3.242,2.552,5.853,6.812,4.733,10.83l.725-.459-1.677,2.033.312-.8C992.624,586.824,987.944,585.074,984.82,582.379Z" transform="translate(-984.82 -573.352)" fill="#e8cd74"/></g><g transform="translate(59.789 77.763)"><path d="M962.321,597.55a5.624,5.624,0,0,0,3.053,1.55,1.92,1.92,0,0,0,2.558-2.307l-.013-.011-.183-.168.493-.258.034.246,0,.017a1.919,1.919,0,0,0,3.352-.791,5.623,5.623,0,0,0,.461-3.393l.343-.065a22.083,22.083,0,0,1,.525,4.387c.028,1.612-.128,3.654-1.028,4.225a1.766,1.766,0,0,1-1.443.22l-.021-.007a1.617,1.617,0,0,1-1.013,1.085c-.982.416-2.749-.617-4.06-1.558a22.115,22.115,0,0,1-3.31-2.926Zm4.863,1.75a3.01,3.01,0,0,1-1.859.146,5.394,5.394,0,0,1-1.554-.468,21.52,21.52,0,0,0,1.815,1.459c2.359,1.693,3.344,1.679,3.72,1.52a1.28,1.28,0,0,0,.807-.824l.03-.522.451.259a1.431,1.431,0,0,0,1.138-.185c.345-.219.916-1.02.866-3.924a21.443,21.443,0,0,0-.168-2.323,5.374,5.374,0,0,1-.5,1.545,2.724,2.724,0,0,1-1.422,1.552,1.781,1.781,0,0,0-3.1,1.623A1.889,1.889,0,0,1,967.184,599.3Z" transform="translate(-962.072 -592.369)" fill="#d9be61"/></g><g transform="translate(59.761 77.717)"><path d="M962.022,597.718l.313-.155c1.838,3.7,5.521,7.136,9.682,6.622,2.789-3.131,2.061-8.111.06-11.73l.306-.168c2,3.609,2.75,8.549.159,11.817l.846-.142-2.334,1.224.6-.615C967.489,604.843,963.855,601.415,962.022,597.718Z" transform="translate(-962.022 -592.287)" fill="#d9be61"/></g><g transform="translate(45.189 83.673)"><path d="M936.481,603.787a5.622,5.622,0,0,0,2.212,2.614,1.919,1.919,0,0,0,3.252-1.133l-.007-.016-.1-.226.555-.047-.064.24,0,.016a1.919,1.919,0,0,0,3.4.572,5.625,5.625,0,0,0,1.742-2.948l.341.073a22.121,22.121,0,0,1-1.219,4.246c-.6,1.5-1.536,3.318-2.587,3.5a1.763,1.763,0,0,1-1.415-.357l-.017-.015a1.617,1.617,0,0,1-1.354.607c-1.067,0-2.295-1.637-3.137-3.011a22.11,22.11,0,0,1-1.915-3.981Zm3.8,3.5a3.009,3.009,0,0,1-1.769-.586,5.37,5.37,0,0,1-1.251-1.035,21.4,21.4,0,0,0,1.106,2.05c1.517,2.476,2.43,2.845,2.838,2.844a1.281,1.281,0,0,0,1.063-.446l.23-.469.315.413a1.429,1.429,0,0,0,1.12.271c.4-.068,1.24-.584,2.321-3.281a21.307,21.307,0,0,0,.746-2.206,5.367,5.367,0,0,1-1.059,1.23,2.726,2.726,0,0,1-1.913.877,1.782,1.782,0,0,0-3.483.295A1.761,1.761,0,0,1,940.284,607.287Z" transform="translate(-936.157 -602.859)" fill="#d9be61"/></g><g transform="translate(45.179 83.696)"><path d="M936.139,603.886l.349-.022c.256,4.127,2.318,8.718,6.353,9.86,3.785-1.8,5.048-6.675,4.608-10.787l.348-.037c.439,4.1-.784,8.947-4.44,10.953l.835.2-2.626.222.79-.335C938.413,612.574,936.394,608,936.139,603.886Z" transform="translate(-936.139 -602.9)" fill="#d9be61"/></g><g transform="translate(31.108 80.485)"><path d="M911.539,597.206a5.623,5.623,0,0,0,1.025,3.268,1.919,1.919,0,0,0,3.437.217v-.017l-.008-.248.53.172-.152.2-.011.013a1.92,1.92,0,0,0,2.909,1.845,5.624,5.624,0,0,0,2.75-2.04l.286.2a22.125,22.125,0,0,1-2.772,3.44c-1.134,1.146-2.7,2.462-3.74,2.217a1.763,1.763,0,0,1-1.166-.878l-.01-.02a1.617,1.617,0,0,1-1.484.034c-.983-.412-1.479-2.4-1.722-3.993a22.147,22.147,0,0,1-.22-4.412Zm2.146,4.7a3.006,3.006,0,0,1-1.4-1.227,5.379,5.379,0,0,1-.751-1.439,21.457,21.457,0,0,0,.224,2.318c.438,2.871,1.135,3.565,1.512,3.723a1.28,1.28,0,0,0,1.153,0l.394-.343.13.5a1.432,1.432,0,0,0,.928.685c.4.094,1.37-.057,3.412-2.123a21.451,21.451,0,0,0,1.544-1.744,5.368,5.368,0,0,1-1.453.723,2.728,2.728,0,0,1-2.1.066,1.782,1.782,0,0,0-3.324-1.081A1.784,1.784,0,0,1,913.685,601.907Z" transform="translate(-911.162 -597.199)" fill="#d1b451"/></g><g transform="translate(30.305 80.436)"><path d="M910.577,597.112l.33.116c-1.366,3.9-1.247,8.935,2.028,11.553,4.189-.193,7.243-4.193,8.432-8.154l.335.1c-1.186,3.951-4.194,7.942-8.342,8.371l.692.506-2.506-.815.858,0C909.3,606,909.214,601.006,910.577,597.112Z" transform="translate(-909.737 -597.112)" fill="#d1b451"/></g><g transform="translate(17.906 71.117)"><path d="M889.973,580.713a5.622,5.622,0,0,0-.324,3.409,1.919,1.919,0,0,0,3.083,1.535l.006-.016.09-.232.421.364-.216.122-.015.008a1.919,1.919,0,0,0,1.964,2.829,5.626,5.626,0,0,0,3.327-.814l.186.3a22.1,22.1,0,0,1-3.889,2.095c-1.49.617-3.446,1.22-4.308.592a1.763,1.763,0,0,1-.734-1.261l0-.023a1.616,1.616,0,0,1-1.381-.545c-.747-.762-.433-2.785-.038-4.347a22.079,22.079,0,0,1,1.51-4.152Zm.153,5.166a3.01,3.01,0,0,1-.817-1.675,5.36,5.36,0,0,1-.133-1.617,21.363,21.363,0,0,0-.693,2.223c-.711,2.816-.337,3.726-.051,4.018a1.28,1.28,0,0,0,1.062.449l.5-.163-.076.514a1.431,1.431,0,0,0,.589.991c.33.241,1.284.479,3.968-.632a21.278,21.278,0,0,0,2.1-1.008,5.372,5.372,0,0,1-1.62.1,2.722,2.722,0,0,1-1.964-.755,1.781,1.781,0,0,0-2.644-2.286A1.777,1.777,0,0,1,890.127,585.879Z" transform="translate(-887.729 -580.572)" fill="#ccb04f"/></g><g transform="translate(16.22 71.076)"><path d="M888.375,580.5l.26.234c-2.773,3.067-4.617,7.751-2.615,11.435,3.935,1.448,8.3-1.054,10.936-4.242l.269.223c-2.627,3.181-6.948,5.692-10.938,4.478l.442.735-1.994-1.723.792.331C883.749,588.2,885.607,583.558,888.375,580.5Z" transform="translate(-884.736 -580.498)" fill="#ccb04f"/></g><g transform="translate(8.31 58.097)"><path d="M875.673,557.715a5.624,5.624,0,0,0-1.621,3.016,1.919,1.919,0,0,0,2.246,2.611l.012-.012.172-.179.247.5-.247.029-.017,0a1.919,1.919,0,0,0,.713,3.37,5.622,5.622,0,0,0,3.381.541l.057.345a22.112,22.112,0,0,1-4.4.421c-1.612-.01-3.649-.213-4.2-1.126a1.765,1.765,0,0,1-.186-1.448l.007-.021a1.617,1.617,0,0,1-1.061-1.038c-.392-.991.682-2.734,1.652-4.021a22.064,22.064,0,0,1,3-3.241Zm-1.864,4.821a3.012,3.012,0,0,1-.1-1.861,5.367,5.367,0,0,1,.5-1.542,21.28,21.28,0,0,0-1.5,1.78c-1.748,2.319-1.757,3.3-1.607,3.683a1.28,1.28,0,0,0,.8.826l.521.042-.269.445a1.434,1.434,0,0,0,.158,1.142c.211.35,1,.94,3.9.957a21.531,21.531,0,0,0,2.326-.114,5.382,5.382,0,0,1-1.533-.535A2.725,2.725,0,0,1,875.5,565.9a1.781,1.781,0,0,0-1.55-3.133A1.867,1.867,0,0,1,873.81,562.536Z" transform="translate(-870.696 -557.461)" fill="#c4a94c"/></g><g transform="translate(5.413 58.07)"><path d="M873.23,557.412l.148.317c-3.746,1.75-7.262,5.351-6.847,9.524,3.065,2.861,8.061,2.251,11.725.335l.162.31c-3.656,1.912-8.612,2.549-11.818-.118l.122.849-1.169-2.362.6.612C865.979,562.712,869.493,559.158,873.23,557.412Z" transform="translate(-865.553 -557.412)" fill="#c4a94c"/></g><g transform="translate(4.741 43.465)"><path d="M871.591,531.815a5.626,5.626,0,0,0-2.665,2.15,2.41,2.41,0,0,0-.545,1.762c.2.925,1.225,1.379,1.6,1.517l.016-.007.228-.1.034.556-.238-.069-.016-.005a1.919,1.919,0,0,0-.651,3.382,5.625,5.625,0,0,0,2.906,1.811l-.081.34a22.088,22.088,0,0,1-4.217-1.319c-1.482-.634-3.28-1.612-3.433-2.668a1.763,1.763,0,0,1,.39-1.406l.015-.017a1.617,1.617,0,0,1-.575-1.368c.023-1.066,1.69-2.255,3.084-3.065a22.113,22.113,0,0,1,4.025-1.821ZM868,535.535a3.012,3.012,0,0,1,.628-1.755,5.386,5.386,0,0,1,1.064-1.226,21.465,21.465,0,0,0-2.074,1.057c-2.512,1.459-2.9,2.362-2.91,2.771a1.28,1.28,0,0,0,.421,1.073l.464.241-.421.305a1.429,1.429,0,0,0-.3,1.114c.059.4.555,1.254,3.225,2.4a21.242,21.242,0,0,0,2.188.8,5.368,5.368,0,0,1-1.205-1.088,2.727,2.727,0,0,1-.833-1.933,1.782,1.782,0,0,0-.212-3.49A1.829,1.829,0,0,1,868,535.535Z" transform="translate(-864.36 -531.488)" fill="#b89e47"/></g><g transform="translate(1.388 43.456)"><path d="M868.92,531.472l.014.349c-4.132.159-8.771,2.114-10.007,6.12,1.714,3.827,6.555,5.2,10.676,4.859l.029.349c-4.111.343-8.926-.993-10.845-4.7l-.218.83-.161-2.63.317.8C860.18,533.542,864.8,531.631,868.92,531.472Z" transform="translate(-858.408 -531.472)" fill="#b89e47"/></g><g transform="translate(7.014 29.455)"><path d="M877.791,507.029a5.623,5.623,0,0,0-3.291.948,1.919,1.919,0,0,0-.3,3.431h.018l.248,0-.184.525-.193-.157-.013-.011a1.919,1.919,0,0,0-1.913,2.864,5.623,5.623,0,0,0,1.976,2.8l-.207.282a22.086,22.086,0,0,1-3.374-2.852c-1.12-1.16-2.4-2.759-2.129-3.791a1.764,1.764,0,0,1,.905-1.145l.02-.01a1.619,1.619,0,0,1,0-1.484c.435-.973,2.433-1.422,4.032-1.628a22.1,22.1,0,0,1,4.416-.117Zm-4.751,2.035a3.007,3.007,0,0,1,1.26-1.374,5.372,5.372,0,0,1,1.456-.717,21.282,21.282,0,0,0-2.322.17c-2.88.37-3.591,1.051-3.758,1.424a1.28,1.28,0,0,0-.028,1.153l.334.4-.506.118a1.432,1.432,0,0,0-.706.912c-.1.4.025,1.371,2.042,3.461a21.436,21.436,0,0,0,1.706,1.584,5.4,5.4,0,0,1-.688-1.47,2.727,2.727,0,0,1-.017-2.1,1.782,1.782,0,0,0,1.158-3.3A1.81,1.81,0,0,1,873.04,509.064Z" transform="translate(-868.395 -506.62)" fill="#b89e47"/></g><g transform="translate(3.902 28.569)"><path d="M875.442,506l-.123.327c-3.87-1.457-8.9-1.456-11.6,1.757.095,4.192,4.022,7.34,7.954,8.622l-.109.332c-3.922-1.279-7.841-4.379-8.173-8.536l-.522.681.873-2.487-.018.858C866.585,504.519,871.581,504.55,875.442,506Z" transform="translate(-862.871 -505.047)" fill="#b89e47"/></g><g transform="translate(15.423 16.346)"><path d="M893.8,485.754a5.624,5.624,0,0,0-3.4-.4A1.919,1.919,0,0,0,888.8,488.4l.016.007.229.095-.374.412-.117-.219-.008-.015a1.92,1.92,0,0,0-2.874,1.9,5.622,5.622,0,0,0,.736,3.345l-.3.179a22.125,22.125,0,0,1-2-3.937c-.581-1.5-1.139-3.474-.49-4.32a1.762,1.762,0,0,1,1.278-.7h.023a1.617,1.617,0,0,1,.577-1.368c.779-.728,2.794-.367,4.348.064a22.136,22.136,0,0,1,4.115,1.607Zm-5.168.032a3.011,3.011,0,0,1,1.694-.777,5.383,5.383,0,0,1,1.62-.1,21.414,21.414,0,0,0-2.206-.745c-2.8-.777-3.717-.425-4.016-.146a1.282,1.282,0,0,0-.474,1.051l.152.5-.512-.088a1.431,1.431,0,0,0-1,.566c-.248.324-.509,1.273.539,3.982a21.276,21.276,0,0,0,.958,2.122,5.36,5.36,0,0,1-.064-1.622,2.726,2.726,0,0,1,.8-1.946,1.782,1.782,0,0,0,2.348-2.59A1.731,1.731,0,0,1,888.635,485.786Z" transform="translate(-883.321 -483.351)" fill="#c4a94c"/></g><g transform="translate(13.274 14.563)"><path d="M892.328,484.085l-.24.254c-3-2.845-7.64-4.8-11.37-2.882-1.54,3.9.859,8.325,3.984,11.032l-.229.264c-3.119-2.7-5.527-7.079-4.22-11.039l-.745.424,1.77-1.953-.349.784C884.74,479.28,889.334,481.247,892.328,484.085Z" transform="translate(-879.507 -480.186)" fill="#c4a94c"/></g><g transform="translate(28.31 7.061)"><path d="M916.856,472a5.628,5.628,0,0,0-2.977-1.692,1.92,1.92,0,0,0-2.663,2.185l.012.012.175.176-.5.235-.023-.247v-.017a1.919,1.919,0,0,0-3.385.633,5.623,5.623,0,0,0-.62,3.368l-.345.049a22.1,22.1,0,0,1-.318-4.407c.048-1.611.3-3.643,1.225-4.172a1.761,1.761,0,0,1,1.451-.152l.021.007a1.618,1.618,0,0,1,1.063-1.037c1-.369,2.718.746,3.982,1.746a22.113,22.113,0,0,1,3.17,3.078Zm-4.776-1.976a3.009,3.009,0,0,1,1.863-.059,5.383,5.383,0,0,1,1.53.541,21.386,21.386,0,0,0-1.744-1.543c-2.278-1.8-3.261-1.834-3.644-1.692a1.278,1.278,0,0,0-.844.785l-.055.52-.438-.28a1.433,1.433,0,0,0-1.145.132c-.355.2-.963.976-1.048,3.879a21.3,21.3,0,0,0,.06,2.327,5.373,5.373,0,0,1,.57-1.519,2.727,2.727,0,0,1,1.494-1.483,1.781,1.781,0,0,0,3.168-1.477A1.778,1.778,0,0,1,912.08,470.024Z" transform="translate(-906.196 -466.87)" fill="#ccb04f"/></g><g transform="translate(27.137 4.118)"><path d="M916.233,469.527l-.32.141c-1.662-3.786-5.18-7.386-9.361-7.069-2.932,3-2.439,8.006-.61,11.714l-.313.154c-1.826-3.7-2.347-8.669.395-11.812l-.852.1,2.389-1.113-.626.586C911.1,462.154,914.575,465.75,916.233,469.527Z" transform="translate(-904.114 -461.645)" fill="#ccb04f"/></g><g transform="translate(40.937 3.976)"><path d="M939.956,468.732a5.621,5.621,0,0,0-2.087-2.715,2.408,2.408,0,0,0-1.748-.586c-.929.176-1.407,1.193-1.553,1.567l.006.016.092.23-.556.021.075-.237.006-.016a1.919,1.919,0,0,0-3.366-.73,5.625,5.625,0,0,0-1.878,2.863l-.337-.089a22.1,22.1,0,0,1,1.417-4.185c.669-1.466,1.69-3.242,2.747-3.369a1.764,1.764,0,0,1,1.4.423l.017.015a1.617,1.617,0,0,1,1.381-.543c1.065.048,2.215,1.742,2.992,3.155a22.134,22.134,0,0,1,1.726,4.066Zm-3.634-3.675a3.007,3.007,0,0,1,1.74.669,5.37,5.37,0,0,1,1.2,1.092,21.544,21.544,0,0,0-1.008-2.1c-1.4-2.545-2.294-2.956-2.7-2.975a1.282,1.282,0,0,0-1.083.4l-.252.457-.3-.428a1.431,1.431,0,0,0-1.106-.323c-.406.049-1.266.526-2.472,3.168a21.42,21.42,0,0,0-.848,2.168A5.361,5.361,0,0,1,930.611,466a2.726,2.726,0,0,1,1.952-.787,1.782,1.782,0,0,0,3.493-.131A1.755,1.755,0,0,1,936.322,465.057Z" transform="translate(-928.609 -461.393)" fill="#d1b451"/></g><g transform="translate(40.906 0.619)"><path d="M940.27,466.065l-.349.005c-.062-4.134-1.908-8.817-5.884-10.147-3.866,1.624-5.355,6.432-5.108,10.56l-.349.02c-.247-4.118,1.2-8.9,4.948-10.733l-.824-.237,2.633-.1-.8.3C938.406,457.279,940.209,461.94,940.27,466.065Z" transform="translate(-928.554 -455.435)" fill="#d1b451"/></g></g></g></svg>