<svg xmlns="http://www.w3.org/2000/svg" width="341.049" height="347.084" viewBox="0 0 341.049 347.084"><g transform="translate(-789.599 -338.566)"><g transform="translate(842.954 338.566)"><path d="M1124.692,389.484c-12.176,39.367-74.051,89.68-118.023,107.671-55.269,22.613-83.612,59.076-83.612,59.076l-2.444-3.224-.751-.994s23.1-39.777,79.472-60.151q5.961-2.16,11.609-4.414c39.839-15.957,68.253-35.956,88.546-61.766a166.267,166.267,0,0,0,13.569-20.135c22.127-38.582-12.456-76.172-78.106-59.938q-9.225,2.286-17.418,5.08c-.012.008-.012.008-.023.006-49.534,16.821-71.591,45.974-80.392,62.312-.588,1.09-1.113,2.117-1.585,3.08-8.357,17.092-37.063,127.275-37.063,127.275l-2.992-3.282s12.005-96.911,46.388-147.2a93.228,93.228,0,0,1,13.548-16.023c30.073-27.708,85.153-42.361,124.917-37.3h.01c19.533,2.479,35.38,9.72,42.75,22.5C1127.668,369.99,1127.813,379.379,1124.692,389.484Z" transform="translate(-839.122 -338.566)" fill="#d4a45f"/><path d="M1010.091,482.247c-7.239,3.69-15.443,7.7-23.521,11.318-23.141,10.351-50.321,30.886-59.126,43.076-3.216,4.451-5.751,8.206-7.683,11.165l-.751-.994s23.1-39.777,79.472-60.151Q1004.443,484.5,1010.091,482.247Z" transform="translate(-838.27 -333.365)" fill="#ad864e"/><g transform="translate(78.167 211.528)"><circle cx="5.985" cy="5.985" r="5.985" fill="#d4963d"/><circle cx="5.32" cy="5.32" r="5.32" transform="translate(0.665 0.665)" fill="#ffb54a"/><path d="M921.8,544.491c1.032-.785,3.127-.3,4.336,1.289s1.077,3.68.045,4.465-2.85.135-4.059-1.455S920.771,545.276,921.8,544.491Z" transform="translate(-916.361 -542.654)" fill="#ffd69c"/><circle cx="0.906" cy="0.906" r="0.906" transform="translate(1.39 5.761)" fill="#ffe5ea" opacity="0.4"/><ellipse cx="0.276" cy="0.488" rx="0.276" ry="0.488" transform="translate(1.591 7.89) rotate(-26.664)" fill="#fdfdfd" opacity="0.4"/></g><g transform="translate(64.765 220.11)"><circle cx="11.86" cy="11.86" r="11.86" fill="#d4963d"/><circle cx="10.543" cy="10.543" r="10.543" transform="translate(1.318 1.318)" fill="#ffb54a"/><path d="M914.048,554.527c2.044-1.557,6.2-.594,8.594,2.554s2.132,7.291.088,8.847-5.646.267-8.044-2.882S912,556.083,914.048,554.527Z" transform="translate(-903.264 -550.886)" fill="#ffd69c"/><circle cx="1.796" cy="1.796" r="1.796" transform="translate(2.755 11.417)" fill="#ffe5ea" opacity="0.4"/><ellipse cx="0.546" cy="0.968" rx="0.546" ry="0.968" transform="translate(3.153 15.634) rotate(-26.664)" fill="#fdc5c7" opacity="0.4"/></g><g transform="translate(60.93 238.904)"><circle cx="5.985" cy="5.985" r="5.985" fill="#d4963d"/><circle cx="5.32" cy="5.32" r="5.32" transform="translate(0.665 0.665)" fill="#ffb54a"/><path d="M905.167,570.911c1.032-.786,3.127-.3,4.338,1.289s1.076,3.678.045,4.465-2.849.134-4.06-1.455S904.136,571.7,905.167,570.911Z" transform="translate(-899.726 -569.074)" fill="#ffd69c"/><circle cx="0.906" cy="0.906" r="0.906" transform="translate(1.39 5.761)" fill="#ffe5ea" opacity="0.4"/><ellipse cx="0.276" cy="0.488" rx="0.276" ry="0.488" transform="translate(1.591 7.89) rotate(-26.664)" fill="#fdfdfd" opacity="0.4"/></g><g transform="translate(55.16 247.89)"><circle cx="5.985" cy="5.985" r="5.985" fill="#d4963d"/><circle cx="5.32" cy="5.32" r="5.32" transform="translate(0.665 0.665)" fill="#ffb54a"/><path d="M899.6,579.583c1.032-.785,3.127-.3,4.336,1.289s1.077,3.68.044,4.465-2.848.135-4.059-1.455S898.567,580.368,899.6,579.583Z" transform="translate(-894.157 -577.746)" fill="#ffd69c"/><circle cx="0.906" cy="0.906" r="0.906" transform="translate(1.39 5.761)" fill="#ffe5ea" opacity="0.4"/><ellipse cx="0.276" cy="0.488" rx="0.276" ry="0.488" transform="translate(1.591 7.89) rotate(-26.664)" fill="#fdfdfd" opacity="0.4"/></g><g transform="translate(48.511 254.612)"><circle cx="5.985" cy="5.985" r="5.985" fill="#d4963d"/><circle cx="5.32" cy="5.32" r="5.32" transform="translate(0.665 0.665)" fill="#ffb54a"/><path d="M893.182,586.069c1.032-.786,3.127-.3,4.337,1.29s1.076,3.678.044,4.464-2.848.135-4.059-1.454S892.15,586.855,893.182,586.069Z" transform="translate(-887.74 -584.232)" fill="#ffd69c"/><circle cx="0.906" cy="0.906" r="0.906" transform="translate(1.39 5.761)" fill="#ffe5ea" opacity="0.4"/><ellipse cx="0.276" cy="0.488" rx="0.276" ry="0.488" transform="translate(1.591 7.89) rotate(-26.664)" fill="#fdfdfd" opacity="0.4"/></g><g transform="translate(47.177 242.048)"><circle cx="5.985" cy="5.985" r="5.985" fill="#d4963d"/><circle cx="5.32" cy="5.32" r="5.32" transform="translate(0.665 0.665)" fill="#ffb54a"/><path d="M891.9,573.945c1.032-.785,3.127-.3,4.337,1.289s1.077,3.678.045,4.465-2.85.135-4.059-1.455S890.863,574.73,891.9,573.945Z" transform="translate(-886.453 -572.108)" fill="#ffd69c"/><circle cx="0.906" cy="0.906" r="0.906" transform="translate(1.39 5.761)" fill="#ffe5ea" opacity="0.4"/><ellipse cx="0.276" cy="0.488" rx="0.276" ry="0.488" transform="translate(1.591 7.89) rotate(-26.664)" fill="#fdfdfd" opacity="0.4"/></g><g transform="translate(51.544 200.72)"><circle cx="5.985" cy="5.985" r="5.985" fill="#d4963d"/><circle cx="5.32" cy="5.32" r="5.32" transform="translate(0.665 0.665)" fill="#ffb54a"/><path d="M894.1,534.94c.48-1.205,2.525-1.868,4.381-1.13s2.818,2.6,2.34,3.8-2.373,1.584-4.229.847S893.622,536.145,894.1,534.94Z" transform="translate(-890.72 -532.23)" fill="#ffd69c"/><circle cx="0.906" cy="0.906" r="0.906" transform="translate(2.27 7.565)" fill="#ffe5ea" opacity="0.4"/><ellipse cx="0.276" cy="0.488" rx="0.276" ry="0.488" transform="matrix(0.535, -0.845, 0.845, 0.535, 3.201, 9.882)" fill="#fdfdfd" opacity="0.4"/></g><g transform="translate(44.546 210.97)"><circle cx="11.86" cy="11.86" r="11.86" fill="#d4963d"/><circle cx="10.543" cy="10.543" r="10.543" transform="translate(1.318 1.318)" fill="#ffb54a"/><path d="M890.555,547.45c.95-2.387,5-3.7,8.682-2.239s5.585,5.147,4.635,7.535-4.7,3.139-8.378,1.677S889.605,549.838,890.555,547.45Z" transform="translate(-883.854 -542.079)" fill="#ffd69c"/><circle cx="1.796" cy="1.796" r="1.796" transform="translate(4.498 14.99)" fill="#ffe5ea" opacity="0.4"/><ellipse cx="0.546" cy="0.968" rx="0.546" ry="0.968" transform="matrix(0.535, -0.845, 0.845, 0.535, 6.344, 19.582)" fill="#fdc5c7" opacity="0.4"/></g><g transform="translate(47.244 232.379)"><circle cx="5.985" cy="5.985" r="5.985" fill="#d4963d"/><circle cx="5.32" cy="5.32" r="5.32" transform="translate(0.665 0.665)" fill="#ffb54a"/><path d="M889.951,565.494c.48-1.205,2.525-1.868,4.381-1.13s2.818,2.6,2.34,3.8-2.373,1.583-4.228.846S889.472,566.7,889.951,565.494Z" transform="translate(-886.57 -562.784)" fill="#ffd69c"/><circle cx="0.906" cy="0.906" r="0.906" transform="translate(2.27 7.565)" fill="#ffe5ea" opacity="0.4"/><ellipse cx="0.276" cy="0.488" rx="0.276" ry="0.488" transform="matrix(0.535, -0.845, 0.845, 0.535, 3.201, 9.882)" fill="#fdfdfd" opacity="0.4"/></g><circle cx="41.345" cy="41.345" r="41.345" transform="translate(0 264.394)" fill="#d4963d"/><circle cx="39.171" cy="39.171" r="39.171" transform="translate(2.073 266.515)" fill="#ffb54a"/><circle cx="38.267" cy="38.267" r="38.267" transform="translate(2.977 267.418)" fill="#d4a45f"/><path d="M880.8,625.52a17.611,17.611,0,0,1-1.118-3.463,24.868,24.868,0,0,1,1.953-14.079c1.758-4.158,6.125-10.1,11.4-8.333,5.194,1.742,5.217,8.355,3.988,12.69a28.87,28.87,0,0,1-6.484,11.562,19.456,19.456,0,0,1-5.226,4.473C883,629.479,881.679,627.492,880.8,625.52Z" transform="translate(-839.705 -329.128)" fill="#ffd69c"/><path d="M887.988,630.462a17.616,17.616,0,0,1,3.406-1.281,24.857,24.857,0,0,1,14.155,1.28c4.237,1.558,10.384,5.637,8.867,10.993-1.492,5.272-8.1,5.61-12.485,4.589a28.88,28.88,0,0,1-11.858-5.926,19.464,19.464,0,0,1-4.717-5.007C884.138,632.845,886.061,631.431,887.988,630.462Z" transform="translate(-839.502 -328.066)" fill="#ffd69c" opacity="0.51"/><path d="M881.391,639.8a17.587,17.587,0,0,1,1.048,3.485A24.853,24.853,0,0,1,880.2,657.32c-1.841,4.122-6.326,9.98-11.567,8.1-5.159-1.845-5.049-8.458-3.734-12.767a28.87,28.87,0,0,1,6.715-11.43,19.462,19.462,0,0,1,5.315-4.369C879.274,635.8,880.554,637.811,881.391,639.8Z" transform="translate(-840.256 -327.78)" fill="#ffd69c"/><path d="M875.717,633.028a17.64,17.64,0,0,1-3.476,1.073,24.863,24.863,0,0,1-14.053-2.131c-4.134-1.811-10.024-6.253-8.188-11.508,1.808-5.173,8.421-5.111,12.74-3.827a28.875,28.875,0,0,1,11.479,6.63,19.468,19.468,0,0,1,4.407,5.283C879.7,630.882,877.7,632.178,875.717,633.028Z" transform="translate(-840.78 -328.527)" fill="#ffd69c" opacity="0.51"/><path d="M876.842,638.6c-1.621.687-2.683,2.393-3.622,3.789-.485.72-.951,1.458-1.376,2.215a18.25,18.25,0,0,0-2.37,5.985c-.145.884-.217,1.947.4,2.483a2.749,2.749,0,0,0,2.687.146c.613-.422,1.075-1.292.791-1.7a.811.811,0,0,0-1-.163c-.261.176-.148.468-.4.666a1.036,1.036,0,0,1-1.284-.209c-.209-.252-.212-.593-.1-1.188a8.628,8.628,0,0,1,.932-2.558,8,8,0,0,1,1.881-2.549c.581-.481,1.663-1.377,2.445-1.065.848.338.809,2.079.762,3.86-.022.781-.216,6.141-2.742,8.709a8.675,8.675,0,0,1-1.352,1.1,4.709,4.709,0,0,1-2.433.994,4.465,4.465,0,0,1-1.093-.032.957.957,0,0,0-.881.46.9.9,0,0,0,.024.975.891.891,0,0,0,.55.328,7.462,7.462,0,0,0,1.652-.024c2.485-.315,4.132-1.826,5.6-3.206a14.915,14.915,0,0,0,3.926-5.42,15.508,15.508,0,0,0,1-6.746,13.738,13.738,0,0,0-1.406-6.081,2.222,2.222,0,0,0-.675-.777,1.812,1.812,0,0,0-1.468-.145A3.993,3.993,0,0,0,876.842,638.6Z" transform="translate(-840.118 -327.715)" fill="#ffb54a"/><path d="M885.208,626.564c1.62-.69,2.678-2.4,3.614-3.8.483-.721.947-1.459,1.371-2.217a18.225,18.225,0,0,0,2.356-5.991c.143-.883.213-1.947-.405-2.482a2.751,2.751,0,0,0-2.687-.14c-.612.423-1.071,1.294-.787,1.7a.809.809,0,0,0,1,.162c.26-.177.146-.469.4-.668a1.039,1.039,0,0,1,1.285.207c.209.252.213.593.1,1.188a8.615,8.615,0,0,1-.925,2.56,8.008,8.008,0,0,1-1.876,2.553c-.58.482-1.661,1.38-2.443,1.07-.848-.336-.813-2.078-.769-3.859.019-.78.2-6.141,2.722-8.714a8.657,8.657,0,0,1,1.349-1.1,4.71,4.71,0,0,1,2.431-1,4.489,4.489,0,0,1,1.094.029.954.954,0,0,0,.88-.462.9.9,0,0,0-.026-.974.885.885,0,0,0-.551-.327,7.5,7.5,0,0,0-1.653.027c-2.483.32-4.127,1.835-5.589,3.218a14.912,14.912,0,0,0-3.914,5.429,15.515,15.515,0,0,0-.989,6.748,13.73,13.73,0,0,0,1.42,6.078,2.231,2.231,0,0,0,.676.776,1.815,1.815,0,0,0,1.469.142A4,4,0,0,0,885.208,626.564Z" transform="translate(-839.64 -328.949)" fill="#ffb54a"/><path d="M874.755,632.379a16.164,16.164,0,0,1-3.195.985,22.833,22.833,0,0,1-12.91-1.958c-3.8-1.663-9.21-5.744-7.522-10.571,1.661-4.752,7.736-4.7,11.7-3.516a26.512,26.512,0,0,1,10.545,6.091,17.9,17.9,0,0,1,4.048,4.852C878.418,630.408,876.577,631.6,874.755,632.379Z" transform="translate(-840.738 -328.501)" fill="#ffd69c" opacity="0.51"/><path d="M889.178,631.166a15.781,15.781,0,0,1,3.045-1.145,22.223,22.223,0,0,1,12.658,1.145c3.788,1.393,9.284,5.04,7.929,9.829-1.335,4.715-7.241,5.016-11.165,4.1a25.813,25.813,0,0,1-10.6-5.3,17.378,17.378,0,0,1-4.218-4.477C885.735,633.3,887.455,632.032,889.178,631.166Z" transform="translate(-839.447 -328.034)" fill="#ffd69c" opacity="0.51"/><path d="M1120.428,389.458a127.5,127.5,0,0,1-25.2,36.2,166.267,166.267,0,0,0,13.569-20.135c22.127-38.582-12.456-76.172-78.106-59.938q-9.225,2.286-17.418,5.08c17.665-10.573,42.748-12.113,62.8-11.135h.01c19.533,2.479,35.38,9.72,42.75,22.5C1123.4,369.964,1123.549,379.353,1120.428,389.458Z" transform="translate(-834.858 -338.54)" fill="#ad864e"/></g><g transform="translate(812.894 463.725)"><circle cx="11.86" cy="11.86" r="11.86" fill="#d4963d"/><circle cx="10.543" cy="10.543" r="10.543" transform="translate(1.318 1.318)" fill="#ffb54a"/><path d="M818.555,464.636c.95-2.387,5-3.7,8.682-2.239s5.585,5.148,4.635,7.535-4.7,3.139-8.378,1.677S817.605,467.024,818.555,464.636Z" transform="translate(-811.854 -459.265)" fill="#ffd69c"/><circle cx="1.796" cy="1.796" r="1.796" transform="translate(4.498 14.99)" fill="#ffe5ea" opacity="0.4"/><ellipse cx="0.546" cy="0.968" rx="0.546" ry="0.968" transform="matrix(0.535, -0.845, 0.845, 0.535, 6.344, 19.582)" fill="#fdc5c7" opacity="0.4"/></g><g transform="translate(821.294 527.424)"><circle cx="11.86" cy="11.86" r="11.86" fill="#d4963d"/><circle cx="10.543" cy="10.543" r="10.543" transform="translate(1.318 1.318)" fill="#ffb54a"/><path d="M826.662,526.111c.949-2.388,5-3.7,8.681-2.24s5.585,5.148,4.635,7.535-4.7,3.14-8.378,1.677S825.711,528.5,826.662,526.111Z" transform="translate(-819.96 -520.739)" fill="#ffd69c"/><circle cx="1.796" cy="1.796" r="1.796" transform="translate(4.498 14.99)" fill="#ffe5ea" opacity="0.4"/><ellipse cx="0.546" cy="0.968" rx="0.546" ry="0.968" transform="matrix(0.535, -0.845, 0.845, 0.535, 6.344, 19.582)" fill="#fdc5c7" opacity="0.4"/></g><g transform="translate(789.599 501.612)"><circle cx="5.959" cy="5.959" r="5.959" fill="#d4963d"/><circle cx="5.297" cy="5.297" r="5.297" transform="translate(0.662 0.662)" fill="#ffb54a"/><path d="M792.852,498.571c.478-1.2,2.515-1.86,4.362-1.125s2.806,2.586,2.329,3.786-2.363,1.577-4.21.842S792.375,499.771,792.852,498.571Z" transform="translate(-789.485 -495.872)" fill="#ffd69c"/><circle cx="0.902" cy="0.902" r="0.902" transform="translate(2.26 7.532)" fill="#ffe5ea" opacity="0.4"/><ellipse cx="0.275" cy="0.486" rx="0.275" ry="0.486" transform="matrix(0.535, -0.845, 0.845, 0.535, 3.188, 9.839)" fill="#fdc5c7" opacity="0.4"/></g></g></svg>