<svg xmlns="http://www.w3.org/2000/svg" width="176.847" height="114.214" viewBox="0 0 176.847 114.214"><defs><style>.a{fill:#084593;}.b{fill:#0556ab;}.c{fill:#18b0ff;}.d{fill:#2cceff;}</style></defs><path class="a" d="M638.136,8692.059a53.422,53.422,0,1,0,53.423,53.423,53.423,53.423,0,0,0-53.423-53.423Z" transform="translate(-547.87 -8692.059)"/><path class="b" d="M602.293,8725.095a43.867,43.867,0,0,0-51.967,65.589c.225-.1,60.589-25.382,97.288-40.114C627.336,8738.344,608.733,8727.56,602.293,8725.095Z" transform="translate(-542.773 -8695.724)"/><path class="c" d="M734.123,8776.791a35.5,35.5,0,0,0-46.016-33.874c-3.67,1.143-13.456,4.944-25.99,9.978,30.864,18.6,65.544,40.513,67.247,41.588A35.266,35.266,0,0,0,734.123,8776.791Z" transform="translate(-557.276 -8698.045)"/><path class="d" d="M715.909,8796.083c-1.706-1.075-36.383-22.983-67.247-41.588-36.7,14.729-97.066,40.015-97.291,40.111,1.536,2.262,13.179,19.254,36.3,19.254h97.1A35.467,35.467,0,0,0,715.909,8796.083Z" transform="translate(-543.818 -8699.646)"/></svg>