<svg xmlns="http://www.w3.org/2000/svg" width="59.953" height="75.734" viewBox="0 0 59.953 75.734"><defs><style>.a,.c{fill:#fff;}.a{stroke:#201600;stroke-miterlimit:500;stroke-width:0.5px;}.b{fill:#0c489b;}.d{fill:#201600;fill-rule:evenodd;}</style></defs><g transform="translate(0.25 0.25)"><rect class="a" width="59.453" height="75.234"/><rect class="b" width="57.843" height="73.704" transform="translate(0.863 0.746)"/><rect class="c" width="47.967" height="47.967" transform="translate(5.802 5.884)"/><path class="d" d="M539.632,178.283l-10.9,11.521a2.338,2.338,0,0,1-2.485-2.485l11.566-10.94Z" transform="translate(-510.294 -146.208)"/><path class="d" d="M544.29,173.494l-1.762-1.675,2.516-2.374a3.847,3.847,0,0,0,1.083-3.021,3.45,3.45,0,0,1,1.456-2.745l4.847-3.446c.317-.23.711.251.438.525l-4.267,4.266a.348.348,0,0,0,.491.493l4.268-4.267c.283-.317.788.173.48.482L549.574,166a.348.348,0,0,0,.493.49l4.266-4.264c.307-.307.8.2.481.48l-4.267,4.267a.349.349,0,0,0,.493.493l4.268-4.267c.283-.285.754.131.524.437l-3.446,4.846a3.681,3.681,0,0,1-3.326,1.465,3.442,3.442,0,0,0-2.44,1.074Z" transform="translate(-512.391 -144.121)"/><path class="d" d="M537.345,169.94l2.338,2.141,14.057,13.284a2.349,2.349,0,0,1-2.492,2.492L537.968,173.8l-2.145-2.339c-1.815.777-4.59-.085-6.753-2.247-2.567-2.569-3.3-6-1.638-7.664s5.1-.93,7.664,1.637C537.258,165.348,538.121,168.123,537.345,169.94Z" transform="translate(-510.332 -144.183)"/></g></svg>