<svg xmlns="http://www.w3.org/2000/svg" width="88.957" height="88.957" viewBox="0 0 88.957 88.957"><defs><style>.a{fill:#fff;}.b{fill:#cd0300;}.c{fill:#000301;}.d{fill:none;stroke:#000301;stroke-miterlimit:10;}</style></defs><g transform="translate(5.097 7.052)"><circle class="a" cx="39.382" cy="39.382" r="39.382"/></g><path class="b" d="M536.129,539.271a44.479,44.479,0,1,1,44.478-44.479A44.529,44.529,0,0,1,536.129,539.271Zm0-79.982a35.5,35.5,0,1,0,35.5,35.5A35.544,35.544,0,0,0,536.129,459.289Z" transform="translate(-491.65 -450.314)"/><g transform="translate(15.9 32.526)"><rect class="c" width="43.558" height="7.612" transform="translate(0 20.205)"/><rect class="c" width="2.108" height="7.612" transform="translate(44.437 20.205)"/><rect class="c" width="2.108" height="7.612" transform="translate(47.598 20.205)"/><rect class="c" width="2.108" height="7.612" transform="translate(50.76 20.205)"/><g transform="translate(45.158)"><path class="d" d="M561.855,487.358c0,2.767-.665,2.767-.665,5.533s.665,2.768.665,5.537-.665,2.768-.665,5.537" transform="translate(-561.19 -487.358)"/></g><g transform="translate(48.32)"><path class="d" d="M565.456,487.358c0,2.767-.665,2.767-.665,5.533s.665,2.768.665,5.537-.665,2.768-.665,5.537" transform="translate(-564.791 -487.358)"/></g><g transform="translate(51.482)"><path class="d" d="M569.056,487.358c0,2.767-.664,2.767-.664,5.533s.664,2.768.664,5.537-.664,2.768-.664,5.537" transform="translate(-568.392 -487.358)"/></g></g><g transform="translate(13.059 13.056)"><rect class="b" width="79.898" height="8.974" transform="translate(0 56.5) rotate(-45.004)"/></g></svg>