<svg xmlns="http://www.w3.org/2000/svg" width="72.1" height="91.105" viewBox="0 0 72.1 91.105"><defs><style>.a,.c{fill:#fff;}.a{stroke:#201600;stroke-miterlimit:500;stroke-width:0.5px;}.b{fill:#0c489b;}.d{fill:#201600;fill-rule:evenodd;}</style></defs><g transform="translate(0.25 0.25)"><rect class="a" width="71.6" height="90.605"/><rect class="b" width="69.66" height="88.762" transform="translate(1.039 0.898)"/><rect class="c" width="57.767" height="57.767" transform="translate(6.987 7.086)"/><path class="d" d="M803.071,257.278,798.784,231.9H802.5l2.709,17.429L808.49,231.9H812.8l3.148,17.726,2.759-17.726h3.652L818,257.278h-3.849L810.571,238.3,807,257.278Zm32.635-9.33,3.515,1.569a12.415,12.415,0,0,1-2.689,6.177,6.251,6.251,0,0,1-4.771,2.015,6.87,6.87,0,0,1-5.883-3.452q-2.3-3.456-2.3-9.445,0-6.334,2.315-9.842a7.025,7.025,0,0,1,6.091-3.506,6.386,6.386,0,0,1,5.354,2.756,11.519,11.519,0,0,1,1.841,4.674l-3.593,1.211a6,6,0,0,0-1.33-3.12,3.161,3.161,0,0,0-2.456-1.142,3.708,3.708,0,0,0-3.243,2.027q-1.241,2.019-1.242,6.559,0,4.812,1.226,6.855a3.63,3.63,0,0,0,3.184,2.045,3.091,3.091,0,0,0,2.489-1.3A8.81,8.81,0,0,0,835.707,247.948Z" transform="translate(-783.133 -208.618)"/></g></svg>