<svg xmlns="http://www.w3.org/2000/svg" width="33.684" height="71.633" viewBox="0 0 33.684 71.633"><defs><style>.a{fill:#616e7d;}.b{fill:#82bfab;}.c{fill:#fff;}</style></defs><path class="a" d="M617.323,219.951v50.315h33.684V219.951a3.464,3.464,0,0,0-3.368-3.46v.159H620.7v-.159A3.466,3.466,0,0,0,617.323,219.951Z" transform="translate(-617.323 -198.633)"/><path class="b" d="M621.384,213h26.944V194.985H621.384V213Zm16.24-10.291h5.539v5.537h-5.539Zm-11.08,0h5.544v5.537h-5.544Z" transform="translate(-618.012 -194.985)"/><rect class="c" width="5.543" height="5.538" transform="translate(8.532 7.727)"/><rect class="c" width="5.539" height="5.538" transform="translate(19.612 7.727)"/><path class="c" d="M636.015,227.239l-3.031,5.2h2.2v15.095c-3.486-.216-3.835-2.09-3.862-5.74a2.652,2.652,0,1,0-1.668,0c.017,3.6.318,7.115,5.53,7.406v4.341a2.653,2.653,0,1,0,1.667,0v-7.247c2.322-.158,3.849-1,4.65-2.561a11.736,11.736,0,0,0,.768-5.215h1.478v-4.547H639.2v4.547h1.4a10.525,10.525,0,0,1-.584,4.455c-.358.7-1.049,1.489-3.166,1.652V232.436h2.2Z" transform="translate(-619.105 -200.456)"/></svg>