<svg xmlns="http://www.w3.org/2000/svg" xmlns:xlink="http://www.w3.org/1999/xlink" width="528" height="464.8" viewBox="0 0 528 464.8"><defs><style>.a,.k{fill:none;}.b{clip-path:url(#a);}.c{fill:#bed5d9;opacity:0.49;}.d{fill:#c2934e;}.e{fill:#caa267;}.f{fill:#f0c659;}.g{fill:#8c7cc9;}.h{fill:#f1c759;}.i{opacity:0.3;}.j{opacity:0.5;}.k{stroke:#8c7cc9;stroke-miterlimit:10;stroke-width:0.368px;}.l{opacity:0.15;}.m{fill:#cacaca;}.n{fill:#0a0059;}.o{fill:#7f7f7f;}</style><clipPath id="a"><path class="a" d="M989.222,710.227s-135.037-8.318-176.84-82.4,28.6-114.787,56.1-131.289,60.506-29.7,74.807-133.112S1043.4,247.913,1080.255,253.414s61.421,38.5,75.54,61.6,46.021,58.948,95.524,97.13,102.309,129.123,61.606,224.464-138.062,78.015-138.062,78.015S1057.976,722.516,989.222,710.227Z" transform="translate(-799.433 -252.32)"/></clipPath></defs><g transform="translate(-799.433 -252.32)"><g transform="translate(799.433 252.32)"><g class="b"><rect class="c" width="609.744" height="597.755" transform="translate(-33.114 -40.123)"/><g transform="translate(96.923 125.033)"><path class="d" d="M1047.151,409.51c.559,1.384,3.883,16.819,6.757,19.862s12.236,2.392,11.906,3.222-7.025,16.737-18.627,17.953-8.147-7.327-8.147-7.327a22.754,22.754,0,0,0-1.175-18.635C1032.743,414.769,1047.151,409.51,1047.151,409.51Z" transform="translate(-861.837 -354.49)"/><g transform="translate(156.316)"><ellipse class="e" cx="25.571" cy="18.997" rx="25.571" ry="18.997" transform="translate(0 63.019) rotate(-81.107)"/><g transform="translate(2.541)"><g transform="translate(1.419 6.774)"><path class="f" d="M1036.9,385.69s29.674,22.936,24.539-7.127C1057.883,357.763,1016.754,369.448,1036.9,385.69Z" transform="translate(-1022.897 -367.39)"/><path class="f" d="M1043.757,379.571s-19.852,7.749-19.784,18.7c0,0,1.024-32.5,19.219-30.431s24.919,4.907,17.994,38.348C1061.186,406.191,1060.169,378.551,1043.757,379.571Z" transform="translate(-1023.973 -367.338)"/></g><path class="f" d="M1040.036,368.837s2.481-9.783,12.233-6.791,13.139,9.3,13.677,15.148,1.3,10.3,2.721,10.523c0,0-4.94,3.538-6.143,1.906,0,0,2.1,10.7-3.909,18.255,0,0,.171-13.084-6.732-15.624S1040.036,368.837,1040.036,368.837Z" transform="translate(-1020.217 -361.476)"/><path class="f" d="M1043.479,368.161s-6.459-5.352-15.138,3.357l-5.607,7.757s1.2,1.633,4.275.68c0,0-2.863,9.7-2.385,15.509l6.882-16.236Z" transform="translate(-1022.734 -360.741)"/></g></g><path class="g" d="M1163.388,616.574c-1.368,9.82-17.917,15.82-30.163,32.493-5.933,8.083-21.821,14.5-35.941,15.02-34.692,1.334-62.818,4.6-104.611-15.02C944.6,626.5,981.524,542.844,978.742,533.415c-3.656-12.453,63.991-48.513,68.372-49.962s71.349-5.612,73.281-4.968S1167.24,588.873,1163.388,616.574Z" transform="translate(-871.867 -344.467)"/><g transform="translate(117.174 300.926)"><path class="h" d="M1001.525,631.928c2.431.221,3.739.282,5.476.464,12.308-.294,65.462-1.7,94.2-4.578,10.139-1.017,17.239-2.216,18.432-3.623a1.089,1.089,0,0,1,0,.116c-.006,1.569-.119,19.547-.352,43.115-.459,46.525,7.361,112.792,13.94,132.723,1.42,4.3-64.867.564-64.867.564-2.315-47.892-1.449-132.183-4.592-135.824-3.825-4.428-6.4,69.792-10.378,131.978-25.836,7.858-67.4,5.567-67.04,2.9C990.631,768.134,1001.525,631.928,1001.525,631.928Z" transform="translate(-986.344 -624.191)"/><g class="i" transform="translate(63.885)"><path d="M1042.712,630.1l-.595-.023S1042.328,630.086,1042.712,630.1Z" transform="translate(-1042.117 -623.334)"/><path class="j" d="M1042.636,630.959c15.884.56,50.38-3.145,50.38-3.145,10.139-1.017,17.239-2.216,18.433-3.623a1.117,1.117,0,0,1,0,.116c-.006,1.569-.119,19.547-.352,43.115a11.839,11.839,0,0,1-1.672-.117,12.988,12.988,0,0,1-8.638-5.51,28.263,28.263,0,0,1-3.555-6.57C1084.443,633.584,1047.728,631.189,1042.636,630.959Z" transform="translate(-1042.041 -624.191)"/></g><g transform="translate(17.74 3.624)"><line class="k" x1="9.067" y2="173.602" transform="translate(0 0.789)"/><line class="k" x1="9.074" y2="170.586" transform="translate(16.778 3.527)"/><line class="k" x1="6.326" y2="169.278" transform="translate(35.784 2.823)"/><line class="k" x2="1.911" y2="34.924" transform="translate(57.768 2.145)"/><line class="k" x2="4.448" y2="172.236" transform="translate(75.148 1.392)"/><line class="k" x2="6.827" y2="173.579" transform="translate(90.099 0.637)"/><line class="k" x2="11.149" y2="174.39" transform="translate(104.799)"/></g><path class="k" d="M998.436,645.912s94.566.308,119.305-5.166" transform="translate(-984.585 -621.783)"/><path class="k" d="M1062.162,659.906c-32.691,8.808-64.809-1.487-64.809-1.487" transform="translate(-984.743 -619.213)"/><path class="k" d="M1053.536,657.951s30.165,6.97,56.03-1.139" transform="translate(-976.571 -619.446)"/><path class="k" d="M996.428,669.541s24.343,11.26,62.714,3.321" transform="translate(-984.878 -617.595)"/><path class="k" d="M995.314,682.787s37.525,9.55,62.8,2.7" transform="translate(-985.039 -615.668)"/><path class="k" d="M994.191,695.947s19.507,13.768,62.941,5.332" transform="translate(-985.203 -613.754)"/><path class="k" d="M992.876,711.085s29.415,13.578,63.634,1.968" transform="translate(-985.394 -611.553)"/><path class="k" d="M991.644,724.955s21,13.38,64.092,3.214" transform="translate(-985.573 -609.535)"/><path class="k" d="M990.343,739.176s28.755,13.28,64.863-.018" transform="translate(-985.762 -607.469)"/><path class="k" d="M989.29,750.274s17.284,15.017,65.286,1.251" transform="translate(-985.916 -605.853)"/><path class="k" d="M988.027,762.875s27.437,12.776,65.918.782" transform="translate(-986.099 -604.02)"/><path class="k" d="M1055.331,671.531s12.9,9.6,54.735.249" transform="translate(-976.31 -617.306)"/><path class="k" d="M1056.21,684.922s17.826,7.279,53.369-.619" transform="translate(-976.182 -615.448)"/><path class="k" d="M1056.124,699.962s27.33,6.846,54.145-2.345" transform="translate(-976.195 -613.511)"/><path class="k" d="M1056.33,712.246s26.734,10.364,55.057-2.385" transform="translate(-976.165 -611.731)"/><path class="k" d="M1056.544,725.733s25.349,7.561,56.222-2.435" transform="translate(-976.134 -609.776)"/><path class="k" d="M1056.768,738.688s21.458,8.4,57.609-2.495" transform="translate(-976.101 -607.901)"/><path class="k" d="M1057.277,749.964s25.549,11.621,58.94-1.2" transform="translate(-976.027 -606.072)"/><path class="k" d="M1057.389,764.387s28.84,8.271,61.365-1.958" transform="translate(-976.011 -604.085)"/></g><path class="l" d="M1043.2,564.256c2.625-2.292,10.048,6.122,19.976,4.091,9.23-1.889,14.288-11.509,14.922-12.756,5.631-11.083-.825-18.672,1.443-30.565,1.406-7.374,6.316-17.183,22.141-27.2,7.044,56.822,10.83,87.363,10.83,87.363h0l-58.964,5.055C1042.021,571.067,1041.565,565.684,1043.2,564.256Z" transform="translate(-861.002 -341.644)"/><path class="e" d="M1119.206,555.332,1108.938,583.2s-34.912-9.53-57.647-20.9-36.594-30.074-43.928-30.074-28.053,4.859-29.7,7.609,3.85,4.951,6.875,5.226,9.351-1.1,9.351-1.1-3.025,5.776-5.5,11,2.75,9.075,4.4,9.625c0,0,4.676,6.05,8.527,6.05,0,0,7.15,7.708,13.476,6.055s-.551-6.33-.551-6.33a17.193,17.193,0,0,0,8.8.826,26.573,26.573,0,0,0,8.251-2.75s11.6,4.707,18.556,12.879c15.194,17.845,34.415,48.376,46.991,55.418,18.335,10.268,26.769,16.135,38.5,10.634s32.454-42.938,37.4-63.806C1172.744,583.567,1139.008,582.1,1119.206,555.332Z" transform="translate(-870.477 -336.641)"/><path class="g" d="M1194.678,597.3c-7.209,22.572-28.667,59.253-50.824,70.016a34.459,34.459,0,0,1-8.544,2.875c-26.608,5.243-71.958-35.8-90.495-78.479,5.773-8.773,2.254-11.269,8.026-20.042,13.489,9.359,30.932,15.868,47.513,14.293a10.937,10.937,0,0,0,5.715-1.759,9.865,9.865,0,0,0,3.117-5.221c2.495-8.394.551-17.19-1.139-25.526a188.5,188.5,0,0,1-3.311-25.125c-.1-1.6-1.588-12.6-.23-13.453-20.893,13.154-82.768-2.771-103.662,10.383-7.991,5.025,25.01,39.141,17.019,44.166-12.752,67.233-8.291,50.733-17.019,67.383-30.793,6.117-54-19.514-56.136-42.351-4.059-43.374-12.729-79.582,15.4-117.447,30.058-40.464,82.02-53.193,90.495-44.926a21.145,21.145,0,0,0,7.278,5.542,13.057,13.057,0,0,0,2.99.874,16.844,16.844,0,0,0,8.98-1.288c7.555-3.013,11.257-9.13,12.845-10.913,4.289-4.852,17.26-5.243,32.656-1.057,16.006,4.346,34.635,13.649,48.848,28.022C1210.88,500.471,1201.06,577.295,1194.678,597.3Z" transform="translate(-875.882 -352.62)"/><g transform="translate(124.958 188.952)"><path d="M994.051,544.21a.9.9,0,0,1-.3-.052.912.912,0,0,1-.557-1.163,96.315,96.315,0,0,1,7.512-16.131.911.911,0,1,1,1.545.964,96.255,96.255,0,0,0-7.338,15.772A.911.911,0,0,1,994.051,544.21Z" transform="translate(-993.14 -526.436)"/></g><g transform="translate(133.482 196.928)"><path d="M1001.494,549.247a.909.909,0,0,1-.885-1.132c.093-.367,2.283-9.022,5.909-14.321a.912.912,0,1,1,1.505,1.029c-3.444,5.034-5.623,13.649-5.645,13.734A.912.912,0,0,1,1001.494,549.247Z" transform="translate(-1000.582 -533.399)"/></g><path class="d" d="M986.323,596.93s-9.018.282-16.345-3.1a29.27,29.27,0,0,1-11.137-9.011l18.154-4.507,23.266,3.665S999.428,594.535,986.323,596.93Z" transform="translate(-873.171 -329.648)"/><path class="m" d="M1043.563,605.043,913.385,584.669,884.049,469.378l125.8,15.388Z" transform="translate(-884.049 -345.782)"/><path class="n" d="M993.874,482.812l3.783,1.1,31.49,110.388,33.749-5.457,6.323,6.867-41.63,7.379Z" transform="translate(-868.075 -343.829)"/><path class="m" d="M1058.837,576.157l-33.749,5.457-3.3-11.584Z" transform="translate(-864.016 -331.143)"/><path class="e" d="M948.267,576.608s13.386,14.513,21.277,16.627,23.25-9.865,25.645-13.105,0-3.8-1.972-3.522-6.623,3.945-6.623,3.945,9.018-14.091,6.623-16.345-14.037,13.811-14.037,13.811,1.073-20.293-1.322-20.434-8.173,17.949-8.173,17.949-7.468-19.217-10.85-19.217,1.832,19.305,1.832,19.305-13.1-5.778-15.641-5.214S948.267,576.608,948.267,576.608Z" transform="translate(-875.273 -333.138)"/><path class="o" d="M959.557,524.525c2.944,8.734.038,17.6-6.49,19.8s-14.2-3.1-17.146-11.832-.038-17.6,6.49-19.8S956.615,515.79,959.557,524.525Z" transform="translate(-876.671 -339.555)"/><path class="l" d="M1100.406,425.247c-4.749,4.369-21.146,10.211-28.333,10.211-9.142,0-12.349,9.786-20.375,9.624-6.232-.126-8.2-5.2-8.763-7.451a13.056,13.056,0,0,0,2.99.874,16.843,16.843,0,0,0,8.98-1.288c7.555-3.013,11.258-9.13,12.845-10.913C1072.039,421.452,1085.01,421.062,1100.406,425.247Z" transform="translate(-860.939 -352.62)"/></g></g></g></g></svg>