<svg xmlns="http://www.w3.org/2000/svg" xmlns:xlink="http://www.w3.org/1999/xlink" width="993" height="489.345" viewBox="0 0 993 489.345"><defs><style>.a,.w{fill:none;}.b{fill:#bed5d9;opacity:0.49;}.c{fill:#b35328;}.d{fill:#e9e9e9;}.e{fill:#8e94a0;}.f{fill:#4b3d64;}.g{fill:#cecfd4;}.h{fill:#fff;}.i{fill:#8c7cc9;}.j{fill:#f0c659;}.k{fill:#bec9f2;}.l{fill:#8a7cc7;}.m{font-size:9px;}.m,.n,.o{font-family:Helvetica;}.n{font-size:10px;}.n,.o{letter-spacing:-0.07em;}.o{font-size:8px;}.p{clip-path:url(#a);}.q,.r{fill:#caa267;}.q{fill-rule:evenodd;}.s{fill:#5e5586;}.t{fill:#f1c759;}.u{opacity:0.3;}.v{opacity:0.5;}.w{stroke:#8c7cc9;stroke-miterlimit:10;stroke-width:0.423px;}.x{fill:#c2934e;}.y{opacity:0.15;}.z{fill:#979797;}.aa{fill:#cacaca;}.ab{fill:#7f7f7f;}.ac{fill:#5e5587;}</style><clipPath id="a"><rect class="a" width="545.523" height="487.405"/></clipPath></defs><g transform="translate(-439.759 -334.512)"><path class="b" d="M540.325,733.425a455.661,455.661,0,0,0,88.185.449A373.468,373.468,0,0,0,759.115,696.75c45.365-22.548,87.878-55.6,129.637-84.208C932.8,582.364,1005.4,507.185,969.2,449.292,963,439.387,953,432.5,942.75,426.9c-40.852-22.331-104.929-35.316-146.412-7.8-28.286,18.76-46.939,68.43-83.232,72.665-54.146,6.318-110.548,6.775-162.917,23.378C495.378,532.516,397,605.291,425.995,674.914,441.642,712.489,491.2,728.079,540.325,733.425Z" transform="translate(19 -69.011)"/><g transform="translate(556.046 364.392)"><path class="c" d="M561.824,528.417h0a1,1,0,0,1-.59-1.278l.81-2.2,1.867.688-.81,2.2A1,1,0,0,1,561.824,528.417Z" transform="translate(-520.006 -418.668)"/><path class="c" d="M571.1,531.836h0a1,1,0,0,1-.589-1.277l.81-2.2c.054-.148,1.859.708,1.859.708l-.8,2.179A1,1,0,0,1,571.1,531.836Z" transform="translate(-518.879 -418.255)"/><path class="d" d="M561.645,528.125h0a1,1,0,0,1-.59-1.277l.886-2.406a1,1,0,0,1,1.277-.59h0a1,1,0,0,1,.59,1.277l-.886,2.406A1,1,0,0,1,561.645,528.125Z" transform="translate(-520.027 -418.808)"/><path class="d" d="M570.906,531.536h0a1,1,0,0,1-.59-1.277l.886-2.406a1,1,0,0,1,1.277-.59h0a1,1,0,0,1,.59,1.277l-.886,2.406A1,1,0,0,1,570.906,531.536Z" transform="translate(-518.903 -418.394)"/><rect class="e" width="6.524" height="4.23" transform="translate(39.113 132.285) rotate(20.217)"/><rect class="e" width="6.524" height="4.23" transform="translate(41.903 125.289) rotate(20.217)"/><path class="f" d="M863.806,675.127H532.42c-3.679,0-7.566-1.856-7.959-7.261V662.9l36.274-67.027a11.543,11.543,0,0,1,10.34-6.411H824.669c4.732,0,15.166,9.32,17.282,13.553l29.925,61v2.191C871.95,672.565,867.842,675.127,863.806,675.127Z" transform="translate(-524.461 -410.838)"/><path class="g" d="M863.832,668.87H532.447c-3.68,0-9.738-3.227-7.463-7.195l35.776-72.059A11.545,11.545,0,0,1,571.1,583.2H824.695a12.49,12.49,0,0,1,11.173,6.908l35.414,70.865C873.764,665.5,867.868,668.87,863.832,668.87Z" transform="translate(-524.458 -411.597)"/><rect class="g" width="271.379" height="171.483" rx="8.848" transform="translate(36.25)"/><rect class="h" width="250.444" height="148.592" transform="translate(46.669 9.353)"/><path class="f" d="M732.94,660.083H635.294a1.76,1.76,0,0,1-1.738-2.039l4.118-25.721a2.859,2.859,0,0,1,2.824-2.408h88.071a2.513,2.513,0,0,1,2.487,2.151l3.774,25.864A1.907,1.907,0,0,1,732.94,660.083Z" transform="translate(-511.224 -405.928)"/><path class="i" d="M825.648,629H560.342c-2.944,0-5.19-1.13-4.724-2.38l11.188-30.026c.6-1.619,3.855-2.811,7.673-2.811h239.3c3.391,0,6.268,1.069,6.757,2.511l10.255,30.195C831.188,627.816,828.774,629,825.648,629Z" transform="translate(-520.687 -410.314)"/><g transform="translate(34.171 176.762)"><rect class="g" width="276.671" height="1.397" transform="translate(0 11.877)"/><rect class="g" width="276.671" height="1.397" transform="translate(0 18.864)"/><rect class="g" width="276.671" height="1.397" transform="translate(0 27.248)"/><rect class="g" width="276.671" height="1.397" transform="translate(0 34.933)"/><rect class="g" width="2.096" height="46.112" transform="translate(33.507 0.746) rotate(17.439)"/><rect class="g" width="2.096" height="46.112" transform="translate(53.768 0.746) rotate(17.439)"/><rect class="g" width="2.096" height="46.112" transform="translate(69.838 0.746) rotate(17.439)"/><rect class="g" width="2.096" height="46.112" transform="translate(85.907 0.746) rotate(17.439)"/><rect class="g" width="2.096" height="46.112" transform="translate(102.675 0.746) rotate(17.439)"/><rect class="g" width="2.096" height="46.112" transform="translate(119.689 0.222) rotate(10.978)"/><rect class="g" width="2.096" height="46.112" transform="translate(134.143)"/><rect class="g" width="2.096" height="46.112" transform="translate(242.562 1.374) rotate(-17.439)"/><rect class="g" width="2.096" height="46.112" transform="translate(222.999 1.374) rotate(-17.439)"/><rect class="g" width="2.096" height="46.112" transform="translate(203.436 1.374) rotate(-17.439)"/><rect class="g" width="2.096" height="46.112" transform="translate(183.874 1.374) rotate(-17.439)"/><rect class="g" width="2.096" height="46.112" transform="translate(164.311 1.374) rotate(-17.439)"/><rect class="g" width="2.096" height="46.112" transform="translate(144.749 1.374) rotate(-17.439)"/></g><g transform="translate(79.098 53.068)"><rect class="h" width="167.461" height="98.499"/></g><g transform="translate(54.202 12.289)"><g transform="translate(0.362 0.362)"><rect class="j" width="233.591" height="11.613"/></g><rect class="k" width="14.494" height="140.485" transform="translate(0.362 0.362)"/><path class="l" d="M807.113,582.337H572.8V441.128H807.113Zm-233.591-.724H806.388V441.852H573.521Z" transform="translate(-572.797 -441.128)"/><g transform="translate(14.493 0.362)"><rect class="l" width="0.725" height="140.485"/></g><g transform="translate(0.362 11.613)"><rect class="l" width="233.591" height="0.725"/></g><text class="m" transform="translate(4.191 19.382)"><tspan x="0" y="0">1</tspan></text><text class="m" transform="translate(4.191 31.984)"><tspan x="0" y="0">2</tspan></text><text class="m" transform="translate(4.191 44.586)"><tspan x="0" y="0">3</tspan></text><text class="m" transform="translate(4.191 57.959)"><tspan x="0" y="0">4</tspan></text><text class="m" transform="translate(4.191 70.562)"><tspan x="0" y="0">5</tspan></text><text class="m" transform="translate(4.191 83.165)"><tspan x="0" y="0">6</tspan></text><text class="m" transform="translate(4.191 95.768)"><tspan x="0" y="0">7</tspan></text><text class="m" transform="translate(4.191 109.141)"><tspan x="0" y="0">8</tspan></text><text class="m" transform="translate(4.191 121.744)"><tspan x="0" y="0">9</tspan></text><text class="n" transform="translate(1.498 135.732)"><tspan x="0" y="0">10</tspan></text><text class="o" transform="translate(37.013 7.323)"><tspan x="0" y="0">A</tspan></text><text class="o" transform="translate(94.64 7.323)"><tspan x="0" y="0">B</tspan></text><text class="o" transform="translate(148.512 7.323)"><tspan x="0" y="0">C</tspan></text><text class="o" transform="translate(205.948 7.323)"><tspan x="0" y="0">D</tspan></text><rect class="l" width="55.137" height="12.525" transform="translate(14.856 115.073)"/><rect class="l" width="55.137" height="12.525" transform="translate(124.223 115.073)"/><rect class="j" width="54.774" height="12.525" transform="translate(124.042 63.524)"/><rect class="j" width="54.774" height="12.525" transform="translate(124.404 24.863)"/><rect class="j" width="54.774" height="12.525" transform="translate(14.856 63.524)"/><rect class="j" width="54.774" height="12.525" transform="translate(15.218 24.863)"/><rect class="j" width="54.774" height="12.525" transform="translate(69.449 102.338)"/><rect class="l" width="54.412" height="12.525" transform="translate(69.63 38.112)"/><rect class="l" width="54.412" height="12.525" transform="translate(69.63 76.411)"/><g transform="translate(69.268 0.362)"><rect class="l" width="0.725" height="140.485"/></g><g transform="translate(124.042 0.362)"><rect class="l" width="0.725" height="140.485"/></g><g transform="translate(178.816 0.362)"><rect class="l" width="0.725" height="140.485"/></g><g transform="translate(0.362 24.5)"><rect class="l" width="233.591" height="0.725"/></g><g transform="translate(0.362 37.387)"><rect class="l" width="233.591" height="0.725"/></g><g transform="translate(0.362 50.274)"><rect class="l" width="233.591" height="0.725"/></g><g transform="translate(0.362 63.162)"><rect class="l" width="233.591" height="0.725"/></g><g transform="translate(0.362 76.049)"><rect class="l" width="233.591" height="0.725"/></g><g transform="translate(0.362 88.936)"><rect class="l" width="233.591" height="0.725"/></g><g transform="translate(0.362 101.823)"><rect class="l" width="233.591" height="0.725"/></g><g transform="translate(0.362 114.71)"><rect class="l" width="233.591" height="0.725"/></g><g transform="translate(0.362 127.597)"><rect class="l" width="233.591" height="0.725"/></g></g></g><g transform="translate(887.236 336.451)"><g class="p"><g transform="translate(0.001 61.078)"><g transform="translate(0 249.315)"><path class="q" d="M873.29,624.269S867,617.1,859.67,615.655c-4.359-.857-4.211-1.957-4.945-2.317-2.437-1.2-.223,3.511,3.454,4.846,2.989,1.085,4.468,6.329,6.243,7.5s7.14,3.409,8.527,2.753S873.29,624.269,873.29,624.269Z" transform="translate(-835.807 -613.145)"/><path class="q" d="M894.557,633.356c-1.339-.51-15.306-9.674-23.039-10.709s-19.33-1.837-23.291-3.141c-4.659-1.534-5.927.289-.581,2.586,3.475,1.493,10.623,3.879,12.222,4.01.775.063-4.256-.824-9.707-2.19-5.794-1.451-12.066-3.36-12.4-2.33-.646,2,16,7.226,18.955,7.669a74.773,74.773,0,0,1-7.78-1.268c-3.5-.771-7.5-2.187-8.322-1.488-1.3,1.1,7.474,4.966,14.8,6.292.119.243-2.277.519-10.874-1.638-.865-.216-3.1.073-.3,1.509,5.892,3.023,8.2,4.759,16.894,5.388,8.476.613,17.917-.749,23.938,1.549Z" transform="translate(-837.744 -612.442)"/></g><path class="i" d="M884.052,658.213c6.794,2.659,56.124,11.7,101.406,1.761,28.579-6.265,55.533-20.112,69.17-47.9,35.238-71.841-47.1-112.592-47.1-112.592a1.488,1.488,0,0,0-.123.2c-3.569,5.39-80.322,120.543-133.578,138.512C873.824,638.188,872.975,653.869,884.052,658.213Z" transform="translate(-833.367 -377.624)"/><path class="r" d="M1184.4,761.73s-1.713,158.424,4.994,160.571c12.039,3.928,58.915,16.133,8.458,16.9-25.629,3.769-24.234-2.15-25.056-6.993-.672-3.956-12.009-144.631-14.008-155.474-.448-2.429-.718-3.9-.718-3.9Z" transform="translate(-798.869 -345.798)"/><path class="r" d="M1089.928,751.779s-11.334,157.425-18.1,159.383c-12.144,3.589-59.343,14.473-8.929,16.66,25.513,4.487,24.285-1.469,25.242-6.286.783-3.936,7.146-33.763,9.449-44.547.515-2.414,19.562-124.374,19.562-124.374Z" transform="translate(-813.185 -347.006)"/><path class="s" d="M1091.625,894.758c.558-2.228-15.561-3.856-17.593-2.227s-34.863,4.58-35.318,14.178,44.856,7.191,48.057,7.33S1090.528,899.136,1091.625,894.758Z" transform="translate(-813.355 -330.004)"/><g transform="translate(260.071 238.136)"><path class="t" d="M1078.432,615.155a9.986,9.986,0,0,0,5.872,2.119c13.295-.881,70.7-4.83,101.642-9.29,10.916-1.575,18.537-3.213,19.764-4.808,0,0,0,.045,0,.127.066,1.721.772,21.429,1.6,47.269,1.643,51.01,13.146,123.281,21.176,144.827,1.734,4.65-70.107,3.559-70.107,3.559-4.705-52.383-7.646-144.8-11.213-148.648-4.338-4.68-3.713,76.779-5.152,145.114-27.571,9.784-72.617,9.158-72.349,6.222C1072.848,766.783,1078.432,615.155,1078.432,615.155Z" transform="translate(-1069.669 -603.176)"/><g class="u" transform="translate(61.308)"><path d="M1124.986,612.575l-.644,0S1124.57,612.574,1124.986,612.575Z" transform="translate(-1124.342 -602.035)"/><path class="v" d="M1124.916,613.716c17.2-.107,54.326-5.731,54.326-5.731,10.916-1.575,18.537-3.213,19.764-4.808,0,0,0,.045,0,.127.066,1.721.771,21.429,1.6,47.269a12.74,12.74,0,0,1-1.813-.053c-3.9-.382-7.059-2.511-9.592-5.646a31.173,31.173,0,0,1-4.147-7.04C1170.238,614.7,1130.431,613.737,1124.916,613.716Z" transform="translate(-1124.272 -603.176)"/></g><g transform="translate(19.292 4.461)"><line class="w" x1="1.82" y2="190.672" transform="translate(0 5.208)"/><line class="w" x1="1.967" y2="187.367" transform="translate(18.128 7.446)"/><line class="w" x2="0.944" y2="185.808" transform="translate(37.64 5.937)"/><line class="w" x2="3.672" y2="38.189" transform="translate(54.538 4.484)"/><line class="w" x2="12.729" y2="188.561" transform="translate(73.296 2.871)"/><line class="w" x2="15.363" y2="189.925" transform="translate(89.426 1.364)"/><line class="w" x2="20.073" y2="190.618" transform="translate(105.29)"/></g><path class="w" d="M1076.812,632.789s102.26-3.953,128.756-11.075" transform="translate(-1068.802 -600.926)"/><path class="w" d="M1146.374,645.208c-34.94,11.136-70.14,1.311-70.14,1.311" transform="translate(-1068.872 -598.075)"/><path class="w" d="M1138.256,643.5s32.935,6.271,60.526-3.789" transform="translate(-1061.345 -598.743)"/><path class="w" d="M1075.735,658.87s26.837,11.237,67.96.8" transform="translate(-1068.933 -596.417)"/><path class="w" d="M1075.126,673.751s41.011,8.763,68.029.115" transform="translate(-1069.007 -594.611)"/><path class="w" d="M1074.5,688.536s21.725,14.2,68.3,2.988" transform="translate(-1069.082 -592.817)"/><path class="w" d="M1073.763,705.623s32.429,13.546,68.892-.73" transform="translate(-1069.172 -590.832)"/><path class="w" d="M1073.054,721.128s23.322,13.712,69.445.616" transform="translate(-1069.258 -588.862)"/><path class="w" d="M1072.285,737.428s31.7,13.25,70.13-2.963" transform="translate(-1069.351 -587.243)"/><path class="w" d="M1071.643,749.754s19.379,15.674,70.646-1.591" transform="translate(-1069.429 -585.581)"/><path class="w" d="M1070.84,763.978s30.253,12.758,71.308-2.132" transform="translate(-1069.527 -583.92)"/><path class="w" d="M1140.883,658.608s14.389,9.939,59.191-2.211" transform="translate(-1061.026 -596.717)"/><path class="w" d="M1142.478,673.566s19.609,7.169,57.675-3.1" transform="translate(-1060.833 -595.01)"/><path class="w" d="M1143.08,690.371s29.864,6.264,58.434-5.026" transform="translate(-1060.76 -593.204)"/><path class="w" d="M1143.885,704.116s29.381,10.147,59.417-5.11" transform="translate(-1060.662 -591.546)"/><path class="w" d="M1144.754,719.211s27.755,7.136,60.676-5.219" transform="translate(-1060.557 -589.727)"/><path class="w" d="M1145.609,733.709s23.587,8.235,62.172-5.348" transform="translate(-1060.453 -587.984)"/><path class="w" d="M1146.709,746.347s28.158,11.576,63.671-3.99" transform="translate(-1060.319 -586.285)"/><path class="w" d="M1147.505,762.48s31.563,7.758,66.259-4.929" transform="translate(-1060.223 -584.441)"/></g><path class="x" d="M1068.037,434.042s3.009,14.783,14.266,20.094-20.467,6.111-20.467,6.111,1.344-15.421-2.439-23.626S1068.037,434.042,1068.037,434.042Z" transform="translate(-810.931 -385.794)"/><ellipse class="r" cx="22.108" cy="16.204" rx="22.108" ry="16.204" transform="translate(227.082 47.858) rotate(-68.921)"/><path class="i" d="M973.707,667.042c28.579-6.265,55.533-20.112,69.17-47.9.049.074.1.136.148.21.148.185.295.381.443.6a.635.635,0,0,1,.1.136c3.926,5.366,23.2,31.717,23.2,31.729,6.992,9.109,17.675,17.859,26.154,21.38.554.246,1.12.455,1.637.639,20.788,3.25,107.362-29.65,117.675-37.872,4.652-3.7,6.475-21.07,6.844-39.9.468-22.954-1.194-48.124-2.412-53.429-2.068-8.9-42.942-107.349-107.08-101.121a65.786,65.786,0,0,0-16.689,3.914s-.48.5-1.329,1.255a31.539,31.539,0,0,1-5.8,4.123,24.552,24.552,0,0,1-5.92,2.376,18.149,18.149,0,0,1-12.1-.985c-4.012-1.8-12.923.307-23.741,6.35-15.029,8.382-33.773,24.369-48.234,48a1.482,1.482,0,0,0-.123.2,154.606,154.606,0,0,0-20.727,56.9A366.915,366.915,0,0,0,973.707,667.042Z" transform="translate(-821.617 -384.694)"/><path class="y" d="M1035.061,602.633c.048.076.1.136.152.212.147.187.3.387.438.6.037.04.063.084.1.136,3.927,5.366,23.191,31.727,23.194,31.738,6.994,9.1,17.675,17.857,26.161,21.373-9.645-15.4-38.616-59.734-43.913-79.5C1044.078,596.91,1035.058,602.622,1035.061,602.633Z" transform="translate(-813.798 -368.193)"/><path class="y" d="M1073.974,455.228c.465,1.389,0,2.531-2.347,2.9-7.313,1.143-15.191,3.713-20.17,8.077a5.112,5.112,0,0,1-4.8,1.214c-4.335-1.056-8.546-6.812-10.306-9.395a2.061,2.061,0,0,1-.28-.6c10.821-6.044,19.724-8.149,23.744-6.343a18.12,18.12,0,0,0,12.095.974A9.97,9.97,0,0,1,1073.974,455.228Z" transform="translate(-813.675 -383.574)"/><g transform="translate(235.032)"><g transform="translate(0 4.314)"><path class="j" d="M1060.167,409.315s20.581,24.6,21.793-1.693C1082.8,389.429,1046.318,392.046,1060.167,409.315Z" transform="translate(-1046.165 -394.603)"/><path class="j" d="M1067.282,405.267s-17.994,3.045-19.942,12.307c0,0,6.8-27.271,21.616-22.312s19.911,8.537,8.01,35.559C1076.966,430.822,1081.174,407.3,1067.282,405.267Z" transform="translate(-1047.34 -394.659)"/></g><path class="j" d="M1065.993,395.654s3.861-7.826,11.457-3.579,9.271,10.168,8.649,15.206-.8,8.924.347,9.367c0,0-4.773,2.117-5.479.526,0,0-.2,9.408-6.6,14.729,0,0,2.536-11.021-2.764-14.383S1065.993,395.654,1065.993,395.654Z" transform="translate(-1045.076 -390.812)"/><path class="j" d="M1068.917,395.587s-4.414-5.658-13.254.167l-6.1,5.562s.705,1.591,3.445,1.329c0,0-4.166,7.688-4.829,12.678l8.716-12.5Z" transform="translate(-1047.238 -390.532)"/></g><g transform="translate(238.949 147.212)"><path class="z" d="M1057.464,606.543l93.647,38.329a10.679,10.679,0,0,0,13.917-5.83l26.153-63.919a3.3,3.3,0,0,0,.164-.462,10.638,10.638,0,0,0-6-13.444L1091.7,522.888a10.661,10.661,0,0,0-13.906,5.837l-24.95,60.95-1.213,2.962A10.66,10.66,0,0,0,1057.464,606.543Z" transform="translate(-1050.832 -522.092)"/><path class="aa" d="M1058.692,603.119l93.648,38.329a10.661,10.661,0,0,0,13.906-5.837l24.95-60.95a10.638,10.638,0,0,0-6-13.444l-93.648-38.329a10.661,10.661,0,0,0-13.906,5.837l-24.95,60.95A10.638,10.638,0,0,0,1058.692,603.119Z" transform="translate(-1050.683 -522.092)"/><circle class="ab" cx="8.237" cy="8.237" r="8.237" transform="translate(64.103 51.677)"/></g><path class="y" d="M1192.469,581.313s-8.981-35.673-99.808,4.289,77.451,1.282,77.451,1.282Z" transform="translate(-810.072 -369.472)"/><path class="y" d="M1142.711,499.477s-3.19,96.317,89.293,109.207l1.983.606-6.569-20.469s-54.323-42.061-54.879-43.4S1142.711,499.477,1142.711,499.477Z" transform="translate(-800.735 -377.625)"/><g transform="translate(245.875 47.996)"><g transform="translate(0 172.437)"><path class="q" d="M1106.447,593.255c-1.23-.04-15.138-3.584-21.712-2.264s-16.221,3.908-19.8,3.955c-4.215.055-4.735,1.892.251,2.264,3.241.241,9.714.183,11.05-.157.648-.165-3.687.519-8.5.933-5.114.44-10.744.641-10.727,1.571.033,1.8,15.023,1.4,17.546.935a64.326,64.326,0,0,1-6.677,1.143c-3.062.352-6.7.317-7.177,1.117-.748,1.258,7.46,1.947,13.784.976.165.166-1.706,1.058-9.294,1.708-.763.065-2.5.925.178,1.31,5.633.811,8,1.576,15.234-.342,7.059-1.871,14.35-5.615,19.884-5.43Z" transform="translate(-1057.009 -586.987)"/><path class="q" d="M1086.7,591.1s-7.113-4.072-13.474-3.194c-3.78.522-3.967-.414-4.665-.5-2.314-.29.8,2.916,4.16,2.973,2.732.047,5.4,3.894,7.169,4.352s6.754.776,7.7-.146S1086.7,591.1,1086.7,591.1Z" transform="translate(-1055.704 -587.388)"/></g><path class="i" d="M1162.008,439.275c28.148,13.244,49.031,27.115,76.75,84.981,14.064,29.358,22,60.547,25.579,77.173a20.033,20.033,0,0,1-8.208,20.632c-62.746,43.737-158.915.518-158.915.518-4.429-.293-.648-16.9-.648-16.9,38.359-11.888,68.2-19.51,102.379-16.872-.177-.026-46.982-47.4-55.679-61.729-22.8-37.579-68.308-62.4-64.024-81.074C1080.72,439.545,1133.614,425.916,1162.008,439.275Z" transform="translate(-1054.345 -433.614)"/></g><path class="ac" d="M1169.347,901.719c-.5-2.243,19.072-1.026,21.057.659s30.769,6.917,30.953,16.524-45.039,5.931-48.243,5.98S1170.32,906.126,1169.347,901.719Z" transform="translate(-797.502 -328.958)"/></g></g></g></g></svg>