<svg xmlns="http://www.w3.org/2000/svg" width="435" height="294.762" viewBox="0 0 435 294.762"><defs><style>.a{fill:#bed5d9;opacity:0.49;}.b{opacity:0.1;}.c{fill:#caa267;fill-rule:evenodd;}.d{fill:#8c7cc9;}</style></defs><g transform="translate(-850.703 -362.975)"><g transform="translate(850.703 362.975)"><path class="a" d="M1237.66,583.014c-5.142,3.411-8.684,4.906-16.921,8.028-8.185,3.1-20.988,7.739-44.625,17.394-3.069,1.233-6.323,2.571-9.759,3.987-1.443.6-2.807,1.154-4.145,1.706-1.784.76-3.463,1.469-5.063,2.125-10.7,4.513-17.341,7.424-22.746,9.759-3.8,1.679-7,3.1-10.572,4.539-7.87,3.227-17.183,7.03-27.625,10.782-27.861,10-63.671,19.44-100.557,15.479-45.28-4.854-104.44-31.245-130.7-85.656-4.355-8.972-22.9-47.406-9.392-89.434,9.549-29.723,30.616-47.248,51.289-64.406a235.181,235.181,0,0,1,66.9-38.775c81.564-30.8,158.326-7.451,176.979-1.26,36.6,12.173,126.792,42.185,134.452,107.562C1289.5,521.678,1266.911,563.627,1237.66,583.014Z" transform="translate(-850.703 -362.975)"/></g><g transform="translate(1050.912 508.498)"><path class="b" d="M1120.217,563.321c16.817,12.8,31.77,24.976,45.018,36.546-3.069,1.233-6.323,2.571-9.759,3.987-1.443.6-2.807,1.154-4.145,1.706-1.784.76-3.463,1.469-5.063,2.125-10.7,4.513-17.341,7.424-22.746,9.759-6.663-10.022-12.592-19.493-17.315-27.888-.787-1.443-1.547-2.807-2.282-4.171-5.037-9.366-8.316-17.157-9.05-22.456-.368-2.728-.079-4.8,1-6.113a3.743,3.743,0,0,1,1.626-1.18C1101.066,554.191,1108.307,556.369,1120.217,563.321Z" transform="translate(-1040.034 -499.928)"/><path class="c" d="M1097.779,561.591s2.354-20.481-5.984-34.313c-4.955-8.222-2.979-9.582-3.469-11.28-1.626-5.638-5.948,4.74-2.746,12.566,2.6,6.36-3.647,16.341-2.947,20.886s4.906,16.38,7.973,17.649S1097.779,561.591,1097.779,561.591Z" transform="translate(-1040.576 -501.748)"/><path class="c" d="M1111.96,607.292c-1.125-2.883-6.732-38.549-16.3-52.434s-27.013-37.6-30.676-45.838c-4.309-9.688-9.07-9.07-4.984,2.826,2.656,7.73,11.1,26.625,13.214,29.376a151.917,151.917,0,0,1-11.219-18.256c-1.932-3.779-3.585-3.1-5.511-1.582-3.583,2.823,4.048,13.091,5.946,18.694,0,0-3.194-4.987-7.708-13.444-1.7-3.192-3.707-1.515-5.546-.37s-1.933,3.953,6.584,17.606c.679,1.2,1.185,4.505-7.985-12.493-.914-1.694-6.787-1.919-5.1,3.271,3.689,11.345,3.909,16.668,15.986,29.308,12.691,13.281,24.487,24.241,29.55,37.215Z" transform="translate(-1042.368 -502.288)"/><g transform="translate(40.937 80.551)"><path class="d" d="M1118.862,579.4q14.522,13.89,27.993,27.205c-10.7,4.513-17.341,7.424-22.746,9.76-3.8,1.679-7,3.095-10.572,4.539-7.87,3.227-17.183,7.03-27.625,10.782-3.017-18.653-3.961-29.933-3.961-29.933-1.128-2.388.262-4.88,3.069-7.293,4.433-3.8,12.408-7.425,19.492-10.153.42-.157.814-.314,1.208-.472C1112.881,581.132,1118.862,579.4,1118.862,579.4Z" transform="translate(-1081.558 -579.401)"/></g></g></g></svg>