<svg xmlns="http://www.w3.org/2000/svg" xmlns:xlink="http://www.w3.org/1999/xlink" width="402" height="274.46" viewBox="0 0 402 274.46"><defs><style>.a{fill:none;}.b{opacity:0.49;}.c{fill:#bec9f2;}.d{fill:#a1b4c9;}.e{fill:#e3f9ff;}.f{fill:#bbc9d0;}.g{fill:#717179;}.h{fill:#fff;}.i{fill:#bdd4ed;}.j{fill:#fafbe1;}.k{fill:#5781bf;}.l{fill:#8a7cc7;}.m{fill:#f0c659;}.n{clip-path:url(#a);}</style><clipPath id="a"><path class="a" d="M574.585,532.533l88.621-74.077-10.53-58.773-89.195,69.354Z" transform="translate(-563.481 -399.682)"/></clipPath></defs><g transform="translate(-424.43 -386.255)"><g transform="translate(424.43 386.255)"><g class="b" transform="translate(0 67.096)"><path class="c" d="M674.807,629c-35.59,4.827-49.377,50.868-133.667,49.805-16.823-.213-32.7-9.711-45.837-20.222-6.654-5.324-12.7-13.027-11.668-21.486,1.607-13.224,18.332-18.712,24.723-30.4,1.281-2.344,2.132-5.088,1.5-7.685-1.089-4.5-5.963-6.817-10.29-8.471q-19.926-7.616-40.3-13.978c-11.26-3.515-23.575-7.437-29.955-17.359-3.41-5.3-4.649-11.739-4.852-18.04-.45-13.944,3.922-27.856,11.452-39.6,6.29-9.811,14.892-18.294,25.327-23.486,22.13-11.011,48.467-5.992,72.735-1.3,40.2,7.767,80.858,13.972,121.8,14.5,47.492.617,97.4-5.981,140.562,13.839,11.31,5.193,23.827,12.193,27.421,24.108C844.423,597.754,740.649,620.072,674.807,629Z" transform="translate(-424.43 -471.462)"/></g><g transform="translate(101.272)"><g transform="translate(18.738 76.167)"><g transform="translate(0.007 5.762)"><path class="d" d="M744.16,516.521,675.521,490.5a4.279,4.279,0,0,0-3.775.629l-89.794,74.4-5.11-1.63.786,5.926a1.392,1.392,0,0,0,.9,1.031l68.9,29.558a4.3,4.3,0,0,0,3.842-.528l97.307-79.548a1.31,1.31,0,0,0,.639-1.245l-1.109-6.039-4.451.7Z" transform="translate(-576.842 -490.299)"/></g><path class="e" d="M674.573,483.163a4.4,4.4,0,0,0-3.768.635L577.45,561.2a1.228,1.228,0,0,0,.3,2.256l68.755,29.319a4.077,4.077,0,0,0,3.834-.532l97.131-79.475c1.009-.773.822-1.79-.419-2.285Z" transform="translate(-576.833 -482.981)"/><g transform="translate(97.906 7.921)"><path class="f" d="M701.167,496.727l5.406,2.052,4.457-3.682-5.4-2.057Z" transform="translate(-701.167 -493.04)"/></g><g transform="translate(89.542 14.87)"><path class="f" d="M690.545,505.525l5.374,2.088,4.468-3.7-5.4-2.048Z" transform="translate(-690.545 -501.865)"/></g><g transform="translate(105.689 10.924)"><path class="f" d="M711.05,500.532l5.442,2.065,4.475-3.692-5.435-2.052Z" transform="translate(-711.05 -496.854)"/></g><g transform="translate(105.598 13.408)"><path class="f" d="M710.935,509.344l5.443,2.076,11.3-9.306-5.5-2.105Z" transform="translate(-710.935 -500.009)"/></g><g transform="translate(112.31 15.984)"><path class="f" d="M719.459,512.631l5.453,2.081,11.336-9.308-5.5-2.125Z" transform="translate(-719.459 -503.279)"/></g><g transform="translate(119.165 18.613)"><path class="f" d="M728.164,515.946l5.491,2.139,11.387-9.354-5.536-2.112Z" transform="translate(-728.164 -506.618)"/></g><g transform="translate(83.973 19.473)"><path class="f" d="M683.472,511.384l5.36,2.066,4.455-3.662-5.375-2.077Z" transform="translate(-683.472 -507.711)"/></g><g transform="translate(78.411 24.098)"><path class="f" d="M676.409,517.235l5.354,2.1,4.432-3.683-5.344-2.07Z" transform="translate(-676.409 -513.583)"/></g><g transform="translate(72.857 28.677)"><path class="f" d="M669.356,523.038l5.334,2.123,4.43-3.691-5.333-2.071Z" transform="translate(-669.356 -519.399)"/></g><g transform="translate(98.959 16.486)"><path class="f" d="M702.5,507.594l5.413,2.1,4.459-3.7-5.41-2.07Z" transform="translate(-702.503 -503.917)"/></g><g transform="translate(93.383 21.106)"><path class="f" d="M695.422,513.473l5.383,2.1,4.455-3.689-5.4-2.1Z" transform="translate(-695.422 -509.785)"/></g><g transform="translate(87.763 25.742)"><path class="f" d="M688.286,519.333l5.388,2.122,4.475-3.707-5.407-2.076Z" transform="translate(-688.286 -515.672)"/></g><g transform="translate(82.194 30.348)"><path class="f" d="M681.214,525.185l5.36,2.129,4.47-3.7-5.392-2.094Z" transform="translate(-681.214 -521.521)"/></g><g transform="translate(76.617 34.946)"><path class="f" d="M674.132,531.039l5.356,2.1,4.457-3.659-5.368-2.123Z" transform="translate(-674.132 -527.36)"/></g><g transform="translate(71.08 39.572)"><path class="f" d="M667.1,536.9l5.314,2.1,4.447-3.637-5.345-2.13Z" transform="translate(-667.099 -533.235)"/></g><g transform="translate(65.504 44.138)"><path class="f" d="M660.018,542.689l5.316,2.142,4.435-3.669-5.328-2.129Z" transform="translate(-660.018 -539.033)"/></g><g transform="translate(59.973 48.735)"><path class="f" d="M652.994,548.515l5.275,2.142L662.711,547l-5.323-2.133Z" transform="translate(-652.994 -544.871)"/></g><g transform="translate(54.582 53.203)"><path class="f" d="M646.148,554.179l5.3,2.129,4.427-3.631-5.294-2.131Z" transform="translate(-646.148 -550.546)"/></g><g transform="translate(49.057 57.773)"><path class="f" d="M639.132,559.971,644.4,562.1l4.422-3.62-5.278-2.137Z" transform="translate(-639.132 -556.348)"/></g><g transform="translate(43.52 62.344)"><path class="f" d="M632.1,565.781l5.263,2.166,4.424-3.642-5.275-2.152Z" transform="translate(-632.1 -562.153)"/></g><g transform="translate(37.999 66.917)"><path class="f" d="M625.089,571.573l5.253,2.167,4.425-3.632-5.263-2.148Z" transform="translate(-625.089 -567.961)"/></g><g transform="translate(32.497 71.448)"><path class="f" d="M618.1,577.333l5.225,2.17,4.408-3.618-5.238-2.171Z" transform="translate(-618.102 -573.715)"/></g><g transform="translate(26.997 75.979)"><path class="f" d="M611.117,583.093l5.211,2.192,4.394-3.625-5.218-2.192Z" transform="translate(-611.117 -579.468)"/></g><g transform="translate(106.661 26.26)"><path class="f" d="M712.285,520.007l5.463,2.133,4.489-3.722-5.457-2.088Z" transform="translate(-712.285 -516.329)"/></g><g transform="translate(101.025 30.895)"><path class="f" d="M705.127,525.882l5.446,2.136,4.5-3.715-5.458-2.088Z" transform="translate(-705.127 -522.215)"/></g><g transform="translate(95.425 35.536)"><path class="f" d="M698.015,531.77l5.422,2.136,4.473-3.7-5.417-2.1Z" transform="translate(-698.015 -528.109)"/></g><g transform="translate(89.804 40.155)"><path class="f" d="M690.878,537.665l5.411,2.141,4.486-3.691-5.425-2.14Z" transform="translate(-690.878 -533.975)"/></g><g transform="translate(84.213 44.781)"><path class="f" d="M683.777,543.536l5.377,2.118L693.633,542l-5.4-2.153Z" transform="translate(-683.777 -539.85)"/></g><g transform="translate(78.609 49.404)"><path class="f" d="M676.661,549.395l5.376,2.137,4.465-3.657-5.38-2.153Z" transform="translate(-676.661 -545.721)"/></g><g transform="translate(73.025 53.981)"><path class="f" d="M669.569,555.226l5.363,2.164,4.462-3.671-5.373-2.186Z" transform="translate(-669.569 -551.533)"/></g><g transform="translate(67.636 58.457)"><path class="f" d="M662.726,560.894l5.327,2.162L672.5,559.4l-5.35-2.186Z" transform="translate(-662.726 -557.218)"/></g><g transform="translate(62.058 63.077)"><path class="f" d="M655.642,566.745l5.322,2.164,4.464-3.645-5.35-2.18Z" transform="translate(-655.642 -563.084)"/></g><g transform="translate(56.484 67.666)"><path class="f" d="M648.563,572.556l5.319,2.221,4.445-3.688L653,568.912Z" transform="translate(-648.563 -568.912)"/></g><g transform="translate(50.93 72.241)"><path class="f" d="M641.51,578.362l5.305,2.2,4.425-3.656-5.293-2.188Z" transform="translate(-641.51 -574.722)"/></g><g transform="translate(45.391 76.825)"><path class="f" d="M634.477,584.175l5.266,2.216,4.443-3.654-5.3-2.193Z" transform="translate(-634.477 -580.543)"/></g><g transform="translate(39.849 81.419)"><path class="f" d="M627.439,589.993l5.259,2.242,4.422-3.666-5.271-2.191Z" transform="translate(-627.439 -586.377)"/></g><g transform="translate(113.519 28.901)"><path class="f" d="M720.994,523.361l5.474,2.142,4.5-3.725-5.48-2.094Z" transform="translate(-720.994 -519.683)"/></g><g transform="translate(107.866 33.56)"><path class="f" d="M713.814,529.275l5.475,2.138,4.5-3.711-5.47-2.1Z" transform="translate(-713.814 -525.6)"/></g><g transform="translate(102.223 38.196)"><path class="f" d="M706.649,535.191l5.458,2.144,4.514-3.706-5.478-2.142Z" transform="translate(-706.649 -531.487)"/></g><g transform="translate(96.61 42.838)"><path class="f" d="M699.521,541.084l5.43,2.12,4.49-3.663L704,537.382Z" transform="translate(-699.521 -537.382)"/></g><g transform="translate(90.973 47.481)"><path class="f" d="M692.362,546.965l5.421,2.14,4.5-3.673-5.438-2.155Z" transform="translate(-692.362 -543.278)"/></g><g transform="translate(85.367 52.075)"><path class="f" d="M685.242,552.818l5.4,2.169,4.484-3.685-5.419-2.189Z" transform="translate(-685.242 -549.113)"/></g><g transform="translate(79.754 56.727)"><path class="f" d="M678.114,558.706l5.394,2.189,4.47-3.692-5.395-2.184Z" transform="translate(-678.114 -555.02)"/></g><g transform="translate(74.338 61.203)"><path class="f" d="M671.237,564.38l5.373,2.166,4.463-3.655L675.7,560.7Z" transform="translate(-671.237 -560.705)"/></g><g transform="translate(68.754 65.811)"><path class="f" d="M664.146,570.211l5.347,2.227,4.455-3.7-5.36-2.182Z" transform="translate(-664.146 -566.556)"/></g><g transform="translate(63.16 70.404)"><path class="f" d="M657.042,576.04l5.339,2.209,4.47-3.673-5.362-2.188Z" transform="translate(-657.042 -572.388)"/></g><g transform="translate(57.577 75.003)"><path class="f" d="M649.951,581.878l5.329,2.217,4.459-3.667-5.34-2.2Z" transform="translate(-649.951 -578.229)"/></g><g transform="translate(52.013 79.614)"><path class="f" d="M642.886,587.716l5.322,2.243,4.432-3.678-5.3-2.2Z" transform="translate(-642.886 -584.084)"/></g><g transform="translate(40.908 84.172)"><path class="f" d="M628.783,598.105l5.264,2.207,10.023-8.207-5.317-2.233Z" transform="translate(-628.783 -589.873)"/></g><g transform="translate(131.675 21.231)"><path class="f" d="M744.05,514.607l5.53,2.127,5.726-4.695-5.561-2.1Z" transform="translate(-744.05 -509.943)"/></g><g transform="translate(120.308 31.531)"><path class="f" d="M729.615,526.724l5.525,2.163,4.508-3.745-5.506-2.119Z" transform="translate(-729.615 -523.023)"/></g><g transform="translate(125.976 26.855)"><path class="f" d="M736.813,520.784l5.536,2.158,4.527-3.755-5.534-2.1Z" transform="translate(-736.813 -517.085)"/></g><g transform="translate(80.99 36.205)"><path class="f" d="M679.684,560.343l5.393,2.192,38.286-31.456-5.508-2.119Z" transform="translate(-679.684 -528.959)"/></g><g transform="translate(75.355 68.489)"><path class="f" d="M672.528,573.653l5.422,2.219,4.461-3.695-5.382-2.22Z" transform="translate(-672.528 -569.957)"/></g><g transform="translate(69.773 73.126)"><path class="f" d="M665.44,579.513l5.373,2.246,4.477-3.706-5.387-2.208Z" transform="translate(-665.44 -575.846)"/></g><g transform="translate(64.163 77.743)"><path class="f" d="M658.316,585.366l5.366,2.234,4.479-3.683-5.375-2.208Z" transform="translate(-658.316 -581.709)"/></g><g transform="translate(58.581 82.36)"><path class="f" d="M651.227,591.223l5.341,2.228,4.482-3.663-5.365-2.216Z" transform="translate(-651.227 -587.572)"/></g><g transform="translate(47.429 86.92)"><path class="f" d="M637.064,601.623l5.3,2.243,10.058-8.267-5.345-2.235Z" transform="translate(-637.064 -593.363)"/></g><g transform="translate(21.514 80.571)"><path class="f" d="M604.155,588.893l5.184,2.208,4.394-3.627-5.205-2.174Z" transform="translate(-604.155 -585.3)"/></g><g transform="translate(99.993 23.662)"><path class="f" d="M703.816,516.731l5.417,2.1,4.489-3.691-5.445-2.109Z" transform="translate(-703.816 -513.03)"/></g><g transform="translate(94.386 28.31)"><path class="f" d="M696.7,522.581l5.414,2.149L706.586,521l-5.421-2.069Z" transform="translate(-696.696 -518.933)"/></g><g transform="translate(88.791 32.949)"><path class="f" d="M689.591,528.488l5.4,2.146,4.466-3.711-5.4-2.1Z" transform="translate(-689.591 -524.824)"/></g><g transform="translate(83.203 37.557)"><path class="f" d="M682.495,534.336l5.384,2.139,4.469-3.692-5.392-2.107Z" transform="translate(-682.495 -530.676)"/></g><g transform="translate(77.604 42.16)"><path class="f" d="M675.384,540.17l5.37,2.166,4.471-3.707-5.387-2.108Z" transform="translate(-675.384 -536.521)"/></g><g transform="translate(72.031 46.778)"><path class="f" d="M668.307,546.039l5.357,2.158,4.461-3.686-5.366-2.126Z" transform="translate(-668.307 -542.385)"/></g><g transform="translate(66.472 51.357)"><path class="f" d="M661.247,551.857l5.322,2.157,4.457-3.668-5.352-2.145Z" transform="translate(-661.247 -548.201)"/></g><g transform="translate(61.084 55.827)"><path class="f" d="M654.405,557.518l5.314,2.18,4.438-3.677-5.323-2.145Z" transform="translate(-654.405 -553.877)"/></g><g transform="translate(55.537 60.407)"><path class="f" d="M647.361,563.346l5.3,2.163,4.429-3.646-5.3-2.171Z" transform="translate(-647.361 -559.693)"/></g><g transform="translate(49.994 64.98)"><path class="f" d="M640.322,569.141l5.275,2.186,4.439-3.656-5.3-2.17Z" transform="translate(-640.322 -565.501)"/></g><g transform="translate(44.46 69.546)"><path class="f" d="M633.294,574.934l5.257,2.22,4.418-3.674-5.277-2.18Z" transform="translate(-633.294 -571.299)"/></g><g transform="translate(38.914 74.133)"><path class="f" d="M626.252,580.766l5.276,2.173,4.406-3.618-5.25-2.2Z" transform="translate(-626.252 -577.125)"/></g><g transform="translate(27.757 78.636)"><path class="f" d="M621.972,582.843l-9.889,8.177,11.78,5.018L628.3,592.4l-6.6-2.79,5.536-4.574Z" transform="translate(-612.083 -582.843)"/></g><g transform="translate(64.556 35.564)"><path class="f" d="M658.814,531.809l5.283,2.118,4.443-3.664-5.333-2.118Z" transform="translate(-658.814 -528.144)"/></g><g transform="translate(59.012 40.154)"><path class="f" d="M651.773,537.617l5.3,2.131,4.423-3.667-5.3-2.107Z" transform="translate(-651.773 -533.973)"/></g><g transform="translate(53.502 44.741)"><path class="f" d="M644.777,543.435l5.249,2.117,4.434-3.637-5.3-2.117Z" transform="translate(-644.777 -539.799)"/></g><g transform="translate(47.985 49.32)"><path class="f" d="M637.77,549.222l5.244,2.155,4.411-3.66-5.268-2.1Z" transform="translate(-637.77 -545.614)"/></g><g transform="translate(39.715 56.158)"><path class="f" d="M627.268,557.931l5.23,2.154,4.4-3.64-5.249-2.146Z" transform="translate(-627.268 -554.298)"/></g><g transform="translate(34.224 60.69)"><path class="f" d="M620.3,563.707l5.21,2.17,4.385-3.64-5.226-2.184Z" transform="translate(-620.296 -560.053)"/></g><g transform="translate(28.739 65.241)"><path class="f" d="M613.33,569.464l5.182,2.18,4.39-3.637-5.219-2.175Z" transform="translate(-613.33 -565.832)"/></g><g transform="translate(23.235 69.804)"><path class="f" d="M606.34,575.241l5.2,2.17L615.9,573.8l-5.171-2.17Z" transform="translate(-606.34 -571.627)"/></g><g transform="translate(14.069 74.369)"><path class="f" d="M594.7,584.069l5.16,2.174L607.9,579.6l-5.174-2.176Z" transform="translate(-594.7 -577.425)"/></g><g transform="translate(85.74 49.744)"><path class="f" d="M685.716,570.191l16.669,6.824,29.522-24.169-16.945-6.694Z" transform="translate(-685.716 -546.152)"/></g></g><path class="d" d="M651.589,386.326a1.419,1.419,0,0,0-1.4.34L554.44,461.545a4.253,4.253,0,0,0-1.359,3.658l13.443,77.128a1.307,1.307,0,0,0,.759,1.134h0a.033.033,0,0,0,.036.031l3.444,1.252.12-3.5,92.988-77.724a4.243,4.243,0,0,0,1.342-3.645l-12.357-69.259.691.391,1.569-3.383-3.526-1.3Z" transform="translate(-553.038 -386.255)"/><g transform="translate(3.499 1.255)"><path class="f" d="M654.618,388.281l-95.748,74.883a4.3,4.3,0,0,0-1.344,3.665l13.444,77.139a1.2,1.2,0,0,0,2.119.779L668.3,465.141a4.264,4.264,0,0,0,1.363-3.666l-12.933-72.418C656.517,387.832,655.588,387.473,654.618,388.281Z" transform="translate(-557.482 -387.848)"/></g><g transform="translate(19.327 9.298)"><path class="g" d="M666.2,458.111l-88.621,74.078.326,1.868,90.173-75.375-10.852-60.62-1.556,1.276Z" transform="translate(-577.582 -398.062)"/></g><g transform="translate(8.223 10.573)"><path class="h" d="M574.585,532.533l88.621-74.077-10.53-58.773-89.195,69.354Z" transform="translate(-563.481 -399.682)"/></g></g><g transform="translate(81.166 206.401)"><path class="i" d="M527.5,668.546l35.775-20.177,59.959,19.462v7.3l-36.491,24.327L527.5,675.414l1.145-1.5-.143-4.222Z" transform="translate(-527.504 -648.368)"/><g transform="translate(1.002 21.322)"><path class="j" d="M528.776,675.446,586.3,698.771l36.061-23.325v4.221L587.018,703.35l-58.1-23.683Z" transform="translate(-528.776 -675.446)"/></g><g transform="translate(14.596 29.944)"><path class="k" d="M553.711,686.4s-7.456,3.541-7.671,11.913l14.1,5.366s1.217-9.516,8.388-11.272Z" transform="translate(-546.04 -686.395)"/></g></g><g transform="translate(175.89 81.902)"><rect class="l" width="0.22" height="0.775" transform="matrix(0.981, -0.194, 0.194, 0.981, 0, 0.043)"/></g></g><g transform="translate(533.926 396.828)"><path class="c" d="M563.481,469.037l89.195-69.354.854,4.768-88.882,71.257Z" transform="translate(-563.481 -399.682)"/></g><g transform="translate(563.962 455.708)"><path class="m" d="M601.625,492.281l1.163,7.009,22.6-18.121-1.532-6.713Z" transform="translate(-601.625 -474.456)"/></g><g transform="translate(590.092 458.694)"><path class="m" d="M634.808,496.072l1.163,7.009,22.6-18.121-1.532-6.713Z" transform="translate(-634.808 -478.247)"/></g><g transform="translate(607.665 415.485)"><path class="m" d="M657.124,438.445l1.14,6.87,18.928-14.853-1.27-7.087Z" transform="translate(-657.124 -423.375)"/></g><g transform="translate(533.926 396.828)"><g class="n" transform="translate(0)"><g transform="translate(0.059 3.778)"><g transform="translate(0 0)"><rect class="l" width="116.037" height="0.875" transform="translate(0 72.543) rotate(-38.695)"/></g><g transform="translate(1.241 6.947)"><rect class="l" width="116.036" height="0.875" transform="translate(0 72.542) rotate(-38.695)"/></g><g transform="translate(2.482 13.894)"><rect class="l" width="116.037" height="0.875" transform="translate(0 72.543) rotate(-38.695)"/></g><g transform="translate(3.723 20.84)"><rect class="l" width="116.037" height="0.875" transform="translate(0 72.543) rotate(-38.695)"/></g><g transform="translate(4.964 27.788)"><rect class="l" width="116.036" height="0.875" transform="translate(0 72.542) rotate(-38.695)"/></g><g transform="translate(6.205 34.734)"><rect class="l" width="116.037" height="0.875" transform="translate(0 72.543) rotate(-38.695)"/></g><g transform="translate(7.446 41.681)"><rect class="l" width="116.037" height="0.875" transform="translate(0 72.543) rotate(-38.695)"/></g><g transform="translate(8.688 48.628)"><rect class="l" width="116.037" height="0.875" transform="translate(0 72.543) rotate(-38.695)"/></g><g transform="translate(2.418 62.552)"><rect class="l" width="0.875" height="65.79" transform="translate(0 0.143) rotate(-9.423)"/></g><g transform="translate(24.824 44.4)"><rect class="l" width="0.875" height="65.79" transform="translate(0 0.143) rotate(-9.422)"/></g><g transform="translate(47.229 26.248)"><rect class="l" width="0.875" height="65.79" transform="translate(0 0.143) rotate(-9.422)"/></g><g transform="translate(69.634 8.096)"><rect class="l" width="0.875" height="65.79" transform="translate(0 0.143) rotate(-9.422)"/></g></g></g></g></g></svg>