<svg xmlns="http://www.w3.org/2000/svg" width="372" height="279.189" viewBox="0 0 372 279.189"><defs><style>.a{fill:#bec9f2;opacity:0.49;}.b{fill:#f1c759;}.c{opacity:0.3;}.d{fill:#8c7cc9;}.e{opacity:0.15;}.f{fill:#5e5586;}.g,.h,.k{fill:none;stroke:#8c7cc9;stroke-miterlimit:10;}.g{stroke-width:0.298px;}.h{stroke-width:0.291px;}.i{fill:#979797;}.j{fill:#cacaca;}.k{stroke-width:0.229px;}.l{fill:#c2934e;}.m{fill:#caa267;}.n{fill:#f0c659;}</style></defs><g transform="translate(-525.796 -438.619)"><path class="a" d="M752.449,715.671c-61.153,2.753-91.729,4.13-113.514-4.062C566.154,684.241,505.425,586.9,532.272,510.423c1.4-3.979,21.492-58.734,68.274-70.069,39.17-9.49,57.437,21.055,144.74,64.538,93.466,46.553,129.156,39.747,145.76,77.22C906.767,617.591,893.7,666.4,865.6,692.065,844.707,711.147,813.669,712.915,752.449,715.671Z" transform="translate(0 0)"/><g transform="translate(566.699 459.493)"><g transform="translate(0 58.749)"><path class="b" d="M717.37,683.182s-98.638-68.513-140.362-29.008c-33.317,31.543,25.822,68.6,101.476,58.635,53.251-7.013,59.287,3.174,68.615,2.954,69.408-5.32,162.93-26.084,117.418-58.71-62-44.443-103.94,2.674-125.543,14.4Z" transform="translate(-567.501 -522.083)"/><path class="c" d="M845.216,655.508c-25.926-5.349-124.688,31.275-124.688,31.275s-86.006-25.925-106.581-28.394-30.04,5.35-30.04,5.35,9.709-10.94,20.987-11.934,27.571-3.7,27.571-3.7,164.6-7.819,186.415-2.88S845.216,655.508,845.216,655.508Z" transform="translate(-567.816 -522.185)"/><path class="d" d="M716.613,519.8a53.8,53.8,0,0,0-21.557,4.5c-18.7,8.174-53.516,25.356-54.08,33.746-.745,11.111,16.658,101.246,50.318,112.974a100.608,100.608,0,0,0,31.181,5.191,53.791,53.791,0,0,0,51.667-36.041c10.607-30.253,23.648-73.491,16.239-85.19-8.642-13.646-39.74-26.285-55.506-31.992a53.668,53.668,0,0,0-18.262-3.19Z" transform="translate(-568.913 -519.804)"/><path class="d" d="M660.925,541.119c-58.088,31.126-72.354,87.324-56.991,99.711,10.765,8.68,51.356,27.878,86.538,26.644a573.826,573.826,0,0,1,68.224,2.078s60.354-12.28,72.391-30.368-21.357-76.842-51.3-93.824S660.925,541.119,660.925,541.119Z" transform="translate(-568.091 -520.126)"/><path class="e" d="M774.823,573.992c16.461,8.779,30.8,42.045,30.8,42.045s-37.037,5.761-44.718,11.523,1.1-2.2,5.487-18.107S774.823,573.992,774.823,573.992Z" transform="translate(-571.162 -520.846)"/><path class="e" d="M657.575,571.547c3.841,17.558,22.221,66.577,22.221,66.577s-17.024-19.39-35.116-20.487-24.8-1.372-24.69,3.017c.023.868,3.018-19.478,17.009-32.1S657.575,571.547,657.575,571.547Z" transform="translate(-568.51 -520.799)"/><path class="f" d="M748,715.722s13.579-10.231,31.479-8.38,33.331,5.754,17.9,10.592-31.479,5.455-38.886,4.838A13.438,13.438,0,0,1,748,715.722Z" transform="translate(-570.972 -523.406)"/></g><path class="g" d="M605.614,644.511s-45.742,12.7-28.5,36.876c13.852,19.427,71.422,17.4,101.787,16.624" transform="translate(-567.611 -463.453)"/><path class="h" d="M587.587,661.968s33.383-1.618,59.449,11.554,73.937,18.64,73.937,18.64" transform="translate(-567.887 -463.788)"/><path class="i" d="M768.466,682.527H669.074a8.2,8.2,0,0,1-8.085-6.843L649,604.158a8.2,8.2,0,0,1,8.084-9.552H780.451a8.2,8.2,0,0,1,8.084,9.552l-11.984,71.527A8.2,8.2,0,0,1,768.466,682.527Z" transform="translate(-569.066 -462.493)"/><path class="j" d="M768.466,682.589H669.074a8.117,8.117,0,0,1-8.085-6.6L649,607.048a8,8,0,0,1,8.084-9.208H780.451a8,8,0,0,1,8.084,9.208l-11.984,68.945A8.117,8.117,0,0,1,768.466,682.589Z" transform="translate(-569.066 -462.556)"/><path class="h" d="M586.058,699.505c12.791,5.825,32.526,11.173,59.83,8.793,53.6-4.67,71.261,6.6,71.261,6.6" transform="translate(-567.858 -464.511)"/><path class="f" d="M731.946,712.813c-.594-.1-64.192-16.019-78.389-4.292s47.527,11.927,58.637,9.358S731.946,712.813,731.946,712.813Z" transform="translate(-569.115 -464.601)"/><path class="k" d="M791.391,686.4s51.84-7.358,67.4-21.442" transform="translate(-571.807 -463.846)"/><path class="k" d="M793.022,694.392s49.189-2.312,73.364-18.5" transform="translate(-571.838 -464.057)"/><path class="k" d="M805.486,673.75s6.9,12.614,6.695,26.907" transform="translate(-572.078 -464.015)"/><path class="k" d="M819.17,672.679s4.2,7.568,4.835,24.595" transform="translate(-572.341 -463.995)"/><g transform="translate(127.854)"><path class="l" d="M713.517,508.481s1.229,13.715-7.231,21.3,19.5,0,19.5,0-5.2-13.138-4.035-21.3S713.517,508.481,713.517,508.481Z" transform="translate(-697.993 -460.767)"/><ellipse class="m" cx="14.791" cy="20.18" rx="14.791" ry="20.18" transform="translate(5.195 12.672)"/><g transform="translate(5.02 5.626)"><path class="n" d="M723.526,481.282s-25.606,14.2-18.006-8.6C710.778,456.915,740.99,471.121,723.526,481.282Z" transform="translate(-703.002 -465.639)"/><path class="n" d="M719.792,475.857s14.327,8.5,12.944,17.028c0,0,3.159-25.46-11.086-26.1s-19.76.736-18.5,27.658C703.156,494.443,707.295,473.027,719.792,475.857Z" transform="translate(-702.98 -465.659)"/></g><path class="n" d="M722.173,466.821s-.719-7.933-8.584-6.809-11.234,5.617-12.358,10.111-2.247,7.864-3.37,7.864c0,0,3.37,3.37,4.494,2.247,0,0-2.916,8.08.789,14.712,0,0,1.458-10.219,7.075-11.343S722.173,466.821,722.173,466.821Z" transform="translate(-697.862 -459.903)"/><path class="n" d="M721.917,466.872s5.617-3.37,11.234,4.494l3.371,6.741s-1.124,1.124-3.371,0c0,0,1.024,7.916-.05,12.383l-3.32-13.506Z" transform="translate(-698.325 -460.023)"/></g><path class="d" d="M708.282,523.073s4.414,7.987,11.141,6.1,8.619-2.9,8.619-2.9,9.88,13.2,5.255,15.306-38.048,6.1-39.73-1.261S707.862,523.7,707.862,523.7" transform="translate(-569.923 -461.118)"/><path class="k" d="M617.82,659.214s-22.673,22.167-7.647,49.75" transform="translate(-568.223 -463.736)"/><path class="k" d="M631.511,662.133s-17.232,29.547-7.124,50.885" transform="translate(-568.534 -463.792)"/><path class="c" d="M728.083,688.823l36.22,10.5s11.512,5.22,9.827.728-10.922-6.178-16.833-8.143S728.083,688.823,728.083,688.823Z" transform="translate(-570.589 -464.305)"/></g></g></svg>