<svg xmlns="http://www.w3.org/2000/svg" width="404.035" height="497.999" viewBox="0 0 404.035 497.999"><defs><style>.a{opacity:0.7;}.b{fill:#bec9f2;opacity:0.49;}.c,.d{fill:#caa267;}.c{fill-rule:evenodd;}.e{fill:#c2934e;}.f{fill:#8a7cc7;}.g{fill:#f1c759;}.h{opacity:0.15;}.i{fill:#5e5584;}.j{fill:#5e5587;}.k{opacity:0.3;}.l{opacity:0.5;}.m{fill:#eec459;}.n{fill:#959595;}.o{fill:#c8c8c8;}.p{fill:#7f7f7f;}.q{fill:none;stroke:#8a7cc7;stroke-miterlimit:10;stroke-width:0.747px;}</style></defs><g transform="translate(-876.191 -319.638)"><g class="a" transform="translate(972.62 319.638)"><path class="b" d="M1053.619,670.232c-44.646-54.414-66.969-81.622-74.427-107.322C954.274,477.046,1002.084,354.1,1091,326.154c4.627-1.454,68.883-20.657,111.536,14.617,35.711,29.533,20.164,67.387,40.242,177.72,21.5,118.123,52.34,146.3,29.269,187.392-21.844,38.907-75.789,60.491-118.766,52.288C1121.315,752.068,1098.314,724.706,1053.619,670.232Z" transform="translate(-972.62 -319.638)"/><circle class="b" cx="21.598" cy="21.598" r="21.598" transform="translate(28.514 345.168)"/><circle class="b" cx="9.058" cy="9.058" r="9.058" transform="translate(38.102 401.45)"/><circle class="b" cx="15.605" cy="15.605" r="15.605" transform="translate(263.95 73.298)"/><circle class="b" cx="6.352" cy="6.352" r="6.352" transform="translate(286.633 48.343)"/><circle class="b" cx="4.662" cy="4.662" r="4.662" transform="translate(13.172 325.291)"/><circle class="b" cx="4.662" cy="4.662" r="4.662" transform="translate(287.615 134.79)"/></g><g transform="translate(876.191 321.329)"><g transform="translate(0 31.353)"><path class="c" d="M1003.582,356.513c-1.819-4.3-7.478-7.612-11.255-8.609a37.993,37.993,0,0,1-4.818-1.959c-2.927-.95,1.735,3.156,3.485,3.834,1.424.551,4.01,4.738,5.416,6.168s4.406,3.491,6.007,3.486S1003.362,357.318,1003.582,356.513Z" transform="translate(-971.838 -345.803)"/><path class="c" d="M1016.7,370.163c-3.452-6.034-6.069-13.222-12.6-16.161s-16.248-2.777-21.418-3.508c-6.081-.859-3.514,1.087-.3,1.908,2.085.533,8.831,2.447,10.93,2.408,1.018-.019-8.285-1.47-8.781-1.324s-10.159-2.372-9.484-.608c1.309,3.421,12.192,3.732,15.665,4.449-1.828-.046-4.805-.56-6.567-.611-1.5-.045-6.029-1.637-6.458-.256-.677,2.173,10.479,3.452,11.961,3.556-1.452,1.2-7.062-.5-9.01-.617-.2-.011-1.965.435.176,1.161,4.508,1.528,8,2.934,13.145,3.633s11.172,1.42,14.648,6.069C1011.345,370.078,1014.032,370.525,1016.7,370.163Z" transform="translate(-975.012 -344.573)"/></g><path class="d" d="M1150.119,599.617s-10.41,122.145-5.357,124.186c9.064,3.722,44.534,15.829,5.556,13.529-19.992,1.438-18.575-3.049-18.932-6.832-.291-3.092-.969-112.29-1.889-120.771l-.332-3.048Z" transform="translate(-932.674 -244.741)"/><path class="d" d="M1092.742,600.714s6.54,121.948,1.537,124.106c-8.976,3.931-44.155,16.856-5.241,13.654,20.02.975,18.5-3.478,18.768-7.269.22-3.1,2.217-26.611,2.941-35.113.162-1.9,2.976-97.373,2.976-97.373Z" transform="translate(-948.621 -244.988)"/><path class="e" d="M1118.177,353.572s-.906,11.637,6.339,17.984-16.526.191-16.526.191,4.28-11.186,3.211-18.095S1118.177,353.572,1118.177,353.572Z" transform="translate(-938.49 -313.143)"/><ellipse class="d" cx="12.538" cy="17.106" rx="12.538" ry="17.106" transform="translate(163.024 10.915) rotate(-0.664)"/><path class="f" d="M1033.59,425.878c18.519-39.919,52.181-58.425,73.751-63.484,9.337-2.194,16.407-1.866,19.014.333a14.024,14.024,0,0,0,8.791,3.3,18.97,18.97,0,0,0,4.908-.5,24.361,24.361,0,0,0,5.188-1.832c.8-.38,1.259-.653,1.259-.653a50.8,50.8,0,0,1,13.245.637c49.038,9.013,58.5,90.951,58.147,98.013-.218,4.2-4.34,23.279-9.571,40.255-4.286,13.936-9.332,26.46-13.579,28.233-9.421,3.92-80.828,9.975-95.6,3.137-.346-.254-.72-.525-1.076-.826-5.566-4.421-11.649-13.208-14.916-21.465,0,0-8.722-23.719-10.5-28.546-.019-.047-.029-.085-.048-.122-.06-.19-.129-.371-.2-.54-.02-.068-.05-.124-.069-.19" transform="translate(-958.923 -310.302)"/><path class="g" d="M1086.185,494.4a7.724,7.724,0,0,0,4.41,1.973c10.308.083,54.83.329,78.962-1.338,8.513-.589,14.487-1.415,15.525-2.576a.774.774,0,0,1,0,.1c-.049,1.332-.635,16.578-1.475,36.566-1.66,39.454,3.071,95.88,8.032,112.966,1.069,3.688-54.3-1.276-54.3-1.276-.626-40.689,2.407-112.17-.125-115.343-3.078-3.86-7.269,59.031-12.3,111.678-21.836,5.967-56.558,2.9-56.184.651C1073.177,611.083,1086.185,494.4,1086.185,494.4Z" transform="translate(-949.274 -274.171)"/><path class="h" d="M1063.987,459.407c.019.066.048.122.069.19.069.169.136.35.2.54.019.037.029.075.05.122,1.779,4.827,10.5,28.537,10.5,28.537,3.267,8.266,9.35,17.053,14.916,21.474-3.9-13.508-16.02-52.653-15.756-68.484C1071.911,457.066,1063.987,459.4,1063.987,459.407Z" transform="translate(-950.575 -288.089)"/><path class="h" d="M1154.055,410.047s-22.865,70.975,43.194,100.239l1.346.872-.531-16.625s-31.465-42.847-31.595-43.959S1154.055,410.047,1154.055,410.047Z" transform="translate(-926.889 -296.806)"/><path class="h" d="M1120.115,368.823c.051,1.133-.54,1.883-2.362,1.657-5.684-.706-12.091-.47-16.724,1.717a3.951,3.951,0,0,1-3.829-.117c-3-1.708-4.909-6.886-5.668-9.183a1.589,1.589,0,0,1-.083-.5c9.337-2.194,16.407-1.866,19.014.333a14.025,14.025,0,0,0,8.791,3.3A7.726,7.726,0,0,1,1120.115,368.823Z" transform="translate(-943.032 -310.302)"/><path class="i" d="M1109.654,696.78c.213-1.764-12.32-1.454-13.72-.006s-26.321,6.891-25.742,14.3,35.132,1.179,37.6.975S1109.236,700.247,1109.654,696.78Z" transform="translate(-948.873 -218.388)"/><path class="j" d="M1130.26,694.086c-.253-1.759,14.776.3,16.211,1.717s23.345,7.1,22.936,14.526-35.093,1.992-37.569,1.847S1130.758,697.541,1130.26,694.086Z" transform="translate(-932.374 -218.981)"/><g class="k" transform="translate(177.537 218.291)"><path d="M1114.792,495.516c-.168-.011-.335-.023-.5-.036C1114.295,495.48,1114.471,495.49,1114.792,495.516Z" transform="translate(-1114.295 -491.633)"/><path class="l" d="M1114.685,496.345c13.276.9,42.248-1.307,42.248-1.307,8.513-.589,14.488-1.415,15.525-2.576a.772.772,0,0,1-.005.1c-.048,1.332-.635,16.578-1.475,36.566a10.024,10.024,0,0,1-1.4-.145,10.856,10.856,0,0,1-7.077-4.907,24.079,24.079,0,0,1-2.8-5.67C1149.6,499.7,1118.938,496.676,1114.685,496.345Z" transform="translate(-1114.188 -492.462)"/></g><g transform="translate(160.178)"><g transform="translate(2.732 4.777)"><path class="m" d="M1110.112,338.288s21.844,11.782,15.178-7.464C1120.677,317.508,1095.209,329.846,1110.112,338.288Z" transform="translate(-1102.087 -324.953)"/><path class="m" d="M1113.936,333.447s-12.059,7.346-10.8,14.56c0,0-2.929-21.549,9.141-22.231s16.757.428,15.948,23.261C1128.221,349.037,1124.5,330.925,1113.936,333.447Z" transform="translate(-1102.82 -324.764)"/></g><path class="m" d="M1109.824,327.141s.531-6.731,7.208-5.857,9.579,4.651,10.574,8.45,1.982,6.643,2.934,6.633c0,0-2.823,2.89-3.787,1.948,0,0,2.551,6.821-.524,12.479,0,0-1.336-8.647-6.108-9.545S1109.824,327.141,1109.824,327.141Z" transform="translate(-1098.163 -321.206)"/><path class="m" d="M1112.946,325.936s-4.8-2.8-9.478,3.918l-2.791,5.747s.964.941,2.858-.033c0,0-.79,6.72.163,10.5l2.682-11.482Z" transform="translate(-1100.676 -320.065)"/></g><g transform="translate(145.583 116.814)"><path class="n" d="M1089.342,431.322l12.972,77.212a8.261,8.261,0,0,0,9.506,6.776l52.7-8.859a2.566,2.566,0,0,0,.371-.08,8.233,8.233,0,0,0,6.4-9.426l-12.972-77.213a8.247,8.247,0,0,0-9.506-6.766l-50.255,8.439-2.444.409A8.248,8.248,0,0,0,1089.342,431.322Z" transform="translate(-1089.226 -412.85)"/><path class="o" d="M1091.549,430.831l12.972,77.213a8.248,8.248,0,0,0,9.506,6.766l50.256-8.439a8.232,8.232,0,0,0,6.4-9.426l-12.972-77.213a8.247,8.247,0,0,0-9.506-6.766l-50.255,8.439A8.231,8.231,0,0,0,1091.549,430.831Z" transform="translate(-1088.62 -412.85)"/><circle class="p" cx="6.373" cy="6.373" r="6.373" transform="translate(36.667 45.307)"/></g><path class="h" d="M1183.048,473.7s.909-28.449-75.162-18.044,57.345,17.431,57.345,17.431Z" transform="translate(-944.956 -284.909)"/><g transform="translate(132.019 50.08)"><g transform="translate(0 118.697)"><path class="c" d="M1116.712,465.144c-.906-.292-10.5-5.888-15.67-6.3s-12.9-.543-15.574-1.27c-3.147-.855-3.926.4-.294,1.737a51.044,51.044,0,0,0,8.253,2.234c.518.015-2.854-.4-6.52-1.114-3.9-.761-8.13-1.809-8.314-1.114-.358,1.349,10.878,4.238,12.854,4.429a49.849,49.849,0,0,1-5.209-.571c-2.353-.389-5.054-1.189-5.577-.7-.825.777,5.135,3.036,10.047,3.659.087.157-1.494.423-7.277-.707-.581-.113-2.055.157-.147,1.012,4.018,1.8,5.612,2.873,11.406,2.987,5.649.111,11.87-1.124,15.947.191Z" transform="translate(-1078.584 -452.607)"/><path class="c" d="M1101.043,460.33s-4.426-4.542-9.344-5.243c-2.924-.417-2.864-1.152-3.364-1.365-1.66-.709-.025,2.339,2.463,3.1,2.022.616,3.187,4.046,4.406,4.762s4.86,2.014,5.759,1.53S1101.043,460.33,1101.043,460.33Z" transform="translate(-1076.091 -453.616)"/></g><path class="f" d="M1190.347,375.383c18.123,15.841,30.708,30.6,39.018,79.549,4.215,24.833,3.481,49.721,2.61,62.853a15.5,15.5,0,0,1-10.5,13.6c-55.984,19.189-118.332-33.423-118.332-33.423-3.233-1.16,3.114-12.712,3.114-12.712,31.064-.682,54.882-.005,79.752,9.23-.126-.057-24.867-45.258-28.29-57.767-8.963-32.806-37.539-60.954-30.381-73.935C1129.817,358.29,1172.067,359.4,1190.347,375.383Z" transform="translate(-1072.09 -360.495)"/></g><g transform="translate(134.228 219.158)"><line class="q" x1="12.343" y2="147.022"/><line class="q" x1="12.266" y2="144.464" transform="translate(14.049 2.776)"/><line class="q" x1="9.93" y2="143.428" transform="translate(30.01 2.618)"/><line class="q" x2="0.643" y2="29.678" transform="translate(53.063 2.466)"/><line class="q" x1="0.995" y2="146.228" transform="translate(66.634 2.297)"/><line class="q" x2="0.959" y2="147.432" transform="translate(80.162 2.06)"/><line class="q" x2="4.554" y2="148.237" transform="translate(92.481 1.917)"/></g><path class="q" d="M1081.071,506.238s79.132,2.817,99.986-1.159" transform="translate(-945.883 -270.705)"/><path class="q" d="M1134.129,519.009c-27.6,6.589-54.2-3.013-54.2-3.013" transform="translate(-946.196 -267.707)"/><path class="q" d="M1122.2,516.894s25.054,6.728,46.922.547" transform="translate(-934.587 -267.46)"/><path class="q" d="M1078.963,524.452s20.063,10.21,52.393,4.512" transform="translate(-946.462 -265.385)"/><path class="q" d="M1077.8,534.523s31.142,9.115,52.486,3.991" transform="translate(-946.782 -262.619)"/><path class="q" d="M1076.63,544.528s15.948,12.206,52.529,6.224" transform="translate(-947.102 -259.871)"/><path class="q" d="M1075.269,556.036a76.893,76.893,0,0,0,53.2,3.389" transform="translate(-947.476 -256.71)"/><path class="q" d="M1074,566.579s17.209,11.919,53.55,4.459" transform="translate(-947.825 -253.815)"/><path class="q" d="M1072.673,577.388s23.7,12.042,54.283,1.736" transform="translate(-948.189 -250.846)"/><path class="q" d="M1071.607,585.823s14.054,13.207,54.6,2.826" transform="translate(-948.482 -248.529)"/><path class="q" d="M1070.347,595.4s22.612,11.579,55.145,2.445" transform="translate(-948.828 -245.899)"/><path class="q" d="M1123.212,527.4s10.534,8.494,45.8,1.689" transform="translate(-934.309 -264.575)"/><path class="q" d="M1123.546,537.569s14.718,6.658,44.68.918" transform="translate(-934.217 -261.782)"/><path class="q" d="M1123.116,548.978s22.685,6.548,45.379-.525" transform="translate(-934.335 -258.793)"/><path class="q" d="M1122.969,558.346s22.09,9.514,46.142-.535" transform="translate(-934.376 -256.223)"/><path class="q" d="M1122.8,568.631s21.007,7.1,47.118-.547" transform="translate(-934.423 -253.401)"/><path class="q" d="M1122.648,578.509s17.727,7.708,48.28-.56" transform="translate(-934.464 -250.692)"/><path class="q" d="M1122.749,587.122s21.064,10.548,49.359.575" transform="translate(-934.436 -248.173)"/><path class="q" d="M1122.481,598.047a96.815,96.815,0,0,0,51.409,0" transform="translate(-934.51 -245.173)"/><path class="f" d="M1082.819,482.869s-57.68,25.263-72.359-27.607,4.522-64.826-13.9-86.585l11.615-9.213s40.683,20.921,53.083,54.184S1082.819,482.869,1082.819,482.869Z" transform="translate(-969.092 -310.698)"/></g></g></svg>