<svg xmlns="http://www.w3.org/2000/svg" xmlns:xlink="http://www.w3.org/1999/xlink" width="528" height="464.801" viewBox="0 0 528 464.801"><defs><style>.a,.k{fill:none;}.b{clip-path:url(#a);}.c{fill:#bec9f2;}.c,.j{opacity:0.5;}.d{fill:#c2934e;}.e{fill:#caa267;}.f{fill:#f0c659;}.g{fill:#8c7cc9;}.h{fill:#f1c759;}.i{opacity:0.3;}.k{stroke:#8c7cc9;stroke-miterlimit:10;stroke-width:0.368px;}.l{opacity:0.15;}.m{fill:#cacaca;}.n{fill:#0a0059;}.o{fill:#7f7f7f;}</style><clipPath id="a"><path class="a" d="M1036.906,720.233s-135.037-8.318-176.84-82.4,28.6-114.788,56.1-131.289,60.505-29.7,74.808-133.112,100.108-115.51,136.961-110.009,61.421,38.5,75.54,61.6,46.02,58.948,95.525,97.13,102.308,129.124,61.605,224.465-138.063,78.015-138.063,78.015S1105.66,732.521,1036.906,720.233Z" transform="translate(-847.116 -262.325)"/></clipPath></defs><g transform="translate(-847.116 -262.325)"><g transform="translate(847.116 262.325)"><g class="b"><rect class="c" width="609.744" height="597.755" transform="translate(-33.114 -40.122)"/><g transform="translate(96.923 125.033)"><path class="d" d="M1068.752,402.239c.558,1.383,3.882,16.819,6.756,19.862s12.236,2.392,11.906,3.222-7.025,16.737-18.628,17.953-8.147-7.328-8.147-7.328a22.751,22.751,0,0,0-1.175-18.635C1054.343,407.5,1068.752,402.239,1068.752,402.239Z" transform="translate(-883.437 -347.219)"/><g transform="translate(156.315)"><ellipse class="e" cx="25.571" cy="18.997" rx="25.571" ry="18.997" transform="translate(0 63.019) rotate(-81.107)"/><g transform="translate(2.541)"><g transform="translate(1.419 6.774)"><path class="f" d="M1059.09,383.048s29.673,22.936,24.538-7.128C1080.075,355.122,1038.947,366.807,1059.09,383.048Z" transform="translate(-1045.09 -364.749)"/><path class="f" d="M1066.764,376.891s-19.853,7.748-19.785,18.7c0,0,1.024-32.5,19.219-30.431s24.919,4.907,17.994,38.349C1084.193,403.51,1083.175,375.871,1066.764,376.891Z" transform="translate(-1046.979 -364.658)"/></g><path class="f" d="M1061.277,366.845s2.48-9.784,12.233-6.791,13.139,9.3,13.677,15.149,1.295,10.3,2.72,10.523c0,0-4.942,3.538-6.145,1.9,0,0,2.1,10.7-3.908,18.256,0,0,.171-13.084-6.732-15.623S1061.277,366.845,1061.277,366.845Z" transform="translate(-1041.458 -359.485)"/><path class="f" d="M1066.62,365.613s-6.459-5.352-15.137,3.357l-5.607,7.757s1.2,1.633,4.275.68c0,0-2.863,9.7-2.385,15.511l6.881-16.237Z" transform="translate(-1045.876 -358.193)"/></g></g><path class="g" d="M1192.567,601.729c-1.368,9.82-17.917,15.82-30.163,32.492-5.934,8.084-21.82,14.5-35.94,15.022-34.692,1.333-62.818,4.6-104.612-15.022C973.783,611.655,1010.7,528,1007.921,518.571c-3.657-12.453,63.99-48.514,68.371-49.963s71.35-5.611,73.281-4.966S1196.419,574.029,1192.567,601.729Z" transform="translate(-901.046 -329.623)"/><g transform="translate(117.174 300.926)"><path class="h" d="M1028.666,601.064c2.431.22,3.738.282,5.476.463,12.309-.293,65.462-1.7,94.2-4.577,10.139-1.018,17.239-2.217,18.433-3.624,0,0,0,.041,0,.115-.005,1.571-.118,19.548-.351,43.116-.459,46.525,7.361,112.792,13.941,132.724,1.419,4.3-64.866.562-64.866.562-2.315-47.891-1.449-132.183-4.593-135.822-3.825-4.43-6.4,69.791-10.379,131.978-25.834,7.858-67.4,5.566-67.039,2.9C1017.773,737.267,1028.666,601.064,1028.666,601.064Z" transform="translate(-1013.485 -593.326)"/><g class="i" transform="translate(63.885)"><path d="M1063.723,598.59c-.2-.006-.4-.014-.594-.023C1063.129,598.567,1063.34,598.573,1063.723,598.59Z" transform="translate(-1063.129 -591.822)"/><path class="j" d="M1063.591,600.094c15.884.561,50.38-3.144,50.38-3.144,10.139-1.018,17.239-2.217,18.433-3.624,0,0,0,.041,0,.115-.005,1.571-.118,19.548-.351,43.116a11.762,11.762,0,0,1-1.672-.117,12.98,12.98,0,0,1-8.638-5.509,28.3,28.3,0,0,1-3.557-6.571C1105.4,602.719,1068.682,600.324,1063.591,600.094Z" transform="translate(-1062.996 -593.326)"/></g><g transform="translate(17.741 3.624)"><line class="k" x1="9.067" y2="173.602" transform="translate(0 0.789)"/><line class="k" x1="9.074" y2="170.586" transform="translate(16.778 3.527)"/><line class="k" x1="6.326" y2="169.278" transform="translate(35.784 2.823)"/><line class="k" x2="1.911" y2="34.924" transform="translate(57.768 2.145)"/><line class="k" x2="4.448" y2="172.236" transform="translate(75.148 1.392)"/><line class="k" x2="6.827" y2="173.579" transform="translate(90.099 0.637)"/><line class="k" x2="11.149" y2="174.39" transform="translate(104.799)"/></g><path class="k" d="M1024.248,613.228s94.566.308,119.305-5.167" transform="translate(-1010.398 -589.099)"/><path class="k" d="M1088.094,625.28c-32.692,8.807-64.809-1.488-64.809-1.488" transform="translate(-1010.674 -584.586)"/><path class="k" d="M1073.293,623.5s30.166,6.97,56.029-1.139" transform="translate(-996.328 -584.996)"/><path class="k" d="M1022.461,633.691s24.343,11.26,62.715,3.321" transform="translate(-1010.91 -581.746)"/><path class="k" d="M1021.469,645.482s37.525,9.549,62.8,2.7" transform="translate(-1011.195 -578.364)"/><path class="k" d="M1020.47,657.2s19.508,13.768,62.941,5.333" transform="translate(-1011.482 -575.003)"/><path class="k" d="M1019.3,670.67s29.415,13.578,63.635,1.968" transform="translate(-1011.818 -571.138)"/><path class="k" d="M1018.2,683.015s21,13.381,64.092,3.215" transform="translate(-1012.132 -567.596)"/><path class="k" d="M1017.045,695.676s28.755,13.279,64.863-.018" transform="translate(-1012.464 -563.969)"/><path class="k" d="M1016.107,705.552s17.285,15.017,65.286,1.251" transform="translate(-1012.733 -561.131)"/><path class="k" d="M1014.983,716.768s27.438,12.776,65.919.782" transform="translate(-1013.056 -557.913)"/><path class="k" d="M1074.891,635.463s12.9,9.6,54.734.248" transform="translate(-995.869 -581.238)"/><path class="k" d="M1075.673,647.45s17.826,7.28,53.368-.618" transform="translate(-995.645 -577.976)"/><path class="k" d="M1075.6,661.027s27.331,6.847,54.145-2.345" transform="translate(-995.667 -574.577)"/><path class="k" d="M1075.78,671.964s26.734,10.365,55.056-2.383" transform="translate(-995.614 -571.45)"/><path class="k" d="M1075.97,683.976s25.349,7.56,56.223-2.435" transform="translate(-995.56 -568.019)"/><path class="k" d="M1076.17,695.513s21.456,8.4,57.609-2.5" transform="translate(-995.502 -564.726)"/><path class="k" d="M1076.623,705.409s25.548,11.619,58.939-1.2" transform="translate(-995.372 -561.516)"/><path class="k" d="M1076.722,718.328s28.84,8.272,61.365-1.957" transform="translate(-995.344 -558.027)"/></g><path class="l" d="M1064.169,547.278c2.627-2.292,10.048,6.123,19.976,4.091,9.231-1.888,14.288-11.509,14.923-12.756,5.631-11.083-.825-18.671,1.444-30.565,1.407-7.374,6.315-17.182,22.141-27.2,7.045,56.822,10.83,87.362,10.83,87.362h0l-58.965,5.054C1062.99,554.089,1062.534,548.706,1064.169,547.278Z" transform="translate(-881.971 -324.666)"/><path class="e" d="M1147.335,534.573l-10.268,27.869s-34.912-9.529-57.647-20.9-36.594-30.073-43.928-30.073-28.053,4.859-29.7,7.609,3.85,4.951,6.876,5.225,9.35-1.1,9.35-1.1-3.026,5.777-5.5,11,2.75,9.076,4.4,9.626c0,0,4.675,6.051,8.526,6.051,0,0,7.151,7.707,13.476,6.053s-.55-6.329-.55-6.329a17.2,17.2,0,0,0,8.8.825,26.539,26.539,0,0,0,8.25-2.75s11.6,4.707,18.557,12.879c15.194,17.845,34.415,48.376,46.99,55.418,18.335,10.268,26.77,16.135,38.5,10.635s32.454-42.938,37.4-63.806C1200.873,562.809,1167.137,561.341,1147.335,534.573Z" transform="translate(-898.606 -315.883)"/><path class="g" d="M1226.891,588.618c-7.209,22.572-28.667,59.253-50.824,70.017a34.5,34.5,0,0,1-8.544,2.875c-26.609,5.243-71.96-35.8-90.5-78.479,5.773-8.774,2.255-11.269,8.026-20.043,13.488,9.361,30.932,15.868,47.513,14.293a10.937,10.937,0,0,0,5.715-1.759,9.87,9.87,0,0,0,3.117-5.221c2.494-8.394.551-17.19-1.139-25.527a188.669,188.669,0,0,1-3.312-25.125c-.1-1.6-1.587-12.6-.229-13.453-20.894,13.155-82.768-2.772-103.662,10.383-7.99,5.025,25.011,39.142,17.019,44.167-12.752,67.233-8.29,50.733-17.019,67.382-30.792,6.118-54-19.513-56.136-42.35-4.059-43.373-12.729-79.582,15.4-117.447,30.058-40.465,82.02-53.193,90.495-44.926a21.138,21.138,0,0,0,7.279,5.543,13.117,13.117,0,0,0,2.989.874,16.845,16.845,0,0,0,8.981-1.288c7.554-3.013,11.256-9.129,12.843-10.911,4.289-4.853,17.26-5.244,32.657-1.058,16.006,4.346,34.634,13.649,48.846,28.022C1243.093,491.788,1233.273,568.611,1226.891,588.618Z" transform="translate(-908.095 -343.937)"/><g transform="translate(124.957 188.952)"><path d="M1020.445,524.088a.886.886,0,0,1-.3-.051.912.912,0,0,1-.557-1.162,96.446,96.446,0,0,1,7.513-16.132.911.911,0,0,1,1.544.965,96.368,96.368,0,0,0-7.338,15.772A.91.91,0,0,1,1020.445,524.088Z" transform="translate(-1019.534 -506.314)"/></g><g transform="translate(133.482 196.928)"><path d="M1027.07,528.361a.943.943,0,0,1-.221-.027.913.913,0,0,1-.664-1.105c.093-.367,2.283-9.021,5.909-14.322a.912.912,0,1,1,1.506,1.03c-3.445,5.034-5.624,13.649-5.646,13.734A.91.91,0,0,1,1027.07,528.361Z" transform="translate(-1026.158 -512.512)"/></g><path class="d" d="M1016.487,570.887s-9.017.282-16.345-3.1A29.284,29.284,0,0,1,989,558.777l18.154-4.507,23.267,3.665S1029.592,568.493,1016.487,570.887Z" transform="translate(-903.335 -303.605)"/><path class="m" d="M1081.947,591.192,951.768,570.819,922.433,455.527l125.8,15.388Z" transform="translate(-922.433 -331.932)"/><path class="n" d="M1020.188,467.485l3.783,1.1,31.49,110.388,33.749-5.457,6.323,6.867-41.63,7.379Z" transform="translate(-894.389 -328.502)"/><path class="m" d="M1082.083,551.245l-33.749,5.457-3.3-11.585Z" transform="translate(-887.262 -306.23)"/><path class="e" d="M980.02,553.2s13.386,14.513,21.277,16.628,23.25-9.864,25.645-13.1,0-3.805-1.973-3.524-6.622,3.946-6.622,3.946,9.018-14.09,6.622-16.345-14.036,13.811-14.036,13.811,1.073-20.293-1.323-20.434-8.173,17.949-8.173,17.949-7.468-19.217-10.85-19.217,1.833,19.3,1.833,19.3-13.1-5.777-15.641-5.213S980.02,553.2,980.02,553.2Z" transform="translate(-907.026 -309.732)"/><path class="o" d="M992.367,505.969c2.942,8.734.036,17.6-6.491,19.8s-14.2-3.1-17.146-11.832-.037-17.6,6.49-19.8S989.424,497.235,992.367,505.969Z" transform="translate(-909.481 -320.998)"/><path class="l" d="M1121.328,416.564c-4.749,4.369-21.146,10.21-28.333,10.21-9.141,0-12.349,9.785-20.375,9.625-6.232-.126-8.2-5.2-8.762-7.451a13.117,13.117,0,0,0,2.989.874,16.845,16.845,0,0,0,8.981-1.288c7.554-3.013,11.256-9.129,12.843-10.911C1092.96,412.769,1105.93,412.377,1121.328,416.564Z" transform="translate(-881.861 -343.937)"/></g></g></g></g></svg>