<svg xmlns="http://www.w3.org/2000/svg" xmlns:xlink="http://www.w3.org/1999/xlink" width="525.193" height="309.034" viewBox="0 0 525.193 309.034"><defs><style>.a,.o{fill:none;}.b{fill:#bec9f2;opacity:0.49;}.c{fill:#c2934e;}.d{fill:#8c7cc9;}.e{opacity:0.15;}.f{fill:#caa267;}.g{fill:#f0c659;}.h{clip-path:url(#a);}.i{fill:#c39652;}.j{fill:#5e5586;}.k{fill:#5e5587;}.l{fill:#f1c759;}.m{opacity:0.3;}.n{opacity:0.5;}.o{stroke:#8c7cc9;stroke-miterlimit:10;stroke-width:0.958px;}.p{fill:#cea971;}</style><clipPath id="a"><path class="a" d="M815.429,707.641c14.737,1.4,29.064-4.2,46.6-9.537,20.614-6.272,42.428-10.177,63.625-13.9,42.394-7.441,95.96-16.652,136.765,2.091,70.754,32.5,172.894-29.453,184.615-94.755s-21.767-167.759-82.047-186.856-169.634,13.266-235.514,28.9c-54.65,12.967-114.937,21.343-162.13,54.094-39.678,27.536-50.754,73.555-38.368,118.712C739.705,645.5,769.909,703.3,815.429,707.641Z"/></clipPath></defs><g transform="translate(-724.164 -398.826)"><path class="b" d="M815.429,707.641c14.755,1.194,29.064-4.2,46.6-9.537,20.614-6.272,42.428-10.177,63.625-13.9,42.394-7.441,95.96-16.652,136.765,2.091,70.754,32.5,172.894-29.453,184.615-94.755s-21.767-167.759-82.047-186.856-169.634,13.266-235.514,28.9c-54.65,12.967-114.937,21.343-162.13,54.094-39.678,27.536-50.754,73.555-38.368,118.712C739.705,645.5,746.385,702.053,815.429,707.641Z"/><path class="c" d="M982.574,441.932s-.958,12.391,4.654,21.2c3.771,5.918-3.593,5.459-11.644,4.182-6.18-.979-7.387-4.455-7.387-4.455a8.6,8.6,0,0,0,4.775-5.657c1.284-4.134.612-11.416-.045-15.268C971.56,433.913,982.574,441.932,982.574,441.932Z"/><path class="d" d="M1038.681,532.076l-98.518-65.107L904.13,528.583"/><path class="d" d="M1035.137,571.35c-.318-.947-2.073-1.9-4.86-2.95-.833-.315-1.758-.643-2.768-.986-13.95-4.682-30.231-34.173-40.324-58.738-2.052-5-3.846-9.8-5.322-14.15a123.573,123.573,0,0,1-3.517-12.079c-.933-4.139-1.166-7.043-.53-8.129a.85.85,0,0,1,.819-.475,18.329,18.329,0,0,0,5.4-.721c4.417-1.143,9.34-4.543,12.869-7.361l0,0c2.864-2.289,4.8-4.193,4.8-4.193h.014c.173.008,1.772.075,4.439.418a93.636,93.636,0,0,1,9.687,1.8c1.413.332,2.9.718,4.46,1.161.671.189,1.353.393,2.045.6a102.759,102.759,0,0,1,53.111,37.5"/><path class="e" d="M1075.459,570.6a1.989,1.989,0,0,0-.216.068C1075.336,570.641,1075.407,570.617,1075.459,570.6Z"/><path class="d" d="M855.86,571.757c0-39.862,22.765-107.332,102.349-111.964a13.222,13.222,0,0,1,6.042,1.621c4.076,1.925,8.462,4.976,11.993,5.84a7.465,7.465,0,0,0,1.646.236c7.632.175,13.162-4.036,18.774-5.511l.018-.007.031-.011a12.991,12.991,0,0,1,4.991-.4h.014q2.208.289,4.234.583c2.564.371,4.888.746,6.932,1.1,1.064.185,2.052.367,2.96.535,1.409.265,2.617.5,3.613.707.423.086.808.168,1.151.24,1.331.282,2.045.453,2.045.453s-.1.125-.3.365c-1.119,1.346-5.276,6.35-11.347,13.743-4.993,6.093-11.283,13.807-18.237,22.44l0,0c-1.816,2.254-3.68,4.576-5.577,6.943"/><ellipse class="f" cx="14.53" cy="19.824" rx="14.53" ry="19.824" transform="translate(962.928 409.675)"/><path class="g" d="M972.064,420.053s25.154,13.947,17.688-8.445C984.587,396.115,954.908,410.07,972.064,420.053Z"/><path class="g" d="M975.71,414.7s-14.074,8.35-12.716,16.728c0,0-3.1-25.012,10.89-25.64s19.413.722,18.17,27.17C992.054,432.962,987.988,411.923,975.71,414.7Z"/><path class="g" d="M973.274,405.955s.707-7.793,8.433-6.69,11.036,5.519,12.14,9.933,2.207,7.726,3.311,7.726c0,0-3.311,3.311-4.415,2.207,0,0,2.865,7.937-.775,14.453,0,0-1.432-10.038-6.95-11.142S973.274,405.955,973.274,405.955Z"/><path class="g" d="M973.981,405.887s-5.518-3.311-11.036,4.415l-3.311,6.622s1.1,1.1,3.311,0c0,0-1.006,7.776.049,12.165l3.262-13.269Z"/><path class="d" d="M1036.048,509.516,1011,479.29l-8.447-10.193-1.967-2.372-1.971-2.375-1.96-2.368.007,0,.018-.007.031-.011a65.9,65.9,0,0,1,22.218-3.418,68.121,68.121,0,0,1,8.239.593,63.881,63.881,0,0,1,33.656,15.275"/><path class="e" d="M1018.931,458.543a20.546,20.546,0,0,1-4.528,3.929,9.047,9.047,0,0,1-1.321.689l-.2.086a60.476,60.476,0,0,1-12.3,3.478,33.05,33.05,0,0,1-5.637.54c-.155,0-.307,0-.455-.008-6.7-.2-11.234,2.59-15.373,2.79-2.282.11-2.889-1.357-2.879-2.793a7.465,7.465,0,0,0,1.646.236c7.632.175,13.162-4.036,18.774-5.511l.018-.007.031-.011A65.9,65.9,0,0,1,1018.931,458.543Z"/><path class="e" d="M1043.055,580.788c-9.081-11.766-33.039-42.04-33.81-53.964,0,0,3.558,21.566,12.277,34.124"/><path class="e" d="M913.5,563.558"/><g class="h"><path class="c" d="M982.574,441.932s-.958,12.391,4.654,21.2c3.771,5.918-3.593,5.459-11.644,4.182-6.18-.979-7.387-4.455-7.387-4.455a8.6,8.6,0,0,0,4.775-5.657c1.284-4.134.612-11.416-.045-15.268C971.56,433.913,982.574,441.932,982.574,441.932Z"/><path class="i" d="M938.73,752.936s13.995,122.482,8.976,124.68c-9,4-44.31,17.2-5.2,13.76,20.138.868,18.585-3.6,18.834-7.416.2-3.116-2.271-112.9-1.591-121.456.152-1.916.244-3.073.244-3.073Z"/><path class="f" d="M1054.256,860.442c-2.609.3-8.58,2.783-11.768,4.758-10.336-24.253-48.094-115.323-48.094-115.323l16.566-13.219S1043.659,830.924,1054.256,860.442Z"/><path class="j" d="M1055.492,860.678c-.792-1.6-14.709,4.4-15.093,6.389-.189.983-17.94,19.792-15.629,22.789,1.214,3.2,7.66,1.809,14.292.569a18.231,18.231,0,0,0,7.3-3.133c7.82-5.629,14.9-10.085,15.967-12.733C1063.259,872.247,1057.047,863.827,1055.492,860.678Z"/><path class="k" d="M961.867,873.226c.2-1.775-14.844.731-16.246,2.2s-23.261,7.814-22.636,15.265,35.335.988,37.819.77S961.466,876.715,961.867,873.226Z"/><path class="l" d="M921.752,621.01a7.769,7.769,0,0,0,4.564,1.664c10.347-.652,55.025-3.581,79.113-6.975,8.5-1.2,14.432-2.453,15.39-3.692a.932.932,0,0,1,0,.1c.047,1.339.546,16.675,1.129,36.784,1.15,39.7,9.92,95.959,16.114,112.744,1.337,3.623-54.56,2.594-54.56,2.594-3.531-40.771-5.587-112.69-8.353-115.692-3.363-3.653-3.08,59.733-4.371,112.9-21.478,7.544-56.527,6.945-56.311,4.661C917.028,738.979,921.752,621.01,921.752,621.01Z"/><g class="m"><path d="M963.142,620.023h-.5S962.819,620.02,963.142,620.023Z"/><path class="n" d="M963.142,620.023c13.383-.04,42.287-4.324,42.287-4.324,8.5-1.2,14.432-2.453,15.39-3.692a.932.932,0,0,1,0,.1c.047,1.339.546,16.675,1.129,36.784a9.932,9.932,0,0,1-1.411-.046,10.916,10.916,0,0,1-7.45-4.417,24.257,24.257,0,0,1-3.209-5.488C998.405,620.9,967.433,620.053,963.142,620.023Z"/></g><line class="o" x1="1.893" y2="148.359" transform="translate(929.473 619.243)"/><line class="o" x1="1.999" y2="145.787" transform="translate(943.581 621.03)"/><line class="o" x2="0.27" y2="144.582" transform="translate(959.236 619.9)"/><line class="o" x2="2.762" y2="29.724" transform="translate(972.389 618.811)"/><line class="o" x2="9.433" y2="146.753" transform="translate(986.988 617.603)"/><line class="o" x2="11.48" y2="147.822" transform="translate(999.543 616.471)"/><line class="o" x2="15.143" y2="148.373" transform="translate(1011.89 615.449)"/><path class="o" d="M921.116,636.48s79.579-2.82,100.214-8.295"/><path class="o" d="M975.15,648.536c-27.215,8.577-54.58.844-54.58.844"/><path class="o" d="M974.7,646.684s25.612,4.961,47.106-2.8"/><path class="o" d="M920.1,660.279s20.854,8.811,52.878.789"/><path class="o" d="M919.527,673.262s31.89,6.921,52.934.259"/><path class="o" d="M918.943,686.16s16.869,11.107,53.135,2.5"/><path class="o" d="M918.248,701a77.332,77.332,0,0,0,53.608-.4"/><path class="o" d="M917.586,714.594s18.113,10.728,54.034.653"/><path class="o" d="M916.87,728.535s24.634,10.389,54.577-2.13"/><path class="o" d="M916.275,739.417s15.04,12.246,54.974-1.061"/><path class="o" d="M915.535,751.775s23.508,10,55.491-1.481"/><path class="o" d="M976.945,660.025s11.172,7.769,46.063-1.573"/><path class="o" d="M978.3,673s15.24,5.627,44.885-2.267"/><path class="o" d="M978.774,687.479s23.222,4.949,45.481-3.764"/><path class="o" d="M979.438,699.467s22.836,7.968,46.246-3.828"/><path class="o" d="M980.154,712.629s21.579,5.623,47.225-3.909"/><path class="o" d="M980.86,725.27s18.332,6.467,48.39-4.006"/><path class="o" d="M981.784,736.428s21.881,9.078,49.553-2.944"/><path class="o" d="M982.433,750.419A97.36,97.36,0,0,0,1034,746.75"/><path class="d" d="M904.13,528.583c-1.7,2.651-8.624,77.966,0,93.59,8.674,15.713,80.932,24.112,103.649,12.025,23.053-12.266,31.931-24.062,35.013-46.061,3.088-22.042-4.111-56.061-4.111-56.061l-98.518-65.107Z"/><path class="p" d="M923.137,615.517a57.5,57.5,0,0,1,6.041,3.512,17.952,17.952,0,0,1,3.105,4.563c.576,1.219-1.811.109-3.633-2.562-1.771-.97-3.419-2.062-3.823-1.664s2.383,1.128,4.376,3.027c1.953,2.505,3.824,4.96,3.154,5.009-.654.047-1.4.074-4.177-3.551-1.958-.9-3.866-1.967-4.021-1.552s2.279,1.186,4.206,2.86c2.7,2.766,3.327,3.775,4.324,4.747-.538.6-2.344.057-5.654-3.252-1.787-1.11-4.452-1.54-4.542-.983.082.59,1.94.916,3.2,1.669a14.929,14.929,0,0,1,3.48,2.791c.376.48-.02,1.311-4.4-1.144a4.492,4.492,0,0,0-3.174-.2l-2.27-6.219Z"/><path class="f" d="M910.678,617.932s10.677-2.2,11.627-2.591,3.3,2.416,2.544,2.94a5.188,5.188,0,0,0-1.706,3.123,2.458,2.458,0,0,1-.482,2.219c-.647.751-1.6,1.713-1.183,2.832s1.383,2.246.125,2.335a22.472,22.472,0,0,0-7.809,2.859c-2.686,1.679-9.378-5.618-9.378-5.618Z"/><path class="p" d="M1013.508,616.127a56.862,56.862,0,0,0-6.967-.191,17.628,17.628,0,0,0-5,2.255c-1.12.736,1.489,1.049,4.421-.269,2.011.106,3.981.044,4.121.6s-2.616-.295-5.3.274c-2.957,1.106-5.821,2.214-5.274,2.609s1.16.8,5.4-.826c2.134.268,4.313.361,4.232.8s-2.557-.189-5.065.222c-3.728.936-4.785,1.466-6.137,1.768.148.8,1.97,1.286,6.5.209,2.1-.005,4.592,1.035,4.383,1.557-.375.46-2.128-.242-3.594-.265a14.726,14.726,0,0,0-4.409.545c-.568.211-.659,1.129,4.343,1.345a4.525,4.525,0,0,1,2.81,1.5l5.144-4.107Z"/><path class="f" d="M1022.891,624.76s-7.976-7.508-8.584-8.344-4.063.318-3.686,1.165.286,3.088-.155,3.565a2.452,2.452,0,0,0-.734,2.148c.165.981.48,2.3-.451,3.039s-2.338,1.188-1.311,1.926a22.894,22.894,0,0,1,5.188,6.56c1.425,2.849,10.9.154,10.9.154Z"/><path class="d" d="M1101.661,607.629c-12.219,20.844-28.581,42.251-60.542,41.223-9.595-.625-14.67-4.95-17.177-9.84a18.776,18.776,0,0,1-1.289-3.228c-.043-.143-.085-.286-.124-.429a20.819,20.819,0,0,1-.526-2.511,18.32,18.32,0,0,1,.392-7.811l0-.014c.046-.136.092-.264.142-.382.017-.047.039-.1.063-.15.159-.375.406-.911.731-1.586,1.434-2.964,4.383-8.575,8.176-14.772,6.77-11.072,6.558-28.047,3.627-36.779-.318-.947-2.073-1.9-4.86-2.95-.833-.315-1.758-.643-2.768-.986-13.95-4.682-30.231-34.173-40.324-58.738-2.052-5-3.846-9.8-5.322-14.15a123.573,123.573,0,0,1-3.517-12.079c-.933-4.139-1.166-7.043-.53-8.129a.85.85,0,0,1,.819-.475,18.329,18.329,0,0,0,5.4-.721c4.417-1.143,9.34-4.543,12.869-7.361l0,0c2.864-2.289,4.8-4.193,4.8-4.193h.014c.173.008,1.772.075,4.439.418a93.636,93.636,0,0,1,9.687,1.8c1.413.332,2.9.718,4.46,1.161.671.189,1.353.393,2.045.6a102.759,102.759,0,0,1,53.111,37.5C1105.638,544.135,1114.022,586.529,1101.661,607.629Z"/><path class="e" d="M1075.459,570.6a1.989,1.989,0,0,0-.216.068C1075.336,570.641,1075.407,570.617,1075.459,570.6Z"/><path class="d" d="M1022.653,465.182s-.1.125-.3.365c-1.119,1.346-5.276,6.35-11.347,13.743-4.993,6.093-11.283,13.807-18.237,22.44l0,0c-1.816,2.254-3.68,4.576-5.577,6.943C954.352,549.681,911.708,605.229,915.7,612.6a12.839,12.839,0,0,1,1.413,3.975,10.675,10.675,0,0,1,.141,2.065c-.127,4.264-2.875,7.678-5.488,9.975-.007.007-.014.011-.021.018a1.306,1.306,0,0,1-.113.1,26.674,26.674,0,0,1-2.218,1.718,22.991,22.991,0,0,1-2.384,1.468c-34.8-5.479-51.169-20.294-51.169-60.159s22.765-107.332,102.349-111.964a13.222,13.222,0,0,1,6.042,1.621c4.076,1.925,8.462,4.976,11.993,5.84a7.465,7.465,0,0,0,1.646.236c7.632.175,13.162-4.036,18.774-5.511l.018-.007.031-.011a12.991,12.991,0,0,1,4.991-.4h.014q2.208.289,4.234.583c2.564.371,4.888.746,6.932,1.1,1.064.185,2.052.367,2.96.535,1.409.265,2.617.5,3.613.707.423.086.808.168,1.151.24C1021.939,465.011,1022.653,465.182,1022.653,465.182Z"/><ellipse class="f" cx="14.53" cy="19.824" rx="14.53" ry="19.824" transform="translate(962.928 409.675)"/><path class="g" d="M972.064,420.053s25.154,13.947,17.688-8.445C984.587,396.115,954.908,410.07,972.064,420.053Z"/><path class="g" d="M975.71,414.7s-14.074,8.35-12.716,16.728c0,0-3.1-25.012,10.89-25.64s19.413.722,18.17,27.17C992.054,432.962,987.988,411.923,975.71,414.7Z"/><path class="g" d="M973.274,405.955s.707-7.793,8.433-6.69,11.036,5.519,12.14,9.933,2.207,7.726,3.311,7.726c0,0-3.311,3.311-4.415,2.207,0,0,2.865,7.937-.775,14.453,0,0-1.432-10.038-6.95-11.142S973.274,405.955,973.274,405.955Z"/><path class="g" d="M973.981,405.887s-5.518-3.311-11.036,4.415l-3.311,6.622s1.1,1.1,3.311,0c0,0-1.006,7.776.049,12.165l3.262-13.269Z"/><path class="d" d="M1106.065,595.618l0,.007,0,.007c-11.234,30.5-70.01-86.116-70.01-86.116L1011,479.29l-8.447-10.193-1.967-2.372-1.971-2.375-1.96-2.368.007,0,.018-.007.031-.011a65.9,65.9,0,0,1,22.218-3.418,68.121,68.121,0,0,1,8.239.593,63.881,63.881,0,0,1,33.656,15.275C1099.846,508.019,1117.285,565.114,1106.065,595.618Z"/><path class="e" d="M1018.931,458.543a20.546,20.546,0,0,1-4.528,3.929,9.047,9.047,0,0,1-1.321.689l-.2.086a60.476,60.476,0,0,1-12.3,3.478,33.05,33.05,0,0,1-5.637.54c-.155,0-.307,0-.455-.008-6.7-.2-11.234,2.59-15.373,2.79-2.282.11-2.889-1.357-2.879-2.793a7.465,7.465,0,0,0,1.646.236c7.632.175,13.162-4.036,18.774-5.511l.018-.007.031-.011A65.9,65.9,0,0,1,1018.931,458.543Z"/><path class="e" d="M1031.641,614.38s20.495-21.825,11.414-33.592-33.039-42.04-33.81-53.964c0,0,3.558,21.566,12.277,34.124S1031.641,614.38,1031.641,614.38Z"/><path class="e" d="M914.666,600.719s-9.775-7.4-10.234-13.694,9.072-23.467,9.072-23.467-5.718,16.291-3.139,22.271A88.485,88.485,0,0,1,914.666,600.719Z"/></g></g></svg>