<svg xmlns="http://www.w3.org/2000/svg" width="528" height="298.273" viewBox="0 0 528 298.273"><defs><style>.a{fill:#cfe3eb;opacity:0.51;}.b{fill:#d19442;}.c,.g{fill:#d8a35d;}.d{fill:#ffc84f;}.e{fill:#947dce;}.f{opacity:0.15;}.g{fill-rule:evenodd;}.h{fill:#dc6c85;}.i,.l{fill:none;}.i{stroke:#dc6c85;stroke-miterlimit:10;stroke-width:2px;}.j{fill:#fff;}.k{stroke:none;}</style></defs><g transform="translate(-440.954 -377.101)"><path class="a" d="M878.626,583.146c-.4-15.319-3.933-31.288-6.9-46.486-5.316-27.267-17.22-50.6-40.606-66.6-40.19-27.487-72.962-47.622-121.591-45.185-30.4,1.524-60.971,6.773-88.864,18.951-20.939,9.142-41.027,19.67-61.008,30.706-12.864,7.1-27.718,13.416-35.927,26.3-9.5,14.912-7.077,32.608-19.781,46.742-4.937,5.492-10.9,10-15.765,15.551-16.2,18.486-3.063,38.259,10.966,53.337,11.57,12.434,26.883,22.339,44.042,24.312,30.553,3.514,62-17.524,91.494-2.193,6.425,3.341,11.861,8.289,17.978,12.167,17.287,10.958,38.658,12.675,59.077,14.093,21.943,1.522,44.062,3.021,66.013.808,26.92-2.715,57.9-12.28,79.079-29.693C874.5,621.441,879.144,602.831,878.626,583.146Z" transform="translate(7.189 8.603)"/><g transform="translate(521.799 425.614)"><path class="b" d="M667.675,469.366s-1.537,17.152,9.043,26.638c6.868,6.158-9.789,33.322-20.44,31.832-5.756-.805-7.859-29.949-7.859-29.949s10.423-18.312,8.963-28.521S667.675,469.366,667.675,469.366Z" transform="translate(-484.288 -409.752)"/><ellipse class="c" cx="18.497" cy="25.237" rx="18.497" ry="25.237" transform="translate(159.309 15.791)"/><g transform="translate(154.348)"><g transform="translate(3.904 7.037)"><path class="d" d="M654.564,443.707s32.022,17.755,22.518-10.751C670.506,413.234,632.725,431,654.564,443.707Z" transform="translate(-642.645 -424.145)"/><path class="d" d="M660,436.7s-17.918,10.631-16.189,21.3c0,0-3.951-31.84,13.864-32.641s24.712.92,23.131,34.588C680.808,459.946,675.631,433.164,660,436.7Z" transform="translate(-643.44 -423.95)"/></g><path class="d" d="M654.84,426.838s.9-9.92,10.734-8.516,14.05,7.026,15.456,12.645,2.809,9.835,4.214,9.835c0,0-4.214,4.214-5.62,2.809,0,0,3.646,10.1-.987,18.4,0,0-1.823-12.779-8.848-14.184S654.84,426.838,654.84,426.838Z" transform="translate(-637.475 -418.186)"/><path class="d" d="M658.4,425.577s-7.025-4.214-14.05,5.621l-4.214,8.43s1.405,1.4,4.214,0c0,0-1.28,9.9.063,15.486l4.153-16.891Z" transform="translate(-640.134 -417.012)"/></g><path class="e" d="M778.4,624.433c-17.732.962-25.922-24.365-26.085-22.06-.871,12.316.552,27.781-8.353,35.995-20.168,18.606-61.387,22.486-96.937,12.813-19.365-5.269-33.185-27.192-24.564-45.315.131-.276,3.78.019,3.906-.234-3.952,5.889-15.524,17.9-30.673,17.829-.2-.152-.381-.315-.577-.479-10.351-8.609-21.628-19.636-27.319-30.018-13.269-24.175,8.793-52.551,10.764-56.491,1.97-3.918,3.995-7.564,6.106-10.971a1.977,1.977,0,0,1,.174-.283c1.589-2.58,3.244-5.017,4.931-7.326a84.883,84.883,0,0,1,36.29-28.811c17.316-7.434,38.052-11.821,42.274-3.646l.033.065c.98,1.938.893,4.245.828,6.519q-.034.866-.033,1.7c0,2.167.261,4.191,1.752,5.693,2.7,2.689,7.63,2,10.83-.609,3.7-3,5.4-8.838,4.136-14.573a96.681,96.681,0,0,1,37.3-.044c1.8.348,3.625.772,5.5,1.252,9.991,2.6,33.817,8.793,50.688,27.2a61.541,61.541,0,0,1,4.136,4.963c.119.142.217.283.326.425a.332.332,0,0,1,.054.087,67.543,67.543,0,0,1,10.787,22.008q.735,2.515,1.274,5.127C800.921,568.516,800.6,623.23,778.4,624.433Z" transform="translate(-499.628 -406.822)"/><path class="f" d="M744.565,586.132c.261-.991-3.025-3.755-3.624-4.43a43.3,43.3,0,0,1-4.756-6.5c-3.788-6.378-5.889-13.91-4.92-21.334,1.023-7.9,5.213-14.878,8.413-22.03a45.111,45.111,0,0,0,3.69-11.254c.675-4.136,1.132-7.837,4.017-11.211a6.759,6.759,0,0,1,1.708-1.579,65.9,65.9,0,0,1,4.462,5.388.353.353,0,0,1,.054.087,67.9,67.9,0,0,1,5.355,16.609c.327,1.72.588,3.462.784,5.236Z" transform="translate(-469.351 -401.984)"/><path class="g" d="M538.669,489.379s-3.256-8.177-9.187-11.692c-3.525-2.09-3.057-3-3.585-3.54-1.75-1.791-1.278,2.984,1.508,5.279,2.265,1.866,1.932,6.882,3.114,8.45s5.157,5.167,6.567,5.024S538.669,489.379,538.669,489.379Z" transform="translate(-506.626 -408.139)"/><path class="g" d="M555.25,503.515c-1.006-.857-10.324-13.134-16.73-16.42s-16.242-7.561-19.284-9.918c-3.579-2.771-5.244-1.576-1.3,2.07,2.561,2.37,8.04,6.65,9.39,7.257.654.294-3.446-2.03-7.765-4.9-4.591-3.05-9.456-6.644-10.063-5.852-1.177,1.536,11.686,11.221,14.118,12.516a68.631,68.631,0,0,1-6.374-3.5c-2.809-1.751-5.845-4.214-6.778-3.86-1.47.557,4.966,6.624,10.93,10.037.028.248-2.14-.252-8.951-4.78-.685-.455-2.717-.893-.726,1.22,4.191,4.448,5.664,6.669,13.029,9.9,7.182,3.148,15.811,4.877,20.338,8.732Z" transform="translate(-509.42 -407.797)"/><path class="e" d="M625.649,597.608c-.228,6.6-2.034,12.452-6.214,16.74a18.094,18.094,0,0,1-1.742,1.567c-4.419,3.571-10.122,5.018-15.858,5.344a51.812,51.812,0,0,1-5.367,0,75.953,75.953,0,0,1-19.319-3.82c-36.507-13.018-44.747-59.4-45.7-65.275a96.97,96.97,0,0,1,1.567-38.2c1.5-2.928-3.4-9.034-3.4-9.034l7.968-4.528,9.448-5.355,3.221-1.829s8.784,5.5,8.033,6.575a125.1,125.1,0,0,1,30.454,21.05c.751.7,1.5,1.426,2.242,2.177a111.7,111.7,0,0,1,14.564,17.8l.033.044c.446.675.881,1.36,1.317,2.057a153.266,153.266,0,0,1,10.079,19.222C621.959,573.521,626.02,586.6,625.649,597.608Z" transform="translate(-505.768 -404.62)"/><path class="g" d="M808.19,480.014s2.848-8.327,8.6-12.13c3.418-2.261,2.906-3.148,3.405-3.712,1.661-1.875,1.424,2.918-1.246,5.348-2.169,1.976-1.591,6.969-2.693,8.593s-4.9,5.415-6.31,5.342S808.19,480.014,808.19,480.014Z" transform="translate(-455.4 -409.948)"/><path class="g" d="M840.752,470.164c-.949-.308-3.86,2.3-6.578,4.19a69.1,69.1,0,0,1-6.194,3.813c2.365-1.415,14.735-11.721,13.484-13.2-.645-.762-5.327,3.068-9.763,6.34-2.26,1.668-4.458,3.168-5.9,4.145a12.8,12.8,0,0,1-1.612,1.13c-.293.15.391-.3,1.612-1.13a92.022,92.022,0,0,0,7.41-6.581c3.757-3.835,2.035-4.948-1.4-2-2.922,2.5-12.537,7.256-18.772,10.854s-14.938,16.319-15.9,17.224l10.279,2c4.331-4.075,12.865-6.225,19.882-9.724,7.2-3.587,8.56-5.879,12.526-10.527,1.885-2.208-.124-1.671-.785-1.183-6.578,4.858-8.719,5.465-8.7,5.214C836.118,477.025,842.248,470.649,840.752,470.164Z" transform="translate(-457.399 -409.745)"/><path class="e" d="M825.586,501.549a37.88,37.88,0,0,1,6.21-9.535L809.3,479.507s-4.354,6.608-3.716,7.746c-12.492,4.734-38.717,13.065-56.348,35.926-12.2,15.815-36.395,62.537-22.331,80.126,11.515,14.4,7.143,23.367,29.035,19.668,38.222-6.459,65.968-77.486,67.493-83.247A96.9,96.9,0,0,0,825.586,501.549Z" transform="translate(-470.867 -407.099)"/><path class="e" d="M733.395,599.4a50.707,50.707,0,0,1-9.514,9.089,657.715,657.715,0,0,0-72.109-11.646c-27.408-2.918-35.266-2.211-47.446-2.776-6.052-14.52-2.558-31.206,3.363-45.661,10.667-26.046,40.251-31.914,52.78-34.395,9.2-1.829,52.333-10.373,73.524,18.971C747.436,551.612,748.458,580.565,733.395,599.4Z" transform="translate(-492.831 -401.324)"/><path class="f" d="M707.238,483.976c-2.215,2.634-8.157,6.248-11.34,6.117-3.866-.152-9.808,3.8-15.76,7.445s-13.216,13.661-22.726,9.568-4.164-15.293-4.164-15.293h.011c-.1,2.775-.17,5.5,1.714,7.391,2.695,2.688,7.635,2,10.83-.61,3.705-3,5.4-8.838,4.132-14.573A96.722,96.722,0,0,1,707.238,483.976Z" transform="translate(-483.685 -406.615)"/></g><circle class="h" cx="11.911" cy="11.911" r="11.911" transform="translate(440.954 489.266)"/><circle class="h" cx="11.911" cy="11.911" r="11.911" transform="translate(945.131 489.266)"/><g class="i" transform="translate(859.823 377.101)"><circle class="k" cx="11.959" cy="11.959" r="11.959"/><circle class="l" cx="11.959" cy="11.959" r="10.959"/></g><g transform="translate(566.652 377.19)"><path class="h" d="M547.405,419.079l10.333-20.954-10.333-20.948,43.532,20.948Z" transform="translate(-547.405 -377.177)"/><path class="j" d="M587.593,397.7H558.817l-8.956-18.157Z" transform="translate(-546.961 -376.749)"/></g><g transform="translate(762.254 419.683)"><rect class="h" width="20.612" height="20.612" transform="translate(21.007 14.575) rotate(-45)"/><rect class="h" width="20.612" height="20.612" transform="translate(21.007 56.589) rotate(-45)"/><rect class="h" width="20.612" height="20.612" transform="translate(56.589 21.007) rotate(45)"/><rect class="h" width="20.612" height="20.612" transform="translate(14.575 21.007) rotate(45)"/></g></g></svg>