<svg xmlns="http://www.w3.org/2000/svg" xmlns:xlink="http://www.w3.org/1999/xlink" width="528" height="334.23" viewBox="0 0 528 334.23"><defs><style>.a,.m{fill:none;}.b{fill:#dc6c85;}.c{fill:#7fd1d8;}.d{fill:#f7cf43;}.e{fill:#cfe3eb;opacity:0.51;}.f{clip-path:url(#a);}.g{fill:#d19442;}.h{fill:#d8a35d;}.i{fill:#ffc84f;}.j{fill:#947dce;}.k{opacity:0.3;}.l{opacity:0.5;}.m{stroke:#947dce;stroke-miterlimit:10;stroke-width:0.852px;}.n{opacity:0.15;}.o{fill:#ccc;}.p{fill:#04005a;}.q{fill:gray;}</style><clipPath id="a"><path class="a" d="M793.264,402.127a150.2,150.2,0,0,0-31.724,4.967c-36,9.717-69.988,26.416-102.714,44.515-34.846,19.27-68.985,40.483-98,67.753s-52.846,61.072-63.433,99.459c-4.437,16.085-6.465,33.4-1.6,49.36,8.939,29.34,38.72,47.285,68.008,56.4,56.615,17.612,119.063,12.107,174.223-9.637s103.347-58.971,143.166-102.9c22.728-25.074,43.394-53.347,51.826-86.122s2.54-70.866-21.792-94.386c-9.317-9.005-20.539-15.309-32.566-20.182a148.122,148.122,0,0,0-62.934-10.329Z" transform="translate(-492.974 -400.826)"/></clipPath></defs><g transform="translate(-471.406 -400.826)"><rect class="b" width="91.785" height="86.222" transform="translate(665.252 400.826)"/><circle class="c" cx="74.276" cy="74.276" r="74.276" transform="translate(850.854 421.442)"/><path class="d" d="M534.644,456.946l-63.237,109.53H597.881Z" transform="translate(0 3.518)"/><path class="e" d="M793.264,402.127a150.2,150.2,0,0,0-31.724,4.967c-36,9.717-69.988,26.416-102.714,44.515-34.846,19.27-68.985,40.483-98,67.753s-52.846,61.072-63.433,99.459c-4.437,16.085-6.465,33.4-1.6,49.36,8.939,29.34,38.72,47.285,68.008,56.4,56.615,17.612,119.063,12.107,174.223-9.637s103.347-58.971,143.166-102.9c22.728-25.074,43.394-53.347,51.826-86.122s2.54-70.866-21.792-94.386c-9.317-9.005-20.539-15.309-32.566-20.182a148.122,148.122,0,0,0-62.934-10.329Z" transform="translate(1.352 0)"/><g transform="translate(494.326 400.826)"><g class="f"><g transform="translate(64.647 20.616)"><path class="g" d="M694.056,461.72c.448,1.109,3.112,13.479,5.416,15.918s9.805,1.918,9.542,2.582-5.631,13.414-14.93,14.389-6.529-5.872-6.529-5.872a18.239,18.239,0,0,0-.942-14.936C682.508,465.935,694.056,461.72,694.056,461.72Z" transform="translate(-545.536 -417.624)"/><g transform="translate(125.279)"><ellipse class="h" cx="20.494" cy="15.225" rx="20.494" ry="15.225" transform="translate(0 50.507) rotate(-81.107)"/><g transform="translate(2.036)"><g transform="translate(1.138 5.429)"><path class="i" d="M685.5,440s23.781,18.381,19.666-5.712C702.319,417.619,669.358,426.984,685.5,440Z" transform="translate(-674.281 -425.335)"/><path class="i" d="M690.537,435.119s-15.911,6.211-15.855,14.989c0,0,.82-26.051,15.4-24.389s19.971,3.932,14.421,30.734C704.507,456.454,703.691,434.3,690.537,435.119Z" transform="translate(-674.682 -425.316)"/></g><path class="i" d="M688.558,426.125s1.987-7.842,9.8-5.443,10.53,7.452,10.961,12.141,1.038,8.252,2.181,8.434c0,0-3.96,2.835-4.923,1.527,0,0,1.684,8.576-3.133,14.631,0,0,.136-10.487-5.4-12.522S688.558,426.125,688.558,426.125Z" transform="translate(-672.674 -420.226)"/><path class="i" d="M690.237,425.9s-5.176-4.29-12.132,2.691l-4.494,6.217s.964,1.308,3.426.545c0,0-2.294,7.775-1.911,12.43l5.515-13.013Z" transform="translate(-673.611 -419.952)"/></g></g><path class="j" d="M782.909,631.971c-1.1,7.87-14.359,12.679-24.174,26.041-4.754,6.479-17.488,11.624-28.8,12.039-27.8,1.069-50.345,3.686-83.84-12.039-38.525-18.086-8.935-85.131-11.165-92.688-2.931-9.981,51.285-38.881,54.8-40.042s57.182-4.5,58.731-3.981S786,609.771,782.909,631.971Z" transform="translate(-549.271 -413.892)"/><g transform="translate(93.909 241.176)"><path class="i" d="M654.343,653.376c1.947.176,3,.225,4.388.372,9.865-.236,52.465-1.36,75.5-3.669,8.126-.816,13.816-1.777,14.772-2.9a.739.739,0,0,1,0,.092c0,1.258-.1,15.666-.282,34.555-.369,37.287,5.9,90.4,11.172,106.37,1.138,3.448-51.987.452-51.987.452-1.855-38.383-1.162-105.938-3.681-108.855-3.064-3.549-5.131,55.934-8.317,105.773-20.706,6.3-54.018,4.461-53.729,2.327C645.612,762.536,654.343,653.376,654.343,653.376Z" transform="translate(-642.175 -647.174)"/><g class="k" transform="translate(51.2)"><path d="M690.832,652.279l-.477-.018S690.524,652.265,690.832,652.279Z" transform="translate(-690.355 -646.855)"/><path class="l" d="M690.8,652.6c12.73.45,40.377-2.52,40.377-2.52,8.126-.816,13.816-1.777,14.772-2.9a.739.739,0,0,1,0,.092c0,1.258-.1,15.666-.282,34.555a9.469,9.469,0,0,1-1.34-.095,10.4,10.4,0,0,1-6.922-4.415,22.6,22.6,0,0,1-2.85-5.265C724.31,654.7,694.884,652.782,690.8,652.6Z" transform="translate(-690.327 -647.174)"/></g><g transform="translate(14.218 2.905)"><line class="m" x1="7.266" y2="139.133" transform="translate(0 0.633)"/><line class="m" x1="7.272" y2="136.716" transform="translate(13.447 2.826)"/><line class="m" x1="5.07" y2="135.667" transform="translate(28.679 2.262)"/><line class="m" x2="1.531" y2="27.99" transform="translate(46.298 1.719)"/><line class="m" x2="3.565" y2="138.038" transform="translate(60.227 1.116)"/><line class="m" x2="5.472" y2="139.115" transform="translate(72.21 0.51)"/><line class="m" x2="8.935" y2="139.765" transform="translate(83.991)"/></g><path class="m" d="M652.621,665.615s75.79.248,95.617-4.14" transform="translate(-641.52 -646.277)"/><path class="m" d="M703.626,677.934c-26.2,7.058-51.94-1.192-51.94-1.192" transform="translate(-641.579 -645.32)"/><path class="m" d="M700.22,676.267s24.176,5.586,44.905-.913" transform="translate(-638.536 -645.407)"/><path class="m" d="M650.887,686.35s19.509,9.024,50.261,2.661" transform="translate(-641.629 -644.718)"/><path class="m" d="M649.924,697.792s30.074,7.654,50.334,2.168" transform="translate(-641.689 -644.001)"/><path class="m" d="M648.954,709.161s15.634,11.034,50.444,4.273" transform="translate(-641.75 -643.288)"/><path class="m" d="M647.818,722.238a74.522,74.522,0,0,0,51,1.577" transform="translate(-641.821 -642.468)"/><path class="m" d="M646.754,734.219s16.831,10.725,51.366,2.576" transform="translate(-641.888 -641.717)"/><path class="m" d="M645.63,746.5s23.046,10.643,51.985-.015" transform="translate(-641.959 -640.948)"/><path class="m" d="M644.72,756.091s13.852,12.036,52.324,1" transform="translate(-642.016 -640.346)"/><path class="m" d="M643.629,766.977s21.989,10.239,52.831.627" transform="translate(-642.084 -639.663)"/><path class="m" d="M701.771,688.069s10.339,7.7,43.867.2" transform="translate(-638.439 -644.61)"/><path class="m" d="M702.529,699.6s14.287,5.833,42.772-.5" transform="translate(-638.391 -643.918)"/><path class="m" d="M702.455,712.483s21.9,5.488,43.4-1.879" transform="translate(-638.396 -643.197)"/><path class="m" d="M702.634,723.092s21.425,8.306,44.124-1.911" transform="translate(-638.385 -642.534)"/><path class="m" d="M702.819,734.74s20.315,6.059,45.058-1.951" transform="translate(-638.373 -641.807)"/><path class="m" d="M703.012,745.927s17.2,6.734,46.17-2" transform="translate(-638.361 -641.108)"/><path class="m" d="M703.452,755.75s20.476,9.312,47.237-.962" transform="translate(-638.333 -640.427)"/><path class="m" d="M703.548,768.161a93.886,93.886,0,0,0,49.181-1.569" transform="translate(-638.328 -639.687)"/></g><path class="n" d="M691.248,591.253c2.1-1.836,8.052,4.906,16.009,3.28,7.4-1.514,11.452-9.224,11.96-10.223,4.513-8.883-.661-14.965,1.157-24.5,1.126-5.911,5.062-13.771,17.745-21.8,5.646,45.541,8.68,70.018,8.68,70.018h0l-47.257,4.05C690.3,596.712,689.938,592.4,691.248,591.253Z" transform="translate(-545.225 -412.841)"/><path class="h" d="M748.1,586.247l-8.229,22.336s-27.981-7.639-46.2-16.749-29.328-24.1-35.206-24.1-22.482,3.894-23.8,6.1,3.086,3.967,5.51,4.187,7.494-.881,7.494-.881-2.424,4.628-4.408,8.816,2.2,7.274,3.527,7.715c0,0,3.746,4.849,6.832,4.849,0,0,5.731,6.177,10.8,4.852s-.441-5.073-.441-5.073a13.773,13.773,0,0,0,7.053.662,21.3,21.3,0,0,0,6.612-2.2s9.3,3.771,14.872,10.322c12.177,14.3,27.582,38.77,37.661,44.414,14.695,8.23,21.454,12.932,30.858,8.523S787.037,625.6,791,608.876C791,608.876,763.966,607.7,748.1,586.247Z" transform="translate(-548.753 -410.978)"/><path class="j" d="M806.265,613.028c-5.779,18.09-22.975,47.487-40.734,56.113a27.607,27.607,0,0,1-6.847,2.3c-21.325,4.2-57.671-28.687-72.527-62.9,4.626-7.031,1.807-9.031,6.432-16.063,10.81,7.5,24.789,12.717,38.078,11.455a8.757,8.757,0,0,0,4.58-1.41,7.9,7.9,0,0,0,2.5-4.184c2-6.727.443-13.777-.912-20.458a151.288,151.288,0,0,1-2.655-20.137c-.083-1.281-1.271-10.1-.184-10.782-16.745,10.543-66.334-2.221-83.079,8.322-6.4,4.028,20.045,31.37,13.64,35.4-10.22,53.884-6.645,40.66-13.64,54-24.679,4.9-43.276-15.64-44.99-33.941-3.253-34.762-10.2-63.782,12.34-94.129,24.089-32.429,65.735-42.631,72.527-36.005a16.934,16.934,0,0,0,5.833,4.442,10.531,10.531,0,0,0,2.4.7,13.5,13.5,0,0,0,7.2-1.032c6.054-2.414,9.022-7.318,10.293-8.746,3.438-3.888,13.833-4.2,26.173-.848,12.828,3.484,27.758,10.939,39.147,22.459C819.249,535.423,811.379,596.993,806.265,613.028Z" transform="translate(-550.766 -416.928)"/><g transform="translate(100.147 151.436)"><path d="M648.776,576.972a.713.713,0,0,1-.242-.042.731.731,0,0,1-.446-.932,77.32,77.32,0,0,1,6.02-12.929.73.73,0,0,1,1.238.774,77.175,77.175,0,0,0-5.88,12.641A.732.732,0,0,1,648.776,576.972Z" transform="translate(-648.046 -562.727)"/></g><g transform="translate(106.979 157.828)"><path d="M655.206,581.444a.729.729,0,0,1-.71-.907c.074-.293,1.829-7.231,4.735-11.477a.731.731,0,1,1,1.207.825c-2.761,4.034-4.507,10.938-4.524,11.006A.731.731,0,0,1,655.206,581.444Z" transform="translate(-654.475 -568.743)"/></g><path class="g" d="M640.442,622.588s-7.228.225-13.1-2.485a23.454,23.454,0,0,1-8.927-7.222l14.549-3.612,18.647,2.937S650.945,620.667,640.442,622.588Z" transform="translate(-549.756 -408.374)"/><path class="o" d="M681.649,622.166,577.318,605.838l-23.511-92.4L654.629,525.77Z" transform="translate(-553.807 -414.382)"/><path class="p" d="M648.681,525.042l3.032.882,25.238,88.47L704,610.021l5.068,5.5L675.7,621.438Z" transform="translate(-547.859 -413.654)"/><path class="o" d="M702.486,605.3l-27.048,4.374-2.648-9.284Z" transform="translate(-546.347 -408.931)"/><path class="h" d="M609.04,604.8s10.729,11.631,17.053,13.325,18.633-7.905,20.554-10.5,0-3.049-1.581-2.823-5.308,3.161-5.308,3.161,7.227-11.293,5.308-13.1-11.25,11.068-11.25,11.068.86-16.262-1.06-16.376-6.55,14.386-6.55,14.386-5.985-15.4-8.7-15.4,1.469,15.472,1.469,15.472-10.5-4.63-12.536-4.179S609.04,604.8,609.04,604.8Z" transform="translate(-550.539 -409.674)"/><path class="q" d="M617.489,560.307c2.358,7,.03,14.1-5.2,15.866s-11.384-2.484-13.742-9.484-.03-14.1,5.2-15.865S615.131,553.307,617.489,560.307Z" transform="translate(-551.06 -412.063)"/><path class="n" d="M737.122,475.134c-3.807,3.5-16.948,8.184-22.708,8.184-7.326,0-9.9,7.843-16.33,7.713-4.995-.1-6.571-4.165-7.022-5.971a10.531,10.531,0,0,0,2.4.7,13.5,13.5,0,0,0,7.2-1.032c6.054-2.414,9.022-7.318,10.293-8.746C714.387,472.094,724.782,471.78,737.122,475.134Z" transform="translate(-545.202 -416.928)"/></g></g></g><g transform="translate(684.252 421.442)"><ellipse class="h" cx="20.494" cy="15.225" rx="20.494" ry="15.225" transform="translate(0 50.507) rotate(-81.107)"/><g transform="translate(2.036)"><g transform="translate(1.138 5.429)"><path class="i" d="M685.5,440s23.781,18.381,19.666-5.712C702.319,417.619,669.358,426.984,685.5,440Z" transform="translate(-674.281 -425.335)"/><path class="i" d="M690.537,435.119s-15.911,6.211-15.855,14.989c0,0,.82-26.051,15.4-24.389s19.971,3.932,14.421,30.734C704.507,456.454,703.691,434.3,690.537,435.119Z" transform="translate(-674.682 -425.316)"/></g><path class="i" d="M688.558,426.125s1.987-7.842,9.8-5.443,10.53,7.452,10.961,12.141,1.038,8.252,2.181,8.434c0,0-3.96,2.835-4.923,1.527,0,0,1.684,8.576-3.133,14.631,0,0,.136-10.487-5.4-12.522S688.558,426.125,688.558,426.125Z" transform="translate(-672.674 -420.226)"/><path class="i" d="M690.237,425.9s-5.176-4.29-12.132,2.691l-4.494,6.217s.964,1.308,3.426.545c0,0-2.294,7.775-1.911,12.43l5.515-13.013Z" transform="translate(-673.611 -419.952)"/></g></g></g></svg>