<svg xmlns="http://www.w3.org/2000/svg" width="372" height="301.828" viewBox="0 0 372 301.828"><defs><style>.a,.k,.m{fill:#947dce;}.a{opacity:0.4;}.b{fill:#ffc84f;}.c{fill:#d19442;}.d,.j{fill:#d8a35d;}.e{fill:#9bb6cc;}.f{fill:#dbfaff;}.g{fill:#b7cbd2;}.h{fill:#72727a;}.i{fill:#fff;}.j,.m{fill-rule:evenodd;}.l{fill:#a088db;}.n{fill:#f8cbad;stroke:#d98f62;stroke-miterlimit:10;stroke-width:0.184px;}</style></defs><g transform="translate(-843.007 -411.395)"><path class="a" d="M1058.37,467.06c-6.292-8.4-14.8-13.842-24.139-14.929a7.7,7.7,0,0,0-4.308-2.544c-26.746-4.955-53.588.683-78.467,11.721-22.131,9.817-42.9,22.867-60.972,40.05-35.258,33.526-56.334,85.954-43.863,137.193,5.427,22.3,20.945,41.284,45.7,39.76,19.723-1.213,26.344-9.271,34.082-25.593a51.74,51.74,0,0,1,5.049-8.876c.63-.8,1.294-1.561,1.987-2.3.249-.264.414-.45.524-.58.129-.09.284-.2.5-.365a13.794,13.794,0,0,1,6.064-2.751c5.128-.872,10.486.354,15.546,1.216,6.961,1.184,13.974,2.269,21.014,1.438,24.834-2.932,45.191-20.071,59.175-41.993,8.164-12.8,13.878-27.157,18.957-41.691,5.07-14.5,10.516-29.587,12.544-45.046C1069.862,495.8,1067.95,479.85,1058.37,467.06Z" transform="translate(0 5.163)"/><g transform="translate(851.86 411.395)"><path class="b" d="M1104.975,432.093s-5.825-3.494-11.65,4.66l-3.494,6.99s1.165,1.165,3.494,0c0,0-1.061,8.207.051,12.841l3.444-14.006Z" transform="translate(-816.832 -408.563)"/><path class="c" d="M1112,469.575s-1.274,14.223,7.5,22.087-20.216,0-20.216,0,5.394-13.622,4.185-22.087S1112,469.575,1112,469.575Z" transform="translate(-815.491 -403.672)"/><path class="d" d="M1092.936,458.214c0,11.556,6.867,20.926,15.337,20.926s15.337-9.369,15.337-20.926-6.866-20.924-15.337-20.924c-4.417,0-9.749-.46-12.548,3.616C1093.156,444.648,1092.936,452.684,1092.936,458.214Z" transform="translate(-816.392 -407.722)"/><g transform="translate(280.543 22.261)"><path class="b" d="M1102.013,447.11s26.552,14.722,18.672-8.914C1115.232,421.843,1083.9,436.573,1102.013,447.11Z" transform="translate(-1096.438 -430.89)"/><path class="b" d="M1105.689,441.332s-16.7-8.742-1.927-9.406,20.49.762,19.178,28.678C1122.939,460.6,1118.648,438.4,1105.689,441.332Z" transform="translate(-1096.264 -430.758)"/></g><path class="b" d="M1102.439,432.693s.257-6.085,8.412-4.921,12.21,5.9,13.376,10.562,3.2,8.87,4.366,8.87c0,0-4.439.561-5.6-.6,0,0,3.024,8.378-.818,15.256,0,0-1.512-10.6-7.337-11.762S1102.439,432.693,1102.439,432.693Z" transform="translate(-815.043 -409.092)"/><g transform="translate(21.61 87.843)"><path class="e" d="M1062.657,524.382,983.5,494.367a4.934,4.934,0,0,0-4.354.726l-103.559,85.8-5.893-1.881.907,6.836a1.6,1.6,0,0,0,1.037,1.189l79.459,34.09a4.962,4.962,0,0,0,4.43-.609l112.225-91.743a1.511,1.511,0,0,0,.738-1.435l-1.279-6.965-5.133.807Z" transform="translate(-869.683 -487.495)"/><path class="f" d="M982.406,488.531a5.069,5.069,0,0,0-4.345.732L870.4,578.53a1.417,1.417,0,0,0,.345,2.6l79.295,33.813a4.7,4.7,0,0,0,4.423-.614l112.02-91.658c1.164-.892.949-2.063-.483-2.635Z" transform="translate(-869.684 -488.321)"/><path class="g" d="M968.566,500.573l6.235,2.366,5.141-4.246-6.232-2.372Z" transform="translate(-855.652 -487.186)"/><path class="g" d="M960.119,507.56l6.2,2.408,5.153-4.266-6.228-2.362Z" transform="translate(-856.85 -486.19)"/><path class="g" d="M976.426,503.6l6.276,2.382,5.161-4.258-6.267-2.366Z" transform="translate(-854.536 -486.756)"/><path class="g" d="M976.334,512.629l6.277,2.394,13.031-10.733-6.339-2.428Z" transform="translate(-854.549 -486.399)"/><path class="g" d="M983.113,515.25l6.289,2.4,13.074-10.735-6.339-2.451Z" transform="translate(-853.587 -486.03)"/><path class="g" d="M990.037,517.877l6.333,2.466,13.132-10.788-6.385-2.436Z" transform="translate(-852.605 -485.654)"/><path class="g" d="M954.494,512.225l6.181,2.383,5.138-4.224-6.2-2.4Z" transform="translate(-857.649 -485.53)"/><path class="g" d="M948.876,516.87l6.174,2.423,5.112-4.247L954,512.659Z" transform="translate(-858.446 -484.867)"/><path class="g" d="M943.267,521.481l6.152,2.448,5.109-4.256-6.15-2.389Z" transform="translate(-859.242 -484.211)"/><path class="g" d="M969.629,509.212l6.243,2.417,5.142-4.271-6.239-2.387Z" transform="translate(-855.501 -485.958)"/><path class="g" d="M964,513.892l6.208,2.419,5.138-4.255-6.225-2.418Z" transform="translate(-856.3 -485.296)"/><path class="g" d="M958.322,518.543l6.214,2.447,5.161-4.275-6.236-2.394Z" transform="translate(-857.105 -484.632)"/><path class="g" d="M952.7,523.2l6.182,2.456,5.155-4.266-6.219-2.415Z" transform="translate(-857.903 -483.971)"/><path class="g" d="M947.065,527.859l6.177,2.424,5.14-4.22-6.19-2.448Z" transform="translate(-858.703 -483.313)"/><path class="g" d="M941.472,532.518l6.129,2.42,5.129-4.195-6.164-2.456Z" transform="translate(-859.496 -482.649)"/><path class="g" d="M935.841,537.115l6.131,2.471,5.115-4.231-6.144-2.456Z" transform="translate(-860.296 -481.995)"/><path class="g" d="M930.255,541.744l6.083,2.47L941.461,540l-6.139-2.46Z" transform="translate(-861.089 -481.336)"/><path class="g" d="M924.81,546.245l6.11,2.455,5.106-4.188-6.106-2.458Z" transform="translate(-861.861 -480.696)"/><path class="g" d="M919.23,550.848l6.071,2.461,5.1-4.175-6.087-2.464Z" transform="translate(-862.653 -480.041)"/><path class="g" d="M913.637,555.471l6.07,2.5,5.1-4.2-6.084-2.482Z" transform="translate(-863.447 -479.386)"/><path class="g" d="M908.062,560.071l6.058,2.5,5.1-4.188-6.07-2.477Z" transform="translate(-864.238 -478.73)"/><path class="g" d="M902.5,564.654l6.026,2.5,5.083-4.172-6.04-2.5Z" transform="translate(-865.027 -478.081)"/><path class="g" d="M896.95,569.237l6.01,2.527,5.068-4.18-6.018-2.528Z" transform="translate(-865.815 -477.431)"/><path class="g" d="M977.408,519.085l6.3,2.46,5.178-4.293-6.294-2.408Z" transform="translate(-854.397 -484.557)"/><path class="g" d="M971.716,523.752,978,526.215l5.192-4.284-6.294-2.408Z" transform="translate(-855.205 -483.893)"/><path class="g" d="M966.06,528.433l6.253,2.464,5.159-4.263-6.248-2.422Z" transform="translate(-856.007 -483.228)"/><path class="g" d="M960.383,533.132l6.24,2.469,5.174-4.257-6.257-2.468Z" transform="translate(-856.813 -482.566)"/><path class="g" d="M954.736,537.8l6.2,2.442,5.165-4.21-6.231-2.483Z" transform="translate(-857.614 -481.903)"/><path class="g" d="M949.077,542.455l6.2,2.464,5.149-4.218-6.2-2.484Z" transform="translate(-858.417 -481.24)"/><path class="g" d="M943.437,547.1l6.185,2.5,5.146-4.234-6.2-2.521Z" transform="translate(-859.218 -480.584)"/><path class="g" d="M937.995,551.6l6.143,2.494,5.134-4.213-6.171-2.521Z" transform="translate(-859.99 -479.943)"/><path class="g" d="M932.36,556.248l6.138,2.5,5.149-4.2-6.17-2.514Z" transform="translate(-860.79 -479.281)"/><path class="g" d="M926.73,560.864l6.134,2.561,5.127-4.254-6.143-2.51Z" transform="translate(-861.589 -478.623)"/><path class="g" d="M921.121,565.48l6.119,2.542,5.1-4.216-6.1-2.523Z" transform="translate(-862.385 -477.967)"/><path class="g" d="M915.528,570.1l6.073,2.555,5.124-4.215-6.114-2.53Z" transform="translate(-863.178 -477.31)"/><path class="g" d="M909.93,574.721,916,577.307l5.1-4.228-6.079-2.527Z" transform="translate(-863.973 -476.652)"/><path class="g" d="M984.334,521.751l6.313,2.47,5.19-4.3-6.32-2.415Z" transform="translate(-853.414 -484.179)"/><path class="g" d="M978.625,526.454l6.314,2.466,5.192-4.28-6.309-2.425Z" transform="translate(-854.224 -483.511)"/><path class="g" d="M972.926,531.17l6.294,2.473,5.206-4.274-6.317-2.471Z" transform="translate(-855.033 -482.847)"/><path class="g" d="M967.257,535.855l6.262,2.445,5.178-4.224-6.271-2.489Z" transform="translate(-855.837 -482.181)"/><path class="g" d="M961.563,540.527,967.816,543l5.19-4.236-6.272-2.485Z" transform="translate(-856.645 -481.516)"/><path class="g" d="M955.9,545.188l6.223,2.5,5.171-4.25-6.25-2.525Z" transform="translate(-857.449 -480.857)"/><path class="g" d="M950.232,549.865l6.221,2.524,5.155-4.258-6.222-2.518Z" transform="translate(-858.253 -480.191)"/><path class="g" d="M944.763,554.373l6.2,2.5,5.147-4.215-6.2-2.522Z" transform="translate(-859.03 -479.549)"/><path class="g" d="M939.124,559l6.167,2.568,5.138-4.268-6.182-2.516Z" transform="translate(-859.83 -478.889)"/><path class="g" d="M933.474,563.638l6.158,2.548,5.156-4.236-6.184-2.523Z" transform="translate(-860.632 -478.23)"/><path class="g" d="M927.835,568.279l6.146,2.557,5.142-4.229-6.159-2.535Z" transform="translate(-861.432 -477.571)"/><path class="g" d="M922.216,572.916l6.138,2.587,5.112-4.242-6.118-2.533Z" transform="translate(-862.229 -476.91)"/><path class="g" d="M911,582.826l6.071,2.545,11.559-9.465-6.132-2.575Z" transform="translate(-863.821 -476.257)"/><path class="g" d="M1002.671,515.143l6.378,2.453,6.6-5.414-6.414-2.418Z" transform="translate(-850.812 -485.278)"/><path class="g" d="M991.191,524.435l6.372,2.494,5.2-4.319-6.35-2.444Z" transform="translate(-852.441 -483.802)"/><path class="g" d="M996.915,519.71l6.385,2.489,5.22-4.331-6.383-2.425Z" transform="translate(-851.628 -484.472)"/><path class="g" d="M951.481,561.082l6.22,2.528,44.155-36.278-6.352-2.444Z" transform="translate(-858.076 -483.132)"/><path class="g" d="M945.79,561.755l6.254,2.56,5.145-4.261-6.207-2.561Z" transform="translate(-858.884 -478.505)"/><path class="g" d="M940.153,566.405l6.2,2.59,5.163-4.274-6.213-2.546Z" transform="translate(-859.684 -477.84)"/><path class="g" d="M934.487,571.057l6.188,2.577,5.166-4.248-6.2-2.547Z" transform="translate(-860.488 -477.178)"/><path class="g" d="M928.849,575.712l6.16,2.57,5.169-4.224L933.99,571.5Z" transform="translate(-861.288 -476.517)"/><path class="g" d="M917.586,585.633l6.115,2.587,11.6-9.535-6.164-2.578Z" transform="translate(-862.886 -475.863)"/><path class="g" d="M891.413,573.839l5.979,2.547,5.067-4.183-6-2.508Z" transform="translate(-866.601 -476.773)"/><path class="g" d="M970.673,516.487l6.247,2.42,5.177-4.257-6.279-2.432Z" transform="translate(-855.353 -484.93)"/><path class="g" d="M965.01,521.121l6.244,2.479,5.162-4.3-6.251-2.385Z" transform="translate(-856.156 -484.264)"/><path class="g" d="M959.36,525.824l6.223,2.475,5.151-4.28L964.5,521.6Z" transform="translate(-856.958 -483.599)"/><path class="g" d="M953.716,530.473l6.209,2.466,5.154-4.258-6.219-2.43Z" transform="translate(-857.759 -482.938)"/><path class="g" d="M948.061,535.109l6.193,2.5,5.157-4.275L953.2,530.9Z" transform="translate(-858.562 -482.279)"/><path class="g" d="M942.432,539.779l6.179,2.489,5.146-4.25-6.189-2.452Z" transform="translate(-859.36 -481.617)"/><path class="g" d="M936.818,544.406l6.137,2.488,5.141-4.23-6.172-2.474Z" transform="translate(-860.157 -480.96)"/><path class="g" d="M931.377,548.9l6.129,2.515,5.118-4.241-6.139-2.474Z" transform="translate(-860.929 -480.32)"/><path class="g" d="M925.775,553.543l6.113,2.495,5.108-4.2-6.117-2.5Z" transform="translate(-861.724 -479.663)"/><path class="g" d="M920.176,558.147l6.084,2.521,5.119-4.217-6.117-2.5Z" transform="translate(-862.519 -479.008)"/><path class="g" d="M914.587,562.752l6.063,2.56,5.095-4.237-6.086-2.515Z" transform="translate(-863.312 -478.353)"/><path class="g" d="M908.986,567.393l6.084,2.506,5.082-4.172-6.055-2.533Z" transform="translate(-864.107 -477.696)"/><path class="g" d="M909.123,567.741l-11.405,9.431,13.585,5.787,5.116-4.2-7.614-3.218,6.385-5.275Z" transform="translate(-865.706 -477.051)"/><path class="g" d="M934.883,528.466l6.092,2.442,5.124-4.226-6.151-2.443Z" transform="translate(-860.432 -483.224)"/><path class="g" d="M929.284,533.077l6.111,2.458,5.1-4.229-6.115-2.43Z" transform="translate(-861.226 -482.566)"/><path class="g" d="M923.719,537.7l6.053,2.442,5.113-4.194-6.112-2.441Z" transform="translate(-862.016 -481.909)"/><path class="g" d="M918.147,542.294l6.047,2.486,5.087-4.222-6.075-2.425Z" transform="translate(-862.807 -481.252)"/><path class="g" d="M909.794,549.229l6.032,2.484,5.079-4.2-6.053-2.475Z" transform="translate(-863.992 -480.272)"/><path class="g" d="M904.25,553.83l6.008,2.5,5.058-4.2-6.027-2.519Z" transform="translate(-864.779 -479.623)"/><path class="g" d="M898.71,558.4l5.977,2.514,5.063-4.194-6.019-2.508Z" transform="translate(-865.565 -478.97)"/><path class="g" d="M893.151,562.989l6,2.5,5.025-4.169-5.964-2.5Z" transform="translate(-866.354 -478.316)"/><path class="g" d="M883.894,571.1l5.952,2.508,9.274-7.661-5.967-2.51Z" transform="translate(-867.668 -477.662)"/><path class="g" d="M956.278,566.284l19.224,7.87,34.048-27.873-19.543-7.72Z" transform="translate(-857.395 -481.191)"/></g><path class="e" d="M964.418,411.477a1.635,1.635,0,0,0-1.616.393L852.377,498.227a4.9,4.9,0,0,0-1.567,4.218l15.5,88.951a1.506,1.506,0,0,0,.876,1.307h0c.007.042.041.037.041.037l3.972,1.445.138-4.039,107.243-89.638a4.894,4.894,0,0,0,1.547-4.2l-14.252-79.876.8.451,1.809-3.9-4.066-1.5Z" transform="translate(-850.76 -411.395)"/><path class="g" d="M966.32,413.162,855.9,499.523a4.954,4.954,0,0,0-1.551,4.227l15.5,88.963a1.378,1.378,0,0,0,2.444.9L982.1,501.8a4.921,4.921,0,0,0,1.573-4.227l-14.916-83.519C968.511,412.644,967.438,412.229,966.32,413.162Z" transform="translate(-850.259 -411.215)"/><path class="h" d="M972.486,490.04,870.28,575.473l.375,2.154,104-86.929-12.516-69.913-1.794,1.472Z" transform="translate(-847.99 -410.062)"/><path class="i" d="M871.871,575.29l102.206-85.433-12.145-67.783L859.065,502.06Z" transform="translate(-849.582 -409.879)"/><g transform="translate(184.589 124.057)"><path class="j" d="M1043.339,556.293c-.9-.745-13.222-6.915-17-12.02s-8.864-13.068-11.38-15.359c-2.961-2.695-2.075-4.364,1.728-1.5,2.471,1.865,7.036,5.985,7.754,7.074.348.529-2.268-2.7-5.407-6.033-3.338-3.542-7.2-7.235-6.556-7.9,1.256-1.295,11.645,8.439,13.122,10.367a57.432,57.432,0,0,0-3.968-5.039c-1.937-2.186-4.551-4.454-4.342-5.335.33-1.391,6.64,3.276,10.475,7.967.23-.017-.49-1.846-5.443-7.1-.5-.528-1.144-2.248,1.023-.844,4.562,2.954,6.766,3.884,10.6,9.843,3.742,5.811,6.366,13.137,10.43,16.487Z" transform="translate(-1012.409 -520.035)"/><path class="j" d="M1028.448,544.462s-7.846-1.507-11.771-6.154c-2.333-2.761-3.106-2.2-3.662-2.572-1.844-1.246,2.564-1.626,4.995.449,1.976,1.685,6.505.555,8.077,1.337s5.335,3.686,5.377,4.954S1028.448,544.462,1028.448,544.462Z" transform="translate(-1012.386 -517.951)"/></g><path class="k" d="M1041.115,581.128s-4.254-18.319-5.521-26.5a14.338,14.338,0,0,1,4.752-12.934l11.089-.739Z" transform="translate(-824.554 -393.009)"/><path class="l" d="M1032.977,613.747c6.244-42.557,14.073-68.517,32.275-92.083,11.3-14.631,31.272-33.061,41.228-37.833,3.839,1.846,8.841,1.379,8.841,1.379s10.059.091,13.549-2.584c9.305,3.571,23.984,15.1,34.216,28.548,18.069,23.744,19,37.934,24.078,89.662,3.891,39.631,5.019,32.452-3.048,55.209-14.707,41.49-50.632,43.917-55.837,44.877-36,6.64-88.912-1.105-105.292-33.028C1011.781,646.058,1022.064,688.118,1032.977,613.747Z" transform="translate(-827.007 -401.286)"/><g transform="translate(107.073 184.287)"><path class="j" d="M985.775,598.134c-.913-.723-9.514-11.239-15.262-13.929s-14.548-6.14-17.3-8.118c-3.241-2.327-4.669-1.222-1.081,1.865a62.234,62.234,0,0,0,8.5,6.091c.586.239-3.1-1.677-7-4.066-4.141-2.54-8.542-5.55-9.051-4.833-.988,1.391,10.652,9.51,12.835,10.574a60.846,60.846,0,0,1-5.727-2.882c-2.529-1.453-5.283-3.525-6.093-3.184-1.277.538,4.587,5.677,9.948,8.491.033.218-1.893-.153-8.037-3.924-.617-.379-2.421-.7-.6,1.1,3.833,3.784,5.2,5.693,11.794,8.3,6.427,2.544,14.082,3.79,18.193,7.042Z" transform="translate(-944.526 -572.487)"/><path class="j" d="M971.178,586.114s-3.129-7.1-8.465-10.005c-3.172-1.728-2.79-2.545-3.272-3-1.6-1.522-1.03,2.67,1.5,4.6,2.054,1.57,1.922,6,3.014,7.343s4.707,4.386,5.944,4.216S971.178,586.114,971.178,586.114Z" transform="translate(-942.536 -572.779)"/></g><path class="m" d="M1060.754,608.547c-2.084-9.742-7.009-38.962,8.931-67.527,14.883-26.669,48.3-53.385,71.792-44.1,19.85,7.846,24.16,38.051,27.222,59.518,3.682,25.812,11.647,81.645-28.941,117.31-23.226,20.409-57.187,29.677-89.585,21.976-39.414-9.367-70.214-42.354-78.388-84.255l9.318-8.915a228.28,228.28,0,0,1,79.65,5.989Z" transform="translate(-833.585 -399.524)"/><path class="c" d="M1093.662,451.587c-.749,2.118-1.842,5.362-2.293,6.7a.584.584,0,0,0,.433.755l3.7.815a.587.587,0,0,0,.7-.683l-1.418-7.5A.586.586,0,0,0,1093.662,451.587Z" transform="translate(-816.619 -405.746)"/><path class="b" d="M1102.439,445.244s9.539,5.209,9.679,12.25c0,0,2.927-7.1,2.393-8.707S1102.439,445.244,1102.439,445.244Z" transform="translate(-815.043 -406.591)"/><path class="b" d="M1112.6,452.156a3.722,3.722,0,0,1,3.421-2.129c2.394.14,1.126,9.543.281,9.77s2.417.227,1.972,6.986,6.292-13.926,4.043-19.425-4.466-1.837-7-.147A6.905,6.905,0,0,0,1112.6,452.156Z" transform="translate(-813.6 -406.705)"/></g><g transform="translate(889.696 460.529)"><path class="n" d="M918.043,483.633q.06-.355.082-.679a2.055,2.055,0,0,0-.274-.266L915.1,479.6a.305.305,0,0,0-.356.008l-4.382,2.722c-.216.164-.344.143-.386-.065l-.411-2.025a.673.673,0,0,1,.326-.692l15.483-11.592c.257-.192.411-.168.46.073l.382,1.883a.523.523,0,0,1-.256.53l-3.69,3.323q-.509.389-.186.739l11.975,13.727,3.306-25.451q.091-.625-.35-.288l-3.484,2.179c-.175.133-.28.106-.319-.081l-.369-1.821a.564.564,0,0,1,.256-.595l10.219-7.65c.216-.162.347-.132.392.089l.337,1.659a.56.56,0,0,1-.256.579l-3.274,2.963a.832.832,0,0,0-.2.389L935.467,497.5a.686.686,0,0,1-.22.459l-1.732,1.611c-.134.126-.239.137-.313.034l-12.707-14-5.338,30.77a.9.9,0,0,1-.311.569l-1.891,1.76c-.162.151-.288.174-.373.065l-21.412-20.838a.4.4,0,0,0-.432.038l-5.9,3.819q-.4.3-.469-.042l-.457-2.25a.807.807,0,0,1,.411-.806l19.6-14.675a.061.061,0,0,1-.059-.048c.34-.253.541-.222.606.1l.42,2.069a.616.616,0,0,1-.316.609l-4.479,3.977q-.618.473-.236.839l14.111,14.315Z" transform="translate(-883.893 -454.423)"/></g></g></svg>