<?xml version="1.0" encoding="utf-8"?>
<!-- Generator: Adobe Illustrator 24.1.3, SVG Export Plug-In . SVG Version: 6.00 Build 0)  -->
<svg version="1.1" id="Layer_1" xmlns="http://www.w3.org/2000/svg" xmlns:xlink="http://www.w3.org/1999/xlink" x="0px" y="0px"
	 viewBox="0 0 960 254.2" style="enable-background:new 0 0 960 254.2;" xml:space="preserve">
<style type="text/css">
	.st0{fill:#D9001C;}
	.st1{fill:#A6001B;}
	.st2{fill:#D4001B;}
	.st3{fill:#222423;}
	.st4{fill:#E8E8E8;}
	.st5{fill:#9E9E9E;}
	.st6{fill:#E4E4E4;}
	.st7{fill:#E8BDA6;}
	.st8{fill:#CE9C86;}
	.st9{fill:#B67F6D;}
	.st10{fill:#FFFFFF;}
	.st11{fill:#DBC100;}
	.st12{fill:#C9AD00;}
	.st13{fill:#FFEC00;}
	.st14{fill:#A37019;}
	.st15{fill:url(#SVGID_1_);}
	.st16{fill:url(#SVGID_2_);}
</style>
<g transform="translate(-356.87 -425.933)">
	<g transform="translate(921.568 510.112)">
		<path class="st0" d="M58.3,15h15.8v103.9L38.5,83.4L58.3,15z"/>
		<path class="st1" d="M68.6,14.9c-0.2,3.3-0.3,7.6-0.6,12.7v0.1c-1.3,28.8-3.3,79.7-3.3,79.7l-4-4.4L2.4,39.3l29.2-23.9
			C31.6,15.3,63.3,13.5,68.6,14.9z"/>
		<path class="st0" d="M69.3,15.3c-0.1,0.5-0.6,5.1-1.3,12.2v0.1C66.1,47,62.5,84.4,60.7,103c-0.6,6.8-1.1,11.1-1.1,11.1L0,41.2
			l2.4-2l29.2-23.9c0,0,31.8-1.8,37-0.5C69.1,15,69.3,15.2,69.3,15.3z"/>
		<circle cx="41.6" cy="27" r="4.8"/>
		<circle cx="57.4" cy="41.9" r="3.9"/>
		<circle cx="43.8" cy="66" r="8.3"/>
		<path class="st2" d="M72.3,0l7.5,8l7.5,8H57.4l7.5-8L72.3,0z"/>
		<path class="st2" d="M89.8,15H74.1v103.9l35.5-35.5L89.8,15z"/>
		<path class="st1" d="M79.5,14.9c0.2,3.3,0.3,7.6,0.6,12.7v0.1c1.3,28.8,3.3,79.7,3.3,79.7l4-4.4l58.3-63.7l-29.2-23.9
			C116.5,15.3,84.8,13.5,79.5,14.9z"/>
		<path class="st0" d="M78.8,15.3c0.1,0.5,0.6,5.1,1.3,12.2v0.1C82,47,85.6,84.4,87.4,103c0.6,6.8,1.1,11.1,1.1,11.1l59.6-72.8
			l-2.4-2l-29.2-23.9c0,0-31.8-1.8-37-0.5C79,15,78.8,15.2,78.8,15.3z"/>
		<circle cx="106.5" cy="27" r="4.8"/>
		<circle cx="90.7" cy="41.9" r="3.9"/>
		<circle cx="104.3" cy="66" r="8.3"/>
	</g>
	<g transform="translate(356.87 506.676)">
		<path class="st3" d="M106.8,109.2c2-0.7,27.3,3.6,27.3,3.6l15.5-11.5V46.4l-42.8,3.3L106.8,109.2z"/>
		<path class="st4" d="M88.1,131.2l-64.5-3l-0.1-0.3L0,80.3l6.3-34.9c0,0,8.3-5.7,18.6-12.6c10.4-7.1,22.9-15.5,30.7-20.9
			c4.6-3.1,7.6-5.2,7.9-5.3l22.2,4.9l1.2,60.3L88.1,131.2z"/>
		<path class="st5" d="M86.9,71.8c-5.7-0.2-10.7-0.4-10.7-0.4L54.4,42.9l1.2-31c4.6-3.1,7.6-5.2,7.9-5.3l22.2,4.9L86.9,71.8z"/>
		<path class="st3" d="M72.7,50.6v69.1l15.1,15.1h21.1V56.6L72.7,50.6z"/>
		<path class="st3" d="M24.9,32.7c-0.3,21.9-1,77.3-1.4,95.3L0,80.3l6.3-34.9C6.3,45.4,14.6,39.7,24.9,32.7z"/>
		<path class="st6" d="M110,58.7c-0.1,5.1-0.2,8.4-0.5,8.4H81.9l-23-27.6V0h50.6C109.5,0,110.3,40.7,110,58.7z"/>
		<path class="st3" d="M94.4,0L58.9,39.1V0H94.4z"/>
		<path class="st3" d="M109.8,58.7c-0.1,5.1,1.7,8.4,1.4,8.4h-8.8L109.8,58.7z"/>
		<path class="st3" d="M102.3,37.1L88.8,49.5c-2,1.8-5.1,1.7-6.9-0.3l-5.1-5.6c-1.8-2-1.7-5.1,0.3-6.9l13.5-12.4
			c2-1.8,5.1-1.7,6.9,0.3l5.1,5.6C104.4,32.2,104.3,35.3,102.3,37.1z"/>
		<circle class="st6" cx="93" cy="33.5" r="7.3"/>
		<circle class="st3" cx="93" cy="33.5" r="3"/>
		<path class="st6" d="M109.8,58.7c0.1,5.1,0.2,8.4,0.5,8.4h27.6l23-27.6V0h-56.4C104.6,0,109.5,40.7,109.8,58.7z"/>
		<path class="st3" d="M125.5,0L161,39.1V0H125.5z"/>
		<path class="st3" d="M109.8,58.7c0.1,5.1-1.2,8.4-0.9,8.4h8.5L109.8,58.7z"/>
		<path class="st3" d="M129.3,24.3l13.5,12.4c2,1.8,2.1,4.9,0.3,6.9l-5.1,5.6c-1.8,2-4.9,2.1-6.9,0.3l-13.5-12.4
			c-2-1.8-2.1-4.9-0.3-6.9l5.1-5.6C124.2,22.6,127.3,22.5,129.3,24.3z"/>
		<circle class="st6" cx="126.8" cy="33.5" r="7.3"/>
		<circle class="st3" cx="126.8" cy="33.5" r="3"/>
	</g>
	<g transform="translate(592.03 511.45)">
		<path class="st7" d="M55.5,96v8.8l38.2-28.9l85.6,2.1l34-67.4L58.2,0L55.5,96z"/>
		<path class="st8" d="M0,27.6v26l50.6,21L58.2,0L13.2,41.4L0,27.6z"/>
		<path class="st9" d="M81.4,77.9l4.6-2.3L58.3,0.4L81.4,77.9z"/>
		<path class="st9" d="M78.1,75.2L47.7,95.5l-9.4,6.3L57.9,2.5l0.4-2.1L78.1,75.2z"/>
		<path class="st7" d="M83.9,77.3l-37.5,29.9l1.3-11.7l10.3-93L58.2,0l0.1,0.4l6.9,20.8L83.9,77.3z"/>
		<path class="st9" d="M181.6,78.9l-4.3-2.9l36-66.3L181.6,78.9z"/>
		<path class="st8" d="M210.9,96l13.4,11.8V68.6l-17.8,6.1L210.9,96z"/>
		<path class="st8" d="M213.2,76.3h29.1l16.4-15.6l-45.5-50.2L213.2,76.3z"/>
		<path class="st7" d="M245.9,46.2l-3.6,30.1c0,0-13-12.7-12.8-13S245.9,46.2,245.9,46.2z"/>
		<circle class="st10" cx="225.5" cy="46.7" r="5.7"/>
		<circle cx="225.5" cy="46.7" r="2.1"/>
		<path class="st7" d="M179.2,77.9l33.4,34.4l0.2-11.8l0.6-88.6l0-2.5l-0.2,0.4l-8.6,14.9L179.2,77.9z"/>
	</g>
	<g transform="translate(1154.397 425.933)">
		<path class="st11" d="M42.1,2c0.1,0.9,15.1,32.6,15.1,32.6l-12.2,84.5c0,0-32.6-39.8-32.2-40.8S42.1,2,42.1,2z"/>
		<path class="st12" d="M42.1,2c0,0,7.6,33.5,7.6,34.5s-17.1,83.9-17.4,85.2S3.6,204.6,3.6,204.6s-1.8-9.9-1.5-11.5S35,64.5,35,64.5
			L42.1,2z"/>
		<path class="st13" d="M45.1,32.2c0,0-10.8,42.6-21.8,86.3v0c-2,8-4,15.9-6,23.7C8,178.9,0,210.7,0,211.1c0,0,1.3-68.9,2.1-109.7
			C2.4,84.2,2.6,72,2.6,72l4.2-8.4l21-42.3L45.1,32.2z"/>
		<path class="st14" d="M16.4,93.7c-0.7,1-5.3,7.2-5.3,7.2l-9.1,0.4C2.4,84.2,2.6,72,2.6,72l4.2-8.4c4.4,4.4,9.7,9.7,9.7,9.7
			S17.1,92.7,16.4,93.7z"/>
		<path class="st14" d="M21,45.1l11.8,11.2L37.5,46l-4.9-11.8L21,45.1z"/>
		<path class="st14" d="M23.2,118.5c-2,8-4,15.9-6,23.7c-1.8-2.9-3.8-6-3.8-6l3.3-13.5L23.2,118.5z"/>
		
			<linearGradient id="SVGID_1_" gradientUnits="userSpaceOnUse" x1="-476.0302" y1="422.1635" x2="-475.0302" y2="422.1635" gradientTransform="matrix(38.809 0 0 -32.231 18480.5137 13622.876)">
			<stop  offset="0" style="stop-color:#FFEC00"/>
			<stop  offset="1" style="stop-color:#E0C700"/>
		</linearGradient>
		<path class="st15" d="M7.9,0L6.2,7.9l38.8,24.3L42.1,2L7.9,0z"/>
		<path class="st13" d="M30.3,203.9l-0.2,9.5l-0.2,11.6l-0.6,29.3H18.4L0,211.1L3,195L30.3,203.9z"/>
		<path class="st13" d="M127.6,227.6V249H84.9l-2-13.3l-2.6-17.6L127.6,227.6z"/>
		<path class="st13" d="M131.6,201.6c3,0.3,30.9,21.4,30.9,21.4L124,239.4l0.7-20.4L131.6,201.6z"/>
		<path class="st14" d="M114.5,242.7l-0.7,6.2H84.9l-2-13.3c7.6-0.5,17.1-1.2,17.1-1.2L114.5,242.7z"/>
		<path class="st14" d="M30.1,213.4l-0.2,11.6c-3.4,1.3-7.3,2.7-7.3,2.7l-7.4-10.5l3.2-6.6C18.4,210.5,25.4,212.2,30.1,213.4z"/>
		
			<linearGradient id="SVGID_2_" gradientUnits="userSpaceOnUse" x1="-469.9741" y1="426.2432" x2="-468.9741" y2="426.2432" gradientTransform="matrix(134.854 0 0 -136.8525 63381.5 58501.5312)">
			<stop  offset="0" style="stop-color:#FFEC00"/>
			<stop  offset="1" style="stop-color:#E0C700"/>
		</linearGradient>
		<path class="st16" d="M138.5,189.8c0,0-3.3,15.9-6,29.3c-1.9,9.5-3.6,17.9-3.6,18.4c0,0.3-7.4-1.6-18.6-4.7
			C75.4,223.2,3.6,202.3,3.6,202.3s31.9-100.6,32.2-101.6l48.9,42.5l32.2,27.9L138.5,189.8z"/>
		<path class="st14" d="M40.8,123.7l-7.9,5.3l-3.6,16.8l16.8,8.2l11.2-8.9l-3-15.5L40.8,123.7z"/>
		<path class="st14" d="M116.9,171l-3.4,5.3l-28.6-3.9l-7.6-23.7c0,0,4-3,7.4-5.6L116.9,171z"/>
		<path class="st14" d="M25.7,182.5l6.9-4.3l13.8-2l-2.3,10.5l-9,1.3L25.7,182.5z"/>
		<path class="st14" d="M56.6,195c0.7-0.7,5.3-6.9,5.3-6.9h15.5l6.6,12.8l-8.6,6.9l-13.2,2.6L56.6,195z"/>
		<path class="st14" d="M97.4,195l3.3-4.6l9.5,2.6l10.9,12.2l-21.4,4.3L97.4,195z"/>
		<path class="st14" d="M132.5,219.1c-1.9,9.5-3.6,17.9-3.6,18.4c0,0.3-7.4-1.6-18.6-4.7c-0.6-3.2-2.2-9.1-2.2-9.1L132.5,219.1z"/>
		<circle class="st10" cx="27" cy="7.7" r="4.2"/>
		<circle cx="27" cy="7.7" r="2.2"/>
	</g>
</g>
</svg>
