<svg xmlns="http://www.w3.org/2000/svg" xmlns:xlink="http://www.w3.org/1999/xlink" width="960" height="254.231" viewBox="0 0 960 254.231"><defs><style>.a{fill:#d9001c;}.b{fill:#a6001b;}.c{fill:#d4001b;}.d{fill:#131313;}.e{fill:#e8e8e8;}.f{fill:#9e9e9e;}.g{fill:#090a0a;}.h{fill:#e4e4e4;}.i{fill:#e8bda6;}.j{fill:#ce9c86;}.k{fill:#b67f6d;}.l{fill:#fff;}.m{fill:#dbc100;}.n{fill:#c9ad00;}.o{fill:#ffec00;}.p{fill:#a37019;}.q{fill:url(#a);}</style><linearGradient id="a" y1="0.5" x2="1" y2="0.5" gradientUnits="objectBoundingBox"><stop offset="0" stop-color="#ffec00"/><stop offset="1" stop-color="#e0c700"/></linearGradient></defs><g transform="translate(-356.87 -425.933)"><g transform="translate(921.568 510.112)"><path class="a" d="M760.492,489.021h15.787v103.93l-35.52-35.52Z" transform="translate(-702.226 -474.066)"/><path class="b" d="M783.922,489.147c-.157,3.3-.346,7.637-.566,12.665v.079c-1.273,28.835-3.331,79.7-3.331,79.7l-3.976-4.353-58.282-63.7,29.165-23.916S778.689,487.8,783.922,489.147Z" transform="translate(-715.363 -474.278)"/><path class="a" d="M785.519,489.619c-.094.471-.582,5.123-1.289,12.194v.079c-1.933,19.391-5.516,56.758-7.307,75.347-.644,6.788-1.053,11.062-1.053,11.062l-59.633-72.8,2.4-1.964,29.165-23.916s31.757-1.823,36.99-.471C785.3,489.273,785.55,489.43,785.519,489.619Z" transform="translate(-716.237 -474.278)"/><circle cx="4.824" cy="4.824" r="4.824" transform="translate(36.779 22.145)"/><circle cx="3.947" cy="3.947" r="3.947" transform="translate(53.443 37.932)"/><circle cx="8.332" cy="8.332" r="8.332" transform="translate(35.463 57.666)"/><path class="c" d="M767.68,479.5l7.461,7.984,7.46,7.984H752.759l7.461-7.984Z" transform="translate(-695.37 -479.504)"/><path class="c" d="M779.15,489.021H763.364v103.93l35.52-35.52Z" transform="translate(-689.31 -474.066)"/><path class="b" d="M766.86,489.147c.157,3.3.346,7.637.566,12.665v.079c1.273,28.835,3.331,79.7,3.331,79.7l3.975-4.353,58.282-63.7L803.85,489.619S772.093,487.8,766.86,489.147Z" transform="translate(-687.313 -474.278)"/><path class="a" d="M766.4,489.619c.094.471.581,5.123,1.288,12.194v.079c1.933,19.391,5.516,56.758,7.307,75.347.644,6.788,1.053,11.062,1.053,11.062l59.633-72.8-2.4-1.964-29.165-23.916s-31.757-1.823-36.99-.471C766.621,489.273,766.37,489.43,766.4,489.619Z" transform="translate(-687.576 -474.278)"/><circle cx="4.824" cy="4.824" r="4.824" transform="translate(101.68 22.145)"/><circle cx="3.947" cy="3.947" r="3.947" transform="translate(86.77 37.932)"/><circle cx="8.332" cy="8.332" r="8.332" transform="translate(95.979 57.666)"/></g><g transform="translate(356.87 506.676)"><path class="d" d="M424.862,569.647c2.033-.658,27.273,3.617,27.273,3.617l15.535-11.512V506.828l-42.807,3.289Z" transform="translate(-318.021 -460.455)"/><path class="e" d="M445.008,606.151,380.551,603.2l-.141-.267L356.87,555.176l6.254-34.869s8.328-5.657,18.636-12.634c10.418-7.071,22.863-15.509,30.736-20.852,4.573-3.1,7.621-5.154,7.857-5.311l22.235,4.934,1.226,60.309Z" transform="translate(-356.87 -474.921)"/><path class="f" d="M424.039,546.753c-5.72-.236-10.67-.424-10.67-.424L391.48,517.793l1.241-30.972c4.573-3.1,7.621-5.154,7.857-5.311l22.235,4.934Z" transform="translate(-337.095 -474.921)"/><path class="d" d="M403.128,509.549v69.067l15.129,15.129h21.057V515.469Z" transform="translate(-330.44 -458.9)"/><path class="g" d="M381.762,498.157c-.266,21.921-.958,77.3-1.351,95.256L356.871,545.66l6.254-34.869S371.453,505.134,381.762,498.157Z" transform="translate(-356.869 -465.409)"/><path class="h" d="M445.5,536.008c-.063,5.123-.22,8.407-.519,8.407H417.362L394.341,516.79V477.317h50.645S445.788,517.984,445.5,536.008Z" transform="translate(-335.46 -477.317)"/><path class="g" d="M429.823,477.317l-35.482,39.064V477.317Z" transform="translate(-335.46 -477.317)"/><path class="g" d="M429.446,514.648c-.063,5.123,1.7,8.437,1.4,8.437h-8.8Z" transform="translate(-319.627 -455.987)"/><rect class="g" width="28.164" height="17.346" rx="4.902" transform="translate(105.911 33.806) rotate(137.451)"/><circle class="h" cx="7.321" cy="7.321" r="7.321" transform="translate(85.723 26.228)"/><circle class="g" cx="3.045" cy="3.045" r="3.045" transform="translate(89.998 30.504)"/><path class="h" d="M428.631,536.008c.063,5.123.22,8.407.519,8.407h27.625L479.8,516.79V477.317H423.43S428.348,517.984,428.631,536.008Z" transform="translate(-318.84 -477.317)"/><path class="g" d="M436.72,477.317,472.2,516.381V477.317Z" transform="translate(-311.246 -477.317)"/><path class="g" d="M427.073,514.667c.063,5.123-1.169,8.407-.87,8.407h8.492Z" transform="translate(-317.282 -455.976)"/><rect class="g" width="28.164" height="17.346" rx="4.902" transform="translate(125.656 21.027) rotate(42.549)"/><circle class="h" cx="7.321" cy="7.321" r="7.321" transform="translate(119.473 26.228)"/><circle class="g" cx="3.045" cy="3.045" r="3.045" transform="translate(123.748 30.504)"/></g><g transform="translate(592.03 511.45)"><path class="i" d="M541.826,576.389v8.77l38.151-28.942,85.583,2.063,34.019-67.4L544.56,480.358Z" transform="translate(-486.353 -480.352)"/><path class="j" d="M506.523,507.981v25.982l50.649,21.049,7.564-74.658-45.058,41.44Z" transform="translate(-506.523 -480.355)"/><path class="k" d="M566.707,558.145l4.6-2.3-27.656-75.215Z" transform="translate(-485.307 -480.198)"/><path class="k" d="M570.774,555.394,540.29,575.7l-9.444,6.3,19.705-99.263.424-2.106Z" transform="translate(-492.626 -480.198)"/><path class="i" d="M573.529,557.639l-37.493,29.934,1.288-11.722,10.261-92.962.283-2.53.141.424,6.914,20.836Z" transform="translate(-489.66 -480.352)"/><path class="k" d="M623.628,555.694l-4.278-2.864,36.018-66.255Z" transform="translate(-442.057 -476.8)"/><path class="j" d="M642.35,551.437l13.375,11.84V524.029l-17.76,6.139Z" transform="translate(-431.421 -455.4)"/><path class="j" d="M642.217,552.825h29.057l16.445-15.562-45.5-50.211Z" transform="translate(-428.991 -476.528)"/><path class="i" d="M668.991,509.727l-3.617,30.142s-13.046-12.711-12.827-13.041S668.991,509.727,668.991,509.727Z" transform="translate(-423.091 -463.572)"/><circle class="l" cx="5.701" cy="5.701" r="5.701" transform="translate(219.809 41.002)"/><circle cx="2.083" cy="2.083" r="2.083" transform="translate(223.427 44.62)"/><path class="i" d="M620.568,554.874l33.424,34.418.2-11.791.638-88.637.038-2.546-.193.4-8.592,14.922Z" transform="translate(-441.361 -476.947)"/></g><g transform="translate(1154.397 425.933)"><path class="m" d="M901.842,427.189c.093.946,15.129,32.56,15.129,32.56L904.8,544.275s-32.56-39.8-32.232-40.783S901.842,427.189,901.842,427.189Z" transform="translate(-859.743 -425.216)"/><path class="n" d="M905.758,427.189s7.564,33.547,7.564,34.534-17.1,83.867-17.431,85.182-28.615,82.88-28.615,82.88-1.771-9.867-1.543-11.51,32.951-128.6,32.951-128.6Z" transform="translate(-863.659 -425.216)"/><path class="o" d="M909.457,450.373s-10.8,42.647-21.826,86.284v.016c-2,7.951-4.007,15.919-5.971,23.681-9.255,36.693-17.254,68.513-17.254,68.936.016,0,1.3-68.9,2.074-109.729.314-17.175.55-29.385.55-29.385l4.164-8.36,21.025-42.254Z" transform="translate(-864.406 -418.146)"/><path class="p" d="M880.1,496.512c-.66.99-5.264,7.244-5.264,7.244l-9.114.44c.314-17.175.55-29.385.55-29.385l4.164-8.36c4.384,4.4,9.664,9.68,9.664,9.68S880.748,495.522,880.1,496.512Z" transform="translate(-863.652 -402.782)"/><path class="p" d="M877.8,458.554l11.84,11.182,4.6-10.2-4.934-11.84Z" transform="translate(-856.752 -413.496)"/><path class="p" d="M882.728,501.362c-2,7.951-4.007,15.92-5.971,23.681-1.807-2.938-3.771-6.05-3.771-6.05l3.253-13.482Z" transform="translate(-859.504 -382.835)"/><path class="q" d="M870.027,425.933l-1.644,7.893,38.809,24.338-2.96-30.258Z" transform="translate(-862.134 -425.933)"/><path class="o" d="M894.67,558.931l-.189,9.46-.219,11.565-.582,29.291H882.759l-18.353-43.087,2.954-16.107Z" transform="translate(-864.406 -355.015)"/><path class="o" d="M962.837,574.24v21.371H920.08l-1.98-13.294L915.476,564.7Z" transform="translate(-835.226 -346.644)"/><path class="o" d="M950.878,554.235c2.96.33,30.917,21.379,30.917,21.379l-38.481,16.444.658-20.393Z" transform="translate(-819.321 -352.625)"/><path class="p" d="M948.731,583.4l-.692,6.238H919.126l-1.98-13.294c7.59-.55,17.112-1.179,17.112-1.179Z" transform="translate(-834.272 -340.668)"/><path class="p" d="M888.98,562.773l-.22,11.565c-3.441,1.336-7.323,2.656-7.323,2.656l-7.4-10.528,3.221-6.584S884.266,561.595,888.98,562.773Z" transform="translate(-858.904 -349.399)"/><path class="q" d="M1001.561,579.109s-3.269,15.855-5.971,29.29c-1.917,9.538-3.567,17.851-3.567,18.4,0,.314-7.417-1.6-18.636-4.7-34.931-9.6-106.68-30.5-106.68-30.5s31.9-100.63,32.229-101.619L947.82,532.44l32.15,27.909Z" transform="translate(-863.092 -389.337)"/><path class="p" d="M894.545,504.631l-7.893,5.262-3.618,16.773,16.774,8.222,11.182-8.88-2.96-15.458Z" transform="translate(-853.762 -380.968)"/><path class="p" d="M953.179,544.911l-3.41,5.278-28.615-3.944L913.6,522.565s3.991-3.033,7.433-5.563Z" transform="translate(-836.3 -373.899)"/><path class="p" d="M880.732,544.368l6.907-4.276,13.814-1.973-2.3,10.525-9.046,1.316Z" transform="translate(-855.078 -361.833)"/><path class="p" d="M900.406,552.565c.658-.662,5.263-6.911,5.263-6.911h15.458l6.578,12.827-8.551,6.906L906,568.012Z" transform="translate(-843.837 -357.528)"/><path class="p" d="M926.36,551.728l3.289-4.609,9.538,2.631,10.853,12.169-21.378,4.275Z" transform="translate(-829.008 -356.691)"/><path class="p" d="M957.582,565.342c-1.917,9.538-3.567,17.851-3.567,18.4,0,.314-7.417-1.6-18.636-4.7-.581-3.174-2.153-9.1-2.153-9.1Z" transform="translate(-825.084 -346.279)"/><circle class="l" cx="4.193" cy="4.193" r="4.193" transform="translate(22.791 3.481)"/><circle cx="2.22" cy="2.22" r="2.22" transform="translate(24.765 5.454)"/></g></g></svg>