<svg xmlns="http://www.w3.org/2000/svg" width="557.135" height="417.315" viewBox="0 0 557.135 417.315"><defs><style>.a,.i{fill:#294675;}.b{fill:#485972;}.c,.d{fill:#bec9f2;}.c{opacity:0.5;}.e{fill:#caa267;}.f{fill:#5e5587;}.g,.j{fill:#fff;}.g{opacity:0.3;}.h{fill:#f0c659;}.i{opacity:0.6;}.j{font-size:31px;font-family:DejaVuSans, DejaVu Sans;}</style></defs><g transform="translate(14148.548 23677.542)"><rect class="a" width="522.035" height="382.215" rx="11.198" transform="translate(-14130.998 -23659.992)"/><path class="b" d="M590.128,668.013v36.334a14.783,14.783,0,0,1-14.739,14.74H82.834a14.784,14.784,0,0,1-14.741-14.74V676.01L79.148,632.9H581.125Z" transform="translate(-14199.093 -23996.861)"/><g transform="translate(-13899.291 -23479.764)"><path class="c" d="M304.961,679.306l-1.712,3.229-54.051.711-4.174-1.835,1.327-3.655,5.136-8.165-.943-124.67h48.9V665.51l2.481,8.591Z" transform="translate(-243.846 -544.921)"/><g transform="translate(0 0)"><path class="d" d="M301.34,670.288V657.544a14.844,14.844,0,0,0,.27-2.618v-110h-4.078v110a11.9,11.9,0,0,1-.25,2.3l-.02,13.912.308.355c2.059,2.474,5.252,7.183,5.136,9.387a.61.61,0,0,1,0,.184H248.213a1.32,1.32,0,0,1-.02-.313c-.115-2.076,3.1-6.784,5.156-9.259l.288-.355V578.091l-.1-33.17h-4.059l.1,33.17v92.2c-1.289,1.607-5.636,7.268-5.444,10.455a3.273,3.273,0,0,0,2.327,3.2l.4.142h57.166l.4-.142a3.245,3.245,0,0,0,2.347-3.072C306.957,677.571,302.629,671.9,301.34,670.288Z" transform="translate(-244.129 -544.921)"/></g></g><g transform="translate(-13888.451 -23386.521)"><path class="e" d="M252.364,636.251a20.492,20.492,0,1,1,20.491,20.49A20.491,20.491,0,0,1,252.364,636.251Z" transform="translate(-252.364 -615.759)"/></g><g transform="translate(-13888.451 -23430.48)"><path class="e" d="M252.364,602.852a20.492,20.492,0,1,1,20.491,20.492A20.49,20.49,0,0,1,252.364,602.852Z" transform="translate(-252.364 -582.362)"/></g><g transform="translate(-13888.451 -23474.441)"><path class="e" d="M252.364,569.454a20.492,20.492,0,1,1,20.491,20.491A20.49,20.49,0,0,1,252.364,569.454Z" transform="translate(-252.364 -548.964)"/></g><g transform="translate(-13821.854 -23479.764)"><path class="c" d="M363.793,679.306l-1.712,3.229-54.05.711-4.174-1.835,1.327-3.655,5.136-8.165-.942-124.67h48.9V665.51l2.481,8.591Z" transform="translate(-302.677 -544.921)"/><g transform="translate(0 0)"><path class="d" d="M360.172,670.288V657.544a14.953,14.953,0,0,0,.268-2.618v-110h-4.078v110a11.8,11.8,0,0,1-.25,2.3l-.018,13.912.307.355c2.059,2.474,5.252,7.183,5.136,9.387a.571.571,0,0,1,0,.184H307.046a1.322,1.322,0,0,1-.02-.313c-.116-2.076,3.1-6.784,5.154-9.259l.29-.355V578.091l-.1-33.17h-4.058l.1,33.17v92.2c-1.289,1.607-5.636,7.268-5.444,10.455a3.274,3.274,0,0,0,2.328,3.2l.4.142h57.166l.4-.142a3.244,3.244,0,0,0,2.347-3.072C365.789,677.571,361.461,671.9,360.172,670.288Z" transform="translate(-302.96 -544.921)"/></g></g><g transform="translate(-13811.013 -23386.521)"><path class="f" d="M311.2,636.251a20.491,20.491,0,1,1,20.491,20.49A20.49,20.49,0,0,1,311.2,636.251Z" transform="translate(-311.196 -615.759)"/></g><g transform="translate(-13811.013 -23430.48)"><path class="f" d="M311.2,602.852a20.491,20.491,0,1,1,20.491,20.492A20.489,20.489,0,0,1,311.2,602.852Z" transform="translate(-311.196 -582.362)"/></g><g transform="translate(-13811.013 -23474.441)"><path class="f" d="M311.2,569.454a20.491,20.491,0,1,1,20.491,20.491A20.49,20.49,0,0,1,311.2,569.454Z" transform="translate(-311.196 -548.964)"/></g><rect class="g" width="5.316" height="121.41" rx="2" transform="translate(-13885.781 -23473.963)"/><rect class="g" width="5.316" height="121.41" rx="2" transform="translate(-13808.257 -23473.963)"/><g transform="translate(-13976.727 -23479.764)"><path class="c" d="M246.13,679.306l-1.712,3.229-54.051.711-4.174-1.835,1.327-3.655,5.136-8.165-.943-124.67h48.9V665.51l2.481,8.591Z" transform="translate(-185.015 -544.921)"/><g transform="translate(0 0)"><path class="d" d="M242.509,670.288V657.544a14.959,14.959,0,0,0,.268-2.618v-110H238.7v110a11.8,11.8,0,0,1-.25,2.3l-.018,13.912.307.355c2.059,2.474,5.252,7.183,5.136,9.387a.57.57,0,0,1,0,.184H189.382a1.32,1.32,0,0,1-.02-.313c-.116-2.076,3.1-6.784,5.154-9.259l.29-.355V578.091l-.1-33.17h-4.059l.1,33.17v92.2c-1.289,1.607-5.636,7.268-5.443,10.455a3.271,3.271,0,0,0,2.327,3.2l.4.142H245.2l.4-.142a3.244,3.244,0,0,0,2.346-3.072C248.126,677.571,243.8,671.9,242.509,670.288Z" transform="translate(-185.298 -544.921)"/></g></g><g transform="translate(-13965.889 -23386.521)"><path class="h" d="M193.533,636.251a20.491,20.491,0,1,1,20.491,20.49A20.49,20.49,0,0,1,193.533,636.251Z" transform="translate(-193.533 -615.759)"/></g><g transform="translate(-13965.889 -23430.48)"><path class="h" d="M193.533,602.852a20.491,20.491,0,1,1,20.491,20.492A20.489,20.489,0,0,1,193.533,602.852Z" transform="translate(-193.533 -582.362)"/></g><g transform="translate(-13965.889 -23474.441)"><path class="h" d="M193.533,569.454a20.491,20.491,0,1,1,20.491,20.491A20.49,20.49,0,0,1,193.533,569.454Z" transform="translate(-193.533 -548.964)"/></g><rect class="g" width="5.316" height="121.41" rx="2" transform="translate(-13963.304 -23473.963)"/><rect class="i" width="522.035" height="382.215" rx="11.198" transform="translate(-14130.998 -23659.992)"/><path class="h" d="M341.893,584.826,242.4,527.383a9.741,9.741,0,0,0-14.61,8.436V650.7a9.74,9.74,0,0,0,14.61,8.435L341.893,601.7A9.74,9.74,0,0,0,341.893,584.826Z" transform="translate(-14148.589 -24030.65)"/><text class="j" transform="translate(-13890.252 -23546.525)"><tspan x="-60.358" y="0">დაწყება</tspan></text></g></svg>