<svg xmlns="http://www.w3.org/2000/svg" width="1087" height="386.383" viewBox="0 0 1087 386.383"><defs><style>.a,.r,.s,.z{fill:#8c7cc9;}.b,.c{fill:#caa267;}.b{fill-rule:evenodd;}.d{fill:#c2934e;}.e{fill:#8a7cc7;}.f{fill:#f1c759;}.g{opacity:0.15;}.h{fill:#5e5584;}.i{fill:#5e5587;}.j{opacity:0.3;}.k{opacity:0.5;}.l{fill:#eec459;}.m{fill:#959595;}.n{fill:#c8c8c8;}.o{fill:#7f7f7f;}.p,.t{fill:none;stroke-miterlimit:10;}.p{stroke:#8a7cc7;stroke-width:0.747px;}.q{fill:#fff;}.q,.r{font-size:14px;}.q,.r,.s,.z{font-family:DejaVuSans, DejaVu Sans;}.s{font-size:15px;}.t{stroke:#66c;}.u{fill:#66c;}.v{fill:#f90;}.w{fill:#f33;}.x{fill:#90f;}.y{fill:#0c0;}.z{font-size:10px;}</style></defs><g transform="translate(-168.573 -381.451)"><rect class="a" width="205.246" height="53.798" rx="12" transform="translate(445.547 417.271)"/><g transform="translate(1027.799 381.451)"><g transform="translate(0 24.408)"><path class="b" d="M1059.516,353.645c-1.416-3.35-5.823-5.926-8.761-6.7a29.3,29.3,0,0,1-3.752-1.526c-2.279-.739,1.35,2.457,2.714,2.985,1.108.429,3.12,3.689,4.215,4.8s3.431,2.719,4.678,2.715S1059.345,354.271,1059.516,353.645Z" transform="translate(-1034.803 -345.306)"/><path class="b" d="M1067.988,364.946c-2.687-4.7-4.724-10.294-9.807-12.583s-12.65-2.161-16.675-2.731c-4.734-.669-2.735.847-.237,1.486,1.623.415,6.875,1.905,8.509,1.874a51.886,51.886,0,0,0-6.837-1.031c-.386.113-7.908-1.846-7.383-.473,1.019,2.662,9.492,2.906,12.2,3.463-1.424-.036-3.742-.436-5.114-.475-1.165-.035-4.694-1.274-5.028-.2-.525,1.692,8.159,2.688,9.314,2.768-1.131.931-5.5-.392-7.015-.479-.153-.009-1.531.339.138.9a49.842,49.842,0,0,0,10.233,2.828c4,.545,8.7,1.105,11.4,4.725C1063.818,364.879,1065.91,365.228,1067.988,364.946Z" transform="translate(-1035.533 -345.023)"/></g><path class="c" d="M1195.083,581.148s-8.1,95.091-4.171,96.68c7.057,2.9,34.671,12.323,4.326,10.533-15.564,1.119-14.461-2.374-14.739-5.319-.226-2.407-.755-87.419-1.472-94.022-.16-1.479-.257-2.373-.257-2.373Z" transform="translate(-1025.799 -304.872)"/><path class="c" d="M1141.665,581.867s5.092,94.939,1.2,96.618c-6.988,3.06-34.376,13.123-4.081,10.629,15.586.758,14.4-2.708,14.612-5.659.171-2.411,1.726-20.717,2.289-27.335.126-1.482,2.317-75.806,2.317-75.806Z" transform="translate(-1029.466 -304.929)"/><path class="d" d="M1167.026,352.071s-.706,9.061,4.934,14-12.866.149-12.866.149,3.333-8.709,2.5-14.087S1167.026,352.071,1167.026,352.071Z" transform="translate(-1027.136 -320.597)"/><ellipse class="c" cx="9.761" cy="13.317" rx="9.761" ry="13.317" transform="translate(126.916 8.497) rotate(-0.664)"/><path class="e" d="M1089.963,409.921c14.417-31.078,40.624-45.484,57.416-49.424,7.268-1.708,12.773-1.452,14.8.258a10.919,10.919,0,0,0,6.844,2.568,14.782,14.782,0,0,0,3.821-.393,19.072,19.072,0,0,0,4.039-1.426c.62-.3.98-.508.98-.508a39.571,39.571,0,0,1,10.312.5c38.177,7.016,45.545,70.807,45.267,76.3-.17,3.271-3.379,18.123-7.451,31.338-3.337,10.849-7.265,20.6-10.57,21.981-7.335,3.051-62.926,7.766-74.429,2.442-.269-.2-.561-.409-.837-.643-4.334-3.442-9.069-10.283-11.613-16.711,0,0-6.79-18.465-8.176-22.223-.015-.037-.022-.066-.037-.1-.047-.147-.1-.288-.154-.421-.015-.051-.038-.1-.053-.147" transform="translate(-1031.834 -319.944)"/><path class="f" d="M1136.2,483.092a6.015,6.015,0,0,0,3.432,1.536c8.026.064,42.687.256,61.473-1.042,6.629-.458,11.28-1.1,12.087-2.006a.606.606,0,0,1,0,.077c-.037,1.037-.495,12.906-1.148,28.466-1.291,30.716,2.391,74.644,6.253,87.946.833,2.872-42.275-.992-42.275-.992-.487-31.678,1.874-87.326-.1-89.8-2.4-3.005-5.659,45.957-9.575,86.942-17,4.647-44.031,2.259-43.74.507C1126.075,573.929,1136.2,483.092,1136.2,483.092Z" transform="translate(-1029.616 -311.638)"/><path class="g" d="M1118.207,448.211c.015.051.038.1.053.147.053.132.107.273.154.421.015.03.022.059.037.1,1.386,3.758,8.176,22.216,8.176,22.216,2.544,6.435,7.279,13.277,11.613,16.719-3.036-10.516-12.473-40.991-12.266-53.316C1124.377,446.389,1118.207,448.2,1118.207,448.211Z" transform="translate(-1029.915 -314.838)"/><path class="g" d="M1201.322,405s-17.8,55.255,33.628,78.038l1.048.678-.414-12.942s-24.5-33.357-24.6-34.222S1201.322,405,1201.322,405Z" transform="translate(-1024.469 -316.842)"/><path class="g" d="M1166.042,365.5c.041.882-.42,1.466-1.838,1.29-4.426-.55-9.414-.366-13.019,1.337a3.078,3.078,0,0,1-2.982-.092c-2.337-1.33-3.821-5.361-4.413-7.148a1.236,1.236,0,0,1-.064-.393c7.268-1.708,12.773-1.452,14.8.258a10.918,10.918,0,0,0,6.844,2.568A6,6,0,0,1,1166.042,365.5Z" transform="translate(-1028.181 -319.944)"/><path class="h" d="M1154.693,671.248c.165-1.373-9.591-1.132-10.682-.005s-20.492,5.365-20.04,11.135,27.35.918,29.273.759S1154.368,673.948,1154.693,671.248Z" transform="translate(-1029.524 -298.814)"/><path class="i" d="M1179.787,668.826c-.2-1.369,11.5.235,12.62,1.336s18.174,5.53,17.856,11.31-27.321,1.551-29.248,1.437S1180.175,671.517,1179.787,668.826Z" transform="translate(-1025.731 -298.951)"/><g class="j" transform="translate(138.215 169.942)"><path d="M1165.34,484.413l-.386-.028S1165.09,484.393,1165.34,484.413Z" transform="translate(-1164.953 -481.389)"/><path class="k" d="M1165.315,484.6c10.337.7,32.891-1.018,32.891-1.018,6.629-.458,11.28-1.1,12.087-2.006a.606.606,0,0,1,0,.077c-.037,1.037-.495,12.906-1.148,28.466a7.714,7.714,0,0,1-1.087-.112,8.46,8.46,0,0,1-5.511-3.82,18.782,18.782,0,0,1-2.176-4.414C1192.5,487.216,1168.627,484.862,1165.315,484.6Z" transform="translate(-1164.928 -481.58)"/></g><g transform="translate(124.701)"><g transform="translate(2.126 3.718)"><path class="l" d="M1160.369,336.314s17.005,9.174,11.816-5.811C1168.595,320.136,1148.767,329.742,1160.369,336.314Z" transform="translate(-1154.122 -325.932)"/><path class="l" d="M1162.945,332.649s-9.388,5.719-8.411,11.336c0,0-2.28-16.776,7.116-17.308s13.045.334,12.417,18.109C1174.066,344.786,1171.171,330.686,1162.945,332.649Z" transform="translate(-1154.29 -325.889)"/></g><path class="l" d="M1160.8,327.071s.414-5.24,5.613-4.559,7.456,3.621,8.232,6.578,1.543,5.172,2.284,5.164c0,0-2.2,2.25-2.949,1.518,0,0,1.986,5.309-.408,9.714,0,0-1.04-6.731-4.756-7.43S1160.8,327.071,1160.8,327.071Z" transform="translate(-1151.722 -322.451)"/><path class="l" d="M1161.851,326.758s-3.733-2.181-7.38,3.052l-2.172,4.474s.75.733,2.223-.026c0,0-.615,5.231.128,8.171l2.088-8.939Z" transform="translate(-1152.299 -322.189)"/></g><g transform="translate(113.338 90.941)"><path class="m" d="M1141.75,421.986l10.1,60.112a6.432,6.432,0,0,0,7.4,5.275l41.026-6.9a2.148,2.148,0,0,0,.289-.062,6.409,6.409,0,0,0,4.979-7.339l-10.1-60.112a6.421,6.421,0,0,0-7.4-5.267l-39.124,6.57-1.9.319A6.421,6.421,0,0,0,1141.75,421.986Z" transform="translate(-1141.66 -407.605)"/><path class="n" d="M1143.8,421.6l10.1,60.112a6.42,6.42,0,0,0,7.4,5.267l39.125-6.57a6.409,6.409,0,0,0,4.979-7.339l-10.1-60.112a6.42,6.42,0,0,0-7.4-5.267l-39.125,6.57A6.409,6.409,0,0,0,1143.8,421.6Z" transform="translate(-1141.52 -407.605)"/><circle class="o" cx="4.962" cy="4.962" r="4.962" transform="translate(28.545 35.273)"/></g><path class="g" d="M1213.98,461.079s.707-22.147-58.515-14.047,44.645,13.57,44.645,13.57Z" transform="translate(-1028.623 -314.107)"/><g transform="translate(102.778 38.988)"><g transform="translate(0 92.406)"><path class="b" d="M1161.454,455.014c-.7-.227-8.174-4.584-12.2-4.908s-10.041-.423-12.125-.989c-2.45-.665-3.055.312-.23,1.353a39.689,39.689,0,0,0,6.426,1.74c.4.012-2.221-.311-5.076-.868-3.035-.592-6.329-1.408-6.473-.866-.279,1.049,8.469,3.3,10.007,3.447a38.774,38.774,0,0,1-4.056-.443c-1.832-.3-3.934-.927-4.341-.543-.642.606,4,2.363,7.822,2.848.067.123-1.163.331-5.666-.55-.453-.089-1.6.122-.113.788,3.127,1.4,4.369,2.236,8.879,2.325,4.4.085,9.241-.875,12.415.148Z" transform="translate(-1131.771 -445.253)"/><path class="b" d="M1150.624,450.712s-3.446-3.536-7.275-4.082c-2.277-.324-2.23-.9-2.62-1.063-1.292-.551-.019,1.822,1.918,2.411,1.574.479,2.481,3.149,3.43,3.707s3.783,1.569,4.483,1.191S1150.624,450.712,1150.624,450.712Z" transform="translate(-1131.198 -445.485)"/></g><path class="e" d="M1222.343,370.549c14.11,12.333,23.906,23.826,30.376,61.93,3.283,19.332,2.711,38.709,2.033,48.931A12.069,12.069,0,0,1,1246.58,492c-43.585,14.939-92.123-26.021-92.123-26.021-2.516-.9,2.424-9.9,2.424-9.9,24.185-.532,42.728-.005,62.089,7.185-.1-.045-19.36-35.234-22.023-44.974-6.978-25.539-29.226-47.452-23.652-57.558C1175.22,357.242,1208.111,358.109,1222.343,370.549Z" transform="translate(-1130.278 -358.958)"/></g><g transform="translate(104.498 170.618)"><line class="p" x1="9.609" y2="114.459"/><line class="p" x1="9.549" y2="112.467" transform="translate(10.937 2.161)"/><line class="p" x1="7.731" y2="111.661" transform="translate(23.363 2.038)"/><line class="p" x2="0.5" y2="23.105" transform="translate(41.31 1.92)"/><line class="p" x1="0.774" y2="113.841" transform="translate(51.876 1.788)"/><line class="p" x2="0.747" y2="114.778" transform="translate(62.407 1.604)"/><line class="p" x2="3.545" y2="115.405" transform="translate(71.998 1.493)"/></g><path class="p" d="M1134.081,494.206s61.606,2.194,77.841-.9" transform="translate(-1028.836 -310.841)"/><path class="p" d="M1175.217,505.794c-21.487,5.129-42.194-2.346-42.194-2.346" transform="translate(-1028.908 -310.152)"/><path class="p" d="M1172.3,504.282s19.506,5.238,36.529.426" transform="translate(-1026.239 -310.095)"/><path class="p" d="M1132.123,511.306s15.62,7.948,40.788,3.512" transform="translate(-1028.969 -309.618)"/><path class="p" d="M1131.041,520.663s24.245,7.1,40.861,3.108" transform="translate(-1029.043 -308.982)"/><path class="p" d="M1129.955,529.96s12.416,9.5,40.9,4.845" transform="translate(-1029.116 -308.351)"/><path class="p" d="M1128.69,540.653a59.86,59.86,0,0,0,41.417,2.638" transform="translate(-1029.203 -307.624)"/><path class="p" d="M1127.512,550.45s13.4,9.278,41.69,3.471" transform="translate(-1029.283 -306.958)"/><path class="p" d="M1126.278,560.493s18.452,9.374,42.261,1.352" transform="translate(-1029.366 -306.276)"/><path class="p" d="M1125.288,568.331s10.941,10.281,42.509,2.2" transform="translate(-1029.434 -305.743)"/><path class="p" d="M1124.117,577.228s17.6,9.016,42.932,1.9" transform="translate(-1029.513 -305.139)"/><path class="p" d="M1173.239,514.045s8.2,6.613,35.656,1.315" transform="translate(-1026.175 -309.432)"/><path class="p" d="M1173.548,523.494s11.459,5.182,34.785.714" transform="translate(-1026.154 -308.79)"/><path class="p" d="M1173.149,534.016s17.661,5.1,35.328-.409" transform="translate(-1026.181 -308.103)"/><path class="p" d="M1173.013,542.719s17.2,7.407,35.922-.417" transform="translate(-1026.191 -307.512)"/><path class="p" d="M1172.854,552.273s16.354,5.527,36.682-.425" transform="translate(-1026.202 -306.863)"/><path class="p" d="M1172.714,561.45s13.8,6,37.588-.436" transform="translate(-1026.211 -306.24)"/><path class="p" d="M1172.809,569.538s16.4,8.211,38.426.447" transform="translate(-1026.205 -305.661)"/><path class="p" d="M1172.559,579.688a75.37,75.37,0,0,0,40.023,0" transform="translate(-1026.221 -304.972)"/><path class="e" d="M1122.709,454.073s-44.9,19.667-56.332-21.493,3.522-50.468-10.819-67.408L1064.6,358s31.672,16.286,41.325,42.183S1122.709,454.073,1122.709,454.073Z" transform="translate(-1034.172 -320.035)"/></g><text class="q" transform="translate(504.73 446.403)"><tspan x="0" y="0">მონაცემები</tspan></text><text class="r" transform="translate(234.29 513.071)"><tspan x="0" y="0">შეგროვება</tspan></text><text class="s" transform="translate(263.573 579.737)"><tspan x="-94.138" y="0">ყოველწლიურად ვეშაპებს</tspan><tspan x="-88.037" y="23">აკვირდებოდნენ 5 წლის</tspan><tspan x="-52.991" y="46">განმავლობაში</tspan><tspan x="-85.148" y="69">15,20,40,45 და 30 ჯერ</tspan></text><text class="s" transform="translate(850.847 588.334)"><tspan x="-52.863" y="0">ბოლო 5 წლის</tspan><tspan x="-113.145" y="23">განმავლობაში განხორციელდა</tspan><tspan x="-112.039" y="46">საშუალოდ 30 ჯერ დაკვირვება</tspan></text><text class="r" transform="translate(454.869 513.071)"><tspan x="0" y="0">პრეზენტაციის გაკეთება</tspan></text><text class="r" transform="translate(768.86 513.071)"><tspan x="0" y="0">პრეზენტაციის გაკეთება</tspan></text><g transform="translate(393.967 589.826)"><g transform="translate(0 8.307)"><path class="a" d="M405.806,591.007H381.932c-1.238,0-2.242-1.491-2.242-3.331s1-3.33,2.242-3.33h23.874c1.238,0,2.242,1.491,2.242,3.33S407.043,591.007,405.806,591.007Z" transform="translate(-379.69 -584.346)"/></g><g transform="translate(21.139)"><path class="a" d="M402.871,599.535l16.237-9.376a2.257,2.257,0,0,0,0-3.91l-16.237-9.377a2.258,2.258,0,0,0-3.386,1.955v18.752A2.257,2.257,0,0,0,402.871,599.535Z" transform="translate(-399.484 -576.568)"/></g></g><g transform="translate(656.986 593.156)"><g transform="translate(0 8.306)"><path class="a" d="M652.089,594.126H628.216c-1.238,0-2.242-1.492-2.242-3.331s1-3.331,2.242-3.331h23.873c1.238,0,2.242,1.491,2.242,3.331S653.326,594.126,652.089,594.126Z" transform="translate(-625.974 -587.464)"/></g><g transform="translate(21.138)"><path class="a" d="M649.154,602.654l16.237-9.377a2.257,2.257,0,0,0,0-3.909l-16.237-9.377a2.257,2.257,0,0,0-3.386,1.954V600.7A2.257,2.257,0,0,0,649.154,602.654Z" transform="translate(-645.767 -579.686)"/></g></g><g transform="translate(463.969 543.262)"><rect class="t" width="124.274" height="124.274" transform="translate(20.908)"/><line class="t" x1="124.274" transform="translate(20.908 25.755)"/><line class="t" x1="124.274" transform="translate(20.908 38.174)"/><line class="t" x1="124.274" transform="translate(20.908 50.592)"/><line class="t" x1="124.274" transform="translate(20.908 63.01)"/><line class="t" x1="124.274" transform="translate(20.908 75.429)"/><line class="t" x1="124.274" transform="translate(20.908 87.847)"/><line class="t" x1="124.274" transform="translate(20.908 100.265)"/><line class="t" x1="124.274" transform="translate(20.908 112.683)"/><rect class="u" width="24.837" height="36.841" transform="translate(20.908 87.433)"/><rect class="v" width="24.837" height="48.845" transform="translate(45.745 75.429)"/><rect class="w" width="24.837" height="98.518" transform="translate(70.582 25.755)"/><rect class="x" width="24.837" height="110.937" transform="translate(95.418 13.337)"/><rect class="y" width="24.837" height="73.475" transform="translate(120.255 50.799)"/><text class="z" transform="translate(6 100.959)"><tspan x="-6.362" y="0">10</tspan></text><text class="z" transform="translate(6 79.274)"><tspan x="-6.362" y="0">20</tspan></text><text class="z" transform="translate(6 57.589)"><tspan x="-6.362" y="0">30</tspan></text><text class="z" transform="translate(6 35.904)"><tspan x="-6.362" y="0">40</tspan></text><text class="z" transform="translate(6 14.219)"><tspan x="-6.362" y="0">50</tspan></text></g></g></svg>