<svg xmlns="http://www.w3.org/2000/svg" width="721.045" height="336.712" viewBox="0 0 721.045 336.712"><defs><style>.a{fill:#edf9fa;}.a,.b,.c,.d,.e,.g,.h,.k,.l,.o,.p,.s{fill-rule:evenodd;}.b{fill:#fcb95d;}.c{fill:#243e41;}.d{fill:#171f1c;}.e{fill:#c98121;}.f,.g{fill:#a1dd6f;}.h,.r{opacity:0.15;}.i{opacity:0.5;}.j{fill:#243330;}.k,.m{fill:#d1d3d4;}.l{fill:#36a5ad;}.n{fill:#bcbec0;}.o{fill:#7fd1d8;}.p{opacity:0.2;}.q{fill:#3e6569;}.s,.u{fill:none;stroke-miterlimit:10;}.s{stroke:#edf9fa;stroke-width:0.909px;}.t{fill:#4a5e3a;}.u{stroke:#4a5e3a;stroke-width:2.658px;}</style></defs><g transform="translate(-393.331 -354.373)"><path class="a" d="M935.179,635.173s-125.323.206-125.249-53.631c.027-20.512-13.524-10-50.186,1.8-60.159,19.355-140.583-30.654-117.867-74.3s56.054-58.68,89.509-56.477,119.465-1.315,169.24-12.555,101.842-28.988,122.77-3.469S1129,572.852,1008.059,621.056Z" transform="translate(42.641 11.845)"/><path class="b" d="M783.053,615s.859,12.054,2.147,15.968-8.184,2.7-8.6,2.845-7.747-4.683-7.747-4.683,4.693-1.428,3.157-16.339S783.053,615,783.053,615Z" transform="translate(65.56 43.924)"/><path class="b" d="M759.027,509.4s-6.11,10.426-7.262,14.383-9.28-.98-9.708-1.094-6.55-4.852-6.55-4.852,5.066.357,8.674-2.886c2.827-2.542,3.837-7.835,6.987-13.62C758.338,488.168,759.027,509.4,759.027,509.4Z" transform="translate(59.722 24.725)"/><path class="c" d="M833.185,394.466c3.281,3.09,3.8,1.586.158,7-1.487,3.368,3.234,2.639,6.847,3.7a6.474,6.474,0,0,1,2.109.984c1.9,1.162,5.261.925,8.485.873,6.568-1.9,9.064,3.149,7.772-3.536-.04-.082-.089-.165-.121-.249-2.573-5.407,7.7-1.745,4.946-6.476-4.725-1.274,5.419-.69.874-8.485-5.261-2.731,4.68-7.331-3.536-7.772-1.027-3.038-8.059.25-6.717-4.827-2.534-2.2-6.291-.083-8.495-.872-8.369-.5-3.979,5.1-7.763,3.535-4.808-.793-5.035,5.278-4.835,6.718C830.757,388.3,826.215,395.607,833.185,394.466Z" transform="translate(76.17 3.299)"/><path class="d" d="M838.591,402.313a6.475,6.475,0,0,1,2.109.984c1.9,1.162,5.261.925,8.485.873,6.568-1.9,9.064,3.149,7.772-3.536-.04-.082-.089-.165-.121-.249-2.263-.052-4.406-.523-4.69-2.258-1.278-7.832-10.7-7.2-10.7-7.2s-1.649,5.736-1.712,6.338C839.7,397.578,839.163,399.938,838.591,402.313Z" transform="translate(77.77 6.148)"/><path class="e" d="M876.785,416.377s-20.768,3.1-23.853-4.6-4.1-12.013-2.781-16.98-11,7.079-11,7.079,2.5,5.973,1.794,10.952-3.945,5.607-9.057,5.94,2.537,15.492,2.537,15.492,18.346-1,19.8-.568,20.034-3.038,20.883-3.419S876.785,416.377,876.785,416.377Z" transform="translate(76.288 6.617)"/><path class="b" d="M842.676,384.491s-10.45-.713-8.531,11.006,3.345,13.007,11.644,8S852.828,383.373,842.676,384.491Z" transform="translate(76.95 5.013)"/><path class="f" d="M866.909,540.416a10.692,10.692,0,0,1-2.349,4.64c-4.8,5.653-15.063,7.929-20.282,8.757-.029,0-.073.014-.1.014-1.885.29-3.088.391-3.088.391a93.98,93.98,0,0,1-4.639-10.989c-2.175-6.263-3.972-13.86-2.348-19.021a9.2,9.2,0,0,1,.623-1.566,6.641,6.641,0,0,1,1.986-2.32c7.612-5.669,28.083,2.1,30.286,16.063A10.657,10.657,0,0,1,866.909,540.416Z" transform="translate(76.874 28.477)"/><path class="g" d="M853.552,554.435a22.589,22.589,0,0,1-3.377.391c-4.422.233-10.424-.13-18.514,1.174a84.088,84.088,0,0,0-17.282,4.814s-18.122,3.233-15.686,7.973c2.421,4.741-5.669,22.762-2.479,34.911s-4,27.619-4,27.619l-24.879-1.667s-5.643-23.8-5-34.309,3.989-30.483,2.381-43.371c-1.624-12.874,10.134-17.529,10.134-17.529,3.2-.3,9.539-1.3,13.237-4.784,4.219-3.959,15.352-6.931,26.618-8.989a249.42,249.42,0,0,1,26.473-3.349c1.2-.087,2.1-.116,2.638-.1,0,0,1.855,1.725,4.364,4.219,5.117,5.089,12.932,13.4,13.092,16.717C861.512,543.112,860.308,553.015,853.552,554.435Z" transform="translate(64.409 28.26)"/><path class="h" d="M867.619,540.633a10.692,10.692,0,0,1-2.349,4.64c-4.8,5.653-15.063,7.929-20.282,8.757-.029,0-.073.014-.1.014-1.885.29-3.088.391-3.088.391a22.589,22.589,0,0,1-3.377.391,83.544,83.544,0,0,1-1.262-11.381c-.247-4.234-.391-8.757-.652-13.208a14.72,14.72,0,0,0-1.7-5.813,29.652,29.652,0,0,0-5.394-7.1c1.2-.087,2.1-.116,2.638-.1,0,0,1.855,1.725,4.364,4.219a6.521,6.521,0,0,1,1-.9c7.612-5.669,28.083,2.1,30.286,16.063A10.658,10.658,0,0,1,867.619,540.633Z" transform="translate(76.164 28.26)"/><g class="i" transform="translate(838.217 568.091)"><g transform="translate(0 3.978)"><path class="j" d="M790.973,550.815l-.672-.2-6.419-1.906-10.744-3.192q-.287.458-.615.9-.212.286-.434.562l10.168,2.317,8.667,1.957C790.941,551.109,790.957,550.962,790.973,550.815Z" transform="translate(-772.09 -538.854)"/><path class="j" d="M791.029,549.054l-2.426-.72-5.122-1.522-9.6-2.854a11.2,11.2,0,0,1-.622,1.291l8.927,2.034,7.762,1.752,1.052.235C791.007,549.2,791.018,549.126,791.029,549.054Z" transform="translate(-771.886 -539.127)"/><path class="j" d="M774,543.5c3.182.727,15.691,3.583,17.207,3.882l0-.016L775,542.55l-.84.38C774.113,543.123,774.06,543.315,774,543.5Z" transform="translate(-771.756 -539.374)"/><path class="j" d="M789.791,545.4c-.368-.035-14.442-3.255-14.442-3.255l1.385-.63Z" transform="translate(-771.52 -539.554)"/><path class="j" d="M788.477,543.656c-.294-.028-11.533-2.6-11.533-2.6l1.106-.505Z" transform="translate(-771.24 -539.724)"/><path class="j" d="M787.626,542.328c-.234-.021-9.213-2.076-9.213-2.076l.881-.4Z" transform="translate(-770.983 -539.847)"/></g><g transform="translate(3.566)"><path class="j" d="M775.836,552.918l7.183-15.516q-.705-.455-1.392-.94c-1.741,4.361-4.3,10.77-6.5,16.305Z" transform="translate(-775.125 -536.462)"/><path class="j" d="M777.536,553.165l6.9-14.9q-.617-.342-1.216-.713c-1.463,3.66-4.1,10.257-6.184,15.509Z" transform="translate(-774.791 -536.272)"/><path class="j" d="M779.175,553.412l6.345-13.706-.172-.964c-.192-.093-.382-.189-.571-.287-1.009,2.525-3.933,9.841-5.935,14.888Z" transform="translate(-774.474 -536.113)"/><path class="j" d="M780.647,553.442,786,541.887l-.305-1.719s-3.335,8.332-5.276,13.232Z" transform="translate(-774.199 -535.813)"/><path class="j" d="M781.984,553.346l4.529-9.782-.246-1.374s-2.931,7.324-4.437,11.134Z" transform="translate(-773.951 -535.459)"/><path class="j" d="M783,553.336l3.8-8.207-.2-1.1s-2.544,6.357-3.693,9.27Z" transform="translate(-773.762 -535.137)"/></g></g><g transform="translate(805.738 671.046)"><path class="k" d="M747.318,640.074c4.444.595,13.437-.083,19.977-.448h0c.209-.016.4-.027.6-.038,3.411-.182,6.061-.266,6.874,0a3.167,3.167,0,0,0,.329.088c.323.079.772.167,1.32.251,4.934.766,17.677,1.528,17.833-2.3a9.432,9.432,0,0,0-.209-2.2c-.031-.156-.062-.313-.1-.469l-.009-.026c-.047-.209-.1-.423-.162-.637l0-.011c-1.127-3.953-3.855-8.131-4.461-7.772-8.1,4.82-16.013-.881-17.645-2.18-.2-.162-.308-.255-.308-.255s-.308.02-.892.078c-.318.036-.725.083-1.2.141-.261.032-.543.068-.851.109-.1.015-.208.026-.312.047-.25.032-.517.068-.8.109-.136.021-.271.042-.417.068h-.006c-.766.12-1.622.266-2.566.443-.589.11-1.2.23-1.857.365-.98.2-2.034.432-3.15.693-.1.032-.214.068-.318.1-.558.173-1.106.365-1.643.564a34.143,34.143,0,0,0-5.138,2.389l0,0C744.622,633.529,741.837,639.345,747.318,640.074Z" transform="translate(-744.45 -624.078)"/><path class="l" d="M751.042,629.194a10.628,10.628,0,0,1,7.62,7.746s3.484-.642,7.432-1.221c.339-.047.689-.094,1.038-.141.631-.088,1.273-.177,1.909-.255.548-.068,1.089-.13,1.617-.188,2.931-.314,5.466-.428,6.29-.036,2.233,1.053,16.1,3.687,15.945.328a1.643,1.643,0,0,0-.1-.469l-.009-.026a3.831,3.831,0,0,1-.162-.637l0-.011c-1.127-3.953-3.855-8.131-4.461-7.772-8.1,4.82-16.013-.881-17.645-2.18-.2-.162-.308-.255-.308-.255s-.308.02-.892.078c-.318.036-.725.083-1.2.141-.261.032-.543.068-.851.109-.1.015-.208.026-.312.047-.25.032-.517.068-.8.109-.136.021-.271.042-.417.068h-.006c-.766.12-1.622.266-2.566.443-.589.11-1.2.23-1.857.365-.98.2-2.034.432-3.15.693-.1.032-.214.068-.318.1-.558.173-1.106.365-1.643.564a34.143,34.143,0,0,0-5.138,2.389Z" transform="translate(-743.296 -624.078)"/><g transform="translate(22.846 0.219)"><path class="m" d="M763.892,624.53c.15.141.364.344.625.611a15.528,15.528,0,0,1,2.452,3.134,7.373,7.373,0,0,1,.568,1.221c.058.162.1.329.147.5l1.517-.37a7.942,7.942,0,0,0-.792-1.972v-.006a11.8,11.8,0,0,0-.736-1.173,17.453,17.453,0,0,0-1.82-2.207c-.261.032-.543.068-.851.109-.1.015-.208.026-.313.047C764.44,624.452,764.173,624.489,763.892,624.53Z" transform="translate(-763.892 -624.264)"/></g><g transform="translate(18 0.995)"><path class="m" d="M759.768,625.29c.871.819,3.109,3.1,3.646,5.325l1.523-.37a13.078,13.078,0,0,0-3.312-5.321C761.036,625.035,760.42,625.155,759.768,625.29Z" transform="translate(-759.768 -624.925)"/></g><g transform="translate(12.888 2.159)"><path class="m" d="M755.418,626.479c1.018,1.012,2.812,3.014,3.287,4.975l1.517-.37a12.768,12.768,0,0,0-3.161-5.169C756.5,626.088,755.955,626.28,755.418,626.479Z" transform="translate(-755.418 -625.915)"/></g><g transform="translate(24.42 0)"><path class="n" d="M766.557,635.323a6.474,6.474,0,0,0,1.23.792,8.943,8.943,0,0,1,3.678,3.557,5.518,5.518,0,0,1,.886,4.074l.975.37a5.825,5.825,0,0,0-.542-4.193,10.09,10.09,0,0,0-4.528-4.741c-.026-.016-.058-.032-.083-.047-2.6-1.351-2.17-2.9-.872-5.607.074-.156.152-.318.235-.485.146-.3.293-.6.434-.9.073-.156.14-.312.2-.464a3.682,3.682,0,0,0,.156-2.817,2.421,2.421,0,0,0-.308-.526c-.2-.162-.308-.255-.308-.255s-.308.02-.892.078l-.141.412a1.326,1.326,0,0,1,.7.714,2.1,2.1,0,0,1,.058,1.221,5.2,5.2,0,0,1-.407,1.194l-.3.61c-.047.094-.089.188-.136.277C765.435,630.967,764.236,633.425,766.557,635.323Z" transform="translate(-765.232 -624.078)"/></g><g transform="translate(19.837 0.375)"><path class="n" d="M761.592,630.156a19.5,19.5,0,0,0,1.329,2.644,14.113,14.113,0,0,1,1.372,2.864,4.5,4.5,0,0,1-.412,3.656l.46.251h0l.454.244c.053-.094.1-.188.147-.282a5.426,5.426,0,0,0,.385-4.011,14.457,14.457,0,0,0-1.5-3.238,17.8,17.8,0,0,1-1.262-2.5,2.791,2.791,0,0,1-.178-.865,3.2,3.2,0,0,1,.61-1.931,7.293,7.293,0,0,1,1.966-1.872c.25-.167.412-.261.423-.267l-.25-.454c-.25.032-.517.068-.8.109-.136.021-.271.042-.417.068h-.006a8.439,8.439,0,0,0-1.591,1.544,5.047,5.047,0,0,0-.808,1.5A3.74,3.74,0,0,0,761.592,630.156Z" transform="translate(-761.332 -624.397)"/></g></g><path class="g" d="M830.556,530.076a129,129,0,0,1-21.993,7.482s-7.51-19.848-12.874-34.635c-1.479-4.06-2.784-7.727-3.726-10.511-1.29-3.828-2.653-3.639-4.06-1.392-.014,0-.014.015-.014.029-3.349,5.394-7.061,22.429-11.28,25.429a103.51,103.51,0,0,1-14.295,8.09l-16.006-14.178s12.135-41.74,14.571-50.062c2.421-8.336,17.383-31.243,23.66-28.692s54.918,48.481,54.468,56.267S843.619,524.466,830.556,530.076Z" transform="translate(61.614 13.243)"/><g transform="translate(768.327 542.564)"><path class="k" d="M715.482,530.735c4.443.595,13.436-.083,19.976-.449h0c.209-.015.4-.026.6-.036,3.411-.182,6.061-.266,6.874,0a3.283,3.283,0,0,0,.329.088c.323.079.772.167,1.32.25,4.934.767,17.677,1.529,17.833-2.3a9.365,9.365,0,0,0-.209-2.2c-.031-.156-.062-.313-.1-.469l-.011-.026c-.047-.209-.1-.423-.162-.637l0-.011c-1.127-3.953-3.854-8.132-4.459-7.772-8.1,4.82-16.013-.881-17.646-2.18-.2-.162-.308-.256-.308-.256s-.308.021-.892.079c-.317.036-.725.083-1.2.141-.261.032-.543.068-.851.109-.1.015-.208.026-.313.047q-.375.048-.8.109c-.135.021-.271.042-.417.068h-.006c-.766.12-1.622.266-2.565.443-.59.11-1.206.23-1.858.365-.98.2-2.034.432-3.15.693-.1.032-.214.068-.317.1-.558.173-1.106.365-1.644.564a34.3,34.3,0,0,0-5.137,2.388l0,.006C712.785,524.19,710,530.006,715.482,530.735Z" transform="translate(-712.612 -514.738)"/><path class="l" d="M719.2,519.855a10.628,10.628,0,0,1,7.62,7.745s3.484-.64,7.432-1.22l1.038-.141c.631-.088,1.273-.177,1.91-.256.548-.067,1.091-.129,1.617-.187,2.932-.314,5.466-.428,6.29-.036,2.233,1.053,16.1,3.687,15.945.328a1.638,1.638,0,0,0-.1-.469l-.011-.026a3.955,3.955,0,0,1-.162-.637l0-.011c-1.127-3.953-3.854-8.132-4.459-7.772-8.1,4.82-16.013-.881-17.646-2.18-.2-.162-.308-.256-.308-.256s-.308.021-.892.079c-.317.036-.725.083-1.2.141-.261.032-.543.068-.851.109-.1.015-.208.026-.313.047q-.375.048-.8.109c-.135.021-.271.042-.417.068h-.006c-.766.12-1.622.266-2.565.443-.59.11-1.206.23-1.858.365-.98.2-2.034.432-3.15.693-.1.032-.214.068-.317.1-.558.173-1.106.365-1.644.564a34.3,34.3,0,0,0-5.137,2.388Z" transform="translate(-711.458 -514.738)"/><g transform="translate(22.845 0.22)"><path class="m" d="M732.054,515.191c.152.141.365.344.626.611a15.57,15.57,0,0,1,2.451,3.134,7.474,7.474,0,0,1,.569,1.221c.058.162.1.329.146.5l1.518-.37a8,8,0,0,0-.793-1.972V518.3a11.806,11.806,0,0,0-.736-1.173,17.354,17.354,0,0,0-1.82-2.207c-.261.032-.543.068-.851.109-.1.015-.208.026-.313.047Q732.476,515.129,732.054,515.191Z" transform="translate(-732.054 -514.925)"/></g><g transform="translate(17.999 0.996)"><path class="m" d="M727.93,515.951c.872.819,3.109,3.1,3.646,5.326l1.523-.37a13.075,13.075,0,0,0-3.311-5.321C729.2,515.7,728.582,515.816,727.93,515.951Z" transform="translate(-727.93 -515.586)"/></g><g transform="translate(12.888 2.16)"><path class="m" d="M723.58,517.14c1.018,1.012,2.812,3.014,3.287,4.975l1.517-.37a12.762,12.762,0,0,0-3.16-5.169C724.666,516.749,724.118,516.942,723.58,517.14Z" transform="translate(-723.58 -516.576)"/></g></g><g transform="translate(825.668 423.721)"><path class="b" d="M818.913,426.092c-11.22,7.116-23.763,5.417-24.822,6.164-1.752,1.24-7.6,13.741-12.479,24.5-3.793,8.334-7,15.632-7.277,15.825-.64.437-8.4,8.334-8.4,8.334-.224-5.791,2.318-20.279,5.438-33.294,1.2-5,2.469-9.787,3.709-13.773l22.566-14.361a87.175,87.175,0,0,1,7.726-5.1c2.4-.459,4.007-.727,4.2-.791C809.574,413.6,830.131,418.986,818.913,426.092Z" transform="translate(-760.62 -413.601)"/><g transform="translate(0 62.802)"><path class="b" d="M772.782,467.046c.022.8,2.654,10.13,1.58,14.277s-3.154,10.174-3.219,12.493c-.076,2.727-1.5,2.9-1.75-.362a35.507,35.507,0,0,1,.208-7.151c.133-.405-.43,2.347-.789,5.429-.381,3.277-.583,6.909-1.3,6.818-1.394-.18-.964-9.864-.584-11.459a33.551,33.551,0,0,0-.938,4.229c-.3,1.955-.3,4.318-.921,4.556-.98.375-1.448-5.008-.646-9.023-.126-.121-.832,1.013-1.395,5.877-.056.489-.736,1.538-1.013-.23-.583-3.724-1.155-5.322.387-9.848,1.5-4.412,4.459-8.811,4.359-12.416Z" transform="translate(-761.41 -467.046)"/><path class="b" d="M773.119,477.562s3.1,4.969,2.365,9.016c-.434,2.405.289,2.61.35,3.069.207,1.525-2.25-.774-2.268-2.959-.014-1.776-2.972-3.841-3.311-5.029s-.546-4.448.174-4.979S773.119,477.562,773.119,477.562Z" transform="translate(-759.916 -465.38)"/></g><path class="b" d="M773.364,468.431s.175-2.035,2.678-7.57-4.228.262-4.228.262L766.867,471.7Z" transform="translate(-760.455 -405.746)"/><path class="b" d="M773.61,465.305a26.157,26.157,0,0,0-.746,8.5c.479,3.7-4.575-2.5-4.575-2.5l1.8-6.505Z" transform="translate(-760.206 -404.637)"/></g><path class="o" d="M891.073,501.177l-16.717,54.889-1.566,5.147-4.857-3.653L846.158,541.2l-8.061-6.06-7.263-5.465h0A41.633,41.633,0,0,1,815.4,486.5l9.652-39.455Z" transform="translate(73.5 15.974)"/><path class="b" d="M834.237,509.564s15.644,7.493.134,10.663c-16.31,0-38.057,5.436-38.057,5.436s5.269-7.139,12.854-9.566S830.745,511.488,834.237,509.564Z" transform="translate(70.368 26.92)"/><path class="p" d="M882.284,490.585c-.082.613-7.061,26.1-14.647,29.137s-13.048,5.462-17.3,1.214-6.677-6.979-6.677-6.979l13.656-13.249Z" transform="translate(78.658 23.598)"/><path class="b" d="M826.664,513.509s13.148-4.479,17.458-12.369,7.649-8.415,7.649-8.415l9.711,14.5s-24.563,15.618-32.149,15.948S826.664,513.509,826.664,513.509Z" transform="translate(75.407 23.972)"/><g class="i" transform="translate(844.731 464.214)"><g transform="translate(0.797)"><path class="j" d="M781.187,448.231l.2.4,1.932,3.786,3.233,6.336q.337-.069.684-.112c.149-.019.3-.034.448-.047L784.3,452.9l-2.892-4.841C781.336,448.119,781.261,448.175,781.187,448.231Z" transform="translate(-777.807 -448.061)"/><path class="j" d="M780.294,448.874l.73,1.43,1.542,3.022,2.888,5.664a6.9,6.9,0,0,1,.866-.28l-2.969-4.994-2.591-4.336-.353-.586Z" transform="translate(-777.964 -447.933)"/><path class="j" d="M785.174,459.064c-1.058-1.78-5.217-8.781-5.743-9.61l-.008.006,4.874,9.562.543.22C784.949,459.179,785.061,459.119,785.174,459.064Z" transform="translate(-778.116 -447.817)"/><path class="j" d="M779.024,450.721c.144.184,4.821,8.063,4.821,8.063l-.9-.362Z" transform="translate(-778.186 -447.595)"/><path class="j" d="M778.658,451.84c.116.147,3.851,6.439,3.851,6.439l-.716-.288Z" transform="translate(-778.25 -447.399)"/><path class="j" d="M778.311,452.613c.093.116,3.076,5.144,3.076,5.144l-.572-.229Z" transform="translate(-778.311 -447.264)"/></g><g transform="translate(0 1.976)"><path class="j" d="M788.358,453.729l-10.277,3.485q.1.523.177,1.051c2.767-1.106,6.833-2.733,10.342-4.143C788.519,453.991,788.438,453.861,788.358,453.729Z" transform="translate(-777.555 -449.045)"/><path class="j" d="M787.712,452.77l-9.871,3.348c.075.289.142.579.2.872,2.323-.929,6.509-2.6,9.835-3.941Z" transform="translate(-777.597 -449.213)"/><path class="j" d="M787.078,451.854,778,454.933l-.368.5c.041.128.08.257.117.387,1.6-.64,6.247-2.5,9.443-3.784Z" transform="translate(-777.633 -449.373)"/><path class="j" d="M786.388,451.048l-7.653,2.595-.657.893s5.29-2.113,8.394-3.363Z" transform="translate(-777.555 -449.515)"/><path class="j" d="M785.7,450.331l-6.479,2.2-.524.714s4.65-1.858,7.06-2.831Z" transform="translate(-777.446 -449.64)"/><path class="j" d="M785.207,449.743l-5.436,1.844-.419.571s4.036-1.612,5.878-2.357Z" transform="translate(-777.332 -449.743)"/></g></g><path class="o" d="M895.653,417.188,883.269,430.3a157.386,157.386,0,0,0-18.036,29.662c-.086.16-.161.32-.235.481a76.761,76.761,0,0,1-17.641,24.02c-1.454,1.347-2.928,2.629-4.391,3.825-2.062,1.689-4.135,3.238-6.166,4.627a100.327,100.327,0,0,1-9.382,5.78l-1.794-1.592-2.971-2.671-4.157-3.719-3.783-3.376a22.016,22.016,0,0,1-6.389-22.31c.011-.011.011-.033.021-.054a.738.738,0,0,0,.053-.331c-.011-.085-.1-.042-.256.086-1.089.919-5.289,6.464-7.714,9.862L781.91,458.037,771.673,448.9l-7.458-6.667,11.167-7.106,22.566-14.361a87.158,87.158,0,0,1,7.726-5.1c11.6-6.881,33.358-16.6,44.321-1,0,0,6.464,11.358,16.989,6.1s9.894-7.276,9.894-7.276a37.953,37.953,0,0,1,18.1,3.376C895.2,416.974,895.418,417.07,895.653,417.188Z" transform="translate(64.748 8.841)"/><g transform="translate(871.539 444.878)"><g transform="translate(0)"><path class="q" d="M868.152,456.455l-9.264-.927-18.383-1.841-10.9-22.081-10,23.11-19.152,4.03L801.8,460.3l.2.247,11.946,13.8-1.8,11.932L816.308,490l2.973,2.667,10.249-4.8.928.609,21.79,14.295-4.654-27.2Zm-31.532,27.4-6.51-4.262-10.381,4.871,1.855-12.337-7.64-8.83,10.815-2.276,5.277-12.208,5.771,11.671,15.7,1.566L839.794,472.94l1.219,7.089,1.3,7.567Z" transform="translate(-800.447 -431.606)"/></g></g><path class="o" d="M903.687,478.647s-3.871,27.5-42.8,54.207L832.255,509.8,818,497.075c12.091-6.6,28.488-18.587,37.579-38.26a158.255,158.255,0,0,1,18.268-30.141l12.381-13.107C898.714,421.714,911.516,437.691,903.687,478.647Z" transform="translate(74.165 10.464)"/><path class="p" d="M852.862,456.018s-3.991,25.915-14.167,31.738-12.8,8.881-12.8,8.881-8.828-5.072-5.351-7.428c13.959-9.458,22.948-18.767,28.118-26.031C850.547,460.528,852.261,458.119,852.862,456.018Z" transform="translate(74.468 17.546)"/><path class="r" d="M791.391,479.515c-1.2,2.9-1.667,12.149-1.9,17.529-1.479-4.06-2.784-7.727-3.726-10.511-1.29-3.828-2.653-3.639-4.06-1.393a11.733,11.733,0,0,1,1.914-3.189c4.886-6.147,7.466-13.889,7.466-14.8s1.377-3.493,1.522-1.217S793.058,475.5,791.391,479.515Z" transform="translate(67.811 19.121)"/><path class="s" d="M904.442,551.952" transform="translate(89.298 34.341)"/><path class="t" d="M680.9,419.377a18.8,18.8,0,0,1,1.461-14.741l.053-.063-1.878-1.562L656.623,432.06a10.239,10.239,0,0,0-3.72-6.567c-3.986-3.311-9.454-3.3-12.214.02s-1.716,8.634,2.27,11.946c3.949,3.283,9.191,3.5,12.193,0l-.044-.035-.042.052.007-.009.011-.012,15.751-19.049c-.278,2.222-.06,5.307,1.052,9.943,2.222,9.277-5.778,10.354-5.778,10.354,4.379,1.085,8.871-1.878,8.771-7.712C679.285,430.76,683,426.467,680.9,419.377Zm-6.633,7.906a19.2,19.2,0,0,1,1.3-14.566l1.9-2.3c-.293,2.228-.092,5.318,1.031,10,1.457,6.081-1.479,8.637-3.677,9.676A14.665,14.665,0,0,0,674.262,427.283Z" transform="translate(42.852 8.266)"/><path class="t" d="M427.535,441.2c-2.472,2.092-3.027,5.508-1.362,7.565l-.041.034,0,0,.006.007.028-.007,15.7,18.4-12.114,13.29-13.56-15.88a6.474,6.474,0,0,0,4.5-1.593c2.5-2.115,3.1-5.518,1.335-7.6s-5.189-2.026-7.69.089c-2.471,2.092-3.026,5.508-1.361,7.565l-.041.034,0,0,.006.007.028-.007L430.47,483.6h0l.308.362L445,468.538l-2.1-2.428L429.4,450.3a6.474,6.474,0,0,0,4.5-1.592c2.5-2.115,3.11-5.5,1.348-7.585S430.034,439.081,427.535,441.2Z" transform="translate(3.087 14.669)"/><g transform="translate(394.376 355.798)"><path class="u" d="M406.845,381.728s55.546-70.756,112.383,21.49S638.51,444.482,638.51,444.482" transform="translate(-392.193 -355.798)"/><path class="u" d="M394.376,404.454s55.546-70.756,112.382,21.49,119.284,41.264,119.284,41.264" transform="translate(-394.376 -351.819)"/></g></g></svg>