<svg xmlns="http://www.w3.org/2000/svg" width="80.052" height="47.77" viewBox="0 0 80.052 47.77"><g transform="translate(-920.248 -423.841)"><g transform="translate(315.852 234.236)"><path d="M619.8,231.131l-1.131,1.482-3.631,4.761-1.3-.751,2.744-5.405.58-1.14Z" fill="#ff6501"/><path d="M614.722,201.161l-1.639-1.851.5-.563,1.7,1.744Z" fill="#ff6501"/><path d="M619.522,194.767l-9.869,8.767-1.324,1.176s-4.155-5.865-.054-9.931a8.239,8.239,0,0,1,1.379-1.087C615.949,189.69,619.522,194.767,619.522,194.767Z" fill="#ff6501"/><path d="M609.653,203.534l-1.324,1.176s-4.155-5.865-.054-9.931A11.6,11.6,0,0,0,609.653,203.534Z" fill="#ecf0f1" opacity="0.24"/><path d="M609.172,195.106l-1.778-2.983.164-.223,2.368,2.166Z" fill="#ff6501"/><path d="M619.8,231.131l-1.131,1.482-2.188-1.4.58-1.14Z" opacity="0.5"/><path d="M637.829,230.021l1.3,1.335,4.177,4.291,1.2-.9-3.373-5.037-.712-1.062Z" fill="#ff6501"/><path d="M639.268,199.658l1.4-2.034-.563-.5-1.482,1.936Z" fill="#ff6501"/><path d="M633.735,193.887l10.85,7.519,1.456,1.008s3.42-6.321-1.139-9.865a8.254,8.254,0,0,0-1.5-.914C636.672,188.417,633.735,193.887,633.735,193.887Z" fill="#ff6501"/><path d="M644.585,201.406l1.456,1.008s3.42-6.321-1.139-9.865A11.6,11.6,0,0,1,644.585,201.406Z" fill="#ecf0f1" opacity="0.24"/><path d="M644.051,192.981l1.407-3.175-.19-.2-2.091,2.435Z" fill="#ff6501"/><path d="M626.317,195.932c-.015-.047-.122-2.017-.122-2.017l-.967.058a.367.367,0,0,1-.388-.344l-.054-.908a.365.365,0,0,1,.343-.388l2.9-.175a.367.367,0,0,1,.388.344l.055.908a.367.367,0,0,1-.344.388l-1.1.066.115,1.911Z" fill="#2a2457"/><path d="M637.829,230.021l1.3,1.335,2-1.648-.712-1.062Z" opacity="0.5"/><circle cx="19.227" cy="19.227" r="19.227" transform="translate(608.664 195.576)" fill="#ff6501"/><circle cx="16.935" cy="16.935" r="16.935" transform="translate(610.957 197.868)" fill="#ecf0f1"/><path d="M616.24,201.069a13.285,13.285,0,0,1,3.532-2.162" fill="none" stroke="#fff" stroke-linecap="round" stroke-miterlimit="10" stroke-width="1.016" opacity="0.4"/><path d="M610.1,210.535a23.069,23.069,0,0,1,4.872-8.274" fill="none" stroke="#fff" stroke-linecap="round" stroke-miterlimit="10" stroke-width="1.016" opacity="0.4"/><line x2="0.817" y2="13.554" transform="translate(627.087 201.45)" fill="none" stroke="#2a2457" stroke-linecap="round" stroke-miterlimit="10" stroke-width="0.847"/><line y1="5.311" x2="9.163" transform="translate(618.91 214.674)" fill="none" stroke="#2a2457" stroke-linecap="round" stroke-miterlimit="10" stroke-width="1.186"/><circle cx="15.383" cy="15.383" r="15.383" transform="translate(612.509 199.42)" fill="none" stroke="#3b3a40" stroke-miterlimit="10" stroke-width="0.508"/><path d="M648.676,192.693a8.609,8.609,0,0,1,1.335,7.423" fill="none" stroke="#f2c029" stroke-miterlimit="10" stroke-width="0.226"/><path d="M605.259,203.356a8.609,8.609,0,0,1,.553-7.523" fill="none" stroke="#f2c029" stroke-miterlimit="10" stroke-width="0.226"/></g><g transform="translate(315.852 234.236)"><path d="M684.449,229.576c0,2.245-6.51,4.074-14.541,4.074s-14.541-1.829-14.541-4.074c0-.69.617-1.343,1.71-1.9,2.448-1.295,7.283-2.175,12.831-2.175,6.558,0,12.094,1.224,13.912,2.888A1.67,1.67,0,0,1,684.449,229.576Z" fill="#b8f0f4"/><path d="M684.449,229.576c0,2.245-6.51,4.074-14.541,4.074s-14.541-1.829-14.541-4.074c0-.69.617-1.343,1.71-1.9-.8.76-.938,1.354-.879,1.782.475,3.29,14.09,3.516,18.462,3.29,4.514-.237,4.9-1.235,8.328-1.924a1.23,1.23,0,0,0,.653-.309c.523-.523.274-1.473.179-2.126A1.67,1.67,0,0,1,684.449,229.576Z" fill="#6d8686" opacity="0.33"/><path d="M664.656,227.458c-1.137.666-1.26,1.145-1.267,1.4-.025.938,1.524,1.619,1.648,1.672,1.336.572,1.892-.059,3.928.1,2.093.165,2.382.9,3.65.583,1.241-.311,2.5-1.4,2.383-2.357-.017-.143-.121-.748-1.648-1.521A9.355,9.355,0,0,0,664.656,227.458Z" fill="#6d8686" opacity="0.33"/><path d="M675.005,215.937v10.027a4.244,4.244,0,0,1-4.242,4.241h-2.827a.4.4,0,0,1-.119-.012,4.224,4.224,0,0,1-4.122-4.229V215.937a.744.744,0,0,1,.748-.748h9.813A.745.745,0,0,1,675.005,215.937Z" fill="#b8f0f4"/><path d="M675.005,217.611a2.4,2.4,0,0,1,2.176-.963,3,3,0,0,1,2.486,1.772,3.3,3.3,0,0,1-.3,2.928,4.273,4.273,0,0,1-2.548,1.808,1.857,1.857,0,0,0-.846.516c-.73.811-.413,2.136-.777,2.207-.215.043-.542-.38-.652-.808a2.788,2.788,0,0,1,1.833-2.859,9.8,9.8,0,0,0,1.586-.653c1.039-.59,1.486-2.182.777-2.922-.632-.659-2.383-.532-3.823.9A2.27,2.27,0,0,1,675.005,217.611Z" fill="#b8f0f4"/><path d="M667.817,230.193a4.224,4.224,0,0,1-4.122-4.229V215.937a.744.744,0,0,1,.748-.748h1.628c-.226,2.839-.761,10.846-.095,12.486A7.434,7.434,0,0,0,667.817,230.193Z" fill="#6d8686" opacity="0.1"/></g></g></svg>