<svg xmlns="http://www.w3.org/2000/svg" xmlns:xlink="http://www.w3.org/1999/xlink" width="479.296" height="282.026" viewBox="0 0 479.296 282.026"><defs><style>.a,.o{fill:none;}.b{fill:#bec9f2;opacity:0.49;}.c{fill:#c2934e;}.d{fill:#8c7cc9;}.e{opacity:0.15;}.f{fill:#caa267;}.g{fill:#f0c659;}.h{clip-path:url(#a);}.i{fill:#c39652;}.j{fill:#5e5586;}.k{fill:#5e5587;}.l{fill:#f1c759;}.m{opacity:0.3;}.n{opacity:0.5;}.o{stroke:#8c7cc9;stroke-miterlimit:10;stroke-width:0.958px;}.p{fill:#cea971;}</style><clipPath id="a"><path class="a" d="M903.159,14302.3c13.449,1.281,26.525-3.833,42.529-8.7,18.813-5.724,38.72-9.288,58.065-12.683,38.689-6.792,87.574-15.2,124.813,1.908,64.571,29.659,157.784-26.88,168.481-86.476s-19.865-153.1-74.876-170.525-154.81,12.106-214.933,26.373c-49.874,11.834-104.892,19.478-147.961,49.366-36.21,25.129-46.319,67.126-35.015,108.337C834.053,14245.586,861.618,14298.338,903.159,14302.3Z"/></clipPath></defs><g transform="translate(-819.869 -14020.47)"><path class="b" d="M903.159,14302.3c13.466,1.09,26.525-3.833,42.529-8.7,18.813-5.724,38.72-9.288,58.065-12.683,38.689-6.792,87.574-15.2,124.813,1.908,64.571,29.659,157.784-26.88,168.481-86.476s-19.865-153.1-74.876-170.525-154.81,12.106-214.933,26.373c-49.874,11.834-104.892,19.478-147.961,49.366-36.21,25.129-46.319,67.126-35.015,108.337C834.053,14245.586,840.149,14297.2,903.159,14302.3Z"/><path class="c" d="M1055.7,14059.809s-.875,11.308,4.247,19.346c3.441,5.4-3.279,4.98-10.626,3.816-5.64-.895-6.741-4.065-6.741-4.065a7.849,7.849,0,0,0,4.357-5.163c1.172-3.773.559-10.419-.041-13.934C1045.645,14052.49,1055.7,14059.809,1055.7,14059.809Z"/><path class="d" d="M1106.9,14142.075l-89.908-59.418-32.884,56.229"/><path class="d" d="M1103.666,14177.916c-.29-.864-1.892-1.731-4.435-2.693-.76-.286-1.6-.586-2.526-.9-12.731-4.273-27.589-31.187-36.8-53.6-1.873-4.562-3.51-8.94-4.857-12.914a112.874,112.874,0,0,1-3.21-11.022c-.851-3.778-1.064-6.428-.483-7.419a.773.773,0,0,1,.747-.434,16.741,16.741,0,0,0,4.925-.658c4.032-1.044,8.525-4.146,11.744-6.718l0,0c2.613-2.089,4.38-3.826,4.38-3.826h.013c.157.007,1.617.068,4.051.382a84.9,84.9,0,0,1,8.84,1.643q1.935.454,4.071,1.059c.612.174,1.234.359,1.866.552a93.777,93.777,0,0,1,48.47,34.221"/><path class="e" d="M1140.464,14177.234a1.432,1.432,0,0,0-.2.062C1140.352,14177.269,1140.417,14177.247,1140.464,14177.234Z"/><path class="d" d="M940.057,14178.287c0-36.378,20.775-97.951,93.4-102.179a12.07,12.07,0,0,1,5.514,1.479c3.72,1.757,7.722,4.54,10.945,5.329a6.841,6.841,0,0,0,1.5.215c6.965.16,12.012-3.683,17.133-5.029l.017-.007.029-.009a11.864,11.864,0,0,1,4.554-.362h.013q2.016.265,3.864.531c2.34.339,4.46.681,6.326,1,.971.17,1.873.336,2.7.489,1.286.241,2.388.46,3.3.645.387.079.738.154,1.051.22,1.215.257,1.866.414,1.866.414s-.093.113-.277.332c-1.022,1.229-4.815,5.795-10.355,12.542-4.558,5.561-10.3,12.6-16.644,20.479l0,0q-2.484,3.086-5.089,6.337"/><ellipse class="f" cx="13.26" cy="18.092" rx="13.26" ry="18.092" transform="translate(1037.768 14030.37)"/><path class="g" d="M1046.1,14039.841s22.956,12.729,16.143-7.707C1057.534,14018,1030.448,14030.731,1046.1,14039.841Z"/><path class="g" d="M1049.433,14034.959s-12.844,7.621-11.6,15.267c0,0-2.833-22.825,9.939-23.4s17.715.659,16.581,24.8C1064.348,14051.622,1060.638,14032.422,1049.433,14034.959Z"/><path class="g" d="M1047.21,14026.975s.645-7.111,7.7-6.1,10.072,5.036,11.08,9.064,2.014,7.052,3.021,7.052c0,0-3.021,3.021-4.029,2.014,0,0,2.615,7.244-.707,13.19,0,0-1.307-9.161-6.343-10.168S1047.21,14026.975,1047.21,14026.975Z"/><path class="g" d="M1047.855,14026.914s-5.036-3.022-10.072,4.028l-3.021,6.044s1.007,1.007,3.021,0c0,0-.918,7.1.045,11.1l2.977-12.11Z"/><path class="d" d="M1104.5,14121.486l-22.857-27.585-7.71-9.3-1.8-2.164-1.8-2.168-1.789-2.16.006,0,.017-.007.029-.009a60.151,60.151,0,0,1,20.275-3.12,62.7,62.7,0,0,1,7.519.541,58.312,58.312,0,0,1,30.715,13.941"/><path class="e" d="M1088.876,14074.967a18.7,18.7,0,0,1-4.132,3.586,8.23,8.23,0,0,1-1.205.629c-.058.026-.119.053-.181.078a55.1,55.1,0,0,1-11.222,3.175,30.037,30.037,0,0,1-5.144.492c-.141,0-.28,0-.415-.007-6.114-.185-10.253,2.363-14.03,2.546a2.26,2.26,0,0,1-2.627-2.549,6.841,6.841,0,0,0,1.5.215c6.965.16,12.012-3.683,17.133-5.029l.017-.007.029-.009A60.151,60.151,0,0,1,1088.876,14074.967Z"/><path class="e" d="M1110.892,14186.53c-8.287-10.739-30.151-38.366-30.855-49.248,0,0,3.247,19.68,11.2,31.141"/><path class="e" d="M992.663,14170.8"/><g class="h"><path class="c" d="M1055.7,14059.809s-.875,11.308,4.247,19.346c3.441,5.4-3.279,4.98-10.626,3.816-5.64-.895-6.741-4.065-6.741-4.065a7.849,7.849,0,0,0,4.357-5.163c1.172-3.773.559-10.419-.041-13.934C1045.645,14052.49,1055.7,14059.809,1055.7,14059.809Z"/><path class="i" d="M1015.685,14343.633s12.772,111.778,8.191,113.784c-8.217,3.653-40.437,15.7-4.741,12.557,18.378.792,16.961-3.287,17.188-6.767.185-2.844-2.073-103.037-1.452-110.843l.223-2.8Z"/><path class="f" d="M1121.114,14441.743c-2.381.278-7.83,2.541-10.74,4.343-9.432-22.134-43.89-105.245-43.89-105.245l15.119-12.063S1111.444,14414.8,1121.114,14441.743Z"/><path class="j" d="M1122.242,14441.959c-.722-1.462-13.423,4.015-13.773,5.831-.173.9-16.373,18.062-14.263,20.8,1.107,2.918,6.99,1.651,13.042.52a16.65,16.65,0,0,0,6.66-2.859c7.136-5.137,13.6-9.2,14.571-11.62C1129.331,14452.517,1123.661,14444.833,1122.242,14441.959Z"/><path class="k" d="M1036.8,14453.411c.186-1.62-13.547.667-14.826,2s-21.228,7.131-20.658,13.931,32.248.9,34.514.7S1036.433,14456.595,1036.8,14453.411Z"/><path class="l" d="M1000.19,14223.236a7.1,7.1,0,0,0,4.166,1.519c9.442-.6,50.216-3.268,72.2-6.366,7.756-1.094,13.171-2.238,14.045-3.369a.78.78,0,0,1,0,.091c.043,1.222.5,15.218,1.03,33.569,1.05,36.227,9.054,87.573,14.707,102.892,1.22,3.306-49.793,2.367-49.793,2.367-3.221-37.208-5.1-102.843-7.622-105.582-3.07-3.333-2.812,54.514-3.989,103.034-19.6,6.886-51.587,6.338-51.391,4.254C995.879,14330.9,1000.19,14223.236,1000.19,14223.236Z"/><g class="m"><path d="M1037.963,14222.335h-.457S1037.668,14222.333,1037.963,14222.335Z"/><path class="n" d="M1037.963,14222.335c12.214-.036,38.591-3.946,38.591-3.946,7.756-1.094,13.171-2.238,14.045-3.369a.78.78,0,0,1,0,.091c.043,1.222.5,15.218,1.03,33.569a9.012,9.012,0,0,1-1.287-.042,9.961,9.961,0,0,1-6.8-4.03,22.185,22.185,0,0,1-2.929-5.009C1070.145,14223.135,1041.879,14222.362,1037.963,14222.335Z"/></g><line class="o" x1="1.728" y2="135.394" transform="translate(1007.237 14221.623)"/><line class="o" x1="1.824" y2="133.047" transform="translate(1020.112 14223.255)"/><line class="o" x2="0.247" y2="131.946" transform="translate(1034.399 14222.223)"/><line class="o" x2="2.52" y2="27.127" transform="translate(1046.402 14221.229)"/><line class="o" x2="8.609" y2="133.928" transform="translate(1059.725 14220.127)"/><line class="o" x2="10.476" y2="134.903" transform="translate(1071.183 14219.094)"/><line class="o" x2="13.819" y2="135.406" transform="translate(1082.451 14218.161)"/><path class="o" d="M999.61,14237.354s72.624-2.572,91.456-7.569"/><path class="o" d="M1048.922,14248.356c-24.837,7.827-49.81.77-49.81.77"/><path class="o" d="M1048.507,14246.666s23.374,4.528,42.99-2.553"/><path class="o" d="M998.683,14259.074s19.031,8.04,48.256.719"/><path class="o" d="M998.16,14270.922s29.1,6.316,48.307.236"/><path class="o" d="M997.626,14282.693s15.4,10.136,48.493,2.277"/><path class="o" d="M996.993,14296.235a70.571,70.571,0,0,0,48.922-.362"/><path class="o" d="M996.388,14308.642s16.53,9.79,49.313.6"/><path class="o" d="M995.735,14321.364s22.481,9.48,49.807-1.944"/><path class="o" d="M995.192,14331.3s13.725,11.175,50.17-.969"/><path class="o" d="M994.516,14342.574s21.454,9.128,50.642-1.353"/><path class="o" d="M1050.56,14258.842s10.2,7.089,42.037-1.436"/><path class="o" d="M1051.793,14270.68s13.908,5.136,40.962-2.068"/><path class="o" d="M1052.229,14283.9s21.193,4.516,41.507-3.437"/><path class="o" d="M1052.835,14294.837s20.84,7.272,42.205-3.494"/><path class="o" d="M1053.489,14306.849s19.692,5.132,43.1-3.567"/><path class="o" d="M1054.133,14318.384s16.73,5.9,44.161-3.655"/><path class="o" d="M1054.976,14328.568s19.968,8.283,45.222-2.688"/><path class="o" d="M1055.569,14341.336a88.843,88.843,0,0,0,47.062-3.349"/><path class="d" d="M984.108,14138.887c-1.549,2.419-7.87,71.152,0,85.41,7.916,14.34,73.859,22,94.591,10.975,21.038-11.193,29.141-21.96,31.953-42.035,2.818-20.116-3.752-51.161-3.752-51.161l-89.907-59.418Z"/><path class="p" d="M1001.454,14218.223a52.429,52.429,0,0,1,5.514,3.206,16.375,16.375,0,0,1,2.833,4.164c.526,1.112-1.653.1-3.316-2.338-1.616-.886-3.12-1.883-3.489-1.519s2.175,1.028,3.994,2.763c1.782,2.285,3.49,4.526,2.878,4.57-.6.044-1.281.068-3.811-3.24-1.788-.819-3.528-1.795-3.67-1.417s2.08,1.083,3.839,2.611c2.462,2.523,3.035,3.444,3.946,4.332-.491.549-2.14.052-5.161-2.969-1.63-1.013-4.062-1.4-4.145-.9.076.539,1.771.837,2.923,1.523a13.619,13.619,0,0,1,3.176,2.547c.343.438-.017,1.2-4.014-1.044a4.092,4.092,0,0,0-2.9-.18l-2.072-5.675Z"/><path class="f" d="M990.084,14220.427s9.744-2,10.611-2.363,3.014,2.2,2.322,2.682a4.74,4.74,0,0,0-1.558,2.851,2.243,2.243,0,0,1-.439,2.025c-.591.685-1.458,1.563-1.079,2.584s1.261,2.05.114,2.131a20.538,20.538,0,0,0-7.127,2.609c-2.451,1.532-8.558-5.126-8.558-5.126Z"/><path class="p" d="M1083.927,14218.78a51.667,51.667,0,0,0-6.357-.174,16.051,16.051,0,0,0-4.566,2.058c-1.021.671,1.359.957,4.035-.246,1.836.1,3.633.04,3.761.545s-2.387-.269-4.833.25c-2.7,1.01-5.312,2.021-4.813,2.381s1.058.735,4.923-.754c1.947.245,3.936.33,3.862.729s-2.333-.174-4.622.2c-3.4.854-4.367,1.339-5.6,1.614.136.729,1.8,1.173,5.933.19,1.914,0,4.191.944,4,1.421-.342.42-1.942-.22-3.28-.242a13.436,13.436,0,0,0-4.023.5c-.519.192-.6,1.03,3.963,1.227a4.131,4.131,0,0,1,2.564,1.374l4.695-3.749Z"/><path class="f" d="M1092.491,14226.658s-7.279-6.852-7.834-7.615-3.708.291-3.364,1.064a4.765,4.765,0,0,1-.142,3.253,2.235,2.235,0,0,0-.669,1.96c.15.9.437,2.1-.412,2.773s-2.134,1.084-1.2,1.758a20.894,20.894,0,0,1,4.735,5.986c1.3,2.6,9.946.141,9.946.141Z"/><path class="d" d="M1164.377,14211.025c-11.152,19.021-26.084,38.558-55.251,37.619-8.757-.57-13.388-4.518-15.677-8.979a17.178,17.178,0,0,1-1.176-2.946c-.039-.131-.077-.261-.113-.392a18.993,18.993,0,0,1-.48-2.291,16.713,16.713,0,0,1,.358-7.128l0-.014c.042-.123.084-.24.129-.349.016-.042.035-.088.058-.137.145-.342.371-.831.667-1.447,1.309-2.705,4-7.826,7.461-13.48,6.179-10.1,5.985-25.6,3.31-33.565-.29-.864-1.892-1.731-4.435-2.693-.76-.286-1.6-.586-2.526-.9-12.731-4.273-27.589-31.187-36.8-53.6-1.873-4.562-3.51-8.94-4.857-12.914a112.874,112.874,0,0,1-3.21-11.022c-.851-3.778-1.064-6.428-.483-7.419a.773.773,0,0,1,.747-.434,16.741,16.741,0,0,0,4.925-.658c4.032-1.044,8.525-4.146,11.744-6.718l0,0c2.613-2.089,4.38-3.826,4.38-3.826h.013c.157.007,1.617.068,4.051.382a84.9,84.9,0,0,1,8.84,1.643q1.935.454,4.071,1.059c.612.174,1.234.359,1.866.552a93.777,93.777,0,0,1,48.47,34.221C1168.006,14153.079,1175.657,14191.768,1164.377,14211.025Z"/><path class="e" d="M1140.464,14177.234a1.432,1.432,0,0,0-.2.062C1140.352,14177.269,1140.417,14177.247,1140.464,14177.234Z"/><path class="d" d="M1092.273,14081.027s-.093.113-.277.332c-1.022,1.229-4.815,5.795-10.355,12.542-4.558,5.561-10.3,12.6-16.644,20.479l0,0q-2.484,3.086-5.089,6.337c-29.964,37.421-68.881,88.114-65.239,94.839a11.686,11.686,0,0,1,1.289,3.627,9.6,9.6,0,0,1,.129,1.885c-.116,3.892-2.623,7.008-5.008,9.1a.1.1,0,0,0-.019.017,1,1,0,0,1-.1.091,24.1,24.1,0,0,1-2.023,1.567,21.061,21.061,0,0,1-2.176,1.341c-31.756-5-46.7-18.521-46.7-54.9s20.775-97.951,93.4-102.179a12.07,12.07,0,0,1,5.514,1.479c3.72,1.757,7.722,4.54,10.945,5.329a6.841,6.841,0,0,0,1.5.215c6.965.16,12.012-3.683,17.133-5.029l.017-.007.029-.009a11.864,11.864,0,0,1,4.554-.362h.013q2.016.265,3.864.531c2.34.339,4.46.681,6.326,1,.971.17,1.873.336,2.7.489,1.286.241,2.388.46,3.3.645.387.079.738.154,1.051.22C1091.622,14080.87,1092.273,14081.027,1092.273,14081.027Z"/><ellipse class="f" cx="13.26" cy="18.092" rx="13.26" ry="18.092" transform="translate(1037.768 14030.37)"/><path class="g" d="M1046.1,14039.841s22.956,12.729,16.143-7.707C1057.534,14018,1030.448,14030.731,1046.1,14039.841Z"/><path class="g" d="M1049.433,14034.959s-12.844,7.621-11.6,15.267c0,0-2.833-22.825,9.939-23.4s17.715.659,16.581,24.8C1064.348,14051.622,1060.638,14032.422,1049.433,14034.959Z"/><path class="g" d="M1047.21,14026.975s.645-7.111,7.7-6.1,10.072,5.036,11.08,9.064,2.014,7.052,3.021,7.052c0,0-3.021,3.021-4.029,2.014,0,0,2.615,7.244-.707,13.19,0,0-1.307-9.161-6.343-10.168S1047.21,14026.975,1047.21,14026.975Z"/><path class="g" d="M1047.855,14026.914s-5.036-3.022-10.072,4.028l-3.021,6.044s1.007,1.007,3.021,0c0,0-.918,7.1.045,11.1l2.977-12.11Z"/><path class="d" d="M1168.4,14200.063l0,.007,0,.006c-10.252,27.832-63.891-78.59-63.891-78.59l-22.857-27.585-7.71-9.3-1.8-2.164-1.8-2.168-1.789-2.16.006,0,.017-.007.029-.009a60.151,60.151,0,0,1,20.275-3.12,62.7,62.7,0,0,1,7.519.541,58.312,58.312,0,0,1,30.715,13.941C1162.72,14120.12,1178.635,14172.225,1168.4,14200.063Z"/><path class="e" d="M1088.876,14074.967a18.7,18.7,0,0,1-4.132,3.586,8.23,8.23,0,0,1-1.205.629c-.058.026-.119.053-.181.078a55.1,55.1,0,0,1-11.222,3.175,30.037,30.037,0,0,1-5.144.492c-.141,0-.28,0-.415-.007-6.114-.185-10.253,2.363-14.03,2.546a2.26,2.26,0,0,1-2.627-2.549,6.841,6.841,0,0,0,1.5.215c6.965.16,12.012-3.683,17.133-5.029l.017-.007.029-.009A60.151,60.151,0,0,1,1088.876,14074.967Z"/><path class="e" d="M1100.476,14217.185s18.7-19.917,10.416-30.654-30.151-38.366-30.855-49.248c0,0,3.247,19.68,11.2,31.141S1100.476,14217.185,1100.476,14217.185Z"/><path class="e" d="M993.724,14204.718s-8.921-6.748-9.34-12.5,8.279-21.416,8.279-21.416-5.219,14.867-2.865,20.325A80.74,80.74,0,0,1,993.724,14204.718Z"/></g></g></svg>