<svg xmlns="http://www.w3.org/2000/svg" xmlns:xlink="http://www.w3.org/1999/xlink" width="435" height="301.802" viewBox="0 0 435 301.802"><defs><style>.a,.m{fill:none;}.b{fill:#bec9f2;opacity:0.49;}.c{clip-path:url(#a);}.d{fill:#c2934e;}.e,.l{fill:#caa267;}.f{fill:#8a7cc7;}.g{fill:#f1c759;}.h{opacity:0.15;}.i{opacity:0.3;}.j{opacity:0.5;}.k{fill:#eec459;}.l{fill-rule:evenodd;}.m{stroke:#8a7cc7;stroke-miterlimit:10;stroke-width:1.093px;}.n{fill:#9180d2;}</style><clipPath id="a"><path class="a" d="M429.238,2039.251c-54.223-43.446-81.333-65.17-106.787-72.238C237.411,1943.4,116.6,1992,90.032,2080.083c-1.383,4.582-19.6,68.229,15.7,109.927,29.56,34.913,66.748,19.133,175.885,37.69,116.842,19.868,145.007,49.99,185.307,26.746,38.154-22.006,58.842-75.5,50.253-117.83C510.792,2105.137,483.521,2082.747,429.238,2039.251Z" transform="translate(-84.11 -1961.07)"/></clipPath></defs><g transform="translate(-84.11 -1961.07)"><path class="b" d="M429.238,2039.251c-54.223-43.446-81.333-65.17-106.787-72.238C237.411,1943.4,116.6,1992,90.032,2080.083c-1.383,4.582-19.6,68.229,15.7,109.927,29.56,34.913,66.748,19.133,175.885,37.69,116.842,19.868,145.007,49.99,185.307,26.746,38.154-22.006,58.842-75.5,50.253-117.83C510.792,2105.137,483.521,2082.747,429.238,2039.251Z" transform="translate(0 0)"/><g transform="translate(84.11 1961.07)"><g class="c"><g transform="translate(95.512 36.831)"><path class="d" d="M295.162,2044.51s1.121,12.515-6.6,19.436,17.79,0,17.79,0-4.747-11.987-3.682-19.436S295.162,2044.51,295.162,2044.51Z" transform="translate(-187.407 -2000.975)"/><ellipse class="e" cx="13.496" cy="18.413" rx="13.496" ry="18.413" transform="translate(98.331 11.562)"/><path class="f" d="M208.186,2165.479c.288,4.521,4.961,25,10.8,43.207,4.787,14.945,10.374,28.363,14.966,30.219,10.189,4.1,87.12,9.728,102.937,2.183.369-.276.769-.574,1.148-.9,5.935-4.827,12.373-14.36,15.786-23.289,0-.01,9.092-25.636,10.947-30.854.02-.051.031-.092.051-.133.062-.206.134-.4.2-.585.021-.072.052-.133.072-.2,9.574,32.689,84.4,30.311,41-60.479-20.429-42.735-56.891-62.231-80.17-67.408-10.077-2.245-17.683-1.8-20.461.594a15.087,15.087,0,0,1-9.42,3.659,20.391,20.391,0,0,1-5.289-.482,26.29,26.29,0,0,1-5.607-1.907c-.862-.4-1.364-.687-1.364-.687a54.727,54.727,0,0,0-14.248.851C216.88,2069.573,207.715,2157.883,208.186,2165.479Z" transform="translate(-184.379 -2001.533)"/><path class="g" d="M234.806,2371.551h53.032q-.107-4.873-.238-9.823c-.112-4.511-.238-9.054-.365-13.549-.135-4.765-.27-9.49-.4-14.1-.127-4.415-.246-8.719-.358-12.85-.3-11.666-.508-21.965-.468-29.447.032-7.083.286-11.634.9-12.412.231-.294.468-.238.723.159.8,1.255,1.707,5.916,2.7,13.016.533,3.773,1.08,8.235,1.652,13.238.564,4.892,1.143,10.317,1.747,16.114.421,4.066.85,8.323,1.294,12.723.5,5.043,1.016,10.26,1.541,15.6.389,3.907.778,7.878,1.175,11.888q.466,4.694.929,9.443h59.124c-.015-.144-.032-.294-.056-.437-.515-3.677-1.048-7.544-1.6-11.555-.651-4.765-1.318-9.728-1.993-14.8-.628-4.741-1.27-9.586-1.906-14.445-1.3-9.92-2.6-19.95-3.812-29.471-1.167-9.109-2.256-17.758-3.224-25.39-2.24-17.82-3.764-30.153-3.764-30.153a6.4,6.4,0,0,1-.485.438.2.2,0,0,1-.039.032,7.018,7.018,0,0,1-1.676,1,10.409,10.409,0,0,1-2.525.707l-5.368.1c-3.972.071-9.244.143-15.295.207-4.527.047-9.491.087-14.653.1-1.349.008-2.708.016-4.074.008h-.063c-3.312.009-6.671.009-10.039-.008-5.288-.024-10.585-.079-15.668-.174-4.741-.088-9.307-.207-13.5-.374q-2.728-.118-5.233-.246c-.015.009-.032,0-.047,0l-.414-.023c-.42-.024-.651-.041-.651-.041-.849-.047-1.667-.1-2.47-.159s-1.572-.1-2.319-.166h-.008c-.619-.048-1.215-.1-1.794-.151-.382-.031-.763-.071-1.128-.112-.183-.015-.365-.031-.539-.056s-.358-.039-.532-.055-.35-.04-.516-.056-.334-.039-.5-.063c-.238-.024-.468-.056-.7-.087-.89-.119-1.692-.239-2.407-.365a16.847,16.847,0,0,1-2.731-.69,2.291,2.291,0,0,1-.214-.088,3.212,3.212,0,0,1-.373-.167c-.056-.031-.112-.063-.16-.087s-.1-.063-.135-.1a.941.941,0,0,1-.214-.183.857.857,0,0,0,.009.1c0,.063.008.166.015.3.008.174.015.4.032.69.008.19.015.4.032.635.024.437.047.953.071,1.541.009.151.016.3.024.461a.4.4,0,0,1,.008.1c.009.222.024.453.032.69s.032.493.04.748c.023.469.047.961.079,1.477.008.215.016.437.032.659q.025.476.048.977c.015.222.024.452.032.69.047.882.1,1.811.151,2.8.024.492.047,1,.079,1.516s.048,1.048.08,1.6c.039.755.08,1.533.119,2.327.063,1.215.127,2.486.2,3.8.032.66.072,1.326.1,2.01.08,1.556.167,3.176.255,4.844.071,1.2.127,2.43.2,3.685.039.81.088,1.628.128,2.454q.141,2.607.286,5.353c.183,3.367.317,6.845.413,10.41.358,12.635.222,26.35-.262,39.787-.183,4.757-.4,9.474-.66,14.1s-.556,9.165-.889,13.549Q235.243,2366.789,234.806,2371.551Z" transform="translate(-185.401 -2008.77)"/><path class="h" d="M370.28,2189.527c-.02.071-.051.133-.071.2-.072.185-.144.379-.206.584-.02.042-.031.083-.051.134C368.1,2195.667,359,2221.293,359,2221.3c-3.414,8.928-9.851,18.462-15.786,23.289,4.028-14.586,16.586-56.87,16.1-73.906C361.721,2187.107,370.28,2189.516,370.28,2189.527Z" transform="translate(-189.559 -2005.941)"/><path class="h" d="M248.721,2131.269s31.361,73.881-36.632,111.629l-1.359,1.065-1.034-17.874s29.6-48.971,29.627-50.174S248.721,2131.269,248.721,2131.269Z" transform="translate(-184.438 -2004.429)"/><path class="h" d="M298.633,2064.51c-.041,1.219.6,2.019,2.563,1.752,6.109-.83,13.007-.656,18.02,1.64a4.257,4.257,0,0,0,4.121-.174c3.208-1.876,5.2-7.473,5.986-9.954a1.7,1.7,0,0,0,.082-.543c-10.076-2.245-17.682-1.8-20.46.6a15.087,15.087,0,0,1-9.42,3.659A8.3,8.3,0,0,0,298.633,2064.51Z" transform="translate(-187.849 -2001.533)"/><g class="i" transform="translate(49.572 235.669)"><path d="M299.692,2248.033l.535-.044S300.036,2248,299.692,2248.033Z" transform="translate(-237.461 -2244.575)"/><path class="j" d="M297.21,2247.9c-14.28,1.139-45.489-.879-45.489-.879-9.17-.528-15.611-1.342-16.742-2.579a1.056,1.056,0,0,0,.008.106c.067,1.433.89,17.835,2.044,39.337a10.623,10.623,0,0,0,1.5-.173,11.685,11.685,0,0,0,7.557-5.37,25.954,25.954,0,0,0,2.939-6.136C259.672,2251.946,292.636,2248.308,297.21,2247.9Z" transform="translate(-234.979 -2244.439)"/></g><g transform="translate(93.591)"><g transform="translate(4.58 5.134)"><path class="k" d="M304.284,2018.982s-23.364,12.954-16.43-7.844C292.652,1996.748,320.219,2009.71,304.284,2018.982Z" transform="translate(-285.557 -2004.709)"/><path class="k" d="M300.857,2014.05s13.072,7.757,11.811,15.537c0,0,2.882-23.23-10.116-23.814s-18.03.67-16.876,25.236C285.677,2031.009,289.453,2011.468,300.857,2014.05Z" transform="translate(-285.517 -2004.746)"/></g><path class="k" d="M302.936,2005.683s-.656-7.239-7.832-6.213-10.25,5.125-11.275,9.225-2.05,7.176-3.075,7.176c0,0,3.075,3.075,4.1,2.05,0,0-2.661,7.372.719,13.423,0,0,1.33-9.324,6.456-10.349S302.936,2005.683,302.936,2005.683Z" transform="translate(-280.754 -1999.371)"/><path class="k" d="M303.139,2005.843s5.125-3.075,10.25,4.1l3.075,6.151s-1.025,1.025-3.075,0c0,0,.934,7.222-.045,11.3l-3.03-12.324Z" transform="translate(-281.613 -1999.594)"/></g><path class="h" d="M245.678,2215.51s-3.719-30.411,78.836-26.6-59.794,24.22-59.794,24.22Z" transform="translate(-185.817 -2006.627)"/><g transform="translate(0 56.178)"><g transform="translate(131.98 122.155)"><path class="l" d="M320.674,2200.972c.943-.4,10.689-7.325,16.191-8.271s13.775-1.826,16.573-2.865c3.292-1.22,4.247.05.484,1.835a54.918,54.918,0,0,1-8.633,3.192c-.553.066,3.021-.7,6.883-1.823,4.105-1.192,8.54-2.723,8.806-2,.514,1.41-11.252,5.593-13.352,5.988a53.453,53.453,0,0,0,5.53-1.115c2.485-.644,5.3-1.762,5.911-1.283.959.753-5.213,3.749-10.418,4.892-.078.177,1.642.311,7.733-1.461.613-.178,2.219-.03.255,1.071-4.133,2.32-5.74,3.622-11.939,4.3-6.046.664-12.833-.06-17.078,1.743Z" transform="translate(-320.674 -2184.99)"/><path class="l" d="M334.77,2193.282s4.306-5.3,9.512-6.522c3.095-.729,2.959-1.511,3.474-1.788,1.712-.919.254,2.5-2.341,3.558-2.109.855-3.026,4.645-4.265,5.531s-5.015,2.628-6.025,2.2S334.77,2193.282,334.77,2193.282Z" transform="translate(-321.207 -2184.817)"/></g><path class="f" d="M218.281,2078.931c-17.9,18.731-29.966,35.771-34.152,89.045-2.123,27.028,1.066,53.639,3.267,67.632a16.686,16.686,0,0,0,12.565,13.57c61.87,15.168,123.632-47.25,123.632-47.25,3.352-1.556-4.565-13.327-4.565-13.327-33.369,2.267-58.837,5.29-84.608,17.591.13-.073,22.291-50.917,24.753-64.659,6.443-36.034,34.363-68.967,25.435-82.193C281.523,2054.765,236.337,2060.036,218.281,2078.931Z" transform="translate(-183.43 -2057.79)"/></g><g transform="translate(57.021 235.488)"><path class="m" d="M347.036,2371.543l-.7-7.361-1.35-14.136-1.453-15.168L342.112,2320l-1.556-16.24L339.34,2291l-1.191-12.468-1.564-16.344-1.152-12.023-.246-2.6-.318-3.311" transform="translate(-246.259 -2244.25)"/><path class="m" d="M331.253,2371.669l-.516-5.344-1.334-13.81-1.437-14.866-1.406-14.58-1.6-16.629-1.223-12.659-1.223-12.651-1.771-18.273-1.056-10.991-.389-3.97-.032-.357" transform="translate(-245.661 -2244.376)"/><path class="m" d="M304.017,2247.537l.04.461.334,4.145.9,11.126,1.493,18.393,1.009,12.531,1.072,13.206,1.294,16.026,1.136,14.048,1.191,14.763,1.064,13.135.508,6.3" transform="translate(-245.076 -2244.376)"/><line class="m" x1="0.321" y2="31.951" transform="translate(44.49 3.164)"/><path class="m" d="M275.3,2371.669l-.119-6.6-.262-13.913-.238-13.238-.262-14-.278-14.962-.23-12.754-.294-15.906-.31-16.653-.175-9.538-.056-3.1-.056-2.915v-.27l-.008-.286" transform="translate(-243.887 -2244.376)"/><path class="m" d="M258.986,2247.438v.063l.016,2.4.056,11.8.008,1.771.1,17.733.079,15.565.064,12.825.079,14.97.072,14.231.064,12.952.071,13.747.032,6.17" transform="translate(-243.349 -2244.373)"/><path class="m" d="M245.1,2247.438l-.016.889-.278,14.525-.334,17.352-.008.6-.278,14.644-.254,12.913-.27,14.445-.262,13.453-.254,13.572-.262,13.611-.159,8.227" transform="translate(-242.725 -2244.373)"/></g><path class="m" d="M343.528,2262.431s-85.136,4.02-107.631,0" transform="translate(-185.443 -2009.46)"/><path class="m" d="M288.99,2280.608c29.788,6.747,58.294-3.919,58.294-3.919" transform="translate(-187.479 -2010.006)"/><path class="m" d="M287.31,2278.669s-26.883,7.554-50.5,1.175" transform="translate(-185.478 -2010.082)"/><path class="m" d="M348.885,2288.737s-21.467,11.24-56.335,5.51" transform="translate(-187.615 -2010.468)"/><path class="m" d="M350.708,2303.086s-33.4,10.2-56.441,4.949" transform="translate(-187.681 -2011.019)"/><path class="m" d="M352.54,2317.339s-17.013,13.337-56.459,7.355" transform="translate(-187.751 -2011.565)"/><path class="m" d="M354.642,2333.735s-25.941,13.554-57.217,4.31" transform="translate(-187.802 -2012.194)"/><path class="m" d="M356.612,2348.755s-18.374,13.042-57.582,5.466" transform="translate(-187.864 -2012.77)"/><path class="m" d="M358.652,2364.152s-25.36,13.257-58.4,2.546" transform="translate(-187.911 -2013.361)"/><path class="m" d="M362.105,2376.6c.349-.278.515-.437.515-.437" transform="translate(-190.283 -2013.821)"/><path class="m" d="M286.088,2293.675s-11.23,9.273-49.273,2.389" transform="translate(-185.478 -2010.658)"/><path class="m" d="M285.829,2308.188s-15.759,7.348-48.078,1.544" transform="translate(-185.514 -2011.214)"/><path class="m" d="M286.6,2324.3s-24.335,7.329-48.847,0" transform="translate(-185.514 -2011.832)"/><path class="m" d="M286.929,2337.654s-23.656,10.516-49.668,0" transform="translate(-185.495 -2012.345)"/><path class="m" d="M287.3,2352.32s-22.522,7.9-50.72,0" transform="translate(-185.469 -2012.907)"/><path class="m" d="M287.629,2366.406s-18.984,8.516-51.971,0" transform="translate(-185.433 -2013.447)"/><path class="h" d="M303.674,2078.938c-.584,1.914-4.711,8.643-3.436,14.627s28.977,65.684,40.391,73.4,32.024,16.484,32.024,16.484l-56.317-77.916-3.113-26.594S307.326,2066.974,303.674,2078.938Z" transform="translate(-187.901 -2002.218)"/><g transform="translate(117.84 51.204)"><path class="l" d="M309.1,2076.752s-3.439-6.025-2.69-11.408c.445-3.2-.346-3.359-.42-3.949-.242-1.959,2.468.68,2.513,3.524.038,2.312,3.292,4.573,3.676,6.072s.65,5.717-.13,6.515S309.1,2076.752,309.1,2076.752Z" transform="translate(-305.97 -2052.928)"/><path class="l" d="M311.365,2092.052c-.034-1.042-3.02-12.817-1.9-18.38s3.38-15.208,3.423-18.241c.051-3.567,1.606-4.006,1.916.215a74.494,74.494,0,0,1-.2,10.837,44.072,44.072,0,0,0,1.054-7.133c.138-2.382.7-1.44,1.5-1.218,1.469.41.826,4.432.429,6.568a20.634,20.634,0,0,0,1.067-5.238c.1-1.214.69-.9,1.411-.788s1.022.984.194,6.335c.139.139.36,1.484.916-4.939.056-.645,1.94-1.95,2.01.338.123,4.012.962,3.658-.668,9.783-1.589,5.973-4.765,12.14-4.614,16.824Z" transform="translate(-306.095 -2052.617)"/></g><path class="n" d="M322.343,2083.3a147.3,147.3,0,0,1,53.19,17.951c14.189,8.132,49.419,28.321,53.189,61.832.329,2.929,2.825,28.134-12.632,38.562-10.344,6.979-23.352,3.711-26.806,2.843-6.136-1.542-14.347-5-46.329-47.388-18.175-24.091-27.483-38.826-34.572-58.508-1.191-3.308-2.078-6.083-2.66-7.979Z" transform="translate(-188.121 -2002.589)"/></g></g></g></g></svg>