<svg xmlns="http://www.w3.org/2000/svg" width="239.804" height="384" viewBox="0 0 239.804 384"><defs><style>.a{fill:#bec9f2;opacity:0.49;}.b{fill:#c2934e;}.c{fill:#c39652;}.d{fill:#caa267;}.e{fill:#5e5586;}.f{fill:#5e5587;}.g{fill:#f1c759;}.h{opacity:0.3;}.i{opacity:0.5;}.j{fill:none;stroke:#8c7cc9;stroke-miterlimit:10;stroke-width:0.958px;}.k{fill:#8c7cc9;}.l{fill:#cea971;}.m{opacity:0.15;}.n{fill:#f0c659;}</style></defs><g transform="translate(-964.574 -10669.1)"><g transform="translate(964.574 10686.155)"><path class="a" d="M1027.719,10963.512c-34.805-42.421-52.208-63.631-58.022-83.667-19.426-66.937,17.847-162.785,87.161-184.57,3.607-1.133,53.7-16.1,86.951,11.395,27.84,23.023,15.719,52.535,31.372,138.547,16.758,92.087,40.8,114.053,22.817,146.089-17.029,30.331-59.084,47.157-92.587,40.762C1080.494,11027.311,1062.563,11005.979,1027.719,10963.512Z" transform="translate(-964.574 -10690.194)"/><circle class="a" cx="16.838" cy="16.838" r="16.838" transform="translate(22.229 269.088)"/><circle class="a" cx="7.062" cy="7.062" r="7.062" transform="translate(29.704 312.964)"/><circle class="a" cx="12.165" cy="12.165" r="12.165" transform="translate(205.771 57.142)"/><circle class="a" cx="4.952" cy="4.952" r="4.952" transform="translate(223.454 37.688)"/><circle class="a" cx="3.634" cy="3.634" r="3.634" transform="translate(10.269 253.592)"/><circle class="a" cx="3.634" cy="3.634" r="3.634" transform="translate(224.22 105.08)"/></g><g transform="translate(998.691 10669.1)"><path class="b" d="M1125.683,10709.477s-.743,9.609,3.609,16.441c2.924,4.589-2.787,4.233-9.03,3.242-4.794-.759-5.729-3.454-5.729-3.454a6.668,6.668,0,0,0,3.7-4.388c1-3.207.475-8.854-.035-11.842C1117.141,10703.257,1125.683,10709.477,1125.683,10709.477Z" transform="translate(-1027.405 -10676.302)"/><g transform="translate(45.454 165.084)"><path class="c" d="M1083.646,11008.467s10.854,95,6.961,96.7c-6.983,3.105-34.366,13.34-4.029,10.672,15.618.674,14.414-2.793,14.607-5.75.158-2.418-1.761-87.568-1.234-94.2.118-1.486.19-2.383.19-2.383Z" transform="translate(-1064.826 -10899.164)"/><path class="d" d="M1186.091,11088.858c-2.024.235-6.654,2.159-9.127,3.69-8.016-18.811-37.3-89.443-37.3-89.443l12.848-10.254S1177.872,11065.965,1186.091,11088.858Z" transform="translate(-1077.671 -10896.175)"/><path class="e" d="M1192.591,11111.773c-.614-1.243-11.408,3.411-11.706,4.954-.147.762-13.915,15.351-12.121,17.675.94,2.48,5.94,1.4,11.084.442a14.142,14.142,0,0,0,5.66-2.432c6.065-4.365,11.555-7.821,12.384-9.875C1198.615,11120.745,1193.8,11114.215,1192.591,11111.773Z" transform="translate(-1083.212 -10918.905)"/><path class="f" d="M1101.316,11123.748c.158-1.379-11.513.564-12.6,1.7s-18.041,6.059-17.556,11.84,27.406.766,29.332.6S1101,11126.453,1101.316,11123.748Z" transform="translate(-1064.552 -10921.147)"/><path class="g" d="M1068.641,10880.262a6.024,6.024,0,0,0,3.541,1.29c8.025-.5,42.677-2.777,61.359-5.409,6.591-.931,11.193-1.9,11.936-2.863a.686.686,0,0,1,0,.076c.036,1.039.424,12.934.876,28.529.892,30.788,7.694,74.426,12.5,87.443,1.037,2.811-42.317,2.013-42.317,2.013-2.739-31.622-4.333-87.4-6.478-89.729-2.609-2.833-2.39,46.328-3.391,87.565-16.658,5.851-43.841,5.385-43.675,3.614C1064.977,10971.758,1068.641,10880.262,1068.641,10880.262Z" transform="translate(-1062.99 -10873.279)"/><g class="h" transform="translate(37.364)"><path d="M1109.592,10880.969h-.389S1109.341,10880.967,1109.592,10880.969Z" transform="translate(-1109.203 -10874.752)"/><path class="i" d="M1109.684,10879.5c10.38-.031,32.8-3.354,32.8-3.354,6.591-.931,11.193-1.9,11.936-2.863a.672.672,0,0,1,0,.076c.036,1.039.424,12.934.876,28.529a7.627,7.627,0,0,1-1.095-.035,8.471,8.471,0,0,1-5.778-3.426,18.83,18.83,0,0,1-2.489-4.256C1137.033,10880.175,1113.012,10879.52,1109.684,10879.5Z" transform="translate(-1109.295 -10873.279)"/></g><g transform="translate(11.64 2.669)"><line class="j" x1="1.468" y2="115.066" transform="translate(0 2.943)"/><line class="j" x1="1.55" y2="113.072" transform="translate(10.942 4.329)"/><line class="j" x2="0.21" y2="112.137" transform="translate(23.084 3.452)"/><line class="j" x2="2.142" y2="23.054" transform="translate(33.285 2.608)"/><line class="j" x2="7.316" y2="113.821" transform="translate(44.608 1.671)"/><line class="j" x2="8.903" y2="114.649" transform="translate(54.346 0.793)"/><line class="j" x2="11.745" y2="115.077" transform="translate(63.922)"/></g><path class="j" d="M1069.369,10895.231s61.721-2.187,77.725-6.434" transform="translate(-1064.211 -10876.251)"/><path class="j" d="M1111.178,10908.321c-21.108,6.651-42.332.653-42.332.653" transform="translate(-1064.111 -10879.99)"/><path class="j" d="M1120.767,10906.029s19.865,3.848,36.536-2.17" transform="translate(-1074.053 -10879.135)"/><path class="j" d="M1068.394,10919.585s16.175,6.833,41.012.611" transform="translate(-1064.025 -10882.146)"/><path class="j" d="M1067.845,10932.039s24.734,5.367,41.054.2" transform="translate(-1063.92 -10884.53)"/><path class="j" d="M1067.284,10944.412s13.083,8.614,41.212,1.936" transform="translate(-1063.812 -10886.899)"/><path class="j" d="M1066.618,10958.574a59.981,59.981,0,0,0,41.578-.309" transform="translate(-1063.685 -10889.552)"/><path class="j" d="M1065.983,10971.688s14.048,8.319,41.908.5" transform="translate(-1063.563 -10892.122)"/><path class="j" d="M1065.3,10984.668s19.106,8.059,42.329-1.65" transform="translate(-1063.432 -10894.292)"/><path class="j" d="M1064.725,10995.3s11.665,9.5,42.638-.822" transform="translate(-1063.322 -10896.486)"/><path class="j" d="M1064.015,11007.082s18.233,7.759,43.038-1.148" transform="translate(-1063.186 -10898.68)"/><path class="j" d="M1122.925,10919.053s8.664,6.025,35.725-1.221" transform="translate(-1074.466 -10881.811)"/><path class="j" d="M1124.22,10931.369s11.82,4.364,34.813-1.759" transform="translate(-1074.714 -10884.065)"/><path class="j" d="M1124.679,10944.985s18.011,3.838,35.275-2.919" transform="translate(-1074.802 -10886.45)"/><path class="j" d="M1125.315,10956.474s17.712,6.181,35.869-2.969" transform="translate(-1074.924 -10888.641)"/><path class="j" d="M1126,10969.085s16.736,4.36,36.627-3.032" transform="translate(-1075.055 -10891.043)"/><path class="j" d="M1126.68,10981.192s14.218,5.017,37.531-3.105" transform="translate(-1075.185 -10893.349)"/><path class="j" d="M1127.566,10992.092s16.971,7.04,38.433-2.284" transform="translate(-1075.355 -10895.592)"/><path class="j" d="M1128.189,11005.379a75.5,75.5,0,0,0,40-2.846" transform="translate(-1075.474 -10898.028)"/></g><g transform="translate(0 47.019)"><path class="k" d="M1052.3,10781.936c-1.316,2.057-6.689,60.471,0,72.588,6.727,12.188,62.77,18.7,80.39,9.326,17.879-9.514,24.765-18.662,27.155-35.725,2.395-17.1-3.188-43.48-3.188-43.48l-76.41-50.5Z" transform="translate(-1014.859 -10728.574)"/><g transform="translate(37.66 120.621)"><path class="l" d="M1070.609,10876.646a44.643,44.643,0,0,1,4.686,2.724,13.937,13.937,0,0,1,2.409,3.538c.446.945-1.405.086-2.819-1.987-1.373-.751-2.651-1.6-2.965-1.29s1.848.875,3.394,2.349c1.514,1.941,2.966,3.847,2.446,3.884s-1.089.059-3.239-2.754c-1.519-.7-3-1.525-3.119-1.2s1.768.921,3.262,2.219c2.093,2.145,2.58,2.928,3.354,3.683-.417.466-1.818.043-4.385-2.523-1.386-.861-3.452-1.194-3.523-.763.064.458,1.5.711,2.484,1.295a11.565,11.565,0,0,1,2.7,2.165c.291.372-.015,1.017-3.412-.888a3.481,3.481,0,0,0-2.461-.152l-1.761-4.823Z" transform="translate(-1056.09 -10876.479)"/><path class="d" d="M1058.206,10878.48s8.282-1.706,9.018-2.011,2.561,1.874,1.973,2.28a4.028,4.028,0,0,0-1.323,2.423,1.9,1.9,0,0,1-.374,1.721c-.5.582-1.239,1.328-.917,2.2s1.072,1.742.1,1.812a17.445,17.445,0,0,0-6.057,2.217c-2.083,1.3-7.273-4.356-7.273-4.356Z" transform="translate(-1053.35 -10876.44)"/></g><g transform="translate(110.193 121.073)"><path class="l" d="M1155.138,10877.188a44.013,44.013,0,0,0-5.4-.148,13.648,13.648,0,0,0-3.88,1.748c-.868.572,1.155.814,3.43-.207,1.56.082,3.087.033,3.2.461s-2.028-.227-4.106.213c-2.295.859-4.516,1.717-4.091,2.023s.9.625,4.184-.641c1.655.209,3.345.281,3.283.619s-1.983-.148-3.928.172c-2.892.727-3.712,1.137-4.761,1.371.116.619,1.528,1,5.043.162,1.626,0,3.562.8,3.4,1.207-.291.357-1.65-.187-2.788-.205a11.4,11.4,0,0,0-3.419.424c-.441.162-.512.875,3.368,1.043a3.51,3.51,0,0,1,2.179,1.166l3.99-3.186Z" transform="translate(-1143.06 -10876.999)"/><path class="d" d="M1164.192,10883.926s-6.186-5.822-6.657-6.471-3.152.246-2.859.9a4.052,4.052,0,0,1-.12,2.764,1.9,1.9,0,0,0-.569,1.666c.129.762.372,1.787-.35,2.357s-1.814.92-1.017,1.494a17.714,17.714,0,0,1,4.024,5.088c1.105,2.209,8.452.119,8.452.119Z" transform="translate(-1144.837 -10877.043)"/></g><path class="k" d="M1219.748,10842.251c-9.478,16.166-22.167,32.77-46.956,31.972-7.442-.484-11.378-3.84-13.323-7.632a14.6,14.6,0,0,1-1-2.5c-.032-.11-.065-.221-.1-.332a16.008,16.008,0,0,1-.408-1.948,14.213,14.213,0,0,1,.3-6.058l0-.011c.036-.105.072-.205.11-.3.014-.036.03-.074.049-.116.123-.291.315-.707.567-1.23,1.113-2.3,3.4-6.65,6.341-11.456,5.251-8.587,5.086-21.753,2.813-28.526-.246-.734-1.608-1.471-3.769-2.288-.646-.243-1.364-.5-2.147-.764-10.82-3.633-23.447-26.5-31.275-45.557-1.591-3.878-2.983-7.6-4.127-10.975a96.12,96.12,0,0,1-2.728-9.369c-.724-3.21-.9-5.463-.411-6.3a.657.657,0,0,1,.635-.368,14.207,14.207,0,0,0,4.185-.56c3.426-.887,7.245-3.523,9.981-5.709l0,0c2.222-1.776,3.723-3.253,3.723-3.253h.011c.134,0,1.374.058,3.443.324a72.538,72.538,0,0,1,7.514,1.4c1.1.259,2.252.558,3.46.9.52.146,1.049.3,1.586.468a79.7,79.7,0,0,1,41.193,29.083C1222.831,10793,1229.334,10825.885,1219.748,10842.251Z" transform="translate(-1029.106 -10727.581)"/><path class="m" d="M1217.386,10833.56a1.592,1.592,0,0,0-.167.054C1217.29,10833.591,1217.346,10833.571,1217.386,10833.56Z" transform="translate(-1047.067 -10747.608)"/><path class="k" d="M1136.134,10731.442s-.079.1-.235.283c-.868,1.044-4.092,4.925-8.8,10.658-3.873,4.726-8.751,10.709-14.144,17.405l0,0c-1.408,1.748-2.854,3.549-4.326,5.386-25.464,31.8-58.539,74.886-55.444,80.6a9.97,9.97,0,0,1,1.1,3.084,8.165,8.165,0,0,1,.109,1.6c-.1,3.308-2.229,5.956-4.256,7.737-.006.006-.011.009-.016.014a.771.771,0,0,1-.088.078,20.658,20.658,0,0,1-1.72,1.332,17.877,17.877,0,0,1-1.849,1.139c-26.988-4.249-39.686-15.739-39.686-46.658s17.656-83.246,79.381-86.839a10.261,10.261,0,0,1,4.686,1.258c3.161,1.492,6.563,3.858,9.3,4.528a5.844,5.844,0,0,0,1.277.184c5.919.136,10.208-3.13,14.561-4.274l.014-.006.024-.008a10.056,10.056,0,0,1,3.87-.308h.011q1.714.226,3.284.452c1.988.287,3.79.578,5.377.853.825.144,1.591.285,2.3.415,1.093.205,2.029.391,2.8.548.329.067.627.131.893.187C1135.581,10731.31,1136.134,10731.442,1136.134,10731.442Z" transform="translate(-1006.771 -10727.255)"/></g><ellipse class="d" cx="11.269" cy="15.376" rx="11.269" ry="15.376" transform="translate(83.041 8.156)"/><g transform="translate(80.486)"><g transform="translate(2.379 4.287)"><path class="n" d="M1117.272,10686.32s19.51,10.818,13.719-6.55C1126.985,10667.754,1103.966,10678.578,1117.272,10686.32Z" transform="translate(-1110.01 -10674.401)"/><path class="n" d="M1119.35,10682.354s-10.916,6.478-9.863,12.975c0,0-2.407-19.4,8.447-19.886s15.056.56,14.093,21.073C1132.026,10696.517,1128.873,10680.2,1119.35,10682.354Z" transform="translate(-1109.26 -10674.585)"/></g><path class="n" d="M1119.4,10674.371s.548-6.045,6.54-5.188,8.56,4.279,9.416,7.7,1.712,5.991,2.568,5.991c0,0-2.568,2.568-3.424,1.712,0,0,2.222,6.156-.6,11.21,0,0-1.111-7.786-5.391-8.642S1119.4,10674.371,1119.4,10674.371Z" transform="translate(-1108.823 -10669.1)"/><path class="n" d="M1117.446,10675.424s-4.28-2.567-8.56,3.425l-2.568,5.136s.856.856,2.568,0c0,0-.779,6.031.038,9.435l2.53-10.291Z" transform="translate(-1106.318 -10670.206)"/></g><path class="k" d="M1226.689,10832.379l0,.006,0,.006c-8.713,23.653-54.3-66.792-54.3-66.792l-19.426-23.443-6.552-7.905-1.526-1.839-1.529-1.843-1.52-1.836.006,0,.014-.006.024-.008a51.066,51.066,0,0,1,17.232-2.65,52.439,52.439,0,0,1,6.39.459,49.552,49.552,0,0,1,26.1,11.848C1221.865,10764.438,1235.391,10808.72,1226.689,10832.379Z" transform="translate(-1032.632 -10680.008)"/><path class="m" d="M1155.359,10726.065a15.971,15.971,0,0,1-3.511,3.047,7.155,7.155,0,0,1-1.024.534c-.049.022-.1.044-.154.066a46.817,46.817,0,0,1-9.537,2.7,25.558,25.558,0,0,1-4.372.418c-.12,0-.239,0-.353-.006-5.2-.158-8.713,2.009-11.923,2.163a1.92,1.92,0,0,1-2.232-2.166,5.844,5.844,0,0,0,1.277.184c5.919.136,10.208-3.13,14.561-4.274l.014-.006.024-.008A51.067,51.067,0,0,1,1155.359,10726.065Z" transform="translate(-1028.883 -10680.008)"/><path class="m" d="M1171.279,10859.473s15.9-16.926,8.853-26.053-25.625-32.605-26.224-41.854c0,0,2.76,16.727,9.523,26.467S1171.279,10859.473,1171.279,10859.473Z" transform="translate(-1034.944 -10692.549)"/><path class="m" d="M1061.3,10855.625s-7.582-5.734-7.937-10.621,7.037-18.2,7.037-18.2-4.436,12.635-2.435,17.273A68.641,68.641,0,0,1,1061.3,10855.625Z" transform="translate(-1015.69 -10699.296)"/></g></g></svg>