<svg xmlns="http://www.w3.org/2000/svg" width="612.773" height="320.036" viewBox="0 0 612.773 320.036"><defs><style>.a,.c{fill:#d8a35d;}.a{fill-rule:evenodd;}.b{fill:#d19442;}.d{fill:#947dce;}.e{opacity:0.15;}.f{fill:#ffc84f;}.g{fill:#7b7b7b;opacity:0.29;}.h{fill:#e8efed;}.i{fill:#eaf1f1;}.j{fill:#f8fdfe;}.k,.m,.o{fill:none;}.k{stroke:#9e9e9e;stroke-width:1.814px;opacity:0.81;}.k,.m{stroke-miterlimit:10;}.l{fill:#bdbdbd;}.m{stroke:#40a6b1;stroke-width:2.418px;}.n{stroke:none;}</style></defs><g transform="translate(-321.162 -368.209)"><path class="a" d="M642.764,439.952c.971-.8,10.048-12.422,16.188-15.455s15.552-6.948,18.483-9.153c3.448-2.594,5-1.412,1.2,2.016-2.475,2.228-7.755,6.234-9.047,6.791-.627.27,3.308-1.883,7.459-4.556,4.414-2.841,9.1-6.2,9.659-5.426,1.087,1.5-11.3,10.556-13.634,11.754a65.143,65.143,0,0,0,6.114-3.242c2.7-1.628,5.625-3.936,6.5-3.578,1.384.566-4.84,6.271-10.562,9.434-.031.238,2.035-.2,8.583-4.418.658-.424,2.594-.8.664,1.187-4.061,4.193-5.5,6.3-12.55,9.258-6.873,2.885-15.091,4.376-19.459,7.993Z"/><path class="a" d="M656.123,426.307s3.247-7.8,8.941-11.06c3.385-1.939,2.959-2.825,3.469-3.333,1.7-1.687,1.154,2.895-1.533,5.047-2.183,1.749-1.966,6.578-3.118,8.061s-4.991,4.866-6.325,4.7S656.123,426.307,656.123,426.307Z"/><path class="b" d="M467.567,425.547s1.371,15.516-8.07,24.1,21.758,0,21.758,0-5.8-14.861-4.5-24.1S467.567,425.547,467.567,425.547Z"/><ellipse class="c" cx="16.507" cy="22.829" rx="16.507" ry="22.829" transform="translate(456.04 385.906)"/><path class="d" d="M606.966,524.2c-24.987-52.984-69.584-77.156-98.057-83.574-12.324-2.783-21.627-2.237-25.025.737a18.314,18.314,0,0,1-11.522,4.537,24.663,24.663,0,0,1-6.47-.6,31.957,31.957,0,0,1-6.858-2.364c-1.053-.5-1.667-.852-1.667-.852a66.046,66.046,0,0,0-17.428,1.055c-64.418,12.785-75.627,122.274-75.05,131.691.351,5.605,6.068,31,13.214,53.569,5.856,18.529,12.689,35.165,18.3,37.466,12.463,5.083,106.558,12.061,125.9,2.707.451-.343.94-.712,1.4-1.119,7.26-5.985,15.133-17.8,19.308-28.874,0-.013,11.121-31.786,13.39-38.255.026-.063.038-.114.063-.165.075-.254.163-.495.251-.724.025-.089.063-.165.088-.254"/><path class="e" d="M556.812,599.185c-.025.089-.062.165-.088.254-.087.229-.175.47-.25.724-.025.051-.038.1-.063.165-2.269,6.469-13.39,38.242-13.39,38.255-4.175,11.069-12.049,22.889-19.308,28.874,4.927-18.084,20.286-70.509,19.7-91.632C546.343,596.185,556.812,599.172,556.812,599.185Z"/><path class="e" d="M406.174,523.445s31.183,94.357-55.333,134.43l-1.758,1.185.446-22.193S390.3,579.2,390.45,577.719,406.174,523.445,406.174,523.445Z"/><path class="e" d="M471.271,449.65c-.05,1.513.74,2.5,3.134,2.173,7.473-1.029,15.911-.813,22.042,2.034a5.147,5.147,0,0,0,5.04-.216c3.924-2.326,6.356-9.265,7.322-12.341a2.143,2.143,0,0,0,.1-.673c-12.324-2.783-21.627-2.237-25.025.737a18.314,18.314,0,0,1-11.522,4.537A10.408,10.408,0,0,0,471.271,449.65Z"/><path class="f" d="M478.75,395.631s-28.577,16.06-20.1-9.725C464.523,368.065,498.239,384.135,478.75,395.631Z"/><path class="f" d="M474.607,389.471s15.989,9.616,14.446,19.263c0,0,3.526-28.8-12.372-29.525s-22.053.831-20.641,31.287C456.04,410.5,460.659,386.269,474.607,389.471Z"/><path class="f" d="M477.374,379.4s-.8-8.974-9.579-7.7S455.257,378.048,454,383.131s-2.507,8.9-3.761,8.9c0,0,3.761,3.813,5.015,2.542,0,0-3.254,9.14.88,16.644,0,0,1.627-11.56,7.9-12.831S477.374,379.4,477.374,379.4Z"/><path class="f" d="M476.571,379.318s6.269-3.812,12.538,5.084l3.761,7.625s-1.254,1.271-3.761,0c0,0,1.142,8.955-.056,14.01l-3.706-15.28Z"/><path class="e" d="M378.674,625.435s16.128-34.286,98.818,24.647-77.608-14.459-77.608-14.459Z"/><path class="d" d="M556.411,600.328s76.318,32.82,94.835-37.96-.744-87.756,6.786-122.21l-12.276-5.992s-46.2,28.876-62.021,73.455S556.411,600.328,556.411,600.328Z"/><path class="a" d="M478.794,678.81c1.188-.4,13.732-8.019,20.533-8.655s16.971-.924,20.482-1.936c4.13-1.19,5.173.473.415,2.314-3.093,1.2-9.429,3.051-10.832,3.109-.68.028,3.751-.575,8.567-1.587,5.12-1.076,10.673-2.539,10.927-1.614.493,1.792-14.254,5.823-16.853,6.108a64.465,64.465,0,0,0,6.85-.842c3.091-.556,6.635-1.665,7.331-1.015,1.1,1.024-6.715,4.131-13.17,5.038-.113.212,1.972.543,9.569-1.056.763-.161,2.707.177.207,1.349-5.261,2.466-7.344,3.92-14.969,4.161-7.435.235-15.642-1.316-20.99.5Z"/><path class="a" d="M496.05,670.834s5.757-6.129,12.221-7.14c3.843-.6,3.753-1.582,4.408-1.874,2.174-.971.069,3.121-3.2,4.171-2.652.853-4.134,5.448-5.729,6.423s-6.366,2.762-7.556,2.13S496.05,670.834,496.05,670.834Z"/><path class="d" d="M375.016,459.385C351.4,480.8,335.059,500.7,324.865,566.141c-5.172,33.2-3.825,66.405-2.478,83.914a20.637,20.637,0,0,0,14.025,17.989c73.993,24.74,152.974,19.8,152.974,19.8,4.237-1.6-.333-17.139-.333-17.139-37.856-52.077-91.959-43.321-106.515-52.456-4.54-26.995,32.046-60.778,36.36-77.525,11.3-43.915,48.489-81.918,38.866-99.13C454.44,435.639,398.837,437.78,375.016,459.385Z"/><path class="g" d="M825.374,551.928l1.771,8.1,106.79-30.873Z"/><path class="h" d="M823.35,556.736,785.392,400.854,895.218,379.6l38.718,149.556Z"/><path class="g" d="M798.213,525.779l-.675,8.1,109.32,8.941Z"/><path class="i" d="M909.136,380.862c.759,0,18.22,3.037,18.22,3.037L908.377,543.83,795.008,528.9s21.256-151.581,21-150.822S909.136,380.862,909.136,380.862Z"/><path class="j" d="M801.587,368.209H915.715l.506,160.691-110.079-1.012Z"/><path class="g" d="M806.9,527.895v1.258l109.32-.253Z"/><g class="k" transform="translate(819.554 401.613)"><rect class="n" width="19.907" height="20.582"/><rect class="o" x="0.907" y="0.907" width="18.094" height="18.768"/></g><g class="k" transform="translate(819.554 433.16)"><rect class="n" width="19.907" height="20.582"/><rect class="o" x="0.907" y="0.907" width="18.094" height="18.768"/></g><g class="k" transform="translate(819.554 464.708)"><rect class="n" width="19.907" height="20.582"/><rect class="o" x="0.907" y="0.907" width="18.094" height="18.768"/></g><rect class="l" width="52.973" height="3.374" transform="translate(850.596 404.312)"/><rect class="l" width="52.973" height="3.374" transform="translate(850.596 410.554)"/><rect class="l" width="40.152" height="3.374" transform="translate(850.596 416.796)"/><rect class="l" width="52.973" height="3.374" transform="translate(850.596 435.86)"/><rect class="l" width="52.973" height="3.374" transform="translate(850.596 442.102)"/><rect class="l" width="40.152" height="3.374" transform="translate(850.596 448.344)"/><rect class="l" width="52.973" height="3.374" transform="translate(850.596 467.407)"/><rect class="l" width="52.973" height="3.374" transform="translate(850.596 473.649)"/><rect class="l" width="40.152" height="3.374" transform="translate(850.596 479.891)"/><path class="m" d="M825.121,408.867l4.471,4.471,11.3-11.3"/><path class="m" d="M825.121,441.005l4.471,4.471,11.3-11.3"/><path class="m" d="M825.121,473.143l4.471,4.471,11.3-11.3"/></g></svg>