<svg xmlns="http://www.w3.org/2000/svg" width="840" height="170" viewBox="0 0 840 170"><g transform="translate(-295 -378)"><g transform="translate(-13)"><g transform="translate(193 13)"><g transform="translate(285.018 335.637)"><path d="M364.478,93.183s-28.2-5.11-28.2-28.955,25.548-31.6,40.309-23.845,19.492,30.09,11.733,43.148S364.478,93.183,364.478,93.183Z" fill="none" stroke="#fff" stroke-miterlimit="10" stroke-width="0.599"/><path d="M367.655,78.489l8.75-12.654-18.442,4.173,15.211-13.731-27.789,8.885L361.673,50.49" fill="none" stroke="#fff" stroke-miterlimit="10" stroke-width="2"/></g></g><g transform="translate(230 16)"><path d="M60.383,63.319s5.109-28.2,28.954-28.2,31.6,25.548,23.845,40.309S83.092,94.923,70.034,87.164,60.383,63.319,60.383,63.319Z" transform="translate(285.018 335.637)" fill="none" stroke="#fff" stroke-miterlimit="10" stroke-width="0.599"/><g style="fill:#fff" transform="translate(285.018 335.637)"><path d="M88.752,62.664l.857,15.9H86.456l.857-15.9Z"/><path d="M78.759,65.377l9.274-16.06,9.274,16.06Z"/></g></g><g transform="translate(289 16)"><path d="M179.194,62.659s-5.109,28.2-28.954,28.2-31.6-25.549-23.845-40.31,30.09-19.492,43.148-11.733S179.194,62.659,179.194,62.659Z" transform="translate(285.018 335.637)" fill="none" stroke="#fff" stroke-miterlimit="10" stroke-width="0.599"/><g style="fill:#fff" transform="translate(285.018 335.637)"><path d="M150.825,65.216l-.857-15.9h3.152l-.857,15.9Z"/><path d="M160.818,62.5l-9.274,16.06L142.271,62.5Z"/><g transform="matrix(0.899, 0.438, -0.438, 0.899, 166.868, -46.518)"><path d="M154.61,62.5l-6.17,10.685L142.271,62.5Z"/></g></g></g><g transform="translate(-28 16)"><path d="M223.64,34.853s28.2,5.109,28.2,28.954-25.548,31.6-40.309,23.845S192.037,57.562,199.8,44.5,223.64,34.853,223.64,34.853Z" transform="translate(285.018 335.637)" fill="none" stroke="#fff" stroke-miterlimit="10" stroke-width="0.599"/><g style="fill:#fff" transform="translate(285.018 335.637)"><path d="M225.247,63.709l-15.9.857V61.413l15.9.857Z"/><path d="M222.533,53.716l16.06,9.274-16.06,9.274Z"/></g></g><g transform="translate(-213 17)"><path d="M292.566,89.063s-28.2-5.11-28.2-28.955,25.548-31.6,40.309-23.844,19.492,30.089,11.733,43.147S292.566,89.063,292.566,89.063Z" transform="translate(285.018 335.637)" fill="none" stroke="#fff" stroke-miterlimit="10" stroke-width="0.599"/><g style="fill:#fff" transform="translate(286.018 333.637)"><path d="M290.96,65.751l15.9-.857v3.152l-15.9-.857Z"/><path d="M293.674,75.744l-16.06-9.274,16.06-9.274Z"/></g></g></g><text transform="translate(351 468)" fill="#fff" font-size="16" font-family="SegoeUI, Segoe UI"><tspan x="-33.695" y="0">გადადი </tspan><tspan x="-55.293" y="25">ერთი უჯრით</tspan><tspan x="-38.75" y="50">მარჯვნივ</tspan></text><text transform="translate(469 468)" fill="#fff" font-size="16" font-family="SegoeUI, Segoe UI"><tspan x="-31.504" y="0">გადადი</tspan><tspan x="-57.484" y="25">ერთი უჯრით </tspan><tspan x="-38.035" y="50">მარცხნივ</tspan></text><text transform="translate(590 468)" fill="#fff" font-size="16" font-family="SegoeUI, Segoe UI"><tspan x="-33.695" y="0">გადადი </tspan><tspan x="-57.484" y="25">ერთი უჯრით </tspan><tspan x="-27.047" y="50">მაღლა</tspan></text><text transform="translate(711 468)" fill="#fff" font-size="16" font-family="SegoeUI, Segoe UI"><tspan x="-33.695" y="0">გადადი </tspan><tspan x="-57.484" y="25">ერთი უჯრით </tspan><tspan x="-28.023" y="50">დაბლა</tspan></text><text transform="translate(838 468)" fill="#fff" font-size="16" font-family="SegoeUI, Segoe UI"><tspan x="-54.25" y="0">უჯრა ფერით</tspan><tspan x="-26.637" y="25">შეავსე</tspan></text><g transform="translate(20)"><g transform="translate(953 384)" fill="#fff" stroke="#707070" stroke-width="1"><rect width="162" height="164" stroke="none"/><rect x="0.5" y="0.5" width="161" height="163" fill="none"/></g><rect width="59" height="55" transform="translate(1005 492)"/><rect width="59" height="55" transform="translate(1005 384)"/><rect width="54" height="56" transform="translate(1061 436)"/><rect width="55" height="56" transform="translate(953 436)"/><path d="M6929.25,5934.25,6936,5925l4.5,11.25,11.25,3.25-9.5,6.75V5958l-9.25-6.75-11.75,4.75,3.5-11-7.5-10.75Z" transform="translate(-5954 -5531)" fill="#fff" stroke="#707070" stroke-width="2"/></g><text transform="translate(932 400)" fill="#fff" font-size="20" font-family="SegoeUI, Segoe UI"><tspan x="-37.974" y="0">იწყებთ</tspan><tspan x="-35.127" y="32">აქედან</tspan></text></g></svg>