<svg xmlns="http://www.w3.org/2000/svg" xmlns:xlink="http://www.w3.org/1999/xlink" width="319.332" height="416.947" viewBox="0 0 319.332 416.947"><defs><style>.a{fill:#eadff1;}.b{fill:#e4b48d;}.c{fill:#b78a6d;}.d{fill:#f6d6b6;}.e{fill:#f7f7f7;}.f{fill:#162d45;}.g{fill:none;stroke:#162d45;stroke-miterlimit:10;}.h{opacity:0.06;fill:url(#a);}.i{fill:#947dce;}</style><linearGradient id="a" x1="0.074" y1="-0.807" x2="-0.553" y2="-1.533" gradientUnits="objectBoundingBox"><stop offset="0" stop-color="#fff"/><stop offset="1" stop-color="#ebeaea" stop-opacity="0.2"/></linearGradient></defs><g transform="translate(-1029.931 -355.289)"><path class="a" d="M1070.07,505.083s-5.978,24.626-28.4,55.065-8.967,104.8,8.967,130.818,157.237,44.614,187.716,0,66.349-82.4,91.755-104.4,34.373-183.716-29.891-211.6S1105.938,410.285,1070.07,505.083Z" transform="translate(0 2.48)"/><path class="b" d="M1105.45,470.714l-27.2,22.457s-5.287,15.069,11.164,19.085,19.206-6.174,19.206-6.174Z" transform="translate(9.029 21.938)"/><path class="c" d="M1122.374,580.311s17.163-5.013,20.33-15.1-21.743-4.653-21.743-4.653l-7.938,10.884Z" transform="translate(15.793 38.736)"/><path class="b" d="M1107.13,568.088c-16.56,14.253-23.677-5.986-23.677-5.986s.056-.212.157-.613v-.012c.583-2.262,2.674-10.333,5.086-18.128,1.183-3.787,2.435-7.5,3.62-10.462,4.082-10.131,12.16-12.447,12.16-12.447S1123.679,553.824,1107.13,568.088Z" transform="translate(10.172 31.389)"/><path class="b" d="M1118.949,614.162c-11.673,8.813-16.155-3.013-16.155-3.013s-.012-.3-.036-.847c-.1-2.911-.459-12.872-.588-22.286a168.654,168.654,0,0,1,.327-17.425c1-7.938,12.771-11.1,12.771-11.1,6.87,2.612,12.849,18.49,12.849,18.49C1130.142,593.026,1130.624,605.338,1118.949,614.162Z" transform="translate(13.72 38.811)"/><path class="d" d="M1109.426,603.6a19.949,19.949,0,0,1-6.676,2.149c-.1-2.911-.459-12.872-.588-22.286,2.2.129,4.9.706,6.517,2.525C1111.771,589.486,1112.636,601.48,1109.426,603.6Z" transform="translate(13.728 43.367)"/><path class="d" d="M1089.9,552.735a26.678,26.678,0,0,0-6.312,5.083c.583-2.262,2.674-10.333,5.086-18.128A20.072,20.072,0,0,1,1089.9,552.735Z" transform="translate(10.198 35.048)"/><rect class="e" width="121.553" height="249.581" rx="18.977" transform="matrix(0.999, 0.042, -0.042, 0.999, 1120.477, 355.289)"/><rect class="f" width="191.124" height="105.38" transform="matrix(0.042, -0.999, 0.999, 0.042, 1119.47, 571.804)"/><circle class="g" cx="11.458" cy="11.458" r="11.458" transform="translate(1159.934 579.652)"/><path class="h" d="M1198.886,380.4l-89.878,78.658,3.46-82.292Z" transform="translate(15.03 4.082)"/><path class="b" d="M1284.247,734.218s-36.435,4.794-45.556,16.035c-5.377,6.647-16.983,6.766-26.994,1.784-6.931-3.437-13.1-9.342-15.892-17.213-6.838-19.239-17.74-52.6-24.65-62.2a109.122,109.122,0,0,1-13.478-27.034c-4.1-12.024-6.85-26.612-4.9-41.883,3.963-31.076,4.716-48.995-7.8-67.472,0,0-9.392-21.667-10.237-25.36-.775-3.4-1.833-13.632,5.245-19.064a15.022,15.022,0,0,1,1.934-1.24c8.409-4.531,19.842-1.382,27.861,4.8q1.109.85,2.1,1.767c8.007,7.317,12.351,6.844,15.265,8.622s13.971,23.529,15.758,44.21c0,0,1.579,3.533,4.151-.992.193-.337.388-.71.584-1.131,2.458-5.209,5.862-16.215,6.111-29.485a77.332,77.332,0,0,0-.219-7.835c-1.288-16.669,2.5-67.372,2.5-67.372s15.253.976,23.814,18.619,18.836,50.318,24.553,56.551,11.934,16.45,10.024,46.291-6.778,84.141-4.024,96.561S1284.247,734.218,1284.247,734.218Z" transform="translate(19.815 16.701)"/><path class="d" d="M1169.076,488.146a28.65,28.65,0,0,0-22.529,12.584c-9.594-2.691-9.809-10.049-7.265-16.148a15.056,15.056,0,0,1,1.934-1.24C1149.624,478.811,1161.057,481.96,1169.076,488.146Z" transform="translate(20.522 23.931)"/><path class="c" d="M1198.836,535.959c-1.524,1.4-2.624,1.5-3.414,1.012.193-.337.388-.71.584-1.131,2.458-5.209,5.862-16.215,6.111-29.485,1.741,5.04,3.739,10.794,4.7,13.645C1208.735,525.739,1203.16,531.984,1198.836,535.959Z" transform="translate(31.454 28.712)"/><path class="c" d="M1147.03,592.892l.212,2.046A6.164,6.164,0,0,1,1147.03,592.892Z" transform="translate(22.25 45.16)"/><path class="c" d="M1207.945,719.706c-6.931-3.437-13.1-9.342-15.892-17.213-6.838-19.239-17.74-52.6-24.65-62.2a109.122,109.122,0,0,1-13.478-27.034,188.435,188.435,0,0,0,28.116,42.609C1199.343,675.88,1205.675,701.482,1207.945,719.706Z" transform="translate(23.567 49.031)"/><g transform="translate(1316.735 638.585)"><path class="i" d="M1280.861,604.506c1.342,4.744.323,7.859-2.767,8.734-2.725.771-5.293-1.26-6.643-5.862-1.323-4.678-.035-7.825,2.8-8.626C1277.19,597.919,1279.6,600.065,1280.861,604.506Zm-7.515,2.359c1.027,3.627,2.725,5.371,4.443,4.885,1.932-.546,2.217-3.061,1.208-6.624-.971-3.433-2.488-5.437-4.441-4.884C1272.9,600.709,1272.271,603.066,1273.346,606.865Z" transform="translate(-1270.93 -592.345)"/><path class="i" d="M1283.434,598.28l-.043.012-2.055,2-.771-1.335,2.586-2.493,1.609-.456,3.948,13.95-1.824.517Z" transform="translate(-1269.099 -592.834)"/><path class="i" d="M1299.363,599.271c1.341,4.742.323,7.859-2.768,8.733-2.725.772-5.293-1.259-6.642-5.862-1.323-4.678-.036-7.823,2.8-8.626C1295.692,592.684,1298.105,594.829,1299.363,599.271Zm-7.515,2.359c1.027,3.626,2.725,5.371,4.443,4.885,1.932-.546,2.216-3.061,1.208-6.624-.971-3.433-2.488-5.437-4.441-4.885C1291.4,595.474,1290.773,597.831,1291.848,601.63Z" transform="translate(-1267.413 -593.34)"/></g><g transform="translate(1059.896 667.537)"><path class="i" d="M1065.358,623.9c1.289,4.926.174,8.123-3.036,8.962-2.83.741-5.441-1.408-6.739-6.188-1.272-4.858.123-8.082,3.064-8.852C1061.7,617.027,1064.15,619.291,1065.358,623.9Zm-7.808,2.283c.985,3.767,2.7,5.6,4.488,5.136,2.005-.526,2.351-3.117,1.383-6.816-.933-3.567-2.46-5.667-4.488-5.136C1057.216,619.82,1056.517,622.243,1057.55,626.186Z" transform="translate(-1055.111 -617.668)"/></g><g transform="translate(1274.639 449.018)"><path class="i" d="M1241.309,435.553l-.039-.02-2.831.051.345-1.485,3.551-.05,1.47.759-6.582,12.732-1.665-.86Z" transform="translate(-1235.557 -434.049)"/></g></g></svg>