<svg xmlns="http://www.w3.org/2000/svg" width="827.686" height="254.442" viewBox="0 0 827.686 254.442"><g transform="translate(-425.445 -502.383)"><path d="M967.005,628.13A100.255,100.255,0,0,1,931.9,689.362c-36.323,29.722-96.112,32.891-132.661-5.1-26.532-27.568-30.269-65.842-19.625-97.9a104.39,104.39,0,0,1,15.928-30.37c.915-1.22,1.87-2.4,2.844-3.555a94.2,94.2,0,0,1,9.549-9.772,98.371,98.371,0,0,1,33.317-19.382,94.834,94.834,0,0,1,37.929-4.855,97.618,97.618,0,0,1,75.31,46.258,93.4,93.4,0,0,1,12.514,63.445Z" transform="translate(205.223 8.341)" fill="#deecdd"/><path d="M929.736,593.257c-.021-.2-.021-.384-.06-.588-.062-.813-.143-1.646-.224-2.459q-.093-1.065-.245-2.132a4.048,4.048,0,0,0-.1-.712c-.04-.527-.121-1.036-.2-1.565-.081-.629-.181-1.239-.3-1.868-.2-1.219-.427-2.439-.691-3.657-.183-.832-.365-1.646-.569-2.458q-.243-1.1-.548-2.194c-.245-.936-.508-1.849-.793-2.783a93.611,93.611,0,0,0-9.732-21.779c-4.712-1.015-7.659,4.795-11.945,1.361-6.379-5.1,1.687-13.186-24.662-10.625a11.185,11.185,0,0,0-9.365,7.232c-.589,1.606-1.241,2.885-1.667,3.86v.021c-.61,1.381-.772,2.194.284,2.62a4.962,4.962,0,0,0,1.382.3c3.838.427,5.1-.853,7.232-3.84,2.134-2.966,4.247-6.378,5.953-4.672s3.819,6.806,2.987,9.772c-.853,2.987-5.546,6.379-8.939,5.546-2.906-.731-4.571-4.266-8.188-3.128a7.717,7.717,0,0,0-2.011.995c-5.119,3.393-8.938,4.246-10.644,5.527-1.687,1.279-9.346,2.987-6.785,7.232a12.531,12.531,0,0,0,4.347,4.672c-3.84-.222-7.68.386-8.269,4.246-.527,3.393-2.254,7.03-3.84,10.484-.162.345-.324.69-.467,1.036l-.121.243c-1.748,3.84-3.149,7.375-2.3,9.936,1.706,5.1,2.377,9.77,6.723,11.051,4.328,1.281,11.986,0,11.986,0s4.674-.426,5.527,5.525.426,16.152.426,16.152L861.375,649.8l.833,8.939a44.429,44.429,0,0,0,9.365.426c3.819-.426,12.331,3.393,14.465-11.051,2.113-14.465-.853-18.711,2.54-23.4,3.412-4.672,8.938-10.2,11.051-9.772a3.709,3.709,0,0,1,.569.143c-.609-.305-2.6-1.544-5.241-5.243-4.246-5.951-9.772-12.331-7.231-15.318,2.559-2.966,10.644,10.4,10.644,10.4s-.853,7.028,5.953,5.343c6.785-1.706,13.165.812,9.772-5.343-3.331-6.015-9.527-9.834-6.561-11.54a.968.968,0,0,1,.183-.122,8.38,8.38,0,0,1,1.482-.588,7.272,7.272,0,0,1,4.917,0,3.345,3.345,0,0,1,1.137.67,3.427,3.427,0,0,1,.975,1.177c1.26,2.561,4.672,4.226,6.806,10.4a29.915,29.915,0,0,0,5.749,9.589A93.663,93.663,0,0,0,929.736,593.257Zm-67.1-18.284c.426-1.279,1.706-5.119,2.985-3.84l4.674,4.674.893,1.036v.021l1.239,1.5s4.246-3.819,2.54-5.525l5.953,3.819a5.407,5.407,0,0,0,1.524,5.1c2.315,2.132-1.138,1.706,4.205,2.132l5.343.427a6.4,6.4,0,0,1-.589,1.849,5.593,5.593,0,0,1-2.823,2.823c-2.966,1.281-10.625,0-14.871-4.672a20.966,20.966,0,0,0-1.93-1.87c-3.759-3.25-7.68-4.388-9.141-3.656-.57.284-2.582-.122-5-.469C859.75,577.472,862.207,576.213,862.635,574.974Z" transform="translate(243.438 21.974)" fill="#bb5147"/><path d="M869.083,537.8s-3.312,8.491-10.6,11.478c-7.293,2.966-4.552,14.871-12.088,6.806-7.538-8.086-12.21-15.318-16.03-16.171-3.84-.853-4.266-.853-8.939-1.687-4.672-.853-10.2-1.706-9.344,3.393s3.819,6.379,6.378,12.757c2.54,6.38,13.593,7.661,7.213,11.48s-8.491,2.966-11.478,7.232c-2.966,4.246-11.052,12.758-11.052,12.758l-3.819,2.539s.427-12.331-5.1-3.392c-5.546,8.919-1.279,14.871,2.54,18.711,3.84,3.819,10.2,5.1,10.2,5.1s6.378-1.279,11.071.427c4.672,1.706,9.772,5.525,10.625,10.2s2.559,5.953,6.378,10.22c3.819,4.245,14.039,1.686,7.233,10.2-6.806,8.491-8.939,14.039-14.465,17.431s-5.953,6.38-12.758,8.939c-6.806,2.539-5.1-.548-8.919,4.834-3.84,5.363-7.232,9.184-8.085,4.51S800.6,662.8,800.6,662.8l8.066-19.564a60.472,60.472,0,0,0-8.066-11.052c-5.12-5.525-7.233-9.772-4.693-13.184a29.609,29.609,0,0,0,3.84-6.968s-5.527-1.1-9.792-7.476c-4.246-6.38-1.685-12.333-6.378-14.039-2.094-.772-4.267-3.068-6.015-6.054a104.39,104.39,0,0,1,15.928-30.37,12.235,12.235,0,0,0,2.844,1.563c7.233,2.966,4.674,9.772,8.939,2.113,4.246-7.638,8.919-10.2,1.687-16.15-.386-.3-.732-.589-1.077-.853A98.37,98.37,0,0,1,839.2,521.381c2.823,3.25,6.582,7.03,10.706,6.2,6.38-1.279,12.331-3.392,13.184,3.414S869.083,537.8,869.083,537.8Z" transform="translate(207.275 10.243)" fill="#bb7947"/><path d="M791.866,528.616s-12.968,1.663-14.964,7.316,7.648,4.655,10.307-.666S791.866,528.616,791.866,528.616Z" transform="translate(206.729 14.502)" fill="#bfe0ec"/><path d="M776.167,545.642s-6.833,4.856-6.255,8.657,5.732.324,5.63-3.489S776.167,545.642,776.167,545.642Z" transform="translate(202.753 24.524)" fill="#bfe0ec"/><path d="M903.105,607.425s4.334,13.016.125,17.332-7.648-5.262-4.038-10.066S903.105,607.425,903.105,607.425Z" transform="translate(277.982 60.893)" fill="#bfe0ec"/><path d="M894.033,626.473s-1.312,8.564-5.006,9.645-2.872-5.3.62-6.838S894.033,626.473,894.033,626.473Z" transform="translate(271.471 72.106)" fill="#bfe0ec"/><path d="M4.709,0h5.544a4.709,4.709,0,0,1,4.709,4.709V130.676a0,0,0,0,1,0,0H0a0,0,0,0,1,0,0V4.709A4.709,4.709,0,0,1,4.709,0Z" transform="translate(1217.718 548.106)" fill="#deecdd"/><circle cx="27.931" cy="27.931" r="27.931" transform="translate(1197.269 658.808)" fill="#deecdd"/><path d="M959.809,668.465A22.583,22.583,0,1,1,932.866,646.3V541.738c0-3.7,1.589-6.7,4.48-6.7,2.907,0,4.5,3,4.5,6.7V646.351A22.582,22.582,0,0,1,959.809,668.465Z" transform="translate(287.97 18.28)" fill="#fff" opacity="0.61"/><path d="M955.829,655.54a19.677,19.677,0,1,1-23.477-19.31V557c2.548-.1,5.233-.208,7.821-.305v79.577A19.679,19.679,0,0,1,955.829,655.54Z" transform="translate(289.048 31.03)" fill="#bb5147"/><line x2="10.197" transform="translate(1213.617 635.999)" fill="none" stroke="#000" stroke-miterlimit="10" stroke-width="0.5"/><line x2="10.197" transform="translate(1213.617 617.849)" fill="none" stroke="#000" stroke-miterlimit="10" stroke-width="0.5"/><line x2="5.68" transform="translate(1213.617 631.482)" fill="none" stroke="#000" stroke-miterlimit="10" stroke-width="0.5"/><line x2="5.68" transform="translate(1213.617 628.074)" fill="none" stroke="#000" stroke-miterlimit="10" stroke-width="0.5"/><line x2="5.68" transform="translate(1213.617 624.666)" fill="none" stroke="#000" stroke-miterlimit="10" stroke-width="0.5"/><line x2="5.68" transform="translate(1213.617 621.258)" fill="none" stroke="#000" stroke-miterlimit="10" stroke-width="0.5"/><path d="M752.463,503.981c-2.834,6.893-130.157,236.794-130.157,236.794" transform="translate(115.884 0)" fill="none" stroke="#947dce" stroke-miterlimit="10" stroke-width="8.407"/><g transform="translate(425.444 508.321)"><path d="M458.05,667.466l2.295,10.491,138.349-40Z" transform="translate(-406.251 -429.453)" fill="#7b7b7b" opacity="0.29"/><path d="M474.621,745.488l-49.176-201.95L567.728,516l50.16,193.754Z" transform="translate(-425.444 -501.246)" fill="#e8efed"/><path d="M436.224,635.209,435.35,645.7l141.628,11.584Z" transform="translate(-419.614 -431.073)" fill="#7b7b7b" opacity="0.29"/><path d="M581.144,518.369c.983,0,23.6,3.933,23.6,3.933L580.159,729.5,433.286,710.156S460.825,513.779,460.5,514.762,581.144,518.369,581.144,518.369Z" transform="translate(-420.829 -501.977)" fill="#eaf1f1"/><path d="M438.652,506.713H586.508l.656,208.179-142.611-1.311Z" transform="translate(-417.67 -506.713)" fill="#f8fdfe"/><path d="M442.985,636.934v1.63l141.628-.328Z" transform="translate(-415.119 -430.057)" fill="#7b7b7b" opacity="0.29"/><g transform="translate(44.259 43.275)" fill="none" stroke="#9e9e9e" stroke-miterlimit="10" stroke-width="1.479" opacity="0.81"><rect width="25.79" height="26.664" stroke="none"/><rect x="0.739" y="0.739" width="24.311" height="25.186" fill="none"/></g><g transform="translate(44.259 84.146)" fill="none" stroke="#9e9e9e" stroke-miterlimit="10" stroke-width="1.479" opacity="0.81"><rect width="25.79" height="26.664" stroke="none"/><rect x="0.739" y="0.739" width="24.311" height="25.186" fill="none"/></g><g transform="translate(44.259 125.017)" fill="none" stroke="#9e9e9e" stroke-miterlimit="10" stroke-width="1.479" opacity="0.81"><rect width="25.79" height="26.664" stroke="none"/><rect x="0.739" y="0.739" width="24.311" height="25.186" fill="none"/></g><rect width="68.628" height="4.371" transform="translate(84.474 46.772)" fill="#bdbdbd"/><rect width="68.628" height="4.371" transform="translate(84.474 54.859)" fill="#bdbdbd"/><rect width="52.018" height="4.371" transform="translate(84.474 62.946)" fill="#bdbdbd"/><rect width="68.628" height="4.371" transform="translate(84.474 87.643)" fill="#bdbdbd"/><rect width="68.628" height="4.371" transform="translate(84.474 95.73)" fill="#bdbdbd"/><rect width="52.018" height="4.371" transform="translate(84.474 103.817)" fill="#bdbdbd"/><rect width="68.628" height="4.371" transform="translate(84.474 128.514)" fill="#bdbdbd"/><rect width="68.628" height="4.371" transform="translate(84.474 136.601)" fill="#bdbdbd"/><rect width="52.018" height="4.371" transform="translate(84.474 144.687)" fill="#bdbdbd"/><path d="M457.844,543.149l5.792,5.792L478.279,534.3" transform="translate(-406.372 -490.475)" fill="none" stroke="#40a6b1" stroke-miterlimit="10" stroke-width="1.972"/><path d="M457.844,569.357l5.792,5.792,14.644-14.644" transform="translate(-406.372 -475.048)" fill="none" stroke="#40a6b1" stroke-miterlimit="10" stroke-width="1.972"/><path d="M457.844,595.565l5.792,5.792,14.644-14.644" transform="translate(-406.372 -459.62)" fill="none" stroke="#40a6b1" stroke-miterlimit="10" stroke-width="1.972"/></g></g></svg>