<svg xmlns="http://www.w3.org/2000/svg" xmlns:xlink="http://www.w3.org/1999/xlink" width="282.605" height="284.275" viewBox="0 0 282.605 284.275"><defs><style>.a,.ag,.ah,.ai{fill:none;}.b{fill:#304148;}.c{fill:#c4ddf5;}.d{opacity:0.81;}.e{fill:#fff;}.f{fill:#fff9e9;}.g{fill:#5795aa;}.h{fill:#7dc5d8;}.i{fill:#c9778e;}.j{opacity:0.47;}.k{clip-path:url(#a);}.l{fill:#fefefe;}.m{fill:#fdfdfd;}.n{fill:#fcfcfc;}.o{fill:#fbfbfb;}.af,.p{fill:#fafafa;}.q{fill:#f9f9f9;}.r{fill:#f8f8f8;}.s{fill:#f7f7f7;}.t{fill:#f6f6f6;}.u{fill:#f5f4f4;}.v{fill:#f4f3f3;}.w{fill:#f3f2f2;}.x{fill:#f2f1f1;}.y{fill:#f1f0f0;}.z{fill:#f0efef;}.aa{fill:#efeeee;}.ab{fill:#eeeded;}.ac{fill:#edecec;}.ad{fill:#ecebeb;}.ae{fill:#ebeaea;}.af{opacity:0.39;}.ag,.ah,.ai{stroke:#fafafa;stroke-miterlimit:10;stroke-width:0.895px;}.ah{opacity:0.61;}.ai{opacity:0.33;}</style><clipPath id="a"><path class="a" d="M1234.58,437.815l-107.669,88.679L1130,434.307Z" transform="translate(-1126.911 -434.307)"/></clipPath></defs><g transform="translate(-1058.718 -407.467)"><g transform="translate(1116.223 407.467)"><rect class="b" width="147.047" height="279.502" rx="18.977" transform="translate(9.37) rotate(1.921)"/></g><g transform="translate(1127.25 436.047)"><rect class="c" width="214.037" height="127.483" transform="translate(0 213.916) rotate(-88.079)"/></g><g class="d" transform="translate(1175.757 657.724)"><path class="e" d="M1189.88,668.042a15.33,15.33,0,0,1-7.152,1.482,15.041,15.041,0,0,1-10.134-4.285,12.974,12.974,0,0,1-3.958-9.72h0a12.969,12.969,0,0,1,4.6-9.431,15.353,15.353,0,0,1,20.531.688,12.974,12.974,0,0,1,3.958,9.72A13.413,13.413,0,0,1,1189.88,668.042Zm-12.807-22.826a13.21,13.21,0,0,0-2.929,1.919,11.6,11.6,0,0,0-4.123,8.431h0a11.6,11.6,0,0,0,3.548,8.689,13.666,13.666,0,0,0,9.206,3.885c7.257.242,13.344-5,13.568-11.691a11.6,11.6,0,0,0-3.548-8.689,13.666,13.666,0,0,0-9.206-3.885A13.977,13.977,0,0,0,1177.073,645.215Z" transform="translate(-1168.629 -642.482)"/></g><g transform="translate(1144.572 449.201)"><g transform="translate(57.774 39.209)"><path class="b" d="M1194.684,503.949c3.734-14.039,13.706-22.92,22.252-19.867s12.462,16.9,8.716,30.923c-3.722,14.012-11.151,13.377-19.7,10.332S1190.947,517.947,1194.684,503.949Z" transform="translate(-1193.599 -483.481)"/></g><g transform="translate(5.377 26.362)"><path class="b" d="M1144.8,494.06c2.109-14.157,10.473-24.206,18.673-22.444,8.213,1.8,13.176,14.71,11.073,28.863-2.1,14.18-9.032,14.593-17.257,12.814C1149.071,511.539,1142.7,508.214,1144.8,494.06Z" transform="translate(-1144.393 -471.416)"/></g><g transform="translate(57.817 44.463)"><path class="f" d="M1194.5,505.786c3.255-12.209,12.667-19.692,21.019-16.721,8.343,2.988,12.471,15.31,9.224,27.519-3.265,12.211-10.463,11.4-18.8,8.434C1197.594,522.015,1191.26,517.98,1194.5,505.786Z" transform="translate(-1193.639 -488.414)"/></g><g transform="translate(4.564 31.66)"><path class="f" d="M1143.938,495.667c1.834-12.343,10.2-20.845,18.657-19.032,8.5,1.846,13.883,13.317,12.053,25.668-1.837,12.33-8.952,12.466-17.44,10.65C1148.725,511.117,1142.1,508.006,1143.938,495.667Z" transform="translate(-1143.629 -476.391)"/></g><g transform="translate(58.878 55.822)"><path class="g" d="M1194.746,508.493c.664-5.7,4.328-9.9,8.173-9.366s6.422,5.584,5.739,11.277-4.328,9.9-8.172,9.377C1196.636,519.234,1194.063,514.189,1194.746,508.493Z" transform="translate(-1194.636 -499.082)"/></g><g transform="translate(5.588 44.256)"><path class="g" d="M1144.753,496.868c.818-5.535,4.544-9.352,8.308-8.538s6.159,5.949,5.336,11.488-4.543,9.361-8.324,8.533C1146.317,507.55,1143.933,502.419,1144.753,496.868Z" transform="translate(-1144.591 -488.22)"/></g><g transform="translate(6.414 53.418)"><path class="h" d="M1145.438,500.561c.352-2.39,1.958-4.05,3.585-3.687,1.631.339,2.652,2.561,2.3,4.955s-1.953,4.035-3.581,3.678C1146.107,505.17,1145.079,502.938,1145.438,500.561Z" transform="translate(-1145.367 -496.824)"/></g><g transform="translate(60.384 63.476)"><path class="h" d="M1196.094,510.335c.281-2.456,1.876-4.282,3.527-4.044s2.747,2.412,2.475,4.868-1.873,4.26-3.525,4.042S1195.815,512.785,1196.094,510.335Z" transform="translate(-1196.05 -506.27)"/></g><g transform="translate(9.529)"><path class="b" d="M1150.234,457.53c10-7.246,21.785-4.481,23.992-2.631l2.984-5.3c-4-3.328-17.806-5.4-28.918,2.643Z" transform="translate(-1148.292 -446.659)"/></g><g transform="translate(80.15 16.974)"><path class="b" d="M1214.612,469.1c10.451.3,18.56,11.565,19.579,14.961l4.3-2.95c-1.865-6.093-11.807-18.186-23.411-18.508Z" transform="translate(-1214.612 -462.6)"/></g><g transform="translate(27.395 82.923)"><path class="b" d="M1180,524.532a4.106,4.106,0,0,1-.257.567c-1.651,2.651-6.372,3.654-10.535,2.23a9.053,9.053,0,0,1-3.846-2.445c-1.07,2.536.908,5.488,4.782,6.814,4.157,1.423,8.872.425,10.53-2.233A4.024,4.024,0,0,0,1180,524.532Z" transform="translate(-1165.07 -524.532)"/></g><g transform="translate(21.58 100.932)"><path class="i" d="M1159.609,541.444l33.869,6.3s-5.086,23.109-19.091,18.8S1159.609,541.444,1159.609,541.444Z" transform="translate(-1159.609 -541.444)"/></g><g transform="translate(23.411 102.388)"><path class="f" d="M1187.878,557.644a39.79,39.79,0,0,0,3.524-9.237l-30.072-5.6a37.829,37.829,0,0,0,2.592,11.569Z" transform="translate(-1161.329 -542.812)"/></g><g transform="translate(49.352 71.609)"><path class="c" d="M1230.32,528.243c.9-3.5-8.337-8.926-20.644-12.109s-23.019-2.921-23.925.582,8.335,8.926,20.641,12.108S1229.411,531.746,1230.32,528.243Z" transform="translate(-1185.689 -513.907)"/></g><g transform="translate(0 62.656)"><path class="c" d="M1180.932,515.963c.556-3.578-8.3-7.922-19.776-9.7s-21.231-.325-21.787,3.247,8.3,7.926,19.775,9.706S1180.377,519.54,1180.932,515.963Z" transform="translate(-1139.344 -505.5)"/></g></g><g class="j" transform="translate(1131.334 436.047)"><g class="k"><path class="e" d="M1178.074,499.317,1237.9,450.6l7.811,16.292Z" transform="translate(-1123.593 -433.25)"/><path class="e" d="M1161.68,507.943l75.265-61.293,2.016,4.205-59.823,48.718Z" transform="translate(-1124.656 -433.506)"/><path class="l" d="M1145.285,516.568l90.706-73.868,2.016,4.205L1162.743,508.2Z" transform="translate(-1125.719 -433.762)"/><path class="m" d="M1128.891,525.194l106.148-86.443,2.016,4.205-90.706,73.868Z" transform="translate(-1126.783 -434.019)"/><path class="n" d="M1125.246,522.764,1233.259,434.8l2.016,4.205-106.148,86.443-2.108,1.011Z" transform="translate(-1127.019 -434.275)"/><path class="o" d="M1123.353,518.814l108.013-87.961,2.016,4.205L1125.369,523.02Z" transform="translate(-1127.142 -434.531)"/><path class="p" d="M1121.46,514.822,1228.6,427.571l2.445,2.57.443.925-108.013,87.961Z" transform="translate(-1127.265 -434.744)"/><path class="q" d="M1119.566,510.817l106.023-86.341,3.134,3.295-107.141,87.251Z" transform="translate(-1127.388 -434.944)"/><path class="r" d="M1117.673,506.813l104.9-85.43,3.134,3.295-106.022,86.341Z" transform="translate(-1127.51 -435.145)"/><path class="s" d="M1115.78,502.808l103.786-84.52,3.134,3.295-104.9,85.43Z" transform="translate(-1127.633 -435.346)"/><path class="t" d="M1113.886,498.8l102.669-83.61,3.134,3.295L1115.9,503.009Z" transform="translate(-1127.756 -435.546)"/><path class="u" d="M1111.993,494.8l101.551-82.7,3.134,3.295L1114.009,499Z" transform="translate(-1127.879 -435.747)"/><path class="v" d="M1110.1,490.794l100.432-81.789,3.134,3.295L1112.116,495Z" transform="translate(-1128.001 -435.948)"/><path class="w" d="M1108.206,486.789l99.315-80.878,3.134,3.295-100.432,81.789Z" transform="translate(-1128.124 -436.148)"/><path class="x" d="M1106.313,482.785l98.2-79.968,3.134,3.295-99.315,80.878Z" transform="translate(-1128.247 -436.349)"/><path class="y" d="M1104.419,478.644l87.377-71.157,11.824-5.669,1.011,1.063-98.2,79.968Z" transform="translate(-1128.37 -436.414)"/><path class="z" d="M1102.526,474.094l71.935-58.582,17.458-8.37L1104.542,478.3Z" transform="translate(-1128.493 -436.068)"/><path class="aa" d="M1100.633,469.379l56.494-46.006,17.458-8.37-71.935,58.582Z" transform="translate(-1128.615 -435.559)"/><path class="ab" d="M1098.739,464.664l41.052-33.431,17.458-8.37-56.494,46.006Z" transform="translate(-1128.738 -435.049)"/><path class="ac" d="M1096.846,459.948l25.61-20.856,17.458-8.37-41.052,33.431Z" transform="translate(-1128.861 -434.539)"/><path class="ad" d="M1094.953,455.233l10.169-8.281,17.458-8.37-25.61,20.856Z" transform="translate(-1128.984 -434.029)"/><path class="ae" d="M1105.2,446.442l-10.169,8.281-1.328-2.769Z" transform="translate(-1129.065 -433.52)"/></g></g><g transform="translate(1142.754 615.394)"><rect class="af" width="93.354" height="22.341" rx="10.49" transform="matrix(0.999, 0.035, -0.035, 0.999, 0.791, 0)"/><circle class="p" cx="8.378" cy="8.378" r="8.378" transform="translate(3.213 3.182)"/><path class="ag" d="M1163.035,610.915l3.729,3.659-3.991,3.717" transform="translate(-1136.005 -602.2)"/><path class="ah" d="M1168.088,611.094l3.729,3.658-3.991,3.717" transform="translate(-1135.678 -602.189)"/><path class="ai" d="M1172.609,611.254l3.729,3.658-3.991,3.718" transform="translate(-1135.384 -602.178)"/></g><path class="b" d="M1065.43,452.526a9.292,9.292,0,0,1-5.779-3.9l-.016-.037-.917.393,7.154,16.489a4.446,4.446,0,0,0-3.416.076,3.746,3.746,0,1,0,2.928,6.832,3.927,3.927,0,0,0,2.4-5.08l.059-.026.013.03,0-.005,0-.006-6.687-15.379a13.032,13.032,0,0,0,4.275,1.825c4.229,1.159,3.069,4.744,3.069,4.744C1070.07,456.593,1069.272,453.359,1065.43,452.526Z" transform="translate(0 2.667)"/><path class="b" d="M1089.367,498.418l0,0,0,0L1094,487.9h0l.079-.179-8.044-2.367-.541,1.249-3.557,8.1a2.5,2.5,0,0,0-1.336-1.379,2.1,2.1,0,1,0-1.7,3.812,2.208,2.208,0,0,0,3.009-.945h0l-.008.018,0-.005,0-.006,3.622-8.22,6.931,1.947-3.071,6.989a2.5,2.5,0,0,0-1.335-1.38,2.127,2.127,0,1,0,1.269,2.968h0Zm-3.559-11.064.246-.559,6.909,1.993-.225.512Z" transform="translate(1.213 5.051)"/><path class="b" d="M1291.373,480.47a9.282,9.282,0,0,1-5.779-3.9l-.016-.036-.917.393,7.154,16.489a4.446,4.446,0,0,0-3.416.076,3.746,3.746,0,1,0,2.928,6.832,3.927,3.927,0,0,0,2.4-5.08l.059-.026.013.03,0-.005,0-.007-6.686-15.378a13.012,13.012,0,0,0,4.275,1.825c4.229,1.159,3.068,4.744,3.068,4.744C1296.012,484.537,1295.214,481.3,1291.373,480.47Z" transform="translate(14.653 4.479)"/><path class="b" d="M1317.447,527.681l0-.005,0-.005,7.99-13.759h0l.136-.235-10.716-4.5-.937,1.638-6.143,10.6a3.458,3.458,0,0,0-1.628-2.1,2.914,2.914,0,1,0-2.921,4.99,3.059,3.059,0,0,0,4.29-.838l0,0-.014.023,0-.007,0-.009,6.252-10.765,9.246,3.747-5.3,9.152a3.468,3.468,0,0,0-1.628-2.105,2.948,2.948,0,1,0,1.293,4.283h0Zm-3.2-15.785.425-.732,9.209,3.808-.389.671Z" transform="translate(15.745 6.596)"/></g></svg>