<svg xmlns="http://www.w3.org/2000/svg" width="471.115" height="464.91" viewBox="0 0 471.115 464.91"><defs><style>.a{fill:#556585;}.b{fill:#ebf2ff;}.c,.p,.r,.s,.t{fill:#fff;}.d{fill:#f0a48d;}.e{fill:#8dd9f0;}.f{fill:#7ec2d6;}.g{fill:#6ca6b8;}.h{fill:#ffcfd6;}.i{fill:#2b4d66;}.j{fill:#001822;}.k{fill:#deaaab;}.l{fill:#e97654;}.m{fill:#3e5176;}.n{fill:#1e3d54;}.o{fill:#506999;}.p,.r,.s,.t{stroke:#fff;stroke-miterlimit:10;font-family:SegoeUI, Segoe UI;}.p{stroke-width:0.372px;}.p,.t{font-size:21px;}.q{fill:#87b0f4;}.r{stroke-width:0.629px;font-size:40px;}.s{stroke-width:0.326px;font-size:17px;}.t{stroke-width:0.37px;}</style></defs><g transform="translate(-889.391 -229.772)"><path class="a" d="M962.738,543.851,953.174,364.94s282.01-.688,282.221,1.906-14.98,180.38-14.98,180.38Z" transform="translate(21.943 46.472)"/><path class="b" d="M971.656,533.463l-8.67-162.191s255.656-.624,255.846,1.728-13.58,163.523-13.58,163.523Z" transform="translate(25.318 48.653)"/><g transform="translate(1008.805 436.332)"><rect class="c" width="159.97" height="113.05" transform="translate(0.81 1.62)"/><rect class="d" width="14.587" height="3.485" transform="translate(33.388 8.59)"/><rect class="e" width="14.587" height="3.485" transform="translate(51.622 8.59)"/><rect class="e" width="14.587" height="3.485" transform="translate(47.966 42.991)"/><rect class="d" width="15.812" height="3.566" transform="translate(28.202 15.884)"/><rect class="d" width="14.587" height="3.485" transform="translate(34.36 35.657)"/><rect class="d" width="15.812" height="3.566" transform="translate(29.174 42.95)"/><rect class="d" width="24.393" height="3.485" transform="translate(36.954 58.069)"/><rect class="d" width="39.781" height="3.566" transform="translate(47.579 65.363)"/><rect class="d" width="39.781" height="3.566" transform="translate(47.579 71.854)"/><rect class="d" width="39.781" height="3.566" transform="translate(37.489 78.783)"/><rect class="d" width="15.812" height="3.566" transform="translate(46.228 23.015)"/><rect class="e" width="15.812" height="3.566" transform="translate(47.966 15.884)"/><rect class="e" width="25.719" height="3.566" transform="translate(123.332 29.984)"/><rect class="e" width="38.595" height="3.566" transform="translate(110.456 64.507)"/><rect class="e" width="33.559" height="3.566" transform="translate(112.756 51.5)"/><rect class="f" width="162.402" height="4.538"/><rect class="g" width="162.402" height="2.269" transform="translate(0 113.535)"/><rect class="g" width="1.621" height="111.914" transform="translate(0 3.89)"/><rect class="g" width="1.621" height="111.914" transform="translate(160.781 3.89)"/></g><path class="h" d="M1036.887,390.245c-1.4,4.555-2.738,9.391-3.968,14.5q-1.3,5.419-2.289,10.529c-.793,2-1.747,4.156-2.9,6.411-1.058,2.067-2.142,3.95-3.205,5.646a30.268,30.268,0,0,0,3.509,2.9c.465.329.923.633,1.374.915a35.754,35.754,0,0,0,.306,7.478,23.037,23.037,0,0,0,2.137,7.783,15.987,15.987,0,0,0,19.686,8.393c-.051,4.629.661,12.006.61,16.635,4.83.1,8.676,3.793,13.506,3.892,5.09.1,10.4-6.133,15.491-6.029l.152-26.859c-2.344-26.038-14.291-46.556-31.285-51.43A30.9,30.9,0,0,0,1036.887,390.245Z" transform="translate(46.489 55.08)"/><rect class="i" width="292.559" height="8.252" transform="translate(968.178 648.834)"/><path class="j" d="M1084.139,384.129a15.311,15.311,0,0,0-5.494-7.63c-3.207-2.214-6.748-2.438-18.009-1.525-14.233,1.152-15.177,2.046-18.924,1.22-3.853-.849-9.4-3.236-15.261-10.684a24.028,24.028,0,0,0-.61,8.852,24.4,24.4,0,0,0,4.884,11.9,15.658,15.658,0,0,1-7.86-8.088,17.731,17.731,0,0,0-1.145,8.623c1.385,11.007,13.389,16.037,14.117,16.328a17.472,17.472,0,0,0,4.654,13.506q.3,8.852.61,17.7l2.137-.61c.328-3.9.648-7.279.915-10.225a4.322,4.322,0,0,1,1.221-3.052,4.2,4.2,0,0,1,3.509-.61c2.065.534,3.1,2.458,3.662,3.509,1.919,3.574,1.253,7.231.763,9.92-.533,2.927-.9,4.941-2.6,5.8-1.859.942-4.093-.126-4.729-.458a38.97,38.97,0,0,0,2.594,6.715,39.78,39.78,0,0,0,9.462,12.209l24.418.153a110.552,110.552,0,0,0,8.24-13.431,103.537,103.537,0,0,0,8.7-22.738c2.512-10.192,3.769-15.287,1.832-21.671-.606-2-3.208-10.573-11.141-14.193A17.765,17.765,0,0,0,1084.139,384.129Z" transform="translate(45.48 46.697)"/><path class="a" d="M970.14,513.118c-.375,1.313-22.129,38.821-22.129,38.821h292.558L1216.94,511.43Z" transform="translate(20.166 96.896)"/><path class="k" d="M970.064,515.654s-4.853,1.075-5.943,1.9-2.5,1.853-2.777,1.2,1.875-2.438,1.594-3.469-1.407-1.594-.844-2.813a9.825,9.825,0,0,1,3.188-4.032c1.782-1.313,10.5-3.376,13.784-.375S970.064,515.654,970.064,515.654Z" transform="translate(24.744 95.204)"/><path class="l" d="M978.8,526.241c3.6-.634,6.759,1.068,12.94,4.5a90.031,90.031,0,0,1,14.627,10.126,127.741,127.741,0,0,1-2.813-23.629c-.562-22.555-1.741-43.814,11.815-57.387,9.74-9.754,27.54-16.159,41.634-12.94,5.157,1.179,12.891,4.349,24.754,3.939,2.848-.1,5.5-.442,10.69-1.126,13.052-1.719,20.172-3.43,23.629-3.938,17.281-2.538,34.183,11.6,37.133,14.065,15.028,12.569,19.448,29.707,26.444,56.824a234.554,234.554,0,0,1,5.063,25.319,89.641,89.641,0,0,1,36.008-7.877,85.775,85.775,0,0,1,10.126.563q2.252,6.752,4.5,13.5a91.258,91.258,0,0,1-23.067,15.753c-9.957,4.739-25.552,12.163-38.82,7.877-18.269-5.9-13.04-27.844-32.07-43.884-22.082-18.613-64.575-18.952-87.206-.563-18.715,15.209-15.213,36.213-33.756,41.634-13.594,3.973-27.737-3.73-34.318-7.314-7.34-4-19.125-10.416-19.13-20.254C966.984,534.7,972.49,527.354,978.8,526.241Z" transform="translate(26.695 74.209)"/><path class="l" d="M1015.65,588.079c8.334,5.942,18.4,4.853,22.5,4.5,26.345-2.262,29.82,6.67,57.385,2.813,20.3-2.841,35.748-5,41.072-15.753,5.477-11.061-5.645-19.344-10.129-52.886-2.453-18.362.262-20.495-3.375-26.442-11.779-19.254-57.106-24.44-86.642-3.938-34.569,23.993-34.907,74.426-26.442,86.079A27.884,27.884,0,0,0,1015.65,588.079Z" transform="translate(39.921 87.198)"/><rect class="m" width="130.526" height="108.022" rx="10.047" transform="translate(1042.067 550.658)"/><rect class="n" width="115.57" height="95.644" rx="10.047" transform="translate(1042.067 563.036)"/><rect class="o" width="22.223" height="84.668" rx="8.267" transform="translate(1092.984 610.014)"/><path class="i" d="M1166.142,521.334c-.141.422.7,9.987,7.877,11.112s20.816-.563,19.831-8.3a15.781,15.781,0,0,0-7.6-11.252Z" transform="translate(95.204 97.4)"/><path class="a" d="M1166.976,520.638s.985,7.033,8.3,7.033,19.41-4.079,14.2-11.533S1166.976,520.638,1166.976,520.638Z" transform="translate(95.495 97.674)"/><path class="k" d="M1163.367,513.442s9.283-6.751,10.69-6.189,2.532,3.657,4.219,1.969,5.908-2.035,7.033-2,7.314,3.972,8.439,5.66-2.25,2.813-3.376,2.532,4.5,2.813,4.5,2.813-3.094,3.094-5.344,1.688-7.033-2.813-7.314-.844-8.158,7.876-14.347,7.876S1163.367,513.442,1163.367,513.442Z" transform="translate(94.181 95.447)"/><rect class="a" width="84.955" height="53.73" rx="8.686" transform="translate(1275.552 367.528)"/><path class="a" d="M1186.755,368.091V391.9l26.394-26.394Z" transform="translate(102.299 46.697)"/><rect class="a" width="84.955" height="53.73" rx="8.686" transform="translate(1068.681 283.502) rotate(-180)"/><path class="a" d="M1019.5,265.6v23.814L993.1,263.015Z" transform="translate(35.679 11.436)"/><text class="p" transform="translate(1288.211 398.88)"><tspan x="0" y="0">HTML</tspan></text><rect class="q" width="67.514" height="53.73" rx="19.988" transform="translate(956.905 426.053) rotate(-180)"/><path class="q" d="M936.333,371.659v23.814l-26.394-26.394Z" transform="translate(7.069 47.924)"/><text class="r" transform="translate(907.209 410.83)"><tspan x="0" y="0">J</tspan></text><text class="s" transform="translate(924.369 399.302)"><tspan x="0" y="0">S</tspan></text><rect class="q" width="75.765" height="61.609" rx="22.92" transform="translate(1214.106 297.974) rotate(180)"/><text class="t" transform="translate(1157.902 272.385)"><tspan x="0" y="0">CSS</tspan></text><g transform="translate(1001.955 243.587)"><path class="c" d="M973.222,251.839l17.26-8.02-.1,2.513-14.536,6.561,0,.073,13.956,7.721-.1,2.513-16.55-9.395Z" transform="translate(-973.143 -238.755)"/><path class="c" d="M987.175,266.052l11.24-26,2.478.1-11.276,26Z" transform="translate(-968.316 -240.051)"/><path class="c" d="M1015.591,255.742l-17.259,7.983.1-2.515,14.646-6.556,0-.074-14.064-7.724.1-2.515,16.553,9.36Z" transform="translate(-964.477 -238.575)"/></g></g></svg>