<svg xmlns="http://www.w3.org/2000/svg" width="528" height="402.369" viewBox="0 0 528 402.369"><defs><style>.a{opacity:0.7;}.b,.j{fill:#bec9f2;}.b{opacity:0.49;}.c{fill:#b35328;}.d{fill:#e9e9e9;}.e{fill:#8e94a0;}.f{fill:#4b3d64;}.g{fill:#cecfd4;}.h{fill:#fff;}.i{fill:#8c7cc9;}.k{fill:#8a7cc7;}.l,.m{font-size:8px;}.l,.m,.n,.o{font-family:Helvetica;}.m,.n,.o{letter-spacing:-0.07em;}.n{font-size:6px;}.o{font-size:7px;}</style></defs><g transform="translate(-427.427 -10421.729)"><g transform="translate(427.427 10421.729)"><g class="a"><path class="b" d="M516.532,10549.147c57.841-63.3,86.762-94.942,116.45-108.406,99.19-44.978,255.744-8.721,304.9,93.619,2.558,5.326,36.888,79.459,1.778,137.019-29.4,48.194-77.741,36.034-207.274,79.434-138.68,46.466-167.286,88.555-220.846,67.884-50.71-19.567-86.116-80.854-83.7-134.1C429.638,10645,458.627,10612.51,516.532,10549.147Z" transform="translate(-427.374 -10421.729)"/><circle class="b" cx="26.31" cy="26.31" r="26.31" transform="translate(37.977 66.679)"/><circle class="b" cx="11.035" cy="11.035" r="11.035" transform="translate(0 86.005)"/><circle class="b" cx="19.009" cy="19.009" r="19.009" transform="translate(426.677 312.527)"/><circle class="b" cx="7.738" cy="7.738" r="7.738" transform="translate(480.452 337.686)"/><circle class="b" cx="5.679" cy="5.679" r="5.679" transform="translate(97.38 41.99)"/><circle class="b" cx="5.679" cy="5.679" r="5.679" transform="translate(374.802 339.747)"/></g><g transform="translate(45.546 75.038)"><path class="c" d="M506.227,10591.015h0a1.121,1.121,0,0,1-.664-1.436l.911-2.473,2.1.771-.912,2.475A1.118,1.118,0,0,1,506.227,10591.015Z" transform="translate(-459.189 -10467.567)"/><path class="c" d="M516.176,10594.682h0a1.121,1.121,0,0,1-.664-1.436l.911-2.475c.061-.164,2.092.8,2.092.8l-.9,2.451A1.121,1.121,0,0,1,516.176,10594.682Z" transform="translate(-457.432 -10466.925)"/><path class="d" d="M506.035,10590.749h0a1.122,1.122,0,0,1-.664-1.437l1-2.707a1.12,1.12,0,0,1,1.437-.663h0a1.123,1.123,0,0,1,.664,1.437l-1,2.707A1.122,1.122,0,0,1,506.035,10590.749Z" transform="translate(-459.223 -10467.786)"/><path class="d" d="M515.964,10594.406h0a1.123,1.123,0,0,1-.664-1.437l1-2.707a1.123,1.123,0,0,1,1.437-.664h0a1.123,1.123,0,0,1,.664,1.438l-1,2.708A1.123,1.123,0,0,1,515.964,10594.406Z" transform="translate(-457.47 -10467.14)"/><rect class="e" width="7.338" height="4.758" transform="translate(43.995 148.797) rotate(20.217)"/><rect class="e" width="7.338" height="4.758" transform="translate(47.132 140.929) rotate(20.217)"/><path class="f" d="M847.841,10752.634H475.091c-4.139,0-8.51-2.086-8.953-8.165v-5.586l40.8-75.394a12.984,12.984,0,0,1,11.631-7.211H803.819c5.323,0,17.06,10.481,19.439,15.244l33.66,68.619v2.465C857,10749.753,852.381,10752.634,847.841,10752.634Z" transform="translate(-466.138 -10455.355)"/><path class="g" d="M847.869,10745.926H475.12c-4.14,0-10.954-3.63-8.394-8.093l40.241-81.052a12.983,12.983,0,0,1,11.632-7.211H803.847a14.05,14.05,0,0,1,12.568,7.767l39.835,79.712C859.042,10742.13,852.409,10745.926,847.869,10745.926Z" transform="translate(-466.133 -10456.541)"/><rect class="g" width="305.254" height="192.888" rx="9.485" transform="translate(40.774)"/><rect class="h" width="281.706" height="167.139" transform="translate(52.494 10.521)"/><path class="f" d="M694.883,10733.577H585.05a1.981,1.981,0,0,1-1.955-2.294l4.631-28.93a3.217,3.217,0,0,1,3.177-2.71h99.064a2.826,2.826,0,0,1,2.8,2.42l4.245,29.093A2.145,2.145,0,0,1,694.883,10733.577Z" transform="translate(-445.492 -10447.697)"/><path class="i" d="M803.279,10700.517H504.856c-3.311,0-5.837-1.272-5.313-2.678l12.583-33.773c.679-1.822,4.338-3.162,8.631-3.162H789.923c3.814,0,7.051,1.2,7.6,2.823l11.534,33.965C809.51,10699.189,806.795,10700.517,803.279,10700.517Z" transform="translate(-460.252 -10454.537)"/><g transform="translate(38.436 198.827)"><rect class="g" width="311.206" height="1.572" transform="translate(0 13.359)"/><rect class="g" width="311.206" height="1.572" transform="translate(0 21.218)"/><rect class="g" width="311.206" height="1.572" transform="translate(0 30.649)"/><rect class="g" width="311.206" height="1.572" transform="translate(0 39.293)"/><rect class="g" width="2.358" height="51.868" transform="translate(37.69 0.839) rotate(17.439)"/><rect class="g" width="2.358" height="51.868" transform="translate(60.48 0.839) rotate(17.439)"/><rect class="g" width="2.358" height="51.868" transform="translate(78.555 0.839) rotate(17.439)"/><rect class="g" width="2.358" height="51.868" transform="translate(96.63 0.839) rotate(17.439)"/><rect class="g" width="2.358" height="51.868" transform="translate(115.491 0.839) rotate(17.439)"/><rect class="g" width="2.358" height="51.868" transform="translate(134.63 0.25) rotate(10.978)"/><rect class="g" width="2.358" height="51.868" transform="translate(150.888)"/><rect class="g" width="2.358" height="51.868" transform="translate(272.839 1.545) rotate(-17.439)"/><rect class="g" width="2.358" height="51.868" transform="translate(250.835 1.545) rotate(-17.439)"/><rect class="g" width="2.358" height="51.868" transform="translate(228.83 1.545) rotate(-17.439)"/><rect class="g" width="2.358" height="51.868" transform="translate(206.826 1.545) rotate(-17.439)"/><rect class="g" width="2.358" height="51.868" transform="translate(184.821 1.545) rotate(-17.439)"/><rect class="g" width="2.358" height="51.868" transform="translate(162.817 1.545) rotate(-17.439)"/></g></g></g><g transform="translate(563.93 10531.988)"><g transform="translate(12.773 10.295)"><rect class="h" width="188.364" height="110.795"/></g><g transform="translate(0.312 0.311)"><rect class="j" width="200.825" height="9.984"/></g><rect class="j" width="12.461" height="120.779" transform="translate(0.312 0.311)"/><path class="k" d="M744.894,10636.842H543.445v-121.4H744.894Zm-200.825-.623h200.2v-120.156h-200.2Z" transform="translate(-543.445 -10515.441)"/><g transform="translate(12.461 0.311)"><rect class="k" width="0.623" height="120.779"/></g><g transform="translate(59.552 0.311)"><rect class="k" width="0.623" height="120.779"/></g><g transform="translate(106.643 0.311)"><rect class="k" width="0.623" height="120.779"/></g><g transform="translate(153.734 0.311)"><rect class="k" width="0.623" height="120.779"/></g><g transform="translate(0.312 9.984)"><rect class="k" width="200.825" height="0.623"/></g><g transform="translate(0.312 21.063)"><rect class="k" width="200.825" height="0.623"/></g><g transform="translate(0.312 32.143)"><rect class="k" width="200.825" height="0.623"/></g><g transform="translate(0.312 43.221)"><rect class="k" width="200.825" height="0.623"/></g><g transform="translate(0.312 54.301)"><rect class="k" width="200.825" height="0.623"/></g><g transform="translate(0.312 65.381)"><rect class="k" width="200.825" height="0.623"/></g><g transform="translate(0.312 76.461)"><rect class="k" width="200.825" height="0.623"/></g><g transform="translate(0.312 87.54)"><rect class="k" width="200.825" height="0.623"/></g><g transform="translate(0.312 98.619)"><rect class="k" width="200.825" height="0.623"/></g><g transform="translate(0.312 109.698)"><rect class="k" width="200.825" height="0.623"/></g><text class="l" transform="translate(3.605 17.347)"><tspan x="0" y="0">1</tspan></text><text class="l" transform="translate(3.605 28.182)"><tspan x="0" y="0">2</tspan></text><text class="l" transform="translate(3.605 39.017)"><tspan x="0" y="0">3</tspan></text><text class="l" transform="translate(3.605 50.514)"><tspan x="0" y="0">4</tspan></text><text class="l" transform="translate(3.605 61.349)"><tspan x="0" y="0">5</tspan></text><text class="l" transform="translate(3.605 72.184)"><tspan x="0" y="0">6</tspan></text><text class="l" transform="translate(3.605 83.02)"><tspan x="0" y="0">7</tspan></text><text class="l" transform="translate(3.605 94.517)"><tspan x="0" y="0">8</tspan></text><text class="l" transform="translate(3.605 105.352)"><tspan x="0" y="0">9</tspan></text><text class="m" transform="translate(1.288 116.518)"><tspan x="0" y="0">10</tspan></text><text class="n" transform="translate(31.821 6.089)"><tspan x="0" y="0">A</tspan></text><text class="n" transform="translate(81.366 6.089)"><tspan x="0" y="0">B</tspan></text><text class="o" transform="translate(127.683 6.089)"><tspan x="0" y="0">C</tspan></text><text class="o" transform="translate(177.062 6.089)"><tspan x="0" y="0">D</tspan></text></g></g></svg>