<svg xmlns="http://www.w3.org/2000/svg" xmlns:xlink="http://www.w3.org/1999/xlink" width="700" height="448" viewBox="0 0 700 448"><defs><style>.a{fill:#fff;stroke:#707070;}.b,.p{fill:none;}.c{clip-path:url(#a);}.d{clip-path:url(#b);}.e{fill:#bcd3d7;opacity:0.49;}.f{clip-path:url(#c);}.g{fill:#c2934e;}.h,.o{fill:#caa267;}.i{fill:#8a7cc7;}.j{fill:#f1c759;}.k{opacity:0.15;}.l{opacity:0.3;}.m{opacity:0.5;}.n{fill:#eec459;}.o{fill-rule:evenodd;}.p{stroke:#8a7cc7;stroke-miterlimit:10;stroke-width:1.093px;}.q{fill:#9180d2;}</style><clipPath id="a"><rect class="a" width="700" height="448" transform="translate(329 320)"/></clipPath><clipPath id="b"><rect class="a" width="653" height="447" transform="translate(347 329)"/></clipPath><clipPath id="c"><path class="b" d="M883.424,495.835c75.7-60.656,113.549-90.983,149.084-100.852,118.722-32.966,287.389,34.883,324.478,157.854,1.93,6.4,27.366,95.254-21.923,153.469-41.27,48.741-93.187,26.711-245.552,52.619-163.124,27.736-202.444,69.79-258.706,37.341-53.267-30.724-82.149-105.408-70.157-164.5C769.566,587.817,807.64,556.557,883.424,495.835Z" transform="translate(-757.955 -386.687)"/></clipPath></defs><g class="c" transform="translate(-329 -320)"><g class="d" transform="translate(10 4)"><g transform="translate(-365.254 2.137)"><g transform="translate(757.955 408.33)"><path class="e" d="M883.424,495.835c75.7-60.656,113.549-90.983,149.084-100.852,118.722-32.966,287.389,34.883,324.478,157.854,1.93,6.4,27.366,95.254-21.923,153.469-41.27,48.741-93.187,26.711-245.552,52.619-163.124,27.736-202.444,69.79-258.706,37.341-53.267-30.724-82.149-105.408-70.157-164.5C769.566,587.817,807.64,556.557,883.424,495.835Z" transform="translate(-757.955 -386.687)"/><g class="f"><g transform="translate(137.574 51.419)"><path class="g" d="M993.39,468.109s-1.566,17.471,9.211,27.134-24.836,0-24.836,0,6.627-16.735,5.141-27.134S993.39,468.109,993.39,468.109Z" transform="translate(-807.444 -407.33)"/><ellipse class="h" cx="18.841" cy="25.706" rx="18.841" ry="25.706" transform="translate(161.421 16.142)"/><path class="i" d="M1157,630.618c-.4,6.31-6.925,34.9-15.083,60.32-6.683,20.865-14.482,39.6-20.893,42.189-14.224,5.723-121.627,13.58-143.71,3.048-.514-.387-1.073-.8-1.6-1.261-8.287-6.74-17.274-20.049-22.039-32.514,0-.014-12.693-35.79-15.283-43.075-.029-.071-.043-.129-.071-.185-.087-.287-.186-.559-.286-.817-.029-.1-.073-.186-.1-.286C924.569,703.675,820.1,700.354,880.691,573.6c28.522-59.661,79.426-86.881,111.926-94.107,14.068-3.133,24.685-2.518,28.564.829a21.061,21.061,0,0,0,13.151,5.11,28.579,28.579,0,0,0,7.385-.672,36.745,36.745,0,0,0,7.829-2.663c1.2-.557,1.9-.958,1.9-.958a76.337,76.337,0,0,1,19.893,1.188C1144.87,496.726,1157.662,620.013,1157,630.618Z" transform="translate(-853.859 -401.735)"/><path class="j" d="M1096.2,835.742h-74.039q.149-6.8.332-13.715c.156-6.3.333-12.639.51-18.914.189-6.652.377-13.248.555-19.679.178-6.165.345-12.174.5-17.939.422-16.286.71-30.666.654-41.11-.043-9.889-.4-16.241-1.252-17.328-.322-.41-.654-.332-1.008.221-1.121,1.752-2.384,8.26-3.77,18.172-.744,5.267-1.509,11.5-2.307,18.483-.787,6.829-1.6,14.4-2.439,22.495-.588,5.677-1.186,11.619-1.807,17.761-.7,7.04-1.419,14.324-2.152,21.774-.542,5.456-1.086,11-1.64,16.6q-.649,6.554-1.3,13.182H924.5c.022-.2.045-.41.078-.609C925.294,830,926.037,824.6,926.8,819c.909-6.654,1.84-13.581,2.783-20.667.875-6.62,1.773-13.383,2.661-20.168,1.818-13.848,3.625-27.849,5.322-41.144,1.629-12.716,3.149-24.79,4.5-35.444,3.128-24.88,5.256-42.1,5.256-42.1a8.526,8.526,0,0,0,.677.611.264.264,0,0,0,.055.043,9.782,9.782,0,0,0,2.341,1.4,14.551,14.551,0,0,0,3.526.986c1.828.034,4.367.078,7.494.133,5.544.1,12.9.2,21.354.289,6.319.066,13.248.122,20.455.144,1.884.011,3.781.022,5.687.011h.09c4.622.011,9.312.011,14.013-.011,7.385-.034,14.779-.111,21.875-.244,6.619-.122,12.993-.289,18.848-.521,2.538-.112,4.977-.223,7.3-.345.023.011.045,0,.068,0l.577-.032c.587-.034.908-.056.908-.056,1.187-.067,2.329-.144,3.449-.221s2.2-.144,3.239-.234h.01c.864-.066,1.7-.133,2.506-.21.532-.045,1.065-.1,1.574-.156.255-.022.51-.043.754-.077s.5-.056.742-.078.489-.055.722-.077.466-.056.7-.088c.332-.034.654-.078.975-.122,1.243-.167,2.362-.333,3.36-.51a23.57,23.57,0,0,0,3.813-.965c.1-.034.2-.077.3-.122a4.8,4.8,0,0,0,.521-.232c.078-.045.155-.09.221-.122s.133-.09.189-.133a1.454,1.454,0,0,0,.3-.255,1.134,1.134,0,0,1-.012.143c0,.09-.01.234-.021.422-.011.244-.022.566-.045.965-.011.266-.022.566-.043.887-.034.609-.067,1.331-.1,2.151-.011.21-.022.42-.032.643a.517.517,0,0,0-.011.133c-.011.31-.033.632-.045.964s-.045.688-.056,1.042c-.032.654-.066,1.342-.111,2.062-.011.3-.022.611-.045.92q-.031.666-.066,1.364c-.023.311-.033.632-.043.965-.067,1.23-.135,2.527-.212,3.9-.034.686-.066,1.4-.111,2.117s-.067,1.464-.111,2.229c-.056,1.053-.112,2.14-.167,3.25-.088,1.7-.178,3.47-.277,5.3-.043.92-.1,1.852-.144,2.8-.11,2.174-.232,4.435-.354,6.764-.1,1.674-.178,3.393-.277,5.143-.055,1.132-.122,2.273-.178,3.426q-.2,3.641-.4,7.473c-.255,4.7-.443,9.557-.576,14.534-.5,17.639-.311,36.787.366,55.546.255,6.641.555,13.227.92,19.679s.776,12.794,1.242,18.914Q1095.59,829.1,1096.2,835.742Z" transform="translate(-828.79 -329.267)"/><path class="k" d="M916.2,613.9c.028.1.071.186.1.286.1.258.2.529.287.815.028.058.042.115.072.186,2.59,7.285,15.283,43.061,15.283,43.076,4.765,12.465,13.752,25.775,22.039,32.515-5.624-20.365-23.156-79.4-22.483-103.181C928.146,610.521,916.2,613.884,916.2,613.9Z" transform="translate(-832.117 -357.595)"/><path class="k" d="M1035.132,549.816s-43.783,103.145,51.142,155.844l1.9,1.486,1.444-24.954s-41.319-68.367-41.364-70.048S1035.132,549.816,1035.132,549.816Z" transform="translate(-788.494 -372.735)"/><path class="k" d="M998.192,489.656c.057,1.7-.845,2.818-3.578,2.447-8.529-1.16-18.16-.916-25.159,2.289a5.946,5.946,0,0,1-5.753-.242c-4.48-2.619-7.256-10.433-8.357-13.9a2.357,2.357,0,0,1-.115-.758c14.068-3.135,24.685-2.518,28.564.829a21.061,21.061,0,0,0,13.151,5.11A11.572,11.572,0,0,1,998.192,489.656Z" transform="translate(-816.474 -401.735)"/><g class="l" transform="translate(179.549 329.016)"><path d="M985.1,661.749c-.252-.02-.5-.041-.747-.062C984.353,661.687,984.618,661.705,985.1,661.749Z" transform="translate(-984.353 -656.92)"/><path class="m" d="M984.886,663.112c19.935,1.591,63.506-1.227,63.506-1.227,12.8-.737,21.794-1.874,23.374-3.6a1.428,1.428,0,0,1-.011.148c-.094,2-1.242,24.9-2.853,54.917a14.771,14.771,0,0,1-2.1-.241c-4.485-.832-7.928-3.613-10.549-7.5a36.172,36.172,0,0,1-4.1-8.568C1037.292,668.763,991.272,663.685,984.886,663.112Z" transform="translate(-984.139 -658.284)"/></g><g transform="translate(157.065)"><g transform="translate(3.976 7.167)"><path class="n" d="M981.766,448.439s32.618,18.085,22.937-10.951C998.005,417.4,959.521,435.495,981.766,448.439Z" transform="translate(-969.626 -428.512)"/><path class="n" d="M988.009,441.131s-18.25,10.829-16.489,21.692c0,0-4.024-32.433,14.122-33.248s25.171.937,23.56,35.231C1009.2,464.807,1003.93,437.526,988.009,441.131Z" transform="translate(-971.14 -428.141)"/></g><path class="n" d="M980.928,432.208s.916-10.1,10.934-8.673,14.311,7.155,15.741,12.88,2.863,10.017,4.293,10.017c0,0-4.293,4.293-5.724,2.863,0,0,3.714,10.291-1.006,18.74,0,0-1.857-13.017-9.012-14.447S980.928,432.208,980.928,432.208Z" transform="translate(-963.241 -423.396)"/><path class="n" d="M986.9,429.887s-7.155-4.293-14.31,5.723L968.3,444.2s1.43,1.432,4.293,0c0,0-1.3,10.084.063,15.775l4.23-17.205Z" transform="translate(-968.301 -421.161)"/></g><path class="k" d="M1078.428,642.341s5.193-42.456-110.063-37.131,83.479,33.814,83.479,33.814Z" transform="translate(-825.617 -350.722)"/><g transform="translate(95.837 78.431)"><g transform="translate(0 170.54)"><path class="o" d="M980.879,621.706c-1.317-.559-14.921-10.225-22.605-11.546s-19.229-2.551-23.136-4c-4.6-1.7-5.929.07-.677,2.561,3.415,1.619,10.462,4.267,12.053,4.456.772.092-4.218-.981-9.609-2.545-5.732-1.664-11.923-3.8-12.293-2.786-.719,1.968,15.709,7.808,18.641,8.359a74.808,74.808,0,0,1-7.721-1.556c-3.47-.9-7.4-2.461-8.253-1.793-1.338,1.052,7.278,5.236,14.544,6.83.109.248-2.293.434-10.8-2.039-.854-.248-3.1-.042-.356,1.5,5.771,3.238,8.014,5.055,16.669,6.006,8.439.926,17.915-.083,23.842,2.435Z" transform="translate(-924.59 -599.396)"/><path class="o" d="M956.739,612.957s-6.012-7.395-13.279-9.1c-4.32-1.018-4.131-2.111-4.851-2.5-2.39-1.283-.354,3.5,3.268,4.967,2.944,1.195,4.226,6.485,5.955,7.721s7,3.67,8.411,3.066S956.739,612.957,956.739,612.957Z" transform="translate(-919.385 -601.138)"/></g><path class="i" d="M1103.976,508.9c24.989,26.15,41.834,49.94,47.678,124.315,2.965,37.733-1.488,74.886-4.559,94.422a23.3,23.3,0,0,1-17.543,18.944c-86.375,21.176-172.6-65.966-172.6-65.966-4.681-2.171,6.373-18.6,6.373-18.6,46.587,3.164,82.142,7.385,118.12,24.558-.182-.1-31.12-71.086-34.557-90.27-8.994-50.306-47.972-96.284-35.509-114.748C1015.685,475.165,1078.768,482.525,1103.976,508.9Z" transform="translate(-912.085 -479.388)"/></g><g transform="translate(116.083 328.763)"><path class="p" d="M939.044,835.816l.976-10.278L941.9,805.8l2.029-21.176,1.985-20.766,2.173-22.673,1.7-17.817,1.663-17.406,2.184-22.817,1.608-16.786.344-3.636.443-4.623" transform="translate(-939.044 -658.103)"/><path class="p" d="M954.178,834.553l.721-7.461,1.863-19.28,2.007-20.755L960.73,766.7l2.24-23.216,1.707-17.673,1.707-17.661,2.472-25.511,1.474-15.344.543-5.543.044-.5" transform="translate(-932.979 -656.841)"/><path class="p" d="M984.75,661.254l-.055.643-.466,5.787-1.253,15.533-2.084,25.677-1.408,17.5-1.5,18.438L976.179,767.2l-1.585,19.613-1.663,20.611-1.486,18.338-.71,8.792" transform="translate(-926.344 -656.841)"/><line class="p" x2="0.449" y2="44.606" transform="translate(78.132 4.417)"/><path class="p" d="M1008.174,834.553l.166-9.213.366-19.424.333-18.482.366-19.546.388-20.888.322-17.806.41-22.207.432-23.249.244-13.315.078-4.324.078-4.069v-.377l.011-.4" transform="translate(-911.341 -656.841)"/><path class="p" d="M1024.155,661.159v.089l-.022,3.348-.078,16.475-.011,2.472-.133,24.757-.111,21.73-.089,17.905-.111,20.9-.1,19.868-.089,18.083-.1,19.191-.044,8.615" transform="translate(-905.292 -656.879)"/><path class="p" d="M1037.12,661.159l.022,1.242.388,20.278L1038,706.9l.011.832.388,20.444.355,18.027.377,20.167.366,18.781.355,18.948.366,19,.222,11.486" transform="translate(-899.741 -656.879)"/></g><path class="p" d="M938.757,675.529s118.858,5.611,150.262,0" transform="translate(-823.076 -322.357)"/><path class="p" d="M1018.427,694.666c-41.588,9.42-81.386-5.47-81.386-5.47" transform="translate(-823.763 -316.88)"/><path class="p" d="M994.823,691.092s37.531,10.546,70.5,1.64" transform="translate(-800.608 -316.12)"/><path class="p" d="M935.583,700.742s29.97,15.691,78.649,7.693" transform="translate(-824.347 -312.253)"/><path class="p" d="M933.831,714.494s46.637,14.239,78.8,6.913" transform="translate(-825.05 -306.742)"/><path class="p" d="M932.075,728.156s23.752,18.62,78.822,10.267" transform="translate(-825.753 -301.268)"/><path class="p" d="M930.031,743.871s36.217,18.923,79.881,6.018" transform="translate(-826.572 -294.97)"/><path class="p" d="M928.13,758.267s25.652,18.208,80.388,7.631" transform="translate(-827.334 -289.201)"/><path class="p" d="M926.143,773.025s35.4,18.506,81.537,3.555" transform="translate(-828.13 -283.287)"/><path class="p" d="M925.272,785.148c-.487-.388-.721-.609-.721-.609" transform="translate(-828.768 -278.673)"/><path class="p" d="M996.041,705.474s15.68,12.947,68.79,3.337" transform="translate(-800.12 -310.357)"/><path class="p" d="M996.335,719.385s22,10.258,67.122,2.157" transform="translate(-800.002 -304.782)"/><path class="p" d="M995.569,734.824s33.974,10.232,68.195,0" transform="translate(-800.309 -298.595)"/><path class="p" d="M995.22,747.627s33.025,14.681,69.342,0" transform="translate(-800.449 -293.465)"/><path class="p" d="M994.823,761.684s31.442,11.032,70.81,0" transform="translate(-800.608 -287.832)"/><path class="p" d="M994.461,775.184s26.5,11.891,72.557,0" transform="translate(-800.753 -282.422)"/><path class="k" d="M1008.479,501.985c.815,2.673,6.578,12.067,4.8,20.421s-40.455,91.7-56.389,102.471-44.709,23.014-44.709,23.014L990.8,539.113l4.346-37.128S1003.381,485.282,1008.479,501.985Z" transform="translate(-833.727 -394.877)"/><g transform="translate(147.553 71.486)"><path class="o" d="M977.132,504.579s4.8-8.411,3.757-15.926c-.622-4.467.483-4.69.586-5.513.339-2.736-3.444.948-3.509,4.921-.05,3.227-4.594,6.383-5.131,8.476s-.908,7.981.182,9.1S977.132,504.579,977.132,504.579Z" transform="translate(-957.181 -471.319)"/><path class="o" d="M978.466,529.486c.048-1.454,4.216-17.894,2.647-25.66s-4.719-21.232-4.779-25.467c-.071-4.98-2.241-5.593-2.674.3-.282,3.83-.125,13.551.279,15.129a61.513,61.513,0,0,1-1.472-9.958c-.193-3.327-.979-2.011-2.088-1.7-2.051.572-1.151,6.188-.6,9.169a28.8,28.8,0,0,1-1.49-7.313c-.146-1.694-.964-1.252-1.969-1.1s-1.427,1.374-.272,8.844c-.195.195-.5,2.072-1.277-6.894-.078-.9-2.71-2.723-2.807.469-.171,5.6-1.343,5.107.933,13.659,2.219,8.34,6.652,16.949,6.442,23.489Z" transform="translate(-961.51 -474.431)"/></g><path class="q" d="M1005.166,503.837A205.593,205.593,0,0,0,930.909,528.9c-19.809,11.352-68.993,39.537-74.256,86.323-.461,4.089-3.946,39.278,17.635,53.836,14.442,9.743,32.6,5.18,37.423,3.968,8.567-2.152,20.029-6.977,64.68-66.158,25.374-33.633,38.368-54.2,48.266-81.683,1.663-4.618,2.9-8.493,3.712-11.139Z" transform="translate(-856.171 -391.16)"/></g></g></g><path class="q" d="M888.209,355.207c20.052-25.352,52.721-28.317,69.273-13.853,14.1,12.318,14.706,35.7,6.927,51.953-9.288,19.4-31.636,30.931-55.417,27.711,10.056,17.862,6.766,39.623-6.927,51.953-14.57,13.122-35.343,10.549-48.492,3.467-15.812-8.517-25.32-26.1-24.245-45.028-2.014.219-30.4,2.9-41.564-13.858-12.483-18.747,5.179-48.919,24.245-62.345C832.839,340.542,862.445,340.87,888.209,355.207Z" transform="translate(10.27 0)"/><g transform="translate(868.574 372.494)"><path class="n" d="M850.367,361.1q9.705,0,16,4.8,6.932,5.228,6.934,14.72,0,12.056-11.307,17.281a41.064,41.064,0,0,0-6.934,5.013,10.644,10.644,0,0,0-3.414,7.467q0,1.918,2.24,4.16h-2.346a9.957,9.957,0,0,1-2.881-6.721,13.419,13.419,0,0,1,2.988-8.427,42.63,42.63,0,0,1,6.56-6.187,39.1,39.1,0,0,0,6.56-6.293,13.292,13.292,0,0,0,2.562-8.213q0-5.866-3.468-8.907t-9.44-3.041a15.43,15.43,0,0,0-12.908,6.721q-3.095,0-3.093-2.24l-1.493-5.44q.851-2.24,6.079-3.627A29.21,29.21,0,0,1,850.367,361.1Zm2.026,59.949a5.414,5.414,0,0,1,3.736,1.44,4.619,4.619,0,0,1,1.6,3.573,4.682,4.682,0,0,1-1.546,3.573,5.221,5.221,0,0,1-3.68,1.44,5.468,5.468,0,0,1-3.788-1.387,4.966,4.966,0,0,1,0-7.2A5.216,5.216,0,0,1,852.393,421.052Z" transform="translate(-836.927 -361.103)"/></g></g></g></g></svg>