<svg xmlns="http://www.w3.org/2000/svg" xmlns:xlink="http://www.w3.org/1999/xlink" width="571.196" height="525.237" viewBox="0 0 571.196 525.237"><defs><style>.a,.h{fill:none;}.b{clip-path:url(#a);}.c{fill:#fcb95d;}.c,.d,.f,.h{fill-rule:evenodd;}.d{fill:#4a5e3a;}.e,.f{fill:#243330;}.g{fill:#171f1c;}.h{stroke:#a1dd70;stroke-miterlimit:10;stroke-width:3.046px;}</style><clipPath id="a"><rect class="a" width="571.196" height="525.237"/></clipPath></defs><g transform="translate(-939.442 -368.118)"><g class="b" transform="translate(939.442 368.118)"><g transform="translate(197.365 291.726)"><path class="c" d="M1472.607,735.439c-3.162,1.3-92.592,57.42-124.5,49.839s-168.214-109.286-195.748-143.953c0,0,45.866,3.859,49.087,3.5s155.941,75.168,171.71,73.7c5.382-.5,40.351-39.879,95.051-47.855S1472.607,735.439,1472.607,735.439Z" transform="translate(-1064.611 -567.205)"/><path class="c" d="M1211.1,650.224c-2.829-1.765-30.771-30.854-47.914-35.731s-43.156-10.1-51.616-14.751c-9.952-5.47-13.586-.724-2.388,7.042,7.278,5.048,22.527,13.527,26.107,14.305,1.734.378-9.327-3.391-21.145-8.6-12.565-5.533-26.025-12.459-27.208-9.683-2.291,5.382,33.37,24.228,39.9,26.222a139.071,139.071,0,0,1-17.152-5.538c-7.641-3.049-16.128-8.017-18.291-6.284-3.408,2.729,14.927,15.741,31.025,21.317.169.708-5.389.854-24.029-7.365-1.873-.826-7.069-.6-1.3,4.119,12.136,9.931,16.668,15.353,36.157,19.347,19,3.9,41.015,2.548,53.742,10.493Z" transform="translate(-1086.83 -582.105)"/><path class="c" d="M1160.02,621.873s-11.321-21.567-27.383-27.471c-9.548-3.508-8.758-6.529-10.276-7.72-5.044-3.952-1.96,9.707,5.842,14.37,6.341,3.79,7.532,18.752,11.081,22.472s14.809,11.325,18.234,9.858S1160.02,621.873,1160.02,621.873Z" transform="translate(-1075.617 -585.974)"/><path class="c" d="M1187.071,636.844s6.072,5.95,28.979,16.634-14.055,10.634-14.055,10.634l-44.3-19.972Z" transform="translate(-1062.802 -568.725)"/></g><g transform="translate(-353.285 155.958)"><path class="d" d="M1027.485,948.32c-17.606-13.831-63.739-46.4-99.934-25.938s-26.841,65.441-42.5,84.448-90.676-29.207-168.134,54.077c-89.173,95.881-15.065,169.99,45.341,219.756,62.186,51.232,161.276,28.565,211.489-32.382,47.642-57.826,10.733-113.958,30.188-137.574s48.652-27.719,60.834-39.808c12.245-12.147,15.56-20.055,8.071-26.226s-23.146,6.249-39.35-10.828c-16.085-16.947-9.976-44.318,3.309-60.445S1035.133,954.333,1027.485,948.32Z" transform="translate(-675.615 -338.365)"/><path class="d" d="M900.447,1099.657l35.473,29.225,440.939-541.466L1348.2,563.8Z" transform="translate(-599.379 -457.723)"/><path class="d" d="M1234.488,594.627l3.711-29c1.6-12.539,87.517-68.285,114.533-77.177,7.515-2.472,15.754-.419,13.064,8.234l-8.415,27.062c-2.283,7.341-23.845,7.065-35.757,31.874l-18.782,39.128c-3.433,7.151-13.509,3.909-23.729,8.152s-13.719,8.483-19.583,15.123S1229.426,605.1,1234.488,594.627Z" transform="translate(-486.347 -483.603)"/><rect class="e" width="5.328" height="11.436" transform="matrix(0.841, -0.541, 0.541, 0.841, 839.429, 9.387)"/><path class="f" d="M1301.2,497.973a15.08,15.08,0,0,0,12.311-7.757l-3.386-5.271c-1.655-.9-7.391-.687-12.356,7.5Z" transform="translate(-464.656 -484.584)"/><rect class="e" width="5.33" height="11.437" transform="matrix(0.841, -0.54, 0.54, 0.841, 821.27, 19.906)"/><path class="f" d="M1287.64,505.828a15.083,15.083,0,0,0,12.306-7.753l-3.388-5.276c-1.65-.9-7.386-.683-12.35,7.5Z" transform="translate(-469.253 -481.921)"/><rect class="e" width="5.328" height="11.438" transform="translate(803.788 31.027) rotate(-32.695)"/><path class="f" d="M1274.584,514.134a15.065,15.065,0,0,0,12.306-7.755l-3.384-5.272c-1.655-.9-7.386-.683-12.354,7.5Z" transform="translate(-473.68 -479.104)"/><rect class="e" width="5.328" height="11.438" transform="matrix(0.842, -0.54, 0.54, 0.842, 786.487, 42.78)"/><path class="f" d="M1261.662,522.911a15.087,15.087,0,0,0,12.308-7.755l-3.385-5.272c-1.655-.9-7.391-.687-12.352,7.5Z" transform="translate(-478.061 -476.128)"/><rect class="e" width="5.328" height="11.438" transform="translate(770.243 54.744) rotate(-32.695)"/><path class="f" d="M1249.532,531.845a15.078,15.078,0,0,0,12.307-7.753l-3.384-5.273c-1.654-.9-7.391-.686-12.357,7.5Z" transform="translate(-482.175 -473.099)"/><rect class="e" width="5.329" height="11.437" transform="translate(754.536 69.114) rotate(-32.708)"/><path class="f" d="M1237.8,542.576a15.068,15.068,0,0,0,12.306-7.755l-3.384-5.273c-1.652-.9-7.386-.682-12.352,7.5Z" transform="translate(-486.151 -469.46)"/><circle class="g" cx="57.715" cy="57.715" r="57.715" transform="translate(172.674 703.549)"/><g transform="translate(118.245 61.491)"><path class="h" d="M1405.689,541.234l-2.152,30.223L779.21,1319.674" transform="translate(-758.733 -526.867)"/><path class="h" d="M791.445,1336.624l620.468-754.187,5.331-51.932" transform="translate(-754.585 -530.505)"/><path class="h" d="M774.993,1114.795l37.506,31.811-11.719,12.776-36.861-32.073Z" transform="translate(-763.918 -332.384)"/></g></g></g></g></svg>