<svg xmlns="http://www.w3.org/2000/svg" xmlns:xlink="http://www.w3.org/1999/xlink" width="588" height="329.411" viewBox="0 0 588 329.411"><defs><style>.a{fill:url(#a);}.b{fill:#fff;}.c{fill:url(#b);}</style><linearGradient id="a" x1="0.351" y1="-0.1" x2="0.626" y2="1.074" gradientUnits="objectBoundingBox"><stop offset="0" stop-color="#bddce7"/><stop offset="0.029" stop-color="#bddce7"/><stop offset="1" stop-color="#f3f7fa"/></linearGradient><linearGradient id="b" y1="0.5" x2="1" y2="0.5" gradientUnits="objectBoundingBox"><stop offset="0" stop-color="#ff93b1"/><stop offset="0.048" stop-color="#ff93b1"/><stop offset="0.29" stop-color="#ffa0ac"/><stop offset="0.484" stop-color="#ffb4a3"/><stop offset="0.737" stop-color="#ffc19e"/><stop offset="0.881" stop-color="#ffd395"/><stop offset="1" stop-color="#ffd694"/></linearGradient></defs><g transform="translate(-335.531 -347.953)"><path class="a" d="M413.106,401.362c11.8-37.145,80.66-55.025,133.884-51,58.577,4.425,63.819,32.78,116.883,34,64.654,1.489,74.367-40.2,131.758-36.128,55.738,3.956,116.977,48.279,125.383,104.132,2.555,16.978-4.7,16.562-6.375,51-2.561,52.8,12.463,66.557,4.25,93.505-10.9,35.771-50.073,53.186-59.5,57.379-35.514,15.789-56.127,4.576-142.384-2.125-61.977-4.814-92.966-7.222-127.508-2.125-72.513,10.7-91.019,37.41-125.383,23.377-32.509-13.276-54.571-52.953-55.253-87.131-.791-39.657,27.715-46.4,29.752-89.255C440.98,447.066,403.443,431.786,413.106,401.362Z" transform="translate(-11.281)"/><path class="b" d="M540.611,659.548h-1.384c2.087,0,3.777-2.148,3.777-4.8s-1.691-4.8-3.777-4.8h-5.149c-2.086,0-3.776-2.148-3.776-4.8s1.69-4.8,3.776-4.8h16.866c2.086,0,3.776-2.148,3.776-4.8s-1.691-4.8-3.776-4.8H470.377c-2.086,0-3.776-2.148-3.776-4.8s1.691-4.8,3.776-4.8h32.56c2.086,0,3.777-2.148,3.777-4.8s-1.691-4.8-3.777-4.8H375.865c-2.086,0-3.777,2.148-3.777,4.8s1.691,4.8,3.777,4.8H383.6c2.087,0,3.777,2.148,3.777,4.8s-1.691,4.8-3.777,4.8h-44.29c-2.087,0-3.777,2.148-3.777,4.8s1.691,4.8,3.777,4.8h65.949c2.085,0,3.776,2.148,3.776,4.8s-1.691,4.8-3.776,4.8H363.876c-2.086,0-3.776,2.148-3.776,4.8s1.691,4.8,3.776,4.8H540.611Z" transform="translate(0 -40.564)"/><path class="b" d="M940.958,419.55h3.38c-1.88,0-3.4,1.937-3.4,4.325s1.524,4.326,3.4,4.326h7.284c1.88,0,3.4,1.937,3.4,4.325s-1.524,4.325-3.4,4.325H936.469c-1.88,0-3.4,1.937-3.4,4.326s1.525,4.325,3.4,4.325h65.047c1.88,0,3.4-1.937,3.4-4.325s-1.524-4.326-3.4-4.326h-4.642c-1.88,0-3.4-1.937-3.4-4.325s1.525-4.325,3.4-4.325h15.2c1.88,0,3.4-1.937,3.4-4.326s-1.524-4.325-3.4-4.325H940.958Z" transform="translate(-91.949 -11.018)"/><path class="c" d="M528.47,504.4l.607-5.866.152-1.464.151-1.218.3-2.434.3-2.435.151-1.218.151-1.04.607-4.032.6-3.985.607-3.4.151-.836.151-.742.3-1.484c.2-.979.4-2.035.606-2.814l.607-2.528.15-.624.152-.521.3-1.042.606-2.07c.2-.57.4-1.2.606-1.722a16.009,16.009,0,0,1,2.424-4.6,3.777,3.777,0,0,1,1.211-.992,2.146,2.146,0,0,1,.606-.187.723.723,0,0,1,.607.138c.808.58,1.616,2.836,2.423,6.85.1.488.2.885.3,1.449l.3,1.712.3,1.712.3,1.914c.4,2.5.808,5.448,1.212,8.277l1.212,8.342.606,4.094.606,3.531c.051.278.1.609.151.842l.151.712.3,1.426c.2,1.021.4,1.743.6,2.48l.3.946c.1.3.2.5.3.76a3.361,3.361,0,0,0,.606,1.042c.4.459.808.435,1.212-.061a3.253,3.253,0,0,0,.606-1.135c.1-.3.2-.74.3-1.1.05-.16.1-.47.151-.713l.151-.772c.1-.55.2-1.262.3-1.886l.3-2.452.151-1.245.076-.623c.025-.2.05-.412.075-.7l.3-3.177.151-1.589.076-.892.075-1,.3-4,.607-8.034,1.212-18.361.607-9.046.151-2.081.152-1.872.3-3.746.3-3.746.151-1.872.151-1.474.3-2.822.075-.706c.025-.26.051-.37.076-.562l.151-1.037c.4-3.127.808-4.761,1.213-5.406.807-1.031,1.615,1.2,2.423,6.722l.3,2.216.151,1.108.152,1.438.605,5.978.3,2.989.075.747.076.889.151,1.848.606,7.389,2.424,29.7c1.616,17.542,3.232,24.982,4.847,21.216l.151-.383a3.608,3.608,0,0,0,.152-.443l.3-1.009c.05-.146.1-.377.151-.606l.152-.674.3-1.347.3-1.349.3-1.522.607-3.008c.4-1.751.807-3.8,1.212-5.006.1-.371.2-.583.3-.882.1-.221.2-.484.3-.657a1.8,1.8,0,0,1,.606-.75c.4-.232.808.074,1.212,1.06a8.759,8.759,0,0,1,.3.883c.1.332.2.591.3,1.052l.3,1.255.3,1.584.3,1.584.151.8.151.9.606,3.569.606,3.333.076.416.076.344.151.685.151.679.151.538c.4,1.551.808,2.3,1.212,2.293s.808-.85,1.213-2.2c.808-2.887,1.616-7.883,2.423-15.552l.3-2.631.3-2.857.606-5.872.606-5.688.3-2.818.151-1.409.076-.632.075-.573.606-4.582.3-2.243.3-1.7a18.379,18.379,0,0,1,1.212-4.548q.3-.581.606-.65c.2-.082.4.118.606.736.1.4.2.662.3,1.235l.075.382c.025.128.051.239.075.437l.152,1.061.151,1.062.075.531.076.7.3,2.86.606,7.425.151,1.872.151,2.186.3,4.417.606,8.762.3,4.35.075,1.088.076.9.151,1.775.3,3.55L596.8,500l.075.872.076.646.3,2.587.3,1.83c.4,2.4.808,2.723,1.212,1.923a14.487,14.487,0,0,0,1.212-3.943c.1-.4.2-1.085.3-1.666l.3-1.8.151-.9c.025-.135.051-.316.076-.519l.075-.577.3-2.309c.808-6.783,1.616-14.954,2.424-24.256l1.213-13.352.3-3.282.3-2.764.606-5.527.3-2.763.3-2.14.3-2.09.076-.523.076-.426.151-.844c.1-.6.2-1.053.3-1.516l.151-.7.152-.57a10.947,10.947,0,0,1,.606-1.83,1.792,1.792,0,0,1,.606-.8c.1-.051.2-.1.3,0a1.546,1.546,0,0,1,.3.6c.051.164.1.4.151.591l.076.306.075.414.152.866.151,1.219.152,1.219.075.609c.025.175.051.446.076.736l.3,3.34.606,8.731.152,2.228.151,2.571.3,5.4,1.212,20.875.607,10.132.3,3.831c.051.7.1,1.128.151,1.644l.152,1.507.151,1.506.151,1.087.3,2.095.151.7.076.344.075.263c.051.188.1.284.151.431l.151.311c.808,1.718,1.616,1.951,2.424.767a7.263,7.263,0,0,0,.606-1.1c.2-.438.4-.979.607-1.484.4-1.115.808-2.341,1.212-3.549.2-.62.4-1.164.606-1.735.2-.555.4-1.017.606-1.519.2-.387.4-.844.607-1.174a4.077,4.077,0,0,1,.606-.793c.808-.759,1.616-.407,2.424,1.18a51.658,51.658,0,0,1,2.423,7.285c.1.359.2.684.3.985l.3.934.3.932.3.783c.1.28.2.466.3.692s.2.453.3.618a5.158,5.158,0,0,0,.606.9c.4.5.808.595,1.212.091a11.19,11.19,0,0,0,1.212-2.516,7.454,7.454,0,0,1,1.212-2.316c.4-.4.808-.294,1.212.168a4.57,4.57,0,0,1,.606.98c.2.443.4.958.606,1.441.4,1.094.808,2.226,1.212,3.086.4.824.808,1.272,1.212,1.181a.736.736,0,0,0,.3-.145.619.619,0,0,0,.151-.145,1.16,1.16,0,0,0,.076-.2c.025-.08.051-.25.075-.37.051-.176.1-.745.152-1.185l.075-.691c.025-.182.05-.513.076-.91l.3-4.391.3-4.308.075-1.075c.025-.363.051-.751.076-.9l.151-1.275a2.7,2.7,0,0,1,.075-.455c.025-.1.051-.235.076-.316.051-.13.1-.194.151-.148a.7.7,0,0,1,.151.366l.075.3.076.557c.4,3.005.808,10.571,1.212,13.7l.076.585.076.323a.992.992,0,0,0,.151.417c.1.094.2-.031.3-.31l.075-.251.076-.358.075-.36.076-.488.075-.495.076-.725.151-1.451.606-5.838.151-1.469.076-.734c.025-.27.05-.474.075-.622a15.6,15.6,0,0,1,.3-1.657c.2-.629.4-1.242.606,1.171l.076.764.076,1.236.151,2.473.3,4.827c.4,7.2.808,3.716,1.212-4.715l.3-5.484.151-2.7c.025-.393.051-1.032.076-1.206l.075-.794a7.191,7.191,0,0,1,.3-2c.05-.07.1-.018.151.072a1.622,1.622,0,0,1,.076.174l.075.268.076.365.076.594.151,1.19.076.625.076,1,.151,1.99.606,8.039.151,2.03.076,1.015c.025.349.05.464.075.708l.152,1.282.076.641c.025.181.05.261.075.4.1.568.2.809.3.868a.617.617,0,0,0,.3.154c.4.064.808-.5,1.213-1.59l.3-.9.3-1.048.606-2.153a16.287,16.287,0,0,1,1.213-3.335,1.221,1.221,0,0,1,.606-.586c.1,0,.2-.147.3.24a5.649,5.649,0,0,1,.151.818l.075.5.076.778.606,6.278c.1.741.2,1.084.3,1.09a1.235,1.235,0,0,0,.3-.624l.152-.544.151-.841.151-.845c.025-.161.051-.238.076-.468l.076-.62.606-4.979.3-2.517.3-2.089.151-.774c.051-.259.1-.39.151-.591a1.539,1.539,0,0,1,.3-.682q.3-.28.606.855l.152.662c.05.2.1.564.151.838l.076.455.075.627.152,1.256,1.212,9.911.152.856c.051.251.1.432.151.651a2.7,2.7,0,0,0,.3.838.258.258,0,0,0,.3.138,1.055,1.055,0,0,0,.3-.069,2.706,2.706,0,0,0,1.213-1.08c1.616-2.223,3.231-8.889,4.848-12.945l.3-.738.3-.62a8,8,0,0,1,.606-1.093,3.181,3.181,0,0,1,1.211-1.193.8.8,0,0,1,.607-.079,1.45,1.45,0,0,1,.606.623,14.954,14.954,0,0,1,1.212,3.563l.3,1.156.3,1.35.607,2.667.3,1.3.152.651.151.568c.2.794.4,1.372.606,1.968.4,1.047.808,1.581,1.212,1.507a.958.958,0,0,0,.607-.529,7.423,7.423,0,0,0,.606-1.686c.1-.371.2-.916.3-1.366.051-.248.1-.448.151-.734l.151-.9c.2-1.063.4-2.749.606-4.2l.3-2.268.3-2.581.607-5.113c.2-1.643.4-3.505.606-4.761l.3-2.082c.1-.685.2-1.452.3-1.9.4-2.244.808-3.511,1.212-3.907.808-.41,1.615.613,2.423,2.591l.607,1.733.606,2.126.606,2.461.606,2.8,1.212,5.733.606,2.9.606,2.593a35.739,35.739,0,0,0,2.424,7.864,3.919,3.919,0,0,0,1.212,1.618c.4.168.808-.235,1.212-1.228.807-1.927,1.615-6.4,2.423-9.14a8.123,8.123,0,0,1,1.212-2.97c.2-.224.4-.34.606-.292.1.046.2.19.3.452.051.112.1.327.152.485a5.964,5.964,0,0,1,.151.624l.076.35.075.449.151.932c.051.331.1.577.151.976l.152,1.125.606,4.312a17.25,17.25,0,0,0,.606,3.092c.2.636.4.822.606.607.4-.381.808-3.087,1.212-5.544.1-.666.2-1.118.3-1.657.051-.262.1-.541.152-.711a5.145,5.145,0,0,1,.151-.539c.2-.651.4-.835.606-.651.808.265,1.616,9.483,2.424,10.121.808.274,1.616-3.033,2.424-8.366l.3-2.077.3-2.567.606-5.231.151-1.308.152-1.474.3-3.021.606-6.04.607-5.933c.2-1.95.4-4.093.606-5.585l.606-4.92.152-1.23c.051-.41.1-.849.151-1.117l.3-1.856a26.644,26.644,0,0,1,1.212-5.162,2.35,2.35,0,0,1,.606-.957c.1-.064.2-.128.3-.071a1.738,1.738,0,0,1,.3.876l.076.377.075.509.075.526.076.743c.1,1.019.2,1.838.3,3.344l.151,2.025.151,2.911.3,5.891,1.212,23.763.3,5.844.3,3.7.152,1.849c.025.278.051.683.076.857l.075.511a15.167,15.167,0,0,0,.3,1.745c.1.416.2.477.3.54a.812.812,0,0,0,.3.134.716.716,0,0,0,.6-.178,2.8,2.8,0,0,0,.607-.777,12.232,12.232,0,0,0,.606-1.351c.4-1.058.808-2.548,1.213-3.919.4-1.423.807-2.934,1.212-4.172.2-.569.4-1.186.606-1.609a6.168,6.168,0,0,1,.606-1.172c.808-1.17,1.616-.93,2.424.783a21.173,21.173,0,0,1,1.213,3.467l1.212,4.3.606,1.964c.2.558.4,1.134.607,1.543a3.682,3.682,0,0,0,1.212,1.724c.4.2.808-.268,1.212-1.251.1-.219.2-.528.3-.806l.3-.861.3-.892c.1-.3.2-.525.3-.791.808-2.167,1.617-2.211,2.425.009l.3.807.3.915.3.878c.1.274.2.608.3.824l.151.354.151.287a1.87,1.87,0,0,0,.3.437.461.461,0,0,0,.606.128c.2-.108.4-.389.607-1,.05-.141.1-.336.151-.5l.152-.649.151-.68.151-.84c.1-.472.2-1.361.3-2.08l.3-2.258.606-4.568.3-2.366.3-1.987.151-.976.076-.471.075-.366.152-.733c.05-.241.1-.375.151-.568.4-1.58.807-1.564,1.212-1a11.756,11.756,0,0,1,1.212,3.981l.3,1.554.152.8.151.935.607,3.75c.4,2.617.808,4.862,1.212,6.77l.151.635.076.316.075.25.3.962.151.369c.051.114.1.2.151.3a1.409,1.409,0,0,0,.3.412c3.232,3.631,6.464-19.41,9.7.544.2-.121.4-.527.606-1.227.2-.755.4-1.625.606-2.687l.3-1.527.152-.744.151-.641a6.543,6.543,0,0,1,.607-1.842.483.483,0,0,1,.606-.253,1.342,1.342,0,0,1,.606.3,2.987,2.987,0,0,1,.607.694c.1.156.2.283.3.46l.3.55c.808,1.575,1.616,3.83,2.425,5.086a2.19,2.19,0,0,0,1.212,1.113.931.931,0,0,0,.606-.08.917.917,0,0,0,.3-.209,2.072,2.072,0,0,0,.3-.535c.051-.107.1-.274.152-.409l.151-.542c.051-.2.1-.347.151-.58l.152-.716.075-.358.075-.45.152-.906c.1-.624.2-1.162.3-1.859l.607-4.177.3-2.019.3-1.707c.808-4.661,1.616-3.677,2.424-1.815a17.106,17.106,0,0,1,.606,2l.3,1.192.151.6c.051.2.1.468.151.7l1.213,5.814.606,2.546c.1.465.2.732.3,1.09l.151.508.151.4c.4,1.147.808,1.729,1.212,1.866.4.122.808-.383,1.212-1.431l.3-.883.3-1.055.607-2.386c.4-1.669.807-3.18,1.212-4.308.4-1.1.808-1.6,1.212-1.569.808.027,1.616,1.3,2.424,3.544.4,1.084.808,2.384,1.212,3.531a27.471,27.471,0,0,0,1.212,3.178c.808,1.75,1.615,2.2,2.424,1.535s1.616-2.374,2.423-5.022c.4-1.284.808-2.821,1.213-4.275L797.532,499c.808-2.64,1.616-4.555,2.424-5.206a1.239,1.239,0,0,1,.606-.29c.2-.038.4,0,.606.339a13.894,13.894,0,0,1,1.213,4.418l.3,1.652.3,1.94.606,3.885c.2,1.389.4,2.344.606,3.467l.152.818c.05.263.1.432.151.652l.151.624c.051.215.1.327.151.495a3.844,3.844,0,0,0,.606,1.347c.2.243.4.188.606.2a2.788,2.788,0,0,0,1.211-.289,8.417,8.417,0,0,0,2.424-2.119,15.243,15.243,0,0,1,2.424-2.4,3.757,3.757,0,0,1,1.212-.563,1.441,1.441,0,0,1,.606-.064c.2.055.4.3.606.663.4.759.808,2.152,1.212,2.954a1.612,1.612,0,0,0,.607.805c.2.109.4,0,.606-.01a8.016,8.016,0,0,0,2.424-.882,16.411,16.411,0,0,0,2.423-1.679c.809-.637,1.617-1.3,2.424-1.9a8.389,8.389,0,0,1,4.848-1.883,11.1,11.1,0,0,1,4.848.839,12.12,12.12,0,0,1,4.847,3.718v6.329a12.12,12.12,0,0,1-4.847,3.718,11.11,11.11,0,0,1-4.848.839,8.389,8.389,0,0,1-4.848-1.883c-.807-.6-1.615-1.262-2.424-1.9a16.493,16.493,0,0,0-2.423-1.68,8.014,8.014,0,0,0-2.424-.881c-.2-.013-.4-.12-.606-.011a1.616,1.616,0,0,0-.607.806c-.4.8-.807,2.195-1.212,2.953-.2.367-.4.609-.606.663a1.427,1.427,0,0,1-.606-.063,3.754,3.754,0,0,1-1.212-.564,15.25,15.25,0,0,1-2.424-2.4,8.444,8.444,0,0,0-2.424-2.119,2.786,2.786,0,0,0-1.211-.288c-.2.017-.4-.038-.606.2a3.844,3.844,0,0,0-.606,1.347c-.051.168-.1.28-.151.495l-.151.624c-.051.22-.1.388-.151.652l-.152.818c-.2,1.123-.4,2.078-.606,3.467l-.606,3.885-.3,1.939-.3,1.653a13.9,13.9,0,0,1-1.213,4.418c-.2.342-.4.377-.606.339a1.246,1.246,0,0,1-.606-.29c-.808-.651-1.616-2.566-2.424-5.206l-1.212-4.307c-.4-1.454-.808-2.991-1.213-4.275-.807-2.647-1.615-4.369-2.423-5.022s-1.616-.215-2.424,1.535a27.41,27.41,0,0,0-1.212,3.178c-.4,1.147-.807,2.446-1.212,3.531-.808,2.245-1.616,3.516-2.424,3.544-.4.027-.808-.466-1.212-1.569-.4-1.129-.808-2.638-1.212-4.308l-.607-2.385-.3-1.055-.3-.883c-.4-1.047-.808-1.553-1.212-1.431s-.807.718-1.212,1.866l-.151.4-.151.508c-.1.358-.2.625-.3,1.091l-.606,2.546-1.213,5.814c-.051.23-.1.5-.151.7l-.151.6-.3,1.192a17.092,17.092,0,0,1-.606,1.994c-.808,1.862-1.616,2.846-2.424-1.814l-.3-1.707-.3-2.02-.607-4.176c-.1-.7-.2-1.234-.3-1.859l-.152-.907-.075-.45-.075-.357-.152-.716c-.05-.234-.1-.384-.151-.581l-.151-.542c-.051-.134-.1-.3-.152-.409a2.073,2.073,0,0,0-.3-.535,1.042,1.042,0,0,0-.909-.289,2.187,2.187,0,0,0-1.212,1.113c-.809,1.255-1.617,3.511-2.425,5.086l-.3.549c-.1.178-.2.305-.3.46a2.994,2.994,0,0,1-.607.695,1.341,1.341,0,0,1-.606.3.482.482,0,0,1-.606-.254,6.525,6.525,0,0,1-.607-1.841l-.151-.641-.152-.744-.3-1.527c-.2-1.063-.4-1.933-.606-2.687-.2-.7-.4-1.106-.606-1.228-3.232,19.955-6.464-3.086-9.7.544a1.413,1.413,0,0,0-.3.413c-.05.1-.1.181-.151.3l-.151.369-.3.962-.075.249-.076.317-.151.635c-.4,1.908-.808,4.153-1.212,6.77l-.607,3.75-.151.935-.152.8-.3,1.555a11.764,11.764,0,0,1-1.212,3.981c-.4.566-.808.58-1.212-1-.051-.193-.1-.327-.151-.568l-.152-.733-.075-.366-.076-.472-.151-.976-.3-1.987-.3-2.366-.606-4.569-.3-2.258c-.1-.719-.2-1.608-.3-2.08l-.151-.84-.151-.68-.152-.649c-.05-.166-.1-.36-.151-.5-.2-.612-.4-.893-.607-1a.46.46,0,0,0-.606.128,1.868,1.868,0,0,0-.3.437l-.151.287-.151.354c-.1.216-.2.55-.3.824l-.3.878-.3.915-.3.806c-.808,2.221-1.617,2.176-2.425.009-.1-.266-.2-.492-.3-.79l-.3-.892-.3-.86c-.1-.278-.2-.587-.3-.806-.4-.982-.808-1.455-1.212-1.251a3.683,3.683,0,0,0-1.212,1.724c-.2.409-.4.985-.607,1.543l-.606,1.964-1.212,4.3a21.177,21.177,0,0,1-1.213,3.467c-.808,1.712-1.616,1.952-2.424.783a6.17,6.17,0,0,1-.606-1.172c-.2-.423-.4-1.041-.606-1.609-.4-1.238-.808-2.749-1.212-4.172-.4-1.372-.808-2.862-1.213-3.919a12.35,12.35,0,0,0-.606-1.352,2.8,2.8,0,0,0-.607-.776.717.717,0,0,0-.6-.178.84.84,0,0,0-.3.134c-.1.063-.2.124-.3.541a15.138,15.138,0,0,0-.3,1.745l-.075.511c-.025.174-.051.579-.076.857l-.152,1.849-.3,3.7-.3,5.845-1.212,23.763-.3,5.891-.151,2.912-.151,2.025c-.1,1.506-.2,2.325-.3,3.343l-.076.743-.075.527-.075.509-.076.377a1.738,1.738,0,0,1-.3.876c-.1.057-.2-.007-.3-.071a2.349,2.349,0,0,1-.606-.958,26.632,26.632,0,0,1-1.212-5.162l-.3-1.856c-.051-.267-.1-.706-.151-1.116l-.152-1.23-.606-4.92c-.2-1.493-.4-3.635-.606-5.585l-.607-5.934-.606-6.039-.3-3.021-.152-1.474-.151-1.308-.606-5.231-.3-2.567-.3-2.077c-.808-5.332-1.616-8.64-2.424-8.366-.808.638-1.616,9.856-2.424,10.121-.2.185-.4,0-.606-.651a5.2,5.2,0,0,1-.151-.539c-.051-.17-.1-.449-.152-.711-.1-.54-.2-.992-.3-1.658-.4-2.455-.808-5.162-1.212-5.544-.2-.215-.4-.029-.606.607a17.284,17.284,0,0,0-.606,3.093l-.606,4.311-.152,1.124c-.05.4-.1.646-.151.976l-.151.932-.075.449-.076.35a5.959,5.959,0,0,1-.151.624c-.051.158-.1.373-.152.484-.1.262-.2.407-.3.453-.2.048-.4-.068-.606-.293a8.117,8.117,0,0,1-1.212-2.969c-.808-2.745-1.616-7.213-2.423-9.14-.4-.993-.808-1.4-1.212-1.228a3.913,3.913,0,0,0-1.212,1.618,35.74,35.74,0,0,0-2.424,7.864l-.606,2.593-.606,2.9-1.212,5.732-.606,2.8-.606,2.461-.606,2.125-.607,1.733c-.808,1.979-1.615,3-2.423,2.591-.4-.4-.809-1.663-1.212-3.906-.1-.446-.2-1.214-.3-1.9l-.3-2.082c-.2-1.257-.4-3.118-.606-4.761l-.607-5.113-.3-2.582-.3-2.267c-.2-1.455-.4-3.143-.606-4.2l-.151-.9c-.051-.287-.1-.486-.151-.734-.1-.449-.2-1-.3-1.366a7.4,7.4,0,0,0-.606-1.686.963.963,0,0,0-.607-.53c-.4-.073-.808.46-1.212,1.508-.2.6-.4,1.173-.606,1.968l-.151.568-.152.652-.3,1.3-.607,2.666-.3,1.351-.3,1.156a14.968,14.968,0,0,1-1.212,3.563,1.442,1.442,0,0,1-.606.622.8.8,0,0,1-.607-.078,3.188,3.188,0,0,1-1.211-1.193,8.068,8.068,0,0,1-.606-1.094l-.3-.619-.3-.738c-1.617-4.055-3.232-10.723-4.848-12.946A2.709,2.709,0,0,0,663,513.784a1.052,1.052,0,0,0-.3-.069.257.257,0,0,0-.3.138,2.677,2.677,0,0,0-.3.838c-.05.219-.1.4-.151.651l-.152.855-1.212,9.911-.152,1.255-.075.628-.076.455c-.05.274-.1.634-.151.838l-.152.662c-.2.756-.4,1.042-.606.855a1.529,1.529,0,0,1-.3-.681c-.05-.2-.1-.333-.151-.591l-.151-.775-.3-2.088-.3-2.517-.606-4.979-.076-.621c-.025-.229-.051-.306-.076-.467l-.151-.845-.151-.842-.152-.543a1.236,1.236,0,0,0-.3-.624c-.1.006-.2.349-.3,1.09l-.606,6.278-.076.778-.075.5a5.668,5.668,0,0,1-.151.818c-.1.387-.2.238-.3.24a1.228,1.228,0,0,1-.606-.586,16.308,16.308,0,0,1-1.213-3.335l-.606-2.154-.3-1.047-.3-.9c-.4-1.087-.808-1.654-1.213-1.589a.61.61,0,0,0-.3.154c-.1.059-.2.3-.3.867-.025.136-.051.217-.075.4l-.076.64-.152,1.281c-.025.245-.051.36-.075.709l-.076,1.015-.151,2.03-.606,8.039-.151,1.99-.076.994-.076.626-.151,1.19-.076.594-.076.365-.075.268a1.7,1.7,0,0,1-.076.174c-.05.09-.1.142-.151.072a7.2,7.2,0,0,1-.3-2l-.075-.794c-.025-.173-.051-.813-.076-1.206l-.151-2.7-.3-5.484c-.4-8.432-.808-11.915-1.212-4.715l-.3,4.827-.151,2.472-.076,1.237-.076.764c-.2,2.412-.4,1.8-.606,1.171a15.58,15.58,0,0,1-.3-1.658c-.025-.147-.05-.352-.075-.622l-.076-.734-.151-1.469-.606-5.838-.151-1.451-.076-.725-.075-.495-.076-.488-.075-.36-.076-.358-.075-.251c-.1-.278-.2-.4-.3-.31a.991.991,0,0,0-.151.417l-.076.323-.076.585c-.4,3.132-.808,10.7-1.212,13.7l-.076.558-.075.3a.7.7,0,0,1-.151.366c-.051.046-.1-.018-.151-.148-.025-.082-.051-.212-.076-.316a2.715,2.715,0,0,1-.075-.455l-.151-1.275c-.025-.153-.051-.542-.076-.9l-.075-1.075-.3-4.308-.3-4.391c-.026-.4-.051-.728-.076-.91l-.075-.691c-.051-.439-.1-1.009-.152-1.185-.025-.12-.05-.289-.075-.37a1.2,1.2,0,0,0-.076-.206.615.615,0,0,0-.151-.145.736.736,0,0,0-.3-.145c-.4-.091-.808.357-1.212,1.18-.4.86-.808,1.993-1.212,3.087-.2.483-.4,1-.606,1.441a4.591,4.591,0,0,1-.606.98c-.4.461-.808.564-1.212.168A7.448,7.448,0,0,1,632.7,519.8a11.174,11.174,0,0,0-1.212-2.516c-.4-.505-.808-.405-1.212.091a5.153,5.153,0,0,0-.606.9c-.1.167-.2.408-.3.619s-.2.411-.3.692l-.3.783-.3.932-.3.933c-.1.3-.2.627-.3.986a51.659,51.659,0,0,1-2.423,7.285c-.808,1.586-1.616,1.938-2.424,1.179a4.072,4.072,0,0,1-.606-.793c-.2-.33-.4-.786-.607-1.174-.2-.5-.4-.964-.606-1.519-.2-.57-.4-1.115-.606-1.735-.4-1.207-.808-2.433-1.212-3.549-.2-.5-.4-1.045-.607-1.484a7.286,7.286,0,0,0-.606-1.1c-.808-1.184-1.616-.951-2.424.767l-.151.311c-.051.146-.1.243-.151.431l-.075.262-.076.344-.151.7-.3,2.1-.151,1.087-.151,1.506-.152,1.507c-.051.515-.1.945-.151,1.644l-.3,3.831-.607,10.131L612.1,565.826l-.3,5.4-.151,2.571-.152,2.229-.606,8.73-.3,3.34c-.025.291-.051.562-.076.737l-.075.609-.152,1.219-.151,1.219-.152.866-.075.414-.076.305c-.05.2-.1.428-.151.592a1.56,1.56,0,0,1-.3.605c-.1.1-.2.052-.3,0a1.793,1.793,0,0,1-.606-.8,10.938,10.938,0,0,1-.606-1.831l-.152-.57-.151-.7c-.1-.463-.2-.914-.3-1.515l-.151-.844-.076-.427-.076-.522-.3-2.091-.3-2.139-.3-2.763-.606-5.528-.3-2.763-.3-3.282-1.213-13.353c-.808-9.3-1.616-17.472-2.424-24.255l-.3-2.309-.075-.577c-.025-.2-.051-.384-.076-.519l-.151-.9-.3-1.8c-.1-.581-.2-1.266-.3-1.667a14.481,14.481,0,0,0-1.212-3.942c-.4-.8-.808-.481-1.212,1.923l-.3,1.83-.3,2.587-.076.646-.075.871-.151,1.775-.3,3.55-.151,1.775-.076.9-.075,1.088-.3,4.35-.606,8.762-.3,4.417-.151,2.186-.151,1.872-.606,7.425-.3,2.86-.076.7-.075.531-.151,1.061-.152,1.062c-.025.2-.05.308-.075.437l-.075.382c-.1.574-.2.838-.3,1.236-.2.618-.4.817-.606.736q-.3-.068-.606-.651a18.356,18.356,0,0,1-1.212-4.548l-.3-1.7-.3-2.243-.606-4.582-.075-.573-.076-.632-.151-1.409-.3-2.818-.606-5.688-.606-5.872-.3-2.856-.3-2.631c-.807-7.668-1.615-12.665-2.423-15.552-.4-1.351-.809-2.208-1.213-2.2s-.808.742-1.212,2.294l-.151.538-.151.679-.151.684-.076.345-.076.416-.606,3.333-.606,3.569-.151.9-.151.8-.3,1.583-.3,1.584-.3,1.255c-.1.461-.2.72-.3,1.053a8.664,8.664,0,0,1-.3.882c-.4.987-.807,1.293-1.212,1.061a1.8,1.8,0,0,1-.606-.75c-.1-.173-.2-.437-.3-.657-.1-.3-.2-.51-.3-.882-.4-1.2-.808-3.255-1.212-5.006l-.607-3.008-.3-1.523-.3-1.348-.3-1.347-.152-.674c-.051-.228-.1-.46-.151-.606l-.3-1.009a3.623,3.623,0,0,0-.152-.443l-.151-.382c-1.615-3.767-3.231,3.674-4.847,21.215l-2.424,29.7-.606,7.39-.151,1.847-.076.888-.075.747-.3,2.989-.605,5.979-.152,1.438-.151,1.108-.3,2.216c-.808,5.526-1.616,7.754-2.423,6.722-.4-.646-.809-2.279-1.213-5.406l-.151-1.037c-.025-.192-.051-.3-.076-.563l-.075-.7-.3-2.822-.151-1.474-.151-1.873-.3-3.745-.3-3.746L557.1,582.9l-.151-2.081-.607-9.046-1.212-18.361-.607-8.034-.3-4-.075-1-.076-.893-.151-1.588-.3-3.177c-.025-.287-.051-.5-.075-.7l-.076-.623-.151-1.246-.3-2.452c-.1-.623-.2-1.335-.3-1.885l-.151-.772c-.051-.244-.1-.553-.151-.713-.1-.363-.2-.808-.3-1.1a3.259,3.259,0,0,0-.606-1.136c-.4-.495-.808-.519-1.212-.06a3.34,3.34,0,0,0-.606,1.042c-.1.256-.2.461-.3.76l-.3.946c-.2.737-.4,1.459-.6,2.48l-.3,1.426-.151.712c-.051.233-.1.564-.151.842l-.606,3.531-.606,4.094-1.212,8.342c-.4,2.829-.808,5.781-1.212,8.278l-.3,1.914-.3,1.711-.3,1.712c-.1.564-.2.96-.3,1.449-.807,4.014-1.615,6.271-2.423,6.849a.72.72,0,0,1-.607.139,2.149,2.149,0,0,1-.606-.187,3.777,3.777,0,0,1-1.211-.992,16.005,16.005,0,0,1-2.424-4.6c-.2-.523-.4-1.151-.606-1.722l-.606-2.069-.3-1.042-.152-.521-.15-.624-.607-2.528c-.2-.779-.4-1.836-.606-2.815l-.3-1.483-.151-.742-.151-.836-.607-3.4-.6-3.985-.607-4.031-.151-1.04-.151-1.218-.3-2.435-.3-2.435-.151-1.218-.152-1.463-.607-5.866Z" transform="translate(-29.69 -11.245)"/></g></svg>