<svg xmlns="http://www.w3.org/2000/svg" width="172.137" height="106.432" viewBox="0 0 172.137 106.432"><defs><style>.a{fill:none;stroke:#000;stroke-miterlimit:10;stroke-width:1.923px;}</style></defs><g transform="translate(-290 -341)"><path d="M243.11,220.429c.124-7.137-4.122-15.548-16.5-15.765-.121,0-.241,0-.36,0a19.285,19.285,0,0,0-2.231.128l-1.6-9.645c7.022-5.8,11.878-14.363,12.112-21.763a26.631,26.631,0,0,0-5.442-16.84c-.745-1-2.416-2.5-3.632-2.52h-.031c-1.2,0-2.686,1.227-3.684,2.373-5.289,6.084-7.156,18.06-4.9,31.313-8,7.7-16.948,16.439-17.178,29.737a16.9,16.9,0,0,0,7.135,14.066,26.229,26.229,0,0,0,15.078,5.049,25.835,25.835,0,0,0,3.283-.155l1.7,10.01a8.694,8.694,0,0,1-1.679,7.374A7.491,7.491,0,0,1,219.3,256.4a8.741,8.741,0,0,1-5.713-1.86,6.54,6.54,0,0,0,5.933-6.411,6.676,6.676,0,0,0-6.91-7.155l-.135,0a7.627,7.627,0,0,0-7.587,7.459c-.1,5.845,4.792,11.85,14.341,12.018l.2,0a11.994,11.994,0,0,0,9.216-4.363,11.654,11.654,0,0,0,2.241-9.891l-1.752-10.554C237.4,233.371,242.991,227.315,243.11,220.429Zm-19.736-56.692a3.165,3.165,0,0,1,2.177-1.318h.025a1.561,1.561,0,0,1,1.168.652c1.675,1.991,2.037,7.412,1.749,9.264-.782,5.029-3.031,7.779-8,11.935C219.019,173.357,220.981,166.526,223.374,163.737Zm-1.427,68.772c-7.571-.132-15.527-5.415-15.36-14.946.142-8.119,7.556-16.145,12.055-19.617l1.328,7.834a14.574,14.574,0,0,0-5.221,3.464,12.776,12.776,0,0,0-3.741,8.186,11.86,11.86,0,0,0,3.563,8.131c1.3,1.319,2.68,2.171,3.524,2.171a1.077,1.077,0,0,0,.62-.178.631.631,0,0,0,.169-.869c-2.267-3.438-2.759-6.406-1.458-8.821a8.4,8.4,0,0,1,4.005-3.46l3.029,17.867A11.376,11.376,0,0,1,221.947,232.509Zm6.375-1.772-2.886-17.4c.261-.02.51-.027.742-.023a8.388,8.388,0,0,1,5.636,1.958,7.709,7.709,0,0,1,2.22,6.108A11.489,11.489,0,0,1,228.322,230.737Z" transform="translate(93.494 186.98)"/><line class="a" x2="172.137" transform="translate(290 369.174)"/><line class="a" x2="172.137" transform="translate(290 382.322)"/><line class="a" x2="172.137" transform="translate(290 396.409)"/><line class="a" x2="172.137" transform="translate(290 410.495)"/><line class="a" x2="172.137" transform="translate(290 424.582)"/><path d="M290.108,187.614H287.72v45.371a5.469,5.469,0,0,0-1.71-.721,11.955,11.955,0,0,0-8.3,1.572c-4.734,2.687-7.144,7.4-5.352,10.556s7.08,3.54,11.814.853a14.8,14.8,0,0,0,2.078-1.414,9.88,9.88,0,0,0,3.817-6.052c.018-.147.012-.29.018-.435h.021Z" transform="translate(93.494 186.98)"/><path d="M339.225,179.124h-2.389v45.37a5.493,5.493,0,0,0-1.71-.721,11.953,11.953,0,0,0-8.3,1.573c-4.735,2.687-7.144,7.4-5.353,10.556s7.08,3.539,11.814.853a14.955,14.955,0,0,0,2.079-1.414,9.885,9.885,0,0,0,3.816-6.053c.019-.147.013-.289.018-.434h.022Z" transform="translate(93.494 186.98)"/></g></svg>