<svg xmlns="http://www.w3.org/2000/svg" width="172.137" height="106.432" viewBox="0 0 172.137 106.432"><defs><style>.a{fill:none;stroke:#000;stroke-miterlimit:10;stroke-width:1.923px;}</style></defs><g transform="translate(-637 -341)"><g transform="translate(160.3 -104.372)"><path d="M523.3,511.781c.124-7.137-4.122-15.547-16.5-15.765-.122,0-.241,0-.361,0a19.5,19.5,0,0,0-2.23.128l-1.6-9.645c7.022-5.8,11.878-14.363,12.112-21.763a26.637,26.637,0,0,0-5.442-16.84c-.745-1-2.416-2.5-3.632-2.52h-.031c-1.195,0-2.687,1.227-3.685,2.373-5.288,6.084-7.155,18.06-4.9,31.313-7.995,7.695-16.947,16.439-17.178,29.737a16.9,16.9,0,0,0,7.136,14.067,26.233,26.233,0,0,0,15.078,5.048,25.841,25.841,0,0,0,3.283-.155l1.7,10.01a8.69,8.69,0,0,1-1.68,7.374,7.487,7.487,0,0,1-5.872,2.614,8.738,8.738,0,0,1-5.713-1.86,6.541,6.541,0,0,0,5.933-6.41,6.676,6.676,0,0,0-6.91-7.156h-.135a7.626,7.626,0,0,0-7.587,7.458c-.1,5.846,4.792,11.851,14.341,12.019h.2a11.991,11.991,0,0,0,9.215-4.363,11.647,11.647,0,0,0,2.241-9.891L509.332,527C517.595,524.723,523.185,518.667,523.3,511.781ZM503.568,455.09a3.163,3.163,0,0,1,2.177-1.319h.025a1.558,1.558,0,0,1,1.167.652c1.676,1.991,2.038,7.412,1.749,9.264-.781,5.029-3.031,7.779-7.995,11.936C499.213,464.709,501.175,457.878,503.568,455.09Zm-1.427,68.771c-7.571-.131-15.527-5.415-15.361-14.946.142-8.119,7.557-16.145,12.056-19.617l1.328,7.834a14.589,14.589,0,0,0-5.222,3.464,12.774,12.774,0,0,0-3.74,8.186,11.86,11.86,0,0,0,3.563,8.131c1.3,1.319,2.68,2.171,3.524,2.171a1.077,1.077,0,0,0,.62-.178.632.632,0,0,0,.169-.869c-2.267-3.438-2.759-6.406-1.458-8.821a8.4,8.4,0,0,1,4.005-3.46l3.029,17.867A11.381,11.381,0,0,1,502.141,523.861Zm6.375-1.772-2.887-17.4c.262-.021.511-.028.743-.024a8.391,8.391,0,0,1,5.636,1.958,7.71,7.71,0,0,1,2.22,6.108A11.489,11.489,0,0,1,508.516,522.089Z"/><line class="a" x2="172.137" transform="translate(476.7 473.546)"/><line class="a" x2="172.137" transform="translate(476.7 486.694)"/><line class="a" x2="172.137" transform="translate(476.7 500.781)"/><line class="a" x2="172.137" transform="translate(476.7 514.867)"/><line class="a" x2="172.137" transform="translate(476.7 528.954)"/><path d="M570.3,485.158h-2.388v45.37a5.492,5.492,0,0,0-1.71-.721,11.955,11.955,0,0,0-8.3,1.572c-4.734,2.687-7.144,7.4-5.353,10.556s7.08,3.54,11.815.853a14.712,14.712,0,0,0,2.078-1.414,9.879,9.879,0,0,0,3.816-6.052c.019-.147.013-.29.019-.434h.021Z"/><path d="M596.054,544.577h2.388v-45.37a5.493,5.493,0,0,0,1.71.721,11.956,11.956,0,0,0,8.3-1.573c4.734-2.686,7.144-7.4,5.353-10.555s-7.08-3.54-11.814-.853a14.746,14.746,0,0,0-2.079,1.413,9.888,9.888,0,0,0-3.816,6.053c-.019.147-.013.29-.019.434h-.021Z"/></g></g></svg>