<svg xmlns="http://www.w3.org/2000/svg" width="533.787" height="492.335" viewBox="0 0 533.787 492.335"><defs><style>.a{fill:#eadff1;}.b{fill:#e6e6e6;}.c{fill:#ffe3bc;}.d{fill:#d6b891;}.e{fill:#ffebcf;}.f{fill:#bdbdbd;}.g{fill:#a8a8a8;}.h{fill:gray;}.i{fill:#474747;}.j{fill:#2b2b2b;}.k{fill:#999;}.l{fill:#9b221c;}.m{fill:#d75228;}.n{fill:#4d4d4d;}.o{fill:#d91a21;}.p{fill:#ed1c24;}.q{opacity:0.29;}.r{fill:#fff;}.s{fill:#ffc84f;}.t{fill:#fcdf56;}.u{fill:#7eb339;}.v{fill:#8cc63f;}.w{fill:#375a64;}.x,.y{fill:#d8a35d;}.x{fill-rule:evenodd;}.z{fill:#d19442;}.aa{fill:#947dce;}.ab{opacity:0.15;}.ac{fill:#62548a;}.ad{opacity:0.3;}.ae{opacity:0.5;}.af{fill:#ccc;}.ag{fill:#666;}</style></defs><g transform="translate(-419.207 -128.588)"><path class="a" d="M671.461,229.3,469.966,166.257c-8.607-2.693-17.437-5.416-26.443-4.951s-18.371,4.79-22.332,12.892c-4.083,8.352-1.448,18.737,4.124,26.179S438.937,212.942,446.8,217.9l62.518,39.393c8.69,5.475,18.259,12.278,19.482,22.476,1.449,12.091-10.481,22.355-22.542,24.028s-24.028-2.685-35.655-6.306c-7.752-2.414-15.9-4.547-23.914-3.221s-15.841,7.012-17.17,15.022c-1.919,11.569,9.4,20.6,19.353,26.8L524.3,383.142c14.374,8.966,30.827,22.7,26.6,39.109-4.266,16.549-25.8,20.536-42.874,19.772s-37.6-1.465-47.238,12.647c-8.194,12-3.127,29.332,7.372,39.375s24.957,14.571,38.862,18.785l271.213,82.194c26.939,8.164,53.9,16.335,81.348,22.592,12.071,2.752,24.853,5.107,36.659,1.381s21.967-15.581,19.5-27.712C913.1,578.347,898.884,572,886.854,566.554s-25.4-15.255-23.493-28.322c2.188-15.025,21.718-19.252,36.9-19.035s34.294-1.125,39.743-15.3c3.3-8.6-.613-18.622-7.163-25.093s-15.287-10.148-23.793-13.675l-77.023-31.94c-11.723-4.861-25.861-14.574-21.788-26.593,3.326-9.813,16.168-11.676,26.528-11.839,38.442-.605,98.674,30.984,115.327-1.816S750.224,251.518,671.461,229.3"/><path class="b" d="M665.224,501.193a403.236,403.236,0,0,1,126.419-31.46c7.538-.614,15.471-.947,22.295,2.316s11.954,11.317,9.4,18.435c-4.47,12.448-25.689,10.8-30.841,22.978-4.651,11,8.961,21.861,20.9,21.79s23.253-6.011,35.192-6.134,25.625,10.589,21.116,21.644c-2.106,5.164-7.373,8.19-12.284,10.832l-52.31,28.143c-14.822,7.975-29.812,16.017-46.069,20.375-22.583,6.055-46.411,4.7-69.735,3.08q-42.02-2.921-83.963-6.8c-28.462-2.631-57.226-5.666-84.119-15.348-10.846-3.9-22.889-11.07-23.4-22.586-.547-12.322,12.237-20.461,23.311-25.891,11.711-5.743,23.431-11.49,35.484-16.473,32.874-13.591,67.812-21.341,102.544-29.027"/><path class="c" d="M504.247,512.66l255.382-35.047,73.553,66.053L577.8,578.713Z"/><path class="d" d="M577.8,578.713V544.376l-73.553-66.053V512.66Z"/><path class="e" d="M504.247,478.323l255.382-35.047,73.553,66.053L577.8,544.376Z"/><path class="c" d="M833.182,509.329v34.337L577.8,578.713V544.376Z"/><path class="f" d="M504.247,478.323,659.78,456.979l10.426,8.233-156.2,22.02Z"/><path class="g" d="M518.386,476.426l34.666-4.8,34.666,31.131-34.666,4.8Z"/><ellipse class="h" cx="8.079" cy="4.854" rx="8.079" ry="4.854" transform="translate(553.052 491.44)"/><path class="g" d="M565.515,470.017l34.666-4.8,34.666,31.131-34.666,4.8Z"/><ellipse class="h" cx="8.079" cy="4.854" rx="8.079" ry="4.854" transform="translate(600.181 485.032)"/><path class="g" d="M611.466,463.609l34.666-4.8L680.8,489.935l-34.666,4.8Z"/><ellipse class="h" cx="8.079" cy="4.854" rx="8.079" ry="4.854" transform="translate(646.131 478.623)"/><path class="i" d="M653.384,457.826l34.666-4.8,73.3,66.485-34.666,4.8Z"/><path class="j" d="M726.685,524.312v33.969l34.666-4.757V519.507Z"/><path class="c" d="M722.413,453.514l38.609-5.126L797.448,481.1l-38.609,5.126Z"/><path class="k" d="M758.839,486.225v-17l-36.426-32.712v17Z"/><path class="f" d="M722.413,436.509l38.609-5.126,36.426,32.712-38.609,5.126Z"/><path class="g" d="M797.448,464.094v17l-38.609,5.126v-17Z"/><path class="l" d="M745.785,433.346,781.5,466.152l15.95-2.058-36.426-32.712Z"/><path class="m" d="M782.153,473.26c-4.809,0-18.178-1.208-25.78-13.894-6.364-10.618-11.211-11.547-17.921-12.834a59.806,59.806,0,0,1-8.862-2.222c-11.916-4.146-55.288,2.94-75.486,20.608l-1.441-1.647c21.106-18.461,65.017-25.421,77.646-21.028a57.843,57.843,0,0,0,8.555,2.14c6.994,1.341,12.519,2.4,19.386,13.858,8.629,14.4,25.288,12.8,25.455,12.777l.233,2.175C783.9,473.2,783.252,473.26,782.153,473.26Z"/><path class="m" d="M641.026,505.219a12.574,12.574,0,0,1-8.706-3.489c-4.333-4.011-9.175-13.254-7.64-34.5,2.054-28.439,1.423-36.5-3.972-50.721-5.118-13.492-13.97-76.613,4.383-91.157l1.359,1.716c-16.468,13.05-9.555,73.219-3.7,88.665,5.539,14.6,6.192,22.81,4.108,51.655-1.148,15.9,1.318,27.529,6.944,32.74a10.511,10.511,0,0,0,8.971,2.773c9.444-1.417,15.075-11.864,15.131-11.97l1.933,1.024c-.249.47-6.215,11.531-16.739,13.11A14.032,14.032,0,0,1,641.026,505.219Z"/><path class="g" d="M709.143,373.075V491.31a15.1,15.1,0,0,1-12.68,14.912,14.77,14.77,0,0,1-2.429.2,15.451,15.451,0,0,1-2.954-.284,15.1,15.1,0,0,1-12.166-14.825V373.075a15.115,15.115,0,1,1,30.229,0Z"/><path class="h" d="M691.08,365.964V506.135a15.1,15.1,0,0,1-12.166-14.825V373.075a14.993,14.993,0,0,1,1.783-7.111Z"/><path class="k" d="M696.463,385.482v120.74a14.77,14.77,0,0,1-2.429.2,15.451,15.451,0,0,1-2.954-.284,15,15,0,0,1-3.031-.941V385.482Z"/><path class="d" d="M736.1,383.914,621.731,400.325V211.3L736.1,194.893Z"/><path class="c" d="M757.311,402.85,642.939,419.261V230.24l114.372-16.411Z"/><path class="n" d="M650.051,361.12V243.672L750.2,229.3V346.75Zm5.47-112.707v106.4l89.208-12.8V235.613Z"/><path class="h" d="M658.095,350.531v-98.58l84.06-12.061v98.58Zm4.592-94.6v89.3l74.877-10.744v-89.3Z"/><path class="d" d="M642.939,419.261l-21.208-18.936V211.3l21.208,18.936Z"/><path class="e" d="M621.731,211.3,736.1,194.893l21.208,18.936L642.939,230.24Z"/><path class="o" d="M711.485,269.814c-.16-.128-.323-.254-.493-.369s-.324-.254-.494-.369-.324-.254-.495-.37-.323-.253-.494-.368-.323-.254-.494-.37-.323-.254-.494-.368c-.161-.129-.323-.255-.494-.37s-.323-.253-.494-.369-.323-.253-.494-.369-.324-.254-.494-.369-.324-.254-.495-.369-.323-.254-.493-.369-.324-.254-.494-.369-.324-.254-.495-.37-.323-.253-.494-.369-.323-.253-.494-.369-.324-.254-.494-.369-.323-.254-.494-.369-.323-.254-.494-.369a7.749,7.749,0,1,0-9.157,12.489c.161.128.324.254.495.369s.323.254.494.369.323.254.494.369.323.254.494.37.323.253.494.369.323.254.494.369.323.254.494.369.324.254.495.369.323.254.493.369.324.254.494.369.324.254.495.37.323.253.494.369.323.253.494.369.323.254.494.369.324.254.494.369.323.254.494.369.324.254.494.369.324.254.494.37.324.253.494.368a7.749,7.749,0,1,0,9.156-12.489Z"/><circle class="p" cx="7.751" cy="7.751" r="7.751" transform="translate(699.897 268.861)"/><g class="q"><path class="r" d="M705.476,277.357a1.528,1.528,0,0,1,1.622-2.4c2.054.489,2.93-2.675.873-3.165a4.791,4.791,0,0,0-4.816,7.883c1.339,1.635,3.649-.7,2.321-2.321Z"/></g><path class="o" d="M711.485,269.814c-.16-.128-.323-.254-.493-.369s-.324-.254-.494-.369-.324-.254-.495-.37-.323-.253-.494-.368-.323-.254-.494-.37-.323-.254-.494-.368c-.161-.129-.323-.255-.494-.37s-.323-.253-.494-.369-.323-.253-.494-.369-.324-.254-.494-.369-.324-.254-.495-.369-.323-.254-.493-.369-.324-.254-.494-.369-.324-.254-.495-.37-.323-.253-.494-.369-.323-.253-.494-.369-.324-.254-.494-.369-.323-.254-.494-.369-.323-.254-.494-.369a7.749,7.749,0,1,0-9.157,12.489c.161.128.324.254.495.369s.323.254.494.369.323.254.494.369.323.254.494.37.323.253.494.369.323.254.494.369.323.254.494.369.324.254.495.369.323.254.493.369.324.254.494.369.324.254.495.37.323.253.494.369.323.253.494.369.323.254.494.369.324.254.494.369.323.254.494.369.324.254.494.369.324.254.494.37.324.253.494.368a7.749,7.749,0,1,0,9.156-12.489Z"/><circle class="p" cx="7.751" cy="7.751" r="7.751" transform="translate(699.897 268.861)"/><g class="q"><path class="r" d="M705.476,277.357a1.528,1.528,0,0,1,1.622-2.4c2.054.489,2.93-2.675.873-3.165a4.791,4.791,0,0,0-4.816,7.883c1.339,1.635,3.649-.7,2.321-2.321Z"/></g><path class="s" d="M711.485,293.068c-.16-.128-.323-.254-.493-.369s-.324-.254-.494-.369-.324-.254-.495-.369-.323-.254-.494-.369-.323-.254-.494-.37-.323-.253-.494-.368-.323-.254-.494-.369-.323-.254-.494-.369-.323-.254-.494-.37-.324-.253-.494-.369-.324-.254-.495-.369-.323-.254-.493-.369-.324-.254-.494-.369-.324-.254-.495-.369-.323-.254-.494-.369-.323-.254-.494-.37-.324-.253-.494-.369-.323-.253-.494-.369-.323-.254-.494-.369a7.749,7.749,0,1,0-9.157,12.489c.161.129.324.255.495.369.16.129.323.254.494.37s.323.253.494.369.323.253.494.369.323.254.494.369.323.254.494.369.323.254.494.369.324.254.495.369.323.254.493.37.324.253.494.369.324.253.495.369.323.254.494.369.323.254.494.369.323.254.494.369.324.254.494.369.323.254.494.369.324.254.494.37.324.253.494.369.324.254.494.368a7.749,7.749,0,1,0,9.156-12.489Z"/><circle class="t" cx="7.751" cy="7.751" r="7.751" transform="translate(699.897 292.115)"/><g class="q"><path class="r" d="M705.476,300.611a1.528,1.528,0,0,1,1.622-2.4c2.054.489,2.93-2.675.873-3.165a4.791,4.791,0,0,0-4.816,7.883c1.339,1.636,3.649-.7,2.321-2.321Z"/></g><path class="u" d="M711.485,315.787c-.16-.128-.323-.254-.493-.369s-.324-.254-.494-.369-.324-.254-.495-.37-.323-.253-.494-.368-.323-.255-.494-.37-.323-.254-.494-.369-.323-.254-.494-.369-.323-.253-.494-.369-.323-.254-.494-.369-.324-.254-.494-.369-.324-.254-.495-.369-.323-.254-.493-.369-.324-.254-.494-.37-.324-.253-.495-.369-.323-.253-.494-.369-.323-.254-.494-.369-.324-.254-.494-.369-.323-.254-.494-.369-.323-.254-.494-.369a7.749,7.749,0,1,0-9.157,12.489c.161.128.324.254.495.369s.323.254.494.369.323.254.494.369.323.254.494.37.323.253.494.369.323.253.494.369.323.254.494.369.324.254.495.369.323.254.493.369.324.254.494.369.324.254.495.369.323.254.494.37.323.253.494.369.323.254.494.369.324.254.494.369.323.254.494.369.324.254.494.369.324.254.494.369.324.254.494.369a7.749,7.749,0,1,0,9.156-12.489Z"/><circle class="v" cx="7.751" cy="7.751" r="7.751" transform="translate(699.897 314.834)"/><g class="q"><path class="r" d="M705.476,323.33a1.528,1.528,0,0,1,1.622-2.4c2.054.49,2.93-2.674.873-3.164a4.791,4.791,0,0,0-4.816,7.883c1.339,1.635,3.649-.7,2.321-2.321Z"/></g><path class="b" d="M627.445,516.415c-13.793,0-19.952-16.919-20.216-17.664l2.062-.731c.062.173,6.3,17.255,19.418,16.154,16.122-1.352,35.517-6.671,36.365-24.341.486-10.111-2.932-23.527-5.947-35.365-2.807-11.017-5.457-21.423-4.692-27.875,1.159-9.779-9.666-29.069-20.135-47.723-3.193-5.688-6.493-11.57-9.5-17.238-13.434-25.36-10.508-57.623-3.875-64.767l1.6,1.489c-6.272,6.754-8.809,37.687,4.2,62.254,2.99,5.644,6.284,11.514,9.47,17.191,11.13,19.833,21.643,38.565,20.4,49.052-.717,6.048,1.884,16.263,4.639,27.077,3.053,11.987,6.514,25.572,6.013,36.01-.732,15.239-14,24.373-38.368,26.416Q628.155,516.416,627.445,516.415Z"/><path class="w" d="M589.089,516.359c-1.771,0-3.545-.062-5.3-.179-15.764-1.051-19.3-14.632-19.334-14.769l2.124-.528c.125.5,3.221,12.172,17.356,13.114,15.923,1.062,33.374-2.49,34.6-15.645C619.84,484.3,605.8,433.7,596,412.538c-9.686-20.9-4.744-87.753,3.248-101.005,2.847-4.722,4.19-13.267,5.611-22.314,2.415-15.372,5.152-32.794,16.6-35.823l.56,2.115c-10.064,2.664-12.683,19.337-14.994,34.047-1.456,9.265-2.831,18.016-5.9,23.1-7.823,12.972-12.634,78.462-3.137,98.956,9.9,21.368,24.062,72.613,22.729,86.937C619.482,511.748,604.409,516.359,589.089,516.359Z"/><path class="i" d="M733.6,508.518l-1.045-1.923a6.886,6.886,0,0,0,3.793-4.987c1.122-6.12-4.682-15.518-10.489-22.272-3.026-3.52-4.134-7.217-3.2-10.691,1.21-4.528,5.737-8.288,13.09-10.873,1.385-.487,2.76-.99,4.124-1.488,11.544-4.221,22.449-8.207,31.62.027,10.086,9.058,7.831,20.22,7.73,20.69l-2.14-.456c.088-.422,2.062-10.42-7.052-18.606-8.192-7.356-18.023-3.762-29.407.4-1.372.5-2.756,1.007-4.149,1.5-6.545,2.3-10.7,5.631-11.7,9.375-.734,2.744.217,5.752,2.751,8.7,2.977,3.463,12.569,15.436,10.981,24.092A9.064,9.064,0,0,1,733.6,508.518Z"/><path class="x" d="M757.732,431.259s-4.493,1.971-6.338,5.344c-1.1,2.005-1.612,1.761-1.9,2.066-.964,1.01,1.688.654,2.913-.942,1-1.3,3.8-1.21,4.647-1.9s2.78-2.972,2.673-3.755S757.732,431.259,757.732,431.259Z"/><path class="x" d="M765.531,423.3c-.458.577-7.118,6.005-8.825,9.638s-3.9,9.2-5.153,10.935c-1.475,2.048-.777,2.952,1.179.686a39.384,39.384,0,0,0,3.861-5.372c.152-.37-1.064,1.959-2.579,4.421-1.61,2.617-3.519,5.4-3.066,5.72.879.626,6.026-6.728,6.7-8.108a38.491,38.491,0,0,1-1.828,3.619c-.922,1.6-2.236,3.338-2.02,3.851.339.808,3.594-2.895,5.38-6.283.139-.021-.1,1.2-2.489,5.079-.241.39-.445,1.531.693.381,2.4-2.421,3.607-3.285,5.263-7.451,1.616-4.062,2.412-8.9,4.473-11.5Z"/><path class="y" d="M869.233,478.06s-7.861,81.114-4.518,82.51c6,2.544,29.482,10.865,3.59,9.036-13.3.8-12.325-2.17-12.533-4.688-.17-2.057.221-74.651-.326-80.3-.122-1.264-.2-2.028-.2-2.028Z"/><path class="y" d="M820.486,478.06s3.408,81.114.065,82.51c-6,2.544-29.482,10.865-3.589,9.036,13.3.8,12.324-2.17,12.532-4.688.17-2.057,1.679-17.672,2.225-23.318.122-1.264,2.729-64.7,2.729-64.7Z"/><path class="z" d="M846.557,268.744s-.692,7.729,4.075,12-10.987,0-10.987,0,2.932-7.4,2.274-12S846.557,268.744,846.557,268.744Z"/><ellipse class="y" cx="8.335" cy="11.372" rx="8.335" ry="11.372" transform="translate(835.708 248.997)"/><path class="aa" d="M898.405,343.11c-.178,2.792-3.065,15.441-6.673,26.685-2.957,9.23-6.407,17.518-9.243,18.663-6.293,2.533-53.807,6.008-63.575,1.349-.228-.171-.475-.355-.709-.557-3.666-2.982-7.642-8.87-9.75-14.384,0-.006-5.615-15.834-6.761-19.056-.013-.032-.019-.057-.032-.082-.038-.127-.082-.247-.127-.361-.012-.045-.031-.083-.044-.127-5.913,20.189-21.645,64.531-34.37,78.579-1.336,1.475-7.484-6.8-7.484-6.8s-10.275-53.059,16.53-109.132c12.618-26.394,35.137-38.435,49.514-41.632,6.224-1.387,10.921-1.114,12.637.367a9.314,9.314,0,0,0,5.818,2.26,12.621,12.621,0,0,0,3.267-.3,16.272,16.272,0,0,0,3.463-1.178c.532-.247.842-.424.842-.424a33.781,33.781,0,0,1,8.8.525C893.036,283.878,898.7,338.419,898.405,343.11Z"/><path class="s" d="M816.736,387.937a5.136,5.136,0,0,0,2.916,1.345c6.852.135,36.446.642,52.5-.281,5.664-.326,9.642-.829,10.34-1.593,0,0,0,.023,0,.065-.042.885-.55,11.016-1.263,24.3-1.406,26.214,1.3,63.759,4.469,75.155.683,2.46-36.086-1.266-36.086-1.266-.1-27.053,2.464-74.545.806-76.674-2.017-2.59-5.287,39.185-9.037,74.141-14.561,3.8-37.618,1.493-37.352,0C807.191,465.4,816.736,387.937,816.736,387.937Z"/><g class="ab"><path d="M801.493,355.24c.012.044.031.082.044.127.044.114.089.234.127.361.012.025.019.05.031.082,1.146,3.222,6.762,19.05,6.762,19.056,2.108,5.514,6.084,11.4,9.749,14.384-2.488-9.009-10.243-35.124-9.945-45.646C806.779,353.746,801.493,355.234,801.493,355.24Z"/></g><g class="ab"><path d="M877.558,317.511s-15.746,47,27.94,66.966l.888.59-.226-11.056s-20.585-28.725-20.663-29.464S877.558,317.511,877.558,317.511Z"/></g><g class="ab"><path d="M844.687,280.751c.025.753-.374,1.247-1.583,1.082-3.773-.512-8.034-.4-11.13,1.013a2.63,2.63,0,0,1-2.545-.107c-1.981-1.159-3.209-4.616-3.7-6.148a1.054,1.054,0,0,1-.051-.335c6.224-1.387,10.921-1.114,12.637.367a9.314,9.314,0,0,0,5.818,2.26A5.141,5.141,0,0,1,844.687,280.751Z"/></g><path class="ac" d="M830.615,559.728c.155-1.171-8.178-1.061-9.121-.11s-17.549,4.378-17.221,9.31,23.344,1.054,24.988.938S830.31,562.03,830.615,559.728Z"/><path class="ac" d="M855.3,557.829c-.155-1.171,9.82.315,10.763,1.266s15.463,4.9,15.135,9.833-23.344,1.054-24.988.938S855.61,560.131,855.3,557.829Z"/><g class="ad"><path d="M844.058,389.544l-.33-.028Z"/><g class="ae"><path d="M844.058,389.544c8.819.7,28.094-.543,28.094-.543,5.664-.326,9.642-.829,10.34-1.593,0,0,0,.023,0,.065-.042.885-.55,11.016-1.263,24.3a6.536,6.536,0,0,1-.926-.107,7.216,7.216,0,0,1-4.668-3.316,16.086,16.086,0,0,1-1.815-3.79C867.241,392.044,846.883,389.8,844.058,389.544Z"/></g></g><path class="s" d="M840.911,253.841s14.429,8,10.146-4.844C848.094,240.11,831.069,248.115,840.911,253.841Z"/><path class="s" d="M843,250.773s-8.073,4.79-7.294,9.6c0,0-1.781-14.348,6.247-14.708s11.136.414,10.423,15.585C852.378,261.246,850.045,249.178,843,250.773Z"/><path class="s" d="M841.6,245.754s.406-4.47,4.837-3.837,6.331,3.165,6.964,5.7,1.266,4.431,1.9,4.431c0,0-1.9,1.9-2.532,1.267,0,0,1.643,4.553-.444,8.291,0,0-.822-5.759-3.988-6.392S841.6,245.754,841.6,245.754Z"/><path class="s" d="M842.011,245.716s-3.166-1.9-6.331,2.532l-1.9,3.8s.634.634,1.9,0c0,0-.577,4.461.028,6.979l1.871-7.612Z"/><path class="k" d="M823.233,331.537l8.028,51.426a5.491,5.491,0,0,0,6.267,4.577l35.1-5.482a1.7,1.7,0,0,0,.247-.051,5.473,5.473,0,0,0,4.324-6.217l-8.028-51.426a5.484,5.484,0,0,0-6.267-4.571l-33.472,5.223-1.627.254A5.484,5.484,0,0,0,823.233,331.537Z"/><path class="af" d="M825.107,331.233l8.028,51.426a5.482,5.482,0,0,0,6.267,4.571l33.472-5.223a5.473,5.473,0,0,0,4.324-6.217l-8.028-51.426a5.484,5.484,0,0,0-6.267-4.571l-33.472,5.223A5.473,5.473,0,0,0,825.107,331.233Z"/><circle class="h" cx="4.237" cy="4.237" r="4.237" transform="translate(847.273 349.706)"/><g class="ab"><path d="M884.238,367.813s.823-18.9-49.824-12.573S872.4,367.269,872.4,367.269Z"/></g><path class="x" d="M839.13,362.322c-.6-.2-6.935-3.994-10.369-4.311s-8.569-.46-10.342-.965c-2.086-.592-2.613.236-.21,1.153a33.894,33.894,0,0,0,5.47,1.549c.343.014-1.894-.287-4.326-.791-2.585-.536-5.389-1.264-5.518-.8-.249.893,7.2,2.9,8.51,3.043a33.154,33.154,0,0,1-3.459-.419c-1.561-.277-3.35-.83-3.7-.506-.554.51,3.39,2.058,6.65,2.51.057.1-1,.27-4.832-.527-.385-.08-1.367.089-.1.672,2.657,1.229,3.709,1.953,7.559,2.073,3.754.117,7.9-.655,10.6.25Z"/><path class="x" d="M830.416,358.349s-2.907-3.053-6.171-3.557a3.257,3.257,0,0,1-2.226-.933c-1.1-.484-.035,1.555,1.613,2.078,1.34.424,2.088,2.713,2.893,3.2s3.215,1.376,3.816,1.061S830.416,358.349,830.416,358.349Z"/><path class="aa" d="M893.291,285.6c11.925,10.67,20.176,20.58,25.324,53.18,2.611,16.539,1.931,33.079,1.251,41.8a10.306,10.306,0,0,1-7.082,8.961c-37.363,12.324-78.4-23.129-78.4-23.129-2.139-.8,2.168-8.426,2.168-8.426,20.656-.214,36.483.419,52.943,6.75-.083-.04-16.181-30.277-18.359-38.619-5.706-21.876-24.485-40.807-19.626-49.381C853.186,273.771,881.262,274.838,893.291,285.6Z"/><rect class="aa" width="98.082" height="0.633" transform="translate(813.512 484.903) rotate(-84.534)"/><rect class="aa" width="96.383" height="0.633" transform="translate(822.848 485.155) rotate(-84.479)"/><rect class="aa" width="95.577" height="0.633" transform="translate(833.474 484.49) rotate(-85.38)"/><rect class="aa" width="0.633" height="19.734" transform="translate(849.899 389.253) rotate(-0.576)"/><rect class="aa" width="97.212" height="0.633" transform="translate(857.799 486.44) rotate(-88.951)"/><rect class="aa" width="98.013" height="0.633" transform="translate(867.416 487.198) rotate(-89.706)"/><rect class="aa" width="0.633" height="98.592" transform="translate(876.106 389.195) rotate(-1.096)"/><path class="aa" d="M858.562,399.506c-19.562,0-42.754-1.079-43.1-1.1l.03-.632c.525.025,52.705,2.452,66.4,0l.111.624C877.385,399.231,868.434,399.506,858.562,399.506Z"/><path class="aa" d="M837.6,410.669a74.372,74.372,0,0,1-23.3-3.81l.222-.593c.176.066,17.735,6.505,35.823,2.408l.14.618A58.431,58.431,0,0,1,837.6,410.669Z"/><path class="aa" d="M868.42,410.349a76.194,76.194,0,0,1-18.29-2.306l.171-.61c.165.047,16.69,4.6,31.019.725l.165.611A50.507,50.507,0,0,1,868.42,410.349Z"/><path class="aa" d="M836.333,418.432c-14.3,0-22.867-4.378-22.974-4.434l.294-.561c.131.069,13.426,6.85,34.595,3.371l.1.625A74.134,74.134,0,0,1,836.333,418.432Z"/><path class="aa" d="M838.038,426.531c-12.464,0-25.545-3.939-25.709-3.989l.184-.6c.206.062,20.716,6.237,34.7,3.051l.141.618A42.409,42.409,0,0,1,838.038,426.531Z"/><path class="aa" d="M834.293,436.507c-15.851,0-23.069-5.485-23.156-5.553l.391-.5c.1.081,10.71,8.106,34.627,4.478l.095.626A79.732,79.732,0,0,1,834.293,436.507Z"/><path class="aa" d="M831.6,445.4a51.593,51.593,0,0,1-21.677-4.675l.294-.561a51.221,51.221,0,0,0,35.1,2.64l.179.607A48.932,48.932,0,0,1,831.6,445.4Z"/><path class="aa" d="M830.144,454.5c-14.35,0-21.35-4.818-21.439-4.881l.366-.517c.113.08,11.542,7.918,35.32,3.324l.12.622A75.756,75.756,0,0,1,830.144,454.5Z"/><path class="aa" d="M827.627,462.959a47.627,47.627,0,0,1-20.117-4.17l.293-.561c.156.081,15.79,8.046,35.827,1.552l.2.6A52.379,52.379,0,0,1,827.627,462.959Z"/><path class="aa" d="M824.639,470.714c-12.953,0-17.91-4.574-18.188-4.84l.439-.457c.091.088,9.474,8.68,35.981,2.22l.15.615A78.011,78.011,0,0,1,824.639,470.714Z"/><path class="aa" d="M826.3,478.241c-12.74,0-20.828-4.157-20.938-4.214l.295-.561c.148.078,15.093,7.744,36.409,2.025l.164.612A61.394,61.394,0,0,1,826.3,478.241Z"/><path class="aa" d="M865.692,420.024c-10.962,0-14.715-2.958-14.923-3.13l.4-.489c.069.057,7.159,5.574,30.175,1.409l.112.623A89.134,89.134,0,0,1,865.692,420.024Z"/><path class="aa" d="M866.424,427.907c-10.2,0-15.335-2.318-15.406-2.35l.268-.574c.1.045,9.9,4.45,29.5.929l.112.624A82.09,82.09,0,0,1,866.424,427.907Z"/><path class="aa" d="M866.342,437.151a61.083,61.083,0,0,1-15.755-2.011l.182-.606c.149.045,15.117,4.446,29.987,0l.181.606A51.169,51.169,0,0,1,866.342,437.151Z"/><path class="aa" d="M866.095,445.953a43,43,0,0,1-15.763-2.893l.258-.579c.145.064,14.679,6.363,30.429,0l.237.587A40.311,40.311,0,0,1,866.095,445.953Z"/><path class="aa" d="M865.733,453.951a52.4,52.4,0,0,1-15.622-2.171l.209-.6a56.847,56.847,0,0,0,31.135-.006l.171.61A58.9,58.9,0,0,1,865.733,453.951Z"/><path class="aa" d="M864.78,462.484c-9.522,0-14.839-2.313-14.918-2.348l.259-.578c.116.052,11.876,5.149,31.889-.018l.158.613A69.525,69.525,0,0,1,864.78,462.484Z"/><path class="aa" d="M867.051,470.972a41.157,41.157,0,0,1-17.205-3.442l.29-.563c.138.071,14.029,7.034,32.56.744l.2.6A49.117,49.117,0,0,1,867.051,470.972Z"/><path class="aa" d="M867.649,479.309a62.686,62.686,0,0,1-18.095-2.508l.2-.6a64.587,64.587,0,0,0,33.989.389l.166.611A62.225,62.225,0,0,1,867.649,479.309Z"/><path class="t" d="M500.754,188.965c22.386-6.993,24.277-13.545,8.252-30.467,22.617,5.666,27.323.961,21.657-21.659,16.924,16.026,23.474,14.138,30.468-8.251,6.994,22.389,13.546,24.277,30.469,8.251-5.669,22.62-.962,27.325,21.656,21.659-16.025,16.922-14.135,23.474,8.252,30.467-22.387,6.993-24.277,13.546-8.252,30.47-22.618-5.666-27.325-.963-21.656,21.657-5.822-5.513-10.411-8.895-14.22-10.061v-2.3a36.56,36.56,0,1,0-32.5,0v2.295c-3.808,1.165-8.4,4.549-14.218,10.062,5.666-22.62.96-27.323-21.657-21.657C525.031,202.511,523.14,195.958,500.754,188.965Z"/><path class="af" d="M548.5,243.172h25.262a2.1,2.1,0,0,1,0,4.169H548.5a2.105,2.105,0,0,1,0-4.169Z"/><path class="ag" d="M548.5,248.994h25.262a2.107,2.107,0,0,1,0,4.175h-2.7l-2.72,5.534s-1.314,1.784-1.993,1.977-8.447,1.06-10.855,0a3.971,3.971,0,0,1-2.095-2.116c-.707-1.358-2.2-4.143-2.871-5.395H548.5a2.109,2.109,0,0,1,0-4.175Z"/><path class="af" d="M548.5,237.347h25.262a2.1,2.1,0,0,1,0,4.171H548.5a2.106,2.106,0,0,1,0-4.171Z"/><path class="r" d="M552.453,200.651c-.256-.515-.3-.912-.142-1.174s.323-.394.491-.394c.375,0,.889.519,1.136,1a3.919,3.919,0,0,1,.192,2.388A5.166,5.166,0,0,1,552.453,200.651Z"/><path class="r" d="M563.307,199.626a1.822,1.822,0,0,1-.049-1.375.171.171,0,0,1,.177-.092,1.055,1.055,0,0,1,.388.1,2.215,2.215,0,0,1,1.114,1.159,3.391,3.391,0,0,1,.167,2.743c-.061-.076-.126-.154-.188-.232A11.468,11.468,0,0,1,563.307,199.626Z"/><path class="r" d="M571.369,210.839a163.32,163.32,0,0,0-9.025,25.089h-3.832a166.123,166.123,0,0,0-8.4-23.711,11,11,0,0,0,5.56-6.218,11.036,11.036,0,0,0,5.393.771,10.139,10.139,0,0,0,3.972-1.128A20.968,20.968,0,0,0,571.369,210.839Z"/><path class="r" d="M577.095,206.238a1.158,1.158,0,0,1,.169-.012c.315,0,.686.126.754.4a1.618,1.618,0,0,1-.381,1.371,3.792,3.792,0,0,1-2.689,1.4,1.565,1.565,0,0,1-.222-.016q.306-.625.625-1.248C575.775,207.258,576.308,206.36,577.095,206.238Z"/><path class="r" d="M544.52,207l.013,0c.082,0,.338.1.93,1.07l.047.077c.371.73.74,1.48,1.123,2.275a3.084,3.084,0,0,1-1.953-.829,1.988,1.988,0,0,1-.49-1.551C544.237,207.321,544.422,207.051,544.52,207Z"/><path class="r" d="M561.131,162.371a34.032,34.032,0,0,1,14.256,64.935v6.609a2.013,2.013,0,0,1-2.009,2.013h-8.537a159.333,159.333,0,0,1,8.816-24.318,5.632,5.632,0,0,0,5.018-1.351,5.032,5.032,0,0,0,1.778-3.8,2.693,2.693,0,0,0-1.334-2.1,3.324,3.324,0,0,0-1.792-.544c-1.881,0-3.377,1.7-4.087,3.162q-.408.807-.808,1.63a17.233,17.233,0,0,1-5.592-4.529,4.974,4.974,0,0,0,.882-2.258,7,7,0,0,0-1.641-4.869,2.872,2.872,0,0,0-4.11-.622,2.984,2.984,0,0,0-1.31,2.049c-.236,1.853,1.373,3.818,2.55,5.252.053.063.1.128.153.19a5.058,5.058,0,0,1-1.074.344,9.45,9.45,0,0,1-5.224-.153c-.247-.1-.494-.2-.738-.307a14.365,14.365,0,0,0,.22-1.481,5.1,5.1,0,0,0-1.847-4.849,3.244,3.244,0,0,0-2.008-.72,2.372,2.372,0,0,0-1.762.721,3.465,3.465,0,0,0-1.052,2.8c.188,2.048,2.072,3.61,2.871,4.188.237.169.478.333.727.491-.615,1.713-1.909,4.259-4.35,5.221-.495-1.05-1.006-2.09-1.516-3.1a1.29,1.29,0,0,0-.128-.2c-.446-.677-1.609-2.2-3.039-2.2a2.174,2.174,0,0,0-1.459.592,4.359,4.359,0,0,0-.865,4.748c.69,1.858,2.521,2.967,4.9,2.967.246,0,.5-.011.745-.036a161.413,161.413,0,0,1,8.248,23.083h-7.123a2.012,2.012,0,0,1-2.014-2.013v-6.609a34.033,34.033,0,0,1,14.257-64.935Z"/></g></svg>