<svg xmlns="http://www.w3.org/2000/svg" width="134.698" height="70.058" viewBox="0 0 134.698 70.058"><defs><style>.a{fill:#c1272d;}.b{fill:#999;}.c{fill:#ccc;}.d{fill:#ed1c24;}</style></defs><g transform="translate(-425.351 -215.035)"><path class="a" d="M479.568,251.032l-20.777-8.346,33.44-23.176,20.777,8.346Z"/><path class="b" d="M460.588,238.211l-1.8,4.475,20.777,8.346,33.44-23.176,1.8-4.475Z"/><path class="c" d="M481.365,246.557l-20.777-8.346,33.44-23.176,20.777,8.346Z"/><path class="a" d="M446.128,274.208l-20.777-8.346,33.44-23.176,20.777,8.346Z"/><path class="a" d="M427.149,261.386l-1.8,4.475,20.777,8.346,33.44-23.176,1.8-4.475Z"/><path class="d" d="M447.926,269.733l-20.777-8.346,33.44-23.176,20.777,8.346Z"/><path class="a" d="M524.812,261.918l-20.777-8.346,33.44-23.176,20.777,8.346Z"/><path class="a" d="M505.833,249.1l-1.8,4.475,20.777,8.346,33.44-23.176,1.8-4.475Z"/><path class="d" d="M526.61,257.442,505.833,249.1l33.44-23.176,20.777,8.346Z"/><path class="a" d="M491.372,285.093,470.6,276.747l33.44-23.176,20.777,8.346Z"/><path class="b" d="M472.393,272.272l-1.8,4.475,20.777,8.346,33.44-23.176,1.8-4.475Z"/><path class="c" d="M493.17,280.618l-20.777-8.346,33.44-23.176,20.777,8.346Z"/></g></svg>