<svg xmlns="http://www.w3.org/2000/svg" xmlns:xlink="http://www.w3.org/1999/xlink" width="781.062" height="404.466" viewBox="0 0 781.062 404.466"><defs><style>.a{fill:none;}.b{clip-path:url(#a);}.c{fill:#eadff1;}.d,.f{fill:#d8a35d;}.d{fill-rule:evenodd;}.e{fill:#947dce;}.g{fill:#62548a;}.h{fill:#ffc84f;}.i{opacity:0.3;}.j{opacity:0.5;}.k{fill:#d19442;}.l{opacity:0.15;}.m{fill:#999;}.n{fill:#ccc;}.o{fill:gray;}</style><clipPath id="a"><rect class="a" width="781.062" height="404.466" transform="translate(781.062 404.466) rotate(-180)"/></clipPath></defs><g transform="translate(-608.944 -399.278)"><g class="b" transform="translate(608.944 399.278)"><path class="c" d="M1334.357,865.688c4.181-76.535-50.348-160.73-85.154-225.351A504.631,504.631,0,0,0,1115.166,480.7c-41.972-33.1-111.3-69.322-155.819-20.446-39.689,43.577-8.252,78.664-.92,124.383,6.877,42.893-9.227,79.153-42.517,105.93-63.171,50.812-150.626,87.2-200.038,153.131-9.87,13.168-23.332,32.624-13.179,47.614,11.778,17.389,58.553,23.037,77.354,24.589,73.614,6.079,149.166,2.087,222.851-1.352,72.857-3.4,145.163-7.664,218.162-7.6,43.413.039,99.265-9.267,140.8,8.588" transform="translate(-578.334 -386.664)"/><g transform="translate(46.949 83.16)"><g transform="translate(0 251.472)"><g transform="translate(18.048)"><path class="d" d="M677.224,660.3s-6.343-7.234-13.739-8.689c-4.4-.864-4.247-1.973-4.987-2.336-2.46-1.206-.226,3.542,3.483,4.888,3.014,1.094,4.506,6.384,6.3,7.566s7.2,3.44,8.6,2.778S677.224,660.3,677.224,660.3Z" transform="translate(-657.464 -649.081)"/></g><g transform="translate(0 6.554)"><path class="d" d="M701.3,668.515c-1.35-.516-15.437-9.759-23.239-10.8s-19.5-1.853-23.492-3.168c-4.7-1.547-5.979.292-.585,2.608,3.506,1.506,10.714,3.912,12.327,4.044.782.064-4.292-.831-9.79-2.208-5.844-1.464-12.171-3.389-12.506-2.351-.652,2.013,16.141,7.289,19.12,7.735a75.448,75.448,0,0,1-7.849-1.279c-3.534-.778-7.561-2.205-8.393-1.5-1.311,1.112,7.538,5.01,14.928,6.346.119.247-2.3.524-10.969-1.652-.871-.218-3.125.074-.3,1.522,5.942,3.05,8.273,4.8,17.041,5.435,8.551.619,18.072-.754,24.145,1.563Z" transform="translate(-643.991 -653.974)"/></g></g><g transform="translate(40.792 122.908)"><path class="e" d="M684.774,713.215c6.853,2.682,56.609,11.807,102.281,1.776,28.827-6.319,56.015-20.285,69.77-48.317,35.542-72.462-47.51-113.566-47.51-113.566a1.5,1.5,0,0,0-.125.2c-3.6,5.437-81.015,121.586-134.733,139.711C674.458,693.017,673.6,708.834,684.774,713.215Z" transform="translate(-674.443 -553.108)"/></g><g transform="translate(362.311 419.532)"><path class="f" d="M941.015,774.537s-1.728,159.794,5.037,161.959c12.143,3.962,59.424,16.273,8.53,17.052-25.85,3.8-24.443-2.169-25.271-7.053-.678-3.992-12.113-145.882-14.13-156.82-.451-2.45-.725-3.93-.725-3.93Z" transform="translate(-914.456 -774.537)"/></g><g transform="translate(228.89 408.275)"><path class="f" d="M865.106,766.134S853.674,924.922,846.852,926.9c-12.25,3.621-59.858,14.6-9.006,16.805,25.733,4.525,24.494-1.482,25.46-6.342.789-3.971,7.207-34.055,9.53-44.932.52-2.435,19.731-125.451,19.731-125.451Z" transform="translate(-814.857 -766.134)"/></g><g transform="translate(227.305 566.727)"><path class="g" d="M867.047,887.332c.563-2.247-15.7-3.89-17.745-2.247s-35.166,4.62-35.624,14.3,45.244,7.254,48.473,7.395S865.94,891.748,867.047,887.332Z" transform="translate(-813.674 -884.419)"/></g><g transform="translate(262.322 240.196)"><path class="h" d="M848.654,652.746a10.068,10.068,0,0,0,5.924,2.138c13.409-.888,71.311-4.871,102.521-9.37,11.01-1.589,18.7-3.24,19.934-4.851a1.23,1.23,0,0,1,0,.129c.067,1.736.777,21.614,1.617,47.677,1.656,51.452,13.259,124.348,21.358,146.079,1.748,4.691-70.714,3.59-70.714,3.59-4.746-52.835-7.712-146.054-11.309-149.933-4.375-4.721-3.745,77.444-5.2,146.369-27.81,9.869-73.246,9.238-72.975,6.277C843.021,805.687,848.654,652.746,848.654,652.746Z" transform="translate(-839.814 -640.663)"/><g class="i" transform="translate(61.838)"><g transform="translate(0 10.631)"><path d="M886.626,648.6l-.65,0S886.206,648.6,886.626,648.6Z" transform="translate(-885.976 -648.599)"/></g><g class="j" transform="translate(0.65)"><path d="M886.461,651.294c17.348-.106,54.8-5.78,54.8-5.78,11.01-1.589,18.7-3.24,19.934-4.851a1.23,1.23,0,0,1,0,.129c.067,1.736.777,21.614,1.617,47.677a12.694,12.694,0,0,1-1.83-.054c-3.938-.384-7.12-2.532-9.675-5.695a31.418,31.418,0,0,1-4.183-7.1C932.176,652.283,892.024,651.315,886.461,651.294Z" transform="translate(-886.461 -640.663)"/></g></g><g transform="translate(18.838 4.432)"><g transform="translate(0 5.314)"><rect class="e" width="192.33" height="1.241" transform="translate(0 192.321) rotate(-89.453)"/></g><g transform="translate(18.285 7.572)"><rect class="e" width="188.998" height="1.242" transform="translate(0 188.988) rotate(-89.399)"/></g><g transform="translate(37.984 6.053)"><rect class="e" width="1.241" height="187.418" transform="translate(0 0.006) rotate(-0.28)"/></g><g transform="translate(55.014 4.531)"><rect class="e" width="1.242" height="38.697" transform="translate(0 0.119) rotate(-5.491)"/></g><g transform="translate(73.928 2.921)"><rect class="e" width="1.241" height="190.625" transform="translate(0 0.084) rotate(-3.864)"/></g><g transform="translate(90.16 1.397)"><rect class="e" width="1.241" height="192.195" transform="translate(0 0.101) rotate(-4.65)"/></g><g transform="translate(106.228 0)"><rect class="e" width="1.242" height="193.331" transform="matrix(0.995, -0.104, 0.104, 0.995, 0, 0.13)"/></g></g><g transform="translate(8.055 20.37)"><path class="e" d="M845.875,668.259c1.033-.04,103.52-4.071,130.007-11.191l-.323-1.2c-26.352,7.084-128.7,11.109-129.732,11.149Z" transform="translate(-845.827 -655.869)"/></g><g transform="translate(7.259 46.95)"><path class="e" d="M879.58,682.248a121.726,121.726,0,0,0,36.756-5.353l-.378-1.184c-34.666,11.049-70.038,1.415-70.391,1.316l-.334,1.2A142.976,142.976,0,0,0,879.58,682.248Z" transform="translate(-845.233 -675.711)"/></g><g transform="translate(77.46 40.737)"><path class="e" d="M921.836,678.017c11.211,0,24.769-1.253,37.181-5.778l-.426-1.167c-27.342,9.969-60.391,3.858-60.722,3.8l-.232,1.219A145.537,145.537,0,0,0,921.836,678.017Z" transform="translate(-897.638 -671.073)"/></g><g transform="translate(6.621 62.422)"><path class="e" d="M878.965,693.7a141.068,141.068,0,0,0,34.731-4.468l-.305-1.2c-40.805,10.36-67.885-.66-68.154-.773l-.479,1.145C844.943,688.484,857.768,693.7,878.965,693.7Z" transform="translate(-844.757 -687.261)"/></g><g transform="translate(6.043 79.219)"><path class="e" d="M883.517,704.961c10.143,0,20.734-.965,29.744-3.849l-.378-1.182c-26.78,8.572-67.888-.044-68.3-.131l-.26,1.214A214.04,214.04,0,0,0,883.517,704.961Z" transform="translate(-844.325 -699.8)"/></g><g transform="translate(5.129 96.027)"><path class="e" d="M879.125,720.815a144.864,144.864,0,0,0,33.893-4.33l-.291-1.207c-46.121,11.107-68.188-2.789-68.4-2.931l-.679,1.039C843.8,713.491,855.383,720.815,879.125,720.815Z" transform="translate(-843.643 -712.347)"/></g><g transform="translate(4.391 114.47)"><path class="e" d="M877.479,733.866a97.258,97.258,0,0,0,35.567-6.595l-.453-1.156c-36.127,14.145-68.7.877-69.023.742L843.092,728C843.308,728.092,857.479,733.866,877.479,733.866Z" transform="translate(-843.092 -726.115)"/></g><g transform="translate(3.514 132.876)"><path class="e" d="M875.077,747.3a138.819,138.819,0,0,0,37.89-5.693l-.339-1.2c-45.683,12.971-69.329-.422-69.562-.559l-.63,1.07C842.6,741.019,853.649,747.3,875.077,747.3Z" transform="translate(-842.437 -739.855)"/></g><g transform="translate(2.719 147.925)"><path class="e" d="M873.078,760.363a102.434,102.434,0,0,0,39.984-8.131l-.482-1.143c-38.056,16.054-69.938,3.12-70.257,2.987l-.478,1.145C842.044,755.3,854.492,760.363,873.078,760.363Z" transform="translate(-841.844 -751.089)"/></g><g transform="translate(1.843 163.401)"><path class="e" d="M869.19,772.089c10.881,0,25.291-2.021,43.845-8.271l-.4-1.176c-50.7,17.076-70.476,1.865-70.669,1.709l-.78.966C841.707,765.735,849.9,772.089,869.19,772.089Z" transform="translate(-841.19 -762.642)"/></g><g transform="translate(1.084 178.882)"><path class="e" d="M872.532,782.639A118.438,118.438,0,0,0,913,775.366l-.423-1.168c-40.711,14.765-71.17,2.291-71.472,2.163l-.482,1.144C840.816,777.587,853.148,782.639,872.532,782.639Z" transform="translate(-840.623 -774.198)"/></g><g transform="translate(80.194 59.598)"><path class="e" d="M920.566,692.5c9.25,0,22.052-1.462,39.332-6.147l-.324-1.2c-44.265,12-59.045,2.415-59.19,2.317l-.7,1.023C900.05,688.75,905.751,692.5,920.566,692.5Z" transform="translate(-899.679 -685.153)"/></g><g transform="translate(82.139 75.512)"><path class="e" d="M921.331,703.8c9.532,0,22.363-1.255,38.348-5.567l-.324-1.2c-37.768,10.188-57.6,3.214-57.8,3.141l-.426,1.167C901.246,701.384,908.117,703.8,921.331,703.8Z" transform="translate(-901.131 -697.033)"/></g><g transform="translate(82.904 92.362)"><path class="e" d="M922.238,717.595c11,0,25.069-1.419,38.761-6.829l-.457-1.155c-28.316,11.19-58.285,5.1-58.585,5.039l-.255,1.214A112.281,112.281,0,0,0,922.238,717.595Z" transform="translate(-901.702 -709.611)"/></g><g transform="translate(83.74 107.837)"><path class="e" d="M926.133,730.781a80.532,80.532,0,0,0,36.608-8.51l-.563-1.108c-29.7,15.085-59.155,5.223-59.448,5.121l-.4,1.173A81.2,81.2,0,0,0,926.133,730.781Z" transform="translate(-902.326 -721.163)"/></g><g transform="translate(84.772 124.76)"><path class="e" d="M923.873,742.294a116.427,116.427,0,0,0,40.8-7.337l-.437-1.161c-32.623,12.242-60.549,5.314-60.827,5.243l-.309,1.2A93.4,93.4,0,0,0,923.873,742.294Z" transform="translate(-903.096 -733.796)"/></g><g transform="translate(85.689 141.007)"><path class="e" d="M924.029,754.978c10.707,0,25.294-1.694,42.872-7.882l-.411-1.171c-38.233,13.459-62.064,5.475-62.3,5.392l-.409,1.174C903.911,752.536,911.174,754.978,924.029,754.978Z" transform="translate(-903.781 -745.925)"/></g><g transform="translate(86.901 156.855)"><path class="e" d="M930.965,767.095a95.343,95.343,0,0,0,38.427-8.2l-.5-1.137c-35.172,15.416-63.455,4.134-63.736,4.017l-.472,1.149C904.856,762.991,915.14,767.095,930.965,767.095Z" transform="translate(-904.686 -757.755)"/></g><g transform="translate(87.889 174.026)"><path class="e" d="M929.714,779.079a125.543,125.543,0,0,0,42.9-7.34l-.426-1.167c-34.421,12.585-66.154,5.029-66.47,4.951l-.3,1.206A114.031,114.031,0,0,0,929.714,779.079Z" transform="translate(-905.423 -770.573)"/></g></g><g transform="translate(249.892 46.768)"><path class="k" d="M839.974,498.166s3.034,14.912,14.39,20.268-20.644,6.163-20.644,6.163,1.356-15.554-2.461-23.829S839.974,498.166,839.974,498.166Z" transform="translate(-830.535 -496.269)"/></g><g transform="translate(229.046 6.657)"><ellipse class="f" cx="22.299" cy="16.344" rx="22.299" ry="16.344" transform="translate(0 41.615) rotate(-68.921)"/></g><g transform="translate(150.304 57.024)"><path class="e" d="M759.294,731.693c28.826-6.319,56.015-20.285,69.77-48.318.05.075.1.137.149.212.149.186.3.384.447.608a.635.635,0,0,1,.1.137c3.96,5.412,23.4,31.992,23.4,32,7.052,9.187,17.827,18.014,26.38,21.563.559.249,1.129.459,1.65.646,20.969,3.278,108.291-29.906,118.694-38.2,4.693-3.738,6.531-21.254,6.9-40.248.472-23.153-1.2-48.54-2.433-53.892-2.086-8.975-43.314-108.277-108.005-102a66.377,66.377,0,0,0-16.835,3.948s-.483.509-1.341,1.266a31.8,31.8,0,0,1-5.847,4.159,24.794,24.794,0,0,1-5.971,2.4,18.309,18.309,0,0,1-12.2-.994c-4.047-1.812-13.034.311-23.947,6.406-15.159,8.454-34.066,24.58-48.652,48.417a1.5,1.5,0,0,0-.125.2A155.967,155.967,0,0,0,760.524,627.4,370.117,370.117,0,0,0,759.294,731.693Z" transform="translate(-756.193 -503.926)"/></g><g class="l" transform="translate(223.177 210.808)"><path d="M810.593,644.386c.049.076.106.137.154.213.147.189.3.39.441.607.038.04.064.084.106.137,3.961,5.412,23.391,32,23.395,32.013,7.054,9.178,17.827,18.011,26.389,21.557-9.73-15.531-38.951-60.251-44.295-80.188C819.688,638.613,810.59,644.374,810.593,644.386Z" transform="translate(-810.593 -618.725)"/></g><g class="l" transform="translate(224.319 67.462)"><path d="M849.677,516.53c.47,1.4,0,2.553-2.367,2.923-7.377,1.152-15.322,3.745-20.343,8.146a5.154,5.154,0,0,1-4.843,1.226c-4.374-1.065-8.62-6.871-10.4-9.476a2.068,2.068,0,0,1-.284-.6c10.915-6.1,19.894-8.22,23.949-6.4a18.271,18.271,0,0,0,12.2.982A10.066,10.066,0,0,1,849.677,516.53Z" transform="translate(-811.445 -511.717)"/></g><g transform="translate(237.066)"><g transform="translate(0 4.351)"><g transform="translate(10.955 0.523)"><path class="h" d="M832.307,479.312s20.76,24.815,21.983-1.708C855.135,459.253,818.339,461.894,832.307,479.312Z" transform="translate(-829.139 -464.995)"/></g><path class="h" d="M841.076,475.306s-18.151,3.07-20.115,12.413c0,0,6.861-27.507,21.8-22.505s20.083,8.611,8.079,35.867C850.843,501.081,855.087,477.355,841.076,475.306Z" transform="translate(-820.961 -464.605)"/></g><g transform="translate(21.097)"><path class="h" d="M836.71,466.241s3.9-7.894,11.557-3.61,9.352,10.257,8.723,15.337-.808,9,.35,9.448c0,0-4.815,2.135-5.526.53,0,0-.2,9.49-6.66,14.856,0,0,2.557-11.116-2.788-14.506S836.71,466.241,836.71,466.241Z" transform="translate(-836.71 -461.357)"/></g><g transform="translate(0.948 2.611)"><path class="h" d="M842.587,465.794s-4.452-5.708-13.369.169l-6.154,5.61s.711,1.6,3.475,1.34c0,0-4.2,7.755-4.869,12.789l8.792-12.608Z" transform="translate(-821.669 -463.306)"/></g></g><g transform="translate(241.016 148.485)"><path class="m" d="M830.6,657.383l94.458,38.66a10.77,10.77,0,0,0,14.037-5.879l26.379-64.472a3.367,3.367,0,0,0,.166-.466,10.732,10.732,0,0,0-6.052-13.561L865.129,573a10.752,10.752,0,0,0-14.025,5.886l-25.167,61.478-1.224,2.989A10.753,10.753,0,0,0,830.6,657.383Z" transform="translate(-823.909 -572.201)"/><g transform="translate(1.396)"><path class="n" d="M831.636,653.929l94.458,38.66a10.751,10.751,0,0,0,14.025-5.886l25.167-61.478a10.732,10.732,0,0,0-6.052-13.561L864.776,573a10.752,10.752,0,0,0-14.025,5.886l-25.167,61.478A10.731,10.731,0,0,0,831.636,653.929Z" transform="translate(-824.951 -572.201)"/></g><g transform="translate(64.658 52.125)"><circle class="o" cx="8.308" cy="8.308" r="8.308"/></g></g><g class="l" transform="translate(257.899 198.892)"><path d="M964.319,624.613s-9.058-35.981-100.671,4.327,78.122,1.291,78.122,1.291Z" transform="translate(-836.513 -609.83)"/></g><g class="l" transform="translate(344.922 122.907)"><path d="M901.488,553.107s-3.218,97.149,90.066,110.152l2,.611-6.626-20.647s-54.793-42.425-55.353-43.77S901.488,553.107,901.488,553.107Z" transform="translate(-901.475 -553.107)"/></g><g transform="translate(248.003 48.411)"><g transform="translate(0 173.928)"><g transform="translate(0 3.742)"><path class="d" d="M878.991,632.707c-1.24-.042-15.27-3.615-21.9-2.284s-16.36,3.942-19.975,3.989c-4.252.056-4.777,1.909.253,2.284,3.268.244,9.8.185,11.145-.158.654-.166-3.719.524-8.571.94-5.159.443-10.837.647-10.82,1.585.034,1.818,15.152,1.413,17.7.943a64.99,64.99,0,0,1-6.734,1.153c-3.089.355-6.761.32-7.239,1.125-.754,1.27,7.524,1.965,13.9.986.166.166-1.72,1.066-9.374,1.721-.769.066-2.518.932.18,1.321,5.681.818,8.064,1.59,15.366-.344,7.12-1.886,14.473-5.664,20.055-5.476Z" transform="translate(-829.125 -630.126)"/></g><g transform="translate(12.161)"><path class="d" d="M857.307,631.078s-7.175-4.106-13.59-3.22c-3.814.525-4-.418-4.706-.506-2.335-.292.807,2.942,4.2,3,2.754.047,5.444,3.929,7.23,4.39s6.812.782,7.764-.147S857.307,631.078,857.307,631.078Z" transform="translate(-838.204 -627.333)"/></g></g><g transform="translate(24.826)"><path class="e" d="M931.425,503.205c28.393,13.36,49.456,27.35,77.415,85.717,14.185,29.612,22.186,61.07,25.8,77.841a20.2,20.2,0,0,1-8.28,20.809c-63.289,44.117-160.29.524-160.29.524-4.467-.3-.654-17.048-.654-17.048,38.691-11.991,68.785-19.68,103.265-17.018-.178-.027-47.388-47.81-56.161-62.263-22.993-37.9-68.9-62.939-64.579-81.776C849.433,503.479,902.786,489.732,931.425,503.205Z" transform="translate(-847.657 -497.496)"/></g></g><g transform="translate(375.053 576.484)"><path class="g" d="M923.977,892.936c-.5-2.262,19.237-1.035,21.239.665s31.034,6.977,31.22,16.667-45.429,5.983-48.66,6.032S924.959,897.38,923.977,892.936Z" transform="translate(-923.968 -891.702)"/></g></g></g></g></svg>