<svg xmlns="http://www.w3.org/2000/svg" width="402" height="291.437" viewBox="0 0 402 291.437"><defs><style>.a{fill:#eadff1;}.b{fill:#375a64;}.c{fill:#2b454e;}.d,.g{fill:#1a2e35;}.e{fill:#a088db;}.f,.g{opacity:0.3;}.h{opacity:0.1;}.i,.n{opacity:0.5;}.j,.n{fill:#fff;}.k{opacity:0.15;}.l{fill:#fafafa;}.m{fill:#e1e1e1;}</style></defs><g transform="translate(-811.94 -329.286)"><path class="a" d="M892.867,457.768c26.018-38.718,54.323-76.138,87.635-108.793,12.293-12.052,29.243-24.27,45.268-17.98,13.718,5.385,19.307,22.171,18.868,36.9s-5.125,29.193-4.537,43.919,8.884,31,23.422,33.419c13.82,2.3,25.929-8.43,36.874-17.175a178.8,178.8,0,0,1,75.55-35.341c7.971-1.625,17.515-2.215,22.95,3.84,5.943,6.621,3.387,16.958.491,25.371l-20.66,60.042c-2.889,8.395-4.47,20.177,3.593,23.893,5.88,2.71,12.762-1.358,19.169-.42,8.037,1.175,12.986,10.237,12.4,18.339s-5.206,15.293-9.929,21.9c-15.74,22.025-34.518,42.335-57.614,56.458s-50.873,21.688-77.6,17.373c-12.451-2.01-26.067-8.176-29.421-20.334-1.7-6.173-.4-12.883-2.177-19.035-3.429-11.893-17.508-17.889-29.837-16.791s-23.472,7.407-34.647,12.729a240.1,240.1,0,0,1-136.32,20.772c-8.83-1.264-18.795-3.893-22.763-11.882-4.08-8.214.179-17.963,4.607-25.994a496.591,496.591,0,0,1,89.636-117.13"/><g transform="translate(857.155 332.649)"><path class="b" d="M1119.077,578.158a8.573,8.573,0,0,1-4,6.637l-87.02,50.251a8.838,8.838,0,0,1-7.994,0L866.833,546.577a7.51,7.51,0,0,1,0-13.275l87.02-50.251a8.832,8.832,0,0,1,7.994,0l153.234,88.469A8.57,8.57,0,0,1,1119.077,578.158Z" transform="translate(-862.833 -349.698)"/><path class="c" d="M862.833,546.436a8.566,8.566,0,0,0,4,6.635l153.237,88.474a8.233,8.233,0,0,0,3.991.953v-8.656a8.158,8.158,0,0,1-3.991-.96L866.831,544.414c-1.933-1.114-2.174-2.839-.724-4.106A8.574,8.574,0,0,0,862.833,546.436Z" transform="translate(-862.833 -356.193)"/><path class="d" d="M1044.308,638.613v8.65a8.155,8.155,0,0,0,4-.951l87.024-50.254a7.485,7.485,0,0,0,.406-13.015c1.791,1.283,1.653,3.165-.406,4.357L1048.3,637.653A8.149,8.149,0,0,1,1044.308,638.613Z" transform="translate(-883.08 -360.961)"/><path class="b" d="M1134.758,555.037c2.071-1.2,1.958-3.215,1.958-5.763v-120.2a8.834,8.834,0,0,0-4-6.923L979.488,333.685c-2.208-1.274-4.244-.351-6.315.845s-3.391,2.226-3.391,4.775V459.5a8.834,8.834,0,0,0,4,6.923l153.234,88.469A8.572,8.572,0,0,0,1134.758,555.037Z" transform="translate(-874.765 -333.072)"/><path class="c" d="M1131.01,432.814v120.2c0,2.549-1.79,3.582-4,2.308L973.779,466.85a8.834,8.834,0,0,1-4-6.923V339.73c0-2.549,1.789-3.582,4-2.307l153.234,88.469A8.835,8.835,0,0,1,1131.01,432.814Z" transform="translate(-874.765 -333.496)"/><path class="d" d="M1147.289,566.7a8.586,8.586,0,0,0,7.274-.1c2.067-1.191,1.956-3.211,1.956-5.759v-120.2a8.075,8.075,0,0,0-1.172-3.932l-5.7,3.3v.01a8.186,8.186,0,0,1,1.173,3.932v120.2C1150.815,566.513,1149.274,567.574,1147.289,566.7Z" transform="translate(-894.569 -344.634)"/><path class="e" d="M1125.484,431.509,977.747,346.236c-1.324-.765-2.4-.145-2.4,1.385V457.6a5.3,5.3,0,0,0,2.4,4.153l147.737,85.272c1.325.764,2.4.145,2.4-1.385V435.663A5.3,5.3,0,0,0,1125.484,431.509Z" transform="translate(-875.386 -334.504)"/><path class="f" d="M1125.484,431.509,977.747,346.236c-1.324-.765-2.4-.145-2.4,1.385V457.6a5.3,5.3,0,0,0,2.4,4.153l147.737,85.272c1.325.764,2.4.145,2.4-1.385V435.663A5.3,5.3,0,0,0,1125.484,431.509Z" transform="translate(-875.386 -334.504)"/><path class="c" d="M1115.321,572.644,973.086,490.527a4.413,4.413,0,0,0-4,0l-4.137,2.173a1.218,1.218,0,0,0,0,2.308l142.255,82.1a4.419,4.419,0,0,0,4,0l4.117-2.161A1.218,1.218,0,0,0,1115.321,572.644Z" transform="translate(-874.134 -350.586)"/><g transform="translate(46.53 146.031)"><path class="g" d="M1098.707,580.1,956.475,497.984a4.077,4.077,0,0,0-3.651-.2L915.8,519.16c-.912.527-.758,1.47.346,2.108l142.066,82.007a4.1,4.1,0,0,0,3.657.205l37.177-21.275C1099.963,581.681,1099.81,580.74,1098.707,580.1Z" transform="translate(-915.207 -497.441)"/><path class="e" d="M977.807,532.575l3.928-2.268c.155-.09.128-.25-.061-.359l-4.454-2.572a.7.7,0,0,0-.623-.036l-3.929,2.268c-.155.09-.127.251.062.36l4.453,2.571A.7.7,0,0,0,977.807,532.575Zm4.968-8.8-3.929,2.268c-.155.09-.127.25.062.36l4.453,2.571a.7.7,0,0,0,.624.036l3.928-2.268c.156-.09.127-.25-.061-.361l-4.454-2.57A.7.7,0,0,0,982.775,523.774Zm14.386,8.307-3.928,2.268c-.154.09-.127.251.062.36l7.537,4.351a.7.7,0,0,0,.623.036l3.929-2.268c.155-.089.127-.251-.062-.36l-7.537-4.351A.7.7,0,0,0,997.161,532.08Zm-7.878-4.549-3.929,2.268c-.155.089-.127.25.062.36l4.453,2.571a.7.7,0,0,0,.623.036l3.929-2.268c.155-.089.127-.251-.061-.359l-4.454-2.572A.694.694,0,0,0,989.283,527.532Zm17.47,10.086-3.928,2.268c-.156.09-.128.25.061.36l4.454,2.571a.7.7,0,0,0,.623.036l3.929-2.268c.155-.09.127-.251-.062-.361l-4.454-2.57A.7.7,0,0,0,1006.753,537.618Zm6.509,3.758-3.929,2.268c-.155.09-.127.25.062.36l4.454,2.571a.7.7,0,0,0,.623.036l3.929-2.268c.155-.089.127-.251-.062-.36l-4.453-2.571A.7.7,0,0,0,1013.262,541.376Zm-15.256,9.995,3.929-2.267c.155-.09.127-.251-.063-.361l-4.453-2.57a.7.7,0,0,0-.623-.036l-3.929,2.268c-.155.09-.127.251.061.36l4.454,2.571A.7.7,0,0,0,998.006,551.371Zm6.509,3.758,3.929-2.268c.155-.089.127-.251-.062-.36l-4.454-2.571a.7.7,0,0,0-.624-.036l-3.928,2.268c-.155.09-.127.251.062.36l4.453,2.571A.7.7,0,0,0,1004.515,555.129Zm6.509,3.758,3.928-2.268c.155-.09.128-.251-.061-.36l-4.454-2.571a.694.694,0,0,0-.623-.036l-3.929,2.268c-.155.089-.127.25.062.359l4.453,2.572A.7.7,0,0,0,1011.023,558.887Zm6.509,3.757,3.928-2.267c.155-.09.128-.251-.061-.36l-4.454-2.571a.692.692,0,0,0-.623-.036l-3.929,2.267c-.155.09-.127.251.062.36l4.454,2.571A.7.7,0,0,0,1017.532,562.644Zm-33.217-26.311,3.928-2.268c.156-.09.127-.251-.062-.36l-4.453-2.571a.694.694,0,0,0-.623-.036l-3.929,2.268c-.155.089-.127.25.062.359l4.453,2.572A.7.7,0,0,0,984.315,536.333Zm7.182,11.28,3.928-2.267c.155-.09.127-.251-.062-.36l-4.11-2.374c-.189-.108-.218-.27-.062-.359l5.617-3.243c.155-.09.127-.251-.062-.361l-5.139-2.966a.7.7,0,0,0-.623-.036l-10.106,5.834c-.155.09-.128.251.061.36l9.934,5.736A.7.7,0,0,0,991.5,547.613Zm28.273-2.479-3.928,2.268c-.156.089-.128.251.061.36l4.454,2.571a.7.7,0,0,0,.623.036l3.929-2.268c.155-.089.127-.25-.062-.36l-4.454-2.571A.7.7,0,0,0,1019.771,545.134Zm6.509,3.758-3.928,2.267c-.156.09-.128.251.061.36l4.454,2.571a.7.7,0,0,0,.624.036l3.928-2.268c.156-.09.127-.251-.062-.36l-4.453-2.571A.7.7,0,0,0,1026.28,548.892Zm40.742,37.789c.155-.09.127-.251-.062-.361l-4.453-2.57a.7.7,0,0,0-.624-.036l-3.928,2.268c-.156.089-.127.251.061.36l4.454,2.571a.7.7,0,0,0,.623.036Zm11.328-7.728-3.929,2.268c-.155.09-.127.25.062.36l4.453,2.571a.7.7,0,0,0,.624.036l3.928-2.268c.155-.089.128-.251-.061-.36l-4.454-2.571A.7.7,0,0,0,1078.349,578.954Zm-3.438,5.149c.156-.09.128-.251-.061-.36l-4.454-2.571a.694.694,0,0,0-.623-.036l-3.928,2.268c-.156.089-.128.25.061.359l4.454,2.572a.7.7,0,0,0,.623.036Zm-21.422,6.435,3.928-2.268c.155-.089.127-.25-.062-.36l-4.454-2.571a.694.694,0,0,0-.623-.036l-3.929,2.268c-.155.089-.127.251.062.36l4.454,2.571A.7.7,0,0,0,1053.49,590.538Zm10.436,1.49c.156-.09.127-.251-.061-.36l-4.454-2.571a.7.7,0,0,0-.623-.036l-3.929,2.268c-.155.089-.127.25.062.359l4.454,2.571a.7.7,0,0,0,.623.036Zm7.915-16.832-3.929,2.268c-.155.09-.127.25.062.36l4.453,2.571a.7.7,0,0,0,.624.036l3.928-2.268c.155-.09.128-.251-.061-.36l-4.454-2.571A.7.7,0,0,0,1071.841,575.2ZM1039.3,556.407l-3.928,2.268c-.155.09-.127.251.061.36l4.454,2.571a.7.7,0,0,0,.624.036l3.928-2.268c.156-.09.127-.25-.061-.36l-4.454-2.571A.7.7,0,0,0,1039.3,556.407Zm26.035,15.03-3.928,2.269c-.155.089-.127.25.062.36l4.453,2.57a.7.7,0,0,0,.624.036l3.928-2.268c.156-.089.127-.251-.061-.36l-4.454-2.571A.7.7,0,0,0,1065.331,571.438Zm-32.543-18.789-3.928,2.268c-.156.09-.128.25.062.36l4.453,2.571a.7.7,0,0,0,.624.036l3.928-2.268c.156-.089.127-.251-.062-.359l-4.453-2.572A.7.7,0,0,0,1032.788,552.649Zm13.018,7.516-3.929,2.267c-.156.09-.127.251.062.36l4.453,2.571a.692.692,0,0,0,.623.036l3.929-2.267c.156-.09.127-.25-.062-.36l-4.453-2.571A.7.7,0,0,0,1045.806,560.165Zm6.508,3.757-3.928,2.268c-.156.09-.127.251.061.36l4.454,2.571a.694.694,0,0,0,.623.036l3.929-2.268c.156-.089.127-.25-.062-.359l-4.453-2.571A.7.7,0,0,0,1052.314,563.923Zm6.509,3.758-3.928,2.268c-.155.089-.127.251.062.36l4.454,2.571a.7.7,0,0,0,.624.036l3.928-2.268c.155-.089.127-.251-.062-.36l-4.453-2.571A.7.7,0,0,0,1058.823,567.681Zm-28.273,2.48,3.929-2.268c.155-.09.127-.251-.062-.36l-4.454-2.571a.7.7,0,0,0-.623-.036l-3.928,2.268c-.155.089-.127.25.062.36l4.453,2.571A.7.7,0,0,0,1030.549,570.16Zm-62.163-54.694-3.929,2.268c-.155.09-.127.251.062.36l4.453,2.571a.7.7,0,0,0,.624.036l3.929-2.268c.155-.09.127-.251-.062-.36l-4.454-2.571A.7.7,0,0,0,968.387,515.467Zm7.879,4.55-3.928,2.267c-.156.09-.127.251.062.361l4.453,2.57a.7.7,0,0,0,.624.036l3.928-2.268c.155-.09.127-.251-.062-.36l-4.453-2.571A.7.7,0,0,0,976.265,520.016Zm-14.387-8.307-3.929,2.267c-.155.09-.127.25.062.361l4.454,2.57a.7.7,0,0,0,.623.036l3.929-2.268c.155-.09.127-.251-.062-.36l-4.454-2.571A.694.694,0,0,0,961.878,511.71Zm37.51,33.326,3.929-2.268c.155-.09.127-.251-.062-.36l-4.453-2.571a.7.7,0,0,0-.624-.035l-3.928,2.268c-.156.09-.128.251.061.36L998.765,545A.7.7,0,0,0,999.388,545.035ZM951.441,510.22c-.155.09-.127.251.062.36l4.454,2.571a.7.7,0,0,0,.623.036l3.928-2.268c.156-.089.127-.251-.062-.36l-4.452-2.571a.7.7,0,0,0-.624-.036Zm72.6,56.183,3.929-2.268c.155-.089.127-.25-.062-.359l-4.454-2.572a.7.7,0,0,0-.623-.036l-3.928,2.268c-.155.09-.128.251.061.36l4.454,2.571A.7.7,0,0,0,1024.041,566.4ZM944.224,520.32l3.928-2.268c.155-.09.127-.251-.062-.36l-4.453-2.571a.7.7,0,0,0-.623-.036l-3.929,2.267c-.155.09-.128.251.062.36l4.453,2.571A.7.7,0,0,0,944.224,520.32Zm12.686.191,3.929-2.268c.155-.09.127-.251-.062-.36l-4.454-2.571a.694.694,0,0,0-.623-.036l-3.928,2.267c-.155.09-.128.25.061.36l4.454,2.571A.7.7,0,0,0,956.91,520.511Zm-11.647-6.724c-.155.089-.127.25.062.36l4.454,2.571a.7.7,0,0,0,.623.036l3.929-2.268c.155-.089.127-.25-.062-.36l-4.454-2.571a.7.7,0,0,0-.623-.036Zm2.5-3.42-4.453-2.57a.7.7,0,0,0-.624-.036L932.576,513.6c-.155.089-.126.251.063.36l4.453,2.571a.7.7,0,0,0,.624.036l10.106-5.835C947.976,510.638,947.948,510.476,947.759,510.367Zm14.449,8.667L958.28,521.3c-.155.09-.127.251.062.36l4.454,2.571a.694.694,0,0,0,.623.035L967.347,522c.155-.09.127-.251-.062-.36l-4.453-2.571A.7.7,0,0,0,962.208,519.034Zm48.986,28.282-3.928,2.268c-.155.09-.128.251.061.36l4.454,2.571a.694.694,0,0,0,.623.036l3.929-2.268c.155-.089.127-.25-.062-.359l-4.453-2.572A.7.7,0,0,0,1011.195,547.316ZM954.66,521.809c.155-.089.127-.251-.062-.359l-4.453-2.572a.7.7,0,0,0-.624-.036l-3.928,2.268c-.156.09-.127.25.061.36l4.454,2.571a.7.7,0,0,0,.623.036Zm50.026,21.75-3.928,2.268c-.155.089-.128.25.061.359l4.454,2.572a.7.7,0,0,0,.623.036l3.929-2.268c.155-.09.127-.251-.062-.36l-4.453-2.571A.7.7,0,0,0,1004.686,543.559Zm55.826,39.365c.155-.09.127-.251-.062-.36L1056,579.993a.7.7,0,0,0-.623-.036l-3.928,2.268c-.156.09-.127.251.061.36l4.454,2.571a.7.7,0,0,0,.623.036Zm2.752-5.545-3.929,2.268c-.155.09-.127.251.062.36l4.454,2.571a.7.7,0,0,0,.623.036l3.928-2.268c.155-.089.128-.251-.061-.36l-4.454-2.571A.694.694,0,0,0,1063.265,577.379Zm-13.19,4.055,3.929-2.268c.155-.09.127-.25-.062-.36l-4.453-2.571a.7.7,0,0,0-.624-.036l-3.929,2.267c-.155.09-.126.251.063.361l4.453,2.571A.7.7,0,0,0,1050.075,581.434Zm-6.509-3.758,3.929-2.268c.155-.089.127-.25-.062-.36l-4.453-2.571a.7.7,0,0,0-.624-.036l-3.929,2.268c-.155.09-.127.251.062.36l4.454,2.571A.694.694,0,0,0,1043.567,577.676Zm-6.509-3.758,3.929-2.268c.155-.089.127-.25-.062-.359l-4.453-2.571a.7.7,0,0,0-.624-.036l-3.929,2.268c-.155.09-.127.25.062.36l4.454,2.571A.7.7,0,0,0,1037.058,573.917Zm19.7-.3-3.929,2.268c-.155.089-.127.251.062.36l4.453,2.571a.7.7,0,0,0,.624.036l3.929-2.267c.155-.09.127-.251-.062-.361l-4.454-2.57A.7.7,0,0,0,1056.756,573.621Zm-6.509-3.757-3.929,2.267c-.155.09-.127.251.062.36l4.453,2.571a.7.7,0,0,0,.624.036l3.929-2.268c.155-.09.127-.25-.063-.36l-4.453-2.571A.7.7,0,0,0,1050.248,569.864Zm-26.035-15.031-3.929,2.267c-.155.09-.127.251.062.361l4.453,2.57a.7.7,0,0,0,.624.036l3.928-2.268c.156-.09.128-.251-.061-.36l-4.454-2.571A.694.694,0,0,0,1024.213,554.832Zm6.509,3.757-3.929,2.268c-.155.09-.127.251.062.36l4.453,2.571a.7.7,0,0,0,.624.036l3.928-2.268c.155-.089.127-.25-.061-.359l-4.454-2.572A.7.7,0,0,0,1030.722,558.589Zm-13.017-7.515-3.929,2.268c-.154.09-.128.25.062.359l4.453,2.572a.7.7,0,0,0,.624.036l3.928-2.268c.155-.09.128-.251-.062-.36l-4.453-2.571A.7.7,0,0,0,1017.7,551.074Zm26.035,15.031-3.929,2.268c-.155.089-.127.25.062.36l4.453,2.571a.7.7,0,0,0,.624.036l3.928-2.268c.155-.09.127-.251-.062-.36l-4.453-2.571A.694.694,0,0,0,1043.739,566.105Zm-6.509-3.758-3.928,2.268c-.156.089-.127.251.062.36l4.453,2.571a.7.7,0,0,0,.624.036l3.928-2.268c.156-.089.128-.251-.061-.36l-4.454-2.571A.7.7,0,0,0,1037.23,562.347Zm9.751,24.433,3.928-2.268c.156-.089.128-.251-.061-.36l-4.454-2.571a.7.7,0,0,0-.623-.036l-3.929,2.268c-.155.09-.127.251.062.36l4.453,2.571A.7.7,0,0,0,1046.981,586.78Zm34.011-1.44,4.453,2.571a.7.7,0,0,0,.624.036l3.929-2.268c.155-.09.127-.25-.062-.36l-4.454-2.571a.7.7,0,0,0-.623-.036l-3.929,2.268C1080.775,585.069,1080.8,585.231,1080.992,585.34Zm-8.576,2.182,6.852,3.955a.691.691,0,0,0,.623.035l3.929-2.267c.155-.09.127-.251-.062-.36l-6.851-3.955a.693.693,0,0,0-.624-.036l-3.928,2.267C1072.2,587.252,1072.226,587.413,1072.416,587.522Zm14.359-6.708,5.482,3.164a.694.694,0,0,0,.623.036l3.929-2.268c.155-.089.127-.251-.062-.36l-5.482-3.165a.7.7,0,0,0-.623-.036l-3.928,2.268C1086.558,580.543,1086.585,580.705,1086.774,580.814Zm-.335-5.054c.154-.09.127-.251-.063-.36l-4.453-2.571a.7.7,0,0,0-.623-.036l-3.929,2.268c-.154.09-.127.251.062.359l4.454,2.572a.7.7,0,0,0,.623.036Zm-21.914,14.34,8.563,4.944a.7.7,0,0,0,.624.036l3.928-2.267c.155-.09.127-.251-.062-.361l-8.564-4.943a.694.694,0,0,0-.624-.036l-3.928,2.268C1064.308,589.83,1064.335,589.991,1064.526,590.1Zm-3.1,5.347,5.481,3.165a.7.7,0,0,0,.624.036l3.928-2.268c.155-.089.128-.251-.061-.36l-5.482-3.165a.7.7,0,0,0-.623-.036l-3.929,2.268C1061.214,595.177,1061.241,595.338,1061.43,595.447Zm-23.384-47.626c.155-.09.127-.251-.062-.36l-4.453-2.571a.7.7,0,0,0-.624-.036l-3.929,2.268c-.155.089-.127.251.062.359l4.454,2.572a.7.7,0,0,0,.623.036Zm13.017,7.515c.155-.09.127-.251-.062-.36l-4.454-2.571a.7.7,0,0,0-.623-.036L1042,554.638c-.156.09-.128.251.061.36l4.454,2.571a.7.7,0,0,0,.623.036ZM1079.93,572c.155-.09.127-.251-.061-.36l-4.454-2.571a.7.7,0,0,0-.623-.036l-3.929,2.268c-.155.09-.127.25.062.36l4.454,2.571a.694.694,0,0,0,.623.036Zm-35.375-20.424c.155-.09.127-.251-.062-.36l-4.454-2.571a.7.7,0,0,0-.623-.036l-3.929,2.268c-.155.09-.127.251.062.36L1040,553.81a.7.7,0,0,0,.623.036Zm13.017,7.515c.155-.089.127-.251-.062-.36l-4.454-2.571a.694.694,0,0,0-.623-.036l-3.929,2.267c-.155.09-.127.251.062.361l4.454,2.57a.7.7,0,0,0,.623.036Zm-3.753,38.768c-.154.09-.127.251.062.36l6.852,3.955a.7.7,0,0,0,.623.036l3.928-2.268c.155-.09.128-.251-.061-.36l-6.851-3.955a.7.7,0,0,0-.623-.036Zm13.093-33.376c.155-.09.128-.251-.062-.36l-4.453-2.571a.7.7,0,0,0-.624-.036l-3.928,2.268c-.155.089-.127.251.062.36l4.453,2.571a.7.7,0,0,0,.624.036Zm6.509,3.758c.156-.09.128-.25-.061-.36l-4.454-2.571a.7.7,0,0,0-.623-.036l-3.929,2.268c-.155.089-.127.25.062.359l4.454,2.572a.7.7,0,0,0,.623.036Zm-140.184-40c-.155.089-.127.25.062.359l10.961,6.329a.7.7,0,0,0,.624.036l3.929-2.267c.155-.09.127-.251-.062-.36l-10.962-6.329a.694.694,0,0,0-.623-.036Zm14.388,8.306c-.155.09-.128.251.062.36l4.453,2.571a.7.7,0,0,0,.624.036l3.928-2.268c.155-.09.127-.251-.062-.36l-4.453-2.571a.7.7,0,0,0-.624-.036Zm92.846,46.472,3.928-2.268c.156-.09.128-.251-.062-.36l-4.453-2.571a.7.7,0,0,0-.623-.036l-3.929,2.268c-.155.09-.127.25.062.36l4.453,2.571A.7.7,0,0,0,1040.472,583.023Zm-79.829-38.956c-.155.089-.127.251.062.36L965.158,547a.7.7,0,0,0,.624.036l3.928-2.268c.155-.089.128-.251-.061-.36l-4.454-2.571a.7.7,0,0,0-.624-.036Zm-33.914-19.58c-.155.09-.127.251.062.36l4.454,2.571a.7.7,0,0,0,.623.036l3.928-2.268c.155-.089.127-.251-.061-.36l-4.454-2.571a.7.7,0,0,0-.623-.036Zm-6.447-3.4,4.454,2.571a.694.694,0,0,0,.623.036l10.106-5.835c.155-.089.128-.25-.061-.359l-4.454-2.571a.7.7,0,0,0-.623-.036l-10.107,5.835C920.066,520.819,920.093,520.979,920.283,521.089Zm64.682,37.021c-.154.089-.127.251.062.36l5.481,3.164a.7.7,0,0,0,.624.036l3.928-2.268c.156-.09.127-.251-.062-.36l-5.481-3.165a.694.694,0,0,0-.623-.035Zm-16.443-9.494c-.155.09-.127.251.062.36l6.852,3.955a.7.7,0,0,0,.623.036l3.929-2.268c.155-.09.127-.251-.062-.36l-6.852-3.956a.7.7,0,0,0-.623-.036Zm31.516,18.2c-.155.089-.128.25.062.36l36.654,21.162a.7.7,0,0,0,.623.036l3.929-2.268c.155-.09.127-.25-.062-.36l-36.654-21.162a.7.7,0,0,0-.624-.036Zm38.71,22.348c-.155.09-.127.25.061.36l5.482,3.164a.7.7,0,0,0,.623.036l3.929-2.268c.155-.09.127-.251-.062-.361l-5.482-3.164a.7.7,0,0,0-.623-.036ZM992.5,562.46c-.155.09-.127.25.062.36l5.481,3.165a.7.7,0,0,0,.623.036l3.929-2.268c.156-.089.127-.25-.062-.36l-5.481-3.164a.7.7,0,0,0-.623-.036Zm53.782,31.052c-.155.09-.127.25.062.36l5.481,3.165a.7.7,0,0,0,.624.036l3.928-2.268c.155-.09.128-.251-.061-.36l-5.481-3.165a.7.7,0,0,0-.624-.036Zm-68.855-39.754c-.155.09-.127.251.062.36l5.482,3.165a.694.694,0,0,0,.623.035l3.928-2.268c.155-.089.127-.25-.061-.36l-5.482-3.164a.692.692,0,0,0-.623-.036Zm-23.294-13.449c-.155.09-.128.251.062.36l4.453,2.571a.7.7,0,0,0,.624.036l3.928-2.267c.155-.09.128-.251-.061-.36l-4.454-2.571a.7.7,0,0,0-.624-.036Zm-9.581-12.665,3.929-2.268c.156-.089.127-.25-.061-.36l-4.454-2.571a.694.694,0,0,0-.623-.035l-3.929,2.268c-.156.089-.127.251.062.36l4.454,2.571A.692.692,0,0,0,944.554,527.644Zm26.744,1.173,3.928-2.267c.155-.09.128-.251-.061-.36l-4.454-2.571a.692.692,0,0,0-.623-.036l-3.929,2.267c-.155.09-.127.251.062.36l4.453,2.571A.7.7,0,0,0,971.3,528.817Zm17.1,24.143,3.929-2.268c.155-.09.127-.25-.062-.36l-13.017-7.515a.7.7,0,0,0-.623-.036l-3.929,2.268c-.155.09-.127.251.062.36l13.017,7.516A.7.7,0,0,0,988.4,552.96Zm-33.41-23.826c.155-.089.126-.251-.062-.36l-4.454-2.571a.7.7,0,0,0-.623-.036l-3.929,2.268c-.155.09-.127.251.062.361l4.454,2.57a.7.7,0,0,0,.623.036Zm2.249-1.3,3.929-2.268c.156-.09.127-.251-.062-.36l-4.453-2.571a.7.7,0,0,0-.624-.036l-3.928,2.268c-.156.089-.127.25.061.36l4.454,2.571A.7.7,0,0,0,957.24,527.835Zm37.67,28.883,3.929-2.268c.155-.09.127-.251-.062-.36l-4.453-2.571a.7.7,0,0,0-.624-.036l-3.928,2.268c-.155.089-.128.25.061.359l4.454,2.571A.7.7,0,0,0,994.911,556.718Zm-25.532-19.277c.155-.09.127-.25-.062-.36l-4.453-2.571a.7.7,0,0,0-.624-.035l-3.929,2.268c-.155.089-.127.25.062.359l4.454,2.572a.7.7,0,0,0,.623.035Zm58.076,38.066,3.928-2.268c.155-.09.127-.251-.062-.36l-4.453-2.571a.7.7,0,0,0-.623-.036l-3.929,2.268c-.155.09-.127.251.062.36l4.453,2.571A.7.7,0,0,0,1027.455,575.507Zm-6.51-3.758,3.929-2.267c.155-.09.127-.251-.062-.36l-4.453-2.571a.7.7,0,0,0-.623-.036l-3.929,2.268c-.155.09-.127.251.061.36l4.454,2.571A.7.7,0,0,0,1020.945,571.749Zm13.018,7.516,3.929-2.268c.155-.09.127-.25-.063-.36l-4.453-2.571a.7.7,0,0,0-.624-.036l-3.928,2.267c-.155.09-.127.251.062.36l4.453,2.571A.7.7,0,0,0,1033.964,579.265Zm-26.035-15.031,3.928-2.268c.155-.09.127-.25-.062-.36l-4.453-2.571a.7.7,0,0,0-.624-.036l-3.928,2.268c-.155.089-.127.251.062.36l4.453,2.571A.7.7,0,0,0,1007.929,564.234Zm6.508,3.758,3.929-2.268c.155-.09.127-.251-.061-.36l-4.454-2.571a.7.7,0,0,0-.624-.036l-3.928,2.267c-.155.09-.127.251.062.36l4.453,2.571A.7.7,0,0,0,1014.437,567.992Zm-13.016-7.515,3.928-2.269c.155-.089.127-.251-.062-.36l-4.453-2.57a.7.7,0,0,0-.624-.036l-3.928,2.268c-.155.09-.127.251.061.36l4.454,2.571A.7.7,0,0,0,1001.42,560.476Zm-35.543-52.658c.155-.09.127-.251-.061-.36l-4.454-2.571a.7.7,0,0,0-.623-.036l-1.046.6c-.156.09-.128.251.061.36l4.454,2.571a.7.7,0,0,0,.624.036Zm35.355,18.748c.156-.089.127-.251-.062-.36l-4.453-2.571a.7.7,0,0,0-.624-.036l-3.928,2.268c-.155.089-.127.251.062.36l4.453,2.571a.7.7,0,0,0,.623.036Zm-13.017-7.515c.156-.09.127-.25-.061-.36L983.7,516.12a.7.7,0,0,0-.623-.036l-3.929,2.268c-.154.09-.127.251.062.36l4.453,2.571a.7.7,0,0,0,.623.036Zm20.965,12.1c.155-.09.127-.251-.062-.36l-4.453-2.571a.7.7,0,0,0-.624-.036l-3.928,2.268c-.155.09-.128.251.061.36l4.454,2.571a.7.7,0,0,0,.623.036Zm-14.457-8.346c.156-.09.127-.251-.062-.361l-4.453-2.571a.7.7,0,0,0-.623-.036l-3.929,2.268c-.156.09-.127.251.061.36l4.454,2.571a.7.7,0,0,0,.624.035ZM1022.2,538.67c.155-.089.128-.25-.062-.36l-4.453-2.571a.7.7,0,0,0-.624-.035l-3.929,2.268c-.155.089-.126.251.063.36l4.453,2.571a.7.7,0,0,0,.624.035Zm-6.509-3.757c.155-.09.127-.251-.062-.361l-4.453-2.57a.7.7,0,0,0-.624-.036l-3.928,2.268c-.155.09-.128.25.061.36l4.454,2.571a.7.7,0,0,0,.623.036ZM978.9,515.333c.155-.09.127-.251-.062-.36l-4.454-2.571a.694.694,0,0,0-.623-.036l-1.046.6c-.155.089-.127.251.061.359l4.454,2.572a.7.7,0,0,0,.624.036ZM959.368,504.06c.155-.089.128-.251-.061-.36l-4.454-2.571a.7.7,0,0,0-.623-.036l-1.046.6c-.155.089-.128.25.061.36l4.454,2.571a.7.7,0,0,0,.623.036Zm-5.37,3.1c.155-.089.128-.25-.061-.359l-4.454-2.572a.7.7,0,0,0-.623-.036l-3.929,2.268c-.155.09-.127.251.062.36l4.454,2.571a.694.694,0,0,0,.623.036Zm-15.953,16.727,3.928-2.269c.155-.089.127-.25-.061-.36l-4.454-2.571a.7.7,0,0,0-.623-.035l-3.929,2.268c-.156.09-.127.251.062.36l4.453,2.571A.7.7,0,0,0,938.046,523.887Zm34.341-12.311c.155-.09.127-.251-.062-.36l-4.454-2.571a.7.7,0,0,0-.623-.036l-1.046.6c-.155.089-.127.251.062.36l4.453,2.571a.7.7,0,0,0,.623.036Zm56.319,30.852c.156-.09.127-.25-.061-.36l-4.454-2.571a.7.7,0,0,0-.624-.036l-3.928,2.268c-.155.089-.127.25.062.36l4.453,2.571a.7.7,0,0,0,.624.036Z" transform="translate(-915.755 -497.842)"/><path class="h" d="M977.807,532.575l3.928-2.268c.155-.09.128-.25-.061-.359l-4.454-2.572a.7.7,0,0,0-.623-.036l-3.929,2.268c-.155.09-.127.251.062.36l4.453,2.571A.7.7,0,0,0,977.807,532.575Zm4.968-8.8-3.929,2.268c-.155.09-.127.25.062.36l4.453,2.571a.7.7,0,0,0,.624.036l3.928-2.268c.156-.09.127-.25-.061-.361l-4.454-2.57A.7.7,0,0,0,982.775,523.774Zm14.386,8.307-3.928,2.268c-.154.09-.127.251.062.36l7.537,4.351a.7.7,0,0,0,.623.036l3.929-2.268c.155-.089.127-.251-.062-.36l-7.537-4.351A.7.7,0,0,0,997.161,532.08Zm-7.878-4.549-3.929,2.268c-.155.089-.127.25.062.36l4.453,2.571a.7.7,0,0,0,.623.036l3.929-2.268c.155-.089.127-.251-.061-.359l-4.454-2.572A.694.694,0,0,0,989.283,527.532Zm17.47,10.086-3.928,2.268c-.156.09-.128.25.061.36l4.454,2.571a.7.7,0,0,0,.623.036l3.929-2.268c.155-.09.127-.251-.062-.361l-4.454-2.57A.7.7,0,0,0,1006.753,537.618Zm6.509,3.758-3.929,2.268c-.155.09-.127.25.062.36l4.454,2.571a.7.7,0,0,0,.623.036l3.929-2.268c.155-.089.127-.251-.062-.36l-4.453-2.571A.7.7,0,0,0,1013.262,541.376Zm-15.256,9.995,3.929-2.267c.155-.09.127-.251-.063-.361l-4.453-2.57a.7.7,0,0,0-.623-.036l-3.929,2.268c-.155.09-.127.251.061.36l4.454,2.571A.7.7,0,0,0,998.006,551.371Zm6.509,3.758,3.929-2.268c.155-.089.127-.251-.062-.36l-4.454-2.571a.7.7,0,0,0-.624-.036l-3.928,2.268c-.155.09-.127.251.062.36l4.453,2.571A.7.7,0,0,0,1004.515,555.129Zm6.509,3.758,3.928-2.268c.155-.09.128-.251-.061-.36l-4.454-2.571a.694.694,0,0,0-.623-.036l-3.929,2.268c-.155.089-.127.25.062.359l4.453,2.572A.7.7,0,0,0,1011.023,558.887Zm6.509,3.757,3.928-2.267c.155-.09.128-.251-.061-.36l-4.454-2.571a.692.692,0,0,0-.623-.036l-3.929,2.267c-.155.09-.127.251.062.36l4.454,2.571A.7.7,0,0,0,1017.532,562.644Zm-33.217-26.311,3.928-2.268c.156-.09.127-.251-.062-.36l-4.453-2.571a.694.694,0,0,0-.623-.036l-3.929,2.268c-.155.089-.127.25.062.359l4.453,2.572A.7.7,0,0,0,984.315,536.333Zm7.182,11.28,3.928-2.267c.155-.09.127-.251-.062-.36l-4.11-2.374c-.189-.108-.218-.27-.062-.359l5.617-3.243c.155-.09.127-.251-.062-.361l-5.139-2.966a.7.7,0,0,0-.623-.036l-10.106,5.834c-.155.09-.128.251.061.36l9.934,5.736A.7.7,0,0,0,991.5,547.613Zm28.273-2.479-3.928,2.268c-.156.089-.128.251.061.36l4.454,2.571a.7.7,0,0,0,.623.036l3.929-2.268c.155-.089.127-.25-.062-.36l-4.454-2.571A.7.7,0,0,0,1019.771,545.134Zm6.509,3.758-3.928,2.267c-.156.09-.128.251.061.36l4.454,2.571a.7.7,0,0,0,.624.036l3.928-2.268c.156-.09.127-.251-.062-.36l-4.453-2.571A.7.7,0,0,0,1026.28,548.892Zm40.742,37.789c.155-.09.127-.251-.062-.361l-4.453-2.57a.7.7,0,0,0-.624-.036l-3.928,2.268c-.156.089-.127.251.061.36l4.454,2.571a.7.7,0,0,0,.623.036Zm11.328-7.728-3.929,2.268c-.155.09-.127.25.062.36l4.453,2.571a.7.7,0,0,0,.624.036l3.928-2.268c.155-.089.128-.251-.061-.36l-4.454-2.571A.7.7,0,0,0,1078.349,578.954Zm-3.438,5.149c.156-.09.128-.251-.061-.36l-4.454-2.571a.694.694,0,0,0-.623-.036l-3.928,2.268c-.156.089-.128.25.061.359l4.454,2.572a.7.7,0,0,0,.623.036Zm-21.422,6.435,3.928-2.268c.155-.089.127-.25-.062-.36l-4.454-2.571a.694.694,0,0,0-.623-.036l-3.929,2.268c-.155.089-.127.251.062.36l4.454,2.571A.7.7,0,0,0,1053.49,590.538Zm10.436,1.49c.156-.09.127-.251-.061-.36l-4.454-2.571a.7.7,0,0,0-.623-.036l-3.929,2.268c-.155.089-.127.25.062.359l4.454,2.571a.7.7,0,0,0,.623.036Zm7.915-16.832-3.929,2.268c-.155.09-.127.25.062.36l4.453,2.571a.7.7,0,0,0,.624.036l3.928-2.268c.155-.09.128-.251-.061-.36l-4.454-2.571A.7.7,0,0,0,1071.841,575.2ZM1039.3,556.407l-3.928,2.268c-.155.09-.127.251.061.36l4.454,2.571a.7.7,0,0,0,.624.036l3.928-2.268c.156-.09.127-.25-.061-.36l-4.454-2.571A.7.7,0,0,0,1039.3,556.407Zm26.035,15.03-3.928,2.269c-.155.089-.127.25.062.36l4.453,2.57a.7.7,0,0,0,.624.036l3.928-2.268c.156-.089.127-.251-.061-.36l-4.454-2.571A.7.7,0,0,0,1065.331,571.438Zm-32.543-18.789-3.928,2.268c-.156.09-.128.25.062.36l4.453,2.571a.7.7,0,0,0,.624.036l3.928-2.268c.156-.089.127-.251-.062-.359l-4.453-2.572A.7.7,0,0,0,1032.788,552.649Zm13.018,7.516-3.929,2.267c-.156.09-.127.251.062.36l4.453,2.571a.692.692,0,0,0,.623.036l3.929-2.267c.156-.09.127-.25-.062-.36l-4.453-2.571A.7.7,0,0,0,1045.806,560.165Zm6.508,3.757-3.928,2.268c-.156.09-.127.251.061.36l4.454,2.571a.694.694,0,0,0,.623.036l3.929-2.268c.156-.089.127-.25-.062-.359l-4.453-2.571A.7.7,0,0,0,1052.314,563.923Zm6.509,3.758-3.928,2.268c-.155.089-.127.251.062.36l4.454,2.571a.7.7,0,0,0,.624.036l3.928-2.268c.155-.089.127-.251-.062-.36l-4.453-2.571A.7.7,0,0,0,1058.823,567.681Zm-28.273,2.48,3.929-2.268c.155-.09.127-.251-.062-.36l-4.454-2.571a.7.7,0,0,0-.623-.036l-3.928,2.268c-.155.089-.127.25.062.36l4.453,2.571A.7.7,0,0,0,1030.549,570.16Zm-62.163-54.694-3.929,2.268c-.155.09-.127.251.062.36l4.453,2.571a.7.7,0,0,0,.624.036l3.929-2.268c.155-.09.127-.251-.062-.36l-4.454-2.571A.7.7,0,0,0,968.387,515.467Zm7.879,4.55-3.928,2.267c-.156.09-.127.251.062.361l4.453,2.57a.7.7,0,0,0,.624.036l3.928-2.268c.155-.09.127-.251-.062-.36l-4.453-2.571A.7.7,0,0,0,976.265,520.016Zm-14.387-8.307-3.929,2.267c-.155.09-.127.25.062.361l4.454,2.57a.7.7,0,0,0,.623.036l3.929-2.268c.155-.09.127-.251-.062-.36l-4.454-2.571A.694.694,0,0,0,961.878,511.71Zm37.51,33.326,3.929-2.268c.155-.09.127-.251-.062-.36l-4.453-2.571a.7.7,0,0,0-.624-.035l-3.928,2.268c-.156.09-.128.251.061.36L998.765,545A.7.7,0,0,0,999.388,545.035ZM951.441,510.22c-.155.09-.127.251.062.36l4.454,2.571a.7.7,0,0,0,.623.036l3.928-2.268c.156-.089.127-.251-.062-.36l-4.452-2.571a.7.7,0,0,0-.624-.036Zm72.6,56.183,3.929-2.268c.155-.089.127-.25-.062-.359l-4.454-2.572a.7.7,0,0,0-.623-.036l-3.928,2.268c-.155.09-.128.251.061.36l4.454,2.571A.7.7,0,0,0,1024.041,566.4ZM944.224,520.32l3.928-2.268c.155-.09.127-.251-.062-.36l-4.453-2.571a.7.7,0,0,0-.623-.036l-3.929,2.267c-.155.09-.128.251.062.36l4.453,2.571A.7.7,0,0,0,944.224,520.32Zm12.686.191,3.929-2.268c.155-.09.127-.251-.062-.36l-4.454-2.571a.694.694,0,0,0-.623-.036l-3.928,2.267c-.155.09-.128.25.061.36l4.454,2.571A.7.7,0,0,0,956.91,520.511Zm-11.647-6.724c-.155.089-.127.25.062.36l4.454,2.571a.7.7,0,0,0,.623.036l3.929-2.268c.155-.089.127-.25-.062-.36l-4.454-2.571a.7.7,0,0,0-.623-.036Zm2.5-3.42-4.453-2.57a.7.7,0,0,0-.624-.036L932.576,513.6c-.155.089-.126.251.063.36l4.453,2.571a.7.7,0,0,0,.624.036l10.106-5.835C947.976,510.638,947.948,510.476,947.759,510.367Zm14.449,8.667L958.28,521.3c-.155.09-.127.251.062.36l4.454,2.571a.694.694,0,0,0,.623.035L967.347,522c.155-.09.127-.251-.062-.36l-4.453-2.571A.7.7,0,0,0,962.208,519.034Zm48.986,28.282-3.928,2.268c-.155.09-.128.251.061.36l4.454,2.571a.694.694,0,0,0,.623.036l3.929-2.268c.155-.089.127-.25-.062-.359l-4.453-2.572A.7.7,0,0,0,1011.195,547.316ZM954.66,521.809c.155-.089.127-.251-.062-.359l-4.453-2.572a.7.7,0,0,0-.624-.036l-3.928,2.268c-.156.09-.127.25.061.36l4.454,2.571a.7.7,0,0,0,.623.036Zm50.026,21.75-3.928,2.268c-.155.089-.128.25.061.359l4.454,2.572a.7.7,0,0,0,.623.036l3.929-2.268c.155-.09.127-.251-.062-.36l-4.453-2.571A.7.7,0,0,0,1004.686,543.559Zm55.826,39.365c.155-.09.127-.251-.062-.36L1056,579.993a.7.7,0,0,0-.623-.036l-3.928,2.268c-.156.09-.127.251.061.36l4.454,2.571a.7.7,0,0,0,.623.036Zm2.752-5.545-3.929,2.268c-.155.09-.127.251.062.36l4.454,2.571a.7.7,0,0,0,.623.036l3.928-2.268c.155-.089.128-.251-.061-.36l-4.454-2.571A.694.694,0,0,0,1063.265,577.379Zm-13.19,4.055,3.929-2.268c.155-.09.127-.25-.062-.36l-4.453-2.571a.7.7,0,0,0-.624-.036l-3.929,2.267c-.155.09-.126.251.063.361l4.453,2.571A.7.7,0,0,0,1050.075,581.434Zm-6.509-3.758,3.929-2.268c.155-.089.127-.25-.062-.36l-4.453-2.571a.7.7,0,0,0-.624-.036l-3.929,2.268c-.155.09-.127.251.062.36l4.454,2.571A.694.694,0,0,0,1043.567,577.676Zm-6.509-3.758,3.929-2.268c.155-.089.127-.25-.062-.359l-4.453-2.571a.7.7,0,0,0-.624-.036l-3.929,2.268c-.155.09-.127.25.062.36l4.454,2.571A.7.7,0,0,0,1037.058,573.917Zm19.7-.3-3.929,2.268c-.155.089-.127.251.062.36l4.453,2.571a.7.7,0,0,0,.624.036l3.929-2.267c.155-.09.127-.251-.062-.361l-4.454-2.57A.7.7,0,0,0,1056.756,573.621Zm-6.509-3.757-3.929,2.267c-.155.09-.127.251.062.36l4.453,2.571a.7.7,0,0,0,.624.036l3.929-2.268c.155-.09.127-.25-.063-.36l-4.453-2.571A.7.7,0,0,0,1050.248,569.864Zm-26.035-15.031-3.929,2.267c-.155.09-.127.251.062.361l4.453,2.57a.7.7,0,0,0,.624.036l3.928-2.268c.156-.09.128-.251-.061-.36l-4.454-2.571A.694.694,0,0,0,1024.213,554.832Zm6.509,3.757-3.929,2.268c-.155.09-.127.251.062.36l4.453,2.571a.7.7,0,0,0,.624.036l3.928-2.268c.155-.089.127-.25-.061-.359l-4.454-2.572A.7.7,0,0,0,1030.722,558.589Zm-13.017-7.515-3.929,2.268c-.154.09-.128.25.062.359l4.453,2.572a.7.7,0,0,0,.624.036l3.928-2.268c.155-.09.128-.251-.062-.36l-4.453-2.571A.7.7,0,0,0,1017.7,551.074Zm26.035,15.031-3.929,2.268c-.155.089-.127.25.062.36l4.453,2.571a.7.7,0,0,0,.624.036l3.928-2.268c.155-.09.127-.251-.062-.36l-4.453-2.571A.694.694,0,0,0,1043.739,566.105Zm-6.509-3.758-3.928,2.268c-.156.089-.127.251.062.36l4.453,2.571a.7.7,0,0,0,.624.036l3.928-2.268c.156-.089.128-.251-.061-.36l-4.454-2.571A.7.7,0,0,0,1037.23,562.347Zm9.751,24.433,3.928-2.268c.156-.089.128-.251-.061-.36l-4.454-2.571a.7.7,0,0,0-.623-.036l-3.929,2.268c-.155.09-.127.251.062.36l4.453,2.571A.7.7,0,0,0,1046.981,586.78Zm34.011-1.44,4.453,2.571a.7.7,0,0,0,.624.036l3.929-2.268c.155-.09.127-.25-.062-.36l-4.454-2.571a.7.7,0,0,0-.623-.036l-3.929,2.268C1080.775,585.069,1080.8,585.231,1080.992,585.34Zm-8.576,2.182,6.852,3.955a.691.691,0,0,0,.623.035l3.929-2.267c.155-.09.127-.251-.062-.36l-6.851-3.955a.693.693,0,0,0-.624-.036l-3.928,2.267C1072.2,587.252,1072.226,587.413,1072.416,587.522Zm14.359-6.708,5.482,3.164a.694.694,0,0,0,.623.036l3.929-2.268c.155-.089.127-.251-.062-.36l-5.482-3.165a.7.7,0,0,0-.623-.036l-3.928,2.268C1086.558,580.543,1086.585,580.705,1086.774,580.814Zm-.335-5.054c.154-.09.127-.251-.063-.36l-4.453-2.571a.7.7,0,0,0-.623-.036l-3.929,2.268c-.154.09-.127.251.062.359l4.454,2.572a.7.7,0,0,0,.623.036Zm-21.914,14.34,8.563,4.944a.7.7,0,0,0,.624.036l3.928-2.267c.155-.09.127-.251-.062-.361l-8.564-4.943a.694.694,0,0,0-.624-.036l-3.928,2.268C1064.308,589.83,1064.335,589.991,1064.526,590.1Zm-3.1,5.347,5.481,3.165a.7.7,0,0,0,.624.036l3.928-2.268c.155-.089.128-.251-.061-.36l-5.482-3.165a.7.7,0,0,0-.623-.036l-3.929,2.268C1061.214,595.177,1061.241,595.338,1061.43,595.447Zm-23.384-47.626c.155-.09.127-.251-.062-.36l-4.453-2.571a.7.7,0,0,0-.624-.036l-3.929,2.268c-.155.089-.127.251.062.359l4.454,2.572a.7.7,0,0,0,.623.036Zm13.017,7.515c.155-.09.127-.251-.062-.36l-4.454-2.571a.7.7,0,0,0-.623-.036L1042,554.638c-.156.09-.128.251.061.36l4.454,2.571a.7.7,0,0,0,.623.036ZM1079.93,572c.155-.09.127-.251-.061-.36l-4.454-2.571a.7.7,0,0,0-.623-.036l-3.929,2.268c-.155.09-.127.25.062.36l4.454,2.571a.694.694,0,0,0,.623.036Zm-35.375-20.424c.155-.09.127-.251-.062-.36l-4.454-2.571a.7.7,0,0,0-.623-.036l-3.929,2.268c-.155.09-.127.251.062.36L1040,553.81a.7.7,0,0,0,.623.036Zm13.017,7.515c.155-.089.127-.251-.062-.36l-4.454-2.571a.694.694,0,0,0-.623-.036l-3.929,2.267c-.155.09-.127.251.062.361l4.454,2.57a.7.7,0,0,0,.623.036Zm-3.753,38.768c-.154.09-.127.251.062.36l6.852,3.955a.7.7,0,0,0,.623.036l3.928-2.268c.155-.09.128-.251-.061-.36l-6.851-3.955a.7.7,0,0,0-.623-.036Zm13.093-33.376c.155-.09.128-.251-.062-.36l-4.453-2.571a.7.7,0,0,0-.624-.036l-3.928,2.268c-.155.089-.127.251.062.36l4.453,2.571a.7.7,0,0,0,.624.036Zm6.509,3.758c.156-.09.128-.25-.061-.36l-4.454-2.571a.7.7,0,0,0-.623-.036l-3.929,2.268c-.155.089-.127.25.062.359l4.454,2.572a.7.7,0,0,0,.623.036Zm-140.184-40c-.155.089-.127.25.062.359l10.961,6.329a.7.7,0,0,0,.624.036l3.929-2.267c.155-.09.127-.251-.062-.36l-10.962-6.329a.694.694,0,0,0-.623-.036Zm14.388,8.306c-.155.09-.128.251.062.36l4.453,2.571a.7.7,0,0,0,.624.036l3.928-2.268c.155-.09.127-.251-.062-.36l-4.453-2.571a.7.7,0,0,0-.624-.036Zm92.846,46.472,3.928-2.268c.156-.09.128-.251-.062-.36l-4.453-2.571a.7.7,0,0,0-.623-.036l-3.929,2.268c-.155.09-.127.25.062.36l4.453,2.571A.7.7,0,0,0,1040.472,583.023Zm-79.829-38.956c-.155.089-.127.251.062.36L965.158,547a.7.7,0,0,0,.624.036l3.928-2.268c.155-.089.128-.251-.061-.36l-4.454-2.571a.7.7,0,0,0-.624-.036Zm-33.914-19.58c-.155.09-.127.251.062.36l4.454,2.571a.7.7,0,0,0,.623.036l3.928-2.268c.155-.089.127-.251-.061-.36l-4.454-2.571a.7.7,0,0,0-.623-.036Zm-6.447-3.4,4.454,2.571a.694.694,0,0,0,.623.036l10.106-5.835c.155-.089.128-.25-.061-.359l-4.454-2.571a.7.7,0,0,0-.623-.036l-10.107,5.835C920.066,520.819,920.093,520.979,920.283,521.089Zm64.682,37.021c-.154.089-.127.251.062.36l5.481,3.164a.7.7,0,0,0,.624.036l3.928-2.268c.156-.09.127-.251-.062-.36l-5.481-3.165a.694.694,0,0,0-.623-.035Zm-16.443-9.494c-.155.09-.127.251.062.36l6.852,3.955a.7.7,0,0,0,.623.036l3.929-2.268c.155-.09.127-.251-.062-.36l-6.852-3.956a.7.7,0,0,0-.623-.036Zm31.516,18.2c-.155.089-.128.25.062.36l36.654,21.162a.7.7,0,0,0,.623.036l3.929-2.268c.155-.09.127-.25-.062-.36l-36.654-21.162a.7.7,0,0,0-.624-.036Zm38.71,22.348c-.155.09-.127.25.061.36l5.482,3.164a.7.7,0,0,0,.623.036l3.929-2.268c.155-.09.127-.251-.062-.361l-5.482-3.164a.7.7,0,0,0-.623-.036ZM992.5,562.46c-.155.09-.127.25.062.36l5.481,3.165a.7.7,0,0,0,.623.036l3.929-2.268c.156-.089.127-.25-.062-.36l-5.481-3.164a.7.7,0,0,0-.623-.036Zm53.782,31.052c-.155.09-.127.25.062.36l5.481,3.165a.7.7,0,0,0,.624.036l3.928-2.268c.155-.09.128-.251-.061-.36l-5.481-3.165a.7.7,0,0,0-.624-.036Zm-68.855-39.754c-.155.09-.127.251.062.36l5.482,3.165a.694.694,0,0,0,.623.035l3.928-2.268c.155-.089.127-.25-.061-.36l-5.482-3.164a.692.692,0,0,0-.623-.036Zm-23.294-13.449c-.155.09-.128.251.062.36l4.453,2.571a.7.7,0,0,0,.624.036l3.928-2.267c.155-.09.128-.251-.061-.36l-4.454-2.571a.7.7,0,0,0-.624-.036Zm-9.581-12.665,3.929-2.268c.156-.089.127-.25-.061-.36l-4.454-2.571a.694.694,0,0,0-.623-.035l-3.929,2.268c-.156.089-.127.251.062.36l4.454,2.571A.692.692,0,0,0,944.554,527.644Zm26.744,1.173,3.928-2.267c.155-.09.128-.251-.061-.36l-4.454-2.571a.692.692,0,0,0-.623-.036l-3.929,2.267c-.155.09-.127.251.062.36l4.453,2.571A.7.7,0,0,0,971.3,528.817Zm17.1,24.143,3.929-2.268c.155-.09.127-.25-.062-.36l-13.017-7.515a.7.7,0,0,0-.623-.036l-3.929,2.268c-.155.09-.127.251.062.36l13.017,7.516A.7.7,0,0,0,988.4,552.96Zm-33.41-23.826c.155-.089.126-.251-.062-.36l-4.454-2.571a.7.7,0,0,0-.623-.036l-3.929,2.268c-.155.09-.127.251.062.361l4.454,2.57a.7.7,0,0,0,.623.036Zm2.249-1.3,3.929-2.268c.156-.09.127-.251-.062-.36l-4.453-2.571a.7.7,0,0,0-.624-.036l-3.928,2.268c-.156.089-.127.25.061.36l4.454,2.571A.7.7,0,0,0,957.24,527.835Zm37.67,28.883,3.929-2.268c.155-.09.127-.251-.062-.36l-4.453-2.571a.7.7,0,0,0-.624-.036l-3.928,2.268c-.155.089-.128.25.061.359l4.454,2.571A.7.7,0,0,0,994.911,556.718Zm-25.532-19.277c.155-.09.127-.25-.062-.36l-4.453-2.571a.7.7,0,0,0-.624-.035l-3.929,2.268c-.155.089-.127.25.062.359l4.454,2.572a.7.7,0,0,0,.623.035Zm58.076,38.066,3.928-2.268c.155-.09.127-.251-.062-.36l-4.453-2.571a.7.7,0,0,0-.623-.036l-3.929,2.268c-.155.09-.127.251.062.36l4.453,2.571A.7.7,0,0,0,1027.455,575.507Zm-6.51-3.758,3.929-2.267c.155-.09.127-.251-.062-.36l-4.453-2.571a.7.7,0,0,0-.623-.036l-3.929,2.268c-.155.09-.127.251.061.36l4.454,2.571A.7.7,0,0,0,1020.945,571.749Zm13.018,7.516,3.929-2.268c.155-.09.127-.25-.063-.36l-4.453-2.571a.7.7,0,0,0-.624-.036l-3.928,2.267c-.155.09-.127.251.062.36l4.453,2.571A.7.7,0,0,0,1033.964,579.265Zm-26.035-15.031,3.928-2.268c.155-.09.127-.25-.062-.36l-4.453-2.571a.7.7,0,0,0-.624-.036l-3.928,2.268c-.155.089-.127.251.062.36l4.453,2.571A.7.7,0,0,0,1007.929,564.234Zm6.508,3.758,3.929-2.268c.155-.09.127-.251-.061-.36l-4.454-2.571a.7.7,0,0,0-.624-.036l-3.928,2.267c-.155.09-.127.251.062.36l4.453,2.571A.7.7,0,0,0,1014.437,567.992Zm-13.016-7.515,3.928-2.269c.155-.089.127-.251-.062-.36l-4.453-2.57a.7.7,0,0,0-.624-.036l-3.928,2.268c-.155.09-.127.251.061.36l4.454,2.571A.7.7,0,0,0,1001.42,560.476Zm-35.543-52.658c.155-.09.127-.251-.061-.36l-4.454-2.571a.7.7,0,0,0-.623-.036l-1.046.6c-.156.09-.128.251.061.36l4.454,2.571a.7.7,0,0,0,.624.036Zm35.355,18.748c.156-.089.127-.251-.062-.36l-4.453-2.571a.7.7,0,0,0-.624-.036l-3.928,2.268c-.155.089-.127.251.062.36l4.453,2.571a.7.7,0,0,0,.623.036Zm-13.017-7.515c.156-.09.127-.25-.061-.36L983.7,516.12a.7.7,0,0,0-.623-.036l-3.929,2.268c-.154.09-.127.251.062.36l4.453,2.571a.7.7,0,0,0,.623.036Zm20.965,12.1c.155-.09.127-.251-.062-.36l-4.453-2.571a.7.7,0,0,0-.624-.036l-3.928,2.268c-.155.09-.128.251.061.36l4.454,2.571a.7.7,0,0,0,.623.036Zm-14.457-8.346c.156-.09.127-.251-.062-.361l-4.453-2.571a.7.7,0,0,0-.623-.036l-3.929,2.268c-.156.09-.127.251.061.36l4.454,2.571a.7.7,0,0,0,.624.035ZM1022.2,538.67c.155-.089.128-.25-.062-.36l-4.453-2.571a.7.7,0,0,0-.624-.035l-3.929,2.268c-.155.089-.126.251.063.36l4.453,2.571a.7.7,0,0,0,.624.035Zm-6.509-3.757c.155-.09.127-.251-.062-.361l-4.453-2.57a.7.7,0,0,0-.624-.036l-3.928,2.268c-.155.09-.128.25.061.36l4.454,2.571a.7.7,0,0,0,.623.036ZM978.9,515.333c.155-.09.127-.251-.062-.36l-4.454-2.571a.694.694,0,0,0-.623-.036l-1.046.6c-.155.089-.127.251.061.359l4.454,2.572a.7.7,0,0,0,.624.036ZM959.368,504.06c.155-.089.128-.251-.061-.36l-4.454-2.571a.7.7,0,0,0-.623-.036l-1.046.6c-.155.089-.128.25.061.36l4.454,2.571a.7.7,0,0,0,.623.036Zm-5.37,3.1c.155-.089.128-.25-.061-.359l-4.454-2.572a.7.7,0,0,0-.623-.036l-3.929,2.268c-.155.09-.127.251.062.36l4.454,2.571a.694.694,0,0,0,.623.036Zm-15.953,16.727,3.928-2.269c.155-.089.127-.25-.061-.36l-4.454-2.571a.7.7,0,0,0-.623-.035l-3.929,2.268c-.156.09-.127.251.062.36l4.453,2.571A.7.7,0,0,0,938.046,523.887Zm34.341-12.311c.155-.09.127-.251-.062-.36l-4.454-2.571a.7.7,0,0,0-.623-.036l-1.046.6c-.155.089-.127.251.062.36l4.453,2.571a.7.7,0,0,0,.623.036Zm56.319,30.852c.156-.09.127-.25-.061-.36l-4.454-2.571a.7.7,0,0,0-.624-.036l-3.928,2.268c-.155.089-.127.25.062.36l4.453,2.571a.7.7,0,0,0,.624.036Z" transform="translate(-915.755 -497.842)"/></g><path class="d" d="M1006.8,584.819l-.913.527-24.253,14-43.131-24.9-.9-.512,25.166-14.527Z" transform="translate(-871.175 -358.324)"/><g transform="translate(67.328 202.119)"><path class="c" d="M1006,585.476l-24.253,14-43.131-24.9,24.268-14Z" transform="translate(-938.616 -560.573)"/></g><path class="e" d="M1155.324,582.874a6.156,6.156,0,0,1-1.228.526,5.62,5.62,0,0,0,1.228-.517,3.351,3.351,0,0,0,.379-.249C1155.582,582.717,1155.453,582.8,1155.324,582.874Z" transform="translate(-895.329 -360.915)"/><path class="e" d="M1147.594,583.323a.174.174,0,0,0-.064-.055c.018.018.036.028.046.046S1147.585,583.323,1147.594,583.323Z" transform="translate(-894.596 -360.986)"/></g><g transform="translate(993.217 400.077)"><path class="e" d="M1016.738,411.937a1.813,1.813,0,0,0-.756,1.67v33.156a5.7,5.7,0,0,0,2.579,4.467l48.07,27.754a1.811,1.811,0,0,0,1.824.18c.466-.269,4.372-2.529,4.838-2.793a1.807,1.807,0,0,0,.764-1.675V441.54a5.7,5.7,0,0,0-2.579-4.467l-48.07-27.754a1.807,1.807,0,0,0-1.833-.175C1021.114,409.416,1017.2,411.668,1016.738,411.937Z" transform="translate(-1015.982 -408.967)"/><g class="i"><path class="j" d="M1015.982,413.607v33.156a5.7,5.7,0,0,0,2.579,4.467l16.775,9.686L1073.3,439a5.264,5.264,0,0,0-1.823-1.924l-48.07-27.754a1.807,1.807,0,0,0-1.833-.175c-.461.272-4.371,2.524-4.838,2.793A1.813,1.813,0,0,0,1015.982,413.607Z" transform="translate(-1015.982 -408.967)"/></g><path class="k" d="M1037.767,464.687l31.295,18.068a1.811,1.811,0,0,0,1.824.18c.466-.269,4.372-2.529,4.838-2.793a1.807,1.807,0,0,0,.764-1.675V445.311a5.268,5.268,0,0,0-.756-2.543Z" transform="translate(-1018.413 -412.738)"/><path class="e" d="M1066.631,440.223l-48.07-27.753c-1.424-.823-2.579-.156-2.579,1.489v33.156a5.7,5.7,0,0,0,2.579,4.467l48.07,27.754c1.424.823,2.579.155,2.579-1.489V444.69A5.7,5.7,0,0,0,1066.631,440.223Z" transform="translate(-1015.982 -409.318)"/></g><g transform="translate(1013.913 469.458)"><g transform="translate(0)"><path class="e" d="M1040.032,490.031a1.813,1.813,0,0,0-.755,1.669v33.157a5.7,5.7,0,0,0,2.579,4.467l27.374,15.707a1.813,1.813,0,0,0,1.824.181c.466-.27,4.372-2.53,4.838-2.794a1.806,1.806,0,0,0,.764-1.675V507.587a5.7,5.7,0,0,0-2.579-4.467L1046.7,487.413a1.806,1.806,0,0,0-1.833-.175C1044.409,487.51,1040.5,489.762,1040.032,490.031Z" transform="translate(-1039.277 -487.061)"/><g class="i"><path class="j" d="M1039.277,491.7v33.157a5.7,5.7,0,0,0,2.579,4.467h0l34.045-24.28a5.271,5.271,0,0,0-1.823-1.924L1046.7,487.413a1.806,1.806,0,0,0-1.833-.175c-.461.272-4.371,2.524-4.838,2.793A1.813,1.813,0,0,0,1039.277,491.7Z" transform="translate(-1039.277 -487.061)"/></g><path class="k" d="M1042.18,531.583l27.374,15.707a1.813,1.813,0,0,0,1.824.181c.466-.27,4.372-2.53,4.838-2.794a1.806,1.806,0,0,0,.764-1.675V509.846a5.269,5.269,0,0,0-.756-2.543Z" transform="translate(-1039.601 -489.319)"/><path class="e" d="M1069.23,506.27l-27.374-15.707c-1.424-.822-2.579-.155-2.579,1.489v33.157a5.7,5.7,0,0,0,2.579,4.467l27.374,15.707c1.424.823,2.579.155,2.579-1.489V510.738A5.7,5.7,0,0,0,1069.23,506.27Z" transform="translate(-1039.277 -487.412)"/></g></g><g transform="translate(906.171 350.838)"><path class="l" d="M918.028,358.372a1.411,1.411,0,0,1,.056-.316.075.075,0,0,1,.012-.068,1.223,1.223,0,0,1,.079-.306,1.572,1.572,0,0,1,.2-.442.625.625,0,0,1,.114-.18.532.532,0,0,1,.1-.124,1.071,1.071,0,0,1,.227-.226l.022-.023a1.568,1.568,0,0,1,.294-.17,2.5,2.5,0,0,1,2.318.294l68.792,39.419a7.638,7.638,0,0,1,3.449,5.971V528.125c0,.01,0,.019,0,.028v.753a2.359,2.359,0,0,1-1.245,2.085c-.049.033-.1.052-.144.084s-.113.068-.18.1a1.308,1.308,0,0,1-.295.1,1.958,1.958,0,0,1-.441.057,2.222,2.222,0,0,1-1.142-.328l-.091-.052-.008,0-3.286-1.9-65.407-37.524a7.618,7.618,0,0,1-3.449-5.971V358.8C918.005,358.655,918.017,358.508,918.028,358.372Z" transform="translate(-918.005 -353.857)"/><g transform="translate(0.008)"><path class="e" d="M919.278,356.2a2.5,2.5,0,0,1,2.319.294l68.791,39.419a7.638,7.638,0,0,1,3.449,5.971v11.264l4.4-2.579V399.39a7.6,7.6,0,0,0-3.438-5.96L926,354.01a2.4,2.4,0,0,0-2.5-.2C922.874,354.181,920.013,355.82,919.278,356.2Z" transform="translate(-918.155 -353.544)"/><path class="e" d="M918.014,358.779c.013-2.176,1.549-3.056,3.443-1.963l68.792,39.418a7.618,7.618,0,0,1,3.445,5.968l0,11.269-75.677-43.384Z" transform="translate(-918.014 -353.857)"/><g class="i" transform="translate(1.136 0)"><path class="j" d="M921.6,356.5l68.788,39.419a7.089,7.089,0,0,1,2.426,2.557l4.378-2.536a6.889,6.889,0,0,0-2.4-2.515L926,354.009a2.421,2.421,0,0,0-2.5-.2c-.618.379-3.478,2-4.2,2.394A2.492,2.492,0,0,1,921.6,356.5Z" transform="translate(-919.293 -353.544)"/></g><path class="k" d="M1007.475,415.914l0-11.2a7.114,7.114,0,0,0-1.048-3.446l-4.389,2.525a6.963,6.963,0,0,1,1.03,3.424v11.267Z" transform="translate(-927.388 -358.868)"/></g><g transform="translate(4.419 9.381)"><path class="l" d="M940.7,373.433a5.134,5.134,0,0,1,1.947,4.12c0,1.655-.872,2.494-1.947,1.873a5.135,5.135,0,0,1-1.947-4.121C938.756,373.651,939.628,372.812,940.7,373.433Z" transform="translate(-924.739 -365.121)"/><path class="l" d="M932.815,368.87a5.134,5.134,0,0,1,1.946,4.121c0,1.655-.872,2.494-1.946,1.874a5.137,5.137,0,0,1-1.947-4.121C930.868,369.088,931.74,368.249,932.815,368.87Z" transform="translate(-923.859 -364.612)"/><path class="l" d="M924.926,364.307a5.133,5.133,0,0,1,1.947,4.121c0,1.655-.871,2.494-1.947,1.873a5.137,5.137,0,0,1-1.947-4.121C922.979,364.525,923.851,363.687,924.926,364.307Z" transform="translate(-922.979 -364.103)"/></g><path class="m" d="M1001.79,537.841l.189-.107,3.635-2.095a3.653,3.653,0,0,0,1.8-2.671,3.837,3.837,0,0,0,.034-.5V417.737l-4.4,2.582V535.752a2.349,2.349,0,0,1-1.1,1.994C1001.842,537.806,1001.79,537.841,1001.79,537.841Z" transform="translate(-927.353 -360.706)"/><g transform="translate(6.175 53.311)"><g transform="translate(42.053 16.094)"><path class="e" d="M992.985,443.268l-20.1-11.523c-.327-.188-.592-.036-.592.341v19.156a1.307,1.307,0,0,0,.592,1.024l20.1,11.508c.327.188.592.035.592-.342V444.293A1.307,1.307,0,0,0,992.985,443.268Z" transform="translate(-972.289 -431.664)"/><path class="l" d="M973.519,453.048v-1.693l6.016-3.464,1.406,3.283-1.406,1.959,7.295-5.274,5.792,11.951v4.22l-19.032-10.887A.75.75,0,0,1,973.519,453.048Z" transform="translate(-972.426 -433.471)"/><path class="l" d="M977.125,441.347a3.731,3.731,0,0,0,1.558,2.978c.861.5,1.559-.03,1.559-1.178a3.732,3.732,0,0,0-1.559-2.978C977.822,439.671,977.125,440.2,977.125,441.347Z" transform="translate(-972.828 -432.592)"/></g><path class="b" d="M963.759,427.725l-24.273-14.014c-.653-.377-1.182-.071-1.182.683v1.112a2.615,2.615,0,0,0,1.183,2.05L963.76,431.57c.653.378,1.183.071,1.183-.683v-1.112A2.614,2.614,0,0,0,963.759,427.725Z" transform="translate(-926.444 -413.549)"/><path class="e" d="M964.874,434.138l-15.393-8.887c-.653-.377-1.182-.109-1.182.6a2.539,2.539,0,0,0,1.182,1.965l15.393,8.887c.654.377,1.183.109,1.183-.6A2.537,2.537,0,0,0,964.874,434.138Z" transform="translate(-927.559 -414.836)"/><path class="m" d="M962.507,438.537,925.9,417.473c-.522-.3-.946-.1-.946.462a2.015,2.015,0,0,0,.946,1.555l36.606,21.065c.522.3.946.1.946-.462A2.014,2.014,0,0,0,962.507,438.537Z" transform="translate(-924.955 -413.972)"/></g><path class="m" d="M984.6,482.108a5.245,5.245,0,0,0,2.19,4.185c1.21.7,2.19-.043,2.19-1.655a5.244,5.244,0,0,0-2.19-4.185C985.584,479.755,984.6,480.5,984.6,482.108Z" transform="translate(-925.435 -367.674)"/></g><g transform="translate(1055.432 439.006)"><g transform="translate(8.42)"><path class="e" d="M1095.529,454.957c.115-.382.482-.5.9-.259l36.183,20.891a1.9,1.9,0,0,1,.685.742l2.919-1.708a1.927,1.927,0,0,0-.678-.721l-36.176-20.891a2.045,2.045,0,0,0-1.874,0l-1.059.605A2.109,2.109,0,0,0,1095.529,454.957Z" transform="translate(-1095.492 -452.784)"/><g class="i" transform="translate(0.036)"><path class="j" d="M1095.529,454.957c.115-.382.482-.5.9-.259l36.183,20.891a1.9,1.9,0,0,1,.685.742l2.919-1.708a1.927,1.927,0,0,0-.678-.721l-36.176-20.891a2.045,2.045,0,0,0-1.874,0l-1.059.605A2.109,2.109,0,0,0,1095.529,454.957Z" transform="translate(-1095.529 -452.784)"/></g><path class="e" d="M1095.488,455.462l.007,36.191a2.083,2.083,0,0,0,.93,1.621l34.194,19.738,1.989,1.153a.989.989,0,0,0,.144.072c.007,0,.015.007.021.007.447.158.771-.094.771-.62v-36.19a1.86,1.86,0,0,0-.251-.88,1.9,1.9,0,0,0-.685-.742l-36.183-20.891c-.418-.245-.786-.123-.9.259-.007.021-.007.044-.015.072A1.036,1.036,0,0,0,1095.488,455.462Z" transform="translate(-1095.488 -453.009)"/><path class="e" d="M1137.456,516.763c.036.014.073.028.115.044a.655.655,0,0,0,.159.043,1.266,1.266,0,0,0,.245.044c.079.007.165.014.244.014a2.319,2.319,0,0,0,.5-.058,1.672,1.672,0,0,0,.44-.165l1.052-.613a2.059,2.059,0,0,0,.937-1.621V478.267a1.928,1.928,0,0,0-.259-.9l-2.919,1.708a1.86,1.86,0,0,1,.251.88v36.19C1138.227,516.669,1137.9,516.922,1137.456,516.763Z" transform="translate(-1100.17 -455.527)"/><path class="k" d="M1137.456,516.763c.036.014.073.028.115.044a.655.655,0,0,0,.159.043,1.266,1.266,0,0,0,.245.044c.079.007.165.014.244.014a2.319,2.319,0,0,0,.5-.058,1.672,1.672,0,0,0,.44-.165l1.052-.613a2.059,2.059,0,0,0,.937-1.621V478.267a1.928,1.928,0,0,0-.259-.9l-2.919,1.708a1.86,1.86,0,0,1,.251.88v36.19C1138.227,516.669,1137.9,516.922,1137.456,516.763Z" transform="translate(-1100.17 -455.527)"/></g><g transform="translate(0 17.862)"><path class="e" d="M1095.414,485.458l-9.233-8.671a.638.638,0,0,1,.524-1.068l8.709.76Z" transform="translate(-1086.01 -473.204)"/><path class="e" d="M1099.831,473.648l-4.368,2.519-8.71-.763a.674.674,0,0,0-.3.044c.7-.41,3.994-2.313,4.31-2.481a.6.6,0,0,1,.366-.074Z" transform="translate(-1086.06 -472.889)"/><path class="n" d="M1099.831,473.648l-4.368,2.519-8.71-.763a.674.674,0,0,0-.3.044c.7-.41,3.994-2.313,4.31-2.481a.6.6,0,0,1,.366-.074Z" transform="translate(-1086.06 -472.889)"/></g></g><g transform="translate(1055.432 494.007)"><g transform="translate(0 16.969)"><path class="e" d="M1095.414,546.362l-9.233-8.671a.638.638,0,0,1,.524-1.068l8.709.76Z" transform="translate(-1086.01 -534.108)"/><path class="e" d="M1099.831,534.552l-4.368,2.519-8.71-.763a.674.674,0,0,0-.3.044c.7-.41,3.994-2.314,4.31-2.481a.6.6,0,0,1,.366-.074Z" transform="translate(-1086.06 -533.793)"/><path class="n" d="M1099.831,534.552l-4.368,2.519-8.71-.763a.674.674,0,0,0-.3.044c.7-.41,3.994-2.314,4.31-2.481a.6.6,0,0,1,.366-.074Z" transform="translate(-1086.06 -533.793)"/></g><g transform="translate(8.42)"><path class="e" d="M1095.529,516.866c.115-.382.482-.5.9-.259l36.183,20.891a1.907,1.907,0,0,1,.685.742l2.919-1.708a1.926,1.926,0,0,0-.678-.721l-36.176-20.891a2.045,2.045,0,0,0-1.874,0l-1.059.605A2.109,2.109,0,0,0,1095.529,516.866Z" transform="translate(-1095.492 -514.693)"/><g class="i" transform="translate(0.036)"><path class="j" d="M1095.529,516.866c.115-.382.482-.5.9-.259l36.183,20.891a1.907,1.907,0,0,1,.685.742l2.919-1.708a1.926,1.926,0,0,0-.678-.721l-36.176-20.891a2.045,2.045,0,0,0-1.874,0l-1.059.605A2.109,2.109,0,0,0,1095.529,516.866Z" transform="translate(-1095.529 -514.693)"/></g><path class="e" d="M1095.488,517.371l.007,36.191a2.083,2.083,0,0,0,.93,1.621l34.194,19.738,1.989,1.153a.9.9,0,0,0,.144.072c.007,0,.015.007.021.007.447.158.771-.093.771-.62v-36.19a1.863,1.863,0,0,0-.251-.88,1.906,1.906,0,0,0-.685-.742l-36.183-20.891c-.418-.245-.786-.123-.9.259-.007.021-.007.044-.015.072A1.036,1.036,0,0,0,1095.488,517.371Z" transform="translate(-1095.488 -514.918)"/><path class="e" d="M1137.456,578.672l.115.044a.664.664,0,0,0,.159.043,1.275,1.275,0,0,0,.245.044c.079.007.165.014.244.014a2.323,2.323,0,0,0,.5-.058,1.674,1.674,0,0,0,.44-.165l1.052-.613a2.059,2.059,0,0,0,.937-1.621V540.176a1.928,1.928,0,0,0-.259-.9l-2.919,1.708a1.863,1.863,0,0,1,.251.88v36.19C1138.227,578.579,1137.9,578.831,1137.456,578.672Z" transform="translate(-1100.17 -517.436)"/><path class="k" d="M1137.456,578.672l.115.044a.664.664,0,0,0,.159.043,1.275,1.275,0,0,0,.245.044c.079.007.165.014.244.014a2.323,2.323,0,0,0,.5-.058,1.674,1.674,0,0,0,.44-.165l1.052-.613a2.059,2.059,0,0,0,.937-1.621V540.176a1.928,1.928,0,0,0-.259-.9l-2.919,1.708a1.863,1.863,0,0,1,.251.88v36.19C1138.227,578.579,1137.9,578.831,1137.456,578.672Z" transform="translate(-1100.17 -517.436)"/></g></g></g></svg>