<svg xmlns="http://www.w3.org/2000/svg" width="556.938" height="403.762" viewBox="0 0 556.938 403.762">
    <defs>
        <style>.a{fill:#eadff1;}.b{fill:#62548a;}.c{fill:#947dce;}.d{fill:#f3edf7;}.e{fill:#fff;}</style>
    </defs>
    <g transform="translate(-799.391 -314.069)">
        <path class="a"
              d="M911.508,492.07c36.047-53.64,75.26-105.481,121.41-150.723,17.032-16.7,40.514-33.624,62.715-24.91,19.007,7.461,26.749,30.717,26.141,51.125s-7.1,40.444-6.285,60.846,12.308,42.944,32.448,46.3c19.146,3.19,35.922-11.679,51.086-23.794a247.692,247.692,0,0,1,104.668-48.964c11.044-2.25,24.267-3.068,31.8,5.321,8.234,9.173,4.693,23.494.682,35.149L1307.547,525.6c-4,11.63-6.193,27.954,4.979,33.1,8.147,3.754,17.68-1.881,26.557-.583,11.133,1.629,17.99,14.184,17.183,25.407s-7.213,21.187-13.756,30.341c-21.809,30.514-47.824,58.652-79.82,78.219s-70.481,30.046-107.507,24.068c-17.251-2.785-36.114-11.327-40.761-28.171-2.359-8.552-.558-17.848-3.017-26.372-4.751-16.476-24.257-24.782-41.338-23.262s-32.518,10.26-48,17.635a332.636,332.636,0,0,1-188.86,28.777c-12.234-1.751-26.038-5.394-31.536-16.461-5.653-11.38.248-24.886,6.383-36.013A688.011,688.011,0,0,1,932.238,470.016"/>
        <g transform="translate(824.898 404.739)">
            <g transform="translate(0 222.271)">
                <rect class="b" width="505.924" height="14.759" rx="5.736"/>
            </g>
            <g transform="translate(40.928 66.62)">
                <g transform="translate(5.779 100.39)">
                    <path class="c"
                          d="M894.954,553.953c3.636,0,12.05-.472,17.793-4.478a12.413,12.413,0,0,0,5.705-10.643,13.136,13.136,0,0,0-5.874-11.425c-6.3-4.349-15.2-3.777-15.578-3.754l.7,5.955c.062.005,5.9-.327,9.58,2.236,2.169,1.512,3.265,3.865,3.265,6.988a7.1,7.1,0,0,1-3.157,6.247c-4.747,3.31-13.47,2.873-13.555,2.873l-.648,5.955C893.3,553.912,893.936,553.953,894.954,553.953Z"
                          transform="translate(-844.741 -511.731)"/>
                    <path class="c" d="M913.355,514.378H855.527l8.567,54.8H904.36Z"
                          transform="translate(-855.527 -514.378)"/>
                </g>
                <path class="d"
                      d="M886,524.712a48.423,48.423,0,0,0,9.168-8.848,30.342,30.342,0,0,0,6.005-12.591,22.632,22.632,0,0,0-2.786-15.689,35.752,35.752,0,0,0-10.128-10.626c-.507-.369-.87-.653-1.211-.926l-1.07-.845-2.093-1.7c-1.365-1.144-2.695-2.3-3.918-3.455-2.41-2.262-4.683-4.8-5.367-6.468-.336-.778-.049-1.167.4-.293a4.72,4.72,0,0,1,.351,1.558c.019.512-.017.837.1.89.107.161.835-.508,1.8-1.217.985-.745,2.264-1.652,3.66-2.6a13.99,13.99,0,1,0-18.1-21.118l-.284.311c-1.445,1.563-2.96,3.229-4.574,5.247a36.565,36.565,0,0,0-4.968,7.881,21.122,21.122,0,0,0-1.409,13.447,22.117,22.117,0,0,0,5.42,9.793,36.068,36.068,0,0,0,5.939,5.065,63.8,63.8,0,0,0,5.676,3.509c1.865,1.042,3.71,1.971,5.547,2.86l5.333,2.461a21.525,21.525,0,0,1,6.666,4.466,8.728,8.728,0,0,1,2.475,5.937c.127,5.01-3.583,11.793-7.905,16.763l-.233.269A4.067,4.067,0,0,0,886,524.712Z"
                      transform="translate(-851.034 -436.339)"/>
            </g>
            <g transform="translate(165.136)">
                <path class="e"
                      d="M0,0H277.225a0,0,0,0,1,0,0V15.318A12.692,12.692,0,0,1,264.533,28.01H12.692A12.692,12.692,0,0,1,0,15.318V0A0,0,0,0,1,0,0Z"
                      transform="translate(0 161.549)"/>
                <rect class="c" width="56.894" height="24.508" transform="translate(110.717 189.559)"/>
                <path class="c"
                      d="M8.879,0H268.346a8.879,8.879,0,0,1,8.879,8.879V162a0,0,0,0,1,0,0H0a0,0,0,0,1,0,0V8.879A8.879,8.879,0,0,1,8.879,0Z"/>
                <rect class="e" width="256.433" height="140.345" transform="translate(11.262 11.656)"/>
                <path class="e" d="M1063,521.438a6.262,6.262,0,1,1-6.262-6.261A6.262,6.262,0,0,1,1063,521.438Z"
                      transform="translate(-918.121 -347.139)"/>
                <path class="b" d="M1120.537,559.161H1013.929a8.2,8.2,0,0,1,8.2-8.2h90.2a8.2,8.2,0,0,1,8.2,8.2Z"
                      transform="translate(-928.587 -336.891)"/>
                <g transform="translate(29.724 28.773)">
                    <rect class="c" width="113.978" height="109.114" rx="3.454" transform="translate(104.741)"/>
                    <rect class="a" width="84.536" height="61.181" rx="3.567" transform="translate(0 47.933)"/>
                    <g transform="translate(2.642 50.181)">
                        <g transform="translate(6.976 37.381)">
                            <path class="e"
                                  d="M1.208,0H64.023a1.208,1.208,0,0,1,1.208,1.208V2.453a1.209,1.209,0,0,1-1.209,1.209H1.209A1.209,1.209,0,0,1,0,2.453V1.208A1.208,1.208,0,0,1,1.208,0Z"/>
                            <path class="e"
                                  d="M1.209,0H37.475a1.209,1.209,0,0,1,1.209,1.209V2.453a1.208,1.208,0,0,1-1.208,1.208H1.208A1.208,1.208,0,0,1,0,2.453V1.209A1.209,1.209,0,0,1,1.209,0Z"
                                  transform="translate(0 8.596)"/>
                        </g>
                        <circle class="e" cx="11.621" cy="11.621" r="11.621"
                                transform="translate(0 16.434) rotate(-45)"/>
                    </g>
                    <g transform="translate(0.713 12.486)">
                        <rect class="e" width="49.335" height="3.661" rx="1.208"/>
                        <rect class="e" width="68.015" height="3.661" rx="1.208" transform="translate(0 23.051)"/>
                        <rect class="e" width="83.363" height="3.661" rx="1.208" transform="translate(0 11.477)"/>
                    </g>
                    <g transform="translate(126.239 19.705)">
                        <rect class="e" width="71.355" height="71.355"/>
                        <path class="a" d="M1098.6,463.718l12.738-15.234,21.229,19.177v18.414H1098.6Z"
                              transform="translate(-1060.299 -414.719)"/>
                        <path class="b" d="M1068.826,465.027l14.384-22.08,45.8,44.713h-60.186Z"
                              transform="translate(-1068.826 -416.305)"/>
                    </g>
                </g>
            </g>
        </g>
    </g>
</svg>
