<svg xmlns="http://www.w3.org/2000/svg" width="223.403" height="430.064" viewBox="0 0 223.403 430.064"><defs><style>.a,.b{fill:#caa267;}.a{fill-rule:evenodd;}.c{fill:#c2934e;}.d{fill:#8a7cc7;}.e{fill:#f1c759;}.f{opacity:0.15;}.g{fill:#5e5584;}.h{fill:#5e5587;}.i{opacity:0.3;}.j{opacity:0.5;}.k{fill:#eec459;}.l{fill:#959595;}.m{fill:#c8c8c8;}.n{fill:#7f7f7f;}.o{fill:none;stroke:#8a7cc7;stroke-miterlimit:10;stroke-width:0.861px;}</style></defs><g transform="translate(-939.216 -305.345)"><g transform="translate(939.216 542.114)"><path class="a" d="M950.239,533.7s-5.863,2.573-8.27,6.974c-1.43,2.616-2.1,2.3-2.483,2.7-1.258,1.317,2.2.854,3.8-1.23,1.3-1.693,4.955-1.578,6.064-2.476s3.627-3.879,3.489-4.9S950.239,533.7,950.239,533.7Z" transform="translate(-939.216 -523.306)"/><path class="a" d="M960.27,524.1c-.6.753-9.289,7.836-11.516,12.577s-5.087,12-6.724,14.27c-1.925,2.672-1.014,3.852,1.538.9a51.432,51.432,0,0,0,5.038-7.009c.2-.484-1.389,2.557-3.365,5.768-2.1,3.415-4.592,7.043-4,7.464,1.146.817,7.863-8.779,8.744-10.579A50.112,50.112,0,0,1,947.6,552.2c-1.2,2.086-2.917,4.356-2.637,5.024.443,1.055,4.691-3.777,7.022-8.2.18-.026-.129,1.563-3.249,6.628-.314.509-.581,2,.9.5,3.128-3.159,4.706-4.286,6.868-9.722,2.109-5.3,3.147-11.619,5.836-15.007Z" transform="translate(-939.069 -524.097)"/></g><path class="b" d="M1085.219,590.12s-10.259,105.849-5.9,107.669c7.826,3.321,38.472,14.178,4.685,11.792-17.357,1.045-16.083-2.831-16.354-6.118-.221-2.685.288-97.414-.424-104.78-.16-1.649-.257-2.647-.257-2.647Z" transform="translate(10.522 23.455)"/><path class="b" d="M1026.591,590.236s4.447,105.849.085,107.669c-7.825,3.321-38.471,14.178-4.684,11.792,17.357,1.045,16.083-2.831,16.354-6.118.221-2.685,2.19-23.061,2.9-30.428.16-1.649,3.561-84.434,3.561-84.434Z" transform="translate(5.537 23.339)"/><path class="c" d="M1057.177,337.965s-.9,10.087,5.317,15.664-14.337,0-14.337,0,3.826-9.66,2.968-15.664S1057.177,337.965,1057.177,337.965Z" transform="translate(8.973 2.467)"/><ellipse class="b" cx="10.877" cy="14.84" rx="10.877" ry="14.84" transform="translate(1051.992 314.664)"/><path class="d" d="M1132.971,434.149c-.232,3.643-4,20.149-8.708,34.822-3.857,12.045-8.36,22.858-12.062,24.354-8.211,3.3-70.213,7.84-82.96,1.76-.3-.224-.62-.463-.926-.727-4.784-3.891-9.972-11.575-12.723-18.77,0-.008-7.328-20.661-8.822-24.866-.017-.041-.025-.075-.042-.107-.049-.166-.107-.323-.165-.471-.017-.058-.041-.108-.058-.166-7.716,26.346-28.245,84.208-44.851,102.54-1.743,1.925-9.765-8.872-9.765-8.872s-13.408-69.239,21.57-142.41c16.465-34.442,45.851-50.156,64.613-54.327,8.121-1.81,14.25-1.454,16.49.479a12.165,12.165,0,0,0,7.592,2.949,16.511,16.511,0,0,0,4.263-.389,21.261,21.261,0,0,0,4.519-1.537c.694-.323,1.1-.553,1.1-.553a44.074,44.074,0,0,1,11.484.685C1125.966,356.856,1133.35,428.028,1132.971,434.149Z" transform="translate(0.836 3.326)"/><path class="e" d="M1021.8,481.518a6.7,6.7,0,0,0,3.806,1.756c8.941.175,47.559.837,68.508-.367,7.391-.425,12.582-1.082,13.494-2.079a.82.82,0,0,1-.006.086c-.054,1.155-.717,14.375-1.647,31.7-1.835,34.207,1.7,83.2,5.832,98.072.891,3.209-47.09-1.653-47.09-1.653-.133-35.3,3.216-97.276,1.052-100.054-2.631-3.379-6.9,51.133-11.791,96.749-19,4.957-49.091,1.947-48.742,0C1009.344,582.6,1021.8,481.518,1021.8,481.518Z" transform="translate(5.435 14.453)"/><path class="f" d="M1002.159,443.2c.017.057.042.107.058.166.057.148.116.305.166.471.016.032.024.066.041.107,1.495,4.2,8.822,24.859,8.822,24.866,2.751,7.2,7.939,14.879,12.723,18.77-3.247-11.756-13.367-45.835-12.979-59.565C1009.058,441.251,1002.159,443.192,1002.159,443.2Z" transform="translate(5.184 10.103)"/><path class="f" d="M1094.139,396.557s-20.547,61.336,36.461,87.386l1.159.771-.294-14.427S1104.6,432.8,1104.5,431.838,1094.139,396.557,1094.139,396.557Z" transform="translate(12.463 7.512)"/><path class="f" d="M1056.122,352.774c.034.983-.487,1.628-2.065,1.412-4.924-.669-10.484-.528-14.523,1.323a3.433,3.433,0,0,1-3.321-.141c-2.586-1.512-4.189-6.022-4.825-8.023a1.363,1.363,0,0,1-.066-.437c8.121-1.81,14.25-1.454,16.49.479a12.165,12.165,0,0,0,7.592,2.949A6.674,6.674,0,0,1,1056.122,352.774Z" transform="translate(7.586 3.326)"/><path class="g" d="M1039.886,688.667c.2-1.528-10.672-1.385-11.9-.144s-22.9,5.714-22.472,12.148,30.462,1.376,32.607,1.224S1039.489,691.67,1039.886,688.667Z" transform="translate(5.46 31.48)"/><path class="h" d="M1067.043,686.335c-.2-1.528,12.813.411,14.044,1.653s20.179,6.4,19.75,12.83-30.462,1.376-32.607,1.224S1067.44,689.338,1067.043,686.335Z" transform="translate(10.523 31.333)"/><g class="i" transform="translate(1062.457 495.28)"><path d="M1053.51,483.4c-.145-.011-.29-.023-.431-.036C1053.079,483.369,1053.232,483.38,1053.51,483.4Z" transform="translate(-1053.079 -480.618)"/><path class="j" d="M1053.477,483.614c11.509.919,36.661-.708,36.661-.708,7.391-.425,12.582-1.082,13.494-2.079a.82.82,0,0,1-.006.086c-.054,1.155-.717,14.375-1.647,31.7a8.632,8.632,0,0,1-1.209-.14,9.417,9.417,0,0,1-6.091-4.328,20.926,20.926,0,0,1-2.368-4.945C1083.73,486.876,1057.164,483.945,1053.477,483.614Z" transform="translate(-1053.046 -480.827)"/></g><g transform="translate(1049.476 305.345)"><g transform="translate(2.296 4.138)"><path class="k" d="M1049.984,320.67s18.83,10.44,13.241-6.321C1059.358,302.752,1037.142,313.2,1049.984,320.67Z" transform="translate(-1042.975 -309.168)"/><path class="k" d="M1052.946,316.61s-10.536,6.251-9.519,12.522c0,0-2.323-18.723,8.152-19.192s14.531.54,13.6,20.338C1065.18,330.277,1062.136,314.528,1052.946,316.61Z" transform="translate(-1043.208 -309.111)"/></g><path class="k" d="M1050.52,310.432s.529-5.833,6.312-5.007,8.262,4.13,9.088,7.435,1.652,5.783,2.479,5.783c0,0-2.479,2.479-3.3,1.653,0,0,2.144,5.941-.58,10.819,0,0-1.073-7.515-5.2-8.341S1050.52,310.432,1050.52,310.432Z" transform="translate(-1040.309 -305.345)"/><path class="k" d="M1051.826,310.039s-4.13-2.479-8.262,3.3l-2.479,4.956s.827.827,2.479,0c0,0-.752,5.821.037,9.107l2.442-9.933Z" transform="translate(-1041.086 -305.002)"/></g><path class="l" d="M1028.377,414.641l10.476,67.108a7.167,7.167,0,0,0,8.178,5.972l45.8-7.154a2.127,2.127,0,0,0,.321-.066,7.142,7.142,0,0,0,5.643-8.112l-10.476-67.108a7.155,7.155,0,0,0-8.178-5.965l-43.678,6.816-2.124.33A7.156,7.156,0,0,0,1028.377,414.641Z" transform="translate(7.336 7.732)"/><path class="m" d="M1030.636,414.245l10.476,67.107a7.156,7.156,0,0,0,8.178,5.965l43.678-6.816a7.142,7.142,0,0,0,5.643-8.112l-10.476-67.108a7.155,7.155,0,0,0-8.178-5.965l-43.678,6.816A7.142,7.142,0,0,0,1030.636,414.245Z" transform="translate(7.522 7.732)"/><circle class="n" cx="5.529" cy="5.529" r="5.529" transform="translate(1067.084 446.083)"/><path class="f" d="M1108.42,458.58s1.073-24.668-65.018-16.406,49.568,15.7,49.568,15.7Z" transform="translate(6.901 11.13)"/><g transform="translate(1023.442 349)"><g transform="translate(0 102.405)"><path class="a" d="M1050.047,451.127c-.782-.262-9.048-5.213-13.529-5.626s-11.183-.6-13.5-1.258c-2.721-.774-3.409.307-.274,1.5a44.218,44.218,0,0,0,7.138,2.022c.448.018-2.472-.374-5.646-1.033-3.374-.7-7.032-1.65-7.2-1.049-.325,1.165,9.393,3.785,11.105,3.97a43.233,43.233,0,0,1-4.514-.547c-2.037-.362-4.372-1.082-4.831-.66-.723.666,4.425,2.685,8.678,3.275.074.137-1.3.353-6.306-.686-.5-.1-1.784.115-.136.877,3.467,1.6,4.839,2.548,9.864,2.7,4.9.153,10.307-.856,13.831.326Z" transform="translate(-1017.033 -439.987)"/><path class="a" d="M1037.908,446.246s-3.794-3.984-8.053-4.641c-2.532-.391-2.472-1.028-2.9-1.219-1.433-.63-.047,2.029,2.1,2.711,1.748.555,2.724,3.542,3.775,4.176s4.2,1.8,4.979,1.384S1037.908,446.246,1037.908,446.246Z" transform="translate(-1016.264 -440.291)"/></g><path class="d" d="M1118.743,359.107c15.561,13.924,26.328,26.856,33.046,69.4,3.407,21.582,2.521,43.166,1.633,54.547a13.449,13.449,0,0,1-9.242,11.694c-48.755,16.082-102.309-30.182-102.309-30.182-2.792-1.039,2.828-11,2.828-11,26.954-.279,47.608.547,69.087,8.808-.108-.051-21.115-39.508-23.958-50.395-7.445-28.546-31.95-53.25-25.61-64.438C1066.409,343.671,1103.047,345.062,1118.743,359.107Z" transform="translate(-1015.051 -345.678)"/></g><g transform="translate(1023.442 495.136)"><line class="o" x1="12.184" y2="127.408"/><line class="o" x1="12.093" y2="125.19" transform="translate(12.185 2.548)"/><line class="o" x1="10.056" y2="124.315" transform="translate(26.041 2.548)"/><line class="o" x2="0.259" y2="25.75" transform="translate(47.482 2.548)"/><line class="o" x1="2.333" y2="126.834" transform="translate(57.786 2.548)"/><line class="o" x1="0.65" y2="127.898" transform="translate(70.343 2.469)"/><line class="o" x2="2.46" y2="128.632" transform="translate(81.68 2.469)"/></g><path class="o" d="M1019.015,493.711s68.614,3.238,86.743,0" transform="translate(6.572 15.514)"/><path class="o" d="M1064.715,507.079c-24.007,5.438-46.981-3.158-46.981-3.158" transform="translate(6.467 16.355)"/><path class="o" d="M1060.9,505.338s21.666,6.087,40.7.947" transform="translate(10.022 16.472)"/><path class="o" d="M1016.643,512.547s17.3,9.058,45.4,4.441" transform="translate(6.377 17.066)"/><path class="o" d="M1015.335,522.821s26.923,8.219,45.487,3.99" transform="translate(6.269 17.912)"/><path class="o" d="M1014.023,533.028s13.711,10.749,45.5,5.927" transform="translate(6.161 18.753)"/><path class="o" d="M1012.495,544.768a66.7,66.7,0,0,0,46.114,3.473" transform="translate(6.035 19.72)"/><path class="o" d="M1011.075,555.523s14.809,10.511,46.407,4.405" transform="translate(5.918 20.605)"/><path class="o" d="M1009.591,566.548s20.438,10.684,47.07,2.052" transform="translate(5.796 21.513)"/><path class="o" d="M1008.4,575.153s12.059,11.6,47.336,3" transform="translate(5.698 22.222)"/><path class="o" d="M1007,584.92s19.5,10.272,47.81,2.676" transform="translate(5.583 23.027)"/><path class="o" d="M1061.811,516.082s9.051,7.475,39.711,1.927" transform="translate(10.097 17.357)"/><path class="o" d="M1062.031,526.475s12.7,5.922,38.747,1.245" transform="translate(10.115 18.213)"/><path class="o" d="M1061.458,538.009s19.612,5.906,39.368,0" transform="translate(10.068 19.163)"/><path class="o" d="M1061.2,547.574s19.066,8.475,40.03,0" transform="translate(10.047 19.951)"/><path class="o" d="M1060.9,558.076s18.151,6.369,40.876,0" transform="translate(10.022 20.816)"/><path class="o" d="M1060.63,568.162s15.3,6.864,41.886,0" transform="translate(10 21.646)"/><path class="o" d="M1060.63,577.085s18.165,9.361,42.811.995" transform="translate(10 22.381)"/><path class="o" d="M1060.227,588.241a83.988,83.988,0,0,0,44.594.515" transform="translate(9.967 23.3)"/></g></svg>