<svg xmlns="http://www.w3.org/2000/svg" width="309.443" height="395.565" viewBox="0 0 309.443 395.565"><defs><style>.a{fill:#bcd3d7;opacity:0.49;}.b,.c{fill:#caa267;}.b{fill-rule:evenodd;}.d{fill:#c2934e;}.e{fill:#8c7cc9;}.f{fill:#f1c759;}.g{opacity:0.15;}.h{fill:#5e5586;}.i{fill:#5e5587;}.j{opacity:0.3;}.k{opacity:0.5;}.l{fill:#f0c659;}.m{fill:#979797;}.n{fill:#cacaca;}.o{fill:#7f7f7f;}.p{fill:none;stroke:#8c7cc9;stroke-miterlimit:10;stroke-width:0.747px;}</style></defs><g transform="translate(-43.049 -323.491)"><path class="a" d="M223.723,401.9c52.381,30.092,78.571,45.138,92.794,63.615,47.517,61.733,51.126,176.256-8.282,226.71-3.091,2.625-46.353,38.284-90.889,23.069-37.289-12.74-37.762-48.259-89.606-131.321-55.5-88.926-88.59-102.09-84.323-142.587,4.039-38.342,38.559-72.7,74.427-79.509C144.52,356.813,171.284,371.772,223.723,401.9Z"/><path class="b" d="M327.119,355.159c1.388-3.392,5.8-6.039,8.751-6.856a29.643,29.643,0,0,0,3.763-1.581c2.287-.771-1.332,2.492-2.7,3.04-1.111.445-3.1,3.753-4.192,4.888s-3.425,2.779-4.681,2.79S327.3,355.789,327.119,355.159Z"/><path class="b" d="M319.452,366.923c2.653-4.765,4.64-10.428,9.736-12.793s12.722-2.327,16.77-2.946c4.764-.729,2.767.821.257,1.493-1.631.437-6.906,2-8.553,1.989a52.2,52.2,0,0,1,6.877-1.119c.391.109,7.948-1.953,7.435-.563-1,2.695-9.531,3.039-12.25,3.632,1.435-.052,3.766-.482,5.147-.539,1.173-.048,4.715-1.338,5.064-.259.55,1.7-8.19,2.8-9.352,2.9,1.15.925,5.535-.46,7.064-.565.153-.011,1.545.323-.129.912a50.249,50.249,0,0,1-10.278,2.969c-4.028.6-8.752,1.216-11.437,4.894C323.654,366.807,321.55,367.183,319.452,366.923Z"/><path class="c" d="M184.285,602.243s9.277,95.726,5.332,97.373c-7.077,3-34.792,12.822-4.236,10.664,15.7.946,14.545-2.561,14.79-5.533.2-2.427-.26-88.1.385-94.759l.231-2.394Z"/><path class="c" d="M241.814,602.243s-4.022,95.726-.077,97.373c7.077,3,34.792,12.822,4.236,10.664-15.7.946-14.545-2.561-14.79-5.533-.2-2.427-1.981-20.855-2.626-27.517-.144-1.492-3.22-76.36-3.22-76.36Z"/><path class="d" d="M211.046,355.222s.817,9.122-4.809,14.166,12.966,0,12.966,0-3.46-8.737-2.684-14.166S211.046,355.222,211.046,355.222Z"/><ellipse class="c" cx="9.836" cy="13.42" rx="9.836" ry="13.42" transform="translate(204.177 331.918)"/><path class="e" d="M294.115,413.219c-14.89-31.148-41.465-45.358-58.433-49.131-7.344-1.637-12.888-1.315-14.912.433a11,11,0,0,1-6.867,2.667,14.89,14.89,0,0,1-3.855-.351,19.2,19.2,0,0,1-4.087-1.39c-.627-.291-.993-.5-.993-.5a39.845,39.845,0,0,0-10.385.62c-38.388,7.516-45.067,71.881-44.724,77.418.21,3.3,3.616,18.222,7.875,31.491,3.489,10.893,7.561,20.673,10.908,22.026,7.427,2.988,63.5,7.09,75.027,1.591.269-.2.56-.418.837-.657,4.326-3.519,9.018-10.468,11.506-16.975,0,0,6.627-18.686,7.979-22.489.015-.037.023-.067.037-.1.045-.149.1-.291.15-.426.015-.052.037-.1.052-.149"/><path class="f" d="M246.239,495.886a6.064,6.064,0,0,1-3.442,1.588c-8.086.159-43.011.757-61.956-.332-6.684-.385-11.379-.978-12.2-1.88,0,0,0,.028.005.077.05,1.044.649,13,1.49,28.671,1.66,30.937-1.538,75.245-5.273,88.693-.807,2.9,42.586-1.494,42.586-1.494.121-31.926-2.908-87.974-.951-90.486,2.38-3.056,6.239,46.244,10.664,87.5,17.184,4.483,44.395,1.761,44.081,0C257.5,587.3,246.239,495.886,246.239,495.886Z"/><path class="g" d="M264.228,457.3c-.015.052-.037.1-.052.149-.052.135-.1.277-.15.426-.015.03-.022.06-.037.1-1.352,3.8-7.979,22.481-7.979,22.481-2.488,6.515-7.18,13.464-11.506,16.983,2.936-10.632,12.088-41.451,11.737-53.869C257.99,455.536,264.228,457.292,264.228,457.3Z"/><path class="g" d="M174.461,412.774s18.583,55.471-32.973,79.029l-1.048.7.267-13.047s24.293-33.9,24.385-34.772S174.461,412.774,174.461,412.774Z"/><path class="g" d="M213.253,369.392c-.029.889.441,1.472,1.868,1.278,4.453-.605,9.481-.478,13.135,1.195a3.1,3.1,0,0,0,3-.127c2.339-1.367,3.788-5.446,4.364-7.254a1.269,1.269,0,0,0,.059-.4c-7.344-1.637-12.888-1.315-14.912.433a11,11,0,0,1-6.867,2.667A6.074,6.074,0,0,0,213.253,369.392Z"/><path class="h" d="M229.86,698.623c-.183-1.382,9.651-1.252,10.764-.13s20.711,5.167,20.323,10.987-27.549,1.244-29.489,1.107S230.22,701.339,229.86,698.623Z"/><path class="i" d="M200.722,696.382c.183-1.382-11.588.371-12.7,1.494s-18.249,5.784-17.861,11.6,27.549,1.244,29.489,1.107S200.362,699.1,200.722,696.382Z"/><g class="j"><path d="M214,497.782l.389-.032S214.247,497.76,214,497.782Z"/><path class="k" d="M214,497.782c-10.408.831-33.155-.64-33.155-.64-6.684-.385-11.379-.978-12.2-1.88,0,0,0,.028.005.077.05,1.044.649,13,1.49,28.671a7.663,7.663,0,0,0,1.094-.126,8.513,8.513,0,0,0,5.508-3.914,18.925,18.925,0,0,0,2.142-4.473C186.636,500.733,210.662,498.082,214,497.782Z"/></g><path class="l" d="M217.71,337.636s-17.029,9.441-11.975-5.718C209.232,321.43,229.324,330.878,217.71,337.636Z"/><path class="l" d="M215.241,334.014s9.528,5.654,8.609,11.325c0,0,2.1-16.932-7.373-17.358s-13.141.489-12.3,18.394C204.177,346.375,206.93,332.132,215.241,334.014Z"/><path class="l" d="M216.89,328.092s-.478-5.276-5.708-4.529-7.472,3.736-8.219,6.724-1.494,5.23-2.241,5.23c0,0,2.241,2.242,2.988,1.495,0,0-1.939,5.373.525,9.784,0,0,.97-6.8,4.705-7.543S216.89,328.092,216.89,328.092Z"/><path class="l" d="M216.412,328.046s3.735-2.241,7.471,2.989l2.241,4.482s-.747.747-2.241,0c0,0,.681,5.264-.033,8.236l-2.208-8.983Z"/><path class="m" d="M238.572,429.327l-9.474,60.69a6.482,6.482,0,0,1-7.4,5.4l-41.421-6.47a2,2,0,0,1-.291-.06,6.457,6.457,0,0,1-5.1-7.336l9.474-60.69a6.47,6.47,0,0,1,7.4-5.394l39.5,6.164,1.92.3A6.472,6.472,0,0,1,238.572,429.327Z"/><path class="n" d="M236.36,428.968l-9.473,60.69a6.471,6.471,0,0,1-7.4,5.394l-39.5-6.164a6.457,6.457,0,0,1-5.1-7.336l9.474-60.69a6.47,6.47,0,0,1,7.4-5.394l39.5,6.164A6.458,6.458,0,0,1,236.36,428.968Z"/><circle class="o" cx="5" cy="5" r="5" transform="translate(200.201 450.769)"/><path class="g" d="M166.578,472.137s-.971-22.309,58.8-14.837-44.828,14.2-44.828,14.2Z"/><path class="b" d="M219.812,465.658c.708-.238,8.183-4.714,12.236-5.088s10.113-.544,12.205-1.139c2.461-.7,3.083.278.247,1.361a40.1,40.1,0,0,1-6.455,1.828c-.4.016,2.236-.339,5.1-.934,3.052-.632,6.361-1.492,6.513-.949.293,1.054-8.495,3.424-10.044,3.591a38.946,38.946,0,0,0,4.082-.494c1.843-.327,3.954-.98,4.369-.6.653.6-4,2.428-7.848,2.961-.067.125,1.175.32,5.7-.62.455-.1,1.613.1.124.792-3.136,1.45-4.377,2.3-8.921,2.447-4.43.138-9.321-.774-12.508.3Z"/><path class="b" d="M230.1,460.969s3.43-3.6,7.283-4.2c2.289-.353,2.236-.93,2.626-1.1,1.3-.57.042,1.835-1.9,2.453-1.581.5-2.464,3.2-3.414,3.775s-3.794,1.624-4.5,1.253S230.1,460.969,230.1,460.969Z"/><path class="e" d="M155.894,375.115c-14.073,12.592-23.811,24.287-29.885,62.759-3.082,19.519-2.28,39.038-1.477,49.331a12.16,12.16,0,0,0,8.358,10.575c44.093,14.544,92.525-27.3,92.525-27.3,2.525-.94-2.558-9.944-2.558-9.944-24.376-.253-43.055.494-62.48,7.966.1-.046,19.1-35.73,21.667-45.575,6.733-25.817,28.895-48.158,23.161-58.277C203.223,361.156,170.09,362.414,155.894,375.115Z"/><line class="p" x2="11.019" y2="115.224" transform="translate(238.65 495.131)"/><line class="p" x2="10.936" y2="113.217" transform="translate(227.714 497.436)"/><line class="p" x2="9.094" y2="112.426" transform="translate(217.025 497.436)"/><line class="p" x1="0.234" y2="23.288" transform="translate(206.495 497.436)"/><line class="p" x2="2.11" y2="114.704" transform="translate(195.3 497.436)"/><line class="p" x2="0.588" y2="115.666" transform="translate(185.466 497.364)"/><line class="p" x1="2.225" y2="116.331" transform="translate(173.576 497.364)"/><path class="p" d="M247.729,507.873s-62.052,2.929-78.447,0"/><path class="p" d="M206.495,520.723c21.711,4.918,42.488-2.856,42.488-2.856"/><path class="p" d="M206.729,519.254s-19.594,5.506-36.8.856"/><path class="p" d="M250.051,526.311S234.4,534.5,208.99,530.327"/><path class="p" d="M251.332,536.368s-24.348,7.433-41.138,3.608"/><path class="p" d="M252.616,546.358s-12.4,9.721-41.151,5.361"/><path class="p" d="M254.111,557.85a60.323,60.323,0,0,1-41.7,3.142"/><path class="p" d="M255.5,568.378s-13.392,9.506-41.969,3.984"/><path class="p" d="M256.954,579.17s-18.484,9.662-42.569,1.856"/><path class="p" d="M258.117,587.593s-10.9,10.488-42.809,2.713"/><path class="p" d="M259.488,597.153s-17.633,9.289-43.238,2.42"/><path class="p" d="M205.838,529.772s-8.185,6.759-35.913,1.741"/><path class="p" d="M205.623,539.944s-11.486,5.356-35.042,1.126"/><path class="p" d="M206.183,551.234s-17.736,5.342-35.6,0"/><path class="p" d="M206.439,560.6s-17.242,7.665-36.2,0"/><path class="p" d="M206.729,570.877s-16.415,5.76-36.968,0"/><path class="p" d="M206.994,580.75s-13.837,6.207-37.88,0"/><path class="p" d="M206.994,589.484s-16.428,8.466-38.716.9"/><path class="p" d="M207.389,600.4a75.949,75.949,0,0,1-40.33.466"/><path class="e" d="M263.989,457.972s45.478,19.294,56.513-22.316-4.138-50.813,10.115-68.05l-9.2-7.123s-31.725,16.782-41.15,42.989S263.989,457.972,263.989,457.972Z"/></g></svg>