<svg xmlns="http://www.w3.org/2000/svg" xmlns:xlink="http://www.w3.org/1999/xlink" width="416.722" height="360.05" viewBox="0 0 416.722 360.05"><defs><style>.a{fill:none;}.b{fill:#bcd3d7;opacity:0.49;}.c{fill:#b35328;}.d{fill:#e9e9e9;}.e{fill:#8e94a0;}.f{fill:#4b3d64;}.g{fill:#a6a9b2;}.h{fill:#fff;}.i{fill:#64acdf;}.j{clip-path:url(#a);}.k{fill:url(#b);}.l{fill:url(#c);}.m{fill:url(#d);}.n{fill:url(#e);}.o{fill:url(#f);}</style><clipPath id="a"><circle class="a" cx="61.482" cy="61.482" r="61.482" transform="translate(0 86.949) rotate(-45)"/></clipPath><linearGradient id="b" x1="0.288" y1="-0.037" x2="1.076" y2="0.932" gradientUnits="objectBoundingBox"><stop offset="0" stop-color="#c2d978"/><stop offset="0.996" stop-color="#98cd81"/></linearGradient><linearGradient id="c" x1="0.132" y1="0.113" x2="1.408" y2="2.131" xlink:href="#b"/><linearGradient id="d" x1="0.102" y1="-0.259" x2="1.293" y2="1.265" xlink:href="#b"/><linearGradient id="e" x1="-1.038" y1="-0.185" x2="2.103" y2="1.404" xlink:href="#b"/><linearGradient id="f" x1="-1.073" y1="-1.404" x2="2.758" y2="3.341" xlink:href="#b"/></defs><g transform="translate(-814.042 -302.011)"><path class="b" d="M1183.068,451.839c-35.013-60.947-52.52-91.421-74.02-107.97-71.828-55.287-205.081-59.487-263.786,9.636-3.055,3.6-44.545,53.933-26.841,105.753,14.822,43.387,56.151,43.938,152.8,104.26C1074.687,628.1,1090,666.6,1137.124,661.632c44.613-4.7,84.592-44.864,92.512-86.6C1235.525,544,1218.12,512.854,1183.068,451.839Z" transform="translate(0 0)"/><g transform="translate(852.567 341.668)"><path class="c" d="M891.323,446.416h0a1.017,1.017,0,0,1-.6-1.3l.826-2.242,1.9.7-.825,2.241A1.017,1.017,0,0,1,891.323,446.416Z" transform="translate(-848.704 -334.567)"/><path class="c" d="M901.419,450.135h0a1.017,1.017,0,0,1-.6-1.3l.826-2.242c.056-.15,1.895.722,1.895.722l-.817,2.221A1.017,1.017,0,0,1,901.419,450.135Z" transform="translate(-848.195 -334.38)"/><path class="d" d="M891.128,446.04h0a1.017,1.017,0,0,1-.6-1.3l.9-2.453a1.016,1.016,0,0,1,1.3-.6h0a1.018,1.018,0,0,1,.6,1.3l-.9,2.453A1.017,1.017,0,0,1,891.128,446.04Z" transform="translate(-848.714 -334.63)"/><path class="d" d="M901.2,449.751h0a1.018,1.018,0,0,1-.6-1.3l.9-2.453a1.017,1.017,0,0,1,1.3-.6h0a1.017,1.017,0,0,1,.6,1.3l-.9,2.453A1.018,1.018,0,0,1,901.2,449.751Z" transform="translate(-848.206 -334.443)"/><rect class="e" width="6.649" height="4.311" transform="translate(39.861 134.816) rotate(20.217)"/><rect class="e" width="6.649" height="4.311" transform="translate(42.704 127.687) rotate(20.217)"/><path class="f" d="M1196.558,600.375H858.83c-3.751,0-7.711-1.891-8.112-7.4v-5.061l36.967-68.309a11.767,11.767,0,0,1,10.539-6.534h258.447c4.823,0,15.458,9.5,17.613,13.813l30.5,62.172v2.232C1204.857,597.765,1200.671,600.375,1196.558,600.375Z" transform="translate(-850.718 -331.028)"/><path class="g" d="M1196.586,593.568H858.858c-3.75,0-9.923-3.289-7.6-7.333l36.46-73.437a11.767,11.767,0,0,1,10.539-6.534H1156.7a12.729,12.729,0,0,1,11.388,7.04l36.091,72.221C1206.709,590.129,1200.7,593.568,1196.586,593.568Z" transform="translate(-850.716 -331.371)"/><rect class="g" width="276.573" height="174.765" rx="9.626" transform="translate(36.944)"/><rect class="h" width="255.237" height="151.436" transform="translate(47.562 9.532)"/><path class="f" d="M1070.694,587.827H971.181a1.794,1.794,0,0,1-1.772-2.078l4.2-26.212a2.914,2.914,0,0,1,2.878-2.454h89.757a2.56,2.56,0,0,1,2.535,2.191l3.847,26.36A1.943,1.943,0,0,1,1070.694,587.827Z" transform="translate(-844.736 -328.809)"/><path class="f" d="M1159.811,553.658H889.425c-3,0-5.288-1.153-4.814-2.425l11.4-30.6c.614-1.65,3.93-2.865,7.82-2.865h243.875c3.456,0,6.389,1.089,6.888,2.559l10.45,30.772C1165.456,552.456,1163,553.658,1159.811,553.658Z" transform="translate(-849.012 -330.791)"/><g transform="translate(34.824 180.145)"><rect class="g" width="281.966" height="1.424" transform="translate(0 12.105)"/><rect class="g" width="281.966" height="1.424" transform="translate(0 19.225)"/><rect class="g" width="281.966" height="1.424" transform="translate(0 27.769)"/><rect class="g" width="281.966" height="1.424" transform="translate(0 35.602)"/><rect class="g" width="2.136" height="46.994" transform="translate(34.148 0.76) rotate(17.439)"/><rect class="g" width="2.136" height="46.994" transform="translate(54.797 0.76) rotate(17.439)"/><rect class="g" width="2.136" height="46.994" transform="translate(71.174 0.76) rotate(17.439)"/><rect class="g" width="2.136" height="46.994" transform="translate(87.551 0.76) rotate(17.439)"/><rect class="g" width="2.136" height="46.994" transform="translate(104.64 0.76) rotate(17.439)"/><rect class="g" width="2.136" height="46.994" transform="translate(121.98 0.227) rotate(10.978)"/><rect class="g" width="2.136" height="46.994" transform="translate(136.711)"/><rect class="g" width="2.136" height="46.994" transform="translate(247.204 1.4) rotate(-17.439)"/><rect class="g" width="2.136" height="46.994" transform="translate(227.267 1.4) rotate(-17.439)"/><rect class="g" width="2.136" height="46.994" transform="translate(207.33 1.4) rotate(-17.439)"/><rect class="g" width="2.136" height="46.994" transform="translate(187.393 1.4) rotate(-17.439)"/><rect class="g" width="2.136" height="46.994" transform="translate(167.456 1.4) rotate(-17.439)"/><rect class="g" width="2.136" height="46.994" transform="translate(147.519 1.4) rotate(-17.439)"/></g></g><g transform="translate(941.963 339.969)"><circle class="i" cx="61.482" cy="61.482" r="61.482" transform="translate(0 86.949) rotate(-45)"/><g class="j"><path class="k" d="M1017,485.4a8.944,8.944,0,0,1-7.255-3.253,15.178,15.178,0,0,1-3.225-7.483,13.962,13.962,0,0,0-.937-3.929,21.187,21.187,0,0,1-1.5-2.709c-.552-1.712.241-3.582,0-5.366-.243-1.811-1.525-3.374-1.674-5.2-.134-1.651.683-3.345.207-4.932-.6-1.984-2.844-2.839-4.666-3.827a15.244,15.244,0,0,1-6.107-6.115,5.285,5.285,0,0,1-.8-3.13c.248-1.864,2.006-3.073,3.406-4.329s2.61-3.365,1.544-4.915c-.877-1.274-2.72-1.308-4.084-2.038-2.2-1.18-2.949-4.055-4.966-5.528a9.827,9.827,0,0,0-2.844-1.267l-1.757-.569a33.249,33.249,0,0,0-5.2-1.377,14.051,14.051,0,0,1-3.372-.676,3.064,3.064,0,0,1-2.036-2.546,12.562,12.562,0,0,1,.753-2.688c.388-1.866-.912-3.694-2.456-4.812s-3.378-1.8-4.865-2.989a8.979,8.979,0,0,1-3.3-7.367l.074.006c2.55-7.583,6.446-13.706,11.532-19.882,2.5-3.03,5.826-6.066,9.739-5.754,3.824.306,7.024,3.789,10.845,3.458a2.562,2.562,0,0,0,1.732-.723,1.254,1.254,0,0,0,0-1.725,2.1,2.1,0,0,0-1.164-.346,3.672,3.672,0,0,1-2.566-1.148,1.623,1.623,0,0,1,.443-2.445c.9-.341,1.8.442,2.709.746,2.849.947,5.675-2.85,8.534-1.93.547.86-.259,1.919-.974,2.646s-1.414,1.915-.719,2.662c.629.679,1.826.209,2.349-.554s.685-1.729,1.2-2.494,1.71-1.244,2.348-.574c.534.562.306,1.515.691,2.187a1.871,1.871,0,0,0,2.145.655,7.294,7.294,0,0,0,2.071-1.229c2.457-1.747,5.969-2.625,8.425-.877,1.227.874,2.163,2.36,3.661,2.522a4.754,4.754,0,0,1,1.327.14c.889.366.986,1.578.852,2.529-.148,1.048-.662,2.312-1.719,2.355a2.446,2.446,0,0,1-1.668-.9c-1.709-1.654-3.8-3.6-6.106-3.008-2.146.547-3.271,3.083-5.369,3.794-2.4.814-4.985-1.074-7.494-.682a7.89,7.89,0,0,0-4.113,2.6c-1,1.012-1.955,2.754-.873,3.68,1.1.943,3.422-.031,3.918,1.333.216.595-.153,1.243-.122,1.875a1.922,1.922,0,0,0,2.256,1.572,3.587,3.587,0,0,0,2.353-1.871c.417-.714.819-1.605,1.633-1.748,1.177-.206,2,1.34,3.187,1.443,1.317.112,2.034-1.464,3.062-2.3a3.723,3.723,0,0,1,3.931-.287,5.73,5.73,0,0,1,2.633,3.106c.364.942.472,2.176-.315,2.811a2.523,2.523,0,0,1-1.427.438c-2.727.2-5.779-.595-7.992,1.012-1.606,1.167-2.211,3.245-3.35,4.871-1.943,2.773-5.306,4.083-8.249,5.756s-5.875,4.375-5.718,7.757c.038.809.2,1.763-.393,2.309-.658.6-1.768.188-2.328-.5s-.809-1.59-1.333-2.311a4.646,4.646,0,0,0-5.378-1.238,9.005,9.005,0,0,0-4.208,4.035,6.211,6.211,0,0,0-1.015,3.046,2.762,2.762,0,0,0,1.583,2.612c2.3.874,4.392-2.438,6.821-2.083a1.067,1.067,0,0,1,.66.3c.89,1-1.818,2.723-.751,3.535a2.317,2.317,0,0,0,.943.239,2.15,2.15,0,0,1,1.439,1.817c.142.807.026,1.638.094,2.454.131,1.587,1.215,3.243,2.8,3.384,2.588.23,3.852-3.266,6.246-4.276a3.7,3.7,0,0,1,4.175,1.027c.527.639.866,1.487,1.6,1.868,1.168.6,2.637-.307,3.883.106,1.221.4,1.711,1.858,2.689,2.691,1.453,1.237,3.773.95,5.241,2.169a10.275,10.275,0,0,1,1.564,2.035,7.95,7.95,0,0,0,4.829,3.144c1.582.293,3.939-.6,5.145.812.641.748.668,1.964,1.49,2.507a14.529,14.529,0,0,0,1.551.558c1.092.551,1.27,2.1.831,3.241a31.519,31.519,0,0,1-1.88,3.145,6.613,6.613,0,0,0-.737,3.545c.119,1.581.76,3.349-.177,4.627-1.533,2.09-5.529.516-7.042,2.622-.772,1.074-.445,2.542-.507,3.863a8.667,8.667,0,0,1-3.058,5.755,36.894,36.894,0,0,1-5.505,3.776c-1.169.734-2.456,1.8-2.285,3.174.127,1.019,1.033,1.747,1.466,2.679.527,1.131.317,2.447.365,3.7s.56,2.687,1.764,3.016c.687.189,1.736.228,1.7.939a3.522,3.522,0,0,1-1.422,1.246" transform="translate(-934.511 -336.618)"/><path class="l" d="M1061.56,374.473a5.984,5.984,0,0,1-3.909,4.328,5.694,5.694,0,0,0-1.9.756c-.532.432-.752,1.355-.212,1.779s1.556.109,1.924.708c.226.366.047.862.22,1.255.518,1.183,2.636-.327,3.564.571.613.595.035,1.7-.758,2.016a16.142,16.142,0,0,1-2.526.372,6.814,6.814,0,0,0-2.982,1.93l-5.007,4.679a6.1,6.1,0,0,1-1.908,1.368,8.733,8.733,0,0,1-3.62.076c-1.216-.072-2.638.2-3.21,1.274-.669,1.256.209,2.75,1.058,3.894.523.7,1.211,1.485,2.085,1.4.9-.088,1.419-1.033,1.91-1.8a17.115,17.115,0,0,1,3.852-3.857,4.628,4.628,0,0,1,2.5-1.277c1.041-.058,2.022.591,3.064.547.931-.039,1.854-.627,2.741-.341a2.959,2.959,0,0,1,.865.52l2.124,1.638c1.046.808,2.216,1.966,1.829,3.23-.193.632-.76,1.313-.382,1.856.4.57,1.356.155,1.656-.471s.282-1.38.641-1.975l1.522,1.6a12.732,12.732,0,0,0-2.869-6.114,1.659,1.659,0,0,1,2.124.371,7.966,7.966,0,0,1,1.156,2.055,8.183,8.183,0,0,0,2.58,3.019,1.234,1.234,0,0,0,.752.3c.675-.038.858-.932.9-1.606s.432-1.562,1.085-1.39a6.237,6.237,0,0,0,2.542,3.541,4.211,4.211,0,0,0,4.235.2c2.29-1.322,2.378-4.578,1.875-7.173a21.714,21.714,0,0,0-5.408-11.231c-2.959-3-8.519-8.972-12.629-8.037" transform="translate(-930.521 -336.321)"/><path class="m" d="M1082.831,407.228c-2.291-2.359-6.619-.158-9.438-1.851-.794-.477-1.393-1.23-2.181-1.719a2.027,2.027,0,0,0-2.547.081,6.128,6.128,0,0,0-.419.665c-1.057,1.621-3.493,1.249-5.342.685-1.285-.392-2.816-1.082-2.88-2.423-.024-.485.168-.97.1-1.451-.171-1.158-1.727-1.565-2.833-1.184s-1.99,1.241-3.077,1.674c-1.785.714-3.791.187-5.713.137s-4.232.767-4.559,2.662a6.049,6.049,0,0,1-.236,1.548,2.962,2.962,0,0,1-1.284,1.135,17.571,17.571,0,0,0-6.023,6.1c.476.741,2.05.064,2.316.9.156.491-.374.894-.763,1.23-1.781,1.539-1.4,4.392-.558,6.588a12.631,12.631,0,0,0,3.372,5.191,6.459,6.459,0,0,0,5.813,1.5,19.924,19.924,0,0,0,3.362-1.709,4.19,4.19,0,0,1,3.624-.391c.793.378,1.355,1.143,2.157,1.5,1.569.7,4.021-.059,4.68,1.529.458,1.105-.559,2.273-.595,3.469a4.645,4.645,0,0,0,1.534,2.931,14.411,14.411,0,0,1,2.91,4.674,6.736,6.736,0,0,1-.279,5.373c-.77,1.389-2.222,2.847-1.526,4.274a10.552,10.552,0,0,0,1.1,1.35c1.1,1.547.173,3.809.955,5.542.433.957,1.345,1.643,1.731,2.62a8.807,8.807,0,0,1,.248,2.91,2.659,2.659,0,0,0,1.289,2.462,2.727,2.727,0,0,0,2.245-.331,12.742,12.742,0,0,0,5.247-5.79,54.679,54.679,0,0,0,2.715-7.459c3.656-11.153,9.672-21.469,12.751-32.8.722-2.656,1.267-5.542.276-8.11s-4.087-4.492-6.565-3.293" transform="translate(-930.753 -335.034)"/><path class="n" d="M1052.024,387.306a3.1,3.1,0,0,1-.9,1.48,1.066,1.066,0,0,1-1.536-.182,1.542,1.542,0,0,1-.135-.6q-.291-3.337-.582-6.674a1.14,1.14,0,0,1,.028-.485.787.787,0,0,1,1.094-.3,2.271,2.271,0,0,1,.822.963c1.148,2.012,2.294,4.56,1.038,6.506" transform="translate(-930.125 -336.015)"/><path class="o" d="M1047.314,385.205a1.483,1.483,0,1,0,1.39,1.533,1.587,1.587,0,0,0-2.494-1.2" transform="translate(-930.279 -335.775)"/></g></g></g></svg>