<svg xmlns="http://www.w3.org/2000/svg" width="151.667" height="138.317" viewBox="0 0 151.667 138.317"><g transform="translate(-167 -560)"><g transform="translate(-853.976 76.74)"><g transform="translate(1144.619 499.93)"><circle cx="4.597" cy="4.597" r="4.597" transform="translate(0)"/></g><g transform="translate(1082.084 583.209)"><g transform="translate(0 0)"><path d="M1118.372,631.195v28.362a5,5,0,1,1-10.006,0V631.195a5,5,0,0,1,7.342-4.419,5.116,5.116,0,0,1,1.2.881A5.013,5.013,0,0,1,1118.372,631.195Z" transform="translate(-1108.366 -626.195)" fill="#998675"/></g><g transform="translate(4.671 0.58)"><path d="M1120.381,631.444v28.362a5,5,0,0,1-2.664,4.426,4.829,4.829,0,0,1-1.2-.888,4.978,4.978,0,0,1-1.468-3.538V631.444a5,5,0,0,1,2.671-4.419,5.121,5.121,0,0,1,1.2.881A5.013,5.013,0,0,1,1120.381,631.444Z" transform="translate(-1115.046 -627.025)" fill="#736357"/></g></g><g transform="translate(1156.656 538.312)"><g transform="translate(0 0)"><path d="M1225.017,566.989v28.362a5,5,0,1,1-10.006,0V566.989a5,5,0,0,1,7.342-4.419,5.12,5.12,0,0,1,1.2.881A5.013,5.013,0,0,1,1225.017,566.989Z" transform="translate(-1215.011 -561.989)" fill="#998675"/></g><g transform="translate(4.671 0.58)"><path d="M1227.026,567.238V595.6a5,5,0,0,1-2.664,4.426,4.832,4.832,0,0,1-1.2-.888,4.977,4.977,0,0,1-1.468-3.538V567.238a5,5,0,0,1,2.671-4.419,5.12,5.12,0,0,1,1.2.881A5.013,5.013,0,0,1,1227.026,567.238Z" transform="translate(-1221.691 -562.819)" fill="#736357"/></g></g><g transform="translate(1023.689 547.721)"><g transform="translate(0 0)"><path d="M1034.862,580.445v28.362a5,5,0,1,1-10.006,0V580.445a5,5,0,0,1,7.342-4.419,5.116,5.116,0,0,1,1.2.881A5.013,5.013,0,0,1,1034.862,580.445Z" transform="translate(-1024.856 -575.445)" fill="#998675"/></g><g transform="translate(4.671 0.58)"><path d="M1036.871,580.694v28.362a5,5,0,0,1-2.664,4.426,4.832,4.832,0,0,1-1.2-.888,4.978,4.978,0,0,1-1.468-3.538V580.694a5,5,0,0,1,2.671-4.419,5.116,5.116,0,0,1,1.2.881A5.012,5.012,0,0,1,1036.871,580.694Z" transform="translate(-1031.536 -576.275)" fill="#736357"/></g></g><g transform="translate(1020.976 497.177)"><g transform="translate(0 7.692)"><path d="M1081.858,608.447,1026,574.313a9.98,9.98,0,0,1,.357-17.24l74.553-41.419a9.979,9.979,0,0,1,9.747.03l56.8,32.016a9.98,9.98,0,0,1,.085,17.34l-75.5,43.537A9.979,9.979,0,0,1,1081.858,608.447Z" transform="translate(-1021.051 -514.233)" fill="#f2f2f2"/><path d="M1086.986,610.016a10.138,10.138,0,0,1-5.295-1.491l-55.857-34.134a10.155,10.155,0,0,1,.364-17.542l74.554-41.418a10.22,10.22,0,0,1,9.918.031l56.8,32.016a10.155,10.155,0,0,1,.087,17.644l-75.5,43.536A10.15,10.15,0,0,1,1086.986,610.016Zm-5.114-1.788a9.8,9.8,0,0,0,10.012.127l75.5-43.536a9.8,9.8,0,0,0-.084-17.036l-56.8-32.016a9.869,9.869,0,0,0-9.576-.029l-74.554,41.419a9.8,9.8,0,0,0-.352,16.937Z" transform="translate(-1020.976 -514.162)"/></g><path d="M1081.858,597.447,1026,563.313a9.98,9.98,0,0,1,.357-17.24l74.553-41.418a9.979,9.979,0,0,1,9.747.03l56.8,32.016a9.98,9.98,0,0,1,.085,17.34l-75.5,43.536A9.979,9.979,0,0,1,1081.858,597.447Z" transform="translate(-1021.051 -503.233)" fill="#f2f2f2"/><path d="M1086.986,599.016a10.138,10.138,0,0,1-5.295-1.491l-55.857-34.134a10.155,10.155,0,0,1,.364-17.542l74.554-41.418a10.22,10.22,0,0,1,9.918.031l56.8,32.016a10.155,10.155,0,0,1,.087,17.644l-75.5,43.536A10.151,10.151,0,0,1,1086.986,599.016Zm-5.114-1.788a9.805,9.805,0,0,0,10.012.127l75.5-43.536a9.8,9.8,0,0,0-.084-17.036l-56.8-32.016a9.869,9.869,0,0,0-9.576-.029l-74.554,41.419a9.8,9.8,0,0,0-.352,16.937Z" transform="translate(-1020.976 -503.162)"/></g><g transform="translate(1141.126 510.291)"><path d="M1213.444,522.315v23.076l-8.391,4.895L1193.166,532.1Z" transform="translate(-1192.911 -522.037)" fill="#f2f2f2"/><path d="M1204.888,550.4l-.091-.139-12-18.347,20.708-10v23.454Zm-11.577-18.344L1205,549.931l8.161-4.76v-22.7Z" transform="translate(-1192.801 -521.917)"/></g><g transform="translate(1043.075 522.574)"><path d="M1052.829,539.733v23.432l8.916,6.609,13-17.746Z" transform="translate(-1052.654 -539.558)" fill="#f2f2f2"/><path d="M1061.67,569.873a.171.171,0,0,1-.1-.034l-8.916-6.609a.174.174,0,0,1-.071-.141V539.657a.175.175,0,0,1,.26-.152l21.913,12.3a.169.169,0,0,1,.085.115.173.173,0,0,1-.029.14l-13,17.746a.171.171,0,0,1-.115.069ZM1052.929,563l8.7,6.452,12.776-17.445-21.48-12.053Z" transform="translate(-1052.579 -539.483)"/></g><g transform="translate(1025.829 550.253)"><path d="M1028.166,586.019v-3.207l7.692,4.895v-8.391l47.549,28.67v6.993l3.5,2.1v4.408" transform="translate(-1027.991 -579.141)" fill="#f2f2f2"/><path d="M1086.828,621.583a.175.175,0,0,1-.175-.175V617.1l-3.412-2.047a.176.176,0,0,1-.085-.15v-6.893l-47.2-28.459v8.081a.175.175,0,0,1-.091.153.171.171,0,0,1-.178-.006l-7.423-4.724v2.889a.175.175,0,0,1-.35,0v-3.208a.175.175,0,0,1,.091-.152.169.169,0,0,1,.178,0l7.423,4.724V579.24a.175.175,0,0,1,.089-.152.173.173,0,0,1,.176,0l47.55,28.67a.173.173,0,0,1,.084.149V614.8l3.412,2.047a.175.175,0,0,1,.085.15v4.408A.175.175,0,0,1,1086.828,621.583Z" transform="translate(-1027.916 -579.065)"/></g><g transform="translate(1033.52 544.658)"><path d="M1039.166,576.909l12.587-5.594,46.85,28.67-11.887,5.594Z" transform="translate(-1038.991 -571.14)" fill="#f2f2f2"/><path d="M1086.64,605.678a.166.166,0,0,1-.09-.025L1039,576.983a.174.174,0,0,1,.019-.309l12.587-5.594a.171.171,0,0,1,.163.011l46.85,28.67a.173.173,0,0,1,.083.158.177.177,0,0,1-.1.149l-11.887,5.594A.173.173,0,0,1,1086.64,605.678Zm-47.172-28.821,47.182,28.448,11.509-5.416-46.5-28.452Z" transform="translate(-1038.916 -571.065)"/></g><g transform="translate(1045.918 539.764)"><path d="M1056.9,582.146l14.873-17.831L1095.544,579l-13.474,18.53Z" transform="translate(-1056.721 -564.14)" fill="#f2f2f2"/><path d="M1081.994,597.629a.164.164,0,0,1-.09-.026l-25.173-15.384a.174.174,0,0,1-.082-.12.178.178,0,0,1,.038-.141l14.873-17.831a.175.175,0,0,1,.227-.036l23.775,14.684a.179.179,0,0,1,.079.115.173.173,0,0,1-.03.136l-13.474,18.53A.177.177,0,0,1,1081.994,597.629Zm-24.909-15.6,24.863,15.194,13.269-18.246-23.486-14.506Z" transform="translate(-1056.646 -564.065)"/></g><g transform="translate(1092.958 528.737)"><path d="M1129.76,601.528l57.339-32.865V548.545l-57.146,33.874v19.109l-5.787-2.8v-5.244" transform="translate(-1123.991 -548.371)" fill="#f2f2f2"/><path d="M1129.685,601.628a.172.172,0,0,1-.152-.088.184.184,0,0,1-.022-.069l-5.5-2.657a.174.174,0,0,1-.1-.157v-5.244a.175.175,0,0,1,.35,0v5.135l5.437,2.629v-18.83a.176.176,0,0,1,.085-.15l57.147-33.873a.175.175,0,0,1,.264.15v20.117a.175.175,0,0,1-.088.152l-57.059,32.705v.008a.175.175,0,0,1-.082.148.167.167,0,0,1-.168.009l-.022-.01-.008,0A.17.17,0,0,1,1129.685,601.628Zm.367-19.183v18.6l56.8-32.555v-19.71Z" transform="translate(-1123.916 -548.295)"/></g><g transform="translate(1043.072 483.26)"><g transform="translate(0.052 5.793)"><path d="M1169.525,526.905a2.164,2.164,0,0,1,.024,3.763L1109.14,565.5a1.278,1.278,0,0,1-1.294-.014l-54.388-33.243c-.832-.5-.532-4.964-.328-6.08l3.433,2.192,65.527-36.4a1.277,1.277,0,0,1,1.238,0l42.913,24.187-7.566,4.685,9.076,5.084Z" transform="translate(-1052.727 -491.62)" fill="#f2f2f2"/><path d="M1108.426,565.772a1.434,1.434,0,0,1-.747-.208l-54.389-33.243c-1.013-.612-.555-5.457-.409-6.26a.177.177,0,0,1,.1-.129.181.181,0,0,1,.164.013l3.345,2.136,65.437-36.352a1.441,1.441,0,0,1,1.406,0l42.916,24.188a.173.173,0,0,1,.089.149.176.176,0,0,1-.082.152l-7.314,4.529,10.591,5.931a2.339,2.339,0,0,1,.026,4.068l-60.409,34.836A1.468,1.468,0,0,1,1108.426,565.772Zm-55.243-39.39c-.231,1.6-.327,5.268.289,5.641l54.388,33.243a1.106,1.106,0,0,0,1.117.01l60.408-34.835a1.989,1.989,0,0,0-.022-3.459l-10.85-6.077a.175.175,0,0,1-.007-.3l7.315-4.53-42.656-24.042a1.094,1.094,0,0,0-1.066,0l-65.529,36.4a.173.173,0,0,1-.179-.006Z" transform="translate(-1052.651 -491.545)"/></g><path d="M1158.652,518.337l9.076,5.084-58.612,33.8a1.262,1.262,0,0,1-1.294-.014l-51.284-31.334-3.1-1.9a1.266,1.266,0,0,1,.042-2.189l68.59-38.11a1.277,1.277,0,0,1,1.238.007l47.808,26.949-4.895,3.028Z" transform="translate(-1052.651 -483.336)" fill="#f2f2f2"/><path d="M1108.4,557.486a1.39,1.39,0,0,1-.743-.212l-54.388-33.235a1.441,1.441,0,0,1,.049-2.49l68.59-38.11a1.444,1.444,0,0,1,1.407.007l47.809,26.949a.173.173,0,0,1,.089.149.176.176,0,0,1-.082.152l-12.209,7.557,8.818,4.938a.175.175,0,0,1,0,.3l-58.612,33.8A1.481,1.481,0,0,1,1108.4,557.486Zm14.207-73.877a1.1,1.1,0,0,0-.53.136l-68.59,38.109a1.091,1.091,0,0,0-.035,1.887l3.1,1.9,51.282,31.334a1.1,1.1,0,0,0,1.117.01l58.345-33.641-8.808-4.933a.174.174,0,0,1-.007-.3l12.21-7.558-47.551-26.8A1.1,1.1,0,0,0,1122.605,483.61Z" transform="translate(-1052.576 -483.26)"/></g><g transform="translate(1071.092 554.448)"><path d="M1106.371,585.315V599.06l-13.474,4.785Z" transform="translate(-1092.722 -585.14)" fill="#f2f2f2"/><path d="M1092.821,603.945a.175.175,0,0,1-.141-.278l13.475-18.53a.17.17,0,0,1,.2-.063.173.173,0,0,1,.121.166v13.745a.174.174,0,0,1-.116.164l-13.475,4.786A.168.168,0,0,1,1092.821,603.945Zm13.3-18.167-12.827,17.639,12.827-4.556Z" transform="translate(-1092.647 -585.064)"/></g><g transform="translate(1081.07 578.922)"><line y1="6.993" x2="12.264" transform="translate(0.175 0.175)" fill="#f2f2f2"/><path d="M1107.091,627.407a.174.174,0,0,1-.087-.326l12.264-6.993a.172.172,0,0,1,.238.064.175.175,0,0,1-.065.239l-12.264,6.993A.17.17,0,0,1,1107.091,627.407Z" transform="translate(-1106.916 -620.064)"/></g><g transform="translate(1087.484 582.755)"><ellipse cx="3.927" cy="1.99" rx="3.927" ry="1.99" transform="translate(0.35 0.35)" fill="#f2f2f2"/><path d="M1120.365,630.225c-2.4,0-4.276-1.027-4.276-2.339s1.878-2.34,4.276-2.34,4.276,1.028,4.276,2.34S1122.763,630.225,1120.365,630.225Zm0-3.98c-2.108,0-3.577.864-3.577,1.641s1.469,1.64,3.577,1.64,3.577-.864,3.577-1.64S1122.473,626.245,1120.365,626.245Z" transform="translate(-1116.089 -625.546)"/></g><g transform="translate(1077.479 571.162)"><ellipse cx="3.927" cy="1.99" rx="3.927" ry="1.99" transform="translate(0.35 0.35)"/><path d="M1106.057,613.646c-2.4,0-4.276-1.028-4.276-2.34s1.879-2.34,4.276-2.34,4.277,1.028,4.277,2.34S1108.455,613.646,1106.057,613.646Zm0-3.98c-2.108,0-3.577.864-3.577,1.641s1.469,1.64,3.577,1.64,3.577-.864,3.577-1.64S1108.165,609.666,1106.057,609.666Z" transform="translate(-1101.781 -608.967)" fill="#f2f2f2"/></g><g transform="translate(1063.283 524.35)"><g transform="translate(0 0)"><g transform="translate(0 1.69)"><ellipse cx="2.937" cy="1.489" rx="2.937" ry="1.489" transform="translate(0.131 0.131)" fill="#f2f2f2"/><path d="M1084.547,547.677c-1.72,0-3.068-.71-3.068-1.619s1.347-1.62,3.068-1.62,3.068.711,3.068,1.62S1086.267,547.677,1084.547,547.677Zm0-2.977c-1.522,0-2.806.622-2.806,1.358s1.285,1.358,2.806,1.358,2.807-.622,2.807-1.358S1086.068,544.7,1084.547,544.7Z" transform="translate(-1081.479 -544.439)"/></g><g transform="translate(0 1.489)"><path d="M1081.666,545.947v-1.609h5.874v1.69" transform="translate(-1081.535 -544.207)" fill="#f2f2f2"/><path d="M1087.484,546.1a.13.13,0,0,1-.13-.13v-1.56h-5.613v1.48a.131.131,0,0,1-.261,0v-1.61a.131.131,0,0,1,.131-.131h5.874a.13.13,0,0,1,.131.131v1.69A.13.13,0,0,1,1087.484,546.1Z" transform="translate(-1081.479 -544.151)"/></g><ellipse cx="2.937" cy="1.489" rx="2.937" ry="1.489" transform="translate(0.131 0.131)" fill="#f2f2f2"/><path d="M1084.547,545.26c-1.72,0-3.068-.711-3.068-1.619s1.347-1.62,3.068-1.62,3.068.711,3.068,1.62S1086.267,545.26,1084.547,545.26Zm0-2.977c-1.522,0-2.806.622-2.806,1.358s1.285,1.358,2.806,1.358,2.807-.622,2.807-1.358S1086.068,542.284,1084.547,542.284Z" transform="translate(-1081.479 -542.022)"/></g><g transform="translate(6.455 4.71)"><g transform="translate(0 1.689)"><ellipse cx="2.937" cy="1.489" rx="2.937" ry="1.489" transform="translate(0.13 0.131)" fill="#f2f2f2"/><path d="M1093.778,554.411c-1.72,0-3.068-.711-3.068-1.62s1.347-1.619,3.068-1.619,3.067.71,3.067,1.619S1095.5,554.411,1093.778,554.411Zm0-2.977c-1.522,0-2.807.622-2.807,1.358s1.285,1.359,2.807,1.359,2.806-.622,2.806-1.359S1095.3,551.434,1093.778,551.434Z" transform="translate(-1090.71 -551.173)"/></g><g transform="translate(0 1.489)"><path d="M1090.9,552.681v-1.609h5.874v1.69" transform="translate(-1090.766 -550.942)" fill="#f2f2f2"/><path d="M1096.714,552.836a.13.13,0,0,1-.131-.131v-1.559h-5.613v1.479a.13.13,0,1,1-.261,0v-1.61a.13.13,0,0,1,.13-.13h5.874a.13.13,0,0,1,.13.13v1.689A.13.13,0,0,1,1096.714,552.836Z" transform="translate(-1090.71 -550.886)"/></g><ellipse cx="2.937" cy="1.489" rx="2.937" ry="1.489" transform="translate(0.13 0.13)" fill="#f2f2f2"/><path d="M1093.778,552c-1.72,0-3.068-.711-3.068-1.619s1.347-1.619,3.068-1.619,3.067.71,3.067,1.619S1095.5,552,1093.778,552Zm0-2.977c-1.522,0-2.807.622-2.807,1.358s1.285,1.359,2.807,1.359,2.806-.622,2.806-1.359S1095.3,549.018,1093.778,549.018Z" transform="translate(-1090.71 -548.757)"/></g><g transform="translate(13.394 8.733)"><g transform="translate(0 1.689)"><ellipse cx="2.937" cy="1.489" rx="2.937" ry="1.489" transform="translate(0.13 0.131)" fill="#f2f2f2"/><path d="M1103.7,560.165c-1.72,0-3.068-.711-3.068-1.62s1.347-1.619,3.068-1.619,3.068.71,3.068,1.619S1105.421,560.165,1103.7,560.165Zm0-2.977c-1.522,0-2.807.622-2.807,1.358s1.285,1.359,2.807,1.359,2.807-.622,2.807-1.359S1105.221,557.188,1103.7,557.188Z" transform="translate(-1100.633 -556.927)"/></g><g transform="translate(0 1.489)"><path d="M1100.82,558.435v-1.609h5.874v1.69" transform="translate(-1100.689 -556.696)" fill="#f2f2f2"/><path d="M1106.638,558.59a.13.13,0,0,1-.131-.131V556.9h-5.614v1.479a.13.13,0,0,1-.261,0v-1.61a.13.13,0,0,1,.13-.13h5.875a.13.13,0,0,1,.13.13v1.689A.13.13,0,0,1,1106.638,558.59Z" transform="translate(-1100.633 -556.64)"/></g><ellipse cx="2.937" cy="1.489" rx="2.937" ry="1.489" transform="translate(0.13 0.13)" fill="#f2f2f2"/><path d="M1103.7,557.749c-1.72,0-3.068-.711-3.068-1.619s1.347-1.619,3.068-1.619,3.068.71,3.068,1.619S1105.421,557.749,1103.7,557.749Zm0-2.977c-1.522,0-2.807.622-2.807,1.358s1.285,1.359,2.807,1.359,2.807-.622,2.807-1.359S1105.221,554.772,1103.7,554.772Z" transform="translate(-1100.633 -554.511)"/></g><g transform="translate(20.736 12.638)"><g transform="translate(0 1.69)"><ellipse cx="2.937" cy="1.489" rx="2.937" ry="1.489" transform="translate(0.13 0.13)" fill="#f2f2f2"/><path d="M1114.2,565.751c-1.72,0-3.068-.711-3.068-1.619s1.347-1.619,3.068-1.619,3.068.71,3.068,1.619S1115.921,565.751,1114.2,565.751Zm0-2.977c-1.521,0-2.807.622-2.807,1.358s1.285,1.359,2.807,1.359,2.807-.622,2.807-1.359S1115.722,562.774,1114.2,562.774Z" transform="translate(-1111.133 -562.513)"/></g><g transform="translate(0 1.489)"><path d="M1111.32,564.021v-1.609h5.874v1.69" transform="translate(-1111.189 -562.281)" fill="#f2f2f2"/><path d="M1117.138,564.176a.13.13,0,0,1-.131-.131v-1.559h-5.614v1.479a.13.13,0,0,1-.261,0v-1.61a.13.13,0,0,1,.13-.13h5.875a.13.13,0,0,1,.13.13v1.69A.13.13,0,0,1,1117.138,564.176Z" transform="translate(-1111.133 -562.225)"/></g><ellipse cx="2.937" cy="1.489" rx="2.937" ry="1.489" transform="translate(0.13 0.13)" fill="#f2f2f2"/><path d="M1114.2,563.334c-1.72,0-3.068-.711-3.068-1.619s1.347-1.619,3.068-1.619,3.068.71,3.068,1.619S1115.921,563.334,1114.2,563.334Zm0-2.977c-1.521,0-2.807.622-2.807,1.358s1.285,1.359,2.807,1.359,2.807-.622,2.807-1.359S1115.722,560.357,1114.2,560.357Z" transform="translate(-1111.133 -560.096)"/></g><g transform="translate(28.086 17.146)"><g transform="translate(0 1.69)"><ellipse cx="2.937" cy="1.489" rx="2.937" ry="1.489" transform="translate(0.13 0.13)" fill="#f2f2f2"/><path d="M1124.711,572.2c-1.72,0-3.067-.711-3.067-1.62s1.347-1.619,3.067-1.619,3.068.711,3.068,1.619S1126.432,572.2,1124.711,572.2Zm0-2.977c-1.522,0-2.806.622-2.806,1.358s1.284,1.359,2.806,1.359,2.807-.622,2.807-1.359S1126.233,569.22,1124.711,569.22Z" transform="translate(-1121.644 -568.959)"/></g><g transform="translate(0 1.489)"><path d="M1121.83,570.467v-1.609h5.874v1.69" transform="translate(-1121.7 -568.727)" fill="#f2f2f2"/><path d="M1127.649,570.622a.13.13,0,0,1-.13-.131v-1.559H1121.9v1.479a.13.13,0,1,1-.261,0V568.8a.13.13,0,0,1,.13-.13h5.875a.13.13,0,0,1,.131.13v1.69A.13.13,0,0,1,1127.649,570.622Z" transform="translate(-1121.644 -568.671)"/></g><ellipse cx="2.937" cy="1.489" rx="2.937" ry="1.489" transform="translate(0.13 0.131)" fill="#f2f2f2"/><path d="M1124.711,569.78c-1.72,0-3.067-.711-3.067-1.619s1.347-1.619,3.067-1.619,3.068.711,3.068,1.619S1126.432,569.78,1124.711,569.78Zm0-2.977c-1.522,0-2.806.622-2.806,1.358s1.284,1.359,2.806,1.359,2.807-.622,2.807-1.359S1126.233,566.8,1124.711,566.8Z" transform="translate(-1121.644 -566.542)"/></g></g><g transform="translate(1069.976 520.003)"><g transform="translate(0 0)"><g transform="translate(0 1.689)"><ellipse cx="2.937" cy="1.489" rx="2.937" ry="1.489" transform="translate(0.13 0.13)" fill="#f2f2f2"/><path d="M1094.119,541.459c-1.72,0-3.068-.711-3.068-1.619s1.348-1.619,3.068-1.619,3.067.71,3.067,1.619S1095.838,541.459,1094.119,541.459Zm0-2.977c-1.522,0-2.807.622-2.807,1.358s1.285,1.359,2.807,1.359,2.806-.622,2.806-1.359S1095.64,538.482,1094.119,538.482Z" transform="translate(-1091.051 -538.221)"/></g><g transform="translate(0 1.489)"><path d="M1091.237,539.729V538.12h5.874v1.69" transform="translate(-1091.107 -537.99)" fill="#f2f2f2"/><path d="M1097.056,539.884a.13.13,0,0,1-.131-.131v-1.559h-5.613v1.478a.13.13,0,0,1-.261,0v-1.609a.13.13,0,0,1,.13-.13h5.874a.13.13,0,0,1,.13.13v1.689A.13.13,0,0,1,1097.056,539.884Z" transform="translate(-1091.051 -537.934)"/></g><ellipse cx="2.937" cy="1.489" rx="2.937" ry="1.489" transform="translate(0.13 0.13)" fill="#f2f2f2"/><path d="M1094.119,539.043c-1.72,0-3.068-.711-3.068-1.619s1.348-1.619,3.068-1.619,3.067.71,3.067,1.619S1095.838,539.043,1094.119,539.043Zm0-2.977c-1.522,0-2.807.622-2.807,1.358s1.285,1.359,2.807,1.359,2.806-.622,2.806-1.359S1095.64,536.066,1094.119,536.066Z" transform="translate(-1091.051 -535.805)"/></g><g transform="translate(6.454 4.708)"><g transform="translate(0 1.69)"><ellipse cx="2.937" cy="1.489" rx="2.937" ry="1.489" transform="translate(0.131 0.13)" fill="#f2f2f2"/><path d="M1103.349,548.193c-1.72,0-3.068-.711-3.068-1.619s1.348-1.619,3.068-1.619,3.068.711,3.068,1.619S1105.069,548.193,1103.349,548.193Zm0-2.977c-1.522,0-2.807.622-2.807,1.359s1.285,1.358,2.807,1.358,2.807-.622,2.807-1.358S1104.87,545.216,1103.349,545.216Z" transform="translate(-1100.281 -544.955)"/></g><g transform="translate(0 1.489)"><path d="M1100.468,546.463v-1.609h5.874v1.69" transform="translate(-1100.337 -544.723)" fill="#f2f2f2"/><path d="M1106.286,546.618a.13.13,0,0,1-.13-.13v-1.56h-5.614v1.479a.13.13,0,1,1-.261,0V544.8a.13.13,0,0,1,.131-.131h5.875a.13.13,0,0,1,.131.131v1.69A.13.13,0,0,1,1106.286,546.618Z" transform="translate(-1100.281 -544.667)"/></g><ellipse cx="2.937" cy="1.489" rx="2.937" ry="1.489" transform="translate(0.131 0.131)" fill="#f2f2f2"/><path d="M1103.349,545.776c-1.72,0-3.068-.711-3.068-1.619s1.348-1.62,3.068-1.62,3.068.711,3.068,1.62S1105.069,545.776,1103.349,545.776Zm0-2.977c-1.522,0-2.807.622-2.807,1.359s1.285,1.358,2.807,1.358,2.807-.622,2.807-1.358S1104.87,542.8,1103.349,542.8Z" transform="translate(-1100.281 -542.538)"/></g><g transform="translate(13.394 8.732)"><g transform="translate(0 1.69)"><ellipse cx="2.937" cy="1.489" rx="2.937" ry="1.489" transform="translate(0.13 0.13)" fill="#f2f2f2"/><path d="M1113.273,553.947c-1.72,0-3.068-.711-3.068-1.619s1.347-1.619,3.068-1.619,3.068.711,3.068,1.619S1114.993,553.947,1113.273,553.947Zm0-2.977c-1.522,0-2.807.622-2.807,1.358s1.285,1.359,2.807,1.359,2.806-.622,2.806-1.359S1114.794,550.97,1113.273,550.97Z" transform="translate(-1110.205 -550.709)"/></g><g transform="translate(0 1.489)"><path d="M1110.391,552.217v-1.609h5.874v1.69" transform="translate(-1110.261 -550.477)" fill="#f2f2f2"/><path d="M1116.21,552.372a.13.13,0,0,1-.131-.131v-1.559h-5.613v1.479a.13.13,0,1,1-.261,0v-1.61a.13.13,0,0,1,.131-.13h5.874a.13.13,0,0,1,.131.13v1.69A.13.13,0,0,1,1116.21,552.372Z" transform="translate(-1110.205 -550.421)"/></g><ellipse cx="2.937" cy="1.489" rx="2.937" ry="1.489" transform="translate(0.13 0.131)" fill="#f2f2f2"/><path d="M1113.273,551.53c-1.72,0-3.068-.711-3.068-1.62s1.347-1.619,3.068-1.619,3.068.711,3.068,1.619S1114.993,551.53,1113.273,551.53Zm0-2.977c-1.522,0-2.807.622-2.807,1.358s1.285,1.359,2.807,1.359,2.806-.622,2.806-1.359S1114.794,548.553,1113.273,548.553Z" transform="translate(-1110.205 -548.292)"/></g><g transform="translate(20.736 12.638)"><g transform="translate(0 1.689)"><ellipse cx="2.937" cy="1.489" rx="2.937" ry="1.489" transform="translate(0.13 0.131)" fill="#f2f2f2"/><path d="M1123.773,559.532c-1.72,0-3.068-.711-3.068-1.619s1.348-1.619,3.068-1.619,3.068.711,3.068,1.619S1125.493,559.532,1123.773,559.532Zm0-2.977c-1.522,0-2.807.622-2.807,1.358s1.285,1.359,2.807,1.359,2.806-.622,2.806-1.359S1125.294,556.555,1123.773,556.555Z" transform="translate(-1120.705 -556.294)"/></g><g transform="translate(0 1.489)"><path d="M1120.891,557.8v-1.609h5.874v1.69" transform="translate(-1120.761 -556.063)" fill="#f2f2f2"/><path d="M1126.71,557.957a.13.13,0,0,1-.131-.131v-1.559h-5.613v1.478a.13.13,0,1,1-.261,0v-1.609a.13.13,0,0,1,.131-.13h5.874a.13.13,0,0,1,.131.13v1.689A.13.13,0,0,1,1126.71,557.957Z" transform="translate(-1120.705 -556.007)"/></g><ellipse cx="2.937" cy="1.489" rx="2.937" ry="1.489" transform="translate(0.13 0.13)" fill="#f2f2f2"/><path d="M1123.773,557.116c-1.72,0-3.068-.711-3.068-1.62s1.348-1.619,3.068-1.619,3.068.711,3.068,1.619S1125.493,557.116,1123.773,557.116Zm0-2.977c-1.522,0-2.807.622-2.807,1.358s1.285,1.359,2.807,1.359,2.806-.622,2.806-1.359S1125.294,554.139,1123.773,554.139Z" transform="translate(-1120.705 -553.878)"/></g><g transform="translate(28.086 17.145)"><g transform="translate(0 1.689)"><ellipse cx="2.937" cy="1.489" rx="2.937" ry="1.489" transform="translate(0.13 0.131)" fill="#f2f2f2"/><path d="M1134.284,565.978c-1.72,0-3.068-.711-3.068-1.619s1.347-1.62,3.068-1.62,3.067.711,3.067,1.62S1136,565.978,1134.284,565.978Zm0-2.977c-1.522,0-2.807.622-2.807,1.359s1.285,1.358,2.807,1.358,2.806-.622,2.806-1.358S1135.8,563,1134.284,563Z" transform="translate(-1131.216 -562.74)"/></g><g transform="translate(0 1.489)"><path d="M1131.4,564.249v-1.609h5.874v1.69" transform="translate(-1131.272 -562.509)" fill="#f2f2f2"/><path d="M1137.221,564.4a.13.13,0,0,1-.131-.13v-1.559h-5.613v1.479a.13.13,0,1,1-.261,0v-1.609a.13.13,0,0,1,.13-.131h5.875a.13.13,0,0,1,.13.131v1.689A.13.13,0,0,1,1137.221,564.4Z" transform="translate(-1131.216 -562.453)"/></g><ellipse cx="2.937" cy="1.489" rx="2.937" ry="1.489" transform="translate(0.13 0.13)" fill="#f2f2f2"/><path d="M1134.284,563.562c-1.72,0-3.068-.711-3.068-1.619s1.347-1.62,3.068-1.62,3.067.711,3.067,1.62S1136,563.562,1134.284,563.562Zm0-2.977c-1.522,0-2.807.622-2.807,1.359s1.285,1.358,2.807,1.358,2.806-.622,2.806-1.358S1135.8,560.585,1134.284,560.585Z" transform="translate(-1131.216 -560.324)"/></g></g><g transform="translate(1077.668 516.622)"><g transform="translate(0 0)"><g transform="translate(0 1.69)"><ellipse cx="2.937" cy="1.489" rx="2.937" ry="1.489" transform="translate(0.13 0.13)" fill="#f2f2f2"/><path d="M1105.119,536.626c-1.72,0-3.068-.711-3.068-1.619s1.348-1.619,3.068-1.619,3.067.71,3.067,1.619S1106.838,536.626,1105.119,536.626Zm0-2.977c-1.522,0-2.807.622-2.807,1.358s1.285,1.359,2.807,1.359,2.806-.622,2.806-1.359S1106.64,533.649,1105.119,533.649Z" transform="translate(-1102.051 -533.388)"/></g><g transform="translate(0 1.489)"><path d="M1102.237,534.9v-1.609h5.874v1.69" transform="translate(-1102.107 -533.156)" fill="#f2f2f2"/><path d="M1108.056,535.051a.13.13,0,0,1-.131-.131v-1.559h-5.613v1.479a.13.13,0,0,1-.261,0v-1.61a.13.13,0,0,1,.13-.13h5.874a.13.13,0,0,1,.13.13v1.69A.13.13,0,0,1,1108.056,535.051Z" transform="translate(-1102.051 -533.1)"/></g><ellipse cx="2.937" cy="1.489" rx="2.937" ry="1.489" transform="translate(0.13 0.13)" fill="#f2f2f2"/><path d="M1105.119,534.209c-1.72,0-3.068-.711-3.068-1.62s1.348-1.619,3.068-1.619,3.067.71,3.067,1.619S1106.838,534.209,1105.119,534.209Zm0-2.977c-1.522,0-2.807.622-2.807,1.358s1.285,1.359,2.807,1.359,2.806-.622,2.806-1.359S1106.64,531.232,1105.119,531.232Z" transform="translate(-1102.051 -530.971)"/></g><g transform="translate(6.454 4.709)"><g transform="translate(0 1.69)"><ellipse cx="2.937" cy="1.489" rx="2.937" ry="1.489" transform="translate(0.131 0.13)" fill="#f2f2f2"/><path d="M1114.349,543.36c-1.72,0-3.068-.711-3.068-1.619s1.347-1.619,3.068-1.619,3.068.711,3.068,1.619S1116.07,543.36,1114.349,543.36Zm0-2.977c-1.521,0-2.807.622-2.807,1.359s1.285,1.358,2.807,1.358,2.807-.622,2.807-1.358S1115.87,540.383,1114.349,540.383Z" transform="translate(-1111.281 -540.122)"/></g><g transform="translate(0 1.489)"><path d="M1111.468,541.63v-1.609h5.874v1.69" transform="translate(-1111.337 -539.89)" fill="#f2f2f2"/><path d="M1117.286,541.785a.13.13,0,0,1-.13-.13v-1.56h-5.614v1.479a.13.13,0,1,1-.261,0v-1.609a.13.13,0,0,1,.131-.131h5.875a.13.13,0,0,1,.131.131v1.69A.13.13,0,0,1,1117.286,541.785Z" transform="translate(-1111.281 -539.834)"/></g><ellipse cx="2.937" cy="1.489" rx="2.937" ry="1.489" transform="translate(0.131 0.13)" fill="#f2f2f2"/><path d="M1114.349,540.943c-1.72,0-3.068-.711-3.068-1.619s1.347-1.62,3.068-1.62,3.068.711,3.068,1.62S1116.07,540.943,1114.349,540.943Zm0-2.977c-1.521,0-2.807.622-2.807,1.359s1.285,1.358,2.807,1.358,2.807-.622,2.807-1.358S1115.87,537.966,1114.349,537.966Z" transform="translate(-1111.281 -537.705)"/></g><g transform="translate(13.394 8.732)"><g transform="translate(0 1.69)"><ellipse cx="2.937" cy="1.489" rx="2.937" ry="1.489" transform="translate(0.13 0.13)" fill="#f2f2f2"/><path d="M1124.273,549.114c-1.72,0-3.068-.711-3.068-1.62s1.348-1.619,3.068-1.619,3.068.711,3.068,1.619S1125.993,549.114,1124.273,549.114Zm0-2.977c-1.522,0-2.807.622-2.807,1.358s1.285,1.359,2.807,1.359,2.806-.622,2.806-1.359S1125.794,546.137,1124.273,546.137Z" transform="translate(-1121.205 -545.876)"/></g><g transform="translate(0 1.489)"><path d="M1121.391,547.384v-1.609h5.874v1.69" transform="translate(-1121.261 -545.644)" fill="#f2f2f2"/><path d="M1127.21,547.539a.13.13,0,0,1-.131-.131v-1.559h-5.613v1.479a.13.13,0,1,1-.261,0v-1.61a.13.13,0,0,1,.131-.13h5.874a.13.13,0,0,1,.131.13v1.69A.13.13,0,0,1,1127.21,547.539Z" transform="translate(-1121.205 -545.588)"/></g><ellipse cx="2.937" cy="1.489" rx="2.937" ry="1.489" transform="translate(0.13 0.13)" fill="#f2f2f2"/><path d="M1124.273,546.7c-1.72,0-3.068-.711-3.068-1.62s1.348-1.619,3.068-1.619,3.068.711,3.068,1.619S1125.993,546.7,1124.273,546.7Zm0-2.977c-1.522,0-2.807.622-2.807,1.358s1.285,1.359,2.807,1.359,2.806-.622,2.806-1.359S1125.794,543.72,1124.273,543.72Z" transform="translate(-1121.205 -543.459)"/></g><g transform="translate(20.736 12.638)"><g transform="translate(0 1.69)"><ellipse cx="2.937" cy="1.489" rx="2.937" ry="1.489" transform="translate(0.13 0.13)" fill="#f2f2f2"/><path d="M1134.773,554.7c-1.72,0-3.068-.711-3.068-1.619s1.348-1.619,3.068-1.619,3.068.711,3.068,1.619S1136.493,554.7,1134.773,554.7Zm0-2.977c-1.522,0-2.807.622-2.807,1.358s1.285,1.359,2.807,1.359,2.806-.622,2.806-1.359S1136.294,551.722,1134.773,551.722Z" transform="translate(-1131.705 -551.461)"/></g><g transform="translate(0 1.489)"><path d="M1131.891,552.969V551.36h5.874v1.69" transform="translate(-1131.761 -551.229)" fill="#f2f2f2"/><path d="M1137.709,553.124a.13.13,0,0,1-.131-.131v-1.559h-5.613v1.479a.13.13,0,1,1-.261,0V551.3a.13.13,0,0,1,.131-.13h5.874a.13.13,0,0,1,.131.13v1.69A.13.13,0,0,1,1137.709,553.124Z" transform="translate(-1131.705 -551.173)"/></g><ellipse cx="2.937" cy="1.489" rx="2.937" ry="1.489" transform="translate(0.13 0.131)" fill="#f2f2f2"/><path d="M1134.773,552.282c-1.72,0-3.068-.711-3.068-1.619s1.348-1.619,3.068-1.619,3.068.711,3.068,1.619S1136.493,552.282,1134.773,552.282Zm0-2.977c-1.522,0-2.807.622-2.807,1.358s1.285,1.359,2.807,1.359,2.806-.622,2.806-1.359S1136.294,549.3,1134.773,549.3Z" transform="translate(-1131.705 -549.044)"/></g><g transform="translate(28.086 17.146)"><g transform="translate(0 1.689)"><ellipse cx="2.937" cy="1.489" rx="2.937" ry="1.489" transform="translate(0.13 0.131)" fill="#f2f2f2"/><path d="M1145.284,561.145c-1.72,0-3.068-.711-3.068-1.619s1.347-1.62,3.068-1.62,3.067.711,3.067,1.62S1147,561.145,1145.284,561.145Zm0-2.977c-1.522,0-2.807.622-2.807,1.359s1.285,1.358,2.807,1.358,2.806-.622,2.806-1.358S1146.8,558.168,1145.284,558.168Z" transform="translate(-1142.216 -557.907)"/></g><g transform="translate(0 1.489)"><path d="M1142.4,559.416v-1.609h5.874v1.69" transform="translate(-1142.272 -557.676)" fill="#f2f2f2"/><path d="M1148.22,559.57a.13.13,0,0,1-.131-.13v-1.559h-5.613v1.478a.13.13,0,1,1-.261,0v-1.608a.13.13,0,0,1,.13-.131h5.874a.13.13,0,0,1,.13.131v1.689A.13.13,0,0,1,1148.22,559.57Z" transform="translate(-1142.216 -557.62)"/></g><ellipse cx="2.937" cy="1.489" rx="2.937" ry="1.489" transform="translate(0.13 0.13)" fill="#f2f2f2"/><path d="M1145.284,558.729c-1.72,0-3.068-.711-3.068-1.619s1.347-1.62,3.068-1.62,3.067.711,3.067,1.62S1147,558.729,1145.284,558.729Zm0-2.977c-1.522,0-2.807.622-2.807,1.359s1.285,1.358,2.807,1.358,2.806-.622,2.806-1.358S1146.8,555.752,1145.284,555.752Z" transform="translate(-1142.216 -555.491)"/></g></g><g transform="translate(1038.483 547.093)"><g transform="translate(0 2.931)"><ellipse cx="1.385" cy="0.551" rx="1.385" ry="0.551"/></g><g transform="translate(3.133 1.425)"><ellipse cx="1.251" cy="0.43" rx="1.251" ry="0.43"/></g><g transform="translate(6.293 0)"><ellipse cx="1.318" cy="0.471" rx="1.318" ry="0.471"/></g><g transform="translate(2.824 4.249)"><ellipse cx="1.385" cy="0.551" rx="1.385" ry="0.551"/></g><g transform="translate(5.957 2.743)"><ellipse cx="1.251" cy="0.43" rx="1.251" ry="0.43"/></g><g transform="translate(9.117 1.318)"><ellipse cx="1.318" cy="0.471" rx="1.318" ry="0.471"/></g><g transform="translate(5.634 5.581)"><ellipse cx="1.385" cy="0.551" rx="1.385" ry="0.551"/></g><g transform="translate(8.768 4.075)"><ellipse cx="1.251" cy="0.43" rx="1.251" ry="0.43"/></g><g transform="translate(11.928 2.649)"><ellipse cx="1.318" cy="0.471" rx="1.318" ry="0.471"/></g></g><g transform="translate(1121.965 521.587)"><g transform="translate(0 8.343)"><path d="M1176.638,550.643l-10.16,5.574-1.08-.641,10.16-5.574Z" transform="translate(-1165.399 -550.002)"/><g transform="translate(1.767 1.049)"><path d="M1179.165,552.143l-10.16,5.574-1.08-.641,10.16-5.574Z" transform="translate(-1167.926 -551.502)"/></g><g transform="translate(3.534 4.653)"><path d="M1177.036,557.3l-5.5,3.019-1.08-.641,5.5-3.019Z" transform="translate(-1170.453 -556.656)"/></g></g><g transform="translate(18.74 0)"><g transform="translate(0.123)"><path d="M1199.957,538.712l-6.5,3.568-1.08-.641,6.5-3.568Z" transform="translate(-1192.375 -538.071)"/></g><g transform="translate(1.89 1.049)"><path d="M1202.484,540.212l-6.5,3.567-1.08-.641,6.5-3.568Z" transform="translate(-1194.902 -539.571)"/></g><g transform="translate(0 4.653)"><path d="M1198.781,545.367l-5.5,3.019-1.08-.641,5.5-3.019Z" transform="translate(-1192.198 -544.725)"/></g></g></g><g transform="translate(1119.639 493.107)"><g transform="translate(14.28 8.697)"><g transform="translate(0 0.936)"><path d="M1183.713,511.118l9.542,5.811-1.218.572-9.541-5.811Z" transform="translate(-1182.495 -511.118)"/></g><g transform="translate(1.993)"><path d="M1186.563,509.78l9.541,5.811-1.218.572-9.541-5.811Z" transform="translate(-1185.345 -509.78)"/></g><g transform="translate(8.359 1.727)"><path d="M1195.667,512.25l5.168,3.148-1.218.572-5.168-3.148Z" transform="translate(-1194.449 -512.25)"/></g></g><g transform="translate(0)"><g transform="translate(0 0.936)"><path d="M1163.291,498.681l6.106,3.719-1.218.572-6.106-3.719Z" transform="translate(-1162.073 -498.681)"/></g><g transform="translate(1.993)"><path d="M1166.141,497.342l6.106,3.719-1.218.572-6.106-3.719Z" transform="translate(-1164.923 -497.342)"/></g><g transform="translate(8.359 1.727)"><path d="M1175.245,499.813l5.168,3.148-1.218.572-5.168-3.148Z" transform="translate(-1174.027 -499.813)"/></g></g></g><g transform="translate(1105.709 559.916)"><path d="M1142.4,610.835V599.474a8.8,8.8,0,0,1,4.756-5.809c4.088-2.044,4.519,2.486,4.519,2.486v9.369Z" transform="translate(-1142.227 -592.96)" fill="#ccc"/><path d="M1142.327,610.935a.174.174,0,0,1-.175-.175V599.4a9.041,9.041,0,0,1,4.854-5.965,3.33,3.33,0,0,1,3.157-.257,4,4,0,0,1,1.613,2.882v9.386a.175.175,0,0,1-.088.152l-9.275,5.316A.167.167,0,0,1,1142.327,610.935Zm.175-.175h0Zm6.488-17.526a4.178,4.178,0,0,0-1.828.511,8.707,8.707,0,0,0-4.663,5.684l0,11.029,8.925-5.116v-9.269a3.714,3.714,0,0,0-1.435-2.594A2.036,2.036,0,0,0,1148.989,593.234Z" transform="translate(-1142.152 -592.885)"/></g><g transform="translate(1120.862 551.24)"><path d="M1163.821,598.178V586.817a8.8,8.8,0,0,1,4.756-5.809c4.089-2.044,4.518,2.486,4.518,2.486v9.369Z" transform="translate(-1163.821 -580.477)"/></g><g transform="translate(1133.453 551.225)"><g transform="translate(5.6 0)"><g transform="translate(2.039 1.097)"><path d="M1197.6,587.255l-4.641,2.514v-5.028l4.641-2.514Z" transform="translate(-1192.813 -582.086)" fill="#f2f2f2"/><path d="M1192.893,589.849a.14.14,0,0,1-.072-.02.141.141,0,0,1-.069-.122V584.68a.14.14,0,0,1,.073-.124l4.641-2.514a.142.142,0,0,1,.14,0,.14.14,0,0,1,.069.122v5.027a.141.141,0,0,1-.073.124l-4.641,2.513A.139.139,0,0,1,1192.893,589.849Zm.141-5.084v4.705l4.359-2.361V582.4Zm4.5,2.429h0Z" transform="translate(-1192.752 -582.026)"/></g><g transform="translate(0 2.391)"><path d="M1192.077,585.3l-2.039-1.219v5.027l2.039,1.219Z" transform="translate(-1189.897 -583.937)" fill="#f2f2f2"/><path d="M1192.016,590.406a.137.137,0,0,1-.072-.02l-2.039-1.219a.139.139,0,0,1-.069-.121v-5.028a.141.141,0,0,1,.214-.122l2.039,1.219a.142.142,0,0,1,.068.122v5.028a.141.141,0,0,1-.071.123A.147.147,0,0,1,1192.016,590.406Zm-1.9-1.441,1.757,1.05v-4.7l-1.757-1.05Z" transform="translate(-1189.836 -583.876)"/></g><path d="M1190.038,583.051l2.039,1.219,4.641-2.514-2.625-1.1Z" transform="translate(-1189.897 -580.517)" fill="#f2f2f2"/><path d="M1192.016,584.35a.131.131,0,0,1-.072-.02l-2.039-1.219a.14.14,0,0,1-.069-.122.142.142,0,0,1,.07-.122l4.054-2.391a.139.139,0,0,1,.127-.008l2.625,1.1a.141.141,0,0,1,.013.255l-4.641,2.514A.138.138,0,0,1,1192.016,584.35Zm-1.761-1.359,1.765,1.055,4.31-2.334-2.286-.955Z" transform="translate(-1189.836 -580.456)"/></g><g transform="translate(0 3.251)"><g transform="translate(2.04 1.097)"><path d="M1189.588,591.9l-4.641,2.514v-5.028l4.641-2.514Z" transform="translate(-1184.806 -586.735)" fill="#f2f2f2"/><path d="M1184.886,594.5a.141.141,0,0,1-.141-.141V589.33a.14.14,0,0,1,.074-.124l4.64-2.514a.141.141,0,0,1,.209.125v5.027a.141.141,0,0,1-.073.124l-4.641,2.514A.145.145,0,0,1,1184.886,594.5Zm.141-5.084v4.7l4.358-2.361v-4.7Zm4.5,2.428h0Z" transform="translate(-1184.745 -586.674)"/></g><g transform="translate(0 2.392)"><path d="M1184.07,589.948l-2.039-1.219v5.028l2.039,1.219Z" transform="translate(-1181.889 -588.587)" fill="#f2f2f2"/><path d="M1184.009,595.055a.138.138,0,0,1-.072-.02l-2.04-1.219a.14.14,0,0,1-.069-.122v-5.027a.142.142,0,0,1,.214-.122l2.04,1.219a.141.141,0,0,1,.068.122v5.027a.141.141,0,0,1-.071.123A.145.145,0,0,1,1184.009,595.055Zm-1.9-1.44,1.757,1.05v-4.7l-1.757-1.05Z" transform="translate(-1181.828 -588.526)"/></g><path d="M1182.031,587.7l2.039,1.219,4.641-2.514-2.625-1.1Z" transform="translate(-1181.889 -585.167)" fill="#f2f2f2"/><path d="M1184.009,589a.138.138,0,0,1-.072-.02l-2.04-1.219a.139.139,0,0,1-.069-.122.141.141,0,0,1,.07-.122l4.055-2.392a.138.138,0,0,1,.126-.008l2.626,1.1a.142.142,0,0,1,.013.255l-4.641,2.513A.138.138,0,0,1,1184.009,589Zm-1.762-1.36,1.766,1.055,4.309-2.334-2.286-.955Z" transform="translate(-1181.828 -585.106)"/></g></g><g transform="translate(1148.41 545.775)"><path d="M1203.218,580.3v-4.469l6.23-3.174v4.249Z" transform="translate(-1203.218 -572.662)"/></g><g transform="translate(1152.238 514.456)"><line y1="5.502" x2="9.246" transform="translate(0.175 0.175)" fill="#f2f2f2"/><path d="M1208.867,533.725a.175.175,0,0,1-.089-.325l9.247-5.5a.175.175,0,1,1,.179.3l-9.247,5.5A.179.179,0,0,1,1208.867,533.725Z" transform="translate(-1208.693 -527.873)"/></g><g transform="translate(1094.72 487.95)"><path d="M1143.923,490.983l-15.566,8.5-1.921-1.016,15.566-8.5Z" transform="translate(-1126.436 -489.967)"/></g><g transform="translate(1033.521 552.27)"><path d="M1039.166,588.574l1,.726v-7.1l45.505,27.217v5.847l2.485,1.442" transform="translate(-1038.991 -582.025)" fill="#f2f2f2"/><path d="M1088.077,616.807a.172.172,0,0,1-.088-.024l-2.486-1.443a.174.174,0,0,1-.087-.151v-5.748l-45.156-27.008v6.792a.176.176,0,0,1-.278.141l-.995-.726a.175.175,0,0,1,.206-.283l.717.523v-6.756a.175.175,0,0,1,.264-.15l45.505,27.217a.175.175,0,0,1,.085.15v5.747l2.4,1.392a.175.175,0,0,1-.087.326Z" transform="translate(-1038.916 -581.95)"/></g><g transform="translate(1097.199 556.835)"><path d="M1131.853,589.031l-.076,24.582-1.546-.747V588.729Z" transform="translate(-1130.056 -588.553)" fill="#f2f2f2"/><path d="M1131.7,613.712a.16.16,0,0,1-.076-.018l-1.545-.747a.174.174,0,0,1-.1-.157V588.654a.175.175,0,0,1,.207-.173l1.622.3a.176.176,0,0,1,.143.173l-.077,24.582a.175.175,0,0,1-.082.148A.172.172,0,0,1,1131.7,613.712Zm-1.371-1.031,1.2.579.076-24.159-1.272-.237Z" transform="translate(-1129.981 -588.478)"/></g><g transform="translate(1105.709 561.791)"><path d="M1142.4,609.342l24.067-13.527.186,1.66L1142.4,611.642Z" transform="translate(-1142.227 -595.641)" fill="#ccc"/><path d="M1142.327,611.741a.168.168,0,0,1-.087-.023.175.175,0,0,1-.088-.152v-2.3a.174.174,0,0,1,.089-.152l24.066-13.526a.176.176,0,0,1,.166,0,.172.172,0,0,1,.093.136l.186,1.66a.172.172,0,0,1-.085.17l-24.253,14.166A.171.171,0,0,1,1142.327,611.741Zm.175-2.372v1.893l23.891-13.955-.143-1.285Z" transform="translate(-1142.152 -595.566)"/></g><g transform="translate(1095.687 565.461)"><g transform="translate(12.748 0)"><ellipse cx="2.461" cy="3.631" rx="2.461" ry="3.631"/></g><path d="M1143.029,600.815s10.368.888,11.5,10.974-2.757,19.955-9.319,23.06-12.819.774-17.387-2.424l6.7-3.865a4.723,4.723,0,0,0,6.044,2.164c7.692-2.582,11.35-13.878,7.8-19.042s-5.338-3.6-5.338-3.6Z" transform="translate(-1127.82 -600.815)"/></g></g></g></svg>