<svg xmlns="http://www.w3.org/2000/svg" xmlns:xlink="http://www.w3.org/1999/xlink" width="414.267" height="427.244" viewBox="0 0 414.267 427.244"><defs><style>.a{fill:#bec9f2;opacity:0.49;}.b{fill:url(#a);}.c{fill:url(#b);}.d,.g,.i{fill:#fff;}.e{fill:#2c2c33;}.f{fill:url(#c);}.g,.p{opacity:0.29;}.h{fill:#363636;opacity:0.15;}.i{opacity:0.18;}.j{fill:url(#d);}.k{opacity:0.72;}.l{opacity:0.45;fill:url(#e);}.l,.m{mix-blend-mode:screen;isolation:isolate;}.m{opacity:0.37;fill:url(#f);}.n{fill:url(#g);}.o{fill:#de58d9;opacity:0.74;}.q{opacity:0.68;}</style><linearGradient id="a" x1="0.085" y1="-0.035" x2="0.933" y2="1.058" gradientUnits="objectBoundingBox"><stop offset="0" stop-color="#e4e4e4"/><stop offset="0.022" stop-color="#c8c8c8"/><stop offset="0.093" stop-color="#777"/><stop offset="0.125" stop-color="#575757"/><stop offset="0.311" stop-color="#d9d9d9"/><stop offset="0.453" stop-color="#e4e4e4"/><stop offset="0.485" stop-color="#d8d8d8"/><stop offset="0.542" stop-color="#bbb"/><stop offset="0.616" stop-color="#8b8b8b"/><stop offset="0.64" stop-color="#7a7a7a"/><stop offset="0.771" stop-color="#dedede"/><stop offset="0.772" stop-color="#ddd"/><stop offset="0.901" stop-color="#aaa"/><stop offset="0.964" stop-color="#979797"/></linearGradient><linearGradient id="b" x1="0.911" y1="1.04" x2="0.081" y2="-0.051" xlink:href="#a"/><linearGradient id="c" y1="0.5" x2="1" y2="0.5" gradientUnits="objectBoundingBox"><stop offset="0" stop-color="#30157b"/><stop offset="0.388" stop-color="#3c2fa6"/><stop offset="0.79" stop-color="#4746cd"/><stop offset="1" stop-color="#4c50dd"/></linearGradient><linearGradient id="d" x1="0.835" y1="1.062" x2="0.141" y2="-0.104" gradientUnits="objectBoundingBox"><stop offset="0.003" stop-color="#3f007b"/><stop offset="1"/></linearGradient><radialGradient id="e" cx="0.5" cy="0.5" r="0.504" gradientTransform="translate(-0.005 0.004) scale(0.992 0.992)" gradientUnits="objectBoundingBox"><stop offset="0" stop-color="#da00f9"/><stop offset="0.469" stop-color="#24002a"/><stop offset="1"/></radialGradient><radialGradient id="f" cx="0.5" cy="0.5" r="0.504" gradientTransform="translate(-0.002 0.004) scale(0.992 0.992)" gradientUnits="objectBoundingBox"><stop offset="0" stop-color="#fff"/><stop offset="0.592" stop-color="#1b1b1b"/><stop offset="1"/></radialGradient><linearGradient id="g" x1="0.36" y1="0.614" x2="1.068" y2="-0.387" gradientUnits="objectBoundingBox"><stop offset="0" stop-color="#5a61e3"/><stop offset="1" stop-color="#3b43dc"/></linearGradient></defs><g transform="translate(-822.368 -230.948)"><g transform="translate(822.368 205.281)"><path class="a" d="M1006.395,602.669c-70.869-27.136-106.3-40.7-127.01-60.8-69.178-67.126-90.029-207.815-21.663-281.457,3.557-3.832,53.495-56.122,112.279-45.851,49.218,8.6,54.862,52.358,132.57,144.988,83.195,99.171,127.128,109.1,127.455,159.907.309,48.106-38.7,97.122-83.335,112.38C1113.495,643.187,1077.343,629.836,1006.395,602.669Z" transform="translate(-815.761 -187.563)"/><circle class="a" cx="24.533" cy="24.533" r="24.533" transform="translate(16.141 373.26)"/><circle class="a" cx="10.289" cy="10.289" r="10.289" transform="translate(52.074 432.332)"/><circle class="a" cx="17.725" cy="17.725" r="17.725" transform="translate(373.403 173.141) rotate(146)"/><circle class="a" cx="7.216" cy="7.216" r="7.216" transform="translate(386.876 201.208) rotate(146)"/><circle class="a" cx="5.295" cy="5.295" r="5.295" transform="translate(114.819 428.322)"/><circle class="a" cx="5.295" cy="5.295" r="5.295" transform="translate(278.516 85.964)"/></g><g transform="translate(888.48 243.371)"><rect class="b" width="275.125" height="403.381" rx="6.069"/><rect class="c" width="274.068" height="401.608" rx="6.069" transform="translate(0.528 0.887)"/><rect class="d" width="271.83" height="399.264" rx="6.069" transform="translate(1.647 2.059)"/><rect class="e" width="270.135" height="397.418" rx="6.069" transform="translate(2.495 2.982)"/><rect class="f" width="267.453" height="348.824" transform="translate(3.836 25.042)"/><g transform="translate(132.601 6.594)"><path class="g" d="M1025.3,253.47a4.715,4.715,0,1,1-4.715-4.677A4.7,4.7,0,0,1,1025.3,253.47Z" transform="translate(-1015.869 -248.793)"/><path class="h" d="M1024.879,253.459a4.305,4.305,0,1,1-4.306-4.27A4.287,4.287,0,0,1,1024.879,253.459Z" transform="translate(-1015.858 -248.782)"/><path class="i" d="M1023.882,253.434a3.334,3.334,0,1,1-3.334-3.307A3.321,3.321,0,0,1,1023.882,253.434Z" transform="translate(-1015.833 -248.757)"/><ellipse class="j" cx="3.044" cy="3.019" rx="3.044" ry="3.019" transform="translate(1.67 1.657)"/><ellipse class="k" cx="1.149" cy="1.139" rx="1.149" ry="1.139" transform="translate(3.566 3.538)"/><ellipse class="l" cx="2.565" cy="2.544" rx="2.565" ry="2.544" transform="translate(0.6 1.234)"/><path class="m" d="M1025.744,254.562a4.059,4.059,0,1,1-4.059-4.026A4.042,4.042,0,0,1,1025.744,254.562Z" transform="translate(-1015.822 -248.746)"/></g><path class="n" d="M1157.776,266.757H896.384c1.343,40.136,42.776,51.419,118.358,101.175,20.282,13.351,48.475,23.735,74.25,21.655a177.361,177.361,0,0,0,68.783-20.362Z" transform="translate(-886.486 -241.716)"/><path class="o" d="M890.481,609.043h153.3c-13.143-56.757-71.1-99.518-140.62-99.518q-6.407,0-12.675.48Z" transform="translate(-886.645 -235.177)"/><g transform="translate(83.055 105.811)"><g transform="translate(14.498)"><path class="d" d="M989.527,345.844V370.5H988.7V346.814l-6.545,4.1-.415-.635,7.11-4.439Z" transform="translate(-981.74 -345.396)"/><path class="d" d="M1007.842,347.162a6.141,6.141,0,0,1,1.711,4.476,10.806,10.806,0,0,1-1.015,4.683,23.138,23.138,0,0,1-3.2,4.756q-2.181,2.613-7.635,8.618h12.412l-.15.82H996.652v-.784q5.492-5.967,7.786-8.747a24.5,24.5,0,0,0,3.273-4.85,10.24,10.24,0,0,0,.978-4.421,5.476,5.476,0,0,0-1.486-4.011,5.366,5.366,0,0,0-4.006-1.511,7.112,7.112,0,0,0-3.366.765,9.233,9.233,0,0,0-2.689,2.22l-.639-.411a9.854,9.854,0,0,1,3.027-2.536,7.911,7.911,0,0,1,3.667-.822A6.2,6.2,0,0,1,1007.842,347.162Z" transform="translate(-981.342 -345.408)"/><path class="d" d="M1017.772,353.643a.878.878,0,0,1,.244.653.784.784,0,0,1-.244.577.893.893,0,0,1-.658.242.844.844,0,0,1-.621-.242.783.783,0,0,1-.245-.577.878.878,0,0,1,.245-.653.844.844,0,0,1,.621-.242A.893.893,0,0,1,1017.772,353.643Zm0,15.481a.881.881,0,0,1,.244.653.785.785,0,0,1-.244.579.9.9,0,0,1-.658.242.852.852,0,0,1-.621-.242.785.785,0,0,1-.245-.579.881.881,0,0,1,.245-.653.851.851,0,0,1,.621-.24A.9.9,0,0,1,1017.772,369.124Z" transform="translate(-980.811 -345.193)"/><path class="d" d="M1035.213,347.162a6.138,6.138,0,0,1,1.712,4.476,10.809,10.809,0,0,1-1.016,4.683,23.138,23.138,0,0,1-3.2,4.756q-2.181,2.613-7.635,8.618h12.414l-.151.82h-13.315v-.784q5.492-5.967,7.785-8.747a24.418,24.418,0,0,0,3.273-4.85,10.227,10.227,0,0,0,.979-4.421,5.476,5.476,0,0,0-1.486-4.011,5.369,5.369,0,0,0-4.006-1.511,7.106,7.106,0,0,0-3.366.765,9.207,9.207,0,0,0-2.69,2.22l-.64-.411a9.869,9.869,0,0,1,3.027-2.536,7.916,7.916,0,0,1,3.668-.822A6.192,6.192,0,0,1,1035.213,347.162Z" transform="translate(-980.605 -345.408)"/><path class="d" d="M1054.614,346.591h-10.531v9.886a7.96,7.96,0,0,1,4.626-1.455,6.464,6.464,0,0,1,5.022,2,7.85,7.85,0,0,1,1.824,5.5,8.932,8.932,0,0,1-1.993,6.045,6.784,6.784,0,0,1-5.417,2.313,8.623,8.623,0,0,1-6.545-2.8l.6-.523a7.717,7.717,0,0,0,5.981,2.537,5.9,5.9,0,0,0,4.758-2.069,8.248,8.248,0,0,0,1.749-5.5,7.092,7.092,0,0,0-1.6-4.981,5.666,5.666,0,0,0-4.382-1.734,7.737,7.737,0,0,0-2.5.354,11.164,11.164,0,0,0-2.276,1.138h-.678V345.844h11.511Z" transform="translate(-980.128 -345.396)"/></g><g class="p" transform="translate(0 39.088)"><path class="d" d="M977.3,394.733h-.888l-.475-4.982q-.29-2.9-.4-4.527L972.9,393.5h-.873l-2.726-8.278q-.077,1.474-.306,3.9l-.046.593-.459,5.012h-.873l1-10.4h1.271l2.6,8.1,2.511-8.1h1.287Z" transform="translate(-967.622 -383.448)"/><path class="d" d="M984.62,387.648a4.628,4.628,0,0,1,.9,3.029,4.678,4.678,0,0,1-.912,3.046,3.347,3.347,0,0,1-4.977.014,4.669,4.669,0,0,1-.9-3.029,5.432,5.432,0,0,1,.414-2.2,3.087,3.087,0,0,1,2.986-1.944A3.048,3.048,0,0,1,984.62,387.648Zm-4.3.524a5.325,5.325,0,0,0-.008,5.058,2.1,2.1,0,0,0,1.8.866,2.142,2.142,0,0,0,1.815-.866,5.308,5.308,0,0,0,.015-5.066,2.332,2.332,0,0,0-3.622.008Z" transform="translate(-967.323 -383.388)"/><path class="d" d="M992.774,387.2a2.582,2.582,0,0,1,.574,1.791v5.681h-.888v-5.559a2.107,2.107,0,0,0-.382-1.4,1.422,1.422,0,0,0-1.134-.44,2.285,2.285,0,0,0-1.356.417,4.605,4.605,0,0,0-1.126,1.222v5.757h-.888v-7.944h.766l.091,1.352a3.752,3.752,0,0,1,1.164-1.116,2.905,2.905,0,0,1,1.517-.4A2.118,2.118,0,0,1,992.774,387.2Z" transform="translate(-967.085 -383.388)"/><path class="d" d="M1001.713,383.578v11.178h-.766l-.107-1.214a2.642,2.642,0,0,1-2.405,1.381,2.572,2.572,0,0,1-2.2-1.1,4.986,4.986,0,0,1-.8-3,5.846,5.846,0,0,1,.375-2.172,3.319,3.319,0,0,1,1.087-1.474,2.724,2.724,0,0,1,1.677-.532,2.792,2.792,0,0,1,2.251,1.078v-4.253Zm-1.845,10.253a3.352,3.352,0,0,0,.957-1.109v-4.147a2.52,2.52,0,0,0-2.1-1.2,2.005,2.005,0,0,0-1.723.9,4.263,4.263,0,0,0-.619,2.537,4.523,4.523,0,0,0,.581,2.513,1.833,1.833,0,0,0,1.608.874A2.235,2.235,0,0,0,999.867,393.831Z" transform="translate(-966.873 -383.471)"/><path class="d" d="M1009.569,393.807a.986.986,0,0,0,.514.411l-.2.622a1.578,1.578,0,0,1-.85-.41,1.634,1.634,0,0,1-.39-.926,2.741,2.741,0,0,1-2.5,1.336,2.5,2.5,0,0,1-1.815-.646,2.29,2.29,0,0,1-.667-1.723,2.241,2.241,0,0,1,.881-1.9,3.957,3.957,0,0,1,2.442-.669h1.532v-.775a1.911,1.911,0,0,0-.429-1.388,1.951,1.951,0,0,0-1.424-.434,6.558,6.558,0,0,0-2.174.456l-.23-.668a6.912,6.912,0,0,1,2.527-.532q2.619,0,2.619,2.521v3.827A1.864,1.864,0,0,0,1009.569,393.807Zm-1.048-1.078v-2.186h-1.394a3.141,3.141,0,0,0-1.869.47,1.635,1.635,0,0,0-.643,1.412,1.539,1.539,0,0,0,1.684,1.7A2.433,2.433,0,0,0,1008.52,392.729Z" transform="translate(-966.651 -383.388)"/><path class="d" d="M1014.477,394.7a7.136,7.136,0,0,1-.705,1.52,3.222,3.222,0,0,1-1,.979,4.491,4.491,0,0,1-1.577.569l-.092-.682a4.315,4.315,0,0,0,1.248-.487,2.279,2.279,0,0,0,.72-.722,6.539,6.539,0,0,0,.544-1.208h-.307l-2.787-7.944h.964l2.421,7.291,2.373-7.291h.934Z" transform="translate(-966.467 -383.383)"/><path class="d" d="M1027.033,385.354H1022.9V388.8a3.535,3.535,0,0,1,1.746-.47,2.7,2.7,0,0,1,2.091.842,3.277,3.277,0,0,1,.772,2.3,3.791,3.791,0,0,1-.4,1.769,2.951,2.951,0,0,1-1.149,1.216,3.359,3.359,0,0,1-1.722.432,3.861,3.861,0,0,1-2.88-1.215l.552-.532a3.245,3.245,0,0,0,1.041.759,3.158,3.158,0,0,0,1.287.243,2.156,2.156,0,0,0,1.715-.722,2.892,2.892,0,0,0,.627-1.966,2.536,2.536,0,0,0-.574-1.816,2.05,2.05,0,0,0-1.555-.6,2.952,2.952,0,0,0-.866.115,4.252,4.252,0,0,0-.834.372h-.7v-4.906h5.131Z" transform="translate(-966.175 -383.44)"/><path class="d" d="M1039.091,394.733l-.918-2.841h-4.411l-.919,2.841h-.934l3.508-10.4h1.148l3.492,10.4Zm-5.068-3.615h3.9l-1.945-6.045Z" transform="translate(-965.891 -383.448)"/><path class="d" d="M1047,394.668h-.766l-.046-1.412a2.927,2.927,0,0,1-2.619,1.579,2.183,2.183,0,0,1-1.677-.631,2.535,2.535,0,0,1-.591-1.8v-5.681h.889v5.591a1.987,1.987,0,0,0,.39,1.36,1.519,1.519,0,0,0,1.187.432,2.739,2.739,0,0,0,2.343-1.626v-5.757H1047Z" transform="translate(-965.638 -383.383)"/><path class="d" d="M1055.7,386.909a10.051,10.051,0,0,1-2.221.229,2.207,2.207,0,0,1,1.364,2.156,2.452,2.452,0,0,1-.781,1.892,2.99,2.99,0,0,1-2.113.722,3.235,3.235,0,0,1-1.041-.152,1.354,1.354,0,0,0-.452.4.887.887,0,0,0-.16.508q0,.819,1.27.82h1.3a2.872,2.872,0,0,1,1.877.57,1.805,1.805,0,0,1,.7,1.464,1.914,1.914,0,0,1-.873,1.686,6.176,6.176,0,0,1-5.168.053,1.969,1.969,0,0,1-.773-1.74h.827a1.668,1.668,0,0,0,.245.912,1.312,1.312,0,0,0,.766.486,5.69,5.69,0,0,0,1.5.153,3.783,3.783,0,0,0,1.96-.388,1.244,1.244,0,0,0,.612-1.116,1.131,1.131,0,0,0-.474-.979,2.241,2.241,0,0,0-1.332-.343h-1.3a2.356,2.356,0,0,1-1.462-.394,1.214,1.214,0,0,1-.514-1,1.331,1.331,0,0,1,.23-.743,2.047,2.047,0,0,1,.643-.607,2.423,2.423,0,0,1-1.018-.9,2.789,2.789,0,0,1,.482-3.282,3.027,3.027,0,0,1,2.129-.743,12.3,12.3,0,0,0,2.122-.106,7.256,7.256,0,0,0,1.385-.411Zm-5.292.9a2.046,2.046,0,0,0-.513,1.458,1.965,1.965,0,0,0,.544,1.474,2.367,2.367,0,0,0,2.979.007,1.993,1.993,0,0,0,.521-1.465,2.051,2.051,0,0,0-.513-1.488,2,2,0,0,0-1.509-.532A1.97,1.97,0,0,0,1050.411,387.806Z" transform="translate(-965.44 -383.401)"/><path class="d" d="M1062.391,394.668h-.766l-.045-1.412a2.927,2.927,0,0,1-2.619,1.579,2.182,2.182,0,0,1-1.677-.631,2.535,2.535,0,0,1-.59-1.8v-5.681h.888v5.591a1.988,1.988,0,0,0,.391,1.36,1.517,1.517,0,0,0,1.186.432,2.738,2.738,0,0,0,2.344-1.626v-5.757h.888Z" transform="translate(-965.223 -383.383)"/><path class="d" d="M1068.455,386.783a4.5,4.5,0,0,1,1.2.661l-.414.576a4.625,4.625,0,0,0-1.041-.555,3.161,3.161,0,0,0-1.072-.175,2.1,2.1,0,0,0-1.287.365,1.153,1.153,0,0,0-.49.971,1.059,1.059,0,0,0,.421.9,4.669,4.669,0,0,0,1.524.608,4.848,4.848,0,0,1,1.968.881,1.913,1.913,0,0,1,.6,1.519,2,2,0,0,1-.827,1.686,3.341,3.341,0,0,1-2.067.622,4.466,4.466,0,0,1-1.608-.265,4.325,4.325,0,0,1-1.256-.753l.49-.562a3.968,3.968,0,0,0,1.1.631,3.67,3.67,0,0,0,1.263.2,2.345,2.345,0,0,0,1.432-.4,1.311,1.311,0,0,0,.544-1.116,1.511,1.511,0,0,0-.184-.79,1.477,1.477,0,0,0-.629-.525,7.368,7.368,0,0,0-1.3-.448,4.479,4.479,0,0,1-1.831-.835,1.71,1.71,0,0,1-.559-1.336,1.766,1.766,0,0,1,.352-1.071,2.313,2.313,0,0,1,.957-.745,3.33,3.33,0,0,1,1.356-.266A4,4,0,0,1,1068.455,386.783Z" transform="translate(-965.023 -383.388)"/><path class="d" d="M1075.408,394.387a3.021,3.021,0,0,1-1.685.5,1.907,1.907,0,0,1-1.44-.539,2.153,2.153,0,0,1-.521-1.557v-5.3h-1.348v-.716h1.348v-1.9l.888-.106v2h2.067l-.107.716h-1.96v5.254a1.572,1.572,0,0,0,.291,1.04,1.1,1.1,0,0,0,.888.343,2.457,2.457,0,0,0,1.226-.35Z" transform="translate(-964.854 -383.436)"/></g><g class="q" transform="translate(96.269 0.163)"><path class="d" d="M1064.682,346.044a1.721,1.721,0,0,1,.623,1.458,1.777,1.777,0,0,1-.652,1.525,2.934,2.934,0,0,1-1.784.485h-.932v2.52h-.571v-6.465h1.532A2.9,2.9,0,0,1,1064.682,346.044Zm-.452,2.657a1.377,1.377,0,0,0,.475-1.189,1.326,1.326,0,0,0-.461-1.137,2.245,2.245,0,0,0-1.355-.344h-.952v3.02h.932A2.271,2.271,0,0,0,1064.23,348.7Z" transform="translate(-1061.366 -345.567)"/><path class="d" d="M1071.809,352.032h-.552l-.295-3.094q-.18-1.8-.248-2.813l-1.636,5.143h-.542l-1.694-5.143q-.048.917-.19,2.425l-.029.369-.285,3.114h-.542l.618-6.465h.79l1.618,5.03,1.56-5.03h.8Z" transform="translate(-1061.247 -345.567)"/></g></g></g></g></svg>