<svg xmlns:xlink="http://www.w3.org/1999/xlink" xmlns="http://www.w3.org/2000/svg" width="506.228" height="548.673"
     viewBox="0 0 506.228 548.673">
    <defs>
        <style>
            .a{fill:#bec9f2;opacity:0.49;}.b,.c{fill:#caa267;}.b{fill-rule:evenodd;}.d{fill:#c2934e;}.e{fill:#8a7cc7;}.f{fill:#f1c759;}.g,.w{opacity:0.15;}.h{fill:#5e5584;}.i{fill:#5e5587;}.j{opacity:0.3;}.k{opacity:0.5;}.l{fill:#eec459;}.m{fill:#959595;}.n{fill:#c8c8c8;}.o{fill:#7f7f7f;}.p{fill:none;stroke:#8a7cc7;stroke-miterlimit:10;stroke-width:0.747px;}.q{fill:url(#a);}.r{fill:url(#b);}.s,.v,.x{fill:#fff;}.t{fill:#2c2c33;}.u{fill:url(#c);}.ae,.v{opacity:0.29;}.w{fill:#363636;}.x{opacity:0.18;}.y{fill:url(#d);}.z{opacity:0.72;}.aa{opacity:0.45;fill:url(#e);}.aa,.ab{mix-blend-mode:screen;isolation:isolate;}.ab{opacity:0.37;fill:url(#f);}.ac{fill:url(#g);}.ad{fill:#de58d9;opacity:0.74;}.af{opacity:0.68;}
        </style>
        <linearGradient id="a" x1="0.085" y1="-0.035" x2="0.933" y2="1.058" gradientUnits="objectBoundingBox">
            <stop offset="0" stop-color="#e4e4e4"/>
            <stop offset="0.022" stop-color="#c8c8c8"/>
            <stop offset="0.093" stop-color="#777"/>
            <stop offset="0.125" stop-color="#575757"/>
            <stop offset="0.311" stop-color="#d9d9d9"/>
            <stop offset="0.453" stop-color="#e4e4e4"/>
            <stop offset="0.485" stop-color="#d8d8d8"/>
            <stop offset="0.542" stop-color="#bbb"/>
            <stop offset="0.616" stop-color="#8b8b8b"/>
            <stop offset="0.64" stop-color="#7a7a7a"/>
            <stop offset="0.771" stop-color="#dedede"/>
            <stop offset="0.772" stop-color="#ddd"/>
            <stop offset="0.901" stop-color="#aaa"/>
            <stop offset="0.964" stop-color="#979797"/>
        </linearGradient>
        <linearGradient id="b" x1="0.911" y1="1.04" x2="0.081" y2="-0.051" xlink:href="#a"/>
        <linearGradient id="c" y1="0.5" x2="1" y2="0.5" gradientUnits="objectBoundingBox">
            <stop offset="0" stop-color="#30157b"/>
            <stop offset="0.388" stop-color="#3c2fa6"/>
            <stop offset="0.79" stop-color="#4746cd"/>
            <stop offset="1" stop-color="#4c50dd"/>
        </linearGradient>
        <linearGradient id="d" x1="0.835" y1="1.062" x2="0.141" y2="-0.104" gradientUnits="objectBoundingBox">
            <stop offset="0.003" stop-color="#3f007b"/>
            <stop offset="1"/>
        </linearGradient>
        <radialGradient id="e" cx="0.5" cy="0.5" r="0.504"
                        gradientTransform="translate(-0.004 0.004) scale(0.992 0.992)"
                        gradientUnits="objectBoundingBox">
            <stop offset="0" stop-color="#da00f9"/>
            <stop offset="0.469" stop-color="#24002a"/>
            <stop offset="1"/>
        </radialGradient>
        <radialGradient id="f" cx="0.5" cy="0.5" r="0.504"
                        gradientTransform="translate(-0.001 0.004) scale(0.992 0.992)"
                        gradientUnits="objectBoundingBox">
            <stop offset="0" stop-color="#fff"/>
            <stop offset="0.592" stop-color="#1b1b1b"/>
            <stop offset="1"/>
        </radialGradient>
        <linearGradient id="g" x1="0.36" y1="0.614" x2="1.068" y2="-0.387" gradientUnits="objectBoundingBox">
            <stop offset="0" stop-color="#5a61e3"/>
            <stop offset="1" stop-color="#3b43dc"/>
        </linearGradient>
    </defs>
    <g transform="translate(-786.633 -182.865)">
        <path class="a"
              d="M1079.319,626.363c-67.672-25.913-101.508-38.869-121.279-58.054-66.058-64.1-85.967-198.439-20.686-268.758,3.4-3.659,51.081-53.59,107.213-43.782,47,8.211,52.387,50,126.589,138.446,79.441,94.7,121.392,104.175,121.7,152.692.3,45.936-36.954,92.74-79.576,107.31C1181.586,665.053,1147.066,652.3,1079.319,626.363Z"/>
        <circle class="a" cx="22.235" cy="22.235" r="22.235" transform="translate(1037.701 634.337)"/>
        <circle class="a" cx="9.326" cy="9.326" r="9.326" transform="translate(1070.268 687.877)"/>
        <circle class="a" cx="16.065" cy="16.065" r="16.065" transform="translate(1107.452 275.013)"/>
        <circle class="a" cx="6.54" cy="6.54" r="6.54" transform="translate(1111.552 247.096)"/>
        <circle class="a" cx="4.799" cy="4.799" r="4.799" transform="translate(1007.5 635.3)"/>
        <circle class="a" cx="4.799" cy="4.799" r="4.799" transform="translate(1155.865 325.008)"/>
        <path class="b"
              d="M1087.271,375.168c-1.428-3.376-5.868-5.972-8.83-6.754a29.6,29.6,0,0,1-3.781-1.538c-2.3-.745,1.361,2.476,2.735,3.008,1.116.432,3.145,3.717,4.248,4.839s3.458,2.739,4.714,2.736S1087.1,375.8,1087.271,375.168Z"/>
        <path class="b"
              d="M1095.073,386.842c-2.708-4.735-4.76-10.373-9.883-12.68s-12.748-2.179-16.8-2.751c-4.771-.674-2.756.853-.239,1.5,1.636.418,6.929,1.92,8.576,1.889a52.357,52.357,0,0,0-6.89-1.039c-.39.114-7.97-1.861-7.44-.477,1.026,2.684,9.565,2.929,12.29,3.49-1.435-.036-3.771-.438-5.153-.479-1.173-.034-4.729-1.283-5.066-.2-.53,1.705,8.222,2.709,9.385,2.79-1.139.938-5.54-.4-7.07-.483-.153-.009-1.541.34.139.91a50.269,50.269,0,0,0,10.312,2.85c4.035.549,8.766,1.114,11.493,4.761C1090.871,386.774,1092.979,387.126,1095.073,386.842Z"/>
        <path class="c"
              d="M1232.959,620.579s-8.167,95.827-4.2,97.429c7.111,2.92,34.939,12.417,4.36,10.614-15.685,1.128-14.574-2.392-14.853-5.361-.229-2.425-.761-88.095-1.483-94.749l-.26-2.391Z"/>
        <path class="c"
              d="M1175.433,621.246s5.132,95.673,1.206,97.366c-7.041,3.084-34.641,13.224-4.112,10.712,15.706.764,14.514-2.729,14.725-5.7.172-2.43,1.739-20.877,2.307-27.546.127-1.494,2.335-76.392,2.335-76.392Z"/>
        <path class="d"
              d="M1203.337,373.885s-.712,9.131,4.972,14.109-12.965.151-12.965.151,3.359-8.776,2.52-14.2S1203.337,373.885,1203.337,373.885Z"/>
        <ellipse class="c" cx="9.836" cy="13.42" rx="9.836" ry="13.42"
                 transform="translate(1190.264 350.731) rotate(-0.664)"/>
        <path class="e"
              d="M1120.945,432.841c14.528-31.319,40.937-45.836,57.86-49.8,7.325-1.722,12.872-1.465,14.917.26a10.993,10.993,0,0,0,6.9,2.588,14.923,14.923,0,0,0,3.851-.4,19.219,19.219,0,0,0,4.07-1.437c.625-.3.988-.512.988-.512a39.869,39.869,0,0,1,10.392.5c38.472,7.071,45.9,71.355,45.617,76.9-.171,3.3-3.4,18.263-7.509,31.58-3.362,10.933-7.321,20.76-10.652,22.151-7.391,3.074-63.412,7.825-75,2.461-.272-.2-.566-.412-.845-.648-4.366-3.469-9.138-10.362-11.7-16.84,0,0-6.843-18.608-8.239-22.395-.015-.037-.023-.067-.038-.1-.047-.149-.1-.29-.155-.424-.015-.052-.038-.1-.054-.149"/>
        <path class="f"
              d="M1169.776,514.948a6.061,6.061,0,0,0,3.46,1.547c8.088.065,43.017.259,61.949-1.05,6.679-.462,11.366-1.11,12.18-2.021,0,0,0,.028-.005.077-.037,1.045-.5,13.007-1.157,28.687-1.3,30.953,2.41,75.221,6.3,88.625.84,2.894-42.6-1-42.6-1-.491-31.922,1.889-88-.1-90.49-2.415-3.029-5.7,46.312-9.65,87.614-17.13,4.682-44.371,2.276-44.077.511C1159.572,606.486,1169.776,514.948,1169.776,514.948Z"/>
        <path class="g"
              d="M1151.341,476.572c.016.052.039.1.054.149.054.134.108.275.155.424.015.03.023.06.038.1,1.4,3.787,8.239,22.387,8.239,22.387,2.564,6.486,7.336,13.379,11.7,16.848-3.059-10.6-12.568-41.308-12.361-53.729C1157.559,474.737,1151.341,476.565,1151.341,476.572Z"/>
        <path class="g"
              d="M1240.586,431.009s-17.938,55.682,33.887,78.641l1.056.685-.418-13.043s-24.684-33.616-24.786-34.487S1240.586,431.009,1240.586,431.009Z"/>
        <path class="g"
              d="M1201.294,388.08c.04.889-.424,1.477-1.853,1.3-4.46-.553-9.486-.368-13.12,1.348a3.1,3.1,0,0,1-3.005-.093c-2.354-1.34-3.851-5.4-4.447-7.2a1.239,1.239,0,0,1-.064-.395c7.325-1.722,12.872-1.465,14.917.26a10.993,10.993,0,0,0,6.9,2.588A6.06,6.06,0,0,1,1201.294,388.08Z"/>
        <path class="h"
              d="M1188.5,717.481c.167-1.384-9.665-1.141-10.765-.005s-20.649,5.406-20.194,11.222,27.561.924,29.5.765S1188.176,720.2,1188.5,717.481Z"/>
        <path class="i"
              d="M1217.614,714.9c-.2-1.38,11.592.237,12.718,1.347s18.314,5.572,17.994,11.4-27.533,1.564-29.474,1.449S1218.005,717.614,1217.614,714.9Z"/>
        <g class="j">
            <path d="M1202.039,516.47l-.39-.028S1201.788,516.45,1202.039,516.47Z"/>
            <path class="k"
                  d="M1202.039,516.47c10.417.71,33.146-1.025,33.146-1.025,6.679-.462,11.366-1.11,12.18-2.021,0,0,0,.028-.005.077-.037,1.045-.5,13.007-1.157,28.687a7.691,7.691,0,0,1-1.095-.114,8.515,8.515,0,0,1-5.553-3.849,18.948,18.948,0,0,1-2.194-4.448C1229.432,519.1,1205.377,516.731,1202.039,516.47Z"/>
        </g>
        <path class="l"
              d="M1196.469,356.377s17.138,9.244,11.908-5.856C1204.759,340.075,1184.778,349.754,1196.469,356.377Z"/>
        <path class="l"
              d="M1198.9,352.727s-9.462,5.764-8.477,11.424c0,0-2.3-16.907,7.171-17.442s13.146.337,12.513,18.25C1210.1,364.959,1207.185,350.749,1198.9,352.727Z"/>
        <path class="l"
              d="M1197.178,346.824s.418-5.281,5.656-4.594,7.514,3.649,8.3,6.628,1.555,5.213,2.3,5.2c0,0-2.216,2.267-2.971,1.529,0,0,2,5.35-.412,9.79,0,0-1.048-6.785-4.792-7.488S1197.178,346.824,1197.178,346.824Z"/>
        <path class="l"
              d="M1197.656,346.773s-3.761-2.2-7.436,3.075l-2.189,4.508s.756.739,2.241-.026c0,0-.62,5.272.129,8.235l2.1-9.008Z"/>
        <path class="m"
              d="M1176.672,448.3l10.176,60.576a6.481,6.481,0,0,0,7.459,5.315l41.343-6.949a2.024,2.024,0,0,0,.291-.063,6.458,6.458,0,0,0,5.017-7.4l-10.176-60.576a6.471,6.471,0,0,0-7.459-5.308l-39.426,6.621-1.917.322A6.47,6.47,0,0,0,1176.672,448.3Z"/>
        <path class="n"
              d="M1178.879,447.92l10.176,60.576a6.472,6.472,0,0,0,7.459,5.308l39.427-6.621a6.458,6.458,0,0,0,5.017-7.4l-10.176-60.576a6.471,6.471,0,0,0-7.459-5.308l-39.426,6.621A6.459,6.459,0,0,0,1178.879,447.92Z"/>
        <circle class="o" cx="5" cy="5" r="5" transform="translate(1205.347 469.358)"/>
        <path class="g" d="M1249.157,490.277s.712-22.319-58.968-14.155,44.99,13.675,44.99,13.675Z"/>
        <path class="b"
              d="M1195.851,484.415c-.71-.229-8.237-4.619-12.294-4.946s-10.118-.426-12.217-1c-2.47-.671-3.08.314-.232,1.363a39.93,39.93,0,0,0,6.476,1.753c.405.012-2.239-.312-5.116-.874-3.058-.6-6.377-1.418-6.522-.873-.282,1.057,8.533,3.325,10.084,3.474a38.967,38.967,0,0,1-4.088-.447c-1.846-.306-3.964-.934-4.375-.546-.646.609,4.029,2.381,7.882,2.87.069.124-1.172.333-5.709-.555-.456-.089-1.612.123-.114.8,3.152,1.413,4.4,2.253,8.948,2.342,4.432.087,9.312-.881,12.511.15Z"/>
        <path class="b"
              d="M1185.515,479.845s-3.472-3.563-7.331-4.113c-2.294-.326-2.247-.9-2.639-1.071-1.3-.555-.021,1.836,1.932,2.43,1.586.483,2.5,3.174,3.457,3.736s3.812,1.58,4.517,1.2S1185.515,479.845,1185.515,479.845Z"/>
        <path class="e"
              d="M1258.715,393.138c14.219,12.428,24.091,24.009,30.611,62.408,3.308,19.482,2.732,39.009,2.048,49.311a12.161,12.161,0,0,1-8.234,10.671c-43.922,15.054-92.836-26.222-92.836-26.222-2.536-.91,2.443-9.972,2.443-9.972,24.372-.535,43.058-.005,62.568,7.241-.1-.045-19.509-35.506-22.193-45.321-7.032-25.737-29.452-47.82-23.835-58C1211.227,379.728,1244.374,380.6,1258.715,393.138Z"/>
        <line class="p" x1="9.683" y2="115.344" transform="translate(1167.672 514.105)"/>
        <line class="p" x1="9.623" y2="113.336" transform="translate(1178.694 516.282)"/>
        <line class="p" x1="7.791" y2="112.524" transform="translate(1191.216 516.158)"/>
        <line class="p" x2="0.504" y2="23.283" transform="translate(1209.302 516.039)"/>
        <line class="p" x1="0.78" y2="114.721" transform="translate(1219.949 515.907)"/>
        <line class="p" x2="0.753" y2="115.665" transform="translate(1230.562 515.721)"/>
        <line class="p" x2="3.573" y2="116.297" transform="translate(1240.227 515.609)"/>
        <path class="p" d="M1168.425,526.951s62.082,2.21,78.443-.909"/>
        <path class="p" d="M1209.806,539.323c-21.653,5.168-42.519-2.364-42.519-2.364"/>
        <path class="p" d="M1209.555,537.856s19.656,5.278,36.811.43"/>
        <path class="p" d="M1166.317,545.415s15.741,8.01,41.1,3.539"/>
        <path class="p" d="M1165.153,555.486s24.433,7.15,41.177,3.131"/>
        <path class="p" d="M1163.985,565.49s12.512,9.577,41.21,4.883"/>
        <path class="p" d="M1162.623,577a60.33,60.33,0,0,0,41.738,2.658"/>
        <path class="p" d="M1161.355,587.542s13.5,9.35,42.012,3.5"/>
        <path class="p" d="M1160.027,598.35s18.595,9.448,42.587,1.363"/>
        <path class="p" d="M1158.962,606.786s11.025,10.361,42.837,2.216"/>
        <path class="p" d="M1157.7,616.361s17.739,9.085,43.263,1.919"/>
        <path class="p" d="M1210.567,548.363s8.264,6.663,35.932,1.325"/>
        <path class="p" d="M1210.9,558.532s11.548,5.222,35.053.72"/>
        <path class="p" d="M1210.471,569.828s17.8,5.136,35.6-.413"/>
        <path class="p" d="M1210.324,579.193s17.329,7.464,36.2-.419"/>
        <path class="p" d="M1210.153,589.475s16.481,5.57,36.965-.428"/>
        <path class="p" d="M1210,599.351s13.907,6.046,37.877-.44"/>
        <path class="p" d="M1210.1,608.085s16.525,8.275,38.723.451"/>
        <path class="p" d="M1209.835,619.008a75.946,75.946,0,0,0,40.333,0"/>
        <path class="e"
              d="M1151.588,477.242s-45.252,19.819-56.768-21.66,3.549-50.858-10.9-67.928l9.113-7.229s31.916,16.413,41.645,42.509S1151.588,477.242,1151.588,477.242Z"/>
        <g transform="translate(0 -25)">
            <rect class="q" width="267.909" height="392.802" rx="6.069" transform="translate(786.633 207.865)"/>
            <rect class="r" width="266.88" height="391.075" rx="6.069" transform="translate(787.148 208.728)"/>
            <rect class="s" width="264.701" height="388.792" rx="6.069" transform="translate(788.237 209.87)"/>
            <rect class="t" width="263.051" height="386.995" rx="6.069" transform="translate(789.063 210.769)"/>
            <rect class="u" width="260.439" height="339.676" transform="translate(790.368 232.25)"/>
            <path class="v" d="M924.939,218.84a4.591,4.591,0,1,1-4.591-4.554A4.572,4.572,0,0,1,924.939,218.84Z"/>
            <path class="w" d="M924.54,218.84a4.193,4.193,0,1,1-4.192-4.159A4.175,4.175,0,0,1,924.54,218.84Z"/>
            <path class="x" d="M923.594,218.84a3.247,3.247,0,1,1-3.246-3.22A3.233,3.233,0,0,1,923.594,218.84Z"/>
            <ellipse class="y" cx="2.965" cy="2.94" rx="2.965" ry="2.94" transform="translate(917.383 215.9)"/>
            <ellipse class="z" cx="1.118" cy="1.109" rx="1.118" ry="1.109" transform="translate(919.229 217.73)"/>
            <ellipse class="aa" cx="2.498" cy="2.477" rx="2.498" ry="2.477" transform="translate(916.341 215.487)"/>
            <path class="ab" d="M925.419,219.949a3.953,3.953,0,1,1-3.953-3.92A3.938,3.938,0,0,1,925.419,219.949Z"/>
            <path class="ac"
                  d="M1050.807,232.25H796.272c1.307,39.083,41.654,50.07,115.254,98.52,19.75,13,47.2,23.114,72.3,21.088a172.728,172.728,0,0,0,66.979-19.828Z"/>
            <path class="ad"
                  d="M790.368,571.926H939.644c-12.8-55.268-69.238-96.909-136.932-96.909q-6.24,0-12.344.467Z"/>
            <path class="s" d="M889.21,311.337V335.35h-.8V312.282l-6.374,4-.4-.618,6.923-4.323Z"/>
            <path class="s"
                  d="M907.432,312.609a5.977,5.977,0,0,1,1.667,4.359,10.52,10.52,0,0,1-.989,4.559A22.5,22.5,0,0,1,905,326.159q-2.125,2.544-7.435,8.391h12.087l-.147.8H896.536v-.763q5.348-5.811,7.582-8.519a23.834,23.834,0,0,0,3.187-4.722,9.972,9.972,0,0,0,.952-4.305,5.332,5.332,0,0,0-1.447-3.906,5.226,5.226,0,0,0-3.9-1.471,6.922,6.922,0,0,0-3.278.745,8.962,8.962,0,0,0-2.619,2.162l-.623-.4a9.6,9.6,0,0,1,2.949-2.471,7.714,7.714,0,0,1,3.571-.8A6.03,6.03,0,0,1,907.432,312.609Z"/>
            <path class="s"
                  d="M917.62,319.13a.858.858,0,0,1,.238.636.767.767,0,0,1-.238.562.871.871,0,0,1-.641.236.821.821,0,0,1-.6-.236.763.763,0,0,1-.238-.562.855.855,0,0,1,.238-.636.821.821,0,0,1,.6-.237A.871.871,0,0,1,917.62,319.13Zm0,15.075a.862.862,0,0,1,.238.636.77.77,0,0,1-.238.564.879.879,0,0,1-.641.236.829.829,0,0,1-.6-.236.766.766,0,0,1-.238-.564.858.858,0,0,1,.238-.636.828.828,0,0,1,.6-.235A.878.878,0,0,1,917.62,334.2Z"/>
            <path class="s"
                  d="M934.8,312.609a5.98,5.98,0,0,1,1.666,4.359,10.519,10.519,0,0,1-.988,4.559,22.5,22.5,0,0,1-3.114,4.632q-2.124,2.544-7.435,8.391h12.087l-.146.8H923.906v-.763q5.348-5.811,7.582-8.519a23.834,23.834,0,0,0,3.187-4.722,9.972,9.972,0,0,0,.952-4.305,5.332,5.332,0,0,0-1.447-3.906,5.225,5.225,0,0,0-3.9-1.471,6.925,6.925,0,0,0-3.278.745,8.974,8.974,0,0,0-2.619,2.162l-.622-.4a9.6,9.6,0,0,1,2.948-2.471,7.719,7.719,0,0,1,3.571-.8A6.034,6.034,0,0,1,934.8,312.609Z"/>
            <path class="s"
                  d="M954.161,312.064H943.905v9.627a7.756,7.756,0,0,1,4.5-1.418,6.294,6.294,0,0,1,4.89,1.945,7.642,7.642,0,0,1,1.776,5.357,8.7,8.7,0,0,1-1.941,5.886,6.6,6.6,0,0,1-5.274,2.253,8.394,8.394,0,0,1-6.373-2.725l.585-.509a7.528,7.528,0,0,0,5.824,2.47,5.749,5.749,0,0,0,4.634-2.016,8.027,8.027,0,0,0,1.7-5.359,6.907,6.907,0,0,0-1.557-4.85,5.519,5.519,0,0,0-4.267-1.688,7.524,7.524,0,0,0-2.435.345,10.889,10.889,0,0,0-2.216,1.107h-.66V311.337h11.209Z"/>
            <g class="ae">
                <path class="s"
                      d="M876.934,359.953h-.865l-.462-4.851q-.283-2.826-.388-4.408l-2.565,8.061h-.85l-2.654-8.061q-.075,1.434-.3,3.8l-.044.577-.448,4.881h-.85l.97-10.131h1.237l2.535,7.883,2.446-7.883h1.253Z"/>
                <path class="s"
                      d="M884.353,353.113a4.51,4.51,0,0,1,.872,2.95,4.561,4.561,0,0,1-.887,2.966,3.259,3.259,0,0,1-4.847.014,4.547,4.547,0,0,1-.872-2.95,5.307,5.307,0,0,1,.4-2.145,3,3,0,0,1,2.909-1.893A2.966,2.966,0,0,1,884.353,353.113Zm-4.183.509a5.188,5.188,0,0,0-.008,4.926,2.047,2.047,0,0,0,1.753.843,2.083,2.083,0,0,0,1.766-.843,5.165,5.165,0,0,0,.016-4.933,2.272,2.272,0,0,0-3.527.007Z"/>
                <path class="s"
                      d="M892.525,352.676a2.514,2.514,0,0,1,.56,1.745v5.532h-.865V354.54a2.044,2.044,0,0,0-.373-1.361,1.385,1.385,0,0,0-1.1-.429,2.225,2.225,0,0,0-1.319.407,4.469,4.469,0,0,0-1.1,1.19v5.606h-.865v-7.736h.745l.09,1.317a3.655,3.655,0,0,1,1.133-1.087,2.826,2.826,0,0,1,1.476-.392A2.06,2.06,0,0,1,892.525,352.676Z"/>
                <path class="s"
                      d="M901.436,349.067v10.886h-.746l-.1-1.183a2.576,2.576,0,0,1-2.342,1.346,2.508,2.508,0,0,1-2.14-1.073,4.857,4.857,0,0,1-.783-2.92,5.678,5.678,0,0,1,.366-2.116,3.236,3.236,0,0,1,1.058-1.435,2.663,2.663,0,0,1,1.633-.517,2.718,2.718,0,0,1,2.192,1.05v-4.142Zm-1.8,9.985a3.262,3.262,0,0,0,.931-1.08v-4.039a2.453,2.453,0,0,0-2.043-1.168,1.949,1.949,0,0,0-1.677.873,4.15,4.15,0,0,0-.6,2.469,4.407,4.407,0,0,0,.567,2.448,1.781,1.781,0,0,0,1.565.85A2.182,2.182,0,0,0,899.639,359.052Z"/>
                <path class="s"
                      d="M909.3,359.11a.955.955,0,0,0,.5.4l-.193.607a1.537,1.537,0,0,1-.828-.4,1.577,1.577,0,0,1-.38-.9,2.67,2.67,0,0,1-2.431,1.3,2.435,2.435,0,0,1-1.768-.629,2.231,2.231,0,0,1-.648-1.678,2.182,2.182,0,0,1,.858-1.849,3.851,3.851,0,0,1,2.378-.652h1.491v-.754a1.867,1.867,0,0,0-.417-1.353,1.9,1.9,0,0,0-1.387-.422,6.387,6.387,0,0,0-2.118.444l-.223-.651a6.744,6.744,0,0,1,2.46-.517q2.552,0,2.55,2.455v3.727A1.8,1.8,0,0,0,909.3,359.11Zm-1.022-1.05v-2.13h-1.357a3.058,3.058,0,0,0-1.819.458,1.593,1.593,0,0,0-.626,1.375,1.5,1.5,0,0,0,1.64,1.658A2.369,2.369,0,0,0,908.28,358.06Z"/>
                <path class="s"
                      d="M914.26,359.983a6.919,6.919,0,0,1-.686,1.479,3.116,3.116,0,0,1-.969.953,4.362,4.362,0,0,1-1.536.555l-.09-.665a4.2,4.2,0,0,0,1.216-.473,2.212,2.212,0,0,0,.7-.7,6.289,6.289,0,0,0,.529-1.175h-.3l-2.714-7.736h.939l2.356,7.1,2.312-7.1h.91Z"/>
                <path class="s"
                      d="M926.772,350.828h-4.027v3.356a3.449,3.449,0,0,1,1.7-.458,2.626,2.626,0,0,1,2.035.821,3.189,3.189,0,0,1,.753,2.241,3.679,3.679,0,0,1-.4,1.723,2.864,2.864,0,0,1-1.118,1.184,3.275,3.275,0,0,1-1.678.421,3.761,3.761,0,0,1-2.8-1.183l.538-.518a3.154,3.154,0,0,0,1.014.739,3.073,3.073,0,0,0,1.252.237,2.1,2.1,0,0,0,1.67-.7,2.814,2.814,0,0,0,.611-1.915,2.473,2.473,0,0,0-.558-1.767,2,2,0,0,0-1.514-.585,2.9,2.9,0,0,0-.843.111,4.215,4.215,0,0,0-.813.363h-.686v-4.778h5Z"/>
                <path class="s"
                      d="M938.791,359.953l-.9-2.766H933.6l-.9,2.766h-.91l3.415-10.131h1.119l3.4,10.131Zm-4.936-3.52h3.8l-1.894-5.886Z"/>
                <path class="s"
                      d="M946.74,359.953h-.746l-.044-1.375a2.85,2.85,0,0,1-2.55,1.538,2.129,2.129,0,0,1-1.634-.614,2.475,2.475,0,0,1-.574-1.753v-5.532h.865v5.444a1.935,1.935,0,0,0,.381,1.324,1.476,1.476,0,0,0,1.155.42,2.665,2.665,0,0,0,2.282-1.582v-5.606h.865Z"/>
                <path class="s"
                      d="M955.4,352.38a9.719,9.719,0,0,1-2.162.222,2.151,2.151,0,0,1,1.327,2.1,2.389,2.389,0,0,1-.76,1.842,2.918,2.918,0,0,1-2.058.7,3.161,3.161,0,0,1-1.015-.148,1.328,1.328,0,0,0-.44.392.864.864,0,0,0-.156.495q0,.8,1.238.8h1.267a2.792,2.792,0,0,1,1.827.555,1.756,1.756,0,0,1,.679,1.426,1.867,1.867,0,0,1-.85,1.642,6.015,6.015,0,0,1-5.033.052,1.919,1.919,0,0,1-.754-1.694h.806a1.615,1.615,0,0,0,.239.888,1.279,1.279,0,0,0,.745.473,5.6,5.6,0,0,0,1.462.148,3.682,3.682,0,0,0,1.908-.377,1.211,1.211,0,0,0,.6-1.087,1.1,1.1,0,0,0-.462-.954,2.191,2.191,0,0,0-1.3-.333h-1.268a2.3,2.3,0,0,1-1.424-.384,1.184,1.184,0,0,1-.5-.977,1.3,1.3,0,0,1,.224-.725,2.015,2.015,0,0,1,.626-.591,2.361,2.361,0,0,1-.992-.872,2.485,2.485,0,0,1-.321-1.3,2.449,2.449,0,0,1,.791-1.893,2.946,2.946,0,0,1,2.073-.724,12.063,12.063,0,0,0,2.065-.1,7.068,7.068,0,0,0,1.35-.4Zm-5.152.873a1.988,1.988,0,0,0-.5,1.419,1.911,1.911,0,0,0,.53,1.435,2.3,2.3,0,0,0,2.9.007,1.932,1.932,0,0,0,.507-1.426,2,2,0,0,0-.5-1.45,1.95,1.95,0,0,0-1.469-.517A1.919,1.919,0,0,0,950.252,353.253Z"/>
                <path class="s"
                      d="M962.13,359.953h-.746l-.044-1.375a2.851,2.851,0,0,1-2.551,1.538,2.126,2.126,0,0,1-1.633-.614,2.47,2.47,0,0,1-.574-1.753v-5.532h.865v5.444a1.935,1.935,0,0,0,.38,1.324,1.48,1.48,0,0,0,1.156.42,2.665,2.665,0,0,0,2.282-1.582v-5.606h.865Z"/>
                <path class="s"
                      d="M968.229,352.27a4.361,4.361,0,0,1,1.163.643l-.4.562a4.483,4.483,0,0,0-1.014-.54,3.082,3.082,0,0,0-1.044-.17,2.044,2.044,0,0,0-1.253.355,1.121,1.121,0,0,0-.478.946,1.03,1.03,0,0,0,.411.873,4.549,4.549,0,0,0,1.484.592,4.735,4.735,0,0,1,1.916.857,1.87,1.87,0,0,1,.589,1.48,1.945,1.945,0,0,1-.8,1.641,3.25,3.25,0,0,1-2.013.607,4.336,4.336,0,0,1-1.567-.259,4.176,4.176,0,0,1-1.222-.733l.477-.546a3.83,3.83,0,0,0,1.066.613,3.56,3.56,0,0,0,1.231.2,2.283,2.283,0,0,0,1.394-.392,1.275,1.275,0,0,0,.529-1.087,1.462,1.462,0,0,0-.179-.769,1.429,1.429,0,0,0-.611-.511,7.221,7.221,0,0,0-1.268-.436,4.375,4.375,0,0,1-1.782-.813,1.663,1.663,0,0,1-.544-1.3,1.711,1.711,0,0,1,.343-1.043,2.24,2.24,0,0,1,.932-.725,3.238,3.238,0,0,1,1.319-.259A3.879,3.879,0,0,1,968.229,352.27Z"/>
                <path class="s"
                      d="M975.164,359.628a2.937,2.937,0,0,1-1.641.488,1.856,1.856,0,0,1-1.4-.525,2.094,2.094,0,0,1-.507-1.517v-5.161H970.3v-.7h1.313v-1.849l.865-.1v1.951h2.013l-.1.7H972.48v5.117a1.533,1.533,0,0,0,.283,1.013,1.07,1.07,0,0,0,.865.334,2.392,2.392,0,0,0,1.193-.341Z"/>
            </g>
            <g class="af">
                <path class="s"
                      d="M964.483,311.524a1.676,1.676,0,0,1,.607,1.419,1.733,1.733,0,0,1-.635,1.486,2.856,2.856,0,0,1-1.737.472h-.908v2.454h-.556v-6.3h1.491A2.818,2.818,0,0,1,964.483,311.524Zm-.44,2.587a1.344,1.344,0,0,0,.463-1.158,1.29,1.29,0,0,0-.45-1.107,2.182,2.182,0,0,0-1.32-.335h-.926v2.94h.908A2.211,2.211,0,0,0,964.043,314.111Z"/>
                <path class="s"
                      d="M971.539,317.355H971l-.287-3.014q-.177-1.755-.241-2.738l-1.594,5.008h-.528L966.7,311.6q-.047.891-.185,2.36l-.028.359-.278,3.033h-.529l.6-6.3h.769l1.575,4.9,1.519-4.9h.779Z"/>
            </g>
        </g>
    </g>
</svg>
