<svg width="527" height="565" viewBox="0 0 527 565" fill="none" xmlns="http://www.w3.org/2000/svg">
<path d="M251.98 0H12.0195C5.38133 0 0 6.25289 0 13.9662V482.034C0 489.747 5.38133 496 12.0195 496H251.98C258.619 496 264 489.747 264 482.034V13.9662C264 6.25289 258.619 0 251.98 0Z" fill="#8A7CC7"/>
<path d="M24.4731 18.0469L22.0649 24.5771H26.8901L24.4731 18.0469ZM23.4712 16.2979H25.4839L30.4849 29.4199H28.6392L27.4438 26.0537H21.5288L20.3335 29.4199H18.4614L23.4712 16.2979ZM37.2524 23.7686H41.9897V25.21H37.2524V23.7686ZM54.7603 18.0469L52.3521 24.5771H57.1772L54.7603 18.0469ZM53.7583 16.2979H55.771L60.772 29.4199H58.9263L57.731 26.0537H51.8159L50.6206 29.4199H48.7485L53.7583 16.2979ZM62.6968 16.2979H64.4722V27.9258H70.8618V29.4199H62.6968V16.2979ZM74.5093 17.7568V22.6875H76.7417C77.5679 22.6875 78.2065 22.4736 78.6577 22.0459C79.1089 21.6182 79.3345 21.0088 79.3345 20.2178C79.3345 19.4326 79.1089 18.8262 78.6577 18.3984C78.2065 17.9707 77.5679 17.7568 76.7417 17.7568H74.5093ZM72.7339 16.2979H76.7417C78.2124 16.2979 79.3228 16.6318 80.0728 17.2998C80.8286 17.9619 81.2065 18.9346 81.2065 20.2178C81.2065 21.5127 80.8286 22.4912 80.0728 23.1533C79.3228 23.8154 78.2124 24.1465 76.7417 24.1465H74.5093V29.4199H72.7339V16.2979ZM83.5972 16.2979H85.3726V21.6768H91.8237V16.2979H93.5991V29.4199H91.8237V23.1709H85.3726V29.4199H83.5972V16.2979ZM101.518 18.0469L99.1099 24.5771H103.935L101.518 18.0469ZM100.516 16.2979H102.529L107.53 29.4199H105.684L104.489 26.0537H98.5737L97.3784 29.4199H95.5063L100.516 16.2979Z" fill="white"/>
<path d="M21.6162 48.2144V53.022H24.4639C25.4189 53.022 26.125 52.8257 26.582 52.4331C27.0449 52.0347 27.2764 51.4282 27.2764 50.6138C27.2764 49.7935 27.0449 49.1899 26.582 48.8032C26.125 48.4106 25.4189 48.2144 24.4639 48.2144H21.6162ZM21.6162 42.8179V46.7729H24.2441C25.1113 46.7729 25.7559 46.6118 26.1777 46.2896C26.6055 45.9614 26.8193 45.4634 26.8193 44.7954C26.8193 44.1333 26.6055 43.6382 26.1777 43.3101C25.7559 42.9819 25.1113 42.8179 24.2441 42.8179H21.6162ZM19.8408 41.3589H24.376C25.7295 41.3589 26.7725 41.6401 27.5049 42.2026C28.2373 42.7651 28.6035 43.5649 28.6035 44.6021C28.6035 45.4048 28.416 46.0435 28.041 46.5181C27.666 46.9927 27.1152 47.2886 26.3887 47.4058C27.2617 47.5933 27.9385 47.9858 28.4189 48.5835C28.9053 49.1753 29.1484 49.9165 29.1484 50.8071C29.1484 51.979 28.75 52.8843 27.9531 53.5229C27.1562 54.1616 26.0225 54.481 24.5518 54.481H19.8408V41.3589ZM37.041 48.8296H41.7783V50.271H37.041V48.8296ZM51.9385 48.2144V53.022H54.7861C55.7412 53.022 56.4473 52.8257 56.9043 52.4331C57.3672 52.0347 57.5986 51.4282 57.5986 50.6138C57.5986 49.7935 57.3672 49.1899 56.9043 48.8032C56.4473 48.4106 55.7412 48.2144 54.7861 48.2144H51.9385ZM51.9385 42.8179V46.7729H54.5664C55.4336 46.7729 56.0781 46.6118 56.5 46.2896C56.9277 45.9614 57.1416 45.4634 57.1416 44.7954C57.1416 44.1333 56.9277 43.6382 56.5 43.3101C56.0781 42.9819 55.4336 42.8179 54.5664 42.8179H51.9385ZM50.1631 41.3589H54.6982C56.0518 41.3589 57.0947 41.6401 57.8271 42.2026C58.5596 42.7651 58.9258 43.5649 58.9258 44.6021C58.9258 45.4048 58.7383 46.0435 58.3633 46.5181C57.9883 46.9927 57.4375 47.2886 56.7109 47.4058C57.584 47.5933 58.2607 47.9858 58.7412 48.5835C59.2275 49.1753 59.4707 49.9165 59.4707 50.8071C59.4707 51.979 59.0723 52.8843 58.2754 53.5229C57.4785 54.1616 56.3447 54.481 54.874 54.481H50.1631V41.3589ZM62.5205 41.3589H70.8174V42.853H64.2959V46.7378H70.5449V48.2319H64.2959V52.9868H70.9756V54.481H62.5205V41.3589ZM72.0742 41.3589H83.1748V42.853H78.5166V54.481H76.7324V42.853H72.0742V41.3589ZM87.877 43.1079L85.4688 49.6382H90.2939L87.877 43.1079ZM86.875 41.3589H88.8877L93.8887 54.481H92.043L90.8477 51.1147H84.9326L83.7373 54.481H81.8652L86.875 41.3589Z" fill="white"/>
<path d="M29.667 67.4316V69.3037C29.0693 68.7471 28.4307 68.3311 27.751 68.0557C27.0771 67.7803 26.3594 67.6426 25.5977 67.6426C24.0977 67.6426 22.9492 68.1025 22.1523 69.0225C21.3555 69.9365 20.957 71.2607 20.957 72.9951C20.957 74.7236 21.3555 76.0479 22.1523 76.9678C22.9492 77.8818 24.0977 78.3389 25.5977 78.3389C26.3594 78.3389 27.0771 78.2012 27.751 77.9258C28.4307 77.6504 29.0693 77.2344 29.667 76.6777V78.5322C29.0459 78.9541 28.3867 79.2705 27.6895 79.4814C26.998 79.6924 26.2656 79.7979 25.4922 79.7979C23.5059 79.7979 21.9414 79.1914 20.7988 77.9785C19.6562 76.7598 19.085 75.0986 19.085 72.9951C19.085 70.8857 19.6562 69.2246 20.7988 68.0117C21.9414 66.793 23.5059 66.1836 25.4922 66.1836C26.2773 66.1836 27.0156 66.2891 27.707 66.5C28.4043 66.7051 29.0576 67.0156 29.667 67.4316ZM37.252 73.8916H41.9893V75.333H37.252V73.8916ZM60.2002 67.4316V69.3037C59.6025 68.7471 58.9639 68.3311 58.2842 68.0557C57.6104 67.7803 56.8926 67.6426 56.1309 67.6426C54.6309 67.6426 53.4824 68.1025 52.6855 69.0225C51.8887 69.9365 51.4902 71.2607 51.4902 72.9951C51.4902 74.7236 51.8887 76.0479 52.6855 76.9678C53.4824 77.8818 54.6309 78.3389 56.1309 78.3389C56.8926 78.3389 57.6104 78.2012 58.2842 77.9258C58.9639 77.6504 59.6025 77.2344 60.2002 76.6777V78.5322C59.5791 78.9541 58.9199 79.2705 58.2227 79.4814C57.5312 79.6924 56.7988 79.7979 56.0254 79.7979C54.0391 79.7979 52.4746 79.1914 51.332 77.9785C50.1895 76.7598 49.6182 75.0986 49.6182 72.9951C49.6182 70.8857 50.1895 69.2246 51.332 68.0117C52.4746 66.793 54.0391 66.1836 56.0254 66.1836C56.8105 66.1836 57.5488 66.2891 58.2402 66.5C58.9375 66.7051 59.5908 67.0156 60.2002 67.4316ZM62.7402 66.4209H64.5244V74.3926C64.5244 75.7988 64.7793 76.8125 65.2891 77.4336C65.7988 78.0488 66.625 78.3564 67.7676 78.3564C68.9043 78.3564 69.7275 78.0488 70.2373 77.4336C70.7471 76.8125 71.002 75.7988 71.002 74.3926V66.4209H72.7861V74.6123C72.7861 76.3232 72.3613 77.6152 71.5117 78.4883C70.668 79.3613 69.4199 79.7979 67.7676 79.7979C66.1094 79.7979 64.8555 79.3613 64.0059 78.4883C63.1621 77.6152 62.7402 76.3232 62.7402 74.6123V66.4209ZM77.9014 67.8799V72.8105H80.1338C80.96 72.8105 81.5986 72.5967 82.0498 72.1689C82.501 71.7412 82.7266 71.1318 82.7266 70.3408C82.7266 69.5557 82.501 68.9492 82.0498 68.5215C81.5986 68.0938 80.96 67.8799 80.1338 67.8799H77.9014ZM76.126 66.4209H80.1338C81.6045 66.4209 82.7148 66.7549 83.4648 67.4229C84.2207 68.085 84.5986 69.0576 84.5986 70.3408C84.5986 71.6357 84.2207 72.6143 83.4648 73.2764C82.7148 73.9385 81.6045 74.2695 80.1338 74.2695H77.9014V79.543H76.126V66.4209ZM96.8154 67.4316V69.3037C96.2178 68.7471 95.5791 68.3311 94.8994 68.0557C94.2256 67.7803 93.5078 67.6426 92.7461 67.6426C91.2461 67.6426 90.0977 68.1025 89.3008 69.0225C88.5039 69.9365 88.1055 71.2607 88.1055 72.9951C88.1055 74.7236 88.5039 76.0479 89.3008 76.9678C90.0977 77.8818 91.2461 78.3389 92.7461 78.3389C93.5078 78.3389 94.2256 78.2012 94.8994 77.9258C95.5791 77.6504 96.2178 77.2344 96.8154 76.6777V78.5322C96.1943 78.9541 95.5352 79.2705 94.8379 79.4814C94.1465 79.6924 93.4141 79.7979 92.6406 79.7979C90.6543 79.7979 89.0898 79.1914 87.9473 77.9785C86.8047 76.7598 86.2334 75.0986 86.2334 72.9951C86.2334 70.8857 86.8047 69.2246 87.9473 68.0117C89.0898 66.793 90.6543 66.1836 92.6406 66.1836C93.4258 66.1836 94.1641 66.2891 94.8555 66.5C95.5527 66.7051 96.2061 67.0156 96.8154 67.4316ZM103.943 68.1699L101.535 74.7002H106.36L103.943 68.1699ZM102.941 66.4209H104.954L109.955 79.543H108.109L106.914 76.1768H100.999L99.8037 79.543H97.9316L102.941 66.4209ZM111.88 66.4209H113.655V71.9668L119.544 66.4209H121.829L115.316 72.5381L122.295 79.543H119.957L113.655 73.2236V79.543H111.88V66.4209ZM123.692 66.4209H131.989V67.915H125.468V71.7998H131.717V73.2939H125.468V78.0488H132.147V79.543H123.692V66.4209Z" fill="white"/>
<path d="M21.6162 92.9419V103.146H23.7607C25.5713 103.146 26.8955 102.736 27.7334 101.916C28.5771 101.095 28.999 99.8003 28.999 98.0308C28.999 96.2729 28.5771 94.9868 27.7334 94.1724C26.8955 93.3521 25.5713 92.9419 23.7607 92.9419H21.6162ZM19.8408 91.4829H23.4883C26.0312 91.4829 27.8975 92.0132 29.0869 93.0737C30.2764 94.1284 30.8711 95.7808 30.8711 98.0308C30.8711 100.292 30.2734 101.954 29.0781 103.014C27.8828 104.075 26.0195 104.605 23.4883 104.605H19.8408V91.4829ZM38.5527 98.9536H43.29V100.395H38.5527V98.9536ZM53.4502 92.9419V103.146H55.5947C57.4053 103.146 58.7295 102.736 59.5674 101.916C60.4111 101.095 60.833 99.8003 60.833 98.0308C60.833 96.2729 60.4111 94.9868 59.5674 94.1724C58.7295 93.3521 57.4053 92.9419 55.5947 92.9419H53.4502ZM51.6748 91.4829H55.3223C57.8652 91.4829 59.7314 92.0132 60.9209 93.0737C62.1104 94.1284 62.7051 95.7808 62.7051 98.0308C62.7051 100.292 62.1074 101.954 60.9121 103.014C59.7168 104.075 57.8535 104.605 55.3223 104.605H51.6748V91.4829ZM70.8701 92.687C69.5811 92.687 68.5557 93.1675 67.7939 94.1284C67.0381 95.0894 66.6602 96.3989 66.6602 98.0571C66.6602 99.7095 67.0381 101.016 67.7939 101.977C68.5557 102.938 69.5811 103.418 70.8701 103.418C72.1592 103.418 73.1787 102.938 73.9287 101.977C74.6846 101.016 75.0625 99.7095 75.0625 98.0571C75.0625 96.3989 74.6846 95.0894 73.9287 94.1284C73.1787 93.1675 72.1592 92.687 70.8701 92.687ZM70.8701 91.2456C72.71 91.2456 74.1807 91.8638 75.2822 93.1001C76.3838 94.3306 76.9346 95.9829 76.9346 98.0571C76.9346 100.125 76.3838 101.778 75.2822 103.014C74.1807 104.245 72.71 104.86 70.8701 104.86C69.0244 104.86 67.5479 104.245 66.4404 103.014C65.3389 101.784 64.7881 100.131 64.7881 98.0571C64.7881 95.9829 65.3389 94.3306 66.4404 93.1001C67.5479 91.8638 69.0244 91.2456 70.8701 91.2456ZM79.7119 91.4829H82.1025L87.9209 102.46V91.4829H89.6436V104.605H87.2529L81.4346 93.6274V104.605H79.7119V91.4829ZM92.9746 91.4829H94.7588V99.4546C94.7588 100.861 95.0137 101.875 95.5234 102.496C96.0332 103.111 96.8594 103.418 98.002 103.418C99.1387 103.418 99.9619 103.111 100.472 102.496C100.981 101.875 101.236 100.861 101.236 99.4546V91.4829H103.021V99.6743C103.021 101.385 102.596 102.677 101.746 103.55C100.902 104.423 99.6543 104.86 98.002 104.86C96.3438 104.86 95.0898 104.423 94.2402 103.55C93.3965 102.677 92.9746 101.385 92.9746 99.6743V91.4829ZM104.541 91.4829H115.642V92.9771H110.983V104.605H109.199V92.9771H104.541V91.4829Z" fill="white"/>
<path d="M19.8408 116.545H28.1377V118.039H21.6162V121.924H27.8652V123.418H21.6162V128.173H28.2959V129.667H19.8408V116.545ZM36.0566 124.016H40.7939V125.457H36.0566V124.016ZM49.1787 116.545H57.4756V118.039H50.9541V121.924H57.2031V123.418H50.9541V128.173H57.6338V129.667H49.1787V116.545ZM70.3779 117.556V119.428C69.7803 118.871 69.1416 118.455 68.4619 118.18C67.7881 117.904 67.0703 117.767 66.3086 117.767C64.8086 117.767 63.6602 118.227 62.8633 119.146C62.0664 120.061 61.668 121.385 61.668 123.119C61.668 124.848 62.0664 126.172 62.8633 127.092C63.6602 128.006 64.8086 128.463 66.3086 128.463C67.0703 128.463 67.7881 128.325 68.4619 128.05C69.1416 127.774 69.7803 127.358 70.3779 126.802V128.656C69.7568 129.078 69.0977 129.395 68.4004 129.605C67.709 129.816 66.9766 129.922 66.2031 129.922C64.2168 129.922 62.6523 129.315 61.5098 128.103C60.3672 126.884 59.7959 125.223 59.7959 123.119C59.7959 121.01 60.3672 119.349 61.5098 118.136C62.6523 116.917 64.2168 116.308 66.2031 116.308C66.9883 116.308 67.7266 116.413 68.418 116.624C69.1152 116.829 69.7686 117.14 70.3779 117.556ZM73.1201 116.545H74.8955V128.173H81.2852V129.667H73.1201V116.545ZM87.9648 118.294L85.5566 124.824H90.3818L87.9648 118.294ZM86.9629 116.545H88.9756L93.9766 129.667H92.1309L90.9355 126.301H85.0205L83.8252 129.667H81.9531L86.9629 116.545ZM95.9014 116.545H97.6768V129.667H95.9014V116.545ZM107.433 123.515C107.813 123.644 108.183 123.919 108.54 124.341C108.903 124.763 109.267 125.343 109.63 126.081L111.432 129.667H109.524L107.846 126.301C107.412 125.422 106.99 124.839 106.58 124.552C106.176 124.265 105.622 124.121 104.919 124.121H102.985V129.667H101.21V116.545H105.218C106.718 116.545 107.837 116.858 108.575 117.485C109.313 118.112 109.683 119.059 109.683 120.324C109.683 121.15 109.489 121.836 109.103 122.381C108.722 122.926 108.165 123.304 107.433 123.515ZM102.985 118.004V122.662H105.218C106.073 122.662 106.718 122.466 107.151 122.073C107.591 121.675 107.811 121.092 107.811 120.324C107.811 119.557 107.591 118.979 107.151 118.593C106.718 118.2 106.073 118.004 105.218 118.004H102.985Z" fill="white"/>
<path d="M19.8408 141.606H27.3818V143.1H21.6162V146.967H26.8193V148.461H21.6162V154.728H19.8408V141.606ZM35.0371 149.077H39.7744V150.518H35.0371V149.077ZM48.1592 141.606H55.7002V143.1H49.9346V146.967H55.1377V148.461H49.9346V154.728H48.1592V141.606ZM64.7354 148.576C65.1162 148.705 65.4854 148.98 65.8428 149.402C66.2061 149.824 66.5693 150.404 66.9326 151.142L68.7344 154.728H66.8271L65.1484 151.362C64.7148 150.483 64.293 149.9 63.8828 149.613C63.4785 149.326 62.9248 149.182 62.2217 149.182H60.2881V154.728H58.5127V141.606H62.5205C64.0205 141.606 65.1396 141.919 65.8779 142.546C66.6162 143.173 66.9854 144.12 66.9854 145.385C66.9854 146.211 66.792 146.897 66.4053 147.442C66.0244 147.987 65.4678 148.365 64.7354 148.576ZM60.2881 143.065V147.723H62.5205C63.376 147.723 64.0205 147.527 64.4541 147.134C64.8936 146.736 65.1133 146.153 65.1133 145.385C65.1133 144.618 64.8936 144.041 64.4541 143.654C64.0205 143.261 63.376 143.065 62.5205 143.065H60.2881ZM76.3545 142.81C75.0654 142.81 74.04 143.291 73.2783 144.251C72.5225 145.212 72.1445 146.522 72.1445 148.18C72.1445 149.833 72.5225 151.139 73.2783 152.1C74.04 153.061 75.0654 153.542 76.3545 153.542C77.6436 153.542 78.6631 153.061 79.4131 152.1C80.1689 151.139 80.5469 149.833 80.5469 148.18C80.5469 146.522 80.1689 145.212 79.4131 144.251C78.6631 143.291 77.6436 142.81 76.3545 142.81ZM76.3545 141.369C78.1943 141.369 79.665 141.987 80.7666 143.223C81.8682 144.454 82.4189 146.106 82.4189 148.18C82.4189 150.249 81.8682 151.901 80.7666 153.137C79.665 154.368 78.1943 154.983 76.3545 154.983C74.5088 154.983 73.0322 154.368 71.9248 153.137C70.8232 151.907 70.2725 150.254 70.2725 148.18C70.2725 146.106 70.8232 144.454 71.9248 143.223C73.0322 141.987 74.5088 141.369 76.3545 141.369ZM82.4102 141.606H84.3174L87.9561 147.002L91.5684 141.606H93.4756L88.835 148.479V154.728H87.0508V148.479L82.4102 141.606ZM98.1953 143.355L95.7871 149.885H100.612L98.1953 143.355ZM97.1934 141.606H99.2061L104.207 154.728H102.361L101.166 151.362H95.251L94.0557 154.728H92.1836L97.1934 141.606Z" fill="white"/>
<path d="M28.7881 177.918V174.394H25.8877V172.935H30.5459V178.568C29.8604 179.055 29.1045 179.424 28.2783 179.676C27.4521 179.922 26.5703 180.045 25.6328 180.045C23.582 180.045 21.9766 179.447 20.8164 178.252C19.6621 177.051 19.085 175.381 19.085 173.242C19.085 171.098 19.6621 169.428 20.8164 168.232C21.9766 167.031 23.582 166.431 25.6328 166.431C26.4883 166.431 27.2998 166.536 28.0674 166.747C28.8408 166.958 29.5527 167.269 30.2031 167.679V169.568C29.5469 169.012 28.8496 168.593 28.1113 168.312C27.373 168.03 26.5967 167.89 25.7822 167.89C24.1768 167.89 22.9697 168.338 22.1611 169.234C21.3584 170.131 20.957 171.467 20.957 173.242C20.957 175.012 21.3584 176.345 22.1611 177.241C22.9697 178.138 24.1768 178.586 25.7822 178.586C26.4092 178.586 26.9688 178.533 27.4609 178.428C27.9531 178.316 28.3955 178.146 28.7881 177.918ZM38.6406 174.139H43.3779V175.58H38.6406V174.139ZM60.71 177.918V174.394H57.8096V172.935H62.4678V178.568C61.7822 179.055 61.0264 179.424 60.2002 179.676C59.374 179.922 58.4922 180.045 57.5547 180.045C55.5039 180.045 53.8984 179.447 52.7383 178.252C51.584 177.051 51.0068 175.381 51.0068 173.242C51.0068 171.098 51.584 169.428 52.7383 168.232C53.8984 167.031 55.5039 166.431 57.5547 166.431C58.4102 166.431 59.2217 166.536 59.9893 166.747C60.7627 166.958 61.4746 167.269 62.125 167.679V169.568C61.4688 169.012 60.7715 168.593 60.0332 168.312C59.2949 168.03 58.5186 167.89 57.7041 167.89C56.0986 167.89 54.8916 168.338 54.083 169.234C53.2803 170.131 52.8789 171.467 52.8789 173.242C52.8789 175.012 53.2803 176.345 54.083 177.241C54.8916 178.138 56.0986 178.586 57.7041 178.586C58.3311 178.586 58.8906 178.533 59.3828 178.428C59.875 178.316 60.3174 178.146 60.71 177.918ZM65.7197 166.668H67.4951V179.79H65.7197V166.668ZM71.0283 166.668H73.4189L79.2373 177.646V166.668H80.96V179.79H78.5693L72.751 168.812V179.79H71.0283V166.668ZM93.4404 177.918V174.394H90.54V172.935H95.1982V178.568C94.5127 179.055 93.7568 179.424 92.9307 179.676C92.1045 179.922 91.2227 180.045 90.2852 180.045C88.2344 180.045 86.6289 179.447 85.4688 178.252C84.3145 177.051 83.7373 175.381 83.7373 173.242C83.7373 171.098 84.3145 169.428 85.4688 168.232C86.6289 167.031 88.2344 166.431 90.2852 166.431C91.1406 166.431 91.9521 166.536 92.7197 166.747C93.4932 166.958 94.2051 167.269 94.8555 167.679V169.568C94.1992 169.012 93.502 168.593 92.7637 168.312C92.0254 168.03 91.249 167.89 90.4346 167.89C88.8291 167.89 87.6221 168.338 86.8135 169.234C86.0107 170.131 85.6094 171.467 85.6094 173.242C85.6094 175.012 86.0107 176.345 86.8135 177.241C87.6221 178.138 88.8291 178.586 90.4346 178.586C91.0615 178.586 91.6211 178.533 92.1133 178.428C92.6055 178.316 93.0479 178.146 93.4404 177.918ZM98.4502 166.668H106.747V168.162H100.226V172.047H106.475V173.541H100.226V178.296H106.905V179.79H98.4502V166.668ZM116.046 173.638C116.427 173.767 116.796 174.042 117.153 174.464C117.517 174.886 117.88 175.466 118.243 176.204L120.045 179.79H118.138L116.459 176.424C116.025 175.545 115.604 174.962 115.193 174.675C114.789 174.388 114.235 174.244 113.532 174.244H111.599V179.79H109.823V166.668H113.831C115.331 166.668 116.45 166.981 117.188 167.608C117.927 168.235 118.296 169.182 118.296 170.447C118.296 171.273 118.103 171.959 117.716 172.504C117.335 173.049 116.778 173.427 116.046 173.638ZM111.599 168.127V172.785H113.831C114.687 172.785 115.331 172.589 115.765 172.196C116.204 171.798 116.424 171.215 116.424 170.447C116.424 169.68 116.204 169.103 115.765 168.716C115.331 168.323 114.687 168.127 113.831 168.127H111.599ZM124.114 173.523V178.331H126.962C127.917 178.331 128.623 178.135 129.08 177.742C129.543 177.344 129.774 176.737 129.774 175.923C129.774 175.103 129.543 174.499 129.08 174.112C128.623 173.72 127.917 173.523 126.962 173.523H124.114ZM124.114 168.127V172.082H126.742C127.609 172.082 128.254 171.921 128.676 171.599C129.104 171.271 129.317 170.772 129.317 170.104C129.317 169.442 129.104 168.947 128.676 168.619C128.254 168.291 127.609 168.127 126.742 168.127H124.114ZM122.339 166.668H126.874C128.228 166.668 129.271 166.949 130.003 167.512C130.735 168.074 131.102 168.874 131.102 169.911C131.102 170.714 130.914 171.353 130.539 171.827C130.164 172.302 129.613 172.598 128.887 172.715C129.76 172.902 130.437 173.295 130.917 173.893C131.403 174.484 131.646 175.226 131.646 176.116C131.646 177.288 131.248 178.193 130.451 178.832C129.654 179.471 128.521 179.79 127.05 179.79H122.339V166.668ZM140.919 173.638C141.3 173.767 141.669 174.042 142.026 174.464C142.39 174.886 142.753 175.466 143.116 176.204L144.918 179.79H143.011L141.332 176.424C140.898 175.545 140.477 174.962 140.066 174.675C139.662 174.388 139.108 174.244 138.405 174.244H136.472V179.79H134.696V166.668H138.704C140.204 166.668 141.323 166.981 142.062 167.608C142.8 168.235 143.169 169.182 143.169 170.447C143.169 171.273 142.976 171.959 142.589 172.504C142.208 173.049 141.651 173.427 140.919 173.638ZM136.472 168.127V172.785H138.704C139.56 172.785 140.204 172.589 140.638 172.196C141.077 171.798 141.297 171.215 141.297 170.447C141.297 169.68 141.077 169.103 140.638 168.716C140.204 168.323 139.56 168.127 138.704 168.127H136.472ZM147.212 166.668H155.509V168.162H148.987V172.047H155.236V173.541H148.987V178.296H155.667V179.79H147.212V166.668ZM162.971 168.417L160.562 174.947H165.388L162.971 168.417ZM161.969 166.668H163.981L168.982 179.79H167.137L165.941 176.424H160.026L158.831 179.79H156.959L161.969 166.668ZM172.683 168.127V178.331H174.827C176.638 178.331 177.962 177.921 178.8 177.101C179.644 176.28 180.065 174.985 180.065 173.216C180.065 171.458 179.644 170.172 178.8 169.357C177.962 168.537 176.638 168.127 174.827 168.127H172.683ZM170.907 166.668H174.555C177.098 166.668 178.964 167.198 180.153 168.259C181.343 169.313 181.938 170.966 181.938 173.216C181.938 175.478 181.34 177.139 180.145 178.199C178.949 179.26 177.086 179.79 174.555 179.79H170.907V166.668Z" fill="white"/>
<path d="M19.8408 191.73H21.6162V197.109H28.0674V191.73H29.8428V204.852H28.0674V198.603H21.6162V204.852H19.8408V191.73ZM38.2188 199.201H42.9561V200.642H38.2188V199.201ZM51.3408 191.73H53.1162V197.109H59.5674V191.73H61.3428V204.852H59.5674V198.603H53.1162V204.852H51.3408V191.73ZM70.2021 192.934C68.9131 192.934 67.8877 193.415 67.126 194.375C66.3701 195.336 65.9922 196.646 65.9922 198.304C65.9922 199.957 66.3701 201.263 67.126 202.224C67.8877 203.185 68.9131 203.666 70.2021 203.666C71.4912 203.666 72.5107 203.185 73.2607 202.224C74.0166 201.263 74.3945 199.957 74.3945 198.304C74.3945 196.646 74.0166 195.336 73.2607 194.375C72.5107 193.415 71.4912 192.934 70.2021 192.934ZM70.2021 191.493C72.042 191.493 73.5127 192.111 74.6143 193.347C75.7158 194.578 76.2666 196.23 76.2666 198.304C76.2666 200.373 75.7158 202.025 74.6143 203.261C73.5127 204.492 72.042 205.107 70.2021 205.107C68.3564 205.107 66.8799 204.492 65.7725 203.261C64.6709 202.031 64.1201 200.378 64.1201 198.304C64.1201 196.23 64.6709 194.578 65.7725 193.347C66.8799 192.111 68.3564 191.493 70.2021 191.493ZM79.0439 191.73H81.4346L87.2529 202.708V191.73H88.9756V204.852H86.585L80.7666 193.875V204.852H79.0439V191.73ZM92.5088 191.73H100.806V193.224H94.2842V197.109H100.533V198.603H94.2842V203.358H100.964V204.852H92.5088V191.73ZM102.08 191.73H103.987L107.626 197.126L111.238 191.73H113.146L108.505 198.603V204.852H106.721V198.603L102.08 191.73ZM123.728 192.741V194.613C123.13 194.056 122.491 193.64 121.812 193.365C121.138 193.089 120.42 192.952 119.658 192.952C118.158 192.952 117.01 193.412 116.213 194.332C115.416 195.246 115.018 196.57 115.018 198.304C115.018 200.033 115.416 201.357 116.213 202.277C117.01 203.191 118.158 203.648 119.658 203.648C120.42 203.648 121.138 203.51 121.812 203.235C122.491 202.959 123.13 202.543 123.728 201.987V203.841C123.106 204.263 122.447 204.58 121.75 204.791C121.059 205.001 120.326 205.107 119.553 205.107C117.566 205.107 116.002 204.5 114.859 203.288C113.717 202.069 113.146 200.408 113.146 198.304C113.146 196.195 113.717 194.534 114.859 193.321C116.002 192.102 117.566 191.493 119.553 191.493C120.338 191.493 121.076 191.598 121.768 191.809C122.465 192.014 123.118 192.325 123.728 192.741ZM131.796 192.934C130.507 192.934 129.481 193.415 128.72 194.375C127.964 195.336 127.586 196.646 127.586 198.304C127.586 199.957 127.964 201.263 128.72 202.224C129.481 203.185 130.507 203.666 131.796 203.666C133.085 203.666 134.104 203.185 134.854 202.224C135.61 201.263 135.988 199.957 135.988 198.304C135.988 196.646 135.61 195.336 134.854 194.375C134.104 193.415 133.085 192.934 131.796 192.934ZM131.796 191.493C133.636 191.493 135.106 192.111 136.208 193.347C137.31 194.578 137.86 196.23 137.86 198.304C137.86 200.373 137.31 202.025 136.208 203.261C135.106 204.492 133.636 205.107 131.796 205.107C129.95 205.107 128.474 204.492 127.366 203.261C126.265 202.031 125.714 200.378 125.714 198.304C125.714 196.23 126.265 194.578 127.366 193.347C128.474 192.111 129.95 191.493 131.796 191.493ZM140.638 191.73H143.283L146.632 200.66L149.998 191.73H152.644V204.852H150.912V193.33L147.528 202.33H145.744L142.36 193.33V204.852H140.638V191.73ZM157.952 198.585V203.393H160.8C161.755 203.393 162.461 203.197 162.918 202.804C163.381 202.406 163.612 201.799 163.612 200.985C163.612 200.165 163.381 199.561 162.918 199.174C162.461 198.782 161.755 198.585 160.8 198.585H157.952ZM157.952 193.189V197.144H160.58C161.447 197.144 162.092 196.983 162.514 196.661C162.941 196.333 163.155 195.834 163.155 195.167C163.155 194.504 162.941 194.009 162.514 193.681C162.092 193.353 161.447 193.189 160.58 193.189H157.952ZM156.177 191.73H160.712C162.065 191.73 163.108 192.011 163.841 192.574C164.573 193.136 164.939 193.936 164.939 194.973C164.939 195.776 164.752 196.415 164.377 196.889C164.002 197.364 163.451 197.66 162.725 197.777C163.598 197.964 164.274 198.357 164.755 198.955C165.241 199.546 165.484 200.288 165.484 201.178C165.484 202.35 165.086 203.255 164.289 203.894C163.492 204.533 162.358 204.852 160.888 204.852H156.177V191.73Z" fill="white"/>
<path d="M19.8408 216.792H21.6162V229.914H19.8408V216.792ZM29.9922 224.263H34.7295V225.704H29.9922V224.263ZM43.1143 216.792H44.8896V229.914H43.1143V216.792ZM58.249 217.803V219.675C57.6514 219.118 57.0127 218.702 56.333 218.427C55.6592 218.151 54.9414 218.014 54.1797 218.014C52.6797 218.014 51.5312 218.474 50.7344 219.394C49.9375 220.308 49.5391 221.632 49.5391 223.366C49.5391 225.095 49.9375 226.419 50.7344 227.339C51.5312 228.253 52.6797 228.71 54.1797 228.71C54.9414 228.71 55.6592 228.572 56.333 228.297C57.0127 228.021 57.6514 227.605 58.249 227.049V228.903C57.6279 229.325 56.9688 229.642 56.2715 229.853C55.5801 230.063 54.8477 230.169 54.0742 230.169C52.0879 230.169 50.5234 229.562 49.3809 228.35C48.2383 227.131 47.667 225.47 47.667 223.366C47.667 221.257 48.2383 219.596 49.3809 218.383C50.5234 217.164 52.0879 216.555 54.0742 216.555C54.8594 216.555 55.5977 216.66 56.2891 216.871C56.9863 217.076 57.6396 217.387 58.249 217.803ZM60.9912 216.792H69.2881V218.286H62.7666V222.171H69.0156V223.665H62.7666V228.42H69.4463V229.914H60.9912V216.792ZM87.9209 217.803V219.675C87.3232 219.118 86.6846 218.702 86.0049 218.427C85.3311 218.151 84.6133 218.014 83.8516 218.014C82.3516 218.014 81.2031 218.474 80.4062 219.394C79.6094 220.308 79.2109 221.632 79.2109 223.366C79.2109 225.095 79.6094 226.419 80.4062 227.339C81.2031 228.253 82.3516 228.71 83.8516 228.71C84.6133 228.71 85.3311 228.572 86.0049 228.297C86.6846 228.021 87.3232 227.605 87.9209 227.049V228.903C87.2998 229.325 86.6406 229.642 85.9434 229.853C85.252 230.063 84.5195 230.169 83.7461 230.169C81.7598 230.169 80.1953 229.562 79.0527 228.35C77.9102 227.131 77.3389 225.47 77.3389 223.366C77.3389 221.257 77.9102 219.596 79.0527 218.383C80.1953 217.164 81.7598 216.555 83.7461 216.555C84.5312 216.555 85.2695 216.66 85.9609 216.871C86.6582 217.076 87.3115 217.387 87.9209 217.803ZM96.8857 223.762C97.2666 223.891 97.6357 224.166 97.9932 224.588C98.3564 225.01 98.7197 225.59 99.083 226.328L100.885 229.914H98.9775L97.2988 226.548C96.8652 225.669 96.4434 225.086 96.0332 224.799C95.6289 224.512 95.0752 224.368 94.3721 224.368H92.4385V229.914H90.6631V216.792H94.6709C96.1709 216.792 97.29 217.105 98.0283 217.732C98.7666 218.359 99.1357 219.306 99.1357 220.571C99.1357 221.397 98.9424 222.083 98.5557 222.628C98.1748 223.173 97.6182 223.551 96.8857 223.762ZM92.4385 218.251V222.909H94.6709C95.5264 222.909 96.1709 222.713 96.6045 222.32C97.0439 221.922 97.2637 221.339 97.2637 220.571C97.2637 219.804 97.0439 219.227 96.6045 218.84C96.1709 218.447 95.5264 218.251 94.6709 218.251H92.4385ZM103.179 216.792H111.476V218.286H104.954V222.171H111.203V223.665H104.954V228.42H111.634V229.914H103.179V216.792ZM118.938 218.541L116.529 225.071H121.354L118.938 218.541ZM117.936 216.792H119.948L124.949 229.914H123.104L121.908 226.548H115.993L114.798 229.914H112.926L117.936 216.792ZM126.874 216.792H129.52L132.868 225.722L136.234 216.792H138.88V229.914H137.148V218.392L133.765 227.392H131.98L128.597 218.392V229.914H126.874V216.792ZM156.01 217.223V218.954C155.336 218.632 154.7 218.392 154.103 218.233C153.505 218.075 152.928 217.996 152.371 217.996C151.404 217.996 150.657 218.184 150.13 218.559C149.608 218.934 149.348 219.467 149.348 220.158C149.348 220.738 149.521 221.178 149.866 221.477C150.218 221.77 150.88 222.007 151.853 222.188L152.925 222.408C154.249 222.66 155.225 223.105 155.852 223.744C156.484 224.377 156.801 225.227 156.801 226.293C156.801 227.564 156.373 228.528 155.518 229.185C154.668 229.841 153.42 230.169 151.773 230.169C151.152 230.169 150.49 230.099 149.787 229.958C149.09 229.817 148.366 229.609 147.616 229.334V227.506C148.337 227.91 149.043 228.215 149.734 228.42C150.426 228.625 151.105 228.728 151.773 228.728C152.787 228.728 153.569 228.528 154.12 228.13C154.671 227.731 154.946 227.163 154.946 226.425C154.946 225.78 154.747 225.276 154.349 224.913C153.956 224.55 153.309 224.277 152.406 224.096L151.325 223.885C150.001 223.621 149.043 223.208 148.451 222.646C147.859 222.083 147.563 221.301 147.563 220.299C147.563 219.139 147.971 218.225 148.785 217.557C149.605 216.889 150.733 216.555 152.169 216.555C152.784 216.555 153.411 216.61 154.05 216.722C154.688 216.833 155.342 217 156.01 217.223ZM164.289 218.541L161.881 225.071H166.706L164.289 218.541ZM163.287 216.792H165.3L170.301 229.914H168.455L167.26 226.548H161.345L160.149 229.914H158.277L163.287 216.792ZM172.226 216.792H174.616L180.435 227.77V216.792H182.157V229.914H179.767L173.948 218.937V229.914H172.226V216.792ZM187.466 218.251V228.455H189.61C191.421 228.455 192.745 228.045 193.583 227.225C194.427 226.404 194.849 225.109 194.849 223.34C194.849 221.582 194.427 220.296 193.583 219.481C192.745 218.661 191.421 218.251 189.61 218.251H187.466ZM185.69 216.792H189.338C191.881 216.792 193.747 217.322 194.937 218.383C196.126 219.438 196.721 221.09 196.721 223.34C196.721 225.602 196.123 227.263 194.928 228.323C193.732 229.384 191.869 229.914 189.338 229.914H185.69V216.792ZM198.391 216.792H200.184L202.943 227.884L205.694 216.792H207.689L210.449 227.884L213.2 216.792H215.002L211.706 229.914H209.474L206.705 218.523L203.91 229.914H201.678L198.391 216.792ZM217.366 216.792H219.142V229.914H217.366V216.792ZM232.501 217.803V219.675C231.903 219.118 231.265 218.702 230.585 218.427C229.911 218.151 229.193 218.014 228.432 218.014C226.932 218.014 225.783 218.474 224.986 219.394C224.189 220.308 223.791 221.632 223.791 223.366C223.791 225.095 224.189 226.419 224.986 227.339C225.783 228.253 226.932 228.71 228.432 228.71C229.193 228.71 229.911 228.572 230.585 228.297C231.265 228.021 231.903 227.605 232.501 227.049V228.903C231.88 229.325 231.221 229.642 230.523 229.853C229.832 230.063 229.1 230.169 228.326 230.169C226.34 230.169 224.775 229.562 223.633 228.35C222.49 227.131 221.919 225.47 221.919 223.366C221.919 221.257 222.49 219.596 223.633 218.383C224.775 217.164 226.34 216.555 228.326 216.555C229.111 216.555 229.85 216.66 230.541 216.871C231.238 217.076 231.892 217.387 232.501 217.803ZM235.243 216.792H237.019V222.171H243.47V216.792H245.245V229.914H243.47V223.665H237.019V229.914H235.243V216.792Z" fill="white"/>
<path d="M20.0498 241.853H21.8252V254.061C21.8252 255.643 21.5234 256.792 20.9199 257.506C20.3223 258.221 19.3584 258.579 18.0283 258.579H17.3516V257.084H17.9053C18.6904 257.084 19.2441 256.865 19.5664 256.425C19.8887 255.986 20.0498 255.198 20.0498 254.061V241.853ZM30.2012 249.324H34.9385V250.765H30.2012V249.324ZM43.3232 241.853H45.0986V254.061C45.0986 255.643 44.7969 256.792 44.1934 257.506C43.5957 258.221 42.6318 258.579 41.3018 258.579H40.625V257.084H41.1787C41.9639 257.084 42.5176 256.865 42.8398 256.425C43.1621 255.986 43.3232 255.198 43.3232 254.061V241.853ZM48.6318 241.853H56.9287V243.347H50.4072V247.232H56.6562V248.726H50.4072V253.481H57.0869V254.975H48.6318V241.853ZM60.0049 241.853H61.7803V253.481H68.1699V254.975H60.0049V241.853ZM70.042 241.853H71.8174V253.481H78.207V254.975H70.042V241.853ZM75.8867 241.853H77.7939L81.4326 247.25L85.0449 241.853H86.9521L82.3115 248.726V254.975H80.5273V248.726L75.8867 241.853ZM90.4678 248.708V253.516H93.3154C94.2705 253.516 94.9766 253.32 95.4336 252.927C95.8965 252.529 96.1279 251.922 96.1279 251.108C96.1279 250.288 95.8965 249.684 95.4336 249.297C94.9766 248.905 94.2705 248.708 93.3154 248.708H90.4678ZM90.4678 243.312V247.267H93.0957C93.9629 247.267 94.6074 247.106 95.0293 246.784C95.457 246.456 95.6709 245.958 95.6709 245.29C95.6709 244.627 95.457 244.132 95.0293 243.804C94.6074 243.476 93.9629 243.312 93.0957 243.312H90.4678ZM88.6924 241.853H93.2275C94.5811 241.853 95.624 242.134 96.3564 242.697C97.0889 243.259 97.4551 244.059 97.4551 245.096C97.4551 245.899 97.2676 246.538 96.8926 247.012C96.5176 247.487 95.9668 247.783 95.2402 247.9C96.1133 248.087 96.79 248.48 97.2705 249.078C97.7568 249.669 98 250.411 98 251.301C98 252.473 97.6016 253.378 96.8047 254.017C96.0078 254.656 94.874 254.975 93.4033 254.975H88.6924V241.853ZM101.05 241.853H109.347V243.347H102.825V247.232H109.074V248.726H102.825V253.481H109.505V254.975H101.05V241.853ZM116.809 243.602L114.4 250.132H119.226L116.809 243.602ZM115.807 241.853H117.819L122.82 254.975H120.975L119.779 251.609H113.864L112.669 254.975H110.797L115.807 241.853ZM124.745 241.853H127.136L132.954 252.831V241.853H134.677V254.975H132.286L126.468 243.998V254.975H124.745V241.853Z" fill="white"/>
<path d="M19.8408 266.915H21.6162V272.461L27.5049 266.915H29.79L23.2773 273.032L30.2559 280.037H27.918L21.6162 273.718V280.037H19.8408V266.915ZM36.4961 274.386H41.2334V275.827H36.4961V274.386ZM49.6182 266.915H51.3936V272.461L57.2822 266.915H59.5674L53.0547 273.032L60.0332 280.037H57.6953L51.3936 273.718V280.037H49.6182V266.915ZM61.4307 266.915H63.2061V280.037H61.4307V266.915ZM64.9199 266.915H76.0205V268.409H71.3623V280.037H69.5781V268.409H64.9199V266.915ZM77.7432 266.915H79.5186V272.461L85.4072 266.915H87.6924L81.1797 273.032L88.1582 280.037H85.8203L79.5186 273.718V280.037H77.7432V266.915ZM93.625 268.664L91.2168 275.194H96.042L93.625 268.664ZM92.623 266.915H94.6357L99.6367 280.037H97.791L96.5957 276.671H90.6807L89.4854 280.037H87.6133L92.623 266.915ZM98.3359 266.915H109.437V268.409H104.778V280.037H102.994V268.409H98.3359V266.915Z" fill="white"/>
<path d="M19.8408 291.977H21.6162V303.605H28.0059V305.099H19.8408V291.977ZM34.7207 299.448H39.458V300.889H34.7207V299.448ZM47.8428 291.977H49.6182V303.605H56.0078V305.099H47.8428V291.977ZM62.5557 293.181C61.2666 293.181 60.2412 293.662 59.4795 294.623C58.7236 295.583 58.3457 296.893 58.3457 298.551C58.3457 300.204 58.7236 301.51 59.4795 302.471C60.2412 303.432 61.2666 303.913 62.5557 303.913C63.8447 303.913 64.8643 303.432 65.6143 302.471C66.3701 301.51 66.748 300.204 66.748 298.551C66.748 296.893 66.3701 295.583 65.6143 294.623C64.8643 293.662 63.8447 293.181 62.5557 293.181ZM62.5557 291.74C64.3955 291.74 65.8662 292.358 66.9678 293.594C68.0693 294.825 68.6201 296.477 68.6201 298.551C68.6201 300.62 68.0693 302.272 66.9678 303.508C65.8662 304.739 64.3955 305.354 62.5557 305.354C60.71 305.354 59.2334 304.739 58.126 303.508C57.0244 302.278 56.4736 300.625 56.4736 298.551C56.4736 296.477 57.0244 294.825 58.126 293.594C59.2334 292.358 60.71 291.74 62.5557 291.74ZM71.3975 291.977H73.1729V303.605H79.5625V305.099H71.3975V291.977ZM81.4346 291.977H83.21V303.605H89.5996V305.099H81.4346V291.977ZM91.4717 291.977H93.2471V305.099H91.4717V291.977ZM98.5557 293.436V298.367H100.788C101.614 298.367 102.253 298.153 102.704 297.725C103.155 297.297 103.381 296.688 103.381 295.897C103.381 295.112 103.155 294.505 102.704 294.078C102.253 293.65 101.614 293.436 100.788 293.436H98.5557ZM96.7803 291.977H100.788C102.259 291.977 103.369 292.311 104.119 292.979C104.875 293.641 105.253 294.614 105.253 295.897C105.253 297.192 104.875 298.17 104.119 298.833C103.369 299.495 102.259 299.826 100.788 299.826H98.5557V305.099H96.7803V291.977ZM112.97 293.181C111.681 293.181 110.655 293.662 109.894 294.623C109.138 295.583 108.76 296.893 108.76 298.551C108.76 300.204 109.138 301.51 109.894 302.471C110.655 303.432 111.681 303.913 112.97 303.913C114.259 303.913 115.278 303.432 116.028 302.471C116.784 301.51 117.162 300.204 117.162 298.551C117.162 296.893 116.784 295.583 116.028 294.623C115.278 293.662 114.259 293.181 112.97 293.181ZM112.97 291.74C114.81 291.74 116.28 292.358 117.382 293.594C118.483 294.825 119.034 296.477 119.034 298.551C119.034 300.62 118.483 302.272 117.382 303.508C116.28 304.739 114.81 305.354 112.97 305.354C111.124 305.354 109.647 304.739 108.54 303.508C107.438 302.278 106.888 300.625 106.888 298.551C106.888 296.477 107.438 294.825 108.54 293.594C109.647 292.358 111.124 291.74 112.97 291.74ZM123.587 293.436V298.367H125.819C126.646 298.367 127.284 298.153 127.735 297.725C128.187 297.297 128.412 296.688 128.412 295.897C128.412 295.112 128.187 294.505 127.735 294.078C127.284 293.65 126.646 293.436 125.819 293.436H123.587ZM121.812 291.977H125.819C127.29 291.977 128.4 292.311 129.15 292.979C129.906 293.641 130.284 294.614 130.284 295.897C130.284 297.192 129.906 298.17 129.15 298.833C128.4 299.495 127.29 299.826 125.819 299.826H123.587V305.099H121.812V291.977Z" fill="white"/>
<path d="M19.8408 317.039H22.4863L25.835 325.969L29.2012 317.039H31.8467V330.161H30.1152V318.639L26.7314 327.639H24.9473L21.5635 318.639V330.161H19.8408V317.039ZM40.2227 324.51H44.96V325.951H40.2227V324.51ZM53.3447 317.039H55.9902L59.3389 325.969L62.7051 317.039H65.3506V330.161H63.6191V318.639L60.2354 327.639H58.4512L55.0674 318.639V330.161H53.3447V317.039ZM73.2695 318.788L70.8613 325.318H75.6865L73.2695 318.788ZM72.2676 317.039H74.2803L79.2812 330.161H77.4355L76.2402 326.795H70.3252L69.1299 330.161H67.2578L72.2676 317.039ZM87.4287 324.009C87.8096 324.138 88.1787 324.413 88.5361 324.835C88.8994 325.257 89.2627 325.837 89.626 326.575L91.4277 330.161H89.5205L87.8418 326.795C87.4082 325.916 86.9863 325.333 86.5762 325.046C86.1719 324.759 85.6182 324.615 84.915 324.615H82.9814V330.161H81.2061V317.039H85.2139C86.7139 317.039 87.833 317.353 88.5713 317.979C89.3096 318.606 89.6787 319.553 89.6787 320.818C89.6787 321.645 89.4854 322.33 89.0986 322.875C88.7178 323.42 88.1611 323.798 87.4287 324.009ZM82.9814 318.498V323.156H85.2139C86.0693 323.156 86.7139 322.96 87.1475 322.567C87.5869 322.169 87.8066 321.586 87.8066 320.818C87.8066 320.051 87.5869 319.474 87.1475 319.087C86.7139 318.694 86.0693 318.498 85.2139 318.498H82.9814ZM101.588 317.47V319.201C100.914 318.879 100.278 318.639 99.6807 318.48C99.083 318.322 98.5059 318.243 97.9492 318.243C96.9824 318.243 96.2354 318.431 95.708 318.806C95.1865 319.181 94.9258 319.714 94.9258 320.405C94.9258 320.985 95.0986 321.425 95.4443 321.724C95.7959 322.017 96.458 322.254 97.4307 322.436L98.5029 322.655C99.8271 322.907 100.803 323.353 101.43 323.991C102.062 324.624 102.379 325.474 102.379 326.54C102.379 327.812 101.951 328.775 101.096 329.432C100.246 330.088 98.998 330.416 97.3516 330.416C96.7305 330.416 96.0684 330.346 95.3652 330.205C94.668 330.064 93.9443 329.856 93.1943 329.581V327.753C93.915 328.157 94.6211 328.462 95.3125 328.667C96.0039 328.872 96.6836 328.975 97.3516 328.975C98.3652 328.975 99.1475 328.775 99.6982 328.377C100.249 327.979 100.524 327.41 100.524 326.672C100.524 326.027 100.325 325.523 99.9268 325.16C99.5342 324.797 98.8867 324.524 97.9844 324.343L96.9033 324.132C95.5791 323.868 94.6211 323.455 94.0293 322.893C93.4375 322.33 93.1416 321.548 93.1416 320.546C93.1416 319.386 93.5488 318.472 94.3633 317.804C95.1836 317.136 96.3115 316.802 97.7471 316.802C98.3623 316.802 98.9893 316.857 99.6279 316.969C100.267 317.08 100.92 317.247 101.588 317.47ZM105.147 317.039H106.923V322.418H113.374V317.039H115.149V330.161H113.374V323.912H106.923V330.161H105.147V317.039ZM118.683 317.039H121.328L124.677 325.969L128.043 317.039H130.688V330.161H128.957V318.639L125.573 327.639H123.789L120.405 318.639V330.161H118.683V317.039ZM138.607 318.788L136.199 325.318H141.024L138.607 318.788ZM137.605 317.039H139.618L144.619 330.161H142.773L141.578 326.795H135.663L134.468 330.161H132.596L137.605 317.039ZM146.544 317.039H148.319V328.667H154.709V330.161H146.544V317.039ZM156.581 317.039H158.356V328.667H164.746V330.161H156.581V317.039ZM171.294 318.243C170.005 318.243 168.979 318.724 168.218 319.685C167.462 320.646 167.084 321.955 167.084 323.613C167.084 325.266 167.462 326.572 168.218 327.533C168.979 328.494 170.005 328.975 171.294 328.975C172.583 328.975 173.603 328.494 174.353 327.533C175.108 326.572 175.486 325.266 175.486 323.613C175.486 321.955 175.108 320.646 174.353 319.685C173.603 318.724 172.583 318.243 171.294 318.243ZM171.294 316.802C173.134 316.802 174.604 317.42 175.706 318.656C176.808 319.887 177.358 321.539 177.358 323.613C177.358 325.682 176.808 327.334 175.706 328.57C174.604 329.801 173.134 330.416 171.294 330.416C169.448 330.416 167.972 329.801 166.864 328.57C165.763 327.34 165.212 325.688 165.212 323.613C165.212 321.539 165.763 319.887 166.864 318.656C167.972 317.42 169.448 316.802 171.294 316.802ZM178.967 317.039H180.76L183.52 328.131L186.271 317.039H188.266L191.025 328.131L193.776 317.039H195.578L192.282 330.161H190.05L187.281 318.771L184.486 330.161H182.254L178.967 317.039Z" fill="white"/>
<path d="M19.8408 342.101H22.2314L28.0498 353.079V342.101H29.7725V355.223H27.3818L21.5635 344.246V355.223H19.8408V342.101ZM38.1484 349.572H42.8857V351.013H38.1484V349.572ZM51.2705 342.101H53.6611L59.4795 353.079V342.101H61.2021V355.223H58.8115L52.9932 344.246V355.223H51.2705V342.101ZM70.0615 343.305C68.7725 343.305 67.7471 343.786 66.9854 344.747C66.2295 345.708 65.8516 347.017 65.8516 348.675C65.8516 350.328 66.2295 351.634 66.9854 352.595C67.7471 353.556 68.7725 354.037 70.0615 354.037C71.3506 354.037 72.3701 353.556 73.1201 352.595C73.876 351.634 74.2539 350.328 74.2539 348.675C74.2539 347.017 73.876 345.708 73.1201 344.747C72.3701 343.786 71.3506 343.305 70.0615 343.305ZM70.0615 341.864C71.9014 341.864 73.3721 342.482 74.4736 343.718C75.5752 344.949 76.126 346.601 76.126 348.675C76.126 350.744 75.5752 352.396 74.4736 353.632C73.3721 354.863 71.9014 355.478 70.0615 355.478C68.2158 355.478 66.7393 354.863 65.6318 353.632C64.5303 352.402 63.9795 350.75 63.9795 348.675C63.9795 346.601 64.5303 344.949 65.6318 343.718C66.7393 342.482 68.2158 341.864 70.0615 341.864ZM78.7012 342.101H80.4854V350.073C80.4854 351.479 80.7402 352.493 81.25 353.114C81.7598 353.729 82.5859 354.037 83.7285 354.037C84.8652 354.037 85.6885 353.729 86.1982 353.114C86.708 352.493 86.9629 351.479 86.9629 350.073V342.101H88.7471V350.292C88.7471 352.003 88.3223 353.295 87.4727 354.168C86.6289 355.042 85.3809 355.478 83.7285 355.478C82.0703 355.478 80.8164 355.042 79.9668 354.168C79.123 353.295 78.7012 352.003 78.7012 350.292V342.101ZM101.034 353.351V349.827H98.1338V348.368H102.792V354.001C102.106 354.488 101.351 354.857 100.524 355.109C99.6982 355.355 98.8164 355.478 97.8789 355.478C95.8281 355.478 94.2227 354.88 93.0625 353.685C91.9082 352.484 91.3311 350.814 91.3311 348.675C91.3311 346.531 91.9082 344.861 93.0625 343.666C94.2227 342.464 95.8281 341.864 97.8789 341.864C98.7344 341.864 99.5459 341.969 100.313 342.18C101.087 342.391 101.799 342.702 102.449 343.112V345.001C101.793 344.445 101.096 344.026 100.357 343.745C99.6191 343.463 98.8428 343.323 98.0283 343.323C96.4229 343.323 95.2158 343.771 94.4072 344.667C93.6045 345.564 93.2031 346.9 93.2031 348.675C93.2031 350.445 93.6045 351.778 94.4072 352.674C95.2158 353.571 96.4229 354.019 98.0283 354.019C98.6553 354.019 99.2148 353.966 99.707 353.861C100.199 353.75 100.642 353.58 101.034 353.351ZM110.43 343.85L108.021 350.38H112.847L110.43 343.85ZM109.428 342.101H111.44L116.441 355.223H114.596L113.4 351.857H107.485L106.29 355.223H104.418L109.428 342.101ZM115.141 342.101H126.241V343.595H121.583V355.223H119.799V343.595H115.141V342.101Z" fill="white"/>
<path d="M25.167 368.366C23.8779 368.366 22.8525 368.847 22.0908 369.808C21.335 370.769 20.957 372.078 20.957 373.736C20.957 375.389 21.335 376.695 22.0908 377.656C22.8525 378.617 23.8779 379.098 25.167 379.098C26.4561 379.098 27.4756 378.617 28.2256 377.656C28.9814 376.695 29.3594 375.389 29.3594 373.736C29.3594 372.078 28.9814 370.769 28.2256 369.808C27.4756 368.847 26.4561 368.366 25.167 368.366ZM25.167 366.925C27.0068 366.925 28.4775 367.543 29.5791 368.779C30.6807 370.01 31.2314 371.662 31.2314 373.736C31.2314 375.805 30.6807 377.457 29.5791 378.693C28.4775 379.924 27.0068 380.539 25.167 380.539C23.3213 380.539 21.8447 379.924 20.7373 378.693C19.6357 377.463 19.085 375.811 19.085 373.736C19.085 371.662 19.6357 370.01 20.7373 368.779C21.8447 367.543 23.3213 366.925 25.167 366.925ZM38.8516 374.633H43.5889V376.074H38.8516V374.633ZM57.2998 368.366C56.0107 368.366 54.9854 368.847 54.2236 369.808C53.4678 370.769 53.0898 372.078 53.0898 373.736C53.0898 375.389 53.4678 376.695 54.2236 377.656C54.9854 378.617 56.0107 379.098 57.2998 379.098C58.5889 379.098 59.6084 378.617 60.3584 377.656C61.1143 376.695 61.4922 375.389 61.4922 373.736C61.4922 372.078 61.1143 370.769 60.3584 369.808C59.6084 368.847 58.5889 368.366 57.2998 368.366ZM57.2998 366.925C59.1396 366.925 60.6104 367.543 61.7119 368.779C62.8135 370.01 63.3643 371.662 63.3643 373.736C63.3643 375.805 62.8135 377.457 61.7119 378.693C60.6104 379.924 59.1396 380.539 57.2998 380.539C55.4541 380.539 53.9775 379.924 52.8701 378.693C51.7686 377.463 51.2178 375.811 51.2178 373.736C51.2178 371.662 51.7686 370.01 52.8701 368.779C53.9775 367.543 55.4541 366.925 57.2998 366.925ZM72.3643 374.132C72.7451 374.261 73.1143 374.536 73.4717 374.958C73.835 375.38 74.1982 375.96 74.5615 376.698L76.3633 380.284H74.4561L72.7773 376.918C72.3438 376.039 71.9219 375.456 71.5117 375.169C71.1074 374.882 70.5537 374.738 69.8506 374.738H67.917V380.284H66.1416V367.162H70.1494C71.6494 367.162 72.7686 367.476 73.5068 368.103C74.2451 368.729 74.6143 369.676 74.6143 370.941C74.6143 371.768 74.4209 372.453 74.0342 372.998C73.6533 373.543 73.0967 373.921 72.3643 374.132ZM67.917 368.621V373.279H70.1494C71.0049 373.279 71.6494 373.083 72.083 372.69C72.5225 372.292 72.7422 371.709 72.7422 370.941C72.7422 370.174 72.5225 369.597 72.083 369.21C71.6494 368.817 71.0049 368.621 70.1494 368.621H67.917ZM78.6572 367.162H86.9541V368.656H80.4326V372.541H86.6816V374.035H80.4326V378.79H87.1123V380.284H78.6572V367.162ZM95.3564 368.366C94.0674 368.366 93.042 368.847 92.2803 369.808C91.5244 370.769 91.1465 372.078 91.1465 373.736C91.1465 375.389 91.5244 376.695 92.2803 377.656C93.042 378.617 94.0674 379.098 95.3564 379.098C96.6455 379.098 97.665 378.617 98.415 377.656C99.1709 376.695 99.5488 375.389 99.5488 373.736C99.5488 372.078 99.1709 370.769 98.415 369.808C97.665 368.847 96.6455 368.366 95.3564 368.366ZM95.3564 366.925C97.1963 366.925 98.667 367.543 99.7686 368.779C100.87 370.01 101.421 371.662 101.421 373.736C101.421 375.805 100.87 377.457 99.7686 378.693C98.667 379.924 97.1963 380.539 95.3564 380.539C93.5107 380.539 92.0342 379.924 90.9268 378.693C89.8252 377.463 89.2744 375.811 89.2744 373.736C89.2744 371.662 89.8252 370.01 90.9268 368.779C92.0342 367.543 93.5107 366.925 95.3564 366.925Z" fill="white"/>
<path fill-rule="evenodd" clip-rule="evenodd" d="M319.194 203.086C317.746 199.662 313.242 197.03 310.239 196.237C308.926 195.806 307.645 195.285 306.405 194.677C304.076 193.922 307.785 197.188 309.178 197.728C310.31 198.166 312.368 201.498 313.486 202.635C314.604 203.772 316.993 205.413 318.267 205.409C319.541 205.405 319.018 203.727 319.194 203.086Z" fill="#CAA267"/>
<path fill-rule="evenodd" clip-rule="evenodd" d="M327.105 214.925C324.359 210.125 322.277 204.405 317.082 202.066C311.887 199.727 304.154 199.856 300.04 199.275C295.202 198.592 297.24 200.141 299.798 200.793C301.457 201.216 306.825 202.74 308.498 202.708C306.195 202.202 303.861 201.851 301.511 201.655C301.111 201.77 293.428 199.768 293.965 201.171C295.006 203.892 303.665 204.141 306.429 204.709C304.974 204.673 302.605 204.265 301.203 204.223C300.013 204.188 296.403 202.923 296.066 204.023C295.528 205.752 304.404 206.769 305.583 206.852C304.427 207.804 299.964 206.452 298.413 206.362C298.257 206.352 296.85 206.707 298.554 207.285C301.927 208.618 305.433 209.586 309.012 210.175C313.104 210.731 317.902 211.305 320.667 215.004C322.844 214.858 324.981 215.215 327.105 214.925Z" fill="#CAA267"/>
<path d="M466.943 451.974C466.943 451.974 458.661 549.157 462.681 550.781C469.892 553.742 498.114 563.375 467.101 561.546C451.195 562.69 452.322 559.12 452.038 556.109C451.807 553.649 451.267 466.767 450.538 460.018C450.374 458.506 450.275 457.593 450.275 457.593L466.943 451.974Z" fill="#CAA267"/>
<path d="M408.603 452.649C408.603 452.649 413.803 549.677 409.827 551.393C402.686 554.521 374.696 564.805 405.657 562.257C421.586 563.032 420.376 559.489 420.59 556.473C420.765 554.009 422.354 535.3 422.929 528.536C423.059 527.021 425.297 451.062 425.297 451.062L408.603 452.649Z" fill="#CAA267"/>
<path d="M436.902 201.787C436.902 201.787 436.18 211.047 441.945 216.096C447.71 221.145 428.795 216.248 428.795 216.248C428.795 216.248 432.201 207.348 431.35 201.848C430.499 196.348 436.902 201.787 436.902 201.787Z" fill="#C2934E"/>
<path d="M433.935 205.407C439.444 205.343 443.84 199.198 443.752 191.682C443.665 184.166 439.129 178.125 433.619 178.189C428.11 178.252 423.715 184.397 423.802 191.913C423.889 199.429 428.426 205.471 433.935 205.407Z" fill="#CAA267"/>
<path d="M353.343 261.576C368.077 229.814 394.86 215.09 412.022 211.065C419.45 209.32 425.077 209.581 427.15 211.329C429.11 212.982 431.58 213.909 434.144 213.953C435.457 213.99 436.77 213.856 438.049 213.553C439.475 213.224 440.86 212.735 442.177 212.095C442.81 211.795 443.177 211.577 443.177 211.577C446.697 211.285 450.24 211.455 453.716 212.083C492.733 219.254 500.263 284.448 499.979 290.066C499.806 293.41 496.527 308.588 492.364 322.094C488.953 333.182 484.939 343.147 481.564 344.558C474.064 347.676 417.254 352.494 405.498 347.058C405.223 346.858 404.925 346.641 404.642 346.402C400.214 342.884 395.373 335.893 392.775 329.323C392.775 329.323 385.834 310.452 384.419 306.611C384.403 306.573 384.395 306.543 384.38 306.511C384.333 306.36 384.28 306.216 384.223 306.081C384.208 306.028 384.185 305.981 384.168 305.93" fill="#8A7CC7"/>
<path d="M402.866 344.846C403.838 345.731 405.067 346.281 406.375 346.416C414.575 346.481 450.001 346.678 469.201 345.351C475.975 344.883 480.728 344.226 481.554 343.301C481.554 343.301 481.554 343.329 481.549 343.38C481.512 344.44 481.049 356.57 480.376 372.472C479.056 403.864 482.82 448.759 486.766 462.352C487.617 465.287 443.566 461.337 443.566 461.337C443.066 428.964 445.482 372.091 443.466 369.566C441.017 366.495 437.682 416.534 433.68 458.42C416.306 463.168 388.68 460.728 388.98 458.938C392.517 437.681 402.866 344.846 402.866 344.846Z" fill="#F1C759"/>
<path opacity="0.15" d="M384.172 305.928C384.188 305.98 384.211 306.028 384.227 306.079C384.282 306.214 384.337 306.358 384.384 306.509C384.399 306.54 384.407 306.569 384.423 306.609C385.839 310.45 392.779 329.309 392.779 329.309C395.379 335.886 400.218 342.878 404.646 346.396C401.546 335.649 391.9 304.503 392.11 291.907C390.472 304.066 384.172 305.92 384.172 305.928Z" fill="black"/>
<path opacity="0.15" d="M474.678 259.719C474.678 259.719 456.486 316.189 509.045 339.473L510.116 340.167L509.693 326.94C509.693 326.94 484.66 292.849 484.556 291.965C484.452 291.081 474.678 259.719 474.678 259.719Z" fill="black"/>
<path opacity="0.15" d="M434.831 216.181C434.871 217.081 434.401 217.681 432.951 217.498C428.428 216.937 423.331 217.125 419.645 218.866C419.171 219.11 418.642 219.229 418.109 219.213C417.576 219.196 417.056 219.045 416.598 218.772C414.211 217.413 412.693 213.293 412.088 211.466C412.045 211.337 412.023 211.202 412.023 211.066C419.451 209.321 425.078 209.582 427.151 211.33C429.111 212.983 431.581 213.91 434.145 213.954C434.513 214.646 434.746 215.402 434.831 216.181V216.181Z" fill="black"/>
<path d="M421.858 550.248C422.027 548.848 412.058 549.091 410.941 550.243C409.824 551.395 389.999 555.726 390.461 561.623C390.923 567.52 418.412 562.561 420.379 562.399C422.346 562.237 421.526 553.006 421.858 550.248Z" fill="#5E5584"/>
<path d="M451.381 547.632C451.181 546.232 463.137 547.872 464.281 548.997C465.425 550.122 482.855 554.648 482.53 560.554C482.205 566.46 454.608 562.14 452.639 562.024C450.67 561.908 451.778 550.38 451.381 547.632Z" fill="#5E5587"/>
<g opacity="0.3">
<path opacity="0.3" d="M435.586 346.39L435.186 346.363C435.186 346.363 435.331 346.371 435.586 346.39Z" fill="black"/>
<path opacity="0.5" d="M435.586 346.39C446.149 347.11 469.2 345.351 469.2 345.351C475.974 344.883 480.727 344.226 481.553 343.301C481.553 343.301 481.553 343.329 481.548 343.38C481.511 344.44 481.048 356.57 480.375 372.472C480.002 372.46 479.631 372.422 479.264 372.356C478.109 372.125 477.014 371.659 476.045 370.989C475.077 370.318 474.256 369.456 473.633 368.456C472.697 367.057 471.949 365.54 471.408 363.945C463.365 349.061 438.971 346.655 435.586 346.39Z" fill="black"/>
</g>
<path d="M429.936 184.03C429.936 184.03 447.316 193.404 442.012 178.091C438.343 167.497 418.079 177.313 429.936 184.03Z" fill="#EEC459"/>
<path d="M432.398 180.331C432.398 180.331 422.798 186.176 423.798 191.917C423.798 191.917 421.469 174.77 431.07 174.228C440.671 173.686 444.403 174.57 443.76 192.736C443.763 192.731 440.804 178.322 432.398 180.331Z" fill="#EEC459"/>
<path d="M430.656 174.342C430.656 174.342 431.079 168.986 436.392 169.683C441.705 170.38 444.012 173.383 444.805 176.405C445.598 179.427 446.382 181.691 447.139 181.682C447.139 181.682 444.893 183.982 444.126 183.233C444.126 183.233 446.156 188.659 443.709 193.161C443.709 193.161 442.646 186.281 438.849 185.568C435.052 184.855 430.656 174.342 430.656 174.342Z" fill="#EEC459"/>
<path d="M431.141 174.29C431.141 174.29 427.326 172.061 423.599 177.408L421.379 181.981C421.379 181.981 422.145 182.73 423.651 181.955C423.651 181.955 423.023 187.301 423.782 190.306L425.916 181.171L431.141 174.29Z" fill="#EEC459"/>
<path d="M409.86 277.259L420.181 338.692C420.47 340.41 421.429 341.942 422.847 342.953C424.266 343.964 426.027 344.371 427.745 344.084L469.674 337.035C469.774 337.021 469.872 337 469.969 336.971C471.621 336.618 473.072 335.641 474.02 334.244C474.969 332.846 475.34 331.136 475.058 329.471L464.737 268.042C464.594 267.192 464.285 266.378 463.827 265.647C463.369 264.916 462.772 264.283 462.07 263.783C461.367 263.283 460.573 262.926 459.733 262.734C458.892 262.541 458.022 262.515 457.172 262.659L417.187 269.374L415.243 269.7C413.527 269.989 411.995 270.947 410.986 272.365C409.976 273.782 409.571 275.543 409.86 277.259V277.259Z" fill="#959595"/>
<path d="M412.098 276.87L422.419 338.303C422.562 339.153 422.871 339.967 423.328 340.698C423.786 341.429 424.383 342.062 425.085 342.562C425.788 343.062 426.582 343.419 427.422 343.612C428.262 343.805 429.133 343.83 429.983 343.687L469.968 336.971C471.62 336.618 473.071 335.641 474.019 334.244C474.968 332.846 475.339 331.136 475.057 329.471L464.736 268.042C464.593 267.192 464.284 266.378 463.826 265.647C463.368 264.916 462.771 264.283 462.069 263.783C461.366 263.283 460.572 262.926 459.732 262.734C458.891 262.541 458.021 262.515 457.171 262.659L417.186 269.374C415.535 269.727 414.085 270.704 413.137 272.1C412.189 273.497 411.817 275.206 412.098 276.87V276.87Z" fill="#C8C8C8"/>
<path d="M444.011 308.753C446.812 308.753 449.082 306.482 449.082 303.682C449.082 300.881 446.812 298.611 444.011 298.611C441.21 298.611 438.94 300.881 438.94 303.682C438.94 306.482 441.21 308.753 444.011 308.753Z" fill="#7F7F7F"/>
<path opacity="0.15" d="M483.371 319.826C483.371 319.826 484.094 297.192 423.571 305.47C363.048 313.748 469.197 319.339 469.197 319.339L483.371 319.826Z" fill="black"/>
<path fill-rule="evenodd" clip-rule="evenodd" d="M429.312 313.881C428.591 313.649 420.958 309.197 416.843 308.865C412.728 308.533 406.581 308.433 404.453 307.854C401.953 307.173 401.329 308.173 404.217 309.237C406.352 310.013 408.55 310.607 410.785 311.014C411.195 311.026 408.514 310.697 405.596 310.128C402.496 309.528 399.128 308.689 398.982 309.243C398.696 310.315 407.636 312.614 409.209 312.766C407.82 312.688 406.437 312.536 405.064 312.312C403.191 312.002 401.043 311.366 400.626 311.759C399.97 312.377 404.712 314.174 408.62 314.67C408.69 314.796 407.431 315.007 402.83 314.108C402.368 314.017 401.196 314.232 402.714 314.913C405.914 316.346 407.179 317.199 411.788 317.289C416.288 317.376 421.232 316.394 424.476 317.441L429.312 313.881Z" fill="#CAA267"/>
<path fill-rule="evenodd" clip-rule="evenodd" d="M418.827 309.247C418.827 309.247 415.306 305.633 411.392 305.075C409.066 304.744 409.113 304.158 408.716 303.989C407.395 303.426 408.695 305.85 410.675 306.453C412.284 306.943 413.21 309.672 414.181 310.241C415.152 310.81 418.048 311.841 418.763 311.458C419.478 311.075 418.827 309.247 418.827 309.247Z" fill="#CAA267"/>
<path d="M493.064 221.312C507.484 233.912 517.496 245.661 524.109 284.604C527.463 304.362 526.879 324.166 526.186 334.613C526.016 337.04 525.132 339.362 523.646 341.287C522.16 343.213 520.138 344.657 517.834 345.436C473.291 360.703 423.684 318.843 423.684 318.843C421.113 317.92 426.162 308.73 426.162 308.73C450.879 308.186 469.83 308.725 489.616 316.073C489.516 316.027 469.831 280.064 467.108 270.11C459.977 244.01 437.24 221.61 442.936 211.284C444.904 207.711 478.521 208.598 493.064 221.312Z" fill="#8A7CC7"/>
<path d="M410.553 343.991L400.733 460.968" stroke="#8A7CC7" stroke-width="0.747" stroke-miterlimit="10"/>
<path d="M421.67 346.199L411.911 461.14" stroke="#8A7CC7" stroke-width="0.747" stroke-miterlimit="10"/>
<path d="M432.511 346.074L424.61 460.191" stroke="#8A7CC7" stroke-width="0.747" stroke-miterlimit="10"/>
<path d="M442.952 345.953L443.463 369.566" stroke="#8A7CC7" stroke-width="0.747" stroke-miterlimit="10"/>
<path d="M454.542 345.818L453.75 462.163" stroke="#8A7CC7" stroke-width="0.747" stroke-miterlimit="10"/>
<path d="M464.513 345.63L465.276 462.933" stroke="#8A7CC7" stroke-width="0.747" stroke-miterlimit="10"/>
<path d="M474.315 345.516L477.938 463.46" stroke="#8A7CC7" stroke-width="0.747" stroke-miterlimit="10"/>
<path d="M401.495 357.019C401.495 357.019 464.457 359.26 481.048 356.097" stroke="#8A7CC7" stroke-width="0.747" stroke-miterlimit="10"/>
<path d="M443.463 369.566C421.503 374.807 400.342 367.166 400.342 367.166" stroke="#8A7CC7" stroke-width="0.747" stroke-miterlimit="10"/>
<path d="M443.208 368.082C443.208 368.082 463.142 373.434 480.541 368.517" stroke="#8A7CC7" stroke-width="0.747" stroke-miterlimit="10"/>
<path d="M399.358 375.744C399.358 375.744 415.321 383.868 441.045 379.334" stroke="#8A7CC7" stroke-width="0.747" stroke-miterlimit="10"/>
<path d="M398.177 385.958C398.177 385.958 422.956 393.211 439.937 389.134" stroke="#8A7CC7" stroke-width="0.747" stroke-miterlimit="10"/>
<path d="M396.992 396.104C396.992 396.104 409.682 405.817 438.787 401.057" stroke="#8A7CC7" stroke-width="0.747" stroke-miterlimit="10"/>
<path d="M395.612 407.776C408.948 413.695 423.961 414.653 437.941 410.476" stroke="#8A7CC7" stroke-width="0.747" stroke-miterlimit="10"/>
<path d="M394.323 418.467C394.323 418.467 408.015 427.951 436.93 422.015" stroke="#8A7CC7" stroke-width="0.747" stroke-miterlimit="10"/>
<path d="M392.979 429.43C392.979 429.43 411.837 439.011 436.17 430.812" stroke="#8A7CC7" stroke-width="0.747" stroke-miterlimit="10"/>
<path d="M391.898 437.985C391.898 437.985 403.08 448.492 435.343 440.232" stroke="#8A7CC7" stroke-width="0.747" stroke-miterlimit="10"/>
<path d="M390.62 447.695C390.62 447.695 408.611 456.908 434.496 449.641" stroke="#8A7CC7" stroke-width="0.747" stroke-miterlimit="10"/>
<path d="M444.234 378.733C444.234 378.733 452.615 385.491 480.675 380.078" stroke="#8A7CC7" stroke-width="0.747" stroke-miterlimit="10"/>
<path d="M444.573 389.048C444.573 389.048 456.284 394.348 480.123 389.778" stroke="#8A7CC7" stroke-width="0.747" stroke-miterlimit="10"/>
<path d="M444.137 400.503C444.137 400.503 462.186 405.711 480.237 400.084" stroke="#8A7CC7" stroke-width="0.747" stroke-miterlimit="10"/>
<path d="M443.984 410.001C443.984 410.001 461.56 417.571 480.696 409.575" stroke="#8A7CC7" stroke-width="0.747" stroke-miterlimit="10"/>
<path d="M443.815 420.431C443.815 420.431 460.528 426.079 481.303 419.997" stroke="#8A7CC7" stroke-width="0.747" stroke-miterlimit="10"/>
<path d="M443.662 430.444C443.662 430.444 457.762 436.577 482.075 429.999" stroke="#8A7CC7" stroke-width="0.747" stroke-miterlimit="10"/>
<path d="M443.765 439.302C443.765 439.302 460.524 447.694 483.037 439.759" stroke="#8A7CC7" stroke-width="0.747" stroke-miterlimit="10"/>
<path d="M443.492 450.377C456.876 454.062 471.007 454.062 484.392 450.377" stroke="#8A7CC7" stroke-width="0.747" stroke-miterlimit="10"/>
<path d="M384.421 306.605C384.421 306.605 338.528 326.705 326.848 284.639C315.168 242.573 330.448 233.061 315.791 215.748L325.032 208.418C325.032 208.418 357.401 225.063 367.268 251.529C377.135 277.995 384.421 306.605 384.421 306.605Z" fill="#8A7CC7"/>
<path d="M21.6162 393.683V398.614H23.8486C24.6748 398.614 25.3135 398.4 25.7646 397.972C26.2158 397.544 26.4414 396.935 26.4414 396.144C26.4414 395.359 26.2158 394.752 25.7646 394.325C25.3135 393.897 24.6748 393.683 23.8486 393.683H21.6162ZM19.8408 392.224H23.8486C25.3193 392.224 26.4297 392.558 27.1797 393.226C27.9355 393.888 28.3135 394.861 28.3135 396.144C28.3135 397.439 27.9355 398.417 27.1797 399.08C26.4297 399.742 25.3193 400.073 23.8486 400.073H21.6162V405.346H19.8408V392.224ZM35.5469 399.695H40.2842V401.136H35.5469V399.695ZM50.4443 393.683V398.614H52.6768C53.5029 398.614 54.1416 398.4 54.5928 397.972C55.0439 397.544 55.2695 396.935 55.2695 396.144C55.2695 395.359 55.0439 394.752 54.5928 394.325C54.1416 393.897 53.5029 393.683 52.6768 393.683H50.4443ZM48.6689 392.224H52.6768C54.1475 392.224 55.2578 392.558 56.0078 393.226C56.7637 393.888 57.1416 394.861 57.1416 396.144C57.1416 397.439 56.7637 398.417 56.0078 399.08C55.2578 399.742 54.1475 400.073 52.6768 400.073H50.4443V405.346H48.6689V392.224ZM59.5322 392.224H61.3076V405.346H59.5322V392.224ZM64.8408 392.224H73.1377V393.718H66.6162V397.603H72.8652V399.097H66.6162V403.852H73.2959V405.346H64.8408V392.224Z" fill="white"/>
<path d="M24.2266 418.627L21.8184 425.157H26.6436L24.2266 418.627ZM23.2246 416.878H25.2373L30.2383 430H28.3926L27.1973 426.634H21.2822L20.0869 430H18.2148L23.2246 416.878ZM32.1631 416.878H34.5537L40.3721 427.855V416.878H42.0947V430H39.7041L33.8857 419.022V430H32.1631V416.878ZM47.4033 418.337V428.541H49.5479C51.3584 428.541 52.6826 428.131 53.5205 427.311C54.3643 426.49 54.7861 425.195 54.7861 423.426C54.7861 421.668 54.3643 420.382 53.5205 419.567C52.6826 418.747 51.3584 418.337 49.5479 418.337H47.4033ZM45.6279 416.878H49.2754C51.8184 416.878 53.6846 417.408 54.874 418.469C56.0635 419.523 56.6582 421.176 56.6582 423.426C56.6582 425.688 56.0605 427.349 54.8652 428.409C53.6699 429.47 51.8066 430 49.2754 430H45.6279V416.878ZM65.7197 423.848C66.1006 423.977 66.4697 424.252 66.8271 424.674C67.1904 425.096 67.5537 425.676 67.917 426.414L69.7188 430H67.8115L66.1328 426.634C65.6992 425.755 65.2773 425.172 64.8672 424.885C64.4629 424.598 63.9092 424.454 63.2061 424.454H61.2725V430H59.4971V416.878H63.5049C65.0049 416.878 66.124 417.191 66.8623 417.818C67.6006 418.445 67.9697 419.392 67.9697 420.657C67.9697 421.483 67.7764 422.169 67.3896 422.714C67.0088 423.259 66.4521 423.637 65.7197 423.848ZM61.2725 418.337V422.995H63.5049C64.3604 422.995 65.0049 422.799 65.4385 422.406C65.8779 422.008 66.0977 421.425 66.0977 420.657C66.0977 419.89 65.8779 419.312 65.4385 418.926C65.0049 418.533 64.3604 418.337 63.5049 418.337H61.2725ZM77.3389 418.082C76.0498 418.082 75.0244 418.562 74.2627 419.523C73.5068 420.484 73.1289 421.794 73.1289 423.452C73.1289 425.104 73.5068 426.411 74.2627 427.372C75.0244 428.333 76.0498 428.813 77.3389 428.813C78.6279 428.813 79.6475 428.333 80.3975 427.372C81.1533 426.411 81.5312 425.104 81.5312 423.452C81.5312 421.794 81.1533 420.484 80.3975 419.523C79.6475 418.562 78.6279 418.082 77.3389 418.082ZM77.3389 416.641C79.1787 416.641 80.6494 417.259 81.751 418.495C82.8525 419.726 83.4033 421.378 83.4033 423.452C83.4033 425.521 82.8525 427.173 81.751 428.409C80.6494 429.64 79.1787 430.255 77.3389 430.255C75.4932 430.255 74.0166 429.64 72.9092 428.409C71.8076 427.179 71.2568 425.526 71.2568 423.452C71.2568 421.378 71.8076 419.726 72.9092 418.495C74.0166 417.259 75.4932 416.641 77.3389 416.641ZM86.1807 416.878H87.9561V430H86.1807V416.878ZM93.2646 418.337V428.541H95.4092C97.2197 428.541 98.5439 428.131 99.3818 427.311C100.226 426.49 100.647 425.195 100.647 423.426C100.647 421.668 100.226 420.382 99.3818 419.567C98.5439 418.747 97.2197 418.337 95.4092 418.337H93.2646ZM91.4893 416.878H95.1367C97.6797 416.878 99.5459 417.408 100.735 418.469C101.925 419.523 102.52 421.176 102.52 423.426C102.52 425.688 101.922 427.349 100.727 428.409C99.5312 429.47 97.668 430 95.1367 430H91.4893V416.878ZM111.555 428.506H114.455V418.495L111.3 419.128V417.511L114.438 416.878H116.213V428.506H119.113V430H111.555V428.506ZM126.505 418.047C125.591 418.047 124.902 418.498 124.439 419.4C123.982 420.297 123.754 421.647 123.754 423.452C123.754 425.251 123.982 426.602 124.439 427.504C124.902 428.4 125.591 428.849 126.505 428.849C127.425 428.849 128.113 428.4 128.57 427.504C129.033 426.602 129.265 425.251 129.265 423.452C129.265 421.647 129.033 420.297 128.57 419.4C128.113 418.498 127.425 418.047 126.505 418.047ZM126.505 416.641C127.976 416.641 129.098 417.224 129.871 418.39C130.65 419.55 131.04 421.237 131.04 423.452C131.04 425.661 130.65 427.349 129.871 428.515C129.098 429.675 127.976 430.255 126.505 430.255C125.034 430.255 123.909 429.675 123.13 428.515C122.356 427.349 121.97 425.661 121.97 423.452C121.97 421.237 122.356 419.55 123.13 418.39C123.909 417.224 125.034 416.641 126.505 416.641Z" fill="white"/>
<path d="M24.2266 443.627L21.8184 450.157H26.6436L24.2266 443.627ZM23.2246 441.878H25.2373L30.2383 455H28.3926L27.1973 451.634H21.2822L20.0869 455H18.2148L23.2246 441.878ZM32.1631 441.878H34.5537L40.3721 452.855V441.878H42.0947V455H39.7041L33.8857 444.022V455H32.1631V441.878ZM47.4033 443.337V453.541H49.5479C51.3584 453.541 52.6826 453.131 53.5205 452.311C54.3643 451.49 54.7861 450.195 54.7861 448.426C54.7861 446.668 54.3643 445.382 53.5205 444.567C52.6826 443.747 51.3584 443.337 49.5479 443.337H47.4033ZM45.6279 441.878H49.2754C51.8184 441.878 53.6846 442.408 54.874 443.469C56.0635 444.523 56.6582 446.176 56.6582 448.426C56.6582 450.688 56.0605 452.349 54.8652 453.409C53.6699 454.47 51.8066 455 49.2754 455H45.6279V441.878ZM65.7197 448.848C66.1006 448.977 66.4697 449.252 66.8271 449.674C67.1904 450.096 67.5537 450.676 67.917 451.414L69.7188 455H67.8115L66.1328 451.634C65.6992 450.755 65.2773 450.172 64.8672 449.885C64.4629 449.598 63.9092 449.454 63.2061 449.454H61.2725V455H59.4971V441.878H63.5049C65.0049 441.878 66.124 442.191 66.8623 442.818C67.6006 443.445 67.9697 444.392 67.9697 445.657C67.9697 446.483 67.7764 447.169 67.3896 447.714C67.0088 448.259 66.4521 448.637 65.7197 448.848ZM61.2725 443.337V447.995H63.5049C64.3604 447.995 65.0049 447.799 65.4385 447.406C65.8779 447.008 66.0977 446.425 66.0977 445.657C66.0977 444.89 65.8779 444.312 65.4385 443.926C65.0049 443.533 64.3604 443.337 63.5049 443.337H61.2725ZM77.3389 443.082C76.0498 443.082 75.0244 443.562 74.2627 444.523C73.5068 445.484 73.1289 446.794 73.1289 448.452C73.1289 450.104 73.5068 451.411 74.2627 452.372C75.0244 453.333 76.0498 453.813 77.3389 453.813C78.6279 453.813 79.6475 453.333 80.3975 452.372C81.1533 451.411 81.5312 450.104 81.5312 448.452C81.5312 446.794 81.1533 445.484 80.3975 444.523C79.6475 443.562 78.6279 443.082 77.3389 443.082ZM77.3389 441.641C79.1787 441.641 80.6494 442.259 81.751 443.495C82.8525 444.726 83.4033 446.378 83.4033 448.452C83.4033 450.521 82.8525 452.173 81.751 453.409C80.6494 454.64 79.1787 455.255 77.3389 455.255C75.4932 455.255 74.0166 454.64 72.9092 453.409C71.8076 452.179 71.2568 450.526 71.2568 448.452C71.2568 446.378 71.8076 444.726 72.9092 443.495C74.0166 442.259 75.4932 441.641 77.3389 441.641ZM86.1807 441.878H87.9561V455H86.1807V441.878ZM93.2646 443.337V453.541H95.4092C97.2197 453.541 98.5439 453.131 99.3818 452.311C100.226 451.49 100.647 450.195 100.647 448.426C100.647 446.668 100.226 445.382 99.3818 444.567C98.5439 443.747 97.2197 443.337 95.4092 443.337H93.2646ZM91.4893 441.878H95.1367C97.6797 441.878 99.5459 442.408 100.735 443.469C101.925 444.523 102.52 446.176 102.52 448.426C102.52 450.688 101.922 452.349 100.727 453.409C99.5312 454.47 97.668 455 95.1367 455H91.4893V441.878ZM111.555 453.506H114.455V443.495L111.3 444.128V442.511L114.438 441.878H116.213V453.506H119.113V455H111.555V453.506ZM123.016 453.506H125.916V443.495L122.761 444.128V442.511L125.898 441.878H127.674V453.506H130.574V455H123.016V453.506Z" fill="white"/>
<path d="M24.2266 468.627L21.8184 475.157H26.6436L24.2266 468.627ZM23.2246 466.878H25.2373L30.2383 480H28.3926L27.1973 476.634H21.2822L20.0869 480H18.2148L23.2246 466.878ZM32.1631 466.878H34.5537L40.3721 477.855V466.878H42.0947V480H39.7041L33.8857 469.022V480H32.1631V466.878ZM47.4033 468.337V478.541H49.5479C51.3584 478.541 52.6826 478.131 53.5205 477.311C54.3643 476.49 54.7861 475.195 54.7861 473.426C54.7861 471.668 54.3643 470.382 53.5205 469.567C52.6826 468.747 51.3584 468.337 49.5479 468.337H47.4033ZM45.6279 466.878H49.2754C51.8184 466.878 53.6846 467.408 54.874 468.469C56.0635 469.523 56.6582 471.176 56.6582 473.426C56.6582 475.688 56.0605 477.349 54.8652 478.409C53.6699 479.47 51.8066 480 49.2754 480H45.6279V466.878ZM65.7197 473.848C66.1006 473.977 66.4697 474.252 66.8271 474.674C67.1904 475.096 67.5537 475.676 67.917 476.414L69.7188 480H67.8115L66.1328 476.634C65.6992 475.755 65.2773 475.172 64.8672 474.885C64.4629 474.598 63.9092 474.454 63.2061 474.454H61.2725V480H59.4971V466.878H63.5049C65.0049 466.878 66.124 467.191 66.8623 467.818C67.6006 468.445 67.9697 469.392 67.9697 470.657C67.9697 471.483 67.7764 472.169 67.3896 472.714C67.0088 473.259 66.4521 473.637 65.7197 473.848ZM61.2725 468.337V472.995H63.5049C64.3604 472.995 65.0049 472.799 65.4385 472.406C65.8779 472.008 66.0977 471.425 66.0977 470.657C66.0977 469.89 65.8779 469.312 65.4385 468.926C65.0049 468.533 64.3604 468.337 63.5049 468.337H61.2725ZM77.3389 468.082C76.0498 468.082 75.0244 468.562 74.2627 469.523C73.5068 470.484 73.1289 471.794 73.1289 473.452C73.1289 475.104 73.5068 476.411 74.2627 477.372C75.0244 478.333 76.0498 478.813 77.3389 478.813C78.6279 478.813 79.6475 478.333 80.3975 477.372C81.1533 476.411 81.5312 475.104 81.5312 473.452C81.5312 471.794 81.1533 470.484 80.3975 469.523C79.6475 468.562 78.6279 468.082 77.3389 468.082ZM77.3389 466.641C79.1787 466.641 80.6494 467.259 81.751 468.495C82.8525 469.726 83.4033 471.378 83.4033 473.452C83.4033 475.521 82.8525 477.173 81.751 478.409C80.6494 479.64 79.1787 480.255 77.3389 480.255C75.4932 480.255 74.0166 479.64 72.9092 478.409C71.8076 477.179 71.2568 475.526 71.2568 473.452C71.2568 471.378 71.8076 469.726 72.9092 468.495C74.0166 467.259 75.4932 466.641 77.3389 466.641ZM86.1807 466.878H87.9561V480H86.1807V466.878ZM93.2646 468.337V478.541H95.4092C97.2197 478.541 98.5439 478.131 99.3818 477.311C100.226 476.49 100.647 475.195 100.647 473.426C100.647 471.668 100.226 470.382 99.3818 469.567C98.5439 468.747 97.2197 468.337 95.4092 468.337H93.2646ZM91.4893 466.878H95.1367C97.6797 466.878 99.5459 467.408 100.735 468.469C101.925 469.523 102.52 471.176 102.52 473.426C102.52 475.688 101.922 477.349 100.727 478.409C99.5312 479.47 97.668 480 95.1367 480H91.4893V466.878ZM111.555 478.506H114.455V468.495L111.3 469.128V467.511L114.438 466.878H116.213V478.506H119.113V480H111.555V478.506ZM124.237 478.506H130.434V480H122.102V478.506C122.775 477.809 123.692 476.874 124.853 475.702C126.019 474.524 126.751 473.766 127.05 473.426C127.618 472.787 128.014 472.248 128.236 471.809C128.465 471.363 128.579 470.927 128.579 470.499C128.579 469.802 128.333 469.233 127.841 468.794C127.354 468.354 126.719 468.135 125.934 468.135C125.377 468.135 124.788 468.231 124.167 468.425C123.552 468.618 122.893 468.911 122.189 469.304V467.511C122.904 467.224 123.572 467.007 124.193 466.86C124.814 466.714 125.383 466.641 125.898 466.641C127.258 466.641 128.342 466.98 129.15 467.66C129.959 468.34 130.363 469.248 130.363 470.385C130.363 470.924 130.261 471.437 130.056 471.923C129.856 472.403 129.49 472.972 128.957 473.628C128.811 473.798 128.345 474.29 127.56 475.104C126.774 475.913 125.667 477.047 124.237 478.506Z" fill="white"/>
</svg>
