<svg xmlns="http://www.w3.org/2000/svg" xmlns:xlink="http://www.w3.org/1999/xlink" width="837" height="456.308" viewBox="0 0 837 456.308"><defs><style>.a,.s{fill:none;}.b{fill:#a6a6a6;}.c,.j{fill:#fff;}.d{fill:url(#a);}.e{fill:url(#b);}.f{fill:url(#c);}.g{fill:url(#d);}.h{opacity:0.2;}.h,.i,.j{isolation:isolate;}.i{opacity:0.12;}.j{opacity:0.25;}.k{clip-path:url(#e);}.l,.n{fill:#caa267;}.l{fill-rule:evenodd;}.m{fill:#8c7cc9;}.o{fill:#5e5586;}.p{fill:#f1c759;}.q{opacity:0.3;}.r{opacity:0.5;}.s{stroke:#8c7cc9;stroke-miterlimit:10;stroke-width:1.118px;}.t{fill:#c2934e;}.u{opacity:0.15;}.v{fill:#f0c659;}.w{fill:#979797;}.x{fill:#cacaca;}.y{fill:#7f7f7f;}.z{fill:#5e5587;}</style><linearGradient id="a" x1="13.599" y1="12.445" x2="13.488" y2="12.474" gradientUnits="objectBoundingBox"><stop offset="0" stop-color="#00a0ff"/><stop offset="0.007" stop-color="#00a1ff"/><stop offset="0.26" stop-color="#00beff"/><stop offset="0.512" stop-color="#00d2ff"/><stop offset="0.76" stop-color="#00dfff"/><stop offset="1" stop-color="#00e3ff"/></linearGradient><linearGradient id="b" x1="15.708" y1="29.558" x2="15.448" y2="29.558" gradientUnits="objectBoundingBox"><stop offset="0" stop-color="#ffe000"/><stop offset="0.409" stop-color="#ffbd00"/><stop offset="0.775" stop-color="orange"/><stop offset="1" stop-color="#ff9c00"/></linearGradient><linearGradient id="c" x1="10.735" y1="21.351" x2="10.644" y2="21.504" gradientUnits="objectBoundingBox"><stop offset="0" stop-color="#ff3a44"/><stop offset="1" stop-color="#c31162"/></linearGradient><linearGradient id="d" x1="10.665" y1="22.238" x2="10.705" y2="22.306" gradientUnits="objectBoundingBox"><stop offset="0" stop-color="#32a071"/><stop offset="0.068" stop-color="#2da771"/><stop offset="0.476" stop-color="#15cf74"/><stop offset="0.801" stop-color="#06e775"/><stop offset="1" stop-color="#00f076"/></linearGradient><clipPath id="e"><rect class="a" width="456.308" height="456.308" rx="12"/></clipPath></defs><g transform="translate(-554 -315.798)"><g transform="translate(554 407.377)"><path d="M962.81,532.429H569.729A15.737,15.737,0,0,1,554,516.77V422.815a15.718,15.718,0,0,1,15.729-15.66H962.81a15.724,15.724,0,0,1,15.73,15.66V516.77A15.743,15.743,0,0,1,962.81,532.429Z" transform="translate(-554 -407.155)"/><path class="b" d="M962.81,409.662a13.223,13.223,0,0,1,13.223,13.153V516.77a13.2,13.2,0,0,1-13.223,13.152H569.729a13.223,13.223,0,0,1-13.222-13.152V422.815a13.2,13.2,0,0,1,13.222-13.153Zm0-2.507H569.729A15.738,15.738,0,0,0,554,422.815V516.77a15.717,15.717,0,0,0,15.729,15.659H962.81a15.723,15.723,0,0,0,15.73-15.659V422.815A15.744,15.744,0,0,0,962.81,407.155Z" transform="translate(-554 -407.155)"/><path class="c" d="M767.067,463.161a13.324,13.324,0,1,0,13.362,13.324A13.116,13.116,0,0,0,767.067,463.161Zm0,21.369c-4.038,0-7.513-3.343-7.513-8.076,0-4.8,3.482-8.076,7.513-8.076s7.513,3.272,7.513,8.076C774.588,481.218,771.105,484.53,767.067,484.53Zm-29.156-21.369a13.324,13.324,0,1,0,13.363,13.324A13.116,13.116,0,0,0,737.912,463.161Zm0,21.369c-4.038,0-7.513-3.343-7.513-8.076,0-4.8,3.483-8.076,7.513-8.076s7.513,3.272,7.513,8.076C745.425,481.218,741.95,484.53,737.912,484.53Zm-34.692-17.3v5.639h13.535a11.887,11.887,0,0,1-3.061,7.1,13.81,13.81,0,0,1-10.442,4.139,15.036,15.036,0,0,1,0-30.069,14.451,14.451,0,0,1,10.193,4.038l4-4a19.667,19.667,0,0,0-14.16-5.709,20.675,20.675,0,1,0,0,41.346c6.163,0,10.786-2.015,14.441-5.81,3.726-3.726,4.9-8.982,4.9-13.223a17.394,17.394,0,0,0-.313-3.514h-19.1C703.22,467.16,703.22,467.231,703.22,467.231Zm141.9,4.389c-1.117-2.991-4.491-8.49-11.411-8.49-6.857,0-12.558,5.4-12.558,13.324a13.023,13.023,0,0,0,13.223,13.324,13.226,13.226,0,0,0,11.1-5.912l-4.522-3.03a7.578,7.578,0,0,1-6.545,3.686,6.806,6.806,0,0,1-6.475-4.038l17.815-7.381C845.746,473.111,845.121,471.619,845.121,471.619Zm-18.166,4.452a7.313,7.313,0,0,1,6.959-7.763,5.136,5.136,0,0,1,4.944,2.819Zm-14.472,12.91h5.85V449.838h-5.85Zm-9.606-22.86h-.211a9.229,9.229,0,0,0-7.029-2.991c-6.647,0-12.77,5.85-12.77,13.363a13.165,13.165,0,0,0,12.77,13.261,9.2,9.2,0,0,0,7.029-3.03h.211v1.914c0,5.084-2.718,7.826-7.1,7.826a7.387,7.387,0,0,1-6.717-4.733l-5.084,2.125a12.717,12.717,0,0,0,11.794,7.864c6.858,0,12.668-4.038,12.668-13.886V463.927h-5.529v2.194ZM796.16,484.53c-4.038,0-7.412-3.374-7.412-8.036,0-4.7,3.374-8.107,7.412-8.107,4,0,7.1,3.444,7.1,8.107C803.3,481.155,800.166,484.53,796.16,484.53Zm76.351-34.692H858.523v39.144h5.849V474.157h8.147c6.474,0,12.839-4.693,12.839-12.144S879.017,449.838,872.511,449.838Zm.171,18.853h-8.317V455.258h8.317a6.718,6.718,0,1,1,0,13.433Zm36.122-5.6c-4.248,0-8.63,1.883-10.442,5.983l5.187,2.156a5.56,5.56,0,0,1,5.326-2.89c3.03,0,6.092,1.811,6.162,5.045v.414a13.1,13.1,0,0,0-6.092-1.5c-5.6,0-11.277,3.061-11.277,8.8,0,5.256,4.592,8.63,9.707,8.63a8.235,8.235,0,0,0,7.443-3.827h.211v3.03h5.639v-15C920.668,466.957,915.482,463.091,908.8,463.091Zm-.734,21.439c-1.914,0-4.592-.937-4.592-3.343,0-3.03,3.342-4.178,6.193-4.178a10.153,10.153,0,0,1,5.327,1.32A7.042,7.042,0,0,1,908.07,484.53Zm33.169-20.6-6.717,16.979h-.211l-6.959-16.979h-6.3L931.5,487.661l-5.951,13.191h6.092l16.066-36.925Zm-52.656,25.055h5.849V449.838h-5.849Z" transform="translate(-553.688 -407.055)"/><path class="d" d="M586.6,430.693a6.34,6.34,0,0,0-1.429,4.42v69.252a6.038,6.038,0,0,0,1.461,4.382l.242.211,38.8-38.8v-.867l-38.831-38.808Z" transform="translate(-553.924 -407.098)"/><path class="e" d="M638.487,483.067l-12.941-12.941v-.905l12.941-12.941.281.171,15.308,8.7c4.382,2.468,4.382,6.545,0,9.044l-15.308,8.7Z" transform="translate(-553.826 -407.036)"/><path class="f" d="M638.863,482.863,625.641,469.64,586.6,508.683c1.429,1.531,3.827,1.7,6.506.212l45.759-26.031" transform="translate(-553.921 -407.003)"/><path class="g" d="M638.863,456.516,593.1,430.524c-2.679-1.531-5.084-1.32-6.506.21l39.043,39Z" transform="translate(-553.921 -407.101)"/><path class="h" d="M638.582,482.55l-45.447,25.821c-2.538,1.461-4.8,1.358-6.263.031l-.242.243.242.211c1.461,1.32,3.725,1.429,6.263-.031l45.76-25.992Z" transform="translate(-553.921 -406.972)"/><path class="i" d="M654.045,473.71l-15.628,8.871.281.282,15.308-8.7c2.194-1.249,3.273-2.889,3.273-4.522C657.145,471.14,656.029,472.561,654.045,473.71Z" transform="translate(-553.795 -407.003)"/><path class="j" d="M593.107,430.977l61.067,34.692c1.984,1.117,3.1,2.577,3.273,4.069,0-1.632-1.079-3.272-3.273-4.522l-61.067-34.692c-4.382-2.507-7.935-.414-7.935,4.592v.453C585.172,430.555,588.726,428.5,593.107,430.977Z" transform="translate(-553.924 -407.101)"/></g><g transform="translate(934.692 315.798)"><g class="k"><g transform="translate(9.743 42.838)"><g transform="translate(0 227.002)"><path class="l" d="M953.579,595.113s-5.726-6.531-12.4-7.843c-3.969-.781-3.833-1.782-4.5-2.11-2.219-1.088-.2,3.2,3.145,4.414,2.721.987,4.067,5.762,5.684,6.83s6.5,3.1,7.764,2.507S953.579,595.113,953.579,595.113Z" transform="translate(-919.45 -584.984)"/><path class="l" d="M971.217,604.013c-1.218-.465-13.935-8.808-20.977-9.751s-17.6-1.673-21.206-2.86c-4.242-1.4-5.4.264-.528,2.355,3.164,1.359,9.671,3.532,11.127,3.651.706.057-3.874-.751-8.837-1.994-5.276-1.321-10.987-3.058-11.289-2.121-.588,1.816,14.57,6.579,17.26,6.982a68.09,68.09,0,0,1-7.084-1.155c-3.19-.7-6.826-1.992-7.577-1.354-1.183,1,6.805,4.522,13.477,5.728.108.222-2.073.473-9.9-1.492-.787-.2-2.821.066-.273,1.374,5.365,2.754,7.468,4.333,15.383,4.906,7.718.558,16.313-.682,21.795,1.41Z" transform="translate(-919.489 -584.97)"/></g><path class="m" d="M965.55,613.74c6.186,2.421,51.1,10.657,92.329,1.6,26.021-5.7,50.564-18.311,62.98-43.616,32.084-65.412-42.886-102.515-42.886-102.515a1.325,1.325,0,0,0-.112.179c-3.25,4.908-73.133,109.755-121.623,126.116C956.237,595.507,955.464,609.785,965.55,613.74Z" transform="translate(-919.4 -358.264)"/><path class="n" d="M1269.726,736.322s-1.56,144.245,4.547,146.2c10.962,3.577,53.641,14.69,7.7,15.392-23.335,3.431-22.065-1.958-22.813-6.367-.612-3.6-10.934-131.686-12.754-141.559-.407-2.211-.655-3.548-.655-3.548Z" transform="translate(-918.697 -357.615)"/><path class="n" d="M1170.965,726.186s-10.319,143.336-16.479,145.119c-11.057,3.268-54.032,13.179-8.13,15.17,23.23,4.085,22.112-1.337,22.984-5.724.712-3.585,6.506-30.742,8.6-40.56.469-2.2,17.811-113.243,17.811-113.243Z" transform="translate(-918.989 -357.639)"/><path class="o" d="M1172.358,871.5c.508-2.028-14.168-3.512-16.018-2.028s-31.744,4.17-32.158,12.909,40.842,6.549,43.756,6.675S1171.359,875.489,1172.358,871.5Z" transform="translate(-918.992 -357.293)"/><g transform="translate(236.796 216.824)"><path class="p" d="M1163.69,585.737a9.09,9.09,0,0,0,5.347,1.931c12.1-.8,64.373-4.4,92.545-8.46,9.94-1.434,16.879-2.925,17.995-4.378a1.036,1.036,0,0,1,0,.115c.06,1.567.7,19.51,1.458,43.038,1.5,46.445,11.97,112.247,19.281,131.865,1.578,4.234-63.834,3.24-63.834,3.24-4.283-47.694-6.961-131.841-10.208-135.343-3.949-4.261-3.38,69.907-4.69,132.126-25.1,8.908-66.118,8.337-65.875,5.666C1158.606,723.8,1163.69,585.737,1163.69,585.737Z" transform="translate(-1155.711 -574.831)"/><g class="q" transform="translate(55.821)"><path d="M1211.983,584.4l-.586,0S1211.6,584.4,1211.983,584.4Z" transform="translate(-1211.397 -574.808)"/><path class="r" d="M1211.982,584.427c15.66-.1,49.464-5.219,49.464-5.219,9.94-1.434,16.879-2.925,17.995-4.378a1.036,1.036,0,0,1,0,.115c.06,1.567.7,19.51,1.458,43.038a11.635,11.635,0,0,1-1.65-.048,12.774,12.774,0,0,1-8.734-5.141,28.4,28.4,0,0,1-3.776-6.409C1253.248,585.319,1217,584.446,1211.982,584.427Z" transform="translate(-1211.396 -574.831)"/></g><g transform="translate(17.566 4.061)"><line class="s" x1="1.657" y2="173.607" transform="translate(0 4.742)"/><line class="s" x1="1.791" y2="170.598" transform="translate(16.505 6.78)"/><line class="s" x2="0.86" y2="169.178" transform="translate(34.271 5.406)"/><line class="s" x2="3.343" y2="34.771" transform="translate(49.657 4.083)"/><line class="s" x2="11.59" y2="171.685" transform="translate(66.736 2.614)"/><line class="s" x2="13.988" y2="172.927" transform="translate(81.423 1.242)"/><line class="s" x2="18.277" y2="173.558" transform="translate(95.867)"/></g><path class="s" d="M1162.987,603.8s93.108-3.6,117.232-10.083" transform="translate(-1155.693 -574.785)"/><path class="s" d="M1226.261,617.642c-31.813,10.139-63.863,1.192-63.863,1.192" transform="translate(-1155.695 -574.727)"/><path class="s" d="M1225.568,615.489s29.989,5.71,55.111-3.45" transform="translate(-1155.541 -574.741)"/><path class="s" d="M1161.89,631.557s24.435,10.231,61.877.723" transform="translate(-1155.696 -574.693)"/><path class="s" d="M1161.27,646.713s37.34,7.979,61.94.1" transform="translate(-1155.697 -574.656)"/><path class="s" d="M1160.636,661.771s19.781,12.933,62.186,2.722" transform="translate(-1155.699 -574.62)"/><path class="s" d="M1159.881,679.1s29.526,12.334,62.726-.666" transform="translate(-1155.701 -574.579)"/><path class="s" d="M1159.159,694.968s21.234,12.484,63.23.559" transform="translate(-1155.703 -574.539)"/><path class="s" d="M1158.376,711.25s28.864,12.063,63.853-2.7" transform="translate(-1155.704 -574.506)"/><path class="s" d="M1157.722,723.952s17.645,14.272,64.323-1.448" transform="translate(-1155.706 -574.472)"/><path class="s" d="M1156.9,738.381s27.545,11.616,64.926-1.942" transform="translate(-1155.708 -574.438)"/><path class="s" d="M1228.244,631.051s13.1,9.049,53.894-2.013" transform="translate(-1155.535 -574.699)"/><path class="s" d="M1229.87,646.191s17.853,6.527,52.512-2.822" transform="translate(-1155.531 -574.664)"/><path class="s" d="M1230.482,663.1s27.192,5.7,53.2-4.576" transform="translate(-1155.529 -574.628)"/><path class="s" d="M1231.3,677.089s26.751,9.237,54.1-4.653" transform="translate(-1155.527 -574.594)"/><path class="s" d="M1232.187,692.451s25.271,6.5,55.245-4.752" transform="translate(-1155.525 -574.557)"/><path class="s" d="M1233.058,707.2s21.475,7.5,56.608-4.869" transform="translate(-1155.523 -574.521)"/><path class="s" d="M1234.178,720.222s25.638,10.541,57.974-3.632" transform="translate(-1155.52 -574.487)"/><path class="s" d="M1234.989,736.553s28.738,7.064,60.329-4.487" transform="translate(-1155.518 -574.449)"/></g><path class="t" d="M1153.038,402.36s2.74,13.46,12.99,18.3-18.635,5.564-18.635,5.564,1.224-14.04-2.221-21.51S1153.038,402.36,1153.038,402.36Z" transform="translate(-918.943 -358.43)"/><ellipse class="n" cx="20.129" cy="14.754" rx="20.129" ry="14.754" transform="translate(206.758 43.575) rotate(-68.921)"/><path class="m" d="M1057.639,615.487c26.021-5.7,50.564-18.311,62.98-43.616.045.067.09.123.134.19.135.168.27.348.4.549a.586.586,0,0,1,.089.123c3.575,4.886,21.124,28.879,21.124,28.89,6.365,8.293,16.092,16.26,23.814,19.465.5.225,1.02.415,1.491.583,18.927,2.958,97.753-27,107.144-34.483,4.236-3.373,5.894-19.185,6.231-36.331.426-20.9-1.088-43.817-2.2-48.647-1.884-8.1-39.1-97.742-97.5-92.071a59.87,59.87,0,0,0-15.2,3.564s-.437.459-1.211,1.143a28.7,28.7,0,0,1-5.278,3.754,22.414,22.414,0,0,1-5.39,2.163,16.522,16.522,0,0,1-11.016-.9c-3.654-1.637-11.767.28-21.617,5.782-13.683,7.632-30.75,22.189-43.917,43.7a1.325,1.325,0,0,0-.112.179,140.779,140.779,0,0,0-18.872,51.807A334.124,334.124,0,0,0,1057.639,615.487Z" transform="translate(-919.16 -358.408)"/><path class="u" d="M1120.462,571.53c.044.068.1.123.139.193.133.17.269.352.4.547.034.037.057.076.1.124,3.575,4.885,21.114,28.886,21.118,28.9,6.367,8.285,16.093,16.258,23.82,19.459-8.782-14.02-35.16-54.387-39.984-72.384C1128.672,566.318,1120.459,571.519,1120.462,571.53Z" transform="translate(-919.001 -358.071)"/><path class="u" d="M1156,423.628c.424,1.265,0,2.3-2.137,2.637-6.659,1.041-13.832,3.381-18.364,7.354a4.656,4.656,0,0,1-4.372,1.107c-3.948-.961-7.781-6.2-9.384-8.555a1.847,1.847,0,0,1-.256-.543c9.853-5.5,17.959-7.42,21.618-5.776a16.5,16.5,0,0,0,11.013.887A9.1,9.1,0,0,1,1156,423.628Z" transform="translate(-918.999 -358.385)"/><g transform="translate(213.998)"><g transform="translate(0 3.928)"><path class="v" d="M1145.694,375.845s18.739,22.4,19.843-1.542C1166.3,357.738,1133.084,360.122,1145.694,375.845Z" transform="translate(-1132.945 -362.45)"/><path class="v" d="M1151.126,372.11s-16.385,2.772-18.157,11.205c0,0,6.193-24.831,19.682-20.315s18.128,7.773,7.293,32.377C1159.943,395.378,1163.774,373.96,1151.126,372.11Z" transform="translate(-1132.969 -362.451)"/></g><path class="v" d="M1151.967,362.941s3.516-7.125,10.432-3.258,8.442,9.258,7.875,13.845-.731,8.126.316,8.529c0,0-4.347,1.928-4.989.479,0,0-.184,8.566-6.013,13.411,0,0,2.309-10.034-2.516-13.1S1151.967,362.941,1151.967,362.941Z" transform="translate(-1132.923 -358.533)"/><path class="v" d="M1152.706,363.129s-4.02-5.152-12.069.152l-5.554,5.064s.642,1.449,3.137,1.21c0,0-3.792,7-4.4,11.544l7.936-11.381Z" transform="translate(-1132.967 -358.527)"/></g><g transform="translate(217.563 134.036)"><path class="w" d="M1142.565,569.137l85.266,34.9a9.724,9.724,0,0,0,12.672-5.308l23.813-58.2a3.049,3.049,0,0,0,.149-.421A9.687,9.687,0,0,0,1259,527.868l-85.267-34.9a9.7,9.7,0,0,0-12.661,5.314l-22.717,55.5-1.106,2.7A9.706,9.706,0,0,0,1142.565,569.137Z" transform="translate(-1136.525 -492.244)"/><path class="x" d="M1143.816,566.02l85.267,34.9a9.707,9.707,0,0,0,12.662-5.314l22.717-55.5A9.687,9.687,0,0,0,1259,527.868l-85.267-34.9a9.7,9.7,0,0,0-12.661,5.314l-22.717,55.5A9.685,9.685,0,0,0,1143.816,566.02Z" transform="translate(-1136.522 -492.244)"/><circle class="y" cx="7.5" cy="7.5" r="7.5" transform="translate(58.366 47.053)"/></g><path class="u" d="M1267.1,550.979s-8.177-32.48-90.875,3.906,70.52,1.166,70.52,1.166Z" transform="translate(-918.925 -358.098)"/><path class="u" d="M1230.1,469.21s-2.9,87.7,81.3,99.434l1.805.551-5.982-18.637s-49.461-38.3-49.967-39.512S1230.1,469.21,1230.1,469.21Z" transform="translate(-918.735 -358.264)"/><g transform="translate(223.87 43.7)"><g transform="translate(0 157.004)"><path class="l" d="M1187.831,564.45c-1.12-.037-13.784-3.264-19.77-2.062s-14.768,3.559-18.03,3.6c-3.838.05-4.312,1.722.229,2.061a59.924,59.924,0,0,0,10.061-.143c.589-.149-3.358.473-7.738.85-4.656.4-9.782.584-9.767,1.43.03,1.64,13.678,1.275,15.976.851a58.632,58.632,0,0,1-6.08,1.04c-2.788.321-6.1.29-6.535,1.016-.681,1.147,6.793,1.773,12.55.889.15.15-1.552.963-8.461,1.555-.694.059-2.274.842.162,1.193,5.128.738,7.28,1.434,13.871-.312,6.428-1.7,13.065-5.112,18.1-4.944Z" transform="translate(-1142.817 -558.742)"/><path class="l" d="M1171.013,562.131s-6.477-3.706-12.268-2.908c-3.443.475-3.613-.376-4.248-.456-2.107-.264.728,2.655,3.788,2.708,2.487.042,4.915,3.546,6.527,3.962s6.149.707,7.009-.132S1171.013,562.131,1171.013,562.131Z" transform="translate(-1142.79 -558.75)"/></g><path class="m" d="M1240.789,407.281c25.63,12.058,44.643,24.689,69.881,77.376,12.805,26.731,20.028,55.128,23.291,70.266a18.24,18.24,0,0,1-7.474,18.785c-57.131,39.823-144.693.473-144.693.473-4.033-.268-.59-15.389-.59-15.389,34.927-10.823,62.091-17.764,93.217-15.361-.161-.024-42.778-43.159-50.7-56.205-20.754-34.215-62.194-56.815-58.293-73.818C1166.776,407.527,1214.938,395.118,1240.789,407.281Z" transform="translate(-1142.763 -402.127)"/></g><path class="z" d="M1257.234,878.772c-.45-2.041,17.366-.934,19.173.6s28.014,6.3,28.182,15.045-41.008,5.4-43.925,5.445S1258.121,882.784,1257.234,878.772Z" transform="translate(-918.669 -357.271)"/></g></g></g></g></svg>