<svg xmlns="http://www.w3.org/2000/svg" width="434.999" height="392.07" viewBox="0 0 434.999 392.07"><defs><style>.a{fill:#bec9f2;opacity:0.49;}.b{fill:#c2934e;}.c{fill:#c39652;}.d{fill:#caa267;}.e{fill:#5e5586;}.f{fill:#5e5587;}.g{fill:#f1c759;}.h{opacity:0.3;}.i{opacity:0.5;}.j{fill:none;stroke:#8c7cc9;stroke-miterlimit:10;stroke-width:1.41px;}.k{fill:#8c7cc9;}.l{fill:#cea971;}.m{opacity:0.15;}.n{fill:#f0c659;}.o{fill:#171718;}.p{fill:#2c2c33;}.q,.r,.v{fill:#fff;}.r{opacity:0.89;}.s{fill:#95c720;}.t{opacity:0.41;}.u{opacity:0.81;}.v{opacity:0.18;}.w{fill:#8a7cc7;fill-rule:evenodd;}</style></defs><g transform="translate(-844.557 -291.075)"><g transform="translate(844.557 327.286)"><path class="a" d="M919.64,449.489c41.84-55.778,62.759-83.666,85.724-96.892,76.728-44.189,206.225-27.1,254.012,51.9,2.486,4.111,36.066,61.44,12.168,110.795-20.009,41.323-60.074,35.266-161.474,80.556-108.56,48.487-128.408,84.8-173.359,72.268-42.558-11.87-76-58.714-78.219-102.011C856.845,533.906,877.754,505.329,919.64,449.489Z" transform="translate(-845.086 -328.726)"/><ellipse class="a" cx="21.386" cy="21.401" rx="21.386" ry="21.401" transform="translate(30.35 73.439)"/><ellipse class="a" cx="8.969" cy="8.976" rx="8.969" ry="8.976" transform="translate(0 93.316)"/><ellipse class="a" cx="15.451" cy="15.462" rx="15.451" ry="15.462" transform="translate(357.498 234.836)"/><ellipse class="a" cx="6.29" cy="6.294" rx="6.29" ry="6.294" transform="translate(402.719 248.882)"/><circle class="a" cx="4.616" cy="4.616" r="4.616" transform="translate(74.939 50.492)"/><circle class="a" cx="4.616" cy="4.616" r="4.616" transform="translate(322.704 269.823)"/></g><g transform="translate(1015.645 291.075)"><path class="b" d="M1126.325,326.182s-.759,9.812,3.685,16.786c2.986,4.687-2.845,4.322-9.22,3.312-4.894-.776-5.849-3.528-5.849-3.528a6.807,6.807,0,0,0,3.781-4.481c1.018-3.274.485-9.04-.035-12.089C1117.6,319.83,1126.325,326.182,1126.325,326.182Z" transform="translate(-1025.982 -292.309)"/><g transform="translate(46.409 168.553)"><path class="c" d="M1090.23,582.365s11.083,96.992,7.108,98.733c-7.131,3.17-35.088,13.619-4.114,10.9,15.947.687,14.717-2.853,14.914-5.873.161-2.468-1.8-89.408-1.26-96.181.12-1.517.193-2.434.193-2.434Z" transform="translate(-1071.015 -470.764)"/><path class="d" d="M1183.915,666.985c-2.066.24-6.794,2.2-9.319,3.768-8.185-19.206-38.084-91.324-38.084-91.324l13.118-10.468S1175.523,643.611,1183.915,666.985Z" transform="translate(-1073.216 -470.252)"/><path class="e" d="M1185.844,671.069c-.627-1.269-11.648,3.483-11.952,5.059-.15.778-14.207,15.673-12.376,18.047.961,2.532,6.065,1.432,11.317.45a14.44,14.44,0,0,0,5.778-2.48c6.193-4.458,11.8-7.987,12.644-10.084C1191.994,680.229,1187.075,673.562,1185.844,671.069Z" transform="translate(-1074.166 -474.147)"/><path class="f" d="M1108.5,681.39c.161-1.406-11.756.578-12.866,1.737s-18.42,6.188-17.926,12.089,27.982.783,29.949.61S1108.186,684.152,1108.5,681.39Z" transform="translate(-1070.968 -474.532)"/><path class="g" d="M1076.47,473.458a6.16,6.16,0,0,0,3.615,1.318c8.193-.516,43.573-2.836,62.648-5.523,6.73-.949,11.429-1.943,12.188-2.924,0,0,0,.028,0,.078.037,1.061.432,13.206.893,29.129.912,31.434,7.857,75.989,12.762,89.281,1.059,2.87-43.206,2.054-43.206,2.054-2.8-32.286-4.424-89.238-6.614-91.615-2.664-2.893-2.44,47.3-3.461,89.406-17.009,5.974-44.764,5.5-44.593,3.69C1072.728,566.876,1076.47,473.458,1076.47,473.458Z" transform="translate(-1070.7 -466.328)"/><g class="h" transform="translate(38.149)"><path d="M1110.763,472.928h-.4S1110.506,472.926,1110.763,472.928Z" transform="translate(-1110.366 -466.58)"/><path class="i" d="M1110.779,472.676c10.6-.032,33.486-3.424,33.486-3.424,6.73-.949,11.429-1.943,12.187-2.924,0,0,0,.028,0,.078.038,1.061.432,13.206.894,29.129a7.913,7.913,0,0,1-1.117-.036,8.645,8.645,0,0,1-5.9-3.5,19.168,19.168,0,0,1-2.542-4.346C1138.7,473.369,1114.177,472.7,1110.779,472.676Z" transform="translate(-1110.382 -466.328)"/></g><g transform="translate(11.884 2.726)"><line class="j" x1="1.499" y2="117.485" transform="translate(0 3.004)"/><line class="j" x1="1.583" y2="115.448" transform="translate(11.172 4.42)"/><line class="j" x2="0.214" y2="114.493" transform="translate(23.569 3.525)"/><line class="j" x2="2.187" y2="23.539" transform="translate(33.984 2.662)"/><line class="j" x2="7.47" y2="116.213" transform="translate(45.545 1.705)"/><line class="j" x2="9.091" y2="117.059" transform="translate(55.488 0.809)"/><line class="j" x2="11.991" y2="117.495" transform="translate(65.266)"/></g><path class="j" d="M1076.175,486.217s63.019-2.232,79.359-6.569" transform="translate(-1070.91 -466.837)"/><path class="j" d="M1118.948,496.405c-21.552,6.792-43.222.668-43.222.668" transform="translate(-1070.892 -467.478)"/><path class="j" d="M1120.292,494.792s20.282,3.929,37.3-2.216" transform="translate(-1072.596 -467.332)"/><path class="j" d="M1075.339,506.074s16.515,6.977,41.874.624" transform="translate(-1070.878 -467.848)"/><path class="j" d="M1074.867,516.764s25.253,5.48,41.918.2" transform="translate(-1070.859 -468.256)"/><path class="j" d="M1074.386,527.384s13.359,8.8,42.078,1.976" transform="translate(-1070.841 -468.662)"/><path class="j" d="M1073.814,539.589a61.232,61.232,0,0,0,42.452-.314" transform="translate(-1070.819 -469.117)"/><path class="j" d="M1073.269,550.8s14.344,8.494,42.789.516" transform="translate(-1070.798 -469.557)"/><path class="j" d="M1072.68,562.207s19.508,8.227,43.218-1.687" transform="translate(-1070.776 -469.929)"/><path class="j" d="M1072.19,571.2s11.91,9.7,43.533-.841" transform="translate(-1070.757 -470.305)"/><path class="j" d="M1071.58,581.362s18.616,7.921,43.943-1.172" transform="translate(-1070.734 -470.681)"/><path class="j" d="M1122.144,505.815s8.846,6.151,36.477-1.245" transform="translate(-1072.667 -467.79)"/><path class="j" d="M1123.256,516.475s12.068,4.456,35.544-1.8" transform="translate(-1072.709 -468.177)"/><path class="j" d="M1123.65,528.352s18.389,3.919,36.016-2.982" transform="translate(-1072.725 -468.585)"/><path class="j" d="M1124.2,538.22s18.084,6.31,36.622-3.032" transform="translate(-1072.745 -468.961)"/><path class="j" d="M1124.786,549.055s17.088,4.452,37.4-3.1" transform="translate(-1072.768 -469.372)"/><path class="j" d="M1125.367,559.459s14.517,5.121,38.32-3.172" transform="translate(-1072.79 -469.767)"/><path class="j" d="M1126.128,568.68s17.327,7.188,39.24-2.332" transform="translate(-1072.819 -470.152)"/><path class="j" d="M1126.663,580.177a77.089,77.089,0,0,0,40.837-2.906" transform="translate(-1072.84 -470.569)"/></g><g transform="translate(0 48.008)"><path class="k" d="M1062.056,395.7c-1.344,2.1-6.829,61.741,0,74.113,6.869,12.443,64.09,19.095,82.079,9.522,18.254-9.713,25.286-19.055,27.726-36.475,2.445-17.454-3.256-44.393-3.256-44.393l-78.015-51.559Z" transform="translate(-1023.832 -341.217)"/><g transform="translate(38.452 123.157)"><path class="l" d="M1077.719,469.218A45.545,45.545,0,0,1,1082.5,472a14.181,14.181,0,0,1,2.458,3.613c.456.965-1.434.087-2.876-2.029-1.4-.768-2.708-1.633-3.028-1.318s1.887.894,3.465,2.4c1.547,1.983,3.029,3.928,2.5,3.966s-1.112.059-3.307-2.812c-1.55-.711-3.061-1.558-3.184-1.229s1.805.94,3.331,2.265c2.137,2.19,2.634,2.989,3.425,3.76-.426.476-1.856.045-4.478-2.576-1.415-.879-3.525-1.22-3.6-.779.065.467,1.537.726,2.536,1.322a11.825,11.825,0,0,1,2.756,2.21c.3.38-.015,1.038-3.484-.906a3.557,3.557,0,0,0-2.513-.157l-1.8-4.924Z" transform="translate(-1062.896 -469.05)"/><path class="d" d="M1067.384,471.124s8.456-1.741,9.208-2.051,2.615,1.912,2.014,2.327a4.112,4.112,0,0,0-1.351,2.473,1.944,1.944,0,0,1-.381,1.757c-.512.594-1.265,1.357-.937,2.243s1.095,1.778.1,1.849a17.808,17.808,0,0,0-6.184,2.265c-2.127,1.329-7.426-4.449-7.426-4.449Z" transform="translate(-1062.426 -469.043)"/></g><g transform="translate(112.509 123.616)"><path class="l" d="M1151.758,469.712a45.064,45.064,0,0,0-5.517-.151,14,14,0,0,0-3.962,1.786c-.886.583,1.18.83,3.5-.214,1.593.085,3.152.035,3.262.473s-2.071-.234-4.193.216c-2.342.876-4.61,1.753-4.176,2.067s.918.637,4.272-.654c1.69.212,3.415.286,3.351.631s-2.025-.15-4.011.175c-2.953.742-3.789,1.161-4.86,1.4.117.632,1.56,1.018,5.148.164,1.661,0,3.636.819,3.47,1.233-.3.364-1.685-.191-2.846-.21a11.683,11.683,0,0,0-3.491.432c-.449.167-.522.893,3.439,1.065a3.58,3.58,0,0,1,2.224,1.193l4.074-3.253Z" transform="translate(-1139.427 -469.521)"/><path class="d" d="M1159.493,476.556s-6.316-5.945-6.8-6.607-3.218.252-2.919.923a4.141,4.141,0,0,1-.123,2.823,1.94,1.94,0,0,0-.581,1.7c.131.777.379,1.824-.358,2.407s-1.851.94-1.039,1.525a18.106,18.106,0,0,1,4.109,5.194c1.128,2.257,8.63.123,8.63.123Z" transform="translate(-1139.732 -469.528)"/></g><path class="k" d="M1220.921,458.125c-9.676,16.506-22.633,33.459-47.942,32.644-7.6-.5-11.617-3.92-13.6-7.792a14.966,14.966,0,0,1-1.021-2.556c-.034-.114-.067-.226-.1-.34a16.493,16.493,0,0,1-.417-1.988,14.521,14.521,0,0,1,.311-6.186l0-.011c.036-.108.072-.21.111-.3q.022-.055.05-.118c.126-.3.322-.721.579-1.256,1.136-2.348,3.471-6.791,6.475-11.7,5.361-8.767,5.193-22.21,2.872-29.125-.252-.749-1.642-1.5-3.848-2.336-.66-.249-1.392-.509-2.193-.781-11.046-3.708-23.938-27.06-31.932-46.513-1.624-3.96-3.045-7.759-4.214-11.206a97.973,97.973,0,0,1-2.785-9.566c-.739-3.278-.923-5.577-.419-6.437a.673.673,0,0,1,.648-.376,14.524,14.524,0,0,0,4.273-.571c3.5-.905,7.4-3.6,10.191-5.829l0,0c2.268-1.813,3.8-3.32,3.8-3.32h.012c.136.006,1.4.06,3.515.331a74.187,74.187,0,0,1,7.671,1.425c1.118.263,2.3.568,3.531.919.532.15,1.071.311,1.62.478a81.372,81.372,0,0,1,42.058,29.694C1224.07,407.845,1230.71,441.416,1220.921,458.125Z" transform="translate(-1026.274 -341.047)"/><path class="m" d="M1203.25,432.237a1.525,1.525,0,0,0-.171.054C1203.153,432.268,1203.21,432.249,1203.25,432.237Z" transform="translate(-1029.352 -344.479)"/><path class="k" d="M1154.528,345.267s-.081.1-.24.289c-.887,1.066-4.178,5.028-8.986,10.883-3.954,4.824-8.935,10.933-14.442,17.77l0,0q-2.155,2.678-4.415,5.5c-26,32.471-59.769,76.459-56.61,82.294a10.167,10.167,0,0,1,1.12,3.148,8.449,8.449,0,0,1,.112,1.635c-.1,3.377-2.276,6.08-4.346,7.9l-.016.014a.76.76,0,0,1-.089.079,21.212,21.212,0,0,1-1.756,1.361,18.1,18.1,0,0,1-1.888,1.162c-27.556-4.339-40.52-16.07-40.52-47.639s18.026-85,81.049-88.664a10.479,10.479,0,0,1,4.785,1.284c3.227,1.524,6.7,3.94,9.5,4.624a5.893,5.893,0,0,0,1.3.188c6.043.138,10.423-3.2,14.867-4.365l.013-.006.025-.009a10.286,10.286,0,0,1,3.952-.314h.012q1.748.229,3.353.461c2.03.294,3.87.591,5.49.871.842.147,1.625.291,2.344.424,1.116.21,2.072.4,2.86.56.336.068.641.134.912.189C1153.963,345.131,1154.528,345.267,1154.528,345.267Z" transform="translate(-1022.446 -340.991)"/></g><ellipse class="d" cx="11.506" cy="15.699" rx="11.506" ry="15.699" transform="translate(84.786 8.328)"/><g transform="translate(82.177)"><g transform="translate(2.429 4.377)"><path class="n" d="M1117.958,307.8s19.92,11.044,14.008-6.688C1127.876,288.839,1104.373,299.89,1117.958,307.8Z" transform="translate(-1110.544 -295.626)"/><path class="n" d="M1120.718,303.59s-11.146,6.613-10.07,13.247c0,0-2.458-19.807,8.624-20.3s15.372.572,14.388,21.517C1133.66,318.049,1130.44,301.389,1120.718,303.59Z" transform="translate(-1110.416 -295.657)"/></g><path class="n" d="M1119.121,296.457s.56-6.172,6.677-5.3,8.74,4.369,9.614,7.865,1.749,6.118,2.622,6.118c0,0-2.622,2.622-3.5,1.749,0,0,2.269,6.285-.614,11.445,0,0-1.134-7.95-5.5-8.823S1119.121,296.457,1119.121,296.457Z" transform="translate(-1108.32 -291.075)"/><path class="n" d="M1119.252,296.593s-4.37-2.622-8.74,3.5l-2.622,5.244s.874.874,2.622,0c0,0-.8,6.158.04,9.634l2.582-10.508Z" transform="translate(-1107.89 -291.264)"/></g><path class="k" d="M1225.013,448.519l0,.006,0,.006c-8.9,24.15-55.44-68.2-55.44-68.2L1149.733,356.4l-6.689-8.072-1.558-1.878-1.56-1.88-1.552-1.875.006,0,.014-.006.025-.009a52.18,52.18,0,0,1,17.594-2.706,54.216,54.216,0,0,1,6.524.469,50.591,50.591,0,0,1,26.652,12.1C1220.089,379.15,1233.9,424.362,1225.013,448.519Z" transform="translate(-1026.878 -292.944)"/><path class="m" d="M1155.369,339.97a16.261,16.261,0,0,1-3.585,3.111,7.137,7.137,0,0,1-1.046.545c-.05.023-.1.045-.157.068a47.807,47.807,0,0,1-9.738,2.755,26.023,26.023,0,0,1-4.464.427c-.123,0-.243,0-.361-.006-5.305-.161-8.9,2.051-12.173,2.209a1.96,1.96,0,0,1-2.279-2.212,5.889,5.889,0,0,0,1.3.188c6.043.139,10.423-3.2,14.867-4.365l.014-.006.025-.009A52.182,52.182,0,0,1,1155.369,339.97Z" transform="translate(-1026.235 -292.944)"/><path class="m" d="M1166.474,465.526s16.23-17.283,9.039-26.6-26.163-33.291-26.775-42.733c0,0,2.818,17.077,9.723,27.023S1166.474,465.526,1166.474,465.526Z" transform="translate(-1027.274 -295.093)"/><path class="m" d="M1070.542,455.863s-7.74-5.855-8.1-10.843,7.183-18.584,7.183-18.584-4.528,12.9-2.486,17.637A70.047,70.047,0,0,1,1070.542,455.863Z" transform="translate(-1023.975 -296.25)"/></g><g transform="translate(916.549 394.033)"><path class="o" d="M1042.163,681.857l-103.791.631a17.341,17.341,0,0,1-17.446-17.235L919.411,416.2a17.341,17.341,0,0,1,17.235-17.446l103.792-.632a17.341,17.341,0,0,1,17.446,17.236l1.515,249.049A17.341,17.341,0,0,1,1042.163,681.857Z" transform="translate(-919.411 -398.126)"/><path class="p" d="M1039.255,678.185l-97.7.594c-9.015.055-16.368-7.482-16.426-16.833l-1.479-243.188c-.057-9.352,7.206-16.977,16.22-17.032l97.7-.594c9.015-.055,16.368,7.482,16.425,16.833l1.479,243.189C1055.533,670.505,1048.27,678.13,1039.255,678.185Z" transform="translate(-919.573 -398.241)"/><path class="q" d="M1039.4,676.384l-97.763.594a12.188,12.188,0,0,1-12.262-12.124l-1.164-240.239a17.97,17.97,0,0,1,17.861-18.057l86.2-.525a17.972,17.972,0,0,1,18.08,17.883l1.164,240.217A12.189,12.189,0,0,1,1039.4,676.384Z" transform="translate(-919.747 -398.428)"/><g transform="translate(56.103 9.79)"><path class="r" d="M991.977,412.359a2.092,2.092,0,1,1,.787-.5A2.091,2.091,0,0,1,991.977,412.359Zm-1.008-2.844a.93.93,0,1,0,1.24.871h0a.929.929,0,0,0-.935-.923A.9.9,0,0,0,990.969,409.515Z" transform="translate(-978.182 -408.305)"/><path class="r" d="M1002.974,419.672a1.569,1.569,0,0,1-.514.089h0l-23.121.14a1.583,1.583,0,0,1-1.134-2.7,1.564,1.564,0,0,1,1.116-.469l23.121-.141a1.585,1.585,0,0,1,1.594,1.573A1.591,1.591,0,0,1,1002.974,419.672Zm-.523-1.068a.426.426,0,0,0,.3-.731.423.423,0,0,0-.3-.122l-23.121.14a.418.418,0,0,0-.3.126.428.428,0,0,0,.307.728l23.121-.14Z" transform="translate(-977.744 -408.622)"/></g><path class="q" d="M1006.1,680.294a4.728,4.728,0,0,1-1.553.27l-24.428.149a4.736,4.736,0,0,1-4.758-4.7l0-.427a4.73,4.73,0,0,1,4.7-4.758l24.429-.149a4.734,4.734,0,0,1,4.756,4.7l0,.426a4.741,4.741,0,0,1-3.148,4.489Zm-29.581-4.288a3.574,3.574,0,0,0,3.593,3.549l24.428-.148a3.571,3.571,0,0,0,3.55-3.594l0-.426a3.576,3.576,0,0,0-3.593-3.551l-24.428.149a3.57,3.57,0,0,0-3.55,3.594Z" transform="translate(-921.55 -408.546)"/><path class="s" d="M971.057,531.091l-.65,36.319a5.978,5.978,0,0,0,5.876,6.094l1.7.031-.245,13.622a5.788,5.788,0,0,0,5.705,5.713,5.72,5.72,0,0,0,5.832-5.508l.246-13.623,7.692.139-.246,13.622a5.786,5.786,0,0,0,5.709,5.709,5.71,5.71,0,0,0,5.829-5.5l.245-13.619,1.706.027a5.989,5.989,0,0,0,6.095-5.878l.655-36.312Zm61.434,6.769a5.771,5.771,0,0,0-11.538-.2l-.424,23.484a5.778,5.778,0,0,0,11.538.209Zm-65.382-1.181a5.771,5.771,0,0,0-11.538-.2l-.424,23.483a5.778,5.778,0,0,0,11.538.209Zm38.78-27.431,3.742-7.083a.779.779,0,0,0-.606-1.167.7.7,0,0,0-.635.394l-3.784,7.158a23.737,23.737,0,0,0-20.111-.364l-3.521-7.29a.7.7,0,0,0-.621-.416.78.78,0,0,0-.65,1.144l3.486,7.214c-7.167,3.848-11.906,9.726-12.062,18.4l23.077.418,23.076.414C1017.435,519.4,1012.911,513.352,1005.888,509.248ZM984.732,519.8a1.923,1.923,0,1,1,1.951-1.887A1.927,1.927,0,0,1,984.732,519.8Zm19.216.347a1.923,1.923,0,1,1,1.966-1.887A1.919,1.919,0,0,1,1003.948,520.143Z" transform="translate(-920.777 -402.039)"/><g class="t" transform="translate(7.836 7.432)"><g class="u"><path class="q" d="M1038.219,676.74l-95.655.582A13.587,13.587,0,0,1,929,663.715l-1.438-236.326a20.761,20.761,0,0,1,20.475-21.041l81.42-.5a20.761,20.761,0,0,1,20.73,20.791l1.438,236.325A13.589,13.589,0,0,1,1038.219,676.74Z" transform="translate(-927.559 -405.853)"/></g></g><path class="v" d="M928.233,455.729l122.443,49.481.217,35.7-123.07-60.443Z" transform="translate(-919.732 -400.328)"/><path class="v" d="M928.423,502.626l122.443,49.481.217,35.7-122.8-76.566Z" transform="translate(-919.75 -402.121)"/></g><path class="w" d="M966.277,350.972a4.253,4.253,0,0,1-.711,4.466,4.3,4.3,0,0,1-7.206-1.146,4.252,4.252,0,0,1,.709-4.466,4.3,4.3,0,0,1,7.208,1.147Zm2.59,7.373a8.631,8.631,0,0,0,1.509-2.462l3.993.636.613-3.842-4-.636a8.545,8.545,0,0,0-.669-2.808l3.273-2.375-2.284-3.149-3.273,2.374a8.63,8.63,0,0,0-2.462-1.509l.635-3.994-3.842-.612-.635,3.994a8.623,8.623,0,0,0-2.809.67l-2.373-3.271-3.15,2.283,2.374,3.273a8.58,8.58,0,0,0-1.508,2.462l-4-.636-.611,3.842,3.993.636a8.649,8.649,0,0,0,.669,2.809l-3.271,2.373,2.285,3.151,3.272-2.375a8.677,8.677,0,0,0,2.462,1.51l-.636,3.993,3.842.611.636-3.993a8.66,8.66,0,0,0,2.809-.67l2.374,3.272,3.149-2.285Z" transform="translate(-4.018 -1.869)"/><path class="w" d="M944.773,354.382a2.762,2.762,0,0,1,.151,2.932,2.788,2.788,0,1,1-.151-2.932Zm2.641,4.333a5.608,5.608,0,0,0,.625-1.768l2.623-.135-.13-2.524-2.624.137a5.58,5.58,0,0,0-.805-1.695l1.758-1.95-1.876-1.692-1.757,1.95a5.585,5.585,0,0,0-1.768-.625l-.137-2.624-2.523.13.136,2.624a5.6,5.6,0,0,0-1.694.8l-1.95-1.758-1.692,1.876,1.949,1.758a5.6,5.6,0,0,0-.625,1.768l-2.624.136.131,2.523,2.623-.136a5.628,5.628,0,0,0,.8,1.695l-1.756,1.948,1.876,1.693,1.758-1.95a5.633,5.633,0,0,0,1.767.626l.136,2.622,2.523-.13-.135-2.623a5.645,5.645,0,0,0,1.694-.8l1.949,1.757,1.691-1.876Z" transform="translate(-3.431 -2.168)"/><path class="w" d="M1228.008,631.263a4.251,4.251,0,0,1-4.355,1.218,4.293,4.293,0,1,1,4.355-1.218Zm-5.62,5.431a8.659,8.659,0,0,0,2.867.343l1.089,3.894,3.747-1.046-1.09-3.9a8.605,8.605,0,0,0,2.274-1.781l3.523,1.984,1.909-3.39-3.523-1.984a8.628,8.628,0,0,0,.343-2.867l3.9-1.09-1.047-3.746-3.9,1.089a8.631,8.631,0,0,0-1.782-2.274l1.983-3.521-3.39-1.909-1.983,3.522a8.6,8.6,0,0,0-2.867-.342l-1.089-3.9-3.747,1.047,1.089,3.9a8.659,8.659,0,0,0-2.274,1.78l-3.521-1.982-1.91,3.39,3.523,1.984a8.656,8.656,0,0,0-.344,2.866l-3.9,1.089,1.048,3.747,3.894-1.088a8.676,8.676,0,0,0,1.782,2.274l-1.983,3.521,3.39,1.908Z" transform="translate(-14.058 -12.414)"/><path class="w" d="M1216.2,613.082a2.763,2.763,0,0,1-2.6,1.362,2.791,2.791,0,0,1-2.2-4.2,2.762,2.762,0,0,1,2.6-1.362,2.791,2.791,0,0,1,2.2,4.2Zm-2.836,4.209a5.583,5.583,0,0,0,1.867-.169l1.218,2.327,2.239-1.17-1.219-2.328a5.562,5.562,0,0,0,1.2-1.438l2.505.784.754-2.411-2.5-.784a5.643,5.643,0,0,0-.169-1.868l2.327-1.219-1.171-2.238L1218.087,608a5.591,5.591,0,0,0-1.439-1.2l.785-2.5-2.411-.755-.784,2.505a5.569,5.569,0,0,0-1.868.169l-1.218-2.328-2.239,1.172,1.218,2.327a5.617,5.617,0,0,0-1.2,1.438l-2.5-.783-.755,2.411,2.505.784a5.619,5.619,0,0,0,.168,1.868l-2.327,1.217,1.171,2.239,2.328-1.218a5.614,5.614,0,0,0,1.439,1.2l-.785,2.5,2.411.754Z" transform="translate(-13.806 -11.945)"/><path class="w" d="M1186.963,515.774a2.76,2.76,0,0,1-2.6,1.362,2.788,2.788,0,1,1,2.6-1.362Zm-2.836,4.209a5.6,5.6,0,0,0,1.868-.169l1.218,2.326,2.238-1.17-1.218-2.328a5.582,5.582,0,0,0,1.2-1.438l2.505.784.755-2.411-2.505-.784a5.585,5.585,0,0,0-.169-1.868l2.327-1.218-1.17-2.239-2.328,1.219a5.583,5.583,0,0,0-1.439-1.2l.785-2.5-2.412-.755-.784,2.505a5.565,5.565,0,0,0-1.868.169l-1.217-2.328-2.239,1.171,1.218,2.326a5.634,5.634,0,0,0-1.2,1.438l-2.5-.783-.755,2.411,2.506.784a5.638,5.638,0,0,0,.168,1.868L1176.779,517l1.172,2.239,2.327-1.218a5.638,5.638,0,0,0,1.439,1.2l-.784,2.5,2.411.754Z" transform="translate(-12.688 -8.225)"/><path class="w" d="M1254.363,384.026a4.253,4.253,0,0,1-4.355,1.219,4.3,4.3,0,0,1-1.966-7.029A4.253,4.253,0,0,1,1252.4,377a4.3,4.3,0,0,1,1.966,7.029Zm-5.62,5.431a8.632,8.632,0,0,0,2.867.343l1.089,3.9,3.746-1.047-1.089-3.9a8.557,8.557,0,0,0,2.273-1.78l3.523,1.983,1.909-3.39-3.522-1.983a8.637,8.637,0,0,0,.343-2.867l3.894-1.09-1.046-3.747-3.9,1.09a8.629,8.629,0,0,0-1.781-2.274l1.983-3.521-3.39-1.91-1.983,3.523a8.591,8.591,0,0,0-2.868-.343l-1.088-3.9-3.747,1.048,1.088,3.894a8.667,8.667,0,0,0-2.273,1.781l-3.522-1.982-1.909,3.39,3.522,1.983a8.68,8.68,0,0,0-.344,2.867l-3.894,1.089,1.047,3.747,3.9-1.089a8.657,8.657,0,0,0,1.782,2.274l-1.984,3.522,3.391,1.908Z" transform="translate(-15.066 -2.962)"/><path class="w" d="M1242.554,365.846a2.76,2.76,0,0,1-2.6,1.361,2.791,2.791,0,0,1-2.2-4.2,2.761,2.761,0,0,1,2.6-1.362,2.791,2.791,0,0,1,2.2,4.2Zm-2.836,4.208a5.615,5.615,0,0,0,1.868-.168l1.218,2.327,2.238-1.17-1.218-2.328a5.565,5.565,0,0,0,1.2-1.438l2.505.785.755-2.411-2.505-.785a5.586,5.586,0,0,0-.169-1.867l2.328-1.219-1.171-2.239-2.327,1.219a5.611,5.611,0,0,0-1.439-1.2l.784-2.5-2.411-.755-.784,2.505a5.617,5.617,0,0,0-1.868.169l-1.218-2.327-2.238,1.171,1.217,2.327a5.609,5.609,0,0,0-1.2,1.438l-2.5-.784-.755,2.411,2.505.785a5.639,5.639,0,0,0,.168,1.867l-2.326,1.218,1.171,2.238,2.327-1.217a5.639,5.639,0,0,0,1.439,1.2l-.784,2.5,2.411.755Z" transform="translate(-14.813 -2.493)"/><path class="w" d="M860.478,493.671a2.761,2.761,0,0,1-2.6,1.362,2.788,2.788,0,1,1,2.6-1.362Zm-2.836,4.209a5.587,5.587,0,0,0,1.867-.169l1.218,2.327,2.239-1.171-1.219-2.327a5.588,5.588,0,0,0,1.2-1.438l2.505.784.754-2.411-2.505-.784a5.614,5.614,0,0,0-.168-1.868l2.326-1.218-1.17-2.239-2.328,1.219a5.587,5.587,0,0,0-1.439-1.2l.785-2.5-2.411-.755-.784,2.505a5.567,5.567,0,0,0-1.868.169l-1.218-2.327-2.239,1.171,1.218,2.326a5.636,5.636,0,0,0-1.2,1.438l-2.5-.783-.755,2.411,2.505.784a5.643,5.643,0,0,0,.167,1.868l-2.326,1.217,1.171,2.239,2.328-1.218a5.608,5.608,0,0,0,1.439,1.2l-.785,2.5,2.411.754Z" transform="translate(-0.206 -7.38)"/><path class="w" d="M905.119,624.954a4.251,4.251,0,0,1-3.3,3.1,4.3,4.3,0,0,1-5-5.319,4.255,4.255,0,0,1,3.3-3.1,4.3,4.3,0,0,1,5,5.32Zm-2.466,7.415a8.624,8.624,0,0,0,2.7-1.023l2.768,2.948,2.836-2.662-2.77-2.949a8.579,8.579,0,0,0,1.191-2.631l4.04.127.122-3.889-4.04-.126a8.622,8.622,0,0,0-1.023-2.7l2.948-2.77-2.663-2.835-2.948,2.769a8.627,8.627,0,0,0-2.632-1.19l.127-4.039-3.888-.123-.127,4.041a8.607,8.607,0,0,0-2.7,1.023l-2.769-2.949-2.836,2.664L893.757,619a8.639,8.639,0,0,0-1.191,2.63l-4.039-.126-.122,3.889,4.04.127a8.653,8.653,0,0,0,1.022,2.7l-2.948,2.769,2.664,2.835,2.948-2.768a8.649,8.649,0,0,0,2.632,1.19l-.127,4.04,3.888.121Z" transform="translate(-1.676 -12.242)"/><path class="w" d="M886.169,614.406a2.76,2.76,0,0,1-1.675,2.412,2.791,2.791,0,0,1-3.891-2.7,2.762,2.762,0,0,1,1.674-2.412,2.791,2.791,0,0,1,3.892,2.7Zm-.565,5.043a5.6,5.6,0,0,0,1.576-1.015l2.157,1.5,1.442-2.074-2.157-1.5a5.572,5.572,0,0,0,.4-1.832l2.584-.465-.447-2.487-2.584.466a5.612,5.612,0,0,0-1.015-1.577l1.5-2.157-2.075-1.442-1.5,2.157a5.6,5.6,0,0,0-1.832-.4l-.465-2.583-2.487.447.466,2.584a5.588,5.588,0,0,0-1.577,1.015l-2.156-1.5-1.442,2.075,2.156,1.5a5.627,5.627,0,0,0-.4,1.831l-2.582.466.447,2.487,2.584-.466a5.62,5.62,0,0,0,1.014,1.577l-1.5,2.156,2.075,1.442,1.5-2.156a5.627,5.627,0,0,0,1.833.4l.464,2.583,2.486-.448Z" transform="translate(-1.17 -12.041)"/></g></svg>