<?xml version="1.0" encoding="utf-8"?>
<!-- Generator: Adobe Illustrator 23.0.1, SVG Export Plug-In . SVG Version: 6.00 Build 0)  -->
<svg version="1.1" id="Layer_1" xmlns="http://www.w3.org/2000/svg" xmlns:xlink="http://www.w3.org/1999/xlink" x="0px" y="0px"
	 viewBox="0 0 1366 768" style="enable-background:new 0 0 1366 768;" xml:space="preserve">
<style type="text/css">
	.st0{fill:#70B8B8;}
	.st1{fill:#9CD6D6;}
	.st2{fill:#FFFFFF;}
	.st3{fill:#D1B77E;}
	.st4{fill:none;stroke:#4E91F2;stroke-width:0.843;stroke-miterlimit:10;}
	.st5{fill:#4CD8BD;}
	.st6{fill:#5E9BF2;}
	.st7{fill:none;stroke:#FFFFFF;stroke-width:0.843;stroke-miterlimit:10;}
	.st8{fill:#77AAB6;}
	.st9{fill:#E8D9A9;}
	.st10{fill:none;stroke:#4E91F2;stroke-width:1.03;stroke-miterlimit:10;}
	.st11{fill:#C5907B;}
	.st12{opacity:0.74;fill:none;stroke:#0F0504;stroke-width:1.03;stroke-miterlimit:10;enable-background:new    ;}
	.st13{fill:none;stroke:#4E91F2;stroke-width:1.035;stroke-miterlimit:10;}
	.st14{fill:#BD8C68;}
	.st15{fill:#F5E5B2;}
	.st16{fill:#41457A;}
	.st17{fill:#010015;}
	.st18{fill:#F6DA9B;}
	.st19{fill:#164B55;}
	.st20{fill:#F8D24B;}
	.st21{fill:none;stroke:#F8D24B;stroke-linecap:round;stroke-linejoin:round;}
	.st22{fill:#D63E23;}
	.st23{opacity:0.3;}
	.st24{opacity:0.3;enable-background:new    ;}
	.st25{fill-rule:evenodd;clip-rule:evenodd;fill:#F6DA9B;}
	.st26{fill:#FE674C;}
	.st27{fill:#E2E2E2;}
	.st28{fill:none;}
	.st29{clip-path:url(#SVGID_2_);}
	.st30{opacity:0.13;fill:#020202;enable-background:new    ;}
	.st31{fill:#AFAFAF;}
	.st32{opacity:0.2;fill:#FFFFFF;enable-background:new    ;}
	.st33{fill:#33322E;}
	.st34{fill:#EBDDDB;}
	.st35{fill:#CA7740;}
	.st36{opacity:0.31;fill:#E5D7D1;enable-background:new    ;}
	.st37{fill:#D6D6D6;}
	.st38{opacity:0.13;enable-background:new    ;}
	.st39{fill:#444343;}
	.st40{opacity:0.13;}
	.st41{fill:#D6BF87;}
	.st42{fill:#F7CF43;}
	.st43{fill:#438591;}
	.st44{opacity:0.15;enable-background:new    ;}
	.st45{fill:#274E55;}
</style>
<g transform="translate(1607.442)">
	<path class="st0" d="M-241.4,9.5v751.2l-242.2-67l-33-6.2l1.6-552.8l30.1-25.3L-241.4,9.5z"/>
	<path class="st0" d="M-1291.1,124.3l-16.1,551.1l-300,73.7V6.2l298.8,92.7L-1291.1,124.3z"/>
	<path class="st1" d="M-909.5,88.3h-424.6v611.5h849.2V88.3H-909.5z"/>
	<path class="st2" d="M-1607.4,60.2c121.7,30.1,335.7,73.2,615,79.6c353,8.1,622.4-46.7,751-78V0h-1366V60.2z"/>
	<path class="st2" d="M-1607.4,718.5c121.7-30.1,335.7-73.2,615-79.6c353-8.1,622.4,46.7,751,78v48.3l-1365.8,2.8L-1607.4,718.5z"/>
	<path class="st2" d="M-282.3,514c0,0-0.3-22.5-14.2-32.7c-23.8-17.4-14.9-16.6-19.4-33.8c-4.6-17.6-5.5-27.2-30.9-31.9l-2.5,40.3
		c0,0,23.4,35.9,30.4,44.5C-276.9,559.6-282.3,514-282.3,514z"/>
	<path class="st3" d="M-281.7,526.7c0,0,1.5-19.3-30.6-33.5c-29.7-13.1-11.7-38.1-30.3-48.9l0.3,98.2l60.6,13.6V526.7z"/>
	<path class="st4" d="M-281.7,396.3l-67.8,1v146.6l67.8,15.7V396.3z"/>
	<path class="st2" d="M-341.1,399.8l-8.3-2.5l67.8-1v3.4L-341.1,399.8z"/>
	<path class="st5" d="M-349.5,397.3l8.3,2.5l-1.5,142.9l-6.8,1.2V397.3z"/>
	<path class="st6" d="M-342.7,542.6l61,12.9v4l-67.8-15.7L-342.7,542.6z"/>
	<path class="st7" d="M-342.4,498.9c5.6,6.5,17,16.6,39.1,28.1c12.7,6.6,18.9,13.8,21.6,20.2"/>
	<path class="st4" d="M-281.7,396.3l-67.8,1v146.6l67.8,15.7V396.3z"/>
	<path class="st2" d="M-341.1,399.8l-8.3-2.5l67.8-1v3.4L-341.1,399.8z"/>
	<path class="st8" d="M-349.5,397.3l8.3,2.5l-1.5,142.9l-6.8,1.2V397.3z"/>
	<path class="st8" d="M-342.7,542.6l61,12.9v4l-67.8-15.7L-342.7,542.6z"/>
	<path class="st9" d="M-381,317.7c0,0,1.1-16.1-23.1-21.7c-21-4.8-12-29.4-24.9-33.8l0.9,96.5l47.4,0.7L-381,317.7z"/>
	<path class="st2" d="M-425.6,232.4l-9.2-1.1l52.9-17.9v4.3L-425.6,232.4z"/>
	<path class="st8" d="M-434.9,231.3l9.2,1.1l0.3,124.6l-9.4,3.3L-434.9,231.3z"/>
	<path class="st8" d="M-425.3,357.1l44.5,2.3v5.3l-53.9-4.3L-425.3,357.1z"/>
	<path class="st10" d="M-381.9,213.4l-52.9,17.9l0.2,129.1l53.9,4.3L-381.9,213.4z"/>
	<path class="st11" d="M-415.5,331.5c0.6,1,1.7,1.7,2.8,1.8l1.7,0.2c2.1,0.3,4.3,0.3,6.4,0.2c3.2-0.7,6.5-1.2,9.8-1.5
		c2-0.2,4-0.3,6-0.3c0.8,0,1.5,0,2.3,0l5.5,0.3l0.2-0.2v-14.8l-0.9-27.5c0-0.1-0.1-0.1-0.1-0.2c-1.2-2.3-3.8-3.6-6.4-3.1
		c0,0-1.2-4.6-2.2-6.9c-0.2-0.5-0.4-0.9-0.8-1.3c-0.7-0.5-2.6-2.5-5.5-1.2c-0.8,0.4-1.5,0.9-2.1,1.5c-1.6,1.5-2.3,4.7-2.7,8.1
		c-0.3,3.8-0.3,7.6,0,11.3l-0.1,5.2v0.5v0.9c0,0-4.9-1.1-8,5.2c-0.5,1.1-0.9,2.2-1.2,3.3c-0.4,1.6-0.7,3.3-0.8,5
		c-0.1,0.7-0.1,1.3-0.1,1.9l0,0c-0.1,1.6,0,3.2,0.1,4.8c-0.8,0.2-1.5,0.5-2.1,1c-0.5,0.4-0.9,0.8-1.3,1.3c-0.2,0.3-0.4,0.6-0.6,0.9
		v0.1c-0.1,0.2-0.2,0.3-0.2,0.5C-416.2,329.4-416.1,330.6-415.5,331.5z"/>
	<path class="st2" d="M-388.9,338.5c-0.2,0.7-0.8,1.2-1.5,1.3c-2.6,0.4-8.9,1.3-11.9,0.9c-3.7-0.5-11.1,0.1-12.4-0.3
		c-0.8-0.3-1.6-1.7-0.3-2c1-0.2,2,0.5,2.9,0.8c0.5,0.2,0.1-2.1,1.5-3.4c1.5-1.3,5.3-2.5,7.4-0.8c0.4,0.4,0.8,0.8,1.1,1.3
		c0.2,0.4,0.3,0.8,0.5,1.2c0.2,0.6,0.7,1.1,1.4,1.2c0.5,0,0.9,0,1.4-0.1c0.8,0,1.6-0.2,2.4-0.6c0.3-0.1,0.5-0.4,0.6-0.7
		c0.1-0.2,0.1-0.4,0-0.7c-0.2-0.5-0.3-1-0.5-1.4c-0.4-1.1-0.5-2.2-0.3-3.3c0.2-1.3,0.8-2.7,2.4-2.9c0.6-0.1,1.3,0.1,1.9,0.3
		c1.8,0.8,3.1,2.2,3.7,4.1c0.2,1.4,0.2,2.9-0.2,4.3C-388.8,337.9-388.8,338.2-388.9,338.5z"/>
	<line class="st12" x1="-390.4" y1="324" x2="-390.6" y2="297.1"/>
	<line class="st10" x1="-380.7" y1="364.7" x2="-381.9" y2="213.4"/>
	<path class="st9" d="M-1544.9,437.9c0,0,0.3-47.7,15.2-61.2c24.6-22.3,15.5-22.8,20.1-48.2c4.6-25.6,5.5-39.9,30.5-40.5l2.6,59.9
		l-36.5,57.3L-1544.9,437.9z"/>
	<path class="st3" d="M-1545.5,445.7c0,0-1.7-30.7,32.3-48.2c29.7-15.2,12.7-59.1,34.3-70.1l0.9,149.5l-67.6,15.4L-1545.5,445.7z"/>
	<path class="st13" d="M-1545.5,242.8l75.7,19.7v216.9l-75.7,23.1V242.8z"/>
	<path class="st2" d="M-1483,267.3l13.2-4.9l-75.7-19.7v8.5L-1483,267.3z"/>
	<path class="st8" d="M-1469.9,262.4l-13.2,4.9v208.2l13.2,3.8V262.4z"/>
	<path class="st8" d="M-1483,475.4l-62.5,16.8v10.1l75.7-23.1L-1483,475.4z"/>
	<path class="st14" d="M-1527.9,438.2l0.8-40.3c0,0-13.3-0.9-14.6-13.3c-1.2-12.4-1.2-36.4,2.9-43.9s24.9-15.9,28.7-8.1
		c3.9,7.9,7.8,33.2,3.5,45.6c-4.3,12.3-15.2,19.2-15.2,19.2l-2,40.5L-1527.9,438.2z"/>
	<path class="st2" d="M-1495.2,388.3l0.3-14.1c0,0-4.8-0.2-5.3-4.6s-0.4-12.9,1.1-15.5s8.9-5.5,10.3-2.7s2.8,11.5,1.2,15.8
		c-1.1,2.7-3,5.1-5.4,6.8l-0.7,14.2L-1495.2,388.3z"/>
	<path class="st15" d="M-1243.9,571.4l-73.6,3.6c0,0-18.4-24.6-19.3-26.9s76.3-5.4,83.1-4.3c6.8,1.1,18.2,17.7,20.8,21.3l2,5.2
		L-1243.9,571.4z"/>
	<path class="st9" d="M-1230.8,570.2l-1,138.8l-85.7,4.5V575L-1230.8,570.2z"/>
	<path class="st3" d="M-1336.7,547.6v139.8l19.2,26.3V574.5L-1336.7,547.6z"/>
	<path class="st3" d="M-1275.4,501.5c-2.4,3.8-4.6,7.8-6.4,12c-2.2,5.4-3.2,9.1-6.2,10.7c-2.3,1.2-4.4,2.6-6.5,4.1l-4.5,26.3
		c0,0,8.8,3.8,13.1,3.3c4.2-0.5,12.7,1.7,13.1-1.8c0.4-3.5-0.6-37.5-0.6-37.5L-1275.4,501.5z"/>
	<path class="st3" d="M-1324.6,466.3c-1.2,0-18-7.4-20.8-8.1s-5.4-4.7-3.8-5.8s4.1-2.9,1.4-3.1c-2.6-0.2-6.2,0.4-6.8,2.9
		c-0.4,1.2-0.4,2.5,0,3.8c0,0-4.7-1.3-6.5-1.2c-1.4,0.1-2.8,0.4-4.2,0.8c0,0,1.3,1.6,3.2,4.1c1.9,2.5,6.4,3.7,9.3,4.5
		c2.9,0.8,21.5,7.5,22.9,7.8c1.4,0.3,4.4,1.1,4.4,1.1L-1324.6,466.3z"/>
	<path class="st14" d="M-1315.6,471.3c0,0,6.9,0.3,6.2,3.2c-0.7,2.9-3.8,3.9-6.3,2.9c-2.5-1-8.8-3.4-9.2-3.3
		c-0.4,0.1-1.3,2.8-2.1,0.3s-1.5-4.3-0.6-6.2c0.9-1.9,1.7-4.1,3.3-4.3c1.7-0.3,4.9-1.3,4.6,0.9c-0.3,2.1-1.9,2.6-1.6,3.7
		C-1321,469.6-1315.6,471.3-1315.6,471.3z"/>
	<path class="st14" d="M-1344.5,462.6c2.1,0.8,13.3,5.4,13.3,5.4s-10.9-3.8-11.9-4.2C-1343.6,463.5-1344.1,463.1-1344.5,462.6z"/>
	<path class="st2" d="M-1211.6,375c-2.8,0.2-15.6,9.6-15.6,9.6c-1.9,3.7-4.1,7.3-6.5,10.7c-4.6,6.8-6.7,8-6.7,8s-8.1,17.3-10.5,31.6
		c-2.4,14.3-18.6,114.8-18.6,114.8s4.7,3.6,5.9,5.2s3.8,2,4.3,2.9s0.5,4.2-3.8,3.9c-4.3-0.3-6.8-1.2-9.5-1.1
		c-2.7,0.1-4.1,0.6-3.6-2.6c0.5-3.2,1.4-3.7,0.4-4.9c-1-1.2,1.4-1,1.2-3.7c-0.2-2.7-4.9-32.5-4.1-40.8c0.8-8.4,1.4-6.1,0.5-13.2
		c-0.8-6.9-4.2-21.6-6.3-14.7c-2.2,7.3-4.5,19.3-6.5,27.4c-1.4,5.7,0.4,13.9-0.4,19.1s-4.1,20.9-4,22.4c0.1,1.5-1,8.7-3.3,11.1
		c-2.3,2.4-4.9,1.6-6.6,1.1s-2.4-3.8-2.4-3.8s4.7-8.5,5.1-12.8c0.5-4.3,1.8-23.1,0.2-30.7c-1.6-7.6,2.6-42.5,2.6-42.5
		s3.6-21.4,3.4-24.1c-0.2-2.7,0.7-17.7,0.7-17.7s-9.4,24.7-12.7,31.8c-3.3,7-5.3,13-5.4,13.9s1,3.3-0.8,3.1s-3.1-0.7-4.5-0.6
		c-1.1,0.1-2.1-0.2-3-0.8c-0.9-0.5-1.6-1.1-2.1-2c-0.3-0.4,0.8-4.1,0.8-4.1s-1-1.7-0.8-2c0.3-0.3,1.6-2.3,2.3-1.9
		c0.7,0.4,2.4,0.9,2.9-0.4c0.5-1.3,8.9-18.7,9.6-21.1c0.7-2.5,2.4-18,2.6-22.7c-1.6-6.4-0.6-13.5,3.5-16.9
		c4.1-3.4,10.4-4.4,10.4-7.9c0-2.3-0.2-5.1-0.3-6.7v-0.1l0,0c0-0.1,0-0.2,0-0.3c-0.1-0.5-0.1-0.9-0.1-0.9l4.5,0.8l2.1,0.4l6.2,1.1
		c0.1,0.3,0.3,0.6,0.4,0.9c0.1,0.2,0.2,0.4,0.3,0.6c0,0.1,0.1,0.1,0.1,0.2c0.7,1.4,2,2.4,3.5,2.9c3.1,0.8,8-2,10.6-2.2
		s3,1.6,4.7,0.3s16.7-6.1,22-10.9c4.1-3.8,8.7-7,13.7-9.5c3.7-1.9,4-4.1,3.5-5.1c-0.5-1,3.7-5.5,5.7-5.3c2.1,0.3,7.3,2.1,7.8,3.9
		C-1207.7,370.5-1208.8,374.8-1211.6,375z"/>
	<path class="st16" d="M-1279.7,394.5c-2.6-0.6-6.4-1.5-7.6-1.4c-1.8-0.1-3.6-0.5-5.3-1.1c-0.1,0-0.3-0.1-0.4-0.2
		c-0.2-0.1-0.4-0.3-0.6-0.5l0.6,0.2l0.4,0.2h4.4l1.6,0.1l5.8,0.1c0,0,0.2,0.5,0.4,1c0.1,0.3,0.3,0.6,0.4,0.9
		C-1279.9,394-1279.8,394.2-1279.7,394.5C-1279.8,394.4-1279.8,394.4-1279.7,394.5z"/>
	<path class="st2" d="M-1284.3,370.6c0.2,0,4-0.4,5.9,2.2s3.5,9.7,3.1,10.7c-0.4,1-1.5,1.4-1.4,2.3c0.1,0.9,0.7,4.8,0,5.8
		c-0.8,1-12.8,1.2-17.6-0.3c-1.1-0.7-2.2-1.5-3.2-2.3c-0.7-2.1,2.4-5.1,0.2-7S-1293.8,370.9-1284.3,370.6z"/>
	<path class="st17" d="M-1282,378.6c-0.4,0.4-1.1,1.6,0.3,1.5c1-0.1,1.9-0.3,2.8-0.7c0.1-0.5-0.2-0.9-0.7-1c-0.1,0-0.3,0-0.4,0
		C-1280.6,378.6-1281.3,378.6-1282,378.6z"/>
	<path class="st17" d="M-1278.9,386.1c0.6,0.4,0.9,0.8,0.5,1.1c-0.4,0.3-2,1.4-2.3,1.2s-0.5-0.6-0.1-1.3S-1278.9,386.1-1278.9,386.1
		z"/>
	<path class="st16" d="M-1299,387.7c1.7,3,3.3,2.6,4.6,2c1.8-0.7,3.7-5.2,3.5-6.3c-0.3-1.9-0.7-6.7-0.7-6.7c-0.4-1.7,0-4.2,1.6-3.4
		c0.3,0.1,0.8,0.4,1.5,0.7c2.2,1,5.9,2.3,8.7,1.9c0.6-0.1,1.1-0.3,1.6-0.6c0.5-0.3,0.9-0.8,1.2-1.4c2.2-4.6-0.5-8-1.7-8.3
		c-3.1-0.5-6.3,0-9,1.6c-3.5,2.2-4.2-0.1-7.6,1c-3.5,1.1-7.1,5-4.8,8.6c0.7,1.8,1.1,3.7,1,5.6
		C-1299.2,383.2-1300.7,384.8-1299,387.7z"/>
	<path class="st3" d="M-1290.5,379.1c0.3-0.1,1.7-6.1-2.3-9.4s-12-6-13.7-5.2c-1.7,0.8-2.7,4.1-1,4.9c1.7,0.8,1.7,1.7,0.8,2.7
		s-1.4,2.2,0.3,2.9c1.7,0.7,0.5,0.7,0.9,2c0.4,1.3,2.4,2.4,3.9,2.8s6.1-0.3,6.5,2.7C-1294.7,385.4-1290.5,379.1-1290.5,379.1z"/>
	<path class="st3" d="M-1230.7,460.1c0,0-4.5,5.5-10.8,6.8c-6.3,1.3-2.7,16.5-3.8,23s-5.8,21-7.8,26.6c-2,5.6-3.2,18.1-8.1,22.1
		c-3.1,2.6-5.8,5.7-8,9.1l0,0c0,0,3.5-27.3,3.8-32.4s-0.3-25.7,0.7-40.3c1-14.6,3.7-20.2,2.3-25.9s-3.6-36.3,4.4-39l0.6-16.4v-1.1
		c0.8-0.5,1.6-1.1,2.3-1.1c0.4,0,0.9-0.1,1.3-0.3c0.2-0.1,0.4-0.2,0.6-0.3c0.3-0.2,0.5-0.4,0.8-0.6c0.8-0.7,1.1-0.7,3.4-1.9
		s2.4-1.6,4.3-2c1.2-0.1,2.3-0.2,3.5-0.1c-1.2,1.5-1.7,3.4-1.6,5.3c0.3,3-0.9,4.3,2.5,10.5c0.1,0.2,0.2,0.4,0.3,0.7
		C-1236.2,410.7-1227.3,446.7-1230.7,460.1z"/>
	<path class="st14" d="M-1249.4,436.1c-0.6,0.2-1.2,0.2-1.8,0.1c-3-0.3-8-2.2-8.5-3.6c-0.5-1.8,3.1-32.6,3.1-32.6l2.4-7.5l0.4-1.3
		c0.2-0.1,0.4-0.2,0.6-0.3c-0.1,0.4-0.2,0.8-0.2,1.3c-0.9,4.9-2.1,11.8-2.4,13.6c-0.3,2.2-2.7,25.4,0.2,26.9
		c1.5,0.7,3.1,1.4,4.7,1.9C-1249.3,435.2-1248.4,435.7-1249.4,436.1z"/>
	<path class="st14" d="M-1247.3,396.8c-0.7-2.5,2.2,7.4,3,10.1c0.8,2.7,1.7,7.9,3.2,11.5s2.8,7.5,2.5,9.8s-0.4,3.7-0.4,3.7
		s0-6.6-2-9.8c-2-3.2-5.2-6.5-6-10.4C-1247.8,407.8-1246.2,401-1247.3,396.8z"/>
	<path class="st14" d="M-1256,456c0,0,1.8,2.3,6,2.1c4.2-0.2,8.1-0.5,10.8-0.6c2.7-0.1,6.9-0.1,6.9,1.4c0,1.5-0.1,2.4-2.2,3.4
		c-2.1,1-5.3,3.3-6.9,3.2c-1.5-0.1-1.1-2.9-1.2-4.4c-0.1-1.5,0.7-2.5-0.3-2.5C-1243.8,458.7-1253.7,460.2-1256,456z"/>
	<path class="st14" d="M-1257.5,497c-0.4,2.4,0.1,3.7-0.7,5.9c-0.8,2.3-2.5,4.9-1.9,5.3s3.8-2.6,3.7-4.4c-0.1-1.7-0.9-2.8-0.2-5.3
		c0.7-2.5,3.4-4.2,2.7-9.3c-0.7-5.2-1.5-1.1-1.4,1.4C-1255.2,493.1-1257.5,497-1257.5,497z"/>
	<path class="st16" d="M-1319.5,470.4c-0.8,0.9-1.8,2.1-1.7,2.7C-1321.2,473.7-1319.5,470.4-1319.5,470.4z"/>
	<path class="st16" d="M-1317.7,471.2c-0.6,0.6-1,1.5-1,2.3c0,0.3,0.1,0.9,0.1,0.9l0.1,1.5c0.1-1.1,0.3-2.2,0.5-3.3
		C-1317.9,472.1-1317.7,471.7-1317.7,471.2z"/>
	<path class="st16" d="M-1262.9,558.4c0.3,0.2,1.2,0.7,1.6,0.8c0.4,0.1,0.5,0.6-0.2,0.3C-1262.1,559.3-1262.6,558.9-1262.9,558.4z"
		/>
	<path class="st16" d="M-1262,557.6c0.5,0.1,0.9,0.4,1.3,0.5s1,0.5,0.5,0.4s-0.9,0-1.2-0.3C-1261.7,557.9-1262,557.6-1262,557.6z"/>
	<path class="st16" d="M-1304.1,557.2c-0.4,0.4-0.6,0.8-0.8,1.3c-0.1,0.2,0.2,0.9,0.4,0.2c0.2-0.7,0.5-1.4,0.8-2L-1304.1,557.2z"/>
	<path class="st16" d="M-1300.7,557c0,0-1.2,2-1.4,2.3c-0.2,0.3-0.2,1.4,0.1,0.7c0.3-0.7,0.9-1.2,1-1.7
		C-1300.9,557.8-1300.7,557-1300.7,557z"/>
	<path class="st18" d="M-678.2,658.4c0,0,0.2,19.1-3.4,20.6c-6.5,2.7-31.8,11.6-3.9,9.6c14.3,0.9,13.3-2.3,13.5-5
		c0.2-2.2,1.8-18.9,2.4-24.9c0.1-1.4,0.2-2.2,0.2-2.2L-678.2,658.4z"/>
	<path class="st19" d="M-666.2,517.2c-1.8,2.3-2.6,27.7-2.7,56.6l0,0c-0.1,14.3,0.1,29.4,0.3,43.1l0,0c0.1,5.6,0.2,11,0.4,16
		c0.3,9.7,1.2,19.4,2.9,28.9h-20.1L-691,600c-1.5-2-2.5-4.2-3.2-6.6c-1.1-4.1-3.5-45.2-5-73.2c-0.8-14.2-1.3-25-1.4-25.9v-0.1
		c0.8,0.8,5,1.4,11.1,1.7c7.5,0.4,17.8,0.6,27.6,0.6"/>
	<path class="st2" d="M-690.2,578c-0.2-0.1-0.3-0.4,0.1-0.4c-0.2,0-0.4,0-0.6-0.2c0.2,0,0.2-0.2,0.1-0.3c-0.2,0.1-0.2,0.2-0.2,0.5
		c0.5,0.2-0.2,0.8,0.3,1C-690.4,578.4-690.1,578.2-690.2,578z"/>
	<path class="st2" d="M-688.7,576.9L-688.7,576.9l0.1,0.4C-688.8,577.2-688.9,576.9-688.7,576.9z"/>
	<path class="st20" d="M-689.1,575.5c0.2,0,0.4-0.2,0.6-0.2c-0.5,0-0.1-0.3-0.2-0.5l-0.4-0.1c-0.3,0.2-0.2,0.6-0.2,1L-689.1,575.5z"
		/>
	<path class="st2" d="M-688.8,575.2l-0.2-0.1C-689,575.2-689,575.4-688.8,575.2z"/>
	<path class="st2" d="M-690.1,575.4c0,0.3,0.2-0.2,0.2,0.1C-690,575.5-690,575.3-690.1,575.4z"/>
	<path class="st20" d="M-689.4,574.2c0.1,0.2,0.1,0.4,0.2,0.6l0.2-0.3L-689.4,574.2z"/>
	<path class="st20" d="M-688.5,574.2c0,0.1-0.1,0.1-0.2,0.1h-0.1c0.3-0.2-0.1-0.4,0.2-0.6l0.1,0.2c0.3,0-0.3-0.4,0.3-0.4
		c-0.4-0.3-0.5,0.2-0.8-0.2c0.1,0.3,0,0.6-0.1,0.9c0.1-0.1,0.1-0.1,0.2-0.2c0,0.2,0.2,0.5,0.2,0.7
		C-688.4,574.5-688.8,574.4-688.5,574.2z"/>
	<path class="st20" d="M-688.4,573.2c0-0.2,0.1-0.5-0.4-0.6c-0.3,0.2,0,0.3,0.2,0.4c-0.1,0.1-0.1,0.3-0.3,0.2
		C-688.8,573.1-688.6,573.3-688.4,573.2z"/>
	<path class="st20" d="M-688.3,572.3l-0.4-0.2l0.1,0.1h-0.3c0.1,0,0.6,0.1,0.5,0.3C-688.2,572.5-688.4,572.4-688.3,572.3z"/>
	<path class="st20" d="M-690.2,572.2c0.2-0.1,0.1-0.2,0-0.4c0,0.2,0,0.6,0.1,0.7h-0.1c0.1,0.2,0.3,0.3,0.4,0.4
		C-689.9,572.6-689.5,572.1-690.2,572.2z"/>
	<path class="st20" d="M-690.2,572.5l-0.2-0.2L-690.2,572.5z"/>
	<path class="st20" d="M-688.4,571.6l-0.1,0.3l0.1-0.1V571.6z"/>
	<path class="st20" d="M-689.5,572c0.1-0.3-0.3,0.1-0.3-0.1c0-0.1,0,0.4,0.2,0.4C-689.6,572.2-689.8,572-689.5,572z"/>
	<path class="st20" d="M-688.3,571.4l-0.3-0.3L-688.3,571.4z"/>
	<path class="st20" d="M-688.1,570.8l-0.2-0.1c0.2-0.2-0.1-0.6,0.4-0.8c-0.3,0-0.5-0.1-0.6,0.1c0.1,0,0.1,0.1,0.3,0.1
		c-0.1,0.1-0.2,0.1-0.3,0.1c0.2,0.2,0,0.4,0.2,0.6c0-0.1,0-0.1,0-0.1c0.3,0.3-0.5,0.3,0,0.5C-688.4,571.1-688,570.9-688.1,570.8z"/>
	<path class="st20" d="M-689.5,570.7l-0.1,0.2c-0.3-0.1,0-0.3-0.2-0.3s-0.3,0.2-0.4,0.1c0.6,0.1,0,0.3,0.7,0.2
		c0.1,0.3-0.4,0.1-0.4,0.4l0.3,0.1C-689.6,571.1-689.3,571.1-689.5,570.7z"/>
	<path class="st20" d="M-689.3,569.8l0.2-0.1L-689.3,569.8c-0.1-0.6,1.1-0.8,1-1.1c-0.4-0.4,0.3-0.7,0.2-1.1
		c-0.2-0.2-0.2,0.2-0.3,0.2c-0.5-0.1,0.3-0.2-0.1-0.3c-0.4-0.1-0.4,0.4-0.7,0.5c0,0.2,0.1,0.2,0.3,0.2c-0.2,0-0.3,0.2-0.5,0.2
		c0.3,0.3-0.3,0.5,0,0.8c-0.3,0.1,0-0.2-0.1-0.1v0.2l0,0c0.3,0.2,0,0.6-0.2,0.8c0.1-0.1,0.3-0.2,0.4,0l-0.3,0.1l0.4,0.3
		C-689.4,570.1-688.7,569.9-689.3,569.8z"/>
	<path class="st20" d="M-689.9,570.1c-0.2,0.3,0.5,0,0.3,0.4v-0.4H-689.9z"/>
	<path class="st2" d="M-689,568.5l0.2-0.2C-689.2,568.4-688.6,568.7-689,568.5z"/>
	<path class="st2" d="M-688.9,567.9l0.4,0.1l-0.2-0.2L-688.9,567.9z"/>
	<path class="st20" d="M-688.4,567.3c-0.2-0.1-0.4,0-0.3,0.1C-688.7,567.3-688.5,567.3-688.4,567.3z"/>
	<path class="st20" d="M-688.1,569.1C-688.1,569.1-688.1,569.2-688.1,569.1L-688.1,569.1z"/>
	<path class="st20" d="M-688.1,569L-688.1,569C-688.1,569.1-688.1,569.1-688.1,569z"/>
	<path class="st20" d="M-688.6,576L-688.6,576L-688.6,576L-688.6,576z"/>
	<path class="st20" d="M-689.1,576.2c-0.3-0.2,0.6-0.3,0.4-0.6c0.1,0.2,0.1,0.3,0.1,0.5C-689,576.3-688.8,575.9-689.1,576.2z"/>
	<path class="st20" d="M-689.5,572.9L-689.5,572.9C-689.6,572.9-689.5,572.9-689.5,572.9z"/>
	<path class="st2" d="M-688.2,586.7L-688.2,586.7v0.2V586.7z"/>
	<path class="st2" d="M-688,586.6l0.2-0.4c0.1,0.7,0.2,1.4,0.3,2.1h-0.2C-687.8,588.4-687.8,586.5-688,586.6z"/>
	<path class="st2" d="M-688.1,586.5c-0.5-0.2,0.1-0.4-0.2-0.6c0.2,0.1,0.5,0.2,0.4,0.4L-688.1,586.5z"/>
	<path class="st21" d="M-689.1,585.9c0.1-0.1-0.1-0.2-0.1-0.3C-688.8,585.6-689.1,585.8-689.1,585.9z"/>
	<path class="st20" d="M-690.5,585.7L-690.5,585.7L-690.5,585.7L-690.5,585.7z"/>
	<path class="st20" d="M-690.4,585.7h0.2C-690.3,585.8-690.4,585.8-690.4,585.7z"/>
	<path class="st20" d="M-690.5,585.7c-0.1,0-0.1-0.1-0.2-0.1v0.1c0-0.1-0.2-0.2-0.1-0.2c0,0.1,0.1,0.1,0.3,0.1v-0.2
		C-689.9,585.3-690.5,585.5-690.5,585.7z"/>
	<path class="st21" d="M-690.7,585l0.3,0.2C-690.7,585.3-690.7,585.1-690.7,585z"/>
	<path class="st20" d="M-690.4,584.6c0.1,0,0.1,0.3,0.2,0.1c0.1,0,0.1,0.1,0.1,0.1C-690.2,584.7-690.5,584.9-690.4,584.6z"/>
	<path class="st20" d="M-690.1,584.9L-690.1,584.9L-690.1,584.9z"/>
	<path class="st21" d="M-688.6,587.1L-688.6,587.1L-688.6,587.1z"/>
	<path class="st20" d="M-690.1,584.2L-690.1,584.2C-690.1,584.1-690.1,584.1-690.1,584.2L-690.1,584.2z"/>
	<path class="st20" d="M-686.5,590.7c0.1-0.3,0-0.7-0.1-1c-0.4,0.1-0.1-0.1-0.5-0.1c-0.1-0.2-0.2-0.4-0.2-0.6
		c-0.1-0.4-0.3-0.8-0.4-0.6l0.2,0.1l-0.4-0.1c0.1-0.2,0.4-0.5,0.1-0.7c0.1-0.1,0.2,1.8,0.4,1.7c-0.4,0.2-0.8-2.3-1-2.4l0.2-0.1
		c-0.3-0.3-0.7-0.5-0.9-0.7l0.3-0.1c-0.1,0.2,0.1,0.2,0.3,0.4c-0.1-0.3,0.1-0.4,0-0.7c-0.4,0-0.2,0.2-0.4-0.1
		c0.1-0.1,0.6,0.1,0.5-0.2c0.1-0.4-0.5-0.2-0.5-0.6l-0.1,0.2c0-0.1-0.1-0.3,0.1-0.5c0.1,0.3,0.3,0.5,0.6,0.4c-0.1-0.1,0-0.4,0-0.6
		h0.3c0.2-0.1-0.1-0.2,0.1-0.4c-0.2-0.1-0.4,0.1-0.5,0c0.1,0,0.2-0.3,0-0.4c-0.6,0.1,0.2,0.3-0.3,0.6l0.1-0.3
		c-0.6-0.1,0,0.4-0.4,0.4c-0.6-0.2,0.5-0.5-0.2-0.6c-0.1,0.1-0.1,0.6-0.3,0.5c0.2-0.2-0.2-0.2-0.3-0.4l0.2-0.3
		c-0.2-0.1-0.2,0-0.3,0.1c0.3-0.4-0.1-1,0.2-1.5c-0.1-0.3-0.2,0-0.5-0.2c0.3-0.2,0-0.4,0-0.6c0-0.1-0.3-0.1-0.4-0.1l0.2,0.4
		c-0.2,0-0.5,0.1-0.4,0.2c0.6-0.1-0.4,0.6,0.4,0.6h-0.3l0.3,0.5l0,0c-0.1,0,0.3,0.4,0.1,0.8c-0.1-0.1,0-0.6-0.4-0.3
		c-0.2-0.2,0.1-0.6-0.1-1l-0.2,0.1c-0.4-0.4,0-1-0.1-1.5l0.3,0.1c0.1-0.2,0.4-0.4,0.1-0.5c0,0.2-0.2,0.1-0.3,0.1
		c-0.2-0.3,0-0.7-0.1-1.1h0.1l-0.2-0.4c0-0.2,0.2-0.3,0.4-0.4c0-0.1,0-0.2-0.2-0.2v0.1c-0.3-0.2,0.1-0.1-0.1-0.4
		c0.3,0.2,0.4-0.1,0.7-0.1c-0.1-0.3-0.5,0-0.7,0c0.2-0.4,0.4-0.4,0.5-0.8c-0.2,0-0.1,0.3-0.3,0.3c0-0.1,0-0.2,0-0.2l-0.1,0.2
		c0.2-0.3,0.3-0.8,0.1-1.1h-0.1v-0.3l0.3,0.1c-0.1-0.1,0.2-0.3-0.1-0.4v0.1l-0.1-0.2l0.3,0.2c0.1-0.2-0.5-0.5-0.5-0.9
		c0.5-0.1,0.2,0.6,0.7,0.7c0.1-0.1,0.2-0.3,0-0.4c-0.2,0-0.2,0.1-0.2,0.2c-0.3-0.3,0.2-0.8-0.3-1l-0.2,0.2c-0.1-0.3,0.6-0.4,0.2-0.5
		l0.6,0.2c-0.3-0.3-0.2-0.6-0.4-0.9c-0.3,0,0,0.4-0.1,0.4l-0.2-0.1c0.2-0.4,0.2-0.1,0.4-0.6h-0.2c0.3-0.2-0.3-0.6,0.3-0.4l-0.1,0.1
		h0.3l-0.2-0.6c0.2,0.1,0.2-0.2,0.4-0.1l-0.2-0.2c0.4-0.1,0.4,0.4,0.7,0.4c0.2,0,0.2-0.1,0.1-0.1c0.3,0.3-0.4,0.4-0.4,0.6l0.2,0.1
		h-0.3c0.1,0.1,0.3,0.2,0.4,0.2c-0.5,0.2,0.1,0.5,0,0.9c-0.2-0.3-0.3,0.2-0.4,0.1c0,0.2,0.6,0.6,0.2,0.7c-0.2,0.1-0.2-0.2-0.3,0
		c0,0.1,0.2,0.2,0.3,0.2h0.1c0,0.4,0.1,0.7,0,1.1l-0.2-0.1c-0.2,0.2,0.1,0.5,0.4,0.6c-0.1,0,0,0-0.2,0c-0.4,0.3,0.5,0.4,0.4,0.9
		c0.3,0,0.3-0.2,0.2-0.4h0.4c0-0.4-0.1-0.8-0.3-1.2l0.3,0.2c0.5-0.3-0.5-0.2,0.1-0.5c-0.1-0.2-0.2,0.1-0.3,0c0.1-0.1,0.6,0,0.6-0.2
		c0.2,0.9,0.1,1.9,0.2,2.9c0.1,0,0.1,0,0.1-0.1c0.3,0.2,0.1,0.9-0.1,1.6c-0.2,0.7-0.2,1.4,0.3,1.4c-0.1,0.1-0.3-0.1-0.3,0.1
		c0.1,0,0.2,0,0.3,0c-0.5,0.5,0.1,1.2-0.2,1.8c0.2,0,0.3,0.1,0.4,0.1c-0.3,0.2,0.1,0.6-0.1,0.8l0.2-0.1l0.1,0.6
		c0.1,0,0.1-0.1,0.1-0.1c0.1,0.1-0.1,0.2-0.3,0.2l0.4,0.2c-0.6,0.9,0.5,1.7,0.3,2.7c0.3,0.1,0.5,0.2,0.5,0.4l0.1-0.1
		c0.3,0.2-0.2,0,0,0.2c0.2,0.1,0.5,0,0.3-0.2c0.1-0.1,0.2-0.1,0.3,0C-685.8,589.3-686,590.1-686.5,590.7z"/>
	<path class="st22" d="M-669.6,669.7c0.2-1.3-10,1.8-11.2,0c0,0,1,7.3,0,8.3s-18.9,4.7-18.6,9.9s25.2,1.1,26.9,1
		C-670.7,688.8-669.9,672.1-669.6,669.7z"/>
	<g class="st23">
		<path d="M-659.4,496.4h0.4C-659,496.4-659.1,496.4-659.4,496.4z"/>
		<path d="M-659.4,496.4c-9.5,0.8-30.3-0.6-30.3-0.6c-6.1-0.3-10.4-0.9-11.1-1.7c0,0,0,0,0,0.1c0,0.9,0.6,11.8,1.4,25.9
			c0.3,0,0.7-0.1,1-0.1c2.1-0.4,3.9-1.7,5-3.5c0.8-1.3,1.5-2.6,2-4C-684.3,499.1-662.4,496.7-659.4,496.4z"/>
	</g>
	<path class="st24" d="M-672.1,557.6c0.2,0.5-14.2,23.8-11.9,33.1c2.3,9.3,15.2,13.9,16.4,21.4c1.3,7.5-1-22.5-1-22.5l-2.8-32.3"/>
	<path class="st18" d="M-645.1,642.4c0,0,7,17.7,4.2,20.4c-5.1,4.8-25.5,22-0.1,10.4c13.7-4.3,11.6-6.9,10.8-9.4
		c-0.6-2.1-5.1-18.3-6.7-24.1l-0.6-2.1L-645.1,642.4z"/>
	<path class="st22" d="M-632.8,649.8c-0.3-1.2-8.7,5.2-10.5,4c0,0,3.6,6.5,3,7.8s-16,11-13.8,15.8c2.2,4.8,23.9-7.8,25.5-8.6
		S-632.2,652.2-632.8,649.8z"/>
	<path class="st19" d="M-628,505.8c-4.1-1.3-15.4-5-27.4-9.1l-9.9,16.7l-0.9,1.6c0.5-0.3,0.7,0.3,0.7,1.7l0,0c0,1.6-0.2,3.3-0.4,4.9
		c-1.6,12-7.2,38.5-13.3,64.8l0,0c-0.3,1.4-0.3,2.9,0.1,4.2c2.6,8.6,12,19.4,13.7,27c1.2,5.3,9.1,9.5,10.1,14.2
		c3.6,16.4,7.8,13.6,7.8,13.6l3.4-0.4l8.4-1.1l7-0.9c0,0-13.9-29.3-21-44.7c0,0,0,0,0-0.1c-2.3-5.1-3.9-8.6-4-9l0,0
		c1-2.7,2.5-7,4.4-12.2c4.1-11.7,9.9-28.1,14.8-42.3l0,0c1.6-4.7,3.2-9.2,4.6-13.1L-628,505.8z"/>
	<path class="st24" d="M-649.8,598.2c-1.8-3.7-9.5-10-9.5-10c5-2.2,9.7-11.6,9.7-11.6l0.1,0.4c-1.9,5.2-3.4,9.5-4.4,12.2l0,0
		C-653.7,589.6-652.1,593.1-649.8,598.2z"/>
	<path class="st19" d="M-665.9,521.5l2.1-24.9l36.1-4.3c0,0,1,28.6-6.9,42.4C-642.5,548.5-665.9,521.5-665.9,521.5z"/>
	<path class="st25" d="M-639.2,540.2c0,0-5.3-0.2-8.7,2.2c-2,1.4-2.4,0.9-2.8,1.1c-1.4,0.5,1.3,1.4,3.3,0.4c1.6-0.8,4.3,0.6,5.4,0.3
		c1.1-0.3,4.1-1.6,4.4-2.4C-637.4,541.1-639.2,540.2-639.2,540.2z"/>
	<path class="st26" d="M-656.8,548.8c-0.2-0.5,0.1-1.1,0.6-1.3l5.2-2.3l4.5-3.4c0.4-0.3,1.1-0.3,1.5,0.1c0.2,0.3,0.5,0.5,0.6,0.8
		c0.6,0.9,3.5,6.2,4.3,7.6c0.1,0.2,0.2,0.5,0.2,0.8c0,1-0.3,2.1-0.8,3c-1.4,2.5-4,4.1-6.9,4.3c-1.2,0.1-2.4-0.1-3.5-0.7
		c-0.2-0.1-0.5-0.3-0.6-0.6c-0.8-1.3-4.1-6.4-4.7-7.3C-656.6,549.5-656.7,549.2-656.8,548.8z"/>
	<path class="st27" d="M-651.7,544.1c0,0,4.4-2.1,3.7-6.2l2.1,3.5c0.2,0.4,0.3,0.8,0.2,1.2c-0.7,2-2,3.8-3.9,4.9
		c-1.9,1.1-4.1,1.4-6.2,1c-0.4-0.1-0.8-0.4-1-0.7l-2.1-3.5C-655.7,546.9-651.7,544.1-651.7,544.1z"/>
	<path class="st28" d="M-656.8,548.8c-0.1-0.3-0.1-0.5,0.1-0.8l-0.1-0.1l-2.1-3.5l0,0c0,0,0-0.1-0.1-0.1c-1-1.7,0.6-4.6,3.6-6.4
		s6.3-1.8,7.4-0.1c0,0,0,0.1,0.1,0.1l0,0l2.1,3.5c0,0,0.1,0.1,0.1,0.2c0.3,0,0.5,0.1,0.7,0.3c0.2,0.3,0.5,0.5,0.6,0.8
		c0.6,0.9,3.5,6.2,4.3,7.6c0.1,0.2,0.2,0.5,0.2,0.8c0,1-0.3,2.1-0.8,3c-1.4,2.5-4,4.1-6.9,4.3c-1.2,0.1-2.4-0.1-3.5-0.7
		c-0.2-0.1-0.5-0.3-0.6-0.6c-0.8-1.3-4.1-6.4-4.7-7.3C-656.6,549.5-656.7,549.2-656.8,548.8z"/>
	<path class="st28" d="M-645.8,541.6c0,0,1.1,2.4-3.8,6"/>
	<g>
		<g>
			<defs>
				<path id="SVGID_1_" d="M-656.8,548.8c-0.1-0.3-0.1-0.5,0.1-0.8l-0.1-0.1l-2.1-3.5c3.3,2.5,7.3-0.3,7.3-0.3s4.4-2.1,3.7-6.2
					l2.1,3.5c0,0,0.1,0.1,0.1,0.2c0.3,0,0.5,0.1,0.7,0.3c0.2,0.3,0.5,0.5,0.6,0.8c0.6,0.9,3.5,6.2,4.3,7.6c0.1,0.2,0.2,0.5,0.2,0.8
					c0,1-0.3,2.1-0.8,3c-1.4,2.5-4,4.1-6.9,4.3c-1.2,0.1-2.4-0.1-3.5-0.7c-0.2-0.1-0.5-0.3-0.6-0.6c-0.8-1.3-4.1-6.4-4.7-7.3
					C-656.6,549.5-656.7,549.2-656.8,548.8z"/>
			</defs>
			<clipPath id="SVGID_2_">
				<use xlink:href="#SVGID_1_"  style="overflow:visible;"/>
			</clipPath>
			<g class="st29">
				<path class="st30" d="M-657.2,544.5c0,0,1.9,3.4,2.4,4.3c-0.1,0.2-0.1,0.4-0.1,0.5c0.1,0.6,5.5,8.9,5.5,8.9s0.1,0.2,0.2,0.2
					c-0.3,0.5-0.6,1-1,1.4l-4.5-1.4l-3-5.5c0,0-3.2-7.3-3.3-7.9S-657.2,544.5-657.2,544.5z"/>
			</g>
		</g>
	</g>
	
		<ellipse transform="matrix(0.8635 -0.5044 0.5044 0.8635 -362.1546 -255.8091)" class="st31" cx="-653.6" cy="541.1" rx="6.4" ry="3.6"/>
	<path class="st26" d="M-657.1,545.2c0,0-0.7-0.6,0.9-1.4c1.6-0.8,1.5-0.2,3-1.1c1.5-0.9,1.8-1.1,1.8-2.1c0.2-1.1,0.6-2.1,1.1-3.1
		c0.2-0.5,0.2-0.8,0.7-0.8c0.6,0.1,1.2,0.4,1.7,0.7c0.3,0.3,0.6,0.7,0.8,1.1c0.1,0.4,0.2,0.7,0.1,1.1c-0.1,0.3,0.1,0.7,0.1,1.1
		c0,0.4,0.2,1-0.4,1.2c-0.4,0.1-0.8,0.3-1.2,0.6c-0.6,0.4-1.2,0.7-1.8,1c-0.3,0.2-0.6,0.4-0.9,0.6c-1.7,1.1-3.7,1.5-5.7,1.3
		L-657.1,545.2z"/>
	<path class="st32" d="M-649.2,537.4c0.3,0,1,0,1.2,0.4s0.2,0.2,0.3,1.2c0.1,0.9,0.6,1.3,0.3,1.8s-0.3,0.4-0.8,0.7
		c-0.5,0.4-0.1-0.7,0-1.3s0.3-0.9,0-1.4c-0.2-0.4-0.5-0.8-0.9-1.1C-649.1,537.7-649.2,537.6-649.2,537.4z"/>
	<path class="st25" d="M-627.9,536.2c-0.7,0.3-9.7,2.5-13.1,5.2c-3.4,2.7-8.1,7-10.1,8.1c-2.4,1.3-2.1,2.5,0.8,1.2
		c2.2-0.9,4.3-2.1,6.3-3.4c0.3-0.3-2,1.4-4.6,3c-2.8,1.8-5.9,3.5-5.7,4.1c0.6,1,9-3.7,10.3-4.7c-1.1,0.9-2.3,1.8-3.5,2.6
		c-1.6,1.1-3.7,2.2-3.8,2.8c0,0.9,4.8-1.1,8.2-3.5c0.1,0-0.7,1.1-4.8,3.7c-0.4,0.3-1.2,1.3,0.5,0.7c3.5-1.2,5-1.5,8.6-4.7
		c3.5-3.2,6.5-7.4,9.7-9L-627.9,536.2z"/>
	<path class="st25" d="M-728.1,538.9c0,0.8-1.4,9.8-0.1,14s3.5,10.1,3.8,12.4c0.3,2.7,1.5,2.9,1.4-0.3c-0.1-2.4-0.3-4.7-0.8-7
		c-0.1-0.4,0.6,2.3,1.1,5.3c0.6,3.2,1.1,6.8,1.7,6.7c1.2-0.1,0-9.6-0.5-11.2c0.5,1.4,0.8,2.8,1.1,4.2c0.4,1.9,0.6,4.2,1.2,4.5
		c0.9,0.4,0.8-4.9-0.2-8.8c0.1-0.1,0.8,1,1.7,5.8c0.1,0.5,0.7,1.5,0.8-0.2c0.2-3.6,0.5-5.2-1.2-9.7c-1.6-4.4-4.5-8.8-4.7-12.3
		L-728.1,538.9z"/>
	<path class="st33" d="M-736.9,556h-0.3v1.4l0,0v0.2v0.2l0,0v1.3h0.3c2.7,0.4,5.3,0.6,8,0.6c2.8-0.2,28.4-0.7,28.4-0.7
		s0.4,0,0.5-0.5c0-0.1,0.1-0.3,0.1-0.4c0-0.1,0-0.3-0.1-0.4c-0.1-0.5-0.5-0.5-0.5-0.5s-25.6-1.1-28.4-1.4
		C-731.5,555.6-734.2,555.7-736.9,556z"/>
	<path class="st34" d="M-737.5,556C-737.5,556.1-737.6,556.1-737.5,556c-0.1,0.1-0.1,0.1-0.2,0.1c-0.2-0.2-0.4-0.3-0.7-0.3
		c-0.2,0-0.3,0.4-0.5,0.2c-0.2-0.2-0.6-0.1-0.6-0.1s-8.1,0.4-8.3,0.4s-0.1,0.1-0.1,0.1c0,0.3,0,1,0,1.2c0,0.1,0,0.9,0,1.1
		c0,0,0,0.1,0.1,0.1s8.3,0.7,8.3,0.7s0.5,0.1,0.6-0.1c0.1-0.2,0.3,0.2,0.5,0.2c0.3,0,0.5-0.1,0.7-0.2h0.1c0,0,0,0,0,0.1
		c0.1,0.1,0.2,0.2,0.3,0.2c0.1-0.6,0.1-1.1,0.1-1.7l0,0c0,0,0-0.1,0-0.2s0-0.2,0-0.2l0,0c0-0.6,0-1.1-0.1-1.7
		C-737.3,555.8-737.4,555.8-737.5,556z"/>
	<path class="st35" d="M-757.5,560.1C-757.6,560.1-757.6,560-757.5,560.1z"/>
	<path class="st20" d="M-748,555.9c0.9,0.7,1.1,2.1,0.3,3c0,0,0,0.1-0.1,0.1c-0.8,0.4-1.7,0.5-2.6,0.3c-1.8-0.3-4.7-0.4-5.4-0.8
		c-0.6-0.2-1.1-0.5-1.7-0.9l0,0c0.1,0,0.2,0,0.3,0.1c0.2,0.1,0.5,0,0.7-0.1c0,0,0,0,0.1,0s0.3-0.1,0.5-0.2c0.2-0.1,0.4-0.2,0.5-0.2
		c0.2-0.1,0.4-0.1,0.7-0.1c0,0,0.1-0.2-0.3-0.2c-0.2,0-0.4,0-0.5,0c0.3,0,0.5-0.1,0.8-0.2c0.2-0.1,1.7-0.3,3.1-0.5
		C-750.5,556-749.2,555.9-748,555.9z"/>
	<path class="st36" d="M-748.1,557.9c-0.8,0.3-1.7,0.5-2.6,0.4c-1.2,0-2.5-0.1-3.7-0.4c-0.5-0.1-1.1-0.2-1.6-0.5c0,0,0,0,0.1,0
		s0.3-0.1,0.5-0.2c0.7,0.1,2.3,0.4,3.3,0.7C-750.8,558.1-749.5,558.1-748.1,557.9z"/>
	<path class="st28" d="M-736.9,556h-0.2c0-0.1,0-0.2,0-0.2c-0.1,0-0.3,0.1-0.3,0.2s-0.1,0.1-0.1,0.1s0,0-0.1,0
		c-0.2-0.2-0.4-0.3-0.7-0.3c-0.2,0-0.3,0.4-0.5,0.2c-0.2-0.2-0.6-0.1-0.6-0.1s-7.3,0.4-8.2,0.4c-0.1-0.1-0.2-0.2-0.3-0.3
		c-1.2,0-2.5,0.1-3.7,0.3c-1.3,0.2-2.9,0.5-3.1,0.5c-0.3,0.1-0.5,0.1-0.8,0.2c0.2,0,0.4,0,0.5,0c0.4,0,0.3,0.2,0.3,0.2
		c-0.2,0-0.5,0-0.7,0.1c-0.1,0.1-0.3,0.2-0.5,0.2c-0.2,0.1-0.3,0.2-0.5,0.2c0,0,0,0-0.1,0c-0.2,0.1-0.4,0.2-0.7,0.1
		c-0.1,0-0.2,0-0.3-0.1l0,0c0.5,0.4,1.1,0.7,1.7,0.9c0.7,0.3,3.6,0.5,5.4,0.8c0.9,0.2,1.8,0.1,2.6-0.3c0.1-0.1,0.2-0.2,0.2-0.3
		c1.4,0.1,8,0.6,8,0.6s0.5,0.1,0.6-0.1c0.1-0.2,0.3,0.2,0.5,0.2c0.3,0,0.5-0.1,0.7-0.2h0.1c0,0,0,0,0,0.1c0.1,0.1,0.2,0.2,0.3,0.2
		c0-0.1,0.1-0.2,0.1-0.3h0.2c2.7,0.4,5.3,0.6,8,0.6c2.8-0.2,28.4-0.7,28.4-0.7s0.4,0,0.5-0.5c0-0.1,0.1-0.3,0.1-0.4s0-0.3-0.1-0.4
		c-0.1-0.5-0.5-0.5-0.5-0.5s-25.6-1.1-28.4-1.4C-731.6,555.6-734.2,555.7-736.9,556z"/>
	<path class="st28" d="M-757.4,557.7C-757.5,557.6-757.6,557.7-757.4,557.7z"/>
	<path class="st37" d="M-747.5,558.1"/>
	<path class="st38" d="M-700,557.7c-0.2,0.5-0.5,0.5-0.5,0.5s-25.6,0.5-28.4,0.7c-2.7,0-5.4-0.1-8-0.6h-0.2c0,0.1,0,0.2-0.1,0.3
		c-0.1,0-0.3-0.1-0.3-0.2c0-0.1-0.1-0.1-0.1-0.1s0,0-0.1,0c-0.2,0.2-0.5,0.3-0.7,0.2c-0.2,0-0.3-0.4-0.5-0.2
		c-0.2,0.2-0.6,0.1-0.6,0.1s-6.6-0.5-8-0.6c-0.1,0.1-0.1,0.2-0.2,0.3c-0.8,0.4-1.7,0.5-2.6,0.3c-1.8-0.3-4.7-0.4-5.4-0.8
		c-0.2-0.1-0.3-0.1-0.5-0.2c-0.1,0-0.1,0.1-0.2,0.1c0,0,0,0-0.1,0c-0.2,0.1-0.4,0.2-0.7,0.1c-0.1,0-0.2,0-0.3-0.1l0,0
		c0.5,0.4,1.1,0.7,1.6,0.9c0.7,0.3,3.6,0.5,5.4,0.8c0.9,0.2,1.8,0.1,2.6-0.3c0.1-0.1,0.2-0.2,0.2-0.3c1.4,0.1,8,0.6,8,0.6
		s0.5,0.1,0.6-0.1c0.1-0.2,0.3,0.2,0.5,0.2c0.3,0,0.5-0.1,0.7-0.2h0.1c0,0,0,0,0,0.1c0.1,0.1,0.2,0.2,0.3,0.2c0-0.1,0.1-0.2,0.1-0.3
		h0.2c2.7,0.4,5.3,0.6,8,0.6c2.8-0.2,28.4-0.7,28.4-0.7s0.4,0,0.5-0.5c0-0.1,0.1-0.3,0.1-0.4C-699.9,558-699.9,557.8-700,557.7
		L-700,557.7z"/>
	<path class="st39" d="M-737.6,560.6l-0.3,0.1l0.5,1.3l0,0l0.1,0.2l0.1,0.2l0,0l0.5,1.2l0.3-0.1c2.6-0.6,5.1-1.5,7.5-2.6
		c2.4-1.3,25.5-11.6,25.5-11.6s0.4-0.1,0.3-0.7c0-0.1,0-0.3-0.1-0.4c-0.1-0.1-0.1-0.2-0.2-0.4c-0.3-0.4-0.7-0.3-0.7-0.3
		s-23.7,8.8-26.4,9.6C-732.9,558.2-735.3,559.3-737.6,560.6z"/>
	<path class="st20" d="M-749.7,563.8c0.5-0.1,1.1-0.2,1.1-0.2l2.1,5.8c0,0-1.7,0.9-2,1.1c-1.1,0.6-2.3,1.2-3.5,1.7
		c-0.3,0.1-0.3,0.3-0.6-0.2c-0.1-0.1-0.1-0.2-0.2-0.3c0,0,0,0,0-0.1c-0.3-0.5-0.5-1-0.7-1.5l1.1-0.4l-1.2,0.3c0,0-0.3-0.8-0.4-0.9
		c-0.1-0.1,0.3-0.5,0.7-0.7s1.6-0.4,1.7-0.5c-0.6,0.1-1.2,0.2-1.8,0.4c-0.3,0.1-0.7,0.3-0.7,0.3s-0.1-0.3-0.3-0.6l0,0
		c0-0.1-0.1-0.2-0.1-0.3c-0.2-0.5-0.4-0.9-0.4-1c-0.1-0.2-0.1-0.4-0.1-0.6c0,0,1.4-0.7,1.8-0.9
		C-752.8,564.9-750.2,563.9-749.7,563.8z"/>
	<path class="st34" d="M-748.4,566.6L-748.4,566.6L-748.4,566.6v0.2l0,0c0.3,0.7,1.4,2.8,1.4,2.8s1.5-0.9,1.7-1c0.2-0.1,5-3,5.5-3.3
		c0.5-0.3,1-0.6,1.4-1c0.3-0.3,0.1-0.1,0.6-0.2c0.3-0.1,0.6-0.3,0.8-0.6c0.2,0,0.4,0,0.5-0.1c0-0.5-0.1-1.1-0.3-1.6l0,0
		c-0.3-0.5-0.6-0.9-1-1.3c-0.2,0.1-0.3,0.2-0.4,0.3c-0.3-0.1-0.7,0-1,0.1c-0.4,0.3-0.2,0.3-0.6,0.3c-0.6,0.1-1.2,0.1-1.7,0.3
		c-0.5,0.1-5.9,1.5-6.2,1.5c-0.2,0.1-1.9,0.5-1.9,0.5S-748.7,565.9-748.4,566.6z"/>
	<path class="st36" d="M-750.4,570.1c0,0-1.3,1.1-2.2,1.9c-0.1-0.1-0.1-0.2-0.2-0.3c0,0,0,0,0-0.1L-750.4,570.1z"/>
	<path class="st28" d="M-753.3,565.1c-0.5,0.2-1.8,0.9-1.8,0.9c0,0.2,0,0.4,0.1,0.6c0,0.1,0.2,0.5,0.4,1c0.1,0.1,0.1,0.2,0.1,0.3
		l0,0c0.1,0.3,0.3,0.6,0.3,0.6s0.4-0.2,0.7-0.3c0.6-0.2,1.2-0.3,1.8-0.4c-0.1,0.1-1.3,0.3-1.7,0.5c-0.4,0.2-0.8,0.5-0.7,0.7
		c0.1,0.1,0.4,0.9,0.4,0.9l1.2-0.3l-1.1,0.4c0.2,0.5,0.4,1.1,0.7,1.5c0,0,0,0,0,0.1c0.1,0.1,0.1,0.2,0.2,0.3
		c0.3,0.4,0.4,0.3,0.6,0.2c1.2-0.5,2.3-1.1,3.5-1.7c0.2-0.2,1-0.6,1.6-0.9l0,0l0.3-0.2l0.1-0.1l0,0c0.5-0.3,1.1-0.7,1.3-0.7
		c0.2-0.1,5-3,5.5-3.3c0.5-0.3,1-0.6,1.4-1c0.3-0.3,0.1-0.1,0.6-0.2c0.3-0.1,0.6-0.3,0.8-0.6c0.2,0,0.4,0,0.5-0.1l0,0l0,0
		c2.6-0.6,5.1-1.5,7.5-2.6c2.4-1.3,25.5-11.6,25.5-11.6s0.4-0.1,0.3-0.7c0-0.1,0-0.3-0.1-0.4s-0.1-0.2-0.2-0.4
		c-0.3-0.4-0.7-0.3-0.7-0.3s-23.7,8.8-26.4,9.6c-2.5,0.9-4.9,2-7.2,3.3l0,0l0,0c-0.1,0-0.1,0.1-0.2,0.1l0,0l0,0
		c-0.1,0.1-0.2,0.2-0.2,0.2c-0.3-0.1-0.7,0-1,0.1c-0.4,0.3-0.2,0.3-0.6,0.3c-0.6,0.1-1.2,0.1-1.7,0.3c-0.5,0.1-5.9,1.5-6.2,1.5
		c-0.2,0-1.3,0.3-1.7,0.4c-0.2,0-0.3,0.1-0.5,0.1C-750.2,563.9-752.8,564.9-753.3,565.1z"/>
	<g class="st40">
		<path d="M-754,568.9l1-0.4l-0.9,0.2C-753.9,568.8-753.9,568.8-754,568.9z"/>
		<path d="M-754.5,567.9L-754.5,567.9L-754.5,567.9c0.2,0.4,0.3,0.7,0.3,0.7l0,0C-754.3,568.4-754.4,568-754.5,567.9z"/>
		<path d="M-753.8,567.2c0.4-0.2,1.6-0.4,1.7-0.5C-752.7,566.8-753.3,566.9-753.8,567.2c-0.4,0-0.8,0.1-0.8,0.2l0.1,0.2
			c0,0.1,0.1,0.1,0.1,0.2C-754.5,567.7-754.2,567.3-753.8,567.2z"/>
		<path d="M-755,566.6L-755,566.6c0,0.1,0,0.1,0.1,0.2L-755,566.6z"/>
		<path d="M-703.8,548.2c0,0-23.1,10.3-25.5,11.6c-2.4,1.1-4.9,1.9-7.5,2.6l0,0l0,0c-0.2,0.1-0.3,0.1-0.5,0.1
			c-0.2,0.3-0.5,0.5-0.8,0.6c-0.5,0.1-0.4-0.1-0.6,0.2c-0.5,0.4-0.9,0.7-1.4,1c-0.5,0.3-5.3,3.1-5.5,3.3c-0.1,0.1-0.8,0.5-1.3,0.7
			l0,0l-0.1,0.1c-0.2,0.1-0.3,0.2-0.3,0.2l0,0c-0.5,0.3-1.4,0.7-1.6,0.9c-1.1,0.6-2.3,1.2-3.5,1.7c-0.3,0.1-0.3,0.3-0.6-0.2
			c-0.1-0.1-0.1-0.2-0.2-0.3c0,0,0,0,0-0.1c-0.1-0.1-0.1-0.2-0.2-0.4l0,0c0.2,0.5,0.4,1.1,0.7,1.5c0,0,0,0,0,0.1
			c0.1,0.1,0.2,0.2,0.2,0.3c0.3,0.4,0.4,0.3,0.6,0.2c1.2-0.5,2.3-1.1,3.5-1.7c0.2-0.2,1-0.6,1.6-0.9l0,0l0.3-0.2l0.1-0.1l0,0
			c0.5-0.3,1.1-0.7,1.3-0.7c0.2-0.1,5-3,5.5-3.3c0.5-0.3,1-0.6,1.4-1c0.3-0.3,0.1-0.1,0.6-0.2c0.3-0.1,0.6-0.3,0.8-0.6
			c0.2,0,0.4,0,0.5-0.1l0,0l0,0c2.6-0.6,5.1-1.5,7.5-2.6c2.4-1.3,25.5-11.6,25.5-11.6s0.4-0.1,0.3-0.7c0-0.1,0-0.3-0.1-0.4
			c-0.1-0.1-0.1-0.2-0.2-0.4c-0.1-0.1-0.1-0.1-0.2-0.2C-703.5,547.9-703.6,548.1-703.8,548.2z"/>
		<path d="M-754,569L-754,569c0,0.1,0,0.1,0.1,0.2C-754,569.1-754,569.1-754,569z"/>
		<path d="M-753.8,569.6c0.1,0.2,0.1,0.4,0.1,0.4l0,0C-753.6,569.9-753.7,569.8-753.8,569.6z"/>
	</g>
	<path class="st19" d="M-751.6,564.4c0,0-2.4,0.9-2,1.4c0.4,0.5,0.1,0.5-0.1,0.7c-0.2,0.2,0.1,0.2,0.5,0.2c0.3,0.1,0.3-0.5,0.9-0.4
		c0.4,0,0.7,0.1,1.1,0.2c1.7,0.6-0.1,1.5-0.6,1.8c-0.5,0.3-1.1,0.1-1,0.4s-0.5,0.5,0.3,0.6s1-0.2,1.2,0.3c0.1,0.3-0.4,0.2-0.8,0.6
		c-0.4,0.3-0.6,0.9-0.3,0.8c0.3-0.1,0.5-0.3,0.9-0.4c0.3-0.1,0.4-0.4,0.7-0.1c0.3,0.3,0,0.7,0.8,0.4c0.3-0.2,0.6-0.3,1-0.4
		c0,0,0.7,0,0.3,0.2c-0.4,0.3-0.8,0.5-1.2,0.7c-1.1,0.5-1,0.6-1.4,0.7c-0.4,0-0.8,0.4-1.1,0.4s-0.3-0.4-0.6-0.7
		c-0.3-0.2-0.5-0.6-0.5-0.9c0-0.4-0.2-0.7-0.4-1.1l-0.2-0.4c-0.5-0.5-0.7-0.1-0.9-0.8c-0.1-0.2,0.3-0.5-0.1-0.7
		c-0.3-0.2-0.5-0.1-0.5-0.8c-0.1-0.3,0-0.7,0.1-1c0.2-0.5,1.5-0.8,2-1.1C-753,564.7-751.6,564-751.6,564.4z"/>
	<path class="st25" d="M-728.6,550.7c0,0-2.2,4.8-1.2,8.8c0.6,2.4,0,2.5,0,3c0,1.5,1.8-0.7,1.7-2.8c-0.1-1.7,2.2-3.7,2.4-4.8
		c0.2-1.1,0.1-4.3-0.6-4.9C-727.1,549.4-728.6,550.7-728.6,550.7z"/>
	<path class="st41" d="M-662.1,367.5c0,0,0.7,8.3-4.4,12.8c-5.1,4.6,11.8,0,11.8,0s-3.2-7.9-2.5-12.8
		C-656.3,362.6-662.1,367.5-662.1,367.5z"/>
	<ellipse class="st18" cx="-659.3" cy="358.6" rx="9" ry="12.1"/>
	<path class="st42" d="M-620.7,480.8L-620.7,480.8c-2.3,5.9-6,11.1-10.8,15.3c-0.3,0.2-0.5,0.4-0.8,0.6c-10.5,5-61.7,1.3-68.5-1.4
		c-3.1-1.2-6.8-10.1-10-19.9c-3.9-12-7-25.5-7.2-28.5c-0.3-5,5.8-63.2,40.8-70c3.1-0.6,6.3-0.8,9.5-0.6c0,0,0.3,0.2,0.9,0.5
		c1.2,0.6,2.4,1,3.7,1.3c3.4,0.9,7.1,0.1,9.8-2.1c3.5-3,27.8,0.1,37.8,3.3c14.4,4.6,70.9,23.3,53.1,99.6
		c-9.1,39.1-32.7,52.6-51.1,57.6c-1.9,0.5-3.7,1-5.4,1.3l0,0c-3.5,0.8-7.1,1.4-10.7,1.7c0,0-1.9,1.6-3.9,3.1
		c-0.5-0.4-1.1-0.6-1.6-0.8c-2-0.9,1.5-3.4,1.5-3.4s-4.3-2.3-4-3.4c0.3-1.1,3.8-1.4,6.2-2.3c1.1-0.4,2.8-4.1,4.4-8
		c1.6-3,2.8-6.3,3.5-9.6l0,0c3.9-18.3-5.4-40-4.4-76.5l0,0"/>
	<path class="st42" d="M-754.6,431.1c0-0.1,0-0.2,0-0.4c0.2-0.5,0.4-1.1,0.6-1.6c0.3-0.7,0.6-1.4,0.9-2.1l0,0l0,0
		c4.7-11.2,11.8-21.3,20.9-29.5c21-18.9,45-23,57.3-22.6c4.3,0.1,7.2,0.8,8.1,1.7l0.1,0.1c0.5,0.7,0.3,3.3-0.4,7
		c-3.5,19.6-19.9,72.4-19.9,72.4c-6.7,7.7-14.6,14.2-23.5,19.1c-0.1,0-0.2,0.1-0.2,0.1c-3.7,2.1-7.5,3.9-11.4,5.5
		c-12,4.9-24.8,7.4-37.7,7.5"/>
	<path class="st42" d="M-712.3,496.4c-2.4,14.2-6,28.2-10.6,41.9c0,0,9.9,10.3,3.5,10.2c-6.4,0-5.6,0-8.7,3s-2.7-2.4-4.1-3.2
		s-6.3,4.4-6.7,1.3c-0.3-3.2,5.7-7.4,5.1-10.2c0,0-52.9-43.7-16-119.1l27.7,38.7l11.6,16.2C-709.9,477.7-710.5,485.7-712.3,496.4z"
		/>
	<path class="st19" d="M-639.2,494.2c-5.3,9.1-48,7-52.7,0c0,0-17.5-41.3-14-53.3c0,0,10,1.7,21.4,4.6c12.6,3.2,26.9,7.7,30.8,12.9
		c4.4,5.8,10.6,14.3,13.8,22.1l0,0c0.3,0.7,0.6,1.5,0.8,2.2s0.4,1.4,0.6,2.1l0,0C-637.6,488.3-637.7,491.6-639.2,494.2z"/>
	<path class="st19" d="M-684.5,375.7c0,0-22.4,16.8-21.4,65.3l6.6,2.1c0,0-2.7-48.5,19.4-68C-681.3,374.3-683.2,374.5-684.5,375.7z"
		/>
	<path class="st43" d="M-639.9,480.4c0.1,0.5,0.2,0.9,0.3,1.3c-5.5-7.6-28.1-5.9-28.1-5.9c-0.6-18.3-16.7-30.4-16.7-30.4
		c12.6,3.2,26.9,7.7,30.8,12.9C-649.3,464.1-643.1,472.6-639.9,480.4L-639.9,480.4z"/>
	<path class="st43" d="M-639.6,481.7c0.2,0.3,0.4,0.6,0.5,0.9c0.3,0.7,0.5,1.4,0.6,2.1l0,0C-638.2,488.1-638.7,486.1-639.6,481.7z"
		/>
	<path class="st44" d="M-620.7,480.8L-620.7,480.8c-2.3,5.9-6,11.1-10.8,15.2c7-18.7,2.4-35.3,2.1-46.6
		C-627.8,460.4-620.9,480.1-620.7,480.8L-620.7,480.8z"/>
	<path class="st44" d="M-710.5,475.2c0.6,2.5,0,10.5-1.8,21.2c-2.5-0.5-5.9-3.8-9.8-15.6c-1.1-7.2-1-14.6,0.1-21.8
		c1.9-12.4,6.3-24.2,12.9-34.9C-716.5,439.6-712.5,465.1-710.5,475.2z"/>
	<path class="st26" d="M-692.3,463.1c-1-0.7-1.9-1.7-2.8-2.4l1.1,0.9c-0.5-0.4-0.9-1-1.2-1.6c0.4-0.1,0.5,0.4,0.9,0.2
		c1.2,1.2,2.2,2.7,2.9,4.2C-692.5,464.6-691.9,463.4-692.3,463.1z"/>
	<path class="st26" d="M-696.3,458.3c0.1,0.1,0.3,0.2,0.4,0.3C-696.1,458.6-696.2,458.5-696.3,458.3z"/>
	<path class="st26" d="M-682.2,469.3c0.2,0.1,0.3,0.3,0.4,0.4C-681.9,469.6-682.1,469.5-682.2,469.3z"/>
	<path class="st26" d="M-689.2,463.3c0.1,0,0.2,0.1,0.3,0.1c0.5,0.6,0.9,1.3,1.3,2C-688,464.6-688.9,464.2-689.2,463.3z"/>
	<path class="st26" d="M-689.2,462.1c-0.6-0.6-1.1-1.3-1.3-2.1C-690.1,460.8-689.7,461.4-689.2,462.1z"/>
	<path class="st26" d="M-675,472.7c0.1,0,0.1,0,0.2,0h0.1c0.1,0.4,0.1,0.8,0.2,1.2c-0.1-0.1-0.2-0.1-0.3-0.2
		C-674.9,473.3-674.6,473-675,472.7z"/>
	<path class="st26" d="M-682.3,469.2L-682.3,469.2l-0.2-0.1l0,0C-682.5,469-682.4,469.1-682.3,469.2z"/>
	<path class="st26" d="M-675.2,472.3c0.1-0.1,0.2-0.1,0.3-0.2l0.1,0.6h-0.1C-675,472.6-674.9,472.3-675.2,472.3z"/>
	<path class="st26" d="M-676.5,467.5c-0.1-0.1-0.4-0.1-0.5-0.1c0-0.4-0.1-0.8-0.2-1.2c-0.1,0-0.2-0.1-0.4-0.1
		c0.1-0.1,0.1-0.2,0.1-0.4c0.2,0.4,0.5,0.8,0.7,1.2s0.4,0.8,0.7,1.3C-676.3,468-676.4,467.7-676.5,467.5z"/>
	<path class="st26" d="M-675.2,488.9c0-0.6,0.1-1.2,0.3-1.8c0.2-0.6,0.1-1.2-0.3-1.8c-0.5,1.3-0.8,3-2.1,3c-0.6,0-0.6-0.4-0.4-0.9
		c0.2-0.5,0.4-1.1,0.4-1.6l-0.3,0.2c0.1-0.1,0.3-0.2,0.1-0.3c-0.3,0.2-0.5,0.7-1,0.8l-0.3-0.2c-0.4,0.3-0.8,0.6-1.1,1
		s-0.7,0.7-1.2,0.9c1.6-0.9,2.4-2.7,2.1-4.5c-0.2-1.8-0.8-3.5-1.6-5.1c-1.1-1.7-2.7-3-4.7-3.6c-0.3-0.4-0.6-0.8-0.7-1.3
		c-0.7-0.7-1.4-1.3-2.3-1.8c-1.6-1.2-2.3-3.1-3.9-4.6c-0.3-0.3,0.2-1.6,1.2-1c0.9,0.4,1.7,0.9,2.3,1.7c-0.4,0.2-0.5-0.3-0.8-0.3
		c0.2,0.6,0.6,1.1,1,1.6c-0.3-0.3-0.6-0.6-0.9-0.9c0.8,0.8,1.5,1.7,2.3,2.5c0.3,0.3-0.5,1.3,0.5,1.3c-0.4-1.5-1.2-3-2.1-4.3l0,0
		c-0.5-0.5-0.9-1-1.4-1.6c0.2,0.1,0.4,0.2,0.5,0.4c-0.4-0.9-1-1.8-1.7-2.6c1.4,0.6,2.7,1.6,3.6,2.8c1,1.2,1.8,2.4,2.9,3.5
		c0.1-1-1.3-1.4-1.1-2.4c0.8,1.1,1.6,2.2,2.1,3.4c-0.1-0.1-0.2-0.1-0.3-0.2c0.1,0.4,0.2,0.8,0.5,1.2c0.3,0.3,0.5,0.7,0.7,1.1
		l0.1,0.2c0-0.1,0-0.1-0.1-0.2c-0.2-0.7-0.5-1.4-0.9-2.1c0.3,0.2,0.6,0.6,0.7,0.9c0.1-0.3,0.1-0.7-0.1-1l-0.7-1.2
		c0.4,0.6,1,1,1.6,1.4c-0.3-0.9-0.8-1.8-1.3-2.7c0.3,0.4,0.7,0.8,1,1.2c0.4,0.8,0.8,1.6,1.1,2.5l-0.1-0.1l0.1,0.2
		c0.1,0.3,0.3,0.6,0.4,1c0.2,0.3,0.5,0.5,0.8,0.7l0.1,0.1c-0.2,0-0.3,0-0.3,0.2c0,0.9,0.9,1.5,0.8,2.5c0,0.3,0.1,0.6,0.3,0.9
		c-0.1,0.1,0,0.1,0.1,0.2l0.1,0.2c0.1,0.2,0.1,0.4,0.3,0.5c-0.1-0.2-0.2-0.4-0.3-0.5c0-0.1-0.1-0.1-0.1-0.2c0.1,0,0.3,0,0.3,0.1
		c-0.3-1.3-0.7-2.6-1.3-3.9c0.1,0,0.3,0.1,0.4,0.1l-0.4-0.3c-0.2-0.4-0.5-0.8-0.7-1.1c0.1,0.1,0.3,0.2,0.5,0.2
		c-0.6-1.2-1.3-2.3-2.1-3.3c-0.5-1.1-1.1-2.2-1.7-3.2c0.1,0.7,0.4,1.4,0.7,2c-1.3-1.3-2.4-2.8-3.4-4.4c0.6,0,1.1,0,1.7-0.1
		c0.2-0.2-0.1-0.7,0.2-0.6c1.5,0.5,1.5,1.7,3.1,1.1c0.4-0.2,0.6-2.3,1.2-2.1c0.6,0.4,1.1,0.8,1.5,1.3c0.1,0.2,0.2,0.4,0.4,0.6
		c0,0,0.1,0,0.2,0c0.5,0.6,0.9,1.2,1.3,1.8l0.2,0.5c0,0.1-0.1,0.3-0.2,0.4c0.1,0,0.3,0.1,0.4,0.1c0.2,0.4,0.4,0.9,0.6,1.3
		c0,0.3,0,0.6,0,0.9c0.1-0.1,0.2-0.2,0.3-0.2c0.2,0.5,0.5,1.1,0.7,1.6c0,0.3-0.1,0.6-0.2,0.8c1.1,0.2,1.2,1.8,1.6,2.7l0,0
		c0.2,0.5,0.3,1,0.5,1.5c-0.1,0.1-0.1,0.2-0.2,0.3c0.2,0.1,0.2,0.2,0.3,0.2c0,0.4-0.1,0.8-0.2,1.2c0.1,0,0.4,0.1,0.4,0.2
		c0,0.3,0.1,0.5,0.2,0.8c0,0.3,0.1,0.6,0.1,0.9c0,0.5,0,1.1,0,1.6s-0.1,1.1-0.2,1.6c-0.1,0-0.3,0.1-0.4,0.1c0.2,0.1,0.1,0.4,0.2,0.5
		c-0.1,0-0.1,0-0.2,0c0.3,0.5-0.1,0.6-0.2,1c0,0.1,0.2,0.2,0.2,0.3v0.1c-0.6,0.5-0.4,0.9-0.5,1.5c-0.2,0.5-0.4,1-0.6,1.5
		C-674.5,488.6-674.9,488.7-675.2,488.9z"/>
	<path class="st26" d="M-674.5,474c0.1,0.5,0.1,1,0.1,1.5C-674.6,475-674.9,474.7-674.5,474z"/>
	<path class="st26" d="M-680.6,462.4c0.1-0.3,0.1-0.6,0.1-0.8c0.7,1,1.5,1.9,2.2,2.9l0,0C-679,463.8-679.5,462.3-680.6,462.4z"/>
	<path class="st26" d="M-674.8,472.7L-674.8,472.7L-674.8,472.7C-674.8,472.7-674.8,472.7-674.8,472.7z"/>
	<path class="st26" d="M-686.1,464.2L-686.1,464.2c0.2,0.1,0.4,0.2,0.6,0.4C-685.8,464.5-686,464.4-686.1,464.2z"/>
	<path class="st26" d="M-687.8,461.9l-1.3-1.1c-0.4-0.6-0.8-1.2-1-1.9C-689.3,459.8-688.6,460.8-687.8,461.9z"/>
	<path class="st26" d="M-681.8,460.4c-0.1-0.3-0.1-0.5-0.2-0.8l0.4,0.6C-681.6,460.2-681.7,460.4-681.8,460.4z"/>
	<path class="st26" d="M-684.4,465.7L-684.4,465.7l0.4,0.1C-684.1,465.8-684.3,465.7-684.4,465.7z"/>
	<path class="st26" d="M-683,458l0.3,0.5c-0.1,0-0.3-0.1-0.4-0.1C-683.1,458.3-683,458.2-683,458z"/>
	<path class="st26" d="M-685,456.1c-0.2-0.2-0.3-0.4-0.4-0.5c0.2,0.2,0.4,0.4,0.7,0.5C-684.9,456.1-685,456.1-685,456.1z"/>
	<path class="st45" d="M-597.5,489.9c-0.5-0.3-0.9-0.7-1.4-1.2l0.5,0.4c-0.3-0.2-0.4-0.6-0.4-0.9c0.3-0.1,0.3,0.2,0.6,0
		c0.5,0.7,0.8,1.5,0.9,2.4C-598.1,491-597.3,490.1-597.5,489.9z"/>
	<path class="st45" d="M-599,487.3c0.1,0.1,0.1,0.1,0.2,0.2C-598.9,487.5-599,487.4-599,487.3z"/>
	<path class="st45" d="M-591.2,491.6c0.1,0,0.2,0.1,0.3,0.1C-591,491.7-591.1,491.7-591.2,491.6z"/>
	<path class="st45" d="M-595.1,489.3c0.1,0,0.2,0,0.2,0c0.2,0.3,0.3,0.7,0.5,1.1C-594.6,490-595.2,490-595.1,489.3z"/>
	<path class="st45" d="M-594.8,488.5c-0.3-0.3-0.4-0.8-0.3-1.2C-595.1,487.7-595,488.2-594.8,488.5z"/>
	<path class="st45" d="M-585.8,490.8L-585.8,490.8l0.2-0.1c0,0.2,0,0.4,0.1,0.5c-0.1,0-0.2,0.1-0.2,0
		C-585.8,491-585.5,490.7-585.8,490.8z"/>
	<path class="st45" d="M-591.2,491.5L-591.2,491.5L-591.2,491.5L-591.2,491.5C-591.3,491.5-591.3,491.5-591.2,491.5z"/>
	<path class="st45" d="M-585.9,490.6c0.1-0.1,0.2-0.2,0.3-0.3c0,0.1,0,0.2,0,0.3h-0.1C-585.8,490.7-585.7,490.5-585.9,490.6z"/>
	<path class="st45" d="M-586.4,488.4c0,0-0.3,0.1-0.4,0.1c0.1-0.2,0.1-0.4,0.1-0.7c-0.1,0-0.1,0-0.3,0c0.1-0.1,0.1-0.2,0.2-0.3
		c0.2,0.3,0.4,0.6,0.6,1C-586.2,488.5-586.3,488.5-586.4,488.4z"/>
	<path class="st45" d="M-583.6,497.8c-0.5-0.2-0.3-1.2-1.2-1c0,0.7,0.4,1.4-0.5,2.3s-0.6-0.5-0.9-0.8c-0.1,0.1-0.1,0.1-0.1,0.3
		c0.1-0.1,0.1-0.3,0-0.2c-0.1,0.3-0.2,0.6-0.4,0.9l-0.3,0.1c-0.5,0.8-0.3,1.4-0.8,2.2c1.4-3.1-0.9-3.8-2.3-4.9
		c-1.3-0.4-2.6-0.5-3.9-0.3c-0.2,0-0.4-0.4-0.5-0.6c-0.5-0.3-1.1-0.5-1.7-0.5c-1.1-0.4-1.2-1.6-2.1-2.4c-0.2-0.1,0.6-1.2,1.2-1
		c0.5,0,1,0.3,1.3,0.6c-0.3,0.2-0.3-0.1-0.6,0c0,0.3,0.1,0.7,0.4,0.9l-0.5-0.4c0.4,0.4,0.9,0.8,1.4,1.2c0.2,0.1-0.6,1.1,0.2,0.8
		c-0.1-0.9-0.4-1.7-0.9-2.4l0,0c-0.2-0.2-0.5-0.5-0.7-0.8c0.1,0,0.2,0.1,0.3,0.2c-0.1-0.5-0.3-1-0.6-1.5c1.9,0.2,2.3,2,3.6,2.7
		c0.2-0.7-0.8-0.5-0.4-1.3c0.4,0.5,0.8,1.1,1.1,1.7c-0.1,0-0.2,0-0.2,0c-0.1,0.6,0.5,0.7,0.7,1.1v0.1v-0.1c-0.1-0.4-0.3-0.7-0.5-1.1
		c0.2,0,0.4,0.2,0.4,0.4c0.1-0.2,0.1-0.4,0.1-0.7c-0.1-0.2-0.3-0.4-0.4-0.6c0.3,0.2,0.7,0.4,1,0.4c-0.1-0.5-0.3-0.9-0.6-1.3
		c0.2,0.2,0.4,0.3,0.6,0.5c0.2,0.4,0.4,0.8,0.6,1.2h-0.1c0,0,0.1,0,0.1,0.1c0.1,0.1,0.2,0.3,0.3,0.4c0.2,0.1,0.4,0.1,0.6,0.1
		c0,0,0,0,0.1,0.1c-0.1,0-0.2,0.1-0.2,0.2c0,0.5,0.7,0.5,0.7,1.1c0,0.2,0.1,0.3,0.3,0.3c0,0.1,0,0.1,0.1,0h0.1
		c0.1,0.1,0.2,0.1,0.3,0.1c-0.1-0.1-0.2-0.1-0.3-0.1c0,0-0.1,0-0.1-0.1c0.1-0.1,0.2-0.1,0.2-0.1c-0.3-0.6-0.7-1.1-1.2-1.6
		c0.1,0,0.2-0.1,0.3-0.1c-0.1,0-0.2,0-0.3,0c-0.2-0.2-0.3-0.3-0.5-0.4c0.1,0,0.2,0,0.4-0.1c-0.4-0.5-0.8-0.9-1.3-1.3
		c-0.2-0.5-0.5-1.1-0.8-1.6c-0.1,0.4,0,0.8,0.1,1.1c-0.7-0.5-1.3-1.2-1.6-2c0.5-0.1,0.9-0.3,1.3-0.5c0.2-0.2,0.1-0.5,0.3-0.4
		c1-0.1,0.7,0.7,2.1-0.1c0.4-0.2,1.1-1.7,1.5-1.8c0.3,0.1,0.6,0.2,0.8,0.4c0,0.1,0.1,0.2,0.2,0.3c0,0,0.1,0,0.2-0.1
		c0.3,0.2,0.5,0.4,0.6,0.7c0,0.1,0,0.2,0.1,0.2c-0.1,0.1-0.1,0.2-0.2,0.3c0.1,0,0.2-0.1,0.3-0.1c0.1,0.2,0.1,0.4,0.2,0.6
		c0,0.2-0.1,0.3-0.1,0.5c0.1-0.1,0.2-0.2,0.3-0.2c0.1,0.2,0.3,0.4,0.4,0.6c-0.1,0.2-0.1,0.4-0.3,0.6c0.8-0.4,0.8,0.4,1.2,0.7l0,0
		c0.1,0.2,0.3,0.3,0.4,0.5c0,0.1-0.1,0.2-0.2,0.3c0.1-0.1,0.2,0,0.3,0c0,0.2,0,0.4-0.1,0.7c0.1,0,0.3-0.2,0.4-0.1
		c0,0.1,0.1,0.2,0.2,0.2c0.1,0.1,0.1,0.2,0.2,0.4c0.2,0.4,0.3,0.9,0.3,1.3c-0.1,0.1-0.2,0.2-0.3,0.3c0.2-0.1,0.1,0.1,0.2,0.1
		c-0.1,0-0.1,0.1-0.1,0.1c0.3,0,0.1,0.2,0.1,0.4h0.2v0.1c-0.4,0.6-0.1,0.6,0.1,0.7c0,0.3,0,0.5,0,0.8
		C-583.2,497.2-583.5,497.5-583.6,497.8z"/>
	<path class="st45" d="M-585.5,491.2c0,0.2,0,0.5,0.1,0.7C-585.6,491.8-585.9,491.8-585.5,491.2z"/>
	<path class="st45" d="M-588.3,486.5c0.1-0.2,0.2-0.4,0.3-0.6c0.3,0.4,0.6,0.8,0.9,1.2l0,0C-587.5,486.9-587.5,486.1-588.3,486.5z"
		/>
	<path class="st45" d="M-585.7,490.7C-585.6,490.6-585.6,490.6-585.7,490.7L-585.7,490.7C-585.6,490.6-585.6,490.6-585.7,490.7z"/>
	<path class="st45" d="M-593.1,489.3L-593.1,489.3c0.1,0,0.2,0.1,0.3,0.1C-592.9,489.4-593,489.4-593.1,489.3z"/>
	<path class="st45" d="M-593.7,488c-0.2-0.2-0.4-0.3-0.6-0.5c-0.2-0.4-0.2-0.8-0.1-1.1C-594.2,486.9-594,487.5-593.7,488z"/>
	<path class="st45" d="M-588.7,485.5c0-0.2,0.1-0.3,0.1-0.5c0,0.1,0.1,0.2,0.2,0.3C-588.5,485.4-588.6,485.4-588.7,485.5z"/>
	<path class="st45" d="M-592.2,489.9C-592.2,489.8-592.2,489.8-592.2,489.9c0.1-0.1,0.2-0.1,0.3-0.1
		C-591.9,489.8-592.1,489.8-592.2,489.9z"/>
	<path class="st45" d="M-588.9,484.2c0,0.1,0.1,0.2,0.1,0.2c-0.1,0-0.2,0-0.3,0.1C-589,484.4-589,484.3-588.9,484.2z"/>
	<path class="st45" d="M-589.7,483.3c-0.1-0.1-0.1-0.2-0.2-0.3C-589.8,483.1-589.7,483.1-589.7,483.3
		C-589.7,483.3-589.8,483.4-589.7,483.3z"/>
	<path class="st44" d="M-658.7,404c0,0-17,50.2,30.1,71.5l1,0.6l-0.2-11.8c0,0-22.2-30.7-22.3-31.5C-650.2,432-658.7,404-658.7,404z
		"/>
	<path class="st45" d="M-656.5,379.5c-0.3,0-0.5-0.1-0.4-0.3C-656.8,379.1-656.7,379.2-656.5,379.5z"/>
	<path class="st44" d="M-662.3,380.8c-0.9,0.9-3,2.9-4.8,2.9c-0.7,0.1-1.4-0.3-1.8-0.8c-1.7-2.1-4.6-3.7-7.4-4.7
		c-0.9-0.3-1-0.8-0.7-1.3c0.6-0.8,1.4-1.4,2.2-1.9c4.3,0.1,7.2,0.8,8.1,1.7l0.1,0.1c1.2,0.6,2.4,1,3.7,1.3
		C-662.2,379.2-661.7,380.3-662.3,380.8z"/>
	<path class="st19" d="M-597,454.6c0,0-9.2,12.5-12.8,13c-3.5,0.5-36.2,8.4-47.4-29.5c-4.7-15.9-3.9-29.3,0.5-42.3
		c1-3.1,1.4-6.4,1.3-9.7c0-1.9-0.3-3.8-0.8-5.6c-0.1-0.4-0.2-0.7-0.4-1c0.6,0.1,1.3,0.1,1.9,0c1.9-0.1,4.2-0.3,4.2-0.3
		c1.5,1.4,2.8,3,3.7,4.8c3,5.5,3.9,11.8,2.5,17.9C-650.7,433.6-620.1,455.9-597,454.6z"/>
	<path class="st24" d="M-655.4,386.1c1.9-0.7,5.6-2.1,8.7-2.2c-1-1.8-2.2-3.4-3.7-4.8c0,0-2.3,0.2-4.2,0.3l-1.5,1L-655.4,386.1z"/>
	<path class="st19" d="M-662.7,373.9c0,0,5.4,3.1,8.1,0.7c2.7-2.4,4.3-2.6,5.5-0.7s2.8,8.8-4.5,8.5s-9.2,3.9-12.9-0.8
		C-670.1,376.9-668.4,372.2-662.7,373.9z"/>
	<path class="st22" d="M-656,351.6c0,0-15.6,8.5-10.9-5.2C-663.7,337-645.4,345.5-656,351.6z"/>
	<path class="st22" d="M-658.2,348.4c0,0,8.7,5.1,7.9,10.2c0,0,1.9-15.3-6.7-15.7c-8.6-0.4-12,0.4-11.2,16.6
		C-668.3,359.5-665.8,346.7-658.2,348.4z"/>
	<path class="st22" d="M-658.2,344.4c-9.5-11.7-23.6-9.4-21.6-29.4c2.1-20.7,21.3-26.4,36.2-20.9c27.9,10.3,26.7,34.8,36.9,54
		c13.3,18.4,20.6,17.6,20.6,17.6s-35.1,0.9-46.8-19.3C-644.7,326.3-665.3,330.5-658.2,344.4z"/>
	<path class="st42" d="M-631.7,546.1c-0.8-2.4-1.2-3.3-1.7-3.8c-0.5-0.4-1.1-0.6-1.6-0.8c-2-0.9,1.5-3.4,1.5-3.4s-4.3-2.3-4-3.4
		s3.8-1.4,6.2-2.3c1.1-0.4,2.8-4.1,4.4-8c1.8-4.5,3.4-9.4,3.5-9.6l0,0l11.7,8.1l-1.6,13.5c-1.8,0.3-3.6,0.7-5.4,1.3l0,0
		c-3.2,1.1-6.8,3-7.5,6.1C-627.6,549.6-630.3,550.1-631.7,546.1z"/>
</g>
</svg>
