<svg xmlns="http://www.w3.org/2000/svg" xmlns:xlink="http://www.w3.org/1999/xlink" width="463.161" height="439.013" viewBox="0 0 463.161 439.013"><defs><style>.a,.i{fill:none;}.b{clip-path:url(#a);}.c,.h{fill:#7fd1d8;}.d{fill:#243e41;}.d,.e,.f,.g,.h,.i,.j{fill-rule:evenodd;}.e{fill:#171f1c;}.f{fill:#c98121;}.g{fill:#fcb95d;}.i{stroke:#3e6569;stroke-miterlimit:10;stroke-width:14.434px;}.j{opacity:0.2;}</style><clipPath id="a"><rect class="a" width="463.161" height="439.013"/></clipPath></defs><g transform="translate(-1175.314 -395.213)"><g class="b" transform="translate(1175.314 395.213)"><path class="c" d="M1261.269,417.639a38.843,38.843,0,0,1-24.173-16.32l-.065-.153-3.837,1.644,29.923,68.97a18.594,18.594,0,0,0-14.289.313c-8.944,3.832-13.437,13.372-10.037,21.305s13.34,11.105,22.285,7.272c8.866-3.8,13.556-12.735,10.055-21.25l.246-.105.053.123-.01-.022-.012-.029-27.969-64.321c3.566,2.6,8.95,5.185,17.884,7.633,17.686,4.846,12.832,19.843,12.832,19.843C1280.676,434.649,1277.337,421.122,1261.269,417.639Z" transform="translate(-1169.072 -394.57)"/><path class="c" d="M1338.1,561.02l.007-.014.009-.02,19.356-43.943h0l.33-.749-33.649-9.9-2.26,5.226-14.877,33.856a10.443,10.443,0,0,0-5.588-5.765c-5-2.224-10.644-.43-12.616,4s.527,9.721,5.524,11.945c4.938,2.2,10.392.733,12.589-3.952l.011.005-.033.075a.15.15,0,0,1,.006-.022c0-.01.005-.02.01-.029l15.149-34.38,28.99,8.143-12.844,29.23a10.452,10.452,0,0,0-5.587-5.77c-5-2.221-10.644-.431-12.615,4s.434,9.93,5.431,12.152c4.937,2.2,10.489.513,12.5-3.742l.01.006Zm-14.887-46.275,1.029-2.337,28.9,8.338-.941,2.141Z" transform="translate(-1163.146 -383.222)"/><g transform="translate(51.773 156.254)"><path class="c" d="M1258.088,580.343c-2.518-.358-5.736.738-7.917,1.846-1.145.582-1.152.888-2.165.392-.938-.46-1.973-2.24-2.677-3.037q-2.669-3.026-5.34-6.051a26.936,26.936,0,0,0-9.538-35.828c-1.851-1.138-4.282-2.035-6.107-.855-1.365.882-1.868,2.625-2.088,4.234a27.868,27.868,0,0,0,2.511,15.05,53.392,53.392,0,0,0,8.562,12.8,2.826,2.826,0,0,1,.748,1.25,2.77,2.77,0,0,1-.313,1.541c-2.97,7.125-6.327,14.514-5.659,22.2a22.193,22.193,0,0,0,5.247,12.461,17.621,17.621,0,0,0,12.2,6.383,22.9,22.9,0,0,0,9.033-1.8,29.3,29.3,0,0,0,10.065-5.895c1.524,1.791,3,3.626,4.4,5.512,1.11,1.488,2.239,3,3.237,4.583.318.5.565,1.033.86,1.549a7.976,7.976,0,0,1,.62,3.614,8.586,8.586,0,0,1-.234,1.609,12.278,12.278,0,0,1-2.161,4.382,9.637,9.637,0,0,1-2.537,2.377,8.38,8.38,0,0,1-1.57.784l-.144.052a7.422,7.422,0,1,0-10.223,2.3l-.044.01c.191.123.386.213.578.321.075.04.146.088.224.124,6.4,3.4,13.619-1.107,13.619-1.107a10.925,10.925,0,0,0,2.5-1.922,12.636,12.636,0,0,0,3.489-5.825,12.269,12.269,0,0,0,.387-3.263,9.816,9.816,0,0,0-.347-2.675,11.54,11.54,0,0,0-1.774-3.259,84.922,84.922,0,0,0-5.429-6.742l-1.346-1.548-2.405-2.765-.122-.14s5.154-5.331,3.356-11.476C1269.6,591.534,1267.192,581.637,1258.088,580.343ZM1225,548.095a5.361,5.361,0,0,1,9.687-2.446s4.216,5.606,2.368,14.595a46.382,46.382,0,0,1-2.025,7.592l-2.348-2.644c-.172-.2-.522-.739-.684-.942a51.809,51.809,0,0,1-6.459-10.59A11.431,11.431,0,0,1,1225,548.095Zm21.362,61.158a14.744,14.744,0,0,1-9.783-6.2c-2.448-3.851-2.5-8.759-1.784-13.264a44.773,44.773,0,0,1,4.28-13.176l6.008,6.508a2.864,2.864,0,0,1,.921,1.581,3.209,3.209,0,0,1-.716,1.862,14.13,14.13,0,0,0-.206,14.048,9.709,9.709,0,0,0,3.736,4.048,5.119,5.119,0,0,0,5.3-.115c-.648.47-3.459-1.886-3.9-2.307a10.824,10.824,0,0,1-2.757-4.264,7.6,7.6,0,0,1,2.935-8.976c4.058,4.474,8.846,9.8,12.958,14.524l.061.07A18.887,18.887,0,0,1,1246.366,609.253Zm18.465-7.75-1.774-2.078c-.048-.059-.083-.123-.134-.181l-10.313-11.614c1.823-.916,7.269-2.878,12.336,3.021C1264.945,590.651,1268.894,595.011,1264.83,601.5Z" transform="translate(-1222.047 -536.255)"/></g><path class="d" d="M1356.522,612.109c6.522,8.527,8.317,5.192-2.321,16.506-4.791,7.345,6.585,7.451,14.669,11.334a15.439,15.439,0,0,1,4.58,3.124c4.01,3.462,12.01,4.2,19.609,5.319,16.168-1.942,20.094,10.891,19.629-5.319-.063-.21-.147-.422-.19-.634-3.968-13.7,18.764-1.139,14.121-13.319-10.617-4.811,13,.465,5.319-19.608-11.313-8.443,13.825-15.429-5.319-19.63-1.245-7.535-19.039-2.512-13.931-13.93-5.107-6.142-14.753-2.618-19.629-5.319-19.482-4.39-11.313,10.447-19.609,5.319-11-3.715-13.867,10.469-13.951,13.93C1353.187,596.68,1339.7,612.109,1356.522,612.109Z" transform="translate(-1156.647 -376.381)"/><path class="e" d="M1366.876,635.619a15.439,15.439,0,0,1,4.58,3.124c4.01,3.462,12.01,4.2,19.609,5.319,16.168-1.942,20.094,10.891,19.629-5.319-.063-.21-.147-.422-.19-.634-5.3-.992-10.155-2.926-10.152-7.112.009-18.9-22.39-21.036-22.39-21.036s-6.084,12.847-6.464,14.239C1371.308,624.918,1369.134,630.258,1366.876,635.619Z" transform="translate(-1154.654 -372.051)"/><path class="f" d="M1450.611,682.941s-50.011-.715-54.3-20-5-29.812,0-40.983-28.577,12.406-28.577,12.406,3.572,15,0,26.433-11.431,11.661-23.576,10.475,0,37.392,0,37.392,43.507,4.718,46.758,6.288,48.262.573,50.4,0S1450.611,682.941,1450.611,682.941Z" transform="translate(-1157.686 -371.081)"/><path class="g" d="M1382.758,594.078s-24.291-5.7-24.291,22.588,2.858,31.86,24.291,23.285S1407.049,595.36,1382.758,594.078Z" transform="translate(-1155.561 -373.815)"/><path class="h" d="M1308.272,859.693l-8.3,41.743-9.243,53.745-27.78,161.432,285.37,3.453-8.907-78.977-4.808-42.638-3.292-29.108-10.349-91.761-.771-6.8,8.71,37.57,128.161-37s-7.031-31.178-47.433-154.272c-14.946-45.569-74.74-82.257-153.544-56.875a206.439,206.439,0,0,0-22.511,8.746c-3.876,1.764-18.7,33.32-42.676,22.213-.51-.236-1.019-.472-1.516-.72-21.89-10.56-26.9-22.611-30.488-27.556,0-.012-.012-.024-.024-.037-.124-.15-.236-.3-.348-.448-2.523-3.181-8.659-6.547-17.058-9.4-15.132-5.156-37.644-8.933-57.061-6.672-9.865,1.13-18.934,3.813-25.842,8.659-19.331,13.579-37.246,37.606-48.191,70.43q-1.007,3-1.925,6.088c-.311.956-.622,1.925-.945,2.895-2.771,8.547-5.578,17.306-8.373,26.127-2.857,9.019-5.69,18.1-8.473,27.108-5.466,17.716-10.71,35.1-15.344,51.023a61.743,61.743,0,0,0,31.084,17.307C1277.214,872.117,1308.272,859.693,1308.272,859.693Z" transform="translate(-1175.315 -368.2)"/><path class="i" d="M1396.867,728.009l-28.043,56.822-62.707,9.112,45.375,44.23-10.712,62.453,56.087-29.486,56.086,29.486-10.712-62.453,45.375-44.23-62.707-9.112Z" transform="translate(-1161.207 -359.319)"/><path class="j" d="M1368.545,689.03c7.094,9.193,23.692,18.647,33.22,12.411,14.064-9.194,39.209-9.206,43.6-30.686,1.739-8.5-3.342-11.48-10.114-11.964a206.452,206.452,0,0,0-22.511,8.746c-3.876,1.764-18.7,33.32-42.676,22.213C1369.551,689.514,1369.041,689.278,1368.545,689.03Z" transform="translate(-1154.474 -366.784)"/><rect class="a" width="343.082" height="280.189" transform="translate(326.411 403.356) rotate(-180)"/></g></g></svg>