<svg xmlns="http://www.w3.org/2000/svg" width="718.292" height="223.046" viewBox="0 0 718.292 223.046"><defs><style>.a,.b,.c,.i{fill:#9c8679;}.a,.b,.i{stroke:#362e29;}.a,.b,.f,.g,.h,.i,.m{stroke-miterlimit:10;}.a{stroke-width:1.947px;}.b{stroke-width:1.879px;}.d,.o{fill:#362e29;}.e{fill:#ee4036;stroke-linejoin:round;}.f{fill:#e7e7e8;}.f,.h{stroke:#282829;stroke-width:2.658px;}.g,.m{fill:none;}.g{stroke:#030000;stroke-linecap:round;stroke-width:3.722px;}.h{fill:#58585a;}.i{stroke-width:1.994px;}.j{fill:#f8cb48;}.k{fill:#634f41;}.l{fill:#fefefe;}.m{stroke:#f7931e;}.n,.o{stroke:none;}</style></defs><g transform="translate(-2030.604 -5188.22)"><path class="a" d="M2112.419,5351.651a62.529,62.529,0,0,0-.693,11.093c.3,4.754.318,7.725.318,7.725s-1.8.991-1.8,2.179h17.63s1.225-5.15-2.458-6.14,0-9.9,0-9.9Z"/><path class="b" d="M2140.5,5351.651a28.126,28.126,0,0,1,4.8,10.5,23.885,23.885,0,0,1,.067,8.319s1.681.991,1.681,2.179h-16.424s-2.225-5.546,1.206-6.537-.594-9.706-.594-9.706Z"/><path class="a" d="M2110.2,5332.833a17.083,17.083,0,0,0-1.982,12.281c2.024,8.184,7.675,11.648,9.905,12.48,1.616.6,14.853,3.965,21.393-2.179,3.864-3.631,4.224-8.777,4.359-10.7.328-4.7-1.094-9.973-4.16-13.272C2133.92,5325.214,2121.08,5324.769,2110.2,5332.833Z"/><path class="c" d="M2049.122,5263.106c.308-24.852,15.932-42.8,19.809-47.013,4.613-5.011,15.78-16.817,34.071-20.865a58.885,58.885,0,0,1,15.318-1.32l.529,17.167a33.756,33.756,0,0,1,11.092-15.319c11.309-8.664,24.27-6.741,26.676-6.339q-4.225,11.49-8.452,22.979a24.136,24.136,0,0,1,7.4-8.716,24.831,24.831,0,0,1,15.846-4.49q-1.056,8.055-2.112,16.111a130.73,130.73,0,0,1,13.734,16.639c3.669,5.28,7.913,11.387,10.829,18.753,1.222,3.088,9.535,25.076-.793,47.276-5.249,11.283-13.152,17.973-18.752,22.714a67.355,67.355,0,0,1-20.6,12.678c-11.117,4.167-20.286,3.844-31.958,3.433-11.837-.416-21.508-.757-33.279-5.546-7.01-2.852-19.425-7.9-27.468-20.337-3.918-6.057-5.271-11.5-7.923-22.186C2051.021,5280.417,2049.008,5272.312,2049.122,5263.106Z"/><path class="d" d="M2131.271,5337.716c-3.048,0-6.192-.111-9.538-.229-13.048-.459-26.094-1.657-38.093-7.208a58.749,58.749,0,0,1-21.465-16.951c-5.684-7.244-7.579-15.637-9.764-24.435-2.022-8.146-4.887-17.377-3.741-25.849-.356-.1-.405-.58-.382-.95,1.776-27.863,19.91-54.028,46.121-64.168q1.212-.469,2.442-.892c6.42-2.208,12.969-3.114,19.675-3.909a22.379,22.379,0,0,1,2.729.04s.027,4.528-.08,6.33c-.07,1.172-.53,4.488.484,5.4,1.509,1.36,7.134-7.814,8.679-9.1,7.655-6.391,18.519-8.712,28.393-7.061l.823.137s-5.83,13.679-5.966,16.143a46.556,46.556,0,0,1,9.011-4.828,25.515,25.515,0,0,1,10.85-1.688l.742.044-2.165,16.516c4.951,5.1,10.325,9.867,14.381,15.7a99.15,99.15,0,0,1,10.095,19.677,62.587,62.587,0,0,1,.414,44.209c-4.171,11.658-13.614,22.091-23.42,29.417A66,66,0,0,1,2131.271,5337.716Zm-15.582-143.173a58.025,58.025,0,0,0-12.538,1.362c-18.451,4.083-29.538,16.125-33.711,20.658-5.8,6.307-19.339,23.469-19.625,46.552-.113,9.114,1.855,17.043,3.94,25.438,2.405,9.684,4.628,18.69,11.342,26.357,14.453,16.5,35.8,20.457,56.677,21.192,11.574.407,20.709.728,31.7-3.39,12.856-4.819,24.88-14.684,33.071-25.62,11.948-15.952,13.962-37.733,6.673-56.144-2.887-7.293-7.066-13.306-10.754-18.612a130.285,130.285,0,0,0-13.66-16.551l-.235-.241,2.058-15.695a23.925,23.925,0,0,0-14.656,4.393,23.476,23.476,0,0,0-7.182,8.465l-1.269-.551,8.158-22.18c-4.3-.585-15.514-1.175-25.31,6.33a28.138,28.138,0,0,0-6.773,7.978c-.747,1.238-5.155,10.291-5.155,10.291s-.422-8.094-.459-9.3q-.164-5.352-.329-10.7Q2116.667,5194.544,2115.689,5194.543Z"/><path class="a" d="M2061.275,5303.246c-7.647-2.858-16.979-7.837-23.756-16.467-.662-.815-1.287-1.666-1.873-2.537-2.253-3.388-5.3-8.045-3.691-12.417,1.684-4.581,7.495-6.171,10.032-6.871,7.931-2.177,14.915.738,17.7,2.12.075,1.59.132,3.18.208,4.77Q2060.574,5287.544,2061.275,5303.246Z"/><path class="a" d="M2215.522,5271.125a78.583,78.583,0,0,1-6.606,8.1,63.319,63.319,0,0,1-19.288,14.518,92.7,92.7,0,0,0-1.325-26.405c-.568-2.915-1.25-5.641-1.969-8.177a94.985,94.985,0,0,0-3.577-10.051c9.634-6.436,20.991-7.174,28.525-1.855,1.116.795,6.738,4.94,7.665,11.887C2219.534,5263.553,2218,5267.414,2215.522,5271.125Z"/><g class="e"><path class="n" d="M 2060.17626953125 5301.71630859375 C 2056.3544921875 5300.1884765625 2052.8134765625 5298.37451171875 2049.631591796875 5296.31201171875 C 2045.368896484375 5293.548828125 2041.72021484375 5290.31787109375 2038.776245117188 5286.7001953125 C 2040.430053710938 5284.06884765625 2042.44580078125 5281.7314453125 2044.77587890625 5279.74560546875 C 2048.7578125 5276.3466796875 2053.509033203125 5274.1015625 2058.9140625 5273.0625 C 2059.130859375 5278.04833984375 2059.3544921875 5283.09521484375 2059.5712890625 5287.9873046875 C 2059.7705078125 5292.48779296875 2059.97607421875 5297.12548828125 2060.17626953125 5301.71630859375 Z"/><path class="o" d="M 2059.07568359375 5300.14501953125 C 2058.89794921875 5296.0859375 2058.717041015625 5292.00537109375 2058.541259765625 5288.03271484375 C 2058.342041015625 5283.53759765625 2058.136962890625 5278.91162109375 2057.936767578125 5274.322265625 C 2053.19287109375 5275.41357421875 2048.9990234375 5277.49658203125 2045.444702148438 5280.5302734375 C 2043.380493164062 5282.28955078125 2041.5712890625 5284.33544921875 2040.052612304688 5286.62451171875 C 2042.8427734375 5289.9267578125 2046.247802734375 5292.89013671875 2050.1923828125 5295.44677734375 C 2052.90283203125 5297.20361328125 2055.880859375 5298.7783203125 2059.07568359375 5300.14501953125 M 2061.27490234375 5303.24609375 C 2053.6279296875 5300.38818359375 2044.296020507812 5295.4091796875 2037.51904296875 5286.77880859375 C 2039.034057617188 5284.2421875 2041.154052734375 5281.47802734375 2044.107055664062 5278.9609375 C 2049.406982421875 5274.43701171875 2055.237060546875 5272.58203125 2059.89306640625 5271.84423828125 C 2060.346923828125 5282.31103515625 2060.820068359375 5292.77880859375 2061.27490234375 5303.24609375 Z"/></g><g class="e"><path class="n" d="M 2190.8076171875 5291.9833984375 C 2191.41455078125 5283.63134765625 2190.91357421875 5275.28271484375 2189.314697265625 5267.14013671875 C 2188.87451171875 5264.88134765625 2188.34228515625 5262.603515625 2187.69580078125 5260.21484375 C 2192.635986328125 5260.37451171875 2197.412841796875 5261.40185546875 2201.913818359375 5263.27490234375 C 2206.447509765625 5265.1513671875 2210.569091796875 5267.8349609375 2214.178466796875 5271.25927734375 C 2212.5009765625 5273.63720703125 2210.450439453125 5275.94580078125 2208.290771484375 5278.37744140625 L 2208.14501953125 5278.54150390625 C 2203.3125 5283.93896484375 2197.4853515625 5288.4560546875 2190.8076171875 5291.9833984375 Z"/><path class="o" d="M 2189.052001953125 5261.31396484375 C 2189.545654296875 5263.23486328125 2189.966552734375 5265.0947265625 2190.326416015625 5266.94140625 C 2191.8232421875 5274.564453125 2192.36865234375 5282.365234375 2191.953857421875 5290.1826171875 C 2197.8447265625 5286.8544921875 2203.0205078125 5282.71875 2207.37646484375 5277.85400390625 L 2207.52001953125 5277.69287109375 C 2209.43603515625 5275.53515625 2211.265380859375 5273.4755859375 2212.80810546875 5271.39453125 C 2209.451416015625 5268.34912109375 2205.661376953125 5265.94189453125 2201.517578125 5264.22705078125 C 2197.555908203125 5262.578125 2193.37353515625 5261.6015625 2189.052001953125 5261.31396484375 M 2186.333984375 5259.162109375 C 2190.876953125 5259.162109375 2196.44189453125 5259.880859375 2202.31005859375 5262.3232421875 C 2208.02587890625 5264.68896484375 2212.342041015625 5267.98193359375 2215.52197265625 5271.125 C 2213.68603515625 5273.869140625 2211.320068359375 5276.51904296875 2208.916015625 5279.22607421875 C 2205.35693359375 5283.201171875 2199.205078125 5289.01220703125 2189.6279296875 5293.744140625 C 2190.251953125 5286.98583984375 2190.365966796875 5277.84423828125 2188.302978515625 5267.3388671875 C 2187.735107421875 5264.423828125 2187.052978515625 5261.6982421875 2186.333984375 5259.162109375 Z"/></g><path class="f" d="M2121.093,5264.492a124.1,124.1,0,0,0-24.562,10.3c-11.322,6.253-16.983,9.38-19.215,15.649-3.638,10.218,3.619,22.723,11.489,29.317,8.846,7.412,18.789,7.625,32.685,7.923,18.172.39,34.25.736,45.164-11.092a36.351,36.351,0,0,0,9.112-29.119,37.191,37.191,0,0,0-11.886-22.186,44.014,44.014,0,0,1-13.272,11.291,44.835,44.835,0,0,1-24.562,5.348,22,22,0,0,0,9.112-15.054,60.565,60.565,0,0,1-17.828,11.093Z"/><path class="g" d="M2095.441,5289.749a19.038,19.038,0,0,1,8.023-2.674,14.5,14.5,0,0,1,8.419,1.287,12.162,12.162,0,0,1,1.584.991"/><path class="g" d="M2143.935,5289.749a19.043,19.043,0,0,1,8.023-2.674,14.5,14.5,0,0,1,8.419,1.287,12.145,12.145,0,0,1,1.584.991"/><path class="h" d="M2109.406,5301.832c0-1.647,3.033-2.53,4.239-2.882a28.723,28.723,0,0,1,6.242-.887q6.861-.435,13.737-.528c3.15-.043,6.3-.028,9.449-.063,1.708-.019,1.813.72,1.764,2.215a26.1,26.1,0,0,1-.529,4.432,24.8,24.8,0,0,1-5.228,11.039,11.677,11.677,0,0,1-8.379,4.3C2118.024,5319.957,2109.418,5307.5,2109.406,5301.832Z"/><path class="i" d="M2107.918,5338.255s-4.058,1.709-4.058.124,11.093-12.083,11.687-14.46-11.093-8.32-13.272-6.537-9.9,16.045-7.923,22.186,9.275,5.824,13.434,2.853Z"/><path class="a" d="M2143.383,5337.587s3.4,1.584,3.4,0-10.577-12.084-11.143-14.461,10.576-8.319,12.654-6.536,9.443,16.045,7.554,22.185-7.962,5.849-11.928,2.878Z"/><path class="d" d="M2063.937,5307.694c-1.857-3.2-.967-7.053-1.221-10.669-.262-3.722-.529-7.444-.776-11.167-.529-7.962-2.4-16.133-.974-24.023.278-1.54-.527-2.042-.807-.493-1.522,8.431-1.182,16.944-.6,25.449.277,4.083.514,8.175.861,12.254a22.5,22.5,0,0,0,2.563,9.653C2063.77,5310.06,2064.729,5309.06,2063.937,5307.694Z"/><path class="d" d="M2181.219,5245.652c-.559-1.129-1.126-.481-.568.646,7.951,16.051,9.735,34.648,7.12,52.373-.182,1.233,1.062.893,1.246-.35C2191.714,5280.034,2189.426,5262.22,2181.219,5245.652Z"/><path class="j" d="M2716.687,5254.2a41.15,41.15,0,0,0-1.857,5.567c-.692,3.188.977,4.67,4.022,3.5,2.053-.789,4-1.846,5.989-2.812a10.445,10.445,0,0,1,5.656-1.287c.108.238.217.475.325.713.494.73-.168,1.236-.412,1.769-2.521,5.515-5.828,10.614-8.514,16.042a26.339,26.339,0,0,0-3.176,10.5c-.172,3.671,2.048,6.225,3.963,8.889,3.666,5.1,6.595,10.508,7.71,16.763.127.714.163,1.444.277,2.5-1.482-.721-2.759-1.247-3.941-1.935-3.127-1.819-6.556-2.9-9.89-4.22a22.769,22.769,0,0,0-9.6-1.241c-1.648.072-2.49,1.014-2.5,2.766a10.254,10.254,0,0,0,2.344,6.087,69.224,69.224,0,0,0,8.665,9.28c3.453,3.312,6.888,6.636,10.13,10.164.767.834.184,1.214-.094,1.643a57.242,57.242,0,0,1-12.939,14.462c-1.1.852-1.494,1.538-.96,3.024a29.955,29.955,0,0,1,1.725,11.227,8.915,8.915,0,0,1-.562,2.88,3.541,3.541,0,0,1-3.012,2.626c-1.582.156-2.035-1.132-2.651-2.169-3.549-5.976-8.1-10.924-14.392-14.1-3.467-1.75-6.96-1.132-10.568-.364a62.422,62.422,0,0,1-31.128-1.469c-8.68-2.572-16.435-6.8-22.617-13.541a39.106,39.106,0,0,1-10.27-22.807c-1.388-12.874,2.929-24.094,10.352-34.184,4.3-5.848,6.37-12.43,8.482-19.164,2.675-8.533,3.637-17.421,5.89-26.028a14.787,14.787,0,0,1,2.03-4.91c1.1-1.565,2.21-1.489,2.968.248,1.163,2.667,1.412,5.566,1.9,8.4.352,2.046.508,4.125.847,6.174.459,2.777,4.165,5.5,6.961,5.25a2.815,2.815,0,0,0,1.668-1.029c7.416-6.675,13.966-14.157,20.439-21.722a238.95,238.95,0,0,1,18.038-19.431,22.377,22.377,0,0,1,5.437-4.06c.726-.351,1.5-.854,2.216-.262.657.539.366,1.424.167,2.09a62.824,62.824,0,0,1-4.51,10.673c-3.588,7-7.4,13.9-10.138,21.291-1.063,2.874-1.994,5.854-1.627,9.061a5.322,5.322,0,0,0,5.287,5.108c2.99.16,5.269-1.359,7.4-3.206,3.206-2.781,5.69-6.233,8.617-9.274a25.638,25.638,0,0,1,4.021-3.5,5,5,0,0,1,4.708-.567c.409.084.78.217.9.684C2721.01,5245.413,2718.367,5249.682,2716.687,5254.2Zm-38.309,70.262c3.614.057,8.613-3.487,8.46-8.577a8.6,8.6,0,0,0-8.651-8.6,8.323,8.323,0,0,0-8.442,8.544C2669.36,5321.2,2674.3,5324.4,2678.378,5324.46Zm-41.444.271c5.763-.4,9.213-3.735,9.311-8.684a8.343,8.343,0,0,0-8.355-8.724,8.646,8.646,0,0,0-8.715,8.611C2629.169,5319.988,2633.466,5324.971,2636.934,5324.731Zm25.506,15a9.807,9.807,0,0,0,1.272-1.056,1.059,1.059,0,0,0,.168-1.619c-.456-.535-.987-.366-1.484-.033-.712.477-1.393,1-2.126,1.447a19.667,19.667,0,0,1-8.533,2.664,5.543,5.543,0,0,0-.916.077c-.713.192-1.808.024-1.672,1.225.12,1.064,1.041,1.035,1.862,1.018A24.276,24.276,0,0,0,2662.44,5339.727Z"/><path class="k" d="M2731.814,5262.539a23.854,23.854,0,0,1-2.869,6.949c-2.19,4.052-4.536,8.02-6.344,12.272-1.922,4.521-2.409,8.875,1.165,12.9a11.97,11.97,0,0,1,1.01,1.539,41.317,41.317,0,0,1,6.573,19.338,2.212,2.212,0,0,0,1.214,2.054,28.616,28.616,0,0,1,6.659,5.207c4.143,4.2,7.787,8.741,9.2,14.637.883,3.679.722,7.214-2.154,10.131l-.264-.263c2.076-3.026,1.859-6.3.811-9.541-3.389-10.467-9.707-18.277-20.3-22.232-5.01-1.87-9.977-3.829-15.311-4.578-1.556-.218-3.414-.775-4.433.771-.964,1.462.138,2.933.982,4.229a53.866,53.866,0,0,0,8.359,9.528,126.518,126.518,0,0,1,12.539,13.2c1.868,2.368,4.015,4.439,5.984,6.69.2.23.436.433.654.648,2.894,2.855,6.051,4.421,10.012,2.044.047.055.094.11.139.166-3.285,2.654-6.237,2.752-9.5.211a21.676,21.676,0,0,1-2.941-2.777c-1.948-2.215-3.809-4.507-5.8-6.878a57.578,57.578,0,0,1-12.558,16.112c-.756.66-.412,1.323-.241,2.006a23.808,23.808,0,0,1,.165,12.557c-.622,2.17-1.718,3.941-4.224,4.337-2.458.388-4.1-.839-5.471-2.656-1.446-1.909-2.887-3.823-4.358-5.712a20.784,20.784,0,0,0-5.788-4.956c-.225,3.35-.36,6.423-1.523,9.316a7.951,7.951,0,0,1-4.795,5.021,1.163,1.163,0,0,1-1.311-.179,6.762,6.762,0,0,0,4.332-5.346,44.49,44.49,0,0,0,.881-9.125,2.3,2.3,0,0,0-1.234-2.027c-2.571-1.887-5.108-1.563-7.959-.617-4.528,1.5-4.61,1.358-2.6,5.643.939,2,1.6,4.1,2.339,6.18.757,2.137,1.641,4.166,3.782,5.309-1.779.637-2.878-.351-3.8-1.645a14.656,14.656,0,0,1-1.7-4.063,31.109,31.109,0,0,0-3.591-7.709c-.493.59-.877,1.056-1.268,1.516-3.3,3.892-6.537,7.884-11.119,10.369-4.03,2.186-6.675.576-6.876-4.024a39.639,39.639,0,0,1,.575-7.158c.252-1.833-.243-2.5-2.128-2.834-10.679-1.9-20.082-6.368-27.679-14.29a45.614,45.614,0,0,1-6.494-8.826c-.56.862-1.011,1.506-1.41,2.182a24.509,24.509,0,0,1-3.905,5.342c-2.072,2-4.548,2.482-6.608,1.322,2.969.215,4.942-1.486,6.66-3.563,1.368-1.653,2.525-3.467,3.726-5.248a3.077,3.077,0,0,0,.126-3.409,37.873,37.873,0,0,1-3.556-14.205c-.125-1.695-.341-3.387-.371-5.1-.007-.407-.074-.982-.338-1.178-.428-.319-.721.265-1.032.507-3.809,2.965-6.091,7.033-7.9,11.359a31.011,31.011,0,0,0-2.68,12.678,8.95,8.95,0,0,0,3.712,7.53c-2.242-.328-3.355-1.981-4.219-3.781a14.045,14.045,0,0,1-.567-9.915,37.847,37.847,0,0,1,11.6-18.862,4.515,4.515,0,0,0,1.688-3.045,62.215,62.215,0,0,1,12.778-30.551,7.946,7.946,0,0,0,1.4-2.95c2.479-9.7,4.86-19.408,6.686-29.256.728-3.923,1.855-7.779,4.353-11.04,1.1-1.431,2.487-2.491,4.392-2.17,1.946.328,2.963,1.772,3.587,3.539a35.438,35.438,0,0,1,1.95,10.09,8.914,8.914,0,0,0,3.672,6.69c1.177.98,1.887.829,2.824-.347,7.277-9.13,15.009-17.875,22.691-26.661,5.012-5.732,10.051-11.454,16.026-16.239a14.831,14.831,0,0,1,5.434-3.028c2.447-.643,4.153.646,4.151,3.188a14.416,14.416,0,0,1-1.19,5.174c-1.845,4.762-4.263,9.252-6.5,13.831-3.386,6.938-7.264,13.675-8.764,21.4-.286,1.471-.412,2.868.76,3.919,1.284,1.15,2.844,1.007,4.343.394a13.766,13.766,0,0,0,4.717-3.463c2.913-3.076,5.758-6.217,8.7-9.265a10.581,10.581,0,0,1,5.713-3.516c1.6-.273,3.249-.332,4.354,1.269a5,5,0,0,0-4.708.567,25.638,25.638,0,0,0-4.021,3.5c-2.927,3.041-5.411,6.493-8.617,9.274-2.131,1.847-4.41,3.366-7.4,3.206a5.322,5.322,0,0,1-5.287-5.108c-.367-3.207.564-6.187,1.627-9.061,2.734-7.392,6.55-14.291,10.138-21.291a62.824,62.824,0,0,0,4.51-10.673c.2-.666.49-1.551-.167-2.09-.721-.592-1.49-.089-2.216.262a22.377,22.377,0,0,0-5.437,4.06,238.95,238.95,0,0,0-18.038,19.431c-6.473,7.565-13.023,15.047-20.439,21.722a2.815,2.815,0,0,1-1.668,1.029c-2.8.246-6.5-2.473-6.961-5.25-.339-2.049-.5-4.128-.847-6.174-.486-2.83-.735-5.729-1.9-8.4-.758-1.737-1.863-1.813-2.968-.248a14.787,14.787,0,0,0-2.03,4.91c-2.253,8.607-3.215,17.5-5.89,26.028-2.112,6.734-4.179,13.316-8.482,19.164-7.423,10.09-11.74,21.31-10.352,34.184a39.106,39.106,0,0,0,10.27,22.807c6.182,6.74,13.937,10.969,22.617,13.541a62.422,62.422,0,0,0,31.128,1.469c3.608-.768,7.1-1.386,10.568.364,6.289,3.175,10.843,8.123,14.392,14.1.616,1.037,1.069,2.325,2.651,2.169a3.541,3.541,0,0,0,3.012-2.626,8.915,8.915,0,0,0,.562-2.88,29.955,29.955,0,0,0-1.725-11.227c-.534-1.486-.144-2.172.96-3.024a57.242,57.242,0,0,0,12.939-14.462c.278-.429.861-.809.094-1.643-3.242-3.528-6.677-6.852-10.13-10.164a69.224,69.224,0,0,1-8.665-9.28,10.254,10.254,0,0,1-2.344-6.087c.014-1.752.856-2.694,2.5-2.766a22.769,22.769,0,0,1,9.6,1.241c3.334,1.323,6.763,2.4,9.89,4.22,1.182.688,2.459,1.214,3.941,1.935-.114-1.053-.15-1.783-.277-2.5-1.115-6.255-4.044-11.663-7.71-16.763-1.915-2.664-4.135-5.218-3.963-8.889a26.339,26.339,0,0,1,3.176-10.5c2.686-5.428,5.993-10.527,8.514-16.042.244-.533.906-1.039.412-1.769A2.261,2.261,0,0,1,2731.814,5262.539ZM2667.4,5360.2c-1.652-.09-3.3-.178-4.956-.3-.757-.053-1.309.11-1.52.944a56.571,56.571,0,0,0-1.585,8.851c-.094,1.059-.239,2.376.957,2.964,1.049.515,2.024-.2,2.889-.76a50.494,50.494,0,0,0,10.19-9.426,10.967,10.967,0,0,0,2.191-2.9A56.006,56.006,0,0,1,2667.4,5360.2Z"/><path class="j" d="M2610.628,5344.828c2.969.215,4.942-1.486,6.66-3.563,1.368-1.653,2.525-3.467,3.726-5.248a3.077,3.077,0,0,0,.126-3.409,37.873,37.873,0,0,1-3.556-14.205c-.125-1.695-.341-3.387-.371-5.1-.007-.407-.074-.982-.338-1.178-.428-.319-.721.265-1.032.507-3.809,2.965-6.091,7.033-7.9,11.359a31.011,31.011,0,0,0-2.68,12.678,8.95,8.95,0,0,0,3.712,7.53C2609.472,5344.557,2609.94,5344.984,2610.628,5344.828Z"/><path class="j" d="M2687.092,5374.629a6.762,6.762,0,0,0,4.332-5.346,44.49,44.49,0,0,0,.881-9.125,2.3,2.3,0,0,0-1.234-2.027c-2.571-1.887-5.108-1.563-7.959-.617-4.528,1.5-4.61,1.358-2.6,5.643.939,2,1.6,4.1,2.339,6.18.757,2.137,1.641,4.166,3.782,5.309Z"/><path class="k" d="M2720.455,5240.288c.555,5.125-2.088,9.394-3.768,13.91a41.15,41.15,0,0,0-1.857,5.567c-.692,3.188.977,4.67,4.022,3.5,2.053-.789,4-1.846,5.989-2.812a10.445,10.445,0,0,1,5.656-1.287c.1-1.246-.969-1.077-1.625-1.2a7.731,7.731,0,0,0-4.806.929c-2.212,1.057-4.354,2.26-6.552,3.35-.412.2-.763.981-1.4.335-.545-.554-.027-1.067.153-1.506,1.327-3.234,2.918-6.355,4.031-9.682.84-2.513,1.68-5.024,1.495-7.716C2721.708,5242.432,2721.712,5241.093,2720.455,5240.288Z"/><path class="k" d="M2745.44,5348.227l.829-.666-.264-.263a.989.989,0,0,0-.7.763C2745.348,5348.116,2745.4,5348.171,2745.44,5348.227Z"/><path class="l" d="M2678.187,5307.282a8.6,8.6,0,0,1,8.651,8.6c.153,5.09-4.846,8.634-8.46,8.577-4.079-.065-9.018-3.263-8.633-8.634A8.323,8.323,0,0,1,2678.187,5307.282Zm4.868,8.292a5.955,5.955,0,1,0-5.863,6.006A5.8,5.8,0,0,0,2683.055,5315.574Z"/><path class="l" d="M2637.89,5307.323a8.343,8.343,0,0,1,8.355,8.724c-.1,4.949-3.548,8.285-9.311,8.684-3.468.24-7.765-4.743-7.759-8.8A8.646,8.646,0,0,1,2637.89,5307.323Zm4.65,8.169a5.9,5.9,0,0,0-6.12-5.8,5.982,5.982,0,0,0-5.8,6.127,5.892,5.892,0,0,0,6.143,5.758A5.79,5.79,0,0,0,2642.54,5315.492Z"/><path class="k" d="M2651.01,5343.447a24.234,24.234,0,0,0,11.43-3.72,9.807,9.807,0,0,0,1.272-1.056,1.059,1.059,0,0,0,.168-1.619c-.456-.535-.987-.366-1.484-.033-.712.477-1.393,1-2.126,1.447a19.667,19.667,0,0,1-8.533,2.664,5.543,5.543,0,0,0-.916.077c-.713.192-1.808.024-1.672,1.225C2649.269,5343.5,2650.19,5343.467,2651.01,5343.447Z"/><path class="j" d="M2745.3,5348.061a.989.989,0,0,1,.7-.763c2.076-3.026,1.859-6.3.811-9.541-3.389-10.467-9.707-18.277-20.3-22.232-5.01-1.87-9.977-3.829-15.311-4.578-1.556-.218-3.414-.775-4.433.771-.964,1.462.138,2.933.982,4.229a53.866,53.866,0,0,0,8.359,9.528,126.518,126.518,0,0,1,12.539,13.2c1.868,2.368,4.015,4.439,5.984,6.69.2.23.436.433.654.648C2738.183,5348.872,2741.34,5350.438,2745.3,5348.061Z"/><path class="j" d="M2675.564,5359.578a56.006,56.006,0,0,1-8.166.621c-1.652-.09-3.3-.178-4.956-.3-.757-.053-1.309.11-1.52.944a56.571,56.571,0,0,0-1.585,8.851c-.094,1.059-.239,2.376.957,2.964,1.049.515,2.024-.2,2.889-.76a50.494,50.494,0,0,0,10.19-9.426A10.967,10.967,0,0,0,2675.564,5359.578Z"/><path class="k" d="M2677.192,5321.58a5.8,5.8,0,0,0,5.863-6.006,5.955,5.955,0,1,0-5.863,6.006Z"/><path class="k" d="M2636.764,5321.58a5.79,5.79,0,0,0,5.776-6.088,5.9,5.9,0,0,0-6.12-5.8,5.982,5.982,0,0,0-5.8,6.127A5.892,5.892,0,0,0,2636.764,5321.58Z"/><path class="m" d="M2084.228,5410.506c55.381,1.765,125.1-6.043,166.141-14.706l-35.745.094,98.126-6.67L2249,5363.454l84.374-2.136-30-8.231,176.379-.478-15.892,3.758,56.02,7.381-44.847,24.345,71.629,7.1-29.524,5.266,181.841,5.359"/></g></svg>