<svg xmlns="http://www.w3.org/2000/svg" width="412.204" height="306.921" viewBox="0 0 412.204 306.921">
    <defs>
        <style>
            .a,.b{fill:#bc1e2d;}.b{stroke:#333;stroke-miterlimit:10;stroke-width:0.856px;}.c{fill:#999;}.d{fill:#e3e4e5;}.e{fill:#1a1a1a;}.f{fill:#333;}
        </style>
    </defs>
    <g transform="translate(-2582.155 -1328.934)">
        <path class="a"
              d="M2963.4,1481.454l-1.458-.377a5.029,5.029,0,0,0-2.6.271,22.01,22.01,0,0,1,.547,2.837,12.767,12.767,0,0,1,.8,1.77,3.327,3.327,0,0,1-1.026,1.468,8.421,8.421,0,0,1-1.811,1.308q-1,.539-1.336.36a.723.723,0,0,1-.193-.146,6.155,6.155,0,0,1-.722-2.671,17.025,17.025,0,0,0-.861-3.746,7.156,7.156,0,0,1-.688-1.769,6.24,6.24,0,0,1,1.133-2.34,14.237,14.237,0,0,1,1.957-2.573.856.856,0,0,1,1.134-.2,4.705,4.705,0,0,0,1.2.624l2.762.128a17.57,17.57,0,0,1,5.079,1.063,4.254,4.254,0,0,1-.38,2.149,5.385,5.385,0,0,1-1.137,1.987,1.135,1.135,0,0,1-1.193.252A10.188,10.188,0,0,0,2963.4,1481.454Z"/>
        <path class="a"
              d="M2993.567,1489.826q-3.174-.506-17.332,2.485-13.365,2.843-14.483,3.575a1.208,1.208,0,0,0-.6.351,6.25,6.25,0,0,1-.6.465,2.361,2.361,0,0,1-1.334.275,1.223,1.223,0,0,1-1-.421,6.5,6.5,0,0,1-.651-2.627,5.166,5.166,0,0,1,.142-2.748,1.578,1.578,0,0,1,.81-.8q2.3-.647,14.844-3.312,14.043-2.994,18.032-3.369a5.521,5.521,0,0,1,1-.4,2.288,2.288,0,0,1,1.593.577,2.136,2.136,0,0,1,.246.317,7.172,7.172,0,0,1,.055,2.78q-.189,2.409-.595,2.793A.159.159,0,0,1,2993.567,1489.826Z"/>
        <path class="a"
              d="M2989.381,1509.807a14.355,14.355,0,0,1-2.672,1.822,7,7,0,0,1-2.369,1.038,11.442,11.442,0,0,1-1.729-.779,16.366,16.366,0,0,0-3.725-1.083,6.312,6.312,0,0,1-2.6-.829.551.551,0,0,1-.136-.2q-.16-.342.415-1.329a7.9,7.9,0,0,1,1.386-1.756,3.054,3.054,0,0,1,1.548-.919q.17-.053.85.4a3.483,3.483,0,0,0,.876.489q.645.1,2.8.693a5.354,5.354,0,0,0,.435-2.613q-.178-.711-.329-1.448-.026-.141-.336-1.222a1.128,1.128,0,0,1,.286-1.206,5.416,5.416,0,0,1,2.045-1.034,4.038,4.038,0,0,1,2.192-.238,16.882,16.882,0,0,1,.771,5.1q.019,1.412.012,2.794a4.728,4.728,0,0,0,.561,1.228A.855.855,0,0,1,2989.381,1509.807Z"/>
        <path class="a"
              d="M2711,1368.022a4.1,4.1,0,0,1,.324,2.691,2.51,2.51,0,0,1-1.521,1.909q-.858.345-5.12-.277t-4.711-1.43a4.426,4.426,0,0,1-.3-1.039,4.35,4.35,0,0,0-.279-.986l-10.436-21.884q-.57-1.2-3.164-.6-2.9.618-3.79-.3a3.55,3.55,0,0,1-.73-.995,5.385,5.385,0,0,1-.146-3.256,30.552,30.552,0,0,0,.559-3.656l-.688-4.661a3.472,3.472,0,0,1,1.981-3.758,9.534,9.534,0,0,1,5.127-.782q3.222.32,4.141,2.246l16.474,34.545a3.016,3.016,0,0,0,1.128,1.092A3.089,3.089,0,0,1,2711,1368.022Z"/>
        <path class="a"
              d="M2667.274,1634.14a3.164,3.164,0,0,1-1.481,1.478,1.938,1.938,0,0,1-1.884-.015,11.629,11.629,0,0,1-2.27-3.243q-1.653-2.886-1.374-3.545a3.485,3.485,0,0,1,.486-.679,3.348,3.348,0,0,0,.467-.639l8.331-16.763q.456-.918-1.141-2.21-1.759-1.472-1.621-2.448a2.742,2.742,0,0,1,.257-.917,4.157,4.157,0,0,1,1.91-1.639,23.744,23.744,0,0,0,2.488-1.4l2.505-2.637a2.68,2.68,0,0,1,3.227-.586,7.353,7.353,0,0,1,2.917,2.744q1.341,2.11.607,3.586l-13.151,26.463a2.338,2.338,0,0,0-.126,1.206A2.381,2.381,0,0,1,2667.274,1634.14Z"/>
        <path class="a"
              d="M2894.594,1634.14a3.167,3.167,0,0,1-1.482,1.478,1.938,1.938,0,0,1-1.884-.015,11.624,11.624,0,0,1-2.27-3.243q-1.652-2.886-1.374-3.545a3.455,3.455,0,0,1,.487-.679,3.392,3.392,0,0,0,.467-.639l8.33-16.763q.456-.918-1.141-2.21-1.758-1.472-1.621-2.448a2.742,2.742,0,0,1,.257-.917,4.163,4.163,0,0,1,1.91-1.639,23.62,23.62,0,0,0,2.488-1.4l2.505-2.637a2.681,2.681,0,0,1,3.228-.586,7.349,7.349,0,0,1,2.916,2.744q1.341,2.11.607,3.586l-13.15,26.463a2.334,2.334,0,0,0-.127,1.206A2.392,2.392,0,0,1,2894.594,1634.14Z"/>
        <path class="a"
              d="M2603.733,1509.258a1.67,1.67,0,0,1,.627.91,1.027,1.027,0,0,1-.187.978,6.145,6.145,0,0,1-1.9.871q-1.656.584-1.973.376a1.793,1.793,0,0,1-.306-.317,1.82,1.82,0,0,0-.287-.3l-7.918-5.924q-.434-.326-1.257.382-.933.774-1.427.609a1.456,1.456,0,0,1-.452-.22,2.2,2.2,0,0,1-.67-1.149,12.515,12.515,0,0,0-.491-1.426l-1.132-1.553a1.416,1.416,0,0,1,0-1.733,3.885,3.885,0,0,1,1.7-1.254,1.9,1.9,0,0,1,1.921.026l12.5,9.352a1.229,1.229,0,0,0,.615.181A1.258,1.258,0,0,1,2603.733,1509.258Z"/>
        <path class="a"
              d="M2616.4,1491.4a1.667,1.667,0,0,1,.627.911,1.019,1.019,0,0,1-.187.977,6.129,6.129,0,0,1-1.9.871q-1.657.585-1.973.377a1.819,1.819,0,0,1-.306-.318,1.85,1.85,0,0,0-.288-.3l-7.918-5.925q-.434-.324-1.257.383-.931.774-1.426.609a1.432,1.432,0,0,1-.452-.221,2.19,2.19,0,0,1-.67-1.148,12.38,12.38,0,0,0-.492-1.426l-1.132-1.553a1.416,1.416,0,0,1,0-1.733,3.889,3.889,0,0,1,1.7-1.255,1.907,1.907,0,0,1,1.922.026l12.5,9.353a1.236,1.236,0,0,0,.615.181A1.257,1.257,0,0,1,2616.4,1491.4Z"/>
        <path class="a"
              d="M2598.829,1490.77q.759-.555,2.429.181a14.333,14.333,0,0,1,3.367,2.295,20.424,20.424,0,0,1,3.671,4.227q2.222,3.408.829,5a2.583,2.583,0,0,1-.669.51q-.744.4-.807.44-.487.244-1.562.849-.856.495-3.014-.594a20.18,20.18,0,0,1-4.137-2.867,16.941,16.941,0,0,1-3.2-3.568q-1.245-1.933-.769-3.134a.609.609,0,0,1,.085-.125.649.649,0,0,1,.294-.166c.138-.045.219-.1.241-.163a3.433,3.433,0,0,1,.6-.969,5.932,5.932,0,0,1,1.272-1.029Q2598.69,1490.873,2598.829,1490.77Zm-.65,2.566q-.591.678.6,2.389a16.5,16.5,0,0,0,2.606,2.8,19.188,19.188,0,0,0,3.052,2.144q1.755,1.009,2,.728.48-.55-.933-2.407a24.661,24.661,0,0,0-3.268-3.377,18.321,18.321,0,0,0-2.546-1.926Q2598.487,1492.984,2598.179,1493.336Z"/>
        <path class="a"
              d="M2585.963,1507.392q.734-.589,2.435.071a14.329,14.329,0,0,1,3.468,2.14,20.435,20.435,0,0,1,3.86,4.055q2.373,3.3,1.055,4.96a2.6,2.6,0,0,1-.645.539q-.726.429-.786.476-.477.267-1.523.919-.832.536-3.037-.455a20.218,20.218,0,0,1-4.263-2.677,16.986,16.986,0,0,1-3.361-3.418q-1.332-1.875-.91-3.1a.527.527,0,0,1,.365-.308c.136-.051.214-.108.233-.173a3.434,3.434,0,0,1,.554-1,5.9,5.9,0,0,1,1.223-1.085Q2585.829,1507.5,2585.963,1507.392Zm-.532,2.594q-.561.7.707,2.359a16.54,16.54,0,0,0,2.73,2.677,19.211,19.211,0,0,0,3.146,2q1.8.93,2.032.636.456-.571-1.041-2.362a24.743,24.743,0,0,0-3.418-3.225,18.378,18.378,0,0,0-2.631-1.808Q2585.723,1509.619,2585.431,1509.986Z"/>
        <path class="a"
              d="M2937.615,1353.816q1.712,1.668.57,6.163a36.459,36.459,0,0,1-4.331,9.409,51.886,51.886,0,0,1-9.044,10.983q-7.605,7.005-12.187,4.188a6.632,6.632,0,0,1-1.56-1.462q-1.3-1.7-1.442-1.837-.821-1.121-2.787-3.557-1.6-1.937.215-7.8a51.352,51.352,0,0,1,5.441-11.577,43.126,43.126,0,0,1,7.591-9.529q4.32-3.937,7.53-3.25a1.6,1.6,0,0,1,.35.158,1.668,1.668,0,0,1,.54.668q.255.492.508.536a8.715,8.715,0,0,1,2.683,1.09,15.023,15.023,0,0,1,3.114,2.753Q2937.3,1353.511,2937.615,1353.816Zm-6.706-.546q-1.947-1.2-5.735,2.51a41.928,41.928,0,0,0-5.914,7.71,48.714,48.714,0,0,0-4.085,8.554q-1.791,4.824-.98,5.322,1.582.972,5.638-3.353a62.919,62.919,0,0,0,7.085-9.616,46.742,46.742,0,0,0,3.752-7.194Q2931.921,1353.894,2930.909,1353.27Z"/>
        <path class="b"
              d="M2898.311,1517.822a56.68,56.68,0,0,1-14.623,18.566,13.1,13.1,0,0,0-4.231,5.667c-2.226,6.478-5.744,12.943-10.825,16.68-6.428,4.728-10.4,12.13-17.9,15.405-1.058.462-2.033,1.87-3.134,1.3-1.686-.871-.021-2.415-.209-3.654-.065-.426-.132-.852-.284-1.834a75.563,75.563,0,0,1-26.868,11.376c4.3,3.459,4.44,9.54,10.007,11.209.313.094.756.878.649,1.074-1.341,2.457-1.8,5.426-3.873,7.431-1.909,1.845-4.122,1.126-6.165.087-1.268-.644-2.44-1.477-3.927-2.393-1.207,2.458-.284,4.811.128,6.974,1.054,5.54,1.02,11.328,3.613,16.541,1.219,2.45-.6,3.383-2.377,3.866-2.167.59-4.557,1.374-6.658,1-5.654-1.013-11.248.018-16.859-.152-3.146-.095-4.641-.887-4.305-4.875a96.707,96.707,0,0,0-.587-18.037c-.394-3.777-1.959-4.119-4.766-1.744-4.315,3.65-6.424,2.888-9.416-1.693-2.16-3.306-2.691-4.821.808-7.719,2.5-2.074,3.289-6.222,5.009-9.793-9.365-.964-18.1-3.371-26.88-6.156.206,5.934,5.268,5.964,8.759,8-6.375,2.262-14.843.41-18.732-5.478-3.666-5.551-9.937-7.09-14.171-11.475a1.459,1.459,0,0,0-2.048-.075c-2.17,1.923-2.151,1.947-4.256.179-8.4-7.055-14.723-15.412-16.426-26.589a7.123,7.123,0,0,0-3.655-4.736c-7.956-4.784-11.927-12.812-17.076-19.892,2.678-1.056,3.476,1.23,4.426,2.739a67.11,67.11,0,0,0,7.392,9.082c1.685,1.863,2.705,1.546,3.289-.733,1.745-6.806,1.321-13.473-2.545-19.417-2.549-3.918-5.215-7.779-6.94-12.085-2.182-5.444-6.189-8.745-11.23-11.115-1.7-.8-3.858-2.47-5.293-1.221-1.345,1.171.761,3.174,1.009,4.887.63,4.353,4.412,8.019,2.8,12.859-4.525-8.177-6.689-17.194-9.155-26.088-.771-2.783.758-3.874,3.533-3.35,12.161,2.3,22.473,7.549,29.367,18.3a2.078,2.078,0,0,0,.254.374c1.462,1.435,2.5,4.3,4.618,3.774,2.093-.52,1.053-3.348,1.211-5.139.747-8.51,1.838-16.894,5.235-24.88,2.459-5.781,6.684-10.206,10.433-15.025,1.548-1.988,2.824-4.193,4.421-6.137,3.07-3.739,7.08-6.392,10.94-9.237,10.34-7.622,21.046-14.674,31.9-21.54,16.445-10.4,24.515-25.708,25.18-45.034.087-2.533.012-5.072.012-8.667,7.741,7.22,11.405,16.015,15.6,25.581.32-2.575.516-4.148.729-5.86,2.179.713,1.97,2.486,2.527,3.744,3.806,8.587,6.808,17.725,12.806,25.007,4.47,5.426,9.033,10.987,15.218,14.9,6.038,3.821,9.725,10.009,14.215,15.405,9.726,11.69,16.181,25.152,22,39,1.4,3.34,2.441,6.833,3.826,10.765a37.139,37.139,0,0,1,16.928-12.325c3.651-1.289,7.472-2.107,11.237-3.056,3.3-.831,3.778.3,2.932,3.5a229.521,229.521,0,0,1-10.481,30.154c-3.516.592-1.5-1.541-1.144-2.54,2.372-6.6,4.841-13.159,7.525-20.4-7.039,2.14-13.328,4.239-16.436,10.818-2.516,5.326-5.822,10.153-8.67,15.256-3.816,6.838-3.884,14.127-1.122,21.794a70.482,70.482,0,0,0,9.375-11.031C2895.713,1518.893,2895.961,1516.524,2898.311,1517.822Zm-164.353,22.019-.579,1.181a13.834,13.834,0,0,0,.39,2.178c2.959,8.56,8.475,14.6,16.446,19.212,11.509,6.661,24.028,10.478,36.734,12.7a74.529,74.529,0,0,0,30.038-1.377c15.544-3.761,29.156-10.59,37.1-25.5.968-1.818,2.252-3.612,1.931-6.255-3.232,1.893-4.766,5.108-7.818,6.512-.663.3-1.238,1.085-1.986.665-.976-.55-.775-1.592-.385-2.392,2.226-4.571,2.6-9.588,2.963-14.465.541-7.325-.2-14.991-5.854-20.145-9.446-8.617-21.439-12.106-34.055-14.715,1.963,4.341,6.174,5.931,8.245,9.437.5.848,1.655,1.675.991,2.752-.765,1.243-1.967.271-2.855,0-19.024-5.723-38.051-11.44-57-17.389-1.563-.491-1.876-.442-2.65.781a79.24,79.24,0,0,0-8.692,17.292c-3.255,9.77-1.369,19.414.587,28.955,1,4.883,5.189,6.883,10.309,6.9C2748.057,1551.269,2740.424,1548.05,2733.958,1539.841Zm59.977,60.261c-.041,4.827,3.116,8.131,7.793,8.157,4.858.026,10.959-3.6,11.06-6.576.263-7.679-4.08-13.079-10.549-13.118C2796.559,1588.531,2794,1592.081,2793.935,1600.1Zm11.622,19.982c-.322-2.888,1.245-5.591.822-8.392-.131-.866-.149-2.615-1.959-2.488-2.04.143-1.423,1.743-1.195,2.7C2803.872,1614.632,2803.744,1617.568,2805.557,1620.084Z"/>
        <path class="c"
              d="M2679.945,1501.876c1.61-4.84-2.172-8.506-2.8-12.859-.248-1.713-2.354-3.716-1.009-4.887,1.435-1.249,3.591.421,5.293,1.221,5.041,2.37,9.048,5.671,11.23,11.115,1.725,4.306,4.391,8.167,6.94,12.085,3.866,5.944,4.29,12.611,2.545,19.417-.584,2.279-1.6,2.6-3.289.733a67.11,67.11,0,0,1-7.392-9.082c-.95-1.509-1.748-3.8-4.426-2.739C2684.48,1511.97,2680.382,1507.788,2679.945,1501.876Z"/>
        <path class="c"
              d="M2898.311,1517.822c-2.35-1.3-2.6,1.071-3.348,2.111a70.482,70.482,0,0,1-9.375,11.031c-2.762-7.667-2.694-14.956,1.122-21.794,2.848-5.1,6.154-9.93,8.67-15.256,3.108-6.579,9.4-8.678,16.436-10.818-2.684,7.238-5.153,13.8-7.525,20.4-.359,1-2.372,3.132,1.144,2.54-.544,4.129-3.545,6.8-5.853,9.885-.491-.3-.969-.484-1.435.059a1.056,1.056,0,0,0,.13,1.728Z"/>
        <path class="a"
              d="M2898.277,1517.7a1.056,1.056,0,0,1-.13-1.728c.466-.543.944-.355,1.435-.059C2899.121,1516.495,2899.515,1517.7,2898.277,1517.7Z"/>
        <path class="d"
              d="M2733.958,1539.841c6.466,8.209,14.1,11.428,23.856,6.327-5.12-.013-9.308-2.013-10.309-6.9-1.956-9.541-3.842-19.185-.587-28.955a79.24,79.24,0,0,1,8.692-17.292c.774-1.223,1.087-1.272,2.65-.781,18.954,5.949,37.981,11.666,57,17.389.888.267,2.09,1.239,2.855,0,.664-1.077-.49-1.9-.991-2.752-2.071-3.506-6.282-5.1-8.245-9.437,12.616,2.609,24.609,6.1,34.055,14.715,5.65,5.154,6.4,12.82,5.854,20.145-.361,4.877-.737,9.894-2.963,14.465-.39.8-.591,1.842.385,2.392.748.42,1.323-.361,1.986-.665,3.052-1.4,4.586-4.619,7.818-6.512.321,2.643-.963,4.437-1.931,6.255-7.945,14.913-21.557,21.742-37.1,25.5a74.529,74.529,0,0,1-30.038,1.377c-12.706-2.225-25.225-6.042-36.734-12.7-7.971-4.614-13.487-10.652-16.446-19.212a13.834,13.834,0,0,1-.39-2.178Zm44.8-6.314a2.339,2.339,0,0,0,2.448-2.076,2.418,2.418,0,0,0-2.241-2.87,75.254,75.254,0,0,0-8.983-.9c-2.276-.05-4.543-5.8-6.845-.083a3.045,3.045,0,0,1-.8-.363c-1.024-.894-2.347-1.442-3.105-.142-.91,1.562.82,3.012.928,4.658.095,1.454,1.4,1.97,2.7,1.7C2767.979,1532.4,2773.073,1532.69,2778.763,1533.527Zm46.178-6.747a12.853,12.853,0,0,0-7.148,1.291,2.739,2.739,0,0,0-1.6,3.357,2.078,2.078,0,0,0,2.789,1.6c4.582-1.931,9.082-1.017,13.675-.121,2.276.444,5.882-4.926,4.93-7.031-.476-1.052-1.665-1.382-2.159-.742-1.28,1.658-2.066,2.16-3.278-.046a1.292,1.292,0,0,0-2.26.183C2828.8,1527.527,2826.928,1526.727,2824.941,1526.78Zm-10.644,24.1c-6.651,5.5-14.7,5.216-22.715,5.066C2800.056,1557.992,2808,1557.834,2814.3,1550.882Z"/>
        <path class="d"
              d="M2793.935,1600.1c.068-8.021,2.624-11.571,8.3-11.537,6.469.039,10.812,5.439,10.549,13.118-.1,2.975-6.2,6.6-11.06,6.576C2797.051,1608.233,2793.894,1604.929,2793.935,1600.1Z"/>
        <path class="d"
              d="M2805.557,1620.084c-1.813-2.516-1.685-5.452-2.332-8.178-.228-.959-.845-2.559,1.195-2.7,1.81-.127,1.828,1.622,1.959,2.488C2806.8,1614.493,2805.235,1617.2,2805.557,1620.084Z"/>
        <path class="e"
              d="M2778.763,1533.527c-5.69-.837-10.784-1.131-15.9-.078-1.308.27-2.609-.246-2.7-1.7-.108-1.646-1.838-3.1-.928-4.658.758-1.3,2.081-.752,3.105.142a3.045,3.045,0,0,0,.8.363c2.3-5.718,4.569.033,6.845.083a75.254,75.254,0,0,1,8.983.9,2.418,2.418,0,0,1,2.241,2.87A2.339,2.339,0,0,1,2778.763,1533.527Z"/>
        <path class="e"
              d="M2824.941,1526.78c1.987-.053,3.864.747,4.949-1.51a1.292,1.292,0,0,1,2.26-.183c1.212,2.206,2,1.7,3.278.046.494-.64,1.683-.31,2.159.742.952,2.1-2.654,7.475-4.93,7.031-4.593-.9-9.093-1.81-13.675.121a2.078,2.078,0,0,1-2.789-1.6,2.739,2.739,0,0,1,1.6-3.357A12.853,12.853,0,0,1,2824.941,1526.78Z"/>
        <path class="f"
              d="M2814.3,1550.882c-6.3,6.952-14.241,7.11-22.715,5.066C2799.6,1556.1,2807.646,1556.378,2814.3,1550.882Z"/>
    </g>
</svg>
