<svg xmlns="http://www.w3.org/2000/svg" width="402" height="307.287" viewBox="0 0 402 307.287"><defs><style>.a,.e{fill:#b6d7db;}.a{opacity:0.49;}.b{fill:red;}.c{fill:#272525;}.d{fill:#fff;}</style></defs><g transform="translate(-518.188 -382.97)"><path class="a" d="M915.674,575.177c16.3-59.614-12.708-131.187-68.448-163.741-2.894-1.69-65.014-36.852-115.478-11.565C697.163,417.2,698.2,447.82,664.33,457.113c-33.671,9.237-48.152-17.328-81.4-8.81-33.042,8.465-57.442,44.62-63.292,77.17C508.386,588.088,565.93,636.528,578.253,646.9c63.821,53.721,145.308,42.486,166.485,39.567C772.682,682.614,890.743,666.337,915.674,575.177Z" transform="translate(0 0.808)"/><g transform="translate(596.918 478.999)"><g transform="translate(132.597 114.664)"><path d="M735.141,596.332c-3.067-16.14-20.239-22.476-20.239-22.476s-5.293,4.906-5.254,7.318c20.051,12.761,6.718,30.231,11.763,35.057C728.482,622.992,737.059,606.455,735.141,596.332Zm-9.99,16.433c-2.474-.206,1.427-14.029-1.209-20.17a27.039,27.039,0,0,0-11.353-12.459l2.461-2.9C739.2,588.526,731.666,613.309,725.15,612.765Z" transform="translate(-709.648 -573.856)"/><path class="b" d="M714.774,576.919l-2.46,2.9a27.041,27.041,0,0,1,11.353,12.458c2.635,6.141-1.267,19.965,1.209,20.17C731.389,612.991,738.926,588.208,714.774,576.919Z" transform="translate(-709.371 -573.538)"/></g><g transform="translate(137.989 102.57)"><path d="M744.724,570.278c-11.965-11.254-29.582-6.286-29.582-6.286s-1.4,7.082.051,9.01c23.72-1.465,23.2,20.508,30.115,21.446C755.008,595.76,752.228,577.336,744.724,570.278Zm1.577,19.169c-2.121,1.286-7.092-12.188-12.838-15.608a27.026,27.026,0,0,0-16.506-3.4l.288-3.792C743.421,561.577,751.893,586.058,746.3,589.447Z" transform="translate(-714.533 -562.899)"/><path class="b" d="M717.02,566.358l-.288,3.79a27.026,27.026,0,0,1,16.506,3.405c5.746,3.419,10.715,16.893,12.838,15.607C751.665,585.771,743.193,561.289,717.02,566.358Z" transform="translate(-714.305 -562.612)"/></g><g transform="translate(77.648 114.659)"><path d="M685.634,581.171c.039-2.416-5.258-7.319-5.258-7.319s-17.173,6.337-20.236,22.474c-1.922,10.122,6.658,26.659,13.732,19.9C678.914,611.4,665.58,593.928,685.634,581.171ZM671.343,592.59c-2.636,6.141,1.265,19.96-1.208,20.167-6.518.547-14.055-24.235,10.1-35.524l2.464,2.9A26.986,26.986,0,0,0,671.343,592.59Z" transform="translate(-659.865 -573.852)"/><path class="b" d="M679.875,576.915l2.462,2.9a26.976,26.976,0,0,0-11.351,12.458c-2.636,6.141,1.265,19.962-1.209,20.167C663.258,612.988,655.72,588.2,679.875,576.915Z" transform="translate(-659.508 -573.534)"/></g><g transform="translate(61.027 102.567)"><path d="M681.194,563.989s-17.618-4.968-29.583,6.289c-7.5,7.059-10.284,25.479-.585,24.165,6.914-.939,6.4-22.911,30.118-21.445C682.6,571.068,681.194,563.989,681.194,563.989Zm-18.323,9.844c-5.745,3.418-10.712,16.892-12.835,15.606-5.593-3.386,2.878-27.866,29.05-22.8l.29,3.791A27.021,27.021,0,0,0,662.871,573.833Z" transform="translate(-644.807 -562.897)"/><path class="b" d="M678.749,566.351l.29,3.791a27.021,27.021,0,0,0-16.506,3.4c-5.745,3.418-10.712,16.892-12.835,15.606C644.107,585.766,652.577,561.287,678.749,566.351Z" transform="translate(-644.469 -562.61)"/></g><path class="b" d="M670.376,546.907c-.014,0-.029,0-.042.006-11.219,1.795-19.061-2.684-22.186-6.893l-.01-.017a10.246,10.246,0,0,1-.671-1.022c-.047-.084-.076-.163-.12-.247a8,8,0,0,1-.363-.76c-.059-.151-.085-.293-.128-.438-.051-.172-.118-.349-.15-.514a3.718,3.718,0,0,1-.066-.875,4.1,4.1,0,0,1,.413-1.512,1.874,1.874,0,0,1,.8-1.23c9.221-6.426,13.514-18.129,10.3-28.606-1.766-5.765-15.2-17.377-19.189-13.723-1.979,1.813,3.135,6.1,2.132,10.3-.826,3.465-4.723,6.419-2.507,10.084,1.555,2.566.412,9.34-3.136,11.509a1.591,1.591,0,0,1-.981.315c-.011.008-.017.017-.026.023s-.024-.021-.041-.028a.491.491,0,0,1-.241-.162c-1.21-.871-.161-3.425-.912-5.145-2.224-5.1-7.042-3.723-8.276-8.967-1.191-5.054,4.538-11.864-.646-15.414-1.7-1.167-3.495-1.3-4.472-3.4-2.173-4.662,1.966-9.316-3.377-13.1-4.018-2.849-8.092-1.63-12.1.826-19.542,11.985-8.453,53.484,18.3,59.867,3.849.918,8.582.526,12.508.233,11.295,21.9,29.967,17.352,37.985,13.426a2.715,2.715,0,0,1,.381-.152A18.2,18.2,0,0,1,670.376,546.907Z" transform="translate(-589.001 -469.404)"/><path class="c" d="M672.125,544.857l-2.2.713c-12.565.163-16.247-5-18.837-9.176a66.145,66.145,0,0,0,9.012-10.447c4.428-6.982,3.849-19.155-.52-25.893-9.779-15.09-31.844-19.039-22.345-3.288,4.226,7.007-4.772,9.433-.459,16.59.645,1.071-.015,3-.8,4.932-.327-5.547-6.013-5.3-6.088-11.017-.042-3.258,5.254-12.061-2.064-15.137-8.17-3.436-1.981-10.359-4.573-15.873-2.019-4.294-7.046-6.886-10.741-6.17-19.306,3.747-25.484,24.25-22.134,40.574,3.193,15.561,16.079,35.733,43.652,33.043,7.83,20.009,34.036,17.484,42.077,9.565l1.4-1.13Zm1.576,7.151c-8.018,3.926-26.69,8.476-37.985-13.426-3.926.294-8.659.684-12.508-.234-26.756-6.382-37.844-47.881-18.3-59.866,4.005-2.454,8.08-3.674,12.1-.826,5.342,3.787,1.2,8.44,3.376,13.1.978,2.1,2.77,2.236,4.472,3.4,5.183,3.551-.545,10.361.646,15.415,1.234,5.244,6.052,3.861,8.276,8.966.748,1.72-.3,4.274.912,5.146a.489.489,0,0,0,.241.161c.016.008.023.021.041.029a.274.274,0,0,1,.026-.023,1.6,1.6,0,0,0,.981-.315c3.548-2.17,4.691-8.943,3.136-11.51-2.216-3.664,1.681-6.619,2.507-10.083,1-4.2-4.111-8.492-2.132-10.3,3.986-3.655,17.423,7.958,19.189,13.723,3.213,10.477-1.081,22.18-10.3,28.606a1.875,1.875,0,0,0-.8,1.23,4.083,4.083,0,0,0-.413,1.512,3.726,3.726,0,0,0,.066.875c.032.164.1.342.15.514.043.146.07.286.128.437a7.482,7.482,0,0,0,.363.761c.044.083.073.163.12.248a9.857,9.857,0,0,0,.671,1.022c0,.006,0,.011.01.015,3.13,4.2,10.969,8.689,22.186,6.894.013,0,.028,0,.042-.006a18.3,18.3,0,0,0,3.188,4.381h0A2.563,2.563,0,0,0,673.7,552.008Z" transform="translate(-589.517 -469.972)"/><g transform="translate(147.499 0.003)"><path class="b" d="M795.2,477.915c-4.006-2.454-8.077-3.677-12.095-.828-5.34,3.789-1.208,8.442-3.377,13.1-.98,2.1-2.773,2.236-4.475,3.4-5.18,3.551.546,10.361-.645,15.415-1.233,5.244-6.05,3.861-8.274,8.966-.748,1.711.283,4.246-.891,5.134a.473.473,0,0,1-.264.177c-.016.008-.022.021-.039.029a.258.258,0,0,0-.026-.023,1.608,1.608,0,0,1-.98-.315c-3.544-2.169-4.69-8.943-3.135-11.51,2.216-3.662-1.68-6.618-2.508-10.081-1-4.206,4.115-8.492,2.134-10.307-3.988-3.653-17.423,7.959-19.19,13.723-3.1,10.117,1.272,22.026,9.878,28.621a1.579,1.579,0,0,1,.922.7c.619.429.745.869.578,1.233a3.636,3.636,0,0,1,.14.794,3.731,3.731,0,0,1-.066.876,5.344,5.344,0,0,1-.167.567c-.041.13-.062.255-.115.391a7.866,7.866,0,0,1-.407.848c-.03.056-.045.109-.08.163-2.552,4.489-10.83,9.948-23.1,7.89a34.821,34.821,0,0,1-3.2,4.264c8.146,3.908,27.374,8.577,38.573-13.134,3.923.294,8.657.688,12.508-.232C803.651,531.4,814.74,489.9,795.2,477.915Z" transform="translate(-722.872 -469.408)"/><path class="c" d="M787.867,470.093c-3.7-.716-8.724,1.875-10.739,6.168-2.593,5.514,3.6,12.437-4.575,15.874-7.32,3.077-2.023,11.88-2.065,15.138-.076,5.715-5.764,5.469-6.091,11.017-.777-1.93-1.439-3.86-.795-4.932,4.315-7.158-4.683-9.582-.458-16.59,9.5-15.751-12.565-11.8-22.343,3.288-4.37,6.738-4.95,18.913-.523,25.894a53.114,53.114,0,0,0,9.215,10.116c-2.6,4.227-6.139,9.671-19.035,9.5-1.913-1.081-3.137-1.775-3.137-1.775l-4.172,7.905,1.122,1.568c8.039,7.919,34.249,10.444,42.078-9.565,27.57,2.692,40.456-17.48,43.651-33.041C813.353,494.343,807.173,473.84,787.867,470.093ZM777.174,538.35c-3.851.918-8.585.525-12.508.232-11.2,21.711-30.427,17.041-38.573,13.133a34.748,34.748,0,0,0,3.2-4.264h0c12.273,2.06,20.549-3.4,23.1-7.889.034-.054.05-.109.08-.163a7.113,7.113,0,0,0,.407-.849c.053-.135.074-.258.115-.39a5.576,5.576,0,0,0,.167-.567,3.74,3.74,0,0,0,.066-.876,3.635,3.635,0,0,0-.14-.795c.167-.363.039-.8-.578-1.233a1.583,1.583,0,0,0-.922-.7c-8.606-6.595-12.979-18.5-9.878-28.619,1.767-5.764,15.2-17.378,19.189-13.724,1.982,1.816-3.131,6.1-2.132,10.307.828,3.463,4.722,6.418,2.508,10.082-1.555,2.566-.409,9.34,3.135,11.51a1.6,1.6,0,0,0,.98.315c.011.007.016.016.026.022s.025-.021.039-.028a.476.476,0,0,0,.264-.178c1.173-.887.142-3.422.891-5.132,2.224-5.106,7.041-3.723,8.274-8.967,1.191-5.054-4.535-11.864.645-15.414,1.7-1.167,3.495-1.3,4.475-3.4,2.169-4.664-1.964-9.316,3.377-13.1,4.018-2.85,8.087-1.629,12.095.827C815.016,490.466,803.928,531.964,777.174,538.35Z" transform="translate(-723.149 -469.975)"/></g><g transform="translate(82.063 7.761)"><path d="M681.332,502.558c7.444-3.692,11.854-14.9,2.881-22.854-10.08-8.93-25.658,6.222-18.55,17.314,3.063,4.783,6.849,6.716,10.487,6.762,1.432,8.113,6.07,18.92,13.2,23.314l2.794-4.533C686.534,519.1,682.49,509.528,681.332,502.558Zm-12.167-10.282c-2.756-13.5,15.263-15.276,16.594-1.749a8.262,8.262,0,0,1-1.236,5.459,7.856,7.856,0,0,1-4.7,3.709l-3.166.14A9.489,9.489,0,0,1,669.165,492.277Z" transform="translate(-663.865 -477.003)"/><path class="d" d="M685.288,490.13a8.262,8.262,0,0,1-1.236,5.459c-4.332,7.169-13.809,3.863-15.358-3.71C665.938,478.382,683.957,476.605,685.288,490.13Z" transform="translate(-663.393 -476.607)"/><circle cx="4.81" cy="4.81" r="4.81" transform="translate(8.748 3.969)"/></g><g transform="translate(122.27 7.755)"><path d="M725.664,483.41c-12.177-17.615-33.259,5.307-17.938,17.949.205.171.417.317.627.468-4.708,6.281-8.871,15.262-7.925,22.6l5.281-.681c-.791-6.128,3.464-14.574,7.862-19.958C722.759,504.48,731.819,492.314,725.664,483.41Zm-1.949,8.223c-.009.151-.024.3-.039.448-.023.22-.051.432-.088.641-.024.14-.051.279-.081.416-.045.205-.1.4-.16.6-.036.123-.072.25-.114.369-.073.205-.155.4-.241.595-.043.1-.083.2-.128.294-.118.241-.252.469-.388.691-.025.036-.044.078-.068.116a7.614,7.614,0,0,1-.555.743c-.025.028-.051.051-.076.08a6.974,6.974,0,0,1-.547.563c-.055.052-.115.1-.172.147-.169.146-.339.286-.52.416-.067.047-.136.091-.2.138-.179.121-.362.236-.55.34-.071.039-.139.075-.211.11-.2.1-.4.2-.606.281l-.193.077c-.229.086-.462.161-.7.227-.044.013-.091.029-.134.039a8.512,8.512,0,0,1-8.743-2.914c-.034-.039-.064-.083-.095-.122-.183-.231-.358-.471-.524-.726-.054-.084-.107-.172-.16-.258-.135-.223-.263-.455-.386-.7-.056-.11-.11-.225-.167-.339-.109-.237-.209-.481-.3-.734-.05-.128-.1-.257-.146-.389-.092-.27-.171-.553-.248-.841-.033-.125-.07-.246-.1-.374-.1-.422-.183-.86-.245-1.318a8.27,8.27,0,0,1,1.051-5.5c4.077-7.317,13.664-4.342,15.475,3.172.109.45.188.884.252,1.309.021.142.03.276.043.413.032.277.06.553.074.82.008.158.005.309.005.462C723.729,491.17,723.729,491.4,723.715,491.633Z" transform="translate(-700.293 -476.998)"/><path class="d" d="M723.044,489.316c-.015-.139-.024-.273-.044-.413-.062-.424-.142-.859-.251-1.309-1.81-7.514-11.4-10.489-15.475-3.172a8.257,8.257,0,0,0-1.051,5.5c.062.458.146.9.244,1.318.03.129.067.249.1.374.077.288.157.571.247.841.046.134.1.26.146.389.095.253.2.5.3.734.052.114.108.228.167.339.121.243.252.475.386.7.053.088.106.177.16.258.167.255.341.5.523.726.032.04.062.083.095.122a8.51,8.51,0,0,0,8.743,2.914c.044-.012.089-.028.133-.039.235-.066.469-.141.7-.227.065-.025.129-.053.193-.077q.31-.129.607-.281l.211-.11c.188-.106.372-.22.55-.34.068-.045.137-.089.2-.138.181-.13.352-.27.52-.416.056-.05.116-.095.172-.147a7.587,7.587,0,0,0,.549-.563c.026-.029.051-.052.075-.08a7.256,7.256,0,0,0,.555-.743c.025-.038.044-.08.068-.116.138-.222.269-.45.388-.691.045-.095.086-.194.128-.294.086-.193.169-.39.241-.595.043-.119.077-.246.115-.369.057-.2.113-.4.16-.6.03-.137.056-.276.081-.416.036-.21.065-.424.087-.641.017-.148.032-.3.039-.448.014-.228.017-.462.014-.7,0-.152,0-.3-.006-.461C723.1,489.871,723.074,489.595,723.044,489.316Z" transform="translate(-699.687 -476.664)"/><circle cx="4.808" cy="4.808" r="4.808" transform="translate(10.112 3.118)"/></g><g transform="translate(77.895 51.238)"><path class="b" d="M699.7,519.971c13.723-.063,31.467,5.138,33.427,12.711,1.693,6.524-1.355,12.356-4.944,17.521-6.114,8.8-7.87,20.892-12.62,29.681-3.211,5.946-9.742,8.693-15.862,8.451-6.119.247-12.653-2.506-15.863-8.451C679.1,571.094,676.516,559,670.4,550.2c-3.587-5.165-6.637-11-4.947-17.521C667.419,525.109,685.979,519.908,699.7,519.971Z" transform="translate(-659.582 -516.022)"/><path class="c" d="M734.83,523.882c-7.938-5.5-21.228-7.489-34.531-7.489h-.179c-13.3,0-26.593,1.99-34.533,7.489-7.785,5.391-6.861,16.723,0,25.457,7.583,9.648,11.742,34.126,15.254,38.337,4.411,5.293,11.81,5.83,19.454,5.839,7.47-.009,14.872-.549,19.284-5.839,3.51-4.211,7.672-28.689,15.254-38.337C741.69,540.607,742.616,529.275,734.83,523.882Zm-6.136,26.692c-6.114,8.8-7.87,20.892-12.62,29.681-3.211,5.946-9.742,8.693-15.862,8.451-6.119.247-12.654-2.506-15.863-8.451-4.746-8.79-7.326-20.885-13.438-29.681-3.587-5.165-6.637-11-4.947-17.521,1.963-7.573,20.523-12.776,34.249-12.711,13.723-.063,31.467,5.138,33.426,12.711C735.331,539.578,732.283,545.409,728.695,550.574Z" transform="translate(-660.089 -516.393)"/></g></g><circle class="e" cx="12.013" cy="12.013" r="12.013" transform="translate(566.505 456.196)"/><circle class="e" cx="3.696" cy="3.696" r="3.696" transform="translate(629.343 412.764)"/><circle class="e" cx="5.486" cy="5.486" r="5.486" transform="translate(596.918 382.97)"/></g></svg>