<svg xmlns="http://www.w3.org/2000/svg" width="720.409" height="475.183" viewBox="0 0 720.409 475.183"><defs><style>.a{fill:#b6d7db;opacity:0.49;}.b,.e{fill:#d8a35d;}.b,.c{fill-rule:evenodd;}.c{fill:#c79657;}.d{fill:#d19442;}.f{fill:#927dcc;}.g{opacity:0.15;}.h{fill:#fdc64f;}.i{fill:#f7a64c;}.j{fill:#c5853c;}.k{fill:#cc5220;}.l{fill:#e9e9e9;}.m{fill:#8c94a1;}.n{fill:#3d3d3d;}.o{fill:#cecfd4;}.p{fill:#a8a8a8;}.aa,.ab,.ac,.q,.t,.v,.w{fill:#fff;}.r{fill:#e3edf5;}.s{fill:#c1c9d0;}.t{font-size:4px;}.aa,.ab,.ac,.t,.v,.w,.z{font-family:BPGArial, BPG Arial;}.u{fill:#4ea9dc;}.v{font-size:1px;}.w{font-size:2px;}.x,.y{fill:#6bbc65;}.y{stroke:#579952;}.ad,.ae,.y{stroke-miterlimit:10;}.ad,.y{stroke-width:0.819px;}.z{font-size:19px;}.aa{font-size:18px;}.ab{font-size:21px;}.ac{font-size:17px;}.ad,.ae{fill:none;stroke:#53914f;}.ae{stroke-width:0.594px;}.af{fill:#9c84d9;}</style></defs><g transform="translate(-408.034 -177.591)"><g transform="translate(408.444 178)"><g transform="translate(151.272 3.475)"><path class="a" d="M810.827,758.61c26.694,13.407,51.184,33.366,86.724,28.541,29.5-4.006,63.418-24.66,68.061-51.595,4.39-25.466-20.552-38.2-14.271-55.985,8.973-25.41,63.6-9.932,97.7-35.129,46.725-34.519,47.2-139.657,8.781-209.672-70.775-129-262.588-118.792-287.613-117.461-81.843,4.356-212.568,38.142-230.529,114.167-5.735,24.278-5.382,75.77,24.151,100.995,16,13.661,34.115,14.12,35.129,24.15,1.656,16.389-46.153,20.732-68.061,52.692-22.786,33.242-18.147,97.224,14.27,128.438C601.953,792.43,697.212,701.543,810.827,758.61Z" transform="translate(-516.725 -316.589)"/><g transform="translate(12.935 64.391)"><g transform="translate(90.79 27.937)"><path class="b" d="M616.655,425.876c-.309-1.058-1.26-13.8-4.183-19.074s-7.749-12.843-8.786-15.885c-1.221-3.578-3.983-6.974-1.8.783a73.546,73.546,0,0,0,3.21,9.379c.316.51-.3-.359-1.984-4.355-1.789-4.248-2.413,1.753-1.324,3.787,0,0,.3.219-1.044-2.751-1.145-2.521-4.213-1.642-1.648,3.5-.045.09-2.089-3.847-2.714-3.16-1.524,1.67.41,6.2,2.212,9.046,3.511,5.548,8.636,10.82,10.025,15.584Z" transform="translate(-595.832 -387.003)"/><path class="b" d="M610.879,407.3s1.021-6.021-.13-8.688c-1.357-3.15-1.937-2.558-4.9-4.175-1.685-1.041-2.064.787,2,3.331.722,2.339-1.981,3.016-1.866,4.639s1.243,5.952,2.266,6.525S610.879,407.3,610.879,407.3Z" transform="translate(-593.087 -384.783)"/><path class="c" d="M606.915,399.354s-2.529,3.681-2.59,6.334S601.988,397.845,606.915,399.354Z" transform="translate(-593.369 -383.206)"/></g><g transform="translate(99.169)"><path class="d" d="M734.328,402.387s-1.212,13.509,7.121,20.979-19.2,0-19.2,0,5.124-12.939,3.974-20.979S734.328,402.387,734.328,402.387Z" transform="translate(-564.869 -355.391)"/><ellipse class="e" cx="14.568" cy="19.876" rx="14.568" ry="19.876" transform="translate(150.495 12.482)"/><path class="f" d="M637.631,484.693c22.053-46.131,61.413-67.177,86.541-72.766,10.878-2.423,19.089-1.947,22.087.643a16.282,16.282,0,0,0,10.168,3.949,22.036,22.036,0,0,0,5.71-.519,28.444,28.444,0,0,0,6.053-2.059c.93-.431,1.471-.741,1.471-.741a59.025,59.025,0,0,1,15.38.918c56.854,11.132,66.746,106.458,66.237,114.659-.311,4.879-5.356,26.987-11.663,46.64-5.167,16.133-11.2,30.617-16.156,32.62-11,4.425-94.042,10.5-111.117,2.356-.4-.3-.83-.619-1.239-.973-6.406-5.212-13.356-15.5-17.041-25.141,0-.01-9.814-27.673-11.818-33.306-.022-.055-.033-.1-.055-.144-.067-.22-.144-.431-.222-.631-.022-.077-.055-.143-.077-.22" transform="translate(-591.202 -351.802)"/><path class="g" d="M671.39,521.664c.021.077.055.143.077.22.077.2.155.41.22.631.022.045.034.089.056.144,2,5.633,11.817,33.3,11.817,33.306,3.686,9.639,10.634,19.929,17.041,25.141-4.348-15.746-17.9-61.391-17.383-79.781C680.629,519.052,671.39,521.652,671.39,521.664Z" transform="translate(-580.696 -323.488)"/><path class="g" d="M773.928,466.545S746.407,548.7,822.763,583.587l1.552,1.032-.395-19.323s-35.98-50.2-36.115-51.5S773.928,466.545,773.928,466.545Z" transform="translate(-550.288 -334.312)"/><path class="g" d="M736.85,419.784c.045,1.316-.653,2.179-2.767,1.892-6.594-.9-14.042-.708-19.452,1.77a4.6,4.6,0,0,1-4.449-.188c-3.463-2.026-5.609-8.067-6.462-10.745a1.821,1.821,0,0,1-.089-.586c10.878-2.423,19.089-1.947,22.087.643a16.283,16.283,0,0,0,10.168,3.949A8.986,8.986,0,0,1,736.85,419.784Z" transform="translate(-570.662 -351.802)"/><g transform="translate(147.126)"><g transform="translate(3.075 5.542)"><path class="h" d="M725.189,385.331s25.221,13.984,17.735-8.466C737.745,361.33,707.988,375.322,725.189,385.331Z" transform="translate(-715.802 -369.924)"/><path class="h" d="M729.817,379.73s-14.111,8.372-12.75,16.772c0,0-3.111-25.077,10.92-25.706s19.462.724,18.217,27.24C746.2,398.036,742.127,376.942,729.817,379.73Z" transform="translate(-716.773 -369.686)"/></g><path class="h" d="M724.858,372.511s.709-7.814,8.455-6.707,11.065,5.533,12.172,9.959,2.213,7.747,3.32,7.747c0,0-3.32,3.319-4.427,2.212,0,0,2.872,7.959-.778,14.491,0,0-1.436-10.065-6.968-11.172S724.858,372.511,724.858,372.511Z" transform="translate(-711.182 -365.697)"/><path class="h" d="M728.813,371.011s-5.533-3.32-11.065,4.425l-3.32,6.64s1.107,1.107,3.32,0c0,0-1.008,7.8.048,12.2l3.271-13.3Z" transform="translate(-714.428 -364.264)"/></g><path class="g" d="M816.955,536.317s-14.234-29.852-87.212,21.458,68.494-12.589,68.494-12.589Z" transform="translate(-569.044 -315.285)"/><path class="f" d="M693.27,551.933s-67.355,28.575-83.7-33.05.657-76.406-5.988-106.4l10.834-5.217s40.777,25.141,54.737,63.956S693.27,551.933,693.27,551.933Z" transform="translate(-602.222 -352.762)"/></g><path class="i" d="M526.591,628.8H989.068l-69.817-64.47h-330.5l-4.337,7.956Z" transform="translate(-526.591 -303.881)"/><path class="g" d="M672.766,564.329c5.847,6.106,21.069,16.669,57.992,20.092,53.028,4.908,127.354-20.092,127.354-20.092Z" transform="translate(-481.099 -303.881)"/><g transform="translate(214.497 58.472)"><g transform="translate(0 194.109)"><path class="b" d="M734.4,571.981c-1.049-.351-12.12-6.982-18.122-7.535s-14.978-.805-18.076-1.686c-3.645-1.036-4.566.412-.366,2.015a59.224,59.224,0,0,0,9.56,2.708c.6.024-3.311-.5-7.562-1.383-4.519-.936-9.42-2.209-9.644-1.4-.435,1.56,12.581,5.069,14.874,5.317a57.668,57.668,0,0,1-6.046-.732c-2.729-.484-5.854-1.45-6.469-.884-.968.892,5.927,3.6,11.624,4.386.1.185-1.741.473-8.446-.919-.674-.14-2.389.153-.184,1.173,4.644,2.148,6.483,3.413,13.212,3.623,6.561.2,13.8-1.145,18.525.438Z" transform="translate(-690.178 -557.059)"/><path class="b" d="M715.958,566.306s-5.081-5.337-10.786-6.216c-3.391-.523-3.312-1.378-3.89-1.632-1.918-.844-.062,2.718,2.819,3.632,2.342.742,3.649,4.743,5.056,5.592s5.618,2.4,6.67,1.854S715.958,566.306,715.958,566.306Z" transform="translate(-686.966 -558.329)"/></g><path class="f" d="M818.088,428.277c20.843,18.649,35.265,35.97,44.261,92.948,4.564,28.908,3.376,57.816,2.187,73.061a18.01,18.01,0,0,1-12.378,15.662c-65.3,21.541-135.009,17.238-135.009,17.238-3.74-1.391.294-14.922.294-14.922,33.411-45.342,81.16-37.718,94.006-45.672,4.007-23.5-28.281-52.917-32.089-67.5-9.972-38.235-42.8-71.322-34.3-86.308C747.992,407.6,797.064,409.466,818.088,428.277Z" transform="translate(-682.278 -410.291)"/></g><rect class="j" width="462.477" height="15.592" transform="translate(0 324.918)"/><g transform="translate(67.986 148.532)"><g transform="translate(189.035 66.19)"><path class="k" d="M723.91,531.621h0a.622.622,0,0,0,.367-.8l-.5-1.369-1.163.427.5,1.37A.621.621,0,0,0,723.91,531.621Z" transform="translate(-722.609 -529.456)"/></g><g transform="translate(182.559 68.566)"><path class="k" d="M718.965,533.443h0a.621.621,0,0,0,.367-.795l-.5-1.37c-.034-.092-1.158.441-1.158.441l.5,1.357A.621.621,0,0,0,718.965,533.443Z" transform="translate(-717.67 -531.268)"/></g><g transform="translate(189.075 65.386)"><path class="l" d="M724.025,531.543h0a.62.62,0,0,0,.367-.795l-.552-1.5a.623.623,0,0,0-.8-.367h0a.623.623,0,0,0-.367.8l.552,1.5A.621.621,0,0,0,724.025,531.543Z" transform="translate(-722.639 -528.843)"/></g><g transform="translate(182.606 67.769)"><path class="l" d="M719.092,533.36h0a.621.621,0,0,0,.367-.8l-.552-1.5a.621.621,0,0,0-.8-.367h0a.622.622,0,0,0-.367.8l.552,1.5A.621.621,0,0,0,719.092,533.36Z" transform="translate(-717.706 -530.66)"/></g><g transform="translate(188.207 82.391)"><rect class="m" width="4.063" height="2.634" transform="translate(0 1.404) rotate(-20.217)"/></g><g transform="translate(186.47 78.034)"><rect class="m" width="4.063" height="2.634" transform="translate(0 1.404) rotate(-20.217)"/></g><g transform="translate(0 111.254)"><path class="n" d="M583.467,617.177h206.4c2.292,0,4.711-1.155,4.956-4.521v-3.093L772.23,567.817a7.192,7.192,0,0,0-6.441-3.993H607.844c-2.948,0-9.447,5.8-10.765,8.44l-18.638,38v1.364C578.4,615.581,580.953,617.177,583.467,617.177Z" transform="translate(-578.44 -563.824)"/></g><g transform="translate(0 106.883)"><path class="o" d="M583.449,613.844h206.4c2.292,0,6.064-2.009,4.647-4.481l-22.281-44.88a7.191,7.191,0,0,0-6.441-3.993H607.825a7.78,7.78,0,0,0-6.96,4.3L578.808,608.93C577.262,611.743,580.935,613.844,583.449,613.844Z" transform="translate(-578.441 -560.491)"/></g><g transform="translate(24.78)"><rect class="o" width="169.023" height="106.805" rx="4.713"/></g><g transform="translate(31.33 5.825)"><rect class="n" width="155.984" height="92.547"/></g><g transform="translate(77.102 139.506)"><path class="n" d="M638.431,604.159h60.815a1.1,1.1,0,0,0,1.083-1.269l-2.565-16.019a1.781,1.781,0,0,0-1.758-1.5H641.152a1.566,1.566,0,0,0-1.549,1.34l-2.351,16.108A1.188,1.188,0,0,0,638.431,604.159Z" transform="translate(-637.242 -585.371)"/></g><g transform="translate(23.215 114.268)"><path class="p" d="M599.373,588.057H764.614c1.833,0,3.231-.705,2.941-1.483l-6.968-18.7c-.375-1.008-2.4-1.75-4.779-1.75H606.768c-2.112,0-3.9.665-4.209,1.563l-6.387,18.807C595.923,587.321,597.426,588.057,599.373,588.057Z" transform="translate(-596.145 -566.123)"/></g><g transform="translate(22.78 110.093)"><g transform="translate(0 7.398)"><rect class="o" width="172.319" height="0.87" transform="translate(172.319 0.87) rotate(-180)"/></g><g transform="translate(0 11.749)"><rect class="o" width="172.319" height="0.87" transform="translate(172.319 0.87) rotate(-180)"/></g><g transform="translate(0 16.971)"><rect class="o" width="172.319" height="0.87" transform="translate(172.319 0.87) rotate(-180)"/></g><g transform="translate(0 21.758)"><rect class="o" width="172.319" height="0.87" transform="translate(172.319 0.87) rotate(-180)"/></g><g transform="translate(150.205 0.464)"><rect class="o" width="1.305" height="28.72" transform="translate(9.853 27.4) rotate(162.561)"/></g><g transform="translate(137.585 0.464)"><rect class="o" width="1.305" height="28.72" transform="translate(9.853 27.4) rotate(162.561)"/></g><g transform="translate(127.577 0.464)"><rect class="o" width="1.305" height="28.72" transform="translate(9.853 27.4) rotate(162.561)"/></g><g transform="translate(117.568 0.464)"><rect class="o" width="1.305" height="28.72" transform="translate(9.853 27.4) rotate(162.561)"/></g><g transform="translate(107.125 0.464)"><rect class="o" width="1.305" height="28.72" transform="translate(9.853 27.4) rotate(162.561)"/></g><g transform="translate(96.491 0.138)"><rect class="o" width="1.305" height="28.72" transform="translate(6.751 28.194) rotate(169.022)"/></g><g transform="translate(87.465 0)"><rect class="o" width="1.305" height="28.72" transform="translate(1.305 28.72) rotate(-180)"/></g><g transform="translate(11.392 0.464)"><rect class="o" width="1.305" height="28.72" transform="translate(1.245 27.791) rotate(-162.561)"/></g><g transform="translate(23.576 0.464)"><rect class="o" width="1.305" height="28.72" transform="translate(1.245 27.791) rotate(-162.561)"/></g><g transform="translate(35.76 0.464)"><rect class="o" width="1.305" height="28.72" transform="translate(1.245 27.791) rotate(-162.561)"/></g><g transform="translate(47.944 0.464)"><rect class="o" width="1.305" height="28.72" transform="translate(1.245 27.791) rotate(-162.561)"/></g><g transform="translate(60.129 0.464)"><rect class="o" width="1.305" height="28.72" transform="translate(1.245 27.791) rotate(-162.561)"/></g><g transform="translate(72.313 0.464)"><rect class="o" width="1.305" height="28.72" transform="translate(1.245 27.791) rotate(-162.561)"/></g></g></g><rect class="q" width="145.934" height="85.351" transform="translate(103.671 157.803)"/></g><g transform="translate(150.535 231.547)"><rect class="r" width="76.655" height="66.645"/><g transform="translate(5.577 3.644)"><rect class="s" width="15.419" height="8.899" rx="2.728" transform="translate(0 14.331)"/><text class="t" transform="translate(7.398 19.554)"><tspan x="-1.112" y="0">1</tspan></text><rect class="u" width="12.025" height="4.26" rx="1.306" transform="translate(0 1.202)"/><text class="v" transform="translate(2.768 3.709)"><tspan x="-2.351" y="0">ცარიელი</tspan></text><rect class="u" width="12.025" height="4.26" rx="1.306" transform="translate(13.469 1.202)"/><text class="v" transform="translate(16.237 3.709)"><tspan x="-2.351" y="0">ცარიელი</tspan></text><rect class="u" width="12.025" height="4.26" rx="1.306" transform="translate(26.937 1.202)"/><text class="v" transform="translate(29.705 3.709)"><tspan x="-2.351" y="0">ცარიელი</tspan></text><rect class="s" width="20.996" height="5.463" rx="1.674" transform="translate(44.117)"/><rect class="u" width="10.049" height="3.141" rx="0.963" transform="translate(54.422 1.202)"/><text class="v" transform="translate(57.584 3.021)"><tspan x="-2.351" y="0">ცარიელი</tspan></text><text class="v" transform="translate(46.945 2.938)"><tspan x="-1.8" y="0">შედეგი</tspan></text><rect class="s" width="15.419" height="8.899" rx="2.728" transform="translate(16.785 14.331)"/><text class="t" transform="translate(24.183 19.554)"><tspan x="-1.112" y="0">2</tspan></text><rect class="s" width="15.419" height="8.899" rx="2.728" transform="translate(33.57 14.331)"/><text class="t" transform="translate(40.968 19.554)"><tspan x="-1.112" y="0">3</tspan></text><rect class="u" width="15.419" height="8.899" rx="2.728" transform="translate(50.355 14.331)"/><text class="w" transform="translate(55.819 19.296)"><tspan x="-3.285" y="0">წაშლა</tspan></text><rect class="s" width="15.419" height="8.899" rx="2.728" transform="translate(0 25.697)"/><text class="t" transform="translate(7.398 30.92)"><tspan x="-1.112" y="0">4</tspan></text><rect class="s" width="15.419" height="8.899" rx="2.728" transform="translate(16.785 25.697)"/><text class="t" transform="translate(24.183 30.92)"><tspan x="-1.112" y="0">5</tspan></text><rect class="s" width="15.419" height="8.899" rx="2.728" transform="translate(33.57 25.697)"/><text class="t" transform="translate(40.968 30.92)"><tspan x="-1.112" y="0">6</tspan></text><rect class="x" width="15.419" height="8.899" rx="2.728" transform="translate(50.355 25.697)"/><text class="t" transform="translate(57.753 30.92)"><tspan x="-1.168" y="0">+</tspan></text><rect class="s" width="15.419" height="8.899" rx="2.728" transform="translate(0 37.063)"/><text class="t" transform="translate(7.398 42.287)"><tspan x="-1.112" y="0">7</tspan></text><rect class="s" width="15.419" height="8.899" rx="2.728" transform="translate(16.785 37.063)"/><text class="t" transform="translate(24.183 42.287)"><tspan x="-1.112" y="0">8</tspan></text><rect class="s" width="15.419" height="8.899" rx="2.728" transform="translate(16.785 47.988)"/><text class="t" transform="translate(24.183 53.212)"><tspan x="-1.112" y="0">0</tspan></text><rect class="s" width="15.419" height="8.899" rx="2.728" transform="translate(33.57 37.063)"/><text class="t" transform="translate(40.968 42.287)"><tspan x="-1.112" y="0">9</tspan></text><rect class="x" width="15.419" height="8.899" rx="2.728" transform="translate(50.355 37.063)"/><text class="t" transform="translate(57.753 42.287)"><tspan x="-0.666" y="0">-</tspan></text><rect class="x" width="15.419" height="8.899" rx="2.728" transform="translate(50.355 48.429)"/><text class="t" transform="translate(57.753 53.653)"><tspan x="-1.168" y="0">=</tspan></text></g></g></g><rect class="y" width="337.754" height="74.56" rx="28.432"/><rect class="q" width="54.976" height="44.675" rx="17.036" transform="translate(6.804 14.943)"/><rect class="q" width="54.845" height="44.675" rx="17.036" transform="translate(98.79 14.943)"/><text class="z" transform="translate(32.01 42.412)"><tspan x="-5.283" y="0">5</tspan></text><text class="z" transform="translate(125.4 42.412)"><tspan x="-5.283" y="0">6</tspan></text><rect class="q" width="54.845" height="44.675" rx="17.036" transform="translate(181.78 14.943)"/><text class="z" transform="translate(207.646 42.412)"><tspan x="-5.283" y="0">3</tspan></text><rect class="q" width="54.845" height="44.675" rx="17.036" transform="translate(261.711 14.943)"/><text class="z" transform="translate(288.994 42.412)"><tspan x="-5.283" y="0">2</tspan></text><text class="aa" transform="translate(74.931 41.412)"><tspan x="-5.256" y="0">+</tspan></text><text class="ab" transform="translate(164.991 44.412)"><tspan x="-3.497" y="0">-</tspan></text><text class="ac" transform="translate(250.2 40.412)"><tspan x="-3.308" y="0">*</tspan></text><rect class="ad" width="242.527" height="61.052" rx="23.281" transform="translate(88.635 6.754)"/><rect class="ae" width="148.256" height="52.48" rx="20.012" transform="translate(177.006 11.04)"/><g transform="translate(588.242 139.162)"><path class="af" d="M849.982,425.86l.906-2.8a30.341,30.341,0,0,1,4.547,1.91q-.374-3.564-.393-4.9H857.9q-.059,1.949-.452,4.883a34.063,34.063,0,0,1,4.646-1.891l.906,2.8a24.55,24.55,0,0,1-4.9,1.1,33.09,33.09,0,0,1,3.387,3.721l-2.363,1.673a48.2,48.2,0,0,1-2.7-4.233,31.6,31.6,0,0,1-2.56,4.233l-2.323-1.673a40.941,40.941,0,0,1,3.269-3.721Q852.265,426.47,849.982,425.86Z" transform="translate(-849.982 -420.071)"/></g><g transform="translate(507.6 76.726)"><path class="af" d="M796.335,391.531v-7.914H788.48v-3.307h7.856v-7.855h3.346v7.855h7.855v3.307h-7.855v7.914Z" transform="translate(-788.48 -372.454)"/></g></g></g></svg>