<svg xmlns="http://www.w3.org/2000/svg" width="278.172" height="445.335" viewBox="0 0 278.172 445.335"><defs><style>.a,.f{fill:#b6d7db;}.a{opacity:0.49;}.b{fill:#ff13fa;}.c{fill:#9913fa;}.d{fill:#ff9efa;}.e{fill:#fff;}</style></defs><g transform="translate(-961.612 -243.139)"><g transform="translate(961.612 301.584)"><path class="a" d="M1028.211,667.481c52.346,29.735,126.887,19.574,171.029-25.2,2.291-2.325,50.432-52.5,38.707-106.219-8.036-36.816-37.185-43.206-37.806-77.413-.617-34,27.943-41.28,27.9-74.713-.038-33.226-28.293-64.958-57.609-78.314-56.4-25.69-115.967,16.971-128.722,26.1C975.646,379.036,966.64,458.658,964.3,479.349,961.211,506.652,948.164,622.011,1028.211,667.481Z" transform="translate(-961.612 -297.497)"/><g transform="translate(40.19 69.556)"><path class="b" d="M1085.255,397.828s-15.046,18.367-20.881,32.975c-5.445,13.622-6.259,17.186-12.221,16.222a4,4,0,0,1-1.374-.273c-8.756-3.461-30.9-21.318-39.835-15.37-19.486,12.973,16.968,51.891,30.529,57.683-3.875,5.658-18.058,29.748-22.252,45.008-2.557,9.314-5.988,27.782,2.35,35.174,14.356,12.731,46.319-37.266,50.432-37.187s26.276,34.579,40.047,47.491c12.684,11.9,35.181,17.037,47.463,15.284,4.053-.58,8.711-4.7,10.383-8.17,5.631-11.692-.771-25.26-6.427-35.537-10.511-19.088-22.461-36.656-27.316-46.661,10.417-2.234,31.505-10.552,39.181-14.807,10.735-5.952,39.361-26.157,31.149-40.625-10.071-17.741-62.208.657-79.23,1.185-2.93.092-4.767-1-4.819-3.2-.61-25.221,29.142-47.452,19.588-70.087-2.465-5.835-7.253-7.91-13.541-8.8-18.1-2.547-29.6,16.671-43.226,29.691Z" transform="translate(-998.515 -361.759)"/><path d="M1032.434,492.1c-13.538,18.37-26.629,46.4-23.983,69.405.759,6.578,5.328,13.5,11.872,15.869,5.311,1.929,13.706,1.1,18.78-1.685,10.192-5.588,29.612-35.308,32.88-34.673s25.423,47.312,67.032,59.949c6.463,1.961,22.776,2.358,28.763-1.08,13.262-7.607,10.468-24.043,8.035-33.633-4.436-17.483-24.643-50.959-30.281-57.924,5.388-1.793,10.883-3.417,16.315-5.089,16.678-5.142,47.069-20.884,53.869-39.441,3.784-10.331,4.22-17.576-9.127-23.688-22.05-10.095-51.4,1.759-76.511,4.5,1.944-22.145,36.134-51.751,15.174-74.061-5.437-5.789-11.241-8.446-19.279-8.357-15.577.171-35.93,22.252-47.084,36.317-3.145,3.962-5.56,7.292-6.927,9.309-1.648,2.432-5.562,11.317-8.819,19.118-2.1,5.02-3.921,9.595-4.683,11.7-1.649,4.551-4.215,4.122-5.848,3.234-.467-.354-.968-.727-1.524-1.128l0,0h0c-9.62-6.912-32.022-20.136-41.149-16.859-6.578,2.363-9.8,6.6-10.656,12.865C996.413,457.934,1015.542,480.839,1032.434,492.1Zm53.3-93.838h0c13.629-13.02,25.126-32.238,43.226-29.691,6.289.886,11.076,2.961,13.542,8.8,9.554,22.635-20.2,44.866-19.587,70.087.052,2.2,1.889,3.291,4.819,3.2,17.022-.528,69.16-18.924,79.231-1.185,8.213,14.468-20.415,34.673-31.148,40.625-7.677,4.256-28.763,12.573-39.182,14.807,4.857,10,16.805,27.573,27.316,46.661,5.657,10.277,12.058,23.845,6.427,35.537-1.672,3.469-6.328,7.591-10.382,8.17-12.282,1.754-34.779-3.387-47.464-15.284-13.769-12.912-35.936-47.416-40.047-47.491s-36.071,49.921-50.43,37.187c-8.343-7.392-4.908-25.859-2.353-35.174,4.2-15.26,18.379-39.351,22.254-45.008-13.563-5.792-50.013-44.709-30.53-57.683,8.928-5.948,31.076,11.909,39.831,15.37a4.012,4.012,0,0,0,1.375.273c5.965.963,6.777-2.6,12.22-16.222C1070.685,416.626,1085.733,398.258,1085.735,398.258Z" transform="translate(-998.992 -362.189)"/><g transform="translate(50.986 68.527)"><path class="c" d="M1103.131,440.938c-12.239,5.044-23.7,6.123-41.628,7.013,25.6,12.41,25.415,26.079,26.512,31.158.263,9.276-5.344,13.83-11.248,16.964,6.367.829,15.561-.751,24.452-12.959,9.615-13.2,7.23-27.587,4.592-35.683A40.858,40.858,0,0,0,1103.131,440.938Z" transform="translate(-1045.278 -424.795)"/><g transform="translate(33.191 46.321)"><path class="d" d="M1095.6,486.13c5.469-3.663,7.512-6.8,8.951-11.249-5.16-.232-22.823-5.075-21.376,1.784C1084.029,480.737,1092.121,483.724,1095.6,486.13Z" transform="translate(-1076.847 -468.704)"/><path d="M1091.026,489.165c1.891.42,5.433-2.435,5.433-2.435-.13-.1-.281-.2-.426-.3-3.481-2.406-11.568-5.393-12.425-9.465-1.447-6.859,16.22-2.016,21.376-1.784.232.011.447.015.626.005.554-1.6,1.438-3.109,1.113-4.856-7.164-.758-22.762-3.562-28.184,2.369C1073.279,478.452,1085.92,488.023,1091.026,489.165Z" transform="translate(-1077.283 -469.005)"/><path d="M1101.953,477.327c.718.832.021,1.973-.252,2.843-4.5.475-8.6-2.207-11.869-4.857C1093,474.808,1098.765,476.356,1101.953,477.327Z" transform="translate(-1076.339 -468.538)"/></g><g transform="translate(6.804 11.445)"><path class="e" d="M1062.707,459.7a35.437,35.437,0,0,1-6.083-.437l-1.855-.334,2.429-12.445,1.455-.069c19.045-.9,31.377-1.716,44.277-7.033l1.53-.632.8,1.449a42.5,42.5,0,0,1,2.823,6.818l.442,1.355-1.2.778c-9.558,6.216-31.19,10.55-44.626,10.55Z" transform="translate(-1052.588 -436.404)"/><path d="M1103.788,441.264a40.71,40.71,0,0,1,2.683,6.5c-9.539,6.2-31.135,10.251-43.611,10.251a33.567,33.567,0,0,1-5.754-.411l1.785-9.164c19.837-.933,31.929-1.827,44.9-7.171m1.646-4.7-3.056,1.262c-12.621,5.2-24.81,6.007-43.657,6.894l-2.917.137-.556,2.865-1.785,9.164-.723,3.7,3.708.669a36.923,36.923,0,0,0,6.413.469c11.833,0,34.892-3.864,45.635-10.852l2.391-1.555-.885-2.712a44.5,44.5,0,0,0-2.964-7.141l-1.6-2.9Z" transform="translate(-1052.741 -436.568)"/></g><path d="M1058.707,449.27l.662-.031c1.119-.053,2.2-.106,3.27-.158,17.924-.89,29.39-1.968,41.629-7.013a40.908,40.908,0,0,1,2.683,6.5c2.64,8.094,5.023,22.478-4.593,35.683-8.891,12.212-18.085,13.788-24.451,12.959a28.446,28.446,0,0,1-7.825-2.348c-2.7-1.07-6.415-2.772-4.248,4.349s2.941,10.062,6.656,12.229,6.5.775,3.716-.929-4.8-5.881-4.645-9.442c0,0,17.586,5.988,31.4-8.617s14.317-38.665,6.158-57.029c0,0-32.448,11.923-54.276,8.672l-.155-.311s5.774-12.365,6.6-16.168-2.014-.219-3.3,1.395-6.729,9.484-7.826,11.57S1038.461,450.214,1058.707,449.27Z" transform="translate(-1046.413 -425.924)"/></g><g transform="translate(54.733 48.132)"><path d="M1058.912,436.6a12.363,12.363,0,0,0,12.226-4.88c6.515-9.51-3.844-32.605-17.628-22.061C1046.786,414.8,1049.938,434.534,1058.912,436.6Zm-4.453-22.338c2.323-3.979,7.664-4.224,10.682-.641,3.823,4.531,6.293,13.32.716,18.092-1.594,1.364-5.124,1.479-6.975.554C1053.718,429.69,1052.048,418.39,1054.459,414.258Z" transform="translate(-1049.897 -406.955)"/><path class="e" d="M1054.216,413.968c-2.413,4.132-.741,15.432,4.423,18.005,1.85.926,5.382.811,6.975-.554,5.577-4.772,3.107-13.561-.716-18.092C1061.88,409.744,1056.538,409.989,1054.216,413.968Z" transform="translate(-1049.654 -406.666)"/><ellipse cx="4.016" cy="3.849" rx="4.016" ry="3.849" transform="translate(3.094 12.583)"/></g><g transform="translate(92.832 40.176)"><path class="e" d="M1090.565,408.08c-2.922,5.01-.893,18.722,5.373,21.848,2.246,1.119,6.536.981,8.466-.673,6.762-5.79,4.909-16.792.274-22.293C1101.012,402.619,1093.39,403.25,1090.565,408.08Z" transform="translate(-1085.038 -399.218)"/><ellipse cx="6.19" cy="5.932" rx="6.19" ry="5.932" transform="translate(3.311 13.828)"/><path d="M1096.27,435.521c5.385,1.239,11.793-1.483,14.832-5.923,7.91-11.538-4.662-39.561-21.381-26.766C1081.556,409.076,1085.381,433.017,1096.27,435.521Zm-5.406-27.1c2.821-4.83,10.443-5.461,14.109-1.118,4.635,5.5,6.488,16.5-.274,22.293-1.93,1.654-6.22,1.792-8.466.673C1089.966,427.14,1087.939,413.428,1090.864,408.418Z" transform="translate(-1085.333 -399.556)"/></g></g></g><circle class="f" cx="14.402" cy="14.402" r="14.402" transform="translate(1036.312 369.116)"/><circle class="f" cx="5.969" cy="5.969" r="5.969" transform="translate(1088.666 319.039)"/><circle class="f" cx="4.048" cy="4.048" r="4.048" transform="translate(1067.662 286.306)"/><circle class="f" cx="3.555" cy="3.555" r="3.555" transform="translate(1088.666 243.139)"/></g></svg>