<svg xmlns="http://www.w3.org/2000/svg" width="559.124" height="305.53" viewBox="0 0 559.124 305.53"><defs><style>.a{fill:#f5ad43;stroke:#d1a338;stroke-width:1.124px;}.a,.c,.h,.i{stroke-miterlimit:10;}.b,.d,.g{fill:#fff;}.b,.j{font-size:28px;}.b,.e,.f,.g,.j{font-family:BPGArial, BPG Arial;}.c{fill:#75bc65;stroke-width:0.975px;}.c,.h{stroke:#5c944f;}.e{font-size:26px;}.f{font-size:27px;}.g{font-size:25px;}.h{fill:none;stroke-width:1.017px;}.i{fill:#8f6ef6;stroke:#7a5ed1;}</style></defs><g transform="translate(-356.693 -353.739)"><g transform="translate(357.255 354.301)"><path class="a" d="M876.829,448.91a6.539,6.539,0,0,0,6.668-6.4V360.7a6.539,6.539,0,0,0-6.668-6.4h-422.1q-8.888,8.228-17.772,16.454H406.47L387.422,354.91h-22.31a11.809,11.809,0,0,1-1.885-.542,6.482,6.482,0,0,0-5.971,6.332V636.712a6.537,6.537,0,0,0,6.668,6.4h23.8q9.375,7.8,18.75,15.6h30.491l16.846-15.6H908.587a6.539,6.539,0,0,0,6.668-6.4V554.9a6.539,6.539,0,0,0-6.668-6.4h-294.7V448.91Z" transform="translate(-357.255 -354.301)"/><text class="b" transform="translate(32.804 56.706)"><tspan x="-7" y="0">if</tspan></text><text class="b" transform="translate(473.428 56.706)"><tspan x="-27.248" y="0">then</tspan></text><g transform="translate(84.236 10.627)"><path class="c" d="M399.562,397.99l37.846-38.351H700.1l37.846,38.351-37.348,37.847H438.9Z" transform="translate(-399.562 -359.638)"/><rect class="d" width="51.504" height="48.444" rx="12.165" transform="translate(42.013 15.197)"/><text class="e" transform="translate(66.8 46.294)"><tspan x="-7.23" y="0">5</tspan></text><rect class="d" width="51.504" height="48.444" rx="12.165" transform="translate(120.359 15.197)"/><text class="e" transform="translate(145.147 46.294)"><tspan x="-7.23" y="0">5</tspan></text><rect class="d" width="72.936" height="48.444" rx="12.165" transform="translate(216.823 16.655)"/><text class="f" transform="translate(255.091 47.753)"><tspan x="-15.016" y="0">10</tspan></text><text class="g" transform="translate(195.681 46.753)"><tspan x="-7.3" y="0">=</tspan></text><text class="g" transform="translate(106.501 45.294)"><tspan x="-7.3" y="0">+</tspan></text><rect class="h" width="148.879" height="60.542" rx="14.576" transform="translate(32.841 9.565)"/></g><g transform="translate(37.816 94.789)"><path class="i" d="M639.491,401.908H473.725q-8.885,8.575-17.772,17.149H425.461l-19.047-16.514H384.1a11.443,11.443,0,0,1-1.885-.563,6.645,6.645,0,0,0-5.971,6.6v85.263a6.668,6.668,0,0,0,6.668,6.668h23.8q9.378,8.127,18.75,16.255h30.491L472.8,500.509H639.491a6.67,6.67,0,0,0,6.668-6.668V408.578A6.67,6.67,0,0,0,639.491,401.908Z" transform="translate(-376.248 -401.908)"/><text class="b" transform="translate(53.791 60.643)"><tspan x="-21.786" y="0">say</tspan></text></g></g><rect class="d" width="142.334" height="61.396" rx="15.418" transform="translate(504.33 469.289)"/><text class="j" transform="translate(573.666 509.733)"><tspan x="-35.902" y="0">Hello!</tspan></text></g></svg>