<svg xmlns="http://www.w3.org/2000/svg" width="529.124" height="289.162" viewBox="0 0 529.124 289.162"><defs><style>.a{fill:#f5ad43;stroke:#d1a338;stroke-width:1.124px;}.a,.c,.g{stroke-miterlimit:10;}.b,.d,.f{fill:#fff;}.b,.e{font-size:25px;}.b,.e,.f{font-family:BPGArial, BPG Arial;}.c{fill:#75bc65;stroke:#5c944f;stroke-width:0.975px;}.f{font-size:22px;}.g{fill:#8f6ef6;stroke:#7a5ed1;}</style></defs><g transform="translate(-395.088 -363.828)"><g transform="translate(395.65 364.39)"><path class="a" d="M887.291,453.911a6.187,6.187,0,0,0,6.31-6.055V370.443a6.186,6.186,0,0,0-6.31-6.053h-399.4q-8.41,7.783-16.817,15.568H442.219q-9.012-7.495-18.024-14.993H403.086a11.179,11.179,0,0,1-1.786-.512,6.134,6.134,0,0,0-5.65,5.991V631.615a6.187,6.187,0,0,0,6.31,6.055h22.518q8.871,7.379,17.742,14.758h28.852l15.941-14.758H917.341a6.186,6.186,0,0,0,6.309-6.055V554.2a6.186,6.186,0,0,0-6.309-6.055H638.483V453.911Z" transform="translate(-395.65 -364.39)"/><text class="b" transform="translate(30.418 52.999)"><tspan x="-6.25" y="0">if</tspan></text><text class="b" transform="translate(459.047 52.999)"><tspan x="-24.329" y="0">then</tspan></text><g transform="translate(79.707 10.053)"><path class="c" d="M437.957,406.016l35.811-36.289H722.335l35.811,36.289-35.34,35.812H475.182Z" transform="translate(-437.957 -369.726)"/><rect class="d" width="106.269" height="45.839" rx="12.165" transform="translate(44.486 15.76)"/><text class="e" transform="translate(92.981 45.475)"><tspan x="-20.856" y="0">100</tspan></text><rect class="d" width="69.015" height="45.839" rx="12.165" transform="translate(205.166 15.76)"/><text class="e" transform="translate(241.184 45.475)"><tspan x="-13.904" y="0">50</tspan></text><text class="f" transform="translate(175.863 42.475)"><tspan x="-6.424" y="0">&gt;</tspan></text></g><g transform="translate(35.783 89.691)"><path class="g" d="M663.733,412H506.881q-8.41,8.114-16.817,16.227H461.21q-9.009-7.814-18.023-15.626H422.079a10.62,10.62,0,0,1-1.786-.533,6.287,6.287,0,0,0-5.65,6.244v80.679a6.31,6.31,0,0,0,6.31,6.31H443.47q8.871,7.69,17.74,15.381h28.854L506,505.3H663.733a6.311,6.311,0,0,0,6.31-6.31V418.307A6.311,6.311,0,0,0,663.733,412Z" transform="translate(-414.643 -411.996)"/><text class="b" transform="translate(49.083 56.726)"><tspan x="-19.452" y="0">say</tspan></text></g></g><rect class="d" width="134.682" height="58.095" rx="15.418" transform="translate(534.818 473.194)"/><text class="e" transform="translate(598.362 510.807)"><tspan x="-32.056" y="0">Hello!</tspan></text></g></svg>