<svg xmlns:xlink="http://www.w3.org/1999/xlink" xmlns="http://www.w3.org/2000/svg" width="575.668" height="416.197"
     viewBox="0 0 575.668 416.197">
    <defs>
        <style>
            .a{fill:none;}.b{fill:#f7c042;stroke:#d1a338;stroke-miterlimit:10;stroke-width:1.337px;opacity:0.82;}.c{clip-path:url(#a);}.d{opacity:0.15;}.e{opacity:0.3;}.f{fill:#d8a35d;fill-rule:evenodd;}.g{fill:#947dce;}
        </style>
        <clipPath id="a">
            <rect class="a" width="494.233" height="416.197"/>
        </clipPath>
    </defs>
    <g transform="translate(-926.008 -438.009)">
        <path class="b"
              d="M1285.192,468.836H1074.3c-12.468-8.676-39.443-24.149-76.247-23.832-35.714.306-60.467,19.556-70.488,26.211-.046.034-.084.075-.153.124a5.038,5.038,0,0,0-.737,2.624v65.55a5.127,5.127,0,0,0,5.127,5.127H950.1l14.414,12.5h23.441q6.477-6.249,12.952-12.5h284.287a5.127,5.127,0,0,0,5.127-5.127v-65.55A5.127,5.127,0,0,0,1285.192,468.836Z"
              transform="translate(0 2.159)"/>
        <g transform="translate(1007.443 438.009)">
            <g class="c">
                <g transform="translate(31.569 74.358)">
                    <path class="d"
                          d="M1356.428,647.094s-233.473,16.1-241.749,242.712l-.974,4.938,47.826-20.93s88.182-141.632,91.267-143.3S1356.428,647.094,1356.428,647.094Z"
                          transform="translate(-981.251 -447.795)"/>
                    <g class="e" transform="translate(0 181.612)">
                        <path d="M1012.982,635.071c-.162-.5-.323-1-.477-1.491C1012.5,633.58,1012.68,634.106,1012.982,635.071Z"
                              transform="translate(-1012.505 -633.58)"/>
                    </g>
                    <path class="d"
                          d="M1154.415,798.939s83.958-30.514-35.036-240.056c-60.164-81.035,16.052,187.424,16.052,187.424Z"
                          transform="translate(-986.643 -479.744)"/>
                    <g transform="translate(73.351)">
                        <path class="f"
                              d="M1101.875,557.034s9.732-17.049,7.613-32.281c-1.259-9.055.98-9.5,1.187-11.175.688-5.544-6.981,1.923-7.109,9.972-.1,6.543-9.314,12.94-10.4,17.181s-1.84,16.177.369,18.437S1101.875,557.034,1101.875,557.034Z"
                              transform="translate(-1061.272 -489.62)"/>
                        <path class="f"
                              d="M1103.08,606.411c.1-2.946,8.545-36.268,5.366-52.009s-9.564-43.036-9.687-51.618c-.144-10.095-4.543-11.337-5.421.607-.571,7.763-.253,27.466.566,30.665a144.483,144.483,0,0,1-2.983-20.183c-.277-4.031-1.979-4.056-4.234-3.449-4.193,1.13-1.359,12.977-1.8,18.593,0,0-.928-5.562-1.712-14.656-.3-3.433-2.678-2.715-4.717-2.4s-3.173,2.736-.831,17.879c.147,1.3-.651,4.387-2.31-13.927-.166-1.826-5.222-4.222-5.69.953-1.019,11.314-2.821,16.055,3.018,31.645,6.135,16.379,12.358,30.391,11.93,43.647Z"
                              transform="translate(-1068.548 -494.821)"/>
                    </g>
                    <g transform="translate(57.647 11.881)">
                        <path class="g"
                              d="M1541.683,702.387c-25.036,71.278-53.385,125.154-186.324,206.423-67.447,41.233-140.831,68.1-180.111,80.874a48.65,48.65,0,0,1-51.871-14.732c-121.174-140.771-40.54-383.78-40.54-383.78-.386-10.77,40.672-5.743,40.672-5.743,38.2,89.729,63.991,159.923,66.067,243.157.02-.435,102.895-125.217,135.36-149.771,85.149-64.359,133.859-180.443,180.032-174.712C1520.937,506.077,1566.937,630.492,1541.683,702.387Z"
                              transform="translate(-1056.55 -503.899)"/>
                    </g>
                </g>
            </g>
        </g>
    </g>
</svg>
