<svg xmlns="http://www.w3.org/2000/svg" xmlns:xlink="http://www.w3.org/1999/xlink" width="559.826" height="406.179" viewBox="0 0 559.826 406.179"><defs><style>.a,.o,.z{fill:none;}.b{fill:#f2da8e;}.b,.c,.d,.e,.i,.j,.l,.m,.n,.o,.p,.x,.y{fill-rule:evenodd;}.b,.f{opacity:0.5;}.c{fill:#fcb95d;}.ad,.d{fill:#a1dd6f;}.e,.h{opacity:0.15;}.g{fill:#243330;}.i,.k{fill:#d1d3d4;}.j{fill:#36a5ad;}.l{fill:#c98121;}.m{fill:#f7805c;}.n,.w{fill:#7fd1d8;}.o{stroke:#3e6569;stroke-width:12.871px;}.o,.z{stroke-miterlimit:10;}.p,.u{opacity:0.2;}.q{fill:#4a5e3a;}.r{fill:#6dcecd;}.s{fill:#fff;}.t{fill:#454c53;}.v{fill:#bcbec0;}.x{fill:#243e41;}.y{fill:#171f1c;}.z{stroke:#7fd1d8;stroke-width:3.65px;}.aa{clip-path:url(#a);}.ab{fill:#3e6569;}.ac{fill:#084500;}.ae{clip-path:url(#b);}.af{clip-path:url(#c);}.ag{clip-path:url(#d);}.ah{clip-path:url(#e);}.ai{clip-path:url(#f);}.aj{font-size:15px;font-family:DejaVuSans, DejaVu Sans;}</style><clipPath id="a"><path class="a" d="M716,298.1v17.011a1.5,1.5,0,0,1-1.5,1.5h-3.1a1.5,1.5,0,0,1-1.5-1.5v-9.509l-1.187.81a1.138,1.138,0,0,1-1.779-.941v-4.086a1.137,1.137,0,0,1,.488-.934l5.031-3.5a1.4,1.4,0,0,1,.8-.253h1.331l.072,0,.042,0,.053,0c.025,0,.049.006.072.011a.558.558,0,0,1,.055.01l.054.012.008,0,.054.015.018.006.054.018a1.355,1.355,0,0,1,.148.064.484.484,0,0,1,.046.024c.022.012.044.025.066.038s.04.025.058.038a.849.849,0,0,1,.07.053c.015.011.031.024.047.038l.062.057c.014.014.028.028.041.042l.019.02.042.05h0A1.394,1.394,0,0,1,716,298.1Z" transform="translate(-706.939 -296.699)"/></clipPath><clipPath id="b"><path class="a" d="M720.43,385.951v1.657a1.055,1.055,0,0,1-1.055,1.056H706.554a1.055,1.055,0,0,1-1.055-1.027l-.042-1.453a2.469,2.469,0,0,1,.871-1.951l.108-.09.2-.172.533-.454.137-.116.876-.753.41-.354c.439-.38.9-.776,1.35-1.174.276-.241.551-.484.82-.724.109-.094.215-.19.321-.284a30.474,30.474,0,0,0,2.975-2.876c.925-1.285.806-2.839-1.1-3.1-1.29-.174-2.478,1.41-3.109,2.446a1.058,1.058,0,0,1-1.378.4l-2.856-1.428a1.059,1.059,0,0,1-.5-1.362c2.111-4.91,5.748-5.794,8.27-5.588l.118.01.106.01c.111.013.221.026.327.042s.21.034.311.054.2.04.293.062c.127.03.249.062.365.1.1.029.191.058.279.089l.118.042c.078.027.158.057.238.088l.12.046c.084.032.17.067.256.1l.109.047c.082.036.164.072.246.111l.123.059c.041.019.082.039.124.061l.123.063.123.066.123.069c.041.022.081.046.122.071s.082.049.122.074c1.619,1,3.094,2.758,3.278,6.129.193,3.543-2.809,6.5-4.6,7.945l-.026.021-.1.079-.133.1-.008.007-.3.23-.017.012-.119.088-.125.09c-.106.074-.2.136-.267.186l-.045.03c-.1.066-.152.1-.152.1h4.855A1.055,1.055,0,0,1,720.43,385.951Z" transform="translate(-705.034 -368.584)"/></clipPath><clipPath id="c"><path class="a" d="M719.569,449.653l.012-.017.014-.018c.03-.042.073-.1.126-.178.036-.054.078-.118.123-.189a6.884,6.884,0,0,0,1.119-3.517,5.71,5.71,0,0,0-3.612-5.5l-.03-.013-.007,0-.032-.012-.154-.058-.1-.035-.076-.026q-.068-.024-.139-.046l-.071-.022-.15-.044-.02-.006-.122-.033-.134-.034c-.049-.012-.1-.024-.148-.034l-.084-.019c-.113-.023-.228-.047-.345-.068-.145-.026-.293-.048-.446-.069l-.1-.012-.15-.017q-.237-.025-.486-.042c-.089-.006-.178-.01-.269-.014-.182-.008-.369-.012-.56-.012-.089,0-.177,0-.264,0-.065,0-.13,0-.194.008s-.114.006-.17.011c-.028,0-.055,0-.083.006-.058,0-.114.01-.17.016s-.109.01-.163.018h-.006l-.114.015-.122.018q-.338.051-.654.131c-.053.013-.106.027-.158.042s-.125.034-.185.054c-.076.022-.151.047-.224.073-.038.012-.074.026-.11.038-.066.024-.13.048-.193.074-.045.018-.091.036-.136.056s-.107.046-.161.071c-.033.014-.065.03-.1.046s-.074.034-.11.053-.08.041-.118.061a6.045,6.045,0,0,0-.734.456c-.039.028-.078.057-.117.086a6.4,6.4,0,0,0-.505.422l-.089.084c-.048.046-.1.094-.142.141l-.092.1q-.119.125-.227.253c-.042.048-.083.1-.123.146s-.1.122-.144.184-.09.121-.134.182c-.022.03-.044.063-.067.1s-.039.057-.058.086l-.06.091-.058.09c-.057.091-.112.181-.165.271-.034.061-.068.121-.1.18-.049.089-.1.177-.139.264s-.085.173-.125.259l-.038.085a8.772,8.772,0,0,0-.453,1.241.651.651,0,0,0,.383.773l3.254,1.368a.674.674,0,0,0,.907-.422,2.9,2.9,0,0,1,2.667-2.375c2.466,0,2.265,2.683.683,3.479a2.656,2.656,0,0,1-1.445.154.665.665,0,0,0-.759.65v1.86a.665.665,0,0,0,.759.65,2.641,2.641,0,0,1,1.445.155c1.582.795,1.783,3.477-.683,3.477a2.9,2.9,0,0,1-2.667-2.374.675.675,0,0,0-.907-.422l-3.254,1.368a.652.652,0,0,0-.383.773,9.037,9.037,0,0,0,.516,1.384c.034.073.07.146.108.22s.077.15.118.225.084.152.128.228c.022.038.046.077.068.115.07.114.144.231.223.346.052.077.106.154.163.231s.115.153.175.229c.03.038.062.077.093.114s.063.076.1.114q.146.17.307.332a6.735,6.735,0,0,0,5.007,1.972c6.136,0,7.238-3.958,7.238-6.119a7.156,7.156,0,0,0-1.416-3.949Z" transform="translate(-706.699 -439.615)"/></clipPath><clipPath id="d"><path class="a" d="M717.268,611.3c-2.351,1.987-8.687,2.875-11.644-1.838a1.084,1.084,0,0,1,.46-1.553l2.258-1.068a1.074,1.074,0,0,1,1.348.354,2.687,2.687,0,0,0,2.416,1.025c2.62,0,3.08-2.6,1.475-3.948-.037-.031-.077-.062-.117-.093s-.067-.049-.1-.072c-.017-.013-.035-.025-.053-.036a3.416,3.416,0,0,0-.414-.234l-.082-.038a6.757,6.757,0,0,0-4.587-.094l-.093.026a1.082,1.082,0,0,1-1.369-1.215l.78-4.8.724-4.464a1.084,1.084,0,0,1,1.071-.91h8.318a1.084,1.084,0,0,1,1.084,1.085v3.036a1.084,1.084,0,0,1-1.084,1.085H712.67l-.347,1.605s4.156-.313,6.28,2.267l.006.006c.046.056.091.113.134.171.031.04.059.081.089.121s.058.083.086.125A7.346,7.346,0,0,1,717.268,611.3Z" transform="translate(-705.459 -592.343)"/></clipPath><clipPath id="e"><path class="a" d="M719.6,667.9c-.015-.044-.031-.086-.047-.129l-.047-.122,0-.014c-.032-.08-.064-.158-.1-.234-.018-.041-.035-.08-.052-.12q-.077-.171-.158-.332l0-.011h0a6.357,6.357,0,0,0-6.353-3.551l4.8-5.73a.448.448,0,0,0-.343-.735H712.86a1.606,1.606,0,0,0-1.248.595l-.064.079c-.022.026-.043.054-.067.082-.525.654-1.334,1.671-2.2,2.813l-.228.3-.114.152-.229.307-.011.014c-.072.1-.146.2-.218.3-.04.052-.078.1-.116.157-.077.1-.153.209-.229.313-.262.36-.521.722-.769,1.08a25.4,25.4,0,0,0-1.918,3.107,9.109,9.109,0,0,0-1,5.433c.01.058.02.116.03.173s.022.114.034.17l.034.148c.011.046.023.092.035.138s.017.064.026.1.022.078.034.116c.016.054.034.107.05.161s.036.106.055.158a6.2,6.2,0,0,0,.381.855c.015.03.031.059.047.087l.072.126c.018.031.038.063.057.094s.046.076.07.114.044.068.066.1.036.052.054.078a6.391,6.391,0,0,0,.5.636c.03.034.06.068.093.1q.157.171.327.331c.032.03.063.06.1.089s.059.054.09.08l.086.075a7.341,7.341,0,0,0,.86.629c.038.026.077.05.117.073.081.05.163.1.247.145.041.023.082.046.123.067a8.4,8.4,0,0,0,1.3.561c.044.015.09.03.134.043l.12.038.139.041c.038.012.078.022.117.033.059.017.119.031.179.046l.176.041a8.813,8.813,0,0,0,.875.155c.05.007.1.013.152.018s.1.011.144.015c.114.011.228.019.342.026l.165.008.144,0a9.4,9.4,0,0,0,1.039-.031C718.553,677.012,721.465,673.1,719.6,667.9Z" transform="translate(-704.355 -656.92)"/></clipPath><clipPath id="f"><path class="a" d="M719.132,527.19h-1.4V516.342a.5.5,0,0,0-.505-.5H711.98a.5.5,0,0,0-.408.207l-8.591,11.744a.5.5,0,0,0-.1.3v3.75a.506.506,0,0,0,.505.506h9.054v3.237a.5.5,0,0,0,.5.5h4.284a.5.5,0,0,0,.505-.5V532.6h1.4a.5.5,0,0,0,.506-.5v-4.4A.505.505,0,0,0,719.132,527.19Zm-6.4.234h-2.339l1.368-1.87.971-1.327Z" transform="translate(-702.884 -515.837)"/></clipPath></defs><g transform="translate(-694.778 -204.144)"><path class="b" d="M1031.978,550.531c8.706,8.427,19.591,14.388,29.8,23.406,21.1,18.64,25.616,33.617,39.318,50.356,2.74,3.347,29.3,34.99,68.635,43.8,36.992,8.288,91.765-2.163,111.4-41.044,15.074-29.843,2.323-62.331-4.484-79.672-3.878-9.88-26.36-63.614-68.635-71.395-17.7-3.257-27.437,3.64-43.113-5.174-14.809-8.326-13.175-18.449-28.627-32.766-3.607-3.343-26.006-24.1-55.184-22.074-31.087,2.154-49.874,28.777-53.46,34.145-14.976,22.416-17.507,53.776-9.16,79.113A50.834,50.834,0,0,0,1031.978,550.531Z" transform="translate(-33.586 -99.783)"/><g transform="translate(992.546 265.528)"><g transform="translate(139.992 94.321)"><path class="c" d="M1255.039,526c.141.74-.47,9.924,1.381,13.481s5.033,8.608,5.561,10.722c.622,2.488,2.006,2.317,1.583-.74a32.177,32.177,0,0,0-1.638-6.519c-.208-.341.88,2.053,1.84,4.8,1.021,2.921,1.943,6.21,2.6,5.957,1.282-.491-1.075-9.284-1.756-10.661a29.96,29.96,0,0,1,1.739,3.665c.675,1.726,1.153,3.9,1.789,3.969,1,.115.361-4.938-1.206-8.438.095-.141.991.736,2.5,5.071.152.435,1.006,1.241.911-.448-.2-3.555.021-5.158-2.348-8.954-2.311-3.7-5.942-7.024-7.11-10.586Z" transform="translate(-1224.499 -456.013)"/><path class="c" d="M1241.756,444.235c4.266,15.435,10.764,53.729,11.221,62.422a17.557,17.557,0,0,0-5.84,4.692c-.04-.209-.08-.416-.119-.616-2.692-7.121-16.736-36.825-19.125-49.137,1.968-4.185-7.666.943-7.153.525.782-.639,1.578-8.6-3.9-10.825C1223.251,444.6,1237.985,430.561,1241.756,444.235Z" transform="translate(-1216.841 -438.463)"/><path class="c" d="M1255.691,540.158s-1.926,5.287-.421,8.834a3.453,3.453,0,0,1,.286,2.9c.113,1.449,1.973-1.236,1.55-3.247-.344-1.634,2.037-4.222,2.119-5.393s-.378-4.212-1.167-4.532S1255.691,540.158,1255.691,540.158Z" transform="translate(-1224.43 -458.556)"/><path class="c" d="M1260.68,525.988l-.315-6.633-6.387,6.251s.573.209.889,4.452,4.233.289,4.233.289Z" transform="translate(-1224.287 -454.681)"/></g><g transform="translate(41.597 190.042)"><path class="c" d="M1133.529,709.259s2.348,10.513,4,13.794-6.86,3.459-7.208,3.644-7.448-3.106-7.448-3.106,3.948-1.878.627-14.821S1133.529,709.259,1133.529,709.259Z" transform="translate(-1099.607 -587.248)"/><path class="d" d="M1140.132,568.732c-.257,4.157-2.837,9.88-3.846,19.189a74.98,74.98,0,0,0,.062,15.985c1.768,16.863-3.335,22.756-3.748,28.192a8.107,8.107,0,0,0,.188,2.544c3.6,15.061.735,46.073.735,46.073s-1.544.368-3.759.775c-5.285.97-14.4,2.147-15.629-.951-1.745-4.4-7.592-15.253-8.54-21.58s.126-17.842.615-20.671-.76-15.152-2.867-19.148c-2.4-4.562-2.33-14.837-1.43-25,1.043-11.778,3.2-23.409,3.928-25.831,0,0,17.809-11.021,22.123-10.059S1140.511,562.6,1140.132,568.732Z" transform="translate(-1095.289 -558.187)"/><path class="e" d="M1140.277,568.732c-.256,4.157-2.837,9.88-3.845,19.189-4.791.1-11.272-1.683-17.67-2.93-5.356-1.041-12.107,4.582-16.7,9.144,1.043-11.778,3.2-23.409,3.928-25.831,0,0,17.809-11.021,22.123-10.059S1140.656,562.6,1140.277,568.732Z" transform="translate(-1095.434 -558.187)"/><g class="f" transform="translate(7.896 39.363)"><g transform="translate(3.002)"><path class="g" d="M1121.192,609.209l-.33.53L1117.7,614.8l-5.286,8.479q.325.355.629.742c.13.166.256.335.381.505l4.4-8.191c1.319-2.468,2.645-4.95,3.733-6.986Z" transform="translate(-1108.41 -607.779)"/><path class="g" d="M1119.166,608.328l-1.193,1.914-2.521,4.042-4.726,7.578a9.834,9.834,0,0,1,.964.84l3.861-7.191,3.344-6.257.449-.848Z" transform="translate(-1108.07 -607.603)"/><path class="g" d="M1109.9,621.3c1.378-2.562,6.793-12.638,7.409-13.87l-.014-.006-7.978,12.791.128.812C1109.6,621.109,1109.753,621.2,1109.9,621.3Z" transform="translate(-1107.788 -607.421)"/><path class="g" d="M1115.03,608.058c-.117.308-6.215,11.642-6.215,11.642l-.213-1.34Z" transform="translate(-1107.644 -607.549)"/><path class="g" d="M1112.986,608.6c-.094.245-4.963,9.3-4.963,9.3l-.173-1.069Z" transform="translate(-1107.494 -607.658)"/><path class="g" d="M1111.508,608.811c-.074.2-3.966,7.427-3.966,7.427l-.138-.854Z" transform="translate(-1107.404 -607.7)"/></g><g transform="translate(0 1.828)"><path class="g" d="M1116.421,622.594l-11.635-9.846q-.558.5-1.137.974c3.335,2.53,8.237,6.246,12.474,9.448Z" transform="translate(-1103.649 -610.318)"/><path class="g" d="M1117.668,620.635l-11.176-9.457q-.44.45-.9.876c2.8,2.124,7.846,5.95,11.866,8.986Z" transform="translate(-1104.038 -610.003)"/><path class="g" d="M1118.82,618.823l-10.278-8.7-.869-.08q-.187.214-.381.422c1.931,1.466,7.527,5.71,11.391,8.626C1118.729,619,1118.776,618.913,1118.82,618.823Z" transform="translate(-1104.38 -609.776)"/><path class="g" d="M1120.022,617.369l-8.665-7.333-1.549-.144s6.372,4.838,10.124,7.667Z" transform="translate(-1104.884 -609.745)"/><path class="g" d="M1121.18,616.031l-7.336-6.208-1.239-.114s5.6,4.253,8.519,6.449C1121.142,616.115,1121.161,616.073,1121.18,616.031Z" transform="translate(-1105.445 -609.708)"/><path class="g" d="M1122.231,615.083l-6.154-5.207-.991-.091s4.862,3.691,7.093,5.368Z" transform="translate(-1105.942 -609.724)"/></g></g><path class="h" d="M1139,653.178c3.6,15.061.735,46.073.735,46.073s-1.544.368-3.759.775c-.015-.322-3.813.277-3.646-.051,6.93-13.566,4.911-35.914,5.278-41.777.084-1.35.177-5.435,1.2-7.563A8.115,8.115,0,0,0,1139,653.178Z" transform="translate(-1101.502 -576.721)"/><g transform="translate(0 135.206)"><path class="i" d="M1096.653,744.829c4-.062,11.834-1.848,17.552-3.032h0c.182-.042.351-.076.524-.111a29.338,29.338,0,0,1,6.06-.912c.082.016.182.024.3.034.3.026.7.046,1.2.047,4.451.024,15.786-.987,15.419-4.382a8.4,8.4,0,0,0-.474-1.908c-.048-.133-.1-.268-.154-.4-.006-.009-.006-.014-.012-.022-.07-.178-.143-.36-.227-.54,0,0,0,0-.006-.009-1.515-3.337-4.472-6.66-4.958-6.263-6.5,5.318-14.234,1.337-15.845.407-.2-.115-.3-.185-.3-.185s-.269.059-.776.187l-1.043.283c-.226.062-.469.131-.735.209-.09.028-.181.05-.27.083-.217.06-.446.128-.689.2-.117.037-.233.073-.359.115h0q-.991.311-2.2.729c-.505.174-1.032.361-1.589.567-.839.3-1.736.651-2.686,1.028-.088.041-.179.088-.266.134-.469.225-.927.468-1.374.714a30.478,30.478,0,0,0-4.214,2.784l0,.006C1093.411,739.414,1091.723,744.908,1096.653,744.829Z" transform="translate(-1093.773 -727.298)"/><path class="j" d="M1100.956,734.593a9.473,9.473,0,0,1,7.741,5.823s2.987-1.026,6.392-2.057c.293-.086.594-.174.9-.261.544-.161,1.1-.325,1.649-.477.473-.132.943-.259,1.4-.379,2.542-.663,4.763-1.1,5.541-.863,2.107.634,14.677,1.126,14.1-1.815a1.483,1.483,0,0,0-.154-.4c-.006-.009-.006-.014-.012-.022a3.563,3.563,0,0,1-.227-.54s0,0-.006-.009c-1.515-3.337-4.472-6.66-4.958-6.263-6.5,5.318-14.234,1.337-15.845.407-.2-.115-.3-.185-.3-.185s-.269.059-.776.187l-1.043.283c-.226.062-.469.131-.735.209-.09.028-.181.05-.27.083-.217.06-.446.128-.689.2-.117.037-.234.073-.359.115h0q-.99.311-2.2.729c-.505.174-1.032.361-1.589.567-.839.3-1.736.651-2.686,1.028-.088.041-.179.088-.266.134-.469.225-.927.468-1.374.714a30.473,30.473,0,0,0-4.214,2.784Z" transform="translate(-1095.213 -727.298)"/><g transform="translate(18.444 0.725)"><path class="k" d="M1116.842,728.7c.152.1.368.256.632.456a13.824,13.824,0,0,1,2.575,2.44,6.486,6.486,0,0,1,.662,1c.072.135.136.276.194.417l1.29-.527a7.071,7.071,0,0,0-.959-1.633v0a10.571,10.571,0,0,0-.8-.938,15.579,15.579,0,0,0-1.9-1.7c-.225.062-.469.131-.735.209-.09.028-.181.05-.27.083C1117.314,728.556,1117.085,728.624,1116.842,728.7Z" transform="translate(-1116.842 -728.204)"/></g><g transform="translate(14.288 2.063)"><path class="k" d="M1111.644,730.445c.875.608,3.15,2.326,3.917,4.214l1.294-.528a11.659,11.659,0,0,0-3.623-4.253C1112.727,730.052,1112.2,730.239,1111.644,730.445Z" transform="translate(-1111.644 -729.878)"/></g><g transform="translate(9.961 3.792)"><path class="k" d="M1106.232,732.754a10.943,10.943,0,0,1,3.554,3.953l1.29-.527a11.387,11.387,0,0,0-3.469-4.14C1107.137,732.266,1106.68,732.508,1106.232,732.754Z" transform="translate(-1106.232 -732.04)"/></g></g></g><path class="l" d="M1130.137,371.57s18.717-.267,20.321-7.487,1.872-11.157,0-15.339,10.7,4.643,10.7,4.643-1.337,5.616,0,9.894,4.278,4.364,8.823,3.92,0,13.995,0,13.995-16.283,1.766-17.5,2.354-18.062.214-18.864,0S1130.137,371.57,1130.137,371.57Z" transform="translate(-1059.466 -325.928)"/><path class="m" d="M1123.082,515.976c.761.057,4.388-1.47,10.187,2.209s11.728,9.429,16.116,8.545,1.448-5.887-1.09-6.985c-2.286-.988-6.6-2.274-5.666-3.914s2.97-1.454,5.02.006,3.687.054,2.984-.765a28.8,28.8,0,0,0-7.016-3.982c-.907-.182-5.032,1.061-7.2.537s-10.774-3.38-10.774-3.38Z" transform="translate(-1058.052 -358.132)"/><path class="n" d="M1217.188,484.647l-.46-.632A6.718,6.718,0,0,1,1217.188,484.647Z" transform="translate(-1076.827 -353.274)"/><path class="n" d="M1229.653,449.142c-2.98,3.055-24.195,8.435-29.04,9.542-26.5,6.044-28.33-17.1-28.33-17.1l3.106,15.622,3.459,20.115,15.618,49.352a43.309,43.309,0,0,1-10.123,6.626c-.725.353-1.493.7-2.287,1.037a46.165,46.165,0,0,1-16.734,3.692c-2.092,0-24.108.265-44.921.521a.015.015,0,0,1-.019,0c-.181,0-.357,0-.534.01-19.306.237-37.407.469-37.407.469l3.334-29.553,1.8-15.958,1.232-10.894,3.874-34.348.288-2.538-3.26,14.061-47.966-13.852s2.631-11.666,17.752-57.741c5.593-17.05,27.972-30.781,57.465-21.281a76.378,76.378,0,0,1,8.425,3.273c1.451.66,7,12.471,15.972,8.314.191-.089.381-.177.568-.274,8.193-3.953,10.067-8.458,11.41-10.309,0-.01,0-.01.01-.014.046-.056.088-.112.13-.168.943-1.19,3.24-2.451,6.384-3.519a52.791,52.791,0,0,1,21.356-2.5,20.986,20.986,0,0,1,9.672,3.24c7.235,5.083,13.94,14.075,18.036,26.359q.377,1.124.72,2.279c.117.358.233.721.353,1.079,1.038,3.2,2.089,6.478,3.134,9.784,1.07,3.376,2.13,6.774,3.171,10.146C1218.349,421.243,1227.919,443.181,1229.653,449.142Z" transform="translate(-1041.744 -328.706)"/><path class="o" d="M1148.426,404.18l10.5,21.266,23.469,3.41-16.982,16.554,4.009,23.374-20.991-11.036-20.991,11.036,4.009-23.374-16.982-16.554,23.469-3.41Z" transform="translate(-1056.323 -337.268)"/><path class="p" d="M1106.332,504.047c-2.9,3.627-7.36,17.571-9.513,24.676l6.906-61.2,1.79-7.955c11.159-10.012,6.4,19.2,7.546,28.065S1110.271,499.123,1106.332,504.047Z" transform="translate(-1052.786 -347.96)"/><path class="p" d="M1159.808,379.6c-2.655,3.441-8.867,6.98-12.434,4.645-5.263-3.44-14.674-3.445-16.316-11.484-.651-3.18,1.251-4.3,3.785-4.478a77.35,77.35,0,0,1,8.425,3.273c1.451.66,7,12.471,15.972,8.314C1159.432,379.782,1159.622,379.694,1159.808,379.6Z" transform="translate(-1059.625 -330.071)"/><path class="m" d="M1217.188,484.647l-.46-.632A6.718,6.718,0,0,1,1217.188,484.647Z" transform="translate(-1076.827 -353.274)"/><g transform="translate(2.812 99.342)"><path class="q" d="M1107.54,445.61c-2.925-1.8-4.459-.792-7.473,2.975-2.954,3.693-21.968,28.463-26.744,34.825l.667.5.229-.306-.546.731-.669-.5c-4.44,5.952-22.807,31.06-25.516,34.935-2.766,3.955-3,5.339-.447,7.639S1062.866,538.742,1068,542s7.107,5.031,12.327-1.944l24.236-32.382,1.306-1.744,24.236-32.382c5.22-6.976,2.926-8.29-1.651-12.3S1110.468,447.412,1107.54,445.61Z" transform="translate(-1045.262 -444.743)"/><path class="q" d="M1076.587,486.442c-2.916,3.91-10.853,14.733-17.419,23.731L1074.9,521.95l17.361-23.2,17.917-23.938-15.735-11.776C1087.663,471.875,1079.516,482.542,1076.587,486.442Z" transform="translate(-1048.05 -448.411)"/><path class="q" d="M1076.748,487.187c-2.7,3.619-10.059,13.671-15.989,21.821l15.734,11.777,16.1-21.51,16.319-21.8L1093.175,465.7C1087.028,473.682,1079.459,483.576,1076.748,487.187Z" transform="translate(-1048.369 -448.944)"/><g transform="translate(8.912 8.974)"><g transform="translate(0 61.277)"><path class="r" d="M1065.364,533.727a5.6,5.6,0,1,1-7.838,1.128A5.6,5.6,0,0,1,1065.364,533.727Z" transform="translate(-1056.408 -532.61)"/><path class="s" d="M1063.9,538.143a1.4,1.4,0,1,1-1.96.282A1.4,1.4,0,0,1,1063.9,538.143Z" transform="translate(-1057.461 -533.663)"/></g><g transform="translate(45.863)"><path class="r" d="M1122.729,457.084a5.6,5.6,0,1,1-7.84,1.128A5.6,5.6,0,0,1,1122.729,457.084Z" transform="translate(-1113.772 -455.967)"/><path class="s" d="M1121.265,461.5a1.4,1.4,0,1,1-1.96.282A1.4,1.4,0,0,1,1121.265,461.5Z" transform="translate(-1114.825 -457.021)"/></g></g><g transform="translate(21.456 17.696)"><rect class="s" width="2.652" height="14.851" transform="matrix(0.599, -0.801, 0.801, 0.599, 0, 68.365)"/><rect class="s" width="2.652" height="14.851" transform="translate(2.224 65.394) rotate(-53.191)"/><rect class="s" width="3.182" height="14.851" transform="translate(4.448 62.422) rotate(-53.195)"/><rect class="s" width="2.653" height="14.851" transform="translate(6.674 59.447) rotate(-53.172)"/><rect class="s" width="2.652" height="14.851" transform="matrix(0.599, -0.8, 0.8, 0.599, 8.899, 56.474)"/><rect class="s" width="3.182" height="14.851" transform="matrix(0.599, -0.801, 0.801, 0.599, 11.123, 53.503)"/><rect class="s" width="2.652" height="14.851" transform="translate(13.665 50.107) rotate(-53.193)"/><rect class="s" width="2.652" height="14.851" transform="translate(15.573 47.558) rotate(-53.178)"/><rect class="s" width="2.652" height="14.851" transform="matrix(0.6, -0.8, 0.8, 0.6, 17.799, 44.583)"/><rect class="s" width="2.652" height="14.851" transform="matrix(0.599, -0.801, 0.801, 0.599, 20.34, 41.189)"/><rect class="s" width="2.652" height="14.851" transform="translate(22.564 38.217) rotate(-53.189)"/><rect class="s" width="2.652" height="14.851" transform="matrix(0.599, -0.801, 0.801, 0.599, 24.472, 35.668)"/><rect class="s" width="3.182" height="14.851" transform="translate(26.696 32.698) rotate(-53.196)"/><rect class="s" width="2.122" height="14.851" transform="translate(29.239 29.298) rotate(-53.175)"/><rect class="s" width="2.652" height="14.851" transform="translate(31.464 26.327) rotate(-53.186)"/><rect class="s" width="3.182" height="14.851" transform="matrix(0.599, -0.801, 0.801, 0.599, 33.37, 23.781)"/><rect class="s" width="2.652" height="14.851" transform="matrix(0.599, -0.801, 0.801, 0.599, 35.913, 20.381)"/><rect class="s" width="3.182" height="14.851" transform="matrix(0.599, -0.801, 0.801, 0.599, 37.819, 17.835)"/><rect class="s" width="2.652" height="14.851" transform="translate(40.361 14.44) rotate(-53.204)"/><rect class="s" width="2.652" height="14.851" transform="matrix(0.599, -0.801, 0.801, 0.599, 42.587, 11.464)"/><rect class="s" width="2.652" height="14.851" transform="matrix(0.599, -0.801, 0.801, 0.599, 44.812, 8.493)"/><rect class="s" width="2.652" height="14.851" transform="translate(47.038 5.518) rotate(-53.161)"/><rect class="s" width="3.182" height="14.851" transform="matrix(0.599, -0.801, 0.801, 0.599, 49.261, 2.547)"/></g><rect class="t" width="2.122" height="9.547" transform="translate(22.727 84.363) rotate(-53.191)"/><rect class="t" width="1.591" height="9.547" transform="translate(27.495 77.993) rotate(-53.182)"/><rect class="t" width="1.591" height="9.548" transform="matrix(0.599, -0.801, 0.801, 0.599, 29.719, 75.021)"/><rect class="t" width="2.122" height="9.547" transform="translate(31.626 72.473) rotate(-53.177)"/><rect class="t" width="1.591" height="9.547" transform="translate(36.394 66.104) rotate(-53.182)"/><rect class="t" width="2.121" height="9.547" transform="matrix(0.599, -0.801, 0.801, 0.599, 38.3, 63.557)"/><rect class="t" width="1.591" height="9.547" transform="translate(43.067 57.187) rotate(-53.188)"/><rect class="t" width="1.592" height="9.547" transform="translate(45.292 54.216) rotate(-53.194)"/><rect class="t" width="1.591" height="9.547" transform="translate(47.517 51.243) rotate(-53.199)"/><rect class="t" width="2.121" height="9.546" transform="matrix(0.599, -0.801, 0.801, 0.599, 51.649, 45.722)"/><rect class="t" width="1.591" height="9.548" transform="translate(54.192 42.323) rotate(-53.168)"/><rect class="t" width="1.591" height="9.548" transform="translate(58.639 36.382) rotate(-53.223)"/><rect class="t" width="1.592" height="9.547" transform="matrix(0.599, -0.801, 0.801, 0.599, 60.864, 33.41)"/><rect class="t" width="2.122" height="9.547" transform="translate(63.09 30.434) rotate(-53.17)"/><rect class="t" width="2.652" height="9.547" transform="translate(67.222 24.914) rotate(-53.178)"/><rect class="t" width="2.121" height="9.547" transform="matrix(0.599, -0.801, 0.801, 0.599, 69.764, 21.519)"/><path class="r" d="M1102.761,473.69c1.721,1.288-3.981,11.81-12.733,23.5s-17.241,20.13-18.96,18.844,3.981-11.81,12.733-23.5S1101.042,472.4,1102.761,473.69Z" transform="translate(-1050.374 -450.52)"/><path class="s" d="M1094.1,495.469l-5.873,7.847-4.091-.73,8.111-10.835Z" transform="translate(-1053.056 -454.167)"/></g><g transform="translate(8.887 82.229)"><path class="c" d="M1055.248,429.863c-.176.748-4.21,24.367-1.393,31.186s24.99,31.728,33.667,36.614c0,0-2.486-10.051-2.521-10.78s-16.974-30.213-17.208-33.768c-.08-1.213,2.167-12.139,2-24.573S1055.248,429.863,1055.248,429.863Z" transform="translate(-1052.859 -423.338)"/><g transform="translate(32.247 65.999)"><path class="c" d="M1095.646,505.887c.493.565,7.946,5.74,9.638,9.375s3.776,9.228,5.109,10.942c1.569,2.016.644,2.993-1.479.78a33.246,33.246,0,0,1-4.1-5.291c-.146-.372,1.084,1.951,2.66,4.392,1.675,2.6,3.691,5.339,3.116,5.7-1.114.7-6.566-6.553-7.241-7.932a31.3,31.3,0,0,0,1.84,3.614c.948,1.589,2.353,3.3,2.045,3.84-.485.854-4.026-2.758-5.836-6.135-.164-.012,0,1.227,2.489,5.076.25.387.384,1.549-.869.436-2.637-2.343-4-3.157-5.581-7.345-1.54-4.083-2.022-9.02-4.238-11.566Z" transform="translate(-1093.193 -505.887)"/><path class="c" d="M1106.361,515.533s5.193,1.748,7.075,5.107c1.118,2,1.761,1.713,2.079,2.009,1.057.979-2.087.78-3.4-.788-1.067-1.274-4.433-1.007-5.386-1.664s-3.041-2.888-2.837-3.7S1106.361,515.533,1106.361,515.533Z" transform="translate(-1095.335 -507.821)"/></g><path class="c" d="M1094.541,504.055s-1.537-1.138-4.723-5.848-1.864,3.5-1.864,3.5l6.009,9.133Z" transform="translate(-1059.841 -438.056)"/></g><path class="n" d="M1041.745,454.5l47.966,13.848-14.822-64.173-18.913,3.387Z" transform="translate(-1041.744 -337.268)"/><path class="u" d="M1146.838,566.616l-7.4,10.4,24.178-.317,2.092-23.492Z" transform="translate(-1061.331 -367.146)"/><g transform="translate(87.561 180.342)"><path class="c" d="M1241.946,674.821s3.687,10.122,4.063,13.776,7.642-.784,8.036-.815,4.6-6.63,4.6-6.63-4.338.546-8.515-12.148S1241.946,674.821,1241.946,674.821Z" transform="translate(-1169.444 -569.813)"/><path class="d" d="M1230.227,622.287c2.611,5.841,3.535,18.136,4.436,22.78s-16.236,10.6-16.236,10.6-19.121-24.583-24.209-39.207c-2.168-6.227-10.777-6.458-19.562-23.972a74.519,74.519,0,0,0-8.972-14c-5.7-6.954-10.771-10.306-13.171-13.588-3.626-4.964,1.485-12.251,4.6-15.391s24.057-3.449,24.057-3.449a139.119,139.119,0,0,1,9.677,10.409c8.443,9.8,19.213,23.864,19.821,31.069.378,4.5,5.97,15.559,7.9,17.675S1227.615,616.447,1230.227,622.287Z" transform="translate(-1151.263 -546.054)"/><path class="e" d="M1190.845,556.463a57.665,57.665,0,0,0-14.655,13.4,36.284,36.284,0,0,1-10.506,8.615c-5.7-6.954-10.771-10.306-13.171-13.588-3.626-4.964,1.485-12.251,4.6-15.391s24.057-3.449,24.057-3.449A139.119,139.119,0,0,1,1190.845,556.463Z" transform="translate(-1151.263 -546.054)"/><g class="f" transform="translate(50.579 49.218)"><path class="g" d="M1215.965,607.834l.31.249,2.949,2.377,4.936,3.98q.249-.178.516-.34c.115-.069.231-.136.348-.2l-4.823-3.4-4.115-2.887C1216.045,607.688,1216.006,607.761,1215.965,607.834Z" transform="translate(-1214.814 -607.614)"/><path class="g" d="M1215.248,609.125l1.114.9,2.355,1.9,4.412,3.558a6.275,6.275,0,0,1,.6-.542l-4.234-2.984-3.687-2.586-.5-.348C1215.291,609.054,1215.27,609.089,1215.248,609.125Z" transform="translate(-1214.67 -607.896)"/><path class="g" d="M1222.7,616.053c-1.509-1.065-7.442-5.249-8.17-5.731l-.006.007,7.447,6.008.521-.018C1222.559,616.228,1222.629,616.138,1222.7,616.053Z" transform="translate(-1214.525 -608.157)"/><path class="g" d="M1214.723,612.054c.185.1,6.858,4.808,6.858,4.808l-.861.031Z" transform="translate(-1214.565 -608.504)"/><path class="g" d="M1214.884,613.587c.148.078,5.477,3.84,5.477,3.84l-.687.026Z" transform="translate(-1214.597 -608.812)"/><path class="g" d="M1214.883,614.7c.118.062,4.375,3.067,4.375,3.067l-.548.022Z" transform="translate(-1214.597 -609.034)"/><g transform="translate(0.616 0.344)"><path class="g" d="M1223.886,611.478l-7.095,6.577q.271.389.527.791c1.848-1.908,4.566-4.711,6.908-7.136Z" transform="translate(-1215.595 -608.733)"/><path class="g" d="M1222.742,610.645l-6.814,6.316q.25.312.483.635c1.553-1.6,4.35-4.487,6.571-6.786Z" transform="translate(-1215.422 -608.565)"/><path class="g" d="M1221.679,609.854l-6.267,5.808-.117.541q.12.134.237.273c1.071-1.1,4.174-4.3,6.307-6.516Z" transform="translate(-1215.295 -608.407)"/><path class="g" d="M1220.848,609.168l-5.284,4.9-.209.965s3.536-3.644,5.606-5.791Z" transform="translate(-1215.307 -608.269)"/><path class="g" d="M1220.093,608.573l-4.473,4.146-.167.771s3.109-3.2,4.716-4.873Z" transform="translate(-1215.327 -608.15)"/><path class="g" d="M1219.578,608.044l-3.752,3.478-.133.618s2.7-2.781,3.926-4.058Z" transform="translate(-1215.375 -608.044)"/></g></g><g transform="translate(75.204 106.11)"><path class="i" d="M1285.414,686c-3.4,2.1-10.964,4.822-16.42,6.9l0,0c-.176.063-.337.125-.5.189a29.319,29.319,0,0,0-5.6,2.5c-.061.058-.141.119-.235.192-.235.181-.568.417-.983.684-3.737,2.419-13.829,7.676-15.35,4.618a8.4,8.4,0,0,1-.629-1.863c-.032-.139-.063-.277-.086-.42,0-.01,0-.014,0-.025-.038-.187-.073-.38-.1-.576,0-.006,0-.006,0-.01-.522-3.627.177-8.021.8-7.948,8.341.976,12.71-6.544,13.566-8.195.106-.206.157-.32.157-.32s.257-.1.754-.261c.273-.086.62-.2,1.032-.324.223-.07.466-.142.732-.22.09-.026.179-.055.272-.076q.322-.1.689-.2c.118-.032.236-.065.364-.1l.005,0q1-.272,2.25-.573c.519-.125,1.064-.251,1.644-.378.87-.2,1.813-.388,2.816-.582.1-.013.2-.022.3-.031.516-.062,1.032-.1,1.541-.139a30.563,30.563,0,0,1,5.051.074l.006,0C1285.227,679.692,1289.61,683.411,1285.414,686Z" transform="translate(-1245.326 -678.773)"/><path class="j" d="M1277.486,678.92A9.473,9.473,0,0,0,1274.1,688s-3.069.746-6.493,1.712l-.9.263c-.546.158-1.1.319-1.646.487-.471.144-.935.29-1.385.436-2.5.812-4.6,1.641-5.132,2.259-1.433,1.669-11.757,8.859-12.856,6.07a1.507,1.507,0,0,1-.086-.42c0-.01,0-.014,0-.025a3.524,3.524,0,0,0-.1-.576c0-.006,0-.006,0-.01-.522-3.627.177-8.021.8-7.948,8.341.976,12.71-6.544,13.566-8.195.106-.206.157-.32.157-.32s.257-.1.754-.261c.273-.086.62-.2,1.032-.324.223-.07.466-.142.732-.22.09-.026.179-.055.272-.076q.322-.1.689-.2c.118-.032.236-.065.364-.1l.005,0q1-.272,2.25-.573c.519-.125,1.064-.251,1.644-.378.87-.2,1.813-.388,2.816-.582.1-.013.2-.022.3-.031.516-.062,1.032-.1,1.541-.139a30.563,30.563,0,0,1,5.051.074Z" transform="translate(-1245.326 -678.773)"/><g transform="translate(15.614 1.872)"><path class="k" d="M1267.428,681.115c-.072.17-.172.413-.287.724a13.849,13.849,0,0,0-.855,3.443,6.572,6.572,0,0,0-.019,1.2c.012.153.034.305.062.457l-1.37.251a7.115,7.115,0,0,1-.072-1.893l0,0a10.447,10.447,0,0,1,.171-1.222,15.506,15.506,0,0,1,.679-2.458c.223-.07.466-.142.731-.22.09-.026.179-.055.272-.076Q1267.061,681.218,1267.428,681.115Z" transform="translate(-1264.856 -681.115)"/></g><g transform="translate(19.942 0.822)"><path class="k" d="M1272.776,679.8c-.411.983-1.4,3.657-1.029,5.661l-1.374.253a11.647,11.647,0,0,1,.76-5.535C1271.651,680.055,1272.2,679.929,1272.776,679.8Z" transform="translate(-1270.27 -679.802)"/></g><g transform="translate(24.765 0.07)"><path class="k" d="M1278.64,678.861a10.953,10.953,0,0,0-.863,5.245l-1.37.251A11.385,11.385,0,0,1,1277.1,679C1277.615,678.938,1278.13,678.9,1278.64,678.861Z" transform="translate(-1276.302 -678.861)"/></g><g transform="translate(14.491 2.693)"><path class="v" d="M1268.7,691.133a5.752,5.752,0,0,1-.713,1.093,7.967,7.967,0,0,0-1.7,4.233,4.913,4.913,0,0,0,.76,3.638l-.659.656a5.2,5.2,0,0,1-1.084-3.611,8.99,8.99,0,0,1,1.959-5.505c.015-.022.035-.046.05-.069,1.622-2.045.711-3.15-1.331-4.88q-.175-.151-.368-.309c-.227-.189-.456-.381-.68-.576-.117-.1-.229-.2-.334-.3a3.284,3.284,0,0,1-1.153-2.235,2.14,2.14,0,0,1,.059-.54c.106-.206.157-.32.157-.32s.257-.1.754-.261l.265.285a1.186,1.186,0,0,0-.309.836,1.87,1.87,0,0,0,.4,1.015,4.578,4.578,0,0,0,.766.823l.464.389c.073.059.141.121.211.176C1268.03,687.18,1269.9,688.744,1268.7,691.133Z" transform="translate(-1263.451 -682.142)"/></g><g transform="translate(17.458 1.774)"><path class="v" d="M1272.183,684.687a17.5,17.5,0,0,1-.12,2.636,12.568,12.568,0,0,0-.074,2.829,4.009,4.009,0,0,0,1.665,2.826l-.282.371,0,0-.28.365c-.077-.057-.149-.117-.221-.176a4.838,4.838,0,0,1-1.774-3.124,12.906,12.906,0,0,1,.044-3.182,15.956,15.956,0,0,0,.118-2.493,2.519,2.519,0,0,0-.171-.769,2.848,2.848,0,0,0-1.2-1.349,6.533,6.533,0,0,0-2.281-.808c-.265-.045-.431-.062-.441-.062l.039-.46q.323-.1.689-.2c.118-.032.236-.065.364-.1l0,0a7.493,7.493,0,0,1,1.856.678,4.462,4.462,0,0,1,1.2.928A3.332,3.332,0,0,1,1272.183,684.687Z" transform="translate(-1267.162 -680.992)"/></g></g></g><path class="w" d="M1202.817,565.765c-.725.353-1.493.7-2.287,1.037-4.887-5.933-16.8-16.335-33.911-4.622-10.945,7.491-24.838,8.668-27.744,8.835a.015.015,0,0,1-.019,0c-.344.023-.529.028-.529.028l0-.018-4.445-14.043,18.441-33.557,22.947.224s27.075,33.826,27.159,34.082C1202.473,557.885,1202.663,562.232,1202.817,565.765Z" transform="translate(-1060.216 -361.175)"/><g transform="translate(82.403)"><path class="x" d="M1147.855,336.32c2.441,3.191,3.112,1.943-.869,6.177-1.793,2.75,2.465,2.789,5.49,4.242a5.759,5.759,0,0,1,1.714,1.169c1.5,1.3,4.5,1.573,7.34,1.991,6.051-.727,7.52,4.077,7.347-1.991a2.386,2.386,0,0,1-.071-.237c-1.485-5.126,7.023-.427,5.285-4.985-3.974-1.8,4.866.174,1.991-7.339-4.234-3.16,5.173-5.774-1.991-7.347-.466-2.82-7.126-.94-5.214-5.214-1.912-2.3-5.522-.979-7.347-1.991-7.292-1.643-4.234,3.91-7.34,1.991-4.115-1.39-5.189,3.918-5.221,5.214C1146.607,330.545,1141.559,336.32,1147.855,336.32Z" transform="translate(-1144.811 -320.489)"/><path class="y" d="M1154.4,350.914a5.758,5.758,0,0,1,1.714,1.169c1.5,1.3,4.5,1.573,7.34,1.991,6.051-.727,7.52,4.077,7.347-1.991a2.391,2.391,0,0,1-.071-.237c-1.983-.371-3.8-1.1-3.8-2.662,0-7.074-8.38-7.873-8.38-7.873s-2.277,4.808-2.419,5.33C1156.057,346.909,1155.244,348.907,1154.4,350.914Z" transform="translate(-1146.733 -324.663)"/><path class="c" d="M1159.129,333.006s-9.091-2.132-9.091,8.454,1.069,11.924,9.091,8.715S1168.22,333.486,1159.129,333.006Z" transform="translate(-1145.859 -322.963)"/></g></g><g transform="translate(696.603 205.969)"><rect class="s" width="273.062" height="402.529" rx="16.557"/><g transform="translate(0 0)"><path class="z" d="M708.944,205.969h248.38c6.816,0,12.34,7.722,12.34,17.248V591.249c0,9.526-5.525,17.249-12.34,17.249H708.944c-6.816,0-12.341-7.722-12.341-17.249V223.217C696.6,213.691,702.128,205.969,708.944,205.969Z" transform="translate(-696.603 -205.969)"/><line class="z" x2="273.062" transform="translate(0 345.025)"/><line class="z" x2="273.062" transform="translate(0 287.521)"/><line class="z" x2="273.062" transform="translate(0 230.016)"/><line class="z" x2="273.062" transform="translate(0 172.512)"/><line class="z" x2="273.062" transform="translate(0 115.008)"/><line class="z" x2="273.062" transform="translate(0 57.504)"/><line class="z" y2="345.025" transform="translate(29.222 57.504)"/></g><g transform="translate(8.264 72.54)"><path class="w" d="M716,298.1v17.011a1.5,1.5,0,0,1-1.5,1.5h-3.1a1.5,1.5,0,0,1-1.5-1.5v-9.509l-1.187.81a1.138,1.138,0,0,1-1.779-.941v-4.086a1.137,1.137,0,0,1,.488-.934l5.031-3.5a1.4,1.4,0,0,1,.8-.253h1.331l.072,0,.042,0,.053,0c.025,0,.049.006.072.011a.558.558,0,0,1,.055.01l.054.012.008,0,.054.015.018.006.054.018a1.355,1.355,0,0,1,.148.064.484.484,0,0,1,.046.024c.022.012.044.025.066.038s.04.025.058.038a.849.849,0,0,1,.07.053c.015.011.031.024.047.038l.062.057c.014.014.028.028.041.042l.019.02.042.05h0A1.394,1.394,0,0,1,716,298.1Z" transform="translate(-706.939 -296.699)"/><g class="aa"><path class="ab" d="M707.694,315.17s-1.134-5.053,2.063-6.29,5.155-3.918,3.815-6.805a4.523,4.523,0,0,0-6.393-1.856c-4.434,3.4-4.64,7.217-4.64,7.217l4.64-16.806,11.651.515s1.753,13.3,1.443,14.436-2.268,11.342-2.578,11.754-5.258,1.444-5.877,1.134S707.694,315.17,707.694,315.17Z" transform="translate(-706.057 -295.482)"/></g></g><g transform="translate(6.741 130.013)"><path class="ac" d="M713.162,388.3l.3-.23C713.359,388.15,713.256,388.227,713.162,388.3Z" transform="translate(-706.664 -372.49)"/><path class="ad" d="M720.43,385.951v1.657a1.055,1.055,0,0,1-1.055,1.056H706.554a1.055,1.055,0,0,1-1.055-1.027l-.042-1.453a2.469,2.469,0,0,1,.871-1.951l.108-.09.2-.172.533-.454.137-.116.876-.753.41-.354c.439-.38.9-.776,1.35-1.174.276-.241.551-.484.82-.724.109-.094.215-.19.321-.284a30.474,30.474,0,0,0,2.975-2.876c.925-1.285.806-2.839-1.1-3.1-1.29-.174-2.478,1.41-3.109,2.446a1.058,1.058,0,0,1-1.378.4l-2.856-1.428a1.059,1.059,0,0,1-.5-1.362c2.111-4.91,5.748-5.794,8.27-5.588l.118.01.106.01c.111.013.221.026.327.042s.21.034.311.054.2.04.293.062c.127.03.249.062.365.1.1.029.191.058.279.089l.118.042c.078.027.158.057.238.088l.12.046c.084.032.17.067.256.1l.109.047c.082.036.164.072.246.111l.123.059c.041.019.082.039.124.061l.123.063.123.066.123.069c.041.022.081.046.122.071s.082.049.122.074c1.619,1,3.094,2.758,3.278,6.129.193,3.543-2.809,6.5-4.6,7.945l-.026.021-.1.079-.133.1-.008.007-.3.23-.017.012-.119.088-.125.09c-.106.074-.2.136-.267.186l-.045.03c-.1.066-.152.1-.152.1h4.855A1.055,1.055,0,0,1,720.43,385.951Z" transform="translate(-705.034 -368.584)"/><g class="ae"><path class="q" d="M703.432,373.822a2.82,2.82,0,0,1,3.2,1.34c1.134,1.96,3.3.928,5.568-.722s3.815-.205,4.331,1.341-.1,3.815-2.579,5.671-3.068,4.551-1.752,5.465c2.068,1.436,8.042,1.134,8.867,2.062s-9.177,4.64-9.8,4.536-7.63-1.237-8.867-4.021Z" transform="translate(-704.506 -369.611)"/></g></g><g transform="translate(8.071 186.802)"><path class="w" d="M719.569,449.653l.012-.017.014-.018c.03-.042.073-.1.126-.178.036-.054.078-.118.123-.189a6.884,6.884,0,0,0,1.119-3.517,5.71,5.71,0,0,0-3.612-5.5l-.03-.013-.007,0-.032-.012-.154-.058-.1-.035-.076-.026q-.068-.024-.139-.046l-.071-.022-.15-.044-.02-.006-.122-.033-.134-.034c-.049-.012-.1-.024-.148-.034l-.084-.019c-.113-.023-.228-.047-.345-.068-.145-.026-.293-.048-.446-.069l-.1-.012-.15-.017q-.237-.025-.486-.042c-.089-.006-.178-.01-.269-.014-.182-.008-.369-.012-.56-.012-.089,0-.177,0-.264,0-.065,0-.13,0-.194.008s-.114.006-.17.011c-.028,0-.055,0-.083.006-.058,0-.114.01-.17.016s-.109.01-.163.018h-.006l-.114.015-.122.018q-.338.051-.654.131c-.053.013-.106.027-.158.042s-.125.034-.185.054c-.076.022-.151.047-.224.073-.038.012-.074.026-.11.038-.066.024-.13.048-.193.074-.045.018-.091.036-.136.056s-.107.046-.161.071c-.033.014-.065.03-.1.046s-.074.034-.11.053-.08.041-.118.061a6.045,6.045,0,0,0-.734.456c-.039.028-.078.057-.117.086a6.4,6.4,0,0,0-.505.422l-.089.084c-.048.046-.1.094-.142.141l-.092.1q-.119.125-.227.253c-.042.048-.083.1-.123.146s-.1.122-.144.184-.09.121-.134.182c-.022.03-.044.063-.067.1s-.039.057-.058.086l-.06.091-.058.09c-.057.091-.112.181-.165.271-.034.061-.068.121-.1.18-.049.089-.1.177-.139.264s-.085.173-.125.259l-.038.085a8.772,8.772,0,0,0-.453,1.241.651.651,0,0,0,.383.773l3.254,1.368a.674.674,0,0,0,.907-.422,2.9,2.9,0,0,1,2.667-2.375c2.466,0,2.265,2.683.683,3.479a2.656,2.656,0,0,1-1.445.154.665.665,0,0,0-.759.65v1.86a.665.665,0,0,0,.759.65,2.641,2.641,0,0,1,1.445.155c1.582.795,1.783,3.477-.683,3.477a2.9,2.9,0,0,1-2.667-2.374.675.675,0,0,0-.907-.422l-3.254,1.368a.652.652,0,0,0-.383.773,9.037,9.037,0,0,0,.516,1.384c.034.073.07.146.108.22s.077.15.118.225.084.152.128.228c.022.038.046.077.068.115.07.114.144.231.223.346.052.077.106.154.163.231s.115.153.175.229c.03.038.062.077.093.114s.063.076.1.114q.146.17.307.332a6.735,6.735,0,0,0,5.007,1.972c6.136,0,7.238-3.958,7.238-6.119a7.156,7.156,0,0,0-1.416-3.949Zm-3.9-8.087c.221-.144.437-.294.644-.448Q716,441.351,715.665,441.566Z" transform="translate(-706.699 -439.615)"/><g class="af"><path class="ab" d="M705.333,439.232s.825,2.474,6.6,1.546,5.877,3.093,4.847,5.877.721,4.95-.206,7.63c-.459,1.326-5.568,6.187-9.28.413s-3.506-6.393-3.506-6.393v10.621s16.395,2.681,17.116,2.268-.206-7.94.928-10.414,3.3-6.187,2.165-9.074-2.887-5.052-6.29-5.98S705.333,439.232,705.333,439.232Z" transform="translate(-706.114 -438.81)"/></g></g><g transform="translate(7.081 308.91)"><path class="w" d="M717.268,611.3c-2.351,1.987-8.687,2.875-11.644-1.838a1.084,1.084,0,0,1,.46-1.553l2.258-1.068a1.074,1.074,0,0,1,1.348.354,2.687,2.687,0,0,0,2.416,1.025c2.62,0,3.08-2.6,1.475-3.948-.037-.031-.077-.062-.117-.093s-.067-.049-.1-.072c-.017-.013-.035-.025-.053-.036a3.416,3.416,0,0,0-.414-.234l-.082-.038a6.757,6.757,0,0,0-4.587-.094l-.093.026a1.082,1.082,0,0,1-1.369-1.215l.78-4.8.724-4.464a1.084,1.084,0,0,1,1.071-.91h8.318a1.084,1.084,0,0,1,1.084,1.085v3.036a1.084,1.084,0,0,1-1.084,1.085H712.67l-.347,1.605s4.156-.313,6.28,2.267l.006.006c.046.056.091.113.134.171.031.04.059.081.089.121s.058.083.086.125A7.346,7.346,0,0,1,717.268,611.3Z" transform="translate(-705.459 -592.343)"/><path class="ac" d="M720.705,604.346a3.484,3.484,0,0,1,.414.233A3.752,3.752,0,0,0,720.705,604.346Z" transform="translate(-708.516 -594.75)"/><g class="ag"><path class="ab" d="M716.771,589.776s-1.96,3.815-5.362,4.847-4.227,2.887-3.712,4.846,6.166,2.459,7.826,3.7,2.691,8.05,2.691,8.05-13.508,6.393-13.508,5.981-5.774-11.549-5.774-12.065,1.444-13.61,3.093-14.848S716.771,589.776,716.771,589.776Z" transform="translate(-704.151 -591.786)"/></g></g><g transform="translate(6.198 360.54)"><path class="ad" d="M719.6,667.9c-.015-.044-.031-.086-.047-.129l-.047-.122,0-.014c-.032-.08-.064-.158-.1-.234-.018-.041-.035-.08-.052-.12q-.077-.171-.158-.332l0-.011h0a6.357,6.357,0,0,0-6.353-3.551l4.8-5.73a.448.448,0,0,0-.343-.735H712.86a1.606,1.606,0,0,0-1.248.595l-.064.079c-.022.026-.043.054-.067.082-.525.654-1.334,1.671-2.2,2.813l-.228.3c-.038.05-.076.1-.114.152l-.229.307-.011.014c-.072.1-.146.2-.218.3-.04.052-.078.1-.116.157-.077.1-.153.209-.229.313-.262.36-.521.722-.769,1.08a25.4,25.4,0,0,0-1.918,3.107,9.109,9.109,0,0,0-1,5.433c.01.058.02.116.03.173s.022.114.034.17l.034.148c.011.046.023.092.035.138s.017.064.026.1.022.078.034.116c.016.054.034.107.05.161s.036.106.055.158a6.2,6.2,0,0,0,.381.855c.015.03.031.059.047.087l.072.126c.018.031.038.063.057.094s.046.076.07.114.044.068.066.1.035.052.054.078a6.391,6.391,0,0,0,.5.636c.03.034.06.068.093.1q.157.171.327.331c.032.031.063.06.1.089s.059.054.09.08l.086.075a7.272,7.272,0,0,0,.859.629c.038.026.077.05.117.073.081.05.163.1.247.145.041.023.082.046.123.067a8.4,8.4,0,0,0,1.3.561c.044.015.09.03.134.043l.12.038.139.041c.038.012.078.022.117.033.059.017.119.031.179.046l.176.041a8.813,8.813,0,0,0,.875.155c.05.007.1.013.152.018s.1.011.144.015c.114.011.228.019.342.026l.165.008.144,0a9.4,9.4,0,0,0,1.039-.031C718.553,677.012,721.465,673.1,719.6,667.9Zm-7.111,4.344a2.13,2.13,0,1,1,2.13-2.13A2.13,2.13,0,0,1,712.489,672.242Z" transform="translate(-704.355 -656.92)"/><g class="ah"><path class="q" d="M717.7,650.859a60.717,60.717,0,0,0-5.775,6.805c-1.224,1.912-2.99,3.918-4.021,6.909-1.256,3.642,0,11.445,8.042,7.423s9.692-9.177,9.692-9.177L717.7,679.833l-16.5-1.96V664.057l9.28-11.446Z" transform="translate(-703.724 -655.705)"/></g></g><g transform="translate(5.022 247.743)"><path class="ad" d="M719.132,527.19h-1.4V516.342a.5.5,0,0,0-.505-.5H711.98a.5.5,0,0,0-.408.207l-8.591,11.744a.5.5,0,0,0-.1.3v3.75a.506.506,0,0,0,.505.506h9.054v3.237a.5.5,0,0,0,.5.5h4.284a.5.5,0,0,0,.505-.5V532.6h1.4a.5.5,0,0,0,.506-.5v-4.4A.505.505,0,0,0,719.132,527.19Zm-6.4.234h-2.339l1.368-1.87.971-1.327Z" transform="translate(-702.884 -515.837)"/><g class="ai"><path class="q" d="M708.453,518.137s5.247-2.226,7.791-.636.795,5.883,0,9.222,3.021,7.632-2.385,8.109-3.657,3.5-3.657,3.5,12.243,1.113,13.2-.954,2.227-10.494.955-13.993.954-9.381-2.862-10.176-7.95-1.59-10.017,0S708.453,518.137,708.453,518.137Z" transform="translate(-704.001 -515.126)"/></g></g></g><text class="aj" transform="translate(718.379 240.922)"><tspan x="0" y="0">ბედნიერად გატარებული დღე</tspan></text><text class="aj" transform="translate(734.369 296.337)"><tspan x="0" y="0">ადგომა</tspan></text><text class="aj" transform="translate(734.369 354.274)"><tspan x="0" y="0">პირის დაბანა</tspan></text><text class="aj" transform="translate(734.37 408.854)"><tspan x="0" y="0">კბილების გახეხვა</tspan></text></g></svg>