<svg xmlns="http://www.w3.org/2000/svg" xmlns:xlink="http://www.w3.org/1999/xlink" width="82.194" height="161.757" viewBox="0 0 82.194 161.757"><defs><style>.a{fill:none;}.b{clip-path:url(#a);}.c{fill:#a3a3a3;}.ab,.ac,.af,.ah,.ak,.al,.ao,.ar,.as,.d,.j,.y{opacity:0.2;}.ab,.ac,.af,.ah,.ak,.al,.ao,.ar,.as,.d,.j,.l,.y{mix-blend-mode:multiply;}.ab,.ac,.af,.ah,.ak,.al,.ao,.ar,.as,.d,.j,.k,.l,.r,.y{isolation:isolate;}.d{fill:url(#b);}.e{fill:url(#c);}.f{fill:url(#d);}.g{fill:url(#e);}.h{fill:url(#f);}.i{fill:url(#g);}.j{fill:url(#h);}.k,.l,.r{opacity:0.5;}.k,.r{mix-blend-mode:color-dodge;}.k{fill:url(#i);}.l{fill:url(#j);}.m{fill:url(#k);}.n{fill:url(#l);}.o{fill:url(#m);}.p{fill:url(#n);}.q{fill:#e8ff5c;}.r{fill:url(#p);}.s{fill:url(#q);}.t{fill:url(#r);}.u{fill:url(#s);}.v{fill:url(#t);}.w{fill:url(#u);}.x{fill:url(#v);}.y{fill:url(#z);}.z{fill:url(#aa);}.aa{fill:url(#ab);}.ab{fill:url(#ac);}.ac{fill:url(#ad);}.ad{fill:url(#ae);}.ae{fill:url(#af);}.af{fill:url(#ah);}.ag{fill:url(#aj);}.ah{fill:url(#al);}.ai{fill:url(#am);}.aj{fill:url(#an);}.ak{fill:url(#ao);}.al{fill:url(#ap);}.am{fill:url(#aq);}.an{fill:url(#ar);}.ao{fill:url(#at);}.ap{fill:url(#au);}.aq{fill:url(#av);}.ar{fill:url(#aw);}.as{fill:url(#ax);}.at{fill:url(#ay);}.au{fill:url(#az);}.av{fill:#c71a20;}.aw{fill:#b5181d;}.ax{fill:#9c1519;}.ay{fill:#fcc57b;}.az{fill:#ffae85;}.ba{fill:#7d74aa;}.bb{fill:#ffedd7;}.bc{fill:#f9d0af;}.bd{fill:#645d9b;}.be{fill:#ed83ae;}.bf{fill:#d66397;}.bg{fill:#938bcc;}.bh{fill:#893d23;}.bi{fill:#fff9e9;}.bj{fill:#2e2c23;}.bk{fill:#ef8f6f;}.bl{fill:#952c23;}</style><clipPath id="a"><path class="a" d="M1079.647,296.388c9.165-14.318,23.789-20.442,28.256-12.02,1.655,3.12.462,5.5,2.242,10.857,3.624,10.908,10.722,7.554,14.352,15.123,5.007,10.439-4.533,25.082-3.364,53.122.923,22.147,8.726,24.466,6.477,37.426-3.372,19.429-2.652,31.322-17.712,38.922-10.388,5.242-31.4,1.754-36.754-6.552-5.205-8.073-.428-19.1-1.57-55.449-.957-30.467-4.877-40.67-.672-59.327C1071.973,313.736,1074.459,304.493,1079.647,296.388Z" transform="translate(-1068.995 -280.54)"/></clipPath><linearGradient id="b" x1="0.5" y1="1" x2="0.5" gradientUnits="objectBoundingBox"><stop offset="0" stop-color="#d84057"/><stop offset="1" stop-color="#ffa9ba"/></linearGradient><radialGradient id="c" cx="0.5" cy="0.5" r="0.354" gradientTransform="translate(-12.338 -0.075) scale(2.016 1.149)" gradientUnits="objectBoundingBox"><stop offset="0" stop-color="#fff9e6"/><stop offset="1" stop-color="#ffbfb1"/></radialGradient><radialGradient id="d" cx="0.521" cy="0.367" r="0.452" gradientTransform="translate(-13.492 -0.055) scale(2.016 1.149)" gradientUnits="objectBoundingBox"><stop offset="0" stop-color="#fff9e6"/><stop offset="1" stop-color="#ffe3da"/></radialGradient><radialGradient id="e" cx="0.521" cy="0.367" r="0.452" gradientTransform="translate(-37.445 -0.055) scale(2.016 1.149)" xlink:href="#c"/><linearGradient id="f" x1="0.453" y1="1.14" x2="0.518" y2="0.005" gradientUnits="objectBoundingBox"><stop offset="0" stop-color="#ff424a"/><stop offset="1" stop-color="#ff6620"/></linearGradient><linearGradient id="g" x1="-120.862" y1="8.867" x2="-120.492" y2="7.88" gradientUnits="objectBoundingBox"><stop offset="0" stop-color="#ff774a"/><stop offset="1" stop-color="#ff9836"/></linearGradient><linearGradient id="h" x1="0.392" y1="0.972" x2="0.596" y2="0.044" gradientUnits="objectBoundingBox"><stop offset="0" stop-color="#fff"/><stop offset="1" stop-color="#9d0057"/></linearGradient><linearGradient id="i" y1="0.5" x2="1" y2="0.5" gradientUnits="objectBoundingBox"><stop offset="0" stop-color="#ffb0ad"/><stop offset="1"/></linearGradient><linearGradient id="j" x1="0" y1="0.5" x2="1" y2="0.5" xlink:href="#h"/><radialGradient id="k" cx="0.5" cy="0.5" r="0.354" gradientTransform="translate(-12.932 -0.075) scale(2.016 1.149)" xlink:href="#c"/><radialGradient id="l" cx="0.521" cy="0.367" r="0.452" gradientTransform="translate(-14.14 -0.055) scale(2.016 1.149)" xlink:href="#d"/><radialGradient id="m" cx="0.521" cy="0.367" r="0.452" gradientTransform="translate(-39.304 -0.055) scale(2.016 1.149)" xlink:href="#c"/><linearGradient id="n" x1="0.453" y1="1.14" x2="0.518" y2="0.006" gradientUnits="objectBoundingBox"><stop offset="0" stop-color="#a2a709"/><stop offset="1" stop-color="#bfeb00"/></linearGradient><linearGradient id="p" x1="0" y1="0.5" x2="1" y2="0.5" xlink:href="#i"/><linearGradient id="q" y1="0.5" x2="1" y2="0.5" gradientUnits="objectBoundingBox"><stop offset="0" stop-color="#a9c200"/><stop offset="1" stop-color="#868c00"/></linearGradient><radialGradient id="r" cx="0.5" cy="0.5" r="0.354" gradientTransform="translate(-11.099 -0.075) scale(2.016 1.149)" xlink:href="#c"/><radialGradient id="s" cx="0.521" cy="0.367" r="0.452" gradientTransform="translate(-12.133 -0.055) scale(2.016 1.149)" xlink:href="#d"/><radialGradient id="t" cx="0.521" cy="0.367" r="0.452" gradientTransform="translate(-33.58 -0.055) scale(2.016 1.149)" xlink:href="#c"/><linearGradient id="u" x1="0.453" y1="1.14" x2="0.518" y2="0.005" gradientUnits="objectBoundingBox"><stop offset="0" stop-color="#ffc56c"/><stop offset="1" stop-color="#ffde77"/></linearGradient><linearGradient id="v" x1="-101.467" y1="8.134" x2="-101.184" y2="7.14" gradientUnits="objectBoundingBox"><stop offset="0" stop-color="#ff7"/><stop offset="1" stop-color="#ffff95"/></linearGradient><linearGradient id="z" x1="-40.95" y1="5.358" x2="-40.95" y2="4.354" xlink:href="#h"/><radialGradient id="aa" cx="0.521" cy="0.367" r="0.528" gradientTransform="translate(-0.296) scale(1.591 1)" xlink:href="#d"/><linearGradient id="ab" x1="0.5" y1="1" x2="0.5" gradientUnits="objectBoundingBox"><stop offset="0" stop-color="#e4432f"/><stop offset="1" stop-color="#ff6436"/></linearGradient><linearGradient id="ac" x1="0.5" y1="1" x2="0.5" gradientUnits="objectBoundingBox"><stop offset="0" stop-color="#9d0057"/><stop offset="1" stop-color="#fff"/></linearGradient><linearGradient id="ad" x1="22.059" y1="0.5" x2="23.208" y2="0.5" xlink:href="#h"/><radialGradient id="ae" cx="0.521" cy="0.367" r="0.528" gradientTransform="translate(-0.296) scale(1.591 1)" xlink:href="#d"/><linearGradient id="af" x1="0.5" y1="1" x2="0.5" gradientUnits="objectBoundingBox"><stop offset="0" stop-color="#3e35d5"/><stop offset="1" stop-color="#4196ff"/></linearGradient><linearGradient id="ah" x1="22.066" y1="0.5" x2="23.215" y2="0.5" xlink:href="#h"/><linearGradient id="aj" x1="0.5" y1="1" x2="0.5" gradientUnits="objectBoundingBox"><stop offset="0" stop-color="#ffbe54"/><stop offset="1" stop-color="#ffde59"/></linearGradient><linearGradient id="al" x1="22.199" y1="0.5" x2="23.348" y2="0.5" xlink:href="#h"/><radialGradient id="am" cx="0.521" cy="0.367" r="0.528" gradientTransform="translate(-0.296) scale(1.591 1)" xlink:href="#d"/><linearGradient id="an" x1="0.5" y1="1" x2="0.5" y2="0" xlink:href="#n"/><linearGradient id="ao" x1="0.5" y1="1" x2="0.5" y2="0" xlink:href="#ac"/><linearGradient id="ap" x1="-84.499" y1="31.18" x2="-84.068" y2="30.114" xlink:href="#h"/><radialGradient id="aq" cx="0.521" cy="0.367" r="0.528" gradientTransform="translate(-0.296) scale(1.591 1)" xlink:href="#d"/><linearGradient id="ar" x1="0.5" y1="1" x2="0.5" y2="0" xlink:href="#f"/><linearGradient id="at" x1="30.908" y1="0.5" x2="32.057" y2="0.5" xlink:href="#h"/><radialGradient id="au" cx="0.521" cy="0.367" r="0.528" gradientTransform="translate(-0.296) scale(1.591 1)" xlink:href="#d"/><linearGradient id="av" x1="0.5" y1="1" x2="0.5" y2="0" xlink:href="#n"/><linearGradient id="aw" x1="0.5" y1="1" x2="0.5" y2="0" xlink:href="#ac"/><linearGradient id="ax" x1="31.19" y1="0.5" x2="32.339" y2="0.5" xlink:href="#h"/><radialGradient id="ay" cx="0.521" cy="0.367" r="0.528" gradientTransform="translate(-0.296) scale(1.591 1)" xlink:href="#d"/><linearGradient id="az" x1="0.5" y1="1" x2="0.5" y2="0" xlink:href="#af"/></defs><g transform="translate(-1023.042 -280.54)"><g transform="translate(1046.215 280.54)"><g class="b" transform="translate(0)"><g transform="translate(-4.421 -19.064)"><path class="c" d="M1060.227,419.8l65.6,35.8V253.888l-60.541,26.223Z" transform="translate(-1060.227 -248.264)"/><path class="d" d="M1087.657,427.348s37.979,11.925,44.871,9.5,6.892-182.96,6.892-182.96V453.5Z" transform="translate(-1073.824 -248.264)"/><g transform="translate(10.637 141.538)"><ellipse class="e" cx="3.47" cy="6.997" rx="3.47" ry="6.997" transform="translate(11.723)"/><path class="f" d="M1110.9,531.007c0,3.526-1.417,6.384-3.166,6.384s-3.167-2.858-3.167-6.384,1.417-6.385,3.167-6.385S1110.9,527.48,1110.9,531.007Z" transform="translate(-1092.845 -524.009)"/><path class="g" d="M1108.667,535.085c0,1.234-.5,2.235-1.109,2.235s-1.109-1-1.109-2.235.5-2.236,1.109-2.236S1108.667,533.85,1108.667,535.085Z" transform="translate(-1093.777 -528.088)"/><path class="h" d="M1095.774,533.105l-13.029-.864a13.749,13.749,0,0,0,.6,5.611l12.434-1.124s.72-.094.731-1.754S1095.774,533.105,1095.774,533.105Z" transform="translate(-1081.994 -527.786)"/><path class="i" d="M1083.376,534.938c.164,1.549-.153,2.853-.708,2.912s-1.139-1.149-1.3-2.7.153-2.853.708-2.912S1083.212,533.388,1083.376,534.938Z" transform="translate(-1081.321 -527.784)"/><path class="j" d="M1108.563,540.577a11.185,11.185,0,0,0,2.872,4.269l4.375,7.578s-1.687,1.447-3.354.579l-2.862-7.091s-1.633-1.278-1.887-4.979Z" transform="translate(-1094.4 -531.918)"/><path class="k" d="M1084.233,534.577s.064-.8.312-.969,11.528.068,11.465-.105-12.123-1.167-12.123-1.167a2.292,2.292,0,0,1-.733-.045S1083.769,532.533,1084.233,534.577Z" transform="translate(-1082.23 -527.81)"/><path class="l" d="M1084.744,538.247s11.246-.427,11.792-.578.7-2.011.5-2.656c0,0,.783,2.047-.5,3.09l-12.322,1.092A1.266,1.266,0,0,0,1084.744,538.247Z" transform="translate(-1082.755 -529.16)"/></g><g transform="translate(37.863 82.487)"><ellipse class="m" cx="3.47" cy="6.997" rx="3.47" ry="6.997" transform="translate(11.723)"/><path class="n" d="M1164.89,413.907c0,3.526-1.418,6.384-3.166,6.384s-3.167-2.858-3.167-6.384,1.418-6.385,3.167-6.385S1164.89,410.38,1164.89,413.907Z" transform="translate(-1146.834 -406.909)"/><path class="o" d="M1162.656,417.985c0,1.234-.5,2.235-1.109,2.235s-1.109-1-1.109-2.235.5-2.236,1.109-2.236S1162.656,416.75,1162.656,417.985Z" transform="translate(-1147.766 -410.987)"/><path class="p" d="M1149.764,416.005l-13.029-.864a13.751,13.751,0,0,0,.6,5.611l12.433-1.124s.72-.094.731-1.754S1149.764,416.005,1149.764,416.005Z" transform="translate(-1135.983 -410.686)"/><path class="q" d="M1137.365,417.838c.164,1.549-.152,2.853-.708,2.912s-1.139-1.149-1.3-2.7.153-2.854.708-2.913S1137.2,416.288,1137.365,417.838Z" transform="translate(-1135.31 -410.684)"/><path class="j" d="M1162.553,423.477a11.186,11.186,0,0,0,2.872,4.269l4.376,7.578s-1.687,1.447-3.354.579l-2.862-7.091s-1.633-1.278-1.887-4.979Z" transform="translate(-1148.39 -414.818)"/><path class="r" d="M1138.222,417.477s.064-.8.313-.969,11.528.068,11.464-.106-12.123-1.167-12.123-1.167a2.277,2.277,0,0,1-.733-.045S1137.758,415.433,1138.222,417.477Z" transform="translate(-1136.219 -410.71)"/><path class="s" d="M1138.733,421.147s11.246-.427,11.792-.578.7-2.011.5-2.656c0,0,.783,2.047-.5,3.09L1138.2,422.1A1.265,1.265,0,0,0,1138.733,421.147Z" transform="translate(-1136.744 -412.06)"/></g><g transform="translate(39.001 120.558)"><ellipse class="t" cx="4.099" cy="8.265" rx="4.099" ry="8.265" transform="translate(13.846)"/><ellipse class="u" cx="3.74" cy="7.541" rx="3.74" ry="7.541" transform="translate(13.846 0.724)"/><ellipse class="v" cx="1.31" cy="2.641" rx="1.31" ry="2.641" transform="translate(14.967 5.624)"/><path class="w" d="M1154.636,493.258l-15.389-1.02a16.24,16.24,0,0,0,.7,6.627l14.685-1.327s.851-.111.863-2.071S1154.636,493.258,1154.636,493.258Z" transform="translate(-1138.36 -486.976)"/><path class="x" d="M1139.993,495.423c.194,1.83-.18,3.37-.837,3.44s-1.345-1.358-1.54-3.188.18-3.37.836-3.44S1139.8,493.593,1139.993,495.423Z" transform="translate(-1137.565 -486.974)"/><path class="j" d="M1169.741,502.083a13.207,13.207,0,0,0,3.392,5.042l5.168,8.951s-1.993,1.71-3.961.684l-3.381-8.375s-1.929-1.51-2.229-5.881Z" transform="translate(-1153.013 -491.856)"/><path class="r" d="M1141,495s.076-.939.369-1.144,13.616.08,13.541-.125-14.319-1.378-14.319-1.378a2.7,2.7,0,0,1-.866-.054S1140.456,492.582,1141,495Z" transform="translate(-1138.638 -487.004)"/><path class="l" d="M1141.608,499.331s13.283-.5,13.927-.683.823-2.375.587-3.136c0,0,.924,2.418-.587,3.649l-14.553,1.29A1.494,1.494,0,0,0,1141.608,499.331Z" transform="translate(-1139.259 -488.599)"/></g><g transform="translate(52.211 176.988)"><path class="y" d="M1170.79,598.483c.3,2.8-.839,5.207-2.537,5.387s-3.314-1.94-3.611-4.735.839-5.207,2.537-5.387S1170.493,595.688,1170.79,598.483Z" transform="translate(-1164.175 -593.72)"/><path class="z" d="M1169.047,597.908c0,2.318-.934,4.205-2.088,4.205-.922,0-2.421-1.214-2.974-2.889a3.951,3.951,0,0,1-.224-1.317c0-2.324,2.051-4.205,3.2-4.205.655,0,1.238.607,1.62,1.559v.006A7.052,7.052,0,0,1,1169.047,597.908Z" transform="translate(-1163.762 -593.703)"/><path class="aa" d="M1165.619,600.677c0,.643-.317,1.164-.708,1.164s-.708-.521-.708-1.164.317-1.163.708-1.163S1165.619,600.035,1165.619,600.677Z" transform="translate(-1163.981 -596.584)"/><path class="ab" d="M1169.268,599.447c0,2.318-.935,4.205-2.088,4.205-.922,0-2.421-1.214-2.973-2.889,0,0,1.632,2.713,3.447,1.523,1.772-1.159,1.177-5.285,1.147-5.48A7.048,7.048,0,0,1,1169.268,599.447Z" transform="translate(-1163.983 -595.242)"/></g><g transform="translate(44.809 137.337)"><ellipse class="ac" cx="1.899" cy="3.829" rx="1.899" ry="3.829" transform="translate(1.152)"/><path class="ad" d="M1153.476,519.236c0,1.926-.777,3.495-1.735,3.495a3.414,3.414,0,0,1-2.471-2.4,3.28,3.28,0,0,1-.187-1.094c0-1.931,1.7-3.495,2.658-3.495.545,0,1.029.5,1.347,1.3v.005A5.862,5.862,0,0,1,1153.476,519.236Z" transform="translate(-1149.084 -515.406)"/><path class="ae" d="M1150.628,521.537c0,.534-.263.967-.588.967s-.588-.433-.588-.967.263-.967.588-.967S1150.628,521,1150.628,521.537Z" transform="translate(-1149.266 -517.799)"/><path class="ab" d="M1153.66,520.515c0,1.926-.776,3.495-1.735,3.495a3.414,3.414,0,0,1-2.471-2.4s1.357,2.254,2.864,1.266c1.473-.963.978-4.392.953-4.554A5.864,5.864,0,0,1,1153.66,520.515Z" transform="translate(-1149.267 -516.685)"/></g><g transform="translate(44.995 99.221)"><ellipse class="af" cx="1.899" cy="3.829" rx="1.899" ry="3.829" transform="translate(1.152)"/><path class="ad" d="M1153.844,443.651c0,1.926-.777,3.495-1.735,3.495a3.415,3.415,0,0,1-2.471-2.4,3.285,3.285,0,0,1-.186-1.094c0-1.931,1.7-3.495,2.658-3.495.545,0,1.028.5,1.346,1.3v.005A5.859,5.859,0,0,1,1153.844,443.651Z" transform="translate(-1149.452 -439.821)"/><path class="ag" d="M1151,445.952c0,.534-.263.967-.588.967s-.589-.433-.589-.967.263-.967.589-.967S1151,445.418,1151,445.952Z" transform="translate(-1149.634 -442.215)"/><path class="ab" d="M1154.028,444.93c0,1.926-.777,3.495-1.735,3.495a3.414,3.414,0,0,1-2.471-2.4s1.357,2.254,2.864,1.266c1.472-.963.978-4.392.953-4.554A5.861,5.861,0,0,1,1154.028,444.93Z" transform="translate(-1149.635 -441.1)"/></g><g transform="translate(48.384 42.426)"><ellipse class="ah" cx="1.899" cy="3.829" rx="1.899" ry="3.829" transform="translate(1.152)"/><path class="ai" d="M1160.564,331.027c0,1.926-.777,3.495-1.735,3.495a3.414,3.414,0,0,1-2.471-2.4,3.282,3.282,0,0,1-.187-1.094c0-1.931,1.7-3.495,2.658-3.495.544,0,1.029.5,1.346,1.3v.005A5.862,5.862,0,0,1,1160.564,331.027Z" transform="translate(-1156.172 -327.197)"/><path class="aj" d="M1157.715,333.328c0,.534-.264.967-.588.967s-.588-.433-.588-.967.263-.967.588-.967S1157.715,332.794,1157.715,333.328Z" transform="translate(-1156.354 -329.59)"/><path class="ak" d="M1160.748,332.306c0,1.926-.777,3.495-1.735,3.495a3.414,3.414,0,0,1-2.471-2.4s1.357,2.254,2.865,1.266c1.472-.963.978-4.392.953-4.554A5.864,5.864,0,0,1,1160.748,332.306Z" transform="translate(-1156.355 -328.476)"/></g><g transform="translate(58.595 12.18)"><path class="al" d="M1184.124,272.377c.5,2.667-.181,5.036-1.531,5.291s-2.853-1.7-3.358-4.367.182-5.036,1.532-5.291S1183.619,269.709,1184.124,272.377Z" transform="translate(-1177.734 -267.433)"/><path class="am" d="M1181.663,271.059c0,2.3-.927,4.171-2.071,4.171-.915,0-2.4-1.2-2.949-2.865a3.922,3.922,0,0,1-.222-1.306c0-2.306,2.034-4.171,3.172-4.171.65,0,1.228.6,1.607,1.547v.006A6.991,6.991,0,0,1,1181.663,271.059Z" transform="translate(-1176.42 -266.888)"/><path class="an" d="M1178.262,273.806c0,.637-.314,1.154-.7,1.154s-.7-.517-.7-1.154.315-1.154.7-1.154S1178.262,273.169,1178.262,273.806Z" transform="translate(-1176.637 -269.745)"/><path class="ab" d="M1181.881,272.586c0,2.3-.927,4.171-2.071,4.171-.915,0-2.4-1.2-2.95-2.865,0,0,1.619,2.691,3.419,1.511,1.757-1.15,1.168-5.243,1.138-5.435A6.991,6.991,0,0,1,1181.881,272.586Z" transform="translate(-1176.639 -268.415)"/></g><g transform="translate(21.514 128.167)"><path class="ao" d="M1107.047,499.509c0,1.446-.581,2.618-1.3,2.618s-1.3-1.172-1.3-2.618.581-2.618,1.3-2.618S1107.047,498.063,1107.047,499.509Z" transform="translate(-1103.664 -496.891)"/><path class="ap" d="M1105.892,499.734c0,1.317-.531,2.389-1.186,2.389a2.335,2.335,0,0,1-1.689-1.641,2.242,2.242,0,0,1-.128-.748,2.476,2.476,0,0,1,1.817-2.389c.372,0,.7.345.92.886v0A4.007,4.007,0,0,1,1105.892,499.734Z" transform="translate(-1102.889 -497.116)"/><path class="aq" d="M1103.944,501.308c0,.365-.18.661-.4.661s-.4-.3-.4-.661.18-.661.4-.661S1103.944,500.943,1103.944,501.308Z" transform="translate(-1103.014 -498.753)"/><path class="ar" d="M1106.017,500.609c0,1.317-.531,2.389-1.186,2.389a2.335,2.335,0,0,1-1.689-1.641s.927,1.541,1.958.865c1.007-.658.669-3,.651-3.113A4.008,4.008,0,0,1,1106.017,500.609Z" transform="translate(-1103.015 -497.99)"/></g><g transform="translate(26.412 71.836)"><ellipse class="as" cx="1.298" cy="2.618" rx="1.298" ry="2.618" transform="translate(0.788)"/><path class="at" d="M1115.6,388.03c0,1.317-.531,2.389-1.186,2.389a2.334,2.334,0,0,1-1.689-1.641,2.242,2.242,0,0,1-.128-.748,2.477,2.477,0,0,1,1.817-2.389c.373,0,.7.345.921.886v0A4.008,4.008,0,0,1,1115.6,388.03Z" transform="translate(-1112.601 -385.412)"/><path class="au" d="M1113.656,389.6c0,.365-.18.661-.4.661s-.4-.3-.4-.661.18-.661.4-.661S1113.656,389.238,1113.656,389.6Z" transform="translate(-1112.725 -387.048)"/><path class="ab" d="M1115.729,388.9c0,1.317-.531,2.389-1.186,2.389a2.334,2.334,0,0,1-1.689-1.641s.927,1.541,1.958.865c1.007-.659.669-3,.652-3.113A4,4,0,0,1,1115.729,388.9Z" transform="translate(-1112.726 -386.286)"/></g><path class="d" d="M1169.169,242.736s-37.682,21.99-39.241,24.3-3.578,63.945-3.578,63.945l-7.663,48.674,3.934,49.847,46.547,30.421L1117.406,429.5l1.019-50.344,6.785-48.369-2.589-66.252Z" transform="translate(-1088.571 -242.736)"/></g></g></g><g transform="translate(1023.042 293.388)"><path class="av" d="M1034.691,370.422c-7.12-7.638-7.948-15.077-6.829-22.191,0,0-7.13-5.64-4.047-17.926,0,0-2.03-25.6,17.982-22.187,9.091-5.771,23.687.3,20.448,18.807-2.414,13.79-2.512,34.284-7.316,39.685C1051.759,370.173,1039.745,375.844,1034.691,370.422Z" transform="translate(-1023.042 -306.017)"/><path class="aw" d="M1042.949,336.669c-8.963-3.92-14.546-12.455-13.745-20.2-6.4,6.317-5.389,19.017-5.389,19.017-3.083,12.285,4.047,17.926,4.047,17.926-1.12,7.114-.291,14.553,6.829,22.191,5.054,5.422,17.068-.249,20.238-3.812,4.359-4.9,4.843-22.223,6.7-35.693C1056.783,339.208,1049.751,339.642,1042.949,336.669Z" transform="translate(-1023.042 -311.199)"/><path class="ax" d="M1068.621,395.985a9.052,9.052,0,0,0,1.37-2.195c4.543-12.524,8.807-31.383-4.169-28.146-5.508,1.374-16.192,19.619-15.08,35.756C1056.487,403.738,1065.874,399.074,1068.621,395.985Z" transform="translate(-1036.733 -335.393)"/><path class="ay" d="M1089.46,492.441l1.058-.381.927-41.88-5.005,2.034Z" transform="translate(-1054.47 -377.481)"/><path class="az" d="M1090.792,479.689l.654-29.509-5.005,2.034,2.4,31.981A11.855,11.855,0,0,1,1090.792,479.689Z" transform="translate(-1054.47 -377.481)"/><path class="ba" d="M1090.012,531.16l4.831,1.009s-2.633-2.91-3.414-3.2S1090.012,531.16,1090.012,531.16Z" transform="translate(-1056.24 -416.527)"/><path class="bb" d="M1091.271,469.847l.3,3.082.107,1.094.682,6.956-9.67,2.625-1.1-7.865-.493-3.523-.366-2.623Z" transform="translate(-1051.639 -387.104)"/><path class="bc" d="M1091.93,475.508l-10.473-.713.493,3.523,10.087-1.716Z" transform="translate(-1051.999 -389.682)"/><path class="ay" d="M1109.578,487.948l.5,1s10.411-14.785,10.111-17.824-12.66-12.575-12.66-12.575l-2.1,3.039s11.265,8.82,11.565,10.413S1109.578,487.948,1109.578,487.948Z" transform="translate(-1063.881 -381.629)"/><path class="az" d="M1116.991,472a8.68,8.68,0,0,1-.936,2.938,9.126,9.126,0,0,1,4.016-2.925,2.766,2.766,0,0,0,.114-.89c-.3-3.04-12.66-12.575-12.66-12.575l-2.1,3.039S1116.691,470.407,1116.991,472Z" transform="translate(-1063.881 -381.629)"/><path class="ba" d="M1110.12,516.8l3.785,4.328s-.662-4.292-1.2-5.094S1110.12,516.8,1110.12,516.8Z" transform="translate(-1066.208 -410.014)"/><path class="bb" d="M1103.364,462.036s-2.91,7.075-7.05,7.776l-10.9-4.291a56.48,56.48,0,0,0-6.329-.262c-2.577,0-4.589-1.256-5.229-3a3.745,3.745,0,0,1,.161-2.859c.328-.736,1.427-1.357,2.9-1.881a50.146,50.146,0,0,1,9.37-1.926h.015c2.169-.272,3.747-.4,3.747-.4l2.269,1.165Z" transform="translate(-1048.127 -379.966)"/><path class="bc" d="M1092.32,456.358l-18.462,5.9a3.745,3.745,0,0,1,.161-2.859c.328-.736,1.427-1.357,2.9-1.881l9.37-1.926h.015c2.169-.272,3.747-.4,3.747-.4Z" transform="translate(-1048.127 -379.966)"/><path class="ay" d="M1142.9,367.469c.246-.832.3-1.8.026-1.937-.237-.116-.281.61-.519,1.162-.211.49-.279.661-.38.6a6.5,6.5,0,0,1,.275-1.495c.214-.963.229-1.632-.054-1.753-.268-.1-.28.553-.549,1.385-.234.738-.3,1.076-.578.967-.13-.044-.018-.559.028-1.388.055-.937-.091-1.542-.326-1.558-.334-.016-.118.443-.3,1.5-.238,1.406-.122,1.805-.675,2.374-.519.529-.6-2.177-1.108-1.8-.681.5.6,5.215,1.455,5.519C1141.419,371.47,1142.112,370.123,1142.9,367.469Z" transform="translate(-1080.297 -334.487)"/><path class="ay" d="M1145.646,420.618c.823-.3,1.648-.823,1.592-1.124-.047-.257-.665.136-1.255.272-.523.121-.7.168-.711.051a6.6,6.6,0,0,1,1.379-.664c.909-.4,1.464-.781,1.393-1.079-.075-.276-.617.1-1.453.38-.739.249-1.053.4-1.131.11-.041-.13.444-.345,1.145-.8.8-.509,1.2-.982,1.073-1.18-.184-.275-.43.168-1.394.643-1.285.641-1.541.97-2.332.864-.739-.1,1.415-1.761.805-1.947-.812-.249-3.881,3.56-3.622,4.419C1141.513,421.8,1143.021,421.559,1145.646,420.618Z" transform="translate(-1081.573 -360.604)"/><path class="ay" d="M1106.386,388.726c2.578.2,9.6-.9,10.324-1.5s8.189-11.86,8.189-11.86l.845.5s-6.646,12.858-8.558,14.125-10.513,2.029-10.513,2.029Z" transform="translate(-1064.357 -340.395)"/><path class="az" d="M1115.231,400.309c-.085-.107-.151-.225-.227-.337a39.982,39.982,0,0,1-8.618.951l.287,3.29s8.6-.763,10.513-2.029a2.237,2.237,0,0,0,.3-.257A5.219,5.219,0,0,1,1115.231,400.309Z" transform="translate(-1064.357 -352.592)"/><path class="ba" d="M1090.968,400.533l12.686-.721.635,8.556s-8.566-.057-10.316-1.045S1090.968,400.533,1090.968,400.533Z" transform="translate(-1056.714 -352.512)"/><path class="bd" d="M1102.853,419.161l-2.084-6.279,8.3-.591.234,2.711-6.411-.021Z" transform="translate(-1061.572 -358.698)"/><path class="be" d="M1116.475,408.182l-1.308.437-1.656-9.738,1.49.256Z" transform="translate(-1067.889 -352.051)"/><path class="bf" d="M1114.648,405.57l1.083,6.365,1.308-.437-.76-4.665A4.338,4.338,0,0,1,1114.648,405.57Z" transform="translate(-1068.452 -355.367)"/><path class="ba" d="M1084.823,402.074c1.5,2.317,4.5,20.99,5.249,25.623,0,0-13.5,5.5-19.944,5.936,0,0,2.4-13.463,2.4-16.359,0-3.645-1.8-11.581.45-14.62C1074.308,400.855,1083.642,400.25,1084.823,402.074Z" transform="translate(-1046.383 -353.086)"/><path class="be" d="M1076.038,402.366c-.958,1.135,5.24,1.891,7.285.819s-.767-2.4-.767-2.4S1077.316,400.853,1076.038,402.366Z" transform="translate(-1049.263 -352.997)"/><path class="bd" d="M1082.067,432.818c-2.085-6.722-5.294-17.83-4.372-19.858.8-1.755-4.106-4.6-5.033-7.626-1.748,3.341-.134,10.648-.134,14.1,0,2.9-2.4,16.358-2.4,16.358C1073.238,435.586,1077.983,434.2,1082.067,432.818Z" transform="translate(-1046.383 -355.249)"/><path class="ay" d="M1094.738,422.433c1.905,1.724,8.137,5.13,9.087,5.105s13.957-4.284,13.957-4.284l.354.9s-12.675,5.938-14.984,5.766-10.269-4.743-10.269-4.743Z" transform="translate(-1057.663 -363.726)"/><path class="az" d="M1102.065,428.188a1.536,1.536,0,0,1,.217-1.191,39.921,39.921,0,0,1-7.544-4.564l-1.854,2.744s7.961,4.57,10.269,4.743a5.667,5.667,0,0,0,1.66-.295C1103.306,429.446,1102.291,428.962,1102.065,428.188Z" transform="translate(-1057.663 -363.726)"/><path class="ba" d="M1082.865,409.49l9.546,8.33-4.784,6.136s-5.864-5.9-6.517-7.768S1082.865,409.49,1082.865,409.49Z" transform="translate(-1051.772 -357.31)"/><g transform="translate(33.671 54.429)"><path class="bg" d="M1096.34,420.6l.44-.566-6.969-6.081Z" transform="translate(-1089.812 -413.95)"/><path class="bg" d="M1093.959,436.757l.094.095,1.051-1.348Z" transform="translate(-1091.868 -424.635)"/></g><path class="bd" d="M1084.286,418.574c-2.607-2.819-2.83-7.27-1.942-9.074l-.013-.01s-2.97,5.142-2.317,7.012,7.079,7.454,7.079,7.454l1.411-1.809A17.127,17.127,0,0,1,1084.286,418.574Z" transform="translate(-1051.237 -357.31)"/><path class="bd" d="M1092.1,428.579l4.646-4.587.851.8-4.537,5.483Z" transform="translate(-1057.277 -364.499)"/><path class="be" d="M1093.048,431.458l-1.234-.634,5.489-7.171.889,1.188Z" transform="translate(-1057.133 -364.331)"/><path class="bf" d="M1095.4,428.578l-3.589,4.687,1.234.634,2.653-3.413A3.9,3.9,0,0,1,1095.4,428.578Z" transform="translate(-1057.133 -366.772)"/><path class="ay" d="M1078.42,397.9l-.383-5.484,3.259.189,1.534,5.169S1079.827,399.1,1078.42,397.9Z" transform="translate(-1050.304 -348.846)"/><path class="ay" d="M1063.205,358.943c5.126-2.486,14.183-8.764,8.146-22.966s-15.637-14.417-23.742-10.486-13.465,11.559-7.37,24.633S1058.079,361.43,1063.205,358.943Z" transform="translate(-1030.264 -314.587)"/><path class="aw" d="M1043.021,359.265a7.47,7.47,0,0,0,6.882-7.726c-.151-4.8-1.865-6.675-2.642-8.228-5.572-11.139,8.8-23.773,1-22.573-20.034,3.082-25.156,39.644-5.342,38.533Z" transform="translate(-1026.684 -313.275)"/><path class="av" d="M1053.647,324.756c3.381-4.611,4-9.483,1.392-10.882s-7.471,1.2-10.853,5.813-4,9.483-1.393,10.882S1050.265,329.366,1053.647,324.756Z" transform="translate(-1032.032 -309.724)"/><path class="bh" d="M1075.095,358.153c-.494-2.383-2.449-3.916-4.363-3.431s-3.067,2.81-2.571,5.19,2.109,2.3,4.025,1.812S1075.589,360.53,1075.095,358.153Z" transform="translate(-1045.351 -330.117)"/><path class="bh" d="M1097.012,353.43c-.253-2.386-1.92-4.068-3.721-3.755s-3.062,2.507-2.811,4.893,1.747,2.448,3.553,2.133S1097.264,355.817,1097.012,353.43Z" transform="translate(-1056.456 -327.64)"/><g transform="translate(34.272 21.167)"><path class="bh" d="M1091.356,351.669l-.353-1.717.854,1.08Z" transform="translate(-1091.003 -348.963)"/><path class="bh" d="M1094.445,349.713l.481-1.722.233,1.42Z" transform="translate(-1092.709 -347.991)"/><path class="bh" d="M1098.417,349.319l1.247-1.21-.517,1.366Z" transform="translate(-1094.678 -348.049)"/></g><g transform="translate(23.128 23.594)"><path class="bh" d="M1069.273,356.4l-.368-1.745.876,1.116Z" transform="translate(-1068.905 -353.72)"/><path class="bh" d="M1072.436,354.532l.482-1.727.244,1.443Z" transform="translate(-1070.655 -352.805)"/><path class="bh" d="M1076.487,354.279l1.268-1.183-.522,1.367Z" transform="translate(-1072.664 -352.949)"/></g><path class="bi" d="M1075.259,359.4a3.49,3.49,0,0,0-4.165-2.9,3.878,3.878,0,0,0-2.607,4.614c.432,2.073,2,1.961,3.873,1.488S1075.686,361.466,1075.259,359.4Z" transform="translate(-1045.526 -330.994)"/><path class="bi" d="M1097.148,354.632a3.339,3.339,0,0,0-3.767-3.179,3.923,3.923,0,0,0-2.977,4.355c.221,2.078,1.76,2.089,3.624,1.768S1097.369,356.712,1097.148,354.632Z" transform="translate(-1056.422 -328.518)"/><path class="bh" d="M1078.727,361.885a1.513,1.513,0,0,0-1.556-1.608,1.8,1.8,0,0,0-1.489,1.884,1.514,1.514,0,0,0,1.554,1.612A1.8,1.8,0,0,0,1078.727,361.885Z" transform="translate(-1049.136 -332.912)"/><path class="bh" d="M1100.414,357.042a1.49,1.49,0,0,0-1.678-1.426,1.751,1.751,0,0,0-1.32,1.948,1.491,1.491,0,0,0,1.68,1.426A1.75,1.75,0,0,0,1100.414,357.042Z" transform="translate(-1059.904 -330.593)"/><path class="bj" d="M1100.406,358.146a.639.639,0,0,0-.723-.615.751.751,0,0,0-.569.84.64.64,0,0,0,.723.615A.751.751,0,0,0,1100.406,358.146Z" transform="translate(-1060.749 -331.549)"/><path class="bj" d="M1078.713,362.943a.653.653,0,0,0-.672-.694.776.776,0,0,0-.641.813.652.652,0,0,0,.671.694A.775.775,0,0,0,1078.713,362.943Z" transform="translate(-1049.987 -333.89)"/><g transform="translate(35.206 17.54)"><path class="aw" d="M1097.1,342.3a4.788,4.788,0,0,0-3.549-.18.492.492,0,0,1-.595-.215l-.033-.055a.5.5,0,0,1,.221-.715,5.544,5.544,0,0,1,4.394.264.509.509,0,0,1,.246.635h0A.5.5,0,0,1,1097.1,342.3Z" transform="translate(-1092.855 -340.798)"/></g><g transform="translate(21.332 19.526)"><path class="aw" d="M1070.168,345.827a6.672,6.672,0,0,0-3.94,2.05.5.5,0,0,1-.636.094l-.009-.005a.5.5,0,0,1-.122-.751,7.8,7.8,0,0,1,4.592-2.474.505.505,0,0,1,.56.531l-.006.088A.492.492,0,0,1,1070.168,345.827Z" transform="translate(-1065.342 -344.738)"/></g><path class="bk" d="M1085.449,367.823a1.113,1.113,0,0,0-.024.136c-.028.663.708,1.118,1.638,1.019a2.423,2.423,0,0,0,1-.34,1.88,1.88,0,0,1-1.707,1.246c-.93.1-1.664-.354-1.637-1.018A1.378,1.378,0,0,1,1085.449,367.823Z" transform="translate(-1053.615 -336.655)"/><path class="bl" d="M1089.191,375.642l-7.641.3s-.145,4.746,3.674,4.262S1089.191,375.642,1089.191,375.642Z" transform="translate(-1052.045 -340.531)"/><path class="bi" d="M1082.745,376.628a5.3,5.3,0,0,0,.329,1.866l5.133.009a4.776,4.776,0,0,0,.685-2.121Z" transform="translate(-1052.637 -340.898)"/></g></g></svg>