<svg xmlns="http://www.w3.org/2000/svg" width="149.914" height="112.345" viewBox="0 0 149.914 112.345"><defs><style>.a,.k{fill:#2e2e2e;}.a,.b,.o{mix-blend-mode:multiply;isolation:isolate;}.c{fill:#fcc57b;}.d{fill:#5298cc;}.e{fill:#3c83af;}.f{fill:#fcda97;}.g{fill:#f2bd7c;}.h{fill:#9acded;}.i{fill:#82bbd8;}.j{fill:#ef8f6f;}.l{fill:#fff9e9;}.m{fill:#542c23;}.n{fill:#fff7e9;}.p{fill:#aa5400;}.q{fill:#040404;}.r,.s{fill:#1f1e1c;}.s{opacity:0.35;}.t{fill:none;stroke:#5298cc;stroke-miterlimit:10;stroke-dasharray:3;}</style></defs><path class="a" d="M1006.352,424.926c-8.754.27-9.473,5.2-9.473,5.2s-5.408-3.406-10.857-2.864c-5.561.553-1.593,6.974-1.593,6.974-9.789-.1-6.3,8.891-6.3,8.891-9.946,1.389-14.941,7.907-12.573,15.221,2.345,7.25,9.863,5.777,9.863,5.777a16.341,16.341,0,0,0,3.936,10.258c4.156,5.168,9.787,1.191,9.787,1.191.105,4.164,7.221,6.134,11.313,3.289l22.36-24.074C1029.974,446.415,1011.5,424.767,1006.352,424.926Z" transform="translate(-964.973 -424.925)"/><path class="b" d="M999.7,461.682c-10.574-4.285-18.07-11.938-19.876-19.307-3.852,2.325-1.7,7.89-1.7,7.89-9.946,1.389-14.941,7.907-12.573,15.221,2.345,7.25,9.863,5.777,9.863,5.777a16.341,16.341,0,0,0,3.936,10.258c4.156,5.168,9.787,1.191,9.787,1.191.105,4.164,7.221,6.134,11.313,3.289l14.339-21.214A40.848,40.848,0,0,1,999.7,461.682Z" transform="translate(-964.973 -432.068)"/><path class="c" d="M1030.208,538.493c1.741,1.075,9.875-1.048,14.127-1.948l.074-.851s-11.18,2.1-12.9,1.266-6.538-8.891-6.538-8.891l-2.74.609S1028.466,537.418,1030.208,538.493Z" transform="translate(-988.411 -467.145)"/><path class="d" d="M1029.587,532.465l-5.2,3.393s-6.124-10.3-5.326-11.4,4.45-1.017,5.059.146S1029.587,532.465,1029.587,532.465Z" transform="translate(-987.082 -465.351)"/><path class="e" d="M1024.626,530.883c-2.245-3.051-3.287-6.141-2.463-7.157-1.23-.134-2.643.1-3.1.738-.8,1.1,5.326,11.4,5.326,11.4l2.993-1.954A18.343,18.343,0,0,1,1024.626,530.883Z" transform="translate(-987.082 -465.353)"/><path class="c" d="M1017.15,576.562l7.479,21.043h.892l-5.184-21.944C1019.8,572.947,1016.127,573.639,1017.15,576.562Z" transform="translate(-986.257 -485.927)"/><path class="f" d="M1012.363,573.887c.127.226,5.038-2.217,5.038-2.217s-3.414-13.385-3.533-14.238-6.716-1.791-6.716-1.791S1003.284,557.687,1012.363,573.887Z" transform="translate(-981.903 -478.43)"/><path class="g" d="M1013.3,569.6c-.988-3.927.048-7.794,1.239-8.095a.731.731,0,0,1,.3,0c-.524-2.109-.93-3.787-.97-4.072-.119-.852-6.716-1.791-6.716-1.791s-3.868,2.047,5.211,18.247a9.149,9.149,0,0,0,2.341-.919A12.112,12.112,0,0,1,1013.3,569.6Z" transform="translate(-981.903 -478.43)"/><path class="c" d="M1013.138,579.469l-4.122-14.154-2.3,1.552,3.705,13.289C1011.219,582.274,1013.778,582,1013.138,579.469Z" transform="translate(-982.061 -482.39)"/><path class="f" d="M1005.275,574.454c.118.224,5.129-2.185,5.129-2.185s-2.859-13.2-2.943-14.042-6.643-1.766-6.643-1.766S996.866,558.479,1005.275,574.454Z" transform="translate(-979.265 -478.766)"/><path class="g" d="M1005.773,570.883c-1.144-4.406.493-8.75,2.013-9.145a1.066,1.066,0,0,1,.366-.02,17.025,17.025,0,0,1-.263-3.709c-.084-.841-7.07-1.547-7.07-1.547s-3.952,2.018,4.457,17.993a5.694,5.694,0,0,0,1.718-.612A11.81,11.81,0,0,1,1005.773,570.883Z" transform="translate(-979.265 -478.766)"/><path class="d" d="M1014.371,525.379c1.388-2.3-2.449-7.07-6.119-4.461-6.005,4.271-8.582,15.394-10.877,22.413,4.96,1.683,10.114,3.307,14.837,2.309C1010.5,536.053,1011.834,529.587,1014.371,525.379Z" transform="translate(-978.236 -463.907)"/><path class="e" d="M1005.981,536.646c0-6.606,1.652-12.445,4.182-16a2.989,2.989,0,0,0-2.351.445c-6.005,4.271-9.218,15.455-11.513,22.475a44.226,44.226,0,0,0,10.9,2.513A35.55,35.55,0,0,1,1005.981,536.646Z" transform="translate(-977.795 -464.079)"/><path class="c" d="M988.839,523.409c-2.085.994-4.341,9.343-6.276,13.586l.529.372s5.323-11.02,7.181-12.116,12.175-1.239,12.175-1.239l1.22-2.75S990.925,522.414,988.839,523.409Z" transform="translate(-972.172 -464.358)"/><path class="d" d="M998.443,526.835l-.111-6.278s13.339-.674,13.9.561-1.681,4.484-3.138,4.484S998.443,526.835,998.443,526.835Z" transform="translate(-978.627 -463.995)"/><path class="h" d="M1019.978,526.188c-.719-2.514-1.337-4.813-2.91-5.9a3.614,3.614,0,0,1,3.592.255C1022.7,522.1,1019.978,526.188,1019.978,526.188Z" transform="translate(-986.297 -463.808)"/><path class="e" d="M1000.105,522.924c0-1.048,1.388-1.973,3.5-2.523-2.836.045-5.274.168-5.274.168l.111,6.278s4.5-.6,7.7-.966C1002.676,525.545,1000.105,524.35,1000.105,522.924Z" transform="translate(-978.627 -464.006)"/><path class="d" d="M1028.373,613.962h4.358s-2.5-1.728-3.164-1.676S1028.373,613.962,1028.373,613.962Z" transform="translate(-990.924 -501.616)"/><path class="c" d="M1018.988,517.454l1.727-4.292,2.865,1.028-2.367,7.239C1020.748,519.13,1020.147,518.281,1018.988,517.454Z" transform="translate(-987.082 -461.043)"/><path class="c" d="M1004.266,587.953,989.617,597.5l.629.193,14.985-6.514C1007.153,590.373,1006.225,586.689,1004.266,587.953Z" transform="translate(-975.06 -491.549)"/><path class="h" d="M1027.278,541.421l5.591-3.583-.622-1.347-6.064,3.853Z" transform="translate(-990.028 -470.592)"/><path class="i" d="M1029.465,539.483l-3.281,2.086,1.094,1.077,3.251-2.083A6.183,6.183,0,0,1,1029.465,539.483Z" transform="translate(-990.028 -471.817)"/><path class="h" d="M999.343,526.643l-.3-6.946-1.495-.209.3,7.515Z" transform="translate(-978.307 -463.632)"/><path class="i" d="M997.781,525.1l.159,4.067,1.5-.359-.173-4.038A5.941,5.941,0,0,1,997.781,525.1Z" transform="translate(-978.402 -465.792)"/><path class="c" d="M1024.256,494.494c16.587-1.119,13.105-12.285,14.983-28.691,1.317-11.51-13.668-13.572-22.53-9.888s-15.287,11.573-9.888,25.986C1011.029,493.133,1020.331,494.759,1024.256,494.494Z" transform="translate(-981.292 -436.928)"/><path class="b" d="M1012.646,444.237c4.184,2.856,1.828,12.013-2.876,16.857-4.649,4.789-7.311,8.772-6.831,13.85a76.118,76.118,0,0,0,1.784,10.495s-14.3-16.431-10.035-28.624S1006.547,440.077,1012.646,444.237Z" transform="translate(-976.81 -432.214)"/><path class="c" d="M1003.14,488.467c-1.092-3.317-.373-7.109,2.593-5.516s4.673,7.76,2.694,8.443A4.29,4.29,0,0,1,1003.14,488.467Z" transform="translate(-980.398 -448.523)"/><path class="j" d="M1005.3,489.8c-.637-1.929-.22-4.135,1.5-3.209s2.718,4.512,1.569,4.91A2.493,2.493,0,0,1,1005.3,489.8Z" transform="translate(-981.364 -450.079)"/><path class="c" d="M1008.137,492.722c-.48-1.447-.169-3.1,1.125-2.4s2.044,3.386,1.182,3.683A1.875,1.875,0,0,1,1008.137,492.722Z" transform="translate(-982.554 -451.625)"/><path class="d" d="M989.891,600.685l-1.727,4.008s2.574-1.611,2.79-2.243S989.891,600.685,989.891,600.685Z" transform="translate(-974.465 -496.868)"/><g transform="translate(35.23 28.167)"><path class="k" d="M1054.267,486.348c.251-2.936-1.141-5.288-3.1-5.248s-3.761,2.444-4.014,5.384,1.665,3.352,3.629,3.314S1054.014,489.283,1054.267,486.348Z" transform="translate(-1033.83 -476.086)"/><path class="k" d="M1033.2,483.022c.381-3.257-1.126-5.891-3.367-5.884s-4.365,2.654-4.747,5.914,1.56,3.857,3.8,3.849S1032.817,486.28,1033.2,483.022Z" transform="translate(-1024.789 -474.464)"/><path class="l" d="M1054.216,487.218c.232-2.689-1.176-4.835-3.138-4.8s-3.748,2.244-3.978,4.93,1.326,3.084,3.254,3.5C1052.55,491.324,1053.988,489.9,1054.216,487.218Z" transform="translate(-1033.81 -476.626)"/><path class="l" d="M1032.925,483.989c.346-2.979-1.187-5.388-3.427-5.379s-4.337,2.432-4.685,5.409,1.367,3.478,3.589,3.94C1030.6,488.419,1032.573,486.97,1032.925,483.989Z" transform="translate(-1024.678 -475.067)"/><path class="m" d="M1033.022,504.737a69.956,69.956,0,0,1,9.062,1.172c-.549,1.273-2.035,3.769-5.158,3.587C1033.443,509.291,1033,506.291,1033.022,504.737Z" transform="translate(-1028.056 -485.751)"/><path class="n" d="M1034.378,505.262c-.017-.1,7.243.87,7.19.949-.367.583-.388,3.246-4.182,2.869C1033.04,508.647,1034.5,505.989,1034.378,505.262Z" transform="translate(-1028.554 -485.973)"/><path class="j" d="M1040.032,500.259c-.954-.333-1.465-1.046-1.3-1.673a1.158,1.158,0,0,0-.375.376c-.381.682.185,1.529,1.256,1.9a2.235,2.235,0,0,0,2.623-.546.669.669,0,0,0,.045-.224A2.609,2.609,0,0,1,1040.032,500.259Z" transform="translate(-1030.192 -483.244)"/><path class="k" d="M1056.212,489.242c-.125-1.015-.864-1.686-1.664-1.492a1.953,1.953,0,0,0-1.217,2.191c.12,1.016.867,1.691,1.665,1.5A1.962,1.962,0,0,0,1056.212,489.242Z" transform="translate(-1036.362 -478.794)"/><path class="k" d="M1034.828,486.885c-.1-1.129-.921-1.89-1.842-1.7a2.183,2.183,0,0,0-1.492,2.383c.1,1.129.92,1.887,1.839,1.7A2.184,2.184,0,0,0,1034.828,486.885Z" transform="translate(-1027.427 -477.746)"/><path class="b" d="M1035.113,488.357c-.038-.418-.343-.7-.683-.631a.81.81,0,0,0-.552.885c.035.418.343.7.68.631A.808.808,0,0,0,1035.113,488.357Z" transform="translate(-1028.405 -478.794)"/><path class="b" d="M1056.463,490.748c-.048-.378-.32-.622-.617-.552a.722.722,0,0,0-.45.81c.046.375.32.625.613.553A.724.724,0,0,0,1056.463,490.748Z" transform="translate(-1037.212 -479.805)"/><g class="o"><path class="k" d="M1032.582,474.628a10.255,10.255,0,0,0-6.859.536.75.75,0,0,1-.937-.25l-.034-.049a.756.756,0,0,1,.285-1.109,11.967,11.967,0,0,1,8.074-.744.758.758,0,0,1,.45,1.064l-.086.171A.745.745,0,0,1,1032.582,474.628Z" transform="translate(-1024.616 -472.612)"/></g><g class="o" transform="translate(16.291 1.201)"><path class="k" d="M1057.458,478.3a6.683,6.683,0,0,0-4.521-2.113.755.755,0,0,1-.733-.673l0-.035a.758.758,0,0,1,.751-.835,7.693,7.693,0,0,1,5.663,2.684.762.762,0,0,1-.052,1.025h0A.76.76,0,0,1,1057.458,478.3Z" transform="translate(-1052.196 -474.645)"/></g></g><path class="c" d="M1059.134,543.408c.445.333,1.057.581,1.263.441.174-.121-.283-.3-.542-.573-.233-.236-.319-.315-.231-.363a3.989,3.989,0,0,1,.864.5c.537.341.967.495,1.169.353.181-.145-.242-.295-.677-.642-.382-.3-.578-.419-.387-.563.084-.071.376.109.895.318.594.239,1.053.279,1.162.141.152-.2-.24-.169-.853-.511-.82-.452-1.129-.468-1.268-.931-.129-.431,1.678.114,1.649-.283-.042-.525-3.676-.768-4.234-.317C1057.138,541.632,1057.729,542.348,1059.134,543.408Z" transform="translate(-1002.879 -472.33)"/><path class="c" d="M977.645,546.671c-.556.026-1.188.223-1.257.463-.058.2.413.056.783.1.331.035.448.04.411.133a3.988,3.988,0,0,1-.984.167c-.634.079-1.063.233-1.129.471-.047.227.376.072.932.065.49-.01.714-.045.659.188-.019.109-.36.155-.894.323-.611.193-.992.454-.989.631.011.249.295-.022.987-.148.922-.172,1.171-.357,1.573-.089.376.251-1.367.98-1.093,1.268.367.378,3.33-1.744,3.473-2.447C980.32,546.772,979.407,546.594,977.645,546.671Z" transform="translate(-969.15 -474.753)"/><path class="k" d="M1017.133,443.16c-1.61-5.481-6.666-7.344-11.293-4.163s-7.071,10.2-5.462,15.684,6.666,7.344,11.293,4.164S1018.744,448.641,1017.133,443.16Z" transform="translate(-979.263 -430.05)"/><path class="p" d="M1102.138,595.275a5.1,5.1,0,0,1-3.522,1.118c-2.164-.124-4.544,2.38-6.12,3.276s-4.52.958-4.841.649.39-1.174,1.379-2.349,2.04.433,3.09-.154a42.343,42.343,0,0,0,3.523-3.029C1095.833,594.723,1101.858,594.62,1102.138,595.275Z" transform="translate(-1015.158 -494.434)"/><path class="q" d="M1199.143,558.264a2.77,2.77,0,0,1,1.178,1.62c.169.989-.046,2.241.637,2.538a1.959,1.959,0,0,0,2.073-.76C1203.189,561.19,1202.291,558.451,1199.143,558.264Z" transform="translate(-1060.824 -479.504)"/><path class="r" d="M1087.862,567.356s.412-.494.659,1.071,2.226,7.005,7.665,5.934,10.715-5.11,13.6-4.2c0,0,3.792-3.132,7.748-1.483s10.632-1.484,14.011-2.8a45.525,45.525,0,0,1,19.781-3.379s8.6-.02,8.572,3.75c0,0-.278.618,0,.835a16.3,16.3,0,0,0,3.925,2.751c1.762.711-7.325,2.164-8.129,1.515s-4.451-3.029-5.841-1.484-.556,2.195-2.009,4.111-3.153,3.245-3.246,3.77,1.824,2.133,2.411,2.442,4.481-1.453,6.429-1.885,5.254-.618,6.089.278-5.255,2.38-5.255,2.38a33.712,33.712,0,0,0-5.006,2.164c-.773.649-.619.8.71.865s3.184-.247,4.513,1.051l-1.144,1.978s-5.378-1.236-7.233-.9-3.276.124-4.049-1.484-3-5.564-3.956-4.636-7.109,2.194-11.714-.773-6.367-2.781-7.851-1.236-5.564,6.46-12.27,7.016-8.53.247-8.53.247a5.271,5.271,0,0,1,1.576-1.669c.835-.433,1.576-.093,2.535-.742a10.97,10.97,0,0,0,1.113-.8s-2.318.093-3.152.031-3.06-.618-3.894-.309-.309-.31.309-.9,1.947-.432,4.173-.464,5.285-1.483,6.212-2.719a6.593,6.593,0,0,0,1.546-3.647,2.7,2.7,0,0,1,.68-1.793s-.773-.556-4.327,1.546-10.447,4.636-14.094.432S1087.862,567.356,1087.862,567.356Z" transform="translate(-1015.212 -481.223)"/><path class="p" d="M1204.222,577.236s-1.978-.783-1.36-1.937,2.06-1.937,2.761-1.2,1.236,1.4,2.226,1.113,1.5-1.648,2.647-.927a3.078,3.078,0,0,1,1.348,1.9s-1.935,1.949-3.295,1.248c0,0-.083.495-.865.66S1206.241,578.473,1204.222,577.236Z" transform="translate(-1062.297 -485.869)"/><path class="q" d="M1215.345,574.663a10.465,10.465,0,0,1,1.494,1.03c.288.288-.481,1.3-1.23,1.328s-1.614-.711-1.367-1.081A16.633,16.633,0,0,1,1215.345,574.663Z" transform="translate(-1066.988 -486.217)"/><path class="q" d="M1196.142,557.6a.115.115,0,0,0-.115.188,2.9,2.9,0,0,1,.79,1.758c.027,1.154-.427,2.544.3,3a2.258,2.258,0,0,0,2.488-.52C1199.855,561.527,1199.341,558.486,1196.142,557.6Z" transform="translate(-1059.537 -479.23)"/><path class="p" d="M1199.61,591.727s3.4-.989,3.936-.206,1.03,2.885,3.5,2.638-.618-2.8-1.154-3.709a2.939,2.939,0,0,0-2.471-1.658c-1.4-.2-1.938,1.988-2.968,2.029S1197.077,592.634,1199.61,591.727Z" transform="translate(-1060.551 -491.995)"/><path class="s" d="M1211.432,579.187a9.038,9.038,0,0,1-1.648-1.11s.165.614.573.762a4.18,4.18,0,0,1,.951.591Z" transform="translate(-1065.18 -487.614)"/><path class="p" d="M1198.773,599.823s1.878,1.061,2.867,1.525a14.128,14.128,0,0,0,3.091,1.484c.989.154,2.349,1.576,3.122,1.916s-.742,1.514-4.111.649c0,0-.742-.34-.773-.8s-3.751-1.743-4.327-2.071a2.067,2.067,0,0,1-.773-.68s.927-1.422-.155-1.638S1197.235,599.225,1198.773,599.823Z" transform="translate(-1060.015 -496.424)"/><path class="p" d="M1099.1,600.345a46.607,46.607,0,0,0-3.768,3.741c-.4.68-1.916.525-2.411.556s-1.7,2.442-2.009,2.781,2.563,1.02,4.094.155,5.858-6.367,8.918-6.522,4.831-.9,4.7-.991-.994-.925-4.517-.214-3.863.773-4.234.093C1099.79,599.78,1099.1,600.345,1099.1,600.345Z" transform="translate(-1016.515 -496.411)"/><path class="d" d="M1191.66,569.237s-3.214-4.039-3.585-7.995c0,0-.129-.113-.454,0a.447.447,0,0,1-.479-.05,16.884,16.884,0,0,0,3.987,8.555s.047-.355.217-.355S1191.619,569.36,1191.66,569.237Z" transform="translate(-1055.912 -480.703)"/><path class="t" d="M1057.217,544.113s1.932-1.6,6.877-.846,17.8,11.132,34.864,11.256,36.665,2.253,36.665,2.253" transform="translate(-1002.731 -473.284)"/></svg>