<svg xmlns="http://www.w3.org/2000/svg" width="92.708" height="147.468" viewBox="0 0 92.708 147.468"><defs><style>.a{fill:#efe9ce;}.b{fill:#e5d3b7;}.c{fill:#7d5a42;}.d{fill:#fcc57b;}.e{fill:#fcb95d;}.f{fill:#7fd1d8;}.g{fill:#bfbfbf;}.h{fill:#9e9e9e;}.i{fill:#444;}.j{fill:#a3a3a3;}.k{fill:#c7c7c7;}.l{fill:#606060;}.m{fill:#96d9df;}.n{fill:#936a4e;}.o{fill:#8c5d4a;}.p{fill:#402c23;}.q{fill:#ef8f6f;}.r{fill:#fff9e9;}.s{fill:#894f23;}.t{fill:#2e2c23;}.u{fill:#952c23;}</style></defs><g transform="translate(-223.328 -364.567)"><path class="a" d="M284.432,522h-13.09s-5.578-3.308-4.554-7.937,14.229-3.835,14.229-3.835l5.343,1.18a5.231,5.231,0,0,1,3.718,5.554,5,5,0,0,1-4.272,4.988C285.373,521.979,284.917,522,284.432,522Z" transform="translate(-15.311 -51.448)"/><path class="b" d="M281.268,515.811c-6.079-.4-10.909-2.214-10.788-4.058,0-.034.017-.064.023-.1-1.906.579-3.4,1.491-3.715,2.928-1.024,4.629,4.554,7.937,4.554,7.937h13.09c.485,0,.942-.018,1.374-.051a5,5,0,0,0,4.272-4.988,6.09,6.09,0,0,0-.324-2.311A26.391,26.391,0,0,1,281.268,515.811Z" transform="translate(-15.311 -51.972)"/><path class="c" d="M292.468,522.7l3.776.077a4.906,4.906,0,0,0,4.086-5.893c-.3-1.936-1.54-4.6-3.429-4.715C295.174,512.064,290.306,514.952,292.468,522.7Z" transform="translate(-24.238 -52.151)"/><path class="d" d="M297.36,522.433l-7.685,25.11-.9-.616,5.007-28.314a1.763,1.763,0,0,1,1.83-1.512,2.168,2.168,0,0,1,1.824,1.819A6.909,6.909,0,0,1,297.36,522.433Z" transform="translate(-23.125 -53.894)"/><path class="e" d="M326.845,501.451c.592.134,1.279.113,1.373-.111.08-.192-.435-.175-.824-.323-.346-.129-.471-.17-.423-.253a4.289,4.289,0,0,1,1.059.113c.68.1,1.15.066,1.24-.159.07-.217-.393-.181-.986-.333-.518-.129-.76-.158-.68-.379.03-.106.4-.054.978-.074.665-.022,1.094-.178,1.1-.36.01-.257-.315-.06-1.061-.131-.993-.087-1.274.029-1.678-.36-.374-.363,1.538-.606,1.271-.978-.355-.492-3.687.824-3.9,1.5C324.011,500.584,324.967,501.025,326.845,501.451Z" transform="translate(-35.663 -47.145)"/><path class="e" d="M290.826,488.433c1.843,3.3,3.046,6.606,5.505,8.259s17.057-.275,17.057-.275l-.555-1.377s-12.662.689-15.177-1.1-4.386-7.708-4.386-7.708Z" transform="translate(-23.849 -42.989)"/><path class="f" d="M287.014,564.142h5.142s-2.948-1.994-3.733-1.935S287.014,564.142,287.014,564.142Z" transform="translate(-22.503 -69.833)"/><g transform="translate(282.354 477.798)"><g transform="translate(0 13.89)"><rect class="g" width="29.617" height="0.367" transform="translate(0 1.469)"/><rect class="g" width="29.617" height="0.367"/></g><g transform="translate(13.891)"><rect class="g" width="0.367" height="29.617" transform="translate(1.469)"/><rect class="g" width="0.367" height="29.617"/></g><g transform="translate(8.294 0.776)"><rect class="g" width="0.367" height="29.617" transform="translate(1.357 0.14) rotate(-22.5)"/><rect class="g" width="0.367" height="29.618" transform="translate(0 0.702) rotate(-22.499)"/></g><g transform="translate(3.688 3.688)"><rect class="g" width="0.367" height="29.617" transform="translate(1.038 0.26) rotate(-45)"/><rect class="g" width="0.367" height="29.617" transform="translate(0 1.298) rotate(-45)"/></g><g transform="translate(0.776 8.293)"><rect class="g" width="0.367" height="29.617" transform="translate(0.562 0.339) rotate(-67.499)"/><rect class="g" width="0.368" height="29.617" transform="translate(0 1.696) rotate(-67.5)"/></g><g transform="translate(0.776 8.293)"><rect class="g" width="29.618" height="0.367" transform="translate(0.562 12.691) rotate(-22.5)"/><rect class="g" width="29.618" height="0.367" transform="translate(0 11.334) rotate(-22.5)"/></g><g transform="translate(3.689 3.688)"><rect class="g" width="29.618" height="0.367" transform="matrix(0.707, -0.707, 0.707, 0.707, 1.038, 21.982)"/><rect class="g" width="29.617" height="0.367" transform="translate(0 20.943) rotate(-45.001)"/></g><g transform="translate(8.294 0.775)"><rect class="g" width="29.618" height="0.367" transform="translate(1.357 27.926) rotate(-67.5)"/><rect class="g" width="29.618" height="0.367" transform="translate(0 27.363) rotate(-67.501)"/></g></g><g transform="translate(278.288 473.732)"><path d="M327.341,533.8a18.6,18.6,0,1,0,18.6,18.6A18.6,18.6,0,0,0,327.341,533.8Zm0,32.919A14.316,14.316,0,1,1,341.657,552.4,14.316,14.316,0,0,1,327.341,566.719Z" transform="translate(-308.466 -533.528)"/><path d="M328.712,537.68a16.094,16.094,0,1,0,16.094,16.094A16.093,16.093,0,0,0,328.712,537.68Zm0,30.409a14.316,14.316,0,1,1,14.316-14.316A14.316,14.316,0,0,1,328.712,568.089Z" transform="translate(-309.837 -534.899)"/><path class="g" d="M329.118,538.831a15.349,15.349,0,1,0,15.35,15.349A15.349,15.349,0,0,0,329.118,538.831Zm0,29.665a14.316,14.316,0,1,1,14.317-14.316A14.316,14.316,0,0,1,329.118,568.5Z" transform="translate(-310.244 -535.306)"/><path class="h" d="M329.436,539.73A14.768,14.768,0,1,0,344.2,554.5,14.768,14.768,0,0,0,329.436,539.73Zm0,29.084A14.316,14.316,0,1,1,343.752,554.5,14.316,14.316,0,0,1,329.436,568.814Z" transform="translate(-310.561 -535.624)"/><path class="i" d="M345,534.452q-.508-.151-1.029-.274l-.524,1.958c.347.08.691.17,1.028.272Z" transform="translate(-320.731 -533.662)"/><path class="i" d="M341.408,533.673c-.349-.056-.7-.1-1.055-.14l-.265,2.011c.356.034.706.083,1.055.14Z" transform="translate(-319.543 -533.434)"/><path class="i" d="M336.682,533.394v2.027c.177-.005.354-.013.532-.013s.355.008.532.013v-2.027c-.177-.005-.354-.014-.532-.014S336.859,533.388,336.682,533.394Z" transform="translate(-318.34 -533.38)"/><path class="i" d="M333.146,535.684c.348-.057.7-.105,1.055-.14l-.265-2.011c-.355.036-.706.085-1.055.14Z" transform="translate(-316.997 -533.434)"/><path class="i" d="M329.684,536.408c.338-.1.682-.192,1.028-.272l-.524-1.958q-.519.123-1.028.274Z" transform="translate(-315.682 -533.662)"/><path class="i" d="M326.358,537.581c.323-.146.65-.283.982-.409l-.774-1.869q-.5.191-.982.409Z" transform="translate(-314.419 -534.059)"/><path class="i" d="M323.222,539.18c.3-.187.607-.367.92-.535l-1.011-1.753c-.312.169-.619.35-.92.536Z" transform="translate(-313.227 -534.621)"/><path class="i" d="M320.33,541.182c.274-.225.557-.438.846-.646l-1.229-1.6c-.288.208-.57.423-.845.647Z" transform="translate(-312.128 -535.342)"/><path class="i" d="M317.736,543.549q.364-.388.752-.752l-1.427-1.427q-.386.366-.752.752Z" transform="translate(-311.142 -536.203)"/><path class="i" d="M313.872,545.007l1.6,1.229c.208-.288.422-.57.646-.846l-1.6-1.229C314.3,544.437,314.081,544.72,313.872,545.007Z" transform="translate(-310.28 -537.19)"/><path class="i" d="M313.584,549.2q.252-.47.534-.92l-1.751-1.011c-.186.3-.366.607-.535.92Z" transform="translate(-309.56 -538.289)"/><path class="i" d="M312.111,552.4c.125-.333.263-.66.408-.983l-1.868-.774c-.145.323-.283.651-.409.982Z" transform="translate(-308.997 -539.48)"/><path class="i" d="M311.073,555.775q.121-.52.272-1.028l-1.955-.524c-.1.338-.192.681-.274,1.028Z" transform="translate(-308.6 -540.745)"/><path class="i" d="M310.482,559.263c.036-.356.083-.707.14-1.055l-2.01-.265c-.056.349-.1.7-.14,1.055Z" transform="translate(-308.372 -542.059)"/><path class="i" d="M310.345,562.277c0-.179.008-.354.013-.532h-2.027c-.005.177-.014.353-.014.532s.008.354.014.531h2.027C310.353,562.631,310.345,562.455,310.345,562.277Z" transform="translate(-308.318 -543.402)"/><path class="i" d="M308.611,566.471l2.01-.264c-.056-.349-.1-.7-.14-1.055l-2.011.264C308.507,565.771,308.556,566.123,308.611,566.471Z" transform="translate(-308.372 -544.606)"/><path class="i" d="M309.39,570.064l1.955-.524c-.1-.34-.191-.683-.272-1.03l-1.957.524Q309.239,569.555,309.39,570.064Z" transform="translate(-308.6 -545.793)"/><path class="i" d="M310.651,573.529l1.868-.774c-.146-.323-.283-.65-.408-.982l-1.869.773C310.369,572.879,310.506,573.206,310.651,573.529Z" transform="translate(-308.998 -546.946)"/><path class="i" d="M312.367,576.806l1.751-1.011q-.28-.45-.534-.92l-1.752,1.012C312,576.2,312.181,576.5,312.367,576.806Z" transform="translate(-309.56 -548.042)"/><path class="i" d="M314.519,579.838l1.6-1.228c-.224-.276-.438-.557-.646-.846l-1.6,1.229C314.081,579.28,314.3,579.563,314.519,579.838Z" transform="translate(-310.28 -549.062)"/><path class="i" d="M317.736,580.393l-1.427,1.427q.366.386.752.753l1.427-1.427Q318.1,580.782,317.736,580.393Z" transform="translate(-311.142 -549.991)"/><path class="i" d="M319.1,584.326c.276.224.557.438.845.647l1.229-1.6c-.288-.208-.571-.42-.846-.645Z" transform="translate(-312.128 -550.815)"/><path class="i" d="M322.211,586.457c.3.186.607.366.92.535l1.011-1.753c-.313-.167-.618-.346-.92-.533Z" transform="translate(-313.227 -551.515)"/><path class="i" d="M325.584,588.177q.484.217.982.409l.774-1.869c-.332-.125-.66-.263-.982-.409Z" transform="translate(-314.419 -552.081)"/><path class="i" d="M329.161,589.464c.339.1.682.192,1.028.274l.524-1.957c-.346-.08-.69-.17-1.028-.272Z" transform="translate(-315.683 -552.505)"/><path class="i" d="M332.882,590.285c.349.056.7.1,1.055.14l.265-2.01c-.354-.036-.707-.084-1.055-.141Z" transform="translate(-316.997 -552.776)"/><path class="i" d="M337.746,590.626V588.6c-.177.005-.354.012-.532.012s-.355-.007-.532-.012v2.026c.177.005.354.014.532.014S337.569,590.631,337.746,590.626Z" transform="translate(-318.34 -552.891)"/><path class="i" d="M341.143,588.275c-.347.057-.7.1-1.055.141l.265,2.01c.355-.036.706-.085,1.055-.14Z" transform="translate(-319.543 -552.776)"/><path class="i" d="M344.479,587.508c-.338.1-.682.192-1.029.272l.524,1.957q.52-.123,1.029-.275Z" transform="translate(-320.731 -552.505)"/><path class="i" d="M347.694,586.308c-.323.146-.649.284-.982.409l.773,1.869c.332-.127.659-.264.982-.41Z" transform="translate(-321.884 -552.081)"/><path class="i" d="M350.734,584.706c-.3.187-.607.365-.92.533l1.011,1.752c.312-.169.618-.349.92-.535Z" transform="translate(-322.98 -551.515)"/><path class="i" d="M353.547,582.723c-.273.224-.557.438-.846.646l1.23,1.6c.287-.208.57-.423.845-.647Z" transform="translate(-324 -550.815)"/><path class="i" d="M356.084,580.393q-.364.387-.752.753l1.427,1.427q.388-.366.753-.752Z" transform="translate(-324.93 -549.991)"/><path class="i" d="M359.91,578.993l-1.6-1.229c-.208.287-.421.57-.646.845l1.6,1.228C359.488,579.562,359.7,579.28,359.91,578.993Z" transform="translate(-325.753 -549.062)"/><path class="i" d="M360.178,574.875c-.168.314-.347.619-.534.92l1.751,1.011c.186-.3.366-.607.535-.92Z" transform="translate(-326.453 -548.042)"/><path class="i" d="M361.656,571.773c-.125.332-.263.659-.409.982l1.868.773q.218-.484.41-.982Z" transform="translate(-327.02 -546.946)"/><path class="i" d="M362.72,568.511c-.081.347-.171.69-.273,1.028l1.956.524c.1-.339.191-.682.274-1.028Z" transform="translate(-327.444 -545.793)"/><path class="i" d="M363.353,565.149c-.036.356-.083.708-.14,1.055l2.011.265c.056-.349.1-.7.14-1.055Z" transform="translate(-327.714 -544.605)"/><path class="i" d="M363.551,562.277c0,.178-.008.354-.014.531h2.027c0-.177.013-.354.013-.531s-.008-.355-.013-.532h-2.027C363.543,561.922,363.551,562.1,363.551,562.277Z" transform="translate(-327.829 -543.402)"/><path class="i" d="M365.224,557.943l-2.011.265c.057.349.1.7.14,1.055l2.011-.265C365.328,558.643,365.28,558.292,365.224,557.943Z" transform="translate(-327.714 -542.059)"/><path class="i" d="M364.4,554.222l-1.956.524c.1.338.191.682.273,1.028l1.957-.524C364.594,554.9,364.5,554.561,364.4,554.222Z" transform="translate(-327.444 -540.744)"/><path class="i" d="M363.115,550.645l-1.868.774c.146.323.283.65.409.983l1.87-.775Q363.334,551.13,363.115,550.645Z" transform="translate(-327.02 -539.48)"/><path class="i" d="M361.93,548.192c-.169-.312-.349-.618-.535-.92l-1.751,1.011c.186.3.366.607.534.92Z" transform="translate(-326.453 -538.289)"/><path class="i" d="M359.264,544.164l-1.6,1.229c.225.274.438.557.645.844l1.6-1.229Q359.6,544.577,359.264,544.164Z" transform="translate(-325.753 -537.19)"/><path class="i" d="M356.084,543.55l1.427-1.427q-.366-.387-.752-.752l-1.427,1.427Q355.719,543.163,356.084,543.55Z" transform="translate(-324.93 -536.203)"/><path class="i" d="M354.776,539.581c-.275-.224-.558-.438-.845-.647l-1.231,1.6c.288.208.572.421.846.646Z" transform="translate(-324 -535.342)"/><path class="i" d="M351.745,537.429c-.3-.186-.607-.366-.92-.535l-1.011,1.752c.314.168.62.348.92.535Z" transform="translate(-322.98 -534.622)"/><path class="i" d="M348.467,535.712c-.323-.145-.65-.282-.983-.409l-.774,1.869c.334.125.66.263.983.409Z" transform="translate(-321.883 -534.059)"/></g><rect class="j" width="1.901" height="9.812" transform="translate(252.143 470.746) rotate(-12.25)"/><rect class="h" width="1.901" height="11.291" transform="matrix(0.981, -0.195, 0.195, 0.981, 286.807, 453.881)"/><path d="M338.372,561.524a1.911,1.911,0,1,1-1.912-1.912A1.911,1.911,0,0,1,338.372,561.524Z" transform="translate(-39.299 -68.916)"/><g transform="translate(223.328 482.418)"><g transform="translate(3.19 3.19)"><g transform="translate(0 10.898)"><rect class="g" width="23.237" height="0.288" transform="translate(0 1.153)"/><rect class="g" width="23.237" height="0.288"/></g><g transform="translate(10.898)"><rect class="g" width="0.288" height="23.237" transform="translate(1.152)"/><rect class="g" width="0.288" height="23.237"/></g><g transform="translate(6.507 0.609)"><rect class="g" width="0.288" height="23.237" transform="translate(1.064 0.11) rotate(-22.5)"/><rect class="g" width="0.288" height="23.237" transform="translate(0 0.551) rotate(-22.499)"/></g><g transform="translate(2.894 2.894)"><rect class="g" width="0.288" height="23.237" transform="translate(0.815 0.204) rotate(-45)"/><rect class="g" width="0.288" height="23.237" transform="matrix(0.707, -0.707, 0.707, 0.707, 0, 1.019)"/></g><g transform="translate(0.609 6.507)"><rect class="g" width="0.288" height="23.237" transform="translate(0.441 0.266) rotate(-67.499)"/><rect class="g" width="0.288" height="23.237" transform="translate(0 1.331) rotate(-67.501)"/></g><g transform="translate(0.609 6.507)"><rect class="g" width="23.237" height="0.288" transform="matrix(0.924, -0.383, 0.383, 0.924, 0.441, 9.957)"/><rect class="g" width="23.237" height="0.288" transform="translate(0 8.892) rotate(-22.499)"/></g><g transform="translate(2.894 2.893)"><rect class="g" width="23.238" height="0.288" transform="translate(0.815 17.246) rotate(-45)"/><rect class="g" width="23.237" height="0.288" transform="translate(0 16.431) rotate(-45.001)"/></g><g transform="translate(6.507 0.608)"><rect class="g" width="23.237" height="0.288" transform="matrix(0.383, -0.924, 0.924, 0.383, 1.064, 21.91)"/><rect class="g" width="23.237" height="0.288" transform="translate(0 21.469) rotate(-67.501)"/></g></g><path d="M238.253,547.141a14.6,14.6,0,1,0,14.6,14.6A14.6,14.6,0,0,0,238.253,547.141Zm0,25.827a11.232,11.232,0,1,1,11.232-11.232A11.232,11.232,0,0,1,238.253,572.968Z" transform="translate(-223.445 -546.928)"/><path d="M239.329,550.185a12.627,12.627,0,1,0,12.627,12.627A12.627,12.627,0,0,0,239.329,550.185Zm0,23.859a11.232,11.232,0,1,1,11.232-11.232A11.232,11.232,0,0,1,239.329,574.044Z" transform="translate(-224.52 -548.004)"/><path class="g" d="M239.648,551.089a12.043,12.043,0,1,0,12.043,12.042A12.042,12.042,0,0,0,239.648,551.089Zm0,23.274a11.232,11.232,0,1,1,11.232-11.232A11.232,11.232,0,0,1,239.648,574.363Z" transform="translate(-224.839 -548.323)"/><path class="h" d="M239.9,551.794a11.587,11.587,0,1,0,11.588,11.586A11.587,11.587,0,0,0,239.9,551.794Zm0,22.818a11.232,11.232,0,1,1,11.232-11.232A11.232,11.232,0,0,1,239.9,574.612Z" transform="translate(-225.088 -548.572)"/><path class="i" d="M252.11,547.653c-.266-.079-.535-.151-.807-.215l-.411,1.535c.272.063.542.134.807.214Z" transform="translate(-233.067 -547.033)"/><path class="i" d="M249.29,547.042c-.274-.043-.549-.081-.828-.11l-.208,1.578c.279.027.554.065.827.11Z" transform="translate(-232.136 -546.854)"/><path class="i" d="M245.582,546.822v1.591c.139,0,.278-.01.418-.01s.279.006.418.01v-1.591c-.139,0-.277-.01-.418-.01S245.722,546.818,245.582,546.822Z" transform="translate(-231.191 -546.812)"/><path class="i" d="M242.809,548.62c.273-.045.549-.083.827-.11l-.208-1.578c-.279.028-.554.067-.827.11Z" transform="translate(-230.138 -546.854)"/><path class="i" d="M240.092,549.187c.265-.08.534-.151.806-.214l-.411-1.535c-.272.065-.541.136-.806.215Z" transform="translate(-229.106 -547.033)"/><path class="i" d="M237.482,550.108c.254-.114.51-.222.771-.321l-.607-1.466q-.391.149-.771.321Z" transform="translate(-228.115 -547.345)"/><path class="i" d="M235.021,551.362c.236-.147.476-.288.722-.42l-.793-1.375c-.245.133-.485.274-.722.42Z" transform="translate(-227.179 -547.786)"/><path class="i" d="M232.753,552.933c.215-.176.437-.344.663-.507l-.965-1.257c-.226.164-.447.332-.663.508Z" transform="translate(-226.318 -548.352)"/><path class="i" d="M230.718,554.791q.285-.3.59-.59l-1.119-1.119c-.2.191-.4.388-.59.59Z" transform="translate(-225.543 -549.027)"/><path class="i" d="M227.686,555.935l1.257.964c.164-.226.331-.448.507-.664l-1.256-.964Q227.931,555.6,227.686,555.935Z" transform="translate(-224.868 -549.801)"/><path class="i" d="M227.46,559.227c.132-.246.273-.487.42-.722l-1.374-.793c-.146.237-.287.477-.42.722Z" transform="translate(-224.302 -550.663)"/><path class="i" d="M226.3,561.736c.1-.261.206-.517.321-.771l-1.466-.607c-.114.253-.222.51-.321.771Z" transform="translate(-223.861 -551.598)"/><path class="i" d="M225.489,564.383c.064-.272.135-.541.214-.806l-1.534-.411c-.08.265-.151.534-.215.806Z" transform="translate(-223.549 -552.59)"/><path class="i" d="M225.026,567.12q.043-.419.11-.828l-1.577-.208c-.044.274-.082.549-.111.828Z" transform="translate(-223.37 -553.621)"/><path class="i" d="M224.919,569.483c0-.14.006-.277.01-.417h-1.59c0,.139-.011.277-.011.417s.007.278.011.417h1.59C224.925,569.762,224.919,569.623,224.919,569.483Z" transform="translate(-223.328 -554.675)"/><path class="i" d="M223.559,572.774l1.577-.208q-.067-.41-.11-.828l-1.577.208C223.477,572.225,223.516,572.5,223.559,572.774Z" transform="translate(-223.371 -555.62)"/><path class="i" d="M224.169,575.593l1.534-.411c-.08-.266-.15-.536-.214-.808l-1.535.411C224.019,575.059,224.09,575.328,224.169,575.593Z" transform="translate(-223.549 -556.551)"/><path class="i" d="M225.159,578.312l1.466-.607c-.114-.253-.222-.51-.321-.771l-1.466.607Q224.987,577.932,225.159,578.312Z" transform="translate(-223.862 -557.455)"/><path class="i" d="M226.505,580.883l1.374-.793c-.146-.236-.287-.477-.419-.722l-1.375.794C226.218,580.407,226.359,580.646,226.505,580.883Z" transform="translate(-224.302 -558.315)"/><path class="i" d="M228.194,583.261l1.256-.963c-.175-.216-.343-.437-.506-.664l-1.257.965C227.85,582.824,228.018,583.046,228.194,583.261Z" transform="translate(-224.868 -559.116)"/><path class="i" d="M230.717,583.7l-1.119,1.12q.286.3.59.59l1.119-1.12Q231,584,230.717,583.7Z" transform="translate(-225.543 -559.845)"/><path class="i" d="M231.789,586.783q.324.263.663.508l.965-1.258c-.226-.162-.448-.329-.663-.506Z" transform="translate(-226.318 -560.491)"/><path class="i" d="M234.229,588.455c.237.145.476.287.721.42l.793-1.375c-.245-.131-.485-.272-.722-.418Z" transform="translate(-227.18 -561.04)"/><path class="i" d="M236.875,589.8c.253.114.51.222.771.321l.607-1.466c-.261-.1-.517-.207-.771-.321Z" transform="translate(-228.115 -561.485)"/><path class="i" d="M239.681,590.814c.266.08.535.151.807.215l.411-1.536c-.271-.063-.541-.134-.806-.214Z" transform="translate(-229.106 -561.817)"/><path class="i" d="M242.6,591.459c.274.043.549.081.828.11l.208-1.577c-.278-.028-.554-.066-.828-.111Z" transform="translate(-230.138 -562.03)"/><path class="i" d="M246.417,591.725v-1.589c-.139,0-.277.01-.418.01s-.279-.006-.418-.01v1.589c.14,0,.278.011.418.011S246.278,591.729,246.417,591.725Z" transform="translate(-231.191 -562.12)"/><path class="i" d="M249.082,589.881c-.272.045-.548.083-.827.111l.208,1.577c.279-.028.554-.067.828-.11Z" transform="translate(-232.136 -562.03)"/><path class="i" d="M251.7,589.279c-.266.08-.535.151-.808.214l.411,1.536c.272-.065.541-.136.807-.215Z" transform="translate(-233.067 -561.817)"/><path class="i" d="M254.222,588.338c-.253.115-.51.222-.771.321l.607,1.466q.391-.15.771-.321Z" transform="translate(-233.972 -561.485)"/><path class="i" d="M256.607,587.081c-.237.147-.477.287-.722.418l.793,1.375c.245-.133.485-.274.722-.42Z" transform="translate(-234.832 -561.04)"/><path class="i" d="M258.814,585.525c-.215.177-.438.345-.663.507l.965,1.257c.225-.164.447-.332.663-.508Z" transform="translate(-235.632 -560.491)"/><path class="i" d="M260.8,583.7q-.285.3-.59.59l1.12,1.119q.3-.286.59-.59Z" transform="translate(-236.361 -559.845)"/><path class="i" d="M263.806,582.6l-1.256-.964c-.164.226-.33.448-.507.663l1.256.964C263.475,583.045,263.643,582.824,263.806,582.6Z" transform="translate(-237.007 -559.116)"/><path class="i" d="M264.017,579.368c-.132.246-.273.486-.419.722l1.374.792c.146-.236.287-.476.42-.721Z" transform="translate(-237.557 -558.315)"/><path class="i" d="M265.176,576.934c-.1.261-.207.517-.321.771l1.466.607c.114-.254.222-.51.321-.771Z" transform="translate(-238.001 -557.455)"/><path class="i" d="M266.011,574.375c-.064.272-.134.541-.214.806l1.534.411c.08-.266.151-.535.215-.806Z" transform="translate(-238.334 -556.551)"/><path class="i" d="M266.508,571.737q-.043.419-.11.828l1.578.208c.043-.273.081-.549.11-.828Z" transform="translate(-238.546 -555.619)"/><path class="i" d="M266.663,569.483c0,.14-.006.279-.011.417h1.59c0-.139.011-.277.011-.417s-.006-.278-.011-.417h-1.59C266.657,569.206,266.663,569.343,266.663,569.483Z" transform="translate(-238.636 -554.675)"/><path class="i" d="M267.976,566.084l-1.578.208c.045.274.081.549.11.828l1.578-.208C268.057,566.633,268.019,566.358,267.976,566.084Z" transform="translate(-238.546 -553.621)"/><path class="i" d="M267.331,563.164l-1.534.412c.08.265.15.535.214.806l1.535-.412C267.482,563.7,267.41,563.43,267.331,563.164Z" transform="translate(-238.334 -552.59)"/><path class="i" d="M266.321,560.358l-1.466.607c.114.254.222.51.321.771l1.466-.607Q266.493,560.738,266.321,560.358Z" transform="translate(-238.001 -551.598)"/><path class="i" d="M265.391,558.433c-.133-.245-.274-.485-.42-.721l-1.374.793c.146.237.287.476.418.722Z" transform="translate(-237.557 -550.663)"/><path class="i" d="M263.3,555.273l-1.256.964c.177.215.343.437.506.662l1.257-.964C263.643,555.709,263.475,555.488,263.3,555.273Z" transform="translate(-237.007 -549.802)"/><path class="i" d="M260.8,554.791l1.12-1.119q-.287-.3-.59-.59l-1.12,1.119Q260.518,554.487,260.8,554.791Z" transform="translate(-236.361 -549.027)"/><path class="i" d="M259.779,551.677c-.215-.176-.438-.344-.663-.508l-.965,1.257c.226.163.448.331.663.507Z" transform="translate(-235.632 -548.352)"/><path class="i" d="M257.4,549.989c-.237-.146-.476-.287-.721-.42l-.794,1.374c.246.132.486.273.722.42Z" transform="translate(-234.832 -547.786)"/><path class="i" d="M254.828,548.641c-.253-.114-.51-.221-.771-.321l-.607,1.467c.262.1.518.206.771.321Z" transform="translate(-233.971 -547.345)"/><path d="M244.3,564.577l.465-.326.365.435.533-.194.24.515.566-.05.1.559.559.1-.05.565.515.24-.194.534.435.365-.326.465.326.465-.435.365.194.533-.515.24.05.566-.559.1-.1.559-.566-.05-.24.515-.533-.195-.365.435-.465-.325-.465.325-.365-.435-.533.195-.24-.515-.566.05-.1-.559-.559-.1.05-.566-.515-.24.194-.533-.435-.365.326-.465-.326-.465.435-.365-.194-.534.515-.24-.05-.565.559-.1.1-.559.566.05.24-.515.533.194.365-.435Z" transform="translate(-229.49 -552.974)"/></g><g transform="translate(260.09 465.48)"><path class="k" d="M281.4,552.774a1.222,1.222,0,0,1-.874-2.076l29.042-29.711a1.222,1.222,0,1,1,1.748,1.709l-29.042,29.711A1.218,1.218,0,0,1,281.4,552.774Z" transform="translate(-280.177 -520.618)"/><path class="k" d="M310.442,521.84l.855-.872h0a1.222,1.222,0,0,0-1.729.02L280.525,550.7a1.222,1.222,0,0,0,.014,1.721l.86-.867Z" transform="translate(-280.177 -520.618)"/></g><g transform="translate(236.984 465.48)"><path class="k" d="M245.667,553.641a1.223,1.223,0,0,1-.932-2.012l17.6-14.141a1.225,1.225,0,0,1,.779-.423l34.548-16.437a1.222,1.222,0,0,1,.307,2.425L263.893,539.43,246.6,553.209A1.221,1.221,0,0,1,245.667,553.641Z" transform="translate(-244.445 -520.619)"/><path class="j" d="M263.268,538.277l34.548-16.437,1.211-.161a1.223,1.223,0,0,0-1.364-1.052l-34.548,16.437a1.225,1.225,0,0,0-.779.423l-17.6,14.141a1.222,1.222,0,0,0,.142,1.722.22.22,0,0,0,.025.017l.766-.949Z" transform="translate(-244.445 -520.619)"/></g><g transform="translate(236.984 479.282)"><path class="k" d="M268.774,560.316a1.221,1.221,0,0,1-.193-.016l-23.107.867a1.222,1.222,0,1,1,.387-2.413L267.2,557.6l-5.7-14.16a1.222,1.222,0,0,1,2.388-.519l6.077,15.909a1.222,1.222,0,0,1-1.194,1.482Z" transform="translate(-244.445 -541.962)"/><path class="j" d="M245.68,559.975l23.107-.867L262.709,543.2l-.245-1.2-.014,0a1.221,1.221,0,0,0-.934,1.453l5.7,14.16-21.339,1.15a1.22,1.22,0,0,0-1.392.984Z" transform="translate(-244.458 -541.977)"/></g><g transform="translate(287.331 456.411)"><path class="k" d="M332.134,544.013a1.219,1.219,0,0,1-.967-.475l-2.27-2.933a1.228,1.228,0,0,1-.232-.511l-6.339-32.04a1.222,1.222,0,0,1,2.4-.473l6.284,31.757,2.093,2.7a1.223,1.223,0,0,1-.965,1.971Z" transform="translate(-322.302 -506.595)"/><path class="j" d="M332.134,544.025a1.214,1.214,0,0,0,.747-.256l-3.018-3.9-4.92-24.91-1.648-8.33h-.008a1.223,1.223,0,0,0-.962,1.436l6.339,32.04a1.228,1.228,0,0,0,.232.511l2.27,2.933A1.22,1.22,0,0,0,332.134,544.025Z" transform="translate(-322.302 -506.607)"/></g><g transform="translate(254.406 492.615)"><path d="M281.653,567.334a.551.551,0,0,1-.042-.119A.513.513,0,0,1,282,566.6l5.15-1.133a.513.513,0,0,1,.221,1l-5.15,1.132A.513.513,0,0,1,281.653,567.334Z" transform="translate(-274.995 -563.597)"/><path d="M291.674,565.765a.685.685,0,0,1-.684.683h-1.911a.683.683,0,1,1,0-1.366h1.911A.685.685,0,0,1,291.674,565.765Z" transform="translate(-277.397 -563.464)"/><path class="h" d="M288.542,565.423h3.088a.683.683,0,0,0-.588-.341H289.13A.682.682,0,0,0,288.542,565.423Z" transform="translate(-277.448 -563.464)"/><path class="l" d="M280.832,562.58a3.253,3.253,0,1,0,3.253,3.253A3.253,3.253,0,0,0,280.832,562.58Zm-2,1.419a.652.652,0,1,1,.039.92A.651.651,0,0,1,278.834,564Zm.228,3.073a.652.652,0,1,1,.425-.817A.652.652,0,0,1,279.062,567.072Zm1.958.913a.652.652,0,1,1-.495-.778A.651.651,0,0,1,281.02,567.985Zm.118-3.528a.652.652,0,1,1,.777-.495A.653.653,0,0,1,281.138,564.458Zm1.692,3.208a.651.651,0,1,1-.039-.921A.651.651,0,0,1,282.829,567.666Zm.163-1.83a.651.651,0,1,1,.426-.817A.651.651,0,0,1,282.992,565.836Z" transform="translate(-273.575 -562.58)"/><path class="l" d="M283.04,567.09a.952.952,0,1,1-.952-.952A.951.951,0,0,1,283.04,567.09Z" transform="translate(-274.832 -563.837)"/><path d="M273.49,569.127a.481.481,0,0,1-.042-.119.513.513,0,0,1,.391-.611l5.15-1.133a.513.513,0,0,1,.221,1l-5.15,1.133A.514.514,0,0,1,273.49,569.127Z" transform="translate(-272.111 -564.231)"/><path d="M274.666,569.2a.686.686,0,0,1-.684.684h-1.911a.683.683,0,1,1,0-1.366h1.911A.685.685,0,0,1,274.666,569.2Z" transform="translate(-271.387 -564.678)"/><path class="h" d="M271.535,568.858h3.088a.682.682,0,0,0-.588-.341h-1.911A.682.682,0,0,0,271.535,568.858Z" transform="translate(-271.439 -564.678)"/></g><path d="M337.786,562.229a.619.619,0,1,1-.62-.62A.619.619,0,0,1,337.786,562.229Z" transform="translate(-40.005 -69.622)"/><rect class="i" width="3.319" height="1.399" transform="matrix(0.977, -0.215, 0.215, 0.977, 253.351, 479.657)"/><rect class="i" width="3.319" height="1.399" transform="translate(286.707 456.687) rotate(-10.966)"/><path d="M263.252,526.524a5.537,5.537,0,0,0-1.226,2.459c-.171,1.019-.131,3.683,3.472,3.951,3.076.23,4.505-1.8,6.694-2.2,2.286-.412,6.112-1.236,5.571-4.029a62.235,62.235,0,0,1-8.606.549A36.209,36.209,0,0,1,263.252,526.524Z" transform="translate(-13.655 -57.225)"/><path class="i" d="M263.385,526.524a5.9,5.9,0,0,0-1.036,1.751c2.763.711,7.828,1.187,15.6-1.055a2.718,2.718,0,0,0-.051-.512,62.236,62.236,0,0,1-8.606.549A36.209,36.209,0,0,1,263.385,526.524Z" transform="translate(-13.788 -57.225)"/><path class="i" d="M322.724,501.715l-.026-1.9.013.951-.017-.951a7.121,7.121,0,0,0,4.855-2.419l1.46,1.217A8.935,8.935,0,0,1,322.724,501.715Z" transform="translate(-35.11 -46.933)"/><path d="M1.492,0h0A1.494,1.494,0,0,1,2.987,1.494v.361A1.494,1.494,0,0,1,1.493,3.349h0A1.493,1.493,0,0,1,0,1.856V1.492A1.492,1.492,0,0,1,1.492,0Z" transform="matrix(0.979, -0.203, 0.203, 0.979, 285.935, 452.348)"/><circle cx="1.731" cy="1.731" r="1.731" transform="translate(291.369 449.385)"/><path class="h" d="M331.553,498.011a.724.724,0,1,1-.724-.724A.724.724,0,0,1,331.553,498.011Z" transform="translate(-37.728 -46.895)"/><path class="m" d="M284.148,468.219c2.639-1.1,9.564,12.336,9.564,12.336l-6,6.593S275.475,471.843,284.148,468.219Z" transform="translate(-20.392 -36.601)"/><path class="f" d="M287.5,476.976a21.515,21.515,0,0,1-1.269-7.827c-.809-.762-1.535-1.158-2.079-.931-8.673,3.624,3.56,18.929,3.56,18.929l3.128-3.435A22.747,22.747,0,0,1,287.5,476.976Z" transform="translate(-20.392 -36.602)"/><path class="f" d="M290.387,493.766l-1.278-1.811,7-7.231.764,1.563Z" transform="translate(-23.243 -42.456)"/><path class="m" d="M278.942,471.569c1.432-3.031-4.648-8.961-10.267-3.86-5.164,4.69-12.5,22.3-8.875,32.139,6.637,1.9,11.87-6.242,19.185-5.171C275.932,490.481,273.652,482.773,278.942,471.569Z" transform="translate(-12.544 -35.739)"/><path class="d" d="M278.822,464.273l2.582-5.389,4.418,2.779-2.285,5.528Z" transform="translate(-19.608 -33.326)"/><path class="f" d="M268.675,468.8c-5.164,4.69-12.5,22.3-8.875,32.139,3.933,1.126,6.579-2.552,10.274-4.143C266.6,487.826,268.675,468.8,268.675,468.8Z" transform="translate(-12.544 -36.829)"/><path class="a" d="M275.542,522.681H264.434a5.781,5.781,0,0,1-3.978-1.551c-1.485-1.405-3.16-3.668-2.558-6.386.9-4.061,11.177-3.949,13.681-3.86a5.743,5.743,0,0,1,1.045.134l4.845,1.07a5.23,5.23,0,0,1,3.718,5.554,5,5,0,0,1-4.272,4.988C276.484,522.663,276.027,522.681,275.542,522.681Z" transform="translate(-12.17 -51.69)"/><path class="b" d="M271.988,518.194c-6.394-.656-11.516-2.682-12.2-4.7a3.449,3.449,0,0,0-1.894,2.182c-.6,2.722,1.077,4.986,2.564,6.391a5.766,5.766,0,0,0,3.965,1.546h11.116c.484,0,.942-.018,1.373-.051a5,5,0,0,0,4.272-4.988,6.209,6.209,0,0,0,0-.649A31.168,31.168,0,0,1,271.988,518.194Z" transform="translate(-12.17 -52.621)"/><path class="n" d="M282.126,523.459h3.741a4.906,4.906,0,0,0,4.087-5.893c-.3-1.936-1.54-4.6-3.429-4.715C284.8,512.748,279.964,515.713,282.126,523.459Z" transform="translate(-20.582 -52.393)"/><path class="d" d="M281.933,523.346s3.551.673,4.485-.261c.674-.673,1.115-2.236.442-2.741a22.239,22.239,0,0,0-4.3-1.25A9.546,9.546,0,0,0,281.933,523.346Z" transform="translate(-20.702 -54.6)"/><path class="d" d="M284.295,523.815l-9,26.441-.883-.179,5.971-26.9a3.7,3.7,0,0,1,1.828-2.3c.91-.492,1.735-.4,1.988.231A3.915,3.915,0,0,1,284.295,523.815Z" transform="translate(-18.05 -55.119)"/><path class="d" d="M318.958,504.2c.581-.174,1.17-.53,1.142-.769-.025-.208-.465.06-.878.121-.365.057-.494.082-.493-.012a4.2,4.2,0,0,1,.978-.421c.641-.248,1.034-.507,1-.748-.045-.223-.431.036-1.022.193-.515.142-.74.235-.78,0-.025-.108.142-.136.64-.439.57-.345.306-.693-.379-.388-.909.41-.744.484-1.287.343-.505-.133-2.182,1.05-2.036,1.744C316.063,504.834,317.112,504.749,318.958,504.2Z" transform="translate(-32.687 -48.428)"/><path class="d" d="M285.189,497.377a10,10,0,0,0,4.3,5.931c2.009,1.242,17.906-1.694,17.906-1.694l-.2-1.266s-13.67,1.421-15.7.053-3.334-5.565-3.334-5.565Z" transform="translate(-21.858 -46.029)"/><path class="m" d="M276.228,472.772c2.639-1.107,11.084,13.585,11.084,13.585l-8.555,4.3S271.568,474.727,276.228,472.772Z" transform="translate(-18.136 -38.212)"/><path class="f" d="M279.43,483.193c-2.9-3.649-4.41-7.484-3.949-9.563-3.031,3.377,3.277,17.353,3.277,17.353l5.593-2.689A46.815,46.815,0,0,1,279.43,483.193Z" transform="translate(-18.136 -38.536)"/><path class="f" d="M271.812,567.461h4.075s-1.489-1.91-2.273-1.85S271.812,567.461,271.812,567.461Z" transform="translate(-17.131 -71.036)"/><path class="f" d="M280.839,498.668l-.337-2.189,9.037-3.424V494.8Z" transform="translate(-20.202 -45.4)"/><path class="o" d="M309.458,383.576c-2.59-5.568-10.5-5.251-10.5-5.251s-.65-6.026-7.709-11.99S273.14,371.4,273.14,371.4s-7.719-11.5-21.307-1.1c-14.4,11.02-1.99,24.467-1.99,24.467s-7.915,2.21-8.527,13.255,5.7,19.044,22.056,17.892l30.342-14.271C308.415,414.453,312.049,389.143,309.458,383.576Z" transform="translate(-6.341)"/><path class="p" d="M303.963,408.982c-12.911,9.138-32.454,3.724-43.652-12.094a39.423,39.423,0,0,1-7.516-24.536c-.319.224-.638.45-.962.7-14.4,11.02-1.99,24.467-1.99,24.467s-7.915,2.21-8.527,13.255,5.7,19.044,22.056,17.892l30.342-14.271c6.121,1.17,10.321-2.536,12.955-7.66A23.668,23.668,0,0,1,303.963,408.982Z" transform="translate(-6.341 -2.751)"/><path class="d" d="M276.306,438.1c7.1,2.265,21.131,4.419,28.411-14.708,7.516-19.74-1.268-29.462-12.761-33.649-11.721-4.27-24.348-1.874-30.312,17.779C255.867,426.565,269.118,435.808,276.306,438.1Z" transform="translate(-13.037 -8.263)"/><path class="p" d="M257.028,430.443c7.718-9.56,7.492-17.49,7.309-20.557s26.232-20.007,16.442-24.251-40.9,18.01-29.8,33.57A83.3,83.3,0,0,1,257.028,430.443Z" transform="translate(-8.937 -7.258)"/><path class="d" d="M273,422.338c-1.4-5.087-4.938-6.386-6.94-2.444s.739,9.895,3.44,9.586S274.031,426.085,273,422.338Z" transform="translate(-14.856 -18.734)"/><path class="q" d="M272.389,426.66c-.764-2.786-2.706-3.5-3.8-1.337s.4,5.418,1.884,5.25S272.952,428.713,272.389,426.66Z" transform="translate(-15.858 -21.02)"/><path class="d" d="M273.254,430.457c-.116-1.82-1.225-2.507-2.178-1.313s-.443,3.4.493,3.486S273.341,431.8,273.254,430.457Z" transform="translate(-16.691 -22.607)"/><path class="o" d="M283.105,399.161c4.756-6.663,8.762-14.436,4.183-17.706s-16.006-.792-20.762,5.87-4.9,14.714-.322,17.982S278.35,405.823,283.105,399.161Z" transform="translate(-13.969 -5.461)"/><g transform="translate(266.111 398.624)"><path class="p" d="M318.929,437.841c1.256-3.184.546-6.158-1.58-6.635s-4.875,1.705-6.133,4.891,1.067,3.813,3.2,4.294S317.673,441.022,318.929,437.841Z" transform="translate(-297.04 -422.146)"/><path class="p" d="M299.124,429.541c1.5-3.5.762-6.822-1.654-7.409s-5.593,1.776-7.1,5.284.559,4.166,2.973,4.754S297.619,433.045,299.124,429.541Z" transform="translate(-289.619 -418.932)"/><path class="r" d="M318.7,438.657c1.153-2.914.354-5.663-1.772-6.146s-4.789,1.487-5.939,4.4.486,3.138,2.424,4.111C315.615,442.128,317.547,441.569,318.7,438.657Z" transform="translate(-296.948 -422.605)"/><path class="r" d="M298.692,430.388c1.373-3.2.529-6.278-1.888-6.865s-5.489,1.536-6.862,4.739.605,3.429,2.844,4.532C295,433.887,297.313,433.595,298.692,430.388Z" transform="translate(-289.487 -419.42)"/><path class="q" d="M301.251,447.5c-.917-.622-1.229-1.547-.84-2.2a1.383,1.383,0,0,0-.529.315c-.64.654-.314,1.742.714,2.439a2.5,2.5,0,0,0,3.01.094.925.925,0,0,0,.124-.235A2.837,2.837,0,0,1,301.251,447.5Z" transform="translate(-293.044 -427.152)"/><path class="s" d="M319.063,442.454c.546-1.061.3-2.15-.563-2.438a2.351,2.351,0,0,0-2.547,1.4c-.551,1.061-.306,2.158.557,2.445A2.365,2.365,0,0,0,319.063,442.454Z" transform="translate(-298.734 -425.258)"/><path class="s" d="M299.382,434.2c.5-1.217.073-2.39-.946-2.623a2.652,2.652,0,0,0-2.744,1.782c-.494,1.219-.074,2.389.942,2.62A2.649,2.649,0,0,0,299.382,434.2Z" transform="translate(-291.606 -422.287)"/><path class="t" d="M298.925,434.709c.182-.451.028-.887-.35-.973a.984.984,0,0,0-1.017.663c-.184.449-.026.885.349.969A.981.981,0,0,0,298.925,434.709Z" transform="translate(-292.311 -423.059)"/><path class="t" d="M318.719,442.813c.2-.394.112-.793-.208-.9a.867.867,0,0,0-.941.518c-.2.394-.113.8.2.9A.87.87,0,0,0,318.719,442.813Z" transform="translate(-299.371 -425.944)"/><g transform="translate(2.652)"><path class="p" d="M302.133,420.466a11.137,11.137,0,0,0-7.495-1.228.868.868,0,0,1-1-.583l-.007-.023a.861.861,0,0,1,.6-1.1,13.021,13.021,0,0,1,9,1.282.862.862,0,0,1,.172,1.308l-.172.192A.857.857,0,0,1,302.133,420.466Z" transform="translate(-293.588 -417.233)"/></g><g transform="translate(20.172 4.727)"><path class="p" d="M325.382,429.754a6.907,6.907,0,0,0-4.063-3.452.871.871,0,0,1-.622-1l.01-.055a.858.858,0,0,1,1-.688,7.912,7.912,0,0,1,5.278,4.5.877.877,0,0,1-.364,1.092l-.008,0A.879.879,0,0,1,325.382,429.754Z" transform="translate(-320.681 -424.543)"/></g></g><path class="u" d="M292.31,448.427c1.05,5.951,5.274,6.555,7.514,6.266l.259.215c-1.695.577-7.891,1.015-8.68-7.238Z" transform="translate(-24.053 -29.363)"/></g></svg>