<svg xmlns="http://www.w3.org/2000/svg" width="377.671" height="481.114" viewBox="0 0 377.671 481.114"><defs><style>.a{fill:#f2da8e;}.a,.e{opacity:0.5;}.b{fill:#fcb95d;}.b,.c,.d,.h,.i,.k,.l,.m,.n,.o,.w,.x{fill-rule:evenodd;}.c{fill:#a1dd6f;}.d,.g{opacity:0.15;}.f{fill:#243330;}.h,.j{fill:#d1d3d4;}.i{fill:#36a5ad;}.k{fill:#c98121;}.l{fill:#f7805c;}.ab,.m,.v{fill:#7fd1d8;}.n,.y,.z{fill:none;stroke-miterlimit:10;}.n{stroke:#3e6569;stroke-width:8.397px;}.o,.t{opacity:0.2;}.p{fill:#4a5e3a;}.q{fill:#6dcecd;}.r{fill:#fff;}.s{fill:#454c53;}.u{fill:#bcbec0;}.w{fill:#243e41;}.x{fill:#171f1c;}.y{stroke:#7fd1d8;stroke-width:3px;}.aa,.ab{stroke:none;}</style></defs><g transform="translate(-488.434 -276.197)"><path class="a" d="M526.761,473.133c17.427-19.064,4.267-108.352,21.161-126.966,44.462-48.986,145.449-28.927,195.429-3.734,23.789,11.992,65.309,29.236,83.4,73.441,8.808,21.524-4.8,38,6.224,68.463,8.7,24.057,19.605,27.4,27.385,46.057,16.994,40.763-8.762,87.864-12.447,94.6-40.467,74-157.628,92.292-240.241,69.707-29.317-8.015-67.837-18.546-88.378-52.28C499.851,610.492,457.151,549.283,526.761,473.133Z" transform="translate(0 1.697)"/><g transform="translate(751.13 411.785)"><path class="b" d="M779.7,498.7c.195,1.03-.655,13.8,1.919,18.748s7,11.97,7.734,14.911c.864,3.46,2.789,3.222,2.2-1.03-.382-2.764-1.684-8.088-2.279-9.066-.288-.475,1.225,2.855,2.56,6.676,1.42,4.062,2.7,8.637,3.622,8.284,1.783-.682-1.494-12.91-2.441-14.825a41.743,41.743,0,0,1,2.418,5.1c.938,2.4,1.6,5.418,2.487,5.52,1.395.16.5-6.867-1.677-11.735.133-.2,1.379,1.023,3.482,7.051.212.607,1.4,1.727,1.268-.623-.277-4.944.029-7.172-3.267-12.451-3.213-5.149-8.262-9.768-9.886-14.722Z" transform="translate(-737.225 -401.373)"/><path class="b" d="M773.809,413.836c5.933,21.466,14.969,74.721,15.605,86.811a24.419,24.419,0,0,0-8.121,6.524c-.055-.29-.111-.578-.166-.858-3.744-9.9-23.275-51.212-26.6-68.333,2.738-5.821-10.662,1.312-9.947.73,1.088-.888,2.2-11.955-5.423-15.055C748.075,414.344,768.565,394.819,773.809,413.836Z" transform="translate(-739.16 -405.808)"/><path class="b" d="M780.716,514.215s-2.679,7.352-.585,12.285c1.244,2.932.351,3.426.4,4.034.156,2.016,2.744-1.72,2.155-4.516-.479-2.273,2.833-5.873,2.946-7.5s-.526-5.858-1.623-6.3S780.716,514.215,780.716,514.215Z" transform="translate(-737.242 -400.731)"/><path class="b" d="M787.891,500.875l-.438-9.224-8.883,8.693s.8.292,1.235,6.191,5.887.4,5.887.4Z" transform="translate(-737.278 -401.71)"/></g><g transform="translate(614.295 544.902)"><path class="b" d="M654.26,695.193s3.265,14.621,5.564,19.183-9.54,4.809-10.025,5.068-10.358-4.32-10.358-4.32,5.491-2.612.872-20.612S654.26,695.193,654.26,695.193Z" transform="translate(-607.086 -525.515)"/><path class="c" d="M670.539,547.525c-.357,5.781-3.946,13.739-5.348,26.686a104.216,104.216,0,0,0,.085,22.231c2.458,23.451-4.637,31.647-5.212,39.207a11.266,11.266,0,0,0,.262,3.537c5,20.945,1.022,64.073,1.022,64.073s-2.147.511-5.227,1.077c-7.35,1.348-20.031,2.986-21.735-1.322C631.96,696.9,623.828,681.8,622.51,673s.176-24.814.855-28.747-1.056-21.071-3.987-26.628c-3.343-6.345-3.24-20.634-1.99-34.773,1.451-16.38,4.456-32.554,5.463-35.923,0,0,24.767-15.326,30.767-13.988S671.066,538.992,670.539,547.525Z" transform="translate(-608.177 -532.859)"/><path class="d" d="M670.5,547.525c-.357,5.781-3.946,13.739-5.348,26.686-6.663.134-15.676-2.341-24.574-4.075-7.448-1.448-16.836,6.371-23.229,12.716,1.451-16.38,4.456-32.554,5.463-35.923,0,0,24.766-15.326,30.767-13.988S671.03,538.992,670.5,547.525Z" transform="translate(-608.14 -532.859)"/><g class="e" transform="translate(10.98 54.742)"><g transform="translate(4.176)"><path class="f" d="M640.548,587l-.46.738-4.39,7.045-7.351,11.79q.453.5.875,1.032c.181.231.357.466.53.7l6.115-11.391,5.192-9.715Z" transform="translate(-622.772 -585.016)"/><path class="f" d="M638.288,586.069l-1.66,2.662-3.506,5.621-6.571,10.538a13.893,13.893,0,0,1,1.339,1.167c1.276-2.375,3.314-6.171,5.37-10,1.675-3.136,3.361-6.292,4.65-8.7.221-.417.43-.811.625-1.179Z" transform="translate(-622.858 -585.061)"/><path class="f" d="M625.868,604.4c1.916-3.563,9.448-17.575,10.3-19.289l-.018-.008-11.1,17.787.178,1.128C625.45,604.143,625.662,604.27,625.868,604.4Z" transform="translate(-622.929 -585.107)"/><path class="f" d="M633.236,585.783c-.162.427-8.644,16.19-8.644,16.19l-.3-1.864Z" transform="translate(-622.965 -585.075)"/><path class="f" d="M630.641,586.36c-.13.342-6.9,12.928-6.9,12.928l-.24-1.487Z" transform="translate(-623.003 -585.047)"/><path class="f" d="M628.733,586.582c-.1.272-5.514,10.328-5.514,10.328l-.193-1.187Z" transform="translate(-623.026 -585.037)"/></g><g transform="translate(0 2.543)"><path class="f" d="M636.8,604.453,620.621,590.76q-.775.693-1.581,1.355c4.638,3.517,11.457,8.685,17.349,13.138Q636.594,604.853,636.8,604.453Z" transform="translate(-619.04 -587.38)"/><path class="f" d="M637.9,602.245l-15.541-13.152q-.613.626-1.253,1.22c3.893,2.954,10.911,8.274,16.5,12.5Z" transform="translate(-618.942 -587.46)"/><path class="f" d="M638.938,600.1,624.645,588l-1.208-.112c-.174.2-.351.394-.529.588,2.685,2.038,10.467,7.941,15.841,12Z" transform="translate(-618.855 -587.517)"/><path class="f" d="M639.78,598.127l-12.05-10.2-2.155-.2s8.862,6.728,14.081,10.661Z" transform="translate(-618.728 -587.525)"/><path class="f" d="M640.469,596.326l-10.2-8.633-1.723-.158s7.79,5.913,11.847,8.968C640.417,596.443,640.444,596.384,640.469,596.326Z" transform="translate(-618.586 -587.534)"/><path class="f" d="M641.114,594.984l-8.558-7.242-1.379-.127s6.762,5.133,9.864,7.465Z" transform="translate(-618.461 -587.53)"/></g></g><path class="g" d="M658.756,634.5c5,20.945,1.022,64.073,1.022,64.073s-2.147.511-5.227,1.077c-.021-.448-5.3.386-5.069-.071,9.636-18.866,6.829-49.945,7.339-58.1.117-1.878.246-7.559,1.673-10.518A11.266,11.266,0,0,0,658.756,634.5Z" transform="translate(-606.607 -528.175)"/><g transform="translate(0 188.029)"><path class="h" d="M612.565,736.7c5.558-.087,16.459-2.569,24.411-4.217h.006c.253-.058.487-.106.728-.155,4.149-.85,7.382-1.439,8.428-1.269.114.022.254.035.419.049.411.037.977.063,1.664.064,6.19.035,21.953-1.37,21.442-6.094a11.611,11.611,0,0,0-.659-2.654c-.067-.185-.134-.372-.214-.556-.008-.011-.009-.018-.018-.029-.1-.247-.2-.5-.315-.751-.007-.005-.007-.005-.008-.012-2.107-4.64-6.218-9.262-6.894-8.71-9.04,7.395-19.794,1.859-22.034.566-.279-.16-.424-.257-.424-.257s-.373.082-1.079.26c-.383.1-.874.235-1.451.394-.314.086-.653.182-1.023.29-.125.038-.251.07-.375.115q-.451.126-.959.281c-.162.05-.325.1-.5.159H633.7c-.918.288-1.94.623-3.065,1.014-.7.243-1.435.5-2.21.789-1.166.423-2.415.9-3.735,1.429-.123.058-.25.122-.371.185-.653.314-1.289.651-1.911.992a42.531,42.531,0,0,0-5.861,3.872l-.005.007C608.057,729.169,605.71,736.811,612.565,736.7Z" transform="translate(-608.56 -712.32)"/><path class="i" d="M616.183,722.464a13.176,13.176,0,0,1,10.765,8.1s4.154-1.426,8.889-2.861l1.247-.363c.758-.225,1.528-.452,2.294-.664.659-.183,1.313-.359,1.948-.527,3.537-.922,6.624-1.528,7.706-1.2,2.931.882,20.412,1.566,19.61-2.524a2.1,2.1,0,0,0-.214-.556c-.008-.011-.009-.018-.018-.029a4.978,4.978,0,0,1-.315-.751c-.007-.005-.007-.005-.008-.012-2.107-4.64-6.218-9.262-6.894-8.71-9.04,7.395-19.794,1.859-22.034.566-.279-.16-.424-.257-.424-.257s-.373.082-1.079.26c-.383.1-.874.235-1.451.394-.314.086-.653.182-1.023.29-.125.038-.251.07-.375.115q-.451.126-.959.281c-.162.05-.325.1-.5.159h-.006c-.918.288-1.94.623-3.065,1.014-.7.243-1.435.5-2.21.789-1.166.423-2.415.9-3.735,1.429-.123.058-.25.122-.371.185-.653.314-1.289.651-1.911.992a42.531,42.531,0,0,0-5.861,3.872Z" transform="translate(-608.196 -712.32)"/><g transform="translate(25.65 1.008)"><path class="j" d="M633.041,713.968c.212.145.511.354.88.633a19.276,19.276,0,0,1,3.581,3.394,9.1,9.1,0,0,1,.921,1.391c.1.189.188.385.269.582l1.794-.733a9.877,9.877,0,0,0-1.334-2.272v-.006a14.256,14.256,0,0,0-1.118-1.3,21.467,21.467,0,0,0-2.636-2.371c-.314.086-.653.182-1.023.29-.125.038-.251.07-.375.115Q633.549,713.813,633.041,713.968Z" transform="translate(-633.041 -713.282)"/></g><g transform="translate(19.87 2.869)"><path class="j" d="M627.525,715.847c1.217.844,4.381,3.234,5.447,5.86l1.8-.733c-1-2.465-3.394-4.637-5.036-5.916C629.032,715.3,628.3,715.561,627.525,715.847Z" transform="translate(-627.525 -715.058)"/></g><g transform="translate(13.853 5.272)"><path class="j" d="M621.782,718.344c1.432,1.054,4,3.181,4.942,5.5l1.793-.733a15.846,15.846,0,0,0-4.824-5.757C623.04,717.666,622.4,718,621.782,718.344Z" transform="translate(-621.782 -717.352)"/></g></g></g><path class="k" d="M647.15,342.714s26.029-.372,28.26-10.412,2.6-15.516,0-21.33,14.875,6.456,14.875,6.456-1.86,7.809,0,13.759,5.949,6.069,12.27,5.451,0,19.462,0,19.462-22.644,2.456-24.337,3.273-25.119.3-26.234,0S647.15,342.714,647.15,342.714Z" transform="translate(7.577 1.375)"/><path class="l" d="M639.663,490.612c1.058.08,6.1-2.044,14.167,3.072s16.31,13.112,22.413,11.883,2.015-8.187-1.515-9.714c-3.179-1.375-9.179-3.163-7.88-5.444s4.13-2.022,6.982.008,5.128.073,4.149-1.065-8.051-5.2-9.757-5.538c-1.263-.253-7,1.475-10.01.747s-14.983-4.7-14.983-4.7Z" transform="translate(7.22 9.512)"/><path class="m" d="M739.679,455.028l-.64-.879A9.366,9.366,0,0,1,739.679,455.028Z" transform="translate(11.964 8.285)"/><path class="m" d="M814.67,446.026c-4.145,4.249-33.647,11.73-40.385,13.27-36.857,8.406-39.4-23.786-39.4-23.786l4.319,21.727,4.811,27.973,21.72,68.633a60.242,60.242,0,0,1-14.076,9.214c-1.009.491-2.076.977-3.182,1.443a64.222,64.222,0,0,1-23.271,5.134c-2.911,0-33.528.369-62.471.724a.021.021,0,0,1-.026,0c-.251.006-.5.006-.744.014-26.847.329-52.02.653-52.02.653l4.636-41.1,2.5-22.192,1.714-15.15,5.386-47.767.4-3.53-4.533,19.554-66.706-19.264s3.66-16.223,24.688-80.3c7.778-23.711,38.9-42.807,79.917-29.6a106.04,106.04,0,0,1,11.717,4.552c2.018.918,9.731,17.342,22.212,11.562.264-.124.529-.246.788-.382,11.394-5.5,14-11.762,15.868-14.335,0-.013.007-.013.014-.02.065-.078.123-.155.181-.233,1.312-1.655,4.506-3.407,8.878-4.9,7.876-2.683,19.593-4.649,29.7-3.472,5.135.589,9.855,1.979,13.451,4.507,10.06,7.067,19.385,19.573,25.082,36.657q.525,1.561,1,3.168c.161.5.323,1,.491,1.5,1.442,4.455,2.9,9.007,4.358,13.6,1.488,4.694,2.962,9.421,4.41,14.109C798.948,407.227,812.258,437.737,814.67,446.026Z" transform="translate(3.099 2.077)"/><path class="n" d="M677.749,369.427,692.345,399l32.638,4.743-23.617,23.021,5.575,32.506-29.192-15.347-29.192,15.347,5.575-32.506-23.617-23.021L663.153,399Z" transform="translate(6.783 4.24)"/><path class="o" d="M625.023,490.739c-4.035,5.044-10.236,24.436-13.23,34.317l9.6-85.1,2.489-11.063c15.519-13.922,8.9,26.706,10.494,39.03S630.5,483.892,625.023,490.739Z" transform="translate(5.889 6.942)"/><path class="o" d="M688.151,347.072c-3.692,4.785-12.331,9.706-17.291,6.46-7.32-4.785-20.407-4.791-22.69-15.972-.905-4.423,1.739-5.974,5.264-6.227a107.306,107.306,0,0,1,11.717,4.552c2.017.918,9.731,17.342,22.211,11.561C687.627,347.325,687.892,347.2,688.151,347.072Z" transform="translate(7.618 2.421)"/><path class="l" d="M739.679,455.028l-.64-.879A9.366,9.366,0,0,1,739.679,455.028Z" transform="translate(11.964 8.285)"/><g transform="translate(560.357 418.767)"><path class="p" d="M643.689,413.679c-4.069-2.505-6.2-1.1-10.394,4.139-4.108,5.135-30.55,39.582-37.193,48.429l.929.7s.383-.513.318-.425l-.76,1.016-.93-.7c-6.174,8.277-31.717,43.2-35.484,48.584-3.847,5.5-4.174,7.425-.621,10.623S581.562,543.2,588.7,547.731s9.883,7,17.142-2.7c7.215-9.638,27.516-36.762,33.7-45.033l1.816-2.424,33.7-45.033c7.26-9.7,4.069-11.529-2.3-17.105S647.761,416.184,643.689,413.679Z" transform="translate(-557.08 -412.472)"/><path class="p" d="M596.062,464.434c-4.055,5.437-15.094,20.489-24.224,33l21.882,16.378,24.144-32.258,24.916-33.291L620.9,431.89C611.466,444.177,600.134,459.012,596.062,464.434Z" transform="translate(-556.375 -411.545)"/><path class="p" d="M595.76,464.595c-3.754,5.033-13.989,19.012-22.234,30.347l21.882,16.377L617.8,481.406l22.7-30.32-21.883-16.379C610.059,445.815,599.531,459.574,595.76,464.595Z" transform="translate(-556.295 -411.411)"/><g transform="translate(12.393 12.481)"><g transform="translate(0 85.216)"><path class="q" d="M581.364,507.271a7.788,7.788,0,1,1-10.9,1.568A7.789,7.789,0,0,1,581.364,507.271Z" transform="translate(-568.908 -505.717)"/><path class="r" d="M577.6,511.681a1.948,1.948,0,1,1-2.727.392A1.948,1.948,0,0,1,577.6,511.681Z" transform="translate(-568.642 -505.451)"/></g><g transform="translate(63.78)"><path class="q" d="M642.239,425.937a7.789,7.789,0,1,1-10.9,1.57A7.79,7.79,0,0,1,642.239,425.937Z" transform="translate(-629.783 -424.384)"/><path class="r" d="M638.472,430.349a1.947,1.947,0,1,1-2.725.392A1.945,1.945,0,0,1,638.472,430.349Z" transform="translate(-629.517 -424.118)"/></g></g><g transform="translate(29.839 24.61)"><rect class="r" width="3.688" height="20.652" transform="matrix(0.599, -0.801, 0.801, 0.599, 0, 95.074)"/><rect class="r" width="3.688" height="20.653" transform="translate(3.093 90.942) rotate(-53.191)"/><rect class="r" width="4.426" height="20.653" transform="translate(6.186 86.809) rotate(-53.195)"/><rect class="r" width="3.689" height="20.653" transform="translate(9.282 82.672) rotate(-53.172)"/><rect class="r" width="3.688" height="20.653" transform="matrix(0.599, -0.8, 0.8, 0.599, 12.376, 78.537)"/><rect class="r" width="4.426" height="20.653" transform="matrix(0.599, -0.801, 0.801, 0.599, 15.469, 74.406)"/><rect class="r" width="3.688" height="20.653" transform="translate(19.004 69.683) rotate(-53.193)"/><rect class="r" width="3.688" height="20.653" transform="translate(21.657 66.138) rotate(-53.178)"/><rect class="r" width="3.688" height="20.653" transform="matrix(0.6, -0.8, 0.8, 0.6, 24.752, 62.001)"/><rect class="r" width="3.688" height="20.653" transform="matrix(0.599, -0.801, 0.801, 0.599, 28.287, 57.281)"/><rect class="r" width="3.688" height="20.653" transform="translate(31.38 53.148) rotate(-53.189)"/><rect class="r" width="3.688" height="20.653" transform="matrix(0.599, -0.801, 0.801, 0.599, 34.033, 49.603)"/><rect class="r" width="4.425" height="20.653" transform="translate(37.125 45.472) rotate(-53.196)"/><rect class="r" width="2.95" height="20.653" transform="translate(40.662 40.744) rotate(-53.175)"/><rect class="r" width="3.687" height="20.653" transform="translate(43.756 36.613) rotate(-53.186)"/><rect class="r" width="4.425" height="20.653" transform="matrix(0.599, -0.801, 0.801, 0.599, 46.407, 33.071)"/><rect class="r" width="3.688" height="20.654" transform="matrix(0.599, -0.801, 0.801, 0.599, 49.944, 28.344)"/><rect class="r" width="4.426" height="20.653" transform="matrix(0.599, -0.801, 0.801, 0.599, 52.594, 24.804)"/><rect class="r" width="3.687" height="20.653" transform="translate(56.13 20.081) rotate(-53.204)"/><rect class="r" width="3.688" height="20.653" transform="matrix(0.599, -0.801, 0.801, 0.599, 59.225, 15.943)"/><rect class="r" width="3.688" height="20.653" transform="matrix(0.599, -0.801, 0.801, 0.599, 62.319, 11.81)"/><rect class="r" width="3.688" height="20.653" transform="translate(65.414 7.673) rotate(-53.161)"/><rect class="r" width="4.425" height="20.653" transform="matrix(0.599, -0.801, 0.801, 0.599, 68.507, 3.542)"/></g><rect class="s" width="2.951" height="13.277" transform="translate(31.606 117.323) rotate(-53.191)"/><rect class="s" width="2.213" height="13.277" transform="translate(38.237 108.464) rotate(-53.182)"/><rect class="s" width="2.212" height="13.278" transform="matrix(0.599, -0.801, 0.801, 0.599, 41.33, 104.33)"/><rect class="s" width="2.951" height="13.277" transform="translate(43.982 100.787) rotate(-53.177)"/><rect class="s" width="2.213" height="13.276" transform="translate(50.612 91.93) rotate(-53.182)"/><rect class="s" width="2.95" height="13.277" transform="matrix(0.599, -0.801, 0.801, 0.599, 53.263, 88.387)"/><rect class="s" width="2.213" height="13.277" transform="translate(59.893 79.53) rotate(-53.188)"/><rect class="s" width="2.213" height="13.276" transform="translate(62.987 75.397) rotate(-53.194)"/><rect class="s" width="2.213" height="13.277" transform="translate(66.08 71.263) rotate(-53.199)"/><rect class="s" width="2.95" height="13.276" transform="matrix(0.599, -0.801, 0.801, 0.599, 71.827, 63.586)"/><rect class="s" width="2.213" height="13.278" transform="translate(75.363 58.859) rotate(-53.168)"/><rect class="s" width="2.212" height="13.278" transform="translate(81.548 50.597) rotate(-53.223)"/><rect class="s" width="2.214" height="13.277" transform="matrix(0.599, -0.801, 0.801, 0.599, 84.643, 46.463)"/><rect class="s" width="2.95" height="13.277" transform="translate(87.738 42.325) rotate(-53.17)"/><rect class="s" width="3.688" height="13.277" transform="translate(93.484 34.648) rotate(-53.178)"/><rect class="s" width="2.95" height="13.277" transform="matrix(0.599, -0.801, 0.801, 0.599, 97.019, 29.926)"/><path class="q" d="M628.641,443.233c2.393,1.792-5.535,16.423-17.708,32.686s-23.976,27.994-26.366,26.205,5.535-16.424,17.707-32.686S626.25,441.446,628.641,443.233Z" transform="translate(-555.788 -411.012)"/><path class="r" d="M612.191,467.528l-8.168,10.912-5.69-1.016,11.279-15.068Z" transform="translate(-555.11 -410.091)"/></g><g transform="translate(568.804 394.968)"><path class="b" d="M568.464,398.833c-.245,1.04-5.854,33.886-1.937,43.368s34.753,44.124,46.821,50.919c0,0-3.456-13.98-3.506-14.992s-23.606-42.017-23.932-46.96c-.11-1.688,3.014-16.881,2.779-34.174S568.464,398.833,568.464,398.833Z" transform="translate(-565.142 -389.758)"/><g transform="translate(44.845 91.783)"><path class="b" d="M611.355,477.359c.685.786,11.052,7.983,13.4,13.037s5.251,12.834,7.106,15.217c2.18,2.8.895,4.162-2.058,1.086-1.918-2-5.291-6.292-5.708-7.358-.2-.518,1.508,2.714,3.7,6.107,2.329,3.608,5.133,7.425,4.334,7.927-1.549.974-9.131-9.112-10.07-11.031a43.6,43.6,0,0,0,2.557,5.026c1.319,2.21,3.273,4.586,2.845,5.339-.675,1.188-5.6-3.834-8.117-8.532-.227-.017,0,1.707,3.462,7.06.347.537.533,2.154-1.208.606-3.667-3.258-5.566-4.391-7.763-10.214-2.142-5.679-2.811-12.545-5.895-16.084Z" transform="translate(-607.944 -477.359)"/><path class="b" d="M622.736,487.6s7.222,2.433,9.838,7.1c1.555,2.777,2.45,2.384,2.892,2.794,1.47,1.362-2.9,1.084-4.727-1.1-1.484-1.772-6.165-1.4-7.489-2.313s-4.23-4.016-3.946-5.146S622.736,487.6,622.736,487.6Z" transform="translate(-607.403 -476.87)"/></g><path class="b" d="M611.635,477.822s-2.137-1.583-6.568-8.132-2.591,4.867-2.591,4.867l8.357,12.7Z" transform="translate(-563.378 -386.038)"/></g><path class="m" d="M553.348,439.413l66.705,19.259L599.44,369.427l-26.3,4.71Z" transform="translate(3.099 4.24)"/><path class="t" d="M667.31,546.224l-10.288,14.46,33.623-.441,2.91-32.67Z" transform="translate(8.049 11.79)"/><g transform="translate(678.217 531.413)"><path class="b" d="M765.8,660.013s5.129,14.076,5.65,19.158,10.627-1.09,11.175-1.134,6.4-9.22,6.4-9.22-6.033.759-11.843-16.894S765.8,660.013,765.8,660.013Z" transform="translate(-664.975 -513.981)"/><path class="c" d="M779.383,626c3.631,8.122,4.917,25.22,6.169,31.68s-22.58,14.737-22.58,14.737S736.38,638.231,729.3,617.893c-3.015-8.661-14.988-8.981-27.2-33.339a103.661,103.661,0,0,0-12.477-19.474c-7.93-9.671-14.98-14.332-18.317-18.9-5.043-6.9,2.064-17.037,6.394-21.4s33.457-4.8,33.457-4.8a193.5,193.5,0,0,1,13.456,14.475c11.742,13.633,26.719,33.187,27.566,43.207.525,6.26,8.3,21.638,10.991,24.58S775.75,617.878,779.383,626Z" transform="translate(-669.569 -519.985)"/><path class="d" d="M724.614,534.46a80.183,80.183,0,0,0-20.38,18.64c-3.811,4.849-9.027,8.754-14.611,11.98-7.93-9.671-14.98-14.332-18.317-18.9-5.043-6.9,2.064-17.037,6.394-21.4s33.457-4.8,33.457-4.8A193.5,193.5,0,0,1,724.614,534.46Z" transform="translate(-669.569 -519.985)"/><g class="e" transform="translate(70.338 68.446)"><path class="f" d="M738.231,585.618l.43.346,4.1,3.307,6.865,5.534c.231-.164.469-.323.717-.471q.239-.145.484-.281l-6.708-4.725-5.724-4.015Z" transform="translate(-736.629 -585.312)"/><path class="f" d="M737.47,586.95l1.55,1.249,3.273,2.64,6.136,4.947a8.858,8.858,0,0,1,.838-.754l-5.888-4.149-5.126-3.6-.7-.485C737.529,586.851,737.5,586.9,737.47,586.95Z" transform="translate(-736.665 -585.241)"/><path class="f" d="M748.072,596.155c-2.1-1.48-10.349-7.3-11.363-7.97l-.007.01,10.357,8.355.724-.026C747.876,596.4,747.972,596.275,748.072,596.155Z" transform="translate(-736.702 -585.175)"/><path class="f" d="M736.912,590.023c.258.135,9.538,6.687,9.538,6.687l-1.2.044Z" transform="translate(-736.692 -585.087)"/><path class="f" d="M737.083,591.651c.205.108,7.617,5.339,7.617,5.339l-.956.037Z" transform="translate(-736.684 -585.009)"/><path class="f" d="M737.082,592.829c.163.086,6.084,4.265,6.084,4.265l-.763.03Z" transform="translate(-736.684 -584.953)"/><g transform="translate(0.856 0.478)"><path class="f" d="M748.974,589.412l-9.867,9.146q.377.542.732,1.1c2.571-2.653,6.349-6.553,9.607-9.923Z" transform="translate(-737.443 -585.594)"/><path class="f" d="M747.668,588.528l-9.477,8.784q.347.434.672.882c2.159-2.226,6.05-6.239,9.138-9.438Z" transform="translate(-737.487 -585.636)"/><path class="f" d="M746.4,587.688l-8.715,8.079-.163.752c.112.125.221.251.33.378,1.489-1.536,5.8-5.986,8.771-9.061Z" transform="translate(-737.519 -585.676)"/><path class="f" d="M745.222,586.961l-7.348,6.81-.291,1.342s4.918-5.067,7.8-8.053Z" transform="translate(-737.516 -585.711)"/><path class="f" d="M744.14,586.329l-6.22,5.766-.233,1.074s4.323-4.455,6.558-6.777Z" transform="translate(-737.511 -585.741)"/><path class="f" d="M743.344,585.768l-5.219,4.837-.185.858s3.752-3.866,5.46-5.642Z" transform="translate(-737.499 -585.768)"/></g></g><g transform="translate(104.585 147.565)"><path class="h" d="M825.138,670.876c-4.728,2.921-15.249,6.7-22.836,9.6l-.006,0c-.244.088-.467.173-.7.262-3.953,1.519-6.994,2.766-7.783,3.473-.085.08-.2.166-.327.266-.327.253-.79.579-1.367.951-5.2,3.365-19.231,10.675-21.347,6.422a11.692,11.692,0,0,1-.875-2.591c-.044-.193-.087-.386-.119-.584,0-.015,0-.02,0-.035-.052-.26-.1-.528-.139-.8,0-.008,0-.008,0-.014-.726-5.045.247-11.154,1.114-11.053,11.6,1.358,17.677-9.1,18.867-11.4.148-.286.219-.445.219-.445s.358-.132,1.049-.362c.378-.12.862-.272,1.434-.451.311-.1.648-.2,1.018-.306.126-.036.249-.076.377-.106q.449-.137.959-.28c.165-.045.328-.09.507-.134l.005,0c.928-.251,1.971-.52,3.129-.8.723-.175,1.48-.35,2.286-.527,1.21-.271,2.522-.54,3.916-.809.134-.018.277-.031.413-.043.719-.088,1.437-.147,2.145-.194a42.414,42.414,0,0,1,7.024.1l.008,0C824.877,662.1,830.972,667.275,825.138,670.876Z" transform="translate(-769.388 -660.826)"/><path class="i" d="M814.113,661.03a13.173,13.173,0,0,0-4.7,12.622s-4.269,1.037-9.03,2.38c-.408.118-.827.242-1.246.366-.76.219-1.531.443-2.29.677-.654.2-1.3.4-1.925.606-3.476,1.13-6.4,2.282-7.137,3.142-1.994,2.322-16.351,12.319-17.88,8.441a2.07,2.07,0,0,1-.119-.584c0-.015,0-.02,0-.035a4.869,4.869,0,0,0-.139-.8c0-.008,0-.008,0-.014-.726-5.045.247-11.154,1.114-11.053,11.6,1.358,17.677-9.1,18.867-11.4.148-.286.219-.445.219-.445s.358-.132,1.049-.362c.378-.12.862-.272,1.434-.451.311-.1.648-.2,1.018-.306.126-.036.249-.076.377-.106q.449-.137.959-.28c.165-.045.328-.09.507-.134l.005,0c.928-.251,1.971-.52,3.129-.8.723-.175,1.48-.35,2.286-.527,1.21-.271,2.522-.54,3.916-.809.134-.018.277-.031.413-.043.719-.088,1.437-.147,2.145-.194a42.414,42.414,0,0,1,7.024.1Z" transform="translate(-769.388 -660.826)"/><g transform="translate(21.715 2.604)"><path class="j" d="M793.69,663.311c-.1.236-.239.574-.4,1.008a19.281,19.281,0,0,0-1.188,4.788,9.187,9.187,0,0,0-.026,1.669c.018.212.048.424.086.635l-1.9.349a9.832,9.832,0,0,1-.1-2.633l0-.006a14.414,14.414,0,0,1,.239-1.7,21.6,21.6,0,0,1,.943-3.419c.311-.1.648-.2,1.018-.306.126-.036.249-.076.377-.106Q793.181,663.454,793.69,663.311Z" transform="translate(-790.113 -663.311)"/></g><g transform="translate(27.733 1.143)"><path class="j" d="M799.343,661.917c-.571,1.368-1.947,5.086-1.431,7.873l-1.911.351c-.483-2.617.361-5.735,1.056-7.7C797.78,662.269,798.537,662.094,799.343,661.917Z" transform="translate(-795.858 -661.917)"/></g><g transform="translate(34.441 0.098)"><path class="j" d="M805.511,660.919c-.639,1.66-1.655,4.834-1.2,7.294l-1.9.349a15.845,15.845,0,0,1,.961-7.449C804.085,661.025,804.8,660.966,805.511,660.919Z" transform="translate(-802.26 -660.919)"/></g><g transform="translate(20.153 3.746)"><path class="u" d="M795.925,676.9a7.993,7.993,0,0,1-.992,1.52,11.081,11.081,0,0,0-2.361,5.886c-.233,2.285.261,4.261,1.057,5.06l-.916.913a7.227,7.227,0,0,1-1.509-5.021,12.51,12.51,0,0,1,2.724-7.657c.022-.03.049-.064.071-.1,2.256-2.844.988-4.381-1.852-6.786-.161-.14-.332-.284-.51-.431-.316-.262-.635-.531-.947-.8-.161-.14-.317-.283-.465-.423a4.563,4.563,0,0,1-1.6-3.108,2.943,2.943,0,0,1,.082-.752c.148-.286.219-.445.219-.445s.358-.132,1.049-.362l.368.395a1.645,1.645,0,0,0-.43,1.162,2.6,2.6,0,0,0,.553,1.411,6.347,6.347,0,0,0,1.064,1.145l.645.541c.1.083.195.168.293.244C794.99,671.408,797.591,673.581,795.925,676.9Z" transform="translate(-788.623 -664.401)"/></g><g transform="translate(24.279 2.467)"><path class="u" d="M799.543,668.319a24.216,24.216,0,0,1-.168,3.666,17.5,17.5,0,0,0-.1,3.935,5.574,5.574,0,0,0,2.317,3.929l-.393.515-.006,0-.389.507c-.107-.081-.207-.162-.308-.245a6.721,6.721,0,0,1-2.466-4.344,17.9,17.9,0,0,1,.061-4.426,22.066,22.066,0,0,0,.163-3.467,3.5,3.5,0,0,0-.237-1.07,3.96,3.96,0,0,0-1.668-1.874,9.037,9.037,0,0,0-3.173-1.124c-.368-.063-.6-.087-.613-.088l.053-.64q.449-.137.959-.28c.165-.045.328-.09.507-.134l.005,0a10.434,10.434,0,0,1,2.582.943,6.2,6.2,0,0,1,1.675,1.291A4.633,4.633,0,0,1,799.543,668.319Z" transform="translate(-792.561 -663.18)"/></g></g></g><path class="v" d="M746.993,554.852c-1.009.491-2.076.977-3.182,1.443-6.8-8.251-23.362-22.716-47.158-6.428-15.222,10.418-34.543,12.053-38.584,12.286a.021.021,0,0,1-.026,0c-.478.032-.737.039-.737.039l-.007-.025-6.182-19.529,25.646-46.666,31.911.31s37.653,47.042,37.77,47.4C746.514,543.893,746.779,549.938,746.993,554.852Z" transform="translate(7.767 10.282)"/><g transform="translate(671.042 280.615)"><path class="w" d="M666.955,302.63c3.395,4.438,4.328,2.7-1.208,8.591-2.495,3.823,3.427,3.878,7.635,5.9a8.04,8.04,0,0,1,2.384,1.626c2.087,1.8,6.251,2.187,10.206,2.768,8.415-1.01,10.459,5.669,10.217-2.768-.033-.11-.077-.22-.1-.329-2.065-7.13,9.766-.594,7.35-6.933-5.526-2.5,6.767.242,2.768-10.2-5.888-4.4,7.2-8.031-2.768-10.218-.648-3.922-9.91-1.308-7.251-7.25-2.658-3.2-7.679-1.362-10.217-2.768-10.14-2.285-5.888,5.438-10.206,2.768-5.724-1.934-7.218,5.449-7.262,7.25C665.219,294.6,658.2,302.63,666.955,302.63Z" transform="translate(-662.721 -280.615)"/><path class="x" d="M672.9,316.066a8.04,8.04,0,0,1,2.384,1.626c2.087,1.8,6.251,2.187,10.206,2.768,8.415-1.01,10.459,5.669,10.217-2.768-.033-.11-.077-.22-.1-.329-2.758-.517-5.285-1.523-5.284-3.7,0-9.838-11.654-10.949-11.654-10.949s-3.166,6.687-3.364,7.412C675.2,310.5,674.072,313.275,672.9,316.066Z" transform="translate(-662.236 -279.56)"/><path class="b" d="M680.911,293.956s-12.643-2.965-12.643,11.757,1.488,16.582,12.643,12.119S693.554,294.622,680.911,293.956Z" transform="translate(-662.456 -279.99)"/></g><path class="y" d="M784.074,303.75l-8.853-4.327-6.851,7.083,1.379-9.757-8.853-4.327,9.706-1.7,1.379-9.757,4.619,8.7,9.706-1.7-6.851,7.083Z" transform="translate(13.008 0.017)"/><path class="v" d="M800.461,580.91l-3.613-.844-1.92,3.175-.313-3.7L791,578.7l3.42-1.441-.313-3.7,2.427,2.807,3.42-1.441-1.92,3.175Z" transform="translate(14.445 13.986)"/><g class="z" transform="translate(0.325 12.723)"><path class="aa" d="M552.162,602.421,530.423,592.1l-16.535,17.485,3.1-23.864L495.25,575.4l23.654-4.427,3.1-23.864,11.519,21.128,23.654-4.427-16.535,17.485Z"/><path class="ab" d="M 519.4411010742188 597.890869140625 L 527.5170288085938 589.3508911132812 L 529.5138549804688 587.2393188476562 L 532.1390991210938 588.4859008789062 L 542.7566528320312 593.527587890625 L 537.1302490234375 583.2078857421875 L 535.7391357421875 580.6563110351562 L 537.7359008789062 578.5447998046875 L 545.8118896484375 570.0047607421875 L 534.2586059570312 572.1668701171875 L 531.4020385742188 572.701416015625 L 530.0108642578125 570.1498413085938 L 524.384521484375 559.8302612304688 L 522.87060546875 571.4861450195312 L 522.4962768554688 574.3681640625 L 519.6397094726562 574.9027099609375 L 508.08642578125 577.0647583007812 L 518.7040405273438 582.1064453125 L 521.3292846679688 583.35302734375 L 520.9549560546875 586.2349853515625 L 519.4411010742188 597.890869140625 M 513.8887939453125 609.5838623046875 L 516.98828125 585.7197875976562 L 495.25 575.3974609375 L 518.9039306640625 570.970947265625 L 522.00341796875 547.1068115234375 L 533.5228271484375 568.235107421875 L 557.1767578125 563.8084716796875 L 540.6422119140625 581.2931518554688 L 552.16162109375 602.4214477539062 L 530.42333984375 592.0992431640625 L 513.8887939453125 609.5838623046875 Z"/></g></g></svg>