<svg xmlns="http://www.w3.org/2000/svg" xmlns:xlink="http://www.w3.org/1999/xlink" width="206.432" height="170.722" viewBox="0 0 206.432 170.722"><defs><style>.a{fill:none;}.b{fill:#ffefe0;}.c{fill:#fff;}.d{fill:#7fd1d8;}.e{fill:#084500;}.f{clip-path:url(#a);}.g{fill:#3e6569;}.h{clip-path:url(#b);}.i{fill:#a1dd6f;}.j{clip-path:url(#c);}.k{fill:#4a5e3a;}.l{clip-path:url(#d);}.m{clip-path:url(#e);}</style><clipPath id="a"><path class="a" d="M367.159,495.259v14.554a1.281,1.281,0,0,1-1.281,1.281h-2.651a1.28,1.28,0,0,1-1.28-1.281v-8.135l-1.016.693a.974.974,0,0,1-1.522-.8v-3.5a.974.974,0,0,1,.417-.8l4.305-3a1.205,1.205,0,0,1,.687-.216h1.139l.061,0,.037,0a.312.312,0,0,1,.045,0,.612.612,0,0,1,.062.009c.016,0,.032,0,.047.009l.046.011h.006l.047.014.016.005.046.016a1.014,1.014,0,0,1,.127.055.357.357,0,0,1,.039.02.632.632,0,0,1,.056.033.535.535,0,0,1,.05.033c.02.013.04.028.06.044l.04.033c.018.016.037.032.053.049a.414.414,0,0,1,.036.037l.016.016c.013.014.024.028.036.043h0A1.2,1.2,0,0,1,367.159,495.259Z"/></clipPath><clipPath id="b"><path class="a" d="M443.762,502.784l.01-.015.012-.016c.026-.035.063-.086.107-.152.032-.046.067-.1.106-.161a5.891,5.891,0,0,0,.958-3.009,4.887,4.887,0,0,0-3.091-4.708l-.025-.011-.006,0-.028-.01c-.043-.017-.087-.034-.132-.05l-.085-.03-.065-.022c-.039-.014-.078-.026-.119-.039l-.061-.02-.128-.037-.018-.005-.1-.028-.115-.029-.127-.03-.071-.016c-.1-.02-.2-.04-.3-.058-.124-.022-.251-.041-.382-.059l-.086-.01-.128-.014c-.136-.015-.274-.027-.416-.036-.076-.005-.153-.009-.23-.012-.157-.006-.316-.01-.481-.01-.075,0-.151,0-.225,0-.055,0-.111,0-.166.006s-.1.005-.146.01a.566.566,0,0,0-.071.005c-.05,0-.1.008-.146.013s-.093.009-.139.015h-.006l-.1.013-.1.016c-.193.029-.379.067-.559.112-.046.011-.091.023-.136.036s-.106.029-.158.045-.129.041-.191.063l-.1.032c-.056.021-.111.042-.165.064-.039.015-.079.031-.117.048s-.092.039-.137.061c-.028.012-.056.025-.083.039l-.094.046c-.035.017-.069.034-.1.052a5.221,5.221,0,0,0-.627.39l-.1.074c-.152.115-.3.236-.432.361l-.076.072c-.041.04-.081.08-.121.121s-.053.055-.079.082c-.068.071-.133.144-.2.217l-.1.125c-.042.052-.083.105-.123.158s-.077.1-.114.155c-.019.026-.038.054-.057.081s-.034.049-.05.074l-.052.078-.05.078c-.048.077-.1.155-.14.232-.03.051-.059.1-.086.153-.042.076-.081.152-.119.226s-.073.149-.107.221l-.033.073a7.56,7.56,0,0,0-.387,1.062.559.559,0,0,0,.327.662l2.785,1.17a.577.577,0,0,0,.776-.361,2.486,2.486,0,0,1,2.282-2.032c2.11,0,1.938,2.3.584,2.976a2.257,2.257,0,0,1-1.236.132.569.569,0,0,0-.649.556v1.593a.569.569,0,0,0,.649.556,2.257,2.257,0,0,1,1.236.132c1.354.68,1.526,2.975-.584,2.975a2.485,2.485,0,0,1-2.282-2.031.577.577,0,0,0-.776-.361l-2.785,1.17a.559.559,0,0,0-.327.662,7.75,7.75,0,0,0,.442,1.184c.03.062.06.125.092.188s.066.128.1.192.072.13.11.2l.058.1c.06.1.124.2.191.3.045.066.091.132.139.2s.1.131.15.2c.026.033.053.066.08.1s.054.065.082.1c.083.1.171.192.263.284a5.761,5.761,0,0,0,4.283,1.688c5.251,0,6.194-3.387,6.194-5.236a6.122,6.122,0,0,0-1.212-3.378Z"/></clipPath><clipPath id="c"><path class="a" d="M407.929,509.871v1.418a.9.9,0,0,1-.9.9h-10.97a.9.9,0,0,1-.9-.878l-.035-1.244a2.108,2.108,0,0,1,.745-1.669l.092-.077c.055-.048.112-.1.172-.147l.456-.389.117-.1.75-.645.351-.3c.375-.325.766-.664,1.154-1.005.236-.206.472-.414.7-.619.093-.081.184-.163.274-.243a26.108,26.108,0,0,0,2.546-2.46c.791-1.1.689-2.429-.938-2.65-1.105-.149-2.121,1.207-2.661,2.093a.9.9,0,0,1-1.178.345l-2.444-1.222a.905.905,0,0,1-.427-1.166c1.806-4.2,4.918-4.957,7.076-4.78l.1.008.091.009c.1.011.189.023.28.037s.18.028.266.045.17.035.251.053c.109.026.213.053.312.082.083.025.164.05.239.076l.1.036c.068.023.135.048.2.075l.1.039c.072.028.145.058.219.089l.093.04c.07.031.14.062.211.1l.106.051c.034.016.07.033.105.052l.106.054.105.056.106.059c.034.02.07.04.1.061s.07.042.105.063a6.049,6.049,0,0,1,2.8,5.244c.164,3.032-2.4,5.565-3.937,6.8l-.022.018-.085.068-.114.089-.006.006c-.093.071-.18.137-.261.2l-.014.01-.1.076-.107.076c-.09.064-.167.117-.228.159l-.038.025c-.084.057-.13.086-.13.086h4.153A.9.9,0,0,1,407.929,509.871Z"/></clipPath><clipPath id="d"><path class="a" d="M483.7,504.338h-1.195v-9.282a.431.431,0,0,0-.431-.432h-4.493a.434.434,0,0,0-.35.177l-7.35,10.048a.432.432,0,0,0-.083.255v3.208a.432.432,0,0,0,.432.433h7.746v2.77a.432.432,0,0,0,.432.432h3.666a.431.431,0,0,0,.431-.432v-2.551H483.7a.432.432,0,0,0,.433-.432V504.77A.432.432,0,0,0,483.7,504.338Zm-5.475.2h-2l1.17-1.6.831-1.136Z"/></clipPath><clipPath id="e"><path class="a" d="M520.379,510.609c-1.958,1.655-7.234,2.4-9.7-1.531a.9.9,0,0,1,.382-1.294l1.881-.889a.9.9,0,0,1,1.123.3,2.237,2.237,0,0,0,2.012.853,1.8,1.8,0,0,0,1.229-3.287c-.032-.027-.065-.052-.1-.078s-.056-.041-.085-.06l-.043-.03a3.108,3.108,0,0,0-.345-.194l-.069-.032a5.625,5.625,0,0,0-3.82-.079l-.077.022a.9.9,0,0,1-1.14-1.011l.649-4,.6-3.717a.9.9,0,0,1,.892-.758h6.928a.9.9,0,0,1,.9.9v2.529a.9.9,0,0,1-.9.9H516.55l-.289,1.337s3.461-.261,5.23,1.888l0,.005c.038.047.075.094.112.143.025.033.049.067.074.1s.047.069.07.1A6.117,6.117,0,0,1,520.379,510.609Z"/></clipPath></defs><g transform="translate(-337.933 -367.022)"><rect class="b" width="206.432" height="170.722" rx="12" transform="translate(337.933 367.022)"/><circle class="c" cx="44.209" cy="44.209" r="44.209" transform="translate(394.333 378.762)"/><path class="d" d="M427.653,410.646s11.576-10.575,21.714-2.127,6.445,25.719,4.568,28.159-4.318,4.193-15.018,4.005-18.586-5.569-17.96-16.833C420.957,423.85,421.332,417.154,427.653,410.646Z"/><path class="c" d="M446.641,424.005a.21.21,0,0,1,0,.364l-5.368,3.122-5.368,3.122a.209.209,0,0,1-.315-.18l-.02-6.21-.02-6.21a.209.209,0,0,1,.314-.183l5.388,3.088Z"/><path class="e" d="M412.483,497.968c.044-.077.091-.155.141-.232C412.575,497.813,412.527,497.891,412.483,497.968Z"/><circle class="c" cx="16.968" cy="16.968" r="16.968" transform="translate(346.98 486.202)"/><path class="d" d="M367.159,495.259v14.554a1.281,1.281,0,0,1-1.281,1.281h-2.651a1.28,1.28,0,0,1-1.28-1.281v-8.135l-1.016.693a.974.974,0,0,1-1.522-.8v-3.5a.974.974,0,0,1,.417-.8l4.305-3a1.205,1.205,0,0,1,.687-.216h1.139l.061,0,.037,0a.312.312,0,0,1,.045,0,.612.612,0,0,1,.062.009c.016,0,.032,0,.047.009l.046.011h.006l.047.014.016.005.046.016a1.014,1.014,0,0,1,.127.055.357.357,0,0,1,.039.02.632.632,0,0,1,.056.033.535.535,0,0,1,.05.033c.02.013.04.028.06.044l.04.033c.018.016.037.032.053.049a.414.414,0,0,1,.036.037l.016.016c.013.014.024.028.036.043h0A1.2,1.2,0,0,1,367.159,495.259Z"/><g class="f"><path class="g" d="M360.81,510.9s-.97-4.323,1.765-5.381,4.411-3.353,3.264-5.823a3.871,3.871,0,0,0-5.47-1.588c-3.793,2.911-3.97,6.176-3.97,6.176l3.97-14.38,9.969.441s1.5,11.38,1.236,12.351-1.941,9.7-2.206,10.057-4.5,1.235-5.029.97S360.81,510.9,360.81,510.9Z"/></g><path class="c" d="M366.131,505.2l.207,2.469,2.15,1.229-2.284.959-.5,2.425-1.618-1.875-2.462.269,1.283-2.118-1.017-2.258,2.411.566Zm-1.685,2.241-1.643-.386.693,1.539-.875,1.444,1.678-.184,1.1,1.278.344-1.653,1.557-.653-1.466-.838-.141-1.683Z"/><circle class="c" cx="16.968" cy="16.968" r="16.968" transform="translate(421.925 486.202)"/><path class="e" d="M434.973,496.658q.285-.184.551-.383Q435.258,496.474,434.973,496.658Z"/><path class="e" d="M434.973,496.658q.285-.184.551-.383Q435.258,496.474,434.973,496.658Z"/><path class="d" d="M443.762,502.784l.01-.015.012-.016c.026-.035.063-.086.107-.152.032-.046.067-.1.106-.161a5.891,5.891,0,0,0,.958-3.009,4.887,4.887,0,0,0-3.091-4.708l-.025-.011-.006,0-.028-.01c-.043-.017-.087-.034-.132-.05l-.085-.03-.065-.022c-.039-.014-.078-.026-.119-.039l-.061-.02-.128-.037-.018-.005-.1-.028-.115-.029-.127-.03-.071-.016c-.1-.02-.2-.04-.3-.058-.124-.022-.251-.041-.382-.059l-.086-.01-.128-.014c-.136-.015-.274-.027-.416-.036-.076-.005-.153-.009-.23-.012-.157-.006-.316-.01-.481-.01-.075,0-.151,0-.225,0-.055,0-.111,0-.166.006s-.1.005-.146.01a.566.566,0,0,0-.071.005c-.05,0-.1.008-.146.013s-.093.009-.139.015h-.006l-.1.013-.1.016c-.193.029-.379.067-.559.112-.046.011-.091.023-.136.036s-.106.029-.158.045-.129.041-.191.063l-.1.032c-.056.021-.111.042-.165.064-.039.015-.079.031-.117.048s-.092.039-.137.061c-.028.012-.056.025-.083.039l-.094.046c-.035.017-.069.034-.1.052a5.221,5.221,0,0,0-.627.39l-.1.074c-.152.115-.3.236-.432.361l-.076.072c-.041.04-.081.08-.121.121s-.053.055-.079.082c-.068.071-.133.144-.2.217l-.1.125c-.042.052-.083.105-.123.158s-.077.1-.114.155c-.019.026-.038.054-.057.081s-.034.049-.05.074l-.052.078-.05.078c-.048.077-.1.155-.14.232-.03.051-.059.1-.086.153-.042.076-.081.152-.119.226s-.073.149-.107.221l-.033.073a7.56,7.56,0,0,0-.387,1.062.559.559,0,0,0,.327.662l2.785,1.17a.577.577,0,0,0,.776-.361,2.486,2.486,0,0,1,2.282-2.032c2.11,0,1.938,2.3.584,2.976a2.257,2.257,0,0,1-1.236.132.569.569,0,0,0-.649.556v1.593a.569.569,0,0,0,.649.556,2.257,2.257,0,0,1,1.236.132c1.354.68,1.526,2.975-.584,2.975a2.485,2.485,0,0,1-2.282-2.031.577.577,0,0,0-.776-.361l-2.785,1.17a.559.559,0,0,0-.327.662,7.75,7.75,0,0,0,.442,1.184c.03.062.06.125.092.188s.066.128.1.192.072.13.11.2l.058.1c.06.1.124.2.191.3.045.066.091.132.139.2s.1.131.15.2c.026.033.053.066.08.1s.054.065.082.1c.083.1.171.192.263.284a5.761,5.761,0,0,0,4.283,1.688c5.251,0,6.194-3.387,6.194-5.236a6.122,6.122,0,0,0-1.212-3.378Zm-3.341-6.92q.285-.185.551-.383Q440.707,495.681,440.421,495.864Z"/><g class="h"><path class="g" d="M432.081,494.556s.706,2.117,5.647,1.323,5.028,2.647,4.146,5.029.618,4.235-.176,6.528c-.393,1.134-4.764,5.294-7.94.353s-3-5.469-3-5.469v9.086s14.027,2.294,14.645,1.941-.177-6.793.794-8.91,2.823-5.293,1.853-7.764a7.679,7.679,0,0,0-5.382-5.117C439.757,490.762,432.081,494.556,432.081,494.556Z"/></g><path class="c" d="M437.444,506.835l.12,1.432,1.247.713-1.324.556-.293,1.407-.939-1.088-1.428.156.745-1.228-.591-1.311,1.4.329Zm-.977,1.3-.954-.224.4.893-.507.838.974-.107.639.742.2-.959.9-.379-.851-.486-.081-.976Z"/><circle class="c" cx="16.968" cy="16.968" r="16.968" transform="translate(384.374 486.865)"/><path class="e" d="M400.316,508.536c.081-.06.168-.126.261-.2C400.485,508.411,400.4,508.476,400.316,508.536Z"/><path class="i" d="M407.929,509.871v1.418a.9.9,0,0,1-.9.9h-10.97a.9.9,0,0,1-.9-.878l-.035-1.244a2.108,2.108,0,0,1,.745-1.669l.092-.077c.055-.048.112-.1.172-.147l.456-.389.117-.1.75-.645.351-.3c.375-.325.766-.664,1.154-1.005.236-.206.472-.414.7-.619.093-.081.184-.163.274-.243a26.108,26.108,0,0,0,2.546-2.46c.791-1.1.689-2.429-.938-2.65-1.105-.149-2.121,1.207-2.661,2.093a.9.9,0,0,1-1.178.345l-2.444-1.222a.905.905,0,0,1-.427-1.166c1.806-4.2,4.918-4.957,7.076-4.78l.1.008.091.009c.1.011.189.023.28.037s.18.028.266.045.17.035.251.053c.109.026.213.053.312.082.083.025.164.05.239.076l.1.036c.068.023.135.048.2.075l.1.039c.072.028.145.058.219.089l.093.04c.07.031.14.062.211.1l.106.051c.034.016.07.033.105.052l.106.054.105.056.106.059c.034.02.07.04.1.061s.07.042.105.063a6.049,6.049,0,0,1,2.8,5.244c.164,3.032-2.4,5.565-3.937,6.8l-.022.018-.085.068-.114.089-.006.006c-.093.071-.18.137-.261.2l-.014.01-.1.076-.107.076c-.09.064-.167.117-.228.159l-.038.025c-.084.057-.13.086-.13.086h4.153A.9.9,0,0,1,407.929,509.871Z"/><g class="j"><path class="k" d="M393.837,498.614a2.414,2.414,0,0,1,2.735,1.147c.97,1.676,2.823.794,4.764-.617s3.264-.177,3.7,1.146-.088,3.265-2.2,4.853-2.625,3.893-1.5,4.675c1.769,1.23,6.881.971,7.587,1.765s-7.852,3.97-8.381,3.882-6.528-1.059-7.587-3.441Z"/></g><path class="c" d="M399.011,510.645h0v0l.92-3.439h0l.016-.058-2.878-.426-.106.408-.705,2.65a.928.928,0,0,0-.539-.377.666.666,0,1,0-.34,1.249.74.74,0,0,0,.963-.409h0v0l.72-2.692,2.474.339-.61,2.287a.916.916,0,0,0-.539-.376.75.75,0,0,0-.964.412.847.847,0,0,0,1.579.46h0Zm-1.894-3.3.049-.183,2.469.353-.045.168Z"/><circle class="c" cx="16.968" cy="16.968" r="16.968" transform="translate(460.843 486.865)"/><circle class="c" cx="16.968" cy="16.968" r="16.968" transform="translate(499.626 486.865)"/><path class="i" d="M483.7,504.338h-1.195v-9.282a.431.431,0,0,0-.431-.432h-4.493a.434.434,0,0,0-.35.177l-7.35,10.048a.432.432,0,0,0-.083.255v3.208a.432.432,0,0,0,.432.433h7.746v2.77a.432.432,0,0,0,.432.432h3.666a.431.431,0,0,0,.431-.432v-2.551H483.7a.432.432,0,0,0,.433-.432V504.77A.432.432,0,0,0,483.7,504.338Zm-5.475.2h-2l1.17-1.6.831-1.136Z"/><g class="l"><path class="k" d="M473.608,497.2s4.49-1.9,6.666-.544.681,5.034,0,7.891,2.585,6.53-2.04,6.938-3.129,2.993-3.129,2.993,10.475.953,11.291-.816,1.9-8.979.817-11.972.816-8.027-2.449-8.707-6.8-1.36-8.571,0A9.388,9.388,0,0,0,473.608,497.2Z"/></g><path class="c" d="M481.849,507.037a1.9,1.9,0,0,1-.325-1.4l0-.008-.212-.073-1.193,3.53a.9.9,0,0,0-.526-.46.775.775,0,1,0-.5,1.458.806.806,0,0,0,1.063-.451l-.005,0,0,.006h0v0l.789-2.318a2.75,2.75,0,0,0,.4.867.779.779,0,0,1-.186,1.156.73.73,0,0,0,.528-1.026A.82.82,0,0,0,481.849,507.037Zm-.335.966a1.924,1.924,0,0,1-.334-1.375l.1-.28a2.7,2.7,0,0,0,.4.873.777.777,0,0,1-.024,1.017A1.348,1.348,0,0,0,481.514,508Z"/><path class="d" d="M520.379,510.609c-1.958,1.655-7.234,2.4-9.7-1.531a.9.9,0,0,1,.382-1.294l1.881-.889a.9.9,0,0,1,1.123.3,2.237,2.237,0,0,0,2.012.853,1.8,1.8,0,0,0,1.229-3.287c-.032-.027-.065-.052-.1-.078s-.056-.041-.085-.06l-.043-.03a3.108,3.108,0,0,0-.345-.194l-.069-.032a5.625,5.625,0,0,0-3.82-.079l-.077.022a.9.9,0,0,1-1.14-1.011l.649-4,.6-3.717a.9.9,0,0,1,.892-.758h6.928a.9.9,0,0,1,.9.9v2.529a.9.9,0,0,1-.9.9H516.55l-.289,1.337s3.461-.261,5.23,1.888l0,.005c.038.047.075.094.112.143.025.033.049.067.074.1s.047.069.07.1A6.117,6.117,0,0,1,520.379,510.609Z"/><path class="e" d="M520.7,502.811a2.8,2.8,0,0,1,.345.194A3.027,3.027,0,0,0,520.7,502.811Z"/><g class="m"><path class="g" d="M521.055,493.145s-1.632,3.177-4.466,4.036-3.521,2.4-3.091,4.036,5.135,2.048,6.518,3.085,2.241,6.7,2.241,6.7-11.249,5.324-11.249,4.98S506.2,506.37,506.2,505.94s1.2-11.335,2.576-12.366S521.055,493.145,521.055,493.145Z"/></g></g></svg>