<svg xmlns="http://www.w3.org/2000/svg" xmlns:xlink="http://www.w3.org/1999/xlink" width="1366" height="771" viewBox="0 0 1366 771"><defs><style>.a,.t{fill:none;}.b{fill:#d2c3db;}.c{fill:#eadff1;}.aa,.d{fill:#000;}.e{fill:#b3b3b3;}.f{fill:#d0d1d6;}.g{fill:#333;}.h,.i{fill:#d8a35d;}.h{fill-rule:evenodd;}.j{fill:#d19442;}.k{fill:#947dce;}.l{fill:#ffc84f;}.m{opacity:0.15;}.n{fill:#62548a;}.o{opacity:0.3;}.p{opacity:0.5;}.q{fill:#999;}.r{fill:#ccc;}.s{fill:gray;}.t{stroke:#947dce;stroke-width:0.747px;}.aa,.t{stroke-miterlimit:10;}.u{isolation:isolate;}.v{clip-path:url(#a);}.w{fill:#b9b9b9;}.x{fill:#302f30;}.y{fill:red;}.z{fill:lime;}.aa{stroke:#4f3b65;stroke-width:6px;}.ab{clip-path:url(#b);}.ac{fill:#89bbe1;}.ad{fill:#6a676b;}.ae{fill:#65c8d0;}.af{fill:#ba9bc9;}</style><clipPath id="a"><path class="a" d="M659.426,1497.918l-8.584-26.79,31.881-2.2,8.585,26.79Z"/></clipPath><clipPath id="b"><path class="a" d="M132.079,1361.263l-.472-98.974,73.94,10.943.472,98.974Z"/></clipPath></defs><g transform="translate(-3.642 -922.083)"><path class="b" d="M1369.642,931.62v758.464L1127.414,1622.5l-32.991-6.263,1.636-558.092,30.118-25.56Z"/><path class="b" d="M319.939,1047.554l-16.051,556.371-300.044,74.4V928.271l298.845,93.57Z"/><path class="c" d="M701.62,1011.154H277.012v617.384h849.165V1011.154Z"/><path class="d" d="M3.642,982.863c121.657,30.38,335.7,73.888,615,80.372,352.972,8.2,622.429-47.1,751-78.7V922.083H3.642Z"/><path class="d" d="M3.642,1644.767c121.657-29.39,335.7-71.481,615-77.753,352.972-7.928,622.429,45.568,751,76.133v47.19l-1365.8,2.746Z"/><path class="e" d="M739.642,1509.083h-344l50-60h254Z"/><rect class="e" width="16" height="138" transform="translate(407.642 1509.083)"/><rect class="e" width="11" height="163" transform="translate(444.642 1449.083)"/><rect class="e" width="11" height="163" transform="translate(687.642 1449.083)"/><rect class="e" width="16" height="138" transform="translate(712.642 1509.083)"/><path class="f" d="M625.283,1500.083H479.6c-1.618,0-4.281-1-3.281-2.23l15.729-22.338a5.577,5.577,0,0,1,4.546-1.987H608.077a6.041,6.041,0,0,1,4.912,2.141l15.569,21.968C629.65,1499.037,627.058,1500.083,625.283,1500.083Z"/><path class="g" d="M610.154,1494.223H493.516c-1.294,0-2.281-.5-2.077-1.046l4.919-13.2c.265-.712,1.7-1.235,3.373-1.235h105.2c1.49,0,2.755.47,2.971,1.1l4.508,13.275C612.589,1493.7,611.528,1494.223,610.154,1494.223Z"/><rect class="f" width="121.634" height="0.614" transform="translate(491.105 1481.015)"/><rect class="f" width="121.634" height="0.614" transform="translate(491.105 1484.087)"/><rect class="f" width="121.634" height="0.614" transform="translate(491.105 1487.773)"/><rect class="f" width="121.634" height="0.614" transform="translate(491.105 1491.152)"/><rect class="f" width="0.921" height="20.272" transform="translate(505.836 1476.122) rotate(17.439)"/><rect class="f" width="0.921" height="20.272" transform="translate(514.744 1476.121) rotate(17.439)"/><rect class="f" width="0.921" height="20.272" transform="translate(521.808 1476.122) rotate(17.439)"/><rect class="f" width="0.921" height="20.272" transform="translate(528.873 1476.122) rotate(17.439)"/><rect class="f" width="0.921" height="20.272" transform="translate(536.244 1476.121) rotate(17.439)"/><rect class="f" width="0.921" height="20.272" transform="translate(543.725 1475.891) rotate(10.978)"/><rect class="f" width="0.921" height="20.272" transform="translate(550.079 1475.794)"/><rect class="f" width="0.921" height="20.272" transform="translate(597.743 1476.398) rotate(-17.439)"/><rect class="f" width="0.921" height="20.272" transform="translate(589.143 1476.398) rotate(-17.439)"/><rect class="f" width="0.921" height="20.272" transform="translate(580.543 1476.398) rotate(-17.439)"/><rect class="f" width="0.921" height="20.272" transform="translate(571.942 1476.398) rotate(-17.439)"/><rect class="f" width="0.921" height="20.272" transform="translate(563.342 1476.398) rotate(-17.439)"/><rect class="f" width="0.921" height="20.272" transform="translate(554.742 1476.398) rotate(-17.439)"/><g transform="translate(-91 5)"><path class="h" d="M997.522,1263.952c-1.389-3.392-5.8-6.039-8.751-6.856a29.674,29.674,0,0,1-3.763-1.581c-2.287-.772,1.332,2.492,2.7,3.039,1.111.445,3.1,3.754,4.192,4.888s3.425,2.779,4.681,2.79S997.342,1264.582,997.522,1263.952Z"/><path class="h" d="M1005.188,1275.716c-2.653-4.766-4.639-10.428-9.735-12.794s-12.722-2.326-16.771-2.946c-4.763-.729-2.766.822-.256,1.494,1.631.437,6.9,2,8.553,1.988a52.523,52.523,0,0,0-6.877-1.119c-.392.11-7.948-1.952-7.435-.562,1,2.7,9.531,3.039,12.249,3.632-1.434-.053-3.765-.482-5.147-.539-1.173-.048-4.714-1.338-5.063-.26-.55,1.7,8.189,2.8,9.352,2.9-1.15.924-5.535-.46-7.064-.566-.153-.01-1.545.323.128.913a50.338,50.338,0,0,0,10.279,2.969c4.028.6,8.752,1.215,11.436,4.894C1000.987,1275.6,1003.091,1275.976,1005.188,1275.716Z"/><path class="i" d="M1140.356,1511.036s-9.277,95.726-5.333,97.373c7.077,3,34.793,12.822,4.236,10.664-15.7.946-14.544-2.561-14.789-5.533-.2-2.428.26-88.1-.385-94.76-.144-1.492-.232-2.393-.232-2.393Z"/><path class="i" d="M1082.827,1511.036s4.022,95.726.077,97.373c-7.077,3-34.792,12.822-4.236,10.664,15.7.946,14.545-2.561,14.79-5.533.2-2.428,1.981-20.855,2.626-27.518.144-1.492,3.22-76.36,3.22-76.36Z"/><path class="j" d="M1113.595,1264.015s-.818,9.121,4.809,14.166-12.966,0-12.966,0,3.459-8.737,2.683-14.166S1113.595,1264.015,1113.595,1264.015Z"/><ellipse class="i" cx="9.836" cy="13.42" rx="9.836" ry="13.42" transform="translate(1100.791 1240.711)"/><path class="k" d="M1030.525,1322.012c14.891-31.148,41.466-45.359,58.433-49.132,7.345-1.636,12.888-1.315,14.913.434a11,11,0,0,0,6.866,2.667,14.893,14.893,0,0,0,3.856-.351,19.2,19.2,0,0,0,4.086-1.39c.628-.291.994-.5.994-.5a39.892,39.892,0,0,1,10.385.621c38.388,7.516,45.067,71.881,44.723,77.417-.209,3.3-3.616,18.223-7.874,31.492-3.489,10.893-7.561,20.673-10.908,22.025-7.427,2.989-63.5,7.091-75.027,1.592-.269-.2-.561-.419-.837-.658-4.326-3.519-9.018-10.467-11.506-16.975,0-.007-6.627-18.685-7.979-22.488-.015-.038-.023-.067-.038-.1-.045-.15-.1-.292-.149-.426-.015-.052-.038-.1-.052-.15"/><path class="l" d="M1078.4,1404.679a6.067,6.067,0,0,0,3.441,1.588c8.086.158,43.011.756,61.957-.332,6.684-.385,11.378-.979,12.2-1.88a.708.708,0,0,1-.006.077c-.049,1.044-.648,13-1.489,28.671-1.66,30.936,1.537,75.244,5.273,88.693.806,2.9-42.586-1.495-42.586-1.495-.121-31.925,2.908-87.973.951-90.485-2.38-3.056-6.239,46.243-10.664,87.5-17.184,4.483-44.4,1.761-44.081,0C1067.137,1496.093,1078.4,1404.679,1078.4,1404.679Z"/><path class="m" d="M1060.413,1366.092c.015.053.037.1.052.15.052.134.1.276.149.426.015.03.023.059.038.1,1.352,3.8,7.979,22.481,7.979,22.488,2.488,6.508,7.18,13.456,11.506,16.975-2.936-10.631-12.089-41.451-11.738-53.868C1066.651,1364.329,1060.413,1366.085,1060.413,1366.092Z"/><path class="m" d="M1150.179,1321.567s-18.582,55.47,32.974,79.028l1.047.7-.266-13.047s-24.293-33.9-24.385-34.772S1150.179,1321.567,1150.179,1321.567Z"/><path class="m" d="M1111.387,1278.185c.03.889-.441,1.472-1.868,1.277-4.452-.6-9.481-.478-13.134,1.2a3.106,3.106,0,0,1-3-.127c-2.338-1.367-3.788-5.447-4.363-7.255a1.241,1.241,0,0,1-.06-.4c7.345-1.636,12.888-1.315,14.913.434a11,11,0,0,0,6.866,2.667A6.052,6.052,0,0,1,1111.387,1278.185Z"/><path class="n" d="M1094.781,1607.416c.183-1.382-9.651-1.253-10.764-.13s-20.711,5.166-20.323,10.987,27.549,1.244,29.489,1.107S1094.421,1610.132,1094.781,1607.416Z"/><path class="n" d="M1123.919,1605.174c-.183-1.382,11.588.372,12.7,1.495s18.249,5.783,17.861,11.6-27.549,1.244-29.489,1.107S1124.278,1607.891,1123.919,1605.174Z"/><g class="o"><path d="M1110.645,1406.575l-.39-.032S1110.394,1406.553,1110.645,1406.575Z"/><path class="p" d="M1110.645,1406.575c10.408.831,33.155-.64,33.155-.64,6.684-.385,11.378-.979,12.2-1.88a.708.708,0,0,1-.006.077c-.049,1.044-.648,13-1.489,28.671a7.649,7.649,0,0,1-1.094-.126,8.521,8.521,0,0,1-5.508-3.914,18.944,18.944,0,0,1-2.142-4.473C1138.005,1409.526,1113.979,1406.875,1110.645,1406.575Z"/></g><path class="l" d="M1106.931,1246.428s17.029,9.442,11.974-5.717C1115.409,1230.223,1095.317,1239.67,1106.931,1246.428Z"/><path class="l" d="M1109.4,1242.807s-9.527,5.653-8.608,11.324c0,0-2.1-16.931,7.372-17.357s13.142.489,12.3,18.393C1120.464,1255.167,1117.711,1240.925,1109.4,1242.807Z"/><path class="l" d="M1107.75,1236.884s.479-5.275,5.709-4.528,7.471,3.736,8.218,6.724,1.495,5.23,2.242,5.23c0,0-2.242,2.241-2.989,1.494,0,0,1.939,5.373-.524,9.785,0,0-.97-6.8-4.706-7.543S1107.75,1236.884,1107.75,1236.884Z"/><path class="l" d="M1108.229,1236.839s-3.736-2.242-7.471,2.988l-2.242,4.483s.747.747,2.242,0c0,0-.681,5.264.033,8.236l2.208-8.983Z"/><path class="q" d="M1086.069,1338.12l9.474,60.689a6.482,6.482,0,0,0,7.4,5.4l41.421-6.47a2.013,2.013,0,0,0,.292-.06,6.459,6.459,0,0,0,5.1-7.337l-9.474-60.689a6.471,6.471,0,0,0-7.4-5.394l-39.5,6.163-1.92.3A6.471,6.471,0,0,0,1086.069,1338.12Z"/><path class="r" d="M1088.281,1337.761l9.473,60.69a6.471,6.471,0,0,0,7.4,5.394l39.5-6.164a6.459,6.459,0,0,0,5.1-7.337l-9.474-60.689a6.471,6.471,0,0,0-7.4-5.394l-39.5,6.163A6.457,6.457,0,0,0,1088.281,1337.761Z"/><circle class="s" cx="5" cy="5" r="5" transform="translate(1114.44 1359.562)"/><path class="m" d="M1158.063,1380.93s.971-22.309-58.8-14.838,44.828,14.2,44.828,14.2Z"/><path class="h" d="M1104.829,1374.45c-.708-.237-8.183-4.714-12.236-5.088s-10.113-.543-12.205-1.138c-2.462-.7-3.083.278-.248,1.36a39.917,39.917,0,0,0,6.455,1.828c.406.017-2.235-.338-5.1-.933-3.051-.632-6.36-1.492-6.512-.949-.294,1.054,8.495,3.423,10.043,3.591a39.144,39.144,0,0,1-4.082-.495c-1.842-.327-3.953-.979-4.368-.6-.654.6,4,2.429,7.848,2.962.067.125-1.176.319-5.7-.621-.455-.094-1.613.1-.124.793,3.135,1.45,4.377,2.305,8.92,2.446,4.431.139,9.322-.773,12.509.3Z"/><path class="h" d="M1094.546,1369.761s-3.431-3.6-7.283-4.2c-2.29-.354-2.236-.93-2.627-1.1-1.3-.57-.041,1.835,1.9,2.452,1.581.5,2.464,3.2,3.414,3.776s3.794,1.624,4.5,1.252S1094.546,1369.761,1094.546,1369.761Z"/><path class="k" d="M1168.747,1283.908c14.073,12.592,23.81,24.287,29.885,62.759,3.082,19.519,2.279,39.038,1.477,49.331a12.164,12.164,0,0,1-8.358,10.575c-44.093,14.544-92.526-27.3-92.526-27.3-2.525-.939,2.559-9.943,2.559-9.943,24.376-.253,43.054.494,62.48,7.965-.1-.046-19.1-35.73-21.667-45.575-6.733-25.816-28.9-48.157-23.161-58.276C1121.417,1269.948,1154.551,1271.207,1168.747,1283.908Z"/><line class="t" x1="11.019" y2="115.224" transform="translate(1074.971 1403.924)"/><line class="t" x1="10.936" y2="113.217" transform="translate(1085.99 1406.228)"/><line class="t" x1="9.094" y2="112.426" transform="translate(1098.522 1406.228)"/><line class="t" x2="0.234" y2="23.288" transform="translate(1117.912 1406.228)"/><line class="t" x1="2.11" y2="114.704" transform="translate(1127.23 1406.228)"/><line class="t" x1="0.588" y2="115.666" transform="translate(1138.586 1406.156)"/><line class="t" x2="2.225" y2="116.331" transform="translate(1148.84 1406.156)"/><path class="t" d="M1076.911,1416.666s62.053,2.929,78.448,0"/><path class="t" d="M1118.146,1429.516c-21.711,4.918-42.489-2.856-42.489-2.856"/><path class="t" d="M1117.912,1428.047s19.593,5.505,36.8.856"/><path class="t" d="M1074.59,1435.1s15.646,8.192,41.06,4.016"/><path class="t" d="M1073.309,1445.16s24.348,7.434,41.138,3.609"/><path class="t" d="M1072.025,1455.151s12.4,9.721,41.151,5.36"/><path class="t" d="M1070.53,1466.643a60.33,60.33,0,0,0,41.7,3.142"/><path class="t" d="M1069.14,1477.171s13.392,9.506,41.969,3.984"/><path class="t" d="M1067.687,1487.963s18.483,9.662,42.568,1.856"/><path class="t" d="M1066.524,1496.385s10.9,10.489,42.809,2.713"/><path class="t" d="M1065.153,1505.946s17.633,9.289,43.238,2.419"/><path class="t" d="M1118.8,1438.564s8.186,6.759,35.914,1.742"/><path class="t" d="M1119.018,1448.737s11.486,5.355,35.042,1.126"/><path class="t" d="M1118.457,1460.027s17.737,5.342,35.6,0"/><path class="t" d="M1118.2,1469.39s17.242,7.665,36.2,0"/><path class="t" d="M1117.912,1479.669s16.415,5.76,36.968,0"/><path class="t" d="M1117.647,1489.542s13.836,6.208,37.88,0"/><path class="t" d="M1117.647,1498.277s16.428,8.466,38.716.9"/><path class="t" d="M1117.252,1509.2a75.953,75.953,0,0,0,40.33.465"/><path class="k" d="M1060.652,1366.765s-45.479,19.293-56.513-22.316,4.138-50.813-10.115-68.051l9.2-7.122s31.724,16.782,41.15,42.989S1060.652,1366.765,1060.652,1366.765Z"/></g><g class="u"><g class="v"><path class="s" d="M682.111,1487.076c-1.387.095-3.691-.832-5.678-2.364-2.4-1.856-3.418-3.9-2.282-4.561a1.723,1.723,0,0,1,.745-.2c1.387-.1,3.691.831,5.677,2.363,2.4,1.856,3.419,3.9,2.283,4.561a1.741,1.741,0,0,1-.745.2m-6.207-11.509-8.013,3.98.046.04c.335.293.367.645.076.795l-.832.41a.625.625,0,0,1-.236.059,1.325,1.325,0,0,1-.9-.327l-.043-.037-8.012,3.976,8.918,9.058a14.616,14.616,0,0,0,10.3,3.173,12.118,12.118,0,0,0,4.535-1.162l3.795-1.886c4.413-2.189,4.932-6.639,1.152-9.943l-10.782-8.136"/><path class="g" d="M661.044,1474.862h0m-3.051-2.662-1.893.942c-4.413,2.189-3.8,6.084-.02,9.382l1.907,1.939,8.012-3.976-5.3-4.624c-.335-.293-.369-.65-.076-.794l.146-.072-3.039-2.662.264-.132,0,0"/><path class="g" d="M663.7,1470.243a10.1,10.1,0,0,0-3.8,1.013l-1.9.944,0,0,.267-.134,3.048,2.661-.268.132.414-.2a.608.608,0,0,1,.239-.062,1.34,1.34,0,0,1,.9.325l5.3,4.626,8.013-3.98-2.307-1.739a14.013,14.013,0,0,0-9.9-3.585"/><path class="s" d="M661.7,1474.6a.608.608,0,0,0-.239.062l-.414.2h0l-.27.134h0l-.146.072c-.293.144-.259.5.076.794l5.3,4.624.043.037a1.325,1.325,0,0,0,.9.327.625.625,0,0,0,.236-.059l.832-.41c.291-.15.259-.5-.076-.795l-.046-.04-5.3-4.626a1.34,1.34,0,0,0-.9-.325"/><path class="s" d="M658.264,1472.069l-.267.134-.264.132,3.039,2.661h0l.27-.133h0l.267-.132-3.048-2.661"/><path class="w" d="M674.9,1479.95a1.723,1.723,0,0,0-.745.2c-1.136.661-.115,2.7,2.282,4.561,1.987,1.532,4.291,2.459,5.678,2.364a1.741,1.741,0,0,0,.745-.2c1.136-.661.115-2.705-2.283-4.561-1.986-1.532-4.29-2.459-5.677-2.363"/></g></g><path class="s" d="M6.09,0H67.957a6.091,6.091,0,0,1,6.091,6.091V141.278a6.091,6.091,0,0,1-6.091,6.091H6.09A6.09,6.09,0,0,1,0,141.28V6.09A6.09,6.09,0,0,1,6.09,0Z" transform="translate(749.594 1495.231)"/><path class="g" d="M823.642,1634.866v-69.655H749.594v69.655c0,4.273,2.731,7.735,6.091,7.735h61.867C820.915,1642.6,823.642,1639.139,823.642,1634.866Z"/><path class="x" d="M804.023,1548.853a1.861,1.861,0,1,1-1.861-1.86A1.859,1.859,0,0,1,804.023,1548.853Z"/><path class="y" d="M802.162,1550.31a1.457,1.457,0,1,1,1.457-1.457A1.457,1.457,0,0,1,802.162,1550.31Z"/><path class="z" d="M812.095,1548.853a1.454,1.454,0,1,1-1.456-1.456A1.457,1.457,0,0,1,812.095,1548.853Z"/><rect class="g" width="65.037" height="16.907" rx="3.045" transform="translate(754.1 1504.923)"/><rect class="g" width="65.037" height="16.909" rx="3.045" transform="translate(754.1 1524.431)"/><rect width="6.014" height="2.79" transform="translate(810.639 1527.325)"/><rect width="6.014" height="2.795" transform="translate(810.639 1507.653)"/><path d="M749.594,1634.606v1.909a6.091,6.091,0,0,0,6.091,6.086h61.867a6.088,6.088,0,0,0,6.09-6.086v-1.909Z"/><circle cx="2.198" cy="2.198" r="2.198" transform="translate(756.067 1574.55)"/><circle cx="2.198" cy="2.198" r="2.198" transform="translate(765.407 1574.55)"/><circle cx="2.198" cy="2.198" r="2.198" transform="translate(774.747 1574.55)"/><circle cx="2.198" cy="2.198" r="2.198" transform="translate(784.086 1574.55)"/><circle cx="2.198" cy="2.198" r="2.198" transform="translate(793.426 1574.55)"/><circle cx="2.198" cy="2.198" r="2.198" transform="translate(802.765 1574.55)"/><circle cx="2.198" cy="2.198" r="2.198" transform="translate(812.105 1574.55)"/><circle cx="2.198" cy="2.198" r="2.198" transform="translate(756.067 1582.791)"/><circle cx="2.198" cy="2.198" r="2.198" transform="translate(765.407 1582.791)"/><circle cx="2.198" cy="2.198" r="2.198" transform="translate(774.747 1582.791)"/><circle cx="2.198" cy="2.198" r="2.198" transform="translate(784.086 1582.791)"/><circle cx="2.198" cy="2.198" r="2.198" transform="translate(793.426 1582.791)"/><circle cx="2.198" cy="2.198" r="2.198" transform="translate(802.765 1582.791)"/><circle cx="2.198" cy="2.198" r="2.198" transform="translate(812.105 1582.791)"/><circle cx="2.198" cy="2.198" r="2.198" transform="translate(756.067 1591.032)"/><circle cx="2.198" cy="2.198" r="2.198" transform="translate(765.407 1591.032)"/><circle cx="2.198" cy="2.198" r="2.198" transform="translate(774.747 1591.032)"/><circle cx="2.198" cy="2.198" r="2.198" transform="translate(784.086 1591.032)"/><circle cx="2.198" cy="2.198" r="2.198" transform="translate(793.426 1591.032)"/><circle cx="2.198" cy="2.198" r="2.198" transform="translate(802.765 1591.032)"/><circle cx="2.198" cy="2.198" r="2.198" transform="translate(812.105 1591.032)"/><circle cx="2.198" cy="2.198" r="2.198" transform="translate(756.067 1599.273)"/><circle cx="2.198" cy="2.198" r="2.198" transform="translate(765.407 1599.273)"/><circle cx="2.198" cy="2.198" r="2.198" transform="translate(774.747 1599.273)"/><circle cx="2.198" cy="2.198" r="2.198" transform="translate(784.086 1599.273)"/><circle cx="2.198" cy="2.198" r="2.198" transform="translate(793.426 1599.273)"/><circle cx="2.198" cy="2.198" r="2.198" transform="translate(802.765 1599.273)"/><circle cx="2.198" cy="2.198" r="2.198" transform="translate(812.105 1599.273)"/><circle cx="2.198" cy="2.198" r="2.198" transform="translate(756.067 1607.514)"/><circle cx="2.198" cy="2.198" r="2.198" transform="translate(765.407 1607.514)"/><circle cx="2.198" cy="2.198" r="2.198" transform="translate(774.747 1607.514)"/><circle cx="2.198" cy="2.198" r="2.198" transform="translate(784.086 1607.514)"/><circle cx="2.198" cy="2.198" r="2.198" transform="translate(793.426 1607.514)"/><circle cx="2.198" cy="2.198" r="2.198" transform="translate(802.765 1607.514)"/><circle cx="2.198" cy="2.198" r="2.198" transform="translate(812.105 1607.514)"/><circle cx="2.198" cy="2.198" r="2.198" transform="translate(756.067 1615.754)"/><circle cx="2.198" cy="2.198" r="2.198" transform="translate(765.407 1615.754)"/><circle cx="2.198" cy="2.198" r="2.198" transform="translate(774.747 1615.754)"/><circle cx="2.198" cy="2.198" r="2.198" transform="translate(784.086 1615.754)"/><circle cx="2.198" cy="2.198" r="2.198" transform="translate(793.426 1615.754)"/><circle cx="2.198" cy="2.198" r="2.198" transform="translate(802.765 1615.754)"/><circle cx="2.198" cy="2.198" r="2.198" transform="translate(812.105 1615.754)"/><circle cx="2.198" cy="2.198" r="2.198" transform="translate(756.067 1623.995)"/><circle cx="2.198" cy="2.198" r="2.198" transform="translate(765.407 1623.995)"/><circle cx="2.198" cy="2.198" r="2.198" transform="translate(774.747 1623.995)"/><circle cx="2.198" cy="2.198" r="2.198" transform="translate(784.086 1623.995)"/><circle cx="2.198" cy="2.198" r="2.198" transform="translate(793.426 1623.995)"/><circle cx="2.198" cy="2.198" r="2.198" transform="translate(802.765 1623.995)"/><circle cx="2.198" cy="2.198" r="2.198" transform="translate(812.105 1623.995)"/><path class="aa" d="M231.815,1205.967v205.775a.718.718,0,0,1-.6.709l-50.4,8-16,2.53-58.17,9.238a.718.718,0,0,1-.83-.709V1186.195a.716.716,0,0,1,.83-.708l58.17,9.238,16,2.53,50.4,8A.716.716,0,0,1,231.815,1205.967Z"/><g class="u"><g class="ab"><path class="ac" d="M169.035,1363.155c-3.334-.493-6.069-4.814-6.092-9.624s2.675-8.317,6.008-7.823,6.063,4.8,6.086,9.613-2.669,8.327-6,7.834m-.1-21.028c-4.7-.7-8.505,4.26-8.473,11.037s3.886,12.875,8.591,13.571,8.5-4.26,8.466-11.047-3.88-12.864-8.584-13.561"/><path class="ac" d="M135.472,1290.174a1.3,1.3,0,0,1-.879-.646,2.488,2.488,0,0,1-.382-1.311,1.994,1.994,0,0,1,.352-1.221c9-12.008,21.088-17.571,34.034-15.655s25.1,11.066,34.232,25.759a2.519,2.519,0,0,1,.358,1.326,1.945,1.945,0,0,1-.365,1.2.9.9,0,0,1-.863.37,1.315,1.315,0,0,1-.89-.656c-8.66-13.929-20.188-22.6-32.455-24.419s-23.728,3.457-32.268,14.84a.926.926,0,0,1-.874.413m33.108-22.413c-13.619-2.016-26.33,3.837-35.8,16.47a6.007,6.007,0,0,0-1.05,3.654,7.513,7.513,0,0,0,1.135,3.941,3.925,3.925,0,0,0,2.613,1.927l.043.006a2.766,2.766,0,0,0,2.61-1.224c8.073-10.767,18.9-15.75,30.5-14.033s22.491,9.914,30.672,23.087a3.976,3.976,0,0,0,2.668,2.005,2.73,2.73,0,0,0,2.6-1.146,5.89,5.89,0,0,0,1.1-3.62,7.542,7.542,0,0,0-1.08-3.969c-9.605-15.457-22.4-25.084-36.009-27.1"/><path class="ac" d="M145.039,1310.7a1.3,1.3,0,0,1-.866-.638,2.378,2.378,0,0,1-.037-2.533c6.485-8.732,15.214-12.78,24.579-11.394s18.139,8.024,24.723,18.691a2.383,2.383,0,0,1-.013,2.525.9.9,0,0,1-.859.367,1.32,1.32,0,0,1-.895-.661c-6.105-9.893-14.253-16.056-22.939-17.342s-16.787,2.473-22.806,10.571a.92.92,0,0,1-.887.414m23.659-18.146c-10.038-1.485-19.4,2.852-26.358,12.217-1.416,1.918-1.369,5.324.11,7.608a3.928,3.928,0,0,0,2.6,1.9,2.774,2.774,0,0,0,2.664-1.228c5.553-7.473,13.02-10.943,21.033-9.757s15.524,6.872,21.15,16a3.981,3.981,0,0,0,2.681,2.025,2.73,2.73,0,0,0,2.586-1.139c1.465-1.848,1.48-5.245.038-7.586-7.057-11.439-16.468-18.555-26.506-20.041"/><path class="ac" d="M153.863,1333.124a1.33,1.33,0,0,1-.891-.63,2.585,2.585,0,0,1-.389-1.3,2.047,2.047,0,0,1,.34-1.231c4.18-5.736,9.831-8.4,15.918-7.5s11.771,5.24,16.011,12.222a2.564,2.564,0,0,1,.346,1.333,1.916,1.916,0,0,1-.377,1.19.9.9,0,0,1-.852.355,1.326,1.326,0,0,1-.9-.668c-3.762-6.2-8.815-10.052-14.21-10.851s-10.419,1.564-14.127,6.657a.917.917,0,0,1-.868.424m14.961-14.242c-6.773-1-13.057,1.957-17.709,8.335a6.13,6.13,0,0,0-1.013,3.686,7.464,7.464,0,0,0,1.172,3.929,3.9,3.9,0,0,0,2.576,1.868l.086.013a2.79,2.79,0,0,0,2.6-1.272c3.242-4.45,7.625-6.516,12.342-5.818s9.118,4.064,12.408,9.473a4.038,4.038,0,0,0,2.7,2.064,2.73,2.73,0,0,0,2.568-1.107,5.807,5.807,0,0,0,1.13-3.588,7.584,7.584,0,0,0-1.049-3.992c-4.713-7.764-11.041-12.59-17.807-13.591"/></g></g><rect class="ad" width="17.343" height="20.14" transform="translate(550.185 1437.367)"/><rect class="f" width="183.573" height="112.651" rx="4.476" transform="translate(464.884 1325.475)"/><path class="g" d="M517.123,1462.032v-3.453c0-1.915,17.712-3.463,39.547-3.463s39.545,1.548,39.545,3.463v3.453Z"/><rect class="g" width="32.969" height="4.098" transform="translate(541.87 1430.46)"/><rect class="g" width="183.502" height="100.702" rx="4.476" transform="translate(464.884 1325.475)"/><path class="ae" d="M582.864,1387.521a10.2,10.2,0,0,0,1.291-4.557c.007-.147.011-.292.011-.434h0a10.522,10.522,0,0,0-10.634-10.407H539.146a10.52,10.52,0,0,0-10.633,10.406v0h0v0a10.521,10.521,0,0,0,10.633,10.4h23.629v10.06c0,2.045,2.138,2.216,3.537.817,1.34-1.34,11.3-10.561,14.6-13.8.111-.106.22-.213.327-.323l.072-.072c.019-.019.037-.041.057-.061s.034-.036.051-.054A9.177,9.177,0,0,0,582.864,1387.521Zm-31.033-4.894a4.509,4.509,0,1,1,4.509,4.509A4.509,4.509,0,0,1,551.831,1382.627Zm13.356,0a4.508,4.508,0,1,1,4.508,4.509A4.508,4.508,0,0,1,565.187,1382.627Zm-26.713,0a4.509,4.509,0,1,1,4.508,4.509A4.509,4.509,0,0,1,538.474,1382.627Z"/><path class="l" d="M517.14,1351.2a5.9,5.9,0,0,0-3.765,1.393c-.426-4.676-3.8-8.317-7.906-8.317-3.624,0-6.682,2.842-7.639,6.729a4.285,4.285,0,0,0-2.135-.575c-2.7,0-4.887,2.564-4.887,5.727,0,.034,0,.068,0,.1a3.865,3.865,0,0,0-.877-.1c-2.458,0-4.449,2.335-4.449,5.214s1.991,5.214,4.449,5.214h12.8v-8.217h-2.19l5.732-8.792,5.733,8.792h-2.189v8.217h7.325c3.626,0,6.565-3.444,6.565-7.692S520.766,1351.2,517.14,1351.2Z"/><path class="af" d="M655.686,1421.683h-42.83a4.234,4.234,0,0,0-4.221,4.222v42.83a4.233,4.233,0,0,0,4.221,4.221h42.83a4.233,4.233,0,0,0,4.221-4.221v-42.83A4.234,4.234,0,0,0,655.686,1421.683Zm-21.415,41.769A16.133,16.133,0,1,1,650.4,1447.32,16.133,16.133,0,0,1,634.271,1463.452Z"/><path class="af" d="M643.137,1445.961l-12.355-7.134c-1.295-.748-2.354-.136-2.354,1.359v14.267c0,1.495,1.059,2.106,2.354,1.359l12.355-7.133C644.431,1447.932,644.431,1446.709,643.137,1445.961Z"/><path class="ae" d="M501.9,1414.721H474.666a2.691,2.691,0,0,0-2.683,2.684v27.231a2.69,2.69,0,0,0,2.683,2.683H501.9a2.691,2.691,0,0,0,2.684-2.683v-27.231A2.692,2.692,0,0,0,501.9,1414.721Zm-24.62,31.447h-2.619v-2.844h2.619Zm0-4.576h-2.619v-2.843h2.619Zm0-4.574h-2.619v-2.844h2.619Zm0-4.576h-2.619V1429.6h2.619Zm0-4.575h-2.619v-2.845h2.619Zm0-4.576h-2.619v-2.843h2.619Zm0-4.575h-2.619v-2.844h2.619Zm1.98-3.13h18.05v13.042h-18.05Zm18.05,30.869h-18.05v-13.042h18.05Zm4.6-.287h-2.62v-2.844h2.62Zm0-4.576h-2.62v-2.843h2.62Zm0-4.574h-2.62v-2.844h2.62Zm0-4.576h-2.62V1429.6h2.62Zm0-4.575h-2.62v-2.845h2.62Zm0-4.576h-2.62v-2.843h2.62Zm0-4.575h-2.62v-2.844h2.62Z"/><path class="l" d="M658.16,1343.5h-4.838v12.814H635.671l-3.127-3.634v-9.18H627.71a1.513,1.513,0,0,0-1.508,1.51v29.578a1.513,1.513,0,0,0,1.508,1.511h30.45a1.513,1.513,0,0,0,1.51-1.511v-29.578A1.513,1.513,0,0,0,658.16,1343.5Zm-2.58,27.34a1,1,0,0,1-1.005,1.007H630.823a1.008,1.008,0,0,1-1.009-1.007v-10.813a1.008,1.008,0,0,1,1.009-1.005h23.752a1,1,0,0,1,1.005,1.005Z"/><rect class="l" width="13.34" height="1.444" transform="translate(636.265 1344.812)"/><rect class="l" width="13.34" height="1.441" transform="translate(636.265 1346.678)"/><path class="af" d="M581.777,1316.508a1.851,1.851,0,0,0-1.43-.646H553.616a2.411,2.411,0,0,0-2.31,1.953l-.014.077h-6.787a1.855,1.855,0,0,0-1.431.647,1.89,1.89,0,0,0-.392,1.55l3.479,19.729a2.414,2.414,0,0,0,2.311,1.957h27.9a1.854,1.854,0,0,0,1.43-.647,1.808,1.808,0,0,0,.4-.893l.011,0,3.955-22.178A1.893,1.893,0,0,0,581.777,1316.508Zm-5.034,23.73a.46.46,0,0,1-.369.152h-27.9a1.033,1.033,0,0,1-.947-.812l-3.479-19.729a.5.5,0,0,1,.089-.42.461.461,0,0,1,.37-.152h8.04a1.034,1.034,0,0,1,.947.812l.149.847a2.413,2.413,0,0,0,2.311,1.956h17.092a1.035,1.035,0,0,1,.947.813l2.841,16.113A.5.5,0,0,1,576.743,1340.238Zm4.063-22.421-3.241,18.178-2.21-12.53a2.412,2.412,0,0,0-2.311-1.957H555.952a1.035,1.035,0,0,1-.947-.813l-.149-.846a2.421,2.421,0,0,0-2.142-1.949,1.04,1.04,0,0,1,.9-.654h26.731a.463.463,0,0,1,.369.152A.506.506,0,0,1,580.806,1317.817Z"/></g></svg>