<svg xmlns="http://www.w3.org/2000/svg" xmlns:xlink="http://www.w3.org/1999/xlink" width="621" height="305.842" viewBox="0 0 621 305.842"><defs><style>.a{fill:none;}.b{fill:#b6d7db;opacity:0.49;}.c{clip-path:url(#a);}.d{fill:#d19442;}.e,.i{fill:#d8a35d;}.f{fill:#ffc84f;}.g{fill:#947dce;}.h{opacity:0.15;}.i{fill-rule:evenodd;}</style><clipPath id="a"><path class="a" d="M946.437,693.78c70.833,21.891,112.289,34.7,174.329,36.427,83.548,2.318,162.273,4.5,206.852-44.233,22.258-24.334,32.751-57.8,74.156-76.757,13.164-6.025,26.968-9.446,36.427-23.418,15.36-22.686,5.979-53.577,3.9-59.843-15.354-46.348-68.39-65.876-101.475-78.059-36.5-13.44-103.091-37.959-162.62-9.106-52.156,25.278-62.72,74-102.776,71.553-20.863-1.275-23.705-14.84-50.737-27.32-42.8-19.762-112.878-21.393-157.417,20.815-33.978,32.2-53.606,90.4-32.524,131.4C839.783,645.4,852.827,664.848,946.437,693.78Z" transform="translate(-825.839 -425.337)"/></clipPath></defs><g transform="translate(-825.839 -425.337)"><path class="b" d="M946.437,693.78c70.833,21.891,112.289,34.7,174.329,36.427,83.548,2.318,162.273,4.5,206.852-44.233,22.258-24.334,32.751-57.8,74.156-76.757,13.164-6.025,26.968-9.446,36.427-23.418,15.36-22.686,5.979-53.577,3.9-59.843-15.354-46.348-68.39-65.876-101.475-78.059-36.5-13.44-103.091-37.959-162.62-9.106-52.156,25.278-62.72,74-102.776,71.553-20.863-1.275-23.705-14.84-50.737-27.32-42.8-19.762-112.878-21.393-157.417,20.815-33.978,32.2-53.606,90.4-32.524,131.4C839.783,645.4,852.827,664.848,946.437,693.78Z"/><g transform="translate(825.839 425.337)"><g class="c"><g transform="translate(133.352 77.264)"><path class="d" d="M1030.633,513.166s-1.463,16.326,8.606,25.353c6.538,5.861-9.317,31.715-19.455,30.3-5.477-.767-7.479-28.5-7.479-28.5s9.92-17.43,8.53-27.146S1030.633,513.166,1030.633,513.166Z" transform="translate(-856.092 -456.428)"/><ellipse class="e" cx="17.605" cy="24.019" rx="17.605" ry="24.019" transform="translate(151.625 15.029)"/><g transform="translate(146.904)"><g transform="translate(3.715 6.697)"><path class="f" d="M1018.287,498.023s30.479,16.9,21.433-10.232C1033.46,469.02,997.5,485.928,1018.287,498.023Z" transform="translate(-1006.943 -479.404)"/><path class="f" d="M1024.466,491.11s-17.052,10.119-15.408,20.268c0,0-3.76-30.3,13.2-31.066s23.52.874,22.014,32.92C1044.267,513.233,1039.342,487.742,1024.466,491.11Z" transform="translate(-1008.703 -478.973)"/></g><path class="f" d="M1016.953,483.326s.857-9.442,10.217-8.1,13.372,6.685,14.709,12.035,2.674,9.359,4.011,9.359c0,0-4.011,4.013-5.348,2.676,0,0,3.471,9.616-.939,17.511,0,0-1.734-12.162-8.42-13.5S1016.953,483.326,1016.953,483.326Z" transform="translate(-1000.427 -475.091)"/><path class="f" d="M1023.694,480.646s-6.687-4.013-13.372,5.348l-4.011,8.022s1.337,1.337,4.011,0c0,0-1.219,9.422.059,14.74l3.952-16.077Z" transform="translate(-1006.311 -472.493)"/></g><path class="g" d="M1155.368,657.058c-16.876.915-24.671-23.19-24.826-21-.829,11.723.525,26.441-7.951,34.259-19.2,17.708-58.425,21.4-92.261,12.195-18.432-5.014-31.585-25.879-23.379-43.129.124-.262,3.6.017,3.718-.222-3.761,5.6-14.776,17.035-29.193,16.969-.188-.144-.363-.3-.55-.455-9.852-8.195-20.584-18.689-26-28.572-12.628-23.009,8.37-50.016,10.244-53.766,1.876-3.728,3.8-7.2,5.813-10.442a1.876,1.876,0,0,1,.165-.27c1.513-2.455,3.087-4.775,4.694-6.971a80.783,80.783,0,0,1,34.538-27.421c16.481-7.077,36.217-11.251,40.236-3.471l.031.062c.932,1.843.849,4.041.787,6.205q-.03.822-.031,1.615c0,2.062.249,3.99,1.668,5.418,2.569,2.559,7.263,1.907,10.308-.579,3.522-2.859,5.139-8.412,3.937-13.872a92.033,92.033,0,0,1,35.5-.04c1.71.331,3.451.735,5.232,1.191,9.51,2.475,32.187,8.37,48.244,25.888a58.4,58.4,0,0,1,3.937,4.724c.114.133.208.268.312.4a.4.4,0,0,1,.051.082,64.345,64.345,0,0,1,10.266,20.947q.7,2.392,1.211,4.879C1176.8,603.838,1176.5,655.912,1155.368,657.058Z" transform="translate(-890.042 -449.942)"/><path class="h" d="M1084.975,614.5c.248-.944-2.879-3.575-3.449-4.218A41.37,41.37,0,0,1,1077,604.1c-3.6-6.07-5.6-13.24-4.682-20.3.974-7.522,4.963-14.163,8.008-20.969a42.986,42.986,0,0,0,3.511-10.711c.643-3.937,1.078-7.46,3.823-10.672a6.477,6.477,0,0,1,1.626-1.5,62.642,62.642,0,0,1,4.247,5.128.354.354,0,0,1,.053.084,64.693,64.693,0,0,1,5.1,15.809c.31,1.637.559,3.294.745,4.982Z" transform="translate(-823.036 -439.235)"/><path class="i" d="M936.026,530.179s-3.1-7.783-8.743-11.13c-3.356-1.989-2.91-2.856-3.412-3.37-1.666-1.7-1.216,2.842,1.435,5.027,2.155,1.775,1.839,6.549,2.963,8.041s4.909,4.918,6.25,4.783S936.026,530.179,936.026,530.179Z" transform="translate(-905.529 -452.857)"/><path class="i" d="M955.332,543.2c-.958-.815-9.827-12.5-15.924-15.628s-15.459-7.2-18.354-9.439c-3.406-2.638-4.991-1.5-1.241,1.971,2.438,2.255,7.653,6.328,8.938,6.906.623.281-3.28-1.932-7.39-4.662-4.37-2.9-9-6.323-9.578-5.569-1.121,1.461,11.122,10.679,13.437,11.912a65.859,65.859,0,0,1-6.067-3.334c-2.673-1.668-5.563-4.011-6.451-3.674-1.4.53,4.727,6.3,10.4,9.552.026.238-2.037-.239-8.519-4.548-.651-.433-2.586-.849-.691,1.161,3.988,4.232,5.392,6.347,12.4,9.42,6.834,3,15.048,4.642,19.355,8.311Z" transform="translate(-911.711 -452.1)"/><path class="g" d="M1017.729,628.748c-.217,6.278-1.938,11.852-5.915,15.933a17.42,17.42,0,0,1-1.658,1.492c-4.205,3.4-9.634,4.775-15.093,5.086a49.123,49.123,0,0,1-5.107,0,72.274,72.274,0,0,1-18.388-3.635c-34.746-12.391-42.589-56.532-43.5-62.127a92.277,92.277,0,0,1,1.492-36.361c1.429-2.786-3.233-8.6-3.233-8.6l7.583-4.309,8.993-5.1,3.065-1.741s8.361,5.232,7.647,6.258A119.049,119.049,0,0,1,982.6,555.682c.714.663,1.43,1.357,2.133,2.072a106.232,106.232,0,0,1,13.862,16.939l.031.04c.425.643.84,1.3,1.255,1.958a146.06,146.06,0,0,1,9.592,18.295C1014.217,605.823,1018.081,618.275,1017.729,628.748Z" transform="translate(-903.63 -445.069)"/><path class="i" d="M1127.934,523.547s2.711-7.924,8.185-11.544c3.253-2.152,2.766-3,3.241-3.534,1.581-1.784,1.356,2.778-1.185,5.09-2.065,1.879-1.514,6.633-2.564,8.178s-4.661,5.154-6.007,5.084S1127.934,523.547,1127.934,523.547Z" transform="translate(-792.16 -456.861)"/><path class="i" d="M1119.931,537.506c.916-.862,9.2-12.97,15.135-16.394s15.085-7.948,17.866-10.33c3.272-2.8,4.912-1.745,1.335,1.905-2.323,2.374-7.331,6.7-8.586,7.339-.609.311,3.181-2.09,7.151-5.021,4.222-3.114,8.678-6.758,9.292-6.035,1.191,1.405-10.583,11.215-12.835,12.561a65.524,65.524,0,0,0,5.9-3.629c2.587-1.8,5.357-4.281,6.261-3.988,1.424.461-4.412,6.53-9.92,10.053-.014.238,2.024-.34,8.285-4.963.629-.464,2.541-.977.747,1.126-3.775,4.424-5.072,6.6-11.922,10.019-6.679,3.329-14.8,5.376-18.924,9.254Z" transform="translate(-796.585 -456.411)"/><path class="g" d="M1164,540.45a36.031,36.031,0,0,1,5.911-9.077l-21.407-11.9s-4.143,6.289-3.537,7.373c-11.889,4.5-36.849,12.434-53.63,34.193-11.608,15.051-34.639,59.518-21.255,76.26,10.96,13.709,6.8,22.241,27.634,18.719,36.379-6.148,62.787-73.748,64.238-79.231A92.212,92.212,0,0,0,1164,540.45Z" transform="translate(-826.391 -450.554)"/><path class="g" d="M1103.959,626.293a48.231,48.231,0,0,1-9.055,8.65,625.778,625.778,0,0,0-68.631-11.085c-26.086-2.776-33.564-2.1-45.157-2.641-5.76-13.819-2.435-29.7,3.2-43.458,10.153-24.791,38.31-30.375,50.234-32.737,8.754-1.739,49.81-9.872,69.979,18.057C1117.323,580.814,1118.3,608.371,1103.959,626.293Z" transform="translate(-874.999 -437.775)"/><path class="h" d="M1067.529,523.114c-2.109,2.507-7.763,5.946-10.794,5.822-3.679-.144-9.334,3.615-15,7.086s-12.578,13-21.629,9.106-3.963-14.556-3.963-14.556h.009c-.092,2.642-.161,5.232,1.632,7.035,2.564,2.559,7.268,1.905,10.308-.581,3.527-2.859,5.139-8.412,3.932-13.871A92.048,92.048,0,0,1,1067.529,523.114Z" transform="translate(-854.758 -449.485)"/></g></g></g></g></svg>