<svg xmlns="http://www.w3.org/2000/svg" width="465" height="380.614" viewBox="0 0 465 380.614"><defs><style>.a{fill:#497b90;}.b{fill:#89a527;opacity:0.86;}.c{fill:#cbdf7d;opacity:0.85;}.d{fill:#b3d336;opacity:0.6;}.e{fill:#fff;opacity:0.2;}.f{opacity:0.1;}.g{fill:#ffc84f;}.h{fill:#46798f;}.i,.k{fill:#d8a35d;}.i{fill-rule:evenodd;}.j{fill:#947dce;}.l{fill:#62548a;}.m{opacity:0.3;}.n{opacity:0.5;}.o{fill:none;stroke:#947dce;stroke-miterlimit:10;stroke-width:0.793px;}.p{fill:#d19442;}.q{opacity:0.15;}.r{fill:#999;}.s{fill:#ccc;}.t{fill:gray;}</style></defs><g transform="translate(-789.35 -254.777)"><g transform="translate(789.35 254.777)"><g transform="translate(63.879 68.376)"><path class="a" d="M1095.792,441.69c0,2.74-.1,5.443-.254,8.144v.019c-.2,2.839-.49,5.657-.862,8.437a123.422,123.422,0,0,1-12.725,40.27,118.782,118.782,0,0,1-7.38,12.352c-.881,1.351-1.821,2.662-2.78,3.974-1.879,2.545-3.837,5.031-5.912,7.42a120.276,120.276,0,0,1-9.4,9.809,122.086,122.086,0,0,1-15.368,12.216,123.666,123.666,0,0,1-10.943,6.6h-.019a123.74,123.74,0,0,1-93.676,9.2,121.743,121.743,0,0,1-27.819-12.274c-.763-.45-1.508-.9-2.252-1.37-2.134-1.331-4.209-2.74-6.244-4.209-1.292-.92-2.565-1.86-3.817-2.858h-.021q-4.433-3.436-8.515-7.243a122.532,122.532,0,0,1-8.751-9.005c-2.017-2.271-3.935-4.64-5.736-7.068-1.938-2.525-3.74-5.148-5.462-7.831-1.39-2.173-2.721-4.385-3.934-6.636a118.392,118.392,0,0,1-7.557-16.21,123.274,123.274,0,0,1-7.871-39.252c-.019-.294-.019-.568-.019-.862-.039-1.194-.058-2.408-.058-3.622,0-1.488.019-3,.078-4.463,0-.236.021-.451.04-.686v-.019c.1-2.585.274-5.11.528-7.654.255-2.486.588-4.953,1-7.381a120.971,120.971,0,0,1,4.4-18.109A122.427,122.427,0,0,1,865.2,379.455c1.86-3.19,3.856-6.3,6.011-9.3,1.194-1.723,2.446-3.387,3.738-5.032,1.527-1.918,3.093-3.8,4.757-5.637A123.274,123.274,0,0,1,895.09,344.9c.959-.763,1.938-1.527,2.936-2.271,1.135-.841,2.271-1.684,3.445-2.486.96-.665,1.9-1.312,2.879-1.938.353-.235.685-.469,1.037-.686.92-.587,1.841-1.155,2.78-1.722h.019c1-.627,2-1.214,3.015-1.782.979-.568,1.977-1.116,2.975-1.644l.118-.059c1.037-.548,2.095-1.076,3.151-1.6.98-.49,1.978-.959,3-1.43,1.194-.548,2.408-1.1,3.641-1.6.979-.411,1.978-.823,2.976-1.214l.176-.058c1.1-.43,2.173-.841,3.289-1.233a.148.148,0,0,1,.078-.039c1.077-.372,2.193-.744,3.289-1.116h.021c1.351-.431,2.7-.862,4.091-1.253.822-.235,1.664-.47,2.506-.686q1.264-.352,2.526-.646,2.7-.646,5.461-1.174c.744-.157,1.508-.294,2.251-.411.881-.157,1.742-.294,2.624-.43.861-.137,1.742-.255,2.624-.372s1.762-.216,2.642-.314c.843-.1,1.684-.176,2.546-.235,3.6-.333,7.243-.49,10.924-.49,1.39,0,2.78.019,4.17.079,1.331.039,2.663.1,3.974.2,1.272.078,2.525.175,3.779.293.568.058,1.115.1,1.663.176.236.02.47.039.686.078,1.9.216,3.778.47,5.639.783.45.059.9.137,1.331.216a.876.876,0,0,1,.2.039c1,.157,2,.353,2.994.548.04.019.1.019.137.039,2.6.529,5.188,1.135,7.733,1.82,1.291.353,2.564.705,3.837,1.1s2.545.8,3.8,1.234c1.252.411,2.486.861,3.719,1.331,1.116.411,2.213.861,3.309,1.312.959.391,1.918.8,2.878,1.213.685.294,1.351.607,2.016.92a1.714,1.714,0,0,1,.333.156c.744.333,1.488.686,2.213,1.058.587.275,1.155.568,1.723.862,1.136.567,2.271,1.174,3.386,1.8a8.317,8.317,0,0,1,.8.45c.528.275,1.037.568,1.566.881.646.372,1.292.744,1.938,1.155.646.372,1.273.783,1.918,1.174.626.391,1.273.783,1.9,1.214.626.411,1.234.822,1.86,1.252q3.758,2.526,7.321,5.384h.019c.862.685,1.7,1.37,2.525,2.074.685.568,1.352,1.135,2.017,1.723.686.587,1.351,1.2,2.017,1.8.763.685,1.507,1.37,2.232,2.095.88.822,1.742,1.684,2.584,2.545.509.529,1.037,1.058,1.527,1.606.176.176.352.352.509.528a.579.579,0,0,1,.176.2c.607.647,1.213,1.292,1.781,1.958a7.217,7.217,0,0,1,.529.587c.548.626,1.1,1.252,1.624,1.879a.019.019,0,0,1,.019.019c.548.607,1.058,1.213,1.527,1.84.451.548.9,1.1,1.331,1.645.627.783,1.234,1.585,1.841,2.408.763,1.018,1.527,2.035,2.251,3.093.568.8,1.136,1.644,1.684,2.467q1.321,2,2.583,4.052a120.55,120.55,0,0,1,9.984,20.3c.118.293.216.587.333.88v.019c1.174,3.133,2.213,6.3,3.133,9.534a120.061,120.061,0,0,1,3.543,17.228c.2,1.39.353,2.779.49,4.189.353,3.484.548,6.988.568,10.552C1095.792,440.555,1095.792,441.123,1095.792,441.69Z" transform="translate(-848.419 -318.004)"/><path class="b" d="M926.162,497.212c.255,3.6-.8,7.792-4.072,9.3-1.82.823-4.112.725-5.579,2.095-2.6,2.467-.47,7.557-3.073,10.024a13.364,13.364,0,0,1-3.309,1.742c-5.853,2.956-5.7,11.57-2.975,17.541.1.215.2.411.293.626-.763-.45-1.508-.9-2.251-1.37-2.134-1.331-4.209-2.74-6.244-4.209-1.292-.92-2.565-1.86-3.818-2.858h-.021c-6.754-18.128-13.117-36.628-24.666-52.055-3.034-4.033-6.519-8.144-7.087-13.156-.391-3.544.783-7.088.841-10.669.039-2.467-.136-5.071-.176-7.557a31.838,31.838,0,0,1,.215-4.8c.608-4.307,2.624-7.811,8.5-9.142,8.105-1.841,18.754,4.874,23.316,10.983,5.09,6.832,7.5,16.5,15.29,19.929,5.579,2.447,13.508,1.566,16.229,7.028,2.427,4.895-1.8,10.4-2.447,15.818C924.714,490.067,925.888,493.63,926.162,497.212Z" transform="translate(-847.209 -308.687)"/><path class="c" d="M965.67,403.608c-1.028-4.281-7.985-2.674-10.206,1.128s-2.692,8.837-6.216,11.477c-2.688,2.014-6.629,2.134-8.825,4.674-1.545,1.788-1.81,4.314-2.005,6.668q-.558,6.751-1.117,13.5c-.3,3.629-.549,7.513,1.247,10.681s6.492,4.928,9.181,2.472c1.238-1.13,1.76-2.838,2.769-4.174a7.02,7.02,0,0,1,7.222-2.492,12.2,12.2,0,0,1,5.5,3.869c12.586,13.551,17.094,32.845,17.649,51.331.1,3.383.1,6.861,1.348,10.008,1.46,3.689,4.535,6.67,5.439,10.532.694,2.966.041,6.229,1.314,9,2.345,5.1,10.169,5.313,14.429,1.663s5.738-9.543,6.6-15.087,1.424-11.385,4.527-16.059c1.924-2.9,4.756-5.219,6.1-8.429,1.882-4.485.487-9.8,2.235-14.342,2.321-6.025,9.174-8.69,14.055-12.914s6.855-13.772.788-15.979c-2.295-.835-4.94-.162-7.217-1.045-2.971-1.152-4.358-4.487-5.432-7.487q-4.228-11.812-8.456-23.627c-1.7-4.744-4.275-10.243-9.266-10.942-2.827-.395-5.57.954-8.378,1.464C989.286,411.256,973.027,387.862,965.67,403.608Z" transform="translate(-841.199 -311.479)"/><path class="d" d="M869.366,446.192a1.271,1.271,0,0,1-.391.979,1.736,1.736,0,0,1-1.213.333c-.842.019-1.684.019-2.526-.019a33.987,33.987,0,0,1-6.284-.881,1.88,1.88,0,0,1-1.155-.587,2.3,2.3,0,0,1-.254-1.312c-.157-2.779-2.839-4.62-5.247-6.009a20.942,20.942,0,0,0-3.817-1.88c-.039-1.194-.058-2.408-.058-3.622,0-1.488.019-3,.078-4.463,0-.236.021-.451.04-.686v-.019a10.694,10.694,0,0,0,1-.94c1.233-1.273,3.72-6.656,5.951-4.013a2,2,0,0,1,.039,2.447c-.685.88-2.056,1.076-2.583,2.035-.647,1.135.254,2.546,1.312,3.29,1.057.764,2.349,1.233,3.093,2.31,1.429,2.056.058,5.168,1.449,7.263,1.194,1.8,3.739,1.918,5.912,2.153.254.039.489.079.743.118C867.428,443.119,869.444,444.274,869.366,446.192Z" transform="translate(-848.419 -309.507)"/><path class="d" d="M917.441,370.644c.411,2.917-3.328,4.424-6.245,4.874-2.643.411-5.286.823-7.929,1.253a7.324,7.324,0,0,0-3.289,1.058A2.566,2.566,0,0,0,899,380.9a7.773,7.773,0,0,0,1.37,1.409c2.193,2.193.391,6.715-2.7,6.813-1.057.039-2.095-.353-3.151-.391-3.133-.137-5.619,2.624-7.107,5.383s-2.6,5.912-5.109,7.792c-4.034,3.034-10.983,2.329-12.94,6.989-.783,1.878-.372,3.993-.06,6.01.314,2,.451,4.228-.723,5.893-1.156,1.645-4.17,2-5.032.157a4.524,4.524,0,0,1-.117-2.6c.469-2.9.919-5.794,1.37-8.691.332-2.154.626-4.561-.647-6.324-1.781-2.467-5.775-2.231-8.085-.254-2.291,1.977-3.25,5.071-3.9,8.026a34.84,34.84,0,0,1-2.231,7.792,120.978,120.978,0,0,1,4.4-18.109,122.423,122.423,0,0,1,10.728-23.923c1.86-3.19,3.856-6.3,6.011-9.3.313-.04.626-.079.94-.1,1.762-.137,3.622-.078,5.207-.841,1.469-.725,2.506-2.036,3.837-2.976,3.406-2.428,8.986-2.878,9.906-6.949.314-1.37-.058-2.858.45-4.17.959-2.447,4.229-2.8,6.852-2.761,1.116,0,2.428.157,2.937,1.135a2.8,2.8,0,0,1-.118,2.271,21.275,21.275,0,0,1-8.986,11.041c-3.406,2.075-7.85,3.68-8.79,7.557.469,1.312,2.858,1.213,3.054,2.583.136,1.1-1.273,1.664-1.782,2.643-.743,1.43.96,3.172,2.584,3.093s2.976-1.252,4.17-2.349c3.563-3.308,7.3-6.871,8.594-11.57.548-1.938.744-4.209,2.31-5.5a3.828,3.828,0,0,1,5.815,1.859c1.546-.861,3.954-1.508,4.757.1a8.222,8.222,0,0,1,.332,1.84C913.662,366.983,917.088,368.119,917.441,370.644Z" transform="translate(-848.295 -315.417)"/><path class="d" d="M929.7,333.222c-1.977-.127-4.033-.669-5.885.031s-2.994,3.478-1.4,4.653c.887.653,2.144.471,3.145.935,1.848.856,2.033,3.531,1.131,5.359s-2.528,3.192-3.595,4.929a9.341,9.341,0,0,0-1.331,5.667,5.168,5.168,0,0,0,1.678,3.641c2.232,1.781,5.625.255,7.515-1.885s3.193-4.905,5.645-6.371a14.073,14.073,0,0,1,4.02-1.4l9.351-2.223c1.487-.354,3.1-.783,4.023-2,1.169-1.535.827-3.74,1.585-5.513,1.26-2.946,5.175-4,6.531-6.9.522-1.117.652-2.481,1.563-3.311.76-.692,1.886-.832,2.7-1.456,1.824-1.4,1.067-4.576-.868-5.812-4.852-3.1-13.783.483-17.974,3.517C942.144,328.984,936.871,333.68,929.7,333.222Z" transform="translate(-842.455 -317.811)"/><path class="d" d="M1083.317,434.31c0,2.589-.092,5.14-.24,7.691v.018a6.726,6.726,0,0,1-4.7,2.089c-2.81-.037-5.121-2.385-6.249-4.974-1.146-2.588-1.4-5.454-2.163-8.171-.407-1.461-1.091-3.014-2.459-3.661a22.008,22.008,0,0,0-2.939-.666c-3.457-1.035-4.4-5.86-7.673-7.358a11.14,11.14,0,0,0-3.291-.685c-4.382-.517-8.912-2.033-11.667-5.472a21.385,21.385,0,0,0-2.7-3.328c-1.128-.906-2.866-1.294-3.956-.37.923,1.849,1.83,3.7,2.736,5.528a14.549,14.549,0,0,0,3.069,4.6,4.953,4.953,0,0,0,5.157,1.108,3.411,3.411,0,0,1,1.739-.61,1.873,1.873,0,0,1,1.127.721c2.386,2.644,1.609,7.025-.72,9.724-2.311,2.681-5.75,4.087-9.059,5.4a7.024,7.024,0,0,1-3.7.721c-2.293-.425-3.514-2.921-4.179-5.158-1.5-4.954-2.219-10.334-5.288-14.513a18.178,18.178,0,0,1-2.791-4.049c-.629-1.664-.481-3.605-1.479-5.065-1.035-1.535-3.236-2.422-3.383-4.271a3.373,3.373,0,0,1,2.163-3c1.183-.573,2.514-.74,3.734-1.238.481-.2,1.018-.555,1.036-1.073,0-.776-1.073-1.091-1.351-1.811-.3-.814.536-1.572.888-2.367.758-1.811-1.128-3.642-2.958-4.382-1.812-.739-4.012-1.275-4.862-3.05a10.475,10.475,0,0,1-.592-2.644c-.426-2.237-2.071-4.4-4.327-4.77-2.274-.37-4.789,1.646-4.419,3.9.222,1.239,1.146,2.2,1.646,3.347.517,1.146.37,2.846-.814,3.216-1.941.593-3.808-2.958-5.435-1.738.666,2.274,1.313,4.548,1.978,6.841-2.551,1.294-5.6-1.054-6.692-3.716-1.091-2.644-1.128-5.676-2.423-8.228-1.294-2.57-4.789-4.474-7.007-2.663-.111,3.291,4.234,4.622,6.157,7.285,1.386,1.923,1.183,5.047-.87,6.267-2.033,1.221-5.269-.905-4.492-3.143.277-.776.925-1.423,1-2.256.074-1.035-.795-1.867-1.59-2.533-1.239-1.053-2.478-2.089-3.716-3.124a7.829,7.829,0,0,0-2.644-1.664c-2.552-.739-5.1,1.331-6.453,3.605-1.35,2.293-2.108,4.974-3.974,6.878-2.681,2.773-7.766,2.939-10.28.037-2.533-2.9-1.238-8.338,2.478-9.392,1.4-.388,3.18-.35,3.919-1.59,1.294-2.2-2.4-5.01-1.127-7.229.98-1.7,3.568-.924,5.454-1.5,1.868-.573,2.921-2.459,4.03-4.086,1.091-1.609,2.811-3.236,4.732-2.811a5.936,5.936,0,0,1,.2-3.364c.5-1.036,1.9-1.7,2.829-1.036-.943,1.553.185,3.716,1.831,4.492s3.568.593,5.38.388c1.811-.222,4.086-.887,4.234-2.7.055-.593-.166-1.221.055-1.776.795-2.163,4.789.813,6.323-.925.887-.905-.093-2.514-1.331-2.81-1.22-.315-2.5.148-3.754.185-1.257.055-2.791-.61-2.847-1.868-.055-1.238,1.332-2.126,1.479-3.346.241-2.071-3.272-2.607-4.511-.925-1.221,1.683-.795,3.994-.425,6.045.388,2.053.572,4.475-.943,5.917-.648.98-2.329.462-2.884-.573a8.326,8.326,0,0,1-.536-3.457c-.093-1.183-.61-2.514-1.756-2.829a6.266,6.266,0,0,0-2.459.278c-3.217.388-5.454-3.772-4.437-6.841,1-3.088,3.919-5.065,6.748-6.637,2.071-1.146,4.64-2.219,6.693-1.054.962.536,1.627,1.461,2.57,2.016,1.626.961,3.642.61,5.51.647a12.825,12.825,0,0,1,8.042,3.125c.833.757,1.609,2.015.963,2.921-.7.961-2.719,1.165-2.367,2.292a4.007,4.007,0,0,0,5.029-3.235,3.361,3.361,0,0,1,1.941,2.736,5.985,5.985,0,0,1,8.782.721,7.588,7.588,0,0,0,1.627,2.089c.74.48,2.034.24,2.126-.629a1.764,1.764,0,0,0-.147-.813c-.444-1.258-.906-2.5-1.35-3.734,1.719-.925,3.753.517,4.917,2.07,4.327,5.787,7.414,2.311,13.515,3.254,4.124.629,5.935,3.272,8.264,6.471,7.136,9.836,16.565,17.9,23.055,28.176.685,1.073,1.313,2.163,1.9,3.272.018,0,0,.018,0,.018,1.109,2.959,2.089,5.953,2.958,9a113.313,113.313,0,0,1,3.347,16.27c.184,1.312.332,2.625.462,3.956.333,3.291.518,6.6.536,9.965C1083.317,433.237,1083.317,433.773,1083.317,434.31Z" transform="translate(-839.259 -316.082)"/><path class="e" d="M922.03,552.538c-2.134-1.331-4.209-2.74-6.245-4.209a124.9,124.9,0,0,1-21.1-19.107c-2.017-2.271-3.935-4.64-5.737-7.067-1.938-2.526-3.739-5.149-5.461-7.831-1.39-2.174-2.722-4.386-3.935-6.637a118.572,118.572,0,0,1-7.556-16.21,123.274,123.274,0,0,1-7.871-39.252c-.058-1.488-.078-2.976-.078-4.484,0-1.488.02-2.994.078-4.463.1-2.819.294-5.6.568-8.359a123.1,123.1,0,0,1,16.132-49.412,125.435,125.435,0,0,1,9.749-14.331c1.527-1.918,3.093-3.8,4.757-5.638a123.361,123.361,0,0,1,15.388-14.585c.959-.763,1.938-1.527,2.936-2.271,1.135-.841,2.271-1.683,3.445-2.486.959-.665,1.9-1.311,2.878-1.938.353-.235.686-.469,1.038-.685.92-.588,1.84-1.156,2.779-1.723h.019c1-.627,2-1.214,3.015-1.782.98-.568,1.978-1.116,2.976-1.644l.117-.059c1.038-.548,2.095-1.076,3.152-1.6.979-.49,1.977-.959,3-1.43,1.194-.547,2.407-1.1,3.641-1.6.979-.411,1.977-.822,2.975-1.214l.176-.058c1.1-.43,2.174-.841,3.29-1.233a.147.147,0,0,1,.078-.039c1.077-.372,2.193-.744,3.289-1.116h.019c1.351-.431,2.7-.862,4.092-1.253.822-.235,1.664-.469,2.506-.685q1.262-.354,2.525-.647,2.7-.646,5.462-1.174c.744-.157,1.508-.294,2.251-.411.88-.157,1.742-.294,2.624-.432.861-.136,1.742-.254,2.622-.371s1.762-.215,2.643-.314c.842-.1,1.684-.176,2.545-.235,3.6-.333,7.243-.49,10.925-.49,1.39,0,2.779.019,4.17.079,1.331.039,2.662.1,3.974.2,1.272.078,2.525.176,3.777.293.568.059,1.116.1,1.664.176.235.019.47.039.686.079,1.9.215,3.778.469,5.637.783.451.058.9.136,1.331.215a.852.852,0,0,1,.2.039c1,.157,2,.353,3,.548.039.02.1.02.137.039,2.6.529,5.188,1.135,7.732,1.821,1.292.353,2.565.7,3.837,1.1.1.032.207.068.31.1a1.669,1.669,0,0,0-.214-.1c-.665-.313-1.331-.626-2.016-.919-.959-.412-1.919-.823-2.878-1.214-1.1-.45-2.193-.9-3.309-1.312-1.233-.469-2.467-.92-3.719-1.331-1.253-.43-2.526-.841-3.8-1.233s-2.546-.744-3.837-1.1c-2.546-.685-5.129-1.292-7.733-1.821-.039-.019-.1-.019-.137-.039-1-.2-2-.391-2.994-.548a.876.876,0,0,0-.2-.039c-.432-.078-.881-.157-1.331-.215-1.86-.314-3.74-.568-5.639-.783-.215-.039-.45-.058-.686-.079-.548-.078-1.1-.117-1.663-.175-1.253-.118-2.507-.215-3.779-.294-1.312-.1-2.643-.157-3.974-.2-1.39-.058-2.78-.078-4.17-.078q-5.52,0-10.924.489c-.862.058-1.7.137-2.546.236-.88.1-1.762.195-2.642.313s-1.763.235-2.624.372c-.881.137-1.742.274-2.624.43-.744.118-1.507.255-2.251.411q-2.759.529-5.461,1.176-1.264.294-2.526.646c-.841.215-1.684.45-2.506.686-1.39.391-2.74.822-4.091,1.252h-.021c-1.1.372-2.212.744-3.289,1.116a.148.148,0,0,0-.078.039c-1.116.391-2.192.8-3.289,1.234l-.176.058c-1,.391-2,.8-2.976,1.213-1.233.509-2.447,1.058-3.641,1.606-1.018.469-2.016.94-3,1.429-1.057.529-2.114,1.058-3.151,1.606l-.118.058c-1,.529-2,1.077-2.975,1.645-1.019.568-2.017,1.155-3.015,1.781h-.019c-.94.568-1.86,1.135-2.78,1.723-.353.215-.685.45-1.037.686-.98.626-1.918,1.272-2.879,1.938-1.174.8-2.31,1.645-3.445,2.486-1,.744-1.977,1.508-2.936,2.271A123.344,123.344,0,0,0,879.7,359.53c-1.664,1.841-3.23,3.72-4.757,5.639A125.667,125.667,0,0,0,865.2,379.5a123.161,123.161,0,0,0-16.132,49.412c-.274,2.761-.469,5.54-.568,8.359-.058,1.469-.078,2.976-.078,4.464,0,1.508.019,2.994.078,4.483a123.268,123.268,0,0,0,7.871,39.252,118.331,118.331,0,0,0,7.557,16.21c1.213,2.251,2.545,4.464,3.934,6.637,1.723,2.682,3.524,5.305,5.462,7.831,1.8,2.428,3.719,4.8,5.736,7.067a124.91,124.91,0,0,0,21.1,19.108c2.035,1.468,4.111,2.877,6.244,4.208a122.959,122.959,0,0,0,29.255,13.414A123.457,123.457,0,0,1,922.03,552.538Z" transform="translate(-848.419 -318)"/><path class="f" d="M1089.161,438.784c0,2.74-.1,5.443-.254,8.144v.019c-.2,2.839-.49,5.657-.862,8.437a123.422,123.422,0,0,1-12.725,40.27,118.767,118.767,0,0,1-7.38,12.352c-.881,1.351-1.821,2.662-2.781,3.974-1.879,2.545-3.837,5.031-5.912,7.42a120.287,120.287,0,0,1-9.4,9.809,122.088,122.088,0,0,1-15.368,12.216,123.656,123.656,0,0,1-10.943,6.6h-.019a123.74,123.74,0,0,1-93.676,9.2c124.477-13.362,142.022-136.094,125.37-203.52.176.176.353.351.509.528a.578.578,0,0,1,.176.2c.607.647,1.213,1.292,1.781,1.958a7.2,7.2,0,0,1,.529.587c.548.626,1.1,1.252,1.625,1.88a.019.019,0,0,1,.019.02c.548.607,1.058,1.213,1.527,1.84.451.548.9,1.1,1.331,1.645.627.783,1.234,1.585,1.841,2.408.763,1.018,1.527,2.035,2.252,3.093.568.8,1.135,1.644,1.684,2.467q1.32,2,2.583,4.052a120.559,120.559,0,0,1,9.984,20.3c.118.293.216.587.333.88v.019c1.174,3.133,2.213,6.3,3.133,9.534a120.062,120.062,0,0,1,3.543,17.228c.2,1.39.353,2.779.49,4.19.353,3.484.548,6.988.568,10.551C1089.161,437.648,1089.161,438.216,1089.161,438.784Z" transform="translate(-841.789 -315.097)"/></g><g transform="translate(37.397 41.417)"><path class="g" d="M966.068,593.067l14.423.043a150.129,150.129,0,0,0-.008-299.989l-14.287-.047c-.044.027-.089.058-.136.094a150.164,150.164,0,0,0,.008,299.9Zm-90.684-52.873a167.86,167.86,0,0,1,30.712-17.653,179.671,179.671,0,0,0,42.757,56.776A138.938,138.938,0,0,1,875.383,540.194Zm92.911,40.064a171.667,171.667,0,0,1-51.39-62.063,173.411,173.411,0,0,1,51.39-10.218Zm0-83.885a185.044,185.044,0,0,0-56.085,11.18,171.165,171.165,0,0,1-11.988-53.694l68.073-.035Zm0-54.163-68.44.042a173.084,173.084,0,0,1,9.35-55.55,182.369,182.369,0,0,0,59.09,12.519Zm29.073,137.469a179.434,179.434,0,0,0,44.192-59.229,168.152,168.152,0,0,1,33.043,17.933A138.5,138.5,0,0,1,997.368,579.678Zm84.913-50.082a179.088,179.088,0,0,0-36.245-19.85,183.339,183.339,0,0,0,11.99-55.973l54.2-.03A137.259,137.259,0,0,1,1082.281,529.6Zm4.335-167.237a137.182,137.182,0,0,1,26.037,79.776l-54.279.03a184.883,184.883,0,0,0-9.5-57.781A183.145,183.145,0,0,0,1086.616,362.359Zm-7.167-9.138a171.556,171.556,0,0,1-34.6,20.254,181.619,181.619,0,0,0-47.5-66.929A137.888,137.888,0,0,1,1079.449,353.221ZM979.9,307.19a170.393,170.393,0,0,1,54.15,70.577,170.716,170.716,0,0,1-54.15,9.97Zm0,92.176a182.411,182.411,0,0,0,58.146-10.706,173.289,173.289,0,0,1,8.711,53.508l-66.857.04Zm0,54.449,66.493-.035a171.6,171.6,0,0,1-11.262,51.936,185.282,185.282,0,0,0-55.231-9.483Zm0,54.013a173.654,173.654,0,0,1,50.688,8.6A171.372,171.372,0,0,1,979.9,579.043ZM968.294,305.973V387.6a170.773,170.773,0,0,1-54.919-11.748A170.717,170.717,0,0,1,968.294,305.973Zm-19.426.933a181.883,181.883,0,0,0-46.148,64.314,170.933,170.933,0,0,1-32.2-19.977A138.331,138.331,0,0,1,948.869,306.906Zm-85.7,53.331A182.621,182.621,0,0,0,898.5,382.076a184.688,184.688,0,0,0-10.258,60.175l-52.693.027A137.027,137.027,0,0,1,863.17,360.237Zm-27.181,93.652,52.609-.026a182.841,182.841,0,0,0,12.838,58.045,179.632,179.632,0,0,0-33.878,19.634A137.019,137.019,0,0,1,835.989,453.889Z" transform="translate(-823.931 -293.075)"/></g><path class="h" d="M797.894,436.068c.03-1.207.115-2.62.207-3.944q.144-2.021.347-4.052.4-4.059.988-8.116,1.166-8.106,2.974-16.119a206.253,206.253,0,0,1,9.658-31.292c8.081-20.26,19.636-39.165,34.73-54.777a143.257,143.257,0,0,1,11.911-11.063,140.046,140.046,0,0,1,13.043-9.7,144.979,144.979,0,0,1,14.026-8.238c2.385-1.3,4.873-2.4,7.314-3.585,2.5-1.057,4.962-2.219,7.513-3.168,5.035-2.058,10.229-3.718,15.437-5.315,5.25-1.464,10.53-2.851,15.9-3.883,1.341-.26,2.672-.567,4.021-.789l4.043-.681,2.022-.341.678-.1.313-.042,1.251-.17,1.059,7.461,4.453-3.583,4.61-3.443,2.352-1.725,2.391-1.652,4.87-3.311-5.325-2.575-2.707-1.284-2.732-1.206-5.559-2.391-5.674-2.212,1.059,7.461-1.3.175-.324.044-.7.1-2.1.354-4.206.708c-1.4.232-2.791.55-4.187.822-5.589,1.077-11.108,2.522-16.6,4.056-5.455,1.669-10.9,3.413-16.192,5.575-2.678,1-5.269,2.218-7.9,3.333-2.574,1.249-5.191,2.409-7.708,3.776a153.492,153.492,0,0,0-14.811,8.7,148.714,148.714,0,0,0-13.793,10.256,151.914,151.914,0,0,0-12.593,11.7c-15.956,16.5-28.086,36.4-36.515,57.54a214.683,214.683,0,0,0-10.061,32.588q-1.878,8.322-3.1,16.779-.608,4.227-1.033,8.492-.211,2.133-.367,4.283c-.1,1.458-.188,2.828-.227,4.409Z" transform="translate(-789.35 -254.777)"/><g transform="translate(206.469 196.73)"><path class="h" d="M1146.381,436.693c-.03,1.207-.115,2.62-.207,3.945-.1,1.346-.215,2.7-.347,4.051q-.4,4.059-.989,8.116-1.168,8.106-2.974,16.119a206.141,206.141,0,0,1-9.659,31.292c-8.079,20.26-19.635,39.165-34.729,54.777a143.61,143.61,0,0,1-11.911,11.063,140.188,140.188,0,0,1-13.043,9.7,145.089,145.089,0,0,1-14.026,8.238c-2.385,1.3-4.873,2.4-7.314,3.585-2.5,1.057-4.962,2.219-7.514,3.168-5.035,2.058-10.229,3.718-15.436,5.315-5.25,1.464-10.53,2.851-15.9,3.883-1.341.261-2.672.567-4.021.789l-4.045.681-2.022.341-.677.1-.313.042-1.251.17-1.059-7.461-4.454,3.583-4.609,3.443-2.352,1.725-2.391,1.652-4.87,3.311,5.325,2.575,2.706,1.284,2.733,1.206,5.557,2.391,5.675,2.212-1.06-7.461,1.3-.175.324-.044.7-.1,2.1-.355,4.2-.708c1.4-.232,2.792-.55,4.188-.822,5.589-1.077,11.107-2.522,16.6-4.056,5.455-1.669,10.9-3.413,16.191-5.575,2.678-1,5.27-2.218,7.9-3.333,2.574-1.249,5.191-2.409,7.708-3.776a153.574,153.574,0,0,0,14.81-8.7,148.91,148.91,0,0,0,13.794-10.257,151.869,151.869,0,0,0,12.592-11.7c15.958-16.5,28.086-36.4,36.516-57.54A214.522,214.522,0,0,0,1150.2,470.8q1.878-8.322,3.1-16.78.61-4.227,1.034-8.491.209-2.135.367-4.284c.1-1.458.187-2.828.227-4.409Z" transform="translate(-980.272 -436.693)"/></g></g><g transform="translate(999.818 302.619)"><g transform="translate(0 139.069)"><path class="i" d="M1004.127,433.818s-3.507-4-7.6-4.8c-2.432-.478-2.349-1.092-2.759-1.292-1.359-.667-.124,1.958,1.926,2.7,1.668.6,2.492,3.53,3.482,4.184s3.983,1.9,4.757,1.536S1004.127,433.818,1004.127,433.818Z" transform="translate(-983.218 -427.614)"/><path class="i" d="M1015.66,439.007c-.746-.284-8.537-5.4-12.851-5.974s-10.783-1.024-12.992-1.752c-2.6-.855-3.306.162-.323,1.443a42.647,42.647,0,0,0,6.816,2.236c.433.036-2.373-.46-5.414-1.221-3.232-.81-6.731-1.874-6.917-1.3-.36,1.113,8.927,4.03,10.574,4.278a41.675,41.675,0,0,1-4.34-.708c-1.954-.43-4.182-1.22-4.643-.829-.725.615,4.169,2.771,8.257,3.509.066.136-1.271.29-6.066-.914-.482-.121-1.728.041-.167.842,3.286,1.686,4.575,2.654,9.425,3.005,4.728.342,9.994-.417,13.352.864Z" transform="translate(-983.97 -427.341)"/></g><path class="j" d="M1010.544,450.411c3.789,1.484,31.305,6.53,56.563.982,15.942-3.494,30.977-11.218,38.583-26.72,19.656-40.074-26.273-62.8-26.273-62.8a.8.8,0,0,0-.069.109c-1.991,3.007-44.8,67.24-74.51,77.263C1004.839,439.241,1004.365,447.988,1010.544,450.411Z" transform="translate(-982.271 -293.898)"/><path class="k" d="M1183.934,513.555s-.955,88.369,2.786,89.566c6.716,2.191,32.863,9,4.718,9.429-14.3,2.1-13.518-1.2-13.976-3.9-.374-2.207-6.7-80.676-7.813-86.724-.25-1.355-.4-2.174-.4-2.174Z" transform="translate(-968.882 -281.546)"/><path class="k" d="M1128.807,507.8s-6.322,93.874-10.1,94.966c-6.774,2-33.1,8.074-4.981,9.294,14.232,2.5,13.546-.82,14.08-3.507.436-2.2,3.986-24.9,5.27-30.911.287-1.346,10.911-69.376,10.911-69.376Z" transform="translate(-974.438 -282.015)"/><path class="l" d="M1129.725,596.043c.311-1.243-8.681-2.151-9.813-1.242s-19.448,2.554-19.7,7.909,25.021,4.011,26.807,4.089S1129.113,598.486,1129.725,596.043Z" transform="translate(-974.504 -274.96)"/><g transform="translate(145.068 132.833)"><path class="g" d="M1123,428.529a5.577,5.577,0,0,0,3.276,1.183c7.417-.492,39.438-2.694,56.7-5.183,6.088-.878,10.339-1.791,11.023-2.682,0,0,0,.026,0,.071.038.96.43,11.953.894,26.366.916,28.454,7.332,68.766,11.812,80.784.967,2.594-39.106,1.985-39.106,1.985-2.625-29.218-4.265-80.77-6.254-82.915-2.42-2.611-2.071,42.828-2.874,80.944-15.379,5.458-40.506,5.109-40.357,3.471C1119.889,513.108,1123,428.529,1123,428.529Z" transform="translate(-1118.114 -421.847)"/><g class="m" transform="translate(34.199)"><path d="M1150.1,427.284h-.359S1149.865,427.283,1150.1,427.284Z" transform="translate(-1149.738 -421.404)"/><path class="n" d="M1150.07,427.727c9.594-.059,30.3-3.2,30.3-3.2,6.088-.878,10.339-1.791,11.023-2.682,0,0,0,.026,0,.071.038.96.43,11.953.894,26.366a7.088,7.088,0,0,1-1.011-.029,7.824,7.824,0,0,1-5.351-3.15,17.369,17.369,0,0,1-2.313-3.926C1175.351,428.273,1153.146,427.738,1150.07,427.727Z" transform="translate(-1149.711 -421.847)"/></g><g transform="translate(10.762 2.489)"><line class="o" x1="1.015" y2="106.357" transform="translate(0 2.905)"/><line class="o" x1="1.097" y2="104.514" transform="translate(10.112 4.154)"/><line class="o" x2="0.527" y2="103.644" transform="translate(20.995 3.312)"/><line class="o" x2="2.048" y2="21.302" transform="translate(30.422 2.501)"/><line class="o" x2="7.1" y2="105.18" transform="translate(40.884 1.601)"/><line class="o" x2="8.57" y2="105.941" transform="translate(49.882 0.761)"/><line class="o" x2="11.197" y2="106.327" transform="translate(58.731)"/></g><path class="o" d="M1122.247,438.747s57.04-2.2,71.82-6.177" transform="translate(-1117.778 -420.974)"/><path class="o" d="M1161.037,446.159c-19.49,6.212-39.125.73-39.125.73" transform="translate(-1117.805 -419.867)"/><path class="o" d="M1157.785,445.091s18.372,3.5,33.762-2.114" transform="translate(-1114.884 -420.126)"/><path class="o" d="M1121.624,454.061s14.969,6.268,37.907.443" transform="translate(-1117.828 -419.224)"/><path class="o" d="M1121.272,462.668s22.876,4.888,37.946.064" transform="translate(-1117.857 -418.523)"/><path class="o" d="M1120.912,471.219s12.117,7.924,38.1,1.668" transform="translate(-1117.887 -417.827)"/><path class="o" d="M1120.483,481.088a55.434,55.434,0,0,0,38.429-.408" transform="translate(-1117.922 -417.056)"/><path class="o" d="M1120.073,490.07s13.009,7.649,38.737.344" transform="translate(-1117.955 -416.292)"/><path class="o" d="M1119.628,499.437s17.683,7.391,39.119-1.652" transform="translate(-1117.991 -415.663)"/><path class="o" d="M1119.257,506.595s10.809,8.743,39.406-.887" transform="translate(-1118.021 -415.018)"/><path class="o" d="M1118.793,514.811s16.875,7.117,39.775-1.19" transform="translate(-1118.059 -414.374)"/><path class="o" d="M1159.305,453.864s8.026,5.543,33.017-1.234" transform="translate(-1114.76 -419.34)"/><path class="o" d="M1160.228,462.5s10.938,4,32.17-1.728" transform="translate(-1114.685 -418.678)"/><path class="o" d="M1160.576,472.177s16.658,3.494,32.594-2.8" transform="translate(-1114.657 -417.977)"/><path class="o" d="M1161.041,480.126s16.389,5.66,33.144-2.851" transform="translate(-1114.619 -417.333)"/><path class="o" d="M1161.544,488.854a61.439,61.439,0,0,0,33.844-2.911" transform="translate(-1114.578 -416.628)"/><path class="o" d="M1162.039,497.237s13.156,4.594,34.679-2.983" transform="translate(-1114.537 -415.951)"/><path class="o" d="M1162.675,504.575s15.707,6.457,35.515-2.225" transform="translate(-1114.486 -415.292)"/><path class="o" d="M1163.135,513.887a69.8,69.8,0,0,0,36.96-2.749" transform="translate(-1114.448 -414.576)"/></g><path class="p" d="M1116.978,323.982s1.678,8.246,7.958,11.208-11.417,3.409-11.417,3.409.749-8.6-1.36-13.178S1116.978,323.982,1116.978,323.982Z" transform="translate(-973.564 -297.069)"/><ellipse class="k" cx="12.332" cy="9.039" rx="12.332" ry="9.039" transform="translate(126.667 26.695) rotate(-68.921)"/><path class="j" d="M1062.547,454.137c15.941-3.494,30.977-11.218,38.583-26.72.028.041.055.076.082.117.083.1.166.213.248.336a.355.355,0,0,1,.055.076c2.19,2.993,12.941,17.692,12.941,17.7,3.9,5.081,9.858,9.962,14.589,11.925.309.137.625.254.913.358,11.6,1.812,59.887-16.539,65.639-21.126,2.6-2.066,3.612-11.753,3.818-22.257.261-12.8-.666-26.843-1.345-29.8-1.154-4.964-23.954-59.88-59.729-56.405a36.635,36.635,0,0,0-9.31,2.183s-.267.281-.741.7a17.628,17.628,0,0,1-3.235,2.3,13.7,13.7,0,0,1-3.3,1.325,10.119,10.119,0,0,1-6.749-.549c-2.238-1-7.208.172-13.243,3.543-8.382,4.675-18.839,13.594-26.9,26.775a.813.813,0,0,0-.069.109,86.257,86.257,0,0,0-11.561,31.739A204.672,204.672,0,0,0,1062.547,454.137Z" transform="translate(-977.711 -296.642)"/><path class="q" d="M1098.1,421.01c.027.042.058.076.085.118.081.1.164.216.243.335.021.023.036.048.059.076,2.19,2.993,12.936,17.7,12.937,17.7,3.9,5.076,9.859,9.96,14.594,11.922-5.38-8.59-21.541-33.32-24.5-44.345C1103.128,417.817,1098.1,421,1098.1,421.01Z" transform="translate(-974.676 -290.238)"/><path class="q" d="M1119.824,336.176c.261.775,0,1.412-1.309,1.617-4.08.637-8.474,2.071-11.25,4.505a2.851,2.851,0,0,1-2.679.677c-2.418-.588-4.767-3.8-5.749-5.241a1.137,1.137,0,0,1-.157-.333c6.036-3.371,11-4.545,13.245-3.538a10.1,10.1,0,0,0,6.746.544A5.554,5.554,0,0,1,1119.824,336.176Z" transform="translate(-974.629 -296.207)"/><g transform="translate(131.102)"><g transform="translate(0 2.407)"><path class="g" d="M1112.554,309.426s11.48,13.723,12.157-.944C1125.179,298.334,1104.829,299.794,1112.554,309.426Z" transform="translate(-1104.744 -301.22)"/><path class="g" d="M1116.324,307.159s-10.038,1.7-11.124,6.865c0,0,3.795-15.211,12.058-12.445s11.106,4.762,4.467,19.836C1121.725,321.414,1124.072,308.292,1116.324,307.159Z" transform="translate(-1105.2 -301.242)"/></g><path class="g" d="M1115.989,301.717s2.153-4.366,6.391-2,5.171,5.672,4.824,8.482-.448,4.978.194,5.224c0,0-2.663,1.181-3.057.294,0,0-.112,5.248-3.683,8.216,0,0,1.415-6.147-1.541-8.022S1115.989,301.717,1115.989,301.717Z" transform="translate(-1104.321 -299.016)"/><path class="g" d="M1117.253,301.728s-2.462-3.157-7.394.093l-3.4,3.1s.394.888,1.922.741c0,0-2.323,4.289-2.693,7.073l4.862-6.972Z" transform="translate(-1105.16 -298.908)"/></g><g transform="translate(133.286 82.115)"><path class="r" d="M1110.92,422.055l52.236,21.38a5.957,5.957,0,0,0,7.764-3.251l14.589-35.655a1.966,1.966,0,0,0,.091-.257,5.935,5.935,0,0,0-3.347-7.5l-52.236-21.38a5.946,5.946,0,0,0-7.757,3.256l-13.917,34-.677,1.652A5.945,5.945,0,0,0,1110.92,422.055Z" transform="translate(-1107.22 -374.948)"/><path class="s" d="M1111.63,420.145l52.236,21.38a5.946,5.946,0,0,0,7.757-3.255l13.917-34a5.935,5.935,0,0,0-3.347-7.5l-52.236-21.38a5.946,5.946,0,0,0-7.757,3.256l-13.917,34A5.933,5.933,0,0,0,1111.63,420.145Z" transform="translate(-1107.162 -374.948)"/><circle class="t" cx="4.595" cy="4.595" r="4.595" transform="translate(35.757 28.826)"/></g><path class="q" d="M1186.533,408.9s-5.009-19.9-55.673,2.392,43.2.715,43.2.715Z" transform="translate(-973.23 -290.734)"/><path class="q" d="M1160.363,361.868s-1.78,53.727,49.807,60.916l1.105.337-3.664-11.418S1177.31,388.242,1177,387.5,1160.363,361.868,1160.363,361.868Z" transform="translate(-969.606 -293.898)"/><g transform="translate(137.151 26.772)"><g transform="translate(0 96.186)"><path class="i" d="M1138.37,416.056c-.685-.023-8.445-2-12.111-1.263s-9.047,2.18-11.046,2.206c-2.351.031-2.642,1.055.14,1.263a36.758,36.758,0,0,0,6.164-.088c.361-.092-2.057.29-4.741.52-2.852.245-5.992.358-5.983.876.019,1.006,8.379.782,9.787.522a35.936,35.936,0,0,1-3.724.637c-1.709.2-3.739.177-4,.623-.417.7,4.161,1.087,7.689.545.092.092-.952.59-5.184.952-.425.037-1.393.516.1.731,3.143.452,4.46.879,8.5-.191,3.938-1.043,8-3.131,11.091-3.028Z" transform="translate(-1110.793 -412.56)"/><path class="i" d="M1127.577,414.787s-3.968-2.271-7.516-1.781a3.529,3.529,0,0,1-2.6-.28c-1.29-.161.447,1.626,2.321,1.659,1.524.026,3.012,2.173,4,2.427s3.767.434,4.294-.081S1127.577,414.787,1127.577,414.787Z" transform="translate(-1110.287 -412.716)"/></g><path class="j" d="M1169.813,326.931c15.7,7.387,27.349,15.125,42.812,47.4,7.845,16.376,12.269,33.773,14.269,43.047a11.177,11.177,0,0,1-4.579,11.509c-35,24.4-88.644.289-88.644.289-2.47-.163-.361-9.428-.361-9.428,21.4-6.63,38.039-10.882,57.107-9.411-.1-.014-26.206-26.44-31.058-34.433-12.715-20.961-38.1-34.806-35.713-45.223C1124.47,327.081,1153.976,319.479,1169.813,326.931Z" transform="translate(-1109.759 -323.773)"/></g><path class="l" d="M1175.768,594.5c-.277-1.25,10.638-.572,11.745.369s17.163,3.857,17.266,9.217-25.124,3.308-26.91,3.335S1176.311,596.957,1175.768,594.5Z" transform="translate(-968.352 -275.011)"/></g></g></svg>