<svg xmlns="http://www.w3.org/2000/svg" width="508.369" height="287.06" viewBox="0 0 508.369 287.06"><defs><style>.a{fill:#89bbe1;}.b{fill:#ffc84f;}.c{fill:#ce521f;}.d{fill:#ebebeb;}.e{fill:#8e96a3;}.f{fill:#3d3d3d;}.g{fill:#d0d1d6;}.h{fill:#aaa;}</style></defs><g transform="translate(-669.916 -292.395)"><path class="a" d="M1082.3,568.892a43.473,43.473,0,1,1,43.473-43.473A43.522,43.522,0,0,1,1082.3,568.892Zm0-78.423a34.95,34.95,0,1,0,34.95,34.95A34.989,34.989,0,0,0,1082.3,490.469Z"/><path class="b" d="M1143.717,399.82a34.568,34.568,0,1,1,34.568-34.567A34.606,34.606,0,0,1,1143.717,399.82Zm0-60.612a26.044,26.044,0,1,0,26.044,26.045A26.075,26.075,0,0,0,1143.717,339.208Z"/><path class="a" d="M709.883,424.528a39.968,39.968,0,1,1,39.968-39.968A40.012,40.012,0,0,1,709.883,424.528Zm0-71.412a31.445,31.445,0,1,0,31.444,31.444A31.48,31.48,0,0,0,709.883,353.116Z"/><path class="b" d="M765.094,579.455A29.455,29.455,0,1,1,794.549,550,29.488,29.488,0,0,1,765.094,579.455Zm0-50.387A20.932,20.932,0,1,0,786.026,550,20.956,20.956,0,0,0,765.094,529.068Z"/><path class="a" d="M855.5,351.3a29.455,29.455,0,1,1,29.456-29.455A29.489,29.489,0,0,1,855.5,351.3Zm0-50.387a20.932,20.932,0,1,0,20.932,20.932A20.956,20.956,0,0,0,855.5,300.918Z"/><rect class="a" width="8.523" height="57.884" transform="matrix(0.505, -0.863, 0.863, 0.505, 996.985, 478.998)"/><rect class="b" width="121.434" height="8.523" transform="translate(996.774 411.994) rotate(-18.292)"/><rect class="a" width="8.523" height="95.814" transform="matrix(0.287, -0.958, 0.958, 0.287, 743.306, 397.294)"/><rect class="b" width="75.773" height="8.524" transform="translate(785.032 533.978) rotate(-28.874)"/><rect class="a" width="8.524" height="27.075" transform="translate(863.11 345.334) rotate(-29.093)"/><path class="b" d="M998.466,430.687l9.612-.68a90.834,90.834,0,0,0-36.414-58.342l-5.043,8.182A81.235,81.235,0,0,1,998.466,430.687Z"/><path class="b" d="M918.663,364.109a80.675,80.675,0,0,1,47.958,15.738l5.043-8.182a90.508,90.508,0,0,0-105.353-.469l6.178,7.379A80.65,80.65,0,0,1,918.663,364.109Z"/><path class="b" d="M872.489,378.575l-6.178-7.379a91.438,91.438,0,0,0-24.274,25.563l8.307,4.806A81.778,81.778,0,0,1,872.489,378.575Z"/><path class="b" d="M1008.078,430.007l-9.612.68a81.118,81.118,0,1,1-148.122-29.122l-8.307-4.806a90.674,90.674,0,1,0,166.041,33.248Z"/><path class="c" d="M858.6,428.765h0a.47.47,0,0,1-.277-.6l.381-1.035.878.324-.381,1.034A.47.47,0,0,1,858.6,428.765Z"/><path class="c" d="M863.492,430.567h0a.469.469,0,0,1-.278-.6l.381-1.034c.026-.07.875.333.875.333l-.377,1.025A.47.47,0,0,1,863.492,430.567Z"/><path class="d" d="M858.5,428.562h0a.47.47,0,0,1-.278-.6l.417-1.132a.47.47,0,0,1,.6-.278h0a.47.47,0,0,1,.278.6l-.417,1.132A.47.47,0,0,1,858.5,428.562Z"/><path class="d" d="M863.387,430.361h0a.47.47,0,0,1-.277-.6l.417-1.132a.469.469,0,0,1,.6-.278h0a.47.47,0,0,1,.277.6l-.417,1.133A.469.469,0,0,1,863.387,430.361Z"/><rect class="e" width="1.99" height="3.069" transform="translate(856.636 441.233) rotate(-69.783)"/><rect class="e" width="1.99" height="3.069" transform="translate(857.948 437.943) rotate(-69.783)"/><path class="f" d="M998.563,501.466H842.668a3.466,3.466,0,0,1-3.744-3.416v-2.336l17.064-31.532a5.432,5.432,0,0,1,4.864-3.016h119.3c2.226,0,7.135,4.385,8.131,6.376l14.077,28.7v1.03C1002.394,500.26,1000.462,501.466,998.563,501.466Z"/><path class="g" d="M998.577,498.165h-155.9c-1.731,0-4.581-1.519-3.51-3.385l16.83-33.9a5.432,5.432,0,0,1,4.864-3.016h119.3a5.878,5.878,0,0,1,5.257,3.25l16.659,33.337C1003.249,496.577,1000.476,498.165,998.577,498.165Z"/><rect class="g" width="127.666" height="80.671" rx="4.668" transform="translate(855.977 377.135)"/><rect class="f" width="117.817" height="69.903" transform="translate(860.878 381.535)"/><path class="f" d="M943.226,496.7H897.291a.828.828,0,0,1-.818-.959l1.937-12.1a1.344,1.344,0,0,1,1.328-1.133H941.17a1.183,1.183,0,0,1,1.17,1.012l1.776,12.168A.9.9,0,0,1,943.226,496.7Z"/><path class="h" d="M982.388,480.01H857.578c-1.385,0-2.441-.532-2.222-1.119l5.263-14.125c.284-.762,1.814-1.323,3.61-1.323H976.8c1.595,0,2.948.5,3.179,1.181l4.824,14.205C984.993,479.455,983.858,480.01,982.388,480.01Z"/><rect class="g" width="130.155" height="0.657" transform="translate(854.998 465.877)"/><rect class="g" width="130.155" height="0.657" transform="translate(854.998 469.164)"/><rect class="g" width="130.155" height="0.657" transform="translate(854.998 473.108)"/><rect class="g" width="130.155" height="0.657" transform="translate(854.998 476.724)"/><rect class="g" width="0.986" height="21.693" transform="translate(870.761 460.641) rotate(17.439)"/><rect class="g" width="0.986" height="21.693" transform="translate(880.293 460.641) rotate(17.439)"/><rect class="g" width="0.986" height="21.693" transform="translate(887.852 460.641) rotate(17.439)"/><rect class="g" width="0.986" height="21.693" transform="translate(895.412 460.641) rotate(17.439)"/><rect class="g" width="0.986" height="21.693" transform="translate(903.3 460.641) rotate(17.439)"/><rect class="g" width="0.986" height="21.693" transform="translate(911.304 460.394) rotate(10.978)"/><rect class="g" width="0.986" height="21.693" transform="translate(918.104 460.29)"/><rect class="g" width="0.986" height="21.693" transform="translate(969.108 460.936) rotate(-17.439)"/><rect class="g" width="0.986" height="21.693" transform="translate(959.905 460.936) rotate(-17.439)"/><rect class="g" width="0.986" height="21.693" transform="translate(950.702 460.936) rotate(-17.439)"/><rect class="g" width="0.986" height="21.693" transform="translate(941.499 460.936) rotate(-17.439)"/><rect class="g" width="0.986" height="21.693" transform="translate(932.296 460.936) rotate(-17.439)"/><rect class="g" width="0.986" height="21.693" transform="translate(923.093 460.936) rotate(-17.439)"/><path class="a" d="M919.421,443.8l2.548.007a26.514,26.514,0,0,0,0-52.981l-2.523-.008-.024.016a26.521,26.521,0,0,0,0,52.966Zm-16.015-9.338a29.533,29.533,0,0,1,5.424-3.118,31.734,31.734,0,0,0,7.551,10.027A24.545,24.545,0,0,1,903.406,434.466Zm16.409,7.075a30.306,30.306,0,0,1-9.076-10.961,30.631,30.631,0,0,1,9.076-1.8Zm0-14.815a32.672,32.672,0,0,0-9.905,1.975,30.252,30.252,0,0,1-2.118-9.483l12.023-.006Zm0-9.566-12.088.008a30.6,30.6,0,0,1,1.652-9.811,32.188,32.188,0,0,0,10.436,2.211Zm5.134,24.279a31.677,31.677,0,0,0,7.805-10.461,29.679,29.679,0,0,1,5.836,3.168A24.459,24.459,0,0,1,924.949,441.439Zm15-8.845a31.657,31.657,0,0,0-6.4-3.506,32.358,32.358,0,0,0,2.118-9.885l9.572-.005A24.24,24.24,0,0,1,939.946,432.594Zm.765-29.536a24.225,24.225,0,0,1,4.6,14.089l-9.586.006a32.678,32.678,0,0,0-1.678-10.205A32.3,32.3,0,0,0,940.711,403.058Zm-1.265-1.614a30.276,30.276,0,0,1-6.11,3.577,32.084,32.084,0,0,0-8.389-11.82A24.357,24.357,0,0,1,939.446,401.444Zm-17.581-8.129a30.089,30.089,0,0,1,9.564,12.464,30.159,30.159,0,0,1-9.564,1.761Zm0,16.279a32.219,32.219,0,0,0,10.269-1.891,30.62,30.62,0,0,1,1.539,9.45l-11.808.007Zm0,9.616,11.743-.006a30.283,30.283,0,0,1-1.989,9.172,32.722,32.722,0,0,0-9.754-1.674Zm0,9.539a30.666,30.666,0,0,1,8.952,1.52,30.273,30.273,0,0,1-8.952,11.058Zm-2.05-35.649v14.415a30.177,30.177,0,0,1-9.7-2.075A30.158,30.158,0,0,1,919.815,393.1Zm-3.431.165a32.129,32.129,0,0,0-8.15,11.358,30.153,30.153,0,0,1-5.688-3.528A24.431,24.431,0,0,1,916.384,393.265Zm-15.135,9.418a32.2,32.2,0,0,0,6.239,3.857,32.645,32.645,0,0,0-1.812,10.628l-9.306.005A24.2,24.2,0,0,1,901.249,402.683Zm-4.8,16.54,9.292,0a32.272,32.272,0,0,0,2.267,10.251,31.632,31.632,0,0,0-5.983,3.468A24.2,24.2,0,0,1,896.448,419.223Z"/><path class="b" d="M1107.088,532.279a10.169,10.169,0,0,0-10.394-9.9,11.015,11.015,0,0,0-1.131.06c.02-.3.03-.592.03-.875a12.9,12.9,0,0,0-25.766-1.058,11.072,11.072,0,0,0-1.429-.094,10.886,10.886,0,0,0-.066,21.771l10.874,0a.995.995,0,0,0,.994-1.046V533a1,1,0,0,0-.995-.995h-1.393l4.335-5.336c.1-.129.2-.129.309,0l4.334,5.336H1085.4a1,1,0,0,0-.995.995v8.117c0,.023,0,.046,0,.067a1,1,0,0,0,.994.995h11.355A10.176,10.176,0,0,0,1107.088,532.279Zm-10.353,7.912h-10.343V534h.935a1.761,1.761,0,0,0,1.733-.925,1.677,1.677,0,0,0-.336-1.839L1084,525.418a2.141,2.141,0,0,0-3.4,0l-4.725,5.816a1.678,1.678,0,0,0-.336,1.839,1.761,1.761,0,0,0,1.733.925h.936v6.194h-9.67l-.189,0a8.9,8.9,0,0,1,.048-17.791,9.005,9.005,0,0,1,1.18.078l1.026.136a1,1,0,0,0,1.122-.906l.083-1.032a10.915,10.915,0,0,1,21.794.886c0,.244-.008.5-.025.754l-.08,1.165a.994.994,0,0,0,1.095,1.058l1.166-.121a8.684,8.684,0,0,1,.935-.051,7.926,7.926,0,1,1,.041,15.825Z"/><path class="b" d="M696.051,392.233v6.816a1.08,1.08,0,0,0,1.079,1.079h26.777a1.08,1.08,0,0,0,1.079-1.079v-6.816a1.08,1.08,0,0,0-1.079-1.08h-2.636a1.08,1.08,0,0,0-1.078,1.08v3.1H700.844v-3.1a1.079,1.079,0,0,0-1.078-1.08H697.13A1.08,1.08,0,0,0,696.051,392.233Zm1.3.224h2.186v3.523a.652.652,0,0,0,.652.652h20.652a.651.651,0,0,0,.651-.652v-3.523h2.186v6.367H697.355Z"/><path class="b" d="M706.385,373.541h8.268a1.152,1.152,0,0,0,1.151-1.15v-2.248a1.152,1.152,0,0,0-1.151-1.15h-8.268a1.152,1.152,0,0,0-1.151,1.15v2.248A1.152,1.152,0,0,0,706.385,373.541Zm.153-3.245H714.5v1.942h-7.962Z"/><path class="b" d="M705.167,379.731h-4.225a1.652,1.652,0,0,0-1.54.852,1.128,1.128,0,0,0,.185,1.23l4.788,5.613h0l4.789,5.612a1.756,1.756,0,0,0,1.354.564h0a1.758,1.758,0,0,0,1.355-.564l9.577-11.225a1.128,1.128,0,0,0,.185-1.23,1.651,1.651,0,0,0-1.54-.852h-4.369v-3.984a1.08,1.08,0,0,0-1.078-1.079h-8.4a1.08,1.08,0,0,0-1.078,1.079Zm.652,1.3a.652.652,0,0,0,.652-.652v-4.412h7.953v4.412a.651.651,0,0,0,.651.652H720.1a.723.723,0,0,1,.266.046l-9.479,11.111a.547.547,0,0,1-.364.107h0a.538.538,0,0,1-.363-.107l-4.789-5.612h0l-4.691-5.5a.7.7,0,0,1,.266-.047Z"/><path class="b" d="M1131.258,368.278v5.87a.929.929,0,0,0,.928.929h23.061a.931.931,0,0,0,.93-.929v-5.87a.931.931,0,0,0-.93-.93h-2.27a.93.93,0,0,0-.928.93v2.666h-16.664v-2.666a.93.93,0,0,0-.928-.93h-2.271A.93.93,0,0,0,1131.258,368.278Zm1.122.193h1.883v3.034a.561.561,0,0,0,.561.561h17.786a.561.561,0,0,0,.561-.561v-3.034h1.883v5.483H1132.38Z"/><path class="b" d="M1140.157,352.181h7.121a.992.992,0,0,0,.99-.991v-1.936a.992.992,0,0,0-.99-.991h-7.121a.993.993,0,0,0-.991.991v1.936A.993.993,0,0,0,1140.157,352.181Zm.132-2.8h6.857v1.672h-6.857Z"/><path class="b" d="M1139.108,357.511h-3.638a1.421,1.421,0,0,0-1.326.734.969.969,0,0,0,.159,1.059l4.124,4.834h0l4.124,4.834a1.514,1.514,0,0,0,1.166.485h0a1.517,1.517,0,0,0,1.167-.485l8.248-9.668a.971.971,0,0,0,.159-1.059,1.421,1.421,0,0,0-1.326-.734H1148.2V354.08a.93.93,0,0,0-.929-.929h-7.237a.93.93,0,0,0-.929.929Zm.562,1.123a.562.562,0,0,0,.561-.562v-3.8h6.849v3.8a.562.562,0,0,0,.561.562h4.324a.611.611,0,0,1,.229.04l-8.163,9.569a.473.473,0,0,1-.314.092h0a.466.466,0,0,1-.312-.092l-4.125-4.834h0l-4.039-4.735a.607.607,0,0,1,.229-.04Z"/><path class="a" d="M761.485,560.249a3.1,3.1,0,1,0,3.1-3.1A3.1,3.1,0,0,0,761.485,560.249Zm5.291,0a2.2,2.2,0,1,1-2.2-2.2A2.2,2.2,0,0,1,766.776,560.249Z"/><path class="a" d="M764.581,538.441a18.11,18.11,0,0,0-13.034,5.481,1.351,1.351,0,0,0,.965,2.3h.014a1.349,1.349,0,0,0,.952-.4,15.535,15.535,0,0,1,22.206,0,1.351,1.351,0,1,0,1.931-1.891A18.108,18.108,0,0,0,764.581,538.441Zm12.384,6.748a.461.461,0,0,1-.637-.006,16.437,16.437,0,0,0-23.494,0,.451.451,0,0,1-.644-.631,17.34,17.34,0,0,1,24.782,0,.449.449,0,0,1-.007.637Z"/><path class="a" d="M773.207,551.032a1.351,1.351,0,0,0,.969-2.294,13.373,13.373,0,0,0-19.19,0,1.352,1.352,0,1,0,1.939,1.884,10.668,10.668,0,0,1,15.312,0A1.339,1.339,0,0,0,773.207,551.032Zm-16.928-1.038a.451.451,0,0,1-.647-.628,12.472,12.472,0,0,1,17.9,0,.451.451,0,0,1-.009.637.46.46,0,0,1-.637-.009,11.57,11.57,0,0,0-16.6,0Z"/><path class="a" d="M770.05,556.349a1.351,1.351,0,0,0,.977-2.285,8.907,8.907,0,0,0-12.892,0,1.351,1.351,0,0,0,.976,2.285h.032a1.344,1.344,0,0,0,.946-.418,6.208,6.208,0,0,1,8.984,0A1.355,1.355,0,0,0,770.05,556.349Zm-10.613-1.04a.448.448,0,0,1-.315.139.455.455,0,0,1-.321-.125.449.449,0,0,1-.14-.315.453.453,0,0,1,.125-.322,8.011,8.011,0,0,1,11.59,0,.453.453,0,0,1,.125.322.445.445,0,0,1-.14.315.461.461,0,0,1-.637-.014,7.108,7.108,0,0,0-10.287,0Z"/><path class="b" d="M867.407,313.033a1.955,1.955,0,0,0-1.382-.571H843.972a1.955,1.955,0,0,0-1.956,1.956v14.466a1.955,1.955,0,0,0,1.956,1.957h22.053a1.956,1.956,0,0,0,1.956-1.957V314.418a1.953,1.953,0,0,0-.571-1.382Zm-.481,15.85a.9.9,0,0,1-.9.9H843.972a.9.9,0,0,1-.9-.9V314.419a.9.9,0,0,1,.9-.9h22.052a.9.9,0,0,1,.9.9Z"/><path class="b" d="M860.276,321.256l-4.961-3.14h0l-3.391-2.145a.528.528,0,0,0-.81.443l-.055,10.484a.527.527,0,0,0,.8.451l8.409-5.2a.528.528,0,0,0,0-.894Zm-8.158,4.695.045-8.58L859,321.7Z"/></g></svg>