<svg xmlns="http://www.w3.org/2000/svg" width="491.726" height="439.22" viewBox="0 0 491.726 439.22"><defs><style>.a,.d,.g{fill:#5f4fa7;}.a{opacity:0.2;}.b{fill:#493b86;}.c,.f{fill:#d58bca;}.c,.d,.e,.h,.i{fill-rule:evenodd;}.e,.x{fill:#ecc180;}.h,.k{fill:#caa267;}.i{fill:#b8945b;}.j{fill:#c2934e;}.l{fill:#8a7cc7;}.m{opacity:0.15;}.n{fill:#eec459;}.o{fill:#e2a353;}.p{fill:#b38343;}.q{fill:#b15328;}.r{fill:#e7e7e7;}.s{fill:#8c929e;}.t{fill:#3f3f3f;}.u{fill:#cccdd2;}.v{fill:#a5a5a5;}.w{fill:#fff;}.y{fill:#cb92af;}.z{fill:#7f599c;}.aa{fill:#a5afd2;}.ab{fill:#afbedc;}</style></defs><g transform="translate(-451.967 470.379)"><circle class="a" cx="11.589" cy="11.589" r="11.589" transform="translate(843.078 -123.229) rotate(-45)"/><path class="b" d="M683.262-41.137h-.038q-3.37-.078-6.711-.26a1.66,1.66,0,0,1-1.569-1.748,1.632,1.632,0,0,1,1.749-1.567q3.289.176,6.605.252a1.663,1.663,0,0,1,1.623,1.7A1.661,1.661,0,0,1,683.262-41.137Zm12.493-.094a1.662,1.662,0,0,1-1.659-1.6,1.659,1.659,0,0,1,1.6-1.722q3.318-.128,6.6-.357a1.692,1.692,0,0,1,1.773,1.542,1.663,1.663,0,0,1-1.543,1.773q-3.336.231-6.707.36C695.8-41.231,695.775-41.231,695.755-41.231Zm-31.6-1.222a1.475,1.475,0,0,1-.194-.012q-3.346-.387-6.659-.88a1.663,1.663,0,0,1-1.4-1.889,1.666,1.666,0,0,1,1.889-1.4q3.26.487,6.552.868a1.661,1.661,0,0,1,1.459,1.841A1.662,1.662,0,0,1,664.158-42.453Zm50.678-.388a1.659,1.659,0,0,1-1.645-1.445,1.66,1.66,0,0,1,1.431-1.863q3.289-.432,6.538-.969a1.647,1.647,0,0,1,1.909,1.368,1.661,1.661,0,0,1-1.368,1.91q-3.305.545-6.648.985A1.665,1.665,0,0,1,714.836-42.841Zm-69.577-2.707a1.722,1.722,0,0,1-.346-.036c-2.173-.463-4.376-.969-6.549-1.506A1.661,1.661,0,0,1,637.15-49.1a1.666,1.666,0,0,1,2.011-1.214c2.137.53,4.3,1.028,6.44,1.48a1.662,1.662,0,0,1,1.28,1.972A1.663,1.663,0,0,1,645.259-45.548Zm88.428-.678a1.663,1.663,0,0,1-1.618-1.29,1.661,1.661,0,0,1,1.248-1.99q3.228-.743,6.419-1.581a1.663,1.663,0,0,1,2.03,1.183,1.662,1.662,0,0,1-1.183,2.03q-3.242.854-6.522,1.606A1.645,1.645,0,0,1,733.687-46.227ZM626.732-50.409a1.625,1.625,0,0,1-.5-.077q-3.221-1.01-6.4-2.124a1.658,1.658,0,0,1-1.018-2.115,1.658,1.658,0,0,1,2.117-1.019q3.123,1.094,6.294,2.088a1.662,1.662,0,0,1,1.087,2.084A1.66,1.66,0,0,1,626.732-50.409Zm125.4-.962a1.661,1.661,0,0,1-1.577-1.139,1.66,1.66,0,0,1,1.055-2.1q3.143-1.042,6.24-2.18a1.664,1.664,0,0,1,2.133.986A1.662,1.662,0,0,1,759-53.67q-3.148,1.158-6.343,2.214A1.669,1.669,0,0,1,752.134-51.372Zm-143.426-5.64a1.669,1.669,0,0,1-.643-.129c-2.076-.875-4.15-1.788-6.165-2.716a1.663,1.663,0,0,1-.813-2.2,1.664,1.664,0,0,1,2.2-.813c1.981.914,4.022,1.812,6.063,2.671a1.663,1.663,0,0,1,.888,2.176A1.66,1.66,0,0,1,608.708-57.011Zm161.286-1.217a1.661,1.661,0,0,1-1.523-.992,1.664,1.664,0,0,1,.853-2.191q3.025-1.327,5.994-2.748a1.662,1.662,0,0,1,2.215.782,1.661,1.661,0,0,1-.782,2.215q-3.017,1.445-6.091,2.795A1.68,1.68,0,0,1,769.994-58.228ZM591.4-65.279a1.64,1.64,0,0,1-.783-.2c-1.958-1.049-3.935-2.153-5.877-3.28a1.662,1.662,0,0,1-.6-2.271,1.662,1.662,0,0,1,2.27-.6c1.91,1.11,3.856,2.195,5.78,3.229a1.659,1.659,0,0,1,.678,2.248A1.663,1.663,0,0,1,591.4-65.279Zm195.727-1.447a1.66,1.66,0,0,1-1.454-.853,1.663,1.663,0,0,1,.644-2.261q2.886-1.607,5.712-3.3a1.659,1.659,0,0,1,2.28.572,1.66,1.66,0,0,1-.57,2.278q-2.875,1.723-5.807,3.357A1.666,1.666,0,0,1,787.123-66.726ZM574.95-75.134a1.653,1.653,0,0,1-.918-.277c-1.875-1.247-3.738-2.529-5.541-3.815a1.661,1.661,0,0,1-.386-2.318,1.66,1.66,0,0,1,2.317-.388q2.692,1.922,5.449,3.752a1.663,1.663,0,0,1,.465,2.3A1.662,1.662,0,0,1,574.95-75.134ZM803.388-76.8a1.655,1.655,0,0,1-1.371-.72,1.661,1.661,0,0,1,.428-2.31q2.728-1.872,5.386-3.824a1.658,1.658,0,0,1,2.321.355,1.66,1.66,0,0,1-.355,2.322q-2.7,1.985-5.471,3.885A1.65,1.65,0,0,1,803.388-76.8ZM559.5-86.478a1.657,1.657,0,0,1-1.044-.37q-2.615-2.115-5.157-4.311a1.661,1.661,0,0,1-.17-2.343,1.659,1.659,0,0,1,2.343-.171q2.5,2.161,5.074,4.242a1.663,1.663,0,0,1,.247,2.337A1.657,1.657,0,0,1,559.5-86.478Zm259.146-1.872a1.657,1.657,0,0,1-1.279-.6,1.661,1.661,0,0,1,.215-2.339q2.54-2.118,5.007-4.311a1.66,1.66,0,0,1,2.346.137,1.662,1.662,0,0,1-.136,2.346q-2.509,2.231-5.092,4.382A1.652,1.652,0,0,1,818.649-88.351ZM545.187-99.211a1.659,1.659,0,0,1-1.161-.472c-1.6-1.564-3.194-3.17-4.731-4.772a1.661,1.661,0,0,1,.049-2.349,1.665,1.665,0,0,1,2.349.049q2.289,2.388,4.654,4.694a1.661,1.661,0,0,1,.029,2.349A1.658,1.658,0,0,1,545.187-99.211Zm287.587-2.068a1.653,1.653,0,0,1-1.171-.483,1.659,1.659,0,0,1-.007-2.349q2.331-2.344,4.586-4.762a1.665,1.665,0,0,1,2.349-.081,1.663,1.663,0,0,1,.082,2.349q-2.294,2.456-4.662,4.836A1.66,1.66,0,0,1,832.774-101.279ZM532.124-113.213a1.662,1.662,0,0,1-1.267-.586q-2.173-2.559-4.263-5.189a1.66,1.66,0,0,1,.266-2.334,1.661,1.661,0,0,1,2.334.267q2.058,2.587,4.195,5.1a1.663,1.663,0,0,1-.191,2.344A1.659,1.659,0,0,1,532.124-113.213Zm313.516-2.256a1.661,1.661,0,0,1-1.056-.38,1.662,1.662,0,0,1-.223-2.339q2.1-2.551,4.126-5.17a1.661,1.661,0,0,1,2.33-.3,1.661,1.661,0,0,1,.3,2.33q-2.055,2.663-4.195,5.257A1.658,1.658,0,0,1,845.64-115.469ZM520.424-128.364a1.658,1.658,0,0,1-1.361-.706q-1.925-2.749-3.76-5.559a1.661,1.661,0,0,1,.483-2.3,1.659,1.659,0,0,1,2.3.482q1.805,2.768,3.7,5.468a1.663,1.663,0,0,1-.407,2.315A1.656,1.656,0,0,1,520.424-128.364Zm336.708-2.445a1.639,1.639,0,0,1-.931-.287,1.66,1.66,0,0,1-.442-2.307q1.86-2.737,3.628-5.535a1.656,1.656,0,0,1,2.291-.517,1.659,1.659,0,0,1,.516,2.291q-1.8,2.846-3.686,5.627A1.66,1.66,0,0,1,857.132-130.809ZM510.2-144.533a1.659,1.659,0,0,1-1.445-.84q-1.657-2.911-3.22-5.882a1.661,1.661,0,0,1,.7-2.245,1.663,1.663,0,0,1,2.243.7q1.539,2.92,3.168,5.787a1.659,1.659,0,0,1-.622,2.265A1.649,1.649,0,0,1,510.2-144.533Zm356.949-2.625a1.652,1.652,0,0,1-.8-.206,1.659,1.659,0,0,1-.656-2.255q1.592-2.9,3.094-5.856a1.663,1.663,0,0,1,2.234-.728,1.662,1.662,0,0,1,.728,2.234q-1.526,3-3.145,5.949A1.661,1.661,0,0,1,867.144-147.158ZM501.53-161.579a1.659,1.659,0,0,1-1.515-.978q-1.374-3.051-2.652-6.152a1.662,1.662,0,0,1,.9-2.169,1.664,1.664,0,0,1,2.169.9q1.255,3.051,2.608,6.052a1.663,1.663,0,0,1-.832,2.2A1.668,1.668,0,0,1,501.53-161.579Zm374.049-2.8a1.68,1.68,0,0,1-.658-.136,1.664,1.664,0,0,1-.865-2.186c.865-2,1.716-4.055,2.531-6.123a1.665,1.665,0,0,1,2.154-.937,1.662,1.662,0,0,1,.938,2.155c-.829,2.1-1.7,4.2-2.574,6.227A1.667,1.667,0,0,1,875.579-164.382ZM494.5-179.373a1.661,1.661,0,0,1-1.572-1.125q-1.084-3.173-2.067-6.393a1.661,1.661,0,0,1,1.1-2.073,1.661,1.661,0,0,1,2.074,1.1q.966,3.166,2.032,6.288a1.662,1.662,0,0,1-1.035,2.11A1.67,1.67,0,0,1,494.5-179.373Zm387.861-2.966a1.667,1.667,0,0,1-.513-.081,1.661,1.661,0,0,1-1.067-2.094q1.019-3.137,1.935-6.319a1.663,1.663,0,0,1,2.057-1.136,1.661,1.661,0,0,1,1.136,2.058c-.618,2.144-1.281,4.307-1.967,6.423A1.664,1.664,0,0,1,882.36-182.339ZM489.172-197.77a1.661,1.661,0,0,1-1.614-1.275q-.78-3.262-1.454-6.559a1.66,1.66,0,0,1,1.294-1.961,1.655,1.655,0,0,1,1.96,1.293q.665,3.245,1.431,6.454a1.661,1.661,0,0,1-1.23,2A1.711,1.711,0,0,1,489.172-197.77ZM887.4-200.814a1.62,1.62,0,0,1-.364-.041,1.659,1.659,0,0,1-1.259-1.982c.477-2.135.925-4.312,1.332-6.473a1.664,1.664,0,0,1,1.939-1.326,1.662,1.662,0,0,1,1.326,1.94c-.414,2.2-.87,4.41-1.355,6.581A1.661,1.661,0,0,1,887.4-200.814ZM485.6-216.585a1.662,1.662,0,0,1-1.643-1.429q-.468-3.317-.83-6.666a1.66,1.66,0,0,1,1.473-1.83,1.659,1.659,0,0,1,1.83,1.473q.356,3.3.818,6.558a1.662,1.662,0,0,1-1.413,1.878A1.727,1.727,0,0,1,485.6-216.585Zm405.077-3.1a1.732,1.732,0,0,1-.209-.013,1.662,1.662,0,0,1-1.44-1.857q.413-3.268.718-6.569a1.656,1.656,0,0,1,1.809-1.5,1.662,1.662,0,0,1,1.5,1.808c-.208,2.227-.453,4.474-.732,6.68A1.661,1.661,0,0,1,890.679-219.682ZM483.814-235.651a1.662,1.662,0,0,1-1.658-1.583q-.159-3.344-.209-6.715a1.662,1.662,0,0,1,1.636-1.686A1.632,1.632,0,0,1,485.27-244q.049,3.317.2,6.607a1.662,1.662,0,0,1-1.581,1.739Zm408.367-3.122h-.055a1.66,1.66,0,0,1-1.606-1.714q.105-3.292.106-6.61v-.436a1.661,1.661,0,0,1,1.661-1.661,1.661,1.661,0,0,1,1.662,1.661v.436q0,3.372-.109,6.716A1.66,1.66,0,0,1,892.181-238.774ZM483.8-254.8h-.077a1.662,1.662,0,0,1-1.584-1.735q.152-3.367.411-6.7a1.671,1.671,0,0,1,1.785-1.528,1.663,1.663,0,0,1,1.528,1.785q-.254,3.284-.406,6.6A1.661,1.661,0,0,1,483.8-254.8Zm408.087-3.556a1.662,1.662,0,0,1-1.657-1.557q-.207-3.31-.518-6.59a1.66,1.66,0,0,1,1.5-1.811,1.657,1.657,0,0,1,1.811,1.5q.315,3.333.526,6.7a1.662,1.662,0,0,1-1.554,1.762C891.953-258.362,891.919-258.361,891.884-258.361ZM485.549-273.875a1.547,1.547,0,0,1-.232-.016,1.66,1.66,0,0,1-1.415-1.875q.464-3.338,1.034-6.636a1.649,1.649,0,0,1,1.919-1.355,1.66,1.66,0,0,1,1.355,1.919q-.56,3.247-1.017,6.532A1.662,1.662,0,0,1,485.549-273.875ZM889.8-277.4a1.663,1.663,0,0,1-1.641-1.4q-.514-3.273-1.133-6.511a1.661,1.661,0,0,1,1.32-1.944,1.659,1.659,0,0,1,1.944,1.32q.629,3.292,1.152,6.618a1.663,1.663,0,0,1-1.384,1.9A1.628,1.628,0,0,1,889.8-277.4ZM489.079-292.7a1.679,1.679,0,0,1-.384-.044,1.661,1.661,0,0,1-1.234-2c.512-2.167,1.07-4.357,1.656-6.511a1.657,1.657,0,0,1,2.039-1.168,1.661,1.661,0,0,1,1.167,2.04q-.866,3.182-1.628,6.406A1.662,1.662,0,0,1,489.079-292.7Zm396.865-3.457a1.662,1.662,0,0,1-1.608-1.251q-.82-3.208-1.741-6.377a1.66,1.66,0,0,1,1.13-2.059,1.656,1.656,0,0,1,2.059,1.133q.935,3.218,1.77,6.48a1.661,1.661,0,0,1-1.2,2.021A1.657,1.657,0,0,1,885.944-296.155Zm-391.579-14.95a1.651,1.651,0,0,1-.534-.09,1.66,1.66,0,0,1-1.039-2.106q1.084-3.2,2.268-6.345a1.661,1.661,0,0,1,2.14-.971,1.661,1.661,0,0,1,.97,2.14q-1.163,3.1-2.233,6.244A1.662,1.662,0,0,1,494.365-311.105Zm385.969-3.363a1.661,1.661,0,0,1-1.564-1.1q-1.118-3.116-2.335-6.184a1.663,1.663,0,0,1,.933-2.157,1.664,1.664,0,0,1,2.156.932c.826,2.082,1.624,4.2,2.374,6.286a1.661,1.661,0,0,1-1,2.125A1.642,1.642,0,0,1,880.333-314.468Zm-378.953-14.5a1.671,1.671,0,0,1-.678-.146,1.663,1.663,0,0,1-.837-2.2q1.38-3.076,2.856-6.1a1.663,1.663,0,0,1,2.222-.764,1.661,1.661,0,0,1,.764,2.222q-1.451,2.974-2.809,6A1.663,1.663,0,0,1,501.38-328.968Zm371.654-3.184a1.666,1.666,0,0,1-1.506-.955q-1.4-2.99-2.9-5.924a1.661,1.661,0,0,1,.726-2.235,1.659,1.659,0,0,1,2.234.725q1.521,2.982,2.948,6.018a1.661,1.661,0,0,1-.8,2.21A1.655,1.655,0,0,1,873.033-332.152ZM510.044-346.08a1.665,1.665,0,0,1-.818-.216,1.663,1.663,0,0,1-.627-2.265q1.662-2.93,3.414-5.8a1.664,1.664,0,0,1,2.284-.551,1.662,1.662,0,0,1,.552,2.284q-1.724,2.822-3.359,5.7A1.663,1.663,0,0,1,510.044-346.08Zm354.06-2.982a1.659,1.659,0,0,1-1.432-.818q-1.678-2.844-3.445-5.629a1.663,1.663,0,0,1,.512-2.293,1.662,1.662,0,0,1,2.294.513q1.8,2.828,3.5,5.721a1.661,1.661,0,0,1-.587,2.275A1.643,1.643,0,0,1,864.1-349.063ZM520.273-362.3a1.652,1.652,0,0,1-.95-.3,1.662,1.662,0,0,1-.411-2.314q1.927-2.757,3.939-5.449a1.662,1.662,0,0,1,2.325-.335,1.66,1.66,0,0,1,.336,2.324q-1.979,2.65-3.875,5.364A1.661,1.661,0,0,1,520.273-362.3Zm333.352-2.776a1.661,1.661,0,0,1-1.348-.688q-1.935-2.676-3.957-5.287a1.662,1.662,0,0,1,.3-2.331,1.662,1.662,0,0,1,2.331.3q2.055,2.653,4.022,5.374a1.661,1.661,0,0,1-.373,2.319A1.646,1.646,0,0,1,853.625-365.073Zm-321.658-12.4a1.652,1.652,0,0,1-1.073-.395,1.661,1.661,0,0,1-.193-2.342q2.173-2.563,4.427-5.055a1.663,1.663,0,0,1,2.347-.118,1.662,1.662,0,0,1,.118,2.347q-2.218,2.451-4.356,4.974A1.661,1.661,0,0,1,531.967-377.478ZM841.7-380.044a1.659,1.659,0,0,1-1.25-.566q-2.178-2.485-4.435-4.9a1.662,1.662,0,0,1,.078-2.348,1.665,1.665,0,0,1,2.349.079q2.292,2.451,4.507,4.978a1.661,1.661,0,0,1-.154,2.344A1.651,1.651,0,0,1,841.7-380.044ZM545.02-391.5a1.66,1.66,0,0,1-1.187-.5,1.661,1.661,0,0,1,.026-2.349q2.4-2.349,4.875-4.618a1.66,1.66,0,0,1,2.347.1,1.66,1.66,0,0,1-.1,2.347q-2.433,2.233-4.8,4.545A1.654,1.654,0,0,1,545.02-391.5Zm283.4-2.344a1.657,1.657,0,0,1-1.142-.455q-2.4-2.273-4.873-4.467a1.66,1.66,0,0,1-.141-2.345,1.657,1.657,0,0,1,2.344-.14q2.518,2.229,4.955,4.54a1.661,1.661,0,0,1,.064,2.349A1.653,1.653,0,0,1,828.416-393.844Zm-269.1-10.4a1.655,1.655,0,0,1-1.291-.615,1.662,1.662,0,0,1,.244-2.337q2.6-2.113,5.282-4.142a1.658,1.658,0,0,1,2.328.32,1.663,1.663,0,0,1-.32,2.328q-2.632,1.995-5.2,4.076A1.654,1.654,0,0,1,559.317-404.243ZM813.9-406.354a1.657,1.657,0,0,1-1.023-.354q-2.6-2.04-5.271-4a1.663,1.663,0,0,1-.359-2.322,1.661,1.661,0,0,1,2.322-.358q2.713,1.987,5.358,4.061a1.66,1.66,0,0,1,.283,2.332A1.659,1.659,0,0,1,813.9-406.354ZM574.73-415.59a1.66,1.66,0,0,1-1.384-.74,1.662,1.662,0,0,1,.46-2.3q2.791-1.859,5.642-3.629a1.658,1.658,0,0,1,2.288.535,1.661,1.661,0,0,1-.536,2.288q-2.8,1.741-5.55,3.571A1.652,1.652,0,0,1,574.73-415.59Zm223.556-1.871a1.651,1.651,0,0,1-.9-.263q-2.783-1.788-5.626-3.487a1.662,1.662,0,0,1-.575-2.279,1.662,1.662,0,0,1,2.278-.574q2.891,1.726,5.718,3.544a1.663,1.663,0,0,1,.5,2.3A1.661,1.661,0,0,1,798.286-417.462Zm-207.158-7.985a1.664,1.664,0,0,1-1.465-.873,1.663,1.663,0,0,1,.674-2.251q2.949-1.589,5.953-3.084a1.663,1.663,0,0,1,2.227.747,1.664,1.664,0,0,1-.747,2.228q-2.956,1.469-5.856,3.033A1.652,1.652,0,0,1,591.127-425.447Zm190.56-1.614a1.636,1.636,0,0,1-.76-.187q-2.94-1.519-5.932-2.946a1.661,1.661,0,0,1-.786-2.214,1.661,1.661,0,0,1,2.214-.785c2.014.958,4.041,1.965,6.029,2.994a1.664,1.664,0,0,1,.714,2.239A1.664,1.664,0,0,1,781.687-427.06Zm-173.323-6.656a1.661,1.661,0,0,1-1.531-1.015,1.659,1.659,0,0,1,.882-2.177q3.08-1.3,6.209-2.509a1.662,1.662,0,0,1,2.148.954,1.661,1.661,0,0,1-.954,2.147q-3.079,1.184-6.108,2.468A1.677,1.677,0,0,1,608.364-433.716Zm155.889-1.343a1.638,1.638,0,0,1-.621-.122c-2.03-.819-4.112-1.618-6.187-2.375a1.661,1.661,0,0,1-.991-2.13,1.663,1.663,0,0,1,2.13-.991c2.109.77,4.226,1.582,6.29,2.415a1.664,1.664,0,0,1,.92,2.163A1.664,1.664,0,0,1,764.253-435.059Zm-137.939-5.272a1.665,1.665,0,0,1-1.584-1.162,1.662,1.662,0,0,1,1.084-2.085q3.2-1.011,6.44-1.918a1.66,1.66,0,0,1,2.047,1.152,1.661,1.661,0,0,1-1.152,2.047q-3.189.893-6.335,1.886A1.649,1.649,0,0,1,626.314-440.331Zm119.841-1.044a1.67,1.67,0,0,1-.472-.069q-3.161-.938-6.368-1.776a1.66,1.66,0,0,1-1.187-2.027,1.664,1.664,0,0,1,2.028-1.187q3.258.851,6.471,1.806a1.661,1.661,0,0,1,1.122,2.064A1.664,1.664,0,0,1,746.155-441.375Zm-101.328-3.857a1.66,1.66,0,0,1-1.622-1.313,1.66,1.66,0,0,1,1.275-1.973q3.276-.7,6.59-1.3A1.656,1.656,0,0,1,653-448.481a1.662,1.662,0,0,1-1.34,1.931q-3.26.589-6.483,1.28A1.627,1.627,0,0,1,644.826-445.232Zm82.731-.718a1.63,1.63,0,0,1-.321-.031q-3.234-.636-6.506-1.168a1.66,1.66,0,0,1-1.374-1.907,1.658,1.658,0,0,1,1.906-1.372q3.325.54,6.614,1.185a1.662,1.662,0,0,1,1.31,1.951A1.662,1.662,0,0,1,727.558-445.95Zm-63.84-2.418a1.662,1.662,0,0,1-1.648-1.467,1.663,1.663,0,0,1,1.455-1.844q3.326-.391,6.683-.678a1.658,1.658,0,0,1,1.8,1.514,1.661,1.661,0,0,1-1.514,1.8q-3.3.28-6.576.668A1.705,1.705,0,0,1,663.718-448.368Zm44.9-.386c-.055,0-.111,0-.167-.008q-3.28-.33-6.587-.555a1.66,1.66,0,0,1-1.546-1.77,1.671,1.671,0,0,1,1.77-1.545q3.36.228,6.694.563a1.663,1.663,0,0,1,1.488,1.82A1.661,1.661,0,0,1,708.614-448.755Zm-25.792-.97a1.661,1.661,0,0,1-1.66-1.62,1.662,1.662,0,0,1,1.62-1.7q2.569-.063,5.152-.065l1.567.007a1.661,1.661,0,0,1,1.649,1.674,1.661,1.661,0,0,1-1.662,1.648h-.013l-1.539-.005q-2.543,0-5.073.064Z" transform="translate(2.356 1.357)"/><path class="c" d="M844.8-189.308a4.2,4.2,0,0,1,5.738,1.515,4.2,4.2,0,0,1-1.515,5.738,4.2,4.2,0,0,1-5.738-1.515A4.2,4.2,0,0,1,844.8-189.308Zm-6.619-15.457a21.008,21.008,0,0,0-3.555,2.07l1.1,3.118a17.785,17.785,0,0,0-2.791,2.812l-3.126-1.077a20.944,20.944,0,0,0-2.045,3.57l2.512,2.151a17.882,17.882,0,0,0-1.012,3.829l-3.246.63a21.056,21.056,0,0,0,.015,4.115l3.251.606a17.856,17.856,0,0,0,1.04,3.822l-2.5,2.168a21.016,21.016,0,0,0,2.07,3.556l3.118-1.1a17.869,17.869,0,0,0,2.812,2.79l-1.078,3.127a21.01,21.01,0,0,0,3.57,2.044l2.15-2.512a17.909,17.909,0,0,0,3.83,1.012l.63,3.245a20.981,20.981,0,0,0,4.115-.014l.606-3.251a17.859,17.859,0,0,0,3.823-1.04l2.168,2.5a20.928,20.928,0,0,0,3.556-2.07l-1.1-3.118a17.871,17.871,0,0,0,2.79-2.812l3.127,1.078a21.017,21.017,0,0,0,2.044-3.57l-2.512-2.15a17.91,17.91,0,0,0,1.012-3.831l3.246-.629a20.99,20.99,0,0,0-.014-4.115l-3.251-.606a17.857,17.857,0,0,0-1.04-3.822l2.5-2.168a21.016,21.016,0,0,0-2.07-3.556l-3.119,1.1a17.823,17.823,0,0,0-2.811-2.79l1.079-3.127a21.061,21.061,0,0,0-3.571-2.044l-2.15,2.512a17.8,17.8,0,0,0-3.831-1.011l-.629-3.247a20.9,20.9,0,0,0-4.115.015l-.606,3.25a17.856,17.856,0,0,0-3.823,1.04Z" transform="translate(29.385 20.722)"/><path class="d" d="M778.536-423.406a8.617,8.617,0,0,1,12.176.293,8.617,8.617,0,0,1-.293,12.176,8.617,8.617,0,0,1-12.176-.293A8.617,8.617,0,0,1,778.536-423.406Zm-5.672-8.633a18.893,18.893,0,0,0-2.678,2.551l1.612,2.5a16.036,16.036,0,0,0-1.854,3.041l-2.959-.291a18.941,18.941,0,0,0-1.043,3.548l2.645,1.357a16.042,16.042,0,0,0-.085,3.56l-2.708,1.227a18.891,18.891,0,0,0,.872,3.595l2.969-.148a15.965,15.965,0,0,0,1.705,3.126l-1.731,2.417a18.9,18.9,0,0,0,2.552,2.678l2.5-1.614a15.959,15.959,0,0,0,3.04,1.855l-.291,2.959a18.913,18.913,0,0,0,3.549,1.043l1.357-2.645a16.036,16.036,0,0,0,3.559.085l1.229,2.708a18.9,18.9,0,0,0,3.595-.872l-.149-2.969a15.95,15.95,0,0,0,3.127-1.706l2.417,1.731a18.838,18.838,0,0,0,2.678-2.551l-1.614-2.5a15.991,15.991,0,0,0,1.855-3.04l2.958.291a18.839,18.839,0,0,0,1.043-3.549l-2.646-1.357a16.046,16.046,0,0,0,.086-3.56l2.707-1.227a18.889,18.889,0,0,0-.87-3.595l-2.969.148a16.027,16.027,0,0,0-1.706-3.126l1.731-2.417a18.723,18.723,0,0,0-2.552-2.677l-2.5,1.611a16.043,16.043,0,0,0-3.041-1.854l.291-2.959A18.947,18.947,0,0,0,788-435.706l-1.357,2.645a16.046,16.046,0,0,0-3.56-.085l-1.227-2.707a18.816,18.816,0,0,0-3.595.87l.148,2.969a16.027,16.027,0,0,0-3.126,1.705Z" transform="translate(24.66 2.713)"/><path class="e" d="M533.272-389.492a2.751,2.751,0,0,1-.089,3.889,2.752,2.752,0,0,1-3.889-.087,2.753,2.753,0,0,1,.088-3.89A2.753,2.753,0,0,1,533.272-389.492Zm8.84-6.581a13.731,13.731,0,0,0-1.864-1.949l-1.818,1.178a11.675,11.675,0,0,0-2.219-1.349l.209-2.157a13.714,13.714,0,0,0-2.589-.756l-.987,1.93a11.667,11.667,0,0,0-2.6-.059l-.9-1.973a13.679,13.679,0,0,0-2.62.639l.111,2.165a11.7,11.7,0,0,0-2.277,1.247l-1.765-1.26a13.726,13.726,0,0,0-1.95,1.863l1.179,1.819a11.682,11.682,0,0,0-1.349,2.22l-2.157-.209a13.777,13.777,0,0,0-.757,2.589l1.931.986a11.6,11.6,0,0,0-.059,2.6l-1.973.9a13.671,13.671,0,0,0,.639,2.62l2.165-.111a11.62,11.62,0,0,0,1.247,2.278l-1.26,1.765a13.782,13.782,0,0,0,1.863,1.949l1.82-1.179a11.7,11.7,0,0,0,2.217,1.349l-.208,2.158a13.779,13.779,0,0,0,2.589.757l.986-1.931a11.6,11.6,0,0,0,2.6.058l.9,1.974a13.767,13.767,0,0,0,2.62-.64l-.111-2.164A11.734,11.734,0,0,0,538-378.023l1.764,1.26a13.806,13.806,0,0,0,1.95-1.864l-1.178-1.818a11.7,11.7,0,0,0,1.348-2.219l2.157.208a13.684,13.684,0,0,0,.757-2.588l-1.93-.987a11.663,11.663,0,0,0,.059-2.6l1.973-.9a13.79,13.79,0,0,0-.64-2.62l-2.164.111a11.732,11.732,0,0,0-1.247-2.278Z" transform="translate(5.163 5.435)"/><g transform="translate(666.487 -67.702)"><g transform="translate(35.428 16.772)"><path class="b" d="M695.387-76.764l-9.441,1.477-2.24-3.156s2.8-3.14,3.155-3.043,4.458,2.406,5.174,2.813,3.352,1.909,3.352,1.909" transform="translate(-683.706 81.488)"/></g><path class="f" d="M650.875-68.846a.705.705,0,0,1,.273-.72L688.813-96.9a.7.7,0,0,1,.781-.03.7.7,0,0,1,.328.709l-1.337,8.541a2.114,2.114,0,0,0,.593,1.82l9.14,9.136a.7.7,0,0,1,.139.8.711.711,0,0,1-.7.4l-8.4-.791a.7.7,0,0,0-.6.237.7.7,0,0,0-.155.622l3.272,14.1a.707.707,0,0,1-.1.549.871.871,0,0,1-.08.1.7.7,0,0,1-.642.2l-39.626-7.8A.7.7,0,0,1,650.875-68.846Z" transform="translate(-650.859 97.038)"/><g transform="translate(0.002 10.161)"><path class="g" d="M650.9-69.949l37.733-17.669a2.107,2.107,0,0,0,.549,1.013l9.14,9.136a.7.7,0,0,1,.139.8.711.711,0,0,1-.7.4l-8.4-.791a.683.683,0,0,0-.169.024l-.029-.012-38.281,7.457A.708.708,0,0,1,650.9-69.949Z" transform="translate(-650.86 87.618)"/></g></g><g transform="translate(495.762 -371.371)"><g transform="translate(75.582 23.257)"><path class="h" d="M579.983-324.659c-.257-.881-1.049-11.491-3.482-15.88s-6.451-10.691-7.315-13.223c-1.016-2.98-3.316-5.806-1.5.65a61.077,61.077,0,0,0,2.673,7.809c.263.425-.251-.3-1.651-3.625-1.49-3.538-2.008,1.459-1.1,3.153,0,0,.253.182-.869-2.291-.952-2.1-3.506-1.367-1.372,2.918-.038.076-1.739-3.2-2.261-2.631-1.268,1.391.343,5.164,1.842,7.532,2.924,4.617,7.19,9.007,8.346,12.973Z" transform="translate(-562.647 357.021)"/><path class="h" d="M576.759-338.846s.85-5.012-.108-7.234c-1.131-2.621-1.612-2.129-4.078-3.475-1.4-.866-1.718.656,1.663,2.773.6,1.948-1.65,2.511-1.553,3.862s1.033,4.954,1.886,5.432S576.759-338.846,576.759-338.846Z" transform="translate(-561.946 357.589)"/><path class="i" d="M573.3-344.548s-2.105,3.064-2.155,5.273S569.194-345.8,573.3-344.548Z" transform="translate(-562.018 357.992)"/></g><g transform="translate(82.558)"><path class="j" d="M700.644-342.093s-1.007,11.246,5.929,17.465-15.987,0-15.987,0,4.266-10.772,3.309-17.465S700.644-342.093,700.644-342.093Z" transform="translate(-559.57 381.217)"/><ellipse class="k" cx="12.128" cy="16.547" rx="12.128" ry="16.547" transform="translate(125.287 10.391)"/><path class="l" d="M604.951-271.5c18.36-38.4,51.126-55.925,72.046-60.577,9.056-2.018,15.891-1.621,18.387.534a13.562,13.562,0,0,0,8.466,3.289,18.355,18.355,0,0,0,4.753-.433,23.63,23.63,0,0,0,5.039-1.714c.774-.359,1.225-.617,1.225-.617a49.142,49.142,0,0,1,12.8.765c47.33,9.267,55.565,88.627,55.142,95.453-.259,4.062-4.459,22.468-9.709,38.828-4.3,13.43-9.323,25.489-13.45,27.156-9.156,3.684-78.291,8.742-92.505,1.962-.331-.248-.69-.516-1.031-.81-5.334-4.339-11.119-12.906-14.187-20.93,0-.009-8.171-23.038-9.839-27.727-.018-.046-.027-.083-.045-.121-.056-.183-.12-.359-.184-.524-.018-.065-.046-.12-.065-.184" transform="translate(-566.299 382.135)"/><path class="m" d="M639.116-224.388c.019.065.046.12.065.184.065.165.129.341.184.524.018.038.028.074.046.121,1.667,4.689,9.838,27.718,9.838,27.727,3.067,8.024,8.853,16.591,14.187,20.93-3.621-13.109-14.9-51.107-14.472-66.418C646.808-226.563,639.116-224.4,639.116-224.388Z" transform="translate(-563.614 389.37)"/><path class="m" d="M742.025-276.521s-22.911,68.393,40.655,97.439l1.292.86-.329-16.087s-29.952-41.8-30.065-42.872S742.025-276.521,742.025-276.521Z" transform="translate(-555.844 386.604)"/><path class="m" d="M699.4-325.54c.038,1.1-.543,1.814-2.3,1.575-5.49-.746-11.69-.589-16.194,1.474a3.827,3.827,0,0,1-3.7-.157c-2.883-1.685-4.67-6.715-5.38-8.945a1.535,1.535,0,0,1-.073-.487c9.056-2.018,15.891-1.621,18.387.534a13.562,13.562,0,0,0,8.466,3.289A7.471,7.471,0,0,1,699.4-325.54Z" transform="translate(-561.05 382.135)"/><g transform="translate(122.482)"><g transform="translate(2.56 4.614)"><path class="n" d="M692.614-361.479s21,11.641,14.765-7.05C703.067-381.46,678.3-369.812,692.614-361.479Z" transform="translate(-684.799 374.306)"/><path class="n" d="M695.906-366.006s-11.748,6.97-10.614,13.962c0,0-2.591-20.876,9.09-21.4s16.2.6,15.166,22.678C709.548-350.766,706.154-368.327,695.906-366.006Z" transform="translate(-685.047 374.367)"/></g><path class="n" d="M693.23-372.911s.59-6.5,7.039-5.584,9.211,4.606,10.132,8.291,1.843,6.448,2.764,6.448c0,0-2.764,2.763-3.685,1.842,0,0,2.391,6.626-.646,12.064,0,0-1.2-8.378-5.8-9.3S693.23-372.911,693.23-372.911Z" transform="translate(-681.845 378.584)"/><path class="n" d="M694.649-373.334s-4.605-2.763-9.212,3.686l-2.763,5.527s.921.921,2.763,0c0,0-.839,6.491.041,10.154l2.723-11.075Z" transform="translate(-682.674 378.95)"/></g><path class="m" d="M767.023-207.457s-11.85-24.852-72.6,17.865,57.021-10.481,57.021-10.481Z" transform="translate(-560.637 391.466)"/><path class="l" d="M644.912-216.078s-56.073,23.788-69.678-27.516.547-63.607-4.986-88.58l9.02-4.343s33.947,20.93,45.568,53.243S644.912-216.078,644.912-216.078Z" transform="translate(-569.115 381.889)"/></g><path class="o" d="M492.571-123.886H877.585l-58.123-53.671H544.316l-3.61,6.623Z" transform="translate(-492.571 394.38)"/><path class="m" d="M640.509-177.557c4.869,5.083,17.541,13.877,48.279,16.726,44.145,4.086,106.022-16.726,106.022-16.726Z" transform="translate(-480.947 394.38)"/><g transform="translate(178.57 48.677)"><g transform="translate(0 161.597)"><path class="h" d="M694.945-171.532c-.873-.293-10.089-5.812-15.086-6.273s-12.469-.671-15.049-1.4c-3.034-.862-3.8.343-.3,1.677a49.23,49.23,0,0,0,7.958,2.254c.5.02-2.756-.417-6.294-1.151-3.762-.78-7.842-1.84-8.029-1.17-.362,1.3,10.473,4.222,12.382,4.428a48.12,48.12,0,0,1-5.033-.609c-2.271-.4-4.874-1.208-5.386-.737-.806.743,4.933,2.994,9.677,3.652.082.153-1.45.394-7.031-.766-.561-.116-1.989.128-.152.978,3.866,1.787,5.4,2.841,11,3.016,5.463.17,11.493-.953,15.423.363Z" transform="translate(-658.132 183.954)"/><path class="h" d="M681.446-176.988s-4.23-4.443-8.979-5.176c-2.824-.435-2.757-1.147-3.239-1.358-1.6-.7-.051,2.263,2.347,3.023,1.949.618,3.038,3.949,4.21,4.655s4.678,2,5.552,1.545S681.446-176.988,681.446-176.988Z" transform="translate(-657.311 183.629)"/></g><path class="l" d="M769.175-318.479c17.352,15.525,29.358,29.945,36.848,77.379,3.8,24.066,2.81,48.132,1.821,60.823a15,15,0,0,1-10.3,13.039c-54.365,17.931-112.395,14.35-112.395,14.35-3.114-1.158.244-12.422.244-12.422,27.814-37.748,67.565-31.4,78.26-38.022,3.336-19.568-23.544-44.053-26.714-56.192-8.3-31.831-35.627-59.377-28.557-71.853C710.82-335.691,751.673-334.139,769.175-318.479Z" transform="translate(-656.113 333.453)"/></g><rect class="p" width="385.013" height="12.98" transform="translate(0 270.494)"/><g transform="translate(110.518 141.606)"><g transform="translate(143.254 50.16)"><path class="q" d="M728.841-199.148h0a.471.471,0,0,0,.278-.6l-.382-1.038-.882.325.383,1.038A.47.47,0,0,0,728.841-199.148Z" transform="translate(-727.855 200.789)"/></g><g transform="translate(138.347 51.961)"><path class="q" d="M724.286-197.471h0a.47.47,0,0,0,.278-.6l-.382-1.038c-.026-.07-.878.334-.878.334l.379,1.028A.47.47,0,0,0,724.286-197.471Z" transform="translate(-723.305 199.12)"/></g><g transform="translate(143.284 49.551)"><path class="r" d="M728.934-199.307h0a.473.473,0,0,0,.278-.6l-.418-1.136a.471.471,0,0,0-.6-.278h0a.471.471,0,0,0-.278.6l.419,1.136A.471.471,0,0,0,728.934-199.307Z" transform="translate(-727.883 201.354)"/></g><g transform="translate(138.382 51.356)"><path class="r" d="M724.389-197.634h0a.47.47,0,0,0,.278-.6l-.418-1.136a.47.47,0,0,0-.6-.278h0a.471.471,0,0,0-.278.6l.419,1.136A.47.47,0,0,0,724.389-197.634Z" transform="translate(-723.338 199.68)"/></g><g transform="translate(142.627 62.437)"><rect class="s" width="3.079" height="1.996" transform="translate(0 1.064) rotate(-20.217)"/></g><g transform="translate(141.31 59.136)"><rect class="s" width="3.079" height="1.996" transform="translate(0 1.064) rotate(-20.217)"/></g><g transform="translate(0 84.31)"><path class="t" d="M598.846-128.694H755.259a3.477,3.477,0,0,0,3.757-3.427v-2.344L741.894-166.1a5.449,5.449,0,0,0-4.881-3.025H617.319c-2.234,0-7.159,4.4-8.157,6.4l-14.124,28.794v1.033C595-129.9,596.942-128.694,598.846-128.694Z" transform="translate(-595.038 169.127)"/></g><g transform="translate(0 80.998)"><path class="u" d="M598.833-131.765H755.245c1.737,0,4.6-1.523,3.522-3.4L741.88-169.172A5.448,5.448,0,0,0,737-172.2H617.305a5.893,5.893,0,0,0-5.273,3.261L595.316-135.49C594.145-133.357,596.928-131.765,598.833-131.765Z" transform="translate(-595.038 172.198)"/></g><g transform="translate(18.779)"><rect class="u" width="128.089" height="80.939" rx="4.342"/></g><g transform="translate(23.743 4.415)"><rect class="t" width="118.208" height="70.134"/></g><g transform="translate(58.429 105.721)"><path class="t" d="M650.111-135.038H696.2a.83.83,0,0,0,.82-.962l-1.943-12.14a1.35,1.35,0,0,0-1.333-1.136H652.173A1.185,1.185,0,0,0,651-148.261l-1.782,12.207A.9.9,0,0,0,650.111-135.038Z" transform="translate(-649.21 149.276)"/></g><g transform="translate(17.592 86.594)"><path class="v" d="M613.794-150.387H739.017c1.389,0,2.449-.534,2.229-1.124l-5.281-14.171c-.285-.765-1.82-1.327-3.622-1.327H619.4c-1.6,0-2.959.5-3.189,1.184l-4.841,14.252C611.18-150.944,612.319-150.387,613.794-150.387Z" transform="translate(-611.348 167.009)"/></g><g transform="translate(17.263 83.43)"><g transform="translate(0 5.606)"><rect class="u" width="130.587" height="0.66" transform="translate(130.587 0.66) rotate(-180)"/></g><g transform="translate(0 8.904)"><rect class="u" width="130.587" height="0.66" transform="translate(130.587 0.66) rotate(-180)"/></g><g transform="translate(0 12.861)"><rect class="u" width="130.587" height="0.66" transform="translate(130.587 0.66) rotate(-180)"/></g><g transform="translate(0 16.488)"><rect class="u" width="130.587" height="0.66" transform="translate(130.587 0.66) rotate(-180)"/></g><g transform="translate(113.828 0.352)"><rect class="u" width="0.989" height="21.764" transform="translate(7.466 20.764) rotate(162.561)"/></g><g transform="translate(104.265 0.352)"><rect class="u" width="0.989" height="21.764" transform="translate(7.466 20.764) rotate(162.561)"/></g><g transform="translate(96.68 0.352)"><rect class="u" width="0.989" height="21.764" transform="translate(7.466 20.764) rotate(162.561)"/></g><g transform="translate(89.095 0.352)"><rect class="u" width="0.989" height="21.764" transform="translate(7.466 20.764) rotate(162.561)"/></g><g transform="translate(81.181 0.352)"><rect class="u" width="0.989" height="21.764" transform="translate(7.466 20.764) rotate(162.561)"/></g><g transform="translate(73.123 0.105)"><rect class="u" width="0.989" height="21.764" transform="translate(5.116 21.366) rotate(169.022)"/></g><g transform="translate(66.283 0)"><rect class="u" width="0.989" height="21.764" transform="translate(0.989 21.764) rotate(-180)"/></g><g transform="translate(8.633 0.352)"><rect class="u" width="0.989" height="21.764" transform="translate(0.944 21.061) rotate(-162.561)"/></g><g transform="translate(17.866 0.352)"><rect class="u" width="0.989" height="21.764" transform="translate(0.944 21.061) rotate(-162.561)"/></g><g transform="translate(27.1 0.352)"><rect class="u" width="0.989" height="21.764" transform="translate(0.944 21.061) rotate(-162.561)"/></g><g transform="translate(36.333 0.352)"><rect class="u" width="0.989" height="21.764" transform="translate(0.944 21.061) rotate(-162.561)"/></g><g transform="translate(45.567 0.352)"><rect class="u" width="0.989" height="21.764" transform="translate(0.944 21.061) rotate(-162.561)"/></g><g transform="translate(54.8 0.352)"><rect class="u" width="0.989" height="21.764" transform="translate(0.944 21.061) rotate(-162.561)"/></g></g></g><rect class="w" width="58.14" height="52.27" transform="translate(164.622 158.307)"/><g transform="translate(167.558 204.602)"><rect class="g" width="3.384" height="3.214" transform="translate(4.628)"/><rect class="f" width="3.384" height="3.214" transform="translate(9.255)"/><rect class="b" width="3.384" height="3.214"/><rect class="x" width="3.384" height="3.214" transform="translate(13.883)"/></g><g transform="translate(168.541 162.613)"><path class="x" d="M674.919-200.437a8.8,8.8,0,0,1-1.979-.232v8.632h15.575v-15.575h-4.933A8.82,8.82,0,0,1,674.919-200.437Z" transform="translate(-646.939 229.406)"/><path class="g" d="M675.771-223.439l-7,10.071a8.808,8.808,0,0,0,4.809,2.96v-6.943h10.64a8.8,8.8,0,0,0,.16-1.646,8.82,8.82,0,0,0-8.821-8.821,8.807,8.807,0,0,0-7.612,4.379Z" transform="translate(-647.331 227.818)"/><path class="y" d="M672.474-201.8a8.873,8.873,0,0,0,1.98.231,8.819,8.819,0,0,0,8.661-7.174H672.474Z" transform="translate(-646.975 229.317)"/><path class="f" d="M662.067-210.531H648.833l10.435,15.281,3.622-5.21a8.784,8.784,0,0,1-2.032-5.63A8.77,8.77,0,0,1,662.067-210.531Z" transform="translate(-648.833 229.176)"/><path class="z" d="M663.074-210.689a8.763,8.763,0,0,0-1.208,4.442,8.78,8.78,0,0,0,2.031,5.629l7-10.071Z" transform="translate(-647.809 229.164)"/></g><g transform="translate(166.385 160.531)"><g transform="translate(52.712 40.774)"><path class="g" d="M697-190.649h-1.3v-.864h.432v-.432H697Z" transform="translate(-695.707 191.945)"/></g><g transform="translate(3.07 41.205)"><path class="g" d="M697.551-190.68h-1.773v-.865h1.773Zm-3.545,0h-1.773v-.865h1.773Zm-3.546,0h-1.773v-.865h1.773Zm-3.546,0h-1.773v-.865h1.773Zm-3.545,0h-1.773v-.865h1.773Zm-3.546,0h-1.773v-.865h1.773Zm-3.546,0H674.5v-.865h1.773Zm-3.545,0h-1.772v-.865h1.772Zm-3.545,0h-1.773v-.865h1.773Zm-3.546,0h-1.773v-.865h1.773Zm-3.546,0h-1.772v-.865h1.772Zm-3.545,0h-1.773v-.865h1.773Zm-3.546,0h-1.773v-.865H655Zm-3.546,0h-1.772v-.865h1.772Z" transform="translate(-649.681 191.545)"/></g><g transform="translate(0 40.774)"><path class="g" d="M648.131-190.649h-1.3v-1.3h.864v.432h.432Z" transform="translate(-646.835 191.945)"/></g><g transform="translate(0 3.013)"><path class="g" d="M647.7-190.91h-.864v-1.717h.864Zm0-3.433h-.864v-1.717h.864Zm0-3.433h-.864v-1.716h.864Zm0-3.432h-.864v-1.717h.864Zm0-3.433h-.864v-1.717h.864Zm0-3.433h-.864v-1.716h.864Zm0-3.433h-.864v-1.716h.864Zm0-3.432h-.864v-1.717h.864Zm0-3.433h-.864v-1.717h.864Zm0-3.433h-.864v-1.716h.864Zm0-3.433h-.864v-1.716h.864Z" transform="translate(-646.835 226.955)"/></g><path class="g" d="M647.7-228.452h-.864v-1.3h1.3v.864H647.7Z" transform="translate(-646.835 229.748)"/><g transform="translate(3.07 0)"><path class="g" d="M697.551-228.884h-1.773v-.864h1.773Zm-3.545,0h-1.773v-.864h1.773Zm-3.546,0h-1.773v-.864h1.773Zm-3.546,0h-1.773v-.864h1.773Zm-3.545,0h-1.773v-.864h1.773Zm-3.546,0h-1.773v-.864h1.773Zm-3.546,0H674.5v-.864h1.772Zm-3.545,0h-1.772v-.864h1.772Zm-3.545,0h-1.773v-.864h1.773Zm-3.546,0h-1.773v-.864h1.773Zm-3.546,0h-1.772v-.864h1.772Zm-3.545,0h-1.773v-.864h1.773Zm-3.546,0h-1.773v-.864H655Zm-3.546,0h-1.772v-.864h1.772Z" transform="translate(-649.681 229.748)"/></g><g transform="translate(52.712)"><path class="g" d="M697-228.452h-.864v-.432h-.432v-.864H697Z" transform="translate(-695.707 229.748)"/></g><g transform="translate(53.145 3.013)"><path class="g" d="M696.972-190.91h-.864v-1.717h.864Zm0-3.433h-.864v-1.717h.864Zm0-3.433h-.864v-1.716h.864Zm0-3.433h-.864v-1.716h.864Zm0-3.432h-.864v-1.717h.864Zm0-3.433h-.864v-1.716h.864Zm0-3.433h-.864v-1.716h.864Zm0-3.433h-.864v-1.716h.864Zm0-3.432h-.864v-1.717h.864Zm0-3.433h-.864v-1.716h.864Zm0-3.433h-.864v-1.716h.864Z" transform="translate(-696.108 226.955)"/></g></g></g><g transform="translate(633.501 -470.379)"><g transform="translate(6.79 2.307)"><path class="e" d="M635.773-444.207a18.323,18.323,0,0,0,8.148,11.105,18.659,18.659,0,0,0,11.261,2.9c4.5.163,11.146-.217,21.7,4.441a2.567,2.567,0,0,0,1.19,2.4,2.576,2.576,0,0,0,3.56-.8,2.593,2.593,0,0,0,.319-2l-24.172-15.223a4.166,4.166,0,0,1-4.894.351,4.177,4.177,0,0,1-1.306-5.752,4.174,4.174,0,0,1,5.749-1.3,4.159,4.159,0,0,1,1.744,4.738l24.088,15.17a2.546,2.546,0,0,0,1.724-1.157,2.578,2.578,0,0,0-.8-3.56,2.571,2.571,0,0,0-2.687-.025c-9.644-8.269-11.732-14.9-14.011-18.8a18.767,18.767,0,0,0-6.91-7.652,18.36,18.36,0,0,0-13.434-2.575l-6.741-5.28s-2-2.337-3.516.085-7.365,11.681-9.613,15.263c-1.956,3.128,1.52,4.163,1.52,4.163Z" transform="translate(-626.572 468.24)"/></g><path class="e" d="M636.529-465.4a1.538,1.538,0,0,1,.478,2.11l-6.375,10.127a1.534,1.534,0,0,1-2.109.476l-7.534-4.74a1.534,1.534,0,0,1-.479-2.109l6.38-10.125a1.533,1.533,0,0,1,2.105-.484Z" transform="translate(-620.276 470.379)"/></g><g transform="translate(451.967 -280.339)"><path class="d" d="M519.392-277.427c2.773-1.03,5.387-.5,5.806,1.378s-1.722,4.435-4.747,5.5-5.555.219-5.725-1.705,1.891-4.144,4.666-5.177Zm-36.066,10.788c-1.664,6.093-.781,12.3,2.8,16.143,4.113,4.415,11.43,6.066,20.543,3.221,21.319-6.663,27.966-23.6,27.338-33.333-.512-7.959-5.932-11.551-11.438-4.97-2.706,3.23-5.476,4.313-7.074,2.522s-.038-3.569,2.166-6.666c4.212-5.916-4.023-5.116-10.611-2.377a44.047,44.047,0,0,0-14.438,9.949,35.731,35.731,0,0,0-9.283,15.512Zm27.182.883c3.142-1.1,5.946-.334,6.19,1.982s-2.418,5.365-5.858,6.5-6.1-.07-6.043-2.427,2.571-4.954,5.711-6.061Zm-6.923-17.7c.086-1.441,1.963-3.247,4.247-4.172s4.231-.643,4.313.758-1.882,3.433-4.335,4.4-4.316.462-4.226-.983Zm-6.638,13.99c-.222,1.8-2.3,4.069-4.577,4.9s-3.751-.12-3.367-1.941,2.355-3.829,4.467-4.634,3.7-.125,3.477,1.672Zm4.638,7.965c-.124,2.081-2.428,4.67-5.067,5.569s-4.445-.247-4.118-2.353,2.5-4.361,4.933-5.237h0C499.773-264.4,501.708-263.583,501.585-261.505Z" transform="translate(-449.566 294.184)"/><path class="c" d="M455.053-283.281c1,1.159,23.941,33.947,29.708,42.193-.159.019-.317.046-.478.079a7.467,7.467,0,0,0-4.979,3.478c-5.3-8.6-26.275-42.6-26.944-43.98C451.086-284.13,453.149-285.49,455.053-283.281Z" transform="translate(-451.967 294.954)"/><path class="c" d="M489.067-239.743c2.3,3.906,1.042,7.809,6.894,10.665-6.2.235-15.277-1-17.868-7.577C476.138-241.615,484.993-246.666,489.067-239.743Z" transform="translate(-449.935 298.196)"/></g><g transform="translate(856.29 -315.821)"><g transform="translate(0 2.397)"><path class="g" d="M845.207-306.143a19.387,19.387,0,0,1,8.265-18.716q-14.083,5.226-26.639,21.305,16.509,11.987,31.488,13.114A19.386,19.386,0,0,1,845.207-306.143Z" transform="translate(-826.833 324.859)"/></g><g transform="translate(43.654)"><path class="g" d="M880.421-311.378a19.383,19.383,0,0,1-8.265,18.715q14.085-5.226,26.639-21.3-16.509-11.988-31.488-13.114A19.383,19.383,0,0,1,880.421-311.378Z" transform="translate(-867.307 327.081)"/></g><g transform="translate(24.3 5.136)"><path class="x" d="M860.783-322.187a13.208,13.208,0,0,0-5.564,2.133,5.626,5.626,0,0,1,6.024,4.82,5.631,5.631,0,0,1-4.791,6.363,5.627,5.627,0,0,1-6.326-4.6,13.2,13.2,0,0,0-.632,6.279,13.27,13.27,0,0,0,14.992,11.288A13.27,13.27,0,0,0,875.774-310.9,13.27,13.27,0,0,0,860.783-322.187Z" transform="translate(-849.363 322.319)"/></g></g><path class="d" d="M519.785-151.547a2.652,2.652,0,0,1,3.749.091,2.652,2.652,0,0,1-.09,3.749,2.653,2.653,0,0,1-3.75-.091A2.653,2.653,0,0,1,519.785-151.547Zm-6.334-8.532a13.223,13.223,0,0,0-1.882,1.794l1.134,1.756a11.27,11.27,0,0,0-1.3,2.137l-2.08-.2a13.224,13.224,0,0,0-.732,2.494l1.859.953a11.3,11.3,0,0,0-.061,2.5l-1.9.863a13.281,13.281,0,0,0,.612,2.527l2.087-.1a11.288,11.288,0,0,0,1.2,2.2l-1.218,1.7a13.277,13.277,0,0,0,1.794,1.882l1.755-1.134a11.277,11.277,0,0,0,2.138,1.3l-.2,2.079a13.272,13.272,0,0,0,2.495.733l.953-1.859a11.354,11.354,0,0,0,2.5.06l.863,1.9a13.324,13.324,0,0,0,2.527-.612l-.1-2.087a11.279,11.279,0,0,0,2.2-1.2l1.7,1.217a13.334,13.334,0,0,0,1.882-1.794l-1.134-1.756a11.263,11.263,0,0,0,1.3-2.137l2.081.2a13.214,13.214,0,0,0,.733-2.495l-1.859-.953a11.152,11.152,0,0,0,.059-2.5l1.9-.863a13.2,13.2,0,0,0-.613-2.526l-2.087.1a11.281,11.281,0,0,0-1.2-2.2l1.217-1.7a13.28,13.28,0,0,0-1.794-1.882l-1.756,1.134a11.269,11.269,0,0,0-2.137-1.3l.2-2.079a13.214,13.214,0,0,0-2.495-.733l-.953,1.859a11.288,11.288,0,0,0-2.5-.06l-.863-1.9a13.247,13.247,0,0,0-2.527.613l.1,2.087a11.22,11.22,0,0,0-2.2,1.2Z" transform="translate(4.441 24.172)"/><g transform="translate(453.996 -452.456)"><g transform="translate(8.017 87.931)"><path class="aa" d="M463.931-371.177c-.155-.236-.206-.238-.151,0a1.271,1.271,0,0,0-2.251-.549,1.272,1.272,0,0,0,1.2,1.98c-.24.017-.223.066.05.142a1.016,1.016,0,0,0,1.149-1.569Z" transform="translate(-461.281 372.237)"/></g><g transform="translate(0 116.124)"><path class="aa" d="M455.642-343.529a2.714,2.714,0,0,0,.865-1.707.813.813,0,0,0-1.111-.814,2.725,2.725,0,0,0-1.368,1.341,1,1,0,0,0,1.613,1.181Z" transform="translate(-453.848 346.098)"/></g><g transform="translate(18.542 113.188)"><path class="aa" d="M471.435-347.039a.983.983,0,0,0,1.16-1.584.983.983,0,0,0-1.16,1.584Z" transform="translate(-471.039 348.819)"/></g><g transform="translate(397.828 38.577)"><path class="aa" d="M823.785-415.678l1.189.053a1.2,1.2,0,0,0,1.142-.869,1.3,1.3,0,0,0,0-.63,1.194,1.194,0,0,0-1.142-.869l-1.189.053a1.132,1.132,0,0,0,0,2.263Z" transform="translate(-822.693 417.995)"/></g><g transform="translate(407.867 63.544)"><path class="aa" d="M832.712-393.374a.737.737,0,0,0,0-1.473.737.737,0,0,0,0,1.473Z" transform="translate(-832 394.847)"/></g><g transform="translate(102.346 196.006)"><path class="aa" d="M550.782-271.634a3.161,3.161,0,0,0-1.349-.4.693.693,0,0,0-.693.693,3.157,3.157,0,0,0,.4,1.349c1.011,1.7,3.355-.627,1.644-1.644Z" transform="translate(-548.738 272.035)"/></g><g transform="translate(92.138 185.007)"><path class="aa" d="M540.518-279.651l.495-.04a1.25,1.25,0,0,0,0-2.5l-.495-.039c-1.658-.133-1.661,2.71,0,2.578Z" transform="translate(-539.273 282.233)"/></g><g transform="translate(113.12 138.346)"><path class="aa" d="M559.8-323.268a1.114,1.114,0,0,0,0-2.227,1.114,1.114,0,0,0,0,2.227Z" transform="translate(-558.727 325.495)"/></g><g transform="translate(116.083 147.253)"><path class="aa" d="M562.558-314.991a1.123,1.123,0,0,0,0-2.245,1.123,1.123,0,0,0,0,2.245Z" transform="translate(-561.474 317.236)"/></g><g transform="translate(417.297 231.453)"><path class="aa" d="M841.76-237.066a1.053,1.053,0,0,0,0-2.105,1.053,1.053,0,0,0,0,2.105Z" transform="translate(-840.744 239.171)"/></g><g transform="translate(429.311 231.364)"><path class="aa" d="M853.516-239.252a1.645,1.645,0,0,0-1.508.694.855.855,0,0,0,0,.894,1.644,1.644,0,0,0,1.508.692,1.141,1.141,0,0,0,0-2.28Z" transform="translate(-851.882 239.253)"/></g><g transform="translate(429.262 214.444)"><path class="aa" d="M852.776-252.994a.974.974,0,0,0,0-1.947.974.974,0,0,0,0,1.947Z" transform="translate(-851.836 254.941)"/></g><g transform="translate(485.908 331.859)"><path class="ab" d="M904.475-144.762c-.028.157-.055.315-.083.472a1.965,1.965,0,0,0,1.858,2.44,1.968,1.968,0,0,0,1.858-2.44c-.027-.157-.055-.315-.082-.472-.307-1.757-3.244-1.758-3.552,0Z" transform="translate(-904.356 146.08)"/></g><g transform="translate(39.806 395.849)"><g transform="translate(0 0)"><path class="ab" d="M493.33-81.421c3.431,0,3.436-5.331,0-5.331s-3.436,5.331,0,5.331Z" transform="translate(-490.754 86.752)"/></g></g><g transform="translate(32.06 372.541)"><g transform="translate(0 0)"><path class="ab" d="M484.978-105.451a1.456,1.456,0,0,0,0-2.911,1.456,1.456,0,0,0,0,2.911Z" transform="translate(-483.572 108.362)"/></g></g><g transform="translate(160.55 17.037)"><path class="ab" d="M604.633-433.967c2.572,0,2.577-4,0-4s-2.578,4,0,4Z" transform="translate(-602.701 437.966)"/></g><g transform="translate(162.352)"><path class="ab" d="M606.2-453.725l-.472.082c-1.811.313-1.812,3.346,0,3.659l.472.082a2.02,2.02,0,0,0,2.509-1.911,2.025,2.025,0,0,0-2.509-1.911Z" transform="translate(-604.372 453.761)"/></g></g></g></svg>