<svg xmlns="http://www.w3.org/2000/svg" xmlns:xlink="http://www.w3.org/1999/xlink" width="1366" height="771" viewBox="0 0 1366 771"><defs><style>.a,.v{fill:none;}.b,.e{fill:#000;}.c{fill:#ccc1d8;}.d{fill:#e6def0;}.e{stroke:#5e5587;stroke-width:11px;}.e,.v{stroke-miterlimit:10;}.f{fill:#5e5587;}.g,.m{fill:#caa267;}.g{fill-rule:evenodd;}.h{fill:#979797;}.i{fill:#cacaca;}.j{fill:#2f2f2f;}.k{fill:#7f7f7f;}.l{fill:#c39652;}.n{fill:#c2934e;}.o{fill:#8c7cc9;}.p{fill:#f1c759;}.q{opacity:0.15;}.r{fill:#5e5586;}.s{opacity:0.3;}.t{opacity:0.5;}.u{fill:#f0c659;}.v{stroke:#8c7cc9;stroke-width:0.823px;}.w{fill:#ababab;}.x{fill:#cacbd0;}.y{fill:#363636;}.z{fill:#69676a;}.aa{clip-path:url(#a);}.ab{fill:#b3b3b3;}.ac{fill:#333;}.ad{fill:#d60100;}.ae{fill:#8fff3c;}.af{fill:#e0aa80;}.ag{fill:#5d5e60;}.ah{fill:#5d0012;}.ai{fill:#bd172f;}.aj{fill:#8a0d1f;}.ak{fill:#930027;}.al{fill:#e7cb39;}.am{fill:#f2ec83;}.an{fill:#c173a6;}.ao{fill:#d3abcc;}.ap{fill:#6b9540;}.aq{fill:#97bc45;}.ar{fill:#4c7fca;}.as{fill:#73a8e1;}.at{fill:#416b36;}.au{fill:#4e803f;}.av{fill:#56428c;}.aw{fill:#705b9d;}.ax{fill:#304f99;}.ay{fill:#426eb5;}.az{fill:#c0582f;}.ba{fill:#cb7f33;}.bb{fill:#5f4fa5;}.bc{fill:#d389c8;}.bd{fill:#493b84;}.be{fill:#eabf80;}.bf{fill:#c990ad;}.bg{fill:#7e599a;}</style><clipPath id="a"><path class="a" d="M502.63,2242.536l8.58-26.79,31.88,2.2-8.58,26.79Z"/></clipPath></defs><g transform="translate(0 -1666.266)"><rect class="b" width="1366" height="771" transform="translate(0 1666.266)"/><path class="c" d="M1366,1675.8v758.463l-242.228-67.586-32.991-6.263,1.636-558.092,30.118-25.56Z"/><path class="c" d="M316.3,1791.738l-16.051,556.371L.2,2422.507V1672.454l298.845,93.571Z"/><path class="d" d="M697.978,1755.338H273.37v617.384h849.165V1755.338Z"/><path class="b" d="M0,1727.046c121.657,30.38,335.7,73.888,615,80.372,352.972,8.2,622.429-47.1,751-78.7v-62.455H0Z"/><path class="b" d="M0,2388.95c121.657-29.39,335.7-71.48,615-77.753,352.972-7.927,622.429,45.568,751,76.133v47.19L.2,2437.266Z"/><path class="e" d="M199,1933.266v207l-51,8.1-16,2.53-59,9.37v-247l59,9.37,16,2.53Z"/><path class="f" d="M148,1925.166v223.2l-16,2.53v-228.26Z"/><path class="f" d="M199,1996.086v18.12l-51-5.9-16-1.85-59-6.82v-18.12l59,6.82,16,1.85Z"/><path class="e" d="M1178,1933.266v207l51,8.1,16,2.53,59,9.37v-247l-59,9.37-16,2.53Z"/><path class="f" d="M1229,1925.166v223.2l16,2.53v-228.26Z"/><path class="f" d="M1178,1996.086v18.12l51-5.9,16-1.85,59-6.82v-18.12l-59,6.82-16,1.85Z"/><path class="g" d="M845.25,2189.651c-.595.75-9.249,7.8-11.467,12.524s-5.066,11.948-6.7,14.21c-1.916,2.66-1.01,3.836,1.532.891a51.145,51.145,0,0,0,5.017-6.98c.2-.481-1.382,2.545-3.351,5.744-2.093,3.4-4.572,7.013-3.984,7.432,1.142.814,7.83-8.742,8.708-10.534a50,50,0,0,1-2.377,4.7c-1.2,2.077-2.9,4.337-2.625,5,.441,1.051,4.672-3.762,6.992-8.164.18-.026-.128,1.556-3.235,6.6-.312.507-.578,1.989.9.495,3.115-3.146,4.686-4.268,6.839-9.681,2.1-5.278,3.134-11.569,5.811-14.943Z"/><path class="h" d="M818.681,2206.4l13.583,16.716a2.2,2.2,0,0,0,3.114.363l7.574-6.336a.662.662,0,0,0,.074-.068,2.261,2.261,0,0,0,.173-3.093l-13.583-16.716a2.2,2.2,0,0,0-3.112-.36l-7.07,5.913-.505.42A2.261,2.261,0,0,0,818.681,2206.4Z"/><path class="i" d="M819.06,2206.028l13.693,16.651a2.271,2.271,0,0,0,3.2.31l7.383-6.1a2.267,2.267,0,0,0,.233-3.128l-13.693-16.651a2.271,2.271,0,0,0-3.2-.31l-7.383,6.1A2.268,2.268,0,0,0,819.06,2206.028Z"/><path class="j" d="M820.393,2205.982l11.826,14.381a1.962,1.962,0,0,0,2.762.268l6.376-5.267a1.958,1.958,0,0,0,.2-2.7l-11.826-14.381a1.962,1.962,0,0,0-2.762-.268l-6.376,5.267A1.957,1.957,0,0,0,820.393,2205.982Z"/><circle class="k" cx="0.759" cy="0.759" r="0.759" transform="translate(838.182 2218.138)"/><path class="g" d="M836.346,2198.958s-5.838,2.561-8.235,6.944c-1.424,2.6-2.1,2.288-2.473,2.684-1.253,1.312,2.193.85,3.785-1.224,1.294-1.686,4.933-1.571,6.039-2.467s3.611-3.862,3.473-4.879S836.346,2198.958,836.346,2198.958Z"/><path class="l" d="M980.708,2261.363s-10.215,105.4-5.871,107.213c7.792,3.306,38.308,14.118,4.664,11.742-17.283,1.042-16.015-2.82-16.285-6.092-.22-2.673.287-97-.423-104.336-.159-1.642-.255-2.636-.255-2.636Z"/><path class="m" d="M909.471,2251.507s55.168,89.918,52.257,93.616c-5.2,6.68-26.594,30.978,1.64,12.527,15.605-7.5,12.618-10.258,11.261-13.247-1.109-2.443-9.271-21.122-12.221-27.875-.661-1.513-37.824-75.172-37.824-75.172Z"/><path class="n" d="M951.243,1989.379s-.9,10.043,5.294,15.6-14.276,0-14.276,0,3.809-9.62,2.955-15.6S951.243,1989.379,951.243,1989.379Z"/><ellipse class="m" cx="10.83" cy="14.777" rx="10.83" ry="14.777" transform="translate(937.145 1963.72)"/><path class="o" d="M1018.61,2086.01c-.181,2.8-2.443,13.2-5.626,24.5-.938,3.373-1.966,6.82-3.044,10.176-1.308,4.089-2.69,8.029-4.089,11.509-2.714,6.745-5.495,11.763-7.922,12.742-8.177,3.291-69.915,7.807-82.609,1.753-.3-.223-.617-.461-.921-.724-4.763-3.875-9.929-11.525-12.669-18.691,0-.008-7.3-20.574-8.785-24.761-.017-.041-.025-.074-.041-.107-.05-.164-.107-.321-.165-.469-.016-.057-.041-.107-.058-.164-7.683,26.234-28.125,83.851-44.661,102.1-1.735,1.917-9.723-8.835-9.723-8.835s-13.351-68.945,21.479-141.806c16.4-34.3,45.656-49.942,64.338-54.1,8.087-1.8,14.191-1.448,16.42.477a12.113,12.113,0,0,0,7.56,2.937,16.368,16.368,0,0,0,4.245-.387,21.11,21.11,0,0,0,4.5-1.53c.691-.321,1.094-.551,1.094-.551a43.822,43.822,0,0,1,11.434.683C1011.635,2009.044,1018.989,2079.914,1018.61,2086.01Z"/><path class="p" d="M912.493,2144.258a6.679,6.679,0,0,0,3.789,1.748c8.9.175,47.358.833,68.218-.366,7.36-.423,12.529-1.077,13.436-2.069,0,0,0,.03-.006.084-.054,1.15-.714,14.314-1.64,31.569-1.828,34.063,1.693,82.849,5.806,97.656.888,3.2-46.89-1.645-46.89-1.645-.133-35.152,3.2-96.864,1.048-99.63-2.621-3.365-6.87,50.916-11.742,96.339-18.921,4.936-48.882,1.939-48.536,0C900.09,2244.91,912.493,2144.258,912.493,2144.258Z"/><path class="q" d="M892.686,2101.772c.016.057.041.107.058.164.057.148.115.3.164.469.016.033.025.066.041.107,1.489,4.187,8.786,24.753,8.786,24.761,2.739,7.166,7.905,14.816,12.669,18.691-3.233-11.706-13.311-45.64-12.924-59.312C899.555,2099.83,892.686,2101.764,892.686,2101.772Z"/><path class="q" d="M1012.984,2110.508c-.938,3.373-1.966,6.82-3.044,10.176-1.308,4.089-2.69,8.029-4.089,11.509-24.177-28.949-10.99-68.312-10.99-68.312s10.217,34.172,10.324,35.135C1005.218,2099.361,1008.615,2104.289,1012.984,2110.508Z"/><path class="q" d="M948.812,2004.98c.033.979-.485,1.621-2.057,1.407-4.9-.666-10.439-.526-14.461,1.316a3.416,3.416,0,0,1-3.307-.139c-2.575-1.506-4.171-6-4.8-7.988a1.378,1.378,0,0,1-.065-.436c8.086-1.8,14.19-1.448,16.419.477a12.107,12.107,0,0,0,7.56,2.937A6.656,6.656,0,0,1,948.812,2004.98Z"/><path class="r" d="M972.619,2337.8c-.564-1.427-9.954,3.967-10.423,5.644s-17.151,16.068-13.659,21.458,27.164-13.567,28.957-14.738S973.729,2340.608,972.619,2337.8Z"/><path class="f" d="M962.61,2365.015c-.2-1.522,12.759.409,13.985,1.645s20.093,6.369,19.666,12.777-30.333,1.37-32.469,1.219S963.006,2368.006,962.61,2365.015Z"/><g class="s"><path d="M947.995,2146.346c-.145-.012-.289-.023-.429-.036C947.566,2146.31,947.718,2146.321,947.995,2146.346Z"/><path class="t" d="M947.995,2146.346c11.459.914,36.505-.706,36.505-.706,7.36-.423,12.529-1.077,13.436-2.069,0,0,0,.03-.006.084-.054,1.15-.714,14.314-1.64,31.569a8.45,8.45,0,0,1-1.2-.139,9.376,9.376,0,0,1-6.065-4.309,20.832,20.832,0,0,1-2.358-4.925C978.119,2149.594,951.666,2146.675,947.995,2146.346Z"/></g><path class="u" d="M943.905,1970.015s18.75,10.4,13.185-6.3C953.24,1952.172,931.118,1962.574,943.905,1970.015Z"/><path class="u" d="M946.623,1966.027s-10.49,6.225-9.478,12.469c0,0-2.314-18.643,8.117-19.111s14.47.538,13.544,20.252C958.806,1979.637,955.775,1963.955,946.623,1966.027Z"/><path class="u" d="M944.808,1959.506s.527-5.809,6.285-4.986,8.226,4.113,9.049,7.4,1.645,5.758,2.468,5.758c0,0-2.468,2.468-3.291,1.645,0,0,2.136,5.917-.577,10.774,0,0-1.068-7.483-5.181-8.306S944.808,1959.506,944.808,1959.506Z"/><path class="u" d="M945.335,1959.456s-4.114-2.468-8.227,3.29l-2.468,4.936s.823.823,2.468,0c0,0-.749,5.8.037,9.068l2.431-9.89Z"/><path class="g" d="M1072.073,2196.253c.431.7,7.095,7.6,8.506,11.855s3.1,10.711,4.262,12.807c1.364,2.465.47,3.376-1.4.6a44,44,0,0,1-3.569-6.467c-.119-.431.92,2.313,2.273,5.242,1.439,3.115,3.186,6.45,2.641,6.748-1.057.578-5.789-8.257-6.354-9.877a42.7,42.7,0,0,0,1.547,4.255c.81,1.9,2.036,4,1.729,4.537-.483.851-3.6-3.687-5.132-7.679-.15-.041-.049,1.34,2.087,5.96.215.465.29,1.757-.82.331-2.336-3-3.562-4.12-4.846-8.958-1.253-4.717-1.493-10.189-3.434-13.341Z"/><path class="g" d="M1079.664,2206.113s4.72,2.782,6.317,6.765c.949,2.368,1.554,2.167,1.836,2.543.935,1.247-1.958.5-3.1-1.431-.932-1.57-4.049-1.844-4.9-2.72s-2.688-3.664-2.466-4.518S1079.664,2206.113,1079.664,2206.113Z"/><line class="v" x1="12.133" y2="126.868" transform="translate(908.716 2143.426)"/><line class="v" x1="12.041" y2="124.659" transform="translate(920.848 2145.964)"/><line class="v" x1="10.013" y2="123.788" transform="translate(934.646 2145.964)"/><line class="v" x2="0.258" y2="25.641" transform="translate(955.996 2145.964)"/><line class="v" x1="2.323" y2="126.296" transform="translate(966.256 2145.964)"/><line class="v" x1="0.647" y2="127.355" transform="translate(978.76 2145.885)"/><line class="v" x2="2.45" y2="128.087" transform="translate(990.049 2145.885)"/><path class="v" d="M910.852,2157.456s68.324,3.225,86.376,0"/><path class="v" d="M956.254,2171.6c-23.906,5.414-46.783-3.145-46.783-3.145"/><path class="v" d="M956,2169.987s21.574,6.062,40.524.943"/><path class="v" d="M908.3,2177.757s17.228,9.02,45.21,4.422"/><path class="v" d="M906.886,2188.83s26.808,8.185,45.3,3.973"/><path class="v" d="M905.472,2199.831s13.653,10.7,45.309,5.9"/><path class="v" d="M903.826,2212.484a66.42,66.42,0,0,0,45.918,3.459"/><path class="v" d="M902.295,2224.075s14.746,10.467,46.21,4.387"/><path class="v" d="M900.7,2235.958s20.352,10.639,46.871,2.044"/><path class="v" d="M899.414,2245.232s12.007,11.548,47.136,2.987"/><path class="v" d="M897.905,2255.758s19.415,10.229,47.608,2.665"/><path class="v" d="M956.977,2181.568s9.013,7.442,39.543,1.917"/><path class="v" d="M957.213,2192.768s12.648,5.9,38.584,1.24"/><path class="v" d="M956.6,2205.2s19.528,5.882,39.2,0"/><path class="v" d="M956.315,2215.508s18.985,8.44,39.861,0"/><path class="v" d="M956,2226.827s18.074,6.342,40.7,0"/><path class="v" d="M955.7,2237.7s15.235,6.835,41.708,0"/><path class="v" d="M955.7,2247.315s18.088,9.321,42.629.99"/><path class="v" d="M955.269,2259.338a83.624,83.624,0,0,0,44.406.513"/><path class="o" d="M998.333,2044.111s-53.044-41.977-40.4-44.025,33.339,2.927,33.339,2.927c18.682,4.155,36.52,18.192,52.915,52.487,34.83,72.861,32.9,143.416,32.9,143.416s-8.066,10.819-9.724,8.835c-30.773-36.821-50.561-73.784-58.909-98.653S998.333,2044.111,998.333,2044.111Z"/><path class="w" d="M494.29,2195.9h254l50,60h-344Z"/><rect class="w" width="16" height="138" transform="translate(770.29 2255.896)"/><rect class="w" width="11" height="163" transform="translate(738.29 2195.896)"/><rect class="w" width="11" height="163" transform="translate(495.29 2195.896)"/><rect class="w" width="16" height="138" transform="translate(465.29 2255.896)"/><path class="x" d="M565.38,2244.466l15.57-22a6,6,0,0,1,4.91-2.14H697.34a5.582,5.582,0,0,1,4.55,2l15.73,22.34c1,1.23-1.66,2.23-3.28,2.23H568.65C566.88,2246.9,564.29,2245.856,565.38,2244.466Z"/><path class="y" d="M581.49,2239.966,586,2226.7c.24-.63,1.51-1.1,3-1.1H694.21c1.67,0,3.1.53,3.37,1.24l4.92,13.2c.2.5-.79,1-2.08,1H583.78C582.41,2241.036,581.35,2240.516,581.49,2239.966Z"/><rect class="x" width="121.63" height="0.61" transform="translate(581.2 2227.836)"/><rect class="x" width="121.63" height="0.61" transform="translate(581.2 2230.906)"/><rect class="x" width="121.63" height="0.61" transform="translate(581.2 2234.586)"/><rect class="x" width="121.63" height="0.61" transform="translate(581.2 2237.966)"/><rect class="x" width="0.92" height="20.27" transform="translate(687.228 2223.226) rotate(-17.44)"/><rect class="x" width="0.92" height="20.27" transform="translate(678.327 2223.223) rotate(-17.44)"/><rect class="x" width="0.92" height="20.19" transform="translate(673.88 2221.088) rotate(-17.53)"/><rect class="x" width="0.92" height="20.27" transform="translate(664.197 2223.218) rotate(-17.44)"/><rect class="x" width="0.92" height="20.27" transform="translate(656.826 2223.217) rotate(-17.44)"/><rect class="x" width="0.92" height="20.27" transform="matrix(0.982, -0.19, 0.19, 0.982, 649.324, 2222.904)"/><rect class="x" width="0.92" height="20.27" transform="translate(642.94 2222.606)"/><rect class="x" width="20.27" height="0.92" transform="translate(589.237 2242.257) rotate(-72.56)"/><rect class="x" width="20.27" height="0.92" transform="translate(597.844 2242.275) rotate(-72.56)"/><rect class="x" width="20.27" height="0.92" transform="translate(606.442 2242.26) rotate(-72.56)"/><rect class="x" width="20.27" height="0.92" transform="translate(615.04 2242.263) rotate(-72.56)"/><rect class="x" width="20.27" height="0.92" transform="translate(623.637 2242.258) rotate(-72.56)"/><rect class="x" width="20.27" height="0.92" transform="translate(632.244 2242.267) rotate(-72.56)"/><rect class="z" width="19.32" height="22.43" transform="translate(582.43 2178.316)"/><rect class="x" width="204.47" height="125.47" rx="4.99" transform="translate(492.29 2053.686)"/><path class="y" d="M550.58,2205.786v-3.85c0-2.14,19.73-3.86,44-3.86s44,1.73,44,3.86v3.85Z"/><rect class="y" width="36.72" height="4.56" transform="translate(574.29 2170.616)"/><rect class="y" width="204.39" height="112.17" rx="4.99" transform="translate(492.37 2053.686)"/><path class="b" d="M497.37,2160.846l-.01-102.16,194.4-.02.02,102.18Z"/><g class="aa"><path class="k" d="M511.82,2233.9a1.707,1.707,0,0,1-.74-.2c-1.14-.66-.12-2.7,2.28-4.56,2-1.53,4.29-2.46,5.68-2.36a1.72,1.72,0,0,1,.74.2c1.14.66.12,2.7-2.28,4.56-2,1.53-4.29,2.46-5.68,2.36m6.18-11.51-10.81,8.17c-3.78,3.3-3.26,7.75,1.15,9.94l3.8,1.89a12.117,12.117,0,0,0,4.53,1.16,14.613,14.613,0,0,0,10.3-3.17l8.92-9.06-8-4h0a1.328,1.328,0,0,1-.9.33.621.621,0,0,1-.24-.06l-.83-.41c-.29-.15-.25-.5.08-.79h0l-8-4"/><path class="y" d="M532.89,2221.676h0m3-2.67h0l.26.13-3,2.66.15.07c.29.14.25.5-.08.79l-5.3,4.62,8,4,1.91-1.94c3.8-3.3,4.41-7.19,0-9.38l-1.89-.94"/><path class="y" d="M530.3,2217.016a14,14,0,0,0-9.9,3.59l-2.31,1.74,8,4,5.3-4.63a1.344,1.344,0,0,1,.9-.32.621.621,0,0,1,.24.06l.41.2-.27-.13,3-2.66.27.13h0l-1.9-.94a10.1,10.1,0,0,0-3.8-1"/><path class="k" d="M532.24,2221.406a1.344,1.344,0,0,0-.9.32l-5.3,4.63h0c-.34.29-.37.64-.08.79l.83.41a.621.621,0,0,0,.24.06,1.328,1.328,0,0,0,.9-.33h0l5.3-4.62c.34-.29.37-.65.08-.79l-.15-.07h0l-.27-.13h0l-.41-.2a.62.62,0,0,0-.24-.06"/><path class="k" d="M535.67,2218.886l-3.05,2.66.27.13h0l.27.14h0l3.04-2.66-.26-.14-.27-.13"/><path class="ab" d="M519,2226.766c-1.39-.1-3.68.83-5.68,2.36-2.39,1.86-3.42,3.9-2.28,4.56a1.706,1.706,0,0,0,.74.2c1.39.1,3.68-.83,5.68-2.36,2.39-1.86,3.42-3.9,2.28-4.56a1.716,1.716,0,0,0-.74-.2"/></g><path class="k" d="M370.29,2383.336v-135.2h0a6.091,6.091,0,0,1,6.09-6.09h61.87a6.091,6.091,0,0,1,6.09,6.09h0v135.19h0a6.09,6.09,0,0,1-6.09,6.09H376.38A6.09,6.09,0,0,1,370.29,2383.336Z"/><path class="y" d="M376.33,2389.416H438.2c3.36,0,6.09-3.46,6.09-7.73v-69.66h-74v69.66C370.29,2385.956,373,2389.416,376.33,2389.416Z"/><circle class="ac" cx="1.86" cy="1.86" r="1.86" transform="translate(389.91 2293.806)"/><circle class="ad" cx="1.46" cy="1.46" r="1.46" transform="translate(390.31 2294.206)"/><circle class="ae" cx="1.45" cy="1.45" r="1.45" transform="translate(381.85 2294.216)"/><rect class="y" width="65.04" height="16.91" rx="3.05" transform="translate(374.8 2251.736)"/><rect class="y" width="65.04" height="16.91" rx="3.05" transform="translate(374.8 2271.246)"/><rect width="6.01" height="2.79" transform="translate(377.29 2274.146)"/><rect width="6.01" height="2.79" transform="translate(377.29 2254.466)"/><path d="M370.29,2381.426v1.91h0a6.09,6.09,0,0,0,6.09,6.09h61.87a6.09,6.09,0,0,0,6.09-6.09h0v-1.91Z"/><circle cx="2.2" cy="2.2" r="2.2" transform="translate(433.47 2321.366)"/><circle cx="2.2" cy="2.2" r="2.2" transform="translate(424.13 2321.366)"/><circle cx="2.2" cy="2.2" r="2.2" transform="translate(414.79 2321.366)"/><circle cx="2.2" cy="2.2" r="2.2" transform="translate(405.45 2321.366)"/><circle cx="2.2" cy="2.2" r="2.2" transform="translate(396.11 2321.366)"/><circle cx="2.2" cy="2.2" r="2.2" transform="translate(386.77 2321.366)"/><circle cx="2.2" cy="2.2" r="2.2" transform="translate(377.43 2321.366)"/><circle cx="2.2" cy="2.2" r="2.2" transform="translate(433.47 2329.606)"/><circle cx="2.2" cy="2.2" r="2.2" transform="translate(424.13 2329.606)"/><circle cx="2.2" cy="2.2" r="2.2" transform="translate(414.79 2329.606)"/><circle cx="2.2" cy="2.2" r="2.2" transform="translate(405.45 2329.606)"/><circle cx="2.2" cy="2.2" r="2.2" transform="translate(396.11 2329.606)"/><circle cx="2.2" cy="2.2" r="2.2" transform="translate(386.77 2329.606)"/><circle cx="2.2" cy="2.2" r="2.2" transform="translate(377.43 2329.606)"/><circle cx="2.2" cy="2.2" r="2.2" transform="translate(433.47 2337.846)"/><circle cx="2.2" cy="2.2" r="2.2" transform="translate(424.13 2337.846)"/><circle cx="2.2" cy="2.2" r="2.2" transform="translate(414.79 2337.846)"/><circle cx="2.2" cy="2.2" r="2.2" transform="translate(405.45 2337.846)"/><circle cx="2.2" cy="2.2" r="2.2" transform="translate(396.11 2337.846)"/><circle cx="2.2" cy="2.2" r="2.2" transform="translate(386.77 2337.846)"/><circle cx="2.2" cy="2.2" r="2.2" transform="translate(377.43 2337.846)"/><circle cx="2.2" cy="2.2" r="2.2" transform="translate(433.47 2346.086)"/><circle cx="2.2" cy="2.2" r="2.2" transform="translate(424.13 2346.086)"/><circle cx="2.2" cy="2.2" r="2.2" transform="translate(414.79 2346.086)"/><circle cx="2.2" cy="2.2" r="2.2" transform="translate(405.45 2346.086)"/><circle cx="2.2" cy="2.2" r="2.2" transform="translate(396.11 2346.086)"/><circle cx="2.2" cy="2.2" r="2.2" transform="translate(386.77 2346.086)"/><circle cx="2.2" cy="2.2" r="2.2" transform="translate(377.43 2346.086)"/><circle cx="2.2" cy="2.2" r="2.2" transform="translate(433.47 2354.326)"/><circle cx="2.2" cy="2.2" r="2.2" transform="translate(424.13 2354.326)"/><circle cx="2.2" cy="2.2" r="2.2" transform="translate(414.79 2354.326)"/><circle cx="2.2" cy="2.2" r="2.2" transform="translate(405.45 2354.326)"/><circle cx="2.2" cy="2.2" r="2.2" transform="translate(396.11 2354.326)"/><circle cx="2.2" cy="2.2" r="2.2" transform="translate(386.77 2354.326)"/><circle cx="2.2" cy="2.2" r="2.2" transform="translate(377.43 2354.326)"/><circle cx="2.2" cy="2.2" r="2.2" transform="translate(433.47 2362.566)"/><circle cx="2.2" cy="2.2" r="2.2" transform="translate(424.13 2362.566)"/><circle cx="2.2" cy="2.2" r="2.2" transform="translate(414.79 2362.566)"/><circle cx="2.2" cy="2.2" r="2.2" transform="translate(405.45 2362.566)"/><circle cx="2.2" cy="2.2" r="2.2" transform="translate(396.11 2362.566)"/><circle cx="2.2" cy="2.2" r="2.2" transform="translate(386.77 2362.566)"/><circle cx="2.2" cy="2.2" r="2.2" transform="translate(377.43 2362.566)"/><circle cx="2.2" cy="2.2" r="2.2" transform="translate(433.47 2370.806)"/><circle cx="2.2" cy="2.2" r="2.2" transform="translate(424.13 2370.806)"/><circle cx="2.2" cy="2.2" r="2.2" transform="translate(414.79 2370.806)"/><circle cx="2.2" cy="2.2" r="2.2" transform="translate(405.45 2370.806)"/><circle cx="2.2" cy="2.2" r="2.2" transform="translate(396.11 2370.806)"/><circle cx="2.2" cy="2.2" r="2.2" transform="translate(386.77 2370.806)"/><circle cx="2.2" cy="2.2" r="2.2" transform="translate(377.43 2370.806)"/><path class="af" d="M731,2215.656v-68.39a1.65,1.65,0,1,0-3.22,0v68.37Z"/><path class="af" d="M731,2215.656v-3.39c-.72.09-1.46-.27-1.46-1.81l.05-62.51a.58.58,0,0,1,0-.06,1.65,1.65,0,0,0-1.07-1.5c-.13,0-.57-.05-.62.1a2.4,2.4,0,0,0-.12.77v68.37Z"/><path class="af" d="M663.25,2215.656v-68.39a1.65,1.65,0,1,0-3.22,0v68.37Z"/><path class="af" d="M663.25,2215.656v-68.39a2.458,2.458,0,0,0-.12-.77c0-.15-.5-.11-.62-.1a1.642,1.642,0,0,0-1.07,1.5v.06l.05,62.51c0,1.53-.74,1.89-1.46,1.81v3.36Z"/><path class="af" d="M728.1,2146.916H663c-.6,0-1.32,1-1.32,2.19s.61,2.2,1.28,2.2h65.13c.6,0,1.32-1,1.32-2.2S728.77,2146.916,728.1,2146.916Z"/><path class="ag" d="M728.31,2153.946H662.8c-.13,0-.29.22-.29.48s.13.48.28.48H728.3c.13,0,.29-.21.29-.48S728.45,2153.946,728.31,2153.946Z"/><path class="ag" d="M728.31,2159.906H662.8c-.13,0-.29.21-.29.48s.13.48.28.48H728.3c.13,0,.29-.21.29-.48S728.45,2159.906,728.31,2159.906Z"/><path class="ag" d="M728.31,2165.856H662.8c-.13,0-.29.21-.29.48s.13.48.28.48H728.3c.13,0,.29-.21.29-.48S728.45,2165.856,728.31,2165.856Z"/><path class="ag" d="M728.31,2171.816H662.8c-.13,0-.29.21-.29.48s.13.48.28.48H728.3c.13,0,.29-.21.29-.48S728.45,2171.816,728.31,2171.816Z"/><path class="ag" d="M728.31,2177.776H662.8c-.13,0-.29.22-.29.48s.13.48.28.48H728.3c.13,0,.29-.22.29-.48S728.45,2177.776,728.31,2177.776Z"/><path class="ag" d="M728.31,2183.736H662.8c-.13,0-.29.21-.29.48s.13.48.28.48H728.3c.13,0,.29-.21.29-.48S728.45,2183.736,728.31,2183.736Z"/><path class="ag" d="M728.31,2189.686H662.8c-.13,0-.29.21-.29.48s.13.48.28.48H728.3c.13,0,.29-.21.29-.48S728.45,2189.686,728.31,2189.686Z"/><path class="ag" d="M728.31,2195.636H662.8c-.13,0-.29.21-.29.48s.13.48.28.48H728.3c.13,0,.29-.22.29-.48S728.45,2195.636,728.31,2195.636Z"/><path class="ag" d="M728.31,2201.6H662.8c-.13,0-.29.21-.29.48s.13.48.28.48H728.3c.13,0,.29-.22.29-.48S728.45,2201.6,728.31,2201.6Z"/><path class="ag" d="M728.31,2207.556H662.8c-.13,0-.29.21-.29.48s.13.48.28.48H728.3c.13,0,.29-.21.29-.48S728.45,2207.556,728.31,2207.556Z"/><rect class="af" width="78.72" height="3.23" transform="translate(656.14 2212.416)"/><ellipse class="ah" cx="2.03" cy="2.17" rx="2.03" ry="2.17" transform="translate(663.63 2169.986)"/><ellipse class="ai" cx="1.48" cy="1.59" rx="1.48" ry="1.59" transform="translate(664.06 2170.176)"/><ellipse class="b" cx="0.21" cy="0.23" rx="0.21" ry="0.23" transform="translate(664.68 2170.566)"/><ellipse class="ah" cx="2.03" cy="2.17" rx="2.03" ry="2.17" transform="translate(663.63 2170.006)"/><ellipse class="aj" cx="1.48" cy="1.59" rx="1.48" ry="1.59" transform="translate(664.06 2170.196)"/><ellipse class="ah" cx="2.03" cy="2.17" rx="2.03" ry="2.17" transform="translate(667.72 2170.006)"/><ellipse class="aj" cx="1.48" cy="1.59" rx="1.48" ry="1.59" transform="translate(668.14 2170.196)"/><ellipse class="ah" cx="2.03" cy="2.17" rx="2.03" ry="2.17" transform="translate(671.81 2169.986)"/><ellipse class="ai" cx="1.48" cy="1.59" rx="1.48" ry="1.59" transform="translate(672.23 2170.176)"/><ellipse class="b" cx="0.21" cy="0.23" rx="0.21" ry="0.23" transform="translate(672.86 2170.566)"/><ellipse class="ah" cx="2.03" cy="2.17" rx="2.03" ry="2.17" transform="translate(671.81 2170.006)"/><ellipse class="aj" cx="1.48" cy="1.59" rx="1.48" ry="1.59" transform="translate(672.23 2170.196)"/><ellipse class="ah" cx="2.03" cy="2.17" rx="2.03" ry="2.17" transform="translate(675.9 2170.006)"/><ellipse class="aj" cx="1.48" cy="1.59" rx="1.48" ry="1.59" transform="translate(676.32 2170.196)"/><ellipse class="ak" cx="2.03" cy="2.17" rx="2.03" ry="2.17" transform="translate(663.65 2163.826)"/><ellipse class="ai" cx="1.48" cy="1.59" rx="1.48" ry="1.59" transform="translate(664.07 2164.016)"/><ellipse class="b" cx="0.21" cy="0.23" rx="0.21" ry="0.23" transform="translate(664.7 2164.406)"/><ellipse class="ak" cx="2.03" cy="2.17" rx="2.03" ry="2.17" transform="translate(663.65 2163.846)"/><ellipse class="ai" cx="1.48" cy="1.59" rx="1.48" ry="1.59" transform="translate(664.07 2164.036)"/><ellipse class="ak" cx="2.03" cy="2.17" rx="2.03" ry="2.17" transform="translate(667.73 2163.846)"/><ellipse class="ai" cx="1.48" cy="1.59" rx="1.48" ry="1.59" transform="translate(668.16 2164.036)"/><ellipse class="ak" cx="2.03" cy="2.17" rx="2.03" ry="2.17" transform="translate(671.81 2163.846)"/><ellipse class="ai" cx="1.48" cy="1.59" rx="1.48" ry="1.59" transform="translate(672.23 2164.036)"/><path class="al" d="M667.47,2160.156a2,2,0,1,1-2.06-2.14A2.11,2.11,0,0,1,667.47,2160.156Z"/><ellipse class="am" cx="1.48" cy="1.59" rx="1.48" ry="1.59" transform="translate(663.85 2158.206)"/><ellipse class="al" cx="2.03" cy="2.17" rx="2.03" ry="2.17" transform="translate(667.5 2158.036)"/><ellipse class="am" cx="1.48" cy="1.59" rx="1.48" ry="1.59" transform="translate(667.93 2158.226)"/><ellipse class="an" cx="2.03" cy="2.17" rx="2.03" ry="2.17" transform="translate(663.4 2152.146)"/><ellipse class="ai" cx="1.48" cy="1.59" rx="1.48" ry="1.59" transform="translate(663.83 2152.336)"/><ellipse class="b" cx="0.21" cy="0.23" rx="0.21" ry="0.23" transform="translate(664.45 2152.726)"/><ellipse class="an" cx="2.03" cy="2.17" rx="2.03" ry="2.17" transform="translate(663.4 2152.166)"/><ellipse class="ao" cx="1.48" cy="1.59" rx="1.48" ry="1.59" transform="translate(663.83 2152.356)"/><ellipse class="ap" cx="2.03" cy="2.17" rx="2.03" ry="2.17" transform="translate(663.65 2181.936)"/><ellipse class="aq" cx="1.48" cy="1.59" rx="1.48" ry="1.59" transform="translate(664.07 2182.126)"/><ellipse class="ap" cx="2.03" cy="2.17" rx="2.03" ry="2.17" transform="translate(667.73 2181.936)"/><ellipse class="aq" cx="1.48" cy="1.59" rx="1.48" ry="1.59" transform="translate(668.16 2182.126)"/><ellipse class="ap" cx="2.03" cy="2.17" rx="2.03" ry="2.17" transform="translate(671.79 2181.936)"/><ellipse class="aq" cx="1.48" cy="1.59" rx="1.48" ry="1.59" transform="translate(672.22 2182.126)"/><ellipse class="ap" cx="2.03" cy="2.17" rx="2.03" ry="2.17" transform="translate(675.88 2181.936)"/><ellipse class="aq" cx="1.48" cy="1.59" rx="1.48" ry="1.59" transform="translate(676.31 2182.126)"/><ellipse class="ap" cx="2.03" cy="2.17" rx="2.03" ry="2.17" transform="translate(680.09 2181.936)"/><ellipse class="aq" cx="1.48" cy="1.59" rx="1.48" ry="1.59" transform="translate(680.52 2182.126)"/><ellipse class="ap" cx="2.03" cy="2.17" rx="2.03" ry="2.17" transform="translate(684.18 2181.936)"/><ellipse class="aq" cx="1.48" cy="1.59" rx="1.48" ry="1.59" transform="translate(684.61 2182.126)"/><ellipse class="ar" cx="2.03" cy="2.17" rx="2.03" ry="2.17" transform="translate(663.65 2193.796)"/><ellipse class="as" cx="1.48" cy="1.59" rx="1.48" ry="1.59" transform="translate(664.07 2193.986)"/><ellipse class="ar" cx="2.03" cy="2.17" rx="2.03" ry="2.17" transform="translate(667.73 2193.796)"/><ellipse class="as" cx="1.48" cy="1.59" rx="1.48" ry="1.59" transform="translate(668.16 2193.986)"/><ellipse class="ar" cx="2.03" cy="2.17" rx="2.03" ry="2.17" transform="translate(671.79 2193.796)"/><ellipse class="as" cx="1.48" cy="1.59" rx="1.48" ry="1.59" transform="translate(672.22 2193.986)"/><ellipse class="ar" cx="2.03" cy="2.17" rx="2.03" ry="2.17" transform="translate(675.88 2193.796)"/><ellipse class="as" cx="1.48" cy="1.59" rx="1.48" ry="1.59" transform="translate(676.31 2193.986)"/><ellipse class="ar" cx="2.03" cy="2.17" rx="2.03" ry="2.17" transform="translate(680.06 2193.766)"/><ellipse class="as" cx="1.48" cy="1.59" rx="1.48" ry="1.59" transform="translate(680.49 2193.956)"/><ellipse class="ar" cx="2.03" cy="2.17" rx="2.03" ry="2.17" transform="translate(684.15 2193.766)"/><ellipse class="as" cx="1.48" cy="1.59" rx="1.48" ry="1.59" transform="translate(684.58 2193.956)"/><ellipse class="ar" cx="2.03" cy="2.17" rx="2.03" ry="2.17" transform="translate(688.2 2193.766)"/><ellipse class="as" cx="1.48" cy="1.59" rx="1.48" ry="1.59" transform="translate(688.63 2193.956)"/><ellipse class="ar" cx="2.03" cy="2.17" rx="2.03" ry="2.17" transform="translate(692.29 2193.766)"/><ellipse class="as" cx="1.48" cy="1.59" rx="1.48" ry="1.59" transform="translate(692.72 2193.956)"/><ellipse class="at" cx="2.03" cy="2.17" rx="2.03" ry="2.17" transform="translate(663.65 2187.996)"/><ellipse class="au" cx="1.48" cy="1.59" rx="1.48" ry="1.59" transform="translate(664.07 2188.186)"/><ellipse class="at" cx="2.03" cy="2.17" rx="2.03" ry="2.17" transform="translate(667.73 2187.996)"/><ellipse class="au" cx="1.48" cy="1.59" rx="1.48" ry="1.59" transform="translate(668.16 2188.186)"/><ellipse class="at" cx="2.03" cy="2.17" rx="2.03" ry="2.17" transform="translate(671.79 2187.996)"/><ellipse class="au" cx="1.48" cy="1.59" rx="1.48" ry="1.59" transform="translate(672.22 2188.186)"/><ellipse class="at" cx="2.03" cy="2.17" rx="2.03" ry="2.17" transform="translate(675.88 2187.996)"/><ellipse class="au" cx="1.48" cy="1.59" rx="1.48" ry="1.59" transform="translate(676.31 2188.186)"/><ellipse class="at" cx="2.03" cy="2.17" rx="2.03" ry="2.17" transform="translate(680.06 2187.996)"/><ellipse class="au" cx="1.48" cy="1.59" rx="1.48" ry="1.59" transform="translate(680.49 2188.186)"/><ellipse class="at" cx="2.03" cy="2.17" rx="2.03" ry="2.17" transform="translate(684.18 2187.996)"/><ellipse class="au" cx="1.48" cy="1.59" rx="1.48" ry="1.59" transform="translate(684.61 2188.186)"/><ellipse class="at" cx="2.03" cy="2.17" rx="2.03" ry="2.17" transform="translate(688.3 2187.996)"/><ellipse class="au" cx="1.48" cy="1.59" rx="1.48" ry="1.59" transform="translate(688.72 2188.186)"/><ellipse class="b" cx="0.21" cy="0.23" rx="0.21" ry="0.23" transform="translate(716.43 2188.576)"/><ellipse class="av" cx="2.03" cy="2.17" rx="2.03" ry="2.17" transform="translate(663.65 2205.786)"/><ellipse class="aw" cx="1.48" cy="1.59" rx="1.48" ry="1.59" transform="translate(664.07 2205.976)"/><ellipse class="av" cx="2.03" cy="2.17" rx="2.03" ry="2.17" transform="translate(667.73 2205.786)"/><ellipse class="aw" cx="1.48" cy="1.59" rx="1.48" ry="1.59" transform="translate(668.16 2205.976)"/><ellipse class="av" cx="2.03" cy="2.17" rx="2.03" ry="2.17" transform="translate(671.79 2205.786)"/><ellipse class="aw" cx="1.48" cy="1.59" rx="1.48" ry="1.59" transform="translate(672.22 2205.976)"/><ellipse class="av" cx="2.03" cy="2.17" rx="2.03" ry="2.17" transform="translate(675.88 2205.786)"/><ellipse class="aw" cx="1.48" cy="1.59" rx="1.48" ry="1.59" transform="translate(676.31 2205.976)"/><ellipse class="av" cx="2.03" cy="2.17" rx="2.03" ry="2.17" transform="translate(679.93 2205.786)"/><ellipse class="aw" cx="1.48" cy="1.59" rx="1.48" ry="1.59" transform="translate(680.36 2205.976)"/><ellipse class="av" cx="2.03" cy="2.17" rx="2.03" ry="2.17" transform="translate(684.02 2205.786)"/><ellipse class="aw" cx="1.48" cy="1.59" rx="1.48" ry="1.59" transform="translate(684.45 2205.976)"/><ellipse class="av" cx="2.03" cy="2.17" rx="2.03" ry="2.17" transform="translate(688.07 2205.786)"/><ellipse class="aw" cx="1.48" cy="1.59" rx="1.48" ry="1.59" transform="translate(688.5 2205.976)"/><ellipse class="av" cx="2.03" cy="2.17" rx="2.03" ry="2.17" transform="translate(692.16 2205.786)"/><ellipse class="aw" cx="1.48" cy="1.59" rx="1.48" ry="1.59" transform="translate(692.59 2205.976)"/><ellipse class="av" cx="2.03" cy="2.17" rx="2.03" ry="2.17" transform="translate(696.22 2205.786)"/><ellipse class="aw" cx="1.48" cy="1.59" rx="1.48" ry="1.59" transform="translate(696.64 2205.976)"/><ellipse class="av" cx="2.03" cy="2.17" rx="2.03" ry="2.17" transform="translate(700.31 2205.786)"/><ellipse class="aw" cx="1.48" cy="1.59" rx="1.48" ry="1.59" transform="translate(700.73 2205.976)"/><ellipse class="ax" cx="2.03" cy="2.17" rx="2.03" ry="2.17" transform="translate(663.65 2200.186)"/><ellipse class="ay" cx="1.48" cy="1.59" rx="1.48" ry="1.59" transform="translate(664.07 2200.376)"/><ellipse class="ax" cx="2.03" cy="2.17" rx="2.03" ry="2.17" transform="translate(667.73 2200.186)"/><ellipse class="ay" cx="1.48" cy="1.59" rx="1.48" ry="1.59" transform="translate(668.16 2200.376)"/><ellipse class="ax" cx="2.03" cy="2.17" rx="2.03" ry="2.17" transform="translate(671.79 2200.186)"/><ellipse class="ay" cx="1.48" cy="1.59" rx="1.48" ry="1.59" transform="translate(672.22 2200.376)"/><ellipse class="ax" cx="2.03" cy="2.17" rx="2.03" ry="2.17" transform="translate(675.88 2200.186)"/><ellipse class="ay" cx="1.48" cy="1.59" rx="1.48" ry="1.59" transform="translate(676.31 2200.376)"/><ellipse class="ax" cx="2.03" cy="2.17" rx="2.03" ry="2.17" transform="translate(680 2200.186)"/><ellipse class="ay" cx="1.48" cy="1.59" rx="1.48" ry="1.59" transform="translate(680.43 2200.376)"/><ellipse class="ax" cx="2.03" cy="2.17" rx="2.03" ry="2.17" transform="translate(684.09 2200.186)"/><ellipse class="ay" cx="1.48" cy="1.59" rx="1.48" ry="1.59" transform="translate(684.51 2200.376)"/><ellipse class="ax" cx="2.03" cy="2.17" rx="2.03" ry="2.17" transform="translate(688.14 2200.186)"/><ellipse class="ay" cx="1.48" cy="1.59" rx="1.48" ry="1.59" transform="translate(688.57 2200.376)"/><ellipse class="ax" cx="2.03" cy="2.17" rx="2.03" ry="2.17" transform="translate(692.23 2200.186)"/><ellipse class="ay" cx="1.48" cy="1.59" rx="1.48" ry="1.59" transform="translate(692.66 2200.376)"/><ellipse class="ax" cx="2.03" cy="2.17" rx="2.03" ry="2.17" transform="translate(696.35 2200.186)"/><ellipse class="ay" cx="1.48" cy="1.59" rx="1.48" ry="1.59" transform="translate(696.78 2200.376)"/><ellipse class="az" cx="2.03" cy="2.17" rx="2.03" ry="2.17" transform="translate(663.65 2175.776)"/><ellipse class="ba" cx="1.48" cy="1.59" rx="1.48" ry="1.59" transform="translate(664.07 2175.966)"/><ellipse class="az" cx="2.03" cy="2.17" rx="2.03" ry="2.17" transform="translate(667.73 2175.776)"/><ellipse class="ba" cx="1.48" cy="1.59" rx="1.48" ry="1.59" transform="translate(668.16 2175.966)"/><ellipse class="az" cx="2.03" cy="2.17" rx="2.03" ry="2.17" transform="translate(671.79 2175.776)"/><ellipse class="ba" cx="1.48" cy="1.59" rx="1.48" ry="1.59" transform="translate(672.22 2175.966)"/><ellipse class="az" cx="2.03" cy="2.17" rx="2.03" ry="2.17" transform="translate(675.88 2175.776)"/><ellipse class="ba" cx="1.48" cy="1.59" rx="1.48" ry="1.59" transform="translate(676.31 2175.966)"/><ellipse class="az" cx="2.03" cy="2.17" rx="2.03" ry="2.17" transform="translate(680 2175.776)"/><ellipse class="ba" cx="1.48" cy="1.59" rx="1.48" ry="1.59" transform="translate(680.43 2175.966)"/><rect class="b" width="69.98" height="62.92" transform="translate(557.1 2078.296)"/><rect class="bb" width="5.94" height="5.64" transform="translate(564.01 2144.736)"/><rect class="bc" width="5.94" height="5.64" transform="translate(572.13 2144.736)"/><rect class="bd" width="5.94" height="5.64" transform="translate(555.88 2144.736)"/><rect class="be" width="5.94" height="5.64" transform="translate(580.26 2144.736)"/><path class="be" d="M606.74,2121.866a15.438,15.438,0,0,1-3.48-.41v15.16h27.35v-27.35h-8.66A15.491,15.491,0,0,1,606.74,2121.866Z"/><path class="bb" d="M607.55,2078.686l-12.29,17.69a15.467,15.467,0,0,0,8.44,5.2v-12.2h18.69a15.48,15.48,0,0,0-28.58-10.69Z"/><path class="bf" d="M602.38,2119.316a15.43,15.43,0,0,0,18.545-11.5c.053-.229.1-.459.145-.69H602.38Z"/><path class="bc" d="M580.84,2103.746H557.61l18.32,26.83,6.36-9.15a15.44,15.44,0,0,1-1.45-17.69Z"/><path class="bg" d="M584.41,2103.436a15.44,15.44,0,0,0,1.45,17.69l12.29-17.69Z"/></g></svg>