<svg xmlns:xlink="http://www.w3.org/1999/xlink" xmlns="http://www.w3.org/2000/svg" width="433.557" height="365.292" viewBox="0 0 433.557 365.292"><defs><style>.a,.m{fill:none;}.b{fill:#bcd3d7;opacity:0.49;}.c{clip-path:url(#a);}.d{fill:#c2934e;}.e,.l{fill:#caa267;}.f,.o,.p{fill:#8a7cc7;}.g{fill:#f1c759;}.h{opacity:0.15;}.i{opacity:0.3;}.j{opacity:0.5;}.k{fill:#eec459;}.l,.p{fill-rule:evenodd;}.m{stroke:#8a7cc7;stroke-miterlimit:10;stroke-width:1.093px;}.n{fill:#9180d2;}.o{opacity:0.8;}</style><clipPath id="a"><path class="a" d="M209.864-378.682c54.043-43.3,81.065-64.954,106.434-72,84.757-23.536,205.169,24.9,231.648,112.694,1.378,4.568,19.537,68-15.652,109.563-29.462,34.8-66.526,19.069-175.3,37.565C240.537-171.057,212.466-141.034,172.3-164.2c-38.028-21.933-58.647-75.251-50.086-117.439C128.58-313.015,155.762-335.331,209.864-378.682Z" transform="translate(-120.292 456.603)"/></clipPath></defs><g transform="translate(0 54.009)"><path class="b" d="M209.864-378.682c54.043-43.3,81.065-64.954,106.434-72,84.757-23.536,205.169,24.9,231.648,112.694,1.378,4.568,19.537,68-15.652,109.563-29.462,34.8-66.526,19.069-175.3,37.565C240.537-171.057,212.466-141.034,172.3-164.2c-38.028-21.933-58.647-75.251-50.086-117.439C128.58-313.015,155.762-335.331,209.864-378.682Z" transform="translate(-120.292 456.603)"/><g class="c"><g transform="translate(98.215 36.708)"><path class="d" d="M326.013-376.5s-1.118,12.473,6.576,19.37-17.731,0-17.731,0,4.731-11.946,3.67-19.37S326.013-376.5,326.013-376.5Z" transform="translate(-193.264 419.895)"/><ellipse class="e" cx="13.451" cy="18.352" rx="13.451" ry="18.352" transform="translate(115.24 11.525)"/><path class="f" d="M449.848-256.493c-.286,4.506-4.944,24.919-10.768,43.064-4.771,14.9-10.339,28.269-14.916,30.118-10.155,4.087-86.832,9.7-102.6,2.177-.368-.276-.766-.573-1.144-.9-5.916-4.812-12.332-14.313-15.734-23.212,0-.01-9.062-25.552-10.911-30.752-.021-.051-.031-.092-.051-.133-.062-.2-.133-.4-.2-.582-.021-.072-.052-.133-.072-.205-9.542,32.581-84.124,30.211-40.867-60.278,20.362-42.593,56.7-62.025,79.9-67.184,10.043-2.238,17.624-1.8,20.393.592a15.041,15.041,0,0,0,9.389,3.648,20.357,20.357,0,0,0,5.272-.481,26.3,26.3,0,0,0,5.589-1.9c.858-.4,1.358-.685,1.358-.685a54.544,54.544,0,0,1,14.2.848C441.185-352.08,450.318-264.063,449.848-256.493Z" transform="translate(-233.43 419.895)"/><path class="g" d="M387.308-58.316H334.451q.107-4.855.237-9.791c.111-4.5.237-9.023.364-13.5.135-4.749.269-9.459.4-14.049.127-4.4.245-8.691.356-12.807.3-11.627.507-21.893.467-29.349-.031-7.06-.285-11.6-.894-12.371-.23-.293-.467-.238-.72.158-.8,1.251-1.7,5.9-2.692,12.973-.53,3.759-1.076,8.208-1.646,13.194-.562,4.876-1.14,10.282-1.741,16.06-.42,4.052-.847,8.3-1.29,12.68-.5,5.026-1.013,10.226-1.536,15.545-.388,3.894-.776,7.852-1.171,11.849-.309,3.118-.618,6.261-.926,9.411H264.727c.016-.142.031-.293.055-.435.515-3.665,1.045-7.52,1.591-11.517.649-4.749,1.314-9.7,1.987-14.753.625-4.726,1.266-9.554,1.9-14.4,1.3-9.886,2.588-19.883,3.8-29.373,1.163-9.078,2.248-17.7,3.213-25.3,2.233-17.762,3.752-30.054,3.752-30.054a6.08,6.08,0,0,0,.483.435.167.167,0,0,0,.039.032,6.946,6.946,0,0,0,1.671,1,10.352,10.352,0,0,0,2.516.705l5.351.1c3.958.071,9.213.142,15.244.206,4.512.047,9.459.087,14.6.1,1.345.007,2.7.015,4.06.007h.064c3.3.008,6.648.008,10-.007,5.272-.024,10.551-.08,15.617-.175,4.725-.087,9.276-.205,13.455-.372q2.72-.119,5.216-.245c.016.008.032,0,.048,0l.411-.024c.42-.023.649-.039.649-.039.847-.048,1.663-.1,2.462-.159s1.567-.1,2.311-.166h.008c.617-.047,1.211-.1,1.789-.15.38-.032.76-.071,1.124-.111.182-.016.364-.032.538-.055s.356-.04.53-.056.349-.039.515-.055.332-.04.5-.064c.237-.023.466-.055.7-.087.887-.118,1.686-.237,2.4-.364a16.734,16.734,0,0,0,2.723-.688c.071-.024.142-.056.214-.087a3.315,3.315,0,0,0,.372-.167c.055-.031.111-.063.158-.087s.1-.063.135-.1a.949.949,0,0,0,.213-.182.907.907,0,0,1-.008.1c0,.064-.007.166-.015.3-.008.174-.016.4-.032.689-.008.19-.016.4-.032.633-.024.435-.047.95-.071,1.535-.008.151-.016.3-.024.459a.438.438,0,0,0-.007.1c-.008.222-.024.452-.032.689s-.032.491-.04.744c-.023.467-.047.958-.079,1.472-.008.214-.016.435-.032.657-.015.317-.031.641-.047.974-.016.221-.024.451-.032.688-.047.879-.1,1.805-.15,2.786-.024.491-.047,1-.079,1.512s-.048,1.045-.079,1.591c-.04.752-.08,1.528-.119,2.319-.063,1.211-.127,2.478-.2,3.784-.032.657-.071,1.321-.1,2-.079,1.552-.166,3.166-.253,4.828-.071,1.2-.127,2.422-.2,3.673-.04.807-.087,1.623-.127,2.446q-.143,2.6-.285,5.334c-.182,3.356-.316,6.823-.411,10.377-.356,12.593-.222,26.262.261,39.655.182,4.741.4,9.442.657,14.049s.554,9.134.887,13.5Q386.872-63.061,387.308-58.316Z" transform="translate(-196.402 419.895)"/><path class="h" d="M368.636-236.918c.02.072.051.133.071.205.072.184.143.378.2.582.02.041.03.082.051.133,1.849,5.2,10.911,30.742,10.911,30.752,3.4,8.9,9.818,18.4,15.734,23.212-4.016-14.538-16.531-56.682-16.051-73.662C377.167-239.329,368.636-236.928,368.636-236.918Z" transform="translate(-308.611 419.895)"/><path class="h" d="M247.857-293.475S216.6-219.838,284.368-182.216l1.354,1.062,1.031-17.815s-29.5-48.809-29.53-50.008S247.857-293.475,247.857-293.475Z" transform="translate(-71.78 419.895)"/><path class="h" d="M356.571-357.127c.041,1.216-.6,2.013-2.554,1.747-6.089-.827-12.965-.654-17.961,1.635a4.242,4.242,0,0,1-4.107-.174c-3.2-1.869-5.18-7.448-5.967-9.92a1.709,1.709,0,0,1-.081-.541c10.043-2.238,17.623-1.8,20.392.592a15.034,15.034,0,0,0,9.389,3.647A8.271,8.271,0,0,1,356.571-357.127Z" transform="translate(-226.841 419.895)"/><g class="i" transform="translate(128.182 234.889)"><path d="M327.451-181.559l-.533-.044S327.107-181.59,327.451-181.559Z" transform="translate(-326.918 185.006)"/><path class="j" d="M264.893-181.559c14.232,1.135,45.338-.876,45.338-.876,9.14-.526,15.559-1.338,16.687-2.571a.987.987,0,0,1-.008.1c-.068,1.429-.887,17.777-2.037,39.207a10.522,10.522,0,0,1-1.5-.173,11.643,11.643,0,0,1-7.531-5.352,25.794,25.794,0,0,1-2.929-6.116C302.306-177.525,269.452-181.15,264.893-181.559Z" transform="translate(-264.36 185.006)"/></g><g transform="translate(112.13)"><g transform="translate(2.839 5.117)"><path class="k" d="M319.23-400.552s23.286,12.911,16.375-7.818C330.823-422.712,303.349-409.793,319.23-400.552Z" transform="translate(-310.563 414.778)"/><path class="k" d="M325.375-405.5s-13.029,7.73-11.772,15.485c0,0-2.873-23.153,10.082-23.735s17.97.668,16.82,25.152C340.5-388.6,336.741-408.078,325.375-405.5Z" transform="translate(-313.332 414.778)"/></g><path class="k" d="M308.767-413.6s.654-7.214,7.806-6.193,10.217,5.109,11.238,9.195,2.044,7.152,3.065,7.152c0,0-3.065,3.065-4.086,2.043,0,0,2.651,7.348-.718,13.38,0,0-1.326-9.293-6.434-10.315S308.767-413.6,308.767-413.6Z" transform="translate(-296.14 419.895)"/><path class="k" d="M343.5-413.666s-5.108-3.065-10.216,4.087l-3.065,6.13s1.021,1.022,3.065,0c0,0-.931,7.2.045,11.262l3.02-12.284Z" transform="translate(-330.222 419.895)"/></g><path class="h" d="M379.364-211.7s3.707-30.31-78.575-26.508,59.6,24.14,59.6,24.14Z" transform="translate(-198.88 419.895)"/><g transform="translate(68.419 55.993)"><g transform="translate(0 121.75)"><path class="l" d="M387.214-226.224c-.94-.4-10.653-7.3-16.138-8.243s-13.729-1.821-16.517-2.855c-3.281-1.217-4.233.049-.483,1.828a54.7,54.7,0,0,0,8.6,3.181c.551.066-3.011-.7-6.86-1.817-4.092-1.188-8.512-2.714-8.776-1.99-.514,1.406,11.214,5.575,13.308,5.968a53.227,53.227,0,0,1-5.512-1.11c-2.477-.642-5.286-1.757-5.892-1.28-.955.751,5.195,3.738,10.383,4.876.078.177-1.637.309-7.708-1.456-.61-.177-2.21-.03-.253,1.068,4.12,2.311,5.721,3.609,11.9,4.288,6.025.661,12.79-.06,17.02,1.738Z" transform="translate(-347.029 242.151)"/><path class="l" d="M374.019-233.714s-4.292-5.279-9.48-6.5c-3.084-.726-2.949-1.506-3.463-1.782-1.706-.916-.253,2.5,2.333,3.546,2.1.853,3.016,4.629,4.251,5.512s5,2.619,6.005,2.188S374.019-233.714,374.019-233.714Z" transform="translate(-347.352 242.151)"/></g><path class="f" d="M321.273-342.831c17.841,18.669,29.867,35.653,34.039,88.75,2.117,26.938-1.062,53.462-3.255,67.409a16.633,16.633,0,0,1-12.524,13.524c-61.664,15.118-123.222-47.094-123.222-47.094-3.342-1.551,4.55-13.283,4.55-13.283,33.259,2.26,58.642,5.273,84.327,17.533-.13-.073-22.218-50.749-24.671-64.445-6.421-35.915-34.249-68.738-25.35-81.92C258.242-366.917,303.278-361.662,321.273-342.831Z" transform="translate(-184.281 363.902)"/></g><g transform="translate(82.873 234.708)"><path class="m" d="M360.634-58.316l.7-7.337,1.346-14.089,1.448-15.118,1.417-14.825,1.551-16.186,1.211-12.72,1.187-12.427,1.559-16.289L372.2-179.29l.245-2.6.317-3.3" transform="translate(-360.634 185.187)"/><path class="m" d="M345.675-58.316l.514-5.327,1.33-13.764,1.433-14.817,1.4-14.532,1.6-16.574,1.219-12.617,1.219-12.609,1.765-18.213,1.053-10.954.388-3.958.032-.356" transform="translate(-330.541 185.187)"/><path class="m" d="M341.068-182.037l-.04.459-.332,4.132-.894,11.089-1.488,18.331-1.005,12.49-1.069,13.163L334.95-106.4l-1.132,14-1.187,14.714L331.57-64.593l-.507,6.277" transform="translate(-299.372 185.187)"/><line class="m" x2="0.32" y2="31.845" transform="translate(55.779 3.153)"/><path class="m" d="M301.35-58.316l.119-6.577.261-13.867.237-13.194.261-13.954.277-14.912.23-12.712.293-15.854.309-16.6.174-9.506.055-3.087.055-2.9v-.269l.008-.285" transform="translate(-232.22 185.187)"/><path class="m" d="M288.536-182.132v.063l-.016,2.39-.055,11.762-.008,1.765-.1,17.674-.079,15.514-.063,12.783-.079,14.92-.071,14.184-.063,12.909-.071,13.7-.032,6.15" transform="translate(-203.678 185.187)"/><path class="m" d="M272.318-182.132l.016.886.277,14.477.332,17.294.008.594.277,14.6.253,12.87.269,14.4.261,13.408.253,13.527.261,13.566.158,8.2" transform="translate(-174.242 185.187)"/></g><path class="m" d="M265.774-167.761s84.854,4.005,107.273,0" transform="translate(-183.188 419.895)"/><path class="m" d="M374.762-150.189c-29.689,6.725-58.1-3.906-58.1-3.906" transform="translate(-235.79 419.895)"/><path class="m" d="M266.653-152.2s26.793,7.529,50.328,1.171" transform="translate(-128.001 419.895)"/><path class="m" d="M320.073-142.548s21.395,11.2,56.148,5.492" transform="translate(-240.661 419.895)"/><path class="m" d="M321.719-128.8s33.295,10.165,56.254,4.934" transform="translate(-244.059 419.895)"/><path class="m" d="M323.457-115.134s16.957,13.293,56.272,7.33" transform="translate(-247.553 419.895)"/><path class="m" d="M324.745-99.42s25.855,13.51,57.028,4.3" transform="translate(-250.885 419.895)"/><path class="m" d="M326.284-85.024s18.313,13,57.39,5.449" transform="translate(-254.325 419.895)"/><path class="m" d="M327.451-70.266s25.275,13.213,58.21,2.538" transform="translate(-257.479 419.895)"/><path class="m" d="M387.253-58.316c-.349-.277-.515-.435-.515-.435" transform="translate(-318.358 419.895)"/><path class="m" d="M266.653-137.816s11.194,9.243,49.11,2.382" transform="translate(-126.783 419.895)"/><path class="m" d="M267.55-123.906s15.707,7.324,47.919,1.54" transform="translate(-127.386 419.895)"/><path class="m" d="M267.55-108.467s24.253,7.305,48.685,0" transform="translate(-128.152 419.895)"/><path class="m" d="M267.08-95.663s23.577,10.481,49.5,0" transform="translate(-128.031 419.895)"/><path class="m" d="M266.429-81.607s22.447,7.877,50.552,0" transform="translate(-127.777 419.895)"/><path class="m" d="M265.544-68.106s18.921,8.489,51.8,0" transform="translate(-127.254 419.895)"/><path class="h" d="M395.959-343.429c.582,1.908,4.7,8.614,3.425,14.578S370.5-263.385,359.127-255.7s-31.918,16.43-31.918,16.43l56.13-77.657,3.1-26.506S392.32-355.353,395.959-343.429Z" transform="translate(-271.202 419.895)"/><g transform="translate(105.339 51.035)"><path class="l" d="M336.376-345.115s3.428-6.005,2.681-11.37c-.443-3.189.346-3.348.419-3.936.242-1.953-2.459.677-2.505,3.512-.036,2.3-3.28,4.558-3.664,6.052s-.648,5.7.13,6.494S336.376-345.115,336.376-345.115Z" transform="translate(-322.133 368.86)"/><path class="l" d="M348.152-329.556c.033-1.037,3.01-12.774,1.89-18.318s-3.369-15.158-3.412-18.181c-.051-3.556-1.6-3.993-1.909.214a74.053,74.053,0,0,0,.2,10.8,43.629,43.629,0,0,1-1.051-7.109c-.138-2.375-.7-1.436-1.491-1.215-1.464.408-.822,4.418-.427,6.546a20.56,20.56,0,0,1-1.064-5.221c-.1-1.209-.688-.895-1.406-.784s-1.019.98-.194,6.314c-.139.139-.358,1.478-.913-4.922-.055-.644-1.934-1.944-2,.335-.123,4-.959,3.646.665,9.751,1.585,5.953,4.75,12.1,4.6,16.768Z" transform="translate(-336.047 368.86)"/></g><path class="n" d="M439.067-339.453a146.775,146.775,0,0,0-53.013,17.892c-14.142,8.1-49.255,28.226-53.012,61.627-.329,2.918-2.817,28.04,12.59,38.434,10.31,6.955,23.274,3.7,26.717,2.833,6.115-1.537,14.3-4.981,46.175-47.231,18.116-24.012,27.392-38.7,34.458-58.314,1.188-3.3,2.072-6.063,2.651-7.952Z" transform="translate(-332.698 419.895)"/></g></g></g><path class="o" d="M381.96-393.98c4.137-5.231,10.877-5.843,14.293-2.858,2.908,2.541,3.034,7.366,1.429,10.719a10.909,10.909,0,0,1-11.434,5.718,8.716,8.716,0,0,1-1.429,10.719c-3.007,2.708-7.293,2.177-10.006.715a9.845,9.845,0,0,1-5-9.29c-.416.045-6.273.6-8.576-2.86-2.576-3.867,1.068-10.093,5-12.863C370.535-397.006,376.644-396.938,381.96-393.98Z" transform="translate(-205.234 510.612)"/><path class="o" d="M400.973-424.393c-2.211.258-3.946-1.188-4.048-2.7a3.128,3.128,0,0,1,2.193-2.867,3.643,3.643,0,0,1,4.048,1.349,2.908,2.908,0,0,1,2.866-2.192,2.959,2.959,0,0,1,2.53,2.192,3.286,3.286,0,0,1-1.011,3.374c.108.087,1.621,1.339,1.349,2.7-.3,1.521-2.634,2.13-4.217,1.855A4.959,4.959,0,0,1,400.973-424.393Z" transform="translate(-252.004 510.612)"/><path class="o" d="M470.26-494.528c14.315-18.1,37.638-20.216,49.455-9.89,10.063,8.794,10.5,25.489,4.945,37.089-6.631,13.851-22.586,22.083-39.563,19.784,7.179,12.752,4.83,28.287-4.945,37.09-10.4,9.368-25.232,7.531-34.619,2.475-11.288-6.081-18.076-18.63-17.309-32.146-1.438.155-21.7,2.068-29.673-9.894-8.912-13.383,3.7-34.923,17.309-44.508C430.73-505,451.867-504.764,470.26-494.528Z" transform="translate(-369.938 510.612)"/><g transform="translate(78.971 28.425)"><path class="k" d="M458.5-482.187a18.306,18.306,0,0,1,11.422,3.427,12.4,12.4,0,0,1,4.951,10.509q0,8.605-8.072,12.337a29.371,29.371,0,0,0-4.951,3.579,7.6,7.6,0,0,0-2.437,5.33,4.455,4.455,0,0,0,1.6,2.97h-1.676a7.109,7.109,0,0,1-2.056-4.8,9.579,9.579,0,0,1,2.132-6.016,30.447,30.447,0,0,1,4.684-4.417,28,28,0,0,0,4.683-4.493,9.5,9.5,0,0,0,1.828-5.864,8.009,8.009,0,0,0-2.475-6.358,9.868,9.868,0,0,0-6.739-2.171,11.012,11.012,0,0,0-9.215,4.8q-2.209,0-2.208-1.6l-1.067-3.884q.609-1.6,4.341-2.589A20.851,20.851,0,0,1,458.5-482.187Zm1.446,42.8a3.859,3.859,0,0,1,2.666,1.028,3.3,3.3,0,0,1,1.142,2.551,3.346,3.346,0,0,1-1.1,2.551,3.729,3.729,0,0,1-2.627,1.028,3.906,3.906,0,0,1-2.7-.99,3.311,3.311,0,0,1-1.1-2.589,3.344,3.344,0,0,1,1.1-2.551A3.719,3.719,0,0,1,459.951-439.389Z" transform="translate(-448.909 482.187)"/></g><path class="p" d="M483.929-160.212a4.423,4.423,0,0,0,.739,4.644,4.469,4.469,0,0,0,7.493-1.192,4.42,4.42,0,0,0-.737-4.644,4.469,4.469,0,0,0-7.495,1.192Zm-2.693,7.666a8.946,8.946,0,0,1-1.569-2.56l-4.152.661-.637-3.994,4.155-.661a8.924,8.924,0,0,1,.7-2.921l-3.4-2.468,2.375-3.275,3.4,2.468a8.97,8.97,0,0,1,2.56-1.568l-.66-4.153,3.995-.637.66,4.153a9,9,0,0,1,2.922.7l2.466-3.4,3.276,2.375-2.469,3.4a8.94,8.94,0,0,1,1.568,2.561l4.154-.662.635,4-4.152.661a8.994,8.994,0,0,1-.7,2.921l3.4,2.468-2.376,3.275-3.4-2.468a9.018,9.018,0,0,1-2.56,1.569l.661,4.153-3.995.635-.661-4.152a9,9,0,0,1-2.921-.7l-2.468,3.4-3.274-2.376Z" transform="translate(-422.24 510.612)"/><path class="p" d="M167.632-260.045a4.421,4.421,0,0,0,.738,4.644,4.469,4.469,0,0,0,7.494-1.192,4.423,4.423,0,0,0-.738-4.644,4.468,4.468,0,0,0-7.494,1.192Zm-2.694,7.666a8.974,8.974,0,0,1-1.568-2.559l-4.153.661-.636-4,4.154-.661a8.924,8.924,0,0,1,.7-2.921l-3.4-2.468L162.4-267.6l3.4,2.469a8.956,8.956,0,0,1,2.561-1.569l-.66-4.153,3.994-.636.66,4.153a8.971,8.971,0,0,1,2.922.7l2.467-3.4,3.275,2.375-2.468,3.4a8.966,8.966,0,0,1,1.568,2.56l4.153-.662.636,4-4.153.661a9,9,0,0,1-.7,2.921l3.4,2.467-2.375,3.275-3.4-2.468a9.014,9.014,0,0,1-2.559,1.569l.661,4.153-4,.635-.661-4.152a8.984,8.984,0,0,1-2.921-.7l-2.467,3.4-3.274-2.376Z" transform="translate(210.353 510.612)"/><path class="p" d="M149.979-316.779a2.871,2.871,0,0,0-.158,3.05,2.9,2.9,0,0,0,4.921.254,2.872,2.872,0,0,0,.158-3.049,2.9,2.9,0,0,0-4.921-.255Zm-2.746,4.506a5.816,5.816,0,0,1-.651-1.838l-2.726-.141.135-2.623,2.728.141a5.8,5.8,0,0,1,.836-1.761l-1.828-2.027,1.951-1.759,1.828,2.027a5.832,5.832,0,0,1,1.838-.651l.142-2.727,2.623.135-.142,2.727a5.821,5.821,0,0,1,1.762.838l2.026-1.828,1.76,1.951-2.028,1.828a5.816,5.816,0,0,1,.651,1.838l2.727.14-.136,2.624L158-313.52a5.837,5.837,0,0,1-.837,1.761l1.827,2.027-1.951,1.759L155.214-310a5.84,5.84,0,0,1-1.838.651l-.14,2.727-2.624-.136.141-2.726a5.851,5.851,0,0,1-1.761-.838l-2.027,1.828-1.759-1.951Z" transform="translate(249.127 510.612)"/><path class="p" d="M237.2-405.458a2.87,2.87,0,0,0-.158,3.049,2.9,2.9,0,0,0,4.92.255,2.872,2.872,0,0,0,.159-3.049,2.9,2.9,0,0,0-4.921-.255Zm-2.746,4.506a5.824,5.824,0,0,1-.651-1.838l-2.727-.141.135-2.623,2.728.141a5.8,5.8,0,0,1,.837-1.761l-1.828-2.027,1.951-1.76,1.828,2.028a5.817,5.817,0,0,1,1.838-.651l.141-2.727,2.623.135-.141,2.727a5.826,5.826,0,0,1,1.761.838l2.027-1.828,1.759,1.951-2.027,1.828a5.8,5.8,0,0,1,.65,1.838l2.728.14-.136,2.624-2.727-.141a5.857,5.857,0,0,1-.836,1.761l1.826,2.027-1.951,1.759-1.827-2.027a5.85,5.85,0,0,1-1.838.651l-.141,2.727-2.623-.136.14-2.727a5.846,5.846,0,0,1-1.761-.837l-2.026,1.828-1.759-1.952Z" transform="translate(74.68 510.612)"/><path class="p" d="M481-212.217a2.872,2.872,0,0,0-.158,3.049,2.9,2.9,0,0,0,4.921.255,2.874,2.874,0,0,0,.158-3.05,2.9,2.9,0,0,0-4.921-.254Zm-2.746,4.5a5.834,5.834,0,0,1-.651-1.837l-2.726-.141.135-2.623,2.728.141a5.8,5.8,0,0,1,.836-1.761l-1.828-2.028,1.951-1.759,1.828,2.027a5.855,5.855,0,0,1,1.838-.65l.142-2.727,2.623.135-.142,2.727a5.842,5.842,0,0,1,1.762.837l2.026-1.827,1.76,1.951-2.028,1.827a5.8,5.8,0,0,1,.651,1.839l2.727.14-.136,2.624-2.726-.141a5.836,5.836,0,0,1-.837,1.761l1.827,2.027-1.951,1.759-1.828-2.027a5.868,5.868,0,0,1-1.837.651l-.141,2.727-2.624-.136.141-2.727a5.849,5.849,0,0,1-1.761-.837l-2.027,1.827-1.759-1.951Z" transform="translate(-412.916 510.612)"/></svg>