<svg xmlns:xlink="http://www.w3.org/1999/xlink" xmlns="http://www.w3.org/2000/svg" width="774.252" height="489.728" viewBox="0 0 774.252 489.728"><defs><style>.a,.j{fill:none;}.b{clip-path:url(#a);}.c,.e{fill:#caa267;}.c{fill-rule:evenodd;}.d{fill:#8b7cc8;}.f{fill:#5e5585;}.g{fill:#f1c759;}.ag,.h{opacity:0.3;}.i{opacity:0.5;}.j{stroke:#8b7cc8;stroke-miterlimit:10;stroke-width:1.407px;}.k{fill:#c2934e;}.l{opacity:0.15;}.m{fill:#efc559;}.n{fill:#969696;}.o{fill:#c9c9c9;}.p{fill:#7f7f7f;}.q{fill:#5e5587;}.r{fill:#cccdd2;}.s{fill:#3f3f3f;}.t{fill:#27debf;}.u{fill:#8a7cc7;}.v{opacity:0.1;}.w{fill:#eb0000;}.ag,.x{fill:#e6e7e8;}.y{fill:#f1f2f2;}.z{fill:#e71508;}.aa{fill:#808285;}.ab{fill:#bcbec0;}.ac,.ah{fill:#939598;}.ad{fill:#d1d3d4;}.ae{fill:#b4afa7;}.af{fill:#111b1d;}.ah{font-size:17.316px;font-family:SegoeUI, Segoe UI;}</style><clipPath id="a"><rect class="a" width="563.257" height="454.661" transform="translate(769.782 313.339)"/></clipPath></defs><g transform="translate(-558.787 -278.272)"><g class="b"><path class="c" d="M830.215,629.378s-6.76-7.71-14.642-9.26c-4.686-.921-4.526-2.1-5.316-2.491-2.62-1.284-.24,3.775,3.713,5.211,3.212,1.166,4.8,6.8,6.71,8.064s7.675,3.665,9.167,2.96S830.215,629.378,830.215,629.378Z"/><path class="c" d="M850.993,639.9c-1.438-.549-16.452-10.4-24.766-11.513s-20.779-1.974-25.038-3.376c-5.009-1.65-6.372.311-.624,2.78,3.736,1.6,11.419,4.169,13.138,4.31.833.068-4.574-.886-10.434-2.354-6.229-1.56-12.971-3.611-13.329-2.505-.7,2.146,17.2,7.768,20.377,8.244a80.488,80.488,0,0,1-8.364-1.363c-3.766-.829-8.058-2.351-8.945-1.6-1.4,1.185,8.034,5.339,15.911,6.763.127.262-2.448.558-11.69-1.761-.929-.233-3.331.078-.322,1.622,6.334,3.251,8.818,5.116,18.162,5.792,9.113.66,19.261-.8,25.733,1.666Z"/><path class="d" d="M844.407,651.039c7.3,2.858,60.333,12.583,109.009,1.892,30.722-6.734,59.7-21.619,74.358-51.494,37.88-77.229-50.635-121.037-50.635-121.037a1.552,1.552,0,0,0-.132.212c-3.837,5.8-86.345,129.584-143.6,148.9C833.412,629.513,832.5,646.369,844.407,651.039Z"/><path class="e" d="M1204.367,796.533s-1.842,170.3,5.368,172.612c12.942,4.224,63.333,17.344,9.093,18.173-27.551,4.051-26.052-2.311-26.935-7.517-.722-4.254-12.909-155.477-15.058-167.134-.481-2.611-.773-4.189-.773-4.189Z"/><path class="e" d="M1087.418,784.537s-12.183,169.232-19.455,171.336c-13.055,3.859-63.794,15.56-9.6,17.91,27.426,4.823,26.106-1.579,27.135-6.758.841-4.231,7.681-36.3,10.156-47.887.554-2.6,21.03-133.7,21.03-133.7Z"/><path class="f" d="M1089.06,956.516c.6-2.4-16.729-4.146-18.913-2.394s-37.478,4.923-37.967,15.241,48.22,7.732,51.661,7.881S1087.881,961.222,1089.06,956.516Z"/><path class="g" d="M1078.917,618.281a10.74,10.74,0,0,0,6.313,2.279c14.291-.947,76-5.192,109.265-9.988,11.735-1.693,19.927-3.453,21.245-5.169,0,0,0,.049,0,.137.071,1.85.828,23.035,1.723,50.813,1.765,54.835,14.131,132.526,22.763,155.688,1.863,5-75.366,3.826-75.366,3.826-5.058-56.311-8.218-155.66-12.052-159.8-4.663-5.031-3.991,82.538-5.538,156-29.639,10.517-78.063,9.844-77.775,6.689C1072.913,781.28,1078.917,618.281,1078.917,618.281Z"/><g class="h"><path d="M1136.094,616.733l-.693,0S1135.647,616.732,1136.094,616.733Z"/><path class="i" d="M1136.094,616.733c18.489-.114,58.4-6.161,58.4-6.161,11.735-1.693,19.927-3.453,21.245-5.169,0,0,0,.049,0,.137.071,1.85.828,23.035,1.723,50.813a13.634,13.634,0,0,1-1.95-.057c-4.2-.411-7.589-2.7-10.311-6.069a33.49,33.49,0,0,1-4.458-7.567C1184.815,617.787,1142.022,616.756,1136.094,616.733Z"/></g><line class="j" x1="1.957" y2="204.971" transform="translate(1090.234 615.797)"/><line class="j" x1="2.114" y2="201.418" transform="translate(1109.722 618.203)"/><line class="j" x2="1.015" y2="199.743" transform="translate(1130.697 616.581)"/><line class="j" x2="3.947" y2="41.053" transform="translate(1148.863 615.018)"/><line class="j" x2="13.684" y2="202.702" transform="translate(1169.027 613.284)"/><line class="j" x2="16.515" y2="204.169" transform="translate(1186.367 611.665)"/><line class="j" x2="21.579" y2="204.914" transform="translate(1203.421 610.198)"/><path class="j" d="M1078.106,639.656s109.929-4.248,138.412-11.905"/><path class="j" d="M1152.81,656.071c-37.561,11.972-75.4,1.409-75.4,1.409"/><path class="j" d="M1152.174,653.515s35.406,6.741,65.067-4.075"/><path class="j" d="M1076.808,672.54s28.85,12.079,73.056.854"/><path class="j" d="M1076.074,690.478s44.088,9.421,73.131.124"/><path class="j" d="M1075.325,708.3s23.354,15.27,73.419,3.213"/><path class="j" d="M1074.431,728.8s34.86,14.562,74.059-.785"/><path class="j" d="M1073.576,747.589s25.071,14.74,74.653.661"/><path class="j" d="M1072.65,766.851s34.078,14.243,75.389-3.185"/><path class="j" d="M1071.876,781.889s20.832,16.85,75.943-1.71"/><path class="j" d="M1070.908,798.964s32.521,13.715,76.655-2.292"/><path class="j" d="M1155.341,671.936s15.469,10.684,63.63-2.377"/><path class="j" d="M1157.264,689.852s21.079,7.706,62-3.331"/><path class="j" d="M1157.989,709.857s32.1,6.734,62.817-5.4"/><path class="j" d="M1158.959,726.416s31.585,10.907,63.874-5.494"/><path class="j" d="M1160.008,744.6s29.836,7.672,65.225-5.61"/><path class="j" d="M1161.039,762.056s25.354,8.854,66.834-5.748"/><path class="j" d="M1162.364,777.468s30.27,12.444,68.446-4.288"/><path class="j" d="M1163.324,796.794s33.929,8.34,71.228-5.3"/><path class="k" d="M1066.307,401.274s3.234,15.892,15.337,21.6-22,6.569-22,6.569,1.445-16.577-2.623-25.4S1066.307,401.274,1066.307,401.274Z"/><ellipse class="e" cx="23.766" cy="17.419" rx="23.766" ry="17.419" transform="translate(1034.032 400.855) rotate(-68.921)"/><path class="d" d="M953.416,652.931c30.722-6.734,59.7-21.619,74.358-51.494.053.079.106.145.159.225.159.2.317.41.476.648a.685.685,0,0,1,.106.146c4.221,5.768,24.94,34.1,24.94,34.109,7.515,9.791,19,19.2,28.116,22.982.595.265,1.2.489,1.76.688,22.347,3.493,115.413-31.873,126.5-40.712,5-3.982,6.96-22.651,7.357-42.894.5-24.676-1.283-51.733-2.593-57.436-2.223-9.566-46.163-115.4-115.109-108.7a70.762,70.762,0,0,0-17.941,4.207s-.517.543-1.43,1.35a33.872,33.872,0,0,1-6.231,4.432,26.436,26.436,0,0,1-6.364,2.554,19.5,19.5,0,0,1-13.006-1.059c-4.313-1.931-13.893.331-25.523,6.828-16.155,9.01-36.3,26.2-51.852,51.6a1.552,1.552,0,0,0-.132.212,166.224,166.224,0,0,0-22.281,61.166A394.446,394.446,0,0,0,953.416,652.931Z"/><path class="l" d="M1027.777,601.43c.052.082.113.146.165.228.157.2.317.416.469.646.041.044.068.09.113.146,4.221,5.768,24.929,34.106,24.933,34.118,7.519,9.782,19,19.2,28.124,22.976-10.369-16.553-41.513-64.213-47.208-85.462C1037.47,595.278,1027.774,601.418,1027.777,601.43Z"/><path class="l" d="M1069.74,426.437c.5,1.494,0,2.721-2.522,3.114-7.863,1.229-16.331,3.992-21.682,8.683a5.5,5.5,0,0,1-5.161,1.306c-4.661-1.135-9.187-7.323-11.08-10.1a2.22,2.22,0,0,1-.3-.641c11.634-6.5,21.2-8.761,25.525-6.82a19.473,19.473,0,0,0,13,1.047A10.719,10.719,0,0,1,1069.74,426.437Z"/><path class="m" d="M1057.631,369.861s22.125,26.447,23.429-1.82C1081.961,348.483,1042.745,351.3,1057.631,369.861Z"/><path class="m" d="M1064.017,365.449s-19.344,3.274-21.437,13.23c0,0,7.312-29.316,23.237-23.985s21.4,9.177,8.61,38.227C1074.427,392.921,1078.95,367.634,1064.017,365.449Z"/><path class="m" d="M1065.064,354.613s4.151-8.413,12.317-3.847,9.967,10.931,9.3,16.345-.862,9.594.372,10.07c0,0-5.131,2.276-5.89.565,0,0-.217,10.114-7.1,15.834,0,0,2.726-11.847-2.971-15.461S1065.064,354.613,1065.064,354.613Z"/><path class="m" d="M1065.884,354.842s-4.745-6.083-14.249.18l-6.559,5.98s.759,1.71,3.7,1.427c0,0-4.478,8.265-5.19,13.63l9.37-13.437Z"/><path class="n" d="M1053.919,598.444l100.67,41.2a11.48,11.48,0,0,0,14.961-6.267l28.115-68.712a3.656,3.656,0,0,0,.176-.5,11.436,11.436,0,0,0-6.45-14.452l-100.671-41.2a11.461,11.461,0,0,0-14.949,6.274l-26.821,65.521-1.3,3.185A11.459,11.459,0,0,0,1053.919,598.444Z"/><path class="o" d="M1055.4,594.764l100.671,41.2a11.458,11.458,0,0,0,14.948-6.274l26.822-65.521a11.436,11.436,0,0,0-6.45-14.452l-100.671-41.2a11.461,11.461,0,0,0-14.949,6.274l-26.821,65.521A11.437,11.437,0,0,0,1055.4,594.764Z"/><circle class="p" cx="8.855" cy="8.855" r="8.855" transform="translate(1115.699 563.213)"/><path class="l" d="M1201,577.137s-9.655-38.348-107.293,4.611,83.259,1.377,83.259,1.377Z"/><path class="l" d="M1157.544,480.4s-3.43,103.54,95.989,117.4l2.131.651-7.062-22s-58.4-45.215-58.995-46.649S1157.544,480.4,1157.544,480.4Z"/><path class="c" d="M1107.381,593.111c-1.322-.045-16.274-3.854-23.341-2.435s-17.436,4.2-21.287,4.252c-4.531.059-5.091,2.034.269,2.433,3.484.26,10.443.2,11.879-.168.7-.177-3.964.558-9.135,1-5.5.472-11.549.69-11.531,1.689.035,1.937,16.149,1.505,18.861,1.005a69.189,69.189,0,0,1-7.177,1.228c-3.292.379-7.2.342-7.715,1.2-.8,1.353,8.02,2.093,14.818,1.049.177.178-1.833,1.138-9.991,1.836-.819.07-2.684.994.192,1.408,6.055.872,8.594,1.693,16.376-.368,7.589-2.01,15.425-6.035,21.375-5.837Z"/><path class="c" d="M1087.556,590.364s-7.646-4.377-14.484-3.434c-4.065.561-4.266-.444-5.015-.538-2.488-.312.859,3.135,4.472,3.2,2.937.05,5.8,4.187,7.706,4.678s7.26.834,8.275-.156S1087.556,590.364,1087.556,590.364Z"/><path class="d" d="M1169.971,407.089c30.26,14.237,52.709,29.149,82.507,91.354,15.118,31.56,23.645,65.088,27.5,82.961a21.537,21.537,0,0,1-8.825,22.179c-67.452,47.017-170.833.557-170.833.557-4.761-.315-.7-18.169-.7-18.169,41.236-12.778,73.31-20.973,110.057-18.137-.19-.028-50.505-50.955-59.855-66.358-24.5-40.4-73.429-67.079-68.825-87.154C1082.587,407.379,1139.449,392.728,1169.971,407.089Z"/><path class="q" d="M1189.652,965.124c-.533-2.41,20.5-1.1,22.636.709s33.076,7.436,33.275,17.763-48.418,6.376-51.862,6.429S1190.7,969.862,1189.652,965.124Z"/></g><rect class="r" width="8.09" height="24.516" transform="translate(596.465 454.963)"/><path class="r" d="M592.039,466.425v-7.241a26.613,26.613,0,1,0,17.1,0v7.245a19.885,19.885,0,1,1-17.1,0Z"/><path class="s" d="M561.57,484.59a39.018,39.018,0,1,0,39.017-39.018A39.018,39.018,0,0,0,561.57,484.59Zm73.919,0a34.9,34.9,0,1,1-34.9-34.9A34.941,34.941,0,0,1,635.489,484.59Z"/><path class="s" d="M567.186,484.59a33.4,33.4,0,1,0,33.4-33.4A33.441,33.441,0,0,0,567.186,484.59Zm41.95-25.406a26.613,26.613,0,1,1-17.1,0v7.241a19.893,19.893,0,1,0,17.1,0Zm-4.581,20.3h-8.09V454.963h8.09Z"/><path class="r" d="M565.688,484.59a34.9,34.9,0,1,0,34.9-34.9A34.939,34.939,0,0,0,565.688,484.59Zm68.3,0a33.4,33.4,0,1,1-33.406-33.4A33.445,33.445,0,0,1,633.993,484.59Z"/><path class="r" d="M632.65,335.07,606.2,319.8a16.112,16.112,0,0,0-14.581,0L565.162,335.07c-2.016,1.164-3,2.686-2.987,4.21.006.631-.017,3.189,0,3.862.04,1.481,1.026,2.952,2.986,4.083L591.616,362.5a16.112,16.112,0,0,0,14.581,0l26.453-15.273c1.953-1.128,2.939-2.593,2.985-4.07.021-.677-.005-3.244,0-3.875C635.651,337.756,634.665,336.234,632.65,335.07Z"/><path class="t" d="M565.162,343.489l26.454,15.273a16.11,16.11,0,0,0,14.58,0l26.454-15.273c4.026-2.325,4.026-6.094,0-8.419L606.2,319.8a16.112,16.112,0,0,0-14.581,0L565.162,335.07C561.135,337.395,561.135,341.164,565.162,343.489Z"/><path class="s" d="M565.162,343.489l26.454,15.273a16.11,16.11,0,0,0,14.58,0l26.454-15.273c4.026-2.325,4.026-6.094,0-8.419L606.2,319.8a16.112,16.112,0,0,0-14.581,0L565.162,335.07C561.135,337.395,561.135,341.164,565.162,343.489Z"/><path class="u" d="M600.588,289.562c-20.132,0-41.8,4.14-41.8,13.233,0,4.6,5.546,7.932,13.633,10.1,1.341.365,2.754.693,4.222.99a13.5,13.5,0,0,0,3.991.191l5.113-.5a.928.928,0,0,0,.317-1.757l-2.526-1.238a13.941,13.941,0,0,0-3.676-1.194q-2.021-.361-3.791-.771c-8.145-1.882-12.295-4.4-12.295-5.814,0-2.467,12.527-8.245,36.813-8.245S637.4,300.328,637.4,302.8c0,1.5-4.649,4.232-13.774,6.141a98.136,98.136,0,0,1-12.426,1.7l-4.912,3.574,7.574,1.2a101.451,101.451,0,0,0,11.379-1.683c9.95-2.1,17.147-5.7,17.147-10.939C642.388,293.7,620.719,289.562,600.588,289.562Z"/><path class="u" d="M626.479,317.421l-12.617-2-7.574-1.2,4.912-3.574,10.449-7.6,1.977,5.891,1.615,4.8Z"/><path class="r" d="M600.625,299.927a8.439,8.439,0,0,0-2.965,0l-3.494,0,0,36.218h0a2.465,2.465,0,0,0,1.452,2.038,7.745,7.745,0,0,0,7.022,0,2.478,2.478,0,0,0,1.454-2.026h0l0-36.218Z"/><path class="v" d="M597.66,299.925l-3.494,0v6.632a12.426,12.426,0,0,0,9.931-.2v-6.424l-3.471,0A8.439,8.439,0,0,0,597.66,299.925Z"/><path class="w" d="M611.558,290.925a12.653,12.653,0,1,1-12.653-12.653A12.653,12.653,0,0,1,611.558,290.925Z"/><path class="v" d="M599.13,295.963c-7.8-2-10.929-9.728-8.114-14.858a12.629,12.629,0,1,0,20.541,9.82C611.745,293.07,606.974,297.976,599.13,295.963Z"/><rect class="x" width="78.213" height="78.21" transform="translate(823.198 291.693)"/><rect class="y" width="12.533" height="29.218" transform="translate(856.038 316.19)"/><rect class="z" width="12.533" height="14.611" transform="translate(856.038 330.798)"/><path class="aa" d="M868.571,316.19v29.219H856.038V316.19Zm1.335-1.333H854.7v31.885h15.2V314.857Z"/><path class="ab" d="M898.716,367.211H825.892V294.385h72.824Zm-71.541-1.282h70.259V295.667H827.175Z"/><path class="ac" d="M857.02,299.228c2.769,0,4.7.528,4.7,6.016,0,5.17-1.817,5.843-4.7,5.843s-4.712-.513-4.712-5.843C852.308,299.756,854.332,299.228,857.02,299.228Zm0,9.8c1.881,0,2.458-.621,2.458-3.779,0-3.649-.676-3.952-2.458-3.952-1.731,0-2.472.226-2.472,3.952C854.548,308.442,855.02,309.023,857.02,309.023Z"/><path class="ac" d="M863.22,299.308h2.273l4.649,7.571v-7.571h2.242v11.714h-2.242l-4.664-7.48v7.48H863.22Z"/><path class="ac" d="M853.534,351.051c2.768,0,4.7.528,4.7,6.018,0,5.169-1.817,5.841-4.7,5.841s-4.713-.511-4.713-5.841C848.821,351.579,850.845,351.051,853.534,351.051Zm0,9.8c1.88,0,2.457-.619,2.457-3.777,0-3.65-.676-3.952-2.457-3.952-1.733,0-2.473.224-2.473,3.952C851.061,360.267,851.533,360.846,853.534,360.846Z"/><path class="ac" d="M859.37,353.6a2.273,2.273,0,0,1,2.545-2.468s4.125.116,5.154.257v1.852h-4.626c-.832,0-.832.464-.832.9v1.828l4.73.169v1.843l-4.73.149v4.722H859.37Z"/><path class="ac" d="M868.441,353.6a2.272,2.272,0,0,1,2.544-2.468s4.126.116,5.155.257v1.852h-4.626c-.833,0-.833.464-.833.9v1.828l4.731.169v1.843l-4.731.149v4.722h-2.24Z"/><path class="ad" d="M841.447,330.8a2.722,2.722,0,1,1-2.722-2.721A2.723,2.723,0,0,1,841.447,330.8Z"/><path class="ad" d="M888.609,330.8a2.724,2.724,0,1,1-2.725-2.721A2.726,2.726,0,0,1,888.609,330.8Z"/><rect class="x" width="78.213" height="78.21" transform="translate(693.165 369.903)"/><path class="ab" d="M768.684,445.421H695.86V372.594h72.824Zm-71.542-1.282H767.4V373.877H697.142Z"/><rect class="ae" width="45.861" height="77.442" transform="translate(839.374 445.745)"/><rect class="af" width="9.256" height="9.255" transform="translate(845.704 470.072)"/><rect class="af" width="9.256" height="9.255" transform="translate(857.676 470.072)"/><rect class="af" width="9.255" height="9.255" transform="translate(869.649 470.072)"/><rect class="af" width="9.256" height="9.256" transform="translate(845.704 481.763)"/><rect class="af" width="9.256" height="9.256" transform="translate(857.676 481.763)"/><rect class="af" width="9.255" height="9.256" transform="translate(869.649 481.763)"/><rect class="af" width="9.256" height="9.255" transform="translate(845.704 493.456)"/><rect class="af" width="9.256" height="9.255" transform="translate(857.676 493.456)"/><rect class="af" width="9.255" height="9.255" transform="translate(869.649 493.456)"/><rect class="af" width="9.256" height="9.256" transform="translate(845.704 505.147)"/><rect class="af" width="9.256" height="9.256" transform="translate(857.676 505.147)"/><rect class="af" width="9.255" height="9.256" transform="translate(869.649 505.147)"/><rect class="u" width="30.049" height="12.475" transform="translate(847.28 452.908)"/><circle class="z" cx="13.983" cy="13.983" r="13.983" transform="translate(718.288 391.024)"/><path class="ag" d="M743.088,396.154a13.977,13.977,0,0,0-19.65,19.68,13.976,13.976,0,1,1,19.65-19.68Z"/><text class="ah" transform="translate(709.847 440.228)"><tspan x="0" y="0">STOP!</tspan></text></g></svg>