<svg xmlns="http://www.w3.org/2000/svg" xmlns:xlink="http://www.w3.org/1999/xlink" width="588" height="407.953" viewBox="0 0 588 407.953"><defs><style>.a,.m{fill:none;}.b{fill:#bcd3d7;opacity:0.49;}.c{clip-path:url(#a);}.d{fill:#c2934e;}.e,.l{fill:#caa267;}.f{fill:#8a7cc7;}.g{fill:#f1c759;}.h{opacity:0.15;}.i{opacity:0.3;}.j{opacity:0.5;}.k{fill:#eec459;}.l{fill-rule:evenodd;}.m{stroke:#8a7cc7;stroke-miterlimit:10;stroke-width:1.093px;}.n{fill:#9180d2;}</style><clipPath id="a"><path class="a" d="M598.037,507.136c-73.293-58.728-109.94-88.092-144.346-97.646-114.95-31.919-278.257,33.775-314.168,152.839-1.868,6.194-26.5,92.227,21.228,148.592,39.958,47.191,90.225,25.862,237.748,50.946,157.94,26.855,196.011,67.572,250.483,36.154,51.576-29.747,79.539-102.058,67.929-159.273C708.278,596.2,671.413,565.93,598.037,507.136Z" transform="translate(-131.519 -401.457)"/></clipPath></defs><g transform="translate(-131.519 -401.457)"><path class="b" d="M598.037,507.136c-73.293-58.728-109.94-88.092-144.346-97.646-114.95-31.919-278.257,33.775-314.168,152.839-1.868,6.194-26.5,92.227,21.228,148.592,39.958,47.191,90.225,25.862,237.748,50.946,157.94,26.855,196.011,67.572,250.483,36.154,51.576-29.747,79.539-102.058,67.929-159.273C708.278,596.2,671.413,565.93,598.037,507.136Z"/><g transform="translate(131.519 401.457)"><g class="c"><g transform="translate(129.105 49.786)"><path class="d" d="M334.7,481.834s1.515,16.917-8.918,26.271,24.046,0,24.046,0-6.417-16.2-4.977-26.271S334.7,481.834,334.7,481.834Z" transform="translate(-189.039 -422.987)"/><ellipse class="e" cx="18.242" cy="24.889" rx="18.242" ry="24.889" transform="translate(132.917 15.629)"/><path class="f" d="M249.057,639.459c.388,6.111,6.706,33.8,14.6,58.4,6.472,20.2,14.023,38.34,20.23,40.847,13.772,5.542,117.762,13.151,139.142,2.952.5-.375,1.039-.775,1.552-1.22,8.024-6.525,16.724-19.411,21.339-31.48,0-.014,12.29-34.654,14.8-41.708.029-.068.043-.123.07-.18.084-.277.18-.539.277-.789.027-.1.069-.181.1-.277,12.941,44.186,114.09,40.972,55.424-81.751-27.616-57.766-76.9-84.121-108.367-91.118-13.621-3.034-23.9-2.439-27.657.8a20.408,20.408,0,0,1-12.735,4.947,27.669,27.669,0,0,1-7.15-.652,35.576,35.576,0,0,1-7.579-2.577c-1.164-.541-1.843-.928-1.843-.928a73.841,73.841,0,0,0-19.26,1.15C260.807,509.821,248.42,629.191,249.057,639.459Z" transform="translate(-216.876 -417.85)"/><path class="g" d="M274.265,841.7H345.95q-.144-6.587-.321-13.28c-.151-6.1-.323-12.237-.494-18.313-.183-6.44-.365-12.828-.537-19.054-.172-5.968-.333-11.786-.483-17.369-.408-15.769-.687-29.69-.634-39.8.044-9.576.387-15.726,1.213-16.779.311-.4.634-.321.977.215,1.084,1.7,2.308,8,3.65,17.594.719,5.1,1.46,11.132,2.233,17.894.762,6.612,1.545,13.944,2.362,21.781.568,5.5,1.149,11.25,1.75,17.2.677,6.816,1.374,13.87,2.082,21.082.527,5.282,1.052,10.649,1.589,16.071q.628,6.344,1.256,12.764h79.92c-.022-.194-.044-.4-.076-.591-.7-4.969-1.418-10.2-2.157-15.618-.881-6.441-1.783-13.151-2.7-20.009-.848-6.409-1.717-12.957-2.576-19.526-1.761-13.409-3.51-26.965-5.153-39.837-1.578-12.312-3.049-24-4.358-34.318-3.027-24.089-5.088-40.759-5.088-40.759a8.146,8.146,0,0,1-.655.59.227.227,0,0,1-.054.044,9.437,9.437,0,0,1-2.266,1.352,14.037,14.037,0,0,1-3.413.955c-1.772.033-4.229.076-7.257.129-5.368.1-12.495.193-20.675.28-6.119.065-12.828.118-19.806.139-1.824.011-3.66.022-5.507.011h-.085c-4.476.011-9.017.011-13.569-.011-7.148-.032-14.309-.107-21.18-.236-6.407-.118-12.58-.279-18.249-.5-2.458-.108-4.819-.216-7.074-.334-.021.011-.043,0-.064,0l-.557-.032c-.569-.033-.881-.053-.881-.053-1.149-.065-2.255-.14-3.337-.216s-2.127-.14-3.136-.225h-.011c-.837-.065-1.641-.129-2.426-.2-.515-.043-1.031-.1-1.523-.15-.247-.022-.494-.044-.73-.075s-.483-.054-.719-.076-.473-.054-.7-.075-.45-.054-.677-.085c-.321-.033-.633-.076-.944-.118-1.2-.162-2.286-.323-3.252-.494a22.585,22.585,0,0,1-3.693-.934,2.851,2.851,0,0,1-.29-.118,4.361,4.361,0,0,1-.505-.225c-.075-.043-.15-.085-.214-.118s-.129-.086-.182-.129a1.356,1.356,0,0,1-.291-.247,1.23,1.23,0,0,0,.011.14c0,.086.011.225.022.408.011.236.021.547.043.934.011.257.022.547.043.859.033.59.065,1.287.1,2.082.011.2.022.408.032.623a.509.509,0,0,1,.011.129c.011.3.033.612.043.933s.044.666.055,1.01c.032.633.065,1.3.107,2,.011.29.022.59.043.891.022.429.044.869.064,1.32.021.3.033.612.043.933.064,1.193.129,2.448.2,3.779.032.666.065,1.353.107,2.05s.064,1.418.107,2.157c.055,1.021.108,2.072.162,3.145.085,1.643.172,3.361.268,5.132.042.891.1,1.792.14,2.716.107,2.1.225,4.294.343,6.547.1,1.622.173,3.285.269,4.981.054,1.1.118,2.2.172,3.317q.194,3.526.387,7.235c.247,4.552.428,9.253.557,14.074.483,17.078.3,35.617-.354,53.78-.247,6.431-.537,12.806-.891,19.054s-.752,12.388-1.2,18.313Q274.856,835.261,274.265,841.7Z" transform="translate(-207.483 -351.316)"/><path class="h" d="M413.539,625.482c-.029.1-.07.18-.1.277-.1.25-.194.512-.277.789-.027.056-.041.111-.069.181-2.509,7.052-14.8,41.693-14.8,41.706-4.614,12.068-13.315,24.955-21.339,31.481,5.447-19.718,22.419-76.874,21.768-99.9C401.969,622.212,413.539,625.468,413.539,625.482Z" transform="translate(-169.253 -377.325)"/><path class="h" d="M303.23,562.678s42.392,99.866-49.517,150.892l-1.836,1.439-1.4-24.162s40-66.195,40.049-67.822S303.23,562.678,303.23,562.678Z" transform="translate(-216.338 -391.224)"/><path class="h" d="M334.726,502.976c-.056,1.649.818,2.729,3.464,2.37,8.258-1.122,17.583-.886,24.359,2.216a5.756,5.756,0,0,0,5.57-.235c4.336-2.536,7.025-10.1,8.092-13.455a2.323,2.323,0,0,0,.11-.734c-13.62-3.034-23.9-2.439-27.656.8a20.408,20.408,0,0,1-12.735,4.947A11.244,11.244,0,0,0,334.726,502.976Z" transform="translate(-184.976 -417.85)"/><g class="i" transform="translate(67.007 318.561)"><path d="M335.728,673.3c.244-.019.487-.038.723-.059C336.451,673.24,336.195,673.258,335.728,673.3Z" transform="translate(-251.609 -668.625)"/><path class="j" d="M358.548,674.551c-19.3,1.541-61.488-1.187-61.488-1.187-12.4-.714-21.1-1.816-22.632-3.487a1.34,1.34,0,0,0,.011.143c.091,1.938,1.2,24.11,2.762,53.173a14.327,14.327,0,0,0,2.028-.235c4.343-.806,7.677-3.5,10.215-7.258a35.043,35.043,0,0,0,3.971-8.3C307.808,680.024,352.365,675.107,358.548,674.551Z" transform="translate(-274.429 -669.877)"/></g><g transform="translate(126.509)"><g transform="translate(6.192 6.939)"><path class="k" d="M347.245,462.087s-31.582,17.51-22.209-10.6C331.521,432.033,368.782,449.554,347.245,462.087Z" transform="translate(-321.931 -442.793)"/><path class="k" d="M343.036,455.03s17.671,10.484,15.965,21c0,0,3.9-31.4-13.672-32.189s-24.372.906-22.811,34.111C322.518,477.953,327.621,451.539,343.036,455.03Z" transform="translate(-322.301 -442.453)"/></g><path class="k" d="M347.775,446.27s-.888-9.784-10.587-8.4-13.856,6.927-15.242,12.47-2.771,9.7-4.157,9.7c0,0,4.157,4.157,5.543,2.771,0,0-3.6,9.965.973,18.146,0,0,1.8-12.6,8.726-13.988S347.775,446.27,347.775,446.27Z" transform="translate(-317.789 -437.737)"/><path class="k" d="M338.993,444.133s6.929-4.157,13.856,5.543l4.157,8.313s-1.385,1.386-4.157,0c0,0,1.263,9.762-.062,15.273L348.692,456.6Z" transform="translate(-309.895 -435.686)"/></g><path class="h" d="M284.574,653.365s-5.027-41.107,106.564-35.951-80.826,32.74-80.826,32.74Z" transform="translate(-203.658 -371.013)"/><g transform="translate(0 75.939)"><g transform="translate(178.402 165.12)"><path class="l" d="M355.6,633.4c1.275-.541,14.447-9.9,21.886-11.179s18.619-2.47,22.4-3.873c4.449-1.651,5.74.067.655,2.48-3.306,1.567-10.129,4.129-11.67,4.315-.747.089,4.084-.95,9.3-2.466,5.549-1.611,11.543-3.68,11.9-2.7.7,1.906-15.209,7.56-18.048,8.094a72.266,72.266,0,0,0,7.475-1.505c3.359-.871,7.169-2.382,7.991-1.736,1.3,1.018-7.047,5.069-14.081,6.613-.106.24,2.219.42,10.453-1.975.827-.24,3-.041.343,1.449-5.587,3.134-7.758,4.9-16.138,5.814-8.172.9-17.347-.08-23.084,2.357Z" transform="translate(-355.604 -611.801)"/><path class="l" d="M369.04,624.843s5.82-7.159,12.857-8.817c4.183-.984,4-2.042,4.7-2.417,2.314-1.243.343,3.387-3.164,4.809-2.849,1.157-4.091,6.279-5.765,7.476s-6.778,3.553-8.143,2.968S369.04,624.843,369.04,624.843Z" transform="translate(-350.707 -613.4)"/></g><path class="f" d="M272.709,521.651C248.513,546.97,232.2,570,226.545,642.015c-2.872,36.534,1.44,72.507,4.415,91.421a22.554,22.554,0,0,0,16.985,18.342c83.631,20.5,167.116-63.87,167.116-63.87,4.533-2.1-6.17-18.014-6.17-18.014-45.107,3.064-79.533,7.151-114.366,23.779.176-.1,30.131-68.828,33.458-87.4,8.71-48.708,46.449-93.223,34.381-111.1C358.194,488.986,297.115,496.112,272.709,521.651Z" transform="translate(-225.6 -493.075)"/></g><g transform="translate(77.076 318.315)"><path class="m" d="M385.5,841.763l-.945-9.951L382.726,812.7l-1.964-20.5L378.84,772.1l-2.1-21.952-1.642-17.25-1.61-16.853-2.115-22.092L369.812,677.7l-.333-3.521-.429-4.476" transform="translate(-249.273 -669.698)"/><path class="m" d="M370.475,840.6l-.7-7.224-1.8-18.667-1.943-20.1-1.9-19.709-2.168-22.478-1.653-17.111-1.653-17.1-2.394-24.7-1.428-14.857-.526-5.367-.043-.483" transform="translate(-254.777 -668.539)"/><path class="m" d="M339.825,672.812l.054.623.451,5.6,1.213,15.039,2.018,24.861,1.363,16.939,1.449,17.852,1.75,21.662,1.535,18.99,1.61,19.956,1.438,17.755.687,8.513" transform="translate(-260.153 -668.539)"/><line class="m" x1="0.434" y2="43.189" transform="translate(60.138 4.276)"/><path class="m" d="M313.551,840.6l-.161-8.921-.354-18.807-.322-17.894-.354-18.925-.376-20.224-.311-17.24-.4-21.5-.419-22.51-.236-12.892-.075-4.187-.075-3.939V673.2l-.011-.386" transform="translate(-271.085 -668.539)"/><path class="m" d="M297.169,672.718v.086l.022,3.242L297.266,692l.011,2.394.129,23.97.107,21.04.086,17.336.107,20.235.1,19.236.086,17.508.1,18.582.043,8.341" transform="translate(-276.033 -668.574)"/><path class="m" d="M284.977,672.718l-.021,1.2-.376,19.634-.451,23.455-.011.805-.376,19.795-.344,17.455-.365,19.526-.354,18.185-.344,18.345-.354,18.4-.215,11.121" transform="translate(-281.767 -668.574)"/></g><path class="m" d="M420.785,686.92s-115.081,5.433-145.486,0" transform="translate(-207.098 -344.972)"/><path class="m" d="M325.591,705.724c40.265,9.12,78.8-5.3,78.8-5.3" transform="translate(-188.376 -339.943)"/><path class="m" d="M344.424,702.3s-36.338,10.211-68.256,1.588" transform="translate(-206.775 -339.246)"/><path class="m" d="M405.113,711.838s-29.018,15.192-76.15,7.447" transform="translate(-187.12 -335.695)"/><path class="m" d="M406.883,725.429s-45.155,13.786-76.293,6.693" transform="translate(-186.515 -330.636)"/><path class="m" d="M408.624,738.931s-23,18.029-76.316,9.941" transform="translate(-185.875 -325.609)"/><path class="m" d="M410.923,754.462s-35.066,18.323-77.342,5.827" transform="translate(-185.401 -319.827)"/><path class="m" d="M412.935,768.689s-24.836,17.63-77.833,7.39" transform="translate(-184.835 -314.531)"/><path class="m" d="M415.2,783.275s-34.279,17.919-78.946,3.442" transform="translate(-184.406 -309.101)"/><path class="m" d="M394.848,795.245c.473-.376.7-.591.7-.591" transform="translate(-162.593 -304.865)"/><path class="m" d="M342.773,716.515s-15.182,12.536-66.6,3.23" transform="translate(-206.775 -333.954)"/><path class="m" d="M342.043,730.262s-21.3,9.934-64.988,2.089" transform="translate(-206.445 -328.836)"/><path class="m" d="M343.082,745.521s-32.893,9.906-66.027,0" transform="translate(-206.445 -323.156)"/><path class="m" d="M343.729,758.174s-31.975,14.215-67.139,0" transform="translate(-206.618 -318.445)"/><path class="m" d="M344.506,772.066s-30.443,10.683-68.559,0" transform="translate(-206.857 -313.274)"/><path class="m" d="M345.323,785.409s-25.66,11.513-70.251,0" transform="translate(-207.183 -308.306)"/><path class="h" d="M340.989,515.257c-.79,2.588-6.369,11.684-4.645,19.772s39.169,88.786,54.6,99.214,43.289,22.283,43.289,22.283L358.1,551.206l-4.209-35.95S345.925,499.086,340.989,515.257Z" transform="translate(-184.495 -411.554)"/><g transform="translate(159.288 69.214)"><path class="l" d="M345.9,517.521s-4.648-8.143-3.636-15.42c.6-4.324-.468-4.539-.567-5.338-.329-2.648,3.335.918,3.4,4.764.049,3.125,4.449,6.181,4.969,8.206s.878,7.729-.177,8.807S345.9,517.521,345.9,517.521Z" transform="translate(-341.676 -485.318)"/><path class="l" d="M347.655,541.48c-.045-1.408-4.081-17.325-2.563-24.845s4.57-20.557,4.627-24.657c.069-4.822,2.171-5.415,2.59.291.273,3.708.122,13.12-.269,14.648a59.5,59.5,0,0,0,1.424-9.642c.188-3.219.948-1.947,2.023-1.647,1.986.553,1.114,5.991.579,8.877a27.914,27.914,0,0,0,1.442-7.08c.141-1.641.933-1.214,1.908-1.065s1.382,1.33.262,8.564c.189.188.486,2,1.238-6.676.076-.873,2.624-2.636,2.719.456.165,5.423,1.3,4.944-.9,13.223-2.149,8.074-6.443,16.41-6.238,22.743Z" transform="translate(-340.531 -488.174)"/></g><path class="n" d="M363.908,517.237A199.067,199.067,0,0,1,435.8,541.5c19.18,10.992,66.8,38.283,71.9,83.58.446,3.959,3.82,38.03-17.075,52.126-13.982,9.433-31.564,5.016-36.234,3.842-8.294-2.084-19.392-6.756-62.624-64.056-24.569-32.564-37.149-52.482-46.733-79.086-1.611-4.471-2.809-8.223-3.6-10.785Z" transform="translate(-182.475 -408.141)"/></g></g></g></g></svg>