<svg xmlns="http://www.w3.org/2000/svg" width="439.501" height="323.593" viewBox="0 0 439.501 323.593"><defs><style>.a,.d{fill:#caa267;}.a,.b{fill-rule:evenodd;}.b{fill:#b8945b;}.c{fill:#c2934e;}.e{fill:#8a7cc7;}.f{opacity:0.15;}.g{fill:#eec459;}.h{fill:#e2a353;}.i{fill:#b38343;}.j{fill:#b15328;}.k{fill:#e7e7e7;}.l{fill:#8c929e;}.m{fill:#3f3f3f;}.n{fill:#cccdd2;}.o{fill:#a5a5a5;}</style></defs><g transform="translate(-741.193 -254.075)"><g transform="translate(741.193 254.075)"><g transform="translate(86.28 26.548)"><path class="a" d="M860.218,321.552c-.294-1.006-1.2-13.118-3.975-18.128s-7.364-12.2-8.35-15.1c-1.16-3.4-3.785-6.628-1.71.743a70.065,70.065,0,0,0,3.051,8.913c.3.485-.286-.341-1.885-4.139-1.7-4.038-2.292,1.666-1.258,3.6,0,0,.289.209-.992-2.614-1.088-2.4-4-1.56-1.566,3.331-.044.086-1.986-3.655-2.581-3-1.448,1.588.391,5.895,2.1,8.6,3.338,5.271,8.207,10.283,9.528,14.81Z" transform="translate(-840.43 -284.61)"/><path class="a" d="M858.988,307.34s.97-5.722-.124-8.257c-1.29-2.993-1.841-2.431-4.655-3.967-1.6-.989-1.961.748,1.9,3.165.687,2.223-1.884,2.867-1.774,4.409s1.181,5.656,2.154,6.2S858.988,307.34,858.988,307.34Z" transform="translate(-842.08 -285.944)"/><path class="b" d="M854.783,302.24s-2.4,3.5-2.461,6.02S850.1,300.806,854.783,302.24Z" transform="translate(-841.911 -286.893)"/></g><g transform="translate(94.242)"><path class="c" d="M1033.086,304.932s-1.15,12.838,6.768,19.938-18.25,0-18.25,0,4.87-12.3,3.777-19.938S1033.086,304.932,1033.086,304.932Z" transform="translate(-872.047 -260.271)"/><ellipse class="d" cx="13.844" cy="18.889" rx="13.844" ry="18.889" transform="translate(143.018 11.862)"/><path class="e" d="M900.336,388.718c20.958-43.84,58.361-63.84,82.242-69.15,10.337-2.3,18.14-1.851,20.989.609a15.476,15.476,0,0,0,9.664,3.754,20.9,20.9,0,0,0,5.426-.495,27,27,0,0,0,5.752-1.955c.883-.41,1.4-.705,1.4-.705a56.118,56.118,0,0,1,14.617.873c54.028,10.578,63.43,101.17,62.946,108.962-.295,4.638-5.09,25.647-11.083,44.323-4.911,15.332-10.642,29.1-15.353,31-10.452,4.206-89.372,9.979-105.6,2.24-.378-.284-.789-.589-1.177-.925-6.089-4.953-12.693-14.733-16.194-23.891,0-.01-9.327-26.3-11.231-31.652-.021-.053-.032-.095-.053-.137-.063-.21-.137-.41-.21-.6-.021-.073-.052-.137-.073-.21" transform="translate(-856.213 -262.429)"/><path class="f" d="M948.718,467.784c.021.074.052.137.074.21.073.19.147.39.21.6.021.042.031.083.052.137,1.9,5.352,11.23,31.641,11.23,31.652,3.5,9.159,10.106,18.938,16.194,23.891-4.132-14.964-17.014-58.34-16.52-75.818C957.5,465.3,948.718,467.773,948.718,467.784Z" transform="translate(-862.53 -279.454)"/><path class="f" d="M1093.344,398.608s-26.153,78.072,46.409,111.229l1.475.98-.375-18.362s-34.192-47.711-34.321-48.94S1093.344,398.608,1093.344,398.608Z" transform="translate(-880.814 -272.946)"/><path class="f" d="M1026.5,327.034c.043,1.251-.62,2.071-2.628,1.8-6.268-.852-13.344-.673-18.487,1.682a4.365,4.365,0,0,1-4.227-.179c-3.291-1.924-5.331-7.666-6.141-10.21a1.744,1.744,0,0,1-.084-.557c10.337-2.3,18.14-1.851,20.989.609a15.476,15.476,0,0,0,9.664,3.754A8.515,8.515,0,0,1,1026.5,327.034Z" transform="translate(-868.563 -262.429)"/><g transform="translate(139.817)"><g transform="translate(2.922 5.267)"><path class="g" d="M1023.266,274.774s23.968,13.288,16.854-8.047C1035.2,251.966,1006.92,265.263,1023.266,274.774Z" transform="translate(-1014.346 -260.132)"/><path class="g" d="M1026.157,269.82s-13.409,7.957-12.115,15.939c0,0-2.957-23.831,10.377-24.43s18.5.689,17.311,25.888C1041.729,287.217,1037.856,267.171,1026.157,269.82Z" transform="translate(-1013.762 -260.276)"/></g><path class="g" d="M1025.349,260.551s.674-7.425,8.034-6.374,10.516,5.258,11.567,9.464,2.1,7.362,3.154,7.362c0,0-3.154,3.154-4.205,2.1,0,0,2.729,7.562-.739,13.771,0,0-1.364-9.566-6.622-10.617S1025.349,260.551,1025.349,260.551Z" transform="translate(-1012.353 -254.075)"/><path class="g" d="M1024.071,261.348s-5.258-3.154-10.516,4.206l-3.154,6.31s1.051,1.051,3.154,0c0,0-.958,7.408.047,11.59l3.107-12.642Z" transform="translate(-1010.401 -254.937)"/></g><path class="f" d="M1105.132,494.436s-13.528-28.368-82.88,20.393,65.09-11.963,65.09-11.963Z" transform="translate(-869.536 -284.386)"/><path class="e" d="M936.112,451.129s-64.009,27.154-79.54-31.408.624-72.61-5.691-101.118l10.3-4.957s38.752,23.891,52.017,60.777S936.112,451.129,936.112,451.129Z" transform="translate(-849.587 -261.853)"/></g><path class="h" d="M741.193,600.019h439.5l-66.349-61.267H800.261l-4.121,7.561Z" transform="translate(-741.193 -291.243)"/><path class="f" d="M950.691,538.752c5.557,5.8,20.022,15.841,55.111,19.093,50.393,4.664,121.026-19.093,121.026-19.093Z" transform="translate(-768.546 -291.243)"/><g transform="translate(203.841 55.566)"><g transform="translate(0 184.467)"><path class="a" d="M1017.669,545.1c-1-.335-11.517-6.636-17.222-7.162s-14.234-.765-17.178-1.6c-3.465-.985-4.339.391-.348,1.915a56.386,56.386,0,0,0,9.085,2.573c.57.023-3.146-.476-7.185-1.314-4.294-.89-8.953-2.1-9.166-1.335-.414,1.483,11.956,4.818,14.135,5.053a54.928,54.928,0,0,1-5.745-.7c-2.593-.46-5.564-1.378-6.149-.84-.92.847,5.632,3.418,11.046,4.168.094.176-1.655.449-8.026-.874-.64-.133-2.27.147-.174,1.116,4.412,2.041,6.16,3.243,12.555,3.443,6.237.194,13.12-1.089,17.605.415Z" transform="translate(-975.645 -530.917)"/><path class="a" d="M1005.127,537.734s-4.828-5.071-10.25-5.908c-3.223-.5-3.147-1.309-3.7-1.55-1.824-.8-.058,2.582,2.68,3.451,2.225.706,3.467,4.508,4.8,5.314S1004,541.326,1005,540.8,1005.127,537.734,1005.127,537.734Z" transform="translate(-977.576 -530.153)"/></g><path class="e" d="M1109.458,335.078c19.807,17.723,33.512,34.183,42.063,88.33,4.338,27.472,3.208,54.944,2.079,69.431a17.119,17.119,0,0,1-11.764,14.885c-62.059,20.469-128.3,16.382-128.3,16.382-3.554-1.323.279-14.181.279-14.181,31.75-43.089,77.128-35.844,89.335-43.4,3.807-22.336-26.877-50.288-30.5-64.144-9.477-36.336-40.669-67.78-32.6-82.021C1042.845,315.431,1089.48,317.2,1109.458,335.078Z" transform="translate(-980.395 -317.985)"/></g><rect class="i" width="439.501" height="14.818" transform="translate(0 308.776)"/></g><g transform="translate(867.352 415.721)"><g transform="translate(163.529 57.259)"><path class="j" d="M1075.507,507.726h0a.538.538,0,0,0,.318-.689l-.436-1.184-1.006.37.436,1.184A.538.538,0,0,0,1075.507,507.726Z" transform="translate(-1074.383 -505.853)"/></g><g transform="translate(157.926 59.314)"><path class="j" d="M1069.059,510.1h0a.538.538,0,0,0,.318-.689l-.437-1.185c-.03-.079-1,.382-1,.382l.432,1.174A.537.537,0,0,0,1069.059,510.1Z" transform="translate(-1067.939 -508.216)"/></g><g transform="translate(163.563 56.564)"><path class="k" d="M1075.621,507.389h0a.538.538,0,0,0,.317-.689l-.477-1.3a.538.538,0,0,0-.689-.318h0a.538.538,0,0,0-.317.689l.477,1.3A.537.537,0,0,0,1075.621,507.389Z" transform="translate(-1074.422 -505.053)"/></g><g transform="translate(157.967 58.624)"><path class="k" d="M1069.185,509.759h0a.538.538,0,0,0,.317-.689l-.477-1.3a.538.538,0,0,0-.689-.318h0a.538.538,0,0,0-.317.689l.477,1.3A.538.538,0,0,0,1069.185,509.759Z" transform="translate(-1067.986 -507.423)"/></g><g transform="translate(162.812 71.274)"><rect class="l" width="3.515" height="2.279" transform="translate(0 1.215) rotate(-20.217)"/></g><g transform="translate(161.309 67.505)"><rect class="l" width="3.515" height="2.279" transform="translate(0 1.215) rotate(-20.217)"/></g><g transform="translate(0 96.241)"><path class="m" d="M890.646,596.845h178.547a3.969,3.969,0,0,0,4.289-3.912v-2.675l-19.544-36.113a6.221,6.221,0,0,0-5.571-3.455H911.732c-2.549,0-8.172,5.022-9.312,7.3L886.3,590.86v1.181C886.258,595.464,888.471,596.845,890.646,596.845Z" transform="translate(-886.297 -550.689)"/></g><g transform="translate(0 92.461)"><path class="n" d="M890.63,592.5h178.547c1.982,0,5.246-1.739,4.02-3.876L1053.922,549.8a6.22,6.22,0,0,0-5.571-3.454H911.717a6.729,6.729,0,0,0-6.02,3.722l-19.081,38.181C885.278,590.679,888.455,592.5,890.63,592.5Z" transform="translate(-886.298 -546.341)"/></g><g transform="translate(21.437)"><rect class="n" width="146.217" height="92.393" rx="6.148"/></g><g transform="translate(27.103 5.039)"><rect class="m" width="134.937" height="80.06"/></g><g transform="translate(66.698 120.683)"><path class="m" d="M964.04,595.054h52.61a.947.947,0,0,0,.936-1.1l-2.218-13.858a1.541,1.541,0,0,0-1.521-1.3H966.394a1.353,1.353,0,0,0-1.34,1.158L963.021,593.9A1.027,1.027,0,0,0,964.04,595.054Z" transform="translate(-963.012 -578.801)"/></g><g transform="translate(20.082 98.849)"><path class="o" d="M912.187,572.664h142.945c1.586,0,2.8-.609,2.545-1.282L1051.65,555.2c-.325-.873-2.078-1.515-4.134-1.515H918.585c-1.828,0-3.378.576-3.641,1.353l-5.525,16.268C909.2,572.028,910.5,572.664,912.187,572.664Z" transform="translate(-909.395 -553.689)"/></g><g transform="translate(19.706 95.238)"><g transform="translate(0 6.399)"><rect class="n" width="149.068" height="0.753" transform="translate(149.068 0.753) rotate(-180)"/></g><g transform="translate(0 10.164)"><rect class="n" width="149.068" height="0.753" transform="translate(149.068 0.753) rotate(-180)"/></g><g transform="translate(0 14.681)"><rect class="n" width="149.068" height="0.753" transform="translate(149.068 0.753) rotate(-180)"/></g><g transform="translate(0 18.822)"><rect class="n" width="149.068" height="0.753" transform="translate(149.068 0.753) rotate(-180)"/></g><g transform="translate(129.937 0.402)"><rect class="n" width="1.129" height="24.845" transform="translate(8.523 23.703) rotate(162.561)"/></g><g transform="translate(119.02 0.402)"><rect class="n" width="1.129" height="24.845" transform="translate(8.523 23.703) rotate(162.561)"/></g><g transform="translate(110.363 0.402)"><rect class="n" width="1.129" height="24.845" transform="translate(8.523 23.703) rotate(162.561)"/></g><g transform="translate(101.704 0.402)"><rect class="n" width="1.129" height="24.845" transform="translate(8.523 23.703) rotate(162.561)"/></g><g transform="translate(92.67 0.402)"><rect class="n" width="1.129" height="24.845" transform="translate(8.523 23.703) rotate(162.561)"/></g><g transform="translate(83.471 0.12)"><rect class="n" width="1.129" height="24.845" transform="translate(5.84 24.39) rotate(169.022)"/></g><g transform="translate(75.663)"><rect class="n" width="1.129" height="24.845" transform="translate(1.129 24.845) rotate(-180)"/></g><g transform="translate(9.855 0.402)"><rect class="n" width="1.129" height="24.845" transform="translate(1.077 24.041) rotate(-162.561)"/></g><g transform="translate(20.395 0.402)"><rect class="n" width="1.129" height="24.845" transform="translate(1.077 24.041) rotate(-162.561)"/></g><g transform="translate(30.935 0.402)"><rect class="n" width="1.129" height="24.845" transform="translate(1.077 24.041) rotate(-162.561)"/></g><g transform="translate(41.475 0.402)"><rect class="n" width="1.129" height="24.845" transform="translate(1.077 24.041) rotate(-162.561)"/></g><g transform="translate(52.015 0.402)"><rect class="n" width="1.129" height="24.845" transform="translate(1.077 24.041) rotate(-162.561)"/></g><g transform="translate(62.555 0.402)"><rect class="n" width="1.129" height="24.845" transform="translate(1.077 24.041) rotate(-162.561)"/></g></g></g></g></svg>