<svg xmlns="http://www.w3.org/2000/svg" width="169.966" height="169.968" viewBox="0 0 169.966 169.968"><defs><style>.a{fill:#ece7e6;}.b{fill:#ff0303;}.c{fill:#020202;}</style></defs><g transform="translate(-320.931 -269.705)"><ellipse class="a" cx="84.983" cy="84.984" rx="84.983" ry="84.984" transform="translate(320.931 269.705)"/><ellipse class="b" cx="78.185" cy="78.185" rx="78.185" ry="78.185" transform="translate(327.73 276.502)"/><path class="c" d="M585.957,302.211,581.8,318.452H564.05l1.511,24.928,5.288-15.864,15.863.755Z" transform="translate(-226.501 39.069)"/><path class="c" d="M614.548,332.187l-4.91,16.619H593.019v23.8l5.665-17,19.263,1.133Z" transform="translate(-212.033 54.04)"/><path class="c" d="M579.889,302.756l16.272,15.791,12.858-13.572L592.4,289.112Z" transform="translate(-218.591 32.528)"/><path class="c" d="M608.041,330.908,624.313,346.7l12.858-13.572-16.619-15.864Z" transform="translate(-204.532 46.587)"/><path class="c" d="M607.749,311.37l18.885-16.62s10.388-6.8,18.509,0,12.652,18.318,6.043,26.439a197.225,197.225,0,0,1-16.242,17l15.675,16.43,23.8-25.5s12.465-21.717-1.51-41.736-35.315-23.984-48.914-17.94-30.971,25.683-30.971,25.683Z" transform="translate(-212.033 21.412)"/></g></svg>