<svg xmlns="http://www.w3.org/2000/svg" width="175.95" height="175.951" viewBox="0 0 175.95 175.951"><defs><style>.a{fill:#fff;}.b{fill:#ffa606;}.c{fill:#313431;}</style></defs><g transform="translate(-315.05 -285.984)"><ellipse class="a" cx="87.975" cy="87.976" rx="87.975" ry="87.976" transform="translate(315.05 285.984)"/><ellipse class="b" cx="80.937" cy="80.938" rx="80.937" ry="80.938" transform="translate(329.126 293.023)"/><path class="c" d="M567.452,148.571h19.159L626.1,112.989v89.54l-38.318-34.408-20.332-.391Z" transform="translate(-226.987 214.248)"/><path class="c" d="M610.779,122.31s18.769,22.286,1.173,59.041C611.952,181.351,641.669,149.289,610.779,122.31Z" transform="translate(-203.063 219.394)"/><path class="c" d="M619.824,112.234s28.275,35.128,1.768,93.057C621.592,205.291,666.36,154.756,619.824,112.234Z" transform="translate(-198.068 213.83)"/><path class="c" d="M632.829,101.494s30.882,48.07-.768,125.526C632.061,227.02,684.11,159.99,632.829,101.494Z" transform="translate(-191.311 207.899)"/></g></svg>