<svg xmlns="http://www.w3.org/2000/svg" width="91.168" height="52.014" viewBox="0 0 91.168 52.014">
  <g id="Group_7914" data-name="Group 7914" transform="translate(-387.1 -439.543)">
    <path id="Path_10849" data-name="Path 10849" d="M506.793,617.2,510.246,634c.157.763,1.125.856,1.733.166l2.138-2.429h0a.83.83,0,0,1,1.139-.1c3.674,2.924,18.558,13.072,29.746-4.166a.83.83,0,0,0-.987-1.232c-4.663,1.763-15.146,4.444-20.4-4.42a.828.828,0,0,1,.095-.968l.651-.739,2.138-2.429c.608-.691.394-1.638-.383-1.7l-17.093-1.3A2.109,2.109,0,0,0,506.793,617.2Z" transform="translate(-66.872 -175.128)" fill="#44bbbd"/>
    <path id="Path_10856" data-name="Path 10856" d="M437.263,675.947a24.811,24.811,0,0,1-4.055-.906l-1.64-.431.82-5.61a64.36,64.36,0,0,0,8.974.734,2.713,2.713,0,0,0,2.006-.712,2.832,2.832,0,0,0,.713-2.093,3.355,3.355,0,0,0-.54-2.05,1.765,1.765,0,0,0-1.489-.711l-1.683-.043q-.389-.043-1.208-.043a12.045,12.045,0,0,0-1.683.129H437l-4.357-1.078.776-15.791h17.905v6.6H439.334l-.69,4.1a17.634,17.634,0,0,1,4.013-.518q9.361,0,9.363,8.672,0,4.833-2.588,7.529t-7.335,2.7A30.854,30.854,0,0,1,437.263,675.947Z" transform="translate(-44.468 -184.863)" fill="#44bbbd"/>
  </g>
</svg>
