<svg xmlns="http://www.w3.org/2000/svg" width="33.705" height="46.747" viewBox="0 0 33.705 46.747"><defs><style>.a{fill:gray;}.b{fill:#333;}.c{fill:#f2f2f2;opacity:0.5;}</style></defs><g transform="translate(-139.126 -601.449)"><path class="a" d="M146.218,630.985l5.3,12.282a9.259,9.259,0,0,0,12.517,3.848l3.881-2.06a9.261,9.261,0,0,0,3.825-12.526l-7.206-11.272Z"/><path class="b" d="M147.754,616.446c-4.513,2.4-5.071,7.392-2.671,11.912l1.135,2.627,9.16-4.864-5.684-10.7Z"/><path class="b" d="M163,618.845c-2.4-4.519-6.85-6.856-11.364-4.459l-1.94,1.03,5.684,10.7,9.161-4.864Z"/><path class="a" d="M156.217,626.676l-.85.451a.741.741,0,0,1-.929-.436l-3.392-6.387a.746.746,0,0,1,.158-1.017l.85-.451a.742.742,0,0,1,.929.439l3.392,6.387A.741.741,0,0,1,156.217,626.676Z"/><rect class="a" width="0.619" height="4.127" transform="matrix(0.883, -0.469, 0.469, 0.883, 149.42, 615.562)"/><ellipse class="c" cx="2.545" cy="5.474" rx="2.545" ry="5.474" transform="matrix(0.85, -0.527, 0.527, 0.85, 159.535, 628.263)"/><path d="M148.427,616.089a15.034,15.034,0,0,1-9.291-14.64s.6.179.733,0c0,0-1.381,9.285,9.194,14.3l-.668.4"/></g></svg>