<svg xmlns="http://www.w3.org/2000/svg" width="112.217" height="117.039" viewBox="0 0 112.217 117.039"><defs><style>.a{fill:#d4dce2;}.b{fill:#c5ced3;}.c{fill:#1b3c54;}.d{fill:#1f4873;}.e{fill:#f2f2f2;}.f{fill:#2f3237;}.g{fill:#fff;}.h{fill:#5b6468;}.i{fill:none;stroke:#5b6468;stroke-miterlimit:10;stroke-width:0.324px;}</style></defs><g transform="translate(-845.333 -228.507)"><path class="a" d="M868.836,308.406l4.657-9.313,66.1-33.568v24.643s1.421,3.1-4.983,7.18-54.33,30.075-54.33,30.075-5.045,2.911-8.15,1.553Z" transform="translate(10.131 15.956)"/><path class="b" d="M845.334,278.139v23.867a7.2,7.2,0,0,0,2.393,4.462c2.134,1.746,27.068,16.3,27.068,16.3s5.336,2.522,7.47.776V297.155Z" transform="translate(0 21.386)"/><path class="c" d="M845.334,278.948v6.4a18.052,18.052,0,0,0,5.95,4.721c3.945,2,21.925,12.806,24.125,13.841s9.12,2.2,15.07-.647,54.8-31.207,55.528-31.741,3.513-1.746,3.721-4.22a49.307,49.307,0,0,0-.011-5.917Z" transform="translate(0 14.174)"/><path class="c" d="M853.78,282.228s-7.374-22.314-7.18-22.9,44.823-25.808,44.823-25.808l8.148,25.613Z" transform="translate(0.544 2.162)"/><path class="d" d="M860.466,273.557l-12.546,7.56s-5.82,3.881,0,9.12,28.136,15.135,28.136,15.135,6.209,3.881,18.628-2.911,53.36-31.24,53.36-31.24,5.046-4.657-2.328-8.925-25.806-14.747-25.806-14.747-9.871-3.114-16.1,1.165S860.466,273.557,860.466,273.557Z" transform="translate(0 7.736)"/><path class="e" d="M847.955,248.687l14.359,41.136,37.061-21.344L884.24,228.507Z" transform="translate(1.13)"/><path class="f" d="M883.073,305.314v2.523l11.643,6.447a19.028,19.028,0,0,0,15.911,0c8.538-3.924,28.524-16.73,28.524-16.73s3.247-2.257,1.727-5.524S883.073,305.314,883.073,305.314Z" transform="translate(16.268 27.197)"/><path class="g" d="M850.968,252.489l11.951,34.237,30.845-17.764-12.6-33.268Z" transform="translate(2.429 3.098)"/><path class="h" d="M883.073,308.84c.195-.581,13.389,7.957,13.389,7.957a18.549,18.549,0,0,0,15.523-1.553c8.344-4.657,26.971-15.717,26.971-15.717s5.239-4-1.551-8.986a96.04,96.04,0,0,0-10.866-7.12Z" transform="translate(16.268 23.671)"/><path class="g" d="M912.752,286.269l13.389,8.059-24.255,14.644L888.5,300.24Z" transform="translate(18.606 24.898)"/><line class="i" x1="11.384" y2="6.468" transform="translate(927.347 318.799)"/><path class="i" d="M912.813,290.134c-.291.1-15.232,9.411-15.232,9.411" transform="translate(22.521 26.564)"/></g></svg>