<svg xmlns="http://www.w3.org/2000/svg" width="526.666" height="255.603" viewBox="0 0 526.666 255.603"><defs><style>.a{fill:#ddd75e;}.b{fill:#e3df88;}.c{fill:#d6d05b;}.d{fill:#52b5cc;}.e{fill:#80c6d6;}.f{fill:#4faec4;}.g{fill:#6c6c6c;}.h{fill:#e0e0e0;}.i{fill:#feed71;}.j{fill:#e25f59;}.k{fill:#89b254;}.l{fill:#3d9be0;}.m{fill:#818a8c;}.n{fill:#d95848;}.o{fill:#36475a;}.p{fill:#fff;}</style></defs><g transform="translate(-695.947 -308.396)"><g transform="translate(695.947 378.764)"><path class="a" d="M935.114,431.464V569.273l-.01.009c-.84.689-52.259,43.328-58.255,47.151h-159.9V431.464Z" transform="translate(-716.947 -431.464)"/><path class="b" d="M944.439,577.434c-.84.689-52.259,43.328-58.255,47.151a2.372,2.372,0,0,1-.5.264l-.008-.264-1.568-41.892C895.626,588.452,943.844,577.557,944.439,577.434Z" transform="translate(-726.282 -439.615)"/><rect class="c" width="218.167" height="35.047" transform="translate(0 0)"/></g><g transform="translate(1004.447 308.396)"><path class="d" d="M999.209,291.4V429.205l.009.009c.84.689,52.259,43.327,58.254,47.151h159.9V291.4Z" transform="translate(-999.209 -291.396)"/><path class="e" d="M999.219,437.366c.84.689,52.259,43.327,58.254,47.151a2.37,2.37,0,0,0,.5.264l.009-.264,1.567-41.892C1048.032,448.384,999.814,437.489,999.219,437.366Z" transform="translate(-999.209 -299.547)"/><rect class="f" width="218.167" height="35.047"/></g><g transform="translate(1076.817 376.914)"><path class="g" d="M1097.65,368.75c-7.735.322-15.019,11.264-18.4,27.784s-7.51,41.677,5.632,39.424,14.643-16.521,24.78-18.4,23.279-2.629,28.535.376,15.395,21.777,25.908,18.022,6.758-30.788,2.628-43.554-8.259-24.03-17.646-23.654-11.64,7.885-25.532,8.259S1106.661,368.375,1097.65,368.75Z" transform="translate(-1075.86 -364.233)"/><path class="h" d="M1097.65,363.978c-7.735.322-15.019,11.264-18.4,27.784s-7.51,41.677,5.632,39.424,14.643-16.521,24.78-18.4,23.279-2.629,28.535.376,15.395,21.777,25.908,18.022,6.758-30.788,2.628-43.554-8.259-24.03-17.646-23.654-11.64,7.885-25.532,8.259S1106.661,363.6,1097.65,363.978Z" transform="translate(-1075.86 -363.967)"/><circle class="g" cx="7.885" cy="7.885" r="7.885" transform="translate(19.537 27.795)"/><circle class="g" cx="5.82" cy="5.82" r="5.82" transform="translate(12.028 10.524)"/><circle class="g" cx="5.82" cy="5.82" r="5.82" transform="translate(59.712 30.799)"/><circle class="i" cx="3.191" cy="3.191" r="3.191" transform="translate(70.225 9.773)"/><circle class="j" cx="3.191" cy="3.191" r="3.191" transform="translate(77.734 16.531)"/><circle class="k" cx="3.191" cy="3.191" r="3.191" transform="translate(70.976 22.914)"/><circle class="l" cx="3.191" cy="3.191" r="3.191" transform="translate(63.842 16.531)"/></g><g transform="translate(746.785 439.248)"><rect class="m" width="21.51" height="43.737" transform="matrix(-0.719, -0.695, 0.695, -0.719, 69.509, 46.401)"/><rect class="n" width="26.111" height="15.014" transform="matrix(-0.719, -0.695, 0.695, -0.719, 77.06, 41.896)"/><rect class="o" width="36.556" height="89.595" rx="4.923" transform="matrix(-0.719, -0.695, 0.695, -0.719, 26.291, 102.903)"/><rect class="p" width="5.736" height="2.868" transform="matrix(-0.719, -0.695, 0.695, -0.719, 91.874, 20.154)"/><rect class="p" width="5.736" height="2.868" transform="matrix(-0.719, -0.695, 0.695, -0.719, 84.139, 12.682)"/></g></g></svg>