<svg xmlns="http://www.w3.org/2000/svg" width="62.412" height="58.534" viewBox="0 0 62.412 58.534"><defs><style>.a{fill:#2c564e;}.b{fill:#0d1917;}.c{fill:#5b847b;}.d{fill:#d80a05;}.e{fill:#ff0d01;}.f{fill:#2d3534;}.g{fill:#fff;}.h{fill:#8daaa5;}</style></defs><g transform="translate(-338.265 -389.055)"><g transform="translate(367.942 404.698)"><path class="a" d="M403.672,440.378l-30.625,9.237V416l30.625-9.237Z" transform="translate(-371.992 -406.76)"/><ellipse class="b" cx="1.936" cy="1.436" rx="1.936" ry="1.436" transform="matrix(0.634, -0.773, 0.773, 0.634, 2.027, 11.763)"/><ellipse class="b" cx="1.936" cy="1.436" rx="1.936" ry="1.436" transform="matrix(0.634, -0.773, 0.773, 0.634, 26.031, 4.523)"/><ellipse class="b" cx="1.936" cy="1.436" rx="1.936" ry="1.436" transform="matrix(0.634, -0.773, 0.773, 0.634, 2.027, 37.312)"/><ellipse class="b" cx="13.552" cy="10.053" rx="13.552" ry="10.053" transform="matrix(0.634, -0.773, 0.773, 0.634, 0, 25.094)"/><ellipse class="c" cx="8.798" cy="6.526" rx="8.798" ry="6.526" transform="matrix(0.634, -0.773, 0.773, 0.634, 5.742, 23.655)"/><ellipse class="a" cx="11.636" cy="8.632" rx="11.636" ry="8.632" transform="matrix(0.634, -0.773, 0.773, 0.634, 2.314, 24.514)"/><ellipse class="b" cx="10.096" cy="7.489" rx="10.096" ry="7.489" transform="matrix(0.634, -0.773, 0.773, 0.634, 4.174, 24.048)"/><ellipse class="a" cx="8.556" cy="6.347" rx="8.556" ry="6.347" transform="matrix(0.634, -0.773, 0.773, 0.634, 6.034, 23.582)"/><ellipse class="b" cx="7.633" cy="5.662" rx="7.633" ry="5.662" transform="matrix(0.634, -0.773, 0.773, 0.634, 7.148, 23.303)"/><ellipse class="a" cx="6.469" cy="4.798" rx="6.469" ry="4.798" transform="matrix(0.634, -0.773, 0.773, 0.634, 8.555, 22.951)"/><ellipse class="b" cx="5.377" cy="3.989" rx="5.377" ry="3.989" transform="matrix(0.634, -0.773, 0.773, 0.634, 9.873, 22.62)"/><ellipse class="a" cx="4.356" cy="3.231" rx="4.356" ry="3.231" transform="matrix(0.634, -0.773, 0.773, 0.634, 11.106, 22.311)"/><ellipse class="b" cx="3.388" cy="2.513" rx="3.388" ry="2.513" transform="matrix(0.634, -0.773, 0.773, 0.634, 12.275, 22.018)"/><ellipse class="a" cx="1.936" cy="1.436" rx="1.936" ry="1.436" transform="matrix(0.634, -0.773, 0.773, 0.634, 14.029, 21.579)"/><ellipse class="b" cx="1.936" cy="1.436" rx="1.936" ry="1.436" transform="matrix(0.634, -0.773, 0.773, 0.634, 26.031, 30.072)"/><path class="a" d="M390.709,441.174l-.5.15V416.2l.5-.15Z" transform="translate(-373.991 -407.841)"/><path class="a" d="M376.476,433.813v-.505l24.769-7.471v.505Z" transform="translate(-372.392 -408.981)"/></g><g transform="translate(338.265 395.233)"><path class="c" d="M369.062,448.4l-30.8-21.118V396.047l30.8,18.737Z" transform="translate(-338.265 -396.047)"/><g transform="translate(12.079 9.642)"><g transform="translate(0 7.99)"><ellipse cx="0.457" cy="0.869" rx="0.457" ry="0.869" transform="translate(0 0.395) rotate(-25.576)"/><ellipse cx="0.457" cy="0.869" rx="0.457" ry="0.869" transform="translate(2.37 2.015) rotate(-25.576)"/><ellipse cx="0.457" cy="0.869" rx="0.457" ry="0.869" transform="translate(4.74 3.636) rotate(-25.576)"/><ellipse cx="0.457" cy="0.869" rx="0.457" ry="0.869" transform="translate(7.11 5.256) rotate(-25.576)"/><ellipse cx="0.457" cy="0.869" rx="0.457" ry="0.869" transform="translate(9.48 6.876) rotate(-25.576)"/><ellipse cx="0.457" cy="0.869" rx="0.457" ry="0.869" transform="translate(11.85 8.496) rotate(-25.576)"/><ellipse cx="0.457" cy="0.869" rx="0.457" ry="0.869" transform="translate(14.22 10.117) rotate(-25.576)"/></g><g transform="translate(0 10.663)"><ellipse cx="0.457" cy="0.869" rx="0.457" ry="0.869" transform="translate(0 0.395) rotate(-25.576)"/><ellipse cx="0.457" cy="0.869" rx="0.457" ry="0.869" transform="translate(2.37 2.015) rotate(-25.576)"/><ellipse cx="0.457" cy="0.869" rx="0.457" ry="0.869" transform="translate(4.74 3.635) rotate(-25.576)"/><ellipse cx="0.457" cy="0.869" rx="0.457" ry="0.869" transform="translate(7.11 5.256) rotate(-25.576)"/><ellipse cx="0.457" cy="0.869" rx="0.457" ry="0.869" transform="translate(9.48 6.876) rotate(-25.576)"/><ellipse cx="0.457" cy="0.869" rx="0.457" ry="0.869" transform="translate(11.85 8.496) rotate(-25.576)"/><ellipse cx="0.457" cy="0.869" rx="0.457" ry="0.869" transform="translate(14.22 10.117) rotate(-25.576)"/></g><g transform="translate(0 13.336)"><ellipse cx="0.457" cy="0.869" rx="0.457" ry="0.869" transform="translate(0 0.395) rotate(-25.576)"/><ellipse cx="0.457" cy="0.869" rx="0.457" ry="0.869" transform="translate(2.37 2.015) rotate(-25.576)"/><ellipse cx="0.457" cy="0.869" rx="0.457" ry="0.869" transform="translate(4.74 3.635) rotate(-25.576)"/><ellipse cx="0.457" cy="0.869" rx="0.457" ry="0.869" transform="translate(7.11 5.256) rotate(-25.576)"/><ellipse cx="0.457" cy="0.869" rx="0.457" ry="0.869" transform="translate(9.48 6.876) rotate(-25.576)"/><ellipse cx="0.457" cy="0.869" rx="0.457" ry="0.869" transform="translate(11.85 8.496) rotate(-25.576)"/><ellipse cx="0.457" cy="0.869" rx="0.457" ry="0.869" transform="translate(14.22 10.117) rotate(-25.576)"/></g><ellipse cx="0.457" cy="0.869" rx="0.457" ry="0.869" transform="translate(0 0.395) rotate(-25.576)"/><ellipse cx="0.457" cy="0.869" rx="0.457" ry="0.869" transform="translate(2.37 2.015) rotate(-25.576)"/><ellipse cx="0.457" cy="0.869" rx="0.457" ry="0.869" transform="translate(4.74 3.635) rotate(-25.576)"/><ellipse cx="0.457" cy="0.869" rx="0.457" ry="0.869" transform="translate(7.11 5.256) rotate(-25.576)"/><ellipse cx="0.457" cy="0.869" rx="0.457" ry="0.869" transform="translate(9.48 6.876) rotate(-25.576)"/><ellipse cx="0.457" cy="0.869" rx="0.457" ry="0.869" transform="translate(11.85 8.496) rotate(-25.576)"/><ellipse cx="0.457" cy="0.869" rx="0.457" ry="0.869" transform="translate(14.22 10.117) rotate(-25.576)"/><g transform="translate(0 2.673)"><ellipse cx="0.457" cy="0.869" rx="0.457" ry="0.869" transform="translate(0 0.395) rotate(-25.576)"/><ellipse cx="0.457" cy="0.869" rx="0.457" ry="0.869" transform="translate(2.37 2.015) rotate(-25.576)"/><ellipse cx="0.457" cy="0.869" rx="0.457" ry="0.869" transform="translate(4.74 3.636) rotate(-25.576)"/><ellipse cx="0.457" cy="0.869" rx="0.457" ry="0.869" transform="translate(7.11 5.256) rotate(-25.576)"/><ellipse cx="0.457" cy="0.869" rx="0.457" ry="0.869" transform="translate(9.48 6.876) rotate(-25.576)"/><ellipse cx="0.457" cy="0.869" rx="0.457" ry="0.869" transform="translate(11.85 8.496) rotate(-25.576)"/><ellipse cx="0.457" cy="0.869" rx="0.457" ry="0.869" transform="translate(14.22 10.117) rotate(-25.576)"/></g><g transform="translate(0 5.346)"><ellipse cx="0.457" cy="0.869" rx="0.457" ry="0.869" transform="translate(0 0.395) rotate(-25.576)"/><ellipse cx="0.457" cy="0.869" rx="0.457" ry="0.869" transform="translate(2.37 2.015) rotate(-25.576)"/><ellipse cx="0.457" cy="0.869" rx="0.457" ry="0.869" transform="translate(4.74 3.636) rotate(-25.576)"/><ellipse cx="0.457" cy="0.869" rx="0.457" ry="0.869" transform="translate(7.11 5.256) rotate(-25.576)"/><ellipse cx="0.457" cy="0.869" rx="0.457" ry="0.869" transform="translate(9.48 6.876) rotate(-25.576)"/><ellipse cx="0.457" cy="0.869" rx="0.457" ry="0.869" transform="translate(11.85 8.496) rotate(-25.576)"/><ellipse cx="0.457" cy="0.869" rx="0.457" ry="0.869" transform="translate(14.22 10.117) rotate(-25.576)"/></g><g transform="translate(0 16.009)"><ellipse cx="0.457" cy="0.869" rx="0.457" ry="0.869" transform="translate(0 0.395) rotate(-25.576)"/><ellipse cx="0.457" cy="0.869" rx="0.457" ry="0.869" transform="translate(2.37 2.015) rotate(-25.576)"/><ellipse cx="0.457" cy="0.869" rx="0.457" ry="0.869" transform="translate(4.74 3.636) rotate(-25.576)"/><ellipse cx="0.457" cy="0.869" rx="0.457" ry="0.869" transform="translate(7.11 5.256) rotate(-25.576)"/><ellipse cx="0.457" cy="0.869" rx="0.457" ry="0.869" transform="translate(9.48 6.876) rotate(-25.576)"/><ellipse cx="0.457" cy="0.869" rx="0.457" ry="0.869" transform="translate(11.85 8.496) rotate(-25.576)"/><ellipse cx="0.457" cy="0.869" rx="0.457" ry="0.869" transform="translate(14.22 10.117) rotate(-25.576)"/></g><g transform="translate(0 18.682)"><ellipse cx="0.457" cy="0.869" rx="0.457" ry="0.869" transform="translate(0 0.395) rotate(-25.576)"/><ellipse cx="0.457" cy="0.869" rx="0.457" ry="0.869" transform="translate(2.37 2.015) rotate(-25.576)"/><ellipse cx="0.457" cy="0.869" rx="0.457" ry="0.869" transform="translate(4.74 3.636) rotate(-25.576)"/><ellipse cx="0.457" cy="0.869" rx="0.457" ry="0.869" transform="translate(7.11 5.256) rotate(-25.576)"/><ellipse cx="0.457" cy="0.869" rx="0.457" ry="0.869" transform="translate(9.48 6.876) rotate(-25.576)"/><ellipse cx="0.457" cy="0.869" rx="0.457" ry="0.869" transform="translate(11.85 8.496) rotate(-25.576)"/><ellipse cx="0.457" cy="0.869" rx="0.457" ry="0.869" transform="translate(14.22 10.117) rotate(-25.576)"/></g><g transform="translate(0 21.355)"><ellipse cx="0.457" cy="0.869" rx="0.457" ry="0.869" transform="translate(0 0.395) rotate(-25.576)"/><ellipse cx="0.457" cy="0.869" rx="0.457" ry="0.869" transform="translate(2.37 2.015) rotate(-25.576)"/><ellipse cx="0.457" cy="0.869" rx="0.457" ry="0.869" transform="translate(4.74 3.635) rotate(-25.576)"/><ellipse cx="0.457" cy="0.869" rx="0.457" ry="0.869" transform="translate(7.11 5.256) rotate(-25.576)"/><ellipse cx="0.457" cy="0.869" rx="0.457" ry="0.869" transform="translate(9.48 6.876) rotate(-25.576)"/><ellipse cx="0.457" cy="0.869" rx="0.457" ry="0.869" transform="translate(11.85 8.496) rotate(-25.576)"/><ellipse cx="0.457" cy="0.869" rx="0.457" ry="0.869" transform="translate(14.22 10.117) rotate(-25.576)"/></g><g transform="translate(0 24.028)"><ellipse cx="0.457" cy="0.869" rx="0.457" ry="0.869" transform="translate(0 0.395) rotate(-25.576)"/><ellipse cx="0.457" cy="0.869" rx="0.457" ry="0.869" transform="translate(2.37 2.015) rotate(-25.576)"/><ellipse cx="0.457" cy="0.869" rx="0.457" ry="0.869" transform="translate(4.74 3.635) rotate(-25.576)"/><ellipse cx="0.457" cy="0.869" rx="0.457" ry="0.869" transform="translate(7.11 5.256) rotate(-25.576)"/><ellipse cx="0.457" cy="0.869" rx="0.457" ry="0.869" transform="translate(9.48 6.876) rotate(-25.576)"/><ellipse cx="0.457" cy="0.869" rx="0.457" ry="0.869" transform="translate(11.85 8.496) rotate(-25.576)"/><ellipse cx="0.457" cy="0.869" rx="0.457" ry="0.869" transform="translate(14.22 10.117) rotate(-25.576)"/></g></g><g transform="translate(5.188 4.94)"><path class="d" d="M347.494,413.321l-3-2.048v-8.927l3,2.048Z" transform="translate(-344.179 -401.72)"/><path class="e" d="M347.494,413.909l-3-2.048V407.4l3,2.048Z" transform="translate(-344.179 -402.309)"/><path class="b" d="M347.452,404.312v8.927l-3-2.047v-8.927l3,2.048Zm.319-.189-.319-.218-3-2.048-.319-.218v9.742l.319.218,3,2.048.319.217v-9.741Z" transform="translate(-344.137 -401.638)"/></g><g transform="translate(2.248 17.676)"><path class="f" d="M348.258,427.856v-5.977a1.85,1.85,0,0,0-.336-1.062l-2.8-3.98a1.844,1.844,0,0,0-1.61-.782l-.957.052a1.847,1.847,0,0,0-1.746,1.844v5.977a1.844,1.844,0,0,0,.337,1.062l2.8,3.98a1.845,1.845,0,0,0,1.61.782l.957-.052A1.847,1.847,0,0,0,348.258,427.856Z" transform="translate(-340.81 -416.053)"/><g transform="translate(2.51 4.244)"><path class="b" d="M346.884,424.794l-.619,1.636-1.43-.44-1.164-2.185-.021-2.285,1.137-.664,1.439,1.457Z" transform="translate(-343.65 -420.856)"/><path class="b" d="M344.937,420.856l2.22,1.518v5.108L344.985,426Z" transform="translate(-343.8 -420.856)"/></g><g transform="translate(3.12 5.822)"><path class="g" d="M346.605,423.691l-1.1-.753v-.3l1.1.753Z" transform="translate(-344.477 -422.643)"/><path class="g" d="M346.605,426.339l-1.1-.753v-.3l1.1.753Z" transform="translate(-344.477 -422.951)"/><path class="g" d="M345.443,424.221l-1.1-.753v-.3l1.1.753Z" transform="translate(-344.341 -422.704)"/></g></g></g><path class="h" d="M365.184,389.055,399.622,404.7l-30.561,9.272-30.8-18.737Z"/></g></svg>