<svg xmlns="http://www.w3.org/2000/svg" width="58.677" height="44.578" viewBox="0 0 58.677 44.578"><defs><style>.a{fill:#6c6c6c;}.b{fill:#e0e0e0;}.c{fill:#feed71;}.d{fill:#e25f59;}.e{fill:#89b254;}.f{fill:#3d9be0;}</style></defs><g transform="translate(-215.813 -580.842)"><path class="a" d="M229.263,584.712c-4.773.2-9.27,6.953-11.356,17.151s-4.636,25.725,3.476,24.334,9.039-10.2,15.3-11.356,14.369-1.623,17.614.232,9.5,13.442,15.991,11.124,4.171-19,1.622-26.884-5.1-14.833-10.893-14.6-7.184,4.867-15.76,5.1S234.825,584.48,229.263,584.712Z" transform="translate(0 -1.082)"/><path class="b" d="M229.263,580.849c-4.773.2-9.27,6.953-11.356,17.151s-4.636,25.725,3.476,24.335,9.039-10.2,15.3-11.356,14.369-1.623,17.614.232,9.5,13.442,15.991,11.125,4.171-19,1.622-26.884-5.1-14.833-10.893-14.6-7.184,4.867-15.76,5.1S234.825,580.617,229.263,580.849Z" transform="translate(0 0)"/><circle class="a" cx="4.867" cy="4.867" r="4.867" transform="translate(227.873 598)"/><circle class="a" cx="3.592" cy="3.592" r="3.592" transform="translate(223.237 587.339)"/><circle class="a" cx="3.592" cy="3.592" r="3.592" transform="translate(252.671 599.854)"/><circle class="c" cx="1.97" cy="1.97" r="1.97" transform="translate(259.16 586.875)"/><circle class="d" cx="1.97" cy="1.97" r="1.97" transform="translate(263.796 591.047)"/><circle class="e" cx="1.97" cy="1.97" r="1.97" transform="translate(259.624 594.987)"/><circle class="f" cx="1.97" cy="1.97" r="1.97" transform="translate(255.22 591.047)"/></g></svg>