<svg xmlns="http://www.w3.org/2000/svg" xmlns:xlink="http://www.w3.org/1999/xlink" width="946.582" height="475.407" viewBox="0 0 946.582 475.407"><defs><style>.a,.j{fill:none;}.b{clip-path:url(#a);}.c,.e{fill:#d8a35d;}.c{fill-rule:evenodd;}.d{fill:#947dce;}.f{fill:#62548a;}.g{fill:#ffc84f;}.h{opacity:0.3;}.i{opacity:0.5;}.j{stroke:#947dce;stroke-miterlimit:10;stroke-width:1.301px;}.k{fill:#d19442;}.l{opacity:0.15;}.m{fill:#999;}.n{fill:#ccc;}.o{fill:gray;}.p{fill:#eadff1;}</style><clipPath id="a"><rect class="a" width="510.072" height="475.407" transform="translate(510.072 475.407) rotate(-180)"/></clipPath></defs><g transform="translate(-608.581 -372)"><g transform="translate(1045.091 372)"><g class="b" transform="translate(0)"><g transform="translate(6.903 29.713)"><g transform="translate(0 326.274)"><path class="c" d="M1011.29,674.1s-8.229-9.387-17.825-11.274c-5.7-1.122-5.51-2.561-6.471-3.032-3.189-1.564-.292,4.6,4.52,6.344,3.911,1.42,5.846,8.282,8.17,9.816s9.342,4.462,11.158,3.6S1011.29,674.1,1011.29,674.1Z" transform="translate(-962.236 -659.542)"/><path class="c" d="M1041.088,685.278c-1.75-.669-20.029-12.661-30.15-14.016s-25.3-2.4-30.48-4.11c-6.1-2.008-7.758.38-.76,3.385,4.547,1.954,13.9,5.076,15.993,5.247,1.015.083-5.567-1.078-12.7-2.865-7.584-1.9-15.791-4.4-16.227-3.049-.846,2.611,20.943,9.456,24.807,10.036a97.988,97.988,0,0,1-10.182-1.66c-4.584-1.009-9.81-2.862-10.89-1.946-1.7,1.442,9.78,6.5,19.369,8.233.155.319-2.98.68-14.231-2.144-1.13-.284-4.055.1-.391,1.976,7.71,3.957,10.734,6.227,22.11,7.051,11.093.8,23.447-.979,31.327,2.028Z" transform="translate(-966.739 -657.907)"/></g><path class="d" d="M1022.893,732.541c8.892,3.479,73.449,15.317,132.707,2.3,37.4-8.2,72.675-26.318,90.523-62.689,46.115-94.017-61.642-147.348-61.642-147.348a2,2,0,0,0-.162.258c-4.67,7.056-105.114,157.753-174.81,181.27C1009.509,706.334,1008.4,726.855,1022.893,732.541Z" transform="translate(-956.563 -365.339)"/><path class="e" d="M1412.145,845.843s39.875,203.468,49.04,204.437c16.471,1.837,79.78,5.029,15.327,19.416-31.841,11.635-31.624,3.681-33.964-2.307-1.911-4.893-53.8-182.149-59.236-195.515l-1.956-4.8Z" transform="translate(-868.044 -288.92)"/><path class="e" d="M1310.233,877s67.348,195.266,60.214,201.1c-12.767,10.567-63.965,47.945-2.173,24.642,33.009-7.727,28.466-14.261,27.14-20.55-1.084-5.139-8.771-44.3-11.548-58.465-.622-3.171-40.442-159.728-40.442-159.728Z" transform="translate(-884.974 -284.598)"/><path class="f" d="M1389.321,1029.513c-.474-2.968-20.71,3.365-22.316,6.37s-39.6,23.447-35.206,35.231,57.677-14.421,61.6-15.9S1390.253,1035.345,1389.321,1029.513Z" transform="translate(-879.924 -245.384)"/><g transform="translate(350.524 326.275)"><path class="g" d="M1249.867,708.691a13.067,13.067,0,0,0,8.088,1.158c16.8-4.659,89.317-24.964,127.783-38.9,13.57-4.916,22.9-9.039,24.049-11.409a1.412,1.412,0,0,1,.036.162c.542,2.188,6.678,27.254,14.606,60.146,15.65,64.931,49.583,154.489,65.6,179.966,3.455,5.5-88.9,23.177-88.9,23.177-19.94-65.876-48.249-183.526-53.841-187.507-6.8-4.846,15.631,99.375,31.934,187.324-32.733,19.859-90.623,31.019-91.06,27.187C1282.976,904.479,1249.867,708.691,1249.867,708.691Z" transform="translate(-1249.867 -659.542)"/><g class="h" transform="translate(66.951)"><path d="M1304.771,686.343c-.279.059-.555.118-.826.173C1303.945,686.516,1304.237,686.451,1304.771,686.343Z" transform="translate(-1303.945 -653.162)"/><path class="i" d="M1304.612,692.723c22.011-4.7,68.095-21.772,68.095-21.772,13.57-4.916,22.9-9.039,24.049-11.409a1.391,1.391,0,0,1,.036.162c.542,2.188,6.678,27.254,14.606,60.146a16.531,16.531,0,0,1-2.337.413c-5.106.547-9.714-1.342-13.792-4.687a40.741,40.741,0,0,1-7.183-7.92C1362.95,681.943,1311.684,691.284,1304.612,692.723Z" transform="translate(-1303.786 -659.542)"/></g><g transform="translate(15.21 8.759)"><line class="j" x2="48.301" y2="244.821" transform="translate(0 34.15)"/><line class="j" x2="47.235" y2="240.625" transform="translate(24.013 32.166)"/><line class="j" x2="50.552" y2="237.854" transform="translate(46.095 25.573)"/><line class="j" x2="14.847" y2="47.963" transform="translate(67.364 19.223)"/><line class="j" x2="66.385" y2="238.253" transform="translate(90.972 12.175)"/><line class="j" x2="70.123" y2="239.302" transform="translate(111.243 5.961)"/><line class="j" x2="76.343" y2="238.939" transform="translate(131.209)"/></g><path class="j" d="M1253.352,729.287s129.992-32.219,162.053-48.383" transform="translate(-1249.037 -654.457)"/><path class="j" d="M1345.771,720.885c-41.817,23.549-89.532,20.3-89.532,20.3" transform="translate(-1248.35 -644.94)"/><path class="j" d="M1327.434,722.574s43.871-.711,76.557-20.93" transform="translate(-1231.403 -649.52)"/><path class="j" d="M1258.663,755.18s37.375,7.273,87.3-17.028" transform="translate(-1247.773 -640.83)"/><path class="j" d="M1261.536,772.77s54.881.339,87.206-17.918" transform="translate(-1247.089 -636.855)"/><path class="j" d="M1264.37,789.386s31.612,12.432,88.314-14.308" transform="translate(-1246.415 -632.04)"/><path class="j" d="M1267.6,810.252s45.153,8.748,88.088-19.23" transform="translate(-1245.646 -628.245)"/><path class="j" d="M1270.526,828.207s33.527,11.378,89.154-17.653" transform="translate(-1244.949 -623.595)"/><path class="j" d="M1273.477,847.856s44.142,8.56,89.082-22.421" transform="translate(-1244.247 -620.053)"/><path class="j" d="M1275.732,862.177s29,14.941,90.107-20.8" transform="translate(-1243.71 -616.258)"/><path class="j" d="M1278.208,878.979s42.154,8.315,90.811-21.668" transform="translate(-1243.121 -612.465)"/><path class="j" d="M1334.159,739.222s21.079,8.914,75.263-18.552" transform="translate(-1229.802 -644.991)"/><path class="j" d="M1339.585,756.229s27.031,3.98,73.085-19.285" transform="translate(-1228.511 -641.117)"/><path class="j" d="M1344.275,775.861s39.934.1,73.547-21.958" transform="translate(-1227.394 -637.081)"/><path class="j" d="M1348.513,791.682s40.345,5.2,74.785-22.327" transform="translate(-1226.385 -633.402)"/><path class="j" d="M1353.15,809.07s37.462,1.775,76.367-22.8" transform="translate(-1225.282 -629.376)"/><path class="j" d="M1357.627,825.784s32.411,4.29,78.25-23.363" transform="translate(-1224.216 -625.531)"/><path class="j" d="M1361.978,840.1s39.157,7.358,80.533-22.02" transform="translate(-1223.18 -621.804)"/><path class="j" d="M1366.758,858.88s42.507,1.56,83.6-23.911" transform="translate(-1222.042 -617.784)"/></g><path class="k" d="M1240.869,447.474s3.937,19.347,18.671,26.3-26.785,8-26.785,8,1.758-20.181-3.193-30.918S1240.869,447.474,1240.869,447.474Z" transform="translate(-904.4 -384.333)"/><ellipse class="e" cx="28.933" cy="21.206" rx="28.933" ry="21.206" transform="translate(297.178 62.631) rotate(-68.921)"/><path class="d" d="M1128.281,751.279c37.4-8.2,72.676-26.318,90.523-62.689.064.1.129.178.193.275.193.241.386.5.58.789a.849.849,0,0,1,.129.177c5.138,7.023,30.363,41.509,30.363,41.525,9.148,11.919,23.129,23.37,34.227,27.977.725.323,1.466.6,2.143.838,27.2,4.253,140.5-38.8,154-49.562,6.089-4.848,8.473-27.575,8.956-52.219.612-30.04-1.562-62.979-3.157-69.921-2.706-11.645-56.2-140.486-140.132-132.336a86.164,86.164,0,0,0-21.841,5.122s-.628.661-1.74,1.643a41.279,41.279,0,0,1-7.587,5.4,32.189,32.189,0,0,1-7.748,3.109,23.747,23.747,0,0,1-15.833-1.289c-5.25-2.352-16.911.4-31.07,8.311-19.667,10.969-44.2,31.892-63.124,62.818a2,2,0,0,0-.162.258,202.38,202.38,0,0,0-27.124,74.463A480.193,480.193,0,0,0,1128.281,751.279Z" transform="translate(-929.243 -381.775)"/><path class="l" d="M1200.628,650.219c.063.1.137.178.2.277.191.245.386.506.571.787.05.052.083.109.137.177,5.139,7.022,30.348,41.52,30.353,41.535,9.153,11.909,23.131,23.368,34.238,27.97-12.623-20.152-50.537-78.172-57.47-104.04C1212.428,642.729,1200.623,650.2,1200.628,650.219Z" transform="translate(-911.064 -343.411)"/><path class="l" d="M1251.428,472.945c.609,1.819,0,3.313-3.072,3.791-9.571,1.5-19.88,4.861-26.4,10.57a6.685,6.685,0,0,1-6.283,1.59c-5.674-1.382-11.185-8.915-13.487-12.295a2.669,2.669,0,0,1-.368-.781c14.162-7.91,25.812-10.664,31.073-8.3a23.7,23.7,0,0,0,15.828,1.275A13.082,13.082,0,0,1,1251.428,472.945Z" transform="translate(-910.779 -379.171)"/><g transform="translate(307.584)"><g transform="translate(0 5.645)"><path class="g" d="M1230.774,419.683s26.935,32.2,28.521-2.216C1260.393,393.659,1212.652,397.084,1230.774,419.683Z" transform="translate(-1212.45 -400.43)"/><path class="g" d="M1241.281,414.443s-23.55,3.984-26.1,16.106c0,0,8.9-35.689,28.289-29.2s26.057,11.173,10.481,46.538C1253.953,447.886,1259.46,417.1,1241.281,414.443Z" transform="translate(-1215.183 -400.56)"/></g><path class="g" d="M1237.293,402.336s5.054-10.241,14.994-4.684,12.133,13.308,11.319,19.9-1.05,11.678.453,12.258c0,0-6.246,2.771-7.169.69,0,0-.266,12.312-8.643,19.275,0,0,3.319-14.422-3.616-18.822S1237.293,402.336,1237.293,402.336Z" transform="translate(-1209.92 -396)"/><path class="g" d="M1243.318,401.963s-5.777-7.4-17.346.219l-7.985,7.28s.924,2.082,4.509,1.738c0,0-5.451,10.062-6.319,16.592l11.407-16.357Z" transform="translate(-1214.947 -395.349)"/></g><g transform="translate(312.708 192.654)"><path class="m" d="M1228,662.132l122.556,50.16a13.974,13.974,0,0,0,18.212-7.629L1403,621.014a4.315,4.315,0,0,0,.214-.6,13.923,13.923,0,0,0-7.852-17.6L1272.8,552.654a13.952,13.952,0,0,0-18.2,7.637l-32.651,79.764-1.59,3.878A13.951,13.951,0,0,0,1228,662.132Z" transform="translate(-1219.322 -551.612)"/><path class="n" d="M1229.458,657.651l122.555,50.16a13.952,13.952,0,0,0,18.2-7.637l32.651-79.764a13.923,13.923,0,0,0-7.852-17.6l-122.555-50.16a13.952,13.952,0,0,0-18.2,7.637l-32.651,79.764A13.923,13.923,0,0,0,1229.458,657.651Z" transform="translate(-1218.974 -551.612)"/><circle class="o" cx="10.779" cy="10.779" r="10.779" transform="translate(83.891 67.63)"/></g><path class="l" d="M1402.84,623.618s-11.754-46.684-130.617,5.613,101.358,1.677,101.358,1.677Z" transform="translate(-902.402 -346.384)"/><path class="l" d="M1328.232,524.805s-4.175,126.05,116.856,142.918l2.595.792-8.6-26.787s-71.092-55.044-71.82-56.79S1328.232,524.805,1328.232,524.805Z" transform="translate(-880.693 -365.34)"/><g transform="translate(321.773 62.811)"><g transform="translate(0 225.664)"><path class="c" d="M1291.344,636.281c-1.609-.053-19.812-4.691-28.416-2.964s-21.226,5.116-25.915,5.176c-5.517.073-6.2,2.476.328,2.963,4.242.317,12.713.24,14.461-.206.847-.215-4.826.68-11.121,1.222-6.693.574-14.061.839-14.038,2.055.043,2.359,19.66,1.834,22.962,1.223a84.1,84.1,0,0,1-8.737,1.5c-4.008.461-8.772.415-9.393,1.461-.979,1.648,9.763,2.549,18.04,1.278.215.217-2.232,1.385-12.163,2.235-1,.085-3.268,1.21.233,1.715,7.371,1.061,10.463,2.061,19.936-.448,9.238-2.448,18.779-7.348,26.021-7.105Z" transform="translate(-1226.644 -628.077)"/><path class="c" d="M1264.176,633.87s-9.309-5.327-17.634-4.18c-4.948.682-5.193-.541-6.106-.656-3.028-.379,1.046,3.817,5.445,3.892,3.575.061,7.064,5.1,9.38,5.694s8.84,1.015,10.075-.189S1264.176,633.87,1264.176,633.87Z" transform="translate(-1223.61 -629.01)"/></g><path class="d" d="M1361.347,454.144c36.838,17.331,64.167,35.486,100.442,111.213,18.4,38.421,28.786,79.237,33.475,101a26.218,26.218,0,0,1-10.742,27c-82.115,57.238-207.971.678-207.971.678-5.8-.384-.848-22.119-.848-22.119,50.2-15.556,89.247-25.533,133.983-22.079-.233-.035-61.485-62.033-72.867-80.784-29.832-49.179-89.393-81.661-83.787-106.1C1254.966,454.5,1324.188,436.661,1361.347,454.144Z" transform="translate(-1220.451 -446.735)"/></g></g></g></g><path class="p" d="M1331.175,788.72H608.581c22.47-72.834,127.642-170.589,225.521-170.181,60.961.248,155.04,38.738,208.337,102.609,9.063,10.87,17.085,22.631,34.207,34.207,48.209,32.6,100.157,12.368,155.473,12.43C1257.932,767.822,1291.359,772.13,1331.175,788.72Z" transform="translate(0 58.685)"/></g></svg>