<svg xmlns="http://www.w3.org/2000/svg" width="527.33" height="418.489" viewBox="0 0 527.33 418.489"><defs><style>.a{fill:#f9a94b;}.b{fill:#c7873c;}.c,.e{fill:#d8a35d;}.c{fill-rule:evenodd;}.d{fill:#d19442;}.f{fill:#947dce;}.g{opacity:0.15;}.h{fill:#ffc84f;}.i{fill:#ce521f;}.j{fill:#ebebeb;}.k{fill:#8e96a3;}.l{fill:#3d3d3d;}.m{fill:#d0d1d6;}.n{fill:#fff;}.o{fill:#aaa;}.p{fill:#01acf0;}.q{fill:#fefefe;}</style></defs><g transform="translate(-513.976 -342.164)"><g transform="translate(513.976 658.169)"><path class="a" d="M513.976,675.975h527.33L961.7,593.45H590.854Z" transform="translate(-513.976 -593.45)"/><rect class="b" width="527.33" height="19.959" transform="translate(0 82.525)"/></g><g transform="translate(570.887 342.164)"><g transform="translate(0 48.907)"><path class="c" d="M613.8,415.2c-1.2-.983-12.46-15.2-20.073-18.906s-19.285-8.5-22.92-11.2c-4.276-3.173-6.2-1.727-1.481,2.466,3.07,2.725,9.617,7.626,11.219,8.307.777.331-4.1-2.3-9.249-5.572-5.474-3.476-11.283-7.586-11.978-6.639-1.347,1.835,14.017,12.914,16.908,14.379a81.192,81.192,0,0,1-7.582-3.966c-3.346-1.992-6.976-4.815-8.065-4.376-1.715.692,6,7.671,13.1,11.539.039.292-2.524-.243-10.643-5.4-.816-.519-3.217-.985-.824,1.452,5.035,5.128,6.823,7.706,15.562,11.326,8.524,3.529,18.714,5.352,24.131,9.777Z" transform="translate(-559.232 -380.456)"/><path class="c" d="M592.849,399.107s-4.027-9.539-11.088-13.529c-4.2-2.373-3.668-3.456-4.3-4.077-2.1-2.065-1.431,3.541,1.9,6.173,2.708,2.139,2.438,8.046,3.867,9.862s6.188,5.952,7.843,5.751S592.849,399.107,592.849,399.107Z" transform="translate(-554.846 -381.054)"/></g><g transform="translate(33.723)"><path class="d" d="M778.856,395.7s-1.7,18.98,10.008,29.477-26.982,0-26.982,0,7.2-18.179,5.585-29.477S778.856,395.7,778.856,395.7Z" transform="translate(-540.761 -329.669)"/><ellipse class="e" cx="20.469" cy="27.927" rx="20.469" ry="27.927" transform="translate(211.451 17.537)"/><path class="f" d="M637.922,512.033c30.986-64.816,86.287-94.386,121.594-102.238,15.283-3.4,26.819-2.736,31.031.9a22.888,22.888,0,0,0,14.288,5.551,30.992,30.992,0,0,0,8.022-.731,39.882,39.882,0,0,0,8.5-2.892c1.305-.606,2.067-1.041,2.067-1.041a82.948,82.948,0,0,1,21.611,1.29c79.881,15.64,93.779,149.578,93.064,161.1-.435,6.856-7.524,37.92-16.386,65.531-7.261,22.667-15.734,43.02-22.7,45.833-15.454,6.219-132.135,14.755-156.124,3.312-.56-.42-1.166-.871-1.742-1.368-9-7.323-18.765-21.782-23.943-35.323,0-.015-13.79-38.884-16.6-46.8-.031-.077-.047-.14-.078-.2-.093-.312-.2-.606-.311-.887-.031-.109-.078-.2-.109-.311" transform="translate(-572.687 -325.318)"/><path class="g" d="M687.377,569.433c.031.108.078.2.109.311.109.28.218.575.311.887.031.062.047.125.078.2,2.814,7.914,16.6,46.782,16.6,46.8,5.177,13.541,14.94,28,23.943,35.323C722.312,630.828,703.266,566.7,704,540.858,700.359,565.764,687.377,569.417,687.377,569.433Z" transform="translate(-559.95 -290.99)"/><path class="g" d="M837.307,489.9s-38.668,115.428,68.614,164.45l2.18,1.45-.553-27.149S856.995,558.113,856.8,556.3,837.307,489.9,837.307,489.9Z" transform="translate(-523.082 -304.113)"/><path class="g" d="M781.286,420.834c.062,1.85-.918,3.063-3.887,2.658-9.266-1.259-19.73-.995-27.332,2.487a6.456,6.456,0,0,1-6.25-.264c-4.867-2.845-7.882-11.334-9.08-15.1a2.606,2.606,0,0,1-.124-.825c15.283-3.4,26.819-2.736,31.031.9a22.888,22.888,0,0,0,14.288,5.551A12.62,12.62,0,0,1,781.286,420.834Z" transform="translate(-547.784 -325.318)"/><g transform="translate(206.718)"><g transform="translate(4.32 7.786)"><path class="h" d="M765.876,370s35.435,19.647,24.918-11.9C783.518,336.281,741.708,355.941,765.876,370Z" transform="translate(-752.687 -348.355)"/><path class="h" d="M772.19,362.179s-19.827,11.764-17.914,23.565c0,0-4.371-35.233,15.342-36.119s27.345,1.017,25.595,38.275C795.214,387.9,789.487,358.263,772.19,362.179Z" transform="translate(-753.864 -348.067)"/></g><path class="h" d="M765.709,351.738s.995-10.978,11.878-9.423,15.547,7.773,17.1,13.992,3.109,10.883,4.664,10.883c0,0-4.664,4.664-6.22,3.11,0,0,4.035,11.181-1.092,20.36,0,0-2.017-14.141-9.791-15.7S765.709,351.738,765.709,351.738Z" transform="translate(-746.494 -342.164)"/><path class="h" d="M770.639,349.9s-7.773-4.664-15.547,6.22l-4.663,9.327s1.554,1.556,4.663,0c0,0-1.416,10.955.069,17.138l4.6-18.692Z" transform="translate(-750.429 -340.426)"/></g><path class="g" d="M894.146,591.6s-20-41.943-122.536,30.15,96.236-17.687,96.236-17.687Z" transform="translate(-545.823 -281.045)"/><path class="f" d="M713.973,606.323s-94.636,40.149-117.6-46.436.922-107.352-8.414-149.5l15.221-7.329s57.294,35.323,76.907,89.858S713.973,606.323,713.973,606.323Z" transform="translate(-586.048 -326.481)"/></g><g transform="translate(195.764 82.154)"><g transform="translate(0 272.731)"><path class="c" d="M777.034,643.792c-1.474-.494-17.029-9.809-25.462-10.587s-21.045-1.131-25.4-2.369c-5.122-1.455-6.415.579-.514,2.831,3.836,1.464,11.692,3.732,13.432,3.8.844.034-4.65-.7-10.623-1.942-6.349-1.317-13.236-3.106-13.551-1.974-.611,2.192,17.676,7.123,20.9,7.471A81.208,81.208,0,0,1,727.322,640c-3.833-.68-8.227-2.037-9.091-1.243-1.359,1.254,8.328,5.053,16.332,6.163.14.259-2.446.664-11.866-1.292-.946-.2-3.356.216-.257,1.65,6.524,3.017,9.107,4.8,18.562,5.091,9.22.287,19.4-1.611,26.029.614Z" transform="translate(-714.902 -622.826)"/><path class="c" d="M751.742,635.574s-7.139-7.5-15.155-8.735c-4.765-.734-4.653-1.934-5.465-2.292-2.7-1.187-.087,3.819,3.961,5.1,3.29,1.044,5.126,6.665,7.1,7.857s7.894,3.379,9.37,2.606S751.742,635.574,751.742,635.574Z" transform="translate(-711.009 -624.366)"/></g><path class="f" d="M896.143,432.764c29.286,26.2,49.549,50.539,62.188,130.6,6.414,40.616,4.744,81.234,3.074,102.653a25.306,25.306,0,0,1-17.392,22.006c-91.754,30.264-189.692,24.221-189.692,24.221-5.254-1.956.412-20.966.412-20.966,46.943-63.708,114.032-53,132.082-64.17,5.629-33.023-39.737-74.35-45.087-94.837C827.718,478.544,781.6,432.053,793.533,411,797.655,403.716,866.6,406.334,896.143,432.764Z" transform="translate(-705.325 -407.492)"/></g></g><g transform="translate(570.888 552.706)"><g transform="translate(23.804 61.451)"><path class="i" d="M578.537,560.461h0a.576.576,0,0,1-.341-.738l.469-1.271,1.079.4-.468,1.271A.577.577,0,0,1,578.537,560.461Z" transform="translate(-578.161 -558.451)"/></g><g transform="translate(29.822 63.657)"><path class="i" d="M583.322,562.225h0a.576.576,0,0,1-.341-.738l.468-1.271c.031-.085,1.075.409,1.075.409l-.463,1.26A.578.578,0,0,1,583.322,562.225Z" transform="translate(-582.946 -560.205)"/></g><g transform="translate(23.688 60.705)"><path class="j" d="M578.445,560.364h0a.577.577,0,0,1-.341-.74l.512-1.391a.578.578,0,0,1,.739-.341h0a.577.577,0,0,1,.341.738l-.513,1.392A.577.577,0,0,1,578.445,560.364Z" transform="translate(-578.069 -557.858)"/></g><g transform="translate(29.693 62.916)"><path class="j" d="M583.22,562.122h0a.576.576,0,0,1-.341-.738l.513-1.392a.577.577,0,0,1,.738-.341h0a.577.577,0,0,1,.341.74l-.512,1.391A.578.578,0,0,1,583.22,562.122Z" transform="translate(-582.844 -559.616)"/></g><g transform="translate(21.771 76.491)"><rect class="k" width="2.446" height="3.772" transform="translate(0 2.295) rotate(-69.783)"/></g><g transform="translate(23.384 72.446)"><rect class="k" width="2.446" height="3.772" transform="translate(0 2.295) rotate(-69.783)"/></g><g transform="translate(0 103.287)"><path class="l" d="M755.453,641.253H563.835a4.26,4.26,0,0,1-4.6-4.2v-2.872l20.975-38.757a6.674,6.674,0,0,1,5.98-3.707H732.822c2.736,0,8.77,5.389,9.994,7.837l17.3,35.274V636.1C760.161,639.771,757.787,641.253,755.453,641.253Z" transform="translate(-559.232 -591.719)"/></g><g transform="translate(0.017 99.229)"><path class="m" d="M755.466,638.027H563.848c-2.128,0-5.63-1.866-4.315-4.161L580.22,592.2a6.679,6.679,0,0,1,5.98-3.707H732.835a7.225,7.225,0,0,1,6.461,3.994l20.478,40.977C761.209,636.075,757.8,638.027,755.466,638.027Z" transform="translate(-559.245 -588.492)"/></g><g transform="translate(20.961)"><rect class="m" width="156.921" height="99.157" rx="4.562"/></g><g transform="translate(26.985 5.408)"><rect class="l" width="144.815" height="85.921"/></g><g transform="translate(39.377 12.761)"><rect class="n" width="120.031" height="71.216"/></g><g transform="translate(70.723 129.517)"><path class="l" d="M672.951,630.021H616.49a1.02,1.02,0,0,1-1.006-1.18l2.382-14.872a1.653,1.653,0,0,1,1.632-1.392h50.926a1.454,1.454,0,0,1,1.439,1.244l2.182,14.956A1.1,1.1,0,0,1,672.951,630.021Z" transform="translate(-615.471 -612.577)"/></g><g transform="translate(20.162 106.085)"><path class="o" d="M731.442,614.308H578.032c-1.7,0-3-.654-2.731-1.376l6.469-17.362c.35-.937,2.23-1.626,4.438-1.626H724.576c1.96,0,3.624.619,3.907,1.453l5.929,17.459C734.645,613.626,733.249,614.308,731.442,614.308Z" transform="translate(-575.265 -593.944)"/></g><g transform="translate(19.759 102.21)"><g transform="translate(0 6.868)"><rect class="m" width="159.981" height="0.808"/></g><g transform="translate(0 10.908)"><rect class="m" width="159.981" height="0.808"/></g><g transform="translate(0 15.756)"><rect class="m" width="159.981" height="0.808"/></g><g transform="translate(0 20.2)"><rect class="m" width="159.981" height="0.808"/></g><g transform="translate(11.384 0.431)"><rect class="m" width="1.212" height="26.663" transform="translate(7.991 0) rotate(17.439)"/></g><g transform="translate(23.1 0.431)"><rect class="m" width="1.212" height="26.663" transform="translate(7.991) rotate(17.439)"/></g><g transform="translate(32.392 0.431)"><rect class="m" width="1.212" height="26.663" transform="translate(7.991 0) rotate(17.439)"/></g><g transform="translate(41.683 0.431)"><rect class="m" width="1.212" height="26.663" transform="translate(7.991) rotate(17.439)"/></g><g transform="translate(51.379 0.431)"><rect class="m" width="1.212" height="26.663" transform="translate(7.991 0) rotate(17.439)"/></g><g transform="translate(64.131 0.129)"><rect class="m" width="1.212" height="26.663" transform="translate(5.078) rotate(10.978)"/></g><g transform="translate(77.566)"><rect class="m" width="1.212" height="26.663"/></g><g transform="translate(140.257 0.431)"><rect class="m" width="1.212" height="26.663" transform="translate(0 0.363) rotate(-17.439)"/></g><g transform="translate(128.946 0.431)"><rect class="m" width="1.212" height="26.663" transform="translate(0 0.363) rotate(-17.439)"/></g><g transform="translate(117.634 0.431)"><rect class="m" width="1.212" height="26.663" transform="translate(0 0.363) rotate(-17.439)"/></g><g transform="translate(106.322 0.431)"><rect class="m" width="1.212" height="26.663" transform="translate(0 0.363) rotate(-17.439)"/></g><g transform="translate(95.01 0.431)"><rect class="m" width="1.212" height="26.663" transform="translate(0 0.363) rotate(-17.439)"/></g><g transform="translate(83.699 0.431)"><rect class="m" width="1.212" height="26.663" transform="translate(0 0.363) rotate(-17.439)"/></g></g></g><g transform="translate(647.029 579.541)"><path class="p" d="M650.763,573.972a9.454,9.454,0,0,1-4.881-1.027,3.191,3.191,0,0,0-1.922-.277,20.309,20.309,0,0,1-21.874-13.477,19.868,19.868,0,0,1-.893-9.53,2.494,2.494,0,0,0-.206-1.509,11.986,11.986,0,0,1,9.632-17.161,10.565,10.565,0,0,1,5.742.888,5.08,5.08,0,0,0,2.945.377,20.3,20.3,0,0,1,21.157,13.375,18.767,18.767,0,0,1,.98,9.9,2.236,2.236,0,0,0,.209,1.265,11.993,11.993,0,0,1-9.4,17.171A13.367,13.367,0,0,1,650.763,573.972Zm-10.079-34.427c-.707.07-1.62.116-2.515.263a12.91,12.91,0,0,0-2.072.551c-3.935,1.354-5.8,4.625-4.871,8.652.545,2.365,2.277,3.646,4.435,4.4,1.386.487,2.808.876,4.225,1.265,1.136.311,2.277.616,3.436.812a2.618,2.618,0,0,1,1.105,5.019c-2.085,1.22-6.059,1.021-7.77-1.163a20.553,20.553,0,0,0-1.343-1.576,2.874,2.874,0,0,0-3.514-.555,2.761,2.761,0,0,0-.693,3.089,6.334,6.334,0,0,0,3.722,3.788,15.618,15.618,0,0,0,11.934.42,6.955,6.955,0,0,0,4.951-7.245c-.091-3.263-2.09-5.567-5.519-6.49-1.517-.409-3.063-.7-4.59-1.071a12.2,12.2,0,0,1-4.071-1.3,1.962,1.962,0,0,1-.766-2.6,2.591,2.591,0,0,1,1.517-1.445c2.217-.885,5.528-.584,7.285,1.606a5.609,5.609,0,0,0,1.226,1.22,2.542,2.542,0,0,0,2.674.075,2.027,2.027,0,0,0,1.206-2.066,4.328,4.328,0,0,0-2.21-3.4A13.851,13.851,0,0,0,640.683,539.546Z" transform="translate(-619.779 -530.925)"/><path class="q" d="M638.4,537.78a13.851,13.851,0,0,1,7.783,2.257,4.328,4.328,0,0,1,2.21,3.4,2.027,2.027,0,0,1-1.206,2.066,2.542,2.542,0,0,1-2.674-.075,5.608,5.608,0,0,1-1.226-1.22c-1.757-2.189-5.068-2.491-7.285-1.606a2.591,2.591,0,0,0-1.517,1.445,1.962,1.962,0,0,0,.766,2.6,12.2,12.2,0,0,0,4.071,1.3c1.527.37,3.073.663,4.59,1.072,3.429.923,5.429,3.227,5.519,6.49a6.955,6.955,0,0,1-4.951,7.245,15.618,15.618,0,0,1-11.934-.42,6.334,6.334,0,0,1-3.722-3.788,2.761,2.761,0,0,1,.693-3.089,2.874,2.874,0,0,1,3.514.555,20.565,20.565,0,0,1,1.343,1.576c1.711,2.184,5.685,2.383,7.77,1.163a2.618,2.618,0,0,0-1.105-5.019c-1.158-.2-2.3-.5-3.436-.812-1.417-.389-2.84-.778-4.225-1.265-2.158-.758-3.891-2.038-4.435-4.4-.927-4.027.936-7.3,4.871-8.652a12.91,12.91,0,0,1,2.072-.551C636.78,537.9,637.693,537.85,638.4,537.78Z" transform="translate(-617.495 -529.159)"/></g></g></svg>