<svg xmlns="http://www.w3.org/2000/svg" xmlns:xlink="http://www.w3.org/1999/xlink" width="1045.817" height="421.621" viewBox="0 0 1045.817 421.621"><defs><style>.a,.q{fill:none;}.b{clip-path:url(#a);}.c{fill:#eadff1;}.d{clip-path:url(#b);}.e,.f{fill:#d8a35d;}.e{fill-rule:evenodd;}.g{fill:#d19442;}.h{fill:#947dce;}.i{fill:#ffc84f;}.j{opacity:0.15;}.k{fill:#62548a;}.l{opacity:0.3;}.m{opacity:0.5;}.n{fill:#999;}.o{fill:#ccc;}.p{fill:gray;}.q{stroke:#947dce;stroke-miterlimit:10;stroke-width:1.154px;}</style><clipPath id="a"><rect class="a" width="1045.817" height="421.621"/></clipPath><clipPath id="b"><rect class="a" width="357.609" height="322.144"/></clipPath></defs><g transform="translate(-235.609 -328.023)"><g transform="translate(235.609 328.023)"><g class="b"><path class="c" d="M267.926,715.547C317.1,578.691,463.583,499.415,592.064,487.908c23.048-2.064,153.928-11.656,257.33,69.282,46.533,36.423,44,57.131,91.55,106.4,121.543,125.931,258.6,115.486,259.8,148.46,2.995,81.724-834.213,274.51-942.72,59.384C231.1,818.036,255.046,751.39,267.926,715.547Z" transform="translate(-235.76 -330.376)"/></g></g><g transform="translate(596.637 427.501)"><g class="d"><g transform="translate(6.988 9.852)"><g transform="translate(0 35.182)"><path class="e" d="M647.31,487.734c-2.114-5.163-8.826-9.192-13.321-10.436a44.93,44.93,0,0,1-5.727-2.407c-3.482-1.174,2.027,3.793,4.109,4.626,1.692.678,4.722,5.714,6.381,7.441s5.213,4.229,7.126,4.247S647.035,488.692,647.31,487.734Z" transform="translate(-609.439 -474.713)"/><path class="e" d="M658.712,505.74c-4.038-7.254-7.063-15.872-14.819-19.473s-19.364-3.541-25.527-4.483c-7.251-1.11-4.211,1.249-.39,2.273,2.483.666,10.511,3.045,13.019,3.027,1.216-.009-9.873-1.87-10.468-1.7s-12.1-2.973-11.316-.857c1.515,4.1,14.507,4.626,18.645,5.529-2.183-.08-5.732-.734-7.834-.821-1.786-.073-7.176-2.036-7.708-.4-.837,2.586,12.466,4.268,14.234,4.412-1.751,1.407-8.424-.7-10.751-.861-.234-.016-2.353.492.2,1.388,5.362,1.889,9.515,3.615,15.645,4.52s13.321,1.85,17.408,7.45C652.317,505.564,655.519,506.136,658.712,505.74Z" transform="translate(-609.172 -474.813)"/></g><path class="f" d="M867.923,869.692S853.8,1015.4,859.807,1017.906c10.772,4.569,52.958,19.516,6.448,16.231-23.892,1.44-22.139-3.9-22.513-8.421-.3-3.7.4-134.1-.584-144.236-.221-2.272-.354-3.644-.354-3.644Z" transform="translate(-612.642 -445.396)"/><path class="f" d="M779,869.66s6.123,145.707.118,148.214c-10.773,4.569-52.959,19.516-6.448,16.231,23.892,1.44,22.138-3.9,22.512-8.421.305-3.7,3.016-31.745,4-41.886.22-2.271,4.9-116.229,4.9-116.229Z" transform="translate(-611.282 -445.364)"/><path class="g" d="M826.767,487.973s-1.244,13.884,7.32,21.561-19.735,0-19.735,0,5.266-13.3,4.084-21.561S826.767,487.973,826.767,487.973Z" transform="translate(-612.219 -439.673)"/><ellipse class="f" cx="14.972" cy="20.428" rx="14.972" ry="20.428" transform="translate(195.059 12.828)"/><path class="h" d="M698.606,576.484c22.665-47.41,63.117-69.04,88.942-74.784,11.18-2.49,19.617-2,22.7.66a16.741,16.741,0,0,0,10.45,4.06,22.663,22.663,0,0,0,5.868-.535,29.2,29.2,0,0,0,6.22-2.115c.956-.443,1.512-.761,1.512-.761a60.642,60.642,0,0,1,15.808.944c58.431,11.441,68.6,109.413,68.075,117.839-.318,5.015-5.5,27.737-11.986,47.935-5.311,16.581-11.51,31.467-16.6,33.526-11.3,4.548-96.653,10.792-114.2,2.422-.409-.307-.853-.637-1.274-1-6.585-5.356-13.726-15.933-17.513-25.838,0-.012-10.087-28.442-12.146-34.231-.023-.057-.033-.1-.056-.148-.069-.228-.148-.443-.228-.648-.023-.08-.057-.148-.08-.228" transform="translate(-610.5 -439.907)"/><path class="i" d="M772.235,705.349a9.224,9.224,0,0,0,5.238,2.417c12.308.241,65.468,1.152,94.305-.505,10.175-.585,17.32-1.49,18.575-2.861a1.105,1.105,0,0,1-.009.116c-.075,1.59-.987,19.788-2.267,43.642-2.527,47.088,2.34,114.531,8.026,135,1.227,4.418-64.822-2.275-64.822-2.275-.184-48.595,4.427-133.906,1.448-137.73-3.622-4.652-9.5,70.388-16.232,133.181-26.156,6.823-67.574,2.681-67.1,0C755.087,844.492,772.235,705.349,772.235,705.349Z" transform="translate(-611.255 -442.941)"/><path class="j" d="M744.784,645.429c.023.08.057.148.08.228.08.2.159.421.228.648.023.045.033.091.056.148,2.059,5.789,12.146,34.219,12.146,34.231,3.787,9.9,10.929,20.481,17.513,25.838-4.469-16.183-18.4-63.094-17.866-81.994C754.28,642.745,744.784,645.418,744.784,645.429Z" transform="translate(-611.186 -441.755)"/><path class="j" d="M883.405,576.949s-28.285,84.433,50.189,120.291l1.595,1.061-.406-19.86s-36.977-51.6-37.117-52.927S883.405,576.949,883.405,576.949Z" transform="translate(-613.171 -441.049)"/><path class="j" d="M823.028,509.775c.046,1.354-.671,2.24-2.842,1.945-6.778-.921-14.432-.728-19.993,1.82a4.725,4.725,0,0,1-4.572-.193c-3.559-2.082-5.765-8.291-6.641-11.043a1.878,1.878,0,0,1-.092-.6c11.18-2.49,19.617-2,22.7.66a16.741,16.741,0,0,0,10.45,4.06A9.22,9.22,0,0,1,823.028,509.775Z" transform="translate(-611.841 -439.907)"/><path class="k" d="M797.172,1018.582c.279-2.1-14.691-1.906-16.384-.2s-31.525,7.863-30.934,16.723,41.933,1.894,44.885,1.685S796.625,1022.717,797.172,1018.582Z" transform="translate(-611.261 -447.584)"/><path class="k" d="M842.9,1015.13c-.278-2.1,17.639.565,19.334,2.275s27.777,8.8,27.186,17.663-41.933,1.894-44.885,1.685S843.451,1019.265,842.9,1015.13Z" transform="translate(-612.642 -447.544)"/><g class="l" transform="translate(209.464 261.458)"><path d="M822.388,708.292l-.594-.049S822,708.258,822.388,708.292Z" transform="translate(-821.794 -704.456)"/><path class="m" d="M822.4,708.235c15.841,1.264,50.465-.975,50.465-.975,10.175-.585,17.32-1.49,18.575-2.861a1.105,1.105,0,0,1-.009.116c-.075,1.59-.987,19.788-2.267,43.642a11.846,11.846,0,0,1-1.666-.193,12.96,12.96,0,0,1-8.384-5.957,28.82,28.82,0,0,1-3.26-6.808C864.041,712.726,827.471,708.69,822.4,708.235Z" transform="translate(-821.803 -704.399)"/></g><g transform="translate(191.597)"><g transform="translate(3.16 5.696)"><path class="i" d="M816.576,460.616s25.92,14.371,18.227-8.7C829.48,435.95,798.9,450.33,816.576,460.616Z" transform="translate(-806.928 -444.782)"/><path class="i" d="M820.27,455.12s-14.5,8.6-13.1,17.237c0,0-3.2-25.772,11.222-26.421s20,.745,18.723,28C837.111,473.933,832.921,452.255,820.27,455.12Z" transform="translate(-806.865 -444.797)"/></g><path class="i" d="M817.924,446s.729-8.03,8.689-6.893,11.373,5.686,12.509,10.235,2.275,7.961,3.412,7.961c0,0-3.412,3.412-4.548,2.275,0,0,2.951,8.179-.8,14.893,0,0-1.476-10.344-7.162-11.481S817.924,446,817.924,446Z" transform="translate(-803.869 -439)"/><path class="i" d="M818.441,446.027s-5.686-3.412-11.373,4.549l-3.412,6.823s1.137,1.137,3.412,0c0,0-1.036,8.012.05,12.535l3.361-13.672Z" transform="translate(-803.657 -439.094)"/></g><g transform="translate(172.53 139.881)"><path class="n" d="M784.423,602.205l14.421,92.377A9.866,9.866,0,0,0,810.1,702.8l63.048-9.849a3.091,3.091,0,0,0,.443-.091,9.83,9.83,0,0,0,7.768-11.168L866.94,589.319a9.849,9.849,0,0,0-11.258-8.21l-60.126,9.383-2.922.454A9.85,9.85,0,0,0,784.423,602.205Z" transform="translate(-784.303 -580.989)"/><path class="o" d="M787.84,601.658l14.42,92.378a9.85,9.85,0,0,0,11.259,8.21l60.125-9.382a9.83,9.83,0,0,0,7.768-11.168l-14.421-92.378a9.849,9.849,0,0,0-11.258-8.21l-60.126,9.383A9.829,9.829,0,0,0,787.84,601.658Z" transform="translate(-784.354 -580.989)"/><circle class="p" cx="7.611" cy="7.611" r="7.611" transform="translate(43.304 53.853)"/></g><path class="j" d="M893.889,668.293s1.478-33.957-89.5-22.585,68.233,21.607,68.233,21.607Z" transform="translate(-611.654 -442.035)"/><g transform="translate(155.758 60.093)"><g transform="translate(0 140.967)"><path class="e" d="M812.725,658.51c-1.078-.362-12.455-7.176-18.624-7.745s-15.393-.827-18.578-1.732c-3.746-1.065-4.693.423-.376,2.071a60.976,60.976,0,0,0,9.825,2.782c.617.025-3.4-.515-7.771-1.421-4.644-.962-9.681-2.272-9.912-1.444-.447,1.6,12.93,5.21,15.287,5.466a59.56,59.56,0,0,1-6.213-.754c-2.8-.5-6.017-1.491-6.649-.908-.995.917,6.09,3.7,11.946,4.508.1.19-1.79.487-8.68-.945-.692-.144-2.455.159-.188,1.207,4.773,2.207,6.662,3.508,13.578,3.724,6.744.21,14.188-1.178,19.039.448Z" transform="translate(-767.278 -643.174)"/><path class="e" d="M797.282,651.289s-5.221-5.484-11.085-6.39c-3.485-.537-3.4-1.415-4-1.677-1.972-.868-.063,2.793,2.9,3.733,2.406.763,3.749,4.875,5.2,5.747s5.774,2.472,6.854,1.906S797.282,651.289,797.282,651.289Z" transform="translate(-767.487 -643.091)"/></g><path class="h" d="M910.557,518.484c21.421,19.167,36.243,36.969,45.488,95.528,4.691,29.709,3.47,59.419,2.248,75.087a18.51,18.51,0,0,1-12.721,16.1c-67.115,22.138-140.835-41.547-140.835-41.547-3.844-1.43,3.893-15.136,3.893-15.136,37.1-.384,65.535.753,95.1,12.125-.15-.071-29.066-54.386-32.979-69.371-10.25-39.3-43.983-73.3-35.255-88.7C838.515,497.237,888.949,499.152,910.557,518.484Z" transform="translate(-767.818 -499.999)"/></g><g transform="translate(155.758 261.258)"><line class="q" x1="16.773" y2="175.385"/><line class="q" x1="16.646" y2="172.331" transform="translate(16.773 3.508)"/><line class="q" x1="13.842" y2="171.126" transform="translate(35.847 3.508)"/><line class="q" x2="0.357" y2="35.447" transform="translate(65.361 3.508)"/><line class="q" x1="3.212" y2="174.594" transform="translate(79.545 3.508)"/><line class="q" x1="0.895" y2="176.059" transform="translate(96.831 3.398)"/><line class="q" x2="3.386" y2="177.07" transform="translate(112.438 3.398)"/></g><path class="q" d="M770.276,723.883s94.451,4.459,119.407,0" transform="translate(-611.565 -443.231)"/><path class="q" d="M833.011,743.672c-33.047,7.485-64.673-4.347-64.673-4.347" transform="translate(-611.536 -443.46)"/><path class="q" d="M833.624,741.468s29.824,8.381,56.021,1.3" transform="translate(-612.505 -443.492)"/><path class="q" d="M766.689,752.372s23.816,12.468,62.5,6.112" transform="translate(-611.511 -443.654)"/><path class="q" d="M764.71,767.91s37.06,11.315,62.617,5.492" transform="translate(-611.482 -443.884)"/><path class="q" d="M762.726,783.346s18.875,14.8,62.637,8.159" transform="translate(-611.453 -444.114)"/><path class="q" d="M760.416,801.1s28.78,15.037,63.479,4.782" transform="translate(-611.418 -444.377)"/><path class="q" d="M758.268,817.367s20.385,14.47,63.882,6.066" transform="translate(-611.386 -444.619)"/><path class="q" d="M756.023,834.042s28.134,14.707,64.794,2.825" transform="translate(-611.353 -444.866)"/><path class="q" d="M754.226,847.056s16.6,15.964,65.161,4.129" transform="translate(-611.326 -445.06)"/><path class="q" d="M752.108,861.827s26.839,14.14,65.814,3.683" transform="translate(-611.295 -445.279)"/><path class="q" d="M835,757.718s12.46,10.288,54.666,2.651" transform="translate(-612.526 -443.733)"/><path class="q" d="M835.333,773.435s17.483,8.152,53.339,1.714" transform="translate(-612.531 -443.966)"/><path class="q" d="M834.467,790.88s27,8.13,54.192,0" transform="translate(-612.518 -444.225)"/><path class="q" d="M834.072,805.346s26.244,11.666,55.1,0" transform="translate(-612.512 -444.44)"/><path class="q" d="M833.624,821.228s24.986,8.768,56.27,0" transform="translate(-612.505 -444.676)"/><path class="q" d="M833.215,836.483s21.062,9.449,57.658,0" transform="translate(-612.499 -444.903)"/><path class="q" d="M833.215,849.979s25.005,12.886,58.931,1.369" transform="translate(-612.499 -445.103)"/><path class="q" d="M832.6,866.85s28.441,9.641,61.387.709" transform="translate(-612.49 -445.354)"/><path class="h" d="M743.624,644.546S674.4,673.914,657.6,610.578s6.3-77.344-15.4-103.582l14-10.841s48.289,25.544,62.635,65.435S743.624,644.546,743.624,644.546Z" transform="translate(-609.663 -439.849)"/></g></g></g></g></svg>