<svg xmlns="http://www.w3.org/2000/svg" width="435.787" height="361.135" viewBox="0 0 435.787 361.135">
    <defs>
        <style>
            .a{fill:#f9a94b;}.b{fill:#c7873c;}.c,.e{fill:#d8a35d;}.c{fill-rule:evenodd;}.d{fill:#d19442;}.f{fill:#947dce;}.g{opacity:0.15;}.h{fill:#ffc84f;}
        </style>
    </defs>
    <g transform="translate(-450.711 -447.554)">
        <path class="a" d="M450.711,723.05h374.2l-56.491-58.561H505.265Z" transform="translate(0 71.476)"/>
        <rect class="b" width="374.202" height="14.163" transform="translate(450.711 794.526)"/>
        <g transform="translate(502.098 447.554)">
            <g transform="translate(338.133 41.468)">
                <path class="c"
                      d="M743.7,507.592c1.021-.835,10.565-12.885,17.02-16.031s16.351-7.207,19.434-9.494c3.625-2.691,5.261-1.465,1.256,2.091-2.6,2.311-8.154,6.465-9.512,7.044-.659.279,3.478-1.953,7.843-4.725,4.641-2.947,9.566-6.432,10.156-5.629,1.142,1.555-11.884,10.95-14.336,12.191a68.852,68.852,0,0,0,6.428-3.362c2.837-1.69,5.915-4.083,6.838-3.711,1.454.586-5.088,6.5-11.1,9.784-.033.247,2.139-.206,9.023-4.581.691-.44,2.727-.835.7,1.231-4.27,4.349-5.786,6.534-13.2,9.6-7.226,2.991-15.866,4.538-20.459,8.291Z"
                      transform="translate(-743.697 -478.131)"/>
                <path class="c"
                      d="M754.262,494.051s3.414-8.087,9.4-11.471c3.559-2.012,3.111-2.93,3.648-3.457,1.783-1.75,1.212,3-1.613,5.234-2.3,1.813-2.067,6.823-3.279,8.361s-5.247,5.048-6.65,4.877S754.262,494.051,754.262,494.051Z"
                      transform="translate(-740.216 -478.745)"/>
            </g>
            <g transform="translate(29.355)">
                <path class="d"
                      d="M607.712,490.721s1.441,16.093-8.485,24.993,22.876,0,22.876,0-6.1-15.414-4.734-24.993S607.712,490.721,607.712,490.721Z"
                      transform="translate(-483.136 -434.734)"/>
                <ellipse class="e" cx="17.355" cy="23.679" rx="17.355" ry="23.679"
                         transform="translate(112.456 14.87)"/>
                <path class="f"
                      d="M778.47,588.584c-26.272-54.957-73.16-80.029-103.1-86.686-12.958-2.888-22.74-2.32-26.312.764a19.4,19.4,0,0,1-12.114,4.706,26.268,26.268,0,0,1-6.8-.62,33.866,33.866,0,0,1-7.211-2.453c-1.107-.513-1.754-.883-1.754-.883a70.333,70.333,0,0,0-18.323,1.094c-67.73,13.262-79.515,126.826-78.909,136.594.37,5.814,6.38,32.151,13.894,55.563,6.156,19.219,13.34,36.474,19.246,38.861,13.1,5.273,112.035,12.51,132.375,2.808.475-.356.989-.738,1.477-1.161,7.633-6.209,15.911-18.468,20.3-29.949,0-.013,11.693-32.968,14.079-39.678.027-.066.04-.118.066-.172.078-.263.17-.514.263-.751.027-.093.065-.171.092-.263"
                      transform="translate(-507.33 -430.27)"/>
                <path class="g"
                      d="M684.349,631.139c-.027.092-.066.17-.093.263-.092.237-.185.488-.263.751-.027.053-.04.105-.066.172-2.385,6.71-14.078,39.665-14.078,39.678-4.39,11.481-12.669,23.741-20.3,29.949,5.181-18.758,21.329-73.135,20.709-95.043C673.341,628.028,684.349,631.126,684.349,631.139Z"
                      transform="translate(-465.94 -395.049)"/>
                <path class="g"
                      d="M571.469,566.043s32.786,97.871-58.177,139.436l-1.849,1.229.471-23.02s42.861-59.811,43.023-61.35S571.469,566.043,571.469,566.043Z"
                      transform="translate(-511.443 -408.514)"/>
                <path class="g"
                      d="M608.075,511.258c-.052,1.567.778,2.6,3.3,2.253,7.857-1.068,16.729-.844,23.174,2.109a5.473,5.473,0,0,0,5.3-.223c4.127-2.413,6.683-9.61,7.7-12.8a2.208,2.208,0,0,0,.105-.7c-12.958-2.888-22.74-2.32-26.312.764a19.4,19.4,0,0,1-12.114,4.706A10.69,10.69,0,0,0,608.075,511.258Z"
                      transform="translate(-479.605 -430.27)"/>
                <g transform="translate(106.36)">
                    <g transform="translate(5.89 6.603)">
                        <path class="h"
                              d="M619.635,470.875s-30.046,16.658-21.128-10.087C604.677,442.283,640.126,458.952,619.635,470.875Z"
                              transform="translate(-595.552 -452.52)"/>
                        <path class="h"
                              d="M615.6,464.189s16.81,9.975,15.188,19.981c0,0,3.707-29.875-13.008-30.625s-23.186.861-21.7,32.453C596.08,486,600.937,460.868,615.6,464.189Z"
                              transform="translate(-595.874 -452.224)"/>
                    </g>
                    <path class="h"
                          d="M619.971,455.672s-.844-9.308-10.072-7.99-13.182,6.592-14.5,11.864-2.636,9.228-3.954,9.228c0,0,3.954,3.954,5.273,2.636,0,0-3.422,9.481.925,17.263,0,0,1.711-11.991,8.3-13.309S619.971,455.672,619.971,455.672Z"
                          transform="translate(-591.444 -447.554)"/>
                    <path class="h"
                          d="M612.266,453.808s6.59-3.954,13.182,5.274l3.955,7.909s-1.319,1.318-3.955,0c0,0,1.2,9.288-.059,14.53l-3.9-15.849Z"
                          transform="translate(-584.583 -445.771)"/>
                </g>
                <path class="g" d="M534.845,648.163s16.958-35.562,103.9,25.563-81.6-15-81.6-15Z"
                      transform="translate(-503.732 -384.846)"/>
                <path class="f"
                      d="M675.406,668.738s80.241,34.041,99.71-39.374-.782-91.022,7.135-126.759l-12.907-6.214s-48.579,29.951-65.21,76.189S675.406,668.738,675.406,668.738Z"
                      transform="translate(-457.42 -431.463)"/>
            </g>
            <g transform="translate(0 69.658)">
                <g transform="translate(165.733 231.245)">
                    <path class="c"
                          d="M614.023,690.08c1.25-.419,14.438-8.317,21.589-8.977s17.843-.959,21.535-2.008c4.342-1.235,5.439.489.436,2.4-3.252,1.24-9.914,3.164-11.388,3.225-.715.029,3.943-.6,9.007-1.647,5.383-1.115,11.222-2.632,11.489-1.674.519,1.859-14.989,6.04-17.721,6.335a68.841,68.841,0,0,0,7.2-.872c3.25-.577,6.976-1.728,7.707-1.053,1.154,1.062-7.06,4.284-13.847,5.225-.118.219,2.074.564,10.06-1.1.8-.166,2.846.183.218,1.4-5.532,2.558-7.722,4.066-15.739,4.315-7.817.243-16.446-1.365-22.069.52Z"
                          transform="translate(-614.023 -672.305)"/>
                    <path class="c"
                          d="M627.78,683.388s6.053-6.358,12.85-7.407c4.04-.624,3.946-1.641,4.635-1.944,2.287-1.006.073,3.237-3.358,4.326-2.789.885-4.347,5.652-6.024,6.662s-6.693,2.865-7.945,2.21S627.78,683.388,627.78,683.388Z"
                          transform="translate(-609.636 -673.885)"/>
                </g>
                <path class="f"
                      d="M545.984,521.376c-24.831,22.216-42.01,42.851-52.729,110.73-5.438,34.439-4.022,68.876-2.606,87.037A21.46,21.46,0,0,0,505.4,737.8c77.8,25.66,160.837,20.536,160.837,20.536,4.455-1.659-.35-17.778-.35-17.778-39.8-54.016-96.687-44.934-111.99-54.409-4.773-28,33.693-63.04,38.229-80.411C604,560.192,643.1,520.774,632.987,502.921,629.492,496.746,571.031,498.967,545.984,521.376Z"
                      transform="translate(-489.363 -499.948)"/>
            </g>
        </g>
    </g>
</svg>
