<svg xmlns="http://www.w3.org/2000/svg" xmlns:xlink="http://www.w3.org/1999/xlink" width="180" height="104" viewBox="0 0 180 104"><defs><style>.a{fill:#fff;}.b{fill:#82cae0;stroke:#000;stroke-miterlimit:10;}.c{filter:url(#a);}</style><filter id="a" x="0" y="0" width="180" height="104" filterUnits="userSpaceOnUse"><feOffset dx="2" dy="2" input="SourceAlpha"/><feGaussianBlur stdDeviation="4" result="b"/><feFlood flood-color="#947dce" flood-opacity="0.4"/><feComposite operator="in" in2="b"/><feComposite in="SourceGraphic"/></filter></defs><g transform="translate(-502 -235)"><g class="c" transform="matrix(1, 0, 0, 1, 502, 235)"><rect class="a" width="156" height="80" rx="40" transform="translate(10 10)"/></g><g transform="translate(-193.029 -240.793)"><path class="b" d="M7.535,0H84.86A7.535,7.535,0,0,1,92.4,7.535v13.98A13.4,13.4,0,0,1,79,34.91H13.4A13.4,13.4,0,0,1,0,21.515V7.535A7.535,7.535,0,0,1,7.535,0Z" transform="translate(736.633 509.977)"/><circle cx="2.386" cy="2.386" r="2.386" transform="translate(755.019 517.424)"/><circle cx="2.386" cy="2.386" r="2.386" transform="translate(767.412 517.424)"/><circle cx="2.386" cy="2.386" r="2.386" transform="translate(779.805 517.424)"/><circle cx="2.386" cy="2.386" r="2.386" transform="translate(792.198 517.424)"/><circle cx="2.386" cy="2.386" r="2.386" transform="translate(804.592 517.424)"/><circle cx="2.386" cy="2.386" r="2.386" transform="translate(755.019 532.523)"/><circle cx="2.386" cy="2.386" r="2.386" transform="translate(767.412 532.523)"/><circle cx="2.386" cy="2.386" r="2.386" transform="translate(779.805 532.523)"/><circle cx="2.386" cy="2.386" r="2.386" transform="translate(792.198 532.523)"/><circle cx="2.386" cy="2.386" r="2.386" transform="translate(804.592 532.523)"/><circle cx="2.386" cy="2.386" r="2.386" transform="translate(761.478 525.104)"/><circle cx="2.386" cy="2.386" r="2.386" transform="translate(773.871 525.104)"/><circle cx="2.386" cy="2.386" r="2.386" transform="translate(786.264 525.104)"/><circle cx="2.386" cy="2.386" r="2.386" transform="translate(798.657 525.104)"/><circle cx="2.386" cy="2.386" r="2.386" transform="translate(811.05 525.104)"/></g></g></svg>