<svg xmlns="http://www.w3.org/2000/svg" width="342" height="311.044" viewBox="0 0 342 311.044"><defs><style>.a{fill:#b6d7db;opacity:0.49;}.b{fill:#212121;}.c{fill:#fff;}.c,.d{stroke:#969696;stroke-width:1.224px;}.c,.d,.e,.f,.h{stroke-miterlimit:10;}.d,.j{fill:none;}.e,.f{fill:#ebcd50;}.e,.f,.h{stroke:#323233;}.e{stroke-width:1.509px;}.f{stroke-width:1.474px;}.g{fill:#323233;}.h{fill:#ebebeb;stroke-width:0.954px;}.i{stroke:none;}</style></defs><g transform="translate(-883.164 -333.225)"><path class="a" d="M1224.764,464.3c-1.95,18.369-9.7,23.509-44.981,70.806-59.946,80.363-70.97,110.326-94.97,109.132-8.777-.437-14.229-4.8-19.774-10.3-3.5-3.476-7.038-7.41-11.476-11.111A55.4,55.4,0,0,0,1029,610.91c-26.553-5.857-33.85,8.8-63.309,5-22.122-2.859-49.5-15.2-66.639-40.822-15.728-23.5-20.636-54.9-10.833-80.8,8.757-23.117,23.622-27.037,52.484-53.313,54.692-49.8,43.3-73.99,78.3-94.135,42.64-24.544,102.785-13.36,143.282,13.327C1190.734,378.913,1229.527,419.4,1224.764,464.3Z"/><g transform="translate(1023.756 405.188)"><path class="b" d="M1083.993,561.916v94.911c-3.5-3.476-7.038-7.41-11.476-11.111v-83.8Z" transform="translate(-1042.711 -428.08)"/><rect class="b" width="21.693" height="6.198" transform="translate(24.481 154.573)"/><rect class="b" width="24.62" height="2.41" transform="translate(23.018 149.58)"/><rect class="b" width="26.858" height="2.41" transform="translate(21.899 145.577)"/><rect class="b" width="28.395" height="2.41" transform="translate(21.13 141.574)"/><rect class="b" width="31.175" height="2.41" transform="translate(19.74 137.572)"/><rect class="b" width="33.314" height="4.132" transform="translate(18.886 131.245)"/><g transform="translate(13.327 0)"><rect class="c" width="45.687" height="42.793" rx="0.977" transform="translate(0 0.442) rotate(-0.554)"/><path class="d" d="M1076.968,413.462l.074,7.636,6.086-.059.047,4.815-5.089.049.193,19.893,6.2-.06.045,4.6-5.955.058.057,5.847" transform="translate(-1056.483 -413.22)"/><rect class="e" width="7.945" height="6.847" transform="translate(8.38 19.654) rotate(-0.554)"/><rect class="e" width="7.945" height="6.847" transform="translate(29.36 19.451) rotate(-0.554)"/></g><g class="f" transform="translate(11.292 111.205)"><rect class="i" width="48.871" height="20.039"/><rect class="j" x="0.737" y="0.737" width="47.397" height="18.565"/></g><rect class="g" width="34.55" height="5.011" rx="2.506" transform="translate(18.419 116.105)"/><rect class="g" width="27.373" height="2.754" rx="1.377" transform="translate(21.856 122.799)"/><g class="e" transform="translate(0 39.565)"><rect class="i" width="72.751" height="72.751"/><rect class="j" x="0.755" y="0.755" width="71.242" height="71.242"/></g><g class="h" transform="translate(13.386 52.951)"><rect class="i" width="45.979" height="45.979"/><rect class="j" x="0.477" y="0.477" width="45.025" height="45.025"/></g><g transform="translate(18.465 69.106)"><path d="M1061.325,490.075v4.571h5.283v-4.571h1.427V501h-1.427v-5.122h-5.283V501h-1.41V490.075Z" transform="translate(-1059.915 -489.995)"/><path d="M1071.664,490.213a20.208,20.208,0,0,1,3-.227,6.251,6.251,0,0,1,4.424,1.362,5.029,5.029,0,0,1,1.541,3.922,5.77,5.77,0,0,1-1.573,4.246,6.725,6.725,0,0,1-4.829,1.573,22.544,22.544,0,0,1-2.561-.13Zm1.41,9.659a8.9,8.9,0,0,0,1.426.081c3.015,0,4.652-1.686,4.652-4.634.016-2.577-1.443-4.215-4.425-4.215a8.082,8.082,0,0,0-1.653.146Z" transform="translate(-1061.091 -489.986)"/><path d="M1092.839,496.2c-.081-1.524-.178-3.355-.161-4.716h-.049c-.373,1.28-.826,2.642-1.378,4.149l-1.929,5.3h-1.069l-1.766-5.2c-.519-1.541-.957-2.951-1.264-4.247h-.032c-.032,1.362-.113,3.192-.211,4.83l-.292,4.684h-1.344l.761-10.925h1.8l1.863,5.284c.454,1.344.827,2.544,1.1,3.679h.049c.275-1.1.664-2.3,1.151-3.679l1.945-5.284h1.8l.681,10.925h-1.378Z" transform="translate(-1062.26 -489.995)"/><path d="M1099.563,490.075V501h-1.41V490.075Z" transform="translate(-1063.743 -489.995)"/></g></g></g></svg>