<svg xmlns="http://www.w3.org/2000/svg" width="536" height="400.177" viewBox="0 0 536 400.177"><defs><style>.a{fill:#b6d7db;opacity:0.49;}.b{fill:#f7a64c;}.c{opacity:0.15;}.d{fill:#c5853c;}.e{fill:#927dcc;}.f{fill:#d19442;}.g{fill:#d8a35d;}.h{fill:#fdc64f;}.i{fill:#ddb073;}.j{fill:#cc5220;}.k{fill:#e9e9e9;}.l{fill:#8c94a1;}.m{fill:#3d3d3d;}.n{fill:#cecfd4;}.o{fill:#a8a8a8;}.p{fill:#fff;}.q{fill:#25aef3;}.r{fill:#251f1f;}.s{fill:#fcfcfb;}.t{fill:#f8a72c;}</style></defs><g transform="translate(-516.127 -385.375)"><path class="a" d="M860.483,697.4a627.752,627.752,0,0,0,78.873-12.949c52.549-11.976,82.1-19.129,94.177-42.38,10.128-19.494-3.6-28.031,0-70.631,4.028-47.719,22.987-57.6,17.658-81.228-9.171-40.667-75.812-57.9-97.707-63.569C872.722,405.75,802.864,428.132,751,445.474c-49.771,16.643-114.373,38.246-169.517,98.886-27.349,30.074-78.146,85.933-62.392,143.619,10.9,39.911,51.154,71.543,91.821,81.226C691.562,788.409,726.755,710.083,860.483,697.4Z" transform="translate(0 13.332)"/><g transform="translate(517.946 657.768)"><path class="b" d="M1013.371,648.235H517.424l66.65-69.138H938.5L948,587.871Z" transform="translate(-517.419 -579.097)"/><path class="c" d="M872.271,587.871c-28.4,7.284-71.529,15.973-106.175,12.767-39.6-3.67-55.921-14.989-62.192-21.542H862.766Z" transform="translate(-441.689 -579.096)"/><rect class="d" width="495.947" height="16.721" transform="translate(0 69.135)"/></g><g transform="translate(703.219 385.375)"><path class="e" d="M902.325,602.379c-1.514,12.326-16.17,19.039-35.251,26.1a76.865,76.865,0,0,1-23.2,4.668,84.137,84.137,0,0,1-19.7-1.533,86.25,86.25,0,0,1-19.953-6.468c.984-.984,1.955-1.954,2.883-2.911,11.024-11.164,18.954-20.163,24.283-27.574a67.58,67.58,0,0,0,5.892-9.533,26.073,26.073,0,0,0,2.967-9.505c.408-4.668-1.209-8.409-4.359-11.783-3.614-3.881-7.34-7.832-11.164-12.36-2.953-3.5-5.99-7.34-9.083-11.755a174.739,174.739,0,0,1-9.66-15.467,296.5,296.5,0,0,1-18.237-40.383c-6.735-17.956-26.449-39.469-19.629-47.878,1.547-1.9,4.106-2.854,7.312-3.107,10.729-.844,28.783,6.187,40.566,12.528,34.126,18.35,50.521,49.481,61.306,70.6A241.389,241.389,0,0,1,902.325,602.379Z" transform="translate(-601.461 -366.108)"/><path class="f" d="M758.208,422.323s-1.3,14.487,7.636,22.5-20.592,0-20.592,0,5.495-13.875,4.262-22.5S758.208,422.323,758.208,422.323Z" transform="translate(-610.171 -371.927)"/><ellipse class="g" cx="15.622" cy="21.314" rx="15.622" ry="21.314" transform="translate(127.701 13.385)"/><path class="e" d="M894.394,557.029a50.824,50.824,0,0,1-.886,5.765c-.155.815-.323,1.687-.52,2.629-.014.084-.042.169-.056.253-.7,3.347-1.631,7.4-2.728,11.867-.858,3.487-1.828,7.241-2.883,11.108-.816,2.967-1.673,6.018-2.573,9.069-.914,3.122-1.87,6.243-2.854,9.322a195.141,195.141,0,0,1-9.112,23.946c-.3.6-.591,1.2-.886,1.758-2.545,4.949-5.034,8.352-7.326,9.28a.863.863,0,0,0-.169.07c-12.416,4.725-100.776,11.15-119,2.447-.422-.309-.886-.661-1.322-1.041-6.876-5.582-14.328-16.62-18.279-26.955,0-.014-10.518-29.683-12.669-35.715L700.479,643.5l-47.09,5.343c-14.131-83.761,11.9-139.092,11.9-139.092,23.651-49.467,65.862-72.049,92.8-78.039,11.671-2.6,20.473-2.081,23.693.689a17.164,17.164,0,0,0,4.232,2.7,18.082,18.082,0,0,0,6.665,1.547,23.809,23.809,0,0,0,6.131-.562c.8-.169,1.561-.38,2.278-.577a31.575,31.575,0,0,0,4.2-1.631c1-.464,1.589-.8,1.589-.8a63.932,63.932,0,0,1,16.269.942l.225.042C884.341,446,894.943,548.24,894.394,557.029Z" transform="translate(-649.184 -367.244)"/><path class="c" d="M694.4,542.813c.024.083.059.155.083.238.083.214.166.439.238.676.023.048.035.1.059.155,2.147,6.039,12.673,35.705,12.673,35.716,3.951,10.335,11.4,21.371,18.274,26.959C711.25,573.825,707.08,521,707.08,521S694.4,542.8,694.4,542.813Z" transform="translate(-630.824 -330.296)"/><path class="c" d="M762.26,440.144c.048,1.413-.7,2.338-2.965,2.03-7.073-.962-15.058-.761-20.861,1.9a4.927,4.927,0,0,1-4.77-.2c-3.715-2.171-6.017-8.65-6.931-11.522a2,2,0,0,1-.094-.629c11.664-2.6,20.469-2.088,23.684.688a17.466,17.466,0,0,0,10.9,4.237A9.6,9.6,0,0,1,762.26,440.144Z" transform="translate(-617.73 -367.243)"/><g transform="translate(124.088)"><g transform="translate(3.298 5.943)"><path class="h" d="M748.579,406.124s27.045,14.995,19.018-9.081C762.044,380.387,730.134,395.391,748.579,406.124Z" transform="translate(-738.513 -389.602)"/><path class="h" d="M753.767,400.061s-15.132,8.979-13.672,17.987c0,0-3.338-26.892,11.709-27.568s20.871.776,19.535,29.213C771.339,419.693,766.967,397.073,753.767,400.061Z" transform="translate(-739.78 -389.291)"/></g><path class="h" d="M747.865,392.682s.759-8.379,9.065-7.192,11.866,5.932,13.053,10.679,2.374,8.306,3.56,8.306c0,0-3.56,3.56-4.747,2.373,0,0,3.081,8.534-.832,15.54,0,0-1.54-10.793-7.473-11.98S747.865,392.682,747.865,392.682Z" transform="translate(-733.198 -385.375)"/><path class="h" d="M752.86,390.739s-5.932-3.559-11.866,4.747l-3.56,7.119s1.187,1.187,3.56,0c0,0-1.081,8.361.053,13.08l3.507-14.266Z" transform="translate(-737.434 -383.505)"/></g><path class="c" d="M799.667,491.3s-27.87,21.931,43.016,86.174-29.321-68.684-29.321-68.684Z" transform="translate(-590.266 -342.357)"/><g transform="translate(124.948 145.973)"><path class="g" d="M758.484,509.526s-5.124-8.172-5.679-8.2a2,2,0,0,1-.979-.343,28.4,28.4,0,0,1-1.911-4.544c-.129-1.028-1.931-2.053-2.23-3.368s-.717-3.891-1.367-3.878c-.54.011-2.355,2.378-1.523,5.855a39.1,39.1,0,0,0,2.074,6.236Z" transform="translate(-735.391 -489.189)"/><path class="i" d="M749.149,516.833a17.539,17.539,0,0,1-4.149-.427,15.729,15.729,0,0,1-3.926-2.9c-.228-.593.107-.866.121-1.093.009-.134-.1-.253-.5-.412h0c-1.09-.43-2.937-2.293-2.343-2.981a4.276,4.276,0,0,1,.962-.8h0a5.237,5.237,0,0,1,.579-.318s-.475-.42-.938-.844l-.025-.02-.276-.255a2.424,2.424,0,0,1-.425-2.44,16.837,16.837,0,0,1,2.029-1.506c-.737-.084-1.534-.78-1.306-1.557a7.188,7.188,0,0,1,2.757-2.96c.951-.412,6.91-.832,6.91-.832Z" transform="translate(-738.045 -485.818)"/><path class="g" d="M767.736,509.178a41.328,41.328,0,0,1-5.945-1.9,22.116,22.116,0,0,1-2.146-1.019,9.7,9.7,0,0,1-2.417-1.77c-2.718-2.93-9.528-7.381-10.94-6.994-.8.221-2.663,1.173-2.49,2.247.115.721,1.107.9,1.526,1.5a1.855,1.855,0,0,1-.037,1.787,6.034,6.034,0,0,0-.686,1.731c-.172,1.578,1.611,3.06,1.018,4.533a5.168,5.168,0,0,1-.986,1.266,1.471,1.471,0,0,0-.388,1.476,4.832,4.832,0,0,0,.541.7c.716,1.024-.188,2.946.938,3.751.983.7,4.431.426,5.457.3.173-.021.392-.062.637-.114a23.347,23.347,0,0,0,4.109-1.361c.385-.162.772-.267.963-.156,2.53,1.476,9.472,7.43,9.473,7.4S767.736,509.178,767.736,509.178Z" transform="translate(-735.714 -485.825)"/><path class="g" d="M743.346,508.479a19.459,19.459,0,0,1-2.816-.246c-.034-.007-.066-.01-.1-.014.008-.134-.1-.253-.5-.412C741.314,508.123,743.346,508.479,743.346,508.479Z" transform="translate(-737.281 -481.628)"/><path class="g" d="M740.9,505.05c.539.1.972.17,1.315.211a10.989,10.989,0,0,0-3.162.194,5.234,5.234,0,0,1,.579-.318s-.475-.42-.938-.844A5.856,5.856,0,0,0,740.9,505.05Z" transform="translate(-737.783 -483.055)"/><path class="g" d="M742.267,505.038a5.66,5.66,0,0,1-1.072-.056C741.813,505,742.267,505.038,742.267,505.038Z" transform="translate(-736.766 -482.775)"/></g><path class="c" d="M825.938,591.859c-2.545,4.949-5.034,8.352-7.326,9.28a.862.862,0,0,0-.169.07c-20.29-11.544-39.54-41.241-49.326-58.171-4.289-7.382-6.763-12.332-6.763-12.332l70.8,24.2,5.639,1.926S831.689,592.983,825.938,591.859Z" transform="translate(-603.226 -326.355)"/><path class="e" d="M766.547,432.139" transform="translate(-601.523 -366.384)"/><path class="e" d="M754.835,521.051c.148-.735,6.552-15.754,7.912-17.443s40.284-5.955,107.345,47.02l37.044,23.348s.447,12.346-15.438,21.352c-15.962,9.051-48.31,14.739-69.847,5.3-42.968-18.835-67.016-77.658-67.016-77.658Z" transform="translate(-606.279 -337.706)"/></g><g transform="translate(593.33 542.795)"><g transform="translate(190.778 66.8)"><path class="j" d="M708.023,547.022h0a.628.628,0,0,0,.371-.8l-.509-1.382-1.174.432.509,1.382A.628.628,0,0,0,708.023,547.022Z" transform="translate(-706.711 -544.837)"/></g><g transform="translate(184.242 69.198)"><path class="j" d="M703.369,548.738h0a.626.626,0,0,0,.371-.8l-.509-1.382c-.034-.093-1.168.444-1.168.444l.5,1.37A.627.627,0,0,0,703.369,548.738Z" transform="translate(-702.063 -546.542)"/></g><g transform="translate(190.818 65.99)"><path class="k" d="M708.138,546.985h0a.627.627,0,0,0,.371-.8l-.557-1.513a.628.628,0,0,0-.8-.37h0a.626.626,0,0,0-.37.8l.557,1.513A.627.627,0,0,0,708.138,546.985Z" transform="translate(-706.74 -544.26)"/></g><g transform="translate(184.29 68.393)"><path class="k" d="M703.495,548.7h0a.627.627,0,0,0,.371-.8l-.557-1.513a.629.629,0,0,0-.8-.371h0a.628.628,0,0,0-.371.8l.557,1.513A.627.627,0,0,0,703.495,548.7Z" transform="translate(-702.097 -545.97)"/></g><g transform="translate(189.943 83.151)"><rect class="l" width="4.101" height="2.659" transform="translate(0 1.417) rotate(-20.217)"/></g><g transform="translate(188.189 78.754)"><rect class="l" width="4.101" height="2.659" transform="translate(0 1.417) rotate(-20.217)"/></g><g transform="translate(0 112.279)"><path class="m" d="M576.1,631.028h208.3c2.313,0,4.755-1.167,5-4.564v-3.121l-22.8-42.131a7.256,7.256,0,0,0-6.5-4.03h-159.4c-2.975,0-9.533,5.858-10.864,8.52l-18.809,38.346v1.377C570.987,629.416,573.568,631.028,576.1,631.028Z" transform="translate(-571.033 -577.181)"/></g><g transform="translate(0.001 107.868)"><path class="n" d="M576.087,627.891h208.3c2.313,0,6.121-2.029,4.691-4.522L766.59,578.074a7.26,7.26,0,0,0-6.5-4.03h-159.4a7.851,7.851,0,0,0-7.023,4.342L571.4,622.93C569.843,625.77,573.55,627.891,576.087,627.891Z" transform="translate(-571.033 -574.044)"/></g><g transform="translate(25.008)"><rect class="n" width="170.582" height="107.79" rx="4.435"/></g><g transform="translate(31.619 5.879)"><rect class="m" width="157.423" height="93.401"/></g><g transform="translate(77.813 140.792)"><path class="m" d="M627.57,616.422h61.378a1.107,1.107,0,0,0,1.092-1.281l-2.589-16.167a1.8,1.8,0,0,0-1.774-1.514h-55.36a1.581,1.581,0,0,0-1.564,1.353l-2.372,16.257A1.2,1.2,0,0,0,627.57,616.422Z" transform="translate(-626.372 -597.459)"/></g><g transform="translate(23.428 115.322)"><path class="o" d="M590.952,601.481H757.717c1.85,0,3.261-.712,2.968-1.5l-7.032-18.874c-.378-1.018-2.423-1.766-4.823-1.766H598.415c-2.132,0-3.94.671-4.248,1.578l-6.446,18.98C587.47,600.739,588.987,601.481,590.952,601.481Z" transform="translate(-587.695 -579.345)"/></g><g transform="translate(22.989 111.108)"><g transform="translate(0 7.466)"><rect class="n" width="173.908" height="0.878" transform="translate(173.908 0.878) rotate(-180)"/></g><g transform="translate(0 11.857)"><rect class="n" width="173.908" height="0.878" transform="translate(173.908 0.878) rotate(-180)"/></g><g transform="translate(0 17.127)"><rect class="n" width="173.908" height="0.878" transform="translate(173.908 0.878) rotate(-180)"/></g><g transform="translate(0 21.958)"><rect class="n" width="173.908" height="0.878" transform="translate(173.908 0.878) rotate(-180)"/></g><g transform="translate(151.59 0.469)"><rect class="n" width="1.317" height="28.985" transform="translate(9.943 27.652) rotate(162.561)"/></g><g transform="translate(138.854 0.469)"><rect class="n" width="1.317" height="28.985" transform="translate(9.943 27.652) rotate(162.561)"/></g><g transform="translate(128.753 0.469)"><rect class="n" width="1.317" height="28.985" transform="translate(9.943 27.652) rotate(162.561)"/></g><g transform="translate(118.653 0.469)"><rect class="n" width="1.317" height="28.985" transform="translate(9.943 27.652) rotate(162.561)"/></g><g transform="translate(108.113 0.469)"><rect class="n" width="1.317" height="28.985" transform="translate(9.943 27.652) rotate(162.561)"/></g><g transform="translate(97.381 0.14)"><rect class="n" width="1.317" height="28.985" transform="translate(6.813 28.454) rotate(169.022)"/></g><g transform="translate(88.272 0)"><rect class="n" width="1.317" height="28.985" transform="translate(1.317 28.985) rotate(-180)"/></g><g transform="translate(11.497 0.469)"><rect class="n" width="1.317" height="28.985" transform="translate(1.257 28.047) rotate(-162.561)"/></g><g transform="translate(23.793 0.469)"><rect class="n" width="1.317" height="28.985" transform="translate(1.257 28.047) rotate(-162.561)"/></g><g transform="translate(36.09 0.469)"><rect class="n" width="1.317" height="28.985" transform="translate(1.257 28.047) rotate(-162.561)"/></g><g transform="translate(48.386 0.469)"><rect class="n" width="1.317" height="28.985" transform="translate(1.257 28.047) rotate(-162.561)"/></g><g transform="translate(60.683 0.469)"><rect class="n" width="1.317" height="28.985" transform="translate(1.257 28.047) rotate(-162.561)"/></g><g transform="translate(72.98 0.469)"><rect class="n" width="1.317" height="28.985" transform="translate(1.257 28.047) rotate(-162.561)"/></g></g><rect class="p" width="158.324" height="93.401" transform="translate(31.619 5.879)"/><path class="q" d="M669.669,582.347c-5.024,0-9.56-.08-13.821-.2l-1.409-.044c-.291-.027-.582-.055-.873-.077-2.194-.172-3.138,2.191-5.028,2.545-2.833.354-5.314-3.189-8.044-1.2-.361.2-.713.408-1.062.627a58.958,58.958,0,0,0-4.948,3.761c-.354.236-1.181.236-1.417-.236a14.131,14.131,0,0,1-.2-2.977c-.008-.349-.024-.692-.059-1.018-.094-.848-.33-1.675-1.039-1.911-3.543-1.3-6.5,1.772-9.92,2.48a1.06,1.06,0,0,1-.869-.547c-1.848-1.7-3.974.429-5.745,1.137a1.037,1.037,0,0,1-.827-.118c-1.535-1.3-2.48-4.252-4.37-3.543-.709.236-.236,2.6-1.536,3.307a4.3,4.3,0,0,1-1.191.218c-2.768.12-5.482-2.269-8.376-2.58.354-1.535,1.654-3.071,1.536-4.487-.415-6.824-1.125-13.648-1.507-20.512-.013-.374-.024-.64-.037-.92a27.6,27.6,0,0,1,.066-8.392c.041-.4.082-.811.12-1.216.177-4.983.413-9.944-.766-14.9-.177-.8.575-1.461,1.012-2.141a1.7,1.7,0,0,0,.285-.692c.236-2.244-1.652-3.9-1.77-6.024a1.3,1.3,0,0,1,.354-1.417c1.534-1.535,4.015-1.654,5.294-3.448a3.068,3.068,0,0,0,.216-1.017c.079-1.389-.472-2.859-.551-4.276,0-.472.354-.945.709-.945,2.835-.827,5.669.118,8.3-1.161.406-.153.809-.3,1.219-.429a16.992,16.992,0,0,1,3.773-.831c.245-.11.5-.215.762-.307.411-.148.838-.292,1.267-.427a27.4,27.4,0,0,1,4.391-.991c.745-.1,1.495-.176,2.234-.222.844-.12,1.67-.71,2.5-.828a18.831,18.831,0,0,0,3.543-.707,6.423,6.423,0,0,1,2.126,0c4.488.707,8.74,1.888,13.178,2.087l1.323.006q1.983.008,3.967,0c.329-.017.586-.023.851-.029,1.7-.059,3.476-.177,5.13-.3q.658-.025,1.313-.035t1.306-.007c2.223.278,3.4-2.555,5.294-2.673,2.717-.118,4.6,3.306,7.656,3.039.434-.006.869-.014,1.306-.028s.873-.034,1.312-.059c7.087-.354,14.055,1.063,21.141.591,4.488-.236,8.858-1.181,13.347-1.535,3.78-.118,7.323,1.063,11.1,1.417a58.706,58.706,0,0,0,12.745-.216c.384-.006.806-.006,1.228-.006.315,0,.631,0,.952-.006a10.866,10.866,0,0,0,1.822-.332,2.044,2.044,0,0,1,1.679.205c1.3.945.709,2.717.591,4.134-.032.43-.063.859-.091,1.289s-.053.858-.077,1.288c.051.612-.186,1.32.169,1.793,2.361,2.835,1.652,5.788.118,8.74a3.608,3.608,0,0,0-.522,2.351c.006.429.01.859.017,1.288.055,3.865.172,7.731.269,11.6.118,1.772-.472,3.661-.472,5.433a4.438,4.438,0,0,0,.117,1.263c.474,1.69,2.6,1.808,3.425,3.226.472.945-.118,1.89-.591,2.717-1.3,2.007-2.951,3.66-2.919,6.017-.006.444,0,.885.006,1.325.051,3.958.114,7.918.143,11.9q.013.415.027.832c.008.277.018.554.028.832,0,1.535,1.3,3.189.236,4.487-1.654,2.244-3.78,4.252-6.759,4.048h-8.24A10.229,10.229,0,0,0,725,582.4c-2.289.283-2.88,2.645-3.825,4.417a1.243,1.243,0,0,1-2.008.354c-1.77-1.772-3.188-4.843-6.024-4.54-.354.049-.709.1-1.063.155-1.416.211-2.833.435-4.251.54-.394.03-.787.051-1.181.059-2.79-.2-5.581-.949-8.37-1.132-.4-.027-.8-.042-1.2-.042-2.6,0-3.778,2.717-5.432,4.37-.354.354-.827.709-1.3.472-1.89-.945-2.244-3.661-4.335-4.381a3.413,3.413,0,0,0-1.27-.183c-5.51.029-10.938.5-16.6-.751a3.534,3.534,0,0,0-.886-.044c-.3.014-.592.044-.894.044a3.127,3.127,0,0,1,.862-.426c1.462-.463,3.1.21,4.578.308-.236.236-.472.236-.754.36C670.724,582.07,670.274,582.191,669.669,582.347Z" transform="translate(-560.16 -494.326)"/><g transform="translate(81.911 15.867)"><path class="r" d="M678.632,526.085c.216.984.463,1.963.641,2.953a1.375,1.375,0,0,0,.951,1.057,9.183,9.183,0,0,1,3.467,2.433,1.328,1.328,0,0,0,1.606.354,12.556,12.556,0,0,0,4.245-1.917c.333-.249.738-.565,1.074-.1s-.093.756-.425,1a9.9,9.9,0,0,1-3.932,1.921c-.53.1-1.132.3-1.147.929-.027,1.046.392,2.056.4,3.106.008.842.537,1.133,1.33,1.138.825.006,1.652.032,2.479.059.371.013.806.024.806.526,0,.48-.411.562-.792.56a17.618,17.618,0,0,1-2.887-.094,1.3,1.3,0,0,0-1.746.938,13.609,13.609,0,0,1-5.575,6.291c-.592.384-.645.589-.472,1.406.208.991-.052,2.127.524,2.686.347.335,1.357.172,1.938.453,2.019.977,1.488,4.359-.619,5.276-.714.311-1.434.6-2.151.906a27.721,27.721,0,0,1-4.685.665,17.059,17.059,0,0,1-3.76-.733c-.5-.179-.928-.205-.908.513.1,3.733-1.762,7.2-1.459,10.968.1,1.182.094,2.371.136,3.557-.1.766.216,1.2,1.012,1.229l.557.1a4.958,4.958,0,0,1,3.234,1.824,3.092,3.092,0,0,1-.152,3.413c-.9.95-2.762.887-3.958.943a19.246,19.246,0,0,1-4.1-.274c-1.538-.259-2.663-.953-2.777-2.627-.082-1.208.242-2.4.2-3.608a16.209,16.209,0,0,0-.307-2.6c-.089-.446-.194-.887-.314-1.326-.076-.28-.437-.96-.378-1.227a34.612,34.612,0,0,0-.814,8.133,4.17,4.17,0,0,1-.472,2.385,3.155,3.155,0,0,1-2.246,1.156,14.484,14.484,0,0,1-5.7-.146c-1.316-.315-2.22-1.022-2.209-2.454.011-1.4.481-2.936,1.953-3.393.683-.214,1.658-.063,2.188-.64a3.177,3.177,0,0,0,.5-2.165c0-.869.037-1.737.028-2.606,0-.315-.024-.96-.551-.631a16.577,16.577,0,0,1-4.362,1.734c-4.688,1.337-10.176,1.524-14.266-1.509a11.374,11.374,0,0,1-3.56-4.654,6.974,6.974,0,0,1-.214-5.234c.74-1.613,2.577-1.714,3.927-.811,1.672,1.118,3.182,2.477,4.774,3.719a11.679,11.679,0,0,0,4.21,2.275,7.188,7.188,0,0,0,4.467.063c-.309-.458-.845-.488-1.285-.613-3.8-1.081-4.127-4.165-3.546-6.7a11.122,11.122,0,0,1,3.729-5.974c.966-.838.734-1.131-.271-1.638-4.079-2.061-7.938-5.385-9.466-9.815-.229-.662-.75-.585-1.244-.516a25.091,25.091,0,0,1-5.208,0c-.512-.036-1.018-.059-1.289-.6-.155-.308.3-.5.48-.539a3.758,3.758,0,0,1,1.15.032,23.516,23.516,0,0,0,4.748.028c1.7-.169.668-3.273-.364-3.815a28.475,28.475,0,0,0-5.72-2.348c-.4-.108-.9-.228-.752-.78.15-.568.655-.385,1.038-.277a26.376,26.376,0,0,1,5.5,2.148c.852.468,1.167.374,1.342-.607a18.5,18.5,0,0,1,3-7.192,5.456,5.456,0,0,0,.512-3.861,39.239,39.239,0,0,0-.567-4.815,36.16,36.16,0,0,0-.555-4.379c-.073-.581-.529-2.642.7-2.292a7.909,7.909,0,0,1,1.909,1.289c.711.489,1.436.959,2.165,1.42,1.1.7,2.216,1.376,3.314,2.08.876.561,1.663,1.282,2.77.918a21.32,21.32,0,0,1,5.3-.969,19.2,19.2,0,0,1,2.545-.028,8.246,8.246,0,0,0,2.694-.059,7.409,7.409,0,0,0,3.1-2.212q.913-.9,1.825-1.8c.651-.645,1.3-1.45,2.3-1.469a.927.927,0,0,1,.716.276,2.046,2.046,0,0,1,.3,1.076c.342,2.195,1.042,4.284,1.523,6.443.117.519.654.742,1.041,1.052a20.466,20.466,0,0,1,5.979,6.673Zm-3-3.071.072.044-.089-.027c-.045-.069.093-.26-.138-.209ZM640.26,563.771c-.789-1.1-2.039-1.658-3-2.562a14.538,14.538,0,0,0-3.161-2.417,1.419,1.419,0,0,0-2.289,1.017,3.922,3.922,0,0,0-.111,1.493,9.314,9.314,0,0,0,5.557,7.475,2.185,2.185,0,0,0,.44.311c5.474,2.057,10.529.682,15.431-1.9a.949.949,0,0,0,.491-.908c.052-1.707-.987-2.416-2.68-1.651-3.233,1.458-6.335.979-9.419-.422C641.115,564.019,640.772,563.642,640.26,563.771Zm11.385-14.3a.851.851,0,0,0,.931.328,21.3,21.3,0,0,0,2.116.572,37.887,37.887,0,0,0,19.993-2.1c3.656-1.389,6.828-3.545,8.742-7.163.494-.935.78-1.676-.69-1.9-.43-.066-1.176-.187-.911-.9.26-.7.846-.208,1.306-.135.408.065.977.588,1.2-.031a4.423,4.423,0,0,0-.331-3.071c-.319-.848-.963-.456-1.513-.437-.394.013-.913.2-1.028-.36-.134-.651.425-.693.879-.772.173-.029.368-.028.343-.347a8.53,8.53,0,0,0-3.375-2.206c-.464-.2-.972-.321-1.073-.928a13.66,13.66,0,0,0-2.1-6.135,12.531,12.531,0,0,1,.852,5.218c-.986,2.821-2.67,3.773-5.271,2.915a20.389,20.389,0,0,1-2.1-.951c-.51-.526-1.036-1.039-1.53-1.581a9.679,9.679,0,0,1-2.8-6.974c.1-3.127,2.23-4.665,5.211-3.806.281.08.54.359,1.069.03-2.421-1.268-2.192-3.739-2.833-5.82-.135-.437-.19-.9-.333-1.334-.163-.5-.024-1.264-.612-1.42-.489-.129-.811.51-1.17.851q-1.251,1.183-2.465,2.4a5.932,5.932,0,0,1-4.937,1.9,17.564,17.564,0,0,0-8.189.948c.079.465.434.554.662.762s.551.436.352.8c-.238.429-.622.3-.956.114-.319-.179-.619-.4-.924-.6-2.673-1.784-5.339-3.576-8.022-5.345-.357-.236-.724-.78-1.174-.477-.343.231-.1.772-.059,1.175.374,3.373.726,6.751,1.152,10.118a2.637,2.637,0,0,1-.495,1.912,22.1,22.1,0,0,0-3.265,7.24c-.212.942-.5,1.872.623,2.539.454.27.567.8-.173.962-.346.076-.811-.067-.78.494.03.523-.082,1.153.6,1.4.38.136.816.4.5.755-.876.981-.15,1.741.281,2.469a19.915,19.915,0,0,0,11.238,8.805,1.521,1.521,0,0,0,1.073.093Zm16.218,7.569a21.449,21.449,0,0,0-.208-4.39c-.194-.861-.456-1.209-1.465-1.066a34.2,34.2,0,0,1-15.791-1.1c-.4-.132-.813-.283-1.182.017-2.606,2.112-4.739,4.521-4.795,8.124a3.11,3.11,0,0,0,1.564,3.027,13.836,13.836,0,0,0,5.369,1.618c1.119.087,2.139-.1,2.472-1.427.406-1.62.052-2.475-1.419-3.133-.793-.354-1.642-.579-2.466-.862-.269-.091-.529-.205-.582-.517-.041-.247.08-.537.314-.534,1.443.023,1.61-1.3,2.274-2.1.281-.337.464-.92,1.038-.672.527.228.149.706.155,1.088.017.963-.487,2.026.394,2.853,1.749,1.645,2.022,2.754,1.092,4.989a2.193,2.193,0,0,0-.208,1.455,23.463,23.463,0,0,1,.415,9.022,1.255,1.255,0,0,0,.062.925c.636,1.026-.039,1.022-.792,1.005a13.111,13.111,0,0,0-2.194.068c-1.234.181-1.362,1.142-1.443,2.167-.077,1.01.454,1.409,1.316,1.593a13.351,13.351,0,0,0,5.47.08,1.66,1.66,0,0,0,1.517-1.815,87.665,87.665,0,0,1,.714-9.868c.111-1.306.539-1.208,1.441-1.215,4.422-.035,6.5-1.935,6.925-6.309C667.947,559.065,667.864,558.047,667.864,557.037Zm8.013-29.728a9.185,9.185,0,0,0-5.212-7.291c-2.444-1.209-4.554.225-4.3,2.953a9.3,9.3,0,0,0,5.063,7.69C673.969,532.024,675.928,530.728,675.877,527.31ZM662.7,574.953a10.077,10.077,0,0,1-.017,1.786c-.256,1.408.406,2.037,1.69,2.3a14.062,14.062,0,0,0,4.793.15c.967-.135,2.535.343,2.566-1.5.023-1.377-.733-2.016-2.575-2.255a6.262,6.262,0,0,0-.685-.065c-.686-.015-1.5.215-2.03-.073-.99-.533.266-1.177.142-1.9a20.722,20.722,0,0,1-.058-6.438c.124-.876-.253-.934-.921-.513a5.8,5.8,0,0,1-2.587.88c-1.057.09-1.306.478-1.01,1.5A17.438,17.438,0,0,1,662.7,574.953Zm6.249-20.829c.232.793-.554,2.036.931,2.572a12.613,12.613,0,0,0,7.708.253c.583-.155.745-.378.367-.953-.541-.82-1.052-1.846-.439-2.7.887-1.232.333-2.428.3-3.649-.007-.28-.051-.585-.416-.588-.332,0-.468.29-.516.554a2.85,2.85,0,0,0-.024.952c.2,1.225-.439,1.786-1.528,2.021a11.706,11.706,0,0,1-4.643-.11C668.907,552.147,668.91,552.139,668.948,554.124Zm.824-3.067a10.542,10.542,0,0,0,5.34.422c1.124-.257.764-1.268,1.034-1.945.34-.855-1.185-.1-1.558.013C673.062,549.989,671.553,550.492,669.772,551.057Zm11.4,3.074c-.074-.845-.318-1.693-1.243-1.727-1-.037-1.42.863-1.408,1.7.011.863.339,1.9,1.408,1.863C680.891,555.936,681.1,554.983,681.167,554.131Z" transform="translate(-629.286 -508.614)"/><path class="s" d="M664.691,525.143a20.368,20.368,0,0,0,2.1.951c2.6.858,4.286-.094,5.272-2.915l1.244.917c.1.607.609.733,1.073.928a8.53,8.53,0,0,1,3.375,2.206c.025.319-.17.318-.343.347-.454.079-1.012.121-.879.772.115.562.634.373,1.028.36.55-.018,1.194-.411,1.513.437a4.423,4.423,0,0,1,.331,3.071c-.222.619-.792.1-1.2.031-.46-.073-1.046-.562-1.306.135-.264.713.481.834.911.9,1.471.228,1.184.969.69,1.9-1.914,3.618-5.086,5.774-8.742,7.163a37.887,37.887,0,0,1-19.993,2.1,21.448,21.448,0,0,1-2.118-.572c-.27-.224-.526-.484-.929-.328h.024c-.021-.4-.383-.481-.629-.654a10.612,10.612,0,0,1-4.649-9.943,4.072,4.072,0,0,1,2.371-3.588,11.184,11.184,0,0,1,2.621-.78c3.622,1.358,5.118,1.09,7.288-1.309a9.535,9.535,0,0,0,3.036.411c.371,1.436,1.521,2.112,2.7,2.742a2.759,2.759,0,0,0,3.536-.3,3.556,3.556,0,0,0,1.118-4.051Zm-8.818,15.079a5.827,5.827,0,0,0,3.893-1.475c.9-.811.814-1.229-.347-1.537-2.61-.693-5.231-1.34-7.845-2.009-.35-.09-.714-.29-1.028.032-.354.363-.139.771-.013,1.156A5.721,5.721,0,0,0,655.874,540.222Z" transform="translate(-624.354 -502.699)"/><path class="t" d="M648.874,534.064a11.182,11.182,0,0,0-2.621.78,4.072,4.072,0,0,0-2.371,3.588,10.612,10.612,0,0,0,4.649,9.943c.246.173.607.256.628.654a1.521,1.521,0,0,1-1.073-.093,19.915,19.915,0,0,1-11.238-8.805c-.432-.728-1.157-1.488-.281-2.469.319-.359-.117-.619-.5-.755-.683-.245-.572-.875-.6-1.4-.031-.561.435-.418.78-.494.74-.166.627-.692.173-.962-1.125-.668-.835-1.6-.623-2.539a22.1,22.1,0,0,1,3.265-7.24,2.638,2.638,0,0,0,.495-1.912c-.426-3.368-.778-6.745-1.152-10.118-.045-.4-.284-.945.059-1.175.45-.3.817.24,1.174.477,2.683,1.769,5.349,3.56,8.022,5.345.305.2.6.42.924.6.335.19.719.315.956-.114.2-.363-.113-.582-.352-.8s-.584-.3-.662-.762a17.563,17.563,0,0,1,8.189-.948,5.932,5.932,0,0,0,4.937-1.9q1.215-1.219,2.465-2.4c.359-.34.681-.98,1.17-.851.588.156.448.92.612,1.42.143.435.2.9.333,1.334.641,2.081.412,4.552,2.833,5.82-.529.329-.787.051-1.069-.03-2.981-.859-5.114.679-5.211,3.806a9.679,9.679,0,0,0,2.8,6.974c.494.541,1.019,1.055,1.53,1.581-.187.314-.373.627-.56.942-2.185-.484-4.329.3-6.509.231-.647-.022-.865.721-.848,1.374a9.519,9.519,0,0,1-3.034-.411c2.144-4.886-.906-9.442-3.888-11.152-1.988-1.139-4.085-1.527-6.074-.081-1.921,1.4-2.251,3.458-1.91,5.662A10.22,10.22,0,0,0,648.874,534.064Z" transform="translate(-626.776 -508.174)"/><path class="t" d="M663.492,544.989c0,1.01.083,2.028-.014,3.029-.42,4.374-2.5,6.274-6.925,6.309-.9.007-1.33-.091-1.441,1.215a87.665,87.665,0,0,0-.714,9.868,1.66,1.66,0,0,1-1.517,1.815,13.351,13.351,0,0,1-5.47-.08c-.862-.184-1.393-.584-1.316-1.593.08-1.025.208-1.985,1.443-2.167a13.11,13.11,0,0,1,2.193-.068c.752.017,1.427.021.792-1.005a1.255,1.255,0,0,1-.062-.925,23.463,23.463,0,0,0-.415-9.022,2.193,2.193,0,0,1,.208-1.455c.929-2.234.657-3.344-1.093-4.989-.88-.827-.377-1.89-.394-2.853-.006-.382.373-.861-.155-1.088-.574-.247-.757.335-1.038.672-.664.8-.831,2.122-2.274,2.1-.233,0-.354.287-.313.534.053.312.313.426.582.517.824.283,1.673.508,2.466.862,1.471.658,1.825,1.513,1.419,3.133-.333,1.33-1.353,1.514-2.472,1.427a13.837,13.837,0,0,1-5.369-1.618,3.11,3.11,0,0,1-1.564-3.027c.056-3.6,2.189-6.012,4.795-8.124.37-.3.783-.149,1.183-.017a34.2,34.2,0,0,0,15.791,1.1c1.01-.143,1.271.205,1.465,1.066A21.449,21.449,0,0,1,663.492,544.989Zm-9.994,1.586a12.763,12.763,0,0,0,.351,3.345c.6,1.869,2,2.736,4.293,2.656a3.5,3.5,0,0,0,3.731-2.978,18.48,18.48,0,0,0,.055-6.288A2.334,2.334,0,0,0,660,541.255c-4.4-1.1-6.51.512-6.5,4.989Z" transform="translate(-624.915 -496.566)"/><path class="t" d="M638.088,547.849c.512-.129.855.247,1.258.432,3.085,1.4,6.187,1.88,9.419.422,1.693-.765,2.732-.056,2.68,1.651a.95.95,0,0,1-.491.908c-4.9,2.586-9.957,3.961-15.431,1.9a2.184,2.184,0,0,1-.44-.311c-.837-2.524-.565-3.432,1.341-4.438A4.2,4.2,0,0,1,638.088,547.849Z" transform="translate(-627.114 -492.691)"/><path class="s" d="M665.175,524.141c.051,3.418-1.908,4.715-4.45,3.352a9.3,9.3,0,0,1-5.063-7.69c-.253-2.728,1.857-4.162,4.3-2.953A9.185,9.185,0,0,1,665.175,524.141Zm-1.046-1.226c-.055-.9-.472-1.484-1.407-1.5-.828-.016-1.23.494-1.247,1.3-.017.891.356,1.535,1.306,1.572C663.656,524.315,664.076,523.765,664.128,522.915Z" transform="translate(-618.584 -505.445)"/><path class="t" d="M653.282,558.323a17.439,17.439,0,0,0-.69-6.122c-.3-1.025-.048-1.413,1.01-1.5a5.8,5.8,0,0,0,2.587-.88c.668-.42,1.045-.363.921.513a20.72,20.72,0,0,0,.058,6.438c.124.724-1.132,1.368-.142,1.9.533.288,1.344.058,2.03.073a6.261,6.261,0,0,1,.685.065c1.842.239,2.6.879,2.575,2.255-.031,1.842-1.6,1.364-2.566,1.5a14.062,14.062,0,0,1-4.793-.15c-1.284-.266-1.946-.9-1.69-2.3A10.077,10.077,0,0,0,653.282,558.323Z" transform="translate(-619.869 -491.984)"/><path class="s" d="M639.572,549.358a4.2,4.2,0,0,0-1.662.568c-1.907,1.005-2.178,1.914-1.341,4.438a9.314,9.314,0,0,1-5.557-7.475,3.923,3.923,0,0,1,.111-1.493,1.419,1.419,0,0,1,2.289-1.017,14.535,14.535,0,0,1,3.161,2.417C637.533,547.7,638.784,548.259,639.572,549.358Z" transform="translate(-628.598 -494.201)"/><path class="t" d="M657.5,542.442c-.038-1.985-.041-1.977,1.744-1.647a11.708,11.708,0,0,0,4.643.11c1.09-.235,1.73-.8,1.528-2.021a2.851,2.851,0,0,1,.024-.952c.048-.264.184-.555.516-.554.366,0,.409.308.416.588.029,1.22.583,2.417-.3,3.649-.613.852-.1,1.879.439,2.7.378.575.216.8-.367.953a12.613,12.613,0,0,1-7.708-.253C656.942,544.478,657.728,543.235,657.5,542.442Z" transform="translate(-617.834 -496.932)"/><path class="t" d="M666.949,541.484c-.062.852-.276,1.805-1.243,1.841-1.069.041-1.4-1-1.408-1.863-.013-.841.405-1.741,1.408-1.7C666.631,539.791,666.874,540.639,666.949,541.484Z" transform="translate(-615.068 -495.967)"/><path class="t" d="M664.7,525.6l-1.244-.917a12.531,12.531,0,0,0-.852-5.218A13.661,13.661,0,0,1,664.7,525.6Z" transform="translate(-615.755 -504.206)"/><path class="t" d="M645.188,537.683c.4-.156.659.1.929.328A.85.85,0,0,1,645.188,537.683Z" transform="translate(-622.829 -496.828)"/><path class="t" d="M662.294,518.913l-.155-.193c.231-.051.093.141.138.209Z" transform="translate(-615.945 -504.513)"/><path class="t" d="M662.237,518.872l.089.027-.072-.044Z" transform="translate(-615.905 -504.455)"/><path class="r" d="M646.36,530.919a10.22,10.22,0,0,1-4.583-6.88c-.342-2.2-.011-4.266,1.91-5.662,1.99-1.446,4.086-1.057,6.074.081,2.982,1.71,6.032,6.266,3.888,11.152C651.478,532.009,649.982,532.277,646.36,530.919Zm6.924-4.871a8.472,8.472,0,0,0-4.424-6.77,3.864,3.864,0,0,0-6.053,3.8A8.147,8.147,0,0,0,647.323,530C650.4,531.649,653.247,529.874,653.283,526.048Z" transform="translate(-624.262 -505.03)"/><path class="r" d="M652.344,526.9c-.017-.653.2-1.4.848-1.374,2.179.07,4.324-.714,6.509-.231a3.556,3.556,0,0,1-1.118,4.051,2.759,2.759,0,0,1-3.536.3C653.866,529.008,652.715,528.332,652.344,526.9Z" transform="translate(-619.923 -501.905)"/><path class="r" d="M653.3,536.79a5.717,5.717,0,0,1-5.339-3.832c-.127-.385-.342-.793.013-1.156.314-.322.678-.122,1.028-.032,2.614.669,5.235,1.316,7.844,2.009,1.162.308,1.243.726.347,1.537A5.818,5.818,0,0,1,653.3,536.79Zm-3.891-3.754a4.122,4.122,0,0,0,6.484,1.658Z" transform="translate(-621.777 -499.268)"/><path class="s" d="M649.614,545.813v-.332c-.011-4.477,2.1-6.09,6.5-4.989a2.334,2.334,0,0,1,1.931,2.056,18.479,18.479,0,0,1-.055,6.288,3.5,3.5,0,0,1-3.73,2.978c-2.293.08-3.692-.787-4.293-2.656A12.764,12.764,0,0,1,649.614,545.813Z" transform="translate(-621.031 -495.803)"/><path class="r" d="M662.444,521.472c-.052.851-.472,1.4-1.349,1.368-.95-.037-1.323-.68-1.306-1.572.017-.8.419-1.313,1.247-1.3C661.971,519.988,662.389,520.575,662.444,521.472Z" transform="translate(-616.899 -504.002)"/><path class="s" d="M652.957,525.721c-.037,3.826-2.887,5.6-5.961,3.957a8.147,8.147,0,0,1-4.516-6.925,3.864,3.864,0,0,1,6.053-3.8A8.472,8.472,0,0,1,652.957,525.721Zm-1.121-1.343c-.034-.908-.42-1.474-1.312-1.495s-1.334.509-1.336,1.385c0,.846.371,1.444,1.28,1.451A1.3,1.3,0,0,0,651.836,524.378Z" transform="translate(-623.935 -504.702)"/><path class="s" d="M648.936,532.629l6.484,1.658A4.122,4.122,0,0,1,648.936,532.629Z" transform="translate(-621.307 -498.861)"/><path class="r" d="M649.894,523.039a1.3,1.3,0,0,1-1.368,1.341c-.908-.007-1.281-.6-1.28-1.451,0-.876.437-1.406,1.336-1.385S649.86,522.13,649.894,523.039Z" transform="translate(-621.993 -503.363)"/><path class="t" d="M658.533,516.121a11.458,11.458,0,0,1,6.792,6.751l.219-.259a14.081,14.081,0,0,0-6.687-7.348C654.787,513.242,658.533,516.121,658.533,516.121Z" transform="translate(-618.048 -506.205)"/></g></g></g></svg>