<svg xmlns="http://www.w3.org/2000/svg" width="60.13" height="60.49" viewBox="0 0 60.13 60.49"><g transform="translate(-4.697 -4.582)"><path d="M16.181,13.795s19.754-18.044,37.05-3.629,11,43.883,7.8,48.048S53.659,65.367,35.4,65.048,3.688,55.544,4.756,36.324C4.756,36.324,5.4,24.9,16.181,13.795Z" transform="translate(0 0)" fill="#dc6c85"/><g transform="translate(34.394 20.037)"><path d="M30.417,14.544a.676.676,0,0,1,.243.164A2.482,2.482,0,0,1,31.2,17.3a1.783,1.783,0,0,1-.57.688.8.8,0,0,1-1.146-.215,2.647,2.647,0,0,1-.4-2.316C29.229,14.948,29.889,14.343,30.417,14.544Z" transform="translate(-20.858 -14.505)" fill="#fff"/><path d="M34.961,18.63v0a1.471,1.471,0,0,1-.168.354c-.321.544-.74,1.139-1.458.833a.978.978,0,0,1-.576-.989,1.57,1.57,0,0,1,.695-1.361A1.013,1.013,0,0,1,34.961,18.63Z" transform="translate(-18.749 -12.951)" fill="#fff"/><path d="M37.616,24.97a20.945,20.945,0,0,1-1.916,8.3,5.29,5.29,0,0,1-1.994,2.476,4.129,4.129,0,0,1-3.473.374,1.936,1.936,0,0,1-1.246-2.461,9.467,9.467,0,0,1,.639-1.542c.421-.888.935-1.744,1.324-2.648a2.923,2.923,0,0,0-1.48-3.878,5.974,5.974,0,0,0-1.7-.53,2.435,2.435,0,0,1-1.651-.857h-.016a2.9,2.9,0,0,1-.623-1.48,5.373,5.373,0,0,1,1.137-4.221,4.155,4.155,0,0,1,2.554-1.464,7.173,7.173,0,0,1,6.277,1.589,5.073,5.073,0,0,1,1.682,2.726A12.33,12.33,0,0,1,37.616,24.97Z" transform="translate(-22.841 -13.187)" fill="#fff"/><path d="M27.381,18a2.693,2.693,0,0,1-.544,1.805,1.414,1.414,0,0,1-2.126.216,3,3,0,0,1-.357-3.972,1.44,1.44,0,0,1,2.215-.028A2.88,2.88,0,0,1,27.381,18Z" transform="translate(-23.764 -13.939)" fill="#fff"/><path d="M29.081,16.223a2.173,2.173,0,0,1-.344,1.2,1.048,1.048,0,0,1-1.835.05,2.2,2.2,0,0,1,.2-2.434,1.021,1.021,0,0,1,1.748.237A2.165,2.165,0,0,1,29.081,16.223Z" transform="translate(-22.169 -14.424)" fill="#edbec9"/><path d="M32.525,15.759a1.151,1.151,0,0,1,1.118,1.324A1.8,1.8,0,0,1,33,18.207a1.15,1.15,0,0,1-1.846-.972,1.672,1.672,0,0,1,.609-1.227A1.1,1.1,0,0,1,32.525,15.759Z" transform="translate(-19.647 -13.806)" fill="#fff"/></g><g transform="translate(18.719 29.173)"><path d="M25.96,27.728v.031a4.473,4.473,0,0,1-.171,1.262,2.3,2.3,0,0,1-2.009,1.822,4.519,4.519,0,0,0-2.134.919,2.947,2.947,0,0,0-.872,3.458c.436.981,1,1.916,1.48,2.881a8.557,8.557,0,0,1,.607,1.589,1.935,1.935,0,0,1-1.62,2.414,3.847,3.847,0,0,1-3.6-.966h-.016a3.187,3.187,0,0,1-.467-.545,13.047,13.047,0,0,1-1.916-4.112,23.463,23.463,0,0,1-.981-5.623,12.793,12.793,0,0,1,.452-3.769A5.428,5.428,0,0,1,17.5,23.663a6.524,6.524,0,0,1,5.482-.576,3.773,3.773,0,0,1,2.2,1.869A5.779,5.779,0,0,1,25.96,27.728Z" transform="translate(-13.39 -19.054)" fill="#fff"/><path d="M24.208,22.961a2.958,2.958,0,0,1-.721,1.992,1.376,1.376,0,0,1-2.168.023,3.075,3.075,0,0,1,.288-3.992,1.377,1.377,0,0,1,2.143.333A3.013,3.013,0,0,1,24.208,22.961Z" transform="translate(-9.788 -20.235)" fill="#fff"/><path d="M21.415,21.767a2.777,2.777,0,0,1-.354,1.55,1.116,1.116,0,0,1-1.045.648,1.344,1.344,0,0,1-1.162-.724,2.367,2.367,0,0,1,.419-2.584,1.231,1.231,0,0,1,1.772.215A1.55,1.55,0,0,1,21.415,21.767Z" transform="translate(-10.946 -20.371)" fill="#fff"/><path d="M19.12,22.154a5.95,5.95,0,0,1-.248,1.015.9.9,0,0,1-1.632.193,2.468,2.468,0,0,1-.2-2.322.89.89,0,0,1,1.651-.045A6.855,6.855,0,0,1,19.12,22.154Z" transform="translate(-11.949 -20.321)" fill="#fff"/><path d="M17.33,22.956a1.181,1.181,0,0,1-.369.986A.876.876,0,0,1,15.755,24a1.729,1.729,0,0,1-.632-1.662,1,1,0,0,1,.8-.852.927.927,0,0,1,.983.419A1.912,1.912,0,0,1,17.33,22.956Z" transform="translate(-12.922 -19.764)" fill="#edbec9"/><path d="M14.629,22.863a1.415,1.415,0,0,1,1.4,1.274.924.924,0,0,1-.9,1.008A1.412,1.412,0,0,1,13.7,23.9.924.924,0,0,1,14.629,22.863Z" transform="translate(-13.7 -18.981)" fill="#fff"/></g><path d="M23.75,27.471a3.362,3.362,0,0,0,1-1.511,4.473,4.473,0,0,1-.171,1.262,2.3,2.3,0,0,1-2.009,1.822,4.519,4.519,0,0,0-2.134.919,2.947,2.947,0,0,0-.872,3.458c.436.981,1,1.916,1.48,2.881a8.557,8.557,0,0,1,.607,1.589,1.935,1.935,0,0,1-1.62,2.414,3.847,3.847,0,0,1-3.6-.966c1.48.576,2.944.748,3.972-.249,3.037-2.959-7.819-7.9-.4-10.264C21.912,28.2,23,28.156,23.75,27.471Z" transform="translate(6.541 11.919)" fill="#edbec9" opacity="0.54"/><path d="M30.7,27.66a2.923,2.923,0,0,0-1.48-3.878,5.973,5.973,0,0,0-1.7-.53A2.435,2.435,0,0,1,25.87,22.4a1.836,1.836,0,0,0,2.4-.421c2.2-2.087,3.536-2.243,4.19-1.324s.607,5.95-3.722,11.2a9.467,9.467,0,0,1,.639-1.542C29.795,29.42,30.309,28.564,30.7,27.66Z" transform="translate(11.804 8.661)" fill="#edbec9" opacity="0.54"/></g></svg>