<svg xmlns="http://www.w3.org/2000/svg" xmlns:xlink="http://www.w3.org/1999/xlink" width="84.393" height="84" viewBox="0 0 84.393 84"><defs><filter id="a" x="0" y="0" width="84.393" height="84" filterUnits="userSpaceOnUse"><feOffset dx="2" dy="2" input="SourceAlpha"/><feGaussianBlur stdDeviation="4" result="b"/><feFlood flood-color="#dc6c85" flood-opacity="0.4"/><feComposite operator="in" in2="b"/><feComposite in="SourceGraphic"/></filter></defs><g transform="translate(-425 -226.5)"><g transform="translate(390.126 1.5)"><g transform="translate(44.874 235)"><g transform="matrix(1, 0, 0, 1, -10, -10)" filter="url(#a)"><path d="M85.456,16.975s5.5-30.356,31.17-30.356,34.022,27.5,25.669,43.394S109.9,51,95.847,42.644,85.456,16.975,85.456,16.975Z" transform="translate(-75.02 23.38)" fill="#fff"/></g></g><g transform="translate(61.967 252.404)"><g transform="translate(12.706)"><path d="M-19.828,18.187a.548.548,0,0,1,.2.133,2.011,2.011,0,0,1,.437,2.1,1.434,1.434,0,0,1-.462.558.648.648,0,0,1-.929-.174,2.151,2.151,0,0,1-.322-1.877C-20.79,18.514-20.256,18.024-19.828,18.187Z" transform="translate(27.576 -18.155)" fill="#dc6c85"/><path d="M-15.427,22.027v0a1.193,1.193,0,0,1-.136.287c-.259.441-.6.923-1.182.674a.791.791,0,0,1-.467-.8,1.271,1.271,0,0,1,.563-1.1A.822.822,0,0,1-15.427,22.027Z" transform="translate(28.569 -17.423)" fill="#dc6c85"/><path d="M-14.666,27.085a16.977,16.977,0,0,1-1.553,6.729,4.288,4.288,0,0,1-1.616,2.007,3.347,3.347,0,0,1-2.815.3,1.569,1.569,0,0,1-1.01-1.995,7.674,7.674,0,0,1,.518-1.25c.341-.72.757-1.414,1.073-2.146a2.369,2.369,0,0,0-1.2-3.144,4.842,4.842,0,0,0-1.376-.429,1.974,1.974,0,0,1-1.338-.694H-24a2.348,2.348,0,0,1-.5-1.2,4.355,4.355,0,0,1,.922-3.421,3.368,3.368,0,0,1,2.07-1.187,5.815,5.815,0,0,1,5.088,1.288,4.112,4.112,0,0,1,1.363,2.209A9.995,9.995,0,0,1-14.666,27.085Z" transform="translate(26.642 -17.534)" fill="#dc6c85"/><path d="M-23.276,21.183a2.183,2.183,0,0,1-.441,1.463,1.144,1.144,0,0,1-1.722.175,2.431,2.431,0,0,1-.29-3.219,1.168,1.168,0,0,1,1.8-.024A2.328,2.328,0,0,1-23.276,21.183Z" transform="translate(26.208 -17.888)" fill="#dc6c85"/><path d="M-21.357,19.574a1.764,1.764,0,0,1-.278.975.852.852,0,0,1-1.488.04,1.788,1.788,0,0,1,.159-1.975.828.828,0,0,1,1.416.193A1.754,1.754,0,0,1-21.357,19.574Z" transform="translate(26.959 -18.117)" fill="#edbec9"/><path d="M-17.707,19.408a.933.933,0,0,1,.905,1.073,1.464,1.464,0,0,1-.524.912.863.863,0,0,1-1.007.078.87.87,0,0,1-.49-.866,1.36,1.36,0,0,1,.494-1A.9.9,0,0,1-17.707,19.408Z" transform="translate(28.146 -17.826)" fill="#dc6c85"/></g><g transform="translate(0 7.406)"><path d="M-26.229,30.432v.025a3.625,3.625,0,0,1-.139,1.023A1.866,1.866,0,0,1-28,32.957a3.663,3.663,0,0,0-1.73.745,2.389,2.389,0,0,0-.707,2.8c.353.8.808,1.553,1.2,2.336a6.937,6.937,0,0,1,.492,1.288,1.569,1.569,0,0,1-1.313,1.957,3.118,3.118,0,0,1-2.916-.783h-.013a2.583,2.583,0,0,1-.379-.442,10.576,10.576,0,0,1-1.553-3.333,19.018,19.018,0,0,1-.8-4.558,10.37,10.37,0,0,1,.366-3.055,4.4,4.4,0,0,1,2.26-2.777,5.288,5.288,0,0,1,4.444-.467,3.058,3.058,0,0,1,1.78,1.515A4.684,4.684,0,0,1-26.229,30.432Z" transform="translate(36.418 -23.401)" fill="#dc6c85"/><path d="M-26.426,26.167a2.4,2.4,0,0,1-.585,1.615,1.115,1.115,0,0,1-1.757.019,2.494,2.494,0,0,1,.234-3.236,1.116,1.116,0,0,1,1.737.269A2.44,2.44,0,0,1-26.426,26.167Z" transform="translate(38.114 -23.957)" fill="#dc6c85"/><path d="M-29.083,25.152a2.254,2.254,0,0,1-.285,1.256.908.908,0,0,1-.848.525,1.086,1.086,0,0,1-.941-.587,1.913,1.913,0,0,1,.34-2.094,1,1,0,0,1,1.435.174A1.253,1.253,0,0,1-29.083,25.152Z" transform="translate(37.569 -24.021)" fill="#dc6c85"/><path d="M-31.283,25.483a4.939,4.939,0,0,1-.2.823.725.725,0,0,1-1.323.157,2,2,0,0,1-.159-1.884.722.722,0,0,1,1.338-.035A5.562,5.562,0,0,1-31.283,25.483Z" transform="translate(37.097 -23.997)" fill="#dc6c85"/><path d="M-33.065,26.323a.957.957,0,0,1-.3.8.714.714,0,0,1-.978.044,1.4,1.4,0,0,1-.513-1.347.814.814,0,0,1,.651-.691.751.751,0,0,1,.8.34A1.55,1.55,0,0,1-33.065,26.323Z" transform="translate(36.639 -23.735)" fill="#edbec9"/><path d="M-35.519,26.513a1.146,1.146,0,0,1,1.139,1.033.75.75,0,0,1-.731.817,1.145,1.145,0,0,1-1.158-1.01A.749.749,0,0,1-35.519,26.513Z" transform="translate(36.272 -23.366)" fill="#dc6c85"/></g><path d="M-27.608,30.835A2.725,2.725,0,0,0-26.8,29.61a3.626,3.626,0,0,1-.139,1.023,1.866,1.866,0,0,1-1.629,1.477,3.663,3.663,0,0,0-1.73.745,2.389,2.389,0,0,0-.707,2.8c.353.8.808,1.553,1.2,2.336a6.936,6.936,0,0,1,.492,1.288,1.569,1.569,0,0,1-1.313,1.957,3.118,3.118,0,0,1-2.916-.783c1.2.467,2.386.606,3.219-.2,2.462-2.4-6.338-6.4-.328-8.32C-29.1,31.428-28.214,31.39-27.608,30.835Z" transform="translate(36.989 -15.148)" fill="#edbec9" opacity="0.54"/><path d="M-20.188,29.881a2.369,2.369,0,0,0-1.2-3.144,4.842,4.842,0,0,0-1.376-.429,1.974,1.974,0,0,1-1.338-.694,1.488,1.488,0,0,0,1.944-.341c1.78-1.692,2.866-1.818,3.4-1.073s.492,4.823-3.017,9.077a7.674,7.674,0,0,1,.518-1.25C-20.921,31.308-20.5,30.614-20.188,29.881Z" transform="translate(39.466 -16.682)" fill="#edbec9" opacity="0.54"/></g></g></g></svg>