<svg xmlns="http://www.w3.org/2000/svg" xmlns:xlink="http://www.w3.org/1999/xlink" width="84.393" height="84" viewBox="0 0 84.393 84"><defs><filter id="a" x="0" y="0" width="84.393" height="84" filterUnits="userSpaceOnUse"><feOffset dx="2" dy="2" input="SourceAlpha"/><feGaussianBlur stdDeviation="4" result="b"/><feFlood flood-color="#dc6c85" flood-opacity="0.4"/><feComposite operator="in" in2="b"/><feComposite in="SourceGraphic"/></filter></defs><g transform="translate(-967 -226.5)"><g transform="translate(928 -65.5)"><g transform="matrix(1, 0, 0, 1, 39, 292)" filter="url(#a)"><path d="M85.456,16.975s5.5-30.356,31.17-30.356,34.022,27.5,25.669,43.394S109.9,51,95.847,42.644,85.456,16.975,85.456,16.975Z" transform="translate(-75.02 23.38)" fill="#fff"/></g><g transform="translate(66.329 318.904)"><path d="M17.678,30.937c2.874-3.271,4.766-5.478,7.625-8.734a4.224,4.224,0,0,0-1.337.489c-2.793,1.767-4.891,2.018-5.746,4.419l-1.031,2.872A.741.741,0,0,0,17.678,30.937Z" transform="translate(-14.544 -16.18)" fill="#dc6c85"/><path d="M20.724,31.142c-.063.152-.038.164-.076.632-.013.051-.013.114-.025.19a1.287,1.287,0,0,1-1.359,1.2h-.051a1.423,1.423,0,0,1-.227-.038L19.1,33c.114-.114.183-.214.3-.34Z" transform="translate(-14.059 -13.823)" fill="#dc6c85"/><path d="M20.724,31.142c-.063.152-.038.164-.076.632l-1.384,1.389h-.051a1.423,1.423,0,0,1-.227-.038L19.1,33Z" transform="translate(-14.059 -13.823)" fill="#b85a70"/><path d="M30.61,32.8s.687.233,2.142-.694,2.381-1.784,3.373-1.719c.821.054.554-3.614.439-4.873a.323.323,0,0,0-.418-.283A6.625,6.625,0,0,1,31.292,25C28.808,23.73,30.61,32.8,30.61,32.8Z" transform="translate(-11.161 -15.476)" fill="#dc6c85"/><path d="M22.657,33.152a1.252,1.252,0,0,1-1.414-1.276v-1.82l2.625-1.3V30.7S24.108,33.09,22.657,33.152Z" transform="translate(-13.463 -14.452)" fill="#dc6c85"/><path d="M26.591,31.515c-.061.682-.312,1.58-1.175,1.616a1.227,1.227,0,0,1-1.39-1.25l-.059-1.706L23.918,28.5l2.684.329v1.908A4.044,4.044,0,0,1,26.591,31.515Z" transform="translate(-12.758 -14.521)" fill="#dc6c85"/><path d="M21.243,30.292l2.625-1.3V30.8a10.893,10.893,0,0,1-2.625.645Z" transform="translate(-13.463 -14.39)" fill="#b85a70"/><path d="M26.591,31.75c-1.055-.67-1.834-1.6-2.625-1.34l-.048-1.681,2.684.329.013,1.91A4.867,4.867,0,0,1,26.591,31.75Z" transform="translate(-12.758 -14.459)" fill="#b85a70"/><path d="M15.095,38.648a.465.465,0,0,0,.024.246c.015.042,0,.048.037.088.011.009-.018,0,.005,0a.386.386,0,0,0,.134.066.444.444,0,0,0,.292,0l1.2-.484,1.982-.777.411-.169c.02-.013.053-.027.075-.039l.02-.024a.241.241,0,0,0,.062-.049l.01-.011.345-.391L33.9,20.821a1.823,1.823,0,0,0-.259-2.653l-.392-.31a2.015,2.015,0,0,0-2.75.268l-14.563,16.7-.048.081-.009.023c-.009.021-.028.056-.037.078l-.47,2.325ZM30.443,19.516l.727-.849a1.1,1.1,0,0,1,1.514-.148l.392.31a1,1,0,0,1,.383.7,1.025,1.025,0,0,1-.24.758l-.667.767-.061.071a2.054,2.054,0,0,0-.216-.368,2.3,2.3,0,0,0-.656-.705A3.09,3.09,0,0,0,30.443,19.516Z" transform="translate(-15.087 -17.437)" fill="#edbec9"/><path d="M15.095,35.114a.465.465,0,0,0,.024.246c.015.042,0,.048.037.088.011.009-.018,0,.005,0a.192.192,0,0,0,.134.066.444.444,0,0,0,.292,0l1.2-.484,1.982-.777.411-.169c.02-.013.053-.027.075-.039l.02-.024a.241.241,0,0,0,.062-.049l.01-.011a7.718,7.718,0,0,0-.493-.9,5.368,5.368,0,0,0-2.524-2.228l-.394.459-.048.081-.009.023c-.009.021-.028.056-.037.078l-.47,2.325Z" transform="translate(-15.087 -13.903)" fill="#dc6c85"/><path d="M17.835,36.283s.412-1.3-1.35-1.283c.435-1.228,13.77-16.311,13.77-16.311l1.6,2.006Z" transform="translate(-14.719 -17.107)" fill="#edbec9"/><path d="M18.531,36.936c.021-.018.052-.028.075-.045l.021-.018c.023-.016.037-.034.058-.051l.008-.009L32.029,21.552l.313-.365L31.108,20.06l-.411.356a24.667,24.667,0,0,0-3.535,3.895L21.654,31.74a44.455,44.455,0,0,1-3.627,3.489l-.474.693A.877.877,0,0,1,18.531,36.936Z" transform="translate(-14.437 -16.746)" fill="#edbec9"/><path d="M15.724,34.537c.805-.1.969.445.969.445l13.273-15.59-.561-.554-.377.44L15.772,34.464Z" transform="translate(-14.919 -17.068)" fill="#fff"/><path d="M15.095,34.495a.465.465,0,0,0,.024.246c.015.042,0,.048.037.088.011.009-.018,0,.005,0a.192.192,0,0,0,.134.066.444.444,0,0,0,.292,0l1.2-.484a1.575,1.575,0,0,0-.311-.77,1.18,1.18,0,0,0-1.1-.466Z" transform="translate(-15.087 -13.284)" fill="#f5dce2"/><path d="M15.724,34.537c.805-.1.969.445.969.445l13.273-15.59-.561-.554-.377.44L15.772,34.464Z" transform="translate(-14.919 -17.068)" fill="#edbec9" opacity="0.54"/><path d="M26.252,19.648a4.618,4.618,0,0,1,3.483,2.6l.569-.663.39-.457.263-.307a1.827,1.827,0,0,0-.258-2.645L30.3,17.86a2.012,2.012,0,0,0-2.752.269l-.312.365-.406.473Z" transform="translate(-12.143 -17.437)" fill="#b85a70"/><path d="M29.54,23.106l-3.283,3.781c-1.755,2.019-6.775,3.833-6.834,3.861-.578.226-.262,1.692.795,1.784a8.267,8.267,0,0,0,4.055-1.045,1.739,1.739,0,0,1,2.347.044,7.077,7.077,0,0,0,3.871,1.487l3.025.265.682-7.8Z" transform="translate(-14.02 -15.942)" fill="#dc6c85"/></g></g></g></svg>