<svg xmlns="http://www.w3.org/2000/svg" xmlns:xlink="http://www.w3.org/1999/xlink" width="22.134" height="31.24" viewBox="0 0 22.134 31.24"><defs><style>.a{fill:none;}.b{fill:#084500;}.c{fill:#7fd1d8;}.d{clip-path:url(#a);}.e{fill:#3e6569;}.f{fill:#fff;}</style><clipPath id="a"><path class="a" d="M981.125,148.847l.018-.026c.008-.01.016-.019.023-.029.046-.065.114-.157.2-.276.056-.084.121-.182.191-.292a10.684,10.684,0,0,0,1.737-5.458,8.86,8.86,0,0,0-5.6-8.537c-.016-.006-.029-.014-.046-.02l-.011-.005-.05-.018c-.078-.031-.158-.061-.239-.09l-.155-.055c-.038-.014-.078-.026-.117-.04-.071-.025-.143-.047-.216-.07-.037-.013-.074-.023-.11-.036-.077-.023-.153-.046-.233-.067l-.032-.009-.19-.051-.208-.053c-.075-.019-.151-.037-.229-.054l-.131-.029c-.176-.037-.353-.073-.535-.105-.225-.04-.456-.075-.693-.108l-.156-.018-.233-.026q-.369-.039-.754-.064c-.138-.009-.277-.017-.418-.022-.283-.012-.572-.018-.871-.018-.137,0-.274,0-.408.006-.1,0-.2.006-.3.012s-.177.01-.264.017q-.065,0-.129.009c-.09.007-.177.016-.265.025s-.17.017-.252.027l-.011,0-.176.023c-.064.009-.127.018-.188.029-.35.054-.689.121-1.015.2-.082.019-.165.041-.246.064-.1.026-.193.053-.286.082-.118.036-.234.074-.347.114-.059.018-.115.039-.172.059-.1.037-.2.075-.3.115-.07.028-.142.057-.211.087s-.167.072-.249.11c-.051.023-.1.046-.15.072s-.115.054-.172.083-.124.063-.183.1a9.423,9.423,0,0,0-1.139.707l-.182.134a10.084,10.084,0,0,0-.783.655l-.138.13c-.075.072-.148.146-.22.219-.049.049-.1.1-.144.15-.122.129-.24.26-.352.393-.066.075-.129.152-.191.227-.077.1-.15.19-.224.286s-.139.187-.206.282c-.035.047-.069.1-.1.147s-.062.088-.091.134-.062.094-.093.141-.061.093-.09.141c-.089.141-.175.281-.256.421-.053.093-.1.186-.156.278q-.113.207-.216.41c-.067.136-.131.269-.192.4-.02.044-.04.089-.06.132a13.6,13.6,0,0,0-.7,1.926,1.011,1.011,0,0,0,.593,1.2l5.05,2.122a1.046,1.046,0,0,0,1.408-.655c.43-1.426,1.522-3.684,4.139-3.684,3.825,0,3.514,4.163,1.059,5.4a4.113,4.113,0,0,1-2.242.241,1.032,1.032,0,0,0-1.177,1.008v2.887a1.033,1.033,0,0,0,1.177,1.009,4.1,4.1,0,0,1,2.242.24c2.455,1.233,2.766,5.4-1.059,5.4-2.617,0-3.709-2.257-4.139-3.683a1.048,1.048,0,0,0-1.408-.655l-5.05,2.123a1.01,1.01,0,0,0-.593,1.2,13.99,13.99,0,0,0,.8,2.147c.054.113.109.227.167.341s.12.233.184.349.13.236.2.354c.033.06.07.119.1.179.109.177.224.358.346.537.081.119.165.239.253.358s.179.237.272.355c.046.06.1.119.144.178s.1.117.148.175q.228.264.478.516a10.448,10.448,0,0,0,7.768,3.06c9.523,0,11.232-6.142,11.232-9.494a11.1,11.1,0,0,0-2.2-6.127S981.1,148.876,981.125,148.847Z"/></clipPath></defs><g transform="translate(-961.155 -133.271)"><path class="b" d="M965.188,137.738q.516-.336,1-.7C965.865,137.283,965.532,137.516,965.188,137.738Z"/><path class="b" d="M965.188,137.738q.516-.336,1-.7C965.865,137.283,965.532,137.516,965.188,137.738Z"/><path class="c" d="M981.125,148.847l.018-.026c.008-.01.016-.019.023-.029.046-.065.114-.157.2-.276.056-.084.121-.182.191-.292a10.684,10.684,0,0,0,1.737-5.458,8.86,8.86,0,0,0-5.6-8.537c-.016-.006-.029-.014-.046-.02l-.011-.005-.05-.018c-.078-.031-.158-.061-.239-.09l-.155-.055c-.038-.014-.078-.026-.117-.04-.071-.025-.143-.047-.216-.07-.037-.013-.074-.023-.11-.036-.077-.023-.153-.046-.233-.067l-.032-.009-.19-.051-.208-.053c-.075-.019-.151-.037-.229-.054l-.131-.029c-.176-.037-.353-.073-.535-.105-.225-.04-.456-.075-.693-.108l-.156-.018-.233-.026q-.369-.039-.754-.064c-.138-.009-.277-.017-.418-.022-.283-.012-.572-.018-.871-.018-.137,0-.274,0-.408.006-.1,0-.2.006-.3.012s-.177.01-.264.017q-.065,0-.129.009c-.09.007-.177.016-.265.025s-.17.017-.252.027l-.011,0-.176.023c-.064.009-.127.018-.188.029-.35.054-.689.121-1.015.2-.082.019-.165.041-.246.064-.1.026-.193.053-.286.082-.118.036-.234.074-.347.114-.059.018-.115.039-.172.059-.1.037-.2.075-.3.115-.07.028-.142.057-.211.087s-.167.072-.249.11c-.051.023-.1.046-.15.072s-.115.054-.172.083-.124.063-.183.1a9.423,9.423,0,0,0-1.139.707l-.182.134a10.084,10.084,0,0,0-.783.655l-.138.13c-.075.072-.148.146-.22.219-.049.049-.1.1-.144.15-.122.129-.24.26-.352.393-.066.075-.129.152-.191.227-.077.1-.15.19-.224.286s-.139.187-.206.282c-.035.047-.069.1-.1.147s-.062.088-.091.134-.062.094-.093.141-.061.093-.09.141c-.089.141-.175.281-.256.421-.053.093-.1.186-.156.278q-.113.207-.216.41c-.067.136-.131.269-.192.4-.02.044-.04.089-.06.132a13.6,13.6,0,0,0-.7,1.926,1.011,1.011,0,0,0,.593,1.2l5.05,2.122a1.046,1.046,0,0,0,1.408-.655c.43-1.426,1.522-3.684,4.139-3.684,3.825,0,3.514,4.163,1.059,5.4a4.113,4.113,0,0,1-2.242.241,1.032,1.032,0,0,0-1.177,1.008v2.887a1.033,1.033,0,0,0,1.177,1.009,4.1,4.1,0,0,1,2.242.24c2.455,1.233,2.766,5.4-1.059,5.4-2.617,0-3.709-2.257-4.139-3.683a1.048,1.048,0,0,0-1.408-.655l-5.05,2.123a1.01,1.01,0,0,0-.593,1.2,13.99,13.99,0,0,0,.8,2.147c.054.113.109.227.167.341s.12.233.184.349.13.236.2.354c.033.06.07.119.1.179.109.177.224.358.346.537.081.119.165.239.253.358s.179.237.272.355c.046.06.1.119.144.178s.1.117.148.175q.228.264.478.516a10.448,10.448,0,0,0,7.768,3.06c9.523,0,11.232-6.142,11.232-9.494a11.1,11.1,0,0,0-2.2-6.127S981.1,148.876,981.125,148.847ZM975.067,136.3c.344-.224.678-.456,1-.7C975.745,135.843,975.411,136.076,975.067,136.3Z"/><g class="d"><path class="e" d="M959.942,133.925s1.28,3.84,10.24,2.4,9.12,4.8,7.52,9.12,1.12,7.68-.32,11.84c-.712,2.056-8.64,9.6-14.4.64s-5.439-9.92-5.439-9.92v16.479s25.439,4.16,26.559,3.52-.32-12.319,1.44-16.159,5.12-9.6,3.36-14.08-4.48-7.839-9.76-9.279S959.942,133.925,959.942,133.925Z"/></g><path class="f" d="M969.668,156.193l.217,2.6,2.263,1.293-2.4,1.01-.53,2.551-1.7-1.973-2.59.284,1.35-2.229-1.07-2.376,2.537.6ZM967.9,158.55l-1.73-.406.73,1.62-.921,1.519,1.766-.194,1.16,1.345.362-1.739,1.638-.688-1.542-.881-.149-1.77Z"/></g></svg>