<svg xmlns="http://www.w3.org/2000/svg" width="1366" height="871.498" viewBox="0 0 1366 871.498"><defs><style>.a{fill:#f7d45e;}.b{fill:#ffe182;}.c{fill:#c2c2c2;}.c,.n{opacity:0.2;}.d{fill:#fff;}.e{fill:#fcb95d;}.e,.f,.g,.h,.i,.j,.k,.l,.m,.n,.r,.s{fill-rule:evenodd;}.f,.y{fill:#a1dd6f;}.g,.q{opacity:0.15;}.h{fill:#243e41;}.i{fill:#171f1c;}.j{fill:#c98121;}.k{fill:#f7805c;}.l{fill:#7fd1d8;}.aa,.ab,.ac,.ad,.ae,.af,.ah,.ai,.m,.z{fill:none;stroke-miterlimit:10;}.m{stroke:#3e6569;stroke-width:12.871px;}.aa,.ab,.ac,.ad,.ae,.af,.o,.z{opacity:0.5;}.p{fill:#243330;}.r,.t{fill:#d1d3d4;}.s{fill:#36a5ad;}.u{fill:#bcbec0;}.v{fill:#6d6e71;}.w{fill:#e6e7e8;}.x{fill:#3c3c3c;}.aa,.ab,.ac,.ad,.ae,.af,.z{stroke:#171717;}.ah,.z{stroke-width:0.863px;}.aa{stroke-width:0.603px;}.ab{stroke-width:0.8px;}.ac{stroke-width:0.747px;}.ad{stroke-width:0.697px;}.ae{stroke-width:0.655px;}.af{stroke-width:0.469px;}.ag{fill:#f7b88f;}.ah{stroke:#000;}.ai{stroke:#7fd1d8;stroke-width:0.405px;}.aj{fill:#2b2b2b;}.ak{fill:#dedede;}.al{fill:#b0b0b0;}</style></defs><g transform="translate(1788.279 1976.159)"><path class="a" d="M-422.279-1958.957v758.464l-242.228-67.586-32.991-6.263,1.636-558.092,29.007-38.07Z"/><path class="a" d="M-1471.983-1850.687l-16.051,556.371-300.044,74.4v-750.053l298.845,93.571Z"/><path class="b" d="M-1090.3-1887.087h-424.608V-1269.7h849.165v-617.384Z"/><path class="c" d="M-665.744-1870.907v-16.18h-849.165v2.648l-273.169-85.531v750.053l273.169-67.734v17.949h841.85l8.552,1.623,242.228,67.587v-758.464Z"/><path class="d" d="M-1788.279-1915.379c121.657,30.38,335.7,73.889,615,80.373,352.972,8.194,622.429-47.1,751-78.7v-62.455h-1366Z"/><path class="d" d="M-1788.279-1250.829c121.657-30.38,335.7-73.888,615-80.372,352.972-8.195,622.429,47.1,751,78.7v48.78l-1365.8,2.839Z"/><path class="e" d="M-924.546-1436.33c-.956.665-26.6,25.922-37.774,25.746s-64.028-24.005-75.743-33.519c0,0,15.551-2.089,16.6-2.444s57.434,13.551,62.574,11.9c1.755-.563,10.5-16.242,28.119-22.919S-924.546-1436.33-924.546-1436.33Z"/><path class="e" d="M-1026.348-1448.786c-1.071-.38-12.511-8.007-18.576-8.37s-15.107-.188-18.265-1.114c-3.715-1.088-4.576.758-.277,2.52,2.793,1.145,8.493,2.846,9.742,2.841.6,0-3.354-.442-7.671-1.3-4.589-.918-9.579-2.233-9.768-1.223-.367,1.96,12.889,5.611,15.208,5.794a47.41,47.41,0,0,1-6.116-.582c-2.768-.453-5.958-1.482-6.551-.746-.933,1.158,6.126,4.141,11.895,4.813.108.224-1.731.681-8.539-.684-.685-.137-2.4.321-.132,1.467,4.77,2.413,6.677,3.884,13.458,3.781,6.612-.1,13.839-2.169,18.66-.46Z"/><path class="e" d="M-1041.987-1456.579s-5.354-6.346-11.135-7.13c-3.436-.466-3.4-1.529-3.988-1.814-1.969-.944.061,3.375,3,4.353,2.389.8,3.886,5.688,5.34,6.665s5.763,2.681,6.795,1.941S-1041.987-1456.579-1041.987-1456.579Z"/><path class="e" d="M-1026.348-1448.786s2.459,1.533,10.869,3.405-3.9,4.573-3.9,4.573l-16.214-3.39Z"/><path class="e" d="M-776.729-1148.111s-1.16,16.282-2.9,21.569,11.056,3.643,11.621,3.844,10.465-6.327,10.465-6.327-6.339-1.928-4.265-22.071S-776.729-1148.111-776.729-1148.111Z"/><path class="e" d="M-888.484-1146.793s1.16,16.283,2.9,21.57-11.055,3.643-11.62,3.843-10.465-6.326-10.465-6.326,6.339-1.928,4.265-22.071S-888.484-1146.793-888.484-1146.793Z"/><path class="f" d="M-847.108-1311.382c-1.318,6.172-6.468,14.169-10.069,27.894a113.662,113.662,0,0,0-3.494,23.969c-1.135,25.668-10.1,33.355-11.943,41.408a12.331,12.331,0,0,0-.289,3.854c2.008,23.377-9.236,69.21-9.236,69.21s-2.4.2-5.806.317c-8.138.267-22.067-.014-23.209-4.932-1.627-6.983-7.954-24.562-7.954-34.256s4.192-26.711,5.559-30.84,2.262-22.877,0-29.338c-2.579-7.377-.162-22.757,3.466-37.793,4.207-17.417,10.055-34.362,11.682-37.828,0,0,29.162-12.52,35.412-10.111S-845.164-1320.492-847.108-1311.382Z"/><path class="f" d="M-749.99-1183.918c0,9.694-6.327,27.273-7.955,34.256s-29.014,4.615-29.014,4.615-11.245-45.833-9.237-69.21c.852-9.956-10.914-15.6-12.231-45.262a112.893,112.893,0,0,0-3.749-24.92c-3.586-13.148-8.525-20.919-9.814-26.943-1.945-9.11,9.631-16.029,15.881-18.446s35.411,10.111,35.411,10.111a210.413,210.413,0,0,1,6.947,20.383c5.616,18.784,11.816,44.9,8.2,55.238-2.262,6.461-1.367,25.217,0,29.338S-749.99-1193.613-749.99-1183.918Z"/><path class="g" d="M-847.108-1311.382c-1.318,6.172-6.468,14.169-10.069,27.894-7.2-.93-16.515-5.052-25.822-8.356-7.793-2.762-19.171,4.149-27.084,9.955,4.207-17.417,10.055-34.362,11.682-37.828,0,0,29.162-12.52,35.412-10.111S-845.164-1320.492-847.108-1311.382Z"/><path class="g" d="M-763.751-1299.334a87.4,87.4,0,0,0-28.563,9.476c-5.947,3.129-12.872,4.693-19.862,5.419-3.586-13.148-8.525-20.919-9.814-26.943-1.945-9.11,9.631-16.029,15.881-18.446s35.411,10.111,35.411,10.111A210.413,210.413,0,0,1-763.751-1299.334Z"/><path class="h" d="M-818.533-1599.607c-3.7,4.836-4.716,2.945,1.317,9.361,2.717,4.165-3.735,4.225-8.32,6.428a8.759,8.759,0,0,0-2.6,1.771c-2.274,1.964-6.811,2.383-11.121,3.017-9.169-1.1-11.395,6.177-11.132-3.017.036-.119.084-.239.108-.359,2.25-7.768-10.642-.646-8.008-7.553,6.021-2.729-7.374.263-3.017-11.12,6.416-4.788-7.84-8.751,3.017-11.133.706-4.273,10.8-1.424,7.9-7.9,2.9-3.484,8.367-1.485,11.132-3.017,11.049-2.49,6.417,5.926,11.121,3.017,6.236-2.107,7.864,5.937,7.912,7.9C-816.642-1608.357-808.993-1599.607-818.533-1599.607Z"/><path class="i" d="M-825.536-1583.818a8.759,8.759,0,0,0-2.6,1.771c-2.274,1.964-6.811,2.383-11.121,3.017-9.169-1.1-11.395,6.177-11.132-3.017.036-.119.084-.239.108-.359,3-.562,5.759-1.659,5.758-4.034-.005-10.719,12.7-11.929,12.7-11.929s3.45,7.285,3.666,8.075C-828.049-1589.887-826.816-1586.859-825.536-1583.818Z"/><path class="j" d="M-871.3-1556.432s28.362-.405,30.793-11.344,2.836-16.907,0-23.242,16.207,7.035,16.207,7.035-2.026,8.508,0,14.991,6.483,6.613,13.37,5.94,0,21.206,0,21.206-24.673,2.676-26.517,3.567-27.37.325-28.586,0S-871.3-1556.432-871.3-1556.432Z"/><path class="k" d="M-879.851-1386.413c1.154.087,6.649-2.227,15.437,3.348s17.772,14.287,24.421,12.947,2.2-8.92-1.651-10.583c-3.463-1.5-10-3.447-8.586-5.932s4.5-2.2,7.608.009,5.587.08,4.521-1.16-8.772-5.663-10.631-6.035c-1.375-.275-7.625,1.607-10.908.814s-16.325-5.121-16.325-5.121Z"/><path class="e" d="M-834.028-1608.377s13.776-3.232,13.776,12.81-1.621,18.068-13.776,13.2S-847.8-1607.651-834.028-1608.377Z"/><path class="l" d="M-765.7-1426.523l-.7-.958A10.294,10.294,0,0,1-765.7-1426.523Z"/><path class="l" d="M-780.583-1454.558l4.707,23.674,5.242,30.48,15.754,91.551-161.84,1.959,5.052-44.789,2.727-24.181,1.867-16.508,5.869-52.04.437-3.854-4.939,21.306-72.683-20.984s3.987-17.682,26.9-87.491c8.476-25.844,42.387-46.65,87.078-32.255a117.048,117.048,0,0,1,12.766,4.96c2.2,1,10.6,18.9,24.2,12.6.289-.134.578-.268.86-.409,12.414-5.989,15.254-12.823,17.29-15.627,0-.007.007-.014.014-.022.07-.084.134-.169.2-.253,1.431-1.8,4.911-3.713,9.674-5.334,8.582-2.924,21.349-5.066,32.361-3.783,5.594.641,10.738,2.163,14.655,4.911,10.963,7.7,21.123,21.327,27.33,39.942.381,1.134.747,2.282,1.092,3.452.176.542.353,1.092.536,1.642,1.571,4.847,3.163,9.814,4.749,14.817,1.62,5.115,3.226,10.265,4.8,15.373,3.1,10.048,6.073,19.9,8.7,28.937a35.016,35.016,0,0,1-17.628,9.815C-762.969-1447.512-780.583-1454.558-780.583-1454.558Z"/><path class="m" d="M-838.828-1524.2l15.9,32.225,35.562,5.167-25.733,25.084,6.075,35.418-31.808-16.722-31.808,16.722,6.075-35.418-25.733-25.084,35.562-5.167Z"/><path class="n" d="M-897.252-1389.075c-4.4,5.5-11.154,26.626-14.416,37.392l10.463-92.729,2.713-12.055c16.909-15.169,9.694,29.1,11.435,42.528S-891.285-1396.536-897.252-1389.075Z"/><path class="n" d="M-826.584-1550.541c-4.023,5.214-13.436,10.575-18.84,7.039-7.976-5.214-22.237-5.221-24.724-17.4-.986-4.82,1.9-6.51,5.736-6.785a116.966,116.966,0,0,1,12.766,4.96c2.2,1,10.6,18.9,24.2,12.6C-827.155-1550.266-826.866-1550.4-826.584-1550.541Z"/><path class="k" d="M-765.7-1426.523l-.7-.958A10.294,10.294,0,0,1-765.7-1426.523Z"/><g class="o"><path class="p" d="M-885.608-1270.8l-.614.721-5.868,6.883-9.823,11.519q.408.608.776,1.254.236.417.457.842l8.428-11.287,7.161-9.632C-885.264-1270.6-885.436-1270.7-885.608-1270.8Z"/><path class="p" d="M-887.978-1272.237l-2.218,2.6-4.684,5.492-8.782,10.3a15.249,15.249,0,0,1,1.255,1.475c1.757-2.354,4.566-6.116,7.4-9.909l6.414-8.627q.459-.622.865-1.17Z"/><path class="p" d="M-904.389-1254.544c2.64-3.531,13.015-17.415,14.215-19.123l-.018-.012-14.827,17.377.01,1.245C-904.8-1254.892-904.59-1254.722-904.389-1254.544Z"/><path class="p" d="M-893.489-1273.392c-.245.434-11.927,16.051-11.927,16.051l-.018-2.056Z"/><path class="p" d="M-896.424-1273.166c-.2.348-9.524,12.818-9.524,12.818l-.019-1.64Z"/><path class="p" d="M-898.542-1273.227c-.156.277-7.609,10.24-7.609,10.24l-.016-1.311Z"/><path class="p" d="M-892.967-1252.483l-15.228-17.366q-.946.623-1.922,1.2c4.431,4.538,10.944,11.207,16.575,16.956Z"/><path class="p" d="M-891.313-1254.755l-14.626-16.68q-.76.576-1.547,1.112c3.719,3.811,10.423,10.676,15.765,16.128Z"/><path class="p" d="M-889.741-1256.948l-13.452-15.34-1.283-.316q-.33.279-.666.548c2.565,2.629,10,10.246,15.135,15.482Z"/><path class="p" d="M-888.378-1258.925l-11.34-12.933-2.29-.563s8.464,8.68,13.452,13.761C-888.5-1258.748-888.437-1258.837-888.378-1258.925Z"/><path class="p" d="M-887.19-1260.741l-9.6-10.95-1.83-.449s7.44,7.63,11.319,11.576C-887.266-1260.623-887.228-1260.682-887.19-1260.741Z"/><path class="p" d="M-886.145-1262.059l-8.054-9.185-1.465-.359s6.458,6.622,9.426,9.636Z"/></g><g class="o"><path class="p" d="M-771.088-1237.83l.273.535,2.61,5.113,4.366,8.559q.454-.093.924-.151c.2-.025.4-.045.6-.063-1.193-2.007-2.876-4.835-4.57-7.684l-3.907-6.54Z"/><path class="p" d="M-772.505-1236.79l.986,1.933,2.082,4.081,3.9,7.651a9.723,9.723,0,0,1,1.169-.378l-4.012-6.746-3.5-5.857-.476-.791Z"/><path class="p" d="M-766.12-1222.868c-1.428-2.406-7.047-11.863-7.757-12.982l-.012.008,6.586,12.916.732.3Q-766.349-1222.755-766.12-1222.868Z"/><path class="p" d="M-774.522-1233.839c.2.249,6.513,10.893,6.513,10.893l-1.21-.489Z"/><path class="p" d="M-775.1-1232.063c.156.2,5.2,8.7,5.2,8.7l-.967-.388Z"/><path class="p" d="M-775.653-1230.836c.125.158,4.155,6.949,4.155,6.949l-.772-.309Z"/><path class="p" d="M-762.135-1229.064l-13.883,4.708q.135.706.239,1.419c3.738-1.494,9.231-3.692,13.97-5.6Q-761.973-1228.8-762.135-1229.064Z"/><path class="p" d="M-763.066-1230.586l-13.333,4.522q.152.585.275,1.177c3.139-1.254,8.793-3.516,13.287-5.324C-762.913-1230.336-762.989-1230.461-763.066-1230.586Z"/><path class="p" d="M-763.97-1232.04l-12.262,4.158-.5.676q.082.261.159.524c2.165-.865,8.437-3.373,12.755-5.112C-763.866-1231.876-763.918-1231.958-763.97-1232.04Z"/><path class="p" d="M-764.8-1233.32l-10.339,3.506-.886,1.206s7.145-2.854,11.337-4.543C-764.722-1233.208-764.76-1233.264-764.8-1233.32Z"/><path class="p" d="M-765.574-1234.458l-8.753,2.969-.708.964s6.282-2.508,9.538-3.823Z"/><path class="p" d="M-766.092-1235.391l-7.342,2.49-.567.772s5.452-2.177,7.94-3.185C-766.071-1235.339-766.082-1235.365-766.092-1235.391Z"/></g><path class="q" d="M-872.9-1214.257c2.008,23.377-9.236,69.21-9.236,69.21s-2.4.2-5.806.317c.049-.487-5.777-.441-5.452-.9,13.428-18.774,15.418-52.718,17.283-61.422.429-2,1.485-8.1,3.5-11.064A12.331,12.331,0,0,0-872.9-1214.257Z"/><path class="r" d="M-722.688-1110.122c-6,.8-18.15-.113-26.985-.606h-.007c-.282-.021-.543-.035-.811-.049-4.607-.247-8.187-.36-9.286-.007-.12.042-.268.077-.444.12-.436.1-1.042.225-1.782.338-6.665,1.035-23.878,2.064-24.089-3.107a12.682,12.682,0,0,1,.281-2.967c.043-.211.085-.422.141-.634.007-.014.007-.021.014-.035.064-.282.134-.571.219-.86.007-.007.007-.007.007-.014,1.522-5.34,5.207-10.984,6.024-10.5,10.935,6.51,21.63-1.19,23.835-2.945.275-.218.416-.345.416-.345s.416.028,1.205.106c.43.049.979.112,1.628.19.352.042.732.091,1.148.148.141.021.282.035.423.063.338.042.7.092,1.078.148.183.028.366.057.563.092h.007c1.036.162,2.192.359,3.467.6.8.148,1.627.31,2.508.493,1.325.268,2.748.585,4.256.937.141.042.289.092.43.141.753.232,1.493.493,2.219.761a46.191,46.191,0,0,1,6.94,3.227l.007.007C-719.046-1118.964-715.283-1111.108-722.688-1110.122Z"/><path class="s" d="M-729.276-1124.819a14.356,14.356,0,0,0-10.294,10.463s-4.706-.867-10.04-1.649l-1.4-.19c-.852-.12-1.719-.24-2.579-.346-.739-.091-1.472-.176-2.184-.253-3.959-.423-7.384-.578-8.5-.05-3.015,1.424-21.743,4.982-21.539.444a2.271,2.271,0,0,1,.141-.634c.007-.014.007-.021.014-.035a5.343,5.343,0,0,0,.219-.86c.007-.007.007-.007.007-.014,1.522-5.34,5.207-10.984,6.024-10.5,10.935,6.51,21.63-1.19,23.835-2.945.275-.218.416-.345.416-.345s.416.028,1.205.106c.43.049.979.112,1.628.19.352.042.732.091,1.148.148.141.021.282.035.423.063.338.042.7.092,1.078.148.183.028.366.057.563.092h.007c1.036.162,2.192.359,3.467.6.8.148,1.627.31,2.508.493,1.325.268,2.748.585,4.256.937.141.042.289.092.43.141.753.232,1.493.493,2.219.761a46.191,46.191,0,0,1,6.94,3.227Z"/><path class="t" d="M-749.673-1131.076c-.205.19-.493.465-.846.825a20.968,20.968,0,0,0-3.311,4.234,9.89,9.89,0,0,0-.768,1.649c-.078.218-.141.444-.2.669l-2.051-.5a10.775,10.775,0,0,1,1.071-2.663v-.008a15.727,15.727,0,0,1,.994-1.585,23.509,23.509,0,0,1,2.459-2.98c.352.042.732.091,1.148.148.141.021.282.035.423.063C-750.413-1131.182-750.054-1131.132-749.673-1131.076Z"/><path class="t" d="M-743.128-1129.892c-1.176,1.106-4.2,4.192-4.925,7.194l-2.057-.5c.683-2.818,2.91-5.545,4.474-7.186C-744.84-1130.237-744.009-1130.075-743.128-1129.892Z"/><path class="t" d="M-736.223-1128.053c-1.374,1.367-3.8,4.072-4.439,6.721l-2.05-.5c.648-2.7,2.727-5.326,4.27-6.982C-737.689-1128.582-736.949-1128.321-736.223-1128.053Z"/><path class="u" d="M-753.591-1116.541a8.662,8.662,0,0,1-1.662,1.071,12.086,12.086,0,0,0-4.968,4.806c-1.247,2.17-1.634,4.354-1.2,5.5l-1.318.5c-.521-1.366-.268-3.494.733-5.664a13.626,13.626,0,0,1,6.115-6.4c.036-.021.078-.042.113-.063,3.509-1.825,2.931-3.918,1.177-7.574-.1-.212-.2-.43-.317-.656-.2-.4-.4-.81-.585-1.218-.1-.212-.19-.423-.275-.628a4.97,4.97,0,0,1-.211-3.8,3.3,3.3,0,0,1,.415-.712c.275-.218.416-.345.416-.345s.416.028,1.205.106l.19.556a1.8,1.8,0,0,0-.944.965,2.835,2.835,0,0,0-.077,1.649,6.913,6.913,0,0,0,.549,1.614l.4.824c.063.127.12.254.183.373C-752.076-1122.424-750.455-1119.1-753.591-1116.541Z"/><path class="u" d="M-745.96-1123.445a26.513,26.513,0,0,1-1.8,3.572,19.107,19.107,0,0,0-1.853,3.868,6.076,6.076,0,0,0,.557,4.939l-.62.338h-.007l-.613.331c-.071-.127-.134-.253-.2-.38a7.332,7.332,0,0,1-.521-5.418,19.553,19.553,0,0,1,2.029-4.376,24.054,24.054,0,0,0,1.7-3.375,3.8,3.8,0,0,0,.24-1.169,4.317,4.317,0,0,0-.825-2.607,9.849,9.849,0,0,0-2.656-2.529c-.338-.226-.556-.353-.57-.36l.338-.613c.338.042.7.092,1.078.148.183.028.366.057.563.092h.007a11.342,11.342,0,0,1,2.149,2.085,6.791,6.791,0,0,1,1.092,2.029A5.045,5.045,0,0,1-745.96-1123.445Z"/><path class="r" d="M-941.9-1107.711c6,.8,18.15-.113,26.985-.606h.007c.282-.021.543-.035.811-.05,4.608-.246,8.187-.359,9.286-.007a4.5,4.5,0,0,0,.444.12c.437.106,1.043.226,1.782.338,6.666,1.036,23.878,2.065,24.09-3.107a12.734,12.734,0,0,0-.282-2.966c-.043-.211-.085-.423-.141-.634-.007-.014-.007-.021-.014-.035-.064-.282-.134-.571-.219-.86-.007-.007-.007-.007-.007-.014-1.522-5.341-5.207-10.984-6.024-10.5-10.935,6.51-21.63-1.191-23.835-2.945-.275-.219-.416-.345-.416-.345s-.416.028-1.2.1c-.43.05-.979.113-1.627.19-.353.043-.733.092-1.149.148-.141.022-.282.036-.423.064q-.507.063-1.078.148c-.183.028-.366.056-.563.091h-.007q-1.554.243-3.467.6c-.8.148-1.627.31-2.508.493-1.325.268-2.748.585-4.256.938-.141.042-.289.091-.429.14-.754.233-1.494.494-2.22.761a46.381,46.381,0,0,0-6.94,3.227l-.007.007C-945.54-1116.554-949.3-1108.7-941.9-1107.711Z"/><path class="s" d="M-935.31-1122.409a14.357,14.357,0,0,1,10.294,10.463s4.706-.866,10.04-1.648c.458-.064.93-.127,1.4-.191.853-.119,1.719-.239,2.579-.345.74-.092,1.472-.176,2.184-.254,3.96-.422,7.384-.577,8.5-.049,3.016,1.423,21.743,4.981,21.539.444a2.263,2.263,0,0,0-.141-.634c-.007-.014-.007-.021-.014-.035a5.343,5.343,0,0,1-.219-.86c-.007-.007-.007-.007-.007-.014-1.522-5.341-5.207-10.984-6.024-10.5-10.935,6.51-21.63-1.191-23.835-2.945-.275-.219-.416-.345-.416-.345s-.416.028-1.2.1c-.43.05-.979.113-1.627.19-.353.043-.733.092-1.149.148-.141.022-.282.036-.423.064q-.507.063-1.078.148c-.183.028-.366.056-.563.091h-.007q-1.554.243-3.467.6c-.8.148-1.627.31-2.508.493-1.325.268-2.748.585-4.256.938-.141.042-.289.091-.429.14-.754.233-1.494.494-2.22.761a46.381,46.381,0,0,0-6.94,3.227Z"/><path class="t" d="M-914.913-1128.665c.205.19.494.465.846.824a20.973,20.973,0,0,1,3.311,4.235,9.917,9.917,0,0,1,.768,1.648c.078.219.141.444.2.67l2.05-.5a10.79,10.79,0,0,0-1.071-2.663v-.007a15.6,15.6,0,0,0-.994-1.585,23.539,23.539,0,0,0-2.458-2.981c-.353.043-.733.092-1.149.148-.141.022-.282.036-.423.064Q-914.342-1128.75-914.913-1128.665Z"/><path class="t" d="M-921.458-1127.482c1.177,1.107,4.2,4.193,4.925,7.194l2.057-.5c-.683-2.818-2.91-5.545-4.474-7.187C-919.746-1127.827-920.577-1127.665-921.458-1127.482Z"/><path class="t" d="M-928.363-1125.643c1.374,1.367,3.8,4.073,4.439,6.722l2.05-.5c-.648-2.706-2.726-5.327-4.269-6.983C-926.9-1126.171-927.637-1125.91-928.363-1125.643Z"/><path class="n" d="M-771.423-1494.013s0-43.684-3.523-45.8,38.751-9.864,45.092,2.113,0,40.161-2.818,39.456S-771.423-1494.013-771.423-1494.013Z"/><path class="e" d="M-766.728-1578.389c-.69-.911-11.635-9.555-13.753-15.25s-4.563-14.4-6.4-17.146c-2.166-3.227-.567-4.609,2.44-1.027,1.955,2.328,5.307,7.269,5.664,8.465.174.58-1.414-3.076-3.527-6.947-2.247-4.115-5.008-8.493-4.051-8.98,1.854-.944,9.345,10.641,10.2,12.805a45.4,45.4,0,0,0-2.353-5.679c-1.255-2.512-3.208-5.254-2.644-6.044.89-1.244,5.918,4.612,8.261,9.93.255.036.18-1.862-3.157-7.967-.336-.613-.373-2.391,1.43-.569,3.795,3.836,5.82,5.217,7.679,11.738,1.814,6.36,1.86,13.816,4.678,18.748Z"/><path class="v" d="M-794.355-1604.327l1.378.172,32.341-10.636.928.26,1.4,3.376-.54,1.3-30.294,14.945-.85,1.1s-3.771-.82-3.989-.73S-794.355-1604.327-794.355-1604.327Z"/><path class="u" d="M-758.905-1610.989l-1.344-3.235a1.7,1.7,0,0,0-2.144-.947l-30.584,11.016,3.837,9.243,29.392-13.89A1.7,1.7,0,0,0-758.905-1610.989Z"/><path class="u" d="M-755.881-1612.808l-.944-2.274-2.882.551,1.4,3.375Z"/><path class="u" d="M-808.6-1592.142l-.076-.181a9.7,9.7,0,0,1,5.241-12.684l.181-.076a9.7,9.7,0,0,1,8.9.756l4.365,10.512a9.694,9.694,0,0,1-5.748,6.839l-.181.075A9.7,9.7,0,0,1-808.6-1592.142Z"/><rect class="w" width="4.313" height="1.735" rx="0.859" transform="matrix(0.924, -0.384, 0.384, 0.924, -787.843, -1601.702)"/><rect class="v" width="4.313" height="1.735" rx="0.859" transform="matrix(0.924, -0.384, 0.384, 0.924, -787.843, -1601.702)"/><path class="e" d="M-702.672-1527.328c-13.018-20.478-47.048-46.186-56.356-55.533a26.6,26.6,0,0,1-11.208,1.8c.2.258.387.513.573.761,5.27,10.261,21.975,35.726,33.389,50.92,6.705,2.04,16.55,4.968,17.542,4.816,1.513-.23-.129,11.792.113,13.135.165.9-4.31,15.988-7.369,24.411C-715.531-1493.6-691.131-1509.194-702.672-1527.328Z"/><path class="l" d="M-705.18-1466.486a35.016,35.016,0,0,1-17.628,9.815c-40.161,9.159-57.775,2.113-57.775,2.113l4.707,23.674-23.73-8.173s29.592-52.138,31.705-66.934a262.436,262.436,0,0,0,2.114-31.706s12.168,2.607,27.056,5c4.4.711,9.039,1.4,13.668,1.994,7.5.965,14.965,1.691,21.384,1.86,5.77.155,10.681-.134,13.986-1.1C-689.693-1529.947-684.987-1487.137-705.18-1466.486Z"/><path class="e" d="M-779.054-1591s-7.9-3.206-10.358-8.5c-1.461-3.148-2.513-2.787-2.97-3.269-1.515-1.6,3.4-.962,5.225,1.556,1.487,2.047,6.817,2,8.216,3.1s4.35,4.7,3.909,5.917S-779.054-1591-779.054-1591Z"/><path class="e" d="M-762.264-1586.312l7.136,7.093-13.517.83s.347-.858-4.1-5.522,3.976-5.054,3.976-5.054Z"/><path class="d" d="M-469.033-1694.644c18.857,189.3-10,204.14-10,204.14s-8.667,2.517-28.6,4.6c-19.535,2.041-114.874-14.338-114.874-14.338s8.967-.85,10.049-19.184c1.083-18.356,0-173.9,0-173.9s145.937-10.412,145.1-9.48Z"/><path class="x" d="M-477.355-1612.27c0-34.822-27.634-60.423-60.685-57.28-31.959,3.039-57.1,31.991-57.1,64.756s25.142,58.525,57.1,57.507C-504.989-1548.339-477.355-1577.448-477.355-1612.27Z"/><path class="y" d="M-512.233-1610.056c0-14.809-11.639-25.915-25.807-24.822-13.964,1.077-25.136,13.632-25.136,28.055s11.172,25.56,25.136,24.865C-523.872-1582.664-512.233-1595.248-512.233-1610.056Z"/><path class="d" d="M-530.1-1608.922a7.473,7.473,0,0,0-7.936-7.708,8.715,8.715,0,0,0-7.872,8.711,7.477,7.477,0,0,0,7.872,7.712A8.706,8.706,0,0,0-530.1-1608.922Z"/><path class="z" d="M-481.7-1611.994c0-32.326-25.623-56.151-56.335-53.3-29.767,2.765-53.233,29.707-53.233,60.252s23.466,54.509,53.233,53.495C-507.328-1552.59-481.7-1579.668-481.7-1611.994Z"/><path class="aa" d="M-498.991-1610.9c0-22.406-17.676-39.085-39.049-37.289-20.911,1.757-37.533,20.613-37.533,42.15s16.622,38.282,37.533,37.385C-516.667-1569.568-498.991-1588.49-498.991-1610.9Z"/><path class="ab" d="M-485.956-1611.724c0-29.886-23.662-51.967-52.084-49.389-27.611,2.505-49.421,27.473-49.421,55.831s21.81,50.558,49.421,49.558C-509.618-1556.753-485.956-1581.838-485.956-1611.724Z"/><path class="ac" d="M-489.463-1611.5c0-27.875-22.047-48.51-48.577-46.151-25.822,2.3-46.253,25.629-46.253,52.169s20.431,47.279,46.253,46.3C-511.51-1560.193-489.463-1583.627-489.463-1611.5Z"/><path class="ad" d="M-492.827-1611.288c0-25.944-20.5-45.187-45.213-43.032-24.1,2.1-43.193,23.858-43.193,48.643s19.1,44.118,43.193,43.161C-513.328-1563.5-492.827-1585.344-492.827-1611.288Z"/><path class="ae" d="M-495.579-1611.113c0-24.365-19.239-42.465-42.461-40.473-22.678,1.946-40.674,22.41-40.674,45.749s18,41.519,40.674,40.586C-514.818-1566.206-495.579-1586.749-495.579-1611.113Z"/><path class="af" d="M-507.852-1610.334c0-17.322-13.632-30.282-30.188-28.967-16.278,1.294-29.274,15.943-29.274,32.74s13,29.8,29.274,29.025C-521.484-1578.322-507.852-1593.012-507.852-1610.334Z"/><path class="ag" d="M-577.3-1527.116c5.989-.131,10.837-5.47,10.705-11.833-.241-11.654-.445-28.091.283-29.465,1.137-2.148,2.276-7,5.416-8.65s11.213-18.372,13.24-21.514.87-9.74-3.472-6.14c-2.128,1.764-3.536,4.193-4.987,6.526-.543.874-4.609,7.131-4.781,4.6-.741-10.859-.443-21.945-.557-32.861a3.193,3.193,0,0,0-.129-1.056,2.478,2.478,0,0,0-.554-.818c-2.439-2.624-5.336-3.1-6.163,1.322-.728,3.891-.372,8.137-.375,12.046,0,5.113,1.4,10.715.083,15.809a1.832,1.832,0,0,1-.432.891,1.134,1.134,0,0,1-1.678-.342,3.736,3.736,0,0,1-.378-1.975q-.115-14.517-.027-29.047c.024-3.986-6.139-4.5-7.3-.538a11.6,11.6,0,0,0-.285,3.581l.45,17.565a83.469,83.469,0,0,1,.22,8.577c-.265,3.334-1.964,1.129-2.1-.944-.534-8.175-.63-16.431-.888-24.639a2.109,2.109,0,0,0-.2-1.023,1.8,1.8,0,0,0-.676-.571c-1.066-.629-2.31-1.384-3.612-.818a3.959,3.959,0,0,0-2.044,2.972c-.648,3.633.351,8.161.587,11.777.266,4.089.509,8.184.546,12.3A4.992,4.992,0,0,1-587-1598.5c-.087.127-.219.259-.357.222a.355.355,0,0,1-.186-.184c-1.294-2.21-1.434-5.094-1.808-7.645q-.512-3.5-1.023-6.991c-.225-1.54-.2-4.153-1.233-5.354-1.9-2.2-3.533,1.159-3.533,3.184,0,3.837,1.656,22.337,1.656,27.654s2.212,14.668,4.984,18.094l.619,31.644C-587.763-1531.774-583.073-1526.99-577.3-1527.116Z"/><path class="ah" d="M-482.468-1689.807a1.112,1.112,0,0,1,1.648.684,3.721,3.721,0,0,1-.285,2.145,4.276,4.276,0,0,1-1.571-3.915,1.371,1.371,0,0,1,.247-.71c.561-.7,1.572-.047,1.976.665a3.487,3.487,0,0,1,.435,3.033c-.429,1.027-1.951,1.63-2.573.822a1.628,1.628,0,0,1,.2-1.9,3.949,3.949,0,0,1,1.745-1.149c.588.753-.564,2.175-1.431,1.768a1.339,1.339,0,0,1,1.157-1.436,1.061,1.061,0,0,1,1.057,1.294,1.684,1.684,0,0,1-2.406.867,4.053,4.053,0,0,1-1.456-2.346,1.36,1.36,0,0,1-.039-1.1,1.2,1.2,0,0,1,.337-.362,1.853,1.853,0,0,1,2.579.206c.693,1.012-.335,2.777-1.611,2.855a1.917,1.917,0,0,1-1.71-2.64,2.521,2.521,0,0,1,3.469-1.278,2.584,2.584,0,0,1,.278,3.682,1.6,1.6,0,0,1-1.167.657,1.052,1.052,0,0,1-.721-1.6,1.521,1.521,0,0,1,1.906-.584,1.813,1.813,0,0,1,.875,1.781"/><path class="ah" d="M-601.595-1682.449c.159.774.149,1.881-.582,2.148a.916.916,0,0,1-.681-.046,1.719,1.719,0,0,1-.106-2.777,1.3,1.3,0,0,1,1.909,1.47c-.35,1.075-2.021,1.237-2.365.233s.929-2.281,1.825-1.834c.141.81-.014,1.966-.788,2.153-.641.155-1.123-.658-.932-1.341a2.362,2.362,0,0,1,1.434-1.425c.727-.3,1.722-.253,1.926.509.221.822-.655,1.588-1.407,2.01a1.521,1.521,0,0,1-1.127.287c-.711-.223-.622-1.385-.185-2.1a3.914,3.914,0,0,1,2.9-1.891c.405-.034.9.1.944.523a1.215,1.215,0,0,1-.4.837,4.393,4.393,0,0,1-2.367,1.749,1.288,1.288,0,0,1-1.346-1.818,2.078,2.078,0,0,1,1.643-.773"/><path class="ai" d="M-495.791-1542.413l3.778-7.54-15.183,35.12c-.793,1.835-1.892,3.919-3.819,4.218a178.788,178.788,0,0,1,6.8-56.018"/><path class="ai" d="M-520.328-1530.5a28.149,28.149,0,0,0-3.8,10.134,20.343,20.343,0,0,0,1.533-8.621c-.052-1.241-.523-2.787-1.724-2.853-2.869,2.581-2.039,7.964-5.122,10.238l-.692-1.214"/><path class="ai" d="M-532.138-1537.788a104.061,104.061,0,0,0,9.907-37.474,321.788,321.788,0,0,0-9.888,35.137c-1.391,6.3-3.071,13.371-8.391,16.73a1.66,1.66,0,0,1-.619-1.314"/><path class="ai" d="M-540.8-1542.083a13.383,13.383,0,0,1,1-4.934q-1.316,6.01-2.962,11.93c-.5,1.794-1.373,3.912-3.141,4.157a39.368,39.368,0,0,1,1.374-17.935l-9.786,57.014c6.4-5.68,8.559-15.2,8.2-23.969s-2.812-17.233-3.955-25.89"/><path class="ai" d="M-517.188-1516.311a28.589,28.589,0,0,1,.79-10.079,37.315,37.315,0,0,1-2.9,10.39"/><path class="ai" d="M-515.262-1528.861"/><path class="p" d="M-1337.966-1278.8-1355.9-1399.7l-4.645,1.658,18.037,120.2a2.318,2.318,0,0,0,3.528,1.468h0A2.318,2.318,0,0,0-1337.966-1278.8Z"/><path class="p" d="M-1589.2-1371.221l-12.77,146.526a3.187,3.187,0,0,1-3.266,2.918h0a3.186,3.186,0,0,1-3.084-3.462l13.262-146.253Z"/><path class="p" d="M-1382.9-1396.322l-.147,97.838a2.34,2.34,0,0,1-2.433,2.335h0a2.34,2.34,0,0,1-2.249-2.342l.158-98.064Z"/><path class="p" d="M-1615.662-1365.631l-27.331,115.2a3.57,3.57,0,0,1-5.411,2.174h0a3.571,3.571,0,0,1-1.519-3.891l30.363-117.558Z"/><path class="p" d="M-1320.758-1401.7l-294.9,36.066.145-20.428,294.759-29.286Z"/><path class="p" d="M-1615.517-1386.059l-30.744-33.151-.249,31.675,30.848,21.9Z"/><path class="u" d="M-1320.758-1415.345l-39.74-27.575-285.763,23.71,30.744,33.151Z"/><path class="d" d="M-1341.65-1429.842l-287.25,29.352,13.383,14.431,294.759-29.286Z"/><path class="aj" d="M-1333.951-1421.5l-10.862-8.032-2.313.236,9.942,7.625Z"/><path class="ak" d="M-1333.951-1421.5v1.884l-3.117-.164-.115-1.891Z"/><path class="al" d="M-1337.184-1421.675l-9.942-7.625v1.676l10.058,7.84Z"/><path class="aj" d="M-1340.537-1420.874l-10.877-8.037-2.316.237,9.956,7.63Z"/><path class="ak" d="M-1340.537-1420.874v1.885l-3.122-.164-.115-1.892Z"/><path class="al" d="M-1343.774-1421.045l-9.956-7.63V-1427l10.071,7.845Z"/><path class="aj" d="M-1346.8-1420.182l-10.89-8.042-2.32.237,9.968,7.634Z"/><path class="ak" d="M-1346.8-1420.182v1.887l-3.126-.164-.115-1.894Z"/><path class="al" d="M-1350.038-1420.353l-9.968-7.634,0,1.678,10.084,7.85Z"/><path class="aj" d="M-1353.737-1419.481l-10.905-8.047-2.323.237,9.982,7.64Z"/><path class="ak" d="M-1353.737-1419.481v1.888l-3.131-.164-.114-1.9Z"/><path class="al" d="M-1356.984-1419.652l-9.982-7.64,0,1.679,10.1,7.855Z"/><path class="aj" d="M-1360.352-1418.848l-10.92-8.053-2.327.238,9.995,7.645Z"/><path class="ak" d="M-1360.352-1418.848l0,1.89-3.135-.164-.114-1.9Z"/><path class="al" d="M-1363.6-1419.019l-9.995-7.645,0,1.681,10.111,7.86Z"/><path class="aj" d="M-1366.638-1418.154l-10.934-8.058-2.33.238,10.008,7.649Z"/><path class="ak" d="M-1366.638-1418.154l0,1.891-3.14-.164-.114-1.9Z"/><path class="al" d="M-1369.894-1418.324l-10.008-7.649,0,1.682,10.124,7.865Z"/><path class="aj" d="M-1372.818-1417.71l-10.947-8.062-2.333.238,10.02,7.654Z"/><path class="ak" d="M-1372.818-1417.71l0,1.892-3.144-.163-.114-1.9Z"/><path class="al" d="M-1376.078-1417.88l-10.02-7.654,0,1.683,10.136,7.87Z"/><path class="aj" d="M-1379.46-1417.074l-10.962-8.068-2.336.239,10.033,7.659Z"/><path class="ak" d="M-1379.46-1417.074l0,1.894-3.148-.164-.114-1.9Z"/><path class="al" d="M-1382.725-1417.244l-10.033-7.659,0,1.684,10.15,7.875Z"/><path class="aj" d="M-1385.773-1416.377l-10.975-8.073-2.34.239,10.046,7.664Z"/><path class="ak" d="M-1385.773-1416.377l0,1.9-3.153-.163-.114-1.9Z"/><path class="al" d="M-1389.043-1416.547l-10.046-7.664,0,1.685,10.163,7.88Z"/><path class="aj" d="M-1391.3-1415.592l-10.987-8.077-2.343.239,10.057,7.668Z"/><path class="ak" d="M-1391.3-1415.592l0,1.9-3.156-.163-.114-1.9Z"/><path class="al" d="M-1394.576-1415.762l-10.057-7.668,0,1.687,10.174,7.884Z"/><path class="aj" d="M-1397.973-1414.954l-11-8.082-2.346.24,10.07,7.673Z"/><path class="ak" d="M-1397.973-1414.954l0,1.9-3.161-.163-.113-1.9Z"/><path class="al" d="M-1401.25-1415.124l-10.07-7.673,0,1.688,10.187,7.889Z"/><path class="aj" d="M-1404.312-1414.254l-11.016-8.087-2.349.24,10.083,7.677Z"/><path class="ak" d="M-1404.312-1414.254l0,1.9-3.165-.163-.113-1.906Z"/><path class="al" d="M-1407.594-1414.424l-10.083-7.677,0,1.689,10.2,7.894Z"/><path class="aj" d="M-1411-1413.828l-11.031-8.093-2.353.24,10.1,7.683Z"/><path class="ak" d="M-1411-1413.828l0,1.9-3.17-.163-.113-1.907Z"/><path class="al" d="M-1414.287-1414l-10.1-7.683,0,1.69,10.214,7.9Z"/><path class="aj" d="M-1417.7-1413.187l-11.045-8.1-2.356.241,10.109,7.688Z"/><path class="ak" d="M-1417.7-1413.187l0,1.9-3.174-.163-.113-1.909Z"/><path class="al" d="M-1420.99-1413.357l-10.109-7.688,0,1.692,10.227,7.9Z"/><path class="aj" d="M-1424.064-1412.485l-11.059-8.1-2.359.241,10.122,7.693Z"/><path class="ak" d="M-1424.064-1412.485l0,1.9-3.179-.163-.113-1.91Z"/><path class="al" d="M-1427.36-1412.654l-10.122-7.693,0,1.693,10.24,7.91Z"/><path class="aj" d="M-1429.969-1411.872l-11.072-8.108-2.362.241,10.134,7.7Z"/><path class="ak" d="M-1429.969-1411.872l-.005,1.9-3.183-.163-.113-1.911Z"/><path class="al" d="M-1433.269-1412.041l-10.134-7.7-.005,1.694,10.252,7.914Z"/><path class="aj" d="M-1436.694-1411.228l-11.087-8.113-2.366.242,10.148,7.7Z"/><path class="ak" d="M-1436.694-1411.228l-.005,1.906-3.187-.163-.113-1.913Z"/><path class="al" d="M-1440-1411.4l-10.148-7.7-.005,1.7,10.266,7.919Z"/><path class="aj" d="M-1443.087-1410.522l-11.1-8.118-2.369.242,10.161,7.707Z"/><path class="ak" d="M-1443.087-1410.522l-.006,1.907-3.192-.162-.113-1.914Z"/><path class="al" d="M-1446.4-1410.692l-10.161-7.707-.006,1.7,10.279,7.924Z"/><path class="aj" d="M-1449.622-1409.921l-11.116-8.123-2.373.242,10.174,7.712Z"/><path class="ak" d="M-1449.622-1409.921l-.006,1.909-3.2-.162-.112-1.915Z"/><path class="al" d="M-1452.936-1410.09l-10.174-7.712-.006,1.7,10.292,7.929Z"/><path class="aj" d="M-1456.376-1409.274l-11.13-8.128-2.376.243,10.187,7.717Z"/><path class="ak" d="M-1456.376-1409.274l-.006,1.91-3.2-.162-.112-1.917Z"/><path class="al" d="M-1459.7-1409.443l-10.187-7.717-.006,1.7,10.306,7.935Z"/><path class="aj" d="M-1462.8-1408.566l-11.145-8.133-2.379.243,10.2,7.722Z"/><path class="ak" d="M-1462.8-1408.566l-.007,1.911-3.205-.162-.112-1.918Z"/><path class="al" d="M-1466.121-1408.734l-10.2-7.722-.006,1.7,10.319,7.94Z"/><path class="aj" d="M-1469.57-1408.133l-11.159-8.139-2.383.243,10.214,7.727Z"/><path class="ak" d="M-1469.57-1408.133l-.007,1.913-3.21-.162-.112-1.92Z"/><path class="al" d="M-1472.9-1408.3l-10.214-7.727-.007,1.7,10.332,7.945Z"/><path class="aj" d="M-1476.355-1407.484l-11.174-8.144-2.386.244,10.228,7.732Z"/><path class="ak" d="M-1476.355-1407.484l-.007,1.914-3.214-.162-.112-1.921Z"/><path class="al" d="M-1479.688-1407.652l-10.228-7.732-.007,1.7,10.346,7.95Z"/><path class="aj" d="M-1482.8-1406.773l-11.189-8.149-2.39.244,10.24,7.737Z"/><path class="ak" d="M-1482.8-1406.773l-.008,1.916-3.219-.162-.112-1.922Z"/><path class="al" d="M-1486.141-1406.941l-10.24-7.737-.007,1.7,10.359,7.955Z"/><path class="aj" d="M-1489.956-1405.4l-11.2-8.154-2.394.245,10.255,7.742Z"/><path class="ak" d="M-1489.956-1405.4l-.008,1.917-3.224-.161-.111-1.924Z"/><path class="al" d="M-1493.3-1405.565l-10.255-7.742-.007,1.705,10.374,7.96Z"/><path class="aj" d="M-1496.771-1404.744l-11.22-8.16-2.4.245,10.269,7.747Z"/><path class="ak" d="M-1496.771-1404.744l-.008,1.919-3.229-.161-.111-1.925Z"/><path class="al" d="M-1500.119-1404.912l-10.269-7.747-.008,1.706,10.388,7.966Z"/><path class="aj" d="M-1503.248-1404.03l-11.234-8.165-2.4.245,10.282,7.752Z"/><path class="ak" d="M-1503.248-1404.03l-.008,1.92-3.233-.161-.111-1.927Z"/><path class="al" d="M-1506.6-1404.2l-10.282-7.752-.008,1.708,10.4,7.971Z"/><path class="aj" d="M-1510.083-1403.206l-11.249-8.17-2.4.246,10.3,7.757Z"/><path class="ak" d="M-1510.083-1403.206l-.009,1.922-3.238-.161-.111-1.928Z"/><path class="al" d="M-1513.44-1403.373l-10.3-7.757-.008,1.709,10.415,7.976Z"/><path class="aj" d="M-1516.927-1402.55l-11.265-8.175-2.408.246,10.31,7.762Z"/><path class="ak" d="M-1516.927-1402.55l-.009,1.923-3.243-.161-.111-1.93Z"/><path class="al" d="M-1520.289-1402.717l-10.31-7.762-.009,1.71,10.429,7.981Z"/><path class="aj" d="M-1523.433-1401.832l-11.279-8.18-2.411.246L-1526.8-1402Z"/><path class="ak" d="M-1523.433-1401.832l-.009,1.924-3.247-.161-.111-1.931Z"/><path class="al" d="M-1526.8-1402l-10.323-7.767-.009,1.712,10.443,7.986Z"/><path class="aj" d="M-1530.647-1400.983l-11.3-8.186-2.415.247,10.337,7.772Z"/><path class="ak" d="M-1530.647-1400.983l-.01,1.926-3.252-.161-.111-1.932Z"/><path class="al" d="M-1534.02-1401.15l-10.337-7.772-.009,1.713,10.457,7.991Z"/><path class="aj" d="M-1537.522-1400.323l-11.31-8.191-2.418.247,10.351,7.777Z"/><path class="ak" d="M-1537.522-1400.323l-.01,1.927-3.257-.161-.11-1.934Z"/><path class="al" d="M-1540.9-1400.491l-10.351-7.777-.01,1.714,10.471,8Z"/><path class="aj" d="M-1544.057-1399.6l-11.325-8.2-2.422.247,10.365,7.782Z"/><path class="ak" d="M-1544.057-1399.6l-.01,1.929-3.261-.16-.11-1.936Z"/><path class="al" d="M-1547.438-1399.77l-10.365-7.782-.01,1.716,10.485,8Z"/><path class="aj" d="M-1552.042-1399.214l-11.343-8.2-2.426.248,10.381,7.788Z"/><path class="ak" d="M-1552.042-1399.214l-.011,1.931-3.267-.161-.11-1.937Z"/><path class="al" d="M-1555.429-1399.381l-10.381-7.788-.01,1.717,10.5,8.008Z"/><path class="aj" d="M-1558.948-1398.552l-11.358-8.208-2.43.248,10.395,7.793Z"/><path class="ak" d="M-1558.948-1398.552l-.011,1.932-3.272-.16-.11-1.939Z"/><path class="al" d="M-1562.341-1398.719l-10.395-7.793-.01,1.718,10.515,8.014Z"/><path class="aj" d="M-1565.513-1397.828l-11.373-8.214-2.433.249,10.408,7.8Z"/><path class="ak" d="M-1565.513-1397.828l-.011,1.933-3.276-.16-.11-1.94Z"/><path class="al" d="M-1568.91-1397.995l-10.408-7.8-.011,1.719,10.529,8.019Z"/><path class="aj" d="M-1573.521-1397.127l-11.39-8.22-2.437.249,10.424,7.8Z"/><path class="ak" d="M-1573.521-1397.127l-.012,1.935-3.282-.16-.11-1.942Z"/><path class="al" d="M-1576.925-1397.293l-10.424-7.8-.011,1.721,10.545,8.025Z"/><path class="aj" d="M-1580.46-1396.462l-11.406-8.225-2.441.249,10.439,7.809Z"/><path class="ak" d="M-1580.46-1396.462l-.012,1.937-3.286-.16-.109-1.943Z"/><path class="al" d="M-1583.868-1396.628l-10.439-7.809-.011,1.722,10.559,8.03Z"/><path class="aj" d="M-1587.055-1395.735l-11.421-8.23-2.444.25,10.452,7.814Z"/><path class="ak" d="M-1587.055-1395.735l-.012,1.938-3.291-.16-.109-1.945Z"/><path class="al" d="M-1590.468-1395.9l-10.452-7.814-.012,1.724,10.573,8.035Z"/><path class="aj" d="M-1594.832-1394.393l-11.438-8.236-2.448.25,10.468,7.82Z"/><path class="ak" d="M-1594.832-1394.393l-.013,1.94-3.3-.16-.109-1.946Z"/><path class="al" d="M-1598.25-1394.559l-10.468-7.82-.012,1.725,10.589,8.041Z"/><path class="aj" d="M-1601.8-1393.725l-11.454-8.242-2.452.25,10.482,7.825Z"/><path class="ak" d="M-1601.8-1393.725l-.013,1.941-3.3-.159-.109-1.948Z"/><path class="al" d="M-1605.226-1393.891l-10.482-7.825-.012,1.726,10.6,8.046Z"/><path class="aj" d="M-1608.428-1392.994l-11.469-8.247-2.456.251,10.5,7.83Z"/><path class="ak" d="M-1608.428-1392.994l-.014,1.943-3.306-.159-.109-1.949Z"/><path class="al" d="M-1611.856-1393.16l-10.5-7.83-.013,1.728,10.617,8.051Z"/></g></svg>