<svg xmlns="http://www.w3.org/2000/svg" xmlns:xlink="http://www.w3.org/1999/xlink" width="528" height="322.067" viewBox="0 0 528 322.067"><defs><style>.a,.d,.k{fill:none;}.b{fill:#b6d7db;opacity:0.49;}.c{clip-path:url(#a);}.d{stroke:#000;stroke-width:12.476px;}.d,.k{stroke-miterlimit:10;}.e{fill:#ccc;}.f{opacity:0.18;}.g{clip-path:url(#b);}.h{fill:#edba49;}.i{opacity:0.3;}.j{opacity:0.5;}.k{stroke:#947dce;stroke-width:0.837px;}.l{opacity:0.2;}.m{fill:#d8a35d;}.n,.v{fill:#62548a;}.o{fill:#d19442;}.p{fill:#ffc84f;}.q,.u{fill:#947dce;}.r{opacity:0.15;}.s{fill:#060606;}.t{opacity:0.1;}.u{font-size:20px;}.u,.v,.w{font-family:BPGArial, BPG Arial;}.v{font-size:8px;}.w{fill:#c5cbcd;font-size:15px;}</style><clipPath id="a"><path class="a" d="M828.133,424.346c28-6.065,15.2-74.776,52.322-93.432,35.178-17.679,103.912,15.263,125.821,61.042,8.33,17.4,6.35,29.267,19.932,42.356,19.9,19.182,40.786,9.741,67.271,21.178,33.478,14.456,64.954,57.543,59.8,103.4-4.279,38.035-35.232,72.479-71.007,84.712-68.2,23.318-104.354-50.877-215.515-53.567-69.272-1.677-82.139,26.485-133.3,11.211-44.4-13.256-114.149-58.186-107.134-124.575,7.027-66.516,86.334-109.362,133.3-97.169C795.647,388.854,806.534,429.023,828.133,424.346Z" transform="translate(-625.831 -326.059)"/></clipPath><clipPath id="b"><path class="a" d="M908.9,587.992s-.7-15.586,1.141-17.759,63.444-15.523,63.444-15.523l17.678,14.236Z" transform="translate(-908.768 -554.711)"/></clipPath></defs><g transform="translate(-625.831 -326.059)"><path class="b" d="M828.578,424.146c18.862-2.221,20.429-32.981,23.925-47.042,4.448-17.9,10.733-37.3,28.411-46.19,35.178-17.679,103.912,15.264,125.821,61.042,8.33,17.4,6.35,29.267,19.932,42.356,19.9,19.182,40.786,9.741,67.271,21.178,33.478,14.456,64.954,57.543,59.8,103.4-4.279,38.035-35.232,72.479-71.007,84.712-68.2,23.318-104.354-50.877-215.515-53.567-43.029-1.042-88.549-11.412-126.661-31.679-14.819-7.88-31.368-18.429-41.148-32.425-22.913-32.791-19.485-70.68-2.86-103.242,15.059-29.5,51.157-44.635,77.077-23.254,12.856,10.606,34.946,26.013,53.979,24.8Q828.1,424.2,828.578,424.146Z" transform="translate(-0.459 0)"/><g transform="translate(625.831 326.059)"><g class="c"><g transform="translate(114.454 67.354)"><line class="d" y2="99.31" transform="translate(283.688 213.929)"/><path class="e" d="M1080.845,566.269c-4.618,14.661-14.759,27.276-27.517,35.716a58.293,58.293,0,0,1-12.346,6.176c-12,4.382-25.17,5.138-38.048,4.717-1.887-.061-23.431-.867-24.034-5.809-.735-6.005,29.859-14.676,55.428-20.989,11.436-10.015,16.488-19.971,18.923-26.393.877-2.32,2.7-7.564,5.09-29.036.987-8.89,1.64-16.656,2.078-22.9.132-1.909.247-3.674.345-5.287C1081.307,515.732,1087.943,543.71,1080.845,566.269Z" transform="translate(-743.114 -394.826)"/><path class="f" d="M1026.588,593.446s-.05.038-.15.108c-1.649,1.171-13.565,11.3-38.76,12.259-26.72,1.022,54.752-38.2,54.752-38.2Z" transform="translate(-743.141 -395.349)"/><g transform="translate(166.216 159.466)"><g class="g"><g transform="translate(-6.483 -2.828)"><path class="h" d="M1030.986,595.075s-.033,0-.082,0c-1.133.029-14.105.3-31.115.594-33.568.574-81.189,7.734-95.409,13.048-3.069,1.149-1.946-48.5-1.946-48.5,34.49-2.676,95.315-3.7,97.868-6.123,2.723-2.582,19.535-2.276,23.6-2.164.564.014.884.027.884.027l.029.237,3.1,29.093c.008.052.01.073.01.073C1028.908,588.927,1029.942,594.211,1030.986,595.075Z" transform="translate(-902.233 -551.86)"/><g class="i" transform="translate(97.552 0.073)"><path class="j" d="M1031.774,595.075s-.033,0-.082,0c-1.133.029-14.105.3-31.115.594a9.267,9.267,0,0,1,.047-1.254,9.7,9.7,0,0,1,3.768-6.569,20.047,20.047,0,0,1,4.656-2.786c10.907-7.121,14.473-23.135,15.644-33.124.564.014.884.027.884.027l.029.237c.842,12.182,2.943,27.884,3.1,29.093.008.052.01.073.01.073C1029.7,588.927,1030.73,594.211,1031.774,595.075Z" transform="translate(-1000.573 -551.933)"/></g><g transform="translate(0.022 13.1)"><line class="k" x1="124.138" y2="6.735" transform="translate(0.012)"/><line class="k" y1="8.541" x2="125.051" transform="translate(0 11.165)"/><line class="k" x1="125.533" y2="11.789" transform="translate(0.326 22.145)"/></g><path class="k" d="M1018.232,595.7" transform="translate(-903.162 -552.211)"/><path class="k" d="M1001.093,554.116" transform="translate(-903.025 -551.878)"/><path class="k" d="M1002.662,553.73s-4.31,22.7,2.155,41.876" transform="translate(-903.026 -551.875)"/><path class="k" d="M991.27,555.594s-6.621,9.837,1.123,40.934" transform="translate(-902.925 -551.89)"/><path class="k" d="M980.213,556.657s-4.827,13.474,1.715,39.9" transform="translate(-902.844 -551.898)"/><path class="k" d="M967.869,556.921s-4.289,20.573,2.979,40.443" transform="translate(-902.749 -551.9)"/><path class="k" d="M957.638,557.38s-6.841,20.2,3.03,41.124" transform="translate(-902.658 -551.904)"/><path class="k" d="M946.422,557.873s-4.852,19.1,3.094,41.994" transform="translate(-902.575 -551.908)"/><path class="k" d="M935.642,558.362s-5.551,16.212,3.169,43.029" transform="translate(-902.487 -551.912)"/><path class="k" d="M926.117,559.063s-7.775,19.335,2.268,44.051" transform="translate(-902.401 -551.917)"/><path class="k" d="M914.2,559.487a90.736,90.736,0,0,0,2.872,45.85" transform="translate(-902.315 -551.921)"/></g><path class="l" d="M907.885,590.741s-1.9-9.4,4.447-10.438,33.9-7.011,39.4-10.225,17.585-17.352,17.585-17.352l33.614,12.343s-38.342,18.548-40.409,19.125S907.885,590.741,907.885,590.741Z" transform="translate(-908.759 -554.695)"/></g></g><path class="m" d="M894.762,600.632s-37.681,96.744-42.312,96.661c-8.33-.1-40.108-2.421-8.846,8.738,15.164,7.772,15.548,3.79,17.085.948,1.256-2.322,11.045-19.834,14.585-26.165.793-1.418,36.437-74.373,36.437-74.373Z" transform="translate(-741.922 -395.613)"/><path class="n" d="M866.685,697.873c.7-1.5-13.258-3.7-14.919-2.827s-22.727.057-24.359,6.787,30.76,11.212,33.007,11.747S865.311,700.821,866.685,697.873Z" transform="translate(-741.9 -396.368)"/><path class="m" d="M948.765,612.67c.7,1.409,1.478,2.956,2.311,4.613-1.359.546-2.718,1.1-4.057,1.667-3.383,1.4-6.686,2.817-9.86,4.216-.3.129-.6.258-.893.4-1.081-1.825-2.1-3.541-3.045-5.119-4.018-6.755-6.587-11.061-6.587-11.061l1.875-.417,10.465-2.331.268-.06,4.91-1.091,1.835,3.67C946.732,608.622,947.664,610.487,948.765,612.67Z" transform="translate(-742.695 -395.636)"/><path class="o" d="M948.323,419.251s8.505,9.223,17.073,8.323-9.914,10.965-9.914,10.965-4.743-9.605-9.928-13.1S948.323,419.251,948.323,419.251Z" transform="translate(-742.833 -394.16)"/><path class="m" d="M897.157,596.995c4.32-5.194,96.7-37.431,96.7-37.431l36.718,28.319S910.238,606.462,908.8,609.342,892.836,602.19,897.157,596.995Z" transform="translate(-742.453 -395.284)"/><g transform="translate(148.922 157.495)"><path class="p" d="M1047.056,589.953s-.04.01-.089.02c-.556.169-10.188,1.974-21.625,4.315-.357.079-.724.159-1.091.228-.149.03-.3.06-.446.1-.427.079-.853.169-1.28.258-.774.169-1.557.327-2.351.5,0,0,0,.01-.01,0-9.265,1.954-18.987,4.146-25.623,6.051q-3.839,1.1-7.876,2.381-2.1.655-4.226,1.369c-1.359.436-2.728.9-4.107,1.369-.466.159-.932.317-1.409.486-5.317,1.835-10.733,3.819-16.1,5.872q-1.89.729-3.75,1.458c-2.113.833-4.206,1.667-6.279,2.52-1.359.546-2.718,1.1-4.057,1.667-3.383,1.4-6.686,2.817-9.86,4.216-.3.129-.6.258-.893.4-3.016,1.329-5.922,2.649-8.66,3.938-3.75,1.766-7.2,3.462-10.267,5.049a99.647,99.647,0,0,0-11.289,6.587c-.794.565-2.391-3.3-4.246-9.027-.119-.347-.228-.714-.347-1.081-1.19-3.73-2.46-8.134-3.68-12.568-1.21-4.355-2.371-8.739-3.353-12.529a2.673,2.673,0,0,0-.069-.268c-1.151-4.484-2.053-8.095-2.48-9.8-.169-.685-.258-1.061-.258-1.061,3.432-1.21,7.162-2.48,11.071-3.789,6.388-2.133,13.273-4.355,20.256-6.587,3.4-1.081,6.815-2.163,10.208-3.234,3.591-1.141,7.152-2.262,10.624-3.353,3.323-1.051,6.567-2.083,9.672-3.065,7.291-2.331,13.868-4.454,19.076-6.25,1.061-.357,2.063-.7,3.006-1.032l.01-.01c5.277-1.875,8.6-3.264,9.017-3.938,1.964-3.2,18.282-7.261,22.23-8.2.556-.139.863-.208.863-.208l.089.228,4.623,11.983,4.762,12.33.913,2.361.179.466a.765.765,0,0,0,.06.149c.02.05.03.069.03.069,1.141,2.768,5.654,4.752,10.8,6.19.218.069.446.129.665.188.129.03.248.06.377.1.417.109.843.208,1.27.317.03.01.059.01.1.02l.863.208c.754.169,1.508.327,2.262.5C1040.658,589.11,1046.481,589.7,1047.056,589.953Z" transform="translate(-891.334 -552.724)"/><g class="i" transform="translate(102.815 0.002)"><path class="j" d="M1047.882,589.956s-.032.009-.08.02c-1.086.32-36.074,6.75-52.426,11.441a9.28,9.28,0,0,1-.28-1.223,9.7,9.7,0,0,1,1.937-7.321,20.118,20.118,0,0,1,3.775-3.9c8.691-9.7,7.987-26.093,6.53-36.045.549-.133.861-.2.861-.2l.089.223c3.969,11.547,10.066,26.169,10.533,27.3.022.048.03.068.03.068C1021.755,587.366,1046.651,589.393,1047.882,589.956Z" transform="translate(-994.979 -552.726)"/></g><g transform="translate(2.807 12.141)"><line class="k" x1="118.157" y2="38.659"/><line class="k" y1="40.639" x2="118.571" transform="translate(3.348 10.551)"/><path class="k" d="M1033.415,586.323l-10.9,1.79a154.2,154.2,0,0,0-28.705,7.612l-92.233,34.258" transform="translate(-894.223 -565.134)"/></g><path class="k" d="M1012.347,596.927" transform="translate(-892.304 -553.078)"/><path class="k" d="M985.022,561.2" transform="translate(-892.085 -552.792)"/><path class="k" d="M986.449,560.421s1.715,23.037,12.928,39.889" transform="translate(-892.096 -552.786)"/><path class="k" d="M975.934,565.169s-3.845,11.215,11.689,39.247" transform="translate(-892.009 -552.824)"/><path class="k" d="M965.526,569.062s-1.172,14.264,11.991,38.09" transform="translate(-891.928 -552.855)"/><path class="k" d="M953.669,572.515s1.185,20.982,13.353,38.292" transform="translate(-891.834 -552.883)"/><path class="k" d="M943.915,575.606s-1.376,21.279,13.577,38.935" transform="translate(-891.755 -552.907)"/><path class="k" d="M933.2,578.989s.263,19.71,13.865,39.76" transform="translate(-891.669 -552.935)"/><path class="k" d="M922.918,582.253s-1.162,17.1,14.207,40.741" transform="translate(-891.587 -552.961)"/><path class="k" d="M913.908,585.4s-2.5,20.689,13.6,41.96" transform="translate(-891.514 -552.986)"/><path class="k" d="M902.5,588.894a90.743,90.743,0,0,0,14.65,43.541" transform="translate(-891.424 -553.014)"/></g><path class="m" d="M839.972,524.67a66.75,66.75,0,0,0-35.4,14.69l31.255.986A9.577,9.577,0,0,1,838.3,536.6a9.984,9.984,0,0,1,6.507-2.563Z" transform="translate(-741.717 -395.004)"/><g transform="translate(186.603 3.324)"><path class="p" d="M938.35,408.231s13.663,17.5,15.114-.664C954.612,393.2,929.031,395.771,938.35,408.231Z" transform="translate(-929.376 -397.312)"/><path class="p" d="M942.5,405.527s-6.15-.05-10.038,2.23c-1.177.689-2.778.467-3.141,1.945,0,0,4.439-15.579,14.57-11.8s12.669,4.944,3.807,23.358C947.7,421.257,952.059,407.256,942.5,405.527Z" transform="translate(-929.32 -397.308)"/></g><path class="p" d="M936.186,396.411s4.681-4.909,12.551-.841c5.351,2.767,6.625,7.522,6.078,10.991s.485,5.379,1.269,5.711c0,0-3.35,1.353-3.8.237,0,0,.784,1.9-3.279,6.539a5.206,5.206,0,0,0-1.924-6.3C943.492,410.3,936.186,396.411,936.186,396.411Z" transform="translate(-742.772 -393.957)"/><path class="m" d="M929.921,408.156a16.958,16.958,0,0,1,1.677,5.362,26.252,26.252,0,0,1-.13,6.284c-.131,1.37-.3,2.5-.428,3.3l3.554.715a8.077,8.077,0,0,0,3.275,4.422c7.452,5.252,14.549-6.682,10.628-12.94.046.073.954-.724,1.008-.783a3.362,3.362,0,0,0,.906-2,1.693,1.693,0,0,0-.231-1.029,2,2,0,0,0-1.527-.789c-1.266-.125-1.447.828-1.976,1.73-.635-.841.31-4.294-.326-5.135a6.254,6.254,0,0,1-3.386-.258c-1.811-.7-2.118-1.956-4.626-3.833-1.625-1.215-3.093-2.774-4.04-2.369-1.148.491-2.15,1.161-3.709,3.32C929.8,405.245,930.542,407.8,929.921,408.156Z" transform="translate(-742.722 -394.011)"/><path class="p" d="M939.929,396.361s-1.9-3.015-6.2-.9A6.848,6.848,0,0,0,931,398.041a11.6,11.6,0,0,1-4.653,3.9s.564,1.064,2.442.75c-.778.13-1.022,3.281-1.055,3.8-.128,1.926.186,4.863,1.836,6.138.539-2.236.605-4.314,1.7-6.444a18.423,18.423,0,0,1,4.517-5.318C936.076,400.6,940.009,396.485,939.929,396.361Z" transform="translate(-742.693 -393.963)"/><path class="q" d="M1046.843,601.2c-7.471,2.986-24.6-7.124-58.883-27.341-13.887-8.187-24.872-15.215-38.109-14.538-1.13.057-2.261.17-3.429.339a37.7,37.7,0,0,0-5.351,1.206A43.47,43.47,0,0,0,928,567.547c-.029-.387-.048-.783-.075-1.187-.425-6.7-.82-15.225-.971-25.108-.019-1.441-.038-2.948-.047-4.513-.386-28.377-.18-74.136,16.3-88.033a89.36,89.36,0,0,0,9.676-9.129c.971-1.073,1.979-2.233,3-3.486a86.076,86.076,0,0,0,7.886-11.57c.452.085.923.18,1.394.274a115.782,115.782,0,0,1,42.255,17.6c42.688,29.055,49.773,77.358,51.526,89.4C1061.955,552.368,1063.51,594.538,1046.843,601.2Z" transform="translate(-742.697 -394.202)"/><path class="r" d="M964.606,551.111a92.239,92.239,0,0,0-14.641,8.677c-1.131.057-2.271.17-3.439.339a37.6,37.6,0,0,0-5.342,1.206c-.283-5.577-.528-12.078-.631-19.3-.019-1.441-.038-2.948-.057-4.513,14.763-24.872,45.581-72.959,49.142-47.54C994.34,523.564,981.96,542.83,964.606,551.111Z" transform="translate(-742.806 -394.669)"/><path class="q" d="M836.524,522.268c-.182,1.348,1.264,1.979,3.681,7.362a49.492,49.492,0,0,1,2.629,7.362c12.772.763,23.352,13.439,30.628,17.727,12.756,7.517,33.1,16.979,54.161,12.62,12.056-2.495,19.984-8.836,29.973-16.827A129.909,129.909,0,0,0,990.2,511.6c.785-2.619,10.656-37.468-11.043-59.946C976.31,448.705,969,441.13,959.7,440.085c-21.165-2.38-47.594,29.642-62.575,80.453-7.794-2.028-16.684-3.668-32.22-4.71C850.06,515.721,842.047,517.095,836.524,522.268Z" transform="translate(-741.973 -394.326)"/><g transform="translate(0 80.762)"><path d="M741.209,476.752l2.563-1.38,35.3,62.9-.986,3.155Z" transform="translate(-741.209 -475.372)"/><path d="M850.159,541.938v-3.155H779.368l-.986,3.155Z" transform="translate(-741.507 -475.88)"/></g><path class="r" d="M965.371,424.795a8.035,8.035,0,0,1-1.159,3.241c-1.582,2.139-1.186,7.923-2.176,9.695s-.386,3.551-6.444,2.3c-.914-.188-1.743-.339-2.5-.452.971-1.073,1.979-2.233,3-3.486a86.076,86.076,0,0,0,7.886-11.57C964.429,424.606,964.9,424.7,965.371,424.795Z" transform="translate(-742.907 -394.202)"/><path class="e" d="M1022.756,596.249s20.781-17.391,23.833-23.084,10.4-21.994,10.4-21.994l5.28-16.07,6.01,36.094-7.771,19.736-6.141,6.412-6.915,6.214-9.519-.418Z" transform="translate(-743.466 -395.088)"/><path class="s" d="M984.448,605.441c5.207-.153,31.571-1.081,51.648-22.82,25.964-28.113,23.067-73.4,22.722-78.021-.236-1.534.452-2.787,1.2-2.967.83-.2,2.23.8,2.481,2.668.365,4.251,4.058,53.928-24.251,80.337C1015.994,605.4,989.358,605.582,984.448,605.441Z" transform="translate(-743.159 -394.82)"/><path class="t" d="M1081.347,566.269c-4.618,14.661-14.759,27.276-27.517,35.716a58.293,58.293,0,0,1-12.346,6.176c9.664-7.3,18.616-15.747,25.35-25.269,11.359-16.053,15.917-37.664,7.794-56.125a56.841,56.841,0,0,0-13.706-19.016c.132-1.909.247-3.674.345-5.287C1081.808,515.732,1088.445,543.71,1081.347,566.269Z" transform="translate(-743.616 -394.826)"/></g></g></g><text class="u" transform="translate(786.552 470.439) rotate(-15.206)"><tspan x="0" y="0">(35+4)x3=</tspan></text><text class="v" transform="translate(764.831 486.06) rotate(18.876)"><tspan x="0" y="0">4x(32-2)=</tspan></text><text class="w" transform="matrix(0.967, 0.256, -0.256, 0.967, 761.831, 389.06)"><tspan x="0" y="0">7x(10-5)=</tspan></text></g></svg>