<svg xmlns="http://www.w3.org/2000/svg" width="492" height="349.557" viewBox="0 0 492 349.557"><defs><style>.a,.r{fill:#169154;}.a{opacity:0.69;}.b,.v{fill:#29c27f;}.b{opacity:0.51;}.c{fill:#f9a94b;}.d{fill:#c7873c;}.e,.g{fill:#d8a35d;}.e{fill-rule:evenodd;}.f{fill:#d19442;}.h{fill:#947dce;}.i{opacity:0.15;}.j{fill:#ffc84f;}.k{fill:#cc5220;}.l{fill:#e9e9e9;}.m{fill:#8c94a1;}.n{fill:#3d3d3d;}.o{fill:#cecfd4;}.p{fill:#fff;}.q{fill:#a8a8a8;}.s{fill:#18482a;}.t{fill:#0c8045;}.u{fill:#17472a;}.w{fill:#27663f;}.x{fill:#19ac65;}.y{fill:#129652;}.z{fill:#0c7238;}</style></defs><g transform="translate(-647.765 -302.849)"><path class="a" d="M958.416,464.812c-12.971-9.434-16.148-24.484-9.292-34.507,8.547-12.494,32.516-16.927,49.842-5.032,7.17-4.988,20.01-12.165,36.326-12.22,33.325-.115,63.121,29.541,65.892,59.668,3,32.608-26.672,54.8-30.411,57.511,4.648,2.693,13.013,8.434,16.9,17.972,6.8,16.71-4.578,34.228-14.362,42.414-25.723,21.524-85.686,16.4-116.58-11.776C926.583,551.344,925.1,502.78,958.416,464.812Z" transform="translate(38.369 14.784)"/><path class="b" d="M679.276,407.064c-6.935,3.82-10.327,15.376-6.809,21.335,3.7,6.274,13.3,3.363,17.249,10.441,2.854,5.12-.995,8.75,1.362,13.619,3.6,7.442,17.891,9.892,28.145,7.263,18.482-4.741,34.494-28.711,27.237-46.757-6.431-15.987-29.631-23.607-35.862-18.158-3.56,3.113-.041,9.145-4.085,12.71C700.323,412.973,688.6,401.929,679.276,407.064Z" transform="translate(3.125 12.102)"/><path class="c" d="M647.765,605.676h479.964l-54.68-56.684H700.57Z" transform="translate(0 33.021)"/><rect class="d" width="479.964" height="13.709" transform="translate(647.765 638.697)"/><g transform="translate(697.504 302.849)"><g transform="translate(327.292 40.138)"><path class="e" d="M980.2,366.471c.988-.806,10.226-12.472,16.475-15.516s15.827-6.975,18.81-9.189c3.509-2.6,5.092-1.418,1.217,2.023-2.52,2.237-7.893,6.258-9.208,6.819-.637.271,3.366-1.891,7.592-4.574,4.491-2.852,9.259-6.225,9.83-5.448,1.106,1.506-11.5,10.6-13.875,11.8a66.662,66.662,0,0,0,6.222-3.255c2.746-1.634,5.724-3.951,6.618-3.592,1.408.568-4.926,6.3-10.748,9.471-.032.239,2.071-.2,8.734-4.436.669-.425,2.64-.808.676,1.192-4.133,4.21-5.6,6.325-12.772,9.294-7,2.9-15.359,4.394-19.8,8.025Z" transform="translate(-980.199 -337.955)"/><path class="e" d="M992.186,353.056s3.3-7.828,9.1-11.1c3.444-1.947,3.011-2.837,3.531-3.347,1.726-1.693,1.175,2.907-1.559,5.067-2.223,1.756-2,6.6-3.173,8.093s-5.08,4.885-6.438,4.719S992.186,353.056,992.186,353.056Z" transform="translate(-978.591 -338.239)"/></g><g transform="translate(28.414)"><path class="f" d="M824.178,351.117s1.4,15.578-8.214,24.193,22.144,0,22.144,0-5.909-14.921-4.583-24.193S824.178,351.117,824.178,351.117Z" transform="translate(-703.597 -296.926)"/><ellipse class="g" cx="16.799" cy="22.919" rx="16.799" ry="22.919" transform="translate(108.85 14.393)"/><path class="h" d="M977.22,448.1c-25.43-53.194-70.815-77.463-99.792-83.907-12.543-2.793-22.011-2.246-25.469.741a18.781,18.781,0,0,1-11.726,4.555,25.4,25.4,0,0,1-6.584-.6,32.778,32.778,0,0,1-6.98-2.373c-1.072-.5-1.7-.855-1.7-.855a68.107,68.107,0,0,0-17.736,1.059c-65.559,12.836-76.966,122.76-76.378,132.214.357,5.628,6.175,31.121,13.449,53.782,5.959,18.6,12.912,35.306,18.629,37.615,12.683,5.1,108.443,12.108,128.131,2.717.459-.344.957-.715,1.429-1.123,7.388-6.01,15.4-17.875,19.65-28.989,0-.014,11.318-31.912,13.627-38.407.026-.064.039-.115.063-.166.077-.255.167-.5.255-.727.026-.09.065-.166.09-.255" transform="translate(-714.774 -294.864)"/><path class="i" d="M907.057,507.112c-.025.09-.063.166-.09.255-.089.229-.178.472-.255.727-.025.051-.037.1-.063.166-2.309,6.5-13.627,38.393-13.627,38.407-4.25,11.114-12.263,22.979-19.65,28.989,5.015-18.157,20.645-70.789,20.046-92C896.4,504.1,907.057,507.1,907.057,507.112Z" transform="translate(-695.652 -278.592)"/><path class="i" d="M774.776,437.292s31.735,94.731-56.312,134.964l-1.79,1.19.455-22.281s41.487-57.893,41.645-59.383S774.776,437.292,774.776,437.292Z" transform="translate(-716.674 -284.813)"/><path class="i" d="M826.316,373.254c-.051,1.519.752,2.513,3.189,2.182,7.6-1.033,16.192-.817,22.431,2.042a5.3,5.3,0,0,0,5.13-.217c3.993-2.335,6.469-9.3,7.451-12.389a2.145,2.145,0,0,0,.1-.677c-12.543-2.793-22.01-2.246-25.469.741a18.781,18.781,0,0,1-11.726,4.555A10.338,10.338,0,0,0,826.316,373.254Z" transform="translate(-701.965 -294.864)"/><g transform="translate(102.949)"><g transform="translate(5.701 6.39)"><path class="j" d="M835.634,326.25s-29.082,16.124-20.45-9.764C821.156,298.574,855.468,314.708,835.634,326.25Z" transform="translate(-812.324 -308.483)"/><path class="j" d="M831.568,319.928s16.272,9.655,14.7,19.34c0,0,3.587-28.915-12.591-29.642s-22.443.835-21.007,31.412C812.672,341.037,817.373,316.714,831.568,319.928Z" transform="translate(-812.473 -308.346)"/></g><path class="j" d="M835.058,310.706s-.818-9.01-9.749-7.734-12.759,6.38-14.035,11.483-2.552,8.931-3.828,8.931c0,0,3.828,3.828,5.1,2.552,0,0-3.312,9.176.9,16.711,0,0,1.656-11.606,8.035-12.883S835.058,310.706,835.058,310.706Z" transform="translate(-807.446 -302.849)"/><path class="j" d="M831.071,309.8s6.38-3.828,12.76,5.1l3.828,7.656s-1.276,1.276-3.828,0c0,0,1.162,8.99-.057,14.065L840,321.288Z" transform="translate(-804.277 -302.025)"/></g><path class="i" d="M743.226,528.754s16.415-34.423,100.566,24.744-78.98-14.516-78.98-14.516Z" transform="translate(-713.112 -273.879)"/><path class="h" d="M902.713,525.083s77.668,32.949,96.513-38.111-.758-88.1,6.906-122.7l-12.493-6.014s-47.022,28.99-63.118,73.746S902.713,525.083,902.713,525.083Z" transform="translate(-691.716 -295.415)"/></g><g transform="translate(0 67.423)"><g transform="translate(160.421 223.832)"><path class="e" d="M833.066,576.129c1.209-.406,13.975-8.051,20.9-8.69s17.272-.928,20.845-1.944c4.2-1.194,5.266.475.423,2.324-3.148,1.2-9.6,3.063-11.024,3.121-.692.028,3.818-.577,8.718-1.593,5.21-1.08,10.863-2.549,11.121-1.621.5,1.8-14.507,5.847-17.152,6.132a66.658,66.658,0,0,0,6.971-.845c3.147-.558,6.753-1.672,7.461-1.02,1.116,1.029-6.834,4.148-13.4,5.058-.115.213,2.007.546,9.738-1.06.777-.161,2.755.178.211,1.354-5.354,2.476-7.474,3.937-15.234,4.178-7.567.236-15.919-1.321-21.362.5Z" transform="translate(-833.066 -558.924)"/><path class="e" d="M848.6,568.851s5.859-6.154,12.437-7.168c3.911-.6,3.819-1.589,4.486-1.882,2.214-.974.071,3.134-3.25,4.187-2.7.856-4.208,5.47-5.831,6.449s-6.478,2.773-7.69,2.138S848.6,568.851,848.6,568.851Z" transform="translate(-831.039 -559.653)"/></g><path class="h" d="M746.427,383.038c-24.034,21.5-40.664,41.477-51.038,107.18-5.264,33.334-3.892,66.669-2.522,84.247a20.77,20.77,0,0,0,14.274,18.06c75.3,24.838,155.68,19.878,155.68,19.878,4.313-1.6-.338-17.207-.338-17.207-38.526-52.284-93.587-43.493-108.4-52.664-4.621-27.1,32.613-61.02,37-77.832,11.5-44.09,49.348-82.244,39.555-99.525C827.256,359.2,770.67,361.347,746.427,383.038Z" transform="translate(-691.621 -362.297)"/></g></g><g transform="translate(884.186 485.613)"><g transform="translate(169.89 59.487)"><path class="k" d="M1007.183,518.39h0a.558.558,0,0,0,.331-.714l-.454-1.231-1.046.384.454,1.231A.557.557,0,0,0,1007.183,518.39Z" transform="translate(-1006.015 -516.445)"/></g><g transform="translate(164.069 61.622)"><path class="k" d="M1002.048,520.283h0a.56.56,0,0,0,.33-.716l-.454-1.231c-.031-.083-1.041.4-1.041.4l.449,1.219A.56.56,0,0,0,1002.048,520.283Z" transform="translate(-1000.883 -518.328)"/></g><g transform="translate(169.926 58.764)"><path class="l" d="M1007.292,518.235h0a.56.56,0,0,0,.33-.716l-.5-1.347a.559.559,0,0,0-.715-.33h0a.558.558,0,0,0-.33.716l.5,1.347A.559.559,0,0,0,1007.292,518.235Z" transform="translate(-1006.047 -515.808)"/></g><g transform="translate(164.113 60.906)"><path class="l" d="M1002.166,520.122h0a.559.559,0,0,0,.33-.714l-.5-1.347a.559.559,0,0,0-.716-.33h0a.559.559,0,0,0-.33.715l.5,1.347A.559.559,0,0,0,1002.166,520.122Z" transform="translate(-1000.921 -517.696)"/></g><g transform="translate(169.146 74.047)"><rect class="m" width="3.652" height="2.368" transform="translate(0 1.262) rotate(-20.217)"/></g><g transform="translate(167.585 70.131)"><rect class="m" width="3.652" height="2.368" transform="translate(0 1.262) rotate(-20.217)"/></g><g transform="translate(0 99.986)"><path class="n" d="M860.737,600.1h185.494a4.124,4.124,0,0,0,4.456-4.064v-2.78l-20.3-37.518a6.459,6.459,0,0,0-5.788-3.588H882.646c-2.649,0-8.49,5.217-9.674,7.586l-16.75,34.147v1.226C856.179,598.67,858.478,600.1,860.737,600.1Z" transform="translate(-856.221 -552.154)"/></g><g transform="translate(0 96.059)"><path class="o" d="M860.721,596.641h185.494c2.06,0,5.45-1.806,4.176-4.026l-20.025-40.335a6.462,6.462,0,0,0-5.789-3.589H882.629a6.991,6.991,0,0,0-6.255,3.866l-19.823,39.667C855.162,594.752,858.462,596.641,860.721,596.641Z" transform="translate(-856.221 -548.691)"/></g><g transform="translate(22.27)"><rect class="o" width="151.905" height="95.988" rx="4.897"/></g><g transform="translate(28.573 5.236)"><rect class="p" width="140.187" height="83.175"/></g><g transform="translate(69.293 125.378)"><path class="n" d="M918.385,591.428h54.656a.986.986,0,0,0,.973-1.142l-2.3-14.4a1.6,1.6,0,0,0-1.581-1.347h-49.3a1.407,1.407,0,0,0-1.392,1.2l-2.113,14.479A1.068,1.068,0,0,0,918.385,591.428Z" transform="translate(-917.317 -574.542)"/></g><g transform="translate(20.863 102.695)"><path class="q" d="M877.516,574.255h148.507c1.647,0,2.9-.633,2.644-1.331l-6.262-16.807c-.338-.907-2.158-1.574-4.3-1.574H884.163c-1.9,0-3.509.6-3.784,1.405l-5.74,16.9C874.416,573.595,875.767,574.255,877.516,574.255Z" transform="translate(-874.616 -554.542)"/></g><g transform="translate(20.472 98.943)"><g transform="translate(0 6.648)"><rect class="o" width="154.867" height="0.782" transform="translate(154.867 0.782) rotate(-180)"/></g><g transform="translate(0 10.559)"><rect class="o" width="154.867" height="0.782" transform="translate(154.867 0.782) rotate(-180)"/></g><g transform="translate(0 15.252)"><rect class="o" width="154.867" height="0.782" transform="translate(154.867 0.782) rotate(-180)"/></g><g transform="translate(0 19.554)"><rect class="o" width="154.867" height="0.782" transform="translate(154.867 0.782) rotate(-180)"/></g><g transform="translate(134.992 0.417)"><rect class="o" width="1.173" height="25.811" transform="translate(8.855 24.625) rotate(162.561)"/></g><g transform="translate(123.651 0.417)"><rect class="o" width="1.173" height="25.811" transform="translate(8.855 24.625) rotate(162.561)"/></g><g transform="translate(114.656 0.417)"><rect class="o" width="1.173" height="25.811" transform="translate(8.855 24.625) rotate(162.561)"/></g><g transform="translate(105.661 0.417)"><rect class="o" width="1.173" height="25.811" transform="translate(8.855 24.625) rotate(162.561)"/></g><g transform="translate(96.276 0.417)"><rect class="o" width="1.173" height="25.811" transform="translate(8.855 24.625) rotate(162.561)"/></g><g transform="translate(86.719 0.124)"><rect class="o" width="1.173" height="25.811" transform="translate(6.067 25.339) rotate(169.022)"/></g><g transform="translate(78.607 0)"><rect class="o" width="1.173" height="25.811" transform="translate(1.173 25.811) rotate(-180)"/></g><g transform="translate(10.238 0.417)"><rect class="o" width="1.173" height="25.811" transform="translate(1.119 24.976) rotate(-162.561)"/></g><g transform="translate(21.188 0.417)"><rect class="o" width="1.173" height="25.811" transform="translate(1.119 24.976) rotate(-162.561)"/></g><g transform="translate(32.138 0.417)"><rect class="o" width="1.173" height="25.811" transform="translate(1.119 24.976) rotate(-162.561)"/></g><g transform="translate(43.089 0.417)"><rect class="o" width="1.173" height="25.811" transform="translate(1.119 24.976) rotate(-162.561)"/></g><g transform="translate(54.039 0.417)"><rect class="o" width="1.173" height="25.811" transform="translate(1.119 24.976) rotate(-162.561)"/></g><g transform="translate(64.989 0.417)"><rect class="o" width="1.173" height="25.811" transform="translate(1.119 24.976) rotate(-162.561)"/></g></g></g><g transform="translate(953.948 505.573)"><path class="r" d="M954.714,481.832l-20.682.269a2.721,2.721,0,0,0-2.686,2.757l.147,11.326,23.4-.305Z" transform="translate(-915.904 -481.562)"/><path class="s" d="M931.8,519.355l.146,11.237a2.723,2.723,0,0,0,2.755,2.686l20.685-.27L955.2,519.05Z" transform="translate(-915.844 -476.569)"/><path class="t" d="M931.476,494.522l23.4-.305.184,14.045-23.4.305Z" transform="translate(-915.887 -479.9)"/><path class="u" d="M931.637,506.906l23.4-.305.184,14.12-23.4.3Z" transform="translate(-915.865 -478.239)"/><g transform="translate(38.81)"><path class="v" d="M972.632,481.594l-20.682.27.183,14.046,23.4-.305-.147-11.326A2.723,2.723,0,0,0,972.632,481.594Z" transform="translate(-951.95 -481.594)"/><path class="w" d="M952.435,519.086l.181,13.958,20.685-.27a2.72,2.72,0,0,0,2.683-2.755l-.146-11.236-23.4.3Z" transform="translate(-951.885 -476.605)"/><path class="x" d="M952.111,494.253l23.4-.305.183,14.045-23.4.305Z" transform="translate(-951.928 -479.936)"/><path class="y" d="M952.273,506.637l23.4-.305.184,14.121-23.4.3Z" transform="translate(-951.907 -478.275)"/></g><path class="z" d="M946.686,524.162l-25.96.338a2.624,2.624,0,0,1-2.657-2.588l-.338-25.96a2.624,2.624,0,0,1,2.588-2.657l25.96-.338a2.624,2.624,0,0,1,2.657,2.588l.338,25.96A2.624,2.624,0,0,1,946.686,524.162Z" transform="translate(-917.731 -480.069)"/><path class="p" d="M925.807,500.081l3.722-.049,3.1,5.818,3.117-5.9,3.477-.045-4.69,7.863,5,7.737-3.668.049-3.372-6.089-3.2,6.174-3.722.049,4.879-7.895Z" transform="translate(-916.679 -479.137)"/></g></g></svg>