<svg xmlns="http://www.w3.org/2000/svg" width="366.725" height="495.824" viewBox="0 0 366.725 495.824"><defs><style>.a{fill:#29c27f;opacity:0.51;}.b{fill:#d8a35d;}.c{fill:#62548a;}.d{fill:#d19442;}.e{fill:#ffc84f;}.f{fill:#947dce;}.g{opacity:0.3;}.h{opacity:0.5;}.i{fill:none;stroke:#947dce;stroke-miterlimit:10;stroke-width:0.907px;}.j{opacity:0.15;}.k{fill:#ccc;}.l{fill:#04005a;}.m{fill:gray;}</style></defs><g transform="translate(-913.313 -177.744)"><path class="a" d="M1223.517,516.233c21.063-17.947,52.8-44.991,56.213-86.271,5.078-61.478-53.434-145.293-107.838-163.957-64.668-22.186-144.917,27.662-151.286,55.593-4.729,20.739,31.71,37.96,24.908,59.269-6.813,21.34-46.138,12.788-68.2,36.613-28.488,30.76-19.543,106.131,19.543,141.374C1054.589,610.914,1166.412,564.888,1223.517,516.233Z"/><path class="a" d="M937.176,385.006a13.6,13.6,0,0,1-14.761,4.428c-5.6-1.874-9.726-7.522-9.024-13.106.836-6.642,8.382-12.211,16.946-10.46-1.475-2.741-4.4-9.173-2.162-15.416,4.549-12.668,27.83-17.445,35.182-8.527,4.494,5.452,3.035,16.022-2.927,25.561,2.086.954,8.83,4.345,10.507,10.876,2.922,11.378-11.061,26.313-21.854,23.5C943.038,400.286,938.538,393.283,937.176,385.006Z"/><path class="b" d="M1115.812,535.13s-.266,121.477,4.961,123.078c9.383,2.932,45.9,11.979,6.687,12.9-19.892,3.06-18.848-1.487-19.519-5.195-.549-3.029-10.306-110.811-11.932-119.111-.365-1.859-.585-2.983-.585-2.983Z"/><path class="b" d="M1043.164,534.778s-7.749,120.776-12.993,122.322c-9.414,2.832-46.023,11.491-6.827,12.833,19.858,3.27,18.863-1.288,19.575-4.988.582-3.023,5.326-25.934,7.043-34.217.385-1.855,14.367-95.49,14.367-95.49Z"/><path class="c" d="M1045.427,657.428c.419-1.712-12.12-2.854-13.688-1.591s-27.064,3.743-27.353,11.105,34.909,5.217,37.4,5.3S1044.6,660.792,1045.427,657.428Z"/><path class="c" d="M1106.229,655.464c-.4-1.716,14.815-.913,16.369.366s23.959,5.1,24.167,12.464-34.964,4.846-37.453,4.9S1107.015,658.837,1106.229,655.464Z"/><path class="d" d="M1079.681,221.9c.449,1.11,3.117,13.5,5.423,15.94s9.819,1.92,9.555,2.586-5.638,13.432-14.949,14.408-6.539-5.881-6.539-5.881a18.262,18.262,0,0,0-.943-14.956C1068.118,226.121,1079.681,221.9,1079.681,221.9Z"/><ellipse class="b" cx="20.522" cy="15.246" rx="20.522" ry="15.246" transform="translate(1056.408 228.32) rotate(-81.107)"/><path class="e" d="M1070.822,197.867s23.814,18.407,19.693-5.72C1087.664,175.454,1054.657,184.832,1070.822,197.867Z"/><path class="e" d="M1075.465,193s-15.933,6.219-15.878,15.009c0,0,.822-26.086,15.425-24.422s20,3.938,14.441,30.776C1089.453,214.361,1088.636,192.179,1075.465,193Z"/><path class="e" d="M1074.353,183.651s1.991-7.852,9.818-5.45,10.545,7.462,10.976,12.157,1.04,8.264,2.184,8.446c0,0-3.966,2.839-4.931,1.529,0,0,1.687,8.588-3.137,14.651,0,0,.137-10.5-5.4-12.539S1074.353,183.651,1074.353,183.651Z"/><path class="e" d="M1075.1,183.7s-5.184-4.295-12.149,2.694l-4.5,6.226s.965,1.31,3.43.545c0,0-2.3,7.786-1.913,12.448l5.522-13.03Z"/><path class="f" d="M1164.917,396.122c-1.1,7.881-14.379,12.7-24.207,26.077-4.762,6.487-17.512,11.639-28.844,12.055-27.842,1.07-50.414,3.692-83.956-12.055-38.577-18.112-8.947-85.249-11.18-92.816-2.935-9.994,51.355-38.934,54.871-40.1s57.262-4.5,58.812-3.986S1168.009,373.891,1164.917,396.122Z"/><path class="e" d="M1037.179,425.461c1.95.177,3,.226,4.394.372,9.878-.236,52.537-1.362,75.6-3.674,8.137-.817,13.835-1.78,14.793-2.909,0,0,0,.034,0,.093,0,1.261-.095,15.688-.282,34.6-.368,37.338,5.908,90.52,11.188,106.516,1.14,3.453-52.058.451-52.058.451-1.858-38.435-1.163-106.082-3.686-109-3.069-3.554-5.138,56.012-8.329,105.919-20.733,6.306-54.091,4.467-53.8,2.33C1028.436,534.771,1037.179,425.461,1037.179,425.461Z"/><g class="g"><path d="M1076.743,424.683l-.477-.019S1076.435,424.669,1076.743,424.683Z"/><path class="h" d="M1076.743,424.683c12.748.45,40.433-2.524,40.433-2.524,8.137-.817,13.835-1.78,14.793-2.909,0,0,0,.034,0,.093,0,1.261-.095,15.688-.282,34.6a9.594,9.594,0,0,1-1.342-.1,10.419,10.419,0,0,1-6.932-4.421,22.687,22.687,0,0,1-2.854-5.273C1110.3,426.789,1080.829,424.867,1076.743,424.683Z"/></g><line class="i" x1="7.276" y2="139.324" transform="translate(1039.233 422.793)"/><line class="i" x1="7.282" y2="136.903" transform="translate(1052.698 424.99)"/><line class="i" x1="5.077" y2="135.853" transform="translate(1067.951 424.425)"/><line class="i" x2="1.534" y2="28.029" transform="translate(1085.594 423.881)"/><line class="i" x2="3.57" y2="138.227" transform="translate(1099.543 423.277)"/><line class="i" x2="5.479" y2="139.305" transform="translate(1111.542 422.671)"/><line class="i" x2="8.948" y2="139.956" transform="translate(1123.339 422.16)"/><path class="i" d="M1036.111,438.615s75.894.248,95.748-4.146"/><path class="i" d="M1087.128,451.909c-26.236,7.069-52.012-1.193-52.012-1.193"/><path class="i" d="M1086.763,450.153s24.21,5.593,44.967-.915"/><path class="i" d="M1034.265,460.94s19.536,9.036,50.331,2.665"/><path class="i" d="M1033.241,473.117s30.116,7.663,50.4,2.17"/><path class="i" d="M1032.209,485.214s15.655,11.05,50.513,4.279"/><path class="i" d="M1031,499.131a74.624,74.624,0,0,0,51.069,1.578"/><path class="i" d="M1029.867,511.88s16.855,10.739,51.438,2.58"/><path class="i" d="M1028.671,524.952s23.078,10.658,52.056-.015"/><path class="i" d="M1027.7,535.155s13.872,12.053,52.4,1"/><path class="i" d="M1026.542,546.739s22.02,10.254,52.9.629"/><path class="i" d="M1088.413,462.77s10.354,7.706,43.928.2"/><path class="i" d="M1089.221,475.007s14.306,5.842,42.831-.5"/><path class="i" d="M1089.142,488.631s21.934,5.495,43.455-1.881"/><path class="i" d="M1089.332,499.919s21.455,8.318,44.185-1.914"/><path class="i" d="M1089.529,512.311s20.343,6.069,45.12-1.953"/><path class="i" d="M1089.734,524.214s17.221,6.743,46.234-2"/><path class="i" d="M1090.2,534.731s20.5,9.326,47.3-.963"/><path class="i" d="M1090.305,547.9a94.01,94.01,0,0,0,49.249-1.57"/><path class="j" d="M1077.181,356.4c2.107-1.839,8.063,4.914,16.032,3.284,7.408-1.516,11.467-9.237,11.975-10.237,4.519-8.895-.662-14.986,1.159-24.53,1.129-5.918,5.068-13.79,17.769-21.826,5.654,45.6,8.692,70.113,8.692,70.113h0l-47.322,4.056C1076.235,361.866,1075.868,357.546,1077.181,356.4Z"/><path class="b" d="M1130.574,353.253l-8.24,22.366s-28.019-7.648-46.265-16.771-29.368-24.135-35.254-24.135-22.513,3.9-23.838,6.106,3.09,3.973,5.518,4.194,7.505-.883,7.505-.883-2.428,4.635-4.415,8.829,2.208,7.284,3.532,7.725c0,0,3.752,4.856,6.842,4.856,0,0,5.739,6.186,10.815,4.859s-.441-5.08-.441-5.08a13.8,13.8,0,0,0,7.063.662,21.3,21.3,0,0,0,6.622-2.207s9.308,3.778,14.892,10.337c12.194,14.321,27.62,38.823,37.712,44.475,14.715,8.24,21.484,12.949,30.9,8.535s26.046-34.46,30.018-51.207C1173.541,375.914,1146.466,374.736,1130.574,353.253Z"/><path class="f" d="M1191.2,374.33c-5.259,16.489-15.8,35.887-30.63,46.36a53.079,53.079,0,0,1-15.676,7.144c-13.037,3.863-26.533-2.844-37.31-9.917a114.8,114.8,0,0,1-31.827-31.574,103.606,103.606,0,0,1-9.227-16.715c4.633-7.041,1.809-9.044,6.441-16.085,10.825,7.512,24.824,12.735,38.132,11.47a8.773,8.773,0,0,0,4.586-1.411,7.921,7.921,0,0,0,2.5-4.19c2-6.737.443-13.8-.914-20.487a151.362,151.362,0,0,1-2.658-20.164c-.083-1.282-1.273-10.114-.184-10.8-16.768,10.558-66.425-2.224-83.193,8.333-6.414,4.033,20.071,31.413,13.658,35.446-10.234,53.958-6.654,40.715-13.658,54.078-24.713,4.909-43.336-15.66-45.052-33.988-3.258-34.809-10.216-63.869,12.356-94.257,24.123-32.475,65.826-42.69,72.627-36.055a16.961,16.961,0,0,0,5.841,4.448,10.488,10.488,0,0,0,2.4.7,13.513,13.513,0,0,0,7.207-1.033c6.063-2.418,9.034-7.328,10.308-8.758,3.442-3.894,13.851-4.208,26.208-.849,12.846,3.488,27.8,10.954,39.2,22.489C1199.809,296.4,1196.326,358.273,1191.2,374.33Z"/><path d="M1031.974,343.651a.705.705,0,0,1-.243-.041.732.732,0,0,1-.447-.933,77.339,77.339,0,0,1,6.029-12.946.731.731,0,0,1,1.24.774,77.331,77.331,0,0,0-5.889,12.658A.731.731,0,0,1,1031.974,343.651Z"/><path d="M1038.816,348.507a.779.779,0,0,1-.178-.021.734.734,0,0,1-.533-.887c.075-.294,1.832-7.241,4.742-11.494a.732.732,0,0,1,1.209.826c-2.765,4.04-4.513,10.954-4.53,11.022A.732.732,0,0,1,1038.816,348.507Z"/><path class="d" d="M1021.768,392.251s-7.237.226-13.118-2.488a23.5,23.5,0,0,1-8.938-7.231l14.569-3.618,18.672,2.942S1032.285,390.329,1021.768,392.251Z"/><path class="k" d="M1055.633,386.381l-97.093-15.2L936.66,285.2l93.827,11.477Z"/><path class="l" d="M1030.487,296.673l2.821.821,23.487,82.333,25.171-4.07,4.716,5.122-31.05,5.5Z"/><path class="k" d="M1081.967,375.755l-25.171,4.07-2.465-8.64Z"/><path class="b" d="M989.539,373.14s10.743,11.648,17.076,13.344,18.659-7.916,20.581-10.517,0-3.053-1.583-2.827-5.315,3.166-5.315,3.166,7.237-11.308,5.315-13.118-11.265,11.084-11.265,11.084.861-16.286-1.061-16.4-6.559,14.405-6.559,14.405-5.994-15.423-8.708-15.423,1.47,15.493,1.47,15.493-10.517-4.636-12.552-4.184S989.539,373.14,989.539,373.14Z"/><path class="m" d="M998.481,330.972c2.2,6.514.028,13.124-4.841,14.764s-10.594-2.31-12.789-8.824-.027-13.125,4.841-14.765S996.286,324.457,998.481,330.972Z"/><path class="j" d="M1123.141,236.03c-3.811,3.507-16.971,8.2-22.738,8.2-7.337,0-9.912,7.853-16.353,7.724-5-.1-6.579-4.171-7.032-5.98a10.488,10.488,0,0,0,2.4.7,13.513,13.513,0,0,0,7.207-1.033c6.063-2.418,9.034-7.328,10.308-8.758C1100.375,232.985,1110.784,232.671,1123.141,236.03Z"/></g></svg>