<svg xmlns="http://www.w3.org/2000/svg" xmlns:xlink="http://www.w3.org/1999/xlink" width="1366" height="771" viewBox="0 0 1366 771"><defs><style>.a,.f,.v{fill:none;}.b{fill:#d2c3db;}.c{fill:#eadff1;}.d,.m{fill:#000;}.e{fill:#dfeddf;}.f{stroke:#313431;stroke-width:5.136px;}.f,.m,.v{stroke-miterlimit:10;}.g{fill:#728ad6;}.h{fill:#5f73b3;}.i{fill:#8fa0d6;}.j{fill:#313431;}.k{fill:#6c4e49;}.l{fill:#4f3936;}.m{stroke:#4f3b65;stroke-width:7.018px;}.n{clip-path:url(#a);}.o{fill:#d19442;}.p{fill:#d29647;}.q{fill:#d8a35d;}.r{fill:#62548a;}.s{fill:#ffc84f;}.t{opacity:0.3;}.u{opacity:0.5;}.v{stroke:#947dce;stroke-width:1.131px;}.w{fill:#947dce;}.x{fill:#daa968;}.y{opacity:0.15;}.z{fill:#169154;}.aa{fill:#18482a;}.ab{fill:#0c8045;}.ac{fill:#17472a;}.ad{fill:#29c27f;}.ae{fill:#27663f;}.af{fill:#19ac65;}.ag{fill:#129652;}.ah{fill:#0c7238;}</style><clipPath id="a"><rect class="a" width="477.338" height="498.794" transform="translate(1710.011 3785.512) rotate(-180)"/></clipPath></defs><g transform="translate(-1033.15 -3014.512)"><path class="b" d="M1033.15,3024.048v758.464l242.228-67.587,32.991-6.263-1.636-558.092-30.118-25.56Z"/><path class="b" d="M2082.854,3139.983l16.051,556.371,300.044,74.4V3020.7L2100.1,3114.27Z"/><path class="c" d="M1701.172,3103.583H2125.78v617.384H1276.615V3103.583Z"/><path class="d" d="M2399.15,3075.292c-121.657,30.38-335.7,73.888-615,80.372-352.972,8.194-622.429-47.1-751-78.7v-62.454h1366Z"/><path class="d" d="M2399.15,3737.2c-121.657-29.39-335.7-71.48-615-77.753-352.972-7.927-622.429,45.568-751,76.133v47.19l1365.8,2.747Z"/><path class="e" d="M1106.93,3233.273l111.571,11.758v182.675s-115.9,14.027-115.182,14.79,0-205.723,0-205.723l.95-3.78Z"/><path class="f" d="M1106.93,3233.273l111.571,11.758v182.675s-115.9,14.027-115.182,14.79,0-205.723,0-205.723l.95-3.78Z"/><line class="f" y2="189.205" transform="translate(1166.212 3242.489)"/><line class="f" x1="110.049" y2="5.538" transform="translate(1106.291 3366.805)"/><line class="f" x1="110.049" y1="3.213" transform="translate(1106.291 3301.289)"/><path class="g" d="M1129.732,3222.048s1.812.038-1.886,2.522c-3.731,2.5-1.251-3.388-1.251-3.388l-2.769.158s-.891,1.2-1.747.736a5.956,5.956,0,0,0-2.6-.312l-2,.62s-1.05-3.507-1.688-2.529c-.526.8-2.667-.37-4.305-1.046l-2.06-.221c-.873.428-1.425,1.424-2.332.387-1.233-1.41-.039,2.5-.618,1.51s-1.971.274-2.785-2.365c-.018-.058-.035-.109-.052-.157l-.549-.06c-.473,1.195-.963,5.052-2.273,5.158-1.715.138-2.317-2.507-2.77-5.719l-1.519-.174a9.1,9.1,0,0,0-.113,2.71c.355,2.761-3.1,2.312-3.1,2.312s-.1-2.917-.62-3.64a18.235,18.235,0,0,0-2.52-2.136q-1.334-.164-2.673-.334c-.141.511-.3,1.139-.539,1.783-.734,1.949-.475,2.031-2.755,1.562s-1.728,1.569-2.134-.252c-.371-1.665-.337-1.824-.834-3.925l-1.49-.21a33.532,33.532,0,0,1-1.334,3.145c-1.623,3.215-2.818.717-4.8-1.63a29.763,29.763,0,0,1-1.951-2.738c-.3-.048-.6-.1-.9-.147-.036.057-.073.121-.112.2-.719,1.391-1.788,3.811-3.56,2.525-1.41-1.023-1.855-3.184-2.151-3.719l-.216-.039h0a27.966,27.966,0,0,1-1.548,4.664c-1.4,3.05-1.4.128-2.039-3.017a9.433,9.433,0,0,0-.964-2.5c-.257-.05-.514-.1-.771-.149.694,21.556.776,32.584,2.844,56.79,2.059,24.1,6.121,62.123,8.862,87.9.546,5.141.731,1.861.53,6.361-.013.29-.019.507-.019.664-.047.324-.1.675-.151,1.065-1.4,10.014-4.481,32.83-5.02,45.314-.107,2.626-.71,2.912-1.017,11.763-.392,11.284-.147,36.023-.7,45.613s-4.281,19.625.955,20.275c2.487.308,16.1-5.78,21.87-6.253,2.825-.231,5.757,2.875,11.035.544,7.509-3.315,6.308-5.489,9.167-6.322.28-.082.3-.168.3-.2a.825.825,0,0,0,.207.2c-1.1-8.009,1.151-7.095-.536-16.68-1.694-9.622-6.814-23.175-7.641-34.793-.487-6.846-.854-15.079-1.053-20.914-.167-4.873-.667-5.024-1.124-8.911-.113-.965-.3-1.729-.459-2.646-.759-4.293-1.66-8.639-2.485-12.841-.2-1.005-.407-2.078-.557-2.876-.3-1.6-.7-3.52-.91-4.85a35.331,35.331,0,0,1-.4-7.732c.018-.406.056-.591.086-.94s.076-.661.116-.981c.019-.158.047-.321.065-.442.035-.237.1-.615.133-.795a18.452,18.452,0,0,1,.464-1.906c.16-.513.171-.515.323-.92.571-.552,1.134-1.211,1.686-1.794.218-.229.445-.532.7-.824,9.235-10.578,15.159-26.367,19.293-39.786,9.428-30.61,13.741-61.838,16.009-93.585l-.366-.045Z"/><path class="h" d="M1114.5,3314.164c-.192,3.669-.165,4.177-1.168,7.216-3.261,9.872-10.991,20.277-16.432,28.969-.2.318-.479.718-.634.967-1.3,2.082-2.75,4.545-3.838,6.542a5.885,5.885,0,0,0-.665,1.508,12.454,12.454,0,0,0-.393,2.853c-.034.4-.042.8-.045,1.307-.013,2.435.207,5,.25,7.465v.02c.021,1.87.294,4.1.437,5.849.167,2.052.291,3.666.307,5.642,0,.017,0,.033,0,.046-.015.452,0,.775-.043,1.25-.241,2.782-.571,5.71-.881,8.481-.069.612-.173,1.545-.222,1.966-.233,2.022-.432,3.7-.664,5.622-.078-1.793-.208-3.812-.279-5.472s-.042.057-.12-2.352-.619-8.588-.588-11.827.4-5.131.647-8.764c.147-2.16.616-6.538.878-9.279.12-1.25.281-2.874.462-4.272.3-2.354.385-3.515.735-6.162,1.764-13.355,3.236-27.4,6.516-40.363l.035-.144c.2-.836.258-.99.462-1.934,3.575-16.531,4.428-33.783,7.311-50.355,2.255-12.968,2.993-26.566,4.1-39.774.906.318,1.828-.337,2.72.623-.035,17.493.164,41.946.018,57.957C1113.266,3293.419,1115.213,3300.6,1114.5,3314.164Z"/><path class="i" d="M1093.213,3392.162a9.3,9.3,0,0,1-.014,1.773c-1.967,11.038,1.956-2.352-1.876,14.052-3.865,16.543-3.159,53.773-3.186,69.472.129,8.533-.188-6.213-.092,3.455-7.057.84-14.283,3.879-21.476,6.454.383-17.122.9-32.275.964-50.272s2.553-39.3,5.416-57.792c.83-5.356.039-11.442-.052-16.759-.018-1.1-.222-4.318-.325-5.858-1.115-16.6-3.279-42.857-4.353-57.515-1.658-22.646-8.055-51.133-4.226-68.774,2.037-9.38,1.7-8.679,2.055-17.646,1.452,1.029,3.083.575,4.594,1.112.511,2.565.918,6.815,1.977,8.988,2.146,4.4,3.02,1.467,3.569-1.663.236-1.341.458-4.7.6-6.378,2.773.349,5.525.826,8.263,1.209.628,5.522,1.475,11.055,1.793,16.563,0,.006-.011.022-.011.03.45,12.565.714,25.694-.05,37.89-.765,12.217,1.978,18.3,2.352,31.873s-.768,37.288-3.975,51.571a19.017,19.017,0,0,0-.418,3.611,12.015,12.015,0,0,0,.747,4.581,1.149,1.149,0,0,0,.069.165c1.613,3.369,3.906,6.029,5.575,9.376a12.463,12.463,0,0,1,.523,1.246,22.8,22.8,0,0,1,1.011,3.453,34.967,34.967,0,0,1,.629,5.862c0,.056.007.158.005.2a.311.311,0,0,0,0,.052C1093.221,3385.813,1093.412,3388.739,1093.213,3392.162Z"/><path class="h" d="M1087.674,3216.29c3.06,1.137,6.374.154,9.234,2.2-.59,16.94-2.362,46.975-4.208,61.246-2.167,16.758-2.716,22.256-3.562,34.66-.848,12.427-.334,21.073-2.213,32.5-.735,4.467-1.058,6.759-1.73,10.652-.385,2.231-.411,2.682-.7,4.629-.012.081-.011.111-.018.16a49.242,49.242,0,0,0-.4,6.729c.085,5.656.1,16.081.114,20.288s-.164,1.906-.2,3.637a13.481,13.481,0,0,1-.081,1.418c-.051,1.232-.175,2.685-.23,4-2.15-.345-4.309-.809-6.488-1.006.045-1.859.033-.8.095-3.062s-.111,4.318.057-1.481,1.264-23.019,1.868-29.429.087-1.331.479-6.109-.516,6.842.242-2.673,2.946-31.128,3.5-42.649-.578-20.847-.281-31.087.85-23.217,1.2-31.738,1.111-10.785,1.484-16.321.866-9.549,1.173-12.925S1087.4,3218.744,1087.674,3216.29Z"/><path class="j" d="M1070.4,3357.054c8.25.472,16.374.694,24.348.966-.453,1.365-.842,2.757-1.248,4.143-7.273.122-14.7.57-22.2.411C1071,3360.735,1070.709,3358.894,1070.4,3357.054Z"/><path class="j" d="M1099.137,3368.758c-.651-2.422-2.288-3.991-3.609-5.781a8.125,8.125,0,0,0-1.8-1.565,1.964,1.964,0,0,0-.237-.129,1.154,1.154,0,0,0-.2-.1,2.013,2.013,0,0,0-1.418-.111c-.123.5-.15.57-.282,1.176-.068.317-.163.7-.276,1.309a34.2,34.2,0,0,0-.64,9.36,9.985,9.985,0,0,0,1,3.434,3.6,3.6,0,0,0,.346.548,4.167,4.167,0,0,0,.725.794c.637.467,1.452,1.027,2.188.792C1098.319,3377.413,1100.12,3372.415,1099.137,3368.758Zm-4.749,6.854a1.158,1.158,0,0,1-.964-.154c-1.42-.776-1.781-2.639-1.846-4.45v-.017c.053-2.762.271-5.463.574-8.24.505.046.424-.18,1.006.421a20.556,20.556,0,0,1,3.727,4.278C1098.357,3370.023,1097.594,3374.86,1094.388,3375.612Z"/><path class="j" d="M1098.88,3360.481c-1.038-.7-3.378-.63-4.693-.573-.257.011-.5.018-.682.032s-.194.008-.343.026c.062.232.137.554.19.766s.09.365.135.543.087.354.125.507.055.237.095.378c.563.264,1.283.54,1.789.792s-.033-.095.676.323,3.223,2.142,3.966,2.627,2.62,1.27,2.5-.356S1100.364,3361.48,1098.88,3360.481Zm2.043,4.812c-1.754-.647-4.9-3.292-6.746-4.444,1.4-.845,4.415.252,5.139.891S1102.671,3365.939,1100.923,3365.293Z"/><path class="j" d="M1254.527,3232.2c-.008.151-.019.293-.036.426a2.784,2.784,0,0,0-2.521-2.723l-196.361-25.591s-2.891-.837-3.33,2.091c-.025-.275-.037-.565-.037-.877.014-3.838,3.386-2.856,3.386-2.856l196.354,25.932S1254.688,3228.72,1254.527,3232.2Z"/><path class="k" d="M1254.491,3232.629c-.351,2.985-2.793,2.19-2.793,2.19l-196.07-24.257c-1.287-.265-3.076-1.049-3.349-4.153v0c.439-2.928,3.33-2.091,3.33-2.091l196.361,25.591A2.784,2.784,0,0,1,1254.491,3232.629Z"/><path class="j" d="M1065.319,3204.052a1.438,1.438,0,0,1,1.2-.606c1.078.138,1.773,2.052,1.953,2.548,1.036,2.852.365,6.525-1.181,6.743-.334.047-1.007.124-2.048-.948-.7-.025-1.316-.156-2.013-.182a3.965,3.965,0,0,0,1.5,2.028,3.511,3.511,0,0,0,3.991-.031c.91-.679,1.083-1.7,1.318-3.09a8.143,8.143,0,0,0-.5-5.079c-.357-.761-1.241-2.66-2.768-2.974-1.588-.326-2.684.925-2.563,1.385C1064.275,3204.095,1064.815,3203.963,1065.319,3204.052Z"/><path class="j" d="M1079.552,3205.931a1.388,1.388,0,0,1,1.164-.6c1.046.134,1.72,2.018,1.9,2.506,1,2.806.353,6.424-1.146,6.642-.324.047-.977.124-1.986-.93-.674-.023-1.277-.151-1.952-.175a3.887,3.887,0,0,0,1.456,1.994,3.366,3.366,0,0,0,3.871-.037c.883-.671,1.05-1.675,1.278-3.046a8.127,8.127,0,0,0-.486-5c-.346-.749-1.2-2.618-2.685-2.924-1.54-.318-2.6.917-2.485,1.37C1078.539,3205.974,1079.063,3205.844,1079.552,3205.931Z"/><path class="j" d="M1093.357,3207.752a1.344,1.344,0,0,1,1.13-.592c1.014.13,1.668,1.984,1.838,2.464.974,2.762.343,6.328-1.112,6.545-.314.047-.947.124-1.927-.912-.654-.022-1.238-.147-1.894-.169a3.835,3.835,0,0,0,1.413,1.962,3.225,3.225,0,0,0,3.756-.045c.857-.661,1.019-1.651,1.241-3a8.129,8.129,0,0,0-.472-4.926c-.336-.736-1.168-2.576-2.6-2.874-1.495-.31-2.525.907-2.412,1.354C1092.375,3207.8,1092.883,3207.668,1093.357,3207.752Z"/><path class="j" d="M1106.754,3209.52a1.3,1.3,0,0,1,1.1-.586c.985.126,1.62,1.952,1.784,2.425.946,2.719.334,6.234-1.079,6.451-.305.047-.92.123-1.87-.9-.635-.02-1.2-.142-1.839-.163a3.764,3.764,0,0,0,1.372,1.93,3.093,3.093,0,0,0,3.646-.05c.831-.654.989-1.629,1.2-2.96a8.114,8.114,0,0,0-.458-4.853c-.326-.725-1.134-2.536-2.529-2.827-1.451-.3-2.451.9-2.341,1.339C1105.8,3209.566,1106.294,3209.438,1106.754,3209.52Z"/><path class="j" d="M1124.171,3211.819a1.249,1.249,0,0,1,1.055-.577c.947.12,1.557,1.909,1.715,2.372.91,2.665.321,6.112-1.037,6.328-.294.047-.885.124-1.8-.873-.61-.019-1.155-.137-1.767-.156a3.688,3.688,0,0,0,1.318,1.889,2.928,2.928,0,0,0,3.506-.058c.8-.642.951-1.6,1.158-2.9a8.09,8.09,0,0,0-.441-4.757c-.313-.71-1.09-2.484-2.431-2.766-1.4-.293-2.356.888-2.25,1.318C1123.255,3211.866,1123.729,3211.739,1124.171,3211.819Z"/><path class="l" d="M1129.913,3212.576a1.233,1.233,0,0,1,1.041-.574c.935.119,1.537,1.9,1.693,2.356.9,2.646.316,6.072-1.024,6.287-.29.047-.873.124-1.775-.866-.6-.018-1.14-.135-1.744-.153a3.652,3.652,0,0,0,1.3,1.875,2.875,2.875,0,0,0,3.46-.06c.789-.639.938-1.589,1.143-2.887a8.092,8.092,0,0,0-.435-4.726c-.309-.7-1.076-2.466-2.4-2.745-1.376-.291-2.325.883-2.221,1.311C1129.009,3212.625,1129.477,3212.5,1129.913,3212.576Z"/><path class="g" d="M1199.835,3230.534s-1.539-.353,1.588,2.711c3.1,3.04,1.045-2.836,1.045-2.836l2.295.728s.732,1.278,1.434,1.03a4.42,4.42,0,0,1,2.116.254l1.613.964s.839-2.921,1.348-1.916c.417.824,2.11.215,3.394-.05l1.6.223c.675.552,1.1,1.537,1.8.808.943-.986.03,2.2.473,1.444s1.5.624,2.118-1.513c.013-.047.026-.088.04-.126l.414.056c.356,1.131.725,4.569,1.706,4.906,1.276.439,1.722-1.725,2.057-4.4l1.119.147a9.284,9.284,0,0,1,.082,2.343c-.26,2.3,2.261,2.551,2.261,2.551a10.226,10.226,0,0,1,.448-2.981,9.516,9.516,0,0,1,1.811-1.333q.953.114,1.9.224c.1.457.21,1.014.381,1.6.517,1.772.335,1.793,1.934,1.813s1.2,1.618,1.483.175c.257-1.318.233-1.456.577-3.11l1.025.1c.228.774.516,1.791.912,2.844,1.1,2.936,1.912,1.09,3.246-.483a17.555,17.555,0,0,0,1.3-1.886l.6.043c.024.053.049.112.074.179.475,1.26,1.179,3.411,2.34,2.677.917-.58,1.206-2.242,1.4-2.619l.139.007h0a32.342,32.342,0,0,0,1,4.014c.9,2.676.9.339,1.305-2.065a6.925,6.925,0,0,1,.613-1.825l.49.017c-.441,17.057-.493,25.836-1.812,44.945-1.324,19.176-3.966,49.745-5.773,70.748-.363,4.215-.486,1.551-.352,5.208.008.236.012.413.013.541.03.261.063.544.1.859.926,8.053,2.949,26.252,3.3,36.265.069,2.1.461,2.255.66,9.341.254,9.022.095,28.976.451,36.576s2.745,14.732-.619,16.542c-1.622.872-10.785-.666-14.82.429s-10.556.331-14.9.43c-.215,0-.23-.065-.227-.09a1.163,1.163,0,0,1-.159.233c.847-7.315-.89-5.927.412-14.772,1.3-8.816,5.166-21.661,5.782-31.847.363-5.986.635-13.138.783-18.191.124-4.217.494-4.409.831-7.806.084-.843.219-1.519.339-2.325.558-3.765,1.219-7.577,1.821-11.245.144-.876.3-1.81.406-2.5.219-1.391.506-3.057.661-4.206a35.685,35.685,0,0,0,.291-6.608c-.013-.344-.041-.5-.062-.794s-.055-.558-.084-.828c-.014-.133-.034-.271-.047-.372-.026-.2-.074-.518-.1-.669-.074-.5-.24-1.243-.336-1.6-.116-.429-.124-.43-.235-.767-.416-.442-.827-.977-1.231-1.448-.159-.185-.326-.433-.513-.671-6.912-8.791-11.489-22.574-14.751-34.542-7.662-28.108-11.273-57.193-13.2-86.871l.312.038Z"/><path class="h" d="M1212.29,3315.623a19.836,19.836,0,0,0,.922,6.432c2.55,8.736,8.456,17.7,12.5,25.017.146.264.351.595.465.8.948,1.724,2.005,3.755,2.792,5.4a5.083,5.083,0,0,1,.479,1.244,11.965,11.965,0,0,1,.283,2.4c.025.334.03.671.032,1.1.01,2.064-.149,4.249-.179,6.347v.014c-.015,1.59-.212,3.5-.315,5-.12,1.757-.21,3.139-.221,4.818,0,.015,0,.028,0,.039.011.383,0,.659.031,1.058.173,2.338.411,4.788.634,7.1.05.511.125,1.29.16,1.641.167,1.686.31,3.082.476,4.681.056-1.527.149-3.25.2-4.662s.031.043.087-2,.442-7.321.419-10.053-.284-4.3-.461-7.353c-.106-1.816-.442-5.489-.63-7.794-.086-1.052-.2-2.419-.332-3.595-.218-1.981-.277-2.962-.529-5.194-1.277-11.308-2.349-23.282-4.762-34.459-.011-.05-.015-.072-.026-.126-.15-.725-.191-.859-.342-1.679-2.673-14.463-3.318-29.517-5.51-44.286-1.734-11.682-2.3-23.763-3.166-35.614-.706.1-1.428-.669-2.129,0,.027,15.53-.129,37.205-.014,51.432C1213.267,3297.249,1211.728,3303.519,1212.29,3315.623Z"/><path class="i" d="M1228.405,3382.5a9.245,9.245,0,0,0,.01,1.507c1.418,9.128-1.422-1.782,1.353,11.695,2.755,13.379,2.255,44.852,2.274,58.067s.134-5.279.065,2.885c4.933-1.12,9.843-.451,14.593-.167-.25-13.732-.59-25.865-.629-40.4s-1.677-31.492-3.578-46.279c-.555-4.314-.026-9.346.035-13.7.012-.9.148-3.539.217-4.8.741-13.578,2.172-34.921,2.877-46.765,1.083-18.2,5.2-40.407,2.747-55.039-1.318-7.869-1.1-7.247-1.33-14.535-.947.571-2.016-.088-3.013.075-.338,2-.608,5.388-1.313,6.982-1.437,3.25-2.025.7-2.4-1.968-.16-1.144-.31-3.951-.4-5.354-1.89-.221-3.785-.335-5.693-.525-.441,4.509-1.037,9-1.261,13.575a.128.128,0,0,1,.008.027c-.318,10.491-.5,21.5.036,31.83s-1.4,15.239-1.668,26.668.547,31.45,2.809,43.34a18.616,18.616,0,0,1,.293,3,12.234,12.234,0,0,1-.524,3.876,1.084,1.084,0,0,1-.049.142c-1.136,2.927-2.763,5.322-3.957,8.275-.121.3-.25.68-.376,1.1a23.929,23.929,0,0,0-.729,3.014,35.943,35.943,0,0,0-.454,5.042c0,.048-.005.135,0,.168a.367.367,0,0,1,0,.044C1228.4,3377.1,1228.261,3379.61,1228.405,3382.5Z"/><path class="h" d="M1232.37,3233.911c-2.18.382-4.571-1.086-6.661.111.433,14.619,1.728,40.531,3.067,52.86,1.559,14.36,1.951,19.036,2.555,29.541.6,10.487.237,17.777,1.569,27.351.517,3.723.745,5.631,1.216,8.861.27,1.846.288,2.222.492,3.834.009.066.008.092.013.133a48.22,48.22,0,0,1,.278,5.6c-.059,4.731-.069,13.442-.079,16.958a17.35,17.35,0,0,0,.139,3.017c.024,1.441.02.153.056,1.176s.122,2.221.161,3.315c1.491-.541,2.975-1.177,4.461-1.589-.031-1.526-.022-.654-.065-2.512s.076,3.545-.038-1.215-.861-18.884-1.274-24.145-.059-1.1-.328-5.029.354,5.634-.166-2.2-2.034-25.806-2.419-35.421.4-17.356.2-25.912-.593-19.456-.836-26.618-.777-9.18-1.04-13.876-.609-8.157-.825-11.048S1232.563,3236.026,1232.37,3233.911Z"/><path class="j" d="M1244.183,3351.5c-5.542.784-11.18,1.379-16.9,2.027.329,1.14.612,2.3.907,3.462,5.194-.332,10.345-.393,15.4-.951Q1243.884,3353.772,1244.183,3351.5Z"/><path class="j" d="M1227.155,3371.021c.537.134,1.128-.416,1.589-.869a4.068,4.068,0,0,0,.523-.737,3.664,3.664,0,0,0,.249-.494,10.449,10.449,0,0,0,.717-2.991,33.611,33.611,0,0,0-.459-7.884c-.082-.513-.15-.828-.2-1.093-.095-.506-.114-.567-.2-.98a1.289,1.289,0,0,0-1.024.177.921.921,0,0,0-.145.093,1.652,1.652,0,0,0-.171.124,7.1,7.1,0,0,0-1.311,1.445c-.968,1.617-2.175,3.075-2.658,5.207C1223.333,3366.247,1224.669,3370.4,1227.155,3371.021Zm-1.429-9.289a19.344,19.344,0,0,1,2.719-3.9c.42-.547.362-.35.726-.42.219,2.338.375,4.614.413,6.953v.014c-.046,1.541-.306,3.151-1.332,3.928a.794.794,0,0,1-.7.212C1225.2,3368.144,1224.641,3364.049,1225.726,3361.732Z"/><path class="j" d="M1221.451,3360.491c-.094,1.42,1.315.606,1.868.136s2.41-2.117,2.93-2.519.125-.073.495-.32.893-.526,1.3-.785c.03-.122.041-.194.069-.327s.059-.285.092-.44.059-.287.1-.47.092-.462.138-.663c-.108-.006-.118,0-.249,0s-.309.007-.495.012c-.959.026-2.677.1-3.444.762C1223.151,3356.824,1221.545,3359.071,1221.451,3360.491Zm2.48-3.506c.536-.594,2.755-1.712,3.774-1.071-1.344,1.093-3.666,3.564-4.972,4.241S1223.394,3357.58,1223.931,3356.985Z"/><path class="l" d="M1247.512,3228.095c-.159-.279-.436-.672-.78-.72-.7-.1-1.159,1.317-1.277,1.684-.68,2.116-.239,5.219.774,5.675.218.1.656.28,1.332-.4.449.1.85.11,1.3.214a2.3,2.3,0,0,1-.968,1.362,2.14,2.14,0,0,1-2.6-.735,5.006,5.006,0,0,1-.867-2.747,7.6,7.6,0,0,1,.33-4.03c.235-.548.816-1.915,1.814-1.87a1.939,1.939,0,0,1,1.662,1.611C1248.187,3228.329,1247.838,3228.12,1247.512,3228.095Z"/><path class="l" d="M1238.027,3226.843c-.163-.282-.446-.681-.8-.73-.721-.1-1.188,1.332-1.309,1.7-.7,2.141-.245,5.284.793,5.747.224.1.673.285,1.366-.4.461.106.872.113,1.332.219a2.316,2.316,0,0,1-.992,1.378,2.212,2.212,0,0,1-2.668-.749,5.036,5.036,0,0,1-.89-2.783,7.606,7.606,0,0,1,.34-4.08c.24-.555.836-1.939,1.86-1.891a1.979,1.979,0,0,1,1.7,1.634C1238.72,3227.081,1238.362,3226.869,1238.027,3226.843Z"/><path class="j" d="M1228.3,3225.56c-.167-.287-.458-.691-.82-.741-.74-.1-1.219,1.347-1.343,1.723-.716,2.168-.252,5.351.814,5.822.229.1.69.29,1.4-.4.472.109.894.116,1.366.225a2.341,2.341,0,0,1-1.018,1.393,2.288,2.288,0,0,1-2.736-.762,5.057,5.057,0,0,1-.913-2.821,7.6,7.6,0,0,1,.348-4.132c.247-.561.858-1.961,1.908-1.912a2.023,2.023,0,0,1,1.748,1.658C1229.011,3225.8,1228.644,3225.587,1228.3,3225.56Z"/><path class="j" d="M1218.322,3224.243c-.172-.29-.47-.7-.842-.752-.759-.1-1.25,1.362-1.378,1.743-.734,2.2-.258,5.42.835,5.9.235.1.708.295,1.438-.406.485.111.917.119,1.4.23a2.092,2.092,0,0,1-3.852.633,5.093,5.093,0,0,1-.936-2.858,7.6,7.6,0,0,1,.357-4.186c.253-.568.88-1.985,1.958-1.933a2.065,2.065,0,0,1,1.793,1.682C1219.051,3224.489,1218.674,3224.271,1218.322,3224.243Z"/><path class="j" d="M1204.478,3222.416c-.177-.3-.487-.714-.872-.767-.786-.109-1.295,1.383-1.427,1.771-.761,2.232-.267,5.516.865,6.005.244.1.734.3,1.489-.41.5.114.95.124,1.452.237a2.4,2.4,0,0,1-1.082,1.432,2.483,2.483,0,0,1-2.908-.8,5.136,5.136,0,0,1-.97-2.911,7.6,7.6,0,0,1,.37-4.259c.262-.578.911-2.019,2.027-1.963a2.126,2.126,0,0,1,1.858,1.716C1205.233,3222.669,1204.843,3222.445,1204.478,3222.416Z"/><path class="j" d="M1199.681,3221.783c-.179-.3-.493-.718-.882-.772-.8-.11-1.311,1.39-1.445,1.78-.77,2.245-.271,5.549.876,6.042.246.106.742.3,1.506-.411.509.115.963.125,1.47.239a2.42,2.42,0,0,1-1.1,1.441,2.525,2.525,0,0,1-2.943-.8,5.143,5.143,0,0,1-.982-2.93,7.608,7.608,0,0,1,.374-4.284c.266-.581.923-2.03,2.053-1.973a2.148,2.148,0,0,1,1.88,1.728C1200.445,3222.038,1200.05,3221.813,1199.681,3221.783Z"/><path class="m" d="M2178.154,3267.348v205.775c0,.353.351.654.827.709l68.945,8,21.89,2.53,79.581,9.238c.6.069,1.135-.267,1.135-.708v-245.32c0-.441-.539-.778-1.135-.708l-79.581,9.238-21.89,2.53-68.945,8C2178.5,3266.7,2178.154,3267,2178.154,3267.348Z"/><g class="n"><path class="o" d="M1459.113,3417.244s1.131,14.628-5.494,25.026c-4.452,6.986,4.242,6.443,13.746,4.937,7.3-1.157,8.721-5.26,8.721-5.26a10.151,10.151,0,0,1-5.637-6.679c-1.516-4.881-.723-13.477.053-18.024C1472.117,3407.776,1459.113,3417.244,1459.113,3417.244Z"/><path class="p" d="M1510.874,3784.409s-16.522,144.6-10.6,147.2c10.63,4.726,52.311,20.3,6.133,16.245-23.775,1.024-21.941-4.252-22.235-8.755-.24-3.679,2.681-133.292,1.878-143.389-.179-2.262-.288-3.628-.288-3.628Z"/><path class="q" d="M1374.487,3911.329c3.08.358,10.129,3.286,13.893,5.617,12.2-28.633,56.779-136.148,56.779-136.148l-19.558-15.607S1387,3876.48,1374.487,3911.329Z"/><path class="r" d="M1373.028,3911.608c.934-1.892,17.364,5.194,17.818,7.543.224,1.159,21.18,23.365,18.451,26.9-1.432,3.775-9.043,2.135-16.872.671a21.539,21.539,0,0,1-8.616-3.7c-9.231-6.646-17.589-11.906-18.85-15.033C1363.858,3925.265,1371.192,3915.325,1373.028,3911.608Z"/><path class="r" d="M1483.56,3926.422c-.241-2.1,17.524.863,19.179,2.591s27.462,9.225,26.724,18.021-41.716,1.167-44.648.91S1484.033,3930.541,1483.56,3926.422Z"/><path class="s" d="M1530.918,3628.659a9.168,9.168,0,0,1-5.388,1.965c-12.215-.77-64.962-4.228-93.4-8.235-10.032-1.415-17.038-2.9-18.169-4.358,0,0,0,.041,0,.116-.056,1.582-.645,19.687-1.333,43.427-1.358,46.864-11.712,113.288-19.025,133.1-1.578,4.277,64.414,3.062,64.414,3.062,4.168-48.133,6.6-133.04,9.86-136.584,3.971-4.312,3.637,70.521,5.161,133.29,25.357,8.906,66.735,8.2,66.48,5.5C1536.5,3767.932,1530.918,3628.659,1530.918,3628.659Z"/><g class="t"><path d="M1482.054,3627.494c.2,0,.4,0,.592,0C1482.646,3627.494,1482.436,3627.491,1482.054,3627.494Z"/><path class="u" d="M1482.054,3627.494c-15.8-.047-49.923-5.1-49.923-5.1-10.032-1.415-17.038-2.9-18.169-4.358,0,0,0,.041,0,.116-.056,1.582-.645,19.687-1.333,43.427a11.6,11.6,0,0,0,1.666-.054,12.886,12.886,0,0,0,8.8-5.215,28.638,28.638,0,0,0,3.789-6.478C1440.423,3628.528,1476.988,3627.529,1482.054,3627.494Z"/></g><line class="v" x2="2.235" y2="175.15" transform="translate(1519.568 3626.573)"/><line class="v" x2="2.36" y2="172.114" transform="translate(1502.787 3628.683)"/><line class="v" x1="0.319" y2="170.691" transform="translate(1486.346 3627.349)"/><line class="v" x1="3.26" y2="35.092" transform="translate(1467.877 3626.064)"/><line class="v" x1="11.137" y2="173.255" transform="translate(1442.765 3624.637)"/><line class="v" x1="13.553" y2="174.516" transform="translate(1425.527 3623.301)"/><line class="v" x1="17.877" y2="175.166" transform="translate(1406.625 3622.094)"/><path class="v" d="M1531.67,3646.923s-93.951-3.329-118.311-9.793"/><path class="v" d="M1467.877,3661.156c32.13,10.127,64.436,1,64.436,1"/><path class="v" d="M1468.414,3658.969s-30.237,5.858-55.613-3.3"/><path class="v" d="M1532.869,3675.02s-24.62,10.4-62.427.931"/><path class="v" d="M1533.545,3690.347s-37.648,8.172-62.492.307"/><path class="v" d="M1534.235,3705.575s-19.915,13.113-62.731,2.947"/><path class="v" d="M1535.055,3723.093s-29.749,12.539-63.288-.468"/><path class="v" d="M1535.837,3739.144s-21.384,12.665-63.792.77"/><path class="v" d="M1536.682,3755.6s-29.083,12.264-64.432-2.515"/><path class="v" d="M1537.384,3768.449s-17.755,14.457-64.9-1.252"/><path class="v" d="M1538.258,3783.039s-27.753,11.808-65.511-1.749"/><path class="v" d="M1465.758,3674.72s-13.189,9.172-54.381-1.857"/><path class="v" d="M1464.164,3690.035s-17.992,6.643-52.99-2.676"/><path class="v" d="M1463.6,3707.132s-27.416,5.843-53.694-4.444"/><path class="v" d="M1462.816,3721.285s-26.96,9.407-54.6-4.519"/><path class="v" d="M1461.97,3736.824s-25.475,6.638-55.753-4.615"/><path class="v" d="M1461.137,3751.747s-21.643,7.635-57.129-4.729"/><path class="v" d="M1460.046,3764.92s-25.832,10.717-58.5-3.476"/><path class="v" d="M1459.279,3781.438s-28.971,7.219-60.881-4.332"/><path class="w" d="M1551.723,3519.542c2,3.13,10.181,92.045,0,110.49-10.24,18.551-95.547,28.467-122.367,14.2-27.215-14.481-37.7-28.408-41.335-54.379-3.645-26.022,4.853-66.184,4.853-66.184l116.308-76.864Z"/><path class="x" d="M1529.284,3622.175a67.727,67.727,0,0,0-7.133,4.146,21.188,21.188,0,0,0-3.665,5.387c-.68,1.438,2.138.129,4.289-3.025,2.09-1.145,4.036-2.434,4.514-1.964s-2.814,1.331-5.167,3.574c-2.3,2.956-4.515,5.855-3.723,5.913.772.056,1.658.088,4.93-4.192,2.313-1.059,4.564-2.323,4.748-1.833s-2.691,1.4-4.966,3.377c-3.185,3.265-3.927,4.457-5.1,5.6.636.711,2.768.068,6.676-3.839,2.109-1.311,5.255-1.818,5.362-1.161-.1.7-2.29,1.081-3.781,1.971a17.6,17.6,0,0,0-4.109,3.295c-.443.566.023,1.548,5.193-1.35a5.3,5.3,0,0,1,3.747-.234l2.68-7.341Z"/><path class="q" d="M1543.992,3625.026s-12.6-2.595-13.727-3.059-3.9,2.852-3,3.471,2.168,2.932,2.015,3.687a2.9,2.9,0,0,0,.569,2.62c.764.886,1.885,2.021,1.4,3.343s-1.632,2.652-.148,2.756a26.557,26.557,0,0,1,9.22,3.376c3.17,1.982,11.071-6.632,11.071-6.632Z"/><path class="x" d="M1422.593,3622.9a67.2,67.2,0,0,1,8.225-.226,20.842,20.842,0,0,1,5.906,2.663c1.321.868-1.758,1.238-5.22-.318-2.375.125-4.7.052-4.865.705s3.088-.348,6.252.323c3.492,1.307,6.872,2.614,6.226,3.081-.63.455-1.369.95-6.368-.976-2.52.317-5.092.427-5,.941s3.018-.224,5.978.262c4.4,1.1,5.65,1.731,7.246,2.088-.175.942-2.326,1.518-7.675.246-2.476-.005-5.422,1.222-5.174,1.838.442.543,2.512-.285,4.243-.313a17.385,17.385,0,0,1,5.205.644c.67.249.778,1.333-5.127,1.587a5.344,5.344,0,0,0-3.318,1.778l-6.073-4.849Z"/><path class="q" d="M1411.515,3633.087s9.416-8.864,10.134-9.852,4.8.377,4.352,1.377-.337,3.645.183,4.208a2.9,2.9,0,0,1,.866,2.536c-.194,1.158-.565,2.719.534,3.588s2.76,1.4,1.547,2.274a27.035,27.035,0,0,0-6.125,7.744c-1.682,3.364-12.866.182-12.866.182Z"/><path class="w" d="M1318.521,3612.862c14.426,24.608,33.742,49.881,71.474,48.667,11.328-.738,17.32-5.844,20.28-11.616a22.291,22.291,0,0,0,1.522-3.812c.05-.169.1-.337.146-.506a24.616,24.616,0,0,0,.621-2.964,21.636,21.636,0,0,0-.463-9.222l0-.017c-.054-.16-.108-.312-.167-.451-.021-.054-.046-.114-.075-.177-.188-.443-.479-1.075-.863-1.872-1.693-3.5-5.174-10.124-9.652-17.439-7.992-13.071-7.742-33.112-4.282-43.422.376-1.117,2.448-2.239,5.737-3.482.984-.372,2.077-.759,3.269-1.164,16.469-5.528,35.689-40.344,47.6-69.345,2.423-5.9,4.541-11.565,6.283-16.705a146.065,146.065,0,0,0,4.153-14.26c1.1-4.887,1.376-8.315.625-9.6a1,1,0,0,0-.967-.561,21.642,21.642,0,0,1-6.371-.852c-5.215-1.349-11.027-5.363-15.193-8.69l0,0c-3.381-2.7-5.666-4.95-5.666-4.95h-.017c-.2.008-2.092.088-5.24.493a110.315,110.315,0,0,0-11.437,2.125c-1.668.392-3.427.848-5.266,1.371-.792.223-1.6.463-2.414.712a121.322,121.322,0,0,0-62.7,44.269C1313.826,3537.9,1303.928,3587.951,1318.521,3612.862Z"/><path class="y" d="M1349.455,3569.149a2.063,2.063,0,0,1,.254.081C1349.6,3569.2,1349.516,3569.166,1349.455,3569.149Z"/><path class="w" d="M1411.8,3444.692s.121.148.358.43c1.322,1.59,6.229,7.5,13.4,16.225,5.9,7.194,13.321,16.3,21.531,26.492l0,0c2.143,2.66,4.344,5.4,6.583,8.2,38.762,48.41,89.107,113.989,84.4,122.688a15.136,15.136,0,0,0-1.668,4.693,12.5,12.5,0,0,0-.167,2.437c.15,5.034,3.394,9.065,6.479,11.776.009.009.017.013.025.021a1.046,1.046,0,0,0,.134.118,31.321,31.321,0,0,0,2.618,2.029,27.082,27.082,0,0,0,2.814,1.733c41.08-6.469,60.409-23.959,60.409-71.023s-26.875-126.714-120.831-132.183a15.616,15.616,0,0,0-7.133,1.915c-4.812,2.272-9.99,5.873-14.159,6.894a8.87,8.87,0,0,1-1.943.278c-9.01.207-15.539-4.765-22.164-6.506a.171.171,0,0,1-.021-.008l-.038-.013a15.3,15.3,0,0,0-5.891-.468h-.017q-2.607.341-5,.687c-3.027.439-5.77.881-8.184,1.3-1.255.219-2.422.434-3.494.632-1.663.312-3.089.595-4.265.835-.5.1-.955.2-1.359.283C1412.639,3444.49,1411.8,3444.692,1411.8,3444.692Z"/><ellipse class="q" cx="17.154" cy="23.404" rx="17.154" ry="23.404" transform="translate(1447.999 3379.161)"/><path class="s" d="M1471.522,3391.413s-29.7,16.466-20.884-9.97C1456.737,3363.152,1491.775,3379.628,1471.522,3391.413Z"/><path class="s" d="M1467.216,3385.1s16.616,9.859,15.013,19.749c0,0,3.664-29.528-12.857-30.27s-22.918.852-21.451,32.076C1447.921,3406.653,1452.721,3381.816,1467.216,3385.1Z"/><path class="s" d="M1470.092,3374.769s-.834-9.2-9.955-7.9-13.029,6.515-14.332,11.726-2.606,9.121-3.909,9.121c0,0,3.909,3.909,5.212,2.606,0,0-3.382,9.37.914,17.063,0,0,1.691-11.851,8.206-13.154S1470.092,3374.769,1470.092,3374.769Z"/><path class="s" d="M1469.258,3374.689s6.514-3.908,13.029,5.212l3.909,7.818s-1.3,1.3-3.909,0c0,0,1.187,9.18-.058,14.362l-3.851-15.665Z"/><path class="w" d="M1313.322,3598.682l0,.009,0,.008c13.263,36.005,82.652-101.668,82.652-101.668l29.569-35.684,9.973-12.034,2.323-2.8,2.326-2.8,2.314-2.8-.008,0a.171.171,0,0,1-.021-.008l-.038-.013a77.782,77.782,0,0,0-26.229-4.035,80.2,80.2,0,0,0-9.727.7,75.42,75.42,0,0,0-39.733,18.034C1320.664,3495.265,1300.076,3562.669,1313.322,3598.682Z"/><path class="y" d="M1416.191,3436.854a24.281,24.281,0,0,0,5.345,4.638,10.745,10.745,0,0,0,1.56.814l.233.1a71.357,71.357,0,0,0,14.518,4.107,38.934,38.934,0,0,0,6.654.636c.183,0,.363,0,.538-.008,7.909-.24,13.262,3.057,18.149,3.293,2.693.131,3.41-1.6,3.4-3.3a8.87,8.87,0,0,1-1.943.278c-9.01.207-15.539-4.765-22.164-6.506a.171.171,0,0,1-.021-.008l-.038-.013A77.782,77.782,0,0,0,1416.191,3436.854Z"/><path class="y" d="M1401.185,3620.832s-24.2-25.766-13.475-39.657,39.005-49.632,39.916-63.709c0,0-4.2,25.459-14.495,40.286S1401.185,3620.832,1401.185,3620.832Z"/><path class="y" d="M1539.284,3604.7s11.54-8.73,12.082-16.166-10.711-27.706-10.711-27.706,6.752,19.233,3.707,26.294S1539.284,3604.7,1539.284,3604.7Z"/></g><path class="z" d="M2260.587,3318.209l-30.976,4.2c-2.069.28-3.7,2.5-3.672,4.958l.241,18.536,34.734-2.576Z"/><path class="aa" d="M2226.781,3391.993l.239,18.391c.032,2.459,1.725,4.635,3.8,4.861l31.077,3.388-.325-24.955Z"/><path class="ab" d="M2226.18,3345.9l34.734-2.576.328,25.111-34.762.452Z"/><path class="ac" d="M2226.48,3368.887l34.762-.452.328,25.246L2226.781,3392Z"/><path class="ad" d="M2297.075,3313.266l-36.488,4.943.327,25.115,41.811-3.1-.291-22.312A4.627,4.627,0,0,0,2297.075,3313.266Z"/><path class="ae" d="M2261.57,3393.678l.325,24.955,36.607,3.992a4.627,4.627,0,0,0,5.234-4.78l-.289-22.136-41.877-2.028Z"/><path class="af" d="M2260.914,3343.324l41.811-3.1.36,27.67-41.843.543Z"/><path class="ag" d="M2261.242,3368.435l41.843-.543.362,27.817-41.877-2.028Z"/><path class="ah" d="M2245.345,3395.425l-35.4-1.941c-1.789-.1-3.251-2-3.28-4.24l-.524-40.217c-.029-2.243,1.383-4.179,3.168-4.324l35.342-2.863c2.177-.176,3.988,1.717,4.021,4.229l.587,45.025C2249.287,3393.6,2247.526,3395.545,2245.345,3395.425Z"/><path class="d" d="M2217.628,3356.515l4.892-.23,4.192,9.4,4.27-9.8,4.907-.231-6.56,13.181,7.058,13.008-5.181-.108-4.663-10.131-4.277,9.944-4.882-.1,6.4-12.584Z"/><path class="w" d="M1335.509,3430.834l-8.574,1.27-7.671-51.777-7.907,6.627-1.314-8.869,7.839-7.087,8.574-1.27Z"/><path class="w" d="M1442.685,3313.409l10.427-9.471,2.348.991-10.236,9.393,7.972,3.366-.892,2.113-10.454-4.414Zm9.158-2.128,2.226.939-4.041,9.571-2.225-.939Z"/><path class="w" d="M1577.937,3349.191a4.432,4.432,0,0,1-2.107-1.425,4.932,4.932,0,0,1-1.032-2.454l-.043-.288a4.956,4.956,0,0,1,.29-2.558,4.423,4.423,0,0,1,1.489-2,3.838,3.838,0,0,1-1.7-1.239,3.969,3.969,0,0,1-.857-1.928l-.062-.42a4.7,4.7,0,0,1,.256-2.5,4.194,4.194,0,0,1,1.491-1.865,6.245,6.245,0,0,1,5.186-.769,4.19,4.19,0,0,1,1.967,1.354,4.69,4.69,0,0,1,.969,2.315l.063.421a3.922,3.922,0,0,1-.27,2.113,3.85,3.85,0,0,1-1.293,1.664,4.587,4.587,0,0,1,2.029,1.485,4.853,4.853,0,0,1,1.03,2.356l.043.288a4.938,4.938,0,0,1-.276,2.649,4.437,4.437,0,0,1-1.6,1.973,6.841,6.841,0,0,1-5.571.826Zm2.606-10.564a2.224,2.224,0,0,0,.742-1.036,2.881,2.881,0,0,0,.112-1.4l-.025-.168a2.67,2.67,0,0,0-.505-1.251,2.183,2.183,0,0,0-1-.74,2.931,2.931,0,0,0-2.593.384,2.188,2.188,0,0,0-.748,1,2.7,2.7,0,0,0-.118,1.355l.027.18a2.805,2.805,0,0,0,.51,1.292,2.229,2.229,0,0,0,1.01.771,2.832,2.832,0,0,0,2.593-.384Zm1.37,7.839a2.438,2.438,0,0,0,.863-1.09,2.737,2.737,0,0,0,.147-1.451l-.025-.169a2.763,2.763,0,0,0-.563-1.357,2.451,2.451,0,0,0-1.142-.795,3.56,3.56,0,0,0-3,.445,2.438,2.438,0,0,0-.863,1.1,2.819,2.819,0,0,0-.144,1.469l.027.18a2.716,2.716,0,0,0,.56,1.34,2.424,2.424,0,0,0,1.141.782,3.3,3.3,0,0,0,1.549.108A3.236,3.236,0,0,0,1581.913,3346.466Z"/><path class="w" d="M1602.408,3450.516a4.3,4.3,0,0,1-.6-2.187,6.029,6.029,0,0,1,.559-2.482l.006-.01,2.085,1.336-.006.01a2.3,2.3,0,0,0-.161,1.691,2.516,2.516,0,0,0,1.119,1.358,2.238,2.238,0,0,0,1.977.323,3.447,3.447,0,0,0,1.755-1.536l.8-1.246a3.433,3.433,0,0,0,.654-2.226,2.243,2.243,0,0,0-1.119-1.662,2.34,2.34,0,0,0-1.24-.36,3.46,3.46,0,0,0-1.428.3l-1.9-1.218,5.014-7.828,7.574,4.851-1.27,1.982-5.488-3.515-2.141,3.342a3.492,3.492,0,0,1,1.183.066,3.415,3.415,0,0,1,1.092.454,5.133,5.133,0,0,1,1.862,1.943,4.034,4.034,0,0,1,.4,2.444,6.894,6.894,0,0,1-1.1,2.767l-.8,1.247a6.719,6.719,0,0,1-2.068,2.149,4.127,4.127,0,0,1-2.43.642,5.327,5.327,0,0,1-2.6-.91A5.222,5.222,0,0,1,1602.408,3450.516Z"/></g></svg>