<svg xmlns="http://www.w3.org/2000/svg" width="900.597" height="384.81" viewBox="0 0 900.597 384.81"><defs><style>.a{fill:#fff;}.b{fill:#7fd1d8;}.c{fill:#f7cf43;}.d,.e{fill:#323232;font-family:DejaVuSans, DejaVu Sans;}.d{font-size:16px;}.e{font-size:17px;}.f,.g{fill:none;stroke:#947dce;stroke-miterlimit:10;}.f{stroke-width:1.193px;}.g{stroke-width:6px;}.h{fill:#947dce;}</style></defs><g transform="translate(-306.403 -220.403)"><g transform="translate(307 221)"><rect class="a" width="109.453" height="132.399" transform="translate(0 33.35)"/><path class="b" d="M0,0H109.453V132.4H0Z" transform="translate(108.851 33.35)"/><rect class="c" width="218.905" height="33.35"/><text class="d" transform="translate(10.925 22.971)"><tspan x="0" y="0">მაგალითი</tspan></text><text class="d" transform="translate(10.925 90.724)"><tspan x="0" y="0">3x12-20=</tspan></text><text class="d" transform="translate(10.925 122.798)"><tspan x="0" y="0">3x10:5 =</tspan></text><text class="d" transform="translate(10.925 155.676)"><tspan x="0" y="0">15x10:5 =</tspan></text><text class="e" transform="translate(10.925 55.76)"><tspan x="0" y="0">25+4x2=</tspan></text><text class="d" transform="translate(126.571 55.845)"><tspan x="0" y="0">=25+4*2</tspan></text><text class="e" transform="translate(121.179 22.886)"><tspan x="0" y="0">ფორმულა</tspan></text><rect class="f" width="109.453" height="33.35"/><rect class="f" width="109.453" height="33.35" transform="translate(109.453)"/><rect class="f" width="109.453" height="33.35" transform="translate(0 33.35)"/><rect class="f" width="109.453" height="33.35" transform="translate(109.453 33.35)"/><rect class="f" width="109.453" height="33.35" transform="translate(0 66.701)"/><rect class="f" width="109.453" height="33.35" transform="translate(109.453 66.701)"/><rect class="f" width="109.453" height="33.35" transform="translate(0 100.051)"/><rect class="f" width="109.453" height="33.35" transform="translate(109.453 100.051)"/><rect class="f" width="109.453" height="33.35" transform="translate(0 133.401)"/><rect class="f" width="109.453" height="33.35" transform="translate(109.453 133.401)"/></g><g transform="translate(614.291 221)"><rect class="a" width="109.453" height="132.399" transform="translate(0 33.35)"/><path class="b" d="M0,0H109.453V132.4H0Z" transform="translate(108.851 33.35)"/><path class="c" d="M0,0H218.905V33.35H0Z"/><text class="d" transform="translate(10.925 22.971)"><tspan x="0" y="0">მაგალითი</tspan></text><text class="d" transform="translate(10.925 90.724)"><tspan x="0" y="0">3x12-20=</tspan></text><text class="d" transform="translate(10.925 122.798)"><tspan x="0" y="0">3x10:5 =</tspan></text><text class="d" transform="translate(10.925 155.676)"><tspan x="0" y="0">15x10:5 =</tspan></text><text class="e" transform="translate(10.925 55.76)"><tspan x="0" y="0">25+4x2=</tspan></text><text class="d" transform="translate(154.355 55.845)"><tspan x="0" y="0">33</tspan></text><text class="e" transform="translate(122.181 88.518)"><tspan x="0" y="0">=3*12-20</tspan></text><text class="e" transform="translate(121.179 22.886)"><tspan x="0" y="0">ფორმულა</tspan></text><rect class="f" width="109.453" height="33.35"/><rect class="f" width="109.453" height="33.35" transform="translate(109.453)"/><rect class="f" width="109.453" height="33.35" transform="translate(0 33.35)"/><rect class="f" width="109.453" height="33.35" transform="translate(109.453 33.35)"/><rect class="f" width="109.453" height="33.35" transform="translate(0 66.701)"/><rect class="f" width="109.453" height="33.35" transform="translate(109.453 66.701)"/><rect class="f" width="109.453" height="33.35" transform="translate(0 100.051)"/><rect class="f" width="109.453" height="33.35" transform="translate(109.453 100.051)"/><rect class="f" width="109.453" height="33.35" transform="translate(0 133.401)"/><rect class="f" width="109.453" height="33.35" transform="translate(109.453 133.401)"/></g><g transform="translate(920.542 221)"><path class="a" d="M0,0H109.453V132.4H0Z" transform="translate(0 33.35)"/><path class="b" d="M0,0H109.453V132.4H0Z" transform="translate(108.851 33.35)"/><rect class="c" width="218.905" height="33.35"/><text class="d" transform="translate(10.925 22.971)"><tspan x="0" y="0">მაგალითი</tspan></text><text class="d" transform="translate(10.925 90.724)"><tspan x="0" y="0">3x12-20=</tspan></text><text class="d" transform="translate(10.925 122.798)"><tspan x="0" y="0">3x10:5 =</tspan></text><text class="d" transform="translate(10.925 155.676)"><tspan x="0" y="0">15x10:5 =</tspan></text><text class="e" transform="translate(10.925 55.76)"><tspan x="0" y="0">25+4x2=</tspan></text><text class="d" transform="translate(154.355 55.845)"><tspan x="0" y="0">33</tspan></text><text class="d" transform="translate(154.355 88.604)"><tspan x="0" y="0">16</tspan></text><text class="d" transform="translate(135.203 122.798)"><tspan x="0" y="0">=3*10/5</tspan></text><text class="e" transform="translate(121.179 22.886)"><tspan x="0" y="0">ფორმულა</tspan></text><rect class="f" width="109.453" height="33.35"/><rect class="f" width="109.453" height="33.35" transform="translate(109.453)"/><rect class="f" width="109.453" height="33.35" transform="translate(0 33.35)"/><rect class="f" width="109.453" height="33.35" transform="translate(109.453 33.35)"/><rect class="f" width="109.453" height="33.35" transform="translate(0 66.701)"/><rect class="f" width="109.453" height="33.35" transform="translate(109.453 66.701)"/><rect class="f" width="109.453" height="33.35" transform="translate(0 100.051)"/><rect class="f" width="109.453" height="33.35" transform="translate(109.453 100.051)"/><rect class="f" width="109.453" height="33.35" transform="translate(0 133.401)"/><rect class="f" width="109.453" height="33.35" transform="translate(109.453 133.401)"/></g><g transform="translate(541.879 297.143)"><line class="g" x2="30.221" transform="translate(0 19.578)"/><g transform="translate(19.878)"><path class="h" d="M298.187,387.963c-11.694,4.339-26.2,11.741-35.194,19.582l7.083-19.582-7.083-19.579C271.985,376.225,286.493,383.627,298.187,387.963Z" transform="translate(-262.993 -368.384)"/></g></g><g transform="translate(849.039 297.143)"><line class="g" x2="30.221" transform="translate(0 19.578)"/><g transform="translate(19.877)"><path class="h" d="M553.312,387.963c-11.693,4.339-26.2,11.741-35.194,19.582l7.083-19.582-7.083-19.579C527.112,376.225,541.619,383.627,553.312,387.963Z" transform="translate(-518.118 -368.384)"/></g></g><g transform="translate(1151.929 297.143)"><line class="g" x2="30.221" transform="translate(0 19.578)"/><g transform="translate(19.877)"><path class="h" d="M804.892,387.963C793.2,392.3,778.692,399.7,769.7,407.545l7.083-19.582L769.7,368.384C778.692,376.225,793.2,383.627,804.892,387.963Z" transform="translate(-769.698 -368.384)"/></g></g><g transform="translate(307 440.212)"><rect class="a" width="107.912" height="130.535" transform="translate(0 32.881)"/><path class="b" d="M0,0H107.912V130.535H0Z" transform="translate(107.319 32.881)"/><rect class="c" width="215.824" height="32.881"/><text class="d" transform="translate(10.771 22.859)"><tspan x="0" y="0">მაგალითი</tspan></text><text class="d" transform="translate(10.771 89.658)"><tspan x="0" y="0">3x12-20=</tspan></text><text class="d" transform="translate(10.771 121.281)"><tspan x="0" y="0">3x10:5 =</tspan></text><text class="d" transform="translate(10.771 153.696)"><tspan x="0" y="0">15x10:5 =</tspan></text><text class="d" transform="translate(10.771 55.27)"><tspan x="0" y="0">25+4x2=</tspan></text><text class="d" transform="translate(152.183 55.27)"><tspan x="0" y="0">33</tspan></text><text class="d" transform="translate(152.183 87.568)"><tspan x="0" y="0">16</tspan></text><text class="d" transform="translate(158.145 121.281)"><tspan x="0" y="0">6</tspan></text><text class="d" transform="translate(124.619 153.696)"><tspan x="0" y="0">=15*10/5</tspan></text><text class="d" transform="translate(119.473 22.859)"><tspan x="0" y="0">ფორმულა</tspan></text><rect class="f" width="107.912" height="32.881"/><rect class="f" width="107.912" height="32.881" transform="translate(107.912)"/><rect class="f" width="107.912" height="32.881" transform="translate(0 32.881)"/><rect class="f" width="107.912" height="32.881" transform="translate(107.912 32.881)"/><rect class="f" width="107.912" height="32.881" transform="translate(0 65.762)"/><rect class="f" width="107.912" height="32.881" transform="translate(107.912 65.762)"/><rect class="f" width="107.912" height="32.881" transform="translate(0 98.643)"/><rect class="f" width="107.912" height="32.881" transform="translate(107.912 98.643)"/><rect class="f" width="107.912" height="32.881" transform="translate(0 131.523)"/><rect class="f" width="107.912" height="32.881" transform="translate(107.912 131.523)"/></g><g transform="translate(624.013 440.212)"><rect class="a" width="107.912" height="130.535" transform="translate(0 32.881)"/><rect class="b" width="107.912" height="130.535" transform="translate(107.319 32.881)"/><rect class="c" width="215.824" height="32.881"/><text class="d" transform="translate(10.771 22.859)"><tspan x="0" y="0">მაგალითი</tspan></text><text class="d" transform="translate(10.771 89.658)"><tspan x="0" y="0">3x12-20=</tspan></text><text class="d" transform="translate(10.771 121.281)"><tspan x="0" y="0">3x10:5 =</tspan></text><text class="d" transform="translate(10.771 153.696)"><tspan x="0" y="0">15x10:5 =</tspan></text><text class="d" transform="translate(10.771 55.27)"><tspan x="0" y="0">25+4x2=</tspan></text><text class="d" transform="translate(152.182 55.27)"><tspan x="0" y="0">33</tspan></text><text class="d" transform="translate(152.183 87.568)"><tspan x="0" y="0">16</tspan></text><text class="d" transform="translate(158.145 121.281)"><tspan x="0" y="0">6</tspan></text><text class="d" transform="translate(154.17 153.696)"><tspan x="0" y="0">30</tspan></text><text class="d" transform="translate(119.474 22.859)"><tspan x="0" y="0">ფორმულა</tspan></text><rect class="f" width="107.912" height="32.881"/><rect class="f" width="107.912" height="32.881" transform="translate(107.912)"/><rect class="f" width="107.912" height="32.881" transform="translate(0 32.881)"/><rect class="f" width="107.912" height="32.881" transform="translate(107.912 32.881)"/><rect class="f" width="107.912" height="32.881" transform="translate(0 65.762)"/><rect class="f" width="107.912" height="32.881" transform="translate(107.912 65.762)"/><rect class="f" width="107.912" height="32.881" transform="translate(0 98.643)"/><rect class="f" width="107.912" height="32.881" transform="translate(107.912 98.643)"/><rect class="f" width="107.912" height="32.881" transform="translate(0 131.523)"/><rect class="f" width="107.912" height="32.881" transform="translate(107.912 131.523)"/></g><g transform="translate(546.271 515.284)"><line class="g" x2="29.796" transform="translate(0 19.303)"/><g transform="translate(19.597)"><path class="h" d="M1062.081,387.687c-11.528,4.278-25.832,11.576-34.7,19.307l6.983-19.307-6.983-19.3C1036.249,376.115,1050.552,383.413,1062.081,387.687Z" transform="translate(-1027.382 -368.384)"/></g></g></g></svg>