<svg xmlns="http://www.w3.org/2000/svg" xmlns:xlink="http://www.w3.org/1999/xlink" width="925.5" height="364.496" viewBox="0 0 925.5 364.496"><defs><style>.a{fill:#0c0c0c;}.b{fill:#fff;}.c,.s{fill:none;}.c{stroke:#fff;}.c,.e{stroke-miterlimit:10;}.d{fill:#080808;}.e{fill:#f3f3f3;stroke:#080808;}.f{fill:#41a5ee;}.g{fill:#2b7cd3;}.h{fill:#185abd;}.i{fill:#103f91;}.j{opacity:0.1;}.j,.k{isolation:isolate;}.k{opacity:0.2;}.l{fill:url(#a);}.m{fill:#21a366;}.n{fill:#107c41;}.o{fill:#33c481;}.p{fill:#185c37;}.q{fill:rgba(0,0,0,0.09);}.r{fill:rgba(0,0,0,0.2);}.t{fill:rgba(0,0,0,0.1);}.u{fill:url(#b);}.v{fill:url(#c);}.w{fill:url(#d);}.x{fill:url(#e);}.y{fill:url(#f);}.z{fill:url(#g);}.aa{fill:url(#h);}.ab{fill:#393939;}.ac{fill:#ed6c47;}.ad{fill:#ff8f6b;}.ae{fill:#d35230;}.af{fill:url(#i);}.ag{fill:#61ba61;}.ah{fill:#ffe793;}.ai{fill:#3ab5e6;}.aj{fill:#fbd140;}.ak{fill:#947dce;font-size:14px;font-family:DejaVuSans, DejaVu Sans;}.al{filter:url(#x);}.am{filter:url(#v);}.an{filter:url(#t);}.ao{filter:url(#r);}.ap{filter:url(#p);}.aq{filter:url(#n);}.ar{filter:url(#l);}.as{filter:url(#j);}</style><linearGradient id="a" x1="0.174" y1="-45.369" x2="0.826" y2="-44.238" gradientUnits="objectBoundingBox"><stop offset="0" stop-color="#2368c4"/><stop offset="0.5" stop-color="#1a5dbe"/><stop offset="1" stop-color="#1146ac"/></linearGradient><linearGradient id="b" x1="-76.033" y1="41.583" x2="-76.033" y2="41.58" gradientUnits="objectBoundingBox"><stop offset="0" stop-color="#81b4e0"/><stop offset="1" stop-color="#0c5a94"/></linearGradient><linearGradient id="c" x1="-26.334" y1="-3.839" x2="-26.334" y2="-4.023" gradientUnits="objectBoundingBox"><stop offset="0" stop-color="#f06b59"/><stop offset="1" stop-color="#df2227"/></linearGradient><linearGradient id="d" x1="-33.913" y1="-3.372" x2="-33.834" y2="-3.259" gradientUnits="objectBoundingBox"><stop offset="0" stop-color="#388b41"/><stop offset="1" stop-color="#4cb749"/></linearGradient><linearGradient id="e" x1="-42.756" y1="-3.73" x2="-42.86" y2="-3.542" gradientUnits="objectBoundingBox"><stop offset="0" stop-color="#e4b022"/><stop offset="0.3" stop-color="#fcd209"/></linearGradient><linearGradient id="f" x1="-108.541" y1="-6.991" x2="-108.541" y2="-6.736" gradientUnits="objectBoundingBox"><stop offset="0" stop-opacity="0.149"/><stop offset="0.3" stop-opacity="0.059"/><stop offset="1" stop-opacity="0.031"/></linearGradient><linearGradient id="g" x1="-105.204" y1="-8.374" x2="-105.493" y2="-8.554" xlink:href="#f"/><linearGradient id="h" x1="-50.147" y1="-31.219" x2="-50.127" y2="-30.149" xlink:href="#f"/><linearGradient id="i" x1="0.174" y1="-44.682" x2="0.826" y2="-43.552" gradientUnits="objectBoundingBox"><stop offset="0" stop-color="#ca4c28"/><stop offset="0.5" stop-color="#c5401e"/><stop offset="1" stop-color="#b62f14"/></linearGradient><filter id="j" x="0" y="1.5" width="226.239" height="163.286" filterUnits="userSpaceOnUse"><feOffset dx="2" dy="2" input="SourceAlpha"/><feGaussianBlur stdDeviation="4" result="k"/><feFlood flood-opacity="0.161"/><feComposite operator="in" in2="k"/><feComposite in="SourceGraphic"/></filter><filter id="l" x="232.587" y="1.5" width="226.239" height="166.347" filterUnits="userSpaceOnUse"><feOffset dx="2" dy="2" input="SourceAlpha"/><feGaussianBlur stdDeviation="4" result="m"/><feFlood flood-opacity="0.161"/><feComposite operator="in" in2="m"/><feComposite in="SourceGraphic"/></filter><filter id="n" x="465.174" y="1.5" width="226.239" height="163.286" filterUnits="userSpaceOnUse"><feOffset dx="2" dy="2" input="SourceAlpha"/><feGaussianBlur stdDeviation="4" result="o"/><feFlood flood-opacity="0.161"/><feComposite operator="in" in2="o"/><feComposite in="SourceGraphic"/></filter><filter id="p" x="696.261" y="0" width="229.239" height="166.286" filterUnits="userSpaceOnUse"><feOffset dx="2" dy="2" input="SourceAlpha"/><feGaussianBlur stdDeviation="4.5" result="q"/><feFlood flood-opacity="0.161"/><feComposite operator="in" in2="q"/><feComposite in="SourceGraphic"/></filter><filter id="r" x="0" y="183.616" width="226.239" height="180.879" filterUnits="userSpaceOnUse"><feOffset dx="2" dy="2" input="SourceAlpha"/><feGaussianBlur stdDeviation="4" result="s"/><feFlood flood-opacity="0.161"/><feComposite operator="in" in2="s"/><feComposite in="SourceGraphic"/></filter><filter id="t" x="232.587" y="178.855" width="226.239" height="185.641" filterUnits="userSpaceOnUse"><feOffset dx="2" dy="2" input="SourceAlpha"/><feGaussianBlur stdDeviation="4" result="u"/><feFlood flood-opacity="0.161"/><feComposite operator="in" in2="u"/><feComposite in="SourceGraphic"/></filter><filter id="v" x="465.174" y="180.215" width="226.239" height="184.28" filterUnits="userSpaceOnUse"><feOffset dx="2" dy="2" input="SourceAlpha"/><feGaussianBlur stdDeviation="4" result="w"/><feFlood flood-opacity="0.161"/><feComposite operator="in" in2="w"/><feComposite in="SourceGraphic"/></filter><filter id="x" x="697.761" y="180.215" width="226.239" height="184.28" filterUnits="userSpaceOnUse"><feOffset dx="2" dy="2" input="SourceAlpha"/><feGaussianBlur stdDeviation="4" result="y"/><feFlood flood-opacity="0.161"/><feComposite operator="in" in2="y"/><feComposite in="SourceGraphic"/></filter></defs><g transform="translate(-241 -260.5)"><g transform="translate(301 394.419)"><rect class="a" width="799.085" height="76.224"/><g transform="translate(19.812 22.594)"><path class="b" d="M351.745,233.47c0,.142-.04.169-.173.17q-4.2.017-8.393.041l-4.1.02V223.152l4.168-.566q1.991-.272,3.982-.547,1.892-.259,3.783-.512c.186-.024.372-.043.555-.081.14-.029.174.008.174.151q-.006,2.894,0,5.788Q351.741,230.428,351.745,233.47Z" transform="translate(-339.077 -218.767)"/><path class="b" d="M351.743,246.809c0,.15-.039.182-.183.161q-2.013-.283-4.028-.558l-3.75-.519q-1.875-.257-3.751-.511c-.308-.042-.616-.09-.923-.136q0-5.155,0-10.311c0-.064.027-.136-.03-.193v-.062c.988.01,1.974.023,2.962.03q3.729.024,7.456.045c.682,0,1.362.016,2.044.014.146,0,.189.03.189.185q-.006,3.276,0,6.552C351.733,243.272,351.734,245.04,351.743,246.809Z" transform="translate(-339.077 -218.496)"/><path class="b" d="M339.107,234.933q0,5.157,0,10.311l-.032.013V234.74C339.133,234.8,339.107,234.869,339.107,234.933Z" transform="translate(-339.077 -218.495)"/><path class="b" d="M369.76,233.353c0,.15-.036.186-.186.186-1.966.009-3.932.028-5.9.04-.769.005-1.539,0-2.308,0v.062q-2.778,0-5.555,0c-.884,0-1.768.011-2.652.023-.134,0-.185-.021-.185-.173q.008-6.038,0-12.078c0-.1,0-.163.138-.183,1.934-.275,3.865-.559,5.8-.841l5.565-.812c1.712-.249,3.423-.5,5.134-.754.153-.023.144.037.144.141q0,2.847,0,5.695Q369.757,229.006,369.76,233.353Z" transform="translate(-338.793 -218.82)"/><path class="b" d="M369.76,249.391c0,.136-.043.149-.16.132-1.229-.177-2.458-.348-3.687-.522q-1.921-.271-3.842-.542l-3.04-.428-3.626-.516c-.756-.107-1.511-.218-2.268-.314-.146-.018-.159-.077-.159-.2q0-3.831-.015-7.661c0-1.431,0-2.86-.009-4.291,0-.152.029-.2.192-.2q4.1.009,8.207,0v.015q2.3,0,4.6,0c1.216,0,2.434.01,3.651.01.12,0,.156.03.156.154Q369.756,242.214,369.76,249.391Z" transform="translate(-338.794 -218.493)"/></g><g transform="translate(116.833 23.091)"><path class="b" d="M434.537,248.97a1.214,1.214,0,0,0,1.762,0l8.658-8.657a11.748,11.748,0,1,0-4.517-9.231,11.657,11.657,0,0,0,2.723,7.493l-8.627,8.633A1.214,1.214,0,0,0,434.537,248.97Zm17.8-8.633a9.25,9.25,0,1,1,9.36-9.249A9.317,9.317,0,0,1,452.339,240.338Z" transform="translate(-434.158 -219.307)"/></g><g transform="translate(223.618 12.687)"><rect class="c" width="18.367" height="12.075" transform="translate(5.612 19.388)"/><rect class="c" width="18.367" height="12.075" transform="translate(5.612 4.592)"/><rect class="c" width="18.367" height="12.075" transform="translate(5.612 34.184)"/><rect class="d" width="28.486" height="10.629" transform="translate(0)"/><rect class="d" width="28.486" height="10.629" transform="translate(0 40.221)"/><line class="c" y2="28.401" transform="translate(32.993 11.31)"/><rect class="e" width="5.75" height="5.75" transform="translate(30.118 19.675)"/></g><g transform="translate(421.984 17.341)"><path class="f" d="M742.853,213.7H713.39a1.841,1.841,0,0,0-1.841,1.841h0v8.2l17.074,5.021,16.07-5.021v-8.2a1.841,1.841,0,0,0-1.841-1.841Z" transform="translate(-701.505 -213.704)"/><path class="g" d="M744.694,223.547H711.549v10.044l17.074,3.013,16.07-3.013Z" transform="translate(-701.505 -213.503)"/><path class="h" d="M711.549,233.39v10.044l16.07,2.008,17.075-2.008V233.39Z" transform="translate(-701.505 -213.302)"/><path class="i" d="M713.39,253.277h29.463a1.841,1.841,0,0,0,1.841-1.841h0v-8.2H711.549v8.2a1.841,1.841,0,0,0,1.841,1.841Z" transform="translate(-701.505 -213.101)"/><path class="j" d="M723.769,221.578h-12.22v25.11h12.22a1.847,1.847,0,0,0,1.841-1.842V223.419A1.847,1.847,0,0,0,723.769,221.578Z" transform="translate(-701.505 -213.543)"/><path class="k" d="M722.765,222.563H711.549v25.109h11.216a1.846,1.846,0,0,0,1.841-1.841V224.4A1.846,1.846,0,0,0,722.765,222.563Z" transform="translate(-701.505 -213.523)"/><path class="k" d="M722.765,222.563H711.549v23.1h11.216a1.846,1.846,0,0,0,1.841-1.841V224.4A1.846,1.846,0,0,0,722.765,222.563Z" transform="translate(-701.505 -213.523)"/><path class="k" d="M721.76,222.563H711.549v23.1H721.76a1.847,1.847,0,0,0,1.842-1.841V224.4A1.847,1.847,0,0,0,721.76,222.563Z" transform="translate(-701.505 -213.523)"/><path class="l" d="M703.547,222.563h18.414A1.841,1.841,0,0,1,723.8,224.4v18.414a1.841,1.841,0,0,1-1.842,1.841H703.547a1.841,1.841,0,0,1-1.841-1.841V224.4A1.841,1.841,0,0,1,703.547,222.563Z" transform="translate(-701.706 -213.523)"/><path class="b" d="M709.194,236.581c.036.284.06.532.071.743h.042q.024-.3.1-.725c.051-.284.1-.523.137-.718l1.937-8.355h2.5l2.009,8.23a12.3,12.3,0,0,1,.25,1.552h.033a11.872,11.872,0,0,1,.209-1.506l1.6-8.28h2.279l-2.814,11.972H714.89l-1.908-7.929c-.055-.228-.118-.527-.188-.893s-.113-.635-.13-.8h-.034c-.021.195-.065.484-.13.867s-.115.667-.154.852l-1.794,7.9h-2.708l-2.83-11.966h2.32l1.745,8.371Q709.14,236.155,709.194,236.581Z" transform="translate(-701.638 -213.422)"/></g><g transform="translate(618.762 15.843)"><path class="m" d="M906.623,214.883H892.235a1.808,1.808,0,0,0-1.8,1.8v7.643l16.187,9.443,8.094,3.414,8.093-3.414v-9.443Z" transform="translate(-879.645 -212.185)"/><path class="n" d="M890.436,224.136h16.187v9.443H890.436Z" transform="translate(-879.645 -211.996)"/><path class="o" d="M920.688,214.883H906.3v9.442h16.187v-7.643a1.808,1.808,0,0,0-1.8-1.8Z" transform="translate(-879.321 -212.185)"/><path class="p" d="M906.623,233.39H890.436v17.086a1.808,1.808,0,0,0,1.8,1.8h28.777a1.808,1.808,0,0,0,1.8-1.8v-7.644Z" transform="translate(-879.645 -211.807)"/><path class="n" d="M906.3,233.39h16.187v9.442H906.3Z" transform="translate(-879.321 -211.807)"/><g transform="translate(0 9.443)"><path class="q" d="M902.127,221.493H890.436v25.629h11.691a1.811,1.811,0,0,0,1.8-1.8V223.291a1.81,1.81,0,0,0-1.8-1.8Z" transform="translate(-879.645 -221.493)"/><g transform="translate(10.791 1.349)"><path class="r" d="M900.778,222.815H890.436v25.629h10.342a1.812,1.812,0,0,0,1.8-1.8V224.613a1.81,1.81,0,0,0-1.8-1.8Z" transform="translate(-890.436 -222.815)"/><path class="r" d="M900.778,222.815H890.436v22.931h10.342a1.811,1.811,0,0,0,1.8-1.8V224.613a1.81,1.81,0,0,0-1.8-1.8Z" transform="translate(-890.436 -222.815)"/><path class="r" d="M899.429,222.815h-8.993v22.931h8.993a1.813,1.813,0,0,0,1.8-1.8V224.613a1.812,1.812,0,0,0-1.8-1.8Z" transform="translate(-890.436 -222.815)"/></g><path class="n" d="M881.659,222.815h17.986a1.807,1.807,0,0,1,1.8,1.8V242.6a1.808,1.808,0,0,1-1.8,1.8H881.659a1.807,1.807,0,0,1-1.8-1.8V224.613a1.807,1.807,0,0,1,1.8-1.8Z" transform="translate(-879.861 -221.466)"/><path class="b" d="M884.532,240.269l4.364-6.763-4-6.726h3.217l2.183,4.3c.2.408.339.712.413.912h.029q.216-.488.452-.95l2.333-4.261h2.953l-4.1,6.688,4.205,6.8H893.44l-2.521-4.721a4.013,4.013,0,0,1-.3-.631h-.038a2.949,2.949,0,0,1-.292.611l-2.6,4.741Z" transform="translate(-879.766 -221.385)"/></g><path class="s" d="M879.861,212.239h43.164V255.4H879.861Z" transform="translate(-879.861 -212.239)"/></g><g transform="translate(720.438 16.79)"><circle class="b" cx="20.314" cy="20.314" r="20.314" transform="translate(0.365 0.402)"/><path class="t" d="M1002.717,237.346a12.927,12.927,0,1,0-25.854,0h3.693a9.234,9.234,0,1,1,18.467,0" transform="translate(-969.11 -212.935)"/><circle class="t" cx="7.018" cy="7.018" r="7.018" transform="translate(14.585 16.284)"/><circle class="u" cx="7.572" cy="7.572" r="7.572" transform="translate(13.108 13.144)"/><path class="v" d="M1008.343,224.648a20.684,20.684,0,0,0-35.643-2.4l8.31,14.405a9.234,9.234,0,0,1,8.681-12" transform="translate(-969.195 -213.165)"/><path class="w" d="M972.77,222.065A20.684,20.684,0,0,0,988.283,254.2l8.68-14.773a9.235,9.235,0,0,1-15.883-2.955" transform="translate(-969.265 -212.983)"/><path class="x" d="M987.9,254.151a20.684,20.684,0,0,0,20.13-29.733H989.381a9.234,9.234,0,0,1,7.2,14.959" transform="translate(-968.885 -212.935)"/><path class="y" d="M972.7,222.076l8.31,14.405a9.238,9.238,0,0,1,.369-6.28l-8.31-8.68" transform="translate(-969.195 -212.994)"/><path class="z" d="M987.91,253.851l8.68-14.773a9.234,9.234,0,0,1-5.356,3.139l-3.693,11.635" transform="translate(-968.892 -212.636)"/><path class="aa" d="M1008,224.418H989.351a9.232,9.232,0,0,1,7.2,3.508l11.819-2.954" transform="translate(-968.855 -212.935)"/></g><rect class="ab" width="91.497" height="76.224" transform="translate(501.11)"/><g transform="translate(521.925 16.282)"><path class="ac" d="M819.494,235.927l-3.171-23.259h-.237a20.97,20.97,0,0,0-20.908,20.908v.237Z" transform="translate(-792.007 -212.668)"/><path class="ad" d="M816.137,212.668H815.9v21.145l10.572,4.229,10.572-4.229v-.237A20.969,20.969,0,0,0,816.137,212.668Z" transform="translate(-791.584 -212.668)"/><path class="ae" d="M837.468,233.39v.233a20.973,20.973,0,0,1-20.912,20.912h-.465a20.973,20.973,0,0,1-20.912-20.912v-.233Z" transform="translate(-792.007 -212.245)"/><path class="j" d="M817.38,222.892v22.561a1.946,1.946,0,0,1-1.205,1.787,1.865,1.865,0,0,1-.73.148H800.169c-.3-.339-.582-.7-.846-1.057a20.736,20.736,0,0,1-4.145-12.454v-.465a20.667,20.667,0,0,1,3.405-11.4c.233-.359.475-.719.74-1.057h16.122A1.949,1.949,0,0,1,817.38,222.892Z" transform="translate(-792.007 -212.499)"/><path class="k" d="M816.323,223.928v22.561a1.865,1.865,0,0,1-.148.73,1.946,1.946,0,0,1-1.787,1.205H801.131q-.5-.51-.962-1.057c-.3-.339-.582-.7-.846-1.057a20.736,20.736,0,0,1-4.145-12.454v-.465a20.667,20.667,0,0,1,3.405-11.4h15.805A1.949,1.949,0,0,1,816.323,223.928Z" transform="translate(-792.007 -212.478)"/><path class="k" d="M816.323,223.928v20.447a1.949,1.949,0,0,1-1.935,1.935H799.323a20.736,20.736,0,0,1-4.145-12.454v-.465a20.667,20.667,0,0,1,3.405-11.4h15.805A1.949,1.949,0,0,1,816.323,223.928Z" transform="translate(-792.007 -212.478)"/><path class="k" d="M815.266,223.928v20.447a1.949,1.949,0,0,1-1.935,1.935H799.323a20.736,20.736,0,0,1-4.145-12.454v-.465a20.667,20.667,0,0,1,3.405-11.4h14.748A1.949,1.949,0,0,1,815.266,223.928Z" transform="translate(-792.007 -212.478)"/><path class="af" d="M794.008,221.993h19.384a1.937,1.937,0,0,1,1.938,1.938v19.384a1.937,1.937,0,0,1-1.938,1.938H794.008a1.937,1.937,0,0,1-1.938-1.938V223.931A1.937,1.937,0,0,1,794.008,221.993Z" transform="translate(-792.07 -212.478)"/><path class="b" d="M803.776,227.058a5.329,5.329,0,0,1,3.53,1.035,3.7,3.7,0,0,1,1.229,2.995,4.176,4.176,0,0,1-.606,2.238,4.042,4.042,0,0,1-1.72,1.52,5.846,5.846,0,0,1-2.587.544h-2.452v4.556h-2.51V227.058Zm-2.609,6.362h2.161a2.8,2.8,0,0,0,1.91-.569,2.114,2.114,0,0,0,.646-1.667q0-2.131-2.475-2.131h-2.242v4.367Z" transform="translate(-791.936 -212.375)"/></g><rect class="ag" width="91.497" height="3.159" transform="translate(501.11 73.065)"/><rect class="ag" width="76.871" height="3.159" transform="translate(703.625 73.065)"/><rect class="ag" width="77.126" height="3.159" transform="translate(405.792 73.065)"/><g transform="translate(318.35 20.51)"><path class="ah" d="M607.955,216.782v33.163h40.816V220.353h-21.6l-2.211-3.571Z" transform="translate(-607.955 -216.781)"/><g transform="translate(7.484 19.218)"><path class="ai" d="M615.289,235.615v15.816h5.1V240.717h16.327v10.714h5.1V235.615Z" transform="translate(-615.289 -235.615)"/></g><path class="aj" d="M624.962,216.782l2.211,3.571v2H607.955v-5.57Z" transform="translate(-607.955 -216.782)"/><rect class="b" width="7.844" height="1.531" transform="translate(3.721 2.062)"/><rect class="ai" width="1.531" height="1.531" transform="translate(3.721 2.062)"/></g></g><g class="as" transform="matrix(1, 0, 0, 1, 241, 260.5)"><path class="b" d="M413.663,329.761H239.984c-7.856,0-14.28,5.754-14.28,12.786V364.1c0,7.033,6.423,12.786,14.28,12.786h79.853l0,0,4.133,92.155,9.767-92.158h79.93c7.856,0,14.28-5.753,14.28-12.786V342.547C427.943,335.515,421.519,329.761,413.663,329.761Z" transform="translate(-215.7 -318.26)"/></g><text class="ak" transform="translate(351.208 291.019)"><tspan x="-51.29" y="0">საწყისი ღლაკი</tspan><tspan x="-42.772" y="16">Start Button</tspan></text><g class="ar" transform="matrix(1, 0, 0, 1, 241, 260.5)"><path class="b" d="M635.663,329.761H461.984c-7.856,0-14.28,5.754-14.28,12.786V364.1c0,7.033,6.423,12.786,14.28,12.786h79.853l0,0L502.6,472.108l53.135-95.219h79.93c7.856,0,14.28-5.753,14.28-12.786V342.547C649.943,335.515,643.519,329.761,635.663,329.761Z" transform="translate(-205.12 -318.26)"/></g><g class="aq" transform="matrix(1, 0, 0, 1, 241, 260.5)"><path class="b" d="M857.663,329.761H683.984c-7.856,0-14.28,5.754-14.28,12.786V364.1c0,7.033,6.424,12.786,14.28,12.786h79.853l0,0-62.449,92.155,76.349-92.158h79.93c7.856,0,14.28-5.753,14.28-12.786V342.547C871.943,335.515,865.519,329.761,857.663,329.761Z" transform="translate(-194.53 -318.26)"/></g><g class="ap" transform="matrix(1, 0, 0, 1, 241, 260.5)"><path class="b" d="M1079.663,329.761H905.984c-7.856,0-14.28,5.754-14.28,12.786V364.1c0,7.033,6.424,12.786,14.28,12.786h79.853l0,0-90.255,92.155,104.155-92.158h79.93c7.856,0,14.28-5.753,14.28-12.786V342.547C1093.943,335.515,1087.519,329.761,1079.663,329.761Z" transform="translate(-183.94 -318.26)"/></g><g class="ao" transform="matrix(1, 0, 0, 1, 241, 260.5)"><path class="b" d="M239.984,657.307h173.68c7.856,0,14.28-5.754,14.28-12.786V622.965c0-7.033-6.423-12.787-14.28-12.787H333.81l0,0,70.123-109.749L319.913,610.178h-79.93c-7.856,0-14.28,5.754-14.28,12.787v21.556C225.7,651.552,232.127,657.307,239.984,657.307Z" transform="translate(-215.7 -306.81)"/></g><g class="an" transform="matrix(1, 0, 0, 1, 241, 260.5)"><path class="b" d="M461.984,657.4h173.68c7.856,0,14.28-5.754,14.28-12.786V623.06c0-7.033-6.423-12.787-14.28-12.787H555.81l0,0,43.592-114.51L541.913,610.273h-79.93c-7.856,0-14.28,5.754-14.28,12.787v21.556C447.7,651.648,454.127,657.4,461.984,657.4Z" transform="translate(-205.12 -306.91)"/></g><g class="am" transform="matrix(1, 0, 0, 1, 241, 260.5)"><path class="b" d="M683.984,657.375h173.68c7.856,0,14.28-5.754,14.28-12.786V623.033c0-7.033-6.423-12.787-14.28-12.787H777.81l0,0,17.741-113.15L763.913,610.246h-79.93c-7.856,0-14.28,5.754-14.28,12.787v21.556C669.7,651.621,676.128,657.375,683.984,657.375Z" transform="translate(-194.53 -306.88)"/></g><g class="al" transform="matrix(1, 0, 0, 1, 241, 260.5)"><path class="b" d="M905.984,657.375h173.68c7.856,0,14.28-5.754,14.28-12.786V623.033c0-7.033-6.423-12.787-14.28-12.787H999.81l0,0-13.9-113.15V610.246h-79.93c-7.856,0-14.28,5.754-14.28,12.787v21.556C891.7,651.621,898.128,657.375,905.984,657.375Z" transform="translate(-183.94 -306.88)"/></g><text class="ak" transform="translate(584.713 291.019)"><tspan x="-90.959" y="0">ყველა სამუშაო დოკუმენტი</tspan><tspan x="-40.78" y="16">Task Button</tspan></text><text class="ak" transform="translate(815.686 291.019)"><tspan x="-76.31" y="0">ტექსტური რედაქტორი</tspan><tspan x="-30.7" y="16">MS Word</tspan></text><text class="ak" transform="translate(1048.432 291.019)"><tspan x="-82.342" y="0">ელექტრონული ცხრილი</tspan><tspan x="-31.25" y="16">MS Excel</tspan></text><text class="ak" transform="translate(351.168 584.992)"><tspan x="-51.324" y="0">ძებნის ღილაკი</tspan><tspan x="-49.721" y="16">Search Button</tspan></text><text class="ak" transform="translate(584.238 584.713)"><tspan x="-50.945" y="0">საქაღალდეები</tspan><tspan x="-25.279" y="16">Folders</tspan></text><text class="ak" transform="translate(815.546 585.733)"><tspan x="-89.127" y="0">საპრეზენტაციო პროგრამა</tspan><tspan x="-51.252" y="16">MS PowerPoint</tspan></text><text class="ak" transform="translate(1053.799 585.393)"><tspan x="-67.662" y="0">ინტერნეტ ბრაუზერი</tspan><tspan x="-54.366" y="16">Google Chrome</tspan></text></g></svg>