<svg xmlns="http://www.w3.org/2000/svg" xmlns:xlink="http://www.w3.org/1999/xlink" width="75.55" height="75.55"
     viewBox="0 0 75.55 75.55">
    <defs>
        <style>.a{fill:#fff;}.b{fill:#62548a;}.c{filter:url(#a);}</style>
        <filter id="a" x="0" y="0" width="75.55" height="75.55" filterUnits="userSpaceOnUse">
            <feOffset dx="2" dy="2" input="SourceAlpha"/>
            <feGaussianBlur stdDeviation="4" result="b"/>
            <feFlood flood-color="#62548a" flood-opacity="0.161"/>
            <feComposite operator="in" in2="b"/>
            <feComposite in="SourceGraphic"/>
        </filter>
    </defs>
    <g transform="translate(-969 -363)">
        <g class="c" transform="matrix(1, 0, 0, 1, 969, 363)">
            <rect class="a" width="51.55" height="51.55" rx="3" transform="translate(10 10)"/>
        </g>
        <g transform="translate(988 382)">
            <path class="b"
                  d="M897.167,539.289a1.378,1.378,0,0,0,2,0l9.822-9.823a13.328,13.328,0,1,0-5.124-10.472,13.221,13.221,0,0,0,3.09,8.5l-9.787,9.794A1.377,1.377,0,0,0,897.167,539.289Zm20.2-9.794A10.494,10.494,0,1,1,927.983,519,10.57,10.57,0,0,1,917.364,529.495Z"
                  transform="translate(-896.737 -505.635)"/>
        </g>
    </g>
</svg>
