<svg xmlns="http://www.w3.org/2000/svg" width="34.583" height="34.582" viewBox="0 0 34.583 34.582"><path d="M825.864,423.667H814.337a1.447,1.447,0,0,0-1.441,1.44v6.124l12.968,7.565,6.484,2.736,6.485-2.736v-7.565Z" transform="translate(-804.25 -421.505)" fill="#21a366"/><path d="M812.9,432.229h12.968v7.565H812.9Z" transform="translate(-804.25 -422.503)" fill="#107c41"/><path d="M839.1,423.667H827.574v7.565h12.969v-6.124a1.448,1.448,0,0,0-1.441-1.44Z" transform="translate(-805.96 -421.505)" fill="#33c481"/><path d="M825.864,440.791H812.9V454.48a1.448,1.448,0,0,0,1.441,1.441h23.055a1.449,1.449,0,0,0,1.441-1.441v-6.124Z" transform="translate(-804.25 -423.5)" fill="#185c37"/><path d="M827.574,440.791h12.969v7.565H827.574Z" transform="translate(-805.96 -423.5)" fill="#107c41"/><g transform="translate(0 7.565)"><path d="M822.262,429.782H812.9v20.534h9.366a1.452,1.452,0,0,0,1.441-1.441V431.223a1.453,1.453,0,0,0-1.441-1.441Z" transform="translate(-804.25 -429.782)" fill="rgba(0,0,0,0.09)"/><g transform="translate(8.646 1.081)"><path d="M821.181,431.006H812.9v20.533h8.285a1.452,1.452,0,0,0,1.441-1.441V432.446a1.452,1.452,0,0,0-1.441-1.44Z" transform="translate(-812.896 -431.006)" fill="rgba(0,0,0,0.2)"/><path d="M821.181,431.006H812.9v18.372h8.285a1.453,1.453,0,0,0,1.441-1.441v-15.49a1.452,1.452,0,0,0-1.441-1.44Z" transform="translate(-812.896 -431.006)" fill="rgba(0,0,0,0.2)"/><path d="M820.1,431.006h-7.2v18.372h7.2a1.453,1.453,0,0,0,1.441-1.441v-15.49a1.452,1.452,0,0,0-1.441-1.44Z" transform="translate(-812.896 -431.006)" fill="rgba(0,0,0,0.2)"/></g><path d="M804.551,431.006h14.41a1.448,1.448,0,0,1,1.441,1.44v14.41a1.449,1.449,0,0,1-1.441,1.441h-14.41a1.449,1.449,0,0,1-1.441-1.441v-14.41a1.448,1.448,0,0,1,1.441-1.44Z" transform="translate(-803.11 -429.925)" fill="#107c41"/><path d="M807.432,445.482l3.5-5.419-3.2-5.388H810.3l1.748,3.444q.24.49.331.732h.022q.174-.392.362-.762l1.869-3.414H817l-3.286,5.358,3.369,5.449h-2.518l-2.02-3.783a3.22,3.22,0,0,1-.241-.5h-.03a2.391,2.391,0,0,1-.233.489l-2.08,3.8Z" transform="translate(-803.613 -430.352)" fill="#fff"/></g><path d="M803.11,421.22h34.583V455.8H803.11Z" transform="translate(-803.11 -421.22)" fill="none"/></svg>