<svg xmlns="http://www.w3.org/2000/svg" width="63.849" height="53.207" viewBox="0 0 63.849 53.207"><defs><style>.a{fill:#fff;}.b{fill:#788b9c;}.c{fill:#b5deff;}.d{fill:#99c9f0;}.e{fill:#d9f6ff;}.f{fill:#6e9ee0;}.g{fill:#77a9ed;}</style></defs><rect class="a" width="62.076" height="51.434" transform="translate(0.886 0.887)"/><path class="b" d="M1205.845,498.074v49.661h-60.3V498.074Zm1.774-1.773H1143.77v53.207h63.849Z" transform="translate(-1143.77 -496.301)"/><rect class="c" width="49.661" height="33.445" transform="translate(7.094 7.094)"/><rect class="d" width="49.661" height="17.071" transform="translate(7.094 29.042)"/><path class="e" d="M1199.307,518.593a2.487,2.487,0,0,0-1.99.994,4.952,4.952,0,0,0-5.952,0,2.487,2.487,0,0,0-3.707-.311,3.721,3.721,0,0,0-4.651-1.63,11.424,11.424,0,0,1-11.014.947,5.012,5.012,0,0,0-2.779.835,4.982,4.982,0,0,0-8.234-1.782,3.72,3.72,0,0,0-4.651,1.63,2.5,2.5,0,0,0-1.717-.683,2.462,2.462,0,0,0-2.483,2.439v14.632h49.661V521.032A2.462,2.462,0,0,0,1199.307,518.593Z" transform="translate(-1145.035 -499.306)"/><path class="f" d="M1152.831,538.157H1201.9v-2.846l-15.333-8.542Z" transform="translate(-1145.141 -500.912)"/><path class="g" d="M1187.512,537.974h-35.383V532.8l16.721-7.238Z" transform="translate(-1145.035 -500.729)"/></svg>