<svg xmlns="http://www.w3.org/2000/svg" width="902.574" height="438.193" viewBox="0 0 902.574 438.193">
    <defs>
        <style>
            .a{fill:#bcd3d7;opacity:0.49;}.b,.c{fill:#caa267;}.b{fill-rule:evenodd;}.d{fill:#c2934e;}.e{fill:#8a7cc7;}.f{fill:#f1c759;}.g{opacity:0.15;}.h{fill:#5e5584;}.i{fill:#5e5587;}.j{opacity:0.3;}.k{opacity:0.5;}.l{fill:#eec459;}.m{fill:#959595;}.n{fill:#c8c8c8;}.o{fill:#7f7f7f;}.p,.v{fill:none;stroke-miterlimit:10;}.p{stroke:#8a7cc7;stroke-width:0.747px;}.q{fill:#0c0c0c;}.r,.t,.u{fill:#fff;}.s{fill:#090909;}.t{font-size:29px;}.t,.u{font-family:MicrosoftPhagsPa,
            Microsoft
            PhagsPa;}.u{font-size:27px;}.v{stroke:#fff;stroke-linecap:round;stroke-width:2px;}.w{fill:#545454;}.x{fill:#6c6c6c;}.y{fill:#848484;}.z{fill:#9d9d9d;}
        </style>
    </defs>
    <g transform="translate(-233 -338)">
        <g transform="translate(868.133 393.418)">
            <path class="a"
                  d="M1069.121,611.692c-38.817-47.31-58.225-70.965-64.709-93.309-21.665-74.652,19.9-181.547,97.206-205.842,4.022-1.264,59.888-17.959,96.972,12.708,31.048,25.677,17.531,58.589,34.989,154.515,18.689,102.7,45.505,127.2,25.446,162.924-18.992,33.827-65.893,52.592-103.258,45.46C1127.977,682.843,1107.98,659.054,1069.121,611.692Z"
                  transform="translate(-998.698 -306.876)"/>
            <circle class="a" cx="18.778" cy="18.778" r="18.778" transform="translate(24.791 300.099)"/>
            <circle class="a" cx="7.876" cy="7.876" r="7.876" transform="translate(33.127 349.032)"/>
            <circle class="a" cx="13.567" cy="13.567" r="13.567" transform="translate(229.486 63.727)"/>
            <circle class="a" cx="5.523" cy="5.523" r="5.523" transform="translate(249.207 42.03)"/>
            <circle class="a" cx="4.053" cy="4.053" r="4.053" transform="translate(11.452 282.817)"/>
            <circle class="a" cx="4.053" cy="4.053" r="4.053" transform="translate(250.061 117.191)"/>
            <g transform="translate(2.243 1.47)">
                <g transform="translate(0 23.065)">
                    <path class="b"
                          d="M1025.164,340.92c-1.339-3.166-5.5-5.6-8.28-6.333a27.924,27.924,0,0,1-3.546-1.441c-2.153-.7,1.276,2.322,2.565,2.82,1.046.406,2.949,3.487,3.984,4.538s3.242,2.569,4.419,2.566S1025,341.512,1025.164,340.92Z"
                          transform="translate(-1001.809 -333.04)"/>
                    <path class="b"
                          d="M1031.76,352.146c-2.539-4.439-4.464-9.727-9.268-11.89s-11.954-2.042-15.758-2.58c-4.474-.632-2.584.8-.224,1.4,1.534.393,6.5,1.8,8.042,1.772a49.066,49.066,0,0,0-6.461-.975c-.366.107-7.474-1.744-6.978-.446.963,2.516,8.97,2.746,11.526,3.273-1.346-.034-3.536-.412-4.832-.449-1.1-.033-4.436-1.2-4.751-.188-.5,1.6,7.709,2.539,8.8,2.616-1.069.879-5.2-.371-6.63-.454-.145-.008-1.446.32.13.854a47.18,47.18,0,0,0,9.67,2.673c3.783.514,8.219,1.045,10.776,4.465C1027.819,352.083,1029.8,352.412,1031.76,352.146Z"
                          transform="translate(-1001.09 -333.319)"/>
                </g>
                <path class="c"
                      d="M1170.658,586.855s-7.658,89.86-3.941,91.361c6.668,2.738,32.763,11.645,4.087,9.953-14.707,1.058-13.665-2.243-13.928-5.027-.214-2.274-.713-82.609-1.39-88.849-.152-1.4-.244-2.242-.244-2.242Z"
                      transform="translate(-1010.689 -325.78)"/>
                <path class="c"
                      d="M1113.1,587.424s4.812,89.715,1.131,91.3c-6.6,2.892-32.484,12.4-3.856,10.045,14.728.716,13.61-2.559,13.808-5.348.161-2.279,1.631-19.577,2.162-25.832.119-1.4,2.191-71.635,2.191-71.635Z"
                      transform="translate(-1007.073 -325.724)"/>
                <path class="d"
                      d="M1141.563,340.014s-.668,8.561,4.662,13.23-12.158.141-12.158.141,3.149-8.23,2.362-13.312S1141.563,340.014,1141.563,340.014Z"
                      transform="translate(-1009.37 -310.271)"/>
                <ellipse class="c" cx="9.224" cy="12.585" rx="9.224" ry="12.585"
                         transform="translate(119.934 8.03) rotate(-0.664)"/>
                <path class="e"
                      d="M1059.669,395.942c13.623-29.368,38.388-42.982,54.257-46.7,6.868-1.614,12.07-1.373,13.987.244a10.315,10.315,0,0,0,6.468,2.427,13.958,13.958,0,0,0,3.611-.371,18.024,18.024,0,0,0,3.816-1.348c.585-.28.927-.48.927-.48a37.386,37.386,0,0,1,9.745.469c36.076,6.631,43.039,66.911,42.776,72.106-.16,3.092-3.193,17.126-7.041,29.615-3.154,10.252-6.865,19.466-9.989,20.771-6.932,2.884-59.463,7.339-70.333,2.308-.254-.187-.53-.386-.792-.608-4.094-3.252-8.57-9.717-10.973-15.791,0,0-6.417-17.449-7.726-21-.015-.035-.022-.063-.037-.091-.043-.139-.094-.272-.145-.4-.015-.049-.036-.09-.051-.139"
                      transform="translate(-1004.737 -310.915)"/>
                <path class="f"
                      d="M1107.647,481.128a5.689,5.689,0,0,0,3.244,1.452c7.583.061,40.339.242,58.09-.985,6.264-.433,10.659-1.042,11.423-1.9,0,0,0,.025,0,.072-.035.979-.467,12.2-1.085,26.9-1.221,29.026,2.26,70.538,5.909,83.107.788,2.713-39.948-.939-39.948-.939-.46-29.934,1.771-82.521-.091-84.855-2.266-2.84-5.348,43.428-9.049,82.158-16.064,4.39-41.609,2.134-41.333.479C1098.077,566.967,1107.647,481.128,1107.647,481.128Z"
                      transform="translate(-1006.925 -319.107)"/>
                <path class="g"
                      d="M1090.065,441.987c.014.049.036.09.051.139.05.126.1.259.144.4.015.028.022.056.037.091,1.309,3.551,7.726,20.993,7.726,20.993,2.4,6.082,6.879,12.547,10.973,15.8-2.869-9.937-11.785-38.736-11.591-50.382C1095.9,440.266,1090.065,441.98,1090.065,441.987Z"
                      transform="translate(-1006.63 -315.952)"/>
                <path class="g"
                      d="M1179.123,397.285S1162.3,449.5,1210.9,471.029l.989.641-.391-12.231s-23.148-31.522-23.244-32.34S1179.123,397.285,1179.123,397.285Z"
                      transform="translate(-1012 -313.976)"/>
                <path class="g"
                      d="M1138.617,353.968c.038.834-.4,1.385-1.737,1.218-4.182-.519-8.9-.345-12.3,1.264a2.912,2.912,0,0,1-2.818-.086c-2.207-1.257-3.611-5.067-4.17-6.755a1.168,1.168,0,0,1-.06-.37c6.868-1.614,12.07-1.373,13.987.244a10.314,10.314,0,0,0,6.468,2.427A5.681,5.681,0,0,1,1138.617,353.968Z"
                      transform="translate(-1008.34 -310.915)"/>
                <path class="h"
                      d="M1125.3,683.7c.156-1.3-9.063-1.069-10.095,0s-19.364,5.07-18.936,10.523,25.845.867,27.662.717S1124.991,686.248,1125.3,683.7Z"
                      transform="translate(-1007.016 -331.754)"/>
                <path class="i"
                      d="M1156.338,681.145c-.187-1.294,10.87.222,11.925,1.263s17.175,5.224,16.874,10.686-25.818,1.466-27.64,1.358S1156.7,683.687,1156.338,681.145Z"
                      transform="translate(-1010.756 -331.62)"/>
                <g class="j" transform="translate(130.61 160.593)">
                    <path d="M1140.739,482.743l-.365-.025S1140.5,482.725,1140.739,482.743Z"
                          transform="translate(-1140.373 -479.888)"/>
                    <path class="k"
                          d="M1140.763,482.555c9.768.666,31.081-.96,31.081-.96,6.264-.433,10.659-1.042,11.423-1.9,0,0,0,.025,0,.072-.035.979-.467,12.2-1.085,26.9a7.352,7.352,0,0,1-1.027-.106,7.986,7.986,0,0,1-5.207-3.61,17.741,17.741,0,0,1-2.057-4.171C1166.449,485.025,1143.893,482.8,1140.763,482.555Z"
                          transform="translate(-1140.397 -479.7)"/>
                </g>
                <g transform="translate(117.84)">
                    <g transform="translate(2.009 3.514)">
                        <path class="l"
                              d="M1134.967,322s16.07,8.668,11.167-5.49C1142.741,306.714,1124,315.791,1134.967,322Z"
                              transform="translate(-1129.064 -312.191)"/>
                        <path class="l"
                              d="M1137.077,318.622s-8.873,5.4-7.949,10.712c0,0-2.154-15.853,6.724-16.356s12.328.316,11.733,17.114C1147.585,330.091,1144.85,316.766,1137.077,318.622Z"
                              transform="translate(-1128.898 -312.234)"/>
                    </g>
                    <path class="l"
                          d="M1135.9,312.81s.392-4.952,5.3-4.309,7.046,3.422,7.779,6.216,1.457,4.887,2.158,4.879c0,0-2.077,2.127-2.786,1.434,0,0,1.877,5.018-.385,9.18,0,0-.983-6.362-4.494-7.022S1135.9,312.81,1135.9,312.81Z"
                          transform="translate(-1127.325 -308.444)"/>
                    <path class="l"
                          d="M1135.781,313.02s-3.527-2.061-6.973,2.883l-2.053,4.228s.708.692,2.1-.024c0,0-.581,4.943.121,7.721l1.972-8.446Z"
                          transform="translate(-1126.755 -308.702)"/>
                </g>
                <g transform="translate(107.103 85.938)">
                    <path class="m"
                          d="M1115.39,413.678l9.542,56.8a6.079,6.079,0,0,0,6.995,4.985l38.769-6.517a1.845,1.845,0,0,0,.272-.059,6.056,6.056,0,0,0,4.706-6.935l-9.542-56.8a6.069,6.069,0,0,0-6.995-4.977l-36.972,6.209-1.8.3A6.068,6.068,0,0,0,1115.39,413.678Z"
                          transform="translate(-1115.305 -400.088)"/>
                    <path class="n"
                          d="M1117.6,413.317l9.542,56.8a6.068,6.068,0,0,0,6.995,4.977l36.971-6.209a6.056,6.056,0,0,0,4.706-6.935l-9.542-56.8a6.068,6.068,0,0,0-6.995-4.977l-36.972,6.209A6.055,6.055,0,0,0,1117.6,413.317Z"
                          transform="translate(-1115.442 -400.088)"/>
                    <circle class="o" cx="4.689" cy="4.689" r="4.689" transform="translate(26.974 33.332)"/>
                </g>
                <path class="g" d="M1183.064,455.56s.668-20.929-55.3-13.275,42.188,12.823,42.188,12.823Z"
                      transform="translate(-1007.904 -316.673)"/>
                <g transform="translate(97.123 36.842)">
                    <g transform="translate(0 87.323)">
                        <path class="b"
                              d="M1132.712,450.306c-.667-.215-7.724-4.331-11.528-4.638s-9.489-.4-11.457-.934c-2.315-.63-2.887.294-.217,1.278a37.572,37.572,0,0,0,6.072,1.644c.381.01-2.1-.294-4.8-.82-2.868-.56-5.98-1.331-6.117-.82-.263.991,8,3.118,9.457,3.258a36.547,36.547,0,0,1-3.834-.419c-1.731-.286-3.718-.875-4.1-.512-.607.572,3.778,2.234,7.391,2.691.064.116-1.1.312-5.353-.52-.428-.083-1.512.115-.108.745,2.956,1.325,4.129,2.114,8.391,2.2,4.156.082,8.732-.827,11.732.141Z"
                              transform="translate(-1104.662 -441.083)"/>
                        <path class="b"
                              d="M1123.585,445.793s-3.257-3.342-6.875-3.857a3.606,3.606,0,0,1-2.476-1c-1.221-.521-.019,1.721,1.812,2.279,1.488.453,2.345,2.975,3.243,3.5s3.574,1.483,4.236,1.126S1123.585,445.793,1123.585,445.793Z"
                              transform="translate(-1105.228 -440.854)"/>
                    </g>
                    <path class="e"
                          d="M1193.134,358.686c13.333,11.654,22.591,22.515,28.705,58.523,3.1,18.268,2.561,36.579,1.92,46.24a11.4,11.4,0,0,1-7.722,10.007c-41.186,14.117-87.054-24.588-87.054-24.588-2.378-.854,2.291-9.352,2.291-9.352,22.854-.5,40.376,0,58.672,6.79-.093-.042-18.294-33.3-20.811-42.5-6.594-24.134-27.618-44.841-22.351-54.392C1148.6,346.111,1179.685,346.93,1193.134,358.686Z"
                          transform="translate(-1106.135 -347.732)"/>
                </g>
                <g transform="translate(98.749 161.23)">
                    <line class="p" x1="9.08" y2="108.161"/>
                    <line class="p" x1="9.024" y2="106.279" transform="translate(10.336 2.042)"/>
                    <line class="p" x1="7.305" y2="105.517" transform="translate(22.077 1.926)"/>
                    <line class="p" x2="0.473" y2="21.834" transform="translate(39.037 1.814)"/>
                    <line class="p" x1="0.732" y2="107.577" transform="translate(49.021 1.69)"/>
                    <line class="p" x2="0.706" y2="108.463" transform="translate(58.973 1.515)"/>
                    <line class="p" x2="3.35" y2="109.055" transform="translate(68.036 1.41)"/>
                </g>
                <path class="p" d="M1107.149,493.169s58.216,2.072,73.557-.852"
                      transform="translate(-1007.694 -319.893)"/>
                <path class="p" d="M1145.882,505.451c-20.3,4.847-39.871-2.217-39.871-2.217"
                      transform="translate(-1007.623 -320.573)"/>
                <path class="p" d="M1148.278,504.131s18.432,4.95,34.52.4" transform="translate(-1010.255 -320.629)"/>
                <path class="p" d="M1105.041,511.69s14.761,7.511,38.545,3.319"
                      transform="translate(-1007.563 -321.099)"/>
                <path class="p" d="M1103.877,521.761s22.911,6.706,38.613,2.936"
                      transform="translate(-1007.49 -321.726)"/>
                <path class="p" d="M1102.709,531.766s11.733,8.98,38.644,4.579"
                      transform="translate(-1007.417 -322.349)"/>
                <path class="p" d="M1101.347,543.274a56.566,56.566,0,0,0,39.139,2.493"
                      transform="translate(-1007.333 -323.066)"/>
                <path class="p" d="M1100.079,553.817s12.66,8.768,39.4,3.28" transform="translate(-1007.253 -323.723)"/>
                <path class="p" d="M1098.751,564.626s17.436,8.859,39.935,1.277"
                      transform="translate(-1007.171 -324.396)"/>
                <path class="p" d="M1097.686,573.061s10.338,9.716,40.17,2.079"
                      transform="translate(-1007.104 -324.921)"/>
                <path class="p" d="M1096.426,582.637s16.635,8.518,40.569,1.8"
                      transform="translate(-1007.026 -325.517)"/>
                <path class="p" d="M1149.291,514.638s7.748,6.249,33.694,1.242"
                      transform="translate(-1010.318 -321.283)"/>
                <path class="p" d="M1149.624,524.807s10.828,4.9,32.87.675" transform="translate(-1010.339 -321.916)"/>
                <path class="p" d="M1149.194,536.077s16.689,4.816,33.384-.386"
                      transform="translate(-1010.312 -322.594)"/>
                <path class="p" d="M1149.047,545.442s16.251,7,33.946-.393" transform="translate(-1010.303 -323.177)"/>
                <path class="p" d="M1148.877,555.724a62.7,62.7,0,0,0,34.663-.4"
                      transform="translate(-1010.292 -323.816)"/>
                <path class="p" d="M1148.726,565.6s13.042,5.67,35.52-.412" transform="translate(-1010.283 -324.431)"/>
                <path class="p" d="M1148.827,574.36s15.5,7.76,36.313.423" transform="translate(-1010.289 -325.002)"/>
                <path class="p" d="M1148.559,585.283a71.22,71.22,0,0,0,37.821,0"
                      transform="translate(-1010.272 -325.682)"/>
                <path class="e"
                      d="M1086.1,437.488s-42.434,18.586-53.233-20.31,3.328-47.691-10.224-63.7l8.545-6.778s29.93,15.39,39.052,39.862S1086.1,437.488,1086.1,437.488Z"
                      transform="translate(-1002.432 -310.826)"/>
            </g>
        </g>
        <g transform="translate(-228.509 -218.074)">
            <rect class="q" width="621" height="79.474" transform="translate(461.509 556.074)"/>
            <g transform="translate(643.234 586.683)">
                <path class="r"
                      d="M628.505,584.97v14.005a.768.768,0,0,0,.768.768h30.956a.768.768,0,0,0,.768-.768v-4.014h1.381a.591.591,0,0,0,.591-.591v-4.795a.591.591,0,0,0-.591-.591H661V584.97a.768.768,0,0,0-.768-.768H629.273A.768.768,0,0,0,628.505,584.97Zm3.148,2.187h26.2v9.631h-26.2Z"
                      transform="translate(-628.505 -584.202)"/>
                <rect class="r" width="12.658" height="8.016" transform="translate(3.994 3.789)"/>
            </g>
            <g transform="translate(590.97 581.713)">
                <path class="r"
                      d="M609.913,579.635a29.467,29.467,0,0,0-29.436,29.436.766.766,0,1,0,1.532,0,27.936,27.936,0,0,1,27.9-27.9.766.766,0,0,0,0-1.531Z"
                      transform="translate(-580.477 -579.635)"/>
                <path class="r"
                      d="M586.33,608.553a.767.767,0,0,0,1.533,0A21.555,21.555,0,0,1,609.4,587.021a.766.766,0,0,0,0-1.532A23.091,23.091,0,0,0,586.33,608.553Z"
                      transform="translate(-579.961 -579.119)"/>
                <path class="r"
                      d="M597.08,596.238a16.588,16.588,0,0,0-4.895,11.8.767.767,0,0,0,1.533,0,15.179,15.179,0,0,1,15.161-15.162.766.766,0,0,0,0-1.532A16.586,16.586,0,0,0,597.08,596.238Z"
                      transform="translate(-579.444 -578.602)"/>
                <path class="r"
                      d="M601.487,600.645a5.021,5.021,0,1,0,7.1,0A5.027,5.027,0,0,0,601.487,600.645Zm6.017,6.017a3.488,3.488,0,1,1,0-4.934A3.491,3.491,0,0,1,607.5,606.662Z"
                      transform="translate(-578.753 -577.911)"/>
                <circle class="r" cx="3.917" cy="3.917" r="3.917" transform="translate(22.367 22.366)"/>
            </g>
            <g transform="translate(694.637 578.275)">
                <path class="r"
                      d="M693.288,577.725a1.25,1.25,0,0,0-2.1-.91l-8.5,7.967h-5.7a1.246,1.246,0,0,0-1.245,1.246v10.812a1.245,1.245,0,0,0,1.245,1.245h5.69l8.511,7.974a1.249,1.249,0,0,0,2.1-.91ZM690.8,602.274l-6.423-6.017-.064-.058h0l-1.068-.394a3.372,3.372,0,0,0-1.173-.21h-3.837v-8.321h3.639a4.581,4.581,0,0,0,1.586-.283h0a4.578,4.578,0,0,0,1.541-.952l5.8-5.43Z"
                      transform="translate(-675.742 -576.475)"/>
                <path class="r"
                      d="M695.579,585.759a1.059,1.059,0,0,0-.012,1.5,4.988,4.988,0,0,1,0,6.782,1.059,1.059,0,1,0,1.509,1.485,7.1,7.1,0,0,0,0-9.752A1.059,1.059,0,0,0,695.579,585.759Z"
                      transform="translate(-674.02 -575.684)"/>
                <path class="r"
                      d="M700.722,583.423a1.06,1.06,0,0,0-.013,1.5,8.7,8.7,0,0,1,0,11.866,1.059,1.059,0,1,0,1.51,1.485,10.822,10.822,0,0,0,0-14.837A1.059,1.059,0,0,0,700.722,583.423Z"
                      transform="translate(-673.567 -575.89)"/>
                <path class="r"
                      d="M707.361,581.1a1.059,1.059,0,1,0-1.509,1.485,12.424,12.424,0,0,1,0,16.951,1.058,1.058,0,1,0,1.509,1.484,14.538,14.538,0,0,0,0-19.921Z"
                      transform="translate(-673.113 -576.096)"/>
            </g>
            <g transform="translate(1012.077 574.745)">
                <path class="r" d="M1005.992,573.232h-38.54v32.819h14.3l5.269,5.269,5.269-5.269h13.7Z"
                      transform="translate(-967.452 -573.232)"/>
                <g transform="translate(7.929 8.129)">
                    <rect class="s" width="22.682" height="1.807"/>
                </g>
                <g transform="translate(7.929 15.355)">
                    <rect class="s" width="22.682" height="1.807"/>
                </g>
                <g transform="translate(7.929 22.581)">
                    <rect class="s" width="22.682" height="1.807"/>
                </g>
            </g>
            <text class="t" transform="translate(847.693 586.941)">
                <tspan x="0" y="0">11:19 AM</tspan>
                <tspan x="0" y="35">3/8/2020</tspan>
            </text>
            <text class="u" transform="translate(759.378 603.645)">
                <tspan x="0" y="0">ENG</tspan>
            </text>
            <path class="v" d="M476.486,597.336,490.9,582.917l13.875,13.875" transform="translate(1.321 2.368)"/>
            <g transform="translate(528.907 579.149)">
                <g transform="translate(0 0.537)">
                    <path class="w"
                          d="M537.385,584.641h0l8.1,4.852,4.827-2.032a7.8,7.8,0,0,1,3.107-.641c.178,0,.355.009.53.02a12.057,12.057,0,0,0-21.753-3.632l.123,0A9.606,9.606,0,0,1,537.385,584.641Z"
                          transform="translate(-522.672 -577.772)"/>
                    <path class="x"
                          d="M538.158,584.2a9.6,9.6,0,0,0-5.068-1.437l-.123,0a9.642,9.642,0,0,0-7.789,15.156l7.14-3.007,3.176-1.335,7.069-2.976,3.692-1.553Z"
                          transform="translate(-523.444 -577.332)"/>
                    <path class="y"
                          d="M552.871,586.106c-.176-.012-.353-.019-.53-.02a7.819,7.819,0,0,0-3.106.642l-4.828,2.031,1.4.838,4.588,2.748,2,1.2,6.846,4.1a7.837,7.837,0,0,0-6.371-11.537Z"
                          transform="translate(-521.595 -577.039)"/>
                    <path class="z"
                          d="M554.105,593.327l-2-1.2-4.588-2.749-1.4-.837-3.692,1.553-7.07,2.976-3.177,1.335-7.143,3.007a9.636,9.636,0,0,0,7.916,4.132h21.1a7.837,7.837,0,0,0,6.9-4.119Z"
                          transform="translate(-523.304 -576.823)"/>
                </g>
                <line class="v" x2="35.963" y2="28.178" transform="translate(2.44)"/>
            </g>
        </g>
    </g>
</svg>
