<svg xmlns="http://www.w3.org/2000/svg" xmlns:xlink="http://www.w3.org/1999/xlink" width="963.684" height="374.876" viewBox="0 0 963.684 374.876"><defs><style>.a,.k,.u{fill:none;}.b{fill:#bcd3d7;opacity:0.49;}.c{clip-path:url(#a);}.d,.f{fill:#caa267;}.d{fill-rule:evenodd;}.e{fill:#8c7cc9;}.g{fill:#5e5586;}.h{fill:#f1c759;}.i{opacity:0.3;}.j{opacity:0.5;}.k{stroke:#8c7cc9;stroke-width:1.118px;}.k,.u,.w{stroke-miterlimit:10;}.l{fill:#c2934e;}.m{opacity:0.15;}.n{fill:#f0c659;}.o{fill:#979797;}.p{fill:#cacaca;}.q{fill:#7f7f7f;}.r{fill:#5e5587;}.s{fill:#0c0c0c;}.t{fill:#fff;}.u{stroke:#fff;}.v{fill:#080808;}.w{fill:#f3f3f3;stroke:#080808;}.x{fill:#41a5ee;}.y{fill:#2b7cd3;}.z{fill:#185abd;}.aa{fill:#103f91;}.ab{opacity:0.1;}.ab,.ac{isolation:isolate;}.ac{opacity:0.2;}.ad{fill:url(#b);}.ae{fill:#21a366;}.af{fill:#107c41;}.ag{fill:#33c481;}.ah{fill:#185c37;}.ai{fill:rgba(0,0,0,0.09);}.aj{fill:rgba(0,0,0,0.2);}.ak{fill:rgba(0,0,0,0.1);}.al{fill:url(#c);}.am{fill:url(#d);}.an{fill:url(#e);}.ao{fill:url(#f);}.ap{fill:url(#g);}.aq{fill:url(#h);}.ar{fill:url(#i);}.as{fill:#393939;}.at{fill:#ed6c47;}.au{fill:#ff8f6b;}.av{fill:#d35230;}.aw{fill:url(#j);}.ax{fill:#61ba61;}.ay{fill:#ffe793;}.az{fill:#3ab5e6;}.ba{fill:#fbd140;}</style><clipPath id="a"><rect class="a" width="365.651" height="345.348"/></clipPath><linearGradient id="b" x1="0.174" y1="-45.369" x2="0.826" y2="-44.238" gradientUnits="objectBoundingBox"><stop offset="0" stop-color="#2368c4"/><stop offset="0.5" stop-color="#1a5dbe"/><stop offset="1" stop-color="#1146ac"/></linearGradient><linearGradient id="c" x1="-76.033" y1="41.583" x2="-76.033" y2="41.58" gradientUnits="objectBoundingBox"><stop offset="0" stop-color="#81b4e0"/><stop offset="1" stop-color="#0c5a94"/></linearGradient><linearGradient id="d" x1="-26.334" y1="-3.839" x2="-26.334" y2="-4.023" gradientUnits="objectBoundingBox"><stop offset="0" stop-color="#f06b59"/><stop offset="1" stop-color="#df2227"/></linearGradient><linearGradient id="e" x1="-33.913" y1="-3.372" x2="-33.834" y2="-3.259" gradientUnits="objectBoundingBox"><stop offset="0" stop-color="#388b41"/><stop offset="1" stop-color="#4cb749"/></linearGradient><linearGradient id="f" x1="-42.756" y1="-3.73" x2="-42.86" y2="-3.542" gradientUnits="objectBoundingBox"><stop offset="0" stop-color="#e4b022"/><stop offset="0.3" stop-color="#fcd209"/></linearGradient><linearGradient id="g" x1="-108.541" y1="-6.991" x2="-108.541" y2="-6.736" gradientUnits="objectBoundingBox"><stop offset="0" stop-opacity="0.149"/><stop offset="0.3" stop-opacity="0.059"/><stop offset="1" stop-opacity="0.031"/></linearGradient><linearGradient id="h" x1="-105.204" y1="-8.374" x2="-105.493" y2="-8.554" xlink:href="#g"/><linearGradient id="i" x1="-50.147" y1="-31.219" x2="-50.127" y2="-30.149" xlink:href="#g"/><linearGradient id="j" x1="0.174" y1="-44.682" x2="0.826" y2="-43.552" gradientUnits="objectBoundingBox"><stop offset="0" stop-color="#ca4c28"/><stop offset="0.5" stop-color="#c5401e"/><stop offset="1" stop-color="#b62f14"/></linearGradient></defs><g transform="translate(-233 -393.473)"><g transform="translate(832.425 483.721)"><path class="b" d="M921.958,467.641c44.264-38.111,66.4-57.165,87.555-63.849,70.7-22.329,173.482,15.024,198.3,88.318,1.292,3.813,18.405,56.8-10.032,92.892-23.809,30.216-55.472,18.029-146.536,36.807-97.495,20.1-120.27,46.253-154.758,27.879-32.652-17.4-51.546-61.777-45.549-97.618C855.4,525.414,877.645,505.793,921.958,467.641Z" transform="translate(-849.833 -397.362)"/><ellipse class="b" cx="17.939" cy="17.904" rx="17.939" ry="17.904" transform="translate(38.214 60.597) rotate(-83.094)"/><ellipse class="b" cx="7.524" cy="7.509" rx="7.524" ry="7.509" transform="translate(13.479 49.891) rotate(-83.094)"/><ellipse class="b" cx="12.961" cy="12.935" rx="12.961" ry="12.935" transform="translate(278.309 241.466) rotate(-83.094)"/><ellipse class="b" cx="5.276" cy="5.266" rx="5.276" ry="5.266" transform="translate(315.447 245.258) rotate(-83.094)"/><ellipse class="b" cx="3.872" cy="3.864" rx="3.872" ry="3.864" transform="translate(83.751 20.815) rotate(-83.094)"/><ellipse class="b" cx="3.872" cy="3.864" rx="3.872" ry="3.864" transform="translate(246.751 245.062) rotate(-83.094)"/></g><g transform="translate(799.034 423)"><g class="c"><g transform="translate(10.133 45.618)"><g transform="translate(0 172.505)"><path class="d" d="M849.109,611.684s-4.35-4.963-9.424-5.96c-3.016-.593-2.914-1.354-3.422-1.6-1.686-.826-.155,2.43,2.39,3.354,2.068.75,3.091,4.379,4.319,5.19s4.94,2.359,5.9,1.905S849.109,611.684,849.109,611.684Z" transform="translate(-823.173 -603.987)"/><path class="d" d="M858.612,619.865c-.926-.354-10.589-6.694-15.941-7.41s-13.374-1.271-16.115-2.173c-3.225-1.061-4.1.2-.4,1.789a53.007,53.007,0,0,0,8.456,2.774c.536.044-2.944-.571-6.716-1.515-4.009-1-8.349-2.324-8.58-1.612-.446,1.38,11.073,5,13.116,5.306a51.79,51.79,0,0,1-5.383-.878c-2.424-.534-5.187-1.513-5.757-1.029-.9.763,5.171,3.436,10.24,4.353.082.169-1.575.36-7.524-1.133-.6-.15-2.144.05-.206,1.044,4.076,2.093,5.675,3.293,11.689,3.728,5.866.424,12.4-.518,16.563,1.072Z" transform="translate(-819.301 -605.393)"/></g><path class="e" d="M863.123,598.046c4.7,1.84,38.834,8.1,70.164,1.218,19.774-4.335,38.424-13.915,47.86-33.145,24.381-49.708-32.591-77.9-32.591-77.9a1.009,1.009,0,0,0-.085.136c-2.47,3.73-55.575,83.406-92.424,95.839C856.046,584.191,855.458,595.04,863.123,598.046Z" transform="translate(-828.052 -403.903)"/><path class="f" d="M1163.783,755.325s-1.185,109.616,3.455,111.1c8.33,2.719,40.764,11.163,5.853,11.7-17.733,2.608-16.768-1.488-17.336-4.839-.465-2.737-8.309-100.072-9.692-107.574l-.5-2.7Z" transform="translate(-897.026 -467.536)"/><path class="f" d="M1059.887,745.189s-7.842,108.925-12.522,110.279c-8.4,2.483-41.061,10.015-6.178,11.528,17.653,3.1,16.8-1.016,17.465-4.35.542-2.723,4.944-23.361,6.537-30.823.357-1.671,13.536-86.057,13.536-86.057Z" transform="translate(-868.404 -465.121)"/><path class="g" d="M1060.6,889.874c.386-1.541-10.768-2.668-12.173-1.541s-24.123,3.169-24.437,9.81,31.036,4.977,33.251,5.073S1059.846,892.9,1060.6,889.874Z" transform="translate(-868.064 -499.113)"/><g transform="translate(179.948 164.77)"><path class="h" d="M1061.588,602.122a6.907,6.907,0,0,0,4.063,1.467c9.2-.609,48.919-3.342,70.328-6.429,7.553-1.09,12.826-2.223,13.674-3.327,0,0,0,.031,0,.088.047,1.191.533,14.826,1.109,32.706,1.136,35.294,9.1,85.3,14.652,100.207,1.2,3.218-48.509,2.463-48.509,2.463-3.256-36.244-5.29-100.19-7.757-102.851-3-3.238-2.569,53.124-3.565,100.406-19.077,6.769-50.244,6.336-50.059,4.306C1057.723,707.036,1061.588,602.122,1061.588,602.122Z" transform="translate(-1055.524 -593.834)"/><g class="i" transform="translate(42.419)"><path d="M1111.655,603.407l-.446,0S1111.367,603.405,1111.655,603.407Z" transform="translate(-1111.209 -596.114)"/><path class="j" d="M1111.8,601.126c11.9-.073,37.589-3.966,37.589-3.966,7.553-1.09,12.826-2.223,13.674-3.327,0,0,0,.031,0,.088.047,1.191.533,14.826,1.109,32.706a8.861,8.861,0,0,1-1.255-.037,9.708,9.708,0,0,1-6.637-3.907,21.546,21.546,0,0,1-2.869-4.87C1143.153,601.8,1115.61,601.141,1111.8,601.126Z" transform="translate(-1111.349 -593.834)"/></g><g transform="translate(13.348 3.086)"><line class="k" x1="1.259" y2="131.928" transform="translate(0 3.603)"/><line class="k" x1="1.361" y2="129.642" transform="translate(12.543 5.152)"/><line class="k" x2="0.653" y2="128.563" transform="translate(26.044 4.108)"/><line class="k" x2="2.541" y2="26.424" transform="translate(37.736 3.102)"/><line class="k" x2="8.807" y2="130.468" transform="translate(50.714 1.986)"/><line class="k" x2="10.63" y2="131.412" transform="translate(61.875 0.944)"/><line class="k" x2="13.889" y2="131.892" transform="translate(72.852)"/></g><path class="k" d="M1062.8,620.379s70.755-2.735,89.088-7.663" transform="translate(-1057.257 -598.332)"/><path class="k" d="M1110.742,636.645c-24.176,7.705-48.531.906-48.531.906" transform="translate(-1057.117 -604.033)"/><path class="k" d="M1125.381,633.665s22.789,4.338,41.88-2.623" transform="translate(-1072.166 -602.698)"/><path class="k" d="M1061.7,650.56s18.569,7.775,47.022.55" transform="translate(-1056.996 -607.348)"/><path class="k" d="M1061.082,665.716s28.377,6.064,47.07.08" transform="translate(-1056.848 -610.958)"/><path class="k" d="M1060.449,680.775s15.031,9.828,47.256,2.068" transform="translate(-1056.697 -614.546)"/><path class="k" d="M1059.694,697.94a68.761,68.761,0,0,0,47.667-.505" transform="translate(-1056.517 -618.515)"/><path class="k" d="M1058.971,713.971s16.137,9.487,48.05.425" transform="translate(-1056.345 -622.454)"/><path class="k" d="M1058.189,729.6s21.934,9.167,48.523-2.05" transform="translate(-1056.159 -625.69)"/><path class="k" d="M1057.535,742.607s13.408,10.846,48.88-1.1" transform="translate(-1056.003 -629.014)"/><path class="k" d="M1056.717,756.918s20.932,8.827,49.338-1.475" transform="translate(-1055.808 -632.334)"/><path class="k" d="M1128.057,649.571s9.956,6.876,40.955-1.53" transform="translate(-1072.803 -606.748)"/><path class="k" d="M1129.682,664.517s13.567,4.96,39.905-2.144" transform="translate(-1073.19 -610.162)"/><path class="k" d="M1130.3,681s20.663,4.334,40.432-3.477" transform="translate(-1073.336 -613.771)"/><path class="k" d="M1131.114,694.975s20.329,7.02,41.112-3.536" transform="translate(-1073.532 -617.086)"/><path class="k" d="M1132,710.313s19.2,4.939,41.982-3.611" transform="translate(-1073.743 -620.722)"/><path class="k" d="M1132.871,725.038s16.319,5.7,43.018-3.7" transform="translate(-1073.95 -624.209)"/><path class="k" d="M1133.991,738.354s19.483,8.009,44.055-2.761" transform="translate(-1074.217 -627.605)"/><path class="k" d="M1134.8,754.479a86.569,86.569,0,0,0,45.845-3.41" transform="translate(-1074.41 -631.292)"/></g><path class="l" d="M1050.805,420.952s2.081,10.229,9.871,13.9-14.161,4.229-14.161,4.229.93-10.67-1.688-16.347S1050.805,420.952,1050.805,420.952Z" transform="translate(-872.91 -387.569)"/><ellipse class="f" cx="15.297" cy="11.212" rx="15.297" ry="11.212" transform="translate(157.122 33.114) rotate(-68.921)"/><path class="e" d="M956.779,585.13c19.774-4.334,38.424-13.915,47.86-33.145.034.051.068.094.1.145.1.128.2.264.307.417a.483.483,0,0,1,.068.094c2.716,3.713,16.053,21.946,16.053,21.954,4.836,6.3,12.229,12.357,18.1,14.792.383.171.775.315,1.132.443,14.384,2.248,74.286-20.515,81.422-26.2,3.219-2.563,4.479-14.579,4.734-27.609.324-15.882-.826-33.3-1.669-36.968-1.431-6.157-29.712-74.277-74.089-69.967a45.538,45.538,0,0,0-11.548,2.708s-.332.35-.919.868a21.762,21.762,0,0,1-4.011,2.853,17.009,17.009,0,0,1-4.1,1.644,12.555,12.555,0,0,1-8.371-.681c-2.776-1.243-8.942.213-16.428,4.394-10.4,5.8-23.367,16.862-33.374,33.212a1.01,1.01,0,0,0-.085.136,106.99,106.99,0,0,0-14.34,39.369A253.853,253.853,0,0,0,956.779,585.13Z" transform="translate(-851.545 -389.769)"/><path class="m" d="M1020.275,584.972c.034.053.072.094.106.146.1.13.2.267.3.416.026.028.044.059.072.094,2.717,3.712,16.046,21.951,16.048,21.96,4.839,6.3,12.229,12.355,18.1,14.788-6.674-10.655-26.72-41.331-30.385-55.007C1026.513,581.013,1020.273,584.964,1020.275,584.972Z" transform="translate(-867.179 -422.76)"/><path class="m" d="M1047.528,441.587c.323.961,0,1.751-1.623,2-5.06.791-10.511,2.569-13.956,5.588a3.537,3.537,0,0,1-3.321.841c-3-.731-5.914-4.714-7.132-6.5a1.4,1.4,0,0,1-.194-.413c7.488-4.181,13.647-5.639,16.429-4.389a12.537,12.537,0,0,0,8.369.674A6.91,6.91,0,0,1,1047.528,441.587Z" transform="translate(-867.424 -392.008)"/><g transform="translate(162.623)"><g transform="translate(0 2.985)"><path class="n" d="M1044.819,391.746s14.24,17.023,15.08-1.172C1060.479,377.986,1035.238,379.8,1044.819,391.746Z" transform="translate(-1035.131 -381.567)"/><path class="n" d="M1046.58,388.795s-12.451,2.106-13.8,8.515c0,0,4.707-18.869,14.957-15.438s13.776,5.907,5.541,24.6C1053.28,406.476,1056.191,390.2,1046.58,388.795Z" transform="translate(-1032.781 -381.455)"/></g><path class="n" d="M1051.78,380.886s2.672-5.415,7.928-2.477,6.414,7.036,5.984,10.521-.555,6.175.24,6.481c0,0-3.3,1.465-3.791.364,0,0-.14,6.509-4.568,10.191,0,0,1.754-7.625-1.913-9.951S1051.78,380.886,1051.78,380.886Z" transform="translate(-1037.307 -377.536)"/><path class="n" d="M1047.984,381.593s-3.054-3.915-9.171.116l-4.222,3.849s.488,1.1,2.384.919c0,0-2.882,5.319-3.341,8.773l6.031-8.648Z" transform="translate(-1032.984 -378.096)"/></g><g transform="translate(165.333 101.858)"><path class="o" d="M1040.927,569.68l64.8,26.52a7.388,7.388,0,0,0,9.629-4.034l18.1-44.226a2.294,2.294,0,0,0,.114-.32,7.36,7.36,0,0,0-4.151-9.3l-64.8-26.52a7.377,7.377,0,0,0-9.622,4.038l-17.263,42.172-.839,2.049A7.375,7.375,0,0,0,1040.927,569.68Z" transform="translate(-1036.338 -511.248)"/><path class="p" d="M1042.18,567.311l64.8,26.52a7.376,7.376,0,0,0,9.622-4.038l17.263-42.173a7.36,7.36,0,0,0-4.151-9.3l-64.8-26.52a7.377,7.377,0,0,0-9.622,4.038l-17.263,42.172A7.361,7.361,0,0,0,1042.18,567.311Z" transform="translate(-1036.637 -511.248)"/><circle class="q" cx="5.699" cy="5.699" r="5.699" transform="translate(44.354 35.756)"/></g><path class="m" d="M1139.214,566.78s-6.214-24.682-69.058,2.968,53.589.887,53.589.887Z" transform="translate(-874.627 -420.203)"/><path class="m" d="M1129.915,488.214s-2.208,66.643,61.783,75.562l1.371.419-4.545-14.163s-37.587-29.1-37.972-30.026S1129.915,488.214,1129.915,488.214Z" transform="translate(-893.296 -403.902)"/><g transform="translate(170.126 33.209)"><g transform="translate(0 119.311)"><path class="d" d="M1076.837,582.893c-.851-.028-10.474-2.48-15.023-1.567s-11.222,2.7-13.7,2.737c-2.916.038-3.276,1.309.174,1.566a45.542,45.542,0,0,0,7.646-.108c.448-.114-2.551.359-5.88.645-3.538.3-7.433.444-7.421,1.087.022,1.247,10.394.969,12.14.647a44.316,44.316,0,0,1-4.62.791c-2.119.244-4.638.22-4.966.773-.517.871,5.162,1.347,9.537.675.113.114-1.18.732-6.43,1.182-.528.045-1.729.64.123.906,3.9.561,5.531,1.09,10.54-.237,4.885-1.294,9.929-3.884,13.758-3.757Z" transform="translate(-1042.63 -578.556)"/><path class="d" d="M1066.686,580.323s-4.922-2.816-9.323-2.209c-2.616.36-2.745-.286-3.228-.347-1.6-.2.553,2.018,2.879,2.058,1.89.033,3.735,2.7,4.96,3.01s4.673.537,5.326-.1S1066.686,580.323,1066.686,580.323Z" transform="translate(-1045.239 -577.753)"/></g><path class="e" d="M1122.449,425.047c19.476,9.164,33.925,18.762,53.1,58.8,9.731,20.313,15.219,41.894,17.7,53.4a13.863,13.863,0,0,1-5.681,14.276c-43.415,30.262-109.956.359-109.956.359-3.064-.2-.448-11.695-.448-11.695,26.541-8.225,47.185-13.5,70.837-11.673-.123-.018-32.507-32.8-38.525-42.712-15.772-26-47.263-43.175-44.3-56.1C1066.2,425.234,1102.8,415.8,1122.449,425.047Z" transform="translate(-1047.956 -421.13)"/></g><path class="r" d="M1157.045,897.508c-.343-1.552,13.2-.711,14.57.456s21.289,4.785,21.417,11.433-31.164,4.1-33.381,4.138S1157.719,900.557,1157.045,897.508Z" transform="translate(-899.76 -501.206)"/></g></g></g><g transform="translate(-86.661 195.961)"><rect class="s" width="621" height="62.412" transform="translate(319.661 197.511)"/><g transform="translate(336.253 215.721)"><g transform="translate(0)"><path class="t" d="M349.687,231.514c0,.119-.033.142-.145.143q-3.514.014-7.029.034l-3.435.017v-8.835l3.491-.474q1.668-.228,3.335-.458,1.584-.217,3.168-.429c.156-.02.312-.036.465-.067.117-.024.146.007.146.126q-.005,2.424,0,4.847Q349.683,228.967,349.687,231.514Z" transform="translate(-339.077 -219.201)"/><path class="t" d="M349.685,244.837c0,.126-.032.152-.153.135q-1.686-.237-3.373-.467l-3.141-.435-3.141-.428c-.258-.035-.516-.075-.773-.114q0-4.317,0-8.635c0-.054.022-.114-.025-.162v-.052c.827.009,1.654.02,2.481.025q3.123.021,6.244.038c.571,0,1.141.014,1.712.012.122,0,.158.025.158.155q-.005,2.743,0,5.487C349.676,241.875,349.677,243.356,349.685,244.837Z" transform="translate(-339.077 -221.126)"/><path class="t" d="M339.1,234.9q0,4.319,0,8.635l-.027.011V234.74C339.124,234.788,339.1,234.848,339.1,234.9Z" transform="translate(-339.077 -221.135)"/><path class="t" d="M367.032,230.991c0,.126-.03.156-.156.156-1.647.008-3.293.023-4.939.033-.644,0-1.289,0-1.933,0v.052q-2.327,0-4.652,0c-.74,0-1.481.009-2.221.02-.112,0-.155-.018-.155-.145q.006-5.057,0-10.115c0-.084,0-.137.115-.153,1.619-.23,3.237-.468,4.856-.7l4.661-.68c1.434-.208,2.867-.416,4.3-.632.128-.02.12.031.12.118q0,2.384,0,4.769Q367.029,227.351,367.032,230.991Z" transform="translate(-341.098 -218.82)"/><path class="t" d="M367.029,247.028c0,.114-.036.125-.134.11-1.029-.148-2.059-.291-3.088-.438l-3.217-.454-2.546-.358-3.036-.432c-.633-.09-1.266-.183-1.9-.263-.122-.015-.133-.064-.133-.165q0-3.209-.013-6.416c0-1.2,0-2.4-.008-3.593,0-.127.024-.166.161-.166q3.437.008,6.873,0v.013q1.928,0,3.855,0c1.019,0,2.038.009,3.058.009.1,0,.131.025.131.129Q367.025,241.017,367.029,247.028Z" transform="translate(-341.095 -221.152)"/></g></g><g transform="translate(417.507 216.137)"><g transform="translate(0)"><path class="t" d="M434.475,244.149a1.017,1.017,0,0,0,1.476,0l7.251-7.25a9.839,9.839,0,1,0-3.783-7.73,9.763,9.763,0,0,0,2.281,6.275l-7.225,7.23A1.017,1.017,0,0,0,434.475,244.149Zm14.909-7.23a7.746,7.746,0,1,1,7.839-7.746A7.8,7.8,0,0,1,449.384,236.92Z" transform="translate(-434.158 -219.307)"/></g></g><g transform="translate(492.809 207.424)"><rect class="u" width="15.382" height="10.112" transform="translate(4.7 16.237)"/><rect class="u" width="15.382" height="10.112" transform="translate(4.7 3.846)"/><rect class="u" width="15.382" height="10.112" transform="translate(4.7 28.628)"/><rect class="v" width="23.857" height="8.902"/><rect class="v" width="23.857" height="8.902" transform="translate(0 33.684)"/><line class="u" y2="23.786" transform="translate(27.631 9.472)"/><rect class="w" width="4.815" height="4.815" transform="translate(25.224 16.478)"/></g><g transform="translate(646.147 211.349)"><path class="x" d="M737.766,213.7H713.091a1.542,1.542,0,0,0-1.542,1.542h0v6.87l14.3,4.205,13.459-4.205v-6.87a1.542,1.542,0,0,0-1.542-1.542Z" transform="translate(-703.137 -213.704)"/><path class="y" d="M739.307,223.547H711.549v8.412l14.3,2.524,13.459-2.524Z" transform="translate(-703.137 -215.135)"/><path class="z" d="M711.549,233.39V241.8l13.459,1.682,14.3-1.682V233.39Z" transform="translate(-703.137 -216.567)"/><path class="aa" d="M713.091,251.645h24.675a1.542,1.542,0,0,0,1.542-1.542h0v-6.87H711.549v6.87a1.542,1.542,0,0,0,1.542,1.542Z" transform="translate(-703.137 -217.998)"/><path class="ab" d="M721.783,221.578H711.549v21.029h10.234a1.547,1.547,0,0,0,1.542-1.543V223.12A1.547,1.547,0,0,0,721.783,221.578Z" transform="translate(-703.137 -214.849)"/><path class="ac" d="M720.943,222.563h-9.393v21.028h9.393a1.546,1.546,0,0,0,1.542-1.542V224.1A1.546,1.546,0,0,0,720.943,222.563Z" transform="translate(-703.137 -214.992)"/><path class="ac" d="M720.943,222.563h-9.393v19.346h9.393a1.546,1.546,0,0,0,1.542-1.542V224.1A1.546,1.546,0,0,0,720.943,222.563Z" transform="translate(-703.137 -214.992)"/><path class="ac" d="M720.1,222.563h-8.552v19.346H720.1a1.547,1.547,0,0,0,1.542-1.542V224.1A1.547,1.547,0,0,0,720.1,222.563Z" transform="translate(-703.137 -214.992)"/><path class="ad" d="M703.248,222.563h15.422a1.542,1.542,0,0,1,1.543,1.542v15.422a1.542,1.542,0,0,1-1.543,1.542H703.248a1.542,1.542,0,0,1-1.542-1.542V224.1A1.541,1.541,0,0,1,703.248,222.563Z" transform="translate(-701.706 -214.992)"/><path class="t" d="M708.515,235.109c.03.238.05.445.06.622h.035q.02-.253.085-.608c.043-.238.08-.438.114-.6l1.622-7h2.1l1.683,6.892a10.3,10.3,0,0,1,.209,1.3h.027a9.929,9.929,0,0,1,.175-1.261l1.342-6.934h1.908l-2.357,10.027h-2.23l-1.6-6.64c-.046-.191-.1-.441-.157-.748s-.095-.532-.108-.673h-.028c-.018.163-.055.405-.109.726s-.1.559-.129.714l-1.5,6.619h-2.268l-2.37-10.022h1.943l1.461,7.011Q708.469,234.752,708.515,235.109Z" transform="translate(-702.187 -215.713)"/></g><g transform="translate(798.393 210.097)"><path class="ae" d="M903.992,214.883H891.943a1.514,1.514,0,0,0-1.507,1.507v6.4l13.556,7.908,6.779,2.859,6.778-2.859V222.79Z" transform="translate(-881.399 -212.623)"/><path class="af" d="M890.436,224.136h13.556v7.908H890.436Z" transform="translate(-881.399 -213.969)"/><path class="ag" d="M918.349,214.883H906.3v7.907h13.556v-6.4a1.514,1.514,0,0,0-1.506-1.507Z" transform="translate(-883.706 -212.623)"/><path class="ah" d="M903.992,233.39H890.436V247.7a1.514,1.514,0,0,0,1.507,1.507h24.1a1.514,1.514,0,0,0,1.506-1.507v-6.4Z" transform="translate(-881.399 -215.315)"/><path class="af" d="M906.3,233.39h13.556V241.3H906.3Z" transform="translate(-883.706 -215.315)"/><g transform="translate(0 7.908)"><path class="ai" d="M900.227,221.493h-9.791v21.463h9.791a1.517,1.517,0,0,0,1.506-1.506V223a1.516,1.516,0,0,0-1.506-1.506Z" transform="translate(-881.399 -221.493)"/><g transform="translate(9.037 1.13)"><path class="aj" d="M899.1,222.815h-8.661v21.463H899.1a1.517,1.517,0,0,0,1.506-1.507V224.321a1.516,1.516,0,0,0-1.506-1.506Z" transform="translate(-890.436 -222.815)"/><path class="aj" d="M899.1,222.815h-8.661v19.2H899.1a1.517,1.517,0,0,0,1.506-1.506V224.321a1.516,1.516,0,0,0-1.506-1.506Z" transform="translate(-890.436 -222.815)"/><path class="aj" d="M897.967,222.815h-7.531v19.2h7.531a1.518,1.518,0,0,0,1.507-1.506V224.321a1.517,1.517,0,0,0-1.507-1.506Z" transform="translate(-890.436 -222.815)"/></g><path class="af" d="M881.367,222.815h15.063a1.513,1.513,0,0,1,1.507,1.506v15.063a1.514,1.514,0,0,1-1.507,1.506H881.367a1.514,1.514,0,0,1-1.506-1.506V224.321a1.513,1.513,0,0,1,1.506-1.506Z" transform="translate(-879.861 -221.685)"/><path class="t" d="M884.532,238.077l3.655-5.664-3.348-5.633h2.694l1.828,3.6c.167.342.284.6.346.764h.024q.181-.409.379-.8l1.953-3.569h2.473l-3.435,5.6,3.522,5.7h-2.631l-2.112-3.954a3.362,3.362,0,0,1-.252-.528H889.6a2.464,2.464,0,0,1-.245.512l-2.174,3.97Z" transform="translate(-880.54 -222.262)"/></g><path class="a" d="M879.861,212.239H916.01v36.149H879.861Z" transform="translate(-879.861 -212.239)"/></g><g transform="translate(874.796 210.889)"><circle class="t" cx="17.013" cy="17.013" r="17.013" transform="translate(0.306 0.337)"/><path class="ak" d="M998.515,235.245a10.826,10.826,0,1,0-21.652,0h3.093a7.733,7.733,0,1,1,15.466,0" transform="translate(-970.37 -214.801)"/><circle class="ak" cx="5.877" cy="5.877" r="5.877" transform="translate(12.215 13.638)"/><circle class="al" cx="6.341" cy="6.341" r="6.341" transform="translate(10.978 11.008)"/><path class="am" d="M1002.55,222.782a17.323,17.323,0,0,0-29.85-2.011l6.96,12.064a7.733,7.733,0,0,1,7.27-10.053" transform="translate(-969.765 -213.165)"/><path class="an" d="M972.2,222.065a17.322,17.322,0,0,0,12.992,26.911l7.269-12.373a7.734,7.734,0,0,1-13.3-2.475" transform="translate(-969.265 -214.459)"/><path class="ao" d="M987.9,249.319a17.322,17.322,0,0,0,16.858-24.9H989.14a7.733,7.733,0,0,1,6.031,12.528" transform="translate(-971.976 -214.801)"/><path class="ap" d="M972.7,221.986l6.96,12.064a7.737,7.737,0,0,1,.309-5.259l-6.96-7.269" transform="translate(-969.765 -214.38)"/><path class="aq" d="M987.85,251.451l7.269-12.373a7.734,7.734,0,0,1-4.486,2.629l-3.093,9.744" transform="translate(-971.923 -216.933)"/><path class="ar" d="M1004.972,224.418H989.351a7.731,7.731,0,0,1,6.031,2.938l9.9-2.474" transform="translate(-972.186 -214.801)"/></g><rect class="as" width="76.627" height="62.412" transform="translate(705.183 197.511)"/><g transform="translate(723.37 210.464)"><path class="at" d="M815.542,232.147l-2.656-19.479h-.2a17.562,17.562,0,0,0-17.51,17.51v.2Z" transform="translate(-792.522 -212.668)"/><path class="au" d="M816.1,212.668h-.2v17.708l8.854,3.541,8.854-3.541v-.2A17.561,17.561,0,0,0,816.1,212.668Z" transform="translate(-795.535 -212.668)"/><path class="av" d="M830.595,233.39v.195A17.564,17.564,0,0,1,813.081,251.1h-.39a17.565,17.565,0,0,1-17.514-17.514v-.195Z" transform="translate(-792.522 -215.682)"/><path class="ab" d="M813.772,222.577v18.895a1.63,1.63,0,0,1-1.009,1.5,1.562,1.562,0,0,1-.611.124H799.358c-.248-.284-.487-.585-.708-.885a17.366,17.366,0,0,1-3.471-10.43v-.39a17.309,17.309,0,0,1,2.852-9.545c.195-.3.4-.6.62-.885h13.5A1.633,1.633,0,0,1,813.772,222.577Z" transform="translate(-792.522 -213.873)"/><path class="ac" d="M812.886,223.613v18.895a1.562,1.562,0,0,1-.124.611,1.63,1.63,0,0,1-1.5,1.009h-11.1q-.421-.427-.806-.885c-.248-.284-.487-.585-.708-.885a17.367,17.367,0,0,1-3.471-10.43v-.39a17.309,17.309,0,0,1,2.852-9.545h13.237A1.633,1.633,0,0,1,812.886,223.613Z" transform="translate(-792.522 -214.024)"/><path class="ac" d="M812.886,223.613v17.124a1.633,1.633,0,0,1-1.62,1.62H798.649a17.367,17.367,0,0,1-3.471-10.43v-.39a17.309,17.309,0,0,1,2.852-9.545h13.237A1.633,1.633,0,0,1,812.886,223.613Z" transform="translate(-792.522 -214.024)"/><path class="ac" d="M812,223.613v17.124a1.633,1.633,0,0,1-1.62,1.62H798.649a17.367,17.367,0,0,1-3.471-10.43v-.39a17.309,17.309,0,0,1,2.852-9.545h12.351A1.633,1.633,0,0,1,812,223.613Z" transform="translate(-792.522 -214.024)"/><path class="aw" d="M793.693,221.993h16.234a1.623,1.623,0,0,1,1.623,1.623v16.234a1.623,1.623,0,0,1-1.623,1.623H793.693a1.623,1.623,0,0,1-1.623-1.623V223.616A1.623,1.623,0,0,1,793.693,221.993Z" transform="translate(-792.07 -214.024)"/><path class="t" d="M802.945,227.056a4.462,4.462,0,0,1,2.956.867,3.1,3.1,0,0,1,1.029,2.508,3.5,3.5,0,0,1-.508,1.874,3.385,3.385,0,0,1-1.441,1.273,4.9,4.9,0,0,1-2.166.456h-2.053v3.816h-2.1V227.056Zm-2.185,5.328h1.81a2.345,2.345,0,0,0,1.6-.477,1.77,1.77,0,0,0,.541-1.4q0-1.784-2.073-1.784H800.76v3.658Z" transform="translate(-793.028 -214.759)"/></g><rect class="ax" width="76.627" height="2.646" transform="translate(705.183 257.278)"/><rect class="ax" width="64.378" height="2.646" transform="translate(860.716 257.278)"/><rect class="ax" width="64.592" height="2.646" transform="translate(632.402 257.278)"/><g transform="translate(566.03 213.979)"><path class="ay" d="M607.955,216.782v27.774h34.183V219.773H624.05l-1.852-2.991Z" transform="translate(-607.955 -216.782)"/><g transform="translate(6.267 16.095)"><path class="az" d="M615.289,235.615v13.246h4.273v-8.973h13.673v8.973h4.273V235.615Z" transform="translate(-615.289 -235.615)"/></g><path class="ba" d="M622.2,216.782l1.852,2.991v1.674H607.955v-4.665Z" transform="translate(-607.955 -216.782)"/><rect class="t" width="6.57" height="1.282" transform="translate(3.116 1.727)"/><rect class="az" width="1.282" height="1.282" transform="translate(3.116 1.727)"/></g></g></g></svg>