<svg xmlns="http://www.w3.org/2000/svg" width="218.641" height="111.245" viewBox="0 0 218.641 111.245"><defs><style>.a{fill:#ae5524;}.b{fill:#7d3919;}.c{fill:#c68948;}.d{fill:#5e4824;}.e{fill:#a68b2d;}.f{fill:#633c23;}.g{fill:#221300;}.h{fill:#5a1b13;}</style></defs><path class="a" d="M101.366,342.536c1.006.386,7.205-.362,8.157.68,1.832,2.007-.618,4.75.708,6.067.694.688,2.863-.146,5.739.447,3.993.824,7.423,3.172,10.97,3.533,3.89.4,7.6-1.267,11.353-1.684,3.088-.343,5.363,1.476,7.033,1.33,2.211-.193,2.893-2.191,4.862-4.841,1.511-2.034,4.163-2.884,5.5-4.415,1.721-1.968,2.841-4.7,5.158-4.7,2.475,0,4.672,2.239,7.933,3.563,2.168.88,5.391.526,8.417,2.118,3.359,1.768,5.969,5.3,9.143,6.687a11.452,11.452,0,0,0,10.632-.7c2.434-1.365,5.165-.9,6.51-1.97,1.666-1.322,1.317-3.733,2.126-6.307.754-2.4,3.509-4.128,5.072-6.467,1.469-2.2,1.949-5.4,3.945-7.2,2.06-1.861,5.37-3.3,7.463-5.891s3.014-6.373,5.207-8.1c2.358-1.858,4.235-2.535,5.484-4.1,1.074-1.344,1.749-3.831,5.13-4.446,3.293-.6,5.73.561,7.632.29,2.32-.332,4.366-1.946,7.506-1.069,2.836.792,4.66,2.725,6.789,3.3,2.161.581,4.973,0,7.249,2.078,2.187,1.994,3.725,6.03,6.369,8.813,2.82,2.969,6.783,4.733,8.567,6.654,1.914,2.061,1.882,5.6,3.3,8.657,1.143,2.46,3.867,4.475,5.349,7.5,1.4,2.859.677,6,1.6,7.705,1.271,2.34,3.425,2.2,6.96,1.807,2-.224,4.071.744,5.218.013,2.369-1.509,2.717-5.092,2.985-5.092.236,0,1.872,1.634,3.72,1.641,1.269.005,2.768-1.661,3.85-1.5.736.11.9,1.931,1.357,2.1,1.2.43,2.687-.806,2.7.108.17,11.187-1.727,11.2-1.727,22.39s1.039,44.819,1.039,44.819H101.366s.288-35.621,0-48.775S99.423,341.789,101.366,342.536Z" transform="translate(-100.435 -305.098)"/><path class="b" d="M308.7,361.463c-1.816-1.754.731,4.718-.531,7.443s-3.057,5.781-5.25,6.312-1.528,2.193-5.98,2.06-7.177,1.544-9.1.008-1.861-2.334-2.724-5.324-2.99-10.831-8.7-14.486-5.98-3.854-9.635-4.186-4.784,1.063-5.781-.731,1.262-4.851-.864-7.575a22.666,22.666,0,0,0-6.207-6.047c-2.63-1.661-7.947-4.186-13.661-3.19s-8.24,1.595-11.031,3.721-4.652,3.655-5.117,6.911.332,4.984-3.655,4.784-9.369,1.4-10.3,4.784,2.591,10.234,6.047,7.575,6.047-9.768,10.9-8.572,7.708,3.389,12.16,4.519a40.1,40.1,0,0,0,10.233.864c.731,0,.531,4.784-.8,6.446s-1.063.93-4.253,2.059-3.588,1.662-7.31,2.858-4.385,2.193-5.515-.133-2.658-9.1-9.1-6.911-8.343,4.984-12.511,6.512-8.088,1.329-14.866,1.728-5.981.4-11.828-.73-6.446.133-9.037-2.991-4.585-7.243-10.233-6.445-6.446,6.512-10.7,7.841-10.965.066-15.35.73-4.984,1.263-10.5.864-14.021,0-16.413-1.529-2.259-1.794-4.452-3.987-3.675-3.854-4.13-4.12v18.34s47.455.931,53.834,1.861,10.366-.532,14.486,0,30.7.237,35.617.317,5.449-.584,3.987.613-8.506,6.911-14.619,7.974-13.423,3.057-19,4.253-7.443,2.658-18.872,1.329-17.277-1.462-25.65-3.722-16.347-6.113-21.8-6.778-7.984-2.392-7.984-2.392v8.638s18.35,8.771,27.388,9.3,13.555,3.588,21.131,4.252a80.53,80.53,0,0,0,17.941,0c5.848-.664,8.24.133,14.087-.133s12.492-1.462,16.878-3.588,11.429-5.714,14.752-8.771,5.449-9.037,8.9-9.037,11.562,1.728,13.423,3.588,3.589,4.386,0,5.449-9.569-.133-11.164,2.525-3.721,4.917,3.322,8.372,9.835,2.525,9.835-1.329,7.255-10.632,14.923-7.974,8.068,5.714,12.321,6.379,14.486,2.126,20.2,1.861a135.739,135.739,0,0,1,17.808.266,45.532,45.532,0,0,0,12.931-.931V395.22s-13.861,1.329-19.443,1.329-2.126-.133-9.7.133-10.9-.8-15.417-.8-4.784-.8-4.784-3.721-2.259-7.31,1.595-8.506,6.379.8,13.29.8,9.17,2.126,16.612-.266,8.373-3.19,11.695-8.373,3.722-13.555,3.722-13.555S310.623,363.324,308.7,361.463Z" transform="translate(-101.349 -318.61)"/><path class="c" d="M308.7,366.753c-1.816-1.754.731,4.718-.531,7.443s-3.057,5.781-5.25,6.313-1.528,2.192-5.98,2.06-7.177,1.544-9.1.008-1.861-2.334-2.724-5.324-2.99-10.831-8.7-14.486-5.98-3.854-9.635-4.186-4.784,1.063-5.781-.731,1.262-4.851-.864-7.575a22.667,22.667,0,0,0-6.207-6.047c-2.63-1.661-7.947-4.186-13.661-3.19s-8.24,1.595-11.031,3.721-4.652,3.655-5.117,6.911.332,4.983-3.655,4.784-9.369,1.4-10.3,4.784,2.591,10.233,6.047,7.575,6.047-9.768,10.9-8.572,7.708,3.389,12.16,4.519a40.1,40.1,0,0,0,10.233.864c.731,0,.531,4.784-.8,6.446s-1.063.93-4.253,2.06-3.588,1.661-7.31,2.857-4.385,2.193-5.515-.133-2.658-9.1-9.1-6.911-8.343,4.984-12.511,6.513-8.088,1.329-14.866,1.728-5.981.4-11.828-.731-6.446.133-9.037-2.991-4.585-7.243-10.233-6.445-6.446,6.512-10.7,7.841-10.965.066-15.35.731-4.984,1.262-10.5.864-14.021,0-16.413-1.529-2.259-1.794-4.452-3.987-3.675-3.854-4.13-4.12v18.34s47.455.93,53.834,1.861,10.366-.532,14.486,0,30.7.237,35.617.317,5.449-.583,3.987.613-8.506,6.911-14.619,7.974-13.423,3.057-19,4.253-7.443,2.658-18.872,1.329-17.277-1.462-25.65-3.722-16.347-6.113-21.8-6.778-7.984-2.392-7.984-2.392v8.638s18.35,8.772,27.388,9.3,13.555,3.588,21.131,4.253a80.6,80.6,0,0,0,17.941,0c5.848-.665,8.24.133,14.087-.133s12.492-1.461,16.878-3.588,11.429-5.714,14.752-8.771,5.449-9.037,8.9-9.037S235.137,392,237,393.865s3.589,4.386,0,5.449-9.569-.133-11.164,2.525-3.721,4.917,3.322,8.373,9.835,2.525,9.835-1.329,7.255-10.632,14.923-7.974,8.068,5.714,12.321,6.379,14.486,2.126,20.2,1.861a135.761,135.761,0,0,1,17.808.266,45.542,45.542,0,0,0,12.931-.93V400.51s-13.861,1.329-19.443,1.329-2.126-.133-9.7.133-10.9-.8-15.417-.8-4.784-.8-4.784-3.721-2.259-7.31,1.595-8.506,6.379.8,13.29.8,9.17,2.126,16.612-.266,8.373-3.19,11.695-8.373,3.722-13.556,3.722-13.556S310.623,368.614,308.7,366.753Z" transform="translate(-101.349 -320.959)"/><path class="a" d="M351.574,357.774c-6.072,1.518-9.37-.8-11.762-1.993s-6.512-2.193-5.117-5.184,1.329-4.452,7.907-4.585,12.227.266,13.29,3.788,2.869,6.113.77,6.911S353.435,357.308,351.574,357.774Z" transform="translate(-204.352 -323.26)"/><path class="a" d="M378.724,381.06c.794-2.211-.133-2.791,3.456-2.858s3.322-.465,6.113.6,5.25.8,8.041,4.053,4.917,4.519,4.851,8.572,1.13,4.652-1.528,4.053a13.789,13.789,0,0,0-5.715-.266c-2.724.2-3.389.4-5.116-2.326s-1.462-3.522-4.718-5.382-2.857-.864-4.585-2.193S378,383.076,378.724,381.06Z" transform="translate(-223.794 -337.509)"/><g transform="translate(130.94 51.016)"><path class="d" d="M354.177,399.56c1.5-1.223,1.4-1.124,1.794-.526s1.535.526,1.535.526.359.071.758-.476.9-1.146.9-1.146.5-.169.8.813.7,2.577.7,2.577h.6l.4-1.3.3,1.3.7.5h.5s.3,2.192.8,2.292,2.592-1.595,3.19-2.292.3-4.585.6-.7-.3,3.489,0,4.386,1.595.6,2.193,1.2.9.2,0,1.3-1.894,1.694-1,2.89,1.894,2.093,2.292,2.691,1.3,1,1.2,1.3-2.99.1-3.09.4a3.333,3.333,0,0,0-.1,1.794c.2.7-.1.7.2,1.595l.6,1.794s-2.293-.4-2.293,0v1.3c0,.7,1.595,2.591,0,2.492a9.585,9.585,0,0,1-3.289-1l-1.142,1a11.419,11.419,0,0,0-2.645.494,13.172,13.172,0,0,0-2.193,1.1,2.429,2.429,0,0,0-1.694-1.1c-1.1-.1-2.591-.1-2.591-.1l-1.3-.8a14.652,14.652,0,0,0-3.389-.9c-.7.1,0,.9-.9.6s-.7-2.791-1.4-2.791-2.392.5-2.591-.2-.4-1.595,0-1.595,1.694-.2,1.694-.2l-3.987-1.595s-2.692-.4-2.392-.4a26.319,26.319,0,0,0,2.691-1l-2.093-1.1s.8-1,0-1.3a15.6,15.6,0,0,0-3.289-.3l4.386-1.2h-4.386l2.791-1.789s1.2.3.1-.5-1.5-1.1-1.5-1.1l.8-.9a7.25,7.25,0,0,1-1.1-1.5c-.1-.4-4.385-3.19-1.1-2.393s3.588,1.1,3.588,1.1a.414.414,0,0,0,.6,0,7.492,7.492,0,0,0,.4-2.315l.8-1.273,1.694.5s0,2.049.2.775.4-2.941.4-2.941,1.2-.371,1.595,0,1.1,0,1.1,0h3.09l.3-1.634.7-.487a18.239,18.239,0,0,1,.7,1.694c.1.4,1-.8,1-.8Z" transform="translate(-335.993 -397.125)"/><g transform="translate(19.869 4.583)"><path class="e" d="M371.946,405.551a.216.216,0,0,0,0-.432.216.216,0,0,0,0,.432Z" transform="translate(-371.738 -405.119)"/></g><g transform="translate(21.066 4.982)"><path class="e" d="M374.1,406.269a.216.216,0,0,0,0-.432.216.216,0,0,0,0,.432Z" transform="translate(-373.89 -405.837)"/></g><g transform="translate(17.291 4.096)"><path class="e" d="M371.486,409.531a5.2,5.2,0,0,0-4.117-5.281c-.271-.062-.386.355-.115.416a4.781,4.781,0,0,1,3.8,4.864.216.216,0,0,0,.432,0Z" transform="translate(-367.1 -404.244)"/></g><g transform="translate(13.968 6.592)"><path class="e" d="M363.942,411.507a12.079,12.079,0,0,0-2.443-2.722c-.213-.175-.521.129-.306.306a11.688,11.688,0,0,1,2.376,2.634c.152.231.526.015.373-.218Z" transform="translate(-361.121 -408.733)"/></g><g transform="translate(14.322 4.689)"><path class="e" d="M362.346,409.107l-.156-3.59c-.012-.277-.444-.279-.432,0l.156,3.59c.012.277.444.278.432,0Z" transform="translate(-361.759 -405.309)"/></g><g transform="translate(16.686 4.368)"><path class="e" d="M366.456,407.744a4.638,4.638,0,0,1,.613-2.688.216.216,0,0,0-.373-.218,5.058,5.058,0,0,0-.672,2.906c.019.276.451.278.432,0Z" transform="translate(-366.011 -404.733)"/></g><g transform="translate(23.273 4.645)"><path class="e" d="M378.29,410.335a7.354,7.354,0,0,1,5-4.679.216.216,0,0,0-.115-.416,7.8,7.8,0,0,0-5.3,4.981c-.092.263.325.376.416.114Z" transform="translate(-377.86 -405.231)"/></g><g transform="translate(28.144 6.757)"><path class="e" d="M387.023,412.965a8.21,8.21,0,0,1,3.494-3.535c.246-.13.027-.5-.218-.373a8.61,8.61,0,0,0-3.649,3.69c-.127.247.245.465.373.218Z" transform="translate(-386.624 -409.03)"/></g><g transform="translate(25.537 12.392)"><path class="e" d="M382.309,424.088a18.6,18.6,0,0,1,10.415-4.487c.274-.027.277-.459,0-.432A19.1,19.1,0,0,0,382,423.782c-.21.183.1.487.306.306Z" transform="translate(-381.933 -419.168)"/></g><g transform="translate(25.95 13.531)"><path class="e" d="M382.884,421.68a75.223,75.223,0,0,1,7.875.183c.277.021.276-.411,0-.432a75.214,75.214,0,0,0-7.875-.183c-.277.008-.278.44,0,.432Z" transform="translate(-382.676 -421.216)"/></g><g transform="translate(30.496 16.674)"><path class="e" d="M390.918,427.24l4.108,4.165c.2.2.5-.107.306-.305l-4.109-4.165c-.2-.2-.5.107-.305.305Z" transform="translate(-390.855 -426.87)"/></g><g transform="translate(30.514 22.034)"><path class="e" d="M390.915,436.837a11.329,11.329,0,0,0,2.352,3.014c.2.187.511-.117.305-.305a10.984,10.984,0,0,1-2.285-2.927c-.132-.245-.5-.027-.373.218Z" transform="translate(-390.887 -436.512)"/></g><g transform="translate(27.238 20.339)"><path class="e" d="M385.093,433.672l-.1,3.588a.216.216,0,0,0,.432,0l.1-3.588a.216.216,0,0,0-.432,0Z" transform="translate(-384.993 -433.464)"/></g><g transform="translate(22.961 21.924)"><path class="e" d="M378.6,436.418a8.607,8.607,0,0,0-1.3,4.4.216.216,0,0,0,.432,0,8.143,8.143,0,0,1,1.246-4.185c.147-.237-.227-.454-.373-.218Z" transform="translate(-377.3 -436.316)"/></g><g transform="translate(17.475 20.434)"><path class="e" d="M367.434,433.9a12.926,12.926,0,0,0,3.034,6.384c.183.21.488-.1.305-.305a12.523,12.523,0,0,1-2.923-6.194c-.047-.273-.463-.158-.417.115Z" transform="translate(-367.431 -433.634)"/></g><g transform="translate(9.303 19.528)"><path class="e" d="M352.779,432.385a7.532,7.532,0,0,0,3.79,2.539.216.216,0,0,0,.115-.416,7.151,7.151,0,0,1-3.6-2.428c-.173-.217-.477.09-.305.305Z" transform="translate(-352.728 -432.005)"/></g><g transform="translate(3.372 12.9)"><path class="e" d="M350.986,425.787a25.206,25.206,0,0,1-8.558-5.642.216.216,0,0,0-.306.306,25.725,25.725,0,0,0,8.748,5.753c.258.1.371-.315.115-.416Z" transform="translate(-342.059 -420.082)"/></g><g transform="translate(4.052 7.796)"><path class="e" d="M345.976,414.941a18.033,18.033,0,0,1-2.3-3.929c-.109-.255-.481-.035-.373.218a18.032,18.032,0,0,0,2.3,3.929c.167.217.543,0,.373-.218Z" transform="translate(-343.283 -410.899)"/></g><g transform="translate(6.396 3.899)"><path class="e" d="M349.739,412.762a29.046,29.046,0,0,0-1.808-8.728c-.1-.258-.514-.146-.416.115a28.638,28.638,0,0,1,1.792,8.613c.014.276.446.278.432,0Z" transform="translate(-347.499 -403.888)"/></g><g transform="translate(6.788 3.022)"><path class="e" d="M351.608,406.973a5.882,5.882,0,0,0-3.078-4.635c-.245-.132-.463.241-.218.373a5.439,5.439,0,0,1,2.864,4.262c.028.274.46.277.432,0Z" transform="translate(-348.205 -402.31)"/></g><g transform="translate(1.828 9.276)"><path class="e" d="M349.121,415.04a48.014,48.014,0,0,0-9.63-1.479c-.278-.014-.277.418,0,.432a47.436,47.436,0,0,1,9.515,1.464.216.216,0,0,0,.115-.417Z" transform="translate(-339.282 -413.561)"/></g><g transform="translate(6.016 13.858)"><path class="e" d="M352.463,423a22.713,22.713,0,0,0-5.441-1.2c-.277-.027-.275.406,0,.432a22.239,22.239,0,0,1,5.326,1.181c.262.093.376-.324.115-.416Z" transform="translate(-346.816 -421.804)"/></g><g transform="translate(11.301 7.98)"><path class="e" d="M357.816,417.565a34.227,34.227,0,0,1-1.061-6.128c-.022-.275-.455-.277-.432,0a34.889,34.889,0,0,0,1.076,6.242.216.216,0,0,0,.417-.115Z" transform="translate(-356.322 -411.23)"/></g><g transform="translate(10.56 9.743)"><path class="e" d="M355.309,419.315a31.566,31.566,0,0,0,5.74-4.544.216.216,0,0,0-.306-.305,31.094,31.094,0,0,1-5.652,4.476c-.236.146-.02.52.218.373Z" transform="translate(-354.99 -414.402)"/></g><g transform="translate(18.777 9.756)"><path class="e" d="M370.129,417l1.794-2.193c.175-.213-.13-.521-.306-.306l-1.794,2.193c-.175.213.129.521.305.306Z" transform="translate(-369.772 -414.425)"/></g><g transform="translate(18.783 10.556)"><path class="e" d="M372.692,420.911a16.732,16.732,0,0,0-2.5-4.954c-.162-.222-.538-.007-.373.218a16.335,16.335,0,0,1,2.451,4.851c.083.265.5.152.417-.115Z" transform="translate(-369.783 -415.864)"/></g><g transform="translate(12.789 13.251)"><path class="e" d="M364.691,424.106a8.692,8.692,0,0,0-5.42-3.389c-.272-.051-.388.366-.115.417a8.265,8.265,0,0,1,5.162,3.19c.165.22.54.005.373-.218Z" transform="translate(-359 -420.713)"/></g><g transform="translate(13.962 9.773)"><path class="e" d="M361.543,423.436l.071-8.772a.216.216,0,0,0-.432,0l-.072,8.772a.216.216,0,0,0,.432,0Z" transform="translate(-361.111 -414.456)"/></g><g transform="translate(13.473 8.424)"><path class="e" d="M360.658,422.344a23.533,23.533,0,0,1,5.986-9.946.216.216,0,0,0-.306-.306,24.015,24.015,0,0,0-6.1,10.137.216.216,0,0,0,.416.115Z" transform="translate(-360.232 -412.029)"/></g><g transform="translate(18.121 9.247)"><path class="e" d="M369.206,418.357A3.342,3.342,0,0,1,372,413.927c.274-.037.157-.453-.115-.416a3.759,3.759,0,0,0-3.095,4.961c.086.264.5.151.416-.115Z" transform="translate(-368.592 -413.509)"/></g><g transform="translate(20.572 13.248)"><path class="e" d="M373.362,422.78a4.624,4.624,0,0,1,3.83-1.634c.278.015.277-.417,0-.432a5.039,5.039,0,0,0-4.136,1.76c-.18.21.124.517.306.306Z" transform="translate(-373.001 -420.707)"/></g><g transform="translate(22.153 18.444)"><path class="e" d="M376.169,431.343a6.313,6.313,0,0,1,3.283-.856.216.216,0,0,0,0-.432,6.774,6.774,0,0,0-3.5.915.216.216,0,0,0,.218.373Z" transform="translate(-375.847 -430.054)"/></g><g transform="translate(21.471 12.863)"><path class="e" d="M375.016,428.61l4-8.266c.12-.249-.252-.469-.373-.218l-4,8.266c-.121.249.252.469.373.218Z" transform="translate(-374.619 -420.015)"/></g><g transform="translate(23.939 13.971)"><path class="e" d="M379.414,424.633a5.662,5.662,0,0,1,4.454-2.195.216.216,0,0,0,0-.432,6.079,6.079,0,0,0-4.76,2.321c-.171.216.133.524.306.306Z" transform="translate(-379.058 -422.007)"/></g><g transform="translate(25.441 11.178)"><path class="e" d="M382.185,421.646a5.54,5.54,0,0,1,5.177-4.231c.277-.009.279-.441,0-.432a5.974,5.974,0,0,0-5.593,4.548c-.066.27.351.386.416.115Z" transform="translate(-381.761 -416.984)"/></g><g transform="translate(21.699 6.64)"><path class="e" d="M375.464,415.288a9.011,9.011,0,0,0,.276-6.319c-.084-.263-.5-.151-.416.115a8.614,8.614,0,0,1-.277,6.089c-.107.256.31.367.417.115Z" transform="translate(-375.03 -408.819)"/></g><g transform="translate(23.31 5.547)"><path class="e" d="M379.159,412.038a7.9,7.9,0,0,0-.832-5.076c-.131-.246-.5-.028-.373.218a7.4,7.4,0,0,1,.788,4.744c-.044.272.372.389.417.115Z" transform="translate(-377.927 -406.854)"/></g><g transform="translate(25.263 2.573)"><path class="e" d="M381.85,409.807c1.5-2.322,4.052-5.207,2.854-8.16-.1-.254-.521-.143-.416.115,1.137,2.8-1.38,5.61-2.81,7.827-.151.234.222.451.373.218Z" transform="translate(-381.441 -401.504)"/></g><g transform="translate(7.824 2.623)"><path class="e" d="M353,407.1a4.521,4.521,0,0,0-2.6-5.484c-.252-.108-.473.263-.218.373a4.092,4.092,0,0,1,2.406,5,.216.216,0,0,0,.416.115Z" transform="translate(-350.069 -401.594)"/></g><g transform="translate(11.834 1.853)"><path class="e" d="M358.42,403.8a4.029,4.029,0,0,0-.782-3.516c-.173-.218-.476.089-.306.305a3.563,3.563,0,0,1,.67,3.1c-.065.27.351.386.417.115Z" transform="translate(-357.282 -400.208)"/></g><g transform="translate(14.078 0.296)"><path class="e" d="M361.693,402.963a4.029,4.029,0,0,0,.548-5.461c-.162-.222-.538-.007-.373.218a3.613,3.613,0,0,1-.48,4.938c-.205.188.1.494.305.306Z" transform="translate(-361.32 -397.408)"/></g><g transform="translate(9.104 15.049)"><path class="e" d="M360.892,426.528a14.418,14.418,0,0,0-8.311-2.58.216.216,0,0,0,0,.432,14.014,14.014,0,0,1,8.093,2.521c.229.158.445-.216.218-.373Z" transform="translate(-352.372 -423.948)"/></g><g transform="translate(11.794 20.525)"><path class="e" d="M358.035,435.017a1.773,1.773,0,0,0-.462-1.15c-.186-.207-.49.1-.305.306a1.3,1.3,0,0,1,.335.844c.009.277.441.279.432,0Z" transform="translate(-357.21 -433.799)"/></g><g transform="translate(11.619 19.263)"><path class="e" d="M359.875,433.808a2.114,2.114,0,0,0-2.832-2.152c-.26.092-.148.509.115.416a1.684,1.684,0,0,1,2.285,1.735c-.019.278.413.276.432,0Z" transform="translate(-356.895 -431.529)"/></g><g transform="translate(15.973 22.321)"><path class="e" d="M365.162,440.738a10.432,10.432,0,0,1,.967-3.38c.12-.249-.253-.469-.373-.218a11.076,11.076,0,0,0-1.026,3.6c-.031.276.4.274.432,0Z" transform="translate(-364.728 -437.03)"/></g><g transform="translate(14.166 17.658)"><path class="e" d="M361.91,436.315a7.75,7.75,0,0,1,5.314-7.245c.262-.088.149-.506-.115-.416a8.194,8.194,0,0,0-5.63,7.662.216.216,0,0,0,.432,0Z" transform="translate(-361.478 -428.641)"/></g><g transform="translate(16.638 13.912)"><path class="e" d="M366.287,426.661a13,13,0,0,1,11.785-4.16c.272.046.389-.37.115-.416a13.439,13.439,0,0,0-12.205,4.271c-.185.207.12.513.306.305Z" transform="translate(-365.924 -421.901)"/></g><g transform="translate(18.779 22.547)"><path class="e" d="M369.983,437.988a28.321,28.321,0,0,1,9.816.809.216.216,0,0,0,.115-.416,28.655,28.655,0,0,0-9.931-.824c-.275.025-.277.457,0,.432Z" transform="translate(-369.776 -437.435)"/></g><g transform="translate(21.106 25.558)"><path class="e" d="M374.344,443.947a3.155,3.155,0,0,1,3.529-.24.216.216,0,0,0,.218-.372,3.606,3.606,0,0,0-4.052.307c-.219.171.088.474.306.305Z" transform="translate(-373.963 -442.853)"/></g><g transform="translate(22.91 19.165)"><path class="e" d="M377.616,434.815a6.572,6.572,0,0,1,5.431-3.031.216.216,0,0,0,0-.432,7.016,7.016,0,0,0-5.8,3.245c-.151.234.222.451.373.218Z" transform="translate(-377.207 -431.352)"/></g><g transform="translate(25.607 14.593)"><path class="e" d="M382.479,426.555a3.544,3.544,0,0,1,2.972-3.008c.273-.043.157-.459-.115-.416a3.949,3.949,0,0,0-3.274,3.309c-.039.272.377.389.417.115Z" transform="translate(-382.059 -423.128)"/></g><g transform="translate(26.283 16.077)"><path class="e" d="M383.708,430.369a4.658,4.658,0,0,1,3.37-4.146.216.216,0,0,0-.115-.416,5.1,5.1,0,0,0-3.687,4.563c-.019.277.413.276.432,0Z" transform="translate(-383.276 -425.797)"/></g><g transform="translate(27.744 19.658)"><path class="e" d="M386.229,433.429a6.194,6.194,0,0,1,5.632-.168c.25.117.47-.255.218-.372a6.659,6.659,0,0,0-6.068.167c-.245.132-.027.5.218.373Z" transform="translate(-385.904 -432.238)"/></g><g transform="translate(29.852 22.975)"><path class="e" d="M390.026,438.909a3.058,3.058,0,0,1,3.655.867c.176.215.48-.092.305-.306a3.49,3.49,0,0,0-4.178-.934c-.252.116-.033.489.218.373Z" transform="translate(-389.696 -438.205)"/></g><g transform="translate(3.394 15.876)"><path class="e" d="M348.17,425.542a10.655,10.655,0,0,0-5.959.855c-.253.114-.033.486.219.373a10.129,10.129,0,0,1,5.626-.812c.272.038.389-.379.115-.416Z" transform="translate(-342.099 -425.434)"/></g><g transform="translate(0.52 18.68)"><path class="e" d="M344.523,430.484a11.987,11.987,0,0,0-7.5,2.316c-.222.162-.007.538.218.373a11.6,11.6,0,0,1,7.284-2.257c.278.008.278-.424,0-.432Z" transform="translate(-336.928 -430.478)"/></g><g transform="translate(2.041 9.439)"><path class="e" d="M343.591,416.347a9.64,9.64,0,0,0-3.666-2.478c-.26-.1-.372.318-.115.417a9.168,9.168,0,0,1,3.476,2.366c.188.205.494-.1.305-.305Z" transform="translate(-339.664 -413.855)"/></g><g transform="translate(5.733 8.406)"><path class="e" d="M350.337,413.083l-3.764-1.078a.216.216,0,0,0-.114.416l3.764,1.078a.216.216,0,0,0,.115-.417Z" transform="translate(-346.306 -411.996)"/></g><g transform="translate(17.591 2.465)"><path class="e" d="M369.378,404.785a3.466,3.466,0,0,0-1.426-3.436c-.227-.162-.442.212-.218.373a3.009,3.009,0,0,1,1.227,2.948c-.045.272.371.389.416.115Z" transform="translate(-367.639 -401.31)"/></g><g transform="translate(20.67)"><path class="e" d="M373.895,402.371a15,15,0,0,0-.294-5.342c-.064-.27-.48-.156-.417.115a14.664,14.664,0,0,1,.279,5.227c-.034.275.4.273.432,0Z" transform="translate(-373.177 -396.874)"/></g><g transform="translate(23.41 2.307)"><path class="e" d="M378.53,404.683a5.468,5.468,0,0,1,2.185-3.246c.226-.159.01-.534-.218-.373a5.913,5.913,0,0,0-2.384,3.5c-.064.27.352.385.416.115Z" transform="translate(-378.107 -401.024)"/></g><g transform="translate(29.275 6.14)"><path class="e" d="M389.086,411.933a5.167,5.167,0,0,1,4.828-3.581.216.216,0,0,0,0-.432,5.607,5.607,0,0,0-5.245,3.9c-.086.265.331.379.416.114Z" transform="translate(-388.658 -407.92)"/></g><g transform="translate(31.581 9.008)"><path class="e" d="M393.135,414.065a5.344,5.344,0,0,1,4.469-.127c.257.106.369-.312.115-.416a5.755,5.755,0,0,0-4.8.17c-.25.122-.031.495.218.373Z" transform="translate(-392.807 -413.079)"/></g><g transform="translate(15.493 12.059)"><path class="f" d="M365.727,420.76a3.106,3.106,0,0,1-1.441-2.036c-.058-.272-.475-.157-.416.115a3.537,3.537,0,0,0,1.64,2.294c.238.145.455-.228.218-.373Z" transform="translate(-363.864 -418.569)"/></g><g transform="translate(12.879 9.378)"><path class="f" d="M361.043,417.547a7.089,7.089,0,0,1-1.448-3.6c-.03-.273-.461-.277-.432,0a7.5,7.5,0,0,0,1.507,3.814c.167.218.542,0,.373-.218Z" transform="translate(-359.161 -413.745)"/></g><g transform="translate(13.549 7.283)"><path class="f" d="M361.218,413.716a9.121,9.121,0,0,1-.384-3.532c.024-.277-.408-.276-.432,0a9.421,9.421,0,0,0,.4,3.647c.083.265.5.152.416-.115Z" transform="translate(-360.367 -409.977)"/></g><g transform="translate(16.636 6.473)"><path class="f" d="M366.348,412.275l1.093-3.49c.083-.266-.334-.38-.417-.115l-1.092,3.49c-.083.266.334.38.416.115Z" transform="translate(-365.92 -408.52)"/></g><g transform="translate(19.427 4.477)"><path class="f" d="M371.375,409.583l1.768-4.4c.1-.257-.313-.37-.416-.115l-1.768,4.4c-.1.258.314.37.416.115Z" transform="translate(-370.943 -404.928)"/></g><g transform="translate(21.895 10.172)"><path class="f" d="M375.693,416.5l1.282-.917c.224-.16.008-.535-.218-.373l-1.282.917c-.224.161-.008.535.218.373Z" transform="translate(-375.381 -415.173)"/></g><g transform="translate(23.856 11.56)"><path class="f" d="M379.118,418.1h.1a.216.216,0,0,0,0-.432h-.1a.216.216,0,0,0,0,.432Z" transform="translate(-378.91 -417.671)"/></g><g transform="translate(24.282 10.33)"><path class="f" d="M380.108,420.693a9.5,9.5,0,0,1,1.668-4.921c.157-.23-.217-.446-.373-.218a9.939,9.939,0,0,0-1.727,5.138c-.014.277.418.277.432,0Z" transform="translate(-379.675 -415.457)"/></g><g transform="translate(22.858 9.979)"><path class="f" d="M377.546,423.6a29.554,29.554,0,0,1,1.3-8.509c.082-.266-.335-.38-.416-.115a29.955,29.955,0,0,0-1.316,8.624.216.216,0,0,0,.432,0Z" transform="translate(-377.114 -414.826)"/></g><g transform="translate(21.165 15.847)"><path class="f" d="M374.277,425.814a.216.216,0,0,0,0-.432.216.216,0,0,0,0,.432Z" transform="translate(-374.069 -425.382)"/></g><g transform="translate(15.78 15.363)"><path class="f" d="M366.577,424.655a11.357,11.357,0,0,1-2.137,3.394c-.186.205.118.511.306.305a11.961,11.961,0,0,0,2.249-3.584c.1-.257-.314-.37-.417-.115Z" transform="translate(-364.381 -424.512)"/></g><g transform="translate(9.73 15.954)"><path class="f" d="M353.606,425.732a10.419,10.419,0,0,0,.525,5.106c.094.259.512.147.416-.115a9.992,9.992,0,0,1-.525-4.877c.038-.272-.378-.389-.416-.114Z" transform="translate(-353.497 -425.575)"/></g><g transform="translate(11.371 17.126)"><path class="f" d="M359.605,427.747l-3.093,3.087a.216.216,0,0,0,.305.306l3.093-3.087a.216.216,0,0,0-.305-.306Z" transform="translate(-356.449 -427.684)"/></g><g transform="translate(14.878 18.746)"><path class="f" d="M362.858,430.8l-.1,1.2c-.023.277.409.275.432,0l.1-1.2c.023-.277-.409-.275-.432,0Z" transform="translate(-362.757 -430.598)"/></g><g transform="translate(17.062 19.244)"><path class="f" d="M368.228,431.6a11.456,11.456,0,0,0-1.537,4.132c-.045.272.371.389.416.115a11.132,11.132,0,0,1,1.494-4.028c.145-.238-.228-.455-.373-.218Z" transform="translate(-366.688 -431.494)"/></g><g transform="translate(20.347 21.735)"><path class="f" d="M372.61,436.184a11.247,11.247,0,0,0,.506,3.944c.083.265.5.152.417-.115a10.913,10.913,0,0,1-.491-3.829c.013-.278-.419-.277-.432,0Z" transform="translate(-372.596 -435.975)"/></g><g transform="translate(22.463 24.114)"><path class="f" d="M376.43,440.583a12.916,12.916,0,0,0,2.328,3.229c.2.2.5-.107.305-.305a12.568,12.568,0,0,1-2.26-3.141c-.126-.248-.5-.03-.373.218Z" transform="translate(-376.404 -440.255)"/></g><g transform="translate(23.485 19.417)"><path class="f" d="M378.272,432.128a12.757,12.757,0,0,0,7.262,5.827c.266.083.38-.333.115-.416a12.31,12.31,0,0,1-7-5.628.216.216,0,0,0-.372.218Z" transform="translate(-378.242 -431.805)"/></g><g transform="translate(26.941 22.325)"><path class="f" d="M384.563,437.442l2.192,1.3a.216.216,0,0,0,.218-.373l-2.192-1.3a.216.216,0,0,0-.218.373Z" transform="translate(-384.459 -437.037)"/></g><g transform="translate(28.249 20.324)"><path class="f" d="M386.956,433.868a8.713,8.713,0,0,0,3.745.606c.276-.016.278-.448,0-.432a8.441,8.441,0,0,1-3.631-.59c-.259-.1-.37.315-.115.416Z" transform="translate(-386.812 -433.436)"/></g><g transform="translate(29.239 19.235)"><path class="f" d="M388.8,431.91a.216.216,0,0,0,0-.432.216.216,0,0,0,0,.432Z" transform="translate(-388.593 -431.478)"/></g><g transform="translate(26.269 15.272)"><path class="f" d="M383.581,426.675q2.23-1.01,4.512-1.894c.257-.1.145-.517-.115-.416q-2.335.9-4.615,1.937c-.253.114-.034.487.218.373Z" transform="translate(-383.251 -424.349)"/></g><g transform="translate(30.245 4.068)"><path class="f" d="M390.826,412.537a14.579,14.579,0,0,1,5.088-7.988c.217-.174-.09-.478-.305-.306a14.952,14.952,0,0,0-5.2,8.179c-.066.27.351.385.417.115Z" transform="translate(-390.402 -404.192)"/></g><g transform="translate(27.126 8.679)"><path class="f" d="M386.228,416.225l-1.011-3.584a.216.216,0,0,0-.416.115l1.011,3.584a.216.216,0,0,0,.416-.115Z" transform="translate(-384.792 -412.488)"/></g><g transform="translate(19.168 8.664)"><path class="f" d="M375.093,418.9a17,17,0,0,0-4.244-6.38c-.2-.191-.508.114-.306.306a16.516,16.516,0,0,1,4.133,6.189c.1.257.515.146.416-.114Z" transform="translate(-370.477 -412.461)"/></g><g transform="translate(12.899 11.547)"><path class="f" d="M361.811,419.372l-2.3-1.684c-.225-.164-.44.211-.218.373l2.3,1.684c.225.164.44-.211.218-.373Z" transform="translate(-359.199 -417.648)"/></g><g transform="translate(8.225 9.964)"><path class="f" d="M352.308,418.868l-1.093-3.916a.216.216,0,0,0-.416.115l1.093,3.916a.216.216,0,0,0,.416-.115Z" transform="translate(-350.79 -414.8)"/></g><g transform="translate(2.533 9.236)"><path class="f" d="M345.625,413.822a8.862,8.862,0,0,0-4.923.032.216.216,0,0,0,.115.416,8.417,8.417,0,0,1,4.693-.032.216.216,0,0,0,.115-.416Z" transform="translate(-340.55 -413.489)"/></g><g transform="translate(9.101 4.378)"><path class="f" d="M353.694,409.182a4.294,4.294,0,0,0-.962-4.365c-.191-.2-.5.1-.305.305a3.854,3.854,0,0,1,.85,3.945c-.09.264.328.377.416.115Z" transform="translate(-352.366 -404.751)"/></g><g transform="translate(8.106 4.577)"><path class="f" d="M357.315,407.487c-1.252-2.428-4.145-2.471-6.531-2.336-.276.016-.278.447,0,.432,2.229-.126,4.981-.161,6.158,2.122.127.247.5.029.373-.218Z" transform="translate(-350.576 -405.108)"/></g><g transform="translate(1.428 6.42)"><path class="f" d="M347.467,408.691a38.774,38.774,0,0,0-8.7-.045c-.273.029-.276.461,0,.432a38.77,38.77,0,0,1,8.7.045c.276.032.274-.4,0-.432Z" transform="translate(-338.562 -408.423)"/></g><g transform="translate(5.511 11.048)"><path class="f" d="M349.867,416.753l-3.8.714c-.273.052-.157.468.115.417l3.8-.714c.273-.051.157-.468-.115-.416Z" transform="translate(-345.908 -416.749)"/></g><g transform="translate(6.501 13.461)"><path class="f" d="M350.79,421.113l-2.99,1.4c-.252.117-.033.49.218.372l2.99-1.4c.252-.117.033-.49-.218-.373Z" transform="translate(-347.688 -421.091)"/></g><g transform="translate(4.948 16.365)"><path class="f" d="M348.116,426.331a6.2,6.2,0,0,0-3.195,2.828c-.132.245.241.463.373.218a5.745,5.745,0,0,1,2.937-2.629c.255-.1.143-.52-.115-.416Z" transform="translate(-344.894 -426.315)"/></g><g transform="translate(8.104 19.526)"><path class="f" d="M352.968,432.039a7.132,7.132,0,0,0-2.37,2.669c-.127.247.246.466.372.218a6.687,6.687,0,0,1,2.215-2.514c.229-.155.013-.529-.218-.373Z" transform="translate(-350.572 -432.002)"/></g><g transform="translate(9.686 22.938)"><path class="f" d="M354.332,438.283l-.9,2.193c-.1.257.313.369.417.114l.9-2.192c.106-.257-.312-.369-.416-.115Z" transform="translate(-353.418 -438.14)"/></g><g transform="translate(14.787 20.239)"><path class="f" d="M362.594,433.493l.156,4.088c.011.277.442.279.432,0l-.156-4.088c-.01-.277-.443-.279-.432,0Z" transform="translate(-362.594 -433.284)"/></g><g transform="translate(17.048 20.131)"><path class="f" d="M367.612,433.2a8.012,8.012,0,0,0-.926,4.4c.02.276.452.278.432,0a7.578,7.578,0,0,1,.867-4.177c.13-.246-.242-.464-.373-.218Z" transform="translate(-366.663 -433.09)"/></g><g transform="translate(19.133 13.817)"><path class="f" d="M370.525,422.125a21.5,21.5,0,0,0,9.105,1.989.216.216,0,0,0,0-.432,20.987,20.987,0,0,1-8.887-1.931c-.251-.116-.47.257-.218.373Z" transform="translate(-370.413 -421.73)"/></g><g transform="translate(29.538 13.581)"><path class="f" d="M389.338,421.738a8.687,8.687,0,0,1,5.984,2.952c.185.208.489-.1.305-.305a9.121,9.121,0,0,0-6.289-3.079c-.277-.019-.276.413,0,.432Z" transform="translate(-389.131 -421.306)"/></g><g transform="translate(30.688 15.287)"><path class="f" d="M391.631,428.985a6.312,6.312,0,0,1,6.884-4.115c.275.037.272-.4,0-.432a6.731,6.731,0,0,0-7.3,4.431c-.1.261.322.374.417.115Z" transform="translate(-391.2 -424.375)"/></g><g transform="translate(29.514 17.747)"><path class="f" d="M389.52,431.4l.1-2.392c.011-.278-.421-.278-.432,0l-.1,2.392c-.011.278.421.277.432,0Z" transform="translate(-389.088 -428.801)"/></g><g transform="translate(27.84 12.448)"><path class="f" d="M386.508,424.876a13.666,13.666,0,0,1,1.155-5.277c.111-.252-.261-.472-.372-.218a14.237,14.237,0,0,0-1.215,5.495.216.216,0,0,0,.432,0Z" transform="translate(-386.076 -419.268)"/></g><g transform="translate(18.984 8.67)"><path class="g" d="M370.942,419.663a32.129,32.129,0,0,0-.378-7.036c-.044-.274-.461-.157-.416.115a31.6,31.6,0,0,1,.362,6.921c-.016.277.416.277.432,0Z" transform="translate(-370.144 -412.471)"/></g><g transform="translate(13.186 7.664)"><path class="g" d="M362.18,412.489a4.961,4.961,0,0,0-2.136-1.808c-.252-.111-.472.261-.218.373a4.562,4.562,0,0,1,1.981,1.653c.153.23.528.014.373-.218Z" transform="translate(-359.714 -410.661)"/></g><g transform="translate(6.316 8.969)"><path class="g" d="M355.048,415.229a22.823,22.823,0,0,0-7.486-2.217c-.276-.032-.273.4,0,.432a22.169,22.169,0,0,1,7.269,2.158c.249.122.467-.25.218-.373Z" transform="translate(-347.355 -413.01)"/></g><g transform="translate(10.503 15.816)"><path class="g" d="M357.75,425.532a8.2,8.2,0,0,0-2.655-.163c-.274.028-.277.46,0,.432a7.837,7.837,0,0,1,2.54.147c.271.061.386-.355.115-.416Z" transform="translate(-354.888 -425.326)"/></g><g transform="translate(13.88 17.349)"><path class="g" d="M365.311,428.091a8.075,8.075,0,0,0-4.288,2.438c-.188.2.116.51.305.306a7.687,7.687,0,0,1,4.1-2.327c.272-.058.157-.474-.115-.416Z" transform="translate(-360.963 -428.085)"/></g><g transform="translate(17.668 20.408)"><path class="g" d="M369.173,433.629l-1.3.986c-.218.166,0,.541.218.373l1.3-.986c.219-.166,0-.541-.218-.373Z" transform="translate(-367.778 -433.587)"/></g><g transform="translate(22.453 22.126)"><path class="g" d="M376.549,436.741l-.1.1a.216.216,0,0,0,.306.306l.1-.1a.216.216,0,0,0-.305-.306Z" transform="translate(-376.386 -436.678)"/></g><g transform="translate(25.403 14.539)"><path class="g" d="M382.434,430.279a30.467,30.467,0,0,1-.3-3.32c-.026-.83-.37-3.261.772-3.508.271-.058.157-.475-.115-.416-1.092.236-1.074,1.415-1.1,2.328a30.824,30.824,0,0,0,.317,5.03c.039.274.455.157.417-.115Z" transform="translate(-381.692 -423.03)"/></g><g transform="translate(21.464 10.862)"><path class="g" d="M374.962,419.471l2.113-2.676c.171-.216-.133-.524-.305-.306l-2.113,2.676c-.171.216.133.524.305.306Z" transform="translate(-374.606 -416.415)"/></g><g transform="translate(23.757 4.68)"><path class="g" d="M379.152,406.767a1.525,1.525,0,0,1,.79-1.073c.245-.131.027-.5-.218-.373a1.942,1.942,0,0,0-.989,1.331c-.053.271.362.387.417.115Z" transform="translate(-378.731 -405.293)"/></g><g transform="translate(23.305 17.295)"><path class="g" d="M377.989,428.347l2.418,2.063c.21.18.518-.125.305-.306l-2.418-2.063c-.21-.179-.517.125-.305.306Z" transform="translate(-377.918 -427.987)"/></g><g transform="translate(20.17 20.825)"><path class="g" d="M372.371,434.753a8.556,8.556,0,0,1,2.524,3c.126.248.5.029.372-.218a9.016,9.016,0,0,0-2.678-3.158c-.223-.166-.439.208-.219.373Z" transform="translate(-372.279 -434.338)"/></g><g transform="translate(23.543 25.461)"><path class="g" d="M378.5,443.1a13.655,13.655,0,0,0,4.807.142c.274-.039.158-.456-.115-.416a13.023,13.023,0,0,1-4.578-.142c-.271-.057-.387.36-.115.416Z" transform="translate(-378.347 -442.678)"/></g><g transform="translate(28.95 20.193)"><path class="g" d="M388.225,433.832a6.58,6.58,0,0,0,4.42-.2c.254-.1.143-.52-.115-.416a6.2,6.2,0,0,1-4.191.2.216.216,0,0,0-.115.416Z" transform="translate(-388.073 -433.2)"/></g><g transform="translate(30.73 15.365)"><path class="g" d="M391.54,427.895a10.22,10.22,0,0,0,4.515-3c.182-.208-.122-.515-.305-.305a9.8,9.8,0,0,1-4.325,2.893c-.262.088-.15.505.115.416Z" transform="translate(-391.276 -424.515)"/></g><g transform="translate(29.752 11.28)"><path class="g" d="M389.944,420.819l1.1-3.388c.086-.265-.331-.379-.416-.114l-1.1,3.387c-.086.265.331.379.416.115Z" transform="translate(-389.516 -417.167)"/></g><g transform="translate(28.045 3.684)"><path class="g" d="M386.992,411.033a10.42,10.42,0,0,1,1.526-7.213c.15-.235-.224-.452-.373-.218a10.872,10.872,0,0,0-1.57,7.545c.042.274.458.158.417-.114Z" transform="translate(-386.445 -403.501)"/></g><g transform="translate(26.441 3.095)"><path class="g" d="M383.991,404.944v-2.292a.216.216,0,0,0-.432,0v2.292a.216.216,0,0,0,.432,0Z" transform="translate(-383.559 -402.443)"/></g><g transform="translate(20.473 5.375)"><path class="g" d="M376.781,409.092a9.786,9.786,0,0,0-3.7-2.533c-.259-.1-.371.316-.114.417a9.324,9.324,0,0,1,3.508,2.421c.188.206.492-.1.305-.305Z" transform="translate(-372.823 -406.544)"/></g><g transform="translate(13.495 4.558)"><path class="g" d="M362.477,407.608a2.657,2.657,0,0,0-1.94-2.525.216.216,0,0,0-.115.416,2.218,2.218,0,0,1,1.623,2.108.216.216,0,0,0,.432,0Z" transform="translate(-360.27 -405.074)"/></g><g transform="translate(12.394 18.804)"><path class="g" d="M363.178,430.7l-4.684.6c-.272.035-.276.467,0,.432l4.684-.6c.272-.035.275-.467,0-.432Z" transform="translate(-358.289 -430.702)"/></g><g transform="translate(12.59 20.724)"><path class="g" d="M359.5,434.226a3.539,3.539,0,0,0-.853,1.789c-.043.272.373.389.417.115a3.126,3.126,0,0,1,.742-1.6c.183-.208-.121-.515-.305-.305Z" transform="translate(-358.642 -434.156)"/></g><g transform="translate(11.493 23.232)"><path class="g" d="M358.765,438.688a6.037,6.037,0,0,0-2.037,1.429c-.19.2.114.509.305.305a5.745,5.745,0,0,1,1.95-1.361c.255-.109.035-.481-.218-.373Z" transform="translate(-356.668 -438.669)"/></g><g transform="translate(18.127 15.44)"><path class="g" d="M372.395,426.63a18.051,18.051,0,0,0-3.461-1.96c-.253-.108-.473.263-.218.373a18.01,18.01,0,0,1,3.461,1.96c.226.163.442-.212.218-.373Z" transform="translate(-368.603 -424.651)"/></g><g transform="translate(5.271 14.94)"><path class="g" d="M349.6,424.345a6.383,6.383,0,0,0-3.968-.464c-.272.054-.157.47.115.416a5.886,5.886,0,0,1,3.635.42c.251.115.471-.257.218-.372Z" transform="translate(-345.475 -423.752)"/></g><g transform="translate(8.606 10.955)"><path class="g" d="M353.547,418.632l-1.71-1.98c-.182-.211-.486.1-.306.306l1.711,1.979c.182.211.487-.1.306-.305Z" transform="translate(-351.475 -416.582)"/></g><g transform="translate(16.103 6.363)"><path class="g" d="M366.623,411.137l-1.265-2.705c-.118-.252-.49-.033-.373.218l1.265,2.705c.118.252.49.033.373-.218Z" transform="translate(-364.962 -408.32)"/></g><g transform="translate(18.965 4.69)"><path class="g" d="M370.542,408.61v-3.09a.216.216,0,0,0-.432,0v3.09a.216.216,0,0,0,.432,0Z" transform="translate(-370.11 -405.312)"/></g><g transform="translate(21.868 14.244)"><path class="h" d="M378.483,424.916a3.964,3.964,0,0,1-2.756-2.3c-.111-.254-.483-.034-.373.218a4.363,4.363,0,0,0,3.014,2.5c.27.064.386-.352.115-.416Z" transform="translate(-375.334 -422.499)"/></g><g transform="translate(13.56 12.27)"><path class="h" d="M363.879,422.207a4.537,4.537,0,0,1-3.067-3.107.216.216,0,0,0-.416.115,4.98,4.98,0,0,0,3.369,3.409.216.216,0,0,0,.114-.416Z" transform="translate(-360.387 -418.948)"/></g><g transform="translate(7.682 7.681)"><path class="h" d="M350.333,417.18l-.088-6.28a.216.216,0,0,0-.432,0l.088,6.28a.216.216,0,0,0,.432,0Z" transform="translate(-349.813 -410.692)"/></g><g transform="translate(6.588 9.47)"><path class="h" d="M348.553,418.261a10.912,10.912,0,0,1-.162-4.078c.041-.272-.376-.389-.416-.115a11.5,11.5,0,0,0,.162,4.307c.062.271.479.156.416-.115Z" transform="translate(-347.845 -413.911)"/></g><g transform="translate(12.777 5.986)"><path class="h" d="M359.411,410.7a7.316,7.316,0,0,0,.506-2.848.216.216,0,0,0-.432,0,7.017,7.017,0,0,1-.491,2.734c-.1.258.316.371.416.114Z" transform="translate(-358.978 -407.643)"/></g><g transform="translate(9.201 5.976)"><path class="h" d="M355.635,409.628a4.21,4.21,0,0,0-2.819-2c-.272-.054-.388.362-.115.416a3.787,3.787,0,0,1,2.561,1.8.216.216,0,0,0,.373-.218Z" transform="translate(-352.545 -407.624)"/></g><g transform="translate(10.003 3.48)"><path class="h" d="M354.6,403.37l-.3-.2c-.232-.155-.449.22-.218.373l.3.2c.232.155.448-.22.218-.373Z" transform="translate(-353.988 -403.134)"/></g><g transform="translate(13.064 0.503)"><path class="h" d="M359.927,401.178l.084-3.19a.216.216,0,0,0-.432,0l-.084,3.19a.216.216,0,0,0,.432,0Z" transform="translate(-359.495 -397.779)"/></g><g transform="translate(14.994 0.07)"><path class="h" d="M363.363,400.647a6.852,6.852,0,0,1,3.286-3.251c.251-.118.032-.491-.218-.373a7.223,7.223,0,0,0-3.441,3.406c-.121.249.251.469.373.218Z" transform="translate(-362.966 -397)"/></g><g transform="translate(19.628 3.515)"><path class="h" d="M371.731,406.125a3.677,3.677,0,0,1,3.311-2.495c.277-.013.278-.445,0-.432a4.122,4.122,0,0,0-3.728,2.812c-.089.264.328.377.416.115Z" transform="translate(-371.303 -403.198)"/></g><g transform="translate(23.562 3.196)"><path class="h" d="M378.745,409.57a9.53,9.53,0,0,0,2.533-6.738.216.216,0,0,0-.432,0,9.082,9.082,0,0,1-2.407,6.433c-.187.2.117.511.306.305Z" transform="translate(-378.38 -402.624)"/></g><g transform="translate(27.637 4.18)"><path class="h" d="M386.127,407.7a7.075,7.075,0,0,0,1.361-3.039c.051-.272-.365-.389-.416-.115a6.815,6.815,0,0,1-1.317,2.936c-.169.22.205.435.373.218Z" transform="translate(-385.711 -404.393)"/></g><g transform="translate(30.542 8.372)"><path class="h" d="M391.246,412.933a2.659,2.659,0,0,1,1.587-.566.216.216,0,0,0,0-.432,3.044,3.044,0,0,0-1.8.625c-.218.166,0,.541.218.373Z" transform="translate(-390.938 -411.935)"/></g><g transform="translate(27.354 13.188)"><path class="h" d="M385.47,421.226a5.4,5.4,0,0,1,3.849.365c.249.121.468-.251.218-.373a5.873,5.873,0,0,0-4.182-.408.216.216,0,0,0,.115.416Z" transform="translate(-385.202 -420.599)"/></g><g transform="translate(28.84 17.168)"><path class="h" d="M388.083,428.192a2.861,2.861,0,0,1,1.984,1.073c.176.216.48-.091.306-.305a3.285,3.285,0,0,0-2.29-1.2c-.277-.025-.275.407,0,.432Z" transform="translate(-387.876 -427.759)"/></g><g transform="translate(26.943 19.942)"><path class="h" d="M384.613,433.177l3.181,1.023c.265.086.379-.331.115-.416l-3.181-1.023c-.265-.086-.379.331-.115.416Z" transform="translate(-384.463 -432.749)"/></g><g transform="translate(22.395 21.063)"><path class="h" d="M379.386,434.86a19.478,19.478,0,0,0-3.1,6.4.216.216,0,0,0,.417.114,19.157,19.157,0,0,1,3.052-6.292c.165-.224-.21-.44-.373-.218Z" transform="translate(-376.281 -434.767)"/></g><g transform="translate(17.171 27.209)"><path class="h" d="M367.046,445.886l-.1.1a.216.216,0,0,0,.305.306l.1-.1a.216.216,0,0,0-.305-.305Z" transform="translate(-366.883 -445.823)"/></g><g transform="translate(12.487 25.715)"><path class="h" d="M361.9,443.141a13.232,13.232,0,0,0-3.341,1.318c-.243.136-.025.509.218.373a12.788,12.788,0,0,1,3.237-1.274c.27-.066.156-.483-.115-.417Z" transform="translate(-358.457 -443.134)"/></g><g transform="translate(11.397 24.102)"><path class="h" d="M358.2,440.234l-1.5.1c-.276.017-.278.45,0,.432l1.5-.1c.276-.017.278-.45,0-.432Z" transform="translate(-356.495 -440.234)"/></g><g transform="translate(15.58 22.427)"><path class="h" d="M364.025,437.491a29.276,29.276,0,0,1,.391,4.727.216.216,0,0,0,.432,0,30.008,30.008,0,0,0-.406-4.842c-.045-.273-.461-.157-.416.115Z" transform="translate(-364.022 -437.22)"/></g><g transform="translate(17.047 24.612)"><path class="h" d="M367.093,443.916a5.16,5.16,0,0,1,1.814-2.352c.224-.161.008-.536-.218-.373a5.683,5.683,0,0,0-2.013,2.61c-.1.26.318.372.417.115Z" transform="translate(-366.661 -441.151)"/></g><g transform="translate(17.079 20.423)"><path class="h" d="M367.677,434.385l-.6-.7c-.181-.212-.486.1-.306.305l.6.7c.181.212.486-.1.306-.305Z" transform="translate(-366.718 -433.616)"/></g><g transform="translate(21.15 19.389)"><path class="h" d="M378.092,434.671a6.033,6.033,0,0,0-3.782-2.908.216.216,0,0,0-.115.417,5.6,5.6,0,0,1,3.524,2.709.216.216,0,0,0,.373-.218Z" transform="translate(-374.041 -431.755)"/></g><g transform="translate(15.397 17.427)"><path class="h" d="M366.779,428.225a3.849,3.849,0,0,0-3.033,1.382c-.178.212.126.519.305.305a3.435,3.435,0,0,1,2.728-1.255.216.216,0,0,0,0-.432Z" transform="translate(-363.692 -428.224)"/></g><g transform="translate(6.911 19.435)"><path class="h" d="M351.426,431.837h-2.791a.216.216,0,0,0,0,.432h2.791a.216.216,0,0,0,0-.432Z" transform="translate(-348.427 -431.837)"/></g><g transform="translate(3.028 15.146)"><path class="h" d="M344.775,424.8a5.48,5.48,0,0,0-3.127-.655c-.275.024-.277.456,0,.432a5.064,5.064,0,0,1,2.909.6c.244.132.462-.24.218-.373Z" transform="translate(-341.44 -424.121)"/></g><g transform="translate(4.806 17.942)"><path class="h" d="M346.1,429.154a2.625,2.625,0,0,0-1.39.658c-.208.186.1.49.306.306a2.225,2.225,0,0,1,1.2-.546c.275-.039.158-.455-.115-.417Z" transform="translate(-344.639 -429.151)"/></g><g transform="translate(3.266 14.169)"><path class="h" d="M344.225,426.533a11.326,11.326,0,0,1-1.933-4.015.216.216,0,0,0-.416.114,11.625,11.625,0,0,0,1.976,4.118c.165.22.54,0,.373-.218Z" transform="translate(-341.868 -422.365)"/></g><g transform="translate(2.815 8.872)"><path class="h" d="M342.082,414.086a2.216,2.216,0,0,0-.654-1.191c-.2-.192-.507.113-.305.305a1.824,1.824,0,0,1,.542,1c.052.273.469.157.416-.115Z" transform="translate(-341.057 -412.834)"/></g><g transform="translate(4.284 6.587)"><path class="h" d="M344.12,412.188a13.735,13.735,0,0,0,.125-3.256c-.022-.275-.455-.278-.432,0a13.239,13.239,0,0,1-.11,3.142c-.042.272.374.389.417.115Z" transform="translate(-343.701 -408.724)"/></g><g transform="translate(7.112 2.892)"><path class="h" d="M349.5,405.479a9.5,9.5,0,0,0-.292-3.249.216.216,0,0,0-.416.115,9.157,9.157,0,0,1,.277,3.135c-.023.277.409.275.432,0Z" transform="translate(-348.787 -402.076)"/></g><g transform="translate(13.484 1.9)"><path class="h" d="M360.683,402.2l.1-1.694c.016-.278-.416-.277-.432,0l-.1,1.694c-.017.277.416.277.432,0Z" transform="translate(-360.25 -400.293)"/></g><g transform="translate(17.075 1.283)"><path class="h" d="M367.11,400.914a3.62,3.62,0,0,1,1.118-1.318c.223-.161.008-.535-.218-.373a4.074,4.074,0,0,0-1.273,1.473c-.126.247.247.466.373.218Z" transform="translate(-366.711 -399.183)"/></g><g transform="translate(28.145 17.737)"><path class="h" d="M386.773,429.213a3.544,3.544,0,0,1,1.5,1.034c.183.211.487-.1.306-.305a3.969,3.969,0,0,0-1.7-1.146c-.262-.093-.375.325-.115.416Z" transform="translate(-386.625 -428.783)"/></g><g transform="translate(28.545 23.911)"><path class="h" d="M387.44,440.3l1,.7c.228.16.444-.215.218-.373l-1-.7c-.228-.16-.444.215-.218.373Z" transform="translate(-387.345 -439.889)"/></g><g transform="translate(29.102 24.824)"><path class="h" d="M388.5,441.687a5.638,5.638,0,0,0,.152,3.114c.088.262.506.15.416-.115a5.208,5.208,0,0,1-.152-2.885c.062-.271-.355-.386-.416-.114Z" transform="translate(-388.348 -441.532)"/></g><g transform="translate(22.353 24.419)"><path class="h" d="M376.264,441.176a5.189,5.189,0,0,0,3.249,1.649c.275.033.273-.4,0-.432a4.724,4.724,0,0,1-2.943-1.522c-.189-.205-.494.1-.306.305Z" transform="translate(-376.205 -440.803)"/></g><g transform="translate(26.009 24.312)"><path class="h" d="M382.977,440.766a9.017,9.017,0,0,0,.021,3.819c.06.271.476.156.416-.115a8.457,8.457,0,0,1-.021-3.589c.056-.271-.36-.387-.417-.115Z" transform="translate(-382.783 -440.611)"/></g></g></svg>