<svg xmlns="http://www.w3.org/2000/svg" width="218.641" height="122.601" viewBox="0 0 218.641 122.601"><defs><style>.a{fill:#745f4f;}.b{fill:#ebae66;}.c{fill:#9e7349;}.d{fill:#b58a62;}.e{fill:#ed9e52;}.f{fill:#edba89;}.g{fill:#e28036;}.h{fill:#7a8f4b;}</style></defs><g transform="translate(0.002 7.947)"><path class="a" d="M113.94,95.373c4.488-.208,18.471,2.713,28.907.835s10.436-1.065,15.445-.846-.835,2.147,6.261.557,11.9-1.714,14.4-.921,1.878,1.618,5.844.683a40.452,40.452,0,0,1,10.227-1.159,75.322,75.322,0,0,0,12.105-1.654c1.67-.418,3.966,2.3,6.053,1.986s.835-.353,5.218-.022,3.966-1.166,9.392,0,6.053,1.792,8.558.958,1.878-.835,3.548-2.087,4.174-1.879,5.009-2.922,6.261-3.131,5.635-7.1,3.548-3.548,3.548-3.548V93.494s3.966,11.9,0,13.984-6.47,1.67-9.184,2.922-3.339,2.087-5.426,2.087-6.47-1.252-9.392,0-5.962,2.3-5.962,2.3-8.439.209-11.57,0-7.1-.835-11.9-1.461a61.958,61.958,0,0,0-10.853-.626c-5.009,0-8.14.835-11.688,0s-5.844-1.67-9.392-.835a26.05,26.05,0,0,1-7.1.835c-1.878,0-9.81-2.714-9.6.208s-.209,4.383,1.879,4.8,2.3,1.044,7.513,1.461,4.383-1.461,10.436,0,8.14,1.67,11.479,1.67h6.888a28.652,28.652,0,0,1-5.328,5.009c-2.394,1.461-2.6.626-4.064,3.339s-1.67,1.792-3.757,3.818a31.356,31.356,0,0,0-5.426,7.035c-1.879,3.131-2.5,3.966-3.757,6.053s-4.8,4.174-4.8,1.879-1.878-3.757-6.052-3.757-6.888-1.461-8.558,0-2.3,4.509-3.131,4.759-3.548-.25-4.592,0-3.966-.314-5.426.072a18.108,18.108,0,0,1-7.514,0c-2.3-.657-3.966-2.327-6.679-.657s-4.07,1.066-5.635,1.055l-1.565-.011Z" transform="translate(-113.94 -80.013)"/><path class="a" d="M435.2,94.8c-3.522,1.67-5.437,1.326-9.194.909s-5.218-.418-11.062-.626-6.261-1.253-10.227-1.044S392.4,94.4,389.9,94.007s-2.922-1.016-7.3-1.225-3.757.835-7.1-1.67-6.992-7.722-7.409-9.81-2.818-1.565-2.818,0-.73,6.992,0,8.766a8.558,8.558,0,0,1,.835,4.174v3.339c0,1.566,1.044,3.444,1.252,4.488a7.9,7.9,0,0,0,.731,2.5c.418.73,2.065,3.861,2.65,4.174s-.667,2.191,1.42,2.922,2.817,1.992,4.7,3.083-.835,1.822,3.026,1.926,3.443.627,6.052,1.253,4.174.418,6.575.626,1.461-.208,3.966,0,3.652-1.967,5.218.06,3.652,1.087,3.235,3.7-1.055,3.34-3.919,3.34-6.934-.313-11.526,0-3.548.73-5.844,0-3.652-1.879-6.575-2.609-7.618-1.774-8.766-3.966-.939-3.539-2.713-4.326-4.592-2.979-5.74-1.517,1.751,3.026-1.368,3.652-5.624-.522-7.4.626-3.548,2.609,0,2.922,3.339,2.087,4.278,3.131-.023,0,3.119,1.774,3.351,2.5,5.438,3.548,2.4.835,5.426,1.565,2.5,2.087,6.992,3.548.626-.835,6.887,1.461,9.914,3.443,11.479,4.174a6.588,6.588,0,0,0,3.862.939c2.4.1,3.339-.313,5.009,1.253s5.218,1.148,7.514,1.879,1.148,1.356,3.026,1.461,3.548-1.148,4.592,0a8.409,8.409,0,0,0,5.009,2.4c1.774.1,3.235-.835,4.8.626s5.035,1.192,5.035,1.275a11.1,11.1,0,0,0,1.654,0Z" transform="translate(-216.562 -79.926)"/><path class="a" d="M332.579,188.068a27.853,27.853,0,0,1-7.176-1.67c-4.313-1.531-5.565-3.061-9.74-3.2s-8.766.557-11.271-.7a28.355,28.355,0,0,0-7.653-2.922c-4.313-1.113-6.4-.974-9.6-2.365s-3.2-3.2-8.209-3.478-5.288-.278-6.957-1.949a21.685,21.685,0,0,0-8.07-4.87c-3.618-1.253-4.313-1.409-8.488-2.931s-8.766-1.522-9.6-1.661-1.113.278-2.226-2.783,1.392-3.9-2.643-5.287-2.088-1.67-7.514-1.392-6.957.641-8.07-.1-5.009-.6-7.792-.6-3.757-2.386-3.478-.011,3.2,1.819,4.592,3.628,1.113,2.5,2.226,3.618.7,1.67,4.453,3.2,4.035,1.252,5.983,2.782,1.67,2.415,4.453,4.2,5.009,1.228,6.54,3.037-1.036,3.618,4.074,4.87,7.058,3.757,8.866,5.148,1.67.139,4.731,2.365,1.252,2.226,6.4,2.226,6.54-.835,7.792.835,2.783,2.087,5.148,2.5-.418,0,4.035,0,5.7.556,9.044-.835a22.24,22.24,0,0,1,9.6-1.391c1.53.278-1.391-1.531,4.313.835s6.679,2.365,8.627,3.618a8.631,8.631,0,0,1,4.174,6.4c.7,3.618,1.809,1.53,1.809,6.54s-1.252,4.87-3.339,8.627-3.9,4.87-6.818,5.287-5.983.278-10.992.278-1.809-.418-9.044-.418-5.7-3.061-15.027-3.061-11.966-3.757-22.541-.974-12.662,3.061-16.975,3.061-2.5.7-8.348-.278-10.853-1.67-16.7-.557-3.061,1.67-8.488.557-.974-1.948-11.548-1.948-8.071-1.253-16.28-.139-14.331.418-18.645.418-9.879-.974-14.054-.418-4.73-1.253-11.827.557-13.114,2.922-14.749,1.391-1.635,4.139-1.635,4.139H332.579Z" transform="translate(-113.94 -110.997)"/><path class="a" d="M113.94,217.464c0-.1,1.774.1,2.714,0s2.4.878,3.861-.03,1.983-1.64,3.131-1.013,1.67.229,2.713.584,0,.167,2.714,0,1.878.584,4.383,0,2.5-.844,5.322-.818,2.609-.655,5.323,0,.1,1.536,4.487.677,6.366-.646,7.1-.961,1.461-.58.522.961-2.609,4.568-4.592,5.611a13.412,13.412,0,0,0-4.383,3.131c-1.461,1.565-.522,1.044-1.983,3.026s-3.026,2.087-3.966,2.922a13.621,13.621,0,0,0-2.4,2.087c-1.044,1.252-2.922,2.817-4.487,2.817a23.66,23.66,0,0,1-3.862,0c-1.982-.208-3.235.1-4.7,0a9.373,9.373,0,0,0-3.548.522c-.522.209-1.774,1.774-3.339.731s-3.548-1.565-4.278-1.044-.731-1.148-.731-1.148Z" transform="translate(-113.94 -139.176)"/><path class="a" d="M174.227,236.948c.6-1-.208-1.252,1.879-2.5s3.131-1.774,4.278-3.548,1.411-2.389,2.532-3.96,1.434-.215,4.46-3.971,1.253-4.279,4.07-5.114,2.087,0,5.218,0,1.044,1.032,5.74-.371,5.311-2.134,8.76-1.3a52.465,52.465,0,0,0,7.728,1.3c2.4.267,3.444-.162,6.47,0s6.679-.058,8.557,0,10.54.058,13.149.058h6.47c3.966,0,3.444-1.357,5.949.208s3.652,1.148,7.3,2.087,2.713,1.148,5.218,1.148a49.153,49.153,0,0,0,6.679-.1c3.339-.313,2.3.626,4.383.626s4.905-.208,5.844.731,2.8,1.774,5.468,2.191,5.177-.458,5.7,1.963.939,3.255-1.461,4.3-3.362,1.461-4.237,3.339-3.276,2.4-5.572,2.4-1.774-1.357-4.592.522-4.174,2.485-6.679,1.191-2.817-6.2-3.443-7.974-.835-3.275-3.862-2.838-2.8-1.978-7.08-2.5-3.877.432-7.112.745-4.581-1.345-6.517,1.362-2.562,4.273-4.544,7.2-2.609,6.053-5.74,4.7-9.184-2.4-11.688-1.983a30.837,30.837,0,0,1-5.427.626c-2.609.1-6.261.73-10.122-.313a35.852,35.852,0,0,0-10.436-1.044c-3.757,0-3.548.731-6.783,1.044s-4.488-.939-5.844-.939-2.5,1.044-4.487,1.148S172.965,239.069,174.227,236.948Z" transform="translate(-140.206 -139.25)"/><path class="a" d="M221.918,181.052a2.14,2.14,0,0,0,2.713,1.356c1.253-.313,3.652-.686,5.531-.917s.418.172,2.922.283a54.691,54.691,0,0,0,5.948,0c1.044-.1.418-.216,3.652,0s2.4-1.349,4.8-.723,4.279.254,4.905.649,3.652.023,6.47,0,3.026-1.364,6.366-.8,1.889-.949,5.066-.14,3.7,1.72,6,1.734,4.9-.536,6.366,0,4.07.224,5.323.641,4.174.313,2.5-.731a34.637,34.637,0,0,0-6.366-3.548A15.38,15.38,0,0,1,278.48,175a28.018,28.018,0,0,0-4.383-3.235c-1.983-1.357-5.844-2.609-6.888-3.966s-.417-1.756-3.131-2.861-2.5-.9-3.965-2.461-3.652-1.879-4.279-2.817-2.3-1.67-3.131-3.236-1.461-3.026-3.548-3.026-4.488-.626-5.427,1.044a37.69,37.69,0,0,1-4.592,7.306c-2.3,2.609-4.279,3.661-5.948,6.579s-1.253,2.083-4.488,5.318-6.261,4.591-6.783,5.74S221.918,181.052,221.918,181.052Z" transform="translate(-160.974 -111.947)"/></g><path class="a" d="M332.579,112.808v93.33H113.94v-95.9l12.767,7.583,119.7-3.757,5.666-5.984a9.512,9.512,0,0,0,7.932,3.061,9.152,9.152,0,0,0,7.235-4.731l20.176,7.375h24.211l13.636-.835Z" transform="translate(-113.938 -83.538)"/><g transform="translate(0.002 11.335)"><path class="b" d="M113.94,101.385c4.488-.208,18.471,2.713,28.907.835s10.436-1.066,15.445-.846-.835,2.147,6.261.557,11.9-1.714,14.4-.921,1.878,1.617,5.844.683a40.48,40.48,0,0,1,10.227-1.16,75.266,75.266,0,0,0,12.105-1.653c1.67-.418,3.966,2.3,6.053,1.986s.835-.353,5.218-.022,3.966-1.166,9.392,0,6.053,1.792,8.558.958,1.878-.835,3.548-2.087,4.174-1.879,5.009-2.922,6.261-3.131,5.635-7.1,3.548-3.548,3.548-3.548V99.507s3.966,11.9,0,13.984-6.47,1.67-9.184,2.922-3.339,2.087-5.426,2.087-6.47-1.252-9.392,0-5.962,2.3-5.962,2.3-8.439.209-11.57,0-7.1-.835-11.9-1.461a61.9,61.9,0,0,0-10.853-.627c-5.009,0-8.14.835-11.688,0s-5.844-1.67-9.392-.835a26.067,26.067,0,0,1-7.1.835c-1.878,0-9.81-2.713-9.6.209s-.209,4.383,1.879,4.8,2.3,1.044,7.513,1.461,4.383-1.461,10.436,0,8.14,1.67,11.479,1.67h6.888a28.652,28.652,0,0,1-5.328,5.009c-2.394,1.461-2.6.626-4.064,3.339s-1.67,1.791-3.757,3.818a31.361,31.361,0,0,0-5.426,7.036c-1.879,3.131-2.5,3.966-3.757,6.053s-4.8,4.174-4.8,1.878-1.878-3.757-6.052-3.757-6.888-1.461-8.558,0-2.3,4.509-3.131,4.759-3.548-.25-4.592,0-3.966-.314-5.426.072a18.107,18.107,0,0,1-7.514,0c-2.3-.657-3.966-2.327-6.679-.657s-4.07,1.066-5.635,1.055l-1.565-.011Z" transform="translate(-113.94 -86.025)"/><path class="b" d="M435.2,100.807c-3.522,1.67-5.437,1.327-9.194.909s-5.218-.418-11.062-.626-6.261-1.253-10.227-1.044-12.314.362-14.819-.028-2.922-1.017-7.3-1.225-3.757.835-7.1-1.67-6.992-7.722-7.409-9.81-2.818-1.565-2.818,0-.73,6.992,0,8.766a8.557,8.557,0,0,1,.835,4.174v3.339c0,1.565,1.044,3.444,1.252,4.488a7.9,7.9,0,0,0,.731,2.5c.418.73,2.065,3.861,2.65,4.174s-.667,2.191,1.42,2.922,2.817,1.992,4.7,3.083-.835,1.822,3.026,1.926,3.443.626,6.052,1.253,4.174.417,6.575.626,1.461-.209,3.966,0,3.652-1.967,5.218.06,3.652,1.088,3.235,3.7-1.055,3.34-3.919,3.34-6.934-.313-11.526,0-3.548.73-5.844,0-3.652-1.879-6.575-2.609-7.618-1.774-8.766-3.966-.939-3.539-2.713-4.326-4.592-2.979-5.74-1.517,1.751,3.026-1.368,3.652-5.624-.522-7.4.626-3.548,2.609,0,2.922,3.339,2.088,4.278,3.131-.023,0,3.119,1.774,3.351,2.5,5.438,3.548,2.4.835,5.426,1.565,2.5,2.087,6.992,3.548.626-.835,6.887,1.461,9.914,3.444,11.479,4.175a6.588,6.588,0,0,0,3.862.939c2.4.1,3.339-.313,5.009,1.253s5.218,1.148,7.514,1.878,1.148,1.357,3.026,1.461,3.548-1.148,4.592,0a8.412,8.412,0,0,0,5.009,2.4c1.774.1,3.235-.835,4.8.626s5.035,1.192,5.035,1.275a11.1,11.1,0,0,0,1.654,0Z" transform="translate(-216.562 -85.938)"/><path class="b" d="M332.579,194.079a27.854,27.854,0,0,1-7.176-1.67c-4.313-1.531-5.565-3.061-9.74-3.2s-8.766.557-11.271-.7a28.356,28.356,0,0,0-7.653-2.922c-4.313-1.113-6.4-.974-9.6-2.365s-3.2-3.2-8.209-3.479-5.288-.278-6.957-1.948a21.685,21.685,0,0,0-8.07-4.87c-3.618-1.253-4.313-1.409-8.488-2.931s-8.766-1.521-9.6-1.661-1.113.278-2.226-2.783,1.392-3.9-2.643-5.288-2.088-1.67-7.514-1.391-6.957.641-8.07-.1-5.009-.6-7.792-.6-3.757-2.386-3.478-.01,3.2,1.819,4.592,3.628,1.113,2.5,2.226,3.618.7,1.67,4.453,3.2,4.035,1.252,5.983,2.782,1.67,2.415,4.453,4.2,5.009,1.228,6.54,3.037-1.036,3.618,4.074,4.87,7.058,3.757,8.866,5.148,1.67.139,4.731,2.366,1.252,2.226,6.4,2.226,6.54-.835,7.792.835,2.783,2.087,5.148,2.5-.418,0,4.035,0,5.7.556,9.044-.835a22.24,22.24,0,0,1,9.6-1.391c1.53.278-1.391-1.531,4.313.835s6.679,2.365,8.627,3.618a8.631,8.631,0,0,1,4.174,6.4c.7,3.618,1.809,1.53,1.809,6.54s-1.252,4.87-3.339,8.626-3.9,4.87-6.818,5.288-5.983.278-10.992.278-1.809-.418-9.044-.418-5.7-3.061-15.027-3.061-11.966-3.757-22.541-.974-12.662,3.061-16.975,3.061-2.5.7-8.348-.278-10.853-1.67-16.7-.557-3.061,1.67-8.488.557-.974-1.948-11.548-1.948-8.071-1.253-16.28-.139-14.331.417-18.645.417-9.879-.974-14.054-.417-4.73-1.253-11.827.556-13.114,2.922-14.749,1.392-1.635,4.139-1.635,4.139H332.579Z" transform="translate(-113.94 -117.009)"/><path class="b" d="M113.94,223.476c0-.1,1.774.1,2.714,0s2.4.879,3.861-.03,1.983-1.64,3.131-1.014,1.67.229,2.713.584,0,.167,2.714,0,1.878.584,4.383,0,2.5-.844,5.322-.818,2.609-.655,5.323,0,.1,1.535,4.487.677,6.366-.646,7.1-.961,1.461-.58.522.961-2.609,4.568-4.592,5.611a13.411,13.411,0,0,0-4.383,3.131c-1.461,1.565-.522,1.044-1.983,3.026s-3.026,2.087-3.966,2.922a13.621,13.621,0,0,0-2.4,2.087c-1.044,1.252-2.922,2.817-4.487,2.817a23.724,23.724,0,0,1-3.862,0c-1.982-.208-3.235.1-4.7,0a9.373,9.373,0,0,0-3.548.522c-.522.209-1.774,1.774-3.339.73s-3.548-1.565-4.278-1.044-.731-1.148-.731-1.148Z" transform="translate(-113.94 -145.188)"/><path class="b" d="M174.227,242.96c.6-1-.208-1.253,1.879-2.5s3.131-1.774,4.278-3.548,1.411-2.389,2.532-3.96,1.434-.215,4.46-3.971,1.253-4.279,4.07-5.114,2.087,0,5.218,0,1.044,1.032,5.74-.371,5.311-2.134,8.76-1.3a52.541,52.541,0,0,0,7.728,1.3c2.4.267,3.444-.163,6.47,0s6.679-.058,8.557,0,10.54.057,13.149.057h6.47c3.966,0,3.444-1.356,5.949.209s3.652,1.148,7.3,2.087,2.713,1.148,5.218,1.148a49.246,49.246,0,0,0,6.679-.1c3.339-.313,2.3.626,4.383.626s4.905-.208,5.844.73,2.8,1.774,5.468,2.192,5.177-.458,5.7,1.963.939,3.255-1.461,4.3-3.362,1.461-4.237,3.339-3.276,2.4-5.572,2.4-1.774-1.357-4.592.522-4.174,2.485-6.679,1.19-2.817-6.2-3.443-7.973-.835-3.275-3.862-2.838-2.8-1.978-7.08-2.5-3.877.432-7.112.745-4.581-1.346-6.517,1.363-2.562,4.273-4.544,7.195-2.609,6.054-5.74,4.7-9.184-2.4-11.688-1.983a30.885,30.885,0,0,1-5.427.626c-2.609.1-6.261.73-10.122-.313a35.852,35.852,0,0,0-10.436-1.044c-3.757,0-3.548.731-6.783,1.044s-4.488-.939-5.844-.939-2.5,1.044-4.487,1.148S172.965,245.081,174.227,242.96Z" transform="translate(-140.206 -145.262)"/><path class="b" d="M221.918,187.064a2.14,2.14,0,0,0,2.713,1.356c1.253-.313,3.652-.686,5.531-.917s.418.171,2.922.283a54.7,54.7,0,0,0,5.948,0c1.044-.1.418-.216,3.652,0s2.4-1.35,4.8-.723,4.279.254,4.905.649,3.652.023,6.47,0,3.026-1.364,6.366-.8,1.889-.949,5.066-.14,3.7,1.72,6,1.734,4.9-.536,6.366,0,4.07.224,5.323.641,4.174.313,2.5-.731a34.634,34.634,0,0,0-6.366-3.548,15.38,15.38,0,0,1-5.635-3.861,27.983,27.983,0,0,0-4.383-3.235c-1.983-1.357-5.844-2.609-6.888-3.966s-.417-1.756-3.131-2.861-2.5-.9-3.965-2.461-3.652-1.879-4.279-2.818-2.3-1.67-3.131-3.235-1.461-3.026-3.548-3.026-4.488-.626-5.427,1.044a37.689,37.689,0,0,1-4.592,7.3c-2.3,2.609-4.279,3.662-5.948,6.579s-1.253,2.083-4.488,5.318-6.261,4.592-6.783,5.74S221.918,187.064,221.918,187.064Z" transform="translate(-160.974 -117.959)"/></g><path class="a" d="M330.922,167.235c0-.081-3.468.185-5.033-1.275s-3.03-.52-4.8-.624a8.444,8.444,0,0,1-5.01-2.4c-1.04-1.148-2.713.1-4.59,0s-.733-.733-3.025-1.461-5.847-.317-7.516-1.881-2.609-1.148-5.006-1.253a6.6,6.6,0,0,1-3.862-.936c-1.565-.733-5.218-1.881-11.481-4.174s-2.4,0-6.887-1.461-3.966-2.821-6.991-3.55-3.337-.52-5.427-1.564-2.3-1.777-5.44-3.55-2.18-.728-3.116-1.773-.732-2.817-4.278-3.13-1.777-1.777,0-2.926,4.278,0,7.394-.624.221-2.193,1.37-3.654,3.966.733,5.739,1.519,1.565,2.134,2.713,4.328,5.847,3.233,8.768,3.961,4.278,1.881,6.575,2.609,1.248.316,5.843,0,8.66,0,11.527,0,3.5-.729,3.916-3.337-1.669-1.669-3.234-3.7-2.713.149-5.218-.059-1.565.208-3.966,0-3.966,0-6.575-.624-2.189-1.148-6.051-1.253-1.148-.837-3.025-1.927-2.609-2.351-4.7-3.084-.837-2.609-1.42-2.922-2.234-3.446-2.65-4.174a7.912,7.912,0,0,1-.728-2.505c-.212-1.045-1.253-2.921-1.253-4.486v-2.4A8.864,8.864,0,0,1,260,113.955a9.674,9.674,0,0,1-5.408-1.094c.922,3.36,2.532,10.695-.5,12.3-3.966,2.085-6.471,1.668-9.185,2.921s-3.341,2.089-5.426,2.089-6.471-1.253-9.393,0-5.96,2.293-5.96,2.293-8.443.208-11.572,0-7.1-.832-11.9-1.461a62.1,62.1,0,0,0-10.853-.624c-1.284,0-2.447.055-3.527.122-.42,3.3-2.5,2.216-4.409,4.7a21.535,21.535,0,0,0-2.18,3.161,34.341,34.341,0,0,0,3.65.158h6.887a28.622,28.622,0,0,1-5.332,5.006c-2.392,1.465-2.6.629-4.06,3.342s-1.674,1.791-3.758,3.816a31.3,31.3,0,0,0-5.426,7.037c-1.877,3.129-2.505,3.966-3.758,6.051s-4.8,4.174-4.8,1.881-1.881-3.758-6.055-3.758-6.887-1.461-8.556,0-2.3,4.509-3.13,4.757-3.55-.249-4.595,0-3.966-.312-5.426.072a18,18,0,0,1-7.511,0c-2.3-.655-3.966-2.324-6.679-.655s-4.07,1.067-5.634,1.054l-1.569-.01v8.868c0-.1,1.777.1,2.713,0s2.4.882,3.862-.027,1.985-1.641,3.133-1.013,1.669.227,2.714.584,0,.167,2.713,0,1.876.583,4.382,0,2.505-.846,5.323-.819,2.609-.655,5.323,0,.1,1.533,4.486.674,6.367-.647,7.1-.958,1.461-.584.525.958-2.609,4.568-4.595,5.612a13.453,13.453,0,0,0-4.382,3.13c-1.461,1.569-.52,1.045-1.985,3.03s-3.025,2.085-3.962,2.921a13.485,13.485,0,0,0-2.4,2.085c-1.045,1.253-2.922,2.817-4.49,2.817a23.238,23.238,0,0,1-3.858,0c-1.985-.208-3.238.1-4.7,0a9.349,9.349,0,0,0-3.545.525c-.525.208-1.777,1.773-3.342.728s-3.55-1.565-4.278-1.04-.733-1.148-.733-1.148v14.923s0-5.671,1.637-4.143,7.651.421,14.747-1.388,7.656,0,11.83-.556,9.741.416,14.055.416,10.433.7,18.645-.416,5.7.136,16.279.136,6.119.837,11.545,1.949,2.646.556,8.488-.556,10.853-.416,16.7.556,4.033.281,8.347.281,6.4-.281,16.976-3.062,13.218.973,22.538.973,7.792,3.061,15.027,3.061,4.038.416,9.044.416,8.072.14,10.993-.276,4.73-1.533,6.82-5.287,3.337-3.618,3.337-8.628-1.112-2.922-1.809-6.539a8.638,8.638,0,0,0-4.174-6.4c-1.949-1.253-2.922-1.253-8.624-3.618s-2.785-.556-4.314-.832a22.24,22.24,0,0,0-9.6,1.388c-3.342,1.393-4.595.836-9.044.836s-1.673.416-4.038,0-3.894-.836-5.146-2.5-2.646-.832-7.792-.832-3.342,0-6.4-2.23-2.921-.972-4.73-2.365-3.758-3.894-8.864-5.146-2.546-3.061-4.074-4.87-3.758-1.253-6.539-3.039-2.505-2.668-4.454-4.2-2.225-1.253-5.982-2.785-3.342-2.085-4.454-3.2-.832-1.809-2.225-3.618-4.314-1.253-4.59-3.631.692.014,3.478.014,6.679-.14,7.792.6,2.64.375,8.067.1,3.482,0,7.516,1.388,1.529,2.229,2.646,5.286,1.388,2.646,2.225,2.786,5.427.14,9.6,1.659,4.871,1.678,8.488,2.931a21.744,21.744,0,0,1,8.072,4.87c1.669,1.668,1.945,1.668,6.955,1.949s5.011,2.085,8.208,3.478,5.291,1.252,9.6,2.365a28.343,28.343,0,0,1,7.656,2.921c2.505,1.253,7.1.556,11.27.7s5.426,1.669,9.74,3.2a27.934,27.934,0,0,0,7.177,1.669v-7.525A11.193,11.193,0,0,1,330.922,167.235Zm-78.5,12.083c3.341-.312,2.3.624,4.386.624s4.9-.208,5.843.733,2.795,1.773,5.467,2.189,5.178-.457,5.7,1.963.94,3.256-1.461,4.3-3.359,1.461-4.237,3.342-3.274,2.4-5.572,2.4-1.773-1.356-4.59.525-4.179,2.483-6.679,1.189-2.817-6.2-3.446-7.973-.837-3.274-3.862-2.84-2.8-1.976-7.077-2.5-3.88.434-7.113.747-4.581-1.343-6.516,1.365-2.564,4.269-4.545,7.2-2.609,6.05-5.743,4.694-9.18-2.4-11.685-1.981a30.94,30.94,0,0,1-5.426.624c-2.609.1-6.263.733-10.125-.312a35.826,35.826,0,0,0-10.433-1.044c-3.758,0-3.55.733-6.783,1.044s-4.49-.94-5.847-.94-2.505,1.045-4.486,1.149-11.49,1.7-10.229-.416c.6-1-.208-1.253,1.881-2.505s3.13-1.773,4.278-3.55,1.411-2.387,2.533-3.957,1.433-.217,4.459-3.975,1.253-4.278,4.07-5.11,2.089,0,5.218,0,1.045,1.031,5.738-.371,5.314-2.134,8.759-1.3a52.407,52.407,0,0,0,7.729,1.3c2.4.267,3.446-.163,6.471,0s6.679-.059,8.556,0,10.541.054,13.15.054h6.471c3.966,0,3.442-1.356,5.947.213s3.654,1.144,7.308,2.084,2.713,1.149,5.218,1.149A49.281,49.281,0,0,0,252.419,179.318Zm-35.377-28.639c2.713,1.1,2.089,1.506,3.134,2.862s4.9,2.609,6.887,3.966a28.081,28.081,0,0,1,4.382,3.233,15.38,15.38,0,0,0,5.634,3.862,34.593,34.593,0,0,1,6.367,3.55c1.668,1.04-1.253,1.144-2.505.729s-3.862-.1-5.323-.642-4.07.018-6.367,0-2.817-.922-5.991-1.732-1.728.705-5.07.14-3.545.773-6.362.8-5.847.393-6.472,0-2.505-.023-4.906-.647-1.565.936-4.8.724-2.609-.1-3.654,0a56.026,56.026,0,0,1-5.946,0c-2.505-.113-1.045-.516-2.926-.285a55.976,55.976,0,0,0-5.531.918,2.145,2.145,0,0,1-2.713-1.356s-.52-.525,0-1.674,3.55-2.5,6.783-5.738,2.817-2.4,4.49-5.318,3.65-3.97,5.947-6.58a37.5,37.5,0,0,0,4.59-7.3c.94-1.668,3.341-1.044,5.426-1.044s2.713,1.461,3.55,3.025,2.505,2.3,3.13,3.238,2.817,1.253,4.278,2.817S214.329,149.576,217.042,150.679Zm-43.485-13.431c-.077-1-.041-2.1-.041-3.41a8.77,8.77,0,0,1,.986-4.319,12.852,12.852,0,0,0-4.541-.212,33.692,33.692,0,0,0-.515,4.843,13.473,13.473,0,0,1-.14,2.212,21.853,21.853,0,0,1,2.55.484C172.462,136.991,173.028,137.127,173.557,137.249Z" transform="translate(-113.937 -86.355)"/><path class="c" d="M306.418,206.9c-.692,0-1.427-.005-2.216-.01-.922-.006-1.917-.012-3-.012a18.544,18.544,0,0,1-3.226-.161,35.035,35.035,0,0,0-5.819-.256,11.206,11.206,0,0,1-5.658-1.221c-1.883-.862-4.016-1.84-9.368-1.84a36.144,36.144,0,0,1-8.275-1.049,31.852,31.852,0,0,0-7.136-.952,29.684,29.684,0,0,0-7.587,1.088c-10.364,2.725-12.383,3-16.516,3a24.018,24.018,0,0,0-3.1.168,7.785,7.785,0,0,1-.96.071,28.19,28.19,0,0,1-4-.494,66.126,66.126,0,0,0-10.873-1.151,34.206,34.206,0,0,0-6.462.6,30.049,30.049,0,0,0-3.816.944,2.545,2.545,0,0,1-.77.187,24.6,24.6,0,0,1-3.1-.549l-.1-.02a8.133,8.133,0,0,1-2.684-.887c-1.359-.742-2.318-1.1-9.224-1.1a65.292,65.292,0,0,1-8.095-.4,25.166,25.166,0,0,0-2.95-.2,41.191,41.191,0,0,0-5.479.48,70.014,70.014,0,0,1-9.485.615c-1.925,0-3.7-.065-5.266-.123-1.305-.047-2.537-.092-3.65-.092-1.573,0-3.33-.136-5.189-.281-1.955-.152-3.978-.308-5.895-.308a24.083,24.083,0,0,0-3.212.189,10.259,10.259,0,0,1-1.364.095,14.485,14.485,0,0,1-1.98-.167,19.81,19.81,0,0,0-2.725-.214,24.167,24.167,0,0,0-5.967.882c-3.462.882-8.407,2.056-11.373,2.056a3.467,3.467,0,0,1-1.705-.247,2.73,2.73,0,0,0-1.051-.631v-6.046a6,6,0,0,1,2.2.923,3.726,3.726,0,0,0,2.094.658,4.817,4.817,0,0,0,2.873-1.143c.05-.038.1-.073.139-.1a8.112,8.112,0,0,1,2.312-.379c.114,0,.229,0,.343.012.263.019.521.026.778.026.45,0,.885-.024,1.307-.047s.859-.048,1.319-.048a11.69,11.69,0,0,1,1.235.064,15.983,15.983,0,0,0,1.721.1c.432,0,.782-.024,1.12-.047.365-.024.708-.048,1.2-.048,2.844,0,5.4-2.888,5.88-3.467a5.044,5.044,0,0,1,1.183-1.089,10.935,10.935,0,0,0,1.028-.8,4.209,4.209,0,0,1,.8-.461,9.412,9.412,0,0,0,4.606-4.741c.072-.175.116-.281.665-.872a11.648,11.648,0,0,1,3.9-2.761c2.239-1.178,3.9-3.956,5.008-5.794l.287-.476c.384-.633,1.1-1.8.45-2.95a1.976,1.976,0,0,0-1.753-1,3.6,3.6,0,0,0-1.434.371c-.173.038-.659.075-1.09.109a45.068,45.068,0,0,0-5.686.756c-.748.147-1.3.245-1.661.291a4.587,4.587,0,0,0-2.054-.949,9.964,9.964,0,0,0-2.357-.336,8.339,8.339,0,0,0-1.375.131,10.474,10.474,0,0,1-1.874.155l-.514,0a12.152,12.152,0,0,0-3.918.5c-.383.1-.835.224-1.44.365a5.634,5.634,0,0,1-1.091.178,1.426,1.426,0,0,1-.351-.056,7.388,7.388,0,0,0-1.787-.194c-.246,0-.527.008-.854.028-.967.06-1.5.123-1.81.166l-.21-.073a5.456,5.456,0,0,0-1.635-.277,1.412,1.412,0,0,1-.793-.182,3.411,3.411,0,0,0-1.664-.456,4.411,4.411,0,0,0-2.561,1.036c-.216.149-.455.314-.731.486a.757.757,0,0,1-.434.115,4.491,4.491,0,0,1-.944-.16,5.883,5.883,0,0,0-1.379-.209,3.152,3.152,0,0,0-.347.019,4.762,4.762,0,0,1-.485.019l-.222,0V171c.171.009.353.025.541.041.358.032.764.067,1.21.067a8.437,8.437,0,0,0,4.592-1.439,2.487,2.487,0,0,1,1.354-.451,5.648,5.648,0,0,1,2.018.609,15.723,15.723,0,0,0,1.863.7,15.484,15.484,0,0,0,4.04.469,19.391,19.391,0,0,0,4.434-.461,4.15,4.15,0,0,1,.975-.078c.506,0,1.078.035,1.631.069s1.075.066,1.549.066a5.277,5.277,0,0,0,1.232-.119h0a2.86,2.86,0,0,1,.419-.02c.405,0,.925.036,1.427.07.535.037,1.088.074,1.568.074a4.349,4.349,0,0,0,1.278-.15c1.146-.343,1.659-1.413,2.253-2.653a8.294,8.294,0,0,1,1.544-2.475c.074-.065.23-.2.841-.2a15.654,15.654,0,0,1,2.114.238,28.135,28.135,0,0,0,4.41.411c2.818,0,4.246.656,4.246,1.949a2.849,2.849,0,0,0,.712,1.992,2.6,2.6,0,0,0,1.945.818c1.942,0,4.413-1.945,5.5-3.761.544-.905.96-1.557,1.441-2.312.592-.929,1.263-1.981,2.317-3.738a29.383,29.383,0,0,1,5.134-6.668,8.786,8.786,0,0,1,1.47-1.18,6.907,6.907,0,0,0,2.622-3.078c.713-1.326.8-1.365,1.5-1.671a14.522,14.522,0,0,0,1.913-.986,30.091,30.091,0,0,0,5.78-5.4l2.452-2.962H184.741c-3.09,0-4.956-.146-11.058-1.618a18.335,18.335,0,0,0-4.264-.618,11.3,11.3,0,0,0-2.594.323,10.778,10.778,0,0,1-2.56.307c-.4,0-.835-.019-1.3-.056a20.6,20.6,0,0,1-5.509-.951,15.292,15.292,0,0,0-1.788-.485,1.65,1.65,0,0,1-.233-.061,9.672,9.672,0,0,1-.125-1.55c-.011-.3-.022-.612-.039-.949.09-.006.2-.01.323-.01a25.923,25.923,0,0,1,4.511.681,16.93,16.93,0,0,0,2.93.465,27.768,27.768,0,0,0,7.51-.884,10.566,10.566,0,0,1,2.44-.3,19.672,19.672,0,0,1,4.738.8c.443.109.9.223,1.384.336a16.718,16.718,0,0,0,3.907.418c1.135,0,2.285-.08,3.5-.165,1.444-.1,2.937-.205,4.689-.205a60.132,60.132,0,0,1,10.62.609c1.284.168,2.509.336,3.673.5,3.212.44,5.985.82,8.338.977.963.064,2.48.1,4.511.1,3.411,0,7.188-.092,7.226-.092l.278-.007.263-.09c.127-.043,3.137-1.077,6.087-2.342a6.629,6.629,0,0,1,2.556-.41,27.99,27.99,0,0,1,3.571.316,20.7,20.7,0,0,0,2.552.241,7.936,7.936,0,0,0,4.286-1.289c.526-.286,1.123-.609,1.9-.967a13.8,13.8,0,0,1,3.084-.884,21.268,21.268,0,0,0,6.184-2.078c2.653-1.4,3.383-5.139,2.181-11.135a11.734,11.734,0,0,0,2.034.176c.33,0,.667-.014,1-.041a11.223,11.223,0,0,0,1.529-.232,11.4,11.4,0,0,0,.908,3.563,9.934,9.934,0,0,1,.379,1.106l.068.348a8.271,8.271,0,0,0,.859,2.69c.065.115.158.283.271.488a24.664,24.664,0,0,0,2.3,3.709,3.479,3.479,0,0,0,2.48,3.713,7.032,7.032,0,0,1,2.265,1.415,15.744,15.744,0,0,0,2,1.454c.212,2.14,2.569,2.2,4.007,2.242a8.83,8.83,0,0,1,3.585.553,16.459,16.459,0,0,0,2.091.65,21.933,21.933,0,0,0,4.781.559c.65.022,1.322.044,2.062.109.519.045.942.067,1.294.067a6.959,6.959,0,0,0,1.045-.076,3.609,3.609,0,0,1,.591-.045c.264,0,.605.018,1.042.054.168.014.332.02.492.02a7.477,7.477,0,0,0,2.763-.6c.18-.068.41-.156.561-.2.032.033.072.079.12.142a6.471,6.471,0,0,0,2.629,1.973c.086.04.189.088.277.131-.005.054-.013.12-.026.2-.29,1.816-.29,1.816-2.13,1.816-.841,0-1.821-.029-2.858-.059-1.281-.038-2.733-.08-4.278-.08-1.623,0-3.1.047-4.514.143-1.661.115-2.615.242-3.246.326a7.144,7.144,0,0,1-.717.078,5.4,5.4,0,0,1-1.206-.322,17.961,17.961,0,0,1-2.4-1.007,21.068,21.068,0,0,0-4.289-1.633l-.524-.13c-2.07-.511-6.377-1.574-7.082-2.917a13.275,13.275,0,0,1-.7-1.658,5.191,5.191,0,0,0-2.878-3.484c-.339-.15-.772-.39-1.231-.643a9.331,9.331,0,0,0-4.164-1.521,3.1,3.1,0,0,0-2.5,1.18,3.217,3.217,0,0,0-.5,3.035,9.428,9.428,0,0,1-1.634.128c-.509,0-1.013-.029-1.5-.057s-.951-.055-1.419-.055a5.844,5.844,0,0,0-3.27.824c-1.152.745-3.3,2.13-2.811,4.09.463,1.875,2.765,2.08,3.632,2.158,1.67.146,1.869.524,2.267,1.276a5.948,5.948,0,0,0,.827,1.262l.037.041a2.952,2.952,0,0,0,1.466,1.078,11.765,11.765,0,0,1,2.069,1.019,23.15,23.15,0,0,1,2.977,1.964,14.507,14.507,0,0,0,2.544,1.628,12.143,12.143,0,0,0,3.73,1.25c.529.106,1.186.239,2.08.455a4.816,4.816,0,0,1,2.15,1.082,13.85,13.85,0,0,0,4.706,2.43,9.532,9.532,0,0,0,2.788.615,3.027,3.027,0,0,0,.947-.147,18.154,18.154,0,0,1,3.091.97c2.644.968,4.823,1.733,6.575,2.347,2.287.8,3.939,1.381,4.764,1.767.2.091.363.171.512.243a7.853,7.853,0,0,0,4.038.862c.432.019.819.022,1.174.022h.452a2.432,2.432,0,0,1,2.221.743c1.49,1.4,3.7,1.643,5.646,1.859a14.427,14.427,0,0,1,2.558.425c.655.208.758.323.858.433a3.269,3.269,0,0,0,2.617,1.111c.11.006.219.008.328.008a9.7,9.7,0,0,0,2.226-.32,7.021,7.021,0,0,1,.9-.172,10.312,10.312,0,0,0,6.139,2.884c.138.008.269.012.4.012a11.3,11.3,0,0,0,1.519-.126,7.553,7.553,0,0,1,.913-.086,1.066,1.066,0,0,1,.851.341c1.766,1.649,4.754,1.713,5.879,1.737l.162,0,.07.012v3.652a32.051,32.051,0,0,1-4.764-1.3A35.668,35.668,0,0,1,323.983,172a15.429,15.429,0,0,0-6.86-1.858q-.66-.021-1.329-.02c-.883,0-1.769.024-2.625.046-.829.022-1.612.043-2.367.043a10.779,10.779,0,0,1-4.2-.575l-.766-.386a28.474,28.474,0,0,0-7.248-2.669c-1.743-.45-3.13-.7-4.353-.923a20.182,20.182,0,0,1-4.977-1.349A10.384,10.384,0,0,1,287.1,163a10.439,10.439,0,0,0-6.667-2.31l-.143-.008c-4.468-.25-4.468-.25-5.633-1.413a23.768,23.768,0,0,0-8.759-5.3c-1.354-.469-2.3-.785-3.172-1.076-1.443-.481-2.689-.9-5.287-1.845a33.844,33.844,0,0,0-9.142-1.682c-.319-.023-.68-.047-.783-.063l-.165-.024a14.5,14.5,0,0,1-.655-1.595,3.622,3.622,0,0,1-.168-1.819c.228-2.373-.711-3.566-3.587-4.559a19.533,19.533,0,0,1-2.184-.885,6.141,6.141,0,0,0-3.225-.7c-.705,0-1.627.04-2.791.1-1.33.068-2.429.14-3.346.2-1.162.077-2,.132-2.625.132-.8,0-.948-.1-1-.135-1.147-.76-3.187-.908-6.322-.908-.442,0-.884,0-1.313.006-.4,0-.788,0-1.157,0a3.613,3.613,0,0,1-1.852-.582,2.954,2.954,0,0,0-1.47-.483,1.971,1.971,0,0,0-1.473.658,2.932,2.932,0,0,0-.479,2.415c.283,2.44,2.254,3.208,3.431,3.667a3.584,3.584,0,0,1,1.522.855,7.314,7.314,0,0,1,.992,1.686,6.3,6.3,0,0,0,1.388,2.107,4.851,4.851,0,0,1,.46.549c.778,1.028,1.519,1.795,4.592,3.045,1.214.5,2.1.814,2.74,1.047a8.318,8.318,0,0,1,4.188,2.9,11.535,11.535,0,0,0,3.216,2.882,13.56,13.56,0,0,0,3.964,1.655,3.925,3.925,0,0,1,2.17,1.028c.122.144.145.249.179.8.131,2.176.987,3.713,4.845,4.659a14.819,14.819,0,0,1,6.993,3.816c.409.358.795.7,1.2,1.007a5.486,5.486,0,0,0,2.409,1.157,5.635,5.635,0,0,1,2.36,1.237,14.812,14.812,0,0,1,1.448,1.195c1.5,1.381,2.1,1.381,6.02,1.381,1.6,0,2.838-.077,3.831-.139.6-.038,1.126-.07,1.529-.07.745,0,.8.068.984.319,1.68,2.237,3.749,2.755,6.279,3.2l.536.1a4.834,4.834,0,0,0,.885.117,2.067,2.067,0,0,0,.655-.107,18.061,18.061,0,0,1,2.275-.079c1.081,0,1.972.034,2.757.064.641.025,1.2.046,1.743.046a12.338,12.338,0,0,0,5.24-1.085,21.547,21.547,0,0,1,7.435-1.347,6.93,6.93,0,0,1,1.144.068,3.3,3.3,0,0,0,.6.059,2.156,2.156,0,0,0,1.017-.245c.443.153,1.165.426,2.332.91,2.345.972,3.908,1.553,5.049,1.977a14.687,14.687,0,0,1,3.288,1.492,6.9,6.9,0,0,1,3.376,5.223,7.116,7.116,0,0,0,1.292,3.2c.26.363.484.676.484,3,0,3.043-.43,3.663-1.47,5.161a28.572,28.572,0,0,0-1.64,2.59c-1.854,3.332-3.194,4.042-5.5,4.374A38.9,38.9,0,0,1,306.418,206.9Zm-102.356-7.836a29.728,29.728,0,0,1,9.593,1.925,5.214,5.214,0,0,0,2.088.476c2.519,0,3.713-2.112,4.765-3.975.344-.608.7-1.236,1.107-1.837.952-1.406,1.592-2.492,2.211-3.541.678-1.148,1.317-2.234,2.309-3.618.591-.827.854-.827,1.132-.827a8.374,8.374,0,0,1,.978.095,15.287,15.287,0,0,0,2.067.165c.349,0,.7-.016,1.045-.05a13.727,13.727,0,0,0,2.881-.577,5.712,5.712,0,0,1,1.924-.313,16.2,16.2,0,0,1,1.914.139,5.86,5.86,0,0,1,3.155,1.274,5.5,5.5,0,0,0,3.453,1.293,6.66,6.66,0,0,0,.946-.072,4.97,4.97,0,0,1,.7-.057c.618,0,.618,0,1.036,1.243.051.152.1.306.158.463a16.241,16.241,0,0,1,.389,1.593c.547,2.544,1.3,6.026,3.933,7.388a6.9,6.9,0,0,0,3.221.889c1.865,0,3.433-.945,5.29-2.18a6.131,6.131,0,0,1,1.2-.681c.048.016.1.036.147.054a6.058,6.058,0,0,0,2.245.406c4.63,0,6.476-1.87,7.21-3.439.572-1.226.977-1.43,3.316-2.447,3.585-1.56,3.1-3.718,2.631-5.807l-.119-.538c-.674-3.138-3.438-3.2-5.266-3.239a14.528,14.528,0,0,1-1.919-.127c-3.065-.477-4.2-1.407-4.469-1.681-1.064-1.064-2.8-1.282-5.073-1.282-.367,0-.737.005-1.1.01-.327.005-.647.01-.951.01a1.154,1.154,0,0,1-.709-.136,4.809,4.809,0,0,0-2.492-.552c-.4,0-.839.024-1.355.072-1.213.113-2.16.164-3.071.164-.506,0-.962-.015-1.446-.03-.563-.017-1.2-.038-1.989-.038a4.314,4.314,0,0,1-2.012-.265c-.517-.179-1.3-.45-2.755-.826-1.351-.348-2.39-.522-3.226-.662a8,8,0,0,1-3.575-1.205,5.335,5.335,0,0,0-2.862-1.032,5.413,5.413,0,0,0-1.388.219,9.44,9.44,0,0,1-2.655.326H222.2c-7.46,0-11.868-.017-13.1-.053-.248-.008-.531-.011-.839-.011-.636,0-1.384.014-2.194.03-.93.019-1.945.039-2.963.039-.968,0-1.791-.019-2.517-.056-.505-.027-.987-.041-1.47-.041-.809,0-1.479.038-2.069.073-.493.028-.958.055-1.436.055a12.345,12.345,0,0,1-1.392-.079l-.159-.017a50.177,50.177,0,0,1-7.342-1.245,12.066,12.066,0,0,0-2.882-.4,13.3,13.3,0,0,0-4.377.953c-.693.229-1.479.487-2.446.776a14.364,14.364,0,0,1-2.644.66.66.66,0,0,0-.092-.034,7.358,7.358,0,0,0-2.484-.332,8.116,8.116,0,0,1-2.017-.205,5.7,5.7,0,0,0-1.292-.167,8.536,8.536,0,0,0-2.425.447c-2.071.611-2.67,1.357-3.23,2.8a9.7,9.7,0,0,1-1.733,2.91c-1.563,1.941-2.2,2.259-2.669,2.492a4.419,4.419,0,0,0-1.855,1.569c-.715,1-1.1,1.637-1.549,2.375-.278.458-.585.965-1.028,1.648-.821,1.271-1.508,1.68-3.169,2.671l-.523.312c-1.775,1.064-2.228,1.847-2.441,2.919-.032.16-.033.162-.063.212a2.305,2.305,0,0,0-.08,2.369c.728,1.28,2.369,1.457,4.034,1.457a57.977,57.977,0,0,0,6.076-.487c.809-.094,1.507-.175,1.849-.193a9.649,9.649,0,0,0,3.163-.782,2.061,2.061,0,0,1,2.178-.1,11,11,0,0,0,3.892.728c.381,0,.778-.02,1.179-.059a16,16,0,0,0,3.16-.6,10.472,10.472,0,0,1,3.45-.435,34.19,34.19,0,0,1,9.96.982,20.333,20.333,0,0,0,5.361.657c1.31,0,2.532-.093,3.611-.174.61-.046,1.186-.09,1.7-.11a28.509,28.509,0,0,0,4.772-.5l.879-.148A6.637,6.637,0,0,1,204.061,199.066Zm31.2-27.186A3.531,3.531,0,0,1,236.4,172a11.737,11.737,0,0,0,3.487.483,10.077,10.077,0,0,1,1.887.176,7.435,7.435,0,0,0,2.234.32c1.723,0,2.758-.563,3.075-1.674a2.273,2.273,0,0,0-1.277-2.626c-.308-.193-.63-.4-.967-.622a29.887,29.887,0,0,0-5.706-3.081,13.111,13.111,0,0,1-4.811-3.272l-.237-.222a20.3,20.3,0,0,0-3.288-2.534c-.378-.247-.8-.525-1.309-.872a25.873,25.873,0,0,0-3.29-1.763,13.981,13.981,0,0,1-3.184-1.811,4.33,4.33,0,0,1-.434-.7c-.619-1.173-1.265-1.847-3.455-2.737l-.813-.328a4.58,4.58,0,0,1-2.467-1.644l-.046-.049a10.079,10.079,0,0,0-3.167-2.123,7.318,7.318,0,0,1-.962-.514,7.329,7.329,0,0,0-1.5-1.476,5.575,5.575,0,0,1-1.5-1.557l-.159-.3c-.82-1.554-1.945-3.682-4.986-3.682-.393,0-.815-.026-1.261-.054-.473-.03-.962-.06-1.45-.06-.772,0-3.119,0-4.291,2.079-.2.352-.411.758-.646,1.206a28.949,28.949,0,0,1-3.726,5.791,31.614,31.614,0,0,1-2.291,2.3,18.319,18.319,0,0,0-3.868,4.579,9.241,9.241,0,0,1-2.359,3.143c-.446.427-1.031.984-1.84,1.793a33.491,33.491,0,0,1-4.338,3.576c-1.422,1.028-2.362,1.706-2.811,2.688a3.436,3.436,0,0,0,.051,3.311,3.88,3.88,0,0,0,3.614,2.371,4.675,4.675,0,0,0,1.13-.143c1.193-.3,3.589-.666,5.314-.878.223-.027.367-.041.46-.048a6.531,6.531,0,0,0,2.164.345c1.179.051,2.387.078,3.495.078.809,0,1.934-.014,2.7-.083.3-.028.482-.057.64-.082a2.066,2.066,0,0,1,.421-.033c.379,0,1.069.035,2.309.118.254.017.485.024.7.024a5.441,5.441,0,0,0,3.051-.787c.074-.043.175-.1.209-.115a3.912,3.912,0,0,1,.5.1,16.686,16.686,0,0,0,3.731.476c.3.011.665.025.842.05a4.773,4.773,0,0,0,2.174.359c.659,0,1.455-.039,2.3-.081.92-.045,1.871-.092,2.8-.1a9.157,9.157,0,0,0,3.2-.6,4.5,4.5,0,0,1,1.66-.341,7.06,7.06,0,0,1,1.189.115,9.745,9.745,0,0,0,1.606.155,4.385,4.385,0,0,0,2.021-.443,1.224,1.224,0,0,1,.153-.067h0a.651.651,0,0,1,.067,0,4.761,4.761,0,0,1,1.08.188,17.874,17.874,0,0,1,2.7.926,8.792,8.792,0,0,0,3.728.862h.121c.847,0,1.7-.064,2.515-.127C234,171.931,234.679,171.879,235.265,171.879Z" transform="translate(-115.339 -88.42)"/><path class="d" d="M307.819,206.676c-.642,0-1.321,0-2.045-.008h-.159c-.925-.006-1.924-.013-3.014-.013a17.183,17.183,0,0,1-2.961-.141,36.443,36.443,0,0,0-6.083-.276,9.509,9.509,0,0,1-4.905-1.057c-1.949-.893-4.375-2-10.122-2a34.655,34.655,0,0,1-7.894-1.008c-.638-.137-1.266-.273-1.9-.4a7.537,7.537,0,0,0,5.46-4.122c.294-.629.3-.642,2.4-1.555,4.956-2.155,4.153-5.727,3.674-7.861l-.118-.534c-.973-4.524-5.191-4.616-6.992-4.655a13.118,13.118,0,0,1-1.678-.106c-2.657-.414-3.465-1.167-3.473-1.174a5.041,5.041,0,0,0-.694-.58c.557.011,1.182.011,1.9.011,1.662,0,2.927-.08,3.944-.143.507-.032.943-.059,1.275-.065,2.017,2.42,4.506,3.035,7.092,3.49l.531.1a6.268,6.268,0,0,0,1.2.145,3.876,3.876,0,0,0,1.02-.137c.187-.016.716-.048,1.91-.048,1.047,0,1.919.033,2.688.063.629.024,1.224.047,1.812.047a14.151,14.151,0,0,0,5.936-1.225,19.893,19.893,0,0,1,6.74-1.208,6.053,6.053,0,0,1,.826.039,5.044,5.044,0,0,0,.917.087,4.083,4.083,0,0,0,1.017-.128c.385.147.917.356,1.64.655,2.378.987,3.958,1.574,5.111,2a13.1,13.1,0,0,1,2.94,1.317,5.148,5.148,0,0,1,2.578,4.044,8.816,8.816,0,0,0,1.6,3.913l.03.042a8.592,8.592,0,0,1,.116,1.9c0,2.477-.22,2.794-1.147,4.129a30.41,30.41,0,0,0-1.736,2.744c-1.654,2.971-2.568,3.229-4.171,3.46A37.253,37.253,0,0,1,307.819,206.676Zm-98.861-1.091c-.381-.041-1.44-.257-2.649-.505l-.1-.021a6.57,6.57,0,0,1-2.183-.7,9.971,9.971,0,0,0-4.855-1.2,29.29,29.29,0,0,0,4.64-.508l.876-.147a4.936,4.936,0,0,1,.776-.045,28,28,0,0,1,8.874,1.776l.129.055q-.587.091-1.174.2a31.805,31.805,0,0,0-4.02,1C209.132,205.53,209.034,205.562,208.959,205.585Zm-87.653-.017a5.415,5.415,0,0,1-.809-.05c-.046-.036-.092-.07-.138-.1v-2.173a5.4,5.4,0,0,0,2.483.6,6.4,6.4,0,0,0,3.836-1.413,6.388,6.388,0,0,1,1.489-.212c.07,0,.14,0,.21.007.3.021.6.031.911.031.5,0,.958-.025,1.4-.05.4-.022.814-.045,1.223-.045a9.891,9.891,0,0,1,1.046.054,17.523,17.523,0,0,0,1.911.114c.5,0,.893-.027,1.242-.05s.649-.045,1.082-.045c3.558,0,6.463-3.152,7.269-4.117a3.3,3.3,0,0,1,.837-.77,12.8,12.8,0,0,0,1.141-.886c.09-.054.3-.158.452-.235a13.9,13.9,0,0,0,1.577-.888,5.038,5.038,0,0,0-.949,2.085,4.077,4.077,0,0,0,1.282,5.312c-.294-.006-.585-.01-.877-.01a25.945,25.945,0,0,0-3.453.206,8.321,8.321,0,0,1-1.124.079,12.966,12.966,0,0,1-1.745-.152,21.643,21.643,0,0,0-2.96-.229,25.887,25.887,0,0,0-6.413.938C130.291,204.063,124.386,205.568,121.306,205.568Zm113.654-.064a27.658,27.658,0,0,1-3.7-.47,69.045,69.045,0,0,0-10.881-1.174,11.242,11.242,0,0,0,3.1-3.9c.326-.575.662-1.171,1.028-1.71.987-1.457,1.641-2.566,2.273-3.638.659-1.117,1.279-2.167,2.221-3.484l.028-.039c.122.014.252.031.375.047a17.1,17.1,0,0,0,2.3.18c.409,0,.82-.02,1.221-.059a15.58,15.58,0,0,0,3.219-.642,3.947,3.947,0,0,1,1.411-.239,14.434,14.434,0,0,1,1.7.126,4.093,4.093,0,0,1,2.319.948,7.23,7.23,0,0,0,4.508,1.632,8.349,8.349,0,0,0,.988-.061c.053.157.1.293.148.431.082.23.216.858.325,1.363.558,2.6,1.383,6.438,4.357,8.327-7.461,1.907-9.393,2.12-12.887,2.12a25.729,25.729,0,0,0-3.3.179A6.159,6.159,0,0,1,234.959,205.5Zm-67.034-1.973c-1.9,0-3.651-.064-5.2-.121-1.323-.049-2.571-.094-3.716-.094h-.136l.57-.066c.738-.086,1.458-.169,1.737-.184a11.327,11.327,0,0,0,3.724-.9c.166-.065.39-.153.548-.206.12.039.269.09.383.13a12.761,12.761,0,0,0,4.483.827c.441,0,.9-.023,1.353-.067a17.778,17.778,0,0,0,3.474-.66,8.783,8.783,0,0,1,2.961-.368,32.343,32.343,0,0,1,9.487.92q.192.052.385.1c-.779-.062-1.4-.13-1.943-.189a26.9,26.9,0,0,0-3.146-.212,42.9,42.9,0,0,0-5.723.5A68.115,68.115,0,0,1,167.926,203.531ZM150.343,193.7c.207-.233.412-.486.616-.762a10.294,10.294,0,0,0,1.384-2.334c.045-.054.14-.166.339-.379a9.122,9.122,0,0,1,3.074-2.21c-.335.509-.6.944-.872,1.393s-.57.939-1,1.6c-.573.886-.939,1.124-2.577,2.1l-.525.313Q150.554,193.567,150.343,193.7Zm10.1-10.151c.527-.775.981-1.533,1.371-2.182l.285-.472c.447-.738,1.642-2.706.478-4.773a3.766,3.766,0,0,0-3.33-1.924,5.025,5.025,0,0,0-1.925.424c-.183.019-.531.045-.738.061a46.506,46.506,0,0,0-5.9.785c-.354.069-.639.122-.867.163a7.293,7.293,0,0,0-2.079-.8,11.629,11.629,0,0,0-2.78-.386,10.011,10.011,0,0,0-1.648.152,8.757,8.757,0,0,1-1.6.134l-.507,0a13.9,13.9,0,0,0-4.394.565c-.369.1-.8.215-1.382.35-.334.077-.525.11-.621.123l-.017,0a9.129,9.129,0,0,0-2.181-.238c-.278,0-.6.008-.966.032-.684.042-1.165.087-1.511.125a7.357,7.357,0,0,0-1.951-.311l-.085,0a5.231,5.231,0,0,0-2.455-.636,6.108,6.108,0,0,0-3.587,1.355c-.119.082-.236.162-.355.242l-.31-.072a10.468,10.468,0,0,0-1.041-.206V174.5a10.293,10.293,0,0,0,5.481-1.707,1.146,1.146,0,0,1,.407-.183,5.948,5.948,0,0,1,1.306.463,17.464,17.464,0,0,0,2.079.774,17.275,17.275,0,0,0,4.536.538,21.142,21.142,0,0,0,4.866-.512,3.917,3.917,0,0,1,.543-.026c.449,0,.99.033,1.514.064.56.034,1.131.07,1.666.07a7.27,7.27,0,0,0,1.519-.138h.132c.348,0,.856.035,1.3.065.532.037,1.137.079,1.691.079a6.042,6.042,0,0,0,1.8-.228c1.909-.571,2.68-2.182,3.361-3.6a12.681,12.681,0,0,1,.89-1.646c.423.019,1.046.114,1.7.214a29.77,29.77,0,0,0,4.687.432,6.031,6.031,0,0,1,2.441.332,4.593,4.593,0,0,0,1.185,3.024,4.39,4.39,0,0,0,3.277,1.4c2.674,0,5.686-2.36,7.053-4.64l.071-.118a4.842,4.842,0,0,0,.623,3.02,5.69,5.69,0,0,0,5.215,3.331h.095c-.553.181-1.171.38-1.9.6-1.116.334-1.694.478-1.979.542a9.471,9.471,0,0,0-2.722-.323,6.4,6.4,0,0,1-1.63-.163,7.41,7.41,0,0,0-1.679-.209,10.162,10.162,0,0,0-2.94.522c-2.733.807-3.684,2.032-4.4,3.877a8.008,8.008,0,0,1-1.455,2.431C160.851,183.085,160.636,183.339,160.447,183.553Zm99.153-3.58a6.579,6.579,0,0,0-3.192-.688c-.452,0-.951.026-1.523.079-1.158.108-2.053.156-2.9.156-.486,0-.924-.014-1.388-.029-.592-.019-1.241-.039-2.047-.039a3,3,0,0,1-1.418-.165c-.548-.19-1.37-.476-2.9-.869-1.428-.368-2.51-.549-3.378-.695a6.3,6.3,0,0,1-2.917-.956,6.244,6.244,0,0,0-5.652-1.032,7.658,7.658,0,0,1-2.21.27H223.6c-7.449,0-11.839-.017-13.047-.052-.259-.008-.561-.012-.891-.012-.646,0-1.407.015-2.23.032-.918.018-1.921.038-2.927.038-.933,0-1.725-.017-2.424-.054-.534-.029-1.046-.043-1.563-.043-.864,0-1.59.042-2.173.075-.474.027-.91.052-1.331.052a10.56,10.56,0,0,1-1.193-.068l-.16-.017a48.528,48.528,0,0,1-6.991-1.175h.019c1.209.052,2.445.079,3.576.079,1.235,0,2.2-.03,2.86-.091.357-.034.571-.067.756-.1l.082-.013h.058c.33,0,1.026.037,2.188.115.3.02.569.028.819.028a7.289,7.289,0,0,0,3.542-.8,18.824,18.824,0,0,0,3.883.474c.113,0,.3.012.456.02a7.05,7.05,0,0,0,2.631.39c.693,0,1.5-.039,2.345-.08.94-.047,1.869-.093,2.771-.1a10.856,10.856,0,0,0,3.769-.694,2.813,2.813,0,0,1,1.072-.243,5.353,5.353,0,0,1,.885.09,11.468,11.468,0,0,0,1.911.181,6.12,6.12,0,0,0,2.469-.475c.1.02.233.049.405.093a16.072,16.072,0,0,1,2.451.843,10.564,10.564,0,0,0,4.411,1h.125c.928,0,1.848-.07,2.66-.132.7-.053,1.335-.1,1.848-.1a3.6,3.6,0,0,1,.561.031,13.393,13.393,0,0,0,3.983.574c.388.016,1.177.048,1.433.1a9.2,9.2,0,0,0,2.765.4c3.446,0,4.5-1.87,4.814-2.985a3.809,3.809,0,0,0,.127-1.407,13.7,13.7,0,0,1,4.232,2.785c.433.38.84.736,1.286,1.081a7.251,7.251,0,0,0,3.109,1.486,4.19,4.19,0,0,1,1.7.938,13.088,13.088,0,0,1,1.284,1.061,9.8,9.8,0,0,0,.756.635c-.358-.012-.714-.016-1.062-.016-.376,0-.754.005-1.124.01-.318.005-.629.01-.925.01Zm52.6-9.984a9.309,9.309,0,0,1-3.39-.384l-.761-.383a28.734,28.734,0,0,0-3.587-1.606,20.577,20.577,0,0,0,3.49.6,13.782,13.782,0,0,1,2.209.351c.088.028.153.051.2.068a4.638,4.638,0,0,0,2.284,1.351Zm4.88-.134.053.044h-.25Zm-13.51-2.545c-.848-.275-1.859-.566-3.131-.894-1.806-.466-3.227-.724-4.481-.951a18.537,18.537,0,0,1-4.58-1.228,8.692,8.692,0,0,1-1.813-1.113c-.178-.131-.362-.266-.554-.4,2.025.71,3.615,1.271,4.333,1.606.192.089.352.166.495.235a9.571,9.571,0,0,0,4.744,1.038c.459.02.873.024,1.252.024h.454a6.277,6.277,0,0,1,.717.021c-.008,0,.074.054.266.233A7.192,7.192,0,0,0,303.573,167.311Zm-61.425-2.039q-.467-.2-.965-.4l-.041-.016c.418.118.773.22,1,.311C242.142,165.2,242.145,165.238,242.148,165.271Zm-65.487-.572c.267-.434.561-.919.894-1.474a27.777,27.777,0,0,1,4.842-6.3,7.053,7.053,0,0,1,1.208-.97,8.688,8.688,0,0,0,3.217-3.729c.086-.159.326-.606.452-.792.053-.025.113-.049.182-.079a16.374,16.374,0,0,0,2.132-1.1,22.789,22.789,0,0,0,4-3.337,17.849,17.849,0,0,1-1.4,1.827,30.3,30.3,0,0,1-2.168,2.171,20.075,20.075,0,0,0-4.2,5,8.026,8.026,0,0,1-2.038,2.733c-.453.432-1.046,1-1.868,1.821a31.973,31.973,0,0,1-4.117,3.388C177.394,164.152,177.014,164.427,176.661,164.7Zm106.214-4.161q-.452-.045-.946-.073l-.142-.008a29.409,29.409,0,0,1-3.716-.312c-.207-.052-.219-.055-.739-.575-.073-.073-.148-.147-.224-.219a7.106,7.106,0,0,0,1.628.211,4.872,4.872,0,0,0,.986-.1c.34.091,1.058.308,2.429.81Zm-63.145-10.163a2.968,2.968,0,0,1-1.164-.931l-.046-.049a11.8,11.8,0,0,0-3.7-2.515c-.119-.057-.346-.166-.513-.252a10.056,10.056,0,0,0-1.6-1.515,4.733,4.733,0,0,1-1.044-1l-.158-.3c-.855-1.62-2.451-4.643-6.584-4.643-.334,0-.724-.024-1.138-.05-.487-.03-1.027-.064-1.573-.064a7.69,7.69,0,0,0-3.6.78,1.738,1.738,0,0,0-.1-.251,1.808,1.808,0,0,0-1.637-1.039H186.142c-2.938,0-4.723-.142-10.633-1.568-.791-.191-1.511-.339-2.179-.447a8.152,8.152,0,0,1,1.057-.07,18.147,18.147,0,0,1,4.3.742c.452.112.918.227,1.408.343a18.48,18.48,0,0,0,4.322.466c1.2,0,2.38-.082,3.629-.17,1.417-.1,2.877-.2,4.563-.2a58.213,58.213,0,0,1,10.387.594c1.279.167,2.5.334,3.66.494,2.693.368,5.071.695,7.177.887a4.949,4.949,0,0,0-.533,3.307c.407,3.517,3.324,4.654,4.57,5.14a7.319,7.319,0,0,1,.8.344,5.538,5.538,0,0,1,.721,1.254C219.488,149.875,219.6,150.115,219.731,150.375Zm37.91-.025a38.483,38.483,0,0,0-7.66-1.2c-.056-.146-.119-.314-.189-.506a1.9,1.9,0,0,1-.068-1.028,6.724,6.724,0,0,0-.152-2.371,10.751,10.751,0,0,0,1.368.207,4.448,4.448,0,0,1,.713.1c.036.064.08.147.116.214a7.694,7.694,0,0,0,1.082,1.628l.032.034a4.709,4.709,0,0,0,2.236,1.587,12.771,12.771,0,0,1,1.757.88C257.157,150.062,257.41,150.21,257.64,150.349Zm28.021-6.5c-.137-.038-.385-.113-.739-.227a16.314,16.314,0,0,1-2.163-.915c-.631-.3-1.343-.643-2.185-.973a6.157,6.157,0,0,1,2.393.419,18.121,18.121,0,0,0,2.3.713,21.876,21.876,0,0,0,4.356.58l-.2.013c-1.725.12-2.711.251-3.363.338C285.895,143.815,285.763,143.834,285.661,143.846Zm14.495-.41c-.441-.009-.908-.022-1.391-.035a9.828,9.828,0,0,0,1.023-.3C299.911,143.223,300.034,143.333,300.156,143.436Zm-54.537-2c-.229-.09-.461-.175-.692-.255a17.542,17.542,0,0,1-2.006-.813,7.878,7.878,0,0,0-3.993-.871c-.742,0-1.689.041-2.885.1-1.339.068-2.448.141-3.372.2-1.133.075-1.944.128-2.5.128-.127,0-.22,0-.287-.006a6.01,6.01,0,0,0-1.33-.544c.97-.341,3.37-1.207,5.769-2.236a4.829,4.829,0,0,1,1.843-.264,26.589,26.589,0,0,1,3.322.3,21.852,21.852,0,0,0,2.8.259,9.631,9.631,0,0,0,5.148-1.507c.507-.275,1.075-.583,1.795-.915a12.3,12.3,0,0,1,2.691-.755A24.941,24.941,0,0,0,256.9,132.8a4.8,4.8,0,0,0-.747,2.078c-.353-.008-.713-.029-1.064-.049-.508-.029-1.016-.059-1.541-.059a7.643,7.643,0,0,0-4.251,1.113C248.057,136.688,245.238,138.511,245.618,141.431Zm29.592-1.247c-2.387-.685-3.273-1.148-3.565-1.439a11.933,11.933,0,0,1-.574-1.374c-.12-.325-.254-.689-.427-1.071.162.072.329.138.5.2a5.42,5.42,0,0,1,1.712,1.1c.424.347.922.756,1.535,1.172A3.58,3.58,0,0,0,275.21,140.184Zm-7.5-7.09q-.232-.123-.485-.236c-.265-.118-.684-.349-1.089-.572a10.81,10.81,0,0,0-5.039-1.747,5.289,5.289,0,0,0-.729.051c1.681-1.941,2.253-5.065,1.707-9.335.3,0,.6-.015.9-.037a20.3,20.3,0,0,0,.721,2.16c.1.268.267.707.3.844l.061.316a9.99,9.99,0,0,0,1.062,3.237c.054.095.261.47.261.47a35.8,35.8,0,0,0,2.078,3.467A5.916,5.916,0,0,0,267.713,133.094Z" transform="translate(-116.74 -90.003)"/><path class="e" d="M199.466,141.988a33.692,33.692,0,0,0-.515,4.843,13.475,13.475,0,0,1-.14,2.212c-3.392-.407-3.554.828-7.887.484-5.214-.421-5.426-1.045-7.511-1.466s-1.668-1.876-1.881-4.8,7.724-.208,9.605-.208a26.024,26.024,0,0,0,7.1-.836C198.662,142.119,199.068,142.042,199.466,141.988Z" transform="translate(-143.442 -99.035)"/><path class="f" d="M193.794,149.18c-.4,0-.833-.019-1.3-.055a20.6,20.6,0,0,1-5.508-.951,15.356,15.356,0,0,0-1.788-.485,1.664,1.664,0,0,1-.234-.061,9.758,9.758,0,0,1-.124-1.55c-.011-.3-.023-.612-.04-.949.09-.006.2-.01.323-.01a25.868,25.868,0,0,1,4.511.681,16.925,16.925,0,0,0,2.931.465,26.588,26.588,0,0,0,6.178-.59,21.6,21.6,0,0,0-.173,2.557q0,.17,0,.326a11.96,11.96,0,0,0-2.213.316A10.8,10.8,0,0,1,193.794,149.18Z" transform="translate(-144.871 -100.437)"/><path class="g" d="M180.155,126.683c.212,2.922-.208,4.382,1.881,4.8s2.3,1.045,7.511,1.466c4.333.344,4.5-.891,7.887-.484-.353,2.057-1.452,2.559-4.138,5.408-3.442,3.654-3.337,7.2-4.59,8.764s-2.089-.624-1.985-2.817-1.04-4.9-3.442-7.3-2.609-3.862-3.55-7.2-1.356-5.426-1.356-12.422,2.505-7.511,4.49-9.18.466-3.568,3.858-3.758c5.639-.312,6.575,1.981,9.6,6.367s-.729,5.842,1.253,8.244c1.248,1.506.927,4.093.515,6.842-.4.055-.8.131-1.234.231a26.024,26.024,0,0,1-7.1.836C187.878,126.475,179.947,123.762,180.155,126.683Z" transform="translate(-142.065 -82.456)"/><path class="e" d="M232.426,143.4c-.42,3.3-2.5,2.216-4.409,4.7a21.53,21.53,0,0,0-2.18,3.161,50.047,50.047,0,0,1-6.132-1.108c-.077-1-.041-2.1-.041-3.41a8.77,8.77,0,0,1,.986-4.319c1.117.222,2.279.538,3.618.855C226.9,143.9,229.311,143.6,232.426,143.4Z" transform="translate(-160.086 -99.261)"/><path class="f" d="M226.281,150.95c-.974-.139-2.073-.341-3.414-.63,0-.312,0-.64,0-.987,0-.309.005-.628.005-.961a7.443,7.443,0,0,1,.274-2.219l.77.19c.428.106.87.216,1.334.325a16.675,16.675,0,0,0,3.9.419s.285,0,.427,0a7.287,7.287,0,0,0-1.6,1.543C227.289,149.528,226.731,150.264,226.281,150.95Z" transform="translate(-161.487 -100.888)"/><path class="g" d="M225.876,157.25a6.305,6.305,0,0,0-.642,3.31c.109,2.609,0,3.337-2.292,3.4s-.1-1.94-1.777-4.029a6.454,6.454,0,0,1-1.42-3.789A50.044,50.044,0,0,0,225.876,157.25Z" transform="translate(-160.124 -105.249)"/><path class="g" d="M233.273,125.81a9.747,9.747,0,0,1-.077,1.049c-3.115.194-5.522.5-8.158-.122-1.338-.317-2.5-.633-3.618-.855.3-.637.642-1.329,1-2.256,1.044-2.713,1.044-3.025,1.044-4.278a32.725,32.725,0,0,1,1.144-8.977c1.148-3.961-.1-4.807,1.356-5.426,4.7-1.981,4.387,3.446,5.847,8.248A35.415,35.415,0,0,1,233.273,125.81Z" transform="translate(-160.856 -82.717)"/><path class="h" d="M224.683,92.876c-.208-2.852-2.017-3.2-1.6-8.418s.362-7.653-.062-8.418-1.886-3.2-3.486-3.061-3.339.052-2.017-1.252,1.113-1.3,2.5-1.3-.974.539,2.574.539,6.957.556,4.522,1.322-3.061.556-2.852,2.156a64.031,64.031,0,0,1-.139,10.3c-.348,1.948-1.044,2.157,0,3.9s1.253,3.548,1.67,2.853.487-1.949,1.321-3.9a7.447,7.447,0,0,1,2.644-3.687,4.627,4.627,0,0,0,2.087-3.548c.139-1.6-1.53-2.5,0-2.644s1.183.348,2.226-.278,2.783-1.461,3.409-.835.626-.139.7,1.321,1.391,1.392,1.461,3.27-2.157,1.739-2.992,1.531-1.949-.7-2.853-.139a20.31,20.31,0,0,0-3.548,2.852c-1.321,1.322-2.226,1.67-2.5,4.035s.278,2.157-.348,2.922S224.683,92.876,224.683,92.876Z" transform="translate(-158.948 -67.83)"/><path class="h" d="M182.813,90.862c.233-3.181,2.25-3.569,1.785-9.388s-.4-8.534.069-9.388,2.1-3.569,3.887-3.414,3.724.058,2.25-1.4-1.241-1.454-2.793-1.454,1.086.6-2.87.6-7.759.621-5.043,1.475,3.414.62,3.181,2.4a71.525,71.525,0,0,0,.155,11.483c.388,2.172,1.164,2.405,0,4.345s-1.4,3.957-1.862,3.181-.543-2.172-1.474-4.345-1.63-3.181-2.949-4.112a5.159,5.159,0,0,1-2.327-3.957c-.156-1.785,1.707-2.793,0-2.949s-1.319.388-2.483-.31-3.1-1.63-3.8-.931-.7-.155-.776,1.474-1.552,1.552-1.63,3.647,2.405,1.939,3.336,1.707,2.172-.776,3.181-.155a22.658,22.658,0,0,1,3.957,3.181c1.474,1.474,2.483,1.862,2.793,4.5s-.31,2.4.388,3.259S182.813,90.862,182.813,90.862Z" transform="translate(-136.72 -65.822)"/><path class="h" d="M202.1,99.832s-.278,0,0-1.183a3.144,3.144,0,0,1,1.67-2.5c1.183-.7,1.879,2.644,2.992,1.183a3.907,3.907,0,0,0,.626-3.339c-.069-.278.073-1.53-1.181-1.53s-1.741-1.253-2.646.9-3.339,5.844-3.339,6.47.765,1.809,1.461,1.67S202.1,99.832,202.1,99.832Z" transform="translate(-151.603 -77.291)"/></svg>