<svg xmlns="http://www.w3.org/2000/svg" width="502.045" height="295.051" viewBox="0 0 502.045 295.051"><defs><style>.a{fill:#eadff1;}.b,.p{fill:#964197;}.b,.c,.e,.g,.h,.i,.j,.k,.l,.m,.n{fill-rule:evenodd;}.c,.h{fill:#fff;}.d{fill:#20221d;}.e{fill:#985b05;}.f,.n{fill:#231f20;}.g{fill:#ed1d43;}.h{stroke:#000;stroke-linecap:round;stroke-linejoin:round;stroke-width:2.987px;}.i{fill:#f6ec50;}.j{fill:#dba0c7;}.k{fill:#5f2e00;}.m{fill:#f17fb1;}.o{fill:none;}</style></defs><g transform="translate(-783.8 -381.858)"><path class="a" d="M1125.874,512.383c-.216,2.467,3.534,2.76,5.9,2.04,21.792-6.63,44.375-13.7,61.159-29.1a76.671,76.671,0,0,0,17.477-23.761c2.877-6.113,4.957-12.716,5.03-19.471.095-8.744-3.182-17.244-7.747-24.7a74.355,74.355,0,0,0-122.438-6.407c-15.57,20.32-19.561,46.854-26.113,71.6s-18.15,50.942-41.406,61.64c-9.828,4.521-21.127,5.909-30.02,12.071-9.953,6.9-15.287,18.671-18.867,30.239-6.369,20.579-7.653,45.62,7.373,61.059,11.9,12.232,30.411,14.71,47.45,15.744,21.7,1.317,46.219.314,61.083-15.544,3.416-3.645,6.149-7.94,9.935-11.2,12.1-10.417,30.249-7.311,46.03-4.9a289.26,289.26,0,0,0,50.292,3.243c22.407-.514,45.8-4.051,63.866-17.318,10.969-8.057,19.776-20.6,19.149-34.193-.483-10.472-6.525-20.087-14.407-27s-17.51-11.477-27.126-15.651a499.926,499.926,0,0,0-63.606-22.636c-12-3.377-24.989-6.839-32.841-16.521" transform="translate(11.786)"/><g transform="translate(1023.364 387.403)"><g transform="translate(236.742)"><path class="b" d="M1232.114,454.809a6.9,6.9,0,0,0,1.909.795h1.592c2.227-11.775,4.138-23.709,6.047-35.484,1.114-5.888,2.546-14,3.819-21.481-.477-.16-1.113-.477-1.75-.637a8.424,8.424,0,0,0-1.909-.159C1238.319,416.3,1234.979,437.623,1232.114,454.809Z" transform="translate(-1230.841 -386.36)"/><path class="c" d="M1246.8,389.072a3.657,3.657,0,0,0-2.227-.637,4.341,4.341,0,0,0-1.433,0q-.954,4.775-1.909,10.025a9.152,9.152,0,0,1,1.909.159c.637.16,1.273.477,1.75.637C1245.522,395.6,1246.158,391.937,1246.8,389.072Z" transform="translate(-1230.246 -386.978)"/><path class="d" d="M1245.4,387.089a3.815,3.815,0,0,0-2.227.319c-.477,0-.8.159-.8.636-1.75,8.593-4.137,22.914-5.729,31.507-2.069,11.934-3.978,23.869-5.728,35.963v.159c.159,1.114,1.909,1.592,2.865,1.75.636.159,2.546.319,2.863-.636,3.979-20.368,8.275-46.783,12.411-67.31a.959.959,0,0,0-.159-.637A5.691,5.691,0,0,0,1245.4,387.089Zm-.159,1.273a5.349,5.349,0,0,1,2.227.8c-.637,2.865-1.273,6.524-1.91,10.184-1.273,7.478-2.7,15.753-3.819,21.481-1.909,11.776-3.819,23.71-6.047,35.484a2.7,2.7,0,0,1-1.592,0,6.9,6.9,0,0,1-1.909-.795c3.023-17.186,6.205-38.509,9.707-56.808.636-3.5,1.273-7,1.909-10.184A4.417,4.417,0,0,1,1245.241,388.362Z" transform="translate(-1230.919 -387.063)"/></g><g transform="translate(227.99 44.576)"><path class="e" d="M1224.645,454.944a18.872,18.872,0,0,1,4.138,5.251,18.275,18.275,0,0,1,6.365-2.7c2.386-.637,5.092-1.114,6.683-3.023,2.386-2.229,2.386-5.729,2.7-6.048.8-.954,2.546-2.863,1.114-6.842,2.068-1.273,3.659-3.5,1.432-5.728-.159,0,2.227-5.092,0-5.728a8.839,8.839,0,0,0-5.411.477,9.725,9.725,0,0,0-3.342,3.819c-1.273,2.386,1.433,2.227,2.706,2.068.159,0,0,.8,0,1.592-2.865,1.433-5.411,3.342-3.342,4.773a5.628,5.628,0,0,0,1.432.637,25.029,25.029,0,0,1-1.909,3.023c-.319.319-.956.954-.8,1.432.159.637-2.387.16-2.387-.636,0-1.432-.477-3.5-1.59-4.3-.478.159.159-.954.954-1.591a13.633,13.633,0,0,0,3.023-3.023c1.432-3.183-.8-4.3-3.66-3.183-1.59,2.387-3.5,2.706-5.728,3.979-4.3,2.7.319,7.161-.16,10.98A6.218,6.218,0,0,1,1224.645,454.944Z" transform="translate(-1222.576 -428.844)"/><path class="f" d="M1222.7,455.327a26.973,26.973,0,0,1,5.092,6.047,9.28,9.28,0,0,1,3.5-1.273c3.182-1.91,7.478-2.069,10.343-3.979a8.649,8.649,0,0,0,3.659-7.478c.16-.16.478-.318.637-.637,1.273-1.432,1.909-3.819.8-5.409,2.386-1.592,4.3-5.888,1.113-7.638,1.114-1.433,2.069-3.5.637-4.933-1.75-1.75-4.615-1.113-6.683-.319-1.75.8-4.455,2.546-5.092,4.615a2.266,2.266,0,0,0-2.546-1.432,3.341,3.341,0,0,0-2.069,2.069c-1.273,2.227-5.092,2.7-7.16,4.3a3.973,3.973,0,0,0-1.273,4.138c1.113,3.659,3.659,6.682.636,10.024,0,.159-.159.159-.159.319A7.185,7.185,0,0,1,1222.7,455.327Zm13.049,1.273a19.676,19.676,0,0,0-6.047,2.546,19.106,19.106,0,0,0-4.138-4.615,7.313,7.313,0,0,0,2.069-4.775c.319-3.659-4.138-7.956.159-10.5,2.069-1.273,3.979-1.75,5.411-3.819,2.7-.954,3.342,0,2.069,3.182a12.233,12.233,0,0,1-2.865,2.865c-.954.637-2.386.954-3.023,1.75a1.012,1.012,0,0,0,.477,1.592c.16.159.16.159.318.159.636.319.954-.159,1.114-.636a5.621,5.621,0,0,0,1.273-.8,4.1,4.1,0,0,1,1.59,3.5,2.72,2.72,0,0,1-1.113,2.069c-.637.477-1.433.477-1.591,1.432-.159.477.477,1.114.477,1.114.319.159.8.319,1.114,0a6.471,6.471,0,0,0,2.068-3.023c.318,1.273,1.91,2.069,3.183,2.386a7.679,7.679,0,0,0,5.888-1.113,14.973,14.973,0,0,1-2.228,4.138C1240.366,455.8,1237.82,456.281,1235.752,456.6Zm10.343-21.641-3.819,1.432c-.159-.159-4.455.159-3.342-2.069a8.725,8.725,0,0,1,3.5-2.863c1.273-.637,3.023-1.273,4.455-.8C1248.959,431.3,1246.89,434.163,1246.094,434.959Zm-12.57,7.638a11.321,11.321,0,0,0,2.228-1.592l.477-.477a3.034,3.034,0,0,0,1.114,3.978,7.564,7.564,0,0,0-1.91,2.069v0a6.734,6.734,0,0,0-.318-1.75A8.355,8.355,0,0,0,1233.524,442.6Zm11.3-.477c-1.59.636-4.932,2.068-6.524.636-1.432-1.114.954-2.865,3.5-4.3.16,0,5.252-2.387,5.252-2.228C1249.436,438.459,1247.05,441.005,1244.821,442.12Zm-.159,5.091a6.075,6.075,0,0,1-5.092,1.91c-.637,0-2.227-.159-2.546-.954-.159-.477.477-1.114.8-1.433.636-.636,1.75-.954,2.386-1.59a11.672,11.672,0,0,0,5.092-1.433A3.2,3.2,0,0,1,1244.663,447.211Zm-7-9.547a3.34,3.34,0,0,0,.955.637c-.318.159-.637.477-.955.636l-.477.477A12.755,12.755,0,0,0,1237.661,437.664Z" transform="translate(-1222.703 -428.908)"/></g><g transform="translate(0 141.168)"><path class="e" d="M1033.559,547.529a2.044,2.044,0,0,1-.637-1.591c.16-1.75,2.706-3.5,2.865-3.5a3.247,3.247,0,0,0,1.432-3.5c0-.159-.317-.159-.636-.159-1.75,0-5.411,1.59-7.32,3.023-3.183,2.386-6.683,4.773-9.071,4.773a2.691,2.691,0,0,1-1.59-.477,1.957,1.957,0,0,1-.8-1.591c-.16-2.7,4.136-7.161,4.615-7.638a21.25,21.25,0,0,1,4.614-3.182c-1.113.159-2.228.159-3.023.318-1.113,0-2.7.956-4.3,1.91-2.228,1.273-4.455,2.546-6.365,2.546-2.069,0-2.865-.955-3.182-1.592a4.316,4.316,0,0,1,.636-4.455c.8-2.546,4.773-3.979,8.752-4.775-6.525-.955-6.842-1.909-7-2.386a2.107,2.107,0,0,1,.318-1.91c1.273-1.591,4.773-2.863,8.593-2.863h1.114c3.342.159,8.274,1.75,12.093,3.182a34.2,34.2,0,0,0,5.252,1.591h.477c2.546,0,5.888-2.387,5.888-2.387l.955-.8,3.659,10.025-5.41,1.432c.159.637.317,1.75.8,3.66.955,4.455-.637,7.32-3.342,10.343a5.956,5.956,0,0,1-4.615,2.069C1036.264,549.6,1034.355,548.8,1033.559,547.529Z" transform="translate(-1008.612 -519.522)"/><path d="M1022.493,521.331c5.251.319,14.162,4.456,17.185,4.933h.636c3.023,0,6.525-2.546,6.525-2.546l2.863,7.8-5.251,1.433a33.044,33.044,0,0,0,.8,4.615c.954,3.818-.318,6.364-3.023,9.388a5.017,5.017,0,0,1-3.819,1.75,6.8,6.8,0,0,1-4.3-1.433c-1.273-1.113.954-3.023,2.069-3.659a4.11,4.11,0,0,0,1.909-4.615,1.589,1.589,0,0,0-1.592-.8c-2.228,0-5.887,1.75-7.956,3.182-2.387,1.751-6.365,4.615-8.592,4.615a2.269,2.269,0,0,1-.956-.318c-1.75-1.433,1.75-5.888,3.819-7.957s8.115-4.933,8.115-4.933-4.932.16-7.478.477c-2.706.319-7.638,4.456-10.5,4.456s-3.182-2.546-1.592-4.773c1.433-4.615,16.39-5.252,16.39-5.252s-14-1.113-14.48-2.7c-.477-1.432,3.342-3.5,8.115-3.5A3.1,3.1,0,0,0,1022.493,521.331Zm-10.5,1.433a2.778,2.778,0,0,0-.477,2.7c.318.637.477,1.432,3.659,2.228-2.546.8-4.615,2.229-5.41,4.138-1.114,1.91-1.433,3.978-.637,5.411a4.2,4.2,0,0,0,3.978,2.227h.16c1.909,0,4.3-1.432,6.684-2.7a17.257,17.257,0,0,1,2.386-1.273,3.483,3.483,0,0,0-.8.636c-.8.8-4.932,5.251-4.774,8.434a3.385,3.385,0,0,0,1.114,2.387,3.8,3.8,0,0,0,2.227.795c2.7,0,6.205-2.386,9.707-4.932a16.938,16.938,0,0,1,6.683-2.865,2.47,2.47,0,0,1-1.113,1.91c-.318.317-3.183,2.068-3.342,4.3a3.239,3.239,0,0,0,.954,2.386,8.572,8.572,0,0,0,5.569,2.069,7.373,7.373,0,0,0,5.252-2.386c2.546-2.706,4.614-6.048,3.5-11.14-.318-1.113-.477-2.068-.637-2.7l3.5-.955,2.068-.477-.636-1.91-2.865-7.8-.954-2.387-2.069,1.433c-.8.636-3.5,2.227-5.411,2.227H1040a33.371,33.371,0,0,1-5.092-1.591c-3.979-1.432-8.911-3.182-12.411-3.342h-1.114C1017.241,519.581,1013.422,520.854,1011.991,522.764Z" transform="translate(-1008.684 -519.581)"/></g><g transform="translate(140.153 250.01)"><g transform="translate(0.796)"><path class="c" d="M1162.25,653.669a25.9,25.9,0,0,1-3.5-.318,66.917,66.917,0,0,1-7.638-1.909,28.748,28.748,0,0,1-3.342-1.273c-.8-.477-1.591-.8-2.227-1.114l-.637-.319V648.1a38.1,38.1,0,0,0,.16-5.729,17.2,17.2,0,0,0-.16-2.863,36.372,36.372,0,0,0-.954-5.092,18.974,18.974,0,0,0-1.273-3.183l-.477-.955-.159-.318v-.317c.159-.637,1.432-6.843,5.409-6.843,1.91,0,4.138,1.592,6.365,4.933l.16.159c.159,0,.159.16.317.319l.16.16,1.909,8.751.477.159c1.114.319,2.865,1.114,4.933,1.91.8.318,1.592.636,2.546.954,1.909.8,3.819,1.433,5.411,2.227.795.318,1.59.8,2.386,1.114a48.043,48.043,0,0,1,4.933,2.387,21.908,21.908,0,0,1,5.569,3.659l1.113,1.114-1.432.477a49.024,49.024,0,0,1-11.934,2.387,38.865,38.865,0,0,1-4.3.159Z" transform="translate(-1140.928 -621.685)"/><path d="M1153.567,628.118c.159.159.159.318.318.477l.477,2.546.8,3.978.477,2.546a2.465,2.465,0,0,1,.956.319c1.113.477,2.863,1.114,4.932,1.909.8.319,1.592.637,2.546.956,1.75.636,3.66,1.432,5.411,2.227.8.319,1.592.8,2.386,1.113,1.751.8,3.5,1.591,4.933,2.387a19.984,19.984,0,0,1,5.251,3.342,57.2,57.2,0,0,1-11.616,2.228,38.629,38.629,0,0,1-4.3.16,29.3,29.3,0,0,1-3.66-.16,25.933,25.933,0,0,1-3.5-.319,45.854,45.854,0,0,1-7.478-1.75c-1.114-.477-2.069-.8-3.183-1.273-.8-.317-1.432-.636-2.227-.955a35.192,35.192,0,0,0,.159-5.728,18.324,18.324,0,0,0-.159-2.865,30.367,30.367,0,0,0-.954-5.251,20.8,20.8,0,0,0-1.273-3.342c-.16-.319-.477-.637-.637-.954,0,0,1.114-6.048,4.456-6.048C1149.111,623.662,1151.021,624.935,1153.567,628.118Zm-12.413.8-.159.8.477.636a3.429,3.429,0,0,1,.477.8,13.365,13.365,0,0,1,1.114,3.023,35.633,35.633,0,0,1,.8,4.933c0,.955.159,1.909.159,2.864,0,3.183-.159,5.569-.159,5.569l-.16,1.273,1.114.637c.8.319,1.432.8,2.387,1.113a28.374,28.374,0,0,0,3.341,1.273,42.846,42.846,0,0,0,7.8,1.91c1.113.159,2.228.159,3.5.318a30.734,30.734,0,0,0,3.819.159,40.311,40.311,0,0,0,4.455-.159,49.21,49.21,0,0,0,12.094-2.387l2.864-.955-2.068-2.069a21.8,21.8,0,0,0-5.729-3.819,48.018,48.018,0,0,0-4.932-2.387c-.8-.317-1.592-.795-2.387-1.113-1.591-.637-3.5-1.433-5.411-2.228-.954-.318-1.75-.637-2.546-.956-1.59-.636-3.342-1.273-4.932-1.909l-.318-1.591-.8-3.978-.477-2.546V627.8l-.159-.319c-.16,0-.16-.159-.318-.317l-.159-.16c-2.546-3.5-4.775-5.251-7.161-5.251C1142.905,621.753,1141.473,628.6,1141.155,628.914Z" transform="translate(-1140.996 -621.753)"/><g transform="translate(2.865 6.365)"><path class="g" d="M1153.551,628.205c-.159-.159-.159-.319-.319-.477l-9.547,2.7a16.3,16.3,0,0,1,1.273,3.342l9.07-2.864Z" transform="translate(-1143.685 -627.728)"/><path class="g" d="M1154.7,634.3l-9.07,4.3c0,.956.159,1.91.159,2.865l10.5-4.138a5.142,5.142,0,0,1-.956-.317Z" transform="translate(-1143.558 -627.299)"/><path class="g" d="M1161.074,638.931,1147.867,648a26.6,26.6,0,0,0,3.183,1.273l12.57-9.23A12.288,12.288,0,0,1,1161.074,638.931Z" transform="translate(-1143.412 -626.997)"/><path class="g" d="M1174.995,645.2l-6.365,5.729a44.391,44.391,0,0,0,11.616-2.227A58.876,58.876,0,0,0,1174.995,645.2Z" transform="translate(-1142.057 -626.587)"/><path class="g" d="M1168.378,642.217l-10.5,8.752c1.273.159,2.387.159,3.5.318l9.388-8.115Z" transform="translate(-1142.759 -626.782)"/></g></g><path class="h" d="M1143.114,641.195l-2.865,3.978c14.958,16.072,45.668,4.774,45.668,4.774-1.909-4.774-15.594-10.82-15.594-10.82s-4.456,7-8.275,4.455c-3.978-2.546.8-5.728.8-5.728l-5.251-1.91C1152.82,645.968,1142.8,641.354,1143.114,641.195Z" transform="translate(-1140.249 -620.827)"/></g><g transform="translate(36.245 253.033)"><g transform="translate(0.16)"><path class="c" d="M1046.232,657.461l-1.433-.317.956-1.114c.8-1.114,2.546-2.387,5.092-4.138,1.273-.8,2.864-1.909,4.614-2.865a17.206,17.206,0,0,0,2.387-1.273c1.592-.954,3.183-1.909,5.092-2.863.8-.477,1.592-.8,2.387-1.273,1.909-1.114,3.659-1.91,4.614-2.387.16-.159.318-.319.478-.319l.954-8.911.318-.795c2.068-3.819,4.137-5.569,6.205-5.569,3.66,0,5.569,5.728,5.729,6.364l.159.318-.159.318-.478.955a10.3,10.3,0,0,0-.954,3.342,51.865,51.865,0,0,0-.318,5.251c0,.956.16,1.91.16,2.865a42.208,42.208,0,0,0,.636,5.569l.16.637-.477.318c-.637.319-1.433.8-2.229,1.273a29.544,29.544,0,0,1-3.182,1.591,59.054,59.054,0,0,1-7.479,2.546,27.545,27.545,0,0,1-3.5.8,46.752,46.752,0,0,1-8.115.8h-1.114A42.725,42.725,0,0,1,1046.232,657.461Z" transform="translate(-1042.731 -624.523)"/><path d="M1082.48,632.069c-.16.318-.318.8-.478,1.114a12.673,12.673,0,0,0-.954,3.5,30.846,30.846,0,0,0-.319,5.411c0,.955.16,1.909.16,2.865.319,3.342.8,5.728.8,5.728a14.631,14.631,0,0,1-2.069,1.273,27.547,27.547,0,0,1-3.023,1.591,50.306,50.306,0,0,1-7.32,2.546,25.546,25.546,0,0,1-3.342.8,49.832,49.832,0,0,1-7.957.8h-1.114a46.714,46.714,0,0,1-10.661-1.114,23.913,23.913,0,0,1,4.933-3.978c1.432-.956,3.023-1.91,4.615-2.865.636-.318,1.432-.8,2.227-1.273a56.913,56.913,0,0,1,5.092-2.865c.8-.477,1.592-.8,2.387-1.273,1.909-1.113,3.659-1.909,4.614-2.386l.956-.477.317-2.706.478-3.978.318-2.706c.16-.159.16-.318.318-.477,2.069-3.819,3.978-5.092,5.411-5.092C1080.888,626.5,1082.639,632.229,1082.48,632.069Zm-11.934-.954-.16.16a.554.554,0,0,0-.159.318l-.16.318v.319l-.317,2.7-.477,3.979-.16,1.591c-.954.477-2.7,1.433-4.615,2.387a17.49,17.49,0,0,0-2.386,1.273c-1.75.954-3.5,1.909-5.092,2.865a17.206,17.206,0,0,0-2.387,1.273,39,39,0,0,0-4.615,2.863,28.929,28.929,0,0,0-5.251,4.3l-1.909,2.387,2.864.8a54.287,54.287,0,0,0,11.138,1.113h1.273a47.067,47.067,0,0,0,8.275-.795c1.113-.319,2.386-.477,3.5-.8a39.476,39.476,0,0,0,7.638-2.706,29.622,29.622,0,0,0,3.182-1.59,13.83,13.83,0,0,0,2.229-1.273l1.113-.637-.318-1.273a47.14,47.14,0,0,1-.637-5.569,17.325,17.325,0,0,1-.159-2.865,25,25,0,0,1,.317-5.092,15.549,15.549,0,0,1,.8-3.182,1.706,1.706,0,0,1,.318-.954l.318-.637-.16-.8c-.159-.8-2.228-7-6.682-7C1075.319,624.591,1073.092,626.66,1070.546,631.115Z" transform="translate(-1042.858 -624.591)"/><g transform="translate(3.341 7.001)"><path class="g" d="M1070.362,631.64c.16-.159.16-.318.318-.477l9.707,1.591a12.635,12.635,0,0,0-.954,3.5l-9.388-1.909Z" transform="translate(-1044.424 -631.163)"/><path class="g" d="M1069.823,638.035l9.388,3.341c0,.956.159,1.91.159,2.865l-10.82-3.182.955-.477Z" transform="translate(-1044.522 -630.714)"/><path class="g" d="M1064.215,643.113l14.162,7.638a27.547,27.547,0,0,1-3.023,1.591l-13.526-7.957C1062.624,643.909,1063.578,643.59,1064.215,643.113Z" transform="translate(-1044.96 -630.383)"/><path class="g" d="M1050.927,650.881l6.842,5.092a46.177,46.177,0,0,1-11.776-1.114C1046.79,653.744,1048.7,652.471,1050.927,650.881Z" transform="translate(-1045.994 -629.876)"/><path class="g" d="M1057.185,647l11.3,7.638a25.546,25.546,0,0,1-3.342.8l-10.184-7.161C1055.593,647.952,1056.389,647.474,1057.185,647Z" transform="translate(-1045.409 -630.129)"/></g></g><path class="h" d="M1084.557,643.646l3.183,3.66c-13.366,17.5-45.032,9.388-45.032,9.388,1.433-4.933,14.48-12.413,14.48-12.413s4.933,6.365,8.593,3.5-1.432-5.569-1.432-5.569l4.933-2.387C1074.852,649.057,1084.4,643.487,1084.557,643.646Z" transform="translate(-1042.708 -623.596)"/></g><g transform="translate(35.234 66.062)"><path class="b" d="M1061.652,656.477a1.437,1.437,0,0,1-.956-.954,1.526,1.526,0,0,1,.318-1.432c3.183-3.819,6.524-7.8,9.548-11.776,4.455-5.729,8.593-11.3,12.252-16.868,3.342-5.092,6.525-10.184,9.388-15.116,2.069-3.342,3.819-6.842,5.569-10.344,2.546-5.251,4.933-10.661,6.843-15.752a124.8,124.8,0,0,0,7-27.21c.159-.8.159-1.75.319-2.546,1.59-16.072-1.433-26.1-2.546-29.279-3.66.954-8.752,3.5-15.276,7.319-1.592.955-3.183,1.91-4.774,3.023-8.594,5.411-17.345,11.776-23.233,16.231-4.773,3.819-8.115,6.365-8.115,6.365a2.251,2.251,0,0,1-.954.319h-.318a1.008,1.008,0,0,1-.954-.8l-13.049-31.188a1.446,1.446,0,0,1,.477-1.75,85.163,85.163,0,0,1,11.3-5.888c5.092-2.227,11.457-4.615,18.935-7.479,1.91-.795,3.979-1.432,6.047-2.228,3.5-1.273,7.321-2.546,11.457-3.978,1.273-.319,3.979-1.273,3.979-1.273,2.227-.637,4.3-1.433,6.365-2.069l1.909-.636c2.069-.637,3.978-1.273,5.888-1.91l1.909-.636c3.024-.956,5.729-1.91,8.275-2.706,6.524-2.069,10.82-3.342,10.82-3.342h.477a2.271,2.271,0,0,1,.956.318,1.811,1.811,0,0,1,.477,1.273c-.954,6.842,3.023,14.162,6.524,18.936.637.795,1.114,1.432,1.75,2.227s1.114,1.432,1.591,1.909a40.543,40.543,0,0,0,4.615-7.956c.955-2.069,1.909-4.3,2.864-6.843,2.706-7,4.615-13.685,4.615-13.685a1.613,1.613,0,0,1,1.433-.955h4.136c.8,0,1.751-.159,2.546-.159h.16c.477,0,.955-.16,1.432-.16a185.63,185.63,0,0,0,20.687-3.659c2.227-.954,4.3-1.91,6.682-3.023a136.558,136.558,0,0,0,24.187-14.958c3.023-2.229,5.888-4.615,8.752-7.161a102.527,102.527,0,0,0,7.956-7.638,1.718,1.718,0,0,1,1.114-.477,1.2,1.2,0,0,1,.8.159c13.047,8.275,15.435,32.144,15.594,33.1a1.806,1.806,0,0,1-.477,1.273,70.765,70.765,0,0,1-8.433,6.682,117.4,117.4,0,0,1-17.026,9.548,124.616,124.616,0,0,1-16.39,6.047,146.591,146.591,0,0,1-16.549,3.819c-2.7.477-5.409.8-8.115,1.114h-.319c-3.5.317-6.205.636-8.115.636,1.91,4.774,3.66,14.64,4.615,22.755.637,6.205,1.114,12.57,1.273,18.458.318,10.343-.477,24.027-4.932,30.392-2.069,3.023-3.819,7.8-5.092,14.163-1.75,9.07-2.229,19.571-2.387,26.892s.159,12.73.159,12.73a1.442,1.442,0,0,1-.477,1.113,2.247,2.247,0,0,1-.954.319h-.159a51.883,51.883,0,0,0-6.206-.319c-8.592,0-25.46,1.433-42.008,10.821-10.025,5.569-22.118,8.433-36.121,8.433C1070.245,658.705,1062.13,656.8,1061.652,656.477Z" transform="translate(-1041.705 -448.979)"/><path d="M1248.678,483.766a79.955,79.955,0,0,1-8.434,6.525,105.717,105.717,0,0,1-16.868,9.547,155.4,155.4,0,0,1-16.231,5.888,132.238,132.238,0,0,1-16.389,3.819c-2.865.477-5.569.8-7.957,1.114h-.477a102.191,102.191,0,0,1-10.343.636c2.068,2.069,4.3,12.093,5.728,24.346.636,5.888,1.114,12.094,1.273,18.3.159,12.412-.955,24.187-4.774,29.6-2.387,3.5-4.137,8.911-5.252,14.8a164.833,164.833,0,0,0-2.546,27.052c-.159,7.478.16,12.889.16,12.889a53.265,53.265,0,0,0-6.365-.319c-8.911,0-25.937,1.433-42.645,10.98-11.776,6.524-24.983,8.275-35.485,8.275a96.156,96.156,0,0,1-19.571-1.91c3.5-3.978,6.682-7.957,9.706-11.776,4.456-5.728,8.592-11.456,12.253-16.867,3.5-5.251,6.684-10.184,9.388-15.117,2.069-3.659,3.819-7.16,5.569-10.5a147.8,147.8,0,0,0,7-15.913,128.338,128.338,0,0,0,7.16-27.528c.16-.955.16-1.91.319-2.706,2.227-20.367-3.023-31.188-3.023-31.188-4.3.954-10.343,3.979-16.868,7.8-1.59.956-3.182,2.069-4.774,3.024-8.593,5.409-17.344,11.774-23.391,16.389-5.092,3.819-8.274,6.365-8.274,6.365l-13.049-31.188a73.731,73.731,0,0,1,10.98-5.729c5.251-2.386,11.776-4.932,18.777-7.478,2.069-.8,3.978-1.433,6.047-2.228,3.819-1.273,7.638-2.706,11.457-3.979a29.114,29.114,0,0,0,3.979-1.273c2.228-.636,4.3-1.432,6.365-2.069.636-.159,1.273-.477,1.909-.636,2.069-.637,3.978-1.273,5.888-1.91.636-.159,1.273-.477,1.909-.636,3.023-1.114,5.729-1.91,8.275-2.7,6.524-2.069,10.82-3.342,10.82-3.342-1.273,7.478,3.023,15.116,6.683,20.05a26.852,26.852,0,0,0,1.75,2.228c1.591,1.909,2.7,3.023,2.7,3.023,1.91-1.909,3.979-5.569,5.888-9.547.954-2.387,1.91-4.615,2.865-7,2.865-7.161,4.773-13.685,4.773-13.685h4.138c.8,0,1.75-.159,2.546-.159.477,0,1.113-.16,1.591-.16a209.334,209.334,0,0,0,21.005-3.819c2.227-.954,4.615-1.909,6.842-3.023a140.789,140.789,0,0,0,24.5-15.116c3.5-2.706,6.365-5.092,8.911-7.32a91.87,91.87,0,0,0,8.115-7.638C1245.813,459.9,1248.2,483.925,1248.678,483.766Zm-17.5-33.734a92.764,92.764,0,0,1-7.479,6.842c-2.864,2.546-5.728,4.933-8.752,7.161a144.107,144.107,0,0,1-24.027,14.8c-2.228,1.113-4.455,2.069-6.524,2.865-1.592.318-11.776,2.7-20.528,3.659a3.086,3.086,0,0,1-1.273.16h-.159c-.8,0-1.592.159-2.386.159h-3.979a2.728,2.728,0,0,0-2.7,2.069c0,.159-1.91,6.524-4.615,13.526-.955,2.386-1.909,4.774-2.865,6.682a49.051,49.051,0,0,1-3.5,6.365l-.477-.477a21.316,21.316,0,0,1-1.75-2.227c-3.342-4.615-7.161-11.457-6.206-17.822a2.637,2.637,0,0,0-.954-2.546,3.9,3.9,0,0,0-1.909-.637,1.428,1.428,0,0,0-.8.16c-.16,0-4.456,1.273-10.98,3.342-2.546.8-5.411,1.75-8.434,2.7l-1.909.637c-1.91.636-3.819,1.273-5.888,1.909l-1.91.637c-2.069.636-4.136,1.273-6.365,2.068a29.166,29.166,0,0,0-3.978,1.273c-3.978,1.273-7.957,2.706-11.457,3.979-2.069.8-4.137,1.432-6.047,2.228-7.479,2.865-13.844,5.411-18.936,7.638-5.251,2.386-9.07,4.3-11.456,6.047a2.953,2.953,0,0,0-.955,3.5l13.048,31.189a2.628,2.628,0,0,0,1.909,1.75.962.962,0,0,0,.637.159,2.39,2.39,0,0,0,1.75-.637s3.183-2.545,8.115-6.205c5.888-4.456,14.639-10.82,23.233-16.231l4.773-2.865a66.808,66.808,0,0,1,13.526-6.842c1.273,3.978,3.341,13.366,1.909,27.369-.159.8-.159,1.592-.319,2.546a129.234,129.234,0,0,1-7,26.892,163.219,163.219,0,0,1-6.842,15.753c-1.75,3.5-3.66,6.842-5.569,10.344-2.865,4.932-6.047,9.866-9.388,14.958-3.819,5.409-7.8,11.139-12.253,16.708-3.023,3.819-6.206,7.8-9.547,11.616a2.712,2.712,0,0,0-.478,2.706,2.789,2.789,0,0,0,2.069,1.909,89.034,89.034,0,0,0,20.209,2.069c14.162,0,26.573-3.023,36.757-8.752,16.23-9.07,32.78-10.5,41.213-10.5a47.311,47.311,0,0,1,6.047.319h.318a2.937,2.937,0,0,0,1.909-.8,3.141,3.141,0,0,0,.954-2.229s-.317-5.251-.159-12.57c.159-7.161.637-17.663,2.387-26.573,1.273-6.206,2.863-10.821,4.932-13.686,4.773-6.842,5.411-20.845,5.252-31.347-.16-5.888-.478-12.412-1.273-18.618-.478-3.819-1.91-14.639-4.138-21.323a52.184,52.184,0,0,0,6.365-.477h.477c2.7-.319,5.411-.637,8.115-1.114a141.62,141.62,0,0,0,16.708-3.819,113.558,113.558,0,0,0,16.549-6.047,101.529,101.529,0,0,0,17.345-9.707,88.6,88.6,0,0,0,8.593-6.682,2.732,2.732,0,0,0,.954-2.387c-.159-.954-2.546-25.46-16.231-34.053a3.068,3.068,0,0,0-1.591-.477A2.565,2.565,0,0,0,1231.174,450.031Z" transform="translate(-1041.76 -449.077)"/><path class="i" d="M1214.584,468.034l-7.479-2.227a140.789,140.789,0,0,1-24.5,15.116l-1.273,9.071,9.229-9.071,17.662,9.071-3.66-17.5Z" transform="translate(-1032.649 -447.985)"/><path class="i" d="M1167.819,533.978l2.387-1.75c-1.432-12.093-3.819-22.277-5.729-24.346,0,0,3.979,0,10.5-.636l-11.457-5.888-1.432.8,2.069,8.433-14.8,11.934,15.912-.795Z" transform="translate(-1034.735 -445.664)"/><path class="i" d="M1087.919,530.613c1.591-1.113,3.182-2.069,4.774-3.023l-6.684-5.569,11.457-7.479-13.208-1.75-5.092-6.205c-2.069.8-4.138,1.432-6.047,2.227l-1.91,7.32-14.162,2.227,12.253,7.321-4.137,11.139,13.685-8.275Z" transform="translate(-1040.762 -445.323)"/><path class="i" d="M1115.882,549.5H1109.2c-.159.955-.159,1.75-.317,2.7l6.047,5.251-5.092,13.686,13.843-7.957,15.913,6.205-8.752-11.934,8.752-12.889L1127.18,547.9l-12.253-13.685Z" transform="translate(-1037.378 -443.519)"/><path class="i" d="M1158.139,580.593l4.138,11.616c1.113-6.047,2.863-11.3,5.251-14.8,3.819-5.409,5.092-17.185,4.774-29.6L1162.277,558l-17.5-6.206,10.5,16.708L1139.2,584.73Z" transform="translate(-1035.399 -442.632)"/><path class="i" d="M1111.779,595.24l-8.274-18.3c-1.91,4.932-4.3,10.343-7,15.912l-1.591,9.707-3.979.8c-2.7,4.774-5.887,9.866-9.388,15.116l13.367,2.865-7.957,16.868,11.616-1.592,12.253-10.661,7.8,4.773,8.115-3.342-2.864-17.345,17.344-7.8Z" transform="translate(-1039.162 -440.73)"/><path class="i" d="M1195.368,491.8l1.273,11.3a106.028,106.028,0,0,0,16.231-5.887Z" transform="translate(-1031.732 -446.288)"/><path class="i" d="M1173.858,507.392c2.387-.318,5.092-.637,7.957-1.114l-.477-7.161Z" transform="translate(-1033.136 -445.81)"/><path class="j" d="M1061.231,644.647s30.711,7.32,54.9-6.364,49.01-10.661,49.01-10.661-.318-5.411-.159-12.89c-7.319.319-24.027,1.433-37.394,5.569a57.365,57.365,0,0,0-11.3,4.933c-.318.159-.477.159-.637.319a40.4,40.4,0,0,1-10.661,4.3,93.661,93.661,0,0,1-15.116,2.546,168.2,168.2,0,0,1-19.254.477C1067.595,636.692,1064.254,640.669,1061.231,644.647Z" transform="translate(-1040.489 -438.263)"/><path class="j" d="M1056.942,553.072s3.342-2.7,8.274-6.365c-5.569-10.343-8.911-24.823-10.184-30.711a61.173,61.173,0,0,0-10.979,5.729Z" transform="translate(-1041.61 -444.709)"/><path class="j" d="M1213.89,459.4c3.819,5.092,11.934,17.185,14.64,30.87a79.894,79.894,0,0,0,8.433-6.524s-2.386-24.028-14.957-31.984A91.873,91.873,0,0,1,1213.89,459.4Z" transform="translate(-1030.523 -448.901)"/><path class="j" d="M1139.341,528.429c9.548-10.184,17.026-33.257,19.731-42.009a50.423,50.423,0,0,1-8.274.319s-7,23.869-13.526,30.075c0,0-13.207-12.89-11.3-25.3,0,0-4.138,1.273-10.821,3.342C1119.45,515.858,1139.341,528.429,1139.341,528.429Z" transform="translate(-1036.969 -446.639)"/></g><g transform="translate(78.045 40.125)"><g transform="translate(0 16.625)"><path class="k" d="M1092.671,505.881c2.227-.636,21.959-7.319,24.5-8.115,6.525-2.069,10.821-3.342,10.821-3.342-1.273,7.479,3.023,15.117,6.682,20.05,3.819.319,6.525-1.432,8.434-5.251a17.754,17.754,0,0,1,4.933-5.888c2.865-7.161,4.773-13.685,4.773-13.685a35.959,35.959,0,0,0,4.138,0l.477-.955c1.909-2.865,2.865-5.092,2.227-8.593-.477-2.706-1.273-5.252-1.592-8.115-.636-6.525,1.433-12.094-1.909-18.3-3.023-5.729-9.548-9.866-15.753-11.3a22.641,22.641,0,0,0-18.936,4.3c-3.5,3.023-4.3,7-9.07,8.434-3.023.8-5.728.319-8.115,2.7-1.909,1.91-3.342,4.456-5.092,6.525a17.8,17.8,0,0,1-5.251,4.455c-3.66,1.91-3.66,5.729-4.137,9.23-.319,2.865-.477,8.751-3.5,10.343a7.787,7.787,0,0,0-1.114.477c-2.069.477-.477,2.546.637,3.5.954.956,2.546,2.069,2.7,3.5.477,3.659-2.386,7.8.8,9.229" transform="translate(-1081.801 -440.239)"/><path class="l" d="M1092.218,504.761h.478c-5.092-2.865,3.341-6.842,2.386-11.139a4.764,4.764,0,0,0-2.386-3.342c-2.865-1.591-.478-2.865,1.75-4.456.636-.636,1.113-1.273,1.75-1.909,1.432-1.75,1.273-4.3.955-6.365-.477-3.023-.955-5.888,2.7-7,.8-.319,1.592-.478,2.387-.8,1.273-.637,2.7-1.273,3.182-2.706,1.273-3.182.8-7.956,5.252-8.593,1.273-.159,1.273-2.069,0-1.909-2.546.317-4.456,1.432-5.411,3.978-.636,1.75-.8,3.5-1.432,5.251-.8,2.229-3.5,2.546-5.411,3.183-1.592.477-3.342,1.909-3.5,3.659-.319,3.183,1.909,8.275-.954,10.821-1.273,1.113-2.706,2.069-3.979,3.182-.954.954-2.069,3.023-.636,3.979,1.75,1.273,4.773,2.546,2.863,5.569-.636.954-1.432,1.909-2.068,2.863-1.273,2.069-1.433,3.819-.8,5.092A8.5,8.5,0,0,0,1092.218,504.761Z" transform="translate(-1081.508 -439.278)"/><path class="l" d="M1097.1,497.8a8.346,8.346,0,0,0,1.273,3.66c.637-.16,1.273-.478,1.91-.637a4.521,4.521,0,0,1-.956-4.932c.16-.319,1.433-2.387,1.433-3.342-.16-2.865-2.865-5.252,1.273-6.842,1.113-.477,2.546-1.114,2.863-2.546.637-2.387-.954-7.161,1.591-8.434,1.114-.477.16-2.069-.954-1.592-3.023,1.432-3.023,2.7-2.387,5.729,1.114,5.092-4.773,4.932-6.205,8.751-.8,1.91,2.7,3.183,1.592,5.251C1097.734,494.3,1096.778,496.2,1097.1,497.8Z" transform="translate(-1080.976 -438.2)"/><path class="l" d="M1105.514,498.41c.637-.159,1.273-.477,1.91-.636-.478-2.706-2.387-6.206.159-8.275,1.909-1.592,3.978-2.7,3.978-5.411a.954.954,0,1,0-1.909,0c-.16,2.706-3.183,3.183-4.456,5.252-1.113,1.909-.955,3.819-.317,5.888A11.325,11.325,0,0,1,1105.514,498.41Z" transform="translate(-1080.483 -437.542)"/><path class="l" d="M1156.944,489.906c.8,0,1.751-.159,2.546-.159,1.114-2.228,2.546-4.138,2.387-6.684-.318-3.659-1.75-7.16-1.91-10.82-.159-3.342.318-6.524.318-9.866a18.185,18.185,0,0,0-4.136-11.934c-6.684-8.115-16.391-11.776-26.733-9.388a18.056,18.056,0,0,0-11.776,7.956c-2.865,3.979-5.092,3.819-9.547,4.933a8.469,8.469,0,0,0-4.933,2.7c-2.227,2.387-3.978,5.252-6.047,7.638-1.75,1.91-4.137,2.546-5.888,4.3-3.182,3.024-2.7,8.434-3.5,12.413-.637,2.863-1.273,5.569-4.456,6.682-.477.16-.636.477-.954.954a2.443,2.443,0,0,0,0,2.546c.477,1.433,2.069,2.387,3.023,3.342,2.706,2.546.477,5.252.477,8.115,0,2.387.956,3.819,2.865,4.456a29.166,29.166,0,0,0,3.978-1.273h-.477a8.448,8.448,0,0,1-2.546-.637c-3.182-1.591-.159-5.569-.8-9.229-.159-1.433-1.75-2.546-2.7-3.5-1.113-.954-2.7-3.023-.636-3.5a7.713,7.713,0,0,0,1.113-.477c3.023-1.591,3.183-7.478,3.5-10.343.478-3.66.637-7.32,4.138-9.23a14.078,14.078,0,0,0,5.252-4.455c1.75-2.069,3.182-4.615,5.091-6.525,2.546-2.386,5.092-1.909,8.116-2.7,4.774-1.432,5.569-5.411,9.07-8.434a22.722,22.722,0,0,1,18.777-4.3c6.205,1.433,12.73,5.569,15.753,11.3,3.342,6.047,1.273,11.775,1.909,18.3.319,2.7,1.114,5.409,1.592,8.115.637,3.5-.318,5.728-2.227,8.593A9.041,9.041,0,0,1,1156.944,489.906Z" transform="translate(-1081.947 -440.336)"/></g><g transform="translate(24.381 19.095)"><path class="e" d="M1137.1,521.212l-10.82-16.231a66.307,66.307,0,0,1-13.526-7A13.011,13.011,0,0,1,1108.93,494c-3.5-5.092-7.32-17.186,6.842-40.736l.16-.318c.954-1.592,6.205-9.547,16.231-9.547a17.5,17.5,0,0,1,4.932.636q11.7,2.865,15.753,10.98c3.5,7,2.706,17.026-2.546,29.915h.16a4.224,4.224,0,0,1,3.5,1.433,4.941,4.941,0,0,1,.8,4.136c-.8,4.615-1.432,6.525-4.773,6.525h-.477a20.674,20.674,0,0,0-.478,2.069l.318,1.909v.159c-.159.318-2.069,6.684-4.455,10.661a63.015,63.015,0,0,1-6.842,8.752Z" transform="translate(-1104.779 -442.605)"/><path d="M1137.15,445.2c13.526,3.342,23.71,13.049,11.776,41.054a10,10,0,0,1,1.75-.159c1.75,0,3.979.636,3.342,4.3-.8,4.933-1.432,5.728-3.819,5.728h-1.273l-.636,3.024.318,1.75s-1.909,6.524-4.3,10.343a59.454,59.454,0,0,1-6.842,8.592l-10.343-15.435a56.81,56.81,0,0,1-13.685-7,11.85,11.85,0,0,1-3.66-3.819c-2.865-4.3-7.161-16.071,7-39.781,0,0,5.251-9.23,15.594-9.23A17.955,17.955,0,0,1,1137.15,445.2Zm-21.8,7.161-.159.317v.16c-14.48,23.869-10.661,36.439-7,41.691a11.888,11.888,0,0,0,4.138,4.3,63.162,63.162,0,0,0,13.526,7l9.866,14.958,1.273,2.069,1.592-1.75c.159-.319,4.615-4.932,7-8.911s4.3-10.5,4.456-10.82l.159-.477v-.477l-.159-1.433c0-.319.159-.8.159-1.113,3.978-.16,4.615-2.865,5.411-7.321a5.855,5.855,0,0,0-.954-4.773,4.679,4.679,0,0,0-3.024-1.591c4.933-12.57,5.57-22.277,2.069-29.438-2.7-5.569-8.274-9.547-16.23-11.457a19.4,19.4,0,0,0-5.092-.636C1122.353,442.654,1116.783,450.292,1115.35,452.361Z" transform="translate(-1104.834 -442.654)"/></g><g transform="translate(36.303 59.223)"><g transform="translate(9.415 3.155)"><path class="m" d="M1130.852,484.777s-4.615,3.819-5.092,3.979c1.273,1.432,4.3,3.341,6.047,2.386C1133.875,489.869,1132.921,485.254,1130.852,484.777Z" transform="translate(-1124.806 -483.187)"/><path class="n" d="M1129.9,488.021c.319-.477-.318-1.114-.8-1.75l-.954.955C1128.627,487.7,1129.423,488.5,1129.9,488.021Z" transform="translate(-1124.65 -483.089)"/><path class="n" d="M1124.864,489.489c1.75,2.387,5.728,4.615,8.274,2.387,1.432-1.114,1.432-3.183,1.114-4.933a7.7,7.7,0,0,0-2.546-3.659l-.318.636c-.159.159-.159.477-.319.637a2.186,2.186,0,0,0-.477.636c1.91.636,3.023,4.3.954,5.569-1.75.955-3.819-.636-5.092-2.069a5.537,5.537,0,0,0,1.273-.8,1.591,1.591,0,0,1-.795.637h-.16l-.954.477A5.264,5.264,0,0,0,1124.864,489.489Z" transform="translate(-1124.864 -483.284)"/></g><path class="n" d="M1116.53,490.478a18.183,18.183,0,0,0,9.228-.8c.319-.159.8-.319,1.114-.477a11.858,11.858,0,0,0,1.909-1.114,9.156,9.156,0,0,0,1.592-1.273,10.321,10.321,0,0,0,1.273-1.432,14.437,14.437,0,0,0,.8-1.273,1.725,1.725,0,0,1,.318-.636,5.49,5.49,0,0,0,.477-2.069,1.04,1.04,0,0,0-1.75-.8c-1.75,1.909-2.387,4.3-4.615,6.046-2.7,2.228-6.206,2.546-9.547,1.909C1116.053,488.41,1115.574,490.16,1116.53,490.478Z" transform="translate(-1116.026 -480.323)"/></g><g transform="translate(31.205 50.021)"><path class="e" d="M1122.946,476.88c-.159-1.91-1.273-5.888-5.888-5.092.318.159.318.477.16.8-1.114,1.59-5.569,5.728-4.138,7.8,1.114,1.909,3.819,2.069,5.569,1.114a6.792,6.792,0,0,0,3.023-3.66C1121.833,477.2,1122.469,477.039,1122.946,476.88Z" transform="translate(-1111.138 -471.685)"/><path class="n" d="M1112.546,482.759c3.819,3.978,10.343.477,12.093-3.819a1.548,1.548,0,0,0-1.432-1.91c-.637,0-1.273.159-1.433.954a7.563,7.563,0,0,1-3.023,3.66c-1.75.954-4.455.636-5.569-1.114-1.432-2.228,3.023-6.205,4.138-7.8a.7.7,0,0,0-.16-.8.723.723,0,0,0-.795,0C1113.819,474.484,1108.886,479.1,1112.546,482.759Z" transform="translate(-1111.24 -471.676)"/></g><g transform="translate(50.174 37.338)"><ellipse class="f" cx="2.387" cy="2.864" rx="2.387" ry="2.864" transform="translate(0 5.785)"/><path class="n" d="M1130.62,461.744c1.273-1.59,5.569.477,4.932,2.546a.712.712,0,1,0,1.273.637c2.069-3.66-4.932-6.842-7.319-4.138C1128.87,461.427,1129.983,462.54,1130.62,461.744Z" transform="translate(-1129.029 -459.779)"/></g><g transform="translate(29.318 36.515)"><ellipse class="f" cx="1.909" cy="2.228" rx="1.909" ry="2.228" transform="translate(2.398 5.971)"/><path class="n" d="M1110.911,463.545c-.318-1.909,4.137-3.819,5.251-1.909.319.636,1.592.159,1.273-.637-1.273-4.137-8.275-1.113-7.957,2.546C1109.479,464.5,1110.911,464.341,1110.911,463.545Z" transform="translate(-1109.468 -459.006)"/></g><g transform="translate(31.979 15.613)"><path class="k" d="M1132.93,449.688c0,.159,1.591.317,1.432.477,5.411,0,8.592.477,9.865,7.32.956,4.455-4.3,8.592-2.546,12.73,1.273,2.865,2.387,5.092,1.75,8.274-.477,2.229-2.864,5.411.8,6.525,1.114.317,2.546.636,3.342,1.59,1.75,2.069,1.91,4.138,1.114,6.684-.477,1.432-1.433,2.865-1.91,4.3-1.113,2.865,5.569,4.3,6.683,4.933,1.91.954,3.182,2.7,4.933,3.978,2.386,1.75,6.205-2.069,8.115-3.023,3.342-1.592,7,0,10.184.955,2.546,1.114,6.046-1.432,7.319-4.615.159-1.273-1.433-3.023-2.069-3.978a18.77,18.77,0,0,1-2.228-5.888c-.637-2.228-.8-7.8-3.979-7.638-1.75,0-4.932.16-6.682-.317-4.3-1.273-2.229-6.206-5.411-8.594-2.387-1.75-5.569-3.659-5.729-7-.318-5.729,1.751-12.412-3.978-16.868-3.342-2.546-8.115-3.819-12.253-4.774C1138.341,443.959,1134.362,446.346,1132.93,449.688Z" transform="translate(-1110.598 -439.044)"/><path class="k" d="M1135.229,445.4a24.3,24.3,0,0,1-2.546-1.75c-1.909-1.432-5.41-1.432-7.637-1.591-3.342-.159-6.206,5.729-8.752,7.957-2.069,2.069-2.069,2.865.159,2.546a29.514,29.514,0,0,0,3.023-1.75,19.172,19.172,0,0,1,4.775-2.387,6.588,6.588,0,0,1,4.614-.159c.637.319,1.751,1.75,2.865,1.909-.159.16-.159,0,0,0C1133.956,449.058,1133.956,446.99,1135.229,445.4Z" transform="translate(-1111.784 -439.211)"/><path class="n" d="M1154.9,483.185c-1.75-.637-4.774-.637-4.932-3.5,0-1.59.477-3.182.317-4.773a6.135,6.135,0,0,0-1.75-3.5,9.153,9.153,0,0,1-2.227-5.729c0-.477-.477-.477-.636-.159-.478,1.273-1.114,2.865-.478,4.138,1.114,2.546,3.979,4.3,2.706,7.32-1.273,3.5-.319,7,3.342,7.957,1.909.636,6.365.8,5.409,3.659-.636,2.227-1.59,4.138-1.59,6.525.159,3.978,3.978,4.932,7.16,4.3,1.751-.319.956-2.865-.636-2.546-6.842,1.432-1.91-7.479-2.069-9.867C1159.2,484.935,1156.651,483.821,1154.9,483.185Z" transform="translate(-1109.815 -437.693)"/><path class="n" d="M1161.467,484.595c1.909.318,3.819.954,2.386,3.5a10.561,10.561,0,0,0-1.432,3.023c-.477,6.048,8.752,4.138,10.98,8.275a1.215,1.215,0,0,0,2.069-1.273c-.956-1.75-2.546-2.546-4.3-3.342-2.387-.955-8.115-1.114-5.888-5.092.954-1.75,1.432-3.023.636-4.932-.955-2.229-5.092-1.273-5.251-3.66a.876.876,0,0,0-1.75,0C1158.921,483.163,1159.717,484.276,1161.467,484.595Z" transform="translate(-1108.901 -436.717)"/><path class="n" d="M1166.846,490.036c1.59,2.546,6.205,1.114,7,3.979a.985.985,0,0,0,1.91-.478,4.017,4.017,0,0,0-2.706-3.023c-.8-.317-4.455-.477-4.3-1.909.318-1.433,1.75-2.546,1.75-3.978,0-1.592-1.273-2.069-2.7-2.387-.8-.159-1.114.954-.318,1.114,2.387.795.477,2.545-.159,3.818A3.928,3.928,0,0,0,1166.846,490.036Z" transform="translate(-1108.392 -436.589)"/><path class="o" d="M1134.434,449.6a.584.584,0,0,1-.16.477c5.411,0,10.184.477,11.457,7.32.954,4.455-4.3,8.592-2.546,12.73,1.273,2.865,2.387,5.092,1.75,8.274-.477,2.229-2.864,5.411.8,6.525,1.114.317,2.546.636,3.342,1.59,1.75,2.069,1.909,4.138,1.114,6.684-.478,1.432-1.433,2.865-1.91,4.3-1.114,2.865,3.978,2.706,5.092,3.342,1.91.954,3.182,2.7,4.933,3.978,2.386,1.75,6.205-2.069,8.115-3.023,3.342-1.59,7,0,10.184.955,2.546,1.114,4.455.16,5.728-3.023.159-1.273-1.432-3.023-2.069-3.978a18.8,18.8,0,0,1-2.227-5.888c-.637-2.228-.8-6.205-3.978-6.047a18.3,18.3,0,0,1-5.092-.319c-4.3-1.273-3.819-7.8-7-10.184-2.386-1.75-5.569-3.659-5.728-7-.318-5.729,3.342-10.82-2.387-15.276-3.342-2.546-8.115-3.819-12.253-4.773C1138.253,445.461,1135.865,446.256,1134.434,449.6Z" transform="translate(-1110.51 -438.955)"/><path class="f" d="M1132.707,453.687c.159,0,.318-.159.477-.159,2.069,0,4.3-.318,6.365-.159,6.365.795,5.411,7.32,3.023,11.456-2.228,3.979-.159,6.048.955,9.867.954,3.182-.637,5.251-1.433,8.115a3.641,3.641,0,0,0,.637,3.342,7.639,7.639,0,0,0,3.978,2.227c4.3,1.273,2.069,5.251.954,7.8-.954,2.069-1.273,4.933.954,6.206,2.069,1.273,5.092,1.113,6.683,2.7,1.114,1.273,2.865,3.182,4.615,3.5,5.251.8,8.115-5.251,13.526-3.659,3.659,1.113,7.161,2.7,10.82.636,2.387-1.432,3.023-5.728,1.75-7.957-1.432-2.7-3.023-4.932-3.659-7.956a32.286,32.286,0,0,0-1.91-6.365c-2.228-4.615-9.388,1.592-10.98-4.933-.318-1.909-.795-3.978-2.228-5.251s-3.659-2.387-4.932-3.819c-3.979-4.615,1.909-10.98-1.592-16.231-2.227-3.5-5.729-5.411-9.548-6.842-3.659-1.433-8.751-3.5-12.889-2.546h-.159a.156.156,0,0,0-.16-.16c-.317,0-.477-.159-.795-.317-1.433-.8-2.546-2.069-4.138-2.546a25.457,25.457,0,0,0-4.773-.956c-2.229-.317-5.411-.636-7.321.478-3.023,1.59-2.546,4.614-5.092,6.682a9.243,9.243,0,0,0-3.818,6.365c-.8,5.888,7.32,1.273,9.07.318,2.228-1.273,5.728-3.5,7.956-1.273a4.348,4.348,0,0,0,1.91,1.432Zm3.342-3.182c0-.16.159-.319.159-.477,1.114-3.342,3.66-4.138,7-3.342,4.136.954,8.911,2.227,12.253,4.773,5.728,4.456,2.068,9.547,2.386,15.276.159,3.342,3.342,5.251,5.729,7,3.182,2.387,2.7,9.071,7,10.184a18.3,18.3,0,0,0,5.092.319c3.182-.159,3.342,3.819,3.978,6.047a18.778,18.778,0,0,0,2.229,5.888c.795.955,2.227,2.7,2.068,3.978-1.273,3.023-3.182,4.138-5.728,3.023-3.183-.955-6.842-2.545-10.184-.955-1.909.8-5.728,4.774-8.115,3.023-1.75-1.273-3.023-3.023-4.933-3.978-1.273-.636-6.205-.477-5.092-3.342.637-1.432,1.433-2.865,1.91-4.3.8-2.546.636-4.615-1.114-6.684-.8-.954-2.386-1.273-3.342-1.59-3.659-1.114-1.273-4.3-.795-6.525.636-3.182-.478-5.409-1.751-8.274-1.75-4.138,3.5-8.115,2.546-12.73C1146.073,451.141,1141.3,450.505,1136.049,450.505Zm-.954-5.251c-.956,1.75-1.114,3.818-3.342,4.932a.156.156,0,0,1-.16.159c-.954-.317-2.068-1.59-2.7-1.909a6.59,6.59,0,0,0-4.615.159,19.164,19.164,0,0,0-4.774,2.387c-.954.477-1.909,1.273-3.023,1.75-2.069.477-2.228-.477-.159-2.546,2.386-2.228,5.41-8.115,8.751-7.957,2.228.16,5.729.16,7.638,1.591A10.352,10.352,0,0,0,1135.094,445.255Z" transform="translate(-1111.967 -439.385)"/></g><g transform="translate(29.799)"><path class="b" d="M1157.9,478.247a43.891,43.891,0,0,0-6.842-8.592c-4.773-4.138-14.958-10.5-22.6-11.616-2.865-.319-6.206-.8-9.707-1.114q-2.626-.238-4.3-.477a17.269,17.269,0,0,0-1.909-.16,1.065,1.065,0,0,1-1.114-.636,1.794,1.794,0,0,1-.159-1.273,24.1,24.1,0,0,0,1.273-2.7c1.432-3.183,5.251-9.071,12.411-14.322,8.274-6.047,18.777-9.547,31.188-10.5,3.66-.317,7.32-.477,10.82-.477a118.174,118.174,0,0,1,18.777,1.433c2.229.317,4.3.795,6.365,1.273a10.133,10.133,0,0,1,1.114.317,47.662,47.662,0,0,1,5.092,1.433c7.161,2.546,10.661,4.932,10.82,5.092a1.438,1.438,0,0,1,.478,1.59,1.53,1.53,0,0,1-1.433.956h-.159c-1.75,0-16.868.317-26.256,8.593a16.134,16.134,0,0,0-3.819,4.3,116.223,116.223,0,0,0-9.547,17.822c-1.91,4.3-3.342,7.956-4.138,10.024-.477,1.273-.636,1.75-.8,2.069a1.391,1.391,0,0,1-1.432.954C1160.763,482.225,1159.967,480.952,1157.9,478.247Z" transform="translate(-1109.836 -424.622)"/><path d="M1185.193,429.185a60.418,60.418,0,0,1,6.206,1.273,10.188,10.188,0,0,1,1.113.317c1.75.477,3.5.956,4.933,1.433,7.161,2.386,10.5,4.773,10.5,4.773h-.159c-1.592,0-17.345.159-27.21,8.911a22.444,22.444,0,0,0-3.978,4.615,119.55,119.55,0,0,0-9.707,17.981c-2.865,6.524-4.615,11.3-4.933,12.093,0,.16,0,.16-.159.16-1.114,0-5.251-8.275-10.024-12.413-5.252-4.455-15.436-10.82-23.391-11.934-3.342-.477-6.842-.795-9.707-1.113q-2.625-.24-4.3-.477a17.274,17.274,0,0,0-1.91-.16,21.831,21.831,0,0,1,1.114-2.546,42.021,42.021,0,0,1,12.093-13.685c6.684-4.932,16.39-9.229,30.393-10.343,3.819-.319,7.478-.477,10.82-.477A97.7,97.7,0,0,1,1185.193,429.185Zm-29.119-4.138c-12.571.954-23.391,4.615-31.825,10.82a43.169,43.169,0,0,0-12.889,14.8,19.079,19.079,0,0,0-1.273,2.865,2.862,2.862,0,0,0,.317,2.546,2.484,2.484,0,0,0,2.069,1.273,15.006,15.006,0,0,1,1.91.159q1.67.238,4.3.477c3.5.319,6.842.637,9.707,1.114,7.478,1.113,17.344,7.161,21.958,11.3,2.546,2.069,4.933,5.729,6.684,8.275,2.228,3.342,3.182,4.932,5.251,4.932a2.942,2.942,0,0,0,2.706-1.75,7.873,7.873,0,0,0,.954-2.228c.954-2.069,2.228-5.728,4.138-10.025a121.892,121.892,0,0,1,9.388-17.662,20.245,20.245,0,0,1,3.5-3.978c9.07-7.957,24.664-8.115,25.3-8.115a2.775,2.775,0,0,0,2.706-1.91,3.144,3.144,0,0,0-1.114-3.182c-.159-.16-3.819-2.706-11.3-5.252a47.581,47.581,0,0,0-5.092-1.59c-.318-.16-.795-.16-1.113-.319-2.069-.477-4.138-.954-6.365-1.273a105.375,105.375,0,0,0-19.1-1.591C1163.393,424.729,1159.733,424.888,1156.073,425.048Z" transform="translate(-1109.92 -424.729)"/><path class="i" d="M1114.466,453.965q1.67.238,4.3.477l1.432-6.842h14.8l-9.388-10.025a37.447,37.447,0,0,0-12.094,13.685Z" transform="translate(-1109.686 -423.89)"/><path class="i" d="M1158.428,469.936l6.365-2.069a127.728,127.728,0,0,1,9.707-17.981,22.474,22.474,0,0,1,3.978-4.615l-3.819,1.432-7.32-10.024-1.91,13.685-18.458,3.5,16.389,6.525Z" transform="translate(-1107.502 -423.949)"/><path class="i" d="M1187.084,430.185a60.345,60.345,0,0,0-6.205-1.273v4.774Z" transform="translate(-1105.288 -424.456)"/><path class="i" d="M1190.783,435.188l1.75-3.5c-1.432-.477-3.182-.954-4.932-1.432Z" transform="translate(-1104.849 -424.368)"/></g></g></g><g transform="translate(783.8 415.714)"><g transform="translate(0 13.295)"><path class="p" d="M1043.932,634.69c-60.254,8.071-127.022,9.432-181.233-22.237a156.545,156.545,0,0,1-60.461-64.188c-13.458-26.2-22.786-60.156-9.962-88.405,6.883-15.159,19.568-25.416,35.726-29.336,15.393-3.733,32.332-1.744,45.955,6.507a1.281,1.281,0,0,0,1.292-2.21c-23.138-14.013-57.668-11.275-76.1,9.485-20.644,23.252-17.522,58.2-7.765,85.4,10.41,29.018,28.71,54.93,53.222,73.687,25.8,19.741,57.021,30.757,88.942,35.468,36.587,5.4,73.865,3.275,110.382-1.617,1.609-.215,1.63-2.777,0-2.559Z" transform="translate(-783.8 -426.119)"/></g><g transform="translate(38.89 54.455)"><path class="p" d="M981.3,593.838c-36.946,4.928-77.806,5.853-111.21-13.206a96.886,96.886,0,0,1-37.882-39.317C823.8,525.34,817.9,504.9,824.825,487.322c7.918-20.09,33.223-26.6,51.272-15.825a.793.793,0,0,0,.8-1.368c-14.064-8.4-34.553-7.1-46.246,4.946-13.26,13.659-11.895,35.263-6.295,51.964a99.687,99.687,0,0,0,32.229,46.384c15.909,12.585,35.264,19.711,55.174,22.814,23.031,3.589,46.538,2.253,69.544-.815,1-.133,1.01-1.719,0-1.585Z" transform="translate(-820.307 -464.757)"/></g><path class="p" d="M917.314,413.639l-2.97,6.018-6.641.965,4.806,4.684-1.135,6.615,5.94-3.123,5.94,3.123-1.135-6.615,4.806-4.684-6.641-.965Z" transform="translate(-775.712 -413.639)"/><path class="p" d="M853.764,506.343l-4.418,8.952-9.879,1.435,7.148,6.968-1.687,9.839,8.836-4.645,8.836,4.645-1.687-9.839,7.148-6.968-9.879-1.435Z" transform="translate(-780.167 -407.587)"/><path class="p" d="M807.34,598.086l-1.526,3.093-3.413.5,2.47,2.407-.583,3.4,3.053-1.6,3.053,1.6-.583-3.4,2.47-2.407-3.413-.5Z" transform="translate(-782.586 -401.599)"/></g></g></svg>