<svg xmlns="http://www.w3.org/2000/svg" xmlns:xlink="http://www.w3.org/1999/xlink" width="533.825" height="449.298" viewBox="0 0 533.825 449.298"><defs><style>.a,.v{fill:none;}.b{fill:#5e847d;}.c{fill:#c1c9e7;}.d{fill:#ff9090;}.e{fill:#ccc;}.f{fill:#e6e6e6;}.g{fill:#403f51;}.h{clip-path:url(#a);}.i,.n{fill:#d8a35d;}.i{fill-rule:evenodd;}.j{fill:#999;}.k{fill:#2b2b2b;}.l{fill:gray;}.m{fill:#d29647;}.o{fill:#d19442;}.p{fill:#947dce;}.q{fill:#ffc84f;}.r{opacity:0.15;}.s{fill:#62548a;}.t{opacity:0.3;}.u{opacity:0.5;}.v{stroke:#947dce;stroke-miterlimit:10;stroke-width:0.785px;}.w{fill:#eadff1;}</style><clipPath id="a"><rect class="a" width="493.911" height="449.298"/></clipPath></defs><g transform="translate(-717.726 -280.24)"><g transform="translate(717.726 280.24)"><path class="b" d="M904.621,308.18V641.172a25.183,25.183,0,0,1-25.1,25.1H748.643a25.182,25.182,0,0,1-25.1-25.1V308.18a25.173,25.173,0,0,1,25.1-25.1H879.521A25.173,25.173,0,0,1,904.621,308.18Z" transform="translate(-717.38 -280.071)"/><path class="c" d="M904.621,308.18v17.229c-12.72,9.195-27.409,16.108-42.033,21.955-24.884,9.964-51.024,17.9-72.939,33.336-21.5,15.123-37.711,36.645-51.133,59.249-5.266,8.871-10.167,17.958-14.973,27.085V308.18a25.173,25.173,0,0,1,25.1-25.1H879.521A25.173,25.173,0,0,1,904.621,308.18Z" transform="translate(-717.38 -280.071)"/><path class="d" d="M904.621,511.2V628.213a25.183,25.183,0,0,1-25.1,25.1H748.643a25.182,25.182,0,0,1-25.1-25.1v-84.74c.351-.067.715-.135,1.066-.215,41.451-8.885,76.679-41.074,119.063-42.492,11.449-.378,22.832,1.552,34.053,3.862C886.716,506.477,895.736,508.611,904.621,511.2Z" transform="translate(-717.38 -267.112)"/><g transform="translate(0 46.228)"><rect class="e" width="18.348" height="37.643" rx="3.006"/><rect class="e" width="18.348" height="37.643" rx="3.006" transform="translate(0 44.335)"/><rect class="e" width="18.348" height="37.643" rx="3.006" transform="translate(175.058)"/></g><rect class="a" width="181.071" height="383.195" rx="23.69" transform="translate(6.476 3.007)"/><path class="f" d="M883.732,669.448H744.771a24.089,24.089,0,0,1-24.061-24.061V304.3a24.089,24.089,0,0,1,24.061-24.062h138.96A24.089,24.089,0,0,1,907.793,304.3V645.386A24.089,24.089,0,0,1,883.732,669.448ZM744.771,286.253A18.068,18.068,0,0,0,726.723,304.3V645.386a18.068,18.068,0,0,0,18.048,18.048h138.96a18.068,18.068,0,0,0,18.048-18.048V304.3a18.068,18.068,0,0,0-18.048-18.049Z" transform="translate(-717.548 -280.24)"/><path class="f" d="M838.08,299.845H786.87a8.3,8.3,0,0,1-8.3-8.3h0a6.421,6.421,0,0,1,6.421-6.421h54.971a6.421,6.421,0,0,1,6.421,6.421h0A8.3,8.3,0,0,1,838.08,299.845Z" transform="translate(-714.103 -279.949)"/><path class="f" d="M778.569,291.657v-8.433h67.812v8.094Z" transform="translate(-714.103 -280.062)"/><path class="e" d="M833.933,294.026h-.584a2.116,2.116,0,0,1-2.117-2.117h0a2.117,2.117,0,0,1,2.117-2.117h.584a2.118,2.118,0,0,1,2.117,2.117h0A2.117,2.117,0,0,1,833.933,294.026Z" transform="translate(-710.967 -279.671)"/><path class="e" d="M822.714,294.026H788.853a2.117,2.117,0,0,1-2.117-2.117h0a2.118,2.118,0,0,1,2.117-2.117h33.861a2.118,2.118,0,0,1,2.117,2.117h0A2.117,2.117,0,0,1,822.714,294.026Z" transform="translate(-713.617 -279.671)"/><g transform="translate(29.912 13.683)"><path class="g" d="M748.236,299.367h-.76v-4.841a3.915,3.915,0,0,1-.72.523,5.127,5.127,0,0,1-.8.393v-.735a4.56,4.56,0,0,0,1.114-.726,2.835,2.835,0,0,0,.676-.828h.49Z" transform="translate(-745.957 -293.154)"/><path class="g" d="M753.942,298.637v.73h-4.089a1.337,1.337,0,0,1,.088-.528,2.8,2.8,0,0,1,.5-.823,8.047,8.047,0,0,1,.994-.937,8.4,8.4,0,0,0,1.364-1.311,1.569,1.569,0,0,0,.355-.913,1.016,1.016,0,0,0-.323-.762,1.166,1.166,0,0,0-.842-.31,1.186,1.186,0,0,0-.877.329,1.248,1.248,0,0,0-.334.911l-.781-.079a1.917,1.917,0,0,1,.6-1.332,2.058,2.058,0,0,1,1.4-.459,1.959,1.959,0,0,1,1.409.495,1.618,1.618,0,0,1,.52,1.224,1.853,1.853,0,0,1-.153.73,2.837,2.837,0,0,1-.5.755,12.337,12.337,0,0,1-1.171,1.089q-.685.574-.878.779a2.493,2.493,0,0,0-.321.411Z" transform="translate(-745.725 -293.154)"/><path class="g" d="M754.879,295.653v-.865h.866v.865Zm0,3.617v-.865h.866v.865Z" transform="translate(-745.426 -293.057)"/><path class="g" d="M756.748,296.316a5.665,5.665,0,0,1,.226-1.766,2.21,2.21,0,0,1,.672-1.032,1.718,1.718,0,0,1,1.12-.363,1.829,1.829,0,0,1,.874.2,1.676,1.676,0,0,1,.621.577,3.153,3.153,0,0,1,.384.921,6.083,6.083,0,0,1,.14,1.462,5.664,5.664,0,0,1-.225,1.758,2.188,2.188,0,0,1-.669,1.034,1.714,1.714,0,0,1-1.125.366,1.7,1.7,0,0,1-1.4-.642A4.077,4.077,0,0,1,756.748,296.316Zm.781,0a3.869,3.869,0,0,0,.357,2.028,1.019,1.019,0,0,0,1.76,0,5.954,5.954,0,0,0,0-4.056,1.059,1.059,0,0,0-.888-.5.972.972,0,0,0-.836.443A3.923,3.923,0,0,0,757.529,296.316Z" transform="translate(-745.314 -293.154)"/><path class="g" d="M761.285,296.316a5.63,5.63,0,0,1,.227-1.766,2.2,2.2,0,0,1,.671-1.032,1.719,1.719,0,0,1,1.121-.363,1.828,1.828,0,0,1,.873.2,1.668,1.668,0,0,1,.621.577,3.123,3.123,0,0,1,.384.921,6.083,6.083,0,0,1,.14,1.462,5.666,5.666,0,0,1-.225,1.758,2.188,2.188,0,0,1-.669,1.034,1.882,1.882,0,0,1-2.53-.277A4.077,4.077,0,0,1,761.285,296.316Zm.782,0a3.872,3.872,0,0,0,.356,2.028,1.019,1.019,0,0,0,1.76,0,5.954,5.954,0,0,0,0-4.056,1.059,1.059,0,0,0-.888-.5.972.972,0,0,0-.836.443A3.925,3.925,0,0,0,762.067,296.316Z" transform="translate(-745.044 -293.154)"/></g><g transform="translate(152.839 13.477)"><rect class="f" width="2.695" height="6.418"/><rect class="f" width="2.695" height="6.418" transform="translate(3.773)"/><rect class="f" width="2.695" height="6.418" transform="translate(7.546)"/><rect class="f" width="1.272" height="3.03" transform="translate(11.388 1.694)"/></g></g><g transform="translate(757.641 280.24)"><g class="h"><g transform="translate(66.841 157.027)"><g transform="translate(0 237.953)"><path class="i" d="M845.446,653.023c-.6.759-9.358,7.895-11.6,12.669s-5.125,12.088-6.774,14.376c-1.939,2.691-1.021,3.88,1.549.9a51.8,51.8,0,0,0,5.076-7.062c.2-.486-1.4,2.576-3.39,5.812-2.118,3.439-4.626,7.094-4.03,7.519,1.155.823,7.921-8.844,8.809-10.658a50.5,50.5,0,0,1-2.4,4.757c-1.212,2.1-2.939,4.388-2.655,5.063.445,1.062,4.726-3.806,7.072-8.26.182-.027-.129,1.574-3.273,6.677-.316.513-.585,2.012.912.5,3.151-3.182,4.74-4.318,6.918-9.793,2.124-5.34,3.171-11.7,5.879-15.116Z" transform="translate(-818.032 -653.023)"/><g transform="translate(0 6.709)"><path class="j" d="M819.016,669.581l13.741,16.91a2.227,2.227,0,0,0,3.15.368l7.663-6.41a.641.641,0,0,0,.074-.069,2.288,2.288,0,0,0,.176-3.129l-13.741-16.91a2.224,2.224,0,0,0-3.149-.365l-7.152,5.983-.511.424A2.287,2.287,0,0,0,819.016,669.581Z" transform="translate(-818.482 -659.348)"/><path class="e" d="M819.378,669.213l13.852,16.845a2.3,2.3,0,0,0,3.236.315l7.469-6.17a2.293,2.293,0,0,0,.235-3.164l-13.853-16.846a2.3,2.3,0,0,0-3.235-.314l-7.469,6.17A2.293,2.293,0,0,0,819.378,669.213Z" transform="translate(-818.46 -659.355)"/><path class="k" d="M820.645,669.093l11.964,14.549a1.984,1.984,0,0,0,2.794.271l6.451-5.328a1.98,1.98,0,0,0,.2-2.733L830.093,661.3a1.985,1.985,0,0,0-2.794-.271l-6.451,5.328A1.981,1.981,0,0,0,820.645,669.093Z" transform="translate(-818.38 -659.282)"/><circle class="l" cx="0.767" cy="0.767" r="0.767" transform="translate(20.262 22.11)"/></g><path class="i" d="M836.476,661.908s-5.906,2.592-8.33,7.026c-1.441,2.635-2.12,2.315-2.5,2.715-1.267,1.329,2.218.86,3.828-1.238,1.31-1.706,4.992-1.59,6.109-2.5s3.653-3.908,3.513-4.936S836.476,661.908,836.476,661.908Z" transform="translate(-818.071 -652.494)"/></g><path class="m" d="M974.723,721.493s-10.334,106.628-5.94,108.463c7.883,3.344,38.755,14.282,4.718,11.877-17.484,1.054-16.2-2.852-16.474-6.162-.224-2.7.29-98.131-.428-105.552l-.259-2.667Z" transform="translate(-810.273 -410.993)"/><path class="n" d="M905.673,712.66s55.81,90.965,52.865,94.706c-5.259,6.758-26.9,31.339,1.66,12.673,15.786-7.588,12.764-10.377,11.391-13.4-1.121-2.472-9.379-21.368-12.364-28.2-.668-1.531-38.264-76.049-38.264-76.049Z" transform="translate(-813.29 -412.131)"/><path class="o" d="M946.067,461.953s-.91,10.16,5.357,15.779-14.444,0-14.444,0,3.855-9.731,2.99-15.779S946.067,461.953,946.067,461.953Z" transform="translate(-811.426 -426.607)"/><ellipse class="n" cx="10.957" cy="14.949" rx="10.957" ry="14.949" transform="translate(120.379 9.387)"/><path class="p" d="M1020.273,559.072c-.183,2.829-2.472,13.348-5.693,24.784-.948,3.412-1.989,6.9-3.079,10.295-1.323,4.135-2.721,8.122-4.135,11.642-2.746,6.825-5.559,11.9-8.014,12.891-8.273,3.329-70.731,7.9-83.573,1.773-.3-.225-.624-.466-.931-.732-4.819-3.92-10.046-11.66-12.816-18.909,0-.008-7.382-20.814-8.888-25.05-.017-.041-.024-.075-.041-.108-.05-.166-.108-.324-.166-.475-.017-.058-.042-.108-.058-.166-7.773,26.539-28.454,84.828-45.182,103.3-1.756,1.939-9.837-8.938-9.837-8.938s-13.507-69.749,21.73-143.459c16.586-34.695,46.188-50.524,65.088-54.727,8.181-1.822,14.356-1.465,16.61.482a12.249,12.249,0,0,0,7.649,2.971,16.563,16.563,0,0,0,4.294-.391,21.3,21.3,0,0,0,4.552-1.548c.7-.324,1.107-.557,1.107-.557a44.4,44.4,0,0,1,11.568.691C1013.216,481.209,1020.656,552.905,1020.273,559.072Z" transform="translate(-817.479 -425.968)"/><path class="q" d="M909.5,609.72a6.753,6.753,0,0,0,3.833,1.768c9.007.177,47.909.843,69.013-.37,7.444-.429,12.674-1.09,13.592-2.094,0,0,0,.031-.005.086-.055,1.163-.723,14.48-1.659,31.937-1.85,34.46,1.712,83.813,5.873,98.794.9,3.233-47.436-1.664-47.436-1.664-.136-35.563,3.239-97.993,1.06-100.791-2.651-3.4-6.95,51.51-11.879,97.462-19.142,4.994-49.452,1.961-49.1,0C896.949,711.545,909.5,609.72,909.5,609.72Z" transform="translate(-814.057 -417.69)"/><path class="r" d="M889.646,569.975c.017.058.041.108.058.166.058.15.117.308.166.475a1.084,1.084,0,0,1,.041.108c1.507,4.236,8.889,25.041,8.889,25.05,2.772,7.248,8,14.988,12.816,18.909-3.271-11.843-13.466-46.172-13.074-60C896.6,568.01,889.646,569.966,889.646,569.975Z" transform="translate(-814.244 -420.926)"/><path class="r" d="M1005.74,580.108c-.948,3.412-1.989,6.9-3.079,10.295-1.323,4.135-2.721,8.122-4.135,11.642-24.46-29.286-11.119-69.108-11.119-69.108s10.336,34.571,10.444,35.544C997.885,568.831,1001.322,573.816,1005.74,580.108Z" transform="translate(-808.639 -422.221)"/><path class="r" d="M944.639,477.1c.034.99-.491,1.639-2.08,1.423-4.961-.674-10.561-.533-14.631,1.331a3.456,3.456,0,0,1-3.345-.141c-2.6-1.523-4.219-6.067-4.86-8.081a1.389,1.389,0,0,1-.067-.441c8.181-1.822,14.356-1.465,16.612.482a12.252,12.252,0,0,0,7.648,2.972A6.73,6.73,0,0,1,944.639,477.1Z" transform="translate(-812.457 -425.968)"/><path class="s" d="M967.362,794.492c-.571-1.443-10.07,4.014-10.544,5.71S939.467,816.457,943,821.909s27.48-13.724,29.294-14.91S968.486,797.33,967.362,794.492Z" transform="translate(-811.096 -406.661)"/><path class="s" d="M956.414,820.492c-.2-1.539,12.907.414,14.147,1.665s20.327,6.443,19.9,12.925-30.686,1.386-32.847,1.233S956.814,823.518,956.414,820.492Z" transform="translate(-810.272 -405.132)"/><g class="t" transform="translate(130.921 191.335)"><path d="M942.479,611.676l-.434-.036S942.2,611.652,942.479,611.676Z" transform="translate(-942.045 -608.869)"/><path class="u" d="M942.455,611.832c11.592.925,36.931-.713,36.931-.713,7.444-.429,12.674-1.09,13.592-2.094,0,0,0,.031-.005.086-.055,1.163-.723,14.48-1.659,31.937a8.752,8.752,0,0,1-1.219-.141,9.487,9.487,0,0,1-6.136-4.36,21.077,21.077,0,0,1-2.386-4.982C972.931,615.118,946.169,612.165,942.455,611.832Z" transform="translate(-942.021 -609.025)"/></g><g transform="translate(117.845)"><g transform="translate(2.313 4.168)"><path class="q" d="M938.774,443.964s18.969,10.517,13.339-6.368C948.218,425.914,925.838,436.437,938.774,443.964Z" transform="translate(-931.714 -432.377)"/><path class="q" d="M941.7,439.888s-10.613,6.3-9.59,12.614c0,0-2.339-18.86,8.213-19.333s14.639.544,13.7,20.487C954.021,453.656,950.956,437.791,941.7,439.888Z" transform="translate(-931.887 -432.334)"/></g><path class="q" d="M939.412,433.568s.533-5.877,6.358-5.044,8.323,4.161,9.154,7.49,1.665,5.825,2.5,5.825c0,0-2.5,2.5-3.329,1.665,0,0,2.159,5.985-.585,10.9,0,0-1.08-7.569-5.24-8.4S939.412,433.568,939.412,433.568Z" transform="translate(-929.126 -428.443)"/><path class="q" d="M940.523,433.262s-4.161-2.5-8.322,3.328l-2.5,4.994s.833.833,2.5,0c0,0-.759,5.863.036,9.174l2.46-10.005Z" transform="translate(-929.704 -428.187)"/></g><g transform="translate(254.344 244.631)"><path class="i" d="M1061.068,659.326c.437.709,7.177,7.69,8.606,11.994s3.138,10.835,4.311,12.955c1.38,2.494.476,3.415-1.413.611a44.448,44.448,0,0,1-3.61-6.543c-.121-.435.93,2.339,2.3,5.3,1.455,3.151,3.222,6.525,2.671,6.826-1.069.585-5.856-8.354-6.428-9.992a43.45,43.45,0,0,0,1.566,4.3c.819,1.916,2.059,4.042,1.749,4.589-.489.861-3.644-3.73-5.192-7.769-.153-.041-.051,1.356,2.111,6.03.217.47.293,1.777-.83.335-2.363-3.037-3.6-4.168-4.9-9.062-1.267-4.772-1.511-10.308-3.473-13.5Z" transform="translate(-1058.532 -659.326)"/><path class="i" d="M1068.306,668.742s4.774,2.813,6.391,6.844c.96,2.395,1.572,2.191,1.857,2.572.945,1.262-1.981.508-3.14-1.447-.943-1.588-4.1-1.865-4.958-2.752s-2.719-3.706-2.494-4.57S1068.306,668.742,1068.306,668.742Z" transform="translate(-1058.091 -658.767)"/></g><g transform="translate(91.618 191.189)"><line class="v" x1="12.274" y2="128.347"/><line class="v" x1="12.182" y2="126.112" transform="translate(12.274 2.567)"/><line class="v" x1="10.13" y2="125.23" transform="translate(26.233 2.567)"/><line class="v" x2="0.261" y2="25.94" transform="translate(47.831 2.567)"/><line class="v" x1="2.35" y2="127.768" transform="translate(58.211 2.567)"/><line class="v" x1="0.655" y2="128.84" transform="translate(70.861 2.487)"/><line class="v" x2="2.478" y2="129.579" transform="translate(82.282 2.487)"/></g><path class="v" d="M906.991,622.282s69.12,3.263,87.383,0" transform="translate(-813.212 -416.901)"/><path class="v" d="M953,635.971c-24.184,5.478-47.328-3.182-47.328-3.182" transform="translate(-813.29 -416.275)"/><path class="v" d="M950.095,634.247s21.825,6.133,41,.955" transform="translate(-810.645 -416.188)"/><path class="v" d="M904.551,641.666s17.428,9.125,45.736,4.473" transform="translate(-813.357 -415.747)"/><path class="v" d="M903.2,652.239s27.121,8.28,45.823,4.019" transform="translate(-813.437 -415.117)"/><path class="v" d="M901.854,662.742s13.812,10.828,45.838,5.971" transform="translate(-813.517 -414.492)"/><path class="v" d="M900.282,674.823a67.2,67.2,0,0,0,46.454,3.5" transform="translate(-813.611 -413.772)"/><path class="v" d="M898.821,685.891s14.917,10.588,46.748,4.438" transform="translate(-813.698 -413.113)"/><path class="v" d="M897.293,697.237S917.882,708,944.71,699.3" transform="translate(-813.789 -412.438)"/><path class="v" d="M896.07,706.091s12.148,11.683,47.685,3.022" transform="translate(-813.862 -411.91)"/><path class="v" d="M894.629,716.142s19.642,10.347,48.163,2.7" transform="translate(-813.948 -411.312)"/><path class="v" d="M951.031,645.3s9.118,7.529,40,1.94" transform="translate(-810.589 -415.53)"/><path class="v" d="M951.257,656s12.8,5.966,39.034,1.255" transform="translate(-810.576 -414.893)"/><path class="v" d="M950.668,667.868s19.756,5.95,39.658,0" transform="translate(-810.611 -414.186)"/><path class="v" d="M950.4,677.711s19.206,8.538,40.325,0" transform="translate(-810.627 -413.6)"/><path class="v" d="M950.095,688.518s18.285,6.416,41.178,0" transform="translate(-810.645 -412.957)"/><path class="v" d="M949.816,698.9s15.412,6.915,42.194,0" transform="translate(-810.661 -412.339)"/><path class="v" d="M949.816,708.08s18.3,9.43,43.126,1" transform="translate(-810.661 -411.792)"/><path class="v" d="M949.4,719.559a84.594,84.594,0,0,0,44.923.519" transform="translate(-810.686 -411.108)"/><path class="p" d="M992.925,516.592s-53.663-42.468-40.869-44.539,33.727,2.961,33.727,2.961c18.9,4.2,36.945,18.4,53.531,53.1C1074.552,601.824,1072.6,673.2,1072.6,673.2s-8.16,10.946-9.837,8.938c-31.131-37.249-51.151-74.644-59.6-99.8S992.925,516.592,992.925,516.592Z" transform="translate(-810.646 -425.876)"/></g><path class="w" d="M1104.026,765.66c-7.583-30.344,5.339-61.468,13.131-91.76a281.265,281.265,0,0,0,8.651-58.807c.6-14.99-.028-30.126-3.4-44.744-9.741-42.173-41.3-75.995-75.737-102.216s-72.933-47.078-105.427-75.672c-12.333-10.853-24.023-23.215-29.913-38.55s-4.866-34.234,6.174-46.4c9.623-10.6,24.622-14.241,38.793-16.283,39.9-5.746,81.971-2.742,118.2,14.947s65.733,51.456,72.294,91.231c2.887,17.506,1.386,35.471,3.671,53.066,4.759,36.639,25.364,68.916,42.441,101.679s31.286,70.249,22.035,106.019c-4.261,16.478-13.257,31.331-23.147,45.183-18.051,25.284-39.375,48.028-60.628,70.688-6.484,6.915-13.151,13.967-21.6,18.256s-19.194,5.335-27.155.19" transform="translate(-746.324 -279.744)"/></g></g></g></svg>