<svg xmlns="http://www.w3.org/2000/svg" width="281.934" height="382.953" viewBox="0 0 281.934 382.953"><defs><style>.a,.h{fill:#dcbdff;mix-blend-mode:screen;}.a{opacity:0.3;}.a,.c,.h{isolation:isolate;}.b{fill:#b97aff;}.c{fill:#ba7aff;mix-blend-mode:multiply;}.d{fill:#5487b6;}.e{fill:#a8ccee;}.f{fill:#f3f3f3;}.g{fill:#fff;}.h{opacity:0.53;}</style></defs><g transform="translate(-1018.158 -322.921)"><path class="a" d="M1185.917,555.291c-15.2-2.1-30.548,1.584-45.378,5.521s-29.93,8.187-45.243,7.222c-9.45-.6-18.68-3.172-28.113-4.005s-19.616.338-26.987,6.285c-12.892,10.4-11.745,31.32-2.8,45.263,12.21,19.024,35.17,29,57.691,30.935s45.006-3.047,67.031-8.132,44.407-10.338,66.969-8.94c8.77.544,17.6,2.09,26.287.8s17.554-6.2,20.452-14.5c3.346-9.581-2.561-20.421-11.021-26.025S1201.115,557.4,1185.917,555.291Z" transform="translate(3.014 58.935)"/><g transform="translate(1018.158 311.508)"><g transform="translate(47.291 87.373)"><path class="b" d="M1127.347,407.928h0a4.458,4.458,0,0,0,4.442-4.815,104.32,104.32,0,0,1,0-16.461,4.458,4.458,0,0,0-4.442-4.815h0a4.457,4.457,0,0,0-4.442,4.817,104.3,104.3,0,0,1,0,16.46A4.456,4.456,0,0,0,1127.347,407.928Z" transform="translate(-1040.065 -381.836)"/><path class="b" d="M1104.829,413.96h0a4.455,4.455,0,0,0,1.437-6.391,104.41,104.41,0,0,1-8.228-14.252,4.458,4.458,0,0,0-6.255-1.951l0,0a4.456,4.456,0,0,0-1.437,6.391,104.416,104.416,0,0,1,8.229,14.252A4.456,4.456,0,0,0,1104.829,413.96Z" transform="translate(-1048.144 -379.671)"/><path class="b" d="M1088.345,430.447v0a4.457,4.457,0,0,0-1.949-6.255,104.394,104.394,0,0,1-14.252-8.228,4.457,4.457,0,0,0-6.392,1.439v0a4.456,4.456,0,0,0,1.949,6.253,104.562,104.562,0,0,1,14.254,8.229A4.458,4.458,0,0,0,1088.345,430.447Z" transform="translate(-1054.059 -373.757)"/><path class="b" d="M1082.313,452.965v0a4.457,4.457,0,0,0-4.817-4.441,104.4,104.4,0,0,1-16.456,0,4.456,4.456,0,0,0-4.817,4.441v0a4.458,4.458,0,0,0,4.817,4.44,104.258,104.258,0,0,1,16.456,0A4.458,4.458,0,0,0,1082.313,452.965Z" transform="translate(-1056.223 -365.678)"/><path class="b" d="M1088.346,477.159h0a4.457,4.457,0,0,0-6.392-1.44,104.185,104.185,0,0,1-14.251,8.227,4.457,4.457,0,0,0-1.949,6.255h0a4.457,4.457,0,0,0,6.392,1.437,104.439,104.439,0,0,1,14.25-8.227A4.455,4.455,0,0,0,1088.346,477.159Z" transform="translate(-1054.058 -359.274)"/><path class="b" d="M1104.831,494.869h0a4.456,4.456,0,0,0-6.254,1.951,104.462,104.462,0,0,1-8.227,14.251,4.456,4.456,0,0,0,1.439,6.391h0a4.456,4.456,0,0,0,6.253-1.951,104.225,104.225,0,0,1,8.227-14.25A4.456,4.456,0,0,0,1104.831,494.869Z" transform="translate(-1048.144 -354.587)"/><path class="b" d="M1127.351,501.35h0a4.458,4.458,0,0,0-4.443,4.817,104.242,104.242,0,0,1,0,16.455,4.457,4.457,0,0,0,4.441,4.817h0a4.459,4.459,0,0,0,4.442-4.817,104.242,104.242,0,0,1,0-16.455A4.458,4.458,0,0,0,1127.351,501.35Z" transform="translate(-1040.065 -352.871)"/><path class="b" d="M1151.545,494.867h0a4.457,4.457,0,0,0-1.439,6.392,104.457,104.457,0,0,1,8.229,14.251,4.457,4.457,0,0,0,6.255,1.948h0a4.458,4.458,0,0,0,1.438-6.391,104.3,104.3,0,0,1-8.227-14.251A4.456,4.456,0,0,0,1151.545,494.867Z" transform="translate(-1033.662 -354.587)"/><path class="b" d="M1169.256,477.153l0,0a4.456,4.456,0,0,0,1.951,6.255,104.525,104.525,0,0,1,14.251,8.227,4.456,4.456,0,0,0,6.391-1.439h0a4.458,4.458,0,0,0-1.95-6.254,104.107,104.107,0,0,1-14.25-8.228A4.456,4.456,0,0,0,1169.256,477.153Z" transform="translate(-1028.974 -359.274)"/><path class="b" d="M1175.736,452.959v0a4.457,4.457,0,0,0,4.817,4.443,104.394,104.394,0,0,1,16.455,0,4.456,4.456,0,0,0,4.815-4.441h0a4.456,4.456,0,0,0-4.815-4.44,104.387,104.387,0,0,1-16.455,0A4.456,4.456,0,0,0,1175.736,452.959Z" transform="translate(-1027.258 -365.678)"/><path class="b" d="M1169.251,430.439l0,0a4.457,4.457,0,0,0,6.393,1.44,104.409,104.409,0,0,1,14.251-8.231,4.457,4.457,0,0,0,1.949-6.254h0a4.456,4.456,0,0,0-6.391-1.437,104.411,104.411,0,0,1-14.252,8.227A4.456,4.456,0,0,0,1169.251,430.439Z" transform="translate(-1028.974 -373.757)"/><path class="b" d="M1151.539,413.956l0,0a4.457,4.457,0,0,0,6.256-1.951,104.426,104.426,0,0,1,8.227-14.251,4.455,4.455,0,0,0-1.437-6.389h0a4.457,4.457,0,0,0-6.255,1.949,104.23,104.23,0,0,1-8.229,14.249A4.456,4.456,0,0,0,1151.539,413.956Z" transform="translate(-1033.662 -379.671)"/><path class="b" d="M1209.356,462.028A69.428,69.428,0,1,1,1143.64,396.3,69.433,69.433,0,0,1,1209.356,462.028Z" transform="translate(-1052.739 -378.353)"/><path class="b" d="M1209.308,461.255a69.573,69.573,0,0,1-4.024,28.111,68.718,68.718,0,0,1-6.543,13.318A69.3,69.3,0,0,1,1136.89,535c-36.771-1.621-66.2-32.377-66.291-69.184a69.424,69.424,0,0,1,138.709-4.557Z" transform="translate(-1052.739 -378.353)"/><path class="a" d="M1205.216,465.637a69,69,0,0,1-10.7,37.047,69.431,69.431,0,0,1-95.774-95.759,68.555,68.555,0,0,1,13.317-6.56,69.483,69.483,0,0,1,93.158,65.271Z" transform="translate(-1048.512 -378.353)"/><path class="c" d="M1101.688,450.4a10.32,10.32,0,1,1-10.319-10.32A10.318,10.318,0,0,1,1101.688,450.4Z" transform="translate(-1050.207 -367.72)"/><path class="c" d="M1147.867,438.878a8.027,8.027,0,1,1-8.027-8.027A8.026,8.026,0,0,1,1147.867,438.878Z" transform="translate(-1037.903 -369.957)"/><path class="c" d="M1154.99,486.129a4.2,4.2,0,1,1-4.2-4.2A4.2,4.2,0,0,1,1154.99,486.129Z" transform="translate(-1034.324 -357.579)"/><path class="a" d="M1116.009,424.642a9.174,9.174,0,1,1-9.174-9.174A9.174,9.174,0,0,1,1116.009,424.642Z" transform="translate(-1046.18 -373.685)"/><circle class="c" cx="3.733" cy="3.733" r="3.733" transform="translate(79.092 30.915)"/><path class="a" d="M1124.01,484.33a9.174,9.174,0,1,1-9.175-9.174A9.173,9.173,0,0,1,1124.01,484.33Z" transform="translate(-1044.241 -359.219)"/><path class="a" d="M1175.775,438.16a4.348,4.348,0,1,1-4.347-4.347A4.346,4.346,0,0,1,1175.775,438.16Z" transform="translate(-1029.356 -369.239)"/><g transform="translate(2.397 114.721)"><g transform="translate(6.08 13.712)"><path class="d" d="M1215.567,485.989c0-.26-.008-.517-.018-.774H1063.063c-.01.257-.018.514-.018.774l.3,5.971,151.089,16.826Z" transform="translate(-1063.046 -485.215)"/><path class="e" d="M1063.285,490.644l8.371,98.395a19.013,19.013,0,0,0,19.013,19.013h97.159a19.013,19.013,0,0,0,19.013-19.013l7.534-81.568Z" transform="translate(-1062.988 -483.899)"/></g><rect class="f" width="164.68" height="17.658" rx="4.183"/><g transform="translate(44.173 44.332)"><path class="g" d="M1131.844,533.207l-6.633,4.669,8.7-1.039.384-.046,1.109-.13,7.735-.924,3.316-6.642.348-.7,4.4-8.813-6.745,4.747-5.818-10.076c-1.561-2.406-3.2-3.459-4.816-3.625-2.861-.14-5.771,2.428-7.838,4.94-.566.719-1.082,1.447-1.538,2.137-.18.272-.352.538-.512.794.158.328.333.682.512,1.042.245.492.5,1,.783,1.547C1126.928,524.4,1129.255,528.629,1131.844,533.207Z" transform="translate(-1086.382 -509.676)"/><path class="g" d="M1149.212,556.072c-.862-.062-1.832-.123-2.891-.173-3.716-.181-8.542-.283-13.8-.329l-.727-8.079-3.449,8.053-.152.355-.442,1.025-3.066,7.162,4.095,6.192.427.65,5.434,8.216-.74-8.216h11.636c2.866-.145,4.593-1.041,5.547-2.357,1.553-2.408.781-6.212-.359-9.258A34.112,34.112,0,0,0,1149.212,556.072Z" transform="translate(-1086.201 -500.741)"/><path class="g" d="M1159.585,553.914a3.96,3.96,0,0,0-.3-1.736l-.143-.247-10.346-17.924-11.944,6.337c.742,1.244,1.639,2.824,2.59,4.516l6.532,11.315c.235.354.767,1.2,1.394,2.352l.037.006.194.354a26.446,26.446,0,0,1,1.508,3.317c.963,2.457,1.745,5.271,1.231,7.726Z" transform="translate(-1083.252 -504.009)"/><path class="g" d="M1128.972,515.481c.177-.23.358-.462.548-.693,1.647-2.061,3.691-4.145,6.074-4.927h-18.5a4,4,0,0,0-1.352,1.129l-.143.247-10.348,17.922,11.461,7.175c.706-1.265,1.626-2.831,2.617-4.5l6.531-11.315c.19-.38.656-1.263,1.34-2.384l-.016-.032.213-.345A26.023,26.023,0,0,1,1128.972,515.481Z" transform="translate(-1090.909 -509.861)"/><path class="g" d="M1102.839,559.293a33.839,33.839,0,0,0,3.562.313c.488-.716,1.024-1.527,1.6-2.415,2.015-3.128,4.516-7.259,7.186-11.791l7.361,3.41L1117.3,541.8l-.231-.309-.668-.893-4.669-6.237-7.409.45-.778.047-9.832.6,7.485,3.467-5.818,10.076c-1.3,2.554-1.393,4.5-.73,5.983C1095.953,557.526,1099.633,558.758,1102.839,559.293Z" transform="translate(-1093.708 -503.924)"/><path class="g" d="M1122.064,556.355H1109c-.423.025-1.423.066-2.732.031l-.022.031-.406-.012a26.138,26.138,0,0,1-3.629-.353c-2.609-.393-5.437-1.123-7.3-2.8l9.248,16.019a3.977,3.977,0,0,0,1.651.608h20.981l.483-13.512C1125.821,556.388,1124,556.378,1122.064,556.355Z" transform="translate(-1093.418 -499.344)"/></g></g></g><circle class="a" cx="11.413" cy="11.413" r="11.413" transform="translate(73.38 11.413)"/><circle class="b" cx="11.413" cy="11.413" r="11.413" transform="translate(210.442 64.546)"/><circle class="c" cx="5.707" cy="5.707" r="5.707" transform="translate(165.986 30)"/><circle class="c" cx="5.707" cy="5.707" r="5.707" transform="translate(0 107.758)"/><circle class="h" cx="5.707" cy="5.707" r="5.707" transform="translate(270.521 158.118)"/></g></g></svg>