<svg xmlns="http://www.w3.org/2000/svg" width="500.56" height="293.418" viewBox="0 0 500.56 293.418">
    <defs>
        <style>
            .a{fill:#3a74ba;}.b{fill:#ce521f;}.c{fill:#ebebeb;}.d{fill:#8e96a3;}.e{fill:#3d3d3d;}.f{fill:#d0d1d6;}.g{fill:#fff;}.h{fill:#aaa;}.i{fill:#b97aff;}.j{fill:#dcbdff;opacity:0.3;mix-blend-mode:screen;}.j,.k{isolation:isolate;}.k{fill:#ba7aff;mix-blend-mode:multiply;}.l{fill:#ffc84f;}.m{fill:#19202d;}
        </style>
    </defs>
    <g transform="translate(-692.446 -352.357)">
        <g transform="translate(692.446 352.357)">
            <path class="a"
                  d="M1067.814,603.99a187.62,187.62,0,0,0-50.3-3.576c-26.46,1.7-52.192,8.969-78.206,14.1a488.758,488.758,0,0,1-178.433,1.9c-18.677-3.273-37.378-7.716-54.245-16.38-4.341-2.229-8.715-4.9-11.252-9.065s-2.894-9.267-2.933-14.142c-.13-15.736,3.492-33.333,16.523-42.154,8.878-6.009,20.218-6.618,30.93-7.03l81.747-3.145c18.244-.7,36.743-1.446,54.164-6.909,12.336-3.868,23.822-10.013,35.853-14.747,20.924-8.235,44.495-12.1,65.935-5.314,14.546,4.6,27.163,13.747,40.935,20.312,39.279,18.721,84.885,15.419,128.254,18.967,16.342,1.336,34.929,5.207,42.912,19.529,8.644,15.507-.736,36.219-15.859,45.522s-33.929,9.894-51.656,8.9c-25.569-1.437-50.9-5.587-76.169-9.732"
                  transform="translate(-692.446 -330.283)"/>
            <g transform="translate(73.235)">
                <g transform="translate(40.452 104.425)">
                    <path class="b"
                          d="M791.447,446.122h0a.981.981,0,0,1-.579-1.255l.8-2.161,1.835.676-.8,2.16A.98.98,0,0,1,791.447,446.122Z"
                          transform="translate(-790.808 -442.706)"/>
                </g>
                <g transform="translate(50.676 108.173)">
                    <path class="b"
                          d="M800.294,449.383h0a.981.981,0,0,1-.58-1.255l.8-2.161c.053-.144,1.827.7,1.827.7l-.788,2.141A.981.981,0,0,1,800.294,449.383Z"
                          transform="translate(-799.654 -445.95)"/>
                </g>
                <g transform="translate(40.254 103.158)">
                    <path class="c"
                          d="M791.276,445.87h0a.982.982,0,0,1-.579-1.256l.87-2.365a.981.981,0,0,1,1.255-.579h0a.98.98,0,0,1,.58,1.255l-.872,2.365A.981.981,0,0,1,791.276,445.87Z"
                          transform="translate(-790.637 -441.61)"/>
                </g>
                <g transform="translate(50.459 106.916)">
                    <path class="c"
                          d="M800.106,449.121h0a.981.981,0,0,1-.58-1.255l.871-2.365a.981.981,0,0,1,1.255-.58h0a.981.981,0,0,1,.579,1.255l-.87,2.366A.981.981,0,0,1,800.106,449.121Z"
                          transform="translate(-799.466 -444.861)"/>
                </g>
                <g transform="translate(36.996 129.985)">
                    <rect class="d" width="4.156" height="6.411" transform="translate(0 3.9) rotate(-69.783)"/>
                </g>
                <g transform="translate(39.737 123.111)">
                    <rect class="d" width="4.156" height="6.411" transform="translate(0 3.9) rotate(-69.783)"/>
                </g>
                <g transform="translate(0 175.52)">
                    <path class="e"
                          d="M1089.255,588.393H763.63c-3.617,0-7.434-1.824-7.821-7.135v-4.88l35.642-65.861a11.343,11.343,0,0,1,10.161-6.3H1050.8c4.651,0,14.9,9.159,16.983,13.318l29.4,59.943v2.153C1097.256,585.876,1093.22,588.393,1089.255,588.393Z"
                          transform="translate(-755.809 -504.218)"/>
                </g>
                <g transform="translate(0.029 168.626)">
                    <path class="f"
                          d="M1089.28,582.427H763.655c-3.616,0-9.569-3.17-7.332-7.069l35.154-70.806a11.344,11.344,0,0,1,10.161-6.3h249.186a12.272,12.272,0,0,1,10.979,6.787l34.8,69.633C1099.039,579.112,1093.245,582.427,1089.28,582.427Z"
                          transform="translate(-755.834 -498.253)"/>
                </g>
                <g transform="translate(35.619)">
                    <rect class="f" width="266.662" height="168.502" rx="8.435"/>
                </g>
                <g transform="translate(45.857 9.191)">
                    <rect class="g" width="246.091" height="146.009"/>
                </g>
                <g transform="translate(120.183 220.094)">
                    <path class="e"
                          d="M957.469,572.427H861.522a1.731,1.731,0,0,1-1.708-2l4.047-25.273a2.809,2.809,0,0,1,2.775-2.366h86.54a2.471,2.471,0,0,1,2.445,2.113l3.708,25.415A1.874,1.874,0,0,1,957.469,572.427Z"
                          transform="translate(-859.792 -542.784)"/>
                </g>
                <g transform="translate(34.262 180.276)">
                    <path class="h"
                          d="M1050.85,542.938h-260.7c-2.893,0-5.1-1.112-4.642-2.339l10.993-29.5c.593-1.591,3.789-2.762,7.54-2.762h235.136c3.332,0,6.159,1.051,6.64,2.466l10.076,29.67C1056.293,541.778,1053.921,542.938,1050.85,542.938Z"
                          transform="translate(-785.453 -508.333)"/>
                </g>
                <g transform="translate(33.576 173.689)">
                    <g transform="translate(0 11.671)">
                        <rect class="f" width="271.862" height="1.373"/>
                    </g>
                    <g transform="translate(0 18.536)">
                        <rect class="f" width="271.862" height="1.373"/>
                    </g>
                    <g transform="translate(0 26.774)">
                        <rect class="f" width="271.862" height="1.373"/>
                    </g>
                    <g transform="translate(0 34.326)">
                        <rect class="f" width="271.862" height="1.373"/>
                    </g>
                    <g transform="translate(19.346 0.733)">
                        <rect class="f" width="2.06" height="45.31" transform="translate(13.579 0) rotate(17.439)"/>
                    </g>
                    <g transform="translate(39.255 0.733)">
                        <rect class="f" width="2.06" height="45.31" transform="translate(13.579 0) rotate(17.439)"/>
                    </g>
                    <g transform="translate(55.045 0.733)">
                        <rect class="f" width="2.06" height="45.31" transform="translate(13.579 0) rotate(17.439)"/>
                    </g>
                    <g transform="translate(70.835 0.733)">
                        <rect class="f" width="2.06" height="45.31" transform="translate(13.579 0) rotate(17.439)"/>
                    </g>
                    <g transform="translate(87.311 0.733)">
                        <rect class="f" width="2.06" height="45.31" transform="translate(13.579 0) rotate(17.439)"/>
                    </g>
                    <g transform="translate(108.98 0.218)">
                        <rect class="f" width="2.06" height="45.31" transform="translate(8.629 0) rotate(10.978)"/>
                    </g>
                    <g transform="translate(131.812)">
                        <rect class="f" width="2.06" height="45.31"/>
                    </g>
                    <g transform="translate(238.345 0.733)">
                        <rect class="f" width="2.06" height="45.31" transform="translate(0 0.617) rotate(-17.439)"/>
                    </g>
                    <g transform="translate(219.123 0.733)">
                        <rect class="f" width="2.06" height="45.31" transform="translate(0 0.617) rotate(-17.439)"/>
                    </g>
                    <g transform="translate(199.9 0.733)">
                        <rect class="f" width="2.06" height="45.31" transform="translate(0 0.617) rotate(-17.439)"/>
                    </g>
                    <g transform="translate(180.678 0.733)">
                        <rect class="f" width="2.06" height="45.31" transform="translate(0 0.617) rotate(-17.439)"/>
                    </g>
                    <g transform="translate(161.455 0.733)">
                        <rect class="f" width="2.06" height="45.31" transform="translate(0 0.617) rotate(-17.439)"/>
                    </g>
                    <g transform="translate(142.232 0.733)">
                        <rect class="f" width="2.06" height="45.31" transform="translate(0 0.617) rotate(-17.439)"/>
                    </g>
                </g>
            </g>
        </g>
        <g transform="translate(894.907 389.673)">
            <path class="i"
                  d="M903.773,397.037h0a2.117,2.117,0,0,0,2.109-2.287,49.614,49.614,0,0,1,0-7.819,2.117,2.117,0,0,0-2.109-2.287h0a2.117,2.117,0,0,0-2.109,2.287,49.614,49.614,0,0,1,0,7.819A2.117,2.117,0,0,0,903.773,397.037Z"
                  transform="translate(-862.313 -384.643)"/>
            <path class="i"
                  d="M891.891,400.22h0a2.117,2.117,0,0,0,.683-3.036,49.57,49.57,0,0,1-3.909-6.771,2.117,2.117,0,0,0-2.97-.926h0a2.115,2.115,0,0,0-.683,3.035,49.723,49.723,0,0,1,3.909,6.771A2.116,2.116,0,0,0,891.891,400.22Z"
                  transform="translate(-864.964 -383.933)"/>
            <path class="i"
                  d="M883.193,408.92h0a2.117,2.117,0,0,0-.926-2.972,49.45,49.45,0,0,1-6.771-3.909,2.117,2.117,0,0,0-3.036.684h0a2.118,2.118,0,0,0,.926,2.972,49.59,49.59,0,0,1,6.771,3.909A2.118,2.118,0,0,0,883.193,408.92Z"
                  transform="translate(-866.906 -381.991)"/>
            <path class="i"
                  d="M880.008,420.8h0a2.117,2.117,0,0,0-2.287-2.109,49.586,49.586,0,0,1-7.818,0,2.117,2.117,0,0,0-2.287,2.11h0a2.116,2.116,0,0,0,2.287,2.108,49.59,49.59,0,0,1,7.818,0A2.117,2.117,0,0,0,880.008,420.8Z"
                  transform="translate(-867.616 -379.339)"/>
            <path class="i"
                  d="M883.193,433.236h0a2.117,2.117,0,0,0-3.036-.683,49.608,49.608,0,0,1-6.77,3.908,2.117,2.117,0,0,0-.926,2.972h0a2.117,2.117,0,0,0,3.036.682,49.542,49.542,0,0,1,6.769-3.908A2.117,2.117,0,0,0,883.193,433.236Z"
                  transform="translate(-866.905 -377.238)"/>
            <path class="i"
                  d="M891.893,442.336h0a2.117,2.117,0,0,0-2.972.926,49.6,49.6,0,0,1-3.908,6.769,2.117,2.117,0,0,0,.683,3.036h0a2.117,2.117,0,0,0,2.97-.927,49.607,49.607,0,0,1,3.908-6.77A2.117,2.117,0,0,0,891.893,442.336Z"
                  transform="translate(-864.964 -375.699)"/>
            <path class="i"
                  d="M903.775,445.667h0a2.118,2.118,0,0,0-2.11,2.289,49.446,49.446,0,0,1,0,7.817,2.117,2.117,0,0,0,2.109,2.287h0a2.117,2.117,0,0,0,2.109-2.287,49.585,49.585,0,0,1,0-7.817A2.118,2.118,0,0,0,903.775,445.667Z"
                  transform="translate(-862.313 -375.136)"/>
            <path class="i"
                  d="M916.209,442.335h0a2.116,2.116,0,0,0-.684,3.036,49.485,49.485,0,0,1,3.909,6.77,2.118,2.118,0,0,0,2.972.926h0a2.118,2.118,0,0,0,.683-3.036,49.612,49.612,0,0,1-3.908-6.769A2.117,2.117,0,0,0,916.209,442.335Z"
                  transform="translate(-860.211 -375.699)"/>
            <path class="i"
                  d="M925.309,433.234h0a2.116,2.116,0,0,0,.926,2.972A49.541,49.541,0,0,1,933,440.114a2.117,2.117,0,0,0,3.036-.683h0a2.117,2.117,0,0,0-.926-2.972,49.424,49.424,0,0,1-6.769-3.909A2.118,2.118,0,0,0,925.309,433.234Z"
                  transform="translate(-858.672 -377.238)"/>
            <path class="i"
                  d="M928.64,420.8h0a2.117,2.117,0,0,0,2.288,2.111,49.562,49.562,0,0,1,7.817,0,2.117,2.117,0,0,0,2.287-2.111h0a2.116,2.116,0,0,0-2.287-2.109,49.434,49.434,0,0,1-7.817,0A2.118,2.118,0,0,0,928.64,420.8Z"
                  transform="translate(-858.109 -379.34)"/>
            <path class="i"
                  d="M925.308,408.917v0a2.116,2.116,0,0,0,3.036.684,49.5,49.5,0,0,1,6.769-3.91,2.115,2.115,0,0,0,.926-2.97h0a2.117,2.117,0,0,0-3.035-.683,49.462,49.462,0,0,1-6.771,3.908A2.117,2.117,0,0,0,925.308,408.917Z"
                  transform="translate(-858.672 -381.991)"/>
            <path class="i"
                  d="M916.206,400.219h0a2.119,2.119,0,0,0,2.973-.927,49.611,49.611,0,0,1,3.908-6.77,2.117,2.117,0,0,0-.683-3.035h0a2.115,2.115,0,0,0-2.97.926,49.541,49.541,0,0,1-3.91,6.768A2.117,2.117,0,0,0,916.206,400.219Z"
                  transform="translate(-860.211 -383.932)"/>
            <path class="i" d="M940.87,423.248a32.98,32.98,0,1,1-31.217-31.223A32.983,32.983,0,0,1,940.87,423.248Z"
                  transform="translate(-866.473 -383.5)"/>
            <path class="i"
                  d="M940.848,422.88a33.064,33.064,0,0,1-1.912,13.354,32.606,32.606,0,0,1-3.109,6.326,32.98,32.98,0,1,1-45.494-45.487,32.566,32.566,0,0,1,6.326-3.116,33,33,0,0,1,44.19,28.924Z"
                  transform="translate(-866.473 -383.5)"/>
            <path class="j"
                  d="M939.524,424.962a32.762,32.762,0,0,1-5.084,17.6,32.981,32.981,0,0,1-45.494-45.487,32.564,32.564,0,0,1,6.326-3.116,33.006,33.006,0,0,1,44.253,31.005Z"
                  transform="translate(-865.085 -383.5)"/>
            <path class="k" d="M890.1,419.286a4.9,4.9,0,1,1-4.9-4.9A4.9,4.9,0,0,1,890.1,419.286Z"
                  transform="translate(-865.641 -380.01)"/>
            <path class="k" d="M913.839,413.483a3.813,3.813,0,1,1-3.813-3.813A3.813,3.813,0,0,1,913.839,413.483Z"
                  transform="translate(-861.603 -380.744)"/>
            <path class="k" d="M917.748,437.746a2,2,0,1,1-2-2A2,2,0,0,1,917.748,437.746Z"
                  transform="translate(-860.428 -376.681)"/>
            <path class="j" d="M897.49,406.173a4.357,4.357,0,1,1-4.357-4.358A4.358,4.358,0,0,1,897.49,406.173Z"
                  transform="translate(-864.319 -381.968)"/>
            <circle class="k" cx="1.773" cy="1.773" r="1.773" transform="translate(37.571 14.685)"/>
            <path class="j" d="M901.575,436.65a4.358,4.358,0,1,1-4.357-4.357A4.357,4.357,0,0,1,901.575,436.65Z"
                  transform="translate(-863.683 -377.219)"/>
            <path class="j" d="M928.351,413.247a2.065,2.065,0,1,1-2.064-2.065A2.064,2.064,0,0,1,928.351,413.247Z"
                  transform="translate(-858.797 -380.508)"/>
        </g>
        <g transform="translate(918.051 377.983)">
            <rect class="l" width="11.327" height="46.154"
                  transform="matrix(0.369, -0.93, 0.93, 0.369, 108.259, 83.725)"/>
            <path class="m"
                  d="M891.707,410.82A57.472,57.472,0,1,0,966.323,378.6,57.472,57.472,0,0,0,891.707,410.82Zm99.238,39.374a49.291,49.291,0,1,1-27.639-64A49.292,49.292,0,0,1,990.945,450.194Z"
                  transform="translate(-887.641 -374.529)"/>
            <path class="m"
                  d="M1065.506,475.989h0a8.409,8.409,0,0,1-10.918,4.716L995.881,457.43l6.2-15.633,58.708,23.274A8.409,8.409,0,0,1,1065.506,475.989Z"
                  transform="translate(-870.777 -364.048)"/>
        </g>
    </g>
</svg>
