<svg xmlns="http://www.w3.org/2000/svg" xmlns:xlink="http://www.w3.org/1999/xlink" width="673.615" height="453.879" viewBox="0 0 673.615 453.879"><defs><style>.a,.q{fill:none;}.b{clip-path:url(#a);}.c{fill:#eadff1;}.d{clip-path:url(#b);}.e,.f{fill:#d8a35d;}.e{fill-rule:evenodd;}.g{fill:#d19442;}.h{fill:#947dce;}.i{fill:#ffc84f;}.j{opacity:0.15;}.k{fill:#62548a;}.l{opacity:0.3;}.m{opacity:0.5;}.n{fill:#999;}.o{fill:#ccc;}.p{fill:gray;}.q{stroke:#947dce;stroke-miterlimit:10;stroke-width:0.605px;}</style><clipPath id="a"><rect class="a" width="673.615" height="453.879"/></clipPath><clipPath id="b"><rect class="a" width="469.494" height="422.933"/></clipPath></defs><g transform="translate(-771.335 -340.461)"><g transform="translate(771.335 340.461)"><g class="b"><path class="c" d="M789.37,791.25c-4.135-75.667,49.778-158.909,84.189-222.8A498.943,498.943,0,0,1,1006.077,410.62c41.5-32.722,110.045-68.536,154.055-20.214,39.24,43.083,8.158,77.773.91,122.974-6.8,42.408,9.122,78.257,42.034,104.73,62.455,50.236,148.919,86.215,197.773,151.4,9.758,13.02,23.066,32.256,13.029,47.075-11.644,17.193-57.89,22.776-76.478,24.311-72.78,6.01-147.477,2.063-220.326-1.335-72.032-3.361-143.52-7.578-215.691-7.513-42.921.039-98.14-9.162-139.2,8.491" transform="translate(-774.305 -331.901)"/></g></g><g transform="translate(777.059 340.461)"><g transform="translate(0 30.946)"><g class="d"><g transform="translate(92.112 81.052)"><g transform="translate(0 34.62)"><path class="e" d="M878.205,463.977c-2.079-5.08-8.684-9.046-13.106-10.268a44.444,44.444,0,0,1-5.635-2.368c-3.426-1.156,1.995,3.732,4.043,4.552,1.663.666,4.646,5.622,6.278,7.321s5.131,4.163,7.011,4.179S877.935,464.922,878.205,463.977Z" transform="translate(-840.941 -451.165)"/><path class="e" d="M893.953,479.987c-3.973-7.137-6.949-15.619-14.582-19.162s-19.053-3.484-25.117-4.413c-7.135-1.091-4.144,1.23-.385,2.237,2.443.656,10.344,3,12.811,2.979,1.2-.008-9.715-1.84-10.3-1.675s-11.905-2.926-11.136-.844c1.491,4.037,14.275,4.552,18.347,5.441-2.148-.079-5.641-.722-7.709-.808-1.758-.072-7.061-2-7.584-.388-.824,2.544,12.265,4.2,14.007,4.341-1.723,1.384-8.291-.689-10.579-.848-.23-.016-2.315.483.192,1.367,5.275,1.858,9.361,3.556,15.394,4.447s13.109,1.82,17.13,7.329C887.661,479.814,890.812,480.377,893.953,479.987Z" transform="translate(-845.207 -449.555)"/></g><path class="f" d="M1040.928,740.266s-13.9,143.375-7.986,145.843c10.6,4.5,52.11,19.2,6.344,15.972-23.51,1.417-21.785-3.836-22.152-8.287-.3-3.637.391-131.95-.575-141.929-.217-2.234-.348-3.585-.348-3.585Z" transform="translate(-789.731 -322.758)"/><path class="f" d="M976.5,740.77s6.025,143.375.116,145.843c-10.6,4.5-52.112,19.2-6.345,15.972,23.51,1.417,21.785-3.836,22.152-8.287.3-3.637,2.967-31.238,3.933-41.216.216-2.234,4.823-114.369,4.823-114.369Z" transform="translate(-811.467 -323.262)"/><path class="g" d="M1007.6,461.8s-1.224,13.661,7.2,21.216-19.42,0-19.42,0,5.182-13.085,4.02-21.216S1007.6,461.8,1007.6,461.8Z" transform="translate(-796.487 -414.268)"/><ellipse class="f" cx="14.733" cy="20.101" rx="14.733" ry="20.101" transform="translate(191.938 12.623)"/><path class="h" d="M910.667,544.916c22.3-46.652,62.106-67.937,87.52-73.588,11-2.45,19.3-1.969,22.336.649a16.464,16.464,0,0,0,10.283,4,22.3,22.3,0,0,0,5.774-.526,28.727,28.727,0,0,0,6.121-2.082c.94-.437,1.489-.75,1.489-.75a59.7,59.7,0,0,1,15.554.928c57.5,11.257,67.5,107.663,66.986,115.955-.314,4.935-5.417,27.293-11.8,47.168-5.226,16.315-11.324,30.963-16.338,32.988-11.122,4.477-95.106,10.619-112.372,2.384-.4-.3-.84-.626-1.254-.985-6.479-5.27-13.506-15.677-17.233-25.425,0-.01-9.925-27.986-11.951-33.682-.023-.056-.033-.1-.056-.146-.068-.224-.146-.436-.224-.637-.022-.078-.056-.146-.078-.224" transform="translate(-823.971 -410.523)"/><path class="i" d="M970.314,620.216a9.079,9.079,0,0,0,5.155,2.379c12.112.237,64.421,1.134,92.8-.5,10.011-.576,17.042-1.465,18.277-2.816,0,0,0,.041-.008.115-.074,1.564-.971,19.471-2.231,42.944-2.486,46.334,2.3,112.7,7.9,132.841,1.208,4.348-63.785-2.238-63.785-2.238-.181-47.816,4.356-131.764,1.425-135.527-3.564-4.577-9.345,69.263-15.972,131.05-25.737,6.715-66.495,2.638-66.023,0C953.443,757.134,970.314,620.216,970.314,620.216Z" transform="translate(-811.911 -362.007)"/><path class="j" d="M944.466,581.388c.022.078.057.146.078.224.079.2.158.413.224.637.023.045.034.09.057.146,2.025,5.7,11.951,33.672,11.951,33.682,3.726,9.748,10.753,20.155,17.233,25.425-4.4-15.923-18.107-62.083-17.58-80.682C953.81,578.747,944.466,581.376,944.466,581.388Z" transform="translate(-813.006 -380.972)"/><path class="j" d="M1047.179,526s-27.831,83.082,49.387,118.367l1.569,1.044-.4-19.542s-36.387-50.774-36.523-52.08S1047.179,526,1047.179,526Z" transform="translate(-781.269 -392.269)"/><path class="j" d="M1010.343,479.273c.044,1.332-.661,2.205-2.8,1.914-6.67-.906-14.2-.716-19.673,1.791a4.645,4.645,0,0,1-4.5-.191c-3.5-2.048-5.674-8.157-6.536-10.865a1.889,1.889,0,0,1-.089-.593c11-2.45,19.3-1.969,22.336.649a16.464,16.464,0,0,0,10.283,4A9.067,9.067,0,0,1,1010.343,479.273Z" transform="translate(-802.533 -410.523)"/><path class="k" d="M994.74,849.631c.274-2.07-14.455-1.877-16.122-.195s-31.02,7.739-30.439,16.456,41.262,1.863,44.168,1.658S994.2,853.7,994.74,849.631Z" transform="translate(-811.804 -287.767)"/><path class="k" d="M1016.306,846.914c-.273-2.07,17.358.556,19.024,2.238s27.333,8.663,26.752,17.38-41.262,1.863-44.168,1.658S1016.845,850.982,1016.306,846.914Z" transform="translate(-789.728 -288.407)"/><g class="l" transform="translate(206.113 257.275)"><path d="M1001.417,622.144c-.2-.016-.393-.032-.584-.049C1000.833,622.095,1001.041,622.11,1001.417,622.144Z" transform="translate(-1000.833 -618.368)"/><path class="m" d="M1001.274,623.057c15.588,1.244,49.659-.96,49.659-.96,10.011-.576,17.042-1.465,18.277-2.816,0,0,0,.041-.008.115-.074,1.564-.971,19.471-2.232,42.944a11.785,11.785,0,0,1-1.638-.189,12.75,12.75,0,0,1-8.249-5.862,28.39,28.39,0,0,1-3.209-6.7C1042.253,627.475,1006.268,623.5,1001.274,623.057Z" transform="translate(-1000.69 -619.281)"/></g><g transform="translate(188.531)"><g transform="translate(3.109 5.604)"><path class="i" d="M998.386,444.839s25.505,14.141,17.935-8.564C1011.083,420.566,980.991,434.716,998.386,444.839Z" transform="translate(-988.892 -429.257)"/><path class="i" d="M1003.1,439.166s-14.271,8.468-12.893,16.962c0,0-3.147-25.36,11.043-26s19.682.731,18.422,27.549C1019.668,457.68,1015.545,436.347,1003.1,439.166Z" transform="translate(-989.906 -429.008)"/></g><path class="i" d="M998,431.917s.717-7.9,8.549-6.784,11.191,5.6,12.31,10.072,2.237,7.833,3.356,7.833c0,0-3.356,3.357-4.475,2.238,0,0,2.9,8.048-.787,14.655,0,0-1.452-10.178-7.047-11.3S998,431.917,998,431.917Z" transform="translate(-984.17 -425.025)"/><path class="i" d="M1002.105,430.352s-5.6-3.357-11.19,4.477l-3.357,6.713s1.119,1.119,3.357,0c0,0-1.02,7.884.049,12.336l3.307-13.455Z" transform="translate(-987.558 -423.529)"/></g><g transform="translate(169.77 137.643)"><path class="n" d="M973.51,549.83l14.19,90.9a9.707,9.707,0,0,0,11.079,8.091l62.039-9.691a3.029,3.029,0,0,0,.436-.09,9.673,9.673,0,0,0,7.643-10.989l-14.19-90.9a9.692,9.692,0,0,0-11.077-8.079L984.465,538.3l-2.875.448A9.692,9.692,0,0,0,973.51,549.83Z" transform="translate(-973.392 -528.953)"/><path class="o" d="M976.011,549.292l14.19,90.9a9.692,9.692,0,0,0,11.079,8.079l59.163-9.233a9.673,9.673,0,0,0,7.643-10.989l-14.19-90.9a9.692,9.692,0,0,0-11.077-8.079L983.654,538.3A9.673,9.673,0,0,0,976.011,549.292Z" transform="translate(-972.581 -528.953)"/><circle class="p" cx="7.489" cy="7.489" r="7.489" transform="translate(42.611 52.991)"/></g><path class="j" d="M1083.239,599.135s1.454-33.415-88.068-22.224,67.141,21.261,67.141,21.261Z" transform="translate(-805.521 -376.495)"/><g transform="translate(153.266 59.132)"><g transform="translate(0 138.712)"><path class="e" d="M1005.651,588.173c-1.061-.356-12.257-7.062-18.327-7.621s-15.147-.814-18.281-1.706c-3.686-1.048-4.617.417-.37,2.038a60.02,60.02,0,0,0,9.667,2.738c.608.025-3.347-.507-7.646-1.4-4.569-.947-9.526-2.234-9.753-1.421-.441,1.579,12.722,5.128,15.041,5.378a58.553,58.553,0,0,1-6.114-.74c-2.759-.49-5.921-1.467-6.542-.894-.979.9,5.993,3.637,11.754,4.435.1.187-1.76.478-8.54-.93-.682-.142-2.417.156-.185,1.188,4.7,2.171,6.555,3.451,13.361,3.663,6.635.208,13.961-1.159,18.734.442Z" transform="translate(-960.931 -573.082)"/><path class="e" d="M986.9,582.475s-5.139-5.4-10.908-6.287c-3.43-.53-3.349-1.393-3.935-1.65-1.94-.854-.062,2.748,2.851,3.673,2.368.751,3.69,4.8,5.114,5.655s5.682,2.433,6.744,1.875S986.9,582.475,986.9,582.475Z" transform="translate(-957.579 -574.408)"/></g><path class="h" d="M1092.745,487.863c21.079,18.861,35.664,36.378,44.761,94,4.617,29.234,3.414,58.469,2.212,73.886a18.214,18.214,0,0,1-12.518,15.839c-66.04,21.784-138.581-40.883-138.581-40.883-3.782-1.407,3.832-14.893,3.832-14.893,36.51-.379,64.486.74,93.582,11.932-.148-.069-28.6-53.515-32.452-68.261-10.085-38.667-43.279-72.129-34.69-87.285C1021.856,466.954,1071.483,468.84,1092.745,487.863Z" transform="translate(-952.291 -469.673)"/></g><g transform="translate(153.266 257.079)"><line class="q" x1="16.504" y2="172.579"/><line class="q" x1="16.38" y2="169.574" transform="translate(16.504 3.452)"/><line class="q" x1="13.621" y2="168.389" transform="translate(35.274 3.452)"/><line class="q" x2="0.351" y2="34.88" transform="translate(64.316 3.452)"/><line class="q" x1="3.16" y2="171.801" transform="translate(78.273 3.452)"/><line class="q" x1="0.88" y2="173.242" transform="translate(95.282 3.344)"/><line class="q" x2="3.332" y2="174.237" transform="translate(110.639 3.344)"/></g><path class="q" d="M963.125,633.543s92.94,4.388,117.5,0" transform="translate(-806.953 -357.38)"/><path class="q" d="M1025.345,649.123c-32.518,7.366-63.638-4.278-63.638-4.278" transform="translate(-807.413 -353.713)"/><path class="q" d="M1009.492,646.414s29.348,8.246,55.125,1.282" transform="translate(-791.911 -353.204)"/><path class="q" d="M960.5,654.4s23.434,12.269,61.5,6.014" transform="translate(-807.804 -350.615)"/><path class="q" d="M959.051,665.768s36.468,11.133,61.615,5.4" transform="translate(-808.274 -346.926)"/><path class="q" d="M957.6,677.066s18.572,14.559,61.634,8.029" transform="translate(-808.745 -343.26)"/><path class="q" d="M955.908,690.062s28.32,14.8,62.463,4.706" transform="translate(-809.294 -339.045)"/><path class="q" d="M954.336,701.968s20.058,14.237,62.859,5.968" transform="translate(-809.804 -335.182)"/><path class="q" d="M952.693,714.173s27.684,14.472,63.757,2.78" transform="translate(-810.337 -331.223)"/><path class="q" d="M951.377,723.7s16.334,15.709,64.119,4.063" transform="translate(-810.764 -328.133)"/><path class="q" d="M949.827,734.51s26.41,13.913,64.761,3.624" transform="translate(-811.267 -324.625)"/><path class="q" d="M1010.5,658.308s12.261,10.124,53.791,2.608" transform="translate(-791.584 -349.346)"/><path class="q" d="M1010.743,669.812s17.2,8.022,52.485,1.686" transform="translate(-791.505 -345.614)"/><path class="q" d="M1010.109,682.58s26.565,8,53.325,0" transform="translate(-791.711 -341.472)"/><path class="q" d="M1009.82,693.169s25.825,11.48,54.223,0" transform="translate(-791.805 -338.037)"/><path class="q" d="M1009.492,704.794s24.586,8.627,55.37,0" transform="translate(-791.911 -334.265)"/><path class="q" d="M1009.193,715.959s20.723,9.3,56.735,0" transform="translate(-792.008 -330.643)"/><path class="q" d="M1009.193,725.837s24.6,12.68,57.987,1.348" transform="translate(-792.008 -327.439)"/><path class="q" d="M1008.746,738.186s27.986,9.487,60.405.7" transform="translate(-792.153 -323.433)"/><path class="h" d="M969.181,612.876s-68.117,28.9-84.644-33.424,6.2-76.107-15.15-101.924L883.16,466.86S930.675,492,944.792,531.247,969.181,612.876,969.181,612.876Z" transform="translate(-837.362 -411.453)"/></g></g></g><g transform="translate(33.965)"><path class="i" d="M861.385,467.271l6.1.018a63.461,63.461,0,0,0,0-126.808l-6.039-.02-.058.04a63.476,63.476,0,0,0,0,126.77Zm-38.334-22.349a70.97,70.97,0,0,1,12.983-7.463,75.946,75.946,0,0,0,18.073,24A58.735,58.735,0,0,1,823.051,444.921Zm39.275,16.935A72.557,72.557,0,0,1,840.6,435.621a73.3,73.3,0,0,1,21.723-4.319Zm0-35.46a78.227,78.227,0,0,0-23.708,4.727,72.4,72.4,0,0,1-5.067-22.7l28.776-.015Zm0-22.9-28.93.017a73.148,73.148,0,0,1,3.952-23.48,77.09,77.09,0,0,0,24.978,5.291Zm12.289,58.11a75.845,75.845,0,0,0,18.68-25.037,71.129,71.129,0,0,1,13.969,7.58A58.55,58.55,0,0,1,874.616,461.611Zm35.893-21.171a75.673,75.673,0,0,0-15.321-8.39,77.517,77.517,0,0,0,5.069-23.661l22.911-.013A58.011,58.011,0,0,1,910.509,440.441Zm1.833-70.693a57.99,57.99,0,0,1,11.007,33.722l-22.945.013a78.106,78.106,0,0,0-4.016-24.425A77.372,77.372,0,0,0,912.342,369.748Zm-3.029-3.862a72.5,72.5,0,0,1-14.625,8.561,76.758,76.758,0,0,0-20.078-28.291A58.277,58.277,0,0,1,909.313,365.886Zm-42.079-19.458a72.026,72.026,0,0,1,22.89,29.834,72.123,72.123,0,0,1-22.89,4.214Zm0,38.964a77.143,77.143,0,0,0,24.578-4.526,73.263,73.263,0,0,1,3.683,22.618l-28.261.016Zm0,23.016,28.107-.015a72.509,72.509,0,0,1-4.76,21.953,78.341,78.341,0,0,0-23.347-4.008Zm0,22.831a73.386,73.386,0,0,1,21.426,3.638,72.445,72.445,0,0,1-21.426,26.466Zm-4.907-85.325v34.5a72.17,72.17,0,0,1-23.216-4.967A72.157,72.157,0,0,1,862.327,345.914Zm-8.211.395a76.866,76.866,0,0,0-19.509,27.186,72.332,72.332,0,0,1-13.612-8.446A58.476,58.476,0,0,1,854.116,346.308Zm-36.227,22.543a77.2,77.2,0,0,0,14.934,9.231,78.037,78.037,0,0,0-4.336,25.437l-22.274.012A57.926,57.926,0,0,1,817.889,368.851ZM806.4,408.439l22.238-.011a77.334,77.334,0,0,0,5.426,24.536,75.886,75.886,0,0,0-14.319,8.3A57.919,57.919,0,0,1,806.4,408.439Z" transform="translate(-801.302 -340.461)"/></g></g></g></svg>