<svg xmlns="http://www.w3.org/2000/svg" width="298.784" height="296.148" viewBox="0 0 298.784 296.148"><defs><style>.a{fill:#e60061;}.b{fill:#ff006c;}.c{opacity:0.6;}.d{fill:#4a001f;opacity:0.4;mix-blend-mode:multiply;isolation:isolate;}.e{fill:#fff;}.f{fill:#141414;}.g{fill:#b3004b;}</style></defs><g transform="translate(-948.862 -330.399)"><g transform="translate(948.862 338.107)"><path class="a" d="M1086.148,380.826s.067-.708.185-1.946c.057-.618.128-1.37.211-2.231a23.883,23.883,0,0,0,.19-2.858c0-1.018,0-2.122,0-3.287a23.3,23.3,0,0,0-.245-3.7,33.327,33.327,0,0,0-.53-3.955c-.294-1.334-.592-2.689-.891-4.043-.437-1.324-.874-2.647-1.3-3.951a34.976,34.976,0,0,0-1.531-3.754,37.832,37.832,0,0,0-1.622-3.45c-.576-1.074-1.119-2.091-1.618-3.027-1.007-1.877-2.011-3.355-2.638-4.431l-1.023-1.675a.242.242,0,0,1,.072-.34.265.265,0,0,1,.342.062l1.16,1.593c.717,1.029,1.846,2.433,3.017,4.243.585.907,1.218,1.891,1.888,2.931a38.745,38.745,0,0,1,1.941,3.379,36.282,36.282,0,0,1,1.89,3.731c.559,1.316,1.124,2.656,1.691,3.994.431,1.392.86,2.785,1.284,4.155a35.782,35.782,0,0,1,.9,4.121,25.662,25.662,0,0,1,.585,3.923c.1,1.272.2,2.471.293,3.58a25.7,25.7,0,0,1,.046,2.945c-.011.865-.02,1.62-.027,2.24-.015,1.244-.024,1.953-.024,1.953a2.125,2.125,0,0,1-4.249-.036C1086.138,380.946,1086.143,380.88,1086.148,380.826Z" transform="translate(-924.062 -336.587)"/><path class="a" d="M1095.912,376.424s.1-.617.277-1.695c.193-1.108.492-2.687.894-4.544a80.511,80.511,0,0,1,4.151-13.36c.554-1.159,1.029-2.343,1.661-3.447a27.676,27.676,0,0,1,1.928-3.188,25.98,25.98,0,0,1,2.169-2.755,19.106,19.106,0,0,1,2.4-2.079,10.235,10.235,0,0,1,2.359-1.3,7.427,7.427,0,0,1,1.979-.612l1.789-.24a.251.251,0,0,1,.28.208.244.244,0,0,1-.188.268l-.061.014-1.659.379a6.774,6.774,0,0,0-1.775.731,9.279,9.279,0,0,0-2.048,1.386,17.917,17.917,0,0,0-2.023,2.109,24.487,24.487,0,0,0-1.78,2.754,25.479,25.479,0,0,0-1.53,3.164c-.5,1.086-.848,2.27-1.268,3.409a77.378,77.378,0,0,0-2.77,13.161c-.22,1.833-.36,3.337-.444,4.392-.075,1.089-.117,1.711-.117,1.711a2.125,2.125,0,0,1-4.241-.275C1095.9,376.551,1095.9,376.483,1095.912,376.424Z" transform="translate(-920.021 -335.596)"/><path class="a" d="M1114.568,383.765l2.38-1.243,2.733-1.425,1.682-.878q.98-.373,2.056-.787l4.62-1.742c1.632-.63,3.4-.957,5.207-1.477a50.217,50.217,0,0,1,5.6-1.3l5.827-1.041,5.862-.687c1.927-.262,3.835-.36,5.678-.5,3.684-.3,7.122-.435,10.068-.554l9.815-.309a.246.246,0,0,1,.029.49l-9.768.878c-2.925.288-6.337.618-9.967,1.134-1.814.243-3.7.451-5.58.821l-5.72,1.008c-1.885.453-3.77.9-5.625,1.349a48.143,48.143,0,0,0-5.347,1.571c-1.69.6-3.415,1.023-4.883,1.7l-4.148,1.841c-.642.281-1.256.553-1.839.81l-1.626.974c-1.019.611-1.908,1.145-2.641,1.583-1.464.877-2.3,1.379-2.3,1.379a2.15,2.15,0,0,1-2.922-.676,2.05,2.05,0,0,1,.691-2.858C1114.485,383.81,1114.533,383.785,1114.568,383.765Z" transform="translate(-916.577 -329.979)"/><path class="a" d="M1133.071,403.846l9.2.249c2.761.066,5.982.145,9.458.313,3.464.087,7.175.457,10.867.726l5.5.727a49.162,49.162,0,0,1,5.283.956c1.7.4,3.367.628,4.889,1.121l4.283,1.366,1.9.606,1.631.756,2.645,1.231,2.3,1.069a.242.242,0,0,1,.119.325.254.254,0,0,1-.317.122l-.036-.013-2.341-.916c-.742-.292-1.644-.644-2.678-1.049l-1.642-.641c-.605-.152-1.242-.313-1.907-.48l-4.276-1.077c-1.512-.389-3.181-.514-4.859-.8a48.3,48.3,0,0,0-5.23-.614l-5.427-.378c-3.662-.037-7.3-.175-10.743-.048-3.427.047-6.646.169-9.408.274l-9.2.323a2.077,2.077,0,1,1-.152-4.15A1.185,1.185,0,0,1,1133.071,403.846Z" transform="translate(-913.156 -323.699)"/><path class="a" d="M1074.373,374.735s-.352-.88-.967-2.422a16.513,16.513,0,0,0-1.228-2.551c-.248-.469-.513-.969-.793-1.494q-.519-.77-1.09-1.617a33.549,33.549,0,0,0-2.68-3.512c-1.012-1.211-2.211-2.394-3.451-3.615-1.3-1.172-2.629-2.4-4.108-3.519-1.42-1.187-3-2.239-4.531-3.352-6.282-4.267-13.071-7.9-18.134-10.665-5.079-2.748-8.408-4.69-8.408-4.69a.242.242,0,0,1-.087-.336.255.255,0,0,1,.33-.092s3.429,1.734,8.665,4.175c5.224,2.458,12.244,5.69,18.935,9.669,1.64,1.047,3.327,2.03,4.878,3.172,1.6,1.073,3.079,2.268,4.516,3.423,1.39,1.209,2.742,2.392,3.91,3.628a36.877,36.877,0,0,1,3.148,3.64q.682.9,1.306,1.712c.368.6.718,1.169,1.047,1.7a20.348,20.348,0,0,1,1.532,2.76c.711,1.5,1.115,2.361,1.115,2.361a2.056,2.056,0,0,1-1.037,2.756,2.143,2.143,0,0,1-2.817-1.016C1074.406,374.815,1074.387,374.771,1074.373,374.735Z" transform="translate(-933.169 -336.843)"/><path class="a" d="M1054.087,388.615l-1.306-2.124c-.416-.675-.922-1.5-1.5-2.437a20,20,0,0,0-2.06-3l-2.63-3.288a35.122,35.122,0,0,0-3.275-3.484,41.665,41.665,0,0,0-3.761-3.543l-4.136-3.428-4.406-3.13c-1.432-1.069-2.957-1.964-4.394-2.889-1.454-.9-2.821-1.828-4.192-2.6l-3.821-2.242-7.956-4.547a.243.243,0,0,1-.092-.335.256.256,0,0,1,.33-.1l8.242,4.047c1.231.623,2.566,1.3,3.976,2.01,1.423.689,2.861,1.539,4.385,2.355,1.509.841,3.107,1.648,4.631,2.644l4.694,2.909,4.481,3.258a44.125,44.125,0,0,1,4.139,3.433,37.631,37.631,0,0,1,3.693,3.462c1.1,1.212,2.133,2.356,3.09,3.413a22.07,22.07,0,0,1,2.337,2.982c.639.9,1.2,1.691,1.654,2.34.92,1.3,1.444,2.039,1.444,2.039a2.048,2.048,0,0,1-.538,2.889,2.155,2.155,0,0,1-2.954-.525C1054.136,388.691,1054.109,388.652,1054.087,388.615Z" transform="translate(-936.766 -333.978)"/><path class="a" d="M1136.063,429.389s2.853,1,7.158,2.353c4.32,1.374,10.158,3.171,15.865,5.38,2.842,1.135,5.654,2.352,8.2,3.676a52.168,52.168,0,0,1,6.68,4.079,26.663,26.663,0,0,1,2.455,1.92,20.927,20.927,0,0,1,1.778,1.607l1.463,1.478a.243.243,0,0,1,0,.347.256.256,0,0,1-.34.008l-.017-.016-1.553-1.343a19.885,19.885,0,0,0-1.858-1.435,25.658,25.658,0,0,0-2.535-1.689,51.323,51.323,0,0,0-6.8-3.47c-2.578-1.1-5.41-2.078-8.268-2.975-5.745-1.738-11.627-3.074-16.064-4.124-4.463-1.043-7.4-1.825-7.4-1.825l-.034-.01a2.071,2.071,0,0,1-1.492-2.549,2.132,2.132,0,0,1,2.609-1.461C1135.957,429.354,1136.014,429.372,1136.063,429.389Z" transform="translate(-912.696 -318.712)"/><path class="a" d="M1135.547,461.828l2.069.183,2.376.208a21.481,21.481,0,0,1,3.132.419l3.75.687c1.341.218,2.643.66,4.048,1,1.39.372,2.837.719,4.252,1.213l4.321,1.4c5.721,2.019,11.336,4.2,15.583,5.721s7.123,2.421,7.123,2.421a.242.242,0,0,1,.165.306.255.255,0,0,1-.3.166s-2.944-.691-7.325-1.883-10.158-2.955-15.952-4.517c-1.454-.352-2.909-.7-4.34-1.049-1.425-.378-2.848-.6-4.216-.862-1.367-.224-2.7-.563-3.935-.663l-3.486-.376a19.414,19.414,0,0,0-3.013-.176l-2.385-.029c-1.323-.017-2.079-.024-2.079-.024a2.078,2.078,0,1,1,.04-4.156C1135.429,461.821,1135.493,461.825,1135.547,461.828Z" transform="translate(-912.695 -312.326)"/><path class="a" d="M1124.286,485.763l.288.559c.19.348.459.94.819,1.543a20.679,20.679,0,0,0,1.4,1.934,23.08,23.08,0,0,0,2.285,2.422,39.185,39.185,0,0,0,7.1,4.963,93.607,93.607,0,0,0,9.266,4.435l4.888,2.028c1.628.707,3.2,1.246,4.771,2.1a40.721,40.721,0,0,1,4.206,2.348c1.273.9,2.526,1.7,3.571,2.525l6.914,5.512a.242.242,0,0,1,.05.343.268.268,0,0,1-.347.053l-7.259-5.053c-1.088-.75-2.318-1.417-3.578-2.2a40.062,40.062,0,0,0-4.3-2.048c-1.394-.659-3.129-1.151-4.749-1.732l-5.037-1.718a96.768,96.768,0,0,1-9.827-3.949,42.589,42.589,0,0,1-8.071-4.909,26.662,26.662,0,0,1-2.844-2.642,22.905,22.905,0,0,1-1.99-2.449c-.468-.685-.726-1.181-.954-1.541l-.325-.539a2.05,2.05,0,0,1,.752-2.843,2.149,2.149,0,0,1,2.907.736C1124.24,485.678,1124.266,485.725,1124.286,485.763Z" transform="translate(-915.239 -307.854)"/><path class="a" d="M1111.531,509.75l1.654,1.785,1.9,2.05c.743.763,1.52,1.8,2.4,2.841a63.907,63.907,0,0,1,5.383,7.575,46.426,46.426,0,0,1,2.469,4.62,47.731,47.731,0,0,1,1.927,5.027c.576,1.7,1,3.438,1.42,5.114s.791,3.328,1.261,4.877a35.388,35.388,0,0,0,1.549,4.384c.318.669.626,1.321.922,1.95.33.615.7,1.182,1.028,1.744a26.84,26.84,0,0,0,2.023,2.927,20.872,20.872,0,0,0,1.76,2.129l1.613,1.8.013.016a.242.242,0,0,1-.024.346.258.258,0,0,1-.342-.012l-1.748-1.718a21.364,21.364,0,0,1-1.932-2.048,27.679,27.679,0,0,1-2.275-2.871c-.377-.556-.8-1.121-1.183-1.737q-.531-.951-1.1-1.966a36.825,36.825,0,0,1-1.914-4.446c-.591-1.567-1.073-3.217-1.6-4.85s-1.05-3.289-1.709-4.877a45.659,45.659,0,0,0-2.137-4.632,43.822,43.822,0,0,0-2.612-4.193,38.923,38.923,0,0,0-2.8-3.695,38.453,38.453,0,0,0-2.745-3.12c-.9-.932-1.627-1.809-2.442-2.544l-2.031-1.923-1.769-1.676a2.044,2.044,0,0,1-.049-2.937,2.158,2.158,0,0,1,3-.047C1111.464,509.678,1111.5,509.719,1111.531,509.75Z" transform="translate(-917.678 -303.058)"/><path class="a" d="M1105,515.129s.017.772.043,2.121c.006,1.379.126,3.2.252,5.5s.359,5.024.31,8c.054,1.474-.147,3.032-.224,4.589a37.522,37.522,0,0,1-.875,4.689l-.623,2.309q-.336,1.093-.669,2.176c-.385,1.439-.775,2.847-1.056,4.254a50.116,50.116,0,0,0-1.109,7.715c.016,1.129-.08,2.187.028,3.1.129.9.161,1.721.324,2.354.409,1.248.643,1.962.643,1.962l.02.063a.242.242,0,0,1-.16.3.249.249,0,0,1-.3-.14s-.305-.734-.839-2.021c-.221-.657-.321-1.488-.525-2.431-.183-.947-.169-2.023-.273-3.2a51.308,51.308,0,0,1,.535-7.984c.177-1.45.471-2.951.758-4.474q.257-1.123.513-2.26l.414-2.195a34.9,34.9,0,0,0,.482-4.4c-.045-1.477.042-2.9-.118-4.318-.164-2.8-.6-5.451-.894-7.744s-.585-4.313-.687-5.63c-.13-1.343-.2-2.111-.2-2.111a2.091,2.091,0,0,1,1.916-2.262,2.113,2.113,0,0,1,2.315,1.873C1105,515.019,1105,515.08,1105,515.129Z" transform="translate(-919.221 -302.269)"/><path class="a" d="M997.016,458.961l-2.182-.47c-.717-.181-1.486-.256-2.4-.386a29.249,29.249,0,0,0-3.133-.3,52.206,52.206,0,0,0-8.051.147c-1.474.158-3,.318-4.541.605-1.551.218-3.091.62-4.652.944-1.53.434-3.09.8-4.568,1.322-1.506.459-2.943,1.025-4.339,1.571A56.068,56.068,0,0,0,955.813,466c-1.035.605-1.978,1.172-2.763,1.745-.8.554-1.516,1.019-2.045,1.474l-1.719,1.371-.014.012a.254.254,0,0,1-.352-.035.24.24,0,0,1,.022-.333l1.635-1.51c.506-.5,1.193-1.019,1.964-1.641.758-.64,1.673-1.284,2.681-1.975a57.4,57.4,0,0,1,7.231-4.212c1.385-.66,2.823-1.346,4.334-1.927,1.486-.648,3.06-1.135,4.612-1.7,1.586-.451,3.157-.978,4.754-1.319,1.579-.411,3.163-.694,4.7-.968a55.691,55.691,0,0,1,8.542-.76,33.015,33.015,0,0,1,3.5.092c1.055.074,2.01.123,2.682.246,1.408.2,2.209.313,2.209.313a2.084,2.084,0,0,1,1.8,2.354,2.116,2.116,0,0,1-2.407,1.756C997.12,458.98,997.063,458.969,997.016,458.961Z" transform="translate(-948.862 -313.817)"/><path class="a" d="M1008.269,472.057l-.557-.184a11.682,11.682,0,0,0-1.5-.445,10.155,10.155,0,0,0-1.961-.136,14.537,14.537,0,0,0-2.923.347,27.287,27.287,0,0,0-3.51,1.112c-1.236.5-2.535,1.08-3.855,1.769-2.647,1.359-5.4,3.042-8.153,4.76a86.574,86.574,0,0,1-8.384,4.842c-2.782,1.282-5.527,2.261-7.719,3.236-1.105.492-2.1.976-2.946,1.458-.872.451-1.543.969-2.146,1.334l-1.719,1.368-.025.019a.252.252,0,0,1-.351-.036.243.243,0,0,1,.023-.333l1.664-1.529c.585-.416,1.249-1,2.106-1.528.839-.557,1.819-1.126,2.91-1.707,2.2-1.167,4.774-2.287,7.445-3.757a84.844,84.844,0,0,0,7.8-5.281c2.631-1.909,5.3-3.821,7.978-5.444,1.333-.819,2.682-1.547,4-2.189a30.642,30.642,0,0,1,3.922-1.549,18.393,18.393,0,0,1,3.671-.7,13.182,13.182,0,0,1,3.182.075,13.762,13.762,0,0,1,1.7.378l.569.145a2.076,2.076,0,0,1,1.52,2.534,2.13,2.13,0,0,1-2.591,1.486C1008.371,472.09,1008.314,472.073,1008.269,472.057Z" transform="translate(-946.194 -311.23)"/><path class="a" d="M1015.041,483.312l.011.553a9.74,9.74,0,0,1-.062,1.745,14.325,14.325,0,0,1-.58,2.823,23.788,23.788,0,0,1-1.34,3.193,35.461,35.461,0,0,1-2.053,3.38c-.791,1.138-1.657,2.3-2.6,3.447-1.868,2.311-4.012,4.6-6.048,6.9l-.749.864-.842.894-1.6,1.67-1.572,1.642c-.584.5-1.162,1-1.727,1.484-1.146.957-2.221,1.919-3.291,2.754-1.105.781-2.148,1.52-3.112,2.2a53.559,53.559,0,0,1-4.815,3.039l-1.855,1.1a.255.255,0,0,1-.344-.083.241.241,0,0,1,.068-.325l.018-.012,1.755-1.225a52.258,52.258,0,0,0,4.517-3.34c.894-.738,1.861-1.536,2.886-2.38.976-.886,1.933-1.884,2.958-2.873l1.539-1.524,1.443-1.754,1.465-1.78.694-.848.7-.951c1.9-2.494,3.825-4.894,5.441-7.232.823-1.163,1.547-2.312,2.2-3.409a32.125,32.125,0,0,0,1.6-3.145,20.1,20.1,0,0,0,.9-2.7,10.673,10.673,0,0,0,.259-1.95,6.294,6.294,0,0,0-.051-1.367c-.035-.36-.055-.55-.055-.55a2.124,2.124,0,0,1,4.227-.407A1.5,1.5,0,0,1,1015.041,483.312Z" transform="translate(-942.278 -308.509)"/><path class="a" d="M1031.618,495.733l.118.654c.066.453.214.99.31,1.91a25.156,25.156,0,0,1,.237,3.182,22.741,22.741,0,0,1-.343,4.1,27.287,27.287,0,0,1-3.783,9.3c-1.871,3.067-4.031,6.074-6.114,9.164-2.1,3.079-4.2,6.143-6.042,9.075a75.244,75.244,0,0,0-4.562,8.266c-.636,1.231-1.045,2.426-1.481,3.463a25.429,25.429,0,0,0-.979,2.733c-.493,1.537-.773,2.416-.773,2.416l-.006.017a.251.251,0,0,1-.313.16.244.244,0,0,1-.169-.292s.229-.9.626-2.481a25.762,25.762,0,0,1,.818-2.824c.373-1.074.715-2.317,1.282-3.6a76.27,76.27,0,0,1,4.1-8.666c1.681-3.081,3.6-6.287,5.5-9.48,1.884-3.2,3.865-6.389,5.44-9.383a23.971,23.971,0,0,0,2.841-8.389,18.936,18.936,0,0,0,.065-3.441,21.476,21.476,0,0,0-.361-2.62c-.1-.688-.323-1.377-.407-1.776-.1-.421-.16-.646-.16-.646a2.076,2.076,0,0,1,1.564-2.507,2.125,2.125,0,0,1,2.563,1.53C1031.6,495.642,1031.611,495.693,1031.618,495.733Z" transform="translate(-937.318 -306.011)"/><path class="a" d="M1040.753,506.36l.323,2.274c.1.725.227,1.6.37,2.612q.108.755.227,1.605.025.9.054,1.892c.03,1.311.062,2.734.1,4.238-.017,1.493-.268,3.034-.4,4.638l-.251,2.434-.537,2.445c-.372,1.623-.712,3.349-1.12,4.922-.443,1.627-.825,3.236-1.117,4.8-.356,1.571-.48,3.157-.676,4.677a29.19,29.19,0,0,0-.007,4.4c.06.7.119,1.377.175,2.034q.231.958.448,1.847a12.517,12.517,0,0,0,1.12,3.136c.2.458.395.886.573,1.281.25.354.481.679.688.975l1.314,1.863.028.039a.24.24,0,0,1-.065.338.254.254,0,0,1-.335-.048l-1.485-1.824c-.238-.292-.5-.615-.786-.968-.214-.4-.444-.828-.692-1.287a13.473,13.473,0,0,1-1.4-3.209q-.293-.922-.608-1.92c-.106-.682-.219-1.39-.334-2.116a30.53,30.53,0,0,1-.317-4.611c.091-1.59.108-3.252.364-4.913.195-1.685.471-3.353.793-4.981.316-1.691.5-3.267.755-4.872q.177-1.191.353-2.361.036-1.177.072-2.322c.018-1.519.159-3,.075-4.37-.126-1.361-.244-2.647-.354-3.836-.052-.59-.1-1.157-.151-1.7q-.179-.84-.34-1.587c-.212-1-.4-1.865-.551-2.58-.305-1.432-.481-2.25-.481-2.25a2.079,2.079,0,0,1,1.645-2.457,2.123,2.123,0,0,1,2.513,1.608C1040.737,506.257,1040.747,506.316,1040.753,506.36Z" transform="translate(-931.762 -303.941)"/><path class="a" d="M1055.834,513.574s-.057.858-.16,2.359c-.089,1.468-.328,3.763-.664,6.317-.645,5.176-1.913,11.925-2.254,18.677-.019,1.681-.1,3.377.048,5.02a41.387,41.387,0,0,0,.562,4.821,32.051,32.051,0,0,0,1.241,4.362c.263.673.471,1.352.758,1.971q.47.913.906,1.762a21.355,21.355,0,0,0,1.835,2.955,14.553,14.553,0,0,0,1.658,2.132l1.554,1.788.018.021a.239.239,0,0,1-.03.343.254.254,0,0,1-.341-.016s-.617-.622-1.7-1.708a15.276,15.276,0,0,1-1.84-2.068,22.222,22.222,0,0,1-2.1-2.923l-1.065-1.769c-.341-.624-.609-1.312-.93-2a33.613,33.613,0,0,1-1.611-4.488,43.844,43.844,0,0,1-.933-5c-.27-1.719-.307-3.469-.406-5.222-.121-7.011.7-13.9.982-18.99.159-2.579.236-4.573.227-6.111,0-1.506,0-2.365,0-2.365a2.124,2.124,0,0,1,4.248-.011C1055.839,513.476,1055.836,513.53,1055.834,513.574Z" transform="translate(-928.949 -302.608)"/><path class="a" d="M1076.172,527.489l.421,2.136a20.3,20.3,0,0,1,.4,2.544,33.447,33.447,0,0,1,.287,3.431,52.394,52.394,0,0,1-.374,8.342c-.361,3-.9,6.134-1.375,9.234-.2,1.548-.431,3.1-.526,4.617a37.725,37.725,0,0,0-.117,4.465,27.287,27.287,0,0,0,.469,4.14,24.771,24.771,0,0,0,.914,3.638,28.429,28.429,0,0,0,1.166,2.971,16.013,16.013,0,0,0,1.121,2.209c.673,1.2,1.057,1.895,1.057,1.895l.012.02a.242.242,0,0,1-.1.332.255.255,0,0,1-.331-.083l-1.213-1.84a16.835,16.835,0,0,1-1.309-2.171,29.49,29.49,0,0,1-1.427-2.974,25.908,25.908,0,0,1-1.231-3.715,28.967,28.967,0,0,1-.812-4.3,39.522,39.522,0,0,1-.224-4.664c-.015-1.593.1-3.189.189-4.788.244-3.183.55-6.316.683-9.225a49.083,49.083,0,0,0-.224-7.84,29.609,29.609,0,0,0-.47-3,17.537,17.537,0,0,0-.55-2.348c-.367-1.337-.578-2.1-.578-2.1a2.072,2.072,0,0,1,1.5-2.545,2.129,2.129,0,0,1,2.6,1.467C1076.151,527.39,1076.163,527.441,1076.172,527.489Z" transform="translate(-924.714 -299.774)"/><path class="a" d="M1089.2,528.24s-.486,7.725-.97,15.45c-.06.965-.121,1.932-.181,2.882s-.135,1.9-.2,2.818c-.209,1.872-.451,3.487-.479,4.9a11.6,11.6,0,0,0,.078,1.9,10.927,10.927,0,0,0,.317,1.414c.34.709.569,1.12.569,1.12l.025.044a.239.239,0,0,1-.1.329.249.249,0,0,1-.317-.067s-.31-.4-.788-1.173a11.338,11.338,0,0,1-.538-1.508,12.46,12.46,0,0,1-.332-2.022c-.152-1.477-.1-3.234-.121-4.974-.045-.895-.091-1.819-.138-2.758s-.111-1.914-.167-2.877c-.451-7.713-.9-15.425-.9-15.425l0-.067a2.128,2.128,0,0,1,4.249-.238A2.4,2.4,0,0,1,1089.2,528.24Z" transform="translate(-922.166 -299.73)"/><path class="a" d="M992.894,448.767l-1.648-1.24a19.27,19.27,0,0,0-1.827-1.171c-.653-.443-1.622-.879-2.565-1.392-1.976-.993-4.4-2.048-6.983-3.461a28.388,28.388,0,0,1-3.809-2.542c-.327-.263-.587-.427-.967-.775l-.8-.782-1.6-1.573a39.213,39.213,0,0,1-3.118-3.231l-2.828-3.378a35.915,35.915,0,0,1-2.44-3.263c-.74-1.056-1.441-2.054-2.089-2.975s-1.126-1.835-1.61-2.605c-.466-.784-.873-1.465-1.207-2.028l-1.049-1.763a.242.242,0,0,1,.091-.335.253.253,0,0,1,.33.072l.011.016s.431.608,1.182,1.672c.375.53.829,1.175,1.352,1.914.541.726,1.068,1.6,1.792,2.45l2.287,2.772a35.2,35.2,0,0,0,2.63,3c.959.984,1.952,2,2.961,3.034a38.071,38.071,0,0,0,3.319,2.946l1.719,1.447.854.72c.181.139.555.367.821.544a25.646,25.646,0,0,0,3.579,2.011c2.468,1.115,4.965,1.989,7.1,2.864,1.085.486,2.047.824,2.964,1.331a25.257,25.257,0,0,1,2.264,1.23l1.743,1.114a2.051,2.051,0,0,1,.616,2.876,2.154,2.154,0,0,1-2.941.6C992.991,448.837,992.936,448.8,992.894,448.767Z" transform="translate(-947.006 -321.271)"/><path class="a" d="M999.7,446.457s-.019-.264-.057-.758c-.019-.245-.042-.551-.069-.909-.037-.339-.13-.609-.2-.98a6.157,6.157,0,0,0-.341-1.239,9.064,9.064,0,0,0-.584-1.5,20.573,20.573,0,0,0-2-3.455,69.1,69.1,0,0,0-7.078-7.968c-1.4-1.441-2.869-2.944-4.268-4.6-1.433-1.7-2.55-3.52-3.788-5.236-1.138-1.83-2.334-3.663-3.365-5.486s-2.056-3.617-3.042-5.354-1.917-3.41-2.812-5c-.879-1.6-1.8-3.045-2.606-4.416s-1.658-2.549-2.353-3.638a32.922,32.922,0,0,0-1.945-2.714l-1.773-2.318-.012-.016a.244.244,0,0,1,.05-.343.256.256,0,0,1,.342.039l1.914,2.239a32.859,32.859,0,0,1,2.115,2.636c.76,1.055,1.7,2.2,2.578,3.542s1.9,2.751,2.867,4.3c.983,1.543,2.019,3.171,3.091,4.855l3.315,5.157c1.129,1.761,2.358,3.431,3.557,5.152,1.347,1.669,2.562,3.417,3.929,4.859,1.39,1.478,2.895,2.864,4.362,4.219a71.926,71.926,0,0,1,7.871,7.974,24.32,24.32,0,0,1,2.573,3.928,12.481,12.481,0,0,1,.832,1.829,9.771,9.771,0,0,1,.562,1.688c.132.531.279,1.056.338,1.429.048.355.087.659.121.9l.1.754a2.086,2.086,0,0,1-1.833,2.327,2.114,2.114,0,0,1-2.379-1.792C999.7,446.534,999.7,446.492,999.7,446.457Z" transform="translate(-946.02 -326.32)"/><path class="a" d="M1034.83,392.186l-1.974-1.787-1.041-.94-1.231-.8a18.782,18.782,0,0,0-3.134-1.831c-.626-.3-1.255-.641-1.947-.94-.712-.27-1.446-.553-2.2-.841-1.5-.6-3.2-1.074-4.92-1.648-1.752-.544-3.562-1.092-5.414-1.748-1.866-.579-3.671-1.42-5.554-2.193a46.873,46.873,0,0,1-5.167-2.9,53.179,53.179,0,0,1-4.623-3.353,38.6,38.6,0,0,1-6.933-7.283,24.616,24.616,0,0,1-2.03-3.462,16.544,16.544,0,0,1-1.046-2.9,10.631,10.631,0,0,1-.366-1.946c-.057-.452-.089-.694-.089-.694a.245.245,0,0,1,.218-.273.248.248,0,0,1,.276.2l.006.033.128.664a9.843,9.843,0,0,0,.464,1.842,15.94,15.94,0,0,0,1.167,2.715,23.537,23.537,0,0,0,2.147,3.2,37.358,37.358,0,0,0,7.1,6.617,51.939,51.939,0,0,0,4.64,2.964,44.742,44.742,0,0,0,5.114,2.48c1.763.593,3.543,1.309,5.383,1.761,1.8.522,3.645.964,5.416,1.4,1.785.481,3.525.854,5.175,1.4l2.407.764c.771.279,1.5.617,2.217.908a22.43,22.43,0,0,1,3.842,1.969l1.58.95,1.1.879,2.08,1.666a2.046,2.046,0,0,1,.3,2.922,2.155,2.155,0,0,1-2.988.291C1034.9,392.244,1034.859,392.211,1034.83,392.186Z" transform="translate(-941.35 -332.959)"/><path class="a" d="M1020.538,407.521l-1.048-1.839c-.167-.292-.352-.616-.553-.969-.214-.3-.446-.623-.693-.97a18.906,18.906,0,0,0-1.781-2.3l-1.121-1.277q-.651-.6-1.342-1.233a31.045,31.045,0,0,0-3.114-2.446,32.932,32.932,0,0,0-3.751-2.075,31.411,31.411,0,0,0-4.163-1.654,36.774,36.774,0,0,0-4.4-1.14l-4.432-.961a30.315,30.315,0,0,1-7.7-2.681,10.712,10.712,0,0,1-4.261-3.878,6.793,6.793,0,0,1-.706-1.444c-.139-.342-.214-.524-.214-.524a.241.241,0,0,1,.14-.316.248.248,0,0,1,.316.117l.019.038.24.481a6.329,6.329,0,0,0,.762,1.3,9.9,9.9,0,0,0,4.2,3.283,29,29,0,0,0,7.534,2.008l4.459.629a38.8,38.8,0,0,1,4.7.856,34.111,34.111,0,0,1,4.6,1.447,35.965,35.965,0,0,1,4.275,1.972,33.985,33.985,0,0,1,3.673,2.464l1.614,1.279c.474.463.933.909,1.372,1.34a22.371,22.371,0,0,1,2.28,2.532l.909,1.116.625.926c.754,1.117,1.185,1.755,1.185,1.755a2.051,2.051,0,0,1-.6,2.879,2.153,2.153,0,0,1-2.944-.585C1020.593,407.613,1020.563,407.563,1020.538,407.521Z" transform="translate(-942.511 -328.023)"/><path class="a" d="M1002.743,426.365,998.5,420.82c-2.516-3.368-6-7.666-9.484-12.01-1.763-2.156-3.619-4.256-5.233-6.373a31.427,31.427,0,0,1-3.841-6.183,20.085,20.085,0,0,1-1.526-4.888c-.216-1.211-.275-1.909-.275-1.909a.247.247,0,0,1,.224-.269.258.258,0,0,1,.274.2s.116.679.429,1.833a19.348,19.348,0,0,0,1.865,4.554c1.927,3.626,5.944,7.457,9.9,11.455,3.855,4.087,7.756,8.178,10.517,11.316,2.811,3.116,4.683,5.194,4.683,5.194a2.045,2.045,0,0,1-.179,2.932,2.158,2.158,0,0,1-3-.175C1002.818,426.458,1002.778,426.408,1002.743,426.365Z" transform="translate(-943.119 -326.574)"/><path class="a" d="M1134.325,475.586s.109.2.315.583a10.768,10.768,0,0,0,.891,1.508q.28.391.621.864l.928.988c.349.336.773.641,1.19,1,.457.309.95.629,1.483.94a17.833,17.833,0,0,0,3.824,1.49,28.965,28.965,0,0,0,4.726.858c3.37.382,7.125.372,10.872.467,1.878.03,3.756.057,5.605.086,1.841,0,3.7.166,5.474.251,1.779.257,3.5.395,5.115.8,1.573.38,3.074.931,4.383,1.374a37.7,37.7,0,0,0,6.445,1.852,13.623,13.623,0,0,0,2.5.178l.011.486a.023.023,0,0,0,.023.022.026.026,0,0,0,.023-.019,14.451,14.451,0,0,1-2.64-.024,38.619,38.619,0,0,1-6.691-1.482c-1.375-.373-2.762-.794-4.341-1.078-1.527-.285-3.225-.318-4.928-.462-1.743.024-3.512-.036-5.361.083l-5.585.255c-3.748.133-7.5.379-11.147.2a32.345,32.345,0,0,1-5.281-.634,21.442,21.442,0,0,1-4.7-1.514c-.7-.346-1.359-.718-1.976-1.085-.58-.426-1.158-.8-1.65-1.22l-1.321-1.24c-.372-.455-.715-.872-1.024-1.249a13.653,13.653,0,0,1-1.118-1.65c-.23-.366-.352-.562-.352-.562a2.05,2.05,0,0,1,.695-2.858,2.153,2.153,0,0,1,2.922.681C1134.279,475.5,1134.3,475.552,1134.325,475.586Z" transform="translate(-913.265 -309.842)"/><path class="a" d="M1138.3,445.159l1.354,1.043c.216.165.453.349.713.549l.77.413a10.1,10.1,0,0,0,1.968.941l1.237.469,1.4.347a27.839,27.839,0,0,0,3.139.542c2.245.207,4.7.275,7.206.266,2.506.013,5.041-.012,7.438.2a32.972,32.972,0,0,1,3.439.469,18.42,18.42,0,0,1,3,.836l1.3.48,1.1.594a8.094,8.094,0,0,1,1.7,1.073l1.373,1.068a.241.241,0,0,1,.038.343.25.25,0,0,1-.329.051l-.037-.021-1.416-.906a7.63,7.63,0,0,0-1.7-.868l-1.079-.465-1.266-.336a17.089,17.089,0,0,0-2.886-.526,31.616,31.616,0,0,0-3.294-.145c-2.3.01-4.769.258-7.263.475-2.5.238-5.051.408-7.5.4a30.951,30.951,0,0,1-3.569-.285l-1.67-.256-1.545-.421a13.808,13.808,0,0,1-2.733-1.026q-.61-.282-1.138-.529l-.762-.482-1.447-.915a2.049,2.049,0,0,1-.635-2.871,2.153,2.153,0,0,1,2.936-.622C1138.192,445.08,1138.25,445.12,1138.3,445.159Z" transform="translate(-912.375 -315.682)"/><path class="a" d="M1135.616,414.111l2.157.905c1.36.567,3.287,1.367,5.634,2.184a43.564,43.564,0,0,0,8.117,2.092,17.627,17.627,0,0,0,4.543.151c1.417-.14,3.132-.7,4.844-.993a27.977,27.977,0,0,1,10.393.179,45.311,45.311,0,0,1,8.421,2.719c2.365.98,4.307,1.8,5.712,2.224a12.22,12.22,0,0,0,1.642.416l.589.115.03.006a.245.245,0,0,1,.2.287.251.251,0,0,1-.276.195l-.622-.078a12.229,12.229,0,0,1-1.736-.313c-1.476-.34-3.512-1.032-5.925-1.84a43.984,43.984,0,0,0-8.323-2.068,25.185,25.185,0,0,0-4.748-.208,24.908,24.908,0,0,0-4.763.677c-1.623.384-3.125,1.039-5.03,1.377a20.577,20.577,0,0,1-5.282.178,47.173,47.173,0,0,1-8.9-1.682c-2.526-.7-4.578-1.4-6-1.891l-2.21-.763a2.065,2.065,0,0,1-1.3-2.647,2.137,2.137,0,0,1,2.7-1.274C1135.523,414.074,1135.577,414.094,1135.616,414.111Z" transform="translate(-912.808 -321.718)"/><path class="a" d="M1123.788,391.629l2.556.117c1.654.118,3.9.116,6.6.092l4.394-.245c1.552-.176,3.195-.339,4.885-.589,1.68-.313,3.437-.543,5.186-.982,1.763-.372,3.544-.816,5.312-1.324,1.782-.453,3.532-1.044,5.27-1.569,1.816-.536,3.451-1.077,5.246-1.435a49.793,49.793,0,0,1,5.031-.876c1.6-.208,3.121-.34,4.523-.433,2.8-.177,5.134-.218,6.763-.243l2.562-.022a.245.245,0,0,1,.017.489s-.927.066-2.549.177-3.935.306-6.687.65c-1.375.176-2.859.395-4.411.695a48.65,48.65,0,0,0-4.8,1.14c-1.605.413-3.356,1.1-5.011,1.706-1.723.64-3.451,1.344-5.238,1.921-1.767.628-3.557,1.2-5.349,1.693-1.769.561-3.573.916-5.3,1.346-1.737.37-3.439.647-5.048.928l-4.578.542c-2.879.208-5.278.348-6.878.333l-2.559.042a2.077,2.077,0,1,1-.075-4.153C1123.694,391.627,1123.745,391.628,1123.788,391.629Z" transform="translate(-914.983 -327.568)"/><path class="a" d="M1104.437,377.82s.34-.554.933-1.525a14.893,14.893,0,0,1,1.408-1.856,17.473,17.473,0,0,1,2.1-2.12,32.286,32.286,0,0,1,2.681-2.078c1.016-.608,2.044-1.333,3.188-1.894a62.614,62.614,0,0,1,7.2-3.256c4.982-1.91,10.022-3.455,13.723-4.8a64.5,64.5,0,0,0,6.07-2.457.253.253,0,0,1,.336.11.245.245,0,0,1-.1.319,63.63,63.63,0,0,1-5.891,3.007c-3.6,1.675-8.494,3.658-13.172,5.939a59.415,59.415,0,0,0-6.579,3.693c-1.025.616-1.878,1.352-2.749,1.976a28.68,28.68,0,0,0-2.159,2,13.589,13.589,0,0,0-1.506,1.812,9.435,9.435,0,0,0-.955,1.492c-.5,1.018-.791,1.6-.791,1.6a2.146,2.146,0,0,1-2.835.974,2.058,2.058,0,0,1-1-2.773C1104.373,377.933,1104.406,377.871,1104.437,377.82Z" transform="translate(-918.402 -332.73)"/><path class="a" d="M1118.459,495.64l1.012,1.745a22.471,22.471,0,0,0,1.179,1.927c.489.678.965,1.482,1.624,2.3s1.337,1.745,2.195,2.612c.8.91,1.734,1.809,2.712,2.733,1.982,1.829,4.29,3.66,6.543,5.648,1.133.981,2.219,2.044,3.248,3.116l1.472,1.652,1.306,1.714a40.47,40.47,0,0,1,2.195,3.4c.571,1.148,1.173,2.2,1.608,3.221s.812,1.964,1.156,2.8c.286.849.533,1.591.739,2.2.4,1.22.63,1.916.63,1.916a.244.244,0,0,1-.163.307.25.25,0,0,1-.307-.139l-.008-.016s-.28-.672-.774-1.848c-.25-.585-.552-1.294-.9-2.109-.4-.788-.855-1.676-1.349-2.646s-1.17-1.934-1.8-3c-.734-1-1.461-2.085-2.359-3.089q-.669-.752-1.364-1.525l-1.516-1.455c-1.06-.94-2.162-1.862-3.334-2.73-2.323-1.748-4.794-3.411-7.031-5.171-1.109-.895-2.175-1.773-3.125-2.691-1-.867-1.805-1.821-2.609-2.652s-1.431-1.731-2.042-2.465c-.636-.754-1.01-1.388-1.395-1.917l-1.147-1.663a2.049,2.049,0,0,1,.567-2.885,2.155,2.155,0,0,1,2.95.554C1118.4,495.542,1118.433,495.594,1118.459,495.64Z" transform="translate(-916.372 -305.898)"/><path class="a" d="M1167.84,441.976a28.9,28.9,0,0,0,5.53-17,29.53,29.53,0,0,0-19.754-27.676c-.852-15.529-14-27.866-30.092-27.866a30.561,30.561,0,0,0-13.422,3.083,30.457,30.457,0,0,0-50.887,9.64,30.586,30.586,0,0,0-12.2-2.522c-16.488,0-29.877,12.95-30.128,29.016a29.523,29.523,0,0,0-19.719,27.661,29.086,29.086,0,0,0,.294,4.069,29.175,29.175,0,0,0,5.5,51.479c0,14.839,11.22,27.11,25.813,29.161a29.935,29.935,0,0,0,29.826,25.243,30.8,30.8,0,0,0,7.2-.852,30.27,30.27,0,0,0,58.983,4.038c14.954-1.736,26.556-14.169,26.556-29.257a28.914,28.914,0,0,0-.53-5.478,29.611,29.611,0,0,0,22.554-28.529,28.825,28.825,0,0,0-3.406-13.6,28.888,28.888,0,0,0-2.124-30.605Z" transform="translate(-941.886 -331.784)"/><path class="b" d="M1138.782,468.541c10.469,15.274-7.048,35-19.678,28.434,6.071,14.354,3.834,25.307-4.191,29.756-4.679-3.749-7.706-9.5-5.788-15.843-19,13.838-41.293,1.378-36.463-17.755-15.957,3.05-30.824-14.078-23.589-25.106-17.837-.551-24.734-23.03-4.06-30.2-7.423-14.281,2.669-28.818,17.78-27.477-1.86-28.837,23.89-27.017,34.471-14.372a16.915,16.915,0,0,1-.884-5.055c4.867-5.9,30.279-11.689,29.189,15.623,17.837,3.86,23.42,20.971,9.228,31.392C1146.6,441.008,1150.831,456.318,1138.782,468.541Z" transform="translate(-932.491 -327.201)"/><g class="c" transform="translate(75.331 61.293)"><path class="d" d="M1052.907,412.613a7.784,7.784,0,1,1-7.781-7.611A7.7,7.7,0,0,1,1052.907,412.613Z" transform="translate(-1006.836 -384.765)"/><path class="d" d="M1080.78,407.406A7.784,7.784,0,1,1,1073,399.8,7.7,7.7,0,0,1,1080.78,407.406Z" transform="translate(-1001.368 -385.786)"/><path class="d" d="M1060.688,446.671a5.13,5.13,0,1,1-5.128-5.014A5.072,5.072,0,0,1,1060.688,446.671Z" transform="translate(-1004.269 -377.575)"/><path class="d" d="M1017.852,448.283a3.007,3.007,0,1,1-3.007-2.939A2.974,2.974,0,0,1,1017.852,448.283Z" transform="translate(-1011.839 -376.851)"/><path class="d" d="M1082.1,506.191a3.007,3.007,0,1,1-3-2.941A2.972,2.972,0,0,1,1082.1,506.191Z" transform="translate(-999.236 -365.492)"/><path class="d" d="M1117.583,468.019a3.008,3.008,0,1,1-3.006-2.94A2.974,2.974,0,0,1,1117.583,468.019Z" transform="translate(-992.275 -372.98)"/><path class="d" d="M1120.244,416.4a3.007,3.007,0,1,1-3.007-2.938A2.974,2.974,0,0,1,1120.244,416.4Z" transform="translate(-991.753 -383.106)"/><path class="d" d="M1073.151,391.025a3.007,3.007,0,1,1-3.007-2.941A2.973,2.973,0,0,1,1073.151,391.025Z" transform="translate(-1000.991 -388.084)"/><path class="d" d="M1065.011,476.691a4.334,4.334,0,1,1-4.334-4.238A4.285,4.285,0,0,1,1065.011,476.691Z" transform="translate(-1003.108 -371.533)"/><path class="d" d="M1031.911,437.048a3.272,3.272,0,1,1-3.271-3.2A3.237,3.237,0,0,1,1031.911,437.048Z" transform="translate(-1009.185 -379.106)"/><path class="d" d="M1034.221,468.792a5.13,5.13,0,1,1-5.129-5.014A5.075,5.075,0,0,1,1034.221,468.792Z" transform="translate(-1009.461 -373.235)"/><path class="d" d="M1104.141,418.178a3.273,3.273,0,1,1-3.271-3.2A3.235,3.235,0,0,1,1104.141,418.178Z" transform="translate(-995.016 -382.808)"/><path class="d" d="M1081.813,466.11a3.272,3.272,0,1,1-3.272-3.2A3.238,3.238,0,0,1,1081.813,466.11Z" transform="translate(-999.396 -373.405)"/><path class="d" d="M1095.143,443.963a2.212,2.212,0,1,1-2.211-2.163A2.187,2.187,0,0,1,1095.143,443.963Z" transform="translate(-996.365 -377.547)"/></g><g transform="translate(106.296 81.615)"><path class="e" d="M1063.587,427.035a32.51,32.51,0,0,1-2.895,13.852c-2.369,4.952-5.981,8.122-10.036,8.122-3.768,0-7.165-2.739-9.533-7.129a31.747,31.747,0,0,1-3.4-14.844c0-12.129,5.79-21.962,12.931-21.962S1063.587,414.905,1063.587,427.035Z" transform="translate(-1037.726 -405.073)"/><ellipse class="f" cx="7.163" cy="12.165" rx="7.163" ry="12.165" transform="translate(2.824 5.496)"/><path class="b" d="M1060.135,435.389c-2.368,4.952-5.981,8.122-10.036,8.122-3.768,0-7.165-2.739-9.533-7.129C1040.566,436.382,1051.355,429.707,1060.135,435.389Z" transform="translate(-1037.169 -399.575)"/></g><g transform="translate(162.339 81.615)"><path class="e" d="M1110.439,427.035a32.508,32.508,0,0,1-2.895,13.852c-2.368,4.952-5.981,8.122-10.036,8.122-3.768,0-7.165-2.739-9.533-7.129a31.749,31.749,0,0,1-3.4-14.844c0-12.129,5.789-21.962,12.93-21.962S1110.439,414.905,1110.439,427.035Z" transform="translate(-1084.578 -405.073)"/><ellipse class="f" cx="7.163" cy="12.165" rx="7.163" ry="12.165" transform="translate(2.825 5.496)"/><path class="b" d="M1106.987,435.389c-2.369,4.952-5.981,8.122-10.036,8.122-3.768,0-7.165-2.739-9.533-7.129C1087.418,436.382,1098.207,429.707,1106.987,435.389Z" transform="translate(-1084.021 -399.575)"/></g></g><g transform="translate(951.499 330.399)"><path class="g" d="M1240.037,626.547a7.152,7.152,0,0,1-5.075-2.1L953.169,342.65a7.177,7.177,0,1,1,10.151-10.15l281.792,281.794a7.178,7.178,0,0,1-5.074,12.252Z" transform="translate(-951.067 -330.399)"/><path class="g" d="M958.244,626.547a7.178,7.178,0,0,1-5.075-12.252L1234.962,332.5a7.177,7.177,0,1,1,10.15,10.15L963.319,624.444A7.154,7.154,0,0,1,958.244,626.547Z" transform="translate(-951.067 -330.399)"/></g></g></svg>