<svg xmlns="http://www.w3.org/2000/svg" width="537.378" height="405.292" viewBox="0 0 537.378 405.292">
    <defs>
        <style>
            .a{fill:#a6c0e0;}.b{fill:#6a676b;}.c{fill:#d0d1d6;}.d{fill:#333;}.e{fill:#fff;}.f{fill:#ffc84f;}.g{fill:#5288c5;}.h{fill:#79afde;}.i{fill:#0a67b0;}.j{fill:#34408a;}
        </style>
    </defs>
    <g transform="translate(-810.644 -339.259)">
        <path class="a"
              d="M1348.022,476.537V744.551h-284.81c-52.542-40.933-102.38-85.5-152.923-128.883-26.938-23.122-51.316-47.607-73.55-75.307-7.611-9.494-25.228-26.2-26.078-39.349-.483-7.543,9.185-20.254,16.342-23.093,16.622-6.606,35.118,5.4,49.413,12.17,15.125,7.167,75.076,42.99,78.215,8.6,2.3-25.257-14.159-44.98-29.227-62.973-15.125-18.071-33.727-35.283-44.738-56.348-8.355-15.975-10.4-40.344,13.242-40.1,74.622.734,139.672,49.268,202.674,82.918,24.32,13,47.172,23.934,73.24,32.7,8.809,2.956,34.587,17.463,36.934,1.845,2.27-15.1-9.06-31.274-17.559-42.662-9.349-12.537-27.2-22.813-32.482-37.494-5.071-14.092,15.888-12.257,23.683-10.2,16.68,4.4,32.636,19.974,46.815,29.825C1267.093,423.9,1305.814,452.9,1348.022,476.537Z"/>
        <g transform="translate(899.711 428.422)">
            <rect class="b" width="28.825" height="33.475" transform="translate(141.774 185.97)"/>
            <rect class="c" width="305.109" height="187.233" rx="7.702"/>
            <g transform="translate(86.824 215.471)">
                <path class="d"
                      d="M992.754,666.159V660.42c0-3.183,29.438-5.755,65.73-5.755s65.726,2.572,65.726,5.755v5.739Z"
                      transform="translate(-992.754 -654.664)"/>
            </g>
            <g transform="translate(127.955 174.491)">
                <rect class="d" width="54.797" height="6.812"/>
            </g>
            <rect class="d" width="304.991" height="167.373" rx="7.702"/>
            <g transform="translate(8.202 6.743)">
                <path class="e"
                      d="M1199.939,443.064V587.935a4.713,4.713,0,0,1-4.895,4.509h-278.8a4.712,4.712,0,0,1-4.891-4.509V443.064a4.712,4.712,0,0,1,4.891-4.508h278.8A4.713,4.713,0,0,1,1199.939,443.064Z"
                      transform="translate(-911.352 -438.556)"/>
            </g>
        </g>
        <g transform="translate(822.722 345.194)">
            <g transform="translate(202.856 118.779)">
                <path class="f"
                      d="M1033.177,542.664v21.077a3.338,3.338,0,0,0,3.334,3.336h82.8a3.339,3.339,0,0,0,3.335-3.336V542.664a3.34,3.34,0,0,0-3.335-3.337h-8.152a3.339,3.339,0,0,0-3.333,3.337v9.572H1048v-9.572a3.34,3.34,0,0,0-3.334-3.337h-8.152A3.339,3.339,0,0,0,1033.177,542.664Zm4.031.694h6.758v10.894a2.016,2.016,0,0,0,2.016,2.015h63.857a2.014,2.014,0,0,0,2.015-2.015V543.358h6.76v19.689h-81.406Z"
                      transform="translate(-1033.177 -470.806)"/>
                <path class="f"
                      d="M1066.131,482.448H1091.7a3.561,3.561,0,0,0,3.556-3.557v-6.951a3.561,3.561,0,0,0-3.556-3.556h-25.568a3.561,3.561,0,0,0-3.556,3.556v6.951A3.561,3.561,0,0,0,1066.131,482.448Zm.474-10.034h24.619v6h-24.619Z"
                      transform="translate(-1034.181 -468.383)"/>
                <path class="f"
                      d="M1061.718,502.206h-13.065a5.107,5.107,0,0,0-4.761,2.634,3.489,3.489,0,0,0,.573,3.8L1059.27,526h0l14.807,17.353a5.438,5.438,0,0,0,4.186,1.743h0a5.443,5.443,0,0,0,4.19-1.743l29.611-34.709a3.491,3.491,0,0,0,.573-3.8,5.108,5.108,0,0,0-4.762-2.634H1094.37V489.889a3.341,3.341,0,0,0-3.334-3.339h-25.984a3.34,3.34,0,0,0-3.333,3.339Zm2.016,4.03a2.015,2.015,0,0,0,2.015-2.015V490.581h24.591v13.641a2.014,2.014,0,0,0,2.015,2.015h15.524a2.225,2.225,0,0,1,.822.145l-29.31,34.354a1.682,1.682,0,0,1-1.124.33h0a1.679,1.679,0,0,1-1.12-.328l-14.808-17.354h0l-14.5-17a2.193,2.193,0,0,1,.821-.146Z"
                      transform="translate(-1033.532 -469.003)"/>
            </g>
            <path class="g"
                  d="M1008.742,395.395c-.646,1.2.3,2.064.7,3a88.313,88.313,0,0,1,7.411,35.873,1.882,1.882,0,0,0-.607-.227q-22.6.067-45.208.154c-1.511,0-3.054.184-4.427-.7-1.486-22.308-15.957-36.593-38.329-37.839l.034-50c15.345-.383,29.516,3.767,42.946,10.959,3.137,1.68,5.8,4.181,9.253,5.283a129.08,129.08,0,0,1,17.63,17.188C1002.29,384.148,1005.262,389.927,1008.742,395.395Z"
                  transform="translate(-826.74 -345.412)"/>
            <path class="h"
                  d="M925.185,345.655q-.017,25-.034,50c-.432.035-.862.094-1.3.1a37.889,37.889,0,0,0-37.206,38.422l-50.21.043a87.725,87.725,0,0,1,7.571-36.011c.387-.88,1.039-1.69.782-2.757.726-1.322,1.447-2.647,2.181-3.965A86.431,86.431,0,0,1,872.645,362.4c7.6-4.792,15.3-9.353,23.909-12.181A84.527,84.527,0,0,1,925.185,345.655Z"
                  transform="translate(-823.603 -345.412)"/>
            <path class="i"
                  d="M966.616,436.6c1.372.884,2.916.705,4.427.7q22.6-.078,45.208-.154a1.882,1.882,0,0,1,.607.227q-.117,3.247-.235,6.493c-.038.277-.076.554-.114.831-1.964,33.647-27.148,65.737-59.808,76.226-9.246,2.97-18.636,4.974-28.427,4.441q.022-25.02.044-50.039c1.289-.155,2.578-.317,3.868-.464a38.2,38.2,0,0,0,33.056-28.423C966.122,443.187,965.722,439.817,966.616,436.6Z"
                  transform="translate(-826.739 -348.519)"/>
            <path class="j"
                  d="M925.181,475.352q-.022,25.019-.044,50.039a80.637,80.637,0,0,1-45.505-12.409c-27.86-17.388-42.44-42.622-43.192-75.624l50.212-.043c.4,4.526.842,9.058,2.621,13.3C895.948,466.519,908.117,474.5,925.181,475.352Z"
                  transform="translate(-823.603 -348.543)"/>
            <path class="i"
                  d="M872.191,362.395a86.431,86.431,0,0,0-25.669,29.091c-.734,1.317-1.455,2.643-2.181,3.965l-1.141-.185-.764-.137c-13.669-3.9-21.284-15.816-18.831-29.471,2.245-12.493,14.318-21.334,27.479-20.122A24.854,24.854,0,0,1,872.191,362.395Z"
                  transform="translate(-823.149 -345.405)"/>
            <path class="i"
                  d="M1010.589,395.387c-3.48-5.468-6.453-11.246-10.592-16.309a129.08,129.08,0,0,0-17.63-17.188c6.521-15.639,22.505-19.353,33.756-14.484,10.528,4.556,16.512,15.069,15.117,26.9C1030.023,384.651,1021.325,393.529,1010.589,395.387Z"
                  transform="translate(-828.586 -345.404)"/>
            <path class="h" d="M843.118,396.886l.764.137C843.572,397.288,843.326,397.194,843.118,396.886Z"
                  transform="translate(-823.831 -347.162)"/>
            <path class="g" d="M1019.628,444.957c.038-.276.076-.553.114-.831Q1019.684,444.542,1019.628,444.957Z"
                  transform="translate(-829.859 -348.776)"/>
        </g>
    </g>
</svg>
