<svg xmlns="http://www.w3.org/2000/svg" width="465" height="357.123" viewBox="0 0 465 357.123"><defs><style>.a{fill:#89a527;}.b{fill:#b3d336;}.c{fill:#33662d;}.d{fill:#798e20;}.e{fill:#f2f2f2;}.f{fill:#666;}.g{fill:none;}.h{fill:#4d4d4d;}.i{fill:#fff;}.j{fill:#f15a24;}</style></defs><g transform="translate(-847.997 -284.734)"><g transform="translate(1108.112 284.734)"><g transform="translate(11.509 148.662)"><path class="a" d="M1108.727,433.226c.625.125,1.25.241,1.884.368,4.976.945,10.036,1.753,14.934,2.985.3.081.6.159.876.255a14.64,14.64,0,0,1,5.992,3.7,10.076,10.076,0,0,0,3.992,2.248c3.214.966,6.155.376,8.119,3.93,1,1.8,1.366,4.167,1.938,6.118a128.512,128.512,0,0,0,4.875,13.589,130.186,130.186,0,0,0,14.336,25.543c5.022,6.946,11.235,13.1,20.038,14.232a8.828,8.828,0,0,0,2.347.778,1.853,1.853,0,0,0,1.966-2.523c-2.142-4.006-4.384-7.972-6.426-12.029-.895-1.765-1.53-3.594-2.255-5.381a30.357,30.357,0,0,0-1.365-2.986c-1.1-3.534-1.69-7.34-4.015-10.32-1.545-1.977-3.6-3.217-4.867-5.471a42.351,42.351,0,0,1-2.839-7.577c-.011-.048-.032-.1-.045-.146-1.913-5.762-2.917-11.562-4.3-17.435-.916-3.927-2.3-7.753-5.235-10.642a11.762,11.762,0,0,0-9.674-3.6c-2.592.3-5,1.444-7.655,1.162-2.585-.282-4.957-1.678-7.368-2.53-4.023-1.435-6.762-1.076-10.617.51-4.773,1.969-9.664.617-14.609,1.566A1.853,1.853,0,0,0,1108.727,433.226Z" transform="translate(-1107.193 -426.594)"/><path class="b" d="M1108.727,433.226c.625.125,1.25.241,1.884.368,4.976.945,10.036,1.753,14.934,2.985.3.081.6.159.876.255a23.8,23.8,0,0,1,4.6-.328c3.939.183,6.474,4.246,9.976,5.736,1.836.771,4.082.428,5.826,1.195a7.823,7.823,0,0,1,3.673,4.038c1.725,3.473,2.246,7.427,3.968,10.919a44.432,44.432,0,0,0,7.094,9.872,203.746,203.746,0,0,0,19.077,18.274,4.375,4.375,0,0,0,.711.5,30.357,30.357,0,0,0-1.365-2.986c-1.1-3.534-1.69-7.34-4.015-10.32-1.545-1.977-3.6-3.217-4.867-5.471a42.351,42.351,0,0,1-2.839-7.577c-.011-.048-.032-.1-.045-.146-1.913-5.762-2.917-11.562-4.3-17.435-.916-3.927-2.3-7.753-5.235-10.642a11.762,11.762,0,0,0-9.674-3.6c-2.592.3-5,1.444-7.655,1.162-2.585-.282-4.957-1.678-7.368-2.53-4.023-1.435-6.762-1.076-10.617.51-4.773,1.969-9.664.617-14.609,1.566A1.853,1.853,0,0,0,1108.727,433.226Z" transform="translate(-1107.193 -426.594)"/><path class="b" d="M1108.727,433.226c.625.125,1.25.241,1.884.368,5.783-.225,11.479-1.413,17.332-1.469,4.483-.047,6.956,1.354,10.671,3.517a32.243,32.243,0,0,0,9.19,3.131c3.921.9,6.862,1.7,8.958,5.37,1.828,3.209,3.161,6.553,5.318,9.593a44.267,44.267,0,0,0,6.176,6.95c-.011-.048-.032-.1-.045-.146-1.913-5.762-2.917-11.562-4.3-17.435-.916-3.927-2.3-7.753-5.235-10.642a11.762,11.762,0,0,0-9.674-3.6c-2.592.3-5,1.444-7.655,1.162-2.585-.282-4.957-1.678-7.368-2.53-4.023-1.435-6.762-1.076-10.617.51-4.773,1.969-9.664.617-14.609,1.566A1.853,1.853,0,0,0,1108.727,433.226Z" transform="translate(-1107.193 -426.594)"/></g><g transform="translate(1.077 229.153)"><path class="a" d="M1097.947,534.565a2.234,2.234,0,0,0,.271.318,1.932,1.932,0,0,0,2.8-.034c2.634-3.034,6.171-5.735,10.341-6.069,3.219-.261,5.839,1.486,8.839,2.254,6.019,1.53,12.972-.383,19.115-.315a42.283,42.283,0,0,0,8.932-.507c3.256-.648,6.324-1.945,9.616-2.448,5.059-.765,10.116-.591,15.026-1.88a55.292,55.292,0,0,0,6.749-.2,1.553,1.553,0,0,0,1.549-1.68,1.743,1.743,0,0,0-1.378-2.494c-1.7-.231-3.406-.472-5.113-.7a1.972,1.972,0,0,0-.816.043c-3.135-1.588-6.021-3.7-9.379-4.824a35.6,35.6,0,0,0-4.5-1.13c-3.143-.612-6.294-1.039-9.339-2.343a29.373,29.373,0,0,1-5.682-3.39c-1.909-1.377-3.749-2.846-5.8-4.132-3.388-2.107-6.278-1.874-10.038-.953-7.461,1.821-16.084,3.833-22.5,8.252a14.591,14.591,0,0,0-2.972,2.661l-.01.007a12.132,12.132,0,0,0-2.521,4.866c-1.1,4.293.3,9.172-3.014,12.706A1.551,1.551,0,0,0,1097.947,534.565Z" transform="translate(-1097.218 -503.402)"/><path class="b" d="M1097.962,534.6a1.952,1.952,0,0,0,.277.281,57.463,57.463,0,0,1,6.124-11.066c4.574-6.362,9.943-8.526,17.332-5.686,6.091,2.34,11.816,6.09,18.462,6.674,7.163.621,12.926-3.023,18.348-7.274a4.323,4.323,0,0,0,1.508-2.635c-3.143-.612-6.294-1.039-9.339-2.343a29.373,29.373,0,0,1-5.682-3.39c-1.909-1.377-3.749-2.846-5.8-4.132-3.388-2.107-6.278-1.874-10.038-.953-7.461,1.821-16.084,3.833-22.5,8.252-1.134.78-1.862,1.98-2.972,2.661l-.01.007C1101.323,516.471,1095.14,531.187,1097.962,534.6Z" transform="translate(-1097.239 -503.402)"/><path class="b" d="M1097.962,534.6l.005-.037c2.044-4.914,3.9-10.086,6.364-14.681,2.817-5.251,8.3-7.688,14.088-7.029,5.705.657,11.556,2.861,17.325,1.814a16.455,16.455,0,0,0,9.247-5.507c-1.909-1.377-3.749-2.846-5.8-4.132-3.388-2.107-6.278-1.874-10.038-.953-7.461,1.821-16.084,3.833-22.5,8.252a14.591,14.591,0,0,0-2.972,2.661l-.01.007C1101.323,516.471,1095.14,531.187,1097.962,534.6Z" transform="translate(-1097.239 -503.402)"/></g><g transform="translate(67.882 255.399)"><path class="c" d="M1163.622,559.091c1.276-.341,2.558-.653,3.847-.946a40.6,40.6,0,0,1,7.323-1.441c.379-.048.786-.093,1.25-.149a123.607,123.607,0,0,1,14.087-1.157q1.569-.042,3.115-.117c1.012-.052,2.017-.116,3.015-.2a39.675,39.675,0,0,0,14.247-3.609c5.915-2.86,11.146-6.886,16.675-10.386a51.084,51.084,0,0,1,22.671-8.031,1.6,1.6,0,0,0,1.395-.984,1.894,1.894,0,0,0-1.791-2.673,1.706,1.706,0,0,0-.574-.286h-.008a1.757,1.757,0,0,0-.652-.064,197.843,197.843,0,0,1-27.585-.071c-6.052-.445-11.745-.988-17.5.144a30.387,30.387,0,0,0-4.457,1.241c-14.119,5.144-26.913,15.139-37.207,25.886C1160.042,557.748,1162.073,559.515,1163.622,559.091Z" transform="translate(-1160.986 -528.448)"/><path class="d" d="M1174.16,556.7c.379-.048.786-.093,1.25-.149A123.607,123.607,0,0,1,1189.5,555.4q1.569-.042,3.115-.117c1.012-.052,2.017-.116,3.015-.2a39.675,39.675,0,0,0,14.247-3.609c5.915-2.86,11.146-6.886,16.675-10.386a51.084,51.084,0,0,1,22.671-8.031,1.6,1.6,0,0,0,1.395-.984,1.894,1.894,0,0,0-1.791-2.673,1.706,1.706,0,0,0-.574-.286h-.008a1.757,1.757,0,0,0-.652-.064,197.843,197.843,0,0,1-27.585-.071c-6.052-.445-11.745-.988-17.5.144a36.779,36.779,0,0,0-2.5,3.817c-1.521,2.669-2.735,5.6-4.829,7.9-2.249,2.484-5.342,4.354-8.023,6.331Q1180.655,551.93,1174.16,556.7Z" transform="translate(-1160.355 -528.448)"/><path class="a" d="M1194.645,555.052a39.675,39.675,0,0,0,14.247-3.609c5.915-2.86,11.146-6.886,16.675-10.386a51.084,51.084,0,0,1,22.671-8.031,1.6,1.6,0,0,0,1.395-.984,1.894,1.894,0,0,0-1.791-2.673,1.706,1.706,0,0,0-.574-.286h-.008c-5.2.5-10.453.469-15.534,1.716-5.678,1.384-10.245,4.462-14.47,8.417C1210.158,545.842,1203.171,551.491,1194.645,555.052Z" transform="translate(-1159.372 -528.417)"/></g><g transform="translate(68.311 230.583)"><path class="a" d="M1162.942,560.033a1.922,1.922,0,0,0,1.433-.254c3.438-2.074,7.445-1.508,11.292-1.728.319-.02.638-.04.949-.07.33-.028.662-.074.995-.121.246-.03.5-.068.751-.116.123-.011.247-.04.372-.06.248-.048.5-.088.746-.146a1.3,1.3,0,0,0,.182-.04c.287-.052.566-.115.846-.188.655-.158,1.3-.328,1.945-.526.242-.068.484-.136.719-.214.4-.12.789-.251,1.18-.383.565-.181,1.134-.38,1.7-.588,1.539-.555,3.1-1.127,4.655-1.725.688-.266,1.369-.533,2.051-.818,1.641-.68,3.271-1.408,4.839-2.23l.875-.462c.283-.155.575-.319.859-.484.425-.246.863-.51,1.283-.778.235-.144.47-.3.7-.451.173-.106.339-.222.5-.337.33-.223.642-.459.964-.693.093-.07.178-.143.271-.213.375-.282.734-.576,1.092-.879a27.894,27.894,0,0,0,7.989-11.286,34.462,34.462,0,0,0,1.308-3.92c1.147-4.24,1.839-8.61,4.295-12.349,2.347-3.577,5.715-6.34,8.966-9.054a1.811,1.811,0,0,0,.6-.911c.331-.3.663-.6.994-.9a1.938,1.938,0,0,0-.125-3.005,1.669,1.669,0,0,0-2.083.06c-6.6,4.857-14.158,8.051-21.5,11.6-.678.314-1.358.647-2.029.98a75.054,75.054,0,0,0-12.81,7.739c-.147.12-.3.237-.451.355-10.437,8.326-15.364,21.534-25.68,29.869-.474.389-.963.758-1.462,1.124a1.7,1.7,0,0,0-.673.873A1.878,1.878,0,0,0,1162.942,560.033Z" transform="translate(-1161.396 -504.767)"/><path class="b" d="M1162.871,560.033a1.922,1.922,0,0,0,1.433-.254c3.438-2.074,7.445-1.508,11.292-1.728.319-.02.638-.04.949-.07.33-.028.662-.074.995-.121.246-.03.5-.068.751-.116.123-.011.247-.04.372-.06.248-.048.5-.088.746-.146a1.3,1.3,0,0,0,.182-.04c.287-.052.566-.115.846-.188.655-.158,1.3-.328,1.945-.526.242-.068.484-.136.719-.214.4-.12.789-.251,1.18-.383.565-.181,1.134-.38,1.7-.588,1.539-.555,3.1-1.127,4.655-1.725.688-.266,1.369-.533,2.051-.818,1.641-.68,3.271-1.408,4.839-2.23l.875-.462c.283-.155.575-.319.859-.484.425-.246.863-.51,1.283-.778.235-.144.47-.3.7-.451.173-.106.339-.222.5-.337.33-.223.642-.459.964-.693.093-.07.178-.143.271-.213.375-.282.734-.576,1.092-.879a27.894,27.894,0,0,0,7.989-11.286,34.462,34.462,0,0,0,1.308-3.92c1.147-4.24,1.839-8.61,4.295-12.349,2.347-3.577,5.715-6.34,8.966-9.054a1.811,1.811,0,0,0,.6-.911c.331-.3.663-.6.994-.9a1.938,1.938,0,0,0-.125-3.005,1.669,1.669,0,0,0-2.083.06c-6.6,4.857-14.158,8.051-21.5,11.6q-.52.709-1.011,1.421c-4.845,7.087-6.52,15.654-11.527,22.644a47.918,47.918,0,0,1-19.214,15.844c-.129.057-.267.111-.406.167C1170.191,557.7,1166.065,558.576,1162.871,560.033Z" transform="translate(-1161.326 -504.767)"/><path class="b" d="M1162.942,560.017a1.922,1.922,0,0,0,1.433-.254c3.438-2.074,7.445-1.508,11.292-1.728.319-.02.638-.04.949-.07.33-.028.662-.074.995-.121.246-.03.5-.068.751-.116.123-.011.247-.04.372-.06.248-.048.5-.088.746-.146a1.3,1.3,0,0,0,.182-.04c.287-.052.566-.115.846-.188.655-.158,1.3-.328,1.945-.526.242-.068.484-.136.719-.214.4-.12.789-.251,1.18-.383.565-.181,1.134-.38,1.7-.588,1.539-.555,3.1-1.127,4.655-1.725.688-.266,1.369-.533,2.051-.818,1.641-.68,3.271-1.408,4.839-2.23l.875-.462c.283-.155.575-.319.859-.484.425-.246.863-.51,1.283-.778.235-.144.47-.3.7-.451.173-.106.339-.222.5-.337.33-.223.642-.459.964-.693.093-.07.178-.143.271-.213.375-.282.734-.576,1.092-.879a27.894,27.894,0,0,0,7.989-11.286,34.462,34.462,0,0,0,1.308-3.92c1.147-4.24,1.839-8.61,4.295-12.349,2.347-3.577,5.715-6.34,8.966-9.054a1.811,1.811,0,0,0,.6-.911c.331-.3.663-.6.994-.9a1.938,1.938,0,0,0-.125-3.005c-12.224,7.608-20.939,18.179-27.954,31.074-4.212,7.744-8.8,14.5-17.274,17.924a45.958,45.958,0,0,1-10.513,2.74,95.34,95.34,0,0,1-10.946.865A1.878,1.878,0,0,0,1162.942,560.017Z" transform="translate(-1161.396 -504.752)"/></g><g transform="translate(11.504 69.103)"><path class="b" d="M1109.365,355.114c10.272-.716,18.727,6.284,25.823,12.86a136.75,136.75,0,0,1,17.72,19.562c5.272,7.239,8.67,15.615,13.99,22.805a43.02,43.02,0,0,0,18.7,14.2l.017.006a.317.317,0,0,0,.423-.107c.352-.518.051-2.412-.54-4.742l-.023-.1c-.965-3.771-2.634-8.651-3.415-10.736-.35-.93-.7-1.867-1.043-2.8-5.283-14.333-10.207-28.964-20.289-40.642a50.229,50.229,0,0,0-5.937-5.944,27.75,27.75,0,0,0-4.411-3.037c-4.214-2.3-8.84-2.725-13.532-3.287-.318-.041-.63-.08-.953-.112q-7.875-.968-15.757-1.9c-3.437-.416-6.678-.778-9.975-.048l-.008,0c-.465.111-.936.239-1.405.388l-.008,0c-.149.052-.3.085-.455.134a1.027,1.027,0,0,0-.225.1C1106.259,352.587,1107.517,355.237,1109.365,355.114Z" transform="translate(-1107.188 -350.676)"/><path class="d" d="M1134.586,352.933a24.86,24.86,0,0,0,5.521,12.837c5.151,6.15,12.78,8.586,16.8,15.9,3.806,6.925,6.871,14.063,11.2,20.714,4.859,7.449,10.431,14.388,15.993,21.3a5.046,5.046,0,0,0,.631.651c.352-.518.051-2.412-.54-4.742l-.023-.1c-.965-3.771-2.634-8.651-3.415-10.736-.35-.93-.7-1.867-1.043-2.8-5.283-14.333-10.207-28.964-20.289-40.642a50.229,50.229,0,0,0-5.937-5.944,27.75,27.75,0,0,0-4.411-3.037c-4.214-2.3-8.84-2.725-13.532-3.287C1135.22,353,1134.909,352.965,1134.586,352.933Z" transform="translate(-1105.874 -350.567)"/><path class="a" d="M1152.617,359.075a33.106,33.106,0,0,0,1.04,6.426c1.7,6.27,4.879,12.212,8.158,17.787a119.721,119.721,0,0,0,17.028,22.373c-5.283-14.333-10.207-28.964-20.289-40.642A50.229,50.229,0,0,0,1152.617,359.075Z" transform="translate(-1105.01 -350.273)"/></g><g transform="translate(96.203 142.932)"><path class="b" d="M1189.552,501.164c11.615,1.054,23.573.807,33.9-5.263a50.468,50.468,0,0,0,12.683-10.857c3.1-3.6,5.456-8.052,9-11.238a16.753,16.753,0,0,1,2.7-2.019c4.946-2.93,10.125-4.21,14.405-8.286a51.038,51.038,0,0,0,8.672-11.712c5.7-9.833,10.936-22.8,23.21-25.685a1.9,1.9,0,0,0,1.39-1.274,2.057,2.057,0,0,0,1.023-2.628,1.486,1.486,0,0,0-1.376-.865c-8.16-.344-16.815-.673-24.512,2.55a24.983,24.983,0,0,0-2.772,1.368c-.6.326-1.176.681-1.75,1.056a1.7,1.7,0,0,0-.84.42c-.246.226-.5.46-.758.684a88.883,88.883,0,0,0-8.091,6.945,48.592,48.592,0,0,1-15.343,8.667c-4.432,1.394-9.134,1.214-13.574,2.531-3.712,1.114-6.61,3.385-9.337,6.08-3.241,3.182-6.711,6.6-8.66,10.774-1.961,4.2-1.74,8.829-2.529,13.3a29.521,29.521,0,0,1-14.545,20.273,30.406,30.406,0,0,1-3.343,1.659C1187.5,498.323,1187.677,501,1189.552,501.164Z" transform="translate(-1188.012 -421.127)"/><path class="d" d="M1189.552,501.164c11.615,1.054,23.573.807,33.9-5.263a50.468,50.468,0,0,0,12.683-10.857c3.1-3.6,5.456-8.052,9-11.238a16.753,16.753,0,0,1,2.7-2.019c4.946-2.93,10.125-4.21,14.405-8.286a51.038,51.038,0,0,0,8.672-11.712c5.7-9.833,10.936-22.8,23.21-25.685a1.9,1.9,0,0,0,1.39-1.274,2.057,2.057,0,0,0,1.023-2.628,1.486,1.486,0,0,0-1.376-.865c-8.16-.344-16.815-.673-24.512,2.55a24.983,24.983,0,0,0-2.772,1.368c-2.924,3.105-4.947,6.831-7.973,10.126-4.149,4.532-9.046,8.234-12.924,13.028a42.747,42.747,0,0,0-8.177,15.914c-1.981,7.305-4.007,13.617-8.814,19.64-9.115,11.426-24.01,12.114-37.538,12.018a30.406,30.406,0,0,1-3.343,1.659C1187.5,498.323,1187.677,501,1189.552,501.164Z" transform="translate(-1188.012 -421.127)"/><path class="a" d="M1242.521,473.757a16.753,16.753,0,0,1,2.7-2.019c4.946-2.93,10.125-4.21,14.405-8.286a51.038,51.038,0,0,0,8.672-11.712c5.7-9.833,10.936-22.8,23.21-25.685a1.9,1.9,0,0,0,1.39-1.274,2.057,2.057,0,0,0,1.023-2.628c-7.1.1-14.442.444-21,3.437-6.4,2.93-11.013,8.058-14.615,13.99a149.59,149.59,0,0,0-10.683,22.056C1245.991,465.732,1244.451,469.842,1242.521,473.757Z" transform="translate(-1185.398 -421.077)"/></g><g transform="translate(105.799 105.518)"><path class="a" d="M1199.3,471.4c8.13-.294,14.9-4.9,21.281-9.521,1.087-.778,2.133-1.589,3.151-2.412a57.249,57.249,0,0,0,11.96-12.988c.544-.816,1.062-1.646,1.565-2.506,4.565-7.806,7.321-16.519,9.082-25.354.934-4.7,1.38-9.446,2.186-14.163.971-5.689,4.043-9.648,8.17-13.5a1.886,1.886,0,0,0,.572-.953c.263-.279.551-.545.808-.844a1.612,1.612,0,0,0,.318-.532,1.8,1.8,0,0,0,.669-1.311.017.017,0,0,0,0-.027,1.824,1.824,0,0,0-.346-1.045.462.462,0,0,0-.054-.073,1.893,1.893,0,0,0-2.554-.435c-.612.379-1.191.79-1.789,1.2-.07.037-.149.063-.229.108a43.035,43.035,0,0,0-3.966,2.78,39.833,39.833,0,0,0-9.374,8.048,52.559,52.559,0,0,0-5.852,5.986,131.319,131.319,0,0,0-7.93,10.868c-2.2,3.3-4.309,6.66-6.414,9.964a177.684,177.684,0,0,0-11.882,21.264c-3.507,7.629-5.148,16.22-11.057,22.468C1196.41,469.7,1197.868,471.445,1199.3,471.4Z" transform="translate(-1197.168 -385.424)"/><path class="b" d="M1222.354,455.844a3.746,3.746,0,0,0,.187,3.619,57.249,57.249,0,0,0,11.96-12.988c.544-.816,1.062-1.646,1.565-2.506,4.565-7.806,7.321-16.519,9.082-25.354.934-4.7,1.38-9.446,2.186-14.163.971-5.689,4.043-9.648,8.17-13.5a1.886,1.886,0,0,0,.572-.953c.263-.279.551-.545.808-.844a1.612,1.612,0,0,0,.318-.532,1.8,1.8,0,0,0,.669-1.311.017.017,0,0,0,0-.027,3.635,3.635,0,0,0-.346-1.045.462.462,0,0,0-.054-.073,1.893,1.893,0,0,0-2.554-.435c-.612.379-1.191.79-1.789,1.2-.07.037-.149.063-.229.108a43.035,43.035,0,0,0-3.966,2.78,39.833,39.833,0,0,0-9.374,8.048,52.559,52.559,0,0,0-5.852,5.986,131.319,131.319,0,0,0-7.93,10.868c-1.857,6.364-1.236,12.38-.4,18.882A41.26,41.26,0,0,1,1222.354,455.844Z" transform="translate(-1195.979 -385.424)"/><path class="b" d="M1231.48,430.48c.138,5.017,2.733,10.763,2.566,15.96.544-.816,1.062-1.646,1.565-2.506,4.565-7.806,7.321-16.519,9.082-25.354.934-4.7,1.38-9.446,2.186-14.163.971-5.689,4.043-9.648,8.17-13.5a1.886,1.886,0,0,0,.572-.953c.263-.279.551-.545.808-.844a1.612,1.612,0,0,0,.318-.532,1.8,1.8,0,0,0,.669-1.311.017.017,0,0,0,0-.027,1.824,1.824,0,0,0-.346-1.045.462.462,0,0,0-.054-.073c-8.4,7.265-16.363,15.159-21.218,25.287A41.929,41.929,0,0,0,1231.48,430.48Z" transform="translate(-1195.524 -385.39)"/></g><path class="a" d="M1150.659,573.467a55.128,55.128,0,0,0,8.76-8.359c2.608-3.349,3.51-6.911,4.7-10.893,2.238-7.486,6.986-14.226,10.462-21.195a273.594,273.594,0,0,0,17.819-45.5c2.488-8.534,5.009-17.407,5.4-26.339.291-6.693-.6-13.111.647-19.654-1.123-4.357-6.386-8.826-9.448-11.067-3.285-2.405-6.543-4.593-9.026-7.878a1.844,1.844,0,0,1,2.946-2.216c3.428,4.538,8.765,6.806,12.684,10.828a35.7,35.7,0,0,1,4.24,5.091c2.257-7.16,5.362-14,7.015-21.384a98.745,98.745,0,0,0,2.167-26.978c-.159-2.947,4.411-3.554,4.571-.591a109.487,109.487,0,0,1-.3,16.239c3.861-3.472,7.722-7.094,8.819-12.279.488-2.309,4.141-1.81,3.65.516-1.643,7.767-7.859,12.091-13.167,17.362-.238,1.564-.5,3.124-.819,4.678-1.695,8.285-4.968,15.875-7.571,23.875-2.823,8.679-1.275,17.047-1.964,25.908-.679,8.74-3.171,17.341-5.618,25.724a274.113,274.113,0,0,1-19.371,48.562c-2.085,4.052-4.449,7.968-6.476,12.046-1.674,3.366-2.456,6.841-3.623,10.383-2.363,7.177-8.074,12.144-13.729,16.8C1151.137,579.039,1148.374,575.352,1150.659,573.467Z" transform="translate(-1093.641 -279.908)"/><g transform="translate(120.512)"><path class="b" d="M1211.257,309.92c-.01.007,0,.008,0,.008a34.475,34.475,0,0,0,.123,5.258c.841,8.337,5.159,15.657,7.7,23.5a32.722,32.722,0,0,1,1.486,10.893,101.61,101.61,0,0,1-1.623,13.862c-.12.783-.24,1.567-.352,2.36-.068.484-.136.967-.2,1.452a149.491,149.491,0,0,0-1.231,25.393c.208,5.715,2.618,8.745,7.686,4.752a34.074,34.074,0,0,0,4.49-4.243l.234-.274a33.878,33.878,0,0,0,2.587-3.358,39.279,39.279,0,0,0,4.367-8.384,46.783,46.783,0,0,0,2.235-23.668,68.357,68.357,0,0,0-7.066-21.2c-3.97-7.672-9.129-14.832-10.357-23.6-1.194-8.488.289-17.074-1.846-25.472-.026-.079-.053-.148-.081-.225.013-.083.032-.163.043-.237.465-2.373-3.073-2.76-3.65-.515-.341,1.357-.626,2.712-.873,4.073C1213.43,296.778,1211.552,303.289,1211.257,309.92Z" transform="translate(-1211.208 -284.734)"/><path class="b" d="M1211.255,309.92c-.01.007,0,.008,0,.008.465,7.111,3.245,13.126,7.165,19.18,4.385,6.78,10.825,11.785,14.97,18.681,1.846,3.072,3.762,6.311,5.371,9.684a68.357,68.357,0,0,0-7.066-21.2c-3.97-7.672-9.129-14.832-10.357-23.6-1.194-8.488.289-17.074-1.846-25.472-.026-.079-.053-.148-.081-.225.013-.083.032-.163.043-.237.465-2.373-3.073-2.76-3.65-.515-.341,1.357-.626,2.712-.873,4.073C1213.428,296.778,1211.55,303.289,1211.255,309.92Z" transform="translate(-1211.207 -284.734)"/><path class="a" d="M1218.237,364.163a.607.607,0,0,0-.111.124,149.491,149.491,0,0,0-1.231,25.393c.208,5.715,2.618,8.745,7.686,4.752a34.074,34.074,0,0,0,4.49-4.243c.039-.209.078-.417.107-.627.04.117.079.235.127.353a33.878,33.878,0,0,0,2.587-3.358,72.884,72.884,0,0,1-2.747-8.3c-1.125-4.487-1.088-9.163-1.972-13.709a56.243,56.243,0,0,0-6.876-17.938,101.61,101.61,0,0,1-1.623,13.862c-.056.857-.13,1.712-.224,2.574Z" transform="translate(-1210.94 -281.767)"/></g><g transform="translate(57.449 19.93)"><path class="a" d="M1151.1,306.115a1.783,1.783,0,0,0,1,1.146c8.389,4.126,16.391,9.146,23.061,15.757a35.334,35.334,0,0,1,8.1,11.494c1.651,3.993,2.9,8.087,4.774,11.992,2.2,4.553,4.485,8.963,6.518,13.485a83.406,83.406,0,0,1,4.052,10.642c.88,2.926,1.715,5.845,2.678,8.708a52.7,52.7,0,0,0,5.978,12.832,1.853,1.853,0,0,0,.3.358,2.62,2.62,0,0,0,.183.352,11.5,11.5,0,0,0,1.916,2.253,1.954,1.954,0,0,0,3.375-.11c10.06-19.566,8.084-41.883-2.248-60.915-2.177-4.029-4.528-8.27-7.9-11.418a17.381,17.381,0,0,0-3.978-2.739,72.756,72.756,0,0,0-9.652-3.615q-17.855-6.236-35.7-12.46A1.868,1.868,0,0,0,1151.1,306.115Z" transform="translate(-1151.031 -303.752)"/><path class="b" d="M1151.1,306.115a1.783,1.783,0,0,0,1,1.146c8.389,4.126,16.391,9.146,23.061,15.757a35.334,35.334,0,0,1,8.1,11.494c1.651,3.993,2.9,8.087,4.774,11.992,2.2,4.553,4.485,8.963,6.518,13.485a83.406,83.406,0,0,1,4.052,10.642c.88,2.926,1.715,5.845,2.678,8.708a43.813,43.813,0,0,1,5.6-18.9c2.926-5.1,6.019-9.471,4.58-15.622-1.37-5.852-5.695-11.014-8.436-16.251q-2.221-4.236-4.116-8.613a72.756,72.756,0,0,0-9.652-3.615q-17.855-6.236-35.7-12.46A1.868,1.868,0,0,0,1151.1,306.115Z" transform="translate(-1151.031 -303.752)"/><path class="b" d="M1151.093,306.007a1.783,1.783,0,0,0,1,1.146c8.389,4.126,16.391,9.146,23.061,15.757a35.334,35.334,0,0,1,8.1,11.494c1.651,3.993,2.9,8.087,4.774,11.992,2.2,4.553,4.485,8.963,6.518,13.485,3.376-4.074,6.086-8.633,6.86-14.044,1.057-7.351-2.226-13.893-7.422-18.88-5.974-5.74-14.016-9.621-21.443-13.052A150.877,150.877,0,0,0,1151.093,306.007Z" transform="translate(-1151.028 -303.644)"/></g><g transform="translate(0 92.575)"><path class="a" d="M1096.222,386.24a1.955,1.955,0,0,0,2.533,1.707c17.809-5.963,35.753-.888,49.515,11.387,3.554,3.173,6.966,7.284,10.555,11.328,5.067,5.7,10.461,11.269,17.04,13.779a20.577,20.577,0,0,0,9.09,1.34,1.681,1.681,0,0,0,1.079-.462c1.524-.306,2.519-1.357,2.635-4.021a22.583,22.583,0,0,0-1.34-7.97c-.78-2.39-1.779-4.738-2.645-6.972-4-10.264-9.264-20.668-18.4-27.3-8.984-6.509-19.024-6.587-29.468-5.392a.3.3,0,0,0-.085.007c-.927.1-1.855.222-2.785.342-12.517,1.639-24.618,6.667-36.592,10.523A1.544,1.544,0,0,0,1096.222,386.24Z" transform="translate(-1096.21 -373.074)"/><path class="b" d="M1096.222,386.213a1.955,1.955,0,0,0,2.533,1.707c17.809-5.963,35.753-.888,49.515,11.387,3.554,3.173,6.966,7.284,10.555,11.328,5.067,5.7,10.461,11.269,17.04,13.779-4.132-3.822-8.4-7.626-8.909-13.561-.6-6.907.927-13.616-2.846-19.91-3.6-6-10.049-9.507-16.128-12.525a113.551,113.551,0,0,0-11.164-4.779.3.3,0,0,0-.085.007c-.927.1-1.855.222-2.785.342-12.517,1.639-24.618,6.667-36.592,10.523A1.544,1.544,0,0,0,1096.222,386.213Z" transform="translate(-1096.21 -373.047)"/><path class="b" d="M1096.221,385.925a1.955,1.955,0,0,0,2.533,1.707c17.809-5.963,35.753-.888,49.515,11.387,3.554,3.173,6.966,7.284,10.555,11.328-.311-2.809-.332-5.622-.8-8.415-1.211-7.17-5.99-13.206-12.12-16.92-7.382-4.477-16.239-5.551-24.721-5.325C1112.6,379.907,1104.321,383.206,1096.221,385.925Z" transform="translate(-1096.21 -372.758)"/></g></g><g transform="translate(1027.604 313.263)"><path class="e" d="M1176.919,335.458l1.229,280.695a21.227,21.227,0,0,1-21.066,21.25l-110.323.483a21.227,21.227,0,0,1-21.251-21.066l-1.228-280.694a21.22,21.22,0,0,1,21.066-21.251l110.323-.483A21.22,21.22,0,0,1,1176.919,335.458Z" transform="translate(-1019.151 -311.841)"/><g transform="translate(0 38.867)"><rect class="f" width="15.467" height="31.731" rx="2.562" transform="translate(0 0.714) rotate(-0.251)"/><rect class="f" width="15.467" height="31.731" rx="2.562" transform="translate(0.164 38.086) rotate(-0.251)"/><rect class="f" width="15.467" height="31.731" rx="2.562" transform="translate(147.564 0.068) rotate(-0.251)"/></g><rect class="g" width="152.634" height="323.016" rx="20.191" transform="translate(5.299 3.124) rotate(-0.251)"/><path class="h" d="M1160.617,640.039l-117.136.512a20.3,20.3,0,0,1-20.37-20.193l-1.259-287.516a20.306,20.306,0,0,1,20.193-20.372l117.136-.512a20.3,20.3,0,0,1,20.37,20.194l1.258,287.516A20.306,20.306,0,0,1,1160.617,640.039Zm-118.55-322.5a15.231,15.231,0,0,0-15.147,15.282l1.259,287.516a15.231,15.231,0,0,0,15.28,15.147l117.136-.512a15.231,15.231,0,0,0,15.147-15.28l-1.259-287.517a15.231,15.231,0,0,0-15.28-15.148Z" transform="translate(-1019.268 -311.958)"/><path class="h" d="M1121.315,328.678l-43.167.189a7,7,0,0,1-7.028-6.967h0a5.411,5.411,0,0,1,5.389-5.436l46.337-.2a5.412,5.412,0,0,1,5.436,5.389h0A7,7,0,0,1,1121.315,328.678Z" transform="translate(-1016.906 -311.751)"/><path class="h" d="M1071.121,321.979l-.031-7.109,57.162-.25.03,6.823Z" transform="translate(-1016.907 -311.83)"/><path class="f" d="M1118.29,323.819l-.493,0a1.785,1.785,0,0,1-1.792-1.777h0a1.785,1.785,0,0,1,1.776-1.792l.493,0a1.785,1.785,0,0,1,1.792,1.776h0A1.784,1.784,0,0,1,1118.29,323.819Z" transform="translate(-1014.753 -311.56)"/><path class="f" d="M1108.417,323.868l-28.542.125a1.784,1.784,0,0,1-1.793-1.776h0a1.785,1.785,0,0,1,1.777-1.792l28.542-.125a1.784,1.784,0,0,1,1.792,1.776h0A1.783,1.783,0,0,1,1108.417,323.868Z" transform="translate(-1016.572 -311.558)"/><g transform="translate(15.955 11.977)"><path class="h" d="M1036.55,328.681l-.641,0-.018-4.081a3.288,3.288,0,0,1-.6.444,4.214,4.214,0,0,1-.672.333l0-.619a3.857,3.857,0,0,0,.937-.615,2.441,2.441,0,0,0,.566-.7l.413,0Z" transform="translate(-1034.611 -323.384)"/><path class="h" d="M1041.393,328.043l0,.616-3.448.016a1.139,1.139,0,0,1,.072-.445,2.36,2.36,0,0,1,.419-.7,6.61,6.61,0,0,1,.834-.793,7.02,7.02,0,0,0,1.144-1.11,1.321,1.321,0,0,0,.3-.771.851.851,0,0,0-.276-.641.983.983,0,0,0-.71-.258,1,1,0,0,0-.739.281,1.049,1.049,0,0,0-.278.77l-.658-.065a1.62,1.62,0,0,1,.5-1.124,1.733,1.733,0,0,1,1.184-.392,1.65,1.65,0,0,1,1.189.411,1.37,1.37,0,0,1,.443,1.029,1.591,1.591,0,0,1-.126.617,2.4,2.4,0,0,1-.422.639,10.633,10.633,0,0,1-.984.922q-.574.486-.737.658a2.112,2.112,0,0,0-.269.349Z" transform="translate(-1034.451 -323.385)"/><path class="h" d="M1042.22,325.54l0-.729.729,0,0,.729Zm.014,3.048,0-.728.728,0,0,.729Z" transform="translate(-1034.246 -323.319)"/><path class="h" d="M1043.814,326.076a4.77,4.77,0,0,1,.183-1.489,1.857,1.857,0,0,1,.563-.873,1.446,1.446,0,0,1,.943-.311,1.556,1.556,0,0,1,.738.167,1.416,1.416,0,0,1,.525.485,2.618,2.618,0,0,1,.327.774,5.139,5.139,0,0,1,.123,1.232,4.746,4.746,0,0,1-.182,1.482,1.842,1.842,0,0,1-.561.875,1.45,1.45,0,0,1-.946.311,1.434,1.434,0,0,1-1.187-.534A3.442,3.442,0,0,1,1043.814,326.076Zm.658,0a3.281,3.281,0,0,0,.308,1.708.859.859,0,0,0,1.484-.008,5.007,5.007,0,0,0-.015-3.418.9.9,0,0,0-.751-.421.823.823,0,0,0-.7.377A3.317,3.317,0,0,0,1044.472,326.073Z" transform="translate(-1034.17 -323.386)"/><path class="h" d="M1047.681,326.059a4.771,4.771,0,0,1,.183-1.489,1.857,1.857,0,0,1,.563-.873,1.442,1.442,0,0,1,.943-.31,1.54,1.54,0,0,1,.737.166,1.409,1.409,0,0,1,.525.485,2.616,2.616,0,0,1,.328.774,5.213,5.213,0,0,1,.121,1.232,4.787,4.787,0,0,1-.181,1.482,1.856,1.856,0,0,1-.561.875,1.45,1.45,0,0,1-.946.311,1.433,1.433,0,0,1-1.187-.534A3.442,3.442,0,0,1,1047.681,326.059Zm.658,0a3.27,3.27,0,0,0,.308,1.708.858.858,0,0,0,1.483-.008,5.007,5.007,0,0,0-.015-3.418.891.891,0,0,0-.75-.42.818.818,0,0,0-.7.376A3.3,3.3,0,0,0,1048.339,326.056Z" transform="translate(-1033.984 -323.387)"/></g><g transform="translate(128.714 11.372)"><rect class="h" width="2.272" height="5.41" transform="translate(0 0.038) rotate(-0.251)"/><rect class="h" width="2.272" height="5.41" transform="translate(3.181 0.024) rotate(-0.251)"/><rect class="h" width="2.272" height="5.41" transform="translate(6.361 0.01) rotate(-0.251)"/><rect class="h" width="1.073" height="2.554" transform="translate(9.606 1.424) rotate(-0.251)"/></g></g><rect class="f" width="276.658" height="166.279" rx="13.666" transform="translate(847.997 374.724)"/><rect class="i" width="276.658" height="166.279" rx="13.666" transform="translate(853.033 365.354)"/><g transform="translate(873.642 395.748)"><path class="a" d="M872.469,391.01h6.026a7.37,7.37,0,0,1,5.016,1.5,6.561,6.561,0,0,1,0,8.808,7.391,7.391,0,0,1-5.016,1.493h-3.357v7.929h-2.669Zm2.669,2.193v7.414h3.357a4.025,4.025,0,0,0,2.882-.965,4.206,4.206,0,0,0,0-5.484,4.025,4.025,0,0,0-2.882-.965Z" transform="translate(-872.469 -390.653)"/><path class="a" d="M891.591,391.01h3.026l7.519,19.73h-2.775l-1.8-5.062H888.67l-1.8,5.062h-2.815Zm1.506,2.629-3.621,9.819h7.255Z" transform="translate(-871.913 -390.653)"/><path class="a" d="M915.925,391.674v2.6a16.51,16.51,0,0,0-2.867-1.084,10.17,10.17,0,0,0-2.6-.357,5.72,5.72,0,0,0-3.363.847,2.782,2.782,0,0,0-1.183,2.405,2.445,2.445,0,0,0,.787,1.975,6.8,6.8,0,0,0,2.98,1.077l1.612.33a8.24,8.24,0,0,1,4.407,2,5.217,5.217,0,0,1,1.421,3.84,5.148,5.148,0,0,1-1.923,4.347,9.117,9.117,0,0,1-5.636,1.481,15.153,15.153,0,0,1-2.98-.318,22.238,22.238,0,0,1-3.271-.938v-2.749a15.569,15.569,0,0,0,3.186,1.374,10.707,10.707,0,0,0,3.065.463,5.947,5.947,0,0,0,3.528-.9,2.973,2.973,0,0,0,1.242-2.563,2.933,2.933,0,0,0-.892-2.273,6.129,6.129,0,0,0-2.927-1.229l-1.625-.318a8.7,8.7,0,0,1-4.322-1.863,4.634,4.634,0,0,1-1.334-3.528,5.037,5.037,0,0,1,1.843-4.123,7.807,7.807,0,0,1,5.08-1.507,16.428,16.428,0,0,1,2.828.251A20.372,20.372,0,0,1,915.925,391.674Z" transform="translate(-870.994 -390.669)"/><path class="a" d="M932.319,391.674v2.6a16.487,16.487,0,0,0-2.868-1.084,10.156,10.156,0,0,0-2.6-.357,5.72,5.72,0,0,0-3.363.847,2.779,2.779,0,0,0-1.183,2.405,2.448,2.448,0,0,0,.786,1.975,6.8,6.8,0,0,0,2.98,1.077l1.612.33a8.245,8.245,0,0,1,4.408,2,5.217,5.217,0,0,1,1.421,3.84,5.148,5.148,0,0,1-1.923,4.347,9.119,9.119,0,0,1-5.637,1.481,15.144,15.144,0,0,1-2.979-.318,22.2,22.2,0,0,1-3.271-.938v-2.749a15.588,15.588,0,0,0,3.185,1.374,10.718,10.718,0,0,0,3.065.463,5.95,5.95,0,0,0,3.529-.9,2.973,2.973,0,0,0,1.242-2.563,2.933,2.933,0,0,0-.892-2.273,6.139,6.139,0,0,0-2.927-1.229l-1.626-.318a8.7,8.7,0,0,1-4.321-1.863,4.635,4.635,0,0,1-1.335-3.528,5.037,5.037,0,0,1,1.843-4.123,7.81,7.81,0,0,1,5.081-1.507,16.429,16.429,0,0,1,2.828.251A20.408,20.408,0,0,1,932.319,391.674Z" transform="translate(-870.208 -390.669)"/><path class="a" d="M935.167,391.01h2.7l4.149,16.677,4.137-16.677h3l4.15,16.677,4.136-16.677h2.709l-4.956,19.73h-3.357l-4.162-17.127-4.2,17.127H940.11Z" transform="translate(-869.463 -390.653)"/><path class="a" d="M970.442,390.669a8.456,8.456,0,0,1,6.634,2.782,12.424,12.424,0,0,1,0,14.906,9.333,9.333,0,0,1-13.288.007,12.406,12.406,0,0,1,0-14.913A8.492,8.492,0,0,1,970.442,390.669Zm0,2.167A5.578,5.578,0,0,0,965.822,395a11.028,11.028,0,0,0,0,11.8,5.991,5.991,0,0,0,9.224,0,11.1,11.1,0,0,0,0-11.8A5.539,5.539,0,0,0,970.442,392.836Z" transform="translate(-868.21 -390.669)"/><path class="a" d="M992.064,401.49a3.929,3.929,0,0,1,1.672,1.242,12.692,12.692,0,0,1,1.632,2.617l2.709,5.392h-2.868l-2.523-5.062a7.06,7.06,0,0,0-1.9-2.629,4.279,4.279,0,0,0-2.5-.648h-2.907v8.339h-2.67V391.01h6.027a7.656,7.656,0,0,1,5.048,1.414,6.159,6.159,0,0,1,.8,7.361A4.473,4.473,0,0,1,992.064,401.49Zm-6.686-8.286v7h3.357a4.206,4.206,0,0,0,2.913-.893,3.359,3.359,0,0,0,.984-2.623,3.318,3.318,0,0,0-.984-2.609,4.251,4.251,0,0,0-2.913-.879Z" transform="translate(-867.183 -390.653)"/><path class="a" d="M1000.653,391.01h5.484q5.736,0,8.418,2.385t2.683,7.459q0,5.1-2.7,7.494t-8.406,2.391h-5.484Zm2.669,2.193v15.343h3.224q4.084,0,5.981-1.851t1.9-5.841q0-3.963-1.9-5.808t-5.981-1.843Z" transform="translate(-866.323 -390.653)"/><g transform="translate(35.978 86.242)"><path class="b" d="M906.8,476.613h1.758l2.2,8.351,2.188-8.351h2.074l2.2,8.351,2.188-8.351h1.758l-2.8,10.7H916.29l-2.3-8.771-2.313,8.771H909.6Z" transform="translate(-906.801 -472.79)"/><path class="b" d="M923.123,473.212h1.93v5.848h7.014v-5.848H934v14.266h-1.93v-6.794h-7.014v6.794h-1.93Z" transform="translate(-906.018 -472.953)"/><path class="b" d="M941.495,472.965a4.138,4.138,0,0,1,3.665,1.9,12.6,12.6,0,0,1,0,11.009,4.489,4.489,0,0,1-7.329,0,12.6,12.6,0,0,1,0-11.009A4.137,4.137,0,0,1,941.495,472.965Zm0,1.529a2.4,2.4,0,0,0-2.24,1.467,13.305,13.305,0,0,0,0,8.81,2.452,2.452,0,0,0,4.49,0,13.305,13.305,0,0,0,0-8.81A2.4,2.4,0,0,0,941.495,474.494Z" transform="translate(-905.374 -472.965)"/><path class="b" d="M949.543,485.853H952.7V474.969l-3.43.688V473.9l3.411-.687h1.93v12.641h3.153v1.624h-8.218Z" transform="translate(-904.765 -472.953)"/><path class="b" d="M962.785,485.865h6.737v1.624h-9.059v-1.624q1.1-1.136,3-3.053t2.384-2.47a9.061,9.061,0,0,0,1.294-1.764,3.093,3.093,0,0,0,.368-1.419,2.379,2.379,0,0,0-.8-1.854,2.991,2.991,0,0,0-2.078-.717,6.435,6.435,0,0,0-1.916.315,11.583,11.583,0,0,0-2.156.956v-1.949a15.328,15.328,0,0,1,2.18-.707,8.119,8.119,0,0,1,1.854-.239,5.316,5.316,0,0,1,3.535,1.109,3.674,3.674,0,0,1,1.318,2.963,4.274,4.274,0,0,1-.329,1.667,8,8,0,0,1-1.2,1.859q-.237.277-1.518,1.6T962.785,485.865Z" transform="translate(-904.228 -472.965)"/><path class="b" d="M973.071,487.194v-1.758a7.606,7.606,0,0,0,1.471.525,6.137,6.137,0,0,0,1.462.182,3.489,3.489,0,0,0,2.92-1.286,6.908,6.908,0,0,0,1.151-3.9,3.751,3.751,0,0,1-1.4,1.262,4.034,4.034,0,0,1-1.883.439,4.481,4.481,0,0,1-3.387-1.294,4.892,4.892,0,0,1-1.247-3.54,4.827,4.827,0,0,1,1.3-3.526,4.62,4.62,0,0,1,3.459-1.329,4.307,4.307,0,0,1,3.78,1.9,9.71,9.71,0,0,1,1.3,5.509,8.4,8.4,0,0,1-1.6,5.384,5.217,5.217,0,0,1-4.3,2.012,7.791,7.791,0,0,1-1.471-.144A10.517,10.517,0,0,1,973.071,487.194Zm3.841-6.049a2.569,2.569,0,0,0,2.059-.889,4.28,4.28,0,0,0,0-4.869,2.819,2.819,0,0,0-4.118,0,4.28,4.28,0,0,0,0,4.869A2.569,2.569,0,0,0,976.912,481.145Z" transform="translate(-903.668 -472.965)"/><path class="b" d="M986.548,485.865h6.736v1.624h-9.058v-1.624q1.1-1.136,3-3.053t2.384-2.47a9.061,9.061,0,0,0,1.294-1.764,3.107,3.107,0,0,0,.368-1.419,2.379,2.379,0,0,0-.8-1.854,2.994,2.994,0,0,0-2.079-.717,6.441,6.441,0,0,0-1.916.315,11.606,11.606,0,0,0-2.155.956v-1.949a15.356,15.356,0,0,1,2.179-.707,8.124,8.124,0,0,1,1.854-.239,5.319,5.319,0,0,1,3.536,1.109,3.673,3.673,0,0,1,1.318,2.963,4.274,4.274,0,0,1-.329,1.667,8.069,8.069,0,0,1-1.2,1.859q-.239.277-1.52,1.6T986.548,485.865Z" transform="translate(-903.089 -472.965)"/><path class="b" d="M1000.9,472.965a4.139,4.139,0,0,1,3.665,1.9,12.6,12.6,0,0,1,0,11.009,4.489,4.489,0,0,1-7.33,0,12.6,12.6,0,0,1,0-11.009A4.14,4.14,0,0,1,1000.9,472.965Zm0,1.529a2.4,2.4,0,0,0-2.242,1.467,13.326,13.326,0,0,0,0,8.81,2.452,2.452,0,0,0,4.492,0,13.305,13.305,0,0,0,0-8.81A2.4,2.4,0,0,0,1000.9,474.494Z" transform="translate(-902.526 -472.965)"/><path class="b" d="M1008.95,485.853h3.153V474.969l-3.43.688V473.9l3.411-.687h1.93v12.641h3.153v1.624h-8.218Z" transform="translate(-901.917 -472.953)"/><path class="b" d="M1025.348,473.212h2.428v9.3h2.035v1.605h-2.035v3.363h-1.921v-3.363h-6.441v-1.863Zm.507,1.681-4.874,7.616h4.874Z" transform="translate(-901.401 -472.953)"/><path class="b" d="M1041.333,481.537v.859h-8.084a4.061,4.061,0,0,0,1.094,2.767,3.75,3.75,0,0,0,2.728.95,7.739,7.739,0,0,0,1.964-.248,8.741,8.741,0,0,0,1.887-.745v1.663a10.523,10.523,0,0,1-1.94.611,9.7,9.7,0,0,1-2.016.211,5.152,5.152,0,0,1-5.552-5.524,5.923,5.923,0,0,1,1.419-4.171,4.945,4.945,0,0,1,3.827-1.544,4.376,4.376,0,0,1,3.416,1.391A5.43,5.43,0,0,1,1041.333,481.537Zm-1.758-.517a3.341,3.341,0,0,0-.808-2.3,2.692,2.692,0,0,0-2.088-.86,3.3,3.3,0,0,0-2.355.831,3.5,3.5,0,0,0-1.019,2.341Z" transform="translate(-900.826 -472.802)"/><path class="b" d="M1045.433,473.713v3.039h3.622v1.366h-3.622v5.81a2.623,2.623,0,0,0,.358,1.682,2.061,2.061,0,0,0,1.457.372h1.807v1.471h-1.807a4.007,4.007,0,0,1-2.81-.759,3.85,3.85,0,0,1-.773-2.767v-5.81h-1.29v-1.366h1.29v-3.039Z" transform="translate(-900.301 -472.929)"/><path class="b" d="M1054.787,487.478l-5.446-14.266h2.016l4.52,12.012,4.529-12.012h2.007l-5.437,14.266Z" transform="translate(-899.967 -472.953)"/></g><g transform="translate(37.307 52.389)"><path class="j" d="M908.346,453.549H911.5V442.665l-3.43.689V441.6l3.411-.688h1.93v12.642h3.153v1.624h-8.218Z" transform="translate(-908.069 -440.649)"/><path class="j" d="M921.588,453.561h6.736v1.624h-9.058v-1.624q1.1-1.137,3-3.053t2.384-2.47a9.066,9.066,0,0,0,1.294-1.764,3.107,3.107,0,0,0,.368-1.419,2.379,2.379,0,0,0-.8-1.854,2.994,2.994,0,0,0-2.079-.717,6.407,6.407,0,0,0-1.916.315,11.6,11.6,0,0,0-2.155.956v-1.949a15.353,15.353,0,0,1,2.179-.707,8.126,8.126,0,0,1,1.854-.239,5.319,5.319,0,0,1,3.536,1.109,3.672,3.672,0,0,1,1.318,2.963,4.275,4.275,0,0,1-.329,1.667,8.089,8.089,0,0,1-1.2,1.858q-.239.278-1.52,1.6T921.588,453.561Z" transform="translate(-907.532 -440.661)"/><path class="j" d="M931.873,454.889v-1.757a7.686,7.686,0,0,0,1.472.525,6.135,6.135,0,0,0,1.462.182,3.487,3.487,0,0,0,2.919-1.286,6.907,6.907,0,0,0,1.152-3.9,3.76,3.76,0,0,1-1.4,1.262,4.034,4.034,0,0,1-1.883.439,4.479,4.479,0,0,1-3.387-1.294,4.888,4.888,0,0,1-1.247-3.541,4.822,4.822,0,0,1,1.3-3.525,4.621,4.621,0,0,1,3.459-1.329,4.3,4.3,0,0,1,3.779,1.9,9.7,9.7,0,0,1,1.3,5.509,8.4,8.4,0,0,1-1.6,5.384,5.217,5.217,0,0,1-4.3,2.012,7.8,7.8,0,0,1-1.472-.144A10.434,10.434,0,0,1,931.873,454.889Zm3.842-6.049a2.568,2.568,0,0,0,2.059-.888,4.28,4.28,0,0,0,0-4.869,2.819,2.819,0,0,0-4.118,0,4.28,4.28,0,0,0,0,4.869A2.568,2.568,0,0,0,935.715,448.84Z" transform="translate(-906.972 -440.661)"/><path class="j" d="M945.35,453.561h6.737v1.624h-9.058v-1.624q1.1-1.137,3-3.053t2.384-2.47a9.029,9.029,0,0,0,1.3-1.764,3.107,3.107,0,0,0,.368-1.419,2.379,2.379,0,0,0-.8-1.854,2.994,2.994,0,0,0-2.079-.717,6.407,6.407,0,0,0-1.916.315,11.541,11.541,0,0,0-2.155.956v-1.949a15.308,15.308,0,0,1,2.179-.707,8.125,8.125,0,0,1,1.854-.239,5.319,5.319,0,0,1,3.536,1.109,3.675,3.675,0,0,1,1.318,2.963,4.275,4.275,0,0,1-.33,1.667,8.043,8.043,0,0,1-1.2,1.858q-.239.278-1.52,1.6T945.35,453.561Z" transform="translate(-906.393 -440.661)"/><path class="j" d="M959.7,440.661a4.136,4.136,0,0,1,3.665,1.9,12.6,12.6,0,0,1,0,11.009,4.488,4.488,0,0,1-7.329,0,12.6,12.6,0,0,1,0-11.009A4.138,4.138,0,0,1,959.7,440.661Zm0,1.529a2.4,2.4,0,0,0-2.24,1.467,13.305,13.305,0,0,0,0,8.81,2.452,2.452,0,0,0,4.491,0,13.305,13.305,0,0,0,0-8.81A2.4,2.4,0,0,0,959.7,442.19Z" transform="translate(-905.83 -440.661)"/><path class="j" d="M967.753,453.549h3.153V442.665l-3.431.689V441.6l3.412-.688h1.93v12.642h3.153v1.624h-8.218Z" transform="translate(-905.221 -440.649)"/><path class="j" d="M984.151,440.907h2.428v9.3h2.034v1.605h-2.034v3.364h-1.921V451.81h-6.441v-1.863Zm.507,1.682-4.874,7.615h4.874Z" transform="translate(-904.706 -440.649)"/></g><g transform="translate(0.048 49.302)"><circle class="j" cx="11.718" cy="11.718" r="11.718"/><g transform="translate(4.445 4.444)"><rect class="i" width="3.526" height="17.047" transform="translate(0 2.493) rotate(-45)"/></g><g transform="translate(4.444 4.445)"><rect class="i" width="17.047" height="3.526" transform="translate(0 12.053) rotate(-44.996)"/></g></g><g transform="translate(0.048 81.15)"><circle class="b" cx="11.718" cy="11.718" r="11.718"/><g transform="translate(3.188 5.001)"><path class="i" d="M884.444,488.117l-8.887-8.29,2.406-2.579,5.768,5.381,6.138-9.751,2.984,1.879Z" transform="translate(-875.557 -472.879)"/></g></g></g></g></svg>