<svg xmlns="http://www.w3.org/2000/svg" xmlns:xlink="http://www.w3.org/1999/xlink" width="435" height="382.933" viewBox="0 0 435 382.933"><defs><style>.a,.j{fill:none;}.b{clip-path:url(#a);}.c{fill:#b6d7db;opacity:0.49;}.d{fill:#d19442;}.e{fill:#d8a35d;}.f{fill:#ffc84f;}.g{fill:#947dce;}.h{opacity:0.3;}.i{opacity:0.5;}.j{stroke:#947dce;stroke-miterlimit:10;stroke-width:0.69px;}.k{opacity:0.15;}.l{fill:#ccc;}.m{fill:#04005a;}.n{fill:gray;}</style><clipPath id="a"><path class="a" d="M987.682,667.859s-111.251-6.853-145.692-67.889S865.554,505.4,888.212,491.8s49.849-24.47,61.631-109.666,82.476-95.164,112.838-90.633,50.6,31.722,62.234,50.754,37.915,48.565,78.7,80.022,84.288,106.38,50.754,184.928-113.744,64.275-113.744,64.275S1044.327,677.982,987.682,667.859Z" transform="translate(-831.322 -290.604)"/></clipPath></defs><g transform="translate(-831.322 -290.604)"><g class="b" transform="translate(831.322 290.604)"><rect class="c" width="502.347" height="492.469" transform="translate(-27.281 -33.055)"/><g transform="translate(79.851 103.01)"><path class="d" d="M1047.377,428.036c.461,1.14,3.2,13.856,5.567,16.363s10.08,1.971,9.809,2.654-5.789,13.789-15.348,14.791-6.713-6.037-6.713-6.037a18.744,18.744,0,0,0-.967-15.353C1035.506,432.369,1047.377,428.036,1047.377,428.036Z" transform="translate(-894.704 -382.706)"/><g transform="translate(128.783)"><ellipse class="e" cx="21.067" cy="15.651" rx="21.067" ry="15.651" transform="translate(0 51.92) rotate(-81.107)"/><g transform="translate(2.093)"><g transform="translate(1.17 5.581)"><path class="f" d="M1038.658,406.287s24.447,18.9,20.216-5.872C1055.947,383.279,1022.063,392.906,1038.658,406.287Z" transform="translate(-1027.124 -391.21)"/><path class="f" d="M1043.937,401.264s-16.356,6.383-16.3,15.407c0,0,.844-26.778,15.834-25.071S1064,395.643,1058.3,423.2C1058.3,423.2,1057.458,400.424,1043.937,401.264Z" transform="translate(-1027.637 -391.186)"/></g><path class="f" d="M1041.681,392.1s2.043-8.061,10.078-5.6,10.826,7.66,11.268,12.481,1.069,8.483,2.242,8.67c0,0-4.07,2.915-5.061,1.57,0,0,1.731,8.815-3.221,15.04,0,0,.14-10.78-5.547-12.873S1041.681,392.1,1041.681,392.1Z" transform="translate(-1025.352 -386.04)"/><path class="f" d="M1043.645,391.8s-5.321-4.409-12.472,2.766l-4.62,6.391s.992,1.345,3.522.56c0,0-2.359,7.992-1.964,12.778l5.669-13.377Z" transform="translate(-1026.553 -385.689)"/></g></g><path class="g" d="M1139.663,602.1c-1.127,8.091-14.761,13.033-24.85,26.77-4.889,6.661-17.977,11.949-29.61,12.376-28.581,1.1-51.753,3.79-86.186-12.376-39.6-18.592-9.184-87.512-11.477-95.28-3.013-10.259,52.72-39.968,56.329-41.162s58.781-4.623,60.374-4.093S1142.836,579.282,1139.663,602.1Z" transform="translate(-899.489 -377.925)"/><g transform="translate(96.536 247.921)"><path class="f" d="M1007.245,622.106c2,.181,3.081.232,4.512.382,10.141-.243,53.932-1.4,77.61-3.771,8.354-.839,14.2-1.827,15.187-2.987,0,0,0,.035,0,.1,0,1.293-.1,16.1-.289,35.521-.379,38.33,6.065,92.925,11.484,109.346,1.17,3.545-53.441.463-53.441.463-1.907-39.455-1.194-108.9-3.783-111.9-3.151-3.648-5.275,57.5-8.551,108.733-21.284,6.474-55.528,4.586-55.23,2.392C998.27,734.319,1007.245,622.106,1007.245,622.106Z" transform="translate(-994.738 -615.73)"/><g class="h" transform="translate(52.632)"><path d="M1043.99,620.9c-.165-.006-.329-.012-.49-.019C1043.5,620.879,1043.674,620.883,1043.99,620.9Z" transform="translate(-1043.5 -615.321)"/><path class="i" d="M1043.954,621.307c13.086.462,41.506-2.59,41.506-2.59,8.354-.839,14.2-1.827,15.187-2.987,0,0,0,.035,0,.1,0,1.293-.1,16.1-.289,35.521a9.825,9.825,0,0,1-1.377-.1,10.69,10.69,0,0,1-7.116-4.539,23.283,23.283,0,0,1-2.929-5.413C1078.4,623.469,1048.148,621.5,1043.954,621.307Z" transform="translate(-1043.464 -615.73)"/></g><g transform="translate(14.616 2.987)"><line class="j" x1="7.47" y2="143.025" transform="translate(0 0.65)"/><line class="j" x1="7.476" y2="140.54" transform="translate(13.823 2.905)"/><line class="j" x1="5.212" y2="139.462" transform="translate(29.481 2.325)"/><line class="j" x2="1.574" y2="28.773" transform="translate(47.593 1.767)"/><line class="j" x2="3.665" y2="141.899" transform="translate(61.912 1.147)"/><line class="j" x2="5.625" y2="143.006" transform="translate(74.23 0.524)"/><line class="j" x2="9.185" y2="143.674" transform="translate(86.34)"/></g><path class="j" d="M1005.31,634.461s77.91.254,98.291-4.256" transform="translate(-993.899 -614.581)"/><path class="j" d="M1057.757,646.881c-26.934,7.257-53.395-1.225-53.395-1.225" transform="translate(-993.974 -613.355)"/><path class="j" d="M1053.484,645.19s24.853,5.742,46.16-.939" transform="translate(-990.075 -613.466)"/><path class="j" d="M1003.555,655.38s20.055,9.277,51.667,2.736" transform="translate(-994.038 -612.583)"/><path class="j" d="M1002.58,666.961s30.915,7.868,51.742,2.228" transform="translate(-994.116 -611.664)"/><path class="j" d="M1001.6,678.467s16.072,11.343,51.855,4.393" transform="translate(-994.194 -610.75)"/><path class="j" d="M1000.449,691.7a76.6,76.6,0,0,0,52.425,1.621" transform="translate(-994.285 -609.7)"/><path class="j" d="M999.371,703.828s17.3,11.024,52.8,2.649" transform="translate(-994.37 -608.737)"/><path class="j" d="M998.234,716.262s23.691,10.94,53.439-.016" transform="translate(-994.461 -607.752)"/><path class="j" d="M997.313,725.965s14.24,12.372,53.787,1.03" transform="translate(-994.534 -606.98)"/><path class="j" d="M996.209,736.982s22.6,10.526,54.309.644" transform="translate(-994.621 -606.106)"/><path class="j" d="M1055.053,657.12s10.629,7.911,45.094.2" transform="translate(-989.951 -612.445)"/><path class="j" d="M1055.821,668.8s14.687,6,43.969-.509" transform="translate(-989.89 -611.558)"/><path class="j" d="M1055.746,681.859s22.517,5.641,44.609-1.932" transform="translate(-989.896 -610.635)"/><path class="j" d="M1055.927,692.6s22.025,8.539,45.358-1.964" transform="translate(-989.882 -609.785)"/><path class="j" d="M1056.114,704.385s20.884,6.23,46.319-2.005" transform="translate(-989.867 -608.852)"/><path class="j" d="M1056.31,715.709s17.677,6.923,47.461-2.055" transform="translate(-989.851 -607.958)"/><path class="j" d="M1056.755,725.634s21.049,9.573,48.558-.989" transform="translate(-989.816 -607.085)"/><path class="j" d="M1056.852,738.2a96.5,96.5,0,0,0,50.557-1.613" transform="translate(-989.808 -606.137)"/></g><path class="k" d="M1044.412,559.979c2.163-1.888,8.278,5.044,16.458,3.371,7.6-1.557,11.772-9.482,12.293-10.509,4.639-9.131-.679-15.383,1.189-25.182,1.159-6.075,5.2-14.156,18.241-22.406l8.923,71.976h0l-48.579,4.163C1043.441,565.591,1043.065,561.156,1044.412,559.979Z" transform="translate(-894.305 -376.577)"/><path class="e" d="M1103.745,554.362l-8.459,22.96s-28.763-7.851-47.493-17.217-30.148-24.776-36.19-24.776-23.111,4-24.472,6.269,3.172,4.078,5.665,4.3,7.7-.907,7.7-.907-2.493,4.759-4.532,9.064,2.266,7.478,3.626,7.93c0,0,3.851,4.986,7.023,4.986,0,0,5.891,6.35,11.1,4.988s-.452-5.214-.452-5.214a14.16,14.16,0,0,0,7.25.679,21.841,21.841,0,0,0,6.8-2.266s9.555,3.878,15.288,10.611c12.517,14.7,28.353,39.855,38.714,45.657,15.1,8.459,22.054,13.292,31.722,8.76s26.737-35.374,30.815-52.567C1147.853,577.624,1120.059,576.415,1103.745,554.362Z" transform="translate(-898.826 -374.19)"/><path class="g" d="M1164.05,583.4c-5.94,18.6-23.618,48.817-41.873,57.684a28.432,28.432,0,0,1-7.039,2.368c-21.921,4.32-59.285-29.491-74.556-64.657,4.756-7.227,1.857-9.284,6.612-16.511,11.112,7.711,25.484,13.073,39.144,11.775a9.009,9.009,0,0,0,4.708-1.45,8.126,8.126,0,0,0,2.567-4.3c2.056-6.916.455-14.162-.937-21.03a155.174,155.174,0,0,1-2.729-20.7c-.085-1.317-1.307-10.384-.19-11.084-17.213,10.838-68.189-2.283-85.4,8.554-6.584,4.14,20.6,32.248,14.02,36.388-10.505,55.391-6.83,41.8-14.02,55.514-25.37,5.04-44.487-16.076-46.249-34.891-3.344-35.734-10.487-65.565,12.685-96.761,24.763-33.336,67.574-43.824,74.555-37.013a17.407,17.407,0,0,0,6,4.567,10.9,10.9,0,0,0,2.463.72,13.885,13.885,0,0,0,7.4-1.061c6.225-2.483,9.275-7.522,10.582-8.99,3.533-4,14.22-4.32,26.9-.872,13.187,3.581,28.533,11.245,40.243,23.087C1177.4,503.624,1169.308,566.915,1164.05,583.4Z" transform="translate(-901.405 -381.814)"/><g transform="translate(102.948 155.671)"><path d="M1001.43,544.907a.743.743,0,0,1-.249-.042.751.751,0,0,1-.459-.958,79.375,79.375,0,0,1,6.189-13.289.75.75,0,1,1,1.273.794,79.44,79.44,0,0,0-6.046,12.993A.749.749,0,0,1,1001.43,544.907Z" transform="translate(-1000.679 -530.264)"/></g><g transform="translate(109.972 162.243)"><path d="M1007.937,549.408a.764.764,0,0,1-.182-.022.752.752,0,0,1-.546-.911c.076-.3,1.88-7.432,4.867-11.8a.752.752,0,1,1,1.241.848c-2.838,4.147-4.633,11.244-4.651,11.314A.751.751,0,0,1,1007.937,549.408Z" transform="translate(-1007.186 -536.352)"/></g><path class="d" d="M993.333,591.059s-7.429.232-13.466-2.554a24.127,24.127,0,0,1-9.176-7.424l14.957-3.713,19.169,3.019S1004.13,589.086,993.333,591.059Z" transform="translate(-900.111 -370.854)"/><path class="l" d="M1036.719,592.147,929.47,575.362,905.3,480.378l103.642,12.678Z" transform="translate(-905.301 -378.552)"/><path class="m" d="M1001.322,492.123l3.116.906,25.944,90.945,27.8-4.5,5.209,5.658-34.3,6.079Z" transform="translate(-897.68 -377.62)"/><path class="l" d="M1056.249,573.426l-27.8,4.5-2.723-9.544Z" transform="translate(-895.743 -371.567)"/><path class="e" d="M961.251,573.105s11.028,11.957,17.529,13.7,19.156-8.127,21.129-10.8,0-3.134-1.625-2.9-5.456,3.25-5.456,3.25,7.43-11.609,5.456-13.466-11.564,11.378-11.564,11.378.884-16.717-1.089-16.834S978.9,572.22,978.9,572.22s-6.152-15.832-8.939-15.832,1.51,15.9,1.51,15.9-10.8-4.76-12.887-4.3S961.251,573.105,961.251,573.105Z" transform="translate(-901.114 -372.519)"/><path class="n" d="M970.069,527.971c2.424,7.2.03,14.5-5.347,16.309s-11.7-2.553-14.127-9.748-.03-14.5,5.347-16.309S967.644,520.776,970.069,527.971Z" transform="translate(-901.781 -375.581)"/><path class="k" d="M1091.564,441.649c-3.913,3.6-17.422,8.413-23.342,8.413-7.532,0-10.174,8.062-16.788,7.929-5.135-.1-6.754-4.282-7.219-6.138a10.9,10.9,0,0,0,2.463.72,13.885,13.885,0,0,0,7.4-1.061c6.225-2.483,9.275-7.522,10.582-8.99C1068.192,438.523,1078.879,438.2,1091.564,441.649Z" transform="translate(-894.276 -381.814)"/></g></g></g></svg>