<svg xmlns="http://www.w3.org/2000/svg" width="588" height="418.594" viewBox="0 0 588 418.594"><defs><style>.a{fill:#eadff1;}.b{fill:#6a676b;}.c{fill:#d0d1d6;}.d{fill:#333;}.e{fill:#fff;}.f{fill:#62548a;}.g,.o{fill:#947dce;}.h{fill:#89a527;}.i{fill:#b3d336;}.j{fill:#33662d;}.k{fill:#798e20;}.l{fill:#666;}.m,.s,.t,.w{fill:none;}.n{fill:#4d4d4d;}.o{opacity:0.6;}.p{fill:#ffc84f;}.q{opacity:0.3;}.r{opacity:0.15;}.s,.t,.w{stroke:#947dce;stroke-miterlimit:10;}.s{stroke-width:0.559px;}.t{stroke-width:0.545px;}.u{fill:#999;}.v{fill:#ccc;}.w{stroke-width:0.429px;}.x{fill:#d19442;}.y{fill:#d8a35d;}</style></defs><g transform="translate(-364.049 -143.501)"><path class="a" d="M480.285,328.04c37.371-55.611,78.026-109.356,125.871-156.26,17.657-17.31,42-34.859,65.02-25.825,19.7,7.734,27.731,31.845,27.1,53s-7.362,41.93-6.517,63.08,12.76,44.523,33.64,48c19.848,3.306,37.241-12.11,52.963-24.669A256.81,256.81,0,0,1,886.876,234.61c11.449-2.333,25.158-3.181,32.963,5.516,8.536,9.511,4.865,24.356.707,36.441L890.871,362.8c-4.149,12.057-6.42,28.981,5.162,34.317,8.446,3.891,18.33-1.95,27.531-.6,11.543,1.689,18.652,14.705,17.814,26.34s-7.477,21.965-14.261,31.456c-22.609,31.634-49.58,60.805-82.751,81.091s-73.07,31.15-111.456,24.953c-17.884-2.887-37.439-11.744-42.258-29.207-2.446-8.865-.579-18.5-3.127-27.34-4.926-17.083-25.148-25.693-42.856-24.117s-33.714,10.638-49.763,18.283a344.858,344.858,0,0,1-195.8,29.834c-12.683-1.815-27-5.592-32.695-17.066-5.86-11.8.258-25.8,6.617-37.335A713.248,713.248,0,0,1,501.777,305.176"/><g transform="translate(461.468 243.022)"><rect class="b" width="36.883" height="42.832" transform="translate(181.407 237.958)"/><rect class="c" width="390.402" height="239.573" rx="10.369"/><g transform="translate(111.095 275.704)"><path class="d" d="M591.207,566.984v-7.343c0-4.074,37.667-7.365,84.1-7.365s84.1,3.292,84.1,7.365v7.343Z" transform="translate(-591.207 -552.275)"/></g><g transform="translate(163.725 223.269)"><rect class="d" width="70.115" height="8.716"/></g><rect class="d" width="390.251" height="214.162" rx="10.369"/><rect class="e" width="195.834" height="371.922" rx="0.386" transform="translate(381.086 9.164) rotate(90)"/></g><g transform="translate(610.472 294.951)"><path class="f" d="M727.563,358.955h-10.5v-36.1c0-.079-.005-.153-.007-.23-.132-9.778-8.593-13.488-13.085-14.082a5.456,5.456,0,0,0-.724-.048H667.323c-5.669,0-10.116,1.584-13.215,4.71a13.357,13.357,0,0,0-3.918,9.1v36.656H639.137a6.632,6.632,0,0,0-6.632,6.632v59.482a6.632,6.632,0,0,0,6.632,6.632h88.426a6.632,6.632,0,0,0,6.632-6.632V365.587A6.632,6.632,0,0,0,727.563,358.955Zm-21.554,0H661.244V322.414c.176-1.824,2.388-2.869,6.079-2.869H702.8c.861.174,3.208.871,3.208,3.306v36.1Z" transform="translate(-632.505 -308.492)"/><path class="g" d="M661.244,358.955V322.414c.176-1.824,2.388-2.869,6.079-2.869H702.8c.861.174,3.208.871,3.208,3.306v18.141l11.046-18.371c-.132-9.778-8.593-13.488-13.085-14.082a5.456,5.456,0,0,0-.724-.048H667.323c-5.669,0-10.116,1.584-13.215,4.71a13.357,13.357,0,0,0-3.918,9.1v36.656H639.137a6.632,6.632,0,0,0-6.632,6.632v59.482a6.632,6.632,0,0,0,6.632,6.632h12.327l43.744-72.746Z" transform="translate(-632.505 -308.492)"/><path class="d" d="M697.664,390.366A12.711,12.711,0,1,0,679.841,402v17.239a5.112,5.112,0,0,0,10.225,0V402A12.711,12.711,0,0,0,697.664,390.366Z" transform="translate(-635.766 -314.168)"/></g><g transform="translate(423.657 239.967)"><g transform="translate(108.777 146.516)"><path class="h" d="M627.785,414.745c-.615.124-1.232.239-1.856.363-4.9.931-9.892,1.728-14.72,2.941-.3.079-.592.157-.863.251a14.432,14.432,0,0,0-5.906,3.65,9.926,9.926,0,0,1-3.933,2.216c-3.168.952-6.066.371-8,3.873-.988,1.773-1.346,4.107-1.908,6.031a127.116,127.116,0,0,1-4.8,13.392,128.405,128.405,0,0,1-14.13,25.175c-4.949,6.844-11.073,12.91-19.748,14.025a8.676,8.676,0,0,1-2.313.767,1.827,1.827,0,0,1-1.939-2.488c2.112-3.948,4.321-7.856,6.334-11.855.882-1.739,1.508-3.543,2.222-5.3a30.067,30.067,0,0,1,1.346-2.942c1.086-3.484,1.666-7.234,3.957-10.172,1.522-1.948,3.551-3.171,4.8-5.392a41.842,41.842,0,0,0,2.8-7.467c.011-.048.032-.1.043-.143,1.885-5.678,2.876-11.4,4.242-17.184.9-3.87,2.269-7.64,5.16-10.488a11.589,11.589,0,0,1,9.534-3.548c2.554.29,4.925,1.423,7.545,1.145,2.547-.277,4.885-1.653,7.261-2.494,3.965-1.413,6.666-1.06,10.464.5,4.7,1.941,9.524.609,14.4,1.543A1.826,1.826,0,0,1,627.785,414.745Z" transform="translate(-547.489 -408.208)"/><path class="i" d="M628.565,414.745c-.615.124-1.232.239-1.856.363-4.9.931-9.892,1.728-14.72,2.941-.3.079-.592.157-.863.251a23.442,23.442,0,0,0-4.532-.323c-3.881.181-6.38,4.185-9.832,5.654-1.809.76-4.022.421-5.741,1.178a7.714,7.714,0,0,0-3.621,3.979c-1.7,3.423-2.213,7.32-3.909,10.761a43.722,43.722,0,0,1-6.992,9.729,200.789,200.789,0,0,1-18.8,18.011,4.4,4.4,0,0,1-.7.494,30.081,30.081,0,0,1,1.346-2.942c1.086-3.484,1.666-7.234,3.957-10.172,1.522-1.948,3.551-3.171,4.8-5.392a41.842,41.842,0,0,0,2.8-7.467c.011-.048.032-.1.043-.143,1.885-5.678,2.876-11.4,4.242-17.184.9-3.87,2.269-7.64,5.16-10.488a11.589,11.589,0,0,1,9.534-3.548c2.554.29,4.925,1.423,7.545,1.145,2.547-.277,4.885-1.653,7.261-2.494,3.966-1.413,6.666-1.06,10.464.5,4.7,1.941,9.524.609,14.4,1.543A1.826,1.826,0,0,1,628.565,414.745Z" transform="translate(-548.27 -408.208)"/><path class="i" d="M629.718,414.745c-.615.124-1.232.239-1.856.363-5.7-.222-11.313-1.392-17.083-1.449-4.418-.045-6.856,1.336-10.517,3.467a31.792,31.792,0,0,1-9.058,3.086c-3.865.886-6.762,1.672-8.829,5.293-1.8,3.162-3.115,6.457-5.241,9.454a43.7,43.7,0,0,1-6.086,6.85c.011-.048.032-.1.043-.143,1.885-5.678,2.876-11.4,4.242-17.184.9-3.87,2.269-7.64,5.16-10.488a11.589,11.589,0,0,1,9.534-3.548c2.554.29,4.925,1.423,7.545,1.145,2.547-.277,4.885-1.653,7.261-2.494,3.965-1.413,6.666-1.06,10.464.5,4.7,1.941,9.524.609,14.4,1.543A1.826,1.826,0,0,1,629.718,414.745Z" transform="translate(-549.423 -408.208)"/></g><g transform="translate(117.963 225.845)"><path class="h" d="M639.682,525.343a2.224,2.224,0,0,1-.268.313,1.9,1.9,0,0,1-2.757-.032c-2.6-2.991-6.081-5.654-10.192-5.981-3.173-.258-5.755,1.464-8.712,2.22-5.933,1.508-12.785-.376-18.839-.31a41.693,41.693,0,0,1-8.8-.5c-3.208-.639-6.233-1.918-9.477-2.413-4.986-.755-9.97-.583-14.809-1.852a54.475,54.475,0,0,1-6.65-.2,1.531,1.531,0,0,1-1.527-1.656,1.718,1.718,0,0,1,1.359-2.457c1.674-.228,3.356-.465,5.039-.693a1.938,1.938,0,0,1,.8.042c3.091-1.565,5.934-3.645,9.244-4.755a35.067,35.067,0,0,1,4.438-1.113,43.891,43.891,0,0,0,9.2-2.309,28.927,28.927,0,0,0,5.6-3.341c1.882-1.357,3.695-2.805,5.717-4.073,3.339-2.076,6.188-1.846,9.893-.938,7.354,1.8,15.852,3.778,22.173,8.132a14.411,14.411,0,0,1,2.929,2.622l.01.007a11.968,11.968,0,0,1,2.485,4.8c1.084,4.231-.292,9.039,2.97,12.522A1.53,1.53,0,0,1,639.682,525.343Z" transform="translate(-557.497 -494.63)"/><path class="i" d="M641.567,525.379a1.86,1.86,0,0,1-.273.277,56.631,56.631,0,0,0-6.035-10.907c-4.509-6.27-9.8-8.4-17.082-5.6-6,2.307-11.646,6-18.2,6.579-7.059.611-12.739-2.98-18.082-7.169a4.261,4.261,0,0,1-1.486-2.6,43.893,43.893,0,0,0,9.2-2.309,28.931,28.931,0,0,0,5.6-3.341c1.882-1.357,3.695-2.805,5.717-4.073,3.339-2.076,6.188-1.846,9.893-.938,7.354,1.8,15.852,3.778,22.173,8.132,1.117.768,1.835,1.952,2.929,2.622l.01.007C638.254,507.511,644.349,522.015,641.567,525.379Z" transform="translate(-559.378 -494.63)"/><path class="i" d="M642.891,525.379l0-.036c-2.015-4.843-3.844-9.941-6.272-14.469-2.777-5.175-8.18-7.577-13.885-6.927-5.623.647-11.389,2.819-17.074,1.788a16.225,16.225,0,0,1-9.114-5.428c1.882-1.357,3.695-2.805,5.717-4.073,3.339-2.076,6.188-1.846,9.893-.938,7.353,1.8,15.852,3.778,22.173,8.132a14.41,14.41,0,0,1,2.929,2.622l.01.007C639.578,507.511,645.672,522.015,642.891,525.379Z" transform="translate(-560.702 -494.63)"/></g><g transform="translate(45.919 251.712)"><path class="j" d="M565.521,553.012c-1.258-.336-2.522-.643-3.792-.933a39.965,39.965,0,0,0-7.217-1.42c-.375-.048-.775-.093-1.232-.147a121.557,121.557,0,0,0-13.884-1.14q-1.546-.043-3.071-.117c-1-.051-1.988-.114-2.972-.195a39.1,39.1,0,0,1-14.041-3.557c-5.829-2.818-10.985-6.786-16.435-10.236a50.326,50.326,0,0,0-22.343-7.915,1.581,1.581,0,0,1-1.375-.971,1.866,1.866,0,0,1,1.765-2.634,1.643,1.643,0,0,1,.565-.282l.009,0a1.717,1.717,0,0,1,.643-.062,195.139,195.139,0,0,0,27.186-.071c5.965-.439,11.576-.975,17.246.141a29.922,29.922,0,0,1,4.392,1.224c13.916,5.07,26.525,14.92,36.671,25.512C569.049,551.687,567.048,553.428,565.521,553.012Z" transform="translate(-479.012 -522.81)"/><path class="k" d="M554.512,550.659c-.375-.048-.775-.093-1.232-.147a121.557,121.557,0,0,0-13.884-1.14q-1.546-.043-3.071-.117c-1-.051-1.988-.114-2.972-.195a39.1,39.1,0,0,1-14.041-3.557c-5.829-2.818-10.985-6.786-16.435-10.236a50.326,50.326,0,0,0-22.343-7.915,1.581,1.581,0,0,1-1.375-.971,1.866,1.866,0,0,1,1.765-2.634,1.643,1.643,0,0,1,.565-.282l.009,0a1.717,1.717,0,0,1,.643-.062,195.139,195.139,0,0,0,27.186-.071c5.965-.439,11.576-.975,17.246.141a36.286,36.286,0,0,1,2.467,3.762c1.5,2.631,2.7,5.517,4.759,7.784,2.218,2.448,5.266,4.292,7.908,6.24Q548.11,545.954,554.512,550.659Z" transform="translate(-479.012 -522.81)"/><path class="h" d="M533.354,549.119a39.1,39.1,0,0,1-14.041-3.557c-5.829-2.818-10.985-6.786-16.435-10.236a50.325,50.325,0,0,0-22.343-7.915,1.581,1.581,0,0,1-1.375-.971,1.866,1.866,0,0,1,1.765-2.634,1.644,1.644,0,0,1,.565-.282l.009,0c5.124.5,10.3.463,15.309,1.691,5.6,1.365,10.1,4.4,14.261,8.3C518.066,540.043,524.952,545.61,533.354,549.119Z" transform="translate(-479.012 -522.868)"/></g><g transform="translate(68.02 227.254)"><path class="h" d="M568.147,550.634a1.9,1.9,0,0,1-1.411-.25c-3.389-2.044-7.337-1.486-11.129-1.7-.314-.019-.629-.039-.936-.069-.325-.028-.652-.073-.979-.118-.242-.03-.5-.068-.741-.116-.121-.011-.244-.039-.366-.059-.245-.048-.489-.086-.736-.143a1.457,1.457,0,0,1-.179-.039c-.283-.052-.558-.115-.833-.185-.646-.156-1.284-.323-1.917-.519-.24-.067-.478-.134-.709-.211-.393-.118-.778-.248-1.164-.377-.557-.178-1.116-.375-1.677-.579-1.518-.547-3.056-1.11-4.589-1.7-.678-.262-1.348-.525-2.021-.806-1.617-.671-3.223-1.389-4.769-2.2l-.862-.456c-.279-.153-.567-.314-.847-.476-.419-.243-.851-.5-1.264-.766-.231-.141-.464-.292-.687-.444-.171-.1-.333-.219-.5-.333-.325-.22-.633-.452-.949-.682-.093-.07-.176-.14-.268-.21-.37-.278-.722-.567-1.077-.866a27.483,27.483,0,0,1-7.872-11.124,33.735,33.735,0,0,1-1.289-3.864c-1.132-4.178-1.813-8.485-4.233-12.171-2.314-3.525-5.634-6.248-8.837-8.924a1.782,1.782,0,0,1-.595-.9c-.326-.293-.653-.6-.979-.889a1.909,1.909,0,0,1,.123-2.962,1.646,1.646,0,0,1,2.053.059c6.5,4.787,13.953,7.935,21.189,11.436.667.309,1.337.637,2,.966a74.03,74.03,0,0,1,12.626,7.627c.145.117.3.233.443.351,10.286,8.205,15.143,21.223,25.31,29.437.467.384.949.746,1.441,1.108a1.693,1.693,0,0,1,.663.861A1.851,1.851,0,0,1,568.147,550.634Z" transform="translate(-503.088 -496.166)"/><path class="i" d="M568.147,550.634a1.9,1.9,0,0,1-1.411-.25c-3.389-2.044-7.337-1.486-11.129-1.7-.314-.019-.629-.039-.936-.069-.325-.028-.652-.073-.979-.118-.242-.03-.5-.068-.741-.116-.121-.011-.244-.039-.366-.059-.245-.048-.489-.086-.736-.143a1.457,1.457,0,0,1-.179-.039c-.283-.052-.558-.115-.833-.185-.646-.156-1.284-.323-1.917-.519-.24-.067-.478-.134-.709-.211-.393-.118-.778-.248-1.164-.377-.557-.178-1.116-.375-1.677-.579-1.518-.547-3.056-1.11-4.589-1.7-.678-.262-1.348-.525-2.021-.806-1.617-.671-3.223-1.389-4.769-2.2l-.862-.456c-.279-.153-.567-.314-.847-.476-.419-.243-.851-.5-1.264-.766-.231-.141-.464-.292-.687-.444-.171-.1-.333-.219-.5-.333-.325-.22-.633-.452-.949-.682-.093-.07-.176-.14-.268-.21-.37-.278-.722-.567-1.077-.866a27.483,27.483,0,0,1-7.872-11.124,33.735,33.735,0,0,1-1.289-3.864c-1.132-4.178-1.813-8.485-4.233-12.171-2.314-3.525-5.634-6.248-8.837-8.924a1.782,1.782,0,0,1-.595-.9c-.326-.293-.653-.6-.979-.889a1.909,1.909,0,0,1,.123-2.962,1.646,1.646,0,0,1,2.053.059c6.5,4.787,13.953,7.935,21.189,11.436q.511.7,1,1.4c4.775,6.984,6.426,15.429,11.362,22.317A47.232,47.232,0,0,0,558.4,547.324c.128.055.263.109.4.164C560.933,548.333,565,549.2,568.147,550.634Z" transform="translate(-503.088 -496.166)"/><path class="i" d="M568.147,550.664a1.9,1.9,0,0,1-1.411-.25c-3.389-2.044-7.337-1.486-11.129-1.7-.314-.019-.629-.039-.936-.069-.325-.028-.652-.073-.979-.118-.242-.03-.5-.068-.741-.116-.121-.011-.244-.039-.366-.059-.245-.048-.489-.086-.736-.143a1.457,1.457,0,0,1-.179-.039c-.283-.052-.558-.115-.833-.185-.646-.156-1.284-.323-1.917-.519-.24-.067-.478-.134-.709-.211-.393-.118-.778-.248-1.164-.377-.557-.178-1.116-.374-1.677-.579-1.518-.547-3.056-1.11-4.589-1.7-.678-.262-1.348-.525-2.021-.806-1.617-.671-3.223-1.389-4.769-2.2l-.862-.456c-.279-.153-.567-.314-.847-.476-.419-.243-.851-.5-1.264-.766-.231-.141-.464-.292-.687-.444-.171-.1-.333-.219-.5-.333-.325-.22-.633-.451-.949-.682-.093-.07-.176-.14-.268-.21-.37-.278-.722-.567-1.077-.867a27.482,27.482,0,0,1-7.872-11.123,33.735,33.735,0,0,1-1.289-3.864c-1.132-4.178-1.813-8.485-4.233-12.171-2.314-3.525-5.634-6.248-8.837-8.924a1.782,1.782,0,0,1-.595-.9c-.326-.293-.653-.6-.979-.889a1.909,1.909,0,0,1,.123-2.962c12.048,7.5,20.637,17.916,27.551,30.626,4.151,7.633,8.676,14.285,17.024,17.665a45.32,45.32,0,0,0,10.362,2.7,94.046,94.046,0,0,0,10.788.852A1.851,1.851,0,0,1,568.147,550.664Z" transform="translate(-503.088 -496.196)"/></g><g transform="translate(112.725 68.105)"><path class="i" d="M627.51,327.162c-10.124-.7-18.456,6.192-25.45,12.675A134.882,134.882,0,0,0,584.6,359.116c-5.2,7.135-8.544,15.391-13.788,22.476a42.39,42.39,0,0,1-18.433,14l-.017.006a.314.314,0,0,1-.418-.1c-.348-.51-.051-2.378.532-4.674l.022-.1c.951-3.715,2.6-8.526,3.366-10.581.345-.916.687-1.84,1.028-2.764,5.206-14.126,10.06-28.546,20-40.055a49.534,49.534,0,0,1,5.851-5.858,27.4,27.4,0,0,1,4.347-2.993c4.153-2.27,8.713-2.685,13.337-3.239.315-.041.621-.078.939-.11q7.763-.954,15.53-1.872c3.388-.41,6.581-.767,9.831-.049l.008,0c.459.109.923.235,1.385.381l.009,0c.146.051.294.084.448.132a1.022,1.022,0,0,1,.222.1C630.571,324.672,629.331,327.282,627.51,327.162Z" transform="translate(-551.791 -322.787)"/><path class="k" d="M601.358,325.328a24.486,24.486,0,0,1-5.441,12.651c-5.075,6.062-12.595,8.463-16.552,15.666-3.751,6.825-6.772,13.861-11.042,20.415-4.789,7.342-10.28,14.181-15.762,21a5,5,0,0,1-.621.642c-.348-.51-.051-2.378.532-4.674l.022-.1c.951-3.715,2.6-8.526,3.366-10.581.345-.916.687-1.84,1.028-2.764,5.206-14.126,10.06-28.546,20-40.055a49.529,49.529,0,0,1,5.851-5.858,27.4,27.4,0,0,1,4.347-2.993c4.153-2.27,8.713-2.685,13.337-3.239C600.734,325.4,601.04,325.36,601.358,325.328Z" transform="translate(-551.791 -322.996)"/><path class="h" d="M583.191,332.238a32.625,32.625,0,0,1-1.024,6.333c-1.674,6.18-4.809,12.036-8.04,17.531a118.034,118.034,0,0,1-16.782,22.05c5.206-14.126,10.06-28.546,20-40.055A49.534,49.534,0,0,1,583.191,332.238Z" transform="translate(-552.247 -323.563)"/></g><g transform="translate(0 140.869)"><path class="i" d="M534.583,480.938c-11.448,1.039-23.233.8-33.415-5.186a49.753,49.753,0,0,1-12.5-10.7c-3.052-3.55-5.377-7.936-8.866-11.076a16.5,16.5,0,0,0-2.666-1.99c-4.875-2.889-9.979-4.149-14.2-8.167a50.278,50.278,0,0,1-8.546-11.543c-5.616-9.691-10.778-22.473-22.875-25.315a1.869,1.869,0,0,1-1.37-1.255,2.029,2.029,0,0,1-1.008-2.591,1.466,1.466,0,0,1,1.357-.852c8.043-.339,16.573-.663,24.158,2.513a24.465,24.465,0,0,1,2.731,1.348c.587.32,1.159.671,1.725,1.041a1.68,1.68,0,0,1,.829.414c.242.223.5.453.747.675a87.722,87.722,0,0,1,7.974,6.845,47.87,47.87,0,0,0,15.122,8.54c4.367,1.374,9,1.2,13.377,2.495a22.234,22.234,0,0,1,9.2,5.992c3.194,3.136,6.615,6.505,8.535,10.619,1.933,4.139,1.715,8.7,2.493,13.1a29.089,29.089,0,0,0,14.333,19.98,30.214,30.214,0,0,0,3.294,1.636C536.608,478.139,536.43,480.778,534.583,480.938Z" transform="translate(-428.987 -402.057)"/><path class="k" d="M534.583,480.938c-11.448,1.039-23.233.8-33.415-5.186a49.753,49.753,0,0,1-12.5-10.7c-3.052-3.55-5.377-7.936-8.866-11.076a16.5,16.5,0,0,0-2.666-1.99c-4.875-2.889-9.979-4.149-14.2-8.167a50.278,50.278,0,0,1-8.546-11.543c-5.616-9.691-10.778-22.473-22.875-25.315a1.869,1.869,0,0,1-1.37-1.255,2.029,2.029,0,0,1-1.008-2.591,1.466,1.466,0,0,1,1.357-.852c8.043-.339,16.573-.663,24.158,2.513a24.465,24.465,0,0,1,2.731,1.348c2.881,3.06,4.877,6.732,7.858,9.98,4.089,4.468,8.915,8.115,12.738,12.84a42.144,42.144,0,0,1,8.058,15.685c1.952,7.2,3.95,13.421,8.687,19.356,8.983,11.261,23.663,11.939,37,11.844a30.214,30.214,0,0,0,3.294,1.636C536.608,478.139,536.43,480.778,534.583,480.938Z" transform="translate(-428.987 -402.057)"/><path class="h" d="M479.8,454.071a16.5,16.5,0,0,0-2.666-1.99c-4.875-2.889-9.979-4.149-14.2-8.167a50.277,50.277,0,0,1-8.546-11.543c-5.616-9.691-10.778-22.473-22.875-25.315a1.869,1.869,0,0,1-1.37-1.255,2.029,2.029,0,0,1-1.008-2.591c6.994.095,14.234.439,20.7,3.387,6.305,2.889,10.854,7.943,14.4,13.788a147.372,147.372,0,0,1,10.528,21.738C476.382,446.161,477.9,450.212,479.8,454.071Z" transform="translate(-428.987 -402.151)"/></g><g transform="translate(36.65 103.994)"><path class="h" d="M527.82,446.616c-8.012-.29-14.68-4.834-20.973-9.384-1.071-.766-2.1-1.565-3.106-2.377a56.432,56.432,0,0,1-11.788-12.8c-.535-.8-1.045-1.622-1.541-2.469a80.318,80.318,0,0,1-8.951-24.988c-.92-4.631-1.36-9.311-2.154-13.959-.957-5.607-3.985-9.509-8.052-13.3a1.857,1.857,0,0,1-.564-.938c-.259-.275-.543-.538-.8-.833a1.6,1.6,0,0,1-.312-.525,1.77,1.77,0,0,1-.66-1.292.017.017,0,0,1,0-.027,1.8,1.8,0,0,1,.341-1.03.445.445,0,0,1,.054-.072,1.865,1.865,0,0,1,2.517-.43c.6.374,1.174.779,1.763,1.182.069.036.146.062.226.106a42.439,42.439,0,0,1,3.909,2.741,39.24,39.24,0,0,1,9.238,7.932,51.81,51.81,0,0,1,5.768,5.9,129.584,129.584,0,0,1,7.814,10.71c2.165,3.253,4.247,6.564,6.322,9.821a175.142,175.142,0,0,1,11.711,20.956c3.456,7.52,5.074,15.987,10.9,22.145C530.667,444.948,529.23,446.665,527.82,446.616Z" transform="translate(-468.914 -361.885)"/><path class="i" d="M503.926,431.289a3.694,3.694,0,0,1-.185,3.566,56.432,56.432,0,0,1-11.788-12.8c-.535-.8-1.045-1.622-1.541-2.469a80.318,80.318,0,0,1-8.951-24.988c-.92-4.631-1.36-9.311-2.154-13.959-.957-5.607-3.985-9.509-8.052-13.3a1.857,1.857,0,0,1-.564-.938c-.259-.275-.543-.538-.8-.833a1.6,1.6,0,0,1-.312-.525,1.77,1.77,0,0,1-.66-1.292.017.017,0,0,1,0-.027,3.615,3.615,0,0,1,.341-1.03.445.445,0,0,1,.054-.072,1.865,1.865,0,0,1,2.517-.43c.6.374,1.174.779,1.763,1.182.069.036.146.062.226.106a42.439,42.439,0,0,1,3.909,2.741,39.24,39.24,0,0,1,9.238,7.932,51.81,51.81,0,0,1,5.768,5.9,129.584,129.584,0,0,1,7.814,10.71c1.83,6.273,1.219,12.2.4,18.61A40.662,40.662,0,0,0,503.926,431.289Z" transform="translate(-468.914 -361.885)"/><path class="i" d="M494.483,406.39c-.136,4.945-2.693,10.608-2.53,15.73-.535-.8-1.045-1.622-1.541-2.469a80.317,80.317,0,0,1-8.951-24.988c-.92-4.631-1.36-9.311-2.154-13.959-.957-5.607-3.985-9.509-8.052-13.3a1.857,1.857,0,0,1-.564-.938c-.259-.275-.543-.538-.8-.833a1.6,1.6,0,0,1-.312-.525,1.77,1.77,0,0,1-.66-1.292.017.017,0,0,1,0-.027,1.8,1.8,0,0,1,.341-1.03.446.446,0,0,1,.054-.072c8.276,7.16,16.126,14.939,20.911,24.922A41.322,41.322,0,0,1,494.483,406.39Z" transform="translate(-468.914 -361.951)"/></g><path class="h" d="M581.126,547.209a54.3,54.3,0,0,1-8.633-8.239c-2.57-3.3-3.46-6.811-4.633-10.735-2.207-7.378-6.885-14.021-10.311-20.889A269.74,269.74,0,0,1,539.987,462.5c-2.452-8.411-4.937-17.156-5.319-25.959-.287-6.6.594-12.921-.638-19.37,1.106-4.3,6.293-8.7,9.311-10.908,3.238-2.371,6.449-4.527,8.9-7.765a1.818,1.818,0,0,0-2.9-2.185c-3.379,4.472-8.639,6.708-12.5,10.672a35.118,35.118,0,0,0-4.179,5.018c-2.225-7.056-5.285-13.8-6.914-21.076a97.348,97.348,0,0,1-2.137-26.588c.158-2.905-4.346-3.5-4.5-.583a108.016,108.016,0,0,0,.291,16c-3.8-3.422-7.611-6.991-8.692-12.1-.481-2.276-4.082-1.784-3.6.508,1.619,7.656,7.746,11.917,12.977,17.112.236,1.541.495,3.079.809,4.611,1.67,8.165,4.9,15.646,7.461,23.531,2.783,8.553,1.258,16.8,1.937,25.534.669,8.614,3.125,17.092,5.537,25.353a270.2,270.2,0,0,0,19.091,47.861c2.055,3.994,4.385,7.853,6.383,11.872,1.649,3.316,2.421,6.741,3.57,10.232,2.329,7.075,7.958,11.969,13.531,16.561C580.656,552.7,583.379,549.065,581.126,547.209Z" transform="translate(-435.394 -257.887)"/><g transform="translate(55.416)"><path class="i" d="M517.049,273.415c.01.007,0,.009,0,.009a34.1,34.1,0,0,1-.121,5.181c-.83,8.217-5.085,15.431-7.589,23.16a32.271,32.271,0,0,0-1.464,10.737,100.074,100.074,0,0,0,1.6,13.661c.118.772.236,1.544.347,2.326.067.476.134.954.193,1.431a147.356,147.356,0,0,1,1.213,25.026c-.2,5.633-2.579,8.619-7.575,4.683a33.52,33.52,0,0,1-4.425-4.181l-.23-.27a33.443,33.443,0,0,1-2.55-3.309,38.754,38.754,0,0,1-4.3-8.262,46.123,46.123,0,0,1-2.2-23.326,67.366,67.366,0,0,1,6.964-20.9c3.913-7.56,9-14.617,10.208-23.254,1.176-8.367-.285-16.828,1.819-25.106.027-.077.053-.145.079-.221-.011-.082-.032-.161-.042-.233-.458-2.338,3.028-2.721,3.6-.508.336,1.337.617,2.674.861,4.015C514.908,260.463,516.759,266.879,517.049,273.415Z" transform="translate(-489.358 -248.593)"/><path class="i" d="M517.1,273.415c.01.007,0,.009,0,.009-.459,7.008-3.2,12.935-7.062,18.9-4.322,6.683-10.669,11.615-14.755,18.412-1.819,3.026-3.708,6.22-5.293,9.544a67.366,67.366,0,0,1,6.964-20.9c3.913-7.56,9-14.617,10.208-23.254,1.176-8.367-.285-16.828,1.819-25.106.027-.077.053-.145.079-.221-.011-.082-.032-.161-.042-.233-.458-2.338,3.028-2.721,3.6-.508.336,1.337.617,2.674.861,4.015C514.96,260.463,516.811,266.879,517.1,273.415Z" transform="translate(-489.41 -248.593)"/><path class="h" d="M510.54,335.513a.632.632,0,0,1,.109.122,147.353,147.353,0,0,1,1.213,25.026c-.2,5.633-2.579,8.619-7.575,4.683a33.521,33.521,0,0,1-4.425-4.181c-.038-.206-.076-.411-.106-.618-.039.116-.077.231-.125.348a33.439,33.439,0,0,1-2.55-3.309,71.6,71.6,0,0,0,2.707-8.179c1.109-4.423,1.072-9.031,1.944-13.511a55.393,55.393,0,0,1,6.776-17.678,100.074,100.074,0,0,0,1.6,13.661c.055.845.128,1.687.22,2.537Z" transform="translate(-489.992 -254.307)"/></g><g transform="translate(77.684 19.641)"><path class="h" d="M581.176,272.32a1.759,1.759,0,0,1-.987,1.13c-8.269,4.066-16.156,9.014-22.729,15.53a34.821,34.821,0,0,0-7.986,11.327c-1.627,3.936-2.855,7.971-4.705,11.819-2.164,4.488-4.421,8.833-6.424,13.29a82.232,82.232,0,0,0-3.995,10.489c-.867,2.884-1.691,5.761-2.64,8.583a51.954,51.954,0,0,1-5.891,12.646,1.779,1.779,0,0,1-.3.354,2.543,2.543,0,0,1-.181.346,11.322,11.322,0,0,1-1.887,2.22,1.927,1.927,0,0,1-3.328-.107c-9.914-19.284-7.968-41.28,2.216-60.036,2.145-3.972,4.462-8.152,7.785-11.254a17.106,17.106,0,0,1,3.921-2.7,71.6,71.6,0,0,1,9.513-3.564q17.6-6.145,35.185-12.28A1.841,1.841,0,0,1,581.176,272.32Z" transform="translate(-513.617 -269.99)"/><path class="i" d="M581.865,272.32a1.76,1.76,0,0,1-.987,1.13c-8.269,4.066-16.156,9.014-22.729,15.53a34.821,34.821,0,0,0-7.986,11.327c-1.627,3.936-2.855,7.971-4.705,11.819-2.164,4.488-4.421,8.833-6.424,13.29A82.241,82.241,0,0,0,535.04,335.9c-.867,2.884-1.691,5.761-2.64,8.583a43.188,43.188,0,0,0-5.52-18.629c-2.884-5.023-5.933-9.334-4.514-15.4,1.35-5.767,5.612-10.854,8.314-16.015q2.191-4.176,4.057-8.489a71.594,71.594,0,0,1,9.513-3.564q17.6-6.145,35.185-12.28A1.841,1.841,0,0,1,581.865,272.32Z" transform="translate(-514.305 -269.99)"/><path class="i" d="M582.766,272.528a1.76,1.76,0,0,1-.987,1.13c-8.269,4.066-16.156,9.014-22.729,15.529a34.822,34.822,0,0,0-7.986,11.327c-1.627,3.936-2.855,7.971-4.705,11.819-2.164,4.488-4.421,8.833-6.424,13.29-3.328-4.015-6-8.508-6.761-13.84-1.042-7.245,2.194-13.692,7.315-18.607,5.888-5.656,13.813-9.482,21.133-12.864A148.621,148.621,0,0,1,582.766,272.528Z" transform="translate(-515.206 -270.198)"/></g><g transform="translate(110.791 91.239)"><path class="h" d="M640.808,360.966a1.926,1.926,0,0,1-2.5,1.683c-17.552-5.878-35.236-.875-48.8,11.223a138.524,138.524,0,0,0-10.4,11.165c-4.994,5.621-10.31,11.106-16.794,13.581a20.282,20.282,0,0,1-8.958,1.321,1.656,1.656,0,0,1-1.064-.455c-1.5-.3-2.482-1.337-2.6-3.963a22.257,22.257,0,0,1,1.322-7.856c.767-2.355,1.752-4.669,2.607-6.872,3.946-10.115,9.13-20.368,18.131-26.9,8.853-6.415,18.75-6.492,29.042-5.313a.261.261,0,0,1,.083.006c.913.1,1.829.218,2.745.337,12.336,1.615,24.263,6.571,36.064,10.371A1.523,1.523,0,0,1,640.808,360.966Z" transform="translate(-549.683 -347.99)"/><path class="i" d="M641.938,361.018a1.926,1.926,0,0,1-2.5,1.683c-17.552-5.878-35.236-.875-48.8,11.223a138.524,138.524,0,0,0-10.4,11.165c-4.994,5.621-10.31,11.106-16.794,13.581,4.073-3.767,8.276-7.516,8.78-13.366.588-6.807-.914-13.419,2.805-19.623,3.55-5.913,9.9-9.369,15.9-12.344a111.83,111.83,0,0,1,11-4.709.26.26,0,0,1,.083.006c.913.1,1.829.218,2.745.337,12.336,1.615,24.263,6.571,36.064,10.371A1.523,1.523,0,0,1,641.938,361.018Z" transform="translate(-550.813 -348.042)"/><path class="i" d="M643.44,361.574a1.926,1.926,0,0,1-2.5,1.683c-17.552-5.878-35.236-.875-48.8,11.223a138.509,138.509,0,0,0-10.4,11.165c.306-2.768.327-5.541.791-8.294,1.194-7.066,5.9-13.014,11.945-16.675,7.275-4.412,16-5.471,24.364-5.248C627.3,355.644,635.457,358.894,643.44,361.574Z" transform="translate(-552.315 -348.598)"/></g></g><g transform="translate(807.485 156.888)"><g transform="translate(8.121 104.894)"><path class="h" d="M857.062,277.038c.441.088.882.171,1.329.26,3.511.666,7.082,1.237,10.538,2.106.216.057.425.113.619.18a10.334,10.334,0,0,1,4.228,2.612,7.114,7.114,0,0,0,2.816,1.587c2.267.681,4.343.265,5.729,2.772a21.281,21.281,0,0,1,1.367,4.317,90.742,90.742,0,0,0,3.439,9.588,91.875,91.875,0,0,0,10.116,18.023c3.543,4.9,7.927,9.243,14.138,10.041a6.222,6.222,0,0,0,1.657.549,1.307,1.307,0,0,0,1.387-1.781c-1.512-2.826-3.093-5.624-4.534-8.487-.632-1.246-1.08-2.536-1.592-3.8a21.519,21.519,0,0,0-.963-2.107c-.777-2.493-1.193-5.178-2.833-7.282-1.09-1.4-2.543-2.27-3.435-3.86a30.008,30.008,0,0,1-2-5.346c-.008-.034-.023-.069-.031-.1-1.35-4.066-2.059-8.159-3.036-12.3A14.891,14.891,0,0,0,892.3,276.5a8.3,8.3,0,0,0-6.826-2.541c-1.828.208-3.526,1.019-5.4.82-1.824-.2-3.5-1.183-5.2-1.784a9.18,9.18,0,0,0-7.491.36c-3.368,1.39-6.818.436-10.308,1.105A1.307,1.307,0,0,0,857.062,277.038Z" transform="translate(-855.98 -272.358)"/><path class="i" d="M857.062,277.038c.441.088.882.171,1.329.26,3.511.666,7.082,1.237,10.538,2.106.216.057.425.113.619.18a16.694,16.694,0,0,1,3.244-.231c2.779.129,4.568,3,7.039,4.047,1.3.544,2.88.3,4.11.844a5.521,5.521,0,0,1,2.592,2.848c1.216,2.451,1.584,5.24,2.8,7.7a31.368,31.368,0,0,0,5.005,6.965A143.658,143.658,0,0,0,907.8,314.654a3.1,3.1,0,0,0,.5.353,21.519,21.519,0,0,0-.963-2.107c-.777-2.493-1.193-5.178-2.833-7.282-1.09-1.4-2.543-2.27-3.435-3.86a30.008,30.008,0,0,1-2-5.346c-.008-.034-.023-.069-.031-.1-1.35-4.066-2.059-8.159-3.036-12.3A14.891,14.891,0,0,0,892.3,276.5a8.3,8.3,0,0,0-6.826-2.541c-1.828.208-3.526,1.019-5.4.82-1.824-.2-3.5-1.183-5.2-1.784a9.18,9.18,0,0,0-7.491.36c-3.368,1.39-6.818.436-10.308,1.105A1.307,1.307,0,0,0,857.062,277.038Z" transform="translate(-855.98 -272.358)"/><path class="i" d="M857.062,277.038c.441.088.882.171,1.329.26,4.081-.159,8.1-1,12.23-1.037,3.163-.032,4.908.956,7.53,2.482a22.753,22.753,0,0,0,6.485,2.209c2.767.634,4.841,1.2,6.32,3.789a76.8,76.8,0,0,0,3.753,6.769,31.358,31.358,0,0,0,4.357,4.9c-.008-.034-.023-.069-.031-.1-1.35-4.066-2.059-8.159-3.036-12.3A14.891,14.891,0,0,0,892.3,276.5a8.3,8.3,0,0,0-6.826-2.541c-1.828.208-3.526,1.019-5.4.82-1.824-.2-3.5-1.183-5.2-1.784a9.18,9.18,0,0,0-7.491.36c-3.368,1.39-6.818.436-10.308,1.105A1.307,1.307,0,0,0,857.062,277.038Z" transform="translate(-855.98 -272.358)"/></g><g transform="translate(0.761 161.687)"><path class="h" d="M848.5,356.217a1.544,1.544,0,0,0,.191.225,1.363,1.363,0,0,0,1.974-.024c1.859-2.141,4.355-4.047,7.3-4.282,2.272-.184,4.121,1.048,6.237,1.591,4.247,1.079,9.153-.271,13.487-.223a29.824,29.824,0,0,0,6.3-.357c2.3-.457,4.463-1.373,6.785-1.728,3.57-.54,7.138-.418,10.6-1.326a38.993,38.993,0,0,0,4.761-.142,1.1,1.1,0,0,0,1.093-1.185,1.23,1.23,0,0,0-.973-1.76c-1.2-.162-2.4-.332-3.607-.5a1.379,1.379,0,0,0-.576.03c-2.212-1.121-4.248-2.61-6.618-3.4a25.216,25.216,0,0,0-3.177-.8,31.352,31.352,0,0,1-6.59-1.653,20.738,20.738,0,0,1-4.009-2.391c-1.347-.972-2.645-2.009-4.093-2.916-2.39-1.487-4.43-1.322-7.083-.672-5.264,1.285-11.348,2.705-15.873,5.821a10.32,10.32,0,0,0-2.1,1.878l-.007.006a8.567,8.567,0,0,0-1.779,3.432c-.776,3.03.209,6.472-2.127,8.965A1.094,1.094,0,0,0,848.5,356.217Z" transform="translate(-847.99 -334.229)"/><path class="i" d="M848.472,356.244a1.336,1.336,0,0,0,.195.2,40.6,40.6,0,0,1,4.321-7.809c3.228-4.489,7.017-6.016,12.23-4.012,4.3,1.651,8.338,4.3,13.027,4.71,5.053.438,9.121-2.133,12.945-5.132a3.052,3.052,0,0,0,1.064-1.86,31.352,31.352,0,0,1-6.59-1.653,20.738,20.738,0,0,1-4.009-2.391c-1.347-.972-2.645-2.009-4.093-2.916-2.39-1.487-4.43-1.322-7.083-.672-5.264,1.285-11.348,2.705-15.873,5.821-.8.551-1.315,1.4-2.1,1.878l-.007.006C850.843,343.451,846.481,353.834,848.472,356.244Z" transform="translate(-847.962 -334.229)"/><path class="i" d="M848.472,356.244l0-.027c1.441-3.467,2.752-7.117,4.49-10.358a9.688,9.688,0,0,1,9.94-4.96c4.026.464,8.154,2.019,12.224,1.28a11.612,11.612,0,0,0,6.525-3.885c-1.347-.972-2.645-2.009-4.093-2.916-2.39-1.487-4.43-1.322-7.083-.672-5.264,1.285-11.348,2.705-15.873,5.821a10.318,10.318,0,0,0-2.1,1.878l-.007.006C850.843,343.451,846.481,353.834,848.472,356.244Z" transform="translate(-847.962 -334.229)"/></g><g transform="translate(47.896 180.207)"><path class="j" d="M901.172,376.026c.9-.24,1.8-.461,2.714-.667a28.634,28.634,0,0,1,5.167-1.017c.268-.034.554-.066.882-.1a86.991,86.991,0,0,1,9.939-.816q1.107-.03,2.2-.084c.714-.037,1.423-.082,2.128-.14a27.993,27.993,0,0,0,10.052-2.546c4.173-2.018,7.864-4.859,11.765-7.329a36.037,36.037,0,0,1,16-5.666,1.13,1.13,0,0,0,.984-.695,1.336,1.336,0,0,0-1.263-1.886,1.2,1.2,0,0,0-.406-.2h-.005a1.23,1.23,0,0,0-.46-.045,139.694,139.694,0,0,1-19.464-.05c-4.27-.314-8.288-.7-12.347.1a21.471,21.471,0,0,0-3.145.876c-9.962,3.63-18.99,10.682-26.254,18.265C898.646,375.079,900.078,376.325,901.172,376.026Z" transform="translate(-899.312 -354.404)"/><path class="k" d="M909.924,374.341c.268-.034.554-.066.882-.1a86.994,86.994,0,0,1,9.939-.816q1.107-.03,2.2-.084c.714-.037,1.423-.082,2.128-.14a27.993,27.993,0,0,0,10.052-2.546c4.173-2.018,7.864-4.859,11.765-7.329a36.038,36.038,0,0,1,16-5.666,1.13,1.13,0,0,0,.984-.695,1.336,1.336,0,0,0-1.263-1.886,1.2,1.2,0,0,0-.406-.2H962.2a1.23,1.23,0,0,0-.46-.045,139.694,139.694,0,0,1-19.464-.05c-4.27-.314-8.288-.7-12.347.1a25.882,25.882,0,0,0-1.766,2.693c-1.074,1.884-1.93,3.949-3.407,5.573a37,37,0,0,1-5.662,4.468Q914.507,370.973,909.924,374.341Z" transform="translate(-900.183 -354.404)"/><path class="h" d="M926.426,373.24a27.993,27.993,0,0,0,10.052-2.546c4.173-2.018,7.864-4.859,11.765-7.329a36.038,36.038,0,0,1,16-5.666,1.13,1.13,0,0,0,.984-.695,1.336,1.336,0,0,0-1.263-1.886,1.2,1.2,0,0,0-.406-.2h-.005c-3.669.355-7.376.33-10.961,1.21a22.731,22.731,0,0,0-10.209,5.939C937.371,366.742,932.441,370.727,926.426,373.24Z" transform="translate(-901.537 -354.446)"/></g><g transform="translate(48.2 162.697)"><path class="h" d="M900.734,374.323a1.353,1.353,0,0,0,1.01-.179c2.427-1.463,5.253-1.064,7.968-1.219.225-.014.451-.028.67-.05s.467-.052.7-.084c.174-.022.355-.049.531-.083.086-.008.175-.028.263-.042.175-.034.35-.062.527-.1a.948.948,0,0,0,.128-.028c.2-.038.4-.082.6-.133.462-.111.919-.23,1.372-.371.171-.048.341-.1.507-.151.282-.084.557-.177.833-.27.4-.128.8-.268,1.2-.415,1.087-.391,2.187-.794,3.285-1.217.486-.187.966-.375,1.447-.576,1.158-.48,2.308-.994,3.414-1.573l.618-.327c.2-.109.406-.225.606-.341.3-.173.61-.36.905-.548.166-.1.332-.209.492-.319.122-.074.239-.156.355-.239.232-.157.453-.323.68-.488.066-.05.125-.1.192-.15.264-.2.517-.407.77-.621a20.637,20.637,0,0,0,1.7-1.631,20.242,20.242,0,0,0,3.934-6.333,24.311,24.311,0,0,0,.923-2.766c.81-2.992,1.3-6.075,3.03-8.713a30.765,30.765,0,0,1,6.327-6.39,1.272,1.272,0,0,0,.425-.643c.234-.209.468-.426.7-.636a1.367,1.367,0,0,0-.088-2.12,1.178,1.178,0,0,0-1.471.042c-4.654,3.427-9.99,5.681-15.17,8.187-.478.221-.958.455-1.431.69a52.99,52.99,0,0,0-9.039,5.462c-.1.084-.214.166-.318.251-7.365,5.875-10.841,15.194-18.121,21.075-.334.274-.679.534-1.031.793a1.212,1.212,0,0,0-.475.616A1.325,1.325,0,0,0,900.734,374.323Z" transform="translate(-899.643 -335.329)"/><path class="i" d="M900.831,374.323a1.353,1.353,0,0,0,1.01-.179c2.427-1.463,5.253-1.064,7.968-1.219.225-.014.451-.028.67-.05s.467-.052.7-.084c.174-.022.355-.049.531-.083.086-.008.175-.028.262-.042.175-.034.35-.062.527-.1a.952.952,0,0,0,.128-.028c.2-.038.4-.082.6-.133.462-.111.919-.23,1.372-.371.171-.048.341-.1.507-.151.282-.084.557-.177.833-.27.4-.128.8-.268,1.2-.415,1.087-.391,2.187-.794,3.285-1.217.486-.187.966-.375,1.447-.576,1.158-.48,2.308-.994,3.414-1.573l.618-.327c.2-.109.406-.225.606-.341.3-.173.609-.36.905-.548.166-.1.332-.209.492-.319.122-.074.239-.156.355-.239.232-.157.453-.323.68-.488.066-.05.125-.1.192-.15.264-.2.517-.407.77-.621a20.637,20.637,0,0,0,1.7-1.631,20.243,20.243,0,0,0,3.934-6.333,24.3,24.3,0,0,0,.922-2.766c.811-2.992,1.3-6.075,3.03-8.713a30.766,30.766,0,0,1,6.327-6.39,1.272,1.272,0,0,0,.425-.643c.234-.209.468-.426.7-.636a1.367,1.367,0,0,0-.088-2.12,1.178,1.178,0,0,0-1.471.042c-4.654,3.427-9.99,5.681-15.17,8.187q-.366.5-.713,1c-3.418,5-4.6,11.045-8.134,15.977a33.816,33.816,0,0,1-13.558,11.179c-.091.039-.188.078-.285.117C906,372.676,903.084,373.3,900.831,374.323Z" transform="translate(-899.74 -335.329)"/><path class="i" d="M900.734,374.345a1.353,1.353,0,0,0,1.01-.179c2.427-1.463,5.253-1.064,7.968-1.219.225-.014.451-.028.67-.05s.467-.052.7-.084c.174-.022.355-.049.531-.083.086-.008.175-.028.263-.042.175-.034.35-.062.527-.1a.948.948,0,0,0,.128-.028c.2-.038.4-.082.6-.133.462-.111.919-.23,1.372-.371.171-.048.341-.1.507-.151.282-.084.557-.177.833-.27.4-.128.8-.268,1.2-.415,1.087-.391,2.187-.794,3.285-1.217.486-.187.966-.375,1.447-.576,1.158-.48,2.308-.994,3.414-1.573l.618-.327c.2-.109.406-.225.606-.342.3-.173.61-.36.905-.548.166-.1.332-.209.492-.319.122-.074.239-.156.355-.239.232-.157.453-.323.68-.488.066-.05.125-.1.192-.15.264-.2.517-.407.77-.621a20.632,20.632,0,0,0,1.7-1.631,20.242,20.242,0,0,0,3.934-6.333,24.311,24.311,0,0,0,.923-2.766c.81-2.992,1.3-6.075,3.03-8.713a30.765,30.765,0,0,1,6.327-6.39,1.272,1.272,0,0,0,.425-.643c.234-.209.468-.426.7-.636a1.367,1.367,0,0,0-.088-2.12c-8.626,5.368-14.775,12.826-19.724,21.926-2.971,5.464-6.212,10.227-12.188,12.646a32.423,32.423,0,0,1-7.418,1.934,67.017,67.017,0,0,1-7.723.61A1.325,1.325,0,0,0,900.734,374.345Z" transform="translate(-899.643 -335.35)"/></g><g transform="translate(8.117 48.758)"><path class="i" d="M857.512,214.335c7.248-.5,13.214,4.434,18.221,9.075a96.529,96.529,0,0,1,12.5,13.8c3.72,5.108,6.117,11.019,9.871,16.091a30.353,30.353,0,0,0,13.2,10.02l.012,0a.225.225,0,0,0,.3-.075c.249-.365.036-1.7-.381-3.346l-.016-.069c-.681-2.659-1.86-6.1-2.41-7.575-.247-.655-.491-1.317-.735-1.979-3.728-10.113-7.2-20.437-14.316-28.676a35.5,35.5,0,0,0-4.188-4.194,19.6,19.6,0,0,0-3.113-2.142c-2.973-1.626-6.238-1.922-9.548-2.32-.225-.029-.444-.056-.672-.079q-5.557-.683-11.118-1.34a20.584,20.584,0,0,0-7.039-.034l-.005,0c-.329.078-.661.169-.992.274l-.006,0c-.1.038-.21.061-.32.1a.723.723,0,0,0-.16.072C855.321,212.552,856.208,214.421,857.512,214.335Z" transform="translate(-855.976 -211.203)"/><path class="k" d="M878.046,213.022a17.535,17.535,0,0,0,3.9,9.057c3.633,4.34,9.017,6.059,11.85,11.216,2.685,4.886,4.848,9.923,7.9,14.615,3.428,5.256,7.36,10.152,11.284,15.032a3.6,3.6,0,0,0,.445.459c.249-.365.036-1.7-.381-3.346l-.016-.069c-.681-2.659-1.86-6.1-2.41-7.575-.247-.655-.491-1.317-.735-1.979-3.728-10.113-7.2-20.437-14.316-28.676a35.5,35.5,0,0,0-4.188-4.194,19.6,19.6,0,0,0-3.113-2.142c-2.973-1.626-6.238-1.922-9.548-2.32C878.493,213.072,878.274,213.045,878.046,213.022Z" transform="translate(-857.788 -211.352)"/><path class="h" d="M892.571,217.969a23.323,23.323,0,0,0,.733,4.535,52.359,52.359,0,0,0,5.756,12.55,84.446,84.446,0,0,0,12.015,15.786c-3.728-10.113-7.2-20.437-14.316-28.676A35.5,35.5,0,0,0,892.571,217.969Z" transform="translate(-858.98 -211.758)"/></g><g transform="translate(67.88 100.851)"><path class="i" d="M922.169,324.428c8.2.743,16.632.569,23.922-3.714a35.609,35.609,0,0,0,8.949-7.66c2.185-2.542,3.85-5.682,6.347-7.929A11.8,11.8,0,0,1,963.3,303.7c3.491-2.068,7.144-2.97,10.164-5.847a35.993,35.993,0,0,0,6.119-8.264c4.021-6.938,7.716-16.089,16.377-18.123a1.34,1.34,0,0,0,.98-.9,1.451,1.451,0,0,0,.721-1.854,1.049,1.049,0,0,0-.971-.61c-5.757-.242-11.865-.474-17.295,1.8a17.72,17.72,0,0,0-1.955.965c-.42.23-.83.481-1.235.745a1.2,1.2,0,0,0-.593.3c-.173.159-.354.324-.534.483a62.7,62.7,0,0,0-5.709,4.9,34.277,34.277,0,0,1-10.826,6.114c-3.127.984-6.445.856-9.577,1.786a15.916,15.916,0,0,0-6.589,4.29c-2.287,2.244-4.736,4.657-6.111,7.6-1.383,2.963-1.227,6.229-1.784,9.382a20.83,20.83,0,0,1-10.261,14.3,21.772,21.772,0,0,1-2.359,1.17A1.308,1.308,0,0,0,922.169,324.428Z" transform="translate(-921.082 -267.954)"/><path class="k" d="M922.169,324.428c8.2.743,16.632.569,23.922-3.714a35.609,35.609,0,0,0,8.949-7.66c2.185-2.542,3.85-5.682,6.347-7.929A11.8,11.8,0,0,1,963.3,303.7c3.491-2.068,7.144-2.97,10.164-5.847a35.993,35.993,0,0,0,6.119-8.264c4.021-6.938,7.716-16.089,16.377-18.123a1.34,1.34,0,0,0,.98-.9,1.451,1.451,0,0,0,.721-1.854,1.049,1.049,0,0,0-.971-.61c-5.757-.242-11.865-.474-17.295,1.8a17.72,17.72,0,0,0-1.955.965c-2.063,2.191-3.492,4.82-5.626,7.145-2.927,3.2-6.383,5.81-9.12,9.193a30.154,30.154,0,0,0-5.769,11.228c-1.4,5.155-2.828,9.609-6.219,13.858-6.432,8.062-16.942,8.548-26.487,8.48a21.772,21.772,0,0,1-2.359,1.17A1.308,1.308,0,0,0,922.169,324.428Z" transform="translate(-921.082 -267.954)"/><path class="h" d="M964.991,305.192a11.8,11.8,0,0,1,1.908-1.425c3.491-2.068,7.144-2.97,10.164-5.847a35.993,35.993,0,0,0,6.119-8.264c4.021-6.938,7.716-16.089,16.377-18.123a1.34,1.34,0,0,0,.98-.9,1.451,1.451,0,0,0,.721-1.854c-5.007.067-10.19.314-14.816,2.425-4.514,2.067-7.77,5.686-10.312,9.871a105.565,105.565,0,0,0-7.537,15.563C967.439,299.529,966.353,302.429,964.991,305.192Z" transform="translate(-924.686 -268.022)"/></g><g transform="translate(74.65 74.452)"><path class="h" d="M929.962,299.855c5.735-.207,10.509-3.461,15.015-6.718.767-.548,1.5-1.121,2.224-1.7a40.433,40.433,0,0,0,8.439-9.164c.383-.576.748-1.162,1.1-1.769a57.49,57.49,0,0,0,6.407-17.889c.659-3.316.975-6.666,1.543-9.994.686-4.014,2.853-6.807,5.765-9.522a1.335,1.335,0,0,0,.4-.672c.185-.2.389-.385.57-.6a1.149,1.149,0,0,0,.224-.375,1.27,1.27,0,0,0,.472-.925.012.012,0,0,0,0-.019,1.289,1.289,0,0,0-.244-.737.3.3,0,0,0-.039-.051,1.335,1.335,0,0,0-1.8-.308c-.431.268-.841.558-1.262.846-.05.026-.1.044-.162.076a30.287,30.287,0,0,0-2.8,1.962,28.048,28.048,0,0,0-6.614,5.679,37.017,37.017,0,0,0-4.13,4.223,92.607,92.607,0,0,0-5.595,7.668c-1.55,2.329-3.041,4.7-4.526,7.03a125.493,125.493,0,0,0-8.383,15c-2.475,5.383-3.633,11.445-7.8,15.854C927.924,298.661,928.952,299.89,929.962,299.855Z" transform="translate(-928.458 -239.194)"/><path class="i" d="M948.708,288.881a2.645,2.645,0,0,0,.132,2.554,40.433,40.433,0,0,0,8.439-9.164c.383-.576.748-1.162,1.1-1.769a57.486,57.486,0,0,0,6.407-17.889c.659-3.316.975-6.666,1.543-9.994.686-4.014,2.853-6.807,5.765-9.522a1.336,1.336,0,0,0,.4-.672c.185-.2.389-.385.57-.6a1.149,1.149,0,0,0,.224-.375,1.269,1.269,0,0,0,.472-.925.012.012,0,0,0,0-.019,2.568,2.568,0,0,0-.244-.737.3.3,0,0,0-.039-.051,1.336,1.336,0,0,0-1.8-.308c-.431.268-.841.558-1.262.846-.05.026-.1.044-.162.076a30.287,30.287,0,0,0-2.8,1.962,28.047,28.047,0,0,0-6.614,5.679,37.018,37.018,0,0,0-4.13,4.223,92.579,92.579,0,0,0-5.595,7.668c-1.311,4.491-.873,8.735-.286,13.323A29.1,29.1,0,0,1,948.708,288.881Z" transform="translate(-930.099 -239.194)"/><path class="i" d="M956.1,271.057c.1,3.54,1.929,7.594,1.812,11.262.383-.576.748-1.162,1.1-1.769a57.487,57.487,0,0,0,6.407-17.889c.659-3.316.975-6.666,1.543-9.994.686-4.014,2.853-6.807,5.765-9.522a1.336,1.336,0,0,0,.4-.672c.185-.2.389-.385.57-.6a1.149,1.149,0,0,0,.224-.375,1.269,1.269,0,0,0,.472-.925.012.012,0,0,0,0-.019,1.289,1.289,0,0,0-.244-.737.3.3,0,0,0-.039-.051c-5.925,5.126-11.545,10.7-14.97,17.842A29.581,29.581,0,0,0,956.1,271.057Z" transform="translate(-930.726 -239.241)"/></g><path class="h" d="M890.908,371.872a38.887,38.887,0,0,0,6.18-5.9c1.84-2.363,2.477-4.876,3.317-7.686,1.579-5.282,4.929-10.038,7.381-14.955a193.064,193.064,0,0,0,12.574-32.1c1.755-6.023,3.534-12.283,3.809-18.585.206-4.722-.425-9.251.457-13.867-.792-3.075-4.506-6.228-6.667-7.81-2.318-1.7-4.617-3.24-6.369-5.559a1.3,1.3,0,0,1,2.078-1.563c2.42,3.2,6.185,4.8,8.95,7.64a25.122,25.122,0,0,1,2.992,3.593c1.593-5.052,3.784-9.88,4.949-15.09a69.691,69.691,0,0,0,1.529-19.035c-.112-2.079,3.112-2.508,3.226-.417a77.34,77.34,0,0,1-.208,11.458c2.724-2.45,5.449-5,6.223-8.663.344-1.628,2.923-1.278,2.576.363-1.159,5.481-5.546,8.531-9.291,12.252-.168,1.1-.354,2.2-.578,3.3-1.2,5.846-3.506,11.2-5.341,16.847-1.993,6.123-.9,12.028-1.387,18.281-.479,6.167-2.237,12.236-3.964,18.15a193.459,193.459,0,0,1-13.668,34.265c-1.471,2.858-3.139,5.621-4.57,8.5a53.112,53.112,0,0,0-2.555,7.326c-1.667,5.064-5.7,8.569-9.687,11.857C891.245,375.8,889.3,373.2,890.908,371.872Z" transform="translate(-850.677 -164.74)"/><g transform="translate(85.031)"><path class="i" d="M939.8,175.856c-.007.006,0,.006,0,.006a24.342,24.342,0,0,0,.087,3.709c.594,5.883,3.64,11.048,5.433,16.581a23.086,23.086,0,0,1,1.048,7.687,71.577,71.577,0,0,1-1.146,9.781c-.084.554-.169,1.106-.248,1.666-.049.341-.1.682-.139,1.024a105.6,105.6,0,0,0-.869,17.917c.147,4.032,1.848,6.17,5.424,3.353a24.08,24.08,0,0,0,3.168-2.994l.165-.193a23.777,23.777,0,0,0,1.825-2.369,27.7,27.7,0,0,0,3.081-5.915,33,33,0,0,0,1.577-16.7,48.205,48.205,0,0,0-4.985-14.96c-2.8-5.413-6.441-10.465-7.308-16.648-.842-5.99.2-12.048-1.3-17.974-.018-.055-.038-.1-.056-.159.007-.058.022-.115.029-.167.329-1.673-2.167-1.948-2.575-.363-.241.957-.442,1.915-.617,2.875C941.335,166.583,940.009,171.177,939.8,175.856Z" transform="translate(-939.768 -158.085)"/><path class="i" d="M939.8,175.856c-.007.006,0,.006,0,.006.329,5.017,2.29,9.261,5.056,13.533,3.093,4.784,7.638,8.315,10.563,13.181,1.3,2.167,2.655,4.453,3.789,6.833a48.205,48.205,0,0,0-4.985-14.96c-2.8-5.413-6.441-10.465-7.308-16.648-.842-5.99.2-12.048-1.3-17.974-.018-.055-.038-.1-.056-.159.007-.058.022-.115.029-.167.329-1.673-2.167-1.948-2.575-.363-.24.957-.442,1.915-.617,2.875C941.338,166.583,940.012,171.177,939.8,175.856Z" transform="translate(-939.77 -158.085)"/><path class="h" d="M945.285,220.314a.426.426,0,0,0-.078.087,105.609,105.609,0,0,0-.869,17.917c.147,4.032,1.848,6.17,5.424,3.353a24.083,24.083,0,0,0,3.168-2.994c.027-.147.054-.294.075-.442.028.083.055.165.09.249a23.777,23.777,0,0,0,1.825-2.369,51.36,51.36,0,0,1-1.938-5.855c-.794-3.166-.767-6.465-1.392-9.672a39.658,39.658,0,0,0-4.851-12.657,71.568,71.568,0,0,1-1.146,9.781c-.039.606-.092,1.209-.158,1.817Z" transform="translate(-940.137 -162.176)"/></g><g transform="translate(40.535 14.062)"><path class="h" d="M891.339,175.073a1.261,1.261,0,0,0,.707.809A61.149,61.149,0,0,1,908.318,187a24.935,24.935,0,0,1,5.717,8.11c1.165,2.817,2.043,5.706,3.369,8.461,1.549,3.214,3.165,6.325,4.6,9.515a58.888,58.888,0,0,1,2.859,7.51c.621,2.064,1.211,4.124,1.891,6.144a37.168,37.168,0,0,0,4.217,9.054,1.318,1.318,0,0,0,.214.253,1.82,1.82,0,0,0,.129.248,8.093,8.093,0,0,0,1.351,1.59,1.38,1.38,0,0,0,2.382-.077c7.1-13.806,5.7-29.554-1.586-42.981-1.536-2.844-3.194-5.836-5.574-8.058a12.264,12.264,0,0,0-2.807-1.932,51.249,51.249,0,0,0-6.81-2.552q-12.6-4.4-25.19-8.792A1.319,1.319,0,0,0,891.339,175.073Z" transform="translate(-891.293 -173.405)"/><path class="i" d="M891.339,175.073a1.261,1.261,0,0,0,.707.809A61.149,61.149,0,0,1,908.318,187a24.935,24.935,0,0,1,5.717,8.11c1.165,2.817,2.043,5.706,3.369,8.461,1.549,3.214,3.165,6.325,4.6,9.515a58.888,58.888,0,0,1,2.859,7.51c.621,2.064,1.211,4.124,1.891,6.144A30.9,30.9,0,0,1,930.7,213.4c2.064-3.6,4.247-6.683,3.232-11.022-.967-4.13-4.018-7.772-5.953-11.467q-1.567-2.989-2.9-6.077a51.249,51.249,0,0,0-6.81-2.552q-12.6-4.4-25.19-8.792A1.319,1.319,0,0,0,891.339,175.073Z" transform="translate(-891.293 -173.405)"/><path class="i" d="M891.343,175.222a1.261,1.261,0,0,0,.707.809,61.148,61.148,0,0,1,16.272,11.118,24.935,24.935,0,0,1,5.717,8.11c1.165,2.817,2.043,5.706,3.369,8.461,1.549,3.214,3.165,6.325,4.6,9.515a20.018,20.018,0,0,0,4.84-9.909c.746-5.187-1.571-9.8-5.237-13.322-4.215-4.049-9.89-6.788-15.129-9.21A106.389,106.389,0,0,0,891.343,175.222Z" transform="translate(-891.297 -173.554)"/></g><g transform="translate(0 65.32)"><path class="h" d="M847.141,238.536a1.379,1.379,0,0,0,1.787,1.2c12.566-4.208,25.227-.626,34.936,8.035a99.161,99.161,0,0,1,7.448,7.993c3.575,4.024,7.381,7.95,12.023,9.723a14.526,14.526,0,0,0,6.414.945,1.187,1.187,0,0,0,.762-.326c1.074-.217,1.777-.957,1.858-2.837a15.934,15.934,0,0,0-.945-5.623c-.55-1.687-1.255-3.343-1.866-4.92-2.825-7.242-6.536-14.582-12.98-19.262-6.339-4.592-13.424-4.647-20.792-3.8a.2.2,0,0,0-.061,0c-.654.073-1.309.157-1.964.241-8.831,1.157-17.371,4.7-25.819,7.425A1.091,1.091,0,0,0,847.141,238.536Z" transform="translate(-847.133 -229.246)"/><path class="i" d="M847.141,238.574a1.379,1.379,0,0,0,1.787,1.2c12.566-4.208,25.227-.626,34.936,8.035a99.166,99.166,0,0,1,7.448,7.993c3.575,4.024,7.381,7.95,12.023,9.723-2.916-2.7-5.925-5.381-6.286-9.569-.421-4.873.654-9.607-2.008-14.048-2.541-4.233-7.09-6.708-11.38-8.838a80.235,80.235,0,0,0-7.877-3.372.2.2,0,0,0-.061,0c-.654.073-1.309.157-1.964.241-8.831,1.157-17.371,4.7-25.819,7.425A1.091,1.091,0,0,0,847.141,238.574Z" transform="translate(-847.133 -229.283)"/><path class="i" d="M847.142,238.972a1.379,1.379,0,0,0,1.787,1.2c12.566-4.208,25.227-.626,34.936,8.035a99.161,99.161,0,0,1,7.448,7.993c-.219-1.982-.235-3.967-.567-5.938a17.743,17.743,0,0,0-8.551-11.939c-5.207-3.159-11.458-3.917-17.442-3.757C858.7,234.726,852.857,237.053,847.142,238.972Z" transform="translate(-847.134 -229.681)"/></g></g><g transform="translate(762.277 310.683)"><g transform="translate(0)"><rect class="e" width="107.702" height="227.915" rx="16.264" transform="translate(3.553 2.206) rotate(-0.251)"/><g transform="translate(0 27.424)"><rect class="l" width="10.913" height="22.389" rx="2.064" transform="translate(0 0.504) rotate(-0.251)"/><rect class="l" width="10.913" height="22.389" rx="2.064" transform="translate(0.115 26.873) rotate(-0.251)"/><rect class="l" width="10.913" height="22.389" rx="2.064" transform="translate(104.12 0.048) rotate(-0.251)"/></g><rect class="m" width="107.697" height="227.917" rx="16.264" transform="translate(3.739 2.204) rotate(-0.251)"/><path class="n" d="M897.781,557.121l-82.65.362a14.328,14.328,0,0,1-14.374-14.248l-.888-202.868a14.327,14.327,0,0,1,14.248-14.374l82.65-.362A14.327,14.327,0,0,1,911.14,339.88l.888,202.868A14.326,14.326,0,0,1,897.781,557.121ZM814.133,329.569a10.747,10.747,0,0,0-10.688,10.782l.889,202.868a10.745,10.745,0,0,0,10.781,10.687l82.65-.362a10.747,10.747,0,0,0,10.688-10.781L907.564,339.9a10.746,10.746,0,0,0-10.781-10.688Z" transform="translate(-798.046 -325.631)"/><path class="n" d="M874.972,337.859l-30.458.133a4.936,4.936,0,0,1-4.959-4.915h0a3.819,3.819,0,0,1,3.8-3.836l32.7-.142a3.819,3.819,0,0,1,3.835,3.8h0A4.938,4.938,0,0,1,874.972,337.859Z" transform="translate(-801.303 -325.915)"/><path class="n" d="M839.554,332.968l-.022-5.016,40.333-.177.021,4.814Z" transform="translate(-801.301 -325.807)"/><path class="l" d="M877.324,334.83h-.347a1.259,1.259,0,0,1-1.265-1.253h0a1.259,1.259,0,0,1,1.254-1.265l.347,0a1.261,1.261,0,0,1,1.265,1.254h0A1.26,1.26,0,0,1,877.324,334.83Z" transform="translate(-804.271 -326.179)"/><path class="l" d="M866.568,334.869l-20.139.088a1.26,1.26,0,0,1-1.265-1.254h0a1.26,1.26,0,0,1,1.254-1.264l20.139-.088a1.259,1.259,0,0,1,1.265,1.253h0A1.259,1.259,0,0,1,866.568,334.869Z" transform="translate(-801.763 -326.182)"/><g transform="translate(11.258 8.451)"><path class="n" d="M811.515,338.578l-.453,0-.012-2.88a2.362,2.362,0,0,1-.427.313,2.925,2.925,0,0,1-.475.235l0-.436a2.75,2.75,0,0,0,.661-.435,1.7,1.7,0,0,0,.4-.494l.291,0Z" transform="translate(-810.147 -334.841)"/><path class="n" d="M815.266,338.127l0,.434-2.432.011a.812.812,0,0,1,.05-.314,1.687,1.687,0,0,1,.3-.491,4.722,4.722,0,0,1,.589-.56,4.979,4.979,0,0,0,.808-.783.932.932,0,0,0,.208-.544.6.6,0,0,0-.195-.453.693.693,0,0,0-.5-.182.706.706,0,0,0-.521.2.735.735,0,0,0-.2.543l-.465-.046a1.141,1.141,0,0,1,.355-.793,1.224,1.224,0,0,1,.835-.277,1.166,1.166,0,0,1,.84.29.967.967,0,0,1,.312.727,1.1,1.1,0,0,1-.089.435,1.672,1.672,0,0,1-.3.451,7.488,7.488,0,0,1-.694.651c-.27.228-.443.384-.52.464a1.59,1.59,0,0,0-.19.246Z" transform="translate(-810.368 -334.84)"/><path class="n" d="M816.276,336.5l0-.515.514,0,0,.515Zm.009,2.152,0-.514.514,0,0,.514Z" transform="translate(-810.65 -334.931)"/><path class="n" d="M817.56,336.736a3.374,3.374,0,0,1,.129-1.051,1.309,1.309,0,0,1,.4-.615,1.015,1.015,0,0,1,.665-.219,1.075,1.075,0,0,1,.521.117.987.987,0,0,1,.371.342,1.844,1.844,0,0,1,.23.546,3.6,3.6,0,0,1,.087.869,3.38,3.38,0,0,1-.129,1.046,1.3,1.3,0,0,1-.4.618,1.122,1.122,0,0,1-1.505-.158A2.43,2.43,0,0,1,817.56,336.736Zm.464,0a2.308,2.308,0,0,0,.218,1.205.607.607,0,0,0,1.047-.006,3.537,3.537,0,0,0-.011-2.412.631.631,0,0,0-.53-.3.579.579,0,0,0-.5.266A2.328,2.328,0,0,0,818.024,336.735Z" transform="translate(-810.755 -334.838)"/><path class="n" d="M820.675,336.723a3.374,3.374,0,0,1,.129-1.051,1.318,1.318,0,0,1,.4-.616,1.024,1.024,0,0,1,.666-.219,1.088,1.088,0,0,1,.52.117.994.994,0,0,1,.371.342,1.851,1.851,0,0,1,.23.546,3.609,3.609,0,0,1,.086.869,3.4,3.4,0,0,1-.128,1.046,1.314,1.314,0,0,1-.4.617,1.028,1.028,0,0,1-.668.22,1.011,1.011,0,0,1-.837-.378A2.422,2.422,0,0,1,820.675,336.723Zm.464,0a2.318,2.318,0,0,0,.217,1.205.606.606,0,0,0,1.047-.005,3.537,3.537,0,0,0-.011-2.412.629.629,0,0,0-.529-.3.576.576,0,0,0-.5.266A2.324,2.324,0,0,0,821.139,336.721Z" transform="translate(-811.011 -334.837)"/></g><g transform="translate(90.819 8.024)"><rect class="n" width="1.603" height="3.817" transform="translate(0 0.027) rotate(-0.251)"/><rect class="n" width="1.603" height="3.817" transform="translate(2.244 0.017) rotate(-0.251)"/><rect class="n" width="1.603" height="3.817" transform="translate(4.488 0.007) rotate(-0.251)"/><rect class="n" width="0.757" height="1.802" transform="translate(6.778 1.005) rotate(-0.251)"/></g></g><g transform="translate(14.932 40.557)"><g transform="translate(0 0)"><ellipse class="g" cx="28.83" cy="29.828" rx="28.83" ry="29.828" transform="matrix(0.701, -0.713, 0.713, 0.701, 0, 41.117)"/><path class="e" d="M881.377,412.824a23.48,23.48,0,0,1-2.533,11.528A23.2,23.2,0,0,1,858,437.026a25.173,25.173,0,0,1-21.709-12.674,24.641,24.641,0,0,1-3.316-11.528,23.232,23.232,0,0,1,23.379-24.2A25.221,25.221,0,0,1,881.377,412.824Z" transform="translate(-815.693 -371.357)"/><path class="o" d="M879.142,426.971A23.2,23.2,0,0,1,858.3,439.644a25.173,25.173,0,0,1-21.709-12.674,37.125,37.125,0,0,1,21.058-6.447A39.232,39.232,0,0,1,879.142,426.971Z" transform="translate(-815.991 -373.976)"/><ellipse class="o" cx="10.599" cy="10.966" rx="10.599" ry="10.966" transform="matrix(0.701, -0.713, 0.713, 0.701, 25.95, 33.057)"/></g><path class="e" d="M891.761,477.929h-66.5l-.45-13.215h66.5Z" transform="translate(-815.024 -377.602)"/><path class="e" d="M892.637,503.661h-66.5l-.45-13.215h66.5Z" transform="translate(-815.096 -379.714)"/><path class="g" d="M869.141,492.423l-16.026,2.18a1.119,1.119,0,0,0-.968,1.326l2.1,10.739a1.285,1.285,0,0,0,1.423,1l16.026-2.179a1.116,1.116,0,0,0,.967-1.326l-2.1-10.739A1.289,1.289,0,0,0,869.141,492.423Zm-4.605,10.88-2.9.395-.292-3.466a2.044,2.044,0,0,1-1.192-1.465,1.826,1.826,0,0,1,1.582-2.17,2.1,2.1,0,0,1,2.322,1.639,1.785,1.785,0,0,1-.57,1.7Z" transform="translate(-817.266 -379.876)"/><path class="g" d="M867.617,491h0a1.139,1.139,0,0,1-1.263-.889l-.206-1.051a6.042,6.042,0,0,0-6.328-4.816,5.168,5.168,0,0,0-4.747,6.162l.236,1.207a.989.989,0,0,1-.857,1.178h0a1.14,1.14,0,0,1-1.263-.889l-.2-1.024a7.232,7.232,0,0,1,5.855-8.623,8.22,8.22,0,0,1,9.4,6.362l.237,1.207A.989.989,0,0,1,867.617,491Z" transform="translate(-817.325 -379.033)"/><path class="g" d="M882.768,524.232H839.479l-.293-8.6h43.289Z" transform="translate(-816.204 -381.781)"/><path class="g" d="M863.479,471.7a2.321,2.321,0,0,1-2.335,2.417,2.518,2.518,0,0,1-2.5-2.417,2.32,2.32,0,0,1,2.334-2.417A2.52,2.52,0,0,1,863.479,471.7Z" transform="translate(-817.801 -377.977)"/><path class="g" d="M852.143,471.7a2.32,2.32,0,0,1-2.334,2.417,2.519,2.519,0,0,1-2.5-2.417,2.32,2.32,0,0,1,2.334-2.417A2.519,2.519,0,0,1,852.143,471.7Z" transform="translate(-816.871 -377.977)"/><path class="g" d="M840.807,471.7a2.32,2.32,0,0,1-2.334,2.417,2.519,2.519,0,0,1-2.5-2.417,2.32,2.32,0,0,1,2.335-2.417A2.518,2.518,0,0,1,840.807,471.7Z" transform="translate(-815.94 -377.977)"/><path class="g" d="M874.815,471.7a2.321,2.321,0,0,1-2.335,2.417,2.52,2.52,0,0,1-2.5-2.417,2.321,2.321,0,0,1,2.335-2.417A2.52,2.52,0,0,1,874.815,471.7Z" transform="translate(-818.732 -377.977)"/></g></g><g transform="translate(400.276 375.997)"><g transform="translate(0 40.49)"><path class="p" d="M506.8,559.088s-67.981-47.218-96.738-19.992c-22.961,21.739,17.8,47.279,69.938,40.412,36.7-4.834,40.861,2.187,47.289,2.035,47.837-3.665,112.292-17.977,80.924-40.462-42.731-30.63-71.635,1.842-86.524,9.926Z" transform="translate(-403.516 -448.059)"/><path class="q" d="M595.691,540.263c-17.867-3.687-85.935,21.554-85.935,21.554S450.481,543.95,436.3,542.248s-20.7,3.687-20.7,3.687,6.691-7.54,14.464-8.225,19-2.553,19-2.553,113.445-5.388,128.476-1.985S595.691,540.263,595.691,540.263Z" transform="translate(-404.507 -448.376)"/><path class="g" d="M509.75,440.9a37.076,37.076,0,0,0-14.857,3.1c-12.885,5.633-36.883,17.475-37.272,23.258-.514,7.657,11.481,69.778,34.678,77.86a69.315,69.315,0,0,0,21.491,3.578A37.072,37.072,0,0,0,549.4,523.856c7.31-20.851,16.3-50.65,11.192-58.713-5.956-9.4-27.389-18.116-38.256-22.049a36.972,36.972,0,0,0-12.586-2.2Z" transform="translate(-407.955 -440.895)"/><path class="g" d="M469.352,456.374c-40.034,21.452-49.866,60.184-39.278,68.721,7.419,5.982,35.394,19.214,59.641,18.363a395.565,395.565,0,0,1,47.021,1.432s41.6-8.463,49.892-20.929S571.908,471,551.27,459.3,469.352,456.374,469.352,456.374Z" transform="translate(-405.37 -441.906)"/><path class="r" d="M555.384,480.8c11.345,6.05,21.231,28.977,21.231,28.977s-25.526,3.971-30.819,7.942.756-1.514,3.781-12.479S555.384,480.8,555.384,480.8Z" transform="translate(-415.021 -444.17)"/><path class="r" d="M468.072,479c2.647,12.1,15.315,45.883,15.315,45.883s-11.733-13.363-24.2-14.12-17.1-.945-17.017,2.08c.015.6,2.079-13.425,11.722-22.122S468.072,479,468.072,479Z" transform="translate(-406.688 -444.022)"/><path class="f" d="M536.432,584.76s9.358-7.052,21.694-5.776,22.972,3.966,12.337,7.3a78.182,78.182,0,0,1-26.8,3.335A9.261,9.261,0,0,1,536.432,584.76Z" transform="translate(-414.424 -452.216)"/></g><path class="s" d="M430.053,532.727s-31.524,8.753-19.645,25.415c9.547,13.39,49.224,12,70.152,11.458" transform="translate(-403.862 -407.942)"/><path class="t" d="M418.307,545.578s23.008-1.114,40.973,7.965,50.957,12.846,50.957,12.846" transform="translate(-404.73 -408.993)"/><path class="u" d="M545.861,556.573h-68.5a5.648,5.648,0,0,1-5.572-4.716l-8.26-49.3a5.65,5.65,0,0,1,5.573-6.583h85.02a5.65,5.65,0,0,1,5.573,6.583l-8.26,49.3A5.648,5.648,0,0,1,545.861,556.573Z" transform="translate(-408.435 -404.926)"/><path class="v" d="M545.861,556.769h-68.5a5.593,5.593,0,0,1-5.572-4.546l-8.26-47.517a5.512,5.512,0,0,1,5.573-6.346h85.02a5.512,5.512,0,0,1,5.573,6.346l-8.26,47.517A5.593,5.593,0,0,1,545.861,556.769Z" transform="translate(-408.435 -405.122)"/><path class="t" d="M417.181,573.224c8.816,4.014,22.418,7.7,41.234,6.06,36.939-3.219,49.114,4.548,49.114,4.548" transform="translate(-404.637 -411.266)"/><path class="f" d="M520.813,582.617c-.41-.07-44.241-11.04-54.026-2.958s32.755,8.22,40.413,6.449S520.813,582.617,520.813,582.617Z" transform="translate(-408.589 -411.551)"/><path class="w" d="M568.385,562.565s35.728-5.071,46.449-14.778" transform="translate(-417.047 -409.178)"/><path class="w" d="M569.585,568.586s33.9-1.594,50.563-12.749" transform="translate(-417.145 -409.839)"/><path class="w" d="M578.764,554.259s4.759,8.692,4.613,18.544" transform="translate(-417.899 -409.709)"/><path class="w" d="M588.841,553.469s2.9,5.216,3.332,16.951" transform="translate(-418.726 -409.645)"/><g transform="translate(88.117)"><path class="x" d="M510.623,432.385s.847,9.453-4.983,14.68,13.437,0,13.437,0-3.585-9.054-2.78-14.68S510.623,432.385,510.623,432.385Z" transform="translate(-499.924 -399.502)"/><ellipse class="y" cx="10.194" cy="13.908" rx="10.194" ry="13.908" transform="translate(3.581 8.733)"/><g transform="translate(3.46 3.878)"><path class="p" d="M517.495,411.79s-17.648,9.784-12.41-5.925C508.708,395,529.529,404.787,517.495,411.79Z" transform="translate(-503.349 -401.009)"/><path class="p" d="M514.867,408.1s9.874,5.858,8.921,11.736c0,0,2.177-17.547-7.64-17.988s-13.618.506-12.747,19.061C503.4,420.909,506.254,406.15,514.867,408.1Z" transform="translate(-503.28 -401.072)"/></g><path class="p" d="M516.267,401.553s-.5-5.467-5.916-4.692-7.743,3.871-8.517,6.968-1.549,5.419-2.323,5.419c0,0,2.323,2.323,3.1,1.549,0,0-2.009,5.569.544,10.14,0,0,1-7.043,4.876-7.817S516.267,401.553,516.267,401.553Z" transform="translate(-499.511 -396.785)"/><path class="p" d="M517.225,401.884s3.871-2.323,7.743,3.1l2.322,4.646s-.774.775-2.322,0c0,0,.7,5.456-.035,8.535l-2.288-9.309Z" transform="translate(-500.965 -397.163)"/></g><path class="g" d="M506.485,443.3s3.043,5.506,7.678,4.2a35.979,35.979,0,0,0,5.941-2s6.809,9.1,3.621,10.548-26.222,4.2-27.382-.869,9.852-11.445,9.852-11.445" transform="translate(-411.127 -400.603)"/><path class="w" d="M439.967,543.554s-15.627,15.278-5.271,34.288" transform="translate(-405.784 -408.831)"/><path class="w" d="M450.165,545.7s-11.876,20.364-4.909,35.07" transform="translate(-406.761 -409.007)"/><path class="q" d="M521.766,565.358l24.962,7.239s7.935,3.6,6.773.5-7.528-4.256-11.6-5.611S521.766,565.358,521.766,565.358Z" transform="translate(-413.221 -410.62)"/></g></g></svg>