<svg xmlns="http://www.w3.org/2000/svg" width="177.19" height="412.615" viewBox="0 0 177.19 412.615"><defs><style>.a{fill:#d8a35d;}.b{fill:#62548a;}.c{fill:#ffc84f;}.d{opacity:0.3;}.e{opacity:0.5;}.f{fill:none;stroke:#947dce;stroke-miterlimit:10;stroke-width:0.792px;}.g{fill:#947dce;}.h{fill:#d19442;}.i{fill:#999;}.j{fill:#ccc;}.k{fill:gray;}.l{opacity:0.15;}</style></defs><g transform="translate(-1088.018 -270.807)"><path class="a" d="M1195.714,567.989s-.221,101.29,4.137,102.625c7.824,2.445,38.268,9.988,5.576,10.76-16.587,2.552-15.716-1.24-16.276-4.331-.457-2.526-8.593-92.4-9.949-99.317-.3-1.551-.488-2.487-.488-2.487Z"/><path class="a" d="M1135.139,567.7s-6.461,100.705-10.834,101.994c-7.849,2.362-38.374,9.581-5.692,10.7,16.558,2.727,15.728-1.073,16.322-4.158.485-2.521,4.441-21.625,5.872-28.531.321-1.547,11.979-79.621,11.979-79.621Z"/><path class="b" d="M1137.026,669.963c.349-1.427-10.106-2.379-11.413-1.326s-22.567,3.121-22.808,9.259,29.108,4.35,31.183,4.421S1136.34,672.768,1137.026,669.963Z"/><path class="c" d="M1124.2,455.94a6.522,6.522,0,0,0,3.745,1.511c8.632-.206,45.908-1.19,66.064-3.21,7.11-.714,12.089-1.555,12.926-2.542a.606.606,0,0,1,0,.081c0,1.1-.083,13.709-.246,30.237-.323,32.627,5.162,79.1,9.776,93.077,1,3.017-45.49.394-45.49.394-1.624-33.586-1.016-92.7-3.221-95.251-2.682-3.105-4.49,48.945-7.278,92.555-18.117,5.511-47.266,3.9-47.013,2.036C1116.47,552.644,1124.2,455.94,1124.2,455.94Z"/><g class="d"><path d="M1158.683,456.446l-.417-.016S1158.413,456.434,1158.683,456.446Z"/><path class="e" d="M1158.683,456.446c11.139.393,35.331-2.205,35.331-2.205,7.11-.714,12.089-1.555,12.926-2.542a.606.606,0,0,1,0,.081c0,1.1-.083,13.709-.246,30.237a8.41,8.41,0,0,1-1.173-.083,9.1,9.1,0,0,1-6.057-3.863,19.818,19.818,0,0,1-2.494-4.608C1188,458.287,1162.253,456.607,1158.683,456.446Z"/></g><line class="f" x1="6.358" y2="121.745" transform="translate(1125.905 454.795)"/><line class="f" x1="6.364" y2="119.63" transform="translate(1137.672 456.715)"/><line class="f" x1="4.436" y2="118.712" transform="translate(1151 456.221)"/><line class="f" x2="1.34" y2="24.492" transform="translate(1166.417 455.745)"/><line class="f" x2="3.119" y2="120.787" transform="translate(1178.606 455.218)"/><line class="f" x2="4.788" y2="121.729" transform="translate(1189.091 454.688)"/><line class="f" x2="7.819" y2="122.298" transform="translate(1199.399 454.241)"/><path class="f" d="M1123.177,468.621s66.318.216,83.667-3.623"/><path class="f" d="M1167.757,480.237c-22.926,6.177-45.45-1.043-45.45-1.043"/><path class="f" d="M1167.438,478.7s21.155,4.888,39.293-.8"/><path class="f" d="M1121.564,488.128s17.071,7.9,43.981,2.329"/><path class="f" d="M1120.669,498.769s26.316,6.7,44.044,1.9"/><path class="f" d="M1119.767,509.34s13.68,9.656,44.14,3.739"/><path class="f" d="M1118.711,521.5a65.211,65.211,0,0,0,44.626,1.379"/><path class="f" d="M1117.721,532.642s14.728,9.383,44.947,2.254"/><path class="f" d="M1116.676,544.064s20.166,9.313,45.488-.013"/><path class="f" d="M1115.83,552.98s12.121,10.532,45.784.878"/><path class="f" d="M1114.816,563.1s19.241,8.959,46.228.549"/><path class="f" d="M1168.88,489.727s9.047,6.734,38.385.174"/><path class="f" d="M1169.586,500.421s12.5,5.1,37.427-.434"/><path class="f" d="M1169.517,512.326s19.167,4.8,37.972-1.644"/><path class="f" d="M1169.683,522.189s18.748,7.269,38.61-1.672"/><path class="f" d="M1169.855,533.019s17.777,5.3,39.427-1.708"/><path class="f" d="M1170.035,543.419s15.047,5.892,40.4-1.75"/><path class="f" d="M1170.444,552.61s17.917,8.148,41.333-.842"/><path class="f" d="M1170.533,564.117a82.146,82.146,0,0,0,43.035-1.373"/><path class="b" d="M1187.723,668.326c-.333-1.431,12.354-.762,13.65.3s19.977,4.252,20.151,10.393-29.154,4.041-31.23,4.09S1188.379,671.138,1187.723,668.326Z"/><path class="g" d="M1117.5,460.794c6.2,8.491,54.8,15.778,80.085,11.037a39.73,39.73,0,0,0,8.333-2.393c2.4-1.041,4.721-3.752,6.936-7.744,16.86-30.4,27.3-135.06,15.136-141.019-13.755-6.744-38.62.771-38.62.771l-9.239,11.81-44.581,26.263s-10.338,37.885-15.874,67.494c-.409,2.183-.79,4.322-1.14,6.393C1116.253,446.976,1115.341,457.832,1117.5,460.794Z"/><path class="h" d="M1186.095,307.793c.006.942-1.638,10.776-.66,13.231s6.624,4.254,6.237,4.665-8.022,8.187-15.115,6.2-3.075-6.2-3.075-6.2a14.368,14.368,0,0,0,3.651-11.212C1176.413,307.523,1186.095,307.793,1186.095,307.793Z"/><path class="g" d="M1099.558,453.116c20.979,3.057,65.794-17.873,65.794-17.873l-4.276-11.794s-26.475,1.21-30.767,1.916c0,0,12.935-10.584,17.075-24.694,3.047-10.379,39.819-54.785,50.862-74.143,3.969-6.96-8.872-5.082-8.872-5.082s-2.9,7.592-7.88,8.5a5.6,5.6,0,0,1-2.793-.215c-6.676-2.194-6.941-4.965-6.941-4.965a129.387,129.387,0,0,0-16.691,2.714c-8.66,1.965-19.2,5.251-27.859,10.641-18.114,11.29-30.77,46.395-32.894,58.709S1078.583,450.058,1099.558,453.116Z"/><path class="i" d="M1187.369,376.34,1184,444.949a7.311,7.311,0,0,1-7.686,6.886l-47.466-2.272a2.256,2.256,0,0,1-.335-.032,7.255,7.255,0,0,1-6.636-7.552l3.367-68.608a7.3,7.3,0,0,1,7.687-6.878l45.265,2.16,2.2.1A7.275,7.275,0,0,1,1187.369,376.34Z"/><path class="j" d="M1184.833,376.2l-3.367,68.609a7.3,7.3,0,0,1-7.687,6.877l-45.264-2.159a7.255,7.255,0,0,1-6.636-7.552l3.367-68.608a7.3,7.3,0,0,1,7.687-6.878l45.265,2.16A7.254,7.254,0,0,1,1184.833,376.2Z"/><ellipse class="k" cx="5.668" cy="5.591" rx="5.668" ry="5.591" transform="translate(1147.274 404.117)"/><ellipse class="a" cx="12.131" cy="16.329" rx="12.131" ry="16.329" transform="translate(1169.024 281.686) rotate(-2.516)"/><path class="c" d="M1176.907,288.292s21.472,10.609,14.46-7.561C1186.516,268.159,1162.247,280.669,1176.907,288.292Z"/><path class="c" d="M1179.762,283.763s-11.448,7.359-10.022,14.206c0,0-3.465-20.476,8.187-21.476s16.218-.077,16.108,21.732C1194.035,298.225,1189.907,281.052,1179.762,283.763Z"/><path class="c" d="M1177.424,276.648s.317-6.438,6.8-5.8,9.4,4.16,10.474,7.755,2.112,6.281,3.033,6.243c0,0-2.646,2.839-3.6,1.969,0,0,2.667,6.433-.141,11.921,0,0-1.546-8.212-6.188-8.929S1177.424,276.648,1177.424,276.648Z"/><path class="c" d="M1178.011,276.568s-4.719-2.534-9.052,4.014l-2.53,5.564s.959.87,2.762-.114c0,0-.567,6.434.467,10.009l2.256-11.032Z"/><path class="l" d="M1118.54,433.406a58.417,58.417,0,0,0,3.516,4.93c.012.015-.1,1.8-.087,1.811,2.431,3.068,5.154,5,10.242,9.56.047.042,1.411.059,1.458.1q.8.715,1.648,1.457c15.78,13.813,44.652,18.7,62.272,20.566a39.73,39.73,0,0,0,8.333-2.393c2.4-1.041,4.721-3.752,6.936-7.744l-93.178-34.681-3.16-1.177S1114.849,427.591,1118.54,433.406Z"/><path class="l" d="M1215.838,338.8s-16.388,18.821-26.513,37.881c-.761,1.432-5.017,12.074-5.026,12.1-6.564,22.567-9.81,56.268-9.81,56.268l15.663-37.322Z"/><path class="a" d="M1114.191,428.875c3.845.527,13.8,3.871,13.8,3.871l1.981-6.061s-4.728-2.9-6.035-4.467-2.01-2.9-3.091-3.727a14.886,14.886,0,0,0-3.918-1.521l-.321.411-.318.407-.1-.009a10.427,10.427,0,0,1-1.526-.2,5.445,5.445,0,0,0-1.682,1.133,2.731,2.731,0,0,0-.474.533,4.461,4.461,0,0,1-1.422,1.164c-.159.1-.289.173-.359.223a7.058,7.058,0,0,0-.534.492c-.643.634-1.641,1.685-1.956,2.058a21.052,21.052,0,0,0-2.041,1.986,2.246,2.246,0,0,0-.226.4C1105.568,426.51,1110.347,428.348,1114.191,428.875Z"/><path class="g" d="M1198.724,361.937c0-1.008,8.576-47.387,26.934-42.423s30.753,9.2,37.905,44.707-7.736,104.839-69.994,100.276-55.344-23.278-70.863-31.558l2.993-11.707s2.693,4.554,10.565,2.7,30.518-7.64,44.1-5.219c0,0,11.072-8.346,10.184-12.957s5.415-36.829,11.323-44.589S1198.724,361.937,1198.724,361.937Z"/><path class="l" d="M1116.182,417.779a.476.476,0,0,0,.111.1c.334.2,2.4.9,2.617.963s-.753-.546-1.02-.568a6,6,0,0,1-1.285-.9l-.318.407Z"/><path class="a" d="M1172.919,418.735a8.172,8.172,0,0,1,2.7.565c1.119.742,1.746,1.88,3.086,2.043.376.045,2.429.305,2.2-.482a3.161,3.161,0,0,0-1.237-1.645s.027,0,.082.006c.13.006.424.027.855.078a26.912,26.912,0,0,1,3.909.8c2.94.814,6.649-1.68,6.855-1.943s-.245-.643-1.648-.993c-.019-.006-.034-.008-.052-.014-1.442-.356-4.428-.661-4.428-.661s5.459-.1,8.547-.1a5.019,5.019,0,0,0,.682-.045h.012a5.4,5.4,0,0,0,3.361-1.883.419.419,0,0,0-.311-.69c-.948-.032-2.548-.106-3.744-.258a43.792,43.792,0,0,0-7.055.517c-.373.048-.6.081-.6.081s-1.312-.063,3.064-1.994,4.08-7.884,4.08-7.884a.736.736,0,0,0-.388-.081c-.491.015-1.41.392-2.6,2.472-1.8,3.152-5.206,4.12-5.627,5.137s-3.649,2.912-3.649,2.912-1.755.75-2.682,1.022c-.661.195-.8,1.116-.825,1.624-.006.149,0,.266,0,.314v.027a9.4,9.4,0,0,1-1.806-.712C1174.859,416.487,1172.92,418.735,1172.919,418.735Z"/><path class="l" d="M1186.736,414.026c-.373.048-.6.081-.6.081s-1.312-.063,3.064-1.994,4.08-7.884,4.08-7.884a.736.736,0,0,0-.388-.081,2.729,2.729,0,0,1,.063,1.169c-.166.708-1.86,5.089-3.467,6.09s-4.015,2.377-4.312,2.586S1186.008,414.265,1186.736,414.026Z"/><path class="l" d="M1179.165,415.572a2.753,2.753,0,0,1,1.488.215,19.23,19.23,0,0,0,3.425.792c.466.117,3.691.41,5.646.583-.019-.006-.034-.008-.052-.014-1.442-.356-4.428-.661-4.428-.661s5.459-.1,8.547-.1a5.019,5.019,0,0,0,.682-.045c-2.925-.065-7.453-.188-8.2-.218-1.1-.042-3.173.332-3.891,0a6.658,6.658,0,0,0-2.707-.709A1.633,1.633,0,0,1,1179.165,415.572Z"/><path class="l" d="M1177.507,417.629l2.246,1.593c.13.006.424.027.855.078a2.21,2.21,0,0,0-.716-1.091,7.89,7.89,0,0,0-2.385-.894C1177.5,417.464,1177.5,417.581,1177.507,417.629Z"/><path class="l" d="M1155.069,327.476c1.983,1.8,4.549,3.521,6.946,3.3,4.859-.457,8.326.913,12.474,3.194,2.71,1.491,5.522-1.58,7.005-4.025a5.6,5.6,0,0,1-2.793-.215c-6.676-2.194-6.941-4.965-6.941-4.965A129.387,129.387,0,0,0,1155.069,327.476Z"/></g></svg>