<svg xmlns="http://www.w3.org/2000/svg" width="435" height="296.99" viewBox="0 0 435 296.99"><defs><style>.a{opacity:0.49;}.b{fill:#bec9f2;}.c{fill:#a1b4c9;}.d{fill:#e3f9ff;}.e{fill:#bbc9d0;}.f{fill:#717179;}.g{fill:#fff;}.h{fill:#bdd4ed;}.i{fill:#fafbe1;}.j{fill:#5781bf;}.k{fill:#8a7cc7;}.l{fill:#f0c659;}</style></defs><g transform="translate(-811.806 -383.945)"><g transform="translate(811.806 383.945)"><g class="a" transform="translate(0 72.605)"><path class="b" d="M1082.735,629.3c-38.511,5.224-53.429,55.044-144.64,53.894-18.2-.229-35.384-10.507-49.6-21.881-7.2-5.761-13.74-14.1-12.627-23.249,1.739-14.311,19.836-20.25,26.752-32.9,1.387-2.536,2.308-5.505,1.628-8.315-1.178-4.872-6.452-7.377-11.135-9.166q-21.562-8.24-43.611-15.125c-12.184-3.8-25.51-8.047-32.414-18.784-3.689-5.738-5.031-12.7-5.251-19.52-.486-15.089,4.245-30.142,12.392-42.851,6.806-10.617,16.115-19.8,27.406-25.414,23.946-11.914,52.445-6.484,78.706-1.41,43.5,8.4,87.5,15.118,131.794,15.694,51.39.667,105.393-6.472,152.1,14.974,12.239,5.62,25.784,13.194,29.673,26.087C1266.276,595.487,1153.983,619.637,1082.735,629.3Z" transform="translate(-811.806 -458.828)"/></g><g transform="translate(109.586)"><g transform="translate(20.276 82.42)"><g transform="translate(0.007 6.235)"><path class="c" d="M1126.8,503.758l-74.272-28.163a4.632,4.632,0,0,0-4.086.682l-97.165,80.5-5.529-1.764.85,6.413a1.507,1.507,0,0,0,.972,1.115l74.553,31.985a4.658,4.658,0,0,0,4.156-.57l105.3-86.08a1.416,1.416,0,0,0,.692-1.347l-1.2-6.534-4.815.757Z" transform="translate(-945.751 -475.382)"/></g><path class="d" d="M1051.506,469.148a4.757,4.757,0,0,0-4.077.687L946.411,553.591a1.329,1.329,0,0,0,.325,2.441l74.4,31.726a4.411,4.411,0,0,0,4.149-.577l105.1-86c1.092-.837.889-1.936-.454-2.472Z" transform="translate(-945.743 -468.951)"/><g transform="translate(105.943 8.571)"><path class="e" d="M1055.011,481.781l5.85,2.22,4.823-3.984-5.847-2.226Z" transform="translate(-1055.011 -477.791)"/></g><g transform="translate(96.892 16.091)"><path class="e" d="M1045.676,489.507l5.815,2.259,4.835-4-5.843-2.217Z" transform="translate(-1045.676 -485.547)"/></g><g transform="translate(114.364 11.82)"><path class="e" d="M1063.7,485.123l5.888,2.234,4.843-4-5.881-2.22Z" transform="translate(-1063.697 -481.143)"/></g><g transform="translate(114.266 14.509)"><path class="e" d="M1063.6,494.017l5.89,2.247,12.227-10.07-5.947-2.278Z" transform="translate(-1063.595 -483.916)"/></g><g transform="translate(121.529 17.296)"><path class="e" d="M1071.086,496.91l5.9,2.252,12.267-10.073-5.947-2.3Z" transform="translate(-1071.086 -486.79)"/></g><g transform="translate(128.947 20.14)"><path class="e" d="M1078.737,499.818l5.942,2.314L1097,492.01l-5.99-2.286Z" transform="translate(-1078.737 -489.724)"/></g><g transform="translate(90.866 21.072)"><path class="e" d="M1039.461,494.66l5.8,2.236,4.821-3.963-5.817-2.248Z" transform="translate(-1039.461 -490.685)"/></g><g transform="translate(84.847 26.076)"><path class="e" d="M1033.253,499.8l5.793,2.274,4.8-3.985-5.783-2.24Z" transform="translate(-1033.253 -495.845)"/></g><g transform="translate(78.838 31.031)"><path class="e" d="M1027.055,504.895l5.772,2.3,4.794-3.993-5.771-2.241Z" transform="translate(-1027.055 -500.957)"/></g><g transform="translate(107.082 17.839)"><path class="e" d="M1056.185,491.329l5.857,2.268,4.825-4.007-5.854-2.24Z" transform="translate(-1056.185 -487.35)"/></g><g transform="translate(101.048 22.839)"><path class="e" d="M1049.963,496.5l5.825,2.27,4.82-3.992-5.841-2.269Z" transform="translate(-1049.963 -492.507)"/></g><g transform="translate(94.967 27.856)"><path class="e" d="M1043.691,501.643l5.83,2.3,4.843-4.011-5.851-2.246Z" transform="translate(-1043.691 -497.681)"/></g><g transform="translate(88.941 32.84)"><path class="e" d="M1037.476,506.786l5.8,2.3,4.836-4-5.835-2.266Z" transform="translate(-1037.476 -502.822)"/></g><g transform="translate(82.907 37.815)"><path class="e" d="M1031.252,511.934l5.8,2.274,4.823-3.959-5.808-2.3Z" transform="translate(-1031.252 -507.953)"/></g><g transform="translate(76.914 42.821)"><path class="e" d="M1025.072,517.085l5.75,2.271,4.812-3.935-5.784-2.3Z" transform="translate(-1025.072 -513.116)"/></g><g transform="translate(70.881 47.761)"><path class="e" d="M1018.849,522.167l5.752,2.318,4.8-3.97-5.765-2.3Z" transform="translate(-1018.849 -518.211)"/></g><g transform="translate(64.895 52.736)"><path class="e" d="M1012.675,527.285l5.708,2.318,4.807-3.953-5.76-2.308Z" transform="translate(-1012.675 -523.342)"/></g><g transform="translate(59.062 57.571)"><path class="e" d="M1006.659,532.261l5.733,2.3,4.791-3.929-5.729-2.306Z" transform="translate(-1006.659 -528.329)"/></g><g transform="translate(53.084 62.515)"><path class="e" d="M1000.493,537.348l5.7,2.309,4.785-3.917-5.711-2.312Z" transform="translate(-1000.493 -533.428)"/></g><g transform="translate(47.092 67.462)"><path class="e" d="M994.313,542.456l5.7,2.344,4.787-3.941-5.708-2.329Z" transform="translate(-994.313 -538.53)"/></g><g transform="translate(41.118 72.41)"><path class="e" d="M988.152,547.543l5.684,2.345,4.788-3.93-5.7-2.324Z" transform="translate(-988.152 -543.634)"/></g><g transform="translate(35.164 77.313)"><path class="e" d="M982.011,552.606l5.654,2.349,4.769-3.915-5.667-2.349Z" transform="translate(-982.011 -548.691)"/></g><g transform="translate(29.213 82.215)"><path class="e" d="M975.873,557.67l5.638,2.371,4.755-3.922-5.646-2.372Z" transform="translate(-975.873 -553.747)"/></g><g transform="translate(115.416 28.416)"><path class="e" d="M1064.782,502.239l5.911,2.308,4.858-4.028-5.905-2.259Z" transform="translate(-1064.782 -498.259)"/></g><g transform="translate(109.318 33.431)"><path class="e" d="M1058.492,507.4l5.893,2.311,4.872-4.019-5.906-2.259Z" transform="translate(-1058.492 -503.431)"/></g><g transform="translate(103.258 38.453)"><path class="e" d="M1052.242,512.572l5.867,2.312,4.841-4-5.862-2.273Z" transform="translate(-1052.242 -508.611)"/></g><g transform="translate(97.176 43.451)"><path class="e" d="M1045.969,517.759l5.855,2.317,4.854-3.994-5.87-2.316Z" transform="translate(-1045.969 -513.766)"/></g><g transform="translate(91.125 48.457)"><path class="e" d="M1039.729,522.918l5.819,2.291,4.846-3.95-5.846-2.33Z" transform="translate(-1039.729 -518.93)"/></g><g transform="translate(85.062 53.46)"><path class="e" d="M1033.475,528.064l5.817,2.312,4.831-3.957-5.821-2.33Z" transform="translate(-1033.475 -524.089)"/></g><g transform="translate(79.019 58.412)"><path class="e" d="M1027.242,533.193l5.8,2.341,4.828-3.973-5.815-2.365Z" transform="translate(-1027.242 -529.196)"/></g><g transform="translate(73.188 63.256)"><path class="e" d="M1021.228,538.171l5.764,2.34,4.817-3.953-5.79-2.366Z" transform="translate(-1021.228 -534.193)"/></g><g transform="translate(67.152 68.255)"><path class="e" d="M1015,543.309l5.759,2.341,4.831-3.944-5.789-2.359Z" transform="translate(-1015.002 -539.348)"/></g><g transform="translate(61.12 73.221)"><path class="e" d="M1008.781,548.413l5.756,2.4,4.81-3.991-5.764-2.355Z" transform="translate(-1008.781 -544.47)"/></g><g transform="translate(55.11 78.171)"><path class="e" d="M1002.583,553.514l5.741,2.385,4.788-3.956-5.728-2.367Z" transform="translate(-1002.583 -549.576)"/></g><g transform="translate(49.117 83.131)"><path class="e" d="M996.4,558.622l5.7,2.4,4.807-3.954-5.736-2.373Z" transform="translate(-996.402 -554.692)"/></g><g transform="translate(43.12 88.103)"><path class="e" d="M990.217,563.731l5.691,2.426,4.785-3.967-5.7-2.371Z" transform="translate(-990.217 -559.819)"/></g><g transform="translate(122.837 31.274)"><path class="e" d="M1072.436,505.186l5.923,2.318,4.87-4.031-5.93-2.266Z" transform="translate(-1072.436 -501.206)"/></g><g transform="translate(116.72 36.315)"><path class="e" d="M1066.126,510.383l5.924,2.314,4.871-4.016L1071,506.406Z" transform="translate(-1066.126 -506.406)"/></g><g transform="translate(110.614 41.332)"><path class="e" d="M1059.829,515.588l5.906,2.32,4.885-4.01-5.927-2.318Z" transform="translate(-1059.829 -511.58)"/></g><g transform="translate(104.54 46.355)"><path class="e" d="M1053.564,520.766l5.876,2.294,4.858-3.963-5.884-2.335Z" transform="translate(-1053.564 -516.761)"/></g><g transform="translate(98.44 51.378)"><path class="e" d="M1047.273,525.932l5.866,2.316,4.869-3.974-5.885-2.332Z" transform="translate(-1047.273 -521.942)"/></g><g transform="translate(92.374 56.35)"><path class="e" d="M1041.016,531.079l5.839,2.347,4.852-3.988-5.864-2.369Z" transform="translate(-1041.016 -527.07)"/></g><g transform="translate(86.3 61.383)"><path class="e" d="M1034.752,536.25l5.837,2.368,4.837-3.995-5.838-2.363Z" transform="translate(-1034.752 -532.261)"/></g><g transform="translate(80.44 66.227)"><path class="e" d="M1028.708,541.234l5.814,2.344,4.829-3.955-5.813-2.366Z" transform="translate(-1028.708 -537.257)"/></g><g transform="translate(74.398 71.213)"><path class="e" d="M1022.476,546.354l5.786,2.41,4.821-4-5.8-2.361Z" transform="translate(-1022.476 -542.399)"/></g><g transform="translate(68.345 76.183)"><path class="e" d="M1016.233,551.477l5.778,2.39,4.837-3.975-5.8-2.367Z" transform="translate(-1016.233 -547.525)"/></g><g transform="translate(62.303 81.16)"><path class="e" d="M1010,556.606l5.766,2.4,4.825-3.968-5.779-2.378Z" transform="translate(-1010.001 -552.658)"/></g><g transform="translate(56.283 86.149)"><path class="e" d="M1003.792,561.733l5.759,2.427,4.8-3.98-5.74-2.377Z" transform="translate(-1003.792 -557.804)"/></g><g transform="translate(44.265 91.081)"><path class="e" d="M991.4,571.8l5.7,2.388,10.845-8.88-5.754-2.416Z" transform="translate(-991.398 -562.891)"/></g><g transform="translate(142.483 22.974)"><path class="e" d="M1092.7,497.693l5.984,2.3,6.2-5.08-6.018-2.269Z" transform="translate(-1092.698 -492.646)"/></g><g transform="translate(130.183 34.119)"><path class="e" d="M1080.012,508.146l5.979,2.34,4.878-4.052-5.958-2.293Z" transform="translate(-1080.012 -504.141)"/></g><g transform="translate(136.317 29.059)"><path class="e" d="M1086.338,502.926l5.99,2.335,4.9-4.063-5.989-2.275Z" transform="translate(-1086.338 -498.922)"/></g><g transform="translate(87.638 39.177)"><path class="e" d="M1036.132,543.318l5.836,2.372,41.429-34.039-5.96-2.293Z" transform="translate(-1036.132 -509.358)"/></g><g transform="translate(81.54 74.111)"><path class="e" d="M1029.843,549.387l5.868,2.4,4.827-4-5.824-2.4Z" transform="translate(-1029.843 -545.388)"/></g><g transform="translate(75.5 79.129)"><path class="e" d="M1023.613,554.532l5.814,2.43,4.844-4.01-5.829-2.389Z" transform="translate(-1023.613 -550.563)"/></g><g transform="translate(69.43 84.125)"><path class="e" d="M1017.352,559.674l5.806,2.418,4.847-3.985-5.816-2.39Z" transform="translate(-1017.352 -555.716)"/></g><g transform="translate(63.39 89.12)"><path class="e" d="M1011.122,564.82l5.78,2.411,4.849-3.964-5.806-2.4Z" transform="translate(-1011.122 -560.869)"/></g><g transform="translate(51.322 94.055)"><path class="e" d="M998.676,574.9l5.738,2.427,10.883-8.946-5.784-2.419Z" transform="translate(-998.676 -565.959)"/></g><g transform="translate(23.28 87.185)"><path class="e" d="M969.754,562.76l5.61,2.389,4.754-3.925-5.632-2.353Z" transform="translate(-969.754 -558.872)"/></g><g transform="translate(108.2 25.604)"><path class="e" d="M1057.34,499.364l5.862,2.271,4.858-3.994-5.892-2.282Z" transform="translate(-1057.34 -495.359)"/></g><g transform="translate(102.133 30.634)"><path class="e" d="M1051.082,504.495l5.858,2.326,4.844-4.035-5.866-2.238Z" transform="translate(-1051.082 -500.547)"/></g><g transform="translate(96.079 35.654)"><path class="e" d="M1044.838,509.688l5.839,2.322L1055.51,508l-5.846-2.271Z" transform="translate(-1044.838 -505.724)"/></g><g transform="translate(90.033 40.64)"><path class="e" d="M1038.6,514.827l5.825,2.314,4.836-3.995-5.835-2.28Z" transform="translate(-1038.602 -510.867)"/></g><g transform="translate(83.974 45.621)"><path class="e" d="M1032.353,519.952l5.811,2.344,4.838-4.011L1037.173,516Z" transform="translate(-1032.353 -516.004)"/></g><g transform="translate(77.943 50.618)"><path class="e" d="M1026.133,525.111l5.8,2.336,4.828-3.988-5.807-2.3Z" transform="translate(-1026.133 -521.158)"/></g><g transform="translate(71.928 55.573)"><path class="e" d="M1019.929,530.224l5.758,2.334,4.823-3.969-5.791-2.321Z" transform="translate(-1019.929 -526.269)"/></g><g transform="translate(66.098 60.409)"><path class="e" d="M1013.916,535.2l5.75,2.359,4.8-3.979-5.76-2.321Z" transform="translate(-1013.916 -531.257)"/></g><g transform="translate(60.096 65.365)"><path class="e" d="M1007.725,540.321l5.736,2.341,4.793-3.945-5.739-2.349Z" transform="translate(-1007.725 -536.368)"/></g><g transform="translate(54.098 70.314)"><path class="e" d="M1001.539,545.411l5.708,2.365,4.8-3.956-5.74-2.348Z" transform="translate(-1001.539 -541.472)"/></g><g transform="translate(48.109 75.255)"><path class="e" d="M995.362,550.5l5.688,2.4,4.78-3.975-5.71-2.359Z" transform="translate(-995.362 -546.568)"/></g><g transform="translate(42.109 80.219)"><path class="e" d="M989.173,555.628l5.709,2.352,4.768-3.915-5.681-2.377Z" transform="translate(-989.173 -551.688)"/></g><g transform="translate(30.035 85.091)"><path class="e" d="M987.422,556.713l-10.7,8.849,12.747,5.43,4.8-3.941-7.144-3.019,5.991-4.949Z" transform="translate(-976.721 -556.713)"/></g><g transform="translate(69.855 38.483)"><path class="e" d="M1017.79,512.608l5.716,2.291,4.807-3.965-5.771-2.292Z" transform="translate(-1017.79 -508.642)"/></g><g transform="translate(63.855 43.45)"><path class="e" d="M1011.6,517.707l5.734,2.306,4.786-3.967-5.737-2.281Z" transform="translate(-1011.603 -513.765)"/></g><g transform="translate(57.894 48.414)"><path class="e" d="M1005.454,522.819l5.679,2.291,4.8-3.935-5.734-2.29Z" transform="translate(-1005.454 -518.884)"/></g><g transform="translate(51.923 53.369)"><path class="e" d="M999.3,527.9l5.674,2.332,4.773-3.961-5.7-2.275Z" transform="translate(-999.296 -523.995)"/></g><g transform="translate(42.974 60.768)"><path class="e" d="M990.066,535.558l5.66,2.331,4.765-3.939-5.68-2.322Z" transform="translate(-990.066 -531.627)"/></g><g transform="translate(37.034 65.672)"><path class="e" d="M983.939,540.639l5.637,2.348,4.745-3.939-5.655-2.363Z" transform="translate(-983.939 -536.685)"/></g><g transform="translate(31.098 70.597)"><path class="e" d="M977.817,545.694l5.608,2.359,4.751-3.935-5.647-2.354Z" transform="translate(-977.817 -541.763)"/></g><g transform="translate(25.142 75.534)"><path class="e" d="M971.674,550.767l5.627,2.349,4.714-3.911-5.6-2.348Z" transform="translate(-971.674 -546.856)"/></g><g transform="translate(15.224 80.474)"><path class="e" d="M961.445,559.142l5.584,2.353,8.7-7.188-5.6-2.355Z" transform="translate(-961.445 -551.951)"/></g><g transform="translate(92.777 53.827)"><path class="e" d="M1041.432,550.48l18.037,7.384,31.946-26.153-18.336-7.243Z" transform="translate(-1041.432 -524.468)"/></g></g><path class="c" d="M1031.471,384.022a1.535,1.535,0,0,0-1.515.368L926.348,465.416a4.6,4.6,0,0,0-1.471,3.959l14.546,83.458a1.415,1.415,0,0,0,.821,1.227h0c.007.039.039.034.039.034l3.726,1.354.13-3.789,100.621-84.1a4.59,4.59,0,0,0,1.452-3.945l-13.372-74.944.749.423,1.7-3.66-3.816-1.408Z" transform="translate(-924.831 -383.945)"/><g transform="translate(3.786 1.358)"><path class="e" d="M1033.846,385.814,930.238,466.843a4.648,4.648,0,0,0-1.454,3.966l14.547,83.471a1.293,1.293,0,0,0,2.293.843l103.028-86.14a4.616,4.616,0,0,0,1.476-3.966l-13.995-78.363C1035.9,385.329,1034.9,384.94,1033.846,385.814Z" transform="translate(-928.736 -385.346)"/></g><g transform="translate(20.914 10.061)"><path class="f" d="M1042.3,459.3l-95.9,80.158.352,2.021,97.576-81.562-11.743-65.6L1030.9,395.7Z" transform="translate(-946.401 -394.322)"/></g><g transform="translate(8.899 11.442)"><path class="g" d="M946.024,539.5l95.9-80.158-11.395-63.6-96.517,75.048Z" transform="translate(-934.009 -395.746)"/></g></g><g transform="translate(87.829 223.345)"><path class="h" d="M902.391,636.132,941.1,614.3l64.881,21.059v7.9L966.5,669.579l-64.107-26.014,1.239-1.626-.155-4.568Z" transform="translate(-902.391 -614.299)"/><g transform="translate(1.084 23.072)"><path class="i" d="M903.509,638.1l62.249,25.24,39.022-25.24v4.568L966.532,668.29l-62.868-25.627Z" transform="translate(-903.509 -638.095)"/></g><g transform="translate(15.794 32.402)"><path class="j" d="M926.981,647.718s-8.067,3.832-8.3,12.89l15.252,5.807s1.317-10.3,9.076-12.2Z" transform="translate(-918.681 -647.718)"/></g></g><g transform="translate(190.329 88.625)"><rect class="k" width="0.238" height="0.839" transform="matrix(0.981, -0.194, 0.194, 0.981, 0, 0.046)"/></g></g><g transform="translate(930.29 395.386)"><path class="l" d="M934.009,470.793l96.517-75.048.924,5.159-96.179,77.107Z" transform="translate(-934.009 -395.746)"/></g><g transform="translate(962.793 459.1)"><path class="l" d="M967.531,480.747l1.259,7.585,24.458-19.608-1.658-7.264Z" transform="translate(-967.531 -461.459)"/></g><g transform="translate(991.067 462.331)"><path class="l" d="M996.693,484.079l1.259,7.585,24.458-19.608-1.658-7.265Z" transform="translate(-996.693 -464.791)"/></g><g transform="translate(1010.083 415.575)"><path class="l" d="M1016.305,432.875l1.234,7.434,20.481-16.072-1.374-7.669Z" transform="translate(-1016.305 -416.568)"/></g></g></svg>