<svg xmlns="http://www.w3.org/2000/svg" width="90.129" height="108.604" viewBox="0 0 90.129 108.604"><defs><style>.a{fill:#f0c659;}.b{fill:#585757;}.c{fill:#393838;}.d{fill:#c69939;}.e{fill:none;stroke:#fff;stroke-miterlimit:10;stroke-width:0.882px;}</style></defs><g transform="translate(0 0)"><path class="a" d="M1059.163,355.486a1.622,1.622,0,0,1-1.622,1.622h0a1.622,1.622,0,0,1-1.622-1.622v-7.5a1.622,1.622,0,0,1,1.622-1.622h0a1.622,1.622,0,0,1,1.622,1.622Z" transform="translate(-1012.477 -346.364)"/><path class="a" d="M1017.914,395.793a1.622,1.622,0,0,1,1.621,1.621h0a1.622,1.622,0,0,1-1.621,1.622h-7.5a1.623,1.623,0,0,1-1.623-1.622h0a1.622,1.622,0,0,1,1.623-1.621Z" transform="translate(-1008.791 -350.23)"/><path class="a" d="M1021.489,376.381a1.62,1.62,0,0,1,.473,2.245h0a1.624,1.624,0,0,1-2.245.474l-6.284-4.095a1.624,1.624,0,0,1-.473-2.245h0a1.622,1.622,0,0,1,2.245-.473Z" transform="translate(-1009.096 -348.371)"/><path class="a" d="M1092.719,376.381a1.621,1.621,0,0,0-.473,2.245h0a1.624,1.624,0,0,0,2.245.474l6.284-4.095a1.624,1.624,0,0,0,.474-2.245h0a1.623,1.623,0,0,0-2.245-.473Z" transform="translate(-1015.297 -348.371)"/><path class="a" d="M1038.6,358.774a1.621,1.621,0,0,1,0,2.294h0a1.623,1.623,0,0,1-2.294,0l-5.3-5.3a1.623,1.623,0,0,1,0-2.294h0a1.623,1.623,0,0,1,2.294,0Z" transform="translate(-1010.491 -346.883)"/><path class="a" d="M1078.226,361.068a1.622,1.622,0,0,1-2.294,0h0a1.623,1.623,0,0,1,0-2.294l5.3-5.3a1.622,1.622,0,0,1,2.3,0h0a1.623,1.623,0,0,1,0,2.294Z" transform="translate(-1014.005 -346.883)"/><path class="a" d="M1104.03,395.793a1.624,1.624,0,0,1,1.624,1.621h0a1.624,1.624,0,0,1-1.624,1.622h-7.5a1.623,1.623,0,0,1-1.622-1.622h0a1.623,1.623,0,0,1,1.622-1.621Z" transform="translate(-1015.526 -350.23)"/></g><g transform="translate(14.214 13.838)"><path class="b" d="M1046.388,442.382l1.13,10.993,19.958-1.513,1-10.976Z" transform="translate(-1025.945 -367.594)"/><path class="c" d="M1069.426,442.586a.947.947,0,0,1-.88,1.008l-22.186,1.5a.945.945,0,0,1-1.008-.878h0a.947.947,0,0,1,.88-1.008l22.186-1.5a.946.946,0,0,1,1.008.88Z" transform="translate(-1025.864 -367.658)"/><path class="a" d="M1055.71,361.376a31.5,31.5,0,0,0-14.681,59.365,30.475,30.475,0,0,1,3.624,15.423l22.085-1.5.032,0a30.175,30.175,0,0,1,3.619-13.927,31.5,31.5,0,0,0-14.681-59.365Z" transform="translate(-1024.211 -361.376)"/><path class="c" d="M1069.426,445.138a.946.946,0,0,1-.88,1.008l-22.186,1.5a.944.944,0,0,1-1.008-.879h0a.947.947,0,0,1,.88-1.008l22.186-1.5a.947.947,0,0,1,1.008.879Z" transform="translate(-1025.864 -367.858)"/><path class="c" d="M1069.426,447.806a.946.946,0,0,1-.88,1.008l-22.186,1.5a.944.944,0,0,1-1.008-.879h0a.947.947,0,0,1,.88-1.008l22.186-1.5a.947.947,0,0,1,1.008.879Z" transform="translate(-1025.864 -368.066)"/><path class="c" d="M1069.426,450.475a.947.947,0,0,1-.88,1.008l-22.186,1.5a.944.944,0,0,1-1.008-.879h0a.946.946,0,0,1,.88-1.007l22.186-1.5a.947.947,0,0,1,1.008.88Z" transform="translate(-1025.864 -368.275)"/><path class="c" d="M1067.572,452.793l-19.959,1.513,3.594,5.676h1.188a4.73,4.73,0,0,0,9.023,0h1.328Z" transform="translate(-1026.041 -368.525)"/><path class="d" d="M1056.847,361.376a31.583,31.583,0,0,0-6.734.729,22.473,22.473,0,0,1,4.558.677,24.166,24.166,0,0,1,15.593,13.2c6.046,12.783,3.242,31.406-9.475,39.228-6.428,3.954-14.4,4.871-22.033,3.443a31.636,31.636,0,0,0,3.41,2.09,30.475,30.475,0,0,1,3.624,15.423l22.085-1.5.032,0a30.175,30.175,0,0,1,3.619-13.927,31.5,31.5,0,0,0-14.681-59.365Z" transform="translate(-1025.349 -361.376)"/><path class="e" d="M1051.493,438.577l-3.191-29.311c-.267-2.29-.688-9.365-4.155-9.405-3.257-.037-3.447,4.539-.374,5.448,1.2.355,3.042-.779,3.841-.491,1.486.536,3.44-1.059,3.9-2.614.609-2.052-1.339-3.206-1.877-.8-.965,4.315,6.431,3.728,5.49.1-.172-.667-.912-1.608-1.564-1.176-.971.644-.648,2.652.014,3.343a3.014,3.014,0,0,0,3.5.37c1.054-.6,2.161-2.642.772-3.523-1.534-.973-2.5,3.418.4,3.744,1.3.146,4.832-.948,3.476-2.894s-2.009.882-1.166,1.973a3.675,3.675,0,0,0,3.727.884,2.367,2.367,0,0,0,1.44-2.941,1.285,1.285,0,0,0-2.175-.376c-.814.973.087,2.562.935,3.211a3.944,3.944,0,0,0,1.872.791c1.579.16,3.038.4,4.5-.469,3.634-2.166,1.137-6.374-2-3.611-4.009,3.53-3.478,11.468-4.2,16.311l-1.854,21.04" transform="translate(-1025.57 -364.386)"/></g></svg>