<svg xmlns="http://www.w3.org/2000/svg" width="342" height="236.3" viewBox="0 0 342 236.3"><defs><style>.a{fill:#a3add0;}.b,.e{fill:#caa267;}.b,.c,.r,.s{fill-rule:evenodd;}.c{fill:#b8945b;}.d{fill:#c2934e;}.f,.r{fill:#8a7cc7;}.g{opacity:0.15;}.h,.s{fill:#eec459;}.i{fill:#e2a353;}.j{fill:#b38343;}.k{fill:#b15328;}.l{fill:#e7e7e7;}.m{fill:#8c929e;}.n{fill:#3f3f3f;}.o{fill:#cccdd2;}.p{fill:#fff;}.q{fill:#a5a5a5;}</style></defs><g transform="translate(-2731.809 -5435.747)"><g transform="translate(2731.809 5435.747)"><path class="a" d="M2886.807,5484.638a.635.635,0,1,0,.635-.635A.635.635,0,0,0,2886.807,5484.638Z" transform="translate(-2788.4 -5453.366)"/><path class="a" d="M2888.064,5496.159a.963.963,0,0,0-.407-.889.5.5,0,0,0-.527,0,.966.966,0,0,0-.406.889.673.673,0,0,0,1.34,0Z" transform="translate(-2788.367 -5457.452)"/><path class="a" d="M2902.727,5495.7a.572.572,0,1,0,.57-.57A.572.572,0,0,0,2902.727,5495.7Z" transform="translate(-2794.212 -5457.426)"/><path class="a" d="M2810.2,5578.127a.625.625,0,1,0,.625-.625A.625.625,0,0,0,2810.2,5578.127Z" transform="translate(-2760.43 -5487.502)"/><path class="a" d="M2822.417,5518.318a.635.635,0,1,0,.635-.635A.635.635,0,0,0,2822.417,5518.318Z" transform="translate(-2764.89 -5465.663)"/><path class="a" d="M2811.174,5589.659a.963.963,0,0,0-.406-.889.5.5,0,0,0-.527,0,.966.966,0,0,0-.407.889.673.673,0,0,0,1.34,0Z" transform="translate(-2760.295 -5491.589)"/><path class="a" d="M2813.284,5532.589a.961.961,0,0,0-.406-.889.5.5,0,0,0-.527,0,.964.964,0,0,0-.406.889.673.673,0,0,0,1.339,0Z" transform="translate(-2761.065 -5470.752)"/><path class="a" d="M2825.856,5589.008a.562.562,0,1,0,.561-.56A.564.564,0,0,0,2825.856,5589.008Z" transform="translate(-2766.146 -5491.499)"/><path class="a" d="M2829.317,5526.716a.571.571,0,1,0,.57-.569A.571.571,0,0,0,2829.317,5526.716Z" transform="translate(-2767.41 -5468.752)"/><path class="a" d="M2731.9,5468.718a.635.635,0,1,0,.635-.635A.635.635,0,0,0,2731.9,5468.718Z" transform="translate(-2731.841 -5447.553)"/><path class="a" d="M2733.154,5480.239a.965.965,0,0,0-.406-.89.5.5,0,0,0-.527,0,.967.967,0,0,0-.406.89.673.673,0,0,0,1.34,0Z" transform="translate(-2731.809 -5451.639)"/><path class="a" d="M2747.807,5479.776a.571.571,0,1,0,.57-.57A.571.571,0,0,0,2747.807,5479.776Z" transform="translate(-2737.65 -5451.614)"/><path class="a" d="M3239.812,5496.658a.635.635,0,1,0,.635-.635A.635.635,0,0,0,3239.812,5496.658Z" transform="translate(-2917.284 -5457.754)"/><path class="a" d="M3241.069,5508.179a.964.964,0,0,0-.406-.889.5.5,0,0,0-.527,0,.966.966,0,0,0-.406.889.673.673,0,0,0,1.34,0Z" transform="translate(-2917.251 -5461.841)"/><path class="a" d="M3255.732,5507.716a.571.571,0,1,0,.569-.569A.571.571,0,0,0,3255.732,5507.716Z" transform="translate(-2923.096 -5461.815)"/><path class="a" d="M3163.205,5590.147a.625.625,0,1,0,.625-.625A.625.625,0,0,0,3163.205,5590.147Z" transform="translate(-2889.314 -5491.891)"/><path class="a" d="M3175.422,5530.338a.635.635,0,1,0,.635-.635A.635.635,0,0,0,3175.422,5530.338Z" transform="translate(-2893.775 -5470.05)"/><path class="a" d="M3164.179,5601.679a.966.966,0,0,0-.406-.889.5.5,0,0,0-.527,0,.964.964,0,0,0-.406.889.673.673,0,0,0,1.339,0Z" transform="translate(-2889.178 -5495.978)"/><path class="a" d="M3166.289,5544.609a.965.965,0,0,0-.406-.889.5.5,0,0,0-.527,0,.965.965,0,0,0-.406.889.673.673,0,0,0,1.339,0Z" transform="translate(-2889.949 -5475.141)"/><path class="a" d="M3178.861,5601.028a.562.562,0,1,0,.56-.56A.562.562,0,0,0,3178.861,5601.028Z" transform="translate(-2895.03 -5495.887)"/><path class="a" d="M3182.322,5538.736a.571.571,0,1,0,.569-.57A.57.57,0,0,0,3182.322,5538.736Z" transform="translate(-2896.294 -5473.141)"/><path class="a" d="M3084.9,5480.738a.635.635,0,1,0,.635-.635A.636.636,0,0,0,3084.9,5480.738Z" transform="translate(-2860.725 -5451.942)"/><path class="a" d="M3086.159,5492.259a.966.966,0,0,0-.406-.889.5.5,0,0,0-.527,0,.966.966,0,0,0-.406.889.673.673,0,0,0,1.34,0Z" transform="translate(-2860.693 -5456.028)"/><path class="a" d="M3100.812,5491.8a.571.571,0,1,0,.57-.569A.571.571,0,0,0,3100.812,5491.8Z" transform="translate(-2866.534 -5456.002)"/><path class="a" d="M2934.541,5654.321a.635.635,0,1,0,.635-.635A.635.635,0,0,0,2934.541,5654.321Z" transform="translate(-2805.828 -5515.317)"/><path class="a" d="M2935.8,5665.842a.966.966,0,0,0-.407-.889.5.5,0,0,0-.527,0,.966.966,0,0,0-.406.889.673.673,0,0,0,1.34,0Z" transform="translate(-2805.795 -5519.403)"/><path class="a" d="M2950.461,5665.378a.571.571,0,1,0,.57-.569A.571.571,0,0,0,2950.461,5665.378Z" transform="translate(-2811.64 -5519.379)"/><path class="a" d="M2857.934,5747.811a.625.625,0,1,0,.625-.625A.624.624,0,0,0,2857.934,5747.811Z" transform="translate(-2777.858 -5549.455)"/><path class="a" d="M2870.151,5688a.635.635,0,1,0,.635-.635A.635.635,0,0,0,2870.151,5688Z" transform="translate(-2782.318 -5527.614)"/><path class="a" d="M2858.908,5759.342a.966.966,0,0,0-.406-.889.5.5,0,0,0-.527,0,.966.966,0,0,0-.406.889.673.673,0,0,0,1.339,0Z" transform="translate(-2777.722 -5553.542)"/><path class="a" d="M2861.018,5702.271a.964.964,0,0,0-.406-.889.5.5,0,0,0-.527,0,.966.966,0,0,0-.406.889.673.673,0,0,0,1.34,0Z" transform="translate(-2778.493 -5532.705)"/><path class="a" d="M2873.59,5758.691a.562.562,0,1,0,.56-.561A.562.562,0,0,0,2873.59,5758.691Z" transform="translate(-2783.574 -5553.451)"/><path class="a" d="M2877.051,5696.4a.571.571,0,1,0,.569-.569A.571.571,0,0,0,2877.051,5696.4Z" transform="translate(-2784.838 -5530.704)"/><path class="a" d="M2779.631,5638.4a.635.635,0,1,0,.635-.635A.635.635,0,0,0,2779.631,5638.4Z" transform="translate(-2749.269 -5509.505)"/><path class="a" d="M2780.888,5649.921a.966.966,0,0,0-.406-.889.5.5,0,0,0-.527,0,.966.966,0,0,0-.406.889.673.673,0,0,0,1.34,0Z" transform="translate(-2749.237 -5513.591)"/><path class="a" d="M2795.541,5649.458a.571.571,0,1,0,.569-.569A.571.571,0,0,0,2795.541,5649.458Z" transform="translate(-2755.078 -5513.567)"/><path class="a" d="M3252.761,5701.285a.635.635,0,1,0,.635-.635A.635.635,0,0,0,3252.761,5701.285Z" transform="translate(-2922.011 -5532.464)"/><path class="a" d="M3254.018,5712.806a.966.966,0,0,0-.407-.889.5.5,0,0,0-.527,0,.966.966,0,0,0-.406.889.673.673,0,0,0,1.34,0Z" transform="translate(-2921.979 -5536.551)"/><path class="a" d="M3268.681,5712.342a.571.571,0,1,0,.569-.569A.57.57,0,0,0,3268.681,5712.342Z" transform="translate(-2927.824 -5536.525)"/><path class="a" d="M3176.154,5794.774a.625.625,0,1,0,.625-.625A.625.625,0,0,0,3176.154,5794.774Z" transform="translate(-2894.042 -5566.602)"/><path class="a" d="M3188.371,5734.965a.635.635,0,1,0,.635-.635A.635.635,0,0,0,3188.371,5734.965Z" transform="translate(-2898.502 -5544.761)"/><path class="a" d="M3177.128,5806.306a.964.964,0,0,0-.406-.889.5.5,0,0,0-.527,0,.965.965,0,0,0-.406.889.673.673,0,0,0,1.34,0Z" transform="translate(-2893.906 -5570.688)"/><path class="a" d="M3179.238,5749.236a.966.966,0,0,0-.406-.889.5.5,0,0,0-.527,0,.965.965,0,0,0-.406.889.673.673,0,0,0,1.34,0Z" transform="translate(-2894.677 -5549.852)"/><path class="a" d="M3191.81,5805.655a.562.562,0,1,0,.56-.56A.562.562,0,0,0,3191.81,5805.655Z" transform="translate(-2899.758 -5570.598)"/><path class="a" d="M3195.271,5743.362a.571.571,0,1,0,.57-.569A.57.57,0,0,0,3195.271,5743.362Z" transform="translate(-2901.021 -5547.851)"/><path class="a" d="M3097.851,5685.365a.635.635,0,1,0,.635-.635A.635.635,0,0,0,3097.851,5685.365Z" transform="translate(-2865.453 -5526.652)"/><path class="a" d="M3099.108,5696.886a.966.966,0,0,0-.406-.889.5.5,0,0,0-.527,0,.966.966,0,0,0-.406.889.673.673,0,0,0,1.34,0Z" transform="translate(-2865.421 -5530.739)"/><path class="a" d="M3113.761,5696.422a.571.571,0,1,0,.569-.569A.57.57,0,0,0,3113.761,5696.422Z" transform="translate(-2871.262 -5530.713)"/><g transform="translate(2.868)"><g transform="translate(63.004 19.387)"><path class="b" d="M2850.012,5493.259c-.215-.734-.874-9.58-2.9-13.237s-5.377-8.913-6.1-11.023c-.847-2.483-2.764-4.84-1.249.543a51.123,51.123,0,0,0,2.227,6.509c.22.354-.209-.249-1.376-3.022-1.241-2.948-1.674,1.217-.919,2.628,0,0,.211.152-.724-1.91-.794-1.75-2.923-1.138-1.143,2.432-.031.063-1.45-2.669-1.885-2.192-1.057,1.159.286,4.3,1.535,6.278,2.438,3.85,5.993,7.508,6.958,10.814Z" transform="translate(-2835.562 -5466.282)"/><path class="b" d="M2852.524,5485.638s.708-4.178-.09-6.029c-.943-2.186-1.344-1.775-3.4-2.9-1.169-.722-1.432.547,1.386,2.312.5,1.624-1.375,2.093-1.294,3.22s.861,4.13,1.572,4.527S2852.524,5485.638,2852.524,5485.638Z" transform="translate(-2840.177 -5470.014)"/><path class="c" d="M2849.1,5483.874s-1.755,2.554-1.8,4.4S2845.686,5482.827,2849.1,5483.874Z" transform="translate(-2839.704 -5472.667)"/></g><g transform="translate(68.819)"><path class="d" d="M3025.121,5485.689s-.84,9.375,4.943,14.559-13.326,0-13.326,0,3.556-8.979,2.759-14.559S3025.121,5485.689,3025.121,5485.689Z" transform="translate(-2907.524 -5453.076)"/><ellipse class="e" cx="10.11" cy="13.793" rx="10.11" ry="13.793" transform="translate(104.437 8.662)"/><path class="f" d="M2895.468,5551.331c15.3-32.013,42.618-46.618,60.057-50.5,7.548-1.682,13.246-1.352,15.326.445a11.3,11.3,0,0,0,7.057,2.741,15.27,15.27,0,0,0,3.962-.36,19.736,19.736,0,0,0,4.2-1.428c.645-.3,1.021-.514,1.021-.514a40.985,40.985,0,0,1,10.673.637c39.454,7.725,46.319,73.878,45.965,79.568-.215,3.387-3.716,18.729-8.093,32.367-3.586,11.2-7.771,21.247-11.211,22.637-7.632,3.072-65.262,7.287-77.111,1.635-.276-.207-.576-.43-.86-.675-4.446-3.616-9.268-10.758-11.825-17.446,0-.008-6.811-19.2-8.2-23.113-.015-.038-.022-.069-.038-.1-.046-.154-.1-.3-.154-.437-.016-.054-.038-.1-.054-.154" transform="translate(-2863.249 -5459.11)"/><path class="g" d="M2943.85,5644.243c.015.054.039.1.054.154.054.137.107.283.154.437.015.03.023.062.038.1,1.39,3.909,8.2,23.105,8.2,23.114,2.557,6.688,7.379,13.83,11.825,17.446-3.018-10.927-12.424-42.6-12.064-55.364C2950.262,5642.43,2943.85,5644.235,2943.85,5644.243Z" transform="translate(-2880.913 -5506.717)"/><path class="g" d="M3087.239,5580.28s-19.1,57.011,33.889,81.223l1.077.716-.274-13.41s-24.968-34.84-25.062-35.737S3087.239,5580.28,3087.239,5580.28Z" transform="translate(-2932.041 -5488.517)"/><path class="g" d="M3013.113,5506.287c.031.914-.453,1.513-1.92,1.313-4.576-.622-9.744-.491-13.5,1.229a3.189,3.189,0,0,1-3.087-.131c-2.4-1.405-3.893-5.6-4.485-7.456a1.284,1.284,0,0,1-.061-.407c7.548-1.682,13.246-1.352,15.326.445a11.3,11.3,0,0,0,7.057,2.741A6.226,6.226,0,0,1,3013.113,5506.287Z" transform="translate(-2897.785 -5459.11)"/><g transform="translate(102.099)"><g transform="translate(2.134 3.846)"><path class="h" d="M3017.041,5452.5s17.5,9.7,12.307-5.876C3025.754,5435.841,3005.1,5445.551,3017.041,5452.5Z" transform="translate(-3010.527 -5441.805)"/><path class="h" d="M3017.946,5449.176s-9.793,5.81-8.848,11.639c0,0-2.159-17.4,7.578-17.84s13.506.5,12.642,18.9C3029.317,5461.879,3026.488,5447.24,3017.946,5449.176Z" transform="translate(-3008.894 -5442.205)"/></g><path class="h" d="M3020.481,5440.475s.492-5.422,5.867-4.654,7.679,3.84,8.446,6.912,1.536,5.375,2.3,5.375c0,0-2.3,2.3-3.072,1.536,0,0,1.993,5.522-.539,10.057,0,0-1-6.985-4.836-7.753S3020.481,5440.475,3020.481,5440.475Z" transform="translate(-3010.99 -5435.747)"/><path class="h" d="M3015.516,5442.839s-3.839-2.3-7.679,3.071l-2.3,4.607s.768.768,2.3,0c0,0-.7,5.411.034,8.465l2.27-9.232Z" transform="translate(-3005.533 -5438.157)"/></g><path class="g" d="M3072.545,5673.895s-9.878-20.716-60.522,14.892,47.531-8.735,47.531-8.735Z" transform="translate(-2900.505 -5520.508)"/><path class="f" d="M2907.9,5595.713s-46.742,19.83-58.083-22.936.456-53.021-4.155-73.84l7.518-3.62s28.3,17.447,37.985,44.382S2907.9,5595.713,2907.9,5595.713Z" transform="translate(-2844.72 -5457.497)"/></g><path class="i" d="M2736.326,5765.164h320.94l-48.45-44.74H2779.459l-3.01,5.521Z" transform="translate(-2736.326 -5539.684)"/><path class="g" d="M2945.823,5720.424c4.058,4.238,14.621,11.568,40.244,13.942,36.8,3.406,88.379-13.942,88.379-13.942Z" transform="translate(-2812.814 -5539.684)"/><g transform="translate(148.852 40.577)"><g transform="translate(0 134.704)"><path class="b" d="M3001.465,5724.315c-.728-.244-8.411-4.845-12.576-5.229s-10.394-.558-12.544-1.169c-2.53-.719-3.169.286-.254,1.4a41.011,41.011,0,0,0,6.634,1.878c.417.018-2.3-.348-5.247-.959-3.135-.65-6.537-1.534-6.693-.975-.3,1.083,8.73,3.519,10.322,3.69a40.041,40.041,0,0,1-4.2-.508c-1.893-.336-4.063-1.006-4.49-.614-.672.619,4.113,2.5,8.066,3.044.069.128-1.208.328-5.861-.638-.468-.1-1.658.107-.127.815,3.223,1.49,4.5,2.369,9.168,2.514,4.554.142,9.581-.795,12.856.3Z" transform="translate(-2970.777 -5713.961)"/><path class="b" d="M2996.3,5717.36s-3.526-3.7-7.486-4.313c-2.354-.363-2.3-.955-2.7-1.132-1.332-.587-.043,1.886,1.957,2.52,1.625.516,2.532,3.292,3.508,3.881s3.9,1.67,4.628,1.287S2996.3,5717.36,2996.3,5717.36Z" transform="translate(-2976.177 -5711.826)"/></g><path class="f" d="M3078.307,5512.139c14.464,12.941,24.472,24.961,30.715,64.5,3.167,20.061,2.343,40.122,1.518,50.7a12.5,12.5,0,0,1-8.59,10.869c-45.317,14.948-93.69,11.962-93.69,11.962-2.6-.966.2-10.355.2-10.355,23.186-31.466,56.322-26.175,65.236-31.694,2.78-16.311-19.627-36.723-22.269-46.841-6.92-26.534-29.7-49.5-23.8-59.9C3029.663,5497.792,3063.717,5499.085,3078.307,5512.139Z" transform="translate(-2984.06 -5499.657)"/></g><rect class="j" width="320.94" height="10.82" transform="translate(0 225.48)"/><g transform="translate(92.126 118.041)"><g transform="translate(119.414 41.812)"><path class="k" d="M3070.336,5688.892h0a.392.392,0,0,0,.232-.5l-.319-.865-.735.271.319.865A.392.392,0,0,0,3070.336,5688.892Z" transform="translate(-3069.515 -5687.525)"/></g><g transform="translate(115.323 43.313)"><path class="k" d="M3063.89,5691.264h0a.393.393,0,0,0,.231-.5l-.319-.865c-.021-.058-.731.278-.731.278l.316.857A.393.393,0,0,0,3063.89,5691.264Z" transform="translate(-3063.071 -5689.889)"/></g><g transform="translate(119.439 41.305)"><path class="l" d="M3070.43,5688.432h0a.393.393,0,0,0,.232-.5l-.349-.947a.392.392,0,0,0-.5-.232h0a.393.393,0,0,0-.232.5l.349.946A.393.393,0,0,0,3070.43,5688.432Z" transform="translate(-3069.554 -5686.726)"/></g><g transform="translate(115.353 42.81)"><path class="l" d="M3063.994,5690.8h0a.393.393,0,0,0,.232-.5l-.349-.947a.392.392,0,0,0-.5-.232h0a.392.392,0,0,0-.232.5l.349.947A.393.393,0,0,0,3063.994,5690.8Z" transform="translate(-3063.118 -5689.096)"/></g><g transform="translate(118.891 52.046)"><rect class="m" width="2.567" height="1.664" transform="translate(0 0.887) rotate(-20.217)"/></g><g transform="translate(117.794 49.294)"><rect class="m" width="2.567" height="1.664" transform="translate(0 0.887) rotate(-20.217)"/></g><g transform="translate(0 70.279)"><path class="n" d="M2884.6,5766.066h130.382a2.9,2.9,0,0,0,3.131-2.856v-1.954l-14.271-26.372a4.544,4.544,0,0,0-4.069-2.522H2900c-1.862,0-5.968,3.667-6.8,5.332l-11.774,24v.862A3.109,3.109,0,0,0,2884.6,5766.066Z" transform="translate(-2881.429 -5732.362)"/></g><g transform="translate(0 67.519)"><path class="o" d="M2884.594,5761.718h130.381c1.448,0,3.831-1.27,2.936-2.831l-14.076-28.351a4.543,4.543,0,0,0-4.068-2.522h-99.775a4.915,4.915,0,0,0-4.4,2.717l-13.933,27.881C2880.686,5760.39,2883.005,5761.718,2884.594,5761.718Z" transform="translate(-2881.43 -5728.014)"/></g><g transform="translate(15.654)"><rect class="o" width="106.773" height="67.469" rx="6.148"/></g><g transform="translate(19.791 3.68)"><rect class="p" width="98.536" height="58.463"/></g><g transform="translate(48.706 88.127)"><path class="n" d="M2958.895,5772.342h38.417a.693.693,0,0,0,.685-.8l-1.62-10.12a1.125,1.125,0,0,0-1.111-.947h-34.651a.989.989,0,0,0-.978.846l-1.485,10.176A.75.75,0,0,0,2958.895,5772.342Z" transform="translate(-2958.144 -5760.474)"/></g><g transform="translate(14.665 72.183)"><path class="q" d="M2906.566,5749.217H3010.95c1.158,0,2.041-.445,1.858-.936l-4.4-11.814c-.237-.637-1.517-1.105-3.019-1.105h-94.15c-1.334,0-2.466.421-2.659.988l-4.034,11.88C2904.387,5748.753,2905.337,5749.217,2906.566,5749.217Z" transform="translate(-2904.528 -5735.361)"/></g><g transform="translate(14.39 69.546)"><g transform="translate(0 4.673)"><rect class="o" width="108.855" height="0.55" transform="translate(108.855 0.55) rotate(-180)"/></g><g transform="translate(0 7.422)"><rect class="o" width="108.855" height="0.55" transform="translate(108.855 0.55) rotate(-180)"/></g><g transform="translate(0 10.721)"><rect class="o" width="108.855" height="0.55" transform="translate(108.855 0.55) rotate(-180)"/></g><g transform="translate(0 13.744)"><rect class="o" width="108.855" height="0.55" transform="translate(108.855 0.55) rotate(-180)"/></g><g transform="translate(94.885 0.293)"><rect class="o" width="0.825" height="18.142" transform="translate(6.224 17.309) rotate(162.561)"/></g><g transform="translate(86.913 0.293)"><rect class="o" width="0.825" height="18.142" transform="translate(6.224 17.309) rotate(162.561)"/></g><g transform="translate(80.591 0.293)"><rect class="o" width="0.825" height="18.142" transform="translate(6.224 17.309) rotate(162.561)"/></g><g transform="translate(74.268 0.293)"><rect class="o" width="0.825" height="18.142" transform="translate(6.224 17.309) rotate(162.561)"/></g><g transform="translate(67.671 0.293)"><rect class="o" width="0.825" height="18.142" transform="translate(6.224 17.309) rotate(162.561)"/></g><g transform="translate(60.954 0.087)"><rect class="o" width="0.825" height="18.142" transform="translate(4.265 17.81) rotate(169.022)"/></g><g transform="translate(55.252 0)"><rect class="o" width="0.825" height="18.142" transform="translate(0.825 18.142) rotate(-180)"/></g><g transform="translate(7.196 0.293)"><rect class="o" width="0.825" height="18.142" transform="translate(0.787 17.556) rotate(-162.561)"/></g><g transform="translate(14.893 0.293)"><rect class="o" width="0.825" height="18.142" transform="translate(0.787 17.556) rotate(-162.561)"/></g><g transform="translate(22.59 0.293)"><rect class="o" width="0.825" height="18.142" transform="translate(0.787 17.556) rotate(-162.561)"/></g><g transform="translate(30.287 0.293)"><rect class="o" width="0.825" height="18.142" transform="translate(0.787 17.556) rotate(-162.561)"/></g><g transform="translate(37.984 0.293)"><rect class="o" width="0.825" height="18.142" transform="translate(0.787 17.556) rotate(-162.561)"/></g><g transform="translate(45.68 0.293)"><rect class="o" width="0.825" height="18.142" transform="translate(0.787 17.556) rotate(-162.561)"/></g></g></g></g><path class="r" d="M2764.182,5686.874a2.806,2.806,0,0,1-.469,2.948,2.837,2.837,0,0,1-4.757-.756,2.834,2.834,0,1,1,5.226-2.192Zm1.711,4.867a5.7,5.7,0,0,0,1-1.625l2.637.419.4-2.536-2.637-.42a5.668,5.668,0,0,0-.442-1.854l2.16-1.567-1.508-2.079-2.161,1.567a5.69,5.69,0,0,0-1.625-1l.419-2.637-2.535-.4-.42,2.638a5.7,5.7,0,0,0-1.854.442l-1.566-2.16-2.079,1.508,1.567,2.16a5.69,5.69,0,0,0-1,1.625l-2.637-.42-.4,2.537,2.636.419a5.7,5.7,0,0,0,.443,1.854l-2.159,1.566,1.508,2.08,2.16-1.567a5.706,5.706,0,0,0,1.625,1l-.42,2.637,2.537.4.42-2.636a5.692,5.692,0,0,0,1.855-.443l1.566,2.16,2.079-1.508Z" transform="translate(-2739.623 -5524.782)"/><path class="r" d="M2958.825,5470.129a1.266,1.266,0,0,1-.211,1.33,1.28,1.28,0,0,1-2.147-.342,1.266,1.266,0,0,1,.211-1.33,1.28,1.28,0,0,1,2.147.341Zm.772,2.2a2.572,2.572,0,0,0,.449-.734l1.19.19.182-1.145-1.19-.189a2.563,2.563,0,0,0-.2-.837l.975-.707-.681-.938-.974.707a2.571,2.571,0,0,0-.733-.449l.188-1.19-1.144-.182-.189,1.189a2.563,2.563,0,0,0-.837.2l-.707-.974-.938.68.707.974a2.582,2.582,0,0,0-.45.734l-1.19-.19-.182,1.145,1.19.189a2.59,2.59,0,0,0,.2.837l-.974.707.68.938.975-.707a2.6,2.6,0,0,0,.733.449l-.189,1.189,1.145.182.189-1.19a2.547,2.547,0,0,0,.837-.2l.707.975.938-.681Z" transform="translate(-2812.886 -5447.103)"/><path class="s" d="M2759.942,5669.1a1.82,1.82,0,0,1,.423,1.891,1.84,1.84,0,1,1-.423-1.891Zm2.2,2.528a3.7,3.7,0,0,0,.212-1.22l1.692-.378-.363-1.627-1.693.378a3.689,3.689,0,0,0-.71-1.015l.929-1.462-1.407-.895-.929,1.463a3.712,3.712,0,0,0-1.219-.212l-.378-1.691-1.627.362.378,1.692a3.719,3.719,0,0,0-1.014.71l-1.462-.929-.894,1.408,1.463.929a3.688,3.688,0,0,0-.212,1.22l-1.693.377.364,1.628,1.691-.377a3.715,3.715,0,0,0,.711,1.014l-.929,1.463,1.408.894.929-1.463a3.735,3.735,0,0,0,1.22.213l.377,1.692,1.628-.364-.377-1.691a3.722,3.722,0,0,0,1.013-.711l1.463.929.894-1.408Z" transform="translate(-2739.623 -5519.439)"/><path class="r" d="M3141.985,5455.227a2.806,2.806,0,0,1,2.417-1.753,2.838,2.838,0,0,1,2.829,3.9,2.808,2.808,0,0,1-2.417,1.754,2.838,2.838,0,0,1-2.829-3.9Zm2.232-4.65a5.691,5.691,0,0,0-1.853.445l-1.568-2.161-2.079,1.508,1.568,2.161a5.66,5.66,0,0,0-1,1.624l-2.636-.42-.4,2.537,2.636.419a5.707,5.707,0,0,0,.445,1.854l-2.161,1.567,1.508,2.079,2.161-1.568a5.678,5.678,0,0,0,1.624,1l-.419,2.635,2.537.4.419-2.635a5.651,5.651,0,0,0,1.854-.446l1.567,2.163,2.079-1.509-1.567-2.161a5.716,5.716,0,0,0,1-1.624l2.635.419.4-2.536-2.636-.42a5.712,5.712,0,0,0-.444-1.854l2.161-1.567-1.509-2.079-2.161,1.567a5.713,5.713,0,0,0-1.625-1l.42-2.635-2.536-.4Z" transform="translate(-2879.471 -5440.198)"/><path class="r" d="M3229.875,5713.666a2.807,2.807,0,0,1,2.416-1.753,2.834,2.834,0,1,1-2.416,1.753Zm2.232-4.651a5.7,5.7,0,0,0-1.853.445l-1.567-2.161-2.079,1.508,1.568,2.162a5.659,5.659,0,0,0-1,1.624l-2.635-.42-.4,2.537,2.635.419a5.692,5.692,0,0,0,.445,1.853l-2.161,1.568,1.507,2.079,2.161-1.568a5.67,5.67,0,0,0,1.625,1l-.42,2.636,2.536.4.42-2.636a5.644,5.644,0,0,0,1.853-.445l1.568,2.162,2.079-1.508-1.567-2.162a5.715,5.715,0,0,0,1-1.624l2.634.419.4-2.537-2.636-.419a5.7,5.7,0,0,0-.444-1.853l2.161-1.568-1.509-2.078-2.161,1.567a5.712,5.712,0,0,0-1.624-1l.419-2.635-2.537-.4Z" transform="translate(-2911.561 -5534.556)"/><path class="s" d="M3134.109,5474.877a1.84,1.84,0,1,1,2.641,1.677,1.825,1.825,0,0,1-2.641-1.677Zm.235-3.343a3.682,3.682,0,0,0-1.012.713l-1.463-.93-.895,1.407,1.464.93a3.7,3.7,0,0,0-.214,1.22l-1.691.377.363,1.628,1.691-.377a3.679,3.679,0,0,0,.712,1.012l-.93,1.464,1.408.895.929-1.464a3.7,3.7,0,0,0,1.22.215l.377,1.69,1.628-.363-.378-1.691a3.66,3.66,0,0,0,1.012-.713l1.464.931.894-1.408-1.463-.93a3.709,3.709,0,0,0,.215-1.219l1.691-.378-.363-1.628-1.691.377a3.724,3.724,0,0,0-.712-1.013l.929-1.462-1.408-.895-.929,1.463a3.707,3.707,0,0,0-1.22-.214l-.378-1.691-1.627.364Z" transform="translate(-2877.385 -5448.063)"/><path class="s" d="M2765.318,5504.025a1.824,1.824,0,0,1,1.039-1.637,1.841,1.841,0,1,1-1.039,1.637Zm.235-3.341a3.7,3.7,0,0,0-1.013.712l-1.463-.929-.895,1.407,1.464.93a3.667,3.667,0,0,0-.214,1.219l-1.691.378.363,1.628,1.691-.378a3.7,3.7,0,0,0,.712,1.012l-.929,1.464,1.408.895.929-1.464a3.692,3.692,0,0,0,1.22.214l.377,1.691,1.628-.363-.378-1.691a3.677,3.677,0,0,0,1.013-.712l1.463.93.894-1.408-1.463-.929a3.723,3.723,0,0,0,.215-1.219l1.69-.378-.363-1.627-1.691.377a3.7,3.7,0,0,0-.712-1.013l.929-1.463-1.408-.894-.929,1.463a3.7,3.7,0,0,0-1.219-.214l-.378-1.691-1.627.364Z" transform="translate(-2742.738 -5458.706)"/></g><g transform="translate(2883.674 5565.214)"><path class="f" d="M2979.48,5639.667a16.162,16.162,0,0,1,10.088,3.027,10.949,10.949,0,0,1,4.372,9.281q0,7.6-7.129,10.895a25.916,25.916,0,0,0-4.371,3.161,6.709,6.709,0,0,0-2.152,4.708,3.935,3.935,0,0,0,1.412,2.623h-1.479a6.278,6.278,0,0,1-1.816-4.237,8.459,8.459,0,0,1,1.883-5.312,26.886,26.886,0,0,1,4.135-3.9,24.618,24.618,0,0,0,4.136-3.968,8.384,8.384,0,0,0,1.615-5.179,7.076,7.076,0,0,0-2.186-5.616,8.715,8.715,0,0,0-5.952-1.917,9.726,9.726,0,0,0-8.138,4.237q-1.952,0-1.95-1.412l-.942-3.43q.537-1.412,3.833-2.287A18.416,18.416,0,0,1,2979.48,5639.667Zm1.278,37.8a3.406,3.406,0,0,1,2.354.908,2.911,2.911,0,0,1,1.009,2.252,2.958,2.958,0,0,1-.975,2.253,3.291,3.291,0,0,1-2.32.908,3.447,3.447,0,0,1-2.388-.875,2.924,2.924,0,0,1-.975-2.286,2.956,2.956,0,0,1,.975-2.252A3.284,3.284,0,0,1,2980.758,5677.463Z" transform="translate(-2971.006 -5639.667)"/></g></g></svg>