<svg xmlns="http://www.w3.org/2000/svg" xmlns:xlink="http://www.w3.org/1999/xlink" width="490.174" height="340.081"
     viewBox="0 0 490.174 340.081">
    <defs>
        <style>
            .a,.m{fill:none;}.b{fill:#bec9f2;opacity:0.49;}.c{clip-path:url(#a);}.d{fill:#c2934e;}.e,.l{fill:#caa267;}.f{fill:#8a7cc7;}.g{fill:#f1c759;}.h{opacity:0.15;}.i{opacity:0.3;}.j{opacity:0.5;}.k{fill:#eec459;}.l{fill-rule:evenodd;}.m{stroke:#8a7cc7;stroke-miterlimit:10;stroke-width:1.093px;}.n{fill:#9180d2;}
        </style>
        <clipPath id="a">
            <path class="a"
                  d="M531.424,9633.7c-61.1-48.958-91.65-73.437-120.332-81.4-95.826-26.61-231.962,28.154-261.9,127.41-1.557,5.164-22.087,76.882,17.7,123.869,33.309,39.341,75.214,21.561,198.193,42.471,131.663,22.387,163.4,56.33,208.812,30.139,42.994-24.8,66.3-85.078,56.627-132.774C623.323,9707.938,592.592,9682.706,531.424,9633.7Z"
                  transform="translate(-142.52 -9545.598)"/>
        </clipPath>
    </defs>
    <g transform="translate(-142.52 -9545.598)">
        <path class="b"
              d="M531.424,9633.7c-61.1-48.958-91.65-73.437-120.332-81.4-95.826-26.61-231.962,28.154-261.9,127.41-1.557,5.164-22.087,76.882,17.7,123.869,33.309,39.341,75.214,21.561,198.193,42.471,131.663,22.387,163.4,56.33,208.812,30.139,42.994-24.8,66.3-85.078,56.627-132.774C623.323,9707.938,592.592,9682.706,531.424,9633.7Z"/>
        <g transform="translate(142.52 9545.598)">
            <g class="c">
                <g transform="translate(107.626 41.502)">
                    <path class="d"
                          d="M354.594,9629.458s1.263,14.1-7.435,21.9,20.046,0,20.046,0-5.349-13.507-4.149-21.9S354.594,9629.458,354.594,9629.458Z"
                          transform="translate(-233.171 -9580.399)"/>
                    <ellipse class="e" cx="15.207" cy="20.748" rx="15.207" ry="20.748"
                             transform="translate(110.803 13.029)"/>
                    <path class="f"
                          d="M266.6,9763.92c.323,5.095,5.59,28.174,12.174,48.688,5.394,16.84,11.689,31.961,16.864,34.053,11.481,4.62,98.17,10.961,115.993,2.46.415-.312.866-.647,1.294-1.017,6.688-5.44,13.942-16.183,17.788-26.244,0-.011,10.246-28.888,12.337-34.769.023-.057.035-.1.057-.148.069-.231.15-.451.231-.659.023-.08.057-.15.081-.231,10.787,36.836,95.109,34.156,46.2-68.149-23.022-48.155-64.108-70.124-90.339-75.957-11.354-2.53-19.926-2.034-23.055.669a17.012,17.012,0,0,1-10.615,4.125,23.076,23.076,0,0,1-5.961-.544,29.713,29.713,0,0,1-6.318-2.148c-.971-.451-1.537-.773-1.537-.773a61.666,61.666,0,0,0-16.056.958C276.394,9655.853,266.068,9755.362,266.6,9763.92Z"
                          transform="translate(-239.772 -9579.181)"/>
                    <path class="g"
                          d="M293.216,9972.2h59.76q-.12-5.492-.269-11.069c-.125-5.083-.268-10.2-.412-15.268-.152-5.368-.3-10.693-.448-15.884-.143-4.975-.277-9.824-.4-14.478-.34-13.146-.573-24.752-.528-33.182.036-7.983.322-13.111,1.011-13.987.259-.33.528-.269.814.179.9,1.414,1.924,6.668,3.043,14.667.6,4.251,1.217,9.279,1.862,14.918.635,5.512,1.288,11.624,1.968,18.155.475,4.582.958,9.38,1.46,14.337.563,5.683,1.145,11.562,1.736,17.575.438,4.4.877,8.878,1.324,13.4q.523,5.288,1.047,10.64H431.8c-.018-.161-.036-.331-.063-.491-.582-4.145-1.181-8.5-1.8-13.021-.734-5.37-1.486-10.963-2.246-16.68-.707-5.344-1.431-10.8-2.148-16.278-1.467-11.177-2.926-22.479-4.3-33.208-1.316-10.265-2.541-20.009-3.632-28.609-2.524-20.081-4.242-33.977-4.242-33.977a7.077,7.077,0,0,1-.546.491.2.2,0,0,1-.044.035,7.857,7.857,0,0,1-1.888,1.127,11.7,11.7,0,0,1-2.846.8c-1.477.027-3.526.063-6.05.107-4.474.081-10.416.161-17.235.232-5.1.055-10.693.1-16.51.116-1.521.01-3.051.019-4.591.01H363.6c-3.731.009-7.516.009-11.311-.01-5.96-.026-11.928-.089-17.655-.2-5.342-.1-10.488-.233-15.213-.421q-3.074-.136-5.9-.277c-.018.008-.036,0-.054,0l-.465-.026-.734-.045c-.958-.055-1.879-.117-2.783-.18s-1.773-.116-2.614-.187h-.009c-.7-.055-1.369-.108-2.023-.17-.429-.036-.858-.081-1.27-.126-.206-.018-.412-.036-.609-.062s-.4-.046-.6-.063-.393-.045-.582-.062-.376-.045-.563-.072c-.269-.026-.528-.062-.788-.1-1-.134-1.906-.269-2.711-.411a18.961,18.961,0,0,1-3.079-.778c-.08-.027-.16-.063-.242-.1a4.189,4.189,0,0,1-.42-.188c-.063-.036-.125-.072-.179-.1s-.107-.071-.152-.107a1.1,1.1,0,0,1-.242-.206,1.067,1.067,0,0,0,.009.116c0,.071.009.188.017.34.01.2.018.456.036.779.01.214.018.456.036.715.027.492.054,1.074.081,1.736.009.171.018.34.027.519a.456.456,0,0,1,.009.108c.009.25.027.51.036.779s.036.554.044.841c.027.527.054,1.083.09,1.663.009.243.017.492.036.743.017.359.036.725.053,1.1.018.251.027.512.036.779.054.993.107,2.04.171,3.149.026.555.053,1.128.089,1.71s.053,1.181.089,1.8c.046.851.09,1.727.134,2.622.072,1.369.143,2.8.224,4.277.036.743.08,1.5.116,2.265.09,1.753.189,3.579.286,5.458.081,1.352.144,2.739.224,4.152.044.912.1,1.834.143,2.766q.161,2.938.322,6.031c.206,3.794.359,7.713.466,11.73.4,14.239.25,29.693-.3,44.833-.206,5.361-.448,10.677-.742,15.884s-.627,10.327-1,15.268Q293.709,9966.835,293.216,9972.2Z"
                          transform="translate(-237.545 -9563.404)"/>
                    <path class="h"
                          d="M432.123,9776.442c-.024.082-.059.15-.081.231-.081.208-.161.428-.231.659-.023.045-.035.092-.057.148-2.091,5.881-12.337,34.758-12.337,34.769-3.846,10.062-11.1,20.8-17.788,26.244,4.539-16.437,18.689-64.084,18.146-83.281C422.478,9773.717,432.123,9776.431,432.123,9776.442Z"
                          transform="translate(-228.479 -9569.572)"/>
                    <path class="h"
                          d="M312.081,9715.8s35.339,83.251-41.279,125.786l-1.531,1.2-1.165-20.141s33.351-55.184,33.386-56.539S312.081,9715.8,312.081,9715.8Z"
                          transform="translate(-239.645 -9572.868)"/>
                    <path class="h"
                          d="M357.043,9650.146c-.046,1.375.682,2.276,2.888,1.976,6.884-.937,14.658-.739,20.306,1.848a4.8,4.8,0,0,0,4.643-.2c3.616-2.114,5.857-8.422,6.747-11.217a1.917,1.917,0,0,0,.092-.611c-11.354-2.53-19.926-2.033-23.055.669a17,17,0,0,1-10.615,4.124A9.376,9.376,0,0,0,357.043,9650.146Z"
                          transform="translate(-232.208 -9579.181)"/>
                    <g class="i" transform="translate(55.859 265.561)">
                        <path d="M358.1,9832.565c.2-.016.405-.032.6-.05C358.7,9832.516,358.491,9832.531,358.1,9832.565Z"
                              transform="translate(-287.978 -9828.669)"/>
                        <path class="j"
                              d="M363.513,9832.862c-16.09,1.284-51.257-.988-51.257-.988-10.334-.6-17.591-1.514-18.867-2.908a1.174,1.174,0,0,0,.009.119c.077,1.615,1,20.1,2.3,44.327a11.858,11.858,0,0,0,1.69-.2,13.166,13.166,0,0,0,8.515-6.051,29.17,29.17,0,0,0,3.312-6.916C321.215,9837.425,358.359,9833.327,363.513,9832.862Z"
                              transform="translate(-293.389 -9828.966)"/>
                    </g>
                    <g transform="translate(105.461)">
                        <g transform="translate(5.162 5.785)">
                            <path class="k"
                                  d="M364.941,9605.318s-26.327,14.6-18.513-8.839C351.835,9580.266,382.9,9594.871,364.941,9605.318Z"
                                  transform="translate(-343.84 -9589.235)"/>
                            <path class="k"
                                  d="M361.213,9599.64s14.731,8.74,13.309,17.508c0,0,3.249-26.177-11.4-26.835s-20.317.757-19.016,28.437C344.108,9618.749,348.363,9596.729,361.213,9599.64Z"
                                  transform="translate(-343.928 -9589.156)"/>
                        </g>
                        <path class="k"
                              d="M364.161,9591.01s-.74-8.156-8.825-7-11.551,5.776-12.707,10.4-2.31,8.086-3.465,8.086c0,0,3.465,3.465,4.621,2.311,0,0-3,8.306.812,15.126,0,0,1.5-10.506,7.274-11.661S364.161,9591.01,364.161,9591.01Z"
                              transform="translate(-339.164 -9583.896)"/>
                        <path class="k"
                              d="M361.549,9590.453s5.776-3.465,11.551,4.62l3.464,6.931s-1.154,1.155-3.464,0c0,0,1.052,8.139-.052,12.732l-3.413-13.888Z"
                              transform="translate(-337.292 -9583.41)"/>
                    </g>
                    <path class="h" d="M304.091,9803.453s-4.19-34.268,88.836-29.971-67.38,27.291-67.38,27.291Z"
                          transform="translate(-236.638 -9568.074)"/>
                    <g transform="translate(0 63.305)">
                        <g transform="translate(148.721 137.648)">
                            <path class="l"
                                  d="M379.085,9786.973c1.063-.452,12.043-8.255,18.245-9.319s15.522-2.059,18.675-3.229c3.708-1.376,4.785.056.545,2.066a61.9,61.9,0,0,1-9.729,3.6c-.622.074,3.4-.792,7.757-2.056,4.626-1.344,9.623-3.068,9.922-2.249.581,1.589-12.679,6.3-15.046,6.748a60.626,60.626,0,0,0,6.232-1.255c2.8-.728,5.976-1.987,6.661-1.448,1.08.85-5.873,4.226-11.738,5.513-.089.2,1.85.35,8.713-1.646.689-.2,2.5-.034.286,1.207-4.657,2.613-6.467,4.081-13.453,4.848-6.813.747-14.461-.067-19.244,1.964Z"
                                  transform="translate(-379.085 -9768.965)"/>
                            <path class="l"
                                  d="M393.207,9778.884s4.852-5.97,10.718-7.35c3.486-.821,3.334-1.7,3.915-2.017,1.928-1.035.285,2.825-2.638,4.01-2.376.964-3.411,5.234-4.806,6.232s-5.651,2.962-6.79,2.474S393.207,9778.884,393.207,9778.884Z"
                                  transform="translate(-377.924 -9769.343)"/>
                        </g>
                        <path class="f"
                              d="M281.113,9666.139c-20.171,21.107-33.767,40.309-38.484,100.34-2.394,30.456,1.2,60.443,3.68,76.211a18.8,18.8,0,0,0,14.16,15.29c69.716,17.093,139.312-53.243,139.312-53.243,3.779-1.753-5.144-15.018-5.144-15.018-37.6,2.555-66.3,5.961-95.338,19.823.146-.084,25.118-57.376,27.891-72.861,7.26-40.6,38.721-77.715,28.662-92.617C352.376,9638.907,301.459,9644.849,281.113,9666.139Z"
                              transform="translate(-241.841 -9642.316)"/>
                    </g>
                    <g transform="translate(64.253 265.357)">
                        <path class="m"
                              d="M406.989,9972.216l-.787-8.295-1.521-15.93-1.638-17.091-1.6-16.762-1.754-18.3-1.369-14.38-1.342-14.05-1.763-18.417-1.3-13.548-.277-2.935-.358-3.732"
                              transform="translate(-293.431 -9828.777)"/>
                        <path class="m"
                              d="M391.185,9971.94l-.582-6.023-1.5-15.561-1.62-16.752-1.584-16.43-1.808-18.739-1.378-14.264-1.378-14.256-2-20.591-1.19-12.384-.438-4.475-.036-.4"
                              transform="translate(-294.736 -9828.502)"/>
                        <path class="m"
                              d="M362.428,9832.063l.045.519.376,4.672,1.011,12.537,1.682,20.726,1.136,14.121,1.208,14.882,1.459,18.059,1.28,15.83,1.342,16.635,1.2,14.8.573,7.1"
                              transform="translate(-296.01 -9828.502)"/>
                        <line class="m" x1="0.362" y2="36.003" transform="translate(50.133 3.565)"/>
                        <path class="m"
                              d="M334,9971.94l-.134-7.437-.3-15.678-.268-14.918-.3-15.776-.313-16.859-.26-14.371-.331-17.925-.349-18.766-.2-10.747-.063-3.49-.063-3.283v-.3l-.009-.322"
                              transform="translate(-298.603 -9828.502)"/>
                        <path class="m"
                              d="M317.4,9831.966v.07l.018,2.7.063,13.3.009,2,.107,19.982.089,17.538.072,14.453.089,16.867.081,16.037.072,14.595.081,15.49.036,6.953"
                              transform="translate(-299.776 -9828.511)"/>
                        <path class="m"
                              d="M303.811,9831.966l-.018,1-.313,16.366-.376,19.553-.009.671-.313,16.5-.286,14.551-.3,16.277-.3,15.159-.286,15.294-.3,15.338-.179,9.271"
                              transform="translate(-301.136 -9828.511)"/>
                    </g>
                    <path class="m" d="M415.589,9846.959s-95.934,4.528-121.281,0"
                          transform="translate(-237.454 -9561.9)"/>
                    <path class="m" d="M347.4,9865.633c33.566,7.6,65.689-4.416,65.689-4.416"
                          transform="translate(-233.014 -9560.708)"/>
                    <path class="m" d="M352.125,9863.2s-30.292,8.512-56.9,1.324"
                          transform="translate(-237.377 -9560.542)"/>
                    <path class="m" d="M414.442,9873.264s-24.191,12.666-63.481,6.209"
                          transform="translate(-232.716 -9559.699)"/>
                    <path class="m" d="M416.278,9887.613s-37.643,11.491-63.6,5.578"
                          transform="translate(-232.573 -9558.5)"/>
                    <path class="m" d="M418.111,9901.865s-19.17,15.029-63.62,8.287"
                          transform="translate(-232.421 -9557.308)"/>
                    <path class="m" d="M420.31,9918.262s-29.232,15.273-64.475,4.857"
                          transform="translate(-232.309 -9555.938)"/>
                    <path class="m" d="M422.325,9933.281s-20.7,14.7-64.884,6.16"
                          transform="translate(-232.174 -9554.681)"/>
                    <path class="m" d="M424.471,9948.68s-28.576,14.938-65.813,2.87"
                          transform="translate(-232.073 -9553.394)"/>
                    <path class="m" d="M420.515,9961.185c.394-.312.582-.491.582-.491"
                          transform="translate(-226.9 -9552.39)"/>
                    <path class="m" d="M350.749,9878.2s-12.656,10.449-55.524,2.691"
                          transform="translate(-237.377 -9559.287)"/>
                    <path class="m" d="M350.338,9892.715s-17.758,8.28-54.177,1.741"
                          transform="translate(-237.299 -9558.074)"/>
                    <path class="m" d="M351.2,9908.823s-27.42,8.26-55.043,0" transform="translate(-237.299 -9556.727)"/>
                    <path class="m" d="M351.64,9922.181s-26.656,11.851-55.969,0"
                          transform="translate(-237.34 -9555.609)"/>
                    <path class="m" d="M352.144,9936.847s-25.377,8.905-57.152,0"
                          transform="translate(-237.396 -9554.384)"/>
                    <path class="m" d="M352.631,9950.933s-21.391,9.6-58.563,0"
                          transform="translate(-237.474 -9553.206)"/>
                    <path class="h"
                          d="M362.552,9664.139c-.659,2.157-5.31,9.739-3.873,16.481s32.653,74.016,45.514,82.709,36.087,18.576,36.087,18.576l-63.46-87.8-3.509-29.968S366.667,9650.658,362.552,9664.139Z"
                          transform="translate(-232.094 -9577.688)"/>
                    <g transform="translate(132.787 57.7)">
                        <path class="l"
                              d="M367.9,9663.312s-3.875-6.788-3.032-12.855c.5-3.605-.39-3.785-.472-4.449-.274-2.208,2.781.766,2.832,3.971.041,2.605,3.708,5.153,4.143,6.842s.733,6.442-.147,7.342S367.9,9663.312,367.9,9663.312Z"
                              transform="translate(-364.381 -9636.467)"/>
                        <path class="l"
                              d="M370.049,9681.581c-.038-1.174-3.4-14.442-2.137-20.711s3.809-17.139,3.858-20.555c.057-4.02,1.809-4.515,2.159.241a83.91,83.91,0,0,1-.225,12.212,49.552,49.552,0,0,0,1.188-8.037c.156-2.686.79-1.623,1.686-1.374,1.656.461.93,4.994.483,7.4a23.275,23.275,0,0,0,1.2-5.9c.117-1.367.777-1.012,1.589-.886s1.153,1.107.22,7.138c.157.156.4,1.672,1.032-5.565.063-.728,2.187-2.2,2.266.38.138,4.521,1.084,4.122-.753,11.023-1.791,6.73-5.37,13.68-5.2,18.959Z"
                              transform="translate(-364.109 -9637.145)"/>
                    </g>
                    <path class="n"
                          d="M382.862,9667.825a165.961,165.961,0,0,1,59.935,20.229c15.989,9.162,55.687,31.912,59.935,69.675.372,3.3,3.185,31.7-14.234,43.452-11.657,7.864-26.312,4.182-30.2,3.2-6.915-1.736-16.167-5.63-52.206-53.4-20.482-27.147-30.969-43.75-38.958-65.93-1.343-3.727-2.342-6.854-3-8.99Z"
                          transform="translate(-231.615 -9576.879)"/>
                </g>
            </g>
        </g>
    </g>
</svg>
