<svg xmlns="http://www.w3.org/2000/svg" width="70.974" height="89.488" viewBox="0 0 70.974 89.488">
    <defs>
        <style>.a{fill:#bec9f2;}.b{fill:#8a7cc7;}.c{fill:#eec459;}</style>
    </defs>
    <g transform="translate(-1155.957 -7873.735)">
        <path class="a"
              d="M1217.674,7963.223h-52.459a9.258,9.258,0,0,1-9.258-9.257h0v-70.974a9.257,9.257,0,0,1,9.258-9.257h43.2l18.515,18.514v61.717a9.258,9.258,0,0,1-9.257,9.257Z"/>
        <path class="b"
              d="M1155.957,7938.537h70.974v15.429a9.258,9.258,0,0,1-9.257,9.257h-52.459a9.258,9.258,0,0,1-9.258-9.257h0v-15.429Z"/>
        <path class="b" d="M1226.931,7892.249h-9.257a9.257,9.257,0,0,1-9.258-9.257v-9.257Z"/>
        <path class="c"
              d="M1183.73,7943.165a1.542,1.542,0,0,0-1.092.453l-3.537,3.537-3.538-3.538a1.543,1.543,0,0,0-2.634,1.091v12.343a1.543,1.543,0,1,0,3.086,0v-8.618l1.995,2a1.545,1.545,0,0,0,2.182,0h0l1.995-2v8.618a1.543,1.543,0,1,0,3.086,0v-12.343A1.543,1.543,0,0,0,1183.73,7943.165Z"/>
        <path class="c"
              d="M1192.987,7943.165H1189.9a1.543,1.543,0,0,0-1.543,1.543v12.343a1.543,1.543,0,1,0,3.086,0v-4.628h1.543a4.629,4.629,0,0,0,0-9.258Zm0,6.172h-1.543v-3.086h1.543a1.543,1.543,0,0,1,0,3.086Z"/>
        <path class="c"
              d="M1205.33,7943.165h-3.085a1.543,1.543,0,1,0,0,3.086h3.085a1.543,1.543,0,1,1,0,3.086h-3.085a1.543,1.543,0,1,0,0,3.086h3.085a1.542,1.542,0,1,1,0,3.085h-3.085a1.543,1.543,0,0,0,0,3.086h3.085a7.8,7.8,0,0,0,0-15.429Z"/>
        <path class="a" d="M1182.187,7896.878v6.172l21.6-3.086v-6.172Z"/>
        <path class="b"
              d="M1204.8,7892.627a1.544,1.544,0,0,0-1.229-.362l-21.6,3.086a1.542,1.542,0,0,0-1.324,1.527v17.8a6.172,6.172,0,1,0,3.086,5.345v-15.634l18.515-2.645v9.848a6.175,6.175,0,1,0,3.085,5.345v-23.144A1.542,1.542,0,0,0,1204.8,7892.627Zm-21.068,8.644v-3.055l18.515-2.645v3.055Z"/>
    </g>
</svg>
