<svg xmlns="http://www.w3.org/2000/svg" width="342" height="260.625" viewBox="0 0 342 260.625"><defs><style>.a{opacity:0.44;}.b{fill:#bec9f2;opacity:0.49;}.c{fill:#f2eadb;}.d{fill:#8c7cc9;}.e,.g{fill:#eec459;font-family:DejaVuSans, DejaVu Sans;}.e{font-size:23px;}.f{fill:#d3c29d;}.g{font-size:24px;}.h{fill:#fff;}.i{fill:#788b9c;}.j{fill:#b5deff;}.k{fill:#99c9f0;}.l{fill:#d9f6ff;}.m{fill:#6e9ee0;}.n{fill:#77a9ed;}</style></defs><g transform="translate(-758.335 -4502.196)"><g class="a" transform="translate(758.335 4502.196)"><path class="b" d="M1042.585,4680.291c-37.465,41-56.2,61.5-75.428,70.216-64.248,29.133-165.651,5.648-197.492-60.64-1.657-3.449-23.893-51.467-1.152-88.75,19.04-31.217,50.355-23.34,134.258-51.452,89.827-30.1,108.355-57.358,143.047-43.97,32.846,12.675,55.779,52.372,54.215,86.858C1098.869,4618.2,1080.092,4639.247,1042.585,4680.291Z" transform="translate(-758.335 -4502.196)"/><circle class="b" cx="17.042" cy="17.042" r="17.042" transform="translate(283.318 183.352)"/><circle class="b" cx="7.147" cy="7.147" r="7.147" transform="translate(327.705 190.624)"/><circle class="b" cx="12.313" cy="12.313" r="12.313" transform="translate(45.196 40.203)"/><circle class="b" cx="5.012" cy="5.012" r="5.012" transform="translate(24.269 40.869)"/><circle class="b" cx="3.678" cy="3.678" r="3.678" transform="translate(271.568 226.072)"/><circle class="b" cx="3.678" cy="3.678" r="3.678" transform="translate(91.875 33.207)"/></g><g transform="translate(975.664 4528.129)"><rect class="c" width="97.416" height="112.212" rx="12" transform="translate(1.255 1.729)"/><g transform="translate(4.887 146.269)"><rect class="d" width="90.152" height="53.261" rx="12"/><text class="e" transform="translate(24.21 33.076)"><tspan x="0" y="0">.txt</tspan></text></g><path class="f" d="M1136.019,4535.63h-84.734a7.6,7.6,0,0,0-7.6,7.6v99.343a7.6,7.6,0,0,0,7.6,7.6h84.734a7.6,7.6,0,0,0,7.6-7.6v-99.343A7.606,7.606,0,0,0,1136.019,4535.63Zm4.09,106.939a4.1,4.1,0,0,1-4.09,4.091h-84.734a4.1,4.1,0,0,1-4.091-4.091v-99.343a4.1,4.1,0,0,1,4.091-4.09h84.734a4.1,4.1,0,0,1,4.09,4.09Z" transform="translate(-1043.689 -4535.63)"/><path class="f" d="M1130.441,4652.409H1066.16a1.753,1.753,0,0,0,0,3.506h64.281a1.753,1.753,0,0,0,0-3.506Z" transform="translate(-1048.337 -4561.833)"/><path class="f" d="M1130.441,4611H1066.16a1.753,1.753,0,0,0,0,3.506h64.281a1.753,1.753,0,0,0,0-3.506Z" transform="translate(-1048.337 -4552.541)"/><path class="f" d="M1064.407,4592.044a1.753,1.753,0,0,0,1.753,1.753h64.281a1.753,1.753,0,0,0,0-3.506H1066.16A1.753,1.753,0,0,0,1064.407,4592.044Z" transform="translate(-1048.337 -4547.895)"/><path class="f" d="M1130.441,4631.7H1066.16a1.753,1.753,0,0,0,0,3.507h64.281a1.753,1.753,0,0,0,0-3.507Z" transform="translate(-1048.337 -4557.187)"/></g><g transform="translate(781.765 4529.857)"><g transform="translate(20.505 144.541)"><rect class="d" width="90.152" height="53.261" rx="12"/><text class="g" transform="translate(21.807 34.076)"><tspan x="0" y="0">.jpg</tspan></text></g><rect class="h" width="127.518" height="105.658" transform="translate(1.822 1.822)"/><path class="i" d="M928.953,4541.5v102.014H805.079V4541.5Zm3.644-3.645H801.435v109.3H932.6Z" transform="translate(-801.435 -4537.858)"/><rect class="j" width="102.014" height="68.703" transform="translate(14.574 14.574)"/><rect class="k" width="102.014" height="35.067" transform="translate(14.574 59.661)"/><path class="l" d="M917.138,4587.494a5.107,5.107,0,0,0-4.087,2.041,10.179,10.179,0,0,0-12.227,0,5.108,5.108,0,0,0-7.615-.638,7.644,7.644,0,0,0-9.553-3.348,10.234,10.234,0,0,0-16.916,3.662,10.356,10.356,0,0,0-11.418,0,10.234,10.234,0,0,0-16.917-3.662,7.641,7.641,0,0,0-9.553,3.348,5.137,5.137,0,0,0-3.527-1.4,5.057,5.057,0,0,0-5.1,5.009v30.058H922.239V4592.5A5.057,5.057,0,0,0,917.138,4587.494Z" transform="translate(-805.651 -4547.872)"/><path class="m" d="M821.8,4629.735h100.79v-5.847l-31.5-17.546Z" transform="translate(-806.005 -4553.224)"/><path class="n" d="M892.91,4629.125H820.225V4618.49l34.35-14.868Z" transform="translate(-805.651 -4552.614)"/></g></g></svg>