<svg xmlns="http://www.w3.org/2000/svg" width="93.421" height="72.982" viewBox="0 0 93.421 72.982">
    <defs>
        <style>
            .a{fill:#cecdf3;}.b{fill:#fff;}.c{fill:#ff7d97;}.d{fill:#ffee80;}.e{fill:#7dd9c2;}.f,.g{fill:#8a7cc7;}.f{opacity:0.2;}
        </style>
    </defs>
    <g transform="translate(-988.335 -8022.293)">
        <path class="a" d="M990.16,8024.116h89.769v14.6H990.16Z"/>
        <path class="b" d="M990.16,8038.713h89.769v54.738H990.16Z"/>
        <path class="b" d="M1069.712,8033.239h-32.843a1.824,1.824,0,0,1,0-3.649h32.843a1.824,1.824,0,0,1,0,3.649Z"/>
        <circle class="c" cx="1.825" cy="1.825" r="1.825" transform="translate(997.458 8029.59)"/>
        <circle class="d" cx="1.825" cy="1.825" r="1.825" transform="translate(1004.756 8029.59)"/>
        <circle class="e" cx="1.825" cy="1.825" r="1.825" transform="translate(1012.055 8029.59)"/>
        <rect class="f" width="35.6" height="25.14" rx="3.23" transform="translate(997.139 8044.003)"/>
        <rect class="f" width="35.6" height="25.14" rx="3.23" transform="translate(1038.171 8044.003)"/>
        <path class="f"
              d="M1032.742,8078.858v13.187l-3.23,3.23h-29.14l-3.23-3.23v-13.187a3.24,3.24,0,0,1,3.23-3.23h29.14A3.24,3.24,0,0,1,1032.742,8078.858Z"/>
        <path class="f"
              d="M1073.772,8078.858v13.187l-3.23,3.23H1041.4l-3.23-3.23v-13.187a3.24,3.24,0,0,1,3.23-3.23h29.14A3.24,3.24,0,0,1,1073.772,8078.858Z"/>
        <path class="g"
              d="M1079.932,8022.293H990.16a1.826,1.826,0,0,0-1.825,1.825v69.332a1.826,1.826,0,0,0,1.825,1.825h89.772a1.825,1.825,0,0,0,1.824-1.825v-69.332A1.825,1.825,0,0,0,1079.932,8022.293Zm-1.829,69.333H991.984v-51.087H1078.1Zm0-54.736H991.984v-10.948H1078.1Z"/>
    </g>
</svg>
