<svg xmlns="http://www.w3.org/2000/svg" xmlns:xlink="http://www.w3.org/1999/xlink" width="1366" height="771" viewBox="0 0 1366 771"><defs><style>.a,.m{fill:none;}.b,.v{fill:#000;}.c{clip-path:url(#a);}.d{fill:#ccc1d8;}.e{fill:#e6def0;}.f,.h{fill:#caa267;}.f{fill-rule:evenodd;}.g{fill:#8c7cc9;}.i{fill:#5e5586;}.j{fill:#f1c759;}.k{opacity:0.3;}.l{opacity:0.5;}.m{stroke:#8c7cc9;stroke-width:1.118px;}.m,.v{stroke-miterlimit:10;}.n{fill:#c2934e;}.o{opacity:0.15;}.p{fill:#f0c659;}.q{fill:#979797;}.r{fill:#cacaca;}.s{fill:#7f7f7f;}.t{fill:#5e5587;}.u{fill:#4b3d64;}.v{stroke:#5e5587;stroke-width:11px;}.w{fill:#8dcdbb;}.x{fill:#81bbaa;}.y{opacity:0.2;}.z{fill:#e7d077;}.aa{fill:#2d3962;}.ab{fill:#ffb0d7;}.ac{fill:#e8a0c4;}</style><clipPath id="a"><rect class="a" width="1366" height="771"/></clipPath></defs><rect class="b" width="1366" height="771"/><g class="c"><rect class="b" width="1366" height="771"/><path class="d" d="M1366,9.537V768l-242.228-67.586-32.991-6.263,1.636-558.092,30.118-25.56Z"/><path class="d" d="M316.3,125.471,300.245,681.842.2,756.24V6.188L299.045,99.758Z"/><path class="e" d="M697.978,89.071H273.37V706.455h849.165V89.071Z"/><path class="b" d="M0,60.78c121.657,30.38,335.7,73.888,615,80.372,352.972,8.194,622.429-47.1,751-78.7V0H0Z"/><path class="b" d="M0,722.684c121.657-29.39,335.7-71.481,615-77.753C967.968,637,1237.425,690.5,1366,721.064v47.19L.2,771Z"/><path class="f" d="M734.73,609.555s-5.711-6.515-12.371-7.824c-3.959-.778-3.824-1.778-4.491-2.105-2.214-1.085-.2,3.19,3.136,4.4,2.715.985,4.058,5.748,5.67,6.813s6.485,3.1,7.746,2.5S734.73,609.555,734.73,609.555Z"/><path class="f" d="M752.287,618.448c-1.215-.464-13.9-8.787-20.926-9.727s-17.557-1.668-21.155-2.853c-4.232-1.393-5.384.263-.527,2.349,3.156,1.356,9.647,3.523,11.1,3.642.7.058-3.865-.749-8.816-1.989-5.263-1.318-10.96-3.051-11.262-2.116-.587,1.812,14.535,6.563,17.217,6.965a67.958,67.958,0,0,1-7.067-1.152c-3.182-.7-6.809-1.986-7.558-1.351-1.18,1,6.789,4.511,13.444,5.714.107.222-2.069.472-9.877-1.487-.785-.2-2.815.066-.272,1.37,5.351,2.747,7.45,4.323,15.345,4.894,7.7.557,16.274-.68,21.743,1.408Z"/><path class="g" d="M746.722,627.857c6.171,2.415,50.977,10.632,92.105,1.6,25.958-5.69,50.441-18.267,62.827-43.51,32.006-65.252-42.783-102.267-42.783-102.267a1.481,1.481,0,0,0-.112.179c-3.241,4.9-72.955,109.489-121.327,125.811C737.432,609.669,736.66,623.911,746.722,627.857Z"/><path class="h" d="M1050.863,750.789s-1.557,143.9,4.535,145.845c10.935,3.569,53.512,14.654,7.683,15.355-23.279,3.423-22.012-1.953-22.758-6.352-.61-3.593-10.908-131.367-12.723-141.216l-.653-3.539Z"/><path class="h" d="M952.049,740.653S941.756,883.642,935.611,885.42c-11.03,3.261-53.9,13.147-8.11,15.133,23.173,4.075,22.058-1.334,22.927-5.71.711-3.575,6.49-30.667,8.582-40.462.468-2.193,17.768-112.968,17.768-112.968Z"/><path class="i" d="M953.436,885.963c.507-2.023-14.134-3.5-15.98-2.022s-31.666,4.159-32.079,12.877,40.742,6.533,43.65,6.659S952.44,889.94,953.436,885.963Z"/><path class="j" d="M944.866,600.178A9.067,9.067,0,0,0,950.2,602.1c12.075-.8,64.217-4.387,92.321-8.439,9.915-1.431,16.837-2.918,17.951-4.367a1.056,1.056,0,0,1,0,.115c.06,1.564.7,19.464,1.455,42.934,1.492,46.332,11.94,111.975,19.234,131.545,1.574,4.224-63.679,3.233-63.679,3.233-4.274-47.579-6.944-131.522-10.183-135.016-3.94-4.251-3.373,69.738-4.68,131.806-25.042,8.886-65.957,8.318-65.714,5.652C939.793,737.9,944.866,600.178,944.866,600.178Z"/><g class="k"><path d="M993.177,598.871l-.585,0S992.8,598.87,993.177,598.871Z"/><path class="l" d="M993.177,598.871c15.622-.1,49.344-5.206,49.344-5.206,9.915-1.431,16.837-2.918,17.951-4.367a1.056,1.056,0,0,1,0,.115c.06,1.564.7,19.464,1.455,42.934a11.626,11.626,0,0,1-1.647-.048,12.742,12.742,0,0,1-8.712-5.128,28.287,28.287,0,0,1-3.767-6.394C1034.342,599.761,998.186,598.89,993.177,598.871Z"/></g><line class="m" x1="1.653" y2="173.186" transform="translate(954.429 598.08)"/><line class="m" x1="1.787" y2="170.184" transform="translate(970.894 600.113)"/><line class="m" x2="0.858" y2="168.768" transform="translate(988.617 598.742)"/><line class="m" x2="3.335" y2="34.687" transform="translate(1003.966 597.422)"/><line class="m" x2="11.562" y2="171.269" transform="translate(1021.003 595.957)"/><line class="m" x2="13.954" y2="172.508" transform="translate(1035.654 594.589)"/><line class="m" x2="18.232" y2="173.138" transform="translate(1050.063 593.349)"/><path class="m" d="M944.181,618.239s92.882-3.59,116.948-10.059"/><path class="m" d="M1007.3,632.109c-31.737,10.115-63.708,1.19-63.708,1.19"/><path class="m" d="M1006.763,629.949s29.916,5.7,54.977-3.443"/><path class="m" d="M943.085,646.024s24.375,10.206,61.727.722"/><path class="m" d="M942.464,661.18s37.251,7.96,61.791.1"/><path class="m" d="M941.831,676.239s19.732,12.9,62.034,2.714"/><path class="m" d="M941.076,693.562s29.454,12.3,62.574-.663"/><path class="m" d="M940.354,709.435s21.183,12.454,63.076.559"/><path class="m" d="M939.571,725.71s28.794,12.034,63.7-2.691"/><path class="m" d="M938.917,738.416s17.6,14.237,64.167-1.445"/><path class="m" d="M938.1,752.844s27.478,11.587,64.768-1.937"/><path class="m" d="M1009.439,645.514s13.07,9.026,53.763-2.009"/><path class="m" d="M1011.064,660.651s17.811,6.511,52.385-2.814"/><path class="m" d="M1011.677,677.554s27.126,5.69,53.076-4.565"/><path class="m" d="M1012.5,691.545s26.687,9.216,53.969-4.642"/><path class="m" d="M1013.382,706.907s25.21,6.482,55.111-4.74"/><path class="m" d="M1014.253,721.659s21.423,7.48,56.471-4.857"/><path class="m" d="M1015.373,734.681s25.576,10.514,57.832-3.623"/><path class="m" d="M1016.184,751.01s28.668,7.046,60.182-4.477"/><path class="n" d="M934.212,416.823s2.732,13.428,12.958,18.252-18.59,5.55-18.59,5.55,1.221-14.007-2.216-21.459S934.212,416.823,934.212,416.823Z"/><ellipse class="h" cx="20.081" cy="14.718" rx="20.081" ry="14.718" transform="translate(906.942 416.469) rotate(-68.921)"/><path class="g" d="M838.827,629.456c25.958-5.69,50.441-18.267,62.827-43.51.045.068.089.123.134.19.134.168.268.347.4.548a.593.593,0,0,1,.089.123c3.566,4.874,21.073,28.809,21.073,28.82,6.35,8.273,16.053,16.221,23.756,19.418.5.224,1.017.414,1.486.582,18.882,2.951,97.517-26.931,106.885-34.4,4.226-3.365,5.88-19.138,6.215-36.243.425-20.849-1.084-43.71-2.191-48.528-1.878-8.083-39-97.5-97.259-91.849a59.789,59.789,0,0,0-15.159,3.555s-.436.459-1.207,1.141a28.693,28.693,0,0,1-5.265,3.745,22.355,22.355,0,0,1-5.378,2.157,16.482,16.482,0,0,1-10.989-.894c-3.644-1.632-11.738.279-21.564,5.768-13.65,7.613-30.676,22.135-43.812,43.6a1.481,1.481,0,0,0-.112.179,140.448,140.448,0,0,0-18.825,51.681A333.236,333.236,0,0,0,838.827,629.456Z"/><path class="o" d="M901.657,585.941c.044.069.1.123.139.192.132.17.268.352.4.547.035.036.058.076.095.123,3.567,4.873,21.064,28.817,21.067,28.827,6.353,8.265,16.054,16.219,23.763,19.413-8.761-13.986-35.075-54.256-39.887-72.209C909.847,580.743,901.654,585.93,901.657,585.941Z"/><path class="o" d="M937.112,438.084c.424,1.262,0,2.3-2.131,2.631-6.643,1.039-13.8,3.373-18.32,7.337a4.645,4.645,0,0,1-4.36,1.1c-3.938-.959-7.763-6.187-9.362-8.533a1.91,1.91,0,0,1-.255-.543c9.83-5.489,17.916-7.4,21.567-5.762a16.452,16.452,0,0,0,10.986.885A9.056,9.056,0,0,1,937.112,438.084Z"/><path class="p" d="M926.881,390.281s18.7,22.347,19.8-1.538C947.439,372.219,914.3,374.6,926.881,390.281Z"/><path class="p" d="M932.277,386.554s-16.345,2.765-18.113,11.178c0,0,6.178-24.77,19.634-20.266s18.084,7.754,7.275,32.3C941.073,409.765,944.894,388.4,932.277,386.554Z"/><path class="p" d="M933.162,377.4s3.507-7.108,10.407-3.251,8.421,9.236,7.855,13.811-.728,8.106.315,8.508c0,0-4.335,1.923-4.976.478,0,0-.184,8.545-6,13.378,0,0,2.3-10.01-2.51-13.063S933.162,377.4,933.162,377.4Z"/><path class="p" d="M933.854,377.591s-4.009-5.139-12.039.152l-5.542,5.053s.641,1.445,3.13,1.206c0,0-3.784,6.983-4.386,11.516l7.917-11.353Z"/><path class="q" d="M923.745,583.418l85.059,34.814a9.7,9.7,0,0,0,12.64-5.295L1045.2,554.88a2.925,2.925,0,0,0,.148-.419,9.663,9.663,0,0,0-5.449-12.212l-85.06-34.814a9.683,9.683,0,0,0-12.631,5.3L919.546,568.1l-1.1,2.69A9.682,9.682,0,0,0,923.745,583.418Z"/><path class="r" d="M925,580.308l85.06,34.814a9.681,9.681,0,0,0,12.63-5.3l22.662-55.36a9.663,9.663,0,0,0-5.449-12.212l-85.06-34.814a9.683,9.683,0,0,0-12.631,5.3L919.546,568.1A9.663,9.663,0,0,0,925,580.308Z"/><circle class="s" cx="7.481" cy="7.481" r="7.481" transform="translate(975.945 553.65)"/><path class="o" d="M1048.014,565.415s-8.157-32.4-90.655,3.9,70.348,1.164,70.348,1.164Z"/><path class="o" d="M1011.3,483.678s-2.9,87.484,81.1,99.192l1.8.55-5.967-18.592s-49.341-38.2-49.846-39.416S1011.3,483.678,1011.3,483.678Z"/><path class="f" d="M968.916,578.912c-1.117-.038-13.75-3.256-19.721-2.058s-14.732,3.55-17.986,3.593c-3.829.05-4.3,1.718.227,2.056a59.792,59.792,0,0,0,10.037-.142c.589-.15-3.349.471-7.718.847-4.646.4-9.759.583-9.743,1.427.03,1.637,13.644,1.272,15.936.849a58.1,58.1,0,0,1-6.064,1.038c-2.781.32-6.088.289-6.519,1.015-.679,1.143,6.776,1.768,12.52.887.15.149-1.549.961-8.441,1.55-.693.059-2.268.84.162,1.19,5.116.737,7.261,1.431,13.836-.311,6.412-1.7,13.034-5.1,18.061-4.931Z"/><path class="f" d="M952.166,576.591s-6.461-3.7-12.239-2.9c-3.434.473-3.6-.376-4.237-.455-2.1-.264.726,2.648,3.779,2.7,2.481.043,4.9,3.538,6.511,3.953s6.134.7,6.992-.132S952.166,576.591,952.166,576.591Z"/><path class="g" d="M1021.8,421.736c25.567,12.03,44.535,24.63,69.712,77.188,12.774,26.666,19.978,54.995,23.234,70.1a18.2,18.2,0,0,1-7.457,18.74c-56.992,39.726-144.341.471-144.341.471-4.023-.267-.589-15.352-.589-15.352,34.841-10.8,61.941-17.721,92.99-15.324-.16-.024-42.673-43.054-50.573-56.068-20.7-34.133-62.043-56.677-58.153-73.64C947.967,421.981,996.011,409.6,1021.8,421.736Z"/><path class="t" d="M1038.429,893.237c-.45-2.037,17.324-.932,19.126.6s27.947,6.282,28.115,15.008-40.91,5.388-43.819,5.432S1039.313,897.24,1038.429,893.237Z"/></g><path class="b" d="M198.39,267.25v207l-51,8.1-16,2.53-59,9.37v-247l59,9.37,16,2.53Z"/><path class="u" d="M198.39,267.25,200,318l.8,25.68c.12,4.3.32,8.57.38,12.91s0,8.73,0,13.09l.18,104.54v2.56l-2.53.4-126,20-3.47.55v-254l3.47.55,15.75,2.5c5.25.84,10.5,1.67,15.76,2.44s10.47,1.86,15.7,2.83l15.67,3,15.76,3,15.88,3.12C177.91,263.23,188.2,265.33,198.39,267.25Zm0,0c-10.81-1.42-21.51-2.65-32-3.92l-15.62-1.89-15.75-2-15.83-2c-5.27-.69-10.56-1.27-15.8-2.17s-10.49-1.74-15.74-2.56l-15.75-2.5,3.47-3v247l-3.47-3,126-20-2.53,3,.18-102.46c0-4.27-.07-8.5,0-12.79s.26-8.64.38-13l.8-26.07Z"/><path class="v" d="M1187.039,299.194v207l51,8.1,16,2.53,59,9.37v-247l-59,9.37-16,2.53Z"/><path class="t" d="M1238.039,291.094v223.2l16,2.53V288.564Z"/><path class="t" d="M1187.039,362.014v18.12l51-5.9,16-1.85,59-6.82v-18.12l-59,6.82-16,1.85Z"/><path class="w" d="M159.465,331.116A22.07,22.07,0,1,0,135.793,353l-1.195,2.484a3.552,3.552,0,0,0,2.463.844c.04.31.081.622.124.939.451,3.366.917,6.847-.38,9.587-.387.817-.859,1.615-1.317,2.386a23.034,23.034,0,0,0-1.667,3.177c-1.148,2.884.2,5.576,1.507,8.179a17.072,17.072,0,0,1,1.936,5.163,17.413,17.413,0,0,1-.244,5.355,18.441,18.441,0,0,0,.465,9.342.267.267,0,0,0,.256.189.263.263,0,0,0,.077-.012A.265.265,0,0,0,138,400.3a17.987,17.987,0,0,1-.448-9.1,17.829,17.829,0,0,0,.245-5.509,17.458,17.458,0,0,0-1.987-5.33c-1.31-2.613-2.547-5.081-1.488-7.742a22.523,22.523,0,0,1,1.63-3.1c.463-.781.943-1.59,1.34-2.429,1.365-2.883.888-6.444.426-9.887-.043-.32-.085-.635-.125-.948a4.973,4.973,0,0,0,1.68-.556l-.855-2.654A22,22,0,0,0,159.465,331.116Z"/><path class="x" d="M137.4,353.061a21.945,21.945,0,1,1,0-43.889s-20.772,5.336-18.094,24.219C121.567,349.372,137.4,353.061,137.4,353.061Z"/><g class="y"><path class="b" d="M151.723,319.021c1.6,2.5,1.716,5.282.262,6.214s-3.927-.338-5.526-2.838-1.716-5.281-.262-6.214S150.124,316.521,151.723,319.021Z"/></g><path class="p" d="M127.616,309.649a16.181,16.181,0,1,0-17.279,15.9l-.71,1.486a1.8,1.8,0,0,0,1.332.673c-.008,3.378-.044,6.62-.119,10.582-.086,4.6-.763,5.766-1.545,7.118a12.892,12.892,0,0,0-1.727,4.766,53.275,53.275,0,0,0,.193,8.372c.453,7.511,1.073,17.8-.706,23.042a.253.253,0,0,0,.159.321.23.23,0,0,0,.081.014.254.254,0,0,0,.24-.172c1.81-5.339,1.187-15.683.731-23.236a53.875,53.875,0,0,1-.2-8.248,12.323,12.323,0,0,1,1.667-4.6c.818-1.413,1.525-2.634,1.614-7.363.075-3.976.111-7.228.118-10.619a2.386,2.386,0,0,0,1.491-.687l-.49-1.439A16.038,16.038,0,0,0,127.616,309.649Z"/><path class="z" d="M109.317,325.415c-8.144-1.311-14.08-7.177-14.013-15.624a16.011,16.011,0,0,1,16.873-16.068s-14.627,4.725-14.039,16.108A17.329,17.329,0,0,0,109.317,325.415Z"/><circle class="aa" cx="1.123" cy="1.123" r="1.123" transform="translate(107.251 304.124)"/><circle class="aa" cx="1.123" cy="1.123" r="1.123" transform="translate(114.654 304.124)"/><path class="aa" d="M112.075,309.176a1.806,1.806,0,0,1-1.861-1.789.225.225,0,0,1,.449,0,1.414,1.414,0,0,0,2.825,0,.224.224,0,0,1,.449,0A1.807,1.807,0,0,1,112.075,309.176Z"/><g class="y"><ellipse class="b" cx="2.253" cy="3.87" rx="2.253" ry="3.87" transform="translate(115.796 299.409) rotate(-32.556)"/></g><path class="ab" d="M143.667,410.365a16.459,16.459,0,0,0-3.266,32.742c.173.017.345.026.517.038l-.884,2.036s.4.621,1.814.665c.019,0,.036,0,.055,0a14.769,14.769,0,0,1-1.059,3.633,12.656,12.656,0,0,0-1.159,4.815,20.3,20.3,0,0,0,2.027,7.551c.216.517.43,1.033.634,1.55a.251.251,0,0,0,.233.159.245.245,0,0,0,.091-.018.249.249,0,0,0,.142-.324c-.205-.521-.421-1.039-.638-1.56a19.918,19.918,0,0,1-1.988-7.367,12.245,12.245,0,0,1,1.125-4.625,14.964,14.964,0,0,0,1.1-3.851,2.589,2.589,0,0,0,1.561-.846l-.708-1.834a16.5,16.5,0,0,0,.4-32.761Z"/><path class="ac" d="M140.811,443.129c-9.192-.766-15.425-8.7-14.664-17.835a16.108,16.108,0,0,1,18.247-14.845s-16.025,2.45-15.428,16.855C129.471,439.5,140.811,443.129,140.811,443.129Z"/><g class="y"><path class="b" d="M152.488,417.328c1.138,1.78,1.222,3.762.187,4.427s-2.8-.241-3.937-2.022-1.222-3.762-.187-4.427S151.349,415.547,152.488,417.328Z"/></g><path class="g" d="M152.251,362.256c-11.285-1.13-21.373,7.364-22.531,18.971s7.053,21.932,18.339,23.062c.222.022.442.034.663.049l-1.135,2.614s.512.8,2.329.853c.067,0,.131,0,.2,0a34.163,34.163,0,0,0,1,4.728c.855,3.319,1.739,6.75.682,9.037-1.545,3.343-.887,5.531-.19,7.848.21.7.427,1.422.59,2.2a.32.32,0,0,0,.314.256.3.3,0,0,0,.066-.007.321.321,0,0,0,.249-.38c-.168-.8-.389-1.538-.6-2.251-.689-2.291-1.284-4.27.159-7.392,1.153-2.5.24-6.039-.644-9.467a33.934,33.934,0,0,1-.978-4.633,3.289,3.289,0,0,0,1.89-1.07l-.908-2.354a20.959,20.959,0,0,0,18.855-19C171.747,373.71,163.537,363.385,152.251,362.256Z"/><path class="o" d="M148.585,404.317c-11.8-.983-19.8-11.175-18.826-22.9a20.681,20.681,0,0,1,23.426-19.058S132.612,365.509,133.379,384C134.027,399.653,148.585,404.317,148.585,404.317Z"/><g class="y"><path class="b" d="M163.729,373.221c1.462,2.286,1.57,4.83.241,5.683s-3.592-.31-5.054-2.6-1.569-4.831-.24-5.683S162.268,370.935,163.729,373.221Z"/></g><path class="aa" d="M142.481,375.739a.239.239,0,0,1-.239-.239,1.881,1.881,0,1,0-3.762,0,.239.239,0,1,1-.478,0,2.359,2.359,0,1,1,4.719,0A.239.239,0,0,1,142.481,375.739Z"/><path class="aa" d="M152.328,375.739a.239.239,0,0,1-.24-.239,1.881,1.881,0,1,0-3.761,0,.239.239,0,0,1-.479,0,2.359,2.359,0,1,1,4.719,0A.239.239,0,0,1,152.328,375.739Z"/><path class="aa" d="M148.847,377.554h-7.114a.408.408,0,0,0-.408.408c0,2.527,1.779,4.582,3.965,4.582s3.966-2.055,3.966-4.582A.409.409,0,0,0,148.847,377.554Z"/></svg>