<svg xmlns="http://www.w3.org/2000/svg" width="49.838" height="82.943" viewBox="0 0 49.838 82.943"><defs><style>.a{fill:#ffb0d7;}.b{fill:#e8a0c4;}.c{opacity:0.2;}.d{fill:#fff;}</style></defs><path class="a" d="M282.343,612.718c-13.689-1.37-25.926,8.933-27.33,23.012s8.555,26.6,22.244,27.973c.269.026.536.041.805.06l-1.376,3.171s.62.966,2.825,1.035c.031,0,.055,0,.086,0a22.929,22.929,0,0,1-1.65,5.657,19.7,19.7,0,0,0-1.8,7.5c.079,4.372,1.643,8.125,3.156,11.757.336.807.67,1.61.987,2.415a.391.391,0,0,0,.363.247.4.4,0,0,0,.143-.027.389.389,0,0,0,.22-.505c-.318-.811-.655-1.619-.992-2.43-1.486-3.563-3.021-7.248-3.1-11.471a19.11,19.11,0,0,1,1.751-7.2,23.3,23.3,0,0,0,1.715-6,4.031,4.031,0,0,0,2.43-1.319l-1.1-2.855a25.422,25.422,0,0,0,22.871-23.042C305.992,626.612,296.033,614.088,282.343,612.718Z" transform="translate(-254.881 -612.596)"/><g transform="translate(0.082 0.019)"><path class="b" d="M277.914,663.742c-14.315-1.192-24.021-13.554-22.835-27.771a25.085,25.085,0,0,1,28.415-23.118s-24.955,3.816-24.025,26.248C260.255,658.086,277.914,663.742,277.914,663.742Z" transform="translate(-254.981 -612.619)"/></g><g class="c" transform="translate(33.94 7.478)"><path class="d" d="M303.2,625.129c1.773,2.773,1.9,5.859.291,6.893s-4.357-.375-6.13-3.148-1.9-5.859-.291-6.893S301.422,622.356,303.2,625.129Z" transform="translate(-295.937 -621.642)"/></g></svg>