<svg xmlns="http://www.w3.org/2000/svg" width="425.937" height="451.182" viewBox="0 0 425.937 451.182"><defs><style>.a{fill:#bcd3d7;opacity:0.49;}.b,.c{fill:#caa267;}.b{fill-rule:evenodd;}.d{fill:#c2934e;}.e{fill:#8a7cc7;}.f{fill:#f1c759;}.g{opacity:0.15;}.h{fill:#5e5584;}.i{fill:#5e5587;}.j{opacity:0.3;}.k{opacity:0.5;}.l{fill:#eec459;}.m{fill:#959595;}.n{fill:#c8c8c8;}.o{fill:#7f7f7f;}.p{fill:none;stroke:#8a7cc7;stroke-miterlimit:10;stroke-width:0.861px;}</style></defs><g transform="translate(-911.383 -276.79)"><g transform="translate(911.383 307.422)"><path class="a" d="M1263.485,527.943c-7.444-67.464-11.165-101.2-23.865-123.659-42.429-75.051-159.449-124.931-238.642-82.44-4.121,2.21-60.669,33.589-65.084,86.778-3.7,44.534,32.89,59.322,95.456,147.525,66.985,94.431,65.633,134.692,109.524,146.473,41.555,11.155,92.8-11.507,116.1-46.678C1274.308,629.785,1270.936,595.482,1263.485,527.943Z" transform="translate(-910.411 -306.242)"/><circle class="a" cx="20.827" cy="20.827" r="20.827" transform="translate(364.216 190.469)"/><circle class="a" cx="8.735" cy="8.735" r="8.735" transform="translate(408.467 230.004)"/><circle class="a" cx="15.048" cy="15.048" r="15.048" transform="translate(23.722 167.243)"/><circle class="a" cx="6.126" cy="6.126" r="6.126" transform="translate(0 162.376)"/><circle class="a" cx="4.495" cy="4.495" r="4.495" transform="translate(376.91 159.729)"/><circle class="a" cx="4.495" cy="4.495" r="4.495" transform="translate(60.567 220.637)"/></g><g transform="translate(1005.653 276.79)"><g transform="translate(0 248.396)"><path class="b" d="M1013.586,526.1s-6.15,2.7-8.675,7.316c-1.5,2.745-2.208,2.412-2.605,2.828-1.32,1.383,2.31.9,3.988-1.29,1.362-1.776,5.2-1.655,6.362-2.6s3.8-4.07,3.659-5.141S1013.586,526.1,1013.586,526.1Z" transform="translate(-1002.023 -515.2)"/><path class="b" d="M1024.187,515.62c-.627.789-9.744,8.222-12.082,13.194s-5.337,12.589-7.054,14.971c-2.02,2.8-1.064,4.042,1.613.939a53.887,53.887,0,0,0,5.287-7.354c.208-.506-1.456,2.682-3.531,6.052-2.2,3.583-4.818,7.389-4.2,7.831,1.2.857,8.25-9.21,9.173-11.1a52.652,52.652,0,0,1-2.5,4.955c-1.262,2.188-3.06,4.569-2.766,5.272.464,1.106,4.922-3.964,7.367-8.6.189-.028-.135,1.639-3.409,6.954-.329.534-.608,2.1.951.521,3.281-3.314,4.936-4.5,7.2-10.2,2.212-5.561,3.3-12.188,6.123-15.743Z" transform="translate(-1001.945 -515.62)"/></g><path class="c" d="M1160.647,587.7s-10.762,111.047-6.186,112.957c8.209,3.482,40.36,14.874,4.914,12.37-18.208,1.1-16.873-2.97-17.157-6.418-.233-2.816.3-102.2-.446-109.925-.167-1.731-.269-2.777-.269-2.777Z" transform="translate(-996.436 -264.337)"/><path class="c" d="M1096.557,587.763s4.667,111.047.09,112.957c-8.21,3.482-40.36,14.874-4.914,12.37,18.208,1.1,16.873-2.97,17.157-6.418.233-2.816,2.3-24.194,3.046-31.921.167-1.732,3.736-88.582,3.736-88.582Z" transform="translate(-999.083 -264.398)"/><path class="d" d="M1130.426,312.291s-.948,10.581,5.579,16.433-15.041,0-15.041,0,4.014-10.135,3.113-16.433S1130.426,312.291,1130.426,312.291Z" transform="translate(-997.259 -275.48)"/><ellipse class="c" cx="11.411" cy="15.568" rx="11.411" ry="15.568" transform="translate(118.314 9.777)"/><path class="e" d="M1205.725,413.643c-.242,3.822-4.195,21.139-9.135,36.532-4.048,12.637-8.772,23.982-12.654,25.55-8.615,3.468-73.661,8.226-87.035,1.846-.312-.234-.65-.485-.97-.762-5.018-4.082-10.461-12.143-13.347-19.691,0-.008-7.688-21.677-9.256-26.088-.018-.044-.026-.078-.044-.113-.052-.173-.112-.338-.172-.494-.018-.06-.044-.112-.062-.173-8.095,27.639-29.632,88.343-47.053,107.575-1.828,2.02-10.245-9.308-10.245-9.308s-14.067-72.639,22.63-149.4c17.273-36.134,48.1-52.618,67.786-56.995,8.519-1.9,14.951-1.526,17.3.5a12.753,12.753,0,0,0,7.965,3.094,17.276,17.276,0,0,0,4.472-.407,22.262,22.262,0,0,0,4.741-1.612c.728-.338,1.153-.581,1.153-.581a46.255,46.255,0,0,1,12.047.72C1198.375,332.554,1206.124,407.22,1205.725,413.643Z" transform="translate(-1001.579 -275.024)"/><path class="f" d="M1091.478,469.1a7.033,7.033,0,0,0,3.993,1.842c9.38.184,49.895.878,71.872-.385,7.754-.447,13.2-1.136,14.156-2.181,0,0,0,.031-.006.089-.057,1.211-.753,15.08-1.729,33.26-1.925,35.887,1.784,87.287,6.118,102.887.935,3.367-49.4-1.734-49.4-1.734-.139-37.035,3.374-102.053,1.1-104.968-2.761-3.544-7.238,53.645-12.371,101.5-19.934,5.2-51.5,2.043-51.135,0C1078.411,575.148,1091.478,469.1,1091.478,469.1Z" transform="translate(-999.137 -269.116)"/><path class="g" d="M1070.744,426.651c.017.06.043.112.06.173.06.156.122.321.174.494.017.035.026.07.043.113,1.57,4.411,9.257,26.079,9.257,26.088,2.886,7.549,8.329,15.609,13.347,19.691-3.406-12.333-14.023-48.085-13.615-62.49C1077.981,424.6,1070.744,426.641,1070.744,426.651Z" transform="translate(-999.27 -271.426)"/><path class="g" d="M1171.012,376.375s-21.556,64.347,38.251,91.676l1.216.808-.309-15.135s-28.181-39.324-28.288-40.336S1171.012,376.375,1171.012,376.375Z" transform="translate(-995.405 -272.801)"/><path class="g" d="M1128.6,328.273c.035,1.031-.511,1.707-2.166,1.482-5.166-.7-11-.555-15.237,1.386a3.6,3.6,0,0,1-3.484-.148c-2.713-1.586-4.394-6.318-5.062-8.415a1.443,1.443,0,0,1-.069-.46c8.519-1.9,14.951-1.526,17.3.5a12.753,12.753,0,0,0,7.965,3.094A7.034,7.034,0,0,1,1128.6,328.273Z" transform="translate(-997.995 -275.024)"/><path class="h" d="M1110.466,695.246c.212-1.6-11.2-1.453-12.487-.151s-24.025,5.994-23.575,12.746,31.958,1.443,34.207,1.283S1110.049,698.4,1110.466,695.246Z" transform="translate(-999.124 -260.076)"/><path class="i" d="M1141.579,692.724c-.212-1.6,13.444.432,14.734,1.734s21.169,6.709,20.719,13.461-31.958,1.443-34.208,1.283S1142,695.875,1141.579,692.724Z" transform="translate(-996.435 -260.154)"/><g class="j" transform="translate(129.294 199.263)"><path d="M1126.788,471.191c-.152-.012-.3-.024-.451-.037C1126.337,471.154,1126.5,471.165,1126.788,471.191Z" transform="translate(-1126.337 -468.268)"/><path class="k" d="M1126.771,471.3c12.073.963,38.461-.743,38.461-.743,7.754-.447,13.2-1.136,14.156-2.181,0,0,0,.031-.006.089-.057,1.211-.753,15.08-1.729,33.26a9.17,9.17,0,0,1-1.269-.147,9.882,9.882,0,0,1-6.389-4.54,21.934,21.934,0,0,1-2.485-5.19C1158.509,474.725,1130.639,471.65,1126.771,471.3Z" transform="translate(-1126.32 -468.379)"/></g><g transform="translate(115.675)"><g transform="translate(2.409 4.341)"><path class="l" d="M1122.789,293.032s19.754,10.953,13.891-6.632C1132.623,274.233,1109.316,285.193,1122.789,293.032Z" transform="translate(-1115.435 -280.964)"/><path class="l" d="M1125.776,288.8s-11.053,6.559-9.987,13.137c0,0-2.437-19.641,8.552-20.135s15.245.567,14.27,21.337C1138.611,303.139,1135.418,286.618,1125.776,288.8Z" transform="translate(-1115.559 -280.933)"/></g><path class="l" d="M1123.543,282.128s.554-6.12,6.622-5.253,8.667,4.334,9.533,7.8,1.734,6.068,2.6,6.068c0,0-2.6,2.6-3.466,1.733,0,0,2.25,6.233-.609,11.35,0,0-1.125-7.883-5.458-8.75S1123.543,282.128,1123.543,282.128Z" transform="translate(-1112.83 -276.79)"/><path class="l" d="M1124.51,281.892s-4.333-2.6-8.667,3.468l-2.6,5.2s.867.866,2.6,0c0,0-.789,6.106.038,9.553l2.562-10.42Z" transform="translate(-1113.243 -276.608)"/></g><path class="m" d="M1099.364,395.46l10.99,70.4a7.519,7.519,0,0,0,8.58,6.266l48.05-7.506a2.285,2.285,0,0,0,.338-.069,7.491,7.491,0,0,0,5.92-8.511l-10.99-70.4a7.506,7.506,0,0,0-8.58-6.257l-45.823,7.15-2.227.346A7.507,7.507,0,0,0,1099.364,395.46Z" transform="translate(-998.127 -272.685)"/><path class="n" d="M1101.831,395.044l10.989,70.4a7.508,7.508,0,0,0,8.58,6.258l45.823-7.15a7.491,7.491,0,0,0,5.92-8.511l-10.99-70.4a7.506,7.506,0,0,0-8.58-6.257l-45.823,7.15A7.491,7.491,0,0,0,1101.831,395.044Z" transform="translate(-998.029 -272.685)"/><circle class="o" cx="5.8" cy="5.8" r="5.8" transform="translate(134.147 147.649)"/><path class="g" d="M1183.111,443.317s1.126-25.879-68.21-17.212,52,16.467,52,16.467Z" transform="translate(-998.359 -270.881)"/><g transform="translate(88.362 45.799)"><g transform="translate(0 107.434)"><path class="b" d="M1121.618,435.648c-.822-.276-9.493-5.469-14.194-5.9s-11.732-.63-14.159-1.321c-2.855-.811-3.577.322-.287,1.579a46.423,46.423,0,0,0,7.489,2.12c.47.02-2.593-.392-5.922-1.083-3.539-.733-7.378-1.731-7.554-1.1-.341,1.222,9.854,3.971,11.651,4.165a45.151,45.151,0,0,1-4.735-.574c-2.137-.379-4.587-1.136-5.068-.692-.758.7,4.642,2.816,9.1,3.435.077.145-1.365.37-6.615-.72-.528-.11-1.872.121-.144.919,3.637,1.682,5.077,2.674,10.348,2.838,5.14.16,10.813-.9,14.51.342Z" transform="translate(-1086.982 -423.96)"/><path class="b" d="M1109.281,430.37s-3.98-4.18-8.448-4.87c-2.656-.41-2.594-1.079-3.047-1.278-1.5-.661-.048,2.129,2.208,2.845,1.835.582,2.858,3.716,3.961,4.381s4.4,1.884,5.224,1.453S1109.281,430.37,1109.281,430.37Z" transform="translate(-1086.574 -424.121)"/></g><path class="e" d="M1194.714,334.914c16.326,14.607,27.622,28.174,34.668,72.8,3.574,22.643,2.644,45.286,1.713,57.226a14.107,14.107,0,0,1-9.7,12.267c-51.15,16.872-107.334-31.663-107.334-31.663-2.929-1.09,2.968-11.535,2.968-11.535,28.277-.293,49.945.573,72.479,9.241-.115-.054-22.152-41.448-25.134-52.869-7.811-29.948-33.521-55.866-26.869-67.6C1139.809,318.72,1178.246,320.179,1194.714,334.914Z" transform="translate(-1085.93 -320.825)"/></g><g transform="translate(88.362 199.111)"><line class="p" x1="12.783" y2="133.665"/><line class="p" x1="12.686" y2="131.337" transform="translate(12.783 2.673)"/><line class="p" x1="10.55" y2="130.419" transform="translate(27.32 2.673)"/><line class="p" x2="0.272" y2="27.015" transform="translate(49.813 2.673)"/><line class="p" x1="2.448" y2="133.062" transform="translate(60.623 2.673)"/><line class="p" x1="0.682" y2="134.178" transform="translate(73.797 2.59)"/><line class="p" x2="2.581" y2="134.949" transform="translate(85.691 2.59)"/></g><path class="p" d="M1089.146,482.445s71.983,3.4,91,0" transform="translate(-998.533 -268.553)"/><path class="p" d="M1137.036,496.9c-25.186,5.7-49.289-3.313-49.289-3.313" transform="translate(-998.589 -268.106)"/><path class="p" d="M1134.877,495.139s22.729,6.387,42.694.993" transform="translate(-996.701 -268.044)"/><path class="p" d="M1086.557,503.01s18.15,9.5,47.631,4.658" transform="translate(-998.637 -267.729)"/><path class="p" d="M1085.128,514.227s28.245,8.623,47.722,4.185" transform="translate(-998.694 -267.28)"/><path class="p" d="M1083.695,525.37s14.385,11.276,47.738,6.219" transform="translate(-998.751 -266.833)"/><path class="p" d="M1082.028,538.188a69.982,69.982,0,0,0,48.378,3.644" transform="translate(-998.818 -266.32)"/><path class="p" d="M1080.478,549.93s15.535,11.028,48.685,4.622" transform="translate(-998.88 -265.85)"/><path class="p" d="M1078.857,561.967s21.442,11.209,49.382,2.153" transform="translate(-998.945 -265.367)"/><path class="p" d="M1077.56,571.362s12.65,12.167,49.659,3.146" transform="translate(-998.997 -264.991)"/><path class="p" d="M1076.031,582.025s20.455,10.776,50.158,2.807" transform="translate(-999.058 -264.564)"/><path class="p" d="M1135.87,506.87s9.5,7.84,41.661,2.02" transform="translate(-996.661 -267.574)"/><path class="p" d="M1136.11,518.216s13.324,6.212,40.651,1.306" transform="translate(-996.652 -267.12)"/><path class="p" d="M1135.485,530.808s20.574,6.2,41.3,0" transform="translate(-996.677 -266.616)"/><path class="p" d="M1135.2,541.252s20,8.891,42,0" transform="translate(-996.688 -266.197)"/><path class="p" d="M1134.877,552.717s19.042,6.682,42.884,0" transform="translate(-996.701 -265.738)"/><path class="p" d="M1134.581,563.729s16.051,7.2,43.942,0" transform="translate(-996.713 -265.297)"/><path class="p" d="M1134.581,573.471s19.057,9.821,44.912,1.044" transform="translate(-996.713 -264.907)"/><path class="p" d="M1134.14,585.651a88.109,88.109,0,0,0,46.785.54" transform="translate(-996.731 -264.419)"/></g></g></svg>