<svg xmlns="http://www.w3.org/2000/svg" width="68.733" height="142.437" viewBox="0 0 68.733 142.437"><defs><style>.a{fill:#8dcdbb;}.b{fill:#81bbaa;}.c{opacity:0.2;}.d{fill:#fff;}</style></defs><path class="a" d="M303.449,456.3a34.367,34.367,0,1,0-36.862,34.072l-1.859,3.869a5.536,5.536,0,0,0,3.834,1.314c.062.482.127.968.193,1.462.7,5.242,1.429,10.662-.592,14.929-.6,1.272-1.338,2.513-2.05,3.714a35.914,35.914,0,0,0-2.6,4.948c-1.787,4.491.314,8.683,2.347,12.736a26.611,26.611,0,0,1,3.014,8.039,27.094,27.094,0,0,1-.38,8.339,28.716,28.716,0,0,0,.725,14.547.416.416,0,0,0,.8-.241,27.984,27.984,0,0,1-.7-14.178,27.82,27.82,0,0,0,.381-8.578,27.167,27.167,0,0,0-3.1-8.3c-2.039-4.069-3.966-7.911-2.316-12.055a35.112,35.112,0,0,1,2.538-4.833c.722-1.217,1.468-2.475,2.087-3.782,2.125-4.49,1.382-10.034.664-15.4-.067-.5-.132-.99-.2-1.476a7.779,7.779,0,0,0,2.616-.866l-1.331-4.133A34.256,34.256,0,0,0,303.449,456.3Z" transform="translate(-234.716 -422.129)"/><path class="b" d="M269.083,490.471a34.172,34.172,0,1,1,0-68.342s-32.346,8.308-28.177,37.712C244.434,484.728,269.083,490.471,269.083,490.471Z" transform="translate(-234.716 -422.129)"/><g class="c" transform="translate(46.488 10.441)"><path class="d" d="M301.14,439.654c2.489,3.892,2.672,8.225.408,9.676s-6.116-.526-8.6-4.419-2.672-8.225-.408-9.676S298.651,435.762,301.14,439.654Z" transform="translate(-290.95 -434.759)"/></g></svg>