<svg xmlns="http://www.w3.org/2000/svg" width="49.838" height="97.407" viewBox="0 0 49.838 97.407"><defs><style>.a{fill:#ffb0d7;}.b{fill:#e8a0c4;}.c{opacity:0.2;}.d{fill:#fff;}</style></defs><path class="a" d="M1027.785,389.741c-13.689-1.37-25.925,8.933-27.329,23.012s8.554,26.6,22.244,27.973c.27.027.537.042.805.06l-1.376,3.171s.62.966,2.825,1.035c.031,0,.056,0,.086,0a22.949,22.949,0,0,1-1.65,5.658,19.707,19.707,0,0,0-1.8,7.5c.078,4.371,1.643,8.126,3.155,11.758,2.183,5.24,4.245,10.19,1.846,16.6a.39.39,0,0,0,.229.5.377.377,0,0,0,.136.026.39.39,0,0,0,.365-.254c2.507-6.7.288-12.021-1.857-17.17-1.485-3.564-3.02-7.249-3.1-11.472a19.091,19.091,0,0,1,1.751-7.2,23.341,23.341,0,0,0,1.714-6,4.036,4.036,0,0,0,2.43-1.319l-1.1-2.855a25.424,25.424,0,0,0,22.871-23.043C1051.434,403.635,1041.475,391.111,1027.785,389.741Z" transform="translate(-1000.324 -389.619)"/><g transform="translate(0.082 0.02)"><path class="b" d="M1023.356,440.766c-14.315-1.192-24.02-13.555-22.835-27.772a25.084,25.084,0,0,1,28.415-23.117s-24.955,3.815-24.025,26.247C1005.7,435.109,1023.356,440.766,1023.356,440.766Z" transform="translate(-1000.423 -389.643)"/></g><g class="c" transform="translate(33.939 7.478)"><path class="d" d="M1048.637,402.152c1.773,2.773,1.9,5.859.291,6.894s-4.357-.375-6.13-3.148-1.9-5.859-.291-6.894S1046.864,399.379,1048.637,402.152Z" transform="translate(-1041.379 -398.665)"/></g></svg>