<svg xmlns="http://www.w3.org/2000/svg" width="45.745" height="65.166" viewBox="0 0 45.745 65.166"><defs><style>.a{fill:#fff;}.b{fill:#201600;}.c{fill:#737373;}.d{fill:#232323;}.e{fill:#636363;}</style></defs><g transform="translate(-1060.509 -307.013)"><g transform="translate(1060.509 307.013)"><g transform="translate(0 0)"><rect class="a" width="44.959" height="64.381" transform="translate(0.393 0.392)"/><path class="b" d="M381.169,271.513H335.424V206.347h45.745Zm-44.96-.785h44.174v-63.6H336.209Z" transform="translate(-335.424 -206.347)"/></g><g transform="translate(11.321 9.675)"><path class="c" d="M372.957,238.913h-23.1V218.679h23.1Zm-22.71-.392h22.317V219.072H350.247Z" transform="translate(-349.854 -218.679)"/></g><g transform="translate(11.518 13.231)"><rect class="c" width="22.71" height="0.393"/></g><g transform="translate(19.006 13.427)"><rect class="c" width="0.393" height="16.286"/></g><g transform="translate(19.006 13.427)"><rect class="c" width="0.393" height="16.286"/></g><g transform="translate(26.232 13.427)"><rect class="c" width="0.393" height="16.286"/></g><g transform="translate(11.749 17.341)"><rect class="c" width="22.48" height="0.313"/></g><g transform="translate(11.633 21.412)"><rect class="c" width="22.48" height="0.313"/></g><g transform="translate(11.517 25.481)"><rect class="c" width="22.48" height="0.313"/></g><g transform="translate(11.518 9.871)"><rect class="c" width="22.709" height="3.555"/></g><g transform="translate(5.139 37.201)"><path class="d" d="M352.831,252.484h-3.539v9.426h-1.422v-9.426h-3.509v-1.269h8.469Z" transform="translate(-344.362 -251.215)"/><path class="d" d="M359.809,261.331a3.81,3.81,0,0,1-2.706.979,2.857,2.857,0,0,1-1.9-.623,2.006,2.006,0,0,1-.745-1.61q0-2.715,4.676-2.712h.671a5.968,5.968,0,0,0-.087-1.207,1,1,0,0,0-.489-.624,2.5,2.5,0,0,0-1.277-.249q-1.839,0-1.9,1.313h-1.372q.153-2.386,3.341-2.386a3.959,3.959,0,0,1,2.319.591,2.69,2.69,0,0,1,.832,2.321v5h-1.372Zm0-1.24v-1.713h-.941q-2.991,0-2.991,1.626a1.057,1.057,0,0,0,.438.909,1.968,1.968,0,0,0,1.181.317,2.988,2.988,0,0,0,1.313-.306A2.512,2.512,0,0,0,359.809,260.091Z" transform="translate(-345.096 -251.433)"/><path class="d" d="M365.281,255.1a2.927,2.927,0,0,1,4.559-.026,4.633,4.633,0,0,1,.832,2.906,4.521,4.521,0,0,1-.931,3.01,2.939,2.939,0,0,1-2.345,1.105,3.029,3.029,0,0,1-2.114-.782v.6H363.9v-10.7h1.379Zm0,4.974a2.707,2.707,0,0,0,2.028.941,1.638,1.638,0,0,0,1.415-.761,4.03,4.03,0,0,0,.525-2.274,3.909,3.909,0,0,0-.5-2.17,1.578,1.578,0,0,0-1.386-.74,2.613,2.613,0,0,0-2.086,1.327Z" transform="translate(-345.782 -251.215)"/><path class="d" d="M374.241,261.91h-1.379v-10.7h1.379Z" transform="translate(-346.433 -251.215)"/><path class="d" d="M379.787,262.31a3.648,3.648,0,0,1-2.743-1.069,4.1,4.1,0,0,1-1.036-2.98,4.186,4.186,0,0,1,1-2.972,3.781,3.781,0,0,1,5.266-.018,4.213,4.213,0,0,1,.989,2.99v.329h-5.829a2.99,2.99,0,0,0,.741,1.991,2.19,2.19,0,0,0,1.608.649,2.384,2.384,0,0,0,1.3-.368,1.241,1.241,0,0,0,.609-1.048h1.423a2.563,2.563,0,0,1-1.083,1.845A3.814,3.814,0,0,1,379.787,262.31Zm2.028-4.8a2.8,2.8,0,0,0-.752-1.669,2.1,2.1,0,0,0-2.844,0,2.739,2.739,0,0,0-.752,1.673Z" transform="translate(-346.661 -251.433)"/></g><g transform="translate(19.576 55.253)"><path class="e" d="M363.672,282.482l3.3-5.709h-6.592Z" transform="translate(-360.376 -276.773)"/></g></g></g></svg>