<svg xmlns="http://www.w3.org/2000/svg" width="34.819" height="34.819" viewBox="0 0 34.819 34.819"><defs><style>.a{fill:#2196f3;}.b{fill:#fff;}.c{fill:#0d47a1;}</style></defs><g transform="translate(-238.872 -288.001)"><path class="a" d="M323.348,302.528H307.873V329.61h15.475a.967.967,0,0,0,.967-.967V303.5A.966.966,0,0,0,323.348,302.528Z" transform="translate(-50.624 -10.658)"/><path class="b" d="M307.873,320.69h13.541v1.933H307.873Zm0,3.868h13.541v1.935H307.873Zm0,3.87h13.541v1.934H307.873Zm0,3.869h13.541v1.934H307.873Zm0,3.868h13.541V338.1H307.873Z" transform="translate(-50.624 -23.983)"/><path class="c" d="M259.183,322.82l-20.311-3.869V291.87L259.183,288Z" transform="translate(0)"/><path class="b" d="M260.757,341.494h-2.628l-1.743-8.693a9.023,9.023,0,0,1-.168-1.524h-.031A11.3,11.3,0,0,1,256,332.8l-1.789,8.693h-2.734l-2.766-13.555h2.587l1.486,9.022a15.5,15.5,0,0,1,.138,1.554h.041a9.632,9.632,0,0,1,.216-1.591l1.905-8.986h2.536l1.727,9.1c.06.337.115.818.164,1.462h.03a12.158,12.158,0,0,1,.155-1.512l1.454-9.045h2.387Z" transform="translate(-7.215 -29.301)"/></g></svg>