<svg xmlns="http://www.w3.org/2000/svg" width="30.451" height="30.451" viewBox="0 0 30.451 30.451">
  <g id="Group_46437" data-name="Group 46437" transform="translate(-598.549 -208.157)">
    <g id="Group_46433" data-name="Group 46433" transform="translate(598.549 208.157)">
      <circle id="Ellipse_8998" data-name="Ellipse 8998" cx="15.226" cy="15.226" r="15.226" fill="#947dce"/>
    </g>
    <g id="Group_46436" data-name="Group 46436" transform="translate(605.428 215.398)">
      <g id="Group_46434" data-name="Group 46434" transform="translate(3.94)">
        <path id="Path_58694" data-name="Path 58694" d="M630.486,237.776a6.2,6.2,0,1,1,4.383-1.813h0A6.181,6.181,0,0,1,630.486,237.776Zm0-10.87a4.674,4.674,0,1,0,3.307,1.367A4.662,4.662,0,0,0,630.486,226.906Z" transform="translate(-624.29 -225.384)" fill="#fff"/>
      </g>
      <g id="Group_46435" data-name="Group 46435" transform="translate(0 9.28)">
        <path id="Path_58695" data-name="Path 58695" d="M615.677,254.515a.761.761,0,0,1-.538-1.3l5.53-5.529a.761.761,0,0,1,1.076,1.076l-5.53,5.53A.76.76,0,0,1,615.677,254.515Z" transform="translate(-614.916 -247.463)" fill="#fff"/>
      </g>
    </g>
  </g>
</svg>
