<svg xmlns="http://www.w3.org/2000/svg" width="528" height="357.78" viewBox="0 0 528 357.78"><defs><style>.a{fill:#bed5d9;opacity:0.49;}.b{opacity:0.1;}.c{fill:#caa267;fill-rule:evenodd;}.d{fill:#8c7cc9;}.e{fill:#e4a653;}</style></defs><g transform="translate(-834.779 -326.564)"><g transform="translate(834.779 326.564)"><path class="a" d="M1304.463,593.646c-6.241,4.14-10.54,5.955-20.538,9.744-9.936,3.758-25.475,9.394-54.166,21.112-3.726,1.5-7.674,3.12-11.846,4.841-1.751.732-3.407,1.4-5.031,2.07-2.166.923-4.2,1.782-6.146,2.579-12.992,5.477-21.048,9.012-27.608,11.846-4.618,2.038-8.5,3.757-12.834,5.509-9.552,3.917-20.857,8.533-33.531,13.087-33.817,12.132-77.284,23.6-122.055,18.788C955.747,677.33,883.941,645.3,852.065,579.253c-5.286-10.89-27.8-57.541-11.4-108.554,11.591-36.079,37.16-57.35,62.253-78.175a285.476,285.476,0,0,1,81.2-47.065c99-37.384,192.175-9.043,214.815-1.529,44.421,14.775,153.9,51.205,163.2,130.558C1367.385,519.2,1339.969,570.114,1304.463,593.646Z" transform="translate(-834.779 -326.564)"/><g transform="translate(243.012 176.634)"><path class="b" d="M1148.995,559.566c20.412,15.54,38.563,30.316,54.644,44.358-3.726,1.5-7.674,3.12-11.846,4.841-1.751.732-3.407,1.4-5.031,2.07-2.166.923-4.2,1.782-6.146,2.579-12.992,5.477-21.048,9.012-27.608,11.846-8.088-12.164-15.286-23.66-21.016-33.85-.956-1.751-1.88-3.407-2.771-5.062-6.114-11.369-10.094-20.826-10.985-27.258-.446-3.312-.1-5.827,1.21-7.419a4.541,4.541,0,0,1,1.974-1.433C1125.749,548.484,1134.538,551.128,1148.995,559.566Z" transform="translate(-1051.67 -482.62)"/><path class="c" d="M1122.4,559.626s2.857-24.859-7.263-41.649c-6.016-9.98-3.617-11.631-4.212-13.692-1.974-6.843-7.219,5.754-3.333,15.253,3.159,7.721-4.427,19.835-3.577,25.351s5.956,19.883,9.678,21.423S1122.4,559.626,1122.4,559.626Z" transform="translate(-1052.97 -486.99)"/><path class="c" d="M1141.744,615.74c-1.365-3.5-8.171-46.79-19.79-63.644s-32.788-45.642-37.235-55.638c-5.231-11.759-11.01-11.007-6.049,3.43,3.223,9.384,13.475,32.317,16.038,35.656a184.44,184.44,0,0,1-13.617-22.159c-2.346-4.587-4.351-3.762-6.69-1.92-4.349,3.426,4.914,15.891,7.217,22.692,0,0-3.877-6.054-9.356-16.319-2.069-3.875-4.5-1.838-6.732-.449s-2.347,4.8,7.991,21.37c.825,1.454,1.438,5.469-9.691-15.164-1.11-2.056-8.238-2.328-6.19,3.97,4.478,13.771,4.745,20.232,19.4,35.573,15.4,16.121,29.722,29.422,35.867,45.172Z" transform="translate(-1057.275 -488.286)"/><g transform="translate(49.688 97.772)"><path class="d" d="M1148.048,577.8q17.625,16.86,33.976,33.021c-12.992,5.477-21.048,9.012-27.608,11.846-4.618,2.038-8.5,3.757-12.834,5.509-9.552,3.917-20.857,8.533-33.531,13.087-3.662-22.641-4.808-36.333-4.808-36.333-1.37-2.9.319-5.923,3.726-8.852,5.381-4.618,15.062-9.012,23.659-12.323.51-.191.987-.382,1.465-.573C1140.788,579.9,1148.048,577.8,1148.048,577.8Z" transform="translate(-1102.768 -577.803)"/></g></g></g><g transform="translate(1030.908 379.567)"><path class="e" d="M1043.324,451.866a3.651,3.651,0,0,1-3.655-3.644v-.016a34.246,34.246,0,0,1,2.038-12.443,28.3,28.3,0,0,1,4.824-7.948,91.4,91.4,0,0,1,8.8-8.527q6.352-5.606,8.255-8.935a14.4,14.4,0,0,0,1.9-7.27,16.951,16.951,0,0,0-5.572-12.534,18.87,18.87,0,0,0-13.656-5.4,18.362,18.362,0,0,0-13.046,4.892q-4.373,4.089-6.23,12.022a3.7,3.7,0,0,1-4.028,2.862l-5.357-.638a3.684,3.684,0,0,1-3.173-4.4q2.287-11.067,9.446-17.387,8.392-7.4,22.183-7.405,14.607,0,23.3,7.949a25.113,25.113,0,0,1,8.7,19.227A24.358,24.358,0,0,1,1075,414.295q-3.057,5.5-11.958,13.384a60.653,60.653,0,0,0-7.814,7.813,17.411,17.411,0,0,0-2.718,5.776,36.135,36.135,0,0,0-.9,7.1,3.687,3.687,0,0,1-3.675,3.5Zm-4.334,20.846v-6.566a3.681,3.681,0,0,1,3.681-3.681h6.566a3.681,3.681,0,0,1,3.681,3.681v6.566a3.68,3.68,0,0,1-3.681,3.681h-6.566A3.68,3.68,0,0,1,1038.99,472.712Z" transform="translate(-1014.349 -375.092)"/></g></g></svg>