<svg xmlns="http://www.w3.org/2000/svg" width="397.375" height="269.266" viewBox="0 0 397.375 269.266"><defs><style>.a{fill:#bed5d9;opacity:0.49;}.b{opacity:0.1;}.c{fill:#caa267;fill-rule:evenodd;}.d{fill:#8c7cc9;}.e{fill:#e4a653;}</style></defs><g transform="translate(-817.233 -353.613)"><g transform="translate(817.233 353.613)"><path class="a" d="M1170.719,554.62c-4.7,3.115-7.932,4.482-15.457,7.333-7.478,2.828-19.172,7.07-40.766,15.889-2.8,1.126-5.775,2.349-8.915,3.642-1.318.552-2.564,1.055-3.786,1.558-1.63.7-3.163,1.342-4.625,1.942-9.778,4.121-15.841,6.782-20.778,8.915-3.476,1.534-6.4,2.828-9.659,4.146-7.189,2.948-15.7,6.423-25.236,9.85-25.451,9.131-58.164,17.759-91.859,14.139-41.365-4.433-95.407-28.542-119.4-78.246-3.978-8.2-20.922-43.306-8.579-81.7,8.723-27.153,27.967-43.162,46.852-58.836a214.875,214.875,0,0,1,61.112-35.421c74.509-28.135,144.632-6.805,161.671-1.15,33.432,11.12,115.825,38.536,122.823,98.258C1218.075,498.589,1197.441,536.909,1170.719,554.62Z" transform="translate(-817.233 -353.613)"/><g transform="translate(182.892 132.936)"><path class="b" d="M1123.793,584.18c15.362,11.7,29.022,22.815,41.125,33.384-2.8,1.126-5.775,2.349-8.916,3.642-1.318.552-2.564,1.055-3.786,1.558-1.63.7-3.163,1.342-4.625,1.942-9.778,4.122-15.841,6.782-20.778,8.915-6.088-9.155-11.5-17.806-15.817-25.475-.719-1.319-1.415-2.565-2.085-3.811-4.6-8.555-7.6-15.673-8.268-20.514-.336-2.493-.072-4.386.911-5.584a3.4,3.4,0,0,1,1.485-1.078C1106.3,575.84,1112.913,577.829,1123.793,584.18Z" transform="translate(-1050.546 -526.27)"/><path class="c" d="M1100.292,572.5s2.151-18.71-5.466-31.345c-4.528-7.511-2.723-8.754-3.17-10.305-1.485-5.149-5.433,4.331-2.509,11.48,2.377,5.81-3.332,14.928-2.692,19.08s4.482,14.963,7.284,16.123S1100.292,572.5,1100.292,572.5Z" transform="translate(-1048.037 -517.834)"/><path class="c" d="M1103.3,611.256c-1.027-2.634-6.15-35.215-14.894-47.9s-24.677-34.35-28.023-41.873c-3.937-8.85-8.286-8.285-4.552,2.581,2.426,7.062,10.141,24.322,12.07,26.835a138.856,138.856,0,0,1-10.248-16.678c-1.766-3.452-3.275-2.831-5.035-1.444-3.273,2.578,3.7,11.958,5.432,17.077,0,0-2.918-4.556-7.041-12.281-1.557-2.916-3.387-1.383-5.066-.338s-1.766,3.61,6.014,16.083c.621,1.094,1.083,4.116-7.294-11.413-.835-1.548-6.2-1.753-4.658,2.987,3.369,10.365,3.571,15.227,14.6,26.773,11.592,12.132,22.368,22.143,26.994,34Z" transform="translate(-1039.728 -515.334)"/><g transform="translate(37.396 73.583)"><path class="d" d="M1119.3,604.851q13.265,12.69,25.571,24.852c-9.778,4.122-15.841,6.782-20.778,8.915-3.475,1.534-6.4,2.828-9.659,4.146-7.189,2.948-15.7,6.423-25.235,9.85-2.756-17.039-3.619-27.345-3.619-27.345-1.031-2.181.239-4.458,2.8-6.662,4.05-3.475,11.335-6.782,17.806-9.275.384-.144.743-.288,1.1-.432C1113.836,606.433,1119.3,604.851,1119.3,604.851Z" transform="translate(-1085.222 -604.851)"/></g></g></g><g transform="translate(964.841 393.502)"><path class="e" d="M1018.61,459.921a2.749,2.749,0,0,1-2.75-2.743v-.012a25.768,25.768,0,0,1,1.534-9.363,21.3,21.3,0,0,1,3.631-5.983,68.786,68.786,0,0,1,6.621-6.417q4.781-4.218,6.213-6.724a10.836,10.836,0,0,0,1.432-5.471,12.76,12.76,0,0,0-4.193-9.434,14.2,14.2,0,0,0-10.277-4.065A13.819,13.819,0,0,0,1011,413.39q-3.291,3.076-4.689,9.048a2.783,2.783,0,0,1-3.031,2.153l-4.032-.479a2.773,2.773,0,0,1-2.388-3.313q1.721-8.329,7.109-13.085,6.315-5.573,16.695-5.574,10.993,0,17.538,5.982a18.9,18.9,0,0,1,6.546,14.471,18.327,18.327,0,0,1-2.3,9.05q-2.3,4.142-9,10.073a45.528,45.528,0,0,0-5.881,5.881,13.089,13.089,0,0,0-2.045,4.347,27.177,27.177,0,0,0-.677,5.344,2.775,2.775,0,0,1-2.766,2.633Zm-3.262,15.689v-4.942a2.77,2.77,0,0,1,2.77-2.77h4.942a2.77,2.77,0,0,1,2.77,2.77v4.942a2.77,2.77,0,0,1-2.77,2.77h-4.942A2.77,2.77,0,0,1,1015.348,475.61Z" transform="translate(-996.803 -402.14)"/></g></g></svg>