<svg xmlns="http://www.w3.org/2000/svg" width="714" height="261.527" viewBox="0 0 714 261.527"><defs><style>.a{fill:#b35328;}.b{fill:#e9e9e9;}.c{fill:#8e94a0;}.d{fill:#4b3d64;}.e{fill:#cecfd4;}.f{fill:#fff;}.g{fill:#8c7cc9;}.h{fill:#f0c659;}.i{fill:#bec9f2;}.j{fill:#8a7cc7;}.k{font-size:8px;}.k,.l,.m{font-family:Helvetica;}.l{font-size:9px;}.l,.m{letter-spacing:-0.07em;}.m{font-size:5px;}.n{fill:#21a366;}.o{fill:#107c41;}.p{fill:#33c481;}.q{fill:#185c37;}.r{fill:rgba(0,0,0,0.09);}.s{fill:rgba(0,0,0,0.2);}.t{fill:none;}.u{fill:#ff2116;}.v{fill:#f5f5f5;}.w{fill:#2c2c2c;}</style></defs><g transform="translate(-425.999 -459.918)"><g transform="translate(425.999 490.508)"><path class="a" d="M452.591,552.265h0a.873.873,0,0,1-.516-1.116l.708-1.921,1.632.6-.708,1.921A.872.872,0,0,1,452.591,552.265Z" transform="translate(-416.051 -456.366)"/><path class="a" d="M459.169,554.692h0a.874.874,0,0,1-.516-1.117l.708-1.921c.048-.129,1.626.619,1.626.619l-.7,1.9A.874.874,0,0,1,459.169,554.692Z" transform="translate(-413.536 -455.444)"/><path class="b" d="M452.464,552.2h0a.874.874,0,0,1-.516-1.117l.775-2.1a.872.872,0,0,1,1.115-.516h0a.872.872,0,0,1,.516,1.117l-.774,2.1A.873.873,0,0,1,452.464,552.2Z" transform="translate(-416.099 -456.678)"/><path class="b" d="M459.029,554.617h0a.872.872,0,0,1-.516-1.115l.775-2.1a.87.87,0,0,1,1.116-.516h0A.87.87,0,0,1,460.92,552l-.774,2.1A.872.872,0,0,1,459.029,554.617Z" transform="translate(-413.589 -455.753)"/><rect class="c" width="5.701" height="3.696" transform="translate(34.177 115.591) rotate(20.217)"/><rect class="c" width="5.701" height="3.696" transform="translate(36.614 109.479) rotate(20.217)"/><path class="d" d="M722.521,669.818H432.953c-3.215,0-6.61-1.622-6.954-6.343v-4.339l31.7-58.569a10.087,10.087,0,0,1,9.036-5.6H688.322c4.136,0,13.253,8.144,15.1,11.843l26.149,53.306v1.913C729.636,667.58,726.047,669.818,722.521,669.818Z" transform="translate(-425.999 -438.881)"/><path class="e" d="M722.539,665.383H432.972c-3.215,0-8.508-2.82-6.52-6.287l31.26-62.966a10.091,10.091,0,0,1,9.036-5.6H688.341a10.914,10.914,0,0,1,9.763,6.035l30.945,61.922C731.218,662.435,726.066,665.383,722.539,665.383Z" transform="translate(-425.992 -440.577)"/><rect class="e" width="237.133" height="149.843" rx="6.272" transform="translate(31.675)"/><rect class="f" width="218.84" height="129.84" transform="translate(40.779 8.173)"/><path class="d" d="M590.178,650H504.856a1.539,1.539,0,0,1-1.519-1.782l3.6-22.475a2.5,2.5,0,0,1,2.467-2.1h76.957a2.2,2.2,0,0,1,2.173,1.879l3.3,22.6A1.666,1.666,0,0,1,590.178,650Z" transform="translate(-396.442 -427.919)"/><path class="g" d="M684.049,628.8H452.222c-2.572,0-4.534-.988-4.128-2.08l9.776-26.236c.528-1.415,3.369-2.456,6.705-2.456h209.1c2.962,0,5.477.934,5.905,2.194l8.96,26.384C688.89,627.766,686.781,628.8,684.049,628.8Z" transform="translate(-417.573 -437.712)"/><g transform="translate(29.858 154.456)"><rect class="e" width="241.757" height="1.221" transform="translate(0 10.378)"/><rect class="e" width="241.757" height="1.221" transform="translate(0 16.483)"/><rect class="e" width="241.757" height="1.221" transform="translate(0 23.809)"/><rect class="e" width="241.757" height="1.221" transform="translate(0 30.525)"/><rect class="e" width="1.831" height="40.293" transform="translate(29.279 0.652) rotate(17.439)"/><rect class="e" width="1.831" height="40.293" transform="translate(46.983 0.652) rotate(17.439)"/><rect class="e" width="1.831" height="40.293" transform="translate(61.025 0.652) rotate(17.439)"/><rect class="e" width="1.831" height="40.293" transform="translate(75.066 0.652) rotate(17.439)"/><rect class="e" width="1.831" height="40.293" transform="translate(89.718 0.652) rotate(17.439)"/><rect class="e" width="1.831" height="40.293" transform="translate(104.585 0.194) rotate(10.978)"/><rect class="e" width="1.831" height="40.293" transform="translate(117.216)"/><rect class="e" width="1.831" height="40.293" transform="translate(211.952 1.2) rotate(-17.439)"/><rect class="e" width="1.831" height="40.293" transform="translate(194.858 1.2) rotate(-17.439)"/><rect class="e" width="1.831" height="40.293" transform="translate(177.764 1.2) rotate(-17.439)"/><rect class="e" width="1.831" height="40.293" transform="translate(160.67 1.2) rotate(-17.439)"/><rect class="e" width="1.831" height="40.293" transform="translate(143.576 1.2) rotate(-17.439)"/><rect class="e" width="1.831" height="40.293" transform="translate(126.482 1.2) rotate(-17.439)"/></g><g transform="translate(69.116 46.371)"><rect class="f" width="146.328" height="86.07"/></g><g transform="translate(47.361 10.738)"><g transform="translate(0.317 0.317)"><rect class="h" width="204.113" height="10.148"/></g><rect class="i" width="12.665" height="122.757" transform="translate(0.317 0.317)"/><path class="j" d="M665.009,613.206H460.262V489.816H665.009ZM460.9,612.573H664.376V490.449H460.9Z" transform="translate(-460.262 -489.816)"/><g transform="translate(12.665 0.317)"><rect class="j" width="0.633" height="122.757"/></g><g transform="translate(0.317 10.148)"><rect class="j" width="204.114" height="0.633"/></g><text class="k" transform="translate(3.663 17.797)"><tspan x="0" y="0">1</tspan></text><text class="k" transform="translate(3.663 28.809)"><tspan x="0" y="0">2</tspan></text><text class="k" transform="translate(3.663 39.821)"><tspan x="0" y="0">3</tspan></text><text class="k" transform="translate(3.663 51.506)"><tspan x="0" y="0">4</tspan></text><text class="k" transform="translate(3.663 62.52)"><tspan x="0" y="0">5</tspan></text><text class="k" transform="translate(3.663 73.532)"><tspan x="0" y="0">6</tspan></text><text class="k" transform="translate(3.663 84.544)"><tspan x="0" y="0">7</tspan></text><text class="k" transform="translate(3.663 96.23)"><tspan x="0" y="0">8</tspan></text><text class="k" transform="translate(3.663 107.242)"><tspan x="0" y="0">9</tspan></text><text class="l" transform="translate(1.309 119.591)"><tspan x="0" y="0">10</tspan></text><text class="m" transform="translate(32.343 5.556)"><tspan x="0" y="0">A</tspan></text><text class="m" transform="translate(82.698 5.556)"><tspan x="0" y="0">B</tspan></text><text class="m" transform="translate(129.772 5.556)"><tspan x="0" y="0">C</tspan></text><text class="m" transform="translate(179.96 5.556)"><tspan x="0" y="0">D</tspan></text><rect class="j" width="48.179" height="10.944" transform="translate(12.982 100.551)"/><rect class="j" width="48.179" height="10.944" transform="translate(108.547 100.551)"/><rect class="h" width="47.862" height="10.944" transform="translate(108.389 55.508)"/><rect class="h" width="47.862" height="10.944" transform="translate(108.706 21.725)"/><rect class="h" width="47.862" height="10.944" transform="translate(12.982 55.508)"/><rect class="h" width="47.862" height="10.944" transform="translate(13.298 21.725)"/><rect class="h" width="47.862" height="10.944" transform="translate(60.685 89.423)"/><rect class="j" width="47.545" height="10.944" transform="translate(60.844 33.303)"/><rect class="j" width="47.545" height="10.944" transform="translate(60.844 66.769)"/><g transform="translate(60.527 0.317)"><rect class="j" width="0.633" height="122.757"/></g><g transform="translate(108.389 0.317)"><rect class="j" width="0.633" height="122.757"/></g><g transform="translate(156.251 0.317)"><rect class="j" width="0.633" height="122.757"/></g><g transform="translate(0.317 21.409)"><rect class="j" width="204.114" height="0.633"/></g><g transform="translate(0.317 32.669)"><rect class="j" width="204.114" height="0.633"/></g><g transform="translate(0.317 43.93)"><rect class="j" width="204.114" height="0.633"/></g><g transform="translate(0.317 55.191)"><rect class="j" width="204.114" height="0.633"/></g><g transform="translate(0.317 66.452)"><rect class="j" width="204.114" height="0.633"/></g><g transform="translate(0.317 77.713)"><rect class="j" width="204.114" height="0.633"/></g><g transform="translate(0.317 88.974)"><rect class="j" width="204.114" height="0.633"/></g><g transform="translate(0.317 100.235)"><rect class="j" width="204.114" height="0.633"/></g><g transform="translate(0.317 111.496)"><rect class="j" width="204.114" height="0.633"/></g></g></g><g transform="translate(425.999 459.918)"><path class="n" d="M468.122,463.344h-25.26A3.174,3.174,0,0,0,439.7,466.5v13.421L468.122,496.5l14.21,5.995,14.209-5.995V479.922Z" transform="translate(-420.76 -458.608)"/><path class="o" d="M439.7,475.337h28.418v16.578H439.7Z" transform="translate(-420.76 -454.023)"/><path class="p" d="M485.524,463.344H460.263v16.578h28.418V466.5a3.173,3.173,0,0,0-3.157-3.157Z" transform="translate(-412.9 -458.608)"/><path class="q" d="M468.122,487.33H439.7v30a3.174,3.174,0,0,0,3.159,3.157h50.521a3.173,3.173,0,0,0,3.157-3.157V503.906Z" transform="translate(-420.76 -449.439)"/><path class="o" d="M460.263,487.33h28.418v16.576H460.263Z" transform="translate(-412.9 -449.439)"/><g transform="translate(0 16.576)"><path class="r" d="M460.229,471.91H439.7v45h20.524a3.182,3.182,0,0,0,3.157-3.157V475.069a3.182,3.182,0,0,0-3.157-3.159Z" transform="translate(-420.759 -471.91)"/><g transform="translate(18.946 2.369)"><path class="s" d="M457.861,473.624H439.7v44.995h18.156a3.182,3.182,0,0,0,3.157-3.157v-38.68a3.181,3.181,0,0,0-3.157-3.157Z" transform="translate(-439.705 -473.624)"/><path class="s" d="M457.861,473.624H439.7v40.259h18.156a3.183,3.183,0,0,0,3.157-3.159V476.781a3.181,3.181,0,0,0-3.157-3.157Z" transform="translate(-439.705 -473.624)"/><path class="s" d="M455.492,473.624H439.7v40.259h15.787a3.184,3.184,0,0,0,3.159-3.159V476.781a3.182,3.182,0,0,0-3.159-3.157Z" transform="translate(-439.705 -473.624)"/></g><path class="o" d="M429.156,473.624h31.576a3.173,3.173,0,0,1,3.159,3.157v31.576a3.173,3.173,0,0,1-3.159,3.157H429.156A3.172,3.172,0,0,1,426,508.357V476.781a3.172,3.172,0,0,1,3.157-3.157Z" transform="translate(-425.999 -471.255)"/><path class="f" d="M432.052,502.446l7.663-11.874L432.7,478.763h5.648l3.832,7.547q.529,1.074.727,1.6h.05q.379-.858.792-1.668l4.1-7.481h5.186l-7.2,11.743,7.381,11.94h-5.517l-4.426-8.291a7.1,7.1,0,0,1-.528-1.106h-.065a5.244,5.244,0,0,1-.513,1.073l-4.557,8.324Z" transform="translate(-423.685 -469.29)"/></g><path class="t" d="M426,459.918H501.78V535.7H426Z" transform="translate(-425.999 -459.918)"/></g><g transform="translate(774.686 574.354)"><g transform="translate(0 23.494)"><path class="j" d="M752.119,578.544H684.594c-3.5,0-6.341-4.217-6.341-9.42s2.839-9.422,6.341-9.422h67.526c3.5,0,6.342,4.219,6.342,9.422S755.622,578.544,752.119,578.544Z" transform="translate(-678.253 -559.702)"/></g><g transform="translate(59.791)"><path class="j" d="M731.086,607.671l45.928-26.521a6.385,6.385,0,0,0,0-11.058l-45.928-26.521a6.385,6.385,0,0,0-9.578,5.529v53.041A6.385,6.385,0,0,0,731.086,607.671Z" transform="translate(-721.508 -542.706)"/></g></g><g transform="translate(972.681 494.991)"><path class="u" d="M842.737,485.292a21.279,21.279,0,0,0-21.246,21.253V669.753a21.279,21.279,0,0,0,21.246,21.253h124.8a21.279,21.279,0,0,0,21.246-21.253v-134.2a17.6,17.6,0,0,0-1.371-7.755,21.5,21.5,0,0,0-4.2-6.079l-.019-.026-30.964-30.372-.051-.051a24.478,24.478,0,0,0-6.562-4.2,23.981,23.981,0,0,0-9.37-1.772l.07-.006Z" transform="translate(-821.491 -485.291)"/><path class="v" d="M840.806,490.342h93.572a.567.567,0,0,0,.071,0,19.97,19.97,0,0,1,6.479,1.211,17.767,17.767,0,0,1,4.515,2.853l.014.014,30.886,30.3a17.053,17.053,0,0,1,2.763,3.987,15.172,15.172,0,0,1,.773,4.618c0,.048-.006.1-.007.148V667.823a14.16,14.16,0,0,1-14.265,14.271h-124.8a14.159,14.159,0,0,1-14.265-14.271V504.614a14.159,14.159,0,0,1,14.265-14.271Z" transform="translate(-819.56 -483.361)"/><path class="u" d="M852.193,596.813c-4.8-4.8.394-11.4,14.5-18.412l8.874-4.41,3.457-7.564c1.9-4.161,4.739-10.949,6.306-15.085l2.849-7.521-1.963-5.565c-2.415-6.844-3.275-17.128-1.743-20.825,2.075-5.008,8.87-4.5,11.56.875,2.1,4.193,1.887,11.787-.6,21.365l-2.042,7.851,1.8,3.053a105.763,105.763,0,0,0,6.422,8.861l4.779,5.945,5.945-.777c18.89-2.465,25.361,1.725,25.361,7.731,0,7.582-14.833,8.208-27.289-.54a37.883,37.883,0,0,1-4.728-3.924s-7.8,1.588-11.644,2.624c-3.966,1.07-5.944,1.739-11.754,3.7,0,0-2.037,2.961-3.366,5.112-4.942,8.006-10.711,14.64-14.831,17.055C859.464,599.063,854.628,599.247,852.193,596.813Zm7.538-2.693c2.7-1.668,8.165-8.132,11.947-14.131l1.531-2.429-6.974,3.507c-10.771,5.414-15.7,10.519-13.136,13.606,1.44,1.735,3.161,1.591,6.631-.553Zm69.961-19.638c2.642-1.849,2.257-5.578-.727-7.08-2.324-1.169-4.2-1.41-10.233-1.32-3.709.253-9.673,1-10.684,1.227,0,0,3.276,2.264,4.732,3.1a62.78,62.78,0,0,0,10.078,4.21c3.388,1.038,5.35.929,6.834-.134Zm-28.131-11.691A69.054,69.054,0,0,1,895.523,555a43.386,43.386,0,0,1-3.385-5.041s-1.646,5.3-3,8.487l-4.216,10.422L883.7,571.23s6.5-2.13,9.806-2.994c3.5-.915,10.61-2.312,10.61-2.312ZM892.5,526.435c.408-3.421.581-6.837-.518-8.559-3.049-3.333-6.729-.554-6.106,7.37a54.023,54.023,0,0,0,1.758,10.03l1.609,5.106,1.133-3.845a101.1,101.1,0,0,0,2.123-10.1Z" transform="translate(-810.422 -474.332)"/><g transform="translate(49.939 144.723)"><path class="w" d="M857.619,589.99h7.8a21.194,21.194,0,0,1,6.067.715,7.128,7.128,0,0,1,3.923,3.114A10.249,10.249,0,0,1,877,599.611a10.529,10.529,0,0,1-1.291,5.352,7.6,7.6,0,0,1-3.485,3.23,16.981,16.981,0,0,1-6.69.991h-2.7v12.3h-5.214Zm5.214,4.038v10.981h2.585q3.461,0,4.774-1.291a5.638,5.638,0,0,0,1.339-4.2,6.3,6.3,0,0,0-.878-3.507,3.6,3.6,0,0,0-1.938-1.662,12.1,12.1,0,0,0-3.3-.323Z" transform="translate(-857.619 -589.99)"/><path class="w" d="M874.527,589.99h7.083a16,16,0,0,1,8.212,1.822,11.339,11.339,0,0,1,4.661,5.423,19.509,19.509,0,0,1,1.592,7.983,22.28,22.28,0,0,1-1.431,8.236,13.1,13.1,0,0,1-4.338,5.814q-2.907,2.214-8.306,2.214h-7.474Zm5.214,4.176v23.139h2.169q4.545,0,6.6-3.138a15.269,15.269,0,0,0,2.054-8.421q0-11.58-8.652-11.581Z" transform="translate(-851.155 -589.99)"/><path class="w" d="M893.737,589.99h17.489v4.176H898.951v9.412h9.829v4.176h-9.829v13.727h-5.214Z" transform="translate(-843.812 -589.99)"/></g></g></g></svg>