<svg xmlns="http://www.w3.org/2000/svg" xmlns:xlink="http://www.w3.org/1999/xlink" width="1023" height="376.695" viewBox="0 0 1023 376.695"><defs><style>.a,.ai{fill:none;}.b{fill:#bed5d9;opacity:0.49;}.c{clip-path:url(#a);}.d{fill:#b2b2b2;}.e{fill:gray;}.f{fill:#f1f1f1;}.g{fill:#b35328;}.h{fill:#e9e9e9;}.i{fill:#8e94a0;}.j{fill:#4b3d64;}.k{fill:#cecfd4;}.l{fill:#fff;}.m{fill:#8c7cc9;}.n{fill:#f0c659;}.o{fill:#bec9f2;}.p{fill:#8a7cc7;}.q,.r{font-size:6px;}.q,.r,.s{font-family:Helvetica;}.r,.s{letter-spacing:-0.07em;}.s{font-size:4px;}.t{fill:#21a366;}.u{fill:#107c41;}.v{fill:#33c481;}.w{fill:#185c37;}.x{fill:rgba(0,0,0,0.09);}.y{fill:rgba(0,0,0,0.2);}.z{clip-path:url(#b);}.aa{fill:#c2934e;}.ab{fill:#c39652;}.ac{fill:#caa267;}.ad{fill:#5e5586;}.ae{fill:#5e5587;}.af{fill:#f1c759;}.ag{opacity:0.3;}.ah{opacity:0.5;}.ai{stroke:#8c7cc9;stroke-miterlimit:10;stroke-width:0.958px;}.aj{fill:#cea971;}.ak{opacity:0.15;}</style><clipPath id="a"><rect class="a" width="623.177" height="322.706"/></clipPath><clipPath id="b"><rect class="a" width="399.823" height="376.695"/></clipPath></defs><g transform="translate(-375.156 -417.754)"><path class="b" d="M547.16,763.674a376.941,376.941,0,0,0,77.72.421A313.829,313.829,0,0,0,739.987,729.22c39.982-21.182,77.45-52.234,114.254-79.108,38.825-28.35,102.8-98.975,70.9-153.361-5.458-9.3-14.273-15.776-23.307-21.038-36-20.979-92.477-33.177-129.039-7.33-24.93,17.623-41.369,64.284-73.354,68.263-47.721,5.935-97.431,6.365-143.585,21.962-48.308,16.325-135.01,84.694-109.458,150.1C460.186,744,503.863,758.651,547.16,763.674Z" transform="translate(4.368 2.36)"/><g transform="translate(375.156 471.743)"><g class="c"><g transform="translate(27.688 140.396)"><g transform="translate(18.512 105.165)"><g transform="translate(6.224)"><path class="d" d="M443.025,704.14V881.915l-12.447,14.362-6.224-197.4Z" transform="translate(-424.354 -698.873)"/></g><path class="e" d="M418.513,698.873v197.4h12.448V704.14Z" transform="translate(-418.513 -698.873)"/></g><g transform="translate(547.158 105.165)"><path class="d" d="M914.633,704.14V881.915l12.447,14.362,6.224-197.4Z" transform="translate(-914.633 -698.873)"/><g transform="translate(12.448)"><path class="e" d="M938.762,698.873v197.4H926.314V704.14Z" transform="translate(-926.314 -698.873)"/></g></g><g transform="translate(93.363 62.27)"><g transform="translate(4.513)"><path class="d" d="M506.532,662.435V832.823l-9.025,10.414-4.513-184.62Z" transform="translate(-492.994 -658.617)"/></g><path class="e" d="M488.759,658.617v184.62h9.025v-180.8Z" transform="translate(-488.759 -658.617)"/></g><g transform="translate(476.658 62.27)"><path class="d" d="M848.471,662.435V832.823l9.025,10.414,4.513-184.62Z" transform="translate(-848.471 -658.617)"/><g transform="translate(9.025)"><path class="e" d="M865.965,658.617v184.62H856.94v-180.8Z" transform="translate(-856.94 -658.617)"/></g></g><path class="f" d="M401.141,700.078,490,600.179H900.145l92.092,99.9Z" transform="translate(-401.141 -600.179)"/><g transform="translate(0 99.899)"><rect class="d" width="591.096" height="10.532"/></g></g></g></g><g transform="translate(582.464 511.789)"><path class="g" d="M596.172,575.524h0a.671.671,0,0,1-.4-.86l.546-1.481,1.257.462-.546,1.481A.671.671,0,0,1,596.172,575.524Z" transform="translate(-568.003 -501.598)"/><path class="g" d="M602.75,577.948h0a.672.672,0,0,1-.4-.861l.546-1.481c.036-.1,1.252.476,1.252.476l-.54,1.468A.673.673,0,0,1,602.75,577.948Z" transform="translate(-567.572 -501.44)"/><path class="h" d="M596.045,575.288h0a.672.672,0,0,1-.4-.861l.6-1.621a.671.671,0,0,1,.86-.4h0a.672.672,0,0,1,.4.861l-.6,1.621A.673.673,0,0,1,596.045,575.288Z" transform="translate(-568.011 -501.652)"/><path class="h" d="M602.61,577.7h0a.671.671,0,0,1-.4-.86l.6-1.622a.672.672,0,0,1,.861-.4h0a.671.671,0,0,1,.4.86l-.6,1.621A.671.671,0,0,1,602.61,577.7Z" transform="translate(-567.581 -501.493)"/><rect class="i" width="4.395" height="2.849" transform="translate(26.346 89.106) rotate(20.217)"/><rect class="i" width="4.395" height="2.849" transform="translate(28.225 84.394) rotate(20.217)"/><path class="j" d="M798.289,676.622H575.071c-2.479,0-5.1-1.25-5.362-4.89v-3.345l24.433-45.149a7.777,7.777,0,0,1,6.966-4.319H771.926c3.188,0,10.217,6.278,11.642,9.13l20.156,41.091v1.476C803.775,674.9,801.008,676.622,798.289,676.622Z" transform="translate(-569.709 -498.6)"/><path class="k" d="M798.308,672.187H575.089c-2.478,0-6.559-2.174-5.025-4.846l24.1-48.539a7.775,7.775,0,0,1,6.966-4.319H771.945a8.413,8.413,0,0,1,7.526,4.653l23.855,47.734C805,669.915,801.026,672.187,798.308,672.187Z" transform="translate(-569.708 -498.891)"/><rect class="k" width="182.799" height="115.509" rx="6.272" transform="translate(24.418)"/><rect class="l" width="168.697" height="100.09" transform="translate(31.436 6.3)"/><path class="j" d="M713.986,667.916H648.213a1.186,1.186,0,0,1-1.171-1.374l2.774-17.325a1.926,1.926,0,0,1,1.9-1.622h59.324a1.694,1.694,0,0,1,1.676,1.448l2.541,17.423A1.284,1.284,0,0,1,713.986,667.916Z" transform="translate(-564.64 -496.72)"/><path class="m" d="M773.683,645.7H594.974c-1.982,0-3.5-.762-3.182-1.6l7.536-20.224c.407-1.091,2.6-1.894,5.169-1.894H765.685c2.285,0,4.223.719,4.552,1.691l6.907,20.338C777.415,644.907,775.789,645.7,773.683,645.7Z" transform="translate(-568.264 -498.399)"/><g transform="translate(23.017 119.065)"><rect class="k" width="186.363" height="0.941" transform="translate(0 8)"/><rect class="k" width="186.363" height="0.941" transform="translate(0 12.707)"/><rect class="k" width="186.363" height="0.941" transform="translate(0 18.354)"/><rect class="k" width="186.363" height="0.941" transform="translate(0 23.531)"/><rect class="k" width="1.412" height="31.061" transform="translate(22.57 0.502) rotate(17.439)"/><rect class="k" width="1.412" height="31.061" transform="translate(36.218 0.502) rotate(17.439)"/><rect class="k" width="1.412" height="31.061" transform="translate(47.042 0.502) rotate(17.439)"/><rect class="k" width="1.412" height="31.061" transform="translate(57.866 0.502) rotate(17.439)"/><rect class="k" width="1.412" height="31.061" transform="translate(69.161 0.502) rotate(17.439)"/><rect class="k" width="1.412" height="31.061" transform="translate(80.622 0.15) rotate(10.978)"/><rect class="k" width="1.412" height="31.061" transform="translate(90.358)"/><rect class="k" width="1.412" height="31.061" transform="translate(163.388 0.925) rotate(-17.439)"/><rect class="k" width="1.412" height="31.061" transform="translate(150.21 0.925) rotate(-17.439)"/><rect class="k" width="1.412" height="31.061" transform="translate(137.033 0.925) rotate(-17.439)"/><rect class="k" width="1.412" height="31.061" transform="translate(123.856 0.925) rotate(-17.439)"/><rect class="k" width="1.412" height="31.061" transform="translate(110.679 0.925) rotate(-17.439)"/><rect class="k" width="1.412" height="31.061" transform="translate(97.501 0.925) rotate(-17.439)"/></g><g transform="translate(53.28 35.746)"><rect class="l" width="112.8" height="66.348"/></g><g transform="translate(36.51 8.278)"><g transform="translate(0.244 0.244)"><rect class="n" width="157.345" height="7.823"/></g><rect class="o" width="9.763" height="94.629" transform="translate(0.244 0.244)"/><path class="p" d="M761.806,608.888H603.973V513.771H761.806ZM604.461,608.4H761.318V514.259H604.461Z" transform="translate(-603.973 -513.771)"/><g transform="translate(9.762 0.244)"><rect class="p" width="0.488" height="94.63"/></g><g transform="translate(0.244 7.822)"><rect class="p" width="157.345" height="0.488"/></g><text class="q" transform="translate(2.823 13.028)"><tspan x="0" y="0">1</tspan></text><text class="q" transform="translate(2.823 21.517)"><tspan x="0" y="0">2</tspan></text><text class="q" transform="translate(2.823 30.006)"><tspan x="0" y="0">3</tspan></text><text class="q" transform="translate(2.823 39.014)"><tspan x="0" y="0">4</tspan></text><text class="q" transform="translate(2.823 47.504)"><tspan x="0" y="0">5</tspan></text><text class="q" transform="translate(2.823 55.993)"><tspan x="0" y="0">6</tspan></text><text class="q" transform="translate(2.823 64.482)"><tspan x="0" y="0">7</tspan></text><text class="q" transform="translate(2.823 73.49)"><tspan x="0" y="0">8</tspan></text><text class="q" transform="translate(2.823 81.979)"><tspan x="0" y="0">9</tspan></text><text class="r" transform="translate(1.008 90.728)"><tspan x="0" y="0">10</tspan></text><text class="s" transform="translate(24.931 3.134)"><tspan x="0" y="0">A</tspan></text><text class="s" transform="translate(63.748 3.134)"><tspan x="0" y="0">B</tspan></text><text class="s" transform="translate(100.037 3.134)"><tspan x="0" y="0">C</tspan></text><text class="s" transform="translate(138.725 3.134)"><tspan x="0" y="0">D</tspan></text><rect class="p" width="37.14" height="8.437" transform="translate(10.006 77.512)"/><rect class="p" width="37.14" height="8.437" transform="translate(83.675 77.512)"/><rect class="n" width="36.896" height="8.437" transform="translate(83.553 42.789)"/><rect class="n" width="36.896" height="8.437" transform="translate(83.797 16.747)"/><rect class="n" width="36.896" height="8.437" transform="translate(10.006 42.789)"/><rect class="n" width="36.896" height="8.437" transform="translate(10.25 16.747)"/><rect class="n" width="36.896" height="8.437" transform="translate(46.78 68.934)"/><rect class="p" width="36.651" height="8.437" transform="translate(46.902 25.672)"/><rect class="p" width="36.651" height="8.437" transform="translate(46.902 51.47)"/><g transform="translate(46.658 0.244)"><rect class="p" width="0.488" height="94.63"/></g><g transform="translate(83.553 0.244)"><rect class="p" width="0.488" height="94.63"/></g><g transform="translate(120.449 0.244)"><rect class="p" width="0.488" height="94.63"/></g><g transform="translate(0.244 16.503)"><rect class="p" width="157.345" height="0.488"/></g><g transform="translate(0.244 25.184)"><rect class="p" width="157.345" height="0.488"/></g><g transform="translate(0.244 33.864)"><rect class="p" width="157.345" height="0.488"/></g><g transform="translate(0.244 42.545)"><rect class="p" width="157.345" height="0.488"/></g><g transform="translate(0.244 51.226)"><rect class="p" width="157.345" height="0.488"/></g><g transform="translate(0.244 59.906)"><rect class="p" width="157.345" height="0.488"/></g><g transform="translate(0.244 68.587)"><rect class="p" width="157.345" height="0.488"/></g><g transform="translate(0.244 77.268)"><rect class="p" width="157.345" height="0.488"/></g><g transform="translate(0.244 85.949)"><rect class="p" width="157.345" height="0.488"/></g></g></g><g transform="translate(582.464 488.208)"><path class="t" d="M605.322,487.3H585.849a2.446,2.446,0,0,0-2.434,2.434v10.346l21.907,12.778,10.953,4.622,10.954-4.622V500.078Z" transform="translate(-568.81 -483.648)"/><path class="u" d="M583.415,499.292h21.907V512.07H583.415Z" transform="translate(-568.81 -482.862)"/><path class="v" d="M623.446,487.3H603.974v12.779h21.907V489.733a2.447,2.447,0,0,0-2.435-2.434Z" transform="translate(-567.462 -483.648)"/><path class="w" d="M605.322,511.284H583.415v23.124a2.446,2.446,0,0,0,2.434,2.435h38.945a2.447,2.447,0,0,0,2.435-2.435V524.063Z" transform="translate(-568.81 -482.076)"/><path class="u" d="M603.974,511.284h21.907v12.779H603.974Z" transform="translate(-567.462 -482.076)"/><g transform="translate(0 12.778)"><path class="x" d="M599.237,495.865H583.415v34.686h15.822a2.452,2.452,0,0,0,2.434-2.434V498.3a2.452,2.452,0,0,0-2.434-2.434Z" transform="translate(-568.81 -495.865)"/><g transform="translate(14.605 1.826)"><path class="y" d="M597.411,497.579h-14v34.685h14a2.453,2.453,0,0,0,2.434-2.434V500.013a2.452,2.452,0,0,0-2.434-2.434Z" transform="translate(-583.415 -497.579)"/><path class="y" d="M597.411,497.579h-14v31.034h14a2.452,2.452,0,0,0,2.434-2.434V500.013a2.452,2.452,0,0,0-2.434-2.434Z" transform="translate(-583.415 -497.579)"/><path class="y" d="M595.586,497.579H583.415v31.034h12.171a2.452,2.452,0,0,0,2.434-2.434V500.013a2.452,2.452,0,0,0-2.434-2.434Z" transform="translate(-583.415 -497.579)"/></g><path class="u" d="M572.143,497.579h24.342a2.446,2.446,0,0,1,2.434,2.434v24.341a2.445,2.445,0,0,1-2.434,2.434H572.143a2.446,2.446,0,0,1-2.434-2.434V500.013a2.446,2.446,0,0,1,2.434-2.434Z" transform="translate(-569.709 -495.753)"/><path class="l" d="M575.763,520.973l5.906-9.153-5.41-9.1h4.354l2.954,5.818c.271.552.458.963.559,1.235h.038q.292-.662.612-1.286l3.156-5.767h4l-5.551,9.052,5.69,9.2h-4.252l-3.412-6.39a5.3,5.3,0,0,1-.407-.852h-.051a4.039,4.039,0,0,1-.4.827l-3.513,6.416Z" transform="translate(-569.312 -495.416)"/></g><path class="a" d="M569.709,483.873h58.418V542.29H569.709Z" transform="translate(-569.709 -483.873)"/></g><g transform="translate(998.333 417.754)"><g class="z"><g transform="translate(64.999 8.275)"><path class="aa" d="M1148.646,468.527s-1.021,13.2,4.959,22.589c4.018,6.3-3.829,5.816-12.407,4.456-6.585-1.044-7.87-4.748-7.87-4.748a9.158,9.158,0,0,0,5.087-6.028c1.368-4.405.652-12.164-.047-16.269C1136.909,459.982,1148.646,468.527,1148.646,468.527Z" transform="translate(-1013.624 -422.949)"/><g transform="translate(62.449 226.803)"><path class="ab" d="M1104.8,779.3s14.911,130.512,9.563,132.854c-9.594,4.265-47.214,18.326-5.536,14.662,21.458.925,19.8-3.837,20.069-7.9.216-3.321-2.42-120.306-1.7-129.42l.26-3.274Z" transform="translate(-1078.941 -629.128)"/><path class="ac" d="M1223.31,894.919c-2.78.324-9.142,2.965-12.54,5.07-11.014-25.843-51.247-122.884-51.247-122.884l17.653-14.086S1212.019,863.465,1223.31,894.919Z" transform="translate(-1074.356 -630.196)"/><path class="ad" d="M1222.649,887.057c-.843-1.707-15.673,4.688-16.082,6.808-.2,1.047-19.116,21.09-16.653,24.284,1.293,3.407,8.161,1.927,15.228.605a19.431,19.431,0,0,0,7.776-3.338c8.332-6,15.875-10.746,17.014-13.568C1230.925,899.384,1224.306,890.412,1222.649,887.057Z" transform="translate(-1072.378 -622.082)"/><path class="ae" d="M1129.546,899.628c.217-1.892-15.817.778-17.311,2.338s-24.786,8.326-24.12,16.266,37.652,1.054,40.3.82S1129.119,903.345,1129.546,899.628Z" transform="translate(-1079.038 -621.282)"/><path class="af" d="M1087.358,647.961a8.282,8.282,0,0,0,4.865,1.773c11.024-.695,58.632-3.816,84.3-7.432,9.055-1.277,15.378-2.614,16.4-3.934a.977.977,0,0,1,0,.105c.05,1.427.582,17.768,1.2,39.2,1.225,42.3,10.571,102.25,17.172,120.136,1.425,3.86-58.138,2.764-58.138,2.764-3.761-43.444-5.953-120.078-8.9-123.277-3.585-3.893-3.283,63.649-4.659,120.3-22.886,8.039-60.233,7.4-60,4.968C1082.325,773.665,1087.358,647.961,1087.358,647.961Z" transform="translate(-1079.596 -638.368)"/><g class="ag" transform="translate(51.332)"><path d="M1128.3,646.384c-.18,0-.36,0-.535,0C1127.77,646.384,1127.96,646.382,1128.3,646.384Z" transform="translate(-1127.77 -637.842)"/><path class="ah" d="M1128.272,646.91c14.26-.043,45.058-4.607,45.058-4.607,9.055-1.277,15.378-2.614,16.4-3.934a.963.963,0,0,1,0,.105c.05,1.427.582,17.768,1.2,39.2a10.569,10.569,0,0,1-1.5-.049,11.634,11.634,0,0,1-7.938-4.707,25.845,25.845,0,0,1-3.419-5.848C1165.846,647.843,1132.843,646.942,1128.272,646.91Z" transform="translate(-1127.737 -638.368)"/></g><g transform="translate(15.99 3.668)"><line class="ai" x1="2.017" y2="158.086" transform="translate(0 4.042)"/><line class="ai" x1="2.13" y2="155.346" transform="translate(15.033 5.947)"/><line class="ai" x2="0.288" y2="154.061" transform="translate(31.714 4.743)"/><line class="ai" x2="2.943" y2="31.673" transform="translate(45.729 3.583)"/><line class="ai" x2="10.052" y2="156.375" transform="translate(61.286 2.295)"/><line class="ai" x2="12.232" y2="157.513" transform="translate(74.664 1.089)"/><line class="ai" x2="16.136" y2="158.1" transform="translate(87.821)"/></g><path class="ai" d="M1086.245,663.385s84.8-3,106.784-8.839" transform="translate(-1079.16 -637.307)"/><path class="ai" d="M1143.858,674.9c-29,9.139-58.159.9-58.159.9" transform="translate(-1079.196 -635.973)"/><path class="ai" d="M1139.825,673.228s27.291,5.286,50.2-2.981" transform="translate(-1075.647 -636.278)"/><path class="ai" d="M1085.229,686.641s22.221,9.388,56.345.84" transform="translate(-1079.227 -635.203)"/><path class="ai" d="M1084.656,699.623s33.981,7.375,56.4.276" transform="translate(-1079.264 -634.352)"/><path class="ai" d="M1084.072,712.521s17.975,11.835,56.62,2.661" transform="translate(-1079.303 -633.506)"/><path class="ai" d="M1083.378,727.386s26.85,11.317,57.122-.422" transform="translate(-1079.348 -632.56)"/><path class="ai" d="M1082.715,740.956s19.3,11.43,57.578.695" transform="translate(-1079.391 -631.642)"/><path class="ai" d="M1082,755.036s26.248,11.07,58.154-2.27" transform="translate(-1079.438 -630.868)"/><path class="ai" d="M1081.4,765.849s16.026,13.048,58.578-1.131" transform="translate(-1079.477 -630.084)"/><path class="ai" d="M1080.664,778.233s25.049,10.659,59.129-1.578" transform="translate(-1079.526 -629.301)"/><path class="ai" d="M1142.075,686.489s11.9,8.278,49.082-1.676" transform="translate(-1075.5 -635.323)"/><path class="ai" d="M1143.425,699.507s16.239,6,47.828-2.416" transform="translate(-1075.411 -634.518)"/><path class="ai" d="M1143.9,714.088s24.746,5.272,48.464-4.012" transform="translate(-1075.38 -633.667)"/><path class="ai" d="M1144.567,726.079s24.333,8.491,49.278-4.079" transform="translate(-1075.336 -632.885)"/><path class="ai" d="M1145.284,739.247s22.993,5.99,50.321-4.165" transform="translate(-1075.289 -632.027)"/><path class="ai" d="M1145.989,751.894s19.534,6.891,51.563-4.269" transform="translate(-1075.243 -631.205)"/><path class="ai" d="M1146.913,762.982s23.315,9.673,52.8-3.137" transform="translate(-1075.183 -630.404)"/><path class="ai" d="M1147.563,777.021a103.73,103.73,0,0,0,54.95-3.909" transform="translate(-1075.14 -629.534)"/></g><g transform="translate(0 64.599)"><path class="m" d="M1069.537,558.983c-1.808,2.825-9.189,83.078,0,99.726,9.243,16.743,86.238,25.693,110.445,12.813,24.563-13.07,34.024-25.64,37.307-49.081,3.29-23.487-4.38-59.735-4.38-59.735L1107.933,493.33Z" transform="translate(-1018.102 -485.673)"/><g transform="translate(51.741 165.718)"><path class="aj" d="M1088.515,641.878a61.117,61.117,0,0,1,6.438,3.743,19.1,19.1,0,0,1,3.308,4.861c.614,1.3-1.93.117-3.871-2.73-1.887-1.034-3.642-2.2-4.073-1.773s2.539,1.2,4.663,3.226c2.081,2.669,4.076,5.285,3.361,5.337-.7.05-1.5.08-4.45-3.784-2.088-.956-4.12-2.1-4.286-1.654s2.428,1.265,4.483,3.048c2.874,2.947,3.544,4.022,4.607,5.058-.574.641-2.5.061-6.026-3.465-1.9-1.183-4.743-1.64-4.84-1.048.089.629,2.067.976,3.413,1.778a15.911,15.911,0,0,1,3.708,2.974c.4.511-.02,1.4-4.686-1.218a4.783,4.783,0,0,0-3.382-.211l-2.419-6.627Z" transform="translate(-1068.568 -641.651)"/><path class="ac" d="M1076.217,644.465s11.377-2.341,12.39-2.76,3.519,2.573,2.71,3.132-1.957,2.647-1.818,3.328a2.618,2.618,0,0,1-.514,2.365c-.689.8-1.7,1.825-1.26,3.018s1.473,2.393.133,2.488a23.95,23.95,0,0,0-8.322,3.046c-2.862,1.789-9.992-5.986-9.992-5.986Z" transform="translate(-1069.546 -641.665)"/></g><g transform="translate(151.391 166.336)"><path class="aj" d="M1179.658,642.5a60.81,60.81,0,0,0-7.423-.2,18.792,18.792,0,0,0-5.331,2.4c-1.192.784,1.587,1.118,4.712-.287,2.143.113,4.241.047,4.39.636s-2.786-.314-5.642.292c-3.152,1.18-6.2,2.359-5.621,2.78s1.236.858,5.749-.88c2.274.286,4.6.386,4.51.849s-2.725-.2-5.4.237c-3.974,1-5.1,1.562-6.541,1.884.159.85,2.1,1.37,6.928.223,2.233,0,4.893,1.1,4.669,1.659-.4.49-2.268-.258-3.83-.282a15.728,15.728,0,0,0-4.7.581c-.6.225-.7,1.2,4.628,1.433a4.82,4.82,0,0,1,2.994,1.6l5.481-4.377Z" transform="translate(-1163.065 -642.246)"/><path class="ac" d="M1189.022,651.687s-8.5-8-9.146-8.891-4.33.339-3.929,1.241.3,3.29-.165,3.8a2.615,2.615,0,0,0-.781,2.289c.176,1.045.51,2.454-.482,3.238s-2.491,1.266-1.4,2.053a24.371,24.371,0,0,1,5.528,6.989c1.519,3.036,11.613.164,11.613.164Z" transform="translate(-1162.431 -642.23)"/></g><path class="m" d="M1274.933,643.566c-13.02,22.211-30.455,45.021-64.51,43.926-10.225-.666-15.633-5.275-18.3-10.485a19.972,19.972,0,0,1-1.374-3.44c-.045-.152-.09-.3-.132-.457a22.1,22.1,0,0,1-.561-2.676,19.539,19.539,0,0,1,.418-8.323l0-.015c.049-.145.1-.281.15-.407.019-.05.042-.1.068-.16.169-.4.433-.971.779-1.69,1.527-3.158,4.669-9.137,8.711-15.741,7.214-11.8,6.988-29.886,3.865-39.19-.339-1.009-2.209-2.021-5.177-3.143-.889-.336-1.875-.685-2.951-1.051-14.865-4.989-32.212-36.412-42.968-62.588-2.186-5.329-4.1-10.439-5.671-15.079a132.011,132.011,0,0,1-3.747-12.871c-.993-4.41-1.242-7.5-.565-8.662a.907.907,0,0,1,.873-.506,19.531,19.531,0,0,0,5.751-.768c4.708-1.218,9.953-4.841,13.713-7.844l0,0c3.052-2.439,5.115-4.467,5.115-4.467h.015c.184.007,1.889.08,4.73.444a100.089,100.089,0,0,1,10.322,1.918q2.258.532,4.753,1.237c.715.2,1.441.419,2.178.644a109.5,109.5,0,0,1,56.594,39.955C1279.171,575.909,1288.1,621.083,1274.933,643.566Z" transform="translate(-1013.017 -486.027)"/><path class="ak" d="M1240.6,596.963a1.91,1.91,0,0,0-.23.074C1240.471,597,1240.548,596.979,1240.6,596.963Z" transform="translate(-1006.606 -478.878)"/><path class="m" d="M1198.717,491.9s-.109.133-.324.389c-1.193,1.434-5.622,6.766-12.091,14.644-5.32,6.492-12.023,14.713-19.433,23.911l0,0c-1.934,2.4-3.921,4.876-5.943,7.4-34.986,43.692-80.424,102.882-76.173,110.733a13.668,13.668,0,0,1,1.506,4.236,11.315,11.315,0,0,1,.15,2.2c-.135,4.544-3.064,8.182-5.848,10.629-.007.007-.015.012-.022.019a1.021,1.021,0,0,1-.12.107,28.191,28.191,0,0,1-2.364,1.831,24.5,24.5,0,0,1-2.54,1.564c-37.077-5.838-54.524-21.625-54.524-64.1s24.257-114.369,109.059-119.3a14.079,14.079,0,0,1,6.438,1.728c4.343,2.051,9.017,5.3,12.78,6.222a7.955,7.955,0,0,0,1.753.251c8.132.186,14.026-4.3,20-5.872l.019-.007.034-.012a13.816,13.816,0,0,1,5.317-.422h.015q2.354.307,4.512.62c2.732.4,5.208.795,7.387,1.172,1.133.2,2.187.392,3.153.57,1.5.282,2.789.537,3.85.754.452.091.862.178,1.226.255C1197.958,491.715,1198.717,491.9,1198.717,491.9Z" transform="translate(-1020.989 -486.144)"/></g><ellipse class="ac" cx="15.483" cy="21.124" rx="15.483" ry="21.124" transform="translate(114.088 11.205)"/><g transform="translate(110.578)"><g transform="translate(3.268 5.89)"><path class="n" d="M1137.539,447.422s26.8,14.861,18.849-9C1150.883,421.914,1119.259,436.785,1137.539,447.422Z" transform="translate(-1127.562 -431.047)"/><path class="n" d="M1141.692,441.656s-15,8.9-13.55,17.825c0,0-3.308-26.651,11.6-27.321s20.685.769,19.36,28.951C1159.107,461.111,1154.775,438.694,1141.692,441.656Z" transform="translate(-1127.83 -430.981)"/></g><path class="n" d="M1138.4,432.762s.752-8.3,8.985-7.128,11.759,5.88,12.936,10.583,2.352,8.233,3.528,8.233c0,0-3.528,3.528-4.7,2.352,0,0,3.053,8.457-.826,15.4,0,0-1.526-10.7-7.406-11.872S1138.4,432.762,1138.4,432.762Z" transform="translate(-1123.869 -425.52)"/><path class="n" d="M1140.051,432.294s-5.88-3.527-11.76,4.7l-3.528,7.056s1.177,1.176,3.528,0c0,0-1.072,8.286.052,12.963l3.476-14.139Z" transform="translate(-1124.763 -425.125)"/></g><path class="m" d="M1278.367,630.966l0,.008,0,.008c-11.97,32.5-74.6-91.763-74.6-91.763l-26.688-32.208-9-10.861-2.1-2.527-2.1-2.531-2.088-2.523.007,0,.019-.007.034-.012a70.2,70.2,0,0,1,23.674-3.642,72.792,72.792,0,0,1,8.779.632,68.077,68.077,0,0,1,35.863,16.276C1271.74,537.624,1290.323,598.462,1278.367,630.966Z" transform="translate(-1011.758 -421.627)"/><path class="ak" d="M1186.859,484.9a21.9,21.9,0,0,1-4.825,4.187,9.644,9.644,0,0,1-1.408.734c-.067.031-.139.061-.21.092a64.41,64.41,0,0,1-13.1,3.706,35.228,35.228,0,0,1-6.007.575c-.165,0-.327,0-.485-.008-7.139-.217-11.97,2.759-16.381,2.972-2.432.118-3.078-1.446-3.067-2.976a7.952,7.952,0,0,0,1.753.251c8.132.186,14.026-4.3,20-5.872l.019-.007.034-.012A70.2,70.2,0,0,1,1186.859,484.9Z" transform="translate(-1013.096 -421.627)"/><path class="ak" d="M1198.238,646.481s21.84-23.256,12.162-35.794-35.2-44.8-36.027-57.5c0,0,3.791,22.979,13.083,36.36S1198.238,646.481,1198.238,646.481Z" transform="translate(-1010.933 -417.15)"/><path class="ak" d="M1080.467,629.516s-10.416-7.88-10.9-14.592,9.667-25.006,9.667-25.006-6.094,17.359-3.346,23.731S1080.467,629.516,1080.467,629.516Z" transform="translate(-1017.806 -414.741)"/></g></g></g></g></svg>