<svg xmlns="http://www.w3.org/2000/svg" xmlns:xlink="http://www.w3.org/1999/xlink" width="444.001" height="363.407" viewBox="0 0 444.001 363.407"><defs><style>.a,.g,.j{fill:none;}.b{clip-path:url(#a);}.c{fill:#f3ffe0;}.d{fill:#95aac9;}.e{opacity:0.25;}.f{fill:#d7b25c;}.g,.j{stroke:#0f0504;stroke-width:0.323px;}.g,.i,.j{stroke-miterlimit:10;}.g{opacity:0.74;}.h{opacity:0.1;}.i{fill:#5fa383;stroke:#5fa383;stroke-width:0.821px;}</style><clipPath id="a"><path class="a" d="M513.488,687.137s-15.524-2.421-14.466-37.036-1.508-102.432-4.763-115.364S481.4,503.81,491,480.521s72.589-109.031,178.975-57.691S763.133,433.944,813.944,426c15.2-2.375,83.626,1.588,91.036,83.1s-12.6,108.178,4.818,147.14c0,0,19.437,4.175,20.807,25.905s-1.484,55.075-50.339,59.309-149.418,34.932-211.874,27.523-111.3,3.7-140.333-26.994S513.488,687.137,513.488,687.137Z" transform="translate(-486.847 -406.721)"/></clipPath></defs><g transform="translate(-486.847 -406.721)"><g class="b" transform="translate(486.847 406.721)"><rect class="c" width="908.246" height="345.62" transform="translate(-50.28 -61.167)"/><g transform="translate(-8.732 39.264)"><path class="d" d="M479.287,618.5s93.581,1.774,111.943,6.17,129.774-1.126,143.484-4.1,185.938,2.839,185.938,2.839,34.417,40.234-17.7,54.524S769.863,678.729,738.9,695.4s-70.381,29.375-125.3,15.084-88.264-55.574-105.73-58.75S479.287,618.5,479.287,618.5Z" transform="translate(-479.287 -413.163)"/><path class="e" d="M807.551,628.206s-30.973,7.836-60.826,1.12c-17.157-3.861-70.156-6.717-70.156-6.717l86.2-7.464Z" transform="translate(-448.712 -413.683)"/><g transform="translate(228.307 126.39)"><path class="f" d="M676.959,632.614l92.007-3.516,18.077-.69V574.415s-2.106-28.044-18.931-23.839c-.246.064-.492.127-.735.194-16.278,4.486-22.375,20.45-20.3,41.175l-.7,7.714s-9.817-7.714-16.128,2.1-4.907,16.829-4.907,16.829-11.217-6.31-26.643,2.1S676.959,632.614,676.959,632.614Z" transform="translate(-676.959 -550.147)"/><line class="g" y1="63.165" transform="translate(92.008 15.786)"/><line class="g" x2="21.667" y2="10.357" transform="translate(70.341 60.006)"/><line class="g" x1="11.918" y2="11.04" transform="translate(92.008 28.66)"/><line class="g" x2="2.768" y2="10.633" transform="translate(79.67 55.155)"/></g><path class="h" d="M753.483,608.813l3.623,3.613,2.777,2.765,15.3-13.77V574.415s-2.105-28.044-18.931-23.839c-.246.064-.492.127-.734.194,5.59,1.557,9.191,6.687,7.725,16.655a86.612,86.612,0,0,0-.258,16.975c.421,7.259,1.007,13.144-.489,14-1.284.735-3.486,3.265-5.389,5.649C755.136,606.507,753.483,608.813,753.483,608.813Z" transform="translate(-436.792 -423.757)"/><g transform="translate(311.028)"><path class="i" d="M750.675,646.335a15.5,15.5,0,0,0,11.2,7.634l6.456.97a126.887,126.887,0,0,0,24.028,1.3A256.231,256.231,0,0,1,826.8,651.2q9.863-.767,19.771-.765,3.61,0,7.224.1l15.061.425.373.008V499.77c-.12-.294-.246-.59-.373-.885-3.28-7.515-9.121-14.743-19.487-15.412,0,0-3.825-17.844-6.888-27.356-.918-2.844-1.766-4.941-2.427-5.6-2.339-2.34-8.5-11.837-18.472-9.4a20.278,20.278,0,0,0-7.317,3.675c-5.565,4.173-8.318,16.121-9.609,29.178-2.03,20.573-.422,43.9-.422,43.9l-.567,19.908-.057,1.836-.094,3.329s-17.911-7.164-29.371,16.479a69.735,69.735,0,0,0-4.575,12.664,117.184,117.184,0,0,0-3.27,19.8c-.219,2.608-.365,5.134-.451,7.526v0a158.629,158.629,0,0,0,.414,19.464,21.185,21.185,0,0,0-8.4,3.71,23.793,23.793,0,0,0-5.075,4.911,25.834,25.834,0,0,0-2.283,3.56l-.169.321a15.561,15.561,0,0,0,.336,14.96Z" transform="translate(-748.58 -440.717)"/><g transform="translate(56.734 38.815)"><line class="j" y1="175.521" transform="translate(21.492)"/><line class="j" x1="24.358" y2="34.394" transform="translate(21.492 111.76)"/><path class="j" d="M797.7,553.1l4.3,9.313,17.194,12.2" transform="translate(-797.701 -462.115)"/><path class="j" d="M827.056,515.262V529.59L816.31,543.754" transform="translate(-794.817 -467.979)"/><line class="j" x1="0.219" y2="6.117" transform="translate(36.676 118.566)"/><line class="j" y1="1.212" x2="6.465" transform="translate(39.385 119.641)"/><line class="j" x1="4.987" y2="1.061" transform="translate(2.866 102.819)"/><line class="j" y1="3.697" x2="4.298" transform="translate(32.238 52.298)"/></g></g><path class="h" d="M811.792,441.112c1.188-.29,4.233,1.482,5.322,2.021a18.078,18.078,0,0,1,4.331,2.944c3.2,2.987,5.114,7.07,6.631,11.1,4.279,11.386,4.019,22.4,3,34.286,0,0,19.031-10.822,28.361,21.073V499.77c-.12-.294-.246-.59-.373-.885-3.28-7.515-9.121-14.743-19.487-15.412,0,0-3.825-17.844-6.888-27.356-.918-2.844-1.766-4.941-2.427-5.6C827.924,448.176,821.766,438.68,811.792,441.112Z" transform="translate(-427.755 -440.716)"/><path class="e" d="M553.516,630.5s30.972,7.836,60.826,1.12c17.157-3.861,70.155-6.717,70.155-6.717l-86.2-7.464Z" transform="translate(-467.783 -413.327)"/><g transform="translate(106.181 129.044)"><path class="f" d="M681.3,634.912,589.3,631.4l-18.075-.69V576.712s2.1-28.043,18.93-23.838c.246.063.493.127.736.194,16.277,4.486,22.374,20.45,20.3,41.175l.7,7.714s9.819-7.714,16.128,2.1,4.908,16.829,4.908,16.829,11.217-6.31,26.644,2.1S681.3,634.912,681.3,634.912Z" transform="translate(-571.22 -552.445)"/><line class="g" y1="63.165" transform="translate(18.074 15.786)"/><line class="g" x1="21.667" y2="10.357" transform="translate(18.074 60.006)"/><line class="g" x2="11.918" y2="11.04" transform="translate(6.157 28.66)"/><line class="g" x1="2.768" y2="10.633" transform="translate(27.645 55.155)"/></g><path class="h" d="M592.919,611.111l-3.623,3.613-2.776,2.765-15.3-13.77V576.712s2.1-28.043,18.93-23.838c.246.063.493.127.736.194-5.59,1.557-9.191,6.687-7.724,16.655a86.617,86.617,0,0,1,.256,16.975c-.422,7.258-1.007,13.144.49,14,1.283.736,3.484,3.266,5.388,5.65C591.266,608.8,592.919,611.111,592.919,611.111Z" transform="translate(-465.039 -423.401)"/><g transform="translate(12.89 2.654)"><path class="i" d="M609,648.632a15.5,15.5,0,0,1-11.2,7.635l-6.455.97a126.806,126.806,0,0,1-24.028,1.3,256.48,256.48,0,0,0-34.447-5.037q-9.863-.768-19.77-.766-3.611,0-7.225.1l-15.061.425-.373.007v-151.2c.119-.3.246-.59.373-.885,3.28-7.516,9.12-14.743,19.486-15.412,0,0,3.825-17.844,6.889-27.357.918-2.844,1.765-4.94,2.426-5.6,2.34-2.34,8.5-11.837,18.472-9.4a20.291,20.291,0,0,1,7.318,3.675c5.564,4.172,8.318,16.121,9.608,29.178,2.03,20.572.422,43.895.422,43.895l.568,19.908.055,1.836.094,3.329s17.911-7.166,29.371,16.479a69.719,69.719,0,0,1,4.576,12.664,117.182,117.182,0,0,1,3.269,19.8c.219,2.608.365,5.134.452,7.526v0a158.758,158.758,0,0,1-.415,19.464,21.164,21.164,0,0,1,8.4,3.71,23.785,23.785,0,0,1,5.075,4.91,26.032,26.032,0,0,1,2.285,3.561c.055.107.111.213.168.321A15.562,15.562,0,0,1,609,648.632Z" transform="translate(-490.447 -443.015)"/><g transform="translate(18.069 38.815)"><line class="j" y1="175.521" transform="translate(24.358)"/><line class="j" x2="24.358" y2="34.394" transform="translate(0 111.76)"/><path class="j" d="M548.673,555.4l-4.3,9.313-17.194,12.2" transform="translate(-502.823 -464.413)"/><path class="j" d="M517.876,517.56v14.328l10.746,14.164" transform="translate(-504.265 -470.277)"/><line class="j" x2="0.219" y2="6.117" transform="translate(8.955 118.566)"/><line class="j" x1="6.465" y1="1.212" transform="translate(0 119.641)"/><line class="j" x2="4.987" y2="1.061" transform="translate(37.998 102.819)"/><line class="j" x1="4.298" y1="3.697" transform="translate(9.313 52.298)"/></g></g><path class="h" d="M538.092,443.41c-1.188-.29-4.234,1.482-5.323,2.021a18.091,18.091,0,0,0-4.33,2.943c-3.2,2.987-5.115,7.071-6.632,11.105-4.279,11.385-4.018,22.4-3,34.286,0,0-19.032-10.822-28.361,21.073V502.068c.119-.3.246-.59.373-.885,3.28-7.516,9.12-14.743,19.486-15.412,0,0,3.825-17.844,6.889-27.357.918-2.844,1.765-4.94,2.426-5.6C521.961,450.474,528.118,440.977,538.092,443.41Z" transform="translate(-477.557 -440.36)"/></g></g></g></svg>