<?xml version="1.0" encoding="utf-8"?>
<!-- Generator: Adobe Illustrator 24.1.2, SVG Export Plug-In . SVG Version: 6.00 Build 0)  -->
<svg version="1.1" id="Layer_1" xmlns="http://www.w3.org/2000/svg" xmlns:xlink="http://www.w3.org/1999/xlink" x="0px" y="0px"
	 viewBox="0 0 684.24 448.93" style="enable-background:new 0 0 684.24 448.93;" xml:space="preserve">
<style type="text/css">
	.st0{clip-path:url(#SVGID_2_);fill:url(#SVGID_3_);}
	.st1{fill:none;stroke:#FAB5A0;stroke-width:0.685;stroke-miterlimit:10;}
	.st2{fill:#455160;}
	.st3{fill:#56677C;}
	.st4{fill:#70859D;}
	.st5{opacity:0.47;fill:#C7DAEE;enable-background:new    ;}
	
		.st6{opacity:0.57;fill:none;stroke:#FFFFFF;stroke-width:0.5502;stroke-miterlimit:10;stroke-dasharray:12.7408;enable-background:new    ;}
	.st7{fill:#7D96B1;}
	.st8{fill:#C7DAEE;}
	.st9{fill:none;stroke:#FFFFFF;stroke-width:0.5502;stroke-miterlimit:10;stroke-dasharray:16.5063;}
	.st10{fill:#2D3B54;}
	.st11{fill:#415678;}
	.st12{fill:#0B1C33;}
	.st13{fill:#143159;}
	.st14{fill:#0D1E38;}
	.st15{fill:#0E2340;}
	.st16{fill:#FF8463;}
	.st17{fill:none;stroke:#FE946D;stroke-width:0.685;stroke-miterlimit:10;}
	.st18{opacity:0.47;fill:#95AAC9;enable-background:new    ;}
	
		.st19{opacity:0.57;fill:none;stroke:#FFFFFF;stroke-width:0.685;stroke-miterlimit:10;stroke-dasharray:15.862;enable-background:new    ;}
	.st20{fill:#4B648C;}
	.st21{fill:#95AAC9;}
	.st22{fill:none;stroke:#FFFFFF;stroke-width:0.685;stroke-miterlimit:10;stroke-dasharray:20.55;}
	.st23{fill:#0F2342;}
	.st24{fill:#122C52;}
	.st25{opacity:0.57;fill:#FFC1B0;enable-background:new    ;}
	.st26{fill:#E8F5F9;}
	.st27{fill:#EBD4BB;}
	.st28{fill:#CFB38A;}
	.st29{fill:#E8E5B0;}
	.st30{fill:#D4B88C;}
	.st31{fill:#BA9E72;}
	.st32{fill:#F5F4CD;}
	.st33{fill:#402701;}
	.st34{fill:none;stroke:#BA9E72;stroke-width:8.657018e-03;stroke-miterlimit:10;}
	.st35{fill:none;stroke:#BA9E72;stroke-width:4.328509e-03;stroke-miterlimit:10;}
	.st36{fill:none;stroke:#E8E5B0;stroke-width:8.657018e-03;stroke-miterlimit:10;}
	.st37{fill:none;stroke:#E8E5B0;stroke-width:4.328509e-03;stroke-miterlimit:10;}
	.st38{fill:none;stroke:#BDA173;stroke-width:8.657018e-03;stroke-miterlimit:10;}
	.st39{fill:none;stroke:#BA9E72;stroke-width:0.0123;stroke-miterlimit:10;}
	.st40{fill:none;stroke:#BA9E72;stroke-width:5.771345e-03;stroke-miterlimit:10;}
	.st41{fill:none;stroke:#E8E5B0;stroke-width:0.0123;stroke-miterlimit:10;}
	.st42{fill:none;stroke:#E8E5B0;stroke-width:5.771345e-03;stroke-miterlimit:10;}
	.st43{fill:none;stroke:#BDA173;stroke-width:0.0123;stroke-miterlimit:10;}
	.st44{fill:none;stroke:#BA9E72;stroke-width:0.0267;stroke-miterlimit:10;}
	.st45{fill:none;stroke:#BA9E72;stroke-width:0.0137;stroke-miterlimit:10;}
	.st46{fill:none;stroke:#E8E5B0;stroke-width:0.0267;stroke-miterlimit:10;}
	.st47{fill:none;stroke:#E8E5B0;stroke-width:0.0137;stroke-miterlimit:10;}
	.st48{fill:none;stroke:#BDA173;stroke-width:0.0267;stroke-miterlimit:10;}
	.st49{fill:#D9B48D;}
	.st50{fill:none;stroke:#BA9E72;stroke-width:0.0133;stroke-miterlimit:10;}
	.st51{fill:none;stroke:#BA9E72;stroke-width:6.648238e-03;stroke-miterlimit:10;}
	.st52{fill:none;stroke:#E8E5B0;stroke-width:0.0133;stroke-miterlimit:10;}
	.st53{fill:none;stroke:#E8E5B0;stroke-width:6.648238e-03;stroke-miterlimit:10;}
	.st54{fill:none;stroke:#BDA173;stroke-width:0.0133;stroke-miterlimit:10;}
	.st55{fill:none;stroke:#BA9E72;stroke-width:0.0188;stroke-miterlimit:10;}
	.st56{fill:none;stroke:#BA9E72;stroke-width:8.864317e-03;stroke-miterlimit:10;}
	.st57{fill:none;stroke:#E8E5B0;stroke-width:0.0188;stroke-miterlimit:10;}
	.st58{fill:none;stroke:#E8E5B0;stroke-width:8.864317e-03;stroke-miterlimit:10;}
	.st59{fill:none;stroke:#BDA173;stroke-width:0.0188;stroke-miterlimit:10;}
	.st60{fill:none;stroke:#BA9E72;stroke-width:0.041;stroke-miterlimit:10;}
	.st61{fill:none;stroke:#BA9E72;stroke-width:0.0211;stroke-miterlimit:10;}
	.st62{fill:none;stroke:#E8E5B0;stroke-width:0.041;stroke-miterlimit:10;}
	.st63{fill:none;stroke:#E8E5B0;stroke-width:0.0211;stroke-miterlimit:10;}
	.st64{fill:none;stroke:#BDA173;stroke-width:0.041;stroke-miterlimit:10;}
	.st65{fill:#D99E60;}
	.st66{fill:#B5783B;}
	.st67{fill:#FAD8A7;}
	.st68{fill:#FDFAC0;}
	.st69{fill:#FBD9A5;}
	.st70{fill:#E5C28C;}
	.st71{fill:#FFFED5;}
	.st72{fill:#6B4102;}
	.st73{fill:none;stroke:#E5C28C;stroke-width:0.0464;stroke-miterlimit:10;}
	.st74{fill:none;stroke:#E5C28C;stroke-width:0.0237;stroke-miterlimit:10;}
	.st75{fill:none;stroke:#FDFAC0;stroke-width:0.0464;stroke-miterlimit:10;}
	.st76{fill:none;stroke:#FDFAC0;stroke-width:0.0237;stroke-miterlimit:10;}
	.st77{fill:none;stroke:#E8C68D;stroke-width:0.0464;stroke-miterlimit:10;}
	.st78{fill:none;stroke:#E5C28C;stroke-width:0.0475;stroke-miterlimit:10;}
	.st79{fill:none;stroke:#FDFAC0;stroke-width:0.0475;stroke-miterlimit:10;}
	.st80{fill:none;stroke:#E8C68D;stroke-width:0.0475;stroke-miterlimit:10;}
	.st81{fill:none;stroke:#E5C28C;stroke-width:0.1053;stroke-miterlimit:10;}
	.st82{fill:none;stroke:#E5C28C;stroke-width:0.0526;stroke-miterlimit:10;}
	.st83{fill:none;stroke:#FDFAC0;stroke-width:0.1053;stroke-miterlimit:10;}
	.st84{fill:none;stroke:#FDFAC0;stroke-width:0.0526;stroke-miterlimit:10;}
	.st85{fill:none;stroke:#E8C68D;stroke-width:0.1053;stroke-miterlimit:10;}
	.st86{fill:none;stroke:#E5C28C;stroke-width:0.1063;stroke-miterlimit:10;}
	.st87{fill:none;stroke:#E5C28C;stroke-width:0.0537;stroke-miterlimit:10;}
	.st88{fill:none;stroke:#FDFAC0;stroke-width:0.1063;stroke-miterlimit:10;}
	.st89{fill:none;stroke:#FDFAC0;stroke-width:0.0537;stroke-miterlimit:10;}
	.st90{fill:none;stroke:#E8C68D;stroke-width:0.1063;stroke-miterlimit:10;}
</style>
<g>
	<path class="st26" d="M48.49,346.04c0,0-66-76-44-148s99-95,132-145s96-74,174-30s116,12,181,1s190,36,179,131s49,136-20,205
		s-431.82,31.86-431.82,31.86L48.49,346.04z"/>
	<g>
		<path class="st27" d="M328.07,325.86c-52.8-1.4-81.09-42.65-83.58-46.44c2.93,4.45,21.87-1.85,25.2-4.48
			c11.32-8.92,16.65-21.22,30.43-27.53c11.35-5.19,24.4-6.68,36.71-4.93c29.46,4.18,66.93,28.65,89.17,47.02
			C403.49,314.54,363.07,326.78,328.07,325.86z"/>
		<g transform="translate(474.78 476.094)">
			<path class="st27" d="M-135.87-286.74c-0.55,0.17-0.59,0.13-0.3-0.38c0.3-0.51-0.81,0.3-1.4,0.42c0.16-0.21,0.31-0.44,0.42-0.68
				c0.04-0.17-1.14,0.68-0.93,0.47c0.21-0.21-0.04-0.25-0.51-0.21c-0.47,0.04-0.8,0.08-0.47-0.3s-0.13-0.21-0.59,0.04
				c-0.47,0.25-0.68,0.04-1.69,0.09c-1.02,0.04-0.8-0.3-0.76-0.47c0.04-0.17,0.59,0.08,2.37-0.76s-0.09-0.16,0.8-0.38
				c0.89-0.22,0.59-0.25,0.89-0.72s0.34,0.08,0.93,0.21c0.59,0.13,1.19,0.72,1.48,0.81c0.38,0.15,0.81,0.15,1.19,0
				c0.38-0.21-0.13-0.51-0.13-0.51l-0.08-0.42l0.04-0.21c0,0-0.25,0-1.27,0.13c-1.02,0.13,0,0,0-0.55s0.25-0.3,0.25-0.3l-0.93-0.38
				l0.34,0.04l0.25-0.47l-0.17-0.25c-0.2-0.21-0.49-0.29-0.76-0.21c-0.55,0.09,0.13-0.25,0-0.42c-0.06-0.08-0.13-0.16-0.21-0.21
				l-1.36-0.38c0,0-0.05-0.25,0.51-0.59s-0.04-0.64-0.04-0.64l-0.17-0.13l-0.59-0.47c0,0,0.51-0.21-0.13-0.51
				c-0.63-0.3,0.64-0.47,0.64-0.47h0.34c0,0,0.47,0.68,0.72,0.59c0.67-0.08,1.35,0.15,1.82,0.64c0.55,0.74,1.15,1.45,1.78,2.12
				c0.81,0.72,0.81-0.51,0.93-1.52c0.18-0.86-0.15-1.75-0.85-2.29c-0.64-0.42-0.97-0.51-1.48-0.89c-0.51-0.38-0.47-0.04-0.64-0.55
				c-0.17-0.51-0.3-0.3-0.93-0.59s-0.21-0.3,0.42-0.25c0.64,0.04,0.59-0.44,0.59-0.44l0.68,0.87l0.09-0.42l0.64,0.47l0.64,0.09
				l0.93,0.85c0,0,0.34,0.04,0.25-0.25s-0.17-0.55-0.17-0.55c0.05-0.33,0.02-0.66-0.09-0.97c-0.47-0.7-0.99-1.37-1.57-1.99
				c0.32,0.09,0.62,0.26,0.85,0.51c0.51,0.47,0.59,0.17,0.85,0.21c0.25,0.04,0.13-0.13,0.09-0.76c-0.04-0.64,0.13,0.17,0.17-0.3
				v-0.72c0,0,0.13,0.21,0.13-0.21c0-0.42-0.04-1.1-0.04-1.1c0.5,0.97,0.7,2.05,0.59,3.14c0.43-0.01,0.83-0.17,1.14-0.47
				c0.42-0.47-0.09,0.51-0.81,1.23c-0.72,0.72-0.38,0.34-0.5,1.31c-0.08,0.56,0.15,1.13,0.59,1.48c0.6-0.65,0.96-1.49,1.02-2.37
				c0.13-1.53,0.08,0.42,0.21,1.14c0.13,0.72,0.21-0.55,0.21-0.55s0.17,0,0.55-0.47c0,0,0.09,0.17,0.38,0
				c0.25-0.14,0.21-0.25,0.81-0.64c0.59-0.38-0.13,0.51-1.27,1.91c-1.15,1.4,0.3,0.17,0.3,0.17l0.55,0.72l-0.59-0.04
				c-0.36,0.2-0.58,0.57-0.59,0.97c0,0.68,0.68,0.3,1.23-0.13c0.55-0.42-0.47,0.76-1.06,1.57c-0.59,0.8,0.38,1.06,1.31,0.85
				c0.93-0.21,2.29-1.44,2.63-1.69c0.34-0.25,0.17-0.25-0.08,0.17s-0.13,0.21,0.13,0.38c0.25,0.17,0.72,0.34,0.38,0.59
				c-0.44,0.46-0.94,0.85-1.48,1.19c-0.35,0.15-0.67,0.36-0.93,0.64c0,0,0.93,0.38,0.76,0.51c-0.17,0.13,0.47,0.42,0.47,0.42
				s-1.31,0.17-1.86,0.21c-0.55,0.04-1.23,0.81-1.48,0.97c-0.44,0.2-0.89,0.37-1.36,0.51c-0.64,0.25,1.57,0.8,2.46,0.42
				c0.7-0.24,1.43-0.39,2.16-0.42c-0.42,0.04-0.17,0.72,0.21,0.8s2.08-0.8,2.42-1.19c0.34-0.38,0.93,0.25,1.48,0.47
				c0.78,0.2,1.57,0.34,2.37,0.42c0,0-0.51,0.47-1.99,0.13c-1.48-0.34-0.59,0.47-0.59,0.47l-0.21,0.3c0,0-0.47,0.08-0.34,0.38
				s-0.13-0.09-0.64-0.25s-1.1,0.64-1.1,0.64l-1.14-0.21l-0.13,0.93l-0.76-0.13l-0.3,0.38c-0.18-0.05-0.36-0.14-0.51-0.25
				c-0.3-0.21-0.25,0.17-0.17,0.47c0.09,0.3-1.06-0.76-1.69-1.1c-0.64-0.34-0.68,0.46-0.55,1.23c0.13,0.76,2.37,0.68,3.13,0.47
				c0.76-0.21,0.76,0.3,1.53-0.13c0.76-0.42,0.3,0.17,0.3,0.17c0.01,0.1,0.06,0.19,0.14,0.25c0.17,0.15,0.43,0.13,0.58-0.04
				c0.55-0.42,0.13,0.34,0.13,0.34l0.72-0.04c0,0,0.13,0.08,0.04,0.34c-0.08,0.25,1.1-0.3,1.53-0.59c-0.85,0.84-1.77,1.61-2.75,2.29
				c-1.23,0.85-0.04,0.76,0.97,0.64c1.02-0.13,0.98-0.34,0.42,0.34c-0.55,0.68-0.42,0.34-0.72,1.06c-0.3,0.72,0.34,0.17,0.85-0.25
				c0.51-0.42-0.04,0.42-0.04,0.42l0.81-0.38l0.09,0.3l0.97-0.8c0,0,0.21,0.04,0.09,0.3s-0.59,0.97,0.47,0.47
				c0.59-0.3,1.31-0.22,1.82,0.21c0,0-1.1,0.38-1.86,0.72c-0.76,0.34-3.81,1.57-4.53,1.36s-1.65,0.98-1.95,1.57
				c-0.3,0.59,1.1,1.27,2.2,1.31c1.1,0.04,3.01-0.21,3.64,0s1.86,0.51,1.86,0.51s0.34,0.21-0.13,0.47s0,0-0.59,0.25
				c0,0,0.13,0.26-0.47,0.42c-0.64,0.17-1.31,0.06-1.86-0.3c-0.38-0.34-1.48,0.81-1.48,0.81s0.55,0.59,0.97,1.1s2.16,0.55,2.97,0.3
				c0.72-0.15,1.47-0.18,2.2-0.08c-0.2,0.12-0.41,0.21-0.64,0.25c-0.3,0.04-0.04,0.17-0.09,0.42c-0.04,0.25-0.47,0.04-1.1-0.13
				c-0.63-0.17,0.13,0.38-0.17,0.51c-0.35,0.1-0.7,0.18-1.06,0.21c0,0,0.09,0.21-0.25,0.25c-0.34,0.04-0.81,0.47-1.19,0.09
				c-0.65-0.53-1.4-0.94-2.2-1.19c-0.42-0.04-0.08,1.06,0.13,1.74c0.24,0.52,0.6,0.97,1.06,1.31c0,0,0.93-0.04,0.97-0.04
				c0.39,0.17,0.82,0.2,1.23,0.08c0.85-0.17,0,0-0.34,0.25c-0.34,0.25,1.31-0.13,1.36-0.13c0.13,0.07,0.26,0.16,0.38,0.25l0.17,0.17
				c0.24,0.01,0.49,0.06,0.72,0.13c0.15,0.09,0.29,0.19,0.42,0.3l0.21,0.47c0,0,1.53,0.04,1.27,0.25c-0.57,0.53-1.21,0.97-1.91,1.31
				c-1.48,0.16-2.97,0.18-4.45,0.04c-0.72-0.08-0.25,0.17-0.38,0.3c-0.13,0.13-0.09,0.38,0.25,0.81c0.34,0.42,0.17,0.21-0.21,0
				c-0.38-0.21,0.3,0.38,0.3,0.38l0.17,0.59c0,0,0.51,0.21,0.13,0.13c0.47,0.23,0.95,0.43,1.44,0.59l0.51,0.51
				c0,0-2.25,0.04-2.12,0.04c0.13,0,0.59,0.26,1.02,0.98c0.42,0.72,0.47,0.47,0.47,0.47c0.16,0.17,0.37,0.3,0.59,0.38
				c0.42,0.17,0.38,0.34,0.38,0.34c-0.13,0.09,0.55,0.42,0.55,0.42l0.13,0.09c0,0,0.04,0.25,0.5,0.47c0.47,0.21-0.17,0.09-0.17,0.09
				s0.13,0.21,0.72,0.34c0.59,0.13-0.17,0.17-0.17,0.17s0.38,0.17,0.64,0.25l-0.59-0.04l1.48,0.93c0,0,1.7,0.68,2.33,0.47
				c0.63-0.21,0.21,0.42-0.34,0.72c-0.55,0.3-0.55-0.13-0.55-0.13l-0.47,0.04l-0.09,0.21c0,0-0.42,0-0.72,0.64s-0.09,0.04-0.3-0.04
				c-0.68-0.01-1.35-0.14-1.99-0.38c-0.85-0.42-0.72-0.13-0.72-0.13l0.3,0.76c0,0,0.51,0.42-0.13,0.38
				c-0.63-0.04-0.55,0.17-0.21,0.13c0.34-0.04-0.89-0.21-1.14-0.72c-0.25-0.51-0.68-0.42-1.53-0.85c-0.85-0.42-0.76,0.89-0.64,1.57
				s1.48,1.61,2.16,2.16c0.68,0.55,3.16,0.74,3.16,0.74l0.97,0.47c0,0,0.34,0.17-0.34,0.17c-0.68,0,2.41,0.3,3.26-0.13
				s0.26,0.34,0.89,0s-0.38,0.72,0.13,0.51s-0.51,0.72-2.63,1.99c-2.12,1.27,0,0.34,0.51,0.25c0.51-0.08,0,0-0.38,0.13
				c-0.38,0.13,0,0.42,0.34,0.59c0.2,0.1,0.41,0.16,0.64,0.17l-0.55,0.34c0,0-0.81,0.08-0.34,0.08s-0.47,0.21-1.4,0.34
				c-0.93,0.13-0.13,0.38,0.68,0.09c0.81-0.3,0,0.25-0.93,0.64c-1.2,0.33-2.47,0.28-3.64-0.13c-0.42-0.46-1.04-0.68-1.65-0.59
				c-1.19,0-0.25,0.51-0.25,0.51l-0.8-0.04l-0.25,0.13l-0.55,0.13c0,0-0.34,0,0.21,0.21c0.55,0.21-1.02,0.38-2.8,0.34
				s-2.25-0.34-2.37-0.93c-0.13-0.59-0.09-0.08-0.68,0.38c-0.59,0.47-1.36,0.64-1.02,0.3c0.34-0.34-0.42-0.59-0.09-1.14
				c0.34-0.55-0.34-0.04-0.17-0.38s-0.09,0.04-0.09,0.04l-0.38-0.51c0,0-0.17-0.08-0.17,0.17s0.13,0.68-0.3,0.47l0.21,0.59
				l0.25,0.72c0,0,0.34,0.17-0.13,0.42c-0.34,0.14-0.72,0.14-1.06,0l-0.38-2.29c-0.32,0.05-0.64-0.05-0.89-0.25
				c-0.34-0.34-0.3,0.72-0.3,0.72c-0.08,0.34-0.33,0.47-0.5,0.08c-0.17-0.38-0.13,0.51-0.13,0.51l-0.42,0.09
				c0,0-0.17-0.09-0.25,0.25s-0.89,0.51-1.02,0.42c-0.13-0.09-0.25-0.13-0.81,0c-0.55,0.13-0.68,0.17-0.38-0.21
				c0.3-0.38-0.21-0.04-0.68,0.17c-0.47,0.21-0.59,0.25-0.34-0.38c0.25-0.63-0.21-0.25-0.59,0.38s-0.46,0.34-0.42-0.3
				s-0.85,0.21-0.85,0.21l-0.68-0.3h-0.64c0,0-0.17-0.17-0.47,0.21c-0.3,0.38-0.68,0-0.89-0.64c-0.21-0.64-1.27-1.19-1.27-1.19
				l-0.72,0.08c0,0-0.47,0.63-0.42,0.34c0.04-0.3-0.34,0.13-0.34,0.13l-0.09-0.55h-0.25c-0.25,0.5-0.56,0.97-0.93,1.4
				c-0.34,0.25-0.17-0.04,0.13-1.06c0.3-1.02-0.34,0-0.34,0c-0.47-0.01-0.95,0.06-1.4,0.21c-0.81,0.25-0.55,0-0.21-0.38
				c0.34-0.38-0.17-0.09-0.47-0.09c-0.46,0.07-0.88,0.28-1.23,0.59c-0.59,0.42-0.42,0.34-0.38,0.21c0.03-0.25,0.13-0.49,0.3-0.68
				c0.38-0.32,0.86-0.51,1.36-0.55c0.8-0.17-0.47-0.34-0.47-0.34h-0.3l-1.06,0.68c-0.09-0.31-0.4-0.51-0.72-0.47
				c-0.55,0.09-0.3-0.17,0.21-0.42c0.51-0.25-0.13-0.21-0.76-0.25s-0.47-0.04,0.04-0.25c0.51-0.21-0.47-0.55-1.02-0.81
				c-0.24-0.14-0.52-0.21-0.81-0.21c0,0,0.42-0.08,1.31-0.17c0.72,0.01,1.45,0.06,2.16,0.17c0.36,0.03,0.7-0.2,0.8-0.55l0.89,0.13
				v-0.55l0.76,0.42c0.85-0.19,1.67-0.52,2.41-0.97c0.97-0.42,1.73-1.22,2.12-2.2c0.64-1.27-0.17-1.23-0.17-1.23
				c-0.35-0.01-0.7,0.06-1.02,0.21c-0.59,0.25-0.59,0.17-0.76,0.85s-0.25,0.04-0.76,0.13c-0.25,0.04-0.49,0.11-0.72,0.21
				c-0.21,0.03-0.42-0.05-0.55-0.21c0.25-0.1,0.5-0.18,0.76-0.25c0.34-0.09,0.34-0.55,0.13-0.93c-0.21-0.38-0.59,0.08-0.89,0.38
				c-0.21,0.19-0.48,0.31-0.76,0.34c0,0-0.34,0-0.38-0.08c-0.04-0.09-0.38-0.09-0.38-0.09s0.25-0.25,0-0.3
				c-0.25-0.04-0.47-0.04-0.13-0.3c0.34-0.26-0.13,0-0.55-0.13c-0.24-0.07-0.13-0.08-0.72,0.09c-0.59,0.17-0.72-0.09-0.97-0.25
				c-0.18-0.14-0.31-0.34-0.38-0.55c0.19,0.08,0.4,0.08,0.59,0c0.39-0.12,0.76-0.29,1.1-0.51c0.26-0.29,0.62-0.48,1.02-0.51
				c0.59-0.04,0.42-0.21,0.42-0.21l0.38-0.42c0,0-0.1-0.03,0.3-0.13c0.06-0.01,0.12-0.03,0.2-0.04c0.64-0.13,0.34-0.25,0.34-0.25
				s-0.38-0.08,0.21-0.51c0.66-0.44,1.3-0.93,1.91-1.44c0.72-0.63-0.93,0.13-0.93,0.13s0.68-0.26-0.21,0.13
				c-0.28,0.09-0.56,0.22-0.81,0.38c-0.38,0.21-0.17-0.47-0.17-0.47c0.17-0.42-0.25,0-0.25,0l-0.85,0.17l0.25-0.34l-0.68-0.09
				c0.17-0.17,0.04-0.21-0.34-0.17c-0.38,0.04-0.38-0.21-0.38-0.21c0.12-0.07,0.22-0.18,0.3-0.3c0.09-0.17-0.34-1.02-1.36-2.2
				c-1.02-1.19-0.13-0.51,0.25-0.25c0.38,0.25,0.89,0.68,0.64,0.3s0.04-0.13,0.59,0.3c0.55,0.42,0.55,0.17,1.31,0.3
				c1.05,0.09,2.1,0.04,3.14-0.17c0.68-0.17,0.3-0.42,0.3-0.42l-0.25-0.42l0,0l-0.21,0.04c-0.38,0.07-0.77,0.06-1.14-0.04
				c-0.72-0.13-0.21-0.09,0.04-0.38c0.25-0.3-0.34,0.13-0.72,0.13s0.04-0.21,0.08-0.34s-0.25-0.13,0.09-0.25
				c0.34-0.13-0.25-0.08-0.25-0.08s-0.13-0.13,0.25,0c0.38,0.13-0.17-0.21-0.42-0.25c0.21,0.04,0.43,0.04,0.64,0
				c0.3-0.08-0.98-0.59-0.98-0.59l0.21,0.17c0.68,0.3,1.42,0.42,2.16,0.34c0.74-0.1,1.46-0.27,2.16-0.51
				c0.59-0.2,1.12-0.54,1.57-0.97c0.17-0.17-1.74-0.17-2.16-0.34c-0.42-0.17-0.42,0-0.97,0.17c-0.44,0.14-0.92,0.08-1.31-0.17
				c-0.47-0.21-0.34-0.34-0.17-0.17c0.17,0.17,0.89,0.09,1.36-0.04c0.47-0.13,0.47-0.59,0.04-0.93c-0.23-0.2-0.54-0.29-0.85-0.25
				c0,0-0.34-0.13,0-0.17c0.34-0.04-0.76-0.04-0.76-0.04s-0.3-0.21,0.17-0.3s-1.44-0.09-1.74-0.21s-0.68-0.89-0.68-0.89l0.47,0.38
				c0.21,0.14,0.44,0.24,0.68,0.3c0.3,0.04-0.17-0.21,0.38-0.34s-0.17-0.13-0.59-0.13s-0.3-0.34,0.97-0.76
				c1.11-0.27,2.25-0.35,3.39-0.25c0.34,0,0.93,0.17,2.2,0.25c1.27,0.08,2.88-1.19,3.14-1.48c0.25-0.29,0.09-0.67-0.85-0.51
				c-0.54,0.1-1.1,0.13-1.65,0.08c-0.38,0-0.72,0.3-1.1,0.25c-0.38-0.04,0.09-0.25,0.25-0.34c0.17-0.09,0.38-0.34-0.3-0.59
				c-0.68-0.25-1.48,0.13-2.41,0.09c-0.63-0.01-1.25,0.16-1.78,0.51c-0.25,0.13,0.04-0.42,0.38-0.55c0.34-0.13,0.3-0.25,0.38-0.42
				l0.09-0.34l-0.25-0.3c0,0,0,0.04,0.25,0s-0.21-0.51-0.98-0.85c-0.49-0.17-1.03-0.02-1.36,0.38c0.24-0.36,0.58-0.64,0.98-0.81
				c0.59-0.21,1.65-0.76,2.08-0.85c0.42-0.09,0.72,0.34,1.48,0.47s1.27,0.08,1.02-0.72c-0.25-0.8-1.57-0.38-1.57-0.38
				s0.42-0.04,1.14-0.08c0.72-0.04,1.23,0.3,2.2,0.55c0.69,0.17,1.42,0.11,2.08-0.17c0.68-0.17,2.42-0.68,2.88-1.31
				s-0.89-0.17-2.16-0.13c-0.58,0.06-1.17,0-1.74-0.17l-0.85-0.13c0,0-0.72,0.13-0.64,0s-0.3,0.04-0.72-0.09
				c-0.42-0.13,0,0,0.21-0.38l-0.47-0.3c0.04-0.21-0.21-0.17-0.64-0.17c-0.59-0.13-1.16-0.34-1.69-0.64
				c-0.59-0.25-0.72-0.63-1.27-1.27s0.13-0.09,0.55,0.17c0.31,0.15,0.66,0.16,0.97,0.04l0.42-0.13c0,0,0.93,0.42,1.02,0.47
				s-0.47-0.55-0.59-0.72c0.36,0.23,0.7,0.48,1.02,0.76c0,0,0-0.13-1.1-1.14c-1.1-1.02,0.21,0,0.55,0.3
				c0.34,0.3,0.38,0.38,0.59,0.42c0.21,0.04,0.42,0.25,0.76,0.25c0.34,0,0.04-0.3,0.04-0.3l0.51,0.42c0,0,0.17-0.04-0.17-0.42
				c-0.34-0.38,0.34,0.21,0.34,0.21s0.38,0.04,0.17-0.25c-0.21-0.3,1.14,0.3,1.99,0.55c0.52,0.19,1.1,0.12,1.57-0.17
				c0.39-0.19,0.64-0.58,0.64-1.02c0.01-0.27-0.12-0.52-0.34-0.68l-0.68,0.34l-0.72-0.04l-0.17-0.3l-0.3-0.04l-0.47,0.13
				c0,0-0.09-0.13,0.25-0.42c0.34-0.3-0.5-0.17-0.5-0.17s0.13-0.04,0.34-0.55c0.21-0.51-0.38,0.09-0.51,0.13
				c-0.13,0.04-0.3,0.17-0.59,0.3c-0.35,0.17-0.67,0.4-0.93,0.68c-0.17,0.21-0.42,0.51-0.42,0.51c0.01-0.2,0.08-0.39,0.21-0.55
				c0.21-0.25,0.42-0.47,0.76-0.93c0.34-0.46-0.34-0.13-0.72,0.04c-0.38,0.17-0.76-0.04-0.93,0.04c-0.17,0.09-0.51,0.3-0.51,0.3
				c-0.01-0.31,0.18-0.6,0.47-0.72h-0.85l-0.51-0.13c0,0-0.09-0.17,0.3-0.42c0.38-0.25-0.21-0.13-0.76,0.09
				c-0.55,0.21-0.13-0.08,0.17-0.34c0.3-0.25-0.21-0.09-0.64,0.17c-0.42,0.25-0.93,0.21-0.51,0.04c0.42-0.17,0.46-0.68,1.23-0.85
				c0.55-0.11,1.11-0.11,1.65,0c0.89,0.04,3.22,0,4.74,0s3.43-2.08,3.43-2.08L-135.87-286.74z"/>
			<path class="st27" d="M-134.88-250.42c0,0,0.34,10.17,0.3,11.65c-0.04,1.49-0.72,11.95-0.72,11.95l1.61-0.25
				c0.21-0.79,0.37-1.6,0.47-2.41c0.17-1.4,0.25-9.36,0-10.76s0.04-8.35,0-8.56L-134.88-250.42z"/>
		</g>
		<g transform="translate(507.849 568.728)">
			<path class="st28" d="M-171.77-327.44c0.04-0.1,0.21-0.39,0.26-0.53c0.05-0.15,0.46-0.43,0.52-0.47s0.15-0.06,0.14,0.04
				c-0.12,0.35-0.28,0.68-0.49,0.99c-0.36,0.64-0.6,0.4-0.6,0.4S-171.81-327.34-171.77-327.44z"/>
			<path class="st29" d="M-171.84-327.09c0.14-0.16,0.22-0.36,0.24-0.57c-0.01-0.15-0.01-0.38-0.02-0.51
				c-0.01-0.13-0.21,0.15-0.28,0.26s-0.03,0.15-0.03,0.29C-171.93-327.62-171.93-327.02-171.84-327.09z"/>
			<path class="st30" d="M-172.23-328.05c-0.02,0.13-0.04,0.26-0.04,0.39c0,0.1,0.17,0.31,0.17,0.31l0.19-0.18
				c0-0.16-0.01-0.31-0.03-0.47c-0.03-0.08-0.07-0.33-0.12-0.36s-0.08,0.04-0.08,0.04S-172.21-328.13-172.23-328.05z"/>
			<path class="st31" d="M-172.48-327.08c0,0-0.36-0.03-0.43-0.04c-0.2-0.03-0.4-0.04-0.6-0.04c-0.14,0.01-0.25-0.16-0.32-0.21
				c-0.1-0.06-0.18-0.15-0.25-0.24c-0.02-0.05,0.06-0.01,0.16-0.03c0.1-0.01,0.21-0.01,0.31,0c0,0,0.07,0.04,0,0.02
				c-0.07-0.03-0.24-0.3-0.26-0.33c-0.02-0.03,0.04-0.04,0.09-0.04c0.09,0.01,0.19,0.01,0.28,0c0.18,0.02,0.36,0.07,0.53,0.16
				c-0.04-0.05-0.08-0.1-0.12-0.16c-0.06-0.15-0.1-0.31-0.13-0.47c-0.02-0.03,0.04-0.07,0.1-0.04c0.06,0.03,0.2,0.13,0.28,0.16
				c0.07,0.04,0.14,0.1,0.19,0.16v-0.16c0-0.06,0.03-0.11,0.07-0.14c0.04-0.02,0.02,0.04,0.09,0.09s0.16,0.34,0.16,0.32
				c0-0.11,0-0.23,0.02-0.34c0.03-0.13,0.09-0.26,0.16-0.37c0.07-0.08,0.13-0.13,0.13-0.03c-0.01,0.08,0.01,0.17,0.04,0.24
				c0.04,0.24,0.06,0.49,0.06,0.74L-172.48-327.08z"/>
			<path class="st30" d="M-172.84-326.61c-0.12,0.04-0.25,0.08-0.36,0.14c-0.06,0.05-0.43,0.38-0.47,0.43s0,0.09,0.04,0.1
				c0.04,0.01,0.23-0.08,0.76-0.21c0.33-0.1,0.61-0.34,0.77-0.66c0.09,0.13,0.22,0.23,0.38,0.27c0.24,0.06,0.49,0.09,0.73,0.09
				c0.17-0.02,0.33-0.02,0.5-0.02c0.1,0.01-0.04-0.1-0.11-0.16c-0.25-0.16-0.5-0.31-0.77-0.45c-0.15-0.01-0.3-0.01-0.45,0.01h-0.03
				L-172.84-326.61z"/>
			<path class="st30" d="M-172.47-327.43c-0.09-0.12-0.2-0.23-0.32-0.33c-0.2-0.1-0.42-0.16-0.64-0.17
				c-0.08-0.01-0.03,0.05,0.06,0.16c0.09,0.11,0.16,0.28,0.03,0.22c-0.14-0.05-0.35,0.01-0.23,0.04c0.14,0.07,0.27,0.17,0.37,0.29
				c-0.04-0.03-0.23,0.04-0.23,0.04c-0.12,0.03-0.15,0.05-0.24,0.07c-0.09,0.03-0.09,0.08-0.05,0.09c0.09,0.02,0.17,0.04,0.25,0.08
				c0.07,0.03,0.51,0.1,0.47,0.1c-0.05,0.01-0.09,0.04-0.13,0.07c-0.05,0.03-0.11,0.06-0.17,0.08c-0.07,0.03-0.02,0.06,0.05,0.04
				c0.09-0.01,0.17-0.01,0.26,0c0.28,0.04,0.57-0.02,0.81-0.17L-172.47-327.43z"/>
			<path class="st32" d="M-172.09-327.1c0.06-0.05,0.01-0.2,0-0.26c-0.02-0.07-0.04-0.15-0.07-0.22c-0.02-0.03-0.14-0.01-0.14-0.01
				l-0.11-0.06c0,0-0.15-0.06-0.22-0.08c-0.07-0.02,0.01,0.04-0.04,0.06c-0.05,0.02,0.03,0.03,0.03,0.03s-0.04,0.02-0.03,0.04
				c0.01,0.02,0.01,0.07-0.03,0.02c-0.04-0.05-0.04,0.05-0.05,0.09c0,0.09,0.01,0.18,0.03,0.27c0.02,0.11,0.09,0.1,0.16,0.17
				C-172.44-326.94-172.15-327.05-172.09-327.1z"/>
			<path class="st29" d="M-172.63-327.11c0.11-0.02,0.23-0.03,0.34-0.02c0.08,0.03,0.15,0.07,0.22,0.12
				c0.02,0.04,0.04,0.09,0.04,0.14c-0.01,0.04-0.1,0.04-0.19,0.04c-0.1,0.03-0.2,0.02-0.29-0.03c-0.09-0.07-0.18-0.15-0.25-0.24
				C-172.76-327.14-172.69-327.1-172.63-327.11z"/>
			<path class="st29" d="M-172.19-327.17c0,0.1,0.14,0.29,0.19,0.28c0.05-0.02,0.13-0.2,0.16-0.37c-0.01-0.15-0.06-0.29-0.16-0.41
				C-172.07-327.74-172.19-327.27-172.19-327.17z"/>
			<path class="st33" d="M-172.01-326.86c0,0,0.1,0.66,0.11,0.79c-0.05,0.4-0.13,0.79-0.23,1.17c-0.05,0.2-0.06,0.41-0.04,0.62
				h-0.09c0,0-0.02,0.14-0.01-0.15c0.01-0.29,0.23-1.55,0.25-1.66c-0.01-0.26-0.03-0.51-0.07-0.77L-172.01-326.86z"/>
			<path class="st34" d="M-173.03-326.26c0.24-0.16,0.48-0.31,0.73-0.44"/>
			<path class="st34" d="M-173.53-326.06c0.17-0.2,0.4-0.35,0.66-0.42c0.2-0.07,0.4-0.17,0.59-0.28"/>
			<path class="st34" d="M-171.83-326.95c-0.01,0-0.02,0-0.03,0c-0.01,0-0.02,0-0.02,0.01c0,0.01,0,0.02,0.01,0.02
				c-0.02,0-0.04,0-0.05-0.02c0,0.01,0,0.03,0.01,0.04c0,0,0,0,0.01,0.01c0,0.01-0.01,0.01-0.01,0.01c-0.01,0-0.01-0.01-0.01-0.01"
				/>
			<path class="st34" d="M-170.8-326.59c-0.18-0.05-0.37-0.07-0.55-0.06c-0.11,0.01-0.22,0-0.32-0.02c-0.11-0.02-0.2-0.08-0.26-0.18
				"/>
			<path class="st35" d="M-171.59-327.2l-0.09,0.06"/>
			<path class="st35" d="M-171.06-328.2c-0.2,0.26-0.24,0.61-0.42,0.89"/>
			<path class="st35" d="M-170.96-328.32c-0.11,0.07-0.21,0.16-0.27,0.28c-0.07,0.11-0.12,0.23-0.17,0.35"/>
			<path class="st36" d="M-172.67-327.4c0.01,0.07,0.04,0.14,0.08,0.2c0.01,0.01,0.02,0.02,0.03,0.02"/>
			<path class="st37" d="M-172.58-327.66c0.01,0.01,0.01,0.02,0.02,0.03c-0.01,0-0.01,0-0.01,0.01c0.01,0.01,0.02,0.02,0.03,0.04
				l-0.03,0.01c0,0,0,0,0,0c0,0,0,0.01,0.01,0.01"/>
			<path class="st37" d="M-172.28-327.25c-0.02-0.1-0.08-0.19-0.17-0.25c-0.03-0.02-0.05-0.03-0.08-0.04"/>
			<path class="st37" d="M-172.3-327.54c0.01,0,0.02,0,0.03-0.01c0,0,0.01-0.01,0.01-0.01c0.02-0.01,0.03,0.02,0.05,0.02
				c0,0,0,0,0-0.01c0-0.01,0.02-0.02,0.03-0.02"/>
			<path class="st37" d="M-172.2-327.23c-0.01-0.11-0.05-0.21-0.11-0.31"/>
			<path class="st38" d="M-173.72-327.45l-0.02-0.03"/>
			<path class="st38" d="M-173.53-327.31c-0.09-0.06-0.18-0.13-0.25-0.21c0,0-0.01-0.01-0.01,0c0,0,0,0.01,0,0.01"/>
			<path class="st38" d="M-173.35-327.27c-0.02-0.02-0.03-0.03-0.05-0.05"/>
			<path class="st38" d="M-173.56-327.26c0.03-0.02,0.07-0.02,0.11-0.01c0.02,0.01,0.03,0.02,0.05,0.02c0.02,0.01,0.04,0.01,0.05,0
				c-0.01-0.01-0.02-0.02-0.03-0.02"/>
			<path class="st38" d="M-173.39-327.72c-0.06-0.08-0.17-0.08-0.24-0.13"/>
			<path class="st38" d="M-172.62-328.14c0.07,0.13,0.11,0.26,0.14,0.4"/>
			<path class="st38" d="M-172.19-327.62c-0.11-0.29-0.12-0.6-0.03-0.89"/>
		</g>
		<g transform="translate(512.01 570.514)">
			<path class="st28" d="M-179.49-327.33c0.06-0.15,0.3-0.55,0.37-0.76s0.65-0.62,0.74-0.66c0.09-0.05,0.22-0.08,0.21,0.06
				c-0.17,0.5-0.41,0.98-0.7,1.42c-0.52,0.91-0.86,0.57-0.86,0.57S-179.55-327.18-179.49-327.33z"/>
			<path class="st29" d="M-179.59-326.82c0.2-0.23,0.31-0.51,0.34-0.81c-0.01-0.21-0.01-0.54-0.03-0.73
				c-0.01-0.18-0.31,0.22-0.4,0.37c-0.1,0.15-0.04,0.21-0.05,0.41C-179.73-327.59-179.72-326.74-179.59-326.82z"/>
			<path class="st30" d="M-180.15-328.2c-0.03,0.18-0.06,0.37-0.06,0.55c0,0.15,0.25,0.44,0.25,0.44l0.26-0.25
				c0-0.22-0.01-0.45-0.04-0.67c-0.04-0.12-0.1-0.47-0.17-0.52c-0.07-0.05-0.11,0.06-0.11,0.06S-180.12-328.31-180.15-328.2z"/>
			<path class="st31" d="M-180.5-326.81c0,0-0.52-0.04-0.62-0.05c-0.28-0.04-0.57-0.06-0.85-0.06c-0.2,0.01-0.36-0.23-0.46-0.3
				c-0.14-0.09-0.26-0.21-0.36-0.34c-0.03-0.07,0.09-0.01,0.23-0.04c0.15-0.01,0.3-0.01,0.44,0c0,0,0.1,0.06,0,0.02
				s-0.34-0.43-0.37-0.47c-0.02-0.04,0.06-0.06,0.14-0.06c0.13,0.02,0.27,0.02,0.41,0c0.26,0.03,0.52,0.1,0.75,0.22
				c-0.06-0.07-0.12-0.14-0.17-0.22c-0.09-0.21-0.15-0.44-0.18-0.66c-0.02-0.05,0.05-0.1,0.13-0.06c0.09,0.04,0.28,0.18,0.39,0.22
				c0.1,0.06,0.2,0.14,0.27,0.23v-0.23c0-0.08,0.03-0.16,0.1-0.21c0.05-0.02,0.02,0.06,0.12,0.13c0.1,0.07,0.22,0.49,0.22,0.46
				c0-0.16,0.01-0.32,0.02-0.48c0.04-0.19,0.12-0.37,0.23-0.53c0.1-0.11,0.18-0.18,0.18-0.04c-0.01,0.12,0.01,0.24,0.06,0.34
				c0.06,0.35,0.09,0.7,0.09,1.06L-180.5-326.81z"/>
			<path class="st30" d="M-181.03-326.15c-0.18,0.05-0.35,0.12-0.52,0.21c-0.09,0.07-0.62,0.54-0.66,0.62s0,0.12,0.06,0.13
				c0.06,0.01,0.33-0.11,1.08-0.3c0.48-0.15,0.88-0.49,1.1-0.94c0.13,0.19,0.32,0.32,0.54,0.38c0.34,0.09,0.69,0.13,1.05,0.12
				c0.24-0.02,0.48-0.03,0.71-0.02c0.15,0.01-0.05-0.13-0.16-0.23c-0.11-0.1-0.98-0.59-1.1-0.64c-0.21-0.02-0.43-0.01-0.64,0.02
				l-0.04,0.01L-181.03-326.15z"/>
			<path class="st30" d="M-180.49-327.31c-0.13-0.18-0.28-0.33-0.46-0.47c-0.28-0.14-0.59-0.22-0.91-0.25
				c-0.11-0.01-0.04,0.07,0.09,0.23c0.12,0.16,0.23,0.39,0.04,0.32c-0.2-0.07-0.5,0.01-0.33,0.06c0.2,0.11,0.38,0.25,0.53,0.42
				c-0.06-0.04-0.32,0.05-0.32,0.05c-0.17,0.04-0.22,0.07-0.34,0.11c-0.12,0.04-0.12,0.11-0.07,0.12c0.12,0.03,0.24,0.06,0.36,0.11
				c0.1,0.05,0.73,0.13,0.66,0.14c-0.07,0.02-0.13,0.05-0.18,0.1c-0.08,0.05-0.16,0.09-0.25,0.11c-0.1,0.04-0.03,0.09,0.07,0.06
				c0.12-0.01,0.25-0.01,0.37,0c0.4,0.06,0.81-0.03,1.15-0.25L-180.49-327.31z"/>
			<path class="st32" d="M-179.96-326.84c0.09-0.07,0.01-0.28,0-0.37c-0.02-0.11-0.05-0.21-0.1-0.31c-0.02-0.04-0.2-0.01-0.2-0.01
				l-0.16-0.09c0,0-0.22-0.09-0.32-0.11c-0.1-0.02,0.01,0.06-0.06,0.09c-0.07,0.02,0.05,0.05,0.05,0.05s-0.05,0.03-0.04,0.05
				s0.01,0.1-0.05,0.02c-0.06-0.07-0.06,0.07-0.07,0.12c0,0.13,0.01,0.26,0.04,0.38c0.02,0.16,0.12,0.15,0.23,0.25
				C-180.45-326.61-180.04-326.77-179.96-326.84z"/>
			<path class="st29" d="M-180.72-326.87c0.16-0.03,0.33-0.04,0.49-0.02c0.11,0.04,0.22,0.1,0.31,0.17
				c0.03,0.06,0.06,0.14,0.06,0.21c-0.01,0.06-0.15,0.05-0.27,0.06c-0.14,0.04-0.29,0.02-0.42-0.04c-0.14-0.1-0.26-0.21-0.36-0.34
				C-180.92-326.9-180.8-326.84-180.72-326.87z"/>
			<path class="st29" d="M-180.1-326.95c0,0.14,0.2,0.42,0.27,0.39c0.07-0.02,0.18-0.28,0.22-0.53c-0.01-0.22-0.09-0.42-0.22-0.59
				C-179.92-327.76-180.1-327.08-180.1-326.95z"/>
			<path class="st33" d="M-179.85-326.5c0,0,0.15,0.93,0.16,1.13c-0.07,0.57-0.18,1.12-0.33,1.67c-0.06,0.84-0.06,1.69,0,2.54h-0.12
				c0,0-0.08-1.45-0.06-1.87c0.01-0.42,0.33-2.22,0.36-2.38c-0.01-0.37-0.05-0.73-0.1-1.1L-179.85-326.5z"/>
			<path class="st39" d="M-181.3-325.64c0.34-0.23,0.68-0.44,1.04-0.63"/>
			<path class="st39" d="M-182.01-325.37c0.25-0.29,0.57-0.5,0.94-0.61c0.29-0.11,0.57-0.24,0.84-0.4"/>
			<path class="st39" d="M-179.59-326.63c-0.01,0-0.03,0-0.04,0c-0.01,0-0.03,0-0.03,0.01c0,0,0,0,0,0.01c0,0.01,0,0.02,0.01,0.02
				c-0.02,0-0.05-0.01-0.07-0.02c0,0.02,0,0.04,0.02,0.05c0,0,0.01,0.01,0.01,0.01c0,0.01-0.01,0.01-0.02,0.01
				c-0.01,0-0.01-0.01-0.02-0.02"/>
			<path class="st39" d="M-178.11-326.11c-0.26-0.07-0.53-0.1-0.79-0.09c-0.15,0.01-0.31,0-0.46-0.03
				c-0.15-0.03-0.29-0.12-0.37-0.25"/>
			<path class="st40" d="M-179.24-326.98l-0.13,0.08"/>
			<path class="st40" d="M-178.48-328.42c-0.29,0.37-0.34,0.88-0.6,1.26"/>
			<path class="st40" d="M-178.34-328.59c-0.16,0.1-0.29,0.23-0.39,0.4c-0.09,0.16-0.17,0.33-0.24,0.51"/>
			<path class="st41" d="M-180.79-327.27c0.02,0.1,0.06,0.2,0.12,0.28c0.01,0.02,0.03,0.03,0.05,0.03"/>
			<path class="st42" d="M-180.66-327.65c0.01,0.01,0.02,0.02,0.02,0.04c-0.01,0-0.02,0-0.02,0.01c0.02,0.02,0.03,0.03,0.05,0.05
				l-0.05,0.01c0,0,0,0,0,0c0,0.01,0,0.01,0.01,0.02"/>
			<path class="st42" d="M-180.23-327.05c-0.03-0.15-0.12-0.27-0.25-0.35c-0.04-0.02-0.07-0.05-0.11-0.06"/>
			<path class="st42" d="M-180.25-327.47c0.01,0.01,0.03,0,0.04-0.01c0-0.01,0.01-0.01,0.02-0.01c0.02-0.01,0.05,0.02,0.07,0.02
				c0,0,0-0.01,0-0.01c0.01-0.02,0.02-0.03,0.04-0.02"/>
			<path class="st42" d="M-180.11-327.03c-0.02-0.16-0.07-0.31-0.16-0.44"/>
			<path class="st43" d="M-182.28-327.35l-0.03-0.04"/>
			<path class="st43" d="M-182.01-327.15c-0.13-0.09-0.25-0.19-0.36-0.3c0,0-0.01-0.01-0.02-0.01c-0.01,0-0.01,0.01,0,0.01"/>
			<path class="st43" d="M-181.75-327.09c-0.02-0.03-0.05-0.05-0.08-0.07"/>
			<path class="st43" d="M-182.05-327.08c0.05-0.02,0.1-0.03,0.15-0.01c0.02,0.01,0.05,0.03,0.07,0.04c0.02,0.01,0.05,0.01,0.08,0
				c-0.01-0.02-0.02-0.03-0.04-0.03"/>
			<path class="st43" d="M-181.82-327.74c-0.08-0.11-0.24-0.11-0.35-0.19"/>
			<path class="st43" d="M-180.71-328.34c0.09,0.18,0.16,0.37,0.2,0.57"/>
			<path class="st43" d="M-180.09-327.59c-0.15-0.41-0.16-0.86-0.04-1.27"/>
		</g>
		<g transform="translate(504.826 575.137)">
			<path class="st28" d="M-169.47-326.1c0.14-0.33,0.66-1.24,0.83-1.71c0.17-0.47,1.47-1.38,1.66-1.49c0.19-0.11,0.5-0.19,0.47,0.14
				c-0.03,0.33-0.41,1.13-1.57,3.17s-1.93,1.27-1.93,1.27S-169.61-325.77-169.47-326.1z"/>
			<path class="st29" d="M-169.68-324.97c0.44-0.51,0.71-1.15,0.76-1.83c-0.03-0.47-0.03-1.21-0.06-1.63
				c-0.03-0.41-0.69,0.5-0.91,0.83c-0.22,0.33-0.08,0.47-0.11,0.91C-169.99-326.68-169.98-324.77-169.68-324.97z"/>
			<path class="st30" d="M-170.93-328.06c-0.08,0.41-0.12,0.83-0.14,1.24c0,0.33,0.55,0.99,0.55,0.99l0.6-0.57c0-0.5-0.03-1-0.1-1.5
				c-0.08-0.28-0.22-1.05-0.39-1.16c-0.17-0.11-0.25,0.14-0.25,0.14S-170.87-328.31-170.93-328.06z"/>
			<path class="st31" d="M-171.73-324.94c0,0-1.16-0.08-1.38-0.11c-0.63-0.08-1.27-0.13-1.9-0.14c-0.44,0.03-0.8-0.52-1.02-0.66
				c-0.31-0.21-0.58-0.47-0.8-0.77c-0.05-0.17,0.19-0.03,0.52-0.08c0.33-0.03,0.66-0.03,0.99,0c0,0,0.22,0.14,0,0.06
				c-0.22-0.08-0.77-0.97-0.83-1.05s0.14-0.14,0.3-0.14c0.3,0.04,0.61,0.04,0.91,0c0.59,0.07,1.16,0.24,1.68,0.5
				c-0.14-0.16-0.27-0.32-0.39-0.5c-0.2-0.48-0.34-0.98-0.41-1.49c-0.06-0.11,0.11-0.22,0.3-0.14c0.19,0.08,0.63,0.41,0.88,0.5
				c0.23,0.13,0.44,0.31,0.61,0.52v-0.52c0-0.18,0.08-0.36,0.22-0.47c0.11-0.06,0.05,0.14,0.28,0.3c0.22,0.17,0.5,1.1,0.5,1.02
				c0-0.36,0.01-0.72,0.05-1.08c0.1-0.43,0.28-0.83,0.52-1.19c0.22-0.25,0.41-0.41,0.41-0.08c-0.02,0.27,0.03,0.53,0.14,0.77
				c0.13,0.78,0.19,1.58,0.19,2.37L-171.73-324.94z"/>
			<path class="st30" d="M-172.9-323.46c-0.4,0.12-0.79,0.27-1.16,0.47c-0.19,0.17-1.38,1.21-1.49,1.38c-0.11,0.17,0,0.28,0.14,0.3
				c0.14,0.03,0.74-0.25,2.43-0.66c1.07-0.33,1.96-1.09,2.46-2.1c0.29,0.42,0.72,0.73,1.21,0.86c0.77,0.19,1.56,0.29,2.35,0.28
				c0.53-0.05,1.07-0.07,1.6-0.05c0.33,0.03-0.11-0.3-0.36-0.52c-0.79-0.52-1.61-1-2.46-1.44c-0.48-0.05-0.96-0.03-1.43,0.04
				l-0.09,0.01L-172.9-323.46z"/>
			<path class="st30" d="M-171.72-326.06c-0.29-0.4-0.63-0.75-1.02-1.05c-0.64-0.31-1.33-0.5-2.04-0.55
				c-0.25-0.03-0.08,0.16,0.19,0.52c0.28,0.36,0.53,0.89,0.08,0.72c-0.44-0.17-1.13,0.03-0.75,0.14c0.45,0.24,0.85,0.55,1.19,0.94
				c-0.14-0.08-0.73,0.12-0.73,0.12c-0.37,0.09-0.49,0.16-0.76,0.24c-0.28,0.08-0.28,0.25-0.17,0.28c0.27,0.06,0.54,0.14,0.8,0.25
				c0.22,0.11,1.63,0.3,1.49,0.33c-0.15,0.04-0.3,0.12-0.41,0.22c-0.17,0.11-0.36,0.19-0.55,0.25c-0.22,0.08-0.06,0.19,0.17,0.14
				c0.28-0.03,0.55-0.03,0.83,0c0.9,0.13,1.82-0.07,2.6-0.55L-171.72-326.06z"/>
			<path class="st32" d="M-170.5-325.01c0.19-0.17,0.03-0.63,0-0.83c-0.04-0.24-0.12-0.47-0.22-0.69c-0.05-0.08-0.44-0.03-0.44-0.03
				l-0.36-0.19c0,0-0.5-0.19-0.72-0.25c-0.22-0.06,0.03,0.14-0.13,0.19c-0.16,0.05,0.11,0.11,0.11,0.11s-0.12,0.06-0.09,0.11
				s0.03,0.22-0.11,0.05c-0.14-0.17-0.14,0.17-0.17,0.28c0,0.29,0.02,0.57,0.08,0.86c0.05,0.36,0.27,0.34,0.52,0.55
				C-171.6-324.48-170.69-324.84-170.5-325.01z"/>
			<path class="st29" d="M-172.21-325.06c0.36-0.08,0.74-0.09,1.1-0.05c0.25,0.09,0.48,0.22,0.69,0.39
				c0.08,0.15,0.13,0.31,0.14,0.47c-0.03,0.14-0.33,0.11-0.61,0.14c-0.31,0.08-0.64,0.05-0.94-0.08c-0.3-0.22-0.57-0.48-0.8-0.77
				C-172.65-325.15-172.4-325.01-172.21-325.06z"/>
			<path class="st29" d="M-170.82-325.24c0,0.31,0.44,0.94,0.61,0.88s0.41-0.63,0.5-1.19c-0.03-0.48-0.2-0.94-0.5-1.32
				C-170.43-327.06-170.82-325.55-170.82-325.24z"/>
			<path class="st33" d="M-170.27-324.25c0,0,0.33,2.1,0.36,2.54c-0.16,1.27-0.41,2.52-0.75,3.75c-0.15,0.65-0.19,1.31-0.11,1.97
				h-0.28c0,0-0.05,0.46-0.02-0.48s0.75-4.97,0.8-5.33c-0.03-0.82-0.1-1.64-0.22-2.46L-170.27-324.25z"/>
			<path class="st44" d="M-173.51-322.31c0.67-0.62,1.6-0.87,2.33-1.42"/>
			<path class="st44" d="M-175.12-321.7c0.56-0.64,1.28-1.11,2.1-1.36c0.66-0.24,1.29-0.54,1.88-0.9"/>
			<path class="st44" d="M-169.68-324.54c-0.03,0-0.06,0-0.08-0.01c-0.03,0-0.05,0.01-0.07,0.03c-0.02,0.02-0.01,0.06,0.02,0.06
				c-0.06,0.01-0.11-0.01-0.15-0.05c-0.01,0.04,0.01,0.09,0.04,0.12c0.01,0.01,0.02,0.01,0.02,0.03s-0.03,0.03-0.04,0.03
				c-0.02-0.01-0.03-0.03-0.04-0.04"/>
			<path class="st44" d="M-166.36-323.37c-0.58-0.17-1.18-0.24-1.77-0.21c-0.34,0.02-0.69,0-1.03-0.06
				c-0.34-0.07-0.64-0.27-0.83-0.57"/>
			<path class="st45" d="M-168.89-325.32l-0.29,0.19"/>
			<path class="st45" d="M-167.19-328.54c-0.65,0.83-0.76,1.97-1.35,2.84"/>
			<path class="st45" d="M-166.88-328.93c-0.36,0.22-0.66,0.53-0.87,0.89c-0.21,0.36-0.39,0.74-0.53,1.14"/>
			<path class="st46" d="M-172.37-325.97c0.05,0.23,0.14,0.44,0.27,0.64c0.03,0.03,0.06,0.07,0.1,0.07"/>
			<path class="st47" d="M-172.08-326.82c0.02,0.02,0.04,0.05,0.05,0.09c-0.02,0-0.04,0-0.05,0.02c0.04,0.03,0.08,0.07,0.11,0.12
				l-0.11,0.03c0,0,0,0,0,0c0,0.02,0.01,0.03,0.02,0.04"/>
			<path class="st47" d="M-171.11-325.48c-0.07-0.33-0.27-0.61-0.55-0.79c-0.08-0.05-0.17-0.1-0.26-0.14"/>
			<path class="st47" d="M-171.17-326.41c0.03,0.02,0.07,0.01,0.1-0.02c0.01-0.01,0.02-0.02,0.03-0.03c0.05-0.03,0.1,0.05,0.16,0.05
				c0-0.01,0-0.02,0-0.02c0.01-0.04,0.05-0.06,0.09-0.04"/>
			<path class="st47" d="M-170.84-325.44c-0.04-0.35-0.16-0.69-0.35-0.98"/>
			<path class="st48" d="M-175.71-326.14l-0.08-0.09"/>
			<path class="st48" d="M-175.11-325.69c-0.3-0.19-0.57-0.42-0.81-0.67c-0.01-0.01-0.02-0.02-0.04-0.01c-0.01,0-0.01,0.03,0,0.03"
				/>
			<path class="st48" d="M-174.53-325.57c-0.05-0.06-0.11-0.11-0.17-0.15"/>
			<path class="st48" d="M-175.19-325.53c0.11-0.05,0.23-0.06,0.34-0.02c0.06,0.02,0.11,0.06,0.16,0.08
				c0.06,0.03,0.12,0.02,0.17-0.01c-0.02-0.04-0.05-0.06-0.09-0.07"/>
			<path class="st48" d="M-174.67-327.01c-0.18-0.24-0.53-0.25-0.78-0.42"/>
			<path class="st48" d="M-172.2-328.36c0.21,0.4,0.36,0.83,0.45,1.28"/>
			<path class="st48" d="M-170.8-326.68c-0.34-0.92-0.37-1.92-0.09-2.86"/>
		</g>
	</g>
	<g>
		<path class="st49" d="M48.42,348.14c34.16-28.22,91.71-65.79,136.96-72.22c18.9-2.68,64.95-2.41,82.38,5.57
			c21.16,9.68,34.34,19.85,51.72,33.55c5.11,4.04,48.49,12.83,53,6c-3.83,5.81-92.55,80.78-173.65,82.93
			C145.09,405.39,83.02,386.59,48.42,348.14z"/>
		<g transform="translate(474.78 476.094)">
			<path class="st49" d="M-295.21-281.95c0,0,2.93,3.19,5.27,3.19s5.92,0.07,7.29,0c0.84-0.16,1.7-0.16,2.54,0
				c1.17,0.26,1.24,1.04,1.88,1.3c0.65,0.26-0.13,0.33-0.78-0.07c-0.65-0.39-1.43-0.65-0.98-0.26s1.11,0.85,0.26,0.52
				c-0.85-0.32-1.76-0.52-1.17-0.13s0.46,0.65,0.46,0.65l-0.78,0.2h-1.3c0.45,0.19,0.73,0.63,0.72,1.11c0,0-0.52-0.32-0.78-0.46
				c-0.26-0.13-0.85,0.2-1.43-0.07c-0.59-0.26-1.63-0.78-1.11-0.06c0.52,0.71,0.85,1.04,1.17,1.43c0.2,0.24,0.31,0.54,0.32,0.85
				c0,0-0.39-0.46-0.65-0.78c-0.41-0.43-0.89-0.79-1.43-1.04c-0.46-0.2-0.72-0.39-0.91-0.46c-0.2-0.06-1.11-0.98-0.78-0.2
				c0.33,0.78,0.52,0.85,0.52,0.85s-1.3-0.19-0.78,0.26c0.53,0.45,0.39,0.65,0.39,0.65l-0.72-0.2l-0.46,0.07l-0.26,0.46l-1.11,0.07
				l-1.04-0.52c-0.34,0.24-0.54,0.63-0.52,1.04c0,0.66,0.38,1.27,0.98,1.56c0.72,0.45,1.61,0.54,2.41,0.26
				c1.3-0.39,3.38-1.3,3.06-0.85c-0.32,0.46,0.26,0.39,0.26,0.39s1.04-0.91,0.52-0.32s-0.26,0.65-0.26,0.65l0.78-0.65
				c0,0-0.46,0.46,0.07,0.46s0.85-0.33,1.17-0.39c0.33-0.06,0.39-0.2,0.91-0.65c0.52-0.46,2.54-2.02,0.85-0.46s-1.69,1.76-1.69,1.76
				c0.49-0.43,1.01-0.82,1.56-1.17c-0.2,0.26-1.04,1.17-0.91,1.11s1.56-0.71,1.56-0.71l0.65,0.2c0.49,0.18,1.03,0.16,1.5-0.06
				c0.65-0.39,1.69-1.24,0.85-0.26s-1.04,1.56-1.95,1.95c-0.81,0.45-1.69,0.78-2.6,0.98c-0.65,0-1.04-0.06-0.98,0.26l-0.71,0.46
				c0.32,0.59,0.98,0.39,0.32,0.59c-0.65,0.2-1.24-0.07-1.11,0.13c0.13,0.2-0.98,0-0.98,0l-1.3,0.2c-0.86,0.26-1.77,0.35-2.67,0.26
				c-1.95-0.07-4.04-0.78-3.32,0.2s3.38,1.76,4.42,2.02c1.01,0.43,2.13,0.52,3.19,0.26c1.5-0.39,2.28-0.91,3.38-0.85
				c1.11,0.07,1.76,0.13,1.76,0.13s-2.02-0.65-2.41,0.59c-0.39,1.24,0.39,1.3,1.56,1.11c1.17-0.19,1.63-0.85,2.28-0.71
				c0.65,0.13,2.28,0.98,3.19,1.3c0.61,0.26,1.13,0.69,1.5,1.24c-0.5-0.62-1.33-0.85-2.08-0.59c-1.17,0.52-1.88,1.24-1.5,1.3
				s0.39,0,0.39,0l-0.39,0.46l0.13,0.52c0.13,0.26,0.07,0.46,0.59,0.65s0.98,1.04,0.59,0.85c-0.81-0.53-1.76-0.8-2.73-0.78
				c-1.43,0.07-2.67-0.52-3.71-0.13c-1.04,0.39-0.71,0.78-0.46,0.91c0.26,0.13,0.98,0.46,0.39,0.52s-1.11-0.39-1.69-0.39
				c-0.85,0.07-1.7,0.03-2.54-0.13c-1.43-0.26-1.69,0.32-1.3,0.78c0.39,0.45,2.86,2.41,4.82,2.28c1.95-0.13,2.86-0.39,3.38-0.39
				c1.75-0.15,3.5-0.02,5.21,0.39c1.95,0.65,2.15,1.17,1.5,1.17s-1.76,0-0.91,0.2s0.13,0.59,0.59,0.52
				c0.37-0.09,0.72-0.24,1.04-0.46l0.72-0.59c0,0-0.59,1.17-1.04,1.37s-3.38,0.2-2.67,0.33s0.26,0.46,0.26,0.46s-1.69,0-1.17,0.07
				c0.52,0.07,0,0.26,0,0.26c-0.47-0.06-0.94,0.09-1.3,0.39c-0.65,0.52-0.65,1.24,0.07,1.43s1.82,0.32,2.08,0.07
				s0.46-0.07-0.26,0.26c-0.6,0.38-1.34,0.47-2.02,0.26c-0.85-0.26-0.85-0.52-1.5-0.26s-3.58,0.26-3.32,0.52
				c0.68,0.67,1.5,1.19,2.41,1.5c1.08,0.37,2.19,0.63,3.32,0.78c1.13,0.12,2.28-0.06,3.32-0.52l0.33-0.26c0,0-1.95,0.78-1.5,0.91
				c0.32,0.06,0.65,0.06,0.98,0c-0.39,0.07-1.24,0.59-0.65,0.39s0.39,0,0.39,0s-0.91-0.07-0.39,0.13s0.07,0.2,0.13,0.39
				c0.07,0.2,0.71,0.52,0.13,0.52s-1.5-0.65-1.11-0.2c0.39,0.45,1.17,0.39,0.07,0.59c-0.57,0.15-1.17,0.17-1.76,0.07l-0.33-0.07l0,0
				l-0.39,0.65c0,0-0.59,0.39,0.46,0.65c1.58,0.32,3.21,0.41,4.82,0.26c1.17-0.2,1.17,0.2,2.02-0.46c0.85-0.65,1.3-1.04,0.91-0.46
				c-0.39,0.59,0.39-0.07,0.98-0.46c0.58-0.39,1.95-1.43,0.39,0.39c-1.56,1.82-2.22,3.12-2.08,3.38c0.11,0.19,0.27,0.34,0.46,0.46
				c0,0,0,0.39-0.59,0.33c-0.59-0.07-0.78,0-0.52,0.26l-1.04,0.13l0.39,0.52l-1.3-0.26c0,0-0.65-0.65-0.39,0
				c0,0,0.33,1.04-0.26,0.71c-0.38-0.25-0.8-0.45-1.24-0.59c-1.37-0.59-0.32-0.19-0.32-0.19s-2.54-1.17-1.43-0.2
				c0.93,0.79,1.91,1.53,2.93,2.22c0.91,0.65,0.32,0.78,0.32,0.78s-0.46,0.2,0.52,0.39c0.12,0.02,0.22,0.05,0.31,0.07
				c0.62,0.14,0.47,0.19,0.47,0.19l0.59,0.65c0,0-0.26,0.26,0.65,0.32c0.6,0.05,1.16,0.33,1.56,0.78c0.53,0.33,1.09,0.6,1.69,0.78
				c0.29,0.13,0.62,0.13,0.91,0c-0.11,0.33-0.32,0.62-0.59,0.85c-0.39,0.26-0.59,0.65-1.5,0.39s-0.74-0.24-1.11-0.13
				c-0.65,0.2-1.37-0.2-0.85,0.2c0.52,0.39,0.2,0.39-0.2,0.46s0,0.46,0,0.46s-0.52,0-0.59,0.13c-0.07,0.13-0.59,0.13-0.59,0.13
				c-0.43-0.05-0.84-0.23-1.17-0.52c-0.46-0.46-1.04-1.17-1.37-0.59c-0.32,0.59-0.33,1.3,0.2,1.43c0.4,0.11,0.79,0.24,1.17,0.39
				c-0.21,0.25-0.53,0.37-0.85,0.32c-0.35-0.15-0.73-0.26-1.11-0.32c-0.78-0.13-0.91,0.85-1.17-0.2c-0.26-1.04-0.26-0.91-1.17-1.3
				c-0.49-0.23-1.02-0.34-1.56-0.32c0,0-1.24-0.07-0.26,1.88c0.59,1.51,1.76,2.73,3.25,3.38c1.15,0.7,2.4,1.2,3.71,1.5l1.17-0.65
				v0.85l1.37-0.2c0.16,0.54,0.68,0.89,1.24,0.85c1.1-0.16,2.21-0.25,3.32-0.26c1.37,0.13,2.02,0.26,2.02,0.26
				c-0.43,0-0.86,0.11-1.24,0.32c-0.85,0.39-2.34,0.91-1.56,1.24s1.04,0.32,0.07,0.39c-0.98,0.07-1.95,0-1.17,0.39
				c0.78,0.39,1.17,0.78,0.32,0.65c-0.49-0.07-0.96,0.24-1.11,0.72l-1.63-1.04h-0.46c0,0-1.95,0.26-0.72,0.52
				c0.76,0.06,1.49,0.35,2.08,0.85c0.25,0.29,0.41,0.66,0.46,1.04c0.06,0.2,0.32,0.32-0.59-0.32c-0.52-0.48-1.18-0.8-1.88-0.91
				c-0.46,0-1.24-0.46-0.71,0.13s0.91,0.98-0.33,0.59c-0.69-0.23-1.42-0.34-2.15-0.32c0,0-0.98-1.56-0.52,0
				c0.46,1.56,0.72,2.02,0.2,1.63c-0.57-0.65-1.05-1.37-1.43-2.15h-0.39l-0.13,0.85c0,0-0.59-0.65-0.52-0.2s-0.65-0.52-0.65-0.52
				l-1.11-0.13c0,0-1.63,0.85-1.95,1.82s-0.91,1.56-1.37,0.98c-0.46-0.59-0.72-0.32-0.72-0.32h-0.98l-1.04,0.46
				c0,0-1.37-1.3-1.3-0.32c0.06,0.98-0.06,1.43-0.65,0.46c-0.59-0.98-1.3-1.56-0.91-0.59s0.2,0.91-0.52,0.59
				c-0.72-0.32-1.5-0.85-1.04-0.26c0.46,0.59,0.26,0.52-0.59,0.33c-0.85-0.2-1.04-0.13-1.24,0c-0.2,0.13-1.43-0.13-1.56-0.65
				s-0.39-0.39-0.39-0.39l-0.65-0.13c0,0,0.07-1.37-0.2-0.78c-0.26,0.59-0.65,0.39-0.78-0.13c0,0,0.07-1.63-0.46-1.11
				c-0.38,0.32-0.88,0.46-1.37,0.39l-0.59,3.51c-0.52,0.22-1.11,0.22-1.63,0c-0.72-0.39-0.2-0.65-0.2-0.65l0.39-1.11l0.33-0.91
				c-0.65,0.33-0.46-0.32-0.46-0.71s-0.26-0.26-0.26-0.26l-0.59,0.78c0,0-0.39-0.59-0.13-0.07c0.26,0.52-0.78-0.26-0.26,0.59
				c0.52,0.85-0.65,1.24-0.13,1.76s-0.65,0.26-1.56-0.46s-0.85-1.5-1.04-0.59c-0.2,0.91-0.91,1.37-3.64,1.43
				c-2.73,0.07-5.14-0.2-4.29-0.52c0.85-0.33,0.33-0.33,0.33-0.33l-0.85-0.19l-0.39-0.2l-1.24,0.07c0,0,1.43-0.78-0.39-0.78
				c-0.94-0.13-1.89,0.21-2.54,0.91c-1.8,0.63-3.75,0.7-5.6,0.19c-1.43-0.59-2.67-1.43-1.43-0.98s2.47,0.07,1.04-0.13
				c-1.43-0.2-2.86-0.52-2.15-0.52s-0.52-0.13-0.52-0.13l-0.85-0.52c0.34-0.02,0.67-0.11,0.98-0.26c0.52-0.26,1.11-0.71,0.52-0.91
				c-0.59-0.2-1.37-0.32-0.59-0.2s4.03,1.56,0.78-0.39c-3.26-1.95-4.81-3.38-4.03-3.06c0.78,0.32-0.78-1.3,0.2-0.78
				c0.97,0.53,0.07-0.65,1.37,0c1.3,0.65,6.05,0.2,5.01,0.2s-0.52-0.26-0.52-0.26l1.5-0.72c0,0,3.81-0.29,4.85-1.14
				c1.04-0.85,3.12-2.28,3.32-3.32c0.19-1.05,0.33-3.06-0.98-2.41c-1.3,0.65-1.95,0.52-2.34,1.3c-0.39,0.78-2.28,1.04-1.76,1.11
				c0.52,0.07,0.65-0.26-0.32-0.2c-0.98,0.06-0.2-0.59-0.2-0.59l0.46-1.17c0,0,0.2-0.46-1.11,0.19c-0.98,0.37-2.01,0.56-3.06,0.59
				c-0.32,0.13,0,1.04-0.46,0.07s-1.11-0.98-1.11-0.98l-0.13-0.32l-0.71-0.07c0,0,0,0.65-0.85,0.2c-0.85-0.46-1.5-1.43-0.52-1.11
				c0.98,0.32,3.58-0.72,3.58-0.72l2.28-1.43l-0.91,0.07c0.39-0.13,0.98-0.39,0.98-0.39s-1.17-0.06-0.26-0.26s1.11-0.52,1.11-0.52
				s-0.98,0.2-0.26-0.13c0.72-0.33,0.78-0.71,0.78-0.71l0.2-0.13c0,0,1.04-0.52,0.85-0.65c0,0-0.06-0.26,0.59-0.52
				c0.35-0.12,0.66-0.32,0.91-0.59c0,0,0.06,0.39,0.71-0.71c0.65-1.1,1.37-1.5,1.56-1.5c0.19,0-3.25-0.06-3.25-0.06l0.78-0.78
				c0.76-0.25,1.5-0.56,2.22-0.91c-0.59,0.13,0.19-0.2,0.19-0.2l0.26-0.91c0,0,1.04-0.91,0.46-0.59c-0.59,0.32-0.85,0.65-0.32,0
				c0.52-0.65,0.59-1.04,0.39-1.24c-0.2-0.2,0.52-0.59-0.59-0.46c-2.27,0.21-4.56,0.19-6.83-0.07c-1.07-0.53-2.05-1.21-2.93-2.02
				c-0.39-0.32,1.95-0.39,1.95-0.39l0.32-0.72c0.2-0.17,0.42-0.32,0.65-0.46c0.36-0.11,0.73-0.17,1.11-0.19l0.26-0.26
				c0.19-0.14,0.38-0.28,0.59-0.39c0.07,0,2.6,0.59,2.08,0.2c-0.52-0.39-1.82-0.65-0.52-0.39c0.62,0.18,1.29,0.13,1.88-0.13
				c0.07,0,1.5,0.06,1.5,0.06c0.7-0.52,1.26-1.22,1.63-2.02c0.32-1.04,0.85-2.73,0.2-2.67c-1.23,0.39-2.38,1-3.38,1.82
				c-0.59,0.59-1.3-0.07-1.82-0.13s-0.39-0.39-0.39-0.39c-0.55-0.06-1.1-0.16-1.63-0.32c-0.46-0.2,0.72-1.04-0.26-0.78
				c-0.98,0.26-1.63,0.59-1.69,0.2c-0.07-0.39,0.32-0.59-0.13-0.65c-0.35-0.07-0.68-0.2-0.98-0.39c1.13-0.14,2.27-0.1,3.38,0.13
				c1.24,0.39,3.9,0.33,4.55-0.46s1.5-1.69,1.5-1.69s-1.69-1.76-2.28-1.24c-0.85,0.55-1.89,0.72-2.86,0.46
				c-0.91-0.26-0.72-0.65-0.72-0.65c-0.91-0.39-0.19,0-0.91-0.39s-0.2-0.71-0.2-0.71s1.88-0.46,2.86-0.78c0.98-0.32,3.9,0.07,5.6,0
				c1.69-0.07,3.84-1.11,3.38-2.02c-0.46-0.91-1.88-2.73-2.99-2.41c-1.11,0.33-5.79-1.56-6.96-2.08c-1.17-0.52-2.86-1.11-2.86-1.11
				c0.78-0.66,1.89-0.79,2.8-0.33c1.63,0.78,0.91-0.32,0.71-0.71c-0.2-0.39,0.13-0.46,0.13-0.46l1.5,1.24l0.13-0.46l1.24,0.59
				c0,0-0.85-1.3-0.07-0.65s1.76,1.5,1.3,0.39c-0.46-1.11-0.26-0.59-1.11-1.63c-0.85-1.04-0.91-0.72,0.65-0.52s3.38,0.32,1.5-0.98
				c-1.51-1.04-2.93-2.22-4.23-3.51c0.65,0.46,2.47,1.3,2.34,0.91s0.07-0.52,0.07-0.52l1.11,0.07c0,0-0.65-1.17,0.2-0.52
				c0.23,0.26,0.63,0.29,0.9,0.06c0.12-0.1,0.19-0.24,0.21-0.39c0,0-0.72-0.91,0.46-0.26s1.17-0.13,2.34,0.2
				c1.17,0.33,4.62,0.46,4.81-0.72s0.13-2.41-0.85-1.88c-0.98,0.52-2.73,2.15-2.6,1.69c0.13-0.46,0.2-1.04-0.26-0.72
				c-0.23,0.18-0.5,0.31-0.78,0.39l-0.46-0.59l-1.17,0.2l-0.2-1.43l-1.76,0.32c0,0-0.91-1.24-1.69-0.98
				c-0.78,0.26-1.17,0.85-0.98,0.39c0.19-0.46-0.52-0.59-0.52-0.59l-0.32-0.46c0,0,1.37-1.24-0.91-0.72s-3.06-0.2-3.06-0.2
				c1.23-0.13,2.45-0.35,3.64-0.65c0.85-0.33,1.76-1.3,2.28-0.72s3.12,1.95,3.71,1.82s0.98-1.17,0.32-1.24
				c1.13,0.06,2.25,0.28,3.32,0.65c1.37,0.59,4.75-0.26,3.77-0.65c-0.71-0.22-1.4-0.48-2.08-0.78c-0.39-0.26-1.43-1.43-2.28-1.5
				c-0.85-0.06-2.86-0.32-2.86-0.32s0.98-0.46,0.72-0.65c-0.26-0.2,1.17-0.78,1.17-0.78c-0.41-0.42-0.89-0.75-1.43-0.98
				c-0.83-0.51-1.6-1.12-2.28-1.82c-0.52-0.39,0.2-0.65,0.59-0.91s0.59,0.07,0.19-0.59c-0.39-0.65-0.65-0.65-0.13-0.26
				c0.52,0.39,2.6,2.28,4.03,2.6s2.93-0.07,2.02-1.3c-0.91-1.24-2.47-3.06-1.63-2.41c0.85,0.65,1.88,1.24,1.88,0.2
				c-0.01-0.63-0.36-1.2-0.91-1.5l-0.91,0.07l0.85-1.11c0,0,2.22,1.88,0.46-0.26c-1.76-2.14-2.86-3.51-1.95-2.93
				c0.91,0.59,0.86,0.76,1.24,0.98c0.46,0.26,0.59,0,0.59,0c0.59,0.72,0.85,0.72,0.85,0.72s0.13,1.95,0.33,0.85
				c0.2-1.11,0.13-4.1,0.32-1.76c0.09,1.36,0.64,2.64,1.56,3.64c0.69-0.54,1.03-1.41,0.91-2.28c-0.19-1.5,0.33-0.91-0.78-2.02
				s-1.88-2.6-1.24-1.88c0.48,0.45,1.1,0.7,1.76,0.72c-0.17-1.66,0.15-3.33,0.91-4.82c0,0-0.07,1.04-0.07,1.69s0.2,0.32,0.2,0.32
				v1.11c0.07,0.72,0.32-0.52,0.26,0.46s-0.26,1.24,0.13,1.17c0.39-0.07,0.52,0.39,1.3-0.32c0.35-0.38,0.8-0.65,1.3-0.78
				c-0.88,0.96-1.68,1.98-2.41,3.06c-0.16,0.48-0.2,0.99-0.13,1.5c0,0-0.13,0.39-0.26,0.85c-0.13,0.46,0.39,0.39,0.39,0.39l1.43-1.3
				l0.98-0.13l0.98-0.72l0.13,0.65l1.05-1.33c0,0-0.07,0.74,0.9,0.68s1.63-0.07,0.65,0.39c-0.98,0.46-1.17,0.13-1.43,0.91
				s-0.2,0.26-0.98,0.85c-0.78,0.59-1.3,0.72-2.28,1.37c-1.07,0.83-1.57,2.19-1.3,3.51c0.2,1.56,0.2,3.45,1.43,2.34
				c0.97-1.03,1.89-2.12,2.73-3.25c0.73-0.74,1.77-1.1,2.8-0.98c0.39,0.13,1.11-0.91,1.11-0.91h0.52c0,0,1.95,0.26,0.98,0.72
				c-0.98,0.46-0.2,0.78-0.2,0.78l-0.91,0.72l-0.26,0.2c0,0-0.91,0.46-0.07,0.98c0.85,0.52,0.78,0.91,0.78,0.91l-2.08,0.59
				c-0.13,0.08-0.24,0.2-0.32,0.32c-0.2,0.26,0.85,0.78,0,0.65c-0.42-0.12-0.87,0.01-1.17,0.32l-0.26,0.39l0.39,0.71l0.52-0.07
				l-1.43,0.59c0,0,0.39-0.39,0.39,0.46s1.56,1.04,0,0.85s-1.95-0.2-1.95-0.2l0.06,0.32l-0.13,0.65c0,0-0.78,0.46-0.2,0.78
				c0.59,0.23,1.24,0.23,1.82,0c0.46-0.13,1.37-1.04,2.28-1.24c0.91-0.2,0.98-1.04,1.43-0.32c0.46,0.72,0,0.78,1.37,1.11
				c1.37,0.33-1.5-0.72,1.24,0.59s3.58,0.91,3.64,1.17c0.07,0.26,0.39,0.78-1.17,0.72c-1.56-0.07-1.88,0.26-2.6-0.13
				c-0.72-0.39-1.43-0.65-0.91-0.07c0.52,0.59,0,0.52-0.71,0.46c-0.71-0.07-1.11,0-0.78,0.33s-1.5-0.98-1.43-0.72
				c0.18,0.37,0.4,0.72,0.65,1.04c-0.91-0.2-2.6-1.43-2.15-0.65c0.46,0.78,0.39,0.85-0.46,0.59L-295.21-281.95z"/>
			<path class="st49" d="M-296.64-223.52c-0.07,0.33,0.39,11,0,13.14c-0.39,2.15-0.26,14.38,0,16.53c0.15,1.25,0.39,2.49,0.72,3.71
				l2.47,0.39c0,0-1.04-16.07-1.11-18.35c-0.07-2.28,0.46-17.89,0.46-17.89L-296.64-223.52z"/>
		</g>
		<g transform="translate(507.849 568.728)">
			<path class="st28" d="M-321.04-293.98c0,0-0.37,0.37-0.93-0.61c-0.32-0.47-0.57-0.98-0.76-1.52c-0.01-0.16,0.13-0.12,0.22-0.07
				c0.09,0.05,0.71,0.49,0.79,0.71s0.33,0.66,0.4,0.82C-321.24-294.49-321.04-293.98-321.04-293.98z"/>
			<path class="st29" d="M-321.05-294.92c-0.01-0.21,0.05-0.28-0.05-0.44c-0.11-0.17-0.42-0.6-0.43-0.4
				c-0.01,0.2-0.02,0.55-0.03,0.78c0.03,0.32,0.16,0.63,0.37,0.88C-321.06-294.01-321.05-294.92-321.05-294.92z"/>
			<path class="st30" d="M-320.73-296c0,0-0.04-0.12-0.12-0.07c-0.08,0.05-0.15,0.42-0.19,0.55c-0.03,0.24-0.05,0.48-0.05,0.72
				l0.29,0.27c0,0,0.27-0.32,0.27-0.48c-0.01-0.2-0.03-0.4-0.07-0.6C-320.63-295.71-320.73-296-320.73-296z"/>
			<path class="st31" d="M-321.07-295.23c0-0.38,0.03-0.76,0.09-1.14c0.05-0.12,0.08-0.24,0.07-0.37c0-0.16,0.09-0.08,0.2,0.04
				c0.12,0.17,0.2,0.36,0.25,0.57c0.02,0.17,0.03,0.34,0.03,0.52c0,0.04,0.13-0.41,0.24-0.49c0.11-0.08,0.08-0.17,0.13-0.15
				c0.07,0.05,0.11,0.13,0.11,0.22v0.25c0.08-0.1,0.18-0.19,0.29-0.25c0.12-0.04,0.33-0.2,0.42-0.24c0.09-0.04,0.17,0.01,0.15,0.07
				c-0.04,0.25-0.11,0.49-0.2,0.71c-0.06,0.08-0.12,0.16-0.19,0.24c0.25-0.13,0.53-0.21,0.81-0.24c0.14,0.02,0.29,0.02,0.44,0
				c0.08,0,0.17,0.03,0.15,0.07s-0.29,0.46-0.4,0.5c-0.11,0.04,0-0.03,0-0.03c0.16-0.01,0.32-0.01,0.48,0
				c0.16,0.03,0.28-0.04,0.25,0.04c-0.1,0.15-0.24,0.27-0.38,0.37c-0.11,0.07-0.28,0.33-0.49,0.32c-0.31,0-0.61,0.03-0.91,0.07
				c-0.11,0.01-0.66,0.05-0.66,0.05L-321.07-295.23z"/>
			<path class="st30" d="M-321.19-294.07h-0.04c-0.23-0.04-0.46-0.05-0.69-0.02c-0.4,0.21-0.8,0.44-1.18,0.69
				c-0.12,0.11-0.33,0.26-0.17,0.25c0.26-0.01,0.51,0,0.77,0.03c0.38,0.01,0.76-0.04,1.13-0.13c0.24-0.06,0.45-0.21,0.58-0.41
				c0.24,0.48,0.66,0.85,1.18,1.01c0.81,0.2,1.1,0.33,1.16,0.32s0.12-0.07,0.07-0.15c-0.05-0.08-0.62-0.58-0.71-0.66
				c-0.18-0.09-0.36-0.17-0.55-0.22L-321.19-294.07z"/>
			<path class="st30" d="M-320.66-293.67c0.37,0.23,0.81,0.33,1.24,0.27c0.13-0.01,0.26-0.01,0.4,0c0.11,0.03,0.19-0.03,0.08-0.07
				c-0.09-0.03-0.18-0.07-0.26-0.12c-0.06-0.05-0.13-0.09-0.2-0.11c-0.07-0.01,0.61-0.11,0.71-0.16c0.12-0.05,0.25-0.09,0.38-0.12
				c0.05-0.01,0.05-0.09-0.08-0.13c-0.13-0.04-0.19-0.07-0.36-0.11c0,0-0.28-0.1-0.35-0.06c0.16-0.18,0.35-0.34,0.57-0.45
				c0.19-0.05-0.15-0.15-0.36-0.07s-0.09-0.17,0.04-0.34s0.21-0.27,0.09-0.25c-0.34,0.02-0.67,0.11-0.98,0.26
				c-0.19,0.14-0.35,0.31-0.49,0.5L-320.66-293.67z"/>
			<path class="st32" d="M-320.08-294.04c0.12-0.1,0.22-0.09,0.25-0.26c0.03-0.14,0.04-0.27,0.04-0.41
				c-0.01-0.05-0.01-0.21-0.08-0.13c-0.07,0.08-0.07,0-0.05-0.03s-0.04-0.06-0.04-0.06s0.13-0.03,0.05-0.05
				c-0.08-0.03,0.04-0.12-0.06-0.09c-0.11,0.03-0.34,0.12-0.34,0.12l-0.17,0.09c0,0-0.19-0.03-0.21,0.01
				c-0.05,0.11-0.09,0.22-0.11,0.33c-0.01,0.09-0.09,0.32,0,0.4C-320.72-294.04-320.28-293.88-320.08-294.04z"/>
			<path class="st29" d="M-319.79-294.11c-0.11,0.14-0.24,0.27-0.38,0.37c-0.14,0.07-0.3,0.08-0.45,0.04
				c-0.13-0.01-0.28,0-0.29-0.07c0.01-0.08,0.03-0.15,0.07-0.22c0.1-0.08,0.21-0.14,0.33-0.19c0.18-0.02,0.36-0.01,0.53,0.03
				C-319.89-294.12-319.77-294.19-319.79-294.11z"/>
			<path class="st29" d="M-320.94-295.02c-0.14,0.18-0.23,0.4-0.24,0.63c0.04,0.27,0.16,0.54,0.24,0.57
				c0.08,0.03,0.29-0.28,0.29-0.42C-320.65-294.38-320.84-295.11-320.94-295.02z"/>
			<path class="st33" d="M-320.81-293.76c-0.06,0.39-0.09,0.78-0.11,1.18c0.03,0.17,0.37,2.11,0.38,2.56
				c0.01,0.45-0.01,0.23-0.01,0.23h-0.13c0.03-0.32,0.02-0.64-0.06-0.95c-0.16-0.59-0.28-1.19-0.36-1.8
				c0.01-0.21,0.17-1.22,0.17-1.22L-320.81-293.76z"/>
			<path class="st50" d="M-320.48-293.51c0.38,0.21,0.76,0.43,1.12,0.68"/>
			<path class="st50" d="M-320.5-293.62c0.29,0.17,0.59,0.32,0.9,0.43c0.39,0.12,0.74,0.34,1.01,0.65"/>
			<path class="st50" d="M-321.05-293.82c0,0.01-0.01,0.02-0.02,0.02c-0.01,0-0.02,0-0.02-0.01s0.01-0.01,0.01-0.01
				c0.01-0.01,0.02-0.04,0.02-0.06c-0.02,0.02-0.05,0.03-0.07,0.02c0.01,0,0.02-0.02,0.01-0.03c-0.01-0.01-0.02-0.02-0.04-0.01
				c-0.01,0-0.03,0-0.04,0"/>
			<path class="st50" d="M-321.05-293.74c-0.09,0.14-0.23,0.24-0.4,0.27c-0.16,0.03-0.33,0.04-0.49,0.03
				c-0.29-0.01-0.57,0.02-0.85,0.1"/>
			<path class="st51" d="M-321.44-294.18l-0.14-0.09"/>
			<path class="st51" d="M-321.75-294.46c-0.28-0.42-0.33-0.96-0.65-1.36"/>
			<path class="st51" d="M-321.87-295.04c-0.07-0.19-0.15-0.37-0.25-0.54c-0.1-0.17-0.24-0.32-0.42-0.43"/>
			<path class="st52" d="M-320.09-294.24c0.02,0,0.04-0.02,0.05-0.04c0.06-0.09,0.11-0.2,0.13-0.31"/>
			<path class="st53" d="M-320.06-294.85c0.01,0,0.01-0.01,0.01-0.02c0,0,0,0,0,0l-0.05-0.01c0.01-0.02,0.03-0.04,0.05-0.06
				c-0.01-0.01-0.01-0.01-0.02-0.01c0-0.02,0.01-0.03,0.02-0.04"/>
			<path class="st53" d="M-320.12-294.8c-0.04,0.02-0.08,0.04-0.12,0.07c-0.14,0.09-0.23,0.22-0.26,0.38"/>
			<path class="st53" d="M-320.67-294.83c0.02-0.01,0.04,0.01,0.04,0.02c0,0,0,0.01,0,0.01c0.03,0,0.05-0.04,0.08-0.02
				c0.01,0,0.01,0.01,0.02,0.01c0.01,0.01,0.03,0.02,0.05,0.01"/>
			<path class="st53" d="M-320.48-294.8c-0.09,0.14-0.15,0.3-0.17,0.47"/>
			<path class="st54" d="M-318.27-294.71l-0.04,0.04"/>
			<path class="st54" d="M-318.19-294.77c0.01,0,0.01-0.01,0-0.01s-0.01,0-0.02,0.01c-0.12,0.12-0.25,0.23-0.39,0.32"/>
			<path class="st54" d="M-318.79-294.47c-0.03,0.02-0.06,0.05-0.08,0.07"/>
			<path class="st54" d="M-318.84-294.38c-0.02,0-0.03,0.02-0.04,0.03c0.03,0.01,0.06,0.01,0.08,0c0.03-0.01,0.05-0.03,0.08-0.04
				c0.05-0.02,0.11-0.02,0.17,0.01"/>
			<path class="st54" d="M-318.43-295.28c-0.12,0.08-0.29,0.09-0.38,0.2"/>
			<path class="st54" d="M-320.2-295.12c0.04-0.21,0.12-0.42,0.21-0.61"/>
			<path class="st54" d="M-320.62-296.3c0.13,0.45,0.12,0.93-0.04,1.37"/>
		</g>
		<g transform="translate(512.01 570.514)">
			<path class="st28" d="M-319.61-292.58c0,0-0.53,0.53-1.32-0.87c-0.45-0.67-0.82-1.41-1.08-2.17c-0.02-0.22,0.19-0.17,0.32-0.1
				c0.13,0.08,1.02,0.7,1.13,1.02c0.11,0.32,0.47,0.95,0.57,1.17C-319.89-293.3-319.61-292.58-319.61-292.58z"/>
			<path class="st29" d="M-319.63-293.92c-0.02-0.3,0.08-0.4-0.07-0.62s-0.6-0.85-0.62-0.57c-0.02,0.28-0.02,0.79-0.04,1.11
				c0.04,0.46,0.22,0.9,0.52,1.25C-319.64-292.61-319.63-293.92-319.63-293.92z"/>
			<path class="st30" d="M-319.18-295.45c0,0-0.06-0.17-0.17-0.1c-0.11,0.08-0.21,0.6-0.26,0.79c-0.04,0.34-0.07,0.68-0.07,1.03
				l0.41,0.39c0,0,0.38-0.45,0.38-0.68c-0.01-0.29-0.04-0.57-0.1-0.85C-319.02-295.03-319.18-295.45-319.18-295.45z"/>
			<path class="st31" d="M-319.67-294.35c0-0.54,0.04-1.09,0.13-1.63c0.08-0.17,0.11-0.35,0.1-0.53c0-0.22,0.13-0.11,0.28,0.06
				c0.17,0.25,0.29,0.52,0.36,0.81c0.03,0.24,0.04,0.49,0.04,0.74c0,0.06,0.19-0.59,0.34-0.7c0.15-0.11,0.11-0.24,0.19-0.21
				c0.1,0.08,0.15,0.2,0.15,0.32v0.36c0.11-0.15,0.26-0.27,0.42-0.36c0.17-0.06,0.47-0.28,0.61-0.34s0.24,0.02,0.21,0.1
				c-0.05,0.35-0.15,0.69-0.28,1.02c-0.08,0.12-0.17,0.23-0.26,0.34c0.36-0.18,0.75-0.29,1.15-0.34c0.21,0.03,0.42,0.03,0.62,0
				c0.11,0,0.25,0.04,0.21,0.1c-0.04,0.06-0.42,0.66-0.57,0.72c-0.15,0.05,0-0.04,0-0.04c0.23-0.02,0.45-0.02,0.68,0
				c0.22,0.04,0.4-0.06,0.36,0.06c-0.15,0.21-0.34,0.39-0.55,0.53c-0.15,0.09-0.4,0.47-0.7,0.45c-0.44,0.01-0.87,0.04-1.3,0.1
				c-0.15,0.02-0.95,0.08-0.95,0.08L-319.67-294.35z"/>
			<path class="st30" d="M-319.83-292.7l-0.06-0.01c-0.32-0.05-0.65-0.06-0.98-0.03c-0.17,0.08-1.51,0.83-1.68,0.98
				c-0.17,0.15-0.47,0.38-0.25,0.36c0.37-0.01,0.73,0.01,1.1,0.04c0.54,0.01,1.08-0.06,1.61-0.19c0.34-0.09,0.64-0.3,0.83-0.59
				c0.34,0.69,0.95,1.21,1.68,1.44c1.15,0.28,1.57,0.47,1.66,0.45c0.09-0.02,0.17-0.09,0.1-0.21c-0.08-0.11-0.89-0.83-1.02-0.95
				c-0.25-0.13-0.52-0.24-0.79-0.32L-319.83-292.7z"/>
			<path class="st30" d="M-319.07-292.13c0.53,0.33,1.16,0.47,1.77,0.38c0.19-0.02,0.38-0.02,0.57,0c0.15,0.04,0.26-0.04,0.11-0.1
				c-0.13-0.04-0.26-0.1-0.38-0.17c-0.08-0.07-0.18-0.12-0.28-0.15c-0.1-0.02,0.87-0.15,1.02-0.22c0.18-0.07,0.36-0.13,0.55-0.17
				c0.08-0.02,0.08-0.13-0.11-0.19c-0.19-0.06-0.27-0.1-0.52-0.16c0,0-0.4-0.14-0.5-0.08c0.23-0.26,0.5-0.48,0.81-0.64
				c0.26-0.08-0.21-0.21-0.51-0.09c-0.3,0.11-0.13-0.25,0.06-0.49c0.19-0.25,0.3-0.38,0.13-0.36c-0.49,0.04-0.96,0.16-1.4,0.38
				c-0.27,0.2-0.5,0.45-0.7,0.72L-319.07-292.13z"/>
			<path class="st32" d="M-318.24-292.66c0.17-0.15,0.32-0.13,0.36-0.38c0.04-0.19,0.06-0.39,0.06-0.59
				c-0.02-0.08-0.02-0.3-0.11-0.19c-0.09,0.11-0.09,0-0.08-0.04c0.02-0.04-0.06-0.08-0.06-0.08s0.18-0.04,0.08-0.07
				c-0.11-0.04,0.06-0.17-0.09-0.13c-0.15,0.04-0.49,0.17-0.49,0.17l-0.25,0.13c0,0-0.27-0.04-0.3,0.02
				c-0.07,0.15-0.12,0.31-0.15,0.47c-0.02,0.13-0.13,0.45,0,0.57C-319.15-292.66-318.52-292.42-318.24-292.66z"/>
			<path class="st29" d="M-317.82-292.76c-0.16,0.2-0.34,0.38-0.55,0.53c-0.2,0.09-0.43,0.11-0.64,0.06c-0.19-0.02-0.4,0-0.42-0.09
				c0.01-0.11,0.04-0.22,0.1-0.32c0.14-0.12,0.3-0.21,0.47-0.26c0.25-0.03,0.51-0.01,0.76,0.04
				C-317.98-292.77-317.8-292.87-317.82-292.76z"/>
			<path class="st29" d="M-319.48-294.05c-0.2,0.26-0.32,0.58-0.34,0.91c0.06,0.38,0.23,0.78,0.34,0.81
				c0.11,0.04,0.42-0.4,0.42-0.61C-319.06-293.14-319.33-294.18-319.48-294.05z"/>
			<path class="st33" d="M-319.29-292.25c-0.08,0.56-0.13,1.12-0.15,1.68c0.04,0.25,0.53,3,0.55,3.65s-0.1,2.87-0.1,2.87h-0.19
				c0.09-1.3,0.09-2.6,0-3.89c-0.23-0.84-0.4-1.7-0.51-2.57c0.02-0.3,0.25-1.74,0.25-1.74L-319.29-292.25z"/>
			<path class="st55" d="M-318.81-291.89c0.55,0.3,1.08,0.62,1.6,0.97"/>
			<path class="st55" d="M-318.84-292.05c0.41,0.25,0.84,0.46,1.29,0.62c0.56,0.17,1.06,0.49,1.44,0.93"/>
			<path class="st55" d="M-319.63-292.34c-0.01,0.01-0.02,0.03-0.03,0.03c-0.01,0-0.03,0-0.03-0.02c0-0.01,0.01-0.02,0.01-0.02
				c0.02-0.02,0.03-0.05,0.03-0.08c-0.03,0.03-0.07,0.04-0.1,0.03c0.02,0,0.02-0.02,0.02-0.04c0,0,0-0.01,0-0.01
				c-0.01-0.01-0.03-0.02-0.05-0.02c-0.02,0-0.04,0-0.06,0.01"/>
			<path class="st55" d="M-319.62-292.22c-0.13,0.2-0.33,0.34-0.57,0.39c-0.23,0.04-0.47,0.06-0.71,0.04
				c-0.41-0.02-0.82,0.03-1.22,0.14"/>
			<path class="st56" d="M-320.18-292.86l-0.2-0.13"/>
			<path class="st56" d="M-320.63-293.25c-0.41-0.6-0.48-1.38-0.92-1.94"/>
			<path class="st56" d="M-320.8-294.08c-0.1-0.27-0.22-0.53-0.36-0.78c-0.15-0.25-0.35-0.46-0.6-0.61"/>
			<path class="st57" d="M-318.25-292.95c0.03,0,0.05-0.03,0.07-0.05c0.09-0.13,0.15-0.28,0.18-0.44"/>
			<path class="st58" d="M-318.21-293.82c0.01,0,0.02-0.01,0.01-0.02c0,0,0,0,0,0l-0.07-0.02c0.02-0.03,0.04-0.06,0.07-0.08
				c-0.01-0.01-0.02-0.01-0.03-0.01c0.01-0.02,0.02-0.04,0.03-0.06"/>
			<path class="st58" d="M-318.31-293.74c-0.06,0.03-0.12,0.06-0.18,0.1c-0.19,0.12-0.33,0.32-0.38,0.54"/>
			<path class="st58" d="M-319.09-293.78c0.03-0.01,0.06,0.01,0.06,0.03c0,0,0,0.01,0,0.01c0.04,0,0.07-0.05,0.11-0.03
				c0.01,0.01,0.02,0.01,0.02,0.02c0.02,0.02,0.05,0.02,0.07,0.01"/>
			<path class="st58" d="M-318.81-293.74c-0.13,0.2-0.21,0.43-0.24,0.67"/>
			<path class="st59" d="M-315.66-293.62l-0.05,0.06"/>
			<path class="st59" d="M-315.54-293.69c0.01,0,0.01-0.02,0-0.02c-0.01,0-0.02,0-0.03,0.01c-0.17,0.17-0.35,0.33-0.55,0.46"/>
			<path class="st59" d="M-316.4-293.26c-0.04,0.03-0.08,0.07-0.12,0.1"/>
			<path class="st59" d="M-316.47-293.14c-0.03,0.01-0.05,0.02-0.06,0.05c0.04,0.02,0.08,0.02,0.12,0.01
				c0.04-0.02,0.07-0.04,0.11-0.06c0.08-0.03,0.16-0.03,0.23,0.01"/>
			<path class="st59" d="M-315.89-294.43c-0.17,0.11-0.41,0.12-0.54,0.29"/>
			<path class="st59" d="M-318.42-294.2c0.06-0.3,0.17-0.6,0.31-0.88"/>
			<path class="st59" d="M-319.01-295.88c0.19,0.64,0.17,1.33-0.06,1.96"/>
		</g>
		<g transform="translate(504.826 575.137)">
			<path class="st28" d="M-316.33-287.03c0,0-1.19,1.19-2.97-1.95s-2.37-4.37-2.42-4.88c-0.04-0.51,0.42-0.38,0.72-0.21
				c0.3,0.17,2.29,1.57,2.55,2.29c0.26,0.72,1.06,2.12,1.27,2.63C-316.96-288.64-316.33-287.03-316.33-287.03z"/>
			<path class="st29" d="M-316.37-290.04c-0.04-0.68,0.17-0.89-0.16-1.4s-1.35-1.92-1.39-1.28c-0.05,0.64-0.05,1.78-0.1,2.5
				c0.09,1.03,0.5,2.02,1.17,2.8C-316.39-287.11-316.37-290.04-316.37-290.04z"/>
			<path class="st30" d="M-315.35-293.48c0,0-0.13-0.38-0.38-0.21c-0.25,0.17-0.47,1.36-0.59,1.78c-0.1,0.76-0.15,1.53-0.15,2.31
				l0.91,0.88c0,0,0.85-1.02,0.85-1.53c-0.02-0.64-0.09-1.28-0.21-1.91C-315.01-292.54-315.35-293.48-315.35-293.48z"/>
			<path class="st31" d="M-316.45-291.02c0-1.22,0.1-2.44,0.3-3.65c0.17-0.37,0.24-0.78,0.21-1.19c0-0.51,0.3-0.25,0.64,0.13
				c0.38,0.55,0.65,1.17,0.81,1.82c0.06,0.55,0.09,1.1,0.08,1.65c0,0.13,0.42-1.31,0.76-1.57s0.25-0.55,0.42-0.47
				c0.22,0.18,0.34,0.44,0.34,0.72v0.81c0.26-0.33,0.57-0.6,0.93-0.81c0.38-0.13,1.06-0.64,1.36-0.76c0.3-0.13,0.55,0.04,0.47,0.21
				c-0.12,0.79-0.33,1.55-0.64,2.29c-0.18,0.27-0.38,0.53-0.59,0.76c0.81-0.4,1.69-0.66,2.59-0.76c0.46,0.07,0.94,0.07,1.4,0
				c0.25,0,0.55,0.09,0.47,0.21s-0.93,1.48-1.27,1.61c-0.34,0.13,0-0.09,0-0.09c0.51-0.05,1.02-0.05,1.53,0
				c0.51,0.09,0.89-0.13,0.81,0.13c-0.33,0.47-0.75,0.87-1.23,1.19c-0.34,0.21-0.89,1.06-1.57,1.02c-0.98,0.02-1.95,0.09-2.93,0.21
				c-0.34,0.04-2.12,0.17-2.12,0.17L-316.45-291.02z"/>
			<path class="st30" d="M-316.81-287.31l-0.13-0.02c-0.73-0.12-1.47-0.14-2.2-0.07c-1.29,0.67-2.55,1.41-3.77,2.2
				c-0.38,0.34-1.06,0.85-0.55,0.81c0.82-0.02,1.64,0.01,2.46,0.08c1.21,0.02,2.43-0.12,3.6-0.42c0.76-0.2,1.43-0.66,1.87-1.32
				c0.76,1.55,2.13,2.71,3.77,3.22c2.59,0.64,3.52,1.06,3.73,1.02c0.21-0.04,0.38-0.21,0.21-0.47c-0.17-0.25-1.99-1.86-2.29-2.12
				c-0.57-0.3-1.16-0.54-1.78-0.72L-316.81-287.31z"/>
			<path class="st30" d="M-315.12-286.04c1.19,0.75,2.6,1.05,3.99,0.85c0.42-0.04,0.85-0.04,1.27,0c0.34,0.08,0.59-0.08,0.25-0.21
				c-0.3-0.08-0.59-0.21-0.85-0.38c-0.18-0.16-0.4-0.28-0.64-0.34c-0.21-0.04,1.95-0.34,2.29-0.51c0.4-0.16,0.81-0.29,1.23-0.38
				c0.17-0.04,0.17-0.3-0.25-0.42c-0.42-0.13-0.6-0.22-1.17-0.37c0,0-0.91-0.31-1.12-0.19c0.51-0.59,1.13-1.08,1.82-1.44
				c0.59-0.17-0.47-0.47-1.15-0.21c-0.68,0.25-0.3-0.55,0.13-1.11c0.42-0.55,0.68-0.85,0.3-0.81c-1.09,0.08-2.16,0.37-3.14,0.85
				c-0.6,0.46-1.13,1-1.57,1.61L-315.12-286.04z"/>
			<path class="st32" d="M-313.25-287.22c0.39-0.33,0.72-0.3,0.81-0.85c0.09-0.43,0.13-0.87,0.13-1.31
				c-0.04-0.17-0.04-0.68-0.25-0.42s-0.21,0-0.17-0.08c0.04-0.08-0.14-0.18-0.14-0.18s0.41-0.08,0.17-0.17
				c-0.24-0.08,0.14-0.38-0.2-0.29s-1.1,0.38-1.1,0.38l-0.55,0.3c0,0-0.59-0.08-0.68,0.04c-0.16,0.34-0.27,0.69-0.34,1.06
				c-0.04,0.3-0.3,1.02,0,1.27C-315.29-287.22-313.89-286.67-313.25-287.22z"/>
			<path class="st29" d="M-312.32-287.44c-0.35,0.45-0.76,0.85-1.23,1.19c-0.45,0.21-0.96,0.25-1.44,0.13
				c-0.42-0.04-0.89,0-0.93-0.21c0.02-0.25,0.09-0.5,0.21-0.72c0.32-0.26,0.67-0.46,1.06-0.59c0.57-0.06,1.14-0.03,1.7,0.08
				C-312.66-287.48-312.28-287.69-312.32-287.44z"/>
			<path class="st29" d="M-316.03-290.34c-0.46,0.58-0.72,1.29-0.76,2.03c0.13,0.85,0.51,1.74,0.76,1.82s0.93-0.89,0.93-1.36
				C-315.1-288.31-315.69-290.64-316.03-290.34z"/>
			<path class="st33" d="M-315.61-286.31c-0.18,1.25-0.29,2.51-0.34,3.77c0.08,0.55,1.19,6.74,1.23,8.18
				c0.04,1.44-0.04,0.74-0.04,0.74h-0.42c0.11-1.01,0.05-2.04-0.18-3.03c-0.52-1.89-0.9-3.82-1.15-5.76c0.04-0.68,0.55-3.9,0.55-3.9
				L-315.61-286.31z"/>
			<path class="st60" d="M-314.54-285.51c1.12,0.84,2.55,1.22,3.58,2.17"/>
			<path class="st60" d="M-314.61-285.86c0.91,0.56,1.88,1.02,2.89,1.38c1.25,0.38,2.37,1.1,3.22,2.09"/>
			<path class="st60" d="M-316.37-286.5c-0.01,0.03-0.04,0.05-0.07,0.07c-0.03,0.01-0.07-0.01-0.07-0.04c0-0.03,0.02-0.03,0.04-0.05
				c0.05-0.05,0.07-0.11,0.06-0.18c-0.06,0.06-0.15,0.09-0.24,0.08c0.04,0,0.06-0.07,0.03-0.1c-0.03-0.03-0.07-0.05-0.11-0.04
				c-0.04,0.01-0.09,0.01-0.13,0.01"/>
			<path class="st60" d="M-316.36-286.24c-0.28,0.46-0.74,0.77-1.27,0.87c-0.52,0.1-1.05,0.13-1.58,0.1
				c-0.92-0.05-1.84,0.06-2.73,0.32"/>
			<path class="st61" d="M-317.61-287.66l-0.44-0.29"/>
			<path class="st61" d="M-318.6-288.55c-0.91-1.33-1.07-3.09-2.07-4.36"/>
			<path class="st61" d="M-318.99-290.39c-0.22-0.6-0.49-1.19-0.82-1.75c-0.32-0.56-0.78-1.03-1.33-1.37"/>
			<path class="st62" d="M-313.28-287.86c0.07,0,0.12-0.06,0.16-0.11c0.2-0.3,0.34-0.63,0.41-0.98"/>
			<path class="st63" d="M-313.19-289.82c0.02-0.01,0.04-0.03,0.03-0.06c0,0,0,0,0,0l-0.17-0.04c0.05-0.07,0.1-0.13,0.16-0.18
				c-0.02-0.02-0.05-0.03-0.07-0.03c0.01-0.05,0.04-0.1,0.08-0.13"/>
			<path class="st63" d="M-313.4-289.63c-0.14,0.06-0.27,0.13-0.39,0.21c-0.44,0.28-0.74,0.71-0.85,1.22"/>
			<path class="st63" d="M-315.15-289.73c0.06-0.02,0.12,0.01,0.14,0.07c0,0.01,0.01,0.02,0.01,0.04c0.09-0.01,0.17-0.12,0.24-0.08
				c0.02,0.01,0.04,0.03,0.05,0.05c0.04,0.04,0.1,0.05,0.15,0.03"/>
			<path class="st63" d="M-314.52-289.64c-0.29,0.46-0.48,0.97-0.54,1.51"/>
			<path class="st64" d="M-307.46-289.37l-0.12,0.14"/>
			<path class="st64" d="M-307.2-289.54c0.02,0,0.02-0.04,0-0.04c-0.02,0-0.04,0.01-0.06,0.02c-0.37,0.39-0.79,0.74-1.24,1.04"/>
			<path class="st64" d="M-309.12-288.57c-0.1,0.07-0.19,0.14-0.27,0.23"/>
			<path class="st64" d="M-309.28-288.3c-0.06,0.01-0.11,0.05-0.14,0.11c0.08,0.05,0.18,0.05,0.27,0.01
				c0.09-0.03,0.16-0.09,0.25-0.12c0.17-0.07,0.36-0.06,0.53,0.02"/>
			<path class="st64" d="M-307.98-291.2c-0.38,0.26-0.93,0.27-1.2,0.64"/>
			<path class="st64" d="M-313.66-290.67c0.14-0.68,0.37-1.34,0.69-1.96"/>
			<path class="st64" d="M-314.97-294.44c0.42,1.44,0.37,2.98-0.14,4.39"/>
		</g>
	</g>
	<g>
		<path class="st65" d="M115.49,390.04c0.78-3.6,56.07,10.29,118.68-4.02c52.99-12.11,96.8-43.03,125.94-63.6
			c47.86-33.77,50.61-47.11,77.65-51.89c45.39-8.02,89.65,20.38,100.98,27.65c29.88,19.17,41.43,39.47,80.7,54.02
			c10.19,3.77,20.7,6.6,31.4,8.46c-32.58,23.63-80.33,52.3-142.52,70.05C313.39,486.35,113.86,397.54,115.49,390.04z"/>
		<g transform="translate(692.041 366.142)">
			<path class="st66" d="M-215.74-238.34c0,0,5.71,6.21,10.27,6.21s11.54,0.13,14.2,0c2.66-0.13,2.66-0.51,4.95,0
				c2.28,0.51,2.41,2.03,3.68,2.54c1.27,0.51-0.25,0.63-1.52-0.13s-2.79-1.27-1.9-0.51c0.88,0.76,2.16,1.65,0.51,1.01
				c-1.65-0.64-3.42-1.01-2.28-0.25c1.14,0.76,0.89,1.27,0.89,1.27l-1.52,0.38h-2.53c0.87,0.36,1.42,1.22,1.4,2.15
				c0,0-1.01-0.63-1.52-0.89c-0.51-0.25-1.65,0.38-2.79-0.13c-1.14-0.51-3.17-1.52-2.16-0.13s1.65,2.03,2.28,2.79
				c0.38,0.47,0.6,1.05,0.63,1.65c0,0-0.76-0.89-1.27-1.52c-0.79-0.84-1.74-1.53-2.79-2.03c-0.89-0.38-1.4-0.76-1.78-0.89
				s-2.16-1.9-1.52-0.38c0.63,1.52,1.01,1.65,1.01,1.65s-2.54-0.38-1.52,0.51s0.76,1.27,0.76,1.27l-1.4-0.38l-0.89,0.13l-0.51,0.89
				l-2.16,0.13l-2.03-1.01c-0.66,0.46-1.04,1.22-1.01,2.03c0,1.29,0.74,2.48,1.9,3.04c1.27,0.51,2.16,1.27,4.69,0.51
				c2.54-0.76,6.59-2.54,5.96-1.65c-0.63,0.88,0.51,0.76,0.51,0.76s2.03-1.78,1.01-0.63s-0.51,1.27-0.51,1.27l1.52-1.27
				c0,0-0.89,0.89,0.13,0.89s1.65-0.63,2.28-0.76s0.76-0.38,1.78-1.27s4.95-3.93,1.65-0.89s-3.3,3.42-3.3,3.42s3.42-2.79,3.04-2.28
				c-0.38,0.5-2.03,2.28-1.78,2.16c0.25-0.13,3.04-1.4,3.04-1.4l1.27,0.38c0.95,0.35,2,0.31,2.92-0.13c1.27-0.76,3.3-2.41,1.65-0.51
				c-1.65,1.9-2.03,3.04-3.8,3.8c-1.78,0.76-3.8,1.9-5.07,1.9c-1.27,0-2.03-0.13-1.9,0.51l-1.39,0.89c0.63,1.14,1.9,0.76,0.63,1.14
				s-2.41-0.13-2.15,0.25s-1.9,0-1.9,0l-2.54,0.38c0,0-1.39,0.63-5.2,0.51c-3.8-0.13-7.86-1.52-6.47,0.38
				c1.4,1.9,6.59,3.42,8.62,3.93c2.03,0.51,3.3,1.27,6.21,0.51c2.92-0.76,4.44-1.78,6.59-1.65s3.42,0.25,3.42,0.25
				s-3.93-1.27-4.69,1.14c-0.76,2.41,0.76,2.54,3.04,2.16c2.28-0.38,3.17-1.65,4.44-1.4c1.27,0.26,4.44,1.9,6.21,2.54
				c1.18,0.5,2.2,1.34,2.92,2.41c0,0-1.78-2.16-4.06-1.14s-3.68,2.41-2.92,2.54c0.76,0.13,0.76,0,0.76,0l-0.76,0.89l0.25,1.01
				c0.25,0.51,0.13,0.89,1.14,1.27s1.9,2.03,1.14,1.65c-1.58-1.03-3.44-1.56-5.33-1.52c-2.79,0.13-5.2-1.01-7.22-0.25
				c-2.02,0.76-1.4,1.52-0.89,1.78s1.9,0.89,0.76,1.01s-2.15-0.76-3.3-0.76c-1.65,0.14-3.32,0.06-4.95-0.25
				c-2.79-0.51-3.3,0.63-2.54,1.52c0.76,0.89,5.58,4.69,9.38,4.44c3.8-0.25,5.58-0.76,6.59-0.76s6.34-0.51,10.14,0.76
				c3.8,1.27,4.18,2.28,2.92,2.28c-1.27,0-3.42,0-1.78,0.38c1.65,0.38,0.25,1.14,1.14,1.01c0.72-0.17,1.41-0.47,2.03-0.89l1.4-1.14
				c0,0-1.14,2.28-2.03,2.66c-0.89,0.38-6.59,0.38-5.2,0.63c1.39,0.25,0.51,0.89,0.51,0.89s-3.3,0-2.28,0.13
				c1.01,0.13,0,0.51,0,0.51c-0.91-0.11-1.83,0.17-2.54,0.76c-1.27,1.01-1.27,2.41,0.13,2.79c1.4,0.38,3.55,0.63,4.06,0.13
				c0.51-0.51,0.89-0.13-0.51,0.51c-1.17,0.74-2.61,0.92-3.93,0.51c-1.65-0.51-1.65-1.01-2.92-0.51c-1.27,0.51-6.97,0.51-6.47,1.01
				c1.33,1.31,2.93,2.31,4.69,2.92c2.1,0.71,4.27,1.22,6.47,1.52c2.79,0.25,5.83-0.51,6.47-1.01l0.63-0.51c0,0-3.8,1.52-2.92,1.78
				c0.63,0.11,1.27,0.11,1.9,0c-0.76,0.13-2.41,1.14-1.27,0.76s0.76,0,0.76,0s-1.78-0.13-0.76,0.25c1.01,0.38,0.13,0.38,0.25,0.76
				c0.13,0.38,1.39,1.01,0.25,1.01s-2.92-1.27-2.16-0.38c0.76,0.89,2.28,0.76,0.13,1.14c-1.12,0.3-2.29,0.34-3.42,0.13l-0.63-0.13
				l0,0l-0.76,1.27c0,0-1.14,0.76,0.89,1.27c3.09,0.62,6.25,0.79,9.38,0.51c2.28-0.38,2.28,0.38,3.93-0.89s2.54-2.03,1.78-0.89
				c-0.76,1.14,0.76-0.13,1.9-0.89c1.14-0.76,3.8-2.79,0.76,0.76s-4.31,6.09-4.06,6.59c0.22,0.36,0.53,0.67,0.89,0.89
				c0,0,0,0.76-1.14,0.63s-1.52,0-1.01,0.51l-2.03,0.25l0.76,1.01l-2.54-0.51c0,0-1.27-1.27-0.76,0c0,0,0.63,2.03-0.51,1.4
				c-0.75-0.49-1.56-0.87-2.41-1.14c-2.66-1.14-0.63-0.38-0.63-0.38s-4.94-2.28-2.79-0.38c1.82,1.55,3.72,2.99,5.71,4.31
				c1.78,1.27,0.63,1.52,0.63,1.52s-0.89,0.38,1.01,0.76c0.24,0.05,0.44,0.09,0.61,0.13c1.2,0.28,0.91,0.38,0.91,0.38l1.14,1.27
				c0,0-0.51,0.51,1.27,0.63c1.17,0.09,2.26,0.64,3.04,1.52c1.02,0.65,2.13,1.17,3.3,1.52c0.57,0.25,1.21,0.25,1.78,0
				c-0.22,0.65-0.61,1.22-1.14,1.65c-0.76,0.51-1.14,1.27-2.92,0.76c-1.77-0.51-1.44-0.47-2.16-0.25c-1.27,0.38-2.66-0.38-1.65,0.38
				c1.01,0.76,0.38,0.76-0.38,0.89s0,0.89,0,0.89s-1.01,0-1.14,0.25s-1.14,0.25-1.14,0.25c-0.85-0.1-1.64-0.45-2.28-1.01
				c-0.89-0.89-2.03-2.28-2.66-1.14c-0.63,1.14-0.63,2.54,0.38,2.79c0.77,0.21,1.54,0.46,2.28,0.76c-0.4,0.48-1.03,0.72-1.65,0.63
				c-0.69-0.3-1.41-0.51-2.16-0.63c-1.52-0.25-1.77,1.65-2.28-0.38c-0.51-2.03-0.51-1.78-2.28-2.54c-0.95-0.44-1.99-0.66-3.04-0.63
				c0,0-2.41-0.13-0.51,3.68c1.9,3.8,2.54,4.31,6.34,6.59c2.23,1.36,4.67,2.34,7.22,2.92l2.28-1.27v1.65l2.66-0.38
				c0.31,1.05,1.32,1.74,2.41,1.65c2.03,0,3.8-0.76,6.47-0.51s3.93,0.51,3.93,0.51c-0.84-0.01-1.68,0.21-2.41,0.63
				c-1.65,0.76-4.56,1.78-3.04,2.41c1.52,0.63,2.03,0.63,0.13,0.76c-1.9,0.13-3.8,0-2.28,0.76c1.52,0.76,2.28,1.52,0.63,1.27
				c-0.96-0.13-1.88,0.46-2.16,1.4l-3.17-2.03h-0.89c0,0-3.8,0.51-1.39,1.01s3.3,0.89,4.06,1.65c0.49,0.57,0.8,1.28,0.89,2.03
				c0.13,0.38,0.63,0.63-1.14-0.63c-1.77-1.27-2.79-1.78-3.68-1.78s-2.41-0.89-1.4,0.25s1.78,1.9-0.63,1.14
				c-1.35-0.45-2.76-0.66-4.18-0.63c0,0-1.9-3.04-1.01,0s1.4,3.93,0.38,3.17c-1.01-0.76-2.79-4.18-2.79-4.18h-0.76l-0.25,1.65
				c0,0-1.14-1.27-1.01-0.38s-1.27-1.01-1.27-1.01l-2.16-0.25c0,0-3.17,1.65-3.8,3.55c-0.63,1.9-1.78,3.04-2.66,1.9
				s-1.4-0.63-1.4-0.63h-1.9l-2.03,0.89c0,0-2.66-2.54-2.54-0.63c0.13,1.9-0.13,2.79-1.27,0.89c-1.14-1.9-2.54-3.04-1.78-1.14
				c0.76,1.9,0.38,1.78-1.01,1.14c-1.4-0.63-2.92-1.65-2.03-0.51c0.89,1.14,0.51,1.01-1.14,0.63c-1.65-0.38-2.03-0.25-2.41,0
				c-0.38,0.25-2.79-0.25-3.04-1.27c-0.26-1.01-0.76-0.76-0.76-0.76l-1.27-0.25c0,0,0.13-2.66-0.38-1.52
				c-0.51,1.14-1.27,0.76-1.52-0.25c0,0,0.13-3.17-0.89-2.16c-0.74,0.62-1.71,0.9-2.66,0.76l-1.14,6.85c-1.01,0.43-2.16,0.43-3.17,0
				c-1.39-0.76-0.38-1.27-0.38-1.27l0.76-2.16l0.63-1.78c-1.27,0.63-0.89-0.63-0.89-1.4c0-0.76-0.51-0.51-0.51-0.51l-1.14,1.52
				c0,0-0.76-1.14-0.25-0.13c0.51,1.01-1.52-0.51-0.51,1.14c1.01,1.65-1.27,2.41-0.25,3.42c1.01,1.01-1.27,0.51-3.04-0.89
				c-1.78-1.39-1.65-2.92-2.03-1.14c-0.38,1.78-1.78,2.66-7.1,2.79c-5.33,0.12-10.02-0.38-8.37-1.01c1.65-0.63,0.63-0.63,0.63-0.63
				l-1.65-0.38l-0.76-0.38l-2.41,0.13c0,0,2.79-1.52-0.76-1.52s-3.42,0.76-4.94,1.78s-8.12,1.52-10.91,0.38s-5.2-2.79-2.79-1.9
				c2.41,0.88,4.82,0.13,2.03-0.25c-2.79-0.38-5.58-1.01-4.18-1.01c1.39,0-1.01-0.25-1.01-0.25l-1.65-1.01
				c0.66-0.03,1.31-0.21,1.9-0.51c1.01-0.51,2.16-1.4,1.01-1.78c-1.14-0.38-2.66-0.63-1.14-0.38c1.52,0.25,7.86,3.04,1.52-0.76
				s-9.38-6.59-7.86-5.96c1.52,0.63-1.52-2.54,0.38-1.52s0.13-1.27,2.66,0c2.54,1.27,11.79,0.38,9.76,0.38s-1.01-0.51-1.01-0.51
				l2.92-1.4c0,0,7.42-0.57,9.45-2.22c2.03-1.65,6.09-4.44,6.47-6.47s0.63-5.96-1.9-4.69c-2.54,1.27-3.8,1.01-4.56,2.53
				c-0.76,1.52-4.44,2.03-3.42,2.16c1.01,0.13,1.27-0.51-0.63-0.38s-0.38-1.14-0.38-1.14l0.89-2.28c0,0,0.38-0.89-2.15,0.38
				s-5.33,0.89-5.96,1.14c-0.63,0.25,0,2.03-0.89,0.13c-0.89-1.9-2.16-1.9-2.16-1.9l-0.25-0.63l-1.4-0.13c0,0,0,1.27-1.65,0.38
				s-2.92-2.79-1.01-2.16c1.9,0.63,6.97-1.4,6.97-1.4l4.44-2.79l-1.78,0.13c0.76-0.25,1.9-0.76,1.9-0.76s-2.28-0.13-0.51-0.51
				c1.78-0.38,2.16-1.01,2.16-1.01s-1.9,0.38-0.51-0.25c1.4-0.63,1.52-1.4,1.52-1.4l0.38-0.25c0,0,2.03-1.01,1.65-1.27
				c0,0-0.13-0.51,1.14-1.01c0.67-0.23,1.28-0.63,1.78-1.14c0,0,0.13,0.76,1.39-1.39c1.27-2.15,2.66-2.92,3.04-2.92
				c0.38,0-6.34-0.13-6.34-0.13l1.52-1.52c0,0,5.45-2.03,4.31-1.78s0.38-0.38,0.38-0.38l0.51-1.78c0,0,2.03-1.78,0.89-1.14
				c-1.14,0.63-1.65,1.27-0.63,0s1.14-2.03,0.76-2.41c-0.38-0.38,1.01-1.14-1.14-0.89c-2.16,0.25-11.41,0.51-13.31-0.13
				c-1.9-0.63-4.95-3.3-5.71-3.93c-0.76-0.63,3.8-0.76,3.8-0.76l0.63-1.4c0.4-0.33,0.82-0.63,1.27-0.89
				c0.7-0.21,1.43-0.34,2.16-0.38l0.51-0.51c0.36-0.28,0.74-0.54,1.14-0.76c0.13,0,5.07,1.14,4.06,0.38
				c-1.01-0.76-3.55-1.27-1.01-0.76c1.22,0.35,2.52,0.26,3.68-0.25c0.13,0,2.92,0.13,2.92,0.13s2.54-1.9,3.17-3.93
				c0.63-2.03,1.65-5.32,0.38-5.2c-1.27,0.13-5.45,2.41-6.59,3.55s-2.54-0.13-3.55-0.25s-0.76-0.76-0.76-0.76
				c-1.07-0.11-2.14-0.32-3.17-0.63c-0.89-0.38,1.4-2.03-0.51-1.52c-1.9,0.51-3.17,1.14-3.3,0.38c-0.13-0.76,0.63-1.14-0.25-1.27
				c-0.67-0.14-1.32-0.4-1.9-0.76c0,0,4.18-0.51,6.59,0.25c2.41,0.76,7.61,0.63,8.88-0.89c1.27-1.52,2.92-3.3,2.92-3.3
				s-3.3-3.42-4.44-2.41s-3.8,1.4-5.58,0.89c-1.78-0.51-1.4-1.27-1.4-1.27c-1.77-0.76-0.38,0-1.77-0.76
				c-1.39-0.76-0.38-1.4-0.38-1.4s3.68-0.89,5.58-1.52c1.9-0.63,7.61,0.13,10.9,0c3.3-0.13,7.48-2.15,6.59-3.93
				c-0.89-1.78-3.68-5.33-5.83-4.69c-2.16,0.63-11.28-3.04-13.57-4.06c-2.28-1.01-5.58-2.16-5.58-2.16
				c1.52-1.29,3.67-1.54,5.45-0.63c3.17,1.52,1.78-0.63,1.39-1.4c-0.38-0.76,0.25-0.89,0.25-0.89l2.92,2.41l0.25-0.89l2.41,1.14
				c0,0-1.65-2.54-0.13-1.27c1.52,1.27,3.42,2.92,2.54,0.76s-0.51-1.14-2.16-3.17c-1.65-2.03-1.78-1.4,1.27-1.01
				c3.04,0.38,6.59,0.63,2.92-1.9c-3.68-2.54-9.51-7.74-8.24-6.85s4.82,2.54,4.56,1.78c-0.25-0.76,0.13-1.01,0.13-1.01l2.16,0.13
				c0,0-1.27-2.28,0.38-1.01c0.45,0.51,1.23,0.56,1.75,0.11c0.22-0.19,0.36-0.46,0.41-0.75c0,0-1.39-1.77,0.89-0.51
				c2.28,1.27,2.28-0.25,4.56,0.38c2.28,0.63,9,0.89,9.38-1.39c0.38-2.28,0.25-4.69-1.65-3.68s-5.33,4.18-5.07,3.3
				s0.38-2.03-0.51-1.4c-0.45,0.35-0.97,0.61-1.52,0.76l-0.89-1.14l-2.28,0.38l-0.38-2.79l-3.42,0.63c0,0-1.78-2.41-3.3-1.9
				c-1.52,0.51-2.28,1.65-1.9,0.76c0.38-0.89-1.01-1.14-1.01-1.14l-0.63-0.89c0,0,2.66-2.41-1.78-1.4
				c-4.44,1.01-5.96-0.38-5.96-0.38c2.39-0.25,4.77-0.68,7.1-1.27c1.65-0.63,3.42-2.54,4.44-1.4s6.09,3.8,7.22,3.55
				c1.14-0.25,1.9-2.28,0.63-2.41c2.2,0.11,4.38,0.54,6.47,1.27c2.66,1.14,9.26-0.51,7.35-1.27c-1.38-0.43-2.74-0.93-4.06-1.52
				c-0.76-0.51-2.79-2.79-4.44-2.92c-1.65-0.13-5.58-0.63-5.58-0.63s1.9-0.89,1.39-1.27c-0.51-0.38,2.28-1.52,2.28-1.52
				c-0.79-0.81-1.74-1.46-2.79-1.9c-1.78-0.76-3.42-2.79-4.44-3.55c-1.01-0.76,0.38-1.27,1.14-1.78s1.14,0.13,0.38-1.14
				c-0.76-1.27-1.27-1.27-0.25-0.51c1.01,0.76,5.07,4.44,7.86,5.07c2.79,0.63,5.71-0.13,3.93-2.54c-1.77-2.41-4.82-5.96-3.17-4.69
				c1.65,1.27,3.68,2.41,3.68,0.38c-0.03-1.22-0.7-2.33-1.78-2.92l-1.78,0.13l1.65-2.16c0,0,4.31,3.68,0.89-0.51
				c-3.42-4.18-5.58-6.85-3.8-5.71s1.67,1.48,2.41,1.9c0.89,0.51,1.14,0,1.14,0c1.14,1.4,1.65,1.4,1.65,1.4s0.25,3.8,0.63,1.65
				c0.38-2.15,0.25-7.99,0.63-3.42c0.18,2.64,1.25,5.15,3.04,7.1c1.34-1.06,2.01-2.75,1.78-4.44c-0.38-2.92,0.63-1.78-1.52-3.93
				s-3.68-5.07-2.41-3.68c0.93,0.87,2.15,1.37,3.42,1.39c0,0-0.63-5.45,1.78-9.38c0,0-0.13,2.03-0.13,3.3
				c0,1.27,0.38,0.63,0.38,0.63v2.16c0.13,1.39,0.63-1.01,0.51,0.89s-0.51,2.41,0.25,2.28s1.01,0.76,2.54-0.63
				c0.69-0.74,1.56-1.26,2.54-1.52c0,0-4.18,4.69-4.69,5.96c-0.31,0.94-0.39,1.94-0.25,2.92c0,0-0.25,0.76-0.51,1.65
				c-0.25,0.89,0.76,0.76,0.76,0.76l2.79-2.54l1.9-0.25l1.9-1.4l0.25,1.27l2.05-2.59c0,0-0.14,1.44,1.75,1.32
				c1.9-0.12,3.17-0.13,1.27,0.76c-1.9,0.89-2.28,0.25-2.79,1.78c-0.5,1.52-0.38,0.51-1.9,1.65c-1.52,1.14-2.53,1.4-4.44,2.66
				c-1.9,1.27-2.92,3.8-2.54,6.85c0.38,3.04,0.38,6.72,2.79,4.56s3.55-4.44,5.32-6.34c1.43-1.44,3.44-2.14,5.45-1.9
				c0.76,0.25,2.16-1.77,2.16-1.77h1.01c0,0,3.8,0.51,1.9,1.39c-1.9,0.89-0.38,1.52-0.38,1.52l-1.78,1.4l-0.51,0.38
				c0,0-1.78,0.89-0.13,1.9c1.65,1.01,1.52,1.78,1.52,1.78l-4.05,1.13c-0.25,0.17-0.47,0.38-0.63,0.63c-0.38,0.51,1.65,1.52,0,1.27
				c-0.82-0.23-1.7,0.02-2.28,0.63l-0.51,0.76l0.76,1.4l1.01-0.13l-2.79,1.14c0,0,0.76-0.76,0.76,0.89c0,1.65,3.04,2.03,0,1.65
				s-3.8-0.38-3.8-0.38l0.13,0.63l-0.25,1.27c0,0-1.52,0.89-0.38,1.52c1.14,0.45,2.41,0.45,3.55,0c0.89-0.25,2.66-2.03,4.44-2.41
				c1.78-0.38,1.9-2.03,2.79-0.63c0.88,1.4,0,1.52,2.66,2.16c2.66,0.63-2.92-1.4,2.41,1.14c5.32,2.54,6.97,1.78,7.1,2.28
				c0.13,0.51,0.76,1.52-2.28,1.4s-3.68,0.51-5.07-0.25c-1.4-0.76-2.79-1.27-1.77-0.13c1.01,1.14,0,1.01-1.4,0.89
				c-1.4-0.13-2.16,0-1.52,0.63c0.63,0.63-2.92-1.9-2.79-1.39c0.35,0.72,0.78,1.4,1.27,2.03c-1.78-0.38-5.07-2.79-4.18-1.27
				s0.76,1.65-0.89,1.14L-215.74-238.34z"/>
			<path class="st66" d="M-218.53-124.47c-0.13,0.63,0.76,21.43,0,25.61c-0.76,4.18-0.51,28.02,0,32.21
				c0.29,2.44,0.75,4.85,1.4,7.22l4.82,0.76c0,0-2.03-31.32-2.16-35.76c-0.13-4.44,0.89-34.87,0.89-34.87L-218.53-124.47z"/>
		</g>
		<g transform="translate(724.525 549.821)">
			<path class="st67" d="M-268.11-270.58c0,0-1.35,1.35-3.38-2.22s-2.7-4.98-2.75-5.56c-0.05-0.58,0.48-0.43,0.82-0.24
				c0.34,0.19,2.61,1.79,2.9,2.61c0.29,0.82,1.21,2.41,1.44,2.99C-268.84-272.42-268.11-270.58-268.11-270.58z"/>
			<path class="st68" d="M-268.15-274.01c-0.04-0.77,0.2-1.01-0.19-1.6c-0.38-0.58-1.54-2.18-1.59-1.46
				c-0.05,0.72-0.06,2.03-0.11,2.85c0.1,1.18,0.57,2.3,1.34,3.2C-268.17-270.67-268.15-274.01-268.15-274.01z"/>
			<path class="st69" d="M-266.99-277.92c0,0-0.14-0.43-0.43-0.24s-0.53,1.55-0.68,2.03c-0.11,0.87-0.17,1.75-0.17,2.63l1.04,1
				c0,0,0.97-1.16,0.97-1.74c-0.02-0.73-0.11-1.46-0.24-2.17C-266.61-276.86-266.99-277.92-266.99-277.92z"/>
			<path class="st70" d="M-268.25-275.12c0-1.39,0.11-2.78,0.34-4.15c0.19-0.42,0.27-0.89,0.24-1.35c0-0.58,0.34-0.29,0.72,0.14
				c0.43,0.63,0.75,1.33,0.92,2.08c0.07,0.63,0.1,1.25,0.1,1.88c0,0.15,0.48-1.5,0.87-1.79s0.29-0.63,0.48-0.53
				c0.25,0.2,0.39,0.51,0.39,0.83v0.92c0.29-0.37,0.65-0.68,1.06-0.92c0.43-0.15,1.21-0.72,1.55-0.87c0.34-0.15,0.63,0.05,0.53,0.24
				c-0.14,0.9-0.38,1.77-0.72,2.61c-0.2,0.31-0.43,0.6-0.68,0.87c0.93-0.46,1.92-0.75,2.95-0.87c0.53,0.08,1.07,0.08,1.59,0
				c0.29,0,0.63,0.1,0.53,0.24c-0.1,0.14-1.06,1.69-1.44,1.84c-0.38,0.14,0-0.1,0-0.1c0.58-0.05,1.16-0.05,1.74,0
				c0.58,0.1,1.01-0.14,0.92,0.14c-0.38,0.53-0.86,0.99-1.4,1.35c-0.39,0.24-1.01,1.21-1.79,1.16c-1.11,0.02-2.23,0.1-3.33,0.24
				c-0.39,0.05-2.42,0.19-2.42,0.19L-268.25-275.12z"/>
			<path class="st69" d="M-268.66-270.9l-0.15-0.02c-0.83-0.14-1.67-0.16-2.51-0.08c-1.47,0.76-2.91,1.6-4.3,2.51
				c-0.43,0.39-1.21,0.97-0.63,0.92c0.94-0.02,1.87,0.02,2.8,0.1c1.38,0.02,2.76-0.14,4.11-0.48c0.87-0.22,1.62-0.76,2.13-1.5
				c0.87,1.76,2.42,3.09,4.3,3.67c2.95,0.72,4.01,1.21,4.25,1.16c0.24-0.05,0.43-0.24,0.24-0.53s-2.27-2.13-2.61-2.42
				c-0.65-0.34-1.33-0.62-2.03-0.83L-268.66-270.9z"/>
			<path class="st69" d="M-266.73-269.45c1.35,0.85,2.96,1.19,4.54,0.97c0.48-0.05,0.96-0.05,1.44,0c0.39,0.1,0.68-0.1,0.29-0.24
				c-0.34-0.1-0.67-0.24-0.97-0.43c-0.21-0.18-0.45-0.32-0.72-0.39c-0.24-0.05,2.22-0.39,2.61-0.58c0.45-0.18,0.92-0.33,1.4-0.43
				c0.19-0.05,0.19-0.34-0.29-0.48c-0.48-0.15-0.69-0.25-1.33-0.41c0,0-1.03-0.36-1.27-0.21c0.58-0.67,1.29-1.23,2.08-1.64
				c0.68-0.19-0.53-0.53-1.3-0.24s-0.34-0.63,0.14-1.26s0.77-0.96,0.34-0.92c-1.24,0.09-2.46,0.42-3.57,0.97
				c-0.68,0.52-1.28,1.14-1.79,1.83L-266.73-269.45z"/>
			<path class="st71" d="M-264.6-270.8c0.44-0.38,0.83-0.34,0.92-0.97c0.1-0.49,0.15-0.99,0.14-1.5c-0.05-0.19-0.05-0.77-0.29-0.48
				s-0.24,0-0.19-0.1c0.05-0.1-0.16-0.2-0.16-0.2s0.47-0.09,0.19-0.19s0.16-0.43-0.23-0.34c-0.39,0.1-1.26,0.43-1.26,0.43
				l-0.63,0.34c0,0-0.68-0.1-0.77,0.05c-0.18,0.38-0.31,0.79-0.39,1.21c-0.05,0.34-0.34,1.16,0,1.44S-265.33-270.17-264.6-270.8z"/>
			<path class="st68" d="M-263.54-271.04c-0.4,0.52-0.87,0.97-1.4,1.35c-0.51,0.24-1.1,0.29-1.64,0.14c-0.48-0.05-1.01,0-1.06-0.24
				c0.02-0.29,0.1-0.57,0.24-0.83c0.36-0.29,0.77-0.52,1.21-0.68c0.65-0.07,1.3-0.04,1.93,0.1
				C-263.93-271.09-263.49-271.33-263.54-271.04z"/>
			<path class="st68" d="M-267.77-274.35c-0.52,0.67-0.82,1.48-0.87,2.32c0.14,0.97,0.58,1.98,0.87,2.08
				c0.29,0.1,1.06-1.01,1.06-1.55C-266.7-272.03-267.38-274.69-267.77-274.35z"/>
			<path class="st72" d="M-267.28-269.76c-0.21,1.42-0.33,2.86-0.39,4.3c0.1,0.63,1.35,7.68,1.4,9.32c0.05,1.64-0.04,0.84-0.04,0.84
				h-0.48c0.13-1.15,0.06-2.32-0.2-3.45c-0.59-2.16-1.03-4.35-1.3-6.57c0.05-0.77,0.63-4.44,0.63-4.44L-267.28-269.76z"/>
			<path class="st73" d="M-266.07-268.84c1.28,0.96,2.91,1.39,4.08,2.48"/>
			<path class="st73" d="M-266.14-269.25c1.04,0.63,2.14,1.16,3.29,1.57c1.42,0.43,2.7,1.25,3.67,2.37"/>
			<path class="st73" d="M-268.15-269.98c-0.01,0.03-0.04,0.06-0.07,0.08c-0.03,0.01-0.08-0.01-0.08-0.05
				c0-0.04,0.02-0.04,0.04-0.05c0.06-0.05,0.08-0.13,0.06-0.21c-0.07,0.07-0.17,0.1-0.27,0.09c0.05,0,0.07-0.07,0.04-0.11
				c-0.03-0.04-0.08-0.06-0.13-0.05c-0.05,0.01-0.1,0.01-0.15,0.01"/>
			<path class="st73" d="M-268.14-269.68c-0.32,0.52-0.85,0.88-1.45,0.99c-0.59,0.11-1.2,0.15-1.8,0.11
				c-1.05-0.05-2.1,0.07-3.11,0.36"/>
			<path class="st74" d="M-269.57-271.3l-0.51-0.33"/>
			<path class="st74" d="M-270.7-272.31c-1.03-1.52-1.22-3.52-2.36-4.96"/>
			<path class="st74" d="M-271.14-274.41c-0.25-0.69-0.56-1.35-0.93-1.99c-0.37-0.64-0.89-1.17-1.52-1.56"/>
			<path class="st75" d="M-264.64-271.53c0.08,0,0.13-0.07,0.18-0.13c0.23-0.34,0.39-0.71,0.47-1.11"/>
			<path class="st76" d="M-264.53-273.75c0.03-0.01,0.04-0.04,0.04-0.06c0,0,0,0,0,0l-0.19-0.05c0.05-0.08,0.12-0.14,0.18-0.21
				c-0.02-0.02-0.05-0.03-0.08-0.03c0.02-0.06,0.05-0.11,0.09-0.15"/>
			<path class="st76" d="M-264.77-273.54c-0.16,0.07-0.31,0.15-0.45,0.24c-0.49,0.31-0.84,0.81-0.96,1.38"/>
			<path class="st76" d="M-266.77-273.66c0.07-0.02,0.14,0.01,0.16,0.08c0,0.01,0.01,0.02,0.01,0.04c0.1-0.01,0.19-0.14,0.28-0.09
				c0.02,0.02,0.04,0.03,0.06,0.06c0.05,0.04,0.12,0.06,0.17,0.03"/>
			<path class="st76" d="M-266.05-273.56c-0.33,0.52-0.54,1.11-0.61,1.72"/>
			<path class="st77" d="M-258.01-273.24l-0.14,0.16"/>
			<path class="st77" d="M-257.71-273.43c0.02,0,0.02-0.04,0-0.05c-0.03,0-0.05,0.01-0.07,0.02c-0.42,0.45-0.9,0.84-1.42,1.18"/>
			<path class="st77" d="M-259.9-272.33c-0.11,0.08-0.22,0.16-0.31,0.26"/>
			<path class="st77" d="M-260.08-272.03c-0.07,0.01-0.13,0.06-0.16,0.12c0.09,0.05,0.21,0.06,0.3,0.01c0.1-0.04,0.19-0.1,0.28-0.14
				c0.19-0.08,0.41-0.07,0.6,0.03"/>
			<path class="st77" d="M-258.59-275.33c-0.43,0.3-1.06,0.31-1.37,0.73"/>
			<path class="st77" d="M-265.07-274.72c0.16-0.78,0.42-1.53,0.79-2.24"/>
			<path class="st77" d="M-266.56-279.02c0.48,1.64,0.43,3.4-0.16,5"/>
		</g>
		<g transform="translate(703.713 557.211)">
			<path class="st67" d="M-268.62-270.16c0,0-1.38,1.38-3.44-2.26c-2.07-3.64-2.75-5.06-2.8-5.65c-0.05-0.59,0.49-0.44,0.83-0.25
				c0.34,0.2,2.66,1.82,2.95,2.66c0.3,0.84,1.23,2.46,1.47,3.05S-268.62-270.16-268.62-270.16z"/>
			<path class="st68" d="M-268.67-273.65c-0.05-0.79,0.21-1.03-0.19-1.62c-0.4-0.59-1.56-2.22-1.62-1.48
				c-0.05,0.74-0.06,2.06-0.11,2.9c0.1,1.2,0.58,2.34,1.36,3.25C-268.69-270.26-268.67-273.65-268.67-273.65z"/>
			<path class="st69" d="M-267.49-277.63c0,0-0.15-0.44-0.44-0.25c-0.3,0.2-0.54,1.57-0.69,2.06c-0.12,0.89-0.17,1.78-0.17,2.67
				l1.06,1.01c0,0,0.98-1.18,0.98-1.77c-0.03-0.74-0.11-1.48-0.25-2.21C-267.1-276.55-267.49-277.63-267.49-277.63z"/>
			<path class="st70" d="M-268.77-274.78c0-1.42,0.11-2.83,0.34-4.23c0.2-0.43,0.28-0.9,0.25-1.38c0-0.59,0.34-0.3,0.74,0.15
				c0.44,0.64,0.75,1.36,0.93,2.11c0.08,0.64,0.11,1.28,0.1,1.92c0,0.15,0.49-1.52,0.88-1.82c0.39-0.29,0.3-0.64,0.49-0.54
				c0.25,0.2,0.4,0.51,0.39,0.83v0.93c0.3-0.38,0.66-0.7,1.08-0.93c0.44-0.15,1.23-0.74,1.57-0.88s0.64,0.05,0.54,0.24
				c-0.14,0.91-0.39,1.8-0.74,2.66c-0.21,0.31-0.44,0.61-0.69,0.88c0,0,2.26-1.03,3-0.88c0.54,0.08,1.08,0.08,1.62,0
				c0.3,0,0.64,0.1,0.54,0.24c-0.1,0.15-1.08,1.72-1.47,1.87s0-0.1,0-0.1c0.59-0.05,1.18-0.05,1.77,0c0.59,0.1,1.03-0.15,0.93,0.15
				c-0.39,0.54-0.87,1.01-1.43,1.38c-0.39,0.25-1.03,1.23-1.82,1.18c-1.13,0.02-2.27,0.1-3.39,0.24c-0.39,0.05-2.46,0.2-2.46,0.2
				L-268.77-274.78z"/>
			<path class="st69" d="M-269.19-270.48l-0.15-0.02c-0.84-0.14-1.7-0.16-2.55-0.08c-1.5,0.78-2.96,1.63-4.38,2.56
				c-0.44,0.39-1.23,0.98-0.64,0.94c0.95-0.02,1.9,0.02,2.85,0.1c1.41,0.02,2.81-0.14,4.18-0.49c0.88-0.23,1.66-0.77,2.17-1.52
				c0.88,1.79,2.46,3.15,4.38,3.74c3,0.74,4.08,1.23,4.33,1.18c0.25-0.05,0.44-0.25,0.25-0.54c-0.2-0.29-2.31-2.17-2.66-2.46
				c-0.66-0.35-1.35-0.63-2.06-0.84L-269.19-270.48z"/>
			<path class="st69" d="M-267.22-269.01c1.37,0.87,3.01,1.21,4.62,0.98c0.49-0.05,0.98-0.05,1.47,0c0.39,0.1,0.69-0.1,0.3-0.25
				c-0.35-0.1-0.68-0.25-0.98-0.44c-0.21-0.19-0.46-0.32-0.74-0.39c-0.24-0.05,2.26-0.39,2.66-0.59c0.46-0.19,0.94-0.33,1.43-0.44
				c0.2-0.05,0.2-0.34-0.3-0.49c-0.49-0.15-0.7-0.26-1.36-0.42c0,0-1.05-0.36-1.3-0.22c0.6-0.68,1.31-1.25,2.11-1.67
				c0.69-0.2-0.54-0.54-1.33-0.24c-0.79,0.3-0.34-0.64,0.15-1.28c0.49-0.64,0.79-0.98,0.34-0.93c-1.26,0.09-2.5,0.42-3.64,0.98
				c-0.69,0.53-1.31,1.16-1.82,1.87L-267.22-269.01z"/>
			<path class="st71" d="M-265.06-270.38c0.45-0.39,0.84-0.34,0.94-0.98c0.1-0.5,0.15-1.01,0.15-1.53c-0.05-0.2-0.05-0.79-0.3-0.49
				s-0.25,0-0.2-0.1c0.05-0.1-0.16-0.21-0.16-0.21s0.48-0.1,0.2-0.19c-0.28-0.1,0.16-0.44-0.23-0.34c-0.39,0.1-1.28,0.44-1.28,0.44
				l-0.64,0.34c0,0-0.69-0.1-0.79,0.05c-0.18,0.39-0.31,0.81-0.39,1.23c-0.05,0.34-0.34,1.18,0,1.47
				C-267.42-270.39-265.8-269.74-265.06-270.38z"/>
			<path class="st68" d="M-263.98-270.63c-0.41,0.53-0.89,0.99-1.43,1.38c-0.52,0.24-1.11,0.3-1.67,0.15
				c-0.49-0.05-1.03,0-1.08-0.25c0.02-0.29,0.11-0.58,0.24-0.84c0.37-0.3,0.78-0.53,1.23-0.69c0.66-0.07,1.32-0.03,1.97,0.1
				C-264.37-270.68-263.93-270.92-263.98-270.63z"/>
			<path class="st68" d="M-268.28-274c-0.53,0.68-0.84,1.5-0.88,2.36c0.15,0.98,0.59,2.02,0.88,2.11c0.29,0.1,1.08-1.03,1.08-1.57
				S-267.89-274.34-268.28-274z"/>
			<path class="st72" d="M-267.79-269.33c-0.21,1.45-0.34,2.91-0.39,4.37c0.1,0.64,1.38,7.82,1.43,9.49
				c0.05,1.67-0.25,7.47-0.25,7.47h-0.49c0,0,0.44-8.55,0-10.13c-0.61-2.19-1.05-4.43-1.33-6.69c0.05-0.79,0.64-4.52,0.64-4.52
				H-267.79z"/>
			<path class="st78" d="M-266.55-268.39c1.3,0.98,2.96,1.42,4.16,2.52"/>
			<path class="st78" d="M-266.63-268.8c1.06,0.65,2.18,1.18,3.35,1.6c1.45,0.44,2.75,1.27,3.74,2.42"/>
			<path class="st78" d="M-268.67-269.55c-0.01,0.03-0.04,0.06-0.07,0.08c-0.04,0.01-0.08-0.01-0.08-0.05
				c0-0.04,0.02-0.04,0.04-0.05c0.06-0.05,0.08-0.13,0.07-0.21c-0.07,0.07-0.17,0.1-0.27,0.09c0.05,0,0.07-0.08,0.04-0.12
				c-0.03-0.04-0.08-0.06-0.13-0.05c-0.05,0.01-0.1,0.01-0.15,0.01"/>
			<path class="st78" d="M-268.66-269.24c-0.33,0.53-0.86,0.9-1.48,1.01c-0.6,0.11-1.22,0.15-1.83,0.11
				c-1.07-0.05-2.13,0.07-3.16,0.36"/>
			<path class="st74" d="M-270.11-270.89l-0.52-0.33"/>
			<path class="st74" d="M-271.26-271.92c-1.05-1.55-1.25-3.58-2.4-5.05"/>
			<path class="st74" d="M-271.71-274.06c-0.26-0.7-0.57-1.38-0.95-2.02c-0.38-0.65-0.91-1.19-1.55-1.58"/>
			<path class="st79" d="M-265.1-271.13c0.08,0,0.14-0.07,0.18-0.14c0.23-0.34,0.39-0.73,0.47-1.14"/>
			<path class="st76" d="M-264.98-273.39c0.03-0.01,0.04-0.04,0.04-0.06c0,0,0,0,0,0l-0.19-0.05c0.05-0.08,0.12-0.14,0.19-0.21
				c-0.02-0.02-0.05-0.03-0.08-0.03c0.02-0.06,0.05-0.11,0.09-0.16"/>
			<path class="st76" d="M-265.23-273.17c-0.16,0.07-0.31,0.15-0.46,0.25c-0.5,0.32-0.86,0.83-0.98,1.41"/>
			<path class="st76" d="M-267.26-273.29c0.07-0.02,0.14,0.02,0.17,0.08c0,0.01,0.01,0.02,0.01,0.04c0.1-0.01,0.19-0.14,0.28-0.09
				c0.02,0.02,0.04,0.04,0.06,0.06c0.05,0.04,0.12,0.06,0.18,0.03"/>
			<path class="st76" d="M-266.54-273.19c-0.34,0.53-0.55,1.13-0.62,1.75"/>
			<path class="st80" d="M-258.34-272.87l-0.14,0.17"/>
			<path class="st80" d="M-258.04-273.06c0.03,0,0.02-0.04,0-0.05c-0.03,0-0.05,0.01-0.07,0.02c-0.43,0.46-0.92,0.86-1.44,1.2"/>
			<path class="st80" d="M-260.27-271.94c-0.11,0.08-0.22,0.17-0.31,0.27"/>
			<path class="st80" d="M-260.46-271.63c-0.07,0.01-0.13,0.06-0.16,0.12c0.09,0.06,0.21,0.06,0.31,0.02
				c0.1-0.04,0.19-0.1,0.29-0.14c0.2-0.08,0.42-0.07,0.61,0.03"/>
			<path class="st80" d="M-258.94-274.99c-0.44,0.3-1.08,0.32-1.39,0.75"/>
			<path class="st80" d="M-265.53-274.38c0.16-0.79,0.43-1.55,0.8-2.27"/>
			<path class="st80" d="M-267.05-278.75c0.49,1.67,0.43,3.46-0.17,5.09"/>
		</g>
		<g transform="translate(772.414 568.865)">
			<path class="st67" d="M-248.12-257.07c0,0,3.04,3.03,7.59-4.98c4.55-8.02,6.07-11.16,6.18-12.46c0.11-1.3-1.08-0.98-1.84-0.54
				c-0.76,0.43-5.85,4.01-6.5,5.85s-2.71,5.42-3.25,6.72C-246.5-261.19-248.12-257.07-248.12-257.07z"/>
			<path class="st68" d="M-248.01-264.76c0.1-1.73-0.44-2.27,0.41-3.58c0.86-1.31,3.44-4.89,3.56-3.27s0.13,4.55,0.25,6.39
				s-1.81,6.4-3,7.17S-248.01-264.76-248.01-264.76z"/>
			<path class="st69" d="M-250.62-273.55c0,0,0.33-0.98,0.98-0.54c0.65,0.43,1.19,3.47,1.52,4.55c0.26,1.95,0.39,3.92,0.39,5.89
				l-2.34,2.23c0,0-2.17-2.6-2.17-3.9c0.06-1.64,0.24-3.27,0.54-4.88C-251.48-271.16-250.62-273.55-250.62-273.55z"/>
			<path class="st70" d="M-247.8-267.26c0-0.43-0.1-7.15-0.76-9.32s-0.54-1.73-0.54-3.04s-0.76-0.65-1.63,0.33
				c-0.97,1.41-1.67,2.99-2.06,4.66c-0.16,1.4-0.23,2.81-0.22,4.23c0,0.33-1.08-3.36-1.95-4.01s-0.65-1.41-1.08-1.19
				c-0.56,0.45-0.88,1.13-0.87,1.84v2.06c-0.65-0.84-1.46-1.54-2.38-2.06c-0.98-0.33-2.71-1.63-3.47-1.95
				c-0.76-0.33-1.41,0.11-1.19,0.54c0.22,0.43,0.65,4.44,1.63,5.85c0.45,0.69,0.96,1.34,1.52,1.95c0,0-4.98-2.28-6.61-1.95
				c-1.19,0.17-2.39,0.17-3.58,0c-0.65,0-1.41,0.22-1.19,0.54s2.38,3.79,3.25,4.12c0.87,0.33,0-0.22,0-0.22
				c-1.3-0.12-2.6-0.12-3.9,0c-1.3,0.22-2.28-0.33-2.06,0.33c0.85,1.19,1.92,2.22,3.14,3.03c0.87,0.54,2.27,2.71,4.01,2.6
				c2.5,0.04,5,0.22,7.48,0.54c0.87,0.1,5.42,0.43,5.42,0.43L-247.8-267.26z"/>
			<path class="st69" d="M-246.88-257.78l0.34-0.04c1.14-0.14,4.8-0.54,5.62-0.18c3.31,1.72,6.53,3.6,9.64,5.64
				c0.98,0.87,2.71,2.17,1.41,2.06c-2.1-0.04-4.2,0.03-6.29,0.22c-3.1,0.05-6.2-0.32-9.21-1.08c-1.95-0.5-3.64-1.7-4.77-3.36
				c0,0-3.04,6.6-9.64,8.24c-6.61,1.63-8.99,2.71-9.54,2.6c-0.54-0.11-0.98-0.54-0.54-1.19c0.43-0.65,5.09-4.77,5.85-5.42
				c1.45-0.76,2.98-1.38,4.55-1.84L-246.88-257.78z"/>
			<path class="st69" d="M-251.21-254.53c0,0-4.88,3.25-10.19,2.17c-1.08-0.11-2.17-0.11-3.25,0c-0.87,0.22-1.52-0.22-0.65-0.54
				c0.77-0.22,1.5-0.55,2.17-0.98c0.47-0.41,1.02-0.71,1.63-0.87c0.54-0.1-4.98-0.87-5.85-1.3c-1.02-0.41-2.07-0.74-3.14-0.98
				c-0.43-0.11-0.43-0.76,0.65-1.08c1.08-0.33,1.54-0.57,2.99-0.93c0,0,2.32-0.8,2.86-0.47c0.54,0.32-3.14-3.25-4.66-3.68
				c-1.52-0.43,1.19-1.19,2.93-0.54c1.73,0.65,0.76-1.41-0.33-2.82s-1.73-2.17-0.76-2.06c0.98,0.1,5.85,0.65,8.02,2.17
				c1.53,1.17,2.88,2.56,4.01,4.12L-251.21-254.53z"/>
			<path class="st71" d="M-255.98-257.56c-0.99-0.85-1.84-0.76-2.06-2.17c-0.23-1.1-0.34-2.23-0.33-3.36
				c0.11-0.43,0.11-1.73,0.65-1.08s0.54,0,0.43-0.22c-0.11-0.22,0.36-0.45,0.36-0.45s-1.05-0.21-0.43-0.42
				c0.62-0.22-0.36-0.97,0.51-0.76c0.87,0.22,2.82,0.98,2.82,0.98l1.41,0.76c0,0,1.52-0.22,1.73,0.11c0.4,0.86,0.69,1.77,0.87,2.71
				c0.1,0.76,0.76,2.6,0,3.25C-250.78-257.56-254.35-256.16-255.98-257.56z"/>
			<path class="st68" d="M-258.37-258.11c0.89,1.16,1.95,2.18,3.14,3.03c1.08,0.76,2.6,0.43,3.68,0.33c1.08-0.11,2.27,0,2.38-0.54
				c-0.05-0.65-0.24-1.27-0.54-1.84c-0.81-0.66-1.72-1.17-2.71-1.52c-1.45-0.15-2.91-0.08-4.33,0.22
				C-257.5-258.22-258.47-258.75-258.37-258.11z"/>
			<path class="st68" d="M-248.88-265.53c0,0,2.28,3.03,1.95,5.2s-1.3,4.44-1.95,4.66c-0.65,0.22-2.38-2.28-2.38-3.47
				S-249.75-266.29-248.88-265.53z"/>
			<path class="st72" d="M-249.96-255.23c0,0,1.08,8.24,0.87,9.64c-0.22,1.41-3.03,17.23-3.14,20.91s0.09,1.88,0.09,1.88h1.08
				c-0.29-2.59-0.14-5.2,0.45-7.74c0.98-3.47,3.04-13,2.93-14.74c-0.11-1.73-1.41-9.97-1.41-9.97L-249.96-255.23z"/>
			<path class="st81" d="M-252.69-253.18c-2.86,2.15-6.53,3.12-9.16,5.56"/>
			<path class="st81" d="M-252.52-254.09c-2.33,1.42-4.81,2.61-7.38,3.53c-3.08,1.24-6.31,2.63-8.24,5.33"/>
			<path class="st81" d="M-248.02-255.73c0.03,0.08,0.09,0.14,0.17,0.18c0.08,0.03,0.19-0.02,0.18-0.1
				c-0.01-0.05-0.05-0.09-0.09-0.12c-0.12-0.12-0.18-0.29-0.14-0.46c0.16,0.15,0.38,0.22,0.6,0.19c-0.11-0.01-0.15-0.17-0.09-0.26
				c0.08-0.08,0.19-0.12,0.3-0.1c0.11,0.02,0.22,0.03,0.33,0.03"/>
			<path class="st81" d="M-248.04-255.06c0.72,1.17,1.9,1.97,3.25,2.23c1.33,0.24,2.69,0.33,4.04,0.24c2.35-0.12,4.71,0.15,6.97,0.8
				"/>
			<path class="st82" d="M-244.85-258.69l1.14-0.74"/>
			<path class="st82" d="M-242.31-260.96c2.32-3.41,2.75-7.89,5.29-11.13"/>
			<path class="st82" d="M-241.31-265.67c0.57-1.54,1.27-3.04,2.09-4.46c0.83-1.43,2-2.63,3.41-3.49"/>
			<path class="st83" d="M-255.9-259.2c-0.17,0-0.3-0.15-0.4-0.3c-0.51-0.75-0.87-1.6-1.05-2.5"/>
			<path class="st84" d="M-256.15-264.19c-0.06-0.02-0.1-0.08-0.08-0.14c0,0,0-0.01,0-0.01l0.43-0.11
				c-0.12-0.17-0.26-0.32-0.41-0.46c0.05-0.05,0.12-0.08,0.18-0.06c-0.04-0.13-0.1-0.25-0.19-0.34"/>
			<path class="st84" d="M-255.6-263.72c0.35,0.15,0.69,0.33,1.01,0.55c1.11,0.7,1.89,1.82,2.17,3.1"/>
			<path class="st84" d="M-251.12-263.97c-0.15-0.05-0.31,0.03-0.36,0.18c-0.01,0.03-0.01,0.05-0.01,0.08
				c-0.23-0.01-0.42-0.31-0.62-0.2c-0.05,0.04-0.09,0.08-0.13,0.12c-0.11,0.1-0.26,0.12-0.39,0.06"/>
			<path class="st84" d="M-252.73-263.75c0.75,1.16,1.22,2.48,1.38,3.85"/>
			<path class="st85" d="M-270.79-263.04l0.3,0.36"/>
			<path class="st85" d="M-271.44-263.47c-0.06,0-0.05-0.1,0-0.11c0.06-0.01,0.11,0.01,0.15,0.06c1.08,0.87,1.93,2.05,3.18,2.65"/>
			<path class="st85" d="M-266.54-261.01c0.25,0.17,0.48,0.37,0.69,0.59"/>
			<path class="st85" d="M-266.13-260.32c0.16,0.03,0.29,0.13,0.36,0.27c-0.21,0.12-0.46,0.13-0.68,0.03
				c-0.22-0.08-0.41-0.22-0.64-0.31c-0.43-0.17-0.92-0.15-1.34,0.06"/>
			<path class="st85" d="M-269.46-267.72c0.97,0.66,2.37,0.7,3.07,1.65"/>
			<path class="st85" d="M-254.94-266.36c-0.35-1.75-0.95-3.43-1.76-5.02"/>
			<path class="st85" d="M-251.58-275.99c-1.35,3.56-0.69,7.56,0.37,11.22"/>
		</g>
		<g transform="translate(672.985 572.854)">
			<path class="st67" d="M-259.05-256.54c0,0-3.09,3.09-7.72-5.07c-4.63-8.16-6.17-11.36-6.29-12.68s1.1-0.99,1.87-0.55
				s5.95,4.08,6.62,5.95c0.66,1.88,2.76,5.51,3.31,6.84C-260.7-260.73-259.05-256.54-259.05-256.54z"/>
			<path class="st68" d="M-259.16-264.36c-0.1-1.76,0.45-2.31-0.42-3.64s-3.51-4.98-3.62-3.33c-0.11,1.65-0.13,4.63-0.25,6.5
				c-0.12,1.87,1.84,6.52,3.05,7.29C-259.2-256.75-259.16-264.36-259.16-264.36z"/>
			<path class="st69" d="M-256.51-273.3c0,0-0.33-0.99-0.99-0.55c-0.66,0.44-1.21,3.53-1.55,4.63c-0.26,1.99-0.39,3.99-0.39,6
				l2.37,2.27c0,0,2.21-2.65,2.21-3.97c-0.06-1.67-0.24-3.32-0.55-4.96C-255.63-270.87-256.51-273.3-256.51-273.3z"/>
			<path class="st70" d="M-259.38-266.91c0-0.44,0.11-7.28,0.77-9.48c0.66-2.2,0.55-1.76,0.55-3.09c0-1.32,0.77-0.66,1.65,0.33
				c0.99,1.44,1.7,3.04,2.1,4.74c0.17,1.43,0.24,2.86,0.22,4.3c0,0.33,1.1-3.42,1.99-4.08c0.88-0.66,0.66-1.43,1.1-1.21
				c0.57,0.45,0.89,1.15,0.88,1.87v2.09c0.66-0.85,1.49-1.56,2.43-2.1c0.99-0.33,2.76-1.65,3.53-1.98c0.77-0.33,1.43,0.11,1.21,0.55
				c-0.22,0.44-0.66,4.52-1.65,5.95c-0.46,0.7-0.98,1.37-1.55,1.99c0,0,5.07-2.32,6.73-1.99c1.21,0.17,2.43,0.17,3.64,0
				c0.66,0,1.43,0.22,1.21,0.55c-0.22,0.33-2.43,3.86-3.31,4.19c-0.88,0.33,0-0.22,0-0.22c1.32-0.12,2.65-0.12,3.97,0
				c1.32,0.22,2.32-0.33,2.1,0.33c-0.87,1.22-1.95,2.26-3.2,3.09c-0.88,0.55-2.32,2.76-4.08,2.65c-2.54,0.04-5.09,0.23-7.61,0.55
				c-0.88,0.11-5.51,0.44-5.51,0.44L-259.38-266.91z"/>
			<path class="st69" d="M-260.32-257.26l-0.34-0.04c-1.15-0.14-4.89-0.55-5.72-0.18c-3.37,1.75-6.64,3.66-9.81,5.73
				c-0.99,0.88-2.76,2.21-1.43,2.1c2.14-0.04,4.27,0.03,6.4,0.22c3.16,0.05,6.31-0.32,9.37-1.1c2.54-0.88,3.86-1.87,4.85-3.42
				c0,0,3.09,6.73,9.81,8.38s9.15,2.76,9.7,2.65c0.55-0.11,0.99-0.55,0.55-1.21c-0.44-0.66-5.18-4.85-5.95-5.51
				c-1.48-0.78-3.02-1.4-4.62-1.87L-260.32-257.26z"/>
			<path class="st69" d="M-255.9-253.95c0,0,4.96,3.31,10.36,2.2c1.1-0.11,2.21-0.11,3.31,0c0.88,0.22,1.55-0.22,0.66-0.55
				c-0.78-0.22-1.52-0.55-2.2-0.99c-0.47-0.42-1.04-0.72-1.65-0.88c-0.55-0.11,5.07-0.88,5.95-1.32c1.04-0.42,2.11-0.75,3.2-0.99
				c0.44-0.11,0.44-0.77-0.66-1.1c-1.1-0.33-1.57-0.58-3.05-0.95c0,0-2.36-0.81-2.91-0.48c-0.55,0.33,3.2-3.3,4.74-3.75
				c1.54-0.45-1.21-1.21-2.98-0.55c-1.76,0.66-0.77-1.43,0.33-2.87c1.1-1.43,1.76-2.21,0.77-2.1c-0.99,0.11-5.95,0.66-8.16,2.21
				c-1.56,1.19-2.93,2.6-4.08,4.19L-255.9-253.95z"/>
			<path class="st71" d="M-251.05-257.04c1-0.87,1.87-0.77,2.1-2.2c0.23-1.12,0.34-2.27,0.33-3.42c-0.11-0.44-0.11-1.76-0.66-1.1
				c-0.55,0.66-0.55,0-0.44-0.22c0.11-0.22-0.36-0.46-0.36-0.46s1.07-0.21,0.44-0.43c-0.63-0.22,0.36-0.99-0.52-0.77
				s-2.87,0.99-2.87,0.99l-1.43,0.77c0,0-1.55-0.22-1.76,0.11c-0.41,0.88-0.7,1.8-0.88,2.76c-0.11,0.77-0.77,2.65,0,3.3
				C-256.34-257.05-252.71-255.6-251.05-257.04z"/>
			<path class="st68" d="M-248.63-257.59c-0.91,1.18-1.99,2.22-3.2,3.09c-1.1,0.77-2.65,0.44-3.75,0.33c-1.1-0.11-2.32,0-2.43-0.55
				c0.05-0.66,0.24-1.29,0.55-1.87c0.82-0.67,1.75-1.2,2.76-1.55c1.47-0.16,2.96-0.08,4.41,0.22
				C-249.51-257.7-248.52-258.25-248.63-257.59z"/>
			<path class="st68" d="M-258.28-265.14c0,0-2.32,3.09-1.98,5.29c0.33,2.2,1.32,4.52,1.98,4.74c0.66,0.22,2.43-2.32,2.43-3.53
				S-257.39-265.91-258.28-265.14z"/>
			<path class="st72" d="M-257.17-254.66c0,0-1.1,8.38-0.88,9.81s3.09,17.53,3.2,21.28c0.11,3.75-0.09,1.92-0.09,1.92h-1.1
				c0.29-2.63,0.14-5.29-0.46-7.87c-0.99-3.53-3.09-13.23-2.98-15c0.11-1.76,1.43-10.15,1.43-10.15L-257.17-254.66z"/>
			<path class="st86" d="M-254.4-252.57c2.92,2.19,6.65,3.18,9.32,5.65"/>
			<path class="st86" d="M-254.57-253.49c2.37,1.45,4.89,2.65,7.51,3.6c3.13,1.26,6.42,2.68,8.38,5.43"/>
			<path class="st86" d="M-259.15-255.16c-0.03,0.08-0.09,0.14-0.17,0.18c-0.08,0.03-0.19-0.02-0.18-0.1
				c0.01-0.05,0.05-0.09,0.09-0.12c0.13-0.12,0.18-0.3,0.15-0.47c-0.17,0.15-0.39,0.23-0.61,0.2c0.11-0.01,0.16-0.17,0.09-0.26
				c-0.08-0.08-0.19-0.13-0.3-0.11c-0.11,0.02-0.22,0.03-0.33,0.03"/>
			<path class="st86" d="M-259.13-254.48c-0.74,1.19-1.94,2.01-3.31,2.27c-1.36,0.25-2.74,0.33-4.12,0.25
				c-2.39-0.12-4.79,0.15-7.09,0.82"/>
			<path class="st87" d="M-262.38-258.18l-1.16-0.75"/>
			<path class="st87" d="M-264.97-260.49c-2.36-3.47-2.79-8.03-5.39-11.33"/>
			<path class="st87" d="M-265.98-265.29c-0.58-1.57-1.29-3.09-2.13-4.54c-0.84-1.45-2.04-2.67-3.47-3.55"/>
			<path class="st88" d="M-251.13-258.7c0.17,0,0.31-0.16,0.4-0.3c0.52-0.77,0.88-1.63,1.07-2.54"/>
			<path class="st89" d="M-250.88-263.78c0.06-0.02,0.1-0.08,0.08-0.15c0,0,0-0.01,0-0.01l-0.43-0.11c0.12-0.17,0.26-0.33,0.42-0.47
				c-0.05-0.05-0.12-0.08-0.19-0.06c0.04-0.13,0.1-0.25,0.2-0.35"/>
			<path class="st89" d="M-251.44-263.3c-0.36,0.15-0.7,0.34-1.03,0.56c-1.13,0.71-1.92,1.85-2.2,3.16"/>
			<path class="st89" d="M-256-263.56c0.15-0.05,0.32,0.03,0.37,0.19c0.01,0.03,0.01,0.05,0.01,0.08c0.23-0.01,0.43-0.32,0.63-0.21
				c0.05,0.04,0.09,0.08,0.13,0.13c0.11,0.1,0.26,0.12,0.4,0.06"/>
			<path class="st89" d="M-254.37-263.33c-0.76,1.18-1.24,2.53-1.4,3.92"/>
			<path class="st90" d="M-235.99-262.61l-0.31,0.37"/>
			<path class="st90" d="M-235.32-263.05c0.06,0,0.05-0.1,0-0.12c-0.06-0.01-0.11,0.01-0.15,0.06c-1.1,0.88-1.96,2.09-3.23,2.69"/>
			<path class="st90" d="M-240.31-260.54c-0.25,0.17-0.49,0.38-0.7,0.6"/>
			<path class="st90" d="M-240.72-259.84c-0.16,0.03-0.29,0.13-0.37,0.28c0.21,0.12,0.47,0.13,0.69,0.03
				c0.23-0.08,0.43-0.22,0.65-0.31c0.44-0.18,0.94-0.16,1.37,0.06"/>
			<path class="st90" d="M-237.33-267.37c-0.99,0.68-2.41,0.71-3.12,1.67"/>
			<path class="st90" d="M-252.11-265.99c0.36-1.78,0.96-3.49,1.8-5.1"/>
			<path class="st90" d="M-255.53-275.79c1.38,3.63,0.7,7.69-0.38,11.42"/>
		</g>
	</g>
</g>
</svg>
