<svg xmlns="http://www.w3.org/2000/svg" width="266.084" height="341.046" viewBox="0 0 266.084 341.046">
  <g id="Group_1657" data-name="Group 1657" transform="translate(129.568 -0.189) rotate(25)">
    <path id="Path_1506" data-name="Path 1506" d="M.748,192.489,0,194.153l7.627,3.767-.006.012,1.114.536,1.171.578.006-.012,7.143,3.436.85-1.615s17.443-25.941,23.135-41.374S108.564,6.4,108.564,6.4s1.06-1.984-1.358-4.1A9.68,9.68,0,0,0,105.139.834,9.689,9.689,0,0,0,102.711.11c-3.159-.6-4.069,1.456-4.069,1.456S28.275,135.046,19.621,149.035.748,192.489.748,192.489Z" transform="translate(41.804 0)" fill="#33322e"/>
    <path id="Path_1507" data-name="Path 1507" d="M24.575,2.28a.612.612,0,0,1-.142,1.028,5.079,5.079,0,0,0-3.2,3.125C20.682,7.558,22.464,9.187,21,9.487S18.821,12.6,18.821,12.6.7,56.872.188,57.678s.184.976.184.976c1.44.741,5.524,2.7,6.241,3.045.62.309,4.529,2.255,6.014,2.94,0,0,.563.443.881-.457S37.8,21.858,37.8,21.858s1.779-2.3,1.114-3.636,1.715-.937,2.264-2.062a5.079,5.079,0,0,0,.49-4.447.612.612,0,0,1,.723-.745,2.133,2.133,0,0,0,1.913-1.22c.087-.355-5.6-3.238-8.746-4.8l0-.009s-.387-.189-1.018-.492-1.014-.5-1.014-.5l0,.009C30.359,2.44,24.584-.266,24.358.021A2.133,2.133,0,0,0,24.575,2.28Z" transform="translate(16.604 193.255)" fill="#ebdddb"/>
    <path id="Path_1508" data-name="Path 1508" d="M.448,0c-.634.617-.559.11,0,0Z" transform="translate(12.751 312.758)" fill="#ca7740"/>
    <path id="Path_1509" data-name="Path 1509" d="M14.046,1.37C15.364-.3,26.635-2.311,31.482,7.784c0,0,1.106,5.962-4.9,14.779S12.429,46.326,8.911,49.489.888,55.938.055,56.051A.144.144,0,0,0,0,56.061,8.739,8.739,0,0,0,.976,54.87c1.493-2.1,1.037-2.557,1.069-3.938,0-.124.017-.263.025-.407.067-.8.066-1.882.064-2.994,0-1.311-.026-2.656.04-3.55a11.774,11.774,0,0,1,1.263-3.756s-.619-.907-1.568,1.038a23.132,23.132,0,0,0-1.242,2.9,42.111,42.111,0,0,0,.985-4.657c.1-1.237,2.626-10.119,4.922-17.817S12.718,3.031,14.046,1.37Z" transform="translate(0.448 250.225)" fill="#ca7740"/>
    <path id="Path_1510" data-name="Path 1510" d="M22.05,0C22.9,1.8,20.4,7.989,17.841,15.015c-2.567,7.011-7.9,13.374-11.458,18.533A32.481,32.481,0,0,1,0,40.687c0-.124.017-.263.026-.408.067-.795.066-1.882.065-2.994,2.593-3.417,8.059-10.9,12.2-15.849C16.813,16.058,22.05,0,22.05,0Z" transform="translate(2.857 257.364)" fill="#e5d7d1" opacity="0.31"/>
    <g id="Group_1656" data-name="Group 1656" transform="translate(0 0)">
      <path id="Path_1511" data-name="Path 1511" d="M42.1,192.489l-.485,1.078c-.636-.243-1.049-.363-1.106-.29a2.134,2.134,0,0,0,.217,2.259.613.613,0,0,1-.142,1.028,5.076,5.076,0,0,0-3.2,3.124c-.549,1.126,1.233,2.755-.231,3.054s-2.178,3.117-2.178,3.117S18.62,245.821,16.549,250.5a4.772,4.772,0,0,0-2.5,1.1c-1.329,1.661-5.217,12.622-7.512,20.321S1.709,288.5,1.612,289.732a42.079,42.079,0,0,1-.986,4.657,23.2,23.2,0,0,1,1.242-2.9c.949-1.945,1.568-1.039,1.568-1.039a11.777,11.777,0,0,0-1.263,3.756c-.066.894-.043,2.239-.04,3.55,0,1.112,0,2.2-.064,2.994-.009.144-.027.283-.026.407-.031,1.38.425,1.838-1.068,3.938A8.725,8.725,0,0,1,0,306.286a.149.149,0,0,1,.055-.011c.833-.113,5.348-3.394,8.857-6.562s11.664-18.123,17.673-26.926,4.9-14.779,4.9-14.779a15.661,15.661,0,0,0-1.092-1.915c4.037-7.234,23.568-40.981,23.568-40.981s1.78-2.3,1.114-3.636,1.714-.937,2.264-2.062a5.079,5.079,0,0,0,.49-4.447.613.613,0,0,1,.723-.745A2.134,2.134,0,0,0,60.462,203c.031-.126-.672-.572-1.721-1.162l.519-.987S76.7,174.913,82.4,159.48,149.92,6.4,149.92,6.4s1.06-1.984-1.358-4.1A9.669,9.669,0,0,0,146.5.834,9.686,9.686,0,0,0,144.066.11C140.908-.491,140,1.566,140,1.566S69.631,135.046,60.977,149.035,42.1,192.489,42.1,192.489Z" transform="translate(0.448 0)" fill="none"/>
      <path id="Path_1512" data-name="Path 1512" d="M.448,0c-.56.109-.634.617,0,0Z" transform="translate(0 306.286)" fill="none"/>
    </g>
    <path id="Path_1513" data-name="Path 1513" d="M0,0" transform="translate(27.285 254.355)" fill="#d6d6d6"/>
    <path id="Path_1514" data-name="Path 1514" d="M144.178.042c2.418,2.119,1.357,4.1,1.357,4.1S83.7,141.786,78.013,157.219s-23.136,41.375-23.136,41.375l-.52.987c1.049.59,1.752,1.036,1.721,1.162a2.135,2.135,0,0,1-1.913,1.22.612.612,0,0,0-.722.745,5.079,5.079,0,0,1-.49,4.447c-.549,1.125-2.931.724-2.264,2.062s-1.114,3.636-1.114,3.636-19.53,33.746-23.568,40.98a15.688,15.688,0,0,1,1.091,1.915s1.107,5.962-4.9,14.779c-6.009,8.8-14.156,23.763-17.674,26.926-.77.7-1.588,1.4-2.406,2.068-.009.4-.025.781-.052,1.106-.008.144-.027.284-.026.408-.031,1.38.425,1.838-1.068,3.938A8.835,8.835,0,0,1,0,306.163a.157.157,0,0,1,.054-.011c.833-.112,5.347-3.394,8.856-6.562s11.664-18.123,17.674-26.926,4.9-14.779,4.9-14.779a15.622,15.622,0,0,0-1.092-1.915c4.038-7.234,23.569-40.981,23.569-40.981s1.78-2.3,1.113-3.636,1.716-.937,2.264-2.062a5.073,5.073,0,0,0,.49-4.446.613.613,0,0,1,.724-.745,2.134,2.134,0,0,0,1.913-1.22c.031-.126-.671-.572-1.721-1.162l.52-.987S76.7,174.79,82.4,159.356,149.919,6.282,149.919,6.282s1.06-1.984-1.358-4.1A9.677,9.677,0,0,0,146.5.711,9.583,9.583,0,0,0,144.129,0Z" transform="translate(0.511 0.071)" opacity="0.13"/>
  </g>
</svg>
