<svg xmlns="http://www.w3.org/2000/svg" width="897.765" height="230.538" viewBox="0 0 897.765 230.538"><g transform="translate(-232.568 -409)"><g transform="translate(2.542 45.512)"><ellipse cx="52.905" cy="11.304" rx="52.905" ry="11.304" transform="translate(998.753 534.437)" fill="#bed5d9" opacity="0.4"/><g transform="translate(977.061 363.488)"><path d="M1070.311,381.241l-1.343-1.764c-1.454.134-1.895-1.06-2.557-1.958-2.423-3.281-3.818-7.073-5.208-10.853-.348.114-.6.119-.718.247-.708.761-1.388,1.549-2.075,2.331-6.9,7.847-14.161,15.194-23.559,20.209-7.91,4.221-15.071,9.631-22.153,15.137-9.7,7.543-16.652,16.827-18.946,29.108-.724,3.873-1.842,7.789-.8,12.764,2.609-5.009,5.027-9.131,6.96-13.47,4.5-10.105,12.421-15.769,22.822-18.676,7.426-2.076,14.879-1.281,22.346-.87a52.789,52.789,0,0,1,27.322,9.612,27.483,27.483,0,0,1,9.194,9.613c.9,1.713,1.666,1.841,3.006.932.3.877-.132,1.248-.38,1.683-6.7,11.763-9.185,24.227-6.009,37.544,2.207,9.255,11.906,15.992,21.211,14.717-2.026-3.35-3.986-6.726-4.437-10.559-1.838-15.632,1.7-30.081,10.826-42.844,4.144-5.791,9.328-10.927,17.717-9.18.083.017.228-.265.412-.491-2.765-3.472-6.548-5.377-10.644-6.653-5.638-1.758-10.154,1.008-14.687,3.939a12.656,12.656,0,0,1,8.006-5.508c2.613-.479,2.656-1.661,1.519-3.365-5.453-8.179-11.366-15.944-19.844-21.325a105.48,105.48,0,0,0-15-7.633C1072.082,383.405,1070.32,383.219,1070.311,381.241Z" transform="translate(-982.534 -364.613)" fill="#cf592f"/><path d="M1072.81,383.5a62.428,62.428,0,0,1,31.843,29.89,2.99,2.99,0,0,0,2.307,1.751c12.074,2.442,20.7,14.409,20.828,27.4a55.307,55.307,0,0,1-8.881,30.123c-7.822,12.527-19.773,20.746-37.076,12.356a2.359,2.359,0,0,0-2.607.126c-5.367,3.908-11.68,5.841-17.717,8.482.476,1.937,1.816,3.328,2.962,4.733,6.636,8.134,7.9,22.351-.546,33.217a2.61,2.61,0,0,0-.373,2.3c.436,3.084.83,6.176,1.161,9.273.123,1.151.175,2.38-1.62,2.325q-11.235-.34-22.472-.626c-1.052-.028-1.858-.3-1.9-1.539a2.226,2.226,0,0,1,1.577-2.409,6.052,6.052,0,0,1,2.473-.178c2,.255,2.334-.685,1.93-2.357-1-4.143-.924-8.776-5.307-11.355a2.422,2.422,0,0,1-.947-1.218c-.7-2.021-1.789-2.331-3.544-1.1-4.055,2.848-7.681-1.33-7.21-4.951a17.6,17.6,0,0,1,3.389-8.594,7.6,7.6,0,0,0,1.7-3.28c.6-3.484,1.159-6.977,1.838-10.446.284-1.453-.059-1.969-1.606-2.156a127.9,127.9,0,0,1-19.761-4.385c-10.816-3.084-19.809-8.522-25.329-18.737a5.392,5.392,0,0,0-1.714-1.75,17.719,17.719,0,0,1-7.023-9.647c-4.086-12.993-2.355-25.236,5.826-36.088a134.855,134.855,0,0,1,36.592-33.1c8.434-5.281,17.527-9.664,24.07-17.588,2.713-3.286,5.784-6.273,8.633-9.449,1.276-1.422,2.27-1.494,2.814.46,1.344,4.836,3.832,9.109,6.372,13.364-1.454.134-1.894-1.06-2.557-1.958-2.423-3.281-3.819-7.073-5.208-10.853-.348.114-.6.119-.718.247-.708.761-1.388,1.549-2.075,2.331-6.9,7.847-14.161,15.194-23.559,20.209-7.91,4.221-15.071,9.631-22.153,15.137-9.7,7.543-16.652,16.827-18.946,29.108-.724,3.873-1.842,7.789-.8,12.765,2.609-5.009,5.027-9.131,6.96-13.47,4.5-10.105,12.421-15.769,22.822-18.676,7.426-2.076,14.879-1.281,22.346-.87a52.79,52.79,0,0,1,27.322,9.612,27.482,27.482,0,0,1,9.194,9.613c.9,1.713,1.666,1.841,3.006.932,1.17.052-.132,1.248-.38,1.683-6.7,11.763-9.185,24.227-6.009,37.544,2.207,9.255,11.906,15.992,21.211,14.717-2.026-3.35-3.986-6.726-4.437-10.559-1.838-15.632,1.695-30.081,10.826-42.844,4.144-5.791,9.328-10.927,17.717-9.18.083.017.228-.265.412-.491-2.765-3.472-6.548-5.377-10.644-6.653-5.638-1.758-10.154,1.008-14.687,3.94a12.655,12.655,0,0,1,8.006-5.508c2.613-.479,2.656-1.661,1.519-3.365-5.453-8.179-11.366-15.944-19.844-21.325a105.486,105.486,0,0,0-15-7.633c-1.217-.524-2.978-.711-2.988-2.688Q1068.823,381.81,1072.81,383.5ZM983.219,433.58c-1,7.226-1.283,14.483.229,21.7a26.11,26.11,0,0,0,.861,2.524c.871-4.942,1.936-9.143,1.506-13.745-.615-6.579,1.047-12.986,3.285-19.194.526-1.46.988-2.943,1.479-4.416.266-.163.487-.345.129-.618-.023-.017-.243.224-.371.346C986.036,423.619,983.951,428.306,983.219,433.58Zm87.373,20.061a47.061,47.061,0,0,1,5.227-17.2c.728-1.356.337-2.3-.27-3.434a29.1,29.1,0,0,0-9.321-9.9c-12.586-8.868-26.876-10.786-41.681-9.682-9.593.715-18.557,4-24.4,12.1-5.886,8.165-10.754,17.117-13.365,26.9-3.414,12.8,4.194,27.317,17.108,33.459,9.083,4.319,18.827,6.525,28.717,7.989a25.751,25.751,0,0,1,11.233,4.289c1.047.731,1.715,1.068,2.667-.348,1.4-2.079,3.733-2.884,6.126-3.371,9.38-1.9,17.912-5.926,26.535-10.524C1069.316,475.6,1069.371,464.719,1070.591,453.642Zm23.657,30.2c1.461,2.233,3.114,3.055,5.991,2.279,9.425-2.542,15.106-9.144,19.25-17.328a64.114,64.114,0,0,0,6.7-21.239c.775-6.448.219-12.988-4.21-18.252-4.692-5.575-9.506-5.706-15.111-.979-6.594,5.561-10.291,12.971-13.013,20.885a60.474,60.474,0,0,0-3.454,19.035C1090.4,472.364,1090.715,478.44,1094.248,483.84ZM1062.037,544.1c2,.068,1.4-1.546,1.268-2.475-.565-4.012-1.3-8-1.959-12-.11-.667-.69-1.368.1-2.026,1.662.087.817,1.834,1.74,2.586a7.429,7.429,0,0,0,2.745-4.279c-5.706-.9-7.3-2.14-7.429-8-.1-4.619-.621-9.415-3.162-13.4-.323-.506-.687-1.111-.458-1.665.025-.059.066-.123.13-.128a.193.193,0,0,1,.123.054,4.624,4.624,0,0,1,1.142,1.215,18.736,18.736,0,0,1,1.116,2.068c.4.932,1.162.94,2.064.525.736-.339.384,1.208.359,1.837-.141,3.64-.447,7.276.221,10.9a8.336,8.336,0,0,0,1.242,3.494,3.3,3.3,0,0,0,5.943-.741,21.284,21.284,0,0,0,.877-11.976,33.485,33.485,0,0,0-6.625-13.977c-.975-1.3-1.981-1.927-3.7-1.4-2.378.728-4.831,1.213-7.254,1.793-1.4.335-2.825,1.066-3.03,2.413-.547,3.585-1.855,1.851-3.475.838s-3.653-2.966-5.209-2.087c-1.436.811-.761,3.4-.436,5.192.382,2.109-.353,4.659,1.953,6.3.176.126-.184,1.153-.427,1.7-5.188,11.761.715,19.414,11.7,20.359.266.023.512.274.805.44-1.987,1.03-1.987,1.03-7.788-.609.665,3.256,1.338,6.348,1.9,9.458.166.913.3,1.072,1.326.884,4.871-.888,4.873-.822,4.051-5.837a2.26,2.26,0,0,1,.419-2.309c1.424,2.3,1.673,4.885,2.26,7.3.375,1.549-1.177,1.371-2.11,1.608-1.4.356-3.043-.293-5.108,1.319C1052.822,543.722,1057.429,543.947,1062.037,544.1Zm-28.592-32.864c-.181.969-.246,1.717-1.606,2.218-2.338.862-3.578,7.555-2.072,9.521A2.882,2.882,0,0,0,1033.12,524c1.563-.512,3.2-1.23,3.615-3.054,1.327-5.78,1.045-17.622-.547-24.621C1035.244,501.47,1034.354,506.357,1033.445,511.24ZM980.78,437.993c-4.646,6.576-1.6,24.489,5,29.686C981.544,458.336,980.474,448.48,980.78,437.993Zm64.535,105.562c.531.04,1.072-.134,1.053-.826-.019-.708-.578-.78-1.1-.707-1.218.172-2.5-.144-3.985.238a.531.531,0,0,0,.021,1.029A21.817,21.817,0,0,0,1045.315,543.555Zm-64-107.873c.085-.159.237-.318.237-.477s-.156-.309-.244-.463l-.268.482Z" transform="translate(-977.061 -363.488)" fill="#383130"/><path d="M1057.509,521.633c-2.393.487-4.728,1.292-6.126,3.371-.951,1.416-1.619,1.078-2.667.348a25.749,25.749,0,0,0-11.232-4.289c-9.89-1.464-19.634-3.669-28.717-7.989-12.914-6.142-20.522-20.658-17.108-33.459,2.611-9.787,7.479-18.739,13.365-26.9,5.843-8.1,14.806-11.384,24.4-12.1,14.805-1.1,29.1.815,41.681,9.682a29.1,29.1,0,0,1,9.321,9.9c.607,1.129,1,2.077.27,3.434a47.06,47.06,0,0,0-5.227,17.2c-1.221,11.077-1.276,21.957,8.575,30.276C1075.421,515.707,1066.889,519.728,1057.509,521.633Zm-46.8-45.833a7.141,7.141,0,0,0,7.358-6.92c.037-4.036-2.839-6.922-7.106-7.128-4.328-.209-7.152,2.34-7.327,6.616A7,7,0,0,0,1010.712,475.8Zm40.458-3.665a7.216,7.216,0,1,0,14.431.153c.085-3.9-2.995-6.915-7.184-7.029A6.8,6.8,0,0,0,1051.17,472.135Zm-3.514,15.928c.641-.214,1.765-.337,1.482-1.226-.43-1.345-1.4-.251-2.037-.05-7.9,2.511-15.825,3.53-23.848.631-1.338-.483-2.81-.887-3.439-2.448-.186-.458-.518-1.065-1.123-.655-.731.5-.25,1.124.124,1.594a8.844,8.844,0,0,0,3.744,2.729,22.049,22.049,0,0,0,8.72,1.719A43.091,43.091,0,0,0,1047.656,488.063Z" transform="translate(-981.937 -390.679)" fill="#e2e3e4"/><path d="M1155.927,482.858c2.722-7.913,6.419-15.324,13.013-20.885,5.6-4.727,10.419-4.6,15.111.979,4.429,5.263,4.985,11.8,4.21,18.252a64.112,64.112,0,0,1-6.7,21.239c-4.144,8.184-9.825,14.786-19.25,17.328-2.877.776-4.53-.046-5.991-2.279-3.533-5.4-3.844-11.476-3.845-15.6A60.474,60.474,0,0,1,1155.927,482.858Zm8.227,24.155c1.491,3.463,4.2,4.3,7.157,1.983,6.771-5.3,10.416-12.518,12.383-20.688.523-2.176,1.232-4.319.487-6.711-1.352-4.347-4.739-5.578-8.221-2.612a34.3,34.3,0,0,0-10.654,16.5c-.747,2.46-1.853,4.877-1.6,7.411A8.242,8.242,0,0,0,1164.154,507.013Z" transform="translate(-1039.132 -397.14)" fill="#414142"/><path d="M1080.57,615.254c5.473.235,10.079.461,14.688.618,2,.068,1.4-1.546,1.268-2.475-.565-4.012-1.3-8-1.959-12-.11-.667-.69-1.368.1-2.026,1.662.087.817,1.834,1.74,2.586a7.428,7.428,0,0,0,2.745-4.279c-5.706-.9-7.3-2.14-7.429-8-.11-5.121-.385-9.812-3.377-14.082a1.936,1.936,0,0,1-.238-1.048c1.414.213,1.853,6.023,4.473,3.906.63-.509.48,1.1.455,1.734-.141,3.64-.447,7.276.221,10.9a8.332,8.332,0,0,0,1.242,3.494,3.3,3.3,0,0,0,5.943-.741,21.283,21.283,0,0,0,.877-11.976,33.485,33.485,0,0,0-6.625-13.977c-.975-1.3-1.981-1.927-3.7-1.4-2.378.728-4.831,1.214-7.254,1.793-1.4.335-2.825,1.066-3.03,2.413-.547,3.585-1.855,1.851-3.475.838s-3.653-2.966-5.209-2.087c-1.436.811-1.14,3.446-.815,5.236.381,2.617.025,4.825,2.333,6.254.184.114-.184,1.153-.427,1.7-5.188,11.761.715,19.414,11.7,20.359.265.023.512.274.8.44-1.987,1.03-1.987,1.03-7.788-.609.665,3.257,1.338,6.348,1.9,9.458.166.913.3,1.072,1.326.884,4.871-.888,4.873-.822,4.051-5.837a2.76,2.76,0,0,1,.008-1.694.424.424,0,0,1,.76,0c1.121,2.144,1.376,4.485,1.911,6.691.375,1.549-1.177,1.37-2.11,1.608C1084.277,614.291,1082.636,613.641,1080.57,615.254Z" transform="translate(-1010.281 -435.256)" fill="#cf592f"/><path d="M1064.691,569.077c-.943,5.142-1.833,10.029-2.742,14.912-.181.969-.245,1.717-1.606,2.218-2.338.862-3.578,7.555-2.072,9.521a2.882,2.882,0,0,0,3.354,1.023c1.563-.512,3.2-1.23,3.614-3.054C1066.566,587.917,1066.283,576.076,1064.691,569.077Z" transform="translate(-1005.564 -436.237)" fill="#cf592f"/><path d="M993.254,451.221c-4.3,3.443-6.385,8.13-7.117,13.4-1,7.226-1.283,14.483.229,21.7a26.11,26.11,0,0,0,.861,2.524c.871-4.942,1.936-9.143,1.506-13.745-.615-6.579,1.047-12.986,3.285-19.194.526-1.46.988-2.943,1.479-4.416Q993.374,451.358,993.254,451.221Z" transform="translate(-979.979 -394.533)" fill="#cf592f"/><path d="M986.6,508.481c-4.241-9.343-5.311-19.2-5-29.686C976.947,485.371,980,503.284,986.6,508.481Z" transform="translate(-977.874 -404.29)" fill="#414142"/><path d="M1075.23,640.265a.3.3,0,0,0,.016.565c1.8.646,3.295.376,4.743.487.531.04,1.072-.134,1.053-.826-.019-.708-.578-.78-1.1-.707C1078.533,639.983,1077.026,639.525,1075.23,640.265Z" transform="translate(-1011.734 -461.249)" fill="#cf592f"/><path d="M983.216,474.246l.275.458c.085-.159.237-.318.237-.477s-.156-.309-.244-.463Z" transform="translate(-979.239 -402.51)" fill="#414142"/><path d="M997.848,451.3c.266-.164.486-.345.129-.618-.023-.017-.243.224-.372.345Q997.726,451.168,997.848,451.3Z" transform="translate(-984.331 -394.344)" fill="#cf592f"/><path d="M1017.966,473.477c4.267.207,7.144,3.092,7.106,7.128a7.141,7.141,0,0,1-7.358,6.92,7,7,0,0,1-7.075-7.431C1010.814,475.818,1013.638,473.268,1017.966,473.477Zm-.538,11.368c2.832.155,4.639-1.342,4.841-4.011.217-2.857-1.46-4.714-4.376-4.845a4.236,4.236,0,0,0-4.683,4.212A4.182,4.182,0,0,0,1017.428,484.846Z" transform="translate(-988.94 -402.404)" fill="#383130"/><path d="M1098.638,485.938a7.216,7.216,0,1,1-14.431-.152,6.8,6.8,0,0,1,7.247-6.877C1095.643,479.023,1098.724,482.037,1098.638,485.938Zm-7.524,4.41c2.746.174,4.863-1.529,4.959-3.992a4.856,4.856,0,0,0-4.518-5.018,4.643,4.643,0,0,0-4.79,4.324A4.356,4.356,0,0,0,1091.114,490.348Z" transform="translate(-1014.975 -404.329)" fill="#383130"/><path d="M1046.322,514.371a43.091,43.091,0,0,0,16.377-2.294c.642-.214,1.765-.337,1.482-1.226-.43-1.345-1.4-.251-2.037-.05-7.9,2.511-15.825,3.53-23.848.631-1.338-.483-2.809-.886-3.439-2.448-.186-.458-.518-1.065-1.123-.655-.731.5-.25,1.124.124,1.594a8.843,8.843,0,0,0,3.744,2.729A22.051,22.051,0,0,0,1046.322,514.371Z" transform="translate(-996.98 -414.693)" fill="#383130"/><path d="M1171.422,505.764a34.3,34.3,0,0,1,10.654-16.5c3.482-2.966,6.869-1.735,8.221,2.612.744,2.392.036,4.535-.487,6.711-1.966,8.17-5.612,15.391-12.383,20.688-2.959,2.314-5.666,1.48-7.157-1.983a8.24,8.24,0,0,1-.45-4.12C1169.569,510.641,1170.675,508.224,1171.422,505.764Zm1.587,12.489c1.133,1.3,3,.379,4.2-.665,7.594-6.557,11.262-14.987,11.589-24.922.057-1.735-.171-1.849-2.31-3.382a29.849,29.849,0,0,1-3.2,15.178,39.13,39.13,0,0,1-7.06,10.213c-.438.448-.784.992-1.533.834-.335-1.662,1.189-2.22,1.957-3.193,4.728-6,8.16-12.525,8.48-20.349.028-.691.382-1.6-.305-2.028-.862-.54-1.62.238-2.183.755a33.292,33.292,0,0,0-11.139,23.585c-.176,3.455,2.415.063,3.2,1.217C1174.67,516.8,1171.9,516.982,1173.009,518.253Z" transform="translate(-1045.247 -407.422)" fill="#383130"/><path d="M1014.616,481.581a4.182,4.182,0,0,0,4.218,4.644c2.832.155,4.639-1.342,4.841-4.011.217-2.857-1.46-4.714-4.376-4.845A4.236,4.236,0,0,0,1014.616,481.581Z" transform="translate(-990.346 -403.783)" fill="#fdfdfd"/><path d="M1088.161,486.989a4.356,4.356,0,0,0,4.349,4.686c2.746.174,4.863-1.529,4.958-3.992a4.856,4.856,0,0,0-4.518-5.018A4.643,4.643,0,0,0,1088.161,486.989Z" transform="translate(-1016.37 -405.657)" fill="#fdfdfd"/><path d="M1175.659,516.666c-.335-1.662,1.189-2.22,1.957-3.193,4.729-6,8.16-12.525,8.48-20.349.028-.691.382-1.6-.305-2.028-.862-.54-1.62.238-2.183.755a33.292,33.292,0,0,0-11.139,23.585c-.176,3.455,2.415.063,3.2,1.217Z" transform="translate(-1046.205 -408.578)" fill="#8d8f91"/><path d="M1176.356,516.395c-.047,1.308-2.813,1.486-1.708,2.757,1.133,1.3,3,.379,4.2-.665,7.594-6.557,11.262-14.987,11.589-24.922.057-1.735-.171-1.849-2.31-3.382a29.849,29.849,0,0,1-3.2,15.178,39.131,39.131,0,0,1-7.06,10.213c-.438.448-.784.992-1.533.834Z" transform="translate(-1046.886 -408.32)" fill="#8d8f91"/></g></g><g transform="translate(47.013 30.368)"><ellipse cx="54.099" cy="11.559" rx="54.099" ry="11.559" transform="translate(212.909 551.96)" fill="#bed5d9" opacity="0.4"/><g transform="translate(185.987 398.133)"><path d="M329.341,497.974a35.678,35.678,0,0,1-9.205,11.688,8.241,8.241,0,0,0-2.663,3.567c-1.4,4.077-3.616,8.148-6.815,10.5-4.047,2.977-6.546,7.636-11.267,9.7-.666.291-1.28,1.177-1.973.819-1.061-.548-.013-1.52-.131-2.3-.041-.268-.083-.536-.178-1.154a47.576,47.576,0,0,1-16.915,7.161c2.708,2.178,2.8,6.005,6.3,7.057.2.059.476.552.408.675-.844,1.547-1.132,3.416-2.438,4.679-1.2,1.161-2.595.708-3.881.055-.8-.406-1.536-.93-2.472-1.507-.76,1.548-.179,3.029.08,4.391.664,3.487.642,7.131,2.275,10.413.767,1.542-.378,2.13-1.5,2.433a10.169,10.169,0,0,1-4.191.628c-3.559-.638-7.08.011-10.613-.1-1.981-.06-2.922-.558-2.71-3.068a60.941,60.941,0,0,0-.369-11.355c-.248-2.377-1.234-2.593-3-1.1-2.717,2.3-4.044,1.818-5.928-1.066-1.359-2.081-1.694-3.035.509-4.86,1.576-1.306,2.071-3.916,3.154-6.165A83.993,83.993,0,0,1,238.9,535.2c.13,3.735,3.316,3.754,5.514,5.035-4.013,1.424-9.343.258-11.791-3.448-2.308-3.495-6.256-4.463-8.921-7.224a.919.919,0,0,0-1.289-.048c-1.366,1.211-1.354,1.226-2.679.113-5.289-4.441-9.268-9.7-10.34-16.738a4.485,4.485,0,0,0-2.3-2.981c-5.008-3.012-7.508-8.066-10.749-12.522,1.686-.665,2.188.774,2.786,1.725a42.26,42.26,0,0,0,4.654,5.717c1.06,1.173,1.7.974,2.071-.461,1.1-4.284.831-8.481-1.6-12.224a45.03,45.03,0,0,1-4.368-7.607,12.981,12.981,0,0,0-7.07-7c-1.071-.5-2.428-1.555-3.331-.768-.847.737.478,2,.635,3.077.4,2.739,2.777,5.047,1.763,8.095-2.848-5.148-4.211-10.824-5.763-16.423-.486-1.752.477-2.439,2.224-2.109,7.656,1.446,14.147,4.753,18.487,11.517a1.3,1.3,0,0,0,.159.235c.921.9,1.573,2.707,2.908,2.376,1.318-.327.663-2.107.762-3.235.47-5.357,1.157-10.635,3.3-15.662,1.547-3.639,4.208-6.425,6.568-9.459.975-1.251,1.777-2.64,2.783-3.863,1.933-2.354,4.457-4.024,6.887-5.815,6.51-4.8,13.249-9.238,20.084-13.56,10.352-6.547,15.433-16.184,15.851-28.35.055-1.594.008-3.193.008-5.456,4.873,4.545,7.18,10.082,9.822,16.1.2-1.621.326-2.612.46-3.69,1.371.449,1.24,1.565,1.59,2.357,2.4,5.405,4.286,11.158,8.062,15.742,2.814,3.416,5.686,6.917,9.58,9.38,3.8,2.406,6.122,6.3,8.948,9.7,6.123,7.359,10.187,15.833,13.848,24.548.883,2.1,1.536,4.3,2.408,6.777a23.382,23.382,0,0,1,10.656-7.759c2.3-.811,4.7-1.327,7.074-1.924,2.075-.523,2.379.186,1.845,2.2a144.433,144.433,0,0,1-6.6,18.984c-2.213.372-.947-.971-.72-1.6,1.493-4.153,3.047-8.284,4.737-12.841-4.431,1.348-8.391,2.669-10.347,6.81-1.584,3.353-3.665,6.392-5.458,9.6-2.4,4.3-2.445,8.893-.706,13.72a44.411,44.411,0,0,0,5.9-6.944C327.706,498.649,327.862,497.158,329.341,497.974ZM225.877,511.836l-.364.743a8.748,8.748,0,0,0,.245,1.371,21.808,21.808,0,0,0,10.353,12.094,69.7,69.7,0,0,0,23.125,8,46.926,46.926,0,0,0,18.91-.867c9.785-2.367,18.355-6.667,23.356-16.055.61-1.144,1.418-2.274,1.216-3.937-2.035,1.192-3,3.216-4.922,4.1-.417.192-.779.684-1.25.419-.615-.346-.488-1-.242-1.506,1.4-2.877,1.638-6.036,1.865-9.106.341-4.611-.128-9.437-3.685-12.681-5.947-5.425-13.5-7.621-21.438-9.263,1.236,2.733,3.886,3.734,5.191,5.941.315.534,1.041,1.055.624,1.733-.482.782-1.238.17-1.8,0-11.976-3.6-23.954-7.2-35.886-10.946-.984-.309-1.181-.279-1.668.492a49.915,49.915,0,0,0-5.472,10.886c-2.049,6.15-.862,12.222.369,18.228.63,3.074,3.267,4.333,6.49,4.341C234.753,519.03,229.948,517,225.877,511.836Zm37.757,37.935a4.763,4.763,0,0,0,4.906,5.135c3.058.016,6.9-2.267,6.963-4.139.165-4.835-2.569-8.233-6.641-8.259C265.286,542.487,263.677,544.722,263.634,549.771Zm7.316,12.579c-.2-1.818.784-3.519.517-5.283-.083-.544-.094-1.646-1.233-1.566-1.284.091-.9,1.1-.753,1.7C269.89,558.918,269.809,560.767,270.951,562.35Z" transform="translate(-185.987 -398.133)" fill="#a02330" stroke="#363636" stroke-miterlimit="10" stroke-width="0.856"/><path d="M193.523,528.167c1.014-3.047-1.367-5.355-1.764-8.095-.157-1.079-1.482-2.34-.635-3.077.9-.786,2.26.265,3.331.768a12.981,12.981,0,0,1,7.07,7,45.031,45.031,0,0,0,4.368,7.607c2.434,3.742,2.7,7.939,1.6,12.224-.368,1.435-1.01,1.634-2.071.461a42.269,42.269,0,0,1-4.654-5.717c-.6-.95-1.1-2.389-2.786-1.724C196.378,534.52,193.8,531.888,193.523,528.167Z" transform="translate(-187.635 -438.363)" fill="#979797"/><path d="M398.214,538.015c-1.479-.817-1.635.675-2.107,1.329a44.41,44.41,0,0,1-5.9,6.944c-1.738-4.827-1.7-9.415.706-13.72,1.793-3.213,3.874-6.251,5.458-9.6,1.956-4.141,5.916-5.462,10.347-6.81-1.69,4.557-3.244,8.688-4.737,12.841-.227.628-1.493,1.971.72,1.6-.343,2.6-2.232,4.282-3.685,6.223-.309-.187-.61-.305-.9.036a.665.665,0,0,0,.083,1.088Z" transform="translate(-254.86 -438.174)" fill="#979797"/><path d="M402.75,548.458a.665.665,0,0,1-.083-1.088c.294-.342.595-.223.9-.036C403.281,547.7,403.529,548.453,402.75,548.458Z" transform="translate(-259.417 -448.69)" fill="#a02330"/><path d="M246.173,554.74c4.071,5.168,8.876,7.194,15.018,3.983-3.223-.008-5.86-1.267-6.49-4.341-1.231-6.006-2.418-12.078-.369-18.228a49.917,49.917,0,0,1,5.472-10.886c.488-.77.684-.8,1.668-.492,11.932,3.745,23.91,7.344,35.886,10.946.559.169,1.315.78,1.8,0,.418-.679-.309-1.2-.624-1.733-1.3-2.207-3.955-3.208-5.191-5.941,7.941,1.643,15.492,3.839,21.438,9.263,3.557,3.245,4.026,8.07,3.685,12.681-.227,3.07-.463,6.229-1.865,9.106-.245.5-.372,1.16.242,1.506.471.265.833-.227,1.25-.419,1.922-.883,2.887-2.907,4.922-4.1.2,1.664-.607,2.793-1.216,3.937-5,9.388-13.571,13.688-23.356,16.055a46.926,46.926,0,0,1-18.91.867,69.7,69.7,0,0,1-23.125-8,21.807,21.807,0,0,1-10.353-12.094,8.747,8.747,0,0,1-.245-1.371Zm28.206-3.975a1.472,1.472,0,0,0,1.541-1.307,1.522,1.522,0,0,0-1.411-1.806,47.338,47.338,0,0,0-5.655-.568c-1.432-.032-2.86-3.652-4.309-.053a1.885,1.885,0,0,1-.505-.229c-.645-.562-1.478-.907-1.954-.089-.573.984.516,1.9.584,2.932.059.916.879,1.24,1.7,1.07A28.312,28.312,0,0,1,274.379,550.765Zm29.07-4.247a8.1,8.1,0,0,0-4.5.813,1.725,1.725,0,0,0-1.008,2.114,1.308,1.308,0,0,0,1.756,1.006c2.884-1.216,5.717-.64,8.609-.076,1.432.279,3.7-3.1,3.1-4.426-.3-.662-1.048-.87-1.359-.467-.806,1.044-1.3,1.36-2.064-.029a.813.813,0,0,0-1.423.115C305.882,546.987,304.7,546.484,303.449,546.518Zm-6.7,15.173c-4.187,3.46-9.254,3.283-14.3,3.189C287.783,566.166,292.783,566.067,296.748,561.691Z" transform="translate(-206.283 -441.037)" fill="#e1e2e3"/><path d="M303.5,623.9c.043-5.049,1.652-7.285,5.228-7.263,4.072.025,6.806,3.424,6.641,8.259-.064,1.872-3.9,4.156-6.963,4.139A4.763,4.763,0,0,1,303.5,623.9Z" transform="translate(-225.857 -472.265)" fill="#e1e2e3"/><path d="M313.737,643.152c-1.142-1.584-1.06-3.432-1.468-5.148-.143-.6-.532-1.61.753-1.7,1.139-.08,1.15,1.021,1.233,1.566C314.52,639.633,313.534,641.334,313.737,643.152Z" transform="translate(-228.773 -478.935)" fill="#e1e2e3"/><path d="M282.651,561.468a28.312,28.312,0,0,0-10.007-.049c-.823.17-1.643-.155-1.7-1.07-.068-1.036-1.157-1.948-.584-2.932.476-.818,1.31-.473,1.954.089a1.886,1.886,0,0,0,.505.229c1.449-3.6,2.876.021,4.309.053a47.351,47.351,0,0,1,5.655.568,1.522,1.522,0,0,1,1.411,1.806A1.472,1.472,0,0,1,282.651,561.468Z" transform="translate(-214.555 -451.74)" fill="#202020"/><path d="M330.176,557.037c1.251-.033,2.433.47,3.115-.951a.813.813,0,0,1,1.423-.115c.764,1.389,1.258,1.073,2.064.029.311-.4,1.059-.195,1.359.467.6,1.325-1.671,4.706-3.1,4.426-2.892-.564-5.725-1.14-8.609.076a1.308,1.308,0,0,1-1.756-1.006,1.725,1.725,0,0,1,1.008-2.114A8.1,8.1,0,0,1,330.176,557.037Z" transform="translate(-233.01 -451.557)" fill="#202020"/><path d="M315.562,580.739c-3.965,4.376-8.965,4.476-14.3,3.189C306.308,584.022,311.375,584.2,315.562,580.739Z" transform="translate(-225.096 -460.085)" fill="#363636"/></g></g><g transform="translate(30.219 30.369)"><ellipse cx="50.486" cy="10.787" rx="50.486" ry="10.787" transform="translate(599.629 587.595)" fill="#bed5d9" opacity="0.4"/><g transform="translate(573.448 443.748)"><g transform="translate(63.866 138.055)"><path d="M679.754,669.029a55.612,55.612,0,0,0-.562,9.428c.241,4.041.258,6.566.258,6.566s-1.464.842-1.464,1.852h14.3s.994-4.377-1.994-5.219,0-8.418,0-8.418Z" transform="translate(-677.394 -668.176)" fill="#948479"/><path d="M677.026,686.345a3.029,3.029,0,0,1,1.46-2.2c-.015-.823-.067-3.057-.253-6.185a55.511,55.511,0,0,1,.568-9.563l.113-.757,11.792,4.71-.232.589c-.551,1.4-1.813,5.379-1.048,7a.988.988,0,0,0,.654.578c2.8.789,2.806,4.245,2.416,5.962l-.109.477H677.026Zm12.745-4.619a2.195,2.195,0,0,1-1.408-1.228c-.954-2.026.249-5.9.794-7.433l-9.288-3.71a51.871,51.871,0,0,0-.453,8.533c.239,4.011.26,6.575.26,6.6l0,.369-.308.179a3.657,3.657,0,0,0-.842.688h12.9C691.567,684.679,691.675,682.262,689.771,681.726Z" transform="translate(-677.026 -667.645)" fill="#37322d"/></g><g transform="translate(79.85 138.147)"><path d="M712.455,669.029a24.394,24.394,0,0,1,3.9,8.923,21.265,21.265,0,0,1,.054,7.072s1.364.842,1.364,1.852H704.446s-1.8-4.714.979-5.556-.482-8.25-.482-8.25Z" transform="translate(-703.302 -668.267)" fill="#948479"/><path d="M703.562,686.624c-.047-.124-1.154-3.062-.274-4.949a2.529,2.529,0,0,1,1.625-1.4.823.823,0,0,0,.538-.5c.681-1.561-.766-5.527-1.381-6.924l-.229-.522,8.424-4.531.29.4a24.742,24.742,0,0,1,4.006,9.182,22.523,22.523,0,0,1,.12,6.9,2.97,2.97,0,0,1,1.307,2.132v.6H703.706Zm12.2-1.558-.354-.22.084-.42a20.879,20.879,0,0,0-.057-6.842,23.455,23.455,0,0,0-3.51-8.26l-6.595,3.547c.6,1.476,2.029,5.407,1.16,7.4a1.984,1.984,0,0,1-1.26,1.153,1.4,1.4,0,0,0-.915.778,5.87,5.87,0,0,0,.179,3.6h12.089A3.5,3.5,0,0,0,715.762,685.066Z" transform="translate(-702.949 -667.794)" fill="#37322d"/></g><g transform="translate(61.872 117.114)"><path d="M676.715,639.886a15.1,15.1,0,0,0-1.607,10.438c1.641,6.956,6.226,9.9,8.034,10.607,1.31.512,12.048,3.371,17.354-1.852,3.134-3.086,3.426-7.46,3.535-9.092.266-3.992-.887-8.476-3.374-11.281C695.958,633.41,685.542,633.032,676.715,639.886Z" transform="translate(-674.162 -634.086)" fill="#948479"/><path d="M682.565,661.109c-2.372-.927-6.811-4.3-8.4-11.04a15.573,15.573,0,0,1,1.668-10.9l.062-.113.1-.078c9.528-7.4,20.055-6.371,24.728-1.1,2.476,2.791,3.829,7.291,3.531,11.746-.114,1.709-.417,6.249-3.721,9.5-2.57,2.531-6.329,3.269-9.768,3.269A26.549,26.549,0,0,1,682.565,661.109ZM676.8,639.9a14.25,14.25,0,0,0-1.485,9.868c1.473,6.242,5.512,9.332,7.667,10.175,1.667.652,11.837,3.1,16.741-1.723,2.965-2.919,3.245-7.106,3.35-8.683.271-4.061-.992-8.306-3.217-10.814-2.078-2.342-5.566-3.745-9.631-3.745A22.245,22.245,0,0,0,676.8,639.9Z" transform="translate(-673.791 -633.682)" fill="#37322d"/></g><g transform="translate(14.878 0.625)"><path d="M597.581,507.786c.25-21.123,12.924-36.38,16.068-39.958,3.742-4.259,12.8-14.295,27.637-17.735a45.677,45.677,0,0,1,12.426-1.122l.429,14.591a28.746,28.746,0,0,1,9-13.02c9.174-7.364,19.687-5.729,21.639-5.388l-6.856,19.531a20.33,20.33,0,0,1,6-7.408,19.447,19.447,0,0,1,12.854-3.816q-.856,6.847-1.714,13.693A110.133,110.133,0,0,1,706.2,481.3c2.976,4.488,6.419,9.678,8.784,15.939.992,2.625,7.735,21.314-.643,40.183-4.258,9.59-10.668,15.276-15.211,19.306A54.346,54.346,0,0,1,682.421,567.5c-9.018,3.542-16.456,3.267-25.923,2.918-9.6-.355-17.447-.644-26.995-4.715-5.686-2.424-15.757-6.717-22.281-17.285-3.178-5.148-4.276-9.777-6.427-18.857C599.121,522.5,597.488,515.61,597.581,507.786Z" transform="translate(-597.577 -444.761)" fill="#948479"/></g><g transform="translate(14.201)"><path d="M663.8,570.812c-2.472,0-5.022-.094-7.736-.194-10.584-.391-21.167-1.409-30.9-6.127a48.074,48.074,0,0,1-17.412-14.407c-4.611-6.157-6.148-13.29-7.92-20.768-1.64-6.923-3.964-14.769-3.034-21.97-.289-.088-.329-.493-.31-.808,1.441-23.682,16.15-45.921,37.412-54.54q.983-.4,1.981-.758a72.653,72.653,0,0,1,15.961-3.322,17.4,17.4,0,0,1,2.213.035s.022,3.848-.065,5.38c-.056,1-.43,3.814.393,4.592,1.224,1.157,5.787-6.641,7.04-7.737,6.21-5.432,15.022-7.4,23.032-6l.667.117s-4.729,11.627-4.84,13.721a37.262,37.262,0,0,1,7.311-4.1,19.849,19.849,0,0,1,8.8-1.435l.6.038-1.757,14.038c4.017,4.339,8.375,8.386,11.665,13.346a85.841,85.841,0,0,1,8.188,16.724,55.582,55.582,0,0,1,.336,37.576c-3.383,9.909-11.043,18.776-19,25C686.777,566.761,675.84,570.812,663.8,570.812ZM651.157,449.122a45,45,0,0,0-10.17,1.158c-14.967,3.47-23.96,13.705-27.345,17.558-4.71,5.361-15.688,19.948-15.919,39.567-.092,7.747,1.505,14.486,3.2,21.621,1.95,8.231,3.754,15.886,9.2,22.4,11.724,14.027,29.043,17.388,45.976,18.012,9.388.347,16.8.619,25.709-2.881,10.429-4.1,20.183-12.481,26.826-21.775,9.692-13.558,11.325-32.072,5.413-47.72-2.342-6.2-5.732-11.31-8.723-15.82a109.82,109.82,0,0,0-11.082-14.068l-.19-.2,1.669-13.34a18.769,18.769,0,0,0-11.889,3.734,19.753,19.753,0,0,0-5.825,7.2l-1.03-.468,6.618-18.853c-3.484-.5-12.584-1-20.531,5.381a23.649,23.649,0,0,0-5.493,6.78c-.607,1.053-4.182,8.747-4.182,8.747s-.342-6.879-.372-7.9q-.133-4.549-.267-9.1Q651.951,449.122,651.157,449.122Z" transform="translate(-596.479 -443.748)" fill="#37322d"/></g><g transform="translate(0 63.937)"><path d="M598.554,581.655c-6.2-2.429-13.772-6.661-19.269-14-.538-.692-1.044-1.416-1.52-2.156-1.827-2.88-4.3-6.837-2.994-10.554,1.366-3.893,6.08-5.245,8.138-5.84,6.434-1.85,12.1.628,14.356,1.8.062,1.352.108,2.7.17,4.054Q597.986,568.31,598.554,581.655Z" transform="translate(-573.815 -547.825)" fill="#948479"/><path d="M597.98,581.852c-8.351-3.271-14.921-8.047-19.522-14.187-.523-.674-1.046-1.414-1.554-2.2-1.784-2.812-4.48-7.061-3.057-11.112,1.467-4.179,6.406-5.608,8.537-6.224,6.294-1.81,11.96.379,14.776,1.844l.311.163.017.364q.046,1.016.084,2.032c.027.673.054,1.348.084,2.025q.277,6.666.56,13.333t.561,13.357l.039.937Zm-15.3-32.525c-1.934.56-6.462,1.869-7.719,5.45-1.215,3.46,1.181,7.238,2.929,9.993.486.755.987,1.466,1.495,2.119,4.316,5.761,10.426,10.286,18.172,13.464q-.258-6.207-.522-12.412-.282-6.668-.56-13.331-.046-1.015-.084-2.03-.033-.828-.068-1.657A19.094,19.094,0,0,0,582.679,549.328Z" transform="translate(-573.448 -547.441)" fill="#37322d"/></g><g transform="translate(122.546 46.579)"><path d="M799.964,543.546a66.265,66.265,0,0,1-5.359,6.885,51.707,51.707,0,0,1-15.646,12.34,82.474,82.474,0,0,0-1.075-22.443c-.461-2.478-1.014-4.794-1.6-6.95a83.142,83.142,0,0,0-2.9-8.542c7.815-5.47,17.027-6.1,23.139-1.577.906.675,5.466,4.2,6.218,10.1C803.219,537.11,801.975,540.392,799.964,543.546Z" transform="translate(-772.65 -519.659)" fill="#948479"/><path d="M777.912,562.343a81.875,81.875,0,0,0-1.067-22.267c-.416-2.236-.934-4.493-1.583-6.893a82.771,82.771,0,0,0-2.88-8.477l-.19-.472.407-.285c7.97-5.577,17.539-6.207,23.811-1.566a16.17,16.17,0,0,1,6.462,10.527c.441,3.474-.472,6.845-2.874,10.611h0a64.9,64.9,0,0,1-5.286,6.81l-.123.145a52.3,52.3,0,0,1-15.824,12.482l-.95.491Zm21.1-19.513c2.232-3.5,3.085-6.6,2.684-9.757a14.917,14.917,0,0,0-5.972-9.678c-5.77-4.268-14.581-3.73-22.061,1.306a84.57,84.57,0,0,1,2.735,8.137c.661,2.44,1.186,4.731,1.608,7a83.05,83.05,0,0,1,1.175,21.507,50.973,50.973,0,0,0,14.522-11.7l.121-.143a63.88,63.88,0,0,0,5.188-6.675Z" transform="translate(-772.192 -519.289)" fill="#37322d"/></g><g transform="translate(5.47 71.076)"><g transform="translate(0.764 0.774)"><path d="M601.4,585.219q-.256-6.177-.519-12.355-.266-6.295-.529-12.589a24.32,24.32,0,0,0-11.8,5.775,25.7,25.7,0,0,0-4.986,6.094A42.239,42.239,0,0,0,601.4,585.219Z" transform="translate(-583.558 -560.274)" fill="#cd4239"/></g><path d="M599.277,560.586q.246,5.919.5,11.839.239,5.66.476,11.321a41.387,41.387,0,0,1-16.4-12.133,24.944,24.944,0,0,1,4.621-5.545,23.607,23.607,0,0,1,10.8-5.483m1.191-1.567a25.164,25.164,0,0,0-12.806,6.049,26.431,26.431,0,0,0-5.344,6.645c5.5,7.336,13.066,11.567,19.269,14q-.552-13.345-1.12-26.69Z" transform="translate(-582.319 -559.019)" fill="#37322d"/></g><g transform="translate(126.184 60.297)"><g transform="translate(0.829 0.668)"><path d="M782,570.227a50.936,50.936,0,0,0,14.458-11.659l.12-.142a69.289,69.289,0,0,0,4.89-6.22,32.536,32.536,0,0,0-10.141-6.96,31.566,31.566,0,0,0-11.891-2.627c.557,2.128,1.011,4.15,1.384,6.157A83.128,83.128,0,0,1,782,570.227Z" transform="translate(-779.436 -542.62)" fill="#cd4239"/></g><path d="M779.748,542.895a30.925,30.925,0,0,1,10.821,2.543,31.867,31.867,0,0,1,9.556,6.439c-1.308,1.894-2.882,3.75-4.535,5.7l-.118.14a50.148,50.148,0,0,1-13.282,10.955,83.752,83.752,0,0,0-1.269-20.438c-.326-1.749-.712-3.51-1.173-5.339m-1.656-1.358c.583,2.156,1.136,4.473,1.6,6.95a82.469,82.469,0,0,1,1.075,22.443,51.707,51.707,0,0,0,15.646-12.34,66.274,66.274,0,0,0,5.359-6.885,33.269,33.269,0,0,0-10.717-7.482,32.317,32.317,0,0,0-12.959-2.687Z" transform="translate(-778.092 -541.537)" fill="#37322d"/></g><g transform="translate(36.157 63.577)"><path d="M669.7,548.885a98.164,98.164,0,0,0-19.925,8.755c-9.184,5.315-13.776,7.973-15.586,13.3-2.951,8.684,2.936,19.313,9.319,24.917,7.175,6.3,15.241,6.481,26.513,6.735,14.74.332,27.783.625,36.636-9.428a31.6,31.6,0,0,0-2.25-43.607,36.257,36.257,0,0,1-10.766,9.6,34.963,34.963,0,0,1-19.924,4.546,18.446,18.446,0,0,0,5.142-5.893,19.375,19.375,0,0,0,2.249-6.9,49.43,49.43,0,0,1-8.195,6.23,48.175,48.175,0,0,1-6.267,3.2Q668.171,554.61,669.7,548.885Z" transform="translate(-632.592 -547.634)" fill="#e5e5e6"/><path d="M669.5,602.663c-11.391-.256-19.621-.441-27.015-6.933-7.023-6.165-12.561-17.024-9.562-25.851,1.913-5.631,6.606-8.347,15.957-13.759a99.162,99.162,0,0,1,20.085-8.825l1.4-.439-3,11.236A47.589,47.589,0,0,0,672,555.623a48.664,48.664,0,0,0,8.06-6.127l1.633-1.532-.292,2.276a20.1,20.1,0,0,1-2.352,7.215,19.537,19.537,0,0,1-3.645,4.707,33.9,33.9,0,0,0,17.338-4.528,35.169,35.169,0,0,0,10.521-9.38l.536-.712.641.608a32.473,32.473,0,0,1,2.3,44.81c-7.51,8.529-17.7,9.819-29.527,9.819C674.714,602.781,672.136,602.723,669.5,602.663Zm24.028-43.543a35.607,35.607,0,0,1-20.37,4.649l-2.269-.16,1.857-1.377a17.728,17.728,0,0,0,4.909-5.626,18.24,18.24,0,0,0,1.694-4.241,50.087,50.087,0,0,1-6.534,4.726,49.273,49.273,0,0,1-6.37,3.253l-1.523.641,3.1-11.614a97.663,97.663,0,0,0-18.357,8.234c-8.993,5.2-13.507,7.817-15.215,12.843-2.722,8.011,2.645,18.336,9.077,23.984,6.959,6.109,14.95,6.288,26.011,6.537,14.711.331,27.418.617,36.023-9.156a30.714,30.714,0,0,0-1.572-41.792A36.678,36.678,0,0,1,693.525,559.12Z" transform="translate(-632.087 -546.856)" fill="#2c2c2d"/></g><g transform="translate(51.321 82.725)"><path d="M657.815,582.667a1.1,1.1,0,0,0,.583-.17,13.755,13.755,0,0,1,6.03-2.108,10.278,10.278,0,0,1,6.2.965,8.678,8.678,0,0,1,1.136.744,1.1,1.1,0,0,0,1.583-.248,1.223,1.223,0,0,0-.237-1.659,10.8,10.8,0,0,0-1.434-.94,12.4,12.4,0,0,0-7.456-1.225,15.954,15.954,0,0,0-6.99,2.438,1.22,1.22,0,0,0-.385,1.629A1.122,1.122,0,0,0,657.815,582.667Z" transform="translate(-656.681 -577.911)" fill="#090000"/></g><g transform="translate(90.658 82.725)"><path d="M721.611,582.667a1.1,1.1,0,0,0,.584-.17,13.752,13.752,0,0,1,6.03-2.108,10.262,10.262,0,0,1,6.2.965,8.692,8.692,0,0,1,1.137.744,1.1,1.1,0,0,0,1.583-.248,1.224,1.224,0,0,0-.237-1.659,10.857,10.857,0,0,0-1.434-.94,12.4,12.4,0,0,0-7.456-1.225,15.949,15.949,0,0,0-6.99,2.438,1.22,1.22,0,0,0-.385,1.629A1.123,1.123,0,0,0,721.611,582.667Z" transform="translate(-720.477 -577.911)" fill="#090000"/></g><g transform="translate(62.973 92.011)"><path d="M676.89,598.052c0-1.4,2.46-2.151,3.438-2.449a22.329,22.329,0,0,1,5.064-.755q5.565-.369,11.143-.449c2.555-.036,5.11-.023,7.666-.053,1.385-.016,1.47.612,1.43,1.883A23.192,23.192,0,0,1,705.2,600a21.532,21.532,0,0,1-4.241,9.383,9.341,9.341,0,0,1-6.8,3.658C683.88,613.457,676.9,602.872,676.89,598.052Z" transform="translate(-676.081 -593.497)" fill="#59595a"/><path d="M680.956,607.949c-3.161-3.179-5.372-7.465-5.378-10.423h0c0-2.035,2.815-2.9,4.021-3.264a22.941,22.941,0,0,1,5.238-.787c3.706-.246,7.468-.4,11.183-.45,1.375-.02,2.749-.025,4.124-.031,1.181,0,2.362-.009,3.544-.023a2.267,2.267,0,0,1,1.737.581,2.876,2.876,0,0,1,.511,2.177,24.111,24.111,0,0,1-.446,3.912,22.479,22.479,0,0,1-4.419,9.764,10.137,10.137,0,0,1-7.379,3.952c-.2.008-.405.013-.608.013A17.192,17.192,0,0,1,680.956,607.949Zm22.75-13.283c-1.185.014-2.37.018-3.555.023-1.369.005-2.738.01-4.108.031-3.688.052-7.424.2-11.1.446a21.711,21.711,0,0,0-4.891.723c-2.574.787-2.854,1.4-2.854,1.633,0,2.139,1.682,5.987,4.881,9.2a15.477,15.477,0,0,0,11.552,4.937,8.568,8.568,0,0,0,6.215-3.364,20.736,20.736,0,0,0,4.063-9,22.368,22.368,0,0,0,.412-3.623,3.063,3.063,0,0,0-.044-.931,1.055,1.055,0,0,0-.526-.076Z" transform="translate(-675.578 -592.97)" fill="#2c2c2d"/></g><g transform="translate(50.704 108.867)"><path d="M667.927,639.358s-3.292,1.453-3.292.105,9-10.27,9.48-12.291-9-7.071-10.766-5.556-8.034,13.637-6.427,18.856,7.523,4.951,10.9,2.426Z" transform="translate(-656.056 -620.703)" fill="#948479"/><path d="M659.882,644.507a6.161,6.161,0,0,1-3.914-4.234c-1.735-5.635,4.834-18.012,6.62-19.543,1.661-1.426,6.687,1.1,8.861,2.541,2.148,1.427,3.116,2.659,2.878,3.66-.265,1.109-2.145,3.325-5.21,6.843A46.116,46.116,0,0,0,664.891,639a6.158,6.158,0,0,0,2.424-.625l.871-.383-.146,4.845-.244.183a9.477,9.477,0,0,1-5.557,1.862A7.221,7.221,0,0,1,659.882,644.507Zm7.033-4.615c-.922.319-2.135.594-2.786.142a1.135,1.135,0,0,1-.478-.966c0-.827,1.254-2.344,4.57-6.151,1.992-2.286,4.72-5.417,4.929-6.291.036-.319-.934-1.512-3.438-2.954-3.047-1.753-5.794-2.44-6.355-1.959-1.583,1.356-7.757,13.222-6.234,18.169a4.96,4.96,0,0,0,3.14,3.417,7.7,7.7,0,0,0,6.584-1.138Z" transform="translate(-655.679 -620.308)" fill="#37322d"/></g><g transform="translate(84.453 108.212)"><path d="M717.672,638.371s2.757,1.347,2.757,0-8.579-10.27-9.039-12.291,8.579-7.071,10.265-5.556,7.66,13.638,6.128,18.857-6.458,4.972-9.676,2.446Z" transform="translate(-710.782 -619.628)" fill="#948479"/><path d="M717.384,641.941l-.2-.157-.609-4.834.978.475a4.583,4.583,0,0,0,1.9.54,41.628,41.628,0,0,0-4.046-5.292c-2.92-3.516-4.711-5.73-4.962-6.831-.311-1.369,1.665-2.961,3.378-4.056,2.062-1.318,6.356-3.455,7.848-2.115,1.7,1.53,7.958,13.888,6.308,19.51a5.948,5.948,0,0,1-3.732,4.327,5.716,5.716,0,0,1-1.851.3A8.292,8.292,0,0,1,717.384,641.941Zm-2.942-19.1c-2.3,1.473-2.89,2.5-2.843,2.709.2.883,2.8,4.017,4.7,6.3,3.158,3.8,4.351,5.316,4.351,6.131a1.158,1.158,0,0,1-.5,1,2.622,2.622,0,0,1-2.135-.039l.27,2.146a6.294,6.294,0,0,0,5.589,1.229,4.868,4.868,0,0,0,2.967-3.512c1.455-4.957-4.436-16.844-5.948-18.2a.865.865,0,0,0-.57-.146A13.878,13.878,0,0,0,714.442,622.845Z" transform="translate(-710.414 -619.245)" fill="#37322d"/></g><g transform="translate(22.948 61.35)"><path d="M614.616,583.442c-1.506-2.722-.784-5.994-.99-9.068-.213-3.164-.43-6.327-.63-9.492-.429-6.767-1.945-13.712-.79-20.418.226-1.309-.428-1.736-.655-.419-1.234,7.166-.958,14.4-.489,21.63.225,3.471.417,6.949.7,10.416a19.83,19.83,0,0,0,2.079,8.2C614.481,585.453,615.259,584.6,614.616,583.442Z" transform="translate(-610.665 -543.245)" fill="#37322d"/></g><g transform="translate(121.387 48.314)"><path d="M770.961,522.6c-.454-.959-.914-.409-.461.549,6.45,13.643,7.9,29.449,5.776,44.515-.148,1.048.861.759,1.01-.3C779.474,551.827,777.617,536.686,770.961,522.6Z" transform="translate(-770.313 -522.103)" fill="#37322d"/></g></g></g></g></svg>