<svg xmlns="http://www.w3.org/2000/svg" width="900" height="187.052" viewBox="0 0 900 187.052"><defs><style>.a{fill:#bed5d9;opacity:0.3;}.b{fill:#c16cca;}.c,.e,.f{fill:#fff;}.c{font-size:18px;}.c,.e{font-family:BPGArial, BPG Arial;}.d{fill:#ba5bc3;stroke:#231a00;stroke-miterlimit:10;}.e{font-size:19px;}</style></defs><g transform="translate(-233.385 -340.858)"><rect class="a" width="900" height="187.052" rx="65" transform="translate(233.385 340.858)"/><g transform="translate(281.393 396.525)"><g transform="translate(0)"><path class="b" d="M666.769,394.426H351.234l-13.063,12.6H315.758l-14-12.138h-16.4a8.4,8.4,0,0,1-1.386-.415,4.884,4.884,0,0,0-4.389,4.85V462a4.9,4.9,0,0,0,4.9,4.9h17.491l13.782,11.948h22.413q6.193-5.975,12.383-11.948H666.769a4.9,4.9,0,0,0,4.9-4.9V399.328A4.9,4.9,0,0,0,666.769,394.426Z" transform="translate(-279.583 -394.426)"/></g></g><text class="c" transform="translate(344.796 442.203)"><tspan x="-43.352" y="0">play sound</tspan></text><rect class="d" width="132.271" height="29.697" rx="6.282" transform="translate(411.828 420.252)"/><text class="e" transform="translate(468.296 440.079)"><tspan x="-49.638" y="0">A Elec bass</tspan></text><path class="f" d="M521.427,435.871l3.652-5.2a.856.856,0,0,0-.7-1.347h-7.3a.855.855,0,0,0-.7,1.347l3.652,5.2A.856.856,0,0,0,521.427,435.871Z" transform="translate(11.081 3.466)"/><text class="e" transform="translate(599.473 443.203)"><tspan x="-41.275" y="0">until done</tspan></text><g transform="translate(798.845 398.533)"><path class="b" d="M1071.187,396.359H849.178l-13.064,12.6H813.7l-14-12.138H783.3a8.318,8.318,0,0,1-1.386-.416,4.886,4.886,0,0,0-4.39,4.851v62.673a4.9,4.9,0,0,0,4.9,4.9H799.92L813.7,480.784h22.413L848.5,468.835h222.689a4.9,4.9,0,0,0,4.9-4.9V401.261A4.9,4.9,0,0,0,1071.187,396.359Z" transform="translate(-777.527 -396.359)"/></g><text class="e" transform="translate(864.169 445.212)"><tspan x="-47.073" y="0">start sound</tspan></text><rect class="d" width="132.271" height="29.697" rx="6.282" transform="translate(929.279 422.26)"/><text class="e" transform="translate(985.748 442.088)"><tspan x="-49.638" y="0">A Elec bass</tspan></text><path class="f" d="M1019.37,437.8l3.653-5.2a.855.855,0,0,0-.7-1.346h-7.3a.855.855,0,0,0-.7,1.346l3.652,5.2A.855.855,0,0,0,1019.37,437.8Z" transform="translate(30.588 3.541)"/></g></svg>