<svg id="Layer_1" data-name="Layer 1" xmlns="http://www.w3.org/2000/svg" viewBox="0 0 1366 768"><defs><style>.cls-1{fill:#d2c3db;}.cls-2{fill:#eadff1;}.cls-3{fill:#000;}.cls-4,.cls-5{fill:#d8a35d;}.cls-4{fill-rule:evenodd;}.cls-6{fill:#d19442;}.cls-7{fill:#927dcc;}.cls-8{fill:#ffc84f;}.cls-9{opacity:0.15;}.cls-10{fill:#615488;}.cls-11{fill:#62548a;}.cls-12{opacity:0.3;}.cls-13{opacity:0.5;}.cls-14{fill:#fdc64f;}.cls-15{fill:#979797;}.cls-16{fill:#cacaca;}.cls-17{fill:gray;}.cls-18{fill:none;stroke:#927dcc;stroke-width:0.86px;}.cls-18,.cls-20{stroke-miterlimit:10;}.cls-19{fill:#4f3b65;}.cls-20,.cls-21{fill:#ba1e2d;}.cls-20{stroke:#333;stroke-width:0.86px;}.cls-22{fill:#e0e2e3;}.cls-23{fill:#1a1a1a;}.cls-24{fill:#333;}.cls-25{fill:#9a8479;}.cls-26{fill:#362e29;}.cls-27{fill:#ec4036;}.cls-28{fill:#e5e5e6;}.cls-29{fill:#282829;}.cls-30{fill:#030000;}.cls-31{fill:#59595a;}</style></defs><title>5.6 - პარალელური პროგრამირება</title><path class="cls-1" d="M1366.21.09V756.2L1124,680.87l-1.24-.25L1091,674.18l.07-25,1.56-570.5,30.12-27.28,1.79-.79,111-50.47h125.57C1362.84-.32,1364.54.52,1366.21.09Z"/><polygon class="cls-1" points="316.51 67.32 300.86 646.35 300.46 661.06 273.58 668.16 0.42 756.19 0.42 0.09 184.12 0.09 273.58 31.31 299.26 39.89 311.94 60.06 316.51 67.32"/><polygon class="cls-2" points="698.19 28.49 698.14 28.49 273.58 28.49 273.58 687.32 698.14 687.32 698.19 687.32 1122.75 687.32 1122.75 28.49 698.19 28.49"/><path class="cls-3" d="M1361.11.09c-55.54,14.42-135.82,34.44-236.57,50.47l-1.79.28A2806.71,2806.71,0,0,1,615.21,84.07a2785.15,2785.15,0,0,1-303.27-24q-19.58-2.64-38.36-5.45C165.21,38.37,76.8,17,12.05.09Z"/><path class="cls-3" d="M.21,712c121.66-34.1,335.7-82.92,615-90.22,353-9.2,622.43,52.86,751,88.32V768H.41Z"/><path class="cls-4" d="M500.09,511.28s6.11,2.68,8.62,7.27c1.49,2.73,2.19,2.4,2.59,2.81,1.31,1.37-2.3.89-4-1.28-1.35-1.77-5.17-1.65-6.32-2.58s-3.78-4-3.64-5.11S500.09,511.28,500.09,511.28Z"/><path class="cls-4" d="M489.48,500.45c.62.79,9.69,8.17,12,13.11s5.31,12.51,7,14.88c2,2.79,1.06,4-1.6.93a53.65,53.65,0,0,1-5.25-7.31c-.21-.5,1.45,2.67,3.51,6,2.19,3.56,4.79,7.34,4.17,7.78-1.2.85-8.2-9.15-9.12-11a52.34,52.34,0,0,0,2.49,4.92c1.25,2.18,3,4.54,2.75,5.24-.46,1.1-4.89-3.94-7.32-8.55-.19,0,.13,1.63,3.39,6.91.33.53.61,2.08-.94.52-3.26-3.29-4.91-4.47-7.16-10.14s-3.28-12.11-6.09-15.65Z"/><path class="cls-5" d="M348.37,575s10.7,110.37,6.15,112.27c-8.16,3.46-40.12,14.78-4.88,12.3,18.1,1.09,16.77-3,17.05-6.38.23-2.8-.3-101.58.44-109.26l.27-2.76Z"/><path class="cls-5" d="M414.7,575s-4.64,110.37-.09,112.27c8.16,3.46,40.12,14.78,4.88,12.3-18.1,1.09-16.77-3-17.05-6.38-.23-2.8-2.28-24-3-31.73-.17-1.72-3.71-88-3.71-88Z"/><path class="cls-6" d="M379.23,290.15s.94,10.52-5.54,16.33,15,0,15,0-4-10.07-3.09-16.33S379.23,290.15,379.23,290.15Z"/><ellipse class="cls-5" cx="382.65" cy="278.75" rx="11.34" ry="15.47"/><path class="cls-7" d="M308.68,391.34c.24,3.8,4.17,21,9.08,36.31,4,12.56,8.72,23.84,12.58,25.4,8.56,3.45,73.21,8.18,86.51,1.83.31-.23.65-.48,1-.76,5-4.06,10.4-12.07,13.27-19.57l9.2-25.93s0-.08,0-.11.11-.34.17-.49,0-.11.06-.17c8,27.47,29.45,87.81,46.77,106.92,1.82,2,10.18-9.25,10.18-9.25s14-72.2-22.49-148.5c-17.17-35.91-47.81-52.3-67.37-56.65-8.47-1.89-14.86-1.52-17.19.5a12.68,12.68,0,0,1-7.92,3.08,17.15,17.15,0,0,1-4.45-.4,22.12,22.12,0,0,1-4.71-1.6c-.72-.34-1.15-.58-1.15-.58a46,46,0,0,0-12,.71C316,310.74,308.28,385,308.68,391.34Z"/><path class="cls-8" d="M419.81,452.33a7,7,0,0,1-4,1.83c-9.32.18-49.59.87-71.44-.38-7.71-.44-13.12-1.13-14.07-2.17,0,0,0,0,0,.09.06,1.2.75,15,1.72,33.06C334,520.43,330.28,571.52,326,587c-.93,3.35,49.1-1.72,49.1-1.72.14-36.81-3.35-101.43-1.1-104.33,2.74-3.52,7.19,53.32,12.3,100.89,19.81,5.17,51.19,2,50.83,0C432.79,557.74,419.81,452.33,419.81,452.33Z"/><path class="cls-9" d="M440.55,407.84c0,.06,0,.11-.06.17s-.12.32-.17.49,0,.07,0,.11l-9.2,25.93c-2.87,7.5-8.28,15.51-13.27,19.57,3.39-12.26,13.94-47.79,13.53-62.11C433.35,405.81,440.55,407.83,440.55,407.84Z"/><path class="cls-9" d="M337,356.5s21.43,64-38,91.12l-1.21.8.31-15s28-39.09,28.12-40.09S337,356.5,337,356.5Z"/><path class="cls-9" d="M381.77,306.48c0,1,.51,1.7,2.15,1.47,5.13-.7,10.93-.55,15.14,1.38a3.58,3.58,0,0,0,3.46-.15c2.7-1.58,4.37-6.28,5-8.36a1.43,1.43,0,0,0,.07-.46c-8.47-1.89-14.86-1.52-17.19.5a12.68,12.68,0,0,1-7.92,3.08A7,7,0,0,0,381.77,306.48Z"/><path class="cls-10" d="M400.92,686.09c-.21-1.59,11.13-1.44,12.41-.15s23.88,6,23.43,12.67-31.76,1.43-34,1.28S401.33,689.22,400.92,686.09Z"/><path class="cls-11" d="M367.32,683.51c.21-1.59-13.36.43-14.64,1.72s-21,6.67-20.59,13.38,31.76,1.43,34,1.28S366.91,686.64,367.32,683.51Z"/><g class="cls-12"><path d="M382.63,454.52l.45,0Z"/><path class="cls-13" d="M382.63,454.52c-12,1-38.23-.74-38.23-.74-7.71-.44-13.12-1.13-14.07-2.17,0,0,0,0,0,.09.06,1.2.75,15,1.72,33.06a8.92,8.92,0,0,0,1.26-.15,9.82,9.82,0,0,0,6.35-4.51,21.81,21.81,0,0,0,2.47-5.16C351.08,457.92,378.78,454.87,382.63,454.52Z"/></g><path class="cls-14" d="M386.91,269.87s-19.63,10.89-13.81-6.59C377.14,251.18,400.3,262.08,386.91,269.87Z"/><path class="cls-14" d="M384.06,265.69s11,6.52,9.93,13.06c0,0,2.42-19.52-8.5-20s-15.15.56-14.18,21.21C371.31,279.95,374.48,263.52,384.06,265.69Z"/><path class="cls-14" d="M386,258.86s-.55-6.08-6.58-5.22-8.61,4.31-9.48,7.75-1.72,6-2.58,6c0,0,2.58,2.58,3.45,1.72,0,0-2.24,6.2.6,11.28,0,0,1.12-7.84,5.43-8.7S386,258.86,386,258.86Z"/><path class="cls-14" d="M385.41,258.81s4.31-2.58,8.61,3.45l2.58,5.17s-.86.86-2.58,0c0,0,.78,6.07,0,9.5l-2.55-10.36Z"/><path class="cls-15" d="M411,375.59l-10.92,70a7.47,7.47,0,0,1-8.53,6.23l-47.76-7.46a2.32,2.32,0,0,1-.34-.07,7.45,7.45,0,0,1-5.88-8.46l10.92-70a7.46,7.46,0,0,1,8.53-6.22l45.54,7.11,2.21.34A7.46,7.46,0,0,1,411,375.59Z"/><path class="cls-16" d="M408.41,375.18l-10.92,70a7.46,7.46,0,0,1-8.53,6.22l-45.54-7.11a7.45,7.45,0,0,1-5.88-8.46l10.92-70a7.46,7.46,0,0,1,8.53-6.22l45.54,7.11A7.45,7.45,0,0,1,408.41,375.18Z"/><circle class="cls-17" cx="372.49" cy="406.08" r="5.77"/><path class="cls-9" d="M328,425s-1.12-25.72,67.8-17.11-51.69,16.37-51.69,16.37Z"/><path class="cls-4" d="M389.33,417.48c.82-.27,9.44-5.44,14.11-5.87s11.66-.63,14.07-1.31c2.84-.81,3.55.32.29,1.57a46.1,46.1,0,0,1-7.44,2.11c-.47,0,2.58-.39,5.89-1.08,3.52-.73,7.33-1.72,7.51-1.09.34,1.22-9.79,3.95-11.58,4.14a45,45,0,0,0,4.71-.57c2.12-.38,4.56-1.13,5-.69.75.69-4.61,2.8-9,3.41-.08.14,1.36.37,6.57-.72.52-.11,1.86.12.14.91-3.62,1.67-5,2.66-10.29,2.82s-10.75-.89-14.42.34Z"/><path class="cls-4" d="M401.19,412.07s4-4.15,8.4-4.84c2.64-.41,2.58-1.07,3-1.27,1.49-.66,0,2.12-2.19,2.83-1.82.58-2.84,3.69-3.94,4.35s-4.37,1.87-5.19,1.44S401.19,412.07,401.19,412.07Z"/><path class="cls-7" d="M315.64,313.08c-16.23,14.52-27.45,28-34.46,72.36-3.55,22.51-2.63,45-1.7,56.88a14,14,0,0,0,9.64,12.19C340,471.29,395.8,423,395.8,423c2.91-1.08-2.95-11.47-2.95-11.47-28.11-.29-49.64.57-72,9.18.11-.05,22-41.2,25-52.55,7.76-29.77,33.32-55.53,26.71-67.19C370.21,297,332,298.44,315.64,313.08Z"/><line class="cls-18" x1="411.06" y1="451.46" x2="423.76" y2="584.32"/><line class="cls-18" x1="398.45" y1="454.12" x2="411.06" y2="584.66"/><line class="cls-18" x1="386.12" y1="454.12" x2="396.61" y2="583.75"/><line class="cls-18" x1="374.25" y1="454.12" x2="373.98" y2="480.97"/><line class="cls-18" x1="361.07" y1="454.12" x2="363.51" y2="586.38"/><line class="cls-18" x1="349.73" y1="454.04" x2="350.41" y2="587.4"/><line class="cls-18" x1="338.59" y1="454.04" x2="336.02" y2="588.17"/><path class="cls-18" d="M421.52,466.15s-71.55,3.38-90.45,0"/><path class="cls-18" d="M374,481c25,5.67,49-3.29,49-3.29"/><path class="cls-18" d="M374.25,479.28s-22.59,6.35-42.44,1"/><path class="cls-18" d="M424.2,487.41s-18,9.45-47.34,4.63"/><path class="cls-18" d="M425.68,499s-28.07,8.57-47.43,4.16"/><path class="cls-18" d="M427.16,510.53s-14.3,11.21-47.45,6.18"/><path class="cls-18" d="M428.88,523.78a69.56,69.56,0,0,1-48.09,3.62"/><path class="cls-18" d="M430.48,535.92s-15.44,11-48.39,4.59"/><path class="cls-18" d="M432.16,548.36s-21.31,11.14-49.08,2.14"/><path class="cls-18" d="M433.5,558.07s-12.57,12.09-49.36,3.13"/><path class="cls-18" d="M435.08,569.1s-20.33,10.71-49.85,2.79"/><path class="cls-18" d="M373.22,491.4s-9.44,7.79-41.41,2"/><path class="cls-18" d="M373,503.13s-13.24,6.18-40.4,1.3"/><path class="cls-18" d="M373.62,516.15s-20.45,6.16-41.05,0"/><path class="cls-18" d="M373.92,526.95s-19.88,8.84-41.74,0"/><path class="cls-18" d="M374.25,538.8s-18.93,6.64-42.62,0"/><path class="cls-18" d="M374.55,550.18s-16,7.16-43.68,0"/><path class="cls-18" d="M374.55,560.25s-18.94,9.76-44.64,1"/><path class="cls-18" d="M375,572.84a87.57,87.57,0,0,1-46.5.54"/><path class="cls-3" d="M1156,263.61V469.39a.72.72,0,0,0,.6.71l50.4,8,16,2.53,58.17,9.24a.72.72,0,0,0,.83-.71V243.84a.72.72,0,0,0-.83-.71L1223,252.37l-16,2.53-50.4,8A.72.72,0,0,0,1156,263.61Z"/><path class="cls-19" d="M1187,256.92l15.88-3.12,15.76-3,15.67-3c5.23-1,10.44-2.06,15.7-2.83s10.51-1.6,15.76-2.44l15.75-2.5,2.64-.42a.72.72,0,0,1,.83.71V492.67a.72.72,0,0,1-.83.71l-2.64-.42-126-20-1.93-.31a.72.72,0,0,1-.6-.71V470l.18-104.54c0-4.36-.07-8.75,0-13.09s.26-8.61.38-12.91l.8-25.68,1.61-50.21a.71.71,0,0,1,.58-.68C1166.57,261,1176.68,258.94,1187,256.92Zm-29.38,58.8.8,26.07c.12,4.33.32,8.68.38,13s0,8.52,0,12.79L1159,468a.72.72,0,0,1-1.26.47h0a.72.72,0,0,1,.66-1.17l122.54,19.45a.72.72,0,0,1,.35,1.25l-1.1.94a.72.72,0,0,1-1.18-.55V244.56a.72.72,0,0,1,1.18-.55l1.1.94a.72.72,0,0,1-.35,1.25l-14.21,2.26c-5.25.83-10.5,1.66-15.74,2.56s-10.53,1.48-15.8,2.17l-15.83,2-15.75,2L1188,259.08c-10.26,1.25-20.75,2.46-31.34,3.84a.72.72,0,0,0-.63.74Z"/><path class="cls-19" d="M1221.17,440.46a3.31,3.31,0,0,0,1.25-1.13l19.22-36.47q1.07-2,4.5-2.27a9.89,9.89,0,0,1,5.38,1,3.67,3.67,0,0,1,1.9,4.09l-1,4.9a.69.69,0,0,0,0,.13,35.36,35.36,0,0,0,.4,3.87,5.87,5.87,0,0,1-.32,3.48,3.88,3.88,0,0,1-.82,1q-1,1-4,.2-2.71-.73-3.38.54L1232.13,443a4.8,4.8,0,0,0-.35,1,4.91,4.91,0,0,1-.37,1.1q-.52.85-5.06,1.37t-5.43.12a2.63,2.63,0,0,1-1.51-2.1,4.48,4.48,0,0,1,.48-2.87A3.37,3.37,0,0,1,1221.17,440.46Z"/><path class="cls-19" d="M1193.14,417.46a4.59,4.59,0,0,0-.11-2.34l-22-52.72q-1.23-2.94,1.55-6.81a13.71,13.71,0,0,1,5.83-4.86q3.27-1.36,6.05,1.58l4.41,5.37.09.09a48,48,0,0,0,4.51,3,8.14,8.14,0,0,1,3.44,3.42,5.38,5.38,0,0,1,.38,1.8q.15,1.9-3.34,4.47-3.17,2.26-2.41,4.08L1205.5,408a6.66,6.66,0,0,0,.81,1.29,6.8,6.8,0,0,1,.85,1.37q.45,1.3-3,6.62t-4.66,5.91a3.64,3.64,0,0,1-3.57-.24,6.2,6.2,0,0,1-2.64-3.05A4.68,4.68,0,0,1,1193.14,417.46Z"/><path class="cls-19" d="M1189.33,283.63a12.45,12.45,0,0,1,3.14-1.44,7.23,7.23,0,0,1,2.39-.22q.21,0,.53-.3a1.38,1.38,0,0,1,.59-.4,1.32,1.32,0,0,1,.32,0q2.72.22,5.2,4.39a35.79,35.79,0,0,1,3.74,9.39,42.62,42.62,0,0,1,1.54,10.51q0,5.1-1.7,6.25-2.15,1.47-3.07,2.16-.14.08-1.59,1.11a5.5,5.5,0,0,1-1.59.79q-4.32,1.14-8.68-6.25a43.07,43.07,0,0,1-4.55-10.9,30.25,30.25,0,0,1-1.18-8.52q.17-3.85,1.93-4.76Q1186.69,285.23,1189.33,283.63Zm1.74,6.12a38.81,38.81,0,0,0,1.25,6.62,52.23,52.23,0,0,0,3.32,9.34q2.18,4.41,3.67,4,.76-.2.5-4.46a40.39,40.39,0,0,0-1.19-7.78,34.77,34.77,0,0,0-2.85-7.55q-2.12-3.85-4-3.37Q1190.87,286.82,1191.07,289.75Z"/><path class="cls-19" d="M1243.14,315.8a17.13,17.13,0,0,1,4.75-.14,10,10,0,0,1,3.15,1q.25.15.84-.1a1.9,1.9,0,0,1,1-.19,1.81,1.81,0,0,1,.42.12q3.32,1.74,4.24,8.36a49.27,49.27,0,0,1-.3,13.92,58.67,58.67,0,0,1-3.69,14.14q-2.69,6.48-5.52,7-3.51.7-5,1.09-.22,0-2.61.56a7.57,7.57,0,0,1-2.44.14q-6.08-.88-7.64-12.59a59.29,59.29,0,0,1,.09-16.26,41.65,41.65,0,0,1,3.08-11.43q2.28-4.78,5-5Q1238.93,316.4,1243.14,315.8Zm-1.09,8.69a53.43,53.43,0,0,0-2,9.06,71.9,71.9,0,0,0-.81,13.62q.4,6.76,2.5,7.07,1.08.16,3-5.39a55.6,55.6,0,0,0,2.67-10.5,47.86,47.86,0,0,0,.44-11.09q-.62-6-3.2-6.4Q1243.37,320.67,1242,324.49Z"/><polygon class="cls-3" points="183.6 258.25 183.6 465.25 132.6 473.35 116.6 475.88 57.6 485.25 57.6 238.25 116.6 247.62 132.6 250.15 183.6 258.25"/><path class="cls-19" d="M183.6,258.25,185.23,309l.8,25.68c.12,4.3.32,8.57.38,12.91s0,8.73,0,13.09l.18,104.54v2.56l-2.53.4-126,20-3.47.55v-254l3.47.55,15.75,2.5c5.25.84,10.5,1.67,15.76,2.44s10.47,1.86,15.7,2.83L121,246l15.76,3,15.88,3.12C163.12,254.23,173.41,256.33,183.6,258.25Zm0,0c-10.81-1.42-21.51-2.65-32-3.92L136,252.44l-15.75-2-15.83-2c-5.27-.69-10.56-1.27-15.8-2.17s-10.49-1.74-15.74-2.56l-15.75-2.5,3.47-3v247l-3.47-3,126-20-2.53,3,.18-102.46c0-4.27-.07-8.5,0-12.79s.26-8.64.38-13L182,311Z"/><path class="cls-20" d="M155.16,321.8a17.82,17.82,0,0,1-4.41,5.87,4.13,4.13,0,0,0-1.28,1.79,11,11,0,0,1-3.27,5.27c-1.94,1.49-3.14,3.83-5.4,4.87-.32.15-.61.59-.95.41-.51-.28,0-.76-.06-1.15l-.09-.58a22.26,22.26,0,0,1-8.11,3.6c1.3,1.09,1.34,3,3,3.54.09,0,.23.28.2.34a8.81,8.81,0,0,1-1.17,2.35c-.58.58-1.24.36-1.86,0-.38-.2-.74-.47-1.18-.76a3.4,3.4,0,0,0,0,2.21c.32,1.75.31,3.58,1.09,5.23.37.77-.18,1.07-.72,1.22a4.67,4.67,0,0,1-2,.32,32.45,32.45,0,0,0-5.09,0c-.95,0-1.4-.28-1.3-1.54a32.05,32.05,0,0,0-.18-5.7c-.12-1.19-.59-1.3-1.44-.55-1.3,1.15-1.94.91-2.84-.54-.65-1-.81-1.52.24-2.44.76-.66,1-2,1.51-3.1a38.71,38.71,0,0,1-8.11-1.95c.06,1.88,1.59,1.89,2.64,2.53a4.84,4.84,0,0,1-5.65-1.73c-1.11-1.76-3-2.24-4.28-3.63a.43.43,0,0,0-.62,0c-.65.61-.65.62-1.28.06a13.66,13.66,0,0,1-5-8.41,2.24,2.24,0,0,0-1.1-1.5c-2.4-1.51-3.6-4.05-5.15-6.29.81-.33,1,.39,1.34.87A21.08,21.08,0,0,0,95,325.23c.51.59.82.49,1-.23a7.77,7.77,0,0,0-.77-6.14A22.92,22.92,0,0,1,93.1,315a6.37,6.37,0,0,0-3.39-3.51c-.51-.25-1.16-.78-1.6-.39s.23,1,.3,1.55c.19,1.38,1.33,2.54.85,4.07a38.28,38.28,0,0,1-2.76-8.25c-.23-.88.23-1.22,1.07-1.06a12.6,12.6,0,0,1,8.86,5.78.66.66,0,0,0,.08.12c.44.45.75,1.36,1.39,1.19s.32-1.06.37-1.62a26.43,26.43,0,0,1,1.58-7.87A22.07,22.07,0,0,1,103,300.3c.47-.63.85-1.33,1.33-1.94a17.59,17.59,0,0,1,3.3-2.92c3.12-2.41,6.35-4.64,9.63-6.81,5-3.29,7.4-8.13,7.6-14.24,0-.8,0-1.6,0-2.74,2.34,2.28,3.44,5.06,4.71,8.09l.22-1.85c.66.23.59.79.76,1.18,1.15,2.71,2.05,5.6,3.86,7.91a20.61,20.61,0,0,0,4.59,4.71c1.82,1.21,2.93,3.16,4.29,4.87a48.24,48.24,0,0,1,6.64,12.33c.42,1.06.74,2.16,1.15,3.4a11.25,11.25,0,0,1,5.11-3.9c1.1-.41,2.25-.67,3.39-1s1.14.09.88,1.11a74.89,74.89,0,0,1-3.16,9.53c-1.06.19-.45-.49-.35-.8.72-2.09,1.46-4.16,2.27-6.45-2.12.68-4,1.34-5,3.42-.76,1.68-1.76,3.21-2.62,4.82a8.32,8.32,0,0,0-.34,6.89,22.08,22.08,0,0,0,2.83-3.49C154.37,322.13,154.45,321.38,155.16,321.8Zm-49.59,7-.17.37a4.56,4.56,0,0,0,.12.69,10.83,10.83,0,0,0,5,6.07,32.4,32.4,0,0,0,11.08,4,21.49,21.49,0,0,0,9.06-.44c4.69-1.19,8.8-3.35,11.19-8.06a3.25,3.25,0,0,0,.58-2c-1,.6-1.44,1.62-2.36,2.06-.2.1-.37.34-.6.21s-.23-.5-.12-.76a12.78,12.78,0,0,0,.89-4.57c.16-2.32-.06-4.74-1.77-6.37-2.85-2.72-6.47-3.83-10.28-4.65.59,1.37,1.86,1.88,2.49,3,.15.27.5.53.3.87s-.59.09-.86,0c-5.74-1.81-11.48-3.62-17.2-5.5-.47-.16-.57-.14-.8.25a25.54,25.54,0,0,0-2.62,5.47c-1,3.09-.41,6.14.18,9.15.3,1.54,1.57,2.18,3.11,2.18C109.82,332.37,107.52,331.35,105.56,328.76Zm18.1,19.05a2.34,2.34,0,0,0,2.35,2.58c1.47,0,3.31-1.14,3.34-2.08.08-2.43-1.23-4.13-3.18-4.15C124.45,344.15,123.68,345.27,123.66,347.81Zm3.51,6.32c-.1-.91.38-1.77.25-2.65,0-.27,0-.83-.59-.79s-.43.55-.36.85A6.77,6.77,0,0,0,127.17,354.13Z"/><path class="cls-15" d="M89.27,316.75c.49-1.53-.66-2.69-.85-4.07-.07-.54-.71-1.18-.3-1.55s1.08.13,1.6.39A6.37,6.37,0,0,1,93.1,315a22.92,22.92,0,0,0,2.09,3.82A7.77,7.77,0,0,1,96,325c-.18.72-.48.82-1,.23a21.08,21.08,0,0,1-2.23-2.87c-.29-.48-.53-1.2-1.34-.87C90.64,319.94,89.4,318.62,89.27,316.75Z"/><path class="cls-15" d="M155.16,321.8c-.71-.41-.78.34-1,.67a22.08,22.08,0,0,1-2.83,3.49,8.32,8.32,0,0,1,.34-6.89c.86-1.61,1.86-3.14,2.62-4.82.94-2.08,2.84-2.74,5-3.42-.81,2.29-1.55,4.36-2.27,6.45-.11.32-.72,1,.35.8-.16,1.31-1.07,2.15-1.77,3.13-.15-.09-.29-.15-.43,0a.34.34,0,0,0,0,.55Z"/><path class="cls-21" d="M155.15,321.76a.34.34,0,0,1,0-.55c.14-.17.28-.11.43,0C155.4,321.38,155.52,321.76,155.15,321.76Z"/><path class="cls-22" d="M105.56,328.76c2,2.6,4.25,3.61,7.2,2-1.54,0-2.81-.64-3.11-2.18-.59-3-1.16-6.07-.18-9.15A25.54,25.54,0,0,1,112.1,314c.23-.39.33-.4.8-.25,5.72,1.88,11.46,3.69,17.2,5.5.27.08.63.39.86,0s-.15-.6-.3-.87c-.62-1.11-1.9-1.61-2.49-3,3.81.82,7.43,1.93,10.28,4.65,1.7,1.63,1.93,4.05,1.77,6.37a12.78,12.78,0,0,1-.89,4.57c-.12.25-.18.58.12.76s.4-.11.6-.21c.92-.44,1.38-1.46,2.36-2.06a3.25,3.25,0,0,1-.58,2c-2.4,4.71-6.5,6.87-11.19,8.06a21.49,21.49,0,0,1-9.06.44,32.4,32.4,0,0,1-11.08-4,10.83,10.83,0,0,1-5-6.07,4.56,4.56,0,0,1-.12-.69Zm13.52-2a.71.71,0,0,0,.74-.66.76.76,0,0,0-.68-.91,21.72,21.72,0,0,0-2.71-.29c-.69,0-1.37-1.83-2.07,0a.9.9,0,0,1-.24-.11c-.31-.28-.71-.46-.94,0s.25,1,.28,1.47a.61.61,0,0,0,.82.54A13,13,0,0,1,119.08,326.76ZM133,324.63a3.72,3.72,0,0,0-2.16.41.88.88,0,0,0-.48,1.06c.12.41.46.67.84.51a6.52,6.52,0,0,1,4.13,0c.69.14,1.77-1.56,1.49-2.22-.14-.33-.5-.44-.65-.23-.39.52-.62.68-1,0a.38.38,0,0,0-.68.06C134.18,324.86,133.62,324.61,133,324.63Zm-3.21,7.62c-2,1.74-4.44,1.65-6.85,1.6C125.51,334.5,127.91,334.45,129.81,332.25Z"/><path class="cls-22" d="M123.66,347.81c0-2.54.79-3.66,2.51-3.65,2,0,3.26,1.72,3.18,4.15,0,.94-1.87,2.09-3.34,2.08A2.34,2.34,0,0,1,123.66,347.81Z"/><path class="cls-22" d="M127.17,354.13a6.77,6.77,0,0,1-.7-2.59c-.07-.3-.25-.81.36-.85s.55.51.59.79C127.54,352.36,127.07,353.21,127.17,354.13Z"/><path class="cls-23" d="M119.08,326.76a13,13,0,0,0-4.8,0,.61.61,0,0,1-.82-.54c0-.52-.55-1-.28-1.47s.63-.24.94,0a.9.9,0,0,0,.24.11c.69-1.81,1.38,0,2.07,0a21.72,21.72,0,0,1,2.71.29.76.76,0,0,1,.68.91A.71.71,0,0,1,119.08,326.76Z"/><path class="cls-23" d="M133,324.63c.6,0,1.17.24,1.49-.48a.38.38,0,0,1,.68-.06c.37.7.6.54,1,0,.15-.2.51-.1.65.23.29.67-.8,2.36-1.49,2.22a6.52,6.52,0,0,0-4.13,0c-.38.17-.72-.09-.84-.51a.88.88,0,0,1,.48-1.06A3.72,3.72,0,0,1,133,324.63Z"/><path class="cls-24" d="M129.81,332.25c-1.9,2.2-4.3,2.25-6.85,1.6C125.37,333.9,127.8,334,129.81,332.25Z"/><path class="cls-25" d="M119.64,451.91a27.55,27.55,0,0,0-.28,4.67c.12,2,.13,3.25.13,3.25s-.72.42-.72.92h7.08s.49-2.17-1-2.58,0-4.17,0-4.17Z"/><path class="cls-26" d="M118.47,460.74a1.5,1.5,0,0,1,.72-1.09c0-.41,0-1.51-.13-3.06a27.52,27.52,0,0,1,.28-4.74l.06-.37,5.84,2.33-.12.29c-.27.69-.9,2.66-.52,3.47a.49.49,0,0,0,.32.29c1.39.39,1.39,2.1,1.2,3l-.05.24h-7.61Zm6.31-2.29a1.09,1.09,0,0,1-.7-.61c-.47-1,.12-2.92.39-3.68l-4.6-1.84a25.68,25.68,0,0,0-.22,4.23c.12,2,.13,3.26.13,3.27V460l-.15.09a1.81,1.81,0,0,0-.42.34h6.39C125.67,459.92,125.72,458.72,124.78,458.46Z"/><path class="cls-25" d="M130.91,451.91a12.08,12.08,0,0,1,1.93,4.42,10.53,10.53,0,0,1,0,3.5s.68.42.68.92h-6.6s-.89-2.33.48-2.75-.24-4.09-.24-4.09Z"/><path class="cls-26" d="M126.69,460.85a3.81,3.81,0,0,1-.14-2.45,1.25,1.25,0,0,1,.81-.7.41.41,0,0,0,.27-.25c.34-.77-.38-2.74-.68-3.43l-.11-.26,4.17-2.24.14.2a12.26,12.26,0,0,1,2,4.55,11.16,11.16,0,0,1,.06,3.42,1.47,1.47,0,0,1,.65,1.06v.3h-7.07Zm6-.77-.18-.11,0-.21a10.33,10.33,0,0,0,0-3.39,11.61,11.61,0,0,0-1.74-4.09L127.56,454c.3.73,1,2.68.57,3.66a1,1,0,0,1-.62.57.69.69,0,0,0-.45.39,2.91,2.91,0,0,0,.09,1.78h6A1.72,1.72,0,0,0,132.73,460.08Z"/><path class="cls-25" d="M118.74,444a7.48,7.48,0,0,0-.8,5.17,7.33,7.33,0,0,0,4,5.25c.65.25,6,1.67,8.59-.92a6.84,6.84,0,0,0,1.75-4.5,8,8,0,0,0-1.67-5.59C128.27,440.78,123.11,440.59,118.74,444Z"/><path class="cls-26" d="M121.82,454.69a7.9,7.9,0,0,1-3.33-10.86l0-.06,0,0c4.72-3.66,9.93-3.15,12.25-.55a8.2,8.2,0,0,1,1.75,5.82,7.12,7.12,0,0,1-1.84,4.7,6.79,6.79,0,0,1-4.84,1.62A13.15,13.15,0,0,1,121.82,454.69ZM119,444.19a7.27,7.27,0,0,0,3.06,9.92c.83.32,5.86,1.54,8.29-.85A6.54,6.54,0,0,0,132,449a7.65,7.65,0,0,0-1.59-5.35,6.31,6.31,0,0,0-4.77-1.85A11,11,0,0,0,119,444.19Z"/><path class="cls-25" d="M94.21,414.64c.12-10.46,6.4-18,8-19.79,1.85-2.11,6.34-7.08,13.69-8.78a22.62,22.62,0,0,1,6.15-.56l.21,7.23a14.23,14.23,0,0,1,4.46-6.45,13.68,13.68,0,0,1,10.72-2.67L134,393.29a10.07,10.07,0,0,1,3-3.67,9.63,9.63,0,0,1,6.37-1.89l-.85,6.78a54.49,54.49,0,0,1,5.52,7,39.32,39.32,0,0,1,4.35,7.89c.49,1.3,3.83,10.55-.32,19.9a27.11,27.11,0,0,1-7.53,9.56,26.91,26.91,0,0,1-8.28,5.34c-4.47,1.75-8.15,1.62-12.84,1.45s-8.64-.32-13.37-2.33c-2.82-1.2-7.8-3.33-11-8.56-1.57-2.55-2.12-4.84-3.18-9.34A43.19,43.19,0,0,1,94.21,414.64Z"/><path class="cls-26" d="M127.21,446c-1.22,0-2.49,0-3.83-.1-5.24-.19-10.48-.7-15.3-3a23.81,23.81,0,0,1-8.62-7.13c-2.28-3-3-6.58-3.92-10.28-.81-3.43-2-7.31-1.5-10.88-.14,0-.16-.24-.15-.4.71-11.73,8-22.74,18.53-27l1-.38a36,36,0,0,1,7.9-1.65,8.62,8.62,0,0,1,1.1,0s0,1.91,0,2.66c0,.49-.21,1.89.19,2.27.61.57,2.87-3.29,3.49-3.83a13.89,13.89,0,0,1,11.41-3l.33.06s-2.34,5.76-2.4,6.79a18.45,18.45,0,0,1,3.62-2,9.83,9.83,0,0,1,4.36-.71l.3,0-.87,7a54.34,54.34,0,0,1,5.78,6.61,42.5,42.5,0,0,1,4.05,8.28,27.52,27.52,0,0,1,.17,18.61c-1.68,4.91-5.47,9.3-9.41,12.38A25.74,25.74,0,0,1,127.21,446Zm-6.26-60.26a22.29,22.29,0,0,0-5,.57c-7.41,1.72-11.86,6.79-13.54,8.69-2.33,2.65-7.77,9.88-7.88,19.59a42.72,42.72,0,0,0,1.58,10.71c1,4.08,1.86,7.87,4.56,11.09,5.81,6.95,14.38,8.61,22.77,8.92,4.65.17,8.32.31,12.73-1.43a31.28,31.28,0,0,0,13.28-10.78c4.8-6.71,5.61-15.88,2.68-23.63a39,39,0,0,0-4.32-7.83,54.38,54.38,0,0,0-5.49-7l-.09-.1L143,388a9.29,9.29,0,0,0-5.89,1.85,9.78,9.78,0,0,0-2.88,3.56l-.51-.23,3.28-9.34a13.41,13.41,0,0,0-10.17,2.66,11.72,11.72,0,0,0-2.72,3.36c-.3.52-2.07,4.33-2.07,4.33s-.17-3.41-.18-3.91l-.13-4.5Z"/><path class="cls-25" d="M99.09,431.53a21.65,21.65,0,0,1-9.54-6.93c-.27-.34-.52-.7-.75-1.07-.9-1.43-2.13-3.39-1.48-5.23s3-2.6,4-2.89a9.79,9.79,0,0,1,7.11.89c0,.67.05,1.34.08,2Q98.81,424.92,99.09,431.53Z"/><path class="cls-26" d="M99,431.82a21.63,21.63,0,0,1-9.67-7c-.26-.33-.52-.7-.77-1.09-.88-1.39-2.22-3.5-1.51-5.5s3.17-2.78,4.23-3.08a10.07,10.07,0,0,1,7.32.91l.15.08v.18c0,.34,0,.67,0,1s0,.67,0,1q.14,3.3.28,6.6t.28,6.61l0,.46Zm-7.58-16.11c-1,.28-3.2.93-3.82,2.7s.59,3.58,1.45,4.95c.24.37.49.73.74,1a20.85,20.85,0,0,0,9,6.67q-.13-3.07-.26-6.15-.14-3.3-.28-6.6c0-.33,0-.67,0-1s0-.55,0-.82A9.46,9.46,0,0,0,91.41,415.71Z"/><path class="cls-25" d="M161.05,418a32.8,32.8,0,0,1-2.65,3.41,25.61,25.61,0,0,1-7.75,6.11,40.84,40.84,0,0,0-.53-11.11c-.23-1.23-.5-2.37-.79-3.44a41.16,41.16,0,0,0-1.44-4.23c3.87-2.71,8.43-3,11.46-.78a7.78,7.78,0,0,1,3.08,5A7.43,7.43,0,0,1,161.05,418Z"/><path class="cls-26" d="M150.36,427.5a40.52,40.52,0,0,0-.53-11c-.21-1.11-.46-2.22-.78-3.41a41,41,0,0,0-1.43-4.2l-.09-.23.2-.14c3.95-2.76,8.68-3.07,11.79-.78a8,8,0,0,1,3.2,5.21,7.69,7.69,0,0,1-1.42,5.25h0a32.09,32.09,0,0,1-2.62,3.37l-.06.07a25.9,25.9,0,0,1-7.84,6.18l-.47.24Zm10.45-9.66a7.09,7.09,0,0,0,1.33-4.83,7.39,7.39,0,0,0-3-4.79c-2.86-2.11-7.22-1.85-10.92.65a41.82,41.82,0,0,1,1.35,4c.33,1.21.59,2.34.8,3.47A41.13,41.13,0,0,1,151,427a25.24,25.24,0,0,0,7.19-5.79l.06-.07a31.68,31.68,0,0,0,2.57-3.31Z"/><path class="cls-27" d="M98.76,431.05q-.13-3.06-.26-6.12t-.26-6.23a12,12,0,0,0-5.84,2.86,12.73,12.73,0,0,0-2.47,3A20.92,20.92,0,0,0,98.76,431.05Z"/><path class="cls-26" d="M97.95,419.09q.12,2.93.25,5.86t.24,5.61a20.49,20.49,0,0,1-8.12-6,12.37,12.37,0,0,1,2.29-2.75,11.69,11.69,0,0,1,5.35-2.72m.59-.78a12.46,12.46,0,0,0-6.34,3,13.09,13.09,0,0,0-2.65,3.29,21.65,21.65,0,0,0,9.54,6.93q-.27-6.61-.56-13.22Z"/><path class="cls-27" d="M151,427a25.22,25.22,0,0,0,7.16-5.77l.06-.07a34.3,34.3,0,0,0,2.42-3.08,16.11,16.11,0,0,0-5-3.45,15.63,15.63,0,0,0-5.89-1.3c.28,1.05.5,2.06.69,3A41.15,41.15,0,0,1,151,427Z"/><path class="cls-26" d="M150.15,413.65a15.31,15.31,0,0,1,5.36,1.26,15.78,15.78,0,0,1,4.73,3.19c-.65.94-1.43,1.86-2.25,2.82l-.06.07a24.83,24.83,0,0,1-6.58,5.42,41.45,41.45,0,0,0-.63-10.12c-.16-.87-.35-1.74-.58-2.64m-.82-.67c.29,1.07.56,2.21.79,3.44a40.84,40.84,0,0,1,.53,11.11,25.61,25.61,0,0,0,7.75-6.11,32.8,32.8,0,0,0,2.65-3.41,16.47,16.47,0,0,0-5.31-3.7,16,16,0,0,0-6.42-1.33Z"/><path class="cls-28" d="M123.12,415.22a48.6,48.6,0,0,0-9.87,4.34c-4.55,2.63-6.82,3.95-7.72,6.59-1.46,4.3,1.45,9.56,4.62,12.34,3.55,3.12,7.55,3.21,13.13,3.33,7.3.16,13.76.31,18.14-4.67a15.65,15.65,0,0,0-1.11-21.59,18,18,0,0,1-5.33,4.75,17.31,17.31,0,0,1-9.87,2.25,9.14,9.14,0,0,0,2.55-2.92,9.59,9.59,0,0,0,1.11-3.42,24.46,24.46,0,0,1-4.06,3.08,23.88,23.88,0,0,1-3.1,1.58Z"/><path class="cls-29" d="M123.27,442.24c-5.64-.13-9.72-.22-13.38-3.43-3.48-3.05-6.22-8.43-4.73-12.8.95-2.79,3.27-4.13,7.9-6.81a49.09,49.09,0,0,1,9.95-4.37l.7-.22-1.48,5.56a23.63,23.63,0,0,0,2.29-1.22,24.11,24.11,0,0,0,4-3l.81-.76-.14,1.13a10,10,0,0,1-1.16,3.57,9.68,9.68,0,0,1-1.81,2.33,16.79,16.79,0,0,0,8.59-2.24,17.42,17.42,0,0,0,5.21-4.64l.27-.35.32.3a16.08,16.08,0,0,1,1.14,22.19c-3.72,4.22-8.77,4.86-14.62,4.86C125.85,442.29,124.58,442.27,123.27,442.24Zm11.9-21.56a17.63,17.63,0,0,1-10.09,2.3L124,422.9l.92-.68a8.78,8.78,0,0,0,2.43-2.79,9,9,0,0,0,.84-2.1,24.79,24.79,0,0,1-3.24,2.34,24.39,24.39,0,0,1-3.15,1.61l-.75.32,1.53-5.75a48.37,48.37,0,0,0-9.09,4.08c-4.45,2.58-6.69,3.87-7.53,6.36-1.35,4,1.31,9.08,4.49,11.88,3.45,3,7.4,3.11,12.88,3.24,7.28.16,13.58.31,17.84-4.53a15.21,15.21,0,0,0-.78-20.69A18.16,18.16,0,0,1,135.17,420.67Z"/><path class="cls-30" d="M112.82,426.44a.54.54,0,0,0,.29-.08,6.81,6.81,0,0,1,3-1,5.09,5.09,0,0,1,3.07.48,4.28,4.28,0,0,1,.56.37.54.54,0,0,0,.78-.12.61.61,0,0,0-.12-.82,5.38,5.38,0,0,0-.71-.47,6.14,6.14,0,0,0-3.69-.61,7.9,7.9,0,0,0-3.46,1.21.6.6,0,0,0-.19.81A.56.56,0,0,0,112.82,426.44Z"/><path class="cls-30" d="M132.3,426.44a.54.54,0,0,0,.29-.08,6.81,6.81,0,0,1,3-1,5.08,5.08,0,0,1,3.07.48,4.27,4.27,0,0,1,.56.37A.54.54,0,0,0,140,426a.61.61,0,0,0-.12-.82,5.39,5.39,0,0,0-.71-.47,6.14,6.14,0,0,0-3.69-.61,7.9,7.9,0,0,0-3.46,1.21.6.6,0,0,0-.19.81A.56.56,0,0,0,132.3,426.44Z"/><path class="cls-31" d="M118.43,430.94c0-.69,1.22-1.06,1.7-1.21a11.05,11.05,0,0,1,2.51-.37q2.76-.18,5.52-.22l3.8,0c.69,0,.73.3.71.93a11.48,11.48,0,0,1-.21,1.87,10.66,10.66,0,0,1-2.1,4.65,4.62,4.62,0,0,1-3.37,1.81C121.89,438.57,118.43,433.32,118.43,430.94Z"/><path class="cls-29" d="M120.69,436.1a8.56,8.56,0,0,1-2.66-5.16h0c0-1,1.39-1.43,2-1.62a11.37,11.37,0,0,1,2.59-.39c1.83-.12,3.7-.2,5.54-.22l2,0h1.75a1.12,1.12,0,0,1,.86.29,1.42,1.42,0,0,1,.25,1.08,11.94,11.94,0,0,1-.22,1.94,11.13,11.13,0,0,1-2.19,4.83,5,5,0,0,1-3.65,2h-.3A8.51,8.51,0,0,1,120.69,436.1ZM132,429.52h-1.76l-2,0c-1.83,0-3.68.1-5.5.22a10.73,10.73,0,0,0-2.42.36c-1.27.39-1.41.7-1.41.81a8.54,8.54,0,0,0,8.14,7,4.24,4.24,0,0,0,3.08-1.67,10.27,10.27,0,0,0,2-4.46,11.06,11.06,0,0,0,.2-1.79,1.52,1.52,0,0,0,0-.46.52.52,0,0,0-.26,0Z"/><path class="cls-25" d="M117.83,446.27s-1.63.72-1.63.05,4.46-5.09,4.69-6.09-4.46-3.5-5.33-2.75-4,6.75-3.18,9.34,3.73,2.45,5.4,1.2Z"/><path class="cls-26" d="M114,449a3.05,3.05,0,0,1-1.94-2.1c-.86-2.79,2.39-8.92,3.28-9.68s3.31.54,4.39,1.26,1.54,1.32,1.42,1.81-1.06,1.65-2.58,3.39a22.87,22.87,0,0,0-2.09,2.59,3.05,3.05,0,0,0,1.2-.31l.43-.19-.07,2.4-.12.09a4.69,4.69,0,0,1-2.75.92A3.57,3.57,0,0,1,114,449Zm3.48-2.29a1.76,1.76,0,0,1-1.38.07.56.56,0,0,1-.24-.48c0-.41.62-1.16,2.26-3a19,19,0,0,0,2.44-3.12c0-.16-.46-.75-1.7-1.46-1.51-.87-2.87-1.21-3.15-1-.78.67-3.84,6.55-3.09,9a2.46,2.46,0,0,0,1.56,1.69,3.82,3.82,0,0,0,3.26-.56Z"/><path class="cls-25" d="M132.07,446s1.37.67,1.37,0-4.25-5.09-4.48-6.09,4.25-3.5,5.08-2.75,3.79,6.75,3,9.34-3.2,2.46-4.79,1.21Z"/><path class="cls-26" d="M132.11,447.94l-.1-.08-.3-2.39.48.24a2.27,2.27,0,0,0,.94.27,20.6,20.6,0,0,0-2-2.62c-1.45-1.74-2.33-2.84-2.46-3.38s.82-1.47,1.67-2c1-.65,3.15-1.71,3.89-1s3.94,6.88,3.12,9.66a3,3,0,0,1-1.85,2.14,2.83,2.83,0,0,1-.92.15A4.11,4.11,0,0,1,132.11,447.94Zm-1.46-9.46c-1.14.73-1.43,1.24-1.41,1.34a18.79,18.79,0,0,0,2.33,3.12c1.56,1.88,2.15,2.63,2.15,3a.57.57,0,0,1-.25.5,1.3,1.3,0,0,1-1.06,0l.13,1.06a3.12,3.12,0,0,0,2.77.61,2.41,2.41,0,0,0,1.47-1.74c.72-2.45-2.2-8.34-2.95-9a.43.43,0,0,0-.28-.07A6.87,6.87,0,0,0,130.66,438.49Z"/><path class="cls-26" d="M100.16,433.4c-.75-1.35-.39-3-.49-4.49s-.21-3.13-.31-4.7c-.21-3.35-1-6.79-.39-10.11.11-.65-.21-.86-.32-.21a45.49,45.49,0,0,0-.24,10.71c.11,1.72.21,3.44.35,5.16a9.82,9.82,0,0,0,1,4.06C100.09,434.4,100.48,434,100.16,433.4Z"/><path class="cls-26" d="M147.27,407.29c-.22-.48-.45-.2-.23.27,3.19,6.76,3.91,14.58,2.86,22-.07.52.43.38.5-.15A38.47,38.47,0,0,0,147.27,407.29Z"/></svg>