<svg xmlns="http://www.w3.org/2000/svg" xmlns:xlink="http://www.w3.org/1999/xlink" width="1366" height="771" viewBox="0 0 1366 771"><defs><style>.a,.f,.n{fill:none;}.b{fill:#d2c3db;}.c{fill:#eadff1;}.ab,.d,.w,.x{fill:#000;}.e{fill:#b3b3b3;}.f{stroke:#000;stroke-width:12.476px;}.f,.n,.w,.x{stroke-miterlimit:10;}.g{fill:#060606;}.h{fill:#ccc;}.i{opacity:0.18;}.j{clip-path:url(#a);}.k{fill:#edba49;}.l{opacity:0.3;}.m{opacity:0.5;}.n{stroke:#947dce;stroke-width:0.837px;}.o{opacity:0.2;}.p{fill:#d8a35d;}.q{fill:#62548a;}.r{fill:#d19442;}.s{fill:#ffc84f;}.t{fill:#947dce;}.u{opacity:0.15;}.v{opacity:0.1;}.w,.x{stroke:#4f3b65;}.w{stroke-width:6.808px;}.x{stroke-width:6.802px;}.y{fill:#a7ced4;}.z{fill:#5da6b3;}.aa{fill:#eba859;}.ab{opacity:0.35;}.ac{fill:#1b45a1;}</style><clipPath id="a"><path class="a" d="M2375.763,593.269s-.7-15.712,1.15-17.9,63.956-15.648,63.956-15.648l17.821,14.351Z"/></clipPath></defs><g transform="translate(-1386 0.686)"><path class="b" d="M2752,8.85V767.314l-242.228-67.586-32.991-6.263,1.636-558.092,30.118-25.56Z"/><path class="b" d="M1702.3,124.785l-16.051,556.371-300.045,74.4V5.5l298.845,93.571Z"/><path class="c" d="M2083.978,88.385H1659.37V705.769h849.165V88.385Z"/><path class="d" d="M1386,60.094c121.657,30.38,335.7,73.888,615,80.372,352.972,8.194,622.429-47.1,751-78.7V-.686H1386Z"/><path class="d" d="M1386,722c121.657-29.39,335.7-71.48,615-77.753,352.972-7.927,622.429,45.568,751,76.133v47.19l-1365.8,2.747Z"/><path class="e" d="M2344.549,580.406H1930.944l60.117-72.14h305.395Z"/><rect class="e" width="19.237" height="165.923" transform="translate(1945.372 580.406)"/><rect class="e" width="13.226" height="195.982" transform="translate(1989.859 508.266)"/><rect class="e" width="13.226" height="195.982" transform="translate(2282.027 508.266)"/><line class="f" y2="100.112" transform="translate(2494.054 614.622)"/><ellipse class="g" cx="23.542" cy="4.938" rx="23.542" ry="4.938" transform="translate(2470.512 710.375)"/><path class="h" d="M2548.534,571.792c-4.655,14.779-14.879,27.5-27.739,36.005a58.764,58.764,0,0,1-12.446,6.226c-12.1,4.417-25.373,5.18-38.355,4.755-1.9-.061-23.62-.874-24.228-5.856-.741-6.054,30.1-14.795,55.876-21.159,11.528-10.1,16.621-20.132,19.075-26.606.885-2.339,2.721-7.625,5.131-29.271,1-8.962,1.654-16.791,2.1-23.084.133-1.924.249-3.7.348-5.33C2549,520.847,2555.689,549.051,2548.534,571.792Z"/><path class="i" d="M2493.811,598.663s-.051.038-.151.109c-1.662,1.18-13.674,11.387-39.073,12.358-26.936,1.03,55.194-38.505,55.194-38.505Z"/><g class="j"><path class="k" d="M2498.891,600.432s-.033,0-.083,0c-1.142.029-14.219.3-31.366.6-33.839.579-81.845,7.8-96.18,13.153-3.094,1.158-1.962-48.887-1.962-48.887,34.769-2.7,96.085-3.726,98.659-6.172,2.745-2.6,19.693-2.294,23.791-2.181.57.014.892.027.892.027l.029.239,3.129,29.328c.008.052.01.074.01.074C2496.8,594.234,2497.839,599.561,2498.891,600.432Z"/><g class="l"><path class="m" d="M2498.891,600.432s-.033,0-.083,0c-1.142.029-14.219.3-31.366.6a9.355,9.355,0,0,1,.047-1.264,9.78,9.78,0,0,1,3.8-6.622,20.2,20.2,0,0,1,4.694-2.809c11-7.179,14.59-23.322,15.769-33.392.57.014.892.027.892.027l.029.239c.849,12.28,2.967,28.109,3.129,29.328.008.052.01.074.01.074C2496.8,594.234,2497.839,599.561,2498.891,600.432Z"/></g><line class="n" x1="125.141" y2="6.789" transform="translate(2369.132 570.074)"/><line class="n" y1="8.61" x2="126.061" transform="translate(2369.119 581.329)"/><line class="n" x1="126.547" y2="11.884" transform="translate(2369.448 592.398)"/><path class="n" d="M2485.1,600.706"/><path class="n" d="M2467.958,559.124"/><path class="n" d="M2469.538,558.738s-4.345,22.879,2.172,42.214"/><path class="n" d="M2458.155,560.6s-6.673,9.916,1.133,41.265"/><path class="n" d="M2447.091,561.665s-4.865,13.583,1.73,40.218"/><path class="n" d="M2434.744,561.929s-4.324,20.739,3,40.77"/><path class="n" d="M2424.522,562.388s-6.9,20.359,3.054,41.456"/><path class="n" d="M2413.3,562.881s-4.891,19.259,3.118,42.333"/><path class="n" d="M2402.521,563.37s-5.6,16.343,3.2,43.377"/><path class="n" d="M2393,564.071s-7.838,19.491,2.286,44.407"/><path class="n" d="M2381.075,564.495a91.469,91.469,0,0,0,2.9,46.22"/><path class="o" d="M2374.752,596.056s-1.912-9.471,4.483-10.522,34.169-7.068,39.723-10.308,17.727-17.492,17.727-17.492l33.886,12.443s-38.652,18.7-40.735,19.28S2374.752,596.056,2374.752,596.056Z"/></g><path class="p" d="M2362.149,605.64s-37.985,97.526-42.654,97.442c-8.4-.1-40.432-2.441-8.917,8.809,15.287,7.835,15.674,3.821,17.223.956,1.266-2.341,11.134-19.994,14.7-26.376.8-1.429,36.731-74.974,36.731-74.974Z"/><path class="q" d="M2333.868,702.905c.7-1.513-13.365-3.733-15.039-2.85s-22.911.058-24.556,6.842,31.009,11.3,33.274,11.842S2332.483,705.877,2333.868,702.905Z"/><path class="p" d="M2393.494,612.423s41.592,69.637,52.346,89.647c-.7,3.461-.828,3.832-1.438,4.009-8.053,2.38-39.351,9.6-5.92,11.048,16.918,2.974,16.1-.975,16.738-4.169.244-1.227.772-4.535,1.986-10.249-2.064-6.761-46.045-94.221-46.045-94.221Z"/><path class="q" d="M2458.182,701.319c.26-1.648-13.876.1-15.242,1.405s-22.008,6.37-21.719,13.345,32.923,2.319,35.248,2.213S2457.67,704.558,2458.182,701.319Z"/><path class="r" d="M2415.224,424.259s8.574,9.3,17.21,8.39-9.993,11.054-9.993,11.054-4.781-9.683-10.008-13.206S2415.224,424.259,2415.224,424.259Z"/><path class="p" d="M2364.028,602.3c4.355-5.236,97.485-37.733,97.485-37.733l37.015,28.548s-121.313,18.729-122.765,21.632S2359.673,607.542,2364.028,602.3Z"/><path class="s" d="M2515.174,595.265s-.032.009-.081.02c-1.095.323-36.365,6.8-52.85,11.533-32.534,9.325-77.032,28.73-89.491,37.617-2.688,1.92-14.557-46.711-14.557-46.711,32.883-11.611,91.84-28.486,93.693-31.515,1.977-3.225,18.427-7.317,22.415-8.269.553-.134.868-.206.868-.206l.09.225,10.618,27.516c.022.048.029.069.029.069C2488.835,592.654,2513.933,594.7,2515.174,595.265Z"/><g class="l"><path class="m" d="M2515.174,595.265s-.032.009-.081.02c-1.095.323-36.365,6.8-52.85,11.533a9.193,9.193,0,0,1-.282-1.233,9.783,9.783,0,0,1,1.953-7.38,20.277,20.277,0,0,1,3.806-3.929c8.761-9.781,8.052-26.3,6.583-36.336.553-.134.868-.206.868-.206l.09.225c4,11.64,10.146,26.38,10.618,27.516.022.048.029.069.029.069C2488.835,592.654,2513.933,594.7,2515.174,595.265Z"/></g><line class="n" x1="119.112" y2="38.971" transform="translate(2361.029 569.971)"/><line class="n" y1="40.968" x2="119.529" transform="translate(2364.404 580.607)"/><path class="n" d="M2501.345,591.331l-10.993,1.8a155.435,155.435,0,0,0-28.937,7.673l-92.978,34.535"/><path class="n" d="M2479.212,601.935"/><path class="n" d="M2451.887,566.211"/><path class="n" d="M2453.314,565.429s1.729,23.223,13.032,40.211"/><path class="n" d="M2442.8,570.177s-3.876,11.306,11.783,39.564"/><path class="n" d="M2432.391,574.07s-1.181,14.379,12.088,38.4"/><path class="n" d="M2420.534,577.523s1.2,21.151,13.461,38.6"/><path class="n" d="M2410.78,580.614s-1.387,21.451,13.687,39.25"/><path class="n" d="M2400.067,584s.265,19.869,13.977,40.081"/><path class="n" d="M2389.783,587.261s-1.171,17.235,14.322,41.07"/><path class="n" d="M2380.773,590.4s-2.521,20.856,13.71,42.3"/><path class="n" d="M2369.361,593.9a91.476,91.476,0,0,0,14.768,43.893"/><path class="p" d="M2307.123,529.678a67.29,67.29,0,0,0-35.682,14.809l31.508.994a9.652,9.652,0,0,1,2.484-3.777,10.064,10.064,0,0,1,6.56-2.584Z"/><path class="s" d="M2405.232,413.323s13.773,17.637,15.236-.669C2421.625,398.174,2395.837,400.763,2405.232,413.323Z"/><path class="s" d="M2409.47,410.6s-6.2-.05-10.119,2.248c-1.186.7-2.8.471-3.166,1.961,0,0,4.475-15.7,14.688-11.9s12.771,4.984,3.838,23.547C2414.711,426.458,2419.108,412.344,2409.47,410.6Z"/><path class="s" d="M2403.051,401.439s4.719-4.949,12.652-.848c5.394,2.789,6.679,7.583,6.126,11.08s.49,5.422,1.28,5.757c0,0-3.378,1.364-3.832.239,0,0,.79,1.914-3.305,6.592a5.248,5.248,0,0,0-1.94-6.355C2410.416,415.436,2403.051,401.439,2403.051,401.439Z"/><path class="p" d="M2396.786,413.224a17.093,17.093,0,0,1,1.691,5.4,26.463,26.463,0,0,1-.131,6.335c-.133,1.381-.3,2.524-.431,3.322l3.583.721a8.141,8.141,0,0,0,3.3,4.458c7.512,5.294,14.667-6.736,10.714-13.045.046.074.962-.73,1.016-.789a3.39,3.39,0,0,0,.913-2.021,1.706,1.706,0,0,0-.233-1.037,2.015,2.015,0,0,0-1.539-.795c-1.276-.126-1.459.835-1.992,1.744-.64-.848.311-4.329-.329-5.177a6.3,6.3,0,0,1-3.413-.26c-1.826-.71-2.135-1.972-4.663-3.864-1.638-1.226-3.118-2.8-4.073-2.388-1.157.495-2.167,1.17-3.74,3.347C2396.66,410.289,2397.412,412.862,2396.786,413.224Z"/><path class="s" d="M2406.9,401.382s-1.911-3.039-6.254-.91a6.9,6.9,0,0,0-2.751,2.6,11.693,11.693,0,0,1-4.691,3.93s.569,1.073,2.462.756c-.784.131-1.03,3.308-1.064,3.827-.129,1.942.188,4.9,1.851,6.188.543-2.254.61-4.349,1.716-6.5a18.571,18.571,0,0,1,4.553-5.361C2403.02,405.659,2406.984,401.507,2406.9,401.382Z"/><path class="t" d="M2514.678,607.635c-7.531,3.01-24.8-7.181-59.359-27.562-14-8.253-25.073-15.338-38.417-14.655-1.14.057-2.279.171-3.457.342a38.041,38.041,0,0,0-5.4,1.216,43.826,43.826,0,0,0-13.172,6.734c-.029-.39-.048-.789-.076-1.2-.428-6.753-.827-15.348-.979-25.311-.019-1.453-.038-2.972-.047-4.549-.39-28.606-.181-74.735,16.43-88.744a90.084,90.084,0,0,0,9.754-9.2c.978-1.082,2-2.251,3.02-3.514a86.744,86.744,0,0,0,7.95-11.663c.456.086.931.181,1.405.276a116.716,116.716,0,0,1,42.6,17.741c43.033,29.29,50.175,77.983,51.942,90.121C2529.912,558.409,2531.479,600.92,2514.678,607.635Z"/><path class="u" d="M2431.666,556.671a92.94,92.94,0,0,0-14.759,8.747c-1.14.057-2.289.171-3.467.342a37.914,37.914,0,0,0-5.385,1.216c-.285-5.622-.532-12.176-.636-19.451-.019-1.453-.038-2.972-.057-4.549,14.882-25.073,45.948-73.548,49.538-47.924C2461.64,528.9,2449.16,548.323,2431.666,556.671Z"/><path class="t" d="M2303.389,527.941c-.184,1.359,1.274,1.995,3.711,7.421a49.931,49.931,0,0,1,2.65,7.421c12.875.769,23.541,13.548,30.875,17.87,12.859,7.578,33.368,17.116,54.6,12.722,12.153-2.515,20.145-8.907,30.215-16.963a130.958,130.958,0,0,0,32.866-39.226c.791-2.64,10.742-37.771-11.132-60.43-2.869-2.972-10.241-10.609-19.614-11.662-21.335-2.4-47.977,29.881-63.08,81.1-7.857-2.044-16.819-3.7-32.48-4.748C2317.035,521.341,2308.957,522.726,2303.389,527.941Z"/><path d="M2208.074,481.771l2.584-1.391,35.582,63.412-.994,3.181Z"/><path d="M2317.6,546.972v-3.181h-71.363l-.994,3.181Z"/><path class="u" d="M2432.335,429.8a8.118,8.118,0,0,1-1.168,3.267c-1.595,2.156-1.2,7.987-2.194,9.773s-.389,3.58-6.5,2.317c-.921-.19-1.757-.342-2.517-.456.978-1.082,2-2.251,3.02-3.514a86.744,86.744,0,0,0,7.95-11.663C2431.386,429.615,2431.861,429.71,2432.335,429.8Z"/><path class="h" d="M2489.621,601.751s20.949-17.532,24.026-23.271,10.484-22.172,10.484-22.172l5.323-16.2,6.058,36.386-7.833,19.895-6.191,6.464-6.972,6.264-9.6-.421Z"/><path class="g" d="M2451.312,611.288c5.25-.154,31.827-1.09,52.066-23,26.174-28.34,23.253-74,22.906-78.651-.239-1.546.456-2.81,1.211-2.991.837-.2,2.248.808,2.5,2.69.368,4.285,4.091,54.364-24.448,80.986C2483.114,611.246,2456.263,611.43,2451.312,611.288Z"/><path class="v" d="M2548.534,571.792c-4.655,14.779-14.879,27.5-27.739,36.005a58.764,58.764,0,0,1-12.446,6.226c9.742-7.36,18.766-15.874,25.555-25.473,11.451-16.183,16.046-37.968,7.857-56.578a57.3,57.3,0,0,0-13.817-19.17c.133-1.924.249-3.7.348-5.33C2549,520.847,2555.689,549.051,2548.534,571.792Z"/><rect class="e" width="19.237" height="165.923" transform="translate(2312.086 580.406)"/><path class="w" d="M2533.963,224.872V398.26c0,.3.392.55.925.6L2611.9,405.6l24.451,2.132,88.893,7.784c.666.059,1.269-.225,1.269-.6V208.212c0-.372-.6-.656-1.269-.6l-88.893,7.784-24.451,2.132-77.012,6.744C2534.355,224.321,2533.963,224.575,2533.963,224.872Z"/><path class="x" d="M1626.292,248.389v148.1c0,.254-.458.47-1.08.51l-89.994,5.761-28.572,1.82-103.877,6.649c-.778.05-1.482-.192-1.482-.51V234.158c0-.317.7-.559,1.482-.51l103.877,6.65,28.572,1.82,89.994,5.761C1625.834,247.919,1626.292,248.135,1626.292,248.389Z"/><path class="y" d="M2547.788,265.054l.239,94.887c.011,4.211,2.96,7.779,6.6,7.973l149.261,7.943a8.3,8.3,0,0,0,8.8-8.423l-.279-110.7a8.3,8.3,0,0,0-8.846-8.379l-149.219,8.7C2550.709,257.26,2547.777,260.843,2547.788,265.054Z"/><path class="z" d="M2598.505,280.547l99.364-3.3-.018-6.986-99.362,3.906Z"/><path class="aa" d="M2695.615,311.876a3.178,3.178,0,0,0,1.186-.229l-.015-6.174a3.162,3.162,0,0,0-1.188-.215l-12.35.105a3.276,3.276,0,0,0,.016,6.547Z"/><path class="aa" d="M2667.093,303.449l.009,3.7,9.627-.069a6.8,6.8,0,0,1,6.509-5.439l12.351-.147a3.909,3.909,0,0,1,.927.1,5,5,0,0,0-4.887-3.653l-19.632.3A5.1,5.1,0,0,0,2667.093,303.449Z"/><path class="aa" d="M2676.881,310.781l-9.77.037.012,4.729a5.074,5.074,0,0,0,4.93,5.158l19.634.1a5.163,5.163,0,0,0,5.124-5.244v-.038a6.275,6.275,0,0,1-1.187.112l-12.351-.007A6.711,6.711,0,0,1,2676.881,310.781Z"/><path class="z" d="M2564.52,338.881l133.512,3.176-.024-9.419-133.51-2.071Z"/><path class="z" d="M2564.558,353.856l50,1.935-.021-8.149-49.995-1.548Z"/><path class="ab" d="M2614.15,253.563c16.274,22.615,56.051,71.35,98.438,74.212l-.179-71.044a8.3,8.3,0,0,0-8.846-8.379Z"/><path class="z" d="M2564.782,287.506l24.211-.662a4.056,4.056,0,0,0,3.682-4.237l-.03-11.688a3.732,3.732,0,0,0-3.7-3.963l-24.21,1.13a3.986,3.986,0,0,0-3.485,4.173l.029,11.333A3.666,3.666,0,0,0,2564.782,287.506Z"/><path class="ac" d="M1606.809,308.933l-107.483-.774c-4.828-.034-8.805-4.282-8.805-9.439v-7.948a8.845,8.845,0,0,1,8.805-9.136l107.483,2.924c4.049.11,7.342,4.028,7.342,8.707v7.212C1614.151,305.158,1610.858,308.962,1606.809,308.933Z"/><path class="d" d="M1602.816,305.457l-98.793-.989a7.409,7.409,0,0,1-7.038-7.591v-4.039a7.107,7.107,0,0,1,7.038-7.349l98.793,2.409c3.287.081,5.963,3.245,5.963,7.033v3.7C1608.779,302.418,1606.1,305.49,1602.816,305.457Z"/><path class="ac" d="M1606.809,350.839l-107.482,2.925a8.847,8.847,0,0,1-8.806-9.137v-7.948c0-5.157,3.977-9.4,8.805-9.439l107.483-.774c4.049-.029,7.342,3.775,7.342,8.454v7.212C1614.151,346.811,1610.858,350.729,1606.809,350.839Z"/><path class="d" d="M1602.816,347.5l-98.793,2.409a7.107,7.107,0,0,1-7.038-7.349v-4.038a7.409,7.409,0,0,1,7.039-7.592l98.792-.99c3.287-.032,5.963,3.04,5.963,6.828v3.7C1608.779,344.256,1606.1,347.421,1602.816,347.5Z"/><path class="ac" d="M1521.914,295.286a2.856,2.856,0,0,1-2.789,2.973,2.974,2.974,0,0,1-2.8-3.069,2.853,2.853,0,0,1,2.8-2.972A2.976,2.976,0,0,1,1521.914,295.286Zm10.071-2.817a2.813,2.813,0,0,0-2.746,2.943,2.933,2.933,0,0,0,2.746,3.038,2.814,2.814,0,0,0,2.733-2.943A2.934,2.934,0,0,0,1531.985,292.469Zm12.608.246a2.775,2.775,0,0,0-2.692,2.915,2.893,2.893,0,0,0,2.692,3.008,2.777,2.777,0,0,0,2.681-2.915A2.9,2.9,0,0,0,1544.593,292.715Zm12.365.241a2.738,2.738,0,0,0-2.64,2.888,2.854,2.854,0,0,0,2.64,2.978,2.74,2.74,0,0,0,2.63-2.888A2.856,2.856,0,0,0,1556.958,292.956Zm12.129.237a2.7,2.7,0,0,0-2.59,2.86,2.816,2.816,0,0,0,2.59,2.95,2.7,2.7,0,0,0,2.579-2.861A2.817,2.817,0,0,0,1569.087,293.193Zm11.9.232a2.666,2.666,0,0,0-2.541,2.834,2.778,2.778,0,0,0,2.541,2.921,2.668,2.668,0,0,0,2.53-2.834A2.781,2.781,0,0,0,1580.986,293.425Z"/><path class="ac" d="M1521.914,339.859a2.975,2.975,0,0,1-2.789,3.067,2.854,2.854,0,0,1-2.8-2.972,2.973,2.973,0,0,1,2.8-3.068A2.856,2.856,0,0,1,1521.914,339.859Zm10.071-3.162a2.932,2.932,0,0,0-2.746,3.037,2.815,2.815,0,0,0,2.746,2.944,2.934,2.934,0,0,0,2.733-3.037A2.816,2.816,0,0,0,1531.985,336.7Zm12.608-.185a2.891,2.891,0,0,0-2.692,3.007,2.775,2.775,0,0,0,2.692,2.915,2.894,2.894,0,0,0,2.681-3.007A2.777,2.777,0,0,0,1544.593,336.512Zm12.365-.182a2.852,2.852,0,0,0-2.64,2.978,2.737,2.737,0,0,0,2.64,2.887,2.855,2.855,0,0,0,2.63-2.977A2.74,2.74,0,0,0,1556.958,336.33Zm12.129-.178a2.815,2.815,0,0,0-2.59,2.949,2.7,2.7,0,0,0,2.59,2.86,2.817,2.817,0,0,0,2.579-2.948A2.7,2.7,0,0,0,1569.087,336.152Zm11.9-.175a2.777,2.777,0,0,0-2.541,2.92,2.666,2.666,0,0,0,2.541,2.834,2.78,2.78,0,0,0,2.53-2.92A2.668,2.668,0,0,0,1580.986,335.977Z"/><path class="z" d="M1422.411,294.559q0,4.919-3.917,4.868-4.13-.054-4.132-5.145V282.747l1.636.041v11.521q0,3.736,2.5,3.772,2.2.031,2.2-3.55a4.866,4.866,0,0,0-.946-2.946,4.387,4.387,0,0,1-.958-2.546l.058-1.633,1.741.037-.258,1.569a4.706,4.706,0,0,0,1.04,2.392A5.443,5.443,0,0,1,1422.411,294.559Z"/><path class="z" d="M1432.25,295.264q0,4.342-3.966,4.29t-3.97-4.514l.361-1.975,1.67.029-.323,1.974q0,3.117,2.291,3.15,2.255.032,2.254-2.981a5.249,5.249,0,0,0-1.848-3.786,5.228,5.228,0,0,1-1.844-3.8l1.768.038a4.953,4.953,0,0,0,1.811,3.328A5.718,5.718,0,0,1,1432.25,295.264Z"/><path class="z" d="M1442.23,294.233q0,5.5-3.844,5.452-3.975-.051-3.978-5.365V283.244l1.59.04v6.048a5.733,5.733,0,0,1,2.462-.547Q1442.234,288.865,1442.23,294.233Zm-1.668-.028q0-4.05-2.222-4.1a6.827,6.827,0,0,0-2.342.514v4.14q0,3.561,2.369,3.594Q1440.563,298.389,1440.562,294.2Z"/><path class="z" d="M1451.612,300.167q0,3.943-3.628,3.908-3.9-.039-3.9-4.023l.305-2.12,1.585.023-.23,2.137q0,2.64,2.244,2.665,2.074.023,2.073-2.591v-7.4q0-2.426-2.063-2.466-1.839-.037-1.839,2.263l.506,2.139-1.584-.027-.452-2.084q0-3.68,3.369-3.61,3.621.076,3.618,3.841Z"/><path class="z" d="M1471.419,293.526a8.116,8.116,0,0,1-1.777,4.638l-1.916-.028a7.116,7.116,0,0,0,2.1-4.638q0-2.77-1.951-2.809-1.929-.039-1.947,2.4l-.1,2.088-1.352-.022-.108-2.1q0-2.492-1.813-2.528-1.773-.036-1.774,2.463l-.09,2.1-1.353-.022-.09-2.1q0-2.455-2.009-2.5-1.986-.039-1.987,3.229c0,2.809,2.346,4.945,7.015,6.4q3.9,1,4.491,4.05l-1.566-.015q-.438-2.152-4.437-2.983-3.035.244-4.232,1.652l-.99-1.209a6.463,6.463,0,0,1,3.262-1.363q-5.173-2.209-5.18-6.61,0-4.529,3.624-4.453A2.909,2.909,0,0,1,1460,291.13a2.7,2.7,0,0,1,2.558-1.935,2.8,2.8,0,0,1,2.629,2.072,2.731,2.731,0,0,1,2.681-1.868Q1471.423,289.473,1471.419,293.526Z"/><path class="z" d="M1480.76,294.63a13.221,13.221,0,0,1-1.253,5.3l-1.607-.022a12.006,12.006,0,0,0,1.283-5.31q0-3.68-2.2-3.723t-2.2,3.675a12.327,12.327,0,0,0,1.279,5.343l-1.623-.021a13.753,13.753,0,0,1-1.247-5.4q0-4.963,3.795-4.884Q1480.763,289.669,1480.76,294.63Z"/><path class="z" d="M1423.107,344.379a5.482,5.482,0,0,1-1.223,3.567,5,5,0,0,1-7.116.149,5.054,5.054,0,0,1-1.34-3.532q0-4.072,4.483-5.5a3.191,3.191,0,0,0,1.647-2.417q0-1.413-1.714-1.391-1.5.018-1.479,1.308l.058.471-1.539.407-.144-.837q0-2.544,3.123-2.581,3.244-.037,3.224,2.688a3.418,3.418,0,0,1-1.615,2.492A5.33,5.33,0,0,1,1423.107,344.379Zm-1.715.032a5,5,0,0,0-.692-2.6,3.046,3.046,0,0,0-2.291-1.422,3.521,3.521,0,0,0-2.438,1.547,4.653,4.653,0,0,0-.817,2.573,3.917,3.917,0,0,0,.88,2.68,2.794,2.794,0,0,0,2.27.972,2.889,2.889,0,0,0,2.176-1.07A3.921,3.921,0,0,0,1421.392,344.411Z"/><path class="z" d="M1432.843,345.174q0,4.016-3.774,4.1-4.152.095-4.156-3.887l.352-2.2,1.649-.031-.3,2.2q0,2.639,2.458,2.586,2.084-.027,2.082-2.714v-1.277q0-2.058-1.6-2.278l-1.567.027v-1.452l1.218-.02a3.077,3.077,0,0,0,1.885-2.974q0-1.974-2.215-1.945a1.666,1.666,0,0,0-1.891,1.849l.208,1.574-1.667.025-.218-1.48q0-3.252,3.568-3.295,3.909-.045,3.906,3.286a3.841,3.841,0,0,1-1.984,3.3,3.416,3.416,0,0,1,2.05,3.374Z"/><path class="z" d="M1442.629,340.378q0,4.31-3.907,4.386t-3.911-4.353l.356-1.972,1.645-.025-.318,1.97q0,3.094,2.256,3.053,2.221-.042,2.221-3.032a5.042,5.042,0,0,0-1.821-3.7,5.022,5.022,0,0,1-1.816-3.708l1.742-.019a4.74,4.74,0,0,0,1.784,3.245A5.511,5.511,0,0,1,1442.629,340.378Z"/><path class="z" d="M1457.553,338.628a8.235,8.235,0,0,1-2.595,5.528l-2.085.041q3.049-2.532,3.048-5.544-.02-3.678-2.092-3.652-2.022.025-2.024,3.349v1.831l-1.527.025v-1.833q.009-3.327-2.007-3.3-2.132.025-2.133,3.731,0,3.036,3.087,5.474l-2.185.042a8.211,8.211,0,0,1-2.561-5.49,11.233,11.233,0,0,1,2.34-6.877,9.372,9.372,0,0,1,6.209-3.741v1.567q-3.6.247-6.5,4.335v.387l1.673-.745q1.989-.024,2.821,2.343.877-2.387,2.883-2.41Q1457.556,333.646,1457.553,338.628Z"/><path class="z" d="M1467.085,338.548a13.529,13.529,0,0,1-1.279,5.4l-1.639.032a12.3,12.3,0,0,0,1.308-5.407q0-3.717-2.242-3.689t-2.248,3.786a12.1,12.1,0,0,0,1.305,5.356l-1.657.032a13.5,13.5,0,0,1-1.272-5.419q0-5.013,3.872-5.059Q1467.088,333.534,1467.085,338.548Z"/></g></svg>