<svg xmlns="http://www.w3.org/2000/svg" width="465" height="317.404" viewBox="0 0 465 317.404"><defs><style>.a{fill:#9db6fe;}.b{fill:#fff;}.c{fill:#ccd8ff;}.d{fill:#d19442;}.e{fill:#d29647;}.f{fill:#d8a35d;}.g{fill:#62548a;}.h{fill:#ffc84f;}.i{opacity:0.3;}.j{opacity:0.5;}.k{fill:none;stroke:#947dce;stroke-miterlimit:10;stroke-width:0.399px;}.l{fill:#947dce;}.m{fill:#daa968;}.n{opacity:0.15;}</style></defs><g transform="translate(-493.309 -299.028)"><g transform="translate(493.309 299.028)"><path class="a" d="M2.354,0H462.647A2.353,2.353,0,0,1,465,2.353v312.7a2.354,2.354,0,0,1-2.354,2.354H2.354A2.354,2.354,0,0,1,0,315.05V2.354A2.354,2.354,0,0,1,2.354,0Z"/><rect class="b" width="448.733" height="24.152" transform="translate(5.586 8.518)"/><path d="M879.722,325.65l-6.9-5.307a7.933,7.933,0,0,0,.337-6.837,7.413,7.413,0,1,0-3.88,10.036,7.064,7.064,0,0,0,2.422-1.65l5.921,6.289a1.831,1.831,0,0,0,.208.188,1.582,1.582,0,0,0,2.29-.325A1.776,1.776,0,0,0,879.722,325.65Zm-18.608-7.191a5.629,5.629,0,1,1,7.451,3.345A5.787,5.787,0,0,1,861.114,318.459Z" transform="translate(-440.798 -297.657)"/><g transform="translate(14.374 9.35)"><path d="M505.878,307.2h2.7v9.276h.062a5.006,5.006,0,0,1,1.935-1.9,5.558,5.558,0,0,1,2.764-.769c2,0,5.19,1.229,5.19,6.358v8.846h-2.7v-8.539c0-2.4-.891-4.423-3.44-4.423a3.883,3.883,0,0,0-3.624,2.7,3.276,3.276,0,0,0-.184,1.29v8.969h-2.7Z" transform="translate(-505.878 -307.203)"/><path d="M524.138,309.54v4.269h3.87v2.057h-3.87v8.016c0,1.844.523,2.888,2.028,2.888a6.04,6.04,0,0,0,1.566-.184l.124,2.027a6.621,6.621,0,0,1-2.4.368,3.747,3.747,0,0,1-2.917-1.136c-.769-.8-1.044-2.119-1.044-3.87v-8.109h-2.3v-2.057h2.3v-3.564Z" transform="translate(-503.965 -306.867)"/><path d="M533.025,309.54v4.269h3.87v2.057h-3.87v8.016c0,1.844.523,2.888,2.027,2.888a6.042,6.042,0,0,0,1.567-.184l.124,2.027a6.621,6.621,0,0,1-2.4.368,3.745,3.745,0,0,1-2.917-1.136c-.769-.8-1.045-2.119-1.045-3.87v-8.109h-2.3v-2.057h2.3v-3.564Z" transform="translate(-502.689 -306.867)"/><path d="M538.459,318.168c0-1.9-.062-3.44-.122-4.853h2.426l.123,2.549h.061a5.844,5.844,0,0,1,5.282-2.888c3.594,0,6.3,3.041,6.3,7.556,0,5.344-3.256,7.985-6.757,7.985a5.214,5.214,0,0,1-4.577-2.334h-.062v8.078h-2.672Zm2.672,3.962a6.047,6.047,0,0,0,.124,1.106,4.171,4.171,0,0,0,4.054,3.163c2.856,0,4.515-2.334,4.515-5.743,0-2.979-1.567-5.528-4.424-5.528a4.312,4.312,0,0,0-4.084,3.347,4.37,4.37,0,0,0-.185,1.106Z" transform="translate(-501.215 -306.374)"/><path d="M553.483,325.417a7.09,7.09,0,0,0,3.563,1.075c1.966,0,2.888-.984,2.888-2.212,0-1.29-.768-2-2.764-2.733-2.673-.953-3.932-2.427-3.932-4.208,0-2.4,1.935-4.362,5.129-4.362a7.416,7.416,0,0,1,3.655.922l-.676,1.966A5.776,5.776,0,0,0,558.3,315c-1.6,0-2.487.921-2.487,2.027,0,1.228.891,1.782,2.826,2.518,2.58.984,3.9,2.274,3.9,4.484,0,2.611-2.028,4.453-5.559,4.453a8.479,8.479,0,0,1-4.178-1.013Z" transform="translate(-499.137 -306.374)"/><path d="M563.788,315.664a1.831,1.831,0,1,1,3.655,0,1.829,1.829,0,1,1-3.655,0Zm0,10.842a1.831,1.831,0,1,1,3.655,0,1.829,1.829,0,1,1-3.655,0Z" transform="translate(-497.559 -306.266)"/><path d="M567.922,330.142l8.568-22.267h2.088l-8.6,22.267Z" transform="translate(-496.965 -307.106)"/><path d="M577.131,330.142l8.568-22.267h2.088l-8.6,22.267Z" transform="translate(-495.642 -307.106)"/></g><rect class="b" width="247.029" height="247.029" transform="translate(7.513 46.492)"/><rect class="c" width="188.304" height="123.515" transform="translate(264.117 46.492)"/></g><g transform="translate(810.069 377.911)"><path class="d" d="M823.947,386.04s-.457,5.906,2.218,10.1c1.8,2.82-1.712,2.6-5.549,1.993-2.946-.468-3.52-2.124-3.52-2.124a4.1,4.1,0,0,0,2.275-2.7c.612-1.971.292-5.442-.021-7.277C818.7,382.218,823.947,386.04,823.947,386.04Z" transform="translate(-763.556 -365.655)"/><g transform="translate(27.931 101.441)"><path class="e" d="M805.669,515.429s6.67,58.373,4.277,59.421c-4.291,1.908-21.116,8.2-2.475,6.558,9.6.414,8.856-1.717,8.975-3.534.1-1.486-1.082-53.809-.758-57.885.072-.913.117-1.464.117-1.464Z" transform="translate(-794.105 -448.264)"/><path class="f" d="M856.541,567.639a19.266,19.266,0,0,0-5.608,2.268c-4.926-11.559-22.921-54.962-22.921-54.962l7.9-6.3S851.49,553.571,856.541,567.639Z" transform="translate(-789.919 -449.239)"/><path class="g" d="M855.324,560.344c-.377-.764-7.01,2.1-7.193,3.044-.09.468-8.551,9.433-7.449,10.861.578,1.523,3.651.862,6.811.271a8.7,8.7,0,0,0,3.478-1.494c3.727-2.683,7.1-4.806,7.61-6.068C859.026,565.858,856.065,561.845,855.324,560.344Z" transform="translate(-788.113 -441.831)"/><path class="g" d="M816.784,565.594c.1-.846-7.073.348-7.741,1.045s-11.087,3.724-10.788,7.275,16.84.471,18.023.367S816.593,567.256,816.784,565.594Z" transform="translate(-794.194 -441.1)"/><path class="h" d="M798.176,460.992a3.7,3.7,0,0,0,2.175.793c4.931-.311,26.224-1.706,37.7-3.325,4.05-.571,6.878-1.169,7.334-1.759,0,0,0,.017,0,.047.023.638.261,7.947.539,17.531.548,18.918,4.728,45.732,7.68,53.732.637,1.727-26,1.236-26,1.236-1.684-19.431-2.664-53.707-3.981-55.138-1.6-1.741-1.468,28.469-2.084,53.808-10.236,3.594-26.94,3.31-26.837,2.221C795.924,517.214,798.176,460.992,798.176,460.992Z" transform="translate(-794.704 -456.701)"/><g class="i" transform="translate(22.959)"><path d="M815.018,460.041c-.08,0-.161,0-.239,0C814.779,460.041,814.864,460.04,815.018,460.041Z" transform="translate(-814.779 -456.221)"/><path class="j" d="M814.988,460.521c6.378-.018,20.154-2.061,20.154-2.061,4.05-.571,6.878-1.169,7.334-1.759,0,0,0,.017,0,.047.023.638.261,7.947.539,17.531a4.648,4.648,0,0,1-.673-.022,5.2,5.2,0,0,1-3.551-2.105,11.576,11.576,0,0,1-1.529-2.615C831.794,460.938,817.033,460.536,814.988,460.521Z" transform="translate(-814.749 -456.701)"/></g><g transform="translate(7.152 1.641)"><line class="k" x1="0.902" y2="70.706" transform="translate(0 1.808)"/><line class="k" x1="0.953" y2="69.48" transform="translate(6.724 2.66)"/><line class="k" x2="0.129" y2="68.906" transform="translate(14.184 2.121)"/><line class="k" x2="1.316" y2="14.166" transform="translate(20.453 1.602)"/><line class="k" x2="4.496" y2="69.94" transform="translate(27.411 1.026)"/><line class="k" x2="5.471" y2="70.45" transform="translate(33.394 0.487)"/><line class="k" x2="7.217" y2="70.712" transform="translate(39.279)"/></g><path class="k" d="M797.475,467.4s37.926-1.343,47.76-3.952" transform="translate(-794.305 -455.732)"/><path class="k" d="M823.259,471.923c-12.97,4.089-26.012.4-26.012.4" transform="translate(-794.338 -454.514)"/><path class="k" d="M819.8,471.32s12.206,2.364,22.45-1.334" transform="translate(-791.098 -454.793)"/><path class="k" d="M797.051,476.817s9.94,4.2,25.2.376" transform="translate(-794.366 -453.811)"/><path class="k" d="M796.813,482.227s15.2,3.3,25.227.123" transform="translate(-794.401 -453.034)"/><path class="k" d="M796.569,487.6s8.04,5.294,25.324,1.19" transform="translate(-794.436 -452.262)"/><path class="k" d="M796.28,493.81a36.854,36.854,0,0,0,25.548-.189" transform="translate(-794.477 -451.397)"/><path class="k" d="M796,499.451s8.632,5.113,25.752.311" transform="translate(-794.517 -450.56)"/><path class="k" d="M795.706,505.389a35.926,35.926,0,0,0,26.01-1.016" transform="translate(-794.56 -449.853)"/><path class="k" d="M795.457,509.859s7.168,5.835,26.2-.505" transform="translate(-794.595 -449.137)"/><path class="k" d="M795.149,515.034s11.2,4.768,26.446-.706" transform="translate(-794.64 -448.423)"/><path class="k" d="M820.74,476.805s5.325,3.7,21.953-.749" transform="translate(-790.963 -453.921)"/><path class="k" d="M821.3,482.253s7.263,2.682,21.391-1.081" transform="translate(-790.882 -453.186)"/><path class="k" d="M821.5,488.377s11.067,2.358,21.676-1.794" transform="translate(-790.854 -452.408)"/><path class="k" d="M821.779,493.377a30.636,30.636,0,0,0,22.041-1.825" transform="translate(-790.814 -451.694)"/><path class="k" d="M822.077,498.867A40.847,40.847,0,0,0,844.584,497" transform="translate(-790.771 -450.911)"/><path class="k" d="M822.371,504.14s8.738,3.082,23.063-1.909" transform="translate(-790.729 -450.16)"/><path class="k" d="M822.756,508.726s10.429,4.327,23.617-1.4" transform="translate(-790.674 -449.429)"/><path class="k" d="M823.027,514.6a46.39,46.39,0,0,0,24.577-1.749" transform="translate(-790.635 -448.635)"/></g><g transform="translate(0 28.893)"><path class="l" d="M790.65,425.626c-.809,1.263-4.109,37.156,0,44.6,4.134,7.489,38.571,11.493,49.4,5.731,10.987-5.845,15.219-11.467,16.687-21.951,1.471-10.5-1.959-26.718-1.959-26.718l-46.953-31.029Z" transform="translate(-767.645 -392.836)"/><g transform="translate(23.142 74.12)"><path class="m" d="M798.545,458.164a27.442,27.442,0,0,1,2.88,1.673,8.553,8.553,0,0,1,1.479,2.175c.274.581-.862.051-1.731-1.221-.844-.462-1.629-.982-1.822-.793s1.136.538,2.086,1.442c.93,1.194,1.822,2.364,1.5,2.387s-.669.037-1.99-1.691c-.934-.428-1.842-.938-1.917-.74s1.086.565,2,1.363c1.286,1.318,1.585,1.8,2.061,2.262-.257.287-1.117.027-2.7-1.55-.851-.53-2.121-.734-2.164-.469.039.281.924.437,1.526.8a7.069,7.069,0,0,1,1.658,1.33c.18.229-.009.624-2.1-.546a2.14,2.14,0,0,0-1.513-.094l-1.082-2.964Z" transform="translate(-789.623 -458.063)"/><path class="f" d="M793.5,459.327s5.088-1.048,5.541-1.234,1.575,1.151,1.212,1.4a2.474,2.474,0,0,0-.813,1.488,1.174,1.174,0,0,1-.229,1.058c-.309.357-.762.815-.564,1.349s.659,1.07.059,1.113a10.729,10.729,0,0,0-3.723,1.362c-1.28.8-4.468-2.677-4.468-2.677Z" transform="translate(-790.516 -458.075)"/></g><g transform="translate(67.711 74.396)"><path class="m" d="M836.908,458.433a27.173,27.173,0,0,0-3.32-.091,8.418,8.418,0,0,0-2.383,1.075c-.534.351.709.5,2.107-.128.958.05,1.9.021,1.964.285s-1.247-.141-2.523.13c-1.41.527-2.774,1.056-2.514,1.243s.552.384,2.571-.393c1.017.128,2.055.173,2.016.38s-1.218-.09-2.413.105c-1.777.447-2.28.7-2.925.844.071.38.939.612,3.1.1,1,0,2.188.493,2.088.741-.178.22-1.014-.114-1.713-.126a7.008,7.008,0,0,0-2.1.26c-.271.1-.314.538,2.07.64a2.161,2.161,0,0,1,1.339.718l2.451-1.958Z" transform="translate(-829.487 -458.317)"/><path class="f" d="M840.8,462.532s-3.8-3.577-4.091-3.977-1.937.152-1.758.556a2.492,2.492,0,0,1-.073,1.7,1.163,1.163,0,0,0-.35,1.022c.079.469.229,1.1-.215,1.449s-1.114.566-.624.918a10.909,10.909,0,0,1,2.473,3.126c.678,1.359,5.193.073,5.193.073Z" transform="translate(-828.908 -458.302)"/></g><path class="l" d="M880.147,463.621c-5.823,9.934-13.622,20.136-28.853,19.646-4.573-.3-6.992-2.359-8.187-4.689a9.043,9.043,0,0,1-.614-1.539c-.019-.068-.04-.136-.058-.2a10.163,10.163,0,0,1-.252-1.2,8.741,8.741,0,0,1,.188-3.723v-.007c.022-.064.045-.126.068-.182.009-.022.018-.046.031-.071.075-.18.193-.435.348-.756.684-1.412,2.089-4.087,3.9-7.04,3.227-5.277,3.126-13.367,1.729-17.529-.152-.451-.988-.9-2.316-1.406q-.6-.225-1.32-.47c-6.648-2.231-14.408-16.286-19.218-27.993-.978-2.383-1.832-4.668-2.537-6.744a59.14,59.14,0,0,1-1.676-5.756c-.445-1.973-.556-3.357-.253-3.875a.405.405,0,0,1,.39-.226,8.761,8.761,0,0,0,2.572-.343,18.589,18.589,0,0,0,6.134-3.509h0c1.365-1.091,2.287-2,2.287-2h.007c.082,0,.845.037,2.116.2a44.5,44.5,0,0,1,4.617.858c.674.158,1.384.342,2.126.552.319.09.644.188.974.288a48.97,48.97,0,0,1,25.311,17.871C882.042,433.36,886.038,453.565,880.147,463.621Z" transform="translate(-763.002 -393.159)"/><path class="n" d="M861.806,439.447a.887.887,0,0,0-.1.032Z" transform="translate(-757.148 -386.632)"/><path class="l" d="M849.772,395.839s-.048.059-.144.174c-.534.642-2.515,3.026-5.408,6.55-2.38,2.9-5.378,6.581-8.692,10.694v0c-.865,1.074-1.754,2.18-2.658,3.309C817.221,436.111,796.9,462.584,798.8,466.1a6.121,6.121,0,0,1,.674,1.9,4.994,4.994,0,0,1,.067.984,6.858,6.858,0,0,1-2.616,4.754l-.01.008a.512.512,0,0,1-.054.048,12.659,12.659,0,0,1-1.057.819,10.834,10.834,0,0,1-1.137.7c-16.583-2.611-24.386-9.671-24.386-28.67s10.85-51.152,48.778-53.361a6.3,6.3,0,0,1,2.88.773c1.942.917,4.033,2.371,5.716,2.783a3.561,3.561,0,0,0,.785.113c3.637.082,6.273-1.924,8.947-2.627l.009,0,.015,0a6.19,6.19,0,0,1,2.378-.19h.007q1.053.139,2.019.278c1.221.177,2.33.356,3.3.524.507.089.978.176,1.41.256.671.126,1.247.24,1.721.336l.549.114C849.432,395.758,849.772,395.839,849.772,395.839Z" transform="translate(-770.281 -393.266)"/></g><ellipse class="f" cx="6.925" cy="9.448" rx="6.925" ry="9.448" transform="translate(51.027 5.012)"/><g transform="translate(49.457)"><g transform="translate(1.462 2.634)"><path class="h" d="M819.022,377.63s11.988,6.647,8.43-4.026C824.99,366.221,810.846,372.872,819.022,377.63Z" transform="translate(-814.56 -370.306)"/><path class="h" d="M821,375.02s-6.708,3.981-6.06,7.974c0,0-1.479-11.92,5.19-12.22s9.252.344,8.66,12.948C828.793,383.722,826.856,373.7,821,375.02Z" transform="translate(-814.804 -370.246)"/></g><path class="h" d="M819.21,371.242s.337-3.715,4.019-3.189,5.26,2.63,5.786,4.734,1.052,3.683,1.578,3.683c0,0-1.578,1.577-2.1,1.052,0,0,1.366,3.782-.369,6.888,0,0-.682-4.785-3.312-5.311S819.21,371.242,819.21,371.242Z" transform="translate(-812.71 -368.002)"/><path class="h" d="M820.364,370.849s-2.63-1.578-5.26,2.1l-1.578,3.156s.526.526,1.578,0a21.129,21.129,0,0,0,.023,5.8l1.554-6.323Z" transform="translate(-813.526 -367.642)"/></g><path class="l" d="M881.1,458.077v0l0,0c-5.353,14.535-33.366-41.041-33.366-41.041l-11.936-14.405-4.026-4.858-.938-1.13-.939-1.132-.934-1.128,0,0,.009,0,.015,0a31.407,31.407,0,0,1,10.588-1.63,32.587,32.587,0,0,1,3.927.283,30.456,30.456,0,0,1,16.04,7.28C878.132,416.329,886.443,443.54,881.1,458.077Z" transform="translate(-761.852 -364.448)"/><path class="n" d="M840.791,392.749a9.74,9.74,0,0,1-2.158,1.872,4.2,4.2,0,0,1-.629.329c-.03.014-.062.027-.094.04a28.722,28.722,0,0,1-5.861,1.658,15.765,15.765,0,0,1-2.686.257c-.073,0-.146,0-.216,0-3.193-.1-5.355,1.234-7.327,1.329a1.18,1.18,0,0,1-1.371-1.331,3.561,3.561,0,0,0,.785.113c3.637.082,6.273-1.924,8.947-2.627l.009,0,.015,0A31.407,31.407,0,0,1,840.791,392.749Z" transform="translate(-763.074 -364.448)"/><path class="n" d="M844.874,462.931s9.768-10.4,5.439-16.009S834.567,426.887,834.2,421.2c0,0,1.7,10.277,5.851,16.263S844.874,462.931,844.874,462.931Z" transform="translate(-761.099 -360.36)"/><path class="n" d="M795.4,454.222s-4.658-3.525-4.878-6.526,4.324-11.185,4.324-11.185-2.725,7.764-1.5,10.614A42.244,42.244,0,0,1,795.4,454.222Z" transform="translate(-767.374 -358.161)"/></g></g></svg>
