<svg xmlns="http://www.w3.org/2000/svg" xmlns:xlink="http://www.w3.org/1999/xlink" width="482.057" height="405.942" viewBox="0 0 482.057 405.942"><defs><style>.a{fill:none;}.b{clip-path:url(#a);}.c{opacity:0.15;}.d{opacity:0.3;}.e{fill:#999;}.f{fill:#ccc;}.g{fill:gray;}.h{fill:#d8a35d;fill-rule:evenodd;}.i{fill:#947dce;}</style><clipPath id="a"><rect class="a" width="482.057" height="405.942"/></clipPath></defs><g transform="translate(-949.944 -404.859)"><g class="b" transform="translate(949.944 404.859)"><g transform="translate(24.613 56.733)"><path class="c" d="M1324.764,635.23s-227.721,15.706-235.792,236.732l-.949,4.816,46.646-20.414s86.01-138.143,89.019-139.774S1324.764,635.23,1324.764,635.23Z" transform="translate(-952.652 -425.048)"/><g class="d" transform="translate(6.178 192.931)"><path d="M976.984,621.794c-.158-.489-.315-.977-.465-1.453C976.519,620.341,976.691,620.853,976.984,621.794Z" transform="translate(-976.519 -620.341)"/></g><path class="e" d="M1188.02,457.522,983.313,582.174a25.291,25.291,0,0,0-8.449,34.725l85.091,139.707a7.96,7.96,0,0,0,.65.962,25.2,25.2,0,0,0,34.063,7.46l204.706-124.653a25.248,25.248,0,0,0,8.422-34.714l-81.124-133.24-3.941-6.478A25.249,25.249,0,0,0,1188.02,457.522Z" transform="translate(-971.187 -453.825)"/><path class="f" d="M1191.98,463.944,987.274,588.6a25.25,25.25,0,0,0-8.422,34.714l81.124,133.241a25.2,25.2,0,0,0,34.064,7.46l204.706-124.653a25.248,25.248,0,0,0,8.422-34.714L1226.044,471.4A25.2,25.2,0,0,0,1191.98,463.944Z" transform="translate(-970.557 -452.807)"/><circle class="g" cx="19.51" cy="19.51" r="19.51" transform="translate(151.738 143.942)"/><path class="c" d="M1128.979,776.373s81.889-29.763-34.173-234.142,15.656,182.806,15.656,182.806Z" transform="translate(-959.162 -449.249)"/><g transform="translate(62.405 10.536)"><g transform="translate(9.232)"><path class="h" d="M1075.185,577.895c-.2-2.908,4.8-36.536.1-51.708s-13.12-37.276-14.095-45.706c-1.147-9.919-5.6-10.7-5.273,1.137.211,7.695,1.91,22.934,3.033,26,.544,1.487-2.112-8.563-4.247-19.8-2.27-11.944-4.1-25.16-6.289-24.9-4.237.512.323,35.735,2.027,41.568a152.362,152.362,0,0,1-4.3-15.456c-1.568-7.13-2.364-15.716-4.361-16.643-3.146-1.459-2.79,18.049,1.023,32.715-.35.428-2.9-3.763-6.264-21.487-.338-1.781-2.782-5.661-3.044.737-.552,13.467-1.784,19.217,4.479,35.812,6.108,16.183,16.689,32.457,17.588,45.541Z" transform="translate(-1033.015 -462.919)"/><path class="h" d="M1072.2,530.34s7.877-17.743,4.276-32.519c-2.14-8.784.018-9.45.057-11.114.125-5.523-6.679,2.586-6,10.52.549,6.448-7.874,13.658-8.524,17.939s-.2,16.1,2.2,18.1S1072.2,530.34,1072.2,530.34Z" transform="translate(-1028.459 -459.433)"/></g><path class="i" d="M1498.229,671.055c-24.419,69.52-52.07,122.07-181.734,201.338-65.785,40.216-137.362,66.427-175.673,78.881a47.455,47.455,0,0,1-50.594-14.368c-118.187-137.3-39.541-374.325-39.541-374.325-.376-10.507,39.669-5.6,39.669-5.6,37.258,87.518,62.416,155.982,64.44,237.166.02-.424,100.361-122.133,132.026-146.082,83.05-62.772,130.56-176,175.6-170.407C1477.993,479.582,1522.861,600.931,1498.229,671.055Z" transform="translate(-1025.047 -460.613)"/></g></g></g></g></svg>