<svg xmlns="http://www.w3.org/2000/svg" width="337.172" height="408.06" viewBox="0 0 337.172 408.06"><defs><style>.a{fill:#bcd3d7;opacity:0.49;}.b,.c{fill:#caa267;}.b{fill-rule:evenodd;}.d{fill:#c2934e;}.e{fill:#8c7cc9;}.f{fill:#f1c759;}.g{opacity:0.15;}.h{fill:#5e5586;}.i{fill:#5e5587;}.j{opacity:0.3;}.k{opacity:0.5;}.l{fill:#f0c659;}.m{fill:#979797;}.n{fill:#cacaca;}.o{fill:#7f7f7f;}.p{fill:none;stroke:#8c7cc9;stroke-miterlimit:10;stroke-width:0.747px;}</style></defs><g transform="translate(-953.898 -278.404)"><path class="a" d="M1158.529,633.415c56.494-36.942,84.741-55.412,99.417-76.941,49.031-71.924,45.681-199.909-23.839-252.366-3.617-2.73-54.172-39.721-102.874-19.88-40.776,16.613-39.016,56.265-91.5,152.261-56.19,102.774-92.249,119.589-84.882,164.49,6.975,42.512,47.7,78.618,88.146,83.9C1073.08,688.809,1101.972,670.4,1158.529,633.415Z" transform="translate(0 0)"/><g transform="translate(960.398 294.131)"><g transform="translate(0 23.316)"><path class="b" d="M985.338,325.738c-1.4-3.423-5.85-6.093-8.829-6.916a29.968,29.968,0,0,1-3.795-1.595c-2.307-.779,1.344,2.513,2.724,3.066,1.121.449,3.129,3.787,4.229,4.931s3.455,2.8,4.722,2.814S985.155,326.373,985.338,325.738Z" transform="translate(-960.24 -317.108)"/><path class="b" d="M993.172,337.565c-2.676-4.807-4.681-10.518-9.821-12.9s-12.832-2.346-16.916-2.972c-4.8-.735-2.79.828-.259,1.507,1.645.441,6.966,2.017,8.629,2.005a52.837,52.837,0,0,0-6.938-1.129c-.395.111-8.018-1.97-7.5-.568,1,2.72,9.613,3.066,12.356,3.664-1.447-.052-3.8-.486-5.192-.543-1.183-.049-4.755-1.35-5.107-.262-.555,1.714,8.26,2.828,9.433,2.924-1.16.932-5.582-.464-7.125-.571-.155-.011-1.558.326.129.92a50.719,50.719,0,0,0,10.369,3c4.063.6,8.828,1.226,11.536,4.936C988.935,337.448,991.056,337.827,993.172,337.565Z" transform="translate(-960.342 -317.07)"/></g><path class="c" d="M1128.2,572.747s-9.358,96.561-5.379,98.223c7.139,3.029,35.1,12.934,4.273,10.757-15.833.954-14.672-2.583-14.919-5.58-.2-2.449.264-88.868-.387-95.588-.145-1.505-.234-2.415-.234-2.415Z" transform="translate(-959.021 -291.559)"/><path class="c" d="M1070.685,572.759s4.057,96.561.079,98.223c-7.139,3.029-35.1,12.934-4.273,10.757,15.833.954,14.671-2.583,14.919-5.58.2-2.449,2-21.038,2.648-27.758.146-1.505,3.249-77.027,3.249-77.027Z" transform="translate(-959.538 -291.571)"/><path class="d" d="M1101.366,325.747s-.825,9.2,4.85,14.289-13.079,0-13.079,0,3.49-8.812,2.707-14.289S1101.366,325.747,1101.366,325.747Z" transform="translate(-959.182 -293.738)"/><ellipse class="c" cx="9.922" cy="13.538" rx="9.922" ry="13.538" transform="translate(129.269 8.501)"/><path class="e" d="M1018.225,384.161c15.02-31.42,41.828-45.754,58.944-49.56,7.409-1.65,13-1.326,15.043.437a11.1,11.1,0,0,0,6.926,2.691,15.013,15.013,0,0,0,3.889-.355,19.316,19.316,0,0,0,4.123-1.4c.633-.295,1-.505,1-.505a40.241,40.241,0,0,1,10.476.625c38.723,7.582,45.461,72.51,45.114,78.095-.211,3.324-3.648,18.382-7.944,31.767-3.52,10.988-7.627,20.854-11,22.217-7.491,3.015-64.053,7.152-75.683,1.6-.271-.2-.565-.422-.843-.663-4.364-3.55-9.1-10.558-11.607-17.123,0-.007-6.685-18.849-8.05-22.686-.015-.037-.022-.068-.037-.1-.046-.15-.1-.294-.15-.429-.015-.053-.038-.1-.053-.151" transform="translate(-959.836 -293.649)"/><path class="f" d="M1066.233,466.4a6.113,6.113,0,0,0,3.471,1.6c8.157.16,43.387.764,62.5-.335,6.742-.387,11.477-.987,12.31-1.9a.719.719,0,0,1-.006.078c-.05,1.054-.654,13.114-1.5,28.923-1.675,31.206,1.551,75.9,5.319,89.467.813,2.928-42.959-1.507-42.959-1.507-.122-32.2,2.934-88.742.96-91.276-2.4-3.084-6.293,46.647-10.757,88.262-17.334,4.521-44.784,1.776-44.466,0C1054.87,558.608,1066.233,466.4,1066.233,466.4Z" transform="translate(-959.549 -292.493)"/><path class="g" d="M1048.112,427.923c.015.052.038.1.053.151.052.135.1.278.15.429a1,1,0,0,1,.037.1c1.365,3.836,8.05,22.678,8.05,22.685,2.51,6.565,7.243,13.574,11.606,17.123-2.963-10.725-12.195-41.813-11.841-54.339C1054.405,426.145,1048.112,427.916,1048.112,427.923Z" transform="translate(-959.575 -292.945)"/><path class="g" d="M1137.907,383.278s-18.744,55.955,33.261,79.719l1.057.7-.268-13.16s-24.505-34.2-24.6-35.076S1137.907,383.278,1137.907,383.278Z" transform="translate(-958.819 -293.214)"/><path class="g" d="M1099.283,339.952c.03.9-.445,1.484-1.884,1.288-4.492-.61-9.564-.482-13.249,1.206a3.132,3.132,0,0,1-3.03-.128c-2.358-1.38-3.821-5.495-4.4-7.318a1.25,1.25,0,0,1-.061-.4c7.409-1.65,13-1.326,15.043.437a11.1,11.1,0,0,0,6.926,2.691A6.106,6.106,0,0,1,1099.283,339.952Z" transform="translate(-959.326 -293.649)"/><path class="h" d="M1082.752,669.136c.185-1.394-9.735-1.264-10.857-.131s-20.892,5.211-20.5,11.082,27.79,1.255,29.747,1.117S1082.39,671.876,1082.752,669.136Z" transform="translate(-959.546 -290.725)"/><path class="i" d="M1111.62,666.889c-.185-1.394,11.689.375,12.812,1.507s18.409,5.835,18.017,11.705-27.79,1.255-29.747,1.117S1111.982,669.629,1111.62,666.889Z" transform="translate(-959.021 -290.74)"/><g class="j" transform="translate(138.816 173.272)"><path d="M1098.349,468.286l-.394-.032S1098.094,468.263,1098.349,468.286Z" transform="translate(-1097.955 -465.743)"/><path class="k" d="M1098.345,468.308c10.5.837,33.445-.647,33.445-.647,6.742-.387,11.478-.987,12.31-1.9a.719.719,0,0,1-.006.078c-.05,1.054-.654,13.114-1.5,28.923a7.845,7.845,0,0,1-1.1-.128,8.589,8.589,0,0,1-5.556-3.947,19.09,19.09,0,0,1-2.161-4.512C1125.944,471.284,1101.708,468.61,1098.345,468.308Z" transform="translate(-1097.952 -465.765)"/></g><g transform="translate(126.974)"><g transform="translate(2.095 3.774)"><path class="l" d="M1094.662,308.23s17.178,9.524,12.079-5.767C1103.213,291.883,1082.947,301.413,1094.662,308.23Z" transform="translate(-1088.268 -297.736)"/><path class="l" d="M1097.176,304.571s-9.611,5.7-8.683,11.423c0,0-2.119-17.08,7.436-17.509s13.257.492,12.408,18.554C1108.337,317.039,1105.56,302.673,1097.176,304.571Z" transform="translate(-1088.293 -297.73)"/></g><path class="l" d="M1095.45,298.635s.483-5.322,5.759-4.568,7.536,3.768,8.29,6.783,1.507,5.276,2.261,5.276c0,0-2.261,2.261-3.015,1.507,0,0,1.956,5.42-.53,9.87,0,0-.977-6.855-4.746-7.609S1095.45,298.635,1095.45,298.635Z" transform="translate(-1086.135 -293.994)"/><path class="l" d="M1096.014,298.553s-3.769-2.261-7.537,3.015l-2.261,4.522s.754.754,2.261,0c0,0-.686,5.31.034,8.307l2.227-9.06Z" transform="translate(-1086.216 -293.959)"/></g><g transform="translate(114.339 92.701)"><path class="m" d="M1073.77,399.952l9.557,61.22a6.538,6.538,0,0,0,7.461,5.449l41.783-6.527a2.015,2.015,0,0,0,.293-.06,6.514,6.514,0,0,0,5.148-7.4l-9.556-61.22a6.528,6.528,0,0,0-7.462-5.441l-39.846,6.218-1.937.3A6.527,6.527,0,0,0,1073.77,399.952Z" transform="translate(-1073.69 -385.892)"/><path class="n" d="M1075.981,399.591l9.557,61.219a6.529,6.529,0,0,0,7.462,5.442l39.845-6.218a6.514,6.514,0,0,0,5.148-7.4l-9.556-61.22a6.528,6.528,0,0,0-7.462-5.441l-39.846,6.218A6.514,6.514,0,0,0,1075.981,399.591Z" transform="translate(-1073.671 -385.892)"/><circle class="o" cx="5.044" cy="5.044" r="5.044" transform="translate(28.698 35.689)"/></g><path class="g" d="M1146.438,442.784s.979-22.5-59.314-14.968,45.22,14.32,45.22,14.32Z" transform="translate(-959.397 -292.838)"/><g transform="translate(103.223 39.825)"><g transform="translate(0 93.421)"><path class="b" d="M1092.79,436.217c-.714-.24-8.255-4.755-12.343-5.132s-10.2-.548-12.313-1.148c-2.483-.706-3.11.28-.249,1.372a40.271,40.271,0,0,0,6.511,1.844c.408.016-2.255-.341-5.15-.941-3.078-.639-6.416-1.506-6.569-.957-.3,1.063,8.569,3.453,10.131,3.622a39.462,39.462,0,0,1-4.118-.5c-1.858-.33-3.987-.988-4.406-.6-.66.607,4.036,2.449,7.917,2.988.068.125-1.186.322-5.752-.626-.459-.1-1.628.1-.125.8,3.162,1.463,4.415,2.324,9,2.467,4.47.139,9.4-.781,12.618.3Z" transform="translate(-1062.671 -426.054)"/><path class="b" d="M1082.337,431.519s-3.461-3.634-7.347-4.235c-2.31-.356-2.256-.937-2.65-1.111-1.307-.576-.041,1.851,1.921,2.473,1.595.505,2.484,3.231,3.444,3.809s3.826,1.638,4.542,1.263S1082.337,431.519,1082.337,431.519Z" transform="translate(-1062.591 -426.086)"/></g><path class="e" d="M1157.06,345.725c14.2,12.7,24.019,24.5,30.147,63.307,3.109,19.689,2.3,39.378,1.489,49.761a12.268,12.268,0,0,1-8.43,10.668c-44.478,14.67-93.334-27.534-93.334-27.534-2.547-.948,2.58-10.031,2.58-10.031,24.59-.254,43.431.5,63.027,8.036-.1-.046-19.263-36.042-21.856-45.973-6.792-26.043-29.148-48.579-23.363-58.785C1109.317,331.643,1142.74,332.912,1157.06,345.725Z" transform="translate(-1062.465 -333.474)"/></g><g transform="translate(103.223 173.14)"><line class="p" x1="11.116" y2="116.231"/><line class="p" x1="11.032" y2="114.207" transform="translate(11.116 2.325)"/><line class="p" x1="9.174" y2="113.408" transform="translate(23.757 2.325)"/><line class="p" x2="0.236" y2="23.491" transform="translate(43.316 2.325)"/><line class="p" x1="2.128" y2="115.706" transform="translate(52.716 2.325)"/><line class="p" x1="0.593" y2="116.677" transform="translate(64.171 2.252)"/><line class="p" x2="2.244" y2="117.347" transform="translate(74.514 2.252)"/></g><path class="p" d="M1064.611,478.376s62.6,2.956,79.133,0" transform="translate(-959.431 -292.383)"/><path class="p" d="M1106.217,491.252c-21.9,4.96-42.86-2.882-42.86-2.882" transform="translate(-959.442 -292.296)"/><path class="p" d="M1105.612,489.758s19.764,5.553,37.125.864" transform="translate(-959.073 -292.284)"/><path class="p" d="M1062.29,496.814s15.783,8.264,41.419,4.051" transform="translate(-959.451 -292.222)"/><path class="p" d="M1061.009,506.871s24.561,7.5,41.5,3.64" transform="translate(-959.462 -292.134)"/><path class="p" d="M1059.725,516.862s12.508,9.806,41.511,5.407" transform="translate(-959.473 -292.047)"/><path class="p" d="M1058.23,528.354a60.854,60.854,0,0,0,42.068,3.169" transform="translate(-959.487 -291.946)"/><path class="p" d="M1056.84,538.881s13.509,9.589,42.335,4.02" transform="translate(-959.499 -291.854)"/><path class="p" d="M1055.386,549.674s18.646,9.746,42.941,1.872" transform="translate(-959.511 -291.76)"/><path class="p" d="M1054.223,558.1s11,10.58,43.183,2.737" transform="translate(-959.522 -291.687)"/><path class="p" d="M1052.853,567.656s17.787,9.371,43.615,2.441" transform="translate(-959.534 -291.603)"/><path class="p" d="M1106.5,500.275s8.257,6.818,36.228,1.756" transform="translate(-959.065 -292.192)"/><path class="p" d="M1106.717,510.447s11.587,5.4,35.349,1.136" transform="translate(-959.063 -292.103)"/><path class="p" d="M1106.157,521.738s17.891,5.389,35.914,0" transform="translate(-959.068 -292.004)"/><path class="p" d="M1105.9,531.1s17.392,7.731,36.517,0" transform="translate(-959.07 -291.922)"/><path class="p" d="M1105.612,541.38s16.558,5.81,37.29,0" transform="translate(-959.073 -291.833)"/><path class="p" d="M1105.347,551.253s13.957,6.262,38.211,0" transform="translate(-959.075 -291.746)"/><path class="p" d="M1105.347,559.988s16.572,8.54,39.054.907" transform="translate(-959.075 -291.67)"/><path class="p" d="M1104.952,570.907a76.607,76.607,0,0,0,40.681.47" transform="translate(-959.078 -291.575)"/><path class="e" d="M1048.933,429.327s-45.875,19.463-57.007-22.51,4.174-51.258-10.2-68.646L991,330.987s32,16.928,41.509,43.364S1048.933,429.327,1048.933,429.327Z" transform="translate(-960.155 -293.671)"/></g></g></svg>