<svg xmlns="http://www.w3.org/2000/svg" width="156" height="142.033" viewBox="0 0 156 142.033"><defs><style>.a{fill:#6cf;}.b{fill:#42ba85;}.c{fill:#ccf;}.d{fill:#fff;}.e{fill:#99c;}.f{fill:#82eded;}.g{fill:#6c6;}.h{fill:#cf9;}.i{fill:#9c0;}.j{fill:#660;}.k{fill:#cff;}.l{fill:#ff0;}</style></defs><g transform="translate(-226.177 -236.047)"><path class="a" d="M366.643,364.126c-13.937,8.544-30.778,18.043-47.228,19.1s-15.389-.8-33.7,0-30.777-1.857-37.941-11.409-5.837-22.022-15.124-26-7.96-17.183,0-28.226-1.592-24.043,9.817-35.452,16.185-23.614,50.147-17.246,35.023-9.287,56.515,6.9,5.265,24.473,21.6,42.351S381.979,354.723,366.643,364.126Z" transform="translate(0 -10.829)"/><path class="b" d="M379.419,418.452c7.695-6.1,6.368-7.926,12.471-12.453s12.2-2.316,15.388-7.269,17.512-2.8,27.86-2.283,8.793,2.67,6.917,9.552.247,13.249-11.427,19.352-23.614,7.257-33.7,10.527-16.192,3.4-16.192,3.4Z" transform="translate(-61.242 -63.739)"/><g transform="translate(233.235 312.526)"><g transform="translate(15.312 0)"><path class="c" d="M263.553,401.714c3.038-7.239,15.566-37.145,21.934-38.207s8.137,9.906,12.2,16.716a120.151,120.151,0,0,1,6.545,12.647c1.592,3.184,6.191,8.667-3.714,10.082s-12.321-5.057-19.457-1.946C274.166,404.014,262.138,405.086,263.553,401.714Z" transform="translate(-263.438 -363.436)"/><path class="d" d="M294.442,367.489c-1.71,1.586-9.663,8.5-7.01,10s4.422-2.567,5.307-1.682,3.538,5.837,4.6,3.891,1.061-3.538,3.007-3.007S296.889,365.219,294.442,367.489Z" transform="translate(-272.812 -364.941)"/></g><g transform="translate(0 7.606)"><path class="e" d="M238.048,414.384c3.038-7.24,15.566-37.146,21.934-38.207s8.137,9.906,12.205,16.716a120.387,120.387,0,0,1,6.545,12.647c1.592,3.184,6.191,8.667-3.714,10.082s-12.321-5.056-19.457-1.946C248.661,416.683,236.633,417.755,238.048,414.384Z" transform="translate(-237.933 -376.105)"/><path class="d" d="M268.936,380.159c-1.709,1.586-9.663,8.5-7.01,10s4.422-2.567,5.307-1.682,3.537,5.837,4.6,3.892,1.061-3.538,3.007-3.007S271.384,377.889,268.936,380.159Z" transform="translate(-247.307 -377.61)"/></g></g><path class="f" d="M273.88,390.65c4.277,4.028,7.38,15.421,11.625,18.115s5.572,4.019,15.124,2.693,10.082-1.614,16.981.52,11.674,2.465,20.43,2.7,9.552-2.355,16.184,0,11.675-8.524,18.043-9.32,5.041,1.061,0,4.511-6.9,5.571-9.817,6.633-1.327-.531-6.1,4.51-2.792,5.366-11.744,10.908-22.218,8.992-37.076,7.665-28.124-.8-35.819-3.715-17.252-11.76-12.473-14.9,8.039-1.549,16.093-3.141,7.789-4.245,4.87-7.694-.72-7.82-4.87-11.409A6.358,6.358,0,0,1,273.88,390.65Z" transform="translate(-12.699 -61.786)"/><path class="g" d="M435.376,392.12a2.261,2.261,0,0,0-1.849.5c-.907-2.218-2.267-4.684-4.812-3.593a2.406,2.406,0,0,0-1.076,3.045c.136.479.8,1.33.982,1.872-.025.014-.047.026-.08.049a1.81,1.81,0,0,1-.514.2,3.845,3.845,0,0,0-3.4.5,1.806,1.806,0,0,0-.2,2.6,3.84,3.84,0,0,0,2.488,1.117,3,3,0,0,0,1.125,1.745c1.479,1.249,3.567.206,4.8-1.025a2.493,2.493,0,0,0,2.534-.517c1.544.071,2.576-1.689,2.637-3.08A3.213,3.213,0,0,0,435.376,392.12Z" transform="translate(-79.046 -61.029)"/><path class="h" d="M421.049,396.854a1.887,1.887,0,0,0-1.812-1.484,2.392,2.392,0,0,0-1.353-1.55,2.29,2.29,0,0,0-2.288.147,1.514,1.514,0,0,0-.376.4c-1.156-.465-2.367-.791-3.3.316a2.469,2.469,0,0,0-.584,1.961,2.658,2.658,0,0,0-.816,3.6,4,4,0,0,0,2.763,1.553,3.312,3.312,0,0,0,.726.986,3.721,3.721,0,0,0,5.068-.15.951.951,0,0,0,.282-1.169,1.7,1.7,0,0,0,.956-2.64A1.718,1.718,0,0,0,421.049,396.854Z" transform="translate(-73.516 -62.959)"/><path class="i" d="M451.254,400.218a2.193,2.193,0,0,0-2.743-1.138,2.6,2.6,0,0,0-.13-1.435,2.29,2.29,0,0,0-2.435-1.5,2.46,2.46,0,0,0-1.964,2.08,2.184,2.184,0,0,0-1.464.892,2.21,2.21,0,0,0-.44,1.864,1.88,1.88,0,0,0-1.228,1.43c-.516,2.806,4.063,2,5.5,1.531,1.2.946,2.876,1.455,4.174.506,1.055-.772.952-1.57.386-2.236A1.379,1.379,0,0,0,451.254,400.218Z" transform="translate(-85.776 -63.97)"/><path class="h" d="M472.081,364.811a4.132,4.132,0,0,0,1.02-2.447,3.371,3.371,0,0,0-1.817-2.947,2.116,2.116,0,0,0-.537-.205,3.2,3.2,0,0,0,.519-1.91,2.152,2.152,0,0,0-2.429-2.051l-.008-.014a9.43,9.43,0,0,0-2.045-2.34c-1.917-1.592-4.622.826-3.366,2.571a2.332,2.332,0,0,0,.346,1.64,2.206,2.206,0,0,0,.228.983c.466.962.273.186-.133.792-.336.5-.66.583-.89,1.214a4.369,4.369,0,0,0,.27,2.978c.048.13.108.255.161.382a3.707,3.707,0,0,0-1.32,1,3.255,3.255,0,0,0,.393,4.4,6.351,6.351,0,0,0,2,1.2,2.836,2.836,0,0,0,.767,2.289c1.779,1.862,4.1.731,5.3-1.036a2.667,2.667,0,0,0,2.516-1.221C474.009,368.49,472.674,366.516,472.081,364.811Z" transform="translate(-94.005 -46.49)"/><path class="j" d="M471.725,383.67c-.581,1.649-.179,3.253-.367,4.946A19.835,19.835,0,0,0,471,390.86c0,1.062.555,2.064.4,3.143-.138.965,1.339,1.381,1.478.407a5.037,5.037,0,0,0,.031-1.608,10.149,10.149,0,0,1-.079-3.573c.285-1.727-.223-3.468.369-5.152C473.532,383.145,472.051,382.744,471.725,383.67Z" transform="translate(-97.843 -58.786)"/><path class="c" d="M347.187,387.926a13.97,13.97,0,0,1-1.114-5.407c.125-3,1.168-6.014.54-9.025-.4-1.915-1.542-3.548-1.589-5.553-.042-1.782.708-3.127,1.311-4.744a5.39,5.39,0,0,0,0-3.773c-.592-1.865-1.827-3.812-.426-5.668.3-.394-.368-.777-.662-.387-2,2.658.7,5.218.709,7.985.006,1.785-1.357,3.383-1.612,5.164a8.614,8.614,0,0,0,.45,4.1,14.371,14.371,0,0,1,1.24,5.488c-.059,1.725-.436,3.418-.618,5.131a12.577,12.577,0,0,0,.193,4.521c.5,1.922,1.7,3.618,1.183,5.684a.384.384,0,0,0,.74.2A6.146,6.146,0,0,0,347.187,387.926Z" transform="translate(-47.191 -46.821)"/><path class="c" d="M359.98,394.378c-2.074-3.434-.594-7.341-1.061-11.067-.225-1.79-1.278-3.7-.715-5.511.393-1.267,1.263-2.047,1.1-3.442a20.338,20.338,0,0,0-.76-2.493,8.693,8.693,0,0,1-.106-3.774c.291-1.48,1.263-2.821,1.3-4.349a6.45,6.45,0,0,0-1.085-3.231c-1.06-1.921-1.691-3.6-1.012-5.8.146-.472-.594-.674-.739-.2a6.623,6.623,0,0,0-.066,4.037c.519,1.632,1.9,2.987,2.078,4.719.187,1.836-1.126,3.558-1.335,5.386a9.476,9.476,0,0,0,.038,2.435c.141.981.684,1.9.809,2.853.255,1.957-1.239,3.36-1.131,5.285.1,1.847.884,3.558.949,5.431.121,3.486-.845,6.935,1.073,10.112A.383.383,0,0,0,359.98,394.378Z" transform="translate(-52.103 -47.234)"/><path class="c" d="M371.357,362.4c1.867-2.98-2.414-5.135-.345-8.168.279-.409-.385-.793-.662-.387a3.993,3.993,0,0,0-.765,2.936c.325,2.077,2.4,3.476.8,5.607-1.739,2.316-3.587,3.971-2.791,7.145.425,1.7,1.366,3.226,1.406,5.016.039,1.767-.619,3.474-.6,5.241.018,2.042.913,3.953.96,6.008a30.239,30.239,0,0,1-.874,6.779c-.1.481.639.687.739.2.716-3.467,1.248-6.81.426-10.308a11.256,11.256,0,0,1-.458-3.339c.065-1.07.356-2.112.479-3.173a8.708,8.708,0,0,0-.372-3.866c-.587-1.812-1.554-3.536-.952-5.5C368.895,364.815,370.422,363.889,371.357,362.4Z" transform="translate(-56.441 -47.007)"/><path class="c" d="M381.434,362.65a10.519,10.519,0,0,0-.865,8.243c.5,2.017-.126,3.042-1.237,4.571a7.667,7.667,0,0,0-1.52,3.376c-.524,3.338,2.166,5.349,2.318,8.468.14,2.864-1.912,5.37-.866,8.248.168.46.908.261.739-.2-1-2.749.991-5.286.893-8.044-.1-2.863-2.61-4.885-2.391-7.848.206-2.783,3.041-4.291,3.149-6.959.057-1.411-.737-2.745-.841-4.154a9.28,9.28,0,0,1,1.282-5.309A.384.384,0,0,0,381.434,362.65Z" transform="translate(-60.572 -50.521)"/><path class="d" d="M299.3,303.39a15.637,15.637,0,0,0-2.561-.43,7.857,7.857,0,0,0-2.258-3.949c-2.338-2.259-5.937-3.011-9.091-2.829-3.272.189-7.238,1.134-9.5,3.734a20.336,20.336,0,0,0-6.942-.051c-2.609.367-5.433.878-7.423,2.763a6.8,6.8,0,0,0-1.135,8.6c1.722,2.762,4.975,3.716,8.059,3.707a19.778,19.778,0,0,0,3.7-.387c2.905,3.553,10.359,2.071,14.042,1.019.459-.131.931-.278,1.406-.441a27.1,27.1,0,0,0,7.734.665c3.259-.315,7.412-1.464,8.457-5.038C304.784,307.351,302.6,304.266,299.3,303.39Z" transform="translate(-13.257 -24.022)"/><path class="f" d="M440.275,312.135a15.627,15.627,0,0,0-2.561-.43,7.852,7.852,0,0,0-2.259-3.949c-2.338-2.259-5.937-3.011-9.09-2.829-3.273.188-7.239,1.134-9.5,3.733a20.356,20.356,0,0,0-6.943-.05c-2.609.367-5.433.878-7.423,2.763a6.8,6.8,0,0,0-1.135,8.606c1.723,2.761,4.975,3.716,8.059,3.707a19.726,19.726,0,0,0,3.7-.388c2.9,3.554,10.359,2.072,14.041,1.02.459-.132.931-.278,1.407-.441a27.119,27.119,0,0,0,7.734.665c3.259-.315,7.412-1.464,8.457-5.039C445.757,316.1,443.571,313.01,440.275,312.135Z" transform="translate(-69.596 -27.517)"/><path class="d" d="M268.759,339.448a.959.959,0,0,0,0,1.916A.959.959,0,0,0,268.759,339.448Z" transform="translate(-16.648 -41.323)"/><path class="d" d="M279.29,346.593a1.534,1.534,0,0,0,0,3.066A1.534,1.534,0,0,0,279.29,346.593Z" transform="translate(-20.634 -44.179)"/><path class="d" d="M292.106,336.723a1.534,1.534,0,0,0,0,3.066A1.534,1.534,0,0,0,292.106,336.723Z" transform="translate(-25.756 -40.234)"/><path class="d" d="M299.742,350.742a1.342,1.342,0,0,0,0,2.683A1.342,1.342,0,0,0,299.742,350.742Z" transform="translate(-28.882 -45.837)"/><path class="d" d="M314.179,337.484a1.342,1.342,0,0,0,0,2.682A1.342,1.342,0,0,0,314.179,337.484Z" transform="translate(-34.652 -40.538)"/><path class="d" d="M322.135,356.045a1.342,1.342,0,0,0,0,2.683A1.342,1.342,0,0,0,322.135,356.045Z" transform="translate(-37.831 -47.956)"/><path class="d" d="M273.816,362.527a1.342,1.342,0,0,0,0,2.683A1.342,1.342,0,0,0,273.816,362.527Z" transform="translate(-18.521 -50.547)"/><path class="d" d="M411.052,296.123a15.623,15.623,0,0,0-2.561-.43,7.853,7.853,0,0,0-2.259-3.949c-2.338-2.259-5.937-3.011-9.09-2.829-3.272.188-7.238,1.133-9.5,3.733a20.35,20.35,0,0,0-6.942-.051c-2.609.367-5.433.878-7.424,2.763a6.8,6.8,0,0,0-1.134,8.606c1.722,2.761,4.974,3.716,8.058,3.707a19.724,19.724,0,0,0,3.7-.388c2.9,3.553,10.359,2.072,14.042,1.019.459-.131.931-.278,1.406-.441a27.1,27.1,0,0,0,7.734.665c3.259-.315,7.412-1.464,8.457-5.038C416.535,300.083,414.349,297,411.052,296.123Z" transform="translate(-57.917 -21.118)"/><path class="k" d="M397.059,351.867a.981.981,0,0,0-1.354,0l-1.45,1.265a.963.963,0,0,0,0,1.355.98.98,0,0,0,1.354,0l1.45-1.265A.963.963,0,0,0,397.059,351.867Z" transform="translate(-67.059 -46.178)"/><path class="k" d="M417.126,351.8a.971.971,0,0,0-1.311-.343,6.958,6.958,0,0,0-1.857,1.835.964.964,0,0,0,.343,1.311.983.983,0,0,0,1.311-.344,4.516,4.516,0,0,1,.534-.626c.109-.107.223-.209.339-.307a2.833,2.833,0,0,1,.3-.214A.977.977,0,0,0,417.126,351.8Z" transform="translate(-74.991 -46.067)"/><path class="k" d="M436.75,346.759l-2.224,2.316c-.854.89.5,2.247,1.355,1.355l2.224-2.316C438.96,347.224,437.606,345.867,436.75,346.759Z" transform="translate(-83.156 -44.129)"/><path class="k" d="M411.138,368.741a8.282,8.282,0,0,1-1.7,1.427c-1.042.654-.082,2.313.967,1.655a10.236,10.236,0,0,0,2.091-1.727C413.328,369.191,411.976,367.832,411.138,368.741Z" transform="translate(-73.058 -52.91)"/><path class="k" d="M408.729,339.114a.977.977,0,0,0-1.311.344,7,7,0,0,1-1.817,1.851.983.983,0,0,0-.344,1.311.967.967,0,0,0,1.311.344,9.467,9.467,0,0,0,2.5-2.538A.969.969,0,0,0,408.729,339.114Z" transform="translate(-71.517 -41.138)"/><path class="k" d="M434.553,366.973a.968.968,0,0,0-1.355,0c-.715.8-1.391,1.636-2.041,2.491a.963.963,0,0,0,.343,1.311.982.982,0,0,0,1.311-.344c.551-.725,1.136-1.423,1.742-2.1A.981.981,0,0,0,434.553,366.973Z" transform="translate(-81.862 -52.213)"/><path class="l" d="M348.33,254.753c-4.88-2.262-12.653-3.334-16.474,1.29a8.968,8.968,0,0,0-2.074,5.572,11.633,11.633,0,0,0-.032,6.056c1.365,5.166,7.055,7.257,12.085,6.737a11.632,11.632,0,0,0,11.5-5.31C356.663,263.794,353.708,257.246,348.33,254.753Z" transform="translate(-41.238 -6.701)"/><path class="l" d="M350.488,293.755a2.34,2.34,0,0,0-2.3,2.3v3.361a2.3,2.3,0,0,0,4.6,0v-3.361A2.325,2.325,0,0,0,350.488,293.755Z" transform="translate(-48.761 -23.062)"/><path class="l" d="M369.393,287.406l-1.06-1.239a2.3,2.3,0,0,0-3.926,1.626,2.568,2.568,0,0,0,.674,1.626l1.06,1.238a2.3,2.3,0,0,0,3.926-1.626A2.565,2.565,0,0,0,369.393,287.406Z" transform="translate(-55.242 -19.761)"/><path class="l" d="M384.455,274.5a12.012,12.012,0,0,1-3.379-1.265,2.3,2.3,0,0,0-2.321,3.971,16.9,16.9,0,0,0,4.477,1.728,2.351,2.351,0,0,0,2.829-1.607A2.324,2.324,0,0,0,384.455,274.5Z" transform="translate(-60.526 -14.745)"/><path class="l" d="M333.442,291.926a2.3,2.3,0,0,0-4.2-.549,5.56,5.56,0,0,1-.354.585c-.111.126-.226.249-.348.364a2.32,2.32,0,0,0,0,3.252,2.346,2.346,0,0,0,3.252,0,7.07,7.07,0,0,0,1.421-1.88A2.437,2.437,0,0,0,333.442,291.926Z" transform="translate(-40.642 -21.668)"/><path class="l" d="M319.276,277.149a2.325,2.325,0,0,0-2.3-2.3,6.087,6.087,0,0,0-3.727,1.605,2.316,2.316,0,0,0,0,3.252,2.35,2.35,0,0,0,3.252,0c.016-.016.034-.029.051-.045l.026-.018a2.99,2.99,0,0,0,.309-.151l.022-.007c.077-.022.155-.04.233-.056a2.371,2.371,0,0,0,1.459-.654A2.336,2.336,0,0,0,319.276,277.149Z" transform="translate(-34.532 -15.504)"/><path class="l" d="M314.122,255.265a35.348,35.348,0,0,0-4.216-1.933,2.309,2.309,0,0,0-2.829,1.607,2.365,2.365,0,0,0,1.606,2.828,26.6,26.6,0,0,1,3.118,1.469,2.3,2.3,0,0,0,2.322-3.971Z" transform="translate(-32.303 -6.864)"/><path class="l" d="M380.7,253.875a2.324,2.324,0,0,0-2.829-1.606l-2.653,1.061a2.514,2.514,0,0,0-1.374,1.057,2.348,2.348,0,0,0-.232,1.772,2.324,2.324,0,0,0,2.829,1.606l2.653-1.061a2.513,2.513,0,0,0,1.375-1.057A2.351,2.351,0,0,0,380.7,253.875Z" transform="translate(-58.886 -6.434)"/><path class="l" d="M358.821,236.114a2.356,2.356,0,0,0-2.829,1.606l-1.281,3.7a2.314,2.314,0,0,0,1.606,2.829,2.356,2.356,0,0,0,2.828-1.606l1.282-3.7A2.315,2.315,0,0,0,358.821,236.114Z" transform="translate(-51.328 0)"/><path class="l" d="M334.213,242.571l-.873-1.6a2.321,2.321,0,0,0-3.146-.825,2.347,2.347,0,0,0-.825,3.146l.874,1.6a2.321,2.321,0,0,0,3.146.825A2.347,2.347,0,0,0,334.213,242.571Z" transform="translate(-41.12 -1.513)"/></g></svg>