<svg xmlns:xlink="http://www.w3.org/1999/xlink" xmlns="http://www.w3.org/2000/svg" width="528" height="415.171"
     viewBox="0 0 528 415.171">
    <defs>
        <style>
            .a,.l{fill:none;}.b{fill:#b6d7db;opacity:0.49;}.c{clip-path:url(#a);}.d{fill:#d19442;}.e,.k{fill:#d8a35d;}.f{fill:#947dce;}.g{fill:#ffc84f;}.h{opacity:0.15;}.i{opacity:0.3;}.j{opacity:0.5;}.k{fill-rule:evenodd;}.l{stroke:#947dce;stroke-miterlimit:10;stroke-width:0.812px;}.m{fill:#9c84d9;}
        </style>
        <clipPath id="a">
            <path class="a"
                  d="M629.2,541.8c65.816-52.735,98.723-79.1,129.619-87.682,103.22-28.662,249.862,30.329,282.109,137.244,1.679,5.562,23.793,82.816-19.061,133.429-35.88,42.376-81.017,23.223-213.488,45.747C666.553,794.655,632.367,831.218,583.451,803c-46.311-26.711-71.421-91.643-61-143.02C530.209,621.775,563.31,594.6,629.2,541.8Z"
                  transform="translate(-520.114 -446.907)"/>
        </clipPath>
    </defs>
    <g transform="translate(-520.114 -446.907)">
        <path class="b"
              d="M629.2,541.8c65.816-52.735,98.723-79.1,129.619-87.682,103.22-28.662,249.862,30.329,282.109,137.244,1.679,5.562,23.793,82.816-19.061,133.429-35.88,42.376-81.017,23.223-213.488,45.747C666.553,794.655,632.367,831.218,583.451,803c-46.311-26.711-71.421-91.643-61-143.02C530.209,621.775,563.31,594.6,629.2,541.8Z"
              transform="translate(0)"/>
        <g transform="translate(520.114 446.907)">
            <g class="c">
                <g transform="translate(119.61 44.705)">
                    <path class="d"
                          d="M708.46,511.986s-1.362,15.19,8.008,23.591-21.593,0-21.593,0,5.763-14.549,4.47-23.591S708.46,511.986,708.46,511.986Z"
                          transform="translate(-546.794 -459.142)"/>
                    <ellipse class="e" cx="16.381" cy="22.349" rx="16.381" ry="22.349"
                             transform="translate(140.343 14.035)"/>
                    <path class="f"
                          d="M859.324,652.237c-.348,5.487-6.021,30.347-13.113,52.444-5.811,18.141-12.593,34.428-18.167,36.679-12.367,4.977-105.746,11.807-124.943,2.65-.449-.335-.933-.7-1.394-1.1-7.2-5.86-15.017-17.431-19.161-28.268,0-.012-11.036-31.118-13.289-37.451-.025-.061-.037-.112-.061-.161-.075-.25-.162-.486-.248-.709-.026-.087-.063-.162-.089-.25-11.62,39.679-102.448,36.791-49.768-73.409,24.8-51.87,69.055-75.535,97.311-81.819,12.231-2.725,21.463-2.19,24.834.721a18.319,18.319,0,0,0,11.435,4.442,24.786,24.786,0,0,0,6.42-.585,31.94,31.94,0,0,0,6.807-2.314c1.045-.486,1.654-.833,1.654-.833a66.418,66.418,0,0,1,17.3,1.032C848.773,535.828,859.9,643.017,859.324,652.237Z"
                          transform="translate(-595.762 -453.24)"/>
                    <path class="g"
                          d="M801.806,817.13h-64.37q.129-5.914.288-11.923c.136-5.476.289-10.989.444-16.445.164-5.784.328-11.519.482-17.11.153-5.36.3-10.585.434-15.6.366-14.16.616-26.662.568-35.742-.038-8.6-.346-14.123-1.089-15.066-.28-.357-.568-.289-.878.193-.973,1.523-2.072,7.181-3.276,15.8-.646,4.578-1.311,10-2.005,16.068-.685,5.939-1.388,12.522-2.121,19.557-.51,4.935-1.031,10.1-1.571,15.443-.607,6.121-1.233,12.453-1.869,18.931-.473,4.742-.945,9.563-1.428,14.431q-.563,5.7-1.127,11.461H652.523c.02-.173.038-.357.068-.53.626-4.464,1.273-9.157,1.938-14.025.79-5.784,1.6-11.808,2.42-17.967.761-5.755,1.541-11.635,2.313-17.534,1.581-12.039,3.152-24.214,4.626-35.771,1.418-11.056,2.739-21.555,3.914-30.817,2.719-21.63,4.569-36.6,4.569-36.6a7.8,7.8,0,0,0,.588.53.214.214,0,0,0,.047.038,8.539,8.539,0,0,0,2.034,1.215,12.726,12.726,0,0,0,3.065.858c1.591.029,3.8.067,6.518.115,4.819.087,11.219.175,18.565.251,5.494.058,11.519.106,17.784.126,1.639.009,3.287.018,4.946.009h.077c4.019.009,8.1.009,12.184-.009,6.42-.029,12.85-.1,19.018-.213,5.755-.106,11.3-.25,16.387-.452,2.207-.1,4.329-.193,6.352-.3.02.009.038,0,.058,0l.5-.029c.512-.029.79-.049.79-.049,1.031-.058,2.025-.126,3-.193s1.91-.124,2.815-.2h.009c.752-.058,1.475-.115,2.18-.182.463-.04.925-.087,1.368-.135.222-.02.444-.04.656-.069s.433-.047.645-.067.426-.047.628-.067.4-.047.607-.076c.289-.029.568-.067.848-.106,1.08-.145,2.053-.289,2.921-.444a20.472,20.472,0,0,0,3.315-.838c.087-.029.175-.067.26-.106a3.789,3.789,0,0,0,.453-.2c.067-.038.135-.077.193-.106s.116-.077.164-.115a1.228,1.228,0,0,0,.26-.222,1.031,1.031,0,0,1-.011.126c0,.077-.009.2-.018.366-.009.211-.02.492-.038.838-.011.231-.02.492-.038.772-.029.53-.058,1.156-.087,1.87-.009.182-.02.366-.029.559a.483.483,0,0,0-.009.115c-.011.27-.029.55-.038.839s-.038.6-.049.905c-.029.57-.058,1.167-.1,1.794-.009.26-.018.53-.038.8q-.028.579-.058,1.186c-.018.27-.029.55-.038.84-.058,1.069-.115,2.2-.184,3.393-.027.6-.057,1.215-.095,1.841s-.058,1.271-.1,1.938c-.049.914-.1,1.859-.145,2.823-.077,1.475-.153,3.017-.24,4.607-.038.8-.087,1.61-.126,2.439-.1,1.89-.2,3.857-.308,5.88-.087,1.455-.155,2.95-.242,4.473-.047.984-.106,1.976-.153,2.979q-.175,3.166-.348,6.5c-.222,4.087-.385,8.31-.5,12.637-.433,15.336-.27,31.983.319,48.293.221,5.773.481,11.5.8,17.11s.675,11.124,1.08,16.445Q801.275,811.35,801.806,817.13Z"
                          transform="translate(-569.315 -376.787)"/>
                    <path class="h"
                          d="M645.924,629.509c.024.087.061.162.087.25.087.224.173.46.248.709.024.049.038.1.063.161,2.252,6.334,13.288,37.439,13.288,37.451,4.143,10.837,11.957,22.408,19.161,28.269-4.889-17.705-20.132-69.028-19.547-89.708C656.312,626.573,645.924,629.5,645.924,629.509Z"
                          transform="translate(-572.824 -406.673)"/>
                    <path class="h"
                          d="M741.235,576.6S703.169,666.28,785.7,712.1l1.648,1.293,1.256-21.7s-35.924-59.44-35.963-60.9S741.235,576.6,741.235,576.6Z"
                          transform="translate(-526.803 -422.645)"/>
                    <path class="h"
                          d="M714.311,529.681c.049,1.48-.734,2.451-3.111,2.127-7.415-1.008-15.789-.8-21.873,1.991a5.166,5.166,0,0,1-5-.213c-3.9-2.276-6.309-9.07-7.267-12.081a2.056,2.056,0,0,1-.1-.659c12.231-2.725,21.463-2.19,24.834.721a18.319,18.319,0,0,0,11.435,4.442A10.072,10.072,0,0,1,714.311,529.681Z"
                          transform="translate(-556.321 -453.24)"/>
                    <g class="i" transform="translate(156.104 286.056)">
                        <path d="M700.762,665.6c-.219-.017-.437-.035-.649-.054C700.113,665.548,700.343,665.565,700.762,665.6Z"
                              transform="translate(-700.113 -661.405)"/>
                        <path class="j"
                              d="M700.537,667.04c17.332,1.383,55.214-1.066,55.214-1.066,11.131-.64,18.949-1.63,20.322-3.131,0,0,0,.046-.009.129-.083,1.739-1.08,21.648-2.481,47.746a12.639,12.639,0,0,1-1.821-.21c-3.9-.723-6.893-3.14-9.172-6.518a31.5,31.5,0,0,1-3.567-7.449C746.1,671.954,706.09,667.539,700.537,667.04Z"
                              transform="translate(-699.888 -662.843)"/>
                    </g>
                    <g transform="translate(136.555)">
                        <g transform="translate(3.458 6.232)">
                            <path class="g"
                                  d="M698.566,497.485s28.359,15.723,19.942-9.521C712.685,470.5,679.225,486.231,698.566,497.485Z"
                                  transform="translate(-688.01 -480.161)"/>
                            <path class="g"
                                  d="M704.275,491.063s-15.867,9.414-14.337,18.859c0,0-3.5-28.2,12.279-28.906s21.884.813,20.484,30.63C722.7,511.647,718.116,487.929,704.275,491.063Z"
                                  transform="translate(-689.607 -479.77)"/>
                        </g>
                        <path class="g"
                              d="M697.39,483.755s.8-8.786,9.506-7.542,12.442,6.222,13.686,11.2,2.489,8.71,3.733,8.71c0,0-3.733,3.733-4.977,2.489,0,0,3.229,8.947-.875,16.293,0,0-1.614-11.317-7.835-12.562S697.39,483.755,697.39,483.755Z"
                              transform="translate(-682.011 -476.092)"/>
                        <path class="g"
                              d="M703.525,481.321s-6.22-3.733-12.442,4.977l-3.733,7.466s1.245,1.244,3.733,0c0,0-1.133,8.766.055,13.715l3.678-14.959Z"
                              transform="translate(-687.35 -473.735)"/>
                    </g>
                    <path class="h" d="M785.766,652.962s4.514-36.912-95.69-32.282,72.578,29.4,72.578,29.4Z"
                          transform="translate(-565.967 -399.421)"/>
                    <g transform="translate(83.322 68.19)">
                        <g transform="translate(0 148.272)">
                            <path class="k"
                                  d="M701.536,634.968c-1.144-.486-12.972-8.89-19.652-10.038s-16.719-2.218-20.117-3.478c-3.995-1.481-5.154.061-.587,2.227,2.969,1.408,9.1,3.708,10.479,3.874.671.08-3.667-.852-8.354-2.214-4.983-1.446-10.365-3.305-10.689-2.422-.625,1.711,13.659,6.787,16.207,7.267a64.589,64.589,0,0,1-6.712-1.351c-3.018-.783-6.438-2.14-7.176-1.559-1.163.914,6.328,4.552,12.645,5.937.095.216-1.993.378-9.385-1.772-.745-.216-2.693-.037-.309,1.3,5.017,2.815,6.966,4.4,14.492,5.222,7.339.806,15.576-.072,20.728,2.117Z"
                                  transform="translate(-652.597 -615.571)"/>
                            <path class="k"
                                  d="M679.584,627.684s-5.228-6.429-11.546-7.916c-3.754-.885-3.59-1.835-4.217-2.171-2.077-1.117-.308,3.041,2.841,4.318,2.56,1.039,3.673,5.638,5.177,6.714s6.087,3.189,7.313,2.664S679.584,627.684,679.584,627.684Z"
                                  transform="translate(-647.106 -617.409)"/>
                        </g>
                        <path class="f"
                              d="M806.239,546.271c21.726,22.736,36.373,43.419,41.454,108.082,2.578,32.807-1.294,65.109-3.966,82.093a20.251,20.251,0,0,1-15.252,16.471c-75.1,18.41-150.063-57.353-150.063-57.353-4.07-1.887,5.54-16.175,5.54-16.175,40.5,2.751,71.416,6.421,102.7,21.351-.158-.089-27.057-61.8-30.045-78.482-7.82-43.738-41.708-83.712-30.872-99.766C729.477,516.938,784.323,523.338,806.239,546.271Z"
                              transform="translate(-639.404 -520.61)"/>
                    </g>
                    <g transform="translate(100.925 285.836)">
                        <path class="l"
                              d="M664.089,817.207l.848-8.936,1.639-17.158L668.34,772.7l1.725-18.054,1.889-19.712,1.475-15.49,1.446-15.133,1.9-19.838,1.4-14.594.3-3.162.386-4.02"
                              transform="translate(-664.089 -662.699)"/>
                        <path class="l"
                              d="M676.122,815.875l.627-6.487,1.619-16.763,1.745-18.045,1.706-17.7,1.947-20.185,1.484-15.365,1.484-15.355,2.15-22.18,1.282-13.341.472-4.82.039-.434"
                              transform="translate(-657.691 -661.367)"/>
                        <path class="l"
                              d="M701.47,665.2l-.048.559-.4,5.032-1.089,13.5-1.812,22.324-1.224,15.211-1.3,16.03-1.571,19.452-1.378,17.052L691.2,792.288,689.9,808.231l-.617,7.644"
                              transform="translate(-650.691 -661.367)"/>
                        <line class="l" x2="0.39" y2="38.782" transform="translate(67.93 3.84)"/>
                        <path class="l"
                              d="M719.052,815.875l.145-8.01.318-16.888.289-16.068.318-16.994.337-18.16.28-15.481.357-19.307.376-20.213.212-11.577.068-3.759.067-3.538v-.328l.01-.347"
                              transform="translate(-634.863 -661.367)"/>
                        <path class="l"
                              d="M731.824,665.128v.077l-.019,2.911-.067,14.324-.01,2.15-.116,21.524-.1,18.893-.077,15.567-.1,18.17-.087,17.274-.077,15.722-.087,16.686-.039,7.49"
                              transform="translate(-628.482 -661.408)"/>
                        <path class="l"
                              d="M742.065,665.128l.019,1.08.337,17.63.4,21.062.01.723.337,17.775.308,15.673.328,17.534.318,16.329.309,16.473.318,16.522.193,9.986"
                              transform="translate(-622.626 -661.408)"/>
                    </g>
                    <path class="l" d="M663.862,676.554s103.337,4.877,130.64,0"
                          transform="translate(-563.285 -369.496)"/>
                    <path class="l" d="M733.256,692.177c-36.157,8.189-70.758-4.758-70.758-4.758"
                          transform="translate(-564.011 -363.719)"/>
                    <path class="l" d="M708.437,688.927s32.631,9.169,61.291,1.426"
                          transform="translate(-539.582 -362.917)"/>
                    <path class="l" d="M661.338,696.6s26.057,13.642,68.379,6.688"
                          transform="translate(-564.627 -358.837)"/>
                    <path class="l" d="M659.945,707.533s40.547,12.38,68.508,6.009"
                          transform="translate(-565.368 -353.023)"/>
                    <path class="l" d="M658.549,718.4s20.65,16.189,68.529,8.927"
                          transform="translate(-566.11 -347.247)"/>
                    <path class="l" d="M656.924,730.889s31.487,16.453,69.45,5.233"
                          transform="translate(-566.975 -340.604)"/>
                    <path class="l" d="M655.412,742.335s22.3,15.831,69.892,6.635"
                          transform="translate(-567.779 -334.517)"/>
                    <path class="l" d="M653.832,754.068s30.782,16.091,70.891,3.091"
                          transform="translate(-568.619 -328.278)"/>
                    <path class="l" d="M653.194,763.753c-.424-.337-.627-.53-.627-.53"
                          transform="translate(-569.291 -323.41)"/>
                    <path class="l" d="M709.406,700.362s13.631,11.255,59.807,2.9"
                          transform="translate(-539.067 -356.836)"/>
                    <path class="l" d="M709.639,711.421S728.768,720.341,768,713.3"
                          transform="translate(-538.943 -350.956)"/>
                    <path class="l" d="M709.03,723.7s29.537,8.9,59.291,0" transform="translate(-539.267 -344.428)"/>
                    <path class="l" d="M708.753,733.876s28.713,12.764,60.287,0"
                          transform="translate(-539.414 -339.015)"/>
                    <path class="l" d="M708.437,745.052s27.337,9.592,61.564,0"
                          transform="translate(-539.582 -333.072)"/>
                    <path class="l" d="M708.149,755.785s23.042,10.339,63.084,0"
                          transform="translate(-539.736 -327.365)"/>
                    <path class="h"
                          d="M726.456,539.128c.709,2.324,5.72,10.491,4.171,17.755s-35.172,79.726-49.027,89.09-38.871,20.009-38.871,20.009l68.358-94.573,3.779-32.28S722.023,524.606,726.456,539.128Z"
                          transform="translate(-574.523 -446.005)"/>
                    <g transform="translate(128.285 62.153)">
                        <path class="k"
                              d="M694.731,542.3s4.174-7.314,3.264-13.847c-.539-3.885.421-4.078.51-4.794.3-2.377-2.995.826-3.05,4.278-.044,2.806-3.995,5.551-4.462,7.369s-.789,6.94.158,7.908S694.731,542.3,694.731,542.3Z"
                              transform="translate(-677.384 -513.386)"/>
                        <path class="k"
                              d="M696.694,564.534c.04-1.262,3.664-15.557,2.3-22.308s-4.1-18.461-4.154-22.141c-.063-4.33-1.95-4.862-2.327.26-.244,3.33-.107,11.782.243,13.155a53.315,53.315,0,0,1-1.28-8.657c-.167-2.892-.85-1.749-1.815-1.48-1.783.5-1,5.379-.521,7.971a25.034,25.034,0,0,1-1.294-6.358c-.127-1.472-.839-1.089-1.712-.954s-1.241,1.193-.236,7.689c-.17.169-.437,1.8-1.112-6-.068-.783-2.356-2.367-2.44.409-.149,4.871-1.169,4.441.81,11.876,1.93,7.25,5.784,14.735,5.6,20.421Z"
                              transform="translate(-681.951 -516.668)"/>
                    </g>
                    <path class="m"
                          d="M727.74,540.048a178.783,178.783,0,0,0-64.56,21.789c-17.223,9.871-59.985,34.376-64.56,75.053-.4,3.554-3.43,34.147,15.333,46.806,12.556,8.471,28.343,4.5,32.536,3.451,7.449-1.872,17.414-6.067,56.235-57.52,22.062-29.243,33.358-47.126,41.964-71.017,1.446-4.015,2.523-7.383,3.229-9.684Z"
                          transform="translate(-598.201 -442.084)"/>
                </g>
            </g>
        </g>
        <g transform="translate(571.809 448.01)">
            <g transform="translate(0 171.752)">
                <path class="f"
                      d="M568.053,581.729c6.4,3.825,8.518,8.311,6.027,12.484-2.2,3.679-7.133,4.111-13.4.449-6.315-3.773-8.166-8.572-5.882-12.4C557.172,578.3,562.056,578.148,568.053,581.729Zm-5.818,10.4c4.9,2.924,8.576,3.079,9.961.761,1.558-2.607-.74-5.671-5.55-8.543-4.637-2.768-8.386-3.4-9.961-.761C555.353,585.817,557.107,589.066,562.236,592.129Z"
                      transform="translate(-553.863 -549.436)"/>
                <path class="f"
                      d="M562.589,574.374l-.034.058-.188,4.329-2.235-.666.254-5.43,1.3-2.172,18.831,11.248-1.471,2.462Z"
                      transform="translate(-550.529 -554.045)"/>
                <path class="f"
                      d="M579.644,562.324c6.4,3.825,8.518,8.31,6.026,12.482-2.2,3.679-7.132,4.111-13.4.449-6.316-3.771-8.166-8.57-5.882-12.395C568.762,558.891,573.647,558.743,579.644,562.324Zm-5.819,10.4c4.9,2.923,8.578,3.077,9.962.76,1.558-2.607-.741-5.669-5.551-8.541-4.635-2.77-8.386-3.4-9.961-.761C566.944,566.412,568.7,569.661,573.825,572.724Z"
                      transform="translate(-547.7 -559.755)"/>
            </g>
            <g transform="translate(401.785 148.637)">
                <path class="f"
                      d="M818.126,544.664l24.657,8.6-2.5,2.377L819.7,548.209l-.072.067,6.357,20.941-2.5,2.377-7.313-25.07Z"
                      transform="translate(-816.167 -544.664)"/>
                <path class="f" d="M821.455,569.84l35.918-14.853,2.342,2.469-35.952,14.815Z"
                      transform="translate(-813.355 -539.175)"/>
                <path class="f"
                      d="M856.245,588.494l-24.622-8.636,2.5-2.377,20.685,7.544.072-.069-6.461-21.048,2.5-2.377,7.349,25.035Z"
                      transform="translate(-807.948 -535.695)"/>
            </g>
            <g transform="translate(121.115)">
                <path class="f"
                      d="M654.214,466.84c-4.7,9.148-10.693,12.453-16.653,9.39-5.257-2.7-6.285-9.457-1.794-18.4,4.638-9.024,11.082-11.992,16.546-9.183C657.985,451.562,658.618,458.271,654.214,466.84Zm-14.826-7.1c-3.6,7-3.485,12.076-.175,13.778,3.727,1.915,7.74-1.517,11.272-8.388,3.4-6.623,3.941-11.842.174-13.776C647.473,449.718,643.155,452.417,639.388,459.743Z"
                      transform="translate(-632.932 -447.627)"/>
            </g>
            <g transform="translate(48.331 360.942)">
                <path class="f"
                      d="M600.919,692.7c1.951,7.452.262,12.289-4.592,13.561-4.283,1.121-8.233-2.132-10.2-9.365-1.924-7.349.187-12.226,4.637-13.392C595.386,682.3,599.092,685.722,600.919,692.7ZM589.1,696.155c1.492,5.7,4.093,8.477,6.79,7.772,3.034-.795,3.558-4.716,2.092-10.313-1.411-5.395-3.722-8.573-6.789-7.771C588.6,686.523,587.542,690.187,589.1,696.155Z"
                      transform="translate(-585.416 -683.267)"/>
            </g>
            <g transform="translate(124.062 384.965)">
                <path class="f"
                      d="M647.262,702.2l-.084-.044-6.107.11.746-3.2,7.659-.11,3.169,1.639-14.2,27.464-3.592-1.857Z"
                      transform="translate(-634.856 -698.95)"/>
            </g>
            <g transform="translate(95.654 77.219)">
                <path class="f"
                      d="M620.187,501.39l-.058.023-2.553,3.068-1.265-1.735,3.215-3.839,2.164-.868,7.527,18.752-2.452.985Z"
                      transform="translate(-616.31 -498.039)"/>
            </g>
            <g transform="translate(352.06 341.339)">
                <path class="f"
                      d="M796.111,673.716l-.084-.044-6.107.109.744-3.2,7.66-.109,3.169,1.639-14.2,27.464-3.592-1.856Z"
                      transform="translate(-783.704 -670.469)"/>
            </g>
            <g transform="translate(341.647 39.481)">
                <path class="f"
                      d="M785.608,475.678l-.058-.031-4.284.078.522-2.247,5.373-.077,2.224,1.149-9.959,19.266-2.52-1.3Z"
                      transform="translate(-776.906 -473.402)"/>
            </g>
        </g>
    </g>
</svg>
