<svg xmlns:xlink="http://www.w3.org/1999/xlink" xmlns="http://www.w3.org/2000/svg" width="568" height="414.26"
     viewBox="0 0 568 414.26">
    <defs>
        <style>
            .a,.ab{fill:none;}.ac,.b{fill:#947dce;}.b{opacity:0.38;}.c{fill:#f0f0f0;}.d{fill:#d1d1d1;}.e{fill:#b5b5b5;}.aj,.al,.f{fill:#fff;}.g{fill:#deb282;}.h{clip-path:url(#a);}.i{fill:#bf9970;}.j{fill:#efbf8b;}.k,.t{opacity:0.2;}.k,.p,.t{mix-blend-mode:multiply;isolation:isolate;}.l{clip-path:url(#b);}.m{clip-path:url(#c);}.n{fill:#facfa6;}.o{fill:#965309;}.p{fill:#f6bf83;opacity:0.4;}.q{fill:#eea75d;}.r{clip-path:url(#d);}.s{clip-path:url(#e);}.t{fill:#d0dce3;}.u{clip-path:url(#f);}.v{clip-path:url(#i);}.w{fill:#d8a35d;}.x{fill:#62548a;}.y{fill:#ffc84f;}.z{opacity:0.3;}.aa{opacity:0.5;}.ab{stroke:#947dce;stroke-miterlimit:10;stroke-width:0.984px;}.ad{fill:#d19442;}.ae{fill:#999;}.af{fill:#ccc;}.ag{fill:gray;}.ah{opacity:0.15;}.ai{fill:#e6e600;}.aj{font-size:10px;}.aj,.al{font-family:BPGArial,
            BPG Arial;}.ak{fill:#d42a2a;}.al{font-size:7px;}
        </style>
        <clipPath id="a">
            <rect class="a" width="38.354" height="137.457" transform="matrix(0.299, -0.954, 0.954, 0.299, 0, 36.604)"/>
        </clipPath>
        <clipPath id="b">
            <path class="a" d="M361.766,579.794l1.447,35.65,3.587-.266,6.1-35.275Z"
                  transform="translate(-361.766 -579.794)"/>
        </clipPath>
        <clipPath id="c">
            <path class="a" d="M373.953,579.945l6.2,34.218-25.678,2.316-6.2-34.217Z"
                  transform="translate(-348.274 -579.945)"/>
        </clipPath>
        <clipPath id="d">
            <path class="a" d="M539.58,565.408l3.839,35.472-3.588.267L528.59,567.16Z"
                  transform="translate(-528.59 -565.408)"/>
        </clipPath>
        <clipPath id="e">
            <path class="a" d="M542.679,566.375l6.2,34.218L523.2,602.908,517,568.691Z"
                  transform="translate(-516.999 -566.375)"/>
        </clipPath>
        <clipPath id="f">
            <rect class="a" width="137.457" height="38.354" transform="matrix(0.997, -0.074, 0.074, 0.997, 0, 10.183)"/>
        </clipPath>
        <clipPath id="i">
            <path class="a"
                  d="M339.289,465.181C310.8,413.938,302.436,355.65,335.23,299.714l.966-1.639c33.578-56.523,112.181-58.154,159.595-36.417,16.5,7.566,28.541,20.324,41.378,32.756,15.144,14.665,26.758-7.791,34.161-18.712,49.946-73.683,164.594-57.911,229.626-15.438a183.625,183.625,0,0,1,44.013,39.953c64.589,82.119,35.878,201.626-18.209,264.563-92.51,107.643-268.211,84.28-376.134,15.186C405.711,551.212,365.332,512.03,339.289,465.181Z"
                  transform="translate(-314.046 -224.424)"/>
        </clipPath>
    </defs>
    <g transform="translate(-314.046 -224.424)">
        <g transform="translate(314.046 224.424)">
            <path class="b"
                  d="M338.815,465.181c-27.95-51.243-36.161-109.531-3.983-165.467l.948-1.639c32.947-56.523,110.074-58.154,156.6-36.417,16.193,7.566,28,20.324,40.6,32.756,14.859,14.665,26.256-7.791,33.52-18.712C615.5,202.019,728,217.791,791.809,260.264A181.452,181.452,0,0,1,835,300.217c63.375,82.119,35.2,201.626-17.868,264.563-90.771,107.643-263.172,84.28-369.068,15.186C403.989,551.212,364.368,512.03,338.815,465.181Z"
                  transform="translate(-314.046 -224.424)"/>
            <g transform="translate(419.391 184.735)">
                <path class="c" d="M821.261,461.973l46.212-20.956,70.193,21.963,18.984,41.355Z"
                      transform="translate(-808.041 -441.017)"/>
                <rect class="d" width="26.063" height="73.192"
                      transform="matrix(0.299, -0.954, 0.954, 0.299, 51.649, 24.874)"/>
                <path class="e" d="M928.609,492.037l-69.852-21.856L814.911,505.1,938.26,543.69l-9.313-45.561Z"
                      transform="translate(-807.107 -445.306)"/>
                <rect class="f" width="141.861" height="44.272"
                      transform="matrix(0.954, 0.299, -0.299, 0.954, 13.22, 20.956)"/>
                <rect class="g" width="38.354" height="137.457"
                      transform="matrix(0.299, -0.954, 0.954, 0.299, 3.232, 60.867)"/>
                <g transform="translate(3.311 24.013)">
                    <g class="h" transform="translate(0 0)">
                        <path class="i"
                              d="M916.743,485.61c-2.952,9.434-13.264,14.605-23.031,11.549s-15.292-13.183-12.34-22.617Z"
                              transform="translate(-820.076 -469.961)"/>
                    </g>
                </g>
            </g>
            <g transform="translate(34.745 157.869)">
                <g transform="translate(4.177 132.435)">
                    <rect class="g" width="156.982" height="9.893"
                          transform="matrix(0.997, -0.073, 0.073, 0.997, 0, 11.513)"/>
                    <path class="j" d="M361.766,579.794l1.447,35.65,3.587-.266,6.1-35.275Z"
                          transform="translate(-359.987 -566.999)"/>
                    <path class="j" d="M539.58,565.408l3.839,35.472-3.588.267L528.59,567.16Z"
                          transform="translate(-384.525 -564.882)"/>
                    <g class="k" transform="translate(1.779 12.796)">
                        <g class="l">
                            <g transform="translate(-11.507 0.129)">
                                <g class="m">
                                    <g transform="translate(-5.99 -7.933)">
                                        <g transform="translate(10.48)">
                                            <g transform="translate(0 2.169)">
                                                <path class="n"
                                                      d="M355.667,618.8l-2.129-1.024c.062-.347,3.244-13.8,1.864-18.611s-.5-12.437.672-16.079c1.1-3.4,5.3-9.855,5.329-9.9l2.517,2.655c-.036.046-5.371,3.873-6.452,7.228-1.14,3.519-2.03,11.229-.668,15.951C358.195,603.874,355.731,618.454,355.667,618.8Z"
                                                      transform="translate(-353.538 -573.188)"/>
                                            </g>
                                            <path class="n"
                                                  d="M374.54,571.783s2.727.317,3.4,4.132,5.161,7.773,4.724,10.118,1.053,3.071,1.449,1.551-.65-8.34-.676-10.67.728-3.908-.417-4.6-2.45-1.789-3.634-1.658S374.54,571.783,374.54,571.783Z"
                                                  transform="translate(-356.627 -570.644)"/>
                                            <path class="o"
                                                  d="M375.709,618.529a47.987,47.987,0,0,0-.727-7.284c-.558-1.992-1.507-8.082,1.122-13.474A36.215,36.215,0,0,0,379.2,589.9a24.458,24.458,0,0,1-.939,7.527c-1.139,3.6-.417,12.166,1.125,13.85s1.221,8.515.1,9.559S375.709,618.529,375.709,618.529Z"
                                                  transform="translate(-356.599 -573.476)"/>
                                            <path class="o"
                                                  d="M370.466,573.278s1.859,4.964,1.258,8.181a57.02,57.02,0,0,0-.768,6.607s2.228-2,3.031-8.784-.829-6.736-.829-6.736Z"
                                                  transform="translate(-356.028 -570.924)"/>
                                        </g>
                                        <path class="p"
                                              d="M362.836,620.842c.037-.186,5.431-12.935,3.733-21.239s-1.637-9.859-1.344-12.061.7-3.132,1.464-7.225-.556-6.331-.556-6.331a11.1,11.1,0,0,0-2.118.163,3.114,3.114,0,0,1-.322,2.34c-.715,1.351-5.065,4.151-5.759,9.11s-1.057,7.529,1.08,11.614,1.157,7.453.224,12.464-1.221,6.532-1.4,7.5a5.414,5.414,0,0,0-.045,2.1C357.883,619.411,362.836,620.842,362.836,620.842Z"
                                              transform="translate(-343.626 -571.136)"/>
                                        <path class="q"
                                              d="M365.737,626.084s4.692-.894,4.34-7.1-.48-6.747.264-10.108-.638-6.511,2.455-10.045c-1.01,2.319-2.278,9.718-1.349,12.2s2.889,11.234,1.776,13.466a4.193,4.193,0,0,1-3.679,2.319c-.351.013-2.876-.13-2.876-.13Z"
                                              transform="translate(-344.853 -574.791)"/>
                                        <path class="p"
                                              d="M346.694,618.45c.033-.184,5.427-12.935,3.732-21.238s-1.638-9.86-1.342-12.062.7-3.129,1.463-7.224-.557-6.332-.557-6.332a11.109,11.109,0,0,0-2.119.165,3.116,3.116,0,0,1-.322,2.34c-.716,1.351-5.065,4.149-5.761,9.109s-1.057,7.53,1.08,11.615,1.161,7.452.223,12.465-1.22,6.53-1.4,7.5a5.4,5.4,0,0,0-.045,2.1C341.741,617.021,346.694,618.45,346.694,618.45Z"
                                              transform="translate(-341.251 -570.784)"/>
                                        <path class="p"
                                              d="M381.247,618.384c.033-.184,5.429-12.935,3.736-21.239s-1.639-9.858-1.344-12.061.7-3.13,1.464-7.224-.558-6.333-.558-6.333a11.113,11.113,0,0,0-2.119.164,3.119,3.119,0,0,1-.322,2.342c-.715,1.351-5.063,4.149-5.759,9.11s-1.057,7.53,1.08,11.613,1.159,7.454.222,12.465-1.22,6.532-1.4,7.5a5.333,5.333,0,0,0-.045,2.1C376.294,616.956,381.247,618.384,381.247,618.384Z"
                                              transform="translate(-346.334 -570.774)"/>
                                    </g>
                                </g>
                            </g>
                        </g>
                    </g>
                    <g class="k" transform="translate(144.065 0.525)">
                        <g class="r">
                            <g transform="translate(-9.886 0.825)">
                                <g class="s">
                                    <g transform="translate(-5.989 -7.932)">
                                        <g transform="translate(10.48)">
                                            <g transform="translate(0 2.169)">
                                                <path class="n"
                                                      d="M524.392,605.233l-2.128-1.023c.062-.348,3.244-13.8,1.863-18.611-1.389-4.824-.5-12.437.672-16.079,1.1-3.4,5.3-9.855,5.328-9.9l2.52,2.654c-.038.047-5.373,3.874-6.452,7.228-1.142,3.52-2.031,11.23-.669,15.952C526.922,590.3,524.456,604.884,524.392,605.233Z"
                                                      transform="translate(-522.264 -559.618)"/>
                                            </g>
                                            <path class="n"
                                                  d="M543.264,558.212s2.728.318,3.4,4.131,5.162,7.773,4.725,10.119,1.053,3.07,1.45,1.55-.649-8.34-.677-10.669.729-3.909-.416-4.6-2.45-1.789-3.635-1.658S543.264,558.212,543.264,558.212Z"
                                                  transform="translate(-525.353 -557.074)"/>
                                            <path class="o"
                                                  d="M544.435,604.958a47.909,47.909,0,0,0-.727-7.285c-.558-1.991-1.505-8.082,1.122-13.473a36.336,36.336,0,0,0,3.094-7.874,24.49,24.49,0,0,1-.939,7.527c-1.14,3.6-.418,12.167,1.124,13.85s1.222,8.515.1,9.559S544.435,604.958,544.435,604.958Z"
                                                  transform="translate(-525.325 -559.906)"/>
                                            <path class="o"
                                                  d="M539.192,559.708s1.858,4.963,1.258,8.181a56.906,56.906,0,0,0-.769,6.607s2.229-2,3.032-8.785-.828-6.735-.828-6.735Z"
                                                  transform="translate(-524.754 -557.354)"/>
                                        </g>
                                        <path class="p"
                                              d="M531.562,607.271c.036-.185,5.431-12.935,3.732-21.238s-1.636-9.86-1.343-12.061.7-3.132,1.464-7.226-.557-6.331-.557-6.331a11.084,11.084,0,0,0-2.117.164,3.11,3.11,0,0,1-.322,2.34c-.716,1.351-5.065,4.151-5.76,9.11s-1.057,7.528,1.08,11.613,1.158,7.454.224,12.465-1.22,6.532-1.4,7.5a5.437,5.437,0,0,0-.045,2.1C526.609,605.841,531.562,607.271,531.562,607.271Z"
                                              transform="translate(-512.351 -557.566)"/>
                                        <path class="q"
                                              d="M534.462,612.514s4.691-.894,4.341-7.1-.481-6.747.264-10.108-.638-6.511,2.453-10.045c-1.008,2.318-2.276,9.718-1.348,12.2s2.889,11.234,1.776,13.465a4.194,4.194,0,0,1-3.679,2.32c-.351.012-2.877-.13-2.877-.13Z"
                                              transform="translate(-513.578 -561.221)"/>
                                        <path class="p"
                                              d="M515.419,604.879c.035-.184,5.427-12.935,3.734-21.239s-1.64-9.859-1.344-12.061.7-3.13,1.464-7.224-.558-6.333-.558-6.333a11.1,11.1,0,0,0-2.118.166,3.119,3.119,0,0,1-.322,2.34c-.716,1.351-5.065,4.149-5.76,9.108s-1.057,7.53,1.08,11.615,1.16,7.452.223,12.465-1.22,6.53-1.4,7.5a5.43,5.43,0,0,0-.046,2.1C510.467,603.451,515.419,604.879,515.419,604.879Z"
                                              transform="translate(-509.977 -557.214)"/>
                                        <path class="p"
                                              d="M549.973,604.814c.033-.184,5.429-12.935,3.736-21.238s-1.64-9.858-1.344-12.062.7-3.13,1.464-7.223-.558-6.333-.558-6.333a11.111,11.111,0,0,0-2.119.164,3.112,3.112,0,0,1-.323,2.341c-.714,1.351-5.062,4.15-5.758,9.11s-1.057,7.53,1.079,11.614,1.159,7.454.222,12.464-1.218,6.533-1.4,7.5a5.343,5.343,0,0,0-.045,2.1C545.02,603.385,549.973,604.814,549.973,604.814Z"
                                              transform="translate(-515.059 -557.204)"/>
                                    </g>
                                </g>
                            </g>
                        </g>
                    </g>
                </g>
                <path class="t"
                      d="M508.505,602.938c.224,3.018-27.9,7.568-62.822,10.162s-63.41,2.249-63.634-.768,27.9-7.566,62.822-10.16S508.281,599.923,508.505,602.938Z"
                      transform="translate(-358.793 -437.598)"/>
                <rect class="f" width="144.074" height="132.817" transform="translate(0 10.673) rotate(-4.248)"/>
                <rect class="g" width="137.457" height="38.354"
                      transform="matrix(0.997, -0.074, 0.074, 0.997, 2.777, 15.177)"/>
                <g transform="translate(2.757 4.732)">
                    <g class="u" transform="translate(0 0)">
                        <path class="i"
                              d="M451.282,407.246c.732,9.858-6.948,18.466-17.155,19.224s-19.074-6.62-19.806-16.478Z"
                              transform="translate(-366.297 -413.915)"/>
                    </g>
                </g>
                <rect class="j" width="137.457" height="38.354"
                      transform="matrix(0.997, -0.074, 0.074, 0.997, 5.956, 57.973)"/>
                <g transform="translate(5.937 47.528)">
                    <g class="u" transform="translate(0 0)">
                        <path class="i"
                              d="M455.009,457.422c.733,9.858-6.948,18.466-17.155,19.224s-19.074-6.62-19.806-16.478Z"
                              transform="translate(-370.025 -464.091)"/>
                    </g>
                </g>
                <rect class="g" width="137.457" height="38.354"
                      transform="matrix(0.997, -0.074, 0.074, 0.997, 9.11, 100.426)"/>
                <g transform="translate(9.09 89.98)">
                    <g class="u" transform="translate(0 0)">
                        <path class="i"
                              d="M458.706,507.2c.733,9.859-6.948,18.466-17.155,19.224s-19.074-6.62-19.806-16.477Z"
                              transform="translate(-373.722 -513.865)"/>
                    </g>
                </g>
            </g>
            <g transform="translate(0)">
                <g class="v">
                    <g transform="translate(213.949 80.232)">
                        <path class="w"
                              d="M695.495,687.453s-.235,107.257,4.38,108.671c8.284,2.589,40.523,10.576,5.9,11.394-17.564,2.7-16.642-1.313-17.235-4.587-.484-2.674-9.1-97.839-10.535-105.169l-.516-2.633Z"
                              transform="translate(-581.453 -372.762)"/>
                        <path class="w"
                              d="M617.674,687.089s-6.842,106.638-11.472,108c-8.312,2.5-40.636,10.145-6.028,11.331,17.533,2.887,16.656-1.137,17.283-4.4.513-2.669,4.7-22.9,6.219-30.212.339-1.638,12.685-84.311,12.685-84.311Z"
                              transform="translate(-567.776 -372.709)"/>
                        <path class="x"
                              d="M619.486,813.733c.37-1.511-10.7-2.519-12.085-1.4s-23.9,3.3-24.151,9.805,30.823,4.607,33.02,4.682S618.759,816.7,619.486,813.733Z"
                              transform="translate(-567.591 -391.06)"/>
                        <g transform="translate(26.946 191.55)">
                            <path class="y"
                                  d="M607.857,547.567a6.9,6.9,0,0,0,3.965,1.6c9.14-.219,48.613-1.261,69.955-3.4,7.53-.755,12.8-1.646,13.688-2.691a.819.819,0,0,1,0,.086c0,1.166-.089,14.516-.261,32.018-.342,34.549,5.466,83.759,10.352,98.561,1.054,3.2-48.17.418-48.17.418-1.719-35.565-1.076-98.16-3.411-100.863-2.839-3.289-4.754,51.828-7.707,98.008-19.185,5.835-50.051,4.133-49.783,2.155C599.666,649.968,607.857,547.567,607.857,547.567Z"
                                  transform="translate(-596.483 -543.076)"/>
                            <g class="z" transform="translate(47.441)">
                                <path d="M652.547,548.966c-.148-.005-.3-.01-.442-.017C652.1,548.949,652.262,548.953,652.547,548.966Z"
                                      transform="translate(-652.105 -543.94)"/>
                                <path class="aa"
                                      d="M652.623,548.1c11.795.416,37.412-2.335,37.412-2.335,7.53-.755,12.8-1.646,13.688-2.691a.833.833,0,0,1,0,.086c0,1.166-.089,14.516-.261,32.018a8.883,8.883,0,0,1-1.242-.087A9.641,9.641,0,0,1,695.8,571a21.042,21.042,0,0,1-2.641-4.879C683.669,550.052,656.4,548.273,652.623,548.1Z"
                                      transform="translate(-652.181 -543.076)"/>
                            </g>
                            <g transform="translate(13.174 2.692)">
                                <line class="ab" x1="6.733" y2="128.918" transform="translate(0 0.586)"/>
                                <line class="ab" x1="6.738" y2="126.678" transform="translate(12.46 2.619)"/>
                                <line class="ab" x1="4.698" y2="125.707" transform="translate(26.573 2.096)"/>
                                <line class="ab" x2="1.419" y2="25.935" transform="translate(42.899 1.593)"/>
                                <line class="ab" x2="3.303" y2="127.903" transform="translate(55.806 1.034)"/>
                                <line class="ab" x2="5.07" y2="128.901" transform="translate(66.908 0.473)"/>
                                <line class="ab" x2="8.279" y2="129.503" transform="translate(77.824)"/>
                            </g>
                            <path class="ab" d="M608.542,563.423s70.225.229,88.6-3.836"
                                  transform="translate(-598.257 -545.505)"/>
                            <path class="ab" d="M655.589,578.317c-24.276,6.541-48.127-1.1-48.127-1.1"
                                  transform="translate(-598.098 -548.097)"/>
                            <path class="ab" d="M663.493,576.455s22.4,5.176,41.609-.846"
                                  transform="translate(-606.339 -547.861)"/>
                            <path class="ab" d="M606.54,588.3s18.077,8.362,46.572,2.466"
                                  transform="translate(-597.962 -549.728)"/>
                            <path class="ab" d="M605.428,601.514s27.866,7.092,46.639,2.009"
                                  transform="translate(-597.799 -551.671)"/>
                            <path class="ab" d="M604.308,614.639s14.487,10.224,46.74,3.959"
                                  transform="translate(-597.634 -553.602)"/>
                            <path class="ab" d="M603,629.737a69.051,69.051,0,0,0,47.255,1.46"
                                  transform="translate(-597.441 -555.823)"/>
                            <path class="ab" d="M601.768,643.568s15.6,9.937,47.6,2.387"
                                  transform="translate(-597.26 -557.857)"/>
                            <path class="ab" d="M600.471,657.748s21.354,9.861,48.167-.014"
                                  transform="translate(-597.07 -559.941)"/>
                            <path class="ab" d="M599.42,668.819s12.835,11.153,48.482.929"
                                  transform="translate(-596.915 -561.571)"/>
                            <path class="ab" d="M598.161,681.386s20.374,9.488,48.951.582"
                                  transform="translate(-596.73 -563.42)"/>
                            <path class="ab" d="M665.284,590.289s9.58,7.13,40.646.184"
                                  transform="translate(-606.603 -550.02)"/>
                            <path class="ab" d="M666.16,603.486s13.238,5.406,39.632-.459"
                                  transform="translate(-606.731 -551.894)"/>
                            <path class="ab" d="M666.074,618.046s20.3,5.084,40.209-1.741"
                                  transform="translate(-606.719 -553.847)"/>
                            <path class="ab" d="M666.28,630.286s19.852,7.7,40.885-1.77"
                                  transform="translate(-606.749 -555.643)"/>
                            <path class="ab" d="M666.494,643.724s18.824,5.616,41.75-1.807"
                                  transform="translate(-606.781 -557.614)"/>
                            <path class="ab" d="M666.717,656.63s15.934,6.239,42.78-1.853"
                                  transform="translate(-606.813 -559.506)"/>
                            <path class="ab" d="M667.225,668.205s18.972,8.629,43.769-.891"
                                  transform="translate(-606.888 -561.35)"/>
                            <path class="ab" d="M667.336,682.4a86.988,86.988,0,0,0,45.57-1.453"
                                  transform="translate(-606.904 -563.354)"/>
                        </g>
                        <path class="x"
                              d="M688.677,811.875c-.353-1.515,13.081-.806,14.453.323s21.154,4.5,21.338,11.005-30.871,4.279-33.069,4.33S689.371,814.853,688.677,811.875Z"
                              transform="translate(-583.097 -390.935)"/>
                        <path class="ac"
                              d="M601.274,528.267c6.563,8.991,58.03,16.707,84.8,11.687a42.1,42.1,0,0,0,8.824-2.534c2.539-1.1,5-3.973,7.344-8.2C720.1,497.026,731.153,386.2,718.275,379.892c-14.566-7.141-40.9.817-40.9.817L667.6,393.214l-47.207,27.811s-10.948,40.117-16.81,71.471c-.432,2.311-.836,4.576-1.208,6.769C599.949,513.635,598.984,525.131,601.274,528.267Z"
                              transform="translate(-570.051 -327.086)"/>
                        <path class="ad"
                              d="M684.146,364.412c.006,1-1.735,11.411-.7,14.011s7.015,4.505,6.606,4.939-8.495,8.67-16.006,6.564-3.257-6.564-3.257-6.564a15.212,15.212,0,0,0,3.866-11.872C673.893,364.127,684.146,364.412,684.146,364.412Z"
                              transform="translate(-580.29 -325.247)"/>
                        <path class="ac"
                              d="M577.111,520.747c22.215,3.238,69.67-18.925,69.67-18.925l-4.527-12.488s-28.035,1.281-32.58,2.028c0,0,13.7-11.207,18.082-26.149,3.226-10.991,42.165-58.013,53.858-78.512,4.2-7.369-9.394-5.381-9.394-5.381s-3.071,8.039-8.345,9a5.917,5.917,0,0,1-2.957-.228c-7.07-2.323-7.35-5.257-7.35-5.257a136.931,136.931,0,0,0-17.675,2.874c-9.17,2.08-20.336,5.56-29.5,11.268-19.181,11.954-32.583,49.128-34.832,62.168S554.9,517.511,577.111,520.747Z"
                              transform="translate(-564.891 -327.698)"/>
                        <g transform="translate(35.847 101.315)">
                            <path class="ae"
                                  d="M676.277,447.716l-3.566,72.651a7.74,7.74,0,0,1-8.138,7.291l-50.262-2.405a2.535,2.535,0,0,1-.355-.034,7.681,7.681,0,0,1-7.026-8l3.565-72.65a7.728,7.728,0,0,1,8.139-7.282l47.931,2.287,2.33.11A7.7,7.7,0,0,1,676.277,447.716Z"
                                  transform="translate(-606.92 -437.28)"/>
                            <path class="af"
                                  d="M673.591,447.572l-3.565,72.651a7.728,7.728,0,0,1-8.14,7.282l-47.93-2.287a7.681,7.681,0,0,1-7.026-8l3.565-72.65a7.728,7.728,0,0,1,8.139-7.282l47.931,2.287A7.681,7.681,0,0,1,673.591,447.572Z"
                                  transform="translate(-606.92 -437.28)"/>
                            <ellipse class="ag" cx="6.002" cy="5.921" rx="6.002" ry="5.921"
                                     transform="translate(26.9 39.849)"/>
                        </g>
                        <g transform="translate(83.031)">
                            <ellipse class="w" cx="12.846" cy="17.291" rx="12.846" ry="17.291"
                                     transform="translate(2.748 11.521) rotate(-2.516)"/>
                            <g transform="translate(2.996 4.839)">
                                <path class="y"
                                      d="M674.4,337.843s22.737,11.234,15.312-8.006C684.576,316.524,658.876,329.771,674.4,337.843Z"
                                      transform="translate(-666.301 -324.167)"/>
                                <path class="y"
                                      d="M676.875,333.2S664.753,341,666.263,348.247c0,0-3.669-21.683,8.669-22.742s17.174-.081,17.057,23.012C691.989,348.518,687.617,330.333,676.875,333.2Z"
                                      transform="translate(-665.753 -324.324)"/>
                            </g>
                            <path class="y"
                                  d="M675.891,324.678s.335-6.817,7.2-6.138,9.953,4.4,11.092,8.212,2.235,6.651,3.21,6.611c0,0-2.8,3.007-3.818,2.085,0,0,2.825,6.812-.148,12.624,0,0-1.638-8.7-6.553-9.455S675.891,324.678,675.891,324.678Z"
                                  transform="translate(-664.248 -318.493)"/>
                            <path class="y"
                                  d="M674.5,325.557s-5-2.683-9.586,4.251L662.24,335.7s1.016.921,2.925-.121c0,0-.6,6.813.495,10.6l2.389-11.682Z"
                                  transform="translate(-662.24 -319.457)"/>
                        </g>
                        <path class="ah"
                              d="M602.346,518.982a61.879,61.879,0,0,0,3.724,5.222c.013.015-.1,1.9-.092,1.916,2.575,3.25,5.457,5.3,10.846,10.124.049.044,1.494.062,1.544.107q.847.757,1.745,1.543c16.709,14.627,47.283,19.8,65.94,21.777a42.1,42.1,0,0,0,8.824-2.534c2.539-1.1,5-3.973,7.344-8.2l-98.668-36.723-3.346-1.247S598.439,512.825,602.346,518.982Z"
                              transform="translate(-570.027 -346.803)"/>
                        <path class="ah"
                              d="M716.031,402.91s-17.352,19.929-28.074,40.113c-.806,1.516-5.314,12.786-5.322,12.816-6.951,23.9-10.388,59.584-10.388,59.584L688.833,475.9Z"
                              transform="translate(-580.681 -330.91)"/>
                        <path class="w"
                              d="M595.879,512.565c4.071.558,14.61,4.1,14.61,4.1l2.1-6.418s-5.007-3.069-6.391-4.73-2.128-3.076-3.273-3.946a15.785,15.785,0,0,0-4.149-1.611l-.34.435-.336.432-.112-.01a11.3,11.3,0,0,1-1.616-.209,5.778,5.778,0,0,0-1.781,1.2,2.878,2.878,0,0,0-.5.565,4.72,4.72,0,0,1-1.505,1.232c-.168.1-.306.182-.38.235a7.633,7.633,0,0,0-.565.522c-.681.671-1.737,1.783-2.071,2.179a22.252,22.252,0,0,0-2.162,2.1,2.367,2.367,0,0,0-.239.426C586.747,510.06,591.808,512.007,595.879,512.565Z"
                              transform="translate(-568.163 -345.184)"/>
                        <path class="ac"
                              d="M688.454,423.819c0-1.068,9.081-50.179,28.521-44.923s32.565,9.739,40.138,47.341-8.192,111.016-74.118,106.184-58.6-24.649-75.037-33.417l3.169-12.4s2.851,4.822,11.188,2.856,32.315-8.091,46.7-5.527c0,0,11.724-8.838,10.784-13.72s5.733-39,11.988-47.216S688.454,423.819,688.454,423.819Z"
                              transform="translate(-571.225 -327.32)"/>
                        <path class="ah"
                              d="M599.857,500.89a.511.511,0,0,0,.119.11c.353.209,2.535.95,2.771,1.019s-.8-.577-1.082-.6a6.332,6.332,0,0,1-1.36-.95l-.336.432Z"
                              transform="translate(-570.034 -345.259)"/>
                        <g transform="translate(89.903 141.197)">
                            <path class="w"
                                  d="M670.3,499.486a8.644,8.644,0,0,1,2.861.6c1.185.786,1.849,1.991,3.268,2.163.4.048,2.572.322,2.33-.511A3.348,3.348,0,0,0,677.448,500s.029,0,.086.006c.138.007.449.029.906.083a28.391,28.391,0,0,1,4.139.845c3.113.861,7.041-1.779,7.259-2.058s-.26-.681-1.746-1.051c-.019-.007-.035-.009-.055-.016-1.528-.377-4.688-.7-4.688-.7s5.78-.107,9.05-.107a5.331,5.331,0,0,0,.722-.048h.013a5.715,5.715,0,0,0,3.56-1.995.443.443,0,0,0-.33-.729c-1-.035-2.7-.113-3.964-.274a46.26,46.26,0,0,0-7.471.548c-.394.05-.632.085-.632.085s-1.389-.067,3.244-2.112,4.32-8.348,4.32-8.348a.777.777,0,0,0-.411-.085c-.52.015-1.493.414-2.757,2.618-1.91,3.337-5.513,4.363-5.959,5.44s-3.864,3.083-3.864,3.083-1.859.795-2.84,1.082c-.7.206-.847,1.181-.873,1.719-.006.159,0,.281,0,.333v.028a9.954,9.954,0,0,1-1.912-.753C672.352,497.106,670.3,499.485,670.3,499.486Z"
                                  transform="translate(-670.298 -484.04)"/>
                            <path class="ah"
                                  d="M687.158,494.5c-.394.05-.632.085-.632.085s-1.389-.067,3.244-2.112,4.32-8.348,4.32-8.348a.777.777,0,0,0-.411-.085,2.9,2.9,0,0,1,.067,1.238c-.177.751-1.97,5.389-3.671,6.449s-4.253,2.517-4.567,2.739S686.387,494.753,687.158,494.5Z"
                                  transform="translate(-672.528 -484.04)"/>
                            <path class="ah"
                                  d="M678.053,498.188a2.917,2.917,0,0,1,1.575.228,20.385,20.385,0,0,0,3.627.839c.494.124,3.908.433,5.978.618-.019-.007-.035-.009-.055-.016-1.528-.377-4.688-.7-4.688-.7s5.78-.107,9.05-.107a5.331,5.331,0,0,0,.722-.048c-3.1-.07-7.891-.2-8.678-.231-1.165-.044-3.36.351-4.12,0a7.034,7.034,0,0,0-2.866-.751A1.725,1.725,0,0,1,678.053,498.188Z"
                                  transform="translate(-671.439 -486.091)"/>
                            <path class="ah"
                                  d="M675.993,500.72l2.378,1.687c.138.007.449.029.906.083a2.335,2.335,0,0,0-.757-1.156,8.393,8.393,0,0,0-2.526-.947C675.987,500.546,675.991,500.668,675.993,500.72Z"
                                  transform="translate(-671.135 -486.444)"/>
                        </g>
                        <path class="ah"
                              d="M648.136,388.354c2.1,1.907,4.817,3.728,7.356,3.491,5.145-.484,8.816.967,13.208,3.382,2.869,1.579,5.847-1.673,7.418-4.262a5.917,5.917,0,0,1-2.957-.228c-7.07-2.323-7.35-5.257-7.35-5.257A136.93,136.93,0,0,0,648.136,388.354Z"
                              transform="translate(-577.135 -328.346)"/>
                    </g>
                </g>
            </g>
        </g>
        <g transform="translate(701.063 496.752)">
            <path class="ai"
                  d="M777.4,579.4c5.62-6.318,6.239-6.983,6.56-8.61.74-3.743-2.34-6.73-3.224-10.1a6.1,6.1,0,0,1,.633-4.986,7.772,7.772,0,0,1,3.415-2.454,26.986,26.986,0,0,1,10.325-2.26c3.349-.06,6.629.536,9.976-.069,4.407-.8,7.385-3.67,10.872-6.207a3.98,3.98,0,0,1,2.271-1c1.371.018,2.31,1.4,2.737,2.7,1.29,3.928.44,10.469,5.763,11.618,3.762.813,7.536-2.382,11.3-1.562,7.352,1.6,8.131,9.759,3.6,14.361-5.529,5.611-12.356,6.82-19.467,9.156-.611.2-1.328.574-1.323,1.217,0,.484.432.846.833,1.116,2.067,1.389,4.489,2.276,6.3,3.984,6.188,5.834,1.285,16.224-4.646,20.156-4.132,2.74-10.848,4.213-14.761,1.23-4.259-3.247-2.077-9.4-6.15-11.48-2.877-1.469-6.546.281-10.25,2.05-8.367,3.994-9.072,8.59-13.12,8.61-5.67.028-12.363-8.946-11.071-15.58C768.27,589.737,768.882,588.976,777.4,579.4Z"
                  transform="translate(-767.804 -543.716)"/>
            <text class="aj" transform="translate(39.071 35.533)">
                <tspan x="-23.037" y="0">ყვითელი</tspan>
            </text>
        </g>
        <g transform="translate(403.248 327.781)">
            <path class="ak"
                  d="M425.732,372.023c4.16-4.678,4.619-5.169,4.857-6.375.548-2.771-1.732-4.982-2.386-7.475a4.519,4.519,0,0,1,.467-3.691,5.769,5.769,0,0,1,2.529-1.817,19.985,19.985,0,0,1,7.643-1.673c2.479-.044,4.908.4,7.385-.051,3.263-.589,5.467-2.717,8.049-4.595a2.948,2.948,0,0,1,1.681-.741c1.015.014,1.71,1.035,2.027,2,.954,2.908.326,7.75,4.266,8.6,2.785.6,5.579-1.764,8.363-1.157,5.443,1.186,6.019,7.225,2.663,10.632-4.092,4.154-9.147,5.048-14.411,6.778-.452.148-.983.425-.979.9,0,.358.32.625.617.826,1.531,1.028,3.324,1.684,4.665,2.949,4.58,4.318.951,12.01-3.44,14.921-3.059,2.028-8.031,3.118-10.927.91-3.153-2.4-1.537-6.958-4.553-8.5-2.13-1.087-4.845.209-7.588,1.518-6.194,2.956-6.716,6.358-9.713,6.374-4.2.02-9.151-6.623-8.195-11.534C418.976,379.673,419.429,379.11,425.732,372.023Z"
                  transform="translate(-418.632 -345.605)"/>
            <text class="al" transform="translate(27.01 22.908)">
                <tspan x="-14.267" y="0">წითელი</tspan>
            </text>
        </g>
    </g>
</svg>
