<svg xmlns="http://www.w3.org/2000/svg" xmlns:xlink="http://www.w3.org/1999/xlink" width="87.523" height="87.523" viewBox="0 0 87.523 87.523"><defs><style>.a{fill:#fff;}.b,.c{fill:#62548a;}.b{font-size:11px;font-family:DejaVuSans, DejaVu Sans;}.d{filter:url(#a);}</style><filter id="a" x="0" y="0" width="87.523" height="87.523" filterUnits="userSpaceOnUse"><feOffset dx="2" dy="2" input="SourceAlpha"/><feGaussianBlur stdDeviation="4" result="b"/><feFlood flood-color="#947dce" flood-opacity="0.4"/><feComposite operator="in" in2="b"/><feComposite in="SourceGraphic"/></filter></defs><g transform="translate(10 10)"><g class="d" transform="matrix(1, 0, 0, 1, -10, -10)"><rect class="a" width="63.523" height="63.523" rx="12" transform="translate(10 10)"/></g><text class="b" transform="translate(8.363 49.273)"><tspan x="0" y="0">Brushes</tspan></text><path class="c" d="M159.506,254.4c-1.309.138-2.884,1.009-4.815,2.664-3.493,2.994-7.614,8.164-10.268,11.883a5.669,5.669,0,0,0-5.19,2.038c-2.219,2.774-.361,5.251-2.455,7.458a.762.762,0,0,0,.253,1.225c3.425,1.466,7.8.552,9.858-1.613a6.017,6.017,0,0,0,1.595-5.117c3.671-2.816,8.742-7.158,11.614-10.76,1.59-2,2.4-3.6,2.467-4.905a2.676,2.676,0,0,0-3.06-2.873Zm-13.722,22.607c-1.39,1.465-4.464,2.319-7.2,1.589,1.529-2.44.215-4.628,1.839-6.658a3.843,3.843,0,0,1,5.571-.574C147.815,273.185,146.967,275.761,145.784,277.009Zm.156-7.559c.374-.516.96-1.313,1.691-2.268l2.5,2.5c-.92.757-1.689,1.364-2.188,1.751a5.025,5.025,0,0,0-2-1.983Zm15.105-12.257c-.171,3.2-7.3,9.447-9.74,11.509l-2.731-2.732c2-2.537,7.885-9.715,11.092-10.053A1.158,1.158,0,0,1,161.045,257.193Z" transform="translate(-117.44 -244.468)"/></g></svg>