<svg xmlns="http://www.w3.org/2000/svg" width="1366" height="772.5" viewBox="0 0 1366 772.5"><defs><style>.a,.al{fill:#000;}.b{fill:#cabfd6;}.c{fill:#e6def0;}.d,.e{fill:#caa267;}.d{fill-rule:evenodd;}.f{fill:#c2934e;}.g{fill:#8a7cc7;}.h{fill:#f1c759;}.i{opacity:0.15;}.j{fill:#5e5584;}.k{fill:#5e5587;}.l{opacity:0.3;}.m{opacity:0.5;}.n{fill:#eec459;}.o{fill:#959595;}.p{fill:#c8c8c8;}.q{fill:#7f7f7f;}.am,.an,.r{fill:none;}.an,.r{stroke:#8a7cc7;}.al,.am,.an,.r{stroke-miterlimit:10;}.r{stroke-width:0.747px;}.s{fill:#4b3d64;}.t{fill:#a1abce;}.u{fill:#bcd3d7;}.v{fill:#c3c3c3;}.w{fill:#585858;}.x{fill:#88001b;}.y{fill:#ec1c24;}.z{fill:#ff7f27;}.aa{fill:#ffca18;}.ab{fill:#fdeca6;}.ac{fill:#fff200;}.ad{fill:#c4ff0e;}.ae{fill:#0ed145;}.af{fill:#8cfffb;}.ag{fill:#00a8f3;}.ah{fill:#3f48cc;}.ai{fill:#b83dba;}.aj{fill:#ffaec8;}.ak{fill:#b97a56;}.al{stroke:#000;stroke-width:0.5px;}.am{stroke:#1c3859;}</style></defs><g transform="translate(0 -1.008)"><rect class="a" width="1366" height="771" transform="translate(0 1.008)"/><path class="b" d="M1366,12.044V770.508l-242.228-67.586-32.991-6.263,1.636-558.092,30.118-25.56Z"/><path class="b" d="M316.3,127.979,300.245,684.35.2,758.748V8.7l298.845,93.571Z"/><path class="c" d="M697.978,91.579H273.37V708.963h849.165V91.579Z"/><path class="a" d="M0,63.288c121.657,30.38,335.7,73.888,615,80.372,352.972,8.194,622.429-47.1,751-78.7V2.508H0Z"/><path class="a" d="M0,725.192c121.657-29.39,335.7-71.481,615-77.753,352.972-7.928,622.429,45.568,751,76.133v47.19L.2,773.508Z"/><path class="d" d="M822.88,344.377c-1.389-3.392-5.8-6.039-8.751-6.856a29.655,29.655,0,0,1-3.763-1.581c-2.287-.772,1.332,2.492,2.7,3.039,1.111.445,3.1,3.754,4.192,4.888s3.425,2.779,4.681,2.79S822.7,345.007,822.88,344.377Z"/><path class="d" d="M830.546,356.141c-2.653-4.766-4.639-10.428-9.735-12.794s-12.722-2.326-16.771-2.946c-4.763-.729-2.766.822-.256,1.494,1.631.437,6.905,2,8.553,1.988a52.551,52.551,0,0,0-6.877-1.119c-.392.11-7.948-1.953-7.435-.563,1,2.7,9.531,3.04,12.249,3.632-1.434-.052-3.765-.481-5.147-.538-1.173-.048-4.714-1.338-5.063-.26-.55,1.7,8.189,2.8,9.352,2.9-1.15.924-5.535-.46-7.064-.566-.154-.01-1.545.323.128.912a50.279,50.279,0,0,0,10.279,2.97c4.028.6,8.752,1.215,11.436,4.894C826.345,356.024,828.448,356.4,830.546,356.141Z"/><path class="e" d="M965.714,591.461s-9.277,95.725-5.333,97.373c7.077,3,34.793,12.822,4.236,10.664-15.7.946-14.544-2.561-14.789-5.533-.2-2.428.26-88.1-.385-94.76-.144-1.492-.232-2.394-.232-2.394Z"/><path class="e" d="M908.184,591.461s4.023,95.725.078,97.373c-7.077,3-34.792,12.822-4.236,10.664,15.7.946,14.545-2.561,14.79-5.533.2-2.428,1.981-20.856,2.625-27.518.145-1.492,3.221-76.36,3.221-76.36Z"/><path class="f" d="M938.953,344.44s-.818,9.121,4.809,14.165-12.967,0-12.967,0,3.46-8.736,2.684-14.165S938.953,344.44,938.953,344.44Z"/><ellipse class="e" cx="9.836" cy="13.42" rx="9.836" ry="13.42" transform="translate(926.149 321.136)"/><path class="g" d="M855.883,402.437c14.891-31.148,41.466-45.359,58.433-49.132,7.345-1.636,12.888-1.315,14.913.433a11,11,0,0,0,6.866,2.668,14.883,14.883,0,0,0,3.855-.351,19.2,19.2,0,0,0,4.087-1.39c.628-.291.994-.5.994-.5a39.892,39.892,0,0,1,10.385.62c38.388,7.517,45.067,71.882,44.723,77.418-.209,3.3-3.616,18.223-7.874,31.492-3.49,10.893-7.561,20.673-10.909,22.025-7.426,2.989-63.5,7.09-75.026,1.592-.269-.2-.561-.419-.837-.658-4.326-3.519-9.018-10.467-11.506-16.975,0-.007-6.627-18.685-7.979-22.488-.015-.038-.023-.068-.038-.1-.045-.15-.1-.292-.149-.426-.015-.053-.038-.1-.053-.15"/><path class="h" d="M903.76,485.1a6.06,6.06,0,0,0,3.441,1.587c8.086.159,43.011.757,61.957-.331,6.684-.385,11.378-.979,12.2-1.88a.718.718,0,0,1-.006.077c-.049,1.044-.648,13-1.489,28.671-1.66,30.936,1.537,75.244,5.273,88.693.806,2.9-42.586-1.495-42.586-1.495-.121-31.925,2.908-87.973.951-90.485-2.38-3.056-6.239,46.243-10.664,87.5-17.184,4.483-44.4,1.761-44.081,0C892.495,576.518,903.76,485.1,903.76,485.1Z"/><path class="i" d="M885.771,446.517c.015.053.037.1.052.15.052.134.1.276.149.426.015.029.023.059.038.1,1.352,3.8,7.979,22.481,7.979,22.488,2.488,6.508,7.18,13.456,11.506,16.975-2.936-10.632-12.089-41.451-11.738-53.868C892.009,444.754,885.771,446.51,885.771,446.517Z"/><path class="i" d="M975.537,401.992s-18.582,55.47,32.974,79.028l1.047.7-.266-13.047S985,434.771,984.907,433.9,975.537,401.992,975.537,401.992Z"/><path class="i" d="M936.745,358.61c.03.889-.441,1.472-1.868,1.277-4.452-.6-9.481-.478-13.134,1.2a3.106,3.106,0,0,1-3-.127c-2.338-1.367-3.788-5.447-4.363-7.255a1.239,1.239,0,0,1-.06-.4c7.345-1.636,12.888-1.315,14.913.433a11,11,0,0,0,6.866,2.668A6.049,6.049,0,0,1,936.745,358.61Z"/><path class="j" d="M920.139,687.841c.183-1.382-9.651-1.253-10.764-.13s-20.711,5.166-20.323,10.986,27.549,1.245,29.489,1.108S919.779,690.557,920.139,687.841Z"/><path class="k" d="M949.277,685.6c-.183-1.382,11.588.372,12.7,1.495s18.249,5.783,17.861,11.6-27.549,1.245-29.489,1.108S949.636,688.315,949.277,685.6Z"/><g class="l"><path d="M936,487l-.39-.032S935.751,486.977,936,487Z"/><path class="m" d="M936,487c10.408.831,33.155-.64,33.155-.64,6.684-.385,11.378-.979,12.2-1.88a.718.718,0,0,1-.006.077c-.049,1.044-.648,13-1.489,28.671a7.657,7.657,0,0,1-1.094-.126,8.521,8.521,0,0,1-5.508-3.914,18.944,18.944,0,0,1-2.142-4.473C963.363,489.95,939.337,487.3,936,487Z"/></g><path class="n" d="M932.289,326.853s17.029,9.442,11.974-5.717C940.767,310.648,920.675,320.1,932.289,326.853Z"/><path class="n" d="M934.757,323.232s-9.527,5.653-8.608,11.324c0,0-2.1-16.932,7.372-17.357s13.142.489,12.3,18.393C945.822,335.592,943.069,321.35,934.757,323.232Z"/><path class="n" d="M933.108,317.309s.479-5.275,5.709-4.528,7.471,3.735,8.218,6.724,1.5,5.23,2.242,5.23c0,0-2.242,2.241-2.989,1.494,0,0,1.939,5.373-.524,9.784,0,0-.97-6.8-4.706-7.542S933.108,317.309,933.108,317.309Z"/><path class="n" d="M933.587,317.264s-3.736-2.242-7.471,2.988l-2.242,4.483s.747.747,2.242,0c0,0-.681,5.264.033,8.235l2.208-8.982Z"/><path class="o" d="M911.427,418.545l9.474,60.689a6.482,6.482,0,0,0,7.4,5.4l41.421-6.47a2.045,2.045,0,0,0,.292-.06,6.459,6.459,0,0,0,5.1-7.337l-9.474-60.689a6.472,6.472,0,0,0-7.4-5.395l-39.5,6.164-1.92.3A6.471,6.471,0,0,0,911.427,418.545Z"/><path class="p" d="M913.639,418.186l9.473,60.69a6.472,6.472,0,0,0,7.4,5.394l39.5-6.164a6.459,6.459,0,0,0,5.1-7.337l-9.474-60.689a6.472,6.472,0,0,0-7.4-5.395l-39.5,6.164A6.457,6.457,0,0,0,913.639,418.186Z"/><circle class="q" cx="5" cy="5" r="5" transform="translate(939.798 439.987)"/><path class="i" d="M983.421,461.355s.971-22.309-58.8-14.838,44.828,14.2,44.828,14.2Z"/><path class="d" d="M930.187,454.875c-.708-.237-8.183-4.714-12.236-5.088s-10.113-.543-12.205-1.138c-2.462-.7-3.083.278-.248,1.36a39.919,39.919,0,0,0,6.455,1.828c.406.017-2.235-.338-5.1-.933-3.051-.633-6.36-1.493-6.512-.949-.294,1.054,8.495,3.423,10.043,3.591a39.144,39.144,0,0,1-4.082-.495c-1.842-.327-3.953-.979-4.368-.6-.654.6,4,2.429,7.848,2.962.067.125-1.176.319-5.7-.621-.455-.094-1.613.1-.124.793,3.135,1.45,4.377,2.3,8.92,2.446,4.431.139,9.322-.773,12.509.3Z"/><path class="d" d="M919.9,450.186s-3.431-3.6-7.283-4.2c-2.29-.354-2.236-.93-2.627-1.1-1.3-.571-.041,1.835,1.9,2.452,1.581.5,2.464,3.2,3.414,3.776s3.794,1.624,4.5,1.252S919.9,450.186,919.9,450.186Z"/><path class="g" d="M994.1,364.333c14.073,12.592,23.81,24.287,29.885,62.759,3.082,19.519,2.279,39.037,1.477,49.331A12.164,12.164,0,0,1,1017.109,487c-44.093,14.544-92.526-27.3-92.526-27.3-2.525-.94,2.559-9.944,2.559-9.944,24.376-.252,43.054.495,62.48,7.966-.1-.046-19.1-35.73-21.667-45.575-6.733-25.817-28.9-48.157-23.161-58.276C946.775,350.373,979.909,351.632,994.1,364.333Z"/><line class="r" x1="11.019" y2="115.224" transform="translate(900.329 484.349)"/><line class="r" x1="10.936" y2="113.217" transform="translate(911.348 486.653)"/><line class="r" x1="9.094" y2="112.426" transform="translate(923.88 486.653)"/><line class="r" x2="0.234" y2="23.288" transform="translate(943.27 486.653)"/><line class="r" x1="2.11" y2="114.704" transform="translate(952.588 486.653)"/><line class="r" x1="0.588" y2="115.666" transform="translate(963.944 486.581)"/><line class="r" x2="2.225" y2="116.331" transform="translate(974.198 486.581)"/><path class="r" d="M902.269,497.09s62.053,2.93,78.448,0"/><path class="r" d="M943.5,509.941c-21.711,4.917-42.489-2.856-42.489-2.856"/><path class="r" d="M943.27,508.472s19.593,5.505,36.8.856"/><path class="r" d="M899.948,515.529s15.646,8.192,41.06,4.015"/><path class="r" d="M898.667,525.585s24.348,7.434,41.138,3.609"/><path class="r" d="M897.383,535.576s12.4,9.721,41.151,5.36"/><path class="r" d="M895.888,547.068a60.33,60.33,0,0,0,41.7,3.142"/><path class="r" d="M894.5,557.595s13.392,9.506,41.968,3.985"/><path class="r" d="M893.045,568.388s18.483,9.662,42.568,1.856"/><path class="r" d="M891.882,576.81s10.9,10.488,42.809,2.713"/><path class="r" d="M890.511,586.371s17.633,9.289,43.238,2.419"/><path class="r" d="M944.16,518.989s8.186,6.759,35.914,1.742"/><path class="r" d="M944.376,529.161s11.486,5.356,35.042,1.127"/><path class="r" d="M943.815,540.452s17.737,5.342,35.6,0"/><path class="r" d="M943.56,549.815s17.242,7.665,36.2,0"/><path class="r" d="M943.27,560.094s16.415,5.76,36.968,0"/><path class="r" d="M943.005,569.967s13.836,6.208,37.88,0"/><path class="r" d="M943.005,578.7s16.428,8.466,38.716.9"/><path class="r" d="M942.61,589.621a75.946,75.946,0,0,0,40.33.466"/><path class="g" d="M886.01,447.19s-45.479,19.293-56.513-22.316,4.138-50.814-10.115-68.051l9.2-7.122s31.724,16.782,41.15,42.989S886.01,447.19,886.01,447.19Z"/><path class="a" d="M153.07,258.858l-21.02-2.53-77.5-9.37v247l77.5-9.37,21.02-2.53,66.98-8.1v-207Z"/><path class="s" d="M178.08,263.408l-20.47-1.7L137,259.888l-10.38-.92c-3.46-.28-6.92-.57-10.37-1-6.89-.92-13.78-1.75-20.68-2.58l-41.38-5,3.81-3.41v247l-3.85-3.41,165.5-20-3,3.41.05-51.15.07-25.56c0-8.54.05-17.05,0-25.54,0-4.26.18-8.58.33-12.9l.43-13,.84-26.08,1.69-52.79C205.84,265.658,191.81,264.508,178.08,263.408Zm43.66,54.28.84,25.67.43,12.89c.15,4.33.33,8.63.33,13-.07,8.76,0,17.48,0,26.21l.07,26.19.05,52.35v3l-3,.37L55,497.368l-3.85.47V243.078l3.85.43,41.37,5c6.9.85,13.79,1.68,20.7,2.43,3.45.4,6.89.94,10.32,1.47l10.3,1.58,20.72,3.17,20.91,3.3c13.85,2.2,27.4,4.46,40.77,6.46Z"/><path class="t" d="M91.69,311.288a1,1,0,1,0-1-1A1,1,0,0,0,91.69,311.288Z"/><path class="t" d="M103.4,309.258a1.521,1.521,0,0,0-1.4.64.79.79,0,0,0,0,.83,1.521,1.521,0,0,0,1.4.64,1.06,1.06,0,0,0,0-2.11Z"/><path class="t" d="M102.71,295.368a.9.9,0,1,0-.9-.9A.9.9,0,0,0,102.71,295.368Z"/><path class="t" d="M185.19,388.178a1,1,0,1,0-1-1A1,1,0,0,0,185.19,388.178Z"/><path class="t" d="M125.37,375.678a1,1,0,1,0-1-1A1,1,0,0,0,125.37,375.678Z"/><path class="t" d="M196.9,386.148a1.521,1.521,0,0,0-1.4.64.79.79,0,0,0,0,.83,1.521,1.521,0,0,0,1.4.64,1.06,1.06,0,0,0,0-2.11Z"/><path class="t" d="M139.83,384.038a1.521,1.521,0,0,0-1.4.64.79.79,0,0,0,0,.83,1.521,1.521,0,0,0,1.4.64,1.06,1.06,0,0,0,0-2.11Z"/><path class="t" d="M196.21,372.268a.9.9,0,1,0-.9-.9A.9.9,0,0,0,196.21,372.268Z"/><path class="t" d="M133.73,368.778a.9.9,0,1,0-.9-.9A.9.9,0,0,0,133.73,368.778Z"/><path class="t" d="M75.77,466.2a1,1,0,1,0-1-1A1,1,0,0,0,75.77,466.2Z"/><path class="t" d="M87.48,464.168a1.521,1.521,0,0,0-1.4.64.79.79,0,0,0,0,.83,1.521,1.521,0,0,0,1.4.64,1.06,1.06,0,0,0,0-2.11Z"/><path class="t" d="M86.79,450.288a.9.9,0,1,0-.9-.9A.9.9,0,0,0,86.79,450.288Z"/><path class="a" d="M1235.62,245.428l17.81-2.81,65.67-10.43v274.93l-65.67-10.43-17.81-2.82-56.77-9.01V254.448Z"/><path class="s" d="M1213.43,247.818l35.2-6.67,17.45-3.29c5.82-1.13,11.63-2.27,17.48-3.13s11.7-1.78,17.54-2.72l17.53-2.83,3.47-.55v282l-3.47-.55-140.24-22.27-2.53-.4v-2.56l.14-116.24c0-4.85-.06-9.73,0-14.55s.26-9.58.38-14.37l.8-28.61,1.63-56.63C1190.23,252.338,1201.71,250.038,1213.43,247.818Zm-33,65.19.8,29c.12,4.82.31,9.65.38,14.43s0,9.5,0,14.25l.18,114.17-2.53-3,140.25,22.26-3.47,3v-275l3.47,3-17.51,2.81q-8.711,1.38-17.48,2.87c-5.84,1-11.72,1.66-17.59,2.44l-17.61,2.27-34.93,4.43c-11.65,1.51-23.54,2.9-35.54,4.51Z"/><path class="t" d="M1218.85,381.9a1,1,0,1,0-1-1A1,1,0,0,0,1218.85,381.9Z"/><path class="t" d="M1246,478.178a1,1,0,1,0-1-1A1,1,0,0,0,1246,478.178Z"/><path class="t" d="M1199,440.838a1,1,0,1,0-1-1A1,1,0,0,0,1199,440.838Z"/><path class="t" d="M1230.56,379.868a1.521,1.521,0,0,0-1.4.64.79.79,0,0,0,0,.83,1.521,1.521,0,0,0,1.4.64,1.06,1.06,0,0,0,0-2.11Z"/><path class="t" d="M1219.1,288.368a1.521,1.521,0,0,0-1.4.64.79.79,0,0,0,0,.83,1.521,1.521,0,0,0,1.4.64,1.06,1.06,0,0,0,0-2.11Z"/><path class="t" d="M1279.43,470.728a1.521,1.521,0,0,0-1.4.64.79.79,0,0,0,0,.83,1.521,1.521,0,0,0,1.4.64,1.06,1.06,0,0,0,0-2.11Z"/><path class="t" d="M1261.17,369.658a1.521,1.521,0,0,0-1.4.64.79.79,0,0,0,0,.83,1.521,1.521,0,0,0,1.4.64,1.06,1.06,0,0,0,0-2.11Z"/><path class="t" d="M1230.56,273.158a1.521,1.521,0,0,0-1.4.64.79.79,0,0,0,0,.83,1.521,1.521,0,0,0,1.4.64,1.06,1.06,0,0,0,0-2.11Z"/><path class="t" d="M1202.33,331.058a1.521,1.521,0,0,0-1.4.64.79.79,0,0,0,0,.83,1.521,1.521,0,0,0,1.4.64,1.06,1.06,0,0,0,0-2.11Z"/><path class="t" d="M1229.87,365.978a.9.9,0,1,0-.9-.9A.9.9,0,0,0,1229.87,365.978Z"/><path class="t" d="M1216.48,275.118a.9.9,0,1,0-.9-.9A.9.9,0,0,0,1216.48,275.118Z"/><path class="t" d="M1296.11,316.358a.9.9,0,1,0-.9-.9A.9.9,0,0,0,1296.11,316.358Z"/><rect class="u" width="104.096" height="74.341" transform="translate(71.64 384.198) rotate(-45)"/><rect class="a" width="14.756" height="14.756" transform="translate(92.866 394.672) rotate(-45)"/><rect class="v" width="14.756" height="14.756" transform="translate(103.3 384.238) rotate(-45)"/><rect class="w" width="14.756" height="14.756" transform="translate(113.734 373.804) rotate(-45)"/><rect width="14.756" height="14.756" transform="translate(124.168 363.37) rotate(-45)"/><rect class="x" width="14.756" height="14.756" transform="translate(134.602 352.937) rotate(-45)"/><rect class="y" width="14.756" height="14.756" transform="translate(145.035 342.503) rotate(-45)"/><rect class="z" width="14.756" height="14.756" transform="translate(103.3 405.105) rotate(-45)"/><rect class="aa" width="14.756" height="14.756" transform="translate(113.734 394.672) rotate(-45)"/><rect class="ab" width="14.756" height="14.756" transform="translate(124.168 384.238) rotate(-45)"/><rect class="ac" width="14.756" height="14.756" transform="translate(134.602 373.804) rotate(-45)"/><rect class="ad" width="14.756" height="14.756" transform="translate(145.035 363.37) rotate(-45)"/><rect class="ae" width="14.756" height="14.756" transform="translate(155.469 352.937) rotate(-45)"/><rect class="af" width="14.756" height="14.756" transform="translate(113.734 415.539) rotate(-45)"/><rect class="ag" width="14.756" height="14.756" transform="translate(124.168 405.105) rotate(-45)"/><rect class="ah" width="14.756" height="14.756" transform="translate(134.602 394.672) rotate(-45)"/><rect class="ai" width="14.756" height="14.756" transform="translate(145.035 384.238) rotate(-45)"/><rect class="aj" width="14.756" height="14.756" transform="translate(155.469 373.804) rotate(-45)"/><rect class="ak" width="14.756" height="14.756" transform="translate(165.903 363.37) rotate(-45)"/><rect class="al" width="29.511" height="14.643" transform="translate(122.23 340.565) rotate(-45)"/><rect class="x" width="57.295" height="14.643" transform="translate(80.383 382.188) rotate(-45)"/><path d="M138.889,331.578v-2.089a1.161,1.161,0,1,0-2.321,0v2.089a.464.464,0,0,0-.464.464v.465a.464.464,0,0,0,.464.464v6.777a1.613,1.613,0,0,0,.271.9,1.148,1.148,0,0,1,.193.638v.278a.7.7,0,0,0,1.393,0v-.278a1.148,1.148,0,0,1,.193-.638,1.605,1.605,0,0,0,.271-.9v-6.777a.465.465,0,0,0,.465-.464v-.465A.465.465,0,0,0,138.889,331.578Zm-1.857-2.089a.7.7,0,0,1,1.393,0v2.089h-1.393v-2.089Zm1.2,10.9a1.613,1.613,0,0,0-.271.9v.278a.232.232,0,0,1-.464,0v-.278a1.606,1.606,0,0,0-.272-.9,1.147,1.147,0,0,1-.193-.638v-3.063h1.393v3.063A1.147,1.147,0,0,1,138.232,340.386Zm.193-4.165h-1.393v-3.25h1.393Zm.232-3.714h-2.089v-.465h2.321v.465Z"/><rect class="am" width="88.534" height="44.267" transform="translate(92.866 394.672) rotate(-45)"/><path class="an" d="M1209.75,397.017a20.8,20.8,0,0,0-7.5,11.149c-.516,1.94-.63,4.3.854,5.654a5.212,5.212,0,0,0,4.22.916c3.543-.47,6.716-2.344,9.888-3.992s6.647-3.139,10.2-2.745,7.053,3.342,6.82,6.909a8.863,8.863,0,0,1-1.519,4,24.453,24.453,0,0,1-9.84,8.946"/><path class="an" d="M1241.657,385.348a8.012,8.012,0,0,0-10.679,9.14,8.545,8.545,0,0,0,7.138,6.484,9.227,9.227,0,0,0,8.762-4.248,6.081,6.081,0,0,0,.977-2.731,7.094,7.094,0,0,0-.466-2.779,17.357,17.357,0,0,0-4.878-7.36,45.337,45.337,0,0,0,8.339,1.543"/><path class="an" d="M1238.145,368.243a130.87,130.87,0,0,1,23.357-2.289.814.814,0,0,0,.542-.135c.235-.206.156-.584.055-.88a48.8,48.8,0,0,0-7.931-14.484"/><path class="an" d="M1261.666,341.818c3.323-1.175,5.133-4.668,6.625-7.86a18.154,18.154,0,0,0,2.1-6.575c.123-2.313-.84-4.839-2.9-5.889a3.154,3.154,0,0,0-1.7-.378,3.533,3.533,0,0,0-1.183.355c-2.972,1.4-4.468,4.7-5.617,7.782-1.653,4.423-2.966,9.8-.077,13.533,1.787,2.31,4.817,3.352,7.734,3.513a19.153,19.153,0,0,0,15.52-7.184,24.417,24.417,0,0,0,5.11-16.585"/></g></svg>