<svg xmlns="http://www.w3.org/2000/svg" xmlns:xlink="http://www.w3.org/1999/xlink" width="499.781" height="386.613" viewBox="0 0 499.781 386.613"><defs><style>.a,.c,.k{fill:none;}.b{fill:#b6d7db;opacity:0.49;}.c{stroke:#000;stroke-width:9.257px;}.c,.k{stroke-miterlimit:10;}.d{fill:#060606;}.e{fill:#ccc;}.f{opacity:0.18;}.g{clip-path:url(#a);}.h{fill:#edba49;}.i{opacity:0.3;}.j{opacity:0.5;}.k{stroke:#947dce;stroke-width:0.621px;}.l{opacity:0.2;}.m{fill:#d8a35d;}.n{fill:#62548a;}.o{fill:#d19442;}.p{fill:#ffc84f;}.q{fill:#947dce;}.r{opacity:0.15;}.s{opacity:0.1;}.t{fill:#fff;}.u{font-size:14px;font-family:DejaVuSans, DejaVu Sans;}</style><clipPath id="a"><path class="a" d="M756.539,620.3s-.779-17.456,1.279-19.889,71.053-17.385,71.053-17.385l19.8,15.944Z" transform="translate(-756.394 -583.029)"/></clipPath></defs><g transform="translate(-640 -381.589)"><g transform="translate(87.042 -62.351)"><path class="b" d="M662.292,525.338c56.452-45.234,84.68-67.852,111.18-75.211,88.539-24.585,214.322,26.015,241.982,117.72,1.439,4.772,20.407,71.036-16.351,114.451-30.776,36.348-69.494,19.919-183.121,39.239-121.651,20.686-150.974,52.047-192.931,27.847-39.724-22.912-61.263-78.608-52.321-122.678C577.381,593.934,605.775,570.622,662.292,525.338Z" transform="translate(7.84)"/><g transform="translate(671.413 473.606)"><line class="c" y2="111.224" transform="translate(317.722 239.595)"/><ellipse class="d" cx="26.155" cy="5.486" rx="26.155" ry="5.486" transform="translate(291.567 345.976)"/><path class="e" d="M922.611,615.722c-5.172,16.42-16.529,30.549-30.818,40a65.206,65.206,0,0,1-13.826,6.918c-13.44,4.908-28.189,5.756-42.612,5.283-2.113-.067-26.242-.97-26.918-6.506-.823-6.726,33.441-16.438,62.078-23.508,12.808-11.216,18.465-22.366,21.193-29.559.982-2.6,3.022-8.47,5.7-32.519,1.105-9.957,1.837-18.655,2.328-25.646.147-2.138.276-4.116.386-5.922C923.128,559.122,930.561,590.457,922.611,615.722Z" transform="translate(-544.362 -423.712)"/><path class="f" d="M860.557,621.533l-.168.121c-1.846,1.31-15.192,12.651-43.411,13.729C787.053,636.529,878.3,592.6,878.3,592.6Z" transform="translate(-543.104 -399.67)"/><g transform="translate(186.157 178.597)"><g class="g"><g transform="translate(-7.26 -3.167)"><path class="h" d="M895.745,629.314s-.037,0-.093,0c-1.268.031-15.8.334-34.847.665-37.594.644-90.928,8.662-106.856,14.612-3.438,1.288-2.179-54.313-2.179-54.313,38.628-3,106.749-4.14,109.609-6.856,3.05-2.893,21.879-2.55,26.432-2.424.632.015.991.03.991.03l.031.267,3.475,32.582c.01.058.012.084.012.084C893.417,622.428,894.576,628.347,895.745,629.314Z" transform="translate(-751.546 -580.914)"/><g class="i" transform="translate(109.254 0.082)"><path class="j" d="M859.457,629.287s-.037,0-.093,0c-1.268.031-15.8.334-34.847.665a10.261,10.261,0,0,1,.052-1.4,10.88,10.88,0,0,1,4.219-7.358,22.553,22.553,0,0,1,5.215-3.12c12.215-7.975,16.21-25.91,17.52-37.1.632.015.991.03.991.03l.031.267c.943,13.642,3.3,31.228,3.475,32.582.01.058.012.084.012.084C857.129,622.4,858.287,628.32,859.457,629.287Z" transform="translate(-824.512 -580.968)"/></g><g transform="translate(0.024 14.672)"><line class="k" x1="139.031" y2="7.543" transform="translate(0.013)"/><line class="k" y1="9.565" x2="140.053" transform="translate(0 12.505)"/><line class="k" x1="140.593" y2="13.203" transform="translate(0.366 24.801)"/></g><path class="k" d="M837.615,613.441" transform="translate(-708.741 -564.737)"/><path class="k" d="M824.9,582.588" transform="translate(-715.065 -580.081)"/><path class="k" d="M826.595,582.3s-4.827,25.417,2.412,46.9" transform="translate(-715.006 -580.223)"/><path class="k" d="M818.605,583.684s-7.413,11.017,1.258,45.847" transform="translate(-719.663 -579.536)"/><path class="k" d="M810.054,584.473s-5.407,15.09,1.921,44.683" transform="translate(-723.403 -579.143)"/><path class="k" d="M800.722,584.669s-4.8,23.041,3.336,45.3" transform="translate(-727.789 -579.046)"/><path class="k" d="M793.529,585.01s-7.662,22.619,3.391,46.056" transform="translate(-731.952 -578.876)"/><path class="k" d="M784.888,585.376s-5.434,21.4,3.465,47.031" transform="translate(-735.781 -578.694)"/><path class="k" d="M776.993,585.738s-6.217,18.157,3.55,48.193" transform="translate(-739.86 -578.514)"/><path class="k" d="M770.352,586.259s-8.707,21.654,2.54,49.336" transform="translate(-743.791 -578.255)"/><path class="k" d="M761.059,586.573a101.621,101.621,0,0,0,3.215,51.351" transform="translate(-747.752 -578.099)"/></g><path class="l" d="M755.84,624.132s-2.125-10.523,4.98-11.69,37.962-7.854,44.132-11.453,19.694-19.432,19.694-19.432l37.647,13.823s-42.942,20.774-45.255,21.419S755.84,624.132,755.84,624.132Z" transform="translate(-756.818 -583.761)"/></g></g><path class="m" d="M770.434,617.1s-42.2,108.351-47.387,108.259c-9.328-.114-44.92-2.713-9.906,9.787,16.983,8.7,17.412,4.245,19.134,1.062,1.406-2.6,12.369-22.213,16.334-29.3.888-1.589,40.808-83.3,40.808-83.3Z" transform="translate(-599.258 -387.487)"/><path class="n" d="M740.038,690.4c.783-1.68-14.848-4.148-16.707-3.167s-25.455.064-27.281,7.6,34.451,12.558,36.966,13.157S738.5,693.7,740.038,690.4Z" transform="translate(-600.282 -352.721)"/><path class="m" d="M769.647,623.587s46.209,77.366,58.156,99.6c-.773,3.844-.919,4.257-1.6,4.453-8.947,2.644-43.719,10.663-6.578,12.274,18.8,3.306,17.892-1.081,18.6-4.631.271-1.363.858-5.037,2.207-11.386-2.294-7.512-51.156-104.68-51.156-104.68Z" transform="translate(-563.646 -386.436)"/><path class="n" d="M831.284,688.342c.291-1.83-15.415.106-16.933,1.562s-24.45,7.076-24.13,14.827,36.577,2.575,39.161,2.459S830.715,691.941,831.284,688.342Z" transform="translate(-553.416 -352.428)"/><path class="o" d="M787.454,482.52s9.525,10.33,19.119,9.321-11.1,12.281-11.1,12.281-5.311-10.758-11.118-14.671S787.454,482.52,787.454,482.52Z" transform="translate(-557.31 -454.419)"/><path class="m" d="M748.081,628.552c4.838-5.819,108.305-41.922,108.305-41.922l41.124,31.718S762.731,639.155,761.119,642.38,743.244,634.369,748.081,628.552Z" transform="translate(-574.817 -402.641)"/><g transform="translate(166.784 176.393)"><path class="p" d="M917.859,623.253s-.036.01-.09.022c-1.217.358-40.4,7.558-58.716,12.813-36.146,10.36-85.583,31.92-99.424,41.792-2.987,2.134-16.173-51.895-16.173-51.895,36.533-12.9,102.034-31.649,104.091-35.014,2.2-3.583,20.473-8.129,24.9-9.188.614-.148.964-.228.964-.228l.1.249,11.8,30.571a.735.735,0,0,1,.031.076C888.6,620.351,916.48,622.623,917.859,623.253Z" transform="translate(-743.456 -581.557)"/><g class="i" transform="translate(115.154)"><path class="j" d="M879.611,623.253s-.036.01-.09.022c-1.217.358-40.4,7.558-58.716,12.813a10.193,10.193,0,0,1-.313-1.369,10.863,10.863,0,0,1,2.17-8.2,22.493,22.493,0,0,1,4.228-4.366c9.733-10.866,8.945-29.223,7.313-40.37.614-.148.964-.228.964-.228l.1.249c4.444,12.934,11.272,29.309,11.8,30.571a.735.735,0,0,1,.031.076C850.349,620.351,878.232,622.623,879.611,623.253Z" transform="translate(-820.362 -581.557)"/></g><g transform="translate(3.148 13.595)"><line class="k" x1="132.333" y2="43.297"/><line class="k" y1="45.515" x2="132.796" transform="translate(3.75 11.817)"/><path class="k" d="M898.716,606.485l-12.214,2a172.65,172.65,0,0,0-32.148,8.524l-103.3,38.368" transform="translate(-742.825 -582.754)"/></g><path class="k" d="M833.248,614.353" transform="translate(-698.8 -565.247)"/><path class="k" d="M812.974,587.847" transform="translate(-708.883 -578.429)"/><path class="k" d="M814.033,587.266s1.921,25.8,14.478,44.674" transform="translate(-708.356 -578.718)"/><path class="k" d="M806.39,590.789s-4.306,12.561,13.09,43.956" transform="translate(-712.392 -576.966)"/><path class="k" d="M798.518,593.677s-1.312,15.977,13.43,42.661" transform="translate(-716.087 -575.529)"/><path class="k" d="M789.71,596.24s1.328,23.5,14.955,42.885" transform="translate(-720.452 -574.255)"/><path class="k" d="M782.485,598.533s-1.541,23.831,15.207,43.607" transform="translate(-724.064 -573.114)"/><path class="k" d="M774.524,601.043s.3,22.075,15.529,44.529" transform="translate(-728.005 -571.866)"/><path class="k" d="M766.9,603.465s-1.3,19.148,15.911,45.628" transform="translate(-731.807 -570.661)"/><path class="k" d="M760.261,605.8s-2.8,23.171,15.231,46.994" transform="translate(-735.177 -569.502)"/><path class="k" d="M751.741,608.393a101.62,101.62,0,0,0,16.406,48.765" transform="translate(-739.336 -568.211)"/></g><path class="m" d="M718.728,560.739a74.734,74.734,0,0,0-39.642,16.454l35,1.1a10.707,10.707,0,0,1,2.761-4.2,11.183,11.183,0,0,1,7.287-2.872Q721.433,565.985,718.728,560.739Z" transform="translate(-608.685 -415.518)"/><g transform="translate(208.991 3.723)"><path class="p" d="M779.119,478.285s15.3,19.6,16.926-.743C797.331,461.453,768.681,464.331,779.119,478.285Z" transform="translate(-769.067 -466.056)"/><path class="p" d="M786.4,475.443s-6.888-.055-11.242,2.5c-1.318.773-3.111.524-3.517,2.179,0,0,4.971-17.448,16.318-13.22s14.189,5.539,4.264,26.161C792.226,493.061,797.111,477.381,786.4,475.443Z" transform="translate(-771.644 -466.239)"/></g><path class="p" d="M776.738,466.5s5.242-5.5,14.057-.942c5.992,3.1,7.419,8.425,6.807,12.31s.543,6.024,1.421,6.4c0,0-3.752,1.515-4.257.265,0,0,.877,2.126-3.673,7.323a5.829,5.829,0,0,0-2.155-7.06C784.921,482.051,776.738,466.5,776.738,466.5Z" transform="translate(-560.12 -463.752)"/><path class="m" d="M772.09,477.085a18.957,18.957,0,0,1,1.878,6,29.319,29.319,0,0,1-.145,7.037c-.147,1.535-.332,2.8-.479,3.691l3.981.8a9.038,9.038,0,0,0,3.667,4.953c8.346,5.881,16.3-7.484,11.9-14.493.051.081,1.069-.812,1.129-.876a3.768,3.768,0,0,0,1.014-2.246,1.894,1.894,0,0,0-.259-1.153,2.242,2.242,0,0,0-1.71-.883c-1.416-.139-1.62.928-2.213,1.938-.711-.94.346-4.809-.365-5.75a7.022,7.022,0,0,1-3.791-.291c-2.029-.788-2.372-2.191-5.181-4.293-1.821-1.361-3.465-3.107-4.525-2.652-1.286.549-2.408,1.3-4.155,3.718C771.949,473.822,772.785,476.682,772.09,477.085Z" transform="translate(-562.432 -461.242)"/><path class="p" d="M784.651,466.161s-2.123-3.376-6.948-1.011a7.673,7.673,0,0,0-3.056,2.893,12.988,12.988,0,0,1-5.212,4.365s.632,1.193,2.736.841c-.871.145-1.146,3.674-1.183,4.252-.142,2.156.21,5.446,2.057,6.873.6-2.5.677-4.83,1.906-7.216a20.619,20.619,0,0,1,5.058-5.956C780.336,470.912,784.739,466.3,784.651,466.161Z" transform="translate(-563.752 -463.475)"/><path class="q" d="M904.211,684.3c-8.367,3.345-27.551-7.976-65.948-30.62-15.553-9.17-27.855-17.041-42.68-16.282-1.267.064-2.534.19-3.841.38a42.235,42.235,0,0,0-5.994,1.351,48.715,48.715,0,0,0-14.635,7.481c-.031-.433-.054-.876-.085-1.33-.475-7.5-.918-17.05-1.087-28.12-.021-1.614-.042-3.3-.052-5.054-.433-31.782-.2-83.031,18.254-98.595a100.212,100.212,0,0,0,10.838-10.224c1.086-1.2,2.216-2.5,3.356-3.905a96.367,96.367,0,0,0,8.831-12.956c.506.094,1.033.2,1.562.305a129.707,129.707,0,0,1,47.323,19.711c47.81,32.541,55.744,86.639,57.707,100.124C921.135,629.616,922.876,676.845,904.211,684.3Z" transform="translate(-563.575 -452.474)"/><path class="r" d="M806.938,606.186a103.281,103.281,0,0,0-16.4,9.718c-1.267.064-2.542.19-3.851.38a42.179,42.179,0,0,0-5.983,1.35c-.316-6.247-.59-13.527-.707-21.609-.021-1.614-.042-3.3-.063-5.055,16.533-27.855,51.048-81.711,55.037-53.242C840.239,575.334,826.374,596.912,806.938,606.186Z" transform="translate(-558.529 -430.975)"/><path class="q" d="M702.8,590.068c-.205,1.511,1.415,2.218,4.122,8.246a55.44,55.44,0,0,1,2.944,8.244c14.306.855,26.154,15.051,34.3,19.853,14.286,8.42,37.072,19.016,60.66,14.135,13.5-2.794,22.381-9.9,33.569-18.845a145.5,145.5,0,0,0,36.514-43.581c.879-2.932,11.934-41.963-12.368-67.137-3.188-3.3-11.377-11.785-21.791-12.956-23.7-2.665-53.3,33.2-70.083,90.106-8.728-2.271-18.685-4.109-36.084-5.275C717.957,582.737,708.982,584.274,702.8,590.068Z" transform="translate(-596.902 -446.777)"/><g transform="translate(0 90.451)"><path d="M632.069,525.707l2.871-1.546,39.532,70.45-1.1,3.534Z" transform="translate(-632.069 -524.161)"/><path d="M740.038,574.745v-3.534H660.754l-1.1,3.534Z" transform="translate(-618.351 -500.761)"/></g><path class="r" d="M803.034,486.736a9.015,9.015,0,0,1-1.3,3.63c-1.773,2.4-1.33,8.875-2.438,10.859s-.433,3.977-7.217,2.574c-1.024-.211-1.952-.38-2.8-.506,1.086-1.2,2.216-2.5,3.356-3.905a96.367,96.367,0,0,0,8.831-12.956C801.978,486.525,802.5,486.632,803.034,486.736Z" transform="translate(-553.88 -452.474)"/><path class="e" d="M840.972,636.962s23.273-19.477,26.693-25.853,11.648-24.634,11.648-24.634l5.913-18,6.732,40.423-8.7,22.1-6.877,7.181-7.746,6.96-10.661-.467Z" transform="translate(-528.174 -411.669)"/><path class="d" d="M812.547,659.918c5.832-.171,35.359-1.211,57.845-25.558,29.08-31.484,25.835-82.211,25.449-87.38-.265-1.719.506-3.122,1.346-3.324.93-.223,2.5.9,2.778,2.989.409,4.76,4.546,60.4-27.16,89.975C847.88,659.872,818.048,660.075,812.547,659.918Z" transform="translate(-542.311 -424.028)"/><path class="s" d="M899.512,615.722c-5.172,16.42-16.529,30.549-30.818,40a65.206,65.206,0,0,1-13.826,6.918c10.823-8.177,20.849-17.636,28.391-28.3,12.723-17.98,17.827-42.183,8.729-62.859a63.667,63.667,0,0,0-15.351-21.3c.147-2.138.276-4.116.386-5.922C900.029,559.122,907.462,590.457,899.512,615.722Z" transform="translate(-521.263 -423.712)"/></g><g transform="translate(552.958 490.023)"><path class="t" d="M557.092,481.744l-2.875,4.857-.624,7.052,2.036,6.373s3.5,6.738,7.888,7.626a99.492,99.492,0,0,0,10.6,1.306H817.863s7.286-3.266,8.541-5.224,5.844-7.819,4.857-13.476-6.033-13.711-13.789-14.416-14.777-.783-14.777-.783H568.911S560.24,477.3,557.092,481.744Z" transform="translate(-552.642 -474.547)"/><path class="q" d="M814.73,509.8H570.5a17.54,17.54,0,0,1,0-35.079H814.73a17.54,17.54,0,0,1,0,35.079ZM570.5,476.292a15.965,15.965,0,0,0,0,31.929H814.73a15.965,15.965,0,0,0,0-31.929Z" transform="translate(-552.958 -474.717)"/></g><text class="u" transform="translate(575.1 498.843)"><tspan x="0" y="13">https://www.freesoundeffects.com/</tspan></text></g></g></svg>