<svg xmlns="http://www.w3.org/2000/svg" xmlns:xlink="http://www.w3.org/1999/xlink" width="470.847" height="396.503" viewBox="0 0 470.847 396.503"><defs><style>.a{fill:none;}.b{clip-path:url(#a);}.c{opacity:0.15;}.d{opacity:0.3;}.e{fill:#999;}.f{fill:#ccc;}.g{fill:gray;}.h{fill:#d8a35d;fill-rule:evenodd;}.i{fill:#947dce;}</style><clipPath id="a"><rect class="a" width="470.847" height="396.503"/></clipPath></defs><g transform="translate(-926.884 -385.602)"><g class="b" transform="translate(926.884 385.602)"><g transform="translate(24.041 55.414)"><path class="c" d="M1304.094,629.146s-222.425,15.342-230.309,231.227l-.927,4.7,45.563-19.939s84.009-134.931,86.949-136.525S1304.094,629.146,1304.094,629.146Z" transform="translate(-940.636 -423.852)"/><g class="d" transform="translate(6.035 188.444)"><path d="M955.433,614.826c-.155-.479-.308-.955-.454-1.42C954.979,613.405,955.146,613.906,955.433,614.826Z" transform="translate(-954.979 -613.405)"/></g><path class="e" d="M1161.132,440.979,961.186,562.733a24.7,24.7,0,0,0-8.252,33.917l83.113,136.458a7.606,7.606,0,0,0,.635.939,24.611,24.611,0,0,0,33.271,7.287L1269.9,619.581a24.662,24.662,0,0,0,8.226-33.906l-79.237-130.142-3.849-6.328A24.663,24.663,0,0,0,1161.132,440.979Z" transform="translate(-949.342 -437.368)"/><path class="f" d="M1165.321,447.767,965.374,569.521a24.662,24.662,0,0,0-8.227,33.906l79.238,130.141a24.611,24.611,0,0,0,33.271,7.287L1269.6,619.1a24.662,24.662,0,0,0,8.226-33.906l-79.237-130.142A24.613,24.613,0,0,0,1165.321,447.767Z" transform="translate(-949.046 -436.89)"/><circle class="g" cx="19.056" cy="19.056" r="19.056" transform="translate(148.209 140.595)"/><path class="c" d="M1109.561,754.735s79.984-29.071-33.379-228.7,15.292,178.555,15.292,178.555Z" transform="translate(-943.693 -435.219)"/><g transform="translate(60.953 10.292)"><g transform="translate(9.017)"><path class="h" d="M1055.894,559.284c-.195-2.84,4.684-35.685.1-50.5s-12.816-36.409-13.767-44.644c-1.12-9.688-5.469-10.453-5.151,1.111.207,7.515,1.866,22.4,2.963,25.395.532,1.452-2.063-8.365-4.148-19.338-2.216-11.667-4.007-24.575-6.141-24.317-4.14.5.315,34.9,1.98,40.6a148.708,148.708,0,0,1-4.2-15.1c-1.532-6.965-2.309-15.351-4.259-16.255-3.073-1.425-2.725,17.629,1,31.954-.341.417-2.837-3.675-6.118-20.987-.33-1.74-2.717-5.53-2.973.719-.541,13.154-1.743,18.771,4.375,34.979,5.967,15.807,16.3,31.7,17.179,44.484Z" transform="translate(-1014.705 -446.982)"/><path class="h" d="M1055.292,514.6s7.694-17.33,4.177-31.763c-2.091-8.579.017-9.23.055-10.855.122-5.4-6.524,2.526-5.864,10.276.536,6.3-7.691,13.34-8.326,17.523s-.195,15.726,2.147,17.683S1055.292,514.6,1055.292,514.6Z" transform="translate(-1012.565 -445.345)"/></g><path class="i" d="M1468.46,651.448c-23.851,67.9-50.858,119.231-177.508,196.656-64.254,39.282-134.167,64.883-171.588,77.047a46.349,46.349,0,0,1-49.417-14.034C954.507,777.005,1031.326,545.5,1031.326,545.5c-.367-10.262,38.747-5.471,38.747-5.471,36.392,85.484,60.964,152.355,62.941,231.652.019-.414,98.027-119.292,128.956-142.684,81.119-61.314,127.525-171.9,171.513-166.446C1448.695,464.427,1492.519,582.954,1468.46,651.448Z" transform="translate(-1006.282 -445.899)"/></g></g></g></g></svg>