<svg xmlns="http://www.w3.org/2000/svg" xmlns:xlink="http://www.w3.org/1999/xlink" width="502" height="436" viewBox="0 0 502 436"><defs><style>.a{fill:#fff;stroke:#707070;}.b,.j{fill:none;}.c{clip-path:url(#a);}.d{clip-path:url(#b);}.e{fill:#d8a35d;}.f{fill:#62548a;}.g{fill:#ffc84f;}.h{opacity:0.3;}.i{opacity:0.5;}.j{stroke:#947dce;stroke-miterlimit:10;stroke-width:1.256px;}.k{fill:#947dce;}.l{fill:#d19442;}.m{fill:#999;}.n{fill:#ccc;}.o{fill:gray;}.p{opacity:0.15;}</style><clipPath id="a"><rect class="a" width="502" height="436" transform="translate(731 332)"/></clipPath><clipPath id="b"><path class="b" d="M1238.8,350.951c-8.039-17.761-33.06-66.743-89.422-96.094-20.437-10.642-76.048-39.6-128.322-15.6-49.242,22.611-78.723,84.506-71.371,153.125a176.772,176.772,0,0,0-69.3,28.631c-50.99,35.641-85.908,102.067-76.21,161.006,18.08,109.89,188.364,176.207,279.533,118.674,41.442-26.152,57.806-72.384,64.471-99.266,17.33,7.533,63.068,24.41,105.431,5.053,76.533-34.975,95.526-166.966,41.973-224.808C1278.219,362.916,1255.827,354.769,1238.8,350.951Z" transform="translate(-802.558 -229.988)"/></clipPath></defs><g class="c" transform="translate(-731 -332)"><g transform="translate(-80.558 101.597)"><g class="d" transform="translate(802.558 229.988)"><g transform="translate(105.576 21.313)"><path class="e" d="M1068.123,719.349s-.412,187.854,7.672,190.331c14.509,4.534,70.973,18.524,10.341,19.956-30.763,4.732-29.148-2.3-30.185-8.033-.848-4.685-15.938-171.359-18.453-184.2-.563-2.874-.9-4.613-.9-4.613Z" transform="translate(-868.386 -168.188)"/><path class="e" d="M975.944,718.884s-11.983,186.77-20.092,189.161c-14.559,4.38-71.171,17.77-10.558,19.845,30.708,5.057,29.17-1.991,30.271-7.713.9-4.676,8.237-40.106,10.891-52.914.594-2.868,22.218-147.667,22.218-147.667Z" transform="translate(-888.552 -168.267)"/><path class="f" d="M979.717,881.494c.648-2.647-18.742-4.414-21.167-2.46s-41.853,5.787-42.3,17.172,53.985,8.067,57.832,8.2S978.444,886.695,979.717,881.494Z" transform="translate(-888.825 -141.208)"/><g transform="translate(47.193 335.487)"><path class="g" d="M953.069,542.852a12.093,12.093,0,0,0,6.945,2.8c16.008-.383,85.142-2.208,122.523-5.954,13.188-1.323,22.421-2.884,23.974-4.714,0,0,0,.054,0,.151-.007,2.043-.154,25.424-.457,56.077-.6,60.51,9.574,146.7,18.131,172.623,1.847,5.6-84.367.731-84.367.731-3.011-62.289-1.886-171.92-5.974-176.654-4.973-5.76-8.327,90.773-13.5,171.654-33.6,10.22-87.662,7.239-87.192,3.776C938.723,722.2,953.069,542.852,953.069,542.852Z" transform="translate(-933.148 -534.987)"/><g class="h" transform="translate(83.09)"><path d="M1004.948,542.517c-.261-.009-.521-.019-.773-.03C1004.175,542.487,1004.449,542.494,1004.948,542.517Z" transform="translate(-1004.175 -533.713)"/><path class="i" d="M1004.836,543.791c20.658.729,65.526-4.09,65.526-4.09,13.188-1.323,22.421-2.884,23.974-4.714,0,0,0,.054,0,.151-.007,2.043-.154,25.424-.457,56.077a15.626,15.626,0,0,1-2.175-.153c-4.67-.647-8.352-3.325-11.234-7.165a36.766,36.766,0,0,1-4.625-8.546C1059.21,547.2,1011.457,544.09,1004.836,543.791Z" transform="translate(-1004.063 -534.987)"/></g><g transform="translate(23.073 4.715)"><line class="j" x1="11.792" y2="225.791" transform="translate(0 1.026)"/><line class="j" x1="11.802" y2="221.869" transform="translate(21.822 4.587)"/><line class="j" x1="8.227" y2="220.167" transform="translate(46.541 3.671)"/><line class="j" x2="2.485" y2="45.424" transform="translate(75.134 2.789)"/><line class="j" x2="5.785" y2="224.014" transform="translate(97.74 1.81)"/><line class="j" x2="8.88" y2="225.761" transform="translate(117.185 0.828)"/><line class="j" x2="14.501" y2="226.816" transform="translate(136.304)"/></g><path class="j" d="M948.547,562.789s122.995.4,155.171-6.718" transform="translate(-930.533 -531.406)"/><path class="j" d="M1031.46,580.512c-42.518,11.455-84.292-1.935-84.292-1.935" transform="translate(-930.767 -527.584)"/><path class="j" d="M1018.717,578.012s39.234,9.066,72.874-1.481" transform="translate(-918.615 -527.931)"/><path class="j" d="M945.99,592.741s31.661,14.645,81.567,4.319" transform="translate(-930.967 -525.178)"/><path class="j" d="M944.571,609.61s48.806,12.42,81.684,3.518" transform="translate(-931.208 -522.313)"/><path class="j" d="M943.141,626.369S968.512,644.277,1025,633.3" transform="translate(-931.451 -519.467)"/><path class="j" d="M941.466,645.648s38.258,17.66,82.764,2.558" transform="translate(-931.736 -516.192)"/><path class="j" d="M939.9,663.311s27.315,17.4,83.36,4.18" transform="translate(-932.002 -513.192)"/><path class="j" d="M938.241,681.424s37.4,17.272,84.362-.025" transform="translate(-932.283 -510.12)"/><path class="j" d="M936.9,695.555s22.481,19.532,84.913,1.626" transform="translate(-932.511 -507.716)"/><path class="j" d="M935.291,711.6s35.685,16.618,85.735,1.019" transform="translate(-932.784 -504.991)"/><path class="j" d="M1021,595.276s16.779,12.488,71.189.323" transform="translate(-918.227 -524.747)"/><path class="j" d="M1022.122,612.346s23.185,9.468,69.412-.8" transform="translate(-918.037 -521.985)"/><path class="j" d="M1022.013,631.546s35.547,8.906,70.423-3.05" transform="translate(-918.056 -519.105)"/><path class="j" d="M1022.276,647.19s34.77,13.48,71.607-3.1" transform="translate(-918.011 -516.457)"/><path class="j" d="M1022.548,664.368s32.97,9.835,73.123-3.167" transform="translate(-917.965 -513.551)"/><path class="j" d="M1022.833,680.867s27.908,10.929,74.927-3.244" transform="translate(-917.916 -510.762)"/><path class="j" d="M1023.481,695.194s33.23,15.113,76.66-1.561" transform="translate(-917.806 -508.042)"/><path class="j" d="M1023.624,713.579s37.51,10.759,79.812-2.544" transform="translate(-917.782 -505.087)"/></g><path class="f" d="M1050.878,878.64c-.619-2.654,22.911-1.413,25.314.565s37.051,7.886,37.373,19.274-54.069,7.5-57.919,7.585S1052.093,883.856,1050.878,878.64Z" transform="translate(-865.962 -141.391)"/><path class="k" d="M939.884,587.892c11.495,15.747,101.633,29.261,148.528,20.468a73.711,73.711,0,0,0,15.455-4.437c4.447-1.93,8.755-6.959,12.864-14.363,31.269-56.384,50.627-250.484,28.072-261.537-25.511-12.508-71.625,1.431-71.625,1.431l-17.136,21.9L973.36,400.064s-19.174,70.263-29.44,125.177c-.758,4.049-1.465,8.016-2.115,11.856C937.563,562.264,935.872,582.4,939.884,587.892Z" transform="translate(-885.198 -235.536)"/><path class="l" d="M1052,306.843c.012,1.748-3.038,19.987-1.224,24.54s12.286,7.889,11.568,8.651-14.878,15.185-28.033,11.5-5.7-11.5-5.7-11.5a26.646,26.646,0,0,0,6.771-20.794C1034.039,306.344,1052,306.843,1052,306.843Z" transform="translate(-870.1 -238.248)"/><path class="k" d="M914.209,572.748c38.908,5.67,122.024-33.147,122.024-33.147l-7.93-21.872s-49.1,2.244-57.062,3.553c0,0,23.99-19.629,31.669-45.8,5.65-19.25,73.85-101.605,94.33-137.507,7.361-12.908-16.454-9.425-16.454-9.425s-5.379,14.079-14.616,15.758a10.376,10.376,0,0,1-5.179-.4c-12.382-4.068-12.873-9.208-12.873-9.208a239.88,239.88,0,0,0-30.956,5.034c-16.06,3.644-35.618,9.739-51.668,19.735-33.594,20.938-57.066,86.045-61.006,108.883S875.307,567.078,914.209,572.748Z" transform="translate(-892.807 -234.634)"/><g transform="translate(62.784 177.447)"><path class="m" d="M1067.95,418.17l-6.245,127.244a13.557,13.557,0,0,1-14.255,12.77l-88.03-4.213a4.533,4.533,0,0,1-.622-.06,13.455,13.455,0,0,1-12.307-14.005l6.245-127.244a13.535,13.535,0,0,1,14.257-12.755l83.948,4.006,4.08.193A13.492,13.492,0,0,1,1067.95,418.17Z" transform="translate(-946.475 -399.891)"/><path class="n" d="M1063.247,417.918,1057,545.162a13.536,13.536,0,0,1-14.257,12.755L958.8,553.911a13.455,13.455,0,0,1-12.307-14.005l6.245-127.244a13.535,13.535,0,0,1,14.257-12.755l83.948,4.006A13.454,13.454,0,0,1,1063.247,417.918Z" transform="translate(-946.475 -399.891)"/><ellipse class="o" cx="10.511" cy="10.37" rx="10.511" ry="10.37" transform="translate(47.114 69.794)"/></g><g transform="translate(145.423)"><ellipse class="e" cx="22.499" cy="30.285" rx="22.499" ry="30.285" transform="translate(4.813 20.178) rotate(-2.516)"/><g transform="translate(5.246 8.477)"><path class="g" d="M1034.981,279.4s39.821,19.676,26.817-14.023C1052.8,242.067,1007.79,265.268,1034.981,279.4Z" transform="translate(-1020.793 -255.453)"/><path class="g" d="M1041.082,270.775s-21.231,13.647-18.588,26.347c0,0-6.425-37.975,15.185-39.832s30.079-.14,29.874,40.306C1067.553,297.6,1059.9,265.746,1041.082,270.775Z" transform="translate(-1021.601 -255.221)"/></g><path class="g" d="M1034.547,259.04s.589-11.939,12.612-10.75,17.433,7.716,19.426,14.383,3.917,11.649,5.625,11.579c0,0-4.907,5.265-6.687,3.651,0,0,4.947,11.931-.261,22.11,0,0-2.867-15.23-11.476-16.561S1034.547,259.04,1034.547,259.04Z" transform="translate(-1014.157 -248.207)"/><path class="g" d="M1038.6,257.471s-8.753-4.7-16.788,7.445l-4.692,10.318s1.779,1.614,5.122-.212c0,0-1.051,11.932.866,18.564l4.186-20.461Z" transform="translate(-1017.117 -246.785)"/></g><path class="p" d="M941.84,508.024a108.26,108.26,0,0,0,6.522,9.143c.022.028-.184,3.329-.161,3.357,4.509,5.691,9.557,9.277,19,17.732.085.077,2.616.109,2.7.186q1.485,1.327,3.057,2.7c29.266,25.617,82.813,34.683,115.491,38.14a73.711,73.711,0,0,0,15.455-4.437c4.447-1.93,8.755-6.959,12.864-14.363l-172.81-64.319-5.86-2.183S935,497.24,941.84,508.024Z" transform="translate(-885.234 -206.464)"/><path class="p" d="M1106.58,356s-30.392,34.906-49.17,70.255c-1.412,2.656-9.306,22.393-9.321,22.447C1035.915,490.557,1029.9,553.06,1029.9,553.06l29.047-69.219Z" transform="translate(-869.523 -229.899)"/><path class="e" d="M936.523,502.009c7.13.977,25.59,7.179,25.59,7.179l3.673-11.241s-8.769-5.375-11.193-8.285-3.727-5.387-5.732-6.911-7.266-2.823-7.266-2.823l-.6.763-.59.756s-.071,0-.2-.016a19.543,19.543,0,0,1-2.83-.367c-.178-.122-1.958,1.041-3.12,2.1a5.083,5.083,0,0,0-.878.988,8.264,8.264,0,0,1-2.637,2.158c-.295.18-.537.32-.667.413s-.512.448-.991.914c-1.191,1.176-3.043,3.125-3.626,3.817-.708.832-2.754,2.205-3.786,3.683a4,4,0,0,0-.419.745C920.53,497.622,929.394,501.031,936.523,502.009Z" transform="translate(-887.981 -208.851)"/><path class="k" d="M1088.786,404.2c0-1.871,15.905-87.885,49.951-78.679s57.037,17.056,70.3,82.915-14.347,194.437-129.813,185.974S976.583,551.243,947.8,535.887l5.551-21.713s4.993,8.447,19.592,5,56.6-14.17,81.8-9.679c0,0,20.534-15.479,18.888-24.031s10.043-68.3,21-82.7S1088.786,404.2,1088.786,404.2Z" transform="translate(-883.466 -235.192)"/><path class="p" d="M937.457,481.319a.9.9,0,0,0,.207.192c.619.366,4.441,1.664,4.854,1.786s-1.4-1.013-1.894-1.054a11.111,11.111,0,0,1-2.382-1.664l-.59.756S937.581,481.331,937.457,481.319Z" transform="translate(-885.223 -208.74)"/><g transform="translate(157.46 247.297)"><path class="e" d="M1027.406,486.655c.305-.352,4.621.791,5.01,1.048,2.075,1.377,3.238,3.487,5.724,3.788.7.085,4.5.566,4.082-.894a5.861,5.861,0,0,0-2.293-3.049s.05,0,.151.011c.242.011.787.05,1.585.144a49.672,49.672,0,0,1,7.251,1.481c5.453,1.508,12.331-3.116,12.714-3.6s-.455-1.192-3.058-1.841c-.033-.011-.061-.016-.095-.028-2.675-.66-8.212-1.225-8.212-1.225s10.123-.188,15.85-.188a9.387,9.387,0,0,0,1.265-.083h.022a10.006,10.006,0,0,0,6.235-3.494.776.776,0,0,0-.578-1.278c-1.757-.061-4.725-.2-6.944-.48-2.7-.344-10.241.583-13.085.959-.692.089-1.107.15-1.107.15s-2.434-.117,5.682-3.7,7.565-14.622,7.565-14.622a1.37,1.37,0,0,0-.719-.15c-.91.028-2.613.726-4.828,4.586-3.345,5.845-9.656,7.641-10.437,9.526s-6.768,5.4-6.768,5.4-3.255,1.392-4.974,1.9c-1.225.36-1.483,2.068-1.529,3.011-.011.277-.006.494,0,.583v.049a17.453,17.453,0,0,1-3.349-1.32C1031,482.485,1027.407,486.654,1027.406,486.655Z" transform="translate(-1027.406 -459.601)"/><path class="p" d="M1049.743,477.922c-.692.089-1.107.15-1.107.15s-2.434-.117,5.682-3.7,7.565-14.622,7.565-14.622a1.37,1.37,0,0,0-.719-.15,5.073,5.073,0,0,1,.118,2.169c-.309,1.314-3.451,9.437-6.431,11.295s-7.447,4.408-8,4.8S1048.394,478.365,1049.743,477.922Z" transform="translate(-1024.118 -459.601)"/><path class="p" d="M1037.308,477.764a5.1,5.1,0,0,1,2.76.4c.86.621,5.1,1.164,6.351,1.469.866.216,6.846.759,10.471,1.081-.033-.011-.061-.016-.095-.028-2.675-.66-8.212-1.225-8.212-1.225s10.123-.188,15.85-.188a9.387,9.387,0,0,0,1.265-.083c-5.424-.123-13.821-.35-15.2-.4-2.04-.078-5.885.615-7.217,0s-4.391-1.625-5.02-1.315A3.025,3.025,0,0,1,1037.308,477.764Z" transform="translate(-1025.724 -456.576)"/><path class="p" d="M1034.681,481.059l4.165,2.955c.242.011.787.05,1.585.144a4.081,4.081,0,0,0-1.327-2.024,14.655,14.655,0,0,0-4.423-1.658C1034.67,480.753,1034.675,480.97,1034.681,481.059Z" transform="translate(-1026.172 -456.055)"/></g><path class="p" d="M999.107,338.78c3.678,3.34,8.437,6.529,12.883,6.115,9.01-.849,15.44,1.693,23.134,5.923,5.026,2.764,10.241-2.93,12.991-7.464a10.376,10.376,0,0,1-5.179-.4c-12.382-4.068-12.873-9.208-12.873-9.208A239.88,239.88,0,0,0,999.107,338.78Z" transform="translate(-874.752 -233.679)"/></g></g></g></g></svg>