<svg xmlns="http://www.w3.org/2000/svg" width="238.607" height="364.132" viewBox="0 0 238.607 364.132"><defs><style>.a{fill:#fefefe;}.b{fill:#d8eded;}.c,.k{fill:#5bbfd1;}.c,.d{fill-rule:evenodd;}.d{fill:#ffc84f;}.e{fill:#947dce;}.f{fill:#bf963b;}.g,.i,.j{fill:#fff;}.h{fill:#f2be4b;}.i{opacity:0.04;}.j{opacity:0.21;}</style></defs><g transform="translate(-971.819 -299.513)"><path class="a" d="M981.635,466.741l43.829.419-.444,30.558-13.814,15.07H981.9Z"/><path class="b" d="M1011.1,512.09l13.884-13.462-5.093-.77-6.615,1.071-1.268,1.623-.907,3.166V512.3"/><path class="c" d="M986.262,493.2l11.69-13.814,5.6,3.767,10.371-9.209,7.535,8.938v10.806Z"/><path class="d" d="M986.262,476.523a3.279,3.279,0,1,1,3.279,3.279A3.279,3.279,0,0,1,986.262,476.523Z"/><path class="e" d="M1011.1,513.479H981.757a.962.962,0,0,1-.963-.963V453.243a.962.962,0,0,1,.963-.963h44.014a.96.96,0,0,1,.963.967l-.168,44.6a.961.961,0,0,1-.278.674l-14.5,14.668A.959.959,0,0,1,1011.1,513.479Zm-28.381-1.924H1010.7l13.945-14.1.163-43.248H982.719Z"/><path class="e" d="M1011.1,513.479a.991.991,0,0,1-.366-.07.966.966,0,0,1-.6-.893v-7.3c0-5.758,2.54-8.325,8.234-8.325h7.232a.961.961,0,0,1,.685,1.639l-14.5,14.668A.962.962,0,0,1,1011.1,513.479Zm7.271-14.666c-4.6,0-6.308,1.734-6.308,6.4v4.962l11.235-11.361Z"/><rect class="e" width="43.828" height="14.816" transform="translate(981.85 453.243)"/><path class="a" d="M994.092,464.85h-1.664v-1.471h1.664ZM999.007,457h1.552v5.492a2.361,2.361,0,0,1-.73,1.812,2.758,2.758,0,0,1-1.868.66,2.917,2.917,0,0,1-1.926-.6,2.168,2.168,0,0,1-.691-1.754l.019-.039h1.514a1.169,1.169,0,0,0,.3.906,1.078,1.078,0,0,0,.785.283.963.963,0,0,0,.747-.339,1.4,1.4,0,0,0,.3-.926Zm4.543,5v2.849h-1.57V457h3.1a3.061,3.061,0,0,1,2.112.677,2.331,2.331,0,0,1,.767,1.832,2.262,2.262,0,0,1-.767,1.813,3.062,3.062,0,0,1-2.112.68Zm0-1.207h1.532a1.32,1.32,0,0,0,.99-.36,1.437,1.437,0,0,0,0-1.849,1.255,1.255,0,0,0-.99-.377h-1.532Zm11.549,2.982a3.02,3.02,0,0,1-1.084.83,4.257,4.257,0,0,1-1.869.357,3.167,3.167,0,0,1-2.317-.886,3.12,3.12,0,0,1-.916-2.34v-1.623a3.167,3.167,0,0,1,.879-2.324,2.955,2.955,0,0,1,2.224-.9,3.08,3.08,0,0,1,2.187.7,2.394,2.394,0,0,1,.766,1.832v.037h-1.476a1.6,1.6,0,0,0-.394-.981,1.373,1.373,0,0,0-1.027-.377,1.4,1.4,0,0,0-1.159.565,2.216,2.216,0,0,0-.43,1.433v1.645a2.246,2.246,0,0,0,.449,1.453,1.476,1.476,0,0,0,1.214.566,2.739,2.739,0,0,0,.878-.113,1.277,1.277,0,0,0,.506-.283v-1.453h-1.384v-1.1h2.953Z"/><path class="e" d="M989.532,480.973a4.578,4.578,0,1,1,4.551-4.588A4.565,4.565,0,0,1,989.532,480.973Zm0-7.23a2.652,2.652,0,1,0,2.626,2.642A2.627,2.627,0,0,0,989.532,473.743Z"/><path class="e" d="M1021.435,494.432H986.093a.964.964,0,0,1-.745-1.574l11.72-14.234a.962.962,0,0,1,1.315-.164l4.834,3.562,10.089-8.852a.952.952,0,0,1,.708-.238.974.974,0,0,1,.665.344l7.476,8.928a.966.966,0,0,1,.225.617l.018,10.646a.965.965,0,0,1-.963.965Zm-33.3-1.924h32.337l-.015-9.336-6.62-7.906-9.932,8.715a.966.966,0,0,1-1.206.051l-4.723-3.481Z"/><path class="f" d="M1041.31,498.44l169.116.837L1191.17,654.161S1044.379,535,1044.659,533.6,1041.31,498.44,1041.31,498.44Z"/><rect class="g" width="132.837" height="18.698" transform="translate(1048.286 503.184)"/><path class="a" d="M1063.279,481.718l43.829.419-.444,30.558-13.814,15.07h-29.3Z"/><path class="b" d="M1092.745,527.067l13.884-13.462-5.093-.77-6.615,1.071-1.268,1.623-.907,3.166v8.581"/><path class="e" d="M1092.759,528.458h-29.343a.963.963,0,0,1-.963-.963V468.219a.963.963,0,0,1,.963-.963h44.014a.961.961,0,0,1,.963.967l-.168,44.627a.959.959,0,0,1-.278.672l-14.5,14.649A.967.967,0,0,1,1092.759,528.458Zm-28.38-1.926h27.98l13.942-14.084.164-43.268h-42.086Z"/><path class="e" d="M1092.759,528.458a.992.992,0,0,1-.366-.073.964.964,0,0,1-.6-.89v-7.307c0-5.742,2.539-8.3,8.233-8.3h7.232a.961.961,0,0,1,.685,1.639l-14.5,14.649A.966.966,0,0,1,1092.759,528.458Zm7.271-14.649c-4.6,0-6.308,1.729-6.308,6.379v4.965l11.232-11.344Z"/><rect class="e" width="43.828" height="14.818" transform="translate(1063.509 468.219)"/><path class="a" d="M1071.154,479.848h-1.665v-1.492h1.665Zm7.924,0h-1.552v-3.267h-3.177v3.267h-1.55v-7.871h1.55v3.377h3.177v-3.377h1.552Zm6.841-6.646h-2.206v6.646h-1.551V473.2h-2.206v-1.225h5.963Zm2.9-1.225,2,5.793h.018l2-5.793h2.037v7.871h-1.553v-2.361l.15-3.455-.037-.018-2.074,5.834h-1.048l-2.074-5.816-.037.019.149,3.436v2.361h-1.569v-7.871Zm9.084,6.643h3.457v1.228h-5.027v-7.871h1.57Z"/><path class="e" d="M1079.582,508.372a1.283,1.283,0,0,1-.882-.352l-7.283-6.9c-.009-.01-.019-.018-.028-.028a1.28,1.28,0,0,1-.256-.359,1.287,1.287,0,0,1,.255-1.463.219.219,0,0,1,.028-.025l7.282-6.922a1.283,1.283,0,1,1,1.768,1.861l-6.308,5.994,6.308,5.981a1.284,1.284,0,0,1-.884,2.215Zm11.664,0a1.284,1.284,0,0,1-.883-2.217l6.323-5.979-6.324-5.994a1.284,1.284,0,0,1,1.766-1.863l7.3,6.92.035.035a1.3,1.3,0,0,1,.249.35h0a1.292,1.292,0,0,1,.125.558,1.269,1.269,0,0,1-.127.553,1.284,1.284,0,0,1-.248.352c-.012.009-.024.021-.036.031l-7.3,6.9A1.289,1.289,0,0,1,1091.246,508.372Z"/><path class="h" d="M1191.169,515.745v147.9H973.5l-.72-70.36-.96-94.85h81.49v17.31Z"/><path class="i" d="M1191.169,515.745v113.03c-23.54,8.86-67.33,19.19-110.79-3.08a125.367,125.367,0,0,1-43.649-37.41c-17.241-23.27-23.651-47.02-25.561-54.12a149.615,149.615,0,0,1-5.1-35.73h47.24v17.31Z"/><path class="j" d="M1151.789,515.745a141.991,141.991,0,0,1-36.25,41.86c-24.83,19.11-52.64,26.73-78.809,30.68-11.071,1.67-21.851,2.69-31.981,3.64a312.845,312.845,0,0,1-31.97,1.36l-.96-94.85h81.49v17.31Z"/><path class="a" d="M1140.232,426.153l43.829.419-.444,30.558L1169.8,472.2h-29.3Z"/><path class="c" d="M1165.852,450.15l-5.229-7.587-3.666,10.517Z"/><path class="b" d="M1169.7,471.5l13.884-13.462-5.093-.77-6.615,1.071-1.269,1.623-.907,3.166v8.581"/><path class="e" d="M1169.318,472.892h-29.345a.962.962,0,0,1-.961-.963V412.654a.962.962,0,0,1,.961-.963h44.017a.963.963,0,0,1,.962.967l-.169,44.607a.955.955,0,0,1-.278.672L1170,472.605A.959.959,0,0,1,1169.318,472.892Zm-28.382-1.926h27.979l13.945-14.1.163-43.25h-42.087Z"/><path class="e" d="M1169.317,472.892a.961.961,0,0,1-.962-.963v-7.3c0-5.757,2.539-8.326,8.232-8.326h7.234a.962.962,0,0,1,.684,1.639L1170,472.605A.957.957,0,0,1,1169.317,472.892Zm7.27-14.668c-4.6,0-6.306,1.734-6.306,6.4v4.961l11.233-11.361Z"/><rect class="e" width="43.829" height="14.818" transform="translate(1140.068 412.654)"/><path class="a" d="M1153.168,424.263h-1.663v-1.471h1.663Zm3.365-3.058v3.058h-1.663v-8.418h3.327a3.31,3.31,0,0,1,2.261.754,2.5,2.5,0,0,1,.823,1.945,2.527,2.527,0,0,1-.823,1.944,3.388,3.388,0,0,1-2.261.717Zm0-1.3h1.664a1.334,1.334,0,0,0,1.046-.375,1.35,1.35,0,0,0,.355-.983,1.42,1.42,0,0,0-.355-1,1.3,1.3,0,0,0-1.046-.4h-1.664Zm5.962,4.361v-8.418h2.86a3.4,3.4,0,0,1,3.513,3.529v1.379a3.373,3.373,0,0,1-3.513,3.51Zm1.682-7.115v5.814h1.1a1.747,1.747,0,0,0,1.4-.605,2.457,2.457,0,0,0,.505-1.6v-1.4a2.366,2.366,0,0,0-.505-1.586,1.7,1.7,0,0,0-1.4-.623Zm11.158,3.623h-3.495v3.492h-1.663v-8.418h5.738v1.3h-4.075v2.32h3.495Z"/><path class="e" d="M1169.915,448.972a19.323,19.323,0,0,0-3.4.381,33.068,33.068,0,0,1-5.141-7.74c1.346-5.758.674-6.571.374-6.948-.317-.414-.765-1.076-1.27-1.076a4.956,4.956,0,0,0-1.028.168,2.017,2.017,0,0,0-1.159,1.248c-.711,1.7.28,4.567,1.271,6.795a67.914,67.914,0,0,1-3.831,10.988c-3.831,1.774-5.869,3.51-6.038,5.172a2.435,2.435,0,0,0,1.122,2.284,1.526,1.526,0,0,0,.972.339c.9,0,1.776-.679,2.822-2.152a29.379,29.379,0,0,0,2.411-4.342,48.374,48.374,0,0,1,8.933-2.886c1.589,1.546,3.029,2.339,4.263,2.339a2.658,2.658,0,0,0,2.242-1.226,2.082,2.082,0,0,0,.393-2.19c-.393-.773-1.346-1.154-2.935-1.154Zm-18.111,9.9c-.467-.379-.447-.623-.43-.717.056-.567.936-1.569,3.1-2.795-1.645,3.058-2.523,3.455-2.673,3.512Zm8.3-23.428c.055-.02,1.065,1.133.112,3.285a2.463,2.463,0,0,1-.112-3.285Zm-2.075,16.367a72.477,72.477,0,0,0,2.692-7.721,35.684,35.684,0,0,0,3.868,5.662,52.713,52.713,0,0,0-6.56,2.059Zm13.046-.473a1.529,1.529,0,0,1-1.233.436c-.542,0-.729-.322-1.552-.965a16.877,16.877,0,0,1,1.831-.094,2.124,2.124,0,0,1,1.178.19,1.557,1.557,0,0,1-.224.433Z"/><path class="a" d="M1139.674,326.554l43.829.419-.444,30.558-13.814,15.07h-29.3Z"/><path class="b" d="M1169.14,371.9l13.884-13.462-5.093-.77-6.615,1.071-1.268,1.623-.907,3.166v8.581"/><path class="k" d="M1157.49,337.856l0,.209-.206,11.512.488,2.023,11.651-7.125"/><path class="e" d="M1168.925,373.37h-29.344a.96.96,0,0,1-.962-.962V313.153a.962.962,0,0,1,.962-.963H1183.6a.961.961,0,0,1,.963.966l-.168,44.607a.964.964,0,0,1-.278.674l-14.5,14.65A.971.971,0,0,1,1168.925,373.37Zm-28.38-1.923h27.98l13.942-14.084.164-43.248h-42.086Z"/><path class="e" d="M1168.925,373.37a.95.95,0,0,1-.365-.072.963.963,0,0,1-.6-.89v-7.286c0-5.757,2.539-8.326,8.235-8.326h7.231a.964.964,0,0,1,.686,1.641l-14.5,14.65A.966.966,0,0,1,1168.925,373.37Zm7.272-14.648c-4.6,0-6.309,1.736-6.309,6.4v4.946l11.233-11.346Z"/><rect class="e" width="43.829" height="14.818" transform="translate(1139.675 313.153)"/><path class="a" d="M1150.609,324.479h-1.552V323.1h1.552Zm3.627-7.853,1.98,5.795h.019l2-5.795h2.037v7.853h-1.55v-2.341l.148-3.473h-.036l-2.075,5.814h-1.047l-2.074-5.8h-.037l.148,3.454v2.341H1152.2v-7.853Zm9.064,5v2.851h-1.571v-7.853h3.1a2.982,2.982,0,0,1,2.113.7,2.527,2.527,0,0,1,0,3.625,3.069,3.069,0,0,1-2.113.679Zm0-1.208h1.532a1.32,1.32,0,0,0,.991-.359,1.443,1.443,0,0,0,0-1.849,1.259,1.259,0,0,0-.991-.378H1163.3Zm9.943,1.152h.878v1.208h-.878v1.7h-1.552v-1.7h-3.177l-.074-.944,3.233-5.21h1.57Zm-3.345,0h1.793v-2.85h-.037l-.131.226Z"/><path class="e" d="M1161.579,358.825a14.356,14.356,0,1,1,14.241-14.355A14.3,14.3,0,0,1,1161.579,358.825Zm0-27.107a12.753,12.753,0,1,0,12.637,12.752A12.7,12.7,0,0,0,1161.579,331.718Z"/><path class="e" d="M1157.991,352.292a1.691,1.691,0,0,1-1.458-.828,1.868,1.868,0,0,1-.222-.857V338.335a1.678,1.678,0,0,1,1.662-1.691,1.63,1.63,0,0,1,.918.278l5.2,3.023a.8.8,0,0,1,.123.088l5.131,2.988a1.686,1.686,0,0,1,.6,2.289,1.643,1.643,0,0,1-.608.611l-5.148,3a.9.9,0,0,1-.1.07l-5.27,3.079A1.747,1.747,0,0,1,1157.991,352.292Zm0-14.042a.081.081,0,0,0-.076.085v12.272a.232.232,0,0,0,.029.1c-.01-.023.029-.015.047-.015a.1.1,0,0,0,.045-.01l5.133-3a.6.6,0,0,1,.1-.068l5.269-3.078c.049-.065.027-.11-.006-.127l-5.208-3.036a.794.794,0,0,1-.122-.087l-5.147-2.99A.6.6,0,0,1,1157.991,338.25Z"/><path class="a" d="M1059.151,379.469l43.829.419-.444,30.558-13.814,15.07h-29.3Z"/><circle class="k" cx="3.767" cy="3.767" r="3.767" transform="translate(1066.92 404.341)"/><circle class="k" cx="3.767" cy="3.767" r="3.767" transform="translate(1082.234 400.713)"/><path class="k" d="M1074.751,388.521l.471,5.965,15.571-2.512-.187-6.331Z"/><path class="b" d="M1088.617,424.818l13.884-13.462-5.093-.77-6.615,1.071-1.269,1.623-.907,3.166v8.581"/><path class="e" d="M1088.4,426.307h-29.345a.962.962,0,0,1-.961-.963V366.068a.962.962,0,0,1,.961-.963h44.017a.963.963,0,0,1,.963.966l-.17,44.627a.96.96,0,0,1-.277.673l-14.5,14.649A.963.963,0,0,1,1088.4,426.307Zm-28.382-1.926H1088l13.943-14.084.163-43.267h-42.087Z"/><path class="e" d="M1088.4,426.307a.968.968,0,0,1-.962-.963v-7.307c0-5.744,2.539-8.3,8.233-8.3h7.233a.962.962,0,0,1,.685,1.638l-14.5,14.649A.96.96,0,0,1,1088.4,426.307Zm7.271-14.651c-4.6,0-6.307,1.731-6.307,6.381V423l11.231-11.346Z"/><rect class="e" width="43.829" height="14.818" transform="translate(1059.151 366.068)"/><path class="e" d="M1071.3,413.28a4.975,4.975,0,1,1,0-9.911,5.823,5.823,0,0,1,2.551.579V388.72a1.436,1.436,0,0,1,1.226-1.422l14.547-1.892a1.489,1.489,0,0,1,.19-.013,1.359,1.359,0,0,1,.942.373,1.433,1.433,0,0,1,.477,1.066v17.8a5.432,5.432,0,0,1-10.821,0c0-2.887,2.3-4.9,5.6-4.9a7.341,7.341,0,0,1,3.294.754v-7.172l-13.531,1.767v10.8c0,.24.018.477.035.729a13.344,13.344,0,0,1,.039,1.554C1075.788,411.313,1074.045,413.28,1071.3,413.28Zm0-7.985a3.06,3.06,0,1,0,0,6.061c2.118,0,2.6-1.768,2.625-3.248a11.346,11.346,0,0,0-.035-1.366c-.011-.16-.021-.316-.03-.47A3.667,3.667,0,0,0,1071.3,405.3Zm14.713-3.64c-1.7,0-3.675.779-3.675,2.978a3.52,3.52,0,0,0,6.969,0v-1.84A4.928,4.928,0,0,0,1086.012,401.655Zm-10.237-12.508v3.99l13.531-1.769v-3.979Z"/><path class="a" d="M1070.2,377.375h-1.552V376h1.552Zm3.626-7.8,1.981,5.738h.018l2-5.738h2.057v7.8h-1.571v-2.322l.151-3.454h-.038l-2.075,5.776H1075.3l-2.075-5.758h-.037l.15,3.436v2.322h-1.552v-7.8Zm9.064,4.964v2.832h-1.551v-7.8h3.085a3.06,3.06,0,0,1,2.111.68,2.462,2.462,0,0,1,0,3.605,3.059,3.059,0,0,1-2.111.679Zm0-1.208h1.534a1.253,1.253,0,0,0,.99-.359,1.232,1.232,0,0,0,.336-.9,1.31,1.31,0,0,0-.336-.925,1.229,1.229,0,0,0-.99-.359h-1.534Zm6.953-.528h.878a1.119,1.119,0,0,0,.823-.283,1.245,1.245,0,0,0,.26-.812,1.085,1.085,0,0,0-.26-.755,1.057,1.057,0,0,0-.785-.283,1.071,1.071,0,0,0-.73.245.832.832,0,0,0-.3.68h-1.513l-.019-.038a1.8,1.8,0,0,1,.71-1.51,2.761,2.761,0,0,1,1.813-.585,3.042,3.042,0,0,1,1.925.566,2,2,0,0,1,.71,1.661,1.561,1.561,0,0,1-.318.963,2.086,2.086,0,0,1-.878.717,2.051,2.051,0,0,1,.99.7,1.894,1.894,0,0,1,.337,1.114,2.052,2.052,0,0,1-.785,1.7,3.143,3.143,0,0,1-1.981.6,2.988,2.988,0,0,1-1.869-.586,1.859,1.859,0,0,1-.747-1.623l.018-.02h1.514a.948.948,0,0,0,.319.737,1.323,1.323,0,0,0,1.662-.019,1.068,1.068,0,0,0,.318-.811,1.158,1.158,0,0,0-.318-.887,1.2,1.2,0,0,0-.9-.3h-.878Z"/><path class="a" d="M987.906,313.878l43.829.419-.444,30.558-13.814,15.07h-29.3Z"/><path class="b" d="M1017.372,359.227l13.884-13.462-5.093-.77-6.615,1.071-1.268,1.623-.907,3.166v8.581"/><path class="e" d="M1017.474,360.714H988.13a.964.964,0,0,1-.963-.963V300.476a.964.964,0,0,1,.963-.963h44.015a.963.963,0,0,1,.963.967l-.168,44.626a.965.965,0,0,1-.279.674l-14.5,14.648A.966.966,0,0,1,1017.474,360.714Zm-28.381-1.926h27.98l13.943-14.082.163-43.267H989.093Z"/><path class="e" d="M1017.474,360.714a.965.965,0,0,1-.963-.963v-7.3c0-5.744,2.539-8.307,8.233-8.307h7.233a.963.963,0,0,1,.684,1.641l-14.5,14.648A.965.965,0,0,1,1017.474,360.714Zm7.27-14.649c-4.6,0-6.307,1.729-6.307,6.381v4.965l11.231-11.346Z"/><rect class="e" width="43.828" height="14.818" transform="translate(988.224 300.476)"/><path class="a" d="M1000.859,312.1h-1.665v-1.491h1.665Zm7.008-6.644h-2.186V312.1h-1.571V305.46h-2.187v-1.227h5.944Zm3.626,1.567,1.457-2.794h1.814l-2.318,3.907,2.448,3.964h-1.888l-1.495-2.831L1010,312.1h-1.813l2.374-3.964-2.318-3.907h1.814Zm9.587-1.567h-2.2V312.1h-1.553V305.46h-2.186v-1.227h5.943Z"/><path class="e" d="M1024.8,325.527h-9.682a.963.963,0,0,1,0-1.926h9.682a.963.963,0,0,1,0,1.926Z"/><path class="e" d="M1024.8,332.323H995.456a.963.963,0,1,1,0-1.926H1024.8a.963.963,0,0,1,0,1.926Z"/><path class="e" d="M1024.8,339.118h-17.924a.963.963,0,0,1,0-1.926H1024.8a.963.963,0,0,1,0,1.926Z"/><path class="e" d="M1010.128,345.895H995.456a.963.963,0,1,1,0-1.926h14.672a.963.963,0,0,1,0,1.926Z"/><path class="e" d="M1008.858,325.527h-13.4a.963.963,0,1,1,0-1.926h13.4a.963.963,0,1,1,0,1.926Z"/><path class="e" d="M1002.671,339.118h-7.215a.963.963,0,0,1,0-1.926h7.215a.963.963,0,0,1,0,1.926Z"/></g></svg>