<svg xmlns="http://www.w3.org/2000/svg" width="113.4" height="47.995" viewBox="0 0 113.4 47.995"><g transform="translate(-727.907 -533.466)"><g transform="translate(727.907 533.466)"><path d="M1078.446,130.611a12.315,12.315,0,0,0-6.84-11.027v22.027A12.241,12.241,0,0,0,1078.446,130.611Zm-6.84-24v5.636a19.161,19.161,0,0,1,0,36.721v5.637a24.61,24.61,0,0,0,0-47.995Z" transform="translate(-1041.507 -106.614)" fill="#4a7db1"/><path d="M1033.958,122.931v16.418H1044.9l13.681,13.681v-43.78L1044.9,122.931Z" transform="translate(-1033.958 -107.142)" fill="#727272"/></g><g transform="translate(792.054 533.466)"><path d="M1158.682,130.611a12.314,12.314,0,0,0-6.841-11.027v22.027A12.24,12.24,0,0,0,1158.682,130.611Zm-6.841-24v5.636a19.161,19.161,0,0,1,0,36.721v5.637a24.61,24.61,0,0,0,0-47.995Z" transform="translate(-1121.742 -106.614)" fill="#4a7db1"/><path d="M1114.193,122.931v16.418h10.945l13.681,13.681v-43.78l-13.681,13.681Z" transform="translate(-1114.193 -107.142)" fill="#727272"/></g></g></svg>