<svg xmlns="http://www.w3.org/2000/svg" xmlns:xlink="http://www.w3.org/1999/xlink" width="73.913" height="73.912" viewBox="0 0 73.913 73.912"><defs><style>.a{fill:none;}.b{clip-path:url(#a);}.c{fill:#c0e8ec;}.d{fill:#a4dbe0;}.e{fill:#86cc42;}.f{fill:#68aab0;}.g{fill:#dc6c85;}</style><clipPath id="a"><ellipse class="a" cx="36.956" cy="36.956" rx="36.956" ry="36.956"/></clipPath></defs><g transform="translate(0 0)"><g class="b"><path class="c" d="M935.242,308.559s29.417-24.992,55.177-5.028,16.379,60.781,11.609,66.548-10.972,9.908-38.163,9.464-47.228-13.162-45.637-39.78C918.228,339.763,919.182,323.939,935.242,308.559Z" transform="translate(-928.847 -304.987)"/><path class="d" d="M918.844,345.319c4.034-16.147,12.621-33.323,31.229-37.616,1.149-.262,2.323-.47,3.514-.623,5.789-.093,11.515-.809,16.524,1.338,7.872,2.863,4.294,11.45,5.726,17.176,1.431,6.441,12.882,7.872,17.215,14.87a22.841,22.841,0,0,1,2.474,4.041,25.12,25.12,0,0,1,1.742,4.94,19.075,19.075,0,0,1,1.252,2.862c1.253,3.744.7,7.162-3.36,9.787-6.441,4.293-14.313,5.724-19.037,12.184a27.21,27.21,0,0,1-3.01,2.971c-5.384,4.531-12.7,6.862-22.569,5.577a44.431,44.431,0,0,1-6.608-.681,35.792,35.792,0,0,1-11.92-4.323,26.517,26.517,0,0,1-11.3-13.108,32.08,32.08,0,0,1-1.929-7.08,39.154,39.154,0,0,1-.453-6.209A34.944,34.944,0,0,1,918.844,345.319Z" transform="translate(-928.801 -302.26)"/></g></g><path class="e" d="M961.861,314.035a9.584,9.584,0,0,1-2.929-.078c-.429-.118-.653-.021-.816.288a.653.653,0,0,0,.227.9q1.385,1.2,2.771,2.392,2.074,1.788,4.151,3.573c.212.181.164.248-.07.341a4.359,4.359,0,0,0-2.958,4,1.782,1.782,0,0,0,1.418,1.931,3.049,3.049,0,0,0,2.534-.667,4.654,4.654,0,0,0,1.55-1.884,3.346,3.346,0,0,0,.288-2.206,2.513,2.513,0,0,0-.979-1.284q-2.581-2.233-5.172-4.453c-.354-.305-.349-.426-.013-.751a3.1,3.1,0,0,1,1.753-.772,2.415,2.415,0,0,1,1.8.394,11.064,11.064,0,0,1,1.241,1.084c.064.059.121.155.219.1s.042-.143.031-.212a3.914,3.914,0,0,0-.265-1.04,2.662,2.662,0,0,0-2.006-1.509A11.148,11.148,0,0,0,961.861,314.035Z" transform="translate(-919.044 -300.535)"/><path class="f" d="M979.121,328.828c-1.3.1-2.606.05-3.908.2-.948.113-1.915.1-2.873.179-1.863.154-3.718.37-5.573.591q-1.79.211-3.573.478c-.886.133-1.77.267-2.651.427a1.526,1.526,0,0,0-.962.588,2.635,2.635,0,0,0-.363,1.49c-.145,1.752-.267,3.506-.431,5.256-.207,2.2-.389,4.4-.578,6.607-.121,1.421-.233,2.843-.354,4.264-.007.093.031.219-.076.27s-.171-.051-.249-.111a8.475,8.475,0,0,0-4.061-1.6,8.614,8.614,0,0,0-4,.371,5.951,5.951,0,0,0-2.561,1.61,3.335,3.335,0,0,0-.865,3.022,4.965,4.965,0,0,0,2.865,3.38,8.761,8.761,0,0,0,3.855.959,8.239,8.239,0,0,0,4.357-1.007,4.33,4.33,0,0,0,1.957-2.074,5.693,5.693,0,0,0,.324-1.784c.171-2.037.366-4.073.548-6.109q.168-1.865.321-3.732.17-2.067.325-4.136c.014-.187.057-.277.272-.326.934-.219,1.879-.385,2.823-.539,1.446-.238,2.9-.429,4.355-.615,1.238-.158,2.48-.285,3.721-.421.33-.035.665-.032.993-.077,1.491-.206,3-.2,4.495-.316h1c.145,0,.259.011.239.218-.078.8-.138,1.61-.2,2.414-.143,1.862-.331,3.721-.5,5.582-.122,1.4-.234,2.8-.355,4.2-.009.093.019.226-.081.27s-.168-.08-.243-.137a8.07,8.07,0,0,0-3.764-1.549,9.417,9.417,0,0,0-3.33.075,6.944,6.944,0,0,0-2.92,1.293,3.65,3.65,0,0,0-1.514,2.91,3.713,3.713,0,0,0,1.076,2.629,7.885,7.885,0,0,0,5.328,2.36,7.777,7.777,0,0,0,2.147-.09,7.464,7.464,0,0,0,3.123-1.258,3.963,3.963,0,0,0,1.536-2.092,12.463,12.463,0,0,0,.3-2.464c.121-1.264.213-2.534.321-3.8.153-1.774.3-3.548.466-5.321q.211-2.295.41-4.592c.167-1.895.3-3.794.48-5.687A1.524,1.524,0,0,0,979.121,328.828Z" transform="translate(-922.004 -296.869)"/><path class="g" d="M957.076,326.968a19.042,19.042,0,0,0-2.864-4.472,13.656,13.656,0,0,1-2.421-3.745.8.8,0,0,0-.4-.466,1.058,1.058,0,0,0-1.571.882c-.09.934-.163,1.871-.252,2.806-.094.979-.2,1.956-.293,2.935-.127,1.364-.239,2.73-.366,4.094-.07.749-.167,1.494-.234,2.242-.1,1.078-.176,2.158-.266,3.237-.008.083.015.2-.072.242-.107.046-.172-.065-.245-.128a5.235,5.235,0,0,0-1.414-.83,8.05,8.05,0,0,0-1.943-.536,7.379,7.379,0,0,0-3.214.192,5.093,5.093,0,0,0-2.348,1.362,3.049,3.049,0,0,0-.431.586,3.184,3.184,0,0,0-.314,2.367,4.222,4.222,0,0,0,2.224,2.469,7.235,7.235,0,0,0,3,.882,6.9,6.9,0,0,0,4.016-.75,3.419,3.419,0,0,0,1.932-2.383c.1-.608.147-1.227.206-1.843.1-1.078.186-2.158.288-3.237.1-1.034.217-2.066.313-3.1.141-1.507.268-3.016.4-4.524.016-.186.065-.315.305-.348a2.465,2.465,0,0,1,.818.04,4.734,4.734,0,0,1,2.245,1.261,4.387,4.387,0,0,1,1.515,3.579c-.032.9-.252,1.77-.318,2.678.042,0,.07.01.083,0a4.775,4.775,0,0,0,1.894-2.7A4.519,4.519,0,0,0,957.076,326.968Z" transform="translate(-923.887 -299.491)"/></svg>