<svg xmlns="http://www.w3.org/2000/svg" width="236.725" height="65.251" viewBox="0 0 236.725 65.251">
  <g id="Group_40114" data-name="Group 40114" transform="translate(-864 -258.737)">
    <g id="Group_39974" data-name="Group 39974" transform="translate(194.51 -260.744)">
      <path id="Path_44575" data-name="Path 44575" d="M902.222,519.481H727.856q-5.322,4.87-10.641,9.742H698.958l-11.4-9.381H674.195a7.049,7.049,0,0,1-1.129-.32,3.856,3.856,0,0,0-3.575,3.748v48.439a3.9,3.9,0,0,0,3.993,3.788h14.248l11.227,9.235h18.257L727.3,575.5h174.92a3.9,3.9,0,0,0,3.993-3.788V523.269A3.9,3.9,0,0,0,902.222,519.481Z" transform="translate(0)" fill="#5998f7"/>
      <path id="Path_45167" data-name="Path 45167" d="M15.07,0H31.475c8.323,0,15.07,3.031,15.07,6.77v3.966c0,3.739-6.747,6.77-15.07,6.77H15.07C6.747,17.507,0,14.476,0,10.737V6.77C0,3.031,6.747,0,15.07,0Z" transform="translate(773.251 534.599)" fill="#fff"/>
      <path id="Path_44576" data-name="Path 44576" d="M731.429,551.885c-1.836,1.765-10.243-.826-12.447-7.17-1.666-4.794.39-11.207,5.547-13.4a10.836,10.836,0,0,1,10.96,1.895l3.247-3.383q1.692,5.48,3.383,10.96l-10.825-.135,2.3-4.735a6.932,6.932,0,0,0-8.253-.407,6.661,6.661,0,0,0-2.705,6.9c.9,3.7,5.008,4.79,5.817,5.005a8.852,8.852,0,0,0,2.842.271C731.909,549.412,732.226,551.119,731.429,551.885Z" transform="translate(17.807 2.964)" fill="#fff"/>
      <text id="turn" transform="translate(699.107 551.555)" fill="#fff" font-size="16" font-family="SegoeUI, Segoe UI"><tspan x="-14.547" y="0">turn</tspan></text>
      <text id="degrees" transform="translate(860.504 551.555)" fill="#fff" font-size="16" font-family="SegoeUI, Segoe UI"><tspan x="-28.148" y="0">degrees</tspan></text>
      <text id="_180" data-name="180" transform="matrix(1, -0.017, 0.017, 1, 792.814, 545.744)" font-size="6" font-family="SegoeUI, Segoe UI"><tspan x="-4.852" y="0">180</tspan></text>
    </g>
    <g id="Group_39969" data-name="Group 39969" transform="translate(543.172 -279.266)">
      <rect id="Rectangle_5905" data-name="Rectangle 5905" width="66.437" height="31.528" rx="15.07" transform="translate(414.828 544.972)" fill="#ee7082"/>
      <text id="forSpin" transform="translate(447.828 563.266)" fill="#fff" font-size="17" font-family="SegoeUI, Segoe UI"><tspan x="-26.978" y="0">forSpin</tspan></text>
    </g>
  </g>
</svg>
