<svg xmlns="http://www.w3.org/2000/svg" width="169.863" height="115.965" viewBox="0 0 169.863 115.965"><g transform="translate(-262 -445)"><g transform="translate(-371.023 -82.654)"><path d="M633.023,609.026V550.441c.582-4.441,2.233-11.1,7.469-16.1a23.605,23.605,0,0,1,15.725-6.683H782.4a27.466,27.466,0,0,1,14.937,9.435,27.035,27.035,0,0,1,5.5,12.579v75.87a6.9,6.9,0,0,1-5.111,7.469H693.947l-11,10.613H664.075L652.286,633.4H638.477a6.517,6.517,0,0,1-3.095-1.524,6.822,6.822,0,0,1-2.162-4.668Q633.121,618.117,633.023,609.026Z" transform="translate(0 0)" fill="#ee7082"/><path d="M762.175,543.234H745.265q-5.5,5.305-11,10.614H715.391q-5.895-5.111-11.789-10.221H689.794a7.115,7.115,0,0,1-1.168-.349,4.114,4.114,0,0,0-3.7,4.083v52.774a4.128,4.128,0,0,0,4.127,4.127h14.73l11.6,10.062h18.873l10.428-10.062h17.483a4.128,4.128,0,0,0,4.128-4.127V547.361A4.128,4.128,0,0,0,762.175,543.234Z" transform="translate(21.21 6.366)" fill="#ed5b6d"/><text transform="translate(667.765 585.779)" fill="#fff" font-size="15" font-family="BPGArial, BPG Arial"><tspan x="-20.435" y="0">define</tspan></text><text transform="translate(739.386 585.779)" fill="#fff" font-size="15" font-family="BPGArial, BPG Arial"><tspan x="-32.311" y="0">SpinRight</tspan><tspan font-family="BPGArial"><tspan x="0" y="18"></tspan></tspan></text></g></g></svg>