<svg xmlns="http://www.w3.org/2000/svg" width="935.549" height="397.921" viewBox="0 0 935.549 397.921"><g transform="translate(-233 -311.079)"><g transform="translate(-836.74 186.739)"><path d="M1377.458,180.967H1147.363q-7.071,6.824-14.142,13.646h-24.264q-7.579-6.569-15.158-13.141h-17.753a8.96,8.96,0,0,1-1.5-.449,5.288,5.288,0,0,0-4.752,5.252v67.85a5.306,5.306,0,0,0,5.306,5.306h18.936q7.46,6.468,14.921,12.934h24.264q6.7-6.465,13.405-12.934h230.832a5.307,5.307,0,0,0,5.306-5.306v-67.85A5.307,5.307,0,0,0,1377.458,180.967Z" transform="translate(0.043 45.927)" fill="#ee7082"/><path d="M1406.433,149.016H1222.549c-12.907-8.981-40.828-25-78.924-24.672-36.969.317-62.589,20.244-72.963,27.133-.047.034-.087.078-.159.129a5.219,5.219,0,0,0-.762,2.717v67.85a5.307,5.307,0,0,0,5.306,5.306h18.938l14.919,12.936h24.266l13.405-12.936h259.859a5.307,5.307,0,0,0,5.306-5.306v-67.85A5.306,5.306,0,0,0,1406.433,149.016Z" transform="translate(0 0)" fill="#f5ad43"/><text transform="translate(1178.944 273.827)" fill="#fff" font-size="21" font-family="SegoeUI, Segoe UI"><tspan x="-96.828" y="0">jump with parameter</tspan><tspan font-family="BPGArial"><tspan x="0" y="25"></tspan></tspan></text><text transform="translate(1116.125 190.874)" fill="#fff" font-size="23" font-family="SegoeUI, Segoe UI"><tspan x="-27.341" y="0">when</tspan><tspan font-family="BPGArial"><tspan x="0" y="28"></tspan></tspan></text><text transform="translate(1201.979 189.874)" fill="#fff" font-size="22" font-family="SegoeUI, Segoe UI"><tspan x="-27.564" y="0">space</tspan></text><text transform="translate(1324.974 191.895)" fill="#fff" font-size="22" font-family="SegoeUI, Segoe UI"><tspan x="-57.165" y="0">key pressed</tspan><tspan font-family="BPGArial"><tspan x="0" y="26"></tspan></tspan></text><rect width="77.792" height="44.267" rx="5.843" transform="translate(1164.871 163.902)" fill="none" stroke="#966a29" stroke-miterlimit="10" stroke-width="0.25"/><rect width="65.197" height="54.584" rx="15.07" transform="translate(1291.458 241.512)" fill="#fff"/><text transform="translate(1323.379 275.346)" font-size="22" font-family="SegoeUI, Segoe UI"><tspan x="-11.859" y="0">50</tspan></text></g><g transform="translate(-269.311 14.976)"><g transform="translate(1051.628 296.261)"><path d="M1051.628,386.64V321.57c.646-4.933,2.48-12.324,8.3-17.887a26.217,26.217,0,0,1,17.465-7.422H1415.11a30.509,30.509,0,0,1,16.59,10.478,30.036,30.036,0,0,1,6.113,13.973v84.267a7.662,7.662,0,0,1-5.676,8.294H1119.3q-6.109,5.9-12.218,11.789h-20.962q-6.548-5.675-13.1-11.352h-15.337a7.224,7.224,0,0,1-3.437-1.691,7.586,7.586,0,0,1-2.4-5.185Q1051.737,396.737,1051.628,386.64Z" transform="translate(-1051.628 -296.261)" fill="#ee7082"/><path d="M1366.158,311.841H1170.547q-6.109,5.893-12.218,11.789h-20.961q-6.548-5.677-13.094-11.352h-15.337a7.851,7.851,0,0,1-1.3-.388,4.567,4.567,0,0,0-4.105,4.536V375.04a4.584,4.584,0,0,0,4.584,4.584h16.359l12.89,11.175h20.961q5.792-5.588,11.581-11.175h196.248a4.585,4.585,0,0,0,4.586-4.584V316.425A4.585,4.585,0,0,0,1366.158,311.841Z" transform="translate(-1022.325 -287.466)" fill="#ed5b6d"/><text transform="translate(43.373 67.01)" fill="#fff" font-size="20" font-family="SegoeUI, Segoe UI"><tspan x="-27.559" y="0">define</tspan></text><text transform="translate(161.542 67.01)" fill="#fff" font-size="20" font-family="SegoeUI, Segoe UI"><tspan x="-71.929" y="0">Jump parameter</tspan></text><g transform="translate(247.218 36.886)"><rect width="89.412" height="47.154" rx="15.07" fill="#ee7082"/><text transform="translate(45.243 28.479)" fill="#fff" font-size="20" font-family="SegoeUI, Segoe UI"><tspan x="-28.247" y="0">height</tspan></text></g></g><g transform="translate(1052.282 413.27)"><path d="M1269.2,371.049H1119.06l-12.218,11.787h-20.963q-6.545-5.675-13.094-11.351h-15.337a7.97,7.97,0,0,1-1.3-.39,4.569,4.569,0,0,0-4.105,4.537v58.615a4.585,4.585,0,0,0,4.586,4.584h16.359l12.889,11.176h20.963l11.581-11.176H1269.2a4.585,4.585,0,0,0,4.584-4.584V375.633A4.584,4.584,0,0,0,1269.2,371.049Z" transform="translate(-1052.046 -371.049)" fill="#5998f7"/><rect width="56.323" height="47.154" rx="15.07" transform="translate(153.251 9.823)" fill="#fff"/><text transform="translate(73.114 42.833)" fill="#fff" font-size="18" font-family="SegoeUI, Segoe UI"><tspan x="-68.159" y="0">point in direction</tspan></text><text transform="translate(181.154 40.776)" font-size="21" font-family="SegoeUI, Segoe UI"><tspan x="-5.66" y="0">0</tspan></text></g><g transform="translate(1052.282 547.637)"><path d="M1269.2,456.932H1119.06l-12.218,11.789h-20.963q-6.545-5.677-13.094-11.352h-15.337a7.787,7.787,0,0,1-1.3-.388,4.569,4.569,0,0,0-4.105,4.536v58.617a4.585,4.585,0,0,0,4.586,4.584h16.359l12.889,11.174h20.963q5.79-5.588,11.581-11.174H1269.2a4.585,4.585,0,0,0,4.584-4.584V461.516A4.585,4.585,0,0,0,1269.2,456.932Z" transform="translate(-1052.046 -456.932)" fill="#5998f7"/><rect width="56.323" height="47.154" rx="15.07" transform="translate(153.251 9.824)" fill="#fff"/><text transform="translate(73.114 42.834)" fill="#fff" font-size="18" font-family="SegoeUI, Segoe UI"><tspan x="-68.159" y="0">point in direction</tspan></text><text transform="translate(181.202 39.777)" font-size="20" font-family="SegoeUI, Segoe UI"><tspan x="-16.172" y="0">180</tspan></text></g><g transform="translate(1052.282 480.424)"><path d="M1269.2,413.972H1119.06l-12.218,11.787h-20.963q-6.545-5.675-13.094-11.351h-15.337a7.976,7.976,0,0,1-1.3-.39,4.569,4.569,0,0,0-4.105,4.537v58.615a4.585,4.585,0,0,0,4.586,4.584h16.359l12.889,11.175h20.963l11.581-11.175H1269.2a4.585,4.585,0,0,0,4.584-4.584V418.556A4.584,4.584,0,0,0,1269.2,413.972Z" transform="translate(-1052.046 -413.972)" fill="#5998f7"/><text transform="translate(34.571 43.833)" fill="#fff" font-size="19" font-family="SegoeUI, Segoe UI"><tspan x="-23.268" y="0">move</tspan></text><text transform="translate(185.641 42.833)" fill="#fff" font-size="18" font-family="SegoeUI, Segoe UI"><tspan x="-20.685" y="0">steps</tspan></text></g><g transform="translate(1121.508 493.844)"><rect width="83.284" height="43.923" rx="14.037" fill="#ee7082"/><text transform="translate(43.192 26.038)" fill="#fff" font-size="18" font-family="SegoeUI, Segoe UI"><tspan x="-25.422" y="0">height</tspan></text></g><g transform="translate(1052.282 615.065)"><path d="M1269.2,500.03H1119.06l-12.218,11.787h-20.963l-13.094-11.351h-15.337a7.937,7.937,0,0,1-1.3-.388,4.568,4.568,0,0,0-4.105,4.536v58.615a4.585,4.585,0,0,0,4.586,4.584h16.359l12.889,11.176h20.963l11.581-11.176H1269.2a4.585,4.585,0,0,0,4.584-4.584V504.614A4.585,4.585,0,0,0,1269.2,500.03Z" transform="translate(-1052.046 -500.03)" fill="#5998f7"/><text transform="translate(34.571 43.833)" fill="#fff" font-size="19" font-family="SegoeUI, Segoe UI"><tspan x="-23.268" y="0">move</tspan></text><text transform="translate(185.641 42.833)" fill="#fff" font-size="18" font-family="SegoeUI, Segoe UI"><tspan x="-20.685" y="0">steps</tspan></text></g><g transform="translate(1121.508 628.485)"><rect width="83.284" height="43.923" rx="14.037" fill="#ee7082"/><text transform="translate(43.192 26.038)" fill="#fff" font-size="18" font-family="SegoeUI, Segoe UI"><tspan x="-25.422" y="0">height</tspan></text></g></g></g></svg>