<svg xmlns="http://www.w3.org/2000/svg" width="637.354" height="523.299" viewBox="0 0 637.354 523.299"><defs><style>.a,.h{fill:#d8a35d;}.a{fill-rule:evenodd;}.b{fill:#947dce;}.c{fill:#ffc84f;}.d{opacity:0.3;}.e{opacity:0.5;}.f{fill:none;stroke:#947dce;stroke-miterlimit:10;stroke-width:1.719px;}.g{fill:#d19442;}.i{opacity:0.15;}.j{fill:#999;}.k{fill:#ccc;}.l{fill:gray;}</style></defs><g transform="translate(-687.487 -283.993)"><path class="a" d="M739.843,647.759s-8.783-10.018-19.024-12.032c-6.088-1.2-5.881-2.733-6.907-3.236-3.4-1.669-.312,4.9,4.824,6.77,4.174,1.516,6.239,8.84,8.719,10.478s9.972,4.762,11.911,3.846S739.843,647.759,739.843,647.759Z"/><path class="a" d="M766.841,661.435c-1.869-.713-21.377-13.512-32.179-14.958s-27-2.566-32.531-4.387c-6.509-2.143-8.28.4-.812,3.612,4.854,2.085,14.837,5.417,17.07,5.6,1.083.089-5.943-1.151-13.556-3.058-8.094-2.027-16.854-4.692-17.32-3.255-.9,2.788,22.352,10.093,26.477,10.712a104.45,104.45,0,0,1-10.867-1.772c-4.893-1.077-10.471-3.055-11.623-2.078-1.815,1.54,10.439,6.937,20.673,8.787.166.341-3.181.725-15.188-2.287-1.207-.3-4.328.1-.419,2.108,8.23,4.223,11.457,6.647,23.6,7.525,11.84.857,25.026-1.045,33.435,2.164Z"/><path class="b" d="M758.283,675.9c9.489,3.713,78.391,16.348,141.636,2.458,39.918-8.75,77.566-28.09,96.614-66.907,49.218-100.344-65.79-157.264-65.79-157.264a2.056,2.056,0,0,0-.172.275C925.586,462,818.383,622.835,744,647.934,744,647.934,742.811,669.835,758.283,675.9Z"/><path class="c" d="M1166.207,760.5c-.159-2.77-.32-5.49-.49-8.18-1.16-19.53-2.29-36.77-3.43-49.261-1.08-11.829-2.16-19.4-3.29-20.619-.429-.46-.82-.32-1.19.369-1.159,2.221-2,10.141-2.64,22.141-.34,6.38-.619,13.92-.86,22.359-.23,8.271-.43,17.391-.6,27.171-.03,1.98-.059,3.99-.1,6.02h-95.721q.225-5.115.431-10.2c.339-7.84.659-15.59.98-23.14.329-8.03.649-15.851.949-23.32.281-6.83.54-13.36.781-19.51a.009.009,0,0,1,.009-.01c-.009-.02-.009-.03,0-.04.071-1.89.14-3.75.21-5.56v-.01c.25-6.4.48-12.31.69-17.6.66-17.1,1.05-27.77,1.05-27.77a13.942,13.942,0,0,0,8.2,2.96c2.19-.14,5.24-.35,8.99-.61,4.5-.31,10-.69,16.23-1.15,2.96-.22,6.08-.45,9.34-.7.71-.05,1.44-.1,2.17-.16,6.97-.53,14.51-1.121,22.341-1.77,2.29-.19,4.609-.391,6.949-.58.64-.061,1.27-.11,1.92-.17.01,0,.01.01.021,0,4.889-.41,9.839-.851,14.789-1.3,8.841-.81,17.68-1.66,26.16-2.551q5.956-.628,11.62-1.269c.02,0,.041,0,.05-.01,3.741-.42,7.36-.85,10.83-1.29,3.23-.41,6.33-.82,9.261-1.23.839-.12,1.3-.19,1.3-.19.951-.13,1.88-.27,2.8-.41.95-.15,1.87-.29,2.77-.43.75-.12,1.48-.23,2.19-.35.16-.031.31-.06.46-.08.731-.13,1.441-.25,2.14-.37,1.241-.22,2.43-.43,3.551-.65.609-.12,1.21-.24,1.79-.36.449-.09.879-.18,1.3-.27.75-.17,1.46-.33,2.15-.49.36-.08.7-.17,1.031-.25.489-.12.949-.25,1.4-.37a23.348,23.348,0,0,0,4.97-1.84,3.717,3.717,0,0,0,1.051-.84.829.829,0,0,1,0,.17,1.222,1.222,0,0,0,.009.17,1.766,1.766,0,0,0,.011.23c.02.56.049,1.52.1,2.86.01.13.01.25.01.38.03.56.05,1.179.07,1.86.01.25.02.5.03.76.01.3.021.61.03.94.011.3.02.61.031.93.029.56.049,1.149.069,1.77.01.27.02.54.031.82.039,1.15.079,2.4.13,3.72.009.379.02.77.04,1.16.009.469.029.95.049,1.429.01.391.02.8.04,1.21a2.443,2.443,0,0,0,.01.271q.03.855.06,1.74c.031.98.071,2,.1,3.04.06,1.77.13,3.63.19,5.57.031.77.051,1.55.08,2.34.02.75.051,1.51.08,2.289,0,.121,0,.241.01.361.02.58.04,1.17.06,1.76.02.459.031.919.04,1.39s.04.95.051,1.42c.129,3.76.259,7.73.4,11.87q.061,1.785.121,3.63c.029,1.03.059,2.069.1,3.12q.136,4.395.29,8.989c.18,5.651.45,11.491.8,17.46.409,7.08.929,14.351,1.54,21.731,1.049,12.65,2.369,25.63,3.889,38.5Z"/><g class="d"><path d="M1137.274,631.33c-.3,0-.606,0-.9,0C1136.374,631.332,1136.692,631.327,1137.274,631.33Z"/><path class="e" d="M1137.274,631.33c24.022-.148,75.88-8.006,75.88-8.006,15.247-2.2,25.891-4.486,27.6-6.716,0,0,0,.063,0,.178.093,2.4,1.077,29.93,2.239,66.022a17.79,17.79,0,0,1-2.533-.074c-5.454-.534-9.86-3.506-13.4-7.886a43.554,43.554,0,0,1-5.792-9.832C1200.577,632.7,1144.976,631.359,1137.274,631.33Z"/></g><path class="f" d="M1080.227,630.112l-.05,5.58-.24,24.63-.26,27.49v.05l-.2,21-.21,21.51-.26,27.36-.02,2.77"/><path class="f" d="M1105.757,633.242l-.01.6-.04,4.5v.01l-.22,20.68-.25,23.93-.07,6.87-.23,21.3-.22,21.35-.3,28v.02"/><line class="f" y1="0.01" transform="translate(1131.157 807.282)"/><path class="f" d="M1130.917,760.5l-.01-1.7-.14-26.95-.11-22.22-.11-21.09-.06-12.66-.1-18.29-.04-9.16-.03-5.58-.06-10.94v-.78"/><line class="f" x2="5.129" y2="53.34" transform="translate(1153.864 629.102)"/><path class="f" d="M1180.067,626.852l.03.46.03.46.68,10.08.1,1.43.74,10.91.03.5.21,3.1.28,4.23,1.6,23.65,1.8,26.61,1.44,21.35,1.69,25.03.39,5.84"/><path class="f" d="M1202.6,624.742l.01.1,1.33,16.47.59,7.26.04.49.2,2.47,2.39,29.66,2.11,26.01,1.73,21.45,2.02,25.01.56,6.84"/><path class="f" d="M1224.747,622.842l1.7,16.15.25,2.32.76,7.22,3.05,28.97.1.97v.01l2.57,24.43,2.27,21.55,2.54,24.09,1.26,11.95"/><path class="f" d="M1061.93,661.113s142.831-5.52,179.839-15.468"/><path class="f" d="M1158.993,682.442c-48.8,15.554-97.968,1.829-97.968,1.829"/><path class="f" d="M1158.166,679.12s46,8.758,84.542-5.294"/><path class="f" d="M1060.243,703.84s37.485,15.694,94.922,1.11"/><path class="f" d="M1059.29,727.147s57.283,12.24,95.019.16"/><path class="f" d="M1058.315,750.3s30.345,19.84,95.4,4.174"/><line class="f" y1="0.01" transform="translate(1131.157 807.282)"/><path class="f" d="M1162.281,703.055s20.1,13.881,82.675-3.089"/><path class="f" d="M1164.78,726.333s27.388,10.013,80.557-4.328"/><path class="f" d="M1165.722,752.326s41.713,8.75,81.619-7.02"/><path class="g" d="M1046.6,351.383s4.2,20.648,19.927,28.066-28.587,8.535-28.587,8.535,1.877-21.539-3.408-33S1046.6,351.383,1046.6,351.383Z"/><ellipse class="h" cx="30.879" cy="22.633" rx="30.879" ry="22.633" transform="translate(1004.664 350.838) rotate(-68.921)"/><path class="b" d="M899.919,678.362c39.918-8.75,77.566-28.09,96.614-66.907.069.1.137.189.206.292.206.258.413.533.619.842a.873.873,0,0,1,.137.189c5.485,7.5,32.406,44.3,32.406,44.319,9.764,12.721,24.686,24.944,36.531,29.861.773.343,1.564.636,2.286.893,29.036,4.539,149.957-41.413,164.363-52.9,6.5-5.175,9.042-29.431,9.558-55.733.654-32.062-1.667-67.217-3.369-74.627-2.888-12.429-59.98-149.939-149.562-141.241a91.891,91.891,0,0,0-23.311,5.467s-.67.7-1.857,1.753a43.985,43.985,0,0,1-8.1,5.759,34.322,34.322,0,0,1-8.268,3.318,25.343,25.343,0,0,1-16.9-1.375c-5.6-2.51-18.05.43-33.161,8.871-20.991,11.707-47.172,34.038-67.372,67.044a2.056,2.056,0,0,0-.172.275,215.988,215.988,0,0,0-28.95,79.474A512.514,512.514,0,0,0,899.919,678.362Z"/><path class="i" d="M996.537,611.447c.068.1.147.189.214.295.2.262.413.54.61.84.052.056.088.117.146.19,5.485,7.494,32.391,44.313,32.4,44.33,9.769,12.709,24.687,24.94,36.541,29.851-13.472-21.507-53.937-83.432-61.337-111.04C1009.131,603.453,996.532,611.43,996.537,611.447Z"/><path class="i" d="M1051.059,384.077c.652,1.94,0,3.535-3.277,4.046-10.216,1.6-21.218,5.187-28.171,11.281a7.138,7.138,0,0,1-6.706,1.7c-6.056-1.475-11.937-9.515-14.4-13.122a2.861,2.861,0,0,1-.393-.834c15.116-8.442,27.55-11.383,33.165-8.861a25.3,25.3,0,0,0,16.894,1.361A13.937,13.937,0,0,1,1051.059,384.077Z"/><path class="c" d="M1035.327,310.568s28.747,34.363,30.44-2.366C1066.939,282.791,1015.984,286.448,1035.327,310.568Z"/><path class="c" d="M1043.624,304.835s-25.135,4.253-27.854,17.19c0,0,9.5-38.091,30.192-31.165s27.81,11.925,11.187,49.669C1057.149,340.529,1063.026,307.673,1043.624,304.835Z"/><path class="c" d="M1044.984,290.755s5.394-10.93,16-5,12.949,14.2,12.08,21.237-1.12,12.465.484,13.084c0,0-6.667,2.957-7.653.735,0,0-.283,13.141-9.223,20.572,0,0,3.542-15.393-3.86-20.088S1044.984,290.755,1044.984,290.755Z"/><path class="c" d="M1046.05,291.053s-6.166-7.9-18.514.234l-8.522,7.769s.986,2.222,4.812,1.855c0,0-5.818,10.739-6.744,17.709l12.175-17.458Z"/><path class="j" d="M1030.5,607.567l130.8,53.535a14.914,14.914,0,0,0,19.438-8.142l36.529-89.278a4.437,4.437,0,0,0,.229-.645,14.859,14.859,0,0,0-8.38-18.779l-130.8-53.535a14.889,14.889,0,0,0-19.423,8.151l-34.849,85.132-1.7,4.138A14.889,14.889,0,0,0,1030.5,607.567Z"/><path class="k" d="M1032.427,602.785l130.8,53.535a14.889,14.889,0,0,0,19.423-8.151l34.849-85.132a14.859,14.859,0,0,0-8.38-18.779l-130.8-53.535a14.889,14.889,0,0,0-19.423,8.151l-34.849,85.132A14.86,14.86,0,0,0,1032.427,602.785Z"/><circle class="l" cx="11.505" cy="11.505" r="11.505" transform="translate(1110.775 561.791)"/><path class="i" d="M1221.6,579.882s-12.545-49.826-139.407,5.991,108.18,1.79,108.18,1.79Z"/><path class="i" d="M1165.143,454.189s-4.456,134.531,124.719,152.535l2.769.845-9.175-28.59s-75.876-58.748-76.653-60.612S1165.143,454.189,1165.143,454.189Z"/><path class="a" d="M1099.967,600.637c-1.718-.058-21.145-5.007-30.327-3.164s-22.655,5.459-27.659,5.525c-5.887.077-6.614,2.642.35,3.162,4.527.337,13.569.256,15.435-.219.9-.231-5.151.725-11.87,1.3-7.143.614-15.006.9-14.982,2.194.046,2.517,20.982,1.956,24.507,1.306a89.709,89.709,0,0,1-9.326,1.6c-4.277.492-9.361.444-10.024,1.56-1.045,1.758,10.42,2.72,19.253,1.364.229.23-2.382,1.478-12.981,2.384-1.065.092-3.488,1.292.249,1.83,7.867,1.133,11.167,2.2,21.277-.478,9.86-2.612,20.043-7.842,27.773-7.584Z"/><path class="a" d="M1074.209,597.067s-9.936-5.686-18.821-4.46c-5.281.728-5.542-.578-6.516-.7-3.232-.4,1.117,4.073,5.811,4.153,3.816.065,7.54,5.44,10.013,6.077s9.433,1.084,10.752-.2S1074.209,597.067,1074.209,597.067Z"/><path class="b" d="M1181.291,358.938c39.317,18.5,68.484,37.874,107.2,118.7,19.643,41.006,30.722,84.569,35.728,107.791a27.982,27.982,0,0,1-11.466,28.817c-87.641,61.09-221.964.725-221.964.725-6.186-.41-.906-23.608-.906-23.608,53.579-16.6,95.252-27.251,143-23.565-.247-.037-65.622-66.206-77.77-86.22-31.839-52.488-95.407-87.156-89.425-113.24C1067.751,359.315,1141.632,340.279,1181.291,358.938Z"/></g></svg>