<svg xmlns="http://www.w3.org/2000/svg" width="770.528" height="308.053" viewBox="0 0 770.528 308.053"><defs><style>.a,.c{fill:#d8a35d;}.a{fill-rule:evenodd;}.b{fill:#d19442;}.d{fill:#947dce;}.e{opacity:0.15;}.f{fill:#ffc84f;}.g{fill:#25aef3;}.h{fill:#fdfdfd;}.i{fill:#fcb827;}.j{fill:#fefcf9;}</style></defs><g transform="translate(-290.997 -400.344)"><path class="a" d="M744.405,466.865c-.957-.782-9.907-12.085-15.962-15.035s-15.335-6.758-18.225-8.9c-3.4-2.523-4.935-1.374-1.179,1.961,2.441,2.167,7.647,6.064,8.921,6.606.618.263-3.261-1.832-7.355-4.432-4.353-2.764-8.972-6.031-9.524-5.279-1.072,1.46,11.145,10.269,13.444,11.435a64.559,64.559,0,0,1-6.029-3.154c-2.661-1.584-5.547-3.829-6.413-3.48-1.364.549,4.773,6.1,10.415,9.176.031.232-2.006-.194-8.463-4.3-.649-.413-2.558-.783-.655,1.155,4.005,4.078,5.426,6.128,12.375,9,6.778,2.807,14.881,4.257,19.189,7.776Z"/><path class="a" d="M731.233,453.591s-3.2-7.585-8.817-10.759c-3.337-1.886-2.917-2.747-3.421-3.242-1.672-1.641-1.138,2.816,1.512,4.909,2.153,1.7,1.939,6.4,3.075,7.842s4.921,4.734,6.237,4.573S731.233,453.591,731.233,453.591Z"/><path class="b" d="M917.161,452.852s-1.352,15.093,7.958,23.44-21.456,0-21.456,0,5.725-14.457,4.441-23.44S917.161,452.852,917.161,452.852Z"/><ellipse class="c" cx="16.277" cy="22.207" rx="16.277" ry="22.207" transform="translate(895.974 414.29)"/><path class="d" d="M779.7,548.82c24.64-51.541,68.615-75.056,96.691-81.3,12.153-2.707,21.326-2.176,24.676.717a18.2,18.2,0,0,0,11.362,4.414,24.64,24.64,0,0,0,6.379-.581,31.772,31.772,0,0,0,6.763-2.3c1.038-.482,1.644-.828,1.644-.828a65.961,65.961,0,0,1,17.185,1.026c63.521,12.437,74.573,118.944,74,128.1-.346,5.452-5.983,30.153-13.03,52.11-5.774,18.025-12.511,34.208-18.05,36.446-12.289,4.945-105.073,11.732-124.149,2.633-.445-.334-.927-.692-1.385-1.088-7.158-5.823-14.922-17.32-19.039-28.088,0-.013-10.966-30.92-13.2-37.213-.025-.062-.037-.111-.062-.161-.074-.247-.161-.482-.247-.7-.025-.087-.062-.161-.087-.248"/><path class="e" d="M829.16,621.761c.024.087.061.161.086.248.087.222.173.457.247.7.025.05.037.1.062.161,2.238,6.293,13.2,37.2,13.2,37.213,4.117,10.768,11.881,22.265,19.039,28.088-4.859-17.592-20-68.589-19.422-89.137C839.483,618.844,829.16,621.749,829.16,621.761Z"/><path class="e" d="M977.7,548.084s-30.749,91.788,54.562,130.77l1.733,1.153-.44-21.589s-40.2-56.094-40.351-57.538S977.7,548.084,977.7,548.084Z"/><path class="e" d="M913.509,476.3c.049,1.471-.73,2.435-3.091,2.114-7.368-1-15.689-.791-21.734,1.978a5.137,5.137,0,0,1-4.97-.21c-3.87-2.263-6.268-9.013-7.22-12.005a2.06,2.06,0,0,1-.1-.655c12.153-2.707,21.326-2.176,24.676.717a18.2,18.2,0,0,0,11.362,4.414A10.035,10.035,0,0,1,913.509,476.3Z"/><path class="f" d="M906.134,423.75s28.179,15.624,19.815-9.46C920.163,396.935,886.917,412.568,906.134,423.75Z"/><path class="f" d="M910.219,417.758s-15.766,9.355-14.245,18.739c0,0-3.476-28.018,12.2-28.722s21.745.809,20.354,30.436C928.528,438.211,923.973,414.644,910.219,417.758Z"/><path class="f" d="M907.491,407.958s.792-8.73,9.446-7.494,12.363,6.182,13.6,11.127,2.472,8.654,3.709,8.654c0,0-3.709,3.709-4.945,2.473,0,0,3.208,8.891-.869,16.19,0,0-1.6-11.245-7.786-12.481S907.491,407.958,907.491,407.958Z"/><path class="f" d="M908.283,407.882s-6.182-3.709-12.363,4.945l-3.709,7.418s1.236,1.236,3.709,0c0,0-1.127,8.711.054,13.628l3.654-14.864Z"/><path class="e" d="M1004.816,647.3s-15.9-33.353-97.441,23.975S983.9,657.208,983.9,657.208Z"/><path class="d" d="M829.555,622.874S754.3,654.8,736.042,585.947s.733-85.366-6.691-118.882l12.1-5.828s45.56,28.089,61.157,71.455S829.555,622.874,829.555,622.874Z"/><path class="a" d="M906.091,699.219c-1.172-.393-13.541-7.8-20.247-8.419s-16.735-.9-20.2-1.884c-4.072-1.158-5.1.46-.409,2.251,3.05,1.164,9.3,2.968,10.681,3.025.671.027-3.7-.56-8.447-1.545-5.049-1.046-10.525-2.469-10.776-1.57-.486,1.744,14.056,5.665,16.619,5.942a64.588,64.588,0,0,1-6.755-.818c-3.048-.541-6.542-1.621-7.228-.988-1.082,1,6.621,4.018,12.986,4.9.111.206-1.945.528-9.435-1.028-.753-.156-2.67.173-.205,1.312,5.188,2.4,7.242,3.814,14.76,4.048,7.332.229,15.425-1.28,20.7.488Z"/><path class="a" d="M889.075,691.46s-5.676-5.963-12.051-6.946c-3.789-.584-3.7-1.539-4.346-1.823-2.144-.944-.069,3.037,3.15,4.058,2.616.83,4.076,5.3,5.649,6.248s6.277,2.687,7.451,2.072S889.075,691.46,889.075,691.46Z"/><path class="d" d="M1008.423,485.769c23.287,20.836,39.4,40.188,49.451,103.849,5.1,32.3,3.772,64.6,2.444,81.629a20.122,20.122,0,0,1-13.83,17.5c-72.962,24.067-150.842,19.261-150.842,19.261-4.178-1.555.328-16.672.328-16.672,37.329-50.66,90.678-42.142,105.031-51.028,4.477-26.261-31.6-59.123-35.853-75.414-11.141-42.72-47.814-79.688-38.325-96.431C930.1,462.669,984.933,464.752,1008.423,485.769Z"/><path class="g" d="M460.524,600.657c-11.851,0-22.555-.187-32.6-.482q-1.676-.049-3.326-.1c-.686-.061-1.373-.129-2.058-.182-5.175-.4-7.4,5.169-11.862,6.005-6.686.836-12.537-7.523-18.978-2.829-.852.463-1.682.96-2.5,1.478a139.175,139.175,0,0,0-11.672,8.873c-.836.557-2.786.557-3.344-.557a33.232,33.232,0,0,1-.474-7.023c-.019-.821-.056-1.631-.14-2.4-.222-2-.779-3.947-2.45-4.505-8.359-3.064-15.324,4.18-23.4,5.851a2.5,2.5,0,0,1-2.049-1.292c-4.359-4-9.374,1.014-13.553,2.685a2.447,2.447,0,0,1-1.95-.278c-3.622-3.065-5.851-10.03-10.309-8.359-1.672.558-.557,6.13-3.622,7.8a10.186,10.186,0,0,1-2.81.515c-6.532.282-12.932-5.355-19.758-6.087.836-3.622,3.9-7.244,3.622-10.587-.981-16.1-2.654-32.192-3.557-48.386-.029-.883-.057-1.511-.085-2.169-1.332-6.405-.535-13.1.154-19.8.1-.957.194-1.913.282-2.869.42-11.756.977-23.457-1.809-35.159-.418-1.881,1.359-3.448,2.39-5.054a4.028,4.028,0,0,0,.675-1.633c.557-5.294-3.9-9.194-4.179-14.209a3.053,3.053,0,0,1,.836-3.343c3.622-3.622,9.473-3.9,12.49-8.132a7.226,7.226,0,0,0,.51-2.4c.187-3.276-1.113-6.743-1.3-10.087,0-1.114.836-2.229,1.672-2.229,6.687-1.95,13.373.279,19.588-2.741.959-.36,1.91-.7,2.877-1.011a40.253,40.253,0,0,1,8.9-1.962c.576-.256,1.169-.505,1.8-.72.967-.35,1.974-.692,2.989-1.01a64.258,64.258,0,0,1,10.357-2.337c1.757-.245,3.527-.415,5.27-.527,1.992-.279,3.943-1.672,5.893-1.951a44.357,44.357,0,0,0,8.358-1.671,15.129,15.129,0,0,1,5.015,0c10.587,1.671,20.617,4.458,31.087,4.922q1.56.011,3.12.016,4.68.016,9.359.005c.777-.04,1.383-.053,2.007-.069,4.02-.138,8.2-.416,12.1-.7q1.553-.06,3.1-.083t3.082-.018c5.245.658,8.031-6.029,12.489-6.307,6.408-.279,10.866,7.8,18.061,7.168q1.537-.015,3.082-.064t3.1-.139c16.717-.836,33.155,2.508,49.872,1.393,10.587-.557,20.9-2.786,31.483-3.622,8.916-.278,17.274,2.508,26.189,3.344,10.031,1.114,20.061.557,30.063-.512.908-.014,1.9-.014,2.9-.014.746,0,1.491,0,2.248-.014a25.665,25.665,0,0,0,4.3-.782,4.824,4.824,0,0,1,3.958.486c3.065,2.229,1.672,6.408,1.393,9.751q-.114,1.52-.213,3.04t-.183,3.039c.117,1.444-.44,3.115.4,4.23,5.572,6.687,3.9,13.652.279,20.617a8.493,8.493,0,0,0-1.228,5.547q.015,1.52.037,3.039c.131,9.119.405,18.237.633,27.355.279,4.179-1.114,8.637-1.114,12.816a10.459,10.459,0,0,0,.278,2.978c1.115,3.988,6.13,4.266,8.08,7.61,1.115,2.228-.278,4.457-1.393,6.408-3.064,4.736-6.965,8.637-6.886,14.194-.013,1.049,0,2.087.013,3.124.119,9.338.269,18.678.337,28.069q.03.983.062,1.963l.066,1.964c0,3.622,3.065,7.523.557,10.587-3.9,5.294-8.915,10.03-15.944,9.548h-3.318q-8.061,0-16.12-.006a23.775,23.775,0,0,0-2.682.1c-5.4.669-6.792,6.241-9.021,10.42a2.931,2.931,0,0,1-4.736.836c-4.18-4.179-7.523-11.423-14.213-10.71-.835.117-1.671.24-2.506.364-3.342.5-6.685,1.024-10.028,1.274-.929.07-1.858.118-2.786.139-6.583-.472-13.165-2.238-19.747-2.672-.94-.062-1.881-.1-2.821-.1-6.129,0-8.916,6.409-12.816,10.309-.836.836-1.95,1.672-3.065,1.115-4.458-2.229-5.293-8.637-10.224-10.337a8.1,8.1,0,0,0-2.995-.431c-13,.069-25.8,1.173-39.16-1.77a8.426,8.426,0,0,0-2.089-.1c-.7.034-1.4.1-2.108.1a7.45,7.45,0,0,1,2.031-1.007c3.451-1.09,7.32.5,10.8.728-.557.558-1.114.558-1.779.849C463.009,600,461.949,600.289,460.524,600.657Zm-84.115-78.391a43.386,43.386,0,0,0,.343,8.752,16.374,16.374,0,0,0,24.326,10.946,5.583,5.583,0,0,1,5.748-.218,23.67,23.67,0,0,0,19.682,1.24,45.061,45.061,0,0,1,8.55-2.173,8.543,8.543,0,0,1,4.564.447c7.527,2.865,14.4,1.615,20.44-3.753.833-.74,1.5-1.364,2.741-.978.98.3,2.054.034,2.985.849A14.016,14.016,0,0,0,474.6,541.1c5.093.17,10.2.345,15.264-.555a2.34,2.34,0,0,1,1.349.135c5.5,2.211,11.092,2.149,16.817.91a6.94,6.94,0,0,1,5.361.532,15.621,15.621,0,0,0,13.286,2.222,35.28,35.28,0,0,1,6.3-1.035c11.53-1.066,18.444-13.668,12.755-23.793a14.4,14.4,0,0,1-1.922-8.24,3.947,3.947,0,0,0-.011-.7,3.83,3.83,0,0,1,.859-2.811A16.268,16.268,0,0,0,533.507,482.2c-3.7-.49-7.418-.044-11.128.009a11.831,11.831,0,0,0-5.886,1.466,9.548,9.548,0,0,1-5.322,1.112,15.532,15.532,0,0,0-8.967,2.548,1.441,1.441,0,0,1-1.942-.028,15.049,15.049,0,0,0-9.945-2.964c-6.26.409-12.53.364-18.793.59a2.7,2.7,0,0,1-1.9-.624,16.469,16.469,0,0,0-7.576-3.278c-2.769-.475-5.453.134-8.167.421-4.157.44-8.177,1.259-11.453,4.134a1.21,1.21,0,0,1-1.043.239,55.616,55.616,0,0,0-12.642.04c-3.665.347-7.15,1.181-10.081,3.55-.7.567-.976.232-1.414-.287a16.19,16.19,0,0,0-19.222-4.76,5.5,5.5,0,0,1-1.618.355,18.472,18.472,0,0,0-15.241,9.6c-2.76,4.777-3.342,10.062-3.287,15.461a3.254,3.254,0,0,1-.012,1.232C376.274,514.626,376.739,518.495,376.409,522.266Z"/><path class="h" d="M376.408,522.265c.331-3.77-.134-7.639,1.457-11.254a3.254,3.254,0,0,0,.012-1.232c-.055-5.4.527-10.684,3.287-15.461a18.472,18.472,0,0,1,15.241-9.6,5.5,5.5,0,0,0,1.618-.355,16.19,16.19,0,0,1,19.222,4.76c.438.519.711.854,1.414.287,2.931-2.369,6.416-3.2,10.081-3.55a55.616,55.616,0,0,1,12.642-.04,1.21,1.21,0,0,0,1.043-.239c3.276-2.875,7.3-3.694,11.453-4.134,2.714-.287,5.4-.9,8.167-.421a16.469,16.469,0,0,1,7.576,3.278,2.7,2.7,0,0,0,1.9.624c6.263-.226,12.533-.181,18.793-.59a15.049,15.049,0,0,1,9.945,2.964,1.441,1.441,0,0,0,1.942.028,15.532,15.532,0,0,1,8.967-2.548,9.548,9.548,0,0,0,5.322-1.112,11.831,11.831,0,0,1,5.886-1.466c3.71-.053,7.429-.5,11.128-.009a16.268,16.268,0,0,1,11.148,25.573,3.83,3.83,0,0,0-.859,2.811,3.947,3.947,0,0,1,.011.7,14.4,14.4,0,0,0,1.922,8.24c5.689,10.125-1.225,22.727-12.755,23.793a35.28,35.28,0,0,0-6.3,1.035,15.621,15.621,0,0,1-13.286-2.222,6.94,6.94,0,0,0-5.361-.532c-5.725,1.239-11.316,1.3-16.817-.91a2.34,2.34,0,0,0-1.349-.135c-5.06.9-10.171.725-15.264.555a14.016,14.016,0,0,1-8.813-3.726c-.931-.815-2.005-.545-2.985-.849-1.243-.386-1.908.238-2.741.978-6.04,5.368-12.913,6.618-20.44,3.753a8.543,8.543,0,0,0-4.564-.447,45.061,45.061,0,0,0-8.55,2.173,23.67,23.67,0,0,1-19.682-1.24,5.583,5.583,0,0,0-5.748.218,16.374,16.374,0,0,1-24.326-10.946A43.467,43.467,0,0,1,376.408,522.265Zm9.358.379h-.192c0,1.717-.043,3.436.009,5.153A6.919,6.919,0,0,0,390,534.464a6.834,6.834,0,0,0,7.828-1.541,1.755,1.755,0,0,1,1.441-.63,12.807,12.807,0,0,0,6.978-1.518,1,1,0,0,1,1.5.3c4.055,5.012,13.057,5.09,17.082,2.728a9.994,9.994,0,0,1,5.2-1.588,57.367,57.367,0,0,0,8.937-1.292,1.489,1.489,0,0,1,1.359.316,10.255,10.255,0,0,0,16.037-4.025c.531-1.175,3.281-1.949,4.343-1.183a7.049,7.049,0,0,0,7.607.757c.637-.3.886-.318,1.194.438a7.13,7.13,0,0,0,7.347,4.852c2.971-.035,5.941-.138,8.912-.172a6.856,6.856,0,0,0,4.5-1.565c.553-.468.859-.369,1.393.031,4.7,3.521,9.825,3.659,15.175,1.79.428-.15.816-.5,1.314-.31,2.292.868,4.686.468,7.037.549a2.528,2.528,0,0,1,2.134.957,6.048,6.048,0,0,0,6.479,2.246,63.014,63.014,0,0,1,8.616-1.473,6.877,6.877,0,0,0,5.984-5.443,6.8,6.8,0,0,0-2.741-7.368,2.215,2.215,0,0,1-1-2.068q.028-6.615-.035-13.232a1.9,1.9,0,0,1,.9-1.828,7.063,7.063,0,0,0,2.711-8,7.206,7.206,0,0,0-6.828-5.011c-2.692-.016-5.385.066-8.077.121-1.367.027-2.849.15-3.8,1.106-1.65,1.655-3.592,1.608-5.628,1.533-.928-.035-1.858,0-2.786-.005a7.089,7.089,0,0,0-5.725,2.668c-.3.354-.534.761-1.041.866a7.9,7.9,0,0,0-3.4,1.806,2.224,2.224,0,0,1-3.264-.976,7.012,7.012,0,0,0-6.938-4.824c-6.491.432-12.99.429-19.487.583a6.621,6.621,0,0,0-3.606.881c-.8.535-1.025.2-1.381-.5-1.779-3.523-4.566-4.887-8.483-4.273-1.7.265-3.4.515-5.1.7a7.251,7.251,0,0,0-6.492,4.713c-.236.592-.462.779-1.108.539-5.726-2.129-11.593-1.627-17.464-.857a6.9,6.9,0,0,0-5.09,3.286,2.148,2.148,0,0,1-.962.941c-2.357,1.025-4.535,2.274-7.336,2.224-2.485-.045-2.468.333-2.5-2.181a6.978,6.978,0,0,0-3.812-6.5,6.828,6.828,0,0,0-7.384.381,2.4,2.4,0,0,1-1.668.437,9.847,9.847,0,0,0-10.407,6.3,20.68,20.68,0,0,0-1.281,10.525c.167,1.208.331,2.283-.542,3.361a4.84,4.84,0,0,0-.861,3.035C385.751,518.932,385.766,520.788,385.766,522.644Z"/><path class="i" d="M385.766,522.644c0-1.856-.015-3.712.006-5.568a4.84,4.84,0,0,1,.861-3.035c.873-1.078.709-2.153.542-3.361a20.68,20.68,0,0,1,1.281-10.525,9.847,9.847,0,0,1,10.407-6.3,2.4,2.4,0,0,0,1.668-.437,6.828,6.828,0,0,1,7.384-.381,6.978,6.978,0,0,1,3.812,6.5c.034,2.514.017,2.136,2.5,2.181,2.8.05,4.979-1.2,7.336-2.224a2.148,2.148,0,0,0,.962-.941,6.9,6.9,0,0,1,5.09-3.286c5.871-.77,11.738-1.272,17.464.857.646.24.872.053,1.108-.539a7.251,7.251,0,0,1,6.492-4.713c1.706-.182,3.406-.432,5.1-.7,3.917-.614,6.7.75,8.483,4.273.356.7.576,1.036,1.381.5a6.621,6.621,0,0,1,3.606-.881c6.5-.154,13-.151,19.487-.583a7.012,7.012,0,0,1,6.938,4.824,2.224,2.224,0,0,0,3.264.976,7.9,7.9,0,0,1,3.4-1.806c.507-.105.745-.512,1.041-.866a7.089,7.089,0,0,1,5.725-2.668c.928.005,1.858-.03,2.786.005,2.036.075,3.978.122,5.628-1.533.952-.956,2.434-1.079,3.8-1.106,2.692-.055,5.385-.137,8.077-.121a7.206,7.206,0,0,1,6.828,5.011,7.063,7.063,0,0,1-2.711,8,1.9,1.9,0,0,0-.9,1.828q.066,6.617.035,13.232a2.215,2.215,0,0,0,1,2.068,6.8,6.8,0,0,1,2.741,7.368,6.877,6.877,0,0,1-5.984,5.443,63.014,63.014,0,0,0-8.616,1.473,6.048,6.048,0,0,1-6.479-2.246,2.528,2.528,0,0,0-2.134-.957c-2.351-.081-4.745.319-7.037-.549-.5-.189-.886.16-1.314.31-5.35,1.869-10.473,1.731-15.175-1.79-.534-.4-.84-.5-1.393-.031a6.856,6.856,0,0,1-4.5,1.565c-2.971.034-5.941.137-8.912.172a7.13,7.13,0,0,1-7.347-4.852c-.308-.756-.557-.738-1.194-.438a7.049,7.049,0,0,1-7.607-.757c-1.062-.766-3.812.008-4.343,1.183a10.255,10.255,0,0,1-16.037,4.025,1.489,1.489,0,0,0-1.359-.316,57.367,57.367,0,0,1-8.937,1.292,9.994,9.994,0,0,0-5.2,1.588c-4.025,2.362-13.027,2.284-17.082-2.728a1,1,0,0,0-1.5-.3,12.807,12.807,0,0,1-6.978,1.518,1.755,1.755,0,0,0-1.441.63A6.834,6.834,0,0,1,390,534.464a6.919,6.919,0,0,1-4.413-6.667c-.052-1.717-.009-3.436-.009-5.153ZM513.5,513.1h-.025c0,2.461,0,4.922,0,7.383,0,.928.269,2.011-.116,2.744-.481.917-1.682.206-2.553.37s-1.492.575-1.521,1.52a1.467,1.467,0,0,0,1.522,1.642c2.877.085,5.756.1,8.634.093a1.4,1.4,0,0,0,1.438-1.559,1.441,1.441,0,0,0-1.357-1.51,8.311,8.311,0,0,0-1.669-.037c-.881.066-1.252-.235-1.219-1.177q.1-2.853.022-5.71c-.022-.855.251-1.251,1.113-1.381,2.339-.352,4.67-.757,7-1.164.783-.137,1.2-.02,1.194.939-.034,3.3-.016,6.593.029,9.89.011.756-.231,1.049-.988,1.168a6.052,6.052,0,0,0-3.233,1.153,1.544,1.544,0,0,0-.394,2.013,1.3,1.3,0,0,0,1.8.568,16.8,16.8,0,0,1,4.187-.981c1.382-.163,2.774-.249,4.153-.429a1.48,1.48,0,0,0,1.449-1.7c-.086-1.011-.77-1.42-1.718-1.453a2.741,2.741,0,0,0-.831.062c-1.085.314-1.33-.122-1.328-1.172.015-7.15-.039-14.3-.045-21.451,0-.914-.373-1.995.189-2.7.455-.572,1.491-.155,2.259-.291a1.52,1.52,0,0,0,1.445-1.586,1.432,1.432,0,0,0-1.475-1.543c-2.831,0-5.663.081-8.491.193a1.369,1.369,0,0,0-1.314,1.528,1.45,1.45,0,0,0,1.338,1.529,7.922,7.922,0,0,0,1.808.013c.816-.078,1.029.275,1.029,1.039,0,2.925.016,5.85.1,8.773.025.856-.316,1.127-1.078,1.246-2.337.365-4.671.751-7,1.185-.957.179-1.222-.165-1.2-1.075.052-2,.034-3.992.038-5.989.005-2.335,0-2.335,2.347-2.542.092-.008.185-.013.277-.025a1.434,1.434,0,0,0,1.4-1.454,1.4,1.4,0,0,0-1.352-1.633c-2.876-.074-5.756-.068-8.633,0a1.4,1.4,0,0,0-1.355,1.513,1.465,1.465,0,0,0,1.441,1.574,5.938,5.938,0,0,0,1.39.028c1.082-.14,1.326.349,1.308,1.352C513.467,507.064,513.5,510.083,513.5,513.1Zm-77.608-12.87a47.2,47.2,0,0,0-7.5.583,1.447,1.447,0,0,0-1.317,1.792,1.509,1.509,0,0,0,1.805,1.325,9.653,9.653,0,0,0,1.237-.19c.768-.146,1.208-.033,1.167.945-.074,1.76-.036,3.526,0,5.288.012.657-.12.979-.886,1.031A1.423,1.423,0,0,0,429,512.6a1.354,1.354,0,0,0,1.355,1.473c.842.038.956.452.946,1.154-.027,1.809.023,3.619,0,5.428-.009.828.294,1.771-.166,2.452-.382.567-1.3.293-1.968.483a1.525,1.525,0,0,0-1.278,1.722,1.353,1.353,0,0,0,1.458,1.386c2.713-.311,5.415-.731,8.107-1.2a1.357,1.357,0,0,0,1.06-1.707,1.473,1.473,0,0,0-1.541-1.323,5.722,5.722,0,0,0-1.375.175c-.757.147-1.1-.07-1.08-.913.039-1.39-.011-2.783-.033-4.174-.059-3.675-.061-3.675,3.537-4.544,1.576-.381,2.365.019,2.914,1.539a10.917,10.917,0,0,1,.4,1.615c.484,2.51.259,5.095.8,7.6.531,2.461,2.015,3.939,4.226,4.166a4.7,4.7,0,0,0,4.978-3.207c.692-1.624.556-2.557-.441-3.031-1.029-.489-1.68-.033-2.435,1.706-.018.042-.038.084-.057.126-.323.709-.736,1.335-1.634,1.259a1.646,1.646,0,0,1-1.5-1.581c-.187-1.188-.3-2.39-.387-3.591-.144-1.99,0-4.121-.942-5.863-1-1.861-.633-2.917.627-4.522,3.025-3.852,1.706-7.137-3.037-8.391A24.17,24.17,0,0,0,435.895,500.231ZM394.3,525a16.431,16.431,0,0,0,4.954,1.665,7.94,7.94,0,0,0,8.488-5.889c.766-3.382-1.14-6.227-5.094-7.64a25.211,25.211,0,0,0-4.463-1.035,2.586,2.586,0,0,1-2.366-2.492,16.433,16.433,0,0,1,.4-5.111c.406-2.127,1.822-2.543,3.513-1.127a7.769,7.769,0,0,1,2.846,5.672c.07,1.018.57,1.68,1.662,1.643,1.027-.034,1.44-.686,1.482-1.655.133-3.1.287-6.209.41-9.314.042-1.054-.353-1.861-1.533-1.907-1.2-.047-1.593.768-1.644,1.808-.033.664-.006,1.331-.006,2.253-.745-.588-1.194-.974-1.675-1.316-3.386-2.416-7.052-1.1-8.068,2.934a20.871,20.871,0,0,0-.626,4.819c-.057,4.313,1.707,6.38,5.973,7.1a12.6,12.6,0,0,1,4.484,1.405,3.067,3.067,0,0,1,.93,4.759,5.068,5.068,0,0,1-6.375,1.335,5.557,5.557,0,0,1-3.1-5.333,1.493,1.493,0,0,0-1.584-1.716,1.459,1.459,0,0,0-1.546,1.6c-.156,3.384-.3,6.768-.2,10.156.032,1.081.511,1.808,1.676,1.775,1.121-.032,1.481-.781,1.468-1.8C394.288,526.778,394.3,525.961,394.3,525Zm59.1-4.663v.129c1.206,0,2.412-.01,3.618,0a1.507,1.507,0,0,0,1.667-1.168,1.367,1.367,0,0,0-.858-1.814c-.969-.318-.461-.923-.426-1.449.041-.622.106-1.131.961-1.238,1.885-.236,3.753-.6,5.627-.916.269-.045.649-.216.775.055a18.5,18.5,0,0,1,1.357,3.328c.19.771-.873.785-1.288,1.234-.219.238-.5.417-.716.657a1.525,1.525,0,0,0-.041,2.342,1.476,1.476,0,0,0,2.236-.082,12.4,12.4,0,0,1,3.9-2.369c.884-.406,1.8-.735,2.7-1.1a1.581,1.581,0,1,0-1.238-2.9c-.256.109-.511.221-.767.329-1.944.82-1.573,1.1-2.463-1.046q-3.511-8.478-6.982-16.973c-.464-1.136-1.074-1.932-2.468-1.722-2.018.3-4.043.551-6.062.849-1.057.155-1.759.725-1.577,1.874.169,1.065.946,1.408,1.96,1.278,1.058-.136,2.12-.252,3.171-.429.827-.139,1.089.111.916.954q-1.645,8.039-3.229,16.088c-.139.713-.44.915-1.111.874-1.157-.071-2.318-.086-3.478-.12-1.048-.031-1.756.464-1.778,1.514s.657,1.571,1.7,1.619C450.8,520.2,452.1,520.272,453.4,520.339Zm29.286-7.464h-.065c0-3.017.022-6.034-.014-9.051-.01-.85.179-1.26,1.144-1.252,1.528.014,3.06-.094,4.587-.2.69-.05.891.194.866.858-.044,1.158-.038,2.319,0,3.478.029.967.53,1.631,1.536,1.61a1.5,1.5,0,0,0,1.552-1.62c.081-1.9.176-3.8.215-5.7.027-1.329-.65-1.953-1.99-1.906-.881.031-1.76.1-2.64.16-5.422.36-10.857.243-16.284.415-1.729.054-2.316.66-2.1,2.18.338,2.387.721,4.767,1.1,7.148.159.99.716,1.693,1.771,1.564,1.122-.137,1.514-.923,1.337-2.029-.241-1.511-.388-3.04-.688-4.538-.2-1,.193-1.189,1.065-1.176,1.391.022,2.788.011,4.175-.09,1-.073,1.24.306,1.234,1.256-.033,5.477-.005,10.954,0,16.432,0,2.752,0,2.752-2.681,2.857a4.894,4.894,0,0,0-.556.029c-.932.145-1.574.6-1.542,1.63a1.473,1.473,0,0,0,1.626,1.538q4.8-.031,9.6-.191a1.371,1.371,0,0,0,1.391-1.582,1.426,1.426,0,0,0-1.5-1.493,8.949,8.949,0,0,0-1.669.008c-1.124.148-1.539-.214-1.5-1.418C482.742,518.818,482.684,515.846,482.684,512.875Zm-60.9-3.787c-.682-.385-1.076-.626-1.485-.836-5.166-2.646-8.936-.851-10.059,4.826a41.126,41.126,0,0,0-.359,8.6c.1,7.836,7.181,9.247,12.194,7.219,3.176-1.284,5.086-6.086,4.088-9.371a1.5,1.5,0,0,0-1.657-1.189,1.408,1.408,0,0,0-1.4,1.459,17.725,17.725,0,0,1-.217,3.326,3.994,3.994,0,0,1-3.184,3.283c-4.4.771-6.529-.963-6.629-5.4-.009-.418-.035-.836-.018-1.253.094-2.4-.191-4.833.561-7.183.7-2.2,1.68-2.686,3.9-2.019a8.329,8.329,0,0,1,4.416,3.429,1.541,1.541,0,0,0,1.782.764,1.5,1.5,0,0,0,1.174-1.533c0-2.274.025-4.548-.014-6.821a1.433,1.433,0,0,0-1.611-1.528,1.449,1.449,0,0,0-1.481,1.53C421.758,507.209,421.784,508.03,421.784,509.088Zm82.585-1.985a16.561,16.561,0,0,0-3.359-1.583c-3.828-1.159-6.68.26-7.775,4.083a29.286,29.286,0,0,0-.461,12.153c.565,4.078,3.577,5.823,8.42,5.938,5.178.124,8.307-4.253,7.579-9.7a1.4,1.4,0,0,0-1.535-1.3,1.462,1.462,0,0,0-1.545,1.468c-.065.737.015,1.488-.053,2.225-.207,2.254-1.467,3.786-3.352,4.048a10.032,10.032,0,0,1-3.188-.041,3.523,3.523,0,0,1-3.191-3.048,27.84,27.84,0,0,1,.4-10.906c.536-1.959,1.641-2.458,3.619-1.923a8.133,8.133,0,0,1,4.579,3.428,1.594,1.594,0,0,0,1.88.827,1.689,1.689,0,0,0,1.18-1.836c-.006-2.042,0-4.084,0-6.126,0-1.059-.41-1.886-1.56-1.9-1.245-.02-1.63.864-1.634,1.97C504.367,505.542,504.369,506.214,504.369,507.1Z"/><path class="j" d="M513.5,513.1c0-3.018-.036-6.037.021-9.054.018-1-.226-1.492-1.308-1.352a5.938,5.938,0,0,1-1.39-.028,1.465,1.465,0,0,1-1.441-1.574,1.4,1.4,0,0,1,1.355-1.513c2.877-.065,5.757-.071,8.633,0a1.4,1.4,0,0,1,1.352,1.633,1.434,1.434,0,0,1-1.4,1.454c-.092.012-.185.017-.277.025-2.346.207-2.342.207-2.347,2.542,0,2,.014,3.994-.038,5.989-.025.91.24,1.254,1.2,1.075,2.325-.434,4.659-.82,7-1.185.762-.119,1.1-.39,1.078-1.246-.086-2.923-.1-5.848-.1-8.773,0-.764-.213-1.117-1.029-1.039a7.922,7.922,0,0,1-1.808-.013,1.45,1.45,0,0,1-1.338-1.529,1.369,1.369,0,0,1,1.314-1.528c2.828-.112,5.66-.19,8.491-.193a1.432,1.432,0,0,1,1.475,1.543,1.52,1.52,0,0,1-1.445,1.586c-.768.136-1.8-.281-2.259.291-.562.707-.19,1.788-.189,2.7.006,7.15.06,14.3.045,21.451,0,1.05.243,1.486,1.328,1.172a2.741,2.741,0,0,1,.831-.062c.948.033,1.632.442,1.718,1.453a1.48,1.48,0,0,1-1.449,1.7c-1.379.18-2.771.266-4.153.429a16.8,16.8,0,0,0-4.187.981,1.3,1.3,0,0,1-1.8-.568,1.544,1.544,0,0,1,.394-2.013,6.052,6.052,0,0,1,3.233-1.153c.757-.119,1-.412.988-1.168-.045-3.3-.063-6.594-.029-9.89.01-.959-.411-1.076-1.194-.939-2.33.407-4.661.812-7,1.164-.862.13-1.135.526-1.113,1.381q.077,2.853-.022,5.71c-.033.942.338,1.243,1.219,1.177a8.311,8.311,0,0,1,1.669.037,1.441,1.441,0,0,1,1.357,1.51,1.4,1.4,0,0,1-1.438,1.559c-2.878.012-5.757-.008-8.634-.093a1.467,1.467,0,0,1-1.522-1.642c.029-.945.647-1.355,1.521-1.52s2.072.547,2.553-.37c.385-.733.114-1.816.116-2.744.006-2.461,0-4.922,0-7.383Z"/><path class="j" d="M435.895,500.231a24.17,24.17,0,0,1,5.639.609c4.743,1.254,6.062,4.539,3.037,8.391-1.26,1.605-1.63,2.661-.627,4.522.939,1.742.8,3.873.942,5.863.087,1.2.2,2.4.387,3.591a1.646,1.646,0,0,0,1.5,1.581c.9.076,1.311-.55,1.634-1.259.019-.042.039-.084.057-.126.755-1.739,1.406-2.2,2.435-1.706,1,.474,1.133,1.407.441,3.031a4.7,4.7,0,0,1-4.978,3.207c-2.211-.227-3.695-1.705-4.226-4.166-.541-2.506-.316-5.091-.8-7.6a10.917,10.917,0,0,0-.4-1.615c-.549-1.52-1.338-1.92-2.914-1.539-3.6.869-3.6.869-3.537,4.544.022,1.391.072,2.784.033,4.174-.024.843.323,1.06,1.08.913a5.722,5.722,0,0,1,1.375-.175,1.473,1.473,0,0,1,1.541,1.323,1.357,1.357,0,0,1-1.06,1.707c-2.692.465-5.394.885-8.107,1.2a1.353,1.353,0,0,1-1.458-1.386,1.525,1.525,0,0,1,1.278-1.722c.663-.19,1.586.084,1.968-.483.46-.681.157-1.624.166-2.452.02-1.809-.03-3.619,0-5.428.01-.7-.1-1.116-.946-1.154A1.354,1.354,0,0,1,429,512.6a1.423,1.423,0,0,1,1.4-1.593c.766-.052.9-.374.886-1.031-.033-1.762-.071-3.528,0-5.288.041-.978-.4-1.091-1.167-.945a9.653,9.653,0,0,1-1.237.19,1.509,1.509,0,0,1-1.805-1.325,1.447,1.447,0,0,1,1.317-1.792A47.2,47.2,0,0,1,435.895,500.231Zm-1.46,6.32c0,.785.051,1.575-.012,2.355-.088,1.087.3,1.431,1.354,1.09,1.272-.411,2.549-.813,3.843-1.147a4.8,4.8,0,0,0,3.073-2.783,1.327,1.327,0,0,0-.763-2.1,12.118,12.118,0,0,0-3.783-.765C434.42,502.877,434.418,502.895,434.435,506.551Z"/><path class="j" d="M394.3,525c0,.959-.008,1.776,0,2.591.013,1.016-.347,1.765-1.468,1.8-1.165.033-1.644-.694-1.676-1.775-.1-3.388.04-6.772.2-10.156a1.459,1.459,0,0,1,1.546-1.6,1.493,1.493,0,0,1,1.584,1.716,5.557,5.557,0,0,0,3.1,5.333,5.068,5.068,0,0,0,6.375-1.335,3.067,3.067,0,0,0-.93-4.759,12.6,12.6,0,0,0-4.484-1.405c-4.266-.719-6.03-2.786-5.973-7.1a20.871,20.871,0,0,1,.626-4.819c1.016-4.029,4.682-5.35,8.068-2.934.481.342.93.728,1.675,1.316,0-.922-.027-1.589.006-2.253.051-1.04.442-1.855,1.644-1.808,1.18.046,1.575.853,1.533,1.907-.123,3.105-.277,6.209-.41,9.314-.042.969-.455,1.621-1.482,1.655-1.092.037-1.592-.625-1.662-1.643a7.769,7.769,0,0,0-2.846-5.672c-1.691-1.416-3.107-1-3.513,1.127a16.433,16.433,0,0,0-.4,5.111,2.586,2.586,0,0,0,2.366,2.492,25.211,25.211,0,0,1,4.463,1.035c3.954,1.413,5.86,4.258,5.094,7.64a7.94,7.94,0,0,1-8.488,5.889A16.431,16.431,0,0,1,394.3,525Z"/><path class="j" d="M453.4,520.339c-1.3-.067-2.6-.139-3.893-.2-1.044-.048-1.722-.578-1.7-1.619s.73-1.545,1.778-1.514c1.16.034,2.321.049,3.478.12.671.041.972-.161,1.111-.874q1.569-8.054,3.229-16.088c.173-.843-.089-1.093-.916-.954-1.051.177-2.113.293-3.171.429-1.014.13-1.791-.213-1.96-1.278-.182-1.149.52-1.719,1.577-1.874,2.019-.3,4.044-.546,6.062-.849,1.394-.21,2,.586,2.468,1.722q3.468,8.5,6.982,16.973c.89,2.15.519,1.866,2.463,1.046.256-.108.511-.22.767-.329a1.581,1.581,0,1,1,1.238,2.9c-.9.368-1.819.7-2.7,1.1a12.4,12.4,0,0,0-3.9,2.369,1.476,1.476,0,0,1-2.236.082,1.525,1.525,0,0,1,.041-2.342c.215-.24.5-.419.716-.657.415-.449,1.478-.463,1.288-1.234a18.5,18.5,0,0,0-1.357-3.328c-.126-.271-.506-.1-.775-.055-1.874.314-3.742.68-5.627.916-.855.107-.92.616-.961,1.238-.035.526-.543,1.131.426,1.449a1.367,1.367,0,0,1,.858,1.814,1.507,1.507,0,0,1-1.667,1.168c-1.206-.014-2.412,0-3.618,0Zm6.9-16.891-.273.082c-.537,2.619-1.079,5.237-1.608,7.858-.083.414-.366,1.021.494.892,1.322-.2,2.636-.453,3.955-.675.476-.08.61-.318.427-.767Q461.79,507.145,460.3,503.448Z"/><path class="j" d="M482.684,512.875c0,2.971.058,5.943-.028,8.911-.035,1.2.38,1.566,1.5,1.418a8.949,8.949,0,0,1,1.669-.008,1.426,1.426,0,0,1,1.5,1.493,1.371,1.371,0,0,1-1.391,1.582q-4.8.155-9.6.191a1.473,1.473,0,0,1-1.626-1.538c-.032-1.034.61-1.485,1.542-1.63a4.894,4.894,0,0,1,.556-.029c2.681-.105,2.683-.105,2.681-2.857-.005-5.478-.033-10.955,0-16.432.006-.95-.233-1.329-1.234-1.256-1.387.1-2.784.112-4.175.09-.872-.013-1.265.176-1.065,1.176.3,1.5.447,3.027.688,4.538.177,1.106-.215,1.892-1.337,2.029-1.055.129-1.612-.574-1.771-1.564-.384-2.381-.767-4.761-1.1-7.148-.216-1.52.371-2.126,2.1-2.18,5.427-.172,10.862-.055,16.284-.415.88-.058,1.759-.129,2.64-.16,1.34-.047,2.017.577,1.99,1.906-.039,1.9-.134,3.8-.215,5.7a1.5,1.5,0,0,1-1.552,1.62c-1.006.021-1.507-.643-1.536-1.61-.035-1.159-.041-2.32,0-3.478.025-.664-.176-.908-.866-.858-1.527.11-3.059.218-4.587.2-.965-.008-1.154.4-1.144,1.252.036,3.017.014,6.034.014,9.051Z"/><path class="j" d="M421.784,509.088c0-1.058-.026-1.879.006-2.7a1.449,1.449,0,0,1,1.481-1.53,1.433,1.433,0,0,1,1.611,1.528c.039,2.273.018,4.547.014,6.821a1.5,1.5,0,0,1-1.174,1.533,1.541,1.541,0,0,1-1.782-.764,8.329,8.329,0,0,0-4.416-3.429c-2.22-.667-3.2-.18-3.9,2.019-.752,2.35-.467,4.782-.561,7.183-.017.417.009.835.018,1.253.1,4.441,2.227,6.175,6.629,5.4a3.994,3.994,0,0,0,3.184-3.283,17.725,17.725,0,0,0,.217-3.326,1.408,1.408,0,0,1,1.4-1.459,1.5,1.5,0,0,1,1.657,1.189c1,3.285-.912,8.087-4.088,9.371-5.013,2.028-12.089.617-12.194-7.219a41.126,41.126,0,0,1,.359-8.6c1.123-5.677,4.893-7.472,10.059-4.826C420.708,508.462,421.1,508.7,421.784,509.088Z"/><path class="j" d="M504.369,507.1c0-.889,0-1.561,0-2.234,0-1.106.389-1.99,1.634-1.97,1.15.018,1.559.845,1.56,1.9,0,2.042,0,4.084,0,6.126a1.689,1.689,0,0,1-1.18,1.836,1.594,1.594,0,0,1-1.88-.827,8.133,8.133,0,0,0-4.579-3.428c-1.978-.535-3.083-.036-3.619,1.923a27.84,27.84,0,0,0-.4,10.906,3.523,3.523,0,0,0,3.191,3.048,10.032,10.032,0,0,0,3.188.041c1.885-.262,3.145-1.794,3.352-4.048.068-.737-.012-1.488.053-2.225a1.462,1.462,0,0,1,1.545-1.468,1.4,1.4,0,0,1,1.535,1.3c.728,5.449-2.4,9.826-7.579,9.7-4.843-.115-7.855-1.86-8.42-5.938a29.286,29.286,0,0,1,.461-12.153c1.1-3.823,3.947-5.242,7.775-4.083A16.561,16.561,0,0,1,504.369,507.1Z"/><path class="i" d="M434.435,506.551c-.017-3.656-.015-3.674,3.712-3.35a12.118,12.118,0,0,1,3.783.765,1.327,1.327,0,0,1,.763,2.1,4.8,4.8,0,0,1-3.073,2.783c-1.294.334-2.571.736-3.843,1.147-1.051.341-1.442,0-1.354-1.09C434.486,508.126,434.435,507.336,434.435,506.551Z"/><path class="i" d="M460.3,503.448q1.5,3.695,2.995,7.39c.183.449.049.687-.427.767-1.319.222-2.633.477-3.955.675-.86.129-.577-.478-.494-.892.529-2.621,1.071-5.239,1.608-7.858Z"/></g></svg>