<svg xmlns="http://www.w3.org/2000/svg" width="251.957" height="246.477" viewBox="0 0 251.957 246.477"><defs><style>.a,.b,.c,.i{fill:#9c8679;}.a,.b,.i{stroke:#362e29;}.a,.b,.f,.g,.h,.i{stroke-miterlimit:10;}.a{stroke-width:2.832px;}.b{stroke-width:2.734px;}.d,.k{fill:#362e29;}.e{fill:#ee4036;stroke-linejoin:round;}.f{fill:#e7e7e8;}.f,.h{stroke:#282829;stroke-width:3.867px;}.g{fill:none;stroke:#030000;stroke-linecap:round;stroke-width:5.414px;}.h{fill:#58585a;}.i{stroke-width:2.901px;}.j,.k{stroke:none;}</style></defs><g transform="translate(-4982.138 436.615)"><path class="a" d="M5147.221-102.7a83.091,83.091,0,0,0-.921,14.739c.395,6.317.425,10.266.425,10.266s-2.4,1.316-2.4,2.9h23.427s1.628-6.844-3.266-8.16,0-13.16,0-13.16Z" transform="translate(-56.249 -116.755)"/><path class="b" d="M5198.587-102.7s5.073,6.616,6.384,13.95a31.751,31.751,0,0,1,.088,11.055s2.234,1.316,2.234,2.9h-21.825s-2.956-7.37,1.6-8.686-.79-12.9-.79-12.9Z" transform="translate(-70.306 -116.755)"/><path class="a" d="M5142.518-145.478c-1.088,1.9-4.562,8.516-2.633,16.319,2.688,10.874,10.2,15.477,13.161,16.582,2.147.8,19.735,5.269,28.427-2.9,5.134-4.824,5.613-11.661,5.791-14.213.438-6.241-1.452-13.251-5.527-17.635C5174.039-155.6,5156.976-156.194,5142.518-145.478Z" transform="translate(-54.496 -98.982)"/><path class="c" d="M5019.449-336.585c.408-33.023,21.17-56.873,26.32-62.469,6.131-6.658,20.969-22.346,45.272-27.725a78.3,78.3,0,0,1,20.355-1.755l.7,22.811a44.862,44.862,0,0,1,14.739-20.354c15.027-11.512,32.249-8.957,35.446-8.423l-11.23,30.532a32.068,32.068,0,0,1,9.827-11.581,33,33,0,0,1,21.057-5.966l-2.807,21.408A173.592,173.592,0,0,1,5197.378-378c4.875,7.015,10.515,15.13,14.389,24.917,1.624,4.1,12.67,33.32-1.053,62.819-6.975,14.992-17.476,23.881-24.917,30.182-5.568,4.713-14.228,11.917-27.374,16.845-14.771,5.538-26.956,5.108-42.465,4.563-15.728-.554-28.58-1.006-44.219-7.37-9.313-3.79-25.811-10.5-36.5-27.023-5.206-8.048-7-15.285-10.528-29.479C5021.972-313.583,5019.3-324.352,5019.449-336.585Z" transform="translate(-12.583 -0.525)"/><g transform="translate(5005.751 -436.615)"><path class="d" d="M5128.009-237.972c-4.051,0-8.228-.147-12.674-.3-17.338-.611-34.673-2.2-50.616-9.578a78.046,78.046,0,0,1-28.521-22.524c-7.553-9.625-10.071-20.777-12.974-32.468-2.687-10.823-6.494-23.089-4.971-34.346-.473-.137-.539-.771-.508-1.263,2.36-37.022,26.455-71.79,61.283-85.263q1.61-.623,3.244-1.186c8.531-2.934,17.233-4.137,26.145-5.194a29.782,29.782,0,0,1,3.625.053s.036,6.017-.106,8.411c-.093,1.558-.7,5.964.644,7.179,2,1.809,9.48-10.382,11.531-12.1,10.173-8.492,24.608-11.575,37.729-9.382l1.093.183s-7.745,18.175-7.926,21.45a61.862,61.862,0,0,1,11.974-6.414,33.9,33.9,0,0,1,14.416-2.244l.986.059-2.877,21.946c6.579,6.784,13.72,13.11,19.108,20.865,4.957,7.132,9.5,16.257,13.414,26.146a83.165,83.165,0,0,1,.551,58.743c-5.542,15.491-18.09,29.354-31.119,39.088C5165.653-244.3,5147.737-237.972,5128.009-237.972ZM5107.3-428.214a77.086,77.086,0,0,0-16.659,1.81c-24.518,5.425-39.248,21.426-44.793,27.449-7.715,8.381-25.7,31.185-26.078,61.856-.15,12.111,2.466,22.647,5.235,33.8,3.2,12.868,6.149,24.835,15.07,35.022,19.205,21.929,47.574,27.182,75.312,28.159,15.379.542,27.517.968,42.114-4.5,17.082-6.4,33.06-19.512,43.942-34.042,15.877-21.2,18.553-50.139,8.868-74.6-3.836-9.69-9.389-17.681-14.289-24.731a173.209,173.209,0,0,0-18.152-21.993l-.312-.319,2.734-20.855a31.791,31.791,0,0,0-19.475,5.837,31.215,31.215,0,0,0-9.542,11.249l-1.687-.732,10.841-29.473c-5.708-.777-20.614-1.56-33.632,8.412a37.375,37.375,0,0,0-9,10.6c-.994,1.645-6.851,13.675-6.851,13.675s-.561-10.755-.61-12.355q-.217-7.111-.437-14.221Q5108.605-428.214,5107.3-428.214Z" transform="translate(-5017.739 436.615)"/></g><path class="a" d="M5023.014-229.514c-10.162-3.8-22.561-10.413-31.565-21.882-.88-1.082-1.709-2.214-2.489-3.371-2.993-4.5-7.043-10.689-4.905-16.5,2.239-6.086,9.96-8.2,13.331-9.13,10.538-2.892,19.819.981,23.516,2.817.1,2.113.176,4.225.277,6.338Q5022.083-250.376,5023.014-229.514Z" transform="translate(0 -54.26)"/><path class="a" d="M5336.026-286.8a104.337,104.337,0,0,1-8.778,10.764,84.127,84.127,0,0,1-25.629,19.292,123.17,123.17,0,0,0-1.761-35.086c-.754-3.873-1.659-7.495-2.616-10.865a126.1,126.1,0,0,0-4.752-13.356c12.8-8.551,27.893-9.532,37.9-2.465,1.483,1.056,8.954,6.565,10.186,15.795C5341.357-296.865,5339.32-291.735,5336.026-286.8Z" transform="translate(-108.056 -39.65)"/><g class="e" transform="translate(-4.297 -59.741)"><path class="j" d="M 5025.712890625 -226.2616119384766 C 5020.71337890625 -228.2726135253906 5016.07958984375 -230.6539459228516 5011.91064453125 -233.3557891845703 C 5006.28662109375 -237.0011444091797 5001.46923828125 -241.2607727050781 4997.576171875 -246.0285339355469 C 4999.7548828125 -249.4794158935547 5002.40771484375 -252.5481719970703 5005.4716796875 -255.1609344482422 C 5010.70849609375 -259.6300659179688 5016.95166015625 -262.5935974121094 5024.05126953125 -263.9837646484375 C 5024.3330078125 -257.5122375488281 5024.623046875 -250.9656372070313 5024.904296875 -244.6179351806641 C 5025.1708984375 -238.6003112792969 5025.4453125 -232.4004821777344 5025.712890625 -226.2616119384766 Z"/><path class="k" d="M 5024.111328125 -228.5561065673828 C 5023.87646484375 -233.9187469482422 5023.63818359375 -239.3046112060547 5023.40576171875 -244.5515594482422 C 5023.150390625 -250.3189697265625 5022.88720703125 -256.2508544921875 5022.63037109375 -262.141357421875 C 5016.49072265625 -260.6811218261719 5011.05908203125 -257.9573364257813 5006.44482421875 -254.0195465087891 C 5003.76806640625 -251.7370910644531 5001.41748046875 -249.0926208496094 4999.4375 -246.1385955810547 C 5003.1044921875 -241.8295440673828 5007.56640625 -237.9591979980469 5012.7265625 -234.6145172119141 C 5016.2080078125 -232.3582000732422 5020.0234375 -230.3285369873047 5024.111328125 -228.5561065673828 M 5027.3115234375 -224.0328826904297 C 5017.14990234375 -227.8308868408203 5004.7509765625 -234.445556640625 4995.74609375 -245.9143829345703 C 4997.75830078125 -249.2851257324219 5000.5751953125 -252.9569702148438 5004.49853515625 -256.3023376464844 C 5011.541015625 -262.3128051757813 5019.2880859375 -264.7776184082031 5025.4755859375 -265.7590026855469 C 5026.0791015625 -251.8500671386719 5026.70751953125 -237.9418029785156 5027.3115234375 -224.0328826904297 Z"/></g><g class="e" transform="translate(-110.611 -50.681)"><path class="j" d="M 5305.88916015625 -248.2828369140625 C 5306.67041015625 -259.3146667480469 5305.99853515625 -270.3395080566406 5303.8857421875 -281.0938110351563 C 5303.3095703125 -284.0527038574219 5302.61669921875 -287.02783203125 5301.77880859375 -290.1350402832031 C 5308.26416015625 -289.9053649902344 5314.53662109375 -288.5458679199219 5320.4501953125 -286.0851745605469 C 5326.42236328125 -283.6132507324219 5331.857421875 -280.0820007324219 5336.62548828125 -275.5787048339844 C 5334.4140625 -272.4590148925781 5331.71826171875 -269.4241333007813 5328.88037109375 -266.2296447753906 L 5328.68505859375 -266.009765625 C 5322.32177734375 -258.9020080566406 5314.66259765625 -252.9471435546875 5305.88916015625 -248.2828369140625 Z"/><path class="k" d="M 5303.7509765625 -288.5259704589844 C 5304.36865234375 -286.0969848632813 5304.89990234375 -283.7349243164063 5305.35791015625 -281.3829345703125 C 5307.3212890625 -271.3874816894531 5308.05517578125 -261.1614685058594 5307.5498046875 -250.9119567871094 C 5315.1826171875 -255.2799987792969 5321.89892578125 -260.6788330078125 5327.5654296875 -267.0077209472656 L 5327.7587890625 -267.2257080078125 C 5330.2412109375 -270.0200500488281 5332.61328125 -272.6906127929688 5334.6259765625 -275.3816528320313 C 5330.228515625 -279.3346862792969 5325.2783203125 -282.4633178710938 5319.87890625 -284.6981201171875 C 5319.87744140625 -284.6988525390625 5319.87548828125 -284.6995849609375 5319.8740234375 -284.7002868652344 C 5314.74462890625 -286.8345642089844 5309.33740234375 -288.1163330078125 5303.7509765625 -288.5259704589844 M 5299.7978515625 -291.6700134277344 C 5305.83447265625 -291.6700134277344 5313.22900390625 -290.7146301269531 5321.0263671875 -287.4700622558594 C 5328.62158203125 -284.3263244628906 5334.35595703125 -279.9494934082031 5338.58154296875 -275.7742919921875 C 5336.142578125 -272.1278076171875 5332.998046875 -268.6068420410156 5329.8037109375 -265.0104064941406 C 5325.0751953125 -259.7283020019531 5316.9013671875 -252.0067749023438 5304.17529296875 -245.7185974121094 C 5305.00439453125 -254.6979064941406 5305.15576171875 -266.8463439941406 5302.4140625 -280.8047180175781 C 5301.65966796875 -284.6781616210938 5300.75439453125 -288.2992858886719 5299.7978515625 -291.6700134277344 Z"/></g><path class="f" d="M5134.537-280.779a164.863,164.863,0,0,0-32.638,13.687c-15.043,8.309-22.565,12.464-25.531,20.794-4.834,13.576,4.81,30.193,15.267,38.954,11.754,9.849,24.965,10.132,43.429,10.528,24.146.518,45.511.977,60.012-14.739a48.3,48.3,0,0,0,12.108-38.692c-2.244-16.519-12.63-26.619-15.793-29.479a58.492,58.492,0,0,1-17.634,15,59.566,59.566,0,0,1-32.638,7.107,29.346,29.346,0,0,0,8.422-9.212,29.293,29.293,0,0,0,3.685-10.792,80.652,80.652,0,0,1-13.423,9.739,80.518,80.518,0,0,1-10.266,5Z" transform="translate(-32.038 -54.489)"/><path class="g" d="M5114.089-231.181a25.343,25.343,0,0,1,10.661-3.553,19.261,19.261,0,0,1,11.187,1.711,16.141,16.141,0,0,1,2.105,1.316" transform="translate(-45.677 -70.528)"/><path class="g" d="M5213.17-231.181a25.343,25.343,0,0,1,10.661-3.553,19.26,19.26,0,0,1,11.187,1.711,16.141,16.141,0,0,1,2.105,1.316" transform="translate(-80.321 -70.528)"/><path class="h" d="M5142.622-207.6c0-2.188,4.03-3.362,5.633-3.829a38.185,38.185,0,0,1,8.294-1.18q9.115-.578,18.253-.7c4.185-.057,8.37-.037,12.556-.083,2.269-.025,2.408.957,2.343,2.943a34.666,34.666,0,0,1-.7,5.89,32.945,32.945,0,0,1-6.947,14.669,15.515,15.515,0,0,1-11.134,5.718C5154.073-183.52,5142.638-200.068,5142.622-207.6Z" transform="translate(-55.653 -78.049)"/><path class="i" d="M5129.66-145.217s-5.392,2.27-5.392.165,14.74-16.056,15.53-19.214-14.74-11.055-17.636-8.685-13.16,21.32-10.528,29.479,12.324,7.74,17.852,3.792Z" transform="translate(-44.669 -92.039)"/><path class="a" d="M5206.5-146.671s4.517,2.106,4.517,0-14.053-16.056-14.806-19.214,14.053-11.055,16.813-8.686,12.547,21.32,10.038,29.479-10.579,7.772-15.849,3.823Z" transform="translate(-74.38 -91.473)"/><path class="d" d="M5046.242-226.3c-2.466-4.255-1.284-9.371-1.622-14.176-.348-4.946-.7-9.892-1.032-14.839-.7-10.579-3.186-21.436-1.294-31.921.37-2.047-.7-2.713-1.072-.654-2.022,11.2-1.57,22.514-.8,33.815.369,5.426.684,10.863,1.146,16.283.383,4.508,1.106,8.863,3.405,12.827C5046.02-223.154,5047.294-224.483,5046.242-226.3Z" transform="translate(-19.691 -51.566)"/><path class="d" d="M5288.778-319.693c-.743-1.5-1.5-.639-.755.858,10.565,21.328,12.936,46.039,9.461,69.591-.242,1.638,1.411,1.186,1.655-.466C5302.724-274.008,5299.682-297.679,5288.778-319.693Z" transform="translate(-106.387 -40.609)"/></g></svg>