<svg xmlns="http://www.w3.org/2000/svg" width="162.785" height="111.134" viewBox="0 0 162.785 111.134"><defs><style>.a{fill:#ee7082;}.b{fill:#ed5b6d;}.c{fill:#fff;font-size:17px;font-family:BPGArial, BPG Arial;}.d{font-family:BPGArial;}</style></defs><g transform="translate(-463.88 -525.491)"><path class="a" d="M463.88,603.474V547.33c.557-4.258,2.14-10.633,7.157-15.435a22.619,22.619,0,0,1,15.069-6.4H607.035a26.335,26.335,0,0,1,14.316,9.042,25.913,25.913,0,0,1,5.274,12.055V619.3a6.614,6.614,0,0,1-4.9,7.157H522.266l-10.543,10.172H493.636l-11.3-9.8H469.106a6.26,6.26,0,0,1-2.966-1.459,6.546,6.546,0,0,1-2.072-4.474Q463.975,612.184,463.88,603.474Z"/><path class="b" d="M589.813,541.071H573.607l-10.542,10.172H544.979q-5.65-4.9-11.3-9.8H520.448a6.638,6.638,0,0,1-1.119-.335,3.941,3.941,0,0,0-3.542,3.913V595.6a3.955,3.955,0,0,0,3.955,3.957h14.115l11.122,9.641h18.086l9.992-9.641h16.755a3.956,3.956,0,0,0,3.955-3.957V545.026A3.956,3.956,0,0,0,589.813,541.071Z" transform="translate(18.164 5.452)"/><text class="c" transform="translate(501.007 582.778)"><tspan x="-23.159" y="0">define</tspan></text><text class="c" transform="translate(571.543 582.778)"><tspan x="-30.954" y="0">SpinLeft</tspan><tspan class="d"><tspan x="0" y="20"></tspan></tspan></text></g></svg>