<svg xmlns="http://www.w3.org/2000/svg" width="262.702" height="61.532" viewBox="0 0 262.702 61.532"><defs><style>.a{fill:#8f6ef6;}.b,.c,.d{fill:#fff;}.b,.e{font-size:16px;}.b,.c,.e{font-family:BPGArial, BPG Arial;}.c{font-size:15px;}</style></defs><g transform="translate(-624.558 -692.246)"><path class="a" d="M883.688,692.246H676.781l-9.522,9.186H650.924l-10.2-8.846H628.768a6.185,6.185,0,0,1-1.011-.3,3.561,3.561,0,0,0-3.2,3.536V741.5a3.573,3.573,0,0,0,3.572,3.572h12.75l10.044,8.709h16.335l9.026-8.709h207.4a3.573,3.573,0,0,0,3.572-3.572V695.818A3.572,3.572,0,0,0,883.688,692.246Z"/><text class="b" transform="translate(650.395 724.577)"><tspan x="-12.449" y="0">say</tspan></text><text class="b" transform="translate(739.405 724.577)"><tspan x="-9.398" y="0">for</tspan></text><text class="c" transform="translate(839.356 723.045)"><tspan x="-27.993" y="0">seconds</tspan></text><rect class="d" width="52.114" height="36.747" rx="15.07" transform="translate(670.436 699.731)"/><rect class="d" width="43.892" height="36.747" rx="15.07" transform="translate(758.702 699.731)"/><text class="e" transform="translate(697.745 723.045)"><tspan x="-19.188" y="0">hello!</tspan></text><text class="e" transform="translate(781.588 723.045)"><tspan x="-4.449" y="0">2</tspan></text></g></svg>