<svg xmlns="http://www.w3.org/2000/svg" width="210.065" height="94.859" viewBox="0 0 210.065 94.859"><defs><style>.a{fill:#f5ad43;}.b{fill:#fff;font-size:19px;font-family:BPGArial, BPG Arial;}.c{font-family:BPGArial;}.d{fill:#6dbb63;}.e{fill:#74b159;}</style></defs><g transform="translate(-75.135 -664.537)"><path class="a" d="M280.864,684.7h-80.85a112.059,112.059,0,0,0-64.5-20.162c-30.21.26-51.149,16.544-59.627,22.173-.038.028-.071.064-.129.105a4.256,4.256,0,0,0-.625,2.22v55.448a4.337,4.337,0,0,0,4.338,4.336H94.948L107.14,759.4h19.831l10.955-10.572H280.864a4.337,4.337,0,0,0,4.336-4.336V689.04A4.336,4.336,0,0,0,280.864,684.7Z" transform="translate(0 0)"/><text class="b" transform="translate(113.977 718.749)"><tspan x="-22.711" y="0">when</tspan><tspan class="c"><tspan x="0" y="23"></tspan></tspan></text><text class="b" transform="translate(240.65 720.401)"><tspan x="-29.038" y="0">clicked</tspan></text><path class="d" d="M136.1,691.265a13.5,13.5,0,0,1,6.04-1.548,10.4,10.4,0,0,1,4.647.774c2.467,1.1,2.458,2.479,4.8,3.253a8.054,8.054,0,0,0,4.182.154,9.276,9.276,0,0,0,4.8-2.633q.155,7.512.309,15.023a9.144,9.144,0,0,1-6.04,2.788c-2.488.031-5.112-1.3-7.076-2.745-2.547-1.871-5.367-2.76-8.412-1.282a7.681,7.681,0,0,0-3.1,2.788Q136.173,699.553,136.1,691.265Z" transform="translate(29.261 12.084)"/><rect class="e" width="1.549" height="29.119" transform="translate(164.22 700.432)"/></g></svg>