<svg xmlns="http://www.w3.org/2000/svg" width="307.569" height="360" viewBox="0 0 307.569 360"><defs><style>.a{fill:#7fd1d8;}.b{fill:#5b5b5b;}.c{fill:#111;}.d{fill:#f2cc83;}.e{fill:#d6a85f;}.f{fill:#ebb150;}.g{fill:#db9c42;}.h{fill:#c69032;}.i{fill:#f4be67;}.j{fill:#b77c27;}</style></defs><g transform="translate(-246 -394.238)"><path class="a" d="M1154.212,374.177a28.445,28.445,0,0,1-14.849-15.359l-.024-.12-3,.6,10.988,53.959a13.616,13.616,0,0,0-10.286-1.941c-6.991,1.391-11.657,7.545-10.423,13.746s7.876,9.98,14.866,8.589c6.93-1.378,11.645-7.071,10.427-13.7l.192-.038.019.1,0-.017,0-.022-10.292-50.332c2.16,2.407,5.627,5.072,11.659,8.18,11.938,6.154,6.187,16.166,6.187,16.166C1165.54,389.308,1165.2,379.109,1154.212,374.177Z" transform="translate(-655.493 66.49)"/><path class="a" d="M1207.9,339.8a14.62,14.62,0,0,1-.261-10.979l.033-.053-1.342-.819-14.647,24.225a7,7,0,0,0-3.212-4.318c-3.127-1.91-7.035-1.209-8.729,1.564s-.5,6.517,2.627,8.427c3.1,1.893,6.865,1.384,8.715-1.547l.086.052-.026.043.005-.008.006-.01,13.646-22.611a20.485,20.485,0,0,0,1.556,7.154c2.37,6.486-3.293,8.266-3.293,8.266C1206.907,349.47,1210.331,345.5,1207.9,339.8Z" transform="translate(-655.144 66.286)"/><path class="a" d="M1180.273,482.789c-4.544-9.175-1.257-16.651-1.229-16.7l.047-.078-2.442-1.48-21.493,35.888a12.322,12.322,0,0,0-5.518-6.817c-5.182-3.138-11.4-2.352-13.888,1.757s-.257,9.9,4.926,13.04c5.135,3.112,11.139,2.607,13.867-1.729l-.057-.034-.038.063.007-.011.008-.015,14.177-23.544c.119,2.526.974,5.944,3.146,10.973,4.348,10.061-4.54,12.4-4.54,12.4,5.193.591,9.72-3.36,8.463-9.872C1180.673,495.751,1184.051,490.421,1180.273,482.789Zm-5.994,9.785A21.264,21.264,0,0,1,1172.9,476.1l1.707-2.843c.1,2.534.937,5.961,3.134,11.045,2.849,6.594.01,9.87-2.284,11.345A16.957,16.957,0,0,0,1174.279,492.574Z" transform="translate(-655.438 67.193)"/><g transform="translate(246 475.871)"><g transform="translate(0 35.606)"><path class="b" d="M916.827,453.6l-8.352,3.252s-12.262,7.98-14.685,14.109c0,0,7.461,1.243,18.292-3.634l.606,1.555,9.252-3.6Z" transform="translate(-893.79 -453.604)"/><path class="c" d="M912.082,467.29l.606,1.555,9.252-3.6-2.361-5.393,0,0s-6.421,1.243-10.363,4.036-15.424,7.041-15.424,7.041S901.251,472.167,912.082,467.29Z" transform="translate(-893.79 -453.563)"/></g><g transform="translate(23.037 30.856)"><path class="d" d="M935.443,449.533l-2.538.988-4.031-1.636-1.349,3.071-4.013,1.562-3.809-1.063-3.027,1.179,5.113,11.681,2.948-1.148,1.631-3.558,3.862-1.221,3.1,1.431,2.126-4.222,2.375-.925Z" transform="translate(-916.675 -448.886)"/><path class="e" d="M935.441,456.574l2.375-.925-1.164-2.989c-6.034,3.713-17.241,7.237-17.243,7.238l2.361,5.393,2.948-1.148,1.632-3.557,3.861-1.221,3.1,1.431Z" transform="translate(-916.657 -448.86)"/></g><g transform="translate(41.805)"><path class="f" d="M1081.088,523.349s-10.349,27.664,1.238,54.835,37.108,81.1,36.6,88.838-9.458,6.7-15.335-7.1-44.008-97.521-48.6-109.31-51.511-114.213-55.2-119.816c0,0-7.208-12.217-18.465-12.549s-18.366,6.586-27.708,17.955-18.3,13.537-18.3,13.537l2.167,5.568s10.453-4.636,18.03-12.3,16.306-16.721,25.578-13.732,35.609,74.012,38.679,80.926,29.394,75.49,33.774,85.289,26.906,69.1,31.3,77.953,16.891,29.819,40.827,21.066,21.969-32.693,18.716-41.044-23.7-59.414-25.124-71.306.078-29.826,14.124-34.918C1133.387,547.238,1112.464,517.232,1081.088,523.349Z" transform="translate(-935.319 -418.233)"/><path class="g" d="M989.147,420.631c9.51,13.579,54.239,123.025,64.683,145.348s35.2,81.35,44.592,97.952,17.417,7.68,17.417,7.68l0-.009c-3.221,1.14-8.617-2.336-12.6-11.7-5.878-13.8-44.008-97.521-48.6-109.31s-51.511-114.212-55.2-119.815A31.559,31.559,0,0,0,989.147,420.631Z" transform="translate(-934.961 -418.217)"/><path class="g" d="M1107.077,591.875c11.922,30.56,43.689,88.43,10.838,103.7a34.914,34.914,0,0,0,6.793-1.759c23.937-8.755,21.969-32.693,18.716-41.044s-23.7-59.414-25.124-71.306.078-29.826,14.124-34.918c0,0-20.923-30.006-52.3-23.89,0,0,23.886,14.115,27.042,21.293S1095.154,561.307,1107.077,591.875Z" transform="translate(-934.357 -417.544)"/><path class="g" d="M981.086,429.239c2.9.935,7.48,8.539,12.488,18.757-.012-.05-5.514-19.262-13.473-23.724s-19.97,7.972-25.186,14.592-18.377,13.991-18.377,13.991l.94,2.416s10.453-4.636,18.03-12.3S971.814,426.249,981.086,429.239Z" transform="translate(-935.311 -418.199)"/><g transform="translate(68.995 27.638)"><path class="h" d="M1012.229,448.661a4.322,4.322,0,1,1-5.677-2.693A4.446,4.446,0,0,1,1012.229,448.661Z" transform="translate(-1003.859 -445.688)"/><path class="h" d="M1018.692,463.941a4.322,4.322,0,1,1-5.679-2.692A4.448,4.448,0,0,1,1018.692,463.941Z" transform="translate(-1003.816 -445.586)"/><g transform="translate(10.989 52.368)"><g transform="translate(81.132 95.356)"><path class="h" d="M1116.649,599.456a11.013,11.013,0,1,1-14.258-6.264A11.012,11.012,0,0,1,1116.649,599.456Z" transform="translate(-1095.372 -592.438)"/><path class="i" d="M1116.069,600.55a10.549,10.549,0,1,1-13.523-5.672A10.371,10.371,0,0,1,1116.069,600.55Z" transform="translate(-1095.369 -592.427)"/><g transform="translate(10.781 27.688)"><path class="h" d="M1127.36,626.962A11.013,11.013,0,1,1,1113.1,620.7,11.015,11.015,0,0,1,1127.36,626.962Z" transform="translate(-1106.081 -619.944)"/><path class="i" d="M1126.78,628.058a10.549,10.549,0,1,1-13.523-5.672A10.371,10.371,0,0,1,1126.78,628.058Z" transform="translate(-1106.079 -619.932)"/></g><g transform="translate(26.132 57.016)"><path class="h" d="M1137.855,654.528a8.552,8.552,0,1,1-11.072-4.865A8.551,8.551,0,0,1,1137.855,654.528Z" transform="translate(-1121.331 -649.077)"/><path class="i" d="M1137.407,655.379a8.194,8.194,0,1,1-10.5-4.406A8.056,8.056,0,0,1,1137.407,655.379Z" transform="translate(-1121.329 -649.069)"/></g></g><g transform="translate(0 14.657)"><g transform="translate(13.888 30.423)"><path class="j" d="M1031.78,542.541l4.763,1.434a8.466,8.466,0,0,1,2.351,6.038l-2.423,4.575Z" transform="translate(-1028.55 -542.493)"/><path class="h" d="M1030.746,549.888c1.349,3.467,3.63,5.814,5.095,5.245s1.555-3.842.205-7.308-3.631-5.815-5.094-5.246S1029.4,546.421,1030.746,549.888Z" transform="translate(-1028.564 -542.493)"/><path class="i" d="M1029.527,550.363c1.35,3.466,3.629,5.814,5.094,5.245s1.555-3.842.205-7.308-3.631-5.815-5.093-5.246S1028.177,546.895,1029.527,550.363Z" transform="translate(-1028.572 -542.49)"/></g><path class="j" d="M1017.982,512.321l4.765,1.432a8.47,8.47,0,0,1,2.35,6.038l-2.425,4.575Z" transform="translate(-1014.754 -512.271)"/><path class="h" d="M1016.948,519.666c1.349,3.466,3.632,5.814,5.094,5.245s1.555-3.843.206-7.308-3.632-5.815-5.095-5.246S1015.6,516.2,1016.948,519.666Z" transform="translate(-1014.767 -512.271)"/><path class="i" d="M1015.73,520.14c1.35,3.466,3.63,5.815,5.093,5.246s1.555-3.843.206-7.308-3.632-5.815-5.094-5.246S1014.381,516.674,1015.73,520.14Z" transform="translate(-1014.775 -512.268)"/></g><g transform="translate(65.458 175.063)"><path class="j" d="M1083.638,671.678l5.695,1.712a10.12,10.12,0,0,1,2.811,7.22l-2.9,5.47Z" transform="translate(-1079.776 -671.619)"/><path class="h" d="M1082.4,680.459c1.613,4.143,4.341,6.954,6.091,6.272s1.858-4.6.245-8.74-4.341-6.952-6.089-6.271S1080.788,676.316,1082.4,680.459Z" transform="translate(-1079.792 -671.619)"/><path class="i" d="M1080.944,681.027c1.614,4.143,4.34,6.954,6.09,6.272s1.858-4.6.246-8.74-4.342-6.952-6.09-6.271S1079.33,676.883,1080.944,681.027Z" transform="translate(-1079.801 -671.615)"/></g><g transform="translate(15.782)"><g transform="translate(22.125 48.688)"><path class="j" d="M1055.485,547.392l-3.037,5.113a10.126,10.126,0,0,0,2.81,7.22l5.836,2.071Z" transform="translate(-1052.432 -546.069)"/><path class="h" d="M1062.33,553.02c1.613,4.142,1.5,8.057-.247,8.739s-4.478-2.129-6.09-6.271-1.5-8.058.246-8.739S1060.717,548.875,1062.33,553.02Z" transform="translate(-1052.416 -546.074)"/><path class="i" d="M1063.788,552.452c1.612,4.142,1.5,8.057-.245,8.738s-4.478-2.128-6.09-6.27-1.5-8.058.246-8.74S1062.174,548.308,1063.788,552.452Z" transform="translate(-1052.406 -546.078)"/></g><g transform="translate(14.359 33.086)"><path class="j" d="M1047.77,531.892,1044.733,537a10.131,10.131,0,0,0,2.812,7.22l5.834,2.071Z" transform="translate(-1044.717 -530.57)"/><path class="h" d="M1054.617,537.519c1.614,4.143,1.5,8.058-.248,8.74s-4.476-2.129-6.09-6.272-1.5-8.057.246-8.738S1053,533.373,1054.617,537.519Z" transform="translate(-1044.701 -530.575)"/><path class="i" d="M1056.074,536.952c1.613,4.142,1.505,8.057-.246,8.739s-4.478-2.129-6.09-6.272-1.5-8.057.246-8.738S1054.46,532.806,1056.074,536.952Z" transform="translate(-1044.691 -530.579)"/></g><g transform="translate(7.808 16.96)"><path class="j" d="M1041.264,515.873l-3.038,5.112a10.131,10.131,0,0,0,2.812,7.22l5.834,2.071Z" transform="translate(-1038.21 -514.55)"/><path class="h" d="M1048.109,521.5c1.614,4.143,1.5,8.057-.247,8.739s-4.478-2.127-6.09-6.27-1.5-8.058.246-8.739S1046.5,517.355,1048.109,521.5Z" transform="translate(-1038.194 -514.555)"/><path class="i" d="M1049.567,520.932c1.613,4.143,1.5,8.055-.247,8.738s-4.476-2.128-6.089-6.271-1.5-8.056.245-8.738S1047.953,516.787,1049.567,520.932Z" transform="translate(-1038.184 -514.559)"/></g><path class="j" d="M1033.508,499.025l-3.039,5.113a10.143,10.143,0,0,0,2.812,7.22l5.835,2.07Z" transform="translate(-1030.453 -497.702)"/><path class="h" d="M1040.353,504.652c1.613,4.143,1.5,8.057-.248,8.739s-4.476-2.127-6.089-6.271-1.5-8.057.245-8.738S1038.739,500.507,1040.353,504.652Z" transform="translate(-1030.437 -497.707)"/><path class="i" d="M1041.81,504.084c1.614,4.144,1.5,8.057-.246,8.739s-4.476-2.127-6.09-6.271-1.5-8.057.245-8.739S1040.2,499.94,1041.81,504.084Z" transform="translate(-1030.427 -497.711)"/><g transform="translate(34.318 78.17)"><g transform="translate(9.011 20.629)"><path class="j" d="M1076.61,597.268l-3.105,5.713s-.33,3.993,3.22,8.269l6.31,2.519Z" transform="translate(-1073.497 -595.848)"/><path class="h" d="M1084.106,603.849c1.849,4.749,1.842,9.184-.011,9.905s-4.856-2.542-6.7-7.29-1.845-9.183.009-9.9S1082.257,599.1,1084.106,603.849Z" transform="translate(-1073.48 -595.854)"/><path class="i" d="M1085.649,603.248c1.849,4.748,1.843,9.183-.011,9.9s-4.854-2.542-6.7-7.29-1.845-9.183.008-9.9S1083.8,598.5,1085.649,603.248Z" transform="translate(-1073.47 -595.858)"/></g><g transform="translate(17.938 41.508)"><path class="j" d="M1085.478,618.009l-3.1,5.712s-.33,3.994,3.22,8.27l6.31,2.518Z" transform="translate(-1082.365 -616.589)"/><path class="h" d="M1092.972,624.59c1.849,4.748,1.843,9.183-.01,9.9s-4.856-2.542-6.705-7.29-1.844-9.183.01-9.9S1091.124,619.842,1092.972,624.59Z" transform="translate(-1082.348 -616.595)"/><path class="i" d="M1094.517,623.988c1.849,4.749,1.843,9.182-.011,9.905s-4.854-2.543-6.7-7.291-1.844-9.183.008-9.9S1092.669,619.241,1094.517,623.988Z" transform="translate(-1082.338 -616.599)"/></g><path class="j" d="M1067.658,576.775l-3.105,5.713s-.33,3.993,3.22,8.269l6.31,2.519Z" transform="translate(-1064.545 -575.355)"/><path class="h" d="M1075.153,583.356c1.849,4.748,1.843,9.183-.01,9.9s-4.856-2.541-6.705-7.289-1.844-9.183.01-9.9S1073.3,578.608,1075.153,583.356Z" transform="translate(-1064.528 -575.361)"/><path class="i" d="M1076.7,582.755c1.849,4.748,1.843,9.182-.011,9.9s-4.854-2.542-6.7-7.29-1.844-9.182.008-9.9S1074.849,578.007,1076.7,582.755Z" transform="translate(-1064.518 -575.365)"/><g transform="translate(26.735 62.014)"><path class="j" d="M1094.217,638.38l-3.1,5.712s-.33,3.994,3.219,8.27l6.31,2.518Z" transform="translate(-1091.104 -636.96)"/><path class="h" d="M1101.711,644.961c1.849,4.748,1.843,9.183-.011,9.9s-4.855-2.542-6.7-7.29-1.844-9.183.01-9.9S1099.863,640.213,1101.711,644.961Z" transform="translate(-1091.087 -636.966)"/><path class="i" d="M1103.255,644.359c1.849,4.749,1.844,9.183-.01,9.905s-4.854-2.543-6.7-7.291-1.844-9.183.008-9.9S1101.407,639.612,1103.255,644.359Z" transform="translate(-1091.077 -636.97)"/></g></g></g></g></g></g></g></g></svg>