<svg xmlns="http://www.w3.org/2000/svg" width="332.378" height="423.989" viewBox="0 0 332.378 423.989"><defs><style>.a{fill:#f2da8e;}.b{fill:#fcb95d;}.b,.c,.d,.h,.i,.k,.l,.m,.n,.o,.w,.x{fill-rule:evenodd;}.c{fill:#a1dd6f;}.d,.g{opacity:0.15;}.e{opacity:0.5;}.f{fill:#243330;}.h,.j{fill:#d1d3d4;}.i{fill:#36a5ad;}.k{fill:#c98121;}.l{fill:#f7805c;}.ab,.m,.v{fill:#7fd1d8;}.n,.y,.z{fill:none;stroke-miterlimit:10;}.n{stroke:#3e6569;stroke-width:8.397px;}.o,.t{opacity:0.2;}.p{fill:#4a5e3a;}.q{fill:#6dcecd;}.r{fill:#fff;}.s{fill:#454c53;}.u{fill:#bcbec0;}.w{fill:#243e41;}.x{fill:#171f1c;}.y{stroke:#7fd1d8;stroke-width:3px;}.aa,.ab{stroke:none;}</style></defs><g transform="translate(-844.448 -251.965)"><path class="a" d="M878.178,432.146c15.337-16.778,3.755-95.359,18.624-111.74,39.129-43.111,128.005-25.458,171.991-3.286,20.937,10.554,57.476,25.729,73.4,64.634,7.752,18.943-4.22,33.44,5.477,60.252,7.657,21.172,17.254,24.11,24.1,40.533,14.956,35.876-7.712,77.327-10.956,83.257-35.613,65.123-138.723,81.224-211.429,61.347-25.8-7.054-59.7-16.321-77.779-46.01C854.5,553.031,816.916,499.163,878.178,432.146Z" transform="translate(0 -4.796)"/><g transform="translate(1075.64 371.866)"><g transform="translate(0)"><path class="b" d="M1152.323,486.954c.172.906-.576,12.145,1.69,16.5s6.16,10.535,6.807,13.123c.761,3.044,2.455,2.835,1.938-.906a39.414,39.414,0,0,0-2.006-7.979c-.254-.418,1.077,2.513,2.252,5.876,1.249,3.576,2.377,7.6,3.187,7.291,1.57-.6-1.315-11.362-2.148-13.047a36.733,36.733,0,0,1,2.128,4.485c.826,2.113,1.411,4.768,2.19,4.858,1.227.14.441-6.043-1.477-10.328.117-.173,1.213.9,3.064,6.207.186.533,1.231,1.519,1.115-.549-.243-4.352.026-6.313-2.874-10.959-2.829-4.531-7.272-8.6-8.7-12.956Z" transform="translate(-1114.945 -401.297)"/><path class="b" d="M1139.969,395.826c5.221,18.89,13.173,65.76,13.733,76.4a21.483,21.483,0,0,0-7.147,5.743c-.05-.256-.1-.509-.146-.755-3.295-8.715-20.484-45.07-23.407-60.139,2.409-5.122-9.384,1.155-8.755.643.957-.782,1.931-10.52-4.773-13.25C1117.321,396.273,1135.354,379.089,1139.969,395.826Z" transform="translate(-1109.475 -388.761)"/><path class="b" d="M1153.157,502.987s-2.358,6.47-.516,10.812c1.1,2.58.31,3.015.351,3.549.138,1.774,2.416-1.513,1.9-3.974-.421-2,2.493-5.168,2.593-6.6s-.463-5.155-1.429-5.546S1153.157,502.987,1153.157,502.987Z" transform="translate(-1114.896 -403.113)"/></g><path class="b" d="M1159.336,487.618l-.386-8.118-7.817,7.65s.7.256,1.087,5.449,5.182.354,5.182.354Z" transform="translate(-1114.793 -400.345)"/></g><g transform="translate(955.215 489.017)"><path class="b" d="M1017.11,693.146s2.873,12.867,4.9,16.882-8.4,4.233-8.823,4.46-9.116-3.8-9.116-3.8,4.833-2.3.768-18.14S1017.11,693.146,1017.11,693.146Z" transform="translate(-975.593 -543.816)"/><path class="c" d="M1027.392,535.966c-.314,5.088-3.472,12.091-4.706,23.486a91.777,91.777,0,0,0,.075,19.564c2.163,20.639-4.082,27.852-4.588,34.5a9.98,9.98,0,0,0,.23,3.113c4.4,18.434.9,56.389.9,56.389s-1.889.449-4.6.947c-6.468,1.187-17.629,2.628-19.128-1.164-2.135-5.383-9.292-18.668-10.451-26.412s.154-21.837.753-25.3-.93-18.545-3.509-23.435c-2.941-5.585-2.851-18.159-1.751-30.6,1.277-14.415,3.922-28.65,4.807-31.613,0,0,21.8-13.489,27.077-12.312S1027.856,528.456,1027.392,535.966Z" transform="translate(-972.509 -523.058)"/><path class="d" d="M1027.5,535.966c-.314,5.088-3.472,12.091-4.706,23.486-5.863.118-13.8-2.06-21.626-3.587-6.555-1.274-14.817,5.607-20.444,11.191,1.277-14.415,3.922-28.65,4.807-31.613,0,0,21.8-13.489,27.077-12.312S1027.959,528.456,1027.5,535.966Z" transform="translate(-972.612 -523.058)"/><g class="e" transform="translate(9.664 48.177)"><g transform="translate(3.675)"><path class="f" d="M1003.079,580.292l-.4.648-3.864,6.2-6.469,10.376q.4.436.77.908.238.3.466.618l5.382-10.024,4.568-8.551Z" transform="translate(-987.435 -578.542)"/><path class="f" d="M1000.772,579.3l-1.461,2.343-3.085,4.948-5.784,9.274a12,12,0,0,1,1.179,1.028c1.123-2.091,2.916-5.432,4.725-8.8l4.092-7.659.55-1.037Z" transform="translate(-987.193 -578.416)"/><path class="f" d="M989.578,595.269c1.686-3.137,8.314-15.467,9.068-16.976l-.017-.008-9.765,15.654.156.994C989.209,595.04,989.4,595.151,989.578,595.269Z" transform="translate(-986.991 -578.286)"/><path class="f" d="M995.927,579c-.143.376-7.608,14.248-7.608,14.248l-.261-1.64Z" transform="translate(-986.888 -578.377)"/><path class="f" d="M993.5,579.611c-.114.3-6.075,11.378-6.075,11.378l-.21-1.308Z" transform="translate(-986.781 -578.455)"/><path class="f" d="M991.739,579.845c-.091.24-4.853,9.09-4.853,9.09l-.169-1.045Z" transform="translate(-986.717 -578.485)"/></g><g transform="translate(0 2.238)"><path class="f" d="M998.136,596.312,983.9,584.262q-.683.61-1.391,1.192c4.082,3.1,10.082,7.643,15.268,11.563Q997.954,596.664,998.136,596.312Z" transform="translate(-982.504 -581.287)"/><path class="f" d="M999.463,594.074,985.786,582.5q-.539.551-1.1,1.073c3.427,2.6,9.6,7.282,14.522,11Q999.334,594.323,999.463,594.074Z" transform="translate(-982.782 -581.062)"/><path class="f" d="M1000.7,591.973l-12.579-10.645-1.063-.1c-.154.175-.309.347-.466.517,2.363,1.793,9.212,6.988,13.941,10.557C1000.589,592.193,1000.645,592.083,1000.7,591.973Z" transform="translate(-983.026 -580.9)"/><path class="f" d="M1001.913,590.209l-10.606-8.974-1.9-.176s7.8,5.921,12.391,9.384C1001.84,590.364,1001.876,590.286,1001.913,590.209Z" transform="translate(-983.386 -580.878)"/><path class="f" d="M1003.045,588.59l-8.979-7.6-1.516-.14s6.856,5.2,10.426,7.892Z" transform="translate(-983.787 -580.852)"/><path class="f" d="M1004.078,587.423l-7.532-6.373-1.213-.113s5.95,4.518,8.681,6.57C1004.035,587.479,1004.056,587.451,1004.078,587.423Z" transform="translate(-984.142 -580.863)"/></g></g><path class="g" d="M1022.841,629.872c4.4,18.434.9,56.389.9,56.389s-1.89.449-4.6.947c-.019-.394-4.667.339-4.462-.062,8.481-16.6,6.01-43.955,6.46-51.131.1-1.652.217-6.652,1.473-9.257A9.978,9.978,0,0,0,1022.841,629.872Z" transform="translate(-976.947 -536.297)"/><g transform="translate(0 165.48)"><path class="h" d="M974.95,734.211c4.891-.076,14.484-2.26,21.483-3.711h.006c.222-.051.428-.093.641-.136,3.651-.748,6.5-1.267,7.417-1.117.1.019.223.03.369.043.361.032.86.055,1.465.057,5.448.031,19.32-1.206,18.87-5.363a10.225,10.225,0,0,0-.58-2.335c-.058-.164-.118-.328-.188-.49-.007-.01-.008-.016-.015-.026-.085-.217-.175-.44-.277-.66-.007-.005-.007-.005-.008-.01-1.854-4.084-5.472-8.151-6.067-7.665-7.956,6.508-17.42,1.636-19.392.5-.246-.142-.373-.226-.373-.226s-.329.072-.95.229c-.338.091-.768.207-1.277.346-.276.076-.574.161-.9.256-.111.034-.222.062-.331.1q-.4.111-.844.247c-.143.044-.285.089-.439.14h-.006c-.808.254-1.707.55-2.7.893-.618.214-1.263.442-1.944.693-1.026.372-2.125.8-3.287,1.258-.108.051-.22.107-.327.164-.574.276-1.134.572-1.682.873a37.345,37.345,0,0,0-5.157,3.407l-.005.007C970.983,727.584,968.917,734.309,974.95,734.211Z" transform="translate(-971.426 -712.756)"/><path class="i" d="M979.483,721.683a11.6,11.6,0,0,1,9.474,7.126s3.656-1.255,7.822-2.518c.359-.106.728-.213,1.1-.319.667-.2,1.345-.4,2.019-.584.58-.161,1.156-.317,1.715-.464,3.112-.811,5.829-1.344,6.781-1.056,2.579.776,17.964,1.379,17.257-2.221a1.8,1.8,0,0,0-.188-.49c-.007-.01-.008-.016-.015-.026a4.3,4.3,0,0,1-.277-.66c-.007-.005-.007-.005-.008-.01-1.854-4.084-5.472-8.151-6.067-7.665-7.956,6.508-17.42,1.636-19.392.5-.246-.142-.373-.226-.373-.226s-.329.072-.95.229c-.338.091-.768.207-1.277.346-.276.076-.574.161-.9.256-.111.034-.222.062-.331.1q-.4.111-.844.247c-.143.044-.285.089-.439.14h-.006c-.808.254-1.707.55-2.7.893-.618.214-1.263.442-1.944.693-1.026.372-2.125.8-3.287,1.258-.108.051-.22.107-.327.164-.574.276-1.134.572-1.682.873a37.345,37.345,0,0,0-5.157,3.407Z" transform="translate(-972.454 -712.756)"/><g transform="translate(22.574 0.887)"><path class="j" d="M997.3,714.376c.187.127.45.312.775.557a16.969,16.969,0,0,1,3.151,2.987,7.934,7.934,0,0,1,.811,1.225c.088.165.166.338.237.511l1.578-.645a8.7,8.7,0,0,0-1.174-2v-.006a12.838,12.838,0,0,0-.983-1.147,19.01,19.01,0,0,0-2.32-2.087c-.276.076-.574.161-.9.256-.111.034-.222.062-.331.1Q997.749,714.24,997.3,714.376Z" transform="translate(-997.303 -713.772)"/></g><g transform="translate(17.487 2.525)"><path class="j" d="M991.472,716.344c1.072.743,3.856,2.847,4.794,5.157l1.583-.646a14.259,14.259,0,0,0-4.433-5.205C992.8,715.864,992.153,716.092,991.472,716.344Z" transform="translate(-991.472 -715.65)"/></g><g transform="translate(12.191 4.64)"><path class="j" d="M985.4,718.948c1.261.927,3.521,2.8,4.35,4.838l1.577-.645a13.934,13.934,0,0,0-4.246-5.066C986.509,718.351,985.949,718.647,985.4,718.948Z" transform="translate(-985.401 -718.075)"/></g></g></g><path class="k" d="M1012.216,316.172s22.908-.327,24.872-9.163,2.291-13.656,0-18.773,13.089,5.682,13.089,5.682-1.636,6.872,0,12.109,5.236,5.341,10.8,4.8,0,17.128,0,17.128-19.928,2.161-21.418,2.88-22.106.263-23.088,0S1012.216,316.172,1012.216,316.172Z" transform="translate(-21.419 -3.886)"/><path class="l" d="M1004.3,476.5c.931.071,5.369-1.8,12.467,2.7s14.354,11.54,19.725,10.458,1.773-7.2-1.334-8.548c-2.8-1.21-8.078-2.784-6.934-4.792s3.635-1.78,6.145.008,4.513.065,3.652-.937-7.085-4.574-8.587-4.875c-1.11-.222-6.158,1.3-8.81.658s-13.186-4.136-13.186-4.136Z" transform="translate(-20.408 -26.889)"/><path class="m" d="M1109.911,440.633l-.563-.775A8.194,8.194,0,0,1,1109.911,440.633Z" transform="translate(-33.819 -23.418)"/><path class="m" d="M1143.046,409.7c-3.648,3.739-29.612,10.324-35.542,11.678-32.437,7.4-34.673-20.932-34.673-20.932l3.8,19.122,4.234,24.618,19.115,60.4a53,53,0,0,1-12.389,8.109c-.887.433-1.827.859-2.8,1.269a56.51,56.51,0,0,1-20.481,4.518c-2.561,0-29.507.325-54.979.638a.016.016,0,0,1-.023,0c-.221.006-.438.006-.654.011-23.628.29-45.783.575-45.783.575l4.081-36.17,2.2-19.531,1.508-13.334,4.741-42.038.352-3.107-3.989,17.208L913.063,405.78s3.221-14.277,21.727-70.668c6.846-20.868,34.236-37.673,70.333-26.047a93.6,93.6,0,0,1,10.312,4.007c1.775.808,8.565,15.262,19.548,10.175.233-.108.466-.216.693-.336,10.027-4.837,12.321-10.351,13.965-12.617,0-.011.006-.011.011-.017.058-.069.108-.137.16-.2,1.155-1.457,3.966-3,7.813-4.308,6.932-2.362,17.244-4.092,26.138-3.057a25.7,25.7,0,0,1,11.837,3.966c8.855,6.221,17.061,17.226,22.075,32.261.307.916.6,1.843.882,2.788.142.439.284.883.432,1.321,1.269,3.921,2.555,7.927,3.836,11.974,1.309,4.131,2.606,8.292,3.881,12.417C1129.21,375.551,1140.924,402.4,1143.046,409.7Z" transform="translate(-8.76 -5.87)"/><path class="n" d="M1036.2,350.3l12.846,26.028,28.724,4.174-20.785,20.26,4.907,28.607L1036.2,415.867l-25.691,13.507,4.907-28.607-20.784-20.26,28.724-4.174Z" transform="translate(-19.174 -11.985)"/><path class="o" d="M986.486,467.083c-3.55,4.438-9.009,21.5-11.643,30.2l8.45-74.9,2.191-9.737c13.658-12.252,7.831,23.5,9.236,34.35S991.307,461.056,986.486,467.083Z" transform="translate(-16.647 -19.623)"/><path class="o" d="M1048.449,323.889c-3.249,4.212-10.852,8.542-15.217,5.686-6.442-4.212-17.959-4.217-19.969-14.057-.8-3.892,1.531-5.258,4.632-5.48a94.453,94.453,0,0,1,10.312,4.007c1.775.808,8.565,15.262,19.547,10.175C1047.989,324.111,1048.222,324,1048.449,323.889Z" transform="translate(-21.532 -6.845)"/><path class="l" d="M1109.911,440.633l-.563-.775A8.194,8.194,0,0,1,1109.911,440.633Z" transform="translate(-33.819 -23.418)"/><g transform="translate(907.745 378.01)"><path class="p" d="M993.232,396.867c-3.581-2.2-5.457-.97-9.146,3.642-3.616,4.52-26.887,34.835-32.732,42.621l.817.613.28-.375-.668.894-.818-.612c-5.434,7.285-27.914,38.014-31.229,42.757-3.385,4.84-3.673,6.535-.546,9.349s19.367,15.095,25.653,19.087,8.7,6.157,15.086-2.38c6.35-8.483,24.216-32.354,29.663-39.633l1.6-2.134,29.663-39.632c6.389-8.538,3.581-10.147-2.021-15.055S996.815,399.072,993.232,396.867Z" transform="translate(-917.009 -395.805)"/><path class="p" d="M953.928,444.97c-3.569,4.785-13.284,18.032-21.319,29.045l19.258,14.414,21.249-28.389,21.928-29.3L975.785,416.33C967.484,427.143,957.511,440.2,953.928,444.97Z" transform="translate(-919.001 -398.425)"/><path class="p" d="M953.961,445.611c-3.3,4.43-12.311,16.732-19.568,26.706l19.258,14.414,19.7-26.326,19.973-26.683-19.259-14.414C966.545,429.083,957.28,441.192,953.961,445.611Z" transform="translate(-919.229 -398.805)"/><g transform="translate(10.907 10.984)"><g transform="translate(0 74.997)"><path class="q" d="M940.474,495.736a6.854,6.854,0,1,1-9.593,1.38A6.855,6.855,0,0,1,940.474,495.736Z" transform="translate(-929.512 -494.368)"/><path class="r" d="M938.147,500.6a1.714,1.714,0,1,1-2.4.345A1.714,1.714,0,0,1,938.147,500.6Z" transform="translate(-930.265 -495.121)"/></g><g transform="translate(56.132)"><path class="q" d="M1004.822,409.762a6.855,6.855,0,1,1-9.6,1.381A6.856,6.856,0,0,1,1004.822,409.762Z" transform="translate(-993.859 -408.396)"/><path class="r" d="M1002.492,414.632a1.713,1.713,0,1,1-2.4.345A1.711,1.711,0,0,1,1002.492,414.632Z" transform="translate(-994.611 -409.148)"/></g></g><g transform="translate(26.26 21.659)"><rect class="r" width="3.246" height="18.176" transform="matrix(0.599, -0.801, 0.801, 0.599, 0, 83.672)"/><rect class="r" width="3.246" height="18.176" transform="translate(2.722 80.035) rotate(-53.191)"/><rect class="r" width="3.895" height="18.176" transform="translate(5.444 76.398) rotate(-53.195)"/><rect class="r" width="3.246" height="18.176" transform="translate(8.169 72.757) rotate(-53.172)"/><rect class="r" width="3.246" height="18.176" transform="matrix(0.599, -0.8, 0.8, 0.599, 10.892, 69.118)"/><rect class="r" width="3.895" height="18.176" transform="matrix(0.599, -0.801, 0.801, 0.599, 13.614, 65.483)"/><rect class="r" width="3.246" height="18.177" transform="translate(16.725 61.326) rotate(-53.193)"/><rect class="r" width="3.246" height="18.176" transform="translate(19.06 58.206) rotate(-53.178)"/><rect class="r" width="3.246" height="18.176" transform="matrix(0.6, -0.8, 0.8, 0.6, 21.784, 54.566)"/><rect class="r" width="3.246" height="18.176" transform="matrix(0.599, -0.801, 0.801, 0.599, 24.894, 50.411)"/><rect class="r" width="3.245" height="18.176" transform="translate(27.617 46.774) rotate(-53.189)"/><rect class="r" width="3.246" height="18.176" transform="matrix(0.599, -0.801, 0.801, 0.599, 29.951, 43.654)"/><rect class="r" width="3.895" height="18.176" transform="translate(32.673 40.019) rotate(-53.196)"/><rect class="r" width="2.597" height="18.177" transform="translate(35.786 35.858) rotate(-53.175)"/><rect class="r" width="3.245" height="18.176" transform="translate(38.508 32.222) rotate(-53.186)"/><rect class="r" width="3.894" height="18.176" transform="matrix(0.599, -0.801, 0.801, 0.599, 40.842, 29.105)"/><rect class="r" width="3.246" height="18.177" transform="matrix(0.599, -0.801, 0.801, 0.599, 43.954, 24.945)"/><rect class="r" width="3.895" height="18.176" transform="matrix(0.599, -0.801, 0.801, 0.599, 46.287, 21.829)"/><rect class="r" width="3.245" height="18.176" transform="translate(49.398 17.673) rotate(-53.204)"/><rect class="r" width="3.246" height="18.176" transform="matrix(0.599, -0.801, 0.801, 0.599, 52.123, 14.031)"/><rect class="r" width="3.246" height="18.176" transform="matrix(0.599, -0.801, 0.801, 0.599, 54.845, 10.394)"/><rect class="r" width="3.246" height="18.176" transform="translate(57.57 6.753) rotate(-53.161)"/><rect class="r" width="3.894" height="18.176" transform="matrix(0.599, -0.801, 0.801, 0.599, 60.291, 3.117)"/></g><rect class="s" width="2.597" height="11.685" transform="translate(27.815 103.253) rotate(-53.191)"/><rect class="s" width="1.947" height="11.685" transform="translate(33.651 95.456) rotate(-53.182)"/><rect class="s" width="1.947" height="11.686" transform="matrix(0.599, -0.801, 0.801, 0.599, 36.373, 91.818)"/><rect class="s" width="2.597" height="11.685" transform="translate(38.707 88.7) rotate(-53.177)"/><rect class="s" width="1.947" height="11.684" transform="translate(44.542 80.905) rotate(-53.182)"/><rect class="s" width="2.596" height="11.685" transform="matrix(0.599, -0.801, 0.801, 0.599, 46.875, 77.787)"/><rect class="s" width="1.948" height="11.684" transform="translate(52.71 69.992) rotate(-53.188)"/><rect class="s" width="1.948" height="11.684" transform="translate(55.433 66.355) rotate(-53.194)"/><rect class="s" width="1.947" height="11.685" transform="translate(58.156 62.716) rotate(-53.199)"/><rect class="s" width="2.596" height="11.684" transform="matrix(0.599, -0.801, 0.801, 0.599, 63.213, 55.96)"/><rect class="s" width="1.947" height="11.685" transform="translate(66.325 51.8) rotate(-53.168)"/><rect class="s" width="1.947" height="11.685" transform="translate(71.768 44.529) rotate(-53.223)"/><rect class="s" width="1.948" height="11.685" transform="matrix(0.599, -0.801, 0.801, 0.599, 74.492, 40.89)"/><rect class="s" width="2.597" height="11.684" transform="translate(77.216 37.249) rotate(-53.17)"/><rect class="s" width="3.246" height="11.685" transform="translate(82.273 30.493) rotate(-53.178)"/><rect class="s" width="2.596" height="11.685" transform="matrix(0.599, -0.801, 0.801, 0.599, 85.384, 26.337)"/><path class="q" d="M984.777,428.289c2.1,1.576-4.872,14.454-15.584,28.766s-21.1,24.636-23.2,23.062,4.872-14.455,15.583-28.766S982.672,426.715,984.777,428.289Z" transform="translate(-920.661 -399.932)"/><path class="r" d="M972.811,453.086l-7.188,9.6-5.007-.894,9.927-13.261Z" transform="translate(-922.576 -402.537)"/></g><g transform="translate(915.18 357.066)"><path class="b" d="M928.455,379.78c-.215.916-5.152,29.822-1.7,38.168s30.584,38.832,41.205,44.812c0,0-3.042-12.3-3.084-13.193S944.1,412.589,943.81,408.238c-.1-1.486,2.653-14.857,2.445-30.075S928.455,379.78,928.455,379.78Z" transform="translate(-925.531 -371.795)"/><g transform="translate(39.467 80.776)"><path class="b" d="M973.778,464.392c.6.693,9.726,7.026,11.8,11.475s4.622,11.294,6.253,13.392c1.92,2.468.788,3.662-1.81.955a40.7,40.7,0,0,1-5.024-6.476c-.178-.455,1.327,2.388,3.255,5.375,2.05,3.175,4.518,6.535,3.815,6.976-1.363.857-8.037-8.019-8.863-9.707a38.41,38.41,0,0,0,2.251,4.423c1.162,1.944,2.881,4.036,2.5,4.7-.593,1.045-4.928-3.374-7.144-7.508-.2-.016,0,1.5,3.046,6.212.306.474.47,1.9-1.063.534-3.227-2.868-4.9-3.864-6.83-8.989-1.885-5-2.475-11.04-5.188-14.155Z" transform="translate(-970.775 -464.392)"/><path class="b" d="M985.8,475.212s6.356,2.141,8.659,6.251c1.369,2.443,2.156,2.1,2.546,2.459,1.294,1.2-2.554.954-4.161-.965-1.306-1.559-5.426-1.233-6.591-2.036s-3.722-3.535-3.472-4.529S985.8,475.212,985.8,475.212Z" transform="translate(-972.305 -465.773)"/></g><path class="b" d="M972.988,463.084s-1.882-1.392-5.782-7.157-2.28,4.283-2.28,4.283l7.355,11.177Z" transform="translate(-930.518 -382.308)"/></g><path class="m" d="M913.064,411.9l58.706,16.949L953.629,350.3l-23.147,4.145Z" transform="translate(-8.76 -11.985)"/><path class="t" d="M1031.707,533.884l-9.054,12.726,29.591-.388,2.561-28.752Z" transform="translate(-22.751 -33.327)"/><g transform="translate(1011.47 477.146)"><path class="b" d="M1137.635,654.939s4.513,12.388,4.973,16.86,9.353-.959,9.836-1,5.631-8.115,5.631-8.115-5.31.668-10.423-14.867S1137.635,654.939,1137.635,654.939Z" transform="translate(-1048.901 -526.42)"/><path class="c" d="M1132.558,602.751c3.2,7.149,4.328,22.2,5.429,27.881s-19.871,12.97-19.871,12.97-23.4-30.087-29.63-47.986c-2.654-7.622-13.191-7.9-23.942-29.34a91.2,91.2,0,0,0-10.98-17.139c-6.979-8.511-13.183-12.613-16.12-16.63-4.437-6.076,1.816-14.994,5.627-18.836s29.444-4.221,29.444-4.221a170.308,170.308,0,0,1,11.843,12.739c10.334,12,23.515,29.207,24.26,38.026.462,5.509,7.306,19.043,9.672,21.632S1129.362,595.6,1132.558,602.751Z" transform="translate(-1035.915 -509.449)"/><path class="d" d="M1084.358,522.188a70.619,70.619,0,0,0-17.936,16.405,44.4,44.4,0,0,1-12.858,10.544c-6.979-8.511-13.183-12.613-16.12-16.63-4.437-6.076,1.816-14.994,5.627-18.836s29.444-4.221,29.444-4.221A170.308,170.308,0,0,1,1084.358,522.188Z" transform="translate(-1035.915 -509.449)"/><g class="e" transform="translate(61.903 60.238)"><path class="f" d="M1108.493,578.773l.378.3,3.61,2.909,6.042,4.871q.3-.219.632-.415c.14-.086.282-.167.425-.247l-5.9-4.159-5.037-3.533Z" transform="translate(-1107.083 -578.503)"/><path class="f" d="M1107.688,580.208l1.364,1.1,2.881,2.323,5.4,4.355a7.774,7.774,0,0,1,.738-.664l-5.182-3.652-4.511-3.165-.612-.427C1107.74,580.122,1107.714,580.164,1107.688,580.208Z" transform="translate(-1106.98 -578.704)"/><path class="f" d="M1116.884,588.554c-1.847-1.3-9.108-6.423-10-7.014l-.006.01,9.114,7.352.638-.023C1116.711,588.768,1116.795,588.659,1116.884,588.554Z" transform="translate(-1106.877 -578.891)"/><path class="f" d="M1107.1,583.483c.227.119,8.394,5.885,8.394,5.885l-1.053.038Z" transform="translate(-1106.905 -579.139)"/><path class="f" d="M1107.28,585.2c.181.1,6.7,4.7,6.7,4.7l-.841.033Z" transform="translate(-1106.928 -579.358)"/><path class="f" d="M1107.278,586.448c.145.076,5.354,3.755,5.354,3.755l-.671.027Z" transform="translate(-1106.928 -579.517)"/><g transform="translate(0.753 0.42)"><path class="f" d="M1118.1,582.837l-8.683,8.049q.333.476.644.967c2.264-2.334,5.589-5.766,8.456-8.732Z" transform="translate(-1107.954 -579.477)"/><path class="f" d="M1116.791,581.9l-8.34,7.73q.3.382.591.777c1.9-1.959,5.324-5.491,8.041-8.306Z" transform="translate(-1107.831 -579.358)"/><path class="f" d="M1115.554,581.015l-7.67,7.109-.144.662c.1.11.2.222.291.333,1.311-1.351,5.109-5.268,7.719-7.974Z" transform="translate(-1107.74 -579.244)"/><path class="f" d="M1114.531,580.246l-6.468,5.994-.256,1.181s4.328-4.459,6.861-7.088Z" transform="translate(-1107.749 -579.146)"/><path class="f" d="M1113.6,579.578l-5.476,5.074-.2.945s3.8-3.92,5.771-5.964Z" transform="translate(-1107.763 -579.061)"/><path class="f" d="M1112.942,578.985l-4.593,4.257-.163.755s3.3-3.4,4.8-4.966Z" transform="translate(-1107.797 -578.985)"/></g></g><g transform="translate(92.042 129.868)"><path class="h" d="M1190.491,667.169c-4.161,2.572-13.42,5.9-20.1,8.45l-.005,0c-.215.078-.412.153-.613.23-3.479,1.338-6.155,2.435-6.85,3.057-.075.071-.172.146-.288.235-.287.222-.694.51-1.2.837-4.573,2.961-16.925,9.395-18.787,5.652a10.3,10.3,0,0,1-.77-2.28c-.038-.17-.077-.339-.1-.514,0-.013,0-.018,0-.031-.046-.229-.089-.465-.122-.707,0-.007,0-.007,0-.012-.639-4.44.217-9.816.98-9.727,10.209,1.2,15.556-8.009,16.6-10.03.131-.251.193-.392.193-.392s.316-.116.924-.319c.332-.106.759-.24,1.262-.4.274-.086.571-.174.9-.27.111-.031.219-.067.332-.092q.4-.122.844-.247c.145-.039.289-.079.446-.118l.005,0q1.226-.334,2.754-.7c.635-.154,1.3-.308,2.012-.463,1.065-.24,2.219-.475,3.447-.713.118-.015.243-.027.364-.038.632-.077,1.264-.129,1.887-.171a37.4,37.4,0,0,1,6.181.092l.008,0C1190.262,659.448,1195.626,664,1190.491,667.169Z" transform="translate(-1141.427 -658.324)"/><path class="i" d="M1180.788,658.5a11.594,11.594,0,0,0-4.14,11.108s-3.756.913-7.947,2.1c-.359.1-.728.213-1.1.322-.668.193-1.347.39-2.015.6-.576.176-1.144.355-1.694.533-3.059.994-5.635,2.008-6.282,2.765-1.754,2.044-14.389,10.841-15.735,7.429a1.826,1.826,0,0,1-.1-.514c0-.013,0-.018,0-.031a4.223,4.223,0,0,0-.122-.707c0-.007,0-.007,0-.012-.639-4.44.217-9.816.98-9.727,10.209,1.2,15.556-8.009,16.6-10.03.131-.251.193-.392.193-.392s.316-.116.924-.319c.332-.106.759-.24,1.262-.4.274-.086.571-.174.9-.27.111-.031.219-.067.332-.092q.4-.122.844-.247c.145-.039.289-.079.446-.118l.005,0q1.226-.334,2.754-.7c.635-.154,1.3-.308,2.012-.463,1.065-.24,2.219-.475,3.447-.713.118-.015.243-.027.364-.038.632-.077,1.264-.129,1.887-.171a37.4,37.4,0,0,1,6.181.092Z" transform="translate(-1141.427 -658.324)"/><g transform="translate(19.111 2.292)"><path class="j" d="M1166.482,660.951c-.088.208-.21.506-.352.887a16.907,16.907,0,0,0-1.045,4.213,7.969,7.969,0,0,0-.023,1.469c.015.187.042.374.075.558l-1.677.308a8.719,8.719,0,0,1-.089-2.317l0-.005a12.816,12.816,0,0,1,.209-1.5,18.951,18.951,0,0,1,.83-3.008c.274-.086.571-.174.9-.27.111-.031.219-.067.332-.092Q1166.034,661.076,1166.482,660.951Z" transform="translate(-1163.335 -660.951)"/></g><g transform="translate(24.408 1.007)"><path class="j" d="M1172.474,659.478c-.5,1.2-1.714,4.475-1.26,6.928l-1.682.309a14.266,14.266,0,0,1,.93-6.774C1171.1,659.788,1171.764,659.633,1172.474,659.478Z" transform="translate(-1169.407 -659.478)"/></g><g transform="translate(30.31 0.086)"><path class="j" d="M1179.035,658.422c-.562,1.461-1.457,4.255-1.056,6.419l-1.677.308a13.924,13.924,0,0,1,.846-6.556C1177.781,658.516,1178.412,658.464,1179.035,658.422Z" transform="translate(-1176.174 -658.422)"/></g><g transform="translate(17.736 3.297)"><path class="u" d="M1168.185,673.107a7.036,7.036,0,0,1-.873,1.337,9.757,9.757,0,0,0-2.078,5.181c-.2,2.012.23,3.75.931,4.452l-.806.8a6.359,6.359,0,0,1-1.328-4.418,11.01,11.01,0,0,1,2.4-6.739c.019-.027.043-.057.063-.084,1.985-2.5.87-3.855-1.63-5.973q-.215-.184-.45-.379c-.278-.231-.558-.468-.833-.706-.142-.124-.28-.25-.409-.372a4.015,4.015,0,0,1-1.411-2.736,2.636,2.636,0,0,1,.072-.662c.131-.251.193-.392.193-.392s.316-.116.924-.319l.324.348a1.443,1.443,0,0,0-.378,1.022,2.283,2.283,0,0,0,.486,1.241,5.578,5.578,0,0,0,.938,1.008l.568.475c.088.073.172.147.258.216C1167.363,668.27,1169.652,670.183,1168.185,673.107Z" transform="translate(-1161.759 -662.103)"/></g><g transform="translate(21.368 2.171)"><path class="u" d="M1172.067,665.335a21.307,21.307,0,0,1-.147,3.227,15.417,15.417,0,0,0-.091,3.463,4.907,4.907,0,0,0,2.039,3.458l-.345.454-.005,0-.343.446c-.093-.07-.182-.142-.27-.215a5.92,5.92,0,0,1-2.171-3.823,15.8,15.8,0,0,1,.053-3.895,19.411,19.411,0,0,0,.145-3.051,3.063,3.063,0,0,0-.209-.942,3.482,3.482,0,0,0-1.467-1.65,7.948,7.948,0,0,0-2.792-.989c-.324-.055-.527-.077-.539-.077l.047-.563q.4-.122.844-.247c.145-.039.289-.079.446-.118l.005,0a9.208,9.208,0,0,1,2.272.829,5.508,5.508,0,0,1,1.474,1.137A4.079,4.079,0,0,1,1172.067,665.335Z" transform="translate(-1165.922 -660.813)"/></g></g></g><path class="v" d="M1100.787,535.886c-.887.433-1.827.859-2.8,1.269-5.981-7.261-20.561-19.992-41.5-5.657-13.4,9.168-30.4,10.608-33.957,10.813a.016.016,0,0,1-.023,0c-.42.029-.648.034-.648.034l-.006-.023-5.441-17.186,22.57-41.07,28.084.273s33.138,41.4,33.24,41.713C1100.367,526.24,1100.6,531.561,1100.787,535.886Z" transform="translate(-21.954 -29.062)"/><g transform="translate(1005.156 256.426)"><path class="w" d="M1032.4,275.8c2.988,3.906,3.809,2.378-1.063,7.56-2.195,3.365,3.017,3.413,6.72,5.192a7.067,7.067,0,0,1,2.1,1.431c1.837,1.586,5.5,1.924,8.982,2.436,7.406-.889,9.2,4.989,8.991-2.436-.029-.1-.067-.193-.087-.29-1.817-6.275,8.6-.523,6.468-6.1-4.863-2.2,5.956.213,2.436-8.982-5.182-3.868,6.333-7.068-2.436-8.992-.571-3.452-8.721-1.151-6.381-6.381-2.339-2.813-6.758-1.2-8.991-2.436-8.924-2.011-5.183,4.786-8.982,2.436-5.037-1.7-6.352,4.8-6.391,6.381C1030.874,268.734,1024.7,275.8,1032.4,275.8Z" transform="translate(-1028.676 -256.426)"/><path class="x" d="M1039.431,291.536a7.067,7.067,0,0,1,2.1,1.431c1.837,1.586,5.5,1.924,8.982,2.436,7.406-.889,9.2,4.989,8.991-2.436-.029-.1-.067-.193-.087-.29-2.426-.454-4.651-1.341-4.65-3.258,0-8.659-10.255-9.636-10.255-9.636s-2.787,5.884-2.962,6.522C1041.462,286.634,1040.466,289.08,1039.431,291.536Z" transform="translate(-1030.049 -259.408)"/><path class="b" d="M1045.666,270.486s-11.127-2.61-11.127,10.346,1.309,14.594,11.127,10.666S1056.793,271.072,1045.666,270.486Z" transform="translate(-1029.425 -258.193)"/></g><path class="y" d="M1152.849,276.848l-7.791-3.808-6.029,6.233,1.214-8.587-7.792-3.808,8.542-1.5,1.214-8.587,4.065,7.66,8.542-1.5-6.029,6.233Z" transform="translate(-36.769 -0.047)"/><path class="v" d="M1172.6,572.549l-3.18-.743-1.69,2.794-.276-3.254-3.18-.743,3.009-1.268-.276-3.254,2.136,2.47,3.009-1.268-1.689,2.795Z" transform="translate(-40.831 -39.533)"/><g class="z" transform="translate(-0.92 -35.963)"><path class="aa" d="M901.739,586.8l-19.131-9.084L868.056,593.1l2.728-21-19.131-9.084,20.817-3.9,2.728-21,10.138,18.594,20.817-3.9L891.6,568.205Z"/><path class="ab" d="M 873.6082153320312 581.409912109375 L 879.7012939453125 574.966796875 L 881.6980590820312 572.855224609375 L 884.3233032226562 574.101806640625 L 892.3338623046875 577.9055786132812 L 888.0889892578125 570.1197509765625 L 886.6978149414062 567.5681762695312 L 888.6946411132812 565.4566650390625 L 894.78759765625 559.0135498046875 L 886.0711059570312 560.644775390625 L 883.2145385742188 561.1793212890625 L 881.8234252929688 558.6277465820312 L 877.5784301757812 550.8419189453125 L 876.436279296875 559.6359252929688 L 876.0619506835938 562.5178833007812 L 873.2053833007812 563.052490234375 L 864.4888916015625 564.6836547851562 L 872.49951171875 568.4874267578125 L 875.124755859375 569.7340087890625 L 874.7504272460938 572.615966796875 L 873.6082153320312 581.409912109375 M 868.055908203125 593.1029052734375 L 870.7837524414062 572.1007690429688 L 851.6524047851562 563.0164184570312 L 872.4696044921875 559.1207275390625 L 875.1973876953125 538.1185302734375 L 885.3353271484375 556.7130126953125 L 906.1525268554688 552.8172607421875 L 891.6008911132812 568.2050170898438 L 901.7388305664062 586.7994995117188 L 882.6075439453125 577.7151489257812 L 868.055908203125 593.1029052734375 Z"/></g></g></svg>