<svg xmlns="http://www.w3.org/2000/svg" width="92.407" height="92.966" viewBox="0 0 92.407 92.966"><defs><style>.a{fill:#f2da8e;}.b{fill:#fff;}</style></defs><g transform="translate(-188.661 -459.493)"><path class="a" d="M205.651,474.245s29.861-28.247,56.817-6.568,18.068,67.117,13.259,73.6-11.126,11.186-39.181,11.183-48.968-13.749-47.842-43.3C188.7,509.158,189.383,491.591,205.651,474.245Z"/><path class="b" d="M256.031,508.393a.55.55,0,0,1,.02.953l-13.928,8.429L228.2,526.2a.551.551,0,0,1-.836-.459l-.335-16.276-.336-16.276a.551.551,0,0,1,.816-.494l14.263,7.848Z"/></g></svg>