<svg xmlns="http://www.w3.org/2000/svg" width="63.482" height="63.867" viewBox="0 0 63.482 63.867"><defs><style>.a{fill:#7fd1d8;}.b{fill:#fff;}</style></defs><path class="a" d="M630.228,299.461s20.514-19.405,39.032-4.512,12.412,46.108,9.109,50.562-7.643,7.684-26.917,7.682-33.64-9.446-32.867-29.747C618.585,323.446,619.051,311.378,630.228,299.461Z" transform="translate(-618.555 -289.326)"/><path class="b" d="M677.872,334.278a.378.378,0,0,1,.013.655l-9.568,5.791-9.568,5.79a.378.378,0,0,1-.574-.316l-.23-11.181-.231-11.181a.378.378,0,0,1,.56-.339l9.8,5.391Z" transform="translate(-631.589 -300.684)"/></svg>