<svg xmlns="http://www.w3.org/2000/svg" width="528" height="390.581" viewBox="0 0 528 390.581"><defs><style>.a{fill:#f2da8e;}.a,.e,.f,.j,.k,.m,.n,.o,.p,.q,.r,.t{fill-rule:evenodd;}.b,.k{fill:#36a5ad;}.c,.j{fill:#d1d3d4;}.d,.s,.t{fill:none;stroke-miterlimit:10;}.d{stroke:#d1d3d4;stroke-width:1.086px;}.e{fill:#a1dd6f;}.f{opacity:0.15;}.g,.p{fill:#fcb95d;}.h{opacity:0.5;}.i{fill:#243330;}.l{fill:#bcbec0;}.m{fill:#243e41;}.n{fill:#171f1c;}.o{fill:#c98121;}.q,.u{fill:#7fd1d8;}.r{opacity:0.2;}.s{stroke:#fcb95d;stroke-width:1.393px;}.t{stroke:#3e6569;stroke-width:7.813px;}</style></defs><g transform="translate(-685.396 -392.863)"><path class="a" d="M835.474,698.405c19.639-.32,38.95-5.963,60.99-7.331,45.56-2.825,67.9,9.172,102.794,12.652,6.976.7,73.7,6.523,128.888-28.466,51.9-32.9,102.71-107.668,80.654-174.749-16.931-51.49-68.788-74.113-96.469-86.189-15.77-6.88-103.138-42.7-160.516-3.163-24.019,16.552-27.278,35.624-55.351,43.49-26.518,7.43-36.25-6.046-70.374-4.745-7.966.3-57.433,2.191-88.561,37.955-33.165,38.1-24.183,90.157-22.14,100.421,8.528,42.863,41.575,81.711,80.187,101.188A82.406,82.406,0,0,0,835.474,698.405Z" transform="translate(-0.691)"/><g transform="translate(889.827 436.945)"><g transform="translate(0 155.376)"><g transform="translate(45.278 78.034)"><path class="b" d="M981.836,690.465s-1.763,1.6-4.573,3.986c-3.222,2.73-7.833,6.47-12.749,9.967-.8.558-1.6,1.126-2.411,1.672-10.153,6.873-16.414,8.246-19.175-4.188a17.063,17.063,0,0,1,.04-7.348,20.672,20.672,0,0,1,.915-3.175,31.193,31.193,0,0,1,4.15-7.556,36.861,36.861,0,0,1,3.816-4.419,7.852,7.852,0,0,1,2.349-1.852Z" transform="translate(-941.604 -677.551)"/><path class="c" d="M964.513,704.776c-.8.558-1.6,1.126-2.411,1.672-10.153,6.873-16.414,8.246-19.175-4.188a17.062,17.062,0,0,1,.04-7.347,20.673,20.673,0,0,1,.915-3.175c.869.047,1.77.128,2.681.265a21.378,21.378,0,0,1,13.234,6.44A35.528,35.528,0,0,1,964.513,704.776Z" transform="translate(-941.604 -677.909)"/><path class="d" d="M955.782,689.266c.338.089,8.408,4.263,8.985,10.324" transform="translate(-941.939 -677.847)"/><path class="d" d="M960.034,686.168c.338.089,8.409,4.262,8.985,10.324" transform="translate(-942.046 -677.769)"/><path class="c" d="M953.3,681.076a23.861,23.861,0,0,0-2.883,3.766,75.061,75.061,0,0,0-3.874,6.849c-.934,1.836-1.528,3.146-1.528,3.146l-.011.378-2.057-.615a20.679,20.679,0,0,1,.915-3.175,31.19,31.19,0,0,1,4.15-7.556c-2.227-.91-4.388-1.8-6.428-2.624v-.011s6.751-1.7,10.243-1.785C953.621,679.412,954.557,679.807,953.3,681.076Z" transform="translate(-941.58 -677.599)"/></g><path class="e" d="M1099.082,619.741l-62.207,40.132-4.824,3.111-11.249,7.25-86.853-47.647s-.057-.03-.155-.076l-1.254-.693a64.646,64.646,0,0,1,14.11-2.678,42.635,42.635,0,0,1,14.276,1.09c13.076,3.56,25.509,1.522,30.833-3.121s11.81-22.027,22.506-19.336l55.961,6.112Z" transform="translate(-896.073 -597.493)"/><path class="f" d="M1082.506,635.019l-45.632,24.855-4.824,3.111-11.249,7.25-86.853-47.647s-.057-.03-.155-.076l-1.254-.693a64.646,64.646,0,0,1,14.11-2.678,42.635,42.635,0,0,1,14.276,1.09c13.076,3.56,25.509,1.522,30.833-3.121s11.81-22.027,22.506-19.336l55.265-.18Z" transform="translate(-896.073 -597.493)"/><g transform="translate(185.094 23.954)"><path class="e" d="M1106.279,682.337c2.849-1.915,41.135-32.225,45.515-42.432a64.762,64.762,0,0,0,4.546-17.837l-63.489,30.346-7.83,19.242Z" transform="translate(-1085.021 -622.068)"/><path class="f" d="M1106.279,682.337c2.849-1.915,41.156-32.973,45.515-42.432a55.651,55.651,0,0,0,4.546-17.837l-63.489,30.346-7.83,19.242Z" transform="translate(-1085.021 -622.068)"/></g><path class="e" d="M1121.785,658.905c-15.209,1.559-50.078,13.36-55.245,12.412-3.088-.573-13.867.172-21.882,1.819-3.123.656-5.858,1.25-7.6,1.645l-1.973.445-29.646-10.494s3.126-2.815,7.485-6.184c1.536-1.186,3.217-2.455,4.968-3.679,5.341-3.756,11.335-7.234,15.595-7.643,9.612-.931,46.424-18.246,50.571-23.723s32.461-18.254,44.37-15.914,26.27,7.9,26.806,12.33C1158.141,643.961,1137.009,657.332,1121.785,658.905Z" transform="translate(-897.916 -597.741)"/><path class="g" d="M1030.1,689.191l24.408.689a242.351,242.351,0,0,0,29.808-1.569s-7.955-18.7-18.114-16.664c-10.439,2.095-31.308-.884-31.308-.884Z" transform="translate(-898.539 -599.345)"/><path class="e" d="M1040.923,667.065s-5.1,25.008-14.135,28.343-22.436-5.426-34.993,1c-3.266,1.668-10.064.717-18.467-1.623-4.486-1.243-9.418-2.87-14.516-4.716-6.572-2.361-13.42-5.058-19.9-7.673-1.048-.415-2.065-.83-3.084-1.246-2.857-1.168-5.629-2.3-8.246-3.366-10.267-4.2-18.246-7.383-20.508-7.317-7.188.2-9.4-20.223-11.656-25.479s8.748-12.93,20.508-18.993c.3-.149.595-.3.885-.447,10.024-4.9,15.131-2.863,16.034-2.409.1.046.155.076.155.076,15.715,2.776,55.7,30.558,68.716,32.356,7.88,1.1,20.586,5.073,29.386,8.04q1.127.374,2.168.748C1037.85,665.92,1040.923,667.065,1040.923,667.065Z" transform="translate(-895.128 -598.121)"/><g class="h" transform="translate(15.823 43.024)"><g transform="translate(4.185)"><path class="i" d="M938.6,645.025l-.7.773-6.668,7.388-11.162,12.365q.43.68.815,1.4c.165.311.323.625.477.941l9.62-12.153,8.176-10.372Q938.883,645.2,938.6,645.025Z" transform="translate(-915.767 -641.719)"/><path class="i" d="M935.995,643.331l-2.521,2.792-5.323,5.9-9.979,11.05a16.659,16.659,0,0,1,1.335,1.66l8.445-10.668,7.324-9.29.987-1.259Z" transform="translate(-915.719 -641.676)"/><path class="i" d="M917.358,662.239c3.013-3.8,14.856-18.75,16.229-20.592l-.02-.014-16.847,18.652-.028,1.37Q917.033,661.937,917.358,662.239Z" transform="translate(-915.681 -641.633)"/><path class="i" d="M929.922,641.852c-.283.47-13.617,17.284-13.617,17.284l.044-2.262Z" transform="translate(-915.672 -641.638)"/><path class="i" d="M926.674,642.014c-.225.376-10.874,13.8-10.874,13.8l.031-1.805Z" transform="translate(-915.659 -641.643)"/><path class="i" d="M924.342,641.877c-.179.3-8.687,11.027-8.687,11.027l.023-1.443Z" transform="translate(-915.655 -641.639)"/></g><g transform="translate(0 0.74)"><path class="i" d="M929.722,664.955l-16.21-19.574q-1.062.655-2.151,1.265c4.731,5.13,11.689,12.668,17.7,19.165Q929.391,665.383,929.722,664.955Z" transform="translate(-911.361 -642.468)"/><path class="i" d="M931.687,662.464l-15.568-18.8q-.854.608-1.736,1.175c3.972,4.307,11.132,12.066,16.838,18.228Q931.455,662.766,931.687,662.464Z" transform="translate(-911.437 -642.424)"/><path class="i" d="M933.553,660.069l-14.319-17.291-1.4-.386c-.247.2-.5.391-.749.581,2.74,2.972,10.679,11.58,16.166,17.5Z" transform="translate(-911.506 -642.392)"/><path class="i" d="M935.2,657.944l-12.071-14.577-2.5-.691s9.04,9.81,14.368,15.554Z" transform="translate(-911.595 -642.399)"/><path class="i" d="M936.662,655.994l-10.22-12.342-2-.55s7.947,8.622,12.091,13.083C936.576,656.121,936.619,656.057,936.662,655.994Z" transform="translate(-911.692 -642.41)"/><path class="i" d="M937.937,654.6l-8.574-10.353-1.6-.442s6.9,7.485,10.068,10.892C937.867,654.659,937.9,654.626,937.937,654.6Z" transform="translate(-911.776 -642.428)"/></g></g><g class="h" transform="translate(203.068 29.911)"><g transform="translate(0.939)"><path class="i" d="M1108.313,628.356l.206.433,1.962,4.129,3.284,6.911c.243-.042.488-.076.738-.1.161-.016.323-.027.484-.037l-3.465-6.219-2.963-5.294C1108.477,628.24,1108.395,628.3,1108.313,628.356Z" transform="translate(-1104.522 -628.18)"/><path class="i" d="M1107.132,629.177l.742,1.561,1.565,3.3,2.934,6.177a7.749,7.749,0,0,1,.939-.274c-.722-1.3-1.877-3.37-3.041-5.46l-2.654-4.741-.361-.64Z" transform="translate(-1104.492 -628.203)"/><path class="i" d="M1111.873,640.423c-1.084-1.948-5.344-9.6-5.883-10.508l-.01.006,4.952,10.429.576.253C1111.628,640.539,1111.749,640.478,1111.873,640.423Z" transform="translate(-1104.463 -628.224)"/><path class="i" d="M1105.417,631.542c.15.2,4.939,8.817,4.939,8.817l-.951-.416Z" transform="translate(-1104.449 -628.265)"/><path class="i" d="M1104.9,632.979c.12.161,3.945,7.041,3.945,7.041l-.76-.331Z" transform="translate(-1104.436 -628.301)"/><path class="i" d="M1104.424,633.968c.1.129,3.151,5.625,3.151,5.625l-.608-.263Z" transform="translate(-1104.424 -628.326)"/></g><g transform="translate(0 2.231)"><path class="i" d="M1115.133,635.727l-11.156,3.435q.09.566.158,1.136c3.009-1.105,7.43-2.732,11.245-4.141Z" transform="translate(-1103.474 -630.602)"/><path class="i" d="M1114.419,634.463l-10.715,3.3q.108.469.193.943c2.526-.929,7.078-2.6,10.7-3.94C1114.536,634.665,1114.478,634.564,1114.419,634.463Z" transform="translate(-1103.467 -630.57)"/><path class="i" d="M1113.727,633.254l-9.854,3.034-.411.527c.041.139.079.28.115.42,1.743-.639,6.792-2.494,10.269-3.782C1113.8,633.388,1113.766,633.32,1113.727,633.254Z" transform="translate(-1103.461 -630.539)"/><path class="i" d="M1113.113,632.19l-8.309,2.559-.733.94s5.752-2.111,9.126-3.362Z" transform="translate(-1103.476 -630.513)"/><path class="i" d="M1112.542,631.243l-7.035,2.166-.585.752s5.056-1.855,7.678-2.829Z" transform="translate(-1103.498 -630.489)"/><path class="i" d="M1112.172,630.469l-5.9,1.817-.468.6s4.388-1.61,6.392-2.356Z" transform="translate(-1103.52 -630.469)"/></g></g><g transform="translate(163.95 54.862)"><path class="j" d="M1124.274,697.019c-4.461-4.949-15.292-12.845-23.047-18.732l-.006,0c-.251-.183-.48-.358-.714-.536-4.037-3.08-7.118-5.537-7.788-6.615-.071-.121-.17-.255-.287-.416-.292-.4-.714-.932-1.255-1.554-4.851-5.614-18.549-18.743-22.393-14.582a13.789,13.789,0,0,0-1.868,2.674c-.114.207-.229.412-.332.629,0,.017-.009.022-.013.04-.147.28-.293.571-.427.872,0,.011,0,.011,0,.017-2.512,5.537-3.426,12.87-2.4,13.047,13.782,2.369,17.285,16.413,17.889,19.449.075.378.1.584.1.584s.369.273,1.085.771c.395.265.9.6,1.5,1,.325.215.678.445,1.067.695.133.083.261.172.4.249q.469.308,1.008.645c.173.107.347.214.537.326l.007,0q1.474.9,3.33,1.972c.772.445,1.584.9,2.453,1.377,1.3.72,2.717,1.471,4.231,2.253.148.065.307.13.46.189.8.343,1.6.653,2.4.947a51.1,51.1,0,0,0,8.1,2.258h.011C1121.056,706.988,1129.781,703.121,1124.274,697.019Z" transform="translate(-1063.329 -653.778)"/><path class="k" d="M1108.329,704.651a15.772,15.772,0,0,1-1.208-16.062s-4.559-2.633-9.584-5.783c-.429-.273-.87-.557-1.31-.84-.8-.508-1.61-1.026-2.406-1.551-.685-.451-1.36-.9-2.011-1.346-3.618-2.47-6.6-4.782-7.156-6.016-1.519-3.336-14.691-19.654-17.738-15.725a2.468,2.468,0,0,0-.332.629c0,.017-.009.022-.013.04a5.833,5.833,0,0,1-.427.872c0,.011,0,.011,0,.017-2.512,5.537-3.426,12.87-2.4,13.047,13.782,2.369,17.285,16.413,17.889,19.449.075.378.1.584.1.584s.369.273,1.085.771c.395.265.9.6,1.5,1,.325.215.678.445,1.067.695.133.083.261.172.4.249q.469.308,1.008.645c.173.107.347.214.537.326l.007,0q1.474.9,3.33,1.972c.772.444,1.584.9,2.453,1.377,1.3.72,2.717,1.471,4.231,2.253.148.065.307.13.46.189.8.343,1.6.653,2.4.947a51.1,51.1,0,0,0,8.1,2.258Z" transform="translate(-1063.329 -653.852)"/><g transform="translate(20.929 30.627)"><path class="c" d="M1087.339,696.046c-.036-.3-.084-.74-.124-1.291a22.988,22.988,0,0,1,.227-5.891,10.932,10.932,0,0,1,.526-1.922c.091-.237.2-.47.31-.7L1086.2,685.2a11.712,11.712,0,0,0-.991,2.984l0,.006a17.3,17.3,0,0,0-.291,2.03,25.613,25.613,0,0,0-.053,4.238c.325.215.678.445,1.068.695.133.083.261.172.4.249Q1086.8,695.709,1087.339,696.046Z" transform="translate(-1084.801 -685.199)"/></g><g transform="translate(27.287 34.595)"><path class="c" d="M1093.83,699.828c-.2-1.761-.547-6.489.974-9.509l-2.079-1.049c-1.426,2.836-1.494,6.7-1.347,9.181C1092.15,698.9,1092.962,699.353,1093.83,699.828Z" transform="translate(-1091.324 -689.27)"/></g><g transform="translate(34.449 38.729)"><path class="c" d="M1101.107,703.325c-.182-2.119-.3-6.1,1.046-8.769l-2.073-1.045c-1.375,2.719-1.491,6.385-1.372,8.866C1099.5,702.72,1100.309,703.03,1101.107,703.325Z" transform="translate(-1098.672 -693.511)"/></g><g transform="translate(18.305 10.138)"><path class="l" d="M1094.3,680.6a9.543,9.543,0,0,0-.635-2.078,13.261,13.261,0,0,1-.755-7.547c.494-2.7,1.718-4.8,2.9-5.442l-.75-1.357c-1.407.768-2.7,2.723-3.4,5.245a14.957,14.957,0,0,0,.584,9.7c.015.042.035.09.05.133,1.647,4.024-.322,5.356-4.385,7.154q-.348.159-.73.321c-.45.194-.906.395-1.355.6-.232.106-.459.216-.675.326a5.418,5.418,0,0,0-2.875,3.022,3.556,3.556,0,0,0-.156.89c.075.378.1.584.1.584s.369.273,1.085.771l.554-.328a1.969,1.969,0,0,1-.106-1.478,3.076,3.076,0,0,1,1.1-1.43,7.549,7.549,0,0,1,1.6-.953l.921-.4c.143-.06.281-.126.418-.18C1091.393,686.588,1095.1,684.977,1094.3,680.6Z" transform="translate(-1082.109 -664.179)"/></g><g transform="translate(22.46 23.79)"><path class="l" d="M1095.9,692.154a28.943,28.943,0,0,0,1.027-4.26,20.867,20.867,0,0,1,1.189-4.546,6.625,6.625,0,0,1,3.969-3.721l-.28-.724-.006,0-.279-.714c-.149.056-.292.116-.435.177a7.984,7.984,0,0,0-4.28,4.146,21.335,21.335,0,0,0-1.4,5.094,26.228,26.228,0,0,1-.964,4.029,4.165,4.165,0,0,1-.629,1.146,4.716,4.716,0,0,1-2.54,1.586,10.82,10.82,0,0,1-4.02.214c-.443-.053-.716-.1-.733-.107l-.151.753q.469.308,1.008.645c.174.107.347.214.537.326l.007,0a12.484,12.484,0,0,0,3.28-.207,7.452,7.452,0,0,0,2.354-.913A5.5,5.5,0,0,0,1095.9,692.154Z" transform="translate(-1086.371 -678.185)"/></g></g></g><g transform="translate(117.107)"><path class="m" d="M1020.689,463.854c4.271,2.295,4.389.589,2.117,7.224-.6,3.914,4.1,1.84,8.146,1.934a6.961,6.961,0,0,1,2.466.433c2.295.677,5.724-.508,9.059-1.461,6.291-3.809,10.295.741,7.086-5.842-.065-.075-.139-.146-.2-.225-4.183-4.9,7.509-3.962,3.332-8.109-5.265,0,5.436-2.229-1.461-9.058-6.226-1.368,2.816-8.923-5.842-7.087-1.916-2.869-8.3,2.51-8.325-3.14-3.245-1.576-6.558,1.67-9.067,1.466-8.834,1.82-2.711,6.4-7.078,5.838-5.217.519-3.758,6.889-3.148,8.329C1016.445,458.126,1013.767,466.986,1020.689,463.854Z" transform="translate(-1015.293 -438.088)"/><path class="n" d="M1031.329,473.572a6.96,6.96,0,0,1,2.466.433c2.295.677,5.724-.508,9.059-1.461,6.291-3.809,10.3.741,7.086-5.842-.065-.075-.139-.146-.2-.225-2.365.578-4.723.686-5.5-1.037-3.515-7.779-13.128-4.489-13.128-4.489s-.113,6.419-.01,7.063C1031.161,468.343,1031.261,470.945,1031.329,473.572Z" transform="translate(-1015.67 -438.649)"/><path class="o" d="M1065.771,490.589s-22.552,1.279-25.1-7.273-3.207-13.27-1.312-18.462-12.476,6.5-12.476,6.5,2.09,6.644.846,11.908-4.776,5.618-10.285,5.473,1.2,16.844,1.2,16.844,19.75.733,21.266,1.336,21.759-1.287,22.705-1.614S1065.771,490.589,1065.771,490.589Z" transform="translate(-1015.271 -438.731)"/><path class="p" d="M1029.2,452.759s-11.055,2.178-5.79,13.816,7.106,12.578,14.328,5.06S1039.435,448.766,1029.2,452.759Z" transform="translate(-1015.441 -438.443)"/></g><path class="q" d="M1139.49,597.139l-.191.012c-1.732.114-15.093.977-28.7,1.726-1.473.082-2.95.164-4.418.241-3.21.168-6.363.326-9.308.461-7.913.361-14.334.555-16.344.364l-2.854-6.855-2.412-5.8-1.1-2.653.079,1.159.68,4.745,9.176,30.76-48.481,19.145c-8.578,2.7-64.775,1.981-63.516-6.922l-.067-21.558,4.193-29.668.435-3.058-4.411,16.848-61.827-3.547s8.014-28.776,27.822-83.829c7.328-20.381,34.789-36.18,70.04-23.718a93.244,93.244,0,0,1,10.05,4.235c1.727.846,8.016,15.281,18.982,10.572.233-.1.466-.2.694-.306,10.016-4.488,12.43-9.864,14.114-12.051,0-.006.006-.011.012-.017.057-.065.11-.132.163-.2,1.178-1.4,3.992-2.845,7.82-4.029,10.4-3.215,28.323-4.808,37.4,1.953s17.275,18.816,21.649,35.182c7.411,25.153,15.371,54.526,18.97,70.607.06.265.114.519.169.768C1139.059,595.151,1139.49,597.139,1139.49,597.139Z" transform="translate(-895.514 -439.159)"/><path class="r" d="M1040.418,499.615c-3.32,4.06-10.933,8.116-15.156,5.179-6.232-4.329-17.582-4.655-19.288-14.408-.677-3.858,1.654-5.14,4.718-5.272a93.525,93.525,0,0,1,10.05,4.236c1.727.845,8.016,15.28,18.982,10.572C1039.957,499.821,1040.19,499.72,1040.418,499.615Z" transform="translate(-897.926 -439.277)"/><path class="s" d="M1096.361,793.571" transform="translate(-900.214 -447.073)"/><path class="t" d="M1029.172,515.236l11.935,26.009,28.192,4.913-21.048,19.388,4.039,28.33-24.943-14.026-25.695,12.6,5.632-28.057-19.92-20.545,28.424-3.314Z" transform="translate(-897.459 -440.038)"/><g transform="translate(32.296 123.49)"><path class="p" d="M929.309,577.278c.054,1.007-3.605,31.944,2.449,39.493s50.4,31.035,63.122,34c0,0-6.826-11.742-7.139-12.645s-39.751-32.076-41.353-36.465c-.547-1.5,5.533-15.8.745-31.391S929.309,577.278,929.309,577.278Z" transform="translate(-928.261 -564.78)"/><g transform="translate(62.678 75.491)"><path class="p" d="M993.489,642.228c.828.531,12.115,4.3,15.582,8.259s8.149,10.229,10.457,11.9c2.716,1.962,1.911,3.531-1.575,1.527a43.63,43.63,0,0,1-7.114-5.152c-.321-.415,2.082,2.058,4.964,4.551,3.064,2.65,6.611,5.364,6.02,6.03-1.145,1.292-10.677-5.835-12.034-7.322a41.178,41.178,0,0,0,3.644,3.872c1.779,1.652,4.177,3.287,3.988,4.082-.3,1.254-6.083-1.989-9.6-5.577-.21.045.453,1.545,5,5.476.456.395,1.053,1.809-.934.867-4.182-1.98-6.2-2.5-9.729-7.193-3.441-4.575-5.863-10.614-9.59-13Z" transform="translate(-992.565 -642.228)"/><path class="p" d="M1007.424,648.954s7.182.292,10.785,3.829c2.142,2.1,2.848,1.51,3.358,1.764,1.691.845-2.34,1.75-4.57.258-1.811-1.212-5.952.363-7.391-.114s-4.891-2.517-4.933-3.615S1007.424,648.954,1007.424,648.954Z" transform="translate(-992.871 -642.398)"/></g><path class="p" d="M993.229,642.049s-2.354-.867-8.1-5.624-1.059,5.091-1.059,5.091L995,650.8Z" transform="translate(-929.627 -566.558)"/></g><g transform="translate(131.373 111.741)"><path class="p" d="M1118.861,564.815c-.022,1.008,4.611,31.814-1.2,39.55s-49.4,32.609-62.02,35.968c0,0,6.453-11.95,6.736-12.863s38.721-33.313,40.183-37.751c.5-1.515-6.028-15.617-1.734-31.352S1118.861,564.815,1118.861,564.815Z" transform="translate(-1030.558 -552.727)"/><g transform="translate(0 77.021)"><path class="p" d="M1057.679,631.745c-.811.558-11.974,4.685-15.315,8.746s-7.821,10.481-10.077,12.22c-2.653,2.047-1.8,3.59,1.623,1.477a43.616,43.616,0,0,0,6.948-5.374c.307-.425-2.017,2.122-4.818,4.7-2.979,2.746-6.439,5.57-5.828,6.217,1.185,1.254,10.488-6.168,11.8-7.7a41.073,41.073,0,0,1-3.52,3.987c-1.726,1.707-4.07,3.417-3.857,4.205.336,1.244,6.017-2.18,9.424-5.877.212.038-.4,1.558-4.825,5.63-.445.409-1,1.841.96.838,4.117-2.111,6.118-2.7,9.5-7.5,3.295-4.681,5.526-10.792,9.176-13.3Z" transform="translate(-1029.913 -631.745)"/><path class="p" d="M1044.257,638.909s-7.168.518-10.66,4.167c-2.074,2.169-2.8,1.6-3.3,1.869-1.664.9,2.394,1.676,4.575.115,1.773-1.268,5.96.173,7.385-.347s4.81-2.671,4.817-3.769S1044.257,638.909,1044.257,638.909Z" transform="translate(-1029.907 -631.926)"/></g><path class="p" d="M1058.354,631.557s2.325-.941,7.916-5.877,1.219,5.056,1.219,5.056l-10.627,9.626Z" transform="translate(-1030.589 -554.536)"/></g><path class="q" d="M918.947,593.7l35.424,2.033,7.831-37.2-15.768-20.045-17.58,11.639-9.87,42.209" transform="translate(-895.73 -440.626)"/><path class="q" d="M1087.6,587.093l-2.73,14.233,35.564-1.374s4.991-22.625,3.728-23.962-17.087-40.789-17.087-40.789l-14.8,3.483-9.892,12.723-.24,23.831Z" transform="translate(-899.854 -440.543)"/></g><g transform="translate(897.391 402.674)"><path class="u" d="M913.653,436.241c0-8.874,13.674-8.728,13.674-20.948,0-6.256-3.054-10.474-7.564-10.474-5.092,0-5.819,3.491-6.255,6.691-.583,3.056-1.455,6.4-5.675,6.4a4.809,4.809,0,0,1-4.946-4.946c0-5.528,7.71-10.038,17.456-10.038,9.02,0,16.585,4.51,16.585,13.82,0,13.239-18.62,16-18.62,28.077a8.094,8.094,0,0,0,.581,3.055c.146.582-1.309,1.019-1.454.582A27.908,27.908,0,0,1,913.653,436.241Zm-1.6,31.714c0-3.637,2.327-5.964,6.4-5.964,3.927,0,6.11,2.328,6.11,5.964,0,4.073-2.182,6.4-6.11,6.4C914.38,474.356,912.053,472.028,912.053,467.955Z" transform="translate(-902.888 -402.928)"/></g><path class="u" d="M725.978,595.336l.006-.012.008-.016,16.665-35.559h0l.285-.606L715.617,550.4l-1.947,4.229-12.81,27.4a8.542,8.542,0,0,0-4.458-4.821c-4.042-1.912-8.695-.555-10.391,3.031s.246,7.958,4.288,9.87c3.994,1.89,8.481.8,10.367-2.99l.009,0-.029.06.006-.018c0-.007,0-.016.009-.022L713.7,559.326l23.545,7.212-11.058,23.652a8.546,8.546,0,0,0-4.457-4.823c-4.043-1.912-8.695-.556-10.391,3.03s.166,8.126,4.208,10.039c3.994,1.89,8.566.62,10.287-2.821l.008,0Zm-11.288-38.119.886-1.89,23.469,7.368-.81,1.733Z" transform="translate(0 -3.982)"/><path class="u" d="M791.506,711.193a18.33,18.33,0,0,1-.789-2.777,13.827,13.827,0,0,1-.317-3.065,11.468,11.468,0,0,1,.487-3.338,10.031,10.031,0,0,1,1.644-3.221,11.066,11.066,0,0,1,2.6-2.448,13.189,13.189,0,0,1,2.954-1.509,16.484,16.484,0,0,1,2.986-.816c.585-.1,1.168-.179,1.752-.239a26.006,26.006,0,0,1-1.848-4.026,21.34,21.34,0,0,1-.792-2.824,18.727,18.727,0,0,1-.371-2.961,14.021,14.021,0,0,1,.963-5.933,10.87,10.87,0,0,1,.66-1.35c.118-.21.256-.436.4-.654s.23-.34.412-.576a18.856,18.856,0,0,1,1.873-2.139,13.2,13.2,0,0,1,1.065-.955,13.6,13.6,0,0,1,1.138-.878,18.42,18.42,0,0,1,2.494-1.5,18.948,18.948,0,0,1,5.654-1.808c.3-.048.6-.069.894-.1-.383-1.091-.775-2.182-1.135-3.283-.431-1.251-.836-2.507-1.236-3.77-.208-.632-.4-1.263-.589-1.9l-.572-1.9q-.554-1.914-1.074-3.833c-.344-1.285-.675-2.573-.979-3.87s-.6-2.6-.869-3.909-.515-2.629-.7-3.973a.334.334,0,0,1,.61-.23c.743,1.135,1.415,2.295,2.087,3.452s1.3,2.335,1.921,3.518,1.216,2.365,1.8,3.557,1.156,2.391,1.714,3.595l.822,1.809c.272.6.545,1.207.805,1.814q.794,1.82,1.551,3.656c.517,1.218,1,2.45,1.484,3.678s.954,2.466,1.385,3.716l.145.421a2.809,2.809,0,0,1-1.728,3.535,2.668,2.668,0,0,1-2.027-.222,3.326,3.326,0,0,0-.413-.207l-.529-.165c-.635.759-.743-.168-1.112-.264-.743-.216-1.494-.413-2.264-.581a12.783,12.783,0,0,0-4.733-.173,7.931,7.931,0,0,0-2.273.76,8.236,8.236,0,0,0-1.968,1.4,9.768,9.768,0,0,0-1.492,1.917c-.071.119-.212.377-.294.542s-.152.322-.218.509a6.171,6.171,0,0,0-.309,1.1,6.852,6.852,0,0,0-.052,2.275,10.141,10.141,0,0,0,.549,2.235,18.631,18.631,0,0,0,.951,2.142c.382.694.747,1.391,1.18,2.065.855,1.351,1.749,2.7,2.747,3.983.5.642,1.023,1.272,1.561,1.88l.818.9c.262.284.57.606.792.811a3.277,3.277,0,0,1-2.46,5.665l-.532-.042-.468-.031-.548-.034c-.365-.016-.738-.023-1.109-.021-.739,0-1.477.007-2.2.066s-1.427.13-2.1.25a16.616,16.616,0,0,0-1.91.452,9.11,9.11,0,0,0-1.593.675,4.7,4.7,0,0,0-1.178.884,4,4,0,0,0-.812,1.174,6.212,6.212,0,0,0-.483,1.612,13.6,13.6,0,0,0,.1,4.162c.111.746.268,1.506.446,2.275.2.763.391,1.544.633,2.316s.476,1.564.746,2.34l.842,2.352.9,2.366c.3.793.62,1.583.914,2.394v.008a.333.333,0,0,1-.2.426.325.325,0,0,1-.349-.077,41.775,41.775,0,0,1-3.468-3.87l-.8-1.028-.764-1.069c-.5-.723-.986-1.457-1.447-2.216s-.893-1.551-1.291-2.366A25.375,25.375,0,0,1,791.506,711.193Z" transform="translate(-2.654 -6.278)"/><g transform="translate(809.434 490.141)"><path class="u" d="M843.375,530.249c-2.146-.3-4.89.63-6.749,1.574-.977.5-.983.757-1.845.334-.8-.392-1.682-1.909-2.282-2.589l-4.552-5.158a22.963,22.963,0,0,0-8.132-30.544c-1.577-.971-3.65-1.736-5.206-.73a4.913,4.913,0,0,0-1.78,3.61,23.762,23.762,0,0,0,2.141,12.83,45.553,45.553,0,0,0,7.3,10.916,2.4,2.4,0,0,1,.637,1.065,2.367,2.367,0,0,1-.267,1.314c-2.532,6.074-5.394,12.373-4.825,18.929a18.921,18.921,0,0,0,4.473,10.624,15.026,15.026,0,0,0,10.4,5.443,19.535,19.535,0,0,0,7.7-1.538,24.973,24.973,0,0,0,8.581-5.025c1.3,1.526,2.558,3.091,3.756,4.7.946,1.268,1.908,2.561,2.759,3.908.272.43.482.88.733,1.32a6.807,6.807,0,0,1,.529,3.081,7.406,7.406,0,0,1-.2,1.371,10.5,10.5,0,0,1-1.843,3.736,8.2,8.2,0,0,1-2.163,2.026,7.149,7.149,0,0,1-1.338.669l-.123.045a6.327,6.327,0,1,0-8.716,1.959l-.037.008c.163.105.328.182.492.275.065.033.126.074.191.105,5.458,2.9,11.611-.943,11.611-.943a9.282,9.282,0,0,0,2.135-1.639,10.774,10.774,0,0,0,2.975-4.966,10.414,10.414,0,0,0,.328-2.781,8.264,8.264,0,0,0-.3-2.281,9.8,9.8,0,0,0-1.512-2.779,72.49,72.49,0,0,0-4.628-5.749l-1.147-1.319-2.051-2.358-.1-.119s4.394-4.544,2.861-9.782C853.186,539.791,851.137,531.353,843.375,530.249Zm-28.2-27.492a4.571,4.571,0,0,1,8.259-2.085s3.594,4.779,2.019,12.441a39.58,39.58,0,0,1-1.727,6.473l-2-2.255c-.146-.166-.446-.63-.583-.8a44.161,44.161,0,0,1-5.506-9.029A9.748,9.748,0,0,1,815.171,502.757ZM833.382,554.9a12.564,12.564,0,0,1-8.342-5.289c-2.087-3.282-2.134-7.466-1.52-11.308a38.125,38.125,0,0,1,3.648-11.232l5.122,5.547a2.441,2.441,0,0,1,.784,1.348,2.735,2.735,0,0,1-.609,1.588,12.044,12.044,0,0,0-.175,11.975,8.276,8.276,0,0,0,3.185,3.452,4.367,4.367,0,0,0,4.519-.1c-.554.4-2.95-1.608-3.328-1.967a9.224,9.224,0,0,1-2.351-3.635,6.479,6.479,0,0,1,2.5-7.652c3.459,3.813,7.542,8.356,11.047,12.381l.052.06A16.1,16.1,0,0,1,833.382,554.9Zm15.742-6.608-1.513-1.771c-.04-.05-.071-.1-.114-.154l-8.792-9.9c1.555-.781,6.2-2.453,10.516,2.576C849.222,539.037,852.587,542.755,849.124,548.288Z" transform="translate(-812.65 -492.663)"/></g></g></svg>