<svg xmlns="http://www.w3.org/2000/svg" width="111.12" height="111.794" viewBox="0 0 111.12 111.794"><defs><style>.a{fill:#7fd1d8;}.b{fill:#fff;}</style></defs><g transform="translate(-0.002 0)"><path class="a" d="M638.987,307.066s35.907-33.967,68.322-7.9,21.727,80.708,15.944,88.5-13.379,13.451-47.115,13.447-58.883-16.534-57.53-52.069C618.607,349.05,619.423,327.926,638.987,307.066Z" transform="translate(-618.554 -289.326)"/><path class="b" d="M693,342.4a.662.662,0,0,1,.023,1.146l-16.748,10.136-16.747,10.135a.663.663,0,0,1-1.005-.554l-.4-19.571-.4-19.572a.662.662,0,0,1,.981-.593l17.151,9.436Z" transform="translate(-611.984 -283.601)"/></g></svg>