<svg xmlns="http://www.w3.org/2000/svg" xmlns:xlink="http://www.w3.org/1999/xlink" width="745.242" height="347.228" viewBox="0 0 745.242 347.228"><defs><style>.a{fill:none;}.b{fill:#b6d7db;opacity:0.49;}.c{fill:#f7c042;stroke:#d1a338;stroke-width:0.828px;}.c,.d,.h,.p{stroke-miterlimit:10;}.d{fill:#5998f7;}.d,.h,.p{stroke:#4b81d1;}.e,.f,.q{fill:#fff;}.e{font-size:16px;}.e,.q{font-family:BPGArial, BPG Arial;}.f{opacity:0.76;}.g{fill:#8f6ef6;}.h,.p{fill:#6aa2f7;}.h{stroke-width:0.203px;}.i{clip-path:url(#a);}.j{fill:#d19442;}.k,.o{fill:#d8a35d;}.l{fill:#ffc84f;}.m{fill:#947dce;}.n{opacity:0.15;}.o{fill-rule:evenodd;}.p{stroke-width:0.652px;}.q{font-size:25px;}</style><clipPath id="a"><path class="a" d="M502.338,689.292c80.416,24.854,127.484,39.4,197.918,41.357,94.855,2.633,184.232,5.115,234.845-50.219,25.269-27.626,37.182-65.625,84.189-87.143,14.946-6.84,30.618-10.725,41.356-26.587,17.439-25.757,6.787-60.826,4.431-67.942-17.43-52.618-77.645-74.79-115.206-88.621C908.43,394.88,832.828,367.043,765.244,399.8c-59.214,28.7-71.208,84.01-116.683,81.236-23.687-1.447-26.914-16.848-57.6-31.018C542.363,427.582,462.8,425.731,412.24,473.649c-38.576,36.555-60.86,102.628-36.925,149.179C381.25,634.369,396.06,656.446,502.338,689.292Z" transform="translate(-365.42 -384.526)"/></clipPath></defs><g transform="translate(-343.927 -384.526)"><path class="b" d="M502.338,689.292c80.416,24.854,127.484,39.4,197.918,41.357,94.855,2.633,184.232,5.115,234.845-50.219,25.269-27.626,37.182-65.625,84.189-87.143,14.946-6.84,30.618-10.725,41.356-26.587,17.439-25.757,6.787-60.826,4.431-67.942-17.43-52.618-77.645-74.79-115.206-88.621C908.43,394.88,832.828,367.043,765.244,399.8c-59.214,28.7-71.208,84.01-116.683,81.236-23.687-1.447-26.914-16.848-57.6-31.018C542.363,427.582,462.8,425.731,412.24,473.649c-38.576,36.555-60.86,102.628-36.925,149.179C381.25,634.369,396.06,656.446,502.338,689.292Z" transform="translate(3.698)"/><path class="c" d="M511.185,513.45H427.413l-4.382,4.228h-7.518l-4.7-4.072h-5.5a2.815,2.815,0,0,1-.465-.14,1.639,1.639,0,0,0-1.473,1.628v21.023a1.644,1.644,0,0,0,1.644,1.644h5.868l4.623,4.008h7.518l4.154-4.008h84a1.644,1.644,0,0,0,1.644-1.644V515.094A1.644,1.644,0,0,0,511.185,513.45Z" transform="translate(10.383 22.708)"/><g transform="translate(344.427 439.565)"><path class="d" d="M594.513,431.322H402.008l-10.5,10.13H373.5L362.248,431.7H349.069a6.727,6.727,0,0,1-1.114-.333,3.926,3.926,0,0,0-3.528,3.9v50.366a3.94,3.94,0,0,0,3.939,3.939h14.057l11.076,9.6H391.51l9.951-9.6H594.513a3.939,3.939,0,0,0,3.939-3.939V435.262A3.939,3.939,0,0,0,594.513,431.322Z" transform="translate(-344.427 -431.322)"/><text class="e" transform="translate(28.565 35.054)"><tspan x="-12.449" y="0">ask</tspan></text><text class="e" transform="translate(197.275 35.054)"><tspan x="-29.797" y="0">and wait</tspan></text><rect class="f" width="96.749" height="33.994" rx="14.451" transform="translate(56.118 13.301)"/></g><rect class="g" width="87.935" height="30.556" rx="12.99" transform="translate(1001.235 518.743)"/><rect class="h" width="50.19" height="17.44" rx="7.414" transform="translate(930.194 564.031)"/><g transform="translate(369.117 384.526)"><g class="i"><g transform="translate(151.397 87.718)"><path class="j" d="M665.744,514.61s-1.661,18.535,9.771,28.784c7.421,6.655-10.578,36.007-22.087,34.4-6.219-.87-8.492-32.361-8.492-32.361s11.262-19.787,9.685-30.819S665.744,514.61,665.744,514.61Z" transform="translate(-467.584 -450.194)"/><ellipse class="k" cx="19.987" cy="27.27" rx="19.987" ry="27.27" transform="translate(172.143 17.063)"/><g transform="translate(166.783)"><g transform="translate(4.218 7.604)"><path class="l" d="M651.575,486.711s34.6,19.185,24.332-11.618C668.8,453.782,627.976,472.979,651.575,486.711Z" transform="translate(-638.696 -465.572)"/><path class="l" d="M657.432,479.146s-19.36,11.487-17.493,23.011c0,0-4.269-34.4,14.982-35.27s26.7.994,24.993,37.375C679.914,504.262,674.321,475.322,657.432,479.146Z" transform="translate(-639.536 -465.366)"/></g><path class="l" d="M651.9,468.456s.973-10.719,11.6-9.2,15.182,7.591,16.7,13.663,3.037,10.628,4.554,10.628c0,0-4.554,4.554-6.072,3.037,0,0,3.941,10.918-1.065,19.881,0,0-1.97-13.809-9.561-15.327S651.9,468.456,651.9,468.456Z" transform="translate(-633.14 -459.107)"/><path class="l" d="M655.686,467.122s-7.591-4.554-15.182,6.072L635.95,482.3s1.517,1.518,4.554,0c0,0-1.383,10.7.067,16.734l4.487-18.252Z" transform="translate(-635.95 -457.866)"/></g><path class="m" d="M785.027,682.24c-19.16,1.039-28.011-26.328-28.186-23.838-.942,13.308.6,30.018-9.027,38.895-21.793,20.1-66.332,24.3-104.747,13.845-20.925-5.694-35.858-29.382-26.543-48.965.142-.3,4.083.019,4.221-.253-4.271,6.363-16.775,19.34-33.145,19.265-.212-.165-.412-.341-.623-.517-11.185-9.3-23.369-21.218-29.52-32.438-14.337-26.122,9.5-56.784,11.631-61.042,2.129-4.234,4.318-8.174,6.6-11.855a2.032,2.032,0,0,1,.187-.306c1.717-2.787,3.5-5.422,5.329-7.916a91.715,91.715,0,0,1,39.211-31.132c18.714-8.033,41.118-12.773,45.681-3.94l.035.071c1.059,2.094.964,4.587.894,7.045q-.035.935-.035,1.835c0,2.34.282,4.528,1.894,6.151,2.917,2.905,8.246,2.164,11.7-.659,4-3.246,5.832-9.55,4.468-15.748a104.5,104.5,0,0,1,40.306-.047c1.941.376,3.916.835,5.941,1.352,10.8,2.811,36.541,9.5,54.771,29.392a66.38,66.38,0,0,1,4.469,5.363c.129.153.235.306.354.459a.37.37,0,0,1,.058.094,73,73,0,0,1,11.657,23.782q.792,2.717,1.375,5.54C809.361,621.818,809.019,680.939,785.027,682.24Z" transform="translate(-483.796 -447.097)"/><path class="n" d="M749.183,640.968c.282-1.07-3.27-4.058-3.916-4.787a46.944,46.944,0,0,1-5.14-7.022c-4.093-6.892-6.363-15.031-5.316-23.052,1.106-8.539,5.634-16.078,9.092-23.8a48.82,48.82,0,0,0,3.987-12.161c.729-4.469,1.223-8.468,4.34-12.114a7.327,7.327,0,0,1,1.847-1.705,71.166,71.166,0,0,1,4.822,5.822.4.4,0,0,1,.059.094,73.4,73.4,0,0,1,5.787,17.948c.353,1.858.635,3.74.847,5.657Z" transform="translate(-451.799 -441.984)"/><path class="o" d="M525.816,536.274s-3.517-8.835-9.927-12.634c-3.81-2.258-3.3-3.243-3.873-3.826-1.892-1.935-1.382,3.225,1.629,5.705,2.446,2.016,2.088,7.437,3.365,9.13s5.571,5.583,7.094,5.429S525.816,536.274,525.816,536.274Z" transform="translate(-491.192 -448.489)"/><path class="o" d="M543.666,551.556c-1.087-.926-11.156-14.192-18.077-17.743s-17.55-8.169-20.838-10.716c-3.867-2.994-5.667-1.7-1.408,2.237,2.767,2.56,8.688,7.185,10.147,7.841.707.318-3.724-2.194-8.391-5.293-4.961-3.3-10.217-7.179-10.873-6.324-1.273,1.661,12.627,12.125,15.254,13.526a74.563,74.563,0,0,1-6.887-3.786c-3.034-1.892-6.315-4.554-7.324-4.172-1.588.6,5.368,7.159,11.811,10.846.029.268-2.313-.272-9.671-5.164-.74-.492-2.936-.964-.785,1.318,4.528,4.806,6.121,7.206,14.078,10.695,7.76,3.4,17.085,5.27,21.976,9.436Z" transform="translate(-494.144 -448.128)"/><path class="m" d="M619.823,653.305c-.247,7.127-2.2,13.455-6.716,18.089a19.571,19.571,0,0,1-1.882,1.694c-4.775,3.858-10.938,5.422-17.136,5.775a56.119,56.119,0,0,1-5.8,0,82.04,82.04,0,0,1-20.876-4.128c-39.448-14.067-48.351-64.182-49.385-70.533a104.777,104.777,0,0,1,1.692-41.282c1.623-3.164-3.67-9.762-3.67-9.762l8.609-4.893,10.209-5.787,3.481-1.976s9.493,5.94,8.68,7.1a135.182,135.182,0,0,1,32.908,22.746c.812.753,1.624,1.541,2.423,2.352a120.664,120.664,0,0,1,15.737,19.23l.035.047c.483.729.953,1.47,1.423,2.223a165.4,165.4,0,0,1,10.891,20.771C615.836,627.277,620.223,641.414,619.823,653.305Z" transform="translate(-490.285 -444.77)"/><path class="o" d="M818.265,526.112s3.079-9,9.293-13.108c3.694-2.443,3.14-3.4,3.681-4.012,1.794-2.025,1.538,3.153-1.347,5.779-2.344,2.134-1.718,7.53-2.911,9.284s-5.29,5.851-6.819,5.772S818.265,526.112,818.265,526.112Z" transform="translate(-437.055 -450.401)"/><path class="o" d="M806.269,542.255c1.04-.979,10.443-14.724,17.182-18.611s17.127-9.025,20.285-11.73c3.714-3.181,5.575-1.981,1.516,2.165-2.638,2.693-8.324,7.6-9.749,8.331-.69.353,3.612-2.373,8.12-5.7,4.793-3.535,9.853-7.673,10.549-6.851,1.353,1.6-12.016,12.733-14.57,14.261A74.581,74.581,0,0,0,846.3,520c2.938-2.041,6.083-4.86,7.109-4.528,1.616.525-5.008,7.414-11.261,11.414-.018.269,2.3-.385,9.406-5.635.714-.527,2.884-1.108.848,1.278-4.286,5.023-5.758,7.5-13.535,11.376-7.584,3.78-16.8,6.1-21.484,10.506Z" transform="translate(-439.168 -450.186)"/><path class="m" d="M836.7,549.45a40.932,40.932,0,0,1,6.711-10.3l-24.3-13.514s-4.7,7.139-4.015,8.371c-13.5,5.114-41.836,14.116-60.887,38.82C741.02,589.91,714.872,640.4,730.068,659.4c12.444,15.565,7.719,25.25,31.373,21.253,41.3-6.98,71.283-83.728,72.93-89.953A104.677,104.677,0,0,0,836.7,549.45Z" transform="translate(-453.401 -447.389)"/><path class="m" d="M736.556,655.315a54.739,54.739,0,0,1-10.281,9.821,710.748,710.748,0,0,0-77.919-12.585c-29.614-3.152-38.106-2.388-51.267-3-6.539-15.69-2.764-33.72,3.633-49.339,11.527-28.145,43.494-34.484,57.032-37.166,9.937-1.976,56.549-11.209,79.448,20.5C751.728,603.682,752.834,634.968,736.556,655.315Z" transform="translate(-476.613 -441.287)"/><path class="n" d="M708.51,530.472c-2.393,2.846-8.814,6.751-12.255,6.61-4.177-.165-10.6,4.1-17.029,8.045s-14.281,14.76-24.555,10.338-4.5-16.525-4.5-16.525h.012c-.1,3-.183,5.94,1.852,7.986,2.912,2.905,8.251,2.164,11.7-.659,4-3.246,5.834-9.55,4.465-15.748A104.52,104.52,0,0,1,708.51,530.472Z" transform="translate(-466.947 -446.879)"/></g><path class="g" d="M414.059,562.55H379.119l-2.325,2.243H372.8l-2.491-2.161H367.4a1.479,1.479,0,0,1-.247-.074.871.871,0,0,0-.781.863v11.152a.872.872,0,0,0,.873.873h3.112l2.452,2.126h3.988l2.2-2.126h35.062a.872.872,0,0,0,.873-.873V563.422A.872.872,0,0,0,414.059,562.55Z" transform="translate(-365.253 -353.169)"/><g transform="translate(520.767 59.693)"><rect class="p" width="161.304" height="56.05" rx="23.828" transform="translate(0)"/><text class="q" transform="translate(78.133 34.69)"><tspan x="-40.295" y="0">answer</tspan></text></g></g></g></g></svg>