<svg xmlns="http://www.w3.org/2000/svg" width="342.491" height="162.312" viewBox="0 0 342.491 162.312"><defs><style>.a{fill:#f7c042;stroke:#d1a338;stroke-width:1.147px;}.a,.d,.f{stroke-miterlimit:10;}.b,.e{fill:#fff;}.b{font-size:19px;}.b,.g{font-family:BPGArial, BPG Arial;}.c{font-family:BPGArial;}.d{fill:#5998f7;stroke:#4b81d1;}.f{fill:none;stroke:#cc9e35;}.g{font-size:15px;}</style></defs><g transform="translate(-270.569 -4222.301)"><path class="a" d="M579.939,4243.407H398.3a114.1,114.1,0,0,0-65.673-20.528c-30.762.264-52.081,16.845-60.713,22.576-.039.03-.072.065-.133.108a4.345,4.345,0,0,0-.634,2.26v56.458a4.415,4.415,0,0,0,4.416,4.416h15.758q6.206,5.383,12.414,10.764h20.191l11.155-10.764H579.939a4.416,4.416,0,0,0,4.416-4.416v-56.458A4.416,4.416,0,0,0,579.939,4243.407Z"/><text class="b" transform="translate(310.743 4277.461)"><tspan x="-22.711" y="0">when</tspan><tspan class="c"><tspan x="0" y="23"></tspan></tspan></text><text class="b" transform="translate(380.852 4277.461)"><tspan x="-25.086" y="0">space</tspan><tspan class="c"><tspan x="0" y="23"></tspan></tspan></text><text class="b" transform="translate(506.097 4279.143)"><tspan x="-50.956" y="0">key pressed</tspan></text><path class="d" d="M608.161,4287.951H335.445l-11.724,11.312H303.608q-6.283-5.448-12.564-10.894H276.327a7.415,7.415,0,0,1-1.245-.373,4.385,4.385,0,0,0-3.939,4.353v56.245a4.4,4.4,0,0,0,4.4,4.4h15.7l12.368,10.723h20.114q5.556-5.363,11.113-10.723H608.161a4.4,4.4,0,0,0,4.4-4.4v-56.245A4.4,4.4,0,0,0,608.161,4287.951Z" transform="translate(0 20.396)"/><text class="b" transform="translate(304.642 4348.858)"><tspan x="-14.783" y="0">ask</tspan></text><text class="b" transform="translate(547.189 4348.858)"><tspan x="-35.384" y="0">and wait</tspan></text><rect class="e" width="159.539" height="37.961" rx="14.451" transform="translate(333.811 4323.2)"/><rect class="f" width="93.466" height="28.59" rx="1.884" transform="translate(347.006 4259.423)"/><path class="e" d="M385.415,4259.387h12.1L391.7,4265.2Z" transform="translate(35.814 11.444)"/><text class="g" transform="translate(409.317 4348.485)"><tspan x="-64.534" y="0">What’s your name?</tspan></text></g></svg>