<svg xmlns="http://www.w3.org/2000/svg" width="402" height="307.592" viewBox="0 0 402 307.592">
    <defs>
        <style>
            .a{fill:#ce521f;}.b{fill:#ebebeb;}.c{fill:#8e96a3;}.d{fill:#292929;}.e{fill:#d0d1d6;}.f{fill:#2b579a;}.g{fill:#fff;}.h,.i{fill:#25aef3;}.i{opacity:0.11;}.j{fill:#fdfdfd;}.k{fill:#fcb827;}.l{fill:#fefcf9;}.m{fill:#63be96;}.n{fill:#006384;}.o{fill:#a5e0d3;}.p{fill:#aaa081;}.q{fill:#78715c;}.r{fill:#cbaa46;}.s{fill:#008263;}.t{fill:#2e1a31;}.u{fill:#dfd1ba;}.v{fill:#b6d7db;opacity:0.49;}.w{fill:#4c97ff;}.x{fill:#96f;}.y{font-size:1px;}.ad,.y{font-family:BPGArial,
            BPG
            Arial;}.z{fill:#d65cd6;}.aa{fill:#ffd500;}.ab{fill:#ffab19;}.ac{fill:#4cbfe6;}.ad{font-size:2px;}.ae{fill:#40bf4a;}.af{fill:#ff8c1a;}.ag{fill:#ff6680;}.ah{fill:red;}.ai{fill:#272525;}
        </style>
    </defs>
    <g transform="translate(-474.53 -11275.893)">
        <g transform="translate(474.53 11275.893)">
            <g transform="translate(0 0)">
                <path class="a"
                      d="M513.923,11377.892h0a1.154,1.154,0,0,1-.675-1.481l.95-2.539,2.157.807-.95,2.54A1.154,1.154,0,0,1,513.923,11377.892Z"
                      transform="translate(-464.663 -11250.878)"/>
                <path class="a"
                      d="M523.5,11381.479h0a1.157,1.157,0,0,1-.675-1.482l.95-2.539c.064-.17,2.148.831,2.148.831l-.941,2.515A1.155,1.155,0,0,1,523.5,11381.479Z"
                      transform="translate(-462.219 -11249.966)"/>
                <path class="b"
                      d="M513.74,11377.693h0a1.153,1.153,0,0,1-.675-1.481l1.039-2.779a1.152,1.152,0,0,1,1.482-.673h0a1.151,1.151,0,0,1,.674,1.479l-1.039,2.779A1.155,1.155,0,0,1,513.74,11377.693Z"
                      transform="translate(-464.71 -11251.179)"/>
                <path class="b"
                      d="M523.294,11381.27h0a1.156,1.156,0,0,1-.675-1.482l1.041-2.779a1.152,1.152,0,0,1,1.481-.673h0a1.154,1.154,0,0,1,.674,1.481l-1.039,2.778A1.158,1.158,0,0,1,523.294,11381.27Z"
                      transform="translate(-462.271 -11250.268)"/>
                <rect class="c" width="7.549" height="4.894"
                      transform="matrix(0.937, 0.35, -0.35, 0.937, 45.995, 153.073)"/>
                <rect class="c" width="7.549" height="4.894" transform="translate(49.264 144.997) rotate(20.511)"/>
                <path class="d"
                      d="M867.117,11541.437l-383.421-1.969c-4.258-.021-8.743-2.193-9.166-8.447l.029-5.747,42.368-77.337a13.358,13.358,0,0,1,12-7.356l293.414,1.508c5.476.027,17.494,10.874,19.915,15.785l34.261,70.761-.013,2.534C876.555,11538.52,871.787,11541.46,867.117,11541.437Z"
                      transform="translate(-474.53 -11233.845)"/>
                <path class="e"
                      d="M867.18,11534.968,483.759,11533c-4.258-.022-11.247-3.791-8.591-8.369l41.822-83.161a13.353,13.353,0,0,1,12-7.354l293.413,1.5a14.453,14.453,0,0,1,12.888,8.06l40.553,82.2C878.692,11531.123,871.849,11534.991,867.18,11534.968Z"
                      transform="translate(-474.517 -11235.498)"/>
                <rect class="e" width="198.413" height="313.997" rx="9.145"
                      transform="translate(42.45 198.41) rotate(-89.706)"/>
                <rect class="d" width="289.774" height="171.927" transform="translate(55.468 10.884) rotate(0.294)"/>
                <path class="d"
                      d="M702.29,11518.236l-112.978-.578a2.041,2.041,0,0,1-2-2.372l4.917-29.734a3.311,3.311,0,0,1,3.283-2.769l101.9.523a2.907,2.907,0,0,1,2.865,2.5l4.213,29.947A2.207,2.207,0,0,1,702.29,11518.236Z"
                      transform="translate(-445.743 -11223.072)"/>
                <path class="f"
                      d="M819.351,11487.315l-306.968-1.577c-3.406-.017-6-1.338-5.451-2.783l13.122-34.671c.708-1.87,4.479-3.229,8.9-3.208l276.872,1.422c3.924.02,7.247,1.273,7.8,2.944l11.686,35C825.767,11485.983,822.968,11487.335,819.351,11487.315Z"
                      transform="translate(-466.276 -11232.698)"/>
                <g transform="translate(39.797 205.302)">
                    <rect class="e" width="320.12" height="1.617" transform="translate(0.145 12.945) rotate(0.294)"/>
                    <rect class="e" width="320.12" height="1.617" transform="translate(0.104 21.029) rotate(0.294)"/>
                    <rect class="e" width="320.12" height="1.617" transform="translate(0.054 30.729) rotate(0.294)"/>
                    <rect class="e" width="320.12" height="1.617" transform="translate(0.008 39.622) rotate(0.294)"/>
                    <rect class="e" width="2.425" height="53.353" transform="translate(38.98 0.266) rotate(17.733)"/>
                    <rect class="e" width="2.425" height="53.353" transform="translate(62.423 0.386) rotate(17.733)"/>
                    <rect class="e" width="2.425" height="53.353" transform="translate(81.015 0.482) rotate(17.733)"/>
                    <rect class="e" width="2.425" height="53.353" transform="translate(99.608 0.577) rotate(17.733)"/>
                    <rect class="e" width="2.425" height="53.353" transform="translate(119.009 0.677) rotate(17.733)"/>
                    <rect class="e" width="2.425" height="53.353" transform="translate(138.698 0.172) rotate(11.272)"/>
                    <rect class="e" width="2.425" height="53.353" transform="translate(155.423 0) rotate(0.294)"/>
                    <rect class="e" width="2.425" height="53.353" transform="translate(280.858 2.235) rotate(-17.145)"/>
                    <rect class="e" width="2.425" height="53.353" transform="translate(258.223 2.118) rotate(-17.145)"/>
                    <rect class="e" width="2.425" height="53.353" transform="translate(235.589 2.002) rotate(-17.145)"/>
                    <rect class="e" width="2.425" height="53.353" transform="translate(212.955 1.887) rotate(-17.145)"/>
                    <rect class="e" width="2.425" height="53.353" transform="translate(190.32 1.77) rotate(-17.145)"/>
                    <rect class="e" width="2.425" height="53.353" transform="translate(167.686 1.654) rotate(-17.145)"/>
                </g>
            </g>
        </g>
        <g transform="translate(528.659 11285.973)">
            <rect class="g" width="293.013" height="173.478"/>
            <rect class="h" width="293.013" height="22.425" transform="translate(0)"/>
            <path class="i"
                  d="M810.663,11301.786H517.651v16.25h62.5v134.8h9.568v-134.8H732.4v134.8h9.569v-134.8h68.693Z"
                  transform="translate(-517.65 -11279.36)"/>
            <path class="j"
                  d="M521.151,11297.777a8,8,0,0,1,.336-2.624.759.759,0,0,0,0-.287,6.926,6.926,0,0,1,.758-3.6,4.258,4.258,0,0,1,3.516-2.237,1.234,1.234,0,0,0,.374-.081,3.71,3.71,0,0,1,4.435,1.108c.1.121.163.2.325.065a4.2,4.2,0,0,1,2.326-.827,12.619,12.619,0,0,1,2.917-.008.288.288,0,0,0,.24-.057,4.492,4.492,0,0,1,2.644-.964,6.65,6.65,0,0,1,1.883-.1,3.812,3.812,0,0,1,1.749.764.614.614,0,0,0,.439.146c1.445-.053,2.891-.042,4.336-.138a3.452,3.452,0,0,1,2.295.692.327.327,0,0,0,.447.007,3.56,3.56,0,0,1,2.069-.6,2.159,2.159,0,0,0,1.229-.258,2.667,2.667,0,0,1,1.358-.341,17.328,17.328,0,0,1,2.567,0,3.8,3.8,0,0,1,2.572,5.964.9.9,0,0,0-.2.655.98.98,0,0,1,0,.163,3.381,3.381,0,0,0,.443,1.921,3.764,3.764,0,0,1-2.942,5.547,8.02,8.02,0,0,0-1.452.241,3.567,3.567,0,0,1-3.065-.519,1.589,1.589,0,0,0-1.238-.122,6.4,6.4,0,0,1-3.879-.212.54.54,0,0,0-.311-.032,16.669,16.669,0,0,1-3.522.129,3.221,3.221,0,0,1-2.034-.868c-.215-.191-.462-.128-.688-.2-.287-.09-.441.055-.633.229a4.3,4.3,0,0,1-4.716.874,1.934,1.934,0,0,0-1.053-.1,10.244,10.244,0,0,0-1.972.506,5.405,5.405,0,0,1-4.54-.289,1.278,1.278,0,0,0-1.327.05,3.769,3.769,0,0,1-5.612-2.552A10.259,10.259,0,0,1,521.151,11297.777Zm2.159.089h-.044c0,.4-.01.8,0,1.2a1.617,1.617,0,0,0,1.018,1.556,1.567,1.567,0,0,0,1.806-.359.4.4,0,0,1,.333-.147,2.933,2.933,0,0,0,1.611-.354.23.23,0,0,1,.346.071,3.44,3.44,0,0,0,3.94.635,2.3,2.3,0,0,1,1.2-.369,13.065,13.065,0,0,0,2.061-.3.345.345,0,0,1,.314.074,2.356,2.356,0,0,0,3.7-.938.854.854,0,0,1,1-.277,1.608,1.608,0,0,0,1.755.177c.147-.07.2-.074.275.1a1.645,1.645,0,0,0,1.7,1.13c.685-.009,1.371-.033,2.056-.039a1.594,1.594,0,0,0,1.039-.366c.127-.11.2-.085.321.008a3.513,3.513,0,0,0,3.5.417c.1-.035.188-.116.3-.072a4.864,4.864,0,0,0,1.624.127.585.585,0,0,1,.492.225,1.389,1.389,0,0,0,1.5.524,14.073,14.073,0,0,1,1.987-.345,1.666,1.666,0,0,0,.748-2.988.514.514,0,0,1-.231-.481q.006-1.542-.009-3.085a.443.443,0,0,1,.207-.426,1.672,1.672,0,0,0-.95-3.034c-.621,0-1.242.014-1.863.028a1.237,1.237,0,0,0-.877.257,1.533,1.533,0,0,1-1.3.357c-.215-.007-.429,0-.643,0a1.63,1.63,0,0,0-1.322.623c-.068.082-.123.179-.24.2a1.846,1.846,0,0,0-.785.423.511.511,0,0,1-.753-.228,1.618,1.618,0,0,0-1.6-1.125c-1.5.1-3,.1-4.5.137a1.491,1.491,0,0,0-.832.206c-.186.122-.236.046-.319-.117a1.688,1.688,0,0,0-1.957-1c-.392.063-.783.121-1.177.163a1.675,1.675,0,0,0-1.5,1.1c-.054.137-.107.18-.255.125a8.113,8.113,0,0,0-4.03-.2,1.59,1.59,0,0,0-1.175.766.5.5,0,0,1-.222.22,3.888,3.888,0,0,1-1.692.518c-.572-.009-.569.079-.577-.508a1.628,1.628,0,0,0-.879-1.515,1.557,1.557,0,0,0-1.7.089.548.548,0,0,1-.385.1,2.274,2.274,0,0,0-2.4,1.471,4.868,4.868,0,0,0-.295,2.454.912.912,0,0,1-.125.784,1.141,1.141,0,0,0-.2.707C523.307,11297,523.31,11297.433,523.31,11297.866Z"
                  transform="translate(-516.76 -11282.85)"/>
            <path class="k"
                  d="M522.879,11297.432c0-.433,0-.865,0-1.3a1.136,1.136,0,0,1,.2-.707.912.912,0,0,0,.126-.784,4.862,4.862,0,0,1,.295-2.453,2.27,2.27,0,0,1,2.4-1.47.564.564,0,0,0,.385-.1,1.559,1.559,0,0,1,1.7-.089,1.629,1.629,0,0,1,.879,1.515c.009.586,0,.5.577.509a3.9,3.9,0,0,0,1.692-.519.5.5,0,0,0,.222-.219,1.594,1.594,0,0,1,1.175-.767,8.113,8.113,0,0,1,4.03.2c.148.054.2.012.255-.125a1.671,1.671,0,0,1,1.5-1.1c.394-.042.786-.1,1.177-.164a1.688,1.688,0,0,1,1.957,1c.083.164.133.24.319.118a1.509,1.509,0,0,1,.832-.208c1.5-.037,3-.035,4.5-.135a1.615,1.615,0,0,1,1.6,1.125.512.512,0,0,0,.753.227,1.834,1.834,0,0,1,.785-.422c.117-.024.172-.119.24-.2a1.634,1.634,0,0,1,1.322-.624c.213,0,.428-.006.643,0a1.539,1.539,0,0,0,1.3-.357,1.238,1.238,0,0,1,.877-.258c.621-.014,1.242-.033,1.863-.028a1.672,1.672,0,0,1,.95,3.034.443.443,0,0,0-.207.427q.015,1.541.009,3.085a.518.518,0,0,0,.231.481,1.665,1.665,0,0,1-.748,2.986,14.357,14.357,0,0,0-1.987.345,1.387,1.387,0,0,1-1.5-.523.575.575,0,0,0-.492-.223,4.89,4.89,0,0,1-1.624-.129c-.114-.045-.2.039-.3.073a3.514,3.514,0,0,1-3.5-.418c-.124-.093-.195-.117-.321-.008a1.582,1.582,0,0,1-1.039.365c-.685.009-1.371.031-2.056.039a1.645,1.645,0,0,1-1.7-1.129c-.07-.179-.128-.174-.275-.1a1.612,1.612,0,0,1-1.755-.178.854.854,0,0,0-1,.277,2.356,2.356,0,0,1-3.7.938.345.345,0,0,0-.314-.075,12.842,12.842,0,0,1-2.061.3,2.306,2.306,0,0,0-1.2.371,3.441,3.441,0,0,1-3.94-.636.23.23,0,0,0-.346-.071,2.924,2.924,0,0,1-1.611.354.4.4,0,0,0-.333.146,1.563,1.563,0,0,1-1.806.359,1.615,1.615,0,0,1-1.018-1.555c-.011-.4,0-.8,0-1.2Zm29.471-2.226h-.005q0,.863,0,1.722a1.521,1.521,0,0,1-.026.641c-.112.215-.388.049-.589.086s-.344.135-.352.354a.339.339,0,0,0,.352.382c.664.021,1.328.026,1.992.024a.327.327,0,0,0,.331-.364.335.335,0,0,0-.313-.354,2.032,2.032,0,0,0-.385-.009c-.2.016-.289-.054-.281-.274.015-.442.016-.887.005-1.33-.005-.2.058-.291.256-.322.54-.083,1.078-.177,1.615-.271.181-.034.277-.006.275.217-.008.77,0,1.539.008,2.306,0,.177-.054.247-.228.273a1.374,1.374,0,0,0-.746.27.363.363,0,0,0-.09.47.3.3,0,0,0,.414.132,3.935,3.935,0,0,1,.967-.229c.319-.039.64-.059.958-.1a.344.344,0,0,0,.334-.4.354.354,0,0,0-.4-.338.662.662,0,0,0-.192.015c-.251.073-.308-.028-.306-.275,0-1.665-.009-3.333-.01-5,0-.211-.087-.463.043-.629.105-.133.344-.034.521-.067a.353.353,0,0,0,.334-.369.333.333,0,0,0-.34-.361c-.653,0-1.307.019-1.959.046a.318.318,0,0,0-.3.355.336.336,0,0,0,.309.355,1.75,1.75,0,0,0,.417,0c.188-.017.237.066.237.243,0,.683,0,1.363.024,2.044.005.2-.073.264-.249.292-.54.085-1.078.176-1.614.277-.221.041-.282-.041-.276-.252.013-.465.008-.931.009-1.4,0-.545,0-.545.541-.595.021,0,.043,0,.064,0a.334.334,0,0,0,.324-.341.326.326,0,0,0-.313-.381c-.664-.018-1.328-.016-1.992,0a.327.327,0,0,0-.313.354.338.338,0,0,0,.333.364,1.266,1.266,0,0,0,.321.007c.25-.031.305.082.3.314C552.341,11293.8,552.35,11294.5,552.35,11295.206Zm-17.906-3a10.711,10.711,0,0,0-1.73.136.338.338,0,0,0-.3.418.352.352,0,0,0,.417.311,2.821,2.821,0,0,0,.285-.045c.177-.035.279-.009.27.219-.018.412-.009.823,0,1.232,0,.155-.028.229-.2.241a.332.332,0,0,0-.323.371.316.316,0,0,0,.313.345c.195.007.221.105.218.269-.006.422.005.845,0,1.266,0,.193.068.414-.039.571-.088.133-.3.07-.454.111a.359.359,0,0,0-.3.4c.019.206.156.345.336.321.626-.071,1.25-.169,1.87-.279a.315.315,0,0,0,.245-.4.34.34,0,0,0-.355-.308,1.311,1.311,0,0,0-.318.04c-.174.035-.255-.016-.249-.214.009-.323,0-.648-.008-.972-.014-.857-.014-.857.816-1.059a.478.478,0,0,1,.672.357,2.56,2.56,0,0,1,.093.377c.112.586.059,1.188.184,1.773a1.1,1.1,0,0,0,.975.972,1.084,1.084,0,0,0,1.148-.749c.159-.379.128-.6-.1-.705s-.387-.009-.561.4l-.014.026c-.074.166-.169.313-.377.295a.381.381,0,0,1-.346-.368c-.043-.277-.069-.558-.089-.838a3.4,3.4,0,0,0-.217-1.365.817.817,0,0,1,.144-1.056c.7-.9.393-1.664-.7-1.956A5.467,5.467,0,0,0,534.444,11292.206Zm-9.6,5.777a3.74,3.74,0,0,0,1.142.386,1.832,1.832,0,0,0,1.958-1.372,1.518,1.518,0,0,0-1.175-1.781,5.751,5.751,0,0,0-1.029-.242.6.6,0,0,1-.546-.581,3.877,3.877,0,0,1,.092-1.191c.093-.5.419-.593.81-.263a1.812,1.812,0,0,1,.657,1.323c.016.236.132.391.384.383s.333-.159.342-.387c.031-.723.066-1.448.1-2.171.009-.247-.082-.434-.354-.445s-.368.179-.379.423c-.007.152,0,.309,0,.526-.172-.139-.276-.229-.387-.308a1.119,1.119,0,0,0-1.862.683,4.924,4.924,0,0,0-.144,1.123,1.431,1.431,0,0,0,1.378,1.655,2.9,2.9,0,0,1,1.034.328.719.719,0,0,1,.215,1.109,1.157,1.157,0,0,1-1.471.311,1.3,1.3,0,0,1-.717-1.241.345.345,0,0,0-.365-.4c-.23,0-.346.144-.357.372-.035.789-.068,1.577-.045,2.367.008.253.118.422.387.414s.341-.181.339-.42C524.845,11298.4,524.847,11298.207,524.847,11297.983Zm13.635-1.089v.031c.279,0,.556,0,.835,0a.347.347,0,0,0,.384-.273.32.32,0,0,0-.2-.423c-.223-.073-.107-.214-.1-.337.01-.144.025-.264.222-.29.434-.054.866-.139,1.3-.214.063-.01.151-.05.18.015a4.371,4.371,0,0,1,.313.774c.044.182-.2.184-.3.29-.05.054-.116.1-.165.152a.358.358,0,0,0-.01.546.337.337,0,0,0,.516-.02,2.868,2.868,0,0,1,.9-.552c.2-.1.416-.171.624-.258a.351.351,0,0,0,.222-.5.343.343,0,0,0-.508-.179l-.177.077c-.448.191-.363.257-.569-.244q-.81-1.976-1.611-3.957c-.107-.267-.247-.452-.57-.4-.464.069-.933.126-1.4.2-.244.034-.406.167-.364.437.039.247.218.327.453.3s.488-.06.731-.1c.191-.033.252.024.212.222q-.38,1.874-.746,3.751c-.031.165-.1.214-.256.2-.267-.018-.535-.021-.8-.028-.242-.009-.406.107-.411.354s.152.366.393.377C537.883,11296.861,538.183,11296.879,538.482,11296.895Zm6.757-1.74h-.015c0-.7.005-1.408,0-2.112,0-.2.041-.292.265-.29.352,0,.706-.022,1.058-.048.158-.011.2.044.2.2-.01.271-.009.543,0,.812.007.225.123.379.355.375a.349.349,0,0,0,.358-.379c.019-.442.04-.885.049-1.327a.386.386,0,0,0-.458-.445c-.2.006-.407.023-.61.037-1.25.083-2.5.057-3.757.1-.4.014-.534.154-.485.51.079.556.167,1.109.256,1.663.036.232.164.4.408.366.259-.031.349-.214.309-.474-.057-.352-.089-.708-.159-1.058-.045-.232.045-.277.246-.273.321.006.644,0,.963-.021.231-.018.286.071.285.292-.008,1.277,0,2.555,0,3.831,0,.643,0,.643-.618.668a1.133,1.133,0,0,0-.129,0c-.215.034-.363.139-.355.379a.342.342,0,0,0,.375.36q1.107-.007,2.216-.045a.32.32,0,0,0,.321-.369.331.331,0,0,0-.346-.348,1.816,1.816,0,0,0-.385,0c-.258.033-.355-.052-.346-.332C545.253,11296.538,545.24,11295.847,545.24,11295.154Zm-14.051-.882c-.158-.091-.249-.146-.343-.2a1.434,1.434,0,0,0-2.321,1.126,9.723,9.723,0,0,0-.083,2c.024,1.827,1.657,2.156,2.813,1.683a1.968,1.968,0,0,0,.944-2.187.346.346,0,0,0-.383-.274.326.326,0,0,0-.321.34,4.186,4.186,0,0,1-.05.773.931.931,0,0,1-.734.768c-1.015.179-1.506-.226-1.53-1.262,0-.1-.008-.194,0-.291a6.227,6.227,0,0,1,.129-1.677c.162-.51.388-.625.9-.469a1.916,1.916,0,0,1,1.018.8.356.356,0,0,0,.412.177.348.348,0,0,0,.271-.358c0-.527,0-1.06,0-1.587a.356.356,0,1,0-.713,0C531.183,11293.833,531.189,11294.023,531.189,11294.272Zm19.053-.465a3.832,3.832,0,0,0-.775-.369,1.289,1.289,0,0,0-1.794.952,6.924,6.924,0,0,0-.107,2.835c.131.95.826,1.356,1.943,1.385a1.8,1.8,0,0,0,1.749-2.262.325.325,0,0,0-.354-.306.34.34,0,0,0-.357.343c-.015.172,0,.346-.013.519a.941.941,0,0,1-.773.942,2.3,2.3,0,0,1-.736-.007.816.816,0,0,1-.736-.712,6.548,6.548,0,0,1,.092-2.543c.123-.456.378-.573.835-.45a1.881,1.881,0,0,1,1.057.8.368.368,0,0,0,.433.193.4.4,0,0,0,.272-.429c0-.478,0-.952,0-1.429,0-.247-.094-.439-.359-.445-.288,0-.377.2-.378.46Z"
                  transform="translate(-516.328 -11282.416)"/>
            <path class="l"
                  d="M546.544,11294.886c0-.7-.009-1.407.005-2.111,0-.233-.052-.348-.3-.315a1.416,1.416,0,0,1-.321-.006.341.341,0,0,1-.333-.367.325.325,0,0,1,.313-.353q1-.023,1.992,0a.326.326,0,0,1,.313.381.332.332,0,0,1-.324.339l-.064.006c-.541.048-.54.048-.541.593,0,.467,0,.931-.009,1.4-.006.212.055.293.276.252.536-.1,1.075-.192,1.614-.276.176-.029.254-.092.249-.292-.02-.682-.024-1.363-.024-2.046,0-.177-.049-.26-.237-.241a1.8,1.8,0,0,1-.417,0,.338.338,0,0,1-.309-.356.32.32,0,0,1,.3-.357c.653-.026,1.307-.044,1.959-.045a.333.333,0,0,1,.34.361.355.355,0,0,1-.334.37c-.177.031-.416-.066-.521.066-.129.165-.044.417-.043.63,0,1.668.014,3.335.01,5,0,.245.055.348.306.274a.63.63,0,0,1,.192-.016.355.355,0,0,1,.4.339.344.344,0,0,1-.334.4c-.318.042-.639.062-.958.1a3.983,3.983,0,0,0-.967.229.3.3,0,0,1-.414-.133.362.362,0,0,1,.09-.469,1.373,1.373,0,0,1,.746-.269c.174-.028.231-.1.228-.273-.01-.767-.015-1.537-.008-2.306,0-.224-.094-.252-.275-.218-.537.094-1.076.188-1.616.271-.2.029-.261.122-.256.32q.017.667-.005,1.332c-.008.221.078.289.281.275a1.882,1.882,0,0,1,.385.008.334.334,0,0,1,.313.352.326.326,0,0,1-.331.364c-.664,0-1.328,0-1.992-.022a.341.341,0,0,1-.352-.384c.008-.219.149-.314.352-.354s.477.129.589-.086a1.515,1.515,0,0,0,.026-.64q0-.861,0-1.722Z"
                  transform="translate(-510.522 -11282.095)"/>
            <path class="l"
                  d="M532.5,11291.722a5.518,5.518,0,0,1,1.3.143c1.093.293,1.4,1.058.7,1.955a.819.819,0,0,0-.144,1.057,3.4,3.4,0,0,1,.217,1.365c.02.281.046.561.089.839a.38.38,0,0,0,.346.367c.207.018.3-.129.377-.294l.014-.027c.174-.405.324-.513.561-.4s.262.327.1.707a1.086,1.086,0,0,1-1.148.748,1.1,1.1,0,0,1-.976-.973c-.125-.584-.073-1.187-.184-1.772a2.53,2.53,0,0,0-.093-.377.479.479,0,0,0-.672-.358c-.83.2-.83.2-.816,1.06.005.324.016.649.008.973-.006.2.074.248.249.214a1.417,1.417,0,0,1,.318-.042.342.342,0,0,1,.355.309.316.316,0,0,1-.245.4c-.62.11-1.244.207-1.87.278-.181.022-.318-.115-.336-.322a.357.357,0,0,1,.295-.4c.153-.043.367.021.454-.113.107-.157.036-.378.039-.571,0-.422-.008-.843,0-1.267,0-.162-.024-.26-.218-.269a.314.314,0,0,1-.313-.343.332.332,0,0,1,.323-.372c.177-.012.207-.087.2-.24-.008-.41-.016-.822,0-1.234.009-.227-.093-.252-.27-.219a2.36,2.36,0,0,1-.285.045.351.351,0,0,1-.417-.31.336.336,0,0,1,.3-.417A10.7,10.7,0,0,1,532.5,11291.722Zm-.336,1.475c0,.182.011.366,0,.548-.02.254.07.334.313.254.292-.095.587-.189.886-.268a1.115,1.115,0,0,0,.709-.649.309.309,0,0,0-.176-.488,2.778,2.778,0,0,0-.874-.179C532.157,11292.339,532.157,11292.343,532.16,11293.2Z"
                  transform="translate(-514.381 -11281.932)"/>
            <path class="l"
                  d="M524.586,11297.612c0,.223,0,.413,0,.6,0,.236-.08.411-.339.418s-.379-.162-.387-.414c-.023-.788.01-1.579.045-2.367.01-.23.127-.376.357-.373a.344.344,0,0,1,.365.4,1.3,1.3,0,0,0,.717,1.245,1.161,1.161,0,0,0,1.471-.312.719.719,0,0,0-.215-1.109,2.962,2.962,0,0,0-1.034-.327,1.432,1.432,0,0,1-1.378-1.656,4.931,4.931,0,0,1,.144-1.123,1.12,1.12,0,0,1,1.862-.685c.11.082.215.17.387.308,0-.215-.006-.37,0-.525.011-.243.1-.433.379-.422s.363.2.354.443c-.029.727-.064,1.45-.1,2.174-.009.227-.1.379-.341.386s-.368-.145-.384-.382a1.816,1.816,0,0,0-.656-1.324c-.39-.33-.717-.233-.81.263a3.876,3.876,0,0,0-.092,1.192.6.6,0,0,0,.546.58,5.749,5.749,0,0,1,1.029.241,1.519,1.519,0,0,1,1.175,1.782,1.832,1.832,0,0,1-1.958,1.372A3.77,3.77,0,0,1,524.586,11297.612Z"
                  transform="translate(-516.067 -11282.045)"/>
            <path class="l"
                  d="M535.562,11296.629c-.3-.014-.6-.031-.9-.045-.241-.012-.4-.135-.393-.377s.168-.361.411-.355c.267.01.535.014.8.031.156.008.225-.039.256-.205q.363-1.878.746-3.752c.04-.2-.021-.254-.212-.221-.242.039-.487.066-.731.1s-.414-.049-.453-.3c-.041-.27.121-.4.364-.437.466-.072.934-.129,1.4-.2.323-.049.463.135.57.4q.8,1.978,1.611,3.955c.206.5.12.436.569.244.059-.025.118-.053.177-.076a.341.341,0,0,1,.508.178.351.351,0,0,1-.222.5c-.208.086-.42.162-.624.258a2.87,2.87,0,0,0-.9.553.337.337,0,0,1-.516.018.359.359,0,0,1,.01-.547c.049-.055.114-.1.164-.15.1-.105.341-.107.3-.291a4.41,4.41,0,0,0-.313-.775c-.029-.062-.117-.021-.18-.012-.432.074-.864.158-1.3.213-.2.027-.212.146-.222.291-.008.121-.124.262.1.336a.321.321,0,0,1,.2.424.347.347,0,0,1-.384.271c-.279,0-.556,0-.835,0Zm1.592-3.937-.063.02q-.186.914-.37,1.832c-.02.1-.085.238.113.209.306-.049.609-.105.913-.158.11-.02.14-.072.1-.178Z"
                  transform="translate(-513.407 -11282.151)"/>
            <path class="l"
                  d="M541.3,11294.726c0,.692.014,1.385-.006,2.075-.009.282.088.366.346.333a1.883,1.883,0,0,1,.385,0,.332.332,0,0,1,.346.349.319.319,0,0,1-.321.368q-1.107.037-2.216.045a.342.342,0,0,1-.375-.359c-.008-.24.14-.346.355-.379a.945.945,0,0,1,.129-.007c.618-.024.619-.024.618-.668,0-1.276-.008-2.553,0-3.831,0-.22-.054-.31-.285-.292-.319.023-.641.027-.963.022-.2,0-.291.04-.246.272.07.35.1.706.159,1.058.04.259-.05.442-.309.474-.243.031-.371-.134-.408-.365-.089-.554-.177-1.108-.256-1.665-.049-.355.087-.5.485-.509,1.253-.04,2.507-.013,3.757-.1.2-.014.407-.03.61-.038.309-.011.464.135.458.446-.009.442-.03.885-.049,1.328a.348.348,0,0,1-.358.377c-.232,0-.348-.148-.355-.375-.008-.27-.009-.54,0-.811.005-.155-.041-.212-.2-.2-.353.026-.707.052-1.058.049-.224,0-.267.094-.265.291.009.7,0,1.407,0,2.112Z"
                  transform="translate(-512.392 -11281.985)"/>
            <path class="l"
                  d="M530.05,11293.567c0-.248-.006-.439,0-.629a.335.335,0,0,1,.342-.356.331.331,0,0,1,.371.355c.009.53.005,1.06,0,1.59a.349.349,0,0,1-.271.357.356.356,0,0,1-.412-.178,1.929,1.929,0,0,0-1.018-.8c-.512-.156-.738-.041-.9.471a6.22,6.22,0,0,0-.129,1.676c0,.1,0,.2,0,.291.024,1.037.515,1.439,1.53,1.261a.927.927,0,0,0,.734-.767,4.18,4.18,0,0,0,.05-.773.327.327,0,0,1,.321-.341.347.347,0,0,1,.383.275,1.969,1.969,0,0,1-.944,2.187c-1.156.473-2.789.146-2.813-1.684a9.737,9.737,0,0,1,.083-2.006,1.433,1.433,0,0,1,2.321-1.124C529.8,11293.42,529.892,11293.477,530.05,11293.567Z"
                  transform="translate(-515.189 -11281.712)"/>
            <path class="l"
                  d="M545.23,11293.2v-.521c0-.258.09-.465.378-.46.265,0,.359.2.359.445,0,.476,0,.951,0,1.429a.4.4,0,0,1-.272.428.367.367,0,0,1-.433-.193,1.882,1.882,0,0,0-1.057-.8c-.457-.124-.712-.008-.835.449a6.544,6.544,0,0,0-.092,2.542.816.816,0,0,0,.736.712,2.325,2.325,0,0,0,.736.009.944.944,0,0,0,.773-.944c.016-.172,0-.346.013-.518a.339.339,0,0,1,.357-.343.324.324,0,0,1,.354.3A1.8,1.8,0,0,1,544.5,11298c-1.117-.027-1.813-.435-1.943-1.385a6.926,6.926,0,0,1,.107-2.835,1.289,1.289,0,0,1,1.794-.951A3.788,3.788,0,0,1,545.23,11293.2Z"
                  transform="translate(-511.316 -11281.805)"/>
            <path class="k"
                  d="M531.815,11293.062c0-.854,0-.857.856-.781a2.75,2.75,0,0,1,.874.178.309.309,0,0,1,.176.488,1.117,1.117,0,0,1-.709.65c-.3.076-.594.171-.886.267-.242.08-.333,0-.312-.254C531.826,11293.427,531.815,11293.243,531.815,11293.062Z"
                  transform="translate(-514.035 -11281.799)"/>
            <path class="k"
                  d="M536.66,11292.318l.692,1.724c.041.1.011.159-.1.178-.3.053-.606.111-.913.158-.2.03-.133-.11-.113-.209.122-.611.246-1.221.37-1.832Z"
                  transform="translate(-512.914 -11281.777)"/>
            <g transform="translate(76.563 64.429)">
                <rect class="m" width="131.674" height="79.321" transform="translate(0.241 2.406)"/>
                <path class="n"
                      d="M710.557,11368.354v23.752c-14.257,2.59-53.558,9.711-84.8,15.293q-3.22.574-6.309,1.127H580.358c-.453-1.123-.948-2.363-1.475-3.689-.079-.2-.158-.4-.241-.6l.241.014v-35.613c17.878,1.557,47.077,4.3,57.966,6.424C652.4,11378.092,700.792,11368.109,710.557,11368.354Z"
                      transform="translate(-578.642 -11326.799)"/>
                <g transform="translate(86.67)">
                    <path class="o"
                          d="M655.864,11358.168c-1.357-.994-3.511-3.369-2.969-6a4.454,4.454,0,0,1,1.937-2.87c1.9-1.071,3.588.532,4.776-.521.757-.673.254-1.485,1.29-4.177.441-1.141.66-1.713,1.033-1.957,1.071-.7,2.4.328,6.326,1.566,3.011.953,3.584.775,3.873.654,1.784-.764,1.161-3.083,2.969-4.307,1.874-1.27,3.5.578,6.325-.262,2.885-.855,2.749-3.233,5.292-4.435,3.236-1.528,8.753-.182,11.361,3.913,2.807,4.408,1.43,10.73-1.808,12.654a4.907,4.907,0,0,1-2.065.654c-3.949-1.73-6.027-1.584-7.1-.654-1.225,1.064-.812,2.861-1.937,3.262-1.5.537-2.828-2.465-5.808-2.479a3.992,3.992,0,0,0-2.711.914c-1.442,1.353-.72,3.46-1.549,3.784-1.2.47-2.747-3.924-5.938-4.176a3.373,3.373,0,0,0-3.227,1.436,3.245,3.245,0,0,0,.128,2.74C662.522,11359.977,658.531,11360.125,655.864,11358.168Z"
                          transform="translate(-646.377 -11335.249)"/>
                    <path class="p" d="M679.441,11385.747l-12.138-.6-19.618-.967,8.715-31.5h11.421Z"
                          transform="translate(-647.685 -11330.799)"/>
                    <path class="q" d="M676.3,11385.747l-12.138-.6L660,11352.678h4.672Z"
                          transform="translate(-644.54 -11330.799)"/>
                    <path class="r"
                          d="M652.7,11367.646c-.1.292-1.452,2.15-1.839.684s.775-5.381,1.161-6.36,2.518-9,2.9-9.2,9.586-.294,10.36-.392,2.13-.393,2.615,1.173,5.034,11.645,5.228,12.721c.084.475-.038,2.774-.9,2.577-.653-.151-.9-2.3-1.092-2.864a6.253,6.253,0,0,0-1.943-3.148,1.029,1.029,0,0,0-.631-.255c-.5.026-.739.643-.743,1.15a2.49,2.49,0,0,1-.207,1.474.91.91,0,0,1-1.085.282c-1.2-.56-.292-4.144-.414-5.2a4.652,4.652,0,0,0-1.57-3.171.951.951,0,0,0-.546-.255.741.741,0,0,0-.66.579c-.336,1.208.477,2.674.3,3.948-.038.277-.171.617-.447.62a.6.6,0,0,1-.437-.306,7.17,7.17,0,0,1-1.2-2.532c-.039-.158-.094-.343-.246-.4a.451.451,0,0,0-.418.144c-1.619,1.348-1.171,2.8-.944,4.677a15.136,15.136,0,0,1,.2,3.247c-.077.778-.783,2.354-1.1.69-.464-2.468.227-5.228-1.044-7.39-.084-.144-.211-.3-.375-.281s-.25.183-.313.33c-1.377,3.172-2.267,7.779-.747,11.071.677,1.468-1.162,2.348-1.55,1.271s.678-5.578-.29-6.947S652.7,11367.646,652.7,11367.646Z"
                          transform="translate(-646.893 -11330.896)"/>
                </g>
                <path class="s"
                      d="M710.557,11370.958v36.974H578.883v-3.689c-.079-.2-.158-.4-.241-.6l.241.016v-27.153c3.094-.082,6.471-.146,10.015-.187,14.937-.179,32.894.145,45.819,2.065,26.335,3.912,53.447-7.242,61.385-7.634C699.862,11370.564,705.58,11370.732,710.557,11370.958Z"
                      transform="translate(-578.642 -11326.203)"/>
                <path class="t"
                      d="M677.85,11379.034c10.375-.717,23.772-2.23,32.658-3.306v31.481H642.791c-5.713-.374-11.45-.753-17.083-1.127-17.943-1.192-34.856-2.328-46.873-3.146V11373.5c2.91.5,6.328,1.191,10.015,2.1a110.694,110.694,0,0,1,20.4,7.016,67.035,67.035,0,0,1,8.96,5.026c16.126,10.863,35.272-1.814,51.087-6.808A37.336,37.336,0,0,1,677.85,11379.034Z"
                      transform="translate(-578.593 -11325.482)"/>
                <path class="u"
                      d="M710.557,11380.073v25.727H578.883v-3.687c-.079-.2-.158-.4-.241-.6l.241.014v-15.319a263.742,263.742,0,0,1,30.415-5,396.165,396.165,0,0,1,60.048-1.781c3.335.142,6.745.318,10.232.549A213.7,213.7,0,0,0,710.557,11380.073Z"
                      transform="translate(-578.642 -11324.072)"/>
            </g>
        </g>
        <g transform="translate(531.677 11332.726)">
            <rect class="v" width="25.83" height="18.809" transform="translate(0 62.303)"/>
            <circle class="w" cx="2.533" cy="2.533" r="2.533" transform="translate(9.835)"/>
            <circle class="x" cx="2.533" cy="2.533" r="2.533" transform="translate(9.835 12.742)"/>
            <text class="y" transform="translate(10.988 7.158)">
                <tspan x="-1.509" y="0">Motion</tspan>
            </text>
            <text class="y" transform="translate(9.988 19.708)">
                <tspan x="-1.342" y="0">Looks</tspan>
            </text>
            <circle class="z" cx="2.533" cy="2.533" r="2.533" transform="translate(9.835 25.482)"/>
            <text class="y" transform="translate(9.988 32.449)">
                <tspan x="-1.45" y="0">Sound</tspan>
            </text>
            <circle class="aa" cx="2.533" cy="2.533" r="2.533" transform="translate(9.835 38.223)"/>
            <text class="y" transform="translate(10.988 45.191)">
                <tspan x="-1.529" y="0">Events</tspan>
            </text>
            <circle class="ab" cx="2.533" cy="2.533" r="2.533" transform="translate(9.835 50.84)"/>
            <text class="y" transform="translate(9.733 57.809)">
                <tspan x="-1.62" y="0">Control</tspan>
            </text>
            <circle class="ac" cx="4.051" cy="4.051" r="4.051" transform="translate(8.086 64.917)"/>
            <text class="ad" transform="translate(7.967 76.708)">
                <tspan x="-3.614" y="0">Sensing</tspan>
            </text>
            <circle class="ae" cx="2.533" cy="2.533" r="2.533" transform="translate(9.835 84.125)"/>
            <text class="y" transform="translate(8.478 91.092)">
                <tspan x="-2.213" y="0">Operators</tspan>
            </text>
            <circle class="af" cx="2.533" cy="2.533" r="2.533" transform="translate(9.835 96.643)"/>
            <text class="y" transform="translate(8.478 103.609)">
                <tspan x="-2.047" y="0">Variables</tspan>
            </text>
            <circle class="ag" cx="2.533" cy="2.533" r="2.533" transform="translate(9.835 109.409)"/>
            <text class="y" transform="translate(8.478 116.377)">
                <tspan x="-2.282" y="0">My Blocks</tspan>
            </text>
        </g>
        <g transform="translate(760.478 11365.735)">
            <g transform="translate(28.597 24.73)">
                <path d="M730.6,11372.01c-.661-3.482-4.365-4.846-4.365-4.846s-1.141,1.057-1.134,1.578c4.325,2.752,1.45,6.52,2.537,7.559C729.164,11377.762,731.015,11374.193,730.6,11372.01Zm-2.154,3.545c-.534-.045.307-3.025-.261-4.352a5.832,5.832,0,0,0-2.448-2.686l.531-.623C731.477,11370.326,729.851,11375.672,728.446,11375.555Z"
                      transform="translate(-725.102 -11367.164)"/>
                <path class="ah"
                      d="M726.139,11367.744l-.531.624a5.828,5.828,0,0,1,2.449,2.687c.567,1.324-.274,4.3.26,4.35C729.722,11375.523,731.347,11370.177,726.139,11367.744Z"
                      transform="translate(-724.973 -11367.015)"/>
            </g>
            <g transform="translate(29.76 22.121)">
                <path d="M732.54,11366.675c-2.581-2.427-6.381-1.354-6.381-1.354s-.3,1.527.011,1.944c5.117-.316,5,4.422,6.495,4.624C734.758,11372.172,734.159,11368.2,732.54,11366.675Zm.34,4.136c-.458.276-1.529-2.63-2.769-3.367a5.854,5.854,0,0,0-3.559-.733l.062-.819C732.259,11364.8,734.087,11370.08,732.881,11370.811Z"
                      transform="translate(-726.029 -11365.084)"/>
                <path class="ah"
                      d="M726.507,11365.757l-.062.82a5.831,5.831,0,0,1,3.56.733c1.239.738,2.311,3.644,2.768,3.366C733.98,11369.946,732.153,11364.667,726.507,11365.757Z"
                      transform="translate(-725.922 -11364.951)"/>
            </g>
            <g transform="translate(16.747 24.729)">
                <path d="M721.219,11368.742c.009-.521-1.134-1.578-1.134-1.578s-3.7,1.363-4.365,4.844c-.414,2.186,1.436,5.75,2.961,4.293C719.771,11375.26,716.895,11371.492,721.219,11368.742Zm-3.082,2.461c-.569,1.324.272,4.3-.261,4.35-1.406.117-3.032-5.229,2.178-7.662l.531.625A5.82,5.82,0,0,0,718.138,11371.2Z"
                      transform="translate(-715.662 -11367.164)"/>
                <path class="ah"
                      d="M719.888,11367.742l.531.624a5.831,5.831,0,0,0-2.448,2.688c-.569,1.323.272,4.3-.261,4.351C716.3,11375.524,714.678,11370.177,719.888,11367.742Z"
                      transform="translate(-715.496 -11367.013)"/>
            </g>
            <g transform="translate(13.162 22.121)">
                <path d="M720.654,11365.32s-3.8-1.071-6.381,1.355c-1.618,1.522-2.218,5.5-.125,5.211,1.491-.2,1.38-4.939,6.495-4.623C720.957,11366.847,720.654,11365.32,720.654,11365.32Zm-3.952,2.123c-1.239.736-2.311,3.644-2.768,3.364-1.206-.728.62-6.009,6.265-4.917l.063.819A5.821,5.821,0,0,0,716.7,11367.443Z"
                      transform="translate(-712.806 -11365.085)"/>
                <path class="ah"
                      d="M720.042,11365.756l.063.82a5.82,5.82,0,0,0-3.56.732c-1.239.738-2.311,3.645-2.768,3.365C712.571,11369.945,714.4,11364.664,720.042,11365.756Z"
                      transform="translate(-712.649 -11364.951)"/>
            </g>
            <path class="ah"
                  d="M719.631,11363.913l-.009,0a4.954,4.954,0,0,1-4.785-1.486v0a2.3,2.3,0,0,1-.146-.221c-.01-.017-.016-.036-.025-.054a1.516,1.516,0,0,1-.079-.164c-.013-.032-.018-.061-.028-.094a1.07,1.07,0,0,1-.031-.111.813.813,0,0,1-.015-.188.887.887,0,0,1,.089-.327.4.4,0,0,1,.173-.264,5.613,5.613,0,0,0,2.222-6.169c-.38-1.245-3.279-3.749-4.139-2.96-.427.39.677,1.314.461,2.221-.178.749-1.019,1.385-.541,2.176a2.232,2.232,0,0,1-.677,2.482.347.347,0,0,1-.211.067l-.006.006-.009-.008a.11.11,0,0,1-.052-.033c-.261-.188-.035-.739-.2-1.111-.479-1.1-1.519-.8-1.785-1.933-.256-1.091.979-2.56-.139-3.325-.367-.25-.753-.28-.964-.732-.469-1.007.424-2.011-.728-2.828a2.212,2.212,0,0,0-2.61.179c-4.214,2.585-1.823,11.536,3.948,12.911a9.311,9.311,0,0,0,2.7.052c2.435,4.723,6.462,3.741,8.192,2.9a.541.541,0,0,1,.082-.033A3.913,3.913,0,0,1,719.631,11363.913Z"
                  transform="translate(-702.081 -11347.198)"/>
            <path class="ai"
                  d="M720.138,11363.613l-.475.154c-2.71.033-3.5-1.079-4.062-1.979a14.343,14.343,0,0,0,1.943-2.252,5.839,5.839,0,0,0-.112-5.586c-2.109-3.255-6.868-4.1-4.819-.708.911,1.511-1.029,2.033-.1,3.576.139.231,0,.647-.172,1.063-.07-1.2-1.3-1.144-1.313-2.375-.009-.7,1.133-2.6-.446-3.266-1.761-.739-.427-2.233-.986-3.422a2.333,2.333,0,0,0-2.316-1.331c-4.164.809-5.5,5.23-4.774,8.752.688,3.354,3.467,7.7,9.415,7.125,1.688,4.316,7.34,3.771,9.075,2.063l.3-.244Zm.34,1.543c-1.73.848-5.757,1.826-8.192-2.9a9.277,9.277,0,0,1-2.7-.051c-5.771-1.375-8.162-10.326-3.948-12.911a2.212,2.212,0,0,1,2.61-.179c1.152.816.259,1.821.728,2.827.211.453.6.481.964.734,1.119.765-.117,2.234.139,3.323.266,1.132,1.306.832,1.785,1.935.162.369-.064.922.2,1.11a.1.1,0,0,0,.051.032l.009.008.006-.006a.344.344,0,0,0,.211-.067,2.231,2.231,0,0,0,.677-2.481c-.478-.792.363-1.429.541-2.176.216-.906-.888-1.831-.461-2.223.86-.788,3.758,1.718,4.139,2.96a5.613,5.613,0,0,1-2.222,6.17.4.4,0,0,0-.173.266.887.887,0,0,0-.089.324.839.839,0,0,0,.015.191.975.975,0,0,0,.031.109c.01.032.015.062.028.095a1.509,1.509,0,0,0,.079.164c.009.018.015.035.025.054a2.124,2.124,0,0,0,.146.22v0a4.947,4.947,0,0,0,4.785,1.486h.009a3.919,3.919,0,0,0,.688.945h0A.534.534,0,0,0,720.478,11365.156Z"
                  transform="translate(-702.321 -11347.463)"/>
            <g transform="translate(31.812)">
                <path class="ah"
                      d="M743.131,11349.032a2.213,2.213,0,0,0-2.609-.179c-1.151.817-.26,1.821-.728,2.828-.211.452-.6.482-.964.734-1.117.766.118,2.234-.139,3.323-.266,1.131-1.306.833-1.785,1.935-.161.367.061.916-.192,1.106a.1.1,0,0,1-.057.038l-.009.006-.005,0a.375.375,0,0,1-.212-.067,2.235,2.235,0,0,1-.675-2.483c.478-.789-.363-1.428-.541-2.175-.216-.905.888-1.831.459-2.223-.86-.787-3.757,1.717-4.139,2.96a5.886,5.886,0,0,0,2.132,6.171.347.347,0,0,1,.2.154c.133.092.161.187.124.266a.715.715,0,0,1,.03.169.773.773,0,0,1-.014.19.8.8,0,0,1-.036.121c-.009.03-.013.056-.024.085a1.827,1.827,0,0,1-.088.183c-.006.013-.01.024-.018.037-.55.967-2.336,2.144-4.982,1.7a7.448,7.448,0,0,1-.689.921c1.756.844,5.9,1.851,8.319-2.833a9.347,9.347,0,0,0,2.7-.049C744.955,11360.568,747.346,11351.62,743.131,11349.032Z"
                      transform="translate(-727.534 -11347.198)"/>
                <path class="ai"
                      d="M741.621,11347.488a2.333,2.333,0,0,0-2.316,1.331c-.56,1.189.776,2.683-.987,3.422-1.579.664-.437,2.563-.446,3.266-.016,1.232-1.243,1.18-1.313,2.377-.168-.418-.311-.834-.172-1.064.931-1.544-1.009-2.066-.1-3.576,2.049-3.4-2.709-2.546-4.818.708a5.834,5.834,0,0,0-.113,5.585,11.422,11.422,0,0,0,1.987,2.181c-.561.913-1.324,2.088-4.1,2.051l-.677-.383-.9,1.705.242.339c1.734,1.707,7.386,2.252,9.075-2.063,5.946.579,8.726-3.771,9.413-7.125C747.118,11352.72,745.785,11348.3,741.621,11347.488Zm-2.306,14.721a9.278,9.278,0,0,1-2.7.051c-2.415,4.683-6.563,3.674-8.319,2.833a7.521,7.521,0,0,0,.689-.92h0c2.646.444,4.431-.734,4.982-1.7a.337.337,0,0,0,.018-.035,1.529,1.529,0,0,0,.088-.183.867.867,0,0,0,.024-.085.946.946,0,0,0,.036-.121.769.769,0,0,0,.014-.189.73.73,0,0,0-.03-.172c.036-.077.009-.172-.124-.266a.343.343,0,0,0-.2-.152,5.887,5.887,0,0,1-2.131-6.172c.382-1.242,3.279-3.748,4.139-2.96.428.393-.675,1.316-.459,2.224.178.747,1.018,1.384.541,2.175a2.234,2.234,0,0,0,.675,2.481.362.362,0,0,0,.212.069l.005,0,.009-.006a.1.1,0,0,0,.056-.038c.254-.19.031-.739.192-1.107.479-1.1,1.519-.8,1.785-1.934.257-1.09-.978-2.561.139-3.325.367-.251.753-.279.964-.732.468-1.007-.423-2.011.728-2.827a2.21,2.21,0,0,1,2.609.178C747.475,11351.883,745.084,11360.833,739.315,11362.209Z"
                      transform="translate(-727.663 -11347.463)"/>
            </g>
            <g transform="translate(17.698 1.673)">
                <path d="M720.187,11354.308a2.941,2.941,0,0,0,.621-4.929c-2.173-1.926-5.533,1.342-4,3.736a2.753,2.753,0,0,0,2.262,1.456c.309,1.751,1.309,4.081,2.847,5.029l.6-.979C721.309,11357.876,720.437,11355.812,720.187,11354.308Zm-2.624-2.218c-.594-2.91,3.291-3.294,3.579-.377a1.779,1.779,0,0,1-.266,1.177,1.7,1.7,0,0,1-1.014.8l-.683.029A2.048,2.048,0,0,1,717.563,11352.09Z"
                      transform="translate(-716.42 -11348.797)"/>
                <path class="g"
                      d="M720.922,11351.526a1.783,1.783,0,0,1-.266,1.178c-.935,1.547-2.979.832-3.313-.8C716.75,11348.993,720.635,11348.611,720.922,11351.526Z"
                      transform="translate(-716.2 -11348.611)"/>
                <circle cx="1.037" cy="1.037" r="1.037" transform="translate(1.887 0.856)"/>
            </g>
            <g transform="translate(26.371 1.672)">
                <path d="M728.8,11350.179c-2.627-3.8-7.174,1.145-3.87,3.871.045.037.09.069.136.1a7.475,7.475,0,0,0-1.708,4.874l1.138-.146c-.171-1.323.747-3.144,1.7-4.3C728.173,11354.722,730.128,11352.1,728.8,11350.179Zm-.42,1.773c0,.032-.006.065-.009.1-.005.048-.011.093-.019.139s-.011.06-.018.091-.023.086-.035.128-.015.054-.024.082-.034.085-.053.128c-.009.02-.018.041-.028.063-.025.051-.054.1-.083.148l-.015.026a1.758,1.758,0,0,1-.119.16l-.016.016a1.268,1.268,0,0,1-.119.122.245.245,0,0,1-.036.031c-.036.032-.073.063-.112.091l-.044.03c-.039.024-.079.05-.119.072l-.045.023a1.02,1.02,0,0,1-.13.061l-.043.019c-.049.018-.1.033-.149.049l-.029.008a1.838,1.838,0,0,1-1.885-.628l-.02-.026a1.9,1.9,0,0,1-.113-.156l-.035-.058c-.029-.048-.057-.1-.083-.149l-.036-.073c-.024-.051-.045-.1-.065-.157-.011-.028-.021-.055-.031-.084-.02-.06-.036-.12-.054-.183-.006-.026-.015-.053-.021-.081-.021-.09-.039-.184-.053-.282a1.781,1.781,0,0,1,.227-1.187c.879-1.578,2.946-.936,3.337.685a2.74,2.74,0,0,1,.054.283c.005.029.008.059.01.088.006.059.013.121.016.177,0,.035,0,.067,0,.1C728.383,11351.853,728.383,11351.9,728.38,11351.952Z"
                      transform="translate(-723.329 -11348.796)"/>
                <path class="g"
                      d="M728.083,11351.368c0-.029-.005-.06-.009-.088-.014-.093-.031-.187-.054-.284-.39-1.62-2.458-2.261-3.338-.685a1.782,1.782,0,0,0-.227,1.188c.014.1.033.192.053.283.008.028.015.054.023.08.016.064.033.122.053.183.01.028.021.056.031.084.021.054.043.105.065.158l.036.073a1.685,1.685,0,0,0,.084.147c.011.02.023.041.034.059q.055.081.113.155l.02.027a1.842,1.842,0,0,0,1.886.629l.029-.008c.052-.018.1-.032.151-.05l.041-.018c.044-.02.088-.041.13-.062l.045-.021c.041-.023.08-.049.119-.073l.044-.03c.039-.027.075-.059.112-.09l.038-.032a1.592,1.592,0,0,0,.118-.121l.016-.015a1.491,1.491,0,0,0,.119-.162l.015-.025c.03-.048.058-.1.084-.148.01-.021.019-.044.028-.062.019-.044.036-.085.052-.13.009-.025.016-.052.025-.08s.024-.086.034-.129.013-.058.018-.09.014-.091.019-.14c0-.031.008-.063.009-.1,0-.05,0-.1,0-.15,0-.032,0-.064,0-.1C728.1,11351.487,728.089,11351.427,728.083,11351.368Z"
                      transform="translate(-723.046 -11348.64)"/>
                <circle cx="1.037" cy="1.037" r="1.037" transform="translate(2.181 0.673)"/>
            </g>
            <g transform="translate(16.8 11.05)">
                <path class="ah"
                      d="M724.121,11356.944c2.959-.015,6.786,1.107,7.209,2.74a4.585,4.585,0,0,1-1.067,3.778c-1.318,1.9-1.7,4.507-2.722,6.4a4.123,4.123,0,0,1-6.843,0c-1.023-1.9-1.579-4.5-2.9-6.4a4.588,4.588,0,0,1-1.066-3.778C717.158,11358.052,721.161,11356.93,724.121,11356.944Z"
                      transform="translate(-715.467 -11356.092)"/>
                <path class="ai"
                      d="M731.825,11357.881c-1.712-1.187-4.579-1.615-7.448-1.615h-.039c-2.87,0-5.735.43-7.448,1.615-1.68,1.162-1.48,3.605,0,5.488,1.636,2.082,2.532,7.361,3.29,8.27.95,1.143,2.547,1.258,4.2,1.26,1.612,0,3.207-.117,4.159-1.26.757-.908,1.655-6.187,3.29-8.27C733.3,11361.486,733.5,11359.043,731.825,11357.881Zm-1.324,5.756c-1.318,1.9-1.7,4.506-2.722,6.4a4.123,4.123,0,0,1-6.843,0c-1.023-1.9-1.579-4.5-2.9-6.4a4.589,4.589,0,0,1-1.066-3.777c.423-1.633,4.426-2.756,7.386-2.74,2.959-.016,6.786,1.107,7.209,2.74A4.586,4.586,0,0,1,730.5,11363.637Z"
                      transform="translate(-715.704 -11356.266)"/>
            </g>
        </g>
    </g>
</svg>
