<svg xmlns="http://www.w3.org/2000/svg" width="1366" height="772.5" viewBox="0 0 1366 772.5"><defs><style>.a,.k,.y{fill:#000;}.b{fill:#ccc1d8;}.c{fill:#e6def0;}.d{fill:#b0b0b0;}.e{fill:#b35328;}.f{fill:#e9e9e9;}.g{fill:#8e94a0;}.h{fill:#4b3d64;}.i{fill:#cecfd4;}.j{fill:#8c7cc9;}.k{stroke:#5e5587;stroke-width:11px;}.k,.t{stroke-miterlimit:10;}.l{fill:#5e5587;}.m{fill:#c2934e;}.n{fill:#c39652;}.o{fill:#caa267;}.p{fill:#5e5586;}.q{fill:#f1c759;}.r{opacity:0.3;}.s{opacity:0.5;}.t{fill:none;stroke:#8c7cc9;stroke-width:1.41px;}.u{fill:#cea971;}.v{opacity:0.15;}.w{fill:#f0c659;}.x{fill:#023f7d;}.y{font-size:11.01px;font-family:MyriadPro-Regular, Myriad Pro;}</style></defs><g transform="translate(-0.201 -826.471)"><rect class="a" width="1366" height="771" transform="translate(0.201 826.471)"/><path class="b" d="M1366.2,837.507v758.464l-242.228-67.586-32.991-6.263,1.636-558.092,30.118-25.56Z"/><path class="b" d="M316.5,953.442l-16.051,556.371L.4,1584.211V834.158l298.845,93.57Z"/><path class="c" d="M698.178,917.042H273.57v617.384h849.165V917.042Z"/><path class="a" d="M.2,888.751c121.657,30.38,335.7,73.888,615,80.372,352.971,8.194,622.429-47.1,751-78.7V827.971H.2Z"/><path class="a" d="M.2,1550.654c121.657-29.39,335.7-71.48,615-77.753,352.971-7.927,622.429,45.568,751,76.133v47.19L.4,1598.971Z"/><path class="d" d="M848.2,1405.971h-344l50-60h254Z"/><rect class="d" width="16" height="138" transform="translate(516.201 1405.971)"/><rect class="d" width="11" height="163" transform="translate(553.201 1345.971)"/><rect class="d" width="11" height="163" transform="translate(796.201 1345.971)"/><rect class="d" width="16" height="138" transform="translate(821.201 1405.971)"/><path class="e" d="M628.026,1320.22h0a.439.439,0,0,1-.259-.562l.356-.966.821.3-.356.967A.44.44,0,0,1,628.026,1320.22Z"/><path class="e" d="M632.6,1321.905h0a.438.438,0,0,1-.259-.562l.356-.967c.024-.065.817.312.817.312l-.352.957A.44.44,0,0,1,632.6,1321.905Z"/><path class="f" d="M627.938,1320.03h0a.438.438,0,0,1-.26-.561l.39-1.058a.438.438,0,0,1,.562-.259h0a.439.439,0,0,1,.259.561l-.39,1.058A.437.437,0,0,1,627.938,1320.03Z"/><path class="f" d="M632.5,1321.712h0a.439.439,0,0,1-.26-.562l.39-1.058a.438.438,0,0,1,.561-.259h0a.439.439,0,0,1,.26.561l-.39,1.059A.439.439,0,0,1,632.5,1321.712Z"/><rect class="g" width="2.868" height="1.859" transform="translate(626.837 1330.127) rotate(20.217)"/><rect class="g" width="2.868" height="1.859" transform="translate(628.063 1327.052) rotate(20.217)"/><path class="h" d="M758.829,1388.161H613.141a3.239,3.239,0,0,1-3.5-3.192v-2.183l15.947-29.467a5.076,5.076,0,0,1,4.546-2.819H741.623c2.08,0,6.668,4.1,7.6,5.959l13.156,26.819v.964C762.409,1387.035,760.6,1388.161,758.829,1388.161Z"/><path class="i" d="M758.842,1385.076H613.154c-1.618,0-4.281-1.418-3.281-3.163l15.728-31.679a5.075,5.075,0,0,1,4.546-2.819H741.636a5.492,5.492,0,0,1,4.912,3.037l15.569,31.155C763.208,1383.593,760.616,1385.076,758.842,1385.076Z"/><rect class="i" width="119.308" height="75.39" rx="4.362" transform="translate(625.578 1271.971)"/><rect class="a" width="110.104" height="65.326" transform="translate(630.159 1276.083)"/><path class="h" d="M707.115,1383.706H664.187a.775.775,0,0,1-.764-.9l1.81-11.307a1.258,1.258,0,0,1,1.242-1.059h38.719a1.105,1.105,0,0,1,1.093.946l1.659,11.371A.838.838,0,0,1,707.115,1383.706Z"/><path class="j" d="M743.713,1368.111H627.075c-1.295,0-2.282-.5-2.077-1.047l4.918-13.2c.266-.712,1.7-1.236,3.374-1.236h105.2c1.491,0,2.756.47,2.971,1.1l4.509,13.274C746.148,1367.592,745.087,1368.111,743.713,1368.111Z"/><rect class="i" width="121.634" height="0.614" transform="translate(624.664 1354.903)"/><rect class="i" width="121.634" height="0.614" transform="translate(624.664 1357.974)"/><rect class="i" width="121.634" height="0.614" transform="translate(624.664 1361.66)"/><rect class="i" width="121.634" height="0.614" transform="translate(624.664 1365.039)"/><rect class="i" width="0.921" height="20.272" transform="translate(639.395 1350.009) rotate(17.439)"/><rect class="i" width="0.921" height="20.272" transform="translate(648.302 1350.009) rotate(17.439)"/><rect class="i" width="0.921" height="20.272" transform="translate(655.367 1350.009) rotate(17.439)"/><rect class="i" width="0.921" height="20.272" transform="translate(662.431 1350.009) rotate(17.439)"/><rect class="i" width="0.921" height="20.272" transform="translate(669.803 1350.009) rotate(17.439)"/><rect class="i" width="0.921" height="20.272" transform="translate(677.283 1349.779) rotate(10.978)"/><rect class="i" width="0.921" height="20.272" transform="translate(683.638 1349.681)"/><rect class="i" width="0.921" height="20.272" transform="translate(731.302 1350.285) rotate(-17.439)"/><rect class="i" width="0.921" height="20.272" transform="translate(722.702 1350.285) rotate(-17.439)"/><rect class="i" width="0.921" height="20.272" transform="translate(714.101 1350.285) rotate(-17.439)"/><rect class="i" width="0.921" height="20.272" transform="translate(705.501 1350.285) rotate(-17.439)"/><rect class="i" width="0.921" height="20.272" transform="translate(696.901 1350.285) rotate(-17.439)"/><rect class="i" width="0.921" height="20.272" transform="translate(688.3 1350.285) rotate(-17.439)"/><path class="k" d="M1170.3,1133.151v207l51,8.1,16,2.53,59,9.37v-247l-59,9.37-16,2.53Z"/><path class="l" d="M1221.3,1125.051v223.2l16,2.53v-228.26Z"/><path class="l" d="M1170.3,1195.972v18.12l51-5.9,16-1.85,59-6.82V1181.4l-59,6.82-16,1.85Z"/><path class="m" d="M361.168,1148.854s.845,10.929-4.105,18.7c-3.325,5.219,3.17,4.814,10.27,3.688,5.451-.864,6.515-3.929,6.515-3.929a7.586,7.586,0,0,1-4.211-4.99c-1.133-3.647-.54-10.069.039-13.466C370.883,1141.781,361.168,1148.854,361.168,1148.854Z"/><path class="n" d="M399.838,1423.157s-12.344,108.028-7.916,109.967c7.941,3.531,39.08,15.169,4.581,12.136-17.761.766-16.391-3.176-16.611-6.54-.179-2.749,2-99.581,1.4-107.124l-.215-2.711Z"/><path class="o" d="M297.945,1517.976c2.3.268,7.568,2.455,10.38,4.2,9.116-21.391,42.418-101.714,42.418-101.714L336.131,1408.8S307.291,1491.942,297.945,1517.976Z"/><path class="p" d="M296.855,1518.185c.7-1.413,12.973,3.88,13.312,5.635.167.866,15.823,17.456,13.784,20.1-1.07,2.82-6.756,1.595-12.6.5a16.1,16.1,0,0,1-6.436-2.764c-6.9-4.965-13.141-8.9-14.083-11.231C290,1528.388,295.484,1520.962,296.855,1518.185Z"/><path class="l" d="M379.432,1529.252c-.18-1.565,13.092.645,14.328,1.936s20.517,6.892,19.965,13.463-31.165.872-33.356.68S379.785,1532.33,379.432,1529.252Z"/><path class="q" d="M414.812,1306.8a6.849,6.849,0,0,1-4.025,1.468c-9.126-.575-48.532-3.159-69.777-6.152-7.495-1.057-12.729-2.164-13.574-3.256,0,0,0,.031,0,.087-.041,1.181-.481,14.708-.995,32.443-1.015,35.011-8.75,84.635-14.213,99.44-1.179,3.2,48.122,2.288,48.122,2.288,3.114-35.96,4.927-99.392,7.367-102.04,2.966-3.222,2.717,52.684,3.855,99.578,18.943,6.654,49.857,6.125,49.666,4.111C418.979,1410.847,414.812,1306.8,414.812,1306.8Z"/><g class="r"><path d="M378.307,1305.928h.442S378.592,1305.926,378.307,1305.928Z"/><path class="s" d="M378.307,1305.928c-11.8-.034-37.3-3.813-37.3-3.813-7.495-1.057-12.729-2.164-13.574-3.256,0,0,0,.031,0,.087-.041,1.181-.481,14.708-.995,32.443a8.788,8.788,0,0,0,1.244-.04,9.631,9.631,0,0,0,6.571-3.9,21.382,21.382,0,0,0,2.83-4.84C347.2,1306.7,374.522,1305.955,378.307,1305.928Z"/></g><line class="t" x2="1.67" y2="130.852" transform="translate(406.333 1305.24)"/><line class="t" x2="1.763" y2="128.583" transform="translate(393.796 1306.817)"/><line class="t" x1="0.239" y2="127.52" transform="translate(381.513 1305.82)"/><line class="t" x1="2.436" y2="26.217" transform="translate(367.716 1304.86)"/><line class="t" x1="8.32" y2="129.435" transform="translate(348.955 1303.794)"/><line class="t" x1="10.125" y2="130.378" transform="translate(336.076 1302.796)"/><line class="t" x1="13.356" y2="130.864" transform="translate(321.955 1301.895)"/><path class="t" d="M415.374,1320.444s-70.189-2.487-88.388-7.317"/><path class="t" d="M367.716,1331.077c24,7.565,48.139.744,48.139.744"/><path class="t" d="M368.116,1329.443s-22.589,4.376-41.547-2.467"/><path class="t" d="M416.27,1341.435s-18.393,7.77-46.638.695"/><path class="t" d="M416.775,1352.885s-28.126,6.1-46.687.229"/><path class="t" d="M417.29,1364.261s-14.878,9.8-46.865,2.2"/><path class="t" d="M417.9,1377.349a68.2,68.2,0,0,1-47.282-.35"/><path class="t" d="M418.487,1389.34s-15.975,9.462-47.658.575"/><path class="t" d="M419.118,1401.635s-21.727,9.163-48.136-1.878"/><path class="t" d="M419.643,1411.234s-13.265,10.8-48.487-.936"/><path class="t" d="M420.3,1422.133s-20.734,8.822-48.942-1.306"/><path class="t" d="M366.132,1341.21s-9.853,6.852-40.627-1.387"/><path class="t" d="M364.941,1352.652s-13.441,4.963-39.588-2"/><path class="t" d="M364.519,1365.425s-20.481,4.365-40.114-3.321"/><path class="t" d="M363.934,1376s-20.141,7.028-40.789-3.376"/><path class="t" d="M363.3,1387.607s-19.032,4.959-41.652-3.448"/><path class="t" d="M362.68,1398.756s-16.169,5.7-42.68-3.533"/><path class="t" d="M361.865,1408.6s-19.3,8.007-43.7-2.6"/><path class="t" d="M361.292,1420.937a85.861,85.861,0,0,1-45.483-3.236"/><path class="j" d="M430.355,1225.279c1.5,2.339,7.606,68.765,0,82.546-7.65,13.859-71.381,21.267-91.418,10.606-20.332-10.818-28.163-21.223-30.881-40.626-2.723-19.44,3.626-49.445,3.626-49.445l86.892-57.424Z"/><path class="u" d="M413.591,1301.955a50.534,50.534,0,0,0-5.328,3.1,15.824,15.824,0,0,0-2.739,4.025c-.508,1.074,1.6.1,3.205-2.26,1.561-.856,3.015-1.819,3.372-1.468s-2.1.995-3.86,2.67c-1.722,2.209-3.373,4.375-2.782,4.418s1.239.066,3.684-3.132c1.727-.791,3.41-1.735,3.547-1.369s-2.01,1.047-3.71,2.523c-2.38,2.439-2.934,3.329-3.814,4.186.475.532,2.068.051,4.987-2.868,1.576-.979,3.926-1.358,4.006-.867-.073.52-1.711.808-2.825,1.472a13.176,13.176,0,0,0-3.069,2.462c-.332.423.017,1.156,3.879-1.009a3.96,3.96,0,0,1,2.8-.174l2-5.485Z"/><path class="o" d="M424.58,1304.085s-9.417-1.939-10.256-2.285-2.912,2.13-2.243,2.592a4.576,4.576,0,0,1,1.505,2.755,2.166,2.166,0,0,0,.425,1.957c.571.662,1.408,1.51,1.043,2.5s-1.219,1.981-.11,2.059a19.842,19.842,0,0,1,6.888,2.522c2.368,1.481,8.271-4.955,8.271-4.955Z"/><path class="u" d="M333.885,1302.492a50.2,50.2,0,0,1,6.144-.168,15.578,15.578,0,0,1,4.412,1.989c.988.649-1.313.925-3.9-.237-1.773.093-3.51.038-3.634.526s2.307-.26,4.671.242c2.608.976,5.134,1.953,4.651,2.3s-1.022.71-4.757-.728c-1.883.236-3.8.318-3.733.7s2.255-.168,4.467.195c3.288.826,4.22,1.293,5.413,1.56-.131.7-1.738,1.134-5.734.184-1.85,0-4.051.913-3.865,1.373.33.406,1.876-.213,3.169-.234a13.019,13.019,0,0,1,3.889.481c.5.186.581,1-3.831,1.186a3.989,3.989,0,0,0-2.478,1.328l-4.537-3.623Z"/><path class="o" d="M325.609,1310.107s7.034-6.622,7.57-7.36,3.584.281,3.252,1.028a4.611,4.611,0,0,0,.136,3.144,2.16,2.16,0,0,1,.647,1.894c-.145.866-.422,2.032.4,2.681s2.062,1.047,1.156,1.7a20.164,20.164,0,0,0-4.576,5.785c-1.257,2.514-9.612.137-9.612.137Z"/><path class="j" d="M256.134,1295c10.777,18.384,25.208,37.266,53.4,36.359,8.463-.552,12.939-4.367,15.151-8.679a16.58,16.58,0,0,0,1.137-2.848c.037-.126.075-.252.109-.378a18.481,18.481,0,0,0,.464-2.214,16.163,16.163,0,0,0-.346-6.889l0-.013c-.04-.12-.081-.233-.125-.337-.015-.041-.034-.085-.056-.132-.14-.331-.358-.8-.644-1.4-1.265-2.614-3.866-7.563-7.211-13.029-5.971-9.765-5.784-24.737-3.2-32.439.28-.835,1.828-1.673,4.286-2.6.735-.277,1.551-.567,2.442-.869,12.3-4.13,26.663-30.14,35.565-51.806,1.81-4.41,3.392-8.641,4.694-12.481a109.088,109.088,0,0,0,3.1-10.653c.823-3.651,1.028-6.212.468-7.17a.751.751,0,0,0-.723-.419,16.166,16.166,0,0,1-4.76-.636c-3.9-1.008-8.238-4.007-11.35-6.492l0,0c-2.526-2.019-4.233-3.7-4.233-3.7h-.013c-.152.007-1.563.066-3.915.369a82.288,82.288,0,0,0-8.544,1.588q-1.869.438-3.934,1.023c-.592.167-1.193.347-1.8.533a90.629,90.629,0,0,0-46.844,33.072C252.627,1239,245.232,1276.387,256.134,1295Z"/><path class="v" d="M279.244,1262.34a1.5,1.5,0,0,1,.19.06C279.353,1262.374,279.29,1262.353,279.244,1262.34Z"/><path class="j" d="M325.819,1169.36s.09.111.268.322c.987,1.187,4.653,5.6,10.008,12.121,4.4,5.374,9.951,12.178,16.084,19.792l0,0q2.4,2.982,4.918,6.124c28.958,36.166,66.57,85.159,63.05,91.657a11.329,11.329,0,0,0-1.246,3.506,9.324,9.324,0,0,0-.124,1.821c.112,3.761,2.535,6.773,4.84,8.8l.019.016a.9.9,0,0,0,.1.088,23.368,23.368,0,0,0,1.957,1.515,20.226,20.226,0,0,0,2.1,1.295c30.69-4.832,45.131-17.9,45.131-53.06s-20.078-94.665-90.271-98.751a11.663,11.663,0,0,0-5.329,1.43c-3.6,1.7-7.464,4.388-10.578,5.15a6.563,6.563,0,0,1-1.452.208c-6.731.155-11.609-3.559-16.558-4.86l-.016-.007-.028-.009a11.449,11.449,0,0,0-4.4-.35h-.013q-1.948.255-3.734.514c-2.262.327-4.311.658-6.115.97-.937.164-1.809.324-2.61.473-1.243.233-2.308.444-3.186.623-.374.076-.714.148-1.016.211C326.448,1169.209,325.819,1169.36,325.819,1169.36Z"/><ellipse class="o" cx="12.815" cy="17.485" rx="12.815" ry="17.485" transform="translate(352.865 1120.403)"/><path class="w" d="M370.438,1129.557s-22.186,12.3-15.6-7.449C359.393,1108.443,385.569,1120.752,370.438,1129.557Z"/><path class="w" d="M367.222,1124.838s12.413,7.366,11.216,14.755c0,0,2.737-22.06-9.606-22.615s-17.121.637-16.025,23.964C352.807,1140.942,356.393,1122.386,367.222,1124.838Z"/><path class="w" d="M369.37,1117.122s-.623-6.873-7.437-5.9-9.734,4.867-10.708,8.761-1.946,6.814-2.92,6.814c0,0,2.92,2.92,3.894,1.946,0,0-2.527,7,.683,12.748,0,0,1.264-8.854,6.131-9.827S369.37,1117.122,369.37,1117.122Z"/><path class="w" d="M368.747,1117.063s4.867-2.921,9.734,3.893l2.92,5.841s-.973.973-2.92,0c0,0,.887,6.858-.043,10.729l-2.877-11.7Z"/><path class="j" d="M252.25,1284.4l0,.006,0,.006c9.908,26.9,61.748-75.954,61.748-75.954L336.1,1181.8l7.45-8.99,1.735-2.092,1.738-2.095,1.729-2.088-.006,0-.016-.007-.028-.009a58.118,58.118,0,0,0-19.6-3.015,60.3,60.3,0,0,0-7.267.523,56.353,56.353,0,0,0-29.684,13.473C257.735,1207.142,242.354,1257.5,252.25,1284.4Z"/><path class="v" d="M329.1,1163.5a18.1,18.1,0,0,0,3.993,3.465,7.835,7.835,0,0,0,1.165.608c.056.026.115.051.174.076a53.258,53.258,0,0,0,10.846,3.068,29.062,29.062,0,0,0,4.971.476c.137,0,.271,0,.4-.006,5.909-.18,9.908,2.283,13.559,2.46a2.184,2.184,0,0,0,2.539-2.464,6.563,6.563,0,0,1-1.452.208c-6.731.155-11.609-3.559-16.558-4.86l-.016-.007-.028-.009A58.118,58.118,0,0,0,329.1,1163.5Z"/><path class="v" d="M317.891,1300.952s-18.077-19.25-10.067-29.628,29.14-37.079,29.821-47.6c0,0-3.139,19.021-10.829,30.1S317.891,1300.952,317.891,1300.952Z"/><path class="v" d="M421.062,1288.9s8.622-6.522,9.026-12.077-8-20.7-8-20.7,5.044,14.368,2.769,19.643A78.018,78.018,0,0,0,421.062,1288.9Z"/><rect class="x" width="110.104" height="65.326" transform="translate(630.159 1276.083)"/><rect class="a" width="37.683" height="24.698" transform="translate(664.796 1288.878)"/><rect class="x" width="3.429" height="3.429" transform="translate(667.41 1290.151)"/><rect class="x" width="3.429" height="3.429" transform="translate(667.41 1294.836)"/><rect class="x" width="3.429" height="3.429" transform="translate(667.41 1299.521)"/><rect class="x" width="3.429" height="3.429" transform="translate(667.41 1304.206)"/><rect class="x" width="3.429" height="3.429" transform="translate(667.41 1308.891)"/><rect class="x" width="3.429" height="3.429" transform="translate(696.81 1290.151)"/><rect class="x" width="3.429" height="3.429" transform="translate(696.81 1294.836)"/><rect class="x" width="3.429" height="3.429" transform="translate(696.81 1299.521)"/><rect class="x" width="3.429" height="3.429" transform="translate(696.81 1304.206)"/><rect class="x" width="3.429" height="3.429" transform="translate(696.81 1308.891)"/><rect class="x" width="21.048" height="20.03" transform="translate(673.284 1291.305)"/><path class="a" d="M673.284,1305.631l7.537-7.537,11.271,13.24H673.284Z"/><path class="a" d="M686.8,1302.44l1.358-2.376,6.179,6.926v4.345H692.77l-6.654-7.876Z"/><text class="y" transform="translate(657.606 1332.92)"><tspan x="0" y="0">Video Editor</tspan></text></g></svg>