<svg xmlns="http://www.w3.org/2000/svg" width="157" height="133.164" viewBox="0 0 157 133.164"><defs><style>.a{fill:#eaeaea;stroke:#999;stroke-miterlimit:10;}.b{fill:#62548a;}</style></defs><g transform="translate(-976.5 -297.336)"><g transform="translate(838.872 42.899)"><rect class="a" width="156" height="44.621" transform="translate(138.128 342.48)"/><g transform="translate(146.518 355.999)"><path d="M167.24,370.586H146.213V355.508H167.24Zm-19.92-1.106h18.813V356.614H147.32Z" transform="translate(-146.213 -355.508)"/><g transform="translate(2.06 3.525)"><path d="M149.88,363.757l-.735,2.227H148.2l2.406-7.079h1.1l2.415,7.079h-.978l-.756-2.227Zm2.321-.714-.694-2.038c-.158-.462-.262-.882-.367-1.292h-.022c-.1.42-.22.851-.356,1.282l-.694,2.048Z" transform="translate(-148.198 -358.905)"/></g><g transform="translate(2.006 11.62)"><rect width="16.323" height="1.107"/></g><g transform="translate(8.923 9.439)"><rect width="9.407" height="1.107"/></g></g><g transform="translate(181.357 356.797)"><path d="M182.78,365.565l-1.31,3.964h-1.683l4.283-12.6h1.964l4.3,12.6H188.6l-1.347-3.964Zm4.133-1.272-1.235-3.628c-.28-.822-.467-1.57-.655-2.3h-.037c-.187.748-.392,1.514-.635,2.282l-1.235,3.645Z" transform="translate(-179.787 -356.253)"/><path d="M199.307,356.277v10.939c0,.8.02,1.719.076,2.337H197.9l-.075-1.571h-.037a3.345,3.345,0,0,1-3.085,1.777c-2.189,0-3.872-1.851-3.872-4.6-.018-3.01,1.851-4.862,4.058-4.862a3.028,3.028,0,0,1,2.73,1.383h.037v-5.4Zm-1.645,7.909a2.915,2.915,0,0,0-.075-.692,2.422,2.422,0,0,0-2.375-1.907c-1.7,0-2.71,1.5-2.71,3.5,0,1.833.9,3.348,2.673,3.348a2.474,2.474,0,0,0,2.413-1.963,2.863,2.863,0,0,0,.075-.711Z" transform="translate(-179.371 -356.277)"/><path d="M209.473,356.277v10.939c0,.8.02,1.719.076,2.337h-1.478L208,367.982h-.037a3.345,3.345,0,0,1-3.085,1.777c-2.189,0-3.872-1.851-3.872-4.6-.018-3.01,1.851-4.862,4.058-4.862a3.028,3.028,0,0,1,2.73,1.383h.037v-5.4Zm-1.645,7.909a2.916,2.916,0,0,0-.075-.692,2.422,2.422,0,0,0-2.375-1.907c-1.7,0-2.71,1.5-2.71,3.5,0,1.833.9,3.348,2.673,3.348a2.474,2.474,0,0,0,2.413-1.963,2.864,2.864,0,0,0,.075-.711Z" transform="translate(-178.987 -356.277)"/><path d="M217.639,357.844v2.6h2.356V361.7h-2.356v4.88c0,1.122.318,1.758,1.234,1.758a3.666,3.666,0,0,0,.954-.112l.075,1.234a4.03,4.03,0,0,1-1.458.224,2.281,2.281,0,0,1-1.777-.691,3.353,3.353,0,0,1-.636-2.357V361.7h-1.4v-1.254h1.4v-2.169Z" transform="translate(-178.474 -356.218)"/><path d="M223.425,357.935a1.019,1.019,0,0,1-2.038,0,1,1,0,0,1,1.028-1.028A.977.977,0,0,1,223.425,357.935Zm-1.833,11.594v-9.051h1.646v9.051Z" transform="translate(-178.219 -356.253)"/><path d="M227.821,357.844v2.6h2.357V361.7h-2.357v4.88c0,1.122.319,1.758,1.235,1.758a3.673,3.673,0,0,0,.954-.112l.075,1.234a4.035,4.035,0,0,1-1.458.224,2.28,2.28,0,0,1-1.777-.691,3.353,3.353,0,0,1-.637-2.357V361.7h-1.4v-1.254h1.4v-2.169Z" transform="translate(-178.09 -356.218)"/><path d="M231.768,356.277h1.646v13.276h-1.646Z" transform="translate(-177.828 -356.277)"/><path d="M236.962,365.181a2.9,2.9,0,0,0,3.1,3.142,5.956,5.956,0,0,0,2.506-.467l.28,1.178a7.331,7.331,0,0,1-3.01.56,4.2,4.2,0,0,1-4.451-4.563c0-2.729,1.608-4.88,4.245-4.88,2.954,0,3.74,2.6,3.74,4.264a6.2,6.2,0,0,1-.056.766ZM241.786,364a2.342,2.342,0,0,0-2.281-2.674A2.727,2.727,0,0,0,236.981,364Z" transform="translate(-177.691 -356.131)"/><path d="M255.347,369.07a6.063,6.063,0,0,1-2.6.523,4.3,4.3,0,0,1-4.506-4.619,4.6,4.6,0,0,1,4.862-4.806,5.479,5.479,0,0,1,2.281.468l-.374,1.271a3.818,3.818,0,0,0-1.907-.43,3.412,3.412,0,0,0-.056,6.806,4.672,4.672,0,0,0,2.02-.449Z" transform="translate(-177.207 -356.13)"/><path d="M261.986,369.407l-.132-1.14H261.8a3.37,3.37,0,0,1-2.768,1.346,2.578,2.578,0,0,1-2.768-2.6c0-2.189,1.945-3.385,5.442-3.366v-.187a1.866,1.866,0,0,0-2.057-2.1,4.513,4.513,0,0,0-2.357.673l-.374-1.084a5.61,5.61,0,0,1,2.973-.8c2.768,0,3.441,1.889,3.441,3.7v3.385a12.756,12.756,0,0,0,.149,2.169Zm-.244-4.619c-1.8-.037-3.833.281-3.833,2.038a1.455,1.455,0,0,0,1.551,1.571,2.251,2.251,0,0,0,2.187-1.514,1.7,1.7,0,0,0,.094-.524Z" transform="translate(-176.904 -356.131)"/><path d="M265.638,363.18c0-1.066-.019-1.982-.075-2.824H267l.057,1.777h.074a2.717,2.717,0,0,1,2.507-1.982,1.778,1.778,0,0,1,.467.056v1.552a2.475,2.475,0,0,0-.56-.056,2.309,2.309,0,0,0-2.207,2.113,4.637,4.637,0,0,0-.076.767v4.824h-1.626Z" transform="translate(-176.554 -356.131)"/><path d="M279.189,356.277v10.939c0,.8.02,1.719.075,2.337h-1.476l-.076-1.571h-.037a3.346,3.346,0,0,1-3.085,1.777c-2.189,0-3.872-1.851-3.872-4.6-.019-3.01,1.851-4.862,4.058-4.862a3.028,3.028,0,0,1,2.73,1.383h.037v-5.4Zm-1.645,7.909a2.914,2.914,0,0,0-.075-.692,2.422,2.422,0,0,0-2.375-1.907c-1.7,0-2.71,1.5-2.71,3.5,0,1.833.9,3.348,2.673,3.348a2.474,2.474,0,0,0,2.413-1.963,2.862,2.862,0,0,0,.075-.711Z" transform="translate(-176.359 -356.277)"/></g></g><path class="b" d="M-2879.358-967.33l-20.339,11.74a1.011,1.011,0,0,1-1.51-.881v-6.809h-60.471v-9.85h60.471v-6.81a1.011,1.011,0,0,1,1.51-.88l20.339,11.74A1.012,1.012,0,0,1-2879.358-967.33Z" transform="translate(84.543 3259.014) rotate(90)"/></g></svg>