<svg xmlns="http://www.w3.org/2000/svg" width="495" height="409.148" viewBox="0 0 495 409.148"><defs><style>.a,.d{fill:#caa267;}.a,.b{fill-rule:evenodd;}.b{fill:#ba965b;}.c{fill:#c2934e;}.e{fill:#8c7cc9;}.f{opacity:0.15;}.g{fill:#f0c659;}.h{fill:#e4a653;}.i{fill:#b58543;}.j{fill:#b35328;}.k{fill:#e9e9e9;}.l{fill:#8e94a0;}.m{fill:#4b3d64;}.n{fill:#cecfd4;}</style></defs><g transform="translate(-926.131 -418.966)"><g transform="translate(926.131 418.966)"><g transform="translate(48.389 33.567)"><path class="a" d="M985.458,489.474c-.371-1.272-1.515-16.586-5.025-22.92s-9.311-15.43-10.557-19.086c-1.467-4.3-4.786-8.38-2.162.941.947,3.364,3.072,10,3.856,11.27.381.614-.361-.432-2.382-5.233-2.15-5.1-2.9,2.107-1.591,4.55,0,0,.365.264-1.254-3.3-1.375-3.031-5.062-1.973-1.98,4.21-.055.11-2.511-4.621-3.262-3.8-1.831,2.007.494,7.452,2.657,10.869,4.22,6.666,10.377,13,12.047,18.725Z" transform="translate(-960.438 -442.765)"/><path class="a" d="M977.773,466.546s1.227-7.234-.155-10.44c-1.632-3.783-2.327-3.073-5.886-5.016-2.024-1.251-2.48.946,2.4,4,.869,2.811-2.381,3.623-2.241,5.576s1.492,7.15,2.722,7.839S977.773,466.546,977.773,466.546Z" transform="translate(-956.394 -439.495)"/><path class="b" d="M973.084,456.574s-3.038,4.423-3.11,7.611S967.167,454.762,973.084,456.574Z" transform="translate(-956.809 -437.17)"/></g><g transform="translate(58.456)"><path class="c" d="M1116.162,460.252s-1.454,16.232,8.557,25.208-23.074,0-23.074,0,6.157-15.546,4.776-25.208S1116.162,460.252,1116.162,460.252Z" transform="translate(-912.544 -403.783)"/><ellipse class="d" cx="17.505" cy="23.883" rx="17.505" ry="23.883" transform="translate(180.831 14.997)"/><path class="e" d="M1007.129,558.172c26.5-55.43,73.791-80.718,103.985-87.432,13.069-2.913,22.936-2.34,26.539.771a19.576,19.576,0,0,0,12.218,4.746,26.505,26.505,0,0,0,6.862-.625,34.148,34.148,0,0,0,7.272-2.474c1.117-.518,1.769-.89,1.769-.89a70.956,70.956,0,0,1,18.48,1.1c68.315,13.376,80.2,127.919,79.589,137.772-.372,5.863-6.435,32.428-14.013,56.041-6.209,19.385-13.456,36.789-19.412,39.2-13.216,5.317-113,12.617-133.516,2.831-.478-.358-1-.743-1.488-1.169-7.7-6.263-16.048-18.628-20.476-30.208,0-.013-11.794-33.253-14.2-40.021-.027-.066-.039-.12-.066-.172-.079-.267-.172-.519-.265-.759-.027-.093-.068-.172-.093-.265" transform="translate(-951.34 -398.495)"/><path class="f" d="M1044.837,594.9c.027.093.066.172.093.265.093.24.186.492.267.759.027.052.039.106.066.172,2.406,6.767,14.2,40.008,14.2,40.021,4.427,11.58,12.777,23.945,20.476,30.208-5.224-18.92-21.512-73.765-20.888-95.862C1055.939,591.766,1044.837,594.89,1044.837,594.9Z" transform="translate(-935.862 -356.781)"/><path class="f" d="M1159.784,531.614s-33.068,98.714,58.678,140.638l1.865,1.24-.474-23.219s-43.231-60.326-43.394-61.879S1159.784,531.614,1159.784,531.614Z" transform="translate(-891.062 -372.728)"/><path class="f" d="M1120.768,480.181c.052,1.581-.786,2.619-3.324,2.274-7.924-1.078-16.872-.852-23.374,2.127a5.522,5.522,0,0,1-5.344-.226c-4.162-2.433-6.742-9.693-7.765-12.911a2.19,2.19,0,0,1-.107-.7c13.069-2.913,22.936-2.34,26.539.771a19.576,19.576,0,0,0,12.218,4.746A10.765,10.765,0,0,1,1120.768,480.181Z" transform="translate(-921.079 -398.495)"/><g transform="translate(176.783)"><g transform="translate(3.695 6.658)"><path class="g" d="M1105.381,442.2s30.3,16.8,21.309-10.175C1120.467,413.362,1084.713,430.174,1105.381,442.2Z" transform="translate(-1094.101 -423.687)"/><path class="g" d="M1111.2,435.406s-16.955,10.059-15.319,20.153c0,0-3.739-30.132,13.12-30.889s23.385.87,21.889,32.733C1130.894,457.4,1126,432.056,1111.2,435.406Z" transform="translate(-1095.532 -423.337)"/></g><path class="g" d="M1104.563,427.154s.852-9.388,10.158-8.058,13.3,6.648,14.625,11.965,2.66,9.308,3.989,9.308c0,0-3.989,3.989-5.318,2.659,0,0,3.45,9.563-.934,17.412,0,0-1.725-12.093-8.374-13.423S1104.563,427.154,1104.563,427.154Z" transform="translate(-1088.13 -418.966)"/><path class="g" d="M1110.2,424.96s-6.648-3.987-13.3,5.319l-3.989,7.978s1.33,1.33,3.989,0c0,0-1.212,9.368.059,14.656l3.93-15.986Z" transform="translate(-1092.912 -416.855)"/></g><path class="f" d="M1216.579,610.281s-17.1-35.868-104.792,25.785,82.3-15.126,82.3-15.126Z" transform="translate(-918.695 -344.696)"/><path class="e" d="M1076.976,639.228s-80.933,34.335-100.569-39.713.788-91.806-7.2-127.852l13.019-6.268s49,30.209,65.77,76.846S1076.976,639.228,1076.976,639.228Z" transform="translate(-967.576 -399.909)"/></g><path class="h" d="M926.131,718.307h495L1346.4,640.841H992.657l-4.642,9.56Z" transform="translate(-926.131 -327.894)"/><path class="f" d="M1046.375,640.842c7.026,7.336,25.315,20.029,69.683,24.14,63.715,5.9,153.024-24.14,153.024-24.14Z" transform="translate(-876.775 -327.894)"/><g transform="translate(197.033 70.257)"><g transform="translate(0 233.238)"><path class="a" d="M1118.959,650.2c-1.261-.422-14.563-8.388-21.775-9.054s-18-.968-21.721-2.025c-4.38-1.245-5.485.495-.44,2.42,3.281,1.253,10,3.192,11.487,3.253.722.03-3.978-.6-9.085-1.66-5.429-1.125-11.319-2.656-11.588-1.688-.522,1.875,15.117,6.092,17.873,6.389a69.383,69.383,0,0,1-7.264-.88c-3.279-.581-7.037-1.742-7.775-1.062-1.164,1.072,7.12,4.322,13.966,5.271.118.221-2.093.568-10.148-1.106-.81-.168-2.87.186-.22,1.412,5.58,2.58,7.788,4.1,15.875,4.353,7.885.247,16.589-1.377,22.26.525Z" transform="translate(-1065.824 -632.269)"/><path class="a" d="M1095.928,643.724s-6.106-6.412-12.961-7.47c-4.075-.628-3.979-1.654-4.674-1.961-2.306-1.014-.073,3.267,3.388,4.364,2.813.893,4.384,5.7,6.075,6.719s6.752,2.89,8.013,2.229S1095.928,643.724,1095.928,643.724Z" transform="translate(-1061.093 -634.14)"/></g><path class="e" d="M1217.373,490.389c25.044,22.408,42.373,43.221,53.183,111.685,5.485,34.735,4.056,69.47,2.629,87.788a21.644,21.644,0,0,1-14.875,18.82c-78.466,25.882-162.222,20.713-162.222,20.713-4.494-1.673.353-17.93.353-17.93,40.145-54.482,97.52-45.321,112.955-54.877,4.815-28.243-33.982-63.585-38.556-81.1-11.983-45.943-51.421-85.7-41.217-103.707C1133.146,465.548,1192.111,467.787,1217.373,490.389Z" transform="translate(-1054.186 -468.778)"/></g><rect class="i" width="495" height="18.735" transform="translate(0 390.413)"/></g><g transform="translate(1053.656 622.297)"><path class="j" d="M1035.046,612h0a.619.619,0,0,1-.365-.793l.5-1.362,1.158.426-.5,1.364A.619.619,0,0,1,1035.046,612Z" transform="translate(-1009.115 -543.947)"/><path class="j" d="M1039.621,613.689h0a.619.619,0,0,1-.365-.793l.5-1.363c.034-.092,1.152.439,1.152.439l-.5,1.351A.621.621,0,0,1,1039.621,613.689Z" transform="translate(-1007.237 -543.259)"/><path class="k" d="M1034.958,611.967h0a.618.618,0,0,1-.365-.793l.549-1.492a.619.619,0,0,1,.793-.365h0a.618.618,0,0,1,.365.791l-.55,1.492A.618.618,0,0,1,1034.958,611.967Z" transform="translate(-1009.151 -544.18)"/><path class="k" d="M1039.525,613.648h0a.62.62,0,0,1-.367-.793l.55-1.492a.62.62,0,0,1,.793-.365h0a.62.62,0,0,1,.365.793l-.55,1.492A.619.619,0,0,1,1039.525,613.648Z" transform="translate(-1007.277 -543.49)"/><rect class="l" width="4.045" height="2.623" transform="translate(24.254 82.028) rotate(20.217)"/><rect class="l" width="4.045" height="2.623" transform="translate(25.984 77.691) rotate(20.217)"/><path class="m" d="M1226.969,694.774H1021.481a4.569,4.569,0,0,1-4.937-4.5v-3.079l22.493-41.562a7.161,7.161,0,0,1,6.413-3.976H1202.7c2.934,0,9.405,5.78,10.717,8.4l18.556,37.829v1.358C1232.018,693.185,1229.471,694.774,1226.969,694.774Z" transform="translate(-1016.544 -530.891)"/><path class="n" d="M1226.982,691.688H1021.494c-2.282,0-6.038-2-4.628-4.46l22.184-44.684a7.162,7.162,0,0,1,6.413-3.975h157.25a7.745,7.745,0,0,1,6.928,4.282L1231.6,686.8C1233.141,689.6,1229.484,691.688,1226.982,691.688Z" transform="translate(-1016.539 -532.157)"/><rect class="n" width="168.279" height="106.335" rx="4.362" transform="translate(22.479)"/><rect class="m" width="155.298" height="92.14" transform="translate(28.939 5.8)"/><path class="m" d="M1131.956,680.3h-60.549a1.092,1.092,0,0,1-1.077-1.265l2.553-15.948a1.775,1.775,0,0,1,1.752-1.494h54.612a1.559,1.559,0,0,1,1.542,1.334l2.34,16.038A1.182,1.182,0,0,1,1131.956,680.3Z" transform="translate(-994.473 -522.705)"/><path class="e" d="M1199.356,665.62H1034.842c-1.825,0-3.219-.7-2.93-1.477l6.937-18.618c.375-1,2.391-1.743,4.759-1.743h148.385c2.1,0,3.886.663,4.189,1.557l6.36,18.724C1202.79,664.888,1201.294,665.62,1199.356,665.62Z" transform="translate(-1010.252 -530.018)"/><g transform="translate(21.189 109.608)"><rect class="n" width="171.561" height="0.866" transform="translate(0 7.365)"/><rect class="n" width="171.561" height="0.866" transform="translate(0 11.697)"/><rect class="n" width="171.561" height="0.866" transform="translate(0 16.896)"/><rect class="n" width="171.561" height="0.866" transform="translate(0 21.662)"/><rect class="n" width="1.3" height="28.593" transform="translate(20.778 0.462) rotate(17.439)"/><rect class="n" width="1.3" height="28.593" transform="translate(33.341 0.462) rotate(17.439)"/><rect class="n" width="1.3" height="28.593" transform="translate(43.306 0.462) rotate(17.439)"/><rect class="n" width="1.3" height="28.593" transform="translate(53.27 0.462) rotate(17.439)"/><rect class="n" width="1.3" height="28.593" transform="translate(63.668 0.462) rotate(17.439)"/><rect class="n" width="1.3" height="28.593" transform="translate(74.218 0.138) rotate(10.978)"/><rect class="n" width="1.3" height="28.593" transform="translate(83.181)"/><rect class="n" width="1.3" height="28.593" transform="translate(150.41 0.852) rotate(-17.439)"/><rect class="n" width="1.3" height="28.593" transform="translate(138.279 0.852) rotate(-17.439)"/><rect class="n" width="1.3" height="28.593" transform="translate(126.149 0.852) rotate(-17.439)"/><rect class="n" width="1.3" height="28.593" transform="translate(114.018 0.852) rotate(-17.439)"/><rect class="n" width="1.3" height="28.593" transform="translate(101.888 0.852) rotate(-17.439)"/><rect class="n" width="1.3" height="28.593" transform="translate(89.757 0.852) rotate(-17.439)"/></g></g><g transform="translate(1136.453 640.821)"><path class="h" d="M1094.712,627.833a2.455,2.455,0,0,1-2.456-2.449v-.016a22.993,22.993,0,0,1,1.37-8.353,19.009,19.009,0,0,1,3.241-5.34,61.116,61.116,0,0,1,5.91-5.728,27.9,27.9,0,0,0,5.546-6,9.672,9.672,0,0,0,1.278-4.883,11.385,11.385,0,0,0-3.743-8.42,12.673,12.673,0,0,0-9.174-3.629,12.335,12.335,0,0,0-8.763,3.286,15.615,15.615,0,0,0-4.185,8.076,2.485,2.485,0,0,1-2.707,1.921l-3.6-.428a2.476,2.476,0,0,1-2.133-2.956,20.587,20.587,0,0,1,6.347-11.68q5.637-4.974,14.9-4.975,9.813,0,15.655,5.34a16.869,16.869,0,0,1,5.843,12.917,16.355,16.355,0,0,1-2.055,8.078q-2.053,3.7-8.033,8.992a40.7,40.7,0,0,0-5.248,5.248,11.682,11.682,0,0,0-1.827,3.88,24.344,24.344,0,0,0-.6,4.77,2.477,2.477,0,0,1-2.47,2.35Zm-2.911,14v-4.412a2.473,2.473,0,0,1,2.473-2.472h4.411a2.473,2.473,0,0,1,2.474,2.472v4.412a2.473,2.473,0,0,1-2.474,2.473h-4.411A2.473,2.473,0,0,1,1091.8,641.838Z" transform="translate(-1075.246 -576.258)"/></g></g></svg>