<svg xmlns:xlink="http://www.w3.org/1999/xlink" xmlns="http://www.w3.org/2000/svg" width="467.349" height="324.245"
     viewBox="0 0 467.349 324.245">
    <defs>
        <style>
            .a,.m{fill:none;}.b{fill:#bec9f2;opacity:0.49;}.c{clip-path:url(#a);}.d{fill:#c2934e;}.e,.l{fill:#caa267;}.f{fill:#8a7cc7;}.g{fill:#f1c759;}.h{opacity:0.15;}.i{opacity:0.3;}.j{opacity:0.5;}.k{fill:#eec459;}.l{fill-rule:evenodd;}.m{stroke:#8a7cc7;stroke-miterlimit:10;stroke-width:1.093px;}.n{fill:#9180d2;}
        </style>
        <clipPath id="a">
            <path class="a"
                  d="M966.1,463.495c58.255-46.677,87.382-70.016,114.728-77.61,91.364-25.369,221.16,26.845,249.7,121.477,1.486,4.924,21.06,73.3-16.872,118.1-31.758,37.509-71.712,20.556-188.965,40.493C999.16,687.3,968.9,719.665,925.6,694.692c-40.992-23.643-63.218-81.117-53.99-126.592C878.478,534.28,907.777,510.225,966.1,463.495Z"
                  transform="translate(-869.542 -379.5)"/>
        </clipPath>
    </defs>
    <g transform="translate(-869.542 -379.5)">
        <path class="b"
              d="M966.1,463.495c58.255-46.677,87.382-70.016,114.728-77.61,91.364-25.369,221.16,26.845,249.7,121.477,1.486,4.924,21.06,73.3-16.872,118.1-31.758,37.509-71.712,20.556-188.965,40.493C999.16,687.3,968.9,719.665,925.6,694.692c-40.992-23.643-63.218-81.117-53.99-126.592C878.478,534.28,907.777,510.225,966.1,463.495Z"
              transform="translate(0 0)"/>
        <g transform="translate(869.542 379.5)">
            <g class="c">
                <g transform="translate(105.871 39.569)">
                    <path class="d"
                          d="M1110.9,463.186s-1.2,13.446,7.089,20.88-19.112,0-19.112,0,5.1-12.877,3.956-20.88S1110.9,463.186,1110.9,463.186Z"
                          transform="translate(-967.808 -416.413)"/>
                    <ellipse class="e" cx="14.499" cy="19.782" rx="14.499" ry="19.782"
                             transform="translate(124.222 12.423)"/>
                    <path class="f"
                          d="M1205.1,592.067c-.309,4.857-5.33,26.86-11.608,46.42-5.143,16.056-11.146,30.472-16.079,32.466-10.946,4.4-93.6,10.45-110.592,2.345-.4-.3-.827-.617-1.234-.969-6.377-5.187-13.293-15.429-16.96-25.021,0-.011-9.769-27.543-11.762-33.149-.022-.056-.033-.1-.055-.144-.066-.22-.144-.429-.22-.627-.023-.077-.056-.144-.078-.221-10.286,35.12-90.68,32.565-44.052-64.975,21.949-45.913,61.122-66.86,86.131-72.421,10.826-2.411,19-1.938,21.983.639a16.213,16.213,0,0,0,10.121,3.932,21.942,21.942,0,0,0,5.682-.518,28.257,28.257,0,0,0,6.024-2.049c.926-.429,1.465-.738,1.465-.738a58.793,58.793,0,0,1,15.307.914C1195.761,489.03,1205.607,583.906,1205.1,592.067Z"
                          transform="translate(-971.815 -415.929)"/>
                    <path class="g"
                          d="M1175.435,799.433h-56.976q.115-5.235.255-10.555c.12-4.846.256-9.726.393-14.555.145-5.119.29-10.2.427-15.144.136-4.744.265-9.369.384-13.805.324-12.533.546-23.6.5-31.636-.034-7.61-.307-12.5-.964-13.335-.248-.316-.5-.256-.777.17-.862,1.348-1.834,6.356-2.9,13.984-.572,4.053-1.16,8.848-1.775,14.222-.605,5.256-1.228,11.083-1.877,17.312-.453,4.368-.913,8.941-1.391,13.668-.537,5.418-1.092,11.024-1.655,16.757-.418,4.2-.836,8.464-1.262,12.773q-.5,5.041-1,10.145H1043.3c.016-.154.034-.316.06-.47.554-3.95,1.126-8.105,1.714-12.413.7-5.119,1.417-10.451,2.142-15.9.675-5.093,1.365-10.3,2.048-15.52,1.4-10.656,2.791-21.432,4.1-31.662,1.254-9.786,2.424-19.077,3.464-27.276,2.406-19.146,4.044-32.4,4.044-32.4a6.644,6.644,0,0,0,.521.469.166.166,0,0,0,.042.034,7.5,7.5,0,0,0,1.8,1.076,11.162,11.162,0,0,0,2.713.759l5.767.1c4.267.076,9.932.154,16.432.222,4.864.051,10.2.094,15.742.111,1.449.008,2.909.018,4.376.008h.068c3.558.009,7.167.009,10.785-.008,5.681-.026,11.372-.086,16.833-.188,5.094-.093,10-.221,14.5-.4q2.931-.127,5.622-.264c.017.008.034,0,.051,0l.444-.026c.451-.025.7-.042.7-.042.912-.051,1.792-.111,2.653-.171s1.689-.111,2.492-.179h.008c.665-.052,1.305-.1,1.928-.162.41-.034.819-.078,1.212-.12.2-.017.393-.034.58-.06s.384-.042.571-.06.376-.042.555-.059.359-.043.538-.068c.255-.026.5-.06.75-.094.956-.128,1.817-.256,2.586-.393a17.988,17.988,0,0,0,2.934-.743,2.283,2.283,0,0,0,.23-.093,3.465,3.465,0,0,0,.4-.18c.06-.034.12-.068.172-.094s.1-.068.145-.1a1.074,1.074,0,0,0,.23-.2.917.917,0,0,1-.009.112c0,.068-.008.179-.016.323-.008.188-.017.436-.034.743-.008.2-.017.435-.034.683-.026.469-.051,1.024-.077,1.655-.008.162-.017.323-.026.495a.426.426,0,0,0-.008.1c-.009.239-.026.486-.034.742s-.034.529-.043.8c-.025.5-.051,1.033-.085,1.587-.008.23-.018.47-.034.709-.018.341-.034.691-.052,1.05-.016.239-.026.486-.034.742-.051.947-.1,1.945-.162,3-.026.529-.051,1.074-.085,1.629s-.052,1.126-.086,1.715c-.042.811-.086,1.647-.128,2.5-.068,1.3-.136,2.67-.213,4.078-.034.709-.077,1.425-.11,2.158-.086,1.673-.18,3.414-.274,5.205-.076,1.288-.136,2.611-.213,3.959-.042.87-.094,1.749-.137,2.636q-.152,2.8-.307,5.751c-.2,3.618-.341,7.355-.443,11.186-.384,13.574-.239,28.309.281,42.745.2,5.11.427,10.179.709,15.144s.6,9.846.956,14.555Q1174.966,794.318,1175.435,799.433Z"
                          transform="translate(-969.651 -409.673)"/>
                    <path class="h"
                          d="M1034.641,609.358c.022.076.055.143.077.22.077.2.154.407.22.627.022.044.033.089.055.144,1.993,5.606,11.761,33.138,11.761,33.149,3.668,9.592,10.584,19.834,16.96,25.021-4.328-15.671-17.819-61.1-17.3-79.4C1043.837,606.758,1034.641,609.346,1034.641,609.358Z"
                          transform="translate(-969.938 -412.119)"/>
                    <path class="h"
                          d="M1155.972,549.7s-33.694,79.376,39.356,119.93l1.46,1.145,1.111-19.2s-31.8-52.613-31.831-53.906S1155.972,549.7,1155.972,549.7Z"
                          transform="translate(-966.172 -413.426)"/>
                    <path class="h"
                          d="M1108.428,483.589c.044,1.311-.65,2.17-2.753,1.883-6.563-.892-13.975-.7-19.36,1.763a4.577,4.577,0,0,1-4.427-.187c-3.447-2.016-5.583-8.029-6.431-10.694a1.837,1.837,0,0,1-.088-.584c10.825-2.411,19-1.938,21.982.64a16.218,16.218,0,0,0,10.121,3.931A8.913,8.913,0,0,1,1108.428,483.589Z"
                          transform="translate(-968.587 -415.929)"/>
                    <g class="i" transform="translate(138.172 253.196)">
                        <path d="M1106.326,666.467l-.574-.048S1105.957,666.433,1106.326,666.467Z"
                              transform="translate(-1105.752 -662.751)"/>
                        <path class="j"
                              d="M1106.308,666.584c15.341,1.224,48.872-.944,48.872-.944,9.852-.567,16.772-1.442,17.987-2.771a1.128,1.128,0,0,1-.008.114c-.072,1.539-.956,19.162-2.2,42.262a11.337,11.337,0,0,1-1.613-.187,12.549,12.549,0,0,1-8.119-5.768,27.9,27.9,0,0,1-3.157-6.594C1146.637,670.933,1111.223,667.025,1106.308,666.584Z"
                              transform="translate(-1105.734 -662.869)"/>
                    </g>
                    <g transform="translate(120.869)">
                        <g transform="translate(3.06 5.516)">
                            <path class="k"
                                  d="M1101.178,438.473s25.1,13.917,17.651-8.427C1113.675,414.586,1084.059,428.511,1101.178,438.473Z"
                                  transform="translate(-1091.835 -423.138)"/>
                            <path class="k"
                                  d="M1104.948,433.1s-14.044,8.333-12.689,16.693c0,0-3.1-24.958,10.868-25.585s19.371.72,18.131,27.112C1121.257,451.323,1117.2,430.329,1104.948,433.1Z"
                                  transform="translate(-1091.966 -423.106)"/>
                        </g>
                        <path class="k"
                              d="M1102.179,424.582s.7-7.777,8.414-6.675,11.012,5.507,12.114,9.912,2.2,7.709,3.3,7.709c0,0-3.3,3.3-4.405,2.2,0,0,2.859,7.921-.773,14.423,0,0-1.429-10.018-6.936-11.119S1102.179,424.582,1102.179,424.582Z"
                              transform="translate(-1088.567 -417.8)"/>
                        <path class="k"
                              d="M1103.321,424.322s-5.506-3.3-11.012,4.405l-3.3,6.608s1.1,1.1,3.3,0c0,0-1,7.759.049,12.139l3.255-13.24Z"
                              transform="translate(-1089.004 -417.607)"/>
                    </g>
                    <path class="h" d="M1163.928,635.942s4-32.672-84.7-28.573,64.241,26.021,64.241,26.021Z"
                          transform="translate(-969.377 -411.525)"/>
                    <g transform="translate(73.751 60.357)">
                        <g transform="translate(0 131.239)">
                            <path class="l"
                                  d="M1086.716,620.266c-1.014-.431-11.484-7.87-17.4-8.886s-14.8-1.963-17.805-3.078c-3.536-1.311-4.562.054-.52,1.971a59.082,59.082,0,0,0,9.275,3.429c.594.07-3.245-.755-7.394-1.96-4.411-1.28-9.176-2.925-9.461-2.144-.553,1.515,12.089,6.009,14.345,6.434a57.507,57.507,0,0,1-5.942-1.2c-2.67-.692-5.7-1.894-6.351-1.38-1.03.81,5.6,4.029,11.192,5.257.085.19-1.765.334-8.308-1.569-.658-.191-2.383-.033-.274,1.151,4.441,2.492,6.167,3.891,12.828,4.622,6.495.713,13.786-.064,18.347,1.873Z"
                                  transform="translate(-1043.398 -603.096)"/>
                            <path class="l"
                                  d="M1071.7,612.341s-4.627-5.69-10.219-7.007c-3.325-.782-3.179-1.623-3.733-1.921-1.839-.988-.273,2.691,2.515,3.823,2.266.919,3.251,4.99,4.582,5.942s5.388,2.823,6.473,2.359S1071.7,612.341,1071.7,612.341Z"
                                  transform="translate(-1042.949 -603.247)"/>
                        </g>
                        <path class="f"
                              d="M1189.989,498.933c19.231,20.124,32.194,38.431,36.692,95.667,2.281,29.038-1.145,57.629-3.51,72.662a17.924,17.924,0,0,1-13.5,14.578c-66.47,16.3-132.826-50.763-132.826-50.763-3.6-1.672,4.9-14.318,4.9-14.318,35.851,2.435,63.213,5.683,90.9,18.9-.14-.078-23.949-54.7-26.594-69.468-6.922-38.714-36.918-74.1-27.326-88.305C1122.044,472.97,1170.59,478.634,1189.989,498.933Z"
                              transform="translate(-1042.318 -476.22)"/>
                    </g>
                    <g transform="translate(89.332 253.001)">
                        <path class="m"
                              d="M1058.479,799.439l.751-7.909,1.45-15.187,1.561-16.3,1.527-15.98,1.672-17.448,1.305-13.711,1.28-13.4,1.681-17.559,1.237-12.917.265-2.8.341-3.558"
                              transform="translate(-1058.479 -662.68)"/>
                        <path class="m"
                              d="M1074.269,799.33l.554-5.742,1.433-14.837,1.544-15.972,1.51-15.665,1.724-17.866,1.314-13.6,1.314-13.591,1.9-19.632,1.135-11.808.418-4.266.034-.384"
                              transform="translate(-1057.956 -662.571)"/>
                        <path class="m"
                              d="M1102.329,665.967l-.043.495-.358,4.454-.964,11.953-1.6,19.76-1.083,13.463-1.152,14.189-1.391,17.217-1.22,15.093-1.28,15.861-1.143,14.112-.546,6.766"
                              transform="translate(-1057.383 -662.571)"/>
                        <line class="m" x2="0.345" y2="34.327" transform="translate(60.127 3.399)"/>
                        <path class="m"
                              d="M1130.606,799.33l.128-7.09.282-14.948.256-14.223.282-15.042.3-16.074.247-13.7.316-17.09.333-17.892.188-10.247.06-3.327.06-3.131v-.29l.009-.307"
                              transform="translate(-1056.088 -662.571)"/>
                        <path class="m"
                              d="M1147.036,665.868v.068l-.017,2.577-.06,12.679-.008,1.9-.1,19.052-.085,16.723-.068,13.779-.085,16.083-.077,15.289-.068,13.916-.077,14.769-.034,6.629"
                              transform="translate(-1055.565 -662.575)"/>
                        <path class="m"
                              d="M1160.806,665.868l.017.956.3,15.6.359,18.642.008.64.3,15.733.273,13.873.29,15.52.282,14.453.273,14.581.282,14.624.171,8.839"
                              transform="translate(-1055.086 -662.575)"/>
                    </g>
                    <path class="m" d="M1058.18,680.861s91.467,4.318,115.634,0"
                          transform="translate(-969.157 -409.076)"/>
                    <path class="m" d="M1119.02,699.33c-32,7.249-62.629-4.21-62.629-4.21"
                          transform="translate(-969.217 -408.604)"/>
                    <path class="m" d="M1116.676,697.1s28.882,8.115,54.25,1.263"
                          transform="translate(-967.218 -408.538)"/>
                    <path class="m" d="M1054.868,707.167s23.063,12.076,60.525,5.92"
                          transform="translate(-969.267 -408.204)"/>
                    <path class="m" d="M1053.041,721.515s35.889,10.958,60.638,5.319"
                          transform="translate(-969.328 -407.728)"/>
                    <path class="m" d="M1051.208,735.769s18.279,14.329,60.658,7.9"
                          transform="translate(-969.389 -407.256)"/>
                    <path class="m" d="M1049.076,752.165s27.87,14.562,61.472,4.631"
                          transform="translate(-969.459 -406.712)"/>
                    <path class="m" d="M1047.092,767.185s19.74,14.012,61.864,5.872"
                          transform="translate(-969.525 -406.214)"/>
                    <path class="m" d="M1045.019,782.582s27.245,14.242,62.747,2.736"
                          transform="translate(-969.594 -405.703)"/>
                    <path class="m" d="M1043.913,795.065c-.375-.3-.554-.47-.554-.47"
                          transform="translate(-969.649 -405.305)"/>
                    <path class="m" d="M1117.947,712.1s12.065,9.964,52.937,2.567"
                          transform="translate(-967.176 -408.04)"/>
                    <path class="m" d="M1118.254,726.617s16.93,7.9,51.653,1.66"
                          transform="translate(-967.165 -407.559)"/>
                    <path class="m" d="M1117.454,742.726s26.144,7.874,52.479,0"
                          transform="translate(-967.192 -407.025)"/>
                    <path class="m" d="M1117.09,756.084s25.415,11.3,53.362,0" transform="translate(-967.204 -406.582)"/>
                    <path class="m" d="M1116.676,770.75s24.2,8.491,54.492,0" transform="translate(-967.218 -406.096)"/>
                    <path class="m" d="M1116.3,784.836s20.4,9.15,55.836,0" transform="translate(-967.23 -405.629)"/>
                    <path class="h"
                          d="M1104.557,497.763c.627,2.056,5.062,9.285,3.692,15.714s-31.132,70.568-43.395,78.856-34.405,17.711-34.405,17.711l60.505-83.71,3.344-28.572S1100.635,484.91,1104.557,497.763Z"
                          transform="translate(-970.077 -415.337)"/>
                    <g transform="translate(113.549 55.013)">
                        <path class="l"
                              d="M1096.9,496.373s3.694-6.473,2.89-12.255c-.478-3.438.372-3.609.451-4.243.26-2.1-2.651.73-2.7,3.786-.04,2.484-3.536,4.913-3.95,6.522s-.7,6.142.141,7S1096.9,496.373,1096.9,496.373Z"
                              transform="translate(-1081.546 -470.778)"/>
                        <path class="l"
                              d="M1094.968,513.414c.036-1.118,3.244-13.77,2.037-19.746s-3.631-16.339-3.678-19.6c-.055-3.833-1.725-4.3-2.058.23a80.059,80.059,0,0,0,.214,11.643,47.34,47.34,0,0,1-1.132-7.663c-.149-2.559-.753-1.548-1.606-1.309-1.579.44-.887,4.762-.461,7.055a22.165,22.165,0,0,1-1.147-5.628c-.113-1.3-.742-.964-1.516-.845s-1.1,1.057-.209,6.806c-.15.15-.386,1.593-.983-5.306-.061-.693-2.085-2.1-2.16.362-.132,4.311-1.033,3.93.718,10.511,1.707,6.417,5.119,13.043,4.957,18.075Z"
                              transform="translate(-1081.919 -471.047)"/>
                    </g>
                    <path class="n"
                          d="M1086.674,501.728a158.219,158.219,0,0,0-57.145,19.286c-15.244,8.736-53.094,30.427-57.144,66.43-.353,3.146-3.035,30.226,13.572,41.43,11.114,7.5,25.088,3.987,28.8,3.054,6.593-1.656,15.414-5.369,49.775-50.912,19.527-25.883,29.527-41.713,37.143-62.86,1.281-3.553,2.233-6.535,2.858-8.571Z"
                          transform="translate(-972.015 -415.017)"/>
                </g>
            </g>
        </g>
    </g>
</svg>
