<svg xmlns="http://www.w3.org/2000/svg" width="775.001" height="281.774" viewBox="0 0 775.001 281.774"><defs><style>.a{fill:#bec9f2;opacity:0.49;}.b{fill:#f1c759;}.c{opacity:0.3;}.d{fill:#8c7cc9;}.e{opacity:0.15;}.f{fill:#5e5586;}.g,.h,.k{fill:none;stroke:#8c7cc9;stroke-miterlimit:10;}.g{stroke-width:0.298px;}.h{stroke-width:0.291px;}.i{fill:#979797;}.j{fill:#cacaca;}.k{stroke-width:0.229px;}.l{fill:#c2934e;}.m{fill:#caa267;}.n{fill:#f0c659;}.o{fill:#023f7d;}.p{fill:#fff;}.q{fill:#fff;font-size:23px;font-family:FiraGO-Medium, FiraGO;font-weight:500;}.r{fill:#fff;font-size:22px;font-family:FiraGO-Light, FiraGO;font-weight:300;}</style></defs><g transform="translate(-295.999 -300)"><g transform="translate(617.851 300)"><path class="a" d="M914.173,681.54c12.732,1.03,25.078-3.625,40.21-8.229,17.785-5.411,36.608-8.781,54.9-11.991,36.578-6.421,82.8-14.368,118,1.8,61.049,28.042,149.177-25.412,159.29-81.757s-18.781-144.745-70.791-161.223-146.365,11.446-203.208,24.934c-47.153,11.189-99.171,18.416-139.89,46.674-34.235,23.759-43.792,63.465-33.1,102.427C848.836,627.923,854.6,676.719,914.173,681.54Z" transform="translate(-835.427 -400.815)"/><g transform="translate(73.849)"><g transform="translate(0 64.084)"><path class="b" d="M1073.123,641.508s-107.6-74.734-153.11-31.642c-36.341,34.406,28.168,74.83,110.692,63.96,58.089-7.65,64.672,3.462,74.846,3.222,75.713-5.8,177.728-28.453,128.082-64.041-67.632-48.479-113.379,2.915-136.945,15.709Z" transform="translate(-909.644 -465.779)"/><path class="c" d="M1212.324,611.24c-28.28-5.836-136.012,34.115-136.012,34.115s-93.816-28.279-116.26-30.973-32.769,5.835-32.769,5.835,10.59-11.934,22.893-13.017,30.076-4.04,30.076-4.04,179.553-8.529,203.343-3.142S1212.324,611.24,1212.324,611.24Z" transform="translate(-909.731 -465.807)"/><path class="d" d="M1071.15,465.147a58.7,58.7,0,0,0-23.515,4.912c-20.393,8.917-58.376,27.659-58.991,36.812-.814,12.12,18.172,110.441,54.888,123.233a109.753,109.753,0,0,0,34.013,5.664,58.677,58.677,0,0,0,56.358-39.315c11.571-33,25.8-80.165,17.714-92.928-9.427-14.884-43.349-28.672-60.547-34.9a58.524,58.524,0,0,0-19.92-3.481Z" transform="translate(-910.036 -465.147)"/><path class="d" d="M1011.073,488.136c-63.364,33.953-78.926,95.255-62.167,108.767,11.744,9.469,56.02,30.41,94.4,29.064a625.9,625.9,0,0,1,74.421,2.267s65.835-13.4,78.965-33.126-23.3-83.821-55.961-102.346S1011.073,488.136,1011.073,488.136Z" transform="translate(-909.808 -465.236)"/><path class="e" d="M1132.817,523.409c17.954,9.575,33.6,45.863,33.6,45.863s-40.4,6.285-48.779,12.568,1.2-2.394,5.985-19.751S1132.817,523.409,1132.817,523.409Z" transform="translate(-910.659 -465.436)"/><path class="e" d="M1007.078,520.78c4.19,19.153,24.239,72.623,24.239,72.623s-18.57-21.151-38.3-22.349-27.058-1.5-26.933,3.292c.025.946,3.292-21.246,18.554-35.012S1007.078,520.78,1007.078,520.78Z" transform="translate(-909.924 -465.423)"/><path class="f" d="M1103.711,675.928s14.812-11.161,34.338-9.141,36.358,6.278,19.525,11.555-34.338,5.95-42.417,5.277S1103.711,675.928,1103.711,675.928Z" transform="translate(-910.606 -466.146)"/></g><path class="g" d="M951.129,599.229s-49.9,13.855-31.093,40.224c15.111,21.192,77.908,18.985,111.031,18.135" transform="translate(-909.674 -401.728)"/><path class="h" d="M931.24,618s36.415-1.765,64.849,12.605,80.652,20.332,80.652,20.332" transform="translate(-909.751 -401.821)"/><path class="i" d="M1127.588,641.479h-108.42a8.942,8.942,0,0,1-8.819-7.465l-13.073-78.022a8.943,8.943,0,0,1,8.819-10.42h134.565a8.942,8.942,0,0,1,8.819,10.42l-13.073,78.022A8.941,8.941,0,0,1,1127.588,641.479Z" transform="translate(-910.078 -401.462)"/><path class="j" d="M1127.588,641.5h-108.42a8.853,8.853,0,0,1-8.819-7.2l-13.073-75.207a8.724,8.724,0,0,1,8.819-10.044h134.565a8.724,8.724,0,0,1,8.819,10.044L1136.407,634.3A8.853,8.853,0,0,1,1127.588,641.5Z" transform="translate(-910.078 -401.479)"/><path class="h" d="M929.6,658.357c13.951,6.354,35.479,12.188,65.263,9.591,58.465-5.094,77.733,7.2,77.733,7.2" transform="translate(-909.743 -402.021)"/><path class="f" d="M1087.71,672.8c-.649-.112-70.022-17.475-85.508-4.682s51.842,13.01,63.962,10.208S1087.71,672.8,1087.71,672.8Z" transform="translate(-910.092 -402.046)"/><path class="k" d="M1150.365,644.607s56.548-8.026,73.517-23.389" transform="translate(-910.838 -401.837)"/><path class="k" d="M1152.118,653.15s53.657-2.522,80.027-20.179" transform="translate(-910.847 -401.895)"/><path class="k" d="M1165.52,630.667s7.531,13.758,7.3,29.351" transform="translate(-910.913 -401.884)"/><path class="k" d="M1180.232,629.514s4.586,8.256,5.275,26.829" transform="translate(-910.986 -401.878)"/><g transform="translate(139.466)"><path class="l" d="M1066.775,453.03s1.34,14.96-7.888,23.234,21.267,0,21.267,0-5.675-14.33-4.4-23.234S1066.775,453.03,1066.775,453.03Z" transform="translate(-1049.842 -400.983)"/><ellipse class="m" cx="16.134" cy="22.012" rx="16.134" ry="22.012" transform="translate(5.667 13.823)"/><g transform="translate(5.476 6.137)"><path class="n" d="M1077.7,423.975s-27.932,15.486-19.641-9.378C1063.8,397.394,1096.752,412.89,1077.7,423.975Z" transform="translate(-1055.314 -406.911)"/><path class="n" d="M1073.647,418.04s15.628,9.273,14.12,18.574c0,0,3.446-27.772-12.093-28.47s-21.554.8-20.175,30.17C1055.5,438.314,1060.014,414.953,1073.647,418.04Z" transform="translate(-1055.308 -406.917)"/></g><path class="n" d="M1076.324,408.289s-.784-8.653-9.362-7.427-12.255,6.126-13.481,11.029-2.451,8.578-3.676,8.578c0,0,3.676,3.676,4.9,2.451,0,0-3.181,8.813.861,16.048,0,0,1.59-11.146,7.718-12.371S1076.324,408.289,1076.324,408.289Z" transform="translate(-1049.805 -400.743)"/><path class="n" d="M1075.668,408.248s6.126-3.677,12.254,4.9l3.677,7.353s-1.226,1.225-3.677,0c0,0,1.117,8.634-.054,13.508l-3.622-14.734Z" transform="translate(-1049.933 -400.777)"/></g><path class="d" d="M1061.241,468.662s4.815,8.714,12.152,6.65,9.4-3.167,9.4-3.167,10.777,14.4,5.732,16.7-41.5,6.65-43.339-1.375,15.593-18.116,15.593-18.116" transform="translate(-910.316 -401.08)"/><path class="k" d="M963.946,615.038s-24.733,24.18-8.342,54.269" transform="translate(-909.844 -401.806)"/><path class="k" d="M978.627,618.175s-18.8,32.23-7.771,55.507" transform="translate(-909.93 -401.822)"/><path class="c" d="M1082.3,646.873l39.51,11.457s12.557,5.695,10.72.794-11.914-6.738-18.362-8.882S1082.3,646.873,1082.3,646.873Z" transform="translate(-910.5 -401.964)"/></g></g><g transform="translate(296.999 300)"><g transform="translate(9.659 0)"><rect class="o" width="107.044" height="107.044" transform="translate(0 0)"/><g transform="translate(26.869 36.053)"><rect class="p" width="53.306" height="34.937"/><rect class="o" width="4.85" height="4.85" transform="translate(3.698 1.801)"/><rect class="o" width="4.85" height="4.85" transform="translate(3.698 8.428)"/><rect class="o" width="4.85" height="4.85" transform="translate(3.698 15.055)"/><rect class="o" width="4.85" height="4.85" transform="translate(3.698 21.683)"/><rect class="o" width="4.85" height="4.85" transform="translate(3.698 28.31)"/><rect class="o" width="4.85" height="4.85" transform="translate(45.286 1.801)"/><rect class="o" width="4.85" height="4.85" transform="translate(45.286 8.428)"/><rect class="o" width="4.85" height="4.85" transform="translate(45.286 15.055)"/><rect class="o" width="4.85" height="4.85" transform="translate(45.286 21.683)"/><rect class="o" width="4.85" height="4.85" transform="translate(45.286 28.31)"/><rect class="o" width="29.774" height="28.334" transform="translate(12.006 3.434)"/><path class="p" d="M108.462,152.432l10.661-10.661L135.067,160.5h-26.6Z" transform="translate(-96.457 -128.732)"/><path class="p" d="M123.511,147.294l1.921-3.362,8.74,9.8v6.147h-2.209l-9.413-11.141Z" transform="translate(-92.391 -128.109)"/></g></g><text class="q" transform="translate(0 151.991)"><tspan x="0" y="0">Video Editor</tspan></text><text class="r" transform="translate(5.155 202.533)"><tspan x="0" y="0">Windows 10</tspan></text></g></g></svg>