<svg xmlns="http://www.w3.org/2000/svg" width="528" height="328.317" viewBox="0 0 528 328.317"><defs><style>.a{fill:#bec9f2;opacity:0.49;}.b{fill:#f1c759;}.c{opacity:0.3;}.d{fill:#8c7cc9;}.e{opacity:0.15;}.f{fill:#5e5586;}.g,.h,.k{fill:none;stroke:#8c7cc9;stroke-miterlimit:10;}.g{stroke-width:0.298px;}.h{stroke-width:0.291px;}.i{fill:#979797;}.j{fill:#cacaca;}.k{stroke-width:0.229px;}.l{fill:#c2934e;}.m{fill:#caa267;}.n{fill:#f0c659;}</style></defs><g transform="translate(-856.532 -417.458)"><path class="a" d="M948.285,742.267c14.835,1.2,29.22-4.224,46.852-9.588,20.723-6.3,42.654-10.232,63.965-13.972,42.62-7.482,96.472-16.742,137.5,2.1,71.133,32.674,173.819-29.61,185.6-95.262s-21.884-168.655-82.484-187.854-170.541,13.337-236.774,29.052c-54.942,13.037-115.552,21.458-163,54.384-39.89,27.683-51.025,73.948-38.572,119.346C872.156,679.794,878.871,736.65,948.285,742.267Z" transform="translate(0 2.286)"/><g transform="translate(942.579 417.458)"><g transform="translate(0 74.669)"><path class="b" d="M1121.232,666.3s-125.368-87.079-178.4-36.869c-42.344,40.09,32.82,87.19,128.976,74.525,67.683-8.913,75.354,4.034,87.209,3.754,88.219-6.76,207.085-33.153,149.238-74.619-78.8-56.487-132.107,3.4-159.565,18.3Z" transform="translate(-930.749 -461.548)"/><path class="c" d="M1280.512,630.1c-32.951-6.8-158.478,39.75-158.478,39.75s-109.313-32.95-135.465-36.089-38.181,6.8-38.181,6.8,12.339-13.9,26.674-15.167,35.044-4.707,35.044-4.707,209.212-9.937,236.932-3.661S1280.512,630.1,1280.512,630.1Z" transform="translate(-927.937 -460.648)"/><path class="d" d="M1105.887,481.862a68.393,68.393,0,0,0-27.4,5.723c-23.762,10.389-68.019,32.228-68.735,42.893-.948,14.121,21.173,128.682,63.954,143.588a127.88,127.88,0,0,0,39.632,6.6,68.37,68.37,0,0,0,65.667-45.809c13.482-38.452,30.057-93.407,20.64-108.278-10.984-17.342-50.509-33.408-70.548-40.661a68.19,68.19,0,0,0-23.21-4.056Z" transform="translate(-918.16 -481.862)"/><path class="d" d="M1043.482,505.678c-73.831,39.561-91.963,110.989-72.436,126.733,13.683,11.033,65.273,35.434,109.99,33.865a729.3,729.3,0,0,1,86.714,2.641s76.709-15.609,92.009-38.6-27.146-97.667-65.2-119.251S1043.482,505.678,1043.482,505.678Z" transform="translate(-925.49 -478.995)"/><path class="e" d="M1156.976,540.124c20.92,11.157,39.152,53.439,39.152,53.439s-47.073,7.323-56.836,14.644,1.395-2.79,6.974-23.013S1156.976,540.124,1156.976,540.124Z" transform="translate(-898.123 -472.575)"/><path class="e" d="M1034.955,537.495c4.882,22.316,28.243,84.619,28.243,84.619s-21.638-24.644-44.631-26.04-31.528-1.743-31.381,3.835c.028,1.1,3.835-24.757,21.618-40.8S1034.955,537.495,1034.955,537.495Z" transform="translate(-921.753 -472.994)"/><path class="f" d="M1124.816,694.194s17.259-13.005,40.01-10.651,42.363,7.315,22.75,13.464-40.01,6.933-49.423,6.148S1124.816,694.194,1124.816,694.194Z" transform="translate(-899.815 -449.76)"/></g><path class="g" d="M978.069,615.944s-58.138,16.143-36.229,46.869c17.607,24.693,90.776,22.121,129.372,21.13" transform="translate(-929.767 -385.82)"/><path class="h" d="M952.345,634.725s42.431-2.057,75.561,14.687,93.974,23.69,93.974,23.69" transform="translate(-927.307 -382.839)"/><path class="i" d="M1170.238,674.036H1043.91a10.419,10.419,0,0,1-10.276-8.7l-15.232-90.91a10.42,10.42,0,0,1,10.276-12.141H1185.47a10.42,10.42,0,0,1,10.276,12.141l-15.232,90.91A10.419,10.419,0,0,1,1170.238,674.036Z" transform="translate(-916.8 -394.373)"/><path class="j" d="M1170.238,673.481H1043.91a10.316,10.316,0,0,1-10.276-8.384l-15.232-87.63a10.165,10.165,0,0,1,10.276-11.7H1185.47a10.165,10.165,0,0,1,10.276,11.7l-15.232,87.63A10.316,10.316,0,0,1,1170.238,673.481Z" transform="translate(-916.8 -393.818)"/><path class="h" d="M950.7,675.072c16.256,7.4,41.34,14.2,76.043,11.175,68.122-5.935,90.572,8.389,90.572,8.389" transform="translate(-927.568 -376.395)"/><path class="f" d="M1123.32,691.065c-.756-.131-81.588-20.361-99.632-5.455s60.406,15.159,74.528,11.894S1123.32,691.065,1123.32,691.065Z" transform="translate(-916.362 -375.588)"/><path class="k" d="M1171.47,665.186s65.889-9.352,85.66-27.253" transform="translate(-892.378 -382.315)"/><path class="k" d="M1173.223,673.2s62.521-2.939,93.246-23.513" transform="translate(-892.099 -380.441)"/><path class="k" d="M1186.625,647.382s8.776,16.031,8.508,34.2" transform="translate(-889.962 -380.809)"/><path class="k" d="M1201.337,646.229s5.344,9.62,6.146,31.261" transform="translate(-887.617 -380.992)"/><g transform="translate(162.503)"><path class="l" d="M1089.47,470.4s1.562,17.432-9.191,27.072,24.78,0,24.78,0-6.612-16.7-5.129-27.072S1089.47,470.4,1089.47,470.4Z" transform="translate(-1069.74 -409.755)"/><ellipse class="m" cx="18.799" cy="25.648" rx="18.799" ry="25.648" transform="translate(6.603 16.106)"/><g transform="translate(6.38 7.151)"><path class="n" d="M1102.306,443.509s-32.546,18.044-22.887-10.927C1086.1,412.537,1124.5,430.593,1102.306,443.509Z" transform="translate(-1076.219 -423.626)"/><path class="n" d="M1097.781,436.409s18.209,10.8,16.453,21.643c0,0,4.015-32.359-14.09-33.173s-25.116.935-23.508,35.153C1076.636,460.032,1081.9,432.813,1097.781,436.409Z" transform="translate(-1076.413 -423.448)"/></g><path class="n" d="M1101.809,426.251s-.914-10.082-10.909-8.654-14.279,7.138-15.708,12.851-2.856,10-4.283,10c0,0,4.283,4.283,5.711,2.856,0,0-3.707,10.269,1,18.7,0,0,1.853-12.988,8.992-14.415S1101.809,426.251,1101.809,426.251Z" transform="translate(-1070.91 -417.458)"/><path class="n" d="M1096.773,425.093s7.139-4.284,14.278,5.711l4.284,8.568s-1.428,1.427-4.284,0c0,0,1.3,10.06-.063,15.739l-4.22-17.167Z" transform="translate(-1066.787 -416.387)"/></g><path class="d" d="M1085.02,485.377s5.61,10.153,14.16,7.748,10.955-3.69,10.955-3.69,12.558,16.782,6.679,19.454-48.36,7.748-50.5-1.6,18.169-21.108,18.169-21.108" transform="translate(-909.164 -406.632)"/><path class="k" d="M987.356,631.753s-28.818,28.173-9.72,63.232" transform="translate(-924.317 -383.3)"/><path class="k" d="M1001.588,634.89s-21.9,37.554-9.055,64.676" transform="translate(-921.545 -382.8)"/><path class="c" d="M1103.4,663.588l46.036,13.349s14.632,6.635,12.49.925-13.881-7.852-21.394-10.35S1103.4,663.588,1103.4,663.588Z" transform="translate(-903.228 -378.225)"/></g></g></svg>