<svg xmlns="http://www.w3.org/2000/svg" xmlns:xlink="http://www.w3.org/1999/xlink" width="68.043" height="68.043" viewBox="0 0 68.043 68.043">
  <defs>
    <clipPath id="clip-path">
      <rect id="Rectangle_4344" data-name="Rectangle 4344" width="68.043" height="68.043" rx="12" fill="none"/>
    </clipPath>
    <clipPath id="clip-path-2">
      <ellipse id="Ellipse_7452" data-name="Ellipse 7452" cx="19.542" cy="15.973" rx="19.542" ry="15.973" transform="translate(0 0.401) rotate(-0.588)" fill="none"/>
    </clipPath>
    <linearGradient id="linear-gradient" x1="24.817" y1="24.83" x2="25.8" y2="24.83" gradientUnits="objectBoundingBox">
      <stop offset="0" stop-color="#fda889"/>
      <stop offset="1" stop-color="#fda889" stop-opacity="0"/>
    </linearGradient>
    <linearGradient id="linear-gradient-2" x1="25.668" y1="24.736" x2="26.686" y2="24.736" gradientUnits="objectBoundingBox">
      <stop offset="0" stop-color="#fda889" stop-opacity="0"/>
      <stop offset="1" stop-color="#fda889"/>
    </linearGradient>
    <clipPath id="clip-path-3">
      <path id="Path_41480" data-name="Path 41480" d="M535.307,447.306a35.581,35.581,0,0,0-8.349-.169,4.208,4.208,0,0,0,8.349.169Z" transform="translate(-526.94 -446.959)" fill="none"/>
    </clipPath>
    <linearGradient id="linear-gradient-3" x1="27.573" y1="20.258" x2="27.573" y2="19.228" gradientUnits="objectBoundingBox">
      <stop offset="0" stop-color="#fda889" stop-opacity="0.702"/>
      <stop offset="0.096" stop-color="#fda889" stop-opacity="0.584"/>
      <stop offset="0.288" stop-color="#fda889" stop-opacity="0.376"/>
      <stop offset="0.469" stop-color="#fda889" stop-opacity="0.216"/>
      <stop offset="0.631" stop-color="#fda889" stop-opacity="0.098"/>
      <stop offset="0.771" stop-color="#fda889" stop-opacity="0.024"/>
      <stop offset="0.871" stop-color="#fda889" stop-opacity="0"/>
    </linearGradient>
  </defs>
  <g id="Group_39368" data-name="Group 39368" clip-path="url(#clip-path)">
    <g id="Group_39367" data-name="Group 39367" transform="translate(-2.606 11.632)">
      <path id="Path_41432" data-name="Path 41432" d="M535.127,451.08c-17.064-1.373-19.107-6.2-18.2-17.489a14.477,14.477,0,0,1,2.508-7.174,14.57,14.57,0,0,0-6.671,12.505c.116,11.328,2.587,15.948,19.7,15.772,9.453-.1,14.408-1.566,16.934-4.768C546.352,451.254,541.852,451.62,535.127,451.08Z" transform="translate(-494.023 -416.298)" fill="#fff" opacity="0.5"/>
      <g id="Group_39344" data-name="Group 39344" transform="translate(17.986 38.243)">
        <rect id="Rectangle_4326" data-name="Rectangle 4326" width="40.924" height="46.063" rx="8.13" transform="translate(0 0.42) rotate(-0.588)" fill="#50a8d5"/>
      </g>
      <rect id="Rectangle_4327" data-name="Rectangle 4327" width="31.07" height="39.902" transform="matrix(1, -0.01, 0.01, 1, 22.931, 40.388)" fill="#e3f3fb"/>
      <path id="Path_41433" data-name="Path 41433" d="M516.591,454.973c3.275,1.564,7.787,1.954,13.818,1.893,7.084-.072,12.061-.729,15.36-3.14l-29.188.3Z" transform="translate(-493.651 -413.637)" fill="#92c2e3"/>
      <path id="Path_41434" data-name="Path 41434" d="M546.13,476.784l-27.268.28c-3.714.038-3.556,3.528-3.512,7.836h0c.045,4.306-.042,7.8,3.671,7.761l27.269-.28c3.713-.037,3.556-3.528,3.511-7.835h0C549.757,480.239,549.844,476.747,546.13,476.784Z" transform="translate(-493.772 -411.39)" fill="#e3f3fb"/>
      <rect id="Rectangle_4328" data-name="Rectangle 4328" width="11.526" height="15" transform="matrix(1, -0.01, 0.01, 1, 23.329, 79.946)" fill="#e3f3fb"/>
      <rect id="Rectangle_4329" data-name="Rectangle 4329" width="11.526" height="1.096" transform="translate(23.483 94.945) rotate(-0.588)" fill="#2661c2"/>
      <path id="Path_41435" data-name="Path 41435" d="M528.87,521.421l-11.525.118L516.3,504.73l13.154-.135Z" transform="translate(-493.678 -408.68)" fill="#e3f3fb"/>
      <path id="Path_41436" data-name="Path 41436" d="M514.377,520.647s-2.08-7.308,3.128-6.485,9.525,6.355,9.525,6.355Z" transform="translate(-493.905 -407.755)" fill="#92c2e3"/>
      <rect id="Rectangle_4330" data-name="Rectangle 4330" width="14.72" height="1.096" transform="matrix(1, -0.01, 0.01, 1, 20.472, 112.892)" fill="#2661c2"/>
      <path id="Path_41437" data-name="Path 41437" d="M526.441,520.206l1.44-.015.1-2.97C526.276,517.919,526.441,520.206,526.441,520.206Z" transform="translate(-492.69 -407.45)" fill="#92c2e3"/>
      <rect id="Rectangle_4331" data-name="Rectangle 4331" width="11.526" height="15" transform="matrix(-1, 0.01, -0.01, -1, 54.566, 94.626)" fill="#e3f3fb"/>
      <rect id="Rectangle_4332" data-name="Rectangle 4332" width="11.526" height="1.096" transform="translate(54.577 95.722) rotate(179.412)" fill="#2661c2"/>
      <path id="Path_41438" data-name="Path 41438" d="M535.155,521.357l11.525-.118.7-16.827-13.154.135Z" transform="translate(-491.931 -408.698)" fill="#e3f3fb"/>
      <path id="Path_41439" data-name="Path 41439" d="M549.609,520.292s1.929-7.35-3.26-6.419-9.392,6.548-9.392,6.548Z" transform="translate(-491.665 -407.784)" fill="#92c2e3"/>
      <rect id="Rectangle_4333" data-name="Rectangle 4333" width="14.72" height="1.096" transform="matrix(-1, 0.01, -0.01, -1, 57.956, 113.604)" fill="#2661c2"/>
      <path id="Path_41440" data-name="Path 41440" d="M536.528,520.1l-1.441.014-.162-2.967C536.647,517.811,536.528,520.1,536.528,520.1Z" transform="translate(-491.863 -407.457)" fill="#92c2e3"/>
      <path id="Path_41441" data-name="Path 41441" d="M554.755,482.731l9.762-6.128L557.2,463.594l-10.982,6.894Z" transform="translate(-490.763 -412.676)" fill="#e3f3fb"/>
      <rect id="Rectangle_4334" data-name="Rectangle 4334" width="11.965" height="0.47" transform="translate(74.191 64.209) rotate(147.881)" fill="#2661c2"/>
      <path id="Path_41442" data-name="Path 41442" d="M567.718,481.659l-3.671-5.848-6.85,4.3h0l-2.91,1.827.027.045-.673,4.458a1.691,1.691,0,0,0,3.345.5l.086-.57,1.769,2.817a3.712,3.712,0,0,0,5.116,1.17l2.069-1.3A5.37,5.37,0,0,0,567.718,481.659Z" transform="translate(-490.041 -411.485)" fill="#e3f3fb"/>
      <path id="Path_41443" data-name="Path 41443" d="M556.046,464.379a2.7,2.7,0,0,0-1.338-1.8l-7.845,7.562Z" transform="translate(-490.7 -412.774)" fill="#2661c2"/>
      <path id="Path_41444" data-name="Path 41444" d="M546.654,454.824l-1.345,15.212,1.252,1.3,8.3-8Z" transform="translate(-490.851 -413.53)" fill="#e3f3fb"/>
      <path id="Path_41445" data-name="Path 41445" d="M544.891,453.71a1.843,1.843,0,0,1,1.8,1.225l-1.344,15.213-.292-.048Z" transform="translate(-490.892 -413.641)" fill="#2661c2"/>
      <path id="Path_41446" data-name="Path 41446" d="M517.051,490.966h0l8.885,1.28-10-2.607A2.832,2.832,0,0,0,517.051,490.966Z" transform="translate(-493.713 -410.138)" fill="#92c2e3"/>
      <path id="Path_41447" data-name="Path 41447" d="M547.129,489.328l-9.752,2.808,8.669-1.458h0A2.834,2.834,0,0,0,547.129,489.328Z" transform="translate(-491.624 -410.168)" fill="#92c2e3"/>
      <path id="Path_41448" data-name="Path 41448" d="M545.476,466.974l1.539,2.741-.453.437-1.252-1.3Z" transform="translate(-490.851 -412.346)" fill="#92c2e3"/>
      <path id="Path_41449" data-name="Path 41449" d="M546.219,469.939l1.12-.7,7.416,12.946Z" transform="translate(-490.763 -412.126)" fill="#92c2e3"/>
      <path id="Path_41450" data-name="Path 41450" d="M517,494.922l1.258,9.634-1.167.012Z" transform="translate(-493.61 -409.623)" fill="#92c2e3"/>
      <path id="Path_41451" data-name="Path 41451" d="M534.821,495.21l1.433,9.116-1.339.014Z" transform="translate(-491.873 -409.595)" fill="#92c2e3"/>
      <path id="Path_41452" data-name="Path 41452" d="M553.34,440.768c0,.154-.005.308-.013.458s-.009.3-.017.451-.013.3-.02.443-.013.289-.024.436c-.023.428-.055.848-.089,1.258v0c-.016.214-.035.428-.058.638-.014.143-.029.285-.043.425,0,.045-.013.093-.018.138-.014.124-.027.251-.045.375q-.1.77-.218,1.484c-.695,4.035-2.05,6.77-4.215,8.611a11.273,11.273,0,0,1-2.987,1.8l0,0c-3.169,1.33-7.418,1.741-12.956,1.8a45.016,45.016,0,0,1-10.85-.858c-.344-.086-.677-.176-1-.276-.16-.048-.322-.1-.477-.156s-.314-.108-.468-.167c-.063-.024-.13-.048-.193-.076h0c-.056-.024-.115-.047-.174-.071a11.7,11.7,0,0,1-2.242-1.21c-.123-.086-.245-.174-.363-.267-.082-.063-.167-.127-.248-.2a9.242,9.242,0,0,1-.794-.719c-.092-.092-.184-.191-.28-.291a13.48,13.48,0,0,1-2.893-5.679c-.074-.252-.14-.51-.2-.778-.083-.34-.155-.691-.227-1.053-.01-.06-.023-.121-.033-.184,0-.008,0-.015-.008-.026-.016-.083-.031-.167-.044-.254-.01-.053-.02-.1-.026-.15-.027-.136-.047-.272-.071-.412-.009-.079-.023-.155-.033-.234-.01-.056-.016-.116-.026-.173-.013-.105-.03-.215-.046-.324-.007-.057-.016-.117-.023-.178a.115.115,0,0,1-.007-.034c-.04-.274-.071-.553-.1-.84a.96.96,0,0,0-.012-.113c0-.02,0-.034,0-.053-.01-.08-.02-.155-.025-.234-.013-.1-.022-.2-.027-.305s-.025-.23-.035-.347c0-.049-.009-.1-.012-.147a.318.318,0,0,1,0-.056c0-.023,0-.049-.005-.071-.01-.1-.015-.2-.024-.3s-.012-.17-.018-.257-.015-.177-.021-.267-.012-.166-.014-.249-.014-.188-.02-.285l-.009-.158c-.009-.128-.013-.26-.019-.388a.071.071,0,0,1,0-.03l-.024-.527-.007-.207c0-.067,0-.138-.008-.21,0-.049,0-.1-.008-.151,0-.158-.009-.316-.009-.473a.145.145,0,0,1,0-.042c0-.166-.009-.335-.012-.5,0-.031,0-.065,0-.1,0-.215-.007-.432-.009-.655,0-.278,0-.556,0-.826a24.347,24.347,0,0,1,1.266-7.583c.036-.112.076-.224.12-.336.027-.078.056-.153.087-.227.092-.25.191-.493.293-.731v0c.135-.313.276-.622.421-.92v0c.149-.3.305-.6.465-.882a17.543,17.543,0,0,1,4.291-5.112c.245-.2.493-.389.748-.575s.511-.362.774-.533c.313-.2.635-.4.963-.586.224-.126.448-.25.676-.369.14-.072.285-.145.429-.217.284-.137.577-.27.872-.4a21.623,21.623,0,0,1,2.284-.83c.314-.092.631-.179.953-.263a25.855,25.855,0,0,1,6.091-.764c.733-.008,1.454.014,2.167.063.217.017.428.032.642.05s.424.043.634.066c.1.01.21.023.311.041.172.022.341.044.506.07.127.018.255.038.382.06.1.013.2.03.3.05.21.038.415.077.621.122.393.079.778.17,1.16.272.411.105.819.223,1.218.356.2.064.4.132.594.2s.4.144.589.218.384.155.574.238c.134.055.264.114.392.173s.235.105.35.16.246.119.364.181c.008,0,.011,0,.019.008,5.928,2.981,9.99,8.826,10.317,17.572,0,.135.01.274.01.414s.01.274.011.414C553.374,438.922,553.366,439.866,553.34,440.768Z" transform="translate(-494.149 -417.197)" fill="#e3f3fb"/>
      <path id="Path_41453" data-name="Path 41453" d="M543.026,419.53a25.351,25.351,0,0,0-7.083-.9c-7.561.08-14.16,3.123-17.782,9.133-.234.386-.456.784-.66,1.193l0,0a23.238,23.238,0,0,0-2.29,10.833c.059,5.615.626,9.753,1.85,12.793l0,.008c.122.3.247.591.384.872a11.793,11.793,0,0,0,1.45,2.322,9.859,9.859,0,0,0,1.84,1.755,10.15,10.15,0,0,0,1.046.687c-.344-.086-.677-.176-1-.276-.16-.048-.322-.1-.477-.156s-.314-.108-.468-.167c-.063-.024-.13-.048-.193-.076h0c-.056-.024-.115-.047-.174-.071a11.7,11.7,0,0,1-2.242-1.21c-.123-.086-.245-.174-.363-.267-.082-.063-.167-.127-.248-.2a9.242,9.242,0,0,1-.794-.719c-.092-.092-.184-.191-.28-.291a13.48,13.48,0,0,1-2.893-5.679c-.07-.252-.136-.514-.2-.778-.083-.34-.155-.691-.227-1.053-.01-.06-.023-.121-.033-.184,0-.008,0-.015-.008-.026s-.007-.049-.01-.076c-.013-.06-.023-.121-.034-.178s-.02-.1-.026-.15c-.016-.11-.037-.218-.054-.328-.007-.026-.01-.057-.018-.083-.009-.079-.023-.155-.033-.234-.01-.056-.016-.116-.026-.173-.013-.105-.03-.215-.046-.324-.01-.072-.02-.139-.03-.212-.019-.158-.038-.313-.058-.474v0c-.018-.116-.03-.24-.046-.361a.96.96,0,0,0-.012-.113c-.01-.094-.019-.192-.029-.286-.022-.215-.044-.43-.063-.652,0-.049-.009-.1-.012-.147s-.006-.082-.008-.127c-.01-.1-.015-.2-.024-.3s-.012-.17-.018-.257-.015-.177-.021-.267c-.012-.177-.023-.354-.034-.534l-.009-.158c0-.049-.005-.094,0-.144-.005-.082-.008-.161-.014-.245a.071.071,0,0,1,0-.03c-.005-.109-.011-.218-.013-.327-.005-.068-.008-.132-.011-.2l-.007-.207-.015-.361c0-.169-.008-.341-.012-.515s-.009-.335-.012-.5c0-.031,0-.065,0-.1,0-.215-.007-.432-.009-.655,0-.278,0-.556,0-.826a24.347,24.347,0,0,1,1.266-7.583c.036-.112.076-.224.12-.336.027-.078.056-.153.087-.227.092-.25.187-.493.293-.731v0c.135-.313.272-.622.421-.92v0c.149-.3.3-.6.465-.882a17.543,17.543,0,0,1,4.291-5.112c.245-.2.493-.392.748-.575s.511-.362.774-.533c.313-.2.635-.4.963-.586.219-.126.448-.25.676-.369.14-.072.285-.145.429-.217.289-.14.577-.274.872-.4a21.623,21.623,0,0,1,2.284-.83c.314-.092.631-.183.953-.263a25.855,25.855,0,0,1,6.091-.764c.733-.008,1.454.014,2.167.063.217.017.428.032.642.05s.424.043.634.066c.1.01.21.023.311.041.172.022.341.044.506.07.127.018.255.038.382.06.1.013.2.03.3.05.21.038.415.077.621.122.393.079.778.17,1.16.272.411.105.819.227,1.218.356.2.064.4.132.594.2s.4.144.589.218.384.155.574.238c.134.055.264.114.392.173s.235.105.35.16.246.119.364.181C543.015,419.523,543.018,419.526,543.026,419.53Z" transform="translate(-494.149 -417.197)" fill="#92c2e3"/>
      <ellipse id="Ellipse_7450" data-name="Ellipse 7450" cx="20.059" cy="16.396" rx="20.059" ry="16.396" transform="translate(18.056 6.235) rotate(-0.588)" fill="#bababa"/>
      <ellipse id="Ellipse_7451" data-name="Ellipse 7451" cx="19.542" cy="15.973" rx="19.542" ry="15.973" transform="translate(18.578 6.652) rotate(-0.588)" fill="#292929"/>
      <g id="Group_39345" data-name="Group 39345" transform="translate(17.317 20.337)">
        <path id="Path_41454" data-name="Path 41454" d="M511.476,435.728c0,.274-.011.544-.009.826,0-.278,0-.556,0-.826Z" transform="translate(-511.466 -435.728)" fill="#bababa"/>
        <path id="Path_41455" data-name="Path 41455" d="M511.508,438.292c0,.071.005.143.008.21l-.015-.361c0-.169-.008-.341-.012-.515a.147.147,0,0,0,0,.042C511.495,437.878,511.5,438.085,511.508,438.292Z" transform="translate(-511.464 -435.543)" fill="#bababa"/>
        <path id="Path_41456" data-name="Path 41456" d="M511.531,438.831c.005.121.011.24.015.357a.073.073,0,0,1,0-.03l-.024-.527-.007-.207C511.517,438.56,511.523,438.7,511.531,438.831Z" transform="translate(-511.461 -435.465)" fill="#bababa"/>
        <path id="Path_41457" data-name="Path 41457" d="M511.59,439.952c.012.173.023.347.035.516-.01-.09-.015-.177-.021-.267-.012-.177-.023-.354-.034-.534l-.009-.158c-.009-.128-.013-.26-.019-.388.007.083.009.162.014.245C511.568,439.561,511.579,439.761,511.59,439.952Z" transform="translate(-511.458 -435.397)" fill="#bababa"/>
        <path id="Path_41458" data-name="Path 41458" d="M511.889,443.052c.007.06.016.121.023.178-.01-.072-.02-.139-.03-.212-.04-.274-.071-.553-.1-.84a.973.973,0,0,0-.012-.113c-.01-.094-.019-.192-.029-.286-.022-.215-.044-.43-.062-.652,0-.049-.009-.1-.012-.147s-.006-.082-.008-.127c0,.022,0,.048.005.071.015.184.031.369.049.55s.034.361.053.539.042.353.061.527v0C511.847,442.713,511.867,442.883,511.889,443.052Z" transform="translate(-511.447 -435.229)" fill="#bababa"/>
        <path id="Path_41459" data-name="Path 41459" d="M512.005,443.789c.016.11.037.218.054.328-.027-.136-.047-.272-.071-.411-.009-.079-.023-.155-.033-.234Z" transform="translate(-511.418 -434.973)" fill="#bababa"/>
        <path id="Path_41460" data-name="Path 41460" d="M512.126,444.477a.225.225,0,0,1-.008-.026c-.017-.083-.031-.167-.044-.253.011.057.021.117.034.178A.826.826,0,0,0,512.126,444.477Z" transform="translate(-511.407 -434.903)" fill="#bababa"/>
      </g>
      <g id="Group_39346" data-name="Group 39346" transform="translate(59.19 19.906)">
        <path id="Path_41461" data-name="Path 41461" d="M549.625,435.335c0,.135.01.274.01.414,0-.139-.009-.274-.014-.414Z" transform="translate(-549.621 -435.335)" fill="#bababa"/>
      </g>
      <g id="Group_39365" data-name="Group 39365" transform="translate(18.578 6.252)">
        <g id="Group_39364" data-name="Group 39364" transform="translate(0 0)" clip-path="url(#clip-path-2)">
          <g id="Group_39363" data-name="Group 39363" transform="translate(7.908 1.404)">
            <g id="Group_39347" data-name="Group 39347" transform="translate(20.956 18.206)">
              <path id="Path_41462" data-name="Path 41462" d="M542.022,444.267c-.3.871-2.378,2.85-3.106,1.423l.583-4.642.011-.005a2.327,2.327,0,0,1,1.593-.217,1.335,1.335,0,0,1,.228.094C542.455,441.513,542.372,443.25,542.022,444.267Z" transform="translate(-538.916 -440.761)" fill="#f3c2b1"/>
              <path id="Path_41463" data-name="Path 41463" d="M542.022,444.267c-.3.871-2.378,2.85-3.106,1.423l.583-4.642.011-.005a2.327,2.327,0,0,1,1.593-.217,1.335,1.335,0,0,1,.228.094C542.455,441.513,542.372,443.25,542.022,444.267Z" transform="translate(-538.916 -440.761)" fill="url(#linear-gradient)"/>
            </g>
            <path id="Path_41464" data-name="Path 41464" d="M522.144,438.329s.612,7.844.814,9.57,1.876,7.039,8.877,7c5.046-.136,8.278-1.554,8.957-8.719s.72-9.181.72-9.181l-1.5-4.9-1.555-2.286-5.8-.711-5.043-.043-3.328.289-.695,2.063Z" transform="translate(-519.594 -423.695)" fill="#f3c2b1"/>
            <g id="Group_39348" data-name="Group 39348" transform="translate(0.027)">
              <path id="Path_41465" data-name="Path 41465" d="M541.257,441.978a2.328,2.328,0,0,0-1.594.217l.048-3.236a4.086,4.086,0,0,0-.487-1.993l-1.886-3.509a6.33,6.33,0,0,0,1.381-1.624,7.036,7.036,0,0,0,.973-2.893,25.156,25.156,0,0,1,2.919,3.659A54.177,54.177,0,0,1,541.257,441.978Z" transform="translate(-518.141 -423.707)" fill="#3f0e1b"/>
              <path id="Path_41466" data-name="Path 41466" d="M541.4,429.26a7.036,7.036,0,0,1-.973,2.893,6.33,6.33,0,0,1-1.381,1.624h0l-.086-.162h0l-.246-.041c-.357-.059-1.084-.177-2.117-.34l-.458-.071c-1.521-.239-3.59-.556-6.035-.917-.309.329-.607.621-.892.879h0c-.1.093-.2.181-.3.265-2.446,2.052-4,1.508-5.529,1.311-.166,1.35-.665,6.765-.72,7.384l0-.047a2.131,2.131,0,0,0-1.826-.2,1.381,1.381,0,0,0-.164.092c-.139-1.118-.9-7.228-.805-7.611a10.886,10.886,0,0,1,2.053-3.819c-.787.338-.965.147-.965.147a8.164,8.164,0,0,0,1.747-1.737,9.441,9.441,0,0,1,5.964-3.206,9.762,9.762,0,0,1,2.6.124,61.087,61.087,0,0,1,8.095,2.1,5.4,5.4,0,0,1,2,1.283Z" transform="translate(-519.845 -424.027)" fill="#3f0e1b"/>
              <path id="Path_41467" data-name="Path 41467" d="M522.58,440.659l-.007.058a1.9,1.9,0,0,0-1.964-.04s-.008-.062-.023-.176a1.374,1.374,0,0,1,.163-.092,2.131,2.131,0,0,1,1.826.2Z" transform="translate(-519.773 -422.603)" fill="#3f0e1b"/>
              <path id="Path_41468" data-name="Path 41468" d="M528.443,428.764a3.822,3.822,0,0,0,.752,5.316A5.638,5.638,0,0,0,532,435.146a9.375,9.375,0,0,0,3.894-.18,6.82,6.82,0,0,0,4.522-8.265,6.115,6.115,0,0,0-.617-1.408,3.325,3.325,0,0,1-.878,1.824,4.825,4.825,0,0,0-.131-2.946,6.406,6.406,0,0,1-4.938,2.275c.488-.309.654-1.279.643-1.859-.224.5-3.224,1.271-4.008,1.382Z" transform="translate(-519.082 -424.172)" fill="#3f0e1b"/>
              <path id="Path_41469" data-name="Path 41469" d="M540.3,428.94a7.035,7.035,0,0,1-.973,2.893,6.327,6.327,0,0,1-1.381,1.624h0a5.941,5.941,0,0,1-.8.56,6.634,6.634,0,0,1-2.96.874,9.979,9.979,0,0,1-1.538-.026c-.253-.032-.506-.076-.757-.111q-.372-.077-.743-.165c.253.018.5.038.755.065.252.009.5.023.756.026a10.2,10.2,0,0,0,1.5-.077,7.235,7.235,0,0,0,2.8-.91,5.608,5.608,0,0,0,.659-.439,6.924,6.924,0,0,0,1.474-1.577,7.582,7.582,0,0,0,.72-1.31,7.242,7.242,0,0,0,.312-.792Q540.214,429.263,540.3,428.94Z" transform="translate(-518.745 -423.707)" fill="#561326"/>
              <path id="Path_41470" data-name="Path 41470" d="M537.4,430.086a7.3,7.3,0,0,1-1.109,1.933,7.189,7.189,0,0,1-1.651,1.532,5.328,5.328,0,0,1-2.1.824,5.16,5.16,0,0,1-2.227-.136c.187,0,.371.005.554.015a2.518,2.518,0,0,0,.545-.011l.541-.045.529-.111a6,6,0,0,0,1.956-.852,8.838,8.838,0,0,0,1.633-1.407A12.238,12.238,0,0,0,537.4,430.086Z" transform="translate(-518.826 -423.596)" fill="#561326"/>
              <path id="Path_41471" data-name="Path 41471" d="M526.761,429.615a4.5,4.5,0,0,0,.26,1.923,2.576,2.576,0,0,0,.495.8,5.359,5.359,0,0,0,.737.667,2.207,2.207,0,0,1-.94-.456,2.268,2.268,0,0,1-.378-.389,2.647,2.647,0,0,1-.262-.476,2.486,2.486,0,0,1-.176-1.056A2.355,2.355,0,0,1,526.761,429.615Z" transform="translate(-519.197 -423.642)" fill="#561326"/>
              <path id="Path_41472" data-name="Path 41472" d="M528.2,428.839a4.158,4.158,0,0,0-.4,2.018,3.468,3.468,0,0,0,.219.99,5.168,5.168,0,0,0,.2.483c.075.16.169.312.244.484a3.962,3.962,0,0,1-.4-.383,2.859,2.859,0,0,1-.315-.462,2.609,2.609,0,0,1-.326-1.084,2.577,2.577,0,0,1,.162-1.122A2.321,2.321,0,0,1,528.2,428.839Z" transform="translate(-519.107 -423.717)" fill="#561326"/>
            </g>
            <g id="Group_39349" data-name="Group 39349" transform="translate(0 17.675)">
              <path id="Path_41473" data-name="Path 41473" d="M522.65,440.613a2.123,2.123,0,0,0-1.826-.2c-1.147.548-1.133,2.286-.825,3.319.263.882,2.262,2.943,3.047,1.546" transform="translate(-519.821 -440.278)" fill="#f3c2b1"/>
              <path id="Path_41474" data-name="Path 41474" d="M523.045,445.275c-.785,1.4-2.783-.663-3.046-1.546-.293-.981-.319-2.6.662-3.227a1.384,1.384,0,0,1,.164-.092,2.131,2.131,0,0,1,1.826.2l0,.047Z" transform="translate(-519.821 -440.278)" fill="url(#linear-gradient-2)"/>
            </g>
            <g id="Group_39350" data-name="Group 39350" transform="translate(4.344 14.001)">
              <path id="Path_41475" data-name="Path 41475" d="M528.93,438.386s.084-1.245-.537-1.316-4.462-.861-4.615,2.279C524.594,438.626,525.826,437.878,528.93,438.386Z" transform="translate(-523.779 -436.93)" fill="#3f0e1b"/>
              <path id="Path_41476" data-name="Path 41476" d="M533.406,438.479s-.034-1.247.589-1.294,4.494-.68,4.519,2.465C537.729,438.893,536.528,438.1,533.406,438.479Z" transform="translate(-522.841 -436.913)" fill="#3f0e1b"/>
            </g>
            <g id="Group_39355" data-name="Group 39355" transform="translate(7.813 16.123)">
              <g id="Group_39354" data-name="Group 39354" transform="translate(0 8.885)">
                <path id="Path_41477" data-name="Path 41477" d="M535.307,447.306a35.581,35.581,0,0,0-8.349-.169,4.208,4.208,0,0,0,8.349.169Z" transform="translate(-526.94 -446.959)" fill="#822521"/>
                <g id="Group_39353" data-name="Group 39353">
                  <g id="Group_39352" data-name="Group 39352" clip-path="url(#clip-path-3)">
                    <g id="Group_39351" data-name="Group 39351" transform="translate(0.519 -0.809)">
                      <path id="Path_41478" data-name="Path 41478" d="M534.658,449.6c-.937,1.4-2.315,2.729-3.793,2.64a4.571,4.571,0,0,1-3.453-2.646A5.8,5.8,0,0,1,534.658,449.6Z" transform="translate(-527.413 -446.018)" fill="#cf4a4a"/>
                      <path id="Path_41479" data-name="Path 41479" d="M534.2,446.435c-.045,1-.271,1-.271,1-.943.448-4.519.8-5.847-.119-.14-.1-.156-.571-.177-.891a.35.35,0,0,1,.213-.088C530.351,446.245,533.2,446.094,534.2,446.435Z" transform="translate(-527.365 -446.222)" fill="#fff"/>
                    </g>
                  </g>
                </g>
              </g>
              <path id="Path_41481" data-name="Path 41481" d="M531.381,438.883l-1.025-.02c.107,3.345-1.348,5.214-1,5.958a1.665,1.665,0,0,0,2.941.059C532.668,444.15,531.3,443.151,531.381,438.883Z" transform="translate(-526.71 -438.863)" fill="url(#linear-gradient-3)"/>
            </g>
            <g id="Group_39362" data-name="Group 39362" transform="translate(4.906 17.534)">
              <g id="Group_39358" data-name="Group 39358">
                <g id="Group_39356" data-name="Group 39356" transform="translate(0.005)">
                  <path id="Path_41482" data-name="Path 41482" d="M528.325,441.768c-.581-1.375-2.647-2.587-3.951-.484a.518.518,0,0,0,0,.542c.347.573,1.375,1.726,3.663.666A.563.563,0,0,0,528.325,441.768Z" transform="translate(-524.295 -440.149)" fill="#fff"/>
                </g>
                <g id="Group_39357" data-name="Group 39357" transform="translate(0.926 0.27)">
                  <path id="Path_41483" data-name="Path 41483" d="M527.556,441.4a1.221,1.221,0,1,1-.939-.978A1.222,1.222,0,0,1,527.556,441.4Z" transform="translate(-525.134 -440.395)" fill="#3f0e1b"/>
                  <path id="Path_41484" data-name="Path 41484" d="M526.974,441.473a.675.675,0,1,1-.549-.571A.675.675,0,0,1,526.974,441.473Z" transform="translate(-525.086 -440.346)" fill="#3f0e1b"/>
                </g>
                <path id="Path_41485" data-name="Path 41485" d="M524.331,441.612c.248.886,1.393,1.97,3.624.948" transform="translate(-524.287 -440.006)" fill="none" stroke="#707070" stroke-miterlimit="10" stroke-width="0.641"/>
                <path id="Path_41486" data-name="Path 41486" d="M528.276,442.282a.648.648,0,0,0-.043-.677,2.378,2.378,0,0,0-2.149-1.454,1.93,1.93,0,0,0-1.735,1.118.622.622,0,0,0-.014.485" transform="translate(-524.291 -440.149)" fill="none" stroke="#3f0e1b" stroke-miterlimit="10" stroke-width="0.641"/>
              </g>
              <g id="Group_39361" data-name="Group 39361" transform="translate(10.357 0.218)">
                <g id="Group_39359" data-name="Group 39359">
                  <path id="Path_41487" data-name="Path 41487" d="M533.78,441.877c.636-1.35,2.75-2.477,3.968-.324a.523.523,0,0,1-.018.542c-.37.559-1.444,1.669-3.687.518A.565.565,0,0,1,533.78,441.877Z" transform="translate(-533.728 -440.348)" fill="#fff"/>
                </g>
                <g id="Group_39360" data-name="Group 39360" transform="translate(0.725 0.257)">
                  <path id="Path_41488" data-name="Path 41488" d="M534.417,441.539a1.22,1.22,0,1,0,.978-.939A1.221,1.221,0,0,0,534.417,441.539Z" transform="translate(-534.389 -440.582)" fill="#3f0e1b"/>
                  <path id="Path_41489" data-name="Path 41489" d="M534.9,441.633a.675.675,0,1,0,.571-.549A.676.676,0,0,0,534.9,441.633Z" transform="translate(-534.34 -440.533)" fill="#3f0e1b"/>
                </g>
                <path id="Path_41490" data-name="Path 41490" d="M537.735,441.877c-.284.874-1.472,1.912-3.66.8" transform="translate(-533.695 -440.199)" fill="none" stroke="#707070" stroke-miterlimit="10" stroke-width="0.641"/>
                <path id="Path_41491" data-name="Path 41491" d="M533.808,442.393a.649.649,0,0,1,.07-.675,2.377,2.377,0,0,1,2.2-1.366,1.931,1.931,0,0,1,1.689,1.187.625.625,0,0,1,0,.486" transform="translate(-533.727 -440.348)" fill="none" stroke="#3f0e1b" stroke-miterlimit="10" stroke-width="0.641"/>
              </g>
            </g>
          </g>
        </g>
      </g>
      <ellipse id="Ellipse_7453" data-name="Ellipse 7453" cx="19.542" cy="15.973" rx="19.542" ry="15.973" transform="translate(18.578 6.652) rotate(-0.588)" fill="#292929" opacity="0.1"/>
      <path id="Path_41492" data-name="Path 41492" d="M536.344,428.349c.545-1.744,5.024-.286,7.3,1.711s3.337,4.108,2.307,5.1c-1.4,1.341-2.365-1.527-4.965-3.1C539.46,431.139,535.769,430.187,536.344,428.349Z" transform="translate(-491.731 -416.186)" fill="#ababab" style="mix-blend-mode: soft-light;isolation: isolate"/>
      <path id="Path_41493" data-name="Path 41493" d="M523.742,450.507c-.751,1.666-5.022-.318-7.042-2.573s-2.822-4.478-1.679-5.337c1.546-1.164,2.164,1.8,4.558,3.67C520.983,447.364,524.534,448.75,523.742,450.507Z" transform="translate(-493.854 -414.747)" fill="#ababab" style="mix-blend-mode: soft-light;isolation: isolate"/>
      <g id="Group_39366" data-name="Group 39366" transform="translate(0 40.366)">
        <path id="Path_41494" data-name="Path 41494" d="M509.127,481.885l-9.427-5.717,6.806-12.551,10.606,6.432Z" transform="translate(-495.295 -453.04)" fill="#e3f3fb"/>
        <rect id="Rectangle_4335" data-name="Rectangle 4335" width="11.445" height="0.45" transform="matrix(0.855, 0.519, -0.519, 0.855, 4.225, 23.019)" fill="#2661c2"/>
        <path id="Path_41495" data-name="Path 41495" d="M496.432,481.051l3.425-5.647,6.615,4.012h0l2.812,1.7-.026.044.709,4.254a1.618,1.618,0,1,1-3.191.531l-.09-.543-1.651,2.721a3.548,3.548,0,0,1-4.876,1.194l-2-1.212A5.138,5.138,0,0,1,496.432,481.051Z" transform="translate(-495.686 -451.891)" fill="#e3f3fb"/>
        <path id="Path_41496" data-name="Path 41496" d="M506.863,464.354a2.579,2.579,0,0,1,1.252-1.739l7.615,7.118Z" transform="translate(-494.597 -453.138)" fill="#2661c2"/>
        <path id="Path_41497" data-name="Path 41497" d="M515.727,455.086l1.511,14.53-1.179,1.261L508,463.349Z" transform="translate(-494.486 -453.871)" fill="#e3f3fb"/>
        <path id="Path_41498" data-name="Path 41498" d="M516.75,454a1.765,1.765,0,0,0-1.709,1.2l1.511,14.53.34-.031Z" transform="translate(-493.801 -453.979)" fill="#2661c2"/>
        <path id="Path_41499" data-name="Path 41499" d="M516.375,466.691l-1.432,2.644.44.411,1.179-1.261Z" transform="translate(-493.81 -452.74)" fill="#92c2e3"/>
        <path id="Path_41500" data-name="Path 41500" d="M516.274,469.536l-1.082-.656-6.9,12.492Z" transform="translate(-494.458 -452.527)" fill="#92c2e3"/>
      </g>
      <rect id="Rectangle_4336" data-name="Rectangle 4336" width="20.295" height="11.822" transform="matrix(1, -0.01, 0.01, 1, 28.425, 50.77)" fill="#2661c2"/>
      <rect id="Rectangle_4337" data-name="Rectangle 4337" width="19.105" height="10.775" transform="translate(29.025 51.287) rotate(-0.588)" fill="#bababa"/>
      <rect id="Rectangle_4338" data-name="Rectangle 4338" width="6.953" height="5.162" transform="translate(32.24 54.142) rotate(-0.588)" fill="#0e76e5"/>
      <rect id="Rectangle_4339" data-name="Rectangle 4339" width="3.774" height="0.892" transform="translate(42.945 52.517) rotate(-0.588)" fill="#3d3d3d"/>
      <rect id="Rectangle_4340" data-name="Rectangle 4340" width="3.774" height="0.892" transform="translate(42.963 54.301) rotate(-0.588)" fill="#3d3d3d"/>
      <rect id="Rectangle_4341" data-name="Rectangle 4341" width="3.774" height="0.892" transform="translate(42.981 56.086) rotate(-0.588)" fill="#3d3d3d"/>
      <rect id="Rectangle_4342" data-name="Rectangle 4342" width="3.774" height="0.892" transform="translate(43 57.87) rotate(-0.588)" fill="#3d3d3d"/>
      <rect id="Rectangle_4343" data-name="Rectangle 4343" width="3.774" height="0.892" transform="translate(43.018 59.655) rotate(-0.588)" fill="#3d3d3d"/>
      <path id="Path_41501" data-name="Path 41501" d="M516.623,471.085l5.606-.058.015,1.5-5.606.058a.752.752,0,0,1-.759-.744h0A.752.752,0,0,1,516.623,471.085Z" transform="translate(-493.719 -411.951)" fill="#92c2e3"/>
      <path id="Path_41502" data-name="Path 41502" d="M516.564,465.349l5.606-.057.015,1.5-5.606.057a.751.751,0,0,1-.759-.744h0A.752.752,0,0,1,516.564,465.349Z" transform="translate(-493.725 -412.51)" fill="#92c2e3"/>
      <path id="Path_41503" data-name="Path 41503" d="M545.72,466.554l-5.606.057-.015-1.5,5.606-.057a.752.752,0,0,1,.759.744h0A.752.752,0,0,1,545.72,466.554Z" transform="translate(-491.359 -412.534)" fill="#92c2e3"/>
      <path id="Path_41504" data-name="Path 41504" d="M545.779,472.289l-5.606.058-.016-1.5,5.607-.058a.752.752,0,0,1,.759.744h0A.751.751,0,0,1,545.779,472.289Z" transform="translate(-491.353 -411.975)" fill="#92c2e3"/>
    </g>
  </g>
</svg>
