<svg id="Group_35405" data-name="Group 35405" xmlns="http://www.w3.org/2000/svg" width="94.521" height="94.522" viewBox="0 0 94.521 94.522">
  <g id="Group_35398" data-name="Group 35398" transform="translate(14.098 17.789)">
    <ellipse id="Ellipse_5407" data-name="Ellipse 5407" cx="32.632" cy="32.705" rx="32.632" ry="32.705" transform="translate(0 65.225) rotate(-88.002)" fill="#c3cef7"/>
  </g>
  <g id="Group_35399" data-name="Group 35399" transform="translate(8.883 51.56)">
    <path id="Path_38176" data-name="Path 38176" d="M517.773,460.781s-14.162,6.536-11.091,9.1c0,0,.722.555,2.728-.468,0,0-4.768,3.827-3.537,6.911,0,0,1.643,2.276,7.453-3.787,0,0-2.424,5.637-1.5,7.113,0,0-.217.556,3.409-2.309,0,0-3.089,6.861-1.043,8.4,0,0,2.374,2.847,11.975-3.573,0,0-.907,1.715-.359,2.2,0,0,.415.366,4.258-2.112,0,0-1.752,2.579-1.669,3.206,0,0-.474,1.8,3.927,1.412a28.721,28.721,0,0,0,8.86-3.686s-.817,1.22-.257,1.61a10.454,10.454,0,0,0,3.991-2.564s-1.482,2.587.178,4.645c0,0,1.727.457,4.484-3.97,0,0-.78,2.8.312,3.244,0,0,1.727.589,4.932-2.6,0,0,.117,4.773,4.957,4.429,0,0,2.4-.336,1.494-6.765,0,0,7.3,4.548,13.283,1.934,0,0,.342-1.148-1.232-3.008,0,0,4.629,1.614,6.318.736,0,0,.973-1.084-1.505-3.412,0,0,2.625,1.743,3.854-.214,0,0,1.354-6.2-6.2-9.22,0,0,5.144.312,4.895-.611,0,0,.394-1.543-2.923-2.442,0,0-4.326-1.546-5.97-1.519,0,0,2.959-.351,3.109-.929,0,0-1.707-2-11.078-2.784,0,0,4.734-.946,5.184-1.681,0,0-3.545-1.985-11.417-.493l-3.349.209s2.325-1.592,2.931-1.93c0,0,.308-1.323-2.756.261l-3.592,1.912s1.288-2.821.859-3.28c0,0-1.5-1.637-7.793,5.2,0,0,.827-1.908-1.519-4.773,0,0-.512-.632-.679,1.168,0,0-.244,1.85-1.362,1.65a7.111,7.111,0,0,0-4.775-3.348s-1.246-.214-.443,2l.65,1.163-1.885-.717s-4.187-2.419-5.873-1.767c0,0-1.438.238-1.144,2.543a.648.648,0,0,1-1.074.432s-7.294-2.318-11.85,2.568a.685.685,0,0,0,.575.78S517.1,460.609,517.773,460.781Z" transform="translate(-505.67 -454.575)" fill="#53ab00"/>
    <path id="Path_38177" data-name="Path 38177" d="M579.448,482.1a3.58,3.58,0,0,0-1.587,1.082,5.427,5.427,0,0,0-1.381,3.532,2.594,2.594,0,0,0,.043.975,1.369,1.369,0,0,0,2.366.539c.808-.953,2.13-2.674,2.071-3.656,0,0,2.7,2.166,5.29,2.287a1.106,1.106,0,0,0,1.045-1.6,6.081,6.081,0,0,0-2.813-2.41c.178.092,6.357.859,9.88-.013a.565.565,0,0,0,.341-.851c-.514-.825-1.9-2.131-5.572-2.208,0,0,6.03.7,6.65-.282,0,0,0-2.423-4.114-2.93,0,0,5.693.648,8-.423,0,0,.244-3-8.261-1.665a2.088,2.088,0,0,0-.946.41C588.763,476.2,582.283,481.122,579.448,482.1Z" transform="translate(-531.557 -461.73)" fill="#61c253"/>
    <ellipse id="Ellipse_5408" data-name="Ellipse 5408" cx="8.575" cy="6.856" rx="8.575" ry="6.856" transform="translate(32.522 13.226) rotate(-45)" fill="#e8e8e8"/>
    <path id="Path_38178" data-name="Path 38178" d="M571.325,476.131c-2.746,1.128-5.691.825-7.557-1.041-2.672-2.678-2.132-7.562,1.221-10.91a9.668,9.668,0,0,1,5.84-2.876,10.343,10.343,0,0,0-3.36,2.257c-3.354,3.347-3.893,8.232-1.222,10.91A6.2,6.2,0,0,0,571.325,476.131Z" transform="translate(-526.298 -457.036)" fill="#cfcfcf"/>
    <ellipse id="Ellipse_5409" data-name="Ellipse 5409" cx="6.856" cy="8.575" rx="6.856" ry="8.575" transform="translate(19.607 11.23) rotate(-45)" fill="#e8e8e8"/>
    <path id="Path_38179" data-name="Path 38179" d="M557.072,474a5.956,5.956,0,0,1-1.692,4.178c-2.678,2.678-7.563,2.132-10.911-1.215a8.841,8.841,0,0,1-2.653-8.455,9.411,9.411,0,0,0,2.907,6.75c3.348,3.348,8.232,3.893,10.911,1.215A5.593,5.593,0,0,0,557.072,474Z" transform="translate(-518.793 -459.672)" fill="#cfcfcf"/>
  </g>
  <g id="Group_35402" data-name="Group 35402" transform="translate(20.745 5.498)">
    <g id="Group_35400" data-name="Group 35400">
      <path id="Path_38180" data-name="Path 38180" d="M524.372,387.1c.755,1.147,7.95,17.339,13.389,22.479s14.013,12.263,16.365,15.5c2.767,3.806,4.775,3.1,1.9-1.688-1.868-3.109-6.093-8.971-7.264-9.969-.568-.484,2.849,3.026,6.326,7.144,3.7,4.377,7.508,9.377,8.344,8.763,1.621-1.191-8.4-14.592-10.454-16.592a71.709,71.709,0,0,1,5.344,5.348c2.294,2.564,4.608,5.9,5.642,5.821,1.629-.129-3.033-8.054-7.992-13.191.044-.256,2.063.873,7.545,7.369.551.653,2.451,1.68,1.079-1.007-2.891-5.656-3.716-8.3-10.129-13.662-6.253-5.228-20.249-16.295-23.646-21.457Z" transform="translate(-524.372 -381.952)" fill="#caa267" fill-rule="evenodd"/>
    </g>
    <g id="Group_35401" data-name="Group 35401" transform="translate(11.016 21.76)">
      <path id="Path_38181" data-name="Path 38181" d="M541.74,419.329s.874,9.105,5.772,14.337c2.912,3.11,2.18,3.883,2.55,4.575,1.227,2.3,2.143-2.607.029-5.708-1.718-2.519.07-7.429-.654-9.336s-3.645-6.655-5.093-6.922S541.74,419.329,541.74,419.329Z" transform="translate(-541.74 -416.26)" fill="#caa267" fill-rule="evenodd"/>
    </g>
  </g>
  <g id="Group_35403" data-name="Group 35403" transform="translate(0 0)">
    <path id="Path_38182" data-name="Path 38182" d="M538.925,467.806a47.261,47.261,0,1,1,47.261-47.261A47.314,47.314,0,0,1,538.925,467.806Zm0-90.335A43.074,43.074,0,1,0,582,420.544,43.123,43.123,0,0,0,538.925,377.471Z" transform="translate(-491.665 -373.284)" fill="#cd0300"/>
  </g>
  <g id="Group_35404" data-name="Group 35404" transform="translate(14.516 14.522)">
    <rect id="Rectangle_4125" data-name="Rectangle 4125" width="4.186" height="90.296" transform="translate(0 2.96) rotate(-45)" fill="#cd0300"/>
  </g>
</svg>
