<svg xmlns="http://www.w3.org/2000/svg" width="54.362" height="30.202" viewBox="0 0 54.362 30.202"><g transform="translate(0 10.779)"><path d="M685.738,515.773H654.757c-1.607,0-2.909-1.935-2.909-4.322s1.3-4.322,2.909-4.322h30.981c1.607,0,2.909,1.936,2.909,4.322S687.345,515.773,685.738,515.773Z" transform="translate(-651.848 -507.128)" fill="#678fc9"/></g><g transform="translate(27.432)"><path d="M689.517,523.858l21.071-12.167a2.929,2.929,0,0,0,0-5.073L689.517,494.45a2.929,2.929,0,0,0-4.394,2.537v24.334A2.929,2.929,0,0,0,689.517,523.858Z" transform="translate(-685.123 -494.053)" fill="#678fc9"/></g></svg>