<svg id="Group_35454" data-name="Group 35454" xmlns="http://www.w3.org/2000/svg" width="89.915" height="97.017" viewBox="0 0 89.915 97.017">
  <path id="Path_38270" data-name="Path 38270" d="M1077.369,513.525c-.045,0-.086.013-.131.013a15.677,15.677,0,0,0-22.734-19.5,21.808,21.808,0,0,0-41.845,10.984c-.061,0-.121-.009-.182-.009a14.64,14.64,0,0,0,0,29.28h64.892a10.383,10.383,0,1,0,0-20.765Z" transform="translate(-997.837 -480.498)" fill="#b0cbf7"/>
  <circle id="Ellipse_5414" data-name="Ellipse 5414" cx="3.205" cy="3.205" r="3.205" transform="translate(21.669 64.862)" fill="#cddfff"/>
  <circle id="Ellipse_5415" data-name="Ellipse 5415" cx="3.205" cy="3.205" r="3.205" transform="translate(41.753 64.862)" fill="#cddfff"/>
  <circle id="Ellipse_5416" data-name="Ellipse 5416" cx="3.205" cy="3.205" r="3.205" transform="translate(41.753 90.607)" fill="#cddfff"/>
  <circle id="Ellipse_5417" data-name="Ellipse 5417" cx="3.205" cy="3.205" r="3.205" transform="translate(31.07 77.467)" fill="#cddfff"/>
  <path id="Path_38271" data-name="Path 38271" d="M1076.542,590.077a3.205,3.205,0,1,1-3.205-3.205A3.205,3.205,0,0,1,1076.542,590.077Z" transform="translate(-1017.483 -509.405)" fill="#cddfff"/>
  <circle id="Ellipse_5418" data-name="Ellipse 5418" cx="3.205" cy="3.205" r="3.205" transform="translate(61.836 64.862)" fill="#cddfff"/>
</svg>
