<svg id="Group_35453" data-name="Group 35453" xmlns="http://www.w3.org/2000/svg" width="89.915" height="92.058" viewBox="0 0 89.915 92.058">
  <path id="Path_38266" data-name="Path 38266" d="M570.075,242.565c-.044,0-.086.012-.13.013a15.677,15.677,0,0,0-22.734-19.5,21.808,21.808,0,0,0-41.846,10.984c-.061,0-.12-.009-.182-.009a14.64,14.64,0,1,0,0,29.28h64.892a10.382,10.382,0,1,0,0-20.765Z" transform="translate(-490.543 -209.538)" fill="#b0cbf7"/>
  <path id="Path_38267" data-name="Path 38267" d="M516.249,304.365a6.134,6.134,0,1,1-11.058-5.315c1.467-3.054,10.959-8.64,10.959-8.64S517.717,301.312,516.249,304.365Z" transform="translate(-494.359 -231.515)" fill="#b0cbf7"/>
  <path id="Path_38268" data-name="Path 38268" d="M550,325.964a6.134,6.134,0,1,1-11.058-5.315c1.468-3.054,10.959-8.641,10.959-8.641S551.467,322.91,550,325.964Z" transform="translate(-503.53 -237.384)" fill="#b0cbf7"/>
  <path id="Path_38269" data-name="Path 38269" d="M583.629,305.43a6.134,6.134,0,0,1-11.058-5.315c1.468-3.054,10.959-8.641,10.959-8.641S585.1,302.376,583.629,305.43Z" transform="translate(-512.669 -231.804)" fill="#b0cbf7"/>
</svg>
