<svg xmlns="http://www.w3.org/2000/svg" width="47.555" height="47.555" viewBox="0 0 47.555 47.555"><defs><style>.a{fill:#7fd1d8;}.b{fill:#3e6569;}.c{fill:#fff;}</style></defs><path class="a" d="M555.555,290.387a23.793,23.793,0,1,1-23.778-23.777A23.777,23.777,0,0,1,555.555,290.387Z" transform="translate(-508 -266.61)"/><path class="b" d="M562.281,290.387a23.792,23.792,0,0,1-27.8,23.438,18.27,18.27,0,0,1,5.415-5.68c2.239-1.5,4.776-2.527,7.024-4.022s4.277-3.648,4.681-6.318c.567-3.716-2.164-7.173-5.266-9.3s-6.739-3.465-9.572-5.935a15.882,15.882,0,0,1-4.725-15.075,23.793,23.793,0,0,1,30.238,22.888Z" transform="translate(-514.725 -266.61)"/><path class="c" d="M545.526,302.125v-.016l-.068-21.12h0v-.36l-15.293,2.029.025,2.5.067,16.266a4.6,4.6,0,0,0-3.276-1.32,3.869,3.869,0,1,0,0,7.676,4.062,4.062,0,0,0,4.353-3.836h.006v.013l-.052-16.524,13.106-1.9.058,14.042a4.594,4.594,0,0,0-3.276-1.321,3.913,3.913,0,1,0,4.35,4.04h0Zm-14.249-15.941,0-1.123,13.1-1.81,0,1.029Z" transform="translate(-512.151 -270.59)"/></svg>