<svg xmlns:xlink="http://www.w3.org/1999/xlink" xmlns="http://www.w3.org/2000/svg" width="363" height="327"
     viewBox="0 0 363 327">
    <defs>
        <style>
            .a,.o{fill:none;}.b{clip-path:url(#a);}.c,.d{fill:#d8a35d;}.c{fill-rule:evenodd;}.e{fill:#d19442;}.f{fill:#947dce;}.g{fill:#ffc84f;}.h{opacity:0.15;}.i{fill:#62548a;}.j{opacity:0.3;}.k{opacity:0.5;}.l{fill:#999;}.m{fill:#ccc;}.n{fill:gray;}.o{stroke:#947dce;stroke-miterlimit:10;stroke-width:1.154px;}
        </style>
        <clipPath id="a">
            <rect class="a" width="363" height="327" transform="translate(589.981 221.128)"/>
        </clipPath>
    </defs>
    <g transform="translate(-589.981 -221.128)">
        <g class="b">
            <path class="c"
                  d="M635.516,280.058c-2.146-5.241-8.959-9.331-13.521-10.593a45.785,45.785,0,0,1-5.814-2.443c-3.534-1.192,2.059,3.85,4.172,4.7,1.717.688,4.793,5.8,6.476,7.552s5.293,4.294,7.233,4.312S635.238,281.031,635.516,280.058Z"/>
            <path class="c"
                  d="M647.361,298.234c-4.1-7.363-7.168-16.112-15.042-19.767s-19.656-3.594-25.912-4.552c-7.359-1.126-4.274,1.269-.4,2.308,2.52.676,10.67,3.091,13.215,3.073,1.234-.009-10.021-1.9-10.626-1.729s-12.28-3.018-11.486-.87c1.538,4.164,14.725,4.7,18.925,5.612-2.215-.081-5.817-.745-7.952-.833-1.812-.074-7.284-2.067-7.823-.4-.85,2.625,12.653,4.332,14.449,4.479-1.777,1.428-8.552-.711-10.914-.874-.237-.016-2.388.5.2,1.409,5.443,1.917,9.658,3.669,15.881,4.588s13.523,1.878,17.671,7.562C640.87,298.054,644.12,298.635,647.361,298.234Z"/>
            <path class="d"
                  d="M856.2,661.82s-14.334,147.9-8.239,150.447c10.935,4.639,53.757,19.811,6.545,16.477-24.252,1.462-22.472-3.957-22.851-8.548-.31-3.751.4-136.117-.594-146.41-.223-2.306-.358-3.7-.358-3.7Z"/>
            <path class="d"
                  d="M767.318,661.82s6.214,147.9.119,150.447c-10.934,4.639-53.756,19.811-6.545,16.477,24.252,1.462,22.473-3.957,22.852-8.548.309-3.751,3.06-32.224,4.057-42.517.223-2.3,4.975-117.981,4.975-117.981Z"/>
            <path class="e"
                  d="M814.857,280.156s-1.263,14.093,7.43,21.886-20.034,0-20.034,0,5.346-13.5,4.147-21.886S814.857,280.156,814.857,280.156Z"/>
            <ellipse class="d" cx="15.198" cy="20.735" rx="15.198" ry="20.735" transform="translate(795.074 244.149)"/>
            <path class="f"
                  d="M686.509,369.764c23.006-48.125,64.067-70.082,90.283-75.911,11.347-2.528,19.913-2.032,23.041.669a17,17,0,0,0,10.609,4.122,23.045,23.045,0,0,0,5.956-.543,29.639,29.639,0,0,0,6.315-2.147c.969-.45,1.535-.774,1.535-.774a61.559,61.559,0,0,1,16.046.959c59.311,11.612,69.631,111.061,69.1,119.615-.323,5.091-5.587,28.155-12.167,48.657-5.391,16.831-11.682,31.941-16.854,34.031C868.9,503.059,782.264,509.4,764.452,500.9c-.416-.312-.866-.647-1.293-1.016-6.684-5.437-13.934-16.173-17.778-26.228,0-.011-10.239-28.87-12.328-34.746-.023-.058-.035-.1-.058-.15-.069-.231-.15-.45-.231-.658-.023-.081-.058-.15-.081-.231"/>
            <path class="g"
                  d="M760.481,497.491a9.366,9.366,0,0,0,5.317,2.453c12.494.245,66.455,1.169,95.728-.513,10.327-.594,17.58-1.512,18.854-2.9,0,0,0,.043-.008.119-.077,1.614-1,20.086-2.3,44.3-2.565,47.8,2.376,116.257,8.148,137.036,1.245,4.485-65.8-2.309-65.8-2.309-.187-49.327,4.493-135.925,1.47-139.806-3.678-4.722-9.64,71.449-16.477,135.189-26.551,6.926-68.594,2.721-68.108,0C743.076,638.732,760.481,497.491,760.481,497.491Z"/>
            <path class="h"
                  d="M732.686,437.872c.024.081.058.15.081.231.081.208.162.427.231.658.023.046.035.092.058.15,2.089,5.876,12.329,34.735,12.329,34.746,3.844,10.055,11.093,20.791,17.777,26.228-4.537-16.427-18.678-64.045-18.135-83.23C742.325,435.148,732.686,437.86,732.686,437.872Z"/>
            <path class="h"
                  d="M871.382,369.077s-28.711,85.706,50.946,122.1l1.619,1.076-.411-20.158S886,419.723,885.859,418.374,871.382,369.077,871.382,369.077Z"/>
            <path class="h"
                  d="M811.446,302.049c.046,1.374-.681,2.274-2.886,1.974-6.88-.935-14.649-.739-20.294,1.847a4.8,4.8,0,0,1-4.64-.2c-3.614-2.113-5.853-8.416-6.742-11.209a1.933,1.933,0,0,1-.092-.612c11.347-2.528,19.913-2.032,23.041.669a17,17,0,0,0,10.609,4.122A9.36,9.36,0,0,1,811.446,302.049Z"/>
            <path class="i"
                  d="M785.787,810.733c.283-2.135-14.911-1.935-16.63-.2s-32,7.982-31.4,16.975,42.565,1.922,45.563,1.71S785.232,814.93,785.787,810.733Z"/>
            <path class="i"
                  d="M830.808,807.27c-.283-2.135,17.905.574,19.624,2.309s28.2,8.936,27.6,17.929-42.564,1.922-45.562,1.71S831.363,811.467,830.808,807.27Z"/>
            <g class="j">
                <path d="M810.3,500.421l-.6-.05S809.91,500.386,810.3,500.421Z"/>
                <path class="k"
                      d="M810.3,500.421c16.08,1.283,51.227-.99,51.227-.99,10.327-.594,17.58-1.512,18.854-2.9,0,0,0,.043-.008.119-.077,1.614-1,20.086-2.3,44.3a12.007,12.007,0,0,1-1.69-.2,13.159,13.159,0,0,1-8.51-6.047,29.217,29.217,0,0,1-3.31-6.911C852.572,504.979,815.451,500.883,810.3,500.421Z"/>
            </g>
            <path class="g"
                  d="M804.56,252.983s26.311,14.588,18.5-8.834C817.659,227.945,786.616,242.541,804.56,252.983Z"/>
            <path class="g"
                  d="M808.375,247.387s-14.722,8.735-13.3,17.5c0,0-3.247-26.161,11.391-26.819s20.3.755,19,28.419C825.47,266.485,821.217,244.48,808.375,247.387Z"/>
            <path class="g"
                  d="M805.827,238.237s.739-8.151,8.82-7,11.543,5.772,12.7,10.389,2.309,8.081,3.463,8.081c0,0-3.463,3.463-4.618,2.309,0,0,3,8.3-.81,15.117,0,0-1.5-10.5-7.27-11.654S805.827,238.237,805.827,238.237Z"/>
            <path class="g"
                  d="M806.566,238.166s-5.772-3.463-11.544,4.618l-3.463,6.926s1.155,1.154,3.463,0c0,0-1.051,8.133.052,12.724l3.412-13.879Z"/>
            <path class="l"
                  d="M772.328,394.652l14.637,93.77a10.014,10.014,0,0,0,11.428,8.346l64-10a3.108,3.108,0,0,0,.451-.092,9.979,9.979,0,0,0,7.884-11.336l-14.637-93.77a10,10,0,0,0-11.429-8.334l-61.031,9.523-2.967.462A10,10,0,0,0,772.328,394.652Z"/>
            <path class="m"
                  d="M775.744,394.1l14.638,93.77A10,10,0,0,0,801.81,496.2l61.032-9.523a9.979,9.979,0,0,0,7.884-11.336l-14.637-93.77a10,10,0,0,0-11.429-8.334l-61.031,9.523A9.979,9.979,0,0,0,775.744,394.1Z"/>
            <circle class="n" cx="7.725" cy="7.725" r="7.725" transform="translate(816.162 427.782)"/>
            <path class="h" d="M883.563,460.8s1.5-34.469-90.849-22.925S861.976,459.8,861.976,459.8Z"/>
            <path class="c"
                  d="M801.313,450.786c-1.094-.367-12.644-7.284-18.906-7.862s-15.625-.839-18.858-1.758c-3.8-1.082-4.763.429-.382,2.1a61.824,61.824,0,0,0,9.974,2.825c.626.025-3.454-.523-7.888-1.442-4.714-.977-9.828-2.306-10.062-1.467-.454,1.629,13.125,5.29,15.518,5.548a60.25,60.25,0,0,1-6.307-.764c-2.847-.505-6.109-1.513-6.75-.922-1.01.931,6.182,3.752,12.126,4.576.1.193-1.816.493-8.81-.959-.7-.146-2.493.161-.191,1.225,4.844,2.24,6.762,3.561,13.782,3.78,6.846.213,14.4-1.2,19.326.455Z"/>
            <path class="c"
                  d="M785.425,443.541s-5.3-5.568-11.253-6.486c-3.537-.546-3.455-1.436-4.058-1.7-2-.881-.064,2.835,2.941,3.789,2.443.775,3.807,4.948,5.275,5.834s5.861,2.509,6.957,1.935S785.425,443.541,785.425,443.541Z"/>
            <path class="f"
                  d="M900.07,310.891c21.744,19.456,36.789,37.525,46.175,96.967,4.762,30.158,3.522,60.316,2.282,76.22a18.791,18.791,0,0,1-12.914,16.339c-68.127,22.472-142.958-42.173-142.958-42.173-3.9-1.452,3.953-15.364,3.953-15.364,37.663-.391,66.522.764,96.536,12.308-.152-.072-29.505-55.206-33.477-70.417-10.4-39.889-44.645-74.407-35.785-90.041C826.943,289.323,878.137,291.267,900.07,310.891Z"/>
            <line class="o" x1="17.025" y2="178.029" transform="translate(755.18 496.324)"/>
            <line class="o" x1="16.897" y2="174.929" transform="translate(772.206 499.885)"/>
            <line class="o" x1="14.051" y2="173.706" transform="translate(791.568 499.885)"/>
            <line class="o" x2="0.362" y2="35.981" transform="translate(821.527 499.885)"/>
            <line class="o" x1="3.26" y2="177.226" transform="translate(835.924 499.885)"/>
            <line class="o" x1="0.908" y2="178.713" transform="translate(853.471 499.774)"/>
            <line class="o" x2="3.437" y2="179.739" transform="translate(869.313 499.774)"/>
            <path class="o" d="M758.178,516.011s95.876,4.526,121.207,0"/>
            <path class="o" d="M821.889,535.866c-33.546,7.6-65.648-4.413-65.648-4.413"/>
            <path class="o" d="M821.527,533.6s30.273,8.507,56.865,1.323"/>
            <path class="o" d="M754.592,544.5s24.175,12.657,63.441,6.2"/>
            <path class="o" d="M752.612,560.038s37.62,11.485,63.561,5.575"/>
            <path class="o" d="M750.628,575.474s19.16,15.019,63.581,8.282"/>
            <path class="o" d="M748.319,593.23s29.214,15.264,64.435,4.854"/>
            <path class="o" d="M746.171,609.495s20.691,14.688,64.844,6.157"/>
            <path class="o" d="M743.925,626.17s28.559,14.929,65.772,2.868"/>
            <path class="o" d="M742.128,639.184s16.849,16.2,66.143,4.191"/>
            <path class="o" d="M740.01,653.955s27.245,14.353,66.806,3.739"/>
            <path class="o" d="M822.9,549.846s12.647,10.443,55.489,2.691"/>
            <path class="o" d="M823.235,565.563s17.747,8.275,54.144,1.74"/>
            <path class="o" d="M822.37,583.007s27.4,8.254,55.009,0"/>
            <path class="o" d="M821.975,597.474s26.64,11.842,55.934,0"/>
            <path class="o" d="M821.527,613.356s25.362,8.9,57.118,0"/>
            <path class="o" d="M821.118,628.611s21.378,9.591,58.527,0"/>
            <path class="o" d="M821.118,642.107s25.382,13.08,59.818,1.389"/>
            <path class="o" d="M820.507,658.978s28.871,9.786,62.312.72"/>
            <path class="f"
                  d="M733.056,438.911s-70.267,29.81-87.317-34.48,6.394-78.51-15.628-105.143l14.208-11S693.335,314.213,707.9,354.7,733.056,438.911,733.056,438.911Z"/>
        </g>
    </g>
</svg>
