<svg xmlns="http://www.w3.org/2000/svg" width="391" height="324.02" viewBox="0 0 391 324.02">
    <defs>
        <style>
            .a{fill:#f9a94b;}.b{fill:#c7873c;}.c,.e{fill:#d8a35d;}.c{fill-rule:evenodd;}.d{fill:#d19442;}.f{fill:#947dce;}.g{opacity:0.15;}.h{fill:#ffc84f;}
        </style>
    </defs>
    <g transform="translate(-497.948 -390.359)">
        <path class="a" d="M497.948,713.389H833.692l-50.685-52.543H546.895Z" transform="translate(0 -11.717)"/>
        <rect class="b" width="335.745" height="12.708" transform="translate(497.948 701.672)"/>
        <g transform="translate(544.053 390.359)">
            <g transform="translate(303.383 37.206)">
                <path class="c"
                      d="M863.261,455.784c.916-.748,9.479-11.561,15.271-14.384s14.671-6.465,17.436-8.517c3.253-2.414,4.72-1.314,1.127,1.876a63.32,63.32,0,0,1-8.535,6.32c-.591.251,3.12-1.753,7.036-4.24,4.164-2.644,8.583-5.77,9.112-5.05,1.025,1.4-10.662,9.824-12.861,10.939a61.82,61.82,0,0,0,5.767-3.016c2.546-1.516,5.307-3.664,6.135-3.33,1.3.526-4.566,5.836-9.964,8.779-.03.222,1.92-.186,8.1-4.112.621-.394,2.447-.748.627,1.1-3.831,3.9-5.19,5.863-11.839,8.616-6.483,2.684-14.236,4.073-18.357,7.438Z"
                      transform="translate(-863.261 -429.35)"/>
                <path class="c"
                      d="M876.434,442.983s3.062-7.255,8.434-10.292c3.193-1.805,2.791-2.629,3.273-3.1,1.6-1.57,1.089,2.694-1.447,4.7-2.06,1.627-1.855,6.122-2.942,7.5s-4.708,4.528-5.967,4.375S876.434,442.983,876.434,442.983Z"
                      transform="translate(-863.832 -429.25)"/>
            </g>
            <g transform="translate(26.339)">
                <path class="d"
                      d="M690.084,442.693s1.293,14.44-7.613,22.425,20.526,0,20.526,0-5.477-13.83-4.249-22.425S690.084,442.693,690.084,442.693Z"
                      transform="translate(-578.313 -392.461)"/>
                <ellipse class="e" cx="15.571" cy="21.245" rx="15.571" ry="21.245"
                         transform="translate(100.898 13.341)"/>
                <path class="f"
                      d="M817.62,535.237c-23.572-49.309-65.643-71.8-92.5-77.777-11.626-2.591-20.4-2.082-23.607.686a17.4,17.4,0,0,1-10.87,4.222,23.489,23.489,0,0,1-6.1-.556,30.348,30.348,0,0,1-6.47-2.2c-.993-.461-1.573-.792-1.573-.792a63.094,63.094,0,0,0-16.44.982c-60.769,11.9-71.343,113.791-70.8,122.556.331,5.216,5.724,28.847,12.466,49.853,5.524,17.244,11.97,32.726,17.268,34.867,11.757,4.731,100.521,11.224,118.771,2.519.426-.319.887-.662,1.325-1.041,6.848-5.571,14.276-16.571,18.214-26.872,0-.011,10.491-29.58,12.631-35.6.024-.059.036-.106.059-.154.071-.236.154-.461.237-.674.023-.082.058-.153.082-.236"
                      transform="translate(-574.346 -393.193)"/>
                <path class="g"
                      d="M777.093,610.792c-.024.083-.059.154-.083.236-.082.213-.165.438-.236.674-.024.048-.035.095-.059.154-2.141,6.02-12.632,35.589-12.632,35.6-3.938,10.3-11.365,21.3-18.214,26.872,4.649-16.83,19.137-65.619,18.582-85.276C767.217,608,777.093,610.78,777.093,610.792Z"
                      transform="translate(-581.132 -398.967)"/>
                <path class="g"
                      d="M627.529,538.1s29.416,87.812-52.2,125.105l-1.659,1.1.421-20.654s38.458-53.663,38.6-55.044S627.529,538.1,627.529,538.1Z"
                      transform="translate(-573.672 -396.759)"/>
                <path class="g"
                      d="M694.158,465.856c-.048,1.408.7,2.33,2.956,2.023,7.05-.959,15.009-.758,20.792,1.892a4.912,4.912,0,0,0,4.755-.2c3.7-2.164,6-8.622,6.907-11.484a1.976,1.976,0,0,0,.095-.627c-11.627-2.591-20.4-2.082-23.607.686a17.4,17.4,0,0,1-10.87,4.222A9.591,9.591,0,0,0,694.158,465.856Z"
                      transform="translate(-578.891 -393.193)"/>
                <g transform="translate(95.428)">
                    <g transform="translate(5.286 5.924)">
                        <path class="h"
                              d="M700.606,413.019s-26.957,14.946-18.957-9.05C687.185,387.366,718.992,402.322,700.606,413.019Z"
                              transform="translate(-678.999 -396.551)"/>
                        <path class="h"
                              d="M696.646,407.335s15.083,8.949,13.628,17.927c0,0,3.325-26.8-11.672-27.478s-20.8.774-19.471,29.118C679.131,426.9,683.487,404.355,696.646,407.335Z"
                              transform="translate(-678.946 -396.6)"/>
                    </g>
                    <path class="h"
                          d="M699.017,397.642s-.758-8.351-9.037-7.168-11.827,5.914-13.011,10.645-2.365,8.279-3.548,8.279c0,0,3.548,3.548,4.732,2.365,0,0-3.07,8.507.83,15.49,0,0,1.535-10.758,7.449-11.941S699.017,397.642,699.017,397.642Z"
                          transform="translate(-673.421 -390.359)"/>
                    <path class="h"
                          d="M699.384,397.863s5.913-3.548,11.827,4.731l3.548,7.1s-1.183,1.182-3.548,0c0,0,1.077,8.334-.053,13.037l-3.5-14.22Z"
                          transform="translate(-674.546 -390.651)"/>
                </g>
                <path class="g" d="M602.851,636.894s15.214-31.907,93.22,22.937-73.212-13.456-73.212-13.456Z"
                      transform="translate(-574.936 -400.639)"/>
                <path class="f"
                      d="M778.111,605.887s71.994,30.542,89.463-35.327-.7-81.668,6.4-113.733l-11.58-5.576s-43.586,26.873-58.507,68.36S778.111,605.887,778.111,605.887Z"
                      transform="translate(-582.528 -392.997)"/>
            </g>
            <g transform="translate(0 62.498)">
                <g transform="translate(148.701 207.48)">
                    <path class="c"
                          d="M701.575,688.77c1.121-.375,12.954-7.462,19.37-8.054s16.01-.86,19.322-1.8c3.9-1.108,4.88.44.391,2.154a63.234,63.234,0,0,1-10.218,2.893c-.642.027,3.539-.536,8.081-1.477,4.83-1,10.069-2.362,10.309-1.5.465,1.668-13.447,5.42-15.9,5.685a61.6,61.6,0,0,0,6.462-.783c2.916-.518,6.259-1.55,6.916-.944,1.034.953-6.334,3.844-12.424,4.688-.106.2,1.861.506,9.027-.982.719-.149,2.553.165.2,1.255-4.963,2.3-6.928,3.649-14.121,3.873-7.014.219-14.757-1.225-19.8.467Z"
                          transform="translate(-701.575 -672.821)"/>
                    <path class="c"
                          d="M718.573,681.089s5.431-5.7,11.529-6.645c3.625-.56,3.54-1.472,4.158-1.744,2.051-.9.066,2.9-3.013,3.881-2.5.794-3.9,5.07-5.4,5.977s-6.005,2.572-7.128,1.982S718.573,681.089,718.573,681.089Z"
                          transform="translate(-702.294 -672.562)"/>
                </g>
                <path class="f"
                      d="M596.944,474.913c-22.279,19.933-37.694,38.447-47.31,99.349-4.879,30.9-3.609,61.8-2.338,78.093A19.251,19.251,0,0,0,560.527,669.1c69.8,23.023,144.308,18.426,144.308,18.426,4-1.488-.314-15.95-.314-15.95-35.712-48.464-86.75-40.315-100.481-48.817-4.282-25.123,30.23-56.563,34.3-72.147C649,509.739,684.082,474.373,675,458.354,671.868,452.814,619.415,454.806,596.944,474.913Z"
                      transform="translate(-546.141 -455.687)"/>
            </g>
        </g>
    </g>
</svg>
