<svg xmlns="http://www.w3.org/2000/svg" width="1089.38" height="376.623" viewBox="0 0 1089.38 376.623"><defs><style>.a{fill:#fa5617;}.b,.h{fill:#a2c8b9;}.c{opacity:0.11;}.d{fill:#00284b;}.aa,.ab,.ac,.ad,.ae,.af,.ah,.ai,.e,.f,.g,.j,.k,.y{fill:none;}.ad,.e,.f,.j{stroke:#00284b;stroke-linecap:round;}.aa,.ab,.ac,.ad,.ae,.af,.ah,.ai,.e,.f,.g,.h,.j,.k,.y{stroke-miterlimit:10;}.ae,.e,.h,.k{stroke-width:0.856px;}.ad,.f{stroke-linejoin:round;}.f{stroke-width:0.922px;}.g{stroke:#fa5617;stroke-width:1.712px;}.ae,.af,.h,.k{stroke:#86a699;}.aj,.i,.z{fill:#fff;}.i{opacity:0.13;}.j{stroke-width:2.568px;}.l{fill:#4ea66a;}.m{fill:#bd5151;}.n{fill:#d4d4d4;}.o{fill:#fd962d;}.p{opacity:0.74;}.q{fill:#de716f;}.r{fill:#57aa6c;}.s{fill:#ce521f;}.t{fill:#ebebeb;}.u{fill:#8e96a3;}.v{fill:#4f3b65;}.w{fill:#d0d1d6;}.x{fill:#947dce;}.ah,.y{stroke:#fff;}.y{stroke-width:1.493px;}.aa{stroke:#d5abff;}.aa,.ab{stroke-width:1.031px;}.ab{stroke:#00b929;}.ac{stroke:#a2c8b9;stroke-width:5.364px;}.ad{stroke-width:0.909px;}.ae,.ah{stroke-dasharray:5.364;}.af{stroke-width:0.798px;stroke-dasharray:5.001;}.ag{fill:#86a699;}.ah,.ai{stroke-width:1.788px;}.ai{stroke:#d4d4d4;}.aj{font-size:12px;font-family:MyriadPro-Regular, Myriad Pro;}</style></defs><g transform="translate(0.101 0.002)"><path class="a" d="M129.965,111.77h-54.8a32.126,32.126,0,0,0-8.135,1.042A32.606,32.606,0,0,0,42.98,144.43v22.925a32.435,32.435,0,0,0,32.189,32.671h54.8a31.584,31.584,0,0,0,14.625-3.563,32.721,32.721,0,0,0,17.564-29.108V144.43A32.426,32.426,0,0,0,129.965,111.77Z" transform="translate(4.018 10.77)"/><path class="b" d="M124.948,118.47H78.583a26.789,26.789,0,0,0-6.874.877A27.266,27.266,0,0,0,51.35,145.714v19.12a27.248,27.248,0,0,0,27.233,27.244h46.365a27.222,27.222,0,0,0,27.233-27.244v-19.12A27.234,27.234,0,0,0,124.948,118.47Z" transform="translate(4.825 11.415)"/><path class="c" d="M137.326,189.011a27.028,27.028,0,0,1-12.378,2.971H78.583A27.248,27.248,0,0,1,51.35,164.738v-19.12A27.264,27.264,0,0,1,71.709,119.25a27.235,27.235,0,0,0-14.856,24.273v19.12A27.241,27.241,0,0,0,84.1,189.877h46.354A26.847,26.847,0,0,0,137.326,189.011Z" transform="translate(4.825 11.491)"/><circle class="d" cx="3.925" cy="3.925" r="3.925" transform="translate(83.419 157.908)"/><circle class="d" cx="3.925" cy="3.925" r="3.925" transform="translate(116.682 157.908)"/><path class="e" d="M70.7,139.136s2.094-6.282,10.733-3.41" transform="translate(6.689 13.006)"/><path class="e" d="M109.57,136.214s4.451-4.912,11.2,1.206" transform="translate(10.434 12.945)"/><path class="f" d="M83.63,165.64l4.2-5.46,4.714,2.127,4.188-3.037,4.977,4.55,4.977-4.55,4.451,6.37" transform="translate(7.935 15.347)"/><path class="a" d="M40.38,166.848h3.4V141.61h-3.4a4.314,4.314,0,0,0-4.32,4.32v16.61A4.319,4.319,0,0,0,40.38,166.848Z" transform="translate(3.351 13.645)"/><path class="a" d="M34.032,159.529h2.533V146.91H34.032a3.21,3.21,0,0,0-3.212,3.212v6.194A3.217,3.217,0,0,0,34.032,159.529Z" transform="translate(2.846 14.156)"/><line class="g" x1="12.224" transform="translate(21.442 167.37)"/><circle class="h" cx="3.629" cy="3.629" r="3.629" transform="translate(14.184 163.489)"/><ellipse class="i" cx="1.02" cy="6.282" rx="1.02" ry="6.282" transform="translate(40.453 158.566)"/><ellipse class="i" cx="0.592" cy="2.16" rx="0.592" ry="2.16" transform="translate(34.269 165.396)"/><path class="a" d="M155.089,166.848h-3.4V141.61h3.4a4.314,4.314,0,0,1,4.32,4.32v16.61A4.319,4.319,0,0,1,155.089,166.848Z" transform="translate(14.493 13.645)"/><path class="a" d="M161.263,159.529H158.73V146.91h2.533a3.21,3.21,0,0,1,3.212,3.212v6.194A3.21,3.21,0,0,1,161.263,159.529Z" transform="translate(15.171 14.156)"/><line class="g" x2="12.224" transform="translate(179.646 167.37)"/><circle class="h" cx="3.629" cy="3.629" r="3.629" transform="translate(191.881 163.489)"/><ellipse class="i" cx="1.02" cy="6.282" rx="1.02" ry="6.282" transform="translate(170.82 158.566)"/><path class="b" d="M192.583,197.009c-3.486,6.5-11.95,20.469-24.789,27.606-6.293,3.5-16.478,7.137-28.33,4.528a32.1,32.1,0,0,1-13.134-6.381c6.688-2.675,7.17-6.37,13.858-9.045,2.028.373,11.04.329,14.582-.537,2.368-.581,6.479-.625,13.266-7.642A83.662,83.662,0,0,0,180.216,189.4Q186.4,193.2,192.583,197.009Z" transform="translate(12.049 18.25)"/><path class="j" d="M195.663,183.657c-.044.559-.559,5.5-4.923,7.751-.581.3-4.221,2.171-7.631.318-3.234-1.765-4.166-5.756-3.793-8.53.581-4.418,4.506-6.436,4.977-6.677" transform="translate(17.147 17.009)"/><ellipse class="h" cx="2.324" cy="10.821" rx="2.324" ry="10.821" transform="translate(188.707 206.147) rotate(-56.068)"/><path class="k" d="M183.507,204.273a111.789,111.789,0,0,1-12.367-8.223" transform="translate(16.367 18.891)"/><path class="k" d="M178.78,210.653a107.485,107.485,0,0,1-12.63-8.453" transform="translate(15.886 19.483)"/><path class="k" d="M173.138,216.565a99.139,99.139,0,0,1-11.578-9.725" transform="translate(15.444 19.93)"/><path class="k" d="M157.54,209.45a63.5,63.5,0,0,0,9.176,12.093" transform="translate(15.057 20.182)"/><path class="k" d="M151.8,211.18a67.467,67.467,0,0,0,7.2,14.231" transform="translate(14.503 20.349)"/><path class="k" d="M149.59,227.681h0c-1.93-4.5-3.541-13.365-3.98-15.941" transform="translate(13.907 20.403)"/><path class="b" d="M8.74,197.009c3.486,6.5,11.95,20.469,24.789,27.606,6.293,3.5,16.478,7.137,28.33,4.528a32.1,32.1,0,0,0,13.134-6.381c-6.688-2.675-7.17-6.37-13.858-9.045-2.028.373-11.04.329-14.582-.537-2.368-.581-6.479-.625-13.266-7.642A83.662,83.662,0,0,1,21.107,189.4Q14.923,193.2,8.74,197.009Z" transform="translate(0.719 18.25)"/><path class="j" d="M1.28,183.657c.044.559.559,5.5,4.923,7.751.581.3,4.221,2.171,7.631.318,3.234-1.765,4.166-5.756,3.793-8.53-.581-4.418-4.506-6.436-4.977-6.677" transform="translate(0 17.009)"/><ellipse class="h" cx="10.821" cy="2.324" rx="10.821" ry="2.324" transform="translate(4.827 214.386) rotate(-33.932)"/><path class="l" d="M794.134,94.221a26.06,26.06,0,0,1-6.074.976,23.994,23.994,0,0,1-13.551-4.1,23.227,23.227,0,0,1-10.251,5.328c-1.524.329-12.137,2.533-16-3.289a9.613,9.613,0,0,1-1.239-6.567,23.42,23.42,0,0,1-15.174,6.151c-.768.022-13.9-.044-18.879-10.251a19.041,19.041,0,0,1-.822-13.551c-1.2-.395-9.078-3.212-11.49-10.668-2.73-8.409,3.684-16.018,5.745-18.463A27.371,27.371,0,0,1,717.477,32c.022-.691.471-11.018,9.451-16.412,8.935-5.372,18.189-.965,19.274-.417a20.318,20.318,0,0,1,6.984,5.745,30.845,30.845,0,0,1,15.744-9.429l-9.177,43.065Z" transform="translate(67.325 1.107)"/><path class="m" d="M815.634,69.806a24.685,24.685,0,0,1-12.312,4.528,18.746,18.746,0,0,1-1.645,10.251,17.066,17.066,0,0,1-6.688,7.137,23.688,23.688,0,0,1-6.118,2.544L764,65.585,754.49,54.621l.318-1.436,8.859-41.64a17.966,17.966,0,0,1,12.981,1.623,17.539,17.539,0,0,1,7.192,8.935,3.841,3.841,0,0,1,.2.493c.121-.077.449-.318,1-.625,2.259-1.349,7.883-4.078,14.231-2.215a11.345,11.345,0,0,1,1.173.395,17.412,17.412,0,0,1,9.034,8.19,23.636,23.636,0,0,1,16,18.463C827.091,56.7,821.85,65.278,815.634,69.806Z" transform="translate(72.576 1.063)"/><path class="b" d="M1004.88,42.584a23.636,23.636,0,0,0-16-18.463,17.461,17.461,0,0,0-9.034-8.19c-.395-.153-.789-.274-1.173-.395-6.348-1.864-11.983.866-14.231,2.215-.548.318-.877.548-1,.625-.055-.153-.121-.329-.2-.493a17.539,17.539,0,0,0-7.192-8.935,17.911,17.911,0,0,0-12.981-1.623,30.845,30.845,0,0,0-15.744,9.429,20.1,20.1,0,0,0-6.984-5.745c-1.074-.548-10.328-4.956-19.274.417-8.979,5.394-9.429,15.722-9.451,16.412a27.26,27.26,0,0,0-11.073,7.784c-2.061,2.456-8.464,10.054-5.745,18.463,2.412,7.444,10.295,10.273,11.49,10.668A19.038,19.038,0,0,0,887.12,78.3C892.1,88.522,905.232,88.576,906,88.554A23.421,23.421,0,0,0,921.173,82.4a9.491,9.491,0,0,0,1.239,6.567c3.859,5.822,14.472,3.629,16,3.289a23.226,23.226,0,0,0,10.251-5.328,24.049,24.049,0,0,0,13.551,4.1,26.061,26.061,0,0,0,6.074-.976,24.242,24.242,0,0,0,6.118-2.544,17,17,0,0,0,6.688-7.137,18.643,18.643,0,0,0,1.644-10.251A24.72,24.72,0,0,0,995.045,65.6C1001.251,61.036,1006.491,52.462,1004.88,42.584Z" transform="translate(84.106 0.656)"/><path class="k" d="M25.457,196.05a113.88,113.88,0,0,1-12.367,8.223" transform="translate(1.138 18.891)"/><path class="k" d="M30.46,202.2a109.809,109.809,0,0,1-12.63,8.453" transform="translate(1.595 19.483)"/><path class="k" d="M34.958,206.85a100.406,100.406,0,0,1-11.578,9.725" transform="translate(2.129 19.931)"/><path class="k" d="M29.59,221.533a63.153,63.153,0,0,0,9.176-12.093" transform="translate(2.728 20.181)"/><path class="k" d="M37.13,225.411a66.69,66.69,0,0,0,7.2-14.231" transform="translate(3.454 20.349)"/><path class="k" d="M50.24,211.74c-.439,2.576-2.05,11.446-3.98,15.93v.011" transform="translate(4.334 20.403)"/><ellipse class="i" cx="0.592" cy="2.16" rx="0.592" ry="2.16" transform="translate(177.859 165.396)"/><path class="a" d="M69.776,279.923c-.395-.592-18.265-23.572-12.97-61.286,0,0,9.089-17.9,44.446-17.114s44.15,16.719,44.15,16.719,6.162,25.929-8.508,61.681Z" transform="translate(5.256 19.416)"/><path class="n" d="M813.187,69.037a24.685,24.685,0,0,1-12.312,4.528,18.745,18.745,0,0,1-1.644,10.251,17.066,17.066,0,0,1-6.688,7.137c-3.289-5.021-11.819-19.921-12.608-42.286-.022-.373-.022-.767-.022-1.162-.055-2.116-.044-4.3.077-6.545.077-2,.23-4.057.449-6.151.121-1.074.252-2.171.417-3.289a14.035,14.035,0,0,1,1.074-1.666,31,31,0,0,1,8.552-7.609,43.048,43.048,0,0,1,6.337-3.234,11.35,11.35,0,0,1,1.173.395,17.412,17.412,0,0,1,9.034,8.19,23.636,23.636,0,0,1,16,18.463C824.644,55.935,819.4,64.509,813.187,69.037Z" transform="translate(75.023 1.832)"/><path class="a" d="M127.57,209.365S137.9,205.571,143.4,215.2s-5.7,20.041-5.7,20.041Z" transform="translate(12.169 20.103)"/><path class="o" d="M75.8,264.206a97.762,97.762,0,0,1-4.517-39.874,13.456,13.456,0,0,1,2.938-7.378c3.837-4.7,12.509-11.753,29.766-11.281,13.014.351,21.083,4.177,25.885,7.872a18.044,18.044,0,0,1,6.951,13,123.163,123.163,0,0,1-3.1,35.96,17.41,17.41,0,0,1-16.983,13.463H92.3A17.392,17.392,0,0,1,75.8,264.206Z" transform="translate(6.708 19.816)"/><path class="b" d="M89.15,301.69c-.2.592,7.071,25.534,7.071,25.534s3.925,3.925,9.034,0l5.109-25.534Z" transform="translate(8.466 29.07)"/><path class="b" d="M81.09,344.054c0-11.72,9.144-21.214,20.436-21.214s20.436,9.494,20.436,21.214Z" transform="translate(7.69 31.108)"/><path class="a" d="M56.418,233.658s-8.267-6.885-6.107-14.932,10.613-10.613,16.7-9.823S56.418,233.658,56.418,233.658Z" transform="translate(4.69 20.116)"/><path class="a" d="M134.117,278.534a28.9,28.9,0,0,1-.263,3.925c-1.984,15-15.272,26.587-31.356,26.587s-29.36-11.589-31.345-26.587a28.9,28.9,0,0,1-.263-3.925,29.452,29.452,0,0,1,.515-5.5h62.2A29.453,29.453,0,0,1,134.117,278.534Z" transform="translate(6.707 26.308)"/><path class="o" d="M139.862,277.744a4.716,4.716,0,0,1-4.714,4.714H69.794a4.714,4.714,0,0,1,0-9.429h65.354A4.714,4.714,0,0,1,139.862,277.744Z" transform="translate(6.147 26.308)"/><g class="p" transform="translate(29.27 101.029)"><path class="q" d="M31.459,116.314a9.684,9.684,0,0,1-.362-1.535,10.925,10.925,0,0,1-.164-1.875,5.874,5.874,0,0,1,.581-2.631,10.911,10.911,0,0,1,1.447-2.2,24.45,24.45,0,0,1,1.886-1.973,25.794,25.794,0,0,0,1.886-1.919,10.783,10.783,0,0,0,1.447-2.028,4.79,4.79,0,0,0,.581-2.335,4.425,4.425,0,0,0-.417-1.941,4.022,4.022,0,0,0-1.151-1.414A4.91,4.91,0,0,0,35.5,95.6a7.2,7.2,0,0,0-2.028-.285,8.542,8.542,0,0,0-4.4,1.173A1.5,1.5,0,0,1,26.81,95.2h0a1.55,1.55,0,0,1,.8-1.338,13.141,13.141,0,0,1,6.414-1.71,11.238,11.238,0,0,1,3.256.46,8,8,0,0,1,2.675,1.359,6.362,6.362,0,0,1,1.809,2.248,7.045,7.045,0,0,1,.658,3.125,7.237,7.237,0,0,1-.592,3,10.749,10.749,0,0,1-1.491,2.423,19.277,19.277,0,0,1-1.952,2.061c-.7.636-1.349,1.272-1.952,1.9a9.94,9.94,0,0,0-1.491,1.973,4.455,4.455,0,0,0-.592,2.258,6.732,6.732,0,0,0,.252,1.9,12.09,12.09,0,0,0,.5,1.447H31.459Zm2.05,8.014a2.524,2.524,0,0,1-1.776-.724,2.362,2.362,0,0,1-.756-1.776,2.329,2.329,0,0,1,.756-1.776,2.463,2.463,0,0,1,3.552,0,2.329,2.329,0,0,1,.756,1.776,2.362,2.362,0,0,1-.756,1.776A2.524,2.524,0,0,1,33.509,124.328Z" transform="translate(-26.81 -92.15)"/></g><g transform="translate(95.939 58.414)"><path d="M92.269,77.444a9.685,9.685,0,0,1-.362-1.535,10.925,10.925,0,0,1-.164-1.875,5.874,5.874,0,0,1,.581-2.631,10.912,10.912,0,0,1,1.447-2.2,24.453,24.453,0,0,1,1.886-1.973,25.794,25.794,0,0,0,1.886-1.919,10.783,10.783,0,0,0,1.447-2.028,4.79,4.79,0,0,0,.581-2.335A4.425,4.425,0,0,0,99.154,59,4.252,4.252,0,0,0,98,57.589a4.91,4.91,0,0,0-1.688-.855,7.2,7.2,0,0,0-2.028-.285,8.542,8.542,0,0,0-4.4,1.173,1.5,1.5,0,0,1-2.269-1.294h0a1.55,1.55,0,0,1,.8-1.338,13.142,13.142,0,0,1,6.414-1.71,11.238,11.238,0,0,1,3.256.46,8,8,0,0,1,2.675,1.359,6.362,6.362,0,0,1,1.809,2.248,7.045,7.045,0,0,1,.658,3.125,7.236,7.236,0,0,1-.592,3,10.748,10.748,0,0,1-1.491,2.423A19.278,19.278,0,0,1,99.2,67.96c-.7.636-1.349,1.272-1.952,1.9a9.94,9.94,0,0,0-1.491,1.973,4.455,4.455,0,0,0-.592,2.258,6.732,6.732,0,0,0,.252,1.9,12.092,12.092,0,0,0,.5,1.447H92.269Zm2.05,8.025a2.524,2.524,0,0,1-1.776-.724,2.362,2.362,0,0,1-.756-1.776,2.329,2.329,0,0,1,.756-1.776,2.463,2.463,0,0,1,3.552,0,2.329,2.329,0,0,1,.756,1.776,2.362,2.362,0,0,1-.756,1.776A2.524,2.524,0,0,1,94.319,85.469Z" transform="translate(-87.62 -53.28)"/></g><g class="p" transform="translate(171.555 97.017)"><path class="r" d="M161.239,112.654a9.686,9.686,0,0,1-.362-1.535,10.925,10.925,0,0,1-.164-1.875,5.873,5.873,0,0,1,.581-2.631,10.91,10.91,0,0,1,1.447-2.2,24.452,24.452,0,0,1,1.886-1.973,25.8,25.8,0,0,0,1.886-1.919,11.3,11.3,0,0,0,1.447-2.028,4.79,4.79,0,0,0,.581-2.335,4.425,4.425,0,0,0-.417-1.941,4.022,4.022,0,0,0-1.151-1.414,4.91,4.91,0,0,0-1.688-.855,7.2,7.2,0,0,0-2.028-.285,8.541,8.541,0,0,0-4.4,1.173,1.5,1.5,0,0,1-2.269-1.294h0a1.55,1.55,0,0,1,.8-1.338,13.142,13.142,0,0,1,6.414-1.71,11.239,11.239,0,0,1,3.256.46,8,8,0,0,1,2.675,1.359,6.362,6.362,0,0,1,1.809,2.248,7.045,7.045,0,0,1,.658,3.125,7.237,7.237,0,0,1-.592,3,10.75,10.75,0,0,1-1.491,2.423,19.279,19.279,0,0,1-1.952,2.061c-.7.636-1.349,1.272-1.952,1.9a9.939,9.939,0,0,0-1.491,1.973,4.426,4.426,0,0,0-.592,2.258,6.732,6.732,0,0,0,.252,1.9,12.09,12.09,0,0,0,.5,1.447h-3.651Zm2.05,8.014a2.524,2.524,0,0,1-1.776-.724,2.362,2.362,0,0,1-.756-1.776,2.329,2.329,0,0,1,.756-1.776,2.463,2.463,0,0,1,3.552,0,2.329,2.329,0,0,1,.757,1.776,2.362,2.362,0,0,1-.757,1.776A2.523,2.523,0,0,1,163.289,120.668Z" transform="translate(-156.59 -88.49)"/></g><path class="a" d="M529.025,113.1h-54.8a32.126,32.126,0,0,0-8.135,1.042A32.606,32.606,0,0,0,442.04,145.76v22.925a32.435,32.435,0,0,0,32.189,32.671h54.8a31.584,31.584,0,0,0,14.625-3.563,32.721,32.721,0,0,0,17.564-29.108V145.771A32.421,32.421,0,0,0,529.025,113.1Z" transform="translate(42.47 10.898)"/><path class="b" d="M524.008,119.8H477.643a26.788,26.788,0,0,0-6.874.877,27.266,27.266,0,0,0-20.359,26.367v19.12a27.248,27.248,0,0,0,27.233,27.244h46.365a27.222,27.222,0,0,0,27.233-27.244v-19.12A27.234,27.234,0,0,0,524.008,119.8Z" transform="translate(43.276 11.544)"/><path class="c" d="M536.386,190.341a27.027,27.027,0,0,1-12.378,2.971H477.643a27.248,27.248,0,0,1-27.233-27.244v-19.12a27.264,27.264,0,0,1,20.359-26.367,27.235,27.235,0,0,0-14.856,24.273v19.12a27.241,27.241,0,0,0,27.244,27.233h46.354A26.848,26.848,0,0,0,536.386,190.341Z" transform="translate(43.276 11.619)"/><circle class="d" cx="3.925" cy="3.925" r="3.925" transform="translate(523.617 157.316)"/><circle class="d" cx="3.925" cy="3.925" r="3.925" transform="translate(556.88 157.316)"/><path class="e" d="M469.76,140.466s2.094-6.282,10.733-3.41" transform="translate(45.141 13.134)"/><path class="e" d="M507.65,140.564s4.451-4.912,11.2,1.206" transform="translate(48.792 13.365)"/><path class="f" d="M482.69,166.97l4.2-5.46,4.714,2.127,4.188-3.037,4.977,4.55,4.977-4.55" transform="translate(46.387 15.475)"/><path class="a" d="M439.44,168.178h3.4V142.94h-3.4a4.314,4.314,0,0,0-4.32,4.32v16.61A4.319,4.319,0,0,0,439.44,168.178Z" transform="translate(41.803 13.773)"/><path class="a" d="M433.092,160.859h2.533V148.24h-2.533a3.21,3.21,0,0,0-3.212,3.212v6.194A3.217,3.217,0,0,0,433.092,160.859Z" transform="translate(41.298 14.284)"/><line class="g" x1="12.224" transform="translate(458.954 168.828)"/><circle class="h" cx="3.629" cy="3.629" r="3.629" transform="translate(451.696 164.947)"/><ellipse class="i" cx="1.02" cy="6.282" rx="1.02" ry="6.282" transform="translate(477.964 160.024)"/><ellipse class="i" cx="0.592" cy="2.16" rx="0.592" ry="2.16" transform="translate(471.781 166.855)"/><path class="a" d="M554.149,168.178h-3.4V142.94h3.4a4.314,4.314,0,0,1,4.32,4.32v16.61A4.319,4.319,0,0,1,554.149,168.178Z" transform="translate(52.944 13.773)"/><path class="a" d="M560.323,160.859H557.79V148.24h2.533a3.21,3.21,0,0,1,3.212,3.212v6.194A3.21,3.21,0,0,1,560.323,160.859Z" transform="translate(53.623 14.284)"/><line class="g" x2="12.224" transform="translate(617.158 168.828)"/><circle class="h" cx="3.629" cy="3.629" r="3.629" transform="translate(629.393 164.947)"/><ellipse class="i" cx="1.02" cy="6.282" rx="1.02" ry="6.282" transform="translate(608.332 160.024)"/><path class="b" d="M591.643,198.329c-3.486,6.5-11.95,20.469-24.789,27.606-6.293,3.5-16.478,7.137-28.33,4.528a32.1,32.1,0,0,1-13.134-6.381c6.688-2.675,7.17-6.37,13.858-9.045,2.028.373,11.04.329,14.582-.537,2.368-.581,6.479-.625,13.266-7.642a83.657,83.657,0,0,0,12.18-16.138Q585.459,194.535,591.643,198.329Z" transform="translate(50.501 18.377)"/><path class="j" d="M594.723,184.987c-.044.559-.559,5.5-4.923,7.751-.581.3-4.221,2.171-7.631.318-3.234-1.765-4.166-5.756-3.793-8.53.581-4.418,4.506-6.436,4.977-6.677" transform="translate(55.599 17.137)"/><ellipse class="h" cx="2.324" cy="10.821" rx="2.324" ry="10.821" transform="translate(626.21 207.601) rotate(-56.068)"/><path class="k" d="M582.567,205.6A111.781,111.781,0,0,1,570.2,197.38" transform="translate(54.819 19.019)"/><path class="k" d="M577.84,211.983a107.484,107.484,0,0,1-12.63-8.453" transform="translate(54.338 19.611)"/><path class="k" d="M572.2,217.895a99.14,99.14,0,0,1-11.577-9.725" transform="translate(53.896 20.059)"/><path class="k" d="M556.6,210.77a63.5,63.5,0,0,0,9.177,12.093" transform="translate(53.508 20.309)"/><path class="k" d="M550.86,212.51a67.473,67.473,0,0,0,7.2,14.231" transform="translate(52.955 20.477)"/><path class="k" d="M548.65,229h0c-1.93-4.5-3.541-13.365-3.98-15.941" transform="translate(52.359 20.53)"/><ellipse class="i" cx="0.592" cy="2.16" rx="0.592" ry="2.16" transform="translate(615.371 166.855)"/><path class="a" d="M468.836,281.253c-.395-.592-18.265-23.572-12.97-61.286,0,0,9.089-17.9,44.446-17.114s44.15,16.719,44.15,16.719,6.162,25.929-8.508,61.681Z" transform="translate(43.707 19.544)"/><path class="a" d="M526.63,210.695s10.328-3.793,15.831,5.833-5.7,20.041-5.7,20.041Z" transform="translate(50.62 20.231)"/><path class="o" d="M474.861,265.536a97.762,97.762,0,0,1-4.517-39.874,13.455,13.455,0,0,1,2.938-7.378c3.837-4.7,12.509-11.753,29.766-11.281,13.014.351,21.083,4.177,25.885,7.872a18.045,18.045,0,0,1,6.951,13,123.17,123.17,0,0,1-3.1,35.96A17.41,17.41,0,0,1,515.8,277.3H491.361A17.4,17.4,0,0,1,474.861,265.536Z" transform="translate(45.159 19.944)"/><path class="b" d="M426.662,270.134c-1.042-7.3-2.489-23.572,3.618-36.925a40.5,40.5,0,0,1,20.151-20.425,32.01,32.01,0,0,1,14.362-2.631l-11.413,18.353a20.7,20.7,0,0,0-6.874,5.306c-1.568,1.875-3.793,5.263-5.109,14.932a83.71,83.71,0,0,0-.263,20.217Q433.9,269.537,426.662,270.134Z" transform="translate(40.898 20.247)"/><path class="j" d="M428.582,281.23c-.285-.471-2.807-4.769-.625-9.165.3-.592,2.116-4.254,5.953-4.769,3.651-.493,6.765,2.171,8.113,4.627a9.153,9.153,0,0,1-.066,8.321" transform="translate(41.028 25.75)"/><ellipse class="h" cx="10.821" cy="2.324" rx="10.821" ry="2.324" transform="translate(464.134 289.189) rotate(-2.384)"/><path class="k" d="M425.81,256.545a113.709,113.709,0,0,1,14.834-.7" transform="translate(40.906 24.648)"/><path class="b" d="M319.763,70.035c7.2-7.247,14.4-7.916,14.439-12.126.1-7.642-23.561-8.288-26.181-19.778-2.017-8.848,9.3-20.414,19.8-24.789a26.509,26.509,0,0,1,11.83-2.3c13.255.625,21.28,11.709,22.585,13.562.23-3.366,1.316-12.071,8.047-18.3,10.437-9.637,27.683-7.093,37.693.033,12.86,9.155,17.651,28.6,9.9,46.6,1.93.088,24.4,1.436,28.878,14.143,1.063,3.015.987,6.337-1.831,14.691-7.126,21.138-11.589,34.4-23.067,37.408-10.744,2.818-23.736-4.385-33.1-16.171A55.029,55.029,0,0,1,363.9,118.8c-20.655,6.019-49.314-.033-54.741-16.478C305.7,91.82,311.978,77.863,319.763,70.035Z" transform="translate(29.533 0)"/><path class="k" d="M425.87,248.6a110.428,110.428,0,0,1,15.185-.68" transform="translate(40.912 23.884)"/><path class="k" d="M426.9,240.57a99.829,99.829,0,0,1,15.086.976" transform="translate(41.011 23.18)"/><path class="k" d="M429.08,233.07a110.061,110.061,0,0,1,14.439,3.059" transform="translate(41.221 22.458)"/><path class="k" d="M432.97,225.63a110.365,110.365,0,0,1,13.661,5.734" transform="translate(41.596 21.741)"/><path class="k" d="M450.932,228.289a77.836,77.836,0,0,0-11.852-9.769" transform="translate(42.184 21.056)"/><path class="b" d="M488.21,303.02c-.2.592,7.071,25.534,7.071,25.534s3.925,3.925,9.034,0l5.109-25.534Z" transform="translate(46.918 29.198)"/><path class="b" d="M480.15,345.384c0-11.72,9.144-21.215,20.436-21.215s20.436,9.494,20.436,21.215Z" transform="translate(46.142 31.236)"/><path class="a" d="M455.478,234.988s-8.267-6.885-6.107-14.932,10.613-10.613,16.7-9.823S455.478,234.988,455.478,234.988Z" transform="translate(43.141 20.244)"/><path class="a" d="M533.177,279.864a28.9,28.9,0,0,1-.263,3.925c-1.984,15-15.272,26.587-31.356,26.587s-29.36-11.588-31.345-26.587a28.909,28.909,0,0,1-.263-3.925,29.455,29.455,0,0,1,.515-5.5h62.2A29.45,29.45,0,0,1,533.177,279.864Z" transform="translate(45.159 26.436)"/><path class="o" d="M538.922,279.074a4.716,4.716,0,0,1-4.714,4.714H468.854a4.714,4.714,0,0,1,0-9.429h65.354A4.714,4.714,0,0,1,538.922,279.074Z" transform="translate(44.599 26.436)"/><path class="a" d="M893.6,113.1h-54.8a32.126,32.126,0,0,0-8.135,1.042A32.606,32.606,0,0,0,806.62,145.76v22.925a32.435,32.435,0,0,0,32.189,32.671h54.8a31.584,31.584,0,0,0,14.625-3.563,32.721,32.721,0,0,0,17.564-29.108V145.771A32.428,32.428,0,0,0,893.6,113.1Z" transform="translate(77.599 10.898)"/><path class="b" d="M888.588,119.8H842.224a26.789,26.789,0,0,0-6.874.877,27.266,27.266,0,0,0-20.359,26.367v19.12a27.248,27.248,0,0,0,27.234,27.244h46.365a27.222,27.222,0,0,0,27.233-27.244v-19.12A27.234,27.234,0,0,0,888.588,119.8Z" transform="translate(78.405 11.544)"/><path class="c" d="M900.966,190.341a27.028,27.028,0,0,1-12.378,2.971H842.224a27.248,27.248,0,0,1-27.234-27.244v-19.12a27.264,27.264,0,0,1,20.359-26.367,27.235,27.235,0,0,0-14.856,24.273v19.12a27.241,27.241,0,0,0,27.245,27.233h46.354A26.909,26.909,0,0,0,900.966,190.341Z" transform="translate(78.405 11.619)"/><circle class="d" cx="3.925" cy="3.925" r="3.925" transform="translate(923.315 157.316)"/><circle class="d" cx="3.925" cy="3.925" r="3.925" transform="translate(956.578 157.316)"/><path class="e" d="M834.34,140.466s2.094-6.282,10.733-3.41" transform="translate(80.27 13.134)"/><path class="e" d="M872.62,138.164s4.451-4.912,11.2,1.206" transform="translate(83.958 13.133)"/><path class="a" d="M804.02,168.178h3.4V142.94h-3.4a4.314,4.314,0,0,0-4.32,4.32v16.61A4.319,4.319,0,0,0,804.02,168.178Z" transform="translate(76.932 13.773)"/><path class="a" d="M797.672,160.859H800.2V148.24h-2.533a3.21,3.21,0,0,0-3.212,3.212v6.194A3.21,3.21,0,0,0,797.672,160.859Z" transform="translate(76.427 14.284)"/><line class="g" x1="12.224" transform="translate(858.663 168.828)"/><circle class="h" cx="3.629" cy="3.629" r="3.629" transform="translate(851.394 164.947)"/><ellipse class="i" cx="1.02" cy="6.282" rx="1.02" ry="6.282" transform="translate(877.674 160.024)"/><g transform="translate(980.084 230.368)"><path class="b" d="M932.191,270.134c1.042-7.3,2.489-23.572-3.618-36.925a40.5,40.5,0,0,0-20.151-20.425,32.01,32.01,0,0,0-14.362-2.631l11.413,18.353a20.7,20.7,0,0,1,6.874,5.306c1.568,1.875,3.793,5.263,5.109,14.932a83.713,83.713,0,0,1,.263,20.217Q924.955,269.537,932.191,270.134Z" transform="translate(-894.06 -210.121)"/><path class="j" d="M928.239,281.23c.285-.471,2.807-4.769.625-9.165-.3-.592-2.116-4.254-5.953-4.769-3.651-.493-6.765,2.171-8.113,4.627a9.153,9.153,0,0,0,.066,8.321" transform="translate(-892.158 -204.618)"/><ellipse class="h" cx="2.324" cy="10.821" rx="2.324" ry="10.821" transform="translate(19.658 62.578) rotate(-87.616)"/><path class="k" d="M916.08,255.843a113.52,113.52,0,0,1,14.834.7" transform="translate(-891.938 -205.719)"/><path class="k" d="M915.7,247.935a108.736,108.736,0,0,1,15.185.68" transform="translate(-891.975 -206.484)"/><path class="k" d="M914.76,241.546a99.83,99.83,0,0,1,15.086-.976" transform="translate(-892.065 -207.187)"/><path class="k" d="M913.16,236.129A110.814,110.814,0,0,1,927.6,233.07" transform="translate(-892.22 -207.91)"/><path class="k" d="M909.98,231.364a111.075,111.075,0,0,1,13.661-5.734" transform="translate(-892.526 -208.627)"/><path class="k" d="M917.382,218.52a77.836,77.836,0,0,0-11.852,9.769" transform="translate(-892.955 -209.312)"/></g><ellipse class="i" cx="0.592" cy="2.16" rx="0.592" ry="2.16" transform="translate(871.49 166.855)"/><path class="a" d="M918.729,168.178h-3.4V142.94h3.4a4.314,4.314,0,0,1,4.32,4.32v16.61A4.319,4.319,0,0,1,918.729,168.178Z" transform="translate(88.074 13.773)"/><path class="a" d="M924.893,160.859H922.36V148.24h2.533a3.21,3.21,0,0,1,3.212,3.212v6.194A3.2,3.2,0,0,1,924.893,160.859Z" transform="translate(88.751 14.284)"/><line class="g" x2="12.224" transform="translate(1016.867 168.828)"/><circle class="h" cx="3.629" cy="3.629" r="3.629" transform="translate(1029.091 164.947)"/><ellipse class="i" cx="1.02" cy="6.282" rx="1.02" ry="6.282" transform="translate(1008.041 160.024)"/><ellipse class="i" cx="0.592" cy="2.16" rx="0.592" ry="2.16" transform="translate(1015.08 166.855)"/><path class="a" d="M833.416,281.253c-.395-.592-18.265-23.572-12.97-61.286,0,0,9.089-17.9,44.446-17.114s44.15,16.719,44.15,16.719,6.161,25.929-8.508,61.681Z" transform="translate(78.837 19.544)"/><path class="a" d="M891.21,210.695s10.328-3.793,15.831,5.833-5.7,20.041-5.7,20.041Z" transform="translate(85.75 20.231)"/><path class="o" d="M839.441,265.536a97.763,97.763,0,0,1-4.517-39.874,13.456,13.456,0,0,1,2.938-7.378c3.837-4.7,12.509-11.753,29.766-11.281,13.014.351,21.083,4.177,25.885,7.872a18.044,18.044,0,0,1,6.951,13,123.163,123.163,0,0,1-3.1,35.96A17.41,17.41,0,0,1,880.379,277.3H855.941A17.392,17.392,0,0,1,839.441,265.536Z" transform="translate(80.289 19.944)"/><g transform="translate(863.819 230.368)"><path class="b" d="M791.242,270.134c-1.042-7.3-2.489-23.572,3.618-36.925a40.5,40.5,0,0,1,20.151-20.425,32.01,32.01,0,0,1,14.362-2.631l-11.413,18.353a20.7,20.7,0,0,0-6.874,5.306c-1.568,1.875-3.793,5.263-5.109,14.932a83.712,83.712,0,0,0-.263,20.217Q798.478,269.537,791.242,270.134Z" transform="translate(-787.792 -210.121)"/><path class="j" d="M793.162,281.23c-.285-.471-2.807-4.769-.625-9.165.3-.592,2.116-4.254,5.953-4.769,3.651-.493,6.764,2.171,8.113,4.627a9.152,9.152,0,0,1-.066,8.321" transform="translate(-787.662 -204.618)"/><ellipse class="h" cx="10.821" cy="2.324" rx="10.821" ry="2.324" transform="translate(0 58.839) rotate(-2.384)"/><path class="k" d="M790.38,256.545a113.71,113.71,0,0,1,14.834-.7" transform="translate(-787.785 -205.719)"/><path class="k" d="M790.44,248.6a110.426,110.426,0,0,1,15.184-.68" transform="translate(-787.779 -206.484)"/><path class="k" d="M791.48,240.57a99.831,99.831,0,0,1,15.086.976" transform="translate(-787.679 -207.187)"/><path class="k" d="M793.66,233.07a110.059,110.059,0,0,1,14.439,3.059" transform="translate(-787.469 -207.91)"/><path class="k" d="M797.55,225.63a110.362,110.362,0,0,1,13.661,5.734" transform="translate(-787.094 -208.627)"/><path class="k" d="M815.5,228.289a77.841,77.841,0,0,0-11.852-9.769" transform="translate(-786.506 -209.312)"/></g><path class="b" d="M852.79,303.02c-.2.592,7.072,25.534,7.072,25.534s3.925,3.925,9.034,0L874,303.02Z" transform="translate(82.047 29.198)"/><path class="b" d="M844.73,345.384c0-11.72,9.144-21.215,20.436-21.215s20.436,9.494,20.436,21.215Z" transform="translate(81.271 31.236)"/><path class="a" d="M820.048,234.988s-8.267-6.885-6.107-14.932,10.613-10.613,16.7-9.823S820.048,234.988,820.048,234.988Z" transform="translate(78.27 20.244)"/><path class="a" d="M897.757,279.864a28.918,28.918,0,0,1-.263,3.925c-1.984,15-15.272,26.587-31.356,26.587s-29.36-11.588-31.345-26.587a28.9,28.9,0,0,1-.263-3.925,29.455,29.455,0,0,1,.515-5.5h62.2A29.45,29.45,0,0,1,897.757,279.864Z" transform="translate(80.288 26.436)"/><path class="o" d="M903.5,279.074a4.716,4.716,0,0,1-4.714,4.714H833.434a4.714,4.714,0,0,1,0-9.429h65.354A4.714,4.714,0,0,1,903.5,279.074Z" transform="translate(79.729 26.436)"/><g transform="translate(359.602 30.863)"><path class="s" d="M339.467,58.012h0a.3.3,0,0,1-.175-.384l.241-.658.559.208-.241.658A.292.292,0,0,1,339.467,58.012Z" transform="translate(-327.034 -25.373)"/><path class="s" d="M342.287,59.052h0a.3.3,0,0,1-.175-.384s.219-.6.241-.658.548.208.548.208l-.241.647A.275.275,0,0,1,342.287,59.052Z" transform="translate(-326.763 -25.273)"/><path class="t" d="M339.417,57.923h0a.3.3,0,0,1-.175-.384l.263-.713a.3.3,0,0,1,.384-.175h0a.3.3,0,0,1,.175.384l-.263.713A.305.305,0,0,1,339.417,57.923Z" transform="translate(-327.039 -25.405)"/><path class="t" d="M342.227,58.953h0a.3.3,0,0,1-.175-.384l.263-.713a.3.3,0,0,1,.384-.175h0a.3.3,0,0,1,.175.384l-.263.713A.292.292,0,0,1,342.227,58.953Z" transform="translate(-326.768 -25.306)"/><rect class="u" width="1.941" height="1.261" transform="matrix(0.938, 0.346, -0.346, 0.938, 11.625, 39.356)"/><rect class="u" width="1.941" height="1.261" transform="matrix(0.938, 0.346, -0.346, 0.938, 12.459, 37.275)"/><path class="v" d="M429.041,102.089H330.478a2.19,2.19,0,0,1-2.368-2.16v-1.48L338.9,78.518a3.434,3.434,0,0,1,3.081-1.908h75.429c1.4,0,4.506,2.774,5.142,4.035l8.9,18.145v.647A2.363,2.363,0,0,1,429.041,102.089Z" transform="translate(-328.11 -23.481)"/><path class="w" d="M429.05,100.189H330.488c-1.1,0-2.894-.965-2.215-2.138l10.646-21.434A3.434,3.434,0,0,1,342,74.71h75.429a3.726,3.726,0,0,1,3.322,2.05l10.536,21.083C432,99.181,430.245,100.189,429.05,100.189Z" transform="translate(-328.109 -23.664)"/><path class="w" d="M415.7,79.152H340.889A2.95,2.95,0,0,1,337.94,76.2V31.1a2.95,2.95,0,0,1,2.949-2.949H415.7a2.95,2.95,0,0,1,2.949,2.949V76.2A2.936,2.936,0,0,1,415.7,79.152Z" transform="translate(-327.163 -28.15)"/><rect class="v" width="74.486" height="44.194" transform="translate(13.88 2.785)"/><path class="v" d="M390.858,97.888H361.816a.52.52,0,0,1-.515-.6l1.228-7.653a.849.849,0,0,1,.844-.713h26.192a.735.735,0,0,1,.735.636l1.118,7.7A.562.562,0,0,1,390.858,97.888Z" transform="translate(-324.913 -22.294)"/><path class="x" d="M417.9,88.4H338.985c-.877,0-1.546-.34-1.4-.713l3.333-8.935c.175-.482,1.151-.833,2.28-.833H414.37c1.009,0,1.864.318,2.006.746l3.048,8.979C419.545,88.05,418.833,88.4,417.9,88.4Z" transform="translate(-327.199 -23.354)"/><g transform="translate(10.163 52.57)"><rect class="w" width="82.292" height="0.417" transform="translate(0 3.541)"/><rect class="w" width="82.292" height="0.417" transform="translate(0 5.613)"/><rect class="w" width="82.292" height="0.417" transform="translate(0 8.113)"/><rect class="w" width="82.292" height="0.417" transform="translate(0 10.393)"/><rect class="w" width="0.625" height="13.715" transform="translate(9.95 0.222) rotate(17.44)"/><rect class="w" width="0.625" height="13.715" transform="translate(15.98 0.223) rotate(17.44)"/><rect class="w" width="0.625" height="13.715" transform="translate(20.76 0.224) rotate(17.44)"/><rect class="w" width="0.625" height="13.715" transform="translate(25.54 0.224) rotate(17.44)"/><rect class="w" width="0.625" height="13.715" transform="translate(30.518 0.221) rotate(17.44)"/><rect class="w" width="0.625" height="13.715" transform="translate(35.599 0.051) rotate(10.976)"/><rect class="w" width="0.625" height="13.715" transform="translate(39.896)"/><rect class="w" width="0.625" height="13.715" transform="translate(72.122 0.404) rotate(-17.44)"/><rect class="w" width="0.625" height="13.715" transform="translate(66.311 0.401) rotate(-17.44)"/><rect class="w" width="0.625" height="13.715" transform="translate(60.49 0.402) rotate(-17.44)"/><rect class="w" width="0.625" height="13.715" transform="translate(54.668 0.403) rotate(-17.44)"/><rect class="w" width="0.625" height="13.715" transform="translate(48.858 0.401) rotate(-17.44)"/><rect class="w" width="0.625" height="13.715" transform="translate(43.036 0.402) rotate(-17.44)"/></g></g><g transform="translate(382.275 37.649)"><path class="y" d="M351.13,37.32V66.976h45.027" transform="translate(-348.565 -34.053)"/><path class="z" d="M351.355,34.34a16.449,16.449,0,0,1-2.565,4.616l2.565-.932,2.565.932A16.45,16.45,0,0,1,351.355,34.34Z" transform="translate(-348.79 -34.34)"/><g transform="translate(46.233 30.358)"><path class="z" d="M395.576,64.6a16.45,16.45,0,0,0-4.616,2.565l.932-2.565-.932-2.565A16.329,16.329,0,0,0,395.576,64.6Z" transform="translate(-390.96 -62.03)"/></g></g><path class="aa" d="M359.77,61.493c.318-.943,6.622-12.937,6.622-12.937l8.837,11.994,9.155-13.573,4.1,4.1,4.418-6.315L405.521,43.5l.943-6.622" transform="translate(34.543 3.554)"/><path class="ab" d="M358.9,46.907l8.212,15.777L379.577,40.91,401.5,46.589" transform="translate(34.459 3.942)"/><path class="b" d="M424.975,121.737c.921.943.987,1.875,1.535,1.9.987.033,1.129-3.026,2.62-3.344,1.151-.241,2.62,1.25,3.158,2.62a3.462,3.462,0,0,1,.274,1.535,4,4,0,0,1-1.809,2.883,3.533,3.533,0,0,1,2.346,1.085c1.217,1.37.855,3.6-.088,4.879a4.969,4.969,0,0,1-6.052,1.173c-.011.252-.241,3.158-1.9,3.695-.395.132-.822.11-1.9-.274-2.719-.965-4.418-1.579-4.78-3.07-.34-1.392.625-3.059,2.171-4.243a7.1,7.1,0,0,1-1.984-3.245c-.735-2.686.121-6.381,2.258-7.039C422.191,119.873,423.978,120.717,424.975,121.737Z" transform="translate(40.184 11.58)"/><g transform="translate(310.847 226.222)"><line class="ac" x2="64.488" transform="translate(0 15.097)"/><g transform="translate(56.506)"><path class="b" d="M362.326,221.437c-9.023,3.344-20.206,9.056-27.146,15.108l5.46-15.108-5.46-15.1C342.12,212.392,353.314,218.093,362.326,221.437Z" transform="translate(-335.18 -206.34)"/></g></g><g transform="translate(734.566 226.222)"><line class="ac" x2="64.499" transform="translate(0 15.097)"/><g transform="translate(56.517)"><path class="b" d="M748.816,221.437c-9.023,3.344-20.206,9.056-27.146,15.108l5.46-15.108-5.46-15.1C728.61,212.392,739.8,218.093,748.816,221.437Z" transform="translate(-721.67 -206.34)"/></g></g><path class="ad" d="M849.92,158.53l4.2,5.317,4.714-2.072,4.188,2.949L868,160.3l4.977,4.429,4.451-6.194" transform="translate(81.771 15.275)"/><path class="ae" d="M20.272,215.677c-.888,6.052.592,11.139,4.254,12.871,5.3,2.511,13.156-2.993,17.553-12.268s3.662-18.846-1.634-21.357c-3.366-1.59-7.773.044-11.665,3.848" transform="translate(1.806 18.724)"/><path class="af" d="M149.82,233.092c2.39,5.35,10.942,6.732,19.088,3.081s12.816-10.942,10.426-16.292a7.528,7.528,0,0,0-2.434-2.971" transform="translate(14.313 20.901)"/><path class="ag" d="M21.14,222.41v2.763l2.456-2.149Z" transform="translate(1.914 21.431)"/><path class="ag" d="M41.559,197.851l.329-2.741-2.708,1.842Z" transform="translate(3.652 18.8)"/><path class="b" d="M730.59,68.954c7.346.669,23.67,1.294,36.7-5.493,6.381-3.322,15.031-9.823,19.384-21.16a32.173,32.173,0,0,0,1.908-14.472c-5.92,4.111-9.264,2.467-15.185,6.578-.8,1.9-5.811,9.4-8.486,11.874-1.8,1.655-4.1,5.065-13.682,6.863a83.722,83.722,0,0,1-20.184,1.283Q730.826,61.713,730.59,68.954Z" transform="translate(70.273 2.682)"/><path class="j" d="M715.38,65.532c.493.263,4.912,2.565,9.188.164.57-.318,4.133-2.324,4.462-6.194.307-3.673-2.511-6.644-5.021-7.861-4-1.952-7.85.219-8.31.482" transform="translate(68.808 4.898)"/><ellipse class="h" cx="2.324" cy="10.821" rx="2.324" ry="10.821" transform="translate(797.421 53.387) rotate(-0.517)"/><path class="k" d="M738.96,52.14A112.139,112.139,0,0,1,739,67" transform="translate(71.08 5.024)"/><path class="k" d="M746.84,51.37a108.666,108.666,0,0,1,.1,15.2" transform="translate(71.839 4.95)"/><path class="k" d="M753.25,50.1a99.431,99.431,0,0,1,1.743,15.009" transform="translate(72.457 4.828)"/><path class="k" d="M762.662,62.488A63.685,63.685,0,0,0,757.63,48.17" transform="translate(72.879 4.642)"/><path class="k" d="M770.145,58.187a66.473,66.473,0,0,0-7.9-13.847" transform="translate(73.323 4.273)"/><path class="n" d="M787.545,49.629s-10.295.833-15.831-5.405-3.4-14.231.614-18.879S787.545,49.629,787.545,49.629Z" transform="translate(73.913 2.394)"/><path class="ag" d="M149.712,230.08l-1.052,2.555,3.1-1.063Z" transform="translate(14.201 22.17)"/><path class="ag" d="M174.64,216.92l.186,2.752,2.313-2.324Z" transform="translate(16.704 20.902)"/><path class="b" d="M801.245,95.22a3.875,3.875,0,0,1,2.642,3.048,3.989,3.989,0,0,1-1.623,3.793,4.076,4.076,0,0,1-2.028.746,3.015,3.015,0,0,1-.274,1.7,3.729,3.729,0,0,1-3.114,1.765,3.92,3.92,0,0,1-2.237-.68,3.756,3.756,0,0,1-1.7.877c-.252.055-2.006.417-2.642-.537a1.611,1.611,0,0,1-.208-1.085,3.9,3.9,0,0,1-2.511,1.02,3.583,3.583,0,0,1-3.114-1.7,3.092,3.092,0,0,1-.132-2.237,3.015,3.015,0,0,1-1.9-1.765,3.333,3.333,0,0,1,.954-3.048,4.354,4.354,0,0,1,1.831-1.283,3.286,3.286,0,0,1,5.9-1.82c1.469-1.579,3.464-2.039,4.747-1.283a2.93,2.93,0,0,1,1.217,1.557,3.063,3.063,0,0,1,2.708-.406A2.777,2.777,0,0,1,801.245,95.22Z" transform="translate(75.256 8.901)"/><path class="b" d="M911.275,96.34a3.874,3.874,0,0,1,2.642,3.048,3.988,3.988,0,0,1-1.623,3.793,4.076,4.076,0,0,1-2.028.746,3.015,3.015,0,0,1-.274,1.7,3.729,3.729,0,0,1-3.114,1.765,3.919,3.919,0,0,1-2.237-.68,3.756,3.756,0,0,1-1.7.877c-.252.055-2.006.417-2.642-.537a1.611,1.611,0,0,1-.208-1.085,3.9,3.9,0,0,1-2.511,1.02,3.583,3.583,0,0,1-3.114-1.7,3.093,3.093,0,0,1-.132-2.237,3.015,3.015,0,0,1-1.9-1.765,3.333,3.333,0,0,1,.954-3.048,4.354,4.354,0,0,1,1.831-1.283,3.286,3.286,0,0,1,5.9-1.82c1.469-1.579,3.464-2.039,4.747-1.283a2.931,2.931,0,0,1,1.217,1.557A3.063,3.063,0,0,1,909.795,95,2.819,2.819,0,0,1,911.275,96.34Z" transform="translate(85.858 9.009)"/><path class="n" d="M771.92,25.793s6.9-6.151,15.568-4.539c9.33,1.743,10.975,3.695,10.975,3.695L784.2,46.59Z" transform="translate(74.256 2.022)"/><path class="ah" d="M765.682,71.475s-19.077,7.828-28.516-10.24S742.5,28.311,752.548,27.84" transform="translate(70.615 2.683)"/><path class="z" d="M750.2,25.18c.2.1,3.684,2.84,3.684,2.84l-3.728,2.533Z" transform="translate(72.159 2.426)"/><path class="z" d="M760.8,65.7c.219-.022,4.627.537,4.627.537l-1.886,4.089Z" transform="translate(73.184 6.331)"/><path class="m" d="M969.834,62.308a4.574,4.574,0,0,1-.022.548H932.58C938.851,54.579,948.9,41.565,955.2,33.43A35.923,35.923,0,0,1,969.834,62.308Z" transform="translate(89.736 3.221)"/><path class="l" d="M958.425,34.088c-6.293,8.135-16.347,21.149-22.618,29.426H899.222a4.574,4.574,0,0,1-.022-.548c0-20.019,16.522-36.246,36.936-36.246A37.044,37.044,0,0,1,958.425,34.088Z" transform="translate(86.52 2.575)"/><circle class="n" cx="3.278" cy="3.278" r="3.278" transform="translate(1018.281 62.799)"/><path class="n" d="M931.89,60.247l12.849-17.1,2.467-.954-.274,2.324-12.86,16.818Z" transform="translate(89.669 4.065)"/><path class="ai" d="M902.2,57.085c.406-.132,6.019,0,6.019,0" transform="translate(86.809 5.495)"/><path class="ai" d="M903.49,50.8c.428-.044,5.887,1.25,5.887,1.25" transform="translate(86.933 4.895)"/><path class="ai" d="M906.35,44.31c.428.044,5.5,2.434,5.5,2.434" transform="translate(87.209 4.27)"/><path class="ai" d="M910.02,39.05c.406.153,4.7,3.76,4.7,3.76" transform="translate(87.562 3.763)"/><path class="ai" d="M914.74,35.06c.373.208,4.046,4.462,4.046,4.462" transform="translate(88.017 3.378)"/><path class="ai" d="M919.83,31.71c.307.307,2.7,5.372,2.7,5.372" transform="translate(88.507 3.056)"/><path class="ai" d="M925.61,29.54c.241.362,1.612,5.8,1.612,5.8" transform="translate(89.064 2.847)"/><path class="ai" d="M932.35,28.83c.154.406.23,6.008.23,6.008" transform="translate(89.714 2.778)"/><path class="ai" d="M938.372,29.45c.1.417-.592,5.986-.592,5.986" transform="translate(90.237 2.838)"/><path class="ai" d="M945.245,31.19c-.044.428-2.445,5.493-2.445,5.493" transform="translate(90.721 3.006)"/><path class="ai" d="M951.16,34.61c-.121.417-3.41,4.956-3.41,4.956" transform="translate(91.198 3.335)"/><path class="ai" d="M956.279,40.2c-.208.373-4.429,4.067-4.429,4.067" transform="translate(91.593 3.874)"/><path class="ai" d="M960,45.18c-.285.329-5.142,3.136-5.142,3.136" transform="translate(91.883 4.354)"/><path class="ai" d="M962.473,51c-.351.252-5.723,1.864-5.723,1.864" transform="translate(92.065 4.914)"/><path class="ai" d="M963.718,57.25c-.406.153-6.008.252-6.008.252" transform="translate(92.157 5.517)"/><text class="aj" transform="translate(1013.245 80.105)"><tspan x="0" y="0">kph</tspan></text></g></svg>