<svg xmlns="http://www.w3.org/2000/svg" width="465.754" height="338.675" viewBox="0 0 465.754 338.675"><defs><style>.a{fill:#47a8a8;}.b,.c,.d,.e,.f{fill:none;stroke:#47a8a8;stroke-miterlimit:10;}.b{stroke-width:1.171px;}.c{stroke-width:0.881px;}.d{stroke-width:0.585px;}.e{stroke-width:0.293px;}.f{stroke-width:0.493px;}</style></defs><g transform="translate(-479 -328)"><g transform="translate(479 327.997)"><rect class="a" width="234.07" height="15.68" transform="translate(15.68 104.608) rotate(90)"/><rect class="a" width="4.83" height="9.36" transform="translate(0 110.44)"/><rect class="a" width="165.88" height="8.41" transform="translate(49.41 109.02)"/><rect class="a" width="147.83" height="8.41" transform="translate(244.7 109.02)"/><rect class="a" width="8.41" height="134.97" transform="translate(96.5 113.22)"/><rect class="a" width="14.54" height="87.8" transform="translate(377.99 160.39)"/><rect class="a" width="14.54" height="13.07" transform="translate(377.99 115.96)"/><rect class="a" width="4.21" height="242.33" transform="translate(186.46 5.86)"/><rect class="a" width="4.21" height="108.18" transform="translate(274.45 5.86)"/><rect class="a" width="4.21" height="91.91" transform="translate(186.466 10.062) rotate(-90)"/><rect class="a" width="4.21" height="91.39" transform="translate(265.53 150.79)"/><rect class="a" width="22.45" height="15.44" transform="translate(15.68 234.47)"/><rect class="a" width="47.79" height="15.44" transform="translate(74.4 234.47)"/><rect class="a" width="234.09" height="15.44" transform="translate(158.45 234.47)"/><line class="b" x2="29.41" transform="translate(215.29 109.63)"/><line class="b" x2="29.41" transform="translate(215.29 116.83)"/><line class="b" x2="29.41" transform="translate(20 109.63)"/><line class="b" x2="29.41" transform="translate(20 116.83)"/><path class="a" d="M73.23,235.64v13.1H39.31v-13.1H73.23m1.17-1.17H38.14v15.44H74.4V234.47Z"/><line class="b" x2="35.04" transform="translate(38.71 240.35)"/><line class="b" x2="35.04" transform="translate(38.71 244.1)"/><path class="a" d="M157.28,235.64v13.1H123.35v-13.1h33.93m1.17-1.17H122.18v15.44h36.27V234.47Z"/><line class="b" x2="35.04" transform="translate(122.76 240.35)"/><line class="b" x2="35.04" transform="translate(122.76 244.1)"/><path class="b" d="M373.09,235.86V224.09H353.65v15.36"/><path class="c" d="M353.65,228.98V201.23H293.54v34.14"/><path class="b" d="M275.49,236.84v-13.4h18.05"/><line class="d" x1="369.67" transform="translate(9.47 215.27)"/><line class="d" y2="124.71" transform="translate(276.55 115.39)"/><path class="d" d="M265.53,150.79h-17.4v88.5"/><path class="d" d="M103.73,166.43h19.03v70.41"/><circle class="d" cx="5.76" cy="5.76" r="5.76" transform="translate(108.1 183.26)"/><circle class="d" cx="5.76" cy="5.76" r="5.76" transform="translate(108.1 201.23)"/><rect class="d" width="11.27" height="19.36" transform="translate(215.891 16.151) rotate(90)"/><rect class="e" width="2.08" height="5.76" transform="translate(208.845 13.886) rotate(90)"/><rect class="d" width="11.27" height="19.36" transform="translate(241.496 16.146) rotate(90)"/><rect class="e" width="2.08" height="5.76" transform="translate(234.451 13.881) rotate(90)"/><rect class="d" width="11.27" height="19.36" transform="translate(267.101 16.151) rotate(90)"/><rect class="e" width="2.08" height="5.76" transform="translate(260.056 13.886) rotate(90)"/><rect class="d" width="11.27" height="19.36" transform="translate(215.893 39.184) rotate(90)"/><rect class="e" width="2.08" height="5.76" transform="translate(208.848 36.918) rotate(90)"/><rect class="d" width="11.27" height="19.36" transform="translate(241.498 39.179) rotate(90)"/><rect class="e" width="2.08" height="5.76" transform="translate(234.453 36.913) rotate(90)"/><rect class="d" width="11.27" height="19.36" transform="translate(267.104 39.183) rotate(90)"/><rect class="e" width="2.08" height="5.76" transform="translate(260.058 36.918) rotate(90)"/><rect class="d" width="11.27" height="19.36" transform="translate(215.896 62.216) rotate(90)"/><rect class="f" width="71.23" height="31.53" transform="translate(63.976 265.418) rotate(90)"/><rect class="f" width="71.23" height="31.53" transform="translate(105.936 265.427) rotate(90)"/><rect class="f" width="71.23" height="31.53" transform="translate(147.897 265.426) rotate(90)"/><rect class="f" width="71.23" height="31.53" transform="translate(189.858 265.426) rotate(90)"/><rect class="e" width="2.08" height="5.76" transform="translate(208.85 59.95) rotate(90)"/><rect class="d" width="11.27" height="19.36" transform="translate(241.501 62.211) rotate(90)"/><rect class="e" width="2.08" height="5.76" transform="translate(234.455 59.945) rotate(90)"/><rect class="d" width="11.27" height="19.36" transform="translate(267.106 62.216) rotate(90)"/><rect class="e" width="2.08" height="5.76" transform="translate(260.06 59.95) rotate(90)"/><path class="a" d="M461.9.01c-12.37,1.47-22.96,9.28-30.01,19.29-8.11,11.53-11.35,25.73-12.98,39.51-3.24,27.39-1.33,59.2,20.29,79.17,4.4,4.07,10.1,8.31,16.42,8.12,5.81-.18,9.47-4.77,10.04-10.25.58-5.56-1.53-12.15-5.81-15.87-4.77-4.14-11.62-3.74-17.15-1.47-6.44,2.65-11.41,7.76-17.33,11.31-6.2,3.72-13.23,5.74-20.27,7.14-7.45,1.48-15.02,2.48-22.54,3.54-8.03,1.13-16.09,2.12-24.19,2.65a158.9,158.9,0,0,1-23.9-.08,150.746,150.746,0,0,1-23.75-4.23c-15.67-3.91-31.21-8.35-46.8-12.56q-5.76-1.56-11.51-3.11c-.07.49-.13.98-.2,1.47l12.13-.36c.8-.02,1.07-1.35.2-1.47q-6.285-.885-12.57-1.78c-.56-.08-1.29.51-.85,1.1a21.018,21.018,0,0,1,3.96,9.55c.14.95,1.59.55,1.45-.4a21.788,21.788,0,0,0-4.11-9.91c-.28.37-.56.73-.85,1.1q6.285.885,12.57,1.78c.07-.49.13-.98.2-1.47l-12.13.36a.752.752,0,0,0-.2,1.47q22.545,6.075,45.09,12.16c7.38,1.99,14.75,4.03,22.24,5.56a133.312,133.312,0,0,0,22.44,2.64c15.1.47,30.16-1.42,45.07-3.6,13.39-1.96,27.85-3.27,39.65-10.5,5.73-3.51,10.64-8.57,16.96-11.08,5.97-2.37,13.23-2.25,17.3,3.39,3.19,4.43,4.77,11.23,2.42,16.37a8.419,8.419,0,0,1-6.29,4.89c-3.13.53-6.38-.56-9.12-2.01-5.54-2.92-10.26-7.79-14.02-12.74a66.954,66.954,0,0,1-9.08-16.54c-5.17-13.59-6.13-28.36-5.29-42.77.81-13.89,2.67-28.29,8.51-41.06C433,18.16,441.71,8.12,453.37,3.6a34.876,34.876,0,0,1,8.53-2.14c.95-.07.96-1.57,0-1.45Z"/></g></g></svg>