<svg xmlns="http://www.w3.org/2000/svg" width="900" height="168.53" viewBox="0 0 900 168.53"><defs><style>.a{fill:#acc0cc;}.b{fill:#99aab5;}.c{fill:#ebe2d8;}.d{fill:#c6ddeb;}.e{fill:#bfd5e2;}.f{fill:#85b2cc;}.g{fill:#94c6e3;}.h{fill:#7ea9c2;}</style></defs><g transform="translate(-258.465 -333.243)"><g transform="translate(260.317 338.039)"><path class="a" d="M416.179,365.843l-26.515,58.544-52.032,76.555-.1.14-62.229-81.688-14.74-54.658,78.075-27.388,20.272,7.452-.066,10.623,27.29,10.926.071-11.518Z" transform="translate(-259.963 -337.348)"/><path class="b" d="M405.078,365.843l-26.515,58.544L326.53,500.942l1.009-163.594,20.272,7.452-.066,10.623,27.29,10.926.071-11.518Z" transform="translate(-248.862 -337.348)"/><path class="c" d="M350.518,383.015l28.39-12.466-1.494,36.921-34.645-.214Z" transform="translate(-246.129 -331.761)"/><g transform="translate(0 27.386)"><path class="d" d="M375.589,374.7l.147,20.938-2.63-3.2-4.311,6.237-3.569-2.547-5.435,6.886-.7-21.076-31.922,14.021-.72,101.017,78.039-37.386.6-97.855Z" transform="translate(-248.876 -360.629)"/><path class="e" d="M309.48,382.98l-.072,11.634-27.272-13.142.067-10.907-21.549-9.776-.3,48.005-.308,50,77.571,38.346.624-101.15Z" transform="translate(-260.05 -360.789)"/></g></g><path class="f" d="M338.421,415.345l80.4-37.381.1-15.649-80-29.071-80.343,27.4-.119,19.278Z" transform="translate(0 0)"/><path class="g" d="M258.567,360.645l80.784,36.107,79.554-34.438-80-29.071Z" transform="translate(0.017 0)"/><path class="h" d="M338.421,411.4l.947-18.592L258.584,356.7l-.119,19.278Z" transform="translate(0 3.947)"/><g transform="translate(445.202 338.039)"><path class="a" d="M574.432,365.843l-26.515,58.544-52.032,76.555-.1.14-62.229-81.688-14.74-54.658,78.075-27.388,20.272,7.452-.066,10.623,27.29,10.926.071-11.518Z" transform="translate(-418.217 -337.348)"/><path class="b" d="M563.331,365.843l-26.515,58.544-52.032,76.555,1.009-163.594,20.272,7.452L506,355.423l27.29,10.926.071-11.518Z" transform="translate(-407.116 -337.348)"/><path class="c" d="M508.772,383.015l28.39-12.466-1.494,36.921-34.644-.214Z" transform="translate(-404.383 -331.761)"/><g transform="translate(0 27.386)"><path class="d" d="M533.843,374.7l.147,20.938-2.63-3.2-4.312,6.237-3.569-2.547-5.435,6.886-.7-21.076L485.42,395.961,484.7,496.978l78.038-37.386.6-97.855Z" transform="translate(-407.13 -360.629)"/><path class="e" d="M467.734,382.98l-.072,11.634L440.39,381.472l.067-10.907-21.55-9.776-.3,48.005-.308,50,77.571,38.346.624-101.15Z" transform="translate(-418.303 -360.789)"/></g></g><path class="f" d="M496.675,415.345l80.4-37.381.1-15.649-79.995-29.071-80.343,27.4-.119,19.278Z" transform="translate(26.632 0)"/><path class="g" d="M416.821,360.645,497.6,396.752l79.554-34.438-80-29.071Z" transform="translate(26.649 0)"/><path class="h" d="M496.675,411.4l.947-18.592L416.838,356.7l-.119,19.278Z" transform="translate(26.632 3.947)"/><g transform="translate(630.088 338.039)"><path class="a" d="M732.686,365.843,706.17,424.387l-52.032,76.555-.1.14-62.229-81.688-14.74-54.658,78.075-27.388L675.42,344.8l-.066,10.623,27.29,10.926.071-11.518Z" transform="translate(-576.47 -337.348)"/><path class="b" d="M721.585,365.843l-26.515,58.544-52.032,76.555,1.009-163.594,20.272,7.452-.066,10.623,27.29,10.926.071-11.518Z" transform="translate(-565.369 -337.348)"/><path class="c" d="M667.025,383.015l28.39-12.466-1.494,36.921-34.645-.214Z" transform="translate(-562.636 -331.761)"/><g transform="translate(0 27.386)"><path class="d" d="M692.1,374.7l.147,20.938-2.63-3.2-4.312,6.237-3.568-2.547-5.435,6.886-.7-21.076-31.922,14.021-.72,101.017,78.039-37.386.6-97.855Z" transform="translate(-565.383 -360.629)"/><path class="e" d="M625.987,382.98l-.072,11.634-27.272-13.142.067-10.907-21.549-9.776-.3,48.005-.308,50,77.572,38.346.624-101.15Z" transform="translate(-576.557 -360.789)"/></g></g><path class="f" d="M654.928,415.345l80.405-37.381.1-15.649-79.995-29.071-80.343,27.4-.119,19.278Z" transform="translate(53.265 0)"/><path class="g" d="M575.074,360.645l80.784,36.107,79.554-34.438-79.995-29.071Z" transform="translate(53.282 0)"/><path class="h" d="M654.928,411.4l.947-18.592L575.091,356.7l-.119,19.278Z" transform="translate(53.265 3.947)"/><g transform="translate(814.974 338.039)"><path class="a" d="M890.939,365.843l-26.515,58.544-52.032,76.555-.1.14-62.229-81.688-14.74-54.658L813.4,337.348l20.272,7.452-.066,10.623,27.29,10.926.071-11.518Z" transform="translate(-734.723 -337.348)"/><path class="b" d="M879.838,365.843l-26.515,58.544-52.032,76.555L802.3,337.348l20.272,7.452-.066,10.623,27.29,10.926.071-11.518Z" transform="translate(-723.622 -337.348)"/><path class="c" d="M825.279,383.015l28.39-12.466-1.494,36.921-34.645-.214Z" transform="translate(-720.889 -331.761)"/><g transform="translate(0 27.386)"><path class="d" d="M850.349,374.7l.147,20.938-2.629-3.2-4.312,6.237-3.569-2.547-5.435,6.886-.7-21.076-31.924,14.021-.719,101.017,78.038-37.386.6-97.855Z" transform="translate(-723.636 -360.629)"/><path class="e" d="M784.24,382.98l-.072,11.634L756.9,381.472l.067-10.907-21.549-9.776-.3,48.005-.308,50,77.572,38.346.624-101.15Z" transform="translate(-734.81 -360.789)"/></g></g><path class="f" d="M813.181,415.345l80.4-37.381.1-15.649-80-29.071-80.343,27.4-.119,19.278Z" transform="translate(79.897 0)"/><path class="g" d="M733.327,360.645l80.784,36.107,79.554-34.438-80-29.071Z" transform="translate(79.914 0)"/><path class="h" d="M813.181,411.4l.947-18.592L733.345,356.7l-.119,19.278Z" transform="translate(79.897 3.947)"/><g transform="translate(999.859 338.039)"><path class="a" d="M1049.193,365.843l-26.516,58.544-52.032,76.555-.1.14-62.229-81.688-14.74-54.658,78.075-27.388,20.272,7.452-.066,10.623,27.29,10.926.071-11.518Z" transform="translate(-892.977 -337.348)"/><path class="b" d="M1038.091,365.843l-26.515,58.544-52.032,76.555,1.009-163.594,20.272,7.452-.066,10.623,27.29,10.926.071-11.518Z" transform="translate(-881.876 -337.348)"/><path class="c" d="M983.532,383.015l28.391-12.466-1.494,36.921-34.645-.214Z" transform="translate(-879.143 -331.761)"/><g transform="translate(0 27.386)"><path class="d" d="M1008.6,374.7l.147,20.938-2.63-3.2-4.312,6.237-3.568-2.547-5.436,6.886-.7-21.076-31.922,14.021-.72,101.017,78.039-37.386.6-97.855Z" transform="translate(-881.89 -360.629)"/><path class="e" d="M942.494,382.98l-.072,11.634-27.271-13.142.067-10.907-21.549-9.776-.3,48.005-.308,50,77.571,38.346.624-101.15Z" transform="translate(-893.064 -360.789)"/></g></g><path class="f" d="M971.435,415.345l80.4-37.381.1-15.649-79.995-29.071-80.343,27.4-.119,19.278Z" transform="translate(106.529 0)"/><path class="g" d="M891.581,360.645l80.784,36.107,79.554-34.438-79.995-29.071Z" transform="translate(106.546 0)"/><path class="h" d="M971.435,411.4l.948-18.592L891.6,356.7l-.119,19.278Z" transform="translate(106.529 3.947)"/></g></svg>