<svg xmlns="http://www.w3.org/2000/svg" xmlns:xlink="http://www.w3.org/1999/xlink" width="528" height="366.325" viewBox="0 0 528 366.325"><defs><style>.a,.l{fill:none;}.b{fill:#b6d7db;opacity:0.49;}.c{clip-path:url(#a);}.d{fill:#d19442;}.e,.k{fill:#d8a35d;}.f{fill:#947dce;}.g{fill:#ffc84f;}.h{opacity:0.15;}.i{opacity:0.3;}.j{opacity:0.5;}.k{fill-rule:evenodd;}.l{stroke:#947dce;stroke-miterlimit:10;stroke-width:1.093px;}.m{fill:#9c84d9;}</style><clipPath id="a"><path class="a" d="M557.951,445.837c65.815-52.736,98.722-79.1,129.617-87.682C790.788,329.493,937.43,388.483,969.677,495.4c1.678,5.563,23.792,82.817-19.061,133.43C914.736,671.2,869.6,652.05,737.128,674.574c-141.823,24.115-176.01,60.677-224.924,32.465-46.312-26.711-71.423-91.644-61-143.021C458.96,525.809,492.062,498.631,557.951,445.837Z" transform="translate(-448.865 -350.941)"/></clipPath></defs><g transform="translate(-448.865 -350.941)"><path class="b" d="M557.951,445.837c65.815-52.736,98.722-79.1,129.617-87.682C790.788,329.493,937.43,388.483,969.677,495.4c1.678,5.563,23.792,82.817-19.061,133.43C914.736,671.2,869.6,652.05,737.128,674.574c-141.823,24.115-176.01,60.677-224.924,32.465-46.312-26.711-71.423-91.644-61-143.021C458.96,525.809,492.062,498.631,557.951,445.837Z" transform="translate(0)"/><g transform="translate(448.865 350.941)"><g class="c"><g transform="translate(119.61 44.705)"><path class="d" d="M697.6,437.121s-1.362,15.19,8.007,23.59-21.592,0-21.592,0,5.761-14.549,4.469-23.59S697.6,437.121,697.6,437.121Z" transform="translate(-535.933 -384.276)"/><ellipse class="e" cx="16.381" cy="22.349" rx="16.381" ry="22.349" transform="translate(140.343 14.035)"/><path class="f" d="M816.642,581.206c-.348,5.487-6.022,30.346-13.114,52.443-5.81,18.14-12.592,34.427-18.165,36.68-12.367,4.976-105.746,11.807-124.944,2.65-.447-.337-.934-.7-1.393-1.1-7.2-5.86-15.018-17.431-19.161-28.268,0-.013-11.036-31.118-13.288-37.452-.025-.061-.036-.112-.062-.16-.075-.249-.162-.486-.249-.709-.025-.088-.063-.163-.087-.249-11.622,39.677-102.449,36.792-49.769-73.409,24.8-51.871,69.055-75.536,97.31-81.82,12.231-2.724,21.463-2.19,24.835.722a18.318,18.318,0,0,0,11.434,4.442,24.773,24.773,0,0,0,6.42-.585,31.925,31.925,0,0,0,6.806-2.314c1.045-.485,1.654-.833,1.654-.833a66.431,66.431,0,0,1,17.3,1.033C806.092,464.8,817.215,571.986,816.642,581.206Z" transform="translate(-553.081 -382.209)"/><path class="g" d="M776.311,795.779h-64.37q.13-5.913.289-11.923c.134-5.476.288-10.989.443-16.445.164-5.783.328-11.518.482-17.109.155-5.359.3-10.585.435-15.6.365-14.159.616-26.662.568-35.742-.039-8.6-.347-14.122-1.089-15.065-.279-.357-.568-.289-.876.192-.973,1.523-2.073,7.181-3.277,15.8-.646,4.579-1.311,10-2,16.068-.685,5.938-1.389,12.521-2.121,19.559-.511,4.935-1.031,10.1-1.572,15.441-.607,6.121-1.233,12.454-1.869,18.931-.473,4.743-.945,9.563-1.426,14.43q-.565,5.7-1.128,11.461H627.028c.019-.174.039-.356.068-.53.626-4.463,1.272-9.157,1.936-14.025.79-5.783,1.6-11.808,2.42-17.967.762-5.755,1.541-11.634,2.313-17.533,1.581-12.04,3.152-24.215,4.626-35.772,1.417-11.056,2.738-21.553,3.914-30.816,2.719-21.631,4.57-36.6,4.57-36.6a7.467,7.467,0,0,0,.587.53.193.193,0,0,0,.048.038,8.456,8.456,0,0,0,2.034,1.215,12.647,12.647,0,0,0,3.066.858l6.516.116c4.819.087,11.22.173,18.565.25,5.494.058,11.519.106,17.784.125,1.639.009,3.288.019,4.945.009h.077c4.02.01,8.1.01,12.184-.009,6.419-.03,12.848-.1,19.018-.213,5.755-.106,11.3-.25,16.387-.452q3.311-.145,6.351-.3c.019.009.039,0,.058,0l.5-.028c.51-.03.79-.049.79-.049,1.031-.058,2.024-.125,3-.192s1.909-.125,2.815-.2h.009c.751-.058,1.474-.115,2.179-.183.462-.039.926-.086,1.368-.134.222-.019.444-.039.656-.068s.434-.048.645-.067.425-.048.627-.067.4-.048.607-.077c.289-.028.569-.067.848-.106,1.08-.145,2.054-.289,2.921-.443a20.5,20.5,0,0,0,3.316-.839c.087-.03.173-.067.26-.106a4.021,4.021,0,0,0,.453-.2c.068-.039.135-.077.193-.106s.115-.077.164-.116a1.183,1.183,0,0,0,.26-.222,1.042,1.042,0,0,1-.01.125c0,.077-.009.2-.018.367-.01.212-.019.492-.039.839-.01.231-.019.492-.039.771-.028.53-.058,1.157-.087,1.87-.01.183-.019.367-.03.559a.5.5,0,0,0-.009.116c-.01.27-.028.549-.039.838s-.039.6-.048.906c-.03.569-.058,1.167-.1,1.793-.009.261-.019.531-.039.8q-.029.579-.057,1.186c-.019.27-.03.549-.039.838-.058,1.07-.116,2.2-.184,3.393-.028.6-.057,1.215-.1,1.841s-.058,1.273-.1,1.938c-.048.915-.1,1.86-.145,2.824-.076,1.474-.154,3.017-.24,4.607-.039.8-.088,1.61-.125,2.44-.1,1.889-.2,3.856-.308,5.88-.088,1.455-.155,2.95-.241,4.473-.048.982-.106,1.975-.155,2.978-.115,2.111-.231,4.28-.346,6.5-.222,4.087-.386,8.309-.5,12.637-.434,15.335-.27,31.983.319,48.293.221,5.774.481,11.5.8,17.109s.674,11.124,1.079,16.445Q775.781,790,776.311,795.779Z" transform="translate(-543.819 -355.437)"/><path class="h" d="M618.149,588.738c.025.086.061.162.086.249.088.223.174.46.249.708.025.05.038.1.061.163,2.253,6.333,13.289,37.438,13.289,37.451,4.144,10.836,11.958,22.408,19.161,28.268-4.891-17.705-20.131-69.03-19.547-89.709C628.538,585.8,618.149,588.726,618.149,588.738Z" transform="translate(-545.048 -365.903)"/><path class="h" d="M743.364,525.454S705.3,615.131,787.829,660.949l1.65,1.292,1.254-21.7s-35.923-59.44-35.962-60.9S743.364,525.454,743.364,525.454Z" transform="translate(-528.932 -371.496)"/><path class="h" d="M697.259,458.65c.05,1.481-.733,2.451-3.11,2.128-7.415-1.008-15.789-.8-21.873,1.991a5.169,5.169,0,0,1-5-.212c-3.894-2.277-6.308-9.071-7.266-12.082a2.084,2.084,0,0,1-.1-.659c12.23-2.724,21.462-2.189,24.834.722a18.319,18.319,0,0,0,11.435,4.442A10.1,10.1,0,0,1,697.259,458.65Z" transform="translate(-539.269 -382.209)"/><g class="i" transform="translate(156.104 286.055)"><path d="M691.712,645.186c-.22-.017-.437-.035-.65-.054C691.062,645.132,691.293,645.148,691.712,645.186Z" transform="translate(-691.062 -640.988)"/><path class="j" d="M691.633,645.689c17.331,1.383,55.213-1.067,55.213-1.067,11.131-.641,18.949-1.629,20.321-3.131,0,0,0,.045-.009.129-.082,1.739-1.079,21.649-2.481,47.747a13.11,13.11,0,0,1-1.821-.211c-3.9-.724-6.893-3.141-9.172-6.518a31.516,31.516,0,0,1-3.568-7.449C737.195,650.6,697.185,646.188,691.633,645.689Z" transform="translate(-690.983 -641.492)"/></g><g transform="translate(136.556)"><g transform="translate(3.457 6.231)"><path class="g" d="M686.923,413.01s28.358,15.723,19.942-9.52C701.041,386.023,667.582,401.756,686.923,413.01Z" transform="translate(-676.368 -395.686)"/><path class="g" d="M691.593,406.843s-15.867,9.415-14.336,18.859c0,0-3.5-28.2,12.278-28.906s21.884.814,20.484,30.631C710.019,427.426,705.435,403.708,691.593,406.843Z" transform="translate(-676.927 -395.549)"/></g><path class="g" d="M687.4,397.874s.8-8.786,9.507-7.542,12.443,6.221,13.686,11.2,2.488,8.709,3.733,8.709c0,0-3.733,3.733-4.976,2.489,0,0,3.228,8.949-.874,16.295,0,0-1.614-11.318-7.836-12.562S687.4,397.874,687.4,397.874Z" transform="translate(-672.021 -390.212)"/><path class="g" d="M690.064,396.973s-6.221-3.733-12.442,4.977l-3.733,7.464s1.244,1.244,3.733,0c0,0-1.134,8.767.055,13.715l3.677-14.96Z" transform="translate(-673.89 -389.386)"/></g><path class="h" d="M762.446,616.9s4.514-36.911-95.691-32.281,72.578,29.4,72.578,29.4Z" transform="translate(-542.647 -363.363)"/><g transform="translate(83.322 68.19)"><g transform="translate(0 148.271)"><path class="k" d="M676.067,599.112c-1.145-.486-12.973-8.891-19.653-10.039s-16.72-2.216-20.115-3.477c-4-1.482-5.155.06-.587,2.227,2.968,1.407,9.095,3.709,10.479,3.874.671.08-3.667-.853-8.355-2.214-4.983-1.446-10.365-3.3-10.688-2.421-.624,1.711,13.658,6.788,16.207,7.267a64.887,64.887,0,0,1-6.712-1.352c-3.017-.782-6.438-2.14-7.175-1.558-1.163.914,6.327,4.551,12.644,5.938.1.215-1.993.377-9.386-1.773-.743-.216-2.692-.037-.309,1.3,5.017,2.814,6.967,4.4,14.492,5.222,7.338.806,15.577-.073,20.728,2.116Z" transform="translate(-627.128 -579.715)"/><path class="k" d="M657.682,590.634s-5.227-6.429-11.546-7.916c-3.756-.885-3.592-1.835-4.218-2.171-2.076-1.116-.307,3.041,2.841,4.319,2.559,1.038,3.674,5.637,5.177,6.712s6.087,3.19,7.313,2.665S657.682,590.634,657.682,590.634Z" transform="translate(-625.205 -580.359)"/></g><path class="f" d="M789.343,475.772c21.727,22.736,36.373,43.419,41.453,108.082,2.578,32.807-1.293,65.108-3.964,82.093a20.253,20.253,0,0,1-15.252,16.47c-75.1,18.411-150.064-57.352-150.064-57.352-4.07-1.889,5.541-16.175,5.541-16.175,40.5,2.75,71.417,6.421,102.7,21.352-.158-.09-27.057-61.8-30.044-78.484-7.821-43.737-41.709-83.712-30.873-99.764C712.581,446.441,767.426,452.84,789.343,475.772Z" transform="translate(-622.508 -450.113)"/></g><g transform="translate(100.925 285.835)"><path class="l" d="M642.591,795.806l.848-8.936,1.639-17.158,1.764-18.411,1.725-18.054,1.889-19.712,1.475-15.49,1.446-15.134,1.9-19.838,1.4-14.594.3-3.162.386-4.02" transform="translate(-642.591 -641.299)"/><path class="l" d="M658.781,795.339l.627-6.487,1.619-16.763,1.745-18.045,1.706-17.7,1.947-20.185,1.484-15.365,1.484-15.355,2.15-22.18,1.282-13.341.472-4.82.039-.434" transform="translate(-640.351 -640.832)"/><path class="l" d="M688.679,644.669l-.048.559-.4,5.032-1.089,13.5-1.812,22.324L684.1,701.3l-1.3,16.03-1.571,19.452-1.378,17.052L678.4,771.752,677.112,787.7l-.617,7.644" transform="translate(-637.899 -640.832)"/><line class="l" x2="0.39" y2="38.782" transform="translate(67.93 3.84)"/><path class="l" d="M716.546,795.339l.145-8.01.318-16.888.289-16.069.318-16.994.337-18.16.28-15.481.357-19.307.376-20.213.212-11.577.067-3.759.068-3.538v-.328l.01-.347" transform="translate(-632.357 -640.832)"/><path class="l" d="M733.464,644.567v.077l-.019,2.911-.067,14.324-.01,2.15-.116,21.524-.1,18.893-.077,15.567-.1,18.17-.087,17.273-.077,15.722-.087,16.685-.039,7.49" transform="translate(-630.122 -640.846)"/><path class="l" d="M747.511,644.567l.019,1.08.337,17.63.4,21.062.01.723.337,17.775.308,15.673.328,17.534.318,16.329.308,16.473.318,16.522.193,9.986" transform="translate(-628.071 -640.846)"/></g><path class="l" d="M642.285,659.94s103.337,4.878,130.641,0" transform="translate(-541.708 -352.884)"/><path class="l" d="M711.208,679.317c-36.156,8.19-70.758-4.757-70.758-4.757" transform="translate(-541.962 -350.861)"/><path class="l" d="M702.263,676.59s32.63,9.169,61.291,1.425" transform="translate(-533.408 -350.58)"/><path class="l" d="M638.888,686.913s26.057,13.642,68.38,6.688" transform="translate(-542.178 -349.151)"/><path class="l" d="M637.015,701.625s40.547,12.379,68.507,6.008" transform="translate(-542.437 -347.115)"/><path class="l" d="M635.136,716.24s20.65,16.188,68.53,8.926" transform="translate(-542.697 -345.093)"/><path class="l" d="M632.949,733.051s31.488,16.452,69.451,5.232" transform="translate(-543 -342.766)"/><path class="l" d="M630.916,748.451s22.3,15.832,69.891,6.636" transform="translate(-543.281 -340.635)"/><path class="l" d="M628.79,764.239s30.781,16.091,70.89,3.091" transform="translate(-543.576 -338.45)"/><path class="l" d="M627.714,777.087c-.425-.338-.627-.53-.627-.53" transform="translate(-543.811 -336.746)"/><path class="l" d="M703.566,691.975s13.632,11.256,59.808,2.9" transform="translate(-533.227 -348.451)"/><path class="l" d="M703.881,706.856s19.128,8.919,58.357,1.876" transform="translate(-533.184 -346.391)"/><path class="l" d="M703.061,723.373s29.537,8.9,59.291,0" transform="translate(-533.297 -344.106)"/><path class="l" d="M702.687,737.069s28.714,12.765,60.288,0" transform="translate(-533.349 -342.21)"/><path class="l" d="M702.263,752.107s27.336,9.592,61.563,0" transform="translate(-533.408 -340.129)"/><path class="l" d="M701.876,766.55s23.042,10.338,63.082,0" transform="translate(-533.461 -338.13)"/><path class="h" d="M697.576,472.8c.709,2.325,5.719,10.491,4.171,17.754s-35.172,79.727-49.026,89.09-38.872,20.009-38.872,20.009l68.358-94.574,3.778-32.28S693.145,458.277,697.576,472.8Z" transform="translate(-545.643 -379.676)"/><g transform="translate(128.286 62.152)"><path class="k" d="M682.371,472.576s4.174-7.313,3.266-13.847c-.541-3.883.42-4.077.509-4.793.295-2.378-3,.824-3.05,4.277-.044,2.807-3.995,5.551-4.463,7.37s-.789,6.94.158,7.908S682.371,472.576,682.371,472.576Z" transform="translate(-665.026 -443.659)"/><path class="k" d="M681.367,492.674c.041-1.264,3.664-15.557,2.3-22.309s-4.1-18.46-4.155-22.141c-.061-4.33-1.949-4.863-2.326.26-.245,3.33-.108,11.782.242,13.154a53.46,53.46,0,0,1-1.28-8.657c-.168-2.892-.85-1.749-1.816-1.48-1.784.5-1,5.381-.52,7.972a25.018,25.018,0,0,1-1.3-6.358c-.127-1.472-.838-1.089-1.712-.955s-1.241,1.194-.237,7.69c-.169.17-.435,1.8-1.111-5.995-.068-.783-2.355-2.368-2.441.409-.148,4.87-1.167,4.44.812,11.875,1.93,7.25,5.784,14.735,5.6,20.422Z" transform="translate(-666.625 -444.808)"/></g><path class="m" d="M683.475,476.267a178.765,178.765,0,0,0-64.56,21.789c-17.223,9.87-59.985,34.376-64.56,75.052-.4,3.554-3.43,34.148,15.333,46.806,12.555,8.471,28.344,4.5,32.536,3.45,7.447-1.872,17.414-6.065,56.234-57.519,22.062-29.242,33.358-47.126,41.965-71.016,1.446-4.015,2.521-7.384,3.227-9.684Z" transform="translate(-553.935 -378.303)"/></g></g></g></g></svg>