<svg xmlns="http://www.w3.org/2000/svg" width="369.524" height="500.982" viewBox="0 0 369.524 500.982"><defs><style>.a{fill:#000102;}.b{fill:#fff;}.c{fill:#e6e7e8;mix-blend-mode:multiply;isolation:isolate;}.d{fill:#d8a35d;}.e{fill:#355168;}.f{fill:#7ebfce;}.g{opacity:0.3;}.h{opacity:0.5;}.i{fill:#a3d9e2;}.j{fill:#d19442;}.k{fill:#93c4cc;}.l{fill:#ffc84f;}.m{opacity:0.15;}</style></defs><g transform="translate(-47.676 -1115.957)"><g transform="translate(273.62 1451.294)"><circle class="a" cx="71.517" cy="71.517" r="71.517" transform="translate(0.273)"/><g transform="translate(0 1.961)"><path class="b" d="M320.429,1513.966l22.718-16.589-.284-24.485-23.235-7.725-22.719,16.589.285,24.485Z" transform="translate(-273.121 -1452.556)"/><path class="b" d="M320.129,1516.078l-23.374-7.3-14.528,19.712,8.757,26.733,23.375,7.3,14.527-19.712Z" transform="translate(-273.151 -1452.469)"/><path class="b" d="M330.808,1543.733l-14.162,19.975,14.258,19.908,28.13-.068,14.162-19.975-14.257-19.907Z" transform="translate(-273.082 -1452.399)"/><path class="b" d="M392.377,1507.968l-23.34,7.408-8.628,26.775,14.622,19.641,23.339-7.408L407,1527.61Z" transform="translate(-272.994 -1452.47)"/><path class="b" d="M391.24,1505.655l.167-24.486-22.8-16.481-23.2,7.837-.167,24.486,22.8,16.48Z" transform="translate(-273.025 -1452.557)"/><path class="b" d="M391.2,1478.712l12.935,3.034a71.889,71.889,0,0,0-41.521-29.165l6,9.8Z" transform="translate(-272.99 -1452.581)"/><path class="b" d="M317.084,1464.191,323.5,1453.6a71.952,71.952,0,0,0-38.735,29.376l9.818-2.354Z" transform="translate(-273.146 -1452.579)"/><path class="b" d="M280.348,1530.2l-7.177-8.317c0,.038,0,.074,0,.112a71.476,71.476,0,0,0,15.112,44.061l.742-9.376Z" transform="translate(-273.169 -1452.442)"/><path class="b" d="M331.8,1585.477l-10.255,4.309a72.076,72.076,0,0,0,47.736-.391l-9.615-3.986Z" transform="translate(-273.072 -1452.315)"/><path class="b" d="M400.266,1553.7l1.046,12.457a71.475,71.475,0,0,0,15.182-44.152q0-1.864-.094-3.7l-7.586,8.876Z" transform="translate(-272.915 -1452.45)"/></g><path class="c" d="M416.714,1522.137a71.782,71.782,0,0,1-126.3,46.7,71.8,71.8,0,0,0,75.384-115.4A71.813,71.813,0,0,1,416.714,1522.137Z" transform="translate(-273.134 -1450.619)"/></g><g transform="translate(47.676 1115.957)"><g transform="translate(53.039 360.472)"><path class="d" d="M131.943,1476.065s.27,122.983-5.023,124.6c-9.5,2.968-46.464,12.127-6.77,13.065,20.139,3.1,19.082-1.506,19.761-5.259.555-3.067,10.434-112.184,12.08-120.588.369-1.882.592-3.02.592-3.02Z" transform="translate(-100.606 -1475.709)"/><path class="d" d="M205.328,1475.71s7.845,122.272,13.154,123.837c9.531,2.868,46.593,11.633,6.912,12.992-20.1,3.311-19.1-1.3-19.818-5.049-.588-3.061-5.392-26.257-7.13-34.641-.389-1.879-14.545-96.673-14.545-96.673Z" transform="translate(-100.442 -1475.71)"/><path class="e" d="M203,1599.635c-.424-1.732,12.271-2.889,13.858-1.61s27.4,3.79,27.692,11.242-35.343,5.282-37.862,5.368S203.833,1603.041,203,1599.635Z" transform="translate(-100.404 -1475.466)"/><path class="e" d="M141.649,1597.649c.4-1.738-15-.925-16.573.371s-24.255,5.162-24.466,12.618,35.4,4.907,37.918,4.966S140.853,1601.064,141.649,1597.649Z" transform="translate(-100.609 -1475.468)"/></g><g transform="translate(64.077 221.591)"><path class="f" d="M226.183,1491.583c-2.053.124-4.3.22-6.657.3-3.084.1-6.354.173-9.631.214-3.684.055-7.37.076-10.806.076-1.4,0-2.751-.007-4.051-.007-7.6-.027-13.149-.131-13.149-.131-.381-4.369-.74-9.1-1.086-14.055-.573-8.089-1.1-16.793-1.6-25.6-.248-4.28-.483-8.586-.718-12.859-.484-8.864-.954-17.574-1.4-25.6-.788-13.869-1.548-25.7-2.344-32.763-.435-3.92-.885-6.367-1.348-6.872-.242-.262-.463-.186-.67.2a17.03,17.03,0,0,0-.948,4.785c-.22,2.053-.422,4.673-.594,7.771-.2,3.616-.374,7.889-.525,12.672-.145,4.68-.27,9.859-.388,15.4-.076,3.892-.152,7.957-.227,12.161-.076,4.812-.159,9.8-.235,14.9q-.093,5.611-.179,11.359c-.063,4.031-.132,8.1-.2,12.161s-.144,8.123-.227,12.154q-.114,5.723-.249,11.337a89.472,89.472,0,0,1-11.3,3.063,1.386,1.386,0,0,1-.179.034,150.681,150.681,0,0,1-16.205,2.379q-1.691.165-3.34.291c-3.878.3-7.584.463-10.93.5h-.09c-1.424.021-2.786.021-4.058,0-1.376-.02-2.648-.055-3.81-.11-1.617-.083-3.014-.2-4.147-.345-2.109-.27-3.3-.644-3.257-1.072.332-3.5.7-8.511,1.085-14.574.241-3.81.5-8.04.754-12.583.2-3.519.4-7.231.6-11.075.242-4.563.484-9.32.733-14.186.22-4.542.449-9.174.677-13.834.449-9.507.892-19.116,1.3-28.235.2-4.549.394-8.981.581-13.211.165-3.885.325-7.6.477-11.1.207-4.854.394-9.279.559-13.129.056-1.417.111-2.758.159-4.01.062-1.369.111-2.64.159-3.8.007-.151.014-.3.021-.442.027-.657.048-1.266.076-1.84.02-.546.041-1.057.055-1.527.11-2.662.172-4.134.172-4.134a6.19,6.19,0,0,0,1.487.94,6.571,6.571,0,0,0,.968.367,8.074,8.074,0,0,0,1.348.3c.291.042.574.069.844.09.809-.048,1.818-.117,3.007-.193.173-.007.353-.021.532-.035.491-.027,1.017-.062,1.563-.1.1-.014.193-.014.29-.021,3.727-.25,8.622-.581,14.207-.982,4.3-.318,9-.67,13.9-1.057q1.939-.146,3.906-.312c1.009-.083,2.033-.165,3.056-.255,2.143-.174,4.307-.36,6.471-.553,5.012-.436,10.025-.9,14.83-1.39,4.494-.456,8.8-.926,12.762-1.418q2.385-.29,4.583-.58l.733-.1c.131-.021.249-.035.346-.049s.193-.028.249-.034a.791.791,0,0,0,.083-.014c8.648-1.223,14.691-2.5,15.666-3.761v.1c.02.663.151,4.778.352,11.213.035.9.063,1.833.09,2.814.028.754.048,1.535.076,2.336.069,2.317.145,4.833.228,7.509s.165,5.5.249,8.469c.048,1.659.1,3.36.152,5.1.09,3.207.234,6.519.422,9.907.221,4.017.5,8.137.83,12.321.256,3.208.546,6.457.857,9.713.5,5.206,1.065,10.446,1.687,15.638.539,4.494,1.12,8.953,1.728,13.315s1.244,8.641,1.9,12.769c.691,4.336,1.4,8.5,2.122,12.438.9,4.9,1.812,9.444,2.717,13.5a126.293,126.293,0,0,0,4.134,15.148C237.825,1490.5,233.068,1491.175,226.183,1491.583Z" transform="translate(-111.625 -1337.106)"/><g class="g" transform="translate(49.03)"><path d="M161.067,1345.249h-.51S160.737,1345.246,161.067,1345.249Z" transform="translate(-160.557 -1337.09)"/><path class="h" d="M220.919,1374.647a9.835,9.835,0,0,1-1.438-.048,10.144,10.144,0,0,1-5.579-2.427c-.173-.146-.346-.291-.512-.45a15.317,15.317,0,0,1-1.493-1.617,25.069,25.069,0,0,1-3.264-5.586,28.3,28.3,0,0,0-3.319-4.239,31.371,31.371,0,0,0-4.072-3.643c-.677-.518-1.369-1.009-2.081-1.472a52.875,52.875,0,0,0-13.426-6.126,84.923,84.923,0,0,0-15.085-3.117c-2.613-.319-4.881-.485-6.6-.567-1.39-.069-2.42-.083-2.987-.09.927,0,1.922-.028,2.98-.062,1.984-.076,4.189-.214,6.5-.394,4.735-.367,9.948-.913,14.823-1.48,4.846-.566,9.368-1.161,12.748-1.624,2.841-.381,4.888-.677,5.655-.789.11-.013.193-.028.249-.034a.791.791,0,0,0,.083-.014c8.648-1.223,14.691-2.5,15.666-3.761v.1c.02.663.151,4.778.352,11.213.035.9.063,1.833.09,2.814.028.754.048,1.535.076,2.336.069,2.317.145,4.833.228,7.509s.165,5.5.248,8.469C220.815,1371.211,220.871,1372.911,220.919,1374.647Z" transform="translate(-160.556 -1337.106)"/></g></g><g transform="translate(75.049 241.696)"><path class="e" d="M126.966,1495.427h-.09c-1.424.021-2.786.021-4.058,0-1.687-34.035,5.98-133.714,6.333-138.256l4.134.318C133.2,1358.609,125.251,1461.911,126.966,1495.427Z" transform="translate(-122.575 -1357.171)"/></g><g transform="translate(67.335 242.879)"><path class="e" d="M125.439,1358.585c-.048.886-4.971,89.129-4.971,93.651,0,3.339-.919,28.635-1.445,43.078-1.617-.083-3.014-.2-4.147-.346.532-14.436,1.444-39.511,1.444-42.733,0-4.639,4.771-90.242,4.978-93.885Z" transform="translate(-114.876 -1358.351)"/></g><path class="i" d="M226.934,1346.52c-4.148,5.682-23.963,10.923-46.051,13.516-17.955,2.108-37.416,2.468-51.181-.118a48.04,48.04,0,0,1-10.121-2.9c-2.42-1.05-4.778-3.505-7.045-7.086-.463-.726-.919-1.5-1.376-2.316C90.689,1310.7,78.016,1183.63,92.784,1176.391a27.607,27.607,0,0,1,4.68-1.77c11.525-3.3,26.72-.913,35.377.989,1.977.435,3.608.843,4.784,1.147.076.124.152.25.235.381,3.712,6.014,9.208,16.571,14.387,20.1a6.293,6.293,0,0,0,2.787,1.161,6.607,6.607,0,0,0,4.908-1.4l6.969,4.106,38.108,22.448s10.4,38.107,17.339,72.06c.684,3.346,1.335,6.658,1.936,9.887.228,1.23.457,2.447.67,3.65.249,1.39.484,2.765.712,4.113a185.674,185.674,0,0,1,2.71,22.69C228.565,1341.12,228.15,1344.853,226.934,1346.52Z" transform="translate(-47.598 -1115.843)"/><path class="j" d="M159.656,1204.741a11.027,11.027,0,0,1-3.989.346c-.241-.021-.491-.048-.732-.089-.284-.035-.56-.083-.837-.145-6.637-1.349-16.947-21.952-17.314-22.346-.277-.3,1.95-1.161,4.086-2.427.193-.11.38-.228.567-.346a7.143,7.143,0,0,0,2.917-2.9c1.189-2.98-.809-14.919-.8-16.06,0,0,11.759-.332,10.882,8.117a17.9,17.9,0,0,0-.014,3.594,17.3,17.3,0,0,0,4.446,10.018s13.163,3.132,13.53,3.776C173.315,1187.907,165.823,1203.012,159.656,1204.741Z" transform="translate(-47.498 -1115.868)"/><path class="i" d="M248.642,1337.185c-5.655.823-12.741.214-20.34-1.237a175.459,175.459,0,0,1-17.588-4.425c-2.406-.733-4.8-1.493-7.142-2.275h-.006c-8.041-2.682-15.576-5.593-21.571-8.04-.408-.166-.8-.332-1.2-.491-7.315-3.021-12.043-5.226-12.043-5.226l5.191-14.326s1.023.049,2.731.125c7.874.38,30.344,1.5,34.622,2.205,0,0-.539-.443-1.452-1.28-4.009-3.636-15.181-14.753-19.274-28.705-1.943-6.629-15.209-24.68-29.314-43.727-2.143-2.9-4.307-5.822-6.457-8.732-10.571-14.318-20.706-28.3-25.988-37.561-2.565-4.494.649-5.952,4.217-6.34a27.209,27.209,0,0,1,4.742-.02c3.712,6.014,9.208,16.571,14.387,20.1a6.294,6.294,0,0,0,2.787,1.161,6.606,6.606,0,0,0,4.908-1.4c3.983-3.015,6.278-10.067,8.781-14.712,2.1.311,4.549.712,7.245,1.238,1.694.325,3.491.7,5.358,1.12,10.516,2.392,23.32,6.381,33.829,12.921,21.992,13.709,37.361,56.332,39.939,71.286S274.111,1333.479,248.642,1337.185Z" transform="translate(-47.515 -1115.835)"/><path class="k" d="M248.594,1337.174c-5.655.823-12.741.214-20.34-1.237.179,5.164-.235,8.9-1.452,10.564-4.148,5.682-23.963,10.923-46.051,13.516v-42.062c-.007-3.72-1.694-9.72-4.12-16.675-.615-1.757-1.273-3.575-1.964-5.435-5.787-15.521-11.089-39.96-12.431-48.443-.67-4.2-.366-9.437-1.023-17.629-.207-2.669-.525-5.641-1-9-.166-1.134-.388-2.261-.657-3.389-1.7-7.175-5.289-14.2-7.439-20.166a6.293,6.293,0,0,0,2.787,1.161,6.607,6.607,0,0,0,4.908-1.4c3.983-3.015,6.278-10.067,8.781-14.712,2.1.311,4.549.712,7.245,1.238,1.694.325,3.491.7,5.358,1.12,10.516,2.392,23.32,6.381,33.829,12.921,21.992,13.709,37.361,56.332,39.939,71.286S274.063,1333.469,248.594,1337.174Z" transform="translate(-47.467 -1115.825)"/><g transform="translate(81.929)"><ellipse class="d" cx="19.826" cy="14.729" rx="19.826" ry="14.729" transform="translate(3.683 51.531) rotate(-87.484)"/><g transform="translate(0)"><g transform="translate(4.485 5.549)"><path class="l" d="M154.711,1137.176s-26.07,12.881-17.556-9.18C143.045,1112.732,172.512,1127.921,154.711,1137.176Z" transform="translate(-133.914 -1121.495)"/><path class="l" d="M151.249,1131.676s13.9,8.934,12.169,17.248c0,0,4.206-24.861-9.941-26.076s-19.692-.092-19.558,26.387C133.919,1149.234,138.931,1128.383,151.249,1131.676Z" transform="translate(-133.917 -1121.493)"/></g><path class="l" d="M154.1,1123.049s-.385-7.817-8.257-7.037-11.413,5.051-12.718,9.416-2.564,7.626-3.681,7.58c0,0,3.212,3.447,4.377,2.391,0,0-3.238,7.811.171,14.474,0,0,1.877-9.97,7.513-10.842S154.1,1123.049,154.1,1123.049Z" transform="translate(-129.441 -1115.957)"/><path class="l" d="M153.336,1122.939s5.729-3.076,10.99,4.874l3.072,6.755s-1.164,1.057-3.353-.138c0,0,.687,7.812-.567,12.153l-2.739-13.395Z" transform="translate(-129.393 -1115.944)"/></g></g><path class="m" d="M225.629,1313a71.033,71.033,0,0,1-4.271,5.987c-.014.018-14.042,13.877-14.1,13.928q-.971.869-2,1.769c-19.159,16.772-54.215,22.707-75.608,24.97a48.275,48.275,0,0,1-10.118-2.9c-2.912-1.265-5.731-4.556-8.422-9.4l113.133-42.108,3.837-1.429S230.109,1305.943,225.629,1313Z" transform="translate(-47.549 -1115.581)"/><path class="m" d="M107.5,1198.349s19.9,22.852,32.19,45.993c.924,1.739,6.092,14.661,6.1,14.7,7.971,27.4,11.911,68.318,11.911,68.318l-19.017-45.314Z" transform="translate(-47.556 -1115.792)"/><path class="d" d="M230.706,1307.524c-4.667.639-16.752,4.7-16.752,4.7l-2.4-7.36s5.741-3.519,7.328-5.424,2.441-3.527,3.753-4.525a18.072,18.072,0,0,1,4.757-1.847l.39.5.386.495.127-.012a12.889,12.889,0,0,0,1.854-.239,6.616,6.616,0,0,1,2.042,1.375,3.293,3.293,0,0,1,.575.648,5.426,5.426,0,0,0,1.726,1.413c.192.118.351.209.436.271a8.332,8.332,0,0,1,.648.6c.781.769,1.993,2.045,2.375,2.5a25.5,25.5,0,0,1,2.479,2.411,2.744,2.744,0,0,1,.275.488C241.177,1304.652,235.375,1306.883,230.706,1307.524Z" transform="translate(-47.348 -1115.603)"/><path class="i" d="M128.4,1226.488c0-1.224-10.413-57.536-32.7-51.509s-37.34,11.166-46.023,54.281,9.393,127.292,84.985,121.752,67.2-28.263,86.039-38.316l-3.634-14.215s-3.27,5.53-12.828,3.276-37.053-9.276-53.551-6.337c0,0-13.443-10.134-12.365-15.732s-6.575-44.716-13.747-54.138S128.4,1226.488,128.4,1226.488Z" transform="translate(-47.676 -1115.84)"/><path class="m" d="M228.263,1294.05a.594.594,0,0,1-.134.126c-.406.239-2.908,1.089-3.178,1.169s.916-.662,1.239-.689a7.278,7.278,0,0,0,1.56-1.089l.386.495Z" transform="translate(-47.321 -1115.602)"/><g transform="translate(81.666 161.897)"><path class="d" d="M159.567,1295.243c-.2-.23-3.025.517-3.281.686-1.359.9-2.12,2.283-3.746,2.48-.457.055-2.949.37-2.672-.585a3.84,3.84,0,0,1,1.5-2,.938.938,0,0,0-.1.008c-.158.007-.515.032-1.038.094a32.54,32.54,0,0,0-4.746.969c-3.569.987-8.073-2.04-8.324-2.36s.3-.781,2-1.205c.022-.007.04-.01.063-.018,1.752-.432,5.376-.8,5.376-.8s-6.627-.124-10.377-.124a6.11,6.11,0,0,1-.828-.054h-.015a6.55,6.55,0,0,1-4.081-2.287.508.508,0,0,1,.378-.837c1.15-.04,3.093-.129,4.546-.315,1.77-.224,6.7.382,8.566.628.453.058.724.1.724.1s1.594-.076-3.719-2.422-4.953-9.572-4.953-9.572a.893.893,0,0,1,.471-.1c.6.018,1.711.476,3.16,3,2.189,3.827,6.322,5,6.834,6.236s4.43,3.536,4.43,3.536,2.13.911,3.257,1.241c.8.235.972,1.354,1,1.971.007.181,0,.324,0,.382v.032a11.438,11.438,0,0,0,2.193-.864C157.212,1292.514,159.566,1295.242,159.567,1295.243Z" transform="translate(-129.179 -1277.531)"/><path class="m" d="M142.78,1289.526c.453.058.724.1.724.1s1.594-.076-3.719-2.422-4.953-9.572-4.953-9.572a.893.893,0,0,1,.471-.1,3.315,3.315,0,0,0-.077,1.42c.2.86,2.26,6.178,4.209,7.394s4.876,2.887,5.236,3.14S143.663,1289.817,142.78,1289.526Z" transform="translate(-129.167 -1277.531)"/><path class="m" d="M151.974,1291.375a3.345,3.345,0,0,0-1.807.261c-.563.407-3.338.762-4.157.962-.567.141-4.482.5-6.856.707.022-.007.04-.01.063-.018,1.752-.432,5.376-.8,5.376-.8s-6.627-.124-10.377-.124a6.109,6.109,0,0,1-.828-.054c3.55-.08,9.048-.228,9.949-.265,1.337-.051,3.853.4,4.725,0s2.874-1.064,3.286-.861A1.975,1.975,0,0,0,151.974,1291.375Z" transform="translate(-129.17 -1277.504)"/><path class="m" d="M153.953,1293.869l-2.726,1.935c-.158.007-.515.032-1.038.094a2.683,2.683,0,0,1,.869-1.326,9.646,9.646,0,0,1,2.9-1.085C153.961,1293.668,153.958,1293.811,153.953,1293.869Z" transform="translate(-129.137 -1277.5)"/></g><g transform="translate(97.332 111.14)"><path class="e" d="M145.583,1253.467c-.245-2.331-.54-4.619-.77-6.958a44.509,44.509,0,0,0,10.068-8.981,33.879,33.879,0,0,0,5.628-10.063c1.4-.179,2.854-.4,4.275-.59,3.056,19.426.217,41.166,9.682,58.086a26.524,26.524,0,0,1-8.859,3.288c-4.743-11.806-5.066-32.426-6.246-45.508a41.92,41.92,0,0,1-6.808,6.191A51.51,51.51,0,0,1,145.583,1253.467Z" transform="translate(-144.813 -1226.875)"/></g><path class="e" d="M175.874,1183.521c-3.374,3.326-6.574,10.688-9.057,17.581-2.606,7.224-4.424,13.931-4.832,14.961a1.854,1.854,0,0,1-2.393,1.334,4.708,4.708,0,0,1-2.289-1.915c-1.59-2.316-11.718-11.1-17.408-19.585-4.051-6.029-6.049-14.4-6.872-18.743-.111-.6-.2-1.12-.277-1.548,1.977.435,3.608.843,4.784,1.147.076.124.152.25.235.381,3.712,6.014,9.208,16.571,14.387,20.1a6.292,6.292,0,0,0,2.787,1.161,6.606,6.606,0,0,0,4.908-1.4c3.983-3.015,6.278-10.067,8.781-14.712C170.731,1182.594,173.178,1183,175.874,1183.521Z" transform="translate(-47.506 -1115.838)"/></g></g></svg>