<svg xmlns="http://www.w3.org/2000/svg" width="713.346" height="232.922" viewBox="0 0 713.346 232.922">
    <defs>
        <style>.a{fill:#ffc84f;}.b{fill:#ffdc8e;}.c,.d,.e{fill:#fff;font-family:BPGArial, BPG
            Arial;}.c{font-size:22px;}.d{font-size:13px;}.e{font-size:18px;}
        </style>
    </defs>
    <g transform="translate(-252.595 -477.529)">
        <g transform="translate(252.595 477.529)">
            <path class="a" d="M371.609,477.529v49.589L356.92,541.808H252.595V477.529Z"
                  transform="translate(-252.595 -477.529)"/>
            <path class="b" d="M362.4,522.772l-14.689,14.689V522.4Z" transform="translate(-243.381 -473.182)"/>
        </g>
        <text class="c" transform="translate(306.656 517.5)">
            <tspan x="-12.235" y="0">27</tspan>
        </text>
        <g transform="translate(400.259 477.529)">
            <path class="a" d="M506.233,477.529v49.589l-14.689,14.689H387.218V477.529Z"
                  transform="translate(-387.218 -477.529)"/>
            <path class="b" d="M497.019,522.772,482.33,537.461V522.4Z" transform="translate(-378.004 -473.182)"/>
        </g>
        <text class="d" transform="translate(458.795 514.234)">
            <tspan x="-44.313" y="0">საქართველო</tspan>
        </text>
        <g transform="translate(547.189 477.529)">
            <path class="a" d="M640.186,477.529v49.589L625.5,541.808H521.171V477.529Z"
                  transform="translate(-521.171 -477.529)"/>
            <path class="b" d="M630.973,522.772l-14.689,14.689V522.4Z" transform="translate(-511.958 -473.182)"/>
        </g>
        <text class="c" transform="translate(606.115 513.459)">
            <tspan x="-6.032" y="0">ა</tspan>
        </text>
        <g transform="translate(694.119 477.529)">
            <path class="a" d="M774.14,477.529v49.589L759.45,541.808H655.125V477.529Z"
                  transform="translate(-655.125 -477.529)"/>
            <path class="b" d="M764.926,522.772l-14.689,14.689V522.4Z" transform="translate(-645.911 -473.182)"/>
        </g>
        <text class="c" transform="translate(752.464 517.5)">
            <tspan x="-12.235" y="0">50</tspan>
        </text>
        <g transform="translate(844.722 477.529)">
            <path class="a" d="M911.442,477.529v49.589l-14.689,14.689H792.427V477.529Z"
                  transform="translate(-792.427 -477.529)"/>
            <path class="b" d="M902.228,522.772l-14.689,14.689V522.4Z" transform="translate(-783.214 -473.182)"/>
        </g>
        <text class="c" transform="translate(903.872 517.5)">
            <tspan x="-15.292" y="0">4.9</tspan>
        </text>
        <g transform="translate(254.798 559.81)">
            <path class="a" d="M373.619,552.543v49.589l-14.689,14.689H254.6V552.543Z"
                  transform="translate(-254.604 -552.543)"/>
            <path class="b" d="M364.405,597.786l-14.689,14.689V597.418Z" transform="translate(-245.39 -548.196)"/>
        </g>
        <text class="c" transform="translate(306.754 599.78)">
            <tspan x="-11.167" y="0">@</tspan>
        </text>
        <g transform="translate(402.463 559.81)">
            <path class="a" d="M508.242,552.543v49.589l-14.689,14.689H389.227V552.543Z"
                  transform="translate(-389.227 -552.543)"/>
            <path class="b" d="M499.028,597.786l-14.689,14.689V597.418Z" transform="translate(-380.013 -548.196)"/>
        </g>
        <text class="d" transform="translate(461.936 596.515)">
            <tspan x="-22.918" y="0">სკოლა</tspan>
        </text>
        <g transform="translate(549.393 559.81)">
            <path class="a" d="M642.2,552.543v49.589l-14.689,14.689H523.181V552.543Z"
                  transform="translate(-523.181 -552.543)"/>
            <path class="b" d="M632.982,597.786l-14.689,14.689V597.418Z" transform="translate(-513.967 -548.196)"/>
        </g>
        <text class="d" transform="translate(608.897 596.515)">
            <tspan x="-33.922" y="0">ორშაბათი</tspan>
        </text>
        <g transform="translate(696.323 559.81)">
            <path class="a" d="M776.149,552.543v49.589L761.46,616.822H657.134V552.543Z"
                  transform="translate(-657.134 -552.543)"/>
            <path class="b" d="M766.935,597.786l-14.689,14.689V597.418Z" transform="translate(-647.92 -548.196)"/>
        </g>
        <text class="c" transform="translate(755.183 599.781)">
            <tspan x="-18.353" y="0">100</tspan>
        </text>
        <g transform="translate(846.926 559.81)">
            <path class="a" d="M913.451,552.543v49.589l-14.689,14.689H794.436V552.543Z"
                  transform="translate(-794.436 -552.543)"/>
            <path class="b" d="M904.238,597.786l-14.689,14.689V597.418Z" transform="translate(-785.223 -548.196)"/>
        </g>
        <text class="c" transform="translate(905.852 599.781)">
            <tspan x="-6.026" y="0">ბ</tspan>
        </text>
        <g transform="translate(549.393 646.172)">
            <path class="a" d="M642.2,631.278v49.589l-14.689,14.689H523.181V631.278Z"
                  transform="translate(-523.181 -631.278)"/>
            <path class="b" d="M632.982,676.521,618.293,691.21V676.153Z" transform="translate(-513.967 -626.931)"/>
        </g>
        <text class="e" transform="translate(604.136 684.326)">
            <tspan x="-14.836" y="0">მზე</tspan>
        </text>
    </g>
</svg>
