<?xml version="1.0" encoding="utf-8"?>
<!-- Generator: Adobe Illustrator 24.0.1, SVG Export Plug-In . SVG Version: 6.00 Build 0)  -->
<svg version="1.1" id="Layer_1" xmlns="http://www.w3.org/2000/svg" xmlns:xlink="http://www.w3.org/1999/xlink" x="0px" y="0px"
	 viewBox="0 0 906 522.7" style="enable-background:new 0 0 906 522.7;" xml:space="preserve">
<style type="text/css">
	.st0{fill:#FFC84F;}
	.st1{fill:#FFDC8E;}
	.st2{fill:#FFFFFF;}
	.st3{font-family:'BPGRioniVera';}
	.st4{font-size:26px;}
	.st5{font-size:15px;}
	.st6{font-size:27px;}
	.st7{font-size:20px;}
	.st8{font-size:25px;}
	.st9{font-size:38px;}
	.st10{font-size:21px;}
</style>
<g transform="translate(737.451 216.272)">
	<path class="st0" d="M-86.5-215.3v61.1l-18.1,18.1H-233v-79.1L-86.5-215.3z"/>
	<path class="st1" d="M-86.5-154.2l-18.1,18.1v-18.5L-86.5-154.2z"/>
</g>
<text transform="matrix(1 0 0 1 561.058 46.764)" class="st2 st3 st4">27</text>
<g transform="translate(233 315.051)">
	<path class="st0" d="M-86.5-215.3v61.1l-18.1,18.1H-233v-79.1L-86.5-215.3z"/>
	<path class="st1" d="M-86.4-154.2l-18.1,18.1v-18.5L-86.4-154.2z"/>
</g>
<text transform="matrix(1 0 0 1 17.769 144.199)" class="st2 st3 st5">საქართველო</text>
<g transform="translate(482.001 216.272)">
	<path class="st0" d="M-86.5-215.3v61.1l-18.1,18.1H-233v-79.1L-86.5-215.3z"/>
	<path class="st1" d="M-86.4-154.2l-18.1,18.1v-18.5L-86.4-154.2z"/>
</g>
<text transform="matrix(1 0 0 1 313.768 44.615)" class="st2 st3 st6">ა</text>
<g transform="translate(482.001 312.387)">
	<path class="st0" d="M-86.5-215.3v61.1l-18.1,18.1H-233v-79.1H-86.5z"/>
	<path class="st1" d="M-86.4-154.2l-18.1,18.1v-18.5L-86.4-154.2z"/>
</g>
<text transform="matrix(1 0 0 1 313.949 138.782)" class="st2 st3 st7">C</text>
<g transform="translate(737.451 319.311)">
	<path class="st0" d="M-86.5-215.3v61.1l-18.1,18.1H-233v-79.2H-86.5z"/>
	<path class="st1" d="M-86.5-154.2l-18.1,18.1v-18.5L-86.5-154.2z"/>
</g>
<text transform="matrix(1 0 0 1 563.319 152.629)" class="st2 st3 st4">50</text>
<g transform="translate(737.451 438.041)">
	<path class="st0" d="M-86.5-215.3v61.1l-18.1,18.1H-233v-79.2H-86.5z"/>
	<path class="st1" d="M-86.5-154.2l-18.1,18.1v-18.5L-86.5-154.2z"/>
</g>
<text transform="matrix(1 0 0 1 555.075 268.594)" class="st2 st3 st4">100</text>
<g transform="translate(992.45 215.272)">
	<path class="st0" d="M-86.5-215.3v61.1l-18.1,18.1H-233v-79.1L-86.5-215.3z"/>
	<path class="st1" d="M-86.5-154.2l-18.1,18.1v-18.5L-86.5-154.2z"/>
</g>
<text transform="matrix(1 0 0 1 813.439 47.591)" class="st2 st3 st8">4.9</text>
<g transform="translate(482 526.052)">
	<path class="st0" d="M-86.4-215.3v61.1l-18.1,18.1H-233v-79.2L-86.4-215.3z"/>
	<path class="st1" d="M-86.5-154.2l-18.1,18.1v-18.5L-86.5-154.2z"/>
</g>
<text transform="matrix(1 0 0 1 299.233 359.37)" class="st2 st3 st4">@</text>
<g transform="translate(482 423.152)">
	<path class="st0" d="M-86.4-215.3v61.1l-18.1,18.1H-233v-79.2L-86.4-215.3z"/>
	<path class="st1" d="M-86.5-154.2l-18.1,18.1v-18.5L-86.5-154.2z"/>
</g>
<text transform="matrix(1 0 0 1 313.778 267.444)" class="st2 st3 st9">*</text>
<g transform="translate(233 423.152)">
	<path class="st0" d="M-86.5-215.3v61.1l-18.1,18.1H-233v-79.2L-86.5-215.3z"/>
	<path class="st1" d="M-86.5-154.2l-18.1,18.1v-18.5L-86.5-154.2z"/>
</g>
<text transform="matrix(1 0 0 1 44.467 252.301)" class="st2 st3 st5">სკოლა</text>
<g transform="translate(233 526.052)">
	<path class="st0" d="M-86.5-215.3v61.1l-18.1,18.1H-233v-79.2L-86.5-215.3z"/>
	<path class="st1" d="M-86.4-154.2l-18.1,18.1v-18.5L-86.4-154.2z"/>
</g>
<text transform="matrix(1 0 0 1 31.264 355.2)" class="st2 st3 st5">ორშაბათი</text>
<g transform="translate(233 216.272)">
	<path class="st0" d="M-86.5-215.3v61.1l-18.1,18.1H-233v-79.1L-86.5-215.3z"/>
	<path class="st1" d="M-86.4-154.2l-18.1,18.1v-18.5L-86.4-154.2z"/>
</g>
<text transform="matrix(1 0 0 1 48.629 47.279)" class="st2 st3 st10">მზე</text>
</svg>
