<svg xmlns="http://www.w3.org/2000/svg" width="370.199" height="378.226" viewBox="0 0 370.199 378.226"><defs><style>.a{fill:none;stroke:#2fc49e;stroke-miterlimit:10;stroke-width:1.419px;}.b,.e{fill:#2fc49e;}.c,.d{fill:#728ad6;}.d,.e{opacity:0.4;}</style></defs><g transform="translate(-829.197 -330.933)"><path class="a" d="M849.712,629.145l136.935,62.784,135.08-74.2-163.7-76.1L952.4,594.9l228.305-121.763L1077.969,339.958" transform="translate(1.388 0.611)"/><circle class="b" cx="21.903" cy="21.903" r="21.903" transform="translate(829.197 607.853)"/><circle class="b" cx="21.903" cy="21.903" r="21.903" transform="translate(1155.589 454.803)"/><circle class="b" cx="21.903" cy="21.903" r="21.903" transform="translate(959.416 665.352)"/><circle class="c" cx="21.903" cy="21.903" r="21.903" transform="translate(1093.862 601.088)"/><circle class="c" cx="9.636" cy="9.636" r="9.636" transform="translate(1070.615 330.933)"/><circle class="c" cx="12.389" cy="12.389" r="12.389" transform="translate(940.18 578.47)"/><circle class="b" cx="12.389" cy="12.389" r="12.389" transform="translate(947.027 534.5)"/><circle class="d" cx="32.132" cy="32.132" r="32.132" transform="translate(1083.634 590.859)"/><circle class="e" cx="16.224" cy="16.224" r="16.224" transform="translate(943.191 530.665)"/></g></svg>