<svg xmlns="http://www.w3.org/2000/svg" xmlns:xlink="http://www.w3.org/1999/xlink" width="1366" height="771" viewBox="0 0 1366 771"><defs><style>.a,.ai{fill:none;}.b{fill:#d2c3db;}.c{fill:#eadff1;}.d{fill:#000;}.e{fill:#b3b3b3;}.f{fill:#ce521f;}.g{fill:#ebebeb;}.h{fill:#8e96a3;}.i{fill:#292929;}.j{fill:#d0d1d6;}.k{fill:#2b579a;}.l{fill:#acc0cc;}.m{fill:#99aab5;}.n{fill:#ebe2d8;}.o{fill:#c6ddeb;}.p{fill:#bfd5e2;}.q{fill:#85b2cc;}.r{fill:#94c6e3;}.s{fill:#7ea9c2;}.t{fill:#82a6d6;}.u{fill:#6986ad;}.v{fill:#a3c4f0;}.w{fill:#92baf0;}.x{fill:#947dce;}.y{clip-path:url(#a);}.ab,.z{fill:#d8a35d;}.z{fill-rule:evenodd;}.aa{fill:#d29647;}.ac{fill:#d19442;}.ad{fill:#ffc84f;}.ae{opacity:0.15;}.af{fill:#62548a;}.ag{opacity:0.3;}.ah{opacity:0.5;}.ai{stroke:#947dce;stroke-miterlimit:10;stroke-width:1.372px;}</style><clipPath id="a"><rect class="a" width="565.953" height="550.201" transform="translate(3669.118 216.427)"/></clipPath></defs><g transform="translate(-2893.814)"><path class="b" d="M4259.814,9.537V768l-242.228-67.586-32.991-6.263,1.636-558.092,30.118-25.56Z"/><path class="b" d="M3210.11,125.471l-16.051,556.371-300.044,74.4V6.188l298.845,93.571Z"/><path class="c" d="M3591.792,89.071H3167.184V706.455h849.165V89.071Z"/><path class="d" d="M2893.814,60.78c121.657,30.38,335.7,73.888,615,80.372,352.972,8.194,622.429-47.1,751-78.7V0h-1366Z"/><path class="d" d="M2893.814,722.684c121.657-29.39,335.7-71.481,615-77.753,352.972-7.928,622.429,45.568,751,76.133v47.19L2894.014,771Z"/><path class="e" d="M3493.72,581.093H3080.114l60.117-72.14h305.395Z"/><rect class="e" width="19.237" height="165.923" transform="translate(3094.542 581.093)"/><rect class="e" width="13.226" height="195.982" transform="translate(3139.029 508.952)"/><rect class="e" width="13.226" height="195.982" transform="translate(3431.198 508.952)"/><rect class="e" width="19.237" height="165.923" transform="translate(3461.256 581.093)"/><path class="f" d="M3225.169,489.658h0a.48.48,0,0,1-.28-.615l.4-1.054.9.335-.4,1.054A.479.479,0,0,1,3225.169,489.658Z"/><path class="f" d="M3230.158,491.524h0a.479.479,0,0,1-.28-.615l.394-1.054c.027-.07.892.345.892.345l-.391,1.044A.479.479,0,0,1,3230.158,491.524Z"/><path class="g" d="M3225.074,489.451h0a.479.479,0,0,1-.28-.615l.431-1.154a.479.479,0,0,1,.615-.28h0a.479.479,0,0,1,.281.615l-.432,1.154A.479.479,0,0,1,3225.074,489.451Z"/><path class="g" d="M3230.053,491.313h0a.479.479,0,0,1-.281-.615l.432-1.153a.479.479,0,0,1,.615-.281h0a.48.48,0,0,1,.28.615l-.431,1.154A.479.479,0,0,1,3230.053,491.313Z"/><rect class="h" width="3.134" height="2.032" transform="matrix(0.937, 0.35, -0.35, 0.937, 3223.814, 500.476)"/><rect class="h" width="3.134" height="2.032" transform="translate(3225.171 497.123) rotate(20.511)"/><path class="i" d="M3367.693,564.619l-159.168-.817a3.538,3.538,0,0,1-3.8-3.507l.013-2.385,17.587-32.1a5.545,5.545,0,0,1,4.983-3.054l121.8.626c2.273.011,7.262,4.514,8.268,6.552L3371.6,559.3l-.006,1.052C3371.611,563.409,3369.632,564.629,3367.693,564.619Z"/><path class="j" d="M3367.725,561.249l-159.168-.817c-1.768-.009-4.669-1.574-3.566-3.474l17.361-34.522a5.543,5.543,0,0,1,4.982-3.054l121.8.625a6,6,0,0,1,5.35,3.346l16.834,34.124C3372.5,559.653,3369.663,561.259,3367.725,561.249Z"/><rect class="j" width="82.366" height="130.348" rx="4.766" transform="translate(3222.342 519.296) rotate(-89.706)"/><rect class="d" width="120.292" height="71.371" transform="translate(3227.747 441.449) rotate(0.294)"/><path class="i" d="M3311.22,559.461l-46.9-.24a.846.846,0,0,1-.83-.984l2.041-12.343a1.374,1.374,0,0,1,1.362-1.15l42.3.217a1.207,1.207,0,0,1,1.189,1.039l1.749,12.433A.915.915,0,0,1,3311.22,559.461Z"/><path class="k" d="M3351.291,542.629l-127.43-.654c-1.414-.008-2.489-.557-2.263-1.155l5.448-14.394c.293-.777,1.858-1.341,3.692-1.332l114.936.591c1.629.008,3.008.529,3.24,1.222l4.851,14.528C3353.954,542.076,3352.792,542.637,3351.291,542.629Z"/><rect class="j" width="132.89" height="0.671" transform="translate(3221.302 527.531) rotate(0.294)"/><rect class="j" width="132.89" height="0.671" transform="translate(3221.284 530.887) rotate(0.294)"/><rect class="j" width="132.89" height="0.671" transform="translate(3221.263 534.914) rotate(0.294)"/><rect class="j" width="132.89" height="0.671" transform="translate(3221.245 538.605) rotate(0.294)"/><rect class="j" width="1.007" height="22.148" transform="translate(3237.423 522.267) rotate(17.733)"/><rect class="j" width="1.007" height="22.148" transform="translate(3247.154 522.317) rotate(17.733)"/><rect class="j" width="1.007" height="22.148" transform="translate(3254.873 522.357) rotate(17.733)"/><rect class="j" width="1.007" height="22.148" transform="translate(3262.591 522.397) rotate(17.733)"/><rect class="j" width="1.007" height="22.148" transform="translate(3270.645 522.438) rotate(17.733)"/><rect class="j" width="1.007" height="22.148" transform="translate(3278.818 522.229) rotate(11.272)"/><rect class="j" width="1.007" height="22.148" transform="translate(3285.761 522.157) rotate(0.294)"/><rect class="j" width="1.007" height="22.148" transform="translate(3337.832 523.085) rotate(-17.145)"/><rect class="j" width="1.007" height="22.148" transform="translate(3328.436 523.036) rotate(-17.145)"/><rect class="j" width="1.007" height="22.148" transform="translate(3319.04 522.988) rotate(-17.145)"/><rect class="j" width="1.007" height="22.148" transform="translate(3309.644 522.94) rotate(-17.145)"/><rect class="j" width="1.007" height="22.148" transform="translate(3300.248 522.892) rotate(-17.145)"/><rect class="j" width="1.007" height="22.148" transform="translate(3290.852 522.843) rotate(-17.145)"/><path class="l" d="M3611.08,637.493l-21.351,40.8-40.337,52.644-.075.1-41.189-60.967-8.319-39.7,56.965-16.413,14.2,6.156-.479,7.6,19.076,8.927.52-8.237Z"/><path class="m" d="M3611.08,637.493l-21.351,40.8-40.337,52.644,7.382-116.983,14.2,6.156-.479,7.6,19.076,8.927.52-8.237Z"/><path class="n" d="M3573.08,651.663,3593.9,643.9l-2.572,26.35-24.774-1.563Z"/><path class="o" d="M3589.448,645.561l-.747,14.984-1.751-2.393-3.338,4.286-2.449-1.967-4.169,4.705.357-15.105-23.406,8.729-4.628,72.232,57.346-23.566,4.416-69.974Z"/><path class="p" d="M3533.835,648.226l-.525,8.319-18.973-10.511.492-7.8-15.017-7.87-2.166,34.327-2.256,35.752,53.928,30.588,4.564-72.331Z"/><path class="q" d="M3564.224,668.561l63.422,3.713,5.374-9.841-40.6-45.5-60-9.988-6.62,12.123Z"/><path class="r" d="M3532.423,606.943l38.712,50.209,61.886,5.281-40.6-45.5Z"/><path class="s" d="M3564.224,668.561l6.91-11.409-38.712-50.209-6.62,12.123Z"/><path class="t" d="M3573.384,682.811l13.26,26.076,25.233,33.741.047.062,26.617-38.424,5.579-25.157-36.065-10.849-9.065,3.805.248,4.829-12.185,5.529-.269-5.236Z"/><path class="u" d="M3573.384,682.811l13.26,26.076,25.233,33.741-3.821-74.367-9.065,3.805.248,4.829-12.185,5.529-.269-5.236Z"/><path class="n" d="M3597.417,692.095l-13.166-5.085,1.438,16.758,15.749-.809Z"/><path class="v" d="M3573.384,682.81l2.286,44.484,36.254,15.4-2.4-45.919-14.8-5.72.114,9.6-2.613-3.019-1.571,1.231-2.088-2.747-1.13,1.507-.364-9.524Z"/><path class="w" d="M3622.374,690.2l.272,5.289,12.131-6.536-.255-4.958,9.6-4.888,1.121,21.822,1.168,22.728-34.485,19.031-2.363-45.982Z"/><path class="x" d="M3269.3,481.207c.621-.581,1.211-1.128,1.72-1.638a6.2,6.2,0,0,0,2.15-4.27,7.7,7.7,0,0,0-1.034-3.151,7.024,7.024,0,0,1-.968-3.169c.069-3.509,6.054-4.272,8.557-4.317,1.959-.035,3.877.314,5.835-.04,2.578-.466,4.319-2.147,6.36-3.631a2.329,2.329,0,0,1,1.328-.586c.8.011,1.351.819,1.6,1.58.754,2.3.257,6.124,3.371,6.8,2.2.475,4.408-1.394,6.608-.915,4.3.937,4.756,5.709,2.1,8.4-3.234,3.282-7.227,3.989-11.386,5.355-.358.118-.778.336-.774.713,0,.283.252.494.487.652a26.657,26.657,0,0,1,3.686,2.33c3.619,3.413.752,9.49-2.718,11.79-2.417,1.6-6.345,2.464-8.633.72-2.491-1.9-1.216-5.5-3.595-6.714-3.631-1.86-8.5,3.078-11.091,4.908a5.969,5.969,0,0,1-2.347,1.184c-1.751.3-3.372-.985-4.5-2.36a9.5,9.5,0,0,1-2.156-4.279C3263.285,486.961,3266.579,483.759,3269.3,481.207Z"/><g class="y"><path class="z" d="M3750.132,686.469c-.993,1.251-15.432,13.02-19.133,20.9s-8.452,19.934-11.17,23.707c-3.2,4.438-1.685,6.4,2.554,1.487,2.756-3.193,7.695-9.99,8.372-11.646.328-.8-2.307,4.247-5.591,9.583-3.492,5.673-7.629,11.7-6.647,12.4,1.905,1.358,13.064-14.584,14.527-17.576a83.321,83.321,0,0,1-3.964,7.846c-2,3.466-4.846,7.235-4.379,8.348.735,1.752,7.793-6.277,11.665-13.622.3-.044-.214,2.6-5.4,11.011-.521.846-.965,3.319,1.5.826,5.2-5.248,7.818-7.121,11.409-16.151,3.5-8.807,5.228-19.3,9.7-24.93Z"/><path class="z" d="M3735.275,702s-9.74,4.274-13.738,11.585c-2.377,4.346-3.5,3.819-4.126,4.478-2.09,2.19,3.658,1.419,6.314-2.042,2.159-2.813,8.231-2.621,10.075-4.115s6.026-6.444,5.794-8.14S3735.275,702,3735.275,702Z"/><path class="aa" d="M3976.125,806.111s-17.041,175.846-9.795,178.872c13,5.515,63.913,23.554,7.782,19.589-28.834,1.738-26.719-4.7-27.169-10.163-.368-4.46.479-161.833-.706-174.071-.265-2.741-.426-4.4-.426-4.4Z"/><path class="ab" d="M3857.276,789.668s92.041,150.016,87.183,156.186c-8.672,11.145-44.367,51.683,2.737,20.9,26.034-12.516,21.051-17.114,18.787-22.1-1.849-4.076-15.468-35.239-20.389-46.506-1.1-2.524-63.1-125.416-63.1-125.416Z"/><path class="ac" d="M3926.966,352.34s-1.5,16.755,8.834,26.021-23.818,0-23.818,0,6.355-16.048,4.93-26.021S3926.966,352.34,3926.966,352.34Z"/><ellipse class="ab" cx="18.069" cy="24.653" rx="18.069" ry="24.653" transform="translate(3903.446 309.531)"/><path class="x" d="M4039.361,513.557c-.3,4.666-4.076,22.014-9.388,40.872-1.564,5.627-3.28,11.377-5.078,16.977-2.182,6.821-4.488,13.4-6.821,19.2-4.529,11.254-9.168,19.626-13.217,21.259-13.642,5.49-116.646,13.025-137.823,2.924-.494-.371-1.029-.769-1.537-1.208-7.947-6.464-16.565-19.228-21.136-31.182,0-.014-12.174-34.326-14.658-41.312-.027-.068-.041-.123-.068-.178-.083-.275-.178-.535-.275-.782-.027-.1-.068-.179-.1-.275-12.819,43.768-46.924,139.895-74.511,170.35-2.9,3.2-16.222-14.74-16.222-14.74s-22.276-115.026,35.835-236.585c27.353-57.218,76.171-83.322,107.34-90.253,13.491-3.006,23.675-2.416,27.394.8a20.2,20.2,0,0,0,12.613,4.9,27.289,27.289,0,0,0,7.082-.645,35.2,35.2,0,0,0,7.508-2.553c1.153-.535,1.825-.919,1.825-.919a73.205,73.205,0,0,1,19.077,1.139C4027.723,385.149,4039.992,503.387,4039.361,513.557Z"/><path class="ad" d="M3862.317,610.736a11.14,11.14,0,0,0,6.323,2.916c14.854.292,79.01,1.391,113.812-.609,12.279-.707,20.9-1.8,22.417-3.454,0,0,0,.051-.01.142-.091,1.918-1.192,23.88-2.737,52.668-3.049,56.829,2.825,138.222,9.687,162.927,1.482,5.332-78.23-2.745-78.23-2.745-.222-58.647,5.343-161.6,1.748-166.22-4.372-5.614-11.462,84.948-19.59,160.73-31.567,8.235-81.553,3.235-80.975,0C3841.624,778.662,3862.317,610.736,3862.317,610.736Z"/><path class="ae" d="M3829.272,539.853c.027.1.068.179.1.275.1.247.192.508.274.782.028.055.042.11.069.178,2.484,6.986,14.658,41.3,14.658,41.312,4.57,11.954,13.189,24.718,21.136,31.182-5.394-19.53-22.207-76.144-21.562-98.955C3840.732,536.614,3829.272,539.84,3829.272,539.853Z"/><path class="ae" d="M4029.973,554.429c-1.564,5.627-3.28,11.377-5.078,16.977-2.182,6.821-4.488,13.4-6.821,19.2-40.337-48.3-18.336-113.97-18.336-113.97s17.046,57.013,17.224,58.618C4017.017,535.832,4022.685,544.053,4029.973,554.429Z"/><path class="ae" d="M3922.911,378.369c.055,1.633-.81,2.7-3.431,2.347-8.18-1.112-17.417-.878-24.128,2.2a5.7,5.7,0,0,1-5.517-.233c-4.3-2.512-6.959-10.006-8.015-13.327a2.267,2.267,0,0,1-.11-.727c13.491-3.006,23.675-2.416,27.394.8a20.2,20.2,0,0,0,12.613,4.9A11.12,11.12,0,0,1,3922.911,378.369Z"/><path class="af" d="M3962.63,933.642c-.942-2.381-16.607,6.619-17.389,9.416s-28.615,26.807-22.789,35.8,45.32-22.634,48.311-24.589S3964.482,938.322,3962.63,933.642Z"/><path class="af" d="M3945.931,979.042c-.336-2.539,21.288.682,23.332,2.745s33.523,10.624,32.81,21.316-50.606,2.285-54.17,2.033S3946.592,984.031,3945.931,979.042Z"/><g class="ag"><path d="M3921.548,614.219c-.242-.019-.482-.038-.716-.059C3920.832,614.16,3921.086,614.178,3921.548,614.219Z"/><path class="ah" d="M3921.548,614.219c19.118,1.526,60.9-1.176,60.9-1.176,12.279-.707,20.9-1.8,22.417-3.454,0,0,0,.051-.01.142-.091,1.918-1.192,23.88-2.737,52.668a14.186,14.186,0,0,1-2.009-.232c-4.3-.8-7.6-3.463-10.118-7.189a34.766,34.766,0,0,1-3.934-8.217C3971.807,619.639,3927.672,614.769,3921.548,614.219Z"/></g><path class="ad" d="M3914.725,320.033s31.282,17.344,22-10.5C3930.3,290.264,3893.39,307.619,3914.725,320.033Z"/><path class="ad" d="M3919.26,313.381s-17.5,10.385-15.814,20.8c0,0-3.86-31.1,13.543-31.885s24.14.9,22.595,33.788C3939.584,336.086,3934.528,309.923,3919.26,313.381Z"/><path class="ad" d="M3916.23,302.5s.879-9.691,10.487-8.319,13.724,6.863,15.1,12.352,2.745,9.608,4.117,9.608c0,0-4.117,4.117-5.49,2.745,0,0,3.563,9.87-.963,17.973,0,0-1.782-12.484-8.644-13.856S3916.23,302.5,3916.23,302.5Z"/><path class="ad" d="M3917.109,302.417s-6.862-4.117-13.724,5.49l-4.118,8.235s1.373,1.372,4.118,0c0,0-1.251,9.67.061,15.128l4.056-16.5Z"/><path class="z" d="M4128.557,697.484c.719,1.168,11.837,12.682,14.191,19.779s5.176,17.869,7.111,21.366c2.275,4.113.784,5.632-2.332,1.008-2.025-3.006-5.545-9.308-5.954-10.79-.2-.719,1.535,3.858,3.792,8.746,2.4,5.2,5.315,10.761,4.406,11.258-1.764.964-9.657-13.776-10.6-16.478a71.9,71.9,0,0,0,2.582,7.1c1.351,3.16,3.4,6.667,2.885,7.568-.806,1.42-6.009-6.15-8.563-12.811-.251-.069-.082,2.236,3.482,9.944.358.775.484,2.93-1.367.552-3.9-5.008-5.944-6.873-8.086-14.944-2.09-7.871-2.491-17-5.728-22.259Z"/><path class="z" d="M4141.222,713.934s7.873,4.641,10.538,11.286c1.584,3.951,2.594,3.615,3.064,4.242,1.559,2.082-3.267.837-5.179-2.387-1.555-2.62-6.755-3.076-8.176-4.538s-4.483-6.113-4.113-7.537S4141.222,713.934,4141.222,713.934Z"/><line class="ai" x1="20.242" y2="211.664" transform="translate(3856.015 609.349)"/><line class="ai" x1="20.089" y2="207.978" transform="translate(3876.257 613.582)"/><line class="ai" x1="16.706" y2="206.524" transform="translate(3899.278 613.582)"/><line class="ai" x2="0.43" y2="42.779" transform="translate(3934.897 613.582)"/><line class="ai" x1="3.876" y2="210.709" transform="translate(3952.014 613.582)"/><line class="ai" x1="1.08" y2="212.477" transform="translate(3972.875 613.45)"/><line class="ai" x2="4.087" y2="213.697" transform="translate(3991.711 613.45)"/><path class="ai" d="M3859.58,632.755s113.989,5.381,144.107,0"/><path class="ai" d="M3935.327,656.361c-39.883,9.033-78.051-5.247-78.051-5.247"/><path class="ai" d="M3934.9,653.662s35.993,10.114,67.608,1.573"/><path class="ai" d="M3855.315,666.626s28.743,15.048,75.428,7.377"/><path class="ai" d="M3852.962,685.1s44.727,13.655,75.57,6.628"/><path class="ai" d="M3850.6,703.452s22.779,17.857,75.594,9.847"/><path class="ai" d="M3847.857,724.562s34.734,18.149,76.609,5.772"/><path class="ai" d="M3845.3,743.9s24.6,17.463,77.095,7.32"/><path class="ai" d="M3842.634,763.727s33.954,17.749,78.2,3.409"/><path class="ai" d="M3840.5,779.2s20.031,19.266,78.639,4.983"/><path class="ai" d="M3837.979,796.761s32.392,17.064,79.427,4.445"/><path class="ai" d="M3936.533,672.982s15.037,12.417,65.972,3.2"/><path class="ai" d="M3936.928,691.669s21.1,9.838,64.372,2.069"/><path class="ai" d="M3935.9,712.409s32.581,9.813,65.4,0"/><path class="ai" d="M3935.429,729.609s31.673,14.079,66.5,0"/><path class="ai" d="M3934.9,748.492s30.154,10.581,67.909,0"/><path class="ai" d="M3934.41,766.628s25.417,11.4,69.585,0"/><path class="ai" d="M3934.41,782.674s30.178,15.551,71.12,1.652"/><path class="ai" d="M3933.684,802.732s34.325,11.635,74.085.856"/><path class="x" d="M4005.53,443.654s-88.5-70.034-67.4-73.451,55.622,4.884,55.622,4.884c31.169,6.931,60.928,30.35,88.281,87.568,58.11,121.559,54.894,239.271,54.894,239.271s-13.455,18.05-16.222,14.74c-51.341-61.431-84.355-123.1-98.283-164.59S4005.53,443.654,4005.53,443.654Z"/></g></g></svg>