<svg xmlns:xlink="http://www.w3.org/1999/xlink" xmlns="http://www.w3.org/2000/svg" width="482" height="405.895"
     viewBox="0 0 482 405.895">
    <defs>
        <style>
            .a{fill:none;}.b{clip-path:url(#a);}.c{opacity:0.15;}.d{opacity:0.3;}.e{fill:#999;}.f{fill:#ccc;}.g{fill:gray;}.h{fill:#d8a35d;fill-rule:evenodd;}.i{fill:#947dce;}
        </style>
        <clipPath id="a">
            <rect class="a" width="482" height="405.895"/>
        </clipPath>
    </defs>
    <g transform="translate(-988.385 -438.009)">
        <g class="b" transform="translate(988.385 438.009)">
            <g transform="translate(24.61 56.726)">
                <path class="c"
                      d="M1350.421,647.094S1122.726,662.8,1114.656,883.8l-.95,4.816,46.642-20.411s86-138.127,89.008-139.758S1350.421,647.094,1350.421,647.094Z"
                      transform="translate(-978.352 -436.937)"/>
                <g class="d" transform="translate(6.178 192.908)">
                    <path d="M1012.97,635.034c-.158-.489-.315-.978-.464-1.454C1012.505,633.58,1012.676,634.093,1012.97,635.034Z"
                          transform="translate(-1012.505 -633.58)"/>
                </g>
                <path class="e"
                      d="M1224.474,486.147,1019.79,610.784a25.288,25.288,0,0,0-8.447,34.72L1096.424,785.2a7.811,7.811,0,0,0,.65.961,25.2,25.2,0,0,0,34.06,7.46l204.682-124.637a25.247,25.247,0,0,0,8.421-34.71l-81.115-133.225-3.94-6.477A25.245,25.245,0,0,0,1224.474,486.147Z"
                      transform="translate(-1007.665 -482.45)"/>
                <path class="f"
                      d="M1228.068,491.974,1023.384,616.612a25.246,25.246,0,0,0-8.421,34.709l81.115,133.225a25.2,25.2,0,0,0,34.06,7.46l204.682-124.637a25.247,25.247,0,0,0,8.421-34.71l-81.115-133.225A25.2,25.2,0,0,0,1228.068,491.974Z"
                      transform="translate(-1006.67 -480.839)"/>
                <circle class="g" cx="19.507" cy="19.507" r="19.507" transform="translate(151.72 143.925)"/>
                <path class="c" d="M1158.444,802.3s81.879-29.759-34.169-234.114,15.654,182.785,15.654,182.785Z"
                      transform="translate(-988.647 -475.213)"/>
                <g transform="translate(62.398 10.536)">
                    <g transform="translate(9.23)">
                        <path class="h"
                              d="M1105.945,605.666c-.2-2.908,4.8-36.531.1-51.7s-13.119-37.272-14.094-45.7c-1.146-9.918-5.6-10.7-5.273,1.136.212,7.694,1.911,22.932,3.034,26,.545,1.486-2.113-8.562-4.247-19.8-2.268-11.944-4.1-25.157-6.288-24.893-4.236.512.323,35.73,2.028,41.563a152.165,152.165,0,0,1-4.3-15.455c-1.569-7.13-2.364-15.714-4.362-16.64-3.145-1.459-2.789,18.046,1.023,32.711-.349.426-2.9-3.763-6.262-21.485-.338-1.781-2.781-5.661-3.043.736-.553,13.465-1.784,19.215,4.479,35.808,6.108,16.18,16.687,32.453,17.585,45.537Z"
                              transform="translate(-1063.781 -490.704)"/>
                        <path class="h"
                              d="M1100.313,556.088s7.877-17.741,4.276-32.515c-2.139-8.783.019-9.449.056-11.113.125-5.523-6.677,2.586-6,10.519.549,6.446-7.873,13.656-8.523,17.938s-.2,16.1,2.2,18.1S1100.313,556.088,1100.313,556.088Z"
                              transform="translate(-1056.575 -485.191)"/>
                    </g>
                    <path class="i"
                          d="M1529.676,697.474c-24.416,69.513-52.063,122.056-181.712,201.314-65.777,40.213-137.346,66.419-175.653,78.872a47.446,47.446,0,0,1-50.588-14.368c-118.175-137.287-39.536-374.281-39.536-374.281-.376-10.5,39.665-5.6,39.665-5.6,37.253,87.508,62.407,155.965,64.432,237.138.019-.424,100.348-122.118,132.01-146.064,83.041-62.766,130.546-175.977,175.576-170.387C1509.443,506.023,1554.3,627.358,1529.676,697.474Z"
                          transform="translate(-1056.55 -487.056)"/>
                </g>
            </g>
        </g>
    </g>
</svg>
