<svg xmlns="http://www.w3.org/2000/svg" xmlns:xlink="http://www.w3.org/1999/xlink" width="1386.705" height="776.43" viewBox="0 0 1386.705 776.43"><defs><style>.a,.ae,.ar,.n,.t{fill:none;}.b{clip-path:url(#a);}.c{fill:#fff;}.d{fill:#ebcc65;}.e{fill:#f2d785;}.f{clip-path:url(#b);}.g{fill:#fcb95d;}.ab,.ac,.g,.h,.i,.j,.l,.n,.o,.p,.q,.r,.s,.t,.u,.v{fill-rule:evenodd;}.h{fill:#a1dd6f;}.aa,.i{opacity:0.15;}.j{fill:#4a5e3a;}.k,.l{fill:#243330;}.m,.p{fill:#171f1c;}.n{stroke:#a1dd70;stroke-width:1.974px;}.ae,.ar,.n,.t{stroke-miterlimit:10;}.o{fill:#243e41;}.q{fill:#c98121;}.r{fill:#f7805c;}.s{fill:#7fd1d8;}.t{stroke:#3e6569;stroke-width:12.871px;}.v{opacity:0.2;}.w{fill:#6d6e71;}.x{fill:#bcbec0;}.y{fill:#e6e7e8;}.z{opacity:0.5;}.ab,.ad{fill:#d1d3d4;}.ac{fill:#36a5ad;}.ae{stroke:#4a5e3a;stroke-width:1.89px;}.af{fill:#fab411;}.ag{fill:#d49500;}.ah{fill:#a68641;}.ai{fill:#bb9749;}.aj{fill:#917539;}.ak{fill:#826933;}.al{fill:#a38136;}.am{fill:#d5d8d6;}.an{fill:#1d1d1c;}.ao{fill:#eba910;}.ap{fill:#c48d0d;}.aq{fill:#b37d00;}.ar{stroke:#917539;}.as{fill:#a9aaa7;}.at{fill:#90918f;}</style><clipPath id="a"><rect class="a" width="1366" height="771" transform="translate(4366.046)"/></clipPath><clipPath id="b"><rect class="a" width="1366" height="707.29" transform="translate(4345.341 69.14)"/></clipPath></defs><g transform="translate(-4345.341)"><g class="b"><rect class="c" width="1366" height="771" transform="translate(4366.046)"/><path class="d" d="M5732.046,9.537V768l-242.228-67.586-32.991-6.263,1.636-558.092,30.118-25.56Z"/><path class="d" d="M4682.343,125.471l-16.052,556.371-300.044,74.4V6.188l298.845,93.571Z"/><path class="e" d="M5064.024,89.071H4639.416V706.455h849.166V89.071Z"/><path class="c" d="M4366.047,60.78c121.656,30.38,335.7,73.888,615,80.372,352.971,8.194,622.428-47.1,751-78.7V0h-1366Z"/><path class="c" d="M4366.047,722.684c121.656-29.39,335.7-71.481,615-77.753,352.971-7.928,622.428,45.568,751,76.133v47.19L4366.247,771Z"/></g><g class="f"><path class="g" d="M4695.106,813.761s-1.242,17.439-3.106,23.1,11.841,3.9,12.445,4.117,11.209-6.776,11.209-6.776-6.789-2.065-4.568-23.638S4695.106,813.761,4695.106,813.761Z"/><path class="g" d="M4575.415,815.173s1.242,17.439,3.107,23.1-11.841,3.9-12.446,4.116-11.208-6.775-11.208-6.775,6.789-2.066,4.568-23.639S4575.415,815.173,4575.415,815.173Z"/><path class="h" d="M4619.729,638.9c-1.411,6.61-6.927,15.175-10.783,29.875a121.673,121.673,0,0,0-3.743,25.671c-1.215,27.491-10.821,35.723-12.79,44.348a13.191,13.191,0,0,0-.31,4.128c2.151,25.038-9.893,74.125-9.893,74.125s-2.565.218-6.217.339c-8.716.287-23.635-.015-24.857-5.282-1.743-7.478-8.519-26.3-8.519-36.689s4.489-28.607,5.953-33.029,2.423-24.5,0-31.421c-2.762-7.9-.173-24.374,3.713-40.477,4.5-18.654,10.768-36.8,12.511-40.515,0,0,31.233-13.409,37.927-10.828S4621.812,629.139,4619.729,638.9Z"/><path class="h" d="M4723.744,775.411c0,10.384-6.777,29.211-8.52,36.689s-31.074,4.943-31.074,4.943-12.044-49.087-9.893-74.125c.913-10.663-11.689-16.707-13.1-48.476a120.915,120.915,0,0,0-4.015-26.69c-3.84-14.081-9.13-22.4-10.511-28.856-2.083-9.757,10.315-17.167,17.009-19.755s37.926,10.828,37.926,10.828a225.45,225.45,0,0,1,7.44,21.831c6.015,20.117,12.655,48.083,8.784,59.161-2.422,6.919-1.464,27.007,0,31.421S4723.744,765.028,4723.744,775.411Z"/><path class="i" d="M4619.729,638.9c-1.411,6.61-6.927,15.175-10.783,29.875-7.712-1-17.688-5.411-27.656-8.95-8.346-2.958-20.533,4.445-29.007,10.663,4.5-18.654,10.768-36.8,12.511-40.515,0,0,31.233-13.409,37.927-10.828S4621.812,629.139,4619.729,638.9Z"/><path class="i" d="M4709.006,651.8a93.586,93.586,0,0,0-30.591,10.149c-6.369,3.351-13.787,5.026-21.273,5.8-3.84-14.081-9.13-22.4-10.511-28.856-2.083-9.757,10.315-17.167,17.009-19.755s37.926,10.828,37.926,10.828A225.45,225.45,0,0,1,4709.006,651.8Z"/><path class="j" d="M4588.928,507.851c-6.428-5.049-23.27-16.939-36.485-9.469s-9.8,23.891-15.516,30.83-33.1-10.663-61.384,19.744c-32.556,35.005-5.5,62.06,16.554,80.23,22.7,18.7,58.88,10.429,77.212-11.822,17.393-21.111,3.918-41.605,11.021-50.227s17.762-10.12,22.21-14.533c4.471-4.435,5.681-7.323,2.946-9.575s-8.45,2.281-14.366-3.953c-5.872-6.188-3.642-16.181,1.208-22.068S4591.72,510.046,4588.928,507.851Z"/><path class="j" d="M4570.381,519.527l12.951,10.67,160.981-197.683-10.463-8.62Z"/><path class="j" d="M4733.6,325.7l1.355-10.587c.585-4.577,31.951-24.93,41.814-28.176,2.744-.9,5.752-.153,4.77,3.006l-3.072,9.88c-.834,2.68-8.706,2.58-13.055,11.637l-6.857,14.285c-1.254,2.611-4.932,1.427-8.663,2.976s-5.009,3.1-7.15,5.522S4731.754,329.521,4733.6,325.7Z"/><rect class="k" width="1.945" height="4.175" transform="matrix(0.841, -0.541, 0.541, 0.841, 4766.93, 288.591)"/><path class="l" d="M4765.876,290.052a5.508,5.508,0,0,0,4.5-2.832l-1.237-1.924c-.6-.328-2.7-.251-4.511,2.737Z"/><rect class="k" width="1.946" height="4.176" transform="matrix(0.841, -0.54, 0.54, 0.841, 4760.301, 292.432)"/><path class="l" d="M4759.247,293.893a5.511,5.511,0,0,0,4.494-2.831l-1.237-1.926c-.6-.328-2.7-.25-4.51,2.737Z"/><rect class="k" width="1.945" height="4.176" transform="translate(4753.918 296.492) rotate(-32.695)"/><path class="l" d="M4752.865,297.953a5.5,5.5,0,0,0,4.493-2.831l-1.236-1.925c-.6-.328-2.7-.249-4.51,2.739Z"/><rect class="k" width="1.945" height="4.176" transform="matrix(0.842, -0.54, 0.54, 0.842, 4747.601, 300.783)"/><path class="l" d="M4746.548,302.244a5.507,5.507,0,0,0,4.493-2.831l-1.236-1.925c-.6-.328-2.7-.25-4.509,2.738Z"/><rect class="k" width="1.945" height="4.176" transform="translate(4741.671 305.151) rotate(-32.695)"/><path class="l" d="M4740.618,306.612a5.506,5.506,0,0,0,4.493-2.831l-1.236-1.925c-.6-.329-2.7-.25-4.511,2.737Z"/><rect class="k" width="1.946" height="4.176" transform="translate(4735.937 310.397) rotate(-32.708)"/><path class="l" d="M4734.884,311.858a5.5,5.5,0,0,0,4.493-2.831l-1.236-1.925c-.6-.329-2.7-.249-4.509,2.738Z"/><circle class="m" cx="21.071" cy="21.071" r="21.071" transform="translate(4523.506 542.021)"/><path class="n" d="M4739.83,312.859l-.786,11.034L4511.11,597.058"/><path class="n" d="M4517.092,601.918l226.525-275.345,1.946-18.96"/><path class="n" d="M4507.678,593.263l13.693,11.614-4.279,4.664-13.458-11.71Z"/><path class="g" d="M4514.18,506.261c-.355,1.065-5.682,23.8-2.486,34.1s41.193,57.876,48.65,66.4c0,0-2.287-14.951-2.242-16.015s-28.117-49.449-27.987-54.651c.045-1.776,4-11.719,5.4-29.829S4514.18,506.261,4514.18,506.261Z"/><path class="o" d="M4650.334,330.2c-3.962,5.179-5.051,3.153,1.41,10.025,2.91,4.462-4,4.526-8.91,6.885a9.376,9.376,0,0,0-2.782,1.9c-2.436,2.1-7.295,2.551-11.91,3.231-9.821-1.18-12.205,6.615-11.923-3.231.038-.128.09-.256.115-.385,2.411-8.32-11.4-.692-8.577-8.089,6.449-2.923-7.9.282-3.23-11.91,6.871-5.128-8.4-9.372,3.23-11.923.757-4.577,11.564-1.526,8.462-8.462,3.1-3.73,8.961-1.589,11.923-3.23,11.833-2.667,6.872,6.346,11.91,3.23,6.679-2.256,8.423,6.359,8.474,8.462C4652.36,320.832,4660.552,330.2,4650.334,330.2Z"/><path class="p" d="M4642.834,347.114a9.376,9.376,0,0,0-2.782,1.9c-2.436,2.1-7.295,2.551-11.91,3.231-9.821-1.18-12.205,6.615-11.923-3.231.038-.128.09-.256.115-.385,3.218-.6,6.168-1.777,6.167-4.32,0-11.481,13.6-12.777,13.6-12.777s3.7,7.8,3.926,8.649C4640.142,340.614,4641.462,343.857,4642.834,347.114Z"/><path class="q" d="M4593.816,376.445s30.376-.434,32.979-12.15,3.038-18.108,0-24.893,17.358,7.535,17.358,7.535-2.17,9.113,0,16.056,6.943,7.083,14.32,6.362,0,22.712,0,22.712-26.426,2.866-28.4,3.819-29.313.348-30.615,0S4593.816,376.445,4593.816,376.445Z"/><path class="r" d="M4584.662,558.537c1.235.093,7.12-2.385,16.532,3.585s19.034,15.3,26.156,13.868,2.351-9.554-1.768-11.336c-3.709-1.6-10.712-3.691-9.2-6.353s4.82-2.36,8.148.01,5.984.086,4.842-1.242-9.4-6.065-11.386-6.464c-1.473-.295-8.166,1.722-11.682.872s-17.485-5.484-17.485-5.484Z"/><path class="g" d="M4633.738,320.811s14.754-3.461,14.754,13.719-1.735,19.352-14.754,14.144S4618.984,321.589,4633.738,320.811Z"/><path class="s" d="M4781.856,510.176l-.257.023c-2.324.219-20.253,1.886-38.522,3.41-1.977.166-3.962.332-5.932.491-4.308.347-8.542.679-12.5.973-10.625.785-19.25,1.291-21.959,1.11l-4.1-9.108-3.464-7.705-1.584-3.524.15,1.555,1.1,6.353,6.844,39.8,16.873,98.053-173.332,2.1,5.41-47.97,2.92-25.9,2-17.68,6.286-55.735.468-4.128-5.29,22.819-83.255-2.422s9.681-38.99,34.221-113.756c9.078-27.679,45.4-49.963,93.261-34.546a125.679,125.679,0,0,1,13.674,5.312c2.354,1.072,11.356,20.239,25.92,13.493.31-.144.619-.287.921-.438,13.3-6.414,16.337-13.734,18.518-16.737,0-.008.007-.015.015-.023.075-.09.143-.181.211-.271,1.532-1.932,5.26-3.977,10.361-5.713,13.854-4.716,37.9-7.539,50.355,1.206s23.94,24.641,30.44,46.477c10.919,33.535,22.736,72.722,28.185,94.205.09.355.173.694.256,1.026C4781.2,507.52,4781.856,510.176,4781.856,510.176Z"/><path class="g" d="M4719.986,508.534c-1.593,1.346-2.343,3.537-13.072,7.048-4.734-7.57-48.966-41.908-63.627-50.727-3.262-2.817-7.458-6.482-8.868-7.9-2.423-2.439-6.725-7.932-6.636-9.357s-7.051-7.132-8.693-7.4-2.189,3.01,1.376,4.547,4.857,4.842,3.441,7.386-4.948-3.124-8.788-3.019-8.778,4.112-6.436,10.608,9.569,3.242,19.6,6.641c4.59,1.555,6.38,5.154,9.25,7.414,6.681,5.261,34.572,49.6,57.547,66.48s45.727-25.4,48.363-26.523C4743.445,513.725,4721.578,507.187,4719.986,508.534Z"/><path class="t" d="M4628.6,410.964l17.033,34.513,38.088,5.534-27.561,26.865,6.506,37.934L4628.6,497.9l-34.066,17.91,6.506-37.934-27.561-26.865,38.088-5.534Z"/><path class="u" d="M4742.148,515.1c-.611.777-1.388,1.848-2.316,3.124Z"/><path class="v" d="M4566.024,555.686c-4.708,5.886-11.945,28.516-15.439,40.047l11.206-99.313,2.9-12.912c18.111-16.246,10.383,31.165,12.247,45.548S4572.416,547.7,4566.024,555.686Z"/><path class="v" d="M4641.711,382.754c-4.309,5.584-14.39,11.326-20.178,7.538-8.542-5.584-23.815-5.591-26.479-18.638-1.057-5.162,2.03-6.973,6.142-7.267a125.679,125.679,0,0,1,13.674,5.312c2.354,1.072,11.356,20.239,25.92,13.493C4641.1,383.048,4641.409,382.9,4641.711,382.754Z"/><path class="j" d="M4648.367,472.989c-23.25,26.864-94.862,96.846-94.862,96.846l1.623-17.348c.121-.106.241-.219.377-.332,9.742-8.709,57.75-56.324,83.7-90.477,26.313-34.614,19.265-92.326,19.265-92.326s.694-1.419,1.758-3.335c0-.008.007-.015.015-.023.075-.09.143-.181.211-.271,1.532-1.932,5.26-3.977,10.361-5.713C4673.955,394.231,4669.171,448.955,4648.367,472.989Z"/><path class="w" d="M4619.389,436.742l.085,1.485-13.69,33.8.212,1.01,3.506,1.741,1.427-.484,18.146-31.3,1.234-.83s-.606-4.089-.493-4.315S4619.389,436.742,4619.389,436.742Z"/><path class="x" d="M4609.724,474.145l-3.361-1.668a1.818,1.818,0,0,1-.857-2.359l13.968-31.891,9.6,4.765-16.954,30.41A1.819,1.819,0,0,1,4609.724,474.145Z"/><path class="x" d="M4607.562,477.246l-2.362-1.172.8-3.04,3.506,1.74Z"/><path class="x" d="M4633.434,422.392l-.188-.093a10.393,10.393,0,0,0-13.931,4.689l-.094.188a10.381,10.381,0,0,0,.168,9.566l10.92,5.42a10.378,10.378,0,0,0,7.721-5.651l.093-.188A10.394,10.394,0,0,0,4633.434,422.392Z"/><rect class="y" width="4.619" height="1.858" rx="0.92" transform="translate(4619.673 448.027) rotate(-63.603)"/><rect class="w" width="4.619" height="1.858" rx="0.92" transform="translate(4619.673 448.027) rotate(-63.603)"/><path class="r" d="M4706.169,514.553a11.065,11.065,0,0,1,.747,1.026Z"/><path class="g" d="M4739.832,518.228c-7.788,10.7-26.2,35.655-44.748,22.019-22.978-16.873-50.868-61.221-57.546-66.481-2.875-2.256-4.663-5.855-9.251-7.41a46.393,46.393,0,0,0-11.123-2c-.151-.008-.3-.023-.453-.046-2.981-.294-5.3-.717-6.807-2.46a4.819,4.819,0,0,1-.5-.649,7.2,7.2,0,0,1-.724-1.486c-2.256-6.263,2.241-10.21,6.014-10.58.121-.015.249-.022.37-.03h.053c1.652-.045,3.245.981,4.641,1.954a2.954,2.954,0,0,0,.814.574c1.215.853,2.227,1.471,2.928.966a1.373,1.373,0,0,0,.408-.476,4.185,4.185,0,0,0,.339-.807,4.365,4.365,0,0,0,.144-.626,3.958,3.958,0,0,0,.588-.966l.023-.023a.1.1,0,0,0-.015.045.934.934,0,0,0,.053-.1c.015-.022.022-.022.045-.045.045-.06.1-.113.151-.173a3.315,3.315,0,0,1,.249-.249c.1-.114.211-.219.317-.325.158-.151.309-.3.46-.453a8.219,8.219,0,0,0,1.23-1.532,1.3,1.3,0,0,1,.287.725c-.083,1.426,4.218,6.92,6.64,9.357,1.412,1.419,5.607,5.086,8.867,7.9,10.587,6.368,36.6,26.048,52.015,39.337,1.7,7.312,4.12,18.043,3.886,19.091-.355,1.6,12.609.71,14.028,1.064C4714.168,524.589,4730.611,520.891,4739.832,518.228Z"/><path class="r" d="M4743.446,513.723a1.384,1.384,0,0,0-.377.3h-.007a10.251,10.251,0,0,0-.914,1.08c-1.184-.212-2.543-.468-4.014-.785-4.716.279-9.312.543-13.485.754-8.549.431-15.326.679-17.733.514v-.008c10.731-3.509,11.478-5.7,13.07-7.048a3.047,3.047,0,0,1,1.788-.136C4727.358,508.916,4743.446,513.723,4743.446,513.723Z"/><path class="s" d="M4780.052,502.924c-.083-.332-.166-.671-.256-1.026-2.416-9.525-6.085-22.533-10.371-36.982-7.618.338-15.347-.328-22.9-.706-14.4-.721-29.029-1.927-43.428-.859a9.753,9.753,0,0,1-1.529-.02,20.436,20.436,0,0,1-9.8,3.584,23.075,23.075,0,0,1-6.482-.264c.181,1.086.34,2.188.445,3.3.385,1.547.815,3.094,1.268,4.641,1.268,4.362,2.717,8.693,3.962,12.987.905,3.124,1.841,6.255,2.6,9.432l.068.3.067.1a.023.023,0,0,0,.008.015l1.426,1.954,11.04,15.183.747,1.026v.008c2.407.165,9.184-.083,17.733-.514,4.173-.211,8.769-.475,13.485-.754l4.928-.295h.007c19.25-1.184,38.787-2.58,38.787-2.58s-.091-.43-.257-1.245C4781.305,508.81,4780.777,506.312,4780.052,502.924Z"/><path class="v" d="M4721.774,508.395a22.717,22.717,0,0,1-5.184-4.112,15.691,15.691,0,0,0-1.922-1.767h0c-8.092-12.024-29.593-29.525-29.593-29.525l8.62,24.41a.023.023,0,0,0,.008.015c.053.241.732,3.071,1.6,6.776a101.314,101.314,0,0,1,10.866,10.361l.747,1.026v.008c2.407.165,9.184-.083,17.733-.514,4.173-.211,8.769-.475,13.485-.754C4733.116,513.225,4726.815,511.414,4721.774,508.395Z"/><g class="z"><path class="k" d="M4578.5,682.357l-.657.772-6.285,7.372-10.521,12.337q.438.649.832,1.342c.168.3.331.6.489.9l9.027-12.089,7.669-10.316Z"/><path class="k" d="M4575.957,680.821l-2.375,2.785-5.017,5.883-9.406,11.026a15.953,15.953,0,0,1,1.344,1.579l7.925-10.613,6.87-9.239q.491-.666.926-1.253Z"/><path class="k" d="M4558.381,699.771c2.828-3.782,13.94-18.652,15.225-20.481l-.02-.014-15.88,18.612.011,1.333C4557.944,699.4,4558.166,699.58,4558.381,699.771Z"/><path class="k" d="M4570.055,679.584c-.262.465-12.774,17.19-12.774,17.19l-.019-2.2Z"/><path class="k" d="M4566.912,679.827c-.209.372-10.2,13.728-10.2,13.728l-.02-1.757Z"/><path class="k" d="M4564.643,679.761c-.166.3-8.149,10.967-8.149,10.967l-.017-1.4Z"/><path class="k" d="M4570.614,701.978l-16.309-18.6q-1.016.666-2.059,1.29c4.746,4.861,11.721,12,17.752,18.16Z"/><path class="k" d="M4572.385,699.544l-15.664-17.864q-.814.617-1.657,1.191c3.983,4.081,11.163,11.434,16.885,17.273Z"/><path class="k" d="M4574.069,697.2l-14.407-16.429-1.375-.338q-.353.3-.712.587c2.747,2.816,10.708,10.973,16.209,16.581Z"/><path class="k" d="M4575.529,695.079l-12.146-13.852-2.452-.6s9.065,9.3,14.408,14.738C4575.4,695.268,4575.466,695.173,4575.529,695.079Z"/><path class="k" d="M4576.8,693.133l-10.283-11.727-1.961-.481s7.969,8.172,12.123,12.4Z"/><path class="k" d="M4577.921,691.722l-8.626-9.837-1.569-.385s6.917,7.092,10.095,10.321C4577.854,691.787,4577.887,691.754,4577.921,691.722Z"/></g><g class="z"><path class="k" d="M4701.148,717.671l.292.573,2.795,5.476,4.677,9.167q.487-.1.989-.161c.216-.027.432-.049.648-.068-1.278-2.149-3.079-5.179-4.894-8.23l-4.185-7Z"/><path class="k" d="M4699.63,718.786l1.056,2.069,2.23,4.371,4.179,8.194a10.485,10.485,0,0,1,1.252-.4l-4.3-7.225-3.748-6.273-.509-.848Z"/><path class="k" d="M4706.469,733.7c-1.53-2.577-7.548-12.706-8.308-13.9l-.013.009,7.053,13.833.784.318Q4706.224,733.816,4706.469,733.7Z"/><path class="k" d="M4697.471,721.946c.209.266,6.974,11.666,6.974,11.666l-1.295-.523Z"/><path class="k" d="M4696.849,723.848c.167.212,5.57,9.316,5.57,9.316l-1.035-.415Z"/><path class="k" d="M4696.259,725.162c.134.169,4.45,7.443,4.45,7.443l-.827-.331Z"/><path class="k" d="M4710.736,727.06l-14.868,5.042q.144.758.256,1.52c4-1.6,9.886-3.955,14.962-5.994C4710.969,727.439,4710.853,727.249,4710.736,727.06Z"/><path class="k" d="M4709.74,725.43l-14.281,4.843q.163.627.3,1.261c3.361-1.344,9.417-3.766,14.23-5.7Z"/><path class="k" d="M4708.772,723.872l-13.134,4.454-.532.724c.06.186.116.373.171.561,2.318-.927,9.036-3.612,13.661-5.475C4708.882,724.048,4708.827,723.96,4708.772,723.872Z"/><path class="k" d="M4707.885,722.5l-11.072,3.754-.95,1.292s7.653-3.056,12.142-4.866C4707.966,722.622,4707.925,722.562,4707.885,722.5Z"/><path class="k" d="M4707.054,721.283l-9.375,3.179-.758,1.033s6.728-2.686,10.215-4.095C4707.108,721.361,4707.081,721.322,4707.054,721.283Z"/><path class="k" d="M4706.5,720.284l-7.864,2.666-.607.827s5.839-2.332,8.5-3.411C4706.521,720.339,4706.509,720.311,4706.5,720.284Z"/></g><path class="aa" d="M4592.1,742.918c2.151,25.038-9.893,74.125-9.893,74.125s-2.565.218-6.217.339c.052-.521-6.187-.471-5.839-.958,14.382-20.108,16.512-56.462,18.51-65.783.46-2.147,1.591-8.681,3.749-11.851A13.191,13.191,0,0,0,4592.1,742.918Z"/><path class="ab" d="M4752.985,854.448c-6.429.86-19.439-.12-28.9-.649h-.007c-.3-.022-.581-.037-.868-.053-4.935-.264-8.768-.384-9.946-.007-.128.045-.286.083-.475.128-.468.113-1.117.242-1.909.362-7.139,1.11-25.574,2.211-25.8-3.327a13.6,13.6,0,0,1,.3-3.177c.045-.227.09-.453.151-.679.007-.015.007-.023.015-.038.068-.3.143-.611.234-.921.007-.007.007-.007.007-.015,1.63-5.72,5.577-11.764,6.452-11.243,11.712,6.972,23.167-1.276,25.528-3.155.295-.234.446-.369.446-.369s.445.03,1.29.113c.46.053,1.049.121,1.743.2.377.045.785.1,1.23.158.151.023.3.038.453.068q.543.067,1.154.158c.2.031.393.061.6.1h.008c1.109.174,2.346.385,3.712.642.853.158,1.743.332,2.687.528,1.418.287,2.943.626,4.558,1,.15.045.309.1.46.151.807.249,1.6.528,2.377.815a49.528,49.528,0,0,1,7.433,3.456l.007.007C4756.886,844.978,4760.916,853.392,4752.985,854.448Z"/><path class="ac" d="M4745.929,838.707a15.377,15.377,0,0,0-11.025,11.206s-5.04-.928-10.753-1.766c-.49-.068-1-.136-1.5-.2-.913-.129-1.842-.257-2.762-.37-.792-.1-1.577-.189-2.339-.272-4.241-.453-7.909-.619-9.1-.053-3.23,1.525-23.287,5.335-23.068.476a2.393,2.393,0,0,1,.151-.679c.007-.015.007-.023.015-.038a5.63,5.63,0,0,0,.234-.921c.007-.007.007-.007.007-.015,1.63-5.72,5.577-11.764,6.452-11.243,11.712,6.972,23.167-1.276,25.528-3.155.295-.234.446-.369.446-.369s.445.03,1.29.113c.46.053,1.049.121,1.743.2.377.045.785.1,1.23.158.151.023.3.038.453.068q.543.067,1.154.158c.2.031.393.061.6.1h.008c1.109.174,2.346.385,3.712.642.853.158,1.743.332,2.687.528,1.418.287,2.943.626,4.558,1,.15.045.309.1.46.151.807.249,1.6.528,2.377.815a49.528,49.528,0,0,1,7.433,3.456Z"/><path class="ad" d="M4724.083,832.006c-.218.2-.528.5-.9.883a22.529,22.529,0,0,0-3.547,4.535,10.641,10.641,0,0,0-.822,1.766c-.083.234-.151.476-.212.717l-2.2-.536a11.535,11.535,0,0,1,1.147-2.852v-.008a16.841,16.841,0,0,1,1.064-1.7,24.977,24.977,0,0,1,2.633-3.192c.377.045.785.1,1.23.158.151.023.3.038.453.068Q4723.472,831.915,4724.083,832.006Z"/><path class="ad" d="M4731.094,833.274c-1.26,1.185-4.5,4.49-5.275,7.705l-2.2-.536c.732-3.019,3.116-5.939,4.791-7.7C4729.26,832.9,4730.15,833.078,4731.094,833.274Z"/><path class="ad" d="M4738.489,835.244c-1.472,1.464-4.067,4.361-4.754,7.2l-2.2-.536c.694-2.9,2.92-5.7,4.573-7.478C4736.919,834.678,4737.712,834.957,4738.489,835.244Z"/><path class="x" d="M4719.888,847.574a9.349,9.349,0,0,1-1.781,1.147,12.934,12.934,0,0,0-5.32,5.146c-1.336,2.324-1.751,4.664-1.283,5.894l-1.411.535c-.558-1.464-.287-3.742.785-6.067a14.6,14.6,0,0,1,6.55-6.859c.038-.023.083-.045.121-.068,3.758-1.954,3.139-4.2,1.26-8.112q-.159-.339-.34-.7c-.211-.43-.422-.867-.626-1.3-.106-.226-.2-.453-.294-.672a5.328,5.328,0,0,1-.227-4.075,3.564,3.564,0,0,1,.445-.762c.295-.234.446-.369.446-.369s.445.03,1.29.113l.2.6a1.923,1.923,0,0,0-1.011,1.034,3.028,3.028,0,0,0-.083,1.766,7.429,7.429,0,0,0,.588,1.728q.216.441.43.882c.068.136.129.272.2.4C4721.51,841.273,4723.246,844.827,4719.888,847.574Z"/><path class="x" d="M4728.06,840.179a28.435,28.435,0,0,1-1.924,3.826,20.463,20.463,0,0,0-1.985,4.142,6.517,6.517,0,0,0,.6,5.29l-.664.362h-.007l-.657.355c-.075-.136-.143-.272-.211-.408a7.85,7.85,0,0,1-.558-5.8,20.9,20.9,0,0,1,2.173-4.686,25.779,25.779,0,0,0,1.826-3.615,4.044,4.044,0,0,0,.257-1.253,4.622,4.622,0,0,0-.883-2.792,10.582,10.582,0,0,0-2.845-2.709c-.362-.241-.6-.377-.611-.385l.362-.656q.543.067,1.154.158c.2.031.393.061.6.1h.008a12.148,12.148,0,0,1,2.3,2.234,7.269,7.269,0,0,1,1.17,2.173A5.4,5.4,0,0,1,4728.06,840.179Z"/><path class="ab" d="M4518.209,857.03c6.429.86,19.438-.121,28.9-.649h.008c.3-.023.581-.038.867-.053,4.935-.264,8.769-.385,9.946-.007.128.045.287.083.475.128.468.113,1.117.241,1.91.362,7.138,1.109,25.573,2.211,25.8-3.328a13.625,13.625,0,0,0-.3-3.177c-.046-.226-.091-.452-.151-.679-.008-.015-.008-.022-.015-.037-.068-.3-.144-.612-.234-.921-.008-.008-.008-.008-.008-.015-1.63-5.72-5.576-11.764-6.452-11.244-11.711,6.973-23.166-1.275-25.528-3.154-.294-.234-.445-.37-.445-.37s-.445.031-1.291.114c-.46.052-1.048.12-1.743.2-.377.046-.784.1-1.23.159-.151.022-.3.037-.452.068q-.545.067-1.155.158c-.2.03-.392.06-.6.1h-.007c-1.109.174-2.347.385-3.713.642-.853.158-1.743.332-2.686.528-1.419.287-2.943.626-4.558,1-.151.046-.309.1-.46.151-.808.249-1.6.529-2.377.815a49.7,49.7,0,0,0-7.433,3.456l-.008.008C4514.307,847.56,4510.278,855.974,4518.209,857.03Z"/><path class="ac" d="M4525.264,841.289a15.376,15.376,0,0,1,11.025,11.206s5.041-.928,10.753-1.766c.491-.068,1-.136,1.5-.2.913-.128,1.841-.256,2.762-.369.792-.1,1.577-.189,2.339-.272,4.241-.453,7.908-.619,9.1-.053,3.23,1.524,23.287,5.335,23.069.475a2.477,2.477,0,0,0-.151-.679c-.008-.015-.008-.022-.015-.037a5.557,5.557,0,0,1-.234-.921c-.008-.008-.008-.008-.008-.015-1.63-5.72-5.576-11.764-6.452-11.244-11.711,6.973-23.166-1.275-25.528-3.154-.294-.234-.445-.37-.445-.37s-.445.031-1.291.114c-.46.052-1.048.12-1.743.2-.377.046-.784.1-1.23.159-.151.022-.3.037-.452.068q-.545.067-1.155.158c-.2.03-.392.06-.6.1h-.007c-1.109.174-2.347.385-3.713.642-.853.158-1.743.332-2.686.528-1.419.287-2.943.626-4.558,1-.151.046-.309.1-.46.151-.808.249-1.6.529-2.377.815a49.7,49.7,0,0,0-7.433,3.456Z"/><path class="ad" d="M4547.11,834.588c.219.2.528.5.906.883a22.474,22.474,0,0,1,3.546,4.535,10.731,10.731,0,0,1,.823,1.766c.083.234.151.475.211.717l2.2-.536a11.553,11.553,0,0,0-1.147-2.852v-.008a17.153,17.153,0,0,0-1.064-1.7,25.207,25.207,0,0,0-2.634-3.192c-.377.046-.784.1-1.23.159-.151.022-.3.037-.452.068Q4547.72,834.5,4547.11,834.588Z"/><path class="ad" d="M4540.1,835.856c1.26,1.185,4.5,4.49,5.274,7.7l2.2-.535c-.732-3.019-3.117-5.939-4.792-7.7C4541.933,835.486,4541.043,835.66,4540.1,835.856Z"/><path class="ad" d="M4532.705,837.825c1.471,1.464,4.067,4.362,4.754,7.2l2.2-.536c-.695-2.9-2.921-5.7-4.573-7.478C4534.274,837.259,4533.482,837.539,4532.705,837.825Z"/><line class="ae" x1="2.153" y1="9.138" transform="translate(4623.078 411.316)"/><line class="ae" y1="9.287" x2="2.972" transform="translate(4632.92 410.892)"/><line class="ae" y1="4.729" x2="6.361" transform="translate(4639.209 419.947)"/><path class="af" d="M5313.29,439.989s-31.452,34.363-29.7,76.881l-2.621,45.721s4.95,31.743,16.89,46.595,41.936,24.171,41.936,24.171,53.875-18.056,58.534-31.161,25.045-77.754,24.463-80.084-25.045-47.76-25.045-47.76Z"/><path class="ag" d="M5358.72,410.576s-31.16,5.824-46.886,32.325c0,0,18.638,36.693,71.057,72.222l6.115,5.241,21.259-4.95Z"/><path class="af" d="M5412.3,507.551l-.874,10.193s-32.325-30.578-43.974-53.293-13.978-42.809-8.736-53.875c0,0,29.995-12.231,46.3,9.027Z"/><path class="ag" d="M5412.3,507.551s-11.067-13.979-13.688-31.452-1.747-47.759,6.407-56.5c0,0,27.083,12.814,26.792,46.886S5412.3,507.551,5412.3,507.551Z"/><path class="ah" d="M5539.663,678.592v22.521l-49.7,52.613.194-34.364Z"/><path class="ah" d="M5340.664,723.052v11.842l34.17,7.184s-4.271-6.019.582-7.378,2.33-6.407,2.33-6.407Z"/><path class="ah" d="M5449.385,743.243s-3.494,3.494-1.553,5.63,3.106,4.465-.194,6.989l42.129,8.348V751.785Z"/><path class="ah" d="M5489.767,764.21l21.745-20.773s-8.737,1.359-4.66-5.048-.776-8.154-.776-8.154l-16.5,15.726Z"/><path class="ah" d="M5520.054,718.78s.777,3.495,7.96-.776c0,0,3.3-.194,2.136,4.853l9.707-9.9V699.948Z"/><path class="ai" d="M5339.5,695.095l1.165,27.957,149.3,30.675.194-34.364Z"/><path class="aj" d="M5333.093,688.979l.291,4.951,160.752,26.21v-5.824Z"/><path class="ak" d="M5545.681,668.594l.583,4.951-52.128,46.595v-5.824Z"/><path class="al" d="M5545.681,668.594,5402.4,647.044l-69.31,41.935,161.043,25.336Z"/><path class="am" d="M5440.843,664.226l22.424,2.038-4.077,15.726s-9.9,2.912-13.4,2.912-17.765-3.2-19.221-4.951-4.077-6.7-3.2-8.445,8.736-6.407,8.736-6.407Z"/><path class="am" d="M5383.764,667.138l-4.368,6.7s-7.863,17.764,45.139,23.588,72.8-7.28,80.376-17.764a20.267,20.267,0,0,0,.582-7.863l-4.077-4.077S5409.974,695.677,5383.764,667.138Z"/><path class="an" d="M5481.322,656.072s-47.759-11.067-81.832,2.329c0,0-20.385,6.116-16.89,16.309s52.127,30.286,110.953,8.736C5493.553,683.446,5522.966,669.759,5481.322,656.072Zm-27.083,15.143c-1.456,4.368-14.852,5.242-19.512,2.621s4.66-4.951,4.66-4.951S5455.695,666.847,5454.239,671.215Z"/><path class="am" d="M5483.943,635.978s-5.811,11.832-3.772,19.986l-13.119-2.136-.582-41.439,18.347-.874Z"/><path class="am" d="M5463.558,598.7v9.464s3.64,3.349,13.978,2.33,7.572-2.621,7.572-2.621v-9.9Z"/><path class="am" d="M5464.577,596.809s2.767-14.415-6.7-19.657l10.047-19.075s8.009,2.912,11.794,10.338,4.077,25.773,3.2,28.831C5482.924,597.246,5476.517,602.633,5464.577,596.809Z"/><path class="af" d="M5468.333,560.246l-34.755-24.251c1.136-3.04,1.876-5,1.876-5l32.473,27.086Z"/><path class="ao" d="M5468.362,560.408l-.874,6.4-.047.057L5429.4,547.225c1.561-4.224,3.064-8.247,4.176-11.23l34.755,24.251Z"/><path class="ap" d="M5467.441,566.87l-4.611,5.77-1.069.974c-4.429-1.747-11.254-4.386-17.716-6.653a83.341,83.341,0,0,0-20.4-3.943c1.551-4.362,3.709-10.252,5.756-15.793Z"/><path class="aq" d="M5461.761,573.614l-3.88,3.536s-35.819-7.426-36.4-7.426c-.157,0,.75-2.716,2.162-6.706h0a83.341,83.341,0,0,1,20.4,3.943C5450.507,569.228,5457.332,571.867,5461.761,573.614Z"/><line class="ar" x1="1.327" y1="0.926" transform="translate(5432.251 535.069)"/><line class="ar" x1="2.391" y1="1.236" transform="translate(5427.011 545.989)"/><path class="ar" d="M5421.04,562.88s.969.024,2.6.138"/><path class="an" d="M5464.745,595.127s-5.372,1.179-2.883,3.538,14.675,5.5,23.585.917c0,0,3.407-1.7.131-3.8l-1.965-1.048s1.31,3.276-9.172,2.883S5464.745,595.127,5464.745,595.127Z"/><path class="an" d="M5463.7,607.147s-5.97,1.311-3.2,3.932,16.308,6.115,26.21,1.019c0,0,3.785-1.893.145-4.223l-2.184-1.165s1.456,3.641-10.192,3.2S5463.7,607.147,5463.7,607.147Z"/><path class="as" d="M5472.294,618.8l-6.7,24.462,20.677,27.374h8.445l-25.627-27.374,7.572-24.171Z"/><path class="ag" d="M5430.068,531.431c-.108-.867-18.347-.874-18.347-.874s-17.182,25.336-23.006,39.023c0,0-2.33,11.358,2.039,19.8a106.475,106.475,0,0,0,7.571,12.813S5432.98,554.728,5430.068,531.431Z"/><path class="af" d="M5411.721,530.557s-1.747-4.077-.582-11.066,2.912-23.88,2.621-27.666,8.154-21.55,18.055-25.336c0,0,4.951,32.034,4.077,41.062s-5.824,23.88-5.824,23.88Z"/><path class="ag" d="M5376.775,533.469l-2.621,18.347s-65.815-4.66-93.189,10.775c0,0-5.825-40.479,0-54.166l3.2-5.534Z"/><path class="ag" d="M5297.855,609.186s31.452-42.227,81.832-43.392l5.534,2.913s-25.628,10.192-36.985,33.489-8.445,31.161-8.445,31.161S5304.262,618.213,5297.855,609.186Z"/><path class="an" d="M5388.715,569.58s-17.473-1.456-14.852-24.171,19.22-37.276,28.831-37.567,8.445,11.649,8.445,11.649l.582,11.066Z"/><path class="an" d="M5398.762,407.809c-37.567-15.289-78.192,21.841-78.192,21.841-67.271,72.077-41.935,158.568-20.967,180.409,17.433,18.16,32.762,28.831,65.087,19.657s67.708-66.4,73.386-107.022S5436.329,423.1,5398.762,407.809Zm7.863,177.788c-33.2,55.477-90.423,53.293-115.322,11.357s-13.978-171.672,77.755-188.271c0,0,32.762-6.553,51.545,34.946S5439.824,530.12,5406.625,585.6Z"/><path class="c" d="M5486.273,670.633l-.1,2.264h7.729l.818-2.264Z"/><path class="c" d="M5489.527,672.489l-.2,2.136,1.526-2.136Z"/><path class="at" d="M5486.171,672.9l-20.492-28.525-.083-1.113,20.677,27.374Z"/></g></g></svg>