<svg xmlns="http://www.w3.org/2000/svg" xmlns:xlink="http://www.w3.org/1999/xlink" width="1366" height="771" viewBox="0 0 1366 771"><defs><style>.a,.ap,.k,.z{fill:none;}.ax,.b,.e{fill:#000;}.c{fill:#d2c3db;}.d{fill:#eadff1;}.e{stroke:#4f3b65;stroke-width:7.018px;}.ap,.e,.k,.z{stroke-miterlimit:10;}.f{fill:#d8a35d;}.g{fill:#62548a;}.h{fill:#ffc84f;}.i{opacity:0.3;}.j{opacity:0.5;}.k{stroke:#947dce;stroke-width:1.04px;}.l{fill:#947dce;}.m{fill:#d19442;}.n{fill:#999;}.o{fill:#ccc;}.p{fill:gray;}.q{opacity:0.15;}.r{fill:#b3b3b3;}.s{fill:#ce521f;}.t{fill:#ebebeb;}.u{fill:#8e96a3;}.v{fill:#d7fafe;}.w{fill:#27367a;}.x{fill:#d0d1d6;}.y{fill:#dfeddf;}.z{stroke:#313431;stroke-width:5.136px;}.aa{fill:#728ad6;}.ab{fill:#5f73b3;}.ac{fill:#8fa0d6;}.ad{fill:#313431;}.ae{fill:#6c4e49;}.af{fill:#4f3936;}.ag{fill:#c6dffe;}.ah{fill:#6eb3ff;}.ai{clip-path:url(#a);}.aj{fill:#fc8268;}.ak{fill:#fbca69;}.al{fill:#e48282;}.am{fill:#e49581;}.an{fill:#f4b5a3;}.ao{fill:#323942;}.ap{stroke:#323942;stroke-width:0.493px;}.aq{fill:#df6767;opacity:0.64;mix-blend-mode:multiply;isolation:isolate;}.ar{fill:#927dcc;}.as{fill:#05132b;}.at{fill:#497b90;}.au{fill:#89a527;opacity:0.86;}.av{fill:#cbdf7d;opacity:0.85;}.aw{fill:#b3d336;opacity:0.6;}.ax{opacity:0.2;}.ay{opacity:0.1;}</style><clipPath id="a"><rect class="a" width="72.149" height="91.309" transform="translate(4866.862 408.031)"/></clipPath></defs><g transform="translate(-4366.046)"><rect class="b" width="1366" height="771" transform="translate(5732.047 771) rotate(-180)"/><path class="c" d="M4366.046,9.537V768l242.228-67.586,32.991-6.263-1.636-558.092-30.118-25.56Z"/><path class="c" d="M5415.75,125.471,5431.8,681.842l300.044,74.4V6.188L5433,99.758Z"/><path class="d" d="M5034.069,89.071h424.608V706.455H4609.512V89.071Z"/><path class="b" d="M5732.047,60.78c-121.657,30.38-335.7,73.888-615,80.372-352.971,8.194-622.428-47.1-751-78.7V0h1366Z"/><path class="b" d="M5732.047,722.684c-121.657-29.39-335.7-71.481-615-77.753-352.971-7.928-622.428,45.568-751,76.133v47.19L5731.846,771Z"/><path class="e" d="M5510.945,244.522V450.3c0,.353.351.653.828.709l68.944,8,21.89,2.53,79.581,9.238c.6.069,1.135-.268,1.135-.709V224.75c0-.441-.539-.778-1.135-.709l-79.581,9.239-21.89,2.53-68.944,8C5511.3,243.869,5510.945,244.169,5510.945,244.522Z"/><path class="f" d="M5420.354,579.761s-.289,133.842,5.392,135.606c10.2,3.231,49.887,13.2,7.269,14.219-21.623,3.371-20.487-1.639-21.217-5.724-.6-3.338-11.2-122.09-12.97-131.236l-.635-3.286Z"/><path class="f" d="M5341.388,579.373s-8.422,133.07-14.123,134.773c-10.232,3.121-50.025,12.661-7.42,14.14,21.585,3.6,20.5-1.419,21.277-5.5.632-3.331,5.789-28.574,7.655-37.7.418-2.044,15.616-105.21,15.616-105.21Z"/><path class="g" d="M5343.848,714.507c.455-1.885-13.174-3.143-14.878-1.752s-29.419,4.123-29.732,12.235,37.945,5.748,40.65,5.842S5342.953,718.214,5343.848,714.507Z"/><path class="h" d="M5327.135,431.7a8.438,8.438,0,0,0,4.882,2c11.252-.272,59.846-1.572,86.12-4.242,9.269-.943,15.76-2.055,16.851-3.359a.857.857,0,0,1,0,.108c0,1.455-.108,18.114-.321,39.953-.42,43.113,6.73,104.521,12.744,122.991,1.3,3.986-59.3.521-59.3.521-2.117-44.38-1.325-122.49-4.2-125.863-3.5-4.1-5.853,64.674-9.488,122.3-23.617,7.281-61.616,5.158-61.286,2.69C5317.052,559.484,5327.135,431.7,5327.135,431.7Z"/><g class="i"><path d="M5372.08,432.37l-.544-.021S5371.729,432.354,5372.08,432.37Z"/><path class="j" d="M5372.08,432.37c14.52.519,46.057-2.914,46.057-2.914,9.269-.943,15.76-2.055,16.851-3.359a.857.857,0,0,1,0,.108c0,1.455-.108,18.114-.321,39.953a10.561,10.561,0,0,1-1.529-.109,11.848,11.848,0,0,1-7.9-5.105,26.352,26.352,0,0,1-3.251-6.088C5410.3,434.8,5376.734,432.583,5372.08,432.37Z"/></g><line class="k" x1="8.289" y2="160.872" transform="translate(5329.351 430.188)"/><line class="k" x1="8.296" y2="158.077" transform="translate(5344.689 432.725)"/><line class="k" x1="5.783" y2="156.864" transform="translate(5362.064 432.072)"/><line class="k" x2="1.747" y2="32.363" transform="translate(5382.162 431.444)"/><line class="k" x2="4.066" y2="159.605" transform="translate(5398.051 430.746)"/><line class="k" x2="6.241" y2="160.85" transform="translate(5411.719 430.046)"/><line class="k" x2="10.192" y2="161.602" transform="translate(5425.157 429.457)"/><path class="k" d="M5325.795,448.457s86.452.286,109.068-4.787"/><path class="k" d="M5383.909,463.807c-29.886,8.162-59.248-1.378-59.248-1.378"/><path class="k" d="M5383.493,461.779s27.578,6.459,51.223-1.056"/><path class="k" d="M5323.692,474.234s22.254,10.435,57.333,3.078"/><path class="k" d="M5322.525,488.294s34.306,8.849,57.416,2.507"/><path class="k" d="M5321.349,502.263s17.834,12.759,57.541,4.941"/><path class="k" d="M5319.972,518.332s26.891,12.582,58.174,1.823"/><path class="k" d="M5318.682,533.053s19.2,12.4,58.593,2.979"/><path class="k" d="M5317.32,548.147s26.288,12.306,59.3-.017"/><path class="k" d="M5316.217,559.928s15.8,13.917,59.684,1.159"/><path class="k" d="M5314.9,573.3s25.082,11.839,60.262.725"/><path class="k" d="M5385.373,476.347s11.794,8.9,50.039.23"/><path class="k" d="M5386.293,490.477s16.3,6.745,48.79-.573"/><path class="k" d="M5386.2,506.209s24.986,6.345,49.5-2.173"/><path class="k" d="M5386.42,519.242s24.439,9.6,50.332-2.21"/><path class="k" d="M5386.644,533.551s23.173,7.007,51.4-2.256"/><path class="k" d="M5386.878,547.294s19.616,7.786,52.666-2.312"/><path class="k" d="M5387.411,559.438s23.357,10.768,53.883-1.112"/><path class="k" d="M5387.528,574.644a105.7,105.7,0,0,0,56.1-1.813"/><path class="g" d="M5409.937,712.344c-.435-1.891,16.1-1.006,17.793.4s26.042,5.618,26.269,13.733-38,5.339-40.711,5.4S5410.791,716.06,5409.937,712.344Z"/><path class="l" d="M5318.4,438.116c8.08,11.22,71.438,20.848,104.4,14.583a51.3,51.3,0,0,0,10.864-3.162c3.125-1.375,6.153-4.958,9.041-10.233,21.979-40.173,35.586-178.465,19.732-186.34-17.932-8.911-50.345,1.019-50.345,1.019l-12.044,15.606-58.115,34.7s-13.478,50.061-20.694,89.186c-.533,2.884-1.03,5.711-1.487,8.447C5316.768,419.857,5315.58,434.2,5318.4,438.116Z"/><path class="m" d="M5407.814,235.942c.008,1.245-2.136,14.24-.861,17.484s8.636,5.621,8.132,6.164-10.458,10.818-19.7,8.191-4.009-8.191-4.009-8.191a19.126,19.126,0,0,0,4.759-14.815C5395.192,235.586,5407.814,235.942,5407.814,235.942Z"/><path class="l" d="M5295,427.969c27.347,4.04,85.769-23.617,85.769-23.617l-5.574-15.584s-34.513,1.6-40.108,2.531c0,0,16.862-13.985,22.259-32.629,3.972-13.715,51.908-72.392,66.3-97.971,5.174-9.2-11.566-6.716-11.566-6.716s-3.781,10.032-10.273,11.227a7.2,7.2,0,0,1-3.64-.284c-8.7-2.9-9.049-6.561-9.049-6.561a166.643,166.643,0,0,0-21.759,3.587c-11.288,2.6-25.035,6.938-36.316,14.06-23.614,14.918-40.112,61.306-42.881,77.577S5267.661,423.929,5295,427.969Z"/><path class="n" d="M5409.474,326.52l-4.389,90.658a9.578,9.578,0,0,1-10.019,9.1l-61.876-3a2.965,2.965,0,0,1-.437-.043,9.541,9.541,0,0,1-8.65-9.978l4.389-90.659a9.562,9.562,0,0,1,10.021-9.087l59.006,2.854,2.868.137A9.562,9.562,0,0,1,5409.474,326.52Z"/><path class="o" d="M5406.169,326.34,5401.78,417a9.563,9.563,0,0,1-10.021,9.087l-59.006-2.854a9.541,9.541,0,0,1-8.65-9.978l4.389-90.659a9.562,9.562,0,0,1,10.021-9.087l59.006,2.854A9.542,9.542,0,0,1,5406.169,326.34Z"/><circle class="p" cx="7.388" cy="7.388" r="7.388" transform="translate(5357.207 363.223)"/><ellipse class="f" cx="15.815" cy="21.577" rx="15.815" ry="21.577" transform="translate(5385.589 201.404) rotate(-2.403)"/><path class="h" d="M5395.837,210.174s27.991,14.019,18.85-9.991C5408.363,183.571,5376.725,200.1,5395.837,210.174Z"/><path class="h" d="M5399.558,204.19s-14.924,9.724-13.065,18.772c0,0-4.516-27.057,10.673-28.379s21.143-.1,21,28.717C5418.164,223.3,5412.783,200.607,5399.558,204.19Z"/><path class="h" d="M5396.51,194.788s.413-8.507,8.865-7.659,12.253,5.5,13.655,10.247,2.752,8.3,3.953,8.25c0,0-3.45,3.752-4.7,2.6,0,0,3.477,8.5-.184,15.752,0,0-2.015-10.851-8.066-11.8S5396.51,194.788,5396.51,194.788Z"/><path class="h" d="M5397.276,194.682s-6.152-3.348-11.8,5.3l-3.3,7.352s1.25,1.149,3.6-.152c0,0-.739,8.5.608,13.227l2.942-14.578Z"/><path class="q" d="M5319.749,401.925a77.262,77.262,0,0,0,4.584,6.515c.016.02-.128,2.372-.113,2.392,3.169,4.055,6.718,6.609,13.352,12.633.06.056,1.839.078,1.9.133q1.042.945,2.148,1.926c20.571,18.252,58.209,24.712,81.177,27.175a51.3,51.3,0,0,0,10.864-3.162c3.125-1.375,6.153-4.958,9.041-10.233l-121.466-45.826-4.119-1.556S5314.939,394.241,5319.749,401.925Z"/><path class="q" d="M5446.586,276.916s-21.362,24.869-34.561,50.055c-.992,1.892-6.541,15.955-6.552,15.993-8.557,29.819-12.788,74.351-12.788,74.351L5413.1,368Z"/><path class="f" d="M5314.081,395.938c5.012.7,17.986,5.115,17.986,5.115l2.583-8.009s-6.164-3.83-7.868-5.9-2.62-3.839-4.029-4.925-5.107-2.011-5.107-2.011l-.419.544-.414.538-.137-.012a13.636,13.636,0,0,1-1.99-.261,7.113,7.113,0,0,0-2.193,1.5,3.653,3.653,0,0,0-.617.705,5.832,5.832,0,0,1-1.853,1.538c-.207.128-.377.228-.469.294s-.36.319-.7.651c-.837.837-2.139,2.226-2.549,2.719a27.569,27.569,0,0,0-2.662,2.624,2.984,2.984,0,0,0-.294.531C5302.839,392.812,5309.069,395.241,5314.081,395.938Z"/><path class="l" d="M5424.278,307.488c0-1.333,11.179-62.617,35.11-56.058s40.09,12.153,49.413,59.076-10.085,138.532-91.244,132.5-72.146-30.76-92.376-41.7l3.9-15.47s3.51,6.018,13.772,3.565,39.782-10.1,57.5-6.9c0,0,14.433-11.029,13.276-17.122s7.059-48.665,14.76-58.919S5424.278,307.488,5424.278,307.488Z"/><path class="q" d="M5316.676,381.276a.63.63,0,0,0,.145.137c.435.261,3.121,1.185,3.412,1.272s-.983-.721-1.331-.75a7.843,7.843,0,0,1-1.675-1.185l-.414.538Z"/><path class="f" d="M5390.638,382.539c.214-.251,3.248.563,3.522.747,1.458.981,2.276,2.484,4.023,2.7.49.06,3.166.4,2.869-.637a4.169,4.169,0,0,0-1.612-2.173,1.067,1.067,0,0,1,.107.008c.17.008.553.036,1.114.1a34.536,34.536,0,0,1,5.1,1.055c3.832,1.074,8.668-2.22,8.937-2.568s-.32-.849-2.15-1.312c-.023-.008-.043-.012-.067-.019a57.914,57.914,0,0,0-5.772-.874s7.116-.134,11.141-.134a6.534,6.534,0,0,0,.889-.059h.016a7.017,7.017,0,0,0,4.382-2.489.554.554,0,0,0-.406-.911c-1.235-.043-3.321-.14-4.881-.341-1.9-.245-7.2.414-9.2.683-.486.063-.778.107-.778.107s-1.711-.083,3.994-2.635,5.318-10.418,5.318-10.418a.949.949,0,0,0-.506-.107c-.64.02-1.837.518-3.394,3.267-2.35,4.164-6.787,5.444-7.336,6.788s-4.757,3.847-4.757,3.847-2.287.992-3.5,1.352c-.861.256-1.043,1.473-1.075,2.145-.008.2,0,.351,0,.415v.035a12.188,12.188,0,0,1-2.354-.94C5393.167,379.569,5390.639,382.539,5390.638,382.539Z"/><path class="q" d="M5408.649,376.317c-.486.063-.778.107-.778.107s-1.711-.083,3.994-2.635,5.318-10.418,5.318-10.418a.949.949,0,0,0-.506-.107,3.669,3.669,0,0,1,.083,1.545c-.218.936-2.426,6.724-4.52,8.047s-5.234,3.141-5.622,3.418S5407.7,376.633,5408.649,376.317Z"/><path class="q" d="M5398.78,378.36a3.549,3.549,0,0,1,1.94.284c.6.442,3.583.83,4.464,1.047.609.154,4.812.541,7.36.77-.023-.008-.043-.012-.067-.019a57.914,57.914,0,0,0-5.772-.874s7.116-.134,11.141-.134a6.534,6.534,0,0,0,.889-.059c-3.812-.087-9.715-.249-10.682-.289-1.435-.055-4.137.439-5.073,0s-3.086-1.157-3.528-.936A2.127,2.127,0,0,1,5398.78,378.36Z"/><path class="q" d="M5396.619,381.078l2.928,2.105c.17.008.553.036,1.114.1a2.916,2.916,0,0,0-.933-1.442,10.215,10.215,0,0,0-3.109-1.181C5396.611,380.86,5396.615,381.014,5396.619,381.078Z"/><path class="q" d="M5367.368,261.952c2.586,2.38,5.931,4.652,9.056,4.357,6.334-.6,10.853,1.206,16.261,4.22,3.532,1.969,7.2-2.089,9.131-5.319a7.2,7.2,0,0,1-3.64-.284c-8.7-2.9-9.049-6.561-9.049-6.561A166.643,166.643,0,0,0,5367.368,261.952Z"/><path class="r" d="M4697.138,576.593h406.775l-59.124-70.949H4744.438Z"/><rect class="r" width="18.92" height="163.183" transform="translate(5089.724 739.777) rotate(-180)"/><rect class="r" width="13.007" height="192.745" transform="translate(5045.972 698.39) rotate(-180)"/><rect class="r" width="13.007" height="192.745" transform="translate(4758.628 698.39) rotate(-180)"/><rect class="r" width="18.92" height="163.183" transform="translate(4729.065 739.777) rotate(-180)"/><path class="s" d="M4969.558,473.248h0a.517.517,0,0,0,.306-.664l-.421-1.143-.97.358.421,1.143A.518.518,0,0,0,4969.558,473.248Z"/><path class="s" d="M4964.148,475.24h0a.519.519,0,0,0,.307-.664l-.421-1.143c-.028-.076-.967.368-.967.368l.417,1.133A.518.518,0,0,0,4964.148,475.24Z"/><path class="t" d="M4969.662,473.024h0a.519.519,0,0,0,.307-.664l-.461-1.251a.518.518,0,0,0-.664-.307h0a.52.52,0,0,0-.307.665l.461,1.251A.518.518,0,0,0,4969.662,473.024Z"/><path class="t" d="M4964.263,475.012h0a.519.519,0,0,0,.307-.664l-.461-1.251a.517.517,0,0,0-.664-.306h0a.518.518,0,0,0-.306.664l.46,1.251A.518.518,0,0,0,4964.263,475.012Z"/><rect class="u" width="3.392" height="2.199" transform="translate(4971.724 487.027) rotate(159.783)"/><rect class="u" width="3.392" height="2.199" transform="translate(4970.274 483.391) rotate(159.783)"/><path class="v" d="M4814.885,553.588H4987.16a3.829,3.829,0,0,0,4.138-3.774v-2.582l-18.857-34.845a6,6,0,0,0-5.376-3.333H4835.231c-2.46,0-7.885,4.846-8.984,7.046l-15.557,31.714v1.139C4810.652,552.256,4812.787,553.588,4814.885,553.588Z"/><path class="w" d="M4814.87,549.94h172.274c1.913,0,5.062-1.678,3.879-3.74l-18.6-37.46a6,6,0,0,0-5.376-3.333H4835.216a6.493,6.493,0,0,0-5.809,3.591L4811,545.838C4809.706,548.186,4812.772,549.94,4814.87,549.94Z"/><rect class="x" width="141.08" height="89.147" rx="5.158" transform="translate(4831.373 416.194)"/><rect class="b" width="130.196" height="77.247" transform="translate(4967.036 498.304) rotate(-180)"/><path class="v" d="M4876.036,548.319H4926.8a.916.916,0,0,0,.9-1.06l-2.141-13.37a1.486,1.486,0,0,0-1.468-1.252h-45.785a1.307,1.307,0,0,0-1.293,1.118l-1.962,13.446A.99.99,0,0,0,4876.036,548.319Z"/><path class="v" d="M4832.76,529.878h137.923c1.53,0,2.7-.588,2.456-1.237l-5.816-15.609c-.314-.842-2.005-1.461-3.989-1.461h-124.4c-1.763,0-3.259.555-3.513,1.3l-5.331,15.7C4829.88,529.265,4831.135,529.878,4832.76,529.878Z"/><rect class="w" width="143.831" height="0.726" transform="translate(4973.534 514.987) rotate(-180)"/><rect class="w" width="143.831" height="0.726" transform="translate(4973.534 518.619) rotate(-180)"/><rect class="w" width="143.831" height="0.726" transform="translate(4973.534 522.977) rotate(-180)"/><rect class="w" width="143.831" height="0.726" transform="translate(4973.534 526.973) rotate(-180)"/><rect class="w" width="1.09" height="23.972" transform="translate(4963.299 531.344) rotate(162.561)"/><rect class="w" width="1.09" height="23.972" transform="translate(4952.766 531.343) rotate(162.561)"/><rect class="w" width="1.09" height="23.972" transform="translate(4944.412 531.344) rotate(162.561)"/><rect class="w" width="1.09" height="23.972" transform="translate(4936.058 531.344) rotate(162.561)"/><rect class="w" width="1.09" height="23.972" transform="translate(4927.341 531.344) rotate(162.561)"/><rect class="w" width="1.09" height="23.972" transform="translate(4915.877 531.735) rotate(169.022)"/><rect class="w" width="1.09" height="23.972" transform="translate(4903.797 532.058) rotate(-180)"/><rect class="w" width="1.09" height="23.972" transform="translate(4840.251 531.67) rotate(-162.561)"/><rect class="w" width="1.09" height="23.972" transform="translate(4850.421 531.67) rotate(-162.561)"/><rect class="w" width="1.09" height="23.972" transform="translate(4860.591 531.67) rotate(-162.561)"/><rect class="w" width="1.09" height="23.972" transform="translate(4870.761 531.67) rotate(-162.561)"/><rect class="w" width="1.09" height="23.972" transform="translate(4880.93 531.67) rotate(-162.561)"/><rect class="w" width="1.09" height="23.972" transform="translate(4891.1 531.67) rotate(-162.561)"/><path class="y" d="M4438.718,218.075l111.571,11.758V412.508S4434.4,426.535,4435.108,427.3s0-205.724,0-205.724l.95-3.779Z"/><path class="z" d="M4438.718,218.075l111.571,11.758V412.508S4434.4,426.535,4435.108,427.3s0-205.724,0-205.724l.95-3.779Z"/><line class="z" y2="189.205" transform="translate(4498 227.291)"/><line class="z" x1="110.049" y2="5.538" transform="translate(4438.079 351.607)"/><line class="z" x1="110.049" y1="3.213" transform="translate(4438.079 286.091)"/><path class="aa" d="M4461.52,206.85s1.813.038-1.886,2.522c-3.73,2.505-1.25-3.388-1.25-3.388l-2.769.158s-.891,1.205-1.748.736a5.939,5.939,0,0,0-2.6-.312l-2,.62s-1.05-3.507-1.689-2.529c-.525.805-2.667-.371-4.3-1.047l-2.061-.221c-.873.429-1.424,1.425-2.331.388-1.233-1.41-.04,2.505-.618,1.51s-1.971.274-2.785-2.365c-.018-.058-.036-.109-.053-.157l-.548-.06c-.474,1.195-.964,5.052-2.274,5.158-1.715.138-2.317-2.507-2.769-5.719l-1.52-.174a9.059,9.059,0,0,0-.112,2.71c.354,2.761-3.1,2.312-3.1,2.312s-.1-2.917-.62-3.64a18.246,18.246,0,0,0-2.519-2.136q-1.334-.164-2.673-.334c-.142.511-.3,1.139-.539,1.783-.734,1.949-.475,2.031-2.755,1.561s-1.728,1.57-2.134-.251c-.371-1.665-.337-1.824-.835-3.925q-.744-.1-1.49-.211a33,33,0,0,1-1.333,3.146c-1.624,3.215-2.819.717-4.8-1.63a29.957,29.957,0,0,1-1.952-2.738l-.9-.147a2.1,2.1,0,0,0-.112.2c-.72,1.391-1.788,3.811-3.561,2.525-1.409-1.023-1.855-3.184-2.151-3.719l-.216-.039h0c-.346.641-.152,1.624-1.548,4.664s-1.4.128-2.04-3.017a9.391,9.391,0,0,0-.963-2.5c-.257-.05-.514-.1-.772-.149.695,21.556.777,32.584,2.844,56.79,2.059,24.1,6.121,62.123,8.862,87.9.547,5.141.732,1.861.531,6.361-.013.29-.019.507-.02.664-.046.323-.1.675-.15,1.065-1.4,10.014-4.481,32.83-5.021,45.314-.107,2.626-.71,2.912-1.017,11.763-.391,11.284-.147,36.023-.7,45.613s-4.281,19.625.956,20.275c2.486.308,16.1-5.78,21.869-6.253,2.825-.231,5.757,2.874,11.035.544,7.51-3.315,6.309-5.489,9.167-6.322.281-.082.3-.168.3-.2a.827.827,0,0,0,.207.2c-1.1-8.009,1.151-7.1-.536-16.68-1.694-9.622-6.815-23.175-7.641-34.793-.487-6.846-.854-15.079-1.054-20.914-.167-4.873-.667-5.024-1.123-8.911-.114-.965-.3-1.729-.459-2.646-.76-4.293-1.661-8.639-2.486-12.841-.2-1.005-.406-2.078-.556-2.876-.3-1.6-.7-3.52-.91-4.85a35.3,35.3,0,0,1-.4-7.732c.019-.406.056-.591.086-.94s.076-.661.116-.981c.02-.158.047-.322.065-.442.035-.237.1-.615.133-.795a18.817,18.817,0,0,1,.464-1.906c.16-.513.171-.515.324-.92.57-.552,1.134-1.212,1.686-1.794.217-.229.445-.532.7-.824,9.234-10.578,15.159-26.367,19.292-39.786,9.428-30.61,13.742-61.838,16.009-93.585l-.365-.046Z"/><path class="ab" d="M4446.292,298.966c-.192,3.669-.165,4.177-1.169,7.216-3.26,9.872-10.991,20.277-16.431,28.969-.2.318-.479.718-.634.967-1.3,2.082-2.751,4.545-3.839,6.542a5.835,5.835,0,0,0-.664,1.508,12.37,12.37,0,0,0-.394,2.853c-.034.4-.041.8-.044,1.307-.014,2.435.207,4.994.249,7.465v.02c.021,1.87.294,4.1.437,5.849.167,2.052.291,3.666.307,5.642,0,.017,0,.033,0,.046-.015.452,0,.775-.044,1.25-.24,2.782-.571,5.71-.881,8.481-.068.612-.173,1.545-.221,1.966-.233,2.022-.433,3.7-.665,5.622-.077-1.793-.207-3.812-.278-5.472s-.043.057-.121-2.352-.619-8.588-.587-11.827.4-5.132.646-8.764c.148-2.16.616-6.538.879-9.279.119-1.25.281-2.874.461-4.273.3-2.353.385-3.514.735-6.161,1.765-13.355,3.236-27.4,6.516-40.363.015-.057.02-.082.035-.145.2-.835.258-.989.462-1.933,3.575-16.531,4.429-33.783,7.311-50.355,2.256-12.968,2.994-26.566,4.1-39.774.9.318,1.828-.337,2.719.623-.034,17.492.164,41.946.019,57.957C4445.054,278.221,4447,285.4,4446.292,298.966Z"/><path class="ac" d="M4425,376.964a9.362,9.362,0,0,1-.014,1.773c-1.968,11.037,1.955-2.352-1.877,14.051-3.864,16.543-3.158,53.774-3.186,69.473.129,8.533-.188-6.213-.091,3.455-7.058.84-14.284,3.879-21.477,6.454.384-17.122.9-32.275.964-50.272s2.554-39.3,5.417-57.792c.829-5.356.039-11.442-.052-16.759-.019-1.1-.222-4.318-.326-5.858-1.115-16.6-3.279-42.857-4.352-57.515-1.659-22.646-8.056-51.133-4.226-68.774,2.036-9.38,1.695-8.679,2.055-17.646,1.452,1.029,3.082.575,4.594,1.112.51,2.564.918,6.815,1.977,8.988,2.145,4.4,3.02,1.467,3.569-1.663.235-1.341.458-4.7.6-6.378,2.773.349,5.524.826,8.262,1.209.629,5.522,1.476,11.054,1.794,16.563,0,.005-.011.022-.011.03.45,12.565.713,25.694-.051,37.89-.765,12.217,1.979,18.3,2.353,31.872s-.768,37.289-3.976,51.572a19.128,19.128,0,0,0-.418,3.61,12.023,12.023,0,0,0,.747,4.582,1.171,1.171,0,0,0,.07.165c1.613,3.369,3.905,6.029,5.575,9.375a12.566,12.566,0,0,1,.522,1.247,22.561,22.561,0,0,1,1.011,3.453,34.89,34.89,0,0,1,.629,5.862c0,.056.007.158.006.2a.311.311,0,0,0,0,.052C4425.009,370.615,4425.2,373.541,4425,376.964Z"/><path class="ab" d="M4419.463,201.092c3.06,1.137,6.373.154,9.234,2.2-.591,16.94-2.363,46.975-4.208,61.246-2.168,16.758-2.717,22.256-3.563,34.66-.848,12.427-.334,21.072-2.213,32.5-.734,4.467-1.058,6.759-1.73,10.652-.385,2.231-.411,2.682-.7,4.629-.012.08-.012.111-.018.16a48.97,48.97,0,0,0-.4,6.729c.084,5.656.1,16.081.114,20.288s-.165,1.906-.2,3.637a14.111,14.111,0,0,1-.081,1.418c-.052,1.232-.175,2.685-.231,4-2.15-.345-4.308-.81-6.487-1.006.045-1.859.033-.8.1-3.062s-.111,4.318.057-1.481,1.263-23.019,1.868-29.429.087-1.331.479-6.109-.516,6.842.242-2.673,2.946-31.128,3.5-42.649-.579-20.847-.282-31.088.851-23.216,1.2-31.737,1.111-10.785,1.485-16.321.865-9.549,1.172-12.925S4419.19,203.546,4419.463,201.092Z"/><path class="ad" d="M4402.193,341.856c8.25.472,16.374.694,24.347.966-.452,1.365-.841,2.757-1.247,4.143-7.273.122-14.7.57-22.2.411C4402.793,345.537,4402.5,343.7,4402.193,341.856Z"/><path class="ad" d="M4430.926,353.56c-.652-2.422-2.289-3.991-3.609-5.782a8.155,8.155,0,0,0-1.8-1.564,1.9,1.9,0,0,0-.237-.129,1.106,1.106,0,0,0-.2-.1,2.013,2.013,0,0,0-1.418-.111c-.124.5-.151.57-.282,1.175-.069.318-.163.7-.277,1.31a34.255,34.255,0,0,0-.64,9.36,10.022,10.022,0,0,0,1,3.434,3.651,3.651,0,0,0,.347.548,4.183,4.183,0,0,0,.725.794c.636.467,1.451,1.027,2.188.792C4430.107,362.215,4431.908,357.216,4430.926,353.56Zm-4.75,6.854a1.158,1.158,0,0,1-.964-.154c-1.42-.776-1.781-2.639-1.845-4.45v-.017c.053-2.762.27-5.463.573-8.24.5.046.425-.18,1.006.421a20.566,20.566,0,0,1,3.728,4.278C4430.146,354.825,4429.382,359.662,4426.176,360.414Z"/><path class="ad" d="M4430.668,345.283c-1.037-.7-3.377-.63-4.692-.573-.257.011-.5.018-.683.032s-.194.008-.343.026c.063.232.137.554.191.766s.089.365.134.543.087.354.126.507.054.237.1.378c.563.264,1.283.539,1.789.792s-.033-.1.676.323,3.222,2.142,3.965,2.627,2.621,1.27,2.5-.357S4432.152,346.282,4430.668,345.283Zm2.044,4.812c-1.754-.647-4.9-3.292-6.746-4.444,1.4-.845,4.415.252,5.138.891S4434.459,350.741,4432.712,350.1Z"/><path class="ad" d="M4586.315,217.005q-.01.227-.036.426a2.783,2.783,0,0,0-2.52-2.723L4387.4,189.117s-2.892-.837-3.33,2.091c-.026-.276-.037-.565-.037-.877.014-3.838,3.385-2.856,3.385-2.856l196.354,25.932S4586.477,213.522,4586.315,217.005Z"/><path class="ae" d="M4586.279,217.431c-.351,2.985-2.792,2.19-2.792,2.19l-196.071-24.257c-1.287-.265-3.075-1.049-3.348-4.153v0c.438-2.928,3.33-2.091,3.33-2.091l196.361,25.591A2.783,2.783,0,0,1,4586.279,217.431Z"/><path class="ad" d="M4397.108,188.854a1.432,1.432,0,0,1,1.2-.606c1.078.138,1.773,2.052,1.953,2.548,1.035,2.852.365,6.524-1.182,6.743-.334.047-1.007.124-2.048-.948-.694-.025-1.316-.156-2.012-.182a3.962,3.962,0,0,0,1.5,2.028,3.513,3.513,0,0,0,3.992-.031c.91-.679,1.082-1.7,1.318-3.09a8.146,8.146,0,0,0-.5-5.079c-.356-.761-1.24-2.66-2.768-2.974-1.588-.326-2.683.925-2.562,1.385C4396.064,188.9,4396.6,188.765,4397.108,188.854Z"/><path class="ad" d="M4411.34,190.732a1.39,1.39,0,0,1,1.165-.6c1.045.134,1.719,2.018,1.894,2.506,1,2.806.354,6.424-1.146,6.642-.324.047-.976.124-1.986-.93-.674-.023-1.276-.151-1.952-.175a3.9,3.9,0,0,0,1.456,1.994,3.366,3.366,0,0,0,3.871-.037c.883-.671,1.05-1.675,1.279-3.046a8.132,8.132,0,0,0-.487-5c-.345-.749-1.2-2.618-2.684-2.924-1.54-.318-2.6.916-2.485,1.37C4410.328,190.776,4410.851,190.646,4411.34,190.732Z"/><path class="ad" d="M4425.145,192.554a1.344,1.344,0,0,1,1.131-.592c1.014.13,1.668,1.984,1.837,2.464.975,2.762.344,6.328-1.112,6.545-.314.047-.947.124-1.926-.912-.654-.022-1.239-.147-1.894-.169a3.828,3.828,0,0,0,1.413,1.962,3.226,3.226,0,0,0,3.756-.045c.856-.661,1.018-1.651,1.24-3a8.12,8.12,0,0,0-.472-4.926c-.335-.736-1.168-2.576-2.6-2.874-1.494-.31-2.525.907-2.411,1.354C4424.163,192.6,4424.671,192.47,4425.145,192.554Z"/><path class="ad" d="M4438.543,194.322a1.3,1.3,0,0,1,1.1-.586c.984.126,1.619,1.952,1.784,2.425.946,2.719.333,6.234-1.08,6.451-.305.046-.919.123-1.87-.9-.635-.02-1.2-.142-1.838-.163a3.767,3.767,0,0,0,1.371,1.93,3.1,3.1,0,0,0,3.646-.05c.832-.654.989-1.629,1.2-2.96a8.106,8.106,0,0,0-.458-4.853c-.326-.725-1.133-2.536-2.529-2.827-1.45-.3-2.45.9-2.34,1.339C4437.589,194.368,4438.082,194.24,4438.543,194.322Z"/><path class="ad" d="M4455.96,196.621a1.249,1.249,0,0,1,1.055-.578c.946.121,1.557,1.91,1.715,2.373.909,2.665.32,6.112-1.038,6.328-.293.047-.884.124-1.8-.874-.61-.018-1.156-.136-1.767-.155a3.675,3.675,0,0,0,1.318,1.889,2.929,2.929,0,0,0,3.505-.058c.8-.642.951-1.6,1.158-2.9a8.094,8.094,0,0,0-.44-4.757c-.314-.711-1.09-2.484-2.432-2.766-1.394-.293-2.356.888-2.25,1.318C4455.043,196.668,4455.517,196.541,4455.96,196.621Z"/><path class="af" d="M4461.7,197.378a1.231,1.231,0,0,1,1.041-.574c.934.119,1.537,1.9,1.693,2.356.9,2.646.316,6.071-1.025,6.287-.289.047-.872.124-1.774-.866-.6-.018-1.141-.135-1.744-.153a3.653,3.653,0,0,0,1.3,1.875,2.874,2.874,0,0,0,3.459-.06c.789-.639.939-1.59,1.143-2.887a8.091,8.091,0,0,0-.435-4.726c-.309-.705-1.076-2.467-2.4-2.746-1.377-.29-2.326.884-2.221,1.312C4460.8,197.426,4461.265,197.3,4461.7,197.378Z"/><path class="aa" d="M4531.623,215.336s-1.538-.353,1.588,2.711c3.1,3.04,1.046-2.836,1.046-2.836l2.294.728s.733,1.277,1.435,1.03a4.418,4.418,0,0,1,2.115.254l1.613.964s.84-2.921,1.349-1.916c.417.824,2.109.215,3.393-.05l1.6.223c.674.552,1.1,1.537,1.8.808.943-.986.031,2.2.473,1.444s1.5.624,2.118-1.513c.014-.047.027-.088.04-.127l.414.057c.357,1.131.725,4.569,1.707,4.906,1.276.439,1.722-1.725,2.056-4.4l1.119.147a9.367,9.367,0,0,1,.083,2.343c-.261,2.3,2.26,2.55,2.26,2.55a10.225,10.225,0,0,1,.449-2.98,9.423,9.423,0,0,1,1.811-1.333q.951.114,1.9.224c.1.457.209,1.014.381,1.6.517,1.771.335,1.793,1.934,1.813s1.2,1.618,1.483.175c.257-1.318.233-1.456.576-3.11l1.025.1c.228.774.516,1.79.912,2.844,1.1,2.936,1.912,1.09,3.247-.483a17.59,17.59,0,0,0,1.3-1.886l.6.043c.024.053.048.111.074.179.475,1.259,1.179,3.41,2.339,2.677.917-.58,1.206-2.242,1.4-2.619l.14.007h0a32.269,32.269,0,0,0,1,4.014c.9,2.675.9.339,1.306-2.065a6.88,6.88,0,0,1,.613-1.826c.163.006.326.013.489.018-.44,17.057-.492,25.836-1.811,44.945-1.324,19.176-3.967,49.745-5.774,70.748-.362,4.215-.486,1.551-.352,5.208.009.236.013.413.013.541.031.26.064.544.1.859.926,8.053,2.948,26.252,3.3,36.265.069,2.1.461,2.255.661,9.341.253,9.022.1,28.976.45,36.576s2.746,14.732-.619,16.542c-1.621.872-10.785-.666-14.819.429s-10.557.331-14.9.43c-.216,0-.231-.065-.228-.091a1.083,1.083,0,0,1-.159.234c.847-7.315-.889-5.927.413-14.773,1.3-8.815,5.165-21.661,5.782-31.847.362-5.985.635-13.137.783-18.19.123-4.217.493-4.409.831-7.806.083-.843.218-1.519.338-2.326.559-3.764,1.219-7.576,1.822-11.244.144-.876.3-1.81.405-2.5.219-1.39.507-3.056.661-4.205a35.736,35.736,0,0,0,.291-6.608c-.013-.344-.04-.5-.062-.794s-.055-.558-.084-.828c-.014-.133-.034-.271-.047-.373-.025-.2-.073-.517-.1-.668-.075-.5-.241-1.243-.337-1.6-.116-.429-.124-.43-.235-.767-.415-.442-.826-.977-1.23-1.448-.16-.185-.326-.433-.514-.672-6.912-8.79-11.489-22.573-14.751-34.541-7.661-28.108-11.273-57.193-13.2-86.871l.312.038Z"/><path class="ab" d="M4544.078,300.425a19.833,19.833,0,0,0,.923,6.432c2.549,8.736,8.456,17.7,12.5,25.017.146.264.352.6.465.8.949,1.724,2.005,3.754,2.793,5.4a5.059,5.059,0,0,1,.478,1.244,11.877,11.877,0,0,1,.283,2.4c.025.333.03.671.032,1.1.01,2.064-.148,4.249-.179,6.347v.014c-.015,1.59-.212,3.5-.314,5-.121,1.757-.21,3.139-.222,4.818,0,.015,0,.028,0,.039.011.383,0,.659.032,1.058.173,2.338.411,4.788.634,7.1.049.511.124,1.29.159,1.641.167,1.686.31,3.082.476,4.681.056-1.527.149-3.25.2-4.662s.03.043.086-2,.442-7.321.419-10.053-.284-4.3-.461-7.353c-.106-1.816-.441-5.489-.629-7.794-.086-1.052-.2-2.419-.332-3.6-.219-1.982-.277-2.962-.529-5.194-1.277-11.308-2.349-23.282-4.762-34.459-.011-.05-.015-.072-.026-.126-.151-.725-.192-.86-.343-1.679-2.673-14.463-3.317-29.517-5.51-44.286-1.734-11.682-2.3-23.763-3.165-35.614-.707.1-1.429-.669-2.129,0,.026,15.53-.13,37.2-.015,51.432C4545.055,282.051,4543.516,288.321,4544.078,300.425Z"/><path class="ac" d="M4560.193,367.3a9.244,9.244,0,0,0,.01,1.507c1.419,9.128-1.421-1.782,1.353,11.694,2.755,13.38,2.255,44.852,2.274,58.068s.134-5.279.065,2.885c4.934-1.12,9.843-.451,14.593-.168-.249-13.731-.589-25.864-.628-40.4s-1.678-31.492-3.579-46.279c-.554-4.314-.026-9.346.035-13.7.013-.9.148-3.539.217-4.8.742-13.577,2.172-34.921,2.877-46.764,1.084-18.2,5.2-40.407,2.747-55.039-1.318-7.869-1.1-7.248-1.33-14.535-.946.571-2.015-.088-3.012.075-.338,2-.609,5.388-1.314,6.982-1.436,3.25-2.025.7-2.4-1.968-.159-1.144-.31-3.951-.4-5.354-1.89-.222-3.786-.335-5.693-.526-.441,4.51-1.037,9-1.261,13.576a.1.1,0,0,1,.007.026c-.317,10.492-.5,21.5.036,31.831s-1.4,15.239-1.667,26.668.546,31.45,2.808,43.34a18.642,18.642,0,0,1,.293,3,12.236,12.236,0,0,1-.523,3.876c-.016.057-.029.089-.049.142-1.136,2.927-2.763,5.322-3.958,8.275-.12.3-.25.68-.375,1.1a23.8,23.8,0,0,0-.729,3.014,35.81,35.81,0,0,0-.455,5.042c0,.048-.005.135,0,.168s0,.033,0,.044C4560.188,361.9,4560.049,364.412,4560.193,367.3Z"/><path class="ab" d="M4564.158,218.713c-2.179.382-4.57-1.087-6.661.111.434,14.619,1.729,40.531,3.067,52.86,1.559,14.36,1.952,19.036,2.555,29.54.6,10.488.238,17.778,1.569,27.352.518,3.723.745,5.631,1.217,8.86.269,1.847.288,2.223.492,3.835.008.066.008.092.012.133a48.462,48.462,0,0,1,.279,5.6c-.059,4.731-.07,13.442-.08,16.958a17.353,17.353,0,0,0,.139,3.017c.024,1.441.021.153.057,1.175s.122,2.222.16,3.316c1.491-.541,2.976-1.177,4.462-1.589-.031-1.526-.023-.654-.065-2.512s.075,3.545-.039-1.215-.86-18.884-1.273-24.145-.06-1.1-.329-5.029.354,5.634-.165-2.2-2.034-25.806-2.42-35.421.4-17.356.2-25.912-.592-19.456-.835-26.618-.778-9.18-1.04-13.876-.609-8.157-.826-11.048S4564.351,220.828,4564.158,218.713Z"/><path class="ad" d="M4575.972,336.307c-5.543.784-11.18,1.379-16.9,2.027.33,1.14.613,2.3.907,3.461,5.195-.331,10.345-.392,15.4-.95C4575.575,339.331,4575.77,337.818,4575.972,336.307Z"/><path class="ad" d="M4558.944,355.823c.536.134,1.127-.416,1.588-.869a3.993,3.993,0,0,0,.523-.737,3.69,3.69,0,0,0,.25-.494,10.426,10.426,0,0,0,.716-2.991,33.564,33.564,0,0,0-.459-7.884c-.081-.513-.149-.828-.2-1.093-.094-.506-.114-.567-.2-.98a1.286,1.286,0,0,0-1.025.177.837.837,0,0,0-.144.093,1.539,1.539,0,0,0-.172.124,7.18,7.18,0,0,0-1.311,1.445c-.968,1.617-2.175,3.075-2.657,5.207C4555.121,351.049,4556.458,355.2,4558.944,355.823Zm-1.43-9.289a19.326,19.326,0,0,1,2.719-3.9c.421-.547.362-.35.727-.42.218,2.338.375,4.614.413,6.953v.014c-.046,1.541-.307,3.151-1.332,3.928a.8.8,0,0,1-.7.212C4556.993,352.946,4556.429,348.851,4557.514,346.534Z"/><path class="ad" d="M4553.239,345.293c-.094,1.42,1.315.606,1.869.136s2.41-2.117,2.929-2.519.125-.073.5-.32.894-.526,1.3-.785c.029-.122.041-.194.069-.328s.059-.284.091-.439l.1-.47c.039-.184.093-.462.138-.663-.108-.006-.117,0-.248,0s-.309.007-.5.012c-.958.026-2.677.1-3.444.762C4554.939,341.626,4553.333,343.873,4553.239,345.293Zm2.48-3.506c.536-.594,2.756-1.712,3.775-1.071-1.345,1.093-3.666,3.564-4.972,4.241S4555.182,342.382,4555.719,341.787Z"/><path class="af" d="M4579.3,212.9c-.159-.279-.435-.672-.78-.72-.7-.1-1.158,1.317-1.276,1.684-.681,2.116-.24,5.219.773,5.675.218.1.656.28,1.332-.4.45.1.851.11,1.3.214a2.292,2.292,0,0,1-.968,1.362,2.138,2.138,0,0,1-2.6-.735,5,5,0,0,1-.868-2.747,7.6,7.6,0,0,1,.331-4.03c.235-.548.815-1.915,1.814-1.87a1.94,1.94,0,0,1,1.662,1.611C4579.976,213.131,4579.627,212.922,4579.3,212.9Z"/><path class="af" d="M4569.816,211.645c-.163-.282-.447-.681-.8-.73-.722-.1-1.188,1.332-1.309,1.7-.7,2.142-.246,5.284.793,5.748.223.1.673.285,1.366-.4.461.106.872.113,1.332.219a2.319,2.319,0,0,1-.993,1.378,2.211,2.211,0,0,1-2.667-.749,5.027,5.027,0,0,1-.89-2.783,7.6,7.6,0,0,1,.339-4.08c.241-.555.836-1.939,1.86-1.891a1.979,1.979,0,0,1,1.7,1.634C4570.508,211.883,4570.15,211.671,4569.816,211.645Z"/><path class="ad" d="M4560.089,210.362c-.167-.287-.458-.691-.821-.741-.739-.1-1.218,1.347-1.342,1.723-.716,2.168-.252,5.351.813,5.822.229.1.69.29,1.4-.4.473.109.9.116,1.366.224a2.337,2.337,0,0,1-1.018,1.394,2.289,2.289,0,0,1-2.736-.762,5.074,5.074,0,0,1-.913-2.821,7.619,7.619,0,0,1,.348-4.132c.247-.561.858-1.962,1.908-1.912a2.021,2.021,0,0,1,1.748,1.658C4560.8,210.6,4560.432,210.388,4560.089,210.362Z"/><path class="ad" d="M4550.11,209.045c-.171-.291-.47-.7-.842-.752-.759-.1-1.25,1.362-1.377,1.743-.735,2.2-.259,5.42.835,5.9.235.1.708.294,1.437-.406.485.111.918.119,1.4.23a2.092,2.092,0,0,1-3.852.633,5.094,5.094,0,0,1-.937-2.859,7.609,7.609,0,0,1,.357-4.185c.254-.568.88-1.985,1.958-1.933a2.063,2.063,0,0,1,1.793,1.682C4550.839,209.291,4550.463,209.073,4550.11,209.045Z"/><path class="ad" d="M4536.267,207.218c-.178-.3-.487-.714-.872-.767-.786-.109-1.295,1.383-1.427,1.77-.761,2.232-.268,5.516.864,6.006.244.1.734.3,1.489-.41.5.114.951.123,1.452.237a2.4,2.4,0,0,1-1.082,1.432,2.481,2.481,0,0,1-2.907-.8,5.125,5.125,0,0,1-.971-2.911,7.612,7.612,0,0,1,.37-4.259c.262-.578.912-2.019,2.028-1.963a2.124,2.124,0,0,1,1.857,1.716C4537.022,207.471,4536.632,207.247,4536.267,207.218Z"/><path class="ad" d="M4531.47,206.585c-.18-.3-.493-.719-.883-.772-.8-.111-1.311,1.39-1.444,1.78-.77,2.245-.271,5.549.875,6.042.247.106.742.3,1.507-.411.508.115.962.125,1.469.239a2.411,2.411,0,0,1-1.1,1.44,2.524,2.524,0,0,1-2.943-.8,5.148,5.148,0,0,1-.982-2.93,7.6,7.6,0,0,1,.375-4.284c.265-.581.922-2.03,2.052-1.973a2.148,2.148,0,0,1,1.88,1.728C4532.234,206.84,4531.839,206.614,4531.47,206.585Z"/><rect class="w" width="146.283" height="88.945" rx="7.91" transform="translate(4827.845 416.631)"/><rect class="ag" width="135.657" height="77.555" transform="translate(4832.873 421.657)"/><rect class="ah" width="135.657" height="36.624" transform="translate(4832.873 462.587)"/><g class="ai"><path class="aj" d="M4921.356,429.025l2.186,25.967s5.447-1.691,8.582,3.066-1.429,6.285-1.431,6.286c.517-.173,2.17,1.872,2.41,2.179,1.28,1.637,2.777,4.6.949,6.388a3.4,3.4,0,0,1-3.638.493c-.921-.345-2.786-1.419-2.963-2.531,1.1,6.9-5.062,8.547-6.386,8.377s-15.974-5.412-15.974-5.412l-5.245,4.356-11.231-2.31s-9.587,3.927-11.361-3.279c-.945-3.843.378-7.769,4.128-9.384a8.392,8.392,0,0,1-5.143-.525,5.344,5.344,0,0,1-3.06-4c-.51-4.24,4.339-5.081,7.486-4.765l6.7-25.943Z"/><path class="ak" d="M4869.6,500.162s7-31.45,34.682-30.951,30.723,32.128,30.723,32.128Z"/><circle class="al" cx="5.137" cy="5.137" r="5.137" transform="translate(4879.476 446.056) rotate(-88.969)"/><circle class="al" cx="5.137" cy="5.137" r="5.137" transform="matrix(0.018, -1, 1, 0.018, 4917.611, 446.743)"/><path class="am" d="M4910.068,460.12,4909.4,448.7l-8.93,1.063-1.755,16.65A16.078,16.078,0,0,0,4910.068,460.12Z"/><path class="an" d="M4886.232,436.152a28.157,28.157,0,0,0,.145,6.274c.5,5.4,2.991,10.138,7.833,12.833,4.859,2.7,11.521,3.752,16.779,1.7a15.568,15.568,0,0,0,8.922-8.473c1.9-4.524,2.029-10.352,1.872-15.277-.584-18.246-15.432-18.244-15.432-18.244S4886.573,413.08,4886.232,436.152Z"/><path class="an" d="M4898.72,466.409l-.773,7.328s.2,3.673,6.122,4.478,6.736-5.382,6.736-5.382l-.737-12.713A16.078,16.078,0,0,1,4898.72,466.409Z"/><ellipse class="ao" cx="1.823" cy="0.912" rx="1.823" ry="0.912" transform="translate(4894.82 441.798) rotate(-88.969)"/><ellipse class="ao" cx="1.823" cy="0.912" rx="1.823" ry="0.912" transform="translate(4911.687 442.411) rotate(-88.969)"/><path class="ap" d="M4904.052,441.362s-2.751.862-1.856,1.79a1.263,1.263,0,0,0,1.823.033"/><circle class="al" cx="1.919" cy="1.919" r="1.919" transform="translate(4892.365 443.95)"/><circle class="al" cx="1.919" cy="1.919" r="1.919" transform="translate(4911.515 444.749)"/><path class="aq" d="M4902.066,446.352s.585-.949,1.259-.635.586.539.586.539a1.866,1.866,0,0,1,1.022-.569c.545-.045,1.21.624,1.21.624S4904.265,449.918,4902.066,446.352Z"/><path class="ap" d="M4901.437,445.833s2.58,2.832,5.027.091"/><path class="aj" d="M4905.255,415.393s-1.21-4.112.078-4.287.556,3.824.556,3.824.642-2.681,1.882-1.933S4906.213,415.822,4905.255,415.393Z"/><path class="ao" d="M4912.658,439.13s1.672-.029,2.189-1.018c-.027,1.542-1.854,2.19-1.854,2.19Z"/><path class="ao" d="M4895.5,438.473s-1.67-.089-2.151-1.1c-.028,1.542,1.775,2.255,1.775,2.255Z"/><path class="aj" d="M4921.02,426.6a26.338,26.338,0,0,0-1.457-3.418,14.271,14.271,0,0,0-4.759-5.448,16.1,16.1,0,0,0-5.894-2.45,21.4,21.4,0,0,0-10.444.784,18.316,18.316,0,0,0-7.931,5.351c-1.167,1.515-3.5,4.525-4.165,12.026,0,0,8.313,1.066,16.95-7.254-.413,4.339-2.55,5.982-2.55,5.982s7.207-.074,8.992-6.344c5.429,3.75,3,7.313,3,7.313a13.3,13.3,0,0,0,6.117-2.957c-.136.128.009,1.054.021,1.248a11.1,11.1,0,0,0,.154,1.284,6.511,6.511,0,0,0,.835,2.284c.33.526,1.072,1.484,1.745,1.579.745.106.834-2.054.836-2.6A22.567,22.567,0,0,0,4921.02,426.6Z"/><path class="ar" d="M4880.468,479.507s3.234,20.909,3.167,20.908l38.731.7,5.262-19.584a44.405,44.405,0,0,0-4.225-4.9c-.4,2.666-6.526,19.553-6.526,19.553l-28.027-.065-3.392-21.1A29.4,29.4,0,0,0,4880.468,479.507Z"/></g><rect class="ar" width="14.413" height="9.708" transform="translate(4945.876 487.55)"/><rect class="v" width="14.413" height="9.708" transform="translate(4929.664 487.55)"/><circle class="as" cx="0.878" cy="0.878" r="0.878" transform="translate(4900.533 495.503)"/><circle class="as" cx="0.878" cy="0.878" r="0.878" transform="translate(4905.837 495.503)"/><circle class="as" cx="0.878" cy="0.878" r="0.878" transform="translate(4911.141 495.503)"/><path class="at" d="M5665.389,339.814c-.008,1.672-.076,3.32-.181,4.968v.012c-.13,1.73-.321,3.448-.561,5.142a71.489,71.489,0,0,1-2.993,12.738,71.76,71.76,0,0,1-9.595,19.02c-.545.8-1.126,1.581-1.718,2.359-1.16,1.507-2.366,2.975-3.642,4.379a69.642,69.642,0,0,1-5.753,5.731,72.227,72.227,0,0,1-15.9,10.694h-.012a70.267,70.267,0,0,1-69.767-4.566c-.421-.275-.83-.55-1.239-.836-1.173-.808-2.312-1.66-3.428-2.544-.707-.553-1.4-1.117-2.088-1.713h-.01q-2.419-2.053-4.638-4.3-2.5-2.529-4.735-5.287c-1.087-1.325-2.12-2.7-3.087-4.111-1.041-1.463-2-2.979-2.927-4.525-.743-1.251-1.453-2.523-2.1-3.814a70.071,70.071,0,0,1-4.01-9.257,73.471,73.471,0,0,1-4.1-22.2c-.01-.166-.009-.321-.008-.486-.018-.673-.025-1.358-.022-2.042,0-.839.018-1.688.053-2.516,0-.132.012-.254.023-.386v-.011c.058-1.456.159-2.88.3-4.315.141-1.4.325-2.793.55-4.162a72.922,72.922,0,0,1,8.209-23.832c1.009-1.825,2.092-3.609,3.262-5.33.649-.99,1.331-1.949,2.034-2.9.831-1.108,1.685-2.195,2.592-3.262a71.691,71.691,0,0,1,8.429-8.527c.527-.451,1.066-.9,1.616-1.344.626-.5,1.252-1,1.9-1.477.529-.4,1.049-.782,1.59-1.157.194-.14.378-.281.573-.41.509-.352,1.019-.693,1.539-1.034h.011c.553-.376,1.107-.73,1.672-1.074.543-.342,1.1-.675,1.653-1l.065-.036c.577-.333,1.165-.656,1.754-.979.545-.3,1.1-.587,1.669-.876.667-.338,1.345-.676,2.034-.992.547-.255,1.106-.511,1.665-.755l.1-.038c.614-.269,1.218-.526,1.844-.774a.094.094,0,0,1,.044-.024c.6-.235,1.231-.471,1.847-.707h.011c.76-.275,1.521-.55,2.3-.8.464-.152.939-.3,1.414-.446s.95-.294,1.426-.424q1.529-.427,3.093-.79c.422-.106.856-.2,1.278-.284.5-.109.99-.206,1.491-.3s.992-.184,1.494-.27,1-.161,1.507-.236c.48-.074.961-.137,1.453-.189,2.061-.268,4.149-.434,6.264-.51.8-.028,1.6-.045,2.4-.04.768,0,1.536,0,2.294.033.736.02,1.461.052,2.187.1.329.023.647.035.965.069.136.007.272.014.4.032,1.1.088,2.195.2,3.277.346.263.025.525.062.776.1a.508.508,0,0,1,.114.02c.582.072,1.164.167,1.747.262.023.011.057.009.08.02,1.522.259,3.034.566,4.526.92.758.182,1.506.365,2.254.572s1.5.425,2.235.656,1.467.462,2.2.717c.659.223,1.307.469,1.956.715.568.215,1.136.441,1.705.667.406.162.8.336,1.2.51a.992.992,0,0,1,.2.087c.441.184.883.38,1.314.588.349.152.687.317,1.025.482.676.317,1.352.658,2.017,1.012a4.83,4.83,0,0,1,.479.254c.315.154.619.321.935.5.386.211.772.422,1.158.656.386.211.761.446,1.147.668s.762.447,1.138.694.739.471,1.115.718c1.5.966,2.975,2.006,4.4,3.107h.012c.519.4,1.027.8,1.523,1.206.413.33.815.661,1.217,1s.816.7,1.219,1.053c.462.4.912.8,1.35,1.228.534.482,1.056.989,1.566,1.5.309.311.629.623.926.946.107.1.214.208.309.312a.319.319,0,0,1,.107.116c.369.381.737.763,1.082,1.157a4.005,4.005,0,0,1,.321.347c.334.371.667.742.989,1.114a.011.011,0,0,1,.012.011c.333.36.643.72.929,1.093.274.325.548.651.811.977.382.466.751.944,1.121,1.435.466.607.932,1.214,1.374,1.846.347.479.694.983,1.029,1.475q.807,1.2,1.579,2.43a71.154,71.154,0,0,1,6.116,12.251c.073.178.132.356.2.534v.012c.721,1.9,1.356,3.826,1.919,5.79a71.341,71.341,0,0,1,2.158,10.493c.118.848.212,1.7.294,2.555.21,2.126.322,4.265.324,6.439C5665.392,339.121,5665.391,339.467,5665.389,339.814Z"/><path class="au" d="M5565.779,376.821c.133,2.085-.469,4.489-2.3,5.307-1.017.445-2.292.352-3.111,1.118-1.452,1.377-.281,4.344-1.733,5.717a7.048,7.048,0,0,1-1.837.942c-3.241,1.589-3.177,6.534-1.691,10.019.054.125.107.24.161.366-.421-.275-.83-.55-1.239-.836-1.173-.808-2.312-1.66-3.428-2.544-.707-.553-1.4-1.117-2.088-1.713h-.01c-3.648-10.485-7.067-21.131-13.285-30.043-1.626-2.319-3.491-4.682-3.784-7.527-.2-2.01.439-4.009.48-6.039.028-1.4-.06-2.873-.075-4.282a18.973,18.973,0,0,1,.128-2.717,5.5,5.5,0,0,1,4.6-5.159c4.4-1.028,10.187,2.833,12.67,6.344,2.779,3.939,4.08,9.5,8.376,11.529,3.089,1.455,7.509,1.015,9.016,4.195,1.347,2.855-1.034,5.988-1.41,9.113C5564.989,372.674,5565.635,374.748,5565.779,376.821Z"/><path class="av" d="M5591.851,320.983c-.58-2.506-4.576-1.537-5.858.692s-1.561,5.167-3.577,6.712c-1.535,1.175-3.773,1.247-5.024,2.726a6.741,6.741,0,0,0-1.152,3.874q-.335,3.922-.668,7.842c-.179,2.107-.33,4.361.677,6.211s3.667,2.906,5.2,1.492a15.971,15.971,0,0,0,1.588-2.418,3.95,3.95,0,0,1,4.132-1.418,7.045,7.045,0,0,1,3.143,2.294c7.224,8.04,9.787,19.439,10.06,30.334a17.708,17.708,0,0,0,.758,5.918c.839,2.2,2.623,4.015,3.14,6.312.4,1.764.007,3.677.743,5.338,1.356,3.061,5.944,3.363,8.462,1.292s3.415-5.547,3.939-8.826.874-6.746,2.727-9.478c1.152-1.7,2.843-3.037,3.654-4.932,1.135-2.651.318-5.843,1.373-8.531,1.4-3.573,5.517-5.1,8.466-7.585s4.178-8.217.519-9.58c-1.381-.514-2.974-.126-4.339-.667-1.778-.706-2.6-2.707-3.233-4.5q-2.495-7.069-4.979-14.113c-1-2.825-2.511-6.094-5.464-6.5-1.668-.228-3.29.579-4.943.888C5605.526,325.421,5596.137,311.707,5591.851,320.983Z"/><path class="aw" d="M5534.069,346.593a.74.74,0,0,1-.213.554.9.9,0,0,1-.655.182c-.453.007-.906,0-1.359-.023a17.385,17.385,0,0,1-3.371-.53,1,1,0,0,1-.617-.337,1.375,1.375,0,0,1-.133-.743c-.076-1.572-1.506-2.622-2.788-3.415a10.919,10.919,0,0,0-2.029-1.072c-.018-.673-.025-1.358-.022-2.042,0-.839.018-1.688.053-2.516,0-.132.012-.254.023-.386v-.011a5.956,5.956,0,0,0,.534-.528c.66-.716,2-3.753,3.185-2.259a1.178,1.178,0,0,1,.015,1.382c-.368.5-1.1.606-1.385,1.147-.348.639.129,1.437.691,1.859a6.11,6.11,0,0,1,1.648,1.312c.76,1.166.018,2.921.757,4.11.635,1.024,2,1.1,3.167,1.242.137.023.263.047.4.07C5533.033,344.841,5534.117,345.505,5534.069,346.593Z"/><path class="aw" d="M5560.662,299.909c.221,1.676-1.859,2.578-3.476,2.863-1.463.26-2.923.519-4.381.79a3.982,3.982,0,0,0-1.812.634,1.525,1.525,0,0,0-.546,1.768,4.267,4.267,0,0,0,.749.8c1.2,1.24.2,3.844-1.5,3.92-.58.029-1.148-.188-1.728-.2-1.713-.058-3.078,1.534-3.9,3.118s-1.434,3.385-2.8,4.467c-2.2,1.743-5.956,1.367-7.024,4.018a6.66,6.66,0,0,0-.047,3.41,4.77,4.77,0,0,1-.406,3.344c-.626.933-2.249,1.134-2.708.092a2.7,2.7,0,0,1-.056-1.474c.26-1.642.509-3.284.759-4.926.184-1.222.349-2.587-.331-3.581-.951-1.389-3.093-1.239-4.334-.112a8.336,8.336,0,0,0-2.1,4.544,20.617,20.617,0,0,1-1.21,4.4,72.922,72.922,0,0,1,8.209-23.832c1.009-1.825,2.092-3.609,3.262-5.33.169-.025.338-.051.508-.065a7.567,7.567,0,0,0,2.819-.532,17.4,17.4,0,0,0,2.089-1.734c1.859-1.421,4.9-1.741,5.416-4.078a17.561,17.561,0,0,1,.257-2.387c.531-1.411,2.322-1.656,3.761-1.669.613-.015,1.333.057,1.611.611a1.667,1.667,0,0,1-.071,1.3,12.526,12.526,0,0,1-4.957,6.425c-1.866,1.221-4.293,2.183-4.814,4.4.252.743,1.553.665,1.656,1.445.072.624-.7.96-.977,1.523-.409.821.514,1.8,1.4,1.742a3.962,3.962,0,0,0,2.283-1.375c1.958-1.922,4.018-4,4.74-6.7.307-1.116.42-2.419,1.285-3.178a2.045,2.045,0,0,1,3.2,1c.858-.512,2.192-.911,2.632,0a4.91,4.91,0,0,1,.18,1.055C5558.574,297.84,5560.473,298.458,5560.662,299.909Z"/><path class="aw" d="M5570.881,276.667a7.7,7.7,0,0,0-3.3.119c-1.038.437-1.684,2.061-.795,2.713.495.364,1.2.238,1.759.49,1.034.466,1.131,2.011.62,3.083s-1.426,1.884-2.027,2.9a5.644,5.644,0,0,0-.76,3.293,2.944,2.944,0,0,0,.93,2.083c1.245,1,3.153.077,4.222-1.187s1.811-2.888,3.2-3.772a8,8,0,0,1,2.276-.871l5.314-1.433a3.965,3.965,0,0,0,2.3-1.227c.672-.914.482-2.2.92-3.244.728-1.742,2.972-2.426,3.758-4.147.3-.663.381-1.464.906-1.967.438-.419,1.086-.522,1.557-.9,1.054-.854.627-2.7-.484-3.389-2.778-1.716-7.892.555-10.287,2.4C5577.915,273.986,5574.92,276.808,5570.881,276.667Z"/><path class="aw" d="M5663.339,336.477c-.007,1.578-.071,3.133-.17,4.687v.011a4.209,4.209,0,0,1-2.923,1.256,4.661,4.661,0,0,1-3.853-3.043,34.836,34.836,0,0,1-1.313-4.964,3.268,3.268,0,0,0-1.5-2.222,13.693,13.693,0,0,0-1.806-.4c-2.119-.627-2.684-3.545-4.683-4.447a6.859,6.859,0,0,0-2.008-.408c-2.668-.306-5.415-1.211-7.075-3.273a12.605,12.605,0,0,0-1.624-1.992,1.954,1.954,0,0,0-2.387-.21c.553,1.107,1.094,2.214,1.636,3.311a8.647,8.647,0,0,0,1.843,2.76,3.007,3.007,0,0,0,3.123.661,2.1,2.1,0,0,1,1.058-.369,1.136,1.136,0,0,1,.683.433c1.445,1.592.96,4.234-.465,5.86-1.411,1.611-3.5,2.451-5.506,3.234a4.263,4.263,0,0,1-2.234.425c-1.38-.259-2.107-1.758-2.5-3.1-.887-2.969-1.3-6.19-3.135-8.686a10.778,10.778,0,0,1-1.66-2.414c-.371-.993-.278-2.153-.871-3.022-.614-.913-1.924-1.434-2.007-2.536a2.045,2.045,0,0,1,1.3-1.8c.709-.348,1.5-.454,2.236-.759.289-.124.611-.337.623-.646,0-.465-.639-.646-.8-1.076-.175-.484.325-.942.538-1.42.458-1.088-.666-2.17-1.758-2.6s-2.391-.732-2.893-1.785a6.213,6.213,0,0,1-.345-1.571,3.359,3.359,0,0,0-2.56-2.805,2.312,2.312,0,0,0-2.631,2.359,9.367,9.367,0,0,0,.966,1.977c.3.678.212,1.691-.49,1.919-1.151.365-2.246-1.73-3.21-.994.387,1.346.763,2.692,1.15,4.049-1.511.784-3.3-.591-3.938-2.162s-.648-3.356-1.4-4.857-2.8-2.606-4.1-1.516c-.074,1.946,2.468,2.7,3.589,4.26a2.67,2.67,0,0,1-.527,3.716c-1.2.734-3.085-.5-2.624-1.83.164-.461.544-.848.59-1.34.046-.613-.46-1.1-.924-1.486-.721-.613-1.443-1.215-2.163-1.816a4.446,4.446,0,0,0-1.537-.96c-1.484-.414-2.972.828-3.762,2.177s-1.235,2.942-2.322,4.074a4.144,4.144,0,0,1-5.929.088c-1.448-1.683-.69-4.875,1.45-5.523.811-.239,1.834-.232,2.264-.966.754-1.3-1.373-2.918-.631-4.232.57-1.008,2.063-.579,3.156-.935s1.7-1.476,2.347-2.446,1.641-1.937,2.759-1.709a3.555,3.555,0,0,1,.127-1.986,1.219,1.219,0,0,1,1.652-.645,1.986,1.986,0,0,0,1.056,2.63,5.771,5.771,0,0,0,3.147.167c1.063-.152,2.4-.573,2.492-1.648a3.758,3.758,0,0,1,.037-1.052c.473-1.291,2.816.423,3.726-.627.526-.549-.048-1.491-.778-1.65a7.909,7.909,0,0,0-2.21.159c-.739.049-1.639-.325-1.668-1.068s.787-1.278.878-2c.146-1.23-1.914-1.5-2.645-.483s-.477,2.372-.265,3.581.323,2.638-.569,3.509c-.381.587-1.363.3-1.685-.3a4.921,4.921,0,0,1-.3-2.035c-.051-.7-.349-1.477-1.018-1.647a3.657,3.657,0,0,0-1.434.2c-1.873.271-3.162-2.149-2.563-3.97s2.293-3.043,3.947-4.014c1.212-.71,2.717-1.385,3.915-.729.562.3.95.838,1.5,1.152.953.544,2.139.3,3.238.3a7.341,7.341,0,0,1,4.741,1.732c.491.438.947,1.175.561,1.723-.418.582-1.611.731-1.407,1.4a2.45,2.45,0,0,0,2.989-2,1.931,1.931,0,0,1,1.145,1.6,3.548,3.548,0,0,1,5.232.306,4.349,4.349,0,0,0,.967,1.226c.441.277,1.217.115,1.274-.406a1.038,1.038,0,0,0-.086-.484c-.262-.746-.536-1.479-.8-2.213,1.032-.579,2.248.254,2.943,1.167,2.585,3.407,4.456,1.28,8.142,1.761,2.5.321,3.593,1.889,5,3.787,4.33,5.854,10.1,10.639,14.072,16.825.42.647.806,1.3,1.169,1.976.012,0,0,.011,0,.011.679,1.792,1.278,3.609,1.809,5.46a67.246,67.246,0,0,1,2.033,9.9c.112.8.2,1.6.277,2.41.2,2,.3,4.022.306,6.073C5663.342,335.824,5663.341,336.151,5663.339,336.477Z"/><path class="ax" d="M5562.677,403.283q-1.775-1.224-3.461-2.564a71.8,71.8,0,0,1-6.8-6.061q-2.525-2.547-4.782-5.323c-1.1-1.334-2.14-2.721-3.117-4.137-1.051-1.474-2.025-3-2.955-4.554-.75-1.259-1.468-2.539-2.121-3.837a70.576,70.576,0,0,1-4.048-9.311,73.559,73.559,0,0,1-4.138-22.321c-.028-.843-.035-1.686-.031-2.54s.018-1.7.054-2.528c.06-1.6.172-3.17.326-4.734a73.364,73.364,0,0,1,2.976-14.457,72.445,72.445,0,0,1,5.868-13.656,73.92,73.92,0,0,1,5.347-8.257c.84-1.111,1.7-2.2,2.618-3.273a72.005,72.005,0,0,1,8.511-8.553c.533-.453,1.077-.9,1.632-1.347.632-.5,1.264-1,1.918-1.481.535-.4,1.059-.784,1.606-1.16.2-.141.382-.281.579-.411.514-.353,1.029-.694,1.554-1.036h.011c.559-.377,1.118-.732,1.688-1.076.549-.344,1.109-.676,1.669-1l.066-.036c.583-.334,1.177-.657,1.771-.981.551-.3,1.113-.588,1.687-.877.673-.338,1.357-.677,2.053-.993.553-.256,1.118-.512,1.682-.756l.1-.037c.62-.27,1.23-.528,1.862-.775a.081.081,0,0,1,.045-.024c.61-.236,1.243-.472,1.865-.708h.012c.767-.276,1.535-.551,2.326-.8.468-.152.948-.3,1.428-.446s.96-.294,1.441-.423q1.543-.429,3.123-.789c.427-.106.864-.2,1.291-.283.5-.108,1-.2,1.506-.3s1-.183,1.508-.268,1.015-.16,1.522-.235c.486-.074.971-.136,1.468-.187q3.123-.4,6.327-.5c.808-.027,1.617-.043,2.426-.036.776,0,1.552.006,2.318.037.743.022,1.476.055,2.209.1.332.023.653.036.974.071.138.007.276.014.4.033,1.114.09,2.217.2,3.31.353.265.026.53.064.783.1a.518.518,0,0,1,.116.02c.588.073,1.176.17,1.765.267.023.011.057.009.081.02,1.536.264,3.064.574,4.571.933.766.185,1.521.37,2.277.579.061.017.122.037.184.054a.966.966,0,0,0-.127-.056c-.4-.174-.79-.348-1.2-.509-.569-.227-1.137-.453-1.705-.667-.649-.247-1.3-.493-1.956-.716-.728-.254-1.456-.5-2.2-.717s-1.487-.449-2.236-.656-1.5-.389-2.253-.572c-1.492-.354-3-.66-4.526-.92-.023-.01-.057-.009-.08-.02-.583-.1-1.165-.19-1.747-.262a.45.45,0,0,0-.114-.019c-.251-.038-.513-.075-.776-.1-1.082-.147-2.174-.258-3.277-.345-.125-.019-.261-.026-.4-.033-.318-.034-.636-.046-.965-.069-.726-.043-1.451-.075-2.187-.1-.758-.03-1.527-.037-2.295-.033-.8,0-1.6.012-2.4.04-2.115.076-4.2.242-6.264.51-.492.052-.973.115-1.454.189-.5.075-1,.15-1.507.236s-1,.172-1.493.27-.991.194-1.491.3c-.422.083-.856.178-1.278.284q-1.564.362-3.093.79-.714.2-1.427.424c-.475.141-.95.294-1.413.446-.783.254-1.544.529-2.3.8h-.011c-.616.236-1.243.473-1.847.708a.079.079,0,0,0-.044.024c-.626.247-1.23.505-1.844.774l-.1.037c-.559.245-1.118.5-1.665.756-.689.316-1.367.654-2.034.991-.568.289-1.124.578-1.669.877-.589.323-1.177.645-1.754.979l-.066.036c-.555.321-1.109.653-1.652,1-.565.343-1.119.7-1.672,1.074h-.011c-.521.342-1.03.683-1.539,1.035-.2.129-.379.269-.574.409-.541.375-1.06.761-1.589,1.157-.648.478-1.274.978-1.9,1.477-.55.441-1.089.893-1.616,1.344a71.624,71.624,0,0,0-8.429,8.528c-.907,1.066-1.761,2.153-2.592,3.261a73.733,73.733,0,0,0-5.3,8.227,72.439,72.439,0,0,0-5.812,13.6,73.271,73.271,0,0,0-2.947,14.393c-.153,1.556-.265,3.123-.324,4.712-.035.828-.049,1.678-.053,2.516s0,1.689.03,2.527a73.471,73.471,0,0,0,4.1,22.206,70.195,70.195,0,0,0,4.009,9.257c.647,1.291,1.357,2.563,2.1,3.814.921,1.546,1.886,3.062,2.927,4.526.967,1.407,2,2.785,3.087,4.111q2.235,2.762,4.735,5.286a70.926,70.926,0,0,0,6.736,6.017c1.116.883,2.255,1.735,3.427,2.544a70.415,70.415,0,0,0,16.253,8.4A71.786,71.786,0,0,1,5562.677,403.283Z"/><path class="ay" d="M5665.389,339.814c-.008,1.672-.076,3.32-.181,4.968v.012c-.13,1.73-.321,3.448-.561,5.142a71.489,71.489,0,0,1-2.993,12.738,71.76,71.76,0,0,1-9.595,19.02c-.545.8-1.126,1.581-1.718,2.359-1.16,1.507-2.366,2.975-3.642,4.379a69.642,69.642,0,0,1-5.753,5.731,72.227,72.227,0,0,1-15.9,10.694h-.012a70.124,70.124,0,0,1-54.3,3.152c72.884-4.916,83.973-78.953,73.949-119.62.107.1.214.208.309.312a.319.319,0,0,1,.107.116c.369.381.737.763,1.082,1.157a4.005,4.005,0,0,1,.321.347c.334.371.667.742.989,1.114a.011.011,0,0,1,.012.011c.333.36.643.72.929,1.093.274.325.548.651.811.977.382.466.751.944,1.121,1.435.466.607.932,1.214,1.374,1.846.347.479.694.983,1.029,1.475q.807,1.2,1.579,2.43a71.154,71.154,0,0,1,6.116,12.251c.073.178.132.356.2.534v.012c.721,1.9,1.356,3.826,1.919,5.79a71.341,71.341,0,0,1,2.158,10.493c.118.848.212,1.7.294,2.555.21,2.126.322,4.265.324,6.439C5665.392,339.121,5665.391,339.467,5665.389,339.814Z"/></g></svg>