<svg xmlns="http://www.w3.org/2000/svg" xmlns:xlink="http://www.w3.org/1999/xlink" width="1366" height="771.086" viewBox="0 0 1366 771.086"><defs><style>.a,.f,.v{fill:none;}.b{fill:#d2c3db;}.c{fill:#eadff1;}.d,.m{fill:#000;}.e{fill:#dfeddf;}.f{stroke:#313431;stroke-width:5.136px;}.f,.m,.v{stroke-miterlimit:10;}.g{fill:#728ad6;}.h{fill:#5f73b3;}.i{fill:#8fa0d6;}.j{fill:#313431;}.k{fill:#6c4e49;}.l{fill:#4f3936;}.m{stroke:#4f3b65;stroke-width:7.163px;}.n{clip-path:url(#a);}.o{fill:#d19442;}.p{fill:#d29647;}.q{fill:#d8a35d;}.r{fill:#62548a;}.s{fill:#ffc84f;}.t{opacity:0.3;}.u{opacity:0.5;}.v{stroke:#947dce;stroke-width:1.131px;}.w{fill:#947dce;}.x{fill:#daa968;}.y{opacity:0.15;}.z{fill:#e6e6e6;}.aa{fill:#ce521f;}.ab{fill:#ebebeb;}.ac{fill:#8e96a3;}.ad{fill:#3d3d3d;}.ae{fill:#d0d1d6;}.af{fill:#aaa;}.ag{fill:#91aafe;}.ah{fill:#92dad6;}.ai{fill:#49557f;}</style><clipPath id="a"><rect class="a" width="477.338" height="498.794" transform="translate(672.184 771.086) rotate(-180)"/></clipPath></defs><path class="b" d="M1366,9.537V768l-242.228-67.586-32.991-6.263,1.636-558.092,30.118-25.56Z"/><path class="b" d="M316.3,125.471,300.245,681.842.2,756.24V6.188L299.045,99.758Z"/><path class="c" d="M697.978,89.071H273.37V706.455h849.165V89.071Z"/><path class="d" d="M0,60.78c121.657,30.38,335.7,73.888,615,80.372,352.972,8.194,622.429-47.1,751-78.7V0H0Z"/><path class="d" d="M0,722.684c121.657-29.39,335.7-71.481,615-77.753C967.968,637,1237.425,690.5,1366,721.064v47.19L.2,771Z"/><path class="e" d="M69.1,225.454l111.57,11.758V419.887S64.78,433.914,65.493,434.677s0-205.724,0-205.724l.95-3.78Z"/><path class="f" d="M69.1,225.454l111.57,11.758V419.887S64.78,433.914,65.493,434.677s0-205.724,0-205.724l.95-3.78Z"/><line class="f" y2="189.205" transform="translate(128.385 234.669)"/><line class="f" x1="110.049" y2="5.538" transform="translate(68.464 358.986)"/><line class="f" x1="110.049" y1="3.213" transform="translate(68.464 293.469)"/><path class="g" d="M91.9,214.229s1.813.038-1.886,2.522c-3.73,2.5-1.25-3.388-1.25-3.388L86,213.521s-.891,1.205-1.748.736a5.939,5.939,0,0,0-2.6-.312l-2,.62s-1.05-3.507-1.689-2.529c-.525.8-2.667-.371-4.3-1.047l-2.061-.221c-.873.428-1.424,1.425-2.331.388-1.233-1.41-.04,2.5-.618,1.51s-1.971.274-2.785-2.365c-.018-.058-.036-.109-.053-.158l-.548-.06c-.474,1.2-.964,5.052-2.274,5.158-1.715.139-2.317-2.506-2.769-5.719l-1.52-.173a9.059,9.059,0,0,0-.112,2.71c.354,2.761-3.1,2.312-3.1,2.312s-.1-2.917-.62-3.64a18.226,18.226,0,0,0-2.519-2.136q-1.333-.164-2.673-.335c-.142.512-.3,1.14-.539,1.783-.734,1.95-.475,2.032-2.755,1.562s-1.728,1.57-2.134-.251c-.371-1.665-.337-1.824-.835-3.925q-.744-.1-1.49-.211a33.362,33.362,0,0,1-1.333,3.146c-1.624,3.214-2.819.717-4.8-1.63A30.024,30.024,0,0,1,33.826,206c-.3-.048-.6-.1-.9-.148-.037.058-.074.122-.112.2-.72,1.391-1.788,3.811-3.561,2.525-1.409-1.023-1.855-3.184-2.151-3.719l-.216-.038h0c-.346.64-.152,1.623-1.548,4.664s-1.4.128-2.04-3.018a9.4,9.4,0,0,0-.963-2.5c-.257-.049-.514-.1-.772-.148.695,21.555.777,32.583,2.845,56.79,2.058,24.1,6.12,62.122,8.861,87.9.547,5.14.732,1.86.531,6.36-.013.29-.019.508-.02.665-.046.323-.1.675-.15,1.065-1.4,10.014-4.481,32.829-5.021,45.314-.107,2.625-.71,2.912-1.017,11.763-.391,11.284-.147,36.023-.7,45.612s-4.281,19.626.956,20.276c2.486.308,16.1-5.78,21.869-6.253,2.825-.232,5.757,2.874,11.035.544,7.51-3.315,6.309-5.489,9.167-6.322.281-.082.3-.168.3-.2a.818.818,0,0,0,.207.2c-1.1-8.01,1.151-7.1-.536-16.68-1.694-9.622-6.815-23.175-7.641-34.793-.487-6.846-.854-15.08-1.054-20.915-.167-4.873-.666-5.023-1.123-8.911-.114-.965-.3-1.728-.459-2.646-.76-4.292-1.661-8.638-2.486-12.84-.2-1.006-.406-2.079-.556-2.877-.3-1.6-.7-3.519-.91-4.849a35.281,35.281,0,0,1-.4-7.732c.019-.406.056-.591.086-.94s.076-.661.116-.981c.02-.158.047-.322.065-.443.035-.237.1-.614.133-.794a18.764,18.764,0,0,1,.464-1.906c.16-.514.171-.515.324-.92.57-.552,1.134-1.212,1.686-1.794.217-.229.445-.532.7-.824,9.234-10.578,15.159-26.367,19.292-39.787,9.428-30.609,13.742-61.837,16.009-93.584l-.365-.046Z"/><path class="h" d="M76.677,306.345c-.192,3.669-.165,4.177-1.169,7.215-3.26,9.872-10.991,20.278-16.431,28.97-.2.317-.479.718-.634.967-1.3,2.082-2.751,4.545-3.839,6.542a5.836,5.836,0,0,0-.664,1.507,12.41,12.41,0,0,0-.394,2.854c-.034.4-.041.8-.044,1.306-.014,2.436.207,4.995.249,7.466v.019c.021,1.871.294,4.1.437,5.849.167,2.053.291,3.667.307,5.642,0,.018,0,.033,0,.046-.015.453,0,.776-.044,1.25-.24,2.783-.571,5.711-.881,8.482-.068.611-.173,1.545-.221,1.966-.233,2.022-.433,3.7-.664,5.621-.078-1.792-.208-3.811-.279-5.471s-.043.057-.121-2.352-.619-8.588-.587-11.827.4-5.132.646-8.764c.148-2.16.617-6.538.879-9.279.119-1.251.281-2.874.461-4.273.3-2.354.385-3.514.735-6.162,1.765-13.355,3.236-27.4,6.516-40.362.015-.057.02-.083.035-.145.2-.835.258-.99.462-1.934,3.575-16.53,4.429-33.783,7.311-50.354,2.256-12.968,2.994-26.566,4.1-39.774.9.318,1.828-.337,2.719.622-.034,17.493.164,41.946.019,57.958C75.439,285.6,77.386,292.778,76.677,306.345Z"/><path class="i" d="M55.387,384.342a9.4,9.4,0,0,1-.014,1.774c-1.968,11.037,1.955-2.352-1.877,14.051-3.864,16.543-3.158,53.773-3.186,69.473.129,8.532-.188-6.213-.091,3.455-7.058.839-14.284,3.878-21.477,6.453.384-17.122.9-32.274.964-50.271s2.554-39.3,5.417-57.792c.829-5.357.039-11.442-.052-16.759-.019-1.1-.222-4.318-.326-5.859-1.115-16.6-3.279-42.856-4.352-57.514-1.659-22.646-8.056-51.133-4.226-68.774,2.036-9.38,1.695-8.679,2.055-17.646,1.452,1.029,3.082.575,4.594,1.111.51,2.565.918,6.816,1.977,8.989,2.145,4.4,3.02,1.467,3.569-1.663.235-1.341.458-4.705.6-6.379,2.773.35,5.524.827,8.262,1.21.629,5.521,1.476,11.054,1.794,16.563,0,0-.011.022-.011.03.45,12.564.713,25.694-.051,37.89-.765,12.216,1.979,18.3,2.353,31.872s-.768,37.288-3.976,51.571a19.118,19.118,0,0,0-.418,3.611,12.018,12.018,0,0,0,.747,4.582,1.2,1.2,0,0,0,.07.165c1.613,3.368,3.9,6.028,5.575,9.375a12.4,12.4,0,0,1,.522,1.247,22.6,22.6,0,0,1,1.011,3.452,34.875,34.875,0,0,1,.629,5.862c0,.056.007.158.006.2a.284.284,0,0,0,0,.051C55.394,377.994,55.585,380.92,55.387,384.342Z"/><path class="h" d="M49.848,208.47c3.06,1.137,6.373.155,9.234,2.2-.591,16.939-2.363,46.974-4.208,61.246-2.168,16.758-2.717,22.256-3.563,34.66-.848,12.427-.334,21.072-2.213,32.5-.734,4.467-1.058,6.759-1.73,10.652-.385,2.231-.411,2.681-.7,4.629-.012.08-.012.111-.018.16a48.915,48.915,0,0,0-.4,6.729c.085,5.656.1,16.081.114,20.287s-.165,1.907-.2,3.637a14.1,14.1,0,0,1-.081,1.419c-.052,1.231-.175,2.685-.231,4-2.15-.345-4.308-.81-6.487-1.006.045-1.859.033-.8.095-3.062s-.111,4.318.057-1.481,1.263-23.019,1.868-29.43.087-1.33.479-6.108-.516,6.842.242-2.673,2.946-31.128,3.5-42.65-.579-20.846-.282-31.087.851-23.217,1.2-31.738,1.111-10.784,1.485-16.32.865-9.549,1.172-12.925S49.575,210.925,49.848,208.47Z"/><path class="j" d="M32.578,349.235c8.25.471,16.374.694,24.347.965-.452,1.365-.841,2.757-1.247,4.144-7.273.121-14.7.57-22.2.411C33.178,352.915,32.883,351.075,32.578,349.235Z"/><path class="j" d="M61.311,360.939c-.652-2.423-2.289-3.991-3.609-5.782a8.127,8.127,0,0,0-1.8-1.564,2.08,2.08,0,0,0-.237-.13,1.272,1.272,0,0,0-.2-.1,2.013,2.013,0,0,0-1.418-.11c-.124.5-.151.569-.282,1.175-.069.317-.163.7-.277,1.309a34.246,34.246,0,0,0-.64,9.361,10.021,10.021,0,0,0,1,3.434,3.653,3.653,0,0,0,.347.547,4.135,4.135,0,0,0,.725.794c.636.468,1.451,1.027,2.188.793C60.492,369.593,62.293,364.6,61.311,360.939Zm-4.75,6.854a1.162,1.162,0,0,1-.964-.154c-1.42-.776-1.781-2.639-1.845-4.451v-.016c.053-2.762.27-5.463.573-8.24.505.046.425-.18,1.006.421a20.542,20.542,0,0,1,3.728,4.278C60.531,362.2,59.767,367.041,56.561,367.793Z"/><path class="j" d="M61.053,352.661c-1.037-.7-3.377-.629-4.692-.572-.257.011-.5.018-.683.031s-.194.009-.343.027c.063.231.138.553.191.765s.089.365.134.544.087.353.126.507.054.237.1.378c.563.264,1.283.539,1.789.791s-.033-.094.676.324,3.222,2.142,3.965,2.627,2.621,1.27,2.5-.357S62.537,353.661,61.053,352.661Zm2.044,4.813c-1.754-.648-4.9-3.293-6.746-4.444,1.4-.845,4.415.252,5.138.891S64.844,358.119,63.1,357.474Z"/><path class="j" d="M216.7,224.383q-.011.227-.036.426a2.783,2.783,0,0,0-2.52-2.722L17.783,196.5s-2.892-.837-3.33,2.091c-.026-.276-.037-.566-.037-.878.014-3.837,3.385-2.855,3.385-2.855l196.354,25.932S216.862,220.9,216.7,224.383Z"/><path class="k" d="M216.664,224.809c-.351,2.986-2.792,2.19-2.792,2.19L17.8,202.743c-1.287-.265-3.075-1.05-3.348-4.154v0c.438-2.928,3.33-2.091,3.33-2.091l196.361,25.591A2.783,2.783,0,0,1,216.664,224.809Z"/><path class="j" d="M27.493,196.233a1.432,1.432,0,0,1,1.2-.606c1.078.138,1.773,2.052,1.953,2.548,1.035,2.851.365,6.524-1.182,6.743-.334.047-1.007.124-2.048-.948-.694-.026-1.316-.157-2.012-.182a3.962,3.962,0,0,0,1.5,2.028,3.515,3.515,0,0,0,3.992-.031c.91-.679,1.082-1.7,1.318-3.09a8.144,8.144,0,0,0-.5-5.079c-.356-.761-1.24-2.661-2.768-2.974-1.588-.327-2.683.924-2.562,1.385C26.449,196.275,26.989,196.144,27.493,196.233Z"/><path class="j" d="M41.725,198.111a1.387,1.387,0,0,1,1.165-.6c1.045.134,1.719,2.017,1.894,2.505,1,2.806.354,6.425-1.146,6.643-.324.047-.976.124-1.986-.93-.674-.024-1.276-.151-1.952-.175a3.9,3.9,0,0,0,1.456,1.994,3.366,3.366,0,0,0,3.872-.038c.882-.67,1.049-1.674,1.278-3.045a8.133,8.133,0,0,0-.487-5c-.345-.748-1.2-2.617-2.684-2.923-1.54-.318-2.6.916-2.485,1.37C40.713,198.155,41.236,198.024,41.725,198.111Z"/><path class="j" d="M55.53,199.933a1.344,1.344,0,0,1,1.131-.592c1.014.129,1.668,1.983,1.837,2.464.975,2.762.344,6.327-1.112,6.545-.314.047-.947.124-1.926-.912-.654-.022-1.239-.147-1.894-.169a3.823,3.823,0,0,0,1.413,1.961,3.225,3.225,0,0,0,3.756-.044c.856-.662,1.019-1.651,1.24-3a8.12,8.12,0,0,0-.472-4.926c-.335-.737-1.168-2.576-2.6-2.874-1.494-.311-2.525.907-2.411,1.353C54.548,199.978,55.056,199.848,55.53,199.933Z"/><path class="j" d="M68.928,201.7a1.3,1.3,0,0,1,1.1-.586c.984.126,1.619,1.951,1.784,2.424.946,2.72.333,6.234-1.08,6.451-.3.047-.919.124-1.87-.9-.635-.021-1.2-.143-1.838-.163a3.767,3.767,0,0,0,1.371,1.93,3.1,3.1,0,0,0,3.646-.05c.832-.654.989-1.629,1.2-2.961A8.1,8.1,0,0,0,72.784,203c-.326-.725-1.133-2.536-2.529-2.827-1.45-.3-2.45.9-2.34,1.338C67.974,201.747,68.467,201.619,68.928,201.7Z"/><path class="j" d="M86.345,204a1.251,1.251,0,0,1,1.055-.577c.946.121,1.557,1.909,1.715,2.373.909,2.664.32,6.112-1.038,6.328-.293.047-.884.123-1.8-.874-.61-.018-1.156-.137-1.767-.155a3.675,3.675,0,0,0,1.318,1.889,2.928,2.928,0,0,0,3.5-.058c.8-.643.951-1.6,1.158-2.906a8.1,8.1,0,0,0-.44-4.757c-.314-.71-1.09-2.483-2.432-2.765-1.394-.294-2.356.887-2.25,1.318C85.428,204.047,85.9,203.92,86.345,204Z"/><path class="l" d="M92.087,204.757a1.231,1.231,0,0,1,1.041-.574c.934.119,1.537,1.9,1.693,2.355.9,2.647.316,6.072-1.025,6.288-.289.047-.872.123-1.774-.867-.6-.018-1.141-.134-1.744-.153a3.654,3.654,0,0,0,1.3,1.876,2.874,2.874,0,0,0,3.459-.06c.789-.639.939-1.59,1.143-2.888a8.088,8.088,0,0,0-.435-4.725c-.309-.706-1.075-2.467-2.4-2.746-1.377-.29-2.326.884-2.221,1.312C91.182,204.8,91.65,204.678,92.087,204.757Z"/><path class="g" d="M162.008,222.715s-1.538-.354,1.588,2.71c3.1,3.04,1.046-2.835,1.046-2.835l2.294.728s.733,1.277,1.435,1.03a4.418,4.418,0,0,1,2.115.254l1.613.964s.84-2.922,1.349-1.916c.417.824,2.109.215,3.393-.05l1.6.223c.674.552,1.1,1.537,1.8.808.943-.986.031,2.2.473,1.444s1.5.623,2.118-1.513c.014-.047.027-.088.04-.127l.414.057c.357,1.131.725,4.568,1.707,4.906,1.276.439,1.722-1.725,2.056-4.4l1.119.147a9.332,9.332,0,0,1,.083,2.343c-.261,2.3,2.26,2.55,2.26,2.55a10.225,10.225,0,0,1,.449-2.98,9.424,9.424,0,0,1,1.811-1.334q.951.115,1.9.225c.1.457.21,1.013.381,1.6.517,1.771.335,1.793,1.934,1.813s1.2,1.618,1.483.175c.257-1.318.233-1.456.576-3.111l1.025.1c.228.774.516,1.79.912,2.844,1.1,2.935,1.912,1.09,3.247-.484a17.447,17.447,0,0,0,1.3-1.885c.2.015.4.028.6.042.024.053.048.112.074.18.475,1.259,1.179,3.41,2.339,2.677.917-.58,1.206-2.242,1.4-2.62l.14.008h0a32.159,32.159,0,0,0,1,4.015c.9,2.675.9.339,1.306-2.065a6.872,6.872,0,0,1,.613-1.826l.489.018c-.44,17.057-.492,25.836-1.811,44.944-1.324,19.177-3.967,49.746-5.774,70.749-.362,4.215-.485,1.55-.352,5.208.009.236.013.412.013.54.031.261.064.545.1.86.926,8.053,2.948,26.251,3.3,36.265.069,2.1.461,2.255.661,9.341.253,9.022.1,28.976.45,36.576s2.746,14.732-.619,16.541c-1.621.873-10.785-.665-14.819.43s-10.557.331-14.9.43c-.216.005-.231-.065-.228-.091a1.072,1.072,0,0,1-.159.234c.847-7.316-.889-5.928.413-14.773,1.3-8.816,5.165-21.661,5.782-31.847.362-5.986.635-13.137.783-18.191.123-4.217.493-4.409.831-7.806.083-.842.218-1.519.338-2.325.559-3.764,1.219-7.576,1.822-11.245.144-.876.3-1.809.4-2.5.219-1.39.507-3.056.661-4.205a35.788,35.788,0,0,0,.292-6.608c-.014-.344-.041-.5-.063-.794s-.055-.558-.084-.828c-.014-.133-.034-.271-.047-.373-.025-.2-.073-.517-.1-.669-.075-.5-.241-1.242-.337-1.6-.116-.429-.124-.43-.235-.767-.415-.442-.826-.976-1.23-1.447-.16-.186-.326-.434-.513-.672-6.913-8.79-11.49-22.573-14.752-34.541-7.661-28.109-11.273-57.193-13.2-86.871l.312.037Z"/><path class="h" d="M174.463,307.8a19.845,19.845,0,0,0,.923,6.432c2.549,8.736,8.456,17.7,12.5,25.016.146.265.352.6.466.8.948,1.723,2,3.754,2.792,5.4a5.074,5.074,0,0,1,.478,1.244,11.954,11.954,0,0,1,.284,2.4c.024.334.029.672.031,1.105.01,2.063-.148,4.248-.179,6.346v.014c-.015,1.591-.212,3.5-.314,5-.121,1.757-.21,3.138-.222,4.818,0,.015,0,.028,0,.039.011.383,0,.658.032,1.057.173,2.339.411,4.789.634,7.1.049.511.124,1.29.159,1.641.167,1.686.31,3.083.476,4.681.056-1.526.149-3.25.2-4.662s.03.044.086-2,.442-7.321.419-10.053-.284-4.3-.461-7.353c-.106-1.816-.441-5.489-.629-7.8-.086-1.052-.2-2.418-.332-3.6-.219-1.981-.277-2.962-.529-5.194-1.277-11.307-2.349-23.282-4.762-34.458-.011-.05-.015-.072-.026-.126-.151-.725-.192-.86-.343-1.679-2.673-14.463-3.317-29.518-5.51-44.286-1.734-11.683-2.3-23.764-3.165-35.614-.707.1-1.429-.669-2.129,0,.026,15.53-.13,37.2-.015,51.432C175.44,289.43,173.9,295.7,174.463,307.8Z"/><path class="i" d="M190.578,374.682a9.247,9.247,0,0,0,.01,1.507c1.419,9.127-1.421-1.782,1.353,11.694,2.755,13.38,2.255,44.852,2.274,58.067s.134-5.278.065,2.886c4.934-1.12,9.843-.452,14.593-.168-.249-13.731-.589-25.864-.628-40.4s-1.678-31.492-3.579-46.279c-.554-4.314-.026-9.346.035-13.7.013-.9.148-3.539.217-4.8.742-13.577,2.172-34.921,2.877-46.765,1.084-18.2,5.2-40.407,2.747-55.039-1.318-7.868-1.1-7.247-1.33-14.535-.946.572-2.015-.088-3.012.076-.338,2-.609,5.388-1.313,6.982-1.437,3.25-2.026.7-2.4-1.968-.159-1.144-.31-3.951-.4-5.355-1.89-.221-3.786-.334-5.693-.525-.441,4.509-1.037,9-1.261,13.576a.094.094,0,0,1,.007.026c-.317,10.491-.5,21.5.036,31.831s-1.4,15.239-1.667,26.668.546,31.449,2.808,43.339a18.627,18.627,0,0,1,.293,3,12.236,12.236,0,0,1-.523,3.876c-.016.056-.029.089-.049.142-1.136,2.926-2.763,5.322-3.958,8.275-.12.3-.25.68-.375,1.1a23.786,23.786,0,0,0-.729,3.014,35.818,35.818,0,0,0-.455,5.043c0,.047,0,.135,0,.168s0,.033,0,.043C190.573,369.281,190.434,371.791,190.578,374.682Z"/><path class="h" d="M194.543,226.092c-2.179.381-4.57-1.087-6.661.111.434,14.619,1.729,40.53,3.067,52.86,1.559,14.36,1.952,19.036,2.555,29.54.6,10.488.238,17.778,1.569,27.351.518,3.724.745,5.632,1.217,8.861.269,1.847.288,2.222.492,3.835.008.066.008.091.012.132a48.476,48.476,0,0,1,.279,5.6c-.059,4.731-.07,13.442-.08,16.958a17.307,17.307,0,0,0,.139,3.016c.024,1.442.021.154.057,1.176s.122,2.222.16,3.316c1.491-.541,2.976-1.177,4.462-1.589-.031-1.527-.023-.654-.065-2.513s.075,3.546-.039-1.214-.86-18.884-1.273-24.145-.06-1.1-.328-5.03.353,5.635-.166-2.2-2.034-25.805-2.42-35.42.4-17.356.2-25.912-.592-19.457-.835-26.619-.778-9.179-1.04-13.876-.609-8.156-.826-11.047S194.736,228.207,194.543,226.092Z"/><path class="j" d="M206.357,343.686c-5.543.784-11.18,1.378-16.9,2.027.33,1.14.613,2.3.907,3.461,5.195-.332,10.345-.392,15.4-.951C205.96,346.71,206.155,345.2,206.357,343.686Z"/><path class="j" d="M189.329,363.2c.536.134,1.127-.415,1.588-.868a3.97,3.97,0,0,0,.523-.737,3.663,3.663,0,0,0,.25-.494,10.435,10.435,0,0,0,.716-2.991,33.551,33.551,0,0,0-.459-7.884c-.081-.514-.149-.829-.2-1.093-.094-.506-.114-.567-.2-.981a1.3,1.3,0,0,0-1.025.177,1,1,0,0,0-.144.094,1.438,1.438,0,0,0-.172.124,7.15,7.15,0,0,0-1.311,1.444c-.968,1.618-2.175,3.075-2.657,5.207C185.506,358.427,186.843,362.58,189.329,363.2Zm-1.43-9.288a19.29,19.29,0,0,1,2.719-3.9c.421-.548.362-.35.727-.42.218,2.338.375,4.614.413,6.953v.014c-.046,1.541-.307,3.151-1.332,3.927a.794.794,0,0,1-.7.213C187.378,360.325,186.814,356.229,187.9,353.913Z"/><path class="j" d="M183.624,352.671c-.094,1.42,1.315.607,1.869.137s2.41-2.117,2.929-2.52.125-.072.5-.319.894-.526,1.3-.785c.029-.123.041-.195.069-.328s.059-.284.091-.439l.1-.471c.039-.183.093-.461.138-.662-.108-.007-.117,0-.248,0s-.309.007-.5.012c-.958.026-2.676.1-3.444.761C185.324,349.005,183.718,351.252,183.624,352.671Zm2.48-3.505c.536-.594,2.756-1.712,3.775-1.071-1.345,1.093-3.666,3.564-4.972,4.241S185.567,349.76,186.1,349.166Z"/><path class="l" d="M209.685,220.276c-.159-.279-.435-.672-.78-.72-.7-.1-1.158,1.317-1.276,1.684-.681,2.116-.24,5.219.773,5.674.218.1.656.281,1.332-.4.45.1.851.111,1.3.215a2.291,2.291,0,0,1-.968,1.362,2.138,2.138,0,0,1-2.6-.735,5,5,0,0,1-.868-2.747,7.6,7.6,0,0,1,.331-4.03c.235-.549.815-1.916,1.814-1.871a1.941,1.941,0,0,1,1.662,1.611C210.361,220.509,210.012,220.3,209.685,220.276Z"/><path class="l" d="M200.2,219.024c-.163-.283-.447-.681-.8-.73-.721-.1-1.188,1.332-1.309,1.7-.7,2.142-.246,5.284.793,5.747.223.1.673.285,1.366-.4.461.106.872.113,1.332.219a2.316,2.316,0,0,1-.993,1.377,2.21,2.21,0,0,1-2.667-.748,5.028,5.028,0,0,1-.89-2.783,7.6,7.6,0,0,1,.339-4.081c.241-.555.836-1.938,1.86-1.891a1.98,1.98,0,0,1,1.7,1.635C200.893,219.262,200.535,219.05,200.2,219.024Z"/><path class="j" d="M190.474,217.74c-.167-.286-.458-.69-.821-.74-.739-.1-1.218,1.346-1.342,1.722-.716,2.168-.252,5.352.813,5.822.229.1.69.29,1.4-.4.473.108.9.116,1.366.224a2.335,2.335,0,0,1-1.018,1.393,2.286,2.286,0,0,1-2.736-.762,5.07,5.07,0,0,1-.913-2.82,7.613,7.613,0,0,1,.348-4.132c.247-.562.858-1.962,1.908-1.912a2.02,2.02,0,0,1,1.748,1.658C191.184,217.982,190.817,217.767,190.474,217.74Z"/><path class="j" d="M180.495,216.424c-.171-.291-.47-.7-.842-.752-.759-.1-1.25,1.362-1.377,1.743-.735,2.194-.259,5.42.835,5.9.235.1.708.294,1.437-.406.485.11.918.119,1.4.229a2.092,2.092,0,0,1-3.852.634,5.1,5.1,0,0,1-.937-2.859,7.609,7.609,0,0,1,.357-4.185c.254-.568.88-1.986,1.958-1.933a2.063,2.063,0,0,1,1.793,1.682C181.224,216.67,180.848,216.451,180.495,216.424Z"/><path class="j" d="M166.652,214.6c-.178-.3-.487-.714-.872-.767-.786-.109-1.295,1.383-1.427,1.77-.761,2.232-.268,5.516.864,6.006.244.1.734.3,1.489-.41.5.114.951.123,1.452.237a2.4,2.4,0,0,1-1.082,1.432,2.483,2.483,0,0,1-2.907-.8,5.13,5.13,0,0,1-.971-2.912,7.614,7.614,0,0,1,.37-4.259c.263-.578.912-2.018,2.028-1.963a2.125,2.125,0,0,1,1.857,1.717C167.407,214.849,167.017,214.626,166.652,214.6Z"/><path class="j" d="M161.855,213.964c-.18-.3-.493-.719-.883-.773-.8-.11-1.311,1.391-1.444,1.78-.77,2.245-.271,5.55.875,6.043.247.106.742.3,1.507-.411.508.115.962.124,1.469.239a2.411,2.411,0,0,1-1.1,1.44,2.524,2.524,0,0,1-2.943-.8,5.152,5.152,0,0,1-.982-2.93,7.6,7.6,0,0,1,.375-4.284c.265-.581.922-2.031,2.052-1.973a2.147,2.147,0,0,1,1.88,1.728C162.619,214.218,162.224,213.993,161.855,213.964Z"/><path class="m" d="M1143.388,247.731V428.757c0,.31.416.574.981.623l81.655,7.041,25.924,2.226,94.253,8.127c.706.061,1.345-.235,1.345-.623V230.337c0-.388-.639-.684-1.345-.623l-94.253,8.127-25.924,2.225-81.655,7.042C1143.8,247.156,1143.388,247.421,1143.388,247.731Z"/><g class="n"><path class="o" d="M421.286,372.584s1.132,14.629-5.494,25.026c-4.451,6.986,4.243,6.444,13.747,4.937,7.3-1.156,8.72-5.259,8.72-5.259a10.152,10.152,0,0,1-5.636-6.679c-1.517-4.881-.723-13.478.052-18.025C434.29,363.116,421.286,372.584,421.286,372.584Z"/><path class="p" d="M473.048,739.75s-16.522,144.6-10.6,147.2c10.63,4.726,52.31,20.3,6.132,16.245-23.774,1.024-21.941-4.252-22.234-8.755-.241-3.679,2.681-133.292,1.878-143.39-.18-2.261-.289-3.628-.289-3.628Z"/><path class="q" d="M336.661,866.669c3.08.359,10.129,3.286,13.893,5.618,12.2-28.633,56.778-136.149,56.778-136.149l-19.558-15.606S349.17,831.821,336.661,866.669Z"/><path class="r" d="M335.2,866.949c.934-1.892,17.365,5.193,17.818,7.542.224,1.16,21.18,23.365,18.451,26.9-1.432,3.774-9.043,2.135-16.872.671a21.52,21.52,0,0,1-8.615-3.7c-9.232-6.646-17.589-11.906-18.851-15.033C326.031,880.606,333.365,870.666,335.2,866.949Z"/><path class="r" d="M445.733,881.763c-.241-2.1,17.525.863,19.18,2.59s27.462,9.225,26.723,18.022-41.716,1.167-44.648.909S446.207,885.882,445.733,881.763Z"/><path class="s" d="M493.092,584a9.178,9.178,0,0,1-5.389,1.965c-12.215-.77-64.961-4.228-93.4-8.235-10.033-1.415-17.038-2.9-18.169-4.359a1.07,1.07,0,0,0,0,.117c-.055,1.581-.644,19.687-1.332,43.427-1.359,46.863-11.712,113.287-19.025,133.1-1.579,4.278,64.413,3.063,64.413,3.063,4.168-48.134,6.6-133.04,9.861-136.584,3.971-4.313,3.637,70.52,5.161,133.289,25.356,8.906,66.734,8.2,66.48,5.5C498.67,723.273,493.092,584,493.092,584Z"/><g class="t"><path d="M444.227,582.835h.592S444.61,582.832,444.227,582.835Z"/><path class="u" d="M444.227,582.835c-15.8-.047-49.922-5.105-49.922-5.105-10.033-1.415-17.038-2.9-18.169-4.359a1.07,1.07,0,0,0,0,.117c-.055,1.581-.644,19.687-1.332,43.427a11.854,11.854,0,0,0,1.665-.054,12.888,12.888,0,0,0,8.795-5.215,28.608,28.608,0,0,0,3.789-6.479C402.6,583.869,439.162,582.87,444.227,582.835Z"/></g><line class="v" x2="2.235" y2="175.15" transform="translate(481.742 581.914)"/><line class="v" x2="2.36" y2="172.114" transform="translate(464.961 584.024)"/><line class="v" x1="0.319" y2="170.691" transform="translate(448.52 582.69)"/><line class="v" x1="3.26" y2="35.092" transform="translate(430.051 581.404)"/><line class="v" x1="11.137" y2="173.255" transform="translate(404.939 579.978)"/><line class="v" x1="13.553" y2="174.516" transform="translate(387.701 578.642)"/><line class="v" x1="17.877" y2="175.166" transform="translate(368.799 577.435)"/><path class="v" d="M493.843,602.264s-93.95-3.329-118.311-9.793"/><path class="v" d="M430.051,616.5c32.13,10.126,64.436,1,64.436,1"/><path class="v" d="M430.587,614.31s-30.237,5.857-55.613-3.3"/><path class="v" d="M495.042,630.361s-24.619,10.4-62.426.931"/><path class="v" d="M495.719,645.688s-37.648,8.171-62.493.306"/><path class="v" d="M496.409,660.915s-19.916,13.113-62.732,2.947"/><path class="v" d="M497.228,678.434s-29.749,12.539-63.288-.468"/><path class="v" d="M498.011,694.484s-21.384,12.665-63.793.77"/><path class="v" d="M498.855,710.942s-29.082,12.265-64.431-2.515"/><path class="v" d="M499.558,723.79s-17.756,14.456-64.9-1.253"/><path class="v" d="M500.432,738.379s-27.753,11.809-65.512-1.748"/><path class="v" d="M427.932,630.061s-13.19,9.171-54.381-1.857"/><path class="v" d="M426.337,645.375s-17.992,6.644-52.99-2.676"/><path class="v" d="M425.773,662.473s-27.416,5.842-53.7-4.445"/><path class="v" d="M424.989,676.625s-26.96,9.408-54.6-4.519"/><path class="v" d="M424.143,692.165s-25.475,6.638-55.753-4.615"/><path class="v" d="M423.31,707.087s-21.642,7.635-57.129-4.728"/><path class="v" d="M422.22,720.261s-25.833,10.717-58.5-3.476"/><path class="v" d="M421.453,736.778s-28.972,7.22-60.882-4.332"/><path class="w" d="M513.9,474.883c2,3.129,10.182,92.044,0,110.49-10.24,18.551-95.546,28.467-122.366,14.2-27.216-14.48-37.7-28.407-41.336-54.378-3.645-26.022,4.854-66.184,4.854-66.184l116.308-76.865Z"/><path class="x" d="M491.457,577.515a67.723,67.723,0,0,0-7.132,4.147,21.156,21.156,0,0,0-3.666,5.387c-.68,1.438,2.138.129,4.29-3.025,2.09-1.145,4.035-2.435,4.513-1.965s-2.813,1.332-5.167,3.574c-2.305,2.957-4.514,5.856-3.723,5.913.773.056,1.658.088,4.931-4.192,2.312-1.059,4.564-2.322,4.747-1.833s-2.69,1.4-4.966,3.378c-3.185,3.265-3.926,4.456-5.105,5.6.636.711,2.768.067,6.676-3.839,2.109-1.311,5.256-1.818,5.362-1.162-.1.7-2.29,1.082-3.781,1.971a17.631,17.631,0,0,0-4.108,3.295c-.444.567.022,1.548,5.192-1.35a5.3,5.3,0,0,1,3.747-.233l2.68-7.342Z"/><path class="q" d="M506.166,580.367s-12.606-2.6-13.727-3.059-3.9,2.852-3,3.47,2.168,2.933,2.014,3.687a2.9,2.9,0,0,0,.569,2.62c.764.886,1.885,2.022,1.4,3.343s-1.632,2.652-.148,2.757a26.552,26.552,0,0,1,9.22,3.375c3.171,1.983,11.071-6.632,11.071-6.632Z"/><path class="x" d="M384.767,578.235a67.282,67.282,0,0,1,8.224-.225,20.846,20.846,0,0,1,5.906,2.662c1.322.869-1.758,1.238-5.22-.318-2.374.126-4.7.052-4.864.705s3.087-.348,6.251.324c3.492,1.306,6.873,2.614,6.227,3.08-.63.456-1.369.95-6.369-.975-2.519.316-5.092.427-5,.941s3.018-.224,5.979.262c4.4,1.105,5.649,1.73,7.246,2.088-.176.942-2.327,1.517-7.676.246-2.475-.006-5.421,1.222-5.174,1.838.443.543,2.512-.285,4.243-.313a17.373,17.373,0,0,1,5.2.644c.67.249.779,1.332-5.127,1.587a5.344,5.344,0,0,0-3.317,1.778l-6.073-4.85Z"/><path class="q" d="M373.689,588.427s9.416-8.863,10.134-9.851,4.8.376,4.352,1.376-.338,3.646.183,4.209a2.894,2.894,0,0,1,.866,2.535c-.2,1.159-.566,2.72.533,3.589s2.76,1.4,1.548,2.274a26.991,26.991,0,0,0-6.125,7.743c-1.682,3.365-12.866.183-12.866.183Z"/><path class="w" d="M280.694,568.2c14.426,24.607,33.743,49.881,71.475,48.667,11.328-.738,17.319-5.844,20.279-11.617a22.105,22.105,0,0,0,1.522-3.811c.05-.169.1-.338.146-.506a24.691,24.691,0,0,0,.622-2.965,21.648,21.648,0,0,0-.463-9.221l0-.017c-.055-.16-.109-.312-.167-.451q-.031-.082-.075-.177c-.188-.443-.48-1.075-.864-1.872-1.692-3.5-5.173-10.124-9.651-17.44-7.993-13.071-7.743-33.112-4.282-43.421.375-1.117,2.447-2.239,5.737-3.483.984-.371,2.076-.759,3.268-1.164,16.469-5.527,35.69-40.343,47.606-69.344,2.422-5.9,4.54-11.566,6.283-16.706a145.86,145.86,0,0,0,4.152-14.26c1.1-4.887,1.376-8.315.626-9.6a1,1,0,0,0-.967-.56,21.675,21.675,0,0,1-6.371-.852c-5.216-1.349-11.028-5.363-15.193-8.69l0,0c-3.381-2.7-5.666-4.951-5.666-4.951h-.017c-.2.009-2.093.089-5.241.494a110.4,110.4,0,0,0-11.436,2.125q-2.5.588-5.266,1.37c-.792.224-1.6.464-2.414.713a121.311,121.311,0,0,0-62.7,44.269C276,493.242,266.1,543.292,280.694,568.2Z"/><path class="y" d="M311.628,524.49a2.076,2.076,0,0,1,.255.08C311.774,524.536,311.689,524.507,311.628,524.49Z"/><path class="w" d="M373.97,400.033s.121.147.359.43c1.321,1.589,6.229,7.5,13.4,16.225,5.895,7.193,13.321,16.3,21.53,26.492l0,0c2.143,2.661,4.345,5.4,6.584,8.2,38.762,48.41,89.106,113.989,84.4,122.687a15.168,15.168,0,0,0-1.668,4.693,12.5,12.5,0,0,0-.166,2.437c.15,5.035,3.393,9.066,6.479,11.777.008.008.016.013.025.021a1.132,1.132,0,0,0,.133.118,31.137,31.137,0,0,0,2.618,2.028,27.148,27.148,0,0,0,2.815,1.733c41.08-6.468,60.409-23.958,60.409-71.022S544.007,399.139,450.052,393.67a15.616,15.616,0,0,0-7.134,1.914c-4.811,2.273-9.989,5.874-14.159,6.894a8.805,8.805,0,0,1-1.943.279c-9.01.206-15.539-4.765-22.164-6.506,0,0-.008-.005-.021-.009l-.037-.013a15.345,15.345,0,0,0-5.891-.468h-.017q-2.609.342-5,.688c-3.027.438-5.77.881-8.184,1.3-1.255.22-2.423.435-3.494.633-1.664.312-3.09.594-4.265.835-.5.1-.955.2-1.36.282C374.812,399.83,373.97,400.033,373.97,400.033Z"/><ellipse class="q" cx="17.154" cy="23.404" rx="17.154" ry="23.404" transform="translate(410.172 334.501)"/><path class="s" d="M433.7,346.754s-29.7,16.465-20.883-9.971C418.91,318.493,453.949,334.969,433.7,346.754Z"/><path class="s" d="M429.39,340.438s16.616,9.859,15.013,19.749c0,0,3.664-29.528-12.858-30.27s-22.917.853-21.45,32.077C410.1,361.994,414.895,337.156,429.39,340.438Z"/><path class="s" d="M432.266,330.11s-.835-9.2-9.956-7.9-13.029,6.515-14.332,11.727-2.606,9.121-3.909,9.121c0,0,3.909,3.908,5.212,2.605,0,0-3.382,9.371.915,17.064,0,0,1.691-11.852,8.206-13.155S432.266,330.11,432.266,330.11Z"/><path class="s" d="M431.431,330.03s6.515-3.909,13.03,5.212l3.908,7.818s-1.3,1.3-3.908,0c0,0,1.187,9.18-.058,14.362l-3.851-15.665Z"/><path class="w" d="M275.495,554.023l0,.008.005.009c13.262,36,82.652-101.668,82.652-101.668l29.569-35.684,9.973-12.034,2.322-2.8,2.327-2.8,2.314-2.795-.009,0s-.008-.005-.021-.009l-.037-.013a77.812,77.812,0,0,0-26.229-4.035,80.571,80.571,0,0,0-9.727.7A75.425,75.425,0,0,0,328.9,410.928C282.837,450.605,262.249,518.01,275.495,554.023Z"/><path class="y" d="M378.365,392.194a24.212,24.212,0,0,0,5.345,4.638,10.594,10.594,0,0,0,1.559.814c.075.034.154.068.234.1a71.256,71.256,0,0,0,14.517,4.107,38.884,38.884,0,0,0,6.654.637c.184,0,.363,0,.538-.009,7.909-.24,13.263,3.057,18.149,3.294,2.694.13,3.411-1.6,3.4-3.3a8.805,8.805,0,0,1-1.943.279c-9.01.206-15.539-4.765-22.164-6.506,0,0-.008-.005-.021-.009l-.037-.013A77.812,77.812,0,0,0,378.365,392.194Z"/><path class="y" d="M363.359,576.173s-24.2-25.766-13.475-39.658,39.005-49.631,39.916-63.709c0,0-4.2,25.46-14.495,40.286S363.359,576.173,363.359,576.173Z"/><path class="y" d="M501.458,560.044s11.54-8.729,12.081-16.166-10.71-27.705-10.71-27.705,6.752,19.233,3.707,26.293S501.458,560.044,501.458,560.044Z"/></g><path class="z" d="M1242.928,329.748c.343,1.364,4.565-2.886,4.861-3.176,1.35-1.322,2.684-2.66,3.974-4.041a53.043,53.043,0,0,0,7.469-9.813c3.467-6.085,5.349-12.7,9.791-18.246,7.632-9.53,18.6-15.573,28.306-22.683,5.865-4.3,11.412-9.091,15.525-15.142.55-.808,1.873-.045,1.319.771-7.659,11.264-19.741,17.973-30.515,25.816-5.787,4.213-11.415,8.918-15.453,14.9a64.62,64.62,0,0,0-5.293,10.536,47.947,47.947,0,0,1-6.375,10.679,92.951,92.951,0,0,1-9.857,10.425c-1.263,1.165-4.521,3.177-5.225.38a.764.764,0,0,1,1.473-.405Z"/><path class="z" d="M1244.114,335.793c17.8,6.221,36.427.727,53.75-4.374,8.22-2.419,16.539-4.89,25.071-5.928,6.538-.795,13.606-.4,18.7,4.238.728.663-.354,1.74-1.08,1.08-6.1-5.55-15.183-4.39-22.624-2.979-8.521,1.615-16.8,4.251-25.115,6.662-15.862,4.6-32.992,8.409-49.112,2.773-.922-.322-.525-1.8.406-1.472Z"/><path class="z" d="M1244.323,344.356c4.694,5.952,10.867,9.749,17.438,13.321,7.734,4.2,15.311,8.688,22.982,13.005a55.492,55.492,0,0,0,11.5,5.241c4.025,1.177,8.262,1.382,12.276,2.6a32.508,32.508,0,0,1,15.247,10.625c4.973,5.936,8.474,12.93,11.563,19.983.39.892-.925,1.67-1.319.771-5.432-12.4-12.973-26.675-27.194-30.259-3.914-.987-7.967-1.273-11.825-2.5a58.382,58.382,0,0,1-10.631-4.918c-7.459-4.173-14.8-8.563-22.306-12.645-7.044-3.831-13.769-7.745-18.81-14.138-.6-.763.471-1.851,1.079-1.08Z"/><path class="z" d="M1240.31,353.94c-.786,7.157,3.974,13.388,8.057,18.836,4.2,5.611,8.426,11,11.309,17.45a60.719,60.719,0,0,1,4.959,18.386c.751,7.106-.571,14.78,2.829,21.354.45.872-.867,1.645-1.319.771-3.154-6.1-2.418-12.894-2.821-19.522a58.5,58.5,0,0,0-5.7-21.8c-3.205-6.638-7.949-12.087-12.175-18.056-3.686-5.209-7.394-10.782-6.665-17.422.106-.966,1.634-.977,1.527,0Z"/><path class="z" d="M1233.322,352.129a48.9,48.9,0,0,0-5.238,17.588c-.73,6.44-.214,12.893-.681,19.339a47.7,47.7,0,0,1-4.157,15.407c-2.373,5.57-5.013,11.09-5.474,17.214-.074.974-1.6.982-1.527,0,.407-5.411,2.392-10.371,4.525-15.3,2.728-6.313,4.934-12.28,5.211-19.235.257-6.439-.077-12.829.8-19.24a49.319,49.319,0,0,1,5.219-16.54c.461-.869,1.779-.1,1.319.77Z"/><path class="z" d="M1218.349,349.412c-6.092,1.925-12.7,4.112-16.863,9.261-4.137,5.113-5.933,11.781-9.961,17.043A25.227,25.227,0,0,1,1178.136,385c-6.386,1.832-14.341,2.437-17.872,8.958-.468.865-1.787.095-1.318-.77,3.023-5.585,9.235-7.328,14.994-8.7,3.517-.839,7.011-1.709,10.09-3.687a27.045,27.045,0,0,0,7.56-7.779c3.583-5.3,5.373-11.97,9.869-16.611,4.39-4.531,10.619-6.617,16.484-8.47.939-.3,1.341,1.177.406,1.472Z"/><path class="z" d="M1227.662,339.938a32.919,32.919,0,0,0-20.748-6.833c-7.378.033-15.062,2.571-22.184-.4-6.133-2.556-10.728-7.9-16.352-11.333a57.026,57.026,0,0,0-21.351-7.651c-.969-.144-.557-1.616.406-1.472a58.153,58.153,0,0,1,20.984,7.365c6.182,3.644,11.3,9.994,18.229,12.179,7.682,2.422,16.082-.74,23.966-.076a33.716,33.716,0,0,1,18.129,7.138c.775.6-.313,1.677-1.079,1.08Z"/><path class="z" d="M1232.246,333.6c-3.325-4.67-8.71-7.085-12.087-11.722-3.768-5.172-5.815-11.742-8.473-17.52q-8.748-19.017-19.172-37.2a.764.764,0,0,1,1.319-.771q10.392,18.171,19.172,37.2c2.606,5.662,4.622,12.051,8.224,17.178,3.375,4.806,8.919,7.266,12.335,12.064.571.8-.752,1.566-1.318.771Z"/><path class="z" d="M1235.679,332.792a90.433,90.433,0,0,0-2.1-23.459c-.688-3.262-1.266-6.555-.617-9.876a27.036,27.036,0,0,1,3.687-8.583c3.9-6.485,7.648-12.7,9.924-19.986,1.2-3.842,2.154-7.92.525-11.781-1.412-3.349-4.152-5.9-6.755-8.343-.718-.673.363-1.751,1.08-1.079,4.714,4.42,8.851,9.166,7.946,16.062-.953,7.262-4.48,14.657-8.25,20.857-1.883,3.1-4.025,6.072-5.46,9.418-1.849,4.315-1.553,8.393-.607,12.9a92.443,92.443,0,0,1,2.157,23.865c-.049.978-1.576.984-1.527,0Z"/><path class="z" d="M1264.313,305.664c-4.523,3.8-9.99,6.973-15.952,6.942a17.755,17.755,0,0,1-8.114-2.231c-2.55-1.322-5.416-2.725-7.08-5.225-.539-.808.728-1.572,1.262-.77,1.46,2.192,4.305,3.51,6.556,4.677a15.947,15.947,0,0,0,8.149,2.006c5.272-.234,10.124-3.1,14.146-6.478.726-.61,1.767.463,1.033,1.079Z"/><path class="z" d="M1252.241,323.479a15.557,15.557,0,0,1-16.256-1.327c-.769-.559-.035-1.883.742-1.318a14.14,14.14,0,0,0,14.772,1.326c.849-.422,1.6.894.742,1.319Z"/><path class="z" d="M1276.675,288.761c-6.593,4.1-15.007,6.228-22.714,4.533a11.4,11.4,0,0,1-7.827-5.323c-1.732-3.1-1.861-6.831-1.941-10.293a.764.764,0,0,1,1.527,0c.074,3.183.133,6.67,1.733,9.523,1.842,3.286,5.46,4.578,9.02,4.952a30.946,30.946,0,0,0,19.431-4.71c.837-.521,1.6.8.771,1.318Z"/><path class="z" d="M1248.95,268.86a43.343,43.343,0,0,1-19.531,18.286c-6.78,3.164-17.665,6.533-24.232,1.329-.8-.637.326-1.767,1.122-1.136,3.748,2.97,9.251,2.239,13.6,1.321a40.716,40.716,0,0,0,10.822-3.957,41.808,41.808,0,0,0,16.854-16.654c.5-.9,1.869-.094,1.37.811Z"/><path class="z" d="M1233.917,300.319c-4.475,6.1-9.7,12.631-17.986,12.937-.964.035-.962-1.443,0-1.478,7.681-.284,12.566-6.578,16.692-12.205.56-.763,1.86-.026,1.294.746Z"/><path class="z" d="M1236.111,315.566c.592,5.632-8.573,7.656-12.7,8.312-.995.158-1.424-1.343-.42-1.5,3.361-.534,12.02-2.267,11.542-6.809-.1-1,1.478-.989,1.582,0Z"/><path class="z" d="M1316.02,328.255c-10.828-1.089-22.162-3.987-30.276-11.647a31.079,31.079,0,0,1-8.587-29.855c.23-.936,1.681-.54,1.45.4a29.571,29.571,0,0,0,8.76,28.912c7.767,7,18.491,9.669,28.653,10.691.953.1.963,1.6,0,1.5Z"/><path class="z" d="M1287.07,336.062c-6.554-1.243-13.626-2.689-18.769-7.2-5.554-4.869-6.692-12.292-7.348-19.216-.093-.985,1.466-.979,1.559,0,.643,6.787,1.778,14.041,7.461,18.606,4.9,3.933,11.477,5.179,17.511,6.324.984.186.568,1.67-.414,1.484Z"/><path class="z" d="M1260.732,339.726c-3.711.007-7.653-.234-10.143-3.367-2.819-3.546-1.406-7.311-.61-11.372.189-.964,1.661-.556,1.473.406-.667,3.4-2.09,7.05.366,10.016,2.239,2.7,5.654,2.8,8.914,2.79a.764.764,0,0,1,0,1.527Z"/><path class="z" d="M1242.674,366.507c-2.854-1.96-5.216-2.641-8.368-.846a23.552,23.552,0,0,0-5.565,4.519c-.67.722-1.748-.36-1.079-1.079a23.076,23.076,0,0,1,7.458-5.577c3.14-1.367,5.659-.166,8.325,1.664.805.553.042,1.877-.771,1.319Z"/><path class="z" d="M1260.343,396.31c-10.223-9.306-25.1-6.213-34.809,2.109-.742.636-1.827-.439-1.079-1.08,10.371-8.885,26.1-12,36.968-2.108.728.663-.354,1.74-1.08,1.079Z"/><path class="z" d="M1263.775,422.6c-.562-2.4-3.055-3.41-5.064-4.424a66.366,66.366,0,0,0-6.448-2.865,42.091,42.091,0,0,0-12.953-2.863,28.9,28.9,0,0,0-11.332,1.7c-3.516,1.313-8.89,4.078-10,7.987a.764.764,0,0,1-1.472-.406c1.122-3.967,5.9-6.84,9.437-8.4a30.08,30.08,0,0,1,13.363-2.41,45.266,45.266,0,0,1,15.463,3.761c3.5,1.47,9.488,3.289,10.475,7.512.223.956-1.249,1.364-1.473.406Z"/><path class="z" d="M1268.658,362.491c-4.3,2.882-7.146,5.644-9.026,10.558-1.658,4.335-3.671,9.817.135,13.658a.764.764,0,0,1-1.08,1.08c-3.969-4.006-2.6-9.592-.841-14.314a24.028,24.028,0,0,1,3.356-6.743,28.3,28.3,0,0,1,6.685-5.557c.819-.549,1.584.773.771,1.318Z"/><path class="z" d="M1296.149,377.331A58.709,58.709,0,0,0,1271.3,387.1c-3.819,2.662-7.882,6.537-6.755,11.636.821,3.714,1.355,6.572-.379,10.162-.427.885-1.744.111-1.318-.771,1.332-2.759,1.206-5.329.424-8.231a9.881,9.881,0,0,1-.28-4.886c.846-3.735,3.893-6.589,6.871-8.757a59.083,59.083,0,0,1,25.88-10.394c.961-.145,1.376,1.326.406,1.472Z"/><path class="z" d="M1276.275,338.563c-3.512,3.762-5.64,7.067-6.33,12.2-.608,4.526-1.3,10.228,3.291,12.995a.757.757,0,0,1-.8,1.284c-4.784-2.885-4.751-8.534-4.129-13.454a23.414,23.414,0,0,1,1.7-7.222,28.2,28.2,0,0,1,5.212-6.876c.668-.717,1.718.364,1.054,1.076Z"/><path class="z" d="M1310.18,329.72a68.484,68.484,0,0,0-10.05,28.922c-.548,5.287-.235,11.666,4.978,14.369,3.8,1.968,6.646,3.57,8.442,7.694.442,1.016-1.2,1.614-1.64.6-1.38-3.17-3.68-4.921-6.751-6.336a10.828,10.828,0,0,1-4.4-3.293c-2.579-3.449-2.768-8.2-2.42-12.384a68.924,68.924,0,0,1,10.278-30.283c.589-.95,2.159-.249,1.565.71Z"/><path class="z" d="M1220.183,408.472a30.577,30.577,0,0,0-24.593-24.555c-4.806-.89-9.655-.348-14.484.014-.981.073-.976-1.454,0-1.527,4.975-.373,9.944-.879,14.89.041a32.074,32.074,0,0,1,25.66,25.621c.19.959-1.281,1.37-1.473.406Z"/><path class="z" d="M1226.785,379.775l-6.249-5.286c-2.329-1.971-4.659-4.3-7.629-5.248-2.739-.872-5.892-.682-8.734-.641s-5.695.217-8.533.487c-.977.093-.971-1.435,0-1.527,3.154-.3,6.314-.481,9.482-.5,2.995-.014,6.206-.121,9.035,1.006a22.591,22.591,0,0,1,5.988,4.1q3.862,3.262,7.719,6.53c.752.636-.333,1.711-1.079,1.08Z"/><path class="z" d="M1199.529,332.4c8.266,3.049,10.483,13.435,9.225,21.411-.147.93-1.526.536-1.38-.391,1.122-7.119-.773-16.855-8.226-19.6-.86-.317-.489-1.737.381-1.416Z"/><path class="z" d="M1177.288,326.021c2.588,5.008,5.266,9.981,7.75,15.041a36.564,36.564,0,0,1,3.745,14.449c.552,9.593.6,20.229-6.5,27.649-.679.709-1.758-.366-1.08-1.074,7-7.316,6.643-18.146,5.995-27.54-.7-10.1-6.678-18.955-11.228-27.759-.448-.868.869-1.637,1.319-.766Z"/><path class="z" d="M1216.889,312.452a34.58,34.58,0,0,1-2.659,14.287c-1.636,3.855-5.095,5.463-8.98,6.629a.764.764,0,0,1-.406-1.472,20.545,20.545,0,0,0,5.515-2.47c1.881-1.253,2.521-3.2,3.237-5.277a33.512,33.512,0,0,0,1.766-11.7.764.764,0,0,1,1.527,0Z"/><path class="z" d="M1202.646,281.837c.537,19.16-11.4,37.749-30.943,41.5-.944.181-1.348-1.263-.4-1.445,18.911-3.63,30.361-21.514,29.84-40.054a.751.751,0,0,1,1.5,0Z"/><path class="aa" d="M1250.03,337.7h0a.107.107,0,0,0,.058-.14l-.1-.234-.2.081.1.234A.108.108,0,0,0,1250.03,337.7Z"/><path class="aa" d="M1248.924,338.151h0a.109.109,0,0,0,.058-.141l-.1-.233c-.006-.016-.2.083-.2.083l.1.232A.107.107,0,0,0,1248.924,338.151Z"/><path class="ab" d="M1250.05,337.648h0a.106.106,0,0,0,.058-.14l-.1-.256a.108.108,0,0,0-.14-.058h0a.107.107,0,0,0-.058.14l.1.256A.106.106,0,0,0,1250.05,337.648Z"/><path class="ab" d="M1248.946,338.1h0a.107.107,0,0,0,.058-.14l-.1-.256a.108.108,0,0,0-.14-.058h0a.106.106,0,0,0-.058.14l.1.256A.106.106,0,0,0,1248.946,338.1Z"/><rect class="ac" width="0.704" height="0.456" transform="matrix(0.925, -0.38, 0.38, 0.925, 1249.761, 340.382)"/><rect class="ac" width="0.704" height="0.456" transform="translate(1249.433 339.639) rotate(-22.352)"/><path class="ad" d="M1218.58,355.55l35.721-1.332a.8.8,0,0,0,.829-.815l-.02-.535-4.18-7.079a1.245,1.245,0,0,0-1.14-.65l-27.335,1.02c-.51.019-1.6,1.065-1.809,1.53l-2.98,6.7.009.236A.852.852,0,0,0,1218.58,355.55Z"/><path class="ae" d="M1218.549,354.794l35.721-1.333c.4-.014,1.036-.387.775-.8l-4.146-7.624a1.245,1.245,0,0,0-1.14-.649l-27.336,1.019a1.347,1.347,0,0,0-1.176.79l-3.533,7.781C1217.465,354.47,1218.114,354.81,1218.549,354.794Z"/><rect class="ae" width="29.273" height="18.497" rx="1.07" transform="matrix(0.999, -0.037, 0.037, 0.999, 1220.937, 326.934)"/><rect class="ad" width="27.015" height="16.028" transform="matrix(0.999, -0.037, 0.037, 0.999, 1222.108, 327.9)"/><path class="ad" d="M1231.219,353.985l10.525-.393a.191.191,0,0,0,.18-.227l-.548-2.756a.309.309,0,0,0-.314-.248l-9.493.354a.272.272,0,0,0-.26.242l-.3,2.8A.206.206,0,0,0,1231.219,353.985Z"/><path class="af" d="M1222.1,350.5l28.6-1.067c.318-.012.555-.143.5-.276l-1.327-3.191c-.071-.172-.427-.288-.838-.272l-25.794.962c-.366.013-.672.14-.719.3l-.984,3.3C1221.5,350.391,1221.766,350.508,1222.1,350.5Z"/><rect class="ae" width="29.844" height="0.151" transform="matrix(-0.999, 0.037, -0.037, -0.999, 1251.177, 346.319)"/><rect class="ae" width="29.844" height="0.151" transform="matrix(-0.999, 0.037, -0.037, -0.999, 1251.205, 347.072)"/><rect class="ae" width="29.844" height="0.151" transform="matrix(-0.999, 0.037, -0.037, -0.999, 1251.239, 347.976)"/><rect class="ae" width="29.844" height="0.151" transform="matrix(-0.999, 0.037, -0.037, -0.999, 1251.27, 348.804)"/><rect class="ae" width="0.226" height="4.974" transform="translate(1249.182 349.79) rotate(160.425)"/><rect class="ae" width="0.226" height="4.974" transform="translate(1246.997 349.871) rotate(160.425)"/><rect class="ae" width="0.226" height="4.974" transform="translate(1245.265 349.936) rotate(160.425)"/><rect class="ae" width="0.226" height="4.974" transform="translate(1243.533 350.001) rotate(160.425)"/><rect class="ae" width="0.226" height="4.974" transform="translate(1241.726 350.068) rotate(160.425)"/><rect class="ae" width="0.226" height="4.974" transform="translate(1239.352 350.238) rotate(166.886)"/><rect class="ae" width="0.226" height="4.974" transform="matrix(-0.999, 0.037, -0.037, -0.999, 1236.85, 350.398)"/><rect class="ae" width="0.226" height="4.974" transform="translate(1223.671 350.809) rotate(-164.697)"/><rect class="ae" width="0.226" height="4.974" transform="translate(1225.779 350.73) rotate(-164.697)"/><rect class="ae" width="0.226" height="4.974" transform="translate(1227.888 350.652) rotate(-164.697)"/><rect class="ae" width="0.226" height="4.974" transform="translate(1229.997 350.573) rotate(-164.697)"/><rect class="ae" width="0.226" height="4.974" transform="translate(1232.105 350.495) rotate(-164.697)"/><rect class="ae" width="0.226" height="4.974" transform="translate(1234.214 350.416) rotate(-164.697)"/><path class="aa" d="M1302.586,358.658h0a.053.053,0,0,0,.031-.068l-.043-.117-.1.036.043.118A.054.054,0,0,0,1302.586,358.658Z"/><path class="aa" d="M1302.03,358.863h0a.054.054,0,0,0,.031-.069l-.043-.117c0-.008-.1.038-.1.038l.043.116A.053.053,0,0,0,1302.03,358.863Z"/><path class="ab" d="M1302.6,358.635h0a.053.053,0,0,0,.032-.068l-.047-.129a.055.055,0,0,0-.069-.031h0a.053.053,0,0,0-.031.068l.047.129A.053.053,0,0,0,1302.6,358.635Z"/><path class="ab" d="M1302.042,358.839h0a.053.053,0,0,0,.031-.068l-.047-.128a.053.053,0,0,0-.068-.032h0a.053.053,0,0,0-.032.068l.047.129A.054.054,0,0,0,1302.042,358.839Z"/><rect class="ac" width="0.348" height="0.226" transform="translate(1302.403 359.982) rotate(-20.199)"/><rect class="ac" width="0.348" height="0.226" transform="translate(1302.254 359.609) rotate(-20.199)"/><path class="ad" d="M1286.692,366.908l17.7.005a.394.394,0,0,0,.425-.388v-.265l-1.936-3.58a.618.618,0,0,0-.553-.343l-13.545,0a1.787,1.787,0,0,0-.923.723l-1.6,3.258v.117A.423.423,0,0,0,1286.692,366.908Z"/><path class="ae" d="M1286.69,366.533l17.7.005c.2,0,.52-.172.4-.384l-1.91-3.849a.616.616,0,0,0-.552-.343l-13.545,0a.667.667,0,0,0-.6.369l-1.893,3.784C1286.16,366.352,1286.475,366.533,1286.69,366.533Z"/><rect class="ae" width="14.495" height="9.159" rx="0.53" transform="translate(1288.389 352.794)"/><rect class="ad" width="13.377" height="7.937" transform="translate(1288.95 353.294)"/><path class="ad" d="M1292.975,366.368l5.215,0a.094.094,0,0,0,.093-.109l-.22-1.374a.152.152,0,0,0-.15-.129h-4.7a.133.133,0,0,0-.132.115l-.2,1.381A.1.1,0,0,0,1292.975,366.368Z"/><path class="af" d="M1288.529,364.472l14.17.005c.158,0,.278-.061.253-.127l-.6-1.6c-.032-.087-.206-.151-.41-.151l-12.781,0c-.181,0-.335.057-.361.134l-.549,1.613C1288.233,364.409,1288.362,364.472,1288.529,364.472Z"/><rect class="ae" width="14.778" height="0.075" transform="translate(1302.993 362.947) rotate(-179.982)"/><rect class="ae" width="14.778" height="0.075" transform="translate(1302.993 363.32) rotate(-179.982)"/><rect class="ae" width="14.778" height="0.075" transform="translate(1302.993 363.768) rotate(-179.982)"/><rect class="ae" width="14.778" height="0.075" transform="translate(1302.992 364.178) rotate(-179.982)"/><rect class="ae" width="0.112" height="2.463" transform="matrix(-0.954, 0.299, -0.299, -0.954, 1301.941, 364.627)"/><rect class="ae" width="0.112" height="2.463" transform="matrix(-0.954, 0.299, -0.299, -0.954, 1300.859, 364.626)"/><rect class="ae" width="0.112" height="2.463" transform="matrix(-0.954, 0.299, -0.299, -0.954, 1300, 364.626)"/><rect class="ae" width="0.112" height="2.463" transform="matrix(-0.954, 0.299, -0.299, -0.954, 1299.142, 364.626)"/><rect class="ae" width="0.112" height="2.463" transform="matrix(-0.954, 0.299, -0.299, -0.954, 1298.246, 364.626)"/><rect class="ae" width="0.112" height="2.463" transform="matrix(-0.982, 0.19, -0.19, -0.982, 1297.068, 364.666)"/><rect class="ae" width="0.112" height="2.463" transform="translate(1295.827 364.698) rotate(-179.982)"/><rect class="ae" width="0.112" height="2.463" transform="translate(1289.298 364.656) rotate(-162.543)"/><rect class="ae" width="0.112" height="2.463" transform="translate(1290.343 364.657) rotate(-162.543)"/><rect class="ae" width="0.112" height="2.463" transform="translate(1291.388 364.657) rotate(-162.543)"/><rect class="ae" width="0.112" height="2.463" transform="translate(1292.433 364.657) rotate(-162.543)"/><rect class="ae" width="0.112" height="2.463" transform="translate(1293.478 364.658) rotate(-162.543)"/><rect class="ae" width="0.112" height="2.463" transform="translate(1294.523 364.658) rotate(-162.543)"/><path class="aa" d="M1290.317,288.647h0a.053.053,0,0,0,.061-.044l.02-.124-.1-.017-.02.124A.053.053,0,0,0,1290.317,288.647Z"/><path class="aa" d="M1289.732,288.551h0a.053.053,0,0,0,.061-.044l.021-.123a.477.477,0,0,0-.106-.016l-.02.122A.054.054,0,0,0,1289.732,288.551Z"/><path class="ab" d="M1290.338,288.632h0a.054.054,0,0,0,.061-.044l.022-.135a.054.054,0,0,0-.044-.061h0a.053.053,0,0,0-.061.044l-.022.135A.053.053,0,0,0,1290.338,288.632Z"/><path class="ab" d="M1289.754,288.537h0a.053.053,0,0,0,.061-.044l.022-.135a.053.053,0,0,0-.044-.061h0a.054.054,0,0,0-.061.044l-.022.135A.054.054,0,0,0,1289.754,288.537Z"/><rect class="ac" width="0.226" height="0.348" transform="matrix(0.161, -0.987, 0.987, 0.161, 1289.47, 289.932)"/><rect class="ac" width="0.226" height="0.348" transform="translate(1289.524 289.534) rotate(-80.72)"/><path class="ad" d="M1272.421,288.007l15.406,8.715a.394.394,0,0,0,.561-.129l.13-.23.077-4.07a.619.619,0,0,0-.312-.57l-11.79-6.67a1.79,1.79,0,0,0-1.16.176l-2.995,2.049-.058.1A.423.423,0,0,0,1272.421,288.007Z"/><path class="ae" d="M1272.6,287.68l15.406,8.715c.171.1.537.106.536-.139l.232-4.29a.615.615,0,0,0-.312-.57l-11.789-6.67a.67.67,0,0,0-.7.028l-3.51,2.363C1272.231,287.262,1272.417,287.573,1272.6,287.68Z"/><rect class="ae" width="9.159" height="14.495" rx="0.53" transform="matrix(0.492, -0.87, 0.87, 0.492, 1276.336, 284.526)"/><rect class="ad" width="7.937" height="13.377" transform="matrix(0.492, -0.87, 0.87, 0.492, 1277.181, 284.173)"/><path class="ad" d="M1278.156,290.629l4.539,2.568a.1.1,0,0,0,.135-.049l.485-1.3a.153.153,0,0,0-.068-.186l-4.094-2.317a.136.136,0,0,0-.173.035l-.855,1.1A.1.1,0,0,0,1278.156,290.629Z"/><path class="af" d="M1275.219,286.791l12.334,6.977c.137.077.271.084.282.013l.269-1.69c.015-.091-.1-.232-.282-.332l-11.125-6.293c-.158-.089-.319-.115-.38-.061l-1.271,1.134C1274.992,286.59,1275.074,286.708,1275.219,286.791Z"/><rect class="ae" width="14.778" height="0.075" transform="matrix(-0.87, -0.492, 0.492, -0.87, 1288.561, 292.58)"/><rect class="ae" width="14.778" height="0.075" transform="matrix(-0.87, -0.492, 0.492, -0.87, 1288.377, 292.905)"/><rect class="ae" width="14.778" height="0.075" transform="matrix(-0.87, -0.492, 0.492, -0.87, 1288.157, 293.295)"/><rect class="ae" width="14.778" height="0.075" transform="matrix(-0.87, -0.492, 0.492, -0.87, 1287.955, 293.652)"/><rect class="ae" width="0.112" height="2.463" transform="translate(1286.818 293.525) rotate(-167.942)"/><rect class="ae" width="0.112" height="2.463" transform="translate(1285.876 292.992) rotate(-167.942)"/><rect class="ae" width="0.112" height="2.463" transform="translate(1285.129 292.57) rotate(-167.942)"/><rect class="ae" width="0.112" height="2.463" transform="translate(1284.382 292.147) rotate(-167.942)"/><rect class="ae" width="0.112" height="2.463" transform="translate(1283.603 291.706) rotate(-167.942)"/><rect class="ae" width="0.112" height="2.463" transform="translate(1282.558 291.161) rotate(-161.481)"/><rect class="ae" width="0.112" height="2.463" transform="matrix(-0.87, -0.492, 0.492, -0.87, 1281.461, 290.579)"/><rect class="ae" width="0.112" height="2.463" transform="matrix(-0.683, -0.731, 0.731, -0.683, 1275.798, 287.33)"/><rect class="ae" width="0.112" height="2.463" transform="matrix(-0.683, -0.731, 0.731, -0.683, 1276.708, 287.844)"/><rect class="ae" width="0.112" height="2.463" transform="matrix(-0.683, -0.731, 0.731, -0.683, 1277.617, 288.359)"/><rect class="ae" width="0.112" height="2.463" transform="matrix(-0.683, -0.731, 0.731, -0.683, 1278.526, 288.873)"/><rect class="ae" width="0.112" height="2.463" transform="matrix(-0.683, -0.731, 0.731, -0.683, 1279.436, 289.388)"/><rect class="ae" width="0.112" height="2.463" transform="matrix(-0.683, -0.731, 0.731, -0.683, 1280.345, 289.902)"/><path class="aa" d="M1200.209,382.965h0a.053.053,0,0,0-.006-.075l-.1-.08-.069.081.1.08A.053.053,0,0,0,1200.209,382.965Z"/><path class="aa" d="M1199.829,383.419h0a.054.054,0,0,0-.006-.075l-.1-.08c-.007-.006-.068.082-.068.082l.095.08A.054.054,0,0,0,1199.829,383.419Z"/><path class="ab" d="M1200.207,382.939h0a.052.052,0,0,0-.007-.074l-.1-.088a.052.052,0,0,0-.074.006h0a.054.054,0,0,0,.006.075l.1.088A.053.053,0,0,0,1200.207,382.939Z"/><path class="ab" d="M1199.828,383.393h0a.053.053,0,0,0-.007-.075l-.105-.088a.053.053,0,0,0-.075.007h0a.055.055,0,0,0,.007.075l.105.087A.054.054,0,0,0,1199.828,383.393Z"/><rect class="ac" width="0.348" height="0.226" transform="matrix(0.642, -0.767, 0.767, 0.642, 1200.711, 384.204)"/><rect class="ac" width="0.348" height="0.226" transform="translate(1200.395 383.954) rotate(-50.092)"/><path class="ad" d="M1190.541,398.038l15.348-8.817a.394.394,0,0,0,.176-.548l-.133-.23-3.463-2.139a.617.617,0,0,0-.649-.022l-11.745,6.747a1.784,1.784,0,0,0-.44,1.088l.237,3.621.058.1A.422.422,0,0,0,1190.541,398.038Z"/><path class="ae" d="M1190.353,397.714,1205.7,388.9c.17-.1.365-.408.154-.532l-3.574-2.385a.615.615,0,0,0-.649-.022l-11.745,6.747a.665.665,0,0,0-.334.617l.245,4.224C1189.8,397.822,1190.166,397.821,1190.353,397.714Z"/><rect class="ae" width="14.495" height="9.159" rx="0.53" transform="translate(1184.979 384.954) rotate(-29.875)"/><rect class="ad" width="13.377" height="7.937" transform="translate(1185.714 385.107) rotate(-29.875)"/><path class="ad" d="M1195.719,394.439l4.523-2.6a.1.1,0,0,0,.026-.141l-.875-1.081a.153.153,0,0,0-.195-.037l-4.079,2.343a.135.135,0,0,0-.058.166l.514,1.3A.1.1,0,0,0,1195.719,394.439Z"/><path class="af" d="M1190.92,395.011l12.288-7.059c.136-.078.21-.19.155-.236l-1.317-1.093c-.071-.059-.253-.027-.43.074l-11.083,6.367c-.157.09-.262.216-.246.3l.328,1.671C1190.632,395.1,1190.776,395.094,1190.92,395.011Z"/><rect class="ae" width="14.778" height="0.075" transform="translate(1202.7 386.48) rotate(150.125)"/><rect class="ae" width="14.778" height="0.075" transform="translate(1202.885 386.803) rotate(150.125)"/><rect class="ae" width="14.778" height="0.075" transform="translate(1203.109 387.192) rotate(150.125)"/><rect class="ae" width="14.778" height="0.075" transform="translate(1203.313 387.548) rotate(150.125)"/><rect class="ae" width="0.112" height="2.463" transform="matrix(-0.678, 0.735, -0.735, -0.678, 1202.625, 388.461)"/><rect class="ae" width="0.112" height="2.463" transform="matrix(-0.678, 0.735, -0.735, -0.678, 1201.686, 389)"/><rect class="ae" width="0.112" height="2.463" transform="matrix(-0.678, 0.735, -0.735, -0.678, 1200.942, 389.427)"/><rect class="ae" width="0.112" height="2.463" transform="matrix(-0.678, 0.735, -0.735, -0.678, 1200.198, 389.855)"/><rect class="ae" width="0.112" height="2.463" transform="matrix(-0.678, 0.735, -0.735, -0.678, 1199.421, 390.301)"/><rect class="ae" width="0.112" height="2.463" transform="matrix(-0.756, 0.654, -0.654, -0.756, 1198.42, 390.922)"/><rect class="ae" width="0.112" height="2.463" transform="translate(1197.36 391.569) rotate(150.125)"/><rect class="ae" width="0.112" height="2.463" transform="translate(1191.679 394.787) rotate(167.564)"/><rect class="ae" width="0.112" height="2.463" transform="translate(1192.585 394.267) rotate(167.564)"/><rect class="ae" width="0.112" height="2.463" transform="translate(1193.491 393.746) rotate(167.564)"/><rect class="ae" width="0.112" height="2.463" transform="translate(1194.397 393.226) rotate(167.564)"/><rect class="ae" width="0.112" height="2.463" transform="translate(1195.303 392.705) rotate(167.564)"/><rect class="ae" width="0.112" height="2.463" transform="translate(1196.209 392.185) rotate(167.564)"/><path class="ag" d="M1200.923,330.058,1185.4,354.565l5.969,6.267Z"/><path class="ah" d="M1203.709,355.068l-11.5-.669,8.71-24.341Z"/><path class="ah" d="M1175.871,354.336l25.052-24.278L1185.4,354.565Z"/><path class="ai" d="M1191.365,360.832l.848-6.433,1.669.1Z"/><path class="ag" d="M1292.861,328.613l14.827,24.938-6.144,6.1Z"/><path class="ah" d="M1289.368,353.534l11.51-.343-8.017-24.578Z"/><path class="ah" d="M1317.215,353.591l-24.354-24.978,14.827,24.938Z"/><path class="ai" d="M1301.544,359.646l-.666-6.455-1.671.05Z"/><path class="ag" d="M1248.905,413.645l-21.973,1.876-1.047,6.495Z"/><path class="ah" d="M1235.052,426.835l-4.883-7.265,18.736-5.925Z"/><path class="ah" d="M1222.69,409.652l26.215,3.993-21.973,1.876Z"/><path class="ai" d="M1225.885,422.016l4.283-2.446.709,1.055Z"/></svg>