<svg xmlns="http://www.w3.org/2000/svg" width="465" height="307.99" viewBox="0 0 465 307.99"><defs><style>.a{fill:#a5c233;}.b{fill:#e1e2e4;}.c{fill:#9dcadd;}.d{fill:#7fb4c9;}.e{fill:#9c9d9f;}.f{fill:#6b6b6b;}.g{fill:#ffc84f;}.h{opacity:0.3;}.i{fill:#947dce;}.j{opacity:0.15;}.k{fill:#62548a;}.l,.m,.p{fill:none;stroke:#947dce;stroke-miterlimit:10;}.l{stroke-width:0.485px;}.m{stroke-width:0.473px;}.n{fill:#999;}.o{fill:#ccc;}.p{stroke-width:0.373px;}.q{fill:#d19442;}.r{fill:#d8a35d;}</style></defs><g transform="translate(-485.475 -430.101)"><g transform="translate(778.226 495.24)"><path class="a" d="M688.305,511.269c2.008,1.713,3.921,3.487,5.8,5.284,1.868,1.82,3.732,3.576,5.486,5.536,1.765,1.932,3.529,3.881,5.246,5.876.849,1,1.743,1.99,2.556,3l2.432,3.063c1.634,2.039,3.214,4.12,4.786,6.211,1.546,2.106,3.006,4.269,4.517,6.408s2.9,4.352,4.314,6.557q1.065,1.653,2.093,3.328c.69,1.115,1.394,2.223,2.034,3.367,1.318,2.265,2.607,4.551,3.9,6.841,1.265,2.3,2.461,4.644,3.665,6.986,1.225,2.329,2.338,4.719,3.459,7.107l1.654,3.6c.541,1.206,1.039,2.432,1.551,3.651s1.035,2.435,1.517,3.669l1.4,3.726c.928,2.483,1.783,5.014,2.591,7.558s1.558,5.122,2.252,7.75c.351,1.311.675,2.623.994,3.979.158.683.324,1.321.473,2.039l.476,2.245L724.7,615.6c.618-1.005,1.137-1.834,1.723-2.718l1.711-2.587c1.144-1.713,2.286-3.414,3.45-5.1l7.028-10.018,14.1-19.863q7.1-9.871,14.6-19.428c4.977-6.386,10.18-12.594,15.458-18.723,5.336-6.087,10.778-12.074,16.43-17.852s11.481-11.381,17.5-16.752a239.169,239.169,0,0,1,18.823-15.144c3.246-2.369,6.589-4.6,10-6.7s6.876-4.095,10.431-5.888a1.434,1.434,0,0,1,1.949.693,1.547,1.547,0,0,1-.441,1.869q-4.663,3.606-9.034,7.5c-2.92,2.6-5.742,5.3-8.507,8.063s-5.457,5.591-8.07,8.5-5.17,5.87-7.694,8.858c-5.03,5.992-9.837,12.182-14.469,18.508-2.3,3.176-4.6,6.351-6.848,9.568s-4.449,6.467-6.623,9.736c-4.377,6.518-8.568,13.17-12.729,19.835q-6.2,10.022-12.118,20.23c-1.967,3.4-3.915,6.819-5.806,10.266s-3.7,6.943-5.458,10.468c-1.773,3.51-3.466,7.064-5.133,10.614l-2.481,5.312-2.362,5.185-14.5,31.822-12.295-35.271-4.637-13.3c-.419-1.14-.808-2.293-1.2-3.445-.371-1.156-.829-2.294-1.2-3.456l-2.356-6.953-9.379-28.145c-.77-2.372-1.634-4.706-2.394-7.1L701,560.618l-1.222-3.559c-.786-2.389-1.625-4.758-2.376-7.183-.792-2.4-1.653-4.773-2.416-7.207-.8-2.414-1.551-4.874-2.36-7.266s-1.564-4.858-2.322-7.327c-.712-2.476-1.591-4.979-2.334-7.5-.763-2.528-1.491-5.078-2.122-7.693a1.593,1.593,0,0,1,1.114-1.922A1.5,1.5,0,0,1,688.305,511.269Z" transform="translate(-685.799 -474.674)"/></g><g transform="translate(485.475 430.101)"><g transform="translate(2.723 51.741)"><path class="b" d="M492.7,494.434a2.966,2.966,0,0,1-1.162-.237,6.87,6.87,0,0,1-4.2-6.329V468.481a2.975,2.975,0,1,1,5.951,0v19.387a.943.943,0,0,0,.573.852,2.976,2.976,0,0,1-1.165,5.714Z" transform="translate(-487.339 -465.506)"/></g><path class="c" d="M619.265,467.1a41.835,41.835,0,0,0-4.305.134c.085-.792.139-1.593.155-2.4.376-18.71-18.263-34.256-41.629-34.726-19.159-.384-35.544,9.486-41.034,23.366a38.617,38.617,0,0,0-13.185-2.556c-17.8-.358-32.466,11.019-32.754,25.411s13.907,26.349,31.708,26.707c12.033.241,89.953-.281,100.324-.072,15.136.3,27.566-7.479,27.766-17.383S634.4,467.407,619.265,467.1Z" transform="translate(-484.999 -430.101)"/><path class="d" d="M572.4,437.539c.308,0,.621,0,.932.009,9.617.193,18.533,3.317,25.1,8.8,6.093,5.083,9.375,11.6,9.239,18.343-.012.565-.05,1.156-.114,1.752L606.6,475.4l8.974-.744c.945-.079,1.906-.118,2.851-.118.229,0,.46,0,.691.007,5.8.117,11.355,1.7,15.226,4.346,1.382.944,4.595,3.475,4.532,6.55-.06,3-3.231,5.36-4.592,6.237-3.81,2.457-9.235,3.865-14.881,3.865-.234,0-.471,0-.707-.007-1.733-.034-5.312-.051-10.94-.051-9.188,0-22.353.044-36.292.091-14.284.047-29.054.1-39.6.1-6.936,0-11.349-.02-13.489-.064a28.772,28.772,0,0,1-18-6.342c-4.238-3.569-6.519-8.106-6.426-12.777.2-10,11.193-18.133,24.5-18.133.221,0,.444,0,.666.007a31.084,31.084,0,0,1,10.648,2.055l6.886,2.668,2.717-6.869c2.03-5.132,6.245-9.8,11.866-13.135a41.407,41.407,0,0,1,21.17-5.539Zm0-7.438c-18.693,0-34.566,9.759-39.953,23.378a38.619,38.619,0,0,0-13.185-2.556c-.272-.006-.547-.009-.816-.009-17.433,0-31.654,11.248-31.939,25.419-.289,14.393,13.907,26.349,31.708,26.707,2.356.047,7.235.064,13.638.064,20.639,0,57.105-.187,75.9-.187,5.165,0,8.992.015,10.791.051.285,0,.573.007.856.007,14.747,0,26.714-7.674,26.91-17.391.2-9.9-11.91-18.178-27.046-18.481-.281-.006-.561-.009-.84-.009-1.173,0-2.331.05-3.465.143.085-.792.139-1.593.155-2.4.376-18.71-18.263-34.256-41.629-34.726-.361-.007-.723-.012-1.081-.012Z" transform="translate(-484.999 -430.101)"/><rect class="e" width="35.681" height="27.158" rx="8.051" transform="translate(0 73.004)"/><ellipse class="c" cx="5.845" cy="6.516" rx="5.845" ry="6.516" transform="translate(12.656 43.021)"/><g transform="translate(15.155 46.713)"><path class="b" d="M507.353,496.328H498.82a2.975,2.975,0,0,1,0-5.949h8.533a.937.937,0,0,0,.924-.924V468.94a.936.936,0,0,0-.924-.924h-7.772a2.975,2.975,0,1,1,0-5.951h7.772a6.881,6.881,0,0,1,6.873,6.874v20.515A6.881,6.881,0,0,1,507.353,496.328Z" transform="translate(-495.846 -462.066)"/></g><path class="f" d="M502.455,488.459a3.627,3.627,0,1,0-5.495,3.105v4.6a1.868,1.868,0,0,0,3.735,0v-4.6A3.623,3.623,0,0,0,502.455,488.459Z" transform="translate(-480.988 -404.849)"/></g><g transform="translate(553.086 457.919)"><g transform="translate(0 63.721)"><path class="g" d="M694.291,627.66S587.305,553.351,542.05,596.2c-36.134,34.211,28.008,74.405,110.063,63.6,57.759-7.607,64.3,3.442,74.421,3.2,75.282-5.768,176.719-28.291,127.353-63.677-67.247-48.2-112.735,2.9-136.167,15.619Z" transform="translate(-531.74 -452.93)"/><path class="h" d="M827.1,595.773c-28.119-5.8-135.238,33.92-135.238,33.92s-93.284-28.119-115.6-30.8-32.582,5.8-32.582,5.8,10.529-11.865,22.763-12.943,29.9-4.017,29.9-4.017,178.534-8.479,202.189-3.125S827.1,595.773,827.1,595.773Z" transform="translate(-526.23 -451.167)"/><path class="i" d="M667.268,492.739a58.359,58.359,0,0,0-23.381,4.882c-20.278,8.866-58.045,27.5-58.656,36.6-.81,12.051,18.069,109.813,54.576,122.533a109.135,109.135,0,0,0,33.82,5.631A58.344,58.344,0,0,0,729.665,623.3c11.506-32.814,25.65-79.71,17.614-92.4-9.373-14.8-43.1-28.51-60.2-34.7a58.184,58.184,0,0,0-19.808-3.461Z" transform="translate(-507.07 -492.739)"/><path class="i" d="M622.124,509.89c-63,33.761-78.477,94.714-61.814,108.15,11.677,9.414,55.7,30.236,93.861,28.9a622.65,622.65,0,0,1,74,2.254s65.46-13.319,78.516-32.937S783.521,532.91,751.043,514.49,622.124,509.89,622.124,509.89Z" transform="translate(-521.434 -487.122)"/><path class="j" d="M688.7,532.183c17.852,9.521,33.41,45.6,33.41,45.6s-40.169,6.249-48.5,12.5,1.19-2.382,5.951-19.64S688.7,532.183,688.7,532.183Z" transform="translate(-467.804 -474.54)"/><path class="j" d="M610.713,530.4c4.166,19.043,24.1,72.21,24.1,72.21s-18.465-21.031-38.087-22.22-26.9-1.488-26.78,3.272c.025.941,3.272-21.126,18.449-34.813S610.713,530.4,610.713,530.4Z" transform="translate(-514.111 -475.361)"/><path class="k" d="M663.126,638.42s14.729-11.1,34.143-9.09,36.152,6.242,19.415,11.49-34.142,5.917-42.176,5.246S663.126,638.42,663.126,638.42Z" transform="translate(-471.119 -429.83)"/></g><path class="l" d="M571.035,583.514s-49.613,13.777-30.916,40c15.025,21.072,77.465,18.877,110.4,18.031" transform="translate(-529.816 -387.136)"/><path class="m" d="M546.36,596.244s36.209-1.755,64.481,12.533,80.194,20.217,80.194,20.217" transform="translate(-524.994 -381.294)"/><path class="n" d="M720.68,642.55h-107.8a8.894,8.894,0,0,1-8.77-7.422l-13-77.579a8.89,8.89,0,0,1,8.768-10.36h133.8a8.892,8.892,0,0,1,8.77,10.36l-13,77.579A8.891,8.891,0,0,1,720.68,642.55Z" transform="translate(-504.405 -403.896)"/><path class="o" d="M720.68,641.464h-107.8a8.8,8.8,0,0,1-8.77-7.155l-13-74.779a8.674,8.674,0,0,1,8.768-9.987h133.8a8.675,8.675,0,0,1,8.77,9.987l-13,74.779A8.8,8.8,0,0,1,720.68,641.464Z" transform="translate(-504.405 -402.81)"/><path class="m" d="M545.248,623.545c13.873,6.318,35.278,12.119,64.892,9.537,58.133-5.065,77.292,7.159,77.292,7.159" transform="translate(-525.507 -368.666)"/><path class="k" d="M680.155,636.3c-.645-.111-69.624-17.376-85.022-4.656s51.549,12.936,63.6,10.151S680.155,636.3,680.155,636.3Z" transform="translate(-503.546 -367.085)"/><path class="p" d="M694.712,621.658s56.227-7.979,73.1-23.257" transform="translate(-456.546 -380.267)"/><path class="p" d="M695.9,626.423s53.352-2.508,79.573-20.065" transform="translate(-455.998 -376.595)"/><path class="p" d="M704.972,604.8s7.488,13.68,7.26,29.184" transform="translate(-451.812 -377.315)"/><path class="p" d="M714.933,604.018s4.56,8.209,5.243,26.676" transform="translate(-447.216 -377.675)"/><g transform="translate(138.673)"><path class="q" d="M641.174,485.79s1.334,14.877-7.842,23.1,21.146,0,21.146,0-5.642-14.249-4.377-23.1S641.174,485.79,641.174,485.79Z" transform="translate(-624.337 -434.04)"/><ellipse class="r" cx="16.042" cy="21.887" rx="16.042" ry="21.887" transform="translate(5.635 13.744)"/><g transform="translate(5.445 6.103)"><path class="g" d="M652.237,470.279s-27.772,15.4-19.529-9.325C638.411,443.85,671.18,459.257,652.237,470.279Z" transform="translate(-629.977 -453.312)"/><path class="g" d="M648.591,464.023s15.54,9.22,14.041,18.469c0,0,3.426-27.614-12.024-28.309s-21.433.8-20.06,30C630.547,484.182,635.037,460.955,648.591,464.023Z" transform="translate(-630.357 -452.964)"/></g><path class="g" d="M653,456.64s-.78-8.6-9.31-7.386-12.185,6.092-13.4,10.966-2.436,8.53-3.655,8.53c0,0,3.655,3.655,4.874,2.436,0,0-3.162,8.764.856,15.957,0,0,1.581-11.083,7.674-12.3S653,456.64,653,456.64Z" transform="translate(-626.631 -449.136)"/><path class="g" d="M644.141,454.466s6.093-3.656,12.185,4.874l3.655,7.311s-1.219,1.217-3.655,0c0,0,1.109,8.584-.054,13.43l-3.6-14.649Z" transform="translate(-618.552 -447.036)"/></g><path class="i" d="M639.509,495.118s4.787,8.665,12.084,6.613,9.349-3.149,9.349-3.149,10.716,14.322,5.7,16.6-41.268,6.611-43.092-1.368,15.5-18.013,15.5-18.013" transform="translate(-489.442 -427.921)"/><path class="p" d="M572.93,594.217s-24.591,24.043-8.293,53.96" transform="translate(-519.136 -382.197)"/><path class="p" d="M582.008,596.341s-18.69,32.048-7.726,55.192" transform="translate(-513.702 -381.217)"/><path class="h" d="M648.629,615.77l39.285,11.392s12.486,5.663,10.659.789-11.847-6.7-18.257-8.831S648.629,615.77,648.629,615.77Z" transform="translate(-477.808 -372.253)"/></g></g></svg>