<svg xmlns="http://www.w3.org/2000/svg" width="66.639" height="97.251" viewBox="0 0 66.639 97.251"><defs><style>.a{fill:#3b2e2e;}.b{fill:#99b3ff;}.c{fill:#43558c;opacity:0.6;}.d{opacity:0.11;}.e{fill:#ffcccd;}.f{fill:#90ab78;}.g{fill:#475937;}</style></defs><path class="a" d="M151.143,162.3s-10,15.594-15.794,20.992l-1.607-.823s6.93-8.352,8.441-11.373,3.077-4.443,1.227-8.707-4.515-17.573-5.937-19.626-4.087-9.288-5.154-12.6-1.244-9.339-1.244-9.339l1.244.516a38.3,38.3,0,0,0,1.6,7.881c1.066,2.6,5.865,11.535,6.575,14.089s4.4,16.6,5.153,18.192c1.962,4.133,11.026-8.729,11.026-8.729Z" transform="translate(-105.792 -86.041)"/><path class="b" d="M91.577,108.772c0-.8-.667-3.066-2.532-2.666s-5.6,3.065-8.93,4.531-5.865,5.465-4.532,7.2.533,3.865,1.866,5.2,2.132,2.133,2.132,3.066,1.2,2.532,2.133,2.532a20.092,20.092,0,0,1,5.464.8c1.066.533,2.266-.533,3.465-.533s2.8-.533,3.066-2,2.132-7.6,2.932-8.663,2.132-5.465,2.132-5.465a8.518,8.518,0,0,0-2.8-.533C94.509,112.238,91.577,108.772,91.577,108.772Z" transform="translate(-71.032 -76.854)"/><path class="c" d="M108.506,117.416a34.11,34.11,0,0,1-3.621,4.288c-1.066.8-4.265,3.2-4.665,4.531s-.163,2.666.718,2.4.215-1.9,2.481-3.747S108.506,117.416,108.506,117.416Z" transform="translate(-86.472 -83.922)"/><path class="b" d="M134.818,115.35c-.78-.176-3.137-.023-3.157,1.885s1.761,6.135,2.459,9.707,4.043,6.921,6.026,6,3.888.329,5.481-.678,2.549-1.612,3.459-1.407,2.734-.614,2.939-1.524a20.1,20.1,0,0,1,1.981-5.155c.754-.923-.022-2.327.241-3.5s.095-2.848-1.277-3.43-6.943-3.749-7.808-4.764-4.863-3.281-4.863-3.281a8.52,8.52,0,0,0-1.135,2.614C138.843,113.251,134.818,115.35,134.818,115.35Z" transform="translate(-106.156 -78.813)"/><path class="c" d="M145.193,123.251a34.131,34.131,0,0,1,3.388,4.474c.546,1.216,2.184,4.863,3.4,5.546s2.564.744,2.5-.174-1.8-.626-3.111-3.243S145.193,123.251,145.193,123.251Z" transform="translate(-114.577 -87.553)"/><path class="b" d="M150.637,82.51c-.466.65-1.244,2.88.5,3.642s6.336.77,9.9,1.52,7.95-1.024,7.876-3.209,1.819-3.452,1.512-5.312-.491-2.976.053-3.734.5-2.757-.258-3.3a20.089,20.089,0,0,1-3.975-3.834c-.556-1.055-2.152-.887-3.127-1.586s-2.585-1.2-3.656-.161-6.159,4.932-7.43,5.332-4.917,3.2-4.917,3.2a8.513,8.513,0,0,0,1.964,2.064C150.273,77.986,150.637,82.51,150.637,82.51Z" transform="translate(-115.774 -51.889)"/><path class="c" d="M155.666,96.3a34.141,34.141,0,0,1,5.441-1.376c1.332-.028,5.33-.114,6.431-.965s1.686-2.072.814-2.368-1.28,1.417-4.2,1.6S155.666,96.3,155.666,96.3Z" transform="translate(-121.095 -67.832)"/><path class="b" d="M126.448,50.857c.459.655,2.3,2.129,3.6.732s2.828-5.721,4.717-8.833,1.671-7.84-.415-8.495-2.653-2.861-4.509-3.188-2.97-.524-3.5-1.289-2.435-1.387-3.2-.852A20.081,20.081,0,0,1,118.2,31.41c-1.179.174-1.55,1.736-2.533,2.424s-1.987,2.042-1.365,3.4,2.609,7.446,2.566,8.778,1.386,5.7,1.386,5.7a8.52,8.52,0,0,0,2.6-1.169C122.059,49.7,126.448,50.857,126.448,50.857Z" transform="translate(-95.236 -28.731)"/><path class="c" d="M140.42,63.449a34.166,34.166,0,0,1,.507-5.589c.415-1.266,1.66-5.066,1.223-6.387s-1.4-2.277-1.964-1.553.912,1.677.117,4.492S140.42,63.449,140.42,63.449Z" transform="translate(-111.331 -41.762)"/><path class="d" d="M136.2,115.47a15.177,15.177,0,0,0,.47,5.731c.431,1.266.3,1.8.365.866s-.066-1.133,0-1.933.079-2.4.539-.666.794,1.553.794,1.553l-.2-.82.066-2.532a6.206,6.206,0,0,0,.933,1.666c.733,1,1.466,1.066,1.866,2.2s1.066,2.532,1.066,2.532-1-2.844-1.177-3.621-1.155-1.088-1.466-1.711-.675-1.622-.349-1.4.8-.066,1.163.378a5.9,5.9,0,0,1,.674,1.178l.488.711.733,1.155.533.822s-.689-1.6-.866-2-1.621-2.039-.444-1.342,2.263,1.219,2.6,1.969,1.112.75,1.268,1.127a13.036,13.036,0,0,1-.889-1.177c-.533-.777-.911-2.066-1.444-2.666s-1.177-1.422-.622-1.577a1.534,1.534,0,0,1,1.4.178,7.223,7.223,0,0,1,1.311,1.533c.6.778.933.755,2.11,1.466s1.733.777,2.2,1.266-1.177-1.977-2.243-2.266-1.128-1.577-1.408-2.243-.614-1.977-.058-1.844a6.207,6.207,0,0,1,1.822.8c1.066.578,1.577.045,2.443,1.8s1.022,2.2,1.155,2.354a23.439,23.439,0,0,0-1.666-3.732c-.4-.466-4.021-1.888-4.332-2.31a23,23,0,0,0-1.755-1.711Z" transform="translate(-108.928 -80.056)"/><path class="d" d="M106.747,107.762A15.167,15.167,0,0,0,101.3,109.6c-1.125.724-1.675.723-.753.563s1.084-.338,1.876-.466,2.347-.5.777.363-1.316,1.145-1.316,1.145l.748-.392,2.474-.546a6.209,6.209,0,0,0-1.392,1.307c-.793.952-.681,1.68-1.684,2.341s-2.2,1.645-2.2,1.645,2.519-1.655,3.23-2.015.778-1.383,1.307-1.835,1.411-1.047,1.274-.676.258.76-.086,1.22a5.893,5.893,0,0,1-.98.938l-.572.646-.944.99-.669.715s1.386-1.054,1.732-1.323,1.587-2.065,1.195-.755-.638,2.49-1.284,3-.46,1.26-.789,1.5a12.988,12.988,0,0,1,.928-1.146c.626-.7,1.785-1.382,2.239-2.044s1.1-1.485,1.381-.984a1.533,1.533,0,0,1,.165,1.4,7.207,7.207,0,0,1-1.172,1.641c-.61.769-.508,1.087-.914,2.4a12.664,12.664,0,0,1-.7,2.44c-.362.57,1.635-1.619,1.658-2.724s1.259-1.474,1.838-1.907,1.771-1.072,1.775-.5a6.2,6.2,0,0,1-.337,1.961c-.3,1.174.337,1.541-1.157,2.805s-1.888,1.522-2.007,1.689a23.448,23.448,0,0,0,3.22-2.516c.357-.5.863-4.357,1.2-4.761a22.9,22.9,0,0,0,1.237-2.115Z" transform="translate(-86.344 -77.914)"/><path class="d" d="M153.2,83.734s2.8-3.84,6.263-5.352c0,0,2.067-.979,2.8-1.379s-2.2,1.533-3.2,2.466-2.332,1.755-2.532,2.377-.6,1.4.067,1.276a5.056,5.056,0,0,0,1.866-.854,8.011,8.011,0,0,1,2.732-.713c.466-.02-2.666.758-3.532,1.8s-1.652.593-1.252,1.51.386,2.4,1.786,2.266a17.023,17.023,0,0,0,2.8-.543c.866-.19.533-.19.533-.19l2.465.482a15.93,15.93,0,0,0-3.309.44c-.889.344-1.956,1.767-3.155,1.189s-.333,1.221,1.066,1.954,2.412.6,4.171,1c0,0-3.305.533-5.171-.267a12.264,12.264,0,0,0-3.388-.933Z" transform="translate(-119.557 -58.739)"/><path class="b" d="M86.165,68.919c.756-.26,2.683-1.626,1.7-3.261s-4.716-4.3-7.185-6.975-7.072-3.773-8.279-1.95-3.483,1.759-4.31,3.452-1.325,2.709-2.208,3.012-2.005,1.957-1.7,2.839A20.08,20.08,0,0,1,65.2,71.464c-.158,1.181,1.24,1.97,1.629,3.1s1.413,2.474,2.886,2.251,7.878-.449,9.146-.039,5.861.243,5.861.243a8.519,8.519,0,0,0-.4-2.821C83.839,72.817,86.165,68.919,86.165,68.919Z" transform="translate(-64.13 -45.597)"/><path class="c" d="M98.055,87.364a34.138,34.138,0,0,1-5.231-2.033c-1.1-.749-4.41-3-5.8-2.941s-2.574.711-2.036,1.458,1.864-.413,4.35,1.13S98.055,87.364,98.055,87.364Z" transform="translate(-77.027 -62.124)"/><path class="d" d="M134.426,70.166a15.172,15.172,0,0,0,3.778-4.335c.606-1.192,1.081-1.469.366-.866s-.765.838-1.385,1.348-1.774,1.617-.854.079.559-1.652.559-1.652l-.448.716-1.86,1.719a6.219,6.219,0,0,0,.543-1.831c.2-1.223-.259-1.794.273-2.871s1.07-2.53,1.07-2.53-1.34,2.7-1.772,3.369.026,1.587-.2,2.244-.69,1.615-.759,1.226-.606-.526-.541-1.1a5.886,5.886,0,0,1,.373-1.3l.168-.846.316-1.331.217-.955s-.665,1.609-.828,2.015-.329,2.584-.651,1.254-.705-2.472-.4-3.234-.239-1.32-.077-1.695a13.062,13.062,0,0,1-.224,1.458c-.185.925-.845,2.094-.9,2.894s-.2,1.836-.7,1.546a1.533,1.533,0,0,1-.849-1.126,7.215,7.215,0,0,1,.184-2.008c.139-.972-.11-1.2-.422-2.535a12.641,12.641,0,0,1-.627-2.459c.025-.675-.6,2.223-.058,3.188s-.343,1.908-.625,2.574-.988,1.819-1.28,1.328a6.2,6.2,0,0,1-.7-1.863c-.33-1.167-1.068-1.161-.415-3.006s.863-2.266.881-2.47a23.382,23.382,0,0,0-1.511,3.8c-.055.612,1.452,4.2,1.367,4.715a22.94,22.94,0,0,0,0,2.45Z" transform="translate(-102.052 -46.385)"/><path class="d" d="M99.426,83.617s-4.445,1.676-8.173,1.037c0,0-2.266-.317-3.1-.385s2.68-.074,4.027-.306,2.913-.187,3.421-.6,1.269-.839.645-1.1a5.058,5.058,0,0,0-2.029-.31,8.014,8.014,0,0,1-2.675-.9c-.4-.239,2.644.83,3.941.433s1.707.411,1.876-.575.994-2.217-.249-2.874a17.008,17.008,0,0,0-2.638-1.082c-.828-.317-.55-.134-.55-.134l-1.8-1.756a15.924,15.924,0,0,0,3.008,1.448c.932.2,2.6-.4,3.29.738s.949-.838.182-2.219S96.921,73.2,95.669,71.9c0,0,3.055,1.368,4.176,3.061a12.26,12.26,0,0,0,2.32,2.639Z" transform="translate(-79.003 -55.598)"/><path class="e" d="M118.254,84.529a4.744,4.744,0,0,1,2.268-.566,5.643,5.643,0,0,1,1.894.68s.709-.836,1.21-.7a5.844,5.844,0,0,0,1.636-.016l1.666.711.749.3a4.907,4.907,0,0,0,.843.774c.336.194.75,1.383.75,1.383s.805.423.716,1.152.959.845.852,1.481.478,1.129.458,1.63-.185,1.573-.185,1.573a3.906,3.906,0,0,1,.185,1.312c-.02.752-.019,1.5-.458,1.5s-.94,0-1.066.5a5.572,5.572,0,0,1-1,1.459l-.969.244s.225-.458-.406.3a4.85,4.85,0,0,1-1.384,1.133l-1.63.376a2.53,2.53,0,0,1-1.627-.479c-.505-.525-.255-.775-.881-.65a3,3,0,0,1-1.348-.125l-1.662-1.254-1.143-.684-.863-1.448-1.129-2.152s.627-.695.627-1.152V89.732a2.178,2.178,0,0,0,.5-1.05,16.3,16.3,0,0,1,.377-1.709s.1.039.487-.8.537-1.211.537-1.211Z" transform="translate(-96.239 -63.084)"/><path class="f" d="M179.689,219.609h0s1.91-3.217,4.124,1.661,18.871,3.03,18.871,3.03-7.915-16.54-15.266-12.442S179.689,219.609,179.689,219.609Z" transform="translate(-136.045 -142.289)"/><path class="g" d="M179.689,226.214a7.053,7.053,0,0,1,8.241-4.172c6.062,1.387,7.2,4.461,8.992,5.762S187.8,217.146,179.689,226.214Z" transform="translate(-136.045 -148.894)"/></svg>