<svg id="Group_1360" data-name="Group 1360" xmlns="http://www.w3.org/2000/svg" width="30.758" height="25.688" viewBox="0 0 30.758 25.688">
  <path id="Path_1120" data-name="Path 1120" d="M388.575,353.318c-3.114-5.542-12.536-6.075-15.18.212-1,2.371-1.142,5.156.588,7.2a8.183,8.183,0,0,0,11.029,1.55C388.423,360.143,390.817,357.308,388.575,353.318Z" transform="translate(-368.744 -346.932)" fill="#060808"/>
  <path id="Path_1121" data-name="Path 1121" d="M379.215,356.109a26.737,26.737,0,0,0-7.832-4.009c-4.067,3.67-6.683,7.021-4.83,12.2,1.693,4.738,6.985,8.37,12.814,8.676,2.162.114,6.946.026,8.36-1.794.633-.816.246-3.133.134-4.074C387.231,361.833,383.455,359.245,379.215,356.109Z" transform="translate(-365.946 -348.229)" fill="#dc6c85"/>
  <path id="Path_1122" data-name="Path 1122" d="M378.128,348.112c4.584,1.131,9.1,7.6,11.815,11.122a25.409,25.409,0,0,0,3.41,4.272c4.779,4.062,9.023-1.927,8.357-6.517-.46-3.171-3.66-6.823-6.05-8.76l-.123-.1a12.288,12.288,0,0,0-5.119-2.354A17.268,17.268,0,0,0,378.128,348.112Z" transform="translate(-371.022 -345.464)" fill="#dc6c85"/>
  <path id="Path_1123" data-name="Path 1123" d="M400.952,359.637c-2.89-.332-3.279-3.867-.277-4.325C404.243,354.769,405.57,360.168,400.952,359.637Z" transform="translate(-379.551 -349.552)" fill="#060808"/>
  <path id="Path_1124" data-name="Path 1124" d="M384.932,371.24c-2.533-.291-2.874-3.39-.242-3.791C387.817,366.973,388.981,371.706,384.932,371.24Z" transform="translate(-372.997 -354.611)" fill="#060808"/>
  <path id="Path_1125" data-name="Path 1125" d="M373.794,360.49c-2.533-.292-2.874-3.39-.242-3.791C376.679,356.223,377.843,360.955,373.794,360.49Z" transform="translate(-368.356 -350.131)" fill="#060808"/>
  <path id="Path_1126" data-name="Path 1126" d="M394.859,362.8c.124,1.215-.239,2.451.021,3.608a17.318,17.318,0,0,0,3.215-1.545C398.952,363.482,396.072,362.941,394.859,362.8Z" transform="translate(-377.962 -352.687)" fill="#bc4665"/>
  <path id="Path_1127" data-name="Path 1127" d="M372.995,375.505c-3.2-.367-3.626-4.277-.306-4.783C376.635,370.122,378.1,376.093,372.995,375.505Z" transform="translate(-367.798 -355.971)" fill="#060808"/>
  <path id="Path_1128" data-name="Path 1128" d="M400.522,350.124c2.154.247,3.139-.671,3.261-1.771A12.289,12.289,0,0,0,398.664,346C397.179,347.271,397.967,349.83,400.522,350.124Z" transform="translate(-379.268 -345.687)" fill="#060808"/>
  <path id="Path_1129" data-name="Path 1129" d="M389.628,351.092c-2.148-.247-2.437-2.874-.206-3.214C392.074,347.475,393.06,351.487,389.628,351.092Z" transform="translate(-375.084 -346.458)" fill="#060808"/>
  <g id="Group_1359" data-name="Group 1359" transform="translate(13.834 11.214)">
    <path id="Path_1130" data-name="Path 1130" d="M391.9,367.885a6.585,6.585,0,0,0-2.212,5.595c.2,2.417,1.567,3.645,3.779,4.595,2.783,1.2,5.677,1.664,8.3.055,2.37-1.454,4.32-3.285,4.633-6.169.209-1.928.027-4.821-1.791-6C400.7,363.42,395.158,365.01,391.9,367.885Z" transform="translate(-389.662 -364.688)" fill="#060808"/>
    <g id="Group_1357" data-name="Group 1357" transform="translate(8.663 1.638)">
      <path id="Path_1131" data-name="Path 1131" d="M410.493,369.637c.746,2.065-1.246,4.04-3.278,4.034-2.339-.006-3.457-3.236-2.143-4.946a2.964,2.964,0,0,1,4.086-.7A3.377,3.377,0,0,1,410.493,369.637Z" transform="translate(-404.513 -367.496)" fill="#fff"/>
      <path id="Path_1132" data-name="Path 1132" d="M406.576,372.435a1.637,1.637,0,0,1-.342-3.121,1.634,1.634,0,1,1,.342,3.121Z" transform="translate(-404.812 -368.195)"/>
    </g>
    <g id="Group_1358" data-name="Group 1358" transform="translate(1.378 3.955)">
      <path id="Path_1133" data-name="Path 1133" d="M398.462,373.773c.8,2.224-1.342,4.35-3.529,4.344-2.518-.008-3.722-3.485-2.307-5.326a3.192,3.192,0,0,1,4.4-.754A3.634,3.634,0,0,1,398.462,373.773Z" transform="translate(-392.024 -371.468)" fill="#fff"/>
      <path id="Path_1134" data-name="Path 1134" d="M394.244,376.786a1.763,1.763,0,0,1-.368-3.361,1.76,1.76,0,1,1,.368,3.361Z" transform="translate(-392.345 -372.221)"/>
    </g>
    <path id="Path_1135" data-name="Path 1135" d="M407.237,380.441a4.231,4.231,0,0,1-3.518.789c.807,1.9,3.02,1.224,3.487-.462" transform="translate(-395.519 -371.252)" fill="#f05d5e"/>
  </g>
</svg>
