<svg xmlns="http://www.w3.org/2000/svg" width="244.674" height="405.835" viewBox="0 0 244.674 405.835"><defs><style>.a{fill:#c3cef7;}.b{font-size:14.931px;font-family:DejaVuSans, DejaVu Sans;}.c{fill:#d9b398;}.d{fill:#eec8a4;}.e{fill:#daad88;}.f{fill:#e6a17a;}.g{opacity:0.42;}.h{fill:none;stroke:#99603d;stroke-linecap:round;stroke-miterlimit:10;opacity:0.44;}</style></defs><g transform="translate(-263.845 -210.523)"><path class="a" d="M316.023,234.084h-37.58c-1.949,0-3.529-2.347-3.529-5.243s1.58-5.243,3.529-5.243h37.58c1.949,0,3.529,2.347,3.529,5.243S317.972,234.084,316.023,234.084Z"/><path class="a" d="M313.52,246.677l25.56-14.759a3.554,3.554,0,0,0,0-6.154l-25.56-14.759a3.553,3.553,0,0,0-5.33,3.077V243.6A3.553,3.553,0,0,0,313.52,246.677Z"/><g transform="translate(0 -9)"><path class="a" d="M300.052,312.758h37.58c1.948,0,3.528,2.347,3.528,5.242s-1.58,5.243-3.528,5.243h-37.58c-1.949,0-3.529-2.347-3.529-5.243S298.1,312.758,300.052,312.758Z"/><path class="a" d="M302.555,300.164l-25.56,14.759a3.554,3.554,0,0,0,0,6.155l25.56,14.759a3.553,3.553,0,0,0,5.33-3.077V303.241A3.553,3.553,0,0,0,302.555,300.164Z"/></g><g transform="translate(0 -6)"><path class="a" d="M313.737,399.022V436.6c0,1.949-2.347,3.529-5.243,3.529s-5.243-1.58-5.243-3.529v-37.58c0-1.949,2.347-3.529,5.243-3.529S313.737,397.073,313.737,399.022Z"/><path class="a" d="M326.33,401.525l-14.759-25.559a3.553,3.553,0,0,0-6.154,0l-14.759,25.559a3.554,3.554,0,0,0,3.077,5.331h29.518A3.554,3.554,0,0,0,326.33,401.525Z"/></g><g transform="translate(0 10)"><path class="a" d="M303.556,504.457v-37.58c0-1.948,2.347-3.528,5.243-3.528s5.242,1.58,5.242,3.528v37.58c0,1.949-2.347,3.529-5.242,3.529S303.556,506.406,303.556,504.457Z"/><path class="a" d="M290.962,501.954l14.759,25.56a3.554,3.554,0,0,0,6.155,0l14.759-25.56a3.553,3.553,0,0,0-3.077-5.33H294.039A3.553,3.553,0,0,0,290.962,501.954Z"/></g><text class="b" transform="translate(376.519 234.084)"><tspan x="0" y="0" xml:space="preserve">-  ნაბიჟი მარჯვნივ</tspan></text><text class="b" transform="translate(376.519 314.243)"><tspan x="0" y="0" xml:space="preserve">-  ნაბიჯი მარცხნივ</tspan></text><text class="b" transform="translate(376.519 406.403)"><tspan x="0" y="0" xml:space="preserve">-  ნაბიჯი ზევით</tspan></text><text class="b" transform="translate(376.519 511.562)"><tspan x="0" y="0" xml:space="preserve">-  ნაბიჯი ქვევით</tspan></text><g transform="translate(0 3.492)"><g transform="translate(263.845 568.935)"><path class="c" d="M357.6,578.451a46.294,46.294,0,0,1,2.121,11.014c-5.841.686-11.1.759-14.127,1.389-4.085.849-5.961,1.189-8.684,3.235-.742.554-1.482,1.2-2.259,1.892-1.264,1.126-2.622,2.383-4.22,3.581-.534.4-1.1.8-1.692,1.18-.542.349-1.108.689-1.706,1.011a41.7,41.7,0,0,0-4.2,2.7c-.107.075-.217.154-.324.232-1.4,1-2.791,2.074-4,3.022-.136.107-.268.214-.4.314-1.856,1.473-3.172,2.584-3.172,2.584l-.009,0c-.082-.022-.761-.217-1.759-.613-.02-.007-.035-.016-.054-.022a23.98,23.98,0,0,1-4.18-2.153.019.019,0,0,1-.012-.007c-.155-.1-.312-.208-.466-.314-.117-.082-.236-.167-.353-.252a13.814,13.814,0,0,1-3.864-4.129c-.026-.042-.047-.082-.073-.126a9.915,9.915,0,0,1-1.032-7.012,14.831,14.831,0,0,1,.912-2.883c.094.037.193.075.293.1a1.355,1.355,0,0,0,.193.059,1.6,1.6,0,0,0,.17.041.4.4,0,0,0,.069.016,1.6,1.6,0,0,0,.189.035c.059.009.12.019.179.025a.1.1,0,0,0,.029,0,1.228,1.228,0,0,0,.154.016,2.7,2.7,0,0,0,2.631-1.347,50.106,50.106,0,0,0,2.9-6.3,1,1,0,0,0,.047-.321,1.321,1.321,0,0,0-.009-.16v0c-.006-.053-.016-.1-.025-.154v0c-.01-.05-.022-.1-.035-.141a1.177,1.177,0,0,0-.034-.12v0l0-.009,0,0a.265.265,0,0,0,.025.041.2.2,0,0,0,.034.042.428.428,0,0,0,.035.037.288.288,0,0,0,.041.035c.132.1.324.116.6-.092a3.932,3.932,0,0,1,.422-.271,1.288,1.288,0,0,1,.117-.063c.214-.117.434-.223.623-.324.044-.022.084-.044.122-.066a1.406,1.406,0,0,0,.371-.264c.013-.019.025-.035.038-.054a.243.243,0,0,0,.154.135.185.185,0,0,0,.047.016.364.364,0,0,0,.057.016.95.95,0,0,0,.107.016.611.611,0,0,0,.072,0,.587.587,0,0,0,.081,0,.678.678,0,0,0,.114-.01.123.123,0,0,0,.031,0c.034-.006.069-.016.1-.025a.674.674,0,0,0,.1-.038c.044-.016.084-.038.129-.059a1.446,1.446,0,0,0,.22-.155.348.348,0,0,0,.05-.041c.072-.063.135-.126.2-.189a.477.477,0,0,0-.042.076.294.294,0,0,0-.028.063.65.65,0,0,0-.05.154v.013a.467.467,0,0,0-.01.094c0,.176.095.346.378.459.849.343,2.725,1.192,5.277,2.385.318.147.648.314.982.487a.735.735,0,0,0,.076.038c2.027,1.073,4.142,2.48,4.629,2.811l.022.012.082.057.013,0c.252-.028,4.289-.538,5.608-1.529,1.214-.912,1.888-2.093,2.867-2.939a4.063,4.063,0,0,1,.368-.3,2.484,2.484,0,0,1,.419-.2l.1-.038c.044-.018.092-.038.142-.057.1-.034.207-.075.328-.117a.378.378,0,0,1,.059-.021l.223-.079c.1-.031.2-.07.312-.107.091-.028.182-.059.28-.095.138-.044.283-.091.434-.142l.608-.2c.072-.021.141-.044.217-.068l.434-.139.009,0c.236-.072.475-.148.721-.227l.016-.007q.24-.071.491-.151l.261-.082c.085-.025.176-.054.264-.082l.626-.193.482-.147c.192-.056.387-.117.583-.177.346-.1.7-.214,1.066-.324.148-.044.3-.088.447-.135.173-.05.349-.1.525-.157q1.006-.3,2.058-.614c.2-.059.412-.122.62-.182l1.747-.516c.113-.035.23-.07.343-.1.025-.006.054-.016.082-.025l.608-.18,4.167-1.214.557-.164c.233-.066.463-.132.7-.2.113-.031.23-.066.343-.1.563-.16,1.121-.32,1.662-.478.107-.031.211-.063.318-.092C357.274,578.548,357.438,578.5,357.6,578.451Z" transform="translate(-266.722 -569.636)"/><g transform="translate(0 4.548)"><path class="d" d="M332.074,598.518a3.49,3.49,0,0,1-4.52.7,3.124,3.124,0,0,1-.248-.2c-1.363-1.189-3.235-1.7-4.258-2.382-1-.668-4.935-2.313-5.583-2.7-.013-.005-.025-.016-.038-.021a.568.568,0,0,0-.686-.035.225.225,0,0,0-.047.214v0a.242.242,0,0,0,.026.069.253.253,0,0,0,.041.082.523.523,0,0,0,.057.082l0,0a1.768,1.768,0,0,0,.268.261c.853.684,2.725,1.706,4.768,3.409a9.079,9.079,0,0,0,3.748,2.212.583.583,0,0,1,.258.182c.633.711,1.259,3.219-.088,4.415-1.533,1.363-4.258.513-4.258.513s.009.035.022.094c.007.025.009.054.016.085.012.066.025.147.034.242a.45.45,0,0,1,.006.073.426.426,0,0,1,.006.062,2.592,2.592,0,0,1-.935,2.339,4.161,4.161,0,0,1-3.239.51.093.093,0,0,0,0,.019v0a2.723,2.723,0,0,1,.01.415c0,.022,0,.044,0,.07,0,.054-.009.107-.016.164a2.006,2.006,0,0,1-2.036,1.885,6.526,6.526,0,0,1-3.584-.68,10.733,10.733,0,0,1-1.353-.853c-.038-.025-.088-.059-.155-.1-.016-.009-.031-.022-.05-.031-.61-.359-2.178-1.155-4.18-2.153a.019.019,0,0,1-.012-.007q-.246-.118-.5-.245c-.126-.063-.256-.129-.384-.192-1.539-.764-3.266-1.615-4.982-2.467-.057-.026-.113-.054-.17-.082-2.433-1.208-4.824-2.408-6.6-3.342-.155-.079-.3-.157-.447-.233v0c-.962-.51-1.7-.925-2.1-1.2a23.771,23.771,0,0,0-3.774-2.3,8.072,8.072,0,0,0-3.21-.595c-2.036,0-12.944-2.71-20.034-4.529a46.376,46.376,0,0,1,3.484-17.576,81.392,81.392,0,0,0,9.4,2.555c6.637,1.388,8.969,2.392,11.241,2.348a26.065,26.065,0,0,0,8.856-2.213c3.405-1.363,6.3-2.215,7.833-2.895a5.735,5.735,0,0,1,4.739-.252,6.507,6.507,0,0,1,1.731,1.1c2.555,2.213,5.28,5.108,5.28,5.108l-4.554,2.669-.016.009-.371.218.1.05h0c.034.019.076.038.123.063.887.434,4.157,2.045,6.627,3.44a.322.322,0,0,0,.051.025c.528.3,1.016.589,1.438.85,1.256.784,2.295,1.426,3.216,1.973l.022.012c.031.016.063.035.094.054,1.029.6,1.913,1.095,2.8,1.536,1.7.853,3.748,1.7,4.768,2.895a12.9,12.9,0,0,1,1.063,1.382C332.392,596.585,332.745,597.624,332.074,598.518Z" transform="translate(-263.845 -573.844)"/><path class="e" d="M325.42,607.876a3.263,3.263,0,0,0-.084-.559c-2.044-1.7-8.175-5.961-8.856-6.3s-1.533-.341.51,1.022,6.3,4.087,7.324,4.938C324.755,607.344,325.133,607.649,325.42,607.876Z" transform="translate(-267.664 -575.831)"/><path class="e" d="M311.253,603.675c-.851-.51-1.022-.34,1.022,1.192,1.469,1.1,6.1,4.752,8.595,6.721a2.915,2.915,0,0,0,.008-.655l-.087-.1C318.917,609.466,312.106,604.187,311.253,603.675Z" transform="translate(-267.292 -576.022)"/><path class="e" d="M321.517,595.242l.038.023a24.792,24.792,0,0,1-2.082-3.428c-.34-.341.138,2.875,1.431,3.821l0,0C320.515,595.162,321.078,594.95,321.517,595.242Z" transform="translate(-267.934 -575.167)"/></g><g transform="translate(22.841)"><path class="c" d="M353.657,568.935a46.179,46.179,0,0,1,3.9,8.815c-.163.05-.327.1-.491.144-.107.029-.21.06-.318.092-.541.157-1.1.318-1.662.478-.113.035-.226.07-.343.1-.233.069-.462.135-.7.2l-.557.164-4.167,1.214-.608.18c-.028.009-.056.019-.082.025-.113.031-.23.066-.343.1l-1.747.516c-.208.06-.415.123-.62.182q-1.053.317-2.058.614c-.176.053-.352.107-.525.157-.148.047-.3.092-.447.135-.361.11-.721.218-1.066.324-.2.06-.391.12-.583.177-.164.05-.324.1-.482.147l-.626.193c-.088.028-.176.053-.264.082l-.261.082-.491.151-.016.007c-.248.076-.488.151-.718.227a.034.034,0,0,0-.012,0c-.148.047-.293.092-.434.139-.076.025-.145.047-.217.068-.214.067-.416.133-.608.2-.151.047-.3.094-.434.142-.1.035-.189.067-.28.095-.11.038-.214.072-.312.107-.079.025-.151.053-.223.079a.378.378,0,0,0-.059.021c-.12.042-.23.082-.328.117-.05.019-.1.038-.142.057l-.1.038a2.484,2.484,0,0,0-.419.2,4.063,4.063,0,0,0-.368.3c-.979.847-1.653,2.027-2.867,2.939-1.319.991-5.356,1.5-5.608,1.529l-.013,0-.082-.057-.022-.012c-.487-.331-2.6-1.738-4.629-2.811a.735.735,0,0,1-.076-.038c-.333-.173-.664-.34-.982-.487-2.552-1.193-4.428-2.043-5.277-2.385-.283-.114-.378-.283-.378-.459a.467.467,0,0,1,.01-.094v-.013a.65.65,0,0,1,.05-.154c.009-.022.019-.044.028-.063a.477.477,0,0,1,.042-.076c-.06.063-.123.126-.2.189a.225.225,0,0,1-.047.041,1.628,1.628,0,0,1-.223.155c-.044.021-.085.044-.129.059a.5.5,0,0,1-.1.038.586.586,0,0,1-.1.025.123.123,0,0,1-.031,0,.678.678,0,0,1-.114.01.587.587,0,0,1-.081,0,.636.636,0,0,1-.072,0,1.056,1.056,0,0,1-.107-.016.364.364,0,0,1-.057-.016.185.185,0,0,1-.047-.016.243.243,0,0,1-.154-.135c-.013.018-.025.034-.038.054a1.406,1.406,0,0,1-.371.264c-.038.022-.079.044-.122.066-.189.1-.409.208-.623.324a1.288,1.288,0,0,0-.117.063,3.932,3.932,0,0,0-.422.271c-.28.208-.471.189-.6.092a.288.288,0,0,1-.041-.035.428.428,0,0,1-.035-.037.2.2,0,0,1-.034-.042c-.009-.012-.016-.021-.025-.031a1.177,1.177,0,0,1,.034.12c.013.044.025.091.035.141v0c.009.05.019.1.025.154v0a1.321,1.321,0,0,1,.009.16,1,1,0,0,1-.047.321,50.106,50.106,0,0,1-2.9,6.3,2.7,2.7,0,0,1-2.631,1.347,1.228,1.228,0,0,1-.154-.016.1.1,0,0,1-.029,0c-.059-.006-.12-.016-.179-.025a1.6,1.6,0,0,1-.189-.035.4.4,0,0,1-.069-.016,1.6,1.6,0,0,1-.17-.041,1.355,1.355,0,0,1-.193-.059c-.1-.029-.2-.067-.293-.1A2.636,2.636,0,0,1,302.466,591c-.513-1.533.34-3.405.509-5.108s-.34-4.088.34-5.28,4.088-2.9,5.281-3.916a14.994,14.994,0,0,1,3.631-2.807,5.532,5.532,0,0,1,1.476-.431c2.386-.34,4.258,1.023,6.131,1.023a41.964,41.964,0,0,1,6.984.683c.374.094.7.173,1,.239a.031.031,0,0,1,.016,0c.012,0,.022,0,.034.006a6.217,6.217,0,0,0,1.844.142c.16-.013.331-.028.513-.05a21.524,21.524,0,0,0,6.3-1.7C338.324,573.083,346.418,570.867,353.657,568.935Z" transform="translate(-289.518 -568.935)"/><path class="c" d="M315.253,612.5c-1.7,2.214-2.554,3.236-5.279,2.895a3.006,3.006,0,0,1-2.554-4.258l3.236-6.472s2.384-1.7,3.065,1.022a14,14,0,0,1-.17,5.961Z" transform="translate(-289.875 -571.528)"/><path class="c" d="M310.655,604.665l-3.236,6.472a3.039,3.039,0,0,0,.453,3.219c2.837,1.516,5.167-.664,5.678-2.708a14,14,0,0,0,.17-5.961C313.04,602.963,310.655,604.665,310.655,604.665Z" transform="translate(-289.875 -571.528)"/><path class="c" d="M306.712,612.461c-2.132.984-4,.472-5.026-.719a2.5,2.5,0,0,1-.511-2.725,57.631,57.631,0,0,1,5.109-7.323,2.792,2.792,0,0,1,3.747-.341c1.532,1.022.51,3.236.17,3.918S306.712,612.461,306.712,612.461Z" transform="translate(-289.421 -571.281)"/><path class="c" d="M300.671,608.935c-1.532,1.533-4.768,1.192-6.131-1.192s1.192-4.768,1.873-5.96,4.087-5.279,7.323-4.257,1.294,4.82,1.294,4.82Z" transform="translate(-288.918 -571.028)"/><path class="c" d="M288.846,599.327c1.192-2.044,5.62,1.533,5.96,2.724s-1.7,3.577-4.087,3.406-2.214-2.554-2.214-3.746A9.956,9.956,0,0,1,288.846,599.327Z" transform="translate(-288.502 -571.128)"/><path class="c" d="M294.819,602.051c-.34-1.191-4.768-4.768-5.96-2.724,0,0-.093.327-.182.808.109,1.488,1.076,3.109,2.566,3.109a2.236,2.236,0,0,1,2.251,1.285A2.832,2.832,0,0,0,294.819,602.051Z" transform="translate(-288.515 -571.128)"/><path class="f" d="M329.674,575.879c.06.013.117.025.173.041a.031.031,0,0,0-.016,0Z" transform="translate(-291.534 -569.446)"/><path class="c" d="M355.689,568.935a46.179,46.179,0,0,1,3.9,8.815c-.163.05-.327.1-.491.144-.107.029-.21.06-.318.092-.541.157-1.1.318-1.662.478-.113.035-.226.07-.343.1-.233.069-.462.135-.7.2l-.557.164-4.167,1.214-.608.18c-.028.009-.056.019-.082.025-.113.031-.23.066-.343.1l-1.747.516c-.208.06-.415.123-.62.182q-1.053.317-2.058.614c-.176.053-.352.107-.525.157-.148.047-.3.092-.447.135-.361.11-.721.218-1.066.324-.2.06-.391.12-.583.177-.164.05-.324.1-.482.147l-.626.193c-.088.028-.176.053-.264.082l-.261.082-.491.151-.016.007c-.248.076-.488.151-.718.227a.034.034,0,0,0-.012,0c-.148.047-.293.092-.434.139-.076.025-.145.047-.217.068-.214.067-.416.133-.608.2-.151.047-.3.094-.434.142-.1.035-.189.067-.28.095-.11.038-.214.072-.312.107-.079.025-.151.053-.223.079a.378.378,0,0,0-.059.021c-.12.042-.23.082-.328.117-.05.019-.1.038-.142.057l-.1.038a2.484,2.484,0,0,0-.419.2,4.063,4.063,0,0,0-.368.3c-.4-1-.359-2.074-1.164-4.041-.768-1.876-.724-2.939-1.215-3.7-.478-.743-1.466-1.2-4.208-1.842a6.217,6.217,0,0,0,1.844.142c.16-.009.331-.025.513-.05a21.524,21.524,0,0,0,6.3-1.7C340.356,573.083,348.45,570.867,355.689,568.935Z" transform="translate(-291.551 -568.935)"/></g></g><g class="g" transform="translate(306.746 580.466)"><path class="h" d="M312.727,583.955" transform="translate(-310.345 -581.572)"/><path class="h" d="M310.156,581.383" transform="translate(-310.156 -581.383)"/></g></g><text class="b" transform="translate(376.519 593.573)"><tspan x="0" y="0" xml:space="preserve">-  მისალმება </tspan></text></g></svg>