<svg xmlns="http://www.w3.org/2000/svg" width="295.273" height="209.309" viewBox="0 0 295.273 209.309"><path d="M7129.279,1909.039a67.187,67.187,0,0,1-3.759,20.393,77.885,77.885,0,0,1-4.377,10.179,91.377,91.377,0,0,1-5.461,9.22,41.292,41.292,0,0,1,1.188-4.037c3.237-9.394,3.578-23.234-.285-10.589-.1.32-.188.632-.278.938-1.2,3.981-2.043,7.219-2.731,9.741-1.4,5.065-2.167,7.212-3.926,6.573-1.1-.4-.548-5.079.07-9.7.9-6.733,1.931-13.334-1.786-6.372-.5.938-.986,1.786-1.445,2.557-1.952,3.245-3.585,5.128-4.961,6.1-2.418,1.7-4.016.618-5.009-.806-.007-.007-.014-.021-.021-.028-.945-1.362-1.848-2.89-2.884-4.683.473-4.239.515-6.928-1.647-2.835-.347-.6-.715-1.216-1.111-1.869-2.432-4.037.764-11.173-4.238-3.933-.181.257-.355.5-.521.737-3.766,5.273-5.191,5.419-7.428,7.893-.577-1.077-1.216-2.251-1.938-3.544a.448.448,0,0,1-.049-.09c.1,1.89.188,3.821.285,5.8-3.155,4.273-1.925-2.258-.945-7.761v-.007c.042-.209.076-.41.111-.612.1-.549.2-1.063.313-1.556v-.014a.013.013,0,0,1,0-.021.01.01,0,0,1,0-.014c.708-3.488,1.375-5.537-.188-3.008v.02c-.167.285-.368.626-.6,1.029v.007c-.472.82-1.07,1.9-1.813,3.252a27.525,27.525,0,0,1-2.543,3.752c-.021-.181-.042-.348-.062-.529-.042-.354-.084-.708-.132-1.063a.828.828,0,0,0-.021-.18c-.056-.535-.118-1.077-.195-1.6-.1-.813-.2-1.633-.313-2.453-.02-.243-.055-.479-.09-.723.007-.006.007-.006,0-.013-.153-1.195-.313-2.383-.479-3.579-.153-1.125-.313-2.258-.473-3.383-.139-1-.285-2-.431-3q-.51-3.471-1.07-6.955c-.09-.6-.187-1.216-.291-1.82s-.2-1.223-.3-1.835c-.146-.9-.292-1.8-.445-2.7-.146-.855-.292-1.7-.437-2.551q-.448-2.625-.925-5.259c-.187-1.049-.382-2.1-.57-3.155q-1.771-9.619-3.758-19.246c-10.874-52.826-65.264-62.185-105.868-50.818s-50.034,74.226-54.383,94.959c-.042.2-.083.4-.118.6s-.07.382-.09.577c-.049.312-.1.625-.139.945-.021.125-.035.257-.049.4a3.36,3.36,0,0,0-.042.383c-.007.062-.013.125-.021.194-.02.181-.034.369-.048.549s-.028.368-.042.556c-.007.063-.007.118-.014.187q-.03.5-.041,1.022c-.007.076-.007.167-.007.25-.007.167-.014.341-.014.507-.007.48-.007.959,0,1.453,0,.222.007.444.014.667.014.5.034,1.007.062,1.507.021.334.042.667.063,1.008.013.229.035.465.055.708.028.362.063.73.1,1.105.007.111.02.216.027.327-.014-.056-.02-.1-.035-.153-2.3-9.88-1.722-6.01-2.3-.271-.195,1.98-.4,4.148-.646,5.927v.007a2.034,2.034,0,0,1-2.377-.209q-.238-2.355-.416-4.808c-.744.785-1.425,1.515-2.064,2.189a27.986,27.986,0,0,1-3.954-8.046c-2.73-7.817-1.827-1.286-4.69,2.216a3.751,3.751,0,0,1-.479.535c-.458.438-.9.862-1.32,1.279-.194-.751-.382-1.571-.563-2.453-1.528-7.421-2.209-.452-3.1,6.052-1.077,1.049-2.056,1.98-3.043,2.8a5.172,5.172,0,0,1-.827.57c-.041-2.793.111-6.907-.014-12.5-.25-12.3-3.237.257-2.737,9.477.056,1.029.076,1.959.069,2.793-.3-.048-.59-.1-.889-.146l-.007-.007a7.976,7.976,0,0,1-1.793-2.424l-.007-.007c-.146-.285-.291-.584-.444-.917v-.008c-.07-.159-.146-.3-.215-.479,0-.014-.008-.021-.008-.028a40.188,40.188,0,0,1-2.022-6.753c-1.3-5.836-2.063-3.356-2.786,1.139v.014c-.368,2.321-.729,5.17-1.139,7.692-.118.708-.236,1.389-.362,2.022l-2.793-.417c-.3-.042-.618-.091-.931-.139-.062-2.995.118-7.462-.02-13.6,0-.139-.007-.271-.014-.4-.341-12.5-3.7.772-3.134,10.547.035.6.056,1.182.07,1.724.013.444.013.861.013,1.264a1.888,1.888,0,0,1-.208-.035c-.862-.125-1.723-.257-2.564-.389-.264-2.932-.562-3.237-1.063-3.439a3.538,3.538,0,0,1-.528-.236c-.486-.285-1.125-.938-2-2.995-.681-1.6-1.042-2.445-1.23-2.821v-.006c-.535-1.043.243,1.521-.806,1.722a12.655,12.655,0,0,1-6.67-.924,6.693,6.693,0,0,1-.785-.43,5.176,5.176,0,0,1-1.438-1.39c-.563-.834-.966-.931-1.4-.674h-.007c-1.64-13.486-3.432-31.989-2.9-39.667.862-12.346,1.716-69.974,43.877-102.081s98.079-57.627,163.461-29.633S7131,1836.592,7129.279,1909.039Z" transform="translate(-6834.091 -1742.258)" fill="#adcb37" opacity="0.45"/></svg>