<svg xmlns="http://www.w3.org/2000/svg" width="182.504" height="143.756" viewBox="0 0 182.504 143.756"><path d="M-303.931,1960.77c-1.911,1.473-3.175.535-3.96-.7-1.341-2.1-2.564-4.662-4.482-8.157s.612-9.679-3.349-3.411c-.139.222-.277.43-.41.639-3.613,5.551-4.5,4.551-7.122,8.56-2.709,4.162-1.549-2.182-.757-7.108s2.064-8.039-1.806-.264a23.845,23.845,0,0,1-2.008,3.252c-.014-.153-.035-.306-.049-.459-.007-.035-.007-.069-.014-.1-.028-.271-.055-.542-.09-.813a1.232,1.232,0,0,0-.014-.16c-.048-.459-.1-.924-.16-1.4-.076-.7-.152-1.411-.243-2.12-.021-.215-.049-.417-.076-.625.006-.007.006-.007,0-.014-.118-1.035-.244-2.07-.376-3.1-.124-.979-.25-1.959-.375-2.932-.111-.875-.222-1.737-.34-2.605-.271-2.008-.549-4.016-.848-6.031-.069-.521-.146-1.049-.229-1.577s-.153-1.057-.236-1.585c-.112-.778-.23-1.563-.355-2.341-.111-.737-.222-1.473-.347-2.21q-.344-2.271-.73-4.558c-.146-.91-.3-1.82-.444-2.73q-1.4-8.338-2.974-16.682c-8.6-45.781-51.59-53.9-83.69-44.044-14.118,4.335-40.75,70.606-42.987,82.3-.028.173-.063.347-.091.528s-.055.326-.076.5c-.042.264-.077.535-.105.82-.021.1-.027.215-.041.34a2.468,2.468,0,0,0-.028.327c-.007.055-.014.111-.021.174-.014.152-.028.312-.035.472s-.02.32-.034.486c-.007.049-.007.1-.014.16-.014.285-.021.584-.028.883-.007.069-.007.146-.007.215-.007.153-.014.3-.014.445v1.257c0,.077,0,.16.007.236,0,.112,0,.223.007.341.014.431.028.868.049,1.306.014.292.034.584.048.869.014.208.028.409.042.625.021.306.048.625.076.952.007.1.021.187.021.285a.86.86,0,0,0-.028-.132c-1.813-8.56-1.355-5.211-1.813-.236s-.9,11.415-2.487,6.656-2.724-3.8-4.989-10.936c-2.154-6.782-1.445-1.112-3.7,1.917a4.1,4.1,0,0,1-.382.466c-2.716,2.848-4.53,4.988-6.343,6.656a3.839,3.839,0,0,1-.834.6v.006a2.032,2.032,0,0,1-2.376-.208q-.24-2.355-.417-4.808c-1-13.743-.4-29.571,4.078-45,11.562-39.778,21.762-69.036,46.247-79.736s87.268-18,106.993,21.24c13.987,27.834,20.831,48.387,23.957,97.906v.02c.063.98.125,1.981.188,2.988a.01.01,0,0,0,0,.014.013.013,0,0,0,0,.021v.014c.077,1.355.153,2.73.229,4.134l.007.007c.1,1.89.188,3.821.285,5.8.007.278.021.555.035.833C-303.979,1959.742-303.952,1960.249-303.931,1960.77Z" transform="translate(486.436 -1817.766)" fill="#005ea8"/></svg>