<svg xmlns="http://www.w3.org/2000/svg" width="502.121" height="379.296" viewBox="0 0 502.121 379.296">
    <defs>
        <style>
            .a,.l{opacity:0.49;}.b,.l{fill:#bec9f2;}.c,.f{fill:#caa267;}.c,.d{fill-rule:evenodd;}.d{fill:#ba965b;}.e{fill:#c2934e;}.g{fill:#8c7cc9;}.h{opacity:0.15;}.i{fill:#f0c659;}.j{fill:#e4a653;}.k{fill:#b58543;}.m{fill:#b35328;}.n{fill:#e9e9e9;}.o{fill:#8e94a0;}.p{fill:#4b3d64;}.q{fill:#cecfd4;}.r{fill:#fff;}.s{fill:#8a7cc7;}.t,.u{font-size:6px;}.t,.u,.v{font-family:Microsoft-Yi-Baiti,
            Microsoft Yi Baiti;font-style:italic;}.u,.v{letter-spacing:-0.07em;}.v{font-size:4px;}
        </style>
    </defs>
    <g transform="translate(-887.702 -422.655)">
        <g class="a" transform="translate(887.702 494.992)">
            <path class="b"
                  d="M1200.437,715.826c-44.454,7.146-61.674,75.3-166.958,73.727-21.012-.314-40.844-14.375-57.252-29.934-8.31-7.881-15.859-19.283-14.575-31.806,2.007-19.576,22.9-27.7,30.88-45,1.6-3.469,2.664-7.532,1.88-11.376-1.36-6.665-7.448-10.091-12.853-12.538q-24.889-11.275-50.34-20.692c-14.063-5.2-29.448-11.01-37.417-25.7-4.258-7.85-5.807-17.377-6.061-26.7a118.06,118.06,0,0,1,14.3-58.621c7.856-14.523,18.6-27.081,31.635-34.766,27.642-16.3,60.537-8.87,90.85-1.929,50.208,11.5,101,20.682,152.129,21.47,59.32.913,121.656-8.853,175.569,20.485,14.127,7.688,29.762,18.049,34.251,35.687C1412.3,669.57,1282.678,702.607,1200.437,715.826Z"
                  transform="translate(-887.702 -482.62)"/>
        </g>
        <g transform="translate(903.989 422.655)">
            <g transform="translate(41.385 28.709)">
                <path class="c"
                      d="M956.91,486.4c-.317-1.088-1.3-14.185-4.3-19.6s-7.964-13.2-9.031-16.324c-1.253-3.677-4.092-7.167-1.848.8.809,2.877,2.627,8.556,3.3,9.638.326.525-.309-.368-2.038-4.475-1.838-4.366-2.479,1.8-1.362,3.892,0,0,.313.226-1.073-2.826-1.176-2.592-4.328-1.686-1.694,3.6-.046.094-2.146-3.952-2.79-3.246-1.566,1.717.423,6.373,2.274,9.3,3.609,5.7,8.875,11.12,10.3,16.015Z"
                      transform="translate(-935.51 -446.454)"/>
                <path class="c"
                      d="M951.763,467.946s1.048-6.187-.134-8.928c-1.395-3.237-1.989-2.63-5.033-4.291-1.731-1.07-2.121.81,2.052,3.422.743,2.4-2.036,3.1-1.917,4.769s1.276,6.115,2.328,6.7S951.763,467.946,951.763,467.946Z"
                      transform="translate(-933.477 -444.81)"/>
                <path class="d" d="M947.607,460.237s-2.6,3.783-2.661,6.51S942.545,458.687,947.607,460.237Z"
                      transform="translate(-933.686 -443.642)"/>
            </g>
            <g transform="translate(49.995)">
                <path class="e"
                      d="M1089.134,463.319s-1.245,13.882,7.319,21.559-19.734,0-19.734,0,5.266-13.3,4.085-21.559S1089.134,463.319,1089.134,463.319Z"
                      transform="translate(-914.987 -415.023)"/>
                <ellipse class="f" cx="14.971" cy="20.426" rx="14.971" ry="20.426"
                         transform="translate(154.658 12.827)"/>
                <path class="g"
                      d="M982.2,548.933c22.663-47.407,63.111-69.036,88.936-74.779,11.178-2.49,19.616-2,22.7.66a16.746,16.746,0,0,0,10.45,4.059,22.656,22.656,0,0,0,5.867-.534,29.207,29.207,0,0,0,6.221-2.115c.954-.444,1.511-.762,1.511-.762a60.7,60.7,0,0,1,15.807.943c58.426,11.44,68.593,109.4,68.069,117.831-.318,5.015-5.5,27.735-11.985,47.93-5.311,16.58-11.508,31.464-16.6,33.524-11.3,4.548-96.646,10.791-114.191,2.422-.409-.308-.853-.637-1.274-1-6.584-5.356-13.724-15.932-17.511-25.836,0-.011-10.087-28.44-12.145-34.228-.023-.057-.034-.1-.057-.147-.069-.228-.148-.444-.228-.649-.023-.08-.057-.147-.08-.227"
                      transform="translate(-934.488 -412.366)"/>
                <path class="h"
                      d="M1019.91,595.056c.023.08.057.147.08.227.08.205.159.421.227.649.023.045.035.09.058.147,2.058,5.788,12.144,34.217,12.144,34.228,3.786,9.9,10.928,20.48,17.512,25.836-4.469-16.182-18.4-63.088-17.864-81.987C1029.405,592.372,1019.91,595.044,1019.91,595.056Z"
                      transform="translate(-926.708 -391.398)"/>
                <path class="h"
                      d="M1134.017,535.3s-28.282,84.425,50.185,120.281l1.595,1.06-.405-19.858s-36.974-51.594-37.114-52.922S1134.017,535.3,1134.017,535.3Z"
                      transform="translate(-904.189 -399.414)"/>
                <path class="h"
                      d="M1090.063,482.228c.046,1.352-.671,2.24-2.842,1.945-6.777-.922-14.431-.729-19.991,1.819a4.723,4.723,0,0,1-4.571-.193c-3.56-2.081-5.766-8.29-6.642-11.041a1.919,1.919,0,0,1-.09-.6c11.178-2.49,19.616-2,22.7.66a16.746,16.746,0,0,0,10.45,4.059A9.207,9.207,0,0,1,1090.063,482.228Z"
                      transform="translate(-919.277 -412.366)"/>
                <g transform="translate(151.196)">
                    <g transform="translate(3.16 5.695)">
                        <path class="i"
                              d="M1079.533,443.21s25.918,14.37,18.225-8.7C1092.436,418.546,1061.855,432.924,1079.533,443.21Z"
                              transform="translate(-1069.886 -427.376)"/>
                        <path class="i"
                              d="M1084.008,437.522s-14.5,8.6-13.1,17.236c0,0-3.2-25.771,11.221-26.418s20,.744,18.721,28C1100.849,456.335,1096.659,434.657,1084.008,437.522Z"
                              transform="translate(-1070.605 -427.2)"/>
                    </g>
                    <path class="i"
                          d="M1079.636,429.658s.729-8.029,8.688-6.892,11.372,5.685,12.508,10.233,2.275,7.961,3.411,7.961c0,0-3.411,3.411-4.548,2.274,0,0,2.951,8.179-.8,14.892,0,0-1.477-10.343-7.162-11.481S1079.636,429.658,1079.636,429.658Z"
                          transform="translate(-1065.581 -422.656)"/>
                    <path class="i"
                          d="M1082.768,428.527s-5.687-3.411-11.372,4.548l-3.411,6.823s1.138,1.138,3.411,0c0,0-1.036,8.012.051,12.535l3.361-13.672Z"
                          transform="translate(-1067.985 -421.594)"/>
                </g>
                <path class="h" d="M1172.848,612.47s-14.628-30.678-89.626,22.052,70.389-12.937,70.389-12.937Z"
                      transform="translate(-918.079 -385.324)"/>
                <path class="g"
                      d="M1036.215,617.757S967,647.122,950.2,583.792s.674-78.518-6.155-109.347l11.133-5.361s41.906,25.837,56.252,65.724S1036.215,617.757,1036.215,617.757Z"
                      transform="translate(-942.648 -413.076)"/>
            </g>
            <path class="j" d="M901.2,710.784h423.355l-63.911-66.254H958.1l-3.97,8.176Z"
                  transform="translate(-901.204 -376.878)"/>
            <path class="h"
                  d="M1021.447,644.531c6.01,6.274,21.652,17.13,59.6,20.646,54.494,5.044,130.877-20.646,130.877-20.646Z"
                  transform="translate(-876.395 -376.878)"/>
            <g transform="translate(168.515 60.088)">
                <g transform="translate(0 199.48)">
                    <path class="c"
                          d="M1086.342,652.222c-1.078-.361-12.455-7.174-18.624-7.743s-15.391-.828-18.576-1.732c-3.745-1.065-4.693.423-.376,2.07a60.781,60.781,0,0,0,9.824,2.782c.618.025-3.4-.515-7.77-1.42-4.643-.963-9.681-2.272-9.911-1.444-.448,1.6,12.929,5.21,15.286,5.465a59.343,59.343,0,0,1-6.214-.753c-2.8-.5-6.017-1.49-6.649-.908-.994.917,6.091,3.7,11.945,4.508.1.189-1.789.486-8.678-.946-.693-.144-2.455.159-.188,1.208,4.772,2.206,6.661,3.508,13.577,3.723,6.743.211,14.186-1.177,19.037.449Z"
                          transform="translate(-1040.897 -636.888)"/>
                    <path class="c"
                          d="M1068.313,646.026s-5.222-5.484-11.085-6.389c-3.485-.537-3.4-1.415-4-1.677-1.972-.867-.063,2.794,2.9,3.732,2.406.764,3.749,4.875,5.2,5.747s5.773,2.472,6.853,1.906S1068.313,646.026,1068.313,646.026Z"
                          transform="translate(-1038.519 -637.829)"/>
                </g>
                <path class="g"
                      d="M1174.615,490.95c21.419,19.166,36.24,36.965,45.486,95.52,4.691,29.708,3.469,59.415,2.247,75.081a18.509,18.509,0,0,1-12.721,16.1c-67.109,22.136-138.743,17.715-138.743,17.715-3.843-1.43.3-15.335.3-15.335,34.334-46.6,83.405-38.761,96.606-46.934,4.119-24.154-29.064-54.382-32.977-69.366-10.248-39.293-43.979-73.3-35.251-88.7C1102.579,469.7,1153.009,471.619,1174.615,490.95Z"
                      transform="translate(-1035.047 -472.467)"/>
            </g>
            <rect class="k" width="423.355" height="16.023" transform="translate(0 333.906)"/>
        </g>
        <g transform="translate(1007.038 586.254)">
            <g transform="translate(171.241 151.85)">
                <circle class="l" cx="3.092" cy="3.092" r="3.092"/>
            </g>
            <path class="m"
                  d="M1007.928,614.357h0a.61.61,0,0,1-.362-.782l.5-1.346,1.144.421-.5,1.346A.609.609,0,0,1,1007.928,614.357Z"
                  transform="translate(-982.316 -547.141)"/>
            <path class="m"
                  d="M1013.211,616.3h0a.611.611,0,0,1-.362-.782l.5-1.347c.034-.091,1.14.434,1.14.434l-.492,1.334A.611.611,0,0,1,1013.211,616.3Z"
                  transform="translate(-981.226 -546.742)"/>
            <path class="n"
                  d="M1007.826,614.229h0a.612.612,0,0,1-.362-.783l.543-1.474a.612.612,0,0,1,.783-.361h0a.611.611,0,0,1,.361.782l-.543,1.474A.611.611,0,0,1,1007.826,614.229Z"
                  transform="translate(-982.337 -547.277)"/>
            <path class="n"
                  d="M1013.1,616.17h0a.611.611,0,0,1-.361-.782l.543-1.474a.61.61,0,0,1,.782-.361h0a.61.61,0,0,1,.362.782l-.543,1.474A.611.611,0,0,1,1013.1,616.17Z"
                  transform="translate(-981.249 -546.876)"/>
            <rect class="o" width="3.996" height="2.59" transform="translate(23.955 81.018) rotate(20.217)"/>
            <rect class="o" width="3.996" height="2.59" transform="translate(25.664 76.734) rotate(20.217)"/>
            <path class="p"
                  d="M1194.461,701.427H991.5a4.511,4.511,0,0,1-4.875-4.446V693.94l22.216-41.051a7.071,7.071,0,0,1,6.333-3.927h155.315c2.9,0,9.289,5.708,10.584,8.3l18.328,37.363v1.341C1199.449,699.859,1196.933,701.427,1194.461,701.427Z"
                  transform="translate(-986.628 -539.563)"/>
            <path class="q"
                  d="M1194.476,697.865H991.518c-2.254,0-5.963-1.976-4.57-4.407l21.91-44.132a7.071,7.071,0,0,1,6.333-3.927h155.315a7.65,7.65,0,0,1,6.843,4.23l21.69,43.4C1200.56,695.8,1196.948,697.865,1194.476,697.865Z"
                  transform="translate(-986.625 -540.298)"/>
            <rect class="q" width="166.207" height="105.025" rx="5.037" transform="translate(22.202)"/>
            <rect class="r" width="153.386" height="91.006" transform="translate(28.583 5.728)"/>
            <path class="p"
                  d="M1109.607,690.469h-59.8a1.078,1.078,0,0,1-1.065-1.249l2.521-15.752a1.752,1.752,0,0,1,1.73-1.475h53.941a1.539,1.539,0,0,1,1.522,1.317l2.311,15.841A1.168,1.168,0,0,1,1109.607,690.469Z"
                  transform="translate(-973.816 -534.811)"/>
            <path class="g"
                  d="M1169.75,672.988H1007.262c-1.8,0-3.179-.693-2.893-1.457l6.851-18.389c.37-.992,2.362-1.721,4.7-1.721h146.558c2.077,0,3.839.654,4.139,1.537l6.28,18.493C1173.143,672.265,1171.664,672.988,1169.75,672.988Z"
                  transform="translate(-982.975 -539.055)"/>
            <g transform="translate(20.928 108.259)">
                <rect class="q" width="169.448" height="0.856" transform="translate(0 7.274)"/>
                <rect class="q" width="169.448" height="0.856" transform="translate(0 11.553)"/>
                <rect class="q" width="169.448" height="0.856" transform="translate(0 16.688)"/>
                <rect class="q" width="169.448" height="0.856" transform="translate(0 21.395)"/>
                <rect class="q" width="1.284" height="28.241" transform="translate(20.522 0.457) rotate(17.439)"/>
                <rect class="q" width="1.284" height="28.241" transform="translate(32.931 0.457) rotate(17.439)"/>
                <rect class="q" width="1.284" height="28.241" transform="translate(42.772 0.457) rotate(17.439)"/>
                <rect class="q" width="1.284" height="28.241" transform="translate(52.614 0.457) rotate(17.439)"/>
                <rect class="q" width="1.284" height="28.241" transform="translate(62.884 0.457) rotate(17.439)"/>
                <rect class="q" width="1.284" height="28.241" transform="translate(73.304 0.136) rotate(10.978)"/>
                <rect class="q" width="1.284" height="28.241" transform="translate(82.157)"/>
                <rect class="q" width="1.284" height="28.241" transform="translate(148.558 0.841) rotate(-17.439)"/>
                <rect class="q" width="1.284" height="28.241" transform="translate(136.577 0.841) rotate(-17.439)"/>
                <rect class="q" width="1.284" height="28.241" transform="translate(124.596 0.841) rotate(-17.439)"/>
                <rect class="q" width="1.284" height="28.241" transform="translate(112.614 0.841) rotate(-17.439)"/>
                <rect class="q" width="1.284" height="28.241" transform="translate(100.633 0.841) rotate(-17.439)"/>
                <rect class="q" width="1.284" height="28.241" transform="translate(88.652 0.841) rotate(-17.439)"/>
            </g>
        </g>
        <g transform="translate(1040.235 593.78)">
            <g transform="translate(0.222 0.222)">
                <rect class="i" width="143.064" height="7.113"/>
            </g>
            <rect class="b" width="8.877" height="86.041" transform="translate(0.222 0.222)"/>
            <path class="s" d="M1157.655,651H1014.147V564.512h143.508Zm-143.064-.444h142.62v-85.6h-142.62Z"
                  transform="translate(-1014.147 -564.512)"/>
            <g transform="translate(8.876 0.222)">
                <rect class="s" width="0.444" height="86.041"/>
            </g>
            <g transform="translate(0.222 7.113)">
                <rect class="s" width="143.064" height="0.444"/>
            </g>
            <text class="t" transform="translate(2.567 13.289)">
                <tspan x="0" y="0">1</tspan>
            </text>
            <text class="t" transform="translate(2.567 21.008)">
                <tspan x="0" y="0">2</tspan>
            </text>
            <text class="t" transform="translate(2.567 28.726)">
                <tspan x="0" y="0">3</tspan>
            </text>
            <text class="t" transform="translate(2.567 36.916)">
                <tspan x="0" y="0">4</tspan>
            </text>
            <text class="t" transform="translate(2.567 44.634)">
                <tspan x="0" y="0">5</tspan>
            </text>
            <text class="t" transform="translate(2.567 52.353)">
                <tspan x="0" y="0">6</tspan>
            </text>
            <text class="t" transform="translate(2.567 60.073)">
                <tspan x="0" y="0">7</tspan>
            </text>
            <text class="t" transform="translate(2.567 68.263)">
                <tspan x="0" y="0">8</tspan>
            </text>
            <text class="t" transform="translate(2.567 75.981)">
                <tspan x="0" y="0">9</tspan>
            </text>
            <text class="u" transform="translate(0.916 83.935)">
                <tspan x="0" y="0">10</tspan>
            </text>
            <text class="v" transform="translate(22.668 4.349)">
                <tspan x="0" y="0">A</tspan>
            </text>
            <text class="v" transform="translate(57.962 4.349)">
                <tspan x="0" y="0">B</tspan>
            </text>
            <text class="v" transform="translate(90.957 4.349)">
                <tspan x="0" y="0">C</tspan>
            </text>
            <text class="v" transform="translate(126.133 4.349)">
                <tspan x="0" y="0">D</tspan>
            </text>
            <rect class="i" width="67.094" height="7.671" transform="translate(9.098 70.477)"/>
            <rect class="i" width="67.094" height="7.671" transform="translate(75.97 38.906)"/>
            <rect class="i" width="33.325" height="7.671" transform="translate(42.645 23.342)"/>
            <g transform="translate(42.423 0.222)">
                <rect class="s" width="0.444" height="86.041"/>
            </g>
            <g transform="translate(75.97 0.222)">
                <rect class="s" width="0.444" height="86.041"/>
            </g>
            <g transform="translate(109.517 0.222)">
                <rect class="s" width="0.444" height="86.041"/>
            </g>
            <g transform="translate(0.222 15.006)">
                <rect class="s" width="143.064" height="0.444"/>
            </g>
            <g transform="translate(0.222 22.899)">
                <rect class="s" width="143.064" height="0.444"/>
            </g>
            <g transform="translate(0.222 30.791)">
                <rect class="s" width="143.064" height="0.444"/>
            </g>
            <g transform="translate(0.222 38.684)">
                <rect class="s" width="143.064" height="0.444"/>
            </g>
            <g transform="translate(0.222 46.577)">
                <rect class="s" width="143.064" height="0.444"/>
            </g>
            <g transform="translate(0.222 54.47)">
                <rect class="s" width="143.064" height="0.444"/>
            </g>
            <g transform="translate(0.222 62.363)">
                <rect class="s" width="143.064" height="0.444"/>
            </g>
            <g transform="translate(0.222 70.255)">
                <rect class="s" width="143.064" height="0.444"/>
            </g>
            <g transform="translate(0.222 78.148)">
                <rect class="s" width="143.064" height="0.444"/>
            </g>
        </g>
    </g>
</svg>
