<svg xmlns="http://www.w3.org/2000/svg" width="402.251" height="458.432" viewBox="0 0 402.251 458.432"><defs><style>.a{fill:#eadff1;}.b,.c{fill:#d8a35d;}.b{fill-rule:evenodd;}.d{fill:#d19442;}.e{fill:#937dcd;}.f{fill:#ffc84f;}.g{opacity:0.15;}.h{fill:#625489;}.i{fill:#62548a;}.j{opacity:0.3;}.k{opacity:0.5;}.l{fill:#ffc74f;}.m{fill:#989898;}.n{fill:#cbcbcb;}.o{fill:gray;}</style></defs><g transform="translate(-814.026 -253.713)"><g transform="translate(814.026 253.713)"><path class="a" d="M860.642,536.282c-7.729-10.31-12.505-21.9-15.763-34.175-9.825-37.374-10.706-75.035-28.124-108.964-9.148-18.838,6.138-41.6,24.5-42.769,61.875-4.142,131.782-18.333,168.139-75.339,10.292-14.09,24.626-20.217,40.1-21.183s32.092,3.223,46.95,9.766c13.263,6.419,26.8,10.077,40.532,15.9,48.312,20.1,45.721,82.7,21.072,123.846-6.36,10.988-8.384,23.212-10.381,35.187a159.851,159.851,0,0,0-2.387,29.525,144.287,144.287,0,0,0,26.635,82.161c4.232,9.142,6.674,19.034,4.435,29.879-8.046,37.07-39.443,70.615-75.963,76.1-27.466,4.318-47.97-10.072-65.934-29.461-5.987-6.463-11.693-13.481-17.28-20.547a135.73,135.73,0,0,0-15.733-21.718c-28.278-30.925-71.578-48.212-111.9-38.933C878.035,544.788,868.106,541.83,860.642,536.282Z" transform="translate(-814.026 -253.713)"/></g><g transform="translate(923.46 296.498)"><g transform="translate(0 228.832)"><g transform="translate(0 10.04)"><path class="b" d="M961.739,606.471s-5.667,2.486-7.992,6.74c-1.383,2.528-2.034,2.221-2.4,2.605-1.215,1.274,2.129.826,3.674-1.188,1.256-1.637,4.789-1.525,5.861-2.394s3.505-3.75,3.371-4.736S961.739,606.471,961.739,606.471Z" transform="translate(-951.085 -606.471)"/></g><g transform="translate(1.864)"><path class="b" d="M972.046,593.9c-.577.727-8.978,7.574-11.13,12.155s-4.918,11.6-6.5,13.792c-1.86,2.582-.98,3.723,1.486.865a49.7,49.7,0,0,0,4.87-6.775c.191-.467-1.342,2.47-3.253,5.576-2.031,3.3-4.438,6.806-3.867,7.213,1.108.79,7.6-8.484,8.451-10.225a48.518,48.518,0,0,1-2.307,4.565c-1.163,2.016-2.819,4.209-2.548,4.856.428,1.019,4.534-3.651,6.787-7.924.174-.026-.125,1.51-3.14,6.406-.3.492-.561,1.931.875.481,3.023-3.053,4.548-4.143,6.637-9.4,2.037-5.123,3.041-11.229,5.64-14.5Z" transform="translate(-953.419 -593.896)"/></g></g><g transform="translate(133.642 297.897)"><path class="c" d="M1136.1,680.395s-9.914,102.3-5.7,104.06c7.563,3.209,37.182,13.7,4.527,11.4-16.775,1.012-15.544-2.736-15.806-5.912-.214-2.594.279-94.148-.411-101.267-.154-1.595-.247-2.558-.247-2.558Z" transform="translate(-1118.463 -680.395)"/></g><g transform="translate(70.328 296.429)"><path class="c" d="M1058.636,680.024s4.3,102.3.082,104.06c-7.563,3.209-37.181,13.7-4.526,11.4,16.774,1.012,15.543-2.736,15.805-5.912.214-2.594,2.117-22.288,2.807-29.407.154-1.595,3.441-81.6,3.441-81.6Z" transform="translate(-1039.166 -678.557)"/></g><g transform="translate(113.961 31.333)"><path class="d" d="M1102.532,349.119s-.874,9.747,5.139,15.138-13.857,0-13.857,0,3.7-9.336,2.869-15.138S1102.532,349.119,1102.532,349.119Z" transform="translate(-1093.814 -346.54)"/></g><g transform="translate(108.996 9.007)"><ellipse class="c" cx="10.512" cy="14.342" rx="10.512" ry="14.342"/></g><g transform="translate(10.617 42.243)"><path class="e" d="M1141.833,445.662c-.224,3.521-3.865,19.474-8.416,33.654-3.729,11.641-8.08,22.093-11.657,23.538-7.937,3.194-67.86,7.577-80.18,1.7-.287-.216-.6-.447-.894-.7-4.623-3.761-9.637-11.186-12.3-18.141,0-.008-7.082-19.969-8.527-24.033-.016-.04-.024-.072-.04-.1-.048-.16-.1-.311-.16-.455-.016-.056-.04-.1-.056-.16-7.457,25.462-27.3,81.385-43.347,99.1-1.685,1.86-9.438-8.575-9.438-8.575s-12.959-66.918,20.847-137.636c15.913-33.287,44.313-48.474,62.446-52.506,7.849-1.749,13.773-1.405,15.937.463a11.753,11.753,0,0,0,7.338,2.85,15.9,15.9,0,0,0,4.12-.375,20.506,20.506,0,0,0,4.367-1.485c.671-.311,1.062-.535,1.062-.535a42.6,42.6,0,0,1,11.1.663C1135.062,370.96,1142.2,439.746,1141.833,445.662Z" transform="translate(-964.382 -360.205)"/></g><g transform="translate(69.036 183.569)"><path class="f" d="M1053.581,537.873a6.477,6.477,0,0,0,3.678,1.7c8.641.17,45.965.81,66.212-.355,7.143-.411,12.159-1.045,13.041-2.009a.737.737,0,0,1-.007.082c-.052,1.116-.693,13.893-1.591,30.64-1.774,33.061,1.643,80.412,5.635,94.784.861,3.1-45.511-1.6-45.511-1.6-.129-34.118,3.108-94.015,1.016-96.7-2.543-3.267-6.668,49.419-11.4,93.506-18.364,4.791-47.444,1.882-47.108,0C1041.542,635.565,1053.581,537.873,1053.581,537.873Z" transform="translate(-1037.547 -537.206)"/></g><g class="g" transform="translate(65.845 128.323)"><path d="M1033.551,482.69c.016.056.04.1.056.16.056.144.112.3.16.455.016.032.024.064.04.1,1.445,4.064,8.527,24.025,8.527,24.033,2.659,6.954,7.673,14.38,12.3,18.141-3.138-11.362-12.919-44.3-12.543-57.568C1040.218,480.806,1033.551,482.682,1033.551,482.69Z" transform="translate(-1033.551 -468.015)"/></g><g class="g" transform="translate(158.292 95.416)"><path d="M1152.819,426.8s-19.858,59.28,35.238,84.456l1.12.744-.284-13.943s-25.962-36.227-26.061-37.16S1152.819,426.8,1152.819,426.8Z" transform="translate(-1149.335 -426.8)"/></g><g class="g" transform="translate(96.351 42.243)"><path d="M1095.727,367.016c.032.95-.471,1.573-2,1.365-4.759-.647-10.132-.511-14.037,1.278a3.316,3.316,0,0,1-3.21-.136c-2.5-1.461-4.048-5.821-4.663-7.753a1.331,1.331,0,0,1-.064-.423c7.849-1.749,13.773-1.405,15.937.463a11.753,11.753,0,0,0,7.338,2.85A6.476,6.476,0,0,1,1095.727,367.016Z" transform="translate(-1071.758 -360.205)"/></g><g transform="translate(69.345 399.823)"><path class="h" d="M1071.163,809.124c.2-1.476-10.314-1.338-11.5-.139s-22.134,5.521-21.718,11.742,29.44,1.329,31.514,1.182S1070.779,812.027,1071.163,809.124Z" transform="translate(-1037.935 -808.051)"/></g><g transform="translate(133.651 397.958)"><path class="i" d="M1118.536,806.258c-.2-1.476,12.384.4,13.573,1.6s19.5,6.181,19.088,12.4-29.441,1.329-31.515,1.183S1118.92,809.161,1118.536,806.258Z" transform="translate(-1118.474 -805.715)"/></g><g class="j" transform="translate(119.11 183.569)"><g transform="translate(0 2.659)"><path d="M1100.68,540.57l-.417-.034S1100.411,540.546,1100.68,540.57Z" transform="translate(-1100.263 -540.536)"/></g><g class="k" transform="translate(0.417)"><path d="M1100.785,539.9c11.122.888,35.432-.684,35.432-.684,7.143-.411,12.16-1.045,13.041-2.009a.765.765,0,0,1-.006.082c-.053,1.116-.693,13.893-1.591,30.64a8.291,8.291,0,0,1-1.169-.135,9.1,9.1,0,0,1-5.886-4.182,20.223,20.223,0,0,1-2.289-4.78C1130.023,543.052,1104.348,540.219,1100.785,539.9Z" transform="translate(-1100.785 -537.206)"/></g></g><g transform="translate(106.565 0)"><g transform="translate(2.218 3.999)"><g transform="translate(2.952)"><path class="l" d="M1094.848,323.424s18.2,10.09,12.8-6.11C1103.908,306.106,1082.436,316.2,1094.848,323.424Z" transform="translate(-1091.027 -312.306)"/></g><g transform="translate(0 0.724)"><path class="l" d="M1096.741,319.736s-10.182,6.042-9.2,12.1c0,0-2.245-18.1,7.879-18.549s14.044.522,13.145,19.656C1108.565,332.946,1105.624,317.725,1096.741,319.736Z" transform="translate(-1087.33 -313.213)"/></g></g><g transform="translate(9.868)"><path class="l" d="M1096.91,312.215s.512-5.638,6.1-4.839,7.984,3.992,8.783,7.186,1.6,5.589,2.4,5.589c0,0-2.4,2.4-3.194,1.6,0,0,2.072,5.742-.56,10.456,0,0-1.036-7.263-5.029-8.061S1096.91,312.215,1096.91,312.215Z" transform="translate(-1096.91 -307.298)"/></g><g transform="translate(0 4.358)"><path class="l" d="M1094.931,313.266s-3.992-2.4-7.984,3.194l-2.4,4.791s.8.8,2.4,0c0,0-.727,5.626.035,8.8l2.36-9.6Z" transform="translate(-1084.551 -312.756)"/></g></g><g transform="translate(93.179 98.21)"><path class="m" d="M1067.87,445.195l10.124,64.858a6.927,6.927,0,0,0,7.9,5.773l44.266-6.915a2.152,2.152,0,0,0,.311-.064,6.9,6.9,0,0,0,5.453-7.841L1125.8,436.148a6.916,6.916,0,0,0-7.9-5.765l-42.214,6.587-2.052.319A6.915,6.915,0,0,0,1067.87,445.195Z" transform="translate(-1067.785 -430.299)"/></g><g transform="translate(95.542 98.21)"><path class="n" d="M1070.83,444.812l10.124,64.858a6.915,6.915,0,0,0,7.9,5.765l42.214-6.587a6.9,6.9,0,0,0,5.453-7.841L1126.4,436.148a6.916,6.916,0,0,0-7.9-5.765l-42.214,6.587A6.9,6.9,0,0,0,1070.83,444.812Z" transform="translate(-1070.745 -430.299)"/></g><g transform="translate(123.582 136.02)"><circle class="o" cx="5.343" cy="5.343" r="5.343"/></g><g class="g" transform="translate(87.649 141.363)"><path d="M1143.412,501.839s1.038-23.842-62.837-15.857,47.907,15.17,47.907,15.17Z" transform="translate(-1060.86 -484.346)"/></g><g transform="translate(81.403 42.191)"><g transform="translate(0 98.973)"><g transform="translate(0 3.861)"><path class="b" d="M1084.945,495.839c-.757-.254-8.745-5.038-13.076-5.437s-10.808-.58-13.044-1.217c-2.63-.747-3.294.3-.263,1.454a42.7,42.7,0,0,0,6.9,1.954c.433.018-2.389-.362-5.456-1-3.261-.675-6.8-1.594-6.959-1.014-.314,1.127,9.078,3.658,10.734,3.837a41.686,41.686,0,0,1-4.363-.528c-1.969-.35-4.225-1.047-4.668-.638-.7.644,4.276,2.595,8.387,3.165.072.133-1.256.341-6.094-.664-.486-.1-1.724.111-.132.847,3.35,1.549,4.676,2.463,9.533,2.614,4.735.148,9.961-.826,13.367.315Z" transform="translate(-1053.036 -488.933)"/></g><g transform="translate(9.763)"><path class="b" d="M1076.421,489.853s-3.667-3.851-7.783-4.486c-2.447-.378-2.39-.994-2.807-1.178-1.384-.609-.044,1.961,2.035,2.62,1.689.536,2.633,3.423,3.649,4.035s4.054,1.736,4.812,1.338S1076.421,489.853,1076.421,489.853Z" transform="translate(-1065.264 -484.097)"/></g></g><g transform="translate(25.168)"><path class="e" d="M1159.606,373.119c15.039,13.457,25.446,25.955,31.938,67.069,3.293,20.859,2.436,41.719,1.577,52.719a12.994,12.994,0,0,1-8.931,11.3c-47.122,15.543-98.88-29.17-98.88-29.17-2.7-1,2.734-10.627,2.734-10.627,26.051-.27,46.012.529,66.772,8.513-.105-.049-20.407-38.184-23.155-48.705-7.2-27.589-30.88-51.465-24.752-62.279C1109.026,358.2,1144.436,359.545,1159.606,373.119Z" transform="translate(-1084.558 -360.14)"/></g></g><g transform="translate(81.003 183.391)"><g transform="translate(0 0)"><rect class="e" width="123.699" height="0.798" transform="translate(0 123.137) rotate(-84.534)"/></g><g transform="translate(11.775 2.463)"><rect class="e" width="121.556" height="0.798" transform="translate(0 120.992) rotate(-84.479)"/></g><g transform="translate(25.176 2.468)"><rect class="e" width="120.54" height="0.799" transform="translate(0 120.148) rotate(-85.38)"/></g><g transform="translate(45.891 2.496)"><rect class="e" width="0.798" height="24.888" transform="translate(0 0.008) rotate(-0.576)"/></g><g transform="translate(55.855 2.493)"><rect class="e" width="122.603" height="0.799" transform="translate(0 122.582) rotate(-88.951)"/></g><g transform="translate(67.983 2.422)"><rect class="e" width="123.612" height="0.798" transform="translate(0 123.61) rotate(-89.706)"/></g><g transform="translate(78.943 2.416)"><rect class="e" width="0.799" height="124.343" transform="translate(0 0.015) rotate(-1.096)"/></g></g><g transform="translate(83.458 196.647)"><path class="e" d="M1109.972,555.765c-24.672,0-53.921-1.361-54.362-1.382l.037-.8c.663.031,66.47,3.092,83.746.006l.141.786C1133.711,555.418,1122.422,555.765,1109.972,555.765Z" transform="translate(-1055.61 -553.586)"/></g><g transform="translate(81.996 207.352)"><path class="e" d="M1083.165,572.546a93.781,93.781,0,0,1-29.385-4.805l.279-.748c.221.083,22.367,8.2,45.179,3.037l.176.778A73.67,73.67,0,0,1,1083.165,572.546Z" transform="translate(-1053.78 -566.993)"/></g><g transform="translate(127.185 208.824)"><path class="e" d="M1133.443,572.514a96.106,96.106,0,0,1-23.067-2.908l.216-.769c.208.058,21.05,5.8,39.12.914l.208.771A63.71,63.71,0,0,1,1133.443,572.514Z" transform="translate(-1110.376 -568.837)"/></g><g transform="translate(80.811 216.397)"><path class="e" d="M1081.269,584.621c-18.034,0-28.84-5.522-28.974-5.592l.37-.707c.165.087,16.932,8.638,43.63,4.251l.129.788A93.462,93.462,0,0,1,1081.269,584.621Z" transform="translate(-1052.295 -578.321)"/></g><g transform="translate(79.51 227.116)"><path class="e" d="M1083.091,597.54c-15.719,0-32.217-4.967-32.425-5.031l.233-.763c.259.079,26.127,7.866,43.758,3.849l.177.779A53.469,53.469,0,0,1,1083.091,597.54Z" transform="translate(-1050.666 -591.746)"/></g><g transform="translate(78.007 237.86)"><path class="e" d="M1077.988,612.834c-19.99,0-29.094-6.917-29.2-7l.493-.628c.132.1,13.509,10.223,43.671,5.648l.121.79A100.591,100.591,0,0,1,1077.988,612.834Z" transform="translate(-1048.784 -605.202)"/></g><g transform="translate(76.472 250.101)"><path class="e" d="M1074.2,627.137a65.051,65.051,0,0,1-27.338-5.9l.37-.707c.2.1,20.355,10.4,44.271,3.329l.226.766A61.688,61.688,0,0,1,1074.2,627.137Z" transform="translate(-1046.861 -620.534)"/></g><g transform="translate(74.94 261.38)"><path class="e" d="M1071.981,641.467c-18.1,0-26.927-6.077-27.039-6.156l.462-.652c.142.1,14.556,9.986,44.544,4.192l.152.784A95.492,95.492,0,0,1,1071.981,641.467Z" transform="translate(-1044.942 -634.66)"/></g><g transform="translate(73.433 272.886)"><path class="e" d="M1068.426,655.036c-15.07,0-25.229-5.184-25.371-5.259l.37-.707c.2.1,19.914,10.147,45.185,1.958l.246.759A66.042,66.042,0,0,1,1068.426,655.036Z" transform="translate(-1043.055 -649.07)"/></g><g transform="translate(72.098 281.952)"><path class="e" d="M1064.322,667.106c-16.336,0-22.589-5.768-22.938-6.1l.553-.576c.115.111,11.948,10.947,45.379,2.8l.188.776A98.373,98.373,0,0,1,1064.322,667.106Z" transform="translate(-1041.383 -660.425)"/></g><g transform="translate(70.724 292.104)"><path class="e" d="M1066.07,679.161c-16.069,0-26.269-5.242-26.408-5.315l.372-.707c.187.1,19.035,9.766,45.918,2.553l.207.771A77.394,77.394,0,0,1,1066.07,679.161Z" transform="translate(-1039.662 -673.14)"/></g><g transform="translate(127.991 220.14)"><path class="e" d="M1130.206,587.573c-13.825,0-18.558-3.73-18.821-3.948l.507-.616c.088.071,9.03,7.029,38.056,1.777l.142.786A112.38,112.38,0,0,1,1130.206,587.573Z" transform="translate(-1111.385 -583.009)"/></g><g transform="translate(128.305 230.957)"><path class="e" d="M1131.208,600.245c-12.868,0-19.341-2.922-19.429-2.964l.337-.724c.123.057,12.48,5.613,37.211,1.173l.141.786A103.479,103.479,0,0,1,1131.208,600.245Z" transform="translate(-1111.779 -596.557)"/></g><g transform="translate(127.761 243.002)"><path class="e" d="M1130.968,614.945a77.026,77.026,0,0,1-19.871-2.537l.23-.765c.188.057,19.065,5.607,37.819,0l.228.765A64.536,64.536,0,0,1,1130.968,614.945Z" transform="translate(-1111.097 -611.643)"/></g><g transform="translate(127.441 253.02)"><path class="e" d="M1130.575,628.574a54.193,54.193,0,0,1-19.879-3.649l.324-.73c.183.081,18.513,8.024,38.376-.006l.3.74A50.819,50.819,0,0,1,1130.575,628.574Z" transform="translate(-1110.696 -624.19)"/></g><g transform="translate(127.161 263.992)"><path class="e" d="M1130.048,641.431a66.005,66.005,0,0,1-19.7-2.739l.264-.753a71.709,71.709,0,0,0,39.267-.008l.215.769A74.3,74.3,0,0,1,1130.048,641.431Z" transform="translate(-1110.346 -637.931)"/></g><g transform="translate(126.847 274.541)"><path class="e" d="M1128.766,654.855c-12.009,0-18.715-2.917-18.814-2.961l.327-.728c.147.066,14.978,6.495,40.218-.022l.2.773A87.727,87.727,0,0,1,1128.766,654.855Z" transform="translate(-1109.952 -651.143)"/></g><g transform="translate(126.827 283.907)"><path class="e" d="M1131.626,667.924c-13.059,0-21.577-4.277-21.7-4.34l.366-.71c.173.089,17.693,8.872,41.063.938l.257.756A61.978,61.978,0,0,1,1131.626,667.924Z" transform="translate(-1109.928 -662.874)"/></g><g transform="translate(126.459 295.553)"><path class="e" d="M1132.288,681.379a79.065,79.065,0,0,1-22.821-3.163l.256-.756a81.471,81.471,0,0,0,42.867.49l.209.771A78.487,78.487,0,0,1,1132.288,681.379Z" transform="translate(-1109.467 -677.46)"/></g></g><g transform="translate(1174.108 446.721)"><g transform="translate(0)"><path class="e" d="M1274.786,501.66l-1.525-.394a5.25,5.25,0,0,0-2.723.284,22.92,22.92,0,0,1,.572,2.967,13.332,13.332,0,0,1,.838,1.852,3.492,3.492,0,0,1-1.073,1.536,8.788,8.788,0,0,1-1.9,1.368c-.7.376-1.164.5-1.4.378a.767.767,0,0,1-.2-.153,6.438,6.438,0,0,1-.755-2.795,17.842,17.842,0,0,0-.9-3.919,7.47,7.47,0,0,1-.719-1.85,6.518,6.518,0,0,1,1.185-2.448,14.863,14.863,0,0,1,2.047-2.692.9.9,0,0,1,1.187-.206,4.953,4.953,0,0,0,1.252.653l2.889.134a18.4,18.4,0,0,1,5.314,1.111,4.443,4.443,0,0,1-.4,2.248,5.64,5.64,0,0,1-1.19,2.078,1.185,1.185,0,0,1-1.247.263A10.45,10.45,0,0,0,1274.786,501.66Z" transform="translate(-1265.005 -495.443)"/></g><g transform="translate(3.574 8.153)"><path class="e" d="M1307.25,512.475q-3.321-.528-18.131,2.6-13.98,2.973-15.15,3.739a1.273,1.273,0,0,0-.63.367,6.254,6.254,0,0,1-.632.486,2.471,2.471,0,0,1-1.395.288,1.281,1.281,0,0,1-1.051-.44,6.787,6.787,0,0,1-.682-2.749,5.405,5.405,0,0,1,.149-2.874,1.649,1.649,0,0,1,.847-.834q2.407-.677,15.527-3.464,14.69-3.131,18.863-3.524a5.829,5.829,0,0,1,1.044-.417,2.4,2.4,0,0,1,1.666.6,2.246,2.246,0,0,1,.257.331,7.515,7.515,0,0,1,.057,2.909q-.2,2.519-.622,2.921A.169.169,0,0,1,1307.25,512.475Z" transform="translate(-1269.481 -505.654)"/></g><g transform="translate(23.084 25.118)"><path class="e" d="M1307.8,537.659a14.985,14.985,0,0,1-2.794,1.906,7.316,7.316,0,0,1-2.478,1.085,11.9,11.9,0,0,1-1.808-.814,17.155,17.155,0,0,0-3.9-1.134,6.607,6.607,0,0,1-2.723-.867.582.582,0,0,1-.141-.211q-.169-.359.434-1.391a8.258,8.258,0,0,1,1.449-1.836,3.19,3.19,0,0,1,1.619-.961q.177-.055.889.421a3.616,3.616,0,0,0,.916.512q.676.105,2.933.725a5.6,5.6,0,0,0,.455-2.734q-.187-.744-.344-1.514-.026-.147-.351-1.279a1.175,1.175,0,0,1,.3-1.261,5.636,5.636,0,0,1,2.138-1.081,4.222,4.222,0,0,1,2.293-.25,17.68,17.68,0,0,1,.806,5.334q.021,1.476.013,2.922a4.97,4.97,0,0,0,.587,1.285A.894.894,0,0,1,1307.8,537.659Z" transform="translate(-1293.917 -526.902)"/></g></g><g transform="translate(927.63 287.969)"><g transform="translate(0 0)"><path class="e" d="M987.738,337.506a4.29,4.29,0,0,1,.339,2.815,2.624,2.624,0,0,1-1.591,2q-.9.36-5.356-.289t-4.928-1.5a4.639,4.639,0,0,1-.317-1.086,4.594,4.594,0,0,0-.291-1.032l-10.917-22.892q-.6-1.253-3.31-.629-3.038.647-3.964-.317a3.713,3.713,0,0,1-.764-1.04,5.639,5.639,0,0,1-.152-3.406,31.665,31.665,0,0,0,.584-3.825l-.719-4.875a3.63,3.63,0,0,1,2.072-3.932,9.965,9.965,0,0,1,5.363-.818q3.37.333,4.332,2.349l17.233,36.137a3.169,3.169,0,0,0,1.18,1.143A3.236,3.236,0,0,1,987.738,337.506Z" transform="translate(-956.308 -296.617)"/></g></g><g transform="translate(935.11 598.846)"><g transform="translate(0 0)"><path class="e" d="M973.05,723.161a3.311,3.311,0,0,1-1.549,1.547,2.027,2.027,0,0,1-1.971-.016q-.648-.374-2.375-3.393t-1.438-3.708a3.617,3.617,0,0,1,.509-.711,3.515,3.515,0,0,0,.488-.668l8.715-17.535q.477-.96-1.195-2.312-1.838-1.538-1.7-2.56a2.846,2.846,0,0,1,.269-.96,4.352,4.352,0,0,1,2-1.715,24.407,24.407,0,0,0,2.6-1.466l2.62-2.759a2.8,2.8,0,0,1,3.377-.612,7.694,7.694,0,0,1,3.051,2.87q1.4,2.207.635,3.751L973.336,720.6a2.456,2.456,0,0,0-.132,1.262A2.491,2.491,0,0,1,973.05,723.161Z" transform="translate(-965.676 -685.97)"/></g></g><g transform="translate(1144.067 594.75)"><g transform="translate(0 0)"><path class="e" d="M1234.755,718.031a3.306,3.306,0,0,1-1.55,1.547,2.025,2.025,0,0,1-1.971-.016q-.647-.374-2.374-3.393t-1.437-3.708a3.64,3.64,0,0,1,.509-.71,3.536,3.536,0,0,0,.489-.668l8.714-17.536q.478-.961-1.194-2.312-1.84-1.539-1.7-2.561a2.872,2.872,0,0,1,.268-.96,4.36,4.36,0,0,1,2-1.715,24.44,24.44,0,0,0,2.6-1.466l2.62-2.759a2.8,2.8,0,0,1,3.376-.612,7.693,7.693,0,0,1,3.051,2.87q1.4,2.207.635,3.752l-13.756,27.681a2.443,2.443,0,0,0-.133,1.262A2.494,2.494,0,0,1,1234.755,718.031Z" transform="translate(-1227.381 -680.84)"/></g></g><g transform="translate(861.03 422.355)"><g transform="translate(4.09 18.684)"><path class="e" d="M896.5,498.782a1.748,1.748,0,0,1,.656.953,1.073,1.073,0,0,1-.2,1.023,6.436,6.436,0,0,1-1.99.911q-1.733.611-2.063.394a1.923,1.923,0,0,1-.321-.332,1.85,1.85,0,0,0-.3-.317l-8.283-6.2q-.454-.339-1.315.4-.975.81-1.492.637a1.506,1.506,0,0,1-.473-.232,2.3,2.3,0,0,1-.7-1.2,13.1,13.1,0,0,0-.513-1.492l-1.184-1.624a1.481,1.481,0,0,1,0-1.812,4.069,4.069,0,0,1,1.782-1.313,1.989,1.989,0,0,1,2.01.027l13.075,9.783a1.284,1.284,0,0,0,.643.189A1.322,1.322,0,0,1,896.5,498.782Z" transform="translate(-878.018 -488.326)"/></g><g transform="translate(17.344)"><path class="e" d="M913.1,475.382a1.752,1.752,0,0,1,.656.953,1.073,1.073,0,0,1-.2,1.023,6.434,6.434,0,0,1-1.99.911q-1.733.611-2.063.394a1.926,1.926,0,0,1-.321-.332,1.878,1.878,0,0,0-.3-.317l-8.283-6.2q-.454-.34-1.315.4-.975.81-1.492.637a1.519,1.519,0,0,1-.473-.231,2.3,2.3,0,0,1-.7-1.2,13,13,0,0,0-.513-1.491l-1.184-1.625a1.481,1.481,0,0,1,0-1.812,4.07,4.07,0,0,1,1.782-1.313,1.991,1.991,0,0,1,2.01.027l13.075,9.784a1.293,1.293,0,0,0,.643.188A1.32,1.32,0,0,1,913.1,475.382Z" transform="translate(-894.617 -464.926)"/></g><g transform="translate(13.263 9.551)"><path class="e" d="M893.686,477.137q.8-.58,2.541.19a15.017,15.017,0,0,1,3.524,2.4,21.394,21.394,0,0,1,3.84,4.421q2.323,3.567.867,5.233a2.716,2.716,0,0,1-.7.533q-.777.414-.844.46-.51.256-1.634.888-.9.52-3.153-.62a21.13,21.13,0,0,1-4.327-3,17.746,17.746,0,0,1-3.349-3.733q-1.3-2.022-.8-3.278a.655.655,0,0,1,.089-.131.688.688,0,0,1,.307-.174c.145-.046.229-.1.253-.169a3.578,3.578,0,0,1,.626-1.015,6.16,6.16,0,0,1,1.33-1.076Q893.541,477.244,893.686,477.137Zm-.68,2.685q-.619.708.627,2.5a17.266,17.266,0,0,0,2.725,2.927,20,20,0,0,0,3.193,2.243q1.836,1.056,2.094.762.5-.576-.976-2.517a25.893,25.893,0,0,0-3.419-3.533,19.116,19.116,0,0,0-2.664-2.014Q893.329,479.454,893.007,479.822Z" transform="translate(-889.506 -476.888)"/></g><g transform="translate(0 26.898)"><path class="e" d="M876.88,498.9q.766-.617,2.546.074a14.989,14.989,0,0,1,3.629,2.238,21.359,21.359,0,0,1,4.037,4.242q2.483,3.456,1.1,5.188a2.727,2.727,0,0,1-.675.565q-.758.449-.822.5-.5.28-1.592.961-.872.559-3.178-.476a21.135,21.135,0,0,1-4.459-2.8,17.742,17.742,0,0,1-3.516-3.576q-1.393-1.961-.953-3.238a.646.646,0,0,1,.082-.135.679.679,0,0,1,.3-.188c.143-.053.224-.113.244-.181a3.588,3.588,0,0,1,.58-1.041,6.155,6.155,0,0,1,1.28-1.135Q876.74,499.018,876.88,498.9Zm-.557,2.713q-.586.735.74,2.468a17.212,17.212,0,0,0,2.855,2.8,19.994,19.994,0,0,0,3.292,2.1q1.882.972,2.125.666.475-.6-1.089-2.47a25.865,25.865,0,0,0-3.576-3.374,19.226,19.226,0,0,0-2.752-1.892Q876.628,501.234,876.323,501.618Z" transform="translate(-872.895 -498.614)"/></g></g><g transform="translate(1148.725 286.634)"><g transform="translate(0)"><path class="e" d="M1266.2,303.705q1.79,1.746.6,6.447a38.14,38.14,0,0,1-4.53,9.842,54.3,54.3,0,0,1-9.46,11.489q-7.956,7.328-12.749,4.381a6.926,6.926,0,0,1-1.633-1.53q-1.364-1.774-1.508-1.921-.859-1.171-2.916-3.722-1.678-2.025.225-8.163a53.7,53.7,0,0,1,5.691-12.111,45.127,45.127,0,0,1,7.941-9.968q4.519-4.119,7.877-3.4a1.665,1.665,0,0,1,.366.166,1.729,1.729,0,0,1,.564.7q.267.516.533.561a9.115,9.115,0,0,1,2.806,1.141,15.693,15.693,0,0,1,3.257,2.879Q1265.87,303.386,1266.2,303.705Zm-7.015-.571q-2.036-1.252-6,2.626a43.771,43.771,0,0,0-6.186,8.065,50.858,50.858,0,0,0-4.273,8.948q-1.874,5.046-1.025,5.567,1.655,1.017,5.9-3.507a65.853,65.853,0,0,0,7.412-10.059,48.932,48.932,0,0,0,3.925-7.526Q1260.245,303.786,1259.185,303.134Z" transform="translate(-1233.215 -294.944)"/></g></g></g></svg>