<svg xmlns="http://www.w3.org/2000/svg" xmlns:xlink="http://www.w3.org/1999/xlink" width="744" height="385.274" viewBox="0 0 744 385.274"><defs><style>.a{fill:none;}.b{clip-path:url(#a);}.c{fill:#eadff1;}.d,.f{fill:#d8a35d;}.d{fill-rule:evenodd;}.e{fill:#937dcd;}.g{fill:#625489;}.h{fill:#ffc84f;}.i{opacity:0.3;}.j{opacity:0.5;}.k{fill:#d19442;}.l{opacity:0.15;}.m{fill:#ffc74f;}.n{fill:#989898;}.o{fill:#cbcbcb;}.p{fill:gray;}.q{fill:#62548a;}</style><clipPath id="a"><rect class="a" width="744" height="385.274" transform="translate(744 385.274) rotate(-180)"/></clipPath></defs><g transform="translate(-688.04 -406.843)"><g class="b" transform="translate(688.04 406.843)"><path class="c" d="M1383.31,852.885c3.982-72.9-47.959-153.1-81.113-214.659A480.7,480.7,0,0,0,1174.52,486.162c-39.982-31.527-106.024-66.033-148.426-19.476-37.806,41.509-7.86,74.931-.878,118.48,6.552,40.858-8.788,75.4-40.5,100.9-60.173,48.4-143.478,83.065-190.546,145.865-9.4,12.545-22.224,31.077-12.555,45.355,11.219,16.565,55.775,21.944,73.684,23.423,70.123,5.79,142.089,1.988,212.276-1.286,69.4-3.239,138.276-7.3,207.81-7.239,41.355.037,94.556-8.826,134.12,8.181" transform="translate(-663.16 -396.591)"/><g transform="translate(44.721 79.214)"><g transform="translate(0 239.54)"><g transform="translate(17.192)"><path class="d" d="M755.382,667.334s-6.041-6.892-13.086-8.276c-4.188-.824-4.046-1.881-4.752-2.227-2.341-1.149-.214,3.374,3.319,4.657,2.871,1.043,4.291,6.08,6,7.207s6.86,3.276,8.193,2.645S755.382,667.334,755.382,667.334Z" transform="translate(-736.56 -656.646)"/></g><g transform="translate(0 6.243)"><path class="d" d="M777.673,675.39c-1.285-.491-14.7-9.294-22.135-10.29s-18.571-1.765-22.378-3.018c-4.478-1.474-5.695.279-.558,2.486,3.338,1.434,10.206,3.726,11.742,3.852.744.06-4.088-.792-9.325-2.1-5.569-1.395-11.594-3.227-11.914-2.239-.62,1.918,15.376,6.943,18.213,7.369a71.819,71.819,0,0,1-7.475-1.219c-3.366-.741-7.2-2.1-8-1.429-1.248,1.059,7.181,4.771,14.221,6.044.114.234-2.188.5-10.448-1.575-.831-.208-2.977.07-.287,1.451,5.66,2.9,7.881,4.572,16.232,5.177,8.144.588,17.214-.72,23,1.488Z" transform="translate(-723.087 -661.539)"/></g></g><g transform="translate(38.857 117.076)"><path class="e" d="M763.381,713.184c6.527,2.555,53.923,11.246,97.428,1.691,27.459-6.019,53.356-19.323,66.459-46.024,33.855-69.025-45.255-108.179-45.255-108.179a1.275,1.275,0,0,0-.119.189c-3.43,5.179-77.172,115.818-128.341,133.083C753.553,693.945,752.738,709.009,763.381,713.184Z" transform="translate(-753.539 -560.673)"/></g><g transform="translate(345.12 399.625)"><path class="f" d="M1018.85,782.1s-1.646,152.212,4.8,154.275c11.566,3.775,56.6,15.5,8.126,16.241-24.623,3.621-23.284-2.066-24.073-6.718-.644-3.8-11.538-138.96-13.458-149.379-.43-2.333-.69-3.743-.69-3.743Z" transform="translate(-993.553 -782.102)"/></g><g transform="translate(218.029 388.904)"><path class="f" d="M941.818,773.7s-10.888,151.253-17.388,153.133c-11.668,3.449-57.016,13.907-8.579,16.008,24.512,4.31,23.332-1.411,24.252-6.039.752-3.782,6.866-32.44,9.078-42.8.5-2.321,18.8-119.5,18.8-119.5Z" transform="translate(-893.954 -773.7)"/></g><g transform="translate(216.521 539.837)"><path class="g" d="M943.612,894.759c.536-2.141-14.951-3.706-16.9-2.14s-33.5,4.4-33.933,13.622,43.1,6.911,46.173,7.044S942.557,898.965,943.612,894.759Z" transform="translate(-892.771 -891.984)"/></g><g transform="translate(249.874 228.8)"><path class="h" d="M927.33,659.739a9.592,9.592,0,0,0,5.643,2.036c12.773-.846,67.929-4.64,97.658-8.927,10.488-1.513,17.81-3.085,18.987-4.619,0,0,0,.043,0,.122.064,1.654.74,20.587,1.539,45.415,1.578,49.009,12.631,118.447,20.346,139.148,1.666,4.467-67.36,3.42-67.36,3.42C999.625,786,996.8,697.21,993.373,693.514c-4.167-4.5-3.566,73.769-4.95,139.424-26.49,9.4-69.769,8.8-69.513,5.978C921.965,805.421,927.33,659.739,927.33,659.739Z" transform="translate(-918.91 -648.229)"/><g class="i" transform="translate(58.905)"><g transform="translate(0 10.126)"><path d="M965.692,656.165c-.209,0-.416,0-.619,0C965.073,656.166,965.292,656.164,965.692,656.165Z" transform="translate(-965.073 -656.165)"/></g><g class="j" transform="translate(0.619)"><path d="M965.558,658.355c16.524-.1,52.2-5.507,52.2-5.507,10.488-1.513,17.809-3.085,18.987-4.619,0,0,0,.043,0,.122.064,1.654.74,20.587,1.539,45.415a12.252,12.252,0,0,1-1.742-.051c-3.752-.367-6.784-2.412-9.217-5.424a29.982,29.982,0,0,1-3.984-6.764C1009.1,659.3,970.856,658.375,965.558,658.355Z" transform="translate(-965.558 -648.229)"/></g></g><g transform="translate(17.945 4.221)"><g transform="translate(0 5.062)"><rect class="e" width="183.204" height="1.183" transform="translate(0 183.195) rotate(-89.453)"/></g><g transform="translate(17.417 7.213)"><rect class="e" width="180.03" height="1.183" transform="translate(0 180.02) rotate(-89.399)"/></g><g transform="translate(36.182 5.766)"><rect class="e" width="1.183" height="178.525" transform="translate(0 0.006) rotate(-0.28)"/></g><g transform="translate(52.403 4.316)"><rect class="e" width="1.183" height="36.861" transform="translate(0 0.113) rotate(-5.491)"/></g><g transform="translate(70.42 2.783)"><rect class="e" width="1.182" height="181.58" transform="translate(0 0.08) rotate(-3.864)"/></g><g transform="translate(85.882 1.331)"><rect class="e" width="1.182" height="183.075" transform="translate(0 0.096) rotate(-4.65)"/></g><g transform="translate(101.187 0)"><rect class="e" width="1.183" height="184.157" transform="matrix(0.995, -0.104, 0.104, 0.995, 0, 0.124)"/></g></g><g transform="translate(7.674 19.402)"><path class="e" d="M924.97,675.236c.983-.038,98.608-3.877,123.838-10.66l-.307-1.142c-25.1,6.749-122.6,10.582-123.576,10.62Z" transform="translate(-924.924 -663.434)"/></g><g transform="translate(6.915 44.722)"><path class="e" d="M957.046,689.5a115.906,115.906,0,0,0,35.012-5.1l-.359-1.127c-33.021,10.523-66.716,1.346-67.051,1.253l-.319,1.138A136.094,136.094,0,0,0,957.046,689.5Z" transform="translate(-924.329 -683.277)"/></g><g transform="translate(73.785 38.804)"><path class="e" d="M999.785,685.254c10.679,0,23.594-1.193,35.416-5.5l-.4-1.11c-26.046,9.5-57.527,3.675-57.842,3.615l-.221,1.162A138.655,138.655,0,0,0,999.785,685.254Z" transform="translate(-976.734 -678.639)"/></g><g transform="translate(6.309 59.459)"><path class="e" d="M956.438,700.964a134.321,134.321,0,0,0,33.083-4.256l-.291-1.146c-38.869,9.869-64.665-.628-64.92-.736l-.457,1.091C924.03,695.991,936.247,700.964,956.438,700.964Z" transform="translate(-923.854 -694.826)"/></g><g transform="translate(5.757 75.459)"><path class="e" d="M960.753,712.283c9.663,0,19.752-.919,28.334-3.666l-.361-1.127c-25.508,8.165-64.665-.041-65.058-.125l-.246,1.156A203.825,203.825,0,0,0,960.753,712.283Z" transform="translate(-923.422 -707.365)"/></g><g transform="translate(4.887 91.47)"><path class="e" d="M956.538,727.977a137.973,137.973,0,0,0,32.283-4.123l-.277-1.151c-43.931,10.581-64.951-2.657-65.158-2.791l-.647.99C922.89,721,933.923,727.977,956.538,727.977Z" transform="translate(-922.74 -719.913)"/></g><g transform="translate(4.184 109.037)"><path class="e" d="M954.943,741.063a92.64,92.64,0,0,0,33.88-6.282l-.431-1.1c-34.413,13.475-65.437.837-65.747.707l-.456,1.092C922.394,735.565,935.893,741.063,954.943,741.063Z" transform="translate(-922.189 -733.68)"/></g><g transform="translate(3.348 126.57)"><path class="e" d="M952.625,754.513a132.179,132.179,0,0,0,36.092-5.423l-.323-1.137c-43.515,12.354-66.039-.4-66.263-.533l-.6,1.021C921.687,748.53,932.213,754.513,952.625,754.513Z" transform="translate(-921.534 -747.42)"/></g><g transform="translate(2.591 140.905)"><path class="e" d="M950.693,767.489a97.589,97.589,0,0,0,38.085-7.745l-.459-1.09c-36.249,15.293-66.62,2.972-66.922,2.846l-.456,1.092C921.131,762.671,932.989,767.489,950.693,767.489Z" transform="translate(-920.941 -758.654)"/></g><g transform="translate(1.756 155.648)"><path class="e" d="M946.959,779.205c10.365,0,24.091-1.925,41.763-7.877l-.376-1.12c-48.3,16.265-67.132,1.775-67.317,1.628l-.743.92C920.778,773.154,928.586,779.205,946.959,779.205Z" transform="translate(-920.286 -770.208)"/></g><g transform="translate(1.033 170.392)"><path class="e" d="M950.114,789.8a112.778,112.778,0,0,0,38.549-6.927l-.4-1.113c-38.779,14.066-67.793,2.183-68.081,2.061l-.459,1.09C919.9,784.991,931.65,789.8,950.114,789.8Z" transform="translate(-919.72 -781.763)"/></g><g transform="translate(76.39 56.769)"><path class="e" d="M998.67,699.714c8.812,0,21.007-1.391,37.467-5.856l-.31-1.141c-42.164,11.434-56.243,2.3-56.381,2.209l-.67.974C979.129,696.144,984.56,699.714,998.67,699.714Z" transform="translate(-978.776 -692.718)"/></g><g transform="translate(78.242 71.928)"><path class="e" d="M999.469,711.044c9.079,0,21.3-1.2,36.527-5.3l-.307-1.142c-35.976,9.7-54.869,3.062-55.057,2.994l-.406,1.11C980.338,708.742,986.883,711.044,999.469,711.044Z" transform="translate(-980.227 -704.598)"/></g><g transform="translate(78.972 87.979)"><path class="e" d="M1000.359,724.782c10.477,0,23.881-1.353,36.922-6.506l-.434-1.1c-26.974,10.657-55.52,4.859-55.806,4.8l-.242,1.157A106.938,106.938,0,0,0,1000.359,724.782Z" transform="translate(-980.799 -717.177)"/></g><g transform="translate(79.767 102.72)"><path class="e" d="M1004.1,737.89a76.7,76.7,0,0,0,34.87-8.107l-.535-1.054c-28.291,14.369-56.348,4.974-56.627,4.878l-.387,1.118A77.457,77.457,0,0,0,1004.1,737.89Z" transform="translate(-981.422 -728.729)"/></g><g transform="translate(80.75 118.839)"><path class="e" d="M1001.984,749.456a110.938,110.938,0,0,0,38.86-6.987l-.416-1.108c-31.076,11.663-57.676,5.062-57.942,4.994l-.293,1.146A89.106,89.106,0,0,0,1001.984,749.456Z" transform="translate(-982.193 -741.361)"/></g><g transform="translate(81.623 134.315)"><path class="e" d="M1002.164,762.115c10.2,0,24.1-1.616,40.839-7.509l-.393-1.115c-36.418,12.82-59.118,5.215-59.344,5.137l-.389,1.116C983,759.787,989.921,762.115,1002.164,762.115Z" transform="translate(-982.877 -753.49)"/></g><g transform="translate(82.778 149.411)"><path class="e" d="M1008.815,774.216a90.819,90.819,0,0,0,36.6-7.813l-.475-1.083c-33.5,14.686-60.445,3.939-60.712,3.828l-.45,1.094C983.945,770.308,993.741,774.216,1008.815,774.216Z" transform="translate(-983.782 -765.32)"/></g><g transform="translate(83.72 165.767)"><path class="e" d="M1007.658,786.242a119.6,119.6,0,0,0,40.867-6.993l-.406-1.111c-32.787,11.988-63.016,4.792-63.318,4.718L984.52,784A108.456,108.456,0,0,0,1007.658,786.242Z" transform="translate(-984.52 -778.138)"/></g></g><g transform="translate(238.035 44.55)"><path class="k" d="M918.622,505.642s2.891,14.2,13.707,19.306-19.664,5.871-19.664,5.871,1.291-14.816-2.344-22.7S918.622,505.642,918.622,505.642Z" transform="translate(-909.632 -503.835)"/></g><g transform="translate(218.179 6.342)"><ellipse class="f" cx="21.241" cy="15.569" rx="21.241" ry="15.569" transform="translate(0 39.64) rotate(-68.921)"/></g><g transform="translate(143.173 54.32)"><path class="e" d="M838.244,728.45c27.459-6.019,53.356-19.323,66.459-46.024.047.07.095.13.142.2.142.177.283.366.425.579a.59.59,0,0,1,.094.13c3.773,5.156,22.291,30.474,22.291,30.485,6.717,8.751,16.981,17.159,25.13,20.542.531.236,1.076.438,1.572.615,19.974,3.121,103.152-28.487,113.062-36.387,4.47-3.559,6.221-20.245,6.575-38.338.449-22.053-1.147-46.237-2.319-51.333-1.987-8.549-41.259-103.141-102.881-97.156a63.149,63.149,0,0,0-16.034,3.76s-.461.485-1.277,1.206a30.271,30.271,0,0,1-5.57,3.961,23.639,23.639,0,0,1-5.687,2.283,17.43,17.43,0,0,1-11.625-.945c-3.855-1.727-12.417.295-22.812,6.1-14.438,8.053-32.448,23.414-46.343,46.118a1.274,1.274,0,0,0-.119.189,148.553,148.553,0,0,0-19.914,54.669A352.558,352.558,0,0,0,838.244,728.45Z" transform="translate(-835.29 -511.492)"/></g><g class="l" transform="translate(212.589 200.806)"><path d="M889.69,650.733c.046.073.1.13.147.2.14.181.285.373.42.578.036.039.061.08.1.131,3.772,5.155,22.281,30.482,22.284,30.493,6.719,8.743,16.981,17.156,25.135,20.534-9.266-14.794-37.1-57.39-42.192-76.381C898.353,645.235,889.686,650.722,889.69,650.733Z" transform="translate(-889.69 -626.291)"/></g><g class="l" transform="translate(213.676 64.261)"><path d="M926.96,523.868c.448,1.335,0,2.431-2.255,2.783-7.027,1.1-14.6,3.568-19.379,7.761a4.911,4.911,0,0,1-4.613,1.166c-4.165-1.015-8.21-6.545-9.9-9.027a1.958,1.958,0,0,1-.269-.573c10.4-5.807,18.95-7.83,22.813-6.1a17.4,17.4,0,0,0,11.621.937A9.579,9.579,0,0,1,926.96,523.868Z" transform="translate(-890.542 -519.283)"/></g><g transform="translate(225.819)"><g transform="translate(0 4.145)"><g transform="translate(10.434 0.499)"><path class="m" d="M911.253,486.2s19.776,23.638,20.939-1.627C933,467.092,897.948,469.607,911.253,486.2Z" transform="translate(-908.235 -472.561)"/></g><path class="m" d="M919.217,482.363s-17.289,2.926-19.159,11.825c0,0,6.536-26.2,20.769-21.438s19.13,8.2,7.7,34.167C928.522,506.916,932.565,484.315,919.217,482.363Z" transform="translate(-900.058 -472.17)"/></g><g transform="translate(20.096)"><path class="m" d="M915.807,473.574s3.709-7.52,11.008-3.439,8.908,9.77,8.309,14.609-.771,8.575.333,9c0,0-4.586,2.034-5.264.505,0,0-.2,9.039-6.346,14.152,0,0,2.437-10.588-2.654-13.819S915.807,473.574,915.807,473.574Z" transform="translate(-915.807 -468.922)"/></g><g transform="translate(0.902 2.488)"><path class="m" d="M920.691,473.24s-4.241-5.436-12.735.161l-5.862,5.345s.678,1.529,3.31,1.276c0,0-4,7.387-4.64,12.181l8.374-12.009Z" transform="translate(-900.765 -470.871)"/></g></g><g transform="translate(229.58 141.44)"><path class="n" d="M909.378,660.907l89.976,36.826a10.259,10.259,0,0,0,13.37-5.6l25.129-61.412a3.189,3.189,0,0,0,.157-.444,10.221,10.221,0,0,0-5.764-12.917L942.27,580.533a10.241,10.241,0,0,0-13.361,5.607L904.938,644.7l-1.166,2.846A10.242,10.242,0,0,0,909.378,660.907Z" transform="translate(-903.006 -579.767)"/><g transform="translate(1.329)"><path class="o" d="M910.414,657.617l89.976,36.826a10.243,10.243,0,0,0,13.361-5.608l23.971-58.561a10.221,10.221,0,0,0-5.764-12.917l-89.976-36.825a10.241,10.241,0,0,0-13.361,5.607L904.65,644.7A10.221,10.221,0,0,0,910.414,657.617Z" transform="translate(-904.047 -579.767)"/></g><g transform="translate(61.589 49.651)"><circle class="p" cx="7.914" cy="7.914" r="7.914"/></g></g><g class="l" transform="translate(245.662 189.454)"><path d="M1037.352,631.476s-8.629-34.274-95.895,4.122,74.414,1.231,74.414,1.231Z" transform="translate(-915.609 -617.395)"/></g><g class="l" transform="translate(328.556 117.075)"><path d="M980.585,560.672s-3.065,92.541,85.792,104.925l1.9.582-6.311-19.666s-52.193-40.412-52.728-41.694S980.585,560.672,980.585,560.672Z" transform="translate(-980.572 -560.672)"/></g><g transform="translate(236.236 46.114)"><g transform="translate(0 165.676)"><g transform="translate(0 3.564)"><path class="d" d="M955.722,640.151c-1.182-.04-14.546-3.444-20.862-2.177s-15.584,3.755-19.026,3.8c-4.05.052-4.55,1.817.24,2.174a63.311,63.311,0,0,0,10.618-.151c.623-.158-3.543.5-8.165.9-4.913.422-10.322.616-10.3,1.508.031,1.732,14.433,1.346,16.857.9a61.531,61.531,0,0,1-6.415,1.1c-2.943.338-6.44.3-6.9,1.073-.718,1.21,7.169,1.871,13.244.938.158.158-1.638,1.017-8.928,1.641-.732.063-2.4.888.171,1.258,5.412.778,7.682,1.513,14.636-.329,6.783-1.8,13.787-5.394,19.1-5.216Z" transform="translate(-908.222 -637.692)"/></g><g transform="translate(11.584)"><path class="d" d="M935.5,638.467s-6.834-3.912-12.946-3.069c-3.632.5-3.812-.4-4.481-.481-2.224-.279.767,2.8,4,2.857,2.625.045,5.187,3.741,6.888,4.18s6.489.745,7.4-.14S935.5,638.467,935.5,638.467Z" transform="translate(-917.3 -634.899)"/></g></g><g transform="translate(23.648)"><path class="e" d="M1006.547,510.5c27.045,12.725,47.108,26.053,73.741,81.649,13.512,28.207,21.132,58.173,24.576,74.147a19.249,19.249,0,0,1-7.887,19.823c-60.287,42.022-152.685.5-152.685.5-4.254-.281-.621-16.239-.621-16.239,36.854-11.42,65.521-18.745,98.365-16.209-.171-.025-45.14-45.542-53.5-59.309-21.9-36.105-65.628-59.953-61.513-77.895C928.446,510.76,979.267,497.665,1006.547,510.5Z" transform="translate(-926.754 -505.061)"/></g></g><g transform="translate(357.257 549.13)"><path class="q" d="M1003.073,900.442c-.476-2.154,18.325-.986,20.233.634s29.562,6.646,29.739,15.876-43.274,5.7-46.352,5.745S1004.008,904.676,1003.073,900.442Z" transform="translate(-1003.064 -899.267)"/></g></g></g></g></svg>