<svg xmlns="http://www.w3.org/2000/svg" width="402" height="343.358" viewBox="0 0 402 343.358"><defs><style>.a{fill:#f1f1f1;}.b{fill:#ffc84f;}.c{fill:#c1c9e7;}.d{fill:#947dce;}.e{fill:#62548a;}.f{fill:#fff;}</style></defs><g transform="translate(-951.164 -321.333)"><path class="a" d="M1032.091,456.276c26.018-38.718,54.324-76.137,87.634-108.792,12.294-12.052,29.243-24.27,45.268-17.98,13.718,5.385,19.308,22.171,18.869,36.9s-5.126,29.193-4.538,43.917,8.884,31,23.422,33.421c13.819,2.3,25.928-8.431,36.874-17.176a178.8,178.8,0,0,1,75.551-35.341c7.971-1.625,17.516-2.214,22.95,3.839,5.943,6.621,3.387,16.958.493,25.371l-20.661,60.042c-2.888,8.4-4.469,20.178,3.594,23.893,5.881,2.709,12.762-1.358,19.169-.42,8.036,1.175,12.986,10.238,12.4,18.339s-5.206,15.293-9.929,21.9c-15.741,22.026-34.519,42.335-57.614,56.458s-50.872,21.688-77.6,17.373c-12.452-2.01-26.067-8.177-29.422-20.334-1.7-6.172-.4-12.882-2.177-19.035-3.43-11.893-17.509-17.888-29.838-16.79s-23.471,7.406-34.647,12.729a240.1,240.1,0,0,1-136.319,20.771c-8.831-1.264-18.795-3.893-22.764-11.882-4.08-8.214.179-17.963,4.608-25.995a496.589,496.589,0,0,1,89.637-117.129" transform="translate(0 0.82)"/><g transform="translate(1035.461 321.333)"><g transform="translate(85.536)"><circle class="b" cx="7.281" cy="7.281" r="7.281"/><path class="b" d="M1108.338,329.64l6.588,48.542,13.627-4.854L1111.24,329.64Z" transform="translate(-1101.057 -320.279)"/></g><g transform="translate(161.231)"><circle class="b" cx="7.281" cy="7.281" r="7.281" transform="translate(12.933)"/><path class="b" d="M1189.264,329.64l-6.588,48.542-13.627-4.854,17.313-43.688Z" transform="translate(-1169.05 -320.279)"/></g><path class="c" d="M1085.332,567.788s30.959,65.754,64.024,65.754c38.5,0,67.208-66.68,67.208-66.68Z" transform="translate(-1018.439 -290.184)"/><path class="d" d="M1206.143,573.189c0-11.557-25.238-20.927-56.373-20.927s-56.37,9.37-56.37,20.927c12.242,11.622,25.238,20.927,56.37,20.927S1199.778,581.359,1206.143,573.189Z" transform="translate(-1017.416 -292.036)"/><g transform="translate(39.227 166.543)"><path class="d" d="M1106.427,503.568c1.143,19.736-8.135,36.321-20.711,37.048s-23.7-14.683-24.841-34.418,8.135-36.321,20.712-37.047S1105.289,483.833,1106.427,503.568Z" transform="translate(-1060.781 -469.126)"/></g><g transform="translate(179.745 166.543)"><path class="d" d="M1185.575,503.568c-1.145,19.736,8.133,36.321,20.708,37.048s23.7-14.683,24.841-34.418-8.134-36.321-20.712-37.047S1186.711,483.833,1185.575,503.568Z" transform="translate(-1185.479 -469.126)"/></g><g transform="translate(213.008 104.847)"><path class="b" d="M1219.188,507.087a4.186,4.186,0,0,1-2.156-7.777c1.317-.8,31.354-19.486,29.277-63.187a4.186,4.186,0,0,1,8.364-.4c2.322,48.9-31.887,69.9-33.344,70.768A4.174,4.174,0,0,1,1219.188,507.087Z" transform="translate(-1214.998 -412.173)"/><path class="b" d="M1245.726,441.295a19.165,19.165,0,0,1-18.568-14.525,4.186,4.186,0,1,1,8.126-2.016,10.759,10.759,0,0,0,20.884-5.18,4.186,4.186,0,0,1,8.126-2.017,19.138,19.138,0,0,1-18.567,23.739Z" transform="translate(-1213.471 -414.376)"/><path class="e" d="M1234.876,475.065l3.357,3.027a8.008,8.008,0,0,0,12.876-3.173A66.26,66.26,0,0,0,1254.835,460a8.034,8.034,0,0,0-5.006-8.428l-1.7-.673a8,8,0,0,0-10.374,4.464,103.336,103.336,0,0,1-4.556,9.94A8.02,8.02,0,0,0,1234.876,475.065Z" transform="translate(-1212.811 -409.814)"/></g><path class="c" d="M1233.01,506.068c0-48.381-36.049-59.3-80.521-59.3s-80.519,10.916-80.519,59.3c0,19.033,5.581,48.366,15.057,76.956a164.924,164.924,0,0,0,48.291,11.5,16.231,16.231,0,0,1,32.431,0A163.845,163.845,0,0,0,1218.26,582.1C1227.55,553.8,1233.01,524.894,1233.01,506.068Z" transform="translate(-1020.135 -305.419)"/><g transform="translate(49.502 38.752)"><path class="b" d="M1085.743,414.1c-.227,12.775-3.952,23.068-8.328,22.99s-7.731-10.5-7.5-23.269,3.953-23.068,8.324-22.991S1085.968,401.33,1085.743,414.1Z" transform="translate(-1069.899 -351.267)"/><path class="b" d="M1204.9,416.211c-.224,12.774,3.134,23.192,7.507,23.269s8.1-10.215,8.324-22.989-3.134-23.2-7.505-23.272S1205.123,403.434,1204.9,416.211Z" transform="translate(-1052.774 -350.965)"/><path class="d" d="M1234.373,421.192c-.625,35.356-37.324,63.385-81.974,62.6s-80.336-30.094-79.714-65.453,37.326-63.386,81.978-62.6S1235,385.831,1234.373,421.192Z" transform="translate(-1069.547 -355.722)"/><path class="e" d="M1209.836,404.59a18.022,18.022,0,0,0-17.7-18.339l-81.093-1.433a18.026,18.026,0,0,0-18.34,17.7l-.443,25.029a18.027,18.027,0,0,0,17.7,18.341l81.094,1.432a18.022,18.022,0,0,0,18.339-17.7Z" transform="translate(-1067.063 -352.03)"/><path class="f" d="M1125.4,412.175a7.246,7.246,0,1,0-7.246,7.245A7.244,7.244,0,0,0,1125.4,412.175Z" transform="translate(-1064.696 -349.479)"/><path class="f" d="M1179.523,412.175a7.246,7.246,0,1,0-7.246,7.245A7.244,7.244,0,0,0,1179.523,412.175Z" transform="translate(-1057.83 -349.479)"/><g transform="translate(74.671 81.298)"><rect class="f" width="5.379" height="5.377" transform="matrix(1, -0.005, 0.005, 1, 0, 0.08)"/><rect class="f" width="5.38" height="5.377" transform="translate(10.757 0.026) rotate(-0.281)"/><rect class="f" width="5.378" height="5.377" transform="matrix(1, -0.005, 0.005, 1, 5.378, 0.054)"/></g></g><g transform="translate(0 188.891)"><path class="b" d="M1072.168,488.958a4.175,4.175,0,0,0-2.129.584c-1.459.864-35.744,21.736-33.605,70.643a4.186,4.186,0,0,0,8.365-.365c-1.921-43.949,29.192-62.887,29.507-63.073a4.186,4.186,0,0,0-2.138-7.789Z" transform="translate(-1024.655 -488.958)"/><path class="b" d="M1045.145,549.2a19.2,19.2,0,0,0-4.567.553,19.131,19.131,0,0,0-14.054,23.122,4.187,4.187,0,0,0,8.135-1.986,10.758,10.758,0,0,1,20.9-5.1,4.186,4.186,0,1,0,8.133-1.984,19.146,19.146,0,0,0-18.548-14.6Z" transform="translate(-1025.97 -481.316)"/><path class="e" d="M1053.417,516.831l-2.787-2.293a8.4,8.4,0,0,0-13.358,3.943,66.063,66.063,0,0,0-2.85,14.184,8.411,8.411,0,0,0,5.649,8.606l1.057.365a8.4,8.4,0,0,0,10.659-5.123c1.054-2.981,2.376-6.4,3.852-9.522A8.448,8.448,0,0,0,1053.417,516.831Z" transform="translate(-1024.901 -485.957)"/></g><path class="c" d="M1149.77,585.174a118.229,118.229,0,0,1-56.37-14.341c14.525,34.189,34.42,62.205,56.37,62.205s41.847-28.016,56.37-62.205A118.223,118.223,0,0,1,1149.77,585.174Z" transform="translate(-1017.416 -289.68)"/><g transform="translate(113.032 179.356)"><path class="e" d="M1164.926,499.822a19.325,19.325,0,1,0-19.327,19.325A19.326,19.326,0,0,0,1164.926,499.822Z" transform="translate(-1126.277 -480.496)"/><g transform="translate(5.043 5.044)"><path class="d" d="M1159.314,499.254a14.281,14.281,0,1,0-14.282,14.28A14.281,14.281,0,0,0,1159.314,499.254Z" transform="translate(-1130.752 -484.972)"/></g></g></g></g></svg>