<svg xmlns="http://www.w3.org/2000/svg" xmlns:xlink="http://www.w3.org/1999/xlink" width="465" height="409.342" viewBox="0 0 465 409.342"><defs><style>.a,.k{fill:none;}.b{clip-path:url(#a);}.c{fill:#b5d6da;opacity:0.49;}.d{fill:#d19442;}.e{fill:#d8a35d;}.f{fill:#ffc74f;}.g{fill:#937dcd;}.h{fill:#ffc84f;}.i{opacity:0.3;}.j{opacity:0.5;}.k{stroke:#937dcd;stroke-miterlimit:10;stroke-width:0.69px;}.l{opacity:0.15;}.m{fill:#cbcbcb;}.n{fill:#04005a;}.o{fill:gray;}</style><clipPath id="a"><path class="a" d="M1122.458,800.476s-118.924-7.327-155.74-72.571,25.189-101.093,49.411-115.625,53.286-26.158,65.881-117.229,88.163-101.727,120.619-96.883,54.094,33.909,66.527,54.254,40.529,51.915,84.126,85.542,90.1,113.716,54.255,197.681-121.589,68.707-121.589,68.707S1183.008,811.3,1122.458,800.476Z" transform="translate(-955.314 -397.204)"/></clipPath></defs><g transform="translate(-955.313 -397.204)"><g class="b" transform="translate(955.313 397.204)"><rect class="c" width="536.992" height="526.433" transform="translate(-29.163 -35.335)"/><g transform="translate(85.358 110.115)"><path class="d" d="M1130.425,507.126c.492,1.217,3.42,14.811,5.951,17.491s10.776,2.108,10.486,2.838-6.187,14.74-16.4,15.812-7.177-6.454-7.177-6.454a20.035,20.035,0,0,0-1.034-16.412C1117.736,511.757,1130.425,507.126,1130.425,507.126Z" transform="translate(-967.222 -458.671)"/><g transform="translate(137.664)"><ellipse class="e" cx="22.52" cy="16.73" rx="22.52" ry="16.73" transform="translate(0 55.5) rotate(-81.107)"/><g transform="translate(2.238)"><g transform="translate(1.249 5.965)"><path class="f" d="M1122.372,493.789s26.132,20.2,21.61-6.278C1140.853,469.193,1104.633,479.484,1122.372,493.789Z" transform="translate(-1110.043 -477.672)"/><path class="f" d="M1129.755,488.335s-17.483,6.825-17.423,16.47c0,0,.9-28.625,16.927-26.8s21.946,4.322,15.847,33.773C1145.106,511.778,1144.21,487.436,1129.755,488.335Z" transform="translate(-1112.332 -477.561)"/></g><path class="f" d="M1123.565,480.019s2.184-8.617,10.773-5.981,11.573,8.188,12.046,13.341,1.141,9.068,2.4,9.267c0,0-4.352,3.116-5.411,1.678,0,0,1.851,9.424-3.442,16.077,0,0,.15-11.523-5.929-13.759S1123.565,480.019,1123.565,480.019Z" transform="translate(-1106.111 -473.537)"/><path class="f" d="M1129.735,478.506s-5.688-4.713-13.331,2.957l-4.938,6.831s1.059,1.438,3.764.6c0,0-2.52,8.544-2.1,13.66l6.06-14.3Z" transform="translate(-1111.466 -471.971)"/></g></g><path class="g" d="M1245.3,676.984c-1.206,8.648-15.779,13.931-26.565,28.615-5.225,7.119-19.217,12.773-31.651,13.23-30.552,1.174-55.323,4.051-92.13-13.23-42.334-19.874-9.818-93.548-12.269-101.851-3.22-10.968,56.355-42.725,60.214-44s62.836-4.942,64.536-4.374S1248.694,652.589,1245.3,676.984Z" transform="translate(-988.563 -437.345)"/><g transform="translate(103.193 265.02)"><path class="h" d="M1099.389,664.065c2.139.195,3.292.248,4.821.408,10.841-.26,57.652-1.495,82.964-4.032,8.93-.9,15.182-1.953,16.233-3.191a.965.965,0,0,1,0,.1c0,1.383-.1,17.216-.309,37.971-.405,40.973,6.483,99.334,12.276,116.887,1.251,3.788-57.126.495-57.126.495-2.04-42.177-1.277-116.411-4.045-119.617-3.368-3.9-5.639,61.465-9.14,116.231-22.752,6.92-59.357,4.9-59.04,2.558C1089.794,784.018,1099.389,664.065,1099.389,664.065Z" transform="translate(-1086.019 -657.25)"/><g class="i" transform="translate(56.262)"><path d="M1125.544,661.388l-.524-.02S1125.206,661.372,1125.544,661.388Z" transform="translate(-1125.02 -655.427)"/><path class="j" d="M1125.383,663.211c13.989.493,44.369-2.77,44.369-2.77,8.93-.9,15.182-1.953,16.233-3.191a.981.981,0,0,1,0,.1c0,1.383-.1,17.216-.309,37.971a10.592,10.592,0,0,1-1.473-.1,11.424,11.424,0,0,1-7.607-4.851,24.849,24.849,0,0,1-3.132-5.786C1162.2,665.522,1129.866,663.413,1125.383,663.211Z" transform="translate(-1124.859 -657.25)"/></g><g transform="translate(15.624 3.192)"><line class="k" x1="7.985" y2="152.889" transform="translate(0 0.695)"/><line class="k" x1="7.991" y2="150.232" transform="translate(14.776 3.106)"/><line class="k" x1="5.571" y2="149.08" transform="translate(31.514 2.486)"/><line class="k" x2="1.683" y2="30.757" transform="translate(50.875 1.889)"/><line class="k" x2="3.917" y2="151.685" transform="translate(66.182 1.226)"/><line class="k" x2="6.013" y2="152.868" transform="translate(79.349 0.561)"/><line class="k" x2="9.819" y2="153.583" transform="translate(92.295)"/></g><path class="k" d="M1094.474,673.376s83.284.273,105.07-4.55" transform="translate(-1082.277 -652.127)"/><path class="k" d="M1150.794,682.495c-28.791,7.757-57.077-1.31-57.077-1.31" transform="translate(-1082.611 -646.657)"/><path class="k" d="M1133.005,681.065s26.566,6.138,49.345-1" transform="translate(-1065.224 -647.155)"/><path class="k" d="M1093.07,688.962s21.438,9.918,55.232,2.925" transform="translate(-1082.898 -643.215)"/><path class="k" d="M1092.291,698.225s33.048,8.41,55.311,2.382" transform="translate(-1083.243 -639.116)"/><path class="k" d="M1091.506,707.428s17.18,12.125,55.431,4.7" transform="translate(-1083.59 -635.043)"/><path class="k" d="M1090.586,718.014a81.889,81.889,0,0,0,56.041,1.733" transform="translate(-1083.997 -630.358)"/><path class="k" d="M1089.724,727.713s18.5,11.784,56.446,2.83" transform="translate(-1084.379 -626.065)"/><path class="k" d="M1088.815,737.662s25.324,11.695,57.125-.017" transform="translate(-1084.781 -621.67)"/><path class="k" d="M1088.078,745.418s15.222,13.225,57.5,1.1" transform="translate(-1085.107 -618.229)"/><path class="k" d="M1087.195,754.23s24.163,11.252,58.053.689" transform="translate(-1085.498 -614.33)"/><path class="k" d="M1134.261,690.354s11.36,8.456,48.2.219" transform="translate(-1064.668 -642.599)"/><path class="k" d="M1134.875,699.83s15.7,6.411,47-.544" transform="translate(-1064.396 -638.646)"/><path class="k" d="M1134.815,710.66s24.069,6.03,47.684-2.064" transform="translate(-1064.423 -634.526)"/><path class="k" d="M1134.959,719.258s23.544,9.127,48.488-2.1" transform="translate(-1064.359 -630.737)"/><path class="k" d="M1135.109,728.7s22.324,6.659,49.513-2.144" transform="translate(-1064.293 -626.578)"/><path class="k" d="M1135.265,737.769s18.9,7.4,50.735-2.2" transform="translate(-1064.224 -622.587)"/><path class="k" d="M1135.621,745.419s22.5,10.234,51.908-1.056" transform="translate(-1064.066 -618.696)"/><path class="k" d="M1135.7,755.642a103.162,103.162,0,0,0,54.045-1.724" transform="translate(-1064.031 -614.468)"/></g><path class="l" d="M1125.9,627.386c2.313-2.018,8.849,5.392,17.592,3.6,8.13-1.663,12.583-10.135,13.142-11.233,4.96-9.76-.727-16.444,1.271-26.918,1.239-6.494,5.563-15.133,19.5-23.951,6.2,50.043,9.537,76.94,9.537,76.94h0l-51.928,4.452C1124.865,633.386,1124.463,628.644,1125.9,627.386Z" transform="translate(-965.444 -431.337)"/><path class="e" d="M1204.658,613.288l-9.042,24.542s-30.747-8.393-50.77-18.4-32.227-26.484-38.687-26.484-24.7,4.279-26.158,6.7,3.392,4.359,6.056,4.6,8.234-.968,8.234-.968-2.664,5.086-4.844,9.688,2.422,7.992,3.876,8.477c0,0,4.117,5.329,7.509,5.329,0,0,6.3,6.789,11.868,5.332s-.485-5.574-.485-5.574a15.151,15.151,0,0,0,7.751.727,23.388,23.388,0,0,0,7.266-2.422s10.213,4.144,16.343,11.343c13.38,15.715,30.308,42.6,41.383,48.805,16.148,9.042,23.576,14.209,33.909,9.365s28.582-37.814,32.941-56.193C1251.808,638.154,1222.1,636.863,1204.658,613.288Z" transform="translate(-985.607 -420.691)"/><path class="g" d="M1277.866,670.179c-6.349,19.879-25.247,52.184-44.76,61.663a30.388,30.388,0,0,1-7.524,2.532c-23.433,4.618-63.372-31.525-79.7-69.115,5.083-7.728,1.984-9.925,7.067-17.651,11.88,8.243,27.242,13.974,41.845,12.588a9.645,9.645,0,0,0,5.033-1.549,8.7,8.7,0,0,0,2.744-4.6c2.2-7.392.486-15.138-1-22.481a166.013,166.013,0,0,1-2.917-22.126c-.091-1.408-1.4-11.1-.2-11.849-18.4,11.585-72.892-2.439-91.293,9.144-7.037,4.426,22.027,34.472,14.988,38.9-11.23,59.21-7.3,44.679-14.988,59.343-27.119,5.387-47.555-17.185-49.438-37.3-3.575-38.2-11.21-70.087,13.56-103.434,26.471-35.636,72.234-46.846,79.7-39.565a18.611,18.611,0,0,0,6.409,4.882,11.611,11.611,0,0,0,2.633.769,14.846,14.846,0,0,0,7.91-1.134c6.653-2.653,9.913-8.041,11.311-9.61,3.778-4.273,15.2-4.618,28.761-.932,14.1,3.829,30.5,12.021,43.017,24.68C1292.134,584.9,1283.486,652.559,1277.866,670.179Z" transform="translate(-997.107 -454.693)"/><g transform="translate(110.048 166.406)"><path d="M1091.573,604.545a.782.782,0,0,1-.267-.046.8.8,0,0,1-.49-1.024,85.034,85.034,0,0,1,6.616-14.206.8.8,0,0,1,1.362.85,84.619,84.619,0,0,0-6.463,13.891A.8.8,0,0,1,1091.573,604.545Z" transform="translate(-1090.77 -588.891)"/></g><g transform="translate(117.555 173.431)"><path d="M1096.779,607.717a.818.818,0,0,1-.195-.023.8.8,0,0,1-.586-.974c.082-.323,2.011-7.944,5.2-12.612a.8.8,0,0,1,1.327.906c-3.033,4.434-4.952,12.021-4.971,12.1A.8.8,0,0,1,1096.779,607.717Z" transform="translate(-1095.975 -593.76)"/></g><path class="d" d="M1090.989,641.2s-7.941.248-14.394-2.729a25.789,25.789,0,0,1-9.809-7.936l15.988-3.97,20.49,3.227S1102.531,639.092,1090.989,641.2Z" transform="translate(-991.338 -405.81)"/><path class="m" d="M1154.966,668.469,1040.32,650.526,1014.485,548.99l110.789,13.552Z" transform="translate(-1014.485 -440.143)"/><path class="n" d="M1091.284,558.385l3.331.969,27.733,97.217,29.722-4.806,5.568,6.048-36.663,6.5Z" transform="translate(-980.495 -435.985)"/><path class="m" d="M1143.433,624.772l-29.722,4.806-2.91-10.2Z" transform="translate(-971.858 -408.992)"/><path class="e" d="M1060.1,627.655s11.789,12.783,18.738,14.644,20.476-8.687,22.586-11.541,0-3.351-1.738-3.1-5.833,3.475-5.833,3.475,7.943-12.409,5.833-14.4-12.362,12.162-12.362,12.162.945-17.871-1.164-17.995-7.2,15.808-7.2,15.808-6.577-16.924-9.555-16.924,1.614,17,1.614,17-11.541-5.088-13.775-4.592S1060.1,627.655,1060.1,627.655Z" transform="translate(-995.812 -413.236)"/><path class="o" d="M1071.783,589.79c2.592,7.692.033,15.5-5.716,17.435s-12.51-2.728-15.1-10.42-.033-15.5,5.716-17.435S1069.192,582.1,1071.783,589.79Z" transform="translate(-998.787 -426.892)"/><path class="l" d="M1176.206,518.653c-4.184,3.849-18.624,8.993-24.952,8.993-8.051,0-10.877,8.618-17.945,8.477-5.488-.113-7.22-4.577-7.716-6.562a11.613,11.613,0,0,0,2.633.769,14.846,14.846,0,0,0,7.91-1.134c6.653-2.653,9.913-8.041,11.311-9.61C1151.224,515.312,1162.646,514.967,1176.206,518.653Z" transform="translate(-965.311 -454.693)"/></g></g></g></svg>