<svg xmlns="http://www.w3.org/2000/svg" width="435" height="202.836" viewBox="0 0 435 202.836"><defs><style>.a{fill:#b4d5d9;opacity:0.3;}.b{fill:#5998f7;}.c,.d{fill:#fff;}.c,.f{font-size:19px;font-family:BPGArial, BPG Arial;}.e{fill:#4c81d1;}</style></defs><g transform="translate(-181.458 -167.944)"><rect class="a" width="435" height="202.836" rx="29.5" transform="translate(181.458 167.944)"/><g transform="translate(206.206 237.546)"><path class="b" d="M591.832,250.211h-317.1l-11.674,11.263H243.034l-12.51-10.846H215.871a7.452,7.452,0,0,1-1.239-.371,4.366,4.366,0,0,0-3.922,4.334v56a4.38,4.38,0,0,0,4.38,4.38H230.72l12.314,10.676h20.028q5.533-5.338,11.065-10.676h317.7a4.38,4.38,0,0,0,4.38-4.38v-56A4.38,4.38,0,0,0,591.832,250.211Z" transform="translate(-210.709 -250.211)"/><text class="c" transform="translate(31.607 39.645)"><tspan x="-20.072" y="0">glide</tspan></text><text class="c" transform="translate(151.69 37.767)"><tspan x="-19.533" y="0">secs</tspan></text><text class="c" transform="translate(189.784 37.767)"><tspan x="-7.997" y="0">to</tspan></text><rect class="d" width="53.813" height="45.053" rx="22.526" transform="translate(68.518 9.178)"/><rect class="e" width="169.655" height="45.053" rx="22.526" transform="translate(208.765 9.178)"/><text class="f" transform="translate(95.348 37.767)"><tspan x="-5.283" y="0">1</tspan></text><text class="c" transform="translate(284.752 37.767)"><tspan x="-60.609" y="0">mouse-pointer</tspan></text><path class="d" d="M628.673,285.022a1.5,1.5,0,0,1,1.455-2.239l4.687-.02,4.688-.021a1.5,1.5,0,0,1,1.475,2.225l-2.327,3.581-2.328,3.582a1.814,1.814,0,0,1-2.93.013l-2.36-3.56Z" transform="translate(-275.019 -255.219)"/></g></g></svg>