<svg xmlns="http://www.w3.org/2000/svg" width="342" height="394.519" viewBox="0 0 342 394.519"><defs><style>.a{fill:#f7a320;}.b{fill:#fefefe;}.c{fill:#fff;}.d{fill:#251f1f;}.e{fill:#1b1f29;}.f{fill:#fbfbfb;}.g{fill:#d7d9b4;opacity:0.49;}</style></defs><g transform="translate(-593.962 -429.763)"><g transform="translate(622.589 429.763)"><path class="a" d="M754.117,471.225l-57.535-6.092s-35.2,48.8-35.875,51.475,42.325,80.518,42.325,80.518l49.392,17.937s44.362-1.015,57.886-5.416,44.664-24.706,48.386-32.828,13.2-19.63,8.8-28.768-9.814-20.307-22-26.736-4.031-30-14.891-37.567-38.922-27.4-38.922-27.4Z" transform="translate(-574.903 -410.765)"/><path class="a" d="M842.153,535.246c-5.5-1.152-11.4-9.785-9.685-14.848,1.267-3.734-1.1-6.644-2.011-9.461-2.573-7.983-6.687-15.63-13.334-21.024-6.009-4.874-12.583-9.355-21.209-7.717-6.678,1.267-9.085,6.189-10.627,11.95.448,3.266,0,5.042-.005,8.986,1.569,8.667,4.132,16.789,10.313,23.568,2.04,2.238,3.158,5.308,6.135,6.8,1.092.547.484,1.342.127,2.217a21.482,21.482,0,0,1-3.652,6.64A87.981,87.981,0,0,0,775.5,541.2c-2.958.2-7.487-1.094-6.4,4.778-6.793-.346-12.595-3.577-18.505-6.443-.789-.382-1.5-.895-.816-2.447,1.992-4.547,1.74-8.957.856-14.167-1.824-10.731-8.031-18.114-14.894-25.332-6.742-7.093-20.346-8.651-28.6-3.374a15.261,15.261,0,0,0-5.363,6.529c-2.64,6.105-4.651,11.952-2.3,19.323a63.953,63.953,0,0,0,10.694,20.64c2.935,3.714,7.179,6.177,11.772,8.384-2.683,1.845-5.672,1.548-8.35,2.285-18.393,5.067-25.7,15.036-17.048,36,4.43,10.731,13.228,17.833,22.656,24.11,10.759,7.162,22.771,11.628,34.752,16.163-20.573-.4-40.12-5.006-58.311-14.717a87.328,87.328,0,0,1-33.987-31.515c-6.593-10.723-9.559-21.994-8.153-35.172a82.073,82.073,0,0,1,15.335-39.923c4.657-6.474,5.159-12.609,4.532-19.69-1.456-16.429-2.814-32.868-4.281-50.13l47.5,33.339c-.1-3.1-2.8-3.525-4.633-5.663,21.589-6.145,42.889-5.152,64.329-.369-3.738-2.778-8.245-2.747-12.411-3.8.163-.482.247-.96.334-.96,8.953-.021,14.214-6.4,20.11-11.669,4.269-3.811,8.5-7.673,13.272-11.99,2.11,9.985,4.448,19.326,5.956,28.8a21.749,21.749,0,0,0,8.591,14.574c15.349,12.245,26.349,27.427,29.238,47.451C841.8,529.2,841.9,532.234,842.153,535.246Z" transform="translate(-580.291 -425.742)"/><path class="a" d="M710.057,598.262c6.483,5.4,11.978,11.816,17.613,18.008,12.058,13.25,25.373,25.149,38.378,37.4,1.6,1.507,3.064,1.718,5.221,1.588,9.967-.607,20-1.1,29.744,1.75,7.318,2.143,13.883,5.361,15.65,13.924,1.586,7.678-.624,10.6-8.346,11.481-6.822.777-13.6.192-20.406.081-11.235-.183-22.219-2.38-33.332-3.51-2.136-.218-3.516-1.351-5.036-2.646-18.354-15.654-34.779-33.291-51.872-50.244-1.233-1.223-2.157-3.036-4.322-2.956l.06.06c-.76-3.434-3.954-4.775-6.1-7-1.889-1.955-4.007-3.695-6.063-5.483-1.1-.955-1.943-1.692-.569-3.235,3.806-4.273,2.934-8.938.658-13.526a46.759,46.759,0,0,0-9.25-12.276c-2.519-2.5-2.846-3.839.475-5.891,5-3.093,9.723-6.658,14.5-10.112a34.658,34.658,0,0,0,8.538-8.706c2.752-4.084,3.518-8.261.28-13.318,5.433,1.55,10.238,3,15.086,4.286a135.127,135.127,0,0,0,29.123,4.255,8.215,8.215,0,0,1,4.557,1.468,53.867,53.867,0,0,1,13.99,13.435c1.315,1.845,2.654,3.683,4.106,5.418,4.991,5.965,10.877,7.278,17.749,3.547,4.1-2.224,7.806-5.145,11.786-7.6,7.564-4.663,15.27-2.8,19.835,4.818,2.486,4.151,1.433,8.108-1.157,11.858-3.438,4.975-8.247,8.377-13.255,11.52a84.119,84.119,0,0,1-19.534,9.332,16.524,16.524,0,0,1-16.871-3.607c-5.754-5.116-10.6-11.247-17.2-15.426-1.708-1.08-.8-2.158-.137-3.424a36.379,36.379,0,0,0,2.944-7.36c-3.139,1.449-3.006,5.066-5.063,7.18-4.046-14.256-24.434-20.411-35.705-10.779-7.5,6.406-8.005,9.845-2.337,18.011C705.67,593.288,707.957,595.709,710.057,598.262Z" transform="translate(-568.164 -348.388)"/><path class="a" d="M727.3,608.555a4.629,4.629,0,0,1-1.831,2.586c-12.358,8.576-40.218,20.886-55.594,24.367,2.5,4.826,5.951,9.06,7.7,14.22,2.234,6.6,1.6,11.217-2.3,14.563a14.722,14.722,0,0,1-16.854,2.02,38.806,38.806,0,0,1-11.51-9.464c-8.444-9.685-15.249-20.283-17.264-33.3-1.327-8.573,5.214-15.556,13.2-12.651,8.952,3.256,15.9.3,23.35-3.4,3.594-1.787,7.5-2.94,11.28-4.77-19.954-.7-39.165-3.412-54.872-17.217.3-3.563.4-7.156.94-10.683.854-5.6,5-8.41,10.793-8.2a70.647,70.647,0,0,0,10.188-.814c1.1-.12.682-1.061.545-1.752,1.742.154,2.424,1.69,3.374,2.757a46.794,46.794,0,0,0,24.518,14.412,5.756,5.756,0,0,1,4.106,3.048,37.274,37.274,0,0,0,6.575,8.583c7.467,7.391,15.787,8.964,25.135,4.259,2.491-1.253,3.792-.821,5.8.825,4.3,3.515,7.594,8.235,12.772,10.68Z" transform="translate(-602.117 -333.81)"/><path class="a" d="M678.394,575.486c3.036,5.91,8.211,9.6,11.8,14.628,2.111,2.958,4.183,5.867,5.317,9.4,1.282,4,.1,7.187-2.908,9.747-7.65,6.508-18.328,6.543-25.653-.233-9.972-9.224-14.471-21.385-17.034-34.3-.847-4.264,2.033-7.7,5.476-9.788,9.222-5.584,17.03-13.02,25.814-19.157,7.47-5.219,15.446-5.67,23.642-1.879,6.356,2.942,7.7,7.81,3.81,13.636a34.379,34.379,0,0,1-8.619,8.65c-4.041,2.923-8.172,5.725-12.276,8.557C684.93,576.71,682.248,580.336,678.394,575.486Z" transform="translate(-582.713 -349.983)"/><path class="b" d="M651.515,577.843c.137.691.554,1.632-.545,1.752a70.629,70.629,0,0,1-10.188.814c-5.8-.207-9.939,2.6-10.793,8.2-.538,3.527-.641,7.12-.94,10.683-4.149-1.128-6.34-4.538-8.041-7.9-5.522-10.9-9.264-22.263-6.438-34.755a20.489,20.489,0,0,1,1.416-4.254c4.526-9.517,12.449-10.309,18.1-1.438C639.832,559.959,645.528,568.994,651.515,577.843Z" transform="translate(-608.554 -347.602)"/><path class="b" d="M697.623,588.148c-2.1-2.553-4.387-4.974-6.265-7.679-5.668-8.166-5.159-11.606,2.337-18.011,11.271-9.632,31.659-3.477,35.705,10.779-3.968,9.27-10.214,16.859-17.411,23.775-1.325,1.272-2.064,1.017-3.138-.2-2.591-2.945-5.317-5.775-7.925-8.706C699.734,586.76,698.7,585.933,697.623,588.148Z" transform="translate(-555.73 -338.274)"/><path class="a" d="M720.807,499.862a.822.822,0,0,1,.9.859C721.2,500.646,720.476,500.8,720.807,499.862Z" transform="translate(-532.014 -379.675)"/><path class="c" d="M730.622,496.1c9.672,4.067,18.565,8.854,28.237,12.921,7.95,1.684,17.922,2.393,23.861-3.252,5.336-5.073,13.207-6.2,18.514-11.055,3.587-3.282-11.136-10.282,3.349-6.616,2.351,1.627,5.785,2.268,8.134,3.9.543,1.807,12.034,3.563,12.576,5.37a27.382,27.382,0,0,1,13.288,1.356c12.564,4.7,18.609,18.486,19.523,29.013.936,10.793-3.451,19.021-5.965,23.59-7.841,14.25-19.883,21.036-32,27.659-9.111,4.981-38.728,20.639-74.841,14.371-3.189-.554-5.807-1.171-7.592-1.627a102.834,102.834,0,0,1-40.4-18.709c-13.749-10.606-18.27-19.986-19.523-22.778-2.462-5.486-6.807-15.165-2.711-23.863,2.779-5.9,8.135-8.566,15.455-12.2a71,71,0,0,1,25.219-7.05C720.444,503.689,725.922,499.535,730.622,496.1Z" transform="translate(-565.839 -388.82)"/><path class="d" d="M902.4,555.462a33.118,33.118,0,0,1,2.8,22.793c-.537,2.441.554,2.98,2.452,3.117,3.775.276,7.556.483,11.333.741.993.067,2.188-.427,3.275,2-5.463-.35-10.45-.514-15.393-1.066-1.8-.2-2.664-.045-3.323,1.749-6.954,18.932-21.277,30.575-38.831,38.941-19.381,9.236-40.12,12.6-61.3,13.978-1.19.077-2.373.233-3.871.382,3.2,4.268,6.033,8.494,9.329,12.319,4.5,5.231,6.658,5.409,12.336,2.306,3.945-2.157,7.492-5.029,11.364-7.338,9.6-5.725,20.475-2.9,26.3,6.68a15.472,15.472,0,0,1-1.828,18.013c-10,11.745-23,18.8-37.751,22.6-8.029,2.07-14.808-1.147-20.6-6.627-3.41-3.228-6.68-6.606-10-9.932-1.462-1.466-2.558-2.123-4.05.247a75.823,75.823,0,0,1-12.19,14.937c11.931,13.922,25.572,25.956,38.879,38.335,1.927,1.792,3.913,1.121,5.927,1.008,11.983-.669,23.859-.35,34.97,4.881,10.074,4.744,14.484,13.644,12.626,24.55-.729,4.274-2.969,7.038-7.256,8.254-8.173,2.32-16.528,2.075-24.8,1.487-12.063-.861-24.086-2.32-36.12-3.564a14.653,14.653,0,0,1-8.334-3.93c-17.327-15-33.187-31.5-49.229-47.8-2.308-2.344-3.842-2.495-6.664-.82-13.718,8.146-27.993,15.191-43.283,19.918-2.94.909-2.551,1.893-1.312,3.98,2.478,4.168,4.314,8.6,4.418,13.586.247,11.793-11.48,20.682-22.925,17.289-8.655-2.565-14.747-8.518-20.206-15.347-7.52-9.411-13.334-19.65-15.767-31.58-1.757-8.629,1.284-16,8.547-18.265,4.269-1.329,9.118-2.606,13.687-.691a10.227,10.227,0,0,0,9.372-.441c-3.647-1.843-7.58-1.918-11.213-3.009-22.076-6.62-37.346-19.968-42.068-43.241-1.888-9.3-1.584-18.752,3.918-27.108,6.052-9.193,16.631-9.564,23.541-1.036,4,4.938,6.97,10.532,10.268,15.921,6.582,10.755,13.541,21.164,26.495,26.373-1.018-3.583-1.86-6.832-2.868-10.032-2.611-8.288-.292-15.227,6.75-19.829,8.746-5.714,16.6-12.538,25-18.671a32.1,32.1,0,0,1,9.046-4.665c-1.151-2.273-3.518-3.069-5.255-4.5C695.076,601.194,684,588.32,679.3,570.946c-.514-1.9-1.617-2.141-3.354-2.018a123.3,123.3,0,0,1-22.673-.857c-1.322-.149-3.011.312-4.156-1.828a33.261,33.261,0,0,1,9.464.461c5.591.761,11.194.41,16.8.434,2.071.01,2.769-.523,2.546-2.91a103.665,103.665,0,0,1-.228-13.617c.094-2.474-.784-3.782-2.9-4.914-8.729-4.657-17.78-8.564-26.9-12.417,10.915,1.745,20.446,7.148,30.325,12.11a104.134,104.134,0,0,1,19.192-42.956,6.948,6.948,0,0,0,1.1-5.147q-2.533-30.314-5.137-60.622a9.8,9.8,0,0,1-.185-2.258c.194-1.2-.979-2.82.8-3.552,1.462-.6,2.543.4,3.678,1.2,13.341,9.32,26.776,18.5,40.005,27.976,3.774,2.7,6.959,2.056,11.223,1.176,9.543-1.967,19.318-3.727,29.157-2.6a54.957,54.957,0,0,0,19.719-1.564,11.362,11.362,0,0,0,5.058-2.778c8.393-7.647,16.874-15.193,25.365-22.731,3.062-2.719,4.019-2.4,4.835,1.565q3.786,18.37,7.486,36.76a11.748,11.748,0,0,0,4.538,7.343c17.548,14.011,30.27,31.115,33.067,54.131.363,2.992,1.809,4.305,4.2,5.538,6.913,3.568,13.13,8.057,17.55,14.63,1.171,1.742,2.4,2.16,4.547,1.653a58.115,58.115,0,0,0,17.135-6.807c.7-.427,1.541-1.394,2.268-.207.744,1.219-.676,1.421-1.253,1.792C916.527,551.814,909.811,553.983,902.4,555.462ZM653.62,660c-5.987-8.849-11.683-17.884-17.425-26.892-5.654-8.871-13.577-8.079-18.1,1.438a20.488,20.488,0,0,0-1.416,4.254c-2.826,12.492.916,23.851,6.438,34.755,1.7,3.359,3.892,6.769,8.041,7.9,15.707,13.805,34.918,16.521,54.872,17.217-3.779,1.829-7.686,2.983-11.28,4.77-7.448,3.705-14.4,6.659-23.35,3.4-7.99-2.9-14.531,4.079-13.2,12.651,2.015,13.018,8.819,23.616,17.264,33.3a38.806,38.806,0,0,0,11.51,9.464,14.722,14.722,0,0,0,16.854-2.02c3.9-3.347,4.533-7.966,2.3-14.563-1.749-5.161-5.2-9.394-7.7-14.22,15.376-3.481,43.235-15.791,55.594-24.367a4.63,4.63,0,0,0,1.831-2.586c2.165-.081,3.09,1.733,4.322,2.956,17.092,16.953,33.517,34.591,51.872,50.244,1.519,1.294,2.9,2.428,5.036,2.646,11.114,1.13,22.1,3.326,33.332,3.51,6.808.111,13.584.7,20.406-.081,7.722-.881,9.932-3.8,8.346-11.481-1.768-8.562-8.333-11.781-15.65-13.924-9.742-2.855-19.777-2.358-29.744-1.75-2.157.13-3.62-.081-5.221-1.588-13-12.247-26.32-24.146-38.378-37.4-5.636-6.191-11.131-12.607-17.613-18.008,1.075-2.215,2.111-1.389,3.3-.046,2.608,2.932,5.334,5.761,7.925,8.706,1.073,1.221,1.812,1.476,3.138.2,7.2-6.916,13.444-14.5,17.411-23.775,2.057-2.114,1.924-5.732,5.063-7.18a36.377,36.377,0,0,1-2.944,7.36c-.663,1.265-1.57,2.344.137,3.424,6.6,4.178,11.444,10.31,17.2,15.426a16.524,16.524,0,0,0,16.871,3.607,84.117,84.117,0,0,0,19.534-9.332c5.008-3.143,9.817-6.544,13.255-11.52,2.591-3.75,3.643-7.707,1.157-11.858-4.566-7.623-12.271-9.481-19.835-4.818-3.979,2.454-7.69,5.375-11.786,7.6-6.872,3.731-12.758,2.417-17.749-3.547-1.452-1.735-2.791-3.573-4.106-5.418a53.866,53.866,0,0,0-13.99-13.435,8.215,8.215,0,0,0-4.557-1.468,135.127,135.127,0,0,1-29.123-4.255c-4.849-1.286-9.653-2.736-15.086-4.286,3.239,5.058,2.472,9.234-.28,13.318a34.659,34.659,0,0,1-8.538,8.706c-4.773,3.455-9.492,7.019-14.5,10.112-3.321,2.052-2.994,3.395-.475,5.891a46.759,46.759,0,0,1,9.25,12.276c2.275,4.588,3.148,9.253-.658,13.526-1.373,1.543-.526,2.28.569,3.235,2.056,1.788,4.173,3.529,6.063,5.483,2.148,2.22,5.343,3.561,6.1,7-5.178-2.445-8.475-7.165-12.772-10.68-2.011-1.646-3.312-2.078-5.8-.825-9.348,4.7-17.668,3.132-25.135-4.259a37.272,37.272,0,0,1-6.575-8.583,5.757,5.757,0,0,0-4.106-3.048,46.794,46.794,0,0,1-24.518-14.412C656.045,661.695,655.362,660.159,653.62,660Zm218.9-120.737c-.252-3.013-.351-6.045-.784-9.032-2.889-20.024-13.889-35.206-29.238-47.451a21.749,21.749,0,0,1-8.591-14.574c-1.509-9.473-3.846-18.814-5.956-28.8-4.775,4.317-9,8.178-13.272,11.99-5.9,5.265-11.156,11.648-20.11,11.669-.087,0-.172.478-.334.96,4.166,1.056,8.674,1.025,12.411,3.8-21.44-4.784-42.74-5.776-64.329.369,1.829,2.138,4.53,2.558,4.633,5.663l-47.5-33.339c1.468,17.262,2.826,33.7,4.281,50.13.628,7.081.125,13.216-4.532,19.69a82.073,82.073,0,0,0-15.335,39.923c-1.406,13.178,1.56,24.449,8.153,35.172a87.328,87.328,0,0,0,33.987,31.515c18.191,9.711,37.739,14.318,58.313,14.717a218.551,218.551,0,0,0,26.265-.562c24.473-2.467,47.618-8.309,67.741-23.3a56.1,56.1,0,0,0,18.666-23.424c1.034-2.436.653-3.311-1.893-4.021s-5.418-1.128-7.8-3.69c3.412-.6,5.682,1.152,8.086,1.982,2.457.847,3.666.386,3.962-2.152.689-5.913.706-11.753-1.85-17.339-.84-1.84-1.72-2.747-4.094-2.261-1.975.4-4.254,1.4-6.479.053,1.039-1.6,2.529-1.279,3.787-1.576,1.116-.264,2.8.466,3.237-.892.447-1.406-1.043-2.375-1.946-3.318A45.451,45.451,0,0,0,872.521,539.267Zm-166.181,116c3.854,4.85,6.536,1.224,9.372-.732,4.1-2.832,8.235-5.634,12.276-8.557a34.377,34.377,0,0,0,8.619-8.65c3.892-5.826,2.546-10.694-3.81-13.636-8.2-3.791-16.172-3.34-23.642,1.879-8.784,6.136-16.592,13.572-25.814,19.157-3.443,2.085-6.323,5.524-5.476,9.788,2.563,12.911,7.062,25.072,17.034,34.3,7.324,6.776,18,6.742,25.653.233,3.011-2.56,4.19-5.744,2.908-9.747-1.133-3.535-3.206-6.445-5.317-9.4C714.551,664.863,709.377,661.175,706.34,655.265Z" transform="translate(-610.659 -429.763)"/><path class="e" d="M732.38,518.776c-6.366,12.134-18.879,15.64-31.273,8.511-3.367-1.936-6.3-4.622-9.439-6.964-8.3-10.279-14.316-21.437-12.482-35.225,2.075-15.6,15.429-22.817,29.149-15.172,14.961,8.34,24.417,20.7,24.1,38.826C732.377,512.092,732.4,515.434,732.38,518.776Zm-49.509-30.313c-.66,14.872,11.506,33.317,25.085,37.121,14.025,3.928,21.958-2.987,21.385-16.811-.621-14.971-8.442-26.625-21.358-34.294C695,466.767,683.544,473.317,682.871,488.463Z" transform="translate(-561.93 -403.259)"/><path class="e" d="M780.739,511.227c-6.3,12.734-11.772,14.9-26.557,10.5-15.642-9.288-25.653-22.352-26.039-41.089-.319-15.518,11.415-23.556,25.558-17.125,14.735,6.7,23.7,18.31,25.9,34.913A89.219,89.219,0,0,1,780.739,511.227Zm-3.782-6.719c.067-14.183-11.628-32.226-24.823-37.282-12.009-4.6-20.264.357-19.808,13.708.561,16.394,8.912,29.089,23.714,36.643C767.61,523.481,776.895,517.418,776.956,504.508Z" transform="translate(-526.717 -407.235)"/><path class="e" d="M754.2,502.255c-1.37,5.958-3.585,11.978-9.977,13.43-8.5,1.932-14.935-3.316-20.909-8.6a22.949,22.949,0,0,1-2.817-3.745c-.727-4.471,1.737-6.81,5.66-7.587a55,55,0,0,1,23.564.187C753.091,496.737,755.027,498.505,754.2,502.255Z" transform="translate(-532.267 -383.456)"/><path class="e" d="M700.932,519.87c0-1.19-.036-2.381.007-3.57.219-6.119,1.925-7.458,7.779-5.579a176.928,176.928,0,0,0,62.714,8.4c3.158-.146,6.315-.5,9.451-.921,6.666-.9,8.842,1.543,6.214,7.649-7.076,16.437-19.2,26.94-37.015,30.2-11.187,2.047-22.164,1.221-32.384-4.232C704.923,545,701.326,533.245,700.932,519.87Zm82.421,2.351c-3.071.264-5.606.526-8.147.693a183.559,183.559,0,0,1-65.9-7.547c-1.762-.537-4.4-2.7-4.441,1.682-.139,17,5.474,29.644,23.021,34.327a49.143,49.143,0,0,0,18.308,1.144C763.817,550.567,779.32,538.049,783.353,522.221Z" transform="translate(-546.166 -372.478)"/><path class="f" d="M681.209,486.64c.672-15.146,12.127-21.7,25.113-13.984,12.916,7.669,20.737,19.323,21.358,34.294.573,13.824-7.36,20.739-21.385,16.811C692.715,519.957,680.549,501.512,681.209,486.64Zm27.089,18.2c.636,3.535,2.224,6.474,6.371,6.4,4.172-.069,6.023-3.112,5.982-6.772-.041-3.731-2.2-6.546-6.273-6.507C710.217,498.007,708.71,500.979,708.3,504.843Z" transform="translate(-560.267 -401.436)"/><path class="f" d="M775.218,502.734c-.062,12.91-9.346,18.973-20.917,13.068-14.8-7.554-23.153-20.249-23.714-36.643-.456-13.351,7.8-18.311,19.808-13.708C763.591,470.508,775.285,488.551,775.218,502.734Zm-6.783-3.8c-.242-3.532-1.459-6.584-5.8-6.663-4.17-.075-6.124,2.64-6.28,6.448-.161,3.877,1.8,6.628,5.862,6.839C766.43,505.779,768.136,503.039,768.436,498.936Z" transform="translate(-524.979 -405.462)"/><path class="e" d="M697,492.94c.411-3.865,1.919-6.836,6.08-6.875,4.075-.039,6.232,2.776,6.273,6.507.041,3.661-1.811,6.7-5.982,6.772C699.222,499.415,697.634,496.476,697,492.94Z" transform="translate(-548.967 -389.533)"/><path class="e" d="M757.693,487.059c-.3,4.1-2.006,6.843-6.219,6.625-4.062-.211-6.023-2.963-5.862-6.839.156-3.808,2.111-6.524,6.28-6.448C756.234,480.475,757.452,483.527,757.693,487.059Z" transform="translate(-514.236 -393.584)"/></g><ellipse class="g" cx="155.643" cy="25.823" rx="155.643" ry="25.823" transform="translate(593.962 772.636)"/></g></svg>