<svg xmlns="http://www.w3.org/2000/svg" xmlns:xlink="http://www.w3.org/1999/xlink" width="663.145" height="488.96" viewBox="0 0 663.145 488.96"><defs><style>.a{fill:#eadff1;}.b{fill:#947dce;}.c{fill:#754994;opacity:0.49;}.d{fill:url(#a);}.e,.j{fill:#d8a35d;}.e{fill-rule:evenodd;}.f{fill:#ffc84f;}.g{opacity:0.3;}.h{opacity:0.5;}.i{fill:#d19442;}.k{opacity:0.15;}.l{fill:#999;}.m{fill:#ccc;}.n{fill:gray;}</style><linearGradient id="a" y1="0.5" x2="1" y2="0.5" gradientUnits="objectBoundingBox"><stop offset="0" stop-color="#ad75cb" stop-opacity="0"/><stop offset="0.047" stop-color="#aa70c9" stop-opacity="0.067"/><stop offset="0.294" stop-color="#9c59c0" stop-opacity="0.396"/><stop offset="0.521" stop-color="#9247b9" stop-opacity="0.659"/><stop offset="0.722" stop-color="#8a3ab5" stop-opacity="0.843"/><stop offset="0.888" stop-color="#8532b2" stop-opacity="0.957"/><stop offset="1" stop-color="#8430b1"/></linearGradient></defs><g transform="translate(-505.125 -345.629)"><path class="a" d="M869.05,796.82a481.831,481.831,0,0,1-254.118-26.4c-42.608-16.7-85.54-42.48-103.357-84.632-7.99-18.9-9.814-42.056,1.812-58.967,9.2-13.383,24.861-20.432,39.314-27.839,58.464-29.962,111.751-81.7,118.855-147.008,1.839-16.911.51-34.061,2.6-50.942s8.3-34.29,21.781-44.657c27.25-20.95,74.778-6.676,103.646,4.128,59.829,22.392,89.461,68.277,131.893,112.055,51.624,53.264,122.377,83.423,193,106.119,12.655,4.066,26.22,8.515,34.234,19.12,5.773,7.638,7.792,17.438,8.838,26.954,1.259,11.456,1.269,23.42-3.18,34.052-8.318,19.877-30.081,30.558-51,35.735-41.479,10.268-89.03,7.007-121.91,34.3-20.214,16.776-32.448,43.627-56.63,53.888C914.769,791.241,890.643,793.192,869.05,796.82Z" transform="translate(0)"/><path class="b" d="M765.466,548.522a47.752,47.752,0,0,0-5.636-21.58,46.866,46.866,0,0,0-18.958-19.821,55.124,55.124,0,0,0-29.985-6.825c-11.274.717-19.013,4.8-25.357,8.15a73.6,73.6,0,0,0-21.336,16.79c-.238.285-.478.553-.7.821q-.028.948-.056,1.894c-.01.166-.01.332-.018.5,0-.134-.01-.275-.01-.41-.019-.663-.037-1.318-.056-1.98a73.357,73.357,0,0,0-22.033-17.611c-.468-.253-.955-.505-1.442-.749-6.077-3.188-13.477-6.739-23.924-7.4a55.105,55.105,0,0,0-29.975,6.825,46.867,46.867,0,0,0-18.958,19.821,47.754,47.754,0,0,0-5.636,21.58c-.24,5.2-.679,14.676,4.875,25.1a48.277,48.277,0,0,0,27.413,23.56c19.463,6.612,37.255-.536,43.039-2.856A61.7,61.7,0,0,0,663.424,574a59.175,59.175,0,0,0,8.436,9.137,63.331,63.331,0,0,0,18.28,11.19c5.783,2.32,23.576,9.468,43.039,2.856a48.313,48.313,0,0,0,27.413-23.56C766.146,563.2,765.7,553.722,765.466,548.522Zm-125.389,1.633c-7.179,9.264-15.479,14.321-23.172,16.066-15.626,3.557-28.762-6.495-25.026-22.544,10.521-17.326,29.562-8.364,40.524-.97,1.266.853,2.423,1.68,3.452,2.446,3.075,2.3,4.957,4.032,4.957,4.032C640.563,549.516,640.325,549.84,640.077,550.155ZM711.365,566.5c-8.345-1.475-17.535-6.848-25.32-17.319,0,0,33.554-30.828,48.932-5.508a23.837,23.837,0,0,1,.643,5.35C735.62,561.446,724.557,568.847,711.365,566.5Z" transform="translate(10.433 28.723)"/><path class="c" d="M615.788,562.122a31.587,31.587,0,0,1-10.42,5.144c-9.263,2.557-24.034,1.941-32.472-7.1-8.226-8.8-5.059-19.835-4.811-20.641a23.886,23.886,0,0,1,10.383-13.043c10.071-6.2,21.869-4.008,26.514-3.14a46.016,46.016,0,0,1,26.3,15.268c-10.962-7.394-30-16.356-40.524.97C587.025,555.627,600.162,565.679,615.788,562.122Z" transform="translate(11.551 32.822)"/><path class="c" d="M689.1,562.122a31.6,31.6,0,0,0,10.42,5.144c9.264,2.557,24.035,1.941,32.472-7.1,8.226-8.8,5.059-19.835,4.811-20.641a23.886,23.886,0,0,0-10.383-13.043c-10.071-6.2-21.868-4.008-26.514-3.14a46.008,46.008,0,0,0-26.3,15.268c10.961-7.394,30-16.356,40.522.97C717.866,555.627,704.729,565.679,689.1,562.122Z" transform="translate(31.31 32.822)"/><path class="c" d="M651.955,526.862c-5.646,17.919-18.977,21.439-23.337,22.117.248-.315.486-.639.734-.97,0,0-1.882-1.728-4.957-4.032-2.021-4.932-3.14-12.222,4.957-16.452,7.105-3.716,3.682-13.16-.927-21,.487.244.974.5,1.442.75A73.358,73.358,0,0,1,651.9,524.881C651.918,525.544,651.936,526.2,651.955,526.862Z" transform="translate(21.893 29.899)"/><path class="d" d="M648.183,521.312c-.23.939-.478,1.846-.753,2.714q.028-.946.056-1.894C647.705,521.865,647.945,521.6,648.183,521.312Z" transform="translate(26.445 32.648)"/><path class="c" d="M695.356,558.826a3.778,3.778,0,0,1-4.2,1.4c-6.913-1.76-17.93-17.178-21.125-3.748-2.011,8.458-9.163,15.174-14.185,18.984a59.179,59.179,0,0,1-8.436-9.137c4.159-13.713,22.621-24.815,22.621-24.815C677.821,551.978,687.011,557.351,695.356,558.826Z" transform="translate(26.442 36.401)"/><g transform="translate(748.244 665.663)"><g transform="translate(15.977)"><path class="e" d="M741.109,625.441s-5.615-6.4-12.162-7.691c-3.892-.765-3.759-1.747-4.415-2.068-2.176-1.067-.2,3.135,3.083,4.327,2.669.969,3.989,5.652,5.575,6.7s6.374,3.044,7.613,2.458S741.109,625.441,741.109,625.441Z" transform="translate(-723.617 -615.51)"/></g><g transform="translate(0 5.802)"><path class="e" d="M760.872,633.275c-1.2-.457-13.666-8.639-20.571-9.563s-17.26-1.64-20.8-2.8c-4.161-1.37-5.294.259-.519,2.309,3.1,1.333,9.484,3.464,10.912,3.58.693.057-3.8-.735-8.666-1.954-5.174-1.3-10.773-3-11.071-2.081-.576,1.782,14.288,6.452,16.925,6.848a66.932,66.932,0,0,1-6.947-1.134c-3.128-.688-6.694-1.952-7.43-1.328-1.16.984,6.674,4.435,13.215,5.617.107.218-2.033.464-9.708-1.462-.772-.193-2.766.065-.268,1.347,5.262,2.7,7.324,4.25,15.085,4.811,7.569.548,16-.668,21.374,1.384Z" transform="translate(-710.144 -620.403)"/></g></g><g transform="translate(784.354 551.855)"><path class="b" d="M749.741,661.269c6.067,2.373,50.112,10.451,90.543,1.571,25.518-5.594,49.584-17.957,61.761-42.772,31.464-64.145-42.057-100.531-42.057-100.531a1.328,1.328,0,0,0-.11.175c-3.186,4.813-71.717,107.631-119.269,123.677C740.609,643.389,739.851,657.389,749.741,661.269Z" transform="translate(-740.596 -519.537)"/></g><g transform="translate(980.457 655.682)"><path class="f" d="M913.792,617.788a8.924,8.924,0,0,0,5.244,1.894c11.87-.787,63.127-4.313,90.754-8.3,9.748-1.406,16.552-2.868,17.646-4.293a1.034,1.034,0,0,1,0,.113c.059,1.537.689,19.133,1.431,42.206,1.467,45.545,11.737,110.075,18.907,129.313,1.547,4.152-62.6,3.177-62.6,3.177-4.2-46.771-6.826-129.289-10.011-132.725-3.873-4.179-3.314,68.555-4.6,129.57-24.618,8.735-64.838,8.176-64.6,5.556C908.806,753.175,913.792,617.788,913.792,617.788Z" transform="translate(-905.967 -607.093)"/><g class="g" transform="translate(54.742)"><g transform="translate(0 9.41)"><path d="M952.705,615.029h-.575S952.333,615.027,952.705,615.029Z" transform="translate(-952.13 -615.028)"/></g><g class="h" transform="translate(0.575)"><path d="M952.615,616.5c15.357-.095,48.507-5.118,48.507-5.118,9.748-1.406,16.552-2.868,17.646-4.293a1.034,1.034,0,0,1,0,.113c.059,1.537.689,19.133,1.431,42.206a11.582,11.582,0,0,1-1.619-.047,12.53,12.53,0,0,1-8.565-5.042,27.815,27.815,0,0,1-3.7-6.285C993.081,617.379,957.539,616.522,952.615,616.5Z" transform="translate(-952.615 -607.093)"/></g></g><g transform="translate(16.676 3.922)"><g transform="translate(0 4.705)"><rect class="b" width="170.255" height="1.099" transform="translate(0 170.247) rotate(-89.453)"/></g><g transform="translate(16.186 6.703)"><rect class="b" width="167.306" height="1.099" transform="translate(0 167.297) rotate(-89.399)"/></g><g transform="translate(33.625 5.359)"><rect class="b" width="1.099" height="165.907" transform="translate(0 0.005) rotate(-0.28)"/></g><g transform="translate(48.699 4.011)"><rect class="b" width="1.099" height="34.255" transform="translate(0 0.105) rotate(-5.491)"/></g><g transform="translate(65.442 2.586)"><rect class="b" width="1.099" height="168.746" transform="translate(0 0.074) rotate(-3.864)"/></g><g transform="translate(79.812 1.237)"><rect class="b" width="1.099" height="170.135" transform="translate(0 0.089) rotate(-4.65)"/></g><g transform="translate(94.036 0)"><rect class="b" width="1.099" height="171.141" transform="matrix(0.995, -0.104, 0.104, 0.995, 0, 0.115)"/></g></g><g transform="translate(7.13 18.031)"><path class="b" d="M912.023,633.266c.914-.036,91.639-3.6,115.085-9.906l-.285-1.061c-23.328,6.272-113.93,9.834-114.843,9.87Z" transform="translate(-911.98 -622.298)"/></g><g transform="translate(6.426 41.561)"><path class="b" d="M941.791,647.927a107.749,107.749,0,0,0,32.537-4.739l-.334-1.047c-30.686,9.78-62,1.251-62.312,1.163l-.3,1.059A126.588,126.588,0,0,0,941.791,647.927Z" transform="translate(-911.386 -642.141)"/></g><g transform="translate(68.57 36.06)"><path class="b" d="M985.213,643.649c9.923,0,21.925-1.109,32.913-5.115l-.377-1.033c-24.2,8.825-53.46,3.416-53.753,3.361l-.205,1.079A128.677,128.677,0,0,0,985.213,643.649Z" transform="translate(-963.791 -637.502)"/></g><g transform="translate(5.861 55.256)"><path class="b" d="M941.193,659.394a124.83,124.83,0,0,0,30.745-3.955l-.27-1.065c-36.122,9.171-60.095-.585-60.333-.684l-.425,1.014C911.075,654.773,922.428,659.394,941.193,659.394Z" transform="translate(-910.91 -653.69)"/></g><g transform="translate(5.349 70.125)"><path class="b" d="M945.172,670.8c8.98,0,18.356-.854,26.33-3.407l-.334-1.046c-23.7,7.588-60.094-.039-60.46-.116l-.23,1.074A189.483,189.483,0,0,0,945.172,670.8Z" transform="translate(-910.478 -666.229)"/></g><g transform="translate(4.54 85.004)"><path class="b" d="M941.206,686.272a128.218,128.218,0,0,0,30-3.831l-.257-1.07c-40.827,9.832-60.36-2.469-60.553-2.595l-.6.92C909.937,679.789,920.19,686.272,941.206,686.272Z" transform="translate(-909.796 -678.776)"/></g><g transform="translate(3.888 101.331)"><path class="b" d="M939.685,699.405a86.09,86.09,0,0,0,31.485-5.838l-.4-1.023c-31.981,12.522-60.812.778-61.1.657l-.423,1.014A87.505,87.505,0,0,0,939.685,699.405Z" transform="translate(-909.246 -692.544)"/></g><g transform="translate(3.112 117.624)"><path class="b" d="M937.485,712.876a122.823,122.823,0,0,0,33.54-5.04l-.3-1.058c-40.439,11.482-61.372-.374-61.578-.494l-.556.948C908.732,707.315,918.515,712.876,937.485,712.876Z" transform="translate(-908.591 -706.284)"/></g><g transform="translate(2.408 130.946)"><path class="b" d="M935.647,725.727a90.691,90.691,0,0,0,35.394-7.2l-.427-1.013c-33.687,14.211-61.911,2.762-62.192,2.644L908,721.176C908.173,721.25,919.193,725.727,935.647,725.727Z" transform="translate(-907.998 -717.518)"/></g><g transform="translate(1.632 144.646)"><path class="b" d="M932.13,737.434c9.631,0,22.387-1.789,38.811-7.321l-.351-1.041c-44.884,15.117-62.386,1.651-62.558,1.514l-.69.854C907.8,731.81,915.056,737.434,932.13,737.434Z" transform="translate(-907.343 -729.071)"/></g><g transform="translate(0.959 158.349)"><path class="b" d="M935.023,748.1a104.814,104.814,0,0,0,35.824-6.438l-.375-1.034c-36.037,13.07-63,2.029-63.269,1.915l-.427,1.013C906.948,743.627,917.864,748.1,935.023,748.1Z" transform="translate(-906.776 -740.627)"/></g><g transform="translate(70.991 52.757)"><path class="b" d="M984.321,658.084c8.188,0,19.522-1.293,34.817-5.442l-.287-1.06c-39.185,10.626-52.268,2.138-52.4,2.052l-.623.906C966.16,654.766,971.207,658.084,984.321,658.084Z" transform="translate(-965.833 -651.582)"/></g><g transform="translate(72.712 66.844)"><path class="b" d="M985.166,669.453a130.8,130.8,0,0,0,33.946-4.93l-.286-1.061c-33.435,9.018-50.992,2.845-51.165,2.782l-.377,1.032C967.386,667.314,973.469,669.453,985.166,669.453Z" transform="translate(-967.284 -663.462)"/></g><g transform="translate(73.39 81.76)"><path class="b" d="M986.034,683.108c9.737,0,22.193-1.256,34.312-6.045l-.4-1.022c-25.066,9.905-51.6,4.516-51.86,4.461l-.225,1.076A99.583,99.583,0,0,0,986.034,683.108Z" transform="translate(-967.856 -676.04)"/></g><g transform="translate(74.129 95.46)"><path class="b" d="M989.555,696.106a71.285,71.285,0,0,0,32.405-7.534l-.5-.979c-26.291,13.354-52.365,4.622-52.626,4.532l-.358,1.039A71.91,71.91,0,0,0,989.555,696.106Z" transform="translate(-968.479 -687.593)"/></g><g transform="translate(75.042 110.439)"><path class="b" d="M987.641,707.748a103.085,103.085,0,0,0,36.113-6.494l-.387-1.029c-28.879,10.837-53.6,4.7-53.845,4.641l-.274,1.065A82.825,82.825,0,0,0,987.641,707.748Z" transform="translate(-969.249 -700.225)"/></g><g transform="translate(75.854 124.822)"><path class="b" d="M987.858,720.368c9.478,0,22.392-1.5,37.953-6.977l-.365-1.036c-33.845,11.914-54.94,4.847-55.15,4.774l-.362,1.038C970.05,718.206,976.48,720.368,987.858,720.368Z" transform="translate(-969.934 -712.354)"/></g><g transform="translate(76.927 138.851)"><path class="b" d="M994.1,732.452a84.409,84.409,0,0,0,34.017-7.261l-.441-1.007c-31.135,13.648-56.173,3.661-56.422,3.557l-.417,1.016C970.99,728.819,980.093,732.452,994.1,732.452Z" transform="translate(-970.839 -724.184)"/></g><g transform="translate(77.802 154.051)"><path class="b" d="M993.079,744.533a111.133,111.133,0,0,0,37.979-6.5L1030.68,737a112.064,112.064,0,0,1-58.841,4.384l-.262,1.066A100.866,100.866,0,0,0,993.079,744.533Z" transform="translate(-971.577 -737.002)"/></g></g><g transform="translate(969.454 484.454)"><path class="i" d="M905.043,464.378s2.686,13.2,12.738,17.942-18.275,5.456-18.275,5.456,1.2-13.77-2.178-21.095S905.043,464.378,905.043,464.378Z" transform="translate(-896.688 -462.699)"/></g><g transform="translate(951.002 448.947)"><ellipse class="j" cx="19.74" cy="14.468" rx="19.74" ry="14.468" transform="translate(0 36.838) rotate(-68.921)"/></g><g transform="translate(881.297 493.533)"><path class="b" d="M825.092,671.98c25.518-5.594,49.584-17.957,61.761-42.772.044.066.088.121.132.187.133.165.265.34.4.538a.593.593,0,0,1,.088.121c3.505,4.792,20.715,28.32,20.715,28.331,6.242,8.132,15.781,15.946,23.353,19.088.494.221,1,.407,1.462.572,18.561,2.9,95.862-26.474,105.071-33.814,4.154-3.308,5.78-18.814,6.109-35.628.417-20.495-1.066-42.969-2.153-47.7-1.846-7.946-38.343-95.851-95.609-90.291a58.785,58.785,0,0,0-14.9,3.495s-.429.451-1.187,1.122a28.194,28.194,0,0,1-5.176,3.681,21.964,21.964,0,0,1-5.286,2.121,16.2,16.2,0,0,1-10.8-.88c-3.584-1.6-11.539.275-21.2,5.671-13.419,7.484-30.156,21.76-43.068,42.86a1.33,1.33,0,0,0-.11.175,138.076,138.076,0,0,0-18.506,50.8A327.631,327.631,0,0,0,825.092,671.98Z" transform="translate(-822.346 -470.355)"/></g><g class="k" transform="translate(945.807 629.666)"><path d="M876.747,607.87c.043.068.092.121.136.189.13.167.263.345.389.537.034.036.057.075.094.121,3.506,4.791,20.707,28.328,20.709,28.339,6.246,8.124,15.782,15.944,23.36,19.082-8.613-13.749-34.481-53.334-39.211-70.984C884.8,602.76,876.743,607.859,876.747,607.87Z" transform="translate(-876.747 -585.154)"/></g><g class="k" transform="translate(946.816 502.773)"><path d="M911.442,482.407c.416,1.242,0,2.26-2.094,2.588-6.53,1.021-13.565,3.316-18.009,7.211a4.562,4.562,0,0,1-4.287,1.085c-3.872-.943-7.631-6.082-9.2-8.389a1.842,1.842,0,0,1-.251-.532c9.663-5.4,17.612-7.277,21.2-5.665a16.18,16.18,0,0,0,10.8.87A8.908,8.908,0,0,1,911.442,482.407Z" transform="translate(-877.598 -478.146)"/></g><g transform="translate(958.101 443.054)"><g transform="translate(0 3.852)"><g transform="translate(9.698 0.463)"><path class="f" d="M898.1,444.1s18.377,21.966,19.46-1.512C918.305,426.341,885.732,428.679,898.1,444.1Z" transform="translate(-895.292 -431.424)"/></g><path class="f" d="M904.92,440.506s-16.068,2.719-17.806,10.988c0,0,6.074-24.35,19.3-19.922s17.777,7.623,7.151,31.752C913.566,463.324,917.323,442.321,904.92,440.506Z" transform="translate(-887.114 -431.034)"/></g><g transform="translate(18.676)"><path class="f" d="M902.863,432.11s3.448-6.988,10.231-3.2,8.277,9.08,7.722,13.577-.716,7.969.31,8.364c0,0-4.262,1.89-4.893.47,0,0-.18,8.4-5.9,13.151,0,0,2.265-9.84-2.468-12.841S902.863,432.11,902.863,432.11Z" transform="translate(-902.863 -427.786)"/></g><g transform="translate(0.84 2.312)"><path class="f" d="M906.34,431.937s-3.942-5.052-11.836.149l-5.448,4.966s.631,1.422,3.076,1.186c0,0-3.719,6.865-4.31,11.321L895.6,438.4Z" transform="translate(-887.822 -429.735)"/></g></g><g transform="translate(961.597 574.496)"><path class="l" d="M895.985,614.036,979.6,648.258a9.533,9.533,0,0,0,12.426-5.2l23.353-57.072a3.151,3.151,0,0,0,.146-.413,9.5,9.5,0,0,0-5.358-12l-83.616-34.223a9.519,9.519,0,0,0-12.417,5.211l-22.277,54.421-1.084,2.646A9.517,9.517,0,0,0,895.985,614.036Z" transform="translate(-890.063 -538.63)"/><g transform="translate(1.235)"><path class="m" d="M897.021,610.978,980.638,645.2a9.518,9.518,0,0,0,12.417-5.21l22.277-54.422a9.5,9.5,0,0,0-5.358-12l-83.616-34.223a9.519,9.519,0,0,0-12.417,5.211l-22.277,54.421A9.5,9.5,0,0,0,897.021,610.978Z" transform="translate(-891.104 -538.63)"/></g><g transform="translate(57.237 46.142)"><circle class="n" cx="7.355" cy="7.355" r="7.355"/></g></g><g class="k" transform="translate(976.543 619.117)"><path d="M1015.8,589.345s-8.02-31.852-89.117,3.83,69.154,1.144,69.154,1.144Z" transform="translate(-902.666 -576.259)"/></g><g transform="translate(967.782 485.909)"><g transform="translate(0 153.965)"><g transform="translate(0 3.312)"><path class="e" d="M939.421,598.841c-1.1-.037-13.517-3.2-19.386-2.023s-14.483,3.49-17.682,3.531c-3.763.05-4.228,1.69.224,2.022a58.832,58.832,0,0,0,9.867-.14c.578-.147-3.293.464-7.588.833-4.566.392-9.592.574-9.578,1.4.03,1.609,13.413,1.251,15.666.835a57.186,57.186,0,0,1-5.961,1.021c-2.733.314-5.984.283-6.408,1-.668,1.123,6.662,1.738,12.308.872.147.147-1.523.944-8.3,1.524-.681.058-2.229.826.16,1.17,5.029.723,7.138,1.406,13.6-.306,6.3-1.67,12.812-5.013,17.753-4.848Z" transform="translate(-895.278 -596.555)"/></g><g transform="translate(10.766)"><path class="e" d="M921.268,597.078s-6.352-3.635-12.031-2.851c-3.376.465-3.543-.37-4.166-.448-2.066-.259.714,2.6,3.715,2.655,2.439.043,4.82,3.478,6.4,3.886s6.031.693,6.874-.13S921.268,597.078,921.268,597.078Z" transform="translate(-904.357 -593.762)"/></g></g><g transform="translate(21.978)"><path class="b" d="M987.963,468.98c25.134,11.825,43.78,24.211,68.531,75.878,12.557,26.213,19.638,54.061,22.839,68.907a17.89,17.89,0,0,1-7.33,18.422c-56.026,39.052-141.893.463-141.893.463-3.955-.262-.579-15.091-.579-15.091,34.25-10.614,60.89-17.421,91.412-15.065-.158-.023-41.949-42.322-49.715-55.116-20.354-33.553-60.99-55.715-57.166-72.39C915.383,469.221,962.612,457.052,987.963,468.98Z" transform="translate(-913.811 -463.925)"/></g></g></g></svg>