<svg xmlns="http://www.w3.org/2000/svg" width="621" height="351.294" viewBox="0 0 621 351.294"><defs><style>.a{fill:#f6c948;}.b{fill:#634f41;}.c{fill:#fcfcfc;}.d{fill:#d5d9b4;}.d,.l{opacity:0.49;}.e{fill:#ee5928;}.f{fill:#382d2c;}.g{fill:#e4e5e6;}.h{fill:#3f3f40;}.i{fill:#8f9193;}.j{fill:none;stroke-width:3.743px;}.j,.k{stroke:#000;stroke-linecap:round;stroke-miterlimit:10;}.k{fill:#fff;stroke-width:0.936px;}.l{fill:#d9d2b4;}</style></defs><g transform="translate(-461.232 -402.269)"><g transform="translate(833.632 426.026)"><path class="a" d="M875.26,490.288a63.151,63.151,0,0,0-2.832,8.49c-1.055,4.863,1.49,7.122,6.133,5.337,3.132-1.2,6.109-2.816,9.135-4.29a15.923,15.923,0,0,1,8.626-1.962q.247.543.5,1.086c.753,1.115-.257,1.885-.628,2.7-3.844,8.409-8.887,16.186-12.984,24.463-2.5,5.057-4.573,10.228-4.843,16.005-.262,5.6,3.124,9.493,6.043,13.556,5.591,7.777,10.058,16.024,11.757,25.563.195,1.089.25,2.2.424,3.808-2.261-1.1-4.207-1.9-6.01-2.951-4.768-2.774-10-4.418-15.082-6.435-4.755-1.887-9.655-2.11-14.638-1.893-2.512.109-3.8,1.547-3.818,4.218-.027,3.55,1.586,6.515,3.576,9.282,3.795,5.28,8.549,9.681,13.213,14.153,5.267,5.051,10.505,10.119,15.448,15.5,1.17,1.273.28,1.852-.144,2.506A87.275,87.275,0,0,1,869.4,641.476c-1.683,1.3-2.277,2.345-1.463,4.611a45.693,45.693,0,0,1,2.63,17.121,13.589,13.589,0,0,1-.857,4.391c-.814,2.141-2.135,3.763-4.593,4.005-2.412.238-3.1-1.727-4.041-3.308-5.413-9.112-12.357-16.659-21.948-21.5-5.288-2.668-10.612-1.725-16.116-.555A95.186,95.186,0,0,1,775.541,644c-13.239-3.923-25.063-10.372-34.491-20.649a59.633,59.633,0,0,1-15.662-34.779c-2.116-19.632,4.468-36.744,15.786-52.13,6.562-8.919,9.715-18.956,12.935-29.226,4.08-13.011,5.548-26.565,8.983-39.692a22.568,22.568,0,0,1,3.1-7.487c1.685-2.387,3.371-2.27,4.526.378,1.773,4.067,2.153,8.488,2.9,12.8.536,3.12.775,6.292,1.291,9.416.7,4.234,6.351,8.38,10.616,8.006,1.186-.1,1.786-.89,2.543-1.57,11.307-10.179,21.3-21.589,31.168-33.125,8.766-10.245,17.642-20.4,27.508-29.633a34.108,34.108,0,0,1,8.291-6.191c1.107-.536,2.279-1.3,3.38-.4,1,.821.558,2.171.254,3.188a95.808,95.808,0,0,1-6.878,16.276c-5.47,10.674-11.29,21.194-15.46,32.468-1.62,4.382-3.04,8.926-2.479,13.816.525,4.581,3.393,7.539,8.062,7.789,4.559.245,8.035-2.071,11.284-4.888,4.89-4.24,8.677-9.5,13.14-14.142a39.1,39.1,0,0,1,6.133-5.334,7.622,7.622,0,0,1,7.179-.865c.624.127,1.189.331,1.366,1.043C881.853,476.891,877.823,483.4,875.26,490.288Zm-58.42,107.147c5.511.088,13.134-5.317,12.9-13.078-.2-6.5-4.951-13.134-13.192-13.117-7.2.014-13.21,5.828-12.875,13.031C803.087,592.459,810.619,597.336,816.841,597.435Zm-63.2.413c8.787-.609,14.049-5.695,14.2-13.243A12.724,12.724,0,0,0,755.1,571.3a13.186,13.186,0,0,0-13.289,13.131C741.8,590.615,748.351,598.215,753.641,597.848Zm38.894,22.87a15.025,15.025,0,0,0,1.942-1.61,1.618,1.618,0,0,0,.256-2.47c-.7-.815-1.505-.558-2.264-.051-1.086.729-2.125,1.534-3.242,2.208a30.02,30.02,0,0,1-13.013,4.062,8.231,8.231,0,0,0-1.4.117c-1.088.293-2.757.036-2.551,1.869.182,1.622,1.589,1.577,2.84,1.552A37,37,0,0,0,792.535,620.718Z" transform="translate(-702.749 -417.57)"/><path class="b" d="M905.706,503.585c-.711,3.85-2.551,7.221-4.375,10.6-3.339,6.179-6.919,12.23-9.674,18.715-2.931,6.895-3.675,13.535,1.776,19.663a18.311,18.311,0,0,1,1.54,2.348A63.006,63.006,0,0,1,905,584.4a3.378,3.378,0,0,0,1.851,3.133A43.593,43.593,0,0,1,917,595.47c6.317,6.405,11.874,13.33,14.031,22.321,1.347,5.611,1.1,11-3.286,15.45l-.4-.4c3.166-4.614,2.834-9.615,1.236-14.549-5.168-15.962-14.8-27.872-30.958-33.9-7.64-2.852-15.215-5.84-23.348-6.981-2.373-.334-5.207-1.182-6.761,1.176-1.469,2.229.211,4.472,1.5,6.447a82.152,82.152,0,0,0,12.746,14.531c6.73,6.38,13.382,12.859,19.122,20.136,2.849,3.61,6.122,6.769,9.125,10.2.308.352.664.66,1,.989,4.412,4.354,9.226,6.741,15.267,3.117.072.084.142.168.212.253-5.009,4.047-9.513,4.2-14.5.322a32.9,32.9,0,0,1-4.484-4.234c-2.971-3.379-5.81-6.874-8.843-10.488a87.8,87.8,0,0,1-19.15,24.569c-1.152,1.007-.63,2.018-.368,3.06,1.594,6.366,2.086,12.755.253,19.149-.949,3.308-2.622,6.01-6.443,6.613-3.748.593-6.247-1.279-8.343-4.049-2.205-2.913-4.4-5.831-6.646-8.713a31.713,31.713,0,0,0-8.826-7.557c-.344,5.108-.548,9.8-2.322,14.207-1.418,3.527-3.522,6.347-7.314,7.658a1.773,1.773,0,0,1-2-.274c3.767-1.45,5.78-4.255,6.607-8.153a67.813,67.813,0,0,0,1.344-13.915c0-1.5-.709-2.231-1.882-3.091-3.922-2.877-7.789-2.383-12.137-.94-6.9,2.292-7.029,2.069-3.969,8.6,1.432,3.058,2.445,6.259,3.567,9.425,1.154,3.259,2.5,6.353,5.767,8.1-2.711.971-4.387-.537-5.792-2.509a22.345,22.345,0,0,1-2.593-6.2,47.455,47.455,0,0,0-5.476-11.756c-.751.9-1.338,1.611-1.933,2.313-5.036,5.934-9.969,12.024-16.957,15.813-6.145,3.332-10.179.878-10.485-6.137a60.535,60.535,0,0,1,.877-10.917c.385-2.793-.37-3.809-3.245-4.323-16.286-2.9-30.625-9.711-42.21-21.791a69.576,69.576,0,0,1-9.9-13.458c-.853,1.315-1.543,2.3-2.15,3.326a37.381,37.381,0,0,1-5.953,8.147c-3.16,3.055-6.936,3.785-10.079,2.017,4.528.326,7.536-2.267,10.158-5.434,2.086-2.521,3.848-5.286,5.681-8a4.692,4.692,0,0,0,.191-5.2,57.769,57.769,0,0,1-5.422-21.662c-.19-2.586-.521-5.166-.566-7.771-.01-.621-.114-1.5-.515-1.8-.652-.485-1.1.4-1.574.774-5.808,4.521-9.29,10.725-12.042,17.323a47.291,47.291,0,0,0-4.088,19.333c.1,4.831,1.8,8.63,5.66,11.482-3.417-.5-5.114-3.021-6.432-5.766-2.345-4.882-2.2-10.032-.865-15.119a57.735,57.735,0,0,1,17.693-28.763,6.882,6.882,0,0,0,2.575-4.644c2.119-17.341,8.944-32.76,19.487-46.588a12.157,12.157,0,0,0,2.131-4.5c3.778-14.786,7.411-29.6,10.2-44.614,1.11-5.983,2.829-11.864,6.639-16.835,1.673-2.183,3.791-3.8,6.7-3.31,2.967.5,4.519,2.7,5.47,5.4a54.165,54.165,0,0,1,2.974,15.387c.22,4.453,2.361,7.507,5.6,10.2,1.794,1.495,2.877,1.264,4.306-.528,11.1-13.922,22.889-27.26,34.6-40.658,7.644-8.741,15.327-17.467,24.439-24.764a22.591,22.591,0,0,1,8.286-4.617c3.732-.982,6.334.986,6.33,4.861a21.942,21.942,0,0,1-1.815,7.89c-2.813,7.263-6.5,14.111-9.909,21.094-5.163,10.578-11.076,20.853-13.364,32.628-.435,2.243-.628,4.373,1.16,5.976,1.958,1.755,4.336,1.535,6.622.6a20.978,20.978,0,0,0,7.192-5.282c4.442-4.691,8.781-9.48,13.267-14.129,2.421-2.508,5.141-4.752,8.713-5.363,2.44-.416,4.954-.506,6.639,1.936a7.622,7.622,0,0,0-7.179.865,39.1,39.1,0,0,0-6.133,5.334c-4.463,4.638-8.25,9.9-13.14,14.142-3.25,2.817-6.726,5.134-11.284,4.888-4.668-.25-7.536-3.208-8.062-7.789-.561-4.89.859-9.434,2.479-13.816,4.17-11.274,9.99-21.794,15.46-32.468a95.812,95.812,0,0,0,6.878-16.276c.3-1.017.747-2.367-.254-3.188-1.1-.9-2.273-.136-3.38.4a34.108,34.108,0,0,0-8.291,6.191c-9.866,9.232-18.742,19.388-27.508,29.633-9.87,11.536-19.861,22.946-31.168,33.125-.757.679-1.357,1.465-2.544,1.57-4.264.374-9.917-3.772-10.616-8.006-.516-3.124-.756-6.3-1.291-9.416-.742-4.315-1.122-8.736-2.9-12.8-1.155-2.648-2.841-2.765-4.526-.379a22.57,22.57,0,0,0-3.1,7.487c-3.435,13.126-4.9,26.68-8.983,39.692-3.22,10.27-6.372,20.307-12.935,29.226-11.319,15.386-17.9,32.5-15.787,52.13a59.634,59.634,0,0,0,15.662,34.78c9.428,10.278,21.252,16.726,34.491,20.649a95.186,95.186,0,0,0,47.469,2.24c5.5-1.17,10.828-2.113,16.116.555,9.591,4.842,16.535,12.389,21.948,21.5.938,1.581,1.629,3.546,4.041,3.308,2.458-.242,3.779-1.865,4.593-4.005a13.594,13.594,0,0,0,.857-4.391,45.692,45.692,0,0,0-2.63-17.121c-.814-2.267-.22-3.311,1.463-4.611A87.274,87.274,0,0,0,896.508,620c.423-.654,1.314-1.233.144-2.506-4.943-5.379-10.182-10.447-15.448-15.5-4.664-4.472-9.419-8.873-13.213-14.153-1.99-2.768-3.6-5.732-3.576-9.282.022-2.671,1.306-4.109,3.818-4.218,4.982-.217,9.883.006,14.638,1.893,5.086,2.017,10.313,3.661,15.082,6.435,1.8,1.049,3.75,1.851,6.01,2.951-.174-1.605-.229-2.719-.424-3.808-1.7-9.538-6.166-17.786-11.757-25.563-2.919-4.062-6.3-7.957-6.043-13.556.271-5.777,2.34-10.948,4.843-16.005,4.1-8.277,9.14-16.055,12.984-24.463.371-.814,1.381-1.584.629-2.7C905.774,500.479,906.021,501.878,905.706,503.585ZM807.475,652.513c-2.521-.136-5.041-.272-7.559-.45-1.155-.082-2,.166-2.319,1.438a86.3,86.3,0,0,0-2.416,13.5c-.142,1.614-.365,3.622,1.46,4.519,1.6.786,3.085-.3,4.4-1.158,6.006-3.89,10.855-9.054,15.54-14.374a16.734,16.734,0,0,0,3.341-4.42C815.6,651.976,811.566,652.733,807.475,652.513Z" transform="translate(-710.127 -418.147)"/><path class="a" d="M720.042,575.7c4.528.326,7.536-2.267,10.158-5.434,2.086-2.521,3.848-5.286,5.681-8a4.692,4.692,0,0,0,.191-5.2,57.771,57.771,0,0,1-5.422-21.662c-.19-2.586-.521-5.166-.566-7.771-.01-.621-.114-1.5-.515-1.8-.652-.485-1.1.4-1.574.774-5.808,4.521-9.29,10.725-12.041,17.323a47.289,47.289,0,0,0-4.088,19.333c.1,4.831,1.8,8.63,5.66,11.482C718.28,575.29,718.993,575.941,720.042,575.7Z" transform="translate(-709.267 -364.779)"/><path class="a" d="M799.225,598.532c3.768-1.45,5.78-4.255,6.607-8.153a67.824,67.824,0,0,0,1.344-13.915c0-1.5-.709-2.231-1.882-3.091-3.922-2.877-7.789-2.383-12.137-.94-6.905,2.292-7.029,2.069-3.969,8.6,1.432,3.058,2.445,6.259,3.567,9.425,1.154,3.259,2.5,6.353,5.767,8.1Z" transform="translate(-671.845 -342.161)"/><path class="b" d="M832.188,452.571c.847,7.815-3.183,14.325-5.746,21.212a63.132,63.132,0,0,0-2.832,8.49c-1.055,4.863,1.49,7.122,6.133,5.337,3.132-1.2,6.109-2.816,9.134-4.29a15.923,15.923,0,0,1,8.626-1.961c.147-1.9-1.478-1.644-2.479-1.836a11.788,11.788,0,0,0-7.328,1.417c-3.374,1.611-6.64,3.447-9.992,5.11-.629.311-1.164,1.495-2.134.51-.832-.845-.042-1.626.232-2.3,2.023-4.932,4.45-9.691,6.146-14.765,1.282-3.832,2.563-7.661,2.28-11.766C834.1,455.842,834.105,453.8,832.188,452.571Z" transform="translate(-653.932 -401.065)"/><path class="b" d="M854.8,563.054q.631-.509,1.263-1.016c-.133-.133-.268-.266-.4-.4a1.506,1.506,0,0,0-1.074,1.164C854.661,562.885,854.731,562.969,854.8,563.054Z" transform="translate(-638.442 -346.945)"/><path class="c" d="M790.467,520.852c8.241-.016,13,6.613,13.192,13.117.232,7.761-7.391,13.167-12.9,13.078-6.221-.1-13.753-4.976-13.165-13.165C777.257,526.68,783.266,520.865,790.467,520.852Zm7.423,12.646a9.081,9.081,0,1,0-8.941,9.158A8.851,8.851,0,0,0,797.889,533.5Z" transform="translate(-676.666 -367.183)"/><path class="c" d="M749.521,520.895a12.724,12.724,0,0,1,12.742,13.3c-.15,7.549-5.412,12.634-14.2,13.243-5.289.367-11.843-7.233-11.832-13.415A13.186,13.186,0,0,1,749.521,520.895Zm7.091,12.458a8.992,8.992,0,0,0-9.332-8.84,9.122,9.122,0,0,0-8.844,9.342,8.985,8.985,0,0,0,9.368,8.781A8.829,8.829,0,0,0,756.612,533.352Z" transform="translate(-697.173 -367.163)"/><path class="b" d="M759.433,561.12a36.945,36.945,0,0,0,17.429-5.672,15.048,15.048,0,0,0,1.942-1.61,1.618,1.618,0,0,0,.256-2.47c-.7-.815-1.505-.558-2.264-.051-1.086.729-2.125,1.534-3.242,2.208a30.02,30.02,0,0,1-13.013,4.062,8.237,8.237,0,0,0-1.4.117c-1.088.293-2.758.036-2.551,1.869C756.777,561.2,758.184,561.15,759.433,561.12Z" transform="translate(-687.077 -352.301)"/><path class="a" d="M874.265,581.326a1.505,1.505,0,0,1,1.074-1.164c3.166-4.614,2.834-9.615,1.236-14.549-5.168-15.962-14.8-27.872-30.958-33.9-7.64-2.852-15.215-5.84-23.348-6.981-2.373-.334-5.207-1.182-6.761,1.176-1.469,2.229.211,4.472,1.5,6.447a82.139,82.139,0,0,0,12.746,14.531c6.73,6.38,13.382,12.859,19.122,20.136,2.849,3.61,6.123,6.769,9.125,10.2.308.352.664.66,1,.989C863.41,582.564,868.224,584.95,874.265,581.326Z" transform="translate(-658.119 -365.47)"/><path class="a" d="M791.75,574.153c-4.33.41-8.361,1.167-12.452.947-2.521-.136-5.041-.272-7.559-.45-1.155-.082-2,.166-2.319,1.438a86.3,86.3,0,0,0-2.416,13.5c-.142,1.614-.365,3.622,1.46,4.518,1.6.786,3.085-.3,4.4-1.158,6.006-3.89,10.855-9.053,15.54-14.374A16.734,16.734,0,0,0,791.75,574.153Z" transform="translate(-681.949 -340.734)"/><path class="b" d="M788.228,541.439a8.851,8.851,0,0,0,8.941-9.158,9.081,9.081,0,1,0-8.941,9.158Z" transform="translate(-675.946 -365.966)"/><path class="b" d="M747.075,541.437a8.829,8.829,0,0,0,8.808-9.284,8.992,8.992,0,0,0-9.332-8.84,9.122,9.122,0,0,0-8.844,9.342A8.985,8.985,0,0,0,747.075,541.437Z" transform="translate(-696.444 -365.963)"/></g><ellipse class="d" cx="135.825" cy="22.535" rx="135.825" ry="22.535" transform="translate(810.582 708.494)"/><g transform="translate(466.744 402.269)"><path class="e" d="M559.324,427.417l2.119-2.781c2.294.212,2.986-1.671,4.032-3.087,3.82-5.175,6.022-11.156,8.213-17.115.548.18.943.187,1.131.389,1.118,1.2,2.189,2.443,3.272,3.676,10.879,12.374,22.333,23.96,37.154,31.869,12.474,6.657,23.767,15.19,34.935,23.871,15.3,11.9,26.263,26.537,29.879,45.905,1.142,6.108,2.906,12.284,1.255,20.13-4.113-7.9-7.927-14.4-10.976-21.243-7.1-15.936-19.589-24.869-35.99-29.453-11.711-3.274-23.465-2.02-35.24-1.372-15.809.869-30.123,6.262-43.09,15.16-5.837,4.005-11.181,8.817-14.5,15.158-1.414,2.7-2.627,2.9-4.742,1.469-.479,1.384.208,1.967.6,2.656,10.571,18.55,14.485,38.207,9.476,59.208-3.48,14.6-18.777,25.22-33.449,23.209,3.194-5.282,6.286-10.607,7-16.651,2.9-24.653-2.672-47.439-17.073-67.568-6.534-9.133-14.709-17.232-27.94-14.476-.13.027-.361-.419-.651-.775,4.361-5.475,10.328-8.479,16.786-10.493,8.892-2.771,16.014,1.591,23.163,6.212-3.2-4.486-7.346-7.718-12.627-8.686-4.121-.756-4.186-2.618-2.4-5.306,8.6-12.9,17.925-25.145,31.295-33.63a166.565,166.565,0,0,1,23.654-12.039C556.531,430.832,559.309,430.536,559.324,427.417Z" transform="translate(-460.043 -401.195)"/><path class="f" d="M564.2,428.492c-.015,3.118-2.793,3.414-4.712,4.239a166.561,166.561,0,0,0-23.654,12.039c-13.37,8.485-22.693,20.732-31.295,33.63-1.791,2.687-1.725,4.55,2.4,5.306,5.28.968,9.429,4.2,12.627,8.686-7.149-4.622-14.271-8.983-23.163-6.212-6.458,2.014-12.425,5.018-16.786,10.493.29.356.521.8.651.775,13.231-2.756,21.406,5.343,27.94,14.476,14.4,20.129,19.973,42.914,17.073,67.568-.711,6.045-3.8,11.37-7,16.651,14.672,2.011,29.969-8.614,33.449-23.209,5.009-21,1.1-40.658-9.476-59.208-.392-.688-2.445-2.572-.6-2.656,2.114,1.435,3.328,1.233,4.742-1.469,3.317-6.341,8.661-11.153,14.5-15.158,12.966-8.9,27.28-14.29,43.09-15.16,11.775-.648,23.529-1.9,35.24,1.372,16.4,4.584,28.889,13.517,35.99,29.453,3.049,6.842,6.863,13.343,10.976,21.243,1.65-7.846-.114-14.023-1.255-20.13-3.616-19.369-14.575-34.009-29.879-45.905-11.168-8.681-22.461-17.214-34.935-23.871-14.822-7.909-26.275-19.5-37.154-31.869-1.083-1.233-2.155-2.476-3.272-3.676-.189-.2-.584-.21-1.131-.389-2.19,5.959-4.393,11.94-8.213,17.115-1.046,1.415-1.739,3.3-4.032,3.087,4-6.711,7.93-13.45,10.049-21.076.857-3.081,2.425-2.967,4.438-.726,4.493,5.009,9.336,9.721,13.614,14.9,10.319,12.5,24.659,19.409,37.96,27.737,22.348,13.994,41.863,31.186,57.708,52.2,12.9,17.112,15.631,36.419,9.187,56.912A27.937,27.937,0,0,1,688.2,570.875a8.5,8.5,0,0,0-2.7,2.761c-8.705,16.11-22.886,24.685-39.944,29.549-10.263,2.927-20.558,5.641-31.165,6.915-2.439.293-2.98,1.109-2.532,3.4,1.071,5.47,1.947,10.979,2.9,16.475a12,12,0,0,0,2.687,5.171,27.77,27.77,0,0,1,5.344,13.554c.744,5.711-4.975,12.3-11.37,7.809-2.768-1.944-4.481-1.456-5.59,1.731a3.816,3.816,0,0,1-1.492,1.921c-6.914,4.068-6.791,11.374-8.371,17.908-.637,2.636-.108,4.118,3.043,3.717a9.538,9.538,0,0,1,3.9.28,3.511,3.511,0,0,1,2.487,3.8c-.067,1.958-1.338,2.382-3,2.425q-17.719.469-35.438.989c-2.832.085-2.75-1.852-2.556-3.669.522-4.884,1.143-9.758,1.831-14.623.187-1.326.383-2.379-.59-3.631-13.313-17.135-11.326-39.555-.86-52.384,1.807-2.216,3.92-4.411,4.671-7.465-9.522-4.165-19.478-7.213-27.94-13.376a3.725,3.725,0,0,0-4.112-.2c-27.29,13.233-46.136.271-58.471-19.487-8.97-14.365-14.181-30.309-14.006-47.5.208-20.488,13.806-39.359,32.848-43.211a4.713,4.713,0,0,0,3.637-2.762c11.118-21.664,27.731-37.549,50.217-47.137Q557.907,431.156,564.2,428.492Zm117.49,63.178c-.2-.191-.549-.573-.585-.545-.564.429-.214.717.2.973.775,2.322,1.5,4.662,2.333,6.963,3.53,9.791,6.151,19.9,5.181,30.271-.678,7.257,1,13.882,2.375,21.674a40.607,40.607,0,0,0,1.357-3.98c2.385-11.379,1.945-22.823.362-34.22C691.757,504.489,688.47,497.1,681.688,491.669ZM541.6,592.19c13.6,7.254,27.055,13.595,41.848,16.6,3.773.766,7.456,2.036,9.66,5.316,1.5,2.232,2.554,1.7,4.207.548a40.617,40.617,0,0,1,17.712-6.764c15.6-2.309,30.964-5.786,45.289-12.6,20.367-9.686,32.365-32.579,26.98-52.766-4.118-15.435-11.795-29.553-21.077-42.43-9.212-12.781-23.35-17.953-38.48-19.081-23.347-1.74-45.883,1.285-65.732,15.269-5.977,4.212-11.195,9.087-14.7,15.616-.956,1.782-1.574,3.277-.426,5.416a74.222,74.222,0,0,1,8.244,27.131C557.047,561.914,557.134,579.072,541.6,592.19Zm-17.72-24.722a95.373,95.373,0,0,0-5.446-30.019c-4.291-12.48-10.123-24.167-20.522-32.936-8.838-7.453-16.431-7.248-23.829,1.544-6.986,8.3-7.863,18.614-6.64,28.784a101.1,101.1,0,0,0,10.568,33.494c6.534,12.908,15.495,23.318,30.358,27.327,4.537,1.224,7.144-.072,9.449-3.594C523.387,583.552,523.877,573.97,523.879,567.468Zm67.9,118.666c-3.257-2.544-5.846-1.519-8.056-2.081-1.471-.374-3.92-.091-3.328-2.536.925-3.814,1.318-7.882,3.564-11.516,1.263,1.381.839,2.557.661,3.642-1.3,7.909-1.293,7.8,6.389,9.2,1.625.3,1.83.045,2.092-1.394.892-4.9,1.954-9.779,3-14.914-9.149,2.584-9.149,2.584-12.282.961.462-.262.85-.658,1.27-.694,17.314-1.489,26.625-13.559,18.442-32.106-.383-.868-.951-2.488-.673-2.686,3.637-2.585,2.478-6.607,3.081-9.932.512-2.823,1.577-6.91-.688-8.189-2.455-1.386-5.648,1.686-8.216,3.292-2.553,1.6-4.617,4.332-5.479-1.323-.323-2.123-2.57-3.277-4.779-3.8-3.821-.913-7.689-1.679-11.44-2.826-2.71-.83-4.3.156-5.834,2.21-4.981,6.652-8.941,13.831-10.448,22.042-1.161,6.333-1.083,12.791,1.383,18.885,1.752,4.327,6.7,4.855,9.372,1.17a13.159,13.159,0,0,0,1.96-5.511c1.052-5.718.57-11.452.347-17.192-.037-.994-.592-3.432.567-2.9,1.421.655,2.627.64,3.254-.827a29.771,29.771,0,0,1,1.76-3.262,7.3,7.3,0,0,1,1.8-1.917.3.3,0,0,1,.195-.084c.1.008.166.108.2.2.362.875-.214,1.829-.723,2.626-4.007,6.28-4.83,13.842-4.987,21.127-.2,9.238-2.716,11.2-11.715,12.612a11.716,11.716,0,0,0,4.328,6.749c1.456-1.185.123-3.942,2.744-4.079,1.245,1.04.329,2.144.156,3.2-1.039,6.307-2.2,12.6-3.088,18.924-.206,1.465-1.154,4.011,2,3.9C575.881,686.86,583.145,686.505,591.776,686.134Zm17.6-74.372c-2.511,11.038-2.957,29.713-.862,38.83.66,2.876,3.235,4.008,5.7,4.816a4.547,4.547,0,0,0,5.289-1.614c2.374-3.1.419-13.656-3.268-15.014-2.147-.792-2.249-1.971-2.533-3.5C612.271,627.578,610.867,619.871,609.379,611.762Zm79.488-45.18c10.411-8.2,15.22-36.445,7.893-46.817C697.242,536.3,695.555,551.849,688.867,566.582ZM601.3,685.821a.836.836,0,0,0,.033-1.622c-2.336-.6-4.363-.1-6.284-.374-.817-.117-1.7,0-1.728,1.115-.03,1.091.823,1.366,1.661,1.3C596.948,686.092,598.969,686.385,601.3,685.821ZM696.352,515.4l-.422-.76c-.138.244-.383.488-.385.73s.24.5.373.753Z" transform="translate(-464.916 -402.269)"/><path class="g" d="M516.167,566.222c15.535-13.117,15.448-30.276,13.524-47.744a74.223,74.223,0,0,0-8.244-27.131c-1.147-2.14-.53-3.634.427-5.416,3.506-6.529,8.723-11.4,14.7-15.616,19.849-13.984,42.385-17.009,65.732-15.269,15.13,1.128,29.268,6.3,38.48,19.081,9.283,12.876,16.96,26.995,21.077,42.43,5.385,20.187-6.613,43.079-26.98,52.766-14.325,6.812-29.691,10.289-45.289,12.6a40.616,40.616,0,0,0-17.712,6.764c-1.653,1.154-2.707,1.685-4.208-.548-2.2-3.28-5.886-4.55-9.66-5.316C543.222,579.816,529.766,573.475,516.167,566.222Z" transform="translate(-439.485 -376.301)"/><path class="h" d="M523.195,535.329c0,6.5-.492,16.084-6.063,24.6-2.3,3.522-4.912,4.818-9.449,3.594-14.863-4.008-23.824-14.419-30.358-27.327A101.1,101.1,0,0,1,466.757,502.7c-1.222-10.17-.346-20.483,6.64-28.784,7.4-8.792,14.991-9,23.829-1.544,10.4,8.769,16.231,20.456,20.522,32.936A95.372,95.372,0,0,1,523.195,535.329Zm-17.711,1.578c.395-4-1.35-7.809-2.527-11.687a54.094,54.094,0,0,0-16.8-26.016c-5.491-4.677-10.831-2.737-12.965,4.119-1.174,3.772-.057,7.153.768,10.583,3.1,12.885,8.85,24.273,19.529,32.625,4.667,3.651,8.936,2.334,11.288-3.126A13,13,0,0,0,505.484,536.907Z" transform="translate(-464.232 -370.13)"/><path class="e" d="M560.8,617.594c-8.63.371-15.894.726-23.163.974-3.152.108-2.205-2.439-2-3.9.89-6.328,2.05-12.618,3.088-18.924.173-1.052,1.089-2.156-.156-3.2-2.621.136-1.288,2.894-2.744,4.079a11.717,11.717,0,0,1-4.328-6.749c9-1.412,11.515-3.374,11.715-12.612.175-8.076.606-15.472,5.325-22.208a3.044,3.044,0,0,0,.375-1.653c-2.229.337-2.922,9.5-7.053,6.162-1-.8-.757,1.74-.72,2.734.223,5.739.7,11.473-.347,17.191a13.158,13.158,0,0,1-1.96,5.511c-2.669,3.685-7.62,3.157-9.372-1.17-2.466-6.094-2.544-12.552-1.383-18.885,1.507-8.211,5.467-15.39,10.448-22.042,1.537-2.054,3.124-3.04,5.834-2.21,3.751,1.148,7.619,1.914,11.44,2.826,2.208.528,4.456,1.682,4.779,3.8.862,5.654,2.927,2.919,5.479,1.323,2.568-1.605,5.76-4.677,8.216-3.292,2.265,1.279,1.8,5.434,1.287,8.258-.6,4.128-.04,7.61-3.679,9.863-.29.18.29,1.818.673,2.686,8.183,18.547-1.128,30.617-18.442,32.106-.42.036-.808.432-1.27.694,3.133,1.623,3.133,1.623,12.282-.961-1.049,5.135-2.111,10.01-3,14.914-.262,1.439-.467,1.691-2.092,1.395-7.682-1.4-7.685-1.3-6.389-9.2a4.356,4.356,0,0,0-.014-2.672.668.668,0,0,0-1.2,0c-1.77,3.38-2.171,7.073-3.015,10.551-.593,2.445,1.857,2.162,3.328,2.536C554.95,616.075,557.538,615.05,560.8,617.594Z" transform="translate(-433.936 -333.729)"/><path class="e" d="M562.2,542.284c1.489,8.109,2.892,15.817,4.326,23.519.284,1.528.386,2.707,2.533,3.5,3.687,1.359,5.642,11.913,3.268,15.015a4.547,4.547,0,0,1-5.289,1.615c-2.464-.808-5.039-1.941-5.7-4.816C559.239,572,559.684,553.322,562.2,542.284Z" transform="translate(-417.733 -332.792)"/><path class="e" d="M609.924,462.019c6.781,5.431,10.068,12.821,11.225,21.138,1.583,11.4,2.023,22.841-.362,34.22a40.622,40.622,0,0,1-1.357,3.98c-1.374-7.792-3.052-14.418-2.374-21.674.969-10.376-1.652-20.48-5.182-30.271-.829-2.3-1.557-4.641-2.332-6.963C609.67,462.306,609.8,462.163,609.924,462.019Z" transform="translate(-393.151 -372.62)"/><path class="h" d="M614.594,527.615c6.688-14.733,8.376-30.278,7.893-46.817C629.814,491.17,625,519.418,614.594,527.615Z" transform="translate(-390.644 -363.302)"/><path class="e" d="M559.9,591.219a.481.481,0,0,1-.025.89c-2.835,1.019-5.2.594-7.48.768-.838.064-1.691-.211-1.661-1.3.03-1.118.911-1.231,1.728-1.115C554.695,590.774,557.071,590.052,559.9,591.219Z" transform="translate(-422.331 -308.904)"/><path class="h" d="M619.864,478.132l-.434.723c-.133-.25-.373-.5-.373-.753s.247-.486.385-.73Z" transform="translate(-388.428 -365.002)"/><path class="e" d="M609.706,462.629c-.417-.256-.768-.543-.2-.973.036-.028.383.353.586.543C609.962,462.343,609.835,462.487,609.706,462.629Z" transform="translate(-393.316 -372.801)"/><path class="f" d="M503.365,527.088a13,13,0,0,1-.709,6.5c-2.352,5.46-6.621,6.776-11.287,3.126-10.678-8.352-16.427-19.74-19.529-32.625-.824-3.429-1.942-6.811-.768-10.583,2.134-6.856,7.474-8.8,12.965-4.119a54.094,54.094,0,0,1,16.8,26.016C502.016,519.279,503.761,523.092,503.365,527.088Zm-7.723,3.661c1.246-1.821,5.333,3.53,5.054-1.92a52.5,52.5,0,0,0-17.566-37.194c-.887-.816-2.081-2.042-3.443-1.191-1.083.679-.525,2.108-.48,3.2.5,12.339,5.916,22.63,13.373,32.091,1.209,1.535,3.613,2.416,3.085,5.036-1.182.248-1.727-.609-2.418-1.315a61.742,61.742,0,0,1-11.135-16.107,47.089,47.089,0,0,1-5.042-23.935c-3.372,2.418-3.733,2.6-3.643,5.333.516,15.668,6.3,28.964,18.276,39.3,1.906,1.646,4.845,3.1,6.631,1.049C500.08,533.093,495.717,532.813,495.642,530.749Z" transform="translate(-462.113 -360.311)"/><path class="i" d="M492.86,529.664c.528-2.62-1.876-3.5-3.085-5.036-7.457-9.461-12.869-19.752-13.373-32.091-.045-1.089-.6-2.518.48-3.2,1.362-.851,2.556.376,3.443,1.191a52.5,52.5,0,0,1,17.566,37.194c.278,5.449-3.808.1-5.054,1.92Z" transform="translate(-459.308 -359.206)"/><path class="i" d="M494.7,529.891c.075,2.063,4.438,2.343,2.693,4.348-1.786,2.054-4.725.6-6.631-1.049-11.976-10.34-17.76-23.636-18.276-39.3-.09-2.737.271-2.915,3.643-5.333a47.089,47.089,0,0,0,5.042,23.935A61.742,61.742,0,0,0,492.3,528.6c.691.706,1.236,1.564,2.418,1.315Z" transform="translate(-461.168 -359.453)"/><path class="f" d="M535.81,417.522a18.923,18.923,0,0,1-6.751,6.413l.907,1.911s4.318-1.547,8.095-8.515S535.81,417.522,535.81,417.522Z" transform="translate(-433.087 -396.308)"/><path class="j" d="M604.433,489.31c.687-7.143-5.075-13.07-11.43-12.9-5.944.163-11.169,5.629-10.845,12.311" transform="translate(-406.746 -365.479)"/><path class="j" d="M559.366,489.31c.687-7.143-5.075-13.07-11.43-12.9-5.945.163-11.169,5.629-10.845,12.311" transform="translate(-429.109 -365.479)"/><path class="k" d="M609.349,499.731c-1.193-.293-55.118,2.051-59.513,2.051,0,0,5.861,38.393,33.7,33.7S609.349,499.731,609.349,499.731Z" transform="translate(-422.778 -353.919)"/></g><ellipse class="l" cx="135.825" cy="22.535" rx="135.825" ry="22.535" transform="translate(461.232 707.639)"/></g></svg>