<svg xmlns="http://www.w3.org/2000/svg" width="528" height="324.166" viewBox="0 0 528 324.166"><defs><style>.a{fill:#b4d5d9;opacity:0.3;}.b{fill:#5998f7;}.c{fill:#fff;font-size:30px;font-family:BPGArial, BPG Arial;}</style></defs><g transform="translate(-397.497 -370.872)"><rect class="a" width="528" height="324.166" rx="29.5" transform="translate(397.497 370.872)"/><g transform="translate(518.388 468.371)"><path class="b" d="M772.915,442.98H589.229l-18.655,18H538.566l-19.994-17.333H495.153a12.062,12.062,0,0,1-1.98-.594,6.976,6.976,0,0,0-6.268,6.927v89.5a7,7,0,0,0,7,7h24.979l19.682,17.064h32.008l17.683-17.064H772.915a7,7,0,0,0,7-7v-89.5A7,7,0,0,0,772.915,442.98Z" transform="translate(-486.905 -442.98)"/><text class="c" transform="translate(147.674 63.189)"><tspan x="-123.669" y="0">if on edge, bounce</tspan></text></g></g></svg>