<svg xmlns="http://www.w3.org/2000/svg" width="993" height="369.282" viewBox="0 0 993 369.282"><defs><style>.a{fill:#0078d7;opacity:0.15;}.b{fill:#f1ede1;}.c{fill:#927dcc;}.d{fill:#fdc64f;}.e{fill:#dedbd0;}</style></defs><g transform="translate(-139.857 -453.604)"><g transform="translate(139.857 453.604)"><path class="a" d="M139.857,822.886h699.5c61.058-37.3,118.974-77.9,177.708-117.431,31.3-21.069,59.634-43.378,85.471-68.617,8.844-8.65,29.317-23.875,30.306-35.853.561-6.873-10.674-18.454-18.992-21.041-19.316-6.019-40.81,4.919-57.422,11.088-17.576,6.531-87.243,39.171-90.891,7.832-2.671-23.013,16.454-40.983,33.964-57.378,17.577-16.465,39.194-32.147,51.989-51.341,9.709-14.555,12.089-36.76-15.387-36.54-86.716.669-162.31,44.891-235.524,75.552-28.262,11.846-54.818,21.807-85.111,29.8-10.236,2.693-40.193,15.91-42.921,1.68-2.637-13.754,10.528-28.5,20.406-38.871,10.865-11.423,31.606-20.786,37.745-34.163,5.893-12.84-18.464-11.168-27.521-9.294-19.384,4.014-37.926,18.2-54.4,27.176C602.427,530.723,188.905,801.352,139.857,822.886Z" transform="translate(-139.857 -453.604)"/><g transform="translate(377.965 18.92)"><g transform="translate(-35.965 140.943)"><path class="b" d="M579.155,586.1H458.086a6.85,6.85,0,0,0-6.909,6.79v86.893a6.851,6.851,0,0,0,6.909,6.79H579.155a6.851,6.851,0,0,0,6.911-6.79V592.893A6.851,6.851,0,0,0,579.155,586.1Z" transform="translate(-451.177 -586.103)"/><g transform="translate(67.629 3.021)"><path class="b" d="M562.345,682.03a6.323,6.323,0,0,0,6.331-6.314v-80.81a6.323,6.323,0,0,0-6.331-6.314H506.881V682.03Z" transform="translate(-506.881 -588.591)"/></g><path class="c" d="M515.8,651.808,501.993,635.74c-1.783-2.076-6.243-2.076-8.026,0l-40.9,32.138c-1.784,2.075.446,4.669,4.012,4.669h61.635V655.194Z" transform="translate(-450.907 -575.811)"/><path class="c" d="M572.5,668.694l-25.123-44.678c-2.479-2.885-8.678-2.885-11.159,0l-19.2,22.339-9.929,11.552-.007-.008-.056-.066v17.353h60.629C572.617,675.186,574.981,671.579,572.5,668.694Z" transform="translate(-439.221 -578.45)"/><g transform="translate(26.66 28.67)"><path class="c" d="M473.136,619.131a9.5,9.5,0,0,0,9.577,9.411V609.718A9.5,9.5,0,0,0,473.136,619.131Z" transform="translate(-473.136 -609.718)"/><path class="c" d="M481.024,609.718v18.824a9.414,9.414,0,1,0,0-18.824Z" transform="translate(-471.447 -609.718)"/></g><path class="c" d="M463.182,682.528a6.305,6.305,0,0,1-6.344-6.267V596.071a6.305,6.305,0,0,1,6.344-6.266h55.577v-3.7H458.1a6.881,6.881,0,0,0-6.923,6.839v87.522a6.882,6.882,0,0,0,6.923,6.84h60.659v-4.776Z" transform="translate(-451.177 -586.103)"/><path class="c" d="M567.333,586.1H506.842v3.7h55.425a6.3,6.3,0,0,1,6.325,6.266v80.191a6.3,6.3,0,0,1-6.325,6.267H506.842V687.3h60.491a6.872,6.872,0,0,0,6.9-6.84V592.942A6.872,6.872,0,0,0,567.333,586.1Z" transform="translate(-439.261 -586.103)"/></g><g transform="translate(359.52 191.702)"><path class="b" d="M749.759,634.24l.635,87.413,11.054,4.955s121.209-1.9,121.209-2.16,5.675-8.131,5.675-8.131l-1.545-80.3-6.479-6.416H755.6Z" transform="translate(-746.78 -626.55)"/><path class="d" d="M789.907,642.961V701.18l47.819-27.515Z" transform="translate(-738.185 -623.69)"/><path class="c" d="M887.438,630.243a10.781,10.781,0,0,0-7.63-3.155H758.1a10.794,10.794,0,0,0-10.794,10.8v79.836a10.792,10.792,0,0,0,10.8,10.8h121.7a10.792,10.792,0,0,0,10.8-10.8V637.885a10.786,10.786,0,0,0-3.153-7.629Zm-2.655,87.474a4.966,4.966,0,0,1-4.975,4.979H758.1a4.972,4.972,0,0,1-4.976-4.977V637.888a4.972,4.972,0,0,1,4.976-4.979H879.8a4.972,4.972,0,0,1,4.98,4.977Z" transform="translate(-747.305 -627.088)"/><path class="c" d="M839.283,672.284,811.9,654.96l-.006,0-18.716-11.838a2.91,2.91,0,0,0-4.467,2.445l-.308,57.864a2.911,2.911,0,0,0,4.443,2.49l46.41-28.7a2.912,2.912,0,0,0,.023-4.934ZM794.257,698.2l.251-47.355,37.733,23.872Z" transform="translate(-738.506 -623.753)"/></g><g transform="translate(245.349)"><path class="b" d="M655.719,476.34l.635,87.413,11.054,4.956s121.209-1.906,121.209-2.16,5.676-8.132,5.676-8.132l-1.547-80.3-6.48-6.416h-124.7Z" transform="translate(-652.74 -468.65)"/><path class="e" d="M712.789,472.472v30.493l13.87,1.071-1.016,26.935-12.261.489v35.285l61.748.508,6.1-7.877V476.284l-5.59-5.506Z" transform="translate(-640.523 -468.848)"/><path class="c" d="M793.4,472.343a10.785,10.785,0,0,0-7.63-3.155H664.059a10.8,10.8,0,0,0-10.794,10.8v79.835a10.792,10.792,0,0,0,10.8,10.8H785.769a10.792,10.792,0,0,0,10.8-10.8V479.985a10.782,10.782,0,0,0-3.154-7.629Zm-2.655,87.474a4.968,4.968,0,0,1-4.975,4.98H664.063a4.974,4.974,0,0,1-4.977-4.976V479.99a4.974,4.974,0,0,1,4.977-4.98h121.7a4.972,4.972,0,0,1,4.98,4.978Z" transform="translate(-653.265 -469.188)"/></g><path class="c" d="M735.343,526.361V493.051l.016-.112-.016,0v0l-.034.006-32.41,4.34h0v26.32a10.534,10.534,0,0,0-4.231-.429c-4.761.461-8.327,3.852-7.967,7.568s4.513,6.362,9.273,5.9,8.331-3.851,7.97-7.573a.923.923,0,0,1,.009-.184V506.056l22.338-3.262v18.285a10.564,10.564,0,0,0-4.23-.432c-4.763.463-8.328,3.855-7.969,7.573s4.515,6.36,9.274,5.9,8.331-3.853,7.968-7.572A1.115,1.115,0,0,1,735.343,526.361Z" transform="translate(-399.908 -464.104)"/></g></g><circle class="d" cx="10.448" cy="10.448" r="10.448" transform="translate(507.73 641.102)"/></g></svg>