<svg xmlns="http://www.w3.org/2000/svg" xmlns:xlink="http://www.w3.org/1999/xlink" width="1366" height="771" viewBox="0 0 1366 771"><defs><style>.a,.k,.y{fill:none;}.b{clip-path:url(#a);}.c{fill:#000;}.d{fill:#d2c3db;}.e{fill:#eadff1;}.f{fill:#d8a35d;}.g{fill:#62548a;}.h{fill:#ffc84f;}.i{opacity:0.3;}.j{opacity:0.5;}.k{stroke:#947dce;stroke-width:1.499px;}.k,.y{stroke-miterlimit:10;}.l{fill:#947dce;}.m{fill:#d19442;}.n{fill:#999;}.o{fill:#ccc;}.p{fill:gray;}.q{opacity:0.15;}.r{fill:#b3b3b3;}.s{fill:#ce521f;}.t{fill:#ebebeb;}.u{fill:#8e96a3;}.v{fill:#4f3b65;}.w{fill:#d0d1d6;}.x{fill:#dfeddf;}.y{stroke:#313431;stroke-width:5.136px;}.z{fill:#728ad6;}.aa{fill:#5f73b3;}.ab{fill:#8fa0d6;}.ac{fill:#313431;}.ad{fill:#6c4e49;}.ae{fill:#4f3936;}</style><clipPath id="a"><rect class="a" width="1366" height="771" transform="translate(4366.046)"/></clipPath></defs><g transform="translate(-4366.046)"><g class="b"><rect class="c" width="1366" height="771" transform="translate(4366.046)"/><path class="d" d="M5732.046,9.537V768l-242.228-67.586-32.991-6.263,1.636-558.092,30.118-25.56Z"/><path class="d" d="M4682.343,125.471l-16.052,556.371-300.044,74.4V6.188l298.845,93.571Z"/><path class="e" d="M5064.024,89.071H4639.416V706.455h849.166V89.071Z"/><path class="c" d="M4366.047,60.78c121.656,30.38,335.7,73.888,615,80.372,352.971,8.194,622.428-47.1,751-78.7V0h-1366Z"/><path class="c" d="M4366.047,722.684c121.656-29.39,335.7-71.481,615-77.753,352.971-7.928,622.428,45.568,751,76.133v47.19L4366.247,771Z"/><path class="f" d="M4623.691,829.787s.416,192.9-7.772,195.44c-14.7,4.656-71.9,19.021-10.476,20.492,31.163,4.858,29.527-2.362,30.579-8.25.859-4.81,16.144-175.959,18.692-189.14.571-2.952.916-4.737.916-4.737Z"/><path class="f" d="M4737.5,829.228s12.139,191.784,20.354,194.239c14.748,4.5,72.1,18.247,10.7,20.378-31.109,5.193-29.551-2.045-30.666-7.92-.911-4.8-8.344-41.182-11.033-54.335-.6-2.946-22.506-151.631-22.506-151.631Z"/><path class="g" d="M4733.954,1023.988c-.656-2.718,18.986-4.532,21.442-2.526s42.4,5.943,42.85,17.633-54.687,8.284-58.586,8.419S4735.243,1029.329,4733.954,1023.988Z"/><path class="h" d="M4758.04,616.4a12.16,12.16,0,0,1-7.036,2.879c-16.216-.394-86.251-2.267-124.118-6.115-13.36-1.359-22.714-2.961-24.287-4.84,0,0,0,.055,0,.155.007,2.1.156,26.106.463,57.582.6,62.135-9.7,150.638-18.368,177.257-1.871,5.745,85.466.751,85.466.751,3.05-63.961,1.909-176.535,6.051-181.4,5.038-5.914,8.436,93.21,13.674,176.263,34.039,10.494,88.8,7.434,88.328,3.877C4772.573,800.564,4758.04,616.4,4758.04,616.4Z"/><g class="i"><path d="M4693.265,617.363c.264-.01.527-.019.784-.031C4694.049,617.332,4693.771,617.34,4693.265,617.363Z"/><path class="j" d="M4693.265,617.363c-20.928.748-66.379-4.2-66.379-4.2-13.36-1.359-22.714-2.961-24.287-4.84,0,0,0,.055,0,.155.007,2.1.156,26.106.463,57.582a15.6,15.6,0,0,0,2.2-.157c4.73-.664,8.459-3.414,11.38-7.358a37.9,37.9,0,0,0,4.686-8.775C4638.182,620.868,4686.558,617.669,4693.265,617.363Z"/></g><line class="k" x2="11.946" y2="231.853" transform="translate(4742.901 614.218)"/><line class="k" x2="11.956" y2="227.825" transform="translate(4720.785 617.874)"/><line class="k" x2="8.335" y2="226.077" transform="translate(4699.365 616.934)"/><line class="k" x1="2.518" y2="46.643" transform="translate(4676.216 616.028)"/><line class="k" x1="5.861" y2="230.028" transform="translate(4649.974 615.023)"/><line class="k" x1="8.995" y2="231.822" transform="translate(4627.14 614.014)"/><line class="k" x1="14.69" y2="232.905" transform="translate(4602.078 613.164)"/><path class="k" d="M4759.972,640.549s-124.6.411-157.192-6.9"/><path class="k" d="M4676.216,662.671c43.073,11.764,85.39-1.986,85.39-1.986"/><path class="k" d="M4676.815,659.748s-39.745,9.309-73.823-1.521"/><path class="k" d="M4763,677.7s-32.073,15.038-82.629,4.435"/><path class="k" d="M4764.684,697.963s-49.442,12.753-82.748,3.612"/><path class="k" d="M4766.379,718.095s-25.7,18.388-82.929,7.121"/><path class="k" d="M4768.363,741.254s-38.756,18.133-83.841,2.627"/><path class="k" d="M4770.223,762.471s-27.671,17.87-84.446,4.293"/><path class="k" d="M4772.186,784.224s-37.887,17.736-85.462-.025"/><path class="k" d="M4773.776,801.2s-22.774,20.056-86.019,1.67"/><path class="k" d="M4775.682,820.481s-36.15,17.063-86.853,1.045"/><path class="k" d="M4674.106,680.744s-17,12.824-72.117.331"/><path class="k" d="M4672.78,701.109s-23.487,9.721-70.317-.826"/><path class="k" d="M4672.909,723.781s-36.009,9.145-71.34-3.131"/><path class="k" d="M4672.6,742.565s-35.223,13.842-72.541-3.184"/><path class="k" d="M4672.275,763.188s-33.4,10.1-74.076-3.251"/><path class="k" d="M4671.937,782.995s-28.271,11.222-75.9-3.332"/><path class="k" d="M4671.169,800.5s-33.662,15.518-77.657-1.6"/><path class="k" d="M4671,822.412s-38,11.048-80.852-2.613"/><path class="g" d="M4638.7,1020.869c.627-2.725-23.21-1.45-25.644.581s-37.533,8.1-37.859,19.792,54.773,7.7,58.673,7.789S4637.472,1026.225,4638.7,1020.869Z"/><path class="l" d="M4770.631,625.644c-11.645,16.17-102.958,30.047-150.462,21.017a73.829,73.829,0,0,1-15.657-4.556c-4.5-1.982-8.868-7.146-13.03-14.748-31.676-57.9-51.287-257.209-28.438-268.558,25.843-12.844,72.558,1.468,72.558,1.468l17.359,22.491,83.757,50.016s19.424,72.148,29.824,128.537c.768,4.156,1.484,8.23,2.143,12.174C4772.982,599.328,4774.694,620,4770.631,625.644Z"/><path class="m" d="M4641.764,334.266c-.011,1.794,3.077,20.522,1.24,25.2s-12.446,8.1-11.719,8.883,15.071,15.592,28.4,11.805,5.778-11.805,5.778-11.805a27.567,27.567,0,0,1-6.86-21.352C4659.954,333.753,4641.764,334.266,4641.764,334.266Z"/><path class="l" d="M4804.347,611.02c-39.414,5.823-123.612-34.037-123.612-34.037l8.033-22.46s49.741,2.3,57.805,3.648c0,0-24.3-20.156-32.081-47.026-5.724-19.767-74.811-104.334-95.558-141.2-7.457-13.253,16.668-9.678,16.668-9.678s5.449,14.458,14.806,16.181a10.37,10.37,0,0,0,5.246-.41c12.543-4.178,13.041-9.455,13.041-9.455a240.083,240.083,0,0,1,31.36,5.168c16.269,3.742,36.082,10,52.341,20.265,34.032,21.5,57.81,88.355,61.8,111.806S4843.755,605.2,4804.347,611.02Z"/><path class="n" d="M4639.37,464.809l6.326,130.659a13.8,13.8,0,0,0,14.441,13.113l89.176-4.327a4.235,4.235,0,0,0,.631-.06,13.753,13.753,0,0,0,12.466-14.382l-6.325-130.659a13.781,13.781,0,0,0-14.443-13.1l-85.041,4.113-4.134.2A13.781,13.781,0,0,0,4639.37,464.809Z"/><path class="o" d="M4644.135,464.55l6.325,130.659a13.781,13.781,0,0,0,14.443,13.1l85.041-4.112a13.753,13.753,0,0,0,12.466-14.382l-6.325-130.659a13.781,13.781,0,0,0-14.443-13.1l-85.041,4.113A13.751,13.751,0,0,0,4644.135,464.55Z"/><circle class="p" cx="10.648" cy="10.648" r="10.648" transform="translate(4693.403 517.706)"/><ellipse class="f" cx="31.097" cy="22.792" rx="31.097" ry="22.792" transform="translate(4625.643 344.717) rotate(-87.597)"/><path class="h" d="M4659.025,297.128s-40.341,20.2-27.167-14.4C4640.973,258.788,4686.569,282.611,4659.025,297.128Z"/><path class="h" d="M4653.662,288.5s21.509,14.014,18.83,27.054c0,0,6.509-39-15.382-40.9s-30.472-.145-30.264,41.387C4626.846,316.045,4634.6,283.34,4653.662,288.5Z"/><path class="h" d="M4658.055,274.953s-.6-12.26-12.776-11.038-17.66,7.922-19.68,14.768-3.967,11.963-5.7,11.89c0,0,4.972,5.407,6.774,3.75,0,0-5.012,12.251.264,22.7,0,0,2.905-15.639,11.626-17.006S4658.055,274.953,4658.055,274.953Z"/><path class="h" d="M4656.952,274.8s8.866-4.826,17.006,7.645l4.754,10.595s-1.8,1.658-5.19-.217c0,0,1.065,12.253-.876,19.063l-4.24-21.011Z"/><path class="q" d="M4768.685,573.485a111.256,111.256,0,0,1-6.607,9.39c-.022.028.186,3.418.163,3.447-4.567,5.844-9.682,9.525-19.242,18.208-.088.079-2.651.111-2.738.191q-1.5,1.362-3.1,2.776c-29.648,26.3-83.893,35.615-117,39.164a73.829,73.829,0,0,1-15.657-4.556c-4.5-1.982-8.868-7.146-13.03-14.748l175.06-66.046,5.937-2.242S4775.618,562.411,4768.685,573.485Z"/><path class="q" d="M4585.884,393.319s30.788,35.842,49.811,72.14c1.429,2.727,9.426,22.995,9.442,23.05,12.333,42.976,18.431,107.157,18.431,107.157l-29.426-71.077Z"/><path class="f" d="M4776.854,564.856c-7.223,1-25.922,7.372-25.922,7.372l-3.722-11.542s8.884-5.52,11.339-8.507,3.776-5.533,5.807-7.1,7.36-2.9,7.36-2.9l.6.782.6.777.2-.018a19.734,19.734,0,0,0,2.868-.376c.179-.126,1.983,1.069,3.16,2.156a5.227,5.227,0,0,1,.89,1.016,8.394,8.394,0,0,0,2.671,2.216c.3.186.544.329.675.424s.52.461,1,.938c1.207,1.207,3.082,3.209,3.674,3.92.717.854,2.79,2.264,3.835,3.781a4.226,4.226,0,0,1,.425.765C4793.056,560.351,4784.077,563.852,4776.854,564.856Z"/><path class="l" d="M4618.036,437.38c0-1.921-16.113-90.246-50.6-80.792s-57.778,17.514-71.214,85.141,14.534,199.656,131.5,190.967,103.978-44.332,133.134-60.1l-5.623-22.3s-5.058,8.673-19.848,5.137-57.336-14.55-82.864-9.938c0,0-20.8-15.9-19.134-24.676s-10.174-70.137-21.272-84.917S4618.036,437.38,4618.036,437.38Z"/><path class="q" d="M4773.114,543.725a.879.879,0,0,1-.209.2c-.627.376-4.5,1.709-4.917,1.834s1.416-1.039,1.918-1.081a11.244,11.244,0,0,0,2.414-1.709l.6.777Z"/><path class="f" d="M4666.518,545.545c-.309-.362-4.681.812-5.075,1.077-2.1,1.413-3.281,3.58-5.8,3.89-.707.087-4.563.58-4.135-.918a6.008,6.008,0,0,1,2.323-3.132,1.463,1.463,0,0,0-.153.012c-.245.011-.8.051-1.606.148a49.731,49.731,0,0,0-7.345,1.52c-5.523,1.549-12.492-3.2-12.88-3.7s.462-1.224,3.1-1.89c.034-.012.063-.017.1-.029a83.874,83.874,0,0,1,8.318-1.258s-10.254-.194-16.056-.194a9.3,9.3,0,0,1-1.281-.085H4626a10.1,10.1,0,0,1-6.315-3.587.8.8,0,0,1,.585-1.313c1.779-.062,4.786-.2,7.034-.492,2.739-.353,10.374.6,13.255.985.7.091,1.122.154,1.122.154s2.465-.12-5.757-3.8-7.664-15.015-7.664-15.015a1.368,1.368,0,0,1,.729-.153c.923.028,2.648.746,4.891,4.708,3.388,6,9.782,7.846,10.574,9.782s6.855,5.546,6.855,5.546,3.3,1.429,5.039,1.947c1.241.371,1.5,2.124,1.549,3.092.011.285,0,.507,0,.6v.051a17.528,17.528,0,0,0,3.393-1.355C4662.874,541.264,4666.517,545.545,4666.518,545.545Z"/><path class="q" d="M4640.56,536.578c.7.091,1.122.154,1.122.154s2.465-.12-5.757-3.8-7.664-15.015-7.664-15.015a1.368,1.368,0,0,1,.729-.153,5.263,5.263,0,0,0-.119,2.226c.313,1.349,3.5,9.691,6.513,11.6s7.545,4.527,8.1,4.925S4641.926,537.034,4640.56,536.578Z"/><path class="q" d="M4654.783,539.522a5.1,5.1,0,0,0-2.8.41c-.872.637-5.165,1.2-6.434,1.509-.877.222-6.936.78-10.608,1.11.034-.012.063-.017.1-.029a83.874,83.874,0,0,1,8.318-1.258s-10.254-.194-16.056-.194a9.3,9.3,0,0,1-1.281-.085c5.494-.125,14-.359,15.4-.416,2.067-.079,5.961.632,7.311,0s4.446-1.668,5.084-1.349A3.047,3.047,0,0,0,4654.783,539.522Z"/><path class="q" d="M4657.9,543.439l-4.219,3.035c-.245.011-.8.051-1.606.148a4.2,4.2,0,0,1,1.344-2.078,14.746,14.746,0,0,1,4.481-1.7C4657.909,543.126,4657.9,543.348,4657.9,543.439Z"/><path class="q" d="M4700.055,371.751c-3.726,3.431-8.547,6.7-13.051,6.28-9.129-.872-15.641,1.738-23.436,6.082-5.091,2.838-10.374-3.01-13.16-7.665a10.37,10.37,0,0,0,5.246-.41c12.543-4.178,13.041-9.455,13.041-9.455A240.083,240.083,0,0,1,4700.055,371.751Z"/></g><path class="r" d="M5400.955,576.593H4994.18l59.124-70.949h300.352Z"/><rect class="r" width="18.92" height="163.183" transform="translate(5008.369 576.593)"/><rect class="r" width="13.007" height="192.745" transform="translate(5052.121 505.644)"/><rect class="r" width="13.007" height="192.745" transform="translate(5339.465 505.644)"/><rect class="r" width="18.92" height="163.183" transform="translate(5369.028 576.593)"/><path class="s" d="M5128.535,473.248h0a.517.517,0,0,1-.306-.664l.421-1.143.97.358-.421,1.143A.518.518,0,0,1,5128.535,473.248Z"/><path class="s" d="M5133.945,475.24h0a.519.519,0,0,1-.307-.664l.421-1.143c.029-.076.967.368.967.368l-.417,1.133A.517.517,0,0,1,5133.945,475.24Z"/><path class="t" d="M5128.431,473.024h0a.519.519,0,0,1-.307-.664l.461-1.251a.519.519,0,0,1,.664-.307h0a.521.521,0,0,1,.307.665l-.461,1.251A.518.518,0,0,1,5128.431,473.024Z"/><path class="t" d="M5133.83,475.012h0a.519.519,0,0,1-.307-.664l.461-1.251a.518.518,0,0,1,.664-.306h0a.519.519,0,0,1,.307.664l-.461,1.251A.518.518,0,0,1,5133.83,475.012Z"/><rect class="u" width="3.392" height="2.199" transform="translate(5127.129 484.964) rotate(20.217)"/><rect class="u" width="3.392" height="2.199" transform="translate(5128.579 481.327) rotate(20.217)"/><path class="v" d="M5283.208,553.588H5110.933a3.829,3.829,0,0,1-4.137-3.774v-2.582l18.857-34.845a6,6,0,0,1,5.375-3.333h131.834c2.46,0,7.885,4.846,8.984,7.046l15.557,31.714v1.139C5287.441,552.256,5285.306,553.588,5283.208,553.588Z"/><path class="w" d="M5283.223,549.94H5110.949c-1.913,0-5.062-1.678-3.879-3.74l18.6-37.46a6,6,0,0,1,5.376-3.333h131.833a6.494,6.494,0,0,1,5.809,3.591l18.41,36.84C5288.387,548.186,5285.322,549.94,5283.223,549.94Z"/><rect class="w" width="141.08" height="89.147" rx="5.158" transform="translate(5125.641 416.194)"/><rect class="c" width="130.196" height="77.247" transform="translate(5131.057 421.057)"/><path class="v" d="M5222.057,548.319h-50.762a.915.915,0,0,1-.9-1.06l2.141-13.37a1.486,1.486,0,0,1,1.468-1.252h45.785a1.307,1.307,0,0,1,1.293,1.118l1.962,13.446A.991.991,0,0,1,5222.057,548.319Z"/><path class="l" d="M5265.333,529.878H5127.41c-1.53,0-2.7-.588-2.455-1.237l5.815-15.609c.314-.842,2-1.461,3.989-1.461h124.4c1.763,0,3.259.555,3.513,1.3l5.331,15.7C5268.213,529.265,5266.958,529.878,5265.333,529.878Z"/><rect class="w" width="143.831" height="0.726" transform="translate(5124.56 514.26)"/><rect class="w" width="143.831" height="0.726" transform="translate(5124.56 517.893)"/><rect class="w" width="143.831" height="0.726" transform="translate(5124.56 522.251)"/><rect class="w" width="143.831" height="0.726" transform="translate(5124.56 526.246)"/><rect class="w" width="1.09" height="23.972" transform="translate(5141.979 508.474) rotate(17.439)"/><rect class="w" width="1.09" height="23.972" transform="translate(5152.512 508.474) rotate(17.439)"/><rect class="w" width="1.09" height="23.972" transform="translate(5160.865 508.473) rotate(17.439)"/><rect class="w" width="1.09" height="23.972" transform="translate(5169.219 508.474) rotate(17.439)"/><rect class="w" width="1.09" height="23.972" transform="translate(5177.936 508.473) rotate(17.439)"/><rect class="w" width="1.09" height="23.972" transform="translate(5186.781 508.201) rotate(10.978)"/><rect class="w" width="1.09" height="23.972" transform="translate(5194.295 508.086)"/><rect class="w" width="1.09" height="23.972" transform="translate(5250.658 508.8) rotate(-17.439)"/><rect class="w" width="1.09" height="23.972" transform="translate(5240.488 508.8) rotate(-17.439)"/><rect class="w" width="1.09" height="23.972" transform="translate(5230.318 508.8) rotate(-17.439)"/><rect class="w" width="1.09" height="23.972" transform="translate(5220.148 508.8) rotate(-17.439)"/><rect class="w" width="1.09" height="23.972" transform="translate(5209.979 508.8) rotate(-17.439)"/><rect class="w" width="1.09" height="23.972" transform="translate(5199.809 508.8) rotate(-17.439)"/><path class="x" d="M5659.375,218.075,5547.8,229.833V412.508s115.894,14.027,115.181,14.79,0-205.724,0-205.724l-.95-3.779Z"/><path class="y" d="M5659.375,218.075,5547.8,229.833V412.508s115.894,14.027,115.181,14.79,0-205.724,0-205.724l-.95-3.779Z"/><line class="y" y2="189.205" transform="translate(5600.093 227.291)"/><line class="y" x2="110.049" y2="5.538" transform="translate(5549.965 351.607)"/><line class="y" y1="3.213" x2="110.049" transform="translate(5549.965 286.091)"/><path class="z" d="M5636.573,206.85s-1.813.038,1.886,2.522c3.731,2.505,1.251-3.388,1.251-3.388l2.768.158s.891,1.205,1.748.736a5.94,5.94,0,0,1,2.6-.312l2,.62s1.05-3.507,1.689-2.529c.525.805,2.667-.371,4.305-1.047l2.06-.221c.873.429,1.424,1.425,2.331.388,1.233-1.41.04,2.505.618,1.51s1.971.274,2.785-2.365c.018-.058.036-.109.053-.157l.548-.06c.474,1.195.964,5.052,2.274,5.158,1.715.138,2.317-2.507,2.769-5.719l1.52-.174a9.108,9.108,0,0,1,.113,2.71c-.355,2.761,3.1,2.312,3.1,2.312s.1-2.917.62-3.64a18.246,18.246,0,0,1,2.519-2.136q1.333-.164,2.673-.334c.142.511.3,1.139.539,1.783.734,1.949.475,2.031,2.756,1.561s1.727,1.57,2.133-.251c.371-1.665.337-1.824.835-3.925q.743-.1,1.49-.211a33.161,33.161,0,0,0,1.334,3.146c1.623,3.215,2.818.717,4.8-1.63a30.026,30.026,0,0,0,1.952-2.738l.9-.147a2.094,2.094,0,0,1,.112.2c.72,1.391,1.788,3.811,3.561,2.525,1.409-1.023,1.855-3.184,2.151-3.719l.216-.039h0c.346.641.152,1.624,1.549,4.664s1.4.128,2.039-3.017a9.374,9.374,0,0,1,.963-2.5c.258-.05.514-.1.772-.149-.694,21.556-.776,32.584-2.844,56.79-2.059,24.1-6.121,62.123-8.862,87.9-.546,5.141-.732,1.861-.531,6.361.013.29.019.507.02.664.046.323.1.675.15,1.065,1.4,10.014,4.481,32.83,5.021,45.314.107,2.626.71,2.912,1.017,11.763.391,11.284.147,36.023.7,45.613s4.281,19.625-.956,20.275c-2.486.308-16.1-5.78-21.869-6.253-2.825-.231-5.757,2.874-11.035.544-7.509-3.315-6.309-5.489-9.167-6.322-.281-.082-.3-.168-.3-.2a.79.79,0,0,1-.206.2c1.1-8.009-1.152-7.1.536-16.68,1.693-9.622,6.814-23.175,7.64-34.793.487-6.846.854-15.079,1.054-20.914.167-4.873.667-5.024,1.123-8.911.114-.965.3-1.729.459-2.646.76-4.293,1.661-8.639,2.486-12.841.2-1.005.406-2.078.556-2.876.3-1.6.7-3.52.91-4.85a35.268,35.268,0,0,0,.4-7.732c-.019-.406-.056-.591-.086-.94s-.076-.661-.116-.981c-.02-.158-.047-.322-.065-.442-.035-.237-.1-.615-.133-.795a18.817,18.817,0,0,0-.464-1.906c-.16-.513-.171-.515-.324-.92-.57-.552-1.134-1.212-1.686-1.794-.217-.229-.445-.532-.7-.824-9.234-10.578-15.159-26.367-19.292-39.786-9.428-30.61-13.742-61.838-16.009-93.585l.365-.046Z"/><path class="aa" d="M5651.8,298.966c.192,3.669.165,4.177,1.169,7.216,3.26,9.872,10.991,20.277,16.431,28.969.2.318.479.718.634.967,1.3,2.082,2.751,4.545,3.839,6.542a5.835,5.835,0,0,1,.664,1.508,12.423,12.423,0,0,1,.394,2.853c.034.4.042.8.044,1.307.014,2.435-.207,4.994-.249,7.465v.02c-.021,1.87-.294,4.1-.437,5.849-.167,2.052-.291,3.666-.307,5.642,0,.017,0,.033,0,.046.015.452,0,.775.043,1.25.24,2.782.571,5.71.881,8.481.068.612.173,1.545.221,1.966.233,2.022.433,3.7.665,5.622.077-1.793.207-3.812.279-5.472s.042.057.12-2.352.619-8.588.587-11.827-.4-5.132-.646-8.764c-.147-2.16-.616-6.538-.879-9.279-.119-1.25-.281-2.874-.461-4.273-.3-2.353-.385-3.514-.735-6.161-1.765-13.355-3.236-27.4-6.516-40.363-.014-.057-.02-.082-.035-.145-.2-.835-.258-.989-.462-1.933-3.575-16.531-4.429-33.783-7.311-50.355-2.256-12.968-2.993-26.566-4.1-39.774-.9.318-1.828-.337-2.719.623.034,17.492-.164,41.946-.018,57.957C5653.039,278.221,5651.092,285.4,5651.8,298.966Z"/><path class="ab" d="M5673.092,376.964a9.4,9.4,0,0,0,.013,1.773c1.968,11.037-1.955-2.352,1.877,14.051,3.864,16.543,3.158,53.774,3.186,69.473-.129,8.533.188-6.213.091,3.455,7.058.84,14.284,3.879,21.477,6.454-.384-17.122-.9-32.275-.964-50.272s-2.554-39.3-5.417-57.792c-.829-5.356-.038-11.442.052-16.759.019-1.1.222-4.318.326-5.858,1.115-16.6,3.279-42.857,4.352-57.515,1.659-22.646,8.056-51.133,4.226-68.774-2.036-9.38-1.695-8.679-2.055-17.646-1.452,1.029-3.082.575-4.594,1.112-.51,2.564-.917,6.815-1.977,8.988-2.145,4.4-3.019,1.467-3.569-1.663-.235-1.341-.457-4.7-.6-6.378-2.772.349-5.524.826-8.262,1.209-.629,5.522-1.476,11.054-1.793,16.563,0,.005.011.022.01.03-.45,12.565-.713,25.694.051,37.89.765,12.217-1.978,18.3-2.353,31.872s.769,37.289,3.976,51.572a19.008,19.008,0,0,1,.418,3.61,12,12,0,0,1-.747,4.582,1.171,1.171,0,0,1-.07.165c-1.613,3.369-3.9,6.029-5.575,9.375a12.927,12.927,0,0,0-.522,1.247,22.617,22.617,0,0,0-1.011,3.453,34.84,34.84,0,0,0-.629,5.862c0,.056-.007.158-.005.2s0,.04,0,.052C5673.084,370.615,5672.893,373.541,5673.092,376.964Z"/><path class="aa" d="M5678.63,201.092c-3.06,1.137-6.373.154-9.234,2.2.591,16.94,2.363,46.975,4.209,61.246,2.167,16.758,2.716,22.256,3.562,34.66.848,12.427.334,21.072,2.213,32.5.734,4.467,1.058,6.759,1.73,10.652.385,2.231.411,2.682.7,4.629.012.08.011.111.018.16a49.2,49.2,0,0,1,.4,6.729c-.085,5.656-.1,16.081-.115,20.288s.165,1.906.2,3.637.03.187.081,1.418.176,2.685.231,4c2.15-.345,4.308-.81,6.487-1.006-.045-1.859-.032-.8-.095-3.062s.111,4.318-.057-1.481-1.263-23.019-1.868-29.429-.086-1.331-.479-6.109.516,6.842-.241-2.673-2.947-31.128-3.5-42.649.579-20.847.282-31.088-.85-23.216-1.2-31.737-1.111-10.785-1.485-16.321-.865-9.549-1.172-12.925S5678.9,203.546,5678.63,201.092Z"/><path class="ac" d="M5695.9,341.856c-8.25.472-16.373.694-24.347.966.452,1.365.841,2.757,1.247,4.143,7.273.122,14.7.57,22.2.411Q5695.448,344.617,5695.9,341.856Z"/><path class="ac" d="M5671.372,363.291c.737.235,1.552-.325,2.188-.792a4.17,4.17,0,0,0,.726-.794,3.688,3.688,0,0,0,.346-.548,10.011,10.011,0,0,0,1-3.434,34.236,34.236,0,0,0-.64-9.36c-.113-.614-.208-.992-.277-1.31-.131-.605-.158-.679-.281-1.175a2.015,2.015,0,0,0-1.419.111,1.125,1.125,0,0,0-.2.1,1.93,1.93,0,0,0-.237.129,8.152,8.152,0,0,0-1.8,1.564c-1.321,1.791-2.958,3.36-3.609,5.782C5666.185,357.216,5667.986,362.215,5671.372,363.291Zm-1.953-11.039a20.566,20.566,0,0,1,3.728-4.278c.582-.6.5-.375,1.006-.421.3,2.777.521,5.478.574,8.24v.017c-.065,1.811-.426,3.674-1.846,4.45a1.158,1.158,0,0,1-.964.154C5668.711,359.662,5667.947,354.825,5669.419,352.252Z"/><path class="ac" d="M5663.671,350.347c-.124,1.627,1.754.841,2.5.357s3.257-2.209,3.965-2.627.171-.072.676-.323,1.226-.528,1.789-.792c.041-.141.057-.224.095-.378s.082-.328.126-.507.082-.331.135-.543.127-.534.19-.766c-.149-.018-.163-.013-.343-.026s-.426-.021-.682-.032c-1.316-.057-3.656-.126-4.693.573C5665.941,346.282,5663.8,348.721,5663.671,350.347Zm3.318-3.8c.723-.639,3.74-1.736,5.139-.891-1.843,1.152-4.992,3.8-6.747,4.444S5666.267,347.18,5666.989,346.542Z"/><path class="ac" d="M5511.778,217.005c.007.151.019.293.036.426a2.783,2.783,0,0,1,2.52-2.723l196.361-25.591s2.892-.837,3.33,2.091c.026-.276.038-.565.038-.877-.014-3.838-3.386-2.856-3.386-2.856l-196.354,25.932S5511.616,213.522,5511.778,217.005Z"/><path class="ad" d="M5511.814,217.431c.351,2.985,2.792,2.19,2.792,2.19l196.071-24.257c1.287-.265,3.075-1.049,3.348-4.153v0c-.438-2.928-3.33-2.091-3.33-2.091l-196.361,25.591A2.783,2.783,0,0,0,5511.814,217.431Z"/><path class="ac" d="M5700.985,188.854a1.431,1.431,0,0,0-1.2-.606c-1.078.138-1.773,2.052-1.953,2.548-1.035,2.852-.364,6.524,1.182,6.743.334.047,1.007.124,2.048-.948.694-.025,1.316-.156,2.013-.182a3.973,3.973,0,0,1-1.5,2.028,3.512,3.512,0,0,1-3.992-.031c-.91-.679-1.082-1.7-1.318-3.09a8.142,8.142,0,0,1,.5-5.079c.356-.761,1.241-2.66,2.768-2.974,1.588-.326,2.683.925,2.562,1.385C5702.029,188.9,5701.489,188.765,5700.985,188.854Z"/><path class="ac" d="M5686.753,190.732a1.389,1.389,0,0,0-1.165-.6c-1.045.134-1.719,2.018-1.894,2.506-1,2.806-.354,6.424,1.146,6.642.324.047.977.124,1.986-.93.674-.023,1.276-.151,1.952-.175a3.89,3.89,0,0,1-1.456,1.994,3.365,3.365,0,0,1-3.871-.037c-.883-.671-1.05-1.675-1.279-3.046a8.129,8.129,0,0,1,.487-5c.346-.749,1.2-2.618,2.684-2.924,1.541-.318,2.6.916,2.486,1.37C5687.766,190.776,5687.242,190.646,5686.753,190.732Z"/><path class="ac" d="M5672.948,192.554a1.345,1.345,0,0,0-1.13-.592c-1.015.13-1.669,1.984-1.838,2.464-.975,2.762-.344,6.328,1.112,6.545.314.047.947.124,1.926-.912.654-.022,1.239-.147,1.894-.169a3.833,3.833,0,0,1-1.412,1.962,3.228,3.228,0,0,1-3.757-.045c-.856-.661-1.018-1.651-1.24-3a8.121,8.121,0,0,1,.472-4.926c.336-.736,1.168-2.576,2.6-2.874,1.494-.31,2.525.907,2.411,1.354C5673.93,192.6,5673.422,192.47,5672.948,192.554Z"/><path class="ac" d="M5659.55,194.322a1.3,1.3,0,0,0-1.1-.586c-.984.126-1.619,1.952-1.784,2.425-.946,2.719-.333,6.234,1.08,6.451.305.046.919.123,1.87-.9.635-.02,1.2-.142,1.838-.163a3.759,3.759,0,0,1-1.371,1.93,3.1,3.1,0,0,1-3.646-.05c-.831-.654-.989-1.629-1.2-2.96a8.11,8.11,0,0,1,.458-4.853c.326-.725,1.134-2.536,2.529-2.827,1.45-.3,2.451.9,2.34,1.339C5660.5,194.368,5660.011,194.24,5659.55,194.322Z"/><path class="ac" d="M5642.133,196.621a1.249,1.249,0,0,0-1.054-.578c-.947.121-1.558,1.91-1.716,2.373-.909,2.665-.32,6.112,1.038,6.328.293.047.884.124,1.8-.874.61-.018,1.156-.136,1.767-.155a3.675,3.675,0,0,1-1.318,1.889,2.928,2.928,0,0,1-3.5-.058c-.8-.642-.951-1.6-1.158-2.9a8.1,8.1,0,0,1,.44-4.757c.314-.711,1.09-2.484,2.432-2.766,1.394-.293,2.356.888,2.25,1.318C5643.05,196.668,5642.576,196.541,5642.133,196.621Z"/><path class="ae" d="M5636.391,197.378a1.23,1.23,0,0,0-1.041-.574c-.934.119-1.536,1.9-1.693,2.356-.9,2.646-.316,6.071,1.025,6.287.289.047.872.124,1.774-.866.6-.018,1.141-.135,1.744-.153a3.657,3.657,0,0,1-1.3,1.875,2.875,2.875,0,0,1-3.46-.06c-.789-.639-.939-1.59-1.143-2.887a8.1,8.1,0,0,1,.435-4.726c.309-.705,1.076-2.467,2.4-2.746,1.376-.29,2.325.884,2.22,1.312C5637.3,197.426,5636.828,197.3,5636.391,197.378Z"/><path class="z" d="M5566.47,215.336s1.538-.353-1.588,2.711c-3.1,3.04-1.046-2.836-1.046-2.836l-2.294.728s-.733,1.277-1.434,1.03a4.42,4.42,0,0,0-2.116.254l-1.613.964s-.839-2.921-1.348-1.916c-.418.824-2.11.215-3.394-.05l-1.6.223c-.674.552-1.1,1.537-1.8.808-.943-.986-.031,2.2-.473,1.444s-1.5.624-2.118-1.513c-.014-.047-.027-.088-.04-.127l-.414.057c-.357,1.131-.725,4.569-1.706,4.906-1.277.439-1.723-1.725-2.057-4.4l-1.119.147a9.321,9.321,0,0,0-.083,2.343c.261,2.3-2.26,2.55-2.26,2.55a10.221,10.221,0,0,0-.449-2.98,9.4,9.4,0,0,0-1.811-1.333q-.951.114-1.9.224c-.1.457-.209,1.014-.381,1.6-.517,1.771-.334,1.793-1.933,1.813s-1.2,1.618-1.484.175c-.256-1.318-.233-1.456-.576-3.11l-1.025.1c-.228.774-.516,1.79-.912,2.844-1.1,2.936-1.912,1.09-3.246-.483a17.158,17.158,0,0,1-1.3-1.886l-.6.043c-.024.053-.049.111-.075.179-.475,1.259-1.178,3.41-2.339,2.677-.917-.58-1.206-2.242-1.4-2.619l-.139.007h0a32.064,32.064,0,0,1-1,4.014c-.9,2.675-.9.339-1.3-2.065a6.9,6.9,0,0,0-.614-1.826c-.163.006-.326.013-.489.018.44,17.057.492,25.836,1.811,44.945,1.324,19.176,3.967,49.745,5.774,70.748.363,4.215.486,1.551.352,5.208-.008.236-.013.413-.013.541-.031.26-.064.544-.1.859-.925,8.053-2.948,26.252-3.3,36.265-.069,2.1-.461,2.255-.66,9.341-.254,9.022-.1,28.976-.451,36.576s-2.745,14.732.619,16.542c1.621.872,10.785-.666,14.82.429s10.556.331,14.9.43c.216,0,.231-.065.228-.091a1.068,1.068,0,0,0,.159.234c-.847-7.315.889-5.927-.413-14.773-1.3-8.815-5.165-21.661-5.782-31.847-.362-5.985-.635-13.137-.783-18.19-.123-4.217-.493-4.409-.831-7.806-.083-.843-.218-1.519-.338-2.326-.559-3.764-1.219-7.576-1.822-11.244-.144-.876-.3-1.81-.4-2.5-.219-1.39-.507-3.056-.661-4.205a35.693,35.693,0,0,1-.291-6.608c.013-.344.04-.5.062-.794s.055-.558.084-.828c.014-.133.034-.271.047-.373.025-.2.074-.517.1-.668.075-.5.241-1.243.337-1.6.116-.429.124-.43.235-.767.415-.442.826-.977,1.23-1.448.16-.185.326-.433.514-.672,6.912-8.79,11.489-22.573,14.751-34.541,7.661-28.108,11.273-57.193,13.2-86.871l-.311.038Z"/><path class="aa" d="M5554.015,300.425a19.846,19.846,0,0,1-.923,6.432c-2.549,8.736-8.456,17.7-12.5,25.017-.146.264-.352.6-.465.8-.948,1.724-2,3.754-2.793,5.4a5.119,5.119,0,0,0-.478,1.244,11.876,11.876,0,0,0-.283,2.4c-.025.333-.03.671-.032,1.1-.01,2.064.149,4.249.179,6.347v.014c.015,1.59.212,3.5.315,5,.12,1.757.21,3.139.221,4.818,0,.015,0,.028,0,.039-.011.383,0,.659-.032,1.058-.173,2.338-.411,4.788-.634,7.1-.049.511-.124,1.29-.159,1.641-.167,1.686-.31,3.082-.476,4.681-.056-1.527-.149-3.25-.2-4.662s-.03.043-.086-2-.442-7.321-.419-10.053.284-4.3.461-7.353c.106-1.816.442-5.489.63-7.794.085-1.052.2-2.419.331-3.6.219-1.982.277-2.962.529-5.194,1.278-11.308,2.349-23.282,4.763-34.459.01-.05.014-.072.025-.126.151-.725.192-.86.343-1.679,2.673-14.463,3.317-29.517,5.51-44.286,1.734-11.682,2.305-23.763,3.165-35.614.707.1,1.429-.669,2.13,0-.027,15.53.129,37.2.014,51.432C5553.038,282.051,5554.577,288.321,5554.015,300.425Z"/><path class="ab" d="M5537.9,367.3a9.3,9.3,0,0,1-.01,1.507c-1.419,9.128,1.421-1.782-1.353,11.694-2.755,13.38-2.255,44.852-2.274,58.068s-.134-5.279-.065,2.885c-4.934-1.12-9.843-.451-14.593-.168.25-13.731.589-25.864.628-40.4s1.678-31.492,3.579-46.279c.554-4.314.026-9.346-.035-13.7-.012-.9-.148-3.539-.217-4.8-.742-13.577-2.172-34.921-2.877-46.764-1.084-18.2-5.2-40.407-2.747-55.039,1.318-7.869,1.1-7.248,1.33-14.535.946.571,2.015-.088,3.012.075.338,2,.609,5.388,1.314,6.982,1.436,3.25,2.025.7,2.4-1.968.159-1.144.31-3.951.4-5.354,1.89-.222,3.786-.335,5.693-.526.441,4.51,1.037,9,1.261,13.576a.093.093,0,0,0-.007.026c.317,10.492.5,21.5-.036,31.831s1.4,15.239,1.667,26.668-.546,31.45-2.808,43.34a18.586,18.586,0,0,0-.293,3,12.2,12.2,0,0,0,.524,3.876,1.269,1.269,0,0,0,.048.142c1.136,2.927,2.763,5.322,3.958,8.275.12.3.25.68.375,1.1a23.719,23.719,0,0,1,.729,3.014,35.81,35.81,0,0,1,.455,5.042c0,.048,0,.135,0,.168a.379.379,0,0,0,0,.044C5537.906,361.9,5538.044,364.412,5537.9,367.3Z"/><path class="aa" d="M5533.935,218.713c2.18.382,4.57-1.087,6.661.111-.434,14.619-1.728,40.531-3.067,52.86-1.559,14.36-1.952,19.036-2.555,29.54-.6,10.488-.238,17.778-1.569,27.352-.518,3.723-.745,5.631-1.217,8.86-.269,1.847-.287,2.223-.492,3.835-.008.066-.008.092-.012.133a48.46,48.46,0,0,0-.279,5.6c.06,4.731.07,13.442.08,16.958a17.332,17.332,0,0,1-.139,3.017c-.024,1.441-.02.153-.056,1.175s-.123,2.222-.161,3.316c-1.491-.541-2.976-1.177-4.461-1.589.03-1.526.022-.654.064-2.512s-.075,3.545.039-1.215.86-18.884,1.273-24.145.06-1.1.329-5.029-.354,5.634.165-2.2,2.034-25.806,2.42-35.421-.4-17.356-.2-25.912.592-19.456.835-26.618.778-9.18,1.04-13.876.609-8.157.826-11.048S5533.742,220.828,5533.935,218.713Z"/><path class="ac" d="M5522.121,336.307c5.543.784,11.18,1.379,16.9,2.027-.33,1.14-.612,2.3-.907,3.461-5.195-.331-10.345-.392-15.4-.95C5522.518,339.331,5522.323,337.818,5522.121,336.307Z"/><path class="ac" d="M5542.242,347.821c-.483-2.132-1.69-3.59-2.658-5.207a7.151,7.151,0,0,0-1.311-1.445,1.584,1.584,0,0,0-.172-.124.877.877,0,0,0-.144-.093,1.285,1.285,0,0,0-1.024-.177c-.089.413-.109.474-.2.98-.05.265-.118.58-.2,1.093a33.59,33.59,0,0,0-.459,7.884,10.426,10.426,0,0,0,.716,2.991,3.633,3.633,0,0,0,.25.494,3.97,3.97,0,0,0,.523.737c.461.453,1.052,1,1.588.869C5541.635,355.2,5542.972,351.049,5542.242,347.821Zm-3.489,5.5a.794.794,0,0,1-.7-.212c-1.026-.777-1.286-2.387-1.333-3.928v-.014c.038-2.339.195-4.615.413-6.953.365.07.307-.127.727.42a19.307,19.307,0,0,1,2.719,3.9C5541.664,348.851,5541.1,352.946,5538.753,353.32Z"/><path class="ac" d="M5542.051,340.676c-.767-.661-2.486-.736-3.444-.762-.187-.005-.365-.013-.5-.012s-.14,0-.248,0c.045.2.1.479.138.663s.065.316.1.47.063.306.091.439.04.206.069.328c.409.259.933.539,1.3.785s-.024-.082.5.32,2.377,2.05,2.93,2.519,1.962,1.284,1.868-.136S5543.154,341.626,5542.051,340.676Zm1.521,4.281c-1.307-.677-3.628-3.148-4.973-4.241,1.02-.641,3.239.477,3.775,1.071S5544.882,345.636,5543.572,344.957Z"/><path class="ae" d="M5518.793,212.9c.159-.279.435-.672.78-.72.7-.1,1.158,1.317,1.276,1.684.681,2.116.24,5.219-.773,5.675-.218.1-.656.28-1.332-.4-.45.1-.851.11-1.3.214a2.291,2.291,0,0,0,.968,1.362,2.138,2.138,0,0,0,2.6-.735,5,5,0,0,0,.868-2.747,7.593,7.593,0,0,0-.331-4.03c-.234-.548-.815-1.915-1.814-1.87a1.938,1.938,0,0,0-1.661,1.611C5518.118,213.131,5518.466,212.922,5518.793,212.9Z"/><path class="ae" d="M5528.277,211.645c.163-.282.447-.681.8-.73.722-.1,1.188,1.332,1.309,1.7.7,2.142.246,5.284-.793,5.748-.223.1-.673.285-1.366-.4-.461.106-.872.113-1.332.219a2.321,2.321,0,0,0,.993,1.378,2.211,2.211,0,0,0,2.667-.749,5.027,5.027,0,0,0,.89-2.783,7.59,7.59,0,0,0-.339-4.08c-.241-.555-.836-1.939-1.86-1.891a1.979,1.979,0,0,0-1.7,1.634C5527.585,211.883,5527.943,211.671,5528.277,211.645Z"/><path class="ac" d="M5538,210.362c.167-.287.458-.691.821-.741.74-.1,1.218,1.347,1.342,1.723.716,2.168.252,5.351-.813,5.822-.229.1-.69.29-1.4-.4-.473.109-.9.116-1.366.224a2.34,2.34,0,0,0,1.018,1.394,2.289,2.289,0,0,0,2.736-.762,5.063,5.063,0,0,0,.913-2.821,7.6,7.6,0,0,0-.348-4.132c-.247-.561-.858-1.962-1.908-1.912a2.023,2.023,0,0,0-1.748,1.658C5537.294,210.6,5537.661,210.388,5538,210.362Z"/><path class="ac" d="M5547.983,209.045c.171-.291.47-.7.842-.752.759-.1,1.25,1.362,1.377,1.743.735,2.2.259,5.42-.834,5.9-.236.1-.709.294-1.438-.406-.485.111-.918.119-1.4.23a2.092,2.092,0,0,0,3.852.633,5.094,5.094,0,0,0,.937-2.859,7.609,7.609,0,0,0-.357-4.185c-.254-.568-.88-1.985-1.958-1.933a2.065,2.065,0,0,0-1.793,1.682C5547.254,209.291,5547.631,209.073,5547.983,209.045Z"/><path class="ac" d="M5561.826,207.218c.178-.3.487-.714.872-.767.787-.109,1.295,1.383,1.427,1.77.761,2.232.268,5.516-.864,6.006-.244.1-.734.3-1.489-.41-.5.114-.951.123-1.452.237a2.4,2.4,0,0,0,1.082,1.432,2.483,2.483,0,0,0,2.908-.8,5.135,5.135,0,0,0,.97-2.911,7.611,7.611,0,0,0-.37-4.259c-.262-.578-.912-2.019-2.028-1.963a2.125,2.125,0,0,0-1.857,1.716C5561.072,207.471,5561.462,207.247,5561.826,207.218Z"/><path class="ac" d="M5566.623,206.585c.18-.3.493-.719.883-.772.8-.111,1.311,1.39,1.444,1.78.771,2.245.271,5.549-.875,6.042-.246.106-.742.3-1.507-.411-.508.115-.962.125-1.469.239a2.412,2.412,0,0,0,1.095,1.44,2.525,2.525,0,0,0,2.943-.8,5.155,5.155,0,0,0,.982-2.93,7.609,7.609,0,0,0-.374-4.284c-.266-.581-.923-2.03-2.053-1.973a2.148,2.148,0,0,0-1.88,1.728C5565.86,206.84,5566.254,206.614,5566.623,206.585Z"/><path class="l" d="M5245.071,459.672h-95.008a6.823,6.823,0,0,1,0-13.646h95.008a6.823,6.823,0,1,1,0,13.646Zm-95.008-13.034a6.21,6.21,0,0,0,0,12.421h95.008a6.21,6.21,0,1,0,0-12.421Z"/><path class="l" d="M5245.071,446.332h-10.936v13.034h10.936a6.517,6.517,0,0,0,6.517-6.517h0A6.517,6.517,0,0,0,5245.071,446.332Z"/><path class="c" d="M5246.975,455.993l-2.157-2.158a3.407,3.407,0,1,0-1.152.977l2.245,2.245a.752.752,0,0,0,1.064-1.064Zm-2.439-4.184a2.432,2.432,0,1,1-2.432-2.432A2.435,2.435,0,0,1,5244.536,451.809Z"/><g transform="translate(1.97 4.597)"><path class="g" d="M5163.358,451.407q.319-1.147.637-2.3c.131-.479.254-.96.388-1.439a.643.643,0,0,1,.756-.2c.072.071.022.148,0,.218-.452,1.5-.909,3-1.356,4.505-.1.354-.38.175-.584.215-.222.043-.321-.065-.381-.281-.285-1.02-.586-2.035-.88-3.052a1.281,1.281,0,0,0-.223-.493c-.124.4-.24.77-.356,1.143-.249.8-.512,1.593-.74,2.4-.078.278-.24.294-.464.285s-.416.031-.506-.281c-.416-1.431-.865-2.851-1.289-4.28-.037-.122-.247-.371.057-.394.234-.018.589-.216.708.24.2.772.424,1.537.637,2.305l.423,1.524c.4-1.273.787-2.472,1.134-3.684a.474.474,0,0,1,.571-.414.338.338,0,0,1,.37.3c.3,1.124.617,2.243.929,3.364.027.1.058.2.088.3Z" transform="translate(-4.563 -2.262)"/><path class="g" d="M5149.489,448.984a3.075,3.075,0,0,0,1.809.552,1.131,1.131,0,0,0,1.137-.677,1.169,1.169,0,0,0-.494-1.373c-.479-.338-1-.611-1.492-.935a1.866,1.866,0,0,1-.981-1.43,1.8,1.8,0,0,1,1.261-1.938,3.509,3.509,0,0,1,1.972-.035.693.693,0,0,1,.324.888c-.083.123-.166.024-.232-.013a2.413,2.413,0,0,0-1.289-.266,1.256,1.256,0,0,0-1.166.778,1.162,1.162,0,0,0,.536,1.357,20.172,20.172,0,0,1,1.837,1.2,1.72,1.72,0,0,1-.428,2.932,3.35,3.35,0,0,1-2.633-.043c-.115-.044-.214-.109-.208-.252A2.356,2.356,0,0,1,5149.489,448.984Z" transform="translate(0)"/><path class="g" d="M5176.329,451.583a1.832,1.832,0,0,1-1.687.857,1.4,1.4,0,0,1-1.421-1.207,1.486,1.486,0,0,1,1-1.7,9.637,9.637,0,0,1,1.814-.283c.278-.046.343-.153.311-.407a.964.964,0,0,0-1.084-.939,2.319,2.319,0,0,0-1.26.375c-.269.18-.307.086-.32-.186a.5.5,0,0,1,.379-.582,3.66,3.66,0,0,1,1.727-.239,1.4,1.4,0,0,1,1.288,1.18,2.3,2.3,0,0,1,.063.5c.009,1.018,0,2.037.018,3.055.007.3-.127.343-.374.328-.223-.013-.467.038-.421-.323A2.584,2.584,0,0,0,5176.329,451.583Zm.03-1.684c-.036-.083-.143-.081-.219-.074a6.948,6.948,0,0,0-1.579.268.864.864,0,0,0,.122,1.648,1.331,1.331,0,0,0,1.015-.165,1.479,1.479,0,0,0,.6-.87A3.832,3.832,0,0,0,5176.358,449.9Z" transform="translate(-12.296 -2.183)"/><path class="g" d="M5184.8,451.593l1.3-3.478c.037-.1.071-.2.107-.294a.573.573,0,0,1,.779-.392c.2.061.094.182.059.276-.175.464-.358.926-.542,1.387q-.833,2.092-1.67,4.183a2.682,2.682,0,0,1-.844,1.2,1.589,1.589,0,0,1-1.112.277c-.373-.022-.235-.3-.256-.5-.03-.283.166-.187.311-.176a.949.949,0,0,0,1.028-.614c.14-.294.241-.607.378-.9a.569.569,0,0,0-.051-.486c-.552-1.4-1.107-2.792-1.648-4.192-.052-.134-.288-.375-.008-.431.24-.049.619-.223.772.2.253.7.5,1.4.748,2.1C5184.357,450.332,5184.561,450.908,5184.8,451.593Z" transform="translate(-17.106 -2.251)"/></g></g></svg>