<svg xmlns="http://www.w3.org/2000/svg" width="714" height="403.915" viewBox="0 0 714 403.915"><defs><style>.a{fill:#5b5b5b;}.b{fill:#111;}.c{fill:#f2cc83;}.d{fill:#d6a85f;}.e{fill:#ebb150;}.f{fill:#db9c42;}.g{fill:#c69032;}.h{fill:#f4be67;}.i{fill:#b77c27;}.j,.k{fill:#7fd1d8;}.j{fill-rule:evenodd;}</style></defs><g transform="translate(-801.387 -423.334)"><g transform="translate(1341.969 423.334)"><g transform="translate(63.803)"><path class="a" d="M1159.941,433.846l6.85-5.283s12.706-6.159,18.98-5.109c0,0-2.69,6.788-12.118,13.31l.984,1.276-7.589,5.854Z" transform="translate(-1159.941 -423.334)"/><path class="b" d="M1172.1,436.715l.984,1.276-7.589,5.854-3.282-4.639,0,0s4.228-4.688,8.5-6.555,13.507-9.242,13.507-9.242S1181.526,430.193,1172.1,436.715Z" transform="translate(-1158.385 -423.285)"/></g><g transform="translate(51.06 10.513)"><path class="c" d="M1152.381,443.04l2.082-1.605.657-4.148,3.211.415,3.291-2.538,1.02-3.678,2.483-1.915,7.108,10.047-2.417,1.865-3.754-.424-2.933,2.584-.364,3.279-4.55-.346-1.948,1.5Z" transform="translate(-1152.381 -429.57)"/><path class="d" d="M1157.4,444.374l-1.947,1.5-1.891-2.451c6.077-3.137,14.574-10.645,14.576-10.646l3.282,4.639L1169,439.282l-3.754-.425-2.933,2.584-.364,3.279Z" transform="translate(-1151.57 -427.37)"/></g><g transform="translate(0 23.982)"><path class="e" d="M1161.362,594.74s28.025,5.23,44.711,28.347,48.547,71.086,55.2,74.524,10.254-4.48,1.77-16.217-58.685-84.972-66.144-94.642-68.741-99.492-71.534-105.334c0,0-6.508-12.047-1.173-21.517s14.6-11.9,28.649-13.957,20.31-8.383,20.31-8.383l3.523,4.568s-9.041,6.33-19.152,8.774-21.948,5.146-24.1,14.3,43.438,66.317,47.622,72.3,47.755,61.914,53.673,70.417,43.715,56.677,48.844,64.716,16.233,28.821-2.931,44.246-37.972,1.869-43.255-4.981-37.3-49.2-46.424-56.3-24.695-14.8-35.9-5.724C1155.049,649.876,1140.671,617.627,1161.362,594.74Z" transform="translate(-1122.09 -437.561)"/><path class="f" d="M1122.1,455.535c6.486,14.626,74.67,106.138,87.917,125.9s49.7,69.636,58.751,85.672-2.33,18.223-2.33,18.223l-.007-.007c2.547-2.1,2.363-8.288-3.392-16.248-8.482-11.735-58.685-84.972-66.144-94.643s-68.741-99.492-71.534-105.334A30.466,30.466,0,0,1,1122.1,455.535Z" transform="translate(-1122.088 -425.238)"/><path class="f" d="M1193.719,587.576c19.321,25.082,51.329,80.18,80.323,60.633a33.689,33.689,0,0,1-4.839,4.74c-19.164,15.423-37.972,1.869-43.255-4.981s-37.3-49.2-46.424-56.3-24.694-14.8-35.9-5.724c0,0-14.378-32.249,6.313-55.137,0,0-.233,26.778,4.127,32.962S1174.392,562.488,1193.719,587.576Z" transform="translate(-1110.661 -373.629)"/><path class="f" d="M1130.285,464.152c-.673,2.866,3.333,10.439,9.283,19.671-.036-.037-13.175-14.157-12.9-22.96s16.541-12.536,24.613-13.549,20.723-8.219,20.723-8.219l1.529,1.982s-9.041,6.33-19.152,8.774S1132.435,455,1130.285,464.152Z" transform="translate(-1118.952 -436.509)"/><g transform="translate(10.808 56.644)"><path class="g" d="M1129.463,478.03a4.172,4.172,0,1,0,.6-6.036A4.292,4.292,0,0,0,1129.463,478.03Z" transform="translate(-1128.502 -471.166)"/><path class="g" d="M1135.083,485.767a4.171,4.171,0,1,0,.6-6.035A4.293,4.293,0,0,0,1135.083,485.767Z" transform="translate(-1124.648 -465.861)"/><g transform="translate(29.405 41.918)"><g transform="translate(42.466 110.27)"><path class="g" d="M1173.352,578.575a10.63,10.63,0,1,0,1.927-14.909A10.629,10.629,0,0,0,1173.352,578.575Z" transform="translate(-1171.139 -561.452)"/><path class="h" d="M1173.974,578.234a10.182,10.182,0,1,0,2.051-14A10.012,10.012,0,0,0,1173.974,578.234Z" transform="translate(-1170.562 -561.039)"/><g transform="translate(17.516 22.71)"><path class="g" d="M1183.743,592.046a10.629,10.629,0,1,0,1.927-14.907A10.631,10.631,0,0,0,1183.743,592.046Z" transform="translate(-1181.531 -574.925)"/><path class="h" d="M1184.368,591.709a10.183,10.183,0,1,0,2.05-14.006A10.012,10.012,0,0,0,1184.368,591.709Z" transform="translate(-1180.953 -574.512)"/></g><g transform="translate(35.676 49.128)"><path class="g" d="M1194.023,603.893a8.255,8.255,0,1,0,1.5-11.577A8.253,8.253,0,0,0,1194.023,603.893Z" transform="translate(-1192.304 -590.597)"/><path class="h" d="M1194.507,603.632a7.908,7.908,0,1,0,1.591-10.877A7.777,7.777,0,0,0,1194.507,603.632Z" transform="translate(-1191.856 -590.277)"/></g></g><g transform="translate(20.442)"><g transform="translate(18.228 26.641)"><path class="i" d="M1170.075,512.859l-1.187,4.652a8.169,8.169,0,0,0,3.818,4.952l4.991.277Z" transform="translate(-1168.888 -511.139)"/><path class="g" d="M1176.23,516.038c2.193,2.844,3,5.9,1.8,6.825s-3.951-.629-6.144-3.471-3-5.9-1.8-6.825S1174.037,513.194,1176.23,516.038Z" transform="translate(-1168.449 -511.523)"/><path class="h" d="M1176.826,515.578c2.193,2.844,3,5.9,1.8,6.823s-3.951-.629-6.144-3.471-3-5.9-1.8-6.825S1174.634,512.734,1176.826,515.578Z" transform="translate(-1168.039 -511.838)"/></g><path class="i" d="M1159.264,497.055l-1.19,4.652a8.17,8.17,0,0,0,3.82,4.951l4.99.276Z" transform="translate(-1158.074 -495.333)"/><path class="g" d="M1165.417,500.233c2.193,2.844,3,5.9,1.8,6.825s-3.953-.629-6.144-3.471-3-5.9-1.8-6.825S1163.224,497.39,1165.417,500.233Z" transform="translate(-1157.634 -495.717)"/><path class="h" d="M1166.012,499.775c2.193,2.842,3,5.9,1.8,6.822s-3.953-.629-6.146-3.471-3-5.9-1.8-6.825S1163.821,496.931,1166.012,499.775Z" transform="translate(-1157.225 -496.034)"/></g><g transform="translate(119.881 134.232)"><path class="i" d="M1218.487,576.889l-1.421,5.559a9.765,9.765,0,0,0,4.566,5.922l5.965.33Z" transform="translate(-1217.066 -574.829)"/><path class="g" d="M1225.845,580.688c2.621,3.4,3.585,7.053,2.149,8.16s-4.725-.753-7.346-4.152-3.584-7.053-2.149-8.158S1223.223,577.29,1225.845,580.688Z" transform="translate(-1216.54 -575.289)"/><path class="h" d="M1226.559,580.137c2.621,3.4,3.585,7.053,2.151,8.16s-4.727-.753-7.346-4.152-3.585-7.053-2.151-8.158S1223.938,576.739,1226.559,580.137Z" transform="translate(-1216.051 -575.667)"/></g><g transform="translate(0 7.948)"><g transform="translate(29.224 42.549)"><path class="i" d="M1164.938,526l5.741.037a9.771,9.771,0,0,1,4.566,5.922l-1.2,5.854Z" transform="translate(-1162.149 -525.989)"/><path class="g" d="M1166.813,534.471c2.62,3.4,5.912,5.258,7.346,4.15s.47-4.762-2.149-8.159-5.911-5.259-7.346-4.151S1164.19,531.071,1166.813,534.471Z" transform="translate(-1162.794 -525.991)"/><path class="h" d="M1166.1,535.022c2.62,3.4,5.91,5.258,7.344,4.152s.472-4.762-2.149-8.16-5.91-5.259-7.346-4.152S1163.477,531.622,1166.1,535.022Z" transform="translate(-1163.283 -525.613)"/></g><g transform="translate(20.194 28.356)"><path class="i" d="M1159.583,517.574l5.74.037a9.781,9.781,0,0,1,4.566,5.922l-1.2,5.854Z" transform="translate(-1156.791 -517.569)"/><path class="g" d="M1161.456,526.051c2.621,3.4,5.911,5.257,7.348,4.15s.47-4.762-2.151-8.16-5.912-5.256-7.344-4.152S1158.833,522.652,1161.456,526.051Z" transform="translate(-1157.437 -517.571)"/><path class="h" d="M1160.742,526.6c2.621,3.4,5.911,5.259,7.346,4.152s.472-4.762-2.149-8.16-5.912-5.257-7.346-4.15S1158.119,523.2,1160.742,526.6Z" transform="translate(-1157.927 -517.193)"/></g><g transform="translate(10.129 14.906)"><path class="i" d="M1153.611,509.595l5.738.035a9.779,9.779,0,0,1,4.568,5.923l-1.2,5.854Z" transform="translate(-1150.82 -509.589)"/><path class="g" d="M1155.484,518.071c2.621,3.4,5.911,5.256,7.346,4.15s.474-4.762-2.147-8.159-5.912-5.257-7.346-4.152S1152.862,514.671,1155.484,518.071Z" transform="translate(-1151.466 -509.592)"/><path class="h" d="M1154.77,518.62c2.621,3.4,5.91,5.259,7.346,4.152s.472-4.76-2.149-8.158-5.911-5.258-7.344-4.152S1152.149,515.222,1154.77,518.62Z" transform="translate(-1151.955 -509.214)"/></g><path class="i" d="M1147.6,500.752l5.739.037a9.786,9.786,0,0,1,4.568,5.922l-1.2,5.854Z" transform="translate(-1144.811 -500.746)"/><path class="g" d="M1149.474,509.228c2.623,3.4,5.913,5.258,7.348,4.15s.472-4.76-2.149-8.158-5.911-5.257-7.346-4.152S1146.853,505.828,1149.474,509.228Z" transform="translate(-1145.456 -500.749)"/><path class="h" d="M1148.762,509.779c2.621,3.4,5.91,5.257,7.344,4.152s.474-4.762-2.149-8.16-5.91-5.257-7.346-4.152S1146.14,506.379,1148.762,509.779Z" transform="translate(-1145.947 -500.371)"/><g transform="translate(47.432 67.419)"><g transform="translate(12.563 17.729)"><path class="i" d="M1183.274,551.266l6.269.28s3.466,1.718,5.232,6.781l-1.064,6.471Z" transform="translate(-1180.349 -551.261)"/><path class="g" d="M1185.637,560.753c3,3.9,6.674,6.1,8.192,4.927s.32-5.279-2.685-9.175-6.67-6.1-8.19-4.927S1182.635,556.861,1185.637,560.753Z" transform="translate(-1181.019 -551.263)"/><path class="h" d="M1184.882,561.337c3,3.894,6.672,6.1,8.192,4.927s.317-5.279-2.687-9.175-6.672-6.1-8.19-4.929S1181.878,557.444,1184.882,561.337Z" transform="translate(-1181.539 -550.863)"/></g><g transform="translate(25.373 35.512)"><path class="i" d="M1190.874,561.815l6.269.28s3.466,1.718,5.231,6.783l-1.062,6.471Z" transform="translate(-1187.949 -561.812)"/><path class="g" d="M1193.238,571.3c3,3.894,6.672,6.1,8.192,4.927s.319-5.281-2.685-9.175-6.67-6.1-8.192-4.927S1190.234,567.409,1193.238,571.3Z" transform="translate(-1188.62 -561.813)"/><path class="h" d="M1192.481,571.886c3,3.9,6.673,6.1,8.194,4.927s.317-5.279-2.687-9.173-6.672-6.1-8.19-4.929S1189.478,567.994,1192.481,571.886Z" transform="translate(-1189.139 -561.413)"/></g><path class="i" d="M1175.821,540.748l6.271.28s3.466,1.718,5.23,6.783l-1.062,6.469Z" transform="translate(-1172.896 -540.743)"/><path class="g" d="M1178.184,550.237c3.006,3.894,6.674,6.1,8.194,4.925s.318-5.279-2.685-9.175-6.672-6.1-8.192-4.927S1175.182,546.343,1178.184,550.237Z" transform="translate(-1173.567 -540.745)"/><path class="h" d="M1177.429,550.819c3,3.894,6.672,6.1,8.192,4.927s.319-5.279-2.685-9.175-6.672-6.1-8.192-4.927S1174.427,546.925,1177.429,550.819Z" transform="translate(-1174.086 -540.345)"/><g transform="translate(37.941 53.001)"><path class="i" d="M1198.33,572.191l6.269.28s3.466,1.718,5.23,6.783l-1.062,6.471Z" transform="translate(-1195.404 -572.187)"/><path class="g" d="M1200.694,581.679c3,3.894,6.672,6.1,8.192,4.927s.319-5.281-2.685-9.175-6.672-6.1-8.192-4.929S1197.69,577.785,1200.694,581.679Z" transform="translate(-1196.075 -572.189)"/><path class="h" d="M1199.937,582.262c3,3.9,6.672,6.1,8.194,4.927s.317-5.279-2.687-9.173-6.672-6.1-8.19-4.929S1196.935,578.37,1199.937,582.262Z" transform="translate(-1196.594 -571.788)"/></g></g></g></g></g></g></g><g transform="translate(801.387 598.195)"><g transform="translate(128.838 16.383)"><path class="j" d="M897.963,536.79c3.031,5.78,6.131,11.744,9.176,17.515,2.149,4.071,1.261,7.879-2.547,10.419-1.381.92-2.928,1.6-4.511.511s-1.537-2.773-1.054-4.386a8.352,8.352,0,0,1,6.8-6.306c-2.308-4.332-4.566-8.576-6.926-13-6.046,3.97-12.018,7.892-18.029,11.836,2.894,5.436,5.68,10.663,8.46,15.894a7.613,7.613,0,0,1-3.939,10.655c-2.66,1.075-4.735-.391-4.61-3.257.148-3.375,2.82-6.348,7.036-7.668-3.321-6.235-6.625-12.442-10-18.778Z" transform="translate(-877.821 -536.79)"/></g><g transform="translate(88.097 84.441)"><path class="j" d="M912.456,581.869c-2.247,9.224-4.6,18.714-6.82,27.944-1.569,6.511-6.2,9.814-12.8,8.925-2.392-.32-4.738-1.064-5.418-3.777-.683-2.732.99-4.506,3.068-5.8,4.308-2.692,8.779-3.093,13.49-.342l4.944-20.856c-10.42-1.482-20.711-2.941-31.064-4.413-2.068,8.716-4.051,17.1-6.046,25.487a11.077,11.077,0,0,1-14.545,7.847c-3.936-1.387-4.792-4.981-1.9-7.99,3.4-3.542,9.182-4.221,15.051-1.606,2.372-10,4.73-19.954,7.139-30.117Z" transform="translate(-853.651 -577.166)"/></g><g transform="translate(355.247 94.344)"><path class="j" d="M1042.109,583.041c.907,6.463,1.812,13.121,2.736,19.584.651,4.556-1.468,7.841-5.911,8.949-1.608.4-3.3.523-4.418-1.038s-.512-3.128.487-4.485a8.353,8.353,0,0,1,8.529-3.643c-.711-4.858-1.407-9.613-2.136-14.579-7.032,1.7-13.975,3.38-20.964,5.067.892,6.092,1.755,11.953,2.606,17.815a7.612,7.612,0,0,1-7.3,8.7c-2.867.115-4.327-1.964-3.242-4.62,1.276-3.127,4.794-5.027,9.207-4.848-1.025-6.99-2.043-13.945-3.085-21.05Z" transform="translate(-1012.139 -583.041)"/></g><g transform="translate(198.035 35.147)"><path class="j" d="M953.173,547.922c4,9.719,8.074,19.744,12.1,29.454,2.837,6.847.844,12.819-5.642,16.324-2.35,1.271-4.932,2.136-7.309.148s-2.048-4.678-1.033-7.193c2.1-5.215,5.841-8.487,11.85-9.092l-9.161-21.888c-10.291,5.461-20.452,10.859-30.677,16.286,3.826,9.146,7.516,17.945,11.189,26.747a12.262,12.262,0,0,1-7.906,16.5c-4.426,1.323-7.535-1.335-6.906-5.913.742-5.387,5.47-9.758,12.425-11.243-4.393-10.495-8.763-20.939-13.229-31.6Z" transform="translate(-918.872 -547.922)"/></g><g transform="translate(273.726)"><path class="j" d="M979.248,569.882c-5.173-14.24-10.38-28.253-15.472-42.3l1.345-.507c.376.8.816,1.581,1.121,2.409,5.205,14.159,10.007,28.482,15.762,42.413,2.66,6.437-5.015,16.775-12.627,16.5-3.548-.133-5.547-3.179-4.735-7.086a15.142,15.142,0,0,1,12.6-11.236Z" transform="translate(-963.776 -527.071)"/></g><g transform="translate(252.822 88.328)"><path class="j" d="M971.333,613.545c7.951-11.444,15.713-22.791,23.567-34.073l1.094.74c-.4.71-.755,1.453-1.215,2.122-7.872,11.425-16.083,22.633-23.494,34.35-3.423,5.413-15.262,5.134-19.093-.731-1.783-2.732-.556-5.852,2.81-7.317a13.926,13.926,0,0,1,15.128,3.506Z" transform="translate(-951.375 -579.472)"/></g><g transform="translate(409.518 68.959)"><path class="j" d="M1053.742,592.252c-1.114-8.126-2.27-16.138-3.363-24.155l.77-.116c.108.469.251.931.319,1.4,1.139,8.088,2.046,16.216,3.5,24.246.672,3.712-4.568,8.307-8.566,7.292-1.861-.474-2.572-2.316-1.7-4.292a8.2,8.2,0,0,1,7.953-4.509Z" transform="translate(-1044.336 -567.981)"/></g><g transform="translate(0 88.621)"><g transform="translate(0 12.102)"><path class="j" d="M807.479,619.937c-.054-.123.4-.849.472-.988.16-.329.322-.656.492-.978a18.11,18.11,0,0,1,1.131-1.883,11.713,11.713,0,0,1,3.056-3.226,8.162,8.162,0,0,1,6.776-.839,9.484,9.484,0,0,1,5.446,4.4,12.533,12.533,0,0,1,1.91,6.528,11.054,11.054,0,0,1-.7,3.594c-2.2,5.385-7.445,7.84-12.779,5.991-9-3.123-14.166-14.318-10.923-24.253,3.791-11.614,12.676-17.8,23.911-20.612,10.7-2.675,19.771,1.141,26.289,9.7,3.584,4.708,7.022,10.161,8.4,15.8,5.377,22.043-.076,41.975-13.867,59.73-1.908,2.459-3.944,5.348-8.75,4.608,1.259-1.817,2.068-3.182,3.068-4.4,12.317-14.931,13.546-51.017.467-68.011a31.575,31.575,0,0,0-10.407-9.045c-12.261-6.073-26.582,3.961-25.684,17.618A16.427,16.427,0,0,0,807.479,619.937Z" transform="translate(-801.387 -586.825)"/></g><g transform="translate(51.759)"><path class="j" d="M841.75,581.978a5.079,5.079,0,0,1-1.483,7.375c-2.78,1.593-5.342,1.225-7.161-1.586-1.827-2.827-1.106-5.423,1.546-7.145C837.35,578.866,839.909,579.577,841.75,581.978Z" transform="translate(-832.093 -579.646)"/></g><g transform="translate(65.897 21.672)"><path class="j" d="M850.281,594.915c1.453,2.894,1.129,5.417-1.657,7.191-2.766,1.756-5.354,1.225-7.133-1.514s-1.178-5.31,1.574-7.1C845.855,591.667,848.257,592.5,850.281,594.915Z" transform="translate(-840.481 -592.503)"/></g></g><g transform="translate(329.819 38.262)"><path class="j" d="M1014.025,586.968c.135-.711.238-1.247.339-1.787q3.249-17.082,6.491-34.164c.16-.848.263-1.681,1.547-.993.019,4.8,2.731,8.7,4.639,12.893a57.841,57.841,0,0,1,2.658,6.2c1.8,5.645-.13,10.387-3.9,14.591a1.694,1.694,0,0,1-.455.322c-.071.037-.177.01-.524.02,5.418-8.7,5.391-16.233-4.711-21.763-.133.7-.236,1.232-.335,1.765-1.613,8.484-3.251,16.961-4.819,25.453a7.093,7.093,0,0,1-3.026,4.87c-3.425,2.313-7.145,3.326-11.213,2.109-3.948-1.18-4.851-4.9-1.994-7.9A12.214,12.214,0,0,1,1014.025,586.968Z" transform="translate(-997.054 -549.77)"/></g><g transform="translate(437.495 96.71)"><path class="j" d="M1066.342,599.4c-.078-.283-.137-.5-.2-.711q-1.881-6.8-3.767-13.6c-.095-.339-.206-.659.386-.639.868,1.745,2.554,2.675,4,3.86a23.939,23.939,0,0,1,2.08,1.778c1.669,1.733,1.817,3.8,1.2,6.011a.692.692,0,0,1-.108.2c-.019.027-.062.035-.187.1.411-4.138-.951-6.876-5.62-7.075.078.278.135.491.194.7.935,3.378,1.861,6.758,2.815,10.129a2.882,2.882,0,0,1-.229,2.316,5.176,5.176,0,0,1-3.7,2.78,1.812,1.812,0,0,1-2.144-2.518A4.956,4.956,0,0,1,1066.342,599.4Z" transform="translate(-1060.933 -584.444)"/></g><g transform="translate(79.124 35.147)"><path class="j" d="M858.606,576.323c-.15-.538-.261-.944-.376-1.352q-3.575-12.918-7.157-25.834c-.179-.642-.391-1.252.732-1.214,1.65,3.314,4.853,5.084,7.6,7.333a44.353,44.353,0,0,1,3.949,3.381c3.172,3.289,3.452,7.225,2.279,11.417a1.306,1.306,0,0,1-.206.378c-.035.051-.118.067-.356.192.78-7.86-1.805-13.06-10.675-13.441.147.531.256.932.369,1.335,1.777,6.415,3.533,12.836,5.345,19.241a5.475,5.475,0,0,1-.433,4.4,9.843,9.843,0,0,1-7.034,5.279c-3.13.529-5.025-1.736-4.073-4.782A9.419,9.419,0,0,1,858.606,576.323Z" transform="translate(-848.327 -547.922)"/></g><g transform="translate(164.458 112.534)"><path class="j" d="M915.658,628.3c-.323-.647-.566-1.138-.812-1.628q-7.757-15.56-15.521-31.118c-.386-.774-.809-1.5.63-1.726,2.923,3.81,7.44,5.268,11.5,7.451a58.02,58.02,0,0,1,5.869,3.324c4.855,3.4,6.186,8.344,5.733,13.972a1.75,1.75,0,0,1-.167.533c-.034.073-.137.115-.406.332-.956-10.2-5.539-16.18-16.927-14.466.319.639.56,1.124.8,1.608,3.852,7.728,7.681,15.467,11.577,23.174a7.087,7.087,0,0,1,.539,5.707c-1.325,3.916-3.671,6.974-7.644,8.469-3.857,1.451-6.83-.964-6.372-5.079A12.211,12.211,0,0,1,915.658,628.3Z" transform="translate(-898.953 -593.832)"/></g><g transform="translate(16.787 25.905)"><path class="k" d="M812.1,617.827a.76.76,0,0,1-.632-1.178c.123-.185,12.647-18.81,40.586-37.151,25.751-16.9,70.275-37.058,136.137-37.058,76.023,0,117.481,19.243,157.572,37.854,20.644,9.581,41.989,19.489,67.676,26.473,44.859,12.2,65.682-7.922,85.817-27.38,13.2-12.755,25.669-24.8,43.995-25.985a.759.759,0,1,1,.1,1.515c-17.768,1.146-30.041,13.006-43.036,25.562-19.487,18.83-41.572,40.173-87.271,27.752-25.81-7.017-47.214-16.952-67.915-26.562-39.942-18.54-81.243-37.712-156.933-37.712-125.226,0-174.971,72.8-175.458,73.53A.759.759,0,0,1,812.1,617.827Z" transform="translate(-811.346 -542.439)"/></g><g transform="translate(21.171 36.865)"><path class="k" d="M814.7,652.9a.758.758,0,0,1-.6-1.224c.669-.865,68.33-86.45,187.923-86.45,60.389,0,107.045,15.931,148.211,29.985,29.492,10.07,54.963,18.766,78.653,18.766,29.945,0,47.427-17.126,64.333-33.687,13.643-13.367,27.754-27.187,48.143-31.339a.759.759,0,0,1,.3,1.488c-19.949,4.061-33.274,17.114-47.381,30.934-17.126,16.775-34.831,34.122-65.4,34.122-23.941,0-49.523-8.735-79.143-18.849-41.053-14.016-87.585-29.9-147.721-29.9-118.828,0-186.059,85.006-186.723,85.864A.762.762,0,0,1,814.7,652.9Z" transform="translate(-813.947 -548.941)"/></g><g transform="translate(27.66 36.864)"><path class="k" d="M818.556,692.952a.757.757,0,0,1-.571-1.259c.226-.254,22.916-25.849,60.906-50.671,35.073-22.916,90.733-49.872,156.784-48.077,57.1,1.542,93.061,11.728,121.956,19.912,24.106,6.827,43.138,12.224,66.455,11.021,30.212-1.554,46.832-20.182,62.906-38.2,13.987-15.678,28.451-31.889,51.733-36.723a.759.759,0,1,1,.308,1.487c-22.791,4.732-37.085,20.753-50.909,36.246-16.28,18.247-33.116,37.116-63.961,38.7-23.541,1.217-42.7-4.211-66.946-11.076-28.814-8.162-64.672-18.319-121.584-19.855-125.678-3.388-215.616,97.216-216.509,98.233A.756.756,0,0,1,818.556,692.952Z" transform="translate(-817.796 -548.941)"/></g><g transform="translate(37.514 36.864)"><path class="k" d="M824.4,741.13a.759.759,0,0,1-.6-1.224c.74-.954,75.243-95.7,196.462-114.656,58.665-9.173,101.223-1.546,135.418,4.585,31.563,5.659,56.494,10.127,81.053-.858,22.8-10.2,34.845-25.975,46.495-41.233,13.075-17.122,25.423-33.3,51.489-38.786a.759.759,0,0,1,.312,1.485c-25.512,5.374-37.7,21.33-50.594,38.223-11.764,15.408-23.929,31.342-47.079,41.7-24.989,11.177-50.123,6.672-81.943.966-34.082-6.11-76.5-13.714-134.915-4.578C899.889,645.613,825.737,739.886,825,740.835A.758.758,0,0,1,824.4,741.13Z" transform="translate(-823.642 -548.941)"/></g></g></g></svg>