<svg xmlns="http://www.w3.org/2000/svg" xmlns:xlink="http://www.w3.org/1999/xlink" width="1366" height="768" viewBox="0 0 1366 768"><defs><style>.a,.ai,.l{fill:none;}.b{clip-path:url(#a);}.c{fill:#f7d45e;}.d{fill:#ffe182;}.e{fill:#c2c2c2;}.aj,.e{opacity:0.2;}.f{fill:#000;}.g{fill:#243330;}.h{fill:#bcbec0;}.i{fill:#2b2b2b;}.j{fill:#dedede;}.k{fill:#b0b0b0;}.l{stroke:#4a5e3a;}.ai,.l{stroke-miterlimit:10;}.m{fill:#4a5e3a;}.ak,.n{fill:#243e41;}.o{fill:#5b5b5b;}.p{fill:#111;}.q{fill:#f2cc83;}.r{fill:#d6a85f;}.s{fill:#ebb150;}.t{fill:#db9c42;}.u{fill:#c69032;}.v{fill:#f4be67;}.w{fill:#b77c27;}.x{fill:#fcb95d;}.ab,.ac,.af,.ag,.ah,.ai,.aj,.ak,.al,.x,.y,.z{fill-rule:evenodd;}.y{fill:#a1dd6f;}.ae,.z{opacity:0.15;}.aa{opacity:0.5;}.ab,.ad{fill:#d1d3d4;}.ac{fill:#36a5ad;}.af{fill:#c98121;}.ag{fill:#f7805c;}.ah{fill:#7fd1d8;}.ai{stroke:#3e6569;stroke-width:7.837px;}.al{fill:#171f1c;}.am{fill:#f7cf43;}.an{fill:#ffbd09;}</style><clipPath id="a"><rect class="a" width="1366" height="768" transform="translate(0 875)"/></clipPath></defs><g transform="translate(0 -875)"><g class="b"><path class="c" d="M1366.449,891.872v758.464l-242.228-67.586-32.991-6.263,1.636-558.092,29.007-38.07Z"/><path class="c" d="M316.745,1000.142l-16.051,556.371L.649,1630.911V880.858l298.845,93.57Z"/><path class="d" d="M698.426,963.742H273.818v617.384h849.165V963.742Z"/><path class="e" d="M1122.883,978.978V962.952H273.718v2.622L.549,880.858v742.9l273.169-67.088v17.778h841.85l8.552,1.608L1366.349,1643V891.767Z"/><path class="f" d="M.449,935.451c121.657,30.38,335.7,73.888,615,80.372,352.972,8.194,622.429-47.1,751-78.7V874.671H.449Z"/><path class="f" d="M.449,1600c121.657-30.38,335.7-73.888,615-80.372,352.972-8.194,622.429,47.1,751,78.7V1647.1L.649,1649.944Z"/></g><path class="g" d="M633.483,1529.944l-17.93-120.905-4.645,1.657,18.036,120.2a2.319,2.319,0,0,0,3.529,1.468h0A2.319,2.319,0,0,0,633.483,1529.944Z"/><path class="g" d="M382.253,1437.519l-12.77,146.526a3.187,3.187,0,0,1-3.266,2.919h0a3.186,3.186,0,0,1-3.084-3.463l13.262-146.253Z"/><path class="g" d="M588.551,1412.418l-.146,97.838a2.342,2.342,0,0,1-2.433,2.336h0a2.341,2.341,0,0,1-2.249-2.343l.158-98.064Z"/><path class="g" d="M355.787,1443.109l-27.331,115.2a3.569,3.569,0,0,1-5.411,2.174h0a3.568,3.568,0,0,1-1.519-3.89l30.362-117.559Z"/><path class="g" d="M650.691,1407.043l-294.9,36.066.145-20.428L650.691,1393.4Z"/><path class="g" d="M355.932,1422.682l-30.744-33.151-.249,31.675,30.848,21.9Z"/><path class="h" d="M650.691,1393.4l-39.74-27.575-285.763,23.71,30.744,33.151Z"/><path class="f" d="M629.8,1378.9l-287.25,29.352,13.383,14.431L650.691,1393.4Z"/><path class="i" d="M637.5,1387.236l-10.862-8.032-2.313.236,9.942,7.625Z"/><path class="j" d="M637.5,1387.236v1.884l-3.117-.164-.115-1.891Z"/><path class="k" d="M634.265,1387.065l-9.942-7.625v1.676l10.058,7.84Z"/><path class="i" d="M630.912,1387.867l-10.877-8.037-2.316.237,9.956,7.63Z"/><path class="j" d="M630.912,1387.867v1.885l-3.122-.164-.115-1.892Z"/><path class="k" d="M627.674,1387.7l-9.956-7.63v1.677l10.072,7.845Z"/><path class="i" d="M624.653,1388.558l-10.89-8.042-2.32.237,9.968,7.634Z"/><path class="j" d="M624.653,1388.558v1.887l-3.126-.164-.114-1.894Z"/><path class="k" d="M621.411,1388.387l-9.968-7.634,0,1.678,10.084,7.85Z"/><path class="i" d="M617.712,1389.259l-10.905-8.047-2.323.237,9.982,7.64Z"/><path class="j" d="M617.712,1389.259v1.888l-3.131-.164-.114-1.9Z"/><path class="k" d="M614.465,1389.088l-9.982-7.64,0,1.679,10.1,7.855Z"/><path class="i" d="M611.1,1389.892l-10.92-8.053-2.327.238,9.995,7.645Z"/><path class="j" d="M611.1,1389.892l0,1.89-3.135-.164-.114-1.9Z"/><path class="k" d="M607.846,1389.722l-9.995-7.645,0,1.681,10.111,7.86Z"/><path class="i" d="M604.81,1390.586l-10.934-8.058-2.33.238,10.008,7.649Z"/><path class="j" d="M604.81,1390.586l0,1.891-3.14-.164-.114-1.9Z"/><path class="k" d="M601.555,1390.416l-10.008-7.649,0,1.682,10.124,7.865Z"/><path class="i" d="M598.631,1391.031l-10.947-8.062-2.333.238,10.02,7.654Z"/><path class="j" d="M598.631,1391.031l0,1.892-3.144-.163-.114-1.9Z"/><path class="k" d="M595.371,1390.861l-10.02-7.654,0,1.683,10.136,7.87Z"/><path class="i" d="M591.989,1391.667l-10.962-8.068-2.336.239,10.033,7.659Z"/><path class="j" d="M591.989,1391.667l0,1.894-3.148-.163-.114-1.9Z"/><path class="k" d="M588.724,1391.5l-10.033-7.659,0,1.684,10.15,7.875Z"/><path class="i" d="M585.675,1392.363l-10.975-8.073-2.34.239,10.046,7.664Z"/><path class="j" d="M585.675,1392.363l0,1.9-3.153-.163-.114-1.9Z"/><path class="k" d="M582.406,1392.193l-10.046-7.664,0,1.685,10.163,7.88Z"/><path class="i" d="M580.146,1393.148l-10.987-8.077-2.342.239,10.057,7.668Z"/><path class="j" d="M580.146,1393.148l0,1.9-3.156-.163-.114-1.9Z"/><path class="k" d="M576.872,1392.978l-10.057-7.668,0,1.687,10.174,7.884Z"/><path class="i" d="M573.476,1393.786l-11-8.082-2.346.24,10.07,7.673Z"/><path class="j" d="M573.476,1393.786l0,1.9-3.161-.163-.113-1.9Z"/><path class="k" d="M570.2,1393.617l-10.07-7.673,0,1.688,10.187,7.889Z"/><path class="i" d="M567.137,1394.486l-11.016-8.087-2.349.24,10.083,7.677Z"/><path class="j" d="M567.137,1394.486l0,1.9-3.165-.163-.113-1.906Z"/><path class="k" d="M563.855,1394.317l-10.083-7.677,0,1.689,10.2,7.894Z"/><path class="i" d="M560.449,1394.912l-11.031-8.093-2.353.24,10.1,7.683Z"/><path class="j" d="M560.449,1394.912l0,1.9-3.17-.163-.113-1.907Z"/><path class="k" d="M557.162,1394.742l-10.1-7.683,0,1.69,10.214,7.9Z"/><path class="i" d="M553.751,1395.553l-11.045-8.1-2.356.241,10.11,7.688Z"/><path class="j" d="M553.751,1395.553l0,1.9-3.174-.163-.113-1.909Z"/><path class="k" d="M550.459,1395.384l-10.11-7.688,0,1.692,10.227,7.9Z"/><path class="i" d="M547.385,1396.256l-11.059-8.1-2.359.241,10.122,7.693Z"/><path class="j" d="M547.385,1396.256l0,1.9L544.2,1398l-.113-1.91Z"/><path class="k" d="M544.089,1396.086l-10.122-7.693,0,1.693L544.2,1398Z"/><path class="i" d="M541.48,1396.869l-11.072-8.108-2.362.241,10.134,7.7Z"/><path class="j" d="M541.48,1396.869l-.005,1.9-3.183-.163-.113-1.911Z"/><path class="k" d="M538.18,1396.7l-10.134-7.7-.005,1.694,10.252,7.914Z"/><path class="i" d="M534.754,1397.512l-11.087-8.113-2.366.242,10.148,7.7Z"/><path class="j" d="M534.754,1397.512l-.005,1.906-3.187-.162-.113-1.913Z"/><path class="k" d="M531.449,1397.343l-10.148-7.7-.005,1.7,10.266,7.919Z"/><path class="i" d="M528.361,1398.218l-11.1-8.118-2.369.242,10.161,7.707Z"/><path class="j" d="M528.361,1398.218l-.006,1.907-3.192-.162-.112-1.914Z"/><path class="k" d="M525.052,1398.049l-10.161-7.707-.006,1.7,10.279,7.924Z"/><path class="i" d="M521.827,1398.82l-11.116-8.123-2.373.242,10.174,7.712Z"/><path class="j" d="M521.827,1398.82l-.006,1.909-3.2-.162-.112-1.915Z"/><path class="k" d="M518.513,1398.651l-10.174-7.712-.006,1.7,10.292,7.929Z"/><path class="i" d="M515.072,1399.466l-11.13-8.128-2.376.243,10.187,7.717Z"/><path class="j" d="M515.072,1399.466l-.006,1.91-3.2-.162-.112-1.917Z"/><path class="k" d="M511.753,1399.3l-10.187-7.717-.006,1.7,10.306,7.935Z"/><path class="i" d="M508.652,1400.175l-11.145-8.133-2.379.243,10.2,7.722Z"/><path class="j" d="M508.652,1400.175l-.007,1.911-3.205-.162-.112-1.918Z"/><path class="k" d="M505.328,1400.006l-10.2-7.722-.006,1.7,10.319,7.94Z"/><path class="i" d="M501.878,1400.607l-11.16-8.139-2.383.243,10.214,7.727Z"/><path class="j" d="M501.878,1400.607l-.007,1.913-3.21-.162-.112-1.92Z"/><path class="k" d="M498.55,1400.438l-10.214-7.727-.007,1.7,10.332,7.945Z"/><path class="i" d="M495.094,1401.256l-11.174-8.144-2.386.244,10.227,7.732Z"/><path class="j" d="M495.094,1401.256l-.007,1.914-3.215-.162-.112-1.921Z"/><path class="k" d="M491.761,1401.088l-10.227-7.732-.007,1.7,10.346,7.95Z"/><path class="i" d="M488.646,1401.968l-11.189-8.149-2.39.244,10.24,7.737Z"/><path class="j" d="M488.646,1401.968l-.007,1.916-3.219-.162-.112-1.922Z"/><path class="k" d="M485.308,1401.8l-10.24-7.737-.007,1.7,10.359,7.955Z"/><path class="i" d="M481.493,1403.343l-11.2-8.154-2.393.245,10.255,7.742Z"/><path class="j" d="M481.493,1403.343l-.008,1.917-3.224-.161-.111-1.924Z"/><path class="k" d="M478.149,1403.175l-10.255-7.742-.008,1.705,10.374,7.96Z"/><path class="i" d="M474.678,1404l-11.22-8.16-2.4.245,10.269,7.747Z"/><path class="j" d="M474.678,1404l-.008,1.919-3.229-.161-.111-1.925Z"/><path class="k" d="M471.33,1403.828l-10.269-7.747-.008,1.706,10.388,7.966Z"/><path class="i" d="M468.2,1404.711l-11.234-8.165-2.4.245,10.282,7.752Z"/><path class="j" d="M468.2,1404.711l-.008,1.92-3.233-.161-.111-1.927Z"/><path class="k" d="M464.848,1404.543l-10.282-7.752-.008,1.708,10.4,7.971Z"/><path class="i" d="M461.366,1405.535l-11.249-8.17-2.4.246,10.3,7.756Z"/><path class="j" d="M461.366,1405.535l-.009,1.922-3.238-.161-.111-1.928Z"/><path class="k" d="M458.009,1405.367l-10.3-7.756-.008,1.709,10.415,7.976Z"/><path class="i" d="M454.522,1406.191l-11.265-8.175-2.408.246,10.31,7.762Z"/><path class="j" d="M454.522,1406.191l-.009,1.923-3.242-.161-.111-1.93Z"/><path class="k" d="M451.159,1406.023l-10.31-7.762-.009,1.71,10.429,7.981Z"/><path class="i" d="M448.016,1406.908l-11.279-8.18-2.411.246,10.323,7.767Z"/><path class="j" d="M448.016,1406.908l-.009,1.924-3.247-.161-.111-1.931Z"/><path class="k" d="M444.649,1406.741l-10.323-7.767-.009,1.712,10.442,7.986Z"/><path class="i" d="M440.8,1407.758l-11.3-8.186-2.415.247,10.337,7.772Z"/><path class="j" d="M440.8,1407.758l-.01,1.926-3.252-.161-.111-1.932Z"/><path class="k" d="M437.429,1407.591l-10.337-7.772-.009,1.713,10.457,7.991Z"/><path class="i" d="M433.927,1408.417l-11.31-8.191-2.418.247,10.351,7.777Z"/><path class="j" d="M433.927,1408.417l-.01,1.927-3.257-.161-.11-1.934Z"/><path class="k" d="M430.55,1408.25l-10.351-7.777-.01,1.714,10.471,8Z"/><path class="i" d="M427.392,1409.138l-11.325-8.2-2.422.247,10.365,7.782Z"/><path class="j" d="M427.392,1409.138l-.01,1.929-3.261-.161-.11-1.935Z"/><path class="k" d="M424.01,1408.971l-10.365-7.782-.01,1.715,10.485,8Z"/><path class="i" d="M419.407,1409.527l-11.342-8.2-2.426.248,10.381,7.788Z"/><path class="j" d="M419.407,1409.527l-.011,1.931-3.267-.161-.11-1.937Z"/><path class="k" d="M416.02,1409.36l-10.381-7.788-.01,1.717,10.5,8.008Z"/><path class="i" d="M412.5,1410.189l-11.358-8.208-2.43.248,10.395,7.793Z"/><path class="j" d="M412.5,1410.189l-.011,1.932-3.272-.16-.11-1.939Z"/><path class="k" d="M409.108,1410.022l-10.395-7.793-.01,1.718,10.515,8.014Z"/><path class="i" d="M405.936,1410.913l-11.372-8.214-2.433.249,10.408,7.8Z"/><path class="j" d="M405.936,1410.913l-.011,1.933-3.276-.16-.11-1.94Z"/><path class="k" d="M402.539,1410.746l-10.408-7.8-.011,1.719,10.529,8.019Z"/><path class="i" d="M397.927,1411.614l-11.39-8.22-2.437.249,10.424,7.8Z"/><path class="j" d="M397.927,1411.614l-.012,1.935-3.282-.16-.11-1.942Z"/><path class="k" d="M394.524,1411.447l-10.424-7.8-.011,1.721,10.545,8.025Z"/><path class="i" d="M390.989,1412.279l-11.406-8.225-2.441.249,10.439,7.809Z"/><path class="j" d="M390.989,1412.279l-.012,1.937-3.286-.16-.109-1.943Z"/><path class="k" d="M387.581,1412.112l-10.439-7.809-.011,1.722,10.559,8.03Z"/><path class="i" d="M384.393,1413.006l-11.421-8.23-2.444.25,10.452,7.814Z"/><path class="j" d="M384.393,1413.006l-.012,1.938-3.291-.16-.109-1.945Z"/><path class="k" d="M380.981,1412.839l-10.452-7.814-.012,1.724,10.573,8.035Z"/><path class="i" d="M376.617,1414.347l-11.438-8.236-2.448.25,10.468,7.82Z"/><path class="j" d="M376.617,1414.347l-.013,1.94-3.3-.16-.109-1.946Z"/><path class="k" d="M373.2,1414.181l-10.468-7.82-.012,1.725,10.589,8.041Z"/><path class="i" d="M369.647,1415.016l-11.454-8.242-2.452.251,10.482,7.825Z"/><path class="j" d="M369.647,1415.016l-.013,1.941-3.3-.16-.109-1.948Z"/><path class="k" d="M366.223,1414.85l-10.482-7.825-.012,1.726,10.6,8.046Z"/><path class="i" d="M363.021,1415.746l-11.469-8.247-2.456.251,10.5,7.83Z"/><path class="j" d="M363.021,1415.746l-.013,1.943-3.306-.159-.109-1.949Z"/><path class="k" d="M359.593,1415.58l-10.5-7.83-.013,1.728,10.617,8.051Z"/><path class="l" d="M98.214,1132.816l95.609,16.432-5.246,139.359-96.495,13.906Z"/><path class="m" d="M182.865,1149.858l10.958-.61-95.609-16.432-.129,3.579Z"/><path class="g" d="M193.823,1149.248l-10.958.61L179.757,1287.2l8.821,1.41Z"/><path class="m" d="M179.757,1287.2l-87.523,11.127-.151,4.188,96.495-13.906Z"/><path class="n" d="M169.432,1176.729l-33.749-11.081v3.544l33.749,11.171Z"/><path class="n" d="M169.432,1184.463l-33.749-11.081v3.544l33.749,11.171Z"/><path class="n" d="M165.111,1177.5l-2.624,25.75-2.364-4.9,2.494-22.116Z"/><path class="n" d="M142.141,1168.5l-2.624,25.75-2.364-4.9,2.494-22.116Z"/><path class="n" d="M160.161,1197.3s-5.363-2.188-7.824.322-2.823,9.174,2.3,9.967,8.6-2.086,8.526-6.7S160.161,1197.3,160.161,1197.3Z"/><path class="n" d="M137.025,1187.928s-5.363-2.188-7.824.323-2.823,9.174,2.3,9.967,8.6-2.086,8.527-6.7S137.025,1187.928,137.025,1187.928Z"/><path class="n" d="M111.916,1244.612l20.993-6.13v1.96l-20.993,6.179Z"/><path class="n" d="M111.916,1248.891l20.993-6.13v1.96l-20.993,6.179Z"/><path class="n" d="M114.6,1245.039l1.632,14.244,1.47-2.711-1.551-12.234Z"/><path class="n" d="M128.892,1240.059l1.632,14.244,1.47-2.711-1.551-12.234Z"/><path class="n" d="M117.683,1255.991s3.336-1.21,4.867.178,1.756,5.075-1.43,5.514-5.349-1.154-5.3-3.7S117.683,1255.991,117.683,1255.991Z"/><path class="n" d="M132.075,1250.807s3.335-1.21,4.866.179,1.756,5.074-1.43,5.513-5.349-1.154-5.3-3.7S132.075,1250.807,132.075,1250.807Z"/><path class="o" d="M131.632,1379.766l-6.575.943s-10.19,3.7-12.969,7.713c0,0,5.175,2.152,13.811.453l.176,1.224,7.282-1.044Z"/><path class="p" d="M125.9,1388.875l.176,1.224,7.282-1.044-.8-4.288v0s-4.843-.182-8.157,1.17-12.315,2.488-12.315,2.488S117.263,1390.574,125.9,1388.875Z"/><path class="q" d="M145.865,1379.962l-2,.286-2.634-1.858-1.49,1.99-3.158.453-2.57-1.407-2.383.342,1.726,9.289,2.32-.333,1.775-2.293,2.992-.232,2,1.555,2.244-2.689,1.869-.268Z"/><path class="r" d="M144.689,1385.063l1.869-.268-.337-2.352c-4.979,1.665-13.659,2.323-13.661,2.324l.8,4.288,2.32-.332,1.776-2.294,2.992-.231,2,1.555Z"/><path class="s" d="M238.681,1457.593s-12.119,18.225-8.327,39.779,13.143,64.764,11.476,70.265-7.953,3.246-9.873-7.7-15.36-77.775-16.691-87.055-17.969-91.081-19.689-95.745c0,0-3.148-10.029-11.216-12.16s-14.361,1.664-23.013,8.3-15.483,6.692-15.483,6.692l.628,4.382a49.908,49.908,0,0,0,15.079-5.845c6.755-4.257,14.579-9.324,20.768-5.608s13.252,59.4,14.305,64.9,8.518,59.42,10.032,67.227,7.8,54.392,9.477,61.517,7.175,24.359,25.921,22.067,21.35-19.9,20.407-26.472-7.113-46.861-6.14-55.682,5.07-21.511,16.064-22.824C272.406,1483.627,262.352,1458.455,238.681,1457.593Z"/><path class="t" d="M189.859,1368.081c4.58,11.4,18.456,97.9,22.239,115.765s11.726,64.624,15.709,78.185,11.278,8.47,11.278,8.47v-.007c-2.516.28-5.826-3.135-7.127-10.562-1.92-10.949-15.36-77.775-16.691-87.055s-17.969-91.081-19.689-95.745A23.381,23.381,0,0,0,189.859,1368.081Z"/><path class="t" d="M246.492,1512.073c3.465,24.058,16.659,71.162-9.615,76.659a25.878,25.878,0,0,0,5.2-.127c18.745-2.293,21.35-19.9,20.407-26.472s-7.113-46.861-6.14-55.682,5.07-21.511,16.064-22.824c0,0-10.054-25.172-33.725-26.034,0,0,14.863,14.2,15.934,19.913S243.027,1488.01,246.492,1512.073Z"/><path class="t" d="M182.34,1372.891c1.937,1.163,3.962,7.42,5.858,15.636,0-.039-.741-14.828-5.734-19.386s-15.751,2.394-20.629,6.3-15.614,7.007-15.614,7.007l.272,1.9a49.908,49.908,0,0,0,15.079-5.845C168.327,1374.242,176.151,1369.175,182.34,1372.891Z"/><path class="u" d="M201.846,1392.325a3.2,3.2,0,1,1-3.645-2.9A3.3,3.3,0,0,1,201.846,1392.325Z"/><path class="u" d="M203.954,1404.519a3.2,3.2,0,1,1-3.644-2.9A3.295,3.295,0,0,1,203.954,1404.519Z"/><path class="u" d="M252.12,1519.509a8.161,8.161,0,1,1-9.237-6.918A8.162,8.162,0,0,1,252.12,1519.509Z"/><path class="v" d="M251.517,1520.209a7.817,7.817,0,1,1-8.8-6.366A7.685,7.685,0,0,1,251.517,1520.209Z"/><path class="u" d="M255.244,1541.3a8.16,8.16,0,1,1-9.236-6.919A8.16,8.16,0,0,1,255.244,1541.3Z"/><path class="v" d="M254.642,1542.006a7.817,7.817,0,1,1-8.806-6.368A7.686,7.686,0,0,1,254.642,1542.006Z"/><path class="u" d="M258.223,1563.117a6.337,6.337,0,1,1-7.172-5.372A6.335,6.335,0,0,1,258.223,1563.117Z"/><path class="v" d="M257.757,1563.662a6.071,6.071,0,1,1-6.838-4.945A5.967,5.967,0,0,1,257.757,1563.662Z"/><path class="w" d="M200.2,1463.857l3.2,1.835a6.275,6.275,0,0,1,.681,4.753l-2.518,2.894Z"/><path class="u" d="M198.2,1468.982c.391,2.728,1.642,4.806,2.795,4.641s1.768-2.511,1.377-5.239-1.643-4.807-2.794-4.642S197.813,1466.253,198.2,1468.982Z"/><path class="v" d="M197.238,1469.12c.392,2.729,1.642,4.807,2.794,4.642s1.769-2.511,1.377-5.24-1.642-4.807-2.793-4.642S196.847,1466.391,197.238,1469.12Z"/><path class="w" d="M195.286,1439.568l3.2,1.835a6.276,6.276,0,0,1,.681,4.752l-2.519,2.894Z"/><path class="u" d="M193.3,1444.692c.391,2.728,1.643,4.806,2.795,4.641s1.769-2.512,1.377-5.239-1.643-4.807-2.794-4.642S192.9,1441.964,193.3,1444.692Z"/><path class="v" d="M192.331,1444.83c.391,2.728,1.642,4.807,2.793,4.642s1.769-2.512,1.378-5.24-1.644-4.807-2.795-4.642S191.94,1442.1,192.331,1444.83Z"/><path class="w" d="M216.009,1566.444l3.821,2.193a7.5,7.5,0,0,1,.815,5.682l-3.011,3.461Z"/><path class="u" d="M213.628,1572.57c.468,3.261,1.964,5.748,3.342,5.55s2.113-3,1.646-6.265-1.964-5.747-3.34-5.55S213.161,1569.308,213.628,1572.57Z"/><path class="v" d="M212.474,1572.735c.467,3.262,1.962,5.748,3.34,5.551s2.114-3,1.646-6.265-1.964-5.747-3.34-5.55S212.006,1569.474,212.474,1572.735Z"/><path class="w" d="M216.58,1471.389l-3.052,3.179a7.5,7.5,0,0,0,.815,5.682l3.862,2.476Z"/><path class="u" d="M220.585,1476.6c.468,3.261-.27,6.068-1.647,6.265s-2.873-2.289-3.34-5.549.27-6.068,1.646-6.266S220.118,1473.338,220.585,1476.6Z"/><path class="v" d="M221.74,1476.435c.467,3.26-.269,6.067-1.646,6.264s-2.873-2.289-3.34-5.549.269-6.068,1.647-6.265S221.272,1473.172,221.74,1476.435Z"/><path class="w" d="M213.6,1458.823l-3.051,3.18a7.507,7.507,0,0,0,.815,5.682l3.862,2.475Z"/><path class="u" d="M217.606,1464.034c.468,3.262-.27,6.068-1.648,6.266s-2.873-2.289-3.34-5.55.27-6.068,1.646-6.265S217.138,1460.771,217.606,1464.034Z"/><path class="v" d="M218.76,1463.869c.468,3.261-.268,6.068-1.646,6.265s-2.873-2.289-3.341-5.55.27-6.067,1.647-6.265S218.292,1460.606,218.76,1463.869Z"/><path class="w" d="M211.584,1446.085l-3.052,3.178a7.51,7.51,0,0,0,.815,5.683l3.862,2.475Z"/><path class="u" d="M215.59,1451.3c.468,3.261-.271,6.066-1.648,6.264s-2.873-2.288-3.34-5.549.27-6.067,1.647-6.265S215.122,1448.033,215.59,1451.3Z"/><path class="v" d="M216.745,1451.13c.467,3.261-.269,6.067-1.647,6.264s-2.872-2.288-3.34-5.549.27-6.067,1.646-6.264S216.277,1447.868,216.745,1451.13Z"/><path class="w" d="M208.8,1432.534l-3.053,3.178a7.515,7.515,0,0,0,.815,5.683l3.863,2.475Z"/><path class="u" d="M212.807,1437.744c.468,3.262-.271,6.067-1.648,6.265s-2.873-2.288-3.34-5.55.27-6.067,1.646-6.264S212.339,1434.482,212.807,1437.744Z"/><path class="v" d="M213.962,1437.579c.467,3.261-.269,6.067-1.647,6.264s-2.873-2.288-3.34-5.549.269-6.068,1.647-6.265S213.494,1434.316,213.962,1437.579Z"/><path class="w" d="M223.483,1511.2l-3.2,3.6a9.234,9.234,0,0,0,.933,6.509l4.13,2.878Z"/><path class="u" d="M227.8,1517.2c.536,3.737-.214,6.936-1.673,7.146s-3.077-2.651-3.613-6.389.213-6.936,1.673-7.145S227.263,1513.468,227.8,1517.2Z"/><path class="v" d="M229.022,1517.029c.536,3.738-.214,6.937-1.673,7.146s-3.076-2.65-3.612-6.388.213-6.937,1.671-7.146S228.486,1513.293,229.022,1517.029Z"/><path class="w" d="M226.415,1527.764l-3.2,3.6a9.238,9.238,0,0,0,.934,6.509l4.129,2.878Z"/><path class="u" d="M230.73,1533.772c.535,3.738-.215,6.937-1.674,7.146s-3.076-2.65-3.612-6.388.213-6.937,1.672-7.146S230.194,1530.036,230.73,1533.772Z"/><path class="v" d="M231.953,1533.6c.536,3.737-.213,6.936-1.673,7.146s-3.075-2.651-3.611-6.389.213-6.936,1.671-7.145S231.418,1529.86,231.953,1533.6Z"/><path class="w" d="M220.449,1494.794l-3.2,3.6a9.231,9.231,0,0,0,.933,6.508l4.13,2.878Z"/><path class="u" d="M224.764,1500.8c.536,3.738-.215,6.937-1.673,7.146s-3.077-2.65-3.613-6.388.213-6.936,1.672-7.146S224.228,1497.066,224.764,1500.8Z"/><path class="v" d="M225.987,1500.627c.536,3.738-.213,6.937-1.673,7.146s-3.075-2.651-3.611-6.388.213-6.937,1.671-7.146S225.452,1496.891,225.987,1500.627Z"/><path class="w" d="M229.315,1544.042l-3.2,3.6a9.231,9.231,0,0,0,.933,6.508l4.13,2.879Z"/><path class="u" d="M233.63,1550.05c.535,3.737-.215,6.936-1.673,7.145s-3.077-2.65-3.613-6.388.213-6.936,1.672-7.145S233.094,1546.313,233.63,1550.05Z"/><path class="v" d="M234.853,1549.874c.536,3.738-.213,6.937-1.673,7.146s-3.075-2.651-3.611-6.388.213-6.937,1.671-7.146S234.318,1546.138,234.853,1549.874Z"/><path class="x" d="M845.407,1542.792s-15.613,3.3-20.5,5.692-5.006-10.219-5.275-10.739,4.727-10.98,4.727-10.98,2.715,5.881,21.943,1.18S845.407,1542.792,845.407,1542.792Z"/><path class="y" d="M876.507,1512.113c-9.388,1.3-25.565,9.772-32.109,12.282s-.591,28.713-.591,28.713,45.886,4.763,68.256-.307c9.526-2.156,16.564,8.484,45.465,5.795a110.362,110.362,0,0,1,24.633.3c13.211,1.716,21.4,5.46,27.4,5.9,9.082.665,14.234-11.47,15.739-17.845s-14.524-32.94-14.524-32.94a206.006,206.006,0,0,0-20.667-4c-18.941-2.927-45.055-5.441-54.588-.558-5.954,3.054-24.236,4.694-28.41,3.922S885.9,1510.817,876.507,1512.113Z"/><path class="z" d="M964.984,1507.11c-.079,6.727-4.4,17.643-17.594,21.809-37.048,11.7-67.051,19.341-66.819,26.206,18.9-.666,103.49,8.154,109.5,8.6,9.082.665,14.234-11.469,15.739-17.844s-14.524-32.941-14.524-32.941A264.467,264.467,0,0,0,964.984,1507.11Z"/><g class="aa"><path class="g" d="M931.534,1525.337l-.555-.193-5.3-1.844-8.872-3.085q.028-.452.023-.914c0-.2-.01-.4-.02-.594l8.052,3.4,6.855,2.909C931.656,1525.121,931.594,1525.229,931.534,1525.337Z"/><path class="g" d="M930.716,1526.848l-2-.7-4.23-1.47-7.93-2.756a9.435,9.435,0,0,0,.209-1.183l7.069,2.983,6.14,2.606.829.355Z"/><path class="g" d="M916.381,1522.525c2.521,1.062,12.43,5.239,13.608,5.777l-.006.012-13.388-4.65-.385-.669C916.271,1522.84,916.329,1522.683,916.381,1522.525Z"/><path class="g" d="M928.128,1529.195c-.267-.156-11.419-4.85-11.419-4.85l.635,1.106Z"/><path class="g" d="M926.486,1529.994c-.214-.125-9.119-3.873-9.119-3.873l.505.884Z"/><path class="g" d="M925.371,1530.692c-.17-.1-7.285-3.095-7.285-3.095l.4.707Z"/><path class="g" d="M921.848,1517.839l-2.7,14.072q-.7-.035-1.407-.041c.948-3.82,2.342-9.433,3.553-14.276Z"/><path class="g" d="M923.446,1518.537l-2.6,13.516q-.588-.07-1.177-.11c.8-3.207,2.23-8.985,3.379-13.579Z"/><path class="g" d="M924.976,1519.217l-2.388,12.431-.589.571q-.264-.045-.528-.084c.549-2.212,2.138-8.621,3.245-13.035Z"/><path class="g" d="M926.325,1519.847l-2.013,10.481-1.049,1.019s1.808-7.3,2.884-11.585Z"/><path class="g" d="M927.531,1520.447l-1.705,8.873-.839.815s1.59-6.418,2.428-9.747Z"/><path class="g" d="M928.5,1520.824l-1.43,7.443-.671.652s1.379-5.57,2.022-8.114Z"/></g><path class="ab" d="M801.4,1495.539c.025,5.92,2.535,17.56,4.194,26.05v.007c.058.27.106.521.156.778.855,4.429,1.442,7.88,1.248,8.992-.025.121-.039.269-.057.445-.044.438-.079,1.04-.089,1.772-.112,6.593,1.193,23.4,6.229,22.912a12.409,12.409,0,0,0,2.835-.67c.2-.069.4-.138.6-.221.013-.008.02-.009.032-.018.265-.1.535-.206.8-.327.006-.007.006-.007.013-.008,4.969-2.188,9.941-6.511,9.361-7.237-7.766-9.719-1.738-21.1-.334-23.476.175-.295.279-.448.279-.448s-.083-.4-.264-1.153c-.1-.409-.24-.933-.4-1.55-.088-.336-.186-.7-.3-1.093-.04-.133-.072-.268-.118-.4q-.129-.483-.288-1.024c-.052-.173-.1-.347-.164-.533v-.007q-.442-1.473-1.043-3.277c-.25-.751-.518-1.535-.813-2.363-.436-1.247-.934-2.583-1.476-4-.06-.131-.128-.267-.194-.4-.326-.7-.677-1.381-1.034-2.048a45.285,45.285,0,0,0-4.052-6.289l-.008-.006C809.471,1490.829,801.36,1488.236,801.4,1495.539Z"/><path class="ac" d="M816.508,1499.953a14.034,14.034,0,0,1-8.756,11.367s1.468,4.442,2.939,9.5c.122.435.247.884.371,1.333.23.809.462,1.632.679,2.451.188.7.368,1.4.538,2.081.939,3.778,1.546,7.073,1.184,8.222-.976,3.11-1.918,21.721,2.449,20.916a2.2,2.2,0,0,0,.6-.221c.013-.008.02-.009.032-.018a5.269,5.269,0,0,1,.8-.327c.006-.007.006-.007.013-.008,4.969-2.188,9.941-6.511,9.361-7.237-7.766-9.719-1.738-21.1-.334-23.476.175-.295.279-.448.279-.448s-.083-.4-.264-1.153c-.1-.409-.24-.933-.4-1.55-.088-.336-.186-.7-.3-1.093-.04-.133-.072-.268-.118-.4q-.129-.483-.288-1.024c-.052-.173-.1-.347-.164-.533v-.007q-.442-1.473-1.043-3.277c-.25-.751-.518-1.535-.813-2.363-.436-1.247-.934-2.583-1.476-4-.06-.131-.128-.267-.194-.4-.326-.7-.677-1.381-1.034-2.048a45.285,45.285,0,0,0-4.052-6.289Z"/><path class="ad" d="M825.293,1518.869c-.157.223-.384.54-.685.929a20.488,20.488,0,0,1-3.658,3.773,9.654,9.654,0,0,1-1.494.964c-.2.1-.411.2-.622.281l.759,1.918a10.533,10.533,0,0,0,2.436-1.393h.007a15.455,15.455,0,0,0,1.4-1.174,23.047,23.047,0,0,0,2.557-2.779c-.088-.336-.186-.7-.3-1.093-.04-.133-.072-.268-.118-.4Q825.452,1519.41,825.293,1518.869Z"/><path class="ad" d="M823.272,1512.689c-.914,1.287-3.5,4.627-6.308,5.731l.76,1.925c2.637-1.038,4.98-3.559,6.361-5.293C823.835,1514.3,823.567,1513.517,823.272,1512.689Z"/><path class="ad" d="M820.568,1506.248c-1.14,1.514-3.436,4.222-5.915,5.2l.758,1.919c2.533-.989,4.794-3.353,6.191-5.068C821.276,1507.6,820.925,1506.915,820.568,1506.248Z"/><path class="h" d="M811.741,1524.606a8.48,8.48,0,0,0-.814,1.753,11.805,11.805,0,0,1-3.99,5.452c-1.934,1.5-4,2.165-5.168,1.9l-.308,1.343a7.7,7.7,0,0,0,5.387-1.467,13.328,13.328,0,0,0,5.385-6.778c.015-.037.03-.081.046-.118,1.3-3.642,3.4-3.362,7.177-2.152q.327.1.677.219c.415.138.838.274,1.259.4.218.067.434.127.644.182a4.859,4.859,0,0,0,3.712-.3,3.207,3.207,0,0,0,.634-.5c.175-.295.279-.448.279-.448s-.083-.4-.264-1.153l-.564-.11a1.753,1.753,0,0,1-.809,1.044,2.773,2.773,0,0,1-1.586.3,6.8,6.8,0,0,1-1.636-.316l-.852-.279c-.131-.045-.261-.082-.386-.128C817.236,1522.352,813.806,1521.227,811.741,1524.606Z"/><path class="h" d="M817.408,1516.294a25.74,25.74,0,0,0-3.219,2.217,18.614,18.614,0,0,1-3.5,2.311,5.942,5.942,0,0,1-4.858.122l-.244.645v.007l-.239.638c.132.051.264.1.395.14a7.17,7.17,0,0,0,5.316-.219,19.108,19.108,0,0,0,3.966-2.55,23.542,23.542,0,0,1,3.04-2.1,3.731,3.731,0,0,1,1.1-.389,4.225,4.225,0,0,1,2.635.45,9.668,9.668,0,0,1,2.8,2.234c.264.3.416.492.424.505l.549-.41q-.129-.483-.288-1.024c-.052-.173-.1-.347-.164-.533v-.007a11.063,11.063,0,0,0-2.307-1.8,6.615,6.615,0,0,0-2.111-.787A4.933,4.933,0,0,0,817.408,1516.294Z"/><path class="x" d="M881.969,1584.979s-14.523,6.613-18.773,10.01-7.107-8.887-7.483-9.336,2.229-11.745,2.229-11.745,3.927,5.15,21.675-3.616S881.969,1584.979,881.969,1584.979Z"/><path class="y" d="M1046.869,1566.783c-6.1.9-15.186-1.1-28.988.283a111.153,111.153,0,0,0-23.152,4.969c-23.9,7.71-34,2.113-42.008,3.174a12,12,0,0,0-3.63,1.049c-20.734,9.808-66.558,15.129-66.558,15.129s-1-2.125-2.27-5.211c-3.019-7.365-7.509-20.223-3.392-22.945,5.842-3.871,19.791-15.66,28.673-18.965s25.9-5.264,30.15-5.419,21.731-5.726,26.88-10c5.879-4.877,20.8-7.906,35.807-9.707,17.391-2.083,34.909-2.5,38.64-2.192,0,0,21.412,22.451,21.335,29S1055.879,1565.459,1046.869,1566.783Z"/><path class="z" d="M1046.869,1566.783c-6.1.9-10.845-1.433-24.647-.054-1.6-6.914-5.342-16.516-5.488-26.169-.125-8.081-10.337-16.15-18.353-21.421,17.391-2.083,34.909-2.5,38.64-2.192,0,0,21.412,22.451,21.335,29S1055.879,1565.459,1046.869,1566.783Z"/><g class="aa"><path class="g" d="M996.567,1545.342l-.87-.317-8.306-3.03-13.9-5.073q-.415.58-.883,1.138-.3.358-.617.706l13.215,3.874,11.266,3.278C996.5,1545.725,996.533,1545.533,996.567,1545.342Z"/><path class="g" d="M997.073,1542.682l-3.139-1.146-6.629-2.419-12.426-4.537a14.756,14.756,0,0,1-.923,1.652l11.6,3.4,10.091,2.937,1.366.393C997.033,1542.869,997.054,1542.775,997.073,1542.682Z"/><path class="g" d="M975.268,1533.677c4.135,1.215,20.392,5.988,22.367,6.506l.005-.022-20.976-7.66-1.137.433C975.448,1533.184,975.363,1533.432,975.268,1533.677Z"/><path class="g" d="M996.253,1537.239c-.482-.076-18.771-5.456-18.771-5.456l1.877-.718Z"/><path class="g" d="M995.045,1534.627c-.385-.06-14.991-4.357-14.991-4.357l1.5-.576Z"/><path class="g" d="M994.379,1532.665c-.307-.047-11.976-3.48-11.976-3.48l1.2-.462Z"/><path class="g" d="M977.274,1544.845l10.72-19.872q-.894-.656-1.759-1.35c-2.648,5.606-6.538,13.847-9.886,20.965Z"/><path class="g" d="M979.92,1545.585l10.3-19.086q-.786-.5-1.546-1.038c-2.224,4.706-6.229,13.188-9.4,19.942Z"/><path class="g" d="M982.465,1546.278l9.469-17.553-.149-1.284q-.367-.207-.729-.423c-1.534,3.246-5.979,12.653-9.025,19.144Z"/><path class="g" d="M984.74,1546.853l7.984-14.8-.265-2.289s-5.067,10.713-8.022,17.015Z"/><path class="g" d="M986.809,1547.322l6.759-12.529-.213-1.83s-4.454,9.417-6.747,14.316Z"/><path class="g" d="M988.373,1547.831l5.669-10.51-.17-1.465s-3.865,8.174-5.616,11.92Z"/></g><path class="ae" d="M949.091,1576.258c-20.734,9.808-66.558,15.129-66.558,15.129s-1-2.125-2.27-5.211c.462-.121-1.566-5.443-1.039-5.3,21.779,5.9,53.556-3.845,62.166-5.1,1.983-.29,7.932-1.4,11.331-.564A12,12,0,0,0,949.091,1576.258Z"/><path class="ab" d="M827.955,1549.364c1.311,5.773,6.29,16.59,9.754,24.517l0,.006c.116.251.218.485.322.726,1.8,4.137,3.12,7.378,3.172,8.505,0,.124.02.272.041.448.052.436.149,1.032.3,1.748,1.323,6.46,6.248,22.581,11.058,21.012a12.453,12.453,0,0,0,2.622-1.27c.179-.111.358-.221.533-.345.01-.011.017-.014.027-.025.237-.154.477-.317.713-.493,0-.009,0-.009.011-.011,4.374-3.215,8.289-8.515,7.565-9.1-9.692-7.8-6.283-20.224-5.427-22.842.106-.326.175-.5.175-.5s-.168-.371-.508-1.067c-.192-.377-.437-.859-.729-1.427-.159-.308-.334-.64-.527-1-.068-.122-.128-.247-.2-.366q-.231-.444-.5-.937c-.089-.159-.177-.317-.276-.486l0-.006q-.751-1.341-1.73-2.972c-.407-.679-.839-1.385-1.307-2.13-.7-1.122-1.472-2.318-2.309-3.579-.087-.115-.183-.234-.276-.346-.47-.612-.961-1.2-1.454-1.774a45.231,45.231,0,0,0-5.322-5.259l-.009,0C834.815,1543.012,826.335,1542.243,827.955,1549.364Z"/><path class="ac" d="M843.666,1550.389a14.033,14.033,0,0,1-6.077,13s2.4,4.017,4.933,8.637c.215.4.433.809.653,1.22.4.74.8,1.493,1.2,2.244.336.647.663,1.29.977,1.915,1.737,3.484,3.046,6.568,2.941,7.768-.276,3.248,2.848,21.619,6.936,19.885a2.212,2.212,0,0,0,.533-.345c.01-.011.017-.014.027-.025a5.268,5.268,0,0,1,.713-.493c0-.009,0-.009.011-.011,4.374-3.215,8.289-8.515,7.565-9.1-9.692-7.8-6.283-20.224-5.427-22.842.106-.326.175-.5.175-.5s-.168-.371-.508-1.067c-.192-.377-.437-.859-.729-1.427-.159-.308-.334-.64-.527-1-.068-.122-.128-.247-.2-.366q-.231-.444-.5-.937c-.089-.159-.177-.317-.276-.486l0-.006q-.751-1.341-1.73-2.972c-.407-.679-.839-1.385-1.307-2.13-.7-1.122-1.472-2.318-2.309-3.579-.087-.115-.183-.234-.276-.346-.47-.612-.961-1.2-1.454-1.774a45.231,45.231,0,0,0-5.322-5.259Z"/><path class="ad" d="M856.352,1566.945c-.1.252-.258.61-.467,1.055a20.557,20.557,0,0,1-2.751,4.478,9.709,9.709,0,0,1-1.249,1.265c-.174.146-.359.281-.546.409l1.157,1.708a10.5,10.5,0,0,0,2.075-1.889l.007,0a15.481,15.481,0,0,0,1.114-1.451,23.018,23.018,0,0,0,1.892-3.269c-.159-.308-.334-.64-.527-1-.068-.122-.128-.247-.2-.366Q856.624,1567.438,856.352,1566.945Z"/><path class="ad" d="M853.036,1561.351c-.612,1.455-2.409,5.276-4.912,6.965l1.16,1.714c2.349-1.587,4.088-4.556,5.059-6.549C853.936,1562.8,853.5,1562.1,853.036,1561.351Z"/><path class="ad" d="M849,1555.652c-.783,1.725-2.436,4.867-4.645,6.358l1.157,1.708c2.258-1.516,3.951-4.314,4.942-6.292C849.981,1556.814,849.49,1556.226,849,1555.652Z"/><path class="af" d="M1046.752,1385.049s-24.511-.351-26.612-9.8-2.452-14.612,0-20.087-14.007,6.08-14.007,6.08,1.751,7.354,0,12.957-5.6,5.715-11.555,5.133,0,18.328,0,18.328,21.324,2.312,22.917,3.082,23.655.28,24.7,0S1046.752,1385.049,1046.752,1385.049Z"/><path class="ag" d="M1054.139,1531.986c-1,.075-5.746-1.924-13.341,2.893s-15.359,12.348-21.106,11.191-1.9-7.71,1.427-9.147c2.993-1.295,8.643-2.979,7.42-5.127s-3.889-1.905-6.575.008-4.829.069-3.907-1,7.581-4.9,9.188-5.216c1.188-.238,6.59,1.389,9.426.7s14.11-4.425,14.11-4.425Z"/><path class="ah" d="M1103.024,1442.651q-1.233,4.275-2.746,8.982a71.42,71.42,0,0,1-13.293,24.448q-1.872,2.229-3.873,4.226a68.992,68.992,0,0,1-8.762,7.429l-2.131-9.207.377,3.331.743,6.594,12.125,75.294s-49.474,14.223-77.633,1.485c-42.368-19.166-52.043-58.123-52.043-58.123l9.486-19.332.883-5.127.122-1.254s-4.945,9.663-13.536,12.684-18.311,3.976-30.27-1.608c-13.4-6.266-26.269-43.556-26.269-43.556s14.407-11.594,23.218-38.654c5.243-17.622,10.425-22.2,21.051-28.364,27.127-15.734,51.271-7.063,52.507-5.5.055.073.11.146.17.219.007.006.013.012.013.018.493.676,1.029,1.614,1.79,2.734,1.973,2.911,5.4,7.033,13.153,10.772.243.122.493.237.742.353a11.661,11.661,0,0,0,4.963,1.157q.3,0,.6-.018c.2-.012.4-.031.6-.055h.006c.183-.018.365-.049.542-.079a.231.231,0,0,0,.073-.012c.146-.025.292-.055.432-.086.177-.036.347-.079.518-.127.116-.031.231-.067.341-.1.262-.079.517-.17.767-.268.1-.042.213-.079.317-.128a14.479,14.479,0,0,0,2.764-1.546c.11-.073.213-.147.317-.226a19.455,19.455,0,0,0,1.51-1.23c.1-.079.189-.17.286-.261.189-.171.371-.348.554-.524l.457-.457c.2-.213.4-.42.591-.633.176-.183.34-.365.493-.548.487-.554.944-1.1,1.37-1.632.134-.171.262-.335.384-.5.365-.463.706-.908,1.01-1.316a22.048,22.048,0,0,1,1.553-1.93c.037-.036.067-.073.1-.1a1.438,1.438,0,0,1,.359-.268,101.33,101.33,0,0,1,11.033-4.287.108.108,0,0,0,.031-.006c.846-.116,19.3-2.527,35.908,6.564,12.282,6.71,23.553,19.711,25.958,44.573A112.081,112.081,0,0,1,1103.024,1442.651Z"/><path class="ai" d="M1018.685,1412.9l-13.745,27.85-30.734,4.466,22.24,21.678-5.25,30.61,27.49-14.452,27.49,14.452-5.25-30.61,22.24-21.678-30.734-4.466Z"/><path class="aj" d="M1067.029,1512.926c3.8,4.749,12.743,23.693,15.562,33l-12.146-80.822-2.344-10.419c-14.614-13.11-47.912,30.2-49.416,41.811S1061.872,1506.477,1067.029,1512.926Z"/><path class="aj" d="M1008.1,1390.139c3.476,4.507,11.612,9.14,16.282,6.084,6.893-4.506,19.218-4.512,21.367-15.041.853-4.165-1.638-5.626-4.957-5.864a101.366,101.366,0,0,0-11.033,4.287c-1.9.865-9.164,16.331-20.917,10.888C1008.6,1390.377,1008.347,1390.261,1008.1,1390.139Z"/><path class="ag" d="M956.09,1496.493a8.724,8.724,0,0,0-.6.829Z"/><path class="ah" d="M1103.024,1442.651q-1.233,4.275-2.746,8.982a71.42,71.42,0,0,1-13.293,24.448l-16.69-55.521,13.365-11.046,19.035,16.934A112.081,112.081,0,0,1,1103.024,1442.651Z"/><path class="aj" d="M939.218,1466.876s12.183,9.316,3.988,17.241-9.249-13.567-9.249-13.567l4.133-3.674Z"/><path class="x" d="M888.971,1468.216c-.955.249-13.008.259-17.494,2.991s-10.8,7.334-13.52,8.211c-3.2,1.031-2.85,2.824,1.107,2,2.572-.534,7.492-2.094,8.374-2.715.428-.3-2.6,1.331-6.111,2.827-3.727,1.591-7.943,3.085-7.555,3.927.754,1.634,12.036-2.221,13.775-3.232a39.163,39.163,0,0,1-4.636,2.595c-2.2,1.033-4.989,1.849-5.028,2.687-.062,1.32,6.484.037,10.919-2.319.193.112-.874,1.36-6.405,3.718-.556.237-1.533,1.423.666,1.151,4.628-.572,6.741-.426,11.493-3.857,4.633-3.346,8.654-8.382,13.206-10.221Z"/><path class="x" d="M949.554,1442.45a79.666,79.666,0,0,0-19.294,1.413,5.876,5.876,0,0,1-3.872,3.98l-.023.007c2.385,1.335,4.207,2.025,3.376,1.7-15.877,4.2-34.717,14.25-43.785,18.394l-.8.21a22.988,22.988,0,0,1,6.645,7.217c11.318-1.363,36.221-2.045,56.013-8.977C959.8,1462.2,954.961,1451.82,949.554,1442.45Z"/><path class="x" d="M887.762,1475.982l8.639-1-8.731-7.8s-.223.768-5.738,1.553-.006,5.557-.006,5.557Z"/><path class="x" d="M875.209,1470.714s-6.9-1.953-11.423.283c-2.686,1.329-3.171.547-3.734.631-1.867.276,1.677,2.387,4.256,1.665,2.1-.587,5.535,2.192,7.05,2.188s5.423-.869,5.8-1.9S875.209,1470.714,875.209,1470.714Z"/><path class="ak" d="M995.272,1357.24c4.878,1.972,4.8.118,3.135,7.544-.191,4.294,4.636,1.5,9.016,1.126a7.565,7.565,0,0,1,2.711.176c2.556.461,6.116-1.221,9.6-2.643,6.339-4.85,11.2-.414,6.958-7.139-.08-.073-.168-.141-.238-.219-5.09-4.792,7.634-5.159,2.638-9.141-5.68.616,5.6-3.046-2.643-9.6-6.879-.742,1.987-9.957-7.139-6.958-2.4-2.869-8.66,3.687-9.351-2.405-3.687-1.319-6.879,2.573-9.61,2.649-9.316,3-2.169,7.229-6.949,7.133-5.566,1.173-3.242,7.875-2.414,9.356C990.018,1351.56,988.172,1361.433,995.272,1357.24Z"/><path class="al" d="M1007.423,1365.91a7.565,7.565,0,0,1,2.711.176c2.556.461,6.116-1.221,9.6-2.643,6.339-4.85,11.2-.414,6.958-7.139-.08-.073-.168-.141-.238-.219-2.483.9-5.015,1.3-6.058-.471-4.708-7.979-14.692-3.3-14.692-3.3s.635,6.938.822,7.621C1006.625,1360.289,1007.039,1363.084,1007.423,1365.91Z"/><path class="x" d="M1002.946,1343.9s-11.671,3.651-4.619,15.588,9.148,12.732,16.055,3.77S1013.516,1338.387,1002.946,1343.9Z"/><path class="aj" d="M1013.418,1490.678c8.593-4.807,25.395-14.806,25.395-14.806l-8.4-47.806S1004.825,1473.411,1013.418,1490.678Z"/><path class="ah" d="M918.182,1444.252s26,16.458,22.954,35.2,16.153,9.146,16.153,9.146l11.749-28.8-7.761-13.755L943.61,1430Z"/><rect class="a" width="3.211" height="2.569" transform="matrix(0.678, -0.735, 0.735, 0.678, 910.608, 1448.435)"/><rect class="a" width="2.569" height="2.569" transform="matrix(0.678, -0.735, 0.735, 0.678, 905.82, 1453.629)"/><rect class="a" width="2.569" height="9.633" transform="matrix(0.678, -0.735, 0.735, 0.678, 895.905, 1444.488)"/><path class="a" d="M932.646,1414.6l.175.161c3.615,3.333,4.631,9.3,1.3,12.911l-4.013,4.352c-.324-.595-1.353-.924-1.817-1.352l-.025-.023c-1.979-1.825-4.6-2.06-6.423-.081L913,1440.158l-7.082-6.529,19.418-21.064A7.446,7.446,0,0,1,932.646,1414.6Z"/><path class="a" d="M926.828,1432.737a1.344,1.344,0,0,1-.1,2.007l-9.005,9.767-1.888-1.741,9-9.767A1.344,1.344,0,0,1,926.828,1432.737Z"/><rect class="a" width="3.211" height="9.633" transform="matrix(0.678, -0.735, 0.735, 0.678, 900.693, 1439.294)"/><path class="a" d="M885.225,1470.284a8.6,8.6,0,0,1-1.313-.981,7.93,7.93,0,0,1-.349-11.427l9.295-10.083,7.082,6.529Z"/><path class="a" d="M894.3,1469.912c-1.943,1.159-3.6,2.006-5.321,1.981l13.791-14.959,1.889,1.741Z"/><path class="a" d="M886.238,1478.66a1.307,1.307,0,1,1-1.889-1.742l2.094-2.27a14.627,14.627,0,0,0,3.368.136Z"/><rect class="m" width="3.211" height="1.284" transform="matrix(0.678, -0.735, 0.735, 0.678, 899.749, 1438.424)"/><path class="m" d="M894.3,1469.912l-4.492,4.872a14.627,14.627,0,0,1-3.368-.136l2.539-2.755C890.706,1471.918,892.36,1471.071,894.3,1469.912Z"/><path class="m" d="M923.572,1409.741l14.18-15.381c-.122.133.315.673.673,1a3.035,3.035,0,0,0,2.045.786l-11.748,12.743A10.948,10.948,0,0,0,923.572,1409.741Z"/><path class="m" d="M925.335,1412.565l-19.418,21.064-.945-.871,15.927-17.275A12.814,12.814,0,0,1,925.335,1412.565Z"/><path class="m" d="M896.7,1441.729l.944.87-1.741,1.889-1.25-1.153c.413-.492,1.368-.869,1.647-1.172Z"/><path class="m" d="M891.825,1446.841l1.033.952-9.295,10.083a7.93,7.93,0,0,0,.349,11.427,8.6,8.6,0,0,0,1.313.981l-2.271,2.463a12.616,12.616,0,0,1-1.491-1.173,11.581,11.581,0,0,1-3.777-8.346c6.4-7.415,11.79-13.612,13.684-15.811A4.9,4.9,0,0,0,891.825,1446.841Z"/><path class="am" d="M829.8,1491.068c4.041.681,8.933,1.45,16.874-5.41s36.4-36.187,41.405-41.271a6.146,6.146,0,0,1,.529-.509l3.213,2.963a5.981,5.981,0,0,1-.464.568c-1.9,2.2-7.394,8.5-13.8,15.917-9.354,10.831-20.355,23.729-24.031,28.757-6.192,8.471-5,13.256-4,17.228.733,2.892,1.332,6.1-1.76,4.54a49.94,49.94,0,0,1-22.369-20.642C823.6,1490.254,826.862,1490.573,829.8,1491.068Z"/><rect class="am" width="3.211" height="3.211" transform="matrix(0.678, -0.735, 0.735, 0.678, 897.388, 1436.247)"/><path class="an" d="M896.7,1441.729l-.4.434c-.279.3-1.234.68-1.647,1.172l-2.779-2.561a7.418,7.418,0,0,0,1.978-.693l.487-.529Z"/><rect class="am" width="3.211" height="3.853" transform="matrix(0.678, -0.735, 0.735, 0.678, 907.775, 1445.824)"/><rect class="am" width="2.569" height="3.853" transform="matrix(0.678, -0.735, 0.735, 0.678, 907.709, 1455.37)"/><rect class="am" width="2.569" height="3.853" transform="matrix(0.678, -0.735, 0.735, 0.678, 902.987, 1451.017)"/><rect class="am" width="3.211" height="3.853" transform="matrix(0.678, -0.735, 0.735, 0.678, 912.497, 1450.177)"/><path class="am" d="M917.72,1444.511l9.005-9.767a1.307,1.307,0,1,0-1.889-1.741l-9,9.767L913,1440.158l8.842-9.591c1.824-1.979,4.444-1.744,6.423.081l.025.023c.464.428,1.493.757,1.817,1.352l4.013-4.352c3.333-3.616,2.317-9.578-1.3-12.911l-.175-.161a7.788,7.788,0,0,0-7.384-1.946,8.642,8.642,0,0,0-4.363,2.83l-15.927,17.275-2.36-2.176,15.926-17.275a12.308,12.308,0,0,1,4.894-3.7,11.015,11.015,0,0,1,11.391,2.627l.175.161c4.964,4.578,6.059,12.484,1.481,17.449l-7.084,7.684-8.842,9.59Z"/><path class="am" d="M899.94,1454.322l2.833,2.612-13.791,14.959-2.539,2.755-2.094,2.27a1.307,1.307,0,1,0,1.889,1.742l3.573-3.876,4.492-4.872,10.359-11.237,2.833,2.612-15.982,17.335-2.628,2.851a5.781,5.781,0,0,1-7.606.191l-.025-.023c-1.98-1.826-1.75-5.152.076-7.132l1.624-1.762,2.271-2.463Z"/><path class="am" d="M896.149,1428.117l-1.306,1.416-1.416-1.306,3.047-3.3,1.416,1.306-.871.944,1.416,1.306-.871.944Z"/><path class="m" d="M914.424,1447.585l-2.272-2.094-2.271-2.094-7.194-6.631-1.136-1.048-2.65-2.443-1.808-1.667a1.134,1.134,0,0,1-.065-1.6l.812-.881.7-.757h0a1.134,1.134,0,0,1,1.6-.065l1.808,1.667,2.65,2.443,1.136,1.048,7.194,6.631,2.271,2.094,2.272,2.094,2.649,2.443,4.528,4.174a2.137,2.137,0,0,1,.122,3.02h0a2.357,2.357,0,0,1-3.331.136l-4.366-4.025Z"/><path class="am" d="M891.361,1433.311l-1.741,1.889-1.416-1.306,3.047-3.305,1.416,1.306-.435.472,1.416,1.306-.871.944Z"/><path class="m" d="M909.2,1453.251l-2.272-2.094-2.271-2.094-7.193-6.632-1.136-1.047-2.65-2.443-.989-.912a2.247,2.247,0,0,1-.129-3.176l.394-.428,1.047-1.136.082-.089,2.642,2.436,2.65,2.443,1.136,1.047,7.193,6.632,2.271,2.094,2.272,2.094,2.65,2.443,4.446,4.1a2.247,2.247,0,0,1,.129,3.176h0a2.247,2.247,0,0,1-3.176.129l-4.446-4.1Z"/><path class="am" d="M886.137,1438.977l-1.306,1.416-1.416-1.306,3.047-3.305,1.416,1.306-.871.944,1.417,1.306-.871.944Z"/><path class="m" d="M904.412,1458.445l-2.272-2.095-2.271-2.093-7.193-6.632-.851-.784-3.213-2.963-.711-.655a2.247,2.247,0,0,1-.129-3.176l.3-.321,1.047-1.136.181-.2,2.581,2.38,2.779,2.561,1.068.985,7.193,6.632,2.271,2.093,2.272,2.095,2.65,2.443,4.446,4.1a2.248,2.248,0,0,1,.129,3.176h0a2.248,2.248,0,0,1-3.176.129l-4.446-4.1Z"/><path class="am" d="M937.28,1393.925a3.484,3.484,0,0,1,1.511-4.487,1.187,1.187,0,0,1,.233-1.2,1.382,1.382,0,0,1,2.044.063l3.786,3.49a1.381,1.381,0,0,1,.228,2.031,1.4,1.4,0,0,1-1.582.332,3.075,3.075,0,0,1-.508.749,3.429,3.429,0,0,1-2.722,1.1,3.462,3.462,0,0,1-2.99-2.075Z"/><path class="x" d="M874.144,1470.766s-6.885-2.025-11.426.164c-2.7,1.3-3.177.515-3.74.593-1.87.257,1.652,2.4,4.238,1.708,2.1-.565,5.513,2.25,7.027,2.261s5.432-.813,5.824-1.838S874.144,1470.766,874.144,1470.766Z"/><path class="x" d="M1076.555,1449.162c.194.988,11.287,30.048,7.267,38.834s-41.221,42.346-52.817,48.317c0,0,3.744-13.034,3.826-13.984s30.658-40.756,31.138-45.4c.163-1.584-9.212-13.946-8.382-30.21S1076.555,1449.162,1076.555,1449.162Z"/><path class="x" d="M1031.364,1525.415c-.673.716-10.68,7.124-13.072,11.8s-4.1,9.713-5.932,11.891c-2.151,2.563-2.277,6.064.61,3.273a43.652,43.652,0,0,0,5.63-6.724c.208-.48-1.515,2.5-3.7,5.618-2.319,3.314-1.392,4.321-.658,4.822,1.424.971,5.214-5.769,6.164-7.541a40.943,40.943,0,0,1-2.583,4.639c-1.319,2.033-1.32,3.672-.943,4.4.593,1.141,3.483-2.882,6.017-7.214.214-.009-.062,1.606-3.505,6.521-.346.494-.578,2.008,1.115.613,3.566-2.938,5.392-3.937,7.663-9.34,2.215-5.268,3.087-11.706,6.113-14.929Z"/><path class="x" d="M1019.768,1535.089s-6.881,2.035-9.508,6.338c-1.561,2.558-2.388,2.157-2.819,2.528-1.432,1.23,2.692,1.122,4.487-.865,1.458-1.615,5.851-1.1,7.129-1.914s4.121-3.631,3.894-4.705S1019.768,1535.089,1019.768,1535.089Z"/><path class="x" d="M1031.364,1525.415s2.067-1.414,6.467-7.421,2.268,4.671,2.268,4.671l-8.311,11.657Z"/><path class="ah" d="M1103.024,1442.651c-.213,4.464-10.035,65.294-10.035,65.294,1.815-5.572-70.978-17.845-70.978-17.845-7.249,0,13.429-83.357,13.429-83.357l12.891-6.2,13.177-6.338a87.612,87.612,0,0,1,15.229-12.331c12.282,6.71,23.553,19.711,25.958,44.573A112.081,112.081,0,0,1,1103.024,1442.651Z"/></g></svg>