<svg xmlns="http://www.w3.org/2000/svg" width="584.001" height="487.466" viewBox="0 0 584.001 487.466"><defs><style>.a{fill:#edf9fa;}.b{fill:#91bd7e;}.c{fill:#99d3d8;}.d{fill:#7fd1d8;}.e{fill:#243e41;}.f{fill:#c9c457;}.g{opacity:0.2;}.h{fill:#a5d68f;}.i{fill:#332c2b;}.j{fill:#3e6569;}.k,.q,.r,.s{fill:none;}.l{fill:#fbc732;}.m{fill:#fb8e21;}.n{fill:#a6a6a6;}.o{opacity:0.15;}.p{fill:#ccc;}.q,.r,.s{stroke:#fff;stroke-miterlimit:10;}.q{stroke-width:2.358px;}.r{stroke-width:1.768px;}.s{stroke-width:1.179px;}.t{fill:#d5e749;}.u{fill:#657829;}.v{fill:#92a333;}.w{fill:#5d391f;}</style></defs><g transform="translate(-392.259 -179.588)"><path class="a" d="M466.183,363.768,658.025,201.8c14.093-11.9,31.851-24.6,49.353-18.778,19.129,6.357,24.972,31.716,19.506,51.118s-18.54,35.747-26.019,54.467c-5.1,12.775-6.983,28.806,2.16,39.086,12.531,14.088,35.468,7.964,52.642.182a821.147,821.147,0,0,0,99.051-53.344c17.21-10.853,34.447-22.539,54.18-27.5s42.981-1.738,56.387,13.568c13.28,15.162,13.539,38.433,5.941,57.1s-21.711,33.8-35.526,48.478L809.406,500.358c18.341-3.356,37.149-6.718,55.516-3.5s36.5,14.431,42.622,32.045c4.888,14.069,1.33,30.074-6.573,42.7s-19.711,22.315-32.047,30.661a252.756,252.756,0,0,1-150.814,42.853c-11.753-.483-24.686-2.4-32.319-11.352-11.391-13.358-4.671-33.955,4.424-48.972s20.6-31.179,17.1-48.382l-222.3,70.436c-15.8,5.005-32.052,10.069-48.582,8.932s-33.628-9.923-39.706-25.338c-6.538-16.582,1.478-35.9,14.129-48.454S440.1,521.841,455.571,513s30.821-19.989,37.954-36.323c-15.076-10.316-35.254-3.392-52.994.962S398.789,480,393.266,462.59c-3.938-12.416,4.386-25.126,12.622-35.218a525.476,525.476,0,0,1,63.339-65.178" transform="translate(0 -0.155)"/><g transform="translate(526.841 306.291)"><path class="b" d="M667.275,472.2c4.741-6.89-.677-11.4,4.064-22.916s17.613-12.193,25.741-8.129c7.757,3.879,3.186,15.77,8.635,21.56.546-.567,1.023-1.069,1.3-1.375,1-1.12.617-.064,1.829.365.02.007.036.009.054.015l.636-.545a4.849,4.849,0,0,1,.472-2.317,3.228,3.228,0,0,1,1.406-1.3,3.558,3.558,0,0,0,1.686-1.651c.652-1.348,1.342-2.592-.461,2.244a13.59,13.59,0,0,1-1.076,2.234,14.544,14.544,0,0,0-.84,7.091,39.822,39.822,0,0,1,6.009,8.9s1.355-13.548,2.709-20.322,17.612-4.742,24.128.677-.418,11.516-3.128,16.935c-1.186,2.372.742,3.836,3.286,4.731a15.453,15.453,0,0,1,3.713,1.886,11.968,11.968,0,0,1,4.217-6.976s.479,3.359-.641,3.679-2.3,0-1.628,1.439,1.948,1.6.828,2.079a5.242,5.242,0,0,0-1.292.97c4.2,3.915,5.063,9.97,1.283,15.43-4.763,6.877-14.552,8.162-15.864,8.6,0,0-16.257-4.065-31.16,2.709s-37.935-8.806-39.967-13.548S662.533,479.092,667.275,472.2Z" transform="translate(-548.02 -326.628)"/><path class="c" d="M623,409.673l.2-15.951,15.276-1.484-2.562,12.543Z" transform="translate(-544.938 -322.969)"/><path class="d" d="M639.884,392.406c-.383.13-19.074,1.328-19.074,1.328l.68-3.906,19.415-.578Z" transform="translate(-544.766 -322.735)"/><path class="c" d="M629.346,389.213l3.2.014,1.248-14.885-3.614,4.76Z" transform="translate(-545.436 -321.566)"/><path class="c" d="M598.287,526.758l2.463-111.379,53.591-24.767-24.5,137.421Z" transform="translate(-543 -322.842)"/><path class="e" d="M607.694,418.784l-.078,1.016,10.579-.315.383-4.76Z" transform="translate(-543.731 -324.733)"/><path class="e" d="M623.6,413.054l9.4-4.139-.85,10.044L623.5,418.8Z" transform="translate(-544.977 -324.277)"/><path class="e" d="M636.965,417.732l.733-10.222,12.583-5.5-2.506,15.751Z" transform="translate(-546.033 -323.736)"/><path class="e" d="M631.756,422.537l-.667,9.144-8.525-.206.638-9.1Z" transform="translate(-544.904 -325.332)"/><path class="e" d="M617.959,422.287l-.738,9.178-10.33-.155c.029-1.107.053-2.188.078-3.242l.417-5.417Z" transform="translate(-543.674 -325.326)"/><path class="e" d="M630.726,434.755l-.661,9.076-8.49-.253.633-9.038Z" transform="translate(-544.826 -326.287)"/><path class="e" d="M606.621,443.327l9.684.195.733-9.11-10.209-.257Z" transform="translate(-543.653 -326.257)"/><path class="e" d="M629.667,447.3l-.656,9.007-8.453-.3.628-8.969Z" transform="translate(-544.746 -327.267)"/><path class="e" d="M616.091,446.9l-.727,9.044-9.021-.161c.065-2.916.129-5.791.194-8.6Z" transform="translate(-543.631 -327.257)"/><path class="e" d="M628.632,459.58l-.651,8.939-8.417-.349.623-8.9Z" transform="translate(-544.668 -328.226)"/><path class="e" d="M615.166,459.109l-.722,8.977-8.367-.183c.061-2.864.126-5.733.19-8.576Z" transform="translate(-543.61 -328.214)"/><path class="f" d="M614.428,471.517l-.686,8.511-7.933-.175c.062-2.862.127-5.775.194-8.7Z" transform="translate(-543.59 -329.159)"/><path class="e" d="M619.163,471.719l8.513.364-.725,8.564-8.485-.4Z" transform="translate(-544.582 -329.203)"/><path class="e" d="M613.626,484.107l-.637,7.91-7.445-.2c.058-2.628.117-5.34.181-8.1Z" transform="translate(-543.569 -330.144)"/><path class="e" d="M618.126,484.448l7.813.381-.671,7.953-7.789-.412Z" transform="translate(-544.505 -330.201)"/><path class="e" d="M612.7,497.076l-.728,9.039-6.743-.4c.062-2.829.131-5.859.2-9.036Z" transform="translate(-543.544 -331.16)"/><path class="e" d="M616.751,496.641l8.427.46-.776,9.185-8.4-.5Z" transform="translate(-544.389 -331.158)"/><path class="e" d="M611.634,511.168l-.534,6.621-6.125-.4c.047-2.1.1-4.443.155-7Z" transform="translate(-543.524 -332.236)"/><path class="e" d="M635.652,422.614l-.792,9.25,10.591.353c.159-1.125.318-2.223.472-3.294l.492-5.518Z" transform="translate(-545.868 -325.352)"/><path class="f" d="M645.085,435.12l-10.48-.264-.786,9.18,9.92.393Z" transform="translate(-545.786 -326.312)"/><path class="e" d="M633.53,447.42l-.78,9.114,9.221.493c.429-2.953.852-5.867,1.263-8.714Z" transform="translate(-545.702 -327.297)"/><path class="e" d="M632.477,459.721l-.774,9.045,8.545.522c.423-2.9.842-5.8,1.26-8.678Z" transform="translate(-545.62 -328.262)"/><path class="e" d="M631.185,472.236l-.734,8.573,8.087.582c.421-2.891.847-5.834,1.274-8.787Z" transform="translate(-545.522 -329.243)"/><path class="e" d="M629.937,484.9l-.681,7.966,7.581.6c.385-2.65.782-5.387,1.185-8.172Z" transform="translate(-545.428 -330.237)"/><path class="e" d="M628.743,497.959l-.778,9.1,6.89.41c.414-2.849.855-5.9,1.319-9.1Z" transform="translate(-545.327 -331.261)"/><path class="e" d="M627.546,512.182l-.57,6.667,6.254.406c.305-2.109.645-4.47,1.021-7.039Z" transform="translate(-545.25 -332.376)"/><path class="e" d="M614.888,511.4l9,.554-.562,6.654-8.978-.584Z" transform="translate(-544.259 -332.315)"/><path class="g" d="M639.884,392.406c-.383.13-19.074,1.328-19.074,1.328l.68-3.906,19.415-.578Z" transform="translate(-544.766 -322.735)"/><path class="h" d="M674.112,502.765c-5.636-8.19.805-13.552-4.831-27.241s-20.936-14.494-30.6-9.663c-9.22,4.61-3.787,18.746-10.265,25.628-.648-.674-1.215-1.271-1.54-1.635-1.19-1.331-.733-.075-2.174.434-.024.009-.042.011-.065.018l-.756-.648a5.744,5.744,0,0,0-.561-2.754,3.829,3.829,0,0,0-1.671-1.545,4.232,4.232,0,0,1-2-1.964c-.775-1.6-1.594-3.081.547,2.668a16.069,16.069,0,0,0,1.28,2.655,17.292,17.292,0,0,1,1,8.43,47.338,47.338,0,0,0-7.143,10.584s-1.61-16.105-3.221-24.157-20.935-5.637-28.681.8.5,13.689,3.719,20.131c1.409,2.82-.883,4.56-3.906,5.624a18.4,18.4,0,0,0-4.414,2.241,14.229,14.229,0,0,0-5.012-8.293s-.57,3.993.76,4.374,2.732,0,1.936,1.711-2.316,1.9-.985,2.472a6.212,6.212,0,0,1,1.537,1.153c-4.995,4.654-6.019,11.852-1.525,18.342,5.66,8.175,17.3,9.7,18.857,10.222,0,0,19.325-4.831,37.041,3.222s45.093-10.468,47.509-16.105S679.75,510.955,674.112,502.765Z" transform="translate(-540.991 -328.532)"/><path class="i" d="M654.133,543.445c-.031-1.14-10.183-24.447,2.674-54.856,0,0-14.383,28.928-5.887,54.944Z" transform="translate(-546.917 -330.526)"/><path class="c" d="M730.352,337.349c-.035-.321-3.337-20.275-3.337-20.275l30.095.194-2.785,20.37Z" transform="translate(-553.096 -317.074)"/><path class="c" d="M838.711,414.541l-5.112,29.9-31.789-1.721.541-27.625Z" transform="translate(-558.962 -324.718)"/><path class="c" d="M832.4,444.754l-14.983,83.5-34.809-1.406,2.188-84.188Z" transform="translate(-557.456 -326.924)"/><path class="e" d="M816.088,447.12l-.718,9.863-9.286-.385.687-9.821Z" transform="translate(-559.297 -327.247)"/><path class="e" d="M801.232,446.6l-.8,9.9-9.231-.2c.067-3.16.14-6.326.209-9.463Z" transform="translate(-558.13 -327.233)"/><path class="f" d="M800.418,460.289l-.756,9.39-8.753-.194c.069-3.158.141-6.371.215-9.594Z" transform="translate(-558.107 -328.275)"/><path class="e" d="M805.642,460.512l9.392.4-.8,9.448-9.362-.441Z" transform="translate(-559.202 -328.324)"/><path class="e" d="M799.533,474.18l-.7,8.726-8.214-.216c.064-2.9.129-5.891.2-8.936Z" transform="translate(-558.084 -329.363)"/><path class="e" d="M804.5,474.555l8.619.42-.741,8.775-8.593-.454Z" transform="translate(-559.117 -329.425)"/><path class="e" d="M798.514,488.488l-.8,9.971-7.439-.442c.068-3.121.145-6.465.224-9.969Z" transform="translate(-558.057 -330.484)"/><path class="e" d="M802.981,488.008l9.3.507-.857,10.134-9.264-.549Z" transform="translate(-558.989 -330.48)"/><path class="e" d="M797.336,504.035l-.589,7.3-6.757-.439c.052-2.313.112-4.9.17-7.719Z" transform="translate(-558.035 -331.671)"/><path class="e" d="M820.331,447.275l-.854,9.98,9.428.575c.466-3.2.929-6.4,1.39-9.575Z" transform="translate(-560.348 -327.286)"/><path class="e" d="M817.583,432.619l-.718,9.863-9.286-.385.687-9.821Z" transform="translate(-559.414 -326.109)"/><path class="e" d="M821.826,432.775l-.854,9.979,9.427.576c.467-3.2.93-6.4,1.391-9.575Z" transform="translate(-560.465 -326.148)"/><path class="e" d="M818.928,418.717l-.718,9.863-9.286-.385.687-9.821Z" transform="translate(-559.52 -325.019)"/><path class="e" d="M823.171,418.872l-.853,9.98,9.427.575c.466-3.2.929-6.4,1.39-9.575Z" transform="translate(-560.57 -325.058)"/><path class="e" d="M818.9,461.082l-.808,9.459,8.922.643c.464-3.19.935-6.437,1.405-9.695Z" transform="translate(-560.239 -328.369)"/><path class="e" d="M817.528,475.059l-.751,8.789,8.363.663c.425-2.925.864-5.943,1.308-9.018Z" transform="translate(-560.136 -329.465)"/><path class="e" d="M816.211,489.462l-.858,10.041,7.6.452c.457-3.143.945-6.512,1.455-10.044Z" transform="translate(-560.024 -330.594)"/><path class="e" d="M814.889,505.153l-.629,7.355,6.9.449c.336-2.327.712-4.931,1.127-7.766Z" transform="translate(-559.938 -331.825)"/><path class="e" d="M800.926,504.3l9.931.612-.621,7.341-9.906-.644Z" transform="translate(-558.846 -331.758)"/><path class="j" d="M738.7,334.146l-4.552-.089-1.8-13.425,4.724.077Z" transform="translate(-553.514 -317.353)"/><path class="j" d="M744.915,320.836l1.133,13.453-5.3-.1-1.538-13.441Z" transform="translate(-554.053 -317.362)"/><path class="j" d="M752.3,320.671l1.154,13.739-4.522-.089-1.316-13.727Z" transform="translate(-554.712 -317.35)"/><g transform="translate(156.47 17.163)"><path class="c" d="M712.882,368.086l-3.343-26.945L774,342l-.4,26.594Z" transform="translate(-708.195 -336.124)"/><path class="f" d="M737.271,361.807l-7.61-.074-1.382-16.1,7.741.1Z" transform="translate(-709.664 -336.476)"/><path class="f" d="M725.359,361.688,716.5,361.6l-1.931-16.145,9.409.119Z" transform="translate(-708.589 -336.463)"/><path class="j" d="M748.882,345.892l.582,16.036-8.809-.085-1.128-16.069Z" transform="translate(-710.547 -336.487)"/><path class="j" d="M753.352,345.949l.991,16.03,7.553.073-.869-16.006Z" transform="translate(-711.631 -336.501)"/><path class="j" d="M774.278,346.214l.213,15.963-8.747-.085-.754-16Z" transform="translate(-712.544 -336.513)"/><path class="d" d="M713.721,342.228l-.394-6.531,56.011,1.51.087,6.722Z" transform="translate(-708.492 -335.697)"/><path class="e" d="M708.589,342.225l-.509-6.528,67.145,1.511.142,6.725Z" transform="translate(-708.08 -335.697)"/></g><path class="c" d="M715.828,398.157l-3.151-27.042,60.94.843-.557,26.582Z" transform="translate(-551.971 -321.313)"/><path class="j" d="M738.9,391.831l-7.189-.061-1.271-16.148,7.326.094Z" transform="translate(-553.364 -321.666)"/><path class="j" d="M727.642,391.731l-8.378-.071-1.813-16.2,8.919.114Z" transform="translate(-552.346 -321.653)"/><path class="j" d="M749.922,375.871l.483,16.061-8.309-.071-1.014-16.1Z" transform="translate(-554.199 -321.677)"/><path class="j" d="M754.143,375.925l.863,16.051,7.114.061-.735-16.019Z" transform="translate(-555.224 -321.69)"/><path class="f" d="M773.871,376.178l.1,15.964-8.226-.07-.622-16.005Z" transform="translate(-556.085 -321.701)"/><path class="d" d="M716.646,372.208l-.369-6.575,52.977,1.515.04,6.74Z" transform="translate(-552.254 -320.882)"/><path class="e" d="M711.775,372.206l-.481-6.574,63.5,1.515.088,6.741Z" transform="translate(-551.863 -320.882)"/><path class="c" d="M719.742,430,716.47,402.98l57.023.846-.427,26.557Z" transform="translate(-552.269 -323.812)"/><path class="j" d="M741.188,423.7l-6.706-.061L733.135,407.5l6.851.094Z" transform="translate(-553.576 -324.166)"/><path class="f" d="M730.685,423.6l-7.814-.071-1.882-16.2,8.341.114Z" transform="translate(-552.623 -324.153)"/><path class="j" d="M751.354,407.75l.567,16.055-7.75-.07-1.084-16.1Z" transform="translate(-554.356 -324.177)"/><path class="j" d="M755.3,407.8l.914,16.044,6.635.06-.777-16.012Z" transform="translate(-555.314 -324.19)"/><path class="j" d="M773.747,408.057l.157,15.956-7.672-.07-.665-16Z" transform="translate(-556.119 -324.201)"/><path class="e" d="M715.639,404.075l-.533-6.6L774.577,399l.1,6.765Z" transform="translate(-552.162 -323.38)"/><path class="c" d="M723.62,462.42l-3.178-27.284,52.973.859-.534,26.807Z" transform="translate(-552.58 -326.334)"/><path class="j" d="M743.433,456.091l-6.2-.061-1.291-16.308,6.359.1Z" transform="translate(-553.796 -326.693)"/><path class="j" d="M733.713,455.99l-7.23-.072-1.821-16.366,7.743.116Z" transform="translate(-552.911 -326.68)"/><path class="j" d="M752.849,439.975l.516,16.218-7.17-.071-1.019-16.262Z" transform="translate(-554.52 -326.704)"/><path class="j" d="M756.513,440.03l.827,16.207,6.138.061-.68-16.174Z" transform="translate(-555.409 -326.718)"/><path class="j" d="M773.634,440.286l.072,16.116-7.1-.07-.567-16.16Z" transform="translate(-556.157 -326.729)"/><path class="e" d="M719.677,436.247l-.535-6.707,55.3,1.549.059,6.87Z" transform="translate(-552.478 -325.895)"/><path class="c" d="M732.562,533.613l-8.309-66.353,49.037.844-1.258,64.889Z" transform="translate(-552.879 -328.853)"/><path class="j" d="M745.687,487.777l-5.725-.06-1.328-15.957,5.884.093Z" transform="translate(-554.007 -329.206)"/><path class="j" d="M736.715,487.679l-6.672-.07L728.2,471.595l7.164.114Z" transform="translate(-553.189 -329.193)"/><path class="j" d="M754.28,472.009l.574,15.868-6.617-.069L747.181,471.9Z" transform="translate(-554.677 -329.217)"/><path class="f" d="M757.67,472.063l.855,15.857,5.664.059-.705-15.824Z" transform="translate(-555.5 -329.23)"/><path class="f" d="M773.507,472.314l.121,15.768-6.549-.069-.6-15.811Z" transform="translate(-556.191 -329.241)"/><path class="j" d="M747.515,509.313l-5.324-.058-1.6-15.962,5.645.1Z" transform="translate(-554.161 -330.895)"/><path class="j" d="M739.147,509.216l-6.207-.068-2.361-16.027,6.878.117Z" transform="translate(-553.375 -330.881)"/><path class="j" d="M755.6,493.549l.457,15.861-6.151-.067-1.113-15.91Z" transform="translate(-554.804 -330.906)"/><path class="j" d="M759.244,516.31l.573,19.888-7.713-.084-1.4-19.949Z" transform="translate(-554.954 -332.689)"/><path class="j" d="M758.851,493.6l.643,15.848,5.264.057-.334-15.811Z" transform="translate(-555.593 -330.919)"/><path class="j" d="M774.026,493.863l-.478,15.747-6.084-.066-.166-15.8Z" transform="translate(-556.255 -330.931)"/><path class="e" d="M723.556,468.349l-.566-6.592,51.235,1.524.074,6.748Z" transform="translate(-552.78 -328.422)"/><g transform="translate(146.544 172.131)"><path class="b" d="M748.972,524.02c-2.872-4.172.41-6.9-2.461-13.874s-10.663-7.382-15.585-4.921c-4.7,2.347-1.929,9.547-5.228,13.052-.33-.343-.619-.647-.784-.832-.606-.678-.373-.039-1.108.221-.012,0-.021.005-.033.009l-.384-.33a2.933,2.933,0,0,0-.287-1.4,1.949,1.949,0,0,0-.851-.787,2.153,2.153,0,0,1-1.02-1c-.394-.816-.813-1.569.278,1.358a8.225,8.225,0,0,0,.651,1.353,8.787,8.787,0,0,1,.509,4.293,24.122,24.122,0,0,0-3.637,5.391s-.82-8.2-1.64-12.3-10.663-2.871-14.608.41.253,6.972,1.895,10.253c.718,1.436-.45,2.321-1.99,2.864a9.383,9.383,0,0,0-2.249,1.141,7.244,7.244,0,0,0-2.553-4.223s-.29,2.034.387,2.227,1.392,0,.986.872-1.18.969-.5,1.259a3.176,3.176,0,0,1,.782.587,6.9,6.9,0,0,0-.777,9.342c2.884,4.164,8.81,4.941,9.6,5.206,0,0,9.842-2.461,18.865,1.641s22.966-5.332,24.2-8.2S751.843,528.191,748.972,524.02Z" transform="translate(-697.31 -503.854)"/><path class="i" d="M738.8,544.738a38.8,38.8,0,0,1,1.362-27.938s-7.326,14.733-3,27.983Z" transform="translate(-700.328 -504.869)"/></g><g transform="translate(239.824 153.817)"><path class="b" d="M802.4,509.891c3.688-5.359-.527-8.867,3.161-17.825s13.7-9.485,20.023-6.323c6.034,3.016,2.478,12.266,6.717,16.77.424-.441.8-.831,1.007-1.069.779-.872.479-.05,1.423.284.016.006.028.006.042.011l.495-.423a3.775,3.775,0,0,1,.367-1.8,2.507,2.507,0,0,1,1.094-1.01,2.768,2.768,0,0,0,1.31-1.286c.507-1.049,1.044-2.015-.358,1.746a10.556,10.556,0,0,1-.838,1.737,11.305,11.305,0,0,0-.653,5.516,31,31,0,0,1,4.673,6.926s1.054-10.538,2.108-15.807,13.7-3.689,18.768.526-.325,8.958-2.433,13.173c-.923,1.845.577,2.984,2.556,3.681a12.038,12.038,0,0,1,2.888,1.466,9.307,9.307,0,0,1,3.28-5.426s.373,2.613-.5,2.861-1.787,0-1.267,1.12,1.516,1.244.645,1.617a4.065,4.065,0,0,0-1.006.755c3.269,3.045,3.939,7.756,1,12-3.7,5.35-11.318,6.35-12.339,6.69,0,0-12.646-3.161-24.238,2.108s-29.508-6.85-31.088-10.538S798.712,515.25,802.4,509.891Z" transform="translate(-798.528 -483.982)"/><path class="i" d="M820.976,536.511c.02-.746,6.664-16-1.75-35.9,0,0,9.412,18.93,3.852,35.954Z" transform="translate(-800.151 -485.287)"/></g><g transform="translate(190.186 194.935)"><path class="h" d="M746.517,540.981c1.762-2.561-.253-4.238,1.51-8.519s6.547-4.532,9.569-3.022c2.884,1.442,1.184,5.862,3.21,8.015.2-.211.381-.4.482-.511.372-.417.229-.023.68.135l.02.006.236-.2a1.809,1.809,0,0,1,.176-.862,1.2,1.2,0,0,1,.523-.483,1.324,1.324,0,0,0,.627-.614c.242-.5.5-.964-.171.834a5.03,5.03,0,0,1-.4.83,5.4,5.4,0,0,0-.312,2.637,14.777,14.777,0,0,1,2.233,3.309s.5-5.036,1.007-7.554,6.547-1.763,8.97.252-.156,4.281-1.163,6.3c-.441.882.276,1.426,1.221,1.758a5.745,5.745,0,0,1,1.38.7,4.448,4.448,0,0,1,1.568-2.593s.178,1.249-.238,1.368-.854,0-.605.535.724.594.308.772a1.919,1.919,0,0,0-.48.361,4.233,4.233,0,0,1,.477,5.735c-1.77,2.557-5.409,3.035-5.9,3.2a19.675,19.675,0,0,0-11.584,1.007c-5.54,2.519-14.1-3.273-14.857-5.036S744.755,543.542,746.517,540.981Z" transform="translate(-744.667 -528.599)"/></g><line class="k" x1="7.044" y2="0.095" transform="translate(279.749 89.728)"/><line class="k" x1="2.676" y2="0.037" transform="translate(236.098 90.378)"/><path class="c" d="M822.328,413.772l3.031-21.216,5.511-8.541-6.337,29.344Z" transform="translate(-560.571 -322.324)"/><path class="c" d="M816.46,406.065l15.292,1.447-2.17,3.72-11.366-.413Z" transform="translate(-560.111 -324.054)"/><path class="e" d="M818.7,407.578l.517,2.17,1.963-.052-.1-2.118Z" transform="translate(-560.287 -324.172)"/><path class="e" d="M823.127,407.634l-.052,2.118,2.635.1.827-2.015Z" transform="translate(-560.63 -324.177)"/><path class="e" d="M828.357,408.2l-.517,1.757,1.912.207,1.188-1.757Z" transform="translate(-561.004 -324.221)"/><line class="k" x2="2.676" y2="0.037" transform="translate(34.965 91.63)"/><g transform="translate(0 93.814)"><path class="c" d="M544.833,444.986l4.373,25.58,27.195-1.472-.463-23.633Z" transform="translate(-538.807 -420.92)"/><path class="c" d="M549.291,470.832l12.818,71.434,29.778-1.2-1.872-72.02Z" transform="translate(-539.157 -422.807)"/><path class="e" d="M566.145,472.856l.614,8.437,7.944-.329-.588-8.4Z" transform="translate(-540.479 -423.083)"/><path class="e" d="M578.852,472.411l.681,8.472,7.9-.172c-.058-2.7-.12-5.411-.18-8.094Z" transform="translate(-541.475 -423.071)"/><path class="f" d="M579.586,484.122l.647,8.032,7.488-.165c-.059-2.7-.121-5.45-.183-8.207Z" transform="translate(-541.533 -423.963)"/><path class="e" d="M575.07,484.313l-8.035.344.684,8.082,8.008-.378Z" transform="translate(-540.549 -424.005)"/><path class="e" d="M580.386,496.005l.6,7.465,7.026-.184c-.054-2.48-.111-5.039-.17-7.644Z" transform="translate(-541.596 -424.893)"/><path class="e" d="M576.109,496.326l-7.373.36.634,7.507,7.351-.389Z" transform="translate(-540.682 -424.947)"/><path class="e" d="M581.307,508.245l.687,8.53,6.363-.379c-.058-2.67-.123-5.53-.191-8.527Z" transform="translate(-541.668 -425.852)"/><path class="e" d="M577.35,507.834l-7.953.434.733,8.669,7.925-.47Z" transform="translate(-540.734 -425.85)"/><path class="e" d="M582.381,521.545l.5,6.248,5.781-.375c-.045-1.979-.1-4.193-.146-6.6Z" transform="translate(-541.752 -426.868)"/><path class="e" d="M562.456,472.989l.731,8.536-8.065.493c-.4-2.734-.794-5.475-1.189-8.192Z" transform="translate(-539.521 -423.117)"/><path class="e" d="M564.866,460.451l.614,8.437,7.944-.329-.588-8.4Z" transform="translate(-540.378 -422.11)"/><path class="e" d="M561.177,460.584l.731,8.537-8.065.492c-.4-2.734-.794-5.475-1.189-8.191Z" transform="translate(-539.421 -422.144)"/><path class="e" d="M563.715,448.558l.614,8.437,7.944-.329-.588-8.4Z" transform="translate(-540.288 -421.178)"/><path class="e" d="M560.027,448.691l.73,8.537-8.064.492c-.4-2.734-.8-5.475-1.19-8.191Z" transform="translate(-539.33 -421.211)"/><path class="e" d="M563.712,484.8l.692,8.092-7.632.55c-.4-2.73-.8-5.506-1.2-8.294Z" transform="translate(-539.649 -424.043)"/><path class="e" d="M564.938,496.757l.642,7.518-7.154.568c-.364-2.5-.739-5.084-1.119-7.714Z" transform="translate(-539.785 -424.981)"/><path class="e" d="M566.109,509.078l.734,8.59-6.5.388c-.391-2.69-.807-5.572-1.245-8.593Z" transform="translate(-539.926 -425.947)"/><path class="e" d="M567.314,522.5l.537,6.292-5.9.383c-.288-1.99-.609-4.218-.965-6.643Z" transform="translate(-540.074 -427)"/><path class="e" d="M579.078,521.768l-8.5.523.531,6.28,8.474-.551Z" transform="translate(-540.827 -426.942)"/><g transform="translate(14.252 109.978)"><path class="b" d="M573.622,545.963c-1.1-1.6.158-2.653-.947-5.334s-4.1-2.839-5.991-1.892c-1.806.9-.742,3.671-2.01,5.018-.127-.132-.239-.249-.3-.32-.233-.261-.143-.015-.426.085l-.013,0-.147-.127a1.128,1.128,0,0,0-.11-.539.762.762,0,0,0-.327-.3.828.828,0,0,1-.393-.384c-.152-.314-.312-.6.107.523a3.237,3.237,0,0,0,.251.52,3.377,3.377,0,0,1,.2,1.651,9.256,9.256,0,0,0-1.4,2.073s-.315-3.154-.631-4.73-4.1-1.1-5.616.158.1,2.681.728,3.942c.276.552-.172.893-.765,1.1a3.583,3.583,0,0,0-.864.44,2.793,2.793,0,0,0-.981-1.625s-.112.782.148.857.535,0,.379.335-.453.372-.193.485a1.211,1.211,0,0,1,.3.225,2.652,2.652,0,0,0-.3,3.592c1.108,1.6,3.387,1.9,3.692,2a12.316,12.316,0,0,1,7.254.63c3.469,1.577,8.83-2.05,9.3-3.154A6.642,6.642,0,0,0,573.622,545.963Z" transform="translate(-553.759 -538.21)"/><path class="i" d="M569.709,553.929a14.926,14.926,0,0,1,.524-10.742s-2.816,5.665-1.153,10.759Z" transform="translate(-554.92 -538.6)"/></g><line class="k" x2="6.026" y2="0.081" transform="translate(0 23.984)"/><path class="c" d="M560.914,444.329l-2.593-18.149-4.714-7.307,5.421,25.1Z" transform="translate(-539.495 -418.872)"/><path class="c" d="M565.442,437.735l-13.082,1.237,1.856,3.182,9.723-.354Z" transform="translate(-539.398 -420.352)"/><path class="e" d="M564.456,439.03l-.442,1.856-1.679-.044.089-1.812Z" transform="translate(-540.18 -420.453)"/><path class="e" d="M560.6,439.078l.044,1.812-2.254.088-.707-1.724Z" transform="translate(-539.815 -420.457)"/><path class="e" d="M556.152,439.557l.442,1.5-1.635.177-1.016-1.5Z" transform="translate(-539.522 -420.495)"/></g></g><g transform="translate(475.723 179.588)"><rect class="l" width="202.755" height="11.328" transform="translate(106.578 86.685)"/><path class="m" d="M778.3,655.511H619.186c-15.575,0-28.2-12.959-28.2-28.946v-4.043H806.5v4.043C806.5,642.552,793.873,655.511,778.3,655.511Z" transform="translate(-491.309 -214.328)"/><path class="l" d="M836.055,257.407c22.8,0,41.283-17.42,41.283-38.91s-18.483-38.91-41.283-38.91a42,42,0,0,0-33.6,16.357c-.029.032-.056.059-.085.091C719.784,294.839,983.157,541.1,690.259,541.1S660.734,294.839,578.148,196.036c-.029-.032-.055-.059-.084-.091a42,42,0,0,0-33.6-16.357c-22.8,0-41.283,17.42-41.283,38.91s18.483,38.91,41.283,38.91c103.729-3.2-283.491,343.786,145.8,343.786S732.326,254.206,836.055,257.407Z" transform="translate(-482.826 -179.588)"/><path class="n" d="M641.422,544.753l-3.4-.639V285.943h3.4Z" transform="translate(-494.998 -187.929)"/><path class="n" d="M675.445,548.5l-3.4-.248V285.943h3.4Z" transform="translate(-497.667 -187.929)"/><rect class="n" width="3.397" height="263.5" transform="translate(205.735 98.013)"/><path class="n" d="M743.489,548.249l-3.4.248V285.943h3.4Z" transform="translate(-503.004 -187.929)"/><path class="n" d="M777.512,544.114l-3.4.639V285.943h3.4Z" transform="translate(-505.672 -187.929)"/><path class="o" d="M853.709,257.407c22.8,0,41.283-17.42,41.283-38.91s-18.483-38.91-41.283-38.91a42,42,0,0,0-33.6,16.357c-.03.032-.056.059-.085.091-15.816,18.923-18.92,43.263-15.7,70.236H707.913V277.6h98.082c19.843,112.909,130.963,263.5-98.082,263.5v79.668h79.556c15.574,0,28.2-12.96,28.2-28.946v-.846C1062.889,533.665,760.623,254.534,853.709,257.407Z" transform="translate(-500.48 -179.588)"/></g><g transform="translate(540.012 504.448)"><path class="p" d="M553.637,655.948s21.954-71.44,96.742-65.487,102.694.745,118.322-24.557c13.8-22.348,38.627-26.517,43.889-28.484,1.847-.69,8.718-3.607,8.718-3.607-.824,1.593-6.587,6.784-7.765,7.213-7.209,2.629-28.242,12.221-30.7,35.3-2.977,27.906-35.348,66.974-80,64.37a51.905,51.905,0,0,0-35.847,11.1,61.415,61.415,0,0,0-14.581,17.274c-3.543,6.272-5.291,13.635-10.394,18.954-11.581,12.069-33.843,5.731-46.737-.805-4.262-2.161-8.394-4.914-11.033-8.9-4.438-6.7-4.226-15.991-10.961-21.217a10.173,10.173,0,0,0-5.164-2.194C567.14,654.807,552.127,660.86,553.637,655.948Z" transform="translate(-552.66 -532.23)"/><path class="q" d="M603.711,668.963s6.326-21.209,23.441-30.883" transform="translate(-556.596 -540.408)"/><path class="q" d="M654.583,629.535s11.907-7.07,29.023-5.21" transform="translate(-560.586 -539.305)"/><path class="q" d="M713.127,623.565s20.837,2.916,30.51-5.269" transform="translate(-565.177 -538.856)"/><path class="r" d="M768.037,603.143s13.766-6.325,17.115-16.743" transform="translate(-569.484 -536.354)"/><path class="s" d="M797.914,564.755s5.953-12.278,17.488-17.115" transform="translate(-571.827 -533.315)"/><g transform="translate(239.057 3.686)"><path class="t" d="M811.991,538.59a5.163,5.163,0,0,1,.512-1.763,2.014,2.014,0,0,1,1.9-.687,7.192,7.192,0,0,1,1.751.506c.2.214-2.783,2.137-2.783,2.137Z" transform="translate(-811.989 -536.095)"/><path class="u" d="M817.294,539.86c-.328.31-.7.36-1.451.462a4.646,4.646,0,0,1-1.891-.043,2.77,2.77,0,0,1-1.706-.885,1.393,1.393,0,0,1-.132-.233,1.94,1.94,0,0,1,.4-1.976,2.454,2.454,0,0,1,1.525-.7,3.645,3.645,0,0,1,2.117.183,3.934,3.934,0,0,1,.943.5,1.726,1.726,0,0,1,.625.872A1.83,1.83,0,0,1,817.294,539.86Z" transform="translate(-811.988 -536.119)"/><path class="v" d="M816.929,539.493c-.328.31-.7.36-1.451.463a4.71,4.71,0,0,1-1.891-.043,3.956,3.956,0,0,1-1.339-.519,1.393,1.393,0,0,1-.132-.233,1.94,1.94,0,0,1,.4-1.976,2.454,2.454,0,0,1,1.525-.7,3.645,3.645,0,0,1,2.117.183,3.934,3.934,0,0,1,.943.5,1.6,1.6,0,0,1,.259.505A1.834,1.834,0,0,1,816.929,539.493Z" transform="translate(-811.988 -536.119)"/><path class="w" d="M814.937,538.72c-.011.053,0,2.428,0,2.428h.1v-2.364Z" transform="translate(-812.219 -536.301)"/><path class="w" d="M814.717,539.536v1.654l-.053-.053v-1l-.333-.484.1-.021.193.323Z" transform="translate(-812.172 -536.365)"/><path class="w" d="M815.373,539.639v1.655l.047-.054v-1l.292-.483-.085-.022-.17.323Z" transform="translate(-812.254 -536.373)"/></g><path class="u" d="M744.2,616.012a19.2,19.2,0,0,1-10.9,9.522,20.83,20.83,0,0,1-14.823-.393,21.513,21.513,0,0,1-7.852-5.5,18.555,18.555,0,0,1-10.666-6.191c-.178-.216-.357-.44-.525-.675-3.865-5.244-4.888-13.04-1.379-18.556.206-.319,4.1-6.248,9.822-6.877,1.688-.178,4.014.047,6.773-1.369a11.761,11.761,0,0,0,2.852-2.063,16.289,16.289,0,0,1,7.946-2.646,16.488,16.488,0,0,1,10.31,2.945c.451.31,1.069.732,1.745,1.286a11.955,11.955,0,0,1,4.541,7.158,10.927,10.927,0,0,1-.2,4.512q1.717,2.8,3.434,5.591A19.034,19.034,0,0,1,744.2,616.012Z" transform="translate(-563.827 -535.949)"/><path class="v" d="M741.9,613.7A19.216,19.216,0,0,1,731,623.226a20.864,20.864,0,0,1-14.832-.384,21.735,21.735,0,0,1-7.852-5.5,19.377,19.377,0,0,1-8.359-3.893c-.178-.216-.357-.44-.525-.675-3.865-5.244-4.888-13.04-1.379-18.556.206-.319,4.1-6.248,9.822-6.877,1.688-.178,4.014.047,6.773-1.369a11.761,11.761,0,0,0,2.852-2.063,16.289,16.289,0,0,1,7.946-2.646,16.488,16.488,0,0,1,10.31,2.945c.451.31,1.069.732,1.745,1.286a10.61,10.61,0,0,1,2.233,4.85,10.946,10.946,0,0,1-.2,4.512l3.434,5.6A18.955,18.955,0,0,1,741.9,613.7Z" transform="translate(-563.827 -535.949)"/><path class="w" d="M715.823,611.663s4.123,7.462,4.908,8.541.983,31.257.983,31.257l2.157.014s-.1-11.733.885-13.795,4.319-12.37,4.418-13.744-3.731,13.646-4.614,10.9-1.179-28.961-1.179-28.961h-1.275s.49,14.923-.2,13.843S715.823,611.663,715.823,611.663Z" transform="translate(-565.389 -537.882)"/><g transform="translate(131.478 92.25)"><path class="t" d="M695.264,644.84s.746-6.318,2.6-8.932,6.589-4.356,9.639-3.485,7.846,1.473,8.878,2.561-14.106,10.835-14.106,10.835Z" transform="translate(-695.254 -632.196)"/><path class="u" d="M722.145,651.28c-1.663,1.568-3.559,1.827-7.352,2.341a23.618,23.618,0,0,1-9.585-.218c-3.09-.781-6.72-1.694-8.648-4.488a6.9,6.9,0,0,1-.664-1.179c-1.514-3.442-.156-7.571,2.022-10.014,2.193-2.482,5.034-3.028,7.727-3.543a18.512,18.512,0,0,1,10.732.929,19.983,19.983,0,0,1,4.777,2.552,8.77,8.77,0,0,1,3.168,4.418A9.291,9.291,0,0,1,722.145,651.28Z" transform="translate(-695.253 -632.32)"/><path class="v" d="M720.288,649.423c-1.663,1.568-3.559,1.827-7.353,2.342a23.762,23.762,0,0,1-9.584-.218,20,20,0,0,1-6.791-2.631,6.9,6.9,0,0,1-.664-1.179c-1.514-3.442-.156-7.571,2.022-10.014,2.193-2.482,5.034-3.028,7.727-3.543a18.512,18.512,0,0,1,10.732.929,19.983,19.983,0,0,1,4.777,2.552,8.2,8.2,0,0,1,1.311,2.56A9.293,9.293,0,0,1,720.288,649.423Z" transform="translate(-695.253 -632.32)"/><path class="w" d="M710.194,645.5c-.054.272,0,12.307,0,12.307h.49V645.828Z" transform="translate(-696.423 -633.24)"/><path class="w" d="M709.083,649.637v8.386l-.272-.272v-5.065l-1.688-2.45.49-.109.981,1.634Z" transform="translate(-696.184 -633.564)"/><path class="w" d="M712.407,650.161v8.386l.239-.272V653.21l1.481-2.45-.43-.109-.86,1.634Z" transform="translate(-696.599 -633.605)"/></g><g transform="translate(39.248 51.499)"><path class="t" d="M595.181,596.472s.5-4.245,1.745-6a6.849,6.849,0,0,1,6.476-2.342c2.05.585,5.272.99,5.965,1.721s-9.477,7.28-9.477,7.28Z" transform="translate(-595.175 -587.977)"/><path class="u" d="M613.243,600.8c-1.117,1.054-2.392,1.228-4.941,1.573a15.859,15.859,0,0,1-6.44-.147c-2.076-.524-4.516-1.138-5.81-3.015a4.669,4.669,0,0,1-.446-.793,6.6,6.6,0,0,1,1.358-6.728c1.474-1.667,3.383-2.035,5.192-2.38a12.442,12.442,0,0,1,7.21.624,13.4,13.4,0,0,1,3.21,1.715,5.883,5.883,0,0,1,2.129,2.968A6.243,6.243,0,0,1,613.243,600.8Z" transform="translate(-595.174 -588.06)"/><path class="v" d="M611.995,599.551c-1.117,1.053-2.391,1.227-4.94,1.573a15.958,15.958,0,0,1-6.44-.147,13.45,13.45,0,0,1-4.563-1.768,4.669,4.669,0,0,1-.446-.793,6.6,6.6,0,0,1,1.358-6.728c1.474-1.667,3.383-2.035,5.192-2.38a12.442,12.442,0,0,1,7.21.624,13.4,13.4,0,0,1,3.21,1.715,5.49,5.49,0,0,1,.881,1.72A6.243,6.243,0,0,1,611.995,599.551Z" transform="translate(-595.174 -588.06)"/><path class="w" d="M605.213,596.916c-.037.183,0,8.269,0,8.269h.329v-8.05Z" transform="translate(-595.96 -588.678)"/><path class="w" d="M604.467,599.695v5.635l-.183-.183v-3.4L603.15,600.1l.329-.073.658,1.1Z" transform="translate(-595.8 -588.896)"/><path class="w" d="M606.7,600.047v5.635l.16-.183v-3.4l.994-1.647-.288-.073-.578,1.1Z" transform="translate(-596.078 -588.924)"/></g><path class="u" d="M616.345,574.5a23.407,23.407,0,0,1-13.291,11.609,25.392,25.392,0,0,1-18.071-.48,26.239,26.239,0,0,1-9.574-6.7,22.631,22.631,0,0,1-13-7.549c-.217-.264-.435-.538-.64-.824-4.712-6.394-5.959-15.9-1.681-22.624.252-.389,5-7.618,11.975-8.384,2.059-.217,4.9.058,8.258-1.67a14.314,14.314,0,0,0,3.477-2.516,19.867,19.867,0,0,1,9.688-3.226,20.1,20.1,0,0,1,12.57,3.591c.549.378,1.3.892,2.127,1.567a14.58,14.58,0,0,1,5.536,8.727,13.355,13.355,0,0,1-.24,5.5q2.093,3.414,4.186,6.817A23.212,23.212,0,0,1,616.345,574.5Z" transform="translate(-552.969 -532.095)"/><path class="v" d="M613.531,571.682a23.428,23.428,0,0,1-13.28,11.61,25.435,25.435,0,0,1-18.083-.469,26.5,26.5,0,0,1-9.573-6.7,23.62,23.62,0,0,1-10.191-4.746c-.217-.264-.435-.538-.64-.824-4.712-6.394-5.959-15.9-1.681-22.624.252-.389,5-7.618,11.975-8.384,2.059-.217,4.9.058,8.258-1.67a14.314,14.314,0,0,0,3.477-2.516,19.867,19.867,0,0,1,9.688-3.226,20.1,20.1,0,0,1,12.57,3.591c.549.378,1.3.892,2.127,1.567A12.936,12.936,0,0,1,610.9,543.2a13.357,13.357,0,0,1-.24,5.5l4.186,6.828A23.111,23.111,0,0,1,613.531,571.682Z" transform="translate(-552.969 -532.095)"/><path class="w" d="M581.742,569.194s5.027,9.1,5.985,10.414,1.2,38.109,1.2,38.109l2.63.017s-.118-14.306,1.079-16.82,5.266-15.081,5.386-16.757-4.548,16.637-5.625,13.286-1.437-35.311-1.437-35.311H589.4s.6,18.194-.24,16.878S581.742,569.194,581.742,569.194Z" transform="translate(-554.873 -534.451)"/><g transform="translate(0 60.162)"><path class="t" d="M552.6,612.793s.91-7.7,3.167-10.89,8.033-5.312,11.752-4.249,9.566,1.8,10.825,3.122-17.2,13.211-17.2,13.211Z" transform="translate(-552.587 -597.377)"/><path class="u" d="M585.374,620.645c-2.027,1.912-4.34,2.227-8.965,2.855a28.8,28.8,0,0,1-11.685-.266c-3.768-.952-8.194-2.065-10.545-5.472a8.353,8.353,0,0,1-.808-1.437c-1.847-4.2-.191-9.231,2.464-12.21,2.674-3.026,6.139-3.693,9.421-4.32a22.582,22.582,0,0,1,13.085,1.133,24.344,24.344,0,0,1,5.823,3.111,10.681,10.681,0,0,1,3.864,5.387A11.331,11.331,0,0,1,585.374,620.645Z" transform="translate(-552.586 -597.528)"/><path class="v" d="M583.108,618.38c-2.026,1.913-4.34,2.227-8.964,2.855a28.972,28.972,0,0,1-11.686-.266c-2.769-.695-5.891-1.494-8.279-3.207a8.353,8.353,0,0,1-.808-1.437c-1.847-4.2-.191-9.231,2.464-12.21,2.674-3.026,6.139-3.693,9.421-4.32a22.582,22.582,0,0,1,13.085,1.133,24.344,24.344,0,0,1,5.823,3.111,9.981,9.981,0,0,1,1.6,3.121A11.328,11.328,0,0,1,583.108,618.38Z" transform="translate(-552.586 -597.528)"/><path class="w" d="M570.8,613.6c-.066.332,0,15.005,0,15.005h.6V614Z" transform="translate(-554.012 -598.649)"/><path class="w" d="M569.448,618.642v10.225l-.332-.333V622.36l-2.058-2.988.6-.133,1.2,1.992Z" transform="translate(-553.721 -599.045)"/><path class="w" d="M573.5,619.28V629.5l.291-.332V623l1.806-2.988-.524-.133-1.049,1.992Z" transform="translate(-554.226 -599.095)"/></g><g transform="translate(231.553 3.824)"><path class="t" d="M803.849,539.788a7.317,7.317,0,0,1,.728-2.5,2.855,2.855,0,0,1,2.7-.977,10.183,10.183,0,0,1,2.488.718c.289.3-3.953,3.036-3.953,3.036Z" transform="translate(-803.846 -536.245)"/><path class="u" d="M811.382,541.593c-.465.44-1,.512-2.061.656a6.606,6.606,0,0,1-2.685-.061,3.937,3.937,0,0,1-2.424-1.258,1.94,1.94,0,0,1-.186-.33,2.755,2.755,0,0,1,.567-2.806,3.485,3.485,0,0,1,2.166-.993,5.192,5.192,0,0,1,3.007.261,5.6,5.6,0,0,1,1.339.715,2.459,2.459,0,0,1,.887,1.238A2.6,2.6,0,0,1,811.382,541.593Z" transform="translate(-803.846 -536.28)"/><path class="v" d="M810.861,541.072c-.465.44-1,.512-2.061.656a6.64,6.64,0,0,1-2.685-.061,5.6,5.6,0,0,1-1.9-.737,1.94,1.94,0,0,1-.186-.33,2.755,2.755,0,0,1,.567-2.806,3.485,3.485,0,0,1,2.166-.993,5.192,5.192,0,0,1,3.007.261,5.6,5.6,0,0,1,1.339.715,2.277,2.277,0,0,1,.367.717A2.6,2.6,0,0,1,810.861,541.072Z" transform="translate(-803.846 -536.28)"/><path class="w" d="M808.032,539.973c-.015.076,0,3.449,0,3.449h.137v-3.357Z" transform="translate(-804.174 -536.537)"/><path class="w" d="M807.721,541.133v2.35l-.077-.076v-1.419l-.473-.687.137-.03.275.457Z" transform="translate(-804.107 -536.628)"/><path class="w" d="M808.653,541.279v2.35l.066-.076v-1.419l.416-.687-.121-.03-.241.458Z" transform="translate(-804.223 -536.64)"/></g></g></g></svg>