<svg xmlns="http://www.w3.org/2000/svg" width="322.435" height="577" viewBox="0 0 322.435 577"><defs><style>.a{fill:#fcb95d;}.a,.b,.c,.d,.f,.h,.i,.j,.k,.l,.m,.n,.o,.p,.v,.w{fill-rule:evenodd;}.b{fill:#a1dd6f;}.c,.u{opacity:0.15;}.d{fill:#4a5e3a;}.e,.f{fill:#243330;}.g,.j{fill:#171f1c;}.h,.n,.y{fill:none;stroke-miterlimit:10;}.h{stroke:#a1dd70;stroke-width:1.202px;}.i{fill:#243e41;}.k{fill:#c98121;}.l{fill:#f7805c;}.m{fill:#7fd1d8;}.n{stroke:#3e6569;stroke-width:7.837px;}.p{opacity:0.2;}.q{fill:#6d6e71;}.r{fill:#bcbec0;}.s{fill:#e6e7e8;}.t{opacity:0.5;}.v,.x{fill:#d1d3d4;}.w{fill:#36a5ad;}.y{stroke:#4a5e3a;stroke-width:1.151px;}</style></defs><g transform="translate(0 0)"><path class="a" d="M356.642,642.879s-1.246,17.5-3.116,23.176,11.878,3.915,12.485,4.13,11.245-6.8,11.245-6.8-6.811-2.073-4.583-23.715S356.642,642.879,356.642,642.879Z" transform="translate(-121.239 -112.565)"/><path class="a" d="M263.449,644.019s1.246,17.5,3.116,23.176-11.878,3.915-12.485,4.13-11.245-6.8-11.245-6.8,6.811-2.071,4.583-23.714S263.449,644.019,263.449,644.019Z" transform="translate(-148.125 -112.288)"/><path class="b" d="M310.312,503.356c-1.416,6.632-6.95,15.225-10.819,29.972a122.066,122.066,0,0,0-3.755,25.756c-1.22,27.579-10.856,35.839-12.832,44.492a13.236,13.236,0,0,0-.311,4.141c2.157,25.119-9.925,74.365-9.925,74.365s-2.574.22-6.237.341c-8.744.287-23.712-.015-24.938-5.3-1.749-7.5-8.548-26.391-8.548-36.808s4.5-28.7,5.973-33.137,2.431-24.581,0-31.523c-2.77-7.926-.174-24.453,3.725-40.608,4.521-18.715,10.8-36.923,12.552-40.646,0,0,31.334-13.453,38.049-10.864S312.4,493.567,310.312,503.356Z" transform="translate(-150.529 -148.475)"/><path class="b" d="M394.29,640.315c0,10.417-6.8,29.305-8.547,36.808s-31.175,4.958-31.175,4.958-12.082-49.246-9.925-74.365c.916-10.7-11.727-16.762-13.143-48.633a121.3,121.3,0,0,0-4.027-26.778c-3.854-14.126-9.16-22.477-10.545-28.95-2.09-9.788,10.348-17.223,17.064-19.819S372.041,494.4,372.041,494.4a226.285,226.285,0,0,1,7.465,21.9c6.034,20.182,12.7,48.239,8.812,59.353-2.431,6.942-1.47,27.095,0,31.523S394.29,629.9,394.29,640.315Z" transform="translate(-130.156 -148.475)"/><path class="c" d="M308.414,503.356c-1.416,6.632-6.95,15.225-10.819,29.972-7.737-1-17.745-5.428-27.746-8.979-8.373-2.968-20.6,4.46-29.1,10.7,4.521-18.715,10.8-36.923,12.552-40.646,0,0,31.334-13.453,38.049-10.864S310.5,493.567,308.414,503.356Z" transform="translate(-148.632 -148.475)"/><path class="c" d="M379.505,516.3a93.89,93.89,0,0,0-30.691,10.182c-6.389,3.361-13.831,5.041-21.341,5.821-3.854-14.126-9.16-22.477-10.545-28.95-2.09-9.788,10.348-17.223,17.064-19.819S372.041,494.4,372.041,494.4A226.285,226.285,0,0,1,379.505,516.3Z" transform="translate(-130.156 -148.475)"/><g transform="translate(0 0)"><path class="d" d="M295.537,396c-6.449-5.066-23.346-17-36.6-9.5s-9.831,23.969-15.566,30.931-33.213-10.7-61.583,19.807c-32.662,35.119-5.518,62.263,16.606,80.491,22.777,18.766,59.072,10.463,77.463-11.86,17.449-21.18,3.931-41.74,11.058-50.39s17.82-10.153,22.282-14.581c4.484-4.45,5.7-7.345,2.955-9.605s-8.478,2.289-14.413-3.966c-5.891-6.208-3.653-16.233,1.213-22.139S298.338,398.2,295.537,396Z" transform="translate(-166.657 -172.588)"/><path class="d" d="M255.352,441.493l12.993,10.7,161.5-198.325-10.5-8.648Z" transform="translate(-145.079 -206.369)"/><path class="d" d="M387.111,254.359l1.359-10.62c.588-4.593,32.055-25.011,41.95-28.268,2.753-.905,5.77-.153,4.785,3.016l-3.082,9.913c-.837,2.688-8.734,2.587-13.1,11.674l-6.88,14.331c-1.257,2.62-4.947,1.432-8.69,2.986s-5.025,3.107-7.174,5.539S385.258,258.195,387.111,254.359Z" transform="translate(-113.087 -213.694)"/><rect class="e" width="1.952" height="4.189" transform="matrix(0.841, -0.541, 0.541, 0.841, 307.46, 3.438)"/><path class="f" d="M413.351,218.877a5.524,5.524,0,0,0,4.509-2.842l-1.24-1.931c-.607-.328-2.708-.251-4.527,2.746Z" transform="translate(-106.948 -213.972)"/><rect class="e" width="1.952" height="4.189" transform="translate(300.809 7.291) rotate(-32.707)"/><path class="f" d="M408,221.976a5.528,5.528,0,0,0,4.507-2.841l-1.241-1.932c-.6-.329-2.705-.25-4.524,2.746Z" transform="translate(-108.25 -213.218)"/><rect class="e" width="1.952" height="4.189" transform="matrix(0.842, -0.54, 0.54, 0.842, 294.406, 11.364)"/><path class="f" d="M402.852,225.251a5.519,5.519,0,0,0,4.508-2.84l-1.241-1.932c-.605-.328-2.705-.25-4.524,2.748Z" transform="translate(-109.502 -212.421)"/><rect class="e" width="1.952" height="4.189" transform="translate(288.069 15.669) rotate(-32.695)"/><path class="f" d="M397.755,228.715a5.528,5.528,0,0,0,4.507-2.841l-1.24-1.931c-.605-.329-2.707-.251-4.524,2.746Z" transform="translate(-110.742 -211.579)"/><rect class="e" width="1.952" height="4.189" transform="matrix(0.842, -0.54, 0.54, 0.842, 282.119, 20.051)"/><path class="f" d="M392.969,232.239a5.522,5.522,0,0,0,4.508-2.84l-1.24-1.932c-.605-.329-2.707-.251-4.526,2.746Z" transform="translate(-111.907 -210.721)"/><rect class="e" width="1.952" height="4.189" transform="matrix(0.841, -0.54, 0.54, 0.841, 276.366, 25.315)"/><path class="f" d="M388.342,236.471a5.517,5.517,0,0,0,4.508-2.84l-1.24-1.931c-.605-.331-2.705-.251-4.524,2.746Z" transform="translate(-113.032 -209.691)"/><ellipse class="g" cx="21.14" cy="21.139" rx="21.14" ry="21.139" transform="translate(63.246 257.691)"/><g transform="translate(43.31 22.523)"><path class="h" d="M436.987,236.32l-.788,11.07L207.524,521.442" transform="translate(-200.024 -231.058)"/><path class="h" d="M212.351,527.348,439.612,251.109l1.953-19.021" transform="translate(-198.85 -232.088)"/><path class="h" d="M205.548,462.59l13.737,11.652-4.293,4.68-13.5-11.747Z" transform="translate(-201.492 -176.013)"/></g></g><path class="a" d="M210.688,393.964c-.356,1.069-5.7,23.882-2.493,34.207S249.521,486.236,257,494.786c0,0-2.294-15-2.249-16.067s-28.209-49.61-28.078-54.829c.045-1.78,4.012-11.756,5.413-29.926S210.688,393.964,210.688,393.964Z" transform="translate(-156.799 -172.15)"/><path class="i" d="M329.117,255.359c-3.975,5.2-5.068,3.164,1.415,10.058,2.919,4.476-4.013,4.54-8.939,6.908a9.383,9.383,0,0,0-2.791,1.9c-2.444,2.109-7.319,2.56-11.949,3.241-9.853-1.184-12.245,6.637-11.962-3.241.039-.129.09-.257.116-.385,2.418-8.349-11.434-.7-8.6-8.116,6.47-2.933-7.923.282-3.241-11.949,6.894-5.145-8.424-9.4,3.241-11.962.758-4.591,11.6-1.53,8.489-8.489,3.112-3.743,8.99-1.6,11.962-3.241,11.872-2.676,6.894,6.367,11.949,3.241,6.7-2.264,8.451,6.379,8.5,8.489C331.148,245.958,339.368,255.359,329.117,255.359Z" transform="translate(-138.631 -210.174)"/><path class="j" d="M319.047,267.021a9.383,9.383,0,0,0-2.791,1.9c-2.444,2.109-7.319,2.56-11.949,3.241-9.853-1.184-12.245,6.637-11.962-3.241.039-.129.089-.257.116-.385,3.229-.605,6.188-1.784,6.187-4.335,0-11.518,13.644-12.818,13.644-12.818s3.707,7.828,3.939,8.677C316.345,260.5,317.671,263.754,319.047,267.021Z" transform="translate(-136.085 -204.87)"/><path class="k" d="M274.263,295.26s30.474-.435,33.086-12.189,3.047-18.167,0-24.974,17.414,7.559,17.414,7.559-2.177,9.143,0,16.108,6.966,7.107,14.366,6.383,0,22.785,0,22.785-26.512,2.876-28.493,3.833-29.408.348-30.714,0S274.263,295.26,274.263,295.26Z" transform="translate(-140.479 -203.683)"/><path class="l" d="M266.876,437.03c1.24.093,7.144-2.393,16.586,3.6s19.1,15.352,26.241,13.912,2.358-9.584-1.774-11.372c-3.721-1.609-10.746-3.7-9.225-6.373s4.835-2.368,8.174.009,6,.087,4.857-1.246-9.425-6.085-11.423-6.484c-1.477-.3-8.193,1.727-11.72.874s-17.541-5.5-17.541-5.5Z" transform="translate(-142.276 -162.77)"/><path class="a" d="M308.525,242.793s14.8-3.472,14.8,13.764-1.742,19.414-14.8,14.188S293.722,243.574,308.525,242.793Z" transform="translate(-134.688 -207.031)"/><path class="m" d="M486.49,425.9l-.257.022c-2.331.219-20.319,1.892-38.647,3.421-1.984.167-3.975.333-5.952.492-4.322.348-8.569.681-12.536.976-10.66.788-19.313,1.3-22.031,1.114l-4.11-9.138-3.475-7.729-1.59-3.536.152,1.56,1.1,6.374,6.867,39.926,16.927,98.371-173.9,2.1,5.428-48.126,2.93-25.982,2.005-17.738,6.307-55.916.469-4.141-5.306,22.894-83.526-2.431S187.06,389.3,211.68,314.294c9.107-27.77,45.545-50.125,93.564-34.659a125.937,125.937,0,0,1,13.718,5.33c2.362,1.075,11.393,20.3,26,13.536.311-.143.622-.287.924-.439,13.34-6.435,16.39-13.778,18.578-16.792,0-.007.007-.015.015-.022.076-.091.144-.182.213-.272,1.537-1.938,5.276-3.99,10.394-5.731,13.9-4.731,38.019-7.563,50.519,1.21s24.018,24.721,30.538,46.629c10.956,33.644,22.81,72.958,28.277,94.511.091.356.174.7.257,1.029C485.831,423.233,486.49,425.9,486.49,425.9Z" transform="translate(-164.055 -200.156)"/><path class="a" d="M398.043,407.637c-1.6,1.351-2.351,3.55-13.114,7.072-4.749-7.6-49.127-42.044-63.835-50.892-3.272-2.826-7.482-6.5-8.9-7.927-2.431-2.447-6.746-7.958-6.658-9.388s-7.073-7.155-8.72-7.43-2.2,3.021,1.38,4.563,4.874,4.857,3.451,7.41-4.963-3.134-8.816-3.029-8.806,4.125-6.456,10.642,9.6,3.252,19.666,6.663c4.6,1.56,6.4,5.171,9.28,7.439,6.7,5.278,34.685,49.764,57.734,66.7s45.875-25.482,48.52-26.609C421.579,412.847,399.641,406.287,398.043,407.637Z" transform="translate(-137.679 -183.543)"/><path class="n" d="M313.15,315.485l17.089,34.625,38.211,5.552L340.8,382.615l6.527,38.057L313.15,402.7l-34.177,17.968,6.527-38.057-27.65-26.952,38.211-5.552Z" transform="translate(-144.471 -189.277)"/><path class="o" d="M394.414,399.52c-.614.78-1.394,1.855-2.325,3.134Z" transform="translate(-111.815 -168.834)"/><path class="p" d="M254.868,447.094c-4.724,5.9-11.985,28.609-15.49,40.176l11.243-99.636,2.914-12.954c18.169-16.3,10.417,31.267,12.287,45.7S261.279,439.076,254.868,447.094Z" transform="translate(-148.965 -175.693)"/><path class="p" d="M322.111,296.327c-4.323,5.6-14.437,11.363-20.243,7.563-8.57-5.6-23.893-5.61-26.565-18.7-1.061-5.178,2.036-6.995,6.162-7.291a125.922,125.922,0,0,1,13.718,5.33c2.362,1.075,11.393,20.3,26,13.535C321.5,296.622,321.809,296.478,322.111,296.327Z" transform="translate(-140.277 -198.42)"/><path class="d" d="M336.9,387.715c-23.325,26.952-95.169,97.16-95.169,97.16l1.627-17.4c.121-.107.242-.22.378-.333,9.775-8.736,57.938-56.507,83.973-90.771,26.4-34.726,19.327-92.625,19.327-92.625s.7-1.424,1.764-3.347c0-.007.007-.015.015-.022.076-.091.144-.182.213-.272,1.537-1.938,5.276-3.99,10.394-5.731C362.576,308.7,357.776,363.6,336.9,387.715Z" transform="translate(-148.392 -199.28)"/><g transform="translate(145.206 136.49)"><g transform="translate(0)"><path class="q" d="M297.57,336.287l.086,1.489-13.734,33.905.213,1.014,3.517,1.746,1.431-.485,18.205-31.4,1.238-.833s-.608-4.1-.495-4.329S297.57,336.287,297.57,336.287Z" transform="translate(-283.335 -320.707)"/><path class="r" d="M287.958,373.52l-3.372-1.673a1.824,1.824,0,0,1-.86-2.367l14.014-31.994,9.632,4.78-17.009,30.509A1.825,1.825,0,0,1,287.958,373.52Z" transform="translate(-283.42 -320.415)"/><path class="r" d="M285.819,369.8l-2.369-1.176.8-3.05,3.518,1.746Z" transform="translate(-283.449 -313.582)"/><path class="r" d="M309.235,324.939l-.188-.093a10.427,10.427,0,0,0-13.977,4.7l-.093.189a10.417,10.417,0,0,0,.168,9.6l10.956,5.437a10.412,10.412,0,0,0,7.746-5.669l.093-.188A10.427,10.427,0,0,0,309.235,324.939Z" transform="translate(-280.91 -323.755)"/><g transform="translate(14.519 22.751)"><rect class="s" width="4.634" height="1.864" rx="0.742" transform="translate(0 4.151) rotate(-63.603)"/><rect class="q" width="4.634" height="1.864" rx="0.742" transform="translate(0 4.151) rotate(-63.603)"/></g><path class="l" d="M364.925,399.075a11.018,11.018,0,0,1,.75,1.029Z" transform="translate(-263.629 -305.432)"/><path class="a" d="M417.954,416.049c-7.813,10.734-26.284,35.77-44.893,22.09-23.052-16.927-51.033-61.42-57.733-66.7-2.884-2.263-4.678-5.874-9.281-7.434A46.543,46.543,0,0,0,294.887,362a4.318,4.318,0,0,1-.454-.046c-2.99-.295-5.315-.719-6.829-2.468a4.735,4.735,0,0,1-.5-.65,7.118,7.118,0,0,1-.727-1.492c-2.264-6.284,2.248-10.243,6.034-10.614.121-.015.25-.022.371-.03h.053c1.659-.046,3.255.983,4.656,1.961a2.973,2.973,0,0,0,.818.576c1.218.855,2.233,1.476,2.937.969a1.354,1.354,0,0,0,.409-.477,4.163,4.163,0,0,0,.341-.809,4.528,4.528,0,0,0,.144-.629,4.026,4.026,0,0,0,.59-.969l.022-.022a.107.107,0,0,0-.015.045c.022-.037.037-.068.052-.1s.024-.022.046-.045c.045-.061.1-.114.152-.175.076-.083.159-.165.25-.249.1-.114.211-.22.317-.326.159-.152.311-.3.462-.455a8.246,8.246,0,0,0,1.233-1.537,1.3,1.3,0,0,1,.288.727c-.083,1.431,4.232,6.942,6.661,9.387,1.416,1.424,5.625,5.1,8.9,7.927,10.621,6.389,36.718,26.134,52.184,39.465,1.7,7.335,4.134,18.1,3.9,19.153-.356,1.605,12.65.712,14.074,1.068C392.207,422.43,408.7,418.72,417.954,416.049Z" transform="translate(-282.885 -318.718)"/><path class="l" d="M402.177,399.46a1.378,1.378,0,0,0-.378.3h-.009a10.368,10.368,0,0,0-.915,1.083c-1.189-.213-2.551-.47-4.028-.787-4.732.28-9.342.545-13.528.756-8.577.433-15.376.681-17.791.516v-.009c10.766-3.52,11.515-5.715,13.113-7.071a3.057,3.057,0,0,1,1.794-.137C386.037,394.639,402.177,399.46,402.177,399.46Z" transform="translate(-263.482 -306.65)"/><path class="m" d="M443.148,397.544c-.083-.333-.167-.674-.257-1.029-2.424-9.556-6.1-22.606-10.4-37.1-7.642.339-15.4-.329-22.974-.709-14.444-.722-29.122-1.933-43.569-.862a9.552,9.552,0,0,1-1.533-.02,20.506,20.506,0,0,1-9.829,3.6,23.064,23.064,0,0,1-6.5-.265c.182,1.09.341,2.2.446,3.308.385,1.552.817,3.1,1.272,4.656,1.272,4.375,2.725,8.722,3.975,13.028.908,3.134,1.846,6.276,2.6,9.464l.068.295.068.1a.023.023,0,0,0,.007.015l1.431,1.961,11.075,15.231.75,1.029v.009c2.416.165,9.214-.083,17.791-.516,4.186-.211,8.8-.476,13.528-.756,1.635-.1,3.286-.2,4.943-.3h.009c19.312-1.189,38.912-2.588,38.912-2.588s-.091-.433-.257-1.249C444.4,403.448,443.874,400.943,443.148,397.544Z" transform="translate(-267.727 -315.566)"/></g><path class="p" d="M384.722,401.056a22.7,22.7,0,0,1-5.2-4.125,15.923,15.923,0,0,0-1.928-1.773h0c-8.12-12.062-29.689-29.62-29.689-29.62l8.648,24.489a.023.023,0,0,0,.007.015c.053.242.735,3.081,1.605,6.8a101.749,101.749,0,0,1,10.9,10.394l.75,1.029v.009c2.416.165,9.214-.083,17.791-.516,4.186-.211,8.8-.476,13.528-.756C396.1,405.9,389.779,404.084,384.722,401.056Z" transform="translate(-267.77 -313.591)"/></g><g class="t" transform="translate(92.08 395.391)"><g transform="translate(4.243 0)"><path class="e" d="M265.328,534.484l-.66.773-6.3,7.4-10.555,12.378q.44.651.834,1.346c.169.3.332.6.491.905l9.056-12.128,7.695-10.349Z" transform="translate(-243.238 -531.392)"/><path class="e" d="M263.15,533.244l-2.383,2.795-5.033,5.9L246.3,553a16.243,16.243,0,0,1,1.349,1.584l7.949-10.647,6.893-9.269.929-1.257Z" transform="translate(-243.605 -531.694)"/><path class="e" d="M245.8,552.558c2.837-3.793,13.984-18.711,15.274-20.548l-.02-.014L245.124,550.67l.011,1.338Q245.476,552.272,245.8,552.558Z" transform="translate(-243.891 -531.997)"/><path class="e" d="M257.6,532.246c-.262.466-12.814,17.247-12.814,17.247l-.02-2.209Z" transform="translate(-243.978 -531.936)"/><path class="e" d="M254.559,532.442c-.21.373-10.235,13.772-10.235,13.772l-.019-1.762Z" transform="translate(-244.09 -531.889)"/><path class="e" d="M252.325,532.389c-.167.3-8.176,11-8.176,11l-.017-1.407Z" transform="translate(-244.132 -531.902)"/></g><g transform="translate(0 1.156)"><path class="e" d="M259.147,553.968l-16.363-18.66q-1.018.668-2.065,1.294c4.761,4.877,11.759,12.042,17.809,18.22Q258.835,554.393,259.147,553.968Z" transform="translate(-240.719 -532.348)"/><path class="e" d="M260.37,551.859l-15.716-17.922q-.817.619-1.662,1.195c4,4.1,11.2,11.472,16.94,17.33Z" transform="translate(-240.166 -532.681)"/><path class="e" d="M261.566,549.748l-14.453-16.482-1.38-.339c-.235.2-.474.4-.715.588,2.756,2.826,10.744,11.01,16.263,16.636Z" transform="translate(-239.673 -532.927)"/><path class="e" d="M262.373,547.586l-12.185-13.9-2.46-.605s9.095,9.326,14.454,14.786C262.245,547.777,262.308,547.681,262.373,547.586Z" transform="translate(-239.014 -532.889)"/><path class="e" d="M262.937,545.576,252.62,533.81l-1.967-.482s7.994,8.2,12.162,12.438C262.856,545.7,262.9,545.639,262.937,545.576Z" transform="translate(-238.302 -532.829)"/><path class="e" d="M263.438,544.048l-8.654-9.869-1.574-.387s6.939,7.115,10.128,10.354C263.371,544.112,263.4,544.08,263.438,544.048Z" transform="translate(-237.68 -532.717)"/></g></g><g class="t" transform="translate(235.403 433.664)"><g transform="translate(1.157 0)"><path class="e" d="M360.873,563.028l.293.574,2.8,5.494,4.692,9.2c.326-.066.656-.121.992-.162q.324-.039.65-.068l-4.911-8.257c-1.483-2.482-2.974-4.978-4.2-7.026Z" transform="translate(-355.97 -562.781)"/><path class="e" d="M359.649,563.9l1.059,2.076,2.237,4.386,4.192,8.221a10.236,10.236,0,0,1,1.257-.405l-4.31-7.25-3.76-6.293q-.272-.451-.511-.85C359.758,563.826,359.7,563.863,359.649,563.9Z" transform="translate(-356.267 -562.536)"/><path class="e" d="M366.8,578.64c-1.535-2.585-7.573-12.747-8.336-13.948l-.012.007,7.075,13.879.787.318C366.475,578.807,366.636,578.72,366.8,578.64Z" transform="translate(-356.558 -562.316)"/><path class="e" d="M357.906,566.429c.21.267,7,11.705,7,11.705l-1.3-.526Z" transform="translate(-356.691 -561.894)"/><path class="e" d="M357.4,567.964c.168.214,5.587,9.347,5.587,9.347l-1.038-.417Z" transform="translate(-356.813 -561.52)"/><path class="e" d="M356.929,569.024c.134.17,4.463,7.468,4.463,7.468l-.829-.333Z" transform="translate(-356.929 -561.262)"/></g><g transform="translate(0 2.868)"><path class="e" d="M371.53,570.556l-14.917,5.059c.1.506.181,1.014.257,1.525,4.016-1.606,9.918-3.969,15.01-6.014Z" transform="translate(-355.848 -563.758)"/><path class="e" d="M370.609,569.241,356.283,574.1q.164.629.3,1.264c3.372-1.348,9.446-3.778,14.276-5.72C370.775,569.509,370.692,569.375,370.609,569.241Z" transform="translate(-355.929 -564.078)"/><path class="e" d="M369.709,567.984l-13.176,4.468-.535.726c.06.188.117.374.172.562,2.326-.929,9.066-3.623,13.7-5.491Z" transform="translate(-355.998 -564.383)"/><path class="e" d="M368.67,566.878l-11.109,3.767-.952,1.3s7.678-3.066,12.182-4.881C368.751,567,368.711,566.938,368.67,566.878Z" transform="translate(-355.849 -564.653)"/><path class="e" d="M367.628,565.9l-9.4,3.189-.761,1.036s6.748-2.694,10.247-4.108Z" transform="translate(-355.642 -564.892)"/><path class="e" d="M366.854,565.088l-7.889,2.675-.609.829s5.858-2.34,8.531-3.421Z" transform="translate(-355.424 -565.088)"/></g></g><path class="u" d="M277.193,584.163c2.157,25.119-9.925,74.365-9.925,74.365s-2.574.22-6.237.341c.052-.522-6.208-.472-5.858-.961,14.428-20.173,16.567-56.646,18.57-66,.462-2.155,1.6-8.71,3.762-11.89A13.237,13.237,0,0,0,277.193,584.163Z" transform="translate(-145.127 -124.923)"/><g transform="translate(225.336 547.915)"><path class="v" d="M416.035,677.894c-6.45.863-19.5-.12-29-.651h-.007c-.3-.022-.583-.037-.87-.052-4.951-.265-8.8-.387-9.978-.007-.128.045-.287.083-.476.128-.47.114-1.121.242-1.916.364-7.161,1.113-25.656,2.218-25.884-3.339a13.653,13.653,0,0,1,.3-3.187c.045-.228.091-.455.152-.681.007-.016.007-.024.015-.038.067-.3.143-.613.234-.924.009-.007.009-.007.009-.015,1.635-5.738,5.594-11.8,6.473-11.28,11.749,7,23.242-1.279,25.611-3.164.295-.235.446-.37.446-.37s.446.03,1.294.113c.461.053,1.052.12,1.749.2.378.046.787.1,1.233.159.152.022.3.039.455.068.363.046.748.1,1.158.159.2.03.394.061.605.1h.007q1.671.261,3.725.644c.855.158,1.749.333,2.7.53,1.424.287,2.953.628,4.573,1.007.152.045.311.1.461.152.811.249,1.605.53,2.386.817a49.7,49.7,0,0,1,7.456,3.468l.007.007C419.949,668.393,423.992,676.835,416.035,677.894Z" transform="translate(-347.9 -654.676)"/><path class="w" d="M408.9,662.1a15.426,15.426,0,0,0-11.06,11.243s-5.056-.931-10.788-1.772c-.492-.068-1-.137-1.507-.205-.916-.128-1.846-.257-2.77-.37-.8-.1-1.583-.189-2.347-.272-4.255-.455-7.935-.622-9.131-.053-3.24,1.529-23.362,5.352-23.142.477a2.361,2.361,0,0,1,.152-.681c.007-.016.007-.024.015-.038a5.618,5.618,0,0,0,.234-.924c.009-.007.009-.007.009-.015,1.635-5.738,5.593-11.8,6.473-11.28,11.749,7,23.242-1.279,25.611-3.164.295-.235.446-.37.446-.37s.446.03,1.294.113c.461.053,1.052.12,1.749.2.378.046.787.1,1.233.159.152.022.3.039.455.068.363.046.748.1,1.158.159.2.03.394.061.605.1h.007q1.671.261,3.725.644c.855.158,1.749.333,2.7.53,1.424.287,2.953.628,4.573,1.007.152.045.311.1.461.152.811.249,1.605.53,2.386.817a49.7,49.7,0,0,1,7.456,3.468Z" transform="translate(-347.84 -654.676)"/><g transform="translate(31.432 0.317)"><path class="x" d="M380.889,655.318c-.219.2-.53.5-.909.885a22.56,22.56,0,0,0-3.557,4.55,10.645,10.645,0,0,0-.826,1.772c-.083.235-.152.476-.213.719l-2.2-.537a11.57,11.57,0,0,1,1.151-2.862v-.007a16.84,16.84,0,0,1,1.068-1.7,25.167,25.167,0,0,1,2.642-3.2c.378.046.787.1,1.233.159.152.022.3.039.455.068C380.095,655.2,380.48,655.257,380.889,655.318Z" transform="translate(-373.182 -654.931)"/></g><g transform="translate(38.67 1.446)"><path class="x" d="M386.506,656.369c-1.264,1.189-4.512,4.5-5.291,7.729L379,663.561c.734-3.029,3.127-5.959,4.806-7.722C384.666,656,385.56,656.172,386.506,656.369Z" transform="translate(-379.004 -655.839)"/></g><g transform="translate(46.619 3.134)"><path class="x" d="M392.371,658.014c-1.477,1.468-4.082,4.376-4.77,7.222l-2.2-.537c.7-2.907,2.93-5.724,4.588-7.5C390.8,657.446,391.59,657.727,392.371,658.014Z" transform="translate(-385.397 -657.197)"/></g><g transform="translate(24.819)"><path class="r" d="M377.974,671a9.341,9.341,0,0,1-1.787,1.15,12.981,12.981,0,0,0-5.337,5.163c-1.34,2.332-1.757,4.678-1.287,5.913l-1.416.537c-.561-1.468-.288-3.755.787-6.086a14.64,14.64,0,0,1,6.572-6.883c.037-.022.083-.045.121-.067,3.77-1.961,3.149-4.21,1.264-8.138-.106-.228-.22-.463-.341-.7-.213-.433-.424-.872-.629-1.31-.106-.228-.2-.454-.295-.674a5.349,5.349,0,0,1-.228-4.088,3.5,3.5,0,0,1,.448-.765c.295-.235.446-.37.446-.37s.446.03,1.294.113l.2.6a1.927,1.927,0,0,0-1.013,1.037,3.035,3.035,0,0,0-.083,1.772,7.412,7.412,0,0,0,.591,1.733c.143.3.287.591.431.886.067.137.128.272.2.4C379.6,664.676,381.342,668.241,377.974,671Z" transform="translate(-367.863 -654.676)"/></g><g transform="translate(37.384 0.545)"><path class="r" d="M383.714,663.471a28.35,28.35,0,0,1-1.931,3.839,20.544,20.544,0,0,0-1.99,4.156,6.531,6.531,0,0,0,.6,5.306l-.666.363h-.008l-.659.357c-.076-.137-.143-.273-.211-.409a7.88,7.88,0,0,1-.561-5.822,21.045,21.045,0,0,1,2.181-4.7,25.894,25.894,0,0,0,1.833-3.627,4.15,4.15,0,0,0,.257-1.257,4.642,4.642,0,0,0-.886-2.8,10.6,10.6,0,0,0-2.855-2.718c-.363-.242-.6-.378-.613-.385l.364-.659c.363.046.748.1,1.158.159.2.03.394.061.605.1h.007a12.189,12.189,0,0,1,2.31,2.24,7.331,7.331,0,0,1,1.172,2.181A5.416,5.416,0,0,1,383.714,663.471Z" transform="translate(-377.97 -655.114)"/></g></g><g transform="translate(53.768 550.504)"><path class="v" d="M214.067,679.977c6.45.864,19.5-.121,29-.65h.007c.3-.022.583-.039.87-.054,4.952-.265,8.8-.385,9.979-.007.128.046.287.083.476.129.47.113,1.121.241,1.916.363,7.161,1.113,25.656,2.218,25.884-3.338a13.591,13.591,0,0,0-.3-3.188c-.045-.228-.091-.454-.15-.681-.007-.015-.007-.022-.015-.037-.068-.3-.144-.614-.235-.924-.007-.007-.007-.007-.007-.016-1.636-5.738-5.595-11.8-6.474-11.279-11.749,6.995-23.24-1.281-25.61-3.165-.3-.234-.448-.371-.448-.371s-.446.03-1.294.113c-.461.054-1.052.122-1.748.205-.379.045-.788.1-1.235.159-.152.022-.3.037-.454.067-.364.046-.75.1-1.159.159-.2.031-.394.061-.605.1h-.007q-1.669.261-3.725.644c-.855.159-1.749.333-2.7.53-1.424.288-2.953.629-4.573,1.007-.152.046-.31.1-.461.152-.811.25-1.605.53-2.385.817a49.672,49.672,0,0,0-7.457,3.468l-.007.007C210.153,670.477,206.111,678.918,214.067,679.977Z" transform="translate(-209.904 -656.759)"/><path class="w" d="M218.946,664.185a15.427,15.427,0,0,1,11.06,11.243s5.058-.931,10.788-1.772c.492-.068,1-.137,1.507-.2.916-.129,1.847-.257,2.771-.372.794-.1,1.581-.189,2.346-.272,4.254-.454,7.935-.62,9.131-.054,3.24,1.529,23.362,5.352,23.142.477a2.406,2.406,0,0,0-.15-.681c-.007-.015-.007-.022-.015-.037a5.555,5.555,0,0,1-.235-.924c-.008-.007-.008-.007-.008-.016-1.636-5.738-5.595-11.8-6.474-11.279-11.749,6.995-23.24-1.281-25.61-3.165-.3-.234-.448-.371-.448-.371s-.446.03-1.294.113c-.461.054-1.052.122-1.748.205-.379.045-.788.1-1.235.159-.152.022-.3.037-.454.067-.364.046-.75.1-1.159.159-.2.031-.394.061-.605.1h-.007q-1.669.261-3.725.644c-.855.159-1.749.333-2.7.53-1.424.288-2.953.629-4.573,1.007-.152.046-.31.1-.461.152-.811.25-1.605.53-2.385.817a49.673,49.673,0,0,0-7.457,3.468Z" transform="translate(-207.704 -656.759)"/><g transform="translate(33.159 0.318)"><path class="x" d="M236.574,657.4c.22.205.53.5.909.886a22.588,22.588,0,0,1,3.558,4.549,10.632,10.632,0,0,1,.824,1.772c.083.235.152.477.213.72l2.2-.538a11.561,11.561,0,0,0-1.151-2.861v-.009a17.206,17.206,0,0,0-1.067-1.7,25.276,25.276,0,0,0-2.642-3.2c-.379.045-.788.1-1.235.159-.152.022-.3.037-.454.067C237.368,657.287,236.983,657.339,236.574,657.4Z" transform="translate(-236.574 -657.015)"/></g><g transform="translate(26.125 1.446)"><path class="x" d="M230.917,658.452c1.264,1.189,4.512,4.5,5.291,7.729l2.212-.537c-.735-3.029-3.127-5.958-4.808-7.722C232.757,658.081,231.863,658.255,230.917,658.452Z" transform="translate(-230.917 -657.922)"/></g><g transform="translate(18.707 3.134)"><path class="x" d="M224.95,660.1c1.476,1.47,4.08,4.376,4.769,7.223l2.2-.538c-.7-2.907-2.93-5.723-4.588-7.5C226.524,659.53,225.73,659.81,224.95,660.1Z" transform="translate(-224.95 -659.28)"/></g></g><g transform="translate(163.141 126.136)"><line class="y" x1="2.16" y1="9.168" transform="translate(0 0.426)"/><line class="y" y1="9.317" x2="2.982" transform="translate(9.874)"/><line class="y" y1="4.744" x2="6.381" transform="translate(16.183 9.085)"/></g></g></svg>