<svg xmlns="http://www.w3.org/2000/svg" xmlns:xlink="http://www.w3.org/1999/xlink" width="528" height="338" viewBox="0 0 528 338"><defs><style>.a,.d{fill:#fff;}.a{stroke:#707070;}.b{clip-path:url(#a);}.c{fill:url(#b);}.e{fill:url(#c);}</style><clipPath id="a"><rect class="a" width="528" height="338" transform="translate(493.217 326.467)"/></clipPath><linearGradient id="b" x1="0.351" y1="-0.1" x2="0.626" y2="1.074" gradientUnits="objectBoundingBox"><stop offset="0" stop-color="#bddce7"/><stop offset="0.029" stop-color="#bddce7"/><stop offset="1" stop-color="#f3f7fa"/></linearGradient><linearGradient id="c" y1="0.5" x2="1" y2="0.5" gradientUnits="objectBoundingBox"><stop offset="0" stop-color="#ff93b1"/><stop offset="0.048" stop-color="#ff93b1"/><stop offset="0.29" stop-color="#ffa0ac"/><stop offset="0.484" stop-color="#ffb4a3"/><stop offset="0.737" stop-color="#ffc19e"/><stop offset="0.881" stop-color="#ffd395"/><stop offset="1" stop-color="#ffd694"/></linearGradient></defs><g class="b" transform="translate(-493.217 -326.467)"><g transform="translate(390.362 326.027)"><g transform="translate(102.218 0)"><path class="c" d="M532.666,446.708c12.143-38.23,83.013-56.631,137.791-52.493,60.287,4.554,65.683,33.737,120.294,34.995,66.542,1.533,76.539-41.374,135.6-37.182,57.364,4.073,120.39,49.688,129.042,107.171,2.63,17.474-4.842,17.046-6.562,52.492-2.635,54.339,12.827,68.5,4.375,96.235-11.222,36.815-51.534,54.738-61.241,59.053-36.55,16.251-57.765,4.709-146.54-2.186-63.786-4.956-95.68-7.433-131.229-2.188-74.63,11.012-93.676,38.5-129.043,24.058C551.7,713,528.993,672.165,528.292,636.99c-.814-40.815,28.524-47.759,30.619-91.861C561.353,493.746,522.72,478.021,532.666,446.708Z" transform="translate(-528.275 -391.739)"/><path class="d" d="M893.244,440.477h3.478c-1.934,0-3.5,1.993-3.5,4.452s1.568,4.452,3.5,4.452h7.5c1.934,0,3.5,1.993,3.5,4.452s-1.568,4.452-3.5,4.452h-15.6c-1.936,0-3.5,1.993-3.5,4.452s1.568,4.452,3.5,4.452h66.946c1.934,0,3.5-1.993,3.5-4.452s-1.568-4.452-3.5-4.452h-4.778c-1.934,0-3.5-1.994-3.5-4.452s1.57-4.452,3.5-4.452h15.647c1.934,0,3.5-1.993,3.5-4.452s-1.568-4.452-3.5-4.452H893.244Z" transform="translate(-428.617 -378.128)"/><path class="e" d="M609.708,527.293l.624-6.038.156-1.506.156-1.252.311-2.506.312-2.506.156-1.254.156-1.069.623-4.15.624-4.083.624-3.266.623-3.266c.207-1.073.416-2.263.624-3.035l.623-2.6.156-.641.156-.537.311-1.073.624-2.124.624-1.686c.207-.532.416-1.188.623-1.621s.416-.94.624-1.292.416-.782.623-1.062.416-.605.624-.848a3.829,3.829,0,0,1,1.247-1.02c.416-.164.831-.352,1.247-.049a2.239,2.239,0,0,1,.623.8,8.6,8.6,0,0,1,.624,1.4l.623,2.126c.052.187.1.331.156.554l.156.72.312,1.442c.1.512.209.892.312,1.511l.311,1.882.624,3.766c.416,2.331.832,5.443,1.247,8.343l1.247,8.585.624,4.214c.207,1.24.416,2.212.623,3.331l.624,3.254.156.814.077.391.079.269.311,1.077a7.754,7.754,0,0,0,1.247,2.945c.416.472.832.447,1.247-.063a2.881,2.881,0,0,0,.312-.449c.1-.194.208-.492.312-.734.1-.274.208-.753.312-1.119.051-.15.1-.528.156-.8l.155-.893.312-1.787.312-2.832.624-5.816.155-1.455c.027-.207.052-.5.078-.908l.078-1.105.312-4.421.624-8.845,2.495-34.516.312-4.247.155-2.124c.027-.408.052-.545.078-.817l.078-.725c.209-1.9.416-4.077.624-5.277.416-3.219.831-4.9,1.247-5.564.831-1.128,1.663,1.417,2.495,6.918l.312,2.281.155,1.14.156,1.48.624,6.152c.416,3.666.832,9.326,1.247,14.266l2.495,30.566,1.247,11.572.078.677.078.516.156,1.034.312,2.065c.1.77.207,1.2.311,1.7l.312,1.483a15.091,15.091,0,0,0,.624,2.278l.156.471.156.315a1.776,1.776,0,0,0,.311.489c.416.483.831.147,1.247-.763a17.564,17.564,0,0,0,.624-1.888c.207-.784.416-1.81.623-2.7l.312-1.387.312-1.567.623-3.1c.416-1.8.832-3.915,1.249-5.153a7.613,7.613,0,0,1,.311-.846c.1-.242.208-.561.312-.738a1.859,1.859,0,0,1,.623-.773c.833-.5,1.664,1.371,2.5,6.112l1.247,6.939.623,3.43c.1.622.209.986.312,1.487l.156.7.156.554c.416,1.54.832,2.391,1.247,2.36.416.006.832-.875,1.247-2.264l.156-.54.156-.7.311-1.4c.052-.266.1-.394.156-.774l.156-1.021.312-2.042.623-4.119.624-5.723,2.495-22.82.624-4.715.311-2.309.312-1.748c.209-1.309.416-1.969.624-2.849l.156-.628.155-.441c.052-.139.105-.311.156-.425l.156-.31c.209-.452.416-.637.624-.7a.268.268,0,0,1,.312.113.785.785,0,0,1,.155.279c.052.125.1.219.156.371l.312,1.355.078.339a2.728,2.728,0,0,1,.078.449l.156,1.278.623,5.111,2.5,33.005.311,4.058.156,2.029.078.99.078.666.312,2.662.312,1.883c.416,2.468.831,2.8,1.246,1.979.833-1.375,1.664-5.558,2.5-12.055l.155-1.188c.052-.388.1-.76.157-1.357l.311-3.234.624-6.471,1.247-12.94,1.247-13.514.312-3.379.311-2.844.624-5.689.312-2.844.311-2.2.312-2.15.078-.539.078-.4.156-.8.312-1.589.156-.794c.051-.238.1-.394.155-.595a13.522,13.522,0,0,1,.624-1.883,1.841,1.841,0,0,1,.624-.829c.1-.054.207-.1.311,0a1.59,1.59,0,0,1,.312.623l.312,1.478.156.766.156,1.481.623,5.924,2.494,40.895.624,10.369.623,7.024.156,1.756.156,1.133.312,2.156a7.741,7.741,0,0,0,.623,2.113c.832,1.733,1.663,2.028,2.5.789a9.44,9.44,0,0,0,.623-1.149c.207-.421.416-1.07.624-1.593.416-1.048.831-2.331,1.246-3.573.209-.654.417-1.159.624-1.715l.624-1.634c.207-.4.416-.869.623-1.208a3.587,3.587,0,0,1,.624-.8c.831-.806,1.663-.425,2.494,1.2,1.663,3.345,3.326,11.85,4.989,13.514.416.505.832.623,1.247.083a11.073,11.073,0,0,0,1.247-2.579c.209-.547.416-.993.624-1.421a3.189,3.189,0,0,1,.623-.957c.416-.421.831-.3,1.247.168a5.281,5.281,0,0,1,.624,1.008c.207.457.416.985.623,1.483.416,1.127.832,2.291,1.247,3.176.416.848.831,1.309,1.247,1.215a.7.7,0,0,0,.312-.152c.1-.1.209-.076.312-.737.052-.182.1-.768.156-1.22l.078-.711c.026-.187.051-.527.078-.936l.312-4.518.311-4.435.078-1.105c.027-.374.052-.773.078-.931l.156-1.312c.1-.738.207-1.047.312-.947a.736.736,0,0,1,.156.377l.078.306.077.574c.417,3.092.833,10.879,1.249,14.1l.078.6.077.331a1.054,1.054,0,0,0,.156.43c.1.082.209-.008.312-.358l.078-.22.078-.435.156-.876.078-.439.078-.746.156-1.494.623-6.007.156-1.512.078-.756a5.656,5.656,0,0,1,.078-.6l.156-.916.078-.458a1.466,1.466,0,0,1,.078-.347c.207-.672.416-1.3.623,1.185l.078.787.078,1.273.156,2.545.312,4.969c.207,3.656.416,4.709.623,3.584a3.847,3.847,0,0,0,.078-.478c.026-.219.052-.3.078-.632l.156-1.866c.026-.3.052-.591.078-1.139l.078-1.44.156-2.882.312-5.644.155-2.779c.027-.4.052-1.063.078-1.242l.078-.816a7.46,7.46,0,0,1,.312-2.061c.052-.072.1-.019.156.074a1.188,1.188,0,0,1,.078.185l.078.321.078.324.078.612.156,1.224.077.643.078,1.025.156,2.047.624,8.274.156,2.089.078,1.045c.026.359.051.477.078.729l.156,1.319.078.659c.026.187.051.269.077.409.1.6.209.8.312.893a.637.637,0,0,0,.312.159c.416.037.831-.45,1.247-1.713.1-.285.208-.534.312-.849l.312-1.077.623-2.217a16.02,16.02,0,0,1,1.247-3.417,1.231,1.231,0,0,1,.624-.619c.1,0,.207-.151.311.248a5.481,5.481,0,0,1,.156.842l.078.51.078.8.624,6.44.156.856c.051.2.1.285.156.288a1.285,1.285,0,0,0,.311-.642l.156-.56.156-.866c.1-.629.207-1.012.312-1.991l.623-5.085.624-4.777.312-1.365a1.456,1.456,0,0,1,.311-.743c.416-.379.832,1.16,1.247,4.828l1.249,10.18.311,1.525c.027.111.052.287.078.348l.078.2a2.086,2.086,0,0,0,.156.357.258.258,0,0,0,.312.148,1.3,1.3,0,0,0,.311-.072,2.782,2.782,0,0,0,1.248-1.11l.311-.492.312-.6a7.019,7.019,0,0,0,.312-.634l.312-.8.623-1.591c.208-.5.416-1.237.624-1.843.832-2.5,1.663-5.3,2.495-7.319l.312-.806.311-.638a7.037,7.037,0,0,1,.624-1.094,3.1,3.1,0,0,1,1.247-1.26.8.8,0,0,1,.623-.077,1.523,1.523,0,0,1,.624.638,15.657,15.657,0,0,1,1.247,3.665c.831,3.2,1.663,7.667,2.494,9.944.416,1.05.832,1.645,1.247,1.554a.989.989,0,0,0,.625-.551,2.218,2.218,0,0,0,.156-.316,2.356,2.356,0,0,0,.156-.4l.311-1.028c.832-3.159,1.663-11.337,2.495-17.447l.624-4.732.312-2.365c.1-.775.207-1.671.312-2.1.415-2.309.83-3.613,1.246-4.021.208-.206.417-.115.624-.05a1.654,1.654,0,0,1,.623.484,1.948,1.948,0,0,1,.312.394,2.981,2.981,0,0,1,.312.518l.624,1.32.623,1.785.624,2.353.623,2.379.624,2.867,1.247,5.9.623,2.982.624,2.668a35.324,35.324,0,0,0,2.495,8.056,3.823,3.823,0,0,0,1.247,1.7c.416.166.831-.234,1.247-1.269.207-.563.416-1.293.624-1.932.1-.289.207-.757.311-1.176l.312-1.274c.416-1.71.831-3.615,1.247-5.016a8.3,8.3,0,0,1,1.247-3.049c.209-.247.416-.354.624-.308a.461.461,0,0,1,.156.154l.156.322c.1.294.207.8.311,1.186l.078.312c.027.111.052.334.078.5l.156,1.055.312,2.112.623,4.348.156,1.095c.053.38.1.516.156.786l.156.714.078.357c.026.1.052.152.078.231.207.651.416.843.623.624a5.442,5.442,0,0,0,.624-2.166l.624-3.439a23.66,23.66,0,0,1,.623-3.029c.207-.8.416-.9.623-.732a1.712,1.712,0,0,1,.312.559l.312,1.112a7.658,7.658,0,0,1,.156.784l.156.887.311,1.772.624,3.325.156.82c.052.238.1.352.156.534a1.736,1.736,0,0,0,.156.37.674.674,0,0,0,.156.248c.207.242.416-.082.623-.452a7.966,7.966,0,0,0,.624-1.777,23.74,23.74,0,0,0,.623-2.677l.312-1.673.078-.422.078-.533.156-1.07.311-2.138.312-2.828.624-5.793,1.247-11.579,1.247-11.15.623-5.575.156-1.393c.052-.466.105-.971.156-1.229l.312-1.91c.209-1.424.416-2.167.623-3.147l.156-.7c.052-.24.1-.356.156-.54a6.567,6.567,0,0,1,.312-.894,2.314,2.314,0,0,1,.625-1.015c.1-.065.207-.13.311-.072a.632.632,0,0,1,.156.31l.078.232c.026.069.052.287.078.421l.156.929.078.464.078.9.312,3.6.156,1.8.155,2.987.312,6.062,1.247,24.457.312,6.015.312,3.8.155,1.9c.027.287.053.7.078.883l.079.526a15.494,15.494,0,0,0,.311,1.8c.1.423.209.486.312.555a.871.871,0,0,0,.312.138.736.736,0,0,0,.623-.187,2.475,2.475,0,0,0,.624-.829,9.445,9.445,0,0,0,.623-1.357c.416-1.089.831-2.623,1.247-4.035.416-1.462.831-3.043,1.247-4.214a11.646,11.646,0,0,1,1.247-2.932c.833-1.223,1.663-.963,2.5.8a7.17,7.17,0,0,1,.311.719l.312.9.312.894c.1.3.207.71.312,1.059l1.247,4.307.623,2.138a16.573,16.573,0,0,0,.624,1.594,3.877,3.877,0,0,0,1.247,1.774c.416.214.831-.276,1.247-1.31a7.759,7.759,0,0,0,.312-.807l.311-.885c.209-.621.416-1.237.624-1.732.831-2.2,1.663-2.308,2.494.046.416,1.141.832,2.4,1.247,3.467l.312.664a2.188,2.188,0,0,0,.312.466.473.473,0,0,0,.623.132c.209-.133.416-.362.624-1.072l.155-.48.157-.745.311-1.542c.1-.394.208-1.352.312-2.081l.312-2.324.623-4.6.624-4.436a22.276,22.276,0,0,1,.623-3.354c.416-1.627.831-1.6,1.247-1.029a3.254,3.254,0,0,1,.312.569l.312.889a20,20,0,0,1,.623,2.752l1.247,7.058.624,3.61.312,1.805c.1.592.207,1.265.312,1.629a20.183,20.183,0,0,0,.623,2.221l.312.673a1.523,1.523,0,0,0,.312.44c.831.579,1.663.1,2.494-1.223.416-.65.831-1.554,1.247-2.364l.623-1.279c.208-.425.416-.743.624-1.121l.312-.542.311-.414a3.035,3.035,0,0,1,.624-.635,1.685,1.685,0,0,1,.623-.3c.209-.024.416-.123.624.214a30.964,30.964,0,0,1,1.247,5.03,21.336,21.336,0,0,0,.624,2.589c.207.558.416.733.623.606a1.383,1.383,0,0,0,.312-.4,6.548,6.548,0,0,0,.311-.86,5.817,5.817,0,0,0,.157-.642l.155-.723.312-1.445.624-2.887a6.276,6.276,0,0,1,.623-1.96.5.5,0,0,1,.624-.261,1.383,1.383,0,0,1,.623.313,3.089,3.089,0,0,1,.624.714c.1.162.207.285.311.48l.312.606c.832,1.529,1.663,3.917,2.5,5.187a2.254,2.254,0,0,0,1.246,1.146.956.956,0,0,0,.624-.083c.209-.1.416-.216.623-.8l.156-.391c.052-.164.1-.42.156-.626l.312-1.3.078-.326.078-.5.156-1,.312-2.011,1.247-7.846c.831-4.966,1.663-3.824,2.495-1.946a17.044,17.044,0,0,1,.623,2.048l.312,1.227c.1.4.208.806.312,1.333l1.247,5.761c.831,4.23,1.663,6.564,2.495,6.817.416.127.831-.389,1.247-1.476.207-.667.416-1.273.624-1.989l.623-2.455c.416-1.719.832-3.272,1.247-4.434.416-1.077.831-1.677,1.247-1.614.416.04.831.325,1.247.991a8.419,8.419,0,0,1,.624,1.115l.623,1.575c.416,1.047.832,2.433,1.247,3.6.209.587.416,1.251.624,1.776l.623,1.47c.832,1.845,1.664,2.291,2.5,1.593a1.581,1.581,0,0,0,.311-.3,2.579,2.579,0,0,0,.312-.4,11.169,11.169,0,0,0,.624-1.118c.207-.411.416-.993.623-1.48l.624-1.943c.416-1.205.831-2.83,1.247-4.319s.832-3.036,1.247-4.411l.623-1.846.312-.922.312-.695a5.03,5.03,0,0,1,1.247-1.9,1.151,1.151,0,0,1,.623-.311c.209-.037.416,0,.624.349a2.948,2.948,0,0,1,.312.642l.311.953.312,1.284.312,1.831,1.247,7.334a60.049,60.049,0,0,0,1.247,6.431,3.965,3.965,0,0,0,.624,1.387c.207.244.416.2.623.211a2.874,2.874,0,0,0,1.247-.3,8.732,8.732,0,0,0,2.495-2.18,15.7,15.7,0,0,1,2.495-2.47,3.918,3.918,0,0,1,1.247-.58,1.579,1.579,0,0,1,.624-.065c.209.06.416.31.624.683.414.78.831,2.215,1.247,3.038a1.692,1.692,0,0,0,.623.83c.208.113.416,0,.624-.01a7.951,7.951,0,0,0,2.495-.916,48.52,48.52,0,0,0,4.989-3.674,8.645,8.645,0,0,1,4.989-1.938,11.435,11.435,0,0,1,4.989.865,12.556,12.556,0,0,1,4.99,3.826v6.514a12.552,12.552,0,0,1-4.99,3.825,11.421,11.421,0,0,1-4.989.865,8.646,8.646,0,0,1-4.989-1.938,48.541,48.541,0,0,0-4.989-3.674,7.949,7.949,0,0,0-2.495-.915c-.208-.013-.416-.124-.624-.012a1.692,1.692,0,0,0-.623.83c-.416.824-.833,2.258-1.247,3.039-.209.372-.416.622-.624.682a1.556,1.556,0,0,1-.624-.065,3.89,3.89,0,0,1-1.247-.579,15.746,15.746,0,0,1-2.495-2.469,8.72,8.72,0,0,0-2.495-2.181,2.894,2.894,0,0,0-1.247-.3c-.207.014-.416-.033-.623.211a3.966,3.966,0,0,0-.624,1.387,60.063,60.063,0,0,0-1.247,6.431l-1.247,7.334-.312,1.831-.312,1.284-.311.953a2.947,2.947,0,0,1-.312.642c-.208.349-.416.386-.624.349a1.151,1.151,0,0,1-.623-.311,5.029,5.029,0,0,1-1.247-1.9l-.312-.695-.312-.922-.623-1.846c-.416-1.375-.831-2.932-1.247-4.411s-.831-3.114-1.247-4.319l-.624-1.942c-.207-.489-.416-1.071-.623-1.481a11.014,11.014,0,0,0-.624-1.117,2.539,2.539,0,0,0-.312-.4,1.587,1.587,0,0,0-.311-.3c-.832-.7-1.664-.252-2.5,1.593l-.623,1.47c-.209.524-.416,1.188-.624,1.776-.416,1.166-.831,2.552-1.247,3.6l-.623,1.575a8.428,8.428,0,0,1-.624,1.116c-.416.667-.831.952-1.247.991-.416.063-.831-.537-1.247-1.614-.416-1.16-.831-2.715-1.247-4.433l-.623-2.456c-.208-.716-.417-1.323-.624-1.989-.416-1.087-.832-1.6-1.247-1.476-.832.253-1.663,2.587-2.495,6.819l-1.247,5.759c-.1.527-.208.933-.312,1.333l-.312,1.227a16.964,16.964,0,0,1-.623,2.048c-.832,1.878-1.663,3.021-2.495-1.944l-1.247-7.847-.312-2.011-.156-1-.078-.5-.078-.326-.312-1.3c-.051-.206-.1-.462-.156-.626l-.156-.391c-.207-.582-.414-.7-.623-.8a.948.948,0,0,0-.624-.082,2.251,2.251,0,0,0-1.246,1.145c-.833,1.27-1.664,3.659-2.5,5.187l-.312.606c-.1.195-.207.317-.311.48a3.087,3.087,0,0,1-.624.714,1.379,1.379,0,0,1-.623.313.5.5,0,0,1-.624-.26,6.291,6.291,0,0,1-.623-1.961l-.624-2.887-.312-1.446-.155-.723a5.824,5.824,0,0,0-.157-.642,6.447,6.447,0,0,0-.311-.858,1.349,1.349,0,0,0-.312-.4c-.207-.127-.416.047-.623.605a21.329,21.329,0,0,0-.624,2.589,30.937,30.937,0,0,1-1.247,5.03c-.208.336-.416.239-.624.215a1.707,1.707,0,0,1-.623-.3,3,3,0,0,1-.624-.635l-.311-.414-.312-.542c-.209-.377-.416-.7-.624-1.121l-.623-1.279c-.416-.81-.832-1.713-1.247-2.364-.831-1.324-1.663-1.8-2.494-1.223a1.517,1.517,0,0,0-.312.441l-.312.672a20.347,20.347,0,0,0-.623,2.221c-.1.363-.208,1.036-.312,1.629l-.312,1.805-.624,3.61-1.247,7.058a19.961,19.961,0,0,1-.623,2.752l-.312.889a3.258,3.258,0,0,1-.312.569c-.416.576-.831.6-1.247-1.029a22.277,22.277,0,0,1-.623-3.354l-.624-4.437-.623-4.6-.312-2.325c-.1-.729-.207-1.687-.312-2.081l-.311-1.542-.157-.745-.155-.48c-.209-.709-.416-.938-.624-1.072a.474.474,0,0,0-.623.132,2.222,2.222,0,0,0-.312.466l-.312.664c-.416,1.068-.831,2.326-1.247,3.467-.831,2.354-1.663,2.248-2.494.046-.209-.495-.416-1.112-.624-1.732l-.311-.885a7.881,7.881,0,0,0-.312-.807c-.416-1.034-.831-1.524-1.247-1.309a3.87,3.87,0,0,0-1.247,1.774,16.519,16.519,0,0,0-.624,1.593l-.623,2.139-1.247,4.306c-.1.351-.209.759-.312,1.059l-.312.9-.312.894a7.184,7.184,0,0,1-.311.719c-.833,1.759-1.663,2.019-2.5.8a11.643,11.643,0,0,1-1.247-2.932c-.416-1.17-.832-2.752-1.247-4.214-.416-1.412-.832-2.945-1.247-4.033a9.458,9.458,0,0,0-.623-1.359,2.488,2.488,0,0,0-.624-.829.736.736,0,0,0-.623-.187.891.891,0,0,0-.312.138c-.1.069-.209.132-.312.555a15.492,15.492,0,0,0-.311,1.8l-.079.526c-.026.18-.051.6-.078.883l-.155,1.9L807.1,548.6l-.312,6.014-1.247,24.457-.312,6.063-.155,2.987-.156,1.8-.312,3.6-.078.9-.078.464-.156.929c-.026.134-.052.352-.078.421l-.078.232a.638.638,0,0,1-.156.311c-.1.058-.207-.008-.311-.073a2.313,2.313,0,0,1-.625-1.014,6.572,6.572,0,0,1-.312-.894c-.051-.184-.1-.3-.156-.54l-.156-.7c-.207-.98-.414-1.722-.623-3.147l-.312-1.91c-.051-.257-.1-.764-.156-1.229l-.156-1.393-.623-5.575-1.247-11.149-1.247-11.58-.624-5.791-.312-2.83-.311-2.138-.156-1.068-.078-.535-.078-.422-.312-1.673a23.746,23.746,0,0,0-.623-2.678,7.99,7.99,0,0,0-.624-1.777c-.207-.37-.416-.693-.623-.452a.669.669,0,0,0-.156.25,1.727,1.727,0,0,0-.156.368c-.052.183-.1.3-.156.533l-.156.82-.624,3.325-.311,1.772-.156.887a7.666,7.666,0,0,1-.156.784l-.312,1.112a1.712,1.712,0,0,1-.312.559c-.207.166-.416.065-.623-.731a23.727,23.727,0,0,1-.623-3.03l-.624-3.439a5.442,5.442,0,0,0-.624-2.166c-.207-.217-.416-.027-.623.624a2.41,2.41,0,0,0-.078.233l-.078.357-.156.714c-.052.269-.1.4-.156.784l-.156,1.1-.623,4.347-.312,2.112-.156,1.057c-.026.161-.051.384-.078.5l-.078.312c-.1.389-.207.892-.311,1.186l-.156.323a.451.451,0,0,1-.156.154c-.209.047-.416-.062-.624-.308a8.305,8.305,0,0,1-1.247-3.049c-.416-1.4-.831-3.306-1.247-5.015l-.312-1.275c-.1-.418-.207-.887-.311-1.176-.209-.638-.417-1.369-.624-1.932-.416-1.035-.831-1.435-1.247-1.269a3.832,3.832,0,0,0-1.247,1.7,35.322,35.322,0,0,0-2.495,8.056l-.624,2.669-.623,2.982-1.247,5.9-.624,2.867-.623,2.379-.624,2.354-.623,1.783-.624,1.32a3.043,3.043,0,0,1-.312.519,1.97,1.97,0,0,1-.312.393,1.655,1.655,0,0,1-.623.484c-.207.065-.416.156-.624-.05-.416-.408-.831-1.712-1.246-4.021-.1-.427-.208-1.323-.312-2.1l-.312-2.365-.624-4.731c-.831-6.11-1.663-14.29-2.495-17.448l-.311-1.029a2.362,2.362,0,0,0-.156-.4,2.126,2.126,0,0,0-.156-.315.988.988,0,0,0-.625-.553c-.416-.09-.831.505-1.247,1.554-.831,2.277-1.663,6.742-2.494,9.944a15.636,15.636,0,0,1-1.247,3.665,1.52,1.52,0,0,1-.624.64.8.8,0,0,1-.623-.078,3.093,3.093,0,0,1-1.247-1.259,7.116,7.116,0,0,1-.624-1.1l-.311-.638-.312-.806c-.831-2.016-1.663-4.82-2.495-7.319-.208-.606-.416-1.341-.624-1.843l-.623-1.591-.312-.8c-.1-.268-.209-.418-.312-.634l-.312-.6-.311-.492a2.782,2.782,0,0,0-1.248-1.11,1.312,1.312,0,0,0-.311-.072.261.261,0,0,0-.312.148,2.083,2.083,0,0,0-.156.357l-.078.2c-.026.06-.051.235-.078.348l-.311,1.524-1.249,10.18c-.416,3.668-.831,5.207-1.247,4.829a1.467,1.467,0,0,1-.311-.744l-.312-1.365-.624-4.776-.623-5.086c-.105-.979-.209-1.36-.312-1.991l-.156-.866-.156-.559a1.286,1.286,0,0,0-.311-.643c-.052,0-.1.083-.156.288l-.156.856-.624,6.44-.078.8-.078.51a5.482,5.482,0,0,1-.156.842c-.1.4-.207.244-.311.248a1.231,1.231,0,0,1-.624-.619,16.009,16.009,0,0,1-1.247-3.416l-.623-2.218-.312-1.077c-.1-.316-.208-.564-.312-.85-.416-1.263-.832-1.75-1.247-1.713a.63.63,0,0,0-.312.16c-.1.087-.207.293-.312.893-.026.139-.051.221-.077.408l-.078.659-.156,1.319c-.027.252-.052.371-.078.73l-.078,1.044-.156,2.09-.624,8.273-.156,2.048-.078,1.023-.077.645-.156,1.223-.078.611-.078.324-.078.321a1.134,1.134,0,0,1-.078.185c-.052.095-.1.146-.156.076a7.486,7.486,0,0,1-.312-2.062l-.078-.816c-.026-.178-.051-.838-.078-1.242l-.155-2.779-.312-5.644-.156-2.882-.078-1.441c-.026-.547-.052-.84-.078-1.138l-.156-1.866c-.026-.334-.052-.413-.078-.632a3.848,3.848,0,0,0-.078-.479c-.207-1.123-.416-.071-.623,3.586l-.312,4.967-.156,2.546-.078,1.272-.078.787c-.207,2.484-.416,1.856-.623,1.185a1.465,1.465,0,0,1-.078-.347l-.078-.458-.156-.916a5.658,5.658,0,0,1-.078-.6l-.078-.756-.156-1.512-.623-6.008-.156-1.494-.078-.746-.078-.439-.156-.876-.078-.435-.078-.219c-.1-.352-.207-.441-.312-.359a1.054,1.054,0,0,0-.156.43l-.077.333-.078.6c-.416,3.224-.832,11.011-1.249,14.1l-.077.573-.078.306a.729.729,0,0,1-.156.377c-.1.1-.208-.209-.312-.947l-.156-1.313c-.026-.157-.051-.558-.078-.931l-.078-1.105-.311-4.435-.312-4.518c-.027-.409-.052-.75-.078-.936l-.078-.711c-.052-.452-.1-1.039-.156-1.219-.1-.663-.209-.641-.312-.737a.689.689,0,0,0-.312-.154c-.416-.093-.831.367-1.247,1.215-.416.885-.832,2.051-1.247,3.176-.207.5-.416,1.026-.623,1.483a5.24,5.24,0,0,1-.624,1.008c-.416.468-.831.589-1.247.169a3.226,3.226,0,0,1-.623-.957c-.209-.43-.416-.875-.624-1.421a11.021,11.021,0,0,0-1.247-2.579c-.416-.541-.832-.423-1.247.082-1.663,1.666-3.326,10.17-4.989,13.514-.831,1.627-1.663,2.007-2.494,1.2a3.589,3.589,0,0,1-.624-.8c-.207-.339-.416-.81-.623-1.208l-.624-1.634c-.207-.555-.416-1.062-.624-1.715-.415-1.241-.83-2.524-1.246-3.573-.209-.523-.417-1.172-.624-1.591a9.383,9.383,0,0,0-.623-1.15c-.833-1.238-1.664-.944-2.5.789a7.739,7.739,0,0,0-.623,2.113l-.312,2.156-.156,1.134-.156,1.756-.623,7.024-.624,10.369-2.494,40.895-.623,5.924-.156,1.482-.156.766-.312,1.478a1.589,1.589,0,0,1-.312.623c-.1.1-.207.055-.311,0a1.845,1.845,0,0,1-.624-.828,13.553,13.553,0,0,1-.624-1.884c-.051-.2-.1-.357-.155-.594l-.156-.8-.312-1.589-.156-.794-.078-.4-.078-.539-.312-2.15-.311-2.2-.312-2.844-.624-5.688-.311-2.845-.312-3.377-1.247-13.516L685.8,567.2l-.624-6.469-.311-3.235c-.053-.6-.1-.968-.157-1.357l-.155-1.188c-.831-6.5-1.663-10.679-2.5-12.055-.414-.816-.83-.489-1.246,1.979l-.312,1.883-.312,2.663-.078.665-.078.99-.156,2.029-.311,4.058-2.5,33.005-.623,5.112-.156,1.277a2.748,2.748,0,0,1-.078.45l-.078.338-.312,1.355c-.051.152-.1.246-.156.371a.784.784,0,0,1-.155.279.268.268,0,0,1-.312.113c-.209-.059-.416-.244-.624-.695l-.156-.31c-.051-.115-.1-.287-.156-.426l-.155-.441-.156-.628c-.209-.88-.416-1.54-.624-2.849l-.312-1.747-.311-2.309-.624-4.714-2.495-22.821-.624-5.723-.623-4.119-.312-2.042-.156-1.021c-.051-.38-.1-.508-.156-.774l-.311-1.4-.156-.7-.156-.54c-.416-1.389-.831-2.271-1.247-2.264-.416-.031-.832.82-1.247,2.36l-.156.554-.156.7c-.1.5-.207.865-.312,1.487l-.623,3.43-1.247,6.939c-.831,4.741-1.663,6.616-2.5,6.112a1.853,1.853,0,0,1-.623-.771c-.1-.178-.207-.5-.312-.739a7.6,7.6,0,0,1-.311-.846c-.417-1.238-.833-3.349-1.249-5.152l-.623-3.1-.312-1.566-.312-1.388c-.207-.893-.416-1.919-.623-2.7a17.654,17.654,0,0,0-.624-1.888c-.416-.908-.832-1.246-1.247-.762a1.794,1.794,0,0,0-.311.489l-.156.316-.156.471a15.019,15.019,0,0,0-.624,2.277l-.312,1.483c-.1.5-.207.929-.311,1.7l-.312,2.066-.156,1.032-.078.516-.078.677L649.624,569.2l-2.495,30.566c-.416,4.941-.831,10.6-1.247,14.266l-.624,6.153-.156,1.479-.155,1.14-.312,2.281c-.832,5.5-1.663,8.048-2.495,6.918-.416-.664-.832-2.345-1.247-5.564-.209-1.2-.416-3.38-.624-5.276l-.078-.727c-.026-.272-.051-.409-.078-.818l-.155-2.123-.312-4.247-2.495-34.516-.624-8.844-.312-4.422-.078-1.105c-.026-.412-.051-.7-.078-.908L635.9,562l-.624-5.816-.312-2.832-.312-1.786-.155-.893c-.052-.276-.1-.655-.156-.8-.1-.367-.209-.847-.312-1.119-.1-.242-.209-.541-.312-.736a2.885,2.885,0,0,0-.312-.449c-.416-.509-.832-.535-1.247-.063a7.764,7.764,0,0,0-1.247,2.945l-.311,1.077-.079.269-.077.393-.156.812-.624,3.254c-.207,1.119-.416,2.092-.623,3.331l-.624,4.214-1.247,8.585c-.416,2.9-.831,6.013-1.247,8.343L625.3,584.5l-.311,1.883c-.1.618-.209,1-.312,1.51l-.312,1.442-.156.72c-.051.224-.1.367-.156.555l-.623,2.126a8.637,8.637,0,0,1-.624,1.4,2.24,2.24,0,0,1-.623.8c-.416.3-.831.116-1.247-.049a3.812,3.812,0,0,1-1.247-1.019c-.209-.243-.416-.568-.624-.848s-.416-.713-.623-1.062-.416-.867-.624-1.292-.416-1.089-.623-1.621l-.624-1.686-.624-2.123-.311-1.073-.156-.536-.156-.642-.623-2.6c-.209-.771-.417-1.961-.624-3.035l-.623-3.266-.624-3.266-.624-4.083-.623-4.149-.156-1.071-.156-1.252-.312-2.506-.311-2.506-.156-1.254-.156-1.506-.624-6.038Z" transform="translate(-505.533 -377.85)"/></g><path class="d" d="M659.438,620.568h-1.425c2.148,0,3.886-2.211,3.886-4.938s-1.738-4.939-3.886-4.939h-5.3c-2.147,0-3.886-2.211-3.886-4.938s1.74-4.939,3.886-4.939h17.358c2.147,0,3.886-2.212,3.886-4.939s-1.74-4.939-3.886-4.939H587.154c-2.147,0-3.886-2.211-3.886-4.939s1.74-4.938,3.886-4.938h33.511c2.147,0,3.888-2.211,3.888-4.939s-1.741-4.938-3.888-4.938H489.883c-2.147,0-3.888,2.211-3.888,4.938s1.741,4.939,3.888,4.939h7.96c2.147,0,3.886,2.211,3.886,4.938s-1.74,4.939-3.886,4.939H452.26c-2.148,0-3.888,2.212-3.888,4.939s1.74,4.939,3.888,4.939h67.875c2.145,0,3.885,2.211,3.885,4.939s-1.74,4.938-3.885,4.938h-42.59c-2.147,0-3.886,2.211-3.886,4.939s1.74,4.938,3.886,4.938H659.438Z" transform="translate(-448.372 -341.626)"/></g></g></svg>