<svg xmlns="http://www.w3.org/2000/svg" width="342" height="276.112" viewBox="0 0 342 276.112"><defs><style>.a,.d{fill:#d8a35d;}.a,.b{fill-rule:evenodd;}.b{fill:#c99857;}.c{fill:#d19442;}.e{fill:#947dce;}.f{opacity:0.15;}.g{fill:#ffc84f;}.h{fill:#eadff1;}.i{fill:#62548a;}.j{fill:#fff;}.k{fill:#ba9bc9;}</style></defs><g transform="translate(-905.601 -396.456)"><g transform="translate(913.552 396.456)"><g transform="translate(32.655 22.653)"><path class="a" d="M965.147,451.776c-.251-.858-1.022-11.193-3.391-15.467s-6.284-10.414-7.125-12.881c-.99-2.9-3.229-5.655-1.459.635a59.663,59.663,0,0,0,2.6,7.605c.257.414-.244-.29-1.609-3.531-1.45-3.445-1.955,1.422-1.074,3.072,0,0,.247.177-.846-2.231-.928-2.045-3.415-1.331-1.336,2.842-.036.073-1.694-3.119-2.2-2.562-1.235,1.354.334,5.029,1.794,7.335,2.848,4.5,7,8.774,8.13,12.637Z" transform="translate(-948.261 -420.255)"/><path class="a" d="M963.164,438.894s.827-4.882-.106-7.045c-1.1-2.554-1.57-2.075-3.972-3.386-1.366-.843-1.672.639,1.62,2.7.586,1.9-1.607,2.446-1.512,3.763s1.007,4.826,1.837,5.29S963.164,438.894,963.164,438.894Z" transform="translate(-948.735 -420.639)"/><path class="b" d="M959.671,434.006s-2.05,2.985-2.1,5.137S955.677,432.783,959.671,434.006Z" transform="translate(-948.687 -420.911)"/></g><g transform="translate(39.449)"><path class="c" d="M1099.264,436.345s-.981,10.954,5.776,17.012-15.572,0-15.572,0,4.156-10.492,3.224-17.012S1099.264,436.345,1099.264,436.345Z" transform="translate(-961.855 -398.238)"/><ellipse class="d" cx="11.813" cy="16.117" rx="11.813" ry="16.117" transform="translate(122.033 10.121)"/><path class="e" d="M994.952,506.616c17.882-37.407,49.8-54.472,70.175-59,8.82-1.965,15.478-1.579,17.909.521a13.2,13.2,0,0,0,8.246,3.2,17.84,17.84,0,0,0,4.63-.422,23.054,23.054,0,0,0,4.909-1.669c.753-.35,1.193-.6,1.193-.6a47.85,47.85,0,0,1,12.472.745c46.1,9.026,54.123,86.325,53.71,92.974-.251,3.957-4.342,21.884-9.457,37.82-4.191,13.081-9.081,24.827-13.1,26.451-8.919,3.589-76.258,8.515-90.1,1.911-.323-.243-.673-.5-1.005-.79-5.2-4.226-10.83-12.57-13.818-20.386,0-.009-7.958-22.44-9.582-27.008-.018-.045-.026-.08-.045-.116-.054-.18-.117-.35-.18-.511-.018-.063-.045-.117-.063-.18" transform="translate(-957.304 -398.858)"/><path class="f" d="M1032.661,564.448c.018.063.045.117.063.18.063.161.126.331.179.511.018.036.027.071.046.116,1.624,4.568,9.582,27,9.582,27.008,2.988,7.816,8.623,16.159,13.818,20.386-3.526-12.768-14.517-49.78-14.1-64.692C1040.153,562.33,1032.661,564.439,1032.661,564.448Z" transform="translate(-959.119 -403.751)"/><path class="f" d="M1145.721,509.1s-22.316,66.616,39.6,94.908l1.258.837-.32-15.668s-29.175-40.711-29.286-41.758S1145.721,509.1,1145.721,509.1Z" transform="translate(-964.375 -401.881)"/><path class="f" d="M1095.612,453.983c.036,1.068-.529,1.768-2.242,1.534-5.349-.727-11.387-.574-15.774,1.435a3.726,3.726,0,0,1-3.608-.152c-2.808-1.642-4.549-6.541-5.24-8.712a1.515,1.515,0,0,1-.071-.476c8.82-1.965,15.478-1.579,17.909.521a13.2,13.2,0,0,0,8.246,3.2A7.271,7.271,0,0,1,1095.612,453.983Z" transform="translate(-960.854 -398.858)"/><g transform="translate(119.302)"><g transform="translate(2.494 4.494)"><path class="g" d="M1091.135,413.671s20.451,11.338,14.381-6.866C1101.317,394.209,1077.187,405.555,1091.135,413.671Z" transform="translate(-1083.523 -401.178)"/><path class="g" d="M1093.932,409.363s-11.442,6.79-10.338,13.6c0,0-2.523-20.334,8.854-20.845s15.782.587,14.772,22.09C1107.22,424.207,1103.914,407.1,1093.932,409.363Z" transform="translate(-1083.355 -401.219)"/></g><path class="g" d="M1092.387,401.981s.574-6.335,6.855-5.438,8.972,4.486,9.87,8.076,1.794,6.28,2.692,6.28c0,0-2.692,2.692-3.589,1.8,0,0,2.329,6.453-.629,11.75,0,0-1.165-8.161-5.651-9.058S1092.387,401.981,1092.387,401.981Z" transform="translate(-1081.297 -396.456)"/><path class="g" d="M1092.4,402.175s-4.486-2.692-8.972,3.588l-2.692,5.384s.9.9,2.692,0c0,0-.818,6.322.04,9.891l2.652-10.787Z" transform="translate(-1080.736 -396.704)"/></g><path class="f" d="M1162.159,584.4s-11.542-24.206-70.719,17.4,55.54-10.208,55.54-10.208Z" transform="translate(-961.133 -405.169)"/><path class="e" d="M1029.228,560.2s-54.617,23.171-67.869-26.8.532-61.956-4.856-86.281l8.785-4.23s33.066,20.387,44.386,51.859S1029.228,560.2,1029.228,560.2Z" transform="translate(-955.399 -398.692)"/></g><path class="h" d="M913.955,670.609H1248l-50.43-52.277H958.85l-3.132,6.451Z" transform="translate(-913.955 -407.14)"/><path class="f" d="M1034.2,618.332c4.742,4.951,17.085,13.516,47.025,16.292,43,3.98,103.269-16.292,103.269-16.292Z" transform="translate(-919.745 -407.14)"/><g transform="translate(132.967 47.413)"><g transform="translate(0 157.4)"><path class="a" d="M1089.5,623.949c-.85-.286-9.827-5.662-14.695-6.111s-12.145-.652-14.657-1.367c-2.956-.84-3.7.334-.3,1.633a47.968,47.968,0,0,0,7.752,2.2c.486.019-2.684-.406-6.131-1.121-3.664-.76-7.639-1.792-7.821-1.139-.353,1.265,10.2,4.111,12.061,4.312a46.81,46.81,0,0,1-4.9-.594c-2.212-.392-4.748-1.176-5.246-.717-.784.723,4.806,2.916,9.425,3.557.081.15-1.412.384-6.847-.745-.546-.114-1.937.125-.148.952,3.765,1.741,5.256,2.768,10.712,2.938,5.322.166,11.195-.93,15.022.354Z" transform="translate(-1053.648 -611.85)"/><path class="a" d="M1077.711,618.1s-4.12-4.328-8.746-5.041c-2.75-.424-2.686-1.117-3.154-1.323-1.556-.685-.051,2.2,2.286,2.944,1.9.6,2.958,3.846,4.1,4.535s4.556,1.95,5.407,1.5S1077.711,618.1,1077.711,618.1Z" transform="translate(-1054.203 -611.63)"/></g><path class="e" d="M1165.139,460.853c16.9,15.122,28.6,29.167,35.89,75.369,3.7,23.441,2.738,46.882,1.773,59.243a14.6,14.6,0,0,1-10.037,12.7c-52.953,17.466-109.475,13.978-109.475,13.978-3.033-1.128.238-12.1.238-12.1,27.092-36.766,65.811-30.585,76.227-37.034,3.25-19.059-22.933-42.909-26.021-54.733-8.086-31-34.7-57.834-27.815-69.985C1108.3,444.088,1148.092,445.6,1165.139,460.853Z" transform="translate(-1055.013 -446.268)"/></g><rect class="i" width="334.048" height="12.643" transform="translate(0 263.469)"/></g><g transform="translate(905.601 412.851)"><g transform="translate(0 0)"><rect class="h" width="89.744" height="65.923" transform="translate(0 20.838) rotate(-13.426)"/></g><g transform="translate(19.073 18.835)"><g transform="translate(0 12.855)"><path class="j" d="M929.668,450.117l1.569.093a2.78,2.78,0,0,1-.219,1.138,2.087,2.087,0,0,1-.638.81,3.015,3.015,0,0,1-1.145.495,3.572,3.572,0,0,1-1.5.088,2.34,2.34,0,0,1-1.177-.67,3.132,3.132,0,0,1-.8-1.552,2.88,2.88,0,0,1,.222-2.229,3.335,3.335,0,0,1,3.548-1.172,2.5,2.5,0,0,1,1.17,1.06l-1.4.68a1.278,1.278,0,0,0-.248-.323.987.987,0,0,0-.413-.213,1.085,1.085,0,0,0-1.237.669,1.986,1.986,0,0,0,.025,1.117,2.083,2.083,0,0,0,.566,1.166,1.109,1.109,0,0,0,1.506-.291A1.7,1.7,0,0,0,929.668,450.117Z" transform="translate(-925.639 -446.973)"/></g><g transform="translate(5.802 11.137)"><path class="j" d="M931.735,446.235l4.472-1.067.275,1.153-2.8.668.2.859,2.6-.621.264,1.1-2.6.62.254,1.064,2.88-.687.292,1.222-4.553,1.087Z" transform="translate(-931.735 -445.168)"/></g><g transform="translate(11.541 10.015)"><path class="j" d="M939.053,450.208l-1.289-5.4,2.781-.664a4.181,4.181,0,0,1,1.214-.149,1.3,1.3,0,0,1,.777.334,1.568,1.568,0,0,1,.052,2.291,2.069,2.069,0,0,1-.535.353,1.153,1.153,0,0,1,.816.316,2.157,2.157,0,0,1,.314.28l1.182,1.372-1.886.45-1.286-1.437a1.3,1.3,0,0,0-.4-.345.726.726,0,0,0-.439-.028l-.148.035.524,2.192Zm.91-3.612.7-.167a2.572,2.572,0,0,0,.424-.18.451.451,0,0,0,.23-.233.516.516,0,0,0,.03-.339.508.508,0,0,0-.261-.362,1.039,1.039,0,0,0-.657.009l-.733.175Z" transform="translate(-937.764 -443.989)"/></g><g transform="translate(17.206 8.271)"><path class="j" d="M943.716,443.368l5.072-1.211.318,1.334-1.7.406.971,4.066-1.669.4-.971-4.066-1.7.406Z" transform="translate(-943.716 -442.157)"/></g><g transform="translate(23.365 7.612)"><path class="j" d="M950.186,441.865l1.672-.4,1.289,5.4-1.672.4Z" transform="translate(-950.186 -441.465)"/></g><g transform="translate(26.507 6.277)"><path class="j" d="M953.487,441.047l4.126-.985.277,1.16-2.45.584.226.943,2.092-.5.26,1.091-2.092.5.526,2.206-1.675.4Z" transform="translate(-953.487 -440.062)"/></g><g transform="translate(31.863 5.584)"><path class="j" d="M959.114,439.733l1.672-.4,1.289,5.4-1.672.4Z" transform="translate(-959.114 -439.334)"/></g><g transform="translate(35.325 4.423)"><path class="j" d="M966.78,441.258l1.568.092a2.762,2.762,0,0,1-.219,1.138,2.075,2.075,0,0,1-.638.811,3.031,3.031,0,0,1-1.145.495,3.567,3.567,0,0,1-1.5.088,2.342,2.342,0,0,1-1.178-.67,3.137,3.137,0,0,1-.8-1.552,2.88,2.88,0,0,1,.221-2.229,2.786,2.786,0,0,1,1.845-1.2,2.815,2.815,0,0,1,1.7.03,2.492,2.492,0,0,1,1.17,1.059l-1.394.681a1.327,1.327,0,0,0-.248-.323.993.993,0,0,0-.413-.213,1.027,1.027,0,0,0-.478,0,1.01,1.01,0,0,0-.76.664,2,2,0,0,0,.026,1.117,2.077,2.077,0,0,0,.566,1.166,1.108,1.108,0,0,0,1.506-.292A1.717,1.717,0,0,0,966.78,441.258Z" transform="translate(-962.751 -438.114)"/></g><g transform="translate(41.878 2.98)"><path class="j" d="M973.284,441.105l-1.894.452-.05.955-1.7.406.741-5.884,1.82-.435,3.318,4.916-1.748.417Zm-.625-1.085-1.059-1.8-.127,2.083Z" transform="translate(-969.636 -436.599)"/></g><g transform="translate(46.365 1.31)"><path class="j" d="M974.35,436.055l5.071-1.211.319,1.334-1.7.406.971,4.066-1.669.4-.971-4.067-1.7.406Z" transform="translate(-974.35 -434.844)"/></g><g transform="translate(52.453)"><path class="j" d="M980.746,434.535l4.472-1.067.275,1.153-2.8.668.206.859,2.6-.62.263,1.1-2.6.62.254,1.064,2.88-.687.292,1.223-4.553,1.086Z" transform="translate(-980.746 -433.468)"/></g></g><g transform="translate(21.895 32.823)"><rect class="j" width="59.145" height="1.662" transform="translate(0 13.733) rotate(-13.426)"/></g><g transform="translate(23.31 38.751)"><rect class="j" width="59.145" height="1.662" transform="translate(0 13.733) rotate(-13.426)"/></g><g transform="translate(24.725 44.678)"><rect class="j" width="59.145" height="1.662" transform="translate(0 13.733) rotate(-13.426)"/></g><g transform="translate(26.139 50.605)"><rect class="j" width="59.145" height="1.662" transform="translate(0 13.733) rotate(-13.426)"/></g><g transform="translate(6.359 5.394)"><path class="k" d="M1001.494,474.982l-75.931,18.126-13.281-55.635,75.932-18.126Zm-74.6,15.957,72.428-17.289L986.88,421.516l-72.429,17.29Z" transform="translate(-912.282 -419.347)"/></g></g></g></svg>