<svg xmlns="http://www.w3.org/2000/svg" xmlns:xlink="http://www.w3.org/1999/xlink" width="651" height="438.641" viewBox="0 0 651 438.641"><defs><style>.a,.q{fill:none;}.b{clip-path:url(#a);}.c{fill:#eadff1;}.d{clip-path:url(#b);}.e,.f{fill:#d8a35d;}.e{fill-rule:evenodd;}.g{fill:#d19442;}.h{fill:#947dce;}.i{fill:#ffc84f;}.j{opacity:0.15;}.k{fill:#62548a;}.l{opacity:0.3;}.m{opacity:0.5;}.n{fill:#999;}.o{fill:#ccc;}.p{fill:gray;}.q{stroke:#947dce;stroke-miterlimit:10;stroke-width:0.605px;}</style><clipPath id="a"><rect class="a" width="651" height="438.641"/></clipPath><clipPath id="b"><rect class="a" width="453.732" height="408.734"/></clipPath></defs><g transform="translate(-729.567 -390.829)"><g transform="translate(729.567 390.829)"><g class="b"><path class="c" d="M746.69,827.37C742.695,754.243,794.8,673.8,828.052,612.052a482.162,482.162,0,0,1,128.07-152.534c40.1-31.624,106.349-66.236,148.882-19.536,37.922,41.637,7.885,75.162.879,118.845-6.571,40.984,8.817,75.629,40.624,101.214,60.358,48.549,143.92,83.32,191.132,146.313,9.431,12.582,22.293,31.172,12.593,45.494-11.253,16.615-55.948,22.011-73.911,23.495-70.338,5.808-142.526,1.994-212.929-1.291-69.614-3.247-138.7-7.323-208.451-7.26-41.481.037-94.845-8.855-134.531,8.206" transform="translate(-732.13 -383.442)"/></g></g><g transform="translate(735.099 390.829)"><g transform="translate(0 29.907)"><g class="d"><g transform="translate(89.019 78.331)"><g transform="translate(0 33.458)"><path class="e" d="M835.772,513.915c-2.011-4.91-8.394-8.742-12.668-9.923a42.937,42.937,0,0,1-5.446-2.289c-3.311-1.117,1.928,3.607,3.908,4.4,1.609.644,4.49,5.433,6.068,7.076s4.957,4.023,6.776,4.038S835.511,514.827,835.772,513.915Z" transform="translate(-799.758 -501.533)"/><path class="e" d="M850.55,529.554c-3.841-6.9-6.716-15.094-14.092-18.518s-18.415-3.367-24.276-4.265c-6.9-1.055-4,1.189-.371,2.162,2.36.633,10,2.9,12.381,2.878,1.156-.009-9.388-1.778-9.956-1.619s-11.5-2.827-10.762-.815c1.441,3.9,13.8,4.4,17.731,5.257-2.076-.076-5.45-.7-7.45-.78-1.7-.069-6.823-1.937-7.329-.375-.8,2.458,11.855,4.057,13.537,4.2-1.665,1.338-8.011-.665-10.224-.819-.223-.016-2.237.467.186,1.321,5.1,1.8,9.048,3.437,14.878,4.3s12.668,1.759,16.553,7.083C844.468,529.386,847.513,529.931,850.55,529.554Z" transform="translate(-803.439 -500.144)"/></g><path class="f" d="M998.33,790.634S984.9,929.2,990.612,931.58c10.243,4.345,50.361,18.559,6.132,15.436-22.72,1.37-21.054-3.707-21.409-8.008-.29-3.515.376-127.52-.557-137.164-.209-2.159-.336-3.465-.336-3.465Z" transform="translate(-755.567 -387.143)"/><path class="f" d="M933.815,791.069s5.821,138.562.111,140.946c-10.243,4.346-50.361,18.559-6.131,15.436,22.72,1.37,21.053-3.707,21.407-8.009.291-3.515,2.868-30.189,3.8-39.832.209-2.159,4.662-110.53,4.662-110.53Z" transform="translate(-774.323 -387.578)"/><path class="g" d="M965.425,512.043s-1.183,13.2,6.962,20.5-18.769,0-18.769,0,5.008-12.646,3.884-20.5S965.425,512.043,965.425,512.043Z" transform="translate(-761.397 -466.111)"/><ellipse class="f" cx="14.238" cy="19.426" rx="14.238" ry="19.426" transform="translate(185.494 12.199)"/><path class="h" d="M868.9,592.76c21.554-45.086,60.022-65.656,84.581-71.118,10.631-2.368,18.655-1.9,21.586.627a15.918,15.918,0,0,0,9.939,3.862,21.5,21.5,0,0,0,5.58-.51,27.713,27.713,0,0,0,5.915-2.011c.909-.422,1.439-.724,1.439-.724a57.708,57.708,0,0,1,15.033.9c55.565,10.88,65.234,104.048,64.736,112.062-.3,4.769-5.234,26.377-11.4,45.583-5.051,15.769-10.945,29.925-15.789,31.882-10.75,4.326-91.914,10.263-108.6,2.3-.389-.292-.811-.605-1.211-.952-6.263-5.093-13.054-15.151-16.655-24.571,0-.01-9.593-27.047-11.55-32.551-.022-.054-.033-.1-.054-.141-.065-.216-.141-.421-.216-.616-.022-.077-.055-.141-.077-.216" transform="translate(-785.114 -462.879)"/><path class="i" d="M927.793,670.553a8.771,8.771,0,0,0,4.981,2.3c11.7.229,62.258,1.094,89.681-.481,9.675-.557,16.47-1.416,17.665-2.721a.969.969,0,0,1-.009.111c-.072,1.511-.938,18.818-2.155,41.5-2.4,44.779,2.226,108.914,7.632,128.381,1.167,4.2-61.643-2.163-61.643-2.163-.174-46.212,4.211-127.34,1.379-130.977-3.446-4.423-9.033,66.937-15.437,126.651-24.873,6.489-64.261,2.55-63.807,0C911.487,802.874,927.793,670.553,927.793,670.553Z" transform="translate(-774.706 -421.012)"/><path class="j" d="M902.7,631.066c.022.075.054.14.076.216.076.194.151.4.216.616.022.043.032.087.054.141,1.957,5.5,11.55,32.541,11.55,32.552,3.6,9.421,10.393,19.478,16.655,24.571-4.251-15.389-17.5-60-16.99-77.973C911.729,628.513,902.7,631.054,902.7,631.066Z" transform="translate(-775.651 -437.378)"/><path class="j" d="M1005.248,576.364s-26.9,80.292,47.728,114.393l1.517,1.007-.385-18.884s-35.164-49.069-35.3-50.333S1005.248,576.364,1005.248,576.364Z" transform="translate(-748.264 -447.127)"/><path class="j" d="M967.447,529.321c.044,1.288-.639,2.131-2.7,1.849-6.446-.875-13.725-.692-19.012,1.731a4.491,4.491,0,0,1-4.348-.184c-3.384-1.979-5.483-7.883-6.315-10.5a1.792,1.792,0,0,1-.087-.573c10.631-2.368,18.655-1.9,21.586.627a15.919,15.919,0,0,0,9.939,3.862A8.784,8.784,0,0,1,967.447,529.321Z" transform="translate(-766.614 -462.879)"/><path class="k" d="M951.408,899.948c.265-2-13.969-1.814-15.579-.188s-29.979,7.479-29.417,15.9,39.877,1.8,42.685,1.6S950.889,903.879,951.408,899.948Z" transform="translate(-774.614 -356.948)"/><path class="k" d="M974.537,897.256c-.265-2,16.774.538,18.385,2.163s26.414,8.372,25.852,16.8-39.876,1.8-42.685,1.6S975.056,901.188,974.537,897.256Z" transform="translate(-755.564 -357.5)"/><g class="l" transform="translate(199.194 248.637)"><path d="M959.631,672.509c-.191-.014-.38-.029-.564-.046C959.066,672.463,959.266,672.477,959.631,672.509Z" transform="translate(-959.066 -668.861)"/><path class="m" d="M959.507,673.3c15.064,1.2,47.99-.927,47.99-.927,9.675-.557,16.47-1.416,17.664-2.721a1,1,0,0,1-.009.111c-.072,1.511-.938,18.818-2.155,41.5a11.38,11.38,0,0,1-1.583-.183,12.331,12.331,0,0,1-7.973-5.665,27.364,27.364,0,0,1-3.1-6.475C999.11,677.568,964.333,673.731,959.507,673.3Z" transform="translate(-958.943 -669.649)"/></g><g transform="translate(182.202)"><g transform="translate(3.005 5.416)"><path class="i" d="M956.438,494.684s24.649,13.666,17.333-8.276C968.71,471.226,939.627,484.9,956.438,494.684Z" transform="translate(-947.263 -479.625)"/><path class="i" d="M960.886,489.227s-13.791,8.183-12.462,16.392c0,0-3.041-24.508,10.672-25.124s19.022.707,17.8,26.624C976.9,507.119,972.918,486.5,960.886,489.227Z" transform="translate(-948.138 -479.41)"/></g><path class="i" d="M956.233,482.053s.693-7.636,8.264-6.555,10.814,5.408,11.9,9.734,2.163,7.57,3.245,7.57c0,0-3.245,3.245-4.326,2.163,0,0,2.807,7.777-.759,14.163,0,0-1.4-9.836-6.811-10.918S956.233,482.053,956.233,482.053Z" transform="translate(-942.866 -475.393)"/><path class="i" d="M959.849,480.7s-5.406-3.245-10.814,4.325l-3.245,6.489s1.082,1.081,3.245,0c0,0-.985,7.62.047,11.921l3.2-13Z" transform="translate(-945.79 -474.102)"/></g><g transform="translate(164.071 133.022)"><path class="n" d="M931.739,599.5l13.712,87.848a9.383,9.383,0,0,0,10.707,7.819l59.957-9.365a2.915,2.915,0,0,0,.422-.087,9.346,9.346,0,0,0,7.385-10.62l-13.712-87.848a9.368,9.368,0,0,0-10.707-7.808l-57.178,8.923-2.779.433A9.364,9.364,0,0,0,931.739,599.5Z" transform="translate(-931.625 -579.321)"/><path class="o" d="M934.24,598.977l13.712,87.846a9.368,9.368,0,0,0,10.707,7.809l57.178-8.923a9.346,9.346,0,0,0,7.385-10.62l-13.712-87.848a9.368,9.368,0,0,0-10.707-7.808l-57.178,8.923A9.345,9.345,0,0,0,934.24,598.977Z" transform="translate(-930.924 -579.321)"/><circle class="p" cx="7.237" cy="7.237" r="7.237" transform="translate(41.18 51.212)"/></g><path class="j" d="M1037.587,648.679s1.405-32.292-85.111-21.476,64.888,20.547,64.888,20.547Z" transform="translate(-769.192 -433.515)"/><g transform="translate(148.121 57.146)"><g transform="translate(0 134.056)"><path class="e" d="M962.382,638.215c-1.025-.343-11.845-6.823-17.712-7.364S930.032,630.064,927,629.2c-3.562-1.013-4.462.4-.357,1.97a57.968,57.968,0,0,0,9.344,2.646c.586.023-3.236-.49-7.391-1.352-4.416-.915-9.207-2.159-9.425-1.373-.425,1.526,12.3,4.956,14.538,5.2a56.594,56.594,0,0,1-5.908-.715c-2.667-.474-5.724-1.418-6.324-.864-.946.872,5.792,3.515,11.361,4.286.1.181-1.7.462-8.254-.9-.658-.137-2.335.151-.179,1.148,4.539,2.1,6.336,3.335,12.912,3.54,6.414.2,13.493-1.12,18.106.428Z" transform="translate(-919.163 -623.632)"/><path class="e" d="M944.6,632.572s-4.966-5.216-10.542-6.076c-3.315-.512-3.237-1.346-3.8-1.595-1.875-.826-.059,2.656,2.756,3.549,2.289.726,3.566,4.636,4.942,5.466s5.491,2.351,6.518,1.812S944.6,632.572,944.6,632.572Z" transform="translate(-916.271 -624.776)"/></g><path class="h" d="M1047.447,537.62c20.37,18.226,34.465,35.155,43.258,90.843,4.461,28.254,3.3,56.507,2.138,71.406a17.606,17.606,0,0,1-12.1,15.308c-63.824,21.053-133.93-39.511-133.93-39.511-3.655-1.359,3.7-14.393,3.7-14.393,35.285-.366,62.322.716,90.44,11.531-.142-.068-27.642-51.72-31.362-65.97-9.747-37.369-41.826-69.708-33.526-84.355C978.938,517.414,1026.9,519.235,1047.447,537.62Z" transform="translate(-911.707 -520.041)"/></g><g transform="translate(148.12 248.448)"><line class="q" x1="15.95" y2="166.785"/><line class="q" x1="15.83" y2="163.881" transform="translate(15.95 3.336)"/><line class="q" x1="13.164" y2="162.735" transform="translate(34.09 3.336)"/><line class="q" x2="0.339" y2="33.709" transform="translate(62.156 3.336)"/><line class="q" x1="3.054" y2="166.033" transform="translate(75.645 3.336)"/><line class="q" x1="0.851" y2="167.426" transform="translate(92.083 3.232)"/><line class="q" x2="3.22" y2="168.387" transform="translate(106.924 3.232)"/></g><path class="q" d="M921.357,683.911s89.82,4.239,113.553,0" transform="translate(-770.428 -417.019)"/><path class="q" d="M981.442,699.347c-31.428,7.118-61.5-4.134-61.5-4.134" transform="translate(-770.825 -413.855)"/><path class="q" d="M967.725,696.782s28.361,7.969,53.273,1.239" transform="translate(-757.448 -413.416)"/><path class="q" d="M918.732,704.762s22.649,11.859,59.434,5.814" transform="translate(-771.163 -411.182)"/><path class="q" d="M917.283,716.136s35.243,10.759,59.547,5.222" transform="translate(-771.569 -407.998)"/><path class="q" d="M915.831,727.434s17.949,14.07,59.566,7.759" transform="translate(-771.975 -404.835)"/><path class="q" d="M914.141,740.43s27.368,14.3,60.365,4.548" transform="translate(-772.448 -401.197)"/><path class="q" d="M912.568,752.336s19.385,13.759,60.75,5.767" transform="translate(-772.889 -397.864)"/><path class="q" d="M910.925,764.541s26.755,13.986,61.618,2.687" transform="translate(-773.349 -394.447)"/><path class="q" d="M909.61,774.066s15.784,15.181,61.965,3.927" transform="translate(-773.717 -391.781)"/><path class="q" d="M908.059,784.877s25.525,13.447,62.587,3.5" transform="translate(-774.151 -388.754)"/><path class="q" d="M968.732,708.676s11.848,9.784,51.984,2.52" transform="translate(-757.166 -410.086)"/><path class="q" d="M968.975,720.18s16.627,7.753,50.724,1.629" transform="translate(-757.098 -406.866)"/><path class="q" d="M968.341,732.948s25.673,7.732,51.536,0" transform="translate(-757.275 -403.292)"/><path class="q" d="M968.052,743.537s24.958,11.095,52.4,0" transform="translate(-757.356 -400.327)"/><path class="q" d="M967.725,755.162s23.76,8.338,53.509,0" transform="translate(-757.448 -397.073)"/><path class="q" d="M967.425,766.327s20.029,8.985,54.831,0" transform="translate(-757.532 -393.948)"/><path class="q" d="M967.425,776.205s23.779,12.254,56.041,1.3" transform="translate(-757.532 -391.182)"/><path class="q" d="M966.978,788.554a109.935,109.935,0,0,0,58.377.674" transform="translate(-757.657 -387.725)"/><path class="h" d="M924.063,658.342s-65.829,27.927-81.8-32.3,5.989-73.552-14.641-98.5l13.31-10.31s45.921,24.291,59.563,62.226S924.063,658.342,924.063,658.342Z" transform="translate(-796.669 -463.681)"/></g></g></g><g transform="translate(32.825)"><path class="i" d="M817.6,513.381l5.893.018a61.33,61.33,0,0,0,0-122.551l-5.837-.019-.055.038a61.345,61.345,0,0,0,0,122.514Zm-37.046-21.6A68.649,68.649,0,0,1,793.1,484.57a73.406,73.406,0,0,0,17.466,23.194A56.756,56.756,0,0,1,780.554,491.781Zm37.956,16.368a70.134,70.134,0,0,1-20.994-25.354,70.84,70.84,0,0,1,20.994-4.174Zm0-34.269a75.6,75.6,0,0,0-22.912,4.567,69.952,69.952,0,0,1-4.9-21.934l27.809-.014Zm0-22.126-27.959.017a70.733,70.733,0,0,1,3.819-22.693,74.477,74.477,0,0,0,24.14,5.115Zm11.877,56.159a73.316,73.316,0,0,0,18.053-24.2,68.695,68.695,0,0,1,13.5,7.325A56.579,56.579,0,0,1,830.387,507.912Zm34.689-20.46a73.244,73.244,0,0,0-14.808-8.11,74.9,74.9,0,0,0,4.9-22.865l22.142-.013A56.072,56.072,0,0,1,865.076,487.452Zm1.77-68.32a56.043,56.043,0,0,1,10.638,32.59l-22.174.013a75.555,75.555,0,0,0-3.881-23.6A74.756,74.756,0,0,0,866.846,419.132Zm-2.927-3.732a70.1,70.1,0,0,1-14.133,8.274,74.214,74.214,0,0,0-19.405-27.342A56.329,56.329,0,0,1,863.919,415.4Zm-40.667-18.8a69.607,69.607,0,0,1,22.121,28.832,69.733,69.733,0,0,1-22.121,4.073Zm0,37.656a74.568,74.568,0,0,0,23.755-4.374,70.8,70.8,0,0,1,3.558,21.858l-27.313.017Zm0,22.243,27.164-.014a70.117,70.117,0,0,1-4.6,21.216,75.714,75.714,0,0,0-22.563-3.874Zm0,22.065a70.959,70.959,0,0,1,20.707,3.515,69.993,69.993,0,0,1-20.707,25.578ZM818.51,396.1v33.344a69.791,69.791,0,0,1-22.436-4.8A69.733,69.733,0,0,1,818.51,396.1Zm-7.936.38a74.311,74.311,0,0,0-18.852,26.275,69.874,69.874,0,0,1-13.156-8.162A56.521,56.521,0,0,1,810.574,396.479Zm-35.01,21.787A74.652,74.652,0,0,0,790,427.187a75.488,75.488,0,0,0-4.191,24.583l-21.525.012A55.972,55.972,0,0,1,775.564,418.266Zm-11.1,38.259,21.493-.012a74.67,74.67,0,0,0,5.244,23.714,73.353,73.353,0,0,0-13.84,8.02A55.976,55.976,0,0,1,764.46,456.525Z" transform="translate(-759.535 -390.829)"/></g></g></g></svg>