<svg xmlns="http://www.w3.org/2000/svg" xmlns:xlink="http://www.w3.org/1999/xlink" width="340.264" height="492.019" viewBox="0 0 340.264 492.019"><defs><style>.a,.b,.d,.e{fill:none;}.b{clip-rule:evenodd;}.c,.f,.g,.k,.l{fill:#3a74ba;}.c{opacity:0.35;}.d,.e{stroke:#3a74ba;stroke-miterlimit:10;}.d{stroke-width:2px;}.f{font-size:10px;}.f,.g,.k{font-family:DejaVuSans, DejaVu Sans;}.g{font-size:11px;}.h{clip-path:url(#a);}.i{font-size:5px;font-family:Helvetica;}.j{clip-path:url(#b);}.k{font-size:15px;}.m{fill:#2c6196;}.n{fill:#d0d1d6;}.o{fill:#fff;}.p{fill:#333;}.q{fill:#c4c4c4;}.r{fill:#f2f2f2;opacity:0.5;}</style><clipPath id="a"><rect class="a" width="91.765" height="79.761"/></clipPath><clipPath id="b"><path class="b" d="M672.447,543.728H762.58v76.6H672.447v-76.6Z" transform="translate(-672.447 -543.728)"/></clipPath></defs><g transform="translate(-453.478 -186.384)"><g transform="translate(454.478 187.384)"><rect class="c" width="98.886" height="19.126" transform="translate(22.28 45.678)"/><rect class="c" width="98.886" height="20.55" transform="translate(22.28 85.354)"/><path class="d" d="M597.618,221.863V330.524H454.478V187.384H563.139Z" transform="translate(-454.478 -187.384)"/><g transform="translate(22.28 45.678)"><line class="e" x1="98.886" transform="translate(0 78.743)"/><line class="e" x2="98.886"/><line class="e" x2="98.886" transform="translate(0 19.126)"/><line class="e" x2="98.886" transform="translate(0 39.676)"/><line class="e" x2="98.886" transform="translate(0 60.227)"/></g><text class="f" transform="translate(27.927 57.492)"><tspan x="0" y="0">1.</tspan></text><text class="g" transform="translate(40.338 31.885)"><tspan x="0" y="0">ორშაბათი</tspan></text><text class="f" transform="translate(27.927 77.584)"><tspan x="0" y="0">2.</tspan></text><text class="f" transform="translate(27.927 97.677)"><tspan x="0" y="0">3.</tspan></text><text class="f" transform="translate(27.927 117.108)"><tspan x="0" y="0">4.</tspan></text></g><g transform="translate(649.603 187.384)"><rect class="c" width="98.886" height="19.126" transform="translate(22.28 45.678)"/><rect class="c" width="98.886" height="20.55" transform="translate(22.28 85.354)"/><path class="d" d="M788.761,221.863V330.524H645.621V187.384H754.282Z" transform="translate(-645.621 -187.384)"/><g transform="translate(22.28 45.678)"><line class="e" x1="98.886" transform="translate(0 78.743)"/><line class="e" x2="98.886"/><line class="e" x2="98.886" transform="translate(0 19.126)"/><line class="e" x2="98.886" transform="translate(0 39.676)"/><line class="e" x2="98.886" transform="translate(0 60.227)"/></g><text class="f" transform="translate(27.927 57.492)"><tspan x="0" y="0">1.</tspan></text><text class="g" transform="translate(40.338 31.885)"><tspan x="0" y="0">სამშაბათი</tspan></text><text class="f" transform="translate(27.927 77.584)"><tspan x="0" y="0">2.</tspan></text><text class="f" transform="translate(27.927 97.677)"><tspan x="0" y="0">3.</tspan></text><text class="f" transform="translate(27.927 117.108)"><tspan x="0" y="0">4.</tspan></text></g><g transform="translate(454.478 360.824)"><rect class="c" width="98.886" height="19.126" transform="translate(22.28 45.678)"/><rect class="c" width="98.886" height="20.55" transform="translate(22.28 85.354)"/><path class="d" d="M597.618,391.764V500.424H454.478V357.285H563.139Z" transform="translate(-454.478 -357.285)"/><g transform="translate(22.28 45.678)"><line class="e" x1="98.886" transform="translate(0 78.743)"/><line class="e" x2="98.886"/><line class="e" x2="98.886" transform="translate(0 19.126)"/><line class="e" x2="98.886" transform="translate(0 39.676)"/><line class="e" x2="98.886" transform="translate(0 60.227)"/></g><text class="f" transform="translate(27.927 57.492)"><tspan x="0" y="0">1.</tspan></text><text class="g" transform="translate(39.317 31.884)"><tspan x="0" y="0">ოთხშაბათი</tspan></text><text class="f" transform="translate(27.927 77.583)"><tspan x="0" y="0">2.</tspan></text><text class="f" transform="translate(27.927 97.677)"><tspan x="0" y="0">3.</tspan></text><text class="f" transform="translate(27.927 117.108)"><tspan x="0" y="0">4.</tspan></text></g><g transform="translate(649.603 360.824)"><rect class="c" width="98.886" height="19.126" transform="translate(22.28 45.678)"/><rect class="c" width="98.886" height="20.55" transform="translate(22.28 85.354)"/><path class="d" d="M788.761,391.764V500.424H645.621V357.285H754.282Z" transform="translate(-645.621 -357.285)"/><g transform="translate(22.28 45.678)"><line class="e" x1="98.886" transform="translate(0 78.743)"/><line class="e" x2="98.886"/><line class="e" x2="98.886" transform="translate(0 19.126)"/><line class="e" x2="98.886" transform="translate(0 39.676)"/><line class="e" x2="98.886" transform="translate(0 60.227)"/></g><text class="f" transform="translate(27.927 57.492)"><tspan x="0" y="0">1.</tspan></text><text class="g" transform="translate(40.338 31.884)"><tspan x="0" y="0">ხუთშაბათი</tspan></text><text class="f" transform="translate(27.927 77.583)"><tspan x="0" y="0">2.</tspan></text><text class="f" transform="translate(27.927 97.677)"><tspan x="0" y="0">3.</tspan></text><text class="f" transform="translate(27.927 117.108)"><tspan x="0" y="0">4.</tspan></text></g><g transform="translate(454.478 534.264)"><rect class="c" width="98.886" height="19.126" transform="translate(22.28 45.678)"/><rect class="c" width="98.886" height="20.55" transform="translate(22.28 85.354)"/><path class="d" d="M597.618,561.664V670.325H454.478V527.185H563.139Z" transform="translate(-454.478 -527.185)"/><g transform="translate(22.28 45.678)"><line class="e" x1="98.886" transform="translate(0 78.743)"/><line class="e" x2="98.886"/><line class="e" x2="98.886" transform="translate(0 19.126)"/><line class="e" x2="98.886" transform="translate(0 39.676)"/><line class="e" x2="98.886" transform="translate(0 60.227)"/></g><text class="f" transform="translate(27.927 57.492)"><tspan x="0" y="0">1.</tspan></text><text class="g" transform="translate(40.338 31.885)"><tspan x="0" y="0">პარასკევი</tspan></text><text class="f" transform="translate(27.927 77.583)"><tspan x="0" y="0">2.</tspan></text><text class="f" transform="translate(27.927 97.677)"><tspan x="0" y="0">3.</tspan></text><text class="f" transform="translate(27.927 117.109)"><tspan x="0" y="0">4.</tspan></text></g><g transform="translate(649.603 534.264)"><path class="d" d="M788.761,561.664V670.325H645.621V527.185H754.282Z" transform="translate(-645.621 -527.185)"/></g><g transform="translate(671.884 549.624)"><g class="h"><text class="i" transform="translate(0 84.155)"><tspan x="0" y="0"> </tspan></text></g><g transform="translate(5.104 1.527)"><g class="j"><text class="k" transform="translate(42.219 13.444)"><tspan x="-25.269" y="0">შაბათი</tspan><tspan x="-40.924" y="19">დასვენების</tspan><tspan x="-19.647" y="38">დღეა</tspan></text></g></g></g><g transform="translate(682.341 619.618)"><g transform="translate(39.758 10.901)"><path class="l" d="M739.592,656.941c2.418-1.047,2.791-4.125,1.5-6.2-1.778-2.848-5.277-3.55-8.176-4.708a26.438,26.438,0,0,1-14.175-13.7c-.926-2.1-1.761-4.562-1.118-6.857.6-2.136,2.838-3.859,5.066-3.028.455.17.651-.558.2-.727-2.606-.973-5.3,1.043-5.993,3.555-.9,3.251.721,6.832,2.291,9.62a27.482,27.482,0,0,0,14.7,12.3c2.2.79,4.6,1.491,6.144,3.371,1.441,1.752,1.558,4.691-.816,5.719-.444.192-.06.842.381.651Z" transform="translate(-716.638 -621.477)"/></g><rect class="m" width="5.058" height="5.874" transform="translate(35.347 32.632)"/><g transform="translate(10.47)"><rect class="n" width="53.537" height="32.853" rx="1.279"/></g><g transform="translate(25.705 37.808)"><path class="l" d="M702.871,649.851v-1.008c0-.558,5.165-1.01,11.533-1.01s11.533.451,11.533,1.01v1.008Z" transform="translate(-702.871 -647.834)"/></g><g transform="translate(32.922 30.617)"><rect class="l" width="9.615" height="1.195"/></g><rect class="l" width="53.516" height="29.368" rx="1.058" transform="translate(10.47)"/><g transform="translate(20.189 7.597)"><ellipse class="o" cx="4.775" cy="3.251" rx="4.775" ry="3.251"/><ellipse class="p" cx="2.985" cy="2.032" rx="2.985" ry="2.032" transform="translate(2.235 0.406)"/><ellipse class="o" cx="1.422" cy="0.968" rx="1.422" ry="0.968" transform="translate(5.487 0.29)"/></g><g transform="translate(44.066 7.597)"><ellipse class="o" cx="4.775" cy="3.251" rx="4.775" ry="3.251"/><ellipse class="p" cx="2.985" cy="2.032" rx="2.985" ry="2.032" transform="translate(2.235 0.406)"/><ellipse class="o" cx="1.422" cy="0.968" rx="1.422" ry="0.968" transform="translate(5.487 0.29)"/></g><ellipse class="o" cx="1.634" cy="1.382" rx="1.634" ry="1.382" transform="translate(35.269 15.608)"/><g transform="translate(29.8 21.406)"><path class="o" d="M707.124,633.034a10.433,10.433,0,0,0,12.572,1.134c.824-.509.067-1.815-.76-1.3a8.9,8.9,0,0,1-10.744-.9c-.722-.646-1.792.418-1.067,1.066Z" transform="translate(-706.883 -631.767)"/></g><g transform="translate(1.421 11.206)"><path class="l" d="M689.34,626.563a3.942,3.942,0,0,1-5.712,2.218c-2.394-1.211-3.289-3.873-3.289-6.4a.629.629,0,0,0-1.257,0c0,3.286,1.461,6.721,4.78,7.858a5.146,5.146,0,0,0,6.69-3.343.629.629,0,0,0-1.212-.334Z" transform="translate(-679.083 -621.775)"/></g><path class="l" d="M679.655,623.238a1.084,1.084,0,0,1-1.27-.3,2.692,2.692,0,0,1-.549-1.278,4.429,4.429,0,0,1-.065-1.921,2.015,2.015,0,0,1,1.163-1.454,1.325,1.325,0,0,1,1.651.6,4.785,4.785,0,0,1,.16,1.269c.06.425.373.893.8.839.519-.066.69-.821,1.194-.958.453-.122.884.386.842.852-.055.617-.637,1.031-1.162,1.359l-2,1.246" transform="translate(-677.691 -610.644)"/><g transform="translate(62.706 11.206)"><path class="l" d="M739.144,626.9a5.147,5.147,0,0,0,6.689,3.343c3.318-1.145,4.78-4.566,4.78-7.858a.629.629,0,0,0-1.257,0c0,2.527-.9,5.189-3.289,6.4a3.942,3.942,0,0,1-5.711-2.218.629.629,0,0,0-1.212.334Z" transform="translate(-739.117 -621.775)"/></g><path class="l" d="M749.926,623.238a1.084,1.084,0,0,0,1.27-.3,2.692,2.692,0,0,0,.549-1.278,4.43,4.43,0,0,0,.065-1.921,2.015,2.015,0,0,0-1.163-1.454,1.325,1.325,0,0,0-1.651.6,4.788,4.788,0,0,0-.16,1.269c-.06.425-.373.893-.8.839-.519-.066-.69-.821-1.2-.958-.452-.122-.884.386-.842.852.056.617.637,1.031,1.163,1.359l2,1.246" transform="translate(-676.268 -610.644)"/><g transform="translate(52.754 43.27)"><g transform="translate(0 1.212)"><path class="q" d="M738.822,660.25l-3.567,2.933a3.2,3.2,0,0,1-4.449-.8l-.867-1.244a3.2,3.2,0,0,1,.8-4.449l3.99-2.322Z" transform="translate(-729.369 -654.372)"/></g><g transform="translate(5.365)"><g transform="translate(2.045 1.763)"><path class="l" d="M740.494,655.534c1.008,1.448.39,3.069-1.06,4.077l-.764.628-2.044-2.939,3.434-2.389Z" transform="translate(-736.627 -654.911)"/></g><path class="l" d="M735.478,653.9c1.45-1.009,3.184-1.023,4.192.425l.433.623-3.434,2.389-2.045-2.939Z" transform="translate(-734.624 -653.185)"/></g><g transform="translate(7.034 2.364)"><path class="q" d="M736.29,657.325l.19.273a.256.256,0,0,0,.354.013l2.049-1.425a.258.258,0,0,0,.112-.338l-.19-.271a.255.255,0,0,0-.354-.012l-2.05,1.425A.255.255,0,0,0,736.29,657.325Z" transform="translate(-736.26 -655.5)"/></g><g transform="translate(9.614 1.675)"><g transform="translate(0 0)"><rect class="q" width="1.424" height="0.214" transform="translate(0 0.813) rotate(-34.82)"/></g></g><ellipse class="r" cx="1.889" cy="0.878" rx="1.889" ry="0.878" transform="translate(1.651 4.59) rotate(-30.959)"/></g></g></g></svg>