<svg xmlns="http://www.w3.org/2000/svg" width="435" height="389.371" viewBox="0 0 435 389.371"><defs><style>.a{fill:#eadff1;}.b{fill:#3a74ba;}.c{fill:#fcfcfc;}.d{fill:#b3b3b3;}.e,.g{fill:#d8a35d;}.e{fill-rule:evenodd;}.f{fill:#947dce;}.h{fill:#62548a;}.i{fill:#ffc84f;}.j{opacity:0.3;}.k{opacity:0.5;}.l{fill:#d19442;}.m{opacity:0.15;}.n{fill:#999;}.o{fill:#ccc;}.p{fill:gray;}</style></defs><g transform="translate(-787.162 -336.792)"><path class="a" d="M1058.09,663.28c-38.512,5.224-53.43,55.044-144.639,53.894-18.2-.229-35.385-10.507-49.6-21.882-7.2-5.761-13.739-14.1-12.626-23.25,1.74-14.31,19.836-20.249,26.752-32.9,1.386-2.537,2.307-5.506,1.629-8.316-1.178-4.872-6.453-7.376-11.135-9.165q-21.562-8.24-43.611-15.125c-12.183-3.8-25.511-8.049-32.414-18.784-3.69-5.738-5.032-12.7-5.25-19.52-.486-15.089,4.245-30.143,12.392-42.852,6.806-10.616,16.115-19.8,27.406-25.414,23.947-11.915,52.445-6.484,78.706-1.411,43.5,8.4,87.5,15.119,131.794,15.694,51.391.668,105.394-6.472,152.1,14.974,12.238,5.62,25.783,13.194,29.672,26.087C1241.631,629.467,1129.339,653.617,1058.09,663.28Z" transform="translate(0 8.969)"/><g transform="translate(798.033 336.792)"><rect class="b" width="267.067" height="296.182"/><rect class="c" width="267.067" height="296.182" transform="translate(6.845 5.349)"/><rect class="d" width="160.025" height="3.111" transform="translate(78.302 41.425)"/><rect class="d" width="192.279" height="3.111" transform="translate(46.047 58.226)"/><rect class="d" width="192.279" height="3.111" transform="translate(46.047 108.963)"/><rect class="d" width="192.279" height="3.111" transform="translate(46.047 125.765)"/><rect class="d" width="192.279" height="3.111" transform="translate(46.047 75.027)"/><rect class="d" width="192.279" height="3.111" transform="translate(46.047 83.065)"/><rect class="d" width="192.279" height="3.111" transform="translate(46.047 91.102)"/><rect class="d" width="161.581" height="3.111" transform="translate(76.746 146.535)"/><rect class="d" width="192.279" height="3.111" transform="translate(46.047 154.573)"/><rect class="d" width="192.279" height="3.111" transform="translate(46.047 162.61)"/><rect class="d" width="192.279" height="3.111" transform="translate(46.047 170.648)"/><rect class="d" width="192.279" height="3.111" transform="translate(46.047 178.686)"/><rect class="d" width="192.279" height="3.111" transform="translate(46.047 186.723)"/></g><g transform="translate(991.985 401.945)"><g transform="translate(0 111.251)"><g transform="translate(7.985)"><path class="e" d="M997.143,508.569s-2.807-3.2-6.078-3.844a3.279,3.279,0,0,1-2.206-1.033c-1.088-.533-.1,1.567,1.541,2.163,1.333.484,1.993,2.825,2.785,3.347s3.186,1.522,3.8,1.229S997.143,508.569,997.143,508.569Z" transform="translate(-988.401 -503.606)"/></g><g transform="translate(0 2.899)"><path class="e" d="M1006.2,512.781c-.6-.228-6.829-4.317-10.281-4.779s-8.625-.82-10.393-1.4c-2.079-.685-2.645.129-.259,1.154a34.276,34.276,0,0,0,5.453,1.789c.346.027-1.9-.368-4.33-.977-2.587-.648-5.385-1.5-5.534-1.039-.288.89,7.141,3.224,8.459,3.421a33.139,33.139,0,0,1-3.472-.566c-1.563-.344-3.345-.976-3.713-.663-.579.492,3.335,2.215,6.6,2.807.053.109-1.016.232-4.852-.731-.386-.1-1.383.033-.134.674,2.63,1.349,3.661,2.123,7.54,2.4,3.782.274,7.995-.333,10.681.692Z" transform="translate(-980.85 -506.348)"/></g></g><g transform="translate(18.047 54.374)"><path class="f" d="M1002.486,520.653c3.032,1.187,25.044,5.223,45.25.786,12.752-2.8,24.78-8.975,30.865-21.376,15.724-32.057-21.018-50.241-21.018-50.241a.65.65,0,0,0-.055.088c-1.593,2.406-35.841,53.79-59.605,61.808C997.923,511.717,997.544,518.714,1002.486,520.653Z" transform="translate(-997.917 -449.821)"/></g><g transform="translate(160.286 185.6)"><path class="g" d="M1144.172,573.913s-.764,70.692,2.228,71.65c5.373,1.753,26.289,7.2,3.774,7.543-11.436,1.681-10.813-.959-11.18-3.121-.3-1.765-5.358-64.537-6.251-69.377-.2-1.083-.32-1.738-.32-1.738Z" transform="translate(-1132.423 -573.913)"/></g><g transform="translate(101.261 180.62)"><path class="g" d="M1098.837,569.2s-5.058,70.247-8.076,71.12c-5.42,1.6-26.481,6.459-3.984,7.434,11.385,2,10.836-.655,11.263-2.8.35-1.756,3.189-15.066,4.216-19.879.231-1.078,8.73-55.5,8.73-55.5Z" transform="translate(-1076.606 -569.204)"/></g><g transform="translate(100.56 250.719)"><path class="h" d="M1099.556,636.78c.249-.994-6.945-1.721-7.851-.993s-15.557,2.043-15.76,6.326,20.016,3.21,21.444,3.272S1099.066,638.734,1099.556,636.78Z" transform="translate(-1075.943 -635.492)"/></g><g transform="translate(116.051 106.262)"><path class="i" d="M1094.5,504.234a4.451,4.451,0,0,0,2.62.946c5.933-.393,31.549-2.155,45.356-4.146,4.871-.7,8.272-1.433,8.818-2.146a.459.459,0,0,1,0,.057c.03.768.344,9.562.715,21.093.734,22.761,5.866,55.011,9.45,64.625.773,2.075-31.284,1.587-31.284,1.587-2.1-23.374-3.411-64.614-5-66.33-1.936-2.089-1.657,34.262-2.3,64.753-12.3,4.366-32.4,4.087-32.284,2.777C1092.011,571.894,1094.5,504.234,1094.5,504.234Z" transform="translate(-1090.593 -498.888)"/><g class="j" transform="translate(27.357)"><g transform="translate(0 4.703)"><path d="M1116.75,503.336h-.288S1116.564,503.335,1116.75,503.336Z" transform="translate(-1116.462 -503.336)"/></g><g class="k" transform="translate(0.288)"><path d="M1116.734,503.592c7.675-.048,24.242-2.558,24.242-2.558,4.871-.7,8.272-1.433,8.818-2.146a.459.459,0,0,1,0,.057c.03.768.344,9.562.715,21.093a5.669,5.669,0,0,1-.809-.024,6.257,6.257,0,0,1-4.28-2.519,13.873,13.873,0,0,1-1.851-3.141C1136.957,504.028,1119.195,503.6,1116.734,503.592Z" transform="translate(-1116.734 -498.888)"/></g></g><g transform="translate(8.334 1.961)"><g transform="translate(0 2.351)"><rect class="f" width="85.086" height="0.549" transform="translate(0 85.082) rotate(-89.453)"/></g><g transform="translate(8.089 3.35)"><rect class="f" width="83.612" height="0.549" transform="translate(0 83.608) rotate(-89.399)"/></g><g transform="translate(16.804 2.678)"><rect class="f" width="0.549" height="82.913" transform="translate(0 0.003) rotate(-0.28)"/></g><g transform="translate(24.338 2.005)"><rect class="f" width="0.549" height="17.119" transform="translate(0 0.053) rotate(-5.491)"/></g><g transform="translate(32.705 1.292)"><rect class="f" width="0.549" height="84.332" transform="translate(0 0.037) rotate(-3.864)"/></g><g transform="translate(39.886 0.618)"><rect class="f" width="0.549" height="85.026" transform="translate(0 0.045) rotate(-4.65)"/></g><g transform="translate(46.995)"><rect class="f" width="0.549" height="85.529" transform="matrix(0.995, -0.104, 0.104, 0.995, 0, 0.057)"/></g></g><g transform="translate(3.563 9.012)"><path class="f" d="M1093.983,512.891c.457-.018,45.8-1.8,57.515-4.951l-.143-.53c-11.658,3.133-56.937,4.914-57.393,4.932Z" transform="translate(-1093.962 -507.41)"/></g><g transform="translate(3.211 20.771)"><path class="f" d="M1108.824,521.421a53.854,53.854,0,0,0,16.261-2.368l-.167-.523c-15.336,4.888-30.984.625-31.141.582l-.148.529A63.228,63.228,0,0,0,1108.824,521.421Z" transform="translate(-1093.629 -518.53)"/></g><g transform="translate(34.267 18.022)"><path class="f" d="M1133.7,519a48.971,48.971,0,0,0,16.449-2.557l-.189-.516c-12.1,4.411-26.716,1.708-26.862,1.679l-.1.54A64.472,64.472,0,0,0,1133.7,519Z" transform="translate(-1122.997 -515.93)"/></g><g transform="translate(2.929 27.615)"><path class="f" d="M1108.5,527.853a62.388,62.388,0,0,0,15.365-1.977l-.135-.533c-18.051,4.584-30.031-.291-30.151-.342l-.212.507C1093.444,525.543,1099.119,527.853,1108.5,527.853Z" transform="translate(-1093.362 -525.002)"/></g><g transform="translate(2.673 35.046)"><path class="f" d="M1110.458,534.313a44.386,44.386,0,0,0,13.159-1.7l-.168-.523c-11.846,3.792-30.033-.019-30.215-.058l-.115.537A94.645,94.645,0,0,0,1110.458,534.313Z" transform="translate(-1093.12 -532.029)"/></g><g transform="translate(2.269 42.482)"><path class="f" d="M1108.435,542.807a64.073,64.073,0,0,0,14.994-1.915l-.129-.534c-20.4,4.913-30.166-1.234-30.262-1.3l-.3.46C1092.809,539.566,1097.932,542.807,1108.435,542.807Z" transform="translate(-1092.738 -539.061)"/></g><g transform="translate(1.943 50.641)"><path class="f" d="M1107.642,550.205a43.012,43.012,0,0,0,15.734-2.918l-.2-.512a44.4,44.4,0,0,1-30.535.329l-.211.506A43.708,43.708,0,0,0,1107.642,550.205Z" transform="translate(-1092.43 -546.776)"/></g><g transform="translate(1.554 58.785)"><path class="f" d="M1106.5,557.771a61.4,61.4,0,0,0,16.762-2.519l-.15-.529c-20.21,5.739-30.672-.186-30.774-.246l-.279.473C1092.134,554.992,1097.023,557.771,1106.5,557.771Z" transform="translate(-1092.062 -554.477)"/></g><g transform="translate(1.203 65.442)"><path class="f" d="M1105.548,564.875a45.316,45.316,0,0,0,17.689-3.6l-.214-.505a43.346,43.346,0,0,1-31.082,1.322l-.212.507A39.634,39.634,0,0,0,1105.548,564.875Z" transform="translate(-1091.73 -560.772)"/></g><g transform="translate(0.815 72.289)"><path class="f" d="M1103.751,571.426c4.813,0,11.188-.895,19.4-3.659l-.174-.52c-22.431,7.554-31.178.825-31.264.756l-.346.427C1091.592,568.615,1095.218,571.426,1103.751,571.426Z" transform="translate(-1091.363 -567.247)"/></g><g transform="translate(0.48 79.137)"><path class="f" d="M1105.162,577.457a52.393,52.393,0,0,0,17.9-3.218l-.187-.516c-18.011,6.532-31.486,1.013-31.619.957l-.214.505A40.1,40.1,0,0,0,1105.162,577.457Z" transform="translate(-1091.046 -573.723)"/></g><g transform="translate(35.478 26.366)"><path class="f" d="M1133.381,527.071a67.428,67.428,0,0,0,17.4-2.72l-.144-.53c-19.583,5.31-26.121,1.068-26.185,1.026l-.311.452C1124.306,525.411,1126.828,527.071,1133.381,527.071Z" transform="translate(-1124.142 -523.821)"/></g><g transform="translate(36.338 33.407)"><path class="f" d="M1133.892,533.472a65.355,65.355,0,0,0,16.964-2.463l-.143-.53c-16.708,4.506-25.483,1.421-25.57,1.39l-.188.516A29.181,29.181,0,0,0,1133.892,533.472Z" transform="translate(-1124.955 -530.479)"/></g><g transform="translate(36.676 40.861)"><path class="f" d="M1134.36,541.06a47.171,47.171,0,0,0,17.148-3.022l-.2-.51c-12.527,4.949-25.786,2.257-25.918,2.228l-.113.538A49.69,49.69,0,0,0,1134.36,541.06Z" transform="translate(-1125.275 -537.528)"/></g><g transform="translate(37.046 47.708)"><path class="f" d="M1136.157,548.256a35.63,35.63,0,0,0,16.194-3.765l-.249-.49c-13.138,6.673-26.17,2.31-26.3,2.265l-.179.519A35.962,35.962,0,0,0,1136.157,548.256Z" transform="translate(-1125.625 -544.002)"/></g><g transform="translate(37.502 55.193)"><path class="f" d="M1135.248,554.84a51.518,51.518,0,0,0,18.048-3.245l-.192-.514a49.323,49.323,0,0,1-26.91,2.319l-.137.532A41.348,41.348,0,0,0,1135.248,554.84Z" transform="translate(-1126.056 -551.081)"/></g><g transform="translate(37.908 62.381)"><path class="f" d="M1135.4,561.884a57.2,57.2,0,0,0,18.966-3.488l-.182-.518c-16.913,5.954-27.457,2.423-27.561,2.386l-.181.519A30.358,30.358,0,0,0,1135.4,561.884Z" transform="translate(-1126.44 -557.878)"/></g><g transform="translate(38.444 69.392)"><path class="f" d="M1138.573,568.64a42.193,42.193,0,0,0,17-3.628l-.22-.5c-15.56,6.82-28.073,1.829-28.2,1.778l-.209.508A33.81,33.81,0,0,0,1138.573,568.64Z" transform="translate(-1126.947 -564.508)"/></g><g transform="translate(38.882 76.988)"><path class="f" d="M1138.107,575.455a55.522,55.522,0,0,0,18.98-3.247l-.189-.516a56.011,56.011,0,0,1-29.406,2.191l-.131.533A50.436,50.436,0,0,0,1138.107,575.455Z" transform="translate(-1127.361 -571.691)"/></g></g><g transform="translate(110.552 20.69)"><path class="l" d="M1089.568,418.808s1.342,6.6,6.366,8.966-9.133,2.726-9.133,2.726.6-6.881-1.088-10.542S1089.568,418.808,1089.568,418.808Z" transform="translate(-1085.392 -417.968)"/></g><g transform="translate(101.33 2.945)"><ellipse class="g" cx="9.865" cy="7.231" rx="9.865" ry="7.231" transform="translate(0 18.41) rotate(-68.921)"/></g><g transform="translate(66.495 25.228)"><path class="f" d="M1045.1,523.023c12.752-2.8,24.78-8.975,30.865-21.376.022.034.044.061.067.094.066.082.131.17.2.269a.3.3,0,0,1,.043.06c1.752,2.4,10.353,14.153,10.353,14.159,3.12,4.064,7.887,7.969,11.67,9.54.248.11.5.2.731.286,9.276,1.451,47.907-13.23,52.51-16.9,2.076-1.653,2.889-9.4,3.054-17.8.208-10.243-.533-21.474-1.077-23.841-.923-3.971-19.162-47.9-47.781-45.123a29.364,29.364,0,0,0-7.447,1.746s-.215.225-.593.56a14.132,14.132,0,0,1-2.587,1.84,11.016,11.016,0,0,1-2.642,1.06,8.1,8.1,0,0,1-5.4-.439c-1.792-.8-5.768.136-10.595,2.833-6.706,3.74-15.07,10.875-21.523,21.419a.65.65,0,0,0-.055.088,69,69,0,0,0-9.249,25.39A163.743,163.743,0,0,0,1045.1,523.023Z" transform="translate(-1043.73 -422.259)"/></g><g class="m" transform="translate(98.734 93.261)"><path d="M1074.217,497.946c.021.034.047.06.068.094.066.084.132.172.194.269.017.018.029.037.048.06,1.752,2.394,10.348,14.158,10.35,14.163,3.121,4.06,7.887,7.967,11.674,9.536-4.3-6.87-17.232-26.654-19.6-35.475C1078.24,495.392,1074.215,497.941,1074.217,497.946Z" transform="translate(-1074.217 -486.594)"/></g><g class="m" transform="translate(99.239 29.845)"><path d="M1091.607,428.755c.208.62,0,1.129-1.047,1.292-3.263.511-6.779,1.657-9,3.6a2.279,2.279,0,0,1-2.141.541c-1.935-.471-3.814-3.039-4.6-4.192a.9.9,0,0,1-.126-.266c4.83-2.7,8.8-3.637,10.595-2.831a8.08,8.08,0,0,0,5.4.435A4.443,4.443,0,0,1,1091.607,428.755Z" transform="translate(-1074.694 -426.625)"/></g><g transform="translate(104.878)"><g transform="translate(0 1.925)"><g transform="translate(4.846 0.231)"><path class="i" d="M1086.011,406.775s9.184,10.979,9.726-.755C1096.111,397.9,1079.832,399.07,1086.011,406.775Z" transform="translate(-1084.61 -400.442)"/></g><path class="i" d="M1088.926,404.957s-8.03,1.358-8.9,5.492c0,0,3.035-12.17,9.645-9.956s8.885,3.809,3.574,15.868C1093.247,416.36,1095.124,405.864,1088.926,404.957Z" transform="translate(-1080.027 -400.224)"/></g><g transform="translate(9.333)"><path class="i" d="M1088.853,400.563s1.723-3.492,5.113-1.6,4.137,4.538,3.859,6.785-.358,3.983.154,4.179c0,0-2.13.945-2.444.235,0,0-.091,4.2-2.947,6.573,0,0,1.131-4.918-1.233-6.418S1088.853,400.563,1088.853,400.563Z" transform="translate(-1088.853 -398.403)"/></g><g transform="translate(0.419 1.155)"><path class="i" d="M1089.678,400.6s-1.97-2.525-5.915.074l-2.723,2.483s.315.71,1.538.592a22.048,22.048,0,0,0-2.155,5.658l3.889-5.577Z" transform="translate(-1080.423 -399.495)"/></g></g><g transform="translate(106.625 65.69)"><path class="n" d="M1084.639,498.206l41.788,17.1a4.764,4.764,0,0,0,6.209-2.6l11.67-28.523a1.571,1.571,0,0,0,.074-.206,4.748,4.748,0,0,0-2.678-6l-41.788-17.1a4.757,4.757,0,0,0-6.205,2.6l-11.133,27.2-.542,1.322A4.757,4.757,0,0,0,1084.639,498.206Z" transform="translate(-1081.679 -460.522)"/><g transform="translate(0.618)"><path class="o" d="M1085.22,496.678l41.789,17.1a4.757,4.757,0,0,0,6.2-2.6l11.134-27.2a4.748,4.748,0,0,0-2.678-6l-41.788-17.1a4.757,4.757,0,0,0-6.205,2.6l-11.133,27.2A4.747,4.747,0,0,0,1085.22,496.678Z" transform="translate(-1082.263 -460.522)"/></g><g transform="translate(28.605 23.059)"><circle class="p" cx="3.675" cy="3.675" r="3.675"/></g></g><g class="m" transform="translate(114.094 87.989)"><path d="M1145.284,488.148s-4.008-15.918-44.537,1.914,34.561.572,34.561.572Z" transform="translate(-1088.742 -481.608)"/></g><g class="m" transform="translate(152.594 54.373)"><path d="M1125.154,449.82S1123.73,492.8,1165,498.551l.885.271-2.931-9.135s-24.241-18.768-24.488-19.364S1125.154,449.82,1125.154,449.82Z" transform="translate(-1125.148 -449.82)"/></g><g transform="translate(109.716 21.416)"><g transform="translate(0 76.946)"><g transform="translate(0 1.656)"><path class="e" d="M1106.662,494.125c-.548-.018-6.755-1.6-9.688-1.01s-7.238,1.744-8.836,1.765c-1.881.024-2.114.844.111,1.01a29.457,29.457,0,0,0,4.931-.07c.29-.074-1.645.232-3.792.416-2.282.2-4.794.287-4.786.7.015.8,6.7.625,7.83.418a28.7,28.7,0,0,1-2.979.51c-1.367.158-2.992.142-3.2.5-.334.562,3.329.869,6.15.436.074.074-.76.473-4.146.762-.34.029-1.115.412.079.584,2.514.363,3.568.7,6.8-.152,3.15-.834,6.4-2.505,8.872-2.423Z" transform="translate(-1084.602 -492.984)"/></g><g transform="translate(5.38)"><path class="e" d="M1098.141,493.075s-3.175-1.817-6.013-1.425a2.825,2.825,0,0,1-2.082-.223c-1.032-.129.357,1.3,1.857,1.327,1.219.02,2.409,1.737,3.2,1.942s3.014.346,3.435-.066S1098.141,493.075,1098.141,493.075Z" transform="translate(-1089.69 -491.418)"/></g></g><g transform="translate(10.983)"><path class="f" d="M1132.047,421.181c12.561,5.91,21.88,12.1,34.248,37.922a162.6,162.6,0,0,1,11.415,34.436,8.94,8.94,0,0,1-3.663,9.206c-28,19.517-70.912.232-70.912.232-1.976-.131-.289-7.542-.289-7.542,17.117-5.3,30.43-8.706,45.684-7.528-.079-.013-20.965-21.152-24.846-27.545-10.171-16.769-30.48-27.845-28.569-36.178C1095.774,421.3,1119.377,415.22,1132.047,421.181Z" transform="translate(-1094.988 -418.655)"/></g></g><g transform="translate(165.923 255.035)"><path class="h" d="M1137.757,640.119c-.221-1,8.511-.458,9.4.295s13.729,3.086,13.812,7.373-20.1,2.647-21.527,2.669S1138.192,642.086,1137.757,640.119Z" transform="translate(-1137.753 -639.573)"/></g></g></g></svg>