<svg xmlns="http://www.w3.org/2000/svg" xmlns:xlink="http://www.w3.org/1999/xlink" width="808" height="539.399" viewBox="0 0 808 539.399"><defs><style>.a,.c,.d{fill:none;}.b,.e{fill:#f15a24;}.b,.c,.d{stroke:#f15a24;stroke-miterlimit:10;}.b{stroke-width:2px;opacity:0.07;}.d{stroke-width:0.5px;}.e{font-size:18px;}.e,.f{font-family:Helvetica;}.f{fill:#32655b;font-size:17px;}.g{clip-path:url(#a);}.h,.j{fill:#d8a35d;}.h{fill-rule:evenodd;}.i{fill:#947dce;}.k{fill:#62548a;}.l{fill:#ffc84f;}.m{opacity:0.3;}.n{opacity:0.5;}.o{fill:#d19442;}.p{opacity:0.15;}.q{fill:#999;}.r{fill:#ccc;}.s{fill:gray;}</style><clipPath id="a"><rect class="a" width="351.491" height="290.163"/></clipPath></defs><g transform="translate(-535.475 -248.198)"><g transform="translate(536.475 249.198)"><path class="b" d="M878.475,267.178V611.519H497.6L443.475,568.15V221.2H821.089Z" transform="translate(-443.475 -221.198)"/><line class="c" x2="283.316" transform="translate(73.353 128.181)"/><g transform="translate(73.353 88.661)"><rect class="d" width="283.316" height="222.169"/><line class="d" x2="283.316" transform="translate(0 68.961)"/><line class="d" x2="283.316" transform="translate(0 99.874)"/><line class="d" x2="283.316" transform="translate(0 130.787)"/><line class="d" x2="283.316" transform="translate(0 161.701)"/><line class="d" x2="283.316" transform="translate(0 192.614)"/><line class="d" y2="182.423" transform="translate(141.658 39.746)"/></g><text class="e" transform="translate(111.514 113.027)"><tspan x="0" y="0">გაკვეთილების განრიგი</tspan></text><g transform="translate(101.493 135.388)"><text class="f" transform="translate(8.832 13)"><tspan x="0" y="0">9:00-9:45</tspan></text><text class="f" transform="translate(132.026 13)"><tspan x="0" y="0">I გაკვეთილი</tspan></text><text class="f" transform="translate(128.908 42.102)"><tspan x="0" y="0">II გაკვეთილი</tspan></text><text class="f" transform="translate(125.79 71.543)"><tspan x="0" y="0">III გაკვეთილი</tspan></text><text class="f" transform="translate(125.739 102.117)"><tspan x="0" y="0">IV გაკვეთილი</tspan></text><text class="f" transform="translate(128.856 132.69)"><tspan x="0" y="0">V გაკვეთილი</tspan></text><text class="f" transform="translate(125.739 163.264)"><tspan x="0" y="0">VI გაკვეთილი</tspan></text><text class="f" transform="translate(4.416 43.574)"><tspan x="0" y="0">9:50-10:35</tspan></text><text class="f" transform="translate(0 74.147)"><tspan x="0" y="0">10:40-11:25</tspan></text><text class="f" transform="translate(0 104.721)"><tspan x="0" y="0">11:35-12:20</tspan></text><text class="f" transform="translate(0 135.295)"><tspan x="0" y="0">12:25-13:10</tspan></text><text class="f" transform="translate(0 165.868)"><tspan x="0" y="0">13:15-14:00</tspan></text></g></g><g transform="translate(991.984 497.434)"><g class="g" transform="translate(0 0)"><g transform="translate(22.381 20.649)"><g transform="translate(0 175.707)"><g transform="translate(12.61)"><path class="h" d="M1007.4,674.6s-4.432-5.055-9.6-6.071c-3.072-.6-2.967-1.379-3.484-1.632-1.718-.842-.158,2.475,2.433,3.415,2.106.765,3.149,4.461,4.4,5.287s5.032,2.4,6.01,1.94S1007.4,674.6,1007.4,674.6Z" transform="translate(-993.598 -666.756)"/></g><g transform="translate(0 4.579)"><path class="h" d="M1021.748,681.234c-.943-.361-10.787-6.818-16.237-7.548s-13.623-1.3-16.415-2.214c-3.284-1.082-4.177.2-.409,1.822a53.988,53.988,0,0,0,8.613,2.826c.546.046-3-.58-6.839-1.542-4.085-1.023-8.5-2.368-8.739-1.643-.455,1.407,11.278,5.093,13.359,5.405a52.923,52.923,0,0,1-5.484-.894c-2.469-.544-5.283-1.541-5.864-1.048-.915.776,5.267,3.5,10.431,4.434.084.172-1.6.366-7.663-1.155-.609-.153-2.184.052-.211,1.064,4.153,2.131,5.781,3.354,11.907,3.8,5.974.433,12.627-.527,16.87,1.092Z" transform="translate(-981.709 -671.073)"/></g></g><g transform="translate(28.502 85.878)"><path class="i" d="M1015.8,693.934c4.789,1.874,39.555,8.25,71.466,1.241,20.141-4.416,39.138-14.174,48.749-33.76,24.834-50.63-33.2-79.35-33.2-79.35a1.185,1.185,0,0,0-.087.139c-2.515,3.8-56.607,84.954-94.14,97.618C1008.591,679.822,1007.992,690.873,1015.8,693.934Z" transform="translate(-1008.58 -582.065)"/></g><g transform="translate(253.152 293.132)"><path class="j" d="M1238.936,777.464s-1.208,111.651,3.519,113.163c8.484,2.768,41.52,11.37,5.961,11.913-18.062,2.656-17.079-1.515-17.658-4.928-.474-2.788-8.464-101.93-9.873-109.572-.315-1.712-.506-2.746-.506-2.746Z" transform="translate(-1220.38 -777.464)"/></g><g transform="translate(159.928 285.267)"><path class="j" d="M1167.6,770.049S1159.612,881,1154.844,882.376c-8.558,2.53-41.823,10.2-6.293,11.742,17.981,3.162,17.115-1.035,17.79-4.43.551-2.775,5.036-23.8,6.658-31.395.364-1.7,13.788-87.654,13.788-87.654Z" transform="translate(-1132.489 -770.049)"/></g><g transform="translate(158.822 395.981)"><path class="k" d="M1168.737,876.464c.394-1.57-10.967-2.717-12.4-1.57s-24.572,3.228-24.891,9.993,31.612,5.069,33.868,5.167S1167.964,879.55,1168.737,876.464Z" transform="translate(-1131.446 -874.429)"/></g><g transform="translate(183.288 167.828)"><path class="l" d="M1160.688,667.771a7.039,7.039,0,0,0,4.139,1.493c9.369-.62,49.827-3.4,71.633-6.548,7.693-1.11,13.064-2.263,13.928-3.389a.745.745,0,0,1,0,.09c.048,1.212.544,15.1,1.13,33.313,1.158,35.949,9.265,86.883,14.924,102.068,1.222,3.277-49.409,2.508-49.409,2.508-3.316-36.917-5.387-102.049-7.9-104.761-3.057-3.3-2.617,54.11-3.631,102.27-19.432,6.894-51.177,6.454-50.989,4.385C1156.752,774.632,1160.688,667.771,1160.688,667.771Z" transform="translate(-1154.512 -659.328)"/><g class="m" transform="translate(43.207)"><g transform="translate(0 7.428)"><path d="M1195.7,666.331l-.454,0S1195.408,666.33,1195.7,666.331Z" transform="translate(-1195.248 -666.331)"/></g><g class="n" transform="translate(0.454)"><path d="M1195.676,666.756c12.121-.074,38.287-4.039,38.287-4.039,7.693-1.11,13.064-2.263,13.928-3.389a.734.734,0,0,1,0,.09c.048,1.212.544,15.1,1.13,33.313a8.909,8.909,0,0,1-1.278-.037,9.886,9.886,0,0,1-6.76-3.98,21.979,21.979,0,0,1-2.923-4.961C1227.617,667.446,1199.562,666.771,1195.676,666.756Z" transform="translate(-1195.676 -659.328)"/></g></g><g transform="translate(13.162 3.097)"><g transform="translate(0 3.713)"><rect class="i" width="134.384" height="0.867" transform="translate(0 134.377) rotate(-89.453)"/></g><g transform="translate(12.776 5.291)"><rect class="i" width="132.056" height="0.867" transform="translate(0 132.048) rotate(-89.399)"/></g><g transform="translate(26.54 4.229)"><rect class="i" width="0.867" height="130.951" transform="translate(0 0.004) rotate(-0.28)"/></g><g transform="translate(38.439 3.166)"><rect class="i" width="0.868" height="27.038" transform="translate(0 0.083) rotate(-5.491)"/></g><g transform="translate(51.654 2.041)"><rect class="i" width="0.867" height="133.192" transform="translate(0 0.058) rotate(-3.864)"/></g><g transform="translate(62.996 0.976)"><rect class="i" width="0.867" height="134.289" transform="translate(0 0.07) rotate(-4.65)"/></g><g transform="translate(74.223)"><rect class="i" width="0.867" height="135.083" transform="matrix(0.995, -0.104, 0.104, 0.995, 0, 0.091)"/></g></g><g transform="translate(5.628 14.232)"><path class="i" d="M1159.852,681.4c.721-.029,72.332-2.845,90.837-7.819l-.225-.838c-18.413,4.95-89.926,7.762-90.646,7.791Z" transform="translate(-1159.818 -672.746)"/></g><g transform="translate(5.072 32.804)"><path class="i" d="M1183.293,694.823a85.04,85.04,0,0,0,25.681-3.74l-.263-.827c-24.222,7.72-48.937.987-49.183.92l-.233.835A99.86,99.86,0,0,0,1183.293,694.823Z" transform="translate(-1159.294 -690.256)"/></g><g transform="translate(54.122 28.463)"><path class="i" d="M1222.446,691.016c7.833,0,17.307-.875,25.979-4.038l-.3-.815c-19.1,6.965-42.2,2.7-42.428,2.653l-.162.852A101.686,101.686,0,0,0,1222.446,691.016Z" transform="translate(-1205.538 -686.163)"/></g><g transform="translate(4.626 43.615)"><path class="i" d="M1182.775,704.949a98.525,98.525,0,0,0,24.268-3.122l-.214-.84c-28.511,7.239-47.432-.461-47.62-.54l-.335.8C1159,701.3,1167.965,704.949,1182.775,704.949Z" transform="translate(-1158.874 -700.448)"/></g><g transform="translate(4.222 55.351)"><path class="i" d="M1185.876,715.119c7.088,0,14.488-.673,20.783-2.689l-.264-.826c-18.71,5.99-47.433-.03-47.721-.091l-.181.848A149.494,149.494,0,0,0,1185.876,715.119Z" transform="translate(-1158.493 -711.513)"/></g><g transform="translate(3.584 67.095)"><path class="i" d="M1182.683,728.5a101.19,101.19,0,0,0,23.681-3.025l-.2-.843c-32.224,7.76-47.642-1.948-47.8-2.048l-.474.727C1158,723.384,1166.094,728.5,1182.683,728.5Z" transform="translate(-1157.891 -722.585)"/></g><g transform="translate(3.068 79.981)"><path class="i" d="M1181.431,740.15a67.947,67.947,0,0,0,24.85-4.608l-.316-.808c-25.242,9.884-48,.614-48.227.519l-.334.8A69.085,69.085,0,0,0,1181.431,740.15Z" transform="translate(-1157.405 -734.734)"/></g><g transform="translate(2.455 92.842)"><path class="i" d="M1179.634,752.063a96.938,96.938,0,0,0,26.473-3.979l-.236-.834c-31.919,9.062-48.441-.295-48.6-.391l-.439.749C1156.939,747.672,1164.66,752.063,1179.634,752.063Z" transform="translate(-1156.827 -746.859)"/></g><g transform="translate(1.899 103.357)"><path class="i" d="M1178.127,763.253a71.576,71.576,0,0,0,27.937-5.681l-.337-.8c-26.59,11.217-48.867,2.18-49.089,2.087l-.335.8C1156.443,759.718,1165.141,763.253,1178.127,763.253Z" transform="translate(-1156.303 -756.773)"/></g><g transform="translate(1.287 114.171)"><path class="i" d="M1175.291,773.567c7.6,0,17.671-1.412,30.633-5.777l-.277-.822c-35.427,11.931-49.242,1.3-49.376,1.194l-.545.675C1156.087,769.13,1161.814,773.567,1175.291,773.567Z" transform="translate(-1155.726 -766.968)"/></g><g transform="translate(0.757 124.987)"><path class="i" d="M1177.521,783.062a82.724,82.724,0,0,0,28.276-5.082l-.3-.816c-28.446,10.317-49.727,1.6-49.939,1.511l-.337.8C1155.361,779.532,1163.976,783.062,1177.521,783.062Z" transform="translate(-1155.226 -777.165)"/></g><g transform="translate(56.033 41.642)"><path class="i" d="M1221.934,703.72c6.463,0,15.408-1.02,27.481-4.295l-.227-.837c-30.928,8.387-41.255,1.688-41.356,1.62l-.492.714C1207.6,701.1,1211.583,703.72,1221.934,703.72Z" transform="translate(-1207.34 -698.588)"/></g><g transform="translate(57.392 52.761)"><path class="i" d="M1222.735,713.8a103.258,103.258,0,0,0,26.794-3.891l-.226-.838c-26.39,7.118-40.247,2.245-40.385,2.2l-.3.815C1208.7,712.111,1213.5,713.8,1222.735,713.8Z" transform="translate(-1208.621 -709.071)"/></g><g transform="translate(57.926 64.535)"><path class="i" d="M1223.473,725.749a74.493,74.493,0,0,0,27.083-4.772l-.319-.806c-19.785,7.817-40.725,3.564-40.934,3.52l-.178.849A78.452,78.452,0,0,0,1223.473,725.749Z" transform="translate(-1209.125 -720.171)"/></g><g transform="translate(58.51 75.347)"><path class="i" d="M1226.311,737.084a56.261,56.261,0,0,0,25.577-5.946l-.393-.773c-20.751,10.54-41.331,3.649-41.537,3.578l-.283.82A56.756,56.756,0,0,0,1226.311,737.084Z" transform="translate(-1209.675 -730.365)"/></g><g transform="translate(59.231 87.17)"><path class="i" d="M1224.872,747.451a81.355,81.355,0,0,0,28.5-5.126l-.305-.812c-22.8,8.555-42.306,3.713-42.5,3.664l-.215.84A65.222,65.222,0,0,0,1224.872,747.451Z" transform="translate(-1210.355 -741.512)"/></g><g transform="translate(59.872 98.523)"><path class="i" d="M1225.106,758.542a90.367,90.367,0,0,0,29.957-5.508l-.289-.819c-26.713,9.4-43.365,3.826-43.53,3.769l-.285.819C1211.05,756.834,1216.125,758.542,1225.106,758.542Z" transform="translate(-1210.959 -752.215)"/></g><g transform="translate(60.719 109.596)"><path class="i" d="M1230.119,769.181a66.618,66.618,0,0,0,26.85-5.732l-.348-.794c-24.576,10.772-44.337,2.889-44.533,2.808l-.33.8C1211.877,766.314,1219.063,769.181,1230.119,769.181Z" transform="translate(-1211.758 -762.655)"/></g><g transform="translate(61.41 121.593)"><path class="i" d="M1229.381,779.91a87.731,87.731,0,0,0,29.977-5.128l-.3-.816a88.448,88.448,0,0,1-46.444,3.46l-.207.842A79.675,79.675,0,0,0,1229.381,779.91Z" transform="translate(-1212.409 -773.966)"/></g></g><g transform="translate(174.602 32.678)"><path class="o" d="M1152.918,533.234s2.12,10.418,10.054,14.161-14.424,4.306-14.424,4.306.947-10.868-1.719-16.649S1152.918,533.234,1152.918,533.234Z" transform="translate(-1146.323 -531.908)"/></g><g transform="translate(160.038 4.652)"><ellipse class="j" cx="15.581" cy="11.42" rx="15.581" ry="11.42" transform="translate(0 29.077) rotate(-68.921)"/></g><g transform="translate(105.019 39.844)"><path class="i" d="M1082.888,697.808c20.141-4.416,39.138-14.174,48.749-33.76.035.053.069.1.1.147.1.13.209.269.313.425a.463.463,0,0,1,.069.1c2.767,3.782,16.35,22.354,16.35,22.362,4.927,6.419,12.456,12.586,18.433,15.067.39.173.789.32,1.153.451,14.651,2.29,75.664-20.9,82.933-26.69,3.28-2.611,4.563-14.851,4.823-28.122.33-16.177-.841-33.916-1.7-37.654-1.457-6.272-30.263-75.656-75.465-71.267a46.379,46.379,0,0,0-11.762,2.758s-.338.356-.936.885a22.228,22.228,0,0,1-4.086,2.906,17.3,17.3,0,0,1-4.172,1.674,12.781,12.781,0,0,1-8.527-.694c-2.828-1.266-9.108.217-16.732,4.476-10.592,5.907-23.8,17.174-33.995,33.829a1.185,1.185,0,0,0-.087.139,108.982,108.982,0,0,0-14.607,40.1A258.59,258.59,0,0,0,1082.888,697.808Z" transform="translate(-1080.721 -538.665)"/></g><g class="p" transform="translate(155.937 147.295)"><path d="M1128.726,657.9c.034.053.074.1.108.148.1.133.208.273.308.424.026.028.045.058.074.1,2.767,3.781,16.343,22.359,16.346,22.367,4.929,6.413,12.457,12.585,18.438,15.063-6.8-10.852-27.216-42.1-30.949-56.028C1135.08,653.865,1128.724,657.89,1128.726,657.9Z" transform="translate(-1128.726 -639.969)"/></g><g class="p" transform="translate(156.735 47.136)"><path d="M1156.191,548.9c.329.979,0,1.783-1.654,2.042-5.155.805-10.706,2.617-14.215,5.692a3.6,3.6,0,0,1-3.384.856c-3.055-.744-6.022-4.8-7.263-6.621a1.44,1.44,0,0,1-.2-.421c7.626-4.26,13.9-5.744,16.733-4.471a12.776,12.776,0,0,0,8.525.687A7.027,7.027,0,0,1,1156.191,548.9Z" transform="translate(-1129.478 -545.54)"/></g><g transform="translate(165.641)"><g transform="translate(0 3.041)"><g transform="translate(7.655 0.365)"><path class="l" d="M1147.306,514.314s14.5,17.338,15.36-1.194C1163.256,500.3,1137.545,502.144,1147.306,514.314Z" transform="translate(-1145.092 -504.311)"/></g><path class="l" d="M1151.93,511.443s-12.682,2.146-14.055,8.673c0,0,4.794-19.219,15.234-15.724s14.033,6.016,5.645,25.061C1158.754,529.452,1161.72,512.875,1151.93,511.443Z" transform="translate(-1137.875 -503.967)"/></g><g transform="translate(14.741)"><path class="l" d="M1151.773,504.512s2.722-5.516,8.075-2.522,6.534,7.166,6.1,10.716-.565,6.29.244,6.6c0,0-3.364,1.492-3.862.37,0,0-.142,6.631-4.653,10.381,0,0,1.787-7.767-1.947-10.136S1151.773,504.512,1151.773,504.512Z" transform="translate(-1151.773 -501.1)"/></g><g transform="translate(0.663 1.824)"><path class="l" d="M1153.116,504.557s-3.111-3.987-9.341.118l-4.3,3.921s.5,1.121,2.428.936c0,0-2.936,5.418-3.4,8.935l6.142-8.809Z" transform="translate(-1138.5 -502.82)"/></g></g><g transform="translate(168.401 103.748)"><path class="q" d="M1145.151,658.432l66,27.012a7.524,7.524,0,0,0,9.807-4.108l18.432-45.048a2.3,2.3,0,0,0,.115-.325,7.5,7.5,0,0,0-4.229-9.475l-66-27.013a7.513,7.513,0,0,0-9.8,4.113l-17.584,42.955-.856,2.087A7.514,7.514,0,0,0,1145.151,658.432Z" transform="translate(-1140.477 -598.914)"/><g transform="translate(0.975)"><path class="r" d="M1146.066,656.018l66,27.012a7.512,7.512,0,0,0,9.8-4.112l17.584-42.955a7.5,7.5,0,0,0-4.229-9.475l-66-27.013a7.513,7.513,0,0,0-9.8,4.113l-17.584,42.955A7.5,7.5,0,0,0,1146.066,656.018Z" transform="translate(-1141.396 -598.914)"/></g><g transform="translate(45.177 36.421)"><circle class="s" cx="5.805" cy="5.805" r="5.805"/></g></g><g class="p" transform="translate(180.198 138.969)"><path d="M1240.9,642.448s-6.329-25.14-70.341,3.023,54.584.9,54.584.9Z" transform="translate(-1151.599 -632.119)"/></g><g class="p" transform="translate(241.002 85.877)"><path d="M1208.934,582.064s-2.249,67.88,62.93,76.964l1.4.426-4.63-14.425s-38.285-29.644-38.676-30.583S1208.934,582.064,1208.934,582.064Z" transform="translate(-1208.925 -582.064)"/></g><g transform="translate(173.282 33.826)"><g transform="translate(0 121.526)"><g transform="translate(0 2.614)"><path class="h" d="M1179.922,651.833c-.868-.029-10.669-2.526-15.3-1.6s-11.431,2.755-13.956,2.787c-2.97.039-3.337,1.333.177,1.6a46.359,46.359,0,0,0,7.788-.111c.456-.116-2.6.366-5.989.658-3.6.31-7.572.453-7.56,1.107.023,1.27,10.588.988,12.366.659a45.359,45.359,0,0,1-4.706.806c-2.157.248-4.723.224-5.057.787-.527.887,5.258,1.372,9.714.688.117.116-1.2.746-6.55,1.2-.537.046-1.76.651.126.923,3.969.572,5.634,1.11,10.736-.241,4.975-1.318,10.113-3.957,14.013-3.827Z" transform="translate(-1145.079 -650.029)"/></g><g transform="translate(8.498)"><path class="h" d="M1166.438,650.182s-5.013-2.869-9.5-2.251c-2.665.368-2.8-.292-3.288-.353-1.63-.2.564,2.056,2.933,2.1,1.925.033,3.8,2.745,5.052,3.066s4.759.547,5.425-.1S1166.438,650.182,1166.438,650.182Z" transform="translate(-1153.091 -647.565)"/></g></g><g transform="translate(17.347)"><path class="i" d="M1219.963,536.98c19.839,9.334,34.556,19.11,54.091,59.891,9.911,20.691,15.5,42.671,18.027,54.388A14.121,14.121,0,0,1,1286.3,665.8c-44.22,30.824-112,.366-112,.366-3.122-.207-.457-11.912-.457-11.912,27.034-8.377,48.061-13.75,72.153-11.89-.125-.018-33.111-33.406-39.241-43.5-16.065-26.483-48.14-43.976-45.122-57.137C1162.674,537.17,1199.952,527.566,1219.963,536.98Z" transform="translate(-1161.433 -532.99)"/></g></g><g transform="translate(262.054 402.798)"><path class="k" d="M1228.779,881.718c-.349-1.58,13.442-.723,14.841.465s21.684,4.875,21.814,11.645-31.742,4.18-34,4.214S1229.466,884.824,1228.779,881.718Z" transform="translate(-1228.773 -880.856)"/></g></g></g></g></g></svg>