<svg xmlns="http://www.w3.org/2000/svg" xmlns:xlink="http://www.w3.org/1999/xlink" width="621" height="418.427" viewBox="0 0 621 418.427"><defs><style>.a,.q{fill:none;}.b{clip-path:url(#a);}.c{fill:#eadff1;}.d{clip-path:url(#b);}.e,.f{fill:#d8a35d;}.e{fill-rule:evenodd;}.g{fill:#d19442;}.h{fill:#947dce;}.i{fill:#ffc84f;}.j{opacity:0.15;}.k{fill:#62548a;}.l{opacity:0.3;}.m{opacity:0.5;}.n{fill:#999;}.o{fill:#ccc;}.p{fill:gray;}.q{stroke:#947dce;stroke-miterlimit:10;stroke-width:0.605px;}</style><clipPath id="a"><rect class="a" width="621" height="418.427"/></clipPath><clipPath id="b"><rect class="a" width="432.823" height="389.898"/></clipPath></defs><g transform="translate(-534.44 -413.297)"><g transform="translate(534.44 413.297)"><g class="b"><path class="c" d="M550.352,830.938c-3.812-69.757,45.89-146.5,77.613-205.4a459.954,459.954,0,0,1,122.167-145.5c38.256-30.166,101.45-63.184,142.022-18.635,36.175,39.718,7.521,71.7.839,113.367-6.27,39.1,8.41,72.146,38.752,96.55,57.577,46.312,137.286,79.481,182.324,139.571,9,12,21.266,29.737,12.012,43.4-10.735,15.849-53.368,21-70.5,22.412-67.1,5.54-135.958,1.9-203.117-1.232-66.406-3.1-132.31-6.986-198.843-6.927-39.569.035-90.475-8.445-128.332,7.829" transform="translate(-536.463 -407.467)"/></g></g><g transform="translate(539.717 441.826)"><g class="d"><g transform="translate(84.917 74.722)"><g transform="translate(0 31.915)"><path class="e" d="M639.761,535.814c-1.918-4.685-8.007-8.339-12.084-9.467a40.79,40.79,0,0,1-5.2-2.183c-3.159-1.065,1.839,3.441,3.728,4.2,1.535.615,4.283,5.183,5.787,6.749s4.73,3.838,6.465,3.853S639.512,536.683,639.761,535.814Z" transform="translate(-605.406 -524.001)"/><path class="e" d="M653.251,550.96c-3.663-6.58-6.406-14.4-13.443-17.665s-17.565-3.211-23.156-4.067c-6.577-1.007-3.82,1.133-.354,2.062,2.251.6,9.534,2.762,11.81,2.746,1.1-.009-8.957-1.7-9.5-1.546s-10.974-2.7-10.266-.776c1.375,3.721,13.159,4.2,16.914,5.014-1.98-.072-5.2-.665-7.107-.744-1.619-.067-6.509-1.847-6.991-.359-.76,2.346,11.307,3.872,12.913,4-1.588,1.277-7.643-.635-9.753-.78-.212-.015-2.134.446.177,1.259,4.864,1.713,8.63,3.279,14.192,4.1s12.084,1.679,15.791,6.758C647.45,550.8,650.355,551.319,653.251,550.96Z" transform="translate(-608.312 -522.905)"/></g><path class="f" d="M802.1,813.1S789.294,945.28,794.74,947.553c9.771,4.146,48.04,17.705,5.848,14.725-21.673,1.306-20.082-3.536-20.422-7.64-.276-3.352.36-121.643-.53-130.842-.2-2.06-.321-3.305-.321-3.305Z" transform="translate(-570.526 -428.206)"/><path class="f" d="M737.472,813.445s5.554,132.178.108,134.451c-9.771,4.146-48.041,17.705-5.85,14.725,21.673,1.306,20.083-3.536,20.422-7.64.277-3.352,2.735-28.8,3.626-37.995.2-2.061,4.447-105.437,4.447-105.437Z" transform="translate(-585.331 -428.549)"/><path class="g" d="M769.753,534.35s-1.128,12.594,6.64,19.56-17.9,0-17.9,0,4.778-12.063,3.706-19.56S769.753,534.35,769.753,534.35Z" transform="translate(-575.128 -490.536)"/><ellipse class="f" cx="13.582" cy="18.531" rx="13.582" ry="18.531" transform="translate(176.946 11.636)"/><path class="h" d="M673.772,611.879c20.56-43.008,57.256-62.629,80.684-67.839,10.141-2.26,17.8-1.816,20.592.6a15.187,15.187,0,0,0,9.481,3.682,20.559,20.559,0,0,0,5.323-.485,26.424,26.424,0,0,0,5.642-1.919c.867-.4,1.372-.691,1.372-.691a55.058,55.058,0,0,1,14.34.857c53,10.378,62.228,99.252,61.753,106.9-.289,4.549-4.993,25.162-10.874,43.483-4.817,15.041-10.439,28.545-15.062,30.413-10.254,4.126-87.677,9.79-103.595,2.2-.372-.278-.774-.578-1.156-.907-5.973-4.859-12.451-14.454-15.887-23.439,0-.011-9.15-25.8-11.017-31.052-.021-.053-.032-.093-.053-.134-.061-.206-.134-.4-.206-.589-.021-.072-.051-.134-.072-.206" transform="translate(-593.847 -487.984)"/><path class="i" d="M731.664,692.98a8.377,8.377,0,0,0,4.752,2.192c11.166.22,59.389,1.045,85.549-.458,9.229-.531,15.711-1.352,16.849-2.6,0,0,0,.038-.007.106-.068,1.442-.895,17.949-2.056,39.589-2.293,42.717,2.123,103.9,7.281,122.466,1.113,4.007-58.8-2.063-58.8-2.063-.167-44.083,4.016-121.472,1.314-124.941-3.286-4.22-8.615,63.851-14.725,120.814-23.727,6.19-61.3,2.432-60.866,0C716.11,819.2,731.664,692.98,731.664,692.98Z" transform="translate(-585.633 -454.939)"/><path class="j" d="M707.572,652.617c.02.072.051.134.072.206.072.186.144.382.206.589.021.042.031.082.051.134,1.867,5.25,11.018,31.041,11.018,31.052,3.434,8.985,9.913,18.579,15.887,23.439-4.055-14.681-16.692-57.235-16.207-74.381C716.186,650.183,707.572,652.608,707.572,652.617Z" transform="translate(-586.379 -467.857)"/><path class="j" d="M809.9,598.832s-25.657,76.593,45.53,109.121l1.447.962-.367-18.015s-33.543-46.807-33.671-48.012S809.9,598.832,809.9,598.832Z" transform="translate(-564.763 -475.551)"/><path class="j" d="M770.824,551.364c.041,1.227-.609,2.032-2.58,1.764-6.148-.836-13.091-.66-18.135,1.65a4.287,4.287,0,0,1-4.148-.175c-3.229-1.888-5.231-7.521-6.024-10.018a1.7,1.7,0,0,1-.083-.546c10.141-2.26,17.8-1.816,20.592.6a15.188,15.188,0,0,0,9.481,3.682A8.378,8.378,0,0,1,770.824,551.364Z" transform="translate(-579.246 -487.984)"/><path class="k" d="M754.208,922.349c.253-1.907-13.326-1.729-14.863-.178s-28.6,7.133-28.062,15.169,38.039,1.718,40.718,1.529S753.712,926.1,754.208,922.349Z" transform="translate(-585.561 -404.373)"/><path class="k" d="M779.405,919.691c-.253-1.909,16,.513,17.537,2.063s25.2,7.985,24.662,16.021-38.039,1.718-40.718,1.529S779.9,923.441,779.405,919.691Z" transform="translate(-570.524 -404.809)"/><g class="l" transform="translate(190.015 237.179)"><path d="M764.476,694.976l-.537-.044S764.129,694.944,764.476,694.976Z" transform="translate(-763.939 -691.496)"/><path class="m" d="M764.379,695.6c14.371,1.146,45.78-.884,45.78-.884,9.229-.531,15.711-1.352,16.849-2.6,0,0,0,.038-.007.106-.068,1.442-.895,17.949-2.056,39.589a10.537,10.537,0,0,1-1.512-.175,11.757,11.757,0,0,1-7.6-5.4,26.135,26.135,0,0,1-2.958-6.176C802.157,699.672,768.983,696.012,764.379,695.6Z" transform="translate(-763.842 -692.118)"/></g><g transform="translate(173.805)"><g transform="translate(2.866 5.167)"><path class="i" d="M761.073,516.457s23.513,13.037,16.534-7.893C772.778,494.082,745.036,507.127,761.073,516.457Z" transform="translate(-752.32 -502.094)"/><path class="i" d="M765.172,511.289s-13.156,7.806-11.887,15.637c0,0-2.9-23.38,10.18-23.968s18.145.675,16.984,25.4C780.449,528.355,776.648,508.689,765.172,511.289Z" transform="translate(-753.011 -501.925)"/></g><path class="i" d="M761.106,504.215s.66-7.284,7.882-6.253,10.316,5.157,11.348,9.284,2.063,7.222,3.1,7.222c0,0-3.1,3.094-4.127,2.062,0,0,2.678,7.42-.725,13.511,0,0-1.338-9.384-6.5-10.416S761.106,504.215,761.106,504.215Z" transform="translate(-748.356 -497.862)"/><path class="i" d="M764.074,503.132s-5.159-3.1-10.316,4.127l-3.1,6.19s1.032,1.032,3.1,0c0,0-.94,7.268.045,11.371l3.049-12.4Z" transform="translate(-750.663 -496.843)"/></g><g transform="translate(156.509 126.892)"><path class="n" d="M736.606,621.035l13.081,83.8a8.949,8.949,0,0,0,10.213,7.458l57.194-8.934a2.745,2.745,0,0,0,.4-.082,8.917,8.917,0,0,0,7.046-10.13l-13.08-83.8a8.935,8.935,0,0,0-10.213-7.448l-54.543,8.51-2.651.413A8.935,8.935,0,0,0,736.606,621.035Z" transform="translate(-736.497 -601.79)"/><path class="o" d="M739.107,620.539l13.081,83.8a8.934,8.934,0,0,0,10.213,7.448l54.542-8.51a8.917,8.917,0,0,0,7.046-10.13l-13.08-83.8A8.935,8.935,0,0,0,800.7,601.9l-54.543,8.51A8.918,8.918,0,0,0,739.107,620.539Z" transform="translate(-735.944 -601.79)"/><circle class="p" cx="6.904" cy="6.904" r="6.904" transform="translate(39.283 48.852)"/></g><path class="j" d="M837.307,670.056s1.341-30.8-81.189-20.488,61.9,19.6,61.9,19.6Z" transform="translate(-581.281 -464.808)"/><g transform="translate(141.295 54.513)"><g transform="translate(0 127.877)"><path class="e" d="M765.263,660.253c-.978-.328-11.3-6.509-16.9-7.025s-13.964-.75-16.853-1.571c-3.4-.967-4.256.383-.341,1.878a55.078,55.078,0,0,0,8.912,2.524c.56.023-3.085-.466-7.049-1.288-4.212-.873-8.782-2.061-8.991-1.31-.407,1.455,11.729,4.726,13.868,4.958a53.866,53.866,0,0,1-5.637-.684c-2.543-.451-5.459-1.352-6.032-.824-.9.831,5.525,3.353,10.836,4.09.093.172-1.622.441-7.873-.857-.629-.131-2.228.143-.171,1.094,4.329,2,6.042,3.183,12.317,3.378,6.118.19,12.87-1.068,17.271.407Z" transform="translate(-724.036 -646.341)"/><path class="e" d="M748.782,654.681s-4.737-4.975-10.056-5.8c-3.162-.487-3.088-1.283-3.628-1.521-1.789-.787-.057,2.535,2.629,3.386,2.183.693,3.4,4.422,4.714,5.215s5.238,2.242,6.217,1.729S748.782,654.681,748.782,654.681Z" transform="translate(-721.753 -647.244)"/></g><path class="h" d="M847.634,559.279c19.433,17.387,32.878,33.535,41.266,86.656,4.255,26.952,3.146,53.9,2.039,68.115a16.792,16.792,0,0,1-11.541,14.6c-60.883,20.082-127.758-37.689-127.758-37.689-3.487-1.3,3.532-13.73,3.532-13.73,33.658-.349,59.45.682,86.272,11-.137-.063-26.368-49.336-29.917-62.93-9.3-35.647-39.9-66.495-31.981-80.466C782.283,540,828.034,541.741,847.634,559.279Z" transform="translate(-718.151 -542.51)"/></g><g transform="translate(141.294 236.998)"><line class="q" x1="15.215" y2="159.099"/><line class="q" x1="15.1" y2="156.329" transform="translate(15.215 3.182)"/><line class="q" x1="12.557" y2="155.236" transform="translate(32.519 3.182)"/><line class="q" x2="0.323" y2="32.155" transform="translate(59.292 3.182)"/><line class="q" x1="2.913" y2="158.382" transform="translate(72.159 3.182)"/><line class="q" x1="0.812" y2="159.71" transform="translate(87.839 3.083)"/><line class="q" x2="3.072" y2="160.627" transform="translate(101.997 3.083)"/></g><path class="q" d="M726.23,706.379s85.681,4.045,108.319,0" transform="translate(-582.256 -451.788)"/><path class="q" d="M783.479,721.626c-29.978,6.79-58.667-3.944-58.667-3.944" transform="translate(-582.57 -449.29)"/><path class="q" d="M772.6,719.25s27.055,7.6,50.819,1.183" transform="translate(-572.011 -448.944)"/><path class="q" d="M723.6,727.231s21.6,11.311,56.7,5.544" transform="translate(-582.836 -447.18)"/><path class="q" d="M722.156,738.6s33.619,10.265,56.8,4.983" transform="translate(-583.157 -444.667)"/><path class="q" d="M720.7,749.9s17.122,13.423,56.82,7.4" transform="translate(-583.477 -442.171)"/><path class="q" d="M719.013,762.9s26.108,13.641,57.584,4.338" transform="translate(-583.851 -439.299)"/><path class="q" d="M717.441,774.8s18.491,13.127,57.949,5.5" transform="translate(-584.198 -436.668)"/><path class="q" d="M715.8,787.009s25.522,13.341,58.778,2.563" transform="translate(-584.561 -433.972)"/><path class="q" d="M714.482,796.534s15.058,14.482,59.11,3.746" transform="translate(-584.852 -431.867)"/><path class="q" d="M712.932,807.346s24.347,12.826,59.7,3.341" transform="translate(-585.195 -429.478)"/><path class="q" d="M773.6,731.144s11.3,9.333,49.589,2.405" transform="translate(-571.788 -446.316)"/><path class="q" d="M773.848,742.648s15.86,7.4,48.385,1.555" transform="translate(-571.735 -443.774)"/><path class="q" d="M773.214,755.417s24.49,7.376,49.16,0" transform="translate(-571.875 -440.952)"/><path class="q" d="M772.925,766.005s23.807,10.583,49.987,0" transform="translate(-571.939 -438.613)"/><path class="q" d="M772.6,777.63s22.666,7.953,51.045,0" transform="translate(-572.011 -436.044)"/><path class="q" d="M772.3,788.795s19.1,8.572,52.3,0" transform="translate(-572.077 -433.577)"/><path class="q" d="M772.3,798.674s22.683,11.689,53.459,1.242" transform="translate(-572.077 -431.394)"/><path class="q" d="M771.851,811.022a104.867,104.867,0,0,0,55.687.644" transform="translate(-572.176 -428.666)"/><path class="h" d="M724.491,674.308s-62.8,26.64-78.033-30.813,5.714-70.163-13.967-93.964l12.7-9.834s43.8,23.171,56.819,59.358S724.491,674.308,724.491,674.308Z" transform="translate(-602.969 -488.618)"/></g></g></g></g></svg>