<svg xmlns="http://www.w3.org/2000/svg" width="714" height="520.771" viewBox="0 0 714 520.771"><defs><style>.a{fill:#edf9fa;}.b{fill:#fcb95d;}.b,.c,.d,.e,.f,.g,.h,.k,.l,.n,.s,.y{fill-rule:evenodd;}.c{fill:#243e41;}.d{fill:#7fd1d8;}.e{fill:#171f1c;}.f{fill:#c98121;}.g,.i{fill:#d1d3d4;}.h{fill:#36a5ad;}.j{fill:#bcbec0;}.k,.p{fill:#a1dd6f;}.l{opacity:0.15;}.m,.n{fill:#282829;}.o{fill:#414143;}.q{opacity:0.5;}.r{fill:#243330;}.s{opacity:0.2;}.t{fill:#3e6569;}.u,.x,.y{fill:none;stroke:#414143;stroke-miterlimit:10;}.u{stroke-width:0.489px;}.v{fill:#e65329;}.w{fill:#e6aa6a;}.x{stroke-width:0.449px;}.y{stroke-width:0.814px;}.z{fill:#f7cf43;}</style></defs><g transform="translate(-614.435 -289.776)"><path class="a" d="M1309.269,633.756C1293.7,670.788,1192.083,764.9,1136.995,771.512c-63.861,7.663-89.169-82.306-188.5-98.117-86.95-13.841-117.974,47.075-188.743,31.007C665.91,683.1,577.12,543.433,630.553,441.911c47.983-91.166,185.788-104.333,195.678-105.151,78.1-6.454,95.182,26.043,174.8,18.736,109.731-10.071,134.233-77.028,185.92-64.06C1269.687,312.192,1371.39,485.955,1309.269,633.756Z" transform="translate(0)"/><g transform="translate(827.375 446.305)"><path class="b" d="M731.851,369.464c14.96,11.978,18.514,29.892,20.028,30.985,2.512,1.812,22.308,3.937,39.275,5.565,13.149,1.276,24.608,2.235,25,2.524.9.67,15.3,7.559,15.3,7.559-7.8,3.016-28.76,6.328-47.979,8.16-7.384.708-14.513,1.213-20.531,1.386L732.792,401.57a125.66,125.66,0,0,1-10.572-8.158c-1.75-3.065-2.866-5.127-3.043-5.359C719.177,388.053,716.9,357.479,731.851,369.464Z" transform="translate(-719.053 -366.679)"/><g transform="translate(103.41 25.561)"><path class="b" d="M769.859,393.358c1.083-.405,12.583-8.364,18.744-8.84s15.359-.458,18.555-1.453c3.757-1.172,4.665.69.326,2.557-2.821,1.213-8.587,3.043-9.857,3.061-.615.008,3.4-.509,7.777-1.463,4.651-1.014,9.7-2.439,9.912-1.415.407,1.987-13.008,5.933-15.363,6.159a48.04,48.04,0,0,0,6.21-.7c2.807-.511,6.031-1.614,6.648-.875.969,1.162-6.157,4.319-12.011,5.1-.106.23,1.771.662,8.671-.847.694-.151,2.445.285.161,1.49-4.81,2.538-6.723,4.067-13.619,4.081-6.727.014-14.111-1.96-18.984-.138Z" transform="translate(-769.859 -375.652)"/><path class="b" d="M777.824,388.742s5.333-6.548,11.2-7.448c3.484-.533,3.426-1.614,4.024-1.913,1.985-1,0,3.432-2.976,4.48-2.416.849-3.853,5.852-5.315,6.872s-5.813,2.827-6.875,2.092S777.824,388.742,777.824,388.742Z" transform="translate(-762.058 -379.237)"/></g><path class="b" d="M777.026,387.025s-2.86.714-11.585-.11,2.339,5.644,2.339,5.644l16.749,1.8Z" transform="translate(-674.494 -345.801)"/><path class="b" d="M767.961,388.761c.346-.01,7.128-.576,11.954-2.961s-1.272,7.415-1.272,7.415l-9.721.59Z" transform="translate(-668.414 -347.269)"/></g><g transform="translate(727.566 357.24)"><path class="c" d="M754.158,355.467c-5.4,4.028-5.913,1.706-1.435,10.364,1.63,5.257-5.255,3.367-10.8,4.321a9.664,9.664,0,0,0-3.3,1.1c-3.016,1.4-7.973.47-12.752-.161-9.426-3.951-14,3.122-10.934-6.585.073-.116.161-.228.222-.348,4.751-7.588-11.132-3.914-6.234-10.468,7.236-1.081-7.93-1.954.159-12.752,8.28-3.151-5.693-11.689,6.585-10.934,2.048-4.335,11.925,1.755,10.8-6.017,4.14-2.829,9.357.957,12.764.163,12.516.7,5.034,8.252,10.924,6.58,7.277-.352,6.572,8.7,6.027,10.808C758.823,346.727,764.314,358.359,754.158,355.467Z" transform="translate(-632.108 -322.921)"/><path class="d" d="M745.245,361.073c15.51,1.526,15.058,36.617,40.843,47.1,15.292,6.214,31.866.541,42.094-4.169,1.946,4.863,8.891,20.144,10.837,25.007-1.541,2.721-27.783,28.435-67.516,30.006-19.163.759-51.65-6.163-60.849-32.09C699.77,396.241,728.772,359.453,745.245,361.073Z" transform="translate(-630.409 -283.472)"/><path class="e" d="M738.177,355.1a9.664,9.664,0,0,0-3.3,1.1c-3.016,1.4-7.973.47-12.752-.161-9.426-3.951-14,3.122-10.934-6.585.073-.116.161-.228.222-.348,3.369.311,6.633-.022,7.352-2.55,3.245-11.413,17.132-8.85,17.132-8.85s1.464,8.8,1.455,9.707C737.341,347.878,737.736,351.475,738.177,355.1Z" transform="translate(-628.367 -307.868)"/><path class="f" d="M710.3,375.384s15.945,1.272,21.848-9.636,8.144-17.138,7.045-24.74,15.119,12.4,15.119,12.4-4.734,8.443-4.543,15.958,6,32.947,6,32.947-27.075-4.628-29.308-4.24-29.23-7.948-30.427-8.663S710.3,375.384,710.3,375.384Z" transform="translate(-643.141 -305.979)"/><path class="b" d="M730.485,332.2s15.644.735,10.784,17.81-7.2,18.742-18.667,9.882S715.6,328.8,730.485,332.2Z" transform="translate(-622.272 -313.68)"/><g transform="translate(14.131 225.005)"><g transform="translate(74.7 159.164)"><path class="g" d="M772.528,553.78c-6.043-1.846-17.167-7.989-25.33-12.294l-.008,0c-.256-.142-.5-.269-.747-.4-4.262-2.235-7.608-3.9-8.8-4.038-.132-.012-.289-.043-.474-.079-.46-.09-1.087-.24-1.836-.454-6.772-1.911-23.544-8.41-21.5-13.407a13.254,13.254,0,0,1,1.555-2.691c.13-.181.263-.364.409-.539l.029-.029c.181-.24.375-.482.58-.721l.012-.01c3.763-4.4,9.709-8.156,10.273-7.34,7.543,10.922,21.032,8.262,23.886,7.555.354-.088.543-.147.543-.147s.383.208,1.1.623l1.461.887c.316.193.656.405,1.024.639.126.081.252.157.375.244.3.187.621.389.959.609.161.106.322.212.495.332l.006,0c.912.6,1.922,1.292,3.029,2.074.69.487,1.409,1,2.164,1.557,1.14.828,2.353,1.746,3.629,2.736.116.1.234.214.346.321.615.548,1.2,1.115,1.775,1.685a48.384,48.384,0,0,1,5.182,6.074l0,.01C779.821,546.973,779.98,556.059,772.528,553.78Z" transform="translate(-713.66 -511.665)"/><path class="h" d="M771.868,536.98a14.972,14.972,0,0,0-14.3,5.453s-4.089-2.866-8.807-5.923c-.407-.258-.827-.525-1.248-.79-.755-.484-1.527-.973-2.3-1.447-.662-.407-1.319-.806-1.96-1.189-3.572-2.121-6.754-3.755-8.038-3.737-3.478.041-22.786-4.716-20.621-8.931a2.269,2.269,0,0,1,.409-.539l.028-.029a5.59,5.59,0,0,0,.58-.721l.012-.01c3.763-4.4,9.709-8.156,10.273-7.34,7.543,10.922,21.032,8.262,23.886,7.555.354-.088.543-.147.543-.147s.383.208,1.1.623l1.461.887c.316.193.656.405,1.024.639.126.081.252.157.375.244.3.187.621.389.959.609.161.106.322.212.495.332l.006,0c.912.6,1.922,1.292,3.029,2.074.69.487,1.409,1,2.164,1.557,1.14.828,2.353,1.746,3.629,2.736.116.1.234.214.346.321.615.548,1.2,1.115,1.775,1.685a48.373,48.373,0,0,1,5.182,6.074Z" transform="translate(-712.867 -511.665)"/><g transform="translate(32.584 9.032)"><path class="i" d="M739.458,517.594c-.277.091-.67.226-1.16.415a21.843,21.843,0,0,0-4.981,2.577,10.376,10.376,0,0,0-1.443,1.231,7.217,7.217,0,0,0-.478.548L729.668,521a11.272,11.272,0,0,1,2.174-2.062l0-.006a17.058,17.058,0,0,1,1.63-1.073A24.713,24.713,0,0,1,737.1,516.1c.315.193.655.405,1.024.639.126.081.253.157.375.244C738.8,517.173,739.12,517.374,739.458,517.594Z" transform="translate(-729.668 -516.102)"/></g><g transform="translate(38.539 12.931)"><path class="i" d="M742.122,519.575c-1.6.537-5.8,2.151-7.794,4.683l-1.734-1.368c1.871-2.375,5.166-4,7.364-4.873C740.648,518.5,741.367,519.017,742.122,519.575Z" transform="translate(-732.594 -518.018)"/></g><g transform="translate(44.961 17.546)"><path class="i" d="M744.6,521.97c-1.9.7-5.369,2.213-7.128,4.447l-1.728-1.366c1.789-2.284,4.9-3.867,7.081-4.767C743.445,520.833,744.033,521.4,744.6,521.97Z" transform="translate(-735.749 -520.285)"/></g><g transform="translate(18.515 7.521)"><path class="j" d="M736.587,530.446a9.026,9.026,0,0,1-2.042.293,12.608,12.608,0,0,0-6.8,2.4c-2.125,1.516-3.44,3.419-3.525,4.7l-1.465-.1c.1-1.523,1.262-3.43,3.155-5.054a14.212,14.212,0,0,1,8.581-3.419l.135-.01c4.12-.208,4.48-2.442,4.4-6.672,0-.244-.008-.5-.016-.759-.012-.468-.023-.94-.027-1.411,0-.244,0-.484.012-.714a5.193,5.193,0,0,1,1.451-3.7,3.452,3.452,0,0,1,.7-.495c.354-.088.543-.147.543-.147s.383.208,1.1.623l-.061.611a1.879,1.879,0,0,0-1.315.507,2.952,2.952,0,0,0-.79,1.529,7.357,7.357,0,0,0-.179,1.769l.022.957c.006.149,0,.293.012.434C740.578,525.525,740.674,529.376,736.587,530.446Z" transform="translate(-722.756 -515.36)"/></g><g transform="translate(32.78 9.915)"><path class="j" d="M739.566,525.995a27.851,27.851,0,0,1-3.254,2.607,19.918,19.918,0,0,0-3.438,2.864,6.34,6.34,0,0,0-1.616,4.926l-.735.051-.008,0-.725.047c-.012-.151-.016-.3-.022-.446a7.66,7.66,0,0,1,1.858-5.365,20.476,20.476,0,0,1,3.824-3.269,24.967,24.967,0,0,0,3.084-2.461,3.973,3.973,0,0,0,.735-1.006,4.512,4.512,0,0,0,.35-2.829,10.282,10.282,0,0,0-1.421-3.552c-.224-.362-.375-.576-.387-.59l.588-.434c.3.187.621.389.959.609.161.106.322.212.495.332l.006,0a11.82,11.82,0,0,1,1.132,2.911,7.058,7.058,0,0,1,.155,2.4A5.259,5.259,0,0,1,739.566,525.995Z" transform="translate(-729.765 -516.536)"/></g></g><path class="b" d="M732.051,505.928s-8.17,14.938-12.117,19.2,8.9,8.256,9.351,8.691,12.672-1.457,12.672-1.457-5.174-4.58,5.54-22.784S732.051,505.928,732.051,505.928Z" transform="translate(-633.241 -364.145)"/><path class="k" d="M802.057,480.735c-1.026,1.673-2.037,3.472-3.006,5.384-5.26,10.224-9.778,23.474-13.6,34.928-2.151,6.385-4.077,12.214-5.785,16.643-5.349,13.843-26.536,41.018-26.536,41.018l-32.856-12.455s-.1-24.044,11.077-37.728c6.593-8.048,9.381-20.991,11.748-31.225,1.675-7.185,3.132-13.035,5.557-14.96,2.253-1.775.535-5.031-2.459-8.378-4.828-5.4-12.968-11.032-12.968-11.032l51.97-24.5c2.7,6.637,10.234,11.634,14.15,13.9C799.347,452.331,811.688,465.184,802.057,480.735Z" transform="translate(-632.113 -428.327)"/><path class="b" d="M771.414,523.109s-1.282,18.019-3.21,23.871,12.237,4.032,12.862,4.254,11.582-7,11.582-7-7.016-2.133-4.72-24.427S771.414,523.109,771.414,523.109Z" transform="translate(-582.67 -353.512)"/><path class="l" d="M787.439,468.218c-5.26,10.224-9.778,23.474-13.6,34.928-5.227-5.294-12.125-11.862-19.627-16.861a44.325,44.325,0,0,0-22.723-6.886c1.675-7.185,3.132-13.035,5.557-14.96,2.253-1.775.535-5.031-2.459-8.378,11.293-1.413,33.924,1.854,46.025,4.61C783.979,461.434,786.143,464.257,787.439,468.218Z" transform="translate(-620.502 -410.426)"/><g transform="translate(0 28.997)"><ellipse class="m" cx="61.803" cy="19.331" rx="61.803" ry="19.331" transform="translate(0 13.175)"/><path class="n" d="M676.959,457.211v14.758l10.784,4.573Z" transform="translate(-676.959 -437.88)"/><path class="n" d="M742.773,471.232l-1.316-14.839-8.683,14.839Z" transform="translate(-619.168 -438.726)"/><ellipse class="o" cx="61.803" cy="19.331" rx="61.803" ry="19.331"/></g><path class="p" d="M745.5,471.567a140.641,140.641,0,0,1-6.933,16.444s-1.789-.151-4.614-.584c-.039,0-.114-.037-.151-.037-7.8-1.225-23.151-4.635-30.328-13.092a15.965,15.965,0,0,1-3.5-6.933,15.627,15.627,0,0,1-.358-3.3,17.241,17.241,0,0,1,.226-2.732c3.3-20.869,33.906-32.491,45.282-24.016a10.032,10.032,0,0,1,1.49,1.356,9.85,9.85,0,0,1,1.468,2.111,13.578,13.578,0,0,1,.942,2.355C751.452,450.847,748.759,462.206,745.5,471.567Z" transform="translate(-653.502 -432.365)"/><path class="k" d="M853.536,601.545l-37.183,2.506s-10.737-23.149-5.99-41.288c4.765-18.176-7.327-45.113-3.711-52.194,3.654-7.083-23.452-11.923-23.452-11.923a124.9,124.9,0,0,0-25.823-7.2c-10.55-1.716-18.724-1.508-25.034-1.659-.922-.018-1.807-.057-2.656-.094a35.386,35.386,0,0,1-5.048-.584c-10.1-2.129-11.9-16.933-11.528-24.356.246-4.952,11.923-17.384,19.572-24.976,3.747-3.729,6.517-6.31,6.517-6.31.808-.018,2.147.018,3.955.151,3.9.226,9.927.773,16.971,1.638,6.912.81,14.767,1.942,22.6,3.373,16.839,3.069,33.49,7.515,39.8,13.43,5.52,5.2,14.993,6.707,19.778,7.159,0,0,17.574,6.949,15.164,26.2-2.412,19.269,2.6,49.106,3.56,64.834C861.973,565.982,853.536,601.545,853.536,601.545Z" transform="translate(-639.574 -433.467)"/><g class="q" transform="translate(175.203 33.806)"><g transform="translate(0 5.945)"><path class="r" d="M763.456,465.811l1.005-.3,9.6-2.85,16.062-4.771c.287.456.592.906.92,1.347.21.283.427.564.647.841l-15.2,3.462-12.957,2.925C763.5,466.248,763.48,466.031,763.456,465.811Z" transform="translate(-762.603 -447.928)"/><path class="r" d="M763.266,464.166l3.625-1.077,7.659-2.276,14.356-4.268a16.617,16.617,0,0,0,.928,1.932l-13.344,3.041-11.606,2.62-1.571.35C763.3,464.379,763.28,464.273,763.266,464.166Z" transform="translate(-762.8 -449.323)"/><path class="r" d="M788.767,456.757c-4.759,1.087-23.46,5.355-25.725,5.8l0-.024,24.234-7.205,1.254.568C788.6,456.187,788.675,456.474,788.767,456.757Z" transform="translate(-763.037 -450.581)"/><path class="r" d="M763.906,460.249c.55-.053,21.589-4.867,21.589-4.867l-2.072-.94Z" transform="translate(-762.137 -451.501)"/><path class="r" d="M764.666,458.247c.438-.041,17.24-3.886,17.24-3.886l-1.651-.755Z" transform="translate(-761.35 -452.367)"/><path class="r" d="M765.1,456.708c.35-.035,13.774-3.106,13.774-3.106l-1.319-.6Z" transform="translate(-760.899 -452.997)"/></g><g transform="translate(4.26)"><path class="r" d="M779.649,474.678l-10.741-23.2q1.056-.681,2.082-1.4c2.6,6.519,6.43,16.1,9.721,24.376Z" transform="translate(-761.218 -450.076)"/><path class="r" d="M777.938,474.36l-10.315-22.28q.922-.513,1.818-1.066c2.188,5.471,6.127,15.335,9.247,23.185Z" transform="translate(-762.549 -449.105)"/><path class="r" d="M776.08,474.156l-9.487-20.49.259-1.441c.285-.138.57-.281.851-.427,1.51,3.776,5.882,14.712,8.876,22.259Z" transform="translate(-763.615 -448.294)"/><path class="r" d="M774.039,473.119l-8-17.275.456-2.571s4.985,12.459,7.889,19.784Z" transform="translate(-764.186 -446.765)"/><path class="r" d="M772.25,471.7l-6.77-14.626.366-2.054s4.382,10.95,6.634,16.645Z" transform="translate(-764.768 -444.958)"/><path class="r" d="M770.811,470.522l-5.681-12.269.3-1.645s3.8,9.505,5.52,13.859Z" transform="translate(-765.13 -443.313)"/></g></g><g transform="translate(178.375 187.726)"><path class="g" d="M834.775,549.613c-6.644.887-20.088-.126-29.866-.672H804.9c-.311-.022-.6-.039-.9-.055-5.1-.273-9.06-.4-10.277-.008a5.083,5.083,0,0,1-.491.134c-.484.116-1.154.248-1.974.373-7.376,1.148-26.426,2.286-26.66-3.438a14.067,14.067,0,0,1,.311-3.283c.047-.234.094-.468.157-.7l.014-.038c.071-.311.148-.631.242-.951l.008-.016c1.685-5.911,5.762-12.157,6.668-11.618,12.1,7.205,23.938-1.319,26.379-3.261.305-.24.46-.381.46-.381s.46.031,1.333.116c.476.055,1.085.124,1.8.209.391.047.812.1,1.272.165.155.022.311.039.468.069q.562.07,1.193.165c.2.031.405.063.623.1h.008c1.146.179,2.426.4,3.837.661.881.165,1.8.344,2.776.545,1.465.3,3.041.647,4.71,1.038.157.047.319.1.476.157.835.257,1.653.546,2.455.841a51.222,51.222,0,0,1,7.682,3.572l.008.008C838.808,539.827,842.97,548.52,834.775,549.613Z" transform="translate(-764.595 -525.697)"/><path class="h" d="M827.323,533.346a15.888,15.888,0,0,0-11.392,11.579s-5.209-.959-11.113-1.824c-.507-.071-1.028-.14-1.551-.212-.944-.132-1.9-.265-2.854-.383-.818-.1-1.63-.193-2.418-.279-4.382-.468-8.172-.641-9.4-.055-3.338,1.575-24.064,5.512-23.839.49a2.533,2.533,0,0,1,.157-.7l.014-.038a5.831,5.831,0,0,0,.242-.951l.008-.016c1.685-5.911,5.762-12.157,6.668-11.618,12.1,7.205,23.938-1.319,26.379-3.261.305-.24.46-.381.46-.381s.46.031,1.333.116c.476.055,1.085.124,1.8.209.391.047.812.1,1.272.165.155.022.311.039.468.069q.562.07,1.193.165c.2.031.405.063.623.1h.008c1.146.179,2.426.4,3.837.661.881.165,1.8.344,2.776.545,1.466.3,3.041.647,4.71,1.038.157.047.319.1.476.157.835.257,1.653.546,2.455.841a51.215,51.215,0,0,1,7.682,3.572Z" transform="translate(-764.434 -525.697)"/><g transform="translate(32.376 0.326)"><path class="i" d="M788.44,526.256c-.226.21-.545.515-.936.912a23.188,23.188,0,0,0-3.664,4.688,10.853,10.853,0,0,0-.851,1.824c-.085.242-.157.49-.218.741l-2.269-.554a11.888,11.888,0,0,1,1.184-2.947v-.008a17.716,17.716,0,0,1,1.1-1.754,26.127,26.127,0,0,1,2.721-3.3c.391.047.812.1,1.272.165.155.022.312.039.468.069Q787.809,526.161,788.44,526.256Z" transform="translate(-780.502 -525.857)"/></g><g transform="translate(39.83 1.488)"><path class="i" d="M791.893,526.974c-1.3,1.225-4.647,4.641-5.451,7.962l-2.278-.553c.757-3.118,3.222-6.137,4.952-7.954C790,526.593,790.918,526.772,791.893,526.974Z" transform="translate(-784.164 -526.428)"/></g><g transform="translate(48.018 3.228)"><path class="i" d="M795.368,528.124c-1.52,1.514-4.2,4.509-4.911,7.44l-2.269-.554c.716-2.994,3.018-5.895,4.726-7.726C793.748,527.539,794.566,527.829,795.368,528.124Z" transform="translate(-788.187 -527.283)"/></g><g transform="translate(25.565)"><path class="j" d="M787.57,542.507a9.613,9.613,0,0,1-1.84,1.187,13.349,13.349,0,0,0-5.5,5.318c-1.38,2.4-1.809,4.818-1.327,6.09l-1.457.554c-.576-1.514-.3-3.869.81-6.271a15.091,15.091,0,0,1,6.77-7.087c.039-.025.085-.047.124-.069,3.884-2.021,3.245-4.337,1.3-8.384-.11-.234-.226-.476-.35-.725-.22-.446-.438-.9-.647-1.349-.11-.234-.212-.468-.305-.694a5.509,5.509,0,0,1-.234-4.211,3.675,3.675,0,0,1,.46-.788c.305-.24.46-.381.46-.381s.46.031,1.333.116l.212.617a1.983,1.983,0,0,0-1.046,1.068,3.155,3.155,0,0,0-.085,1.824,7.762,7.762,0,0,0,.609,1.785l.446.914c.069.14.132.281.2.413C789.245,536,791.04,539.67,787.57,542.507Z" transform="translate(-777.156 -525.697)"/></g><g transform="translate(38.507 0.56)"><path class="j" d="M789.431,534.582a29.432,29.432,0,0,1-1.989,3.953,21.081,21.081,0,0,0-2.052,4.282,6.725,6.725,0,0,0,.617,5.465l-.686.375h-.008l-.678.366c-.079-.14-.149-.281-.22-.421a8.118,8.118,0,0,1-.576-6,21.6,21.6,0,0,1,2.245-4.842,26.541,26.541,0,0,0,1.887-3.735,4.2,4.2,0,0,0,.267-1.294,4.778,4.778,0,0,0-.914-2.886,10.922,10.922,0,0,0-2.939-2.8c-.375-.25-.617-.389-.631-.4l.374-.68q.562.07,1.193.165c.2.031.405.063.623.1h.008a12.592,12.592,0,0,1,2.379,2.308,7.537,7.537,0,0,1,1.209,2.245A5.584,5.584,0,0,1,789.431,534.582Z" transform="translate(-783.514 -525.972)"/></g></g><path class="l" d="M774.055,435.26c-1.337.057-4.746,1.132-11.17,8.306-8.722,9.739-13.769,28.8-15.766,42.1a39.58,39.58,0,0,1-.847,4.124c-.922-.018-1.807-.057-2.656-.094a35.388,35.388,0,0,1-5.048-.584s-1.789-.151-4.614-.584c-.039,0-.114-.037-.151-.037-7.8-1.225-23.151-4.635-30.328-13.092a15.964,15.964,0,0,1-3.5-6.933,15.627,15.627,0,0,1-.358-3.3,17.241,17.241,0,0,1,.226-2.732c3.3-20.869,33.906-32.491,45.282-24.016a10.028,10.028,0,0,1,1.49,1.356c3.747-3.729,6.517-6.31,6.517-6.31.808-.018,2.147.018,3.955.151C760.984,433.848,767.01,434.4,774.055,435.26Z" transform="translate(-653.502 -433.467)"/></g><path class="s" d="M693.574,413.1c.124.916,10.558,39.023,21.9,43.56s19.507,8.166,25.858,1.816,9.982-10.436,9.982-10.436L730.9,428.234Z" transform="translate(-645.626 -229.548)"/><path class="d" d="M822.6,459.607l-9.617,18.083-35.151-26.534,14.185,36s5.909,45.935-3.175,52.9c-6.625,5.089-9.522,9.271-17.8,13.979-9.878,5.618-81.744,25.978-92.947-15.449a237.835,237.835,0,0,1-8.07-59.413,219.331,219.331,0,0,1,1.628-29.212q.974-7.923,2.6-15.8c.523-2.56,1.093-5.111,1.73-7.651,6.558-26.3,23.2-49.179,46.686-62.7,7.686-4.417,9.66-8.573,18.131-9.587.773-.09,9.7,2.55,11.366,5.363a59.435,59.435,0,0,0,7.513,10.189c3.723,3.882,8.072,6.613,12.318,5.133,5.715-1.993,6.945-4.61,6.818-6.648,2.915,7.252,12.795,24.264,17.633,46.93C797.908,422.007,822.6,459.607,822.6,459.607Z" transform="translate(-670.017 -290.516)"/><g transform="translate(72.381 95.77)"><path class="t" d="M745.4,433.706l-12.015-7.321-15.6,15.852,3.33-27.138-15.536-19.625,20.547-2.145,11.3-23.354,5.717,23.851,10.474,1.36L743.323,413.2Zm-12.015-14.04,7.832,5.276-1.4-13.389,5.683-9.5-8.042-2.31-4.069-13.476-4.411,13.021-11.352,1.84,8.433,11.325-1.883,15.98Z" transform="translate(-705.578 -369.973)"/></g><path class="l" d="M689.426,372.947s-12.615,9.184-13.666,24.3c-1.838,26.416,3.489,61.309,25.65,78.829,9.479,7.494,21.333,10.841,33,13.11,10.008,1.948,42.34,7.087,51.616.847,13.572-9.133-10.02-21.946-10.02-21.946Z" transform="translate(-664.417 -271.124)"/><path class="d" d="M815.4,501.167c-35.711,15.986-61.141,14.116-93.545-1.732C702.79,490.109,694.6,478,687.317,466.064a68.826,68.826,0,0,1-7.761-17.5c-5.137-18.351-3.214-53.871,10.867-74.3,5.263-7.645,12.609-13.151,19.743-17.049a32.343,32.343,0,0,1,39.853,7.421c.157.179.3.338.437.478,8.691,8.952,11.783,19.741,16.528,30.863,3.481,8.127,7.838,16.424,15.933,24.313,17.97,17.525,28.186,46.485,44.758,53.36C829.17,474.257,822.661,497.919,815.4,501.167Z" transform="translate(-662.828 -291.437)"/></g><g transform="translate(706.778 375.281)"><g transform="translate(264.657 22.512)"><rect class="u" width="8.693" height="193.799"/></g><path class="u" d="M821.648,408.195v75.75h-9.934v-68.3Z" transform="translate(-502.516 -252.669)"/><ellipse class="v" cx="59.892" cy="8.477" rx="59.892" ry="8.477" transform="translate(1.117 250.826) rotate(-0.849)"/><path class="v" d="M667.8,462.938a120.089,120.089,0,0,0,17.211,2.563l-22.967.368-.721.01-.922-6.745.289,0C660.8,460.545,663.369,461.835,667.8,462.938Z" transform="translate(-659.183 -199.93)"/><path class="v" d="M731.1,457.8l.924,6.743-.342.008-23.953.381A110,110,0,0,0,725,461.686c3.916-1.183,6.094-2.489,6.061-3.831l-.006-.049Z" transform="translate(-610.185 -201.303)"/><path class="v" d="M667.265,436.269a119.805,119.805,0,0,0,17.211,2.563l-23.546,1.423-1.064-7.79.289,0C660.261,433.876,662.832,435.168,667.265,436.269Z" transform="translate(-659.739 -227.544)"/><path class="v" d="M730.613,431.519l.924,6.743-.342.008-23.953.381a110.2,110.2,0,0,0,17.276-3.249c3.918-1.185,6.094-2.491,6.064-3.833l-.006-.049Z" transform="translate(-610.686 -228.519)"/><path class="r" d="M771.161,437.017l3.821,46.452s-55.54,19.965-109.735,3.462l-3.153-50.83Z" transform="translate(-657.432 -223.775)"/><ellipse class="r" cx="83.822" cy="106.795" rx="83.822" ry="106.795" transform="translate(144.822 216.234)"/><path class="r" d="M837.959,438.021l-67.058.242-2.968,213.012,77.826.337Z" transform="translate(-547.845 -221.787)"/><ellipse class="v" cx="83.822" cy="106.795" rx="83.822" ry="106.795" transform="translate(205.671 216.234)"/><ellipse class="v" cx="46.814" cy="8.615" rx="46.814" ry="8.615" transform="translate(264.379 164.028) rotate(-14.787)"/><ellipse class="w" cx="46.814" cy="8.615" rx="46.814" ry="8.615" transform="translate(250.452 110.449) rotate(-14.787)"/><path class="v" d="M797.306,418.948a73.99,73.99,0,0,0,13.686-.649L793.638,422.9l-.546.142-2.32-6.491.22-.057C791.411,417.875,793.675,418.677,797.306,418.948Z" transform="translate(-524.198 -244.071)"/><path class="v" d="M843.25,404.241l2.32,6.489-.256.071-18.1,4.8a68.682,68.682,0,0,0,12.341-6.4c2.691-1.893,4.03-3.584,3.684-4.905l-.016-.045Z" transform="translate(-486.465 -256.763)"/><path class="v" d="M790.369,392.621a73.946,73.946,0,0,0,13.686-.647l-17.354,4.6-.544.143-2.32-6.489.22-.059C784.474,391.55,786.738,392.35,790.369,392.621Z" transform="translate(-531.379 -271.33)"/><path class="v" d="M836.572,378.373l2.32,6.491-.258.069-18.1,4.8a68.687,68.687,0,0,0,12.341-6.4c2.691-1.893,4.03-3.584,3.684-4.9l-.016-.047Z" transform="translate(-493.382 -283.547)"/><path class="r" d="M869.557,383.905l14.057,45.168s-37.384,29.973-82.505,23.684l-14.6-49.615Z" transform="translate(-528.616 -277.819)"/><path class="v" d="M875.788,383.324C877,387.92,857.724,397,832.721,403.6s-46.242,8.209-47.458,3.613a1.846,1.846,0,0,1,.016-.946c.3-1.144,1.579-2.487,3.668-3.957a73.945,73.945,0,0,0,13.686-.647,228.91,228.91,0,0,0,54.477-14.457,68.689,68.689,0,0,0,12.341-6.4c2.823.2,4.812.737,5.758,1.6A1.876,1.876,0,0,1,875.788,383.324Z" transform="translate(-529.958 -281.023)"/><path class="v" d="M882.468,409.192c1.213,4.594-18.064,13.672-43.067,20.281s-46.244,8.209-47.457,3.613a1.849,1.849,0,0,1,.016-.946c.3-1.144,1.577-2.489,3.668-3.957a73.94,73.94,0,0,0,13.686-.647,228.9,228.9,0,0,0,54.478-14.457,68.678,68.678,0,0,0,12.341-6.4c2.823.2,4.812.737,5.758,1.6A1.9,1.9,0,0,1,882.468,409.192Z" transform="translate(-523.041 -254.239)"/><g transform="translate(56.721 271.885)"><rect class="u" width="8.693" height="41.072"/></g><ellipse class="w" cx="64.574" cy="22.353" rx="64.574" ry="22.353" transform="translate(204.22 14.251) rotate(-6.335)"/><g transform="translate(425.471 39.525)"><rect class="v" width="2.484" height="39.738"/></g><rect class="r" width="18.627" height="6.209" transform="translate(416.778 79.884)"/><path class="w" d="M877.364,382.786s8.072-9.314,13.039-9.314h11.176s3.727,0,11.177,6.208l34.771,2.485s1.241,1.242-1.242,1.242-73.266,4.966-103.071,3.725a16.246,16.246,0,0,1,4.969-1.242C852.528,385.269,877.364,382.786,877.364,382.786Z" transform="translate(-469.9 -288.621)"/><rect class="r" width="18.627" height="6.209" transform="matrix(-1, -0.016, 0.016, -1, 435.566, 123.685)"/><path class="w" d="M914.33,387.768s-8.219,9.186-13.185,9.107l-11.174-.177s-3.725-.057-11.077-6.383l-34.728-3.033s-1.221-1.262,1.262-1.223,73.336-3.808,103.116-2.1a16.223,16.223,0,0,1-4.987,1.162C939.2,385.677,914.33,387.768,914.33,387.768Z" transform="translate(-469.225 -278.215)"/><g transform="translate(422.522 123.528)"><rect class="x" width="6.209" height="189.429"/></g><path class="v" d="M780.635,463.589c.12,4.675-26.591,8.872-59.672,9.377s-59.973-2.9-60.093-7.578a1.5,1.5,0,0,1,.307-.9c.721-1.024,2.713-2.013,5.756-2.931a120.054,120.054,0,0,0,17.209,2.563,351.117,351.117,0,0,0,35.766,1.14,347.482,347.482,0,0,0,36.332-2.3,110.01,110.01,0,0,0,17.278-3.251c3.448.851,5.758,1.824,6.674,2.87A1.592,1.592,0,0,1,780.635,463.589Z" transform="translate(-658.7 -199.329)"/><path class="v" d="M780.151,437.3c.12,4.675-26.59,8.872-59.674,9.377s-59.971-2.9-60.092-7.578a1.5,1.5,0,0,1,.307-.9c.721-1.022,2.713-2.011,5.754-2.931a119.839,119.839,0,0,0,17.211,2.563,351.13,351.13,0,0,0,35.764,1.14,346.93,346.93,0,0,0,36.334-2.3,110.2,110.2,0,0,0,17.276-3.249c3.448.851,5.76,1.822,6.676,2.868A1.6,1.6,0,0,1,780.151,437.3Z" transform="translate(-659.201 -226.543)"/><ellipse class="w" cx="59.892" cy="8.477" rx="59.892" ry="8.477" transform="translate(0 196.362) rotate(-0.849)"/><g transform="translate(9.724 313.884)"><path class="y" d="M664.581,601.731c4.191-38.005,12.683-66.344,19.554-84.919,5.605-15.156,11.048-26.289,21.787-29.611,10.757-3.326,22.695,2.461,29.611,8.939,6.322,5.923,10.938,14.755,12.849,40.783a267.054,267.054,0,0,1-3.352,65.367" transform="translate(-664.581 -485.753)"/><path class="y" d="M683.117,488.959c8.714-5.023,12.5-2.2,13.458-1.93,3.7,1.036,3.867,11.166,3.91,15.644.244,26.025.008,87.516-6.226,104.284" transform="translate(-645.389 -485.996)"/></g><g transform="translate(376.74 314.161)"><path class="y" d="M844.9,601.869c4.191-38.007,12.683-66.344,19.554-84.921,5.605-15.154,11.048-26.287,21.789-29.609s22.695,2.461,29.609,8.937c6.324,5.923,10.94,14.757,12.852,40.785a267.137,267.137,0,0,1-3.352,65.365" transform="translate(-844.897 -485.888)"/><path class="y" d="M863.434,489.1c8.714-5.023,12.5-2.2,13.456-1.928,3.7,1.036,3.869,11.166,3.912,15.642.244,26.025.006,87.518-6.226,104.286" transform="translate(-825.704 -486.132)"/></g></g><g transform="translate(938.807 463.616)"><path class="t" d="M773.8,391.573,860.445,380c.875-2.29,3.711-4.224,7.291-4.7,4.576-.611,8.618,1.386,9.029,4.46s-2.966,6.061-7.543,6.674c-3.578.478-6.823-.643-8.266-2.624l-86.647,11.577Z" transform="translate(-773.8 -375.184)"/><path class="z" d="M816.392,380l-.045.006c-.012.2.556,3.8.556,3.8,1.443,1.98,4.687,3.1,8.266,2.624,4.578-.613,7.954-3.6,7.545-6.674s-4.456-5.07-9.031-4.46C820.1,375.772,817.267,377.706,816.392,380Z" transform="translate(-729.747 -375.184)"/></g><g transform="translate(879.182 518.381)"><g transform="translate(2.896)"><path class="b" d="M757.612,418.533s7.321-4.209,13.12-2.951c3.446.747,3.776-.283,4.441-.35,2.21-.22-1.229,3.206-4.38,3.12-2.56-.069-5.689,4.089-7.419,4.519s-6.44.562-7.169-.5S757.612,418.533,757.612,418.533Z" transform="translate(-735.446 -388.494)"/><path class="t" d="M747.628,452.208l78.4-38.675c2,1.415,5.434,1.439,8.673-.159,4.14-2.042,6.385-5.954,5.013-8.734s-5.842-3.381-9.984-1.337c-3.238,1.6-5.306,4.335-5.4,6.784l-78.4,38.673Z" transform="translate(-745.929 -402.09)"/><path class="z" d="M786.145,413.533l-.043.02c-.12-.157-1.657-3.466-1.657-3.466.1-2.449,2.164-5.188,5.4-6.784,4.142-2.044,8.61-1.445,9.984,1.337s-.873,6.693-5.013,8.734C791.579,414.972,788.147,414.948,786.145,413.533Z" transform="translate(-706.049 -402.09)"/><path class="b" d="M748.144,418.892c1.156.008,14.741-3.312,20.666-1.553s14.506,5.064,17.846,5.276c3.93.248,4.112,2.312-.609,2.5-3.069.126-9.108-.228-10.3-.664-.578-.214,3.359.741,7.785,1.413,4.706.716,9.933,1.191,9.762,2.223-.328,2-14.268.889-16.55.261a48.527,48.527,0,0,0,6.049,1.567c2.8.527,6.21.649,6.521,1.559.49,1.433-7.293,1.834-13.041.472-.181.177,1.417,1.252,8.4,2.31.7.108,2.18,1.14-.383,1.449-5.4.651-7.732,1.394-14.179-1.058-6.285-2.392-12.477-6.876-17.68-6.916Z" transform="translate(-743.636 -386.832)"/></g><path class="b" d="M747.144,416.348c.328.114,6.863,2.011,12.223,1.508s-3.839,6.469-3.839,6.469l-9.29-2.923Z" transform="translate(-742.713 -387.327)"/><path class="b" d="M756.2,428.228l-11.7,4.236,4.431-16.116,7.475,7.69Z" transform="translate(-744.506 -387.326)"/></g><path class="d" d="M758.6,417.415l-.081.33c-.519,2.035-3.426,12.9-7.1,15.925-4.056,3.338-9.267-.725-8.85-1.976s7.814-14.836,8.022-16.222,6.357.594,6.357.594" transform="translate(132.65 129.636)"/></g></svg>