<svg xmlns="http://www.w3.org/2000/svg" width="528" height="303.798" viewBox="0 0 528 303.798"><defs><style>.a{fill:none;}.b{fill:#4a5e3a;}.c{fill:#f7cf43;}.d{fill:#ffbd09;}.e{fill:#6dcecd;}.f{fill:#fff;}.g{fill:#454c53;}.h{fill:#7fd1d8;}</style></defs><g transform="translate(-534.023 -295.704)"><g transform="translate(706.011 436.31)"><rect class="a" width="7.471" height="5.977" transform="translate(223.993 93.611) rotate(-19.685)"/><rect class="a" width="5.977" height="5.977" transform="translate(208.517 99.148) rotate(-19.685)"/><rect class="a" width="5.977" height="22.414" transform="translate(197.946 69.603) rotate(-19.685)"/><path class="a" d="M890.169,430.628l.186.522c3.854,10.772-.489,24.159-11.263,28.014l-12.969,4.64c-.026-1.578-1.791-3.366-2.286-4.749l-.027-.075c-2.11-5.9-7.257-9.21-13.153-7.1L822.078,462.1,814.527,441l62.766-22.455C883.2,419.6,887.828,424.088,890.169,430.628Z" transform="translate(-584.222 -382.974)"/><path class="a" d="M855.395,449.236c.668,1.87-.511,3.356-2.379,4.026l-29.1,10.412-2.014-5.628L851,447.634C852.871,446.965,854.726,447.369,855.395,449.236Z" transform="translate(-581.021 -370.475)"/><rect class="a" width="7.471" height="22.414" transform="translate(213.423 64.066) rotate(-19.685)"/><path class="a" d="M758.043,482.852a20.1,20.1,0,0,1-1.649-3.441c-3.6-10.052,1.565-20.334,11.617-23.931l30.045-10.749,7.551,21.1Z" transform="translate(-609.958 -371.605)"/><path class="a" d="M774.493,482.939c-5.255.293-9.58.254-13.107-1.659l44.577-15.948,2.012,5.628Z" transform="translate(-607.294 -362.66)"/><path class="a" d="M753.736,486.548c-1.872.67-3.723.268-4.392-1.6s.508-3.356,2.378-4.026l6.768-2.421c1.71.975,4.337,3.21,6.8,3.917Z" transform="translate(-612.605 -356.943)"/><rect class="b" width="7.471" height="2.989" transform="translate(212.416 61.252) rotate(-19.685)"/><path class="b" d="M776.977,478.111,762.459,483.3c-2.458-.707-5.086-2.942-6.8-3.917l8.206-2.936C767.4,478.365,771.723,478.4,776.977,478.111Z" transform="translate(-609.779 -357.832)"/><path class="b" d="M857.883,418.122l45.834-16.4c-.4.142-.078,1.728.3,2.8a7.051,7.051,0,0,0,3.368,3.826l-37.974,13.586C866.039,419.965,861.948,418.256,857.883,418.122Z" transform="translate(-565.397 -390.278)"/><path class="b" d="M877.6,418.588l-62.766,22.455-1.007-2.814L865.3,419.813A29.806,29.806,0,0,1,877.6,418.588Z" transform="translate(-584.526 -383.017)"/><path class="b" d="M796.988,438.908,798,441.722l-5.628,2.014-1.333-3.726c1.384-.568,3.758-.316,4.66-.638Z" transform="translate(-594.421 -374.133)"/><path class="b" d="M799.369,442.585l1.1,3.078-30.045,10.749c-10.052,3.6-15.212,13.879-11.617,23.931a20.1,20.1,0,0,0,1.649,3.441l-7.34,2.626a29.559,29.559,0,0,1-1.809-4.029,26.958,26.958,0,0,1,1.225-21.282c21.2-8.37,39-15.33,45.274-17.818A11.436,11.436,0,0,0,799.369,442.585Z" transform="translate(-612.373 -372.537)"/><path class="c" d="M665.353,469.7c7.6,5.766,16.849,12.631,40.622,7.063s114.085-35.305,129.9-40.376a14.029,14.029,0,0,1,1.639-.476l3.425,9.575a13.885,13.885,0,0,1-1.57.67c-6.279,2.485-24.418,9.542-45.626,17.913-30.974,12.231-67.573,26.94-80.578,33.337-21.909,10.776-24.621,21.923-26.836,31.2-1.612,6.752-3.836,14.006-8.531,7.458a134.37,134.37,0,0,1-17.115-31.486,134.054,134.054,0,0,1-6.709-35.211C653.448,461.325,659.821,465.5,665.353,469.7Z" transform="translate(-653.944 -375.436)"/><rect class="c" width="7.471" height="7.471" transform="translate(209.899 54.217) rotate(-19.685)"/><path class="d" d="M797.885,441.081l-1.294.463c-.9.323-3.276.07-4.66.638l-2.963-8.279c.021.057,4.021,1,4.826.707l1.573-.564Z" transform="translate(-595.318 -376.306)"/><rect class="c" width="7.471" height="8.966" transform="translate(220.973 85.17) rotate(-19.685)"/><rect class="c" width="5.977" height="8.966" transform="translate(210.53 104.776) rotate(-19.685)"/><rect class="c" width="5.977" height="8.966" transform="translate(205.497 90.707) rotate(-19.685)"/><rect class="c" width="7.471" height="8.966" transform="translate(226.006 99.239) rotate(-19.685)"/><path class="c" d="M828.178,478.7l29.1-10.412c1.869-.67,3.048-2.156,2.379-4.026s-2.524-2.272-4.393-1.6l-29.1,10.412-3.02-8.442,28.579-10.224c5.9-2.11,11.043,1.2,13.153,7.1l.027.075c.495,1.383,2.26,3.171,2.286,4.749l12.969-4.64c10.773-3.855,15.116-17.242,11.263-28.014l-.186-.522a18.122,18.122,0,0,0-13.121-11.981c-3.937-1.008-7.816-.392-12.05,1.123l-51.477,18.416-2.516-7.035,51.476-18.416c4.763-1.7,9.367-3.079,14.078-2.335a25.311,25.311,0,0,1,10.983,4.422c4.7,3.2,7.611,7.558,9.662,13.289l.186.522c5.292,14.794-.987,32.272-15.782,37.565l-22.9,8.192L831.2,487.143Z" transform="translate(-585.288 -385.503)"/><path class="c" d="M811.122,459.446l3.02,8.442-44.577,15.948-8.206,2.936-6.768,2.421c-1.87.67-3.046,2.157-2.378,4.026s2.52,2.272,4.391,1.6l11.549-4.132,14.518-5.193,33.482-11.98,3.02,8.442L767.52,500.438l-8.5,3.039c-5.9,2.113-13.772-1.919-15.883-7.818l-.026-.073c-2.111-5.9,1.955-12.509,7.856-14.62l5.249-1.877,7.34-2.626Z" transform="translate(-615.474 -365.216)"/><path class="c" d="M806.372,420.816l-4.221,1.51-1.51-4.221,9.849-3.523L812,418.8l-2.814,1.007,1.51,4.221-2.814,1.007Z" transform="translate(-590.251 -384.695)"/><path class="b" d="M821.889,477.9l-2.422-6.771-2.421-6.766-7.669-21.435-1.212-3.385-2.825-7.9-1.927-5.387a2.639,2.639,0,0,1,1.6-3.373l2.625-.939,2.256-.807h0a2.637,2.637,0,0,1,3.372,1.6l1.929,5.388,2.824,7.9,1.212,3.385,7.669,21.435,2.421,6.768,2.422,6.769,2.825,7.9,4.826,13.491a4.974,4.974,0,0,1-3.008,6.358h0a5.487,5.487,0,0,1-7.015-3.317l-4.653-13.008Z" transform="translate(-589.114 -381.917)"/><path class="c" d="M796.007,424.524l-5.628,2.013-1.51-4.221,9.849-3.523,1.51,4.221-1.407.5,1.51,4.221-2.814,1.007Z" transform="translate(-595.362 -382.866)"/><path class="b" d="M809.9,482.329l-2.422-6.769-2.421-6.768-7.669-21.435-1.212-3.385-2.825-7.9-1.054-2.947a5.23,5.23,0,0,1,3.162-6.686l1.275-.456,3.385-1.21.265-.1,2.815,7.872,2.825,7.9,1.212,3.385,7.669,21.435,2.421,6.766,2.422,6.769,2.825,7.9,4.74,13.249a5.231,5.231,0,0,1-3.162,6.686h0a5.229,5.229,0,0,1-6.686-3.162l-4.74-13.249Z" transform="translate(-594.007 -380.311)"/><path class="c" d="M783.809,428.888l-4.221,1.51-1.51-4.221,9.849-3.523,1.51,4.221-2.814,1.007,1.51,4.221-2.814,1.007Z" transform="translate(-600.047 -381.19)"/><path class="b" d="M799.108,486.19l-2.422-6.769-2.421-6.768L786.6,451.217l-.908-2.534-3.425-9.575-.759-2.121a5.231,5.231,0,0,1,3.162-6.686l.957-.341,3.385-1.21.584-.209,2.751,7.691,2.963,8.28,1.139,3.182,7.669,21.435,2.421,6.768,2.422,6.769,2.824,7.9,4.741,13.249a5.231,5.231,0,0,1-3.164,6.686h0a5.229,5.229,0,0,1-6.685-3.162l-4.741-13.249Z" transform="translate(-598.692 -378.635)"/><path class="c" d="M889.5,403.784a8.1,8.1,0,0,1,7.958-7.617,2.763,2.763,0,0,1,1.78-2.23c1.87-.67,3.474.466,4.143,2.336l4.036,11.283c.668,1.869.149,3.763-1.721,4.433a3.27,3.27,0,0,1-3.62-1.025,7.181,7.181,0,0,1-1.856,1,7.976,7.976,0,0,1-6.8-.671,8.049,8.049,0,0,1-3.924-7.505Z" transform="translate(-551.68 -393.743)"/></g><g transform="translate(534.023 295.704)"><path class="b" d="M659.339,297.449c-5.889-3.624-8.972-1.595-15.039,5.988-5.943,7.431-44.2,57.271-53.815,70.073l1.344,1.008.462-.617c-.095.128-1.1,1.47-1.1,1.47l-1.345-1.005c-8.933,11.975-45.891,62.5-51.342,70.295-5.566,7.957-6.039,10.743-.9,15.37s31.84,24.817,42.176,31.38,14.3,10.122,24.8-3.912l48.768-65.159c1.667-2.224,2.626-3.508,2.626-3.508,8.956-11.965,38.33-51.213,48.769-65.158,10.5-14.036,5.887-16.682-3.323-24.751S665.229,301.075,659.339,297.449Z" transform="translate(-534.023 -295.704)"/><path class="b" d="M584.672,363.316c-5.867,7.868-21.838,29.647-35.05,47.752l31.661,23.7,34.935-46.674,36.052-48.168-31.662-23.7C606.959,334.007,590.565,355.471,584.672,363.316Z" transform="translate(-527.25 -286.792)"/><path class="b" d="M583.577,362.452c-5.431,7.283-20.241,27.509-32.17,43.907l31.661,23.7,32.392-43.282L648.3,342.905l-31.664-23.7C604.265,335.278,589.034,355.186,583.577,362.452Z" transform="translate(-526.475 -285.499)"/><g transform="translate(17.932 18.058)"><g transform="translate(0 123.3)"><path class="e" d="M564.548,396.516a11.269,11.269,0,1,1-15.773,2.269A11.268,11.268,0,0,1,564.548,396.516Z" transform="translate(-546.526 -394.267)"/><path class="f" d="M556.927,400.723a2.817,2.817,0,1,1-3.945.566A2.815,2.815,0,0,1,556.927,400.723Z" transform="translate(-543.967 -391.709)"/></g><g transform="translate(92.284)"><path class="e" d="M628.9,310.542a11.27,11.27,0,1,1-15.776,2.269A11.27,11.27,0,0,1,628.9,310.542Z" transform="translate(-610.872 -308.295)"/><path class="f" d="M621.271,314.751a2.817,2.817,0,1,1-3.944.567A2.814,2.814,0,0,1,621.271,314.751Z" transform="translate(-608.314 -305.736)"/></g></g><g transform="translate(43.174 35.608)"><rect class="f" width="5.337" height="29.882" transform="matrix(0.599, -0.801, 0.801, 0.599, 0, 137.564)"/><rect class="f" width="5.336" height="29.883" transform="translate(4.476 131.584) rotate(-53.191)"/><rect class="f" width="6.403" height="29.883" transform="translate(8.951 125.604) rotate(-53.195)"/><rect class="f" width="5.337" height="29.883" transform="translate(13.43 119.618) rotate(-53.172)"/><rect class="f" width="5.336" height="29.883" transform="matrix(0.599, -0.8, 0.8, 0.599, 17.907, 113.636)"/><rect class="f" width="6.404" height="29.883" transform="matrix(0.599, -0.801, 0.801, 0.599, 22.382, 107.659)"/><rect class="f" width="5.336" height="29.884" transform="translate(27.497 100.825) rotate(-53.193)"/><rect class="f" width="5.336" height="29.883" transform="translate(31.336 95.695) rotate(-53.178)"/><rect class="f" width="5.336" height="29.883" transform="matrix(0.6, -0.8, 0.8, 0.6, 35.814, 89.71)"/><rect class="f" width="5.336" height="29.883" transform="matrix(0.599, -0.801, 0.801, 0.599, 40.928, 82.88)"/><rect class="f" width="5.336" height="29.883" transform="translate(45.404 76.9) rotate(-53.189)"/><rect class="f" width="5.337" height="29.883" transform="matrix(0.599, -0.801, 0.801, 0.599, 49.242, 71.771)"/><rect class="f" width="6.403" height="29.883" transform="translate(53.717 65.794) rotate(-53.196)"/><rect class="f" width="4.269" height="29.884" transform="translate(58.834 58.953) rotate(-53.175)"/><rect class="f" width="5.335" height="29.883" transform="translate(63.311 52.975) rotate(-53.186)"/><rect class="f" width="6.403" height="29.882" transform="matrix(0.599, -0.801, 0.801, 0.599, 67.147, 47.851)"/><rect class="f" width="5.337" height="29.884" transform="matrix(0.599, -0.801, 0.801, 0.599, 72.264, 41.011)"/><rect class="f" width="6.404" height="29.883" transform="matrix(0.599, -0.801, 0.801, 0.599, 76.099, 35.888)"/><rect class="f" width="5.335" height="29.883" transform="translate(81.214 29.055) rotate(-53.204)"/><rect class="f" width="5.336" height="29.883" transform="matrix(0.599, -0.801, 0.801, 0.599, 85.694, 23.068)"/><rect class="f" width="5.336" height="29.883" transform="matrix(0.599, -0.801, 0.801, 0.599, 90.17, 17.089)"/><rect class="f" width="5.337" height="29.883" transform="translate(94.649 11.103) rotate(-53.161)"/><rect class="f" width="6.402" height="29.883" transform="matrix(0.599, -0.801, 0.801, 0.599, 99.124, 5.125)"/></g><rect class="g" width="4.269" height="19.211" transform="translate(45.731 169.756) rotate(-53.191)"/><rect class="g" width="3.201" height="19.211" transform="translate(55.325 156.937) rotate(-53.182)"/><rect class="g" width="3.201" height="19.212" transform="matrix(0.599, -0.801, 0.801, 0.599, 59.801, 150.956)"/><rect class="g" width="4.27" height="19.21" transform="translate(63.638 145.829) rotate(-53.177)"/><rect class="g" width="3.202" height="19.21" transform="translate(73.231 133.014) rotate(-53.182)"/><rect class="g" width="4.269" height="19.211" transform="matrix(0.599, -0.801, 0.801, 0.599, 77.067, 127.888)"/><rect class="g" width="3.202" height="19.21" transform="translate(86.66 115.072) rotate(-53.188)"/><rect class="g" width="3.203" height="19.209" transform="translate(91.136 109.093) rotate(-53.194)"/><rect class="g" width="3.201" height="19.211" transform="translate(95.612 103.11) rotate(-53.199)"/><rect class="g" width="4.269" height="19.209" transform="matrix(0.599, -0.801, 0.801, 0.599, 103.927, 92.002)"/><rect class="g" width="3.202" height="19.212" transform="translate(109.044 85.163) rotate(-53.168)"/><rect class="g" width="3.201" height="19.212" transform="translate(117.992 73.209) rotate(-53.223)"/><rect class="g" width="3.203" height="19.21" transform="matrix(0.599, -0.801, 0.801, 0.599, 122.47, 67.227)"/><rect class="g" width="4.269" height="19.21" transform="translate(126.95 61.24) rotate(-53.17)"/><rect class="g" width="5.336" height="19.21" transform="translate(135.263 50.133) rotate(-53.178)"/><rect class="g" width="4.269" height="19.21" transform="matrix(0.599, -0.801, 0.801, 0.599, 140.378, 43.3)"/><path class="e" d="M627.015,328.29c3.462,2.592-8.01,23.763-25.622,47.294s-34.69,40.5-38.151,37.915,8.01-23.763,25.62-47.294S623.556,325.7,627.015,328.29Z" transform="translate(-521.603 -281.669)"/><path class="f" d="M597.68,355.916l-11.818,15.789-8.232-1.469,16.32-21.8Z" transform="translate(-515.09 -272.81)"/></g><path class="h" d="M741.772,330.359c-5.087,0-9.217,3.76-9.306,8.183h-.086v0c0,.006.042.013.042.02l.159,40.417-28.008,3.881-.152-34.9a9.834,9.834,0,0,0,7.009,2.821c5.142,0,9.312-3.7,9.312-8.259s-4.168-8.186-9.311-8.186c-5.086,0-9.216,3.759-9.306,8.182h-.086v0c0,.007.042.014.042.02l.195,45.085h0l0,.793,32.7-4.327-.055-5.364-.156-34.75a9.83,9.83,0,0,0,7.006,2.822c5.142,0,9.311-3.661,9.311-8.224S746.913,330.359,741.772,330.359Z" transform="translate(72.949 15.047)"/><path class="h" d="M844.776,348.632l.012-.011.013-.014,29.943-33.8h0l.51-.575L847.958,295.7l-3.524,4.031L821.4,325.79a9.819,9.819,0,0,0-3.35-6.768c-3.836-3.423-9.41-3.439-12.447-.034s-2.316,8.857,1.52,12.281c3.792,3.383,9.1,3.638,12.407.073l.009.009-.052.057.013-.019.017-.023,23.429-26.445,23.628,15.61-19.889,22.494a9.83,9.83,0,0,0-3.347-6.771c-3.838-3.423-9.41-3.439-12.447-.036s-2.458,9.018,1.378,12.441c3.792,3.385,9.248,3.469,12.264.234l.009.007Zm-.057-45.715,1.592-1.8,23.49,15.757-1.457,1.648Z" transform="translate(117.095 0)"/></g></svg>