<svg xmlns="http://www.w3.org/2000/svg" xmlns:xlink="http://www.w3.org/1999/xlink" width="588" height="352.653" viewBox="0 0 588 352.653"><defs><style>.a,.w{fill:none;}.b{fill:#edf9fa;}.c{fill:#414143;}.d{fill:#1970a9;}.e{fill:#2a2a2b;}.f{fill:#3c4146;}.g,.v{fill:#7fd1d8;}.h{fill:#f7cf43;}.i{fill:#3e6569;}.j{clip-path:url(#a);}.k{fill:#fcb95d;}.aa,.ab,.k,.l,.m,.q,.r,.t,.u,.v,.w,.x{fill-rule:evenodd;}.l{fill:#a1dd6f;}.m,.p{opacity:0.15;}.n{opacity:0.5;}.o{fill:#243330;}.q,.s{fill:#d1d3d4;}.r{fill:#36a5ad;}.t{fill:#c98121;}.u{fill:#f7805c;}.w{stroke:#3e6569;stroke-miterlimit:10;stroke-width:2.256px;}.x,.y{opacity:0.2;}.z{fill:#bcbec0;}.aa{fill:#243e41;}.ab{fill:#171f1c;}</style><clipPath id="a"><rect class="a" width="134.07" height="86.813"/></clipPath></defs><g transform="translate(-492.413 -237.19)"><path class="b" d="M677.162,299.2c73.034-15.229,82.472-35.475,136.995-50.014,66.424-17.713,195.327-25.773,245.723,48.928,32.315,47.9,21.344,113.508,2.174,154.391C1031.6,517.466,970.346,541.535,955.5,547.1c-72.988,27.379-96.3-14.029-194.621,4.35-77.33,14.454-91.278,45.372-146.781,36.968-8.037-1.218-71-11.743-103.29-65.237-42.122-69.78-6.185-169.837,50.014-204.406C591.494,299.909,606.393,313.963,677.162,299.2Z" transform="translate(0 0)"/><g transform="translate(638.62 318.723)"><path class="c" d="M602.042,307.9c.42,45.191,6.183,62.6-6.964,107.435-2.507,8.552,2.062,13.128,6.035,14.458,47.444,15.876,229.594,13.561,280.307,2.482,4.224-.924,9.666-5.833,8.167-13.816-7.945-42.337-6.877-63.7,1.754-105.912,1.661-8.123-4.761-12.612-9.619-13.643-57.63-12.223-187.363,2.984-268.242-1.374C606.726,297.167,601.962,299.238,602.042,307.9Z" transform="translate(-594.361 -294.042)"/><path class="d" d="M612.343,309.751c3.109,46.484,9.272,57.074-7.039,102.242-1.8,4.968.658,6.617,3.128,7.206,53.06,12.648,201.785,8.179,258.1.568,2.622-.354,5.38-2.078,4.179-6.739-10.9-42.335-9.246-60.557-1.364-103.685.867-4.743,2.479-6.376-5.717-6.312-94.437.747-149.2,3.3-246.182,1.159C609.045,304.006,612,304.667,612.343,309.751Z" transform="translate(-589.878 -290.139)"/></g><g transform="translate(702.509 461.819)"><path class="e" d="M672.094,397.59,684.834,422l16.433-1.149-13.8-26.151Z" transform="translate(-624.504 -393.44)"/><path class="e" d="M716.409,394.521l-13.487,25.616,16.1,2,13.833-26.318Z" transform="translate(-611.121 -393.518)"/><path class="c" d="M778.516,418.861c.039,6.5-27.26,11.939-60.969,12.141s-61.078-4.9-61.117-11.4,27.258-11.945,60.973-12.147S778.476,412.355,778.516,418.861Z" transform="translate(-631.304 -387.907)"/><path class="f" d="M638.91,394.76s100.132,15.137,159.5-.612C790.011,393.15,638.91,394.76,638.91,394.76Z" transform="translate(-638.91 -393.821)"/><path class="e" d="M778.516,415.4c.039,6.5-27.26,11.939-60.969,12.141s-61.078-4.9-61.117-11.4c0,0,28.41,8.5,64.861,5.914C729.03,422.01,753.846,422.622,778.516,415.4Z" transform="translate(-631.304 -384.451)"/></g><circle class="e" cx="3.357" cy="3.357" r="3.357" transform="translate(785.32 458.463)"/><path class="g" d="M884.278,335.906a26.746,26.746,0,0,1,2.078-20.97l.076-.092-2.673-2.22-34.01,41.323a14.562,14.562,0,0,0-5.292-9.34c-5.669-4.713-13.448-4.7-17.376.027s-2.44,12.283,3.23,16.994c5.619,4.67,13.076,4.975,17.346,0l-.062-.05-.062.073.012-.013.014-.017,22.407-27.1c-.4,3.162-.085,7.549,1.5,14.146,3.162,13.2-8.219,14.729-8.219,14.729,6.23,1.543,12.619-2.67,12.477-10.971C881.986,352.1,887.265,345.992,884.278,335.906Zm-9.437,11.246a27.323,27.323,0,0,1,1.853-20.72l2.7-3.273c-.417,3.169-.132,7.565,1.466,14.232,2.072,8.649-2.105,12.285-5.232,13.765A20.771,20.771,0,0,0,874.841,347.152Z" transform="translate(144.334 32.748)"/><path class="h" d="M576.707,354.736c-3.516,2.974-4.305,7.835-1.937,10.762l-.059.05-.006-.009.009.011.04-.011,22.329,26.171-17.232,18.906-19.292-22.59a9.213,9.213,0,0,0,6.4-2.266c3.557-3.009,4.407-7.85,1.9-10.815s-7.383-2.883-10.938.126c-3.518,2.974-4.305,7.835-1.938,10.76l-.059.05-.006-.007.008.01.04-.01,24.921,29.183h0l.437.515,20.231-21.939-2.989-3.455-19.212-22.49a9.2,9.2,0,0,0,6.4-2.265c3.555-3.009,4.424-7.826,1.916-10.79S580.263,351.727,576.707,354.736Z" transform="translate(27.007 50.035)"/><g transform="translate(720.659 353.095)"><g transform="translate(67.035)"><path class="i" d="M724.344,347.047,702.359,323.3a3.28,3.28,0,0,1-2.977-1.2c-1.162-1.253-1.42-2.9-.578-3.683s2.467-.4,3.628.859a3.281,3.281,0,0,1,.971,3.06l21.985,23.748Z" transform="translate(-698.309 -318.009)"/><path class="h" d="M702.359,323.3l.011.013c.062-.039,1.033-.98,1.033-.98a3.277,3.277,0,0,0-.971-3.06c-1.162-1.255-2.785-1.639-3.628-.859s-.584,2.429.578,3.683A3.28,3.28,0,0,0,702.359,323.3Z" transform="translate(-698.309 -318.009)"/></g><g transform="translate(33.211 12.856)"><path class="i" d="M675.768,356.012l21.987-23.748a3.282,3.282,0,0,0,2.977-1.2c1.16-1.255,1.418-2.9.576-3.684s-2.467-.394-3.628.859a3.281,3.281,0,0,0-.969,3.062l-21.987,23.748Z" transform="translate(-674.724 -326.973)"/><path class="h" d="M691.129,332.265l-.013.013c-.062-.039-1.031-.979-1.031-.979a3.281,3.281,0,0,1,.969-3.062c1.162-1.255,2.785-1.639,3.628-.859s.584,2.429-.577,3.684A3.282,3.282,0,0,1,691.129,332.265Z" transform="translate(-668.099 -326.973)"/></g><g transform="translate(0 15.225)"><g class="j"><g transform="translate(105.204 2.586)"><path class="k" d="M729.085,345.988c-.057-.387-1.928-4.8-1.626-6.865s1-5.093.9-6.223c-.119-1.329.591-1.483.9.093a16.67,16.67,0,0,1,.308,3.486c-.043.2.082-1.16.085-2.676,0-1.611-.106-3.386.263-3.375.714.022,1.058,4.748.959,5.541a15.62,15.62,0,0,0,.228-2.1c.037-.965-.1-2.114.2-2.259.475-.228,1.023,2.368.851,4.357.07.053.361-.532.364-2.923,0-.239.283-.782.525.065.509,1.783.892,2.533.376,4.806-.5,2.214-1.721,4.469-1.687,6.421Z" transform="translate(-723.838 -330.429)"/><path class="k" d="M738.383,374.236c-.541-8.319-3.892-28.261-5.154-32.613a9.153,9.153,0,0,1-3.673-1.309l.047.324c-.108,3.961-1.936,20.97-1.005,27.432,1.684,1.721-3.931.846-3.607.964.493.181,2.246,3.958-.067,5.99C729.221,377.22,738.867,381.6,738.383,374.236Z" transform="translate(-724.924 -326.138)"/><path class="k" d="M728.077,339.026s-1.85-2.272-1.716-4.272a1.8,1.8,0,0,0-.354-1.476c-.194-.731,1.182.271,1.317,1.332.11.862,1.724,1.728,1.965,2.289s.533,2.137.2,2.428S728.077,339.026,728.077,339.026Z" transform="translate(-724.462 -329.301)"/><path class="k" d="M731.534,340.809l.937,3.747-4.168-2.414s.247-.2-.324-2.342,2.032-.866,2.032-.866Z" transform="translate(-723.633 -326.9)"/></g><g transform="translate(38.539 134.098)"><path class="k" d="M692.434,467.387a51.292,51.292,0,0,0,2.082,7.181c.861,1.708-3.571,1.8-3.753,1.9a36.754,36.754,0,0,1-3.878-1.616s2.055-.978.327-7.717S692.434,467.387,692.434,467.387Z" transform="translate(-674.773 -403.866)"/><path class="l" d="M700.832,427.621c-.133,2.164-1.477,5.144-2,9.99a39.122,39.122,0,0,0,.032,8.322c.921,8.78-1.735,11.847-1.951,14.677a4.243,4.243,0,0,0,.1,1.325c1.871,7.84.383,23.986.383,23.986s-.8.192-1.958.4c-2.751.5-7.5,1.119-8.136-.495-.909-2.29-3.953-7.941-4.446-11.235a47.618,47.618,0,0,1,.32-10.762c.255-1.47-.4-7.888-1.493-9.969-1.251-2.375-1.212-7.724-.744-13.018A100.99,100.99,0,0,1,682.98,427.4s9.272-5.738,11.518-5.237S701.03,424.427,700.832,427.621Z" transform="translate(-677.486 -422.13)"/><path class="m" d="M700.741,427.621c-.133,2.164-1.477,5.144-2,9.99-2.494.05-5.869-.876-9.2-1.526-2.789-.541-6.3,2.386-8.7,4.761a100.975,100.975,0,0,1,2.045-13.448s9.271-5.738,11.517-5.237S700.939,424.427,700.741,427.621Z" transform="translate(-677.395 -422.13)"/><g class="n" transform="translate(4.111 20.493)"><g transform="translate(1.563)"><path class="o" d="M688.419,436.939l-.172.277-1.643,2.637-2.752,4.414c.113.123.222.251.327.386.069.086.135.175.2.263l2.289-4.264,1.943-3.637Z" transform="translate(-681.764 -436.195)"/><path class="o" d="M687.753,436.684l-.621,1-1.312,2.105-2.46,3.945a5.126,5.126,0,0,1,.5.437l2.011-3.745,1.741-3.257c.082-.156.161-.3.234-.442Z" transform="translate(-681.978 -436.305)"/><path class="o" d="M683.255,443.645c.717-1.334,3.537-6.58,3.858-7.221l-.007,0-4.155,6.66.068.422C683.1,443.548,683.178,443.595,683.255,443.645Z" transform="translate(-682.155 -436.42)"/><path class="o" d="M686.09,436.605c-.062.161-3.237,6.061-3.237,6.061l-.111-.7Z" transform="translate(-682.245 -436.34)"/><path class="o" d="M685.2,436.763c-.047.128-2.583,4.84-2.583,4.84l-.09-.556Z" transform="translate(-682.34 -436.271)"/><path class="o" d="M684.531,436.824c-.039.1-2.064,3.866-2.064,3.866l-.072-.445Z" transform="translate(-682.396 -436.245)"/></g><g transform="translate(0 0.952)"><path class="o" d="M687.955,443.093l-6.058-5.126q-.29.258-.591.506c1.735,1.317,4.288,3.251,6.494,4.919C687.851,443.292,687.9,443.192,687.955,443.093Z" transform="translate(-681.306 -436.701)"/><path class="o" d="M688.156,442.434l-5.817-4.923c-.154.156-.31.308-.47.456,1.458,1.106,4.086,3.1,6.178,4.678Z" transform="translate(-681.062 -436.899)"/><path class="o" d="M688.365,441.751l-5.351-4.528-.452-.042c-.066.075-.132.148-.2.219,1.005.763,3.92,2.973,5.93,4.492Z" transform="translate(-680.847 -437.041)"/><path class="o" d="M688.411,441.03l-4.512-3.818-.806-.075s3.317,2.518,5.27,3.991Z" transform="translate(-680.53 -437.061)"/><path class="o" d="M688.369,440.375l-3.819-3.231-.645-.06s2.917,2.214,4.434,3.357Z" transform="translate(-680.178 -437.084)"/><path class="o" d="M688.345,439.865l-3.2-2.711-.516-.049s2.531,1.922,3.693,2.8Z" transform="translate(-679.865 -437.074)"/></g></g><path class="p" d="M693.1,450.287c1.871,7.84.383,23.986.383,23.986s-.8.192-1.958.4c-.007-.168-1.985.145-1.9-.026,3.607-7.063,2.557-18.7,2.748-21.75a12.584,12.584,0,0,1,.627-3.938A4.241,4.241,0,0,0,693.1,450.287Z" transform="translate(-673.581 -410.482)"/><g transform="translate(0 70.391)"><path class="q" d="M679.939,480.34a67.549,67.549,0,0,0,9.138-1.579h0c.095-.021.184-.04.274-.059a15.426,15.426,0,0,1,3.154-.475c.043.009.1.013.158.019.153.014.366.023.622.024,2.318.013,8.219-.513,8.027-2.282a4.36,4.36,0,0,0-.247-.994c-.024-.069-.05-.139-.079-.208l-.007-.011c-.036-.092-.075-.186-.118-.281l0,0c-.789-1.737-2.329-3.466-2.581-3.26-3.385,2.768-7.41.7-8.249.212-.1-.06-.159-.1-.159-.1s-.139.032-.4.1l-.544.148-.383.109c-.047.014-.095.026-.14.043-.113.031-.232.066-.359.1-.062.019-.122.039-.186.06h0c-.344.108-.726.234-1.147.38-.264.09-.538.188-.828.3-.436.158-.9.338-1.4.535-.046.022-.093.046-.139.069-.244.118-.482.244-.716.371a16,16,0,0,0-2.193,1.45l0,0C678.251,477.52,677.372,480.381,679.939,480.34Z" transform="translate(-678.439 -471.213)"/><path class="r" d="M680.524,475.01a4.931,4.931,0,0,1,4.03,3.032s1.556-.534,3.327-1.071l.467-.136c.284-.083.572-.168.859-.248.247-.069.49-.135.728-.2a8.407,8.407,0,0,1,2.886-.449c1.1.331,7.641.587,7.34-.945a.768.768,0,0,0-.079-.208l-.007-.011a1.843,1.843,0,0,1-.117-.281l0,0c-.789-1.737-2.329-3.466-2.581-3.26-3.385,2.768-7.41.7-8.249.212-.1-.06-.159-.1-.159-.1s-.139.032-.4.1l-.544.148-.383.109c-.047.014-.095.026-.141.043-.113.031-.232.066-.359.1-.062.019-.122.039-.186.06h0c-.344.108-.726.234-1.147.38-.264.09-.538.188-.828.3-.436.158-.9.338-1.4.535-.046.022-.093.046-.139.069-.244.118-.482.244-.716.371a16.012,16.012,0,0,0-2.193,1.45Z" transform="translate(-677.534 -471.213)"/><g transform="translate(9.603 0.377)"><path class="s" d="M685.135,471.733c.079.055.191.133.329.237a7.171,7.171,0,0,1,1.341,1.271,3.428,3.428,0,0,1,.346.522c.037.07.07.143.1.217l.671-.274a3.679,3.679,0,0,0-.5-.85v0a5.668,5.668,0,0,0-.419-.488,8.2,8.2,0,0,0-.987-.888l-.383.109c-.047.014-.095.026-.14.043C685.38,471.66,685.261,471.694,685.135,471.733Z" transform="translate(-685.135 -471.476)"/></g><g transform="translate(7.438 1.074)"><path class="s" d="M683.626,472.257a6.043,6.043,0,0,1,2.039,2.193l.674-.274a6.057,6.057,0,0,0-1.886-2.214C684.19,472.052,683.916,472.15,683.626,472.257Z" transform="translate(-683.626 -471.962)"/></g><g transform="translate(5.185 1.973)"><path class="s" d="M682.055,472.96a5.71,5.71,0,0,1,1.85,2.058l.673-.274a5.933,5.933,0,0,0-1.807-2.156C682.527,472.707,682.289,472.833,682.055,472.96Z" transform="translate(-682.055 -472.589)"/></g></g></g><path class="t" d="M688.993,373.485s9.745-.139,10.58-3.9.975-5.808,0-7.985,5.569,2.418,5.569,2.418a11.533,11.533,0,0,0,0,5.15c.7,2.227,2.227,2.273,4.594,2.041s0,7.287,0,7.287-8.477.919-9.111,1.225-9.4.112-9.821,0S688.993,373.485,688.993,373.485Z" transform="translate(-635.318 -314.563)"/><path class="u" d="M686.946,411.66a6.689,6.689,0,0,1,5.3,1.15c3.019,1.916,6.106,4.909,8.391,4.449s.753-3.065-.568-3.635c-1.19-.515-3.436-1.185-2.95-2.038s1.546-.757,2.615,0,1.919.027,1.553-.4a15.023,15.023,0,0,0-3.653-2.074c-.473-.095-2.62.552-3.747.28s-5.609-1.76-5.609-1.76Z" transform="translate(-636.207 -294.325)"/><path class="v" d="M714.365,400.932l-.24-.328A3.613,3.613,0,0,1,714.365,400.932Z" transform="translate(-624.408 -297.378)"/><path class="v" d="M729.681,406.742l1.618,8.133,1.8,10.472,8.132,25.694a22.5,22.5,0,0,1-5.271,3.449c-.377.184-.776.366-1.19.541a24.06,24.06,0,0,1-8.712,1.922c-1.088,0-12.552.138-23.386.271h-.01c-.093,0-.186,0-.278,0-10.05.123-19.474.245-19.474.245l1.735-15.387.936-8.308.643-5.672,2.016-17.881.149-1.322-21.321-26.09s18.459-19.887,33.813-14.941a39.834,39.834,0,0,1,4.387,1.7c.754.344,3.643,6.492,8.315,4.328.1-.046.2-.092.3-.142a12.54,12.54,0,0,0,5.94-5.368l0-.007c.024-.029.046-.057.067-.086a7.733,7.733,0,0,1,3.324-1.833,27.484,27.484,0,0,1,11.119-1.3,10.926,10.926,0,0,1,5.034,1.688c3.767,2.646,7.258,7.327,9.391,13.723.13.39.257.784.376,1.186.06.186.12.374.184.561.539,1.668,9.144,3.353,7.971,4.727C753.548,391.432,729.681,406.742,729.681,406.742Z" transform="translate(-644.837 -312.818)"/><path class="w" d="M702.126,377.433,707.59,388.5l12.218,1.775-8.841,8.618,2.087,12.169-10.928-5.745L691.2,411.066l2.087-12.169-8.841-8.618,12.218-1.775Z" transform="translate(-637.293 -307.437)"/><path class="x" d="M684.276,417.139c-1.51,1.887-3.832,9.147-4.953,12.845l3.6-31.858.932-4.142c5.81-5.213,3.33,10,3.928,14.611S686.327,414.575,684.276,417.139Z" transform="translate(-639.516 -300.717)"/><path class="x" d="M704.258,372.905c-1.383,1.791-4.616,3.634-6.474,2.419-2.739-1.791-7.64-1.794-8.494-5.98-.338-1.655.651-2.236,1.971-2.33a40.4,40.4,0,0,1,4.387,1.7c.756.344,3.643,6.492,8.315,4.328C704.062,373,704.161,372.954,704.258,372.905Z" transform="translate(-635.218 -311.96)"/><path class="u" d="M714.365,400.932l-.24-.328A3.613,3.613,0,0,1,714.365,400.932Z" transform="translate(-624.408 -297.378)"/><g transform="translate(8.842 2.559)"><path class="k" d="M672.75,375.83c-.337-.217-10.395-7.6-11.807-11.166s-2.131-20.918-.651-25.887c0,0,2.708,4.661,2.957,4.946s4.582,17.451,5.781,18.866a93.2,93.2,0,0,1,9.642,8.473C683.107,375.776,672.75,375.83,672.75,375.83Z" transform="translate(-656.976 -326.777)"/><path class="k" d="M664.075,345.51c-.021-.39.9-5.024.214-7s-1.927-4.82-2.048-5.943c-.143-1.322-.842-1.354-.836.242a17.283,17.283,0,0,0,.379,3.466c.08.192-.3-1.123-.594-2.606-.313-1.578-.551-3.334-.9-3.261-.671.141-.086,4.829.161,5.589a16.125,16.125,0,0,1-.62-2.018c-.221-.938-.313-2.087-.625-2.178-.491-.143-.509,2.49.036,4.409-.056.065-.443-.459-.9-2.8-.046-.235-.417-.72-.483.151-.138,1.831-.354,2.63.569,4.768.9,2.085,2.508,4.107,2.6,5.863Z" transform="translate(-657.732 -330.409)"/><path class="k" d="M662.933,338.642s1.311-2.534.8-4.472a1.827,1.827,0,0,1,.05-1.5c.042-.749-1.063.463-.987,1.526.062.862-1.294,1.98-1.412,2.571s-.093,2.181.277,2.411S662.933,338.642,662.933,338.642Z" transform="translate(-656.174 -329.53)"/><path class="k" d="M662.964,341.644a13.9,13.9,0,0,0,.347,3.9c.512,2.916-1.963-.635-1.963-.635l-1.056-5.593Z" transform="translate(-656.62 -326.544)"/></g><path class="y" d="M695.545,427.667l-3.851,5.413,12.587-.165,1.089-12.23Z" transform="translate(-634.146 -288.66)"/><g transform="translate(62.469 129.049)"><path class="k" d="M721.444,458.346a51.292,51.292,0,0,1,2.115,7.172c.2,1.9,3.98-.407,4.185-.423a37.086,37.086,0,0,0,2.4-3.452s-2.259.284-4.434-6.324S721.444,458.346,721.444,458.346Z" transform="translate(-683.7 -403.679)"/><path class="l" d="M736.234,458.3c1.36,3.04,1.841,9.441,2.31,11.859s-8.453,5.517-8.453,5.517-9.956-12.8-12.6-20.412c-1.129-3.241-5.61-3.362-10.184-12.48a38.776,38.776,0,0,0-4.671-7.291c-2.969-3.62-5.607-5.365-6.857-7.073-1.887-2.584.773-6.379,2.394-8.013s12.524-1.8,12.524-1.8a72.2,72.2,0,0,1,5.038,5.418c4.4,5.1,10,12.424,10.32,16.176.2,2.343,3.108,8.1,4.115,9.2A47.614,47.614,0,0,1,736.234,458.3Z" transform="translate(-695.125 -418.61)"/><path class="m" d="M715.732,424.028a30,30,0,0,0-7.63,6.978,18.875,18.875,0,0,1-5.47,4.485c-2.969-3.62-5.607-5.365-6.857-7.073-1.887-2.584.773-6.379,2.394-8.013s12.524-1.8,12.524-1.8A72.2,72.2,0,0,1,715.732,424.028Z" transform="translate(-695.125 -418.61)"/><g class="n" transform="translate(26.331 25.624)"><path class="o" d="M713.9,436.59l.161.131,1.536,1.238,2.57,2.071c.086-.062.175-.12.268-.176l.181-.1-2.511-1.768-2.143-1.5Z" transform="translate(-713.305 -436.477)"/><path class="o" d="M713.7,436.94l.579.467,1.226.988,2.3,1.852a3.673,3.673,0,0,1,.314-.283l-2.2-1.553-1.919-1.345-.26-.182Z" transform="translate(-713.395 -436.3)"/><path class="o" d="M717.742,440.246c-.786-.555-3.875-2.732-4.253-2.984l0,0,3.877,3.128.271-.01C717.669,440.337,717.705,440.291,717.742,440.246Z" transform="translate(-713.486 -436.136)"/><path class="o" d="M713.543,437.765c.1.05,3.571,2.5,3.571,2.5l-.447.016Z" transform="translate(-713.461 -435.918)"/><path class="o" d="M713.59,438.21c.077.04,2.851,2,2.851,2l-.357.014Z" transform="translate(-713.441 -435.725)"/><path class="o" d="M713.59,438.532c.062.033,2.277,1.6,2.277,1.6l-.285.011Z" transform="translate(-713.441 -435.585)"/><g transform="translate(0.32 0.178)"><path class="o" d="M717.837,437.6l-3.693,3.423c.093.136.185.272.274.412.962-.992,2.376-2.452,3.6-3.714Z" transform="translate(-713.52 -436.168)"/><path class="o" d="M717.441,437.356l-3.548,3.288c.087.109.171.218.252.331.808-.835,2.265-2.336,3.42-3.534Z" transform="translate(-713.629 -436.273)"/><path class="o" d="M717.033,437.127l-3.263,3.023-.062.283c.043.046.083.093.123.142.558-.575,2.174-2.242,3.284-3.393Z" transform="translate(-713.709 -436.373)"/><path class="o" d="M716.587,436.928l-2.751,2.548-.109.5s1.84-1.9,2.919-3.015Z" transform="translate(-713.701 -436.459)"/><path class="o" d="M716.171,436.755l-2.329,2.158-.087.4s1.619-1.668,2.455-2.537Z" transform="translate(-713.689 -436.534)"/><path class="o" d="M715.847,436.6l-1.953,1.811-.069.321s1.4-1.447,2.044-2.113Z" transform="translate(-713.659 -436.601)"/></g></g><g transform="translate(39.152 55.242)"><path class="q" d="M743.3,460.892a67.2,67.2,0,0,1-8.549,3.594h0c-.092.033-.175.064-.261.1a15.364,15.364,0,0,0-2.914,1.3c-.031.03-.073.062-.122.1-.122.093-.3.217-.512.356-1.944,1.259-7.2,4-7.991,2.4a4.321,4.321,0,0,1-.327-.969c-.017-.072-.033-.145-.046-.219v-.013c-.02-.1-.039-.2-.052-.3v-.006c-.273-1.889.092-4.175.417-4.137,4.343.509,6.617-3.408,7.062-4.267.056-.106.083-.166.083-.166s.133-.05.392-.136l.538-.168c.116-.036.242-.074.381-.115.046-.013.093-.029.14-.04.112-.034.233-.069.359-.1l.191-.05h0c.348-.093.739-.194,1.172-.3.27-.065.554-.131.856-.2.453-.1.944-.2,1.466-.3.05-.007.1-.011.155-.016.268-.033.538-.056.8-.073a15.883,15.883,0,0,1,2.629.039h0C743.2,457.608,745.48,459.544,743.3,460.892Z" transform="translate(-722.425 -457.13)"/><path class="r" d="M739.168,457.206a4.931,4.931,0,0,0-1.761,4.725s-1.6.387-3.38.891l-.466.136c-.284.083-.572.166-.858.254-.245.075-.486.152-.72.227a8.348,8.348,0,0,0-2.672,1.176c-.747.87-6.121,4.612-6.693,3.161a.76.76,0,0,1-.046-.219v-.013a1.922,1.922,0,0,0-.052-.3v-.006c-.273-1.889.092-4.175.417-4.137,4.343.509,6.617-3.408,7.062-4.267.056-.106.083-.166.083-.166s.133-.05.392-.136l.538-.168c.116-.036.242-.074.381-.115.046-.013.093-.029.14-.04.112-.034.233-.069.359-.1l.191-.05h0c.348-.093.739-.194,1.172-.3.27-.065.554-.131.856-.2.453-.1.944-.2,1.466-.3.05-.007.1-.011.155-.016.268-.033.538-.056.8-.073a15.883,15.883,0,0,1,2.629.039Z" transform="translate(-722.425 -457.13)"/><g transform="translate(8.129 0.974)"><path class="s" d="M729.432,457.809c-.037.089-.089.215-.149.377a7.226,7.226,0,0,0-.445,1.793,3.523,3.523,0,0,0-.01.625c.007.079.019.159.033.237l-.714.132a3.7,3.7,0,0,1-.037-.987h0a5.5,5.5,0,0,1,.09-.637,8.055,8.055,0,0,1,.353-1.279c.116-.036.242-.075.381-.115.046-.013.093-.029.141-.04C729.185,457.879,729.306,457.845,729.432,457.809Z" transform="translate(-728.094 -457.809)"/></g><g transform="translate(10.382 0.428)"><path class="s" d="M730.97,457.428a6.05,6.05,0,0,0-.536,2.947l-.716.132a6.063,6.063,0,0,1,.4-2.883C730.383,457.56,730.667,457.494,730.97,457.428Z" transform="translate(-729.665 -457.428)"/></g><g transform="translate(12.893 0.037)"><path class="s" d="M732.634,457.155a5.693,5.693,0,0,0-.45,2.731l-.713.13a5.911,5.911,0,0,1,.36-2.788C732.1,457.2,732.368,457.172,732.634,457.155Z" transform="translate(-731.416 -457.155)"/></g><g transform="translate(7.544 1.402)"><path class="z" d="M730.419,462.788a2.966,2.966,0,0,1-.371.569,4.157,4.157,0,0,0-.883,2.2,2.552,2.552,0,0,0,.4,1.893l-.343.341a2.7,2.7,0,0,1-.565-1.879,4.682,4.682,0,0,1,1.02-2.867l.027-.036c.845-1.064.37-1.639-.694-2.54-.06-.053-.123-.106-.191-.162-.119-.1-.238-.2-.354-.3-.06-.052-.119-.106-.175-.158a1.711,1.711,0,0,1-.6-1.164,1.144,1.144,0,0,1,.03-.281c.056-.106.083-.166.083-.166s.133-.05.392-.136l.138.148a.631.631,0,0,0-.161.436.977.977,0,0,0,.208.528,2.358,2.358,0,0,0,.4.429l.241.2c.037.032.073.063.11.092C730.07,460.73,731.043,461.545,730.419,462.788Z" transform="translate(-727.686 -458.107)"/></g><g transform="translate(9.089 0.923)"><path class="z" d="M731.377,459.7a9.091,9.091,0,0,1-.063,1.372,6.6,6.6,0,0,0-.039,1.473,2.09,2.09,0,0,0,.868,1.471l-.148.192h0l-.146.189c-.04-.03-.077-.06-.115-.092a2.518,2.518,0,0,1-.924-1.626,6.679,6.679,0,0,1,.023-1.656,8.393,8.393,0,0,0,.062-1.3,1.339,1.339,0,0,0-.089-.4,1.491,1.491,0,0,0-.625-.7,3.37,3.37,0,0,0-1.187-.422c-.137-.023-.224-.032-.229-.033l.02-.24c.112-.034.232-.069.359-.1l.191-.05h0a3.882,3.882,0,0,1,.967.353,2.336,2.336,0,0,1,.627.483A1.733,1.733,0,0,1,731.377,459.7Z" transform="translate(-728.763 -457.773)"/></g></g></g><path class="g" d="M725.969,434.085c-.377.184-.776.366-1.19.541-2.544-3.089-8.745-8.5-17.654-2.406-5.7,3.9-12.931,4.512-14.445,4.6h-.01c-.178.012-.275.014-.275.014l0-.01-2.313-7.31,9.6-17.471,11.946.116s14.1,17.611,14.139,17.743C725.792,429.981,725.891,432.245,725.969,434.085Z" transform="translate(-634.847 -292.412)"/><g transform="translate(59.783 35.16)"><path class="aa" d="M694.837,361.384c1.272,1.662,1.62,1.012-.452,3.217-.934,1.431,1.284,1.451,2.858,2.209a3,3,0,0,1,.892.608c.782.675,2.341.819,3.821,1.037,3.151-.379,3.915,2.123,3.825-1.037a1.191,1.191,0,0,1-.036-.123c-.775-2.669,3.656-.222,2.751-2.594-2.068-.938,2.534.09,1.037-3.821-2.2-1.645,2.693-3.007-1.037-3.825-.242-1.469-3.71-.49-2.715-2.715-1-1.2-2.874-.511-3.825-1.037-3.795-.855-2.2,2.036-3.821,1.037-2.142-.724-2.7,2.039-2.718,2.715C694.187,358.378,691.56,361.384,694.837,361.384Z" transform="translate(-693.252 -353.142)"/><path class="ab" d="M696.035,364.185a3,3,0,0,1,.892.608c.782.675,2.34.819,3.821,1.037,3.151-.379,3.915,2.122,3.825-1.037a1.207,1.207,0,0,1-.036-.123c-1.033-.194-1.979-.569-1.979-1.385,0-3.683-4.363-4.1-4.363-4.1s-1.184,2.5-1.259,2.774C696.9,362.1,696.475,363.14,696.035,364.185Z" transform="translate(-692.044 -350.519)"/><path class="k" d="M699.5,356.816s-4.734-1.11-4.734,4.4.558,6.208,4.734,4.538S704.236,357.065,699.5,356.816Z" transform="translate(-692.594 -351.587)"/></g><path class="v" d="M701.564,373.626s-8.735-7.222-22.719-24.278c0,0-16.666,11.436-22.03,20.408s18.516,22.368,25.985,33.263C689.432,412.692,701.564,373.626,701.564,373.626Z" transform="translate(-649.625 -319.629)"/><path class="v" d="M709.1,370.61s15.684-4.228,17.694-17.468c0,0,28.323,6.861,27.653,14.492s-11.307,24.475-22.639,30S709.1,370.61,709.1,370.61Z" transform="translate(-626.588 -317.982)"/></g></g></g></g></svg>