<svg xmlns="http://www.w3.org/2000/svg" xmlns:xlink="http://www.w3.org/1999/xlink" width="714" height="498.923" viewBox="0 0 714 498.923"><defs><style>.a{fill:none;clip-rule:evenodd;}.b,.k,.l,.m,.n{fill-rule:evenodd;}.b{opacity:0.7;}.b,.g{fill:url(#a);}.c{fill:#35343a;}.d{fill:#1970a9;}.e{fill:url(#b);}.f,.l{fill:#7fd1d8;}.h{fill:#fff;opacity:0.2;}.i{fill:#1a191c;}.j{clip-path:url(#d);}.k{fill:#c98121;}.m{fill:#171f1c;}.n{fill:#243e41;}</style><linearGradient id="a" y1="0.5" x2="1" y2="0.5" gradientUnits="objectBoundingBox"><stop offset="0" stop-color="#ff93b1"/><stop offset="0.048" stop-color="#ff93b1"/><stop offset="0.29" stop-color="#ffa0ac"/><stop offset="0.484" stop-color="#ffb4a3"/><stop offset="0.737" stop-color="#ffc19e"/><stop offset="0.881" stop-color="#ffd395"/><stop offset="1" stop-color="#ffd694"/></linearGradient><linearGradient id="b" x1="0.384" y1="0.044" x2="0.6" y2="1.056" gradientUnits="objectBoundingBox"><stop offset="0" stop-color="#bddce7"/><stop offset="0.029" stop-color="#bddce7"/><stop offset="1" stop-color="#f3f7fa"/></linearGradient><clipPath id="d"><path class="a" d="M617.745,494.593c-23.667,20.985-79.752,70.718-87.761,148.517-10.343,100.462,65.9,185.34,131.641,224.464,63.055,37.526,167.23,63.182,219.4,25.315,8.52-6.183,21.55-18.342,42.193-20.253,31.085-2.877,46.752,20.5,75.947,28.691,44.575,12.5,88.124-18.075,101.261-27,41.286-28.057,79.858-83.312,70.883-135.015-7.8-44.92-46.079-56.043-40.5-87.759,6.55-37.268,62.428-39.146,69.2-69.2,8.964-39.8-74.553-101.021-155.267-133.327C932,403.9,743.826,382.79,617.745,494.593Z" transform="translate(-529.036 -412.598)"/></clipPath></defs><g transform="translate(-514.312 -412.598)"><g transform="translate(543.689 412.598)"><path class="b" d="M617.745,494.593c-23.667,20.985-79.752,70.718-87.761,148.517-10.343,100.462,65.9,185.34,131.641,224.464,63.055,37.526,167.23,63.182,219.4,25.315,8.52-6.183,21.55-18.342,42.193-20.253,31.085-2.877,46.752,20.5,75.947,28.691,44.575,12.5,88.124-18.075,101.261-27,41.286-28.057,79.858-83.312,70.883-135.015-7.8-44.92-46.079-56.043-40.5-87.759,6.55-37.268,62.428-39.146,69.2-69.2,8.964-39.8-74.553-101.021-155.267-133.327C932,403.9,743.826,382.79,617.745,494.593Z" transform="translate(-529.036 -412.598)"/><rect class="c" width="408.665" height="269.2" rx="14.233" transform="translate(123.29 118.268)"/><rect class="d" width="389.204" height="237.846" transform="translate(131.938 127.46)"/><g transform="translate(160.217 152.354)"><path class="e" d="M935.747,595.22c-1.93-12.737-8.505-24.491-16.036-34.746-7.46-10.166-15.676-20.439-25.71-28.176-11.289-8.705-24.307-11.273-38.268-12.077-11.193-.645-23.422-.407-33.31-6.514-4.545-2.807-6.835-7.115-9.87-11.323-3.875-5.367-8.661-9.393-15.177-11.1-25.95-6.81-53.065,2.5-76.751,13.156-37.406,16.824-99.381,35.225-105.3,83.751-1.75,14.357,3.013,28.222,8.562,41.233,2.582,6.056,4.972,12.544,9.284,17.616,4.29,5.042,10.6,7.54,16.8,9.332,28.079,8.115,57.28,15.958,86.739,15.411,13.829-.257,27.27-3.372,40.987-4.689,6.317-.6,12.9-.94,19.164.289,6.145,1.209,11.193,4.078,16.853,6.554a35.186,35.186,0,0,0,22.089,2.251c7.171-1.488,14.1-4.437,20.987-6.867,12.993-4.583,26.229-8.761,38.972-14.01,12.288-5.062,23.6-11.6,31.546-22.548C935.172,621.936,937.726,608.285,935.747,595.22Z" transform="translate(-603.741 -488.958)"/><path class="f" d="M830.633,578.264l-.225-2.177-.058-.543-.056-.453-.114-.9-.112-.9-.056-.451-.058-.385-.225-1.5-.225-1.479-.225-1.263-.058-.311-.056-.275-.114-.551c-.074-.363-.15-.754-.225-1.043l-.225-.938-.056-.232-.058-.194-.112-.387-.227-.768c-.074-.212-.15-.445-.225-.639a5.886,5.886,0,0,0-.9-1.706,1.414,1.414,0,0,0-.451-.369.832.832,0,0,0-.225-.07.278.278,0,0,0-.228.052c-.3.216-.6,1.053-.9,2.542-.038.182-.076.329-.114.539l-.114.634-.112.634-.114.71c-.15.928-.3,2.023-.451,3.073l-.453,3.095-.225,1.52-.226,1.309c-.02.1-.038.227-.058.313l-.056.263-.114.531c-.074.379-.15.646-.226.92l-.112.351c-.038.11-.076.186-.114.281a1.261,1.261,0,0,1-.226.387c-.151.169-.3.162-.453-.022a1.24,1.24,0,0,1-.225-.423c-.038-.108-.076-.273-.112-.409-.02-.058-.038-.174-.058-.263l-.056-.287c-.038-.2-.076-.469-.114-.7l-.112-.912-.058-.461-.028-.232c-.008-.074-.018-.152-.028-.259l-.114-1.179-.056-.589-.028-.331-.028-.371-.114-1.482-.225-2.981-.451-6.814-.227-3.358-.056-.772-.056-.694-.114-1.391-.114-1.389-.056-.7-.056-.547-.114-1.048-.028-.261c-.01-.1-.018-.138-.028-.207l-.056-.385a6.249,6.249,0,0,0-.453-2.007c-.3-.381-.6.445-.9,2.5l-.112.822-.058.411-.056.533-.225,2.219L817.417,555l-.028.277-.028.329-.056.686-.227,2.742-.9,11.021c-.6,6.508-1.2,9.27-1.806,7.873l-.058-.142c-.018-.046-.036-.1-.056-.166l-.114-.375c-.018-.054-.036-.14-.056-.223l-.056-.249-.114-.5-.112-.5-.114-.565-.226-1.115c-.151-.65-.3-1.413-.453-1.86-.038-.138-.074-.215-.112-.325-.038-.084-.076-.179-.114-.245a.659.659,0,0,0-.225-.277c-.152-.086-.3.028-.453.393-.036.074-.074.216-.112.327a4.045,4.045,0,0,0-.114.391l-.112.465-.114.589-.114.589-.056.3-.056.331-.225,1.325-.227,1.237-.028.154-.028.13-.056.253-.058.251-.056.2c-.15.577-.3.852-.451.852s-.3-.315-.453-.818a39.3,39.3,0,0,1-.9-5.77l-.112-.976-.114-1.062-.225-2.179-.225-2.111-.114-1.045-.056-.523-.028-.233-.03-.214-.225-1.7-.112-.832-.114-.631a6.782,6.782,0,0,0-.453-1.688c-.074-.144-.15-.223-.225-.241s-.15.044-.225.273a4.726,4.726,0,0,0-.114.459l-.028.142c-.008.048-.018.088-.028.162l-.056.4-.058.393-.028.2-.028.259-.112,1.061-.227,2.755-.056.694-.056.812-.114,1.638-.225,3.252-.114,1.614-.028.4-.028.335-.056.659-.114,1.317-.056.658-.028.325-.03.239-.112.96-.114.678c-.15.892-.3,1.012-.451.714a5.359,5.359,0,0,1-.453-1.463c-.038-.15-.074-.4-.112-.619l-.114-.668-.056-.333c-.01-.05-.02-.118-.028-.194l-.03-.214-.112-.856c-.3-2.518-.6-5.551-.9-9l-.451-4.954-.114-1.219L801.942,559l-.225-2.051-.114-1.025-.112-.794-.114-.774-.028-.194-.028-.16-.056-.313c-.038-.223-.076-.391-.114-.563l-.056-.259-.058-.212a3.91,3.91,0,0,0-.225-.68.674.674,0,0,0-.225-.3c-.038-.018-.076-.034-.114,0a.578.578,0,0,0-.112.224c-.02.062-.038.148-.058.219l-.028.114-.028.154-.056.321-.058.453-.056.453-.028.225c-.01.066-.018.166-.028.273l-.114,1.239-.225,3.24-.056.826-.058.956-.112,2.005-.453,7.745-.226,3.761-.112,1.421c-.02.259-.038.419-.058.611l-.056.559-.056.561-.058.4-.112.778-.058.261-.028.126-.028.1c-.018.07-.038.106-.056.16l-.058.116c-.3.638-.6.724-.9.285a2.683,2.683,0,0,1-.227-.409c-.074-.164-.15-.363-.225-.551-.15-.415-.3-.87-.451-1.317-.076-.229-.152-.433-.228-.644s-.15-.377-.225-.563c-.076-.144-.15-.313-.226-.437a1.648,1.648,0,0,0-.225-.293c-.3-.281-.6-.152-.9.437a19.061,19.061,0,0,0-.9,2.7c-.038.134-.076.255-.114.367l-.112.345-.114.345-.112.291c-.038.1-.076.174-.114.257s-.076.168-.114.229a1.919,1.919,0,0,1-.225.335c-.15.184-.3.22-.451.032a4.11,4.11,0,0,1-.453-.934,2.761,2.761,0,0,0-.451-.858c-.152-.148-.3-.11-.453.062a1.683,1.683,0,0,0-.225.363c-.076.166-.15.355-.225.535-.152.407-.3.826-.453,1.145s-.3.473-.451.439a.293.293,0,0,1-.114-.054.23.23,0,0,1-.056-.054.545.545,0,0,1-.028-.076c-.01-.03-.02-.094-.028-.138-.02-.066-.038-.277-.058-.439l-.028-.257c-.01-.068-.018-.189-.028-.337l-.114-1.63-.112-1.6-.028-.4c-.01-.134-.02-.279-.028-.335l-.058-.473a.989.989,0,0,0-.028-.17c-.01-.038-.018-.088-.028-.118-.02-.048-.038-.072-.056-.054s-.038.05-.058.136l-.028.11-.028.208c-.152,1.115-.3,3.922-.451,5.084l-.03.218-.028.12a.382.382,0,0,1-.056.156c-.038.034-.076-.012-.114-.116l-.028-.094-.028-.132-.028-.134-.028-.182-.028-.184-.03-.269-.056-.539-.226-2.167-.056-.545-.03-.271a2.3,2.3,0,0,0-.028-.231c-.038-.273-.076-.465-.112-.615-.076-.233-.152-.461-.228.435l-.028.283-.028.459-.056.918-.114,1.79c-.15,2.672-.3,1.381-.451-1.75l-.114-2.035-.056-1c-.01-.146-.02-.383-.028-.447l-.028-.3a2.641,2.641,0,0,0-.114-.742c-.02-.026-.038-.006-.056.026a.513.513,0,0,0-.03.066l-.028.1-.028.136-.028.221-.056.441-.03.232-.028.369-.056.74-.225,2.983-.058.752-.028.377c-.008.13-.018.174-.028.263l-.056.475-.028.237c-.01.068-.02.1-.028.148-.038.212-.076.3-.114.323a.233.233,0,0,1-.114.056c-.15.024-.3-.186-.451-.589l-.114-.335-.112-.387-.227-.8a5.9,5.9,0,0,0-.451-1.237.449.449,0,0,0-.225-.218c-.038,0-.076-.056-.114.088a2.074,2.074,0,0,0-.056.305l-.028.184-.028.289-.228,2.328c-.038.275-.074.4-.112.405a.458.458,0,0,1-.114-.232l-.056-.2-.056-.313-.058-.313c-.01-.06-.018-.088-.028-.174l-.028-.229-.225-1.848-.114-.934-.114-.776-.056-.287c-.018-.1-.038-.146-.056-.219a.576.576,0,0,0-.114-.253c-.076-.07-.15.036-.225.317l-.056.245c-.02.076-.038.21-.058.311l-.028.17-.028.231-.056.467-.453,3.677-.056.317c-.018.094-.038.162-.056.241a.985.985,0,0,1-.114.311.1.1,0,0,1-.114.052.383.383,0,0,1-.112-.026,1,1,0,0,1-.453-.4c-.6-.824-1.2-3.3-1.806-4.8l-.114-.275-.114-.229a2.733,2.733,0,0,0-.225-.4,1.184,1.184,0,0,0-.451-.443.293.293,0,0,0-.226-.03.534.534,0,0,0-.227.231,5.544,5.544,0,0,0-.451,1.323l-.114.429-.112.5-.227.99-.112.483-.058.242-.056.211c-.076.3-.15.509-.225.73-.152.389-.3.587-.453.559a.355.355,0,0,1-.226-.2,2.7,2.7,0,0,1-.225-.627c-.038-.138-.076-.339-.114-.507-.018-.092-.036-.166-.056-.271l-.056-.333c-.076-.4-.151-1.02-.225-1.56l-.114-.842-.114-.958-.225-1.9c-.076-.611-.15-1.3-.225-1.766l-.114-.774c-.038-.253-.074-.539-.112-.7a3.406,3.406,0,0,0-.453-1.449c-.3-.152-.6.227-.9.962l-.225.642-.226.788-.225.914-.227,1.037-.451,2.127-.225,1.075-.227.964a13.264,13.264,0,0,1-.9,2.917,1.451,1.451,0,0,1-.453.6c-.15.062-.3-.088-.451-.455-.3-.716-.6-2.374-.9-3.392a3.012,3.012,0,0,0-.453-1.1c-.074-.082-.15-.126-.225-.108-.038.018-.076.07-.114.168-.018.042-.036.122-.056.18s-.038.144-.056.231l-.028.13-.028.168-.058.345c-.018.124-.038.213-.056.363l-.056.417-.227,1.6a6.239,6.239,0,0,1-.226,1.147c-.076.235-.15.305-.225.225a8.279,8.279,0,0,1-.451-2.057c-.038-.247-.076-.415-.114-.616-.02-.1-.038-.2-.056-.263a1.978,1.978,0,0,0-.058-.2c-.074-.241-.15-.311-.225-.241-.3.1-.6,3.519-.9,3.755-.3.1-.6-1.125-.9-3.1l-.112-.77-.114-.952-.225-1.941-.056-.487-.058-.547-.112-1.121-.227-2.241-.225-2.2c-.076-.724-.15-1.518-.225-2.073l-.225-1.826-.058-.457c-.018-.152-.036-.315-.056-.415l-.114-.688a9.721,9.721,0,0,0-.451-1.915.872.872,0,0,0-.225-.355c-.038-.024-.076-.048-.114-.026a.631.631,0,0,0-.112.325l-.03.14-.028.188-.028.2-.028.277c-.038.377-.076.68-.114,1.241l-.056.75-.056,1.081L759.7,566.5l-.451,8.819-.114,2.169-.114,1.371-.056.686c-.01.1-.018.253-.028.319l-.028.19a5.438,5.438,0,0,1-.114.646c-.038.156-.076.178-.112.2a.316.316,0,0,1-.114.05.272.272,0,0,1-.225-.066,1,1,0,0,1-.225-.289,4.542,4.542,0,0,1-.227-.5c-.15-.393-.3-.946-.451-1.455-.152-.529-.3-1.089-.453-1.548a6.2,6.2,0,0,0-.225-.6,2.218,2.218,0,0,0-.225-.435c-.3-.435-.6-.345-.9.289a7.86,7.86,0,0,0-.451,1.287l-.453,1.6-.225.728c-.076.208-.152.421-.225.575a1.358,1.358,0,0,1-.453.638c-.15.076-.3-.1-.451-.463-.038-.082-.076-.2-.114-.3l-.112-.319-.114-.331c-.038-.112-.076-.2-.114-.293-.3-.8-.6-.822-.9,0l-.112.3-.114.339-.112.325c-.038.1-.076.225-.114.305l-.056.132-.058.106a.724.724,0,0,1-.112.164.173.173,0,0,1-.225.048c-.076-.042-.152-.146-.227-.373-.018-.052-.038-.124-.056-.186l-.056-.241-.058-.251-.056-.313c-.038-.174-.076-.5-.114-.77l-.112-.838-.225-1.7-.114-.878-.114-.738-.056-.361-.028-.176-.028-.136-.056-.271c-.02-.09-.038-.14-.058-.212-.15-.587-.3-.581-.451-.371a4.35,4.35,0,0,0-.453,1.478l-.112.577-.058.3-.056.347-.225,1.391c-.152.972-.3,1.806-.453,2.512l-.056.235-.028.118-.028.094-.114.357-.056.136c-.02.042-.038.074-.056.11a.509.509,0,0,1-.114.154c-1.2,1.347-2.41-7.2-3.615.2a.859.859,0,0,1-.225-.455c-.076-.281-.15-.6-.225-1l-.114-.567-.056-.275-.056-.239a2.406,2.406,0,0,0-.227-.682.179.179,0,0,0-.225-.094.5.5,0,0,0-.225.112,1.138,1.138,0,0,0-.225.257c-.038.058-.076.106-.114.172l-.112.2c-.3.585-.6,1.423-.9,1.887a.815.815,0,0,1-.453.413.333.333,0,0,1-.225-.03.354.354,0,0,1-.114-.078.753.753,0,0,1-.112-.2c-.02-.04-.038-.1-.058-.152l-.056-.2c-.018-.072-.038-.128-.056-.216l-.058-.265-.028-.134-.028-.166-.056-.337c-.038-.232-.076-.431-.114-.69l-.225-1.55-.114-.748-.112-.632c-.3-1.73-.6-1.365-.9-.674a5.949,5.949,0,0,0-.225.74l-.114.443-.056.221c-.02.074-.038.174-.058.259l-.451,2.157-.225.944c-.038.174-.076.273-.114.405l-.056.19-.056.148c-.152.425-.3.642-.453.692s-.3-.142-.451-.531l-.114-.329-.114-.391-.226-.884c-.15-.62-.3-1.181-.451-1.6s-.3-.591-.453-.581c-.3.01-.6.481-.9,1.315-.15.4-.3.884-.451,1.309a9.991,9.991,0,0,1-.453,1.179c-.3.65-.6.818-.9.571a4.236,4.236,0,0,1-.9-1.864c-.152-.477-.3-1.047-.453-1.586l-.451-1.6a4.639,4.639,0,0,0-.9-1.931.459.459,0,0,0-.225-.108c-.076-.014-.152,0-.228.126a5.133,5.133,0,0,0-.451,1.638l-.114.615-.112.72-.226,1.441c-.076.517-.151.87-.227,1.287l-.056.3c-.018.1-.038.159-.056.241l-.058.233a1.827,1.827,0,0,1-.056.184,1.416,1.416,0,0,1-.225.5c-.076.09-.152.07-.226.076a1.074,1.074,0,0,1-.453-.106,3.186,3.186,0,0,1-.9-.786,5.646,5.646,0,0,0-.9-.892,1.38,1.38,0,0,0-.451-.207.516.516,0,0,0-.225-.024c-.076.02-.152.11-.228.245-.15.281-.3.8-.451,1.1a.59.59,0,0,1-.225.3c-.076.042-.152,0-.225,0a2.946,2.946,0,0,1-.9-.327,5.973,5.973,0,0,1-.9-.623c-.3-.235-.6-.481-.9-.7a3.122,3.122,0,0,0-1.808-.7,4.156,4.156,0,0,0-1.808.311,4.521,4.521,0,0,0-1.808,1.379v2.35a4.519,4.519,0,0,0,1.808,1.379,4.152,4.152,0,0,0,1.808.311,3.137,3.137,0,0,0,1.808-.7c.3-.224.6-.469.9-.7a6.142,6.142,0,0,1,.9-.625,3,3,0,0,1,.9-.325c.074-.006.15-.046.225,0a.59.59,0,0,1,.225.3c.152.3.3.814.451,1.1.076.136.152.226.228.245a.521.521,0,0,0,.225-.024,1.386,1.386,0,0,0,.451-.208,5.644,5.644,0,0,0,.9-.892,3.156,3.156,0,0,1,.9-.786,1.041,1.041,0,0,1,.453-.106c.074.006.15-.014.226.076a1.415,1.415,0,0,1,.225.5,1.83,1.83,0,0,1,.056.183l.058.232c.018.082.038.146.056.243l.056.3c.076.417.151.77.227,1.287l.226,1.441.112.72.114.613a5.151,5.151,0,0,0,.451,1.64c.076.128.152.14.228.126a.457.457,0,0,0,.225-.108,4.638,4.638,0,0,0,.9-1.931l.451-1.6c.152-.539.3-1.109.453-1.586a4.236,4.236,0,0,1,.9-1.863c.3-.247.6-.08.9.569a10.177,10.177,0,0,1,.453,1.181c.15.425.3.908.451,1.309.3.834.6,1.3.9,1.315.152.01.3-.172.453-.581s.3-.98.451-1.6l.226-.884.114-.393.114-.327c.15-.389.3-.577.451-.531s.3.267.453.692l.056.148.056.19c.038.132.076.231.114.4l.225.946.451,2.157c.02.086.038.186.058.259l.056.222.114.443a6.062,6.062,0,0,0,.225.74c.3.69.6,1.055.9-.674l.112-.633.114-.75.225-1.548c.038-.259.076-.459.114-.69l.056-.337.028-.168.028-.132.058-.265c.018-.088.038-.144.056-.215l.056-.2c.02-.05.038-.112.058-.152a.8.8,0,0,1,.112-.2.341.341,0,0,1,.114-.076.332.332,0,0,1,.225-.03.815.815,0,0,1,.453.413c.3.465.6,1.3.9,1.887l.112.2c.038.066.076.114.114.17a1.054,1.054,0,0,0,.225.257.484.484,0,0,0,.225.114.179.179,0,0,0,.225-.094,2.4,2.4,0,0,0,.227-.682l.056-.239.056-.275.114-.567c.076-.4.15-.718.225-1a.859.859,0,0,1,.225-.455c1.205,7.4,2.41-1.145,3.615.2a.505.505,0,0,1,.114.154c.018.036.036.066.056.11l.056.136.114.357.028.092.028.12.056.233c.152.708.3,1.542.453,2.514l.225,1.391.056.347.058.3.112.577a4.35,4.35,0,0,0,.453,1.478c.15.209.3.216.451-.371.02-.072.038-.122.058-.212l.056-.271.028-.136.028-.176.056-.363.114-.736.114-.878.225-1.7.112-.838c.038-.267.076-.6.114-.772l.056-.311.058-.251.056-.241c.018-.062.038-.134.056-.185.076-.228.152-.331.227-.373a.173.173,0,0,1,.225.048.7.7,0,0,1,.112.162l.058.108.056.132c.038.08.076.2.114.305l.112.325.114.339.112.3c.3.824.6.808.9,0,.038-.1.076-.182.114-.293l.114-.331.112-.319c.038-.1.076-.217.114-.3.15-.363.3-.539.451-.463a1.357,1.357,0,0,1,.453.638c.074.152.15.365.225.573l.225.73.453,1.6a7.851,7.851,0,0,0,.451,1.287c.3.634.6.724.9.289a2.212,2.212,0,0,0,.225-.435,6.226,6.226,0,0,0,.225-.6c.152-.459.3-1.02.453-1.548.15-.509.3-1.062.451-1.454a4.55,4.55,0,0,1,.227-.5,1,1,0,0,1,.225-.289.272.272,0,0,1,.225-.066.319.319,0,0,1,.114.05c.036.024.074.046.112.2a5.433,5.433,0,0,1,.114.646l.028.189c.01.066.018.216.028.319l.056.684.114,1.373.114,2.169.451,8.819.114,2.185.056,1.081.056.75c.038.561.076.864.114,1.241l.028.275.028.2.028.189.03.14a.631.631,0,0,0,.112.325c.038.022.076,0,.114-.026a.872.872,0,0,0,.225-.355,9.717,9.717,0,0,0,.451-1.915l.114-.688c.02-.1.038-.263.056-.415l.058-.457.225-1.826c.076-.555.15-1.349.225-2.073l.225-2.2.227-2.243L762.3,590l.058-.549.056-.485.225-1.941.114-.952.112-.772c.3-1.977.6-3.2.9-3.1.3.235.6,3.657.9,3.755.076.068.151,0,.225-.242a1.975,1.975,0,0,0,.058-.2c.018-.064.036-.168.056-.263.038-.2.076-.369.114-.617a8.275,8.275,0,0,1,.451-2.057c.076-.08.15-.01.225.225a6.235,6.235,0,0,1,.226,1.147l.227,1.6.056.417c.018.148.038.239.056.363l.058.345.028.166.028.132c.018.088.038.176.056.232s.038.138.056.18a.306.306,0,0,0,.114.168c.076.018.152-.026.225-.11a2.981,2.981,0,0,0,.453-1.1c.3-1.018.6-2.676.9-3.392.15-.367.3-.517.451-.455a1.452,1.452,0,0,1,.453.6,13.262,13.262,0,0,1,.9,2.917l.227.964.225,1.073.451,2.129.227,1.037.225.914.226.788.225.643c.3.734.6,1.113.9.962a3.405,3.405,0,0,0,.453-1.449c.038-.166.074-.451.112-.7l.114-.774c.076-.465.15-1.157.225-1.766l.225-1.9.114-.958.114-.842c.074-.541.15-1.165.225-1.56l.056-.333c.02-.106.038-.18.056-.271.038-.168.076-.371.114-.507a2.7,2.7,0,0,1,.225-.626.366.366,0,0,1,.226-.2c.152-.026.3.172.453.561.076.221.15.435.225.73l.056.209.058.243.112.483.227.99.112.5.114.429a5.542,5.542,0,0,0,.451,1.323.534.534,0,0,0,.227.232.294.294,0,0,0,.226-.03,1.186,1.186,0,0,0,.451-.443,2.733,2.733,0,0,0,.225-.4l.114-.229.114-.275c.6-1.5,1.2-3.978,1.806-4.8a1,1,0,0,1,.453-.4.393.393,0,0,1,.112-.026.1.1,0,0,1,.114.052.985.985,0,0,1,.114.311c.018.08.038.148.056.239l.056.319.453,3.677.056.467.028.232.028.169c.02.1.038.236.058.311l.056.245c.076.279.15.387.225.317a.577.577,0,0,0,.114-.253c.018-.074.038-.124.056-.219l.056-.287.114-.776.114-.934.225-1.847.028-.23c.01-.086.018-.114.028-.174l.058-.313.056-.313.056-.2a.457.457,0,0,1,.114-.232c.038,0,.074.13.112.405l.228,2.328.028.289.028.184a2.129,2.129,0,0,0,.056.305c.038.144.076.088.114.088a.45.45,0,0,0,.225-.218,5.9,5.9,0,0,0,.451-1.237l.227-.8.112-.387.114-.335c.15-.4.3-.613.451-.589a.217.217,0,0,1,.114.056c.038.022.076.112.114.323.008.05.018.08.028.148l.028.237.056.475c.01.09.02.134.028.263l.028.377.058.752.225,2.983.056.738.028.369.03.233.056.441.028.222.028.134.028.1a.51.51,0,0,0,.03.066c.018.032.036.052.056.026a2.641,2.641,0,0,0,.114-.742l.028-.3c.008-.064.018-.3.028-.447l.056-1,.114-2.035c.15-3.129.3-4.421.451-1.75l.114,1.792.056.918.028.459.028.283c.076.9.152.668.228.435.036-.15.074-.343.112-.615.01-.056.02-.132.028-.231l.03-.271.056-.545.226-2.167.056-.539.03-.269.028-.184.028-.182.028-.134.028-.132.028-.094c.038-.1.076-.15.114-.116a.382.382,0,0,1,.056.156l.028.12.03.217c.15,1.161.3,3.968.451,5.084l.028.208.028.11c.02.086.038.12.058.136s.036-.006.056-.054c.01-.03.018-.08.028-.118a1.026,1.026,0,0,0,.028-.17l.058-.473c.008-.056.018-.2.028-.335l.028-.4.112-1.6.114-1.63c.01-.148.018-.269.028-.337l.028-.257c.02-.162.038-.373.058-.439.008-.044.018-.108.028-.138a.466.466,0,0,1,.028-.076.233.233,0,0,1,.056-.054.293.293,0,0,1,.114-.054c.15-.034.3.132.451.439s.3.738.453,1.145c.076.18.15.369.225.535a1.689,1.689,0,0,0,.225.363c.151.172.3.209.453.062a2.786,2.786,0,0,0,.451-.858,4.171,4.171,0,0,1,.453-.936c.15-.186.3-.15.451.034a1.851,1.851,0,0,1,.225.335c.038.062.076.152.114.229s.076.154.114.257l.112.289.114.347.112.345c.038.112.076.233.114.367a19.235,19.235,0,0,0,.9,2.7c.3.589.6.718.9.437a1.607,1.607,0,0,0,.225-.3c.076-.122.15-.291.226-.435.076-.186.151-.357.225-.563s.152-.415.228-.644c.15-.447.3-.9.451-1.317.076-.188.151-.387.225-.551a2.685,2.685,0,0,1,.227-.409c.3-.439.6-.353.9.285l.058.116c.018.054.038.09.056.159l.028.1.028.128.058.261.112.778.058.4.056.559.056.56c.02.192.038.349.058.609l.112,1.422.226,3.759.453,7.747.112,2.005.058.954.056.828.225,3.24.114,1.239c.01.108.018.207.028.273l.028.226.056.453.058.453.056.321.028.154.028.112c.02.074.038.16.058.222a.58.58,0,0,0,.112.223c.038.036.076.02.114,0a.654.654,0,0,0,.225-.3,3.964,3.964,0,0,0,.225-.68l.058-.212.056-.259c.038-.172.076-.339.114-.563l.056-.313.028-.159.028-.194.114-.776.112-.794.114-1.025.225-2.051.114-1.026.114-1.217.451-4.954c.3-3.452.6-6.484.9-9l.112-.856.03-.214c.008-.076.018-.144.028-.194l.056-.333.114-.668c.038-.215.074-.469.112-.619a5.357,5.357,0,0,1,.453-1.462c.15-.3.3-.18.451.714l.114.678.112.96.03.239.028.323.056.66.114,1.317.056.658.028.335.028.4.114,1.614.225,3.252.114,1.638.056.812.056.694.227,2.755.112,1.062.028.259.028.2.058.393.056.4c.01.074.02.114.028.162l.028.142a4.726,4.726,0,0,0,.114.459c.076.229.15.3.225.273s.152-.1.225-.242a6.78,6.78,0,0,0,.453-1.688l.114-.63.112-.832.225-1.7.03-.213.028-.233.056-.523.114-1.046.225-2.111.225-2.181.114-1.06.112-.976a39.39,39.39,0,0,1,.9-5.772c.152-.5.3-.818.453-.816s.3.275.451.852l.056.2.058.251.056.253.028.128.028.156.227,1.237.225,1.323.056.333.056.3.114.589.114.589.112.465a4.043,4.043,0,0,0,.114.391c.038.112.076.253.112.327.151.365.3.479.453.393a.66.66,0,0,0,.225-.277c.038-.066.076-.164.114-.245.038-.11.074-.19.112-.327.151-.445.3-1.207.453-1.857l.226-1.115.114-.565.112-.5.114-.5.056-.249c.02-.084.038-.172.056-.226l.114-.373c.02-.068.038-.12.056-.166l.058-.142c.6-1.4,1.205,1.363,1.806,7.873l.9,11.022.227,2.741.056.686.028.329.028.277.114,1.109.225,2.219.056.533.058.411.112.822c.3,2.051.6,2.877.9,2.5a6.249,6.249,0,0,0,.453-2.007l.056-.385c.01-.072.018-.112.028-.207l.028-.263.114-1.045.056-.549.056-.694.114-1.389.114-1.391.056-.694.056-.772.227-3.358.451-6.814.225-2.981.114-1.482.028-.371.028-.331.056-.589.114-1.179c.01-.108.02-.188.028-.259l.028-.231.058-.463.112-.91c.038-.232.076-.495.114-.7l.056-.287c.02-.09.038-.206.058-.265.036-.134.074-.3.112-.409a1.245,1.245,0,0,1,.225-.421c.152-.184.3-.192.453-.022a1.237,1.237,0,0,1,.226.387c.038.094.076.172.114.281l.112.351c.076.273.152.541.226.92l.114.529.056.265c.02.086.038.209.058.313l.226,1.309.225,1.52.453,3.094c.15,1.049.3,2.145.451,3.073l.114.71.112.634.114.635c.038.209.076.357.114.539.3,1.488.6,2.326.9,2.542a.27.27,0,0,0,.228.05.828.828,0,0,0,.225-.068,1.413,1.413,0,0,0,.451-.369,5.943,5.943,0,0,0,.9-1.706c.076-.194.152-.427.225-.638l.227-.768.112-.387.058-.193.056-.231.225-.938c.076-.289.152-.682.225-1.045l.114-.551.056-.275.058-.309.225-1.263.225-1.478.225-1.5.058-.385.056-.453.112-.9.114-.9.056-.453.058-.543.225-2.177Z" transform="translate(-504.214 -430.873)"/><path class="g" d="M609.337,574.346l.549-5.313.138-1.325.136-1.1.275-2.2.273-2.2.138-1.1.138-.942.549-3.651.549-3.607.549-3.08.138-.758.136-.67.275-1.345c.183-.886.365-1.842.549-2.548l.549-2.29.138-.563.138-.473.273-.944.549-1.874c.183-.517.365-1.085.549-1.56a14.546,14.546,0,0,1,2.195-4.162,3.458,3.458,0,0,1,1.1-.9,1.946,1.946,0,0,1,.549-.168.645.645,0,0,1,.549.124c.732.525,1.464,2.568,2.195,6.2.092.443.183.8.275,1.313l.273,1.548.275,1.55.275,1.734c.365,2.261.73,4.932,1.1,7.494l1.1,7.554.549,3.707.549,3.2c.046.251.09.551.136.762l.138.644.275,1.291c.182.926.365,1.578.549,2.247l.273.856c.092.271.184.455.275.688a3.008,3.008,0,0,0,.549.944c.365.415.73.393,1.1-.054a2.972,2.972,0,0,0,.549-1.029c.092-.267.182-.67.273-1,.046-.146.092-.427.138-.647l.138-.7c.092-.5.184-1.143.273-1.708l.275-2.221.138-1.127.068-.565c.024-.178.046-.371.068-.63l.275-2.877.138-1.439.068-.808.068-.906.275-3.617.549-7.275,1.1-16.626.549-8.19.138-1.886.138-1.7.273-3.392.275-3.392.136-1.7.138-1.335.275-2.554.068-.638c.022-.235.046-.335.068-.509l.138-.94c.367-2.833.732-4.312,1.1-4.9.732-.934,1.464,1.083,2.195,6.087l.275,2.007.138,1,.136,1.3.549,5.413.275,2.707.068.676.07.8.136,1.674.549,6.69,2.2,26.893c1.462,15.884,2.925,22.622,4.389,19.21l.136-.347a3.159,3.159,0,0,0,.138-.4l.275-.912c.046-.134.092-.343.138-.549l.136-.61.275-1.219.273-1.221.275-1.379.549-2.723c.365-1.586.732-3.444,1.1-4.533.092-.337.183-.529.273-.8.092-.2.184-.437.275-.595a1.631,1.631,0,0,1,.549-.678c.365-.209.732.068,1.1.96a7.492,7.492,0,0,1,.273.8c.092.3.183.535.275.952l.275,1.137.273,1.435.275,1.435.136.72.138.812.549,3.23.549,3.019.068.377.07.313.138.619.136.614.138.489c.367,1.4.732,2.077,1.1,2.075s.732-.77,1.1-1.993a96.268,96.268,0,0,0,2.195-14.082l.275-2.382.273-2.586.549-5.317.551-5.15.273-2.552.138-1.277.068-.571.068-.521.551-4.148.273-2.031.275-1.536a16.521,16.521,0,0,1,1.1-4.118c.182-.351.365-.549.549-.591.182-.074.365.108.549.668.092.361.182.6.273,1.117l.07.347c.022.116.044.216.068.4l.138.962.136.96.07.481.068.634.275,2.59.549,6.724.138,1.694.136,1.979.275,4,.549,7.933.273,3.94.07.984.068.818.138,1.606.273,3.216.138,1.606.068.79.07.585.273,2.342.275,1.658c.365,2.177.732,2.464,1.1,1.742a13.16,13.16,0,0,0,1.1-3.571c.092-.363.184-.982.273-1.508l.275-1.63.138-.814c.022-.122.046-.287.068-.471l.07-.521.273-2.091c.732-6.141,1.462-13.542,2.195-21.963l1.1-12.091.275-2.973.273-2.5.549-5.006.275-2.5.273-1.937L680.4,516l.068-.475.07-.385.136-.766c.092-.545.183-.952.275-1.371l.138-.636.136-.517a10.14,10.14,0,0,1,.549-1.656,1.65,1.65,0,0,1,.549-.73c.092-.046.184-.086.275,0a1.392,1.392,0,0,1,.273.549c.046.148.092.359.138.535l.07.277.068.375.138.784.136,1.1.138,1.1.07.553c.022.158.044.4.068.666l.273,3.025.551,7.9.136,2.019.138,2.328.273,4.892,1.1,18.9.549,9.174.273,3.47c.046.634.092,1.022.138,1.49l.138,1.363.136,1.365.138.986.275,1.9.136.639.07.311.068.237c.046.169.092.257.138.389l.138.283c.73,1.556,1.463,1.766,2.195.694a6.689,6.689,0,0,0,.549-1c.182-.4.365-.886.549-1.343.365-1.009.732-2.121,1.1-3.212.183-.563.365-1.056.549-1.572s.365-.92.549-1.375c.184-.351.365-.764.549-1.063a3.732,3.732,0,0,1,.549-.718c.732-.687,1.463-.367,2.195,1.069a46.657,46.657,0,0,1,2.195,6.6c.092.325.184.62.275.892l.273.846.275.844.273.708c.092.253.184.421.275.627s.181.409.273.561a4.773,4.773,0,0,0,.549.816c.367.449.732.539,1.1.082a10.043,10.043,0,0,0,1.1-2.279,6.824,6.824,0,0,1,1.1-2.1c.367-.359.732-.265,1.1.152a4.2,4.2,0,0,1,.551.888c.181.4.365.868.549,1.3.365.992.73,2.015,1.1,2.8.365.746.73,1.151,1.1,1.069a.665.665,0,0,0,.273-.132.56.56,0,0,0,.138-.132,1.049,1.049,0,0,0,.068-.186c.024-.074.046-.226.07-.335.046-.159.09-.674.136-1.073l.07-.624c.022-.166.046-.465.068-.824l.275-3.976.273-3.9.07-.974c.022-.329.046-.68.068-.818l.138-1.155a2.484,2.484,0,0,1,.068-.413c.024-.094.046-.211.07-.285.044-.12.09-.175.136-.136a.628.628,0,0,1,.138.331l.068.269.07.5c.365,2.721.732,9.573,1.1,12.408l.068.531.07.291a.894.894,0,0,0,.136.379c.092.084.184-.03.275-.281l.068-.228.07-.323.068-.325.068-.443.07-.447.068-.658.138-1.313.549-5.287.138-1.329.068-.667c.022-.243.046-.429.068-.563a14.034,14.034,0,0,1,.275-1.5c.184-.569.365-1.125.549,1.059l.068.692.07,1.119.136,2.241.275,4.37c.365,6.52.732,3.366,1.1-4.27l.275-4.964.136-2.446c.024-.355.046-.936.07-1.091l.068-.718a6.54,6.54,0,0,1,.275-1.816c.046-.062.09-.014.136.066a1.525,1.525,0,0,1,.07.158l.068.243.068.329.07.539.138,1.078.068.567.068.9.138,1.8.549,7.28.138,1.838.068.92c.024.315.046.421.07.643l.136,1.159.07.581c.022.164.046.237.068.359.092.515.184.732.275.786a.56.56,0,0,0,.273.14c.367.058.732-.455,1.1-1.439l.275-.816.273-.948.549-1.951a14.863,14.863,0,0,1,1.1-3.019,1.122,1.122,0,0,1,.549-.531c.092,0,.183-.134.275.217a5.062,5.062,0,0,1,.138.74l.068.451.068.7.549,5.684c.092.67.184.982.275.988a1.132,1.132,0,0,0,.275-.567l.136-.491.138-.762.138-.766c.022-.146.046-.215.068-.423l.068-.562.549-4.507.275-2.281.275-1.891.136-.7c.046-.235.092-.353.138-.537a1.4,1.4,0,0,1,.275-.616c.182-.17.365.09.549.774l.136.6c.046.185.092.511.138.76l.068.411.07.569.138,1.135,1.1,8.977.136.774c.046.227.092.391.138.589a2.408,2.408,0,0,0,.275.758.23.23,0,0,0,.273.126.984.984,0,0,0,.275-.064,2.459,2.459,0,0,0,1.1-.976c1.463-2.013,2.927-8.051,4.389-11.722l.275-.668.273-.561a7.231,7.231,0,0,1,.549-.991,2.88,2.88,0,0,1,1.1-1.079.724.724,0,0,1,.549-.072,1.3,1.3,0,0,1,.549.565,13.554,13.554,0,0,1,1.1,3.226l.275,1.045.273,1.223.549,2.416.275,1.179.136.591.138.515c.184.718.367,1.243.549,1.782.367.948.732,1.431,1.1,1.365a.866.866,0,0,0,.549-.479,6.563,6.563,0,0,0,.549-1.528c.092-.335.183-.83.275-1.235.046-.225.092-.4.138-.664l.136-.814c.184-.962.367-2.49.551-3.807l.273-2.053.273-2.338.549-4.629c.183-1.488.367-3.174.551-4.312l.273-1.885c.092-.619.183-1.315.275-1.718.365-2.031.73-3.18,1.1-3.537.73-.371,1.463.555,2.195,2.346l.549,1.568.549,1.925.549,2.229.549,2.532,1.1,5.192.549,2.624.549,2.346a32.368,32.368,0,0,0,2.195,7.121,3.557,3.557,0,0,0,1.1,1.467c.365.152.732-.214,1.1-1.113.732-1.744,1.464-5.79,2.195-8.276a7.365,7.365,0,0,1,1.1-2.688c.184-.2.367-.309.549-.265.092.042.184.172.275.409.046.1.092.3.138.439a5.655,5.655,0,0,1,.136.565l.07.317.068.407.138.844c.046.3.092.521.138.882l.136,1.02.549,3.9a15.8,15.8,0,0,0,.549,2.8c.184.577.367.744.551.549.365-.345.73-2.8,1.1-5.02.092-.6.183-1.012.275-1.5.046-.237.092-.489.138-.644a5,5,0,0,1,.138-.487c.182-.591.365-.756.549-.591.73.241,1.463,8.589,2.195,9.166.73.247,1.462-2.747,2.195-7.576l.273-1.88.275-2.326.549-4.737.137-1.183.136-1.335.275-2.735.549-5.469.549-5.373c.184-1.766.365-3.705.549-5.056l.549-4.455.138-1.115c.046-.371.092-.768.136-1.01l.275-1.682a24.161,24.161,0,0,1,1.1-4.675,2.129,2.129,0,0,1,.549-.866c.092-.058.183-.116.275-.064a1.6,1.6,0,0,1,.273.792l.068.341.07.461.068.477.07.672c.092.924.182,1.664.273,3.029l.138,1.834.138,2.636.273,5.335,1.1,21.518.275,5.291.273,3.348.138,1.674c.022.251.046.618.068.776l.07.463a13.255,13.255,0,0,0,.273,1.58c.092.375.184.431.276.489a.712.712,0,0,0,.273.12.646.646,0,0,0,.549-.16,2.5,2.5,0,0,0,.549-.7,10.7,10.7,0,0,0,.549-1.223c.367-.958.732-2.306,1.1-3.549.367-1.289.732-2.658,1.1-3.777.182-.517.365-1.075.549-1.458a5.519,5.519,0,0,1,.547-1.059c.732-1.059,1.464-.844,2.2.708a19.359,19.359,0,0,1,1.1,3.138l1.1,3.9.549,1.778a14.56,14.56,0,0,0,.549,1.4,3.32,3.32,0,0,0,1.1,1.56c.365.186.732-.243,1.1-1.131.092-.2.183-.479.273-.73l.275-.78.275-.806c.09-.271.182-.477.273-.716.732-1.963,1.463-2,2.195.008l.275.73.273.828.275.8c.09.247.182.551.273.746l.138.319.138.259a1.707,1.707,0,0,0,.273.4.419.419,0,0,0,.549.116c.184-.1.365-.353.549-.906.046-.128.092-.305.138-.455l.138-.586.136-.617.138-.762c.092-.427.184-1.231.275-1.881l.273-2.045.549-4.138.275-2.141.273-1.8.138-.884.068-.429.07-.331.136-.662c.048-.22.092-.339.138-.515.367-1.431.732-1.417,1.1-.9a10.6,10.6,0,0,1,1.1,3.605l.275,1.406.138.726.136.846.551,3.4c.365,2.37.73,4.4,1.1,6.131l.138.573.07.287.068.225.275.872.136.333c.046.1.092.178.138.267a1.265,1.265,0,0,0,.276.375c2.925,3.286,5.852-17.578,8.779.493.183-.11.365-.479.549-1.111.184-.684.365-1.472.549-2.434l.275-1.383.136-.674.138-.581a5.939,5.939,0,0,1,.549-1.668.44.44,0,0,1,.549-.229,1.214,1.214,0,0,1,.548.277,2.675,2.675,0,0,1,.549.629c.092.14.183.255.275.415l.273.5c.732,1.427,1.464,3.47,2.195,4.6a1.988,1.988,0,0,0,1.1,1.008.949.949,0,0,0,.824-.261,1.837,1.837,0,0,0,.273-.485c.046-.1.092-.247.138-.369l.138-.493c.046-.176.092-.313.138-.525l.136-.648.07-.323.068-.407.138-.822c.092-.565.184-1.051.275-1.682l.549-3.783.273-1.828.273-1.546c.732-4.22,1.464-3.33,2.2-1.644a15.919,15.919,0,0,1,.549,1.808l.273,1.079.138.539c.046.18.092.425.138.633l1.1,5.265.549,2.3c.092.423.182.664.273.988l.138.461.137.361c.365,1.04.73,1.566,1.1,1.69s.732-.347,1.1-1.3l.273-.8.275-.954.549-2.161c.365-1.512.732-2.879,1.1-3.9.365-1,.732-1.445,1.1-1.421.732.024,1.464,1.175,2.195,3.208.365.982.732,2.159,1.1,3.2a25.239,25.239,0,0,0,1.1,2.879c.732,1.584,1.464,1.993,2.195,1.389s1.465-2.149,2.2-4.547c.365-1.161.73-2.554,1.1-3.871l1.1-3.9c.73-2.39,1.462-4.124,2.195-4.715a1.133,1.133,0,0,1,.549-.263c.182-.034.365,0,.549.307a12.607,12.607,0,0,1,1.1,4l.273,1.5.275,1.756.548,3.518c.184,1.257.365,2.123.549,3.138l.138.742c.046.237.09.391.136.591l.137.565c.046.2.092.3.138.449a3.482,3.482,0,0,0,.549,1.219c.184.219.365.17.549.186a2.512,2.512,0,0,0,1.1-.261,7.645,7.645,0,0,0,2.195-1.917,13.758,13.758,0,0,1,2.195-2.173,3.415,3.415,0,0,1,1.1-.511,1.3,1.3,0,0,1,.549-.058c.184.05.367.269.549.6.367.686.732,1.949,1.1,2.674a1.465,1.465,0,0,0,.549.73c.183.1.367,0,.549-.01a7.273,7.273,0,0,0,2.2-.8,15.214,15.214,0,0,0,2.195-1.52c.73-.579,1.462-1.177,2.195-1.72a7.6,7.6,0,0,1,4.39-1.706,10.047,10.047,0,0,1,4.39.76,10.962,10.962,0,0,1,4.389,3.366v5.732a10.943,10.943,0,0,1-4.389,3.366,10.046,10.046,0,0,1-4.39.76,7.6,7.6,0,0,1-4.39-1.7c-.732-.545-1.464-1.143-2.195-1.72a15.061,15.061,0,0,0-2.195-1.52,7.28,7.28,0,0,0-2.2-.8c-.182-.012-.365-.108-.549-.01a1.475,1.475,0,0,0-.549.73c-.365.724-.73,1.987-1.1,2.674-.182.333-.365.553-.549.6a1.266,1.266,0,0,1-.549-.058,3.408,3.408,0,0,1-1.1-.509,13.844,13.844,0,0,1-2.195-2.173,7.655,7.655,0,0,0-2.195-1.919,2.508,2.508,0,0,0-1.1-.259c-.184.014-.365-.036-.549.184a3.516,3.516,0,0,0-.549,1.221c-.046.152-.092.253-.138.447l-.137.567c-.046.2-.09.351-.136.591l-.138.74c-.184,1.018-.365,1.881-.549,3.141l-.548,3.516-.275,1.758-.273,1.5a12.588,12.588,0,0,1-1.1,4c-.184.309-.367.343-.549.307a1.112,1.112,0,0,1-.549-.261c-.732-.59-1.464-2.324-2.195-4.715l-1.1-3.9c-.365-1.315-.73-2.707-1.1-3.871-.732-2.4-1.464-3.956-2.2-4.547s-1.463-.193-2.195,1.391a25.2,25.2,0,0,0-1.1,2.877c-.365,1.04-.732,2.215-1.1,3.2-.73,2.033-1.462,3.184-2.195,3.21-.365.024-.732-.423-1.1-1.421-.365-1.021-.732-2.39-1.1-3.9l-.549-2.161-.275-.956-.273-.8c-.365-.948-.732-1.407-1.1-1.295s-.732.651-1.1,1.69l-.137.361-.138.459c-.092.325-.182.567-.273.988l-.549,2.306-1.1,5.263c-.046.209-.092.453-.138.632l-.138.541-.273,1.079a15.879,15.879,0,0,1-.549,1.806c-.732,1.686-1.464,2.578-2.2-1.644l-.273-1.544-.273-1.828-.549-3.783c-.092-.63-.183-1.117-.275-1.684l-.138-.82-.068-.407-.07-.325-.136-.648c-.046-.211-.092-.347-.138-.525l-.138-.491c-.046-.122-.092-.273-.138-.371a1.854,1.854,0,0,0-.273-.483.885.885,0,0,0-.275-.192.853.853,0,0,0-.549-.072,2,2,0,0,0-1.1,1.008c-.73,1.137-1.462,3.18-2.195,4.6l-.273.5c-.092.162-.184.277-.275.417a2.713,2.713,0,0,1-.549.628,1.228,1.228,0,0,1-.548.275.436.436,0,0,1-.549-.229,5.919,5.919,0,0,1-.549-1.668l-.138-.581-.136-.674-.275-1.381c-.184-.964-.365-1.752-.549-2.434-.184-.632-.365-1-.549-1.111-2.927,18.068-5.854-2.8-8.779.493a1.254,1.254,0,0,0-.276.373c-.046.09-.092.164-.138.267l-.136.333-.275.872-.068.225-.07.287-.138.575c-.365,1.728-.73,3.761-1.1,6.129l-.551,3.4-.136.848-.138.724-.275,1.409a10.612,10.612,0,0,1-1.1,3.605c-.365.511-.73.525-1.1-.906-.046-.174-.09-.3-.138-.513l-.136-.664-.07-.331-.068-.427-.138-.884-.273-1.8-.275-2.143-.549-4.136-.273-2.045c-.092-.65-.184-1.457-.275-1.883l-.138-.76-.136-.617-.138-.587c-.046-.152-.092-.327-.138-.455-.184-.555-.365-.808-.549-.906a.415.415,0,0,0-.549.116,1.694,1.694,0,0,0-.273.4l-.138.259-.138.321c-.092.2-.183.5-.273.746l-.275.794-.273.828-.275.732c-.732,2.009-1.463,1.969-2.195.008-.092-.241-.183-.445-.273-.716l-.275-.808-.275-.778c-.09-.253-.182-.533-.273-.73-.365-.89-.732-1.319-1.1-1.133a3.328,3.328,0,0,0-1.1,1.562,14.746,14.746,0,0,0-.549,1.4l-.549,1.78-1.1,3.9a19.361,19.361,0,0,1-1.1,3.138c-.732,1.55-1.464,1.768-2.2.708a5.542,5.542,0,0,1-.547-1.061c-.183-.383-.367-.942-.549-1.457-.367-1.121-.732-2.49-1.1-3.779-.365-1.241-.73-2.59-1.1-3.547a10.727,10.727,0,0,0-.549-1.225,2.484,2.484,0,0,0-.549-.7.648.648,0,0,0-.549-.162.75.75,0,0,0-.273.122c-.092.056-.184.112-.276.489a13.177,13.177,0,0,0-.273,1.58l-.07.463c-.022.158-.046.523-.068.776l-.138,1.674-.273,3.348-.275,5.291-1.1,21.518-.273,5.333-.138,2.638-.138,1.832c-.092,1.365-.182,2.107-.273,3.029l-.07.672-.068.477-.07.461-.068.343a1.6,1.6,0,0,1-.273.792c-.092.052-.183-.006-.275-.064a2.124,2.124,0,0,1-.549-.868,24.162,24.162,0,0,1-1.1-4.675l-.275-1.68c-.044-.241-.09-.638-.136-1.011l-.138-1.113-.549-4.455c-.183-1.351-.365-3.292-.549-5.058l-.549-5.373-.549-5.467-.275-2.735-.136-1.335-.137-1.185-.549-4.737-.275-2.324-.273-1.881c-.732-4.828-1.464-7.823-2.195-7.574-.732.577-1.465,8.924-2.195,9.164-.184.168-.367,0-.549-.589a4.885,4.885,0,0,1-.138-.489c-.046-.154-.092-.4-.138-.642-.092-.489-.184-.9-.275-1.5-.365-2.223-.73-4.675-1.1-5.02-.184-.2-.367-.026-.551.549a15.879,15.879,0,0,0-.549,2.8l-.549,3.9-.136,1.018c-.046.361-.092.585-.138.884l-.138.844-.068.4-.07.317a5.394,5.394,0,0,1-.136.565c-.046.144-.092.339-.138.439-.092.237-.183.369-.275.409-.181.044-.365-.06-.549-.263a7.379,7.379,0,0,1-1.1-2.69c-.73-2.486-1.463-6.53-2.195-8.276-.365-.9-.732-1.265-1.1-1.111a3.545,3.545,0,0,0-1.1,1.464,32.371,32.371,0,0,0-2.195,7.121l-.549,2.348-.549,2.624-1.1,5.19-.549,2.534-.549,2.229-.549,1.924-.549,1.57c-.732,1.792-1.464,2.717-2.195,2.346-.367-.359-.732-1.506-1.1-3.537-.092-.4-.183-1.1-.275-1.72l-.273-1.885c-.183-1.137-.367-2.823-.551-4.31l-.549-4.631-.273-2.336-.273-2.053c-.183-1.319-.367-2.845-.551-3.807l-.136-.814c-.046-.259-.092-.441-.138-.664-.092-.407-.184-.9-.275-1.237a6.58,6.58,0,0,0-.549-1.526.859.859,0,0,0-.549-.479c-.365-.068-.73.415-1.1,1.365-.182.539-.365,1.061-.549,1.782l-.138.513-.136.591-.275,1.181-.549,2.414-.273,1.223-.275,1.048a13.559,13.559,0,0,1-1.1,3.226,1.308,1.308,0,0,1-.549.563.724.724,0,0,1-.549-.07,2.887,2.887,0,0,1-1.1-1.081,7.318,7.318,0,0,1-.549-.99l-.273-.563-.275-.666c-1.463-3.673-2.927-9.709-4.389-11.722a2.453,2.453,0,0,0-1.1-.978.984.984,0,0,0-.275-.064.232.232,0,0,0-.273.126,2.431,2.431,0,0,0-.275.758c-.046.2-.092.363-.138.589l-.136.776-1.1,8.974-.138,1.137-.07.567-.068.413c-.046.247-.092.575-.138.758l-.136.6c-.183.684-.367.944-.549.772a1.373,1.373,0,0,1-.275-.617c-.046-.182-.092-.3-.138-.535l-.136-.7-.275-1.891-.275-2.279-.549-4.509-.068-.561c-.022-.209-.046-.277-.068-.423l-.138-.766-.138-.762-.136-.493a1.122,1.122,0,0,0-.275-.565c-.092.006-.184.315-.275.986l-.549,5.686-.068.7-.068.449a4.949,4.949,0,0,1-.138.74c-.092.351-.184.215-.275.219a1.121,1.121,0,0,1-.549-.531,14.887,14.887,0,0,1-1.1-3.021l-.549-1.949-.273-.95-.275-.814c-.365-.984-.73-1.5-1.1-1.439a.538.538,0,0,0-.273.138c-.092.054-.184.273-.275.786-.022.124-.046.2-.068.361l-.07.579-.136,1.161c-.024.22-.046.325-.07.641l-.068.92-.138,1.84-.549,7.278-.138,1.8-.068.9-.068.569-.138,1.075-.07.539-.068.329-.068.243a1.346,1.346,0,0,1-.07.158c-.046.082-.09.13-.136.066a6.5,6.5,0,0,1-.275-1.814l-.068-.718c-.024-.158-.046-.736-.07-1.093l-.136-2.444-.275-4.966c-.365-7.634-.732-10.788-1.1-4.27l-.275,4.371-.136,2.239-.07,1.119-.068.692c-.183,2.185-.365,1.63-.549,1.06a13.946,13.946,0,0,1-.275-1.5c-.022-.134-.046-.317-.068-.563l-.068-.664-.138-1.331-.549-5.285-.138-1.315-.068-.656-.07-.449-.068-.441-.068-.325-.07-.325-.068-.227c-.092-.251-.184-.365-.275-.279a.868.868,0,0,0-.136.377l-.07.293-.068.529c-.365,2.837-.732,9.687-1.1,12.408l-.07.5-.068.269a.628.628,0,0,1-.138.331c-.046.042-.092-.016-.136-.134-.024-.074-.046-.194-.07-.287a2.447,2.447,0,0,1-.068-.411l-.138-1.155c-.022-.14-.046-.491-.068-.82l-.07-.972-.273-3.9-.275-3.974c-.022-.361-.046-.66-.068-.824l-.07-.627c-.046-.4-.09-.914-.136-1.073-.024-.108-.046-.261-.07-.333a1.151,1.151,0,0,0-.068-.188.649.649,0,0,0-.138-.132.684.684,0,0,0-.273-.13c-.367-.082-.732.323-1.1,1.069-.367.778-.732,1.8-1.1,2.793-.184.439-.367.9-.549,1.3a4.151,4.151,0,0,1-.551.888c-.365.417-.73.511-1.1.152a6.775,6.775,0,0,1-1.1-2.1,10.04,10.04,0,0,0-1.1-2.278c-.365-.457-.73-.367-1.1.082a4.882,4.882,0,0,0-.549.818c-.092.15-.182.367-.273.561s-.184.371-.275.626l-.273.708-.275.844-.273.844c-.092.273-.183.569-.275.894a46.83,46.83,0,0,1-2.195,6.6c-.732,1.437-1.463,1.754-2.195,1.067a3.674,3.674,0,0,1-.549-.718c-.183-.3-.365-.71-.549-1.061-.184-.455-.365-.874-.549-1.377s-.365-1.008-.549-1.57c-.365-1.093-.732-2.2-1.1-3.212-.183-.457-.367-.948-.549-1.345a6.789,6.789,0,0,0-.549-1c-.732-1.071-1.464-.86-2.195.7l-.138.281c-.046.134-.092.219-.138.391l-.068.237-.07.311-.136.636-.275,1.9-.138.986-.136,1.363-.138,1.365c-.046.467-.092.856-.138,1.488l-.273,3.47-.549,9.174-1.1,18.9-.273,4.894-.138,2.328-.136,2.017-.551,7.907-.273,3.023c-.024.263-.046.509-.068.666l-.07.553-.138,1.105-.136,1.1-.138.784-.068.373L683,655c-.046.178-.092.387-.138.537a1.379,1.379,0,0,1-.273.547c-.092.09-.184.048-.275,0a1.641,1.641,0,0,1-.549-.728,10.171,10.171,0,0,1-.549-1.658l-.136-.517-.138-.634c-.092-.419-.184-.828-.275-1.373l-.136-.764-.07-.387-.068-.473-.275-1.894-.273-1.937-.275-2.5-.549-5-.273-2.5-.275-2.971-1.1-12.091c-.732-8.422-1.463-15.822-2.195-21.963l-.273-2.091-.07-.523c-.022-.184-.046-.347-.068-.469l-.138-.816-.275-1.628c-.09-.527-.182-1.147-.273-1.51a13.165,13.165,0,0,0-1.1-3.569c-.365-.724-.732-.435-1.1,1.742l-.275,1.656-.273,2.342-.07.587-.068.788-.138,1.608-.273,3.214-.138,1.608-.068.816-.07.986-.273,3.939-.549,7.933-.275,4-.136,1.979-.138,1.694-.549,6.724-.275,2.59-.068.635-.07.481-.136.962-.138.962c-.024.18-.046.279-.068.4l-.07.345c-.092.519-.182.758-.273,1.119-.183.559-.367.74-.549.666-.184-.042-.367-.237-.549-.589a16.548,16.548,0,0,1-1.1-4.118l-.275-1.538-.273-2.031-.551-4.148-.068-.519-.068-.573-.138-1.275-.273-2.552-.551-5.15-.549-5.319-.273-2.586-.275-2.382a96.268,96.268,0,0,0-2.195-14.082c-.365-1.223-.73-2-1.1-1.993s-.73.672-1.1,2.077l-.138.487-.136.617-.138.619-.07.311-.068.377-.549,3.019-.549,3.232-.138.812-.136.72-.275,1.435-.273,1.435-.275,1.135c-.092.417-.183.653-.275.952a7.193,7.193,0,0,1-.273.8c-.365.894-.732,1.171-1.1.962a1.63,1.63,0,0,1-.549-.678c-.092-.158-.184-.4-.275-.6-.09-.271-.182-.463-.273-.8-.365-1.089-.732-2.947-1.1-4.533l-.549-2.724-.275-1.379-.273-1.221-.275-1.219-.136-.611c-.046-.207-.092-.417-.138-.549l-.275-.914a3.278,3.278,0,0,0-.138-.4l-.136-.347c-1.464-3.41-2.927,3.328-4.389,19.212l-2.2,26.891-.549,6.692-.136,1.672-.07.8-.068.678-.275,2.706-.549,5.415-.136,1.3-.138,1-.275,2.007c-.73,5-1.463,7.019-2.195,6.085-.365-.585-.73-2.063-1.1-4.894l-.138-.94c-.022-.174-.046-.273-.068-.509l-.068-.638-.275-2.556-.138-1.335-.136-1.7-.275-3.392-.273-3.392-.138-1.694-.138-1.885-.549-8.19-1.1-16.626-.549-7.275-.275-3.619-.068-.9-.068-.808-.138-1.439-.275-2.877c-.022-.259-.044-.453-.068-.633l-.068-.563-.138-1.129-.275-2.219c-.09-.565-.182-1.211-.273-1.708l-.138-.7c-.046-.222-.092-.5-.138-.646-.092-.329-.182-.732-.273-1a2.931,2.931,0,0,0-.549-1.03c-.367-.449-.732-.471-1.1-.054a2.985,2.985,0,0,0-.549.944c-.092.231-.184.417-.275.688l-.273.856c-.183.666-.367,1.321-.549,2.245l-.275,1.291-.138.646c-.046.209-.09.511-.136.762l-.549,3.2-.549,3.707-1.1,7.554c-.367,2.562-.732,5.235-1.1,7.5l-.275,1.732-.275,1.55-.273,1.55c-.092.511-.184.87-.275,1.311-.73,3.635-1.463,5.678-2.195,6.2a.653.653,0,0,1-.549.126,2.017,2.017,0,0,1-.549-.17,3.43,3.43,0,0,1-1.1-.9,14.514,14.514,0,0,1-2.195-4.162c-.184-.473-.365-1.041-.549-1.558l-.549-1.873-.273-.944-.138-.473-.138-.565-.549-2.29c-.183-.7-.365-1.662-.549-2.548l-.275-1.343-.136-.672-.138-.756-.549-3.081-.549-3.609-.549-3.649-.138-.942-.138-1.1-.273-2.2-.275-2.2-.136-1.1-.138-1.325-.549-5.311Z" transform="translate(-609.337 -479.116)"/></g><path class="h" d="M793.791,476.481,682.438,714.327H602.975L714.328,476.481Z" transform="translate(-455.451 -349.021)"/><path class="h" d="M863.963,476.481,752.61,714.327H673.148L784.5,476.481Z" transform="translate(-385.615 -349.021)"/><circle class="i" cx="7.166" cy="7.166" r="7.166" transform="translate(320.457 368.863)"/><g class="j"><g transform="translate(151.082 274.808)"><g transform="translate(0 64.254)"><path class="k" d="M751.283,646.013s-24.188-3.29-29.441-21.472-6.566-28.2-2.456-39.178-26.574,13.571-26.574,13.571,4.314,14.128,1.584,25.269-19.671,47.169-19.671,47.169,41.873,1.905,45.076,3.21,46.167-2.342,48.182-3.019S751.283,646.013,751.283,646.013Z" transform="translate(-535.128 -582.537)"/><path class="l" d="M941.949,850.847a45.381,45.381,0,0,1-5.327,3.462l-34.749-50.919s-28.725,51.059-45.694,47.951c-13.214-2.424-16.953-1.441-17.955-.88-7.967-1.171-16.391-2.263-25.315-3.186-39.27-4.048-87.947-5.135-146.115,1.44-17.635,1.985-35.5-3.779-47.847-16.494a52.672,52.672,0,0,1-9.062-12.518,44.245,44.245,0,0,1-4.1-11.456c-2.677-12.883-.339-29.916,9.639-58.541,20.144-57.747,44.216-83.557,72.715-107.041.616-.507,1.247-1.03,1.877-1.538,21.357-17.44,45.347-27.055,71.729-30.884.242,3.577,9.679,12.881,23.037,6.3,6.848-3.372,10.726-6.756,8.681-11.456a209.391,209.391,0,0,1,34.467,6.034,198.567,198.567,0,0,1,37.853,14.022c9.507,4.717,77.143,39.467,95.6,113.651C968.9,769.008,973.555,826.931,941.949,850.847Z" transform="translate(-604.758 -560.094)"/><path class="l" d="M834.821,847.541c-22.37,16.921-87.8-76.873-80-80.566,8.16-3.867,25.9-25.186,26.486-32.392,2.636-32.576-25.2-59.038-25.2-59.038-22.732-24.286-40.826-22.35-44.018-38.214-1.814-9.026,1.945-20.048,8.715-29.521a198.666,198.666,0,0,1,37.855,14.03c9.5,4.707,77.133,39.465,95.6,113.653C861.777,765.7,866.426,823.624,834.821,847.541Z" transform="translate(-498.393 -557.386)"/><path class="l" d="M813.6,810.048c-22.364,16.921-87.793-76.869-80-80.554,8.164-3.869,25.906-25.2,26.488-32.4a60.452,60.452,0,0,0-3.414-24.739l52.141-26.877a156.628,156.628,0,0,1,24.224,52.534C840.552,728.209,845.207,786.134,813.6,810.048Z" transform="translate(-477.175 -519.9)"/><path class="l" d="M706.056,712.771c-1.488,6.67-11.582,52.189-40.217,60.115-7.552,2.093-8.657-.565-20.674.639C625.55,775.5,614.117,784.04,605.785,789.5c-2.677-12.883-.339-29.916,9.639-58.541,20.144-57.747,44.216-83.557,72.715-107.041a26.3,26.3,0,0,1,2.682,1.289C721.088,641.924,706.78,709.5,706.056,712.771Z" transform="translate(-604.758 -541.351)"/></g><path class="m" d="M755.17,598.9c9.591,10.263-18.2,6.979-8.655,19.03a.605.605,0,0,0,.07.1c.11.152.251.3.371.453,7.059,15.985-2.079,4.779-17.412,13.294-8.035,1.979-16.309,4.5-21.722,2.672a16.777,16.777,0,0,0-5.844-1.245c-9.641-.583-13.126.6-19.242-5.341-12.594-11.638,5.575-11.55-4.4-17.4-16.78,6.849-9.611-14.028-6.075-23.378-1.245-3.274-3.9-17,6.155-19.282a14.23,14.23,0,0,1,2.089-.289c10.363,1.736-3.827-9.743,17.392-13.286,5.966.712,14.15-6.728,21.742-2.682-.441,13.466,15.253,1.215,19.561,8.224,20.808-3.605-1.425,13.6,13.3,17.412C768.336,594.072,742.628,598.42,755.17,598.9Z" transform="translate(-542.141 -550.332)"/><path class="n" d="M750.321,598.9c9.591,10.263-18.2,6.979-8.655,19.03a.609.609,0,0,0,.07.1,47.674,47.674,0,0,1-6.036.712,48.514,48.514,0,0,1-14.15-1.335c-2.682,4.9-8.073,7.28-12.753,5.966-5.112-1.447-6.969-6.648-7.139-7.151-.331.221-4.83,3.214-7.151,1.688-2.179-1.437-2.4-6.8,1.265-12.614-6.818,2.48-14.24-.431-17.243-6.307a13.8,13.8,0,0,1,2.532-15.555c-2.542-.672-5.483-1.957-7.151-4.619-1.857-2.973-1.656-6.9-.341-11.017a14.228,14.228,0,0,1,2.089-.289c10.363,1.736-3.827-9.743,17.392-13.286,5.966.712,14.15-6.728,21.742-2.682-.441,13.466,15.253,1.215,19.561,8.224,20.808-3.605-1.425,13.6,13.3,17.412C763.487,594.072,737.779,598.42,750.321,598.9Z" transform="translate(-537.292 -550.332)"/></g></g></g><g transform="translate(514.312 643.9)"><path class="f" d="M540.639,555.1a36.424,36.424,0,0,1-22.669-15.3l-.062-.144-3.6,1.542,28.058,64.675a17.435,17.435,0,0,0-13.4.293c-8.388,3.6-12.6,12.54-9.413,19.98s12.51,10.413,20.9,6.818c8.316-3.562,12.713-11.941,9.429-19.926l.232-.1.05.114-.01-.02-.01-.026L523.919,552.69c3.342,2.442,8.392,4.862,16.77,7.159,16.584,4.543,12.033,18.607,12.033,18.607C558.837,571.054,555.7,558.368,540.639,555.1Z" transform="translate(-514.312 -517.452)"/><path class="f" d="M589.213,636.152l.006-.016.008-.018,18.15-41.207h0l.309-.7-31.554-9.288-2.119,4.9-13.951,31.75a9.8,9.8,0,0,0-5.239-5.407c-4.687-2.085-9.984-.4-11.831,3.753s.495,9.116,5.18,11.2c4.631,2.061,9.744.688,11.8-3.7l.012,0-.032.07.006-.02.008-.028L574.175,595.2l27.185,7.636-12.043,27.41a9.8,9.8,0,0,0-5.239-5.411c-4.685-2.083-9.982-.4-11.829,3.753s.407,9.312,5.092,11.395c4.631,2.061,9.836.481,11.718-3.508l.01,0Zm-13.962-43.4.966-2.191,27.1,7.819-.882,2.007Z" transform="translate(-486.398 -472.404)"/><path class="f" d="M873.62,554.131a34.934,34.934,0,0,1-9.04-24.637l.032-.146-3.665-.822L846.453,594.6a16.727,16.727,0,0,0-10.589-7.3c-8.543-1.913-16.845,2.678-18.545,10.257s3.885,15.128,12.43,17.041c8.468,1.9,16.6-2.151,18.527-10.207l.234.054-.026.116,0-.02.008-.028,13.47-61.656c1.229,3.779,3.8,8.5,9.028,14.988,10.349,12.849-1.09,21.235-1.09,21.235C878.82,576.763,883.506,565.135,873.62,554.131Z" transform="translate(-213.061 -528.527)"/><path class="f" d="M876.945,579.337a19.3,19.3,0,0,1-10.459-10.393l-.018-.082-2.271.513,8.581,37.171a9.428,9.428,0,0,0-7.157-1.159c-4.817,1.089-7.937,5.435-6.971,9.707s5.635,6.77,10.451,5.68c4.773-1.079,7.937-5.106,6.973-9.677l-.052.012.016.066,0-.012,0-.016-5.585-24.433c1.542,1.614,4.03,3.37,8.218,5.393,8.38,4.046,4.629,11.071,4.629,11.071,3.336-2.8,3.635-8.218-.892-11.794C884.744,587.745,883.577,582.108,876.945,579.337Zm2.263,10.215A19.64,19.64,0,0,1,868.794,579.4l-.678-2.947c1.54,1.626,4.022,3.4,8.254,5.447,5.491,2.652,5.77,6.584,5.309,8.978A14.182,14.182,0,0,0,879.207,589.552Z" transform="translate(-171.8 -488.385)"/></g></g></svg>