<svg xmlns="http://www.w3.org/2000/svg" width="248.981" height="148.839" viewBox="0 0 248.981 148.839"><g transform="translate(-976.51 -327.51)"><g transform="translate(1044.833 363.446)"><line x2="120.334" transform="translate(0 9.891)" fill="none" stroke="#000" stroke-miterlimit="10" stroke-width="1"/><line x2="120.334" transform="translate(0 19.881)" fill="none" stroke="#000" stroke-miterlimit="10" stroke-width="1"/><line x2="120.334" transform="translate(0 30.585)" fill="none" stroke="#000" stroke-miterlimit="10" stroke-width="1"/><line x2="120.334" transform="translate(0 41.289)" fill="none" stroke="#000" stroke-miterlimit="10" stroke-width="1"/><line x2="120.334" transform="translate(0 51.993)" fill="none" stroke="#000" stroke-miterlimit="10" stroke-width="1"/><path d="M836.731,470.854h1.695V442.079a3.9,3.9,0,0,0,1.214.513,8.484,8.484,0,0,0,5.887-1.116c3.359-1.907,5.07-5.251,3.8-7.49s-5.023-2.513-8.384-.606a10.621,10.621,0,0,0-1.474,1,7.014,7.014,0,0,0-2.708,4.294c-.013.105-.01.206-.013.308h-.016Z" transform="translate(-783.552 -402.239)"/><path d="M821.976,470.077h1.693V437.908a3.9,3.9,0,0,0,1.214.513,8.5,8.5,0,0,0,5.888-1.116c3.359-1.907,5.069-5.251,3.8-7.491s-5.023-2.512-8.383-.6a10.4,10.4,0,0,0-1.476,1A7.013,7.013,0,0,0,822,434.507c-.013.105-.009.206-.013.308h-.015Z" transform="translate(-790.356 -404.163)"/><path d="M806.592,467.533h1.695V434.141a3.888,3.888,0,0,0,1.213.511,8.479,8.479,0,0,0,5.888-1.116c3.359-1.907,5.069-5.25,3.8-7.49s-5.023-2.512-8.383-.6a10.437,10.437,0,0,0-1.474,1,7.012,7.012,0,0,0-2.709,4.3c-.013.1-.009.2-.013.308h-.015Z" transform="translate(-797.451 -405.9)"/><path d="M806.594,458.306V452.8l46.171,7.369v5.509Z" transform="translate(-797.45 -392.699)"/><g transform="translate(81.454)"><path d="M869.1,417.7H867.4V446.47a3.9,3.9,0,0,0-1.213-.511,8.479,8.479,0,0,0-5.888,1.116c-3.359,1.905-5.07,5.25-3.8,7.49s5.025,2.512,8.384.6a10.6,10.6,0,0,0,1.474-1,7.009,7.009,0,0,0,2.707-4.3,2.713,2.713,0,0,0,.013-.308h.016Z" transform="translate(-856.082 -408.886)"/><path d="M883.854,412.434h-1.695v28.8a3.9,3.9,0,0,0-1.214-.513,8.484,8.484,0,0,0-5.887,1.116c-3.361,1.907-5.07,5.251-3.8,7.49s5.023,2.513,8.384.606a10.6,10.6,0,0,0,1.474-1,7.013,7.013,0,0,0,2.708-4.294c.013-.105.01-.206.013-.308h.016Z" transform="translate(-849.278 -411.313)"/><path d="M863.528,426.089V420.58l23.879-8.914v5.509Z" transform="translate(-852.649 -411.667)"/></g></g><rect width="244" height="143.858" transform="translate(979 330)" fill="none" stroke="#7fd1d8" stroke-miterlimit="10" stroke-width="4.981"/></g></svg>