<svg xmlns="http://www.w3.org/2000/svg" width="464.574" height="384.001" viewBox="0 0 464.574 384.001"><defs><style>.a,.d{fill:#caa267;}.a,.b{fill-rule:evenodd;}.b{fill:#ba965b;}.c{fill:#c2934e;}.e{fill:#8c7cc9;}.f{opacity:0.15;}.g{fill:#f0c659;}.h{fill:#e4a653;}.i{fill:#b58543;}</style></defs><g transform="translate(-685.811 -12663.73)"><path class="a" d="M754.708,12739.073c-.348-1.194-1.421-15.566-4.716-21.512s-8.739-14.482-9.909-17.912c-1.377-4.036-4.491-7.865-2.029.882.889,3.158,2.883,9.389,3.62,10.577.357.575-.339-.4-2.237-4.911-2.017-4.791-2.72,1.977-1.493,4.271,0,0,.343.247-1.177-3.1-1.291-2.843-4.751-1.851-1.859,3.953-.051.1-2.356-4.338-3.062-3.563-1.718,1.884.464,6.994,2.495,10.2,3.961,6.256,9.739,12.2,11.307,17.574Z"/><path class="a" d="M751.29,12720.624s1.152-6.79-.146-9.8c-1.531-3.552-2.184-2.886-5.523-4.708-1.9-1.174-2.327.887,2.252,3.755.815,2.639-2.235,3.4-2.1,5.233s1.4,6.711,2.556,7.357S751.29,12720.624,751.29,12720.624Z"/><path class="b" d="M746.5,12713.446s-2.852,4.15-2.92,7.144S740.947,12711.745,746.5,12713.446Z"/><path class="c" d="M931.776,12716.729s-1.365,15.234,8.031,23.659-21.655,0-21.655,0,5.778-14.592,4.482-23.659S931.776,12716.729,931.776,12716.729Z"/><ellipse class="d" cx="16.429" cy="22.415" rx="16.429" ry="22.415" transform="translate(910.391 12677.807)"/><path class="e" d="M793.034,12813.594c24.87-52.022,69.256-75.757,97.594-82.059,12.267-2.733,21.526-2.2,24.907.724a18.367,18.367,0,0,0,11.468,4.455,24.821,24.821,0,0,0,6.439-.587,32.005,32.005,0,0,0,6.826-2.321c1.048-.485,1.66-.836,1.66-.836a66.574,66.574,0,0,1,17.345,1.036c64.114,12.553,75.27,120.056,74.7,129.3-.349,5.5-6.04,30.436-13.152,52.6-5.828,18.193-12.629,34.527-18.219,36.787-12.4,4.99-106.055,11.842-125.309,2.657-.449-.337-.936-.7-1.4-1.1-7.225-5.878-15.061-17.483-19.217-28.351,0-.014-11.068-31.209-13.327-37.562-.025-.062-.037-.112-.062-.162-.075-.249-.162-.486-.25-.711-.025-.088-.062-.162-.087-.25"/><path class="f" d="M842.951,12887.217c.025.088.063.162.088.25.087.225.174.462.249.711.025.05.038.1.063.162,2.258,6.353,13.327,37.548,13.327,37.562,4.155,10.867,11.992,22.473,19.217,28.351-4.9-17.757-20.191-69.23-19.6-89.97C853.371,12884.272,842.951,12887.205,842.951,12887.217Z"/><path class="f" d="M992.879,12812.851s-31.036,92.646,55.072,131.993l1.75,1.163-.445-21.791s-40.574-56.618-40.728-58.075S992.879,12812.851,992.879,12812.851Z"/><path class="f" d="M928.089,12740.395c.05,1.485-.736,2.458-3.12,2.135-7.437-1.012-15.835-.8-21.937,2a5.183,5.183,0,0,1-5.016-.212c-3.906-2.283-6.327-9.1-7.288-12.116a2.084,2.084,0,0,1-.1-.662c12.267-2.733,21.526-2.2,24.907.724a18.367,18.367,0,0,0,11.468,4.455A10.117,10.117,0,0,1,928.089,12740.395Z"/><path class="g" d="M920.646,12687.355s28.441,15.77,20-9.55C934.8,12660.289,901.248,12676.068,920.646,12687.355Z"/><path class="g" d="M924.769,12681.307s-15.914,9.442-14.378,18.914c0,0-3.509-28.278,12.313-28.989s21.949.815,20.544,30.72C943.248,12701.951,938.651,12678.164,924.769,12681.307Z"/><path class="g" d="M922.015,12671.415s.8-8.812,9.534-7.563,12.478,6.239,13.726,11.23,2.5,8.735,3.744,8.735c0,0-3.744,3.743-4.992,2.5,0,0,3.239,8.974-.876,16.342,0,0-1.619-11.352-7.859-12.6S922.015,12671.415,922.015,12671.415Z"/><path class="g" d="M922.814,12671.339s-6.239-3.744-12.479,4.991l-3.743,7.487s1.248,1.248,3.743,0c0,0-1.137,8.793.056,13.755l3.688-15Z"/><path class="f" d="M1020.249,12912.992s-16.052-33.664-98.351,24.2,77.241-14.2,77.241-14.2Z"/><path class="e" d="M843.351,12888.34s-75.958,32.225-94.388-37.271.741-86.164-6.753-119.993l12.217-5.883s45.986,28.352,61.728,72.123S843.351,12888.34,843.351,12888.34Z"/><path class="h" d="M685.811,13030.147h464.574l-70.134-72.7h-332l-4.356,8.972Z"/><path class="f" d="M844.987,12957.443c6.594,6.886,23.76,18.8,65.4,22.656,59.8,5.535,143.619-22.656,143.619-22.656Z"/><path class="a" d="M920.6,12965.4c-1.183-.4-13.668-7.874-20.437-8.5s-16.89-.908-20.385-1.9c-4.111-1.169-5.149.464-.413,2.272,3.078,1.174,9.385,2.994,10.781,3.052.677.027-3.733-.565-8.526-1.559-5.1-1.056-10.624-2.492-10.877-1.585-.49,1.761,14.188,5.718,16.774,6a65.047,65.047,0,0,1-6.817-.826c-3.077-.546-6.6-1.635-7.3-1-1.091,1.006,6.683,4.056,13.108,4.946.112.208-1.963.533-9.523-1.037-.76-.157-2.7.175-.207,1.324,5.237,2.422,7.31,3.85,14.9,4.086,7.4.231,15.569-1.292,20.892.493Z"/><path class="a" d="M903.427,12957.567s-5.73-6.019-12.164-7.012c-3.824-.59-3.734-1.553-4.386-1.84-2.165-.952-.07,3.065,3.179,4.1,2.64.838,4.115,5.35,5.7,6.307s6.336,2.713,7.521,2.092S903.427,12957.567,903.427,12957.567Z"/><path class="e" d="M1023.89,12749.954c23.505,21.03,39.768,40.563,49.914,104.819,5.147,32.6,3.807,65.2,2.466,82.392a20.31,20.31,0,0,1-13.959,17.662c-73.643,24.292-152.252,19.439-152.252,19.439-4.217-1.568.332-16.826.332-16.826,37.677-51.134,91.525-42.536,106.012-51.506,4.518-26.506-31.894-59.676-36.188-76.118-11.246-43.119-48.261-80.433-38.683-97.332C944.841,12726.638,1000.181,12728.74,1023.89,12749.954Z"/><rect class="i" width="464.574" height="17.584" transform="translate(685.811 13030.147)"/></g></svg>