<svg xmlns="http://www.w3.org/2000/svg" xmlns:xlink="http://www.w3.org/1999/xlink" width="463.813" height="321.792" viewBox="0 0 463.813 321.792"><defs><style>.a,.m{fill:none;}.b{fill:#bed5d9;opacity:0.49;}.c{clip-path:url(#a);}.d{fill:#c2934e;}.e,.l{fill:#caa267;}.f{fill:#8c7cc9;}.g{fill:#f1c759;}.h{opacity:0.15;}.i{opacity:0.3;}.j{opacity:0.5;}.k{fill:#f0c659;}.l{fill-rule:evenodd;}.m{stroke:#8c7cc9;stroke-miterlimit:10;stroke-width:1.093px;}.n{fill:#9382d4;}</style><clipPath id="a"><path class="a" d="M3393.635,4987.953c57.814-46.325,86.721-69.487,113.86-77.023,90.672-25.178,219.487,26.641,247.814,120.558,1.474,4.886,20.9,72.748-16.744,117.209-31.518,37.224-71.169,20.4-187.535,40.186-124.582,21.183-154.613,53.3-197.581,28.518-40.682-23.465-62.74-80.5-53.582-125.634C3306.678,5058.2,3335.756,5034.329,3393.635,4987.953Z"/></clipPath></defs><g transform="translate(-3297.81 -4904.593)"><path class="b" d="M3393.635,4987.953c57.814-46.325,86.721-69.487,113.86-77.023,90.672-25.178,219.487,26.641,247.814,120.558,1.474,4.886,20.9,72.748-16.744,117.209-31.518,37.224-71.169,20.4-187.535,40.186-124.582,21.183-154.613,53.3-197.581,28.518-40.682-23.465-62.74-80.5-53.582-125.634C3306.678,5058.2,3335.756,5034.329,3393.635,4987.953Z"/><g class="c"><path class="d" d="M3544.893,4990.283s-1.2,13.343,7.034,20.722-18.968,0-18.968,0,5.062-12.78,3.926-20.722S3544.893,4990.283,3544.893,4990.283Z"/><ellipse class="e" cx="14.389" cy="19.632" rx="14.389" ry="19.632" transform="translate(3526.162 4956.192)"/><path class="f" d="M3634.4,5118.668c-.306,4.82-5.29,26.658-11.52,46.069-5.1,15.935-11.061,30.242-15.957,32.22-10.864,4.372-92.891,10.372-109.755,2.328-.393-.295-.82-.612-1.224-.962-6.329-5.148-13.192-15.312-16.832-24.832,0-.011-9.694-27.335-11.673-32.9-.022-.055-.032-.1-.054-.142-.066-.219-.142-.426-.219-.623-.022-.076-.055-.142-.077-.219-10.208,34.855-89.994,32.319-43.718-64.484,21.783-45.566,60.659-66.354,85.48-71.873,10.744-2.394,18.854-1.924,21.816.634a16.1,16.1,0,0,0,10.044,3.9,21.8,21.8,0,0,0,5.64-.514,28.124,28.124,0,0,0,5.979-2.033c.918-.426,1.453-.732,1.453-.732a58.3,58.3,0,0,1,15.192.907C3625.133,5016.411,3634.9,5110.57,3634.4,5118.668Z"/><path class="g" d="M3607.108,5330.674h-56.545q.114-5.194.254-10.474c.118-4.809.253-9.653.389-14.445.144-5.081.288-10.119.423-15.03.136-4.708.263-9.3.382-13.7.321-12.439.541-23.421.5-31.4-.034-7.553-.3-12.4-.957-13.235-.245-.313-.5-.254-.77.169-.855,1.338-1.821,6.309-2.879,13.879-.567,4.022-1.152,8.78-1.762,14.115-.6,5.216-1.219,11-1.862,17.18-.449,4.335-.906,8.874-1.381,13.565-.533,5.377-1.083,10.94-1.642,16.63-.415,4.166-.83,8.4-1.253,12.676q-.5,5-.991,10.067h-63.04c.017-.152.034-.313.059-.465.551-3.921,1.118-8.044,1.7-12.32.694-5.081,1.406-10.373,2.126-15.784.669-5.055,1.354-10.22,2.032-15.4,1.389-10.576,2.769-21.27,4.064-31.422,1.245-9.713,2.405-18.934,3.438-27.071,2.388-19,4.014-32.151,4.014-32.151a6.381,6.381,0,0,0,.516.466.148.148,0,0,0,.042.034,7.468,7.468,0,0,0,1.787,1.067,11.14,11.14,0,0,0,2.692.754l5.725.1c4.233.076,9.855.153,16.308.22,4.826.051,10.118.093,15.622.11,1.439.009,2.888.017,4.344.009h.068c3.531.008,7.112.008,10.7-.009,5.639-.025,11.286-.084,16.706-.186,5.055-.093,9.923-.22,14.394-.4,1.94-.085,3.8-.169,5.58-.262.017.008.034,0,.051,0l.441-.026c.448-.025.694-.042.694-.042.906-.051,1.778-.11,2.633-.169s1.677-.111,2.473-.178h.008c.66-.051,1.295-.1,1.914-.161.406-.034.813-.076,1.2-.119.2-.017.39-.034.576-.059s.381-.042.567-.059.373-.043.551-.06.355-.042.533-.067c.254-.026.5-.06.745-.093.949-.127,1.8-.254,2.566-.39a18,18,0,0,0,2.913-.737c.076-.025.152-.059.228-.093a3.311,3.311,0,0,0,.4-.178c.06-.033.119-.067.17-.093s.1-.067.143-.1a1.075,1.075,0,0,0,.229-.195.923.923,0,0,1-.009.11c0,.068-.008.178-.016.322-.009.186-.017.432-.034.736-.009.2-.017.432-.034.678-.026.466-.051,1.016-.076,1.643-.009.16-.017.321-.026.491a.428.428,0,0,0-.008.1c-.009.237-.026.483-.034.737s-.034.525-.042.8c-.026.5-.051,1.024-.085,1.575-.008.228-.017.465-.034.7q-.026.507-.051,1.041c-.016.237-.025.483-.033.737-.051.94-.1,1.93-.162,2.98-.025.525-.05,1.067-.084,1.618s-.051,1.117-.085,1.7c-.042.8-.085,1.634-.127,2.48-.067,1.3-.135,2.651-.211,4.048-.034.7-.077,1.414-.11,2.142-.085,1.66-.179,3.387-.272,5.165-.076,1.279-.135,2.591-.211,3.929-.042.864-.093,1.736-.136,2.617q-.152,2.781-.3,5.707c-.194,3.59-.338,7.3-.44,11.1-.381,13.472-.237,28.095.28,42.422.194,5.072.423,10.1.7,15.03s.593,9.771.949,14.445Q3606.643,5325.6,3607.108,5330.674Z"/><path class="h" d="M3467.094,5139.61c.021.076.054.142.076.218.077.2.153.4.219.623.022.044.032.087.054.142,1.979,5.563,11.673,32.887,11.673,32.9,3.64,9.52,10.5,19.685,16.832,24.832-4.3-15.552-17.684-60.637-17.171-78.8C3476.22,5137.03,3467.094,5139.6,3467.094,5139.61Z"/><path class="h" d="M3591.244,5079.106s-33.438,78.775,39.059,119.023l1.449,1.135,1.1-19.058s-31.556-52.214-31.59-53.5S3591.244,5079.106,3591.244,5079.106Z"/><path class="h" d="M3541.663,5011.012c.044,1.3-.645,2.153-2.732,1.869-6.514-.886-13.87-.7-19.214,1.748a4.538,4.538,0,0,1-4.394-.185c-3.421-2-5.541-7.968-6.383-10.613a1.81,1.81,0,0,1-.087-.579c10.743-2.394,18.853-1.924,21.815.634a16.1,16.1,0,0,0,10.044,3.9A8.85,8.85,0,0,1,3541.663,5011.012Z"/><g class="i"><path d="M3540.578,5198.831l-.571-.047S3540.21,5198.8,3540.578,5198.831Z"/><path class="j" d="M3540.578,5198.831c15.224,1.215,48.5-.937,48.5-.937,9.778-.563,16.645-1.432,17.851-2.75,0,0,0,.04-.008.112-.072,1.528-.949,19.018-2.179,41.943a11.314,11.314,0,0,1-1.6-.185,12.457,12.457,0,0,1-8.057-5.725,27.7,27.7,0,0,1-3.134-6.544C3580.6,5203.147,3545.455,5199.269,3540.578,5198.831Z"/></g><path class="k" d="M3535.144,4964.556s24.911,13.812,17.517-8.364C3547.546,4940.849,3518.154,4954.67,3535.144,4964.556Z"/><path class="k" d="M3538.755,4959.258s-13.938,8.27-12.593,16.566c0,0-3.074-24.769,10.785-25.391s19.224.715,17.994,26.907C3554.941,4977.34,3550.914,4956.5,3538.755,4959.258Z"/><path class="k" d="M3536.343,4950.594s.7-7.717,8.351-6.624,10.929,5.464,12.022,9.836,2.186,7.651,3.279,7.651c0,0-3.279,3.279-4.372,2.186,0,0,2.837,7.86-.767,14.313,0,0-1.419-9.941-6.883-11.034S3536.343,4950.594,3536.343,4950.594Z"/><path class="k" d="M3537.043,4950.527s-5.465-3.279-10.93,4.372l-3.278,6.558s1.093,1.093,3.278,0c0,0-1,7.7.049,12.048l3.23-13.141Z"/><path class="h" d="M3595.959,5166.582s3.965-32.425-84.058-28.358,63.755,25.825,63.755,25.825Z"/><path class="l" d="M3519.063,5151.049c-1.006-.427-11.4-7.81-17.264-8.818s-14.687-1.948-17.67-3.054c-3.51-1.3-4.528.053-.516,1.955a58.34,58.34,0,0,0,9.205,3.4c.589.071-3.221-.749-7.339-1.944-4.377-1.271-9.106-2.9-9.389-2.128-.548,1.5,12,5.963,14.237,6.384a57.131,57.131,0,0,1-5.9-1.187c-2.65-.688-5.655-1.88-6.3-1.37-1.022.8,5.558,4,11.107,5.216.084.19-1.751.331-8.245-1.557-.653-.19-2.365-.032-.271,1.142,4.407,2.473,6.119,3.862,12.73,4.587,6.446.708,13.683-.063,18.208,1.86Z"/><path class="l" d="M3504.6,5143.036s-4.592-5.647-10.142-6.954c-3.3-.777-3.155-1.611-3.705-1.907-1.824-.98-.27,2.672,2.5,3.794,2.248.912,3.227,4.952,4.548,5.9s5.347,2.8,6.424,2.341S3504.6,5143.036,3504.6,5143.036Z"/><path class="f" d="M3622.626,5026.305c19.086,19.972,31.951,38.141,36.414,94.943,2.265,28.818-1.136,57.193-3.483,72.113a17.79,17.79,0,0,1-13.4,14.468c-65.967,16.173-131.821-50.38-131.821-50.38-3.575-1.659,4.867-14.21,4.867-14.21,35.58,2.417,62.735,5.641,90.212,18.756-.139-.078-23.768-54.29-26.392-68.942-6.87-38.421-36.639-73.535-27.12-87.637C3555.2,5000.538,3603.374,5006.159,3622.626,5026.305Z"/><path class="m" d="M3491.536,5330.674l.745-7.849,1.439-15.072,1.55-16.172,1.516-15.86,1.66-17.316,1.3-13.607,1.27-13.294,1.668-17.426,1.228-12.82.262-2.777.339-3.531"/><path class="m" d="M3507.726,5330.674l.55-5.7,1.423-14.725,1.533-15.851,1.5-15.546,1.71-17.731,1.3-13.5,1.3-13.489,1.888-19.483,1.126-11.719.415-4.234.034-.381"/><path class="m" d="M3536.143,5198.32l-.042.491-.356,4.42-.957,11.863-1.592,19.61-1.075,13.362-1.143,14.081-1.38,17.087-1.211,14.979-1.27,15.741-1.135,14.005-.542,6.714"/><line class="m" x2="0.343" y2="34.067" transform="translate(3551.208 5198.323)"/><path class="m" d="M3565.49,5330.674l.127-7.036.28-14.835.254-14.115.28-14.928.3-15.953.246-13.6.313-16.96.33-17.756.186-10.169.059-3.3.059-3.107v-.288l.009-.3"/><path class="m" d="M3582.315,5198.219v.067l-.017,2.558-.059,12.583-.008,1.888-.1,18.908-.084,16.6-.068,13.675-.085,15.961-.076,15.174-.068,13.81-.076,14.657-.034,6.579"/><path class="m" d="M3596.456,5198.219l.017.948.3,15.487.355,18.5.009.635.3,15.614.271,13.768.288,15.4.279,14.344.271,14.471.28,14.513.169,8.772"/><path class="m" d="M3491.229,5213.592s90.775,4.285,114.76,0"/><path class="m" d="M3551.551,5232.39c-31.761,7.194-62.156-4.178-62.156-4.178"/><path class="m" d="M3551.208,5230.241s28.663,8.054,53.84,1.253"/><path class="m" d="M3487.833,5240.565s22.889,11.983,60.067,5.874"/><path class="m" d="M3485.96,5255.276s35.618,10.874,60.179,5.279"/><path class="m" d="M3484.081,5269.891s18.14,14.221,60.2,7.842"/><path class="m" d="M3481.894,5286.7s27.66,14.452,61.008,4.6"/><path class="m" d="M3479.861,5302.1s19.59,13.906,61.394,5.829"/><path class="m" d="M3477.735,5317.891s27.039,14.135,62.272,2.715"/><path class="m" d="M3476.583,5330.674c-.373-.3-.551-.465-.551-.465"/><path class="m" d="M3552.511,5245.627s11.974,9.888,52.537,2.547"/><path class="m" d="M3552.825,5260.508s16.8,7.835,51.263,1.647"/><path class="m" d="M3552.006,5277.024s25.946,7.815,52.082,0"/><path class="m" d="M3551.632,5290.721s25.223,11.213,52.959,0"/><path class="m" d="M3551.208,5305.759s24.013,8.426,54.079,0"/><path class="m" d="M3550.821,5320.2s20.241,9.082,55.413,0"/><path class="h" d="M3536.343,5025.665c.623,2.041,5.024,9.216,3.664,15.6s-30.9,70.034-43.066,78.26-34.146,17.577-34.146,17.577l60.048-83.077,3.319-28.356S3532.45,5012.909,3536.343,5025.665Z"/><path class="l" d="M3530.807,5023.861s3.667-6.424,2.869-12.163c-.475-3.412.369-3.581.447-4.211.259-2.089-2.631.725-2.679,3.758-.039,2.465-3.509,4.875-3.92,6.473s-.693,6.1.139,6.948S3530.807,5023.861,3530.807,5023.861Z"/><path class="l" d="M3528.52,5040.507c.036-1.11,3.219-13.666,2.022-19.6s-3.6-16.216-3.65-19.45c-.055-3.8-1.712-4.271-2.043.229a79.374,79.374,0,0,0,.213,11.555,46.807,46.807,0,0,1-1.124-7.6c-.148-2.541-.747-1.536-1.595-1.3-1.567.437-.88,4.726-.457,7a21.983,21.983,0,0,1-1.138-5.585c-.112-1.294-.736-.957-1.5-.839s-1.09,1.049-.208,6.755c-.148.148-.382,1.581-.976-5.266-.06-.689-2.069-2.08-2.144.359-.13,4.278-1.025,3.9.713,10.431,1.694,6.369,5.081,12.944,4.92,17.938Z"/><path class="n" d="M3516.672,5029.918a157.038,157.038,0,0,0-56.712,19.141c-15.129,8.67-52.693,30.2-56.712,65.928-.352,3.122-3.013,30,13.469,41.116,11.029,7.441,24.9,3.956,28.581,3.031,6.542-1.644,15.3-5.329,49.4-50.528,19.379-25.687,29.3-41.4,36.863-62.383,1.27-3.527,2.215-6.486,2.835-8.507Z"/></g></g></svg>