<svg xmlns="http://www.w3.org/2000/svg" width="448.867" height="465.689" viewBox="0 0 448.867 465.689"><defs><style>.a{fill:#cecfd4;}.b{fill:#363636;}.c{fill:#69676a;}.d{fill:#6e9899;}.e,.h{fill:#caa267;}.e,.f{fill-rule:evenodd;}.f{fill:#ba965b;}.g{fill:#c2934e;}.i{fill:#8c7cc9;}.j{opacity:0.15;}.k{fill:#f0c659;}.l{fill:#e4a653;}.m{fill:#b58543;}</style></defs><g transform="translate(-109.013 -8977.063)"><path class="a" d="M531.521,9160.281H385.833c-1.618,0-4.281-1-3.281-2.231l15.729-22.337a5.575,5.575,0,0,1,4.546-1.988H514.315a6.036,6.036,0,0,1,4.912,2.143l15.569,21.967C535.888,9159.235,533.3,9160.281,531.521,9160.281Z"/><path class="b" d="M516.392,9154.421H399.754c-1.294,0-2.281-.5-2.077-1.047l4.919-13.2c.265-.712,1.695-1.235,3.373-1.235h105.2c1.49,0,2.755.47,2.971,1.1l4.508,13.274C518.827,9153.9,517.766,9154.421,516.392,9154.421Z"/><rect class="a" width="121.634" height="0.614" transform="translate(397.343 9141.213)"/><rect class="a" width="121.634" height="0.614" transform="translate(397.343 9144.284)"/><rect class="a" width="121.634" height="0.614" transform="translate(397.343 9147.971)"/><rect class="a" width="121.634" height="0.614" transform="translate(397.343 9151.349)"/><rect class="a" width="0.921" height="20.272" transform="translate(412.074 9136.319) rotate(17.439)"/><rect class="a" width="0.921" height="20.272" transform="translate(420.982 9136.319) rotate(17.439)"/><rect class="a" width="0.921" height="20.272" transform="translate(428.046 9136.319) rotate(17.439)"/><rect class="a" width="0.921" height="20.272" transform="translate(435.111 9136.319) rotate(17.439)"/><rect class="a" width="0.921" height="20.272" transform="translate(442.483 9136.319) rotate(17.439)"/><rect class="a" width="0.921" height="20.272" transform="translate(449.963 9136.089) rotate(10.978)"/><rect class="a" width="0.921" height="20.272" transform="translate(456.317 9135.991)"/><rect class="a" width="0.921" height="20.272" transform="translate(503.982 9136.595) rotate(-17.439)"/><rect class="a" width="0.921" height="20.272" transform="translate(495.381 9136.595) rotate(-17.439)"/><rect class="a" width="0.921" height="20.272" transform="translate(486.781 9136.595) rotate(-17.439)"/><rect class="a" width="0.921" height="20.272" transform="translate(478.18 9136.595) rotate(-17.439)"/><rect class="a" width="0.921" height="20.272" transform="translate(469.58 9136.595) rotate(-17.439)"/><rect class="a" width="0.921" height="20.272" transform="translate(460.98 9136.595) rotate(-17.439)"/><rect class="c" width="19.317" height="22.433" transform="translate(448.421 9101.692)"/><rect class="a" width="204.47" height="125.474" rx="4.985" transform="translate(353.41 8977.063)"/><path class="b" d="M411.6,9129.165v-3.846c0-2.134,19.729-3.857,44.049-3.857s44.047,1.724,44.047,3.857v3.846Z"/><rect class="b" width="36.722" height="4.565" transform="translate(439.16 9093.999)"/><rect class="b" width="204.391" height="112.166" rx="4.985" transform="translate(353.41 8977.063)"/><path class="d" d="M358.4,9084.229l.015-102.181,194.405.016-.015,102.165Z"/><path class="e" d="M407.914,9209.587c.264-.9,1.074-11.759,3.563-16.25s6.6-10.939,7.486-13.532c1.039-3.048,3.392-5.94,1.532.667a62.54,62.54,0,0,1-2.734,7.99c-.27.436.256-.3,1.69-3.71,1.523-3.619,2.054,1.494,1.128,3.226,0,0-.26.188.889-2.343.975-2.148,3.588-1.4,1.4,2.985.038.078,1.779-3.276,2.313-2.691,1.3,1.423-.351,5.283-1.885,7.706-2.992,4.727-7.357,9.218-8.541,13.276Z"/><path class="e" d="M410.5,9195.65s-.869-5.129.111-7.4c1.157-2.683,1.65-2.18,4.173-3.557,1.434-.888,1.757.671-1.7,2.837-.616,1.993,1.688,2.569,1.589,3.953s-1.058,5.068-1.93,5.558S410.5,9195.65,410.5,9195.65Z"/><path class="f" d="M414.114,9190.228s2.154,3.137,2.206,5.4S418.31,9188.943,414.114,9190.228Z"/><path class="g" d="M274.155,9192.708s1.031,11.508-6.068,17.872,16.359,0,16.359,0-4.365-11.022-3.386-17.872S274.155,9192.708,274.155,9192.708Z"/><ellipse class="h" cx="12.411" cy="16.932" rx="12.411" ry="16.932" transform="translate(265.488 9163.306)"/><path class="i" d="M378.963,9265.882c-18.787-39.3-52.317-57.229-73.725-61.989-9.266-2.063-16.261-1.658-18.815.548a13.884,13.884,0,0,1-8.663,3.364,18.815,18.815,0,0,1-4.864-.442,24.243,24.243,0,0,1-5.157-1.753c-.791-.368-1.253-.633-1.253-.633a50.341,50.341,0,0,0-13.1.782c-48.433,9.483-56.861,90.693-56.427,97.678.264,4.157,4.562,22.991,9.935,39.732,4.4,13.744,9.54,26.083,13.763,27.79,9.37,3.77,80.116,8.945,94.661,2.008.339-.255.707-.527,1.056-.83,5.458-4.439,11.377-13.207,14.517-21.417,0-.009,8.361-23.576,10.067-28.374.019-.047.028-.085.047-.122.057-.188.123-.367.189-.538.019-.065.047-.121.066-.187"/><path class="j" d="M341.254,9321.5c-.019.066-.047.122-.066.188-.066.171-.132.35-.188.538-.019.037-.029.075-.048.122-1.706,4.8-10.067,28.365-10.067,28.374-3.139,8.21-9.059,16.978-14.517,21.417,3.7-13.414,15.252-52.3,14.809-67.965C333.383,9319.273,341.254,9321.488,341.254,9321.5Z"/><path class="j" d="M228,9265.321s23.445,69.985-41.6,99.709l-1.322.879.336-16.462s30.651-42.771,30.766-43.871S228,9265.321,228,9265.321Z"/><path class="j" d="M276.94,9210.586c-.038,1.121.556,1.857,2.356,1.612,5.618-.765,11.963-.6,16.572,1.508a3.917,3.917,0,0,0,3.79-.16c2.95-1.725,4.779-6.872,5.505-9.153a1.589,1.589,0,0,0,.075-.5c-9.266-2.063-16.261-1.658-18.815.548a13.884,13.884,0,0,1-8.663,3.364A7.645,7.645,0,0,0,276.94,9210.586Z"/><path class="k" d="M282.562,9170.519s-21.485,11.912-15.108-7.214C271.866,9150.073,297.216,9161.992,282.562,9170.519Z"/><path class="k" d="M279.448,9165.95s12.021,7.132,10.861,14.288c0,0,2.651-21.363-9.3-21.9s-16.58.617-15.519,23.207C265.488,9181.545,268.961,9163.575,279.448,9165.95Z"/><path class="k" d="M281.528,9158.477s-.6-6.655-7.2-5.713-9.427,4.713-10.369,8.483-1.885,6.6-2.828,6.6c0,0,2.828,2.828,3.77,1.886,0,0-2.446,6.779.662,12.345,0,0,1.224-8.574,5.937-9.518S281.528,9158.477,281.528,9158.477Z"/><path class="k" d="M280.925,9158.42s4.713-2.828,9.426,3.771l2.828,5.655s-.943.943-2.828,0c0,0,.859,6.643-.042,10.392l-2.786-11.334Z"/><path class="j" d="M207.32,9340.969s12.126-25.431,74.3,18.28-58.35-10.724-58.35-10.724Z"/><path class="i" d="M340.952,9322.346s57.38,24.344,71.3-28.155-.559-65.09,5.1-90.646l-9.229-4.444s-34.739,21.418-46.631,54.483S340.952,9322.346,340.952,9322.346Z"/><path class="l" d="M459.96,9429.47H109.013l52.981-54.922h250.8l3.291,6.777Z"/><path class="j" d="M339.717,9374.548c-4.982,5.2-17.949,14.2-49.4,17.115-45.174,4.181-108.493-17.115-108.493-17.115Z"/><path class="e" d="M282.6,9380.557c.893-.3,10.324-5.946,15.438-6.419s12.759-.686,15.4-1.436c3.1-.883,3.89.351.312,1.716a50.4,50.4,0,0,1-8.144,2.306c-.511.021,2.82-.427,6.441-1.177,3.849-.8,8.025-1.883,8.216-1.2.371,1.329-10.718,4.319-12.671,4.53a49.081,49.081,0,0,0,5.15-.624c2.324-.412,4.988-1.234,5.512-.753.824.76-5.049,3.064-9.9,3.737-.085.157,1.483.4,7.194-.784.574-.119,2.035.132.156,1-3.956,1.829-5.522,2.908-11.255,3.086-5.59.175-11.76-.976-15.781.372Z"/><path class="e" d="M295.57,9374.641s4.328-4.546,9.188-5.3c2.889-.444,2.822-1.173,3.314-1.39,1.635-.719.053,2.316-2.4,3.094-1.994.633-3.108,4.041-4.307,4.765s-4.786,2.049-5.681,1.579S295.57,9374.641,295.57,9374.641Z"/><path class="i" d="M204.57,9217.806c-17.756,15.889-30.042,30.644-37.706,79.184-3.889,24.627-2.876,49.253-1.863,62.239a15.344,15.344,0,0,0,10.545,13.344c55.631,18.35,115.013,14.685,115.013,14.685,3.186-1.185-.25-12.712-.25-12.712-28.462-38.627-69.14-32.132-80.083-38.907-3.414-20.022,24.093-45.081,27.337-57.5,8.495-32.572,36.457-60.76,29.222-73.526C264.285,9200.194,222.48,9201.781,204.57,9217.806Z"/><rect class="m" width="350.947" height="13.283" transform="translate(109.013 9429.47)"/><path class="k" d="M433.759,9025.969a14.69,14.69,0,0,0-12.2,22.876l.1.152a14.684,14.684,0,0,0,24.2,0l.1-.152a14.691,14.691,0,0,0-12.206-22.874Zm12.881,16a12.93,12.93,0,0,1-1.826,5.424h-1.42a18.553,18.553,0,0,0,1.16-5.424Zm-10.186,7.176c-.824,3.077-1.934,4.463-2.7,4.463s-1.868-1.386-2.692-4.463Zm-11.542,0a14.385,14.385,0,0,0,1.241,1.981,13.137,13.137,0,0,1-2.161-1.981Zm-1.945-7.176a18.52,18.52,0,0,0,1.16,5.424h-1.418a12.926,12.926,0,0,1-1.826-5.424Zm-2.142-1.753a12.959,12.959,0,0,1,1.4-5.421h1.6a18.981,18.981,0,0,0-.894,5.421Zm22.2-7.174a14.965,14.965,0,0,0-1.668-2.852,13.029,13.029,0,0,1,2.86,2.852Zm-5.6,8.927a34.619,34.619,0,0,1-.569,5.424h-6.183a34.887,34.887,0,0,1-.569-5.424Zm-7.339-1.753a37.119,37.119,0,0,1,.436-5.421H437a36.968,36.968,0,0,1,.436,5.421Zm-1.734,1.753a38.524,38.524,0,0,0,.544,5.424h-2.884a16.874,16.874,0,0,1-1.284-5.424Zm.4-7.174a39.99,39.99,0,0,0-.421,5.421h-3.647a17.444,17.444,0,0,1,.986-5.421Zm-2.323-1.753a10.347,10.347,0,0,1,4.112-4.479,17.825,17.825,0,0,0-1.477,4.479Zm12.2,14.351a38.554,38.554,0,0,0,.544-5.424H442.8a16.876,16.876,0,0,1-1.285,5.424Zm.563-7.177a40.169,40.169,0,0,0-.423-5.421h3.083a17.422,17.422,0,0,1,.987,5.421Zm1.418,8.929a10,10,0,0,1-3.629,3.616,16.242,16.242,0,0,0,1.282-3.616Zm-2.153-16.1a17.864,17.864,0,0,0-1.478-4.479,10.357,10.357,0,0,1,4.114,4.479Zm-7.6,0c.828-3.652,2.072-5.321,2.9-5.321s2.08,1.669,2.908,5.321Zm-4.692-2.85a15.031,15.031,0,0,0-1.667,2.85H423.3A13.05,13.05,0,0,1,426.162,9030.194Zm3.1,18.952a16.246,16.246,0,0,0,1.28,3.616,10,10,0,0,1-3.627-3.616Zm12.109,1.983a14.514,14.514,0,0,0,1.243-1.983h.922A13.134,13.134,0,0,1,441.366,9051.13Zm3.225-10.912a18.954,18.954,0,0,0-.895-5.421h1.6a12.929,12.929,0,0,1,1.4,5.421Z"/><path class="k" d="M404.965,9033.205a9.9,9.9,0,0,0-5.427-2.58,10,10,0,0,0-3.927-4.47,12.467,12.467,0,0,0-6.67-1.881c-6.239,0-11.314,4.382-11.314,9.768,0,.144,0,.29.013.44h-.158c-3.921,0-7.111,2.754-7.111,6.139s3.19,6.141,7.111,6.141h9.325v2.694l-2.7-.389a.62.62,0,0,0-.439,1.058l5.054,5.054a.618.618,0,0,0,.877,0l5.053-5.054a.619.619,0,0,0-.438-1.058l-2.7.389v-2.694h6.452c5.19,0,9.412-3.646,9.412-8.127A7.513,7.513,0,0,0,404.965,9033.205Zm-6.995,10.278H377.482a2.893,2.893,0,1,1,0-5.725,3.689,3.689,0,0,1,1.081.157,5.425,5.425,0,0,0,1.284,1.863.863.863,0,0,0,.552.243.9.9,0,0,0,.59-.165l1.657-1.225a.671.671,0,0,0,.281-.476.639.639,0,0,0-.192-.507,4.258,4.258,0,0,1-1.314-3.608c0-3.578,3.373-6.489,7.52-6.489a7.758,7.758,0,0,1,6.527,3.271,13.1,13.1,0,0,0-1.965.661l-.009,0-.95.431a.742.742,0,0,0-.4.406.612.612,0,0,0,.048.533l.99,1.677a.873.873,0,0,0,1.084.306l.918-.418a7.154,7.154,0,0,1,2.79-.634c3.1,0,5.618,2.173,5.618,4.844S401.068,9043.483,397.97,9043.483Z"/><path class="k" d="M473.817,9050.012a.3.3,0,0,1-.3-.3V9026.18a.3.3,0,0,1,.256-.3l19.575-3.081a.307.307,0,0,1,.244.069.3.3,0,0,1,.106.229v23.53a.3.3,0,0,1-.606,0v-23.176l-18.97,2.985v23.271A.3.3,0,0,1,473.817,9050.012Z"/><path class="k" d="M473.817,9050.989a1.281,1.281,0,0,1-1.28-1.28v-23.53a1.272,1.272,0,0,1,1.083-1.263l19.573-3.081a1.294,1.294,0,0,1,1.035.3,1.274,1.274,0,0,1,.443.968v23.53a1.279,1.279,0,1,1-2.558,0v-22.034l-17.017,2.679v22.436A1.281,1.281,0,0,1,473.817,9050.989Z"/><path class="k" d="M473.708,9048.883c.566,1.931-1.147,4.132-3.827,4.917s-5.31-.143-5.875-2.073,1.146-4.133,3.826-4.917S473.143,9046.952,473.708,9048.883Z"/><path class="k" d="M467.977,9055.057a6.458,6.458,0,0,1-2.151-.354,3.95,3.95,0,0,1-1.895-6.464,7.491,7.491,0,0,1,7.957-2.332,4.151,4.151,0,0,1,2.757,2.7h0a4.153,4.153,0,0,1-.862,3.762,7.119,7.119,0,0,1-3.627,2.366A7.766,7.766,0,0,1,467.977,9055.057Zm1.76-7.553a5.815,5.815,0,0,0-1.63.243,5.161,5.161,0,0,0-2.635,1.691,2.018,2.018,0,0,0,1,3.424,5.551,5.551,0,0,0,5.765-1.691,2.258,2.258,0,0,0,.53-2.013h0a2.262,2.262,0,0,0-1.533-1.409A4.5,4.5,0,0,0,469.737,9047.5Z"/><path class="k" d="M467.977,9054.383a5.809,5.809,0,0,1-1.927-.314,3.281,3.281,0,0,1-1.587-5.415,6.822,6.822,0,0,1,7.2-2.111,3.281,3.281,0,0,1,1.587,5.415,6.448,6.448,0,0,1-3.285,2.134A7.08,7.08,0,0,1,467.977,9054.383Zm1.76-7.551a6.5,6.5,0,0,0-1.82.268,5.831,5.831,0,0,0-2.976,1.925,2.681,2.681,0,0,0,1.311,4.473,6.224,6.224,0,0,0,6.521-1.912,2.917,2.917,0,0,0,.645-2.617h0a2.914,2.914,0,0,0-1.956-1.854A5.192,5.192,0,0,0,469.737,9046.832Z"/><path class="k" d="M467.977,9055.36a6.764,6.764,0,0,1-2.251-.371,4.252,4.252,0,0,1-2.034-6.937,7.8,7.8,0,0,1,8.3-2.432,4.251,4.251,0,0,1,2.032,6.936,7.433,7.433,0,0,1-3.78,2.472A8.059,8.059,0,0,1,467.977,9055.36Zm1.76-7.552a5.494,5.494,0,0,0-1.545.229,4.848,4.848,0,0,0-2.48,1.587,1.72,1.72,0,0,0,.865,2.952,5.253,5.253,0,0,0,5.425-1.591,1.719,1.719,0,0,0-.864-2.95A4.186,4.186,0,0,0,469.737,9047.809Z"/><path class="k" d="M493.284,9045.8c.567,1.93-1.147,4.132-3.827,4.916s-5.31-.142-5.875-2.074,1.147-4.131,3.827-4.916S492.718,9043.872,493.284,9045.8Z"/><path class="k" d="M487.553,9051.976a6.458,6.458,0,0,1-2.151-.354,4.157,4.157,0,0,1-2.758-2.7c-.728-2.486,1.245-5.177,4.49-6.128a7.122,7.122,0,0,1,4.33.034,4.159,4.159,0,0,1,2.757,2.7h0a3.945,3.945,0,0,1-.394,3.05,6.769,6.769,0,0,1-4.1,3.077A7.759,7.759,0,0,1,487.553,9051.976Zm1.761-7.552a5.78,5.78,0,0,0-1.63.243c-2.122.62-3.571,2.317-3.165,3.7a2.264,2.264,0,0,0,1.533,1.411,5.156,5.156,0,0,0,3.13,0,4.888,4.888,0,0,0,2.931-2.14,2.068,2.068,0,0,0,.234-1.564h0a2.268,2.268,0,0,0-1.533-1.41A4.492,4.492,0,0,0,489.314,9044.424Z"/><path class="k" d="M487.554,9051.3a5.78,5.78,0,0,1-1.927-.315,3.28,3.28,0,0,1-1.588-5.414,6.83,6.83,0,0,1,7.2-2.11,3.28,3.28,0,0,1,1.587,5.414,6.436,6.436,0,0,1-3.285,2.134A7.067,7.067,0,0,1,487.554,9051.3Zm1.76-7.551a6.5,6.5,0,0,0-1.82.269,5.84,5.84,0,0,0-2.977,1.925,2.681,2.681,0,0,0,1.311,4.472,6.225,6.225,0,0,0,6.521-1.911,2.909,2.909,0,0,0,.645-2.616h0a2.912,2.912,0,0,0-1.956-1.854A5.162,5.162,0,0,0,489.314,9043.751Z"/><path class="k" d="M487.554,9052.278a6.754,6.754,0,0,1-2.253-.371,4.252,4.252,0,0,1-2.033-6.936,7.8,7.8,0,0,1,8.3-2.432,4.253,4.253,0,0,1,2.033,6.937,7.426,7.426,0,0,1-3.781,2.471A8.048,8.048,0,0,1,487.554,9052.278Zm1.76-7.551a5.482,5.482,0,0,0-1.545.229,4.861,4.861,0,0,0-2.482,1.586,1.721,1.721,0,0,0,.866,2.952,5.256,5.256,0,0,0,5.426-1.59,1.72,1.72,0,0,0-.866-2.951A4.175,4.175,0,0,0,489.314,9044.728Z"/><path class="k" d="M493.392,9023.152l-19.575,3.079v6.356l19.575-3.079Z"/><path class="k" d="M472.84,9033.731V9025.4l21.528-3.389v8.334Zm1.953-6.665v4.38l17.622-2.772v-4.38Z"/><path class="k" d="M473.817,9032.891a.3.3,0,0,1-.2-.072.3.3,0,0,1-.106-.23v-6.355a.3.3,0,0,1,.256-.3l19.575-3.08a.3.3,0,0,1,.35.3v6.356a.3.3,0,0,1-.256.3l-19.575,3.079A.262.262,0,0,1,473.817,9032.891Zm.3-6.4v5.743l18.97-2.984v-5.744Z"/><path class="k" d="M473.817,9033.867a1.28,1.28,0,0,1-1.28-1.279v-6.355a1.275,1.275,0,0,1,1.083-1.266l19.574-3.079a1.278,1.278,0,0,1,1.477,1.265v6.355a1.274,1.274,0,0,1-1.082,1.266Zm1.279-6.541v3.766l17.017-2.676v-3.767Z"/><path class="k" d="M513.2,9038.662l-1.065.627a4.139,4.139,0,0,0-1.354,1.669,18.087,18.087,0,0,1,1.965,1.329,10.591,10.591,0,0,1,1.493.563,2.739,2.739,0,0,1,.257,1.448,6.905,6.905,0,0,1-.293,1.812c-.179.6-.368.924-.566.984a.6.6,0,0,1-.2.028,5.052,5.052,0,0,1-1.97-1.133,14.015,14.015,0,0,0-2.675-1.675,5.87,5.87,0,0,1-1.426-.628,5.1,5.1,0,0,1-.7-2.016,11.711,11.711,0,0,1-.357-2.631.7.7,0,0,1,.544-.772,3.853,3.853,0,0,0,1.057-.333l1.678-1.528a14.4,14.4,0,0,1,3.566-2.332,3.485,3.485,0,0,1,1.028,1.468,4.438,4.438,0,0,1,.493,1.814.933.933,0,0,1-.546.839A8.174,8.174,0,0,0,513.2,9038.662Z"/><path class="k" d="M535.579,9029.911q-2.136,1.55-8.62,11.506-6.111,9.41-6.334,10.484a1.006,1.006,0,0,0-.145.554,5.194,5.194,0,0,1-.081.621,1.94,1.94,0,0,1-.615.934,1,1,0,0,1-.827.339,5.324,5.324,0,0,1-1.9-1.146,4.257,4.257,0,0,1-1.513-1.678,1.3,1.3,0,0,1,.008-.934q.962-1.711,6.7-10.541,6.416-9.892,8.514-12.426a4.553,4.553,0,0,1,.348-.811,1.884,1.884,0,0,1,1.261-.59,1.783,1.783,0,0,1,.326.041q.359.076,1.646,1.582t1.276,1.968A.128.128,0,0,1,535.579,9029.911Z"/><path class="k" d="M544.749,9040.037a11.737,11.737,0,0,1-.493,2.609,5.762,5.762,0,0,1-.773,1.978,9.245,9.245,0,0,1-1.455.552,13.464,13.464,0,0,0-2.793,1.533,5.185,5.185,0,0,1-1.992,1.03.453.453,0,0,1-.2-.038q-.294-.107-.531-1.013a6.445,6.445,0,0,1-.215-1.824,2.5,2.5,0,0,1,.365-1.433c.045-.086.288-.173.727-.26a2.871,2.871,0,0,0,.793-.225q.434-.316,2.03-1.226a4.405,4.405,0,0,0-1.265-1.77q-.516-.309-1.032-.649-.1-.067-.9-.515a.923.923,0,0,1-.534-.866,4.445,4.445,0,0,1,.587-1.787,3.327,3.327,0,0,1,1.134-1.412,13.871,13.871,0,0,1,3.408,2.514q.831.809,1.629,1.614a3.85,3.85,0,0,0,1.038.388C544.6,9039.334,544.76,9039.6,544.749,9040.037Z"/></g></svg>