<svg xmlns="http://www.w3.org/2000/svg" width="78.239" height="140.636" viewBox="0 0 78.239 140.636"><defs><style>.a{fill:#38383a;}.b{fill:#4a494c;}.c{fill:#232321;}.d{fill:#6f6f6e;}.e{fill:#6e9899;}</style></defs><g transform="translate(-960.788 -7142.043)"><g transform="translate(960.788 7142.043)"><g transform="translate(1.715)"><rect class="a" width="76.524" height="140.636" rx="11.392"/></g><path class="b" d="M960.8,7174.447s-.005,0-.008,0v5.5s0,0,.008,0H962.5v-5.5Z" transform="translate(-960.788 -7149.544)"/><path class="b" d="M960.8,7187.517s-.005,0-.008,0v5.5s0,0,.008,0H962.5v-5.5Z" transform="translate(-960.788 -7152.569)"/><g transform="translate(29.546 4.907)"><rect class="c" width="10.647" height="2.264" rx="1.132" transform="translate(5.107)"/><path class="c" d="M1001.5,7149.561a1.132,1.132,0,1,0-1.132,1.132A1.131,1.131,0,0,0,1001.5,7149.561Z" transform="translate(-999.233 -7148.429)"/></g><g transform="translate(34.711 126.849)"><circle class="c" cx="5.266" cy="5.266" r="5.266"/><g transform="translate(2.885 2.885)"><path class="d" d="M1013.413,7315.613h-2.648a1.059,1.059,0,0,1-1.058-1.057v-2.648a1.059,1.059,0,0,1,1.058-1.057h2.648a1.059,1.059,0,0,1,1.057,1.057v2.648A1.059,1.059,0,0,1,1013.413,7315.613Zm-2.648-3.935a.23.23,0,0,0-.23.23v2.648a.23.23,0,0,0,.23.23h2.648a.23.23,0,0,0,.23-.23v-2.648a.231.231,0,0,0-.23-.23Z" transform="translate(-1009.707 -7310.851)"/></g></g></g><g transform="translate(965.953 7160.468)"><path class="e" d="M2.774,0H66.851a2.774,2.774,0,0,1,2.774,2.774v99.832a2.773,2.773,0,0,1-2.773,2.773H2.774A2.774,2.774,0,0,1,0,102.605V2.774A2.774,2.774,0,0,1,2.774,0Z"/></g></g></svg>