<svg xmlns="http://www.w3.org/2000/svg" width="907.596" height="259.239" viewBox="0 0 907.596 259.239"><defs><style>.a{fill:#bed5d9;opacity:0.3;}.b{fill:#e2aa4d;}.c,.e,.g{fill:#fff;}.c{font-size:17px;}.c,.e{font-family:BPGArial, BPG Arial;}.d{font-family:BPGArial;}.e{font-size:18px;}.f{fill:none;stroke:#896a32;stroke-miterlimit:10;stroke-width:0.358px;}</style></defs><g transform="translate(-229.197 -209)"><rect class="a" width="907.596" height="259.239" rx="29.5" transform="translate(229.197 209)"/><g transform="translate(277.938 293.478)"><path class="b" d="M3222.792,3142.932H3001.979a106.665,106.665,0,0,0-61.389-19.188c-28.755.247-48.682,15.746-56.751,21.1-.038.028-.068.061-.124.1a4.065,4.065,0,0,0-.593,2.112v52.775a4.129,4.129,0,0,0,4.127,4.128h14.73l11.6,10.061h18.874l10.428-10.061h279.907a4.128,4.128,0,0,0,4.127-4.128v-52.775A4.127,4.127,0,0,0,3222.792,3142.932Z" transform="translate(-2883.121 -3123.739)"/><text class="c" transform="translate(36.005 51.113)"><tspan x="-20.32" y="0">when</tspan><tspan class="d"><tspan x="0" y="20"></tspan></tspan></text><text class="e" transform="translate(122.179 52.113)"><tspan x="-42.583" y="0">right arrow</tspan></text><text class="e" transform="translate(274.777 53.685)"><tspan x="-48.274" y="0">key pressed</tspan><tspan class="d"><tspan x="0" y="22"></tspan></tspan></text><rect class="f" width="131.308" height="34.432" rx="4.11" transform="translate(73.994 30.772)"/><path class="g" d="M3047.1,3164.068h18.555l-8.827,8.827Z" transform="translate(-2869.923 -3120.494)"/><g transform="translate(473.027)"><path class="b" d="M3660.584,3142.932H3439.77a106.663,106.663,0,0,0-61.389-19.188c-28.754.247-48.682,15.746-56.751,21.1-.037.028-.068.061-.123.1a4.055,4.055,0,0,0-.593,2.112v52.775a4.128,4.128,0,0,0,4.127,4.128h14.729l11.605,10.061h18.874l10.427-10.061h279.908a4.129,4.129,0,0,0,4.127-4.128v-52.775A4.128,4.128,0,0,0,3660.584,3142.932Z" transform="translate(-3320.913 -3123.739)"/><text class="c" transform="translate(36.005 51.113)"><tspan x="-20.32" y="0">when</tspan><tspan class="d"><tspan x="0" y="20"></tspan></tspan></text><text class="e" transform="translate(121.581 52.113)"><tspan x="-37.081" y="0">left arrow</tspan></text><text class="e" transform="translate(274.776 53.685)"><tspan x="-48.274" y="0">key pressed</tspan><tspan class="d"><tspan x="0" y="22"></tspan></tspan></text><rect class="f" width="131.308" height="34.432" rx="4.11" transform="translate(73.994 30.772)"/><path class="g" d="M3484.9,3164.068h18.555l-8.827,8.827Z" transform="translate(-3307.715 -3120.494)"/></g></g></g></svg>