<svg xmlns="http://www.w3.org/2000/svg" width="862.761" height="280.019" viewBox="0 0 862.761 280.019"><defs><style>.a{fill:#bed5d9;opacity:0.3;}.b{fill:#6f96f3;}.c{fill:#fff;}.d{font-size:27px;}.d,.e{font-family:HelveticaNeueLTGEO-85Heavy, Helvetica Neue LT GEO;font-weight:800;}.e{font-size:26px;}</style></defs><g transform="translate(-251 -177.355)"><rect class="a" width="862.762" height="280.019" rx="29.5" transform="translate(251 177.355)"/><g transform="translate(5.085)"><g transform="translate(767.831 266.608)"><path class="b" d="M3245.829,1234.531H3037.573l-15.076,14.548h-25.869l-16.157-14.009h-18.927a9.736,9.736,0,0,1-1.6-.48,5.638,5.638,0,0,0-5.066,5.6v72.334a5.657,5.657,0,0,0,5.657,5.657h20.188l15.905,13.79H3022.5l14.291-13.79h209.041a5.657,5.657,0,0,0,5.657-5.657v-72.334A5.657,5.657,0,0,0,3245.829,1234.531Z" transform="translate(-2954.878 -1234.531)"/><g transform="translate(12.085 38.884)"><path class="c" d="M2965.233,1281.156v-13.014h1.975v1.827a4.6,4.6,0,0,1,3.945-2.121,4.265,4.265,0,0,1,2.372.6,3.205,3.205,0,0,1,1.3,1.677,4.674,4.674,0,0,1,4.024-2.278,3.975,3.975,0,0,1,2.979,1.071,4.6,4.6,0,0,1,1.04,3.3v8.933h-2.2v-8.2a6.083,6.083,0,0,0-.211-1.907,1.842,1.842,0,0,0-.782-.937,2.425,2.425,0,0,0-1.32-.355,3.092,3.092,0,0,0-2.281.911,4.038,4.038,0,0,0-.908,2.924v7.562h-2.2V1272.7a3.719,3.719,0,0,0-.539-2.206,2.053,2.053,0,0,0-1.768-.735,3.222,3.222,0,0,0-1.722.489,2.808,2.808,0,0,0-1.146,1.434,8.061,8.061,0,0,0-.354,2.72v6.753Z" transform="translate(-2965.233 -1267.848)"/><path class="c" d="M2982.572,1274.65q0-3.617,2.007-5.357a6.066,6.066,0,0,1,4.092-1.445,5.838,5.838,0,0,1,4.388,1.759,6.69,6.69,0,0,1,1.706,4.859,8.614,8.614,0,0,1-.755,3.952,5.334,5.334,0,0,1-2.192,2.236,6.4,6.4,0,0,1-3.148.8,5.836,5.836,0,0,1-4.414-1.754A6.988,6.988,0,0,1,2982.572,1274.65Zm2.265,0a5.535,5.535,0,0,0,1.094,3.744,3.631,3.631,0,0,0,5.476-.007,5.669,5.669,0,0,0,1.088-3.812,5.384,5.384,0,0,0-1.094-3.658,3.635,3.635,0,0,0-5.47-.007A5.511,5.511,0,0,0,2984.837,1274.65Z" transform="translate(-2962.336 -1267.848)"/><path class="c" d="M2999.086,1281.114l-4.953-13.014h2.328l2.794,7.793c.306.843.581,1.717.834,2.624q.292-1.029.824-2.475l2.888-7.941h2.27l-4.926,13.014Z" transform="translate(-2960.404 -1267.806)"/><path class="c" d="M3015.043,1276.965l2.28.282a5.55,5.55,0,0,1-2,3.1,6.764,6.764,0,0,1-8.254-.655,6.876,6.876,0,0,1-1.674-4.933,7.207,7.207,0,0,1,1.689-5.1,5.737,5.737,0,0,1,4.39-1.814,5.57,5.57,0,0,1,4.267,1.776,7.061,7.061,0,0,1,1.653,5c0,.131-.006.328-.01.589h-9.707a5.008,5.008,0,0,0,1.209,3.284,3.623,3.623,0,0,0,2.726,1.139,3.373,3.373,0,0,0,2.07-.637A4.219,4.219,0,0,0,3015.043,1276.965Zm-7.241-3.567h7.266a4.366,4.366,0,0,0-.835-2.463,3.37,3.37,0,0,0-2.73-1.275,3.507,3.507,0,0,0-2.556,1.016A4.027,4.027,0,0,0,3007.8,1273.4Z" transform="translate(-2958.521 -1267.848)"/></g><g transform="translate(195.806 32.21)"><path class="c" d="M3122.65,1275.2l2.18-.344a3.066,3.066,0,0,0,1.025,2.011,3.557,3.557,0,0,0,2.345.7,3.463,3.463,0,0,0,2.261-.62,1.863,1.863,0,0,0,.734-1.452,1.341,1.341,0,0,0-.65-1.177,9.547,9.547,0,0,0-2.255-.747,20.472,20.472,0,0,1-3.363-1.061,3.2,3.2,0,0,1-1.907-2.984,3.355,3.355,0,0,1,.4-1.611,3.575,3.575,0,0,1,1.088-1.232,4.54,4.54,0,0,1,1.4-.644,6.73,6.73,0,0,1,1.906-.263,7.553,7.553,0,0,1,2.693.441,3.633,3.633,0,0,1,1.706,1.195,4.632,4.632,0,0,1,.761,2.016l-2.154.294a2.385,2.385,0,0,0-.851-1.568,3.121,3.121,0,0,0-2-.564,3.612,3.612,0,0,0-2.165.5,1.465,1.465,0,0,0-.65,1.177,1.217,1.217,0,0,0,.27.773,1.937,1.937,0,0,0,.845.588q.333.122,1.949.564a27.387,27.387,0,0,1,3.263,1.024,3.292,3.292,0,0,1,1.452,1.158,3.215,3.215,0,0,1,.529,1.888,3.716,3.716,0,0,1-.645,2.076,4.145,4.145,0,0,1-1.854,1.508,6.8,6.8,0,0,1-2.746.533,6.1,6.1,0,0,1-3.865-1.055A4.906,4.906,0,0,1,3122.65,1275.2Z" transform="translate(-3122.65 -1261.52)"/><path class="c" d="M3139.146,1277.716l.322,1.949a8.231,8.231,0,0,1-1.669.2,3.777,3.777,0,0,1-1.864-.38,2.135,2.135,0,0,1-.93-1,7.9,7.9,0,0,1-.27-2.6v-7.488h-1.615v-1.716h1.615v-3.224l2.192-1.322v4.546h2.219v1.716h-2.219V1276a3.942,3.942,0,0,0,.116,1.214.939.939,0,0,0,.381.428,1.48,1.48,0,0,0,.755.159A6.963,6.963,0,0,0,3139.146,1277.716Z" transform="translate(-3120.9 -1262.129)"/><path class="c" d="M3149.146,1274.889l2.281.282a5.553,5.553,0,0,1-2,3.1,6.007,6.007,0,0,1-3.729,1.1,5.945,5.945,0,0,1-4.525-1.759,6.876,6.876,0,0,1-1.675-4.933,7.2,7.2,0,0,1,1.69-5.1,5.735,5.735,0,0,1,4.388-1.814,5.565,5.565,0,0,1,4.267,1.778,7.051,7.051,0,0,1,1.654,5c0,.131-.006.328-.012.589h-9.705a5,5,0,0,0,1.209,3.284,3.623,3.623,0,0,0,2.725,1.14,3.375,3.375,0,0,0,2.07-.638A4.221,4.221,0,0,0,3149.146,1274.889Zm-7.24-3.565h7.266a4.367,4.367,0,0,0-.834-2.464,3.371,3.371,0,0,0-2.73-1.274,3.506,3.506,0,0,0-2.556,1.016A4.023,4.023,0,0,0,3141.907,1271.324Z" transform="translate(-3119.834 -1261.52)"/><path class="c" d="M3151.518,1284.068v-18h2.006v1.691a4.955,4.955,0,0,1,1.6-1.489,4.414,4.414,0,0,1,2.171-.5,5.138,5.138,0,0,1,2.941.858,5.251,5.251,0,0,1,1.922,2.421,9.392,9.392,0,0,1-.063,7.022,5.4,5.4,0,0,1-2.085,2.451,5.34,5.34,0,0,1-2.874.852,4.175,4.175,0,0,1-1.979-.466,4.539,4.539,0,0,1-1.442-1.176v6.335Zm2-11.422a5.637,5.637,0,0,0,1.019,3.714,3.106,3.106,0,0,0,2.461,1.2,3.186,3.186,0,0,0,2.518-1.244,5.91,5.91,0,0,0,1.046-3.855,5.762,5.762,0,0,0-1.019-3.725,3.092,3.092,0,0,0-2.445-1.237,3.179,3.179,0,0,0-2.5,1.318A5.893,5.893,0,0,0,3153.514,1272.646Z" transform="translate(-3117.826 -1261.52)"/><path class="c" d="M3162.7,1275.2l2.181-.344a3.07,3.07,0,0,0,1.025,2.011,3.556,3.556,0,0,0,2.345.7,3.458,3.458,0,0,0,2.259-.62,1.859,1.859,0,0,0,.734-1.452,1.339,1.339,0,0,0-.649-1.177,9.528,9.528,0,0,0-2.255-.747,20.469,20.469,0,0,1-3.365-1.061,3.2,3.2,0,0,1-1.906-2.984,3.363,3.363,0,0,1,.4-1.611,3.6,3.6,0,0,1,1.088-1.232,4.558,4.558,0,0,1,1.4-.644,6.745,6.745,0,0,1,1.907-.263,7.559,7.559,0,0,1,2.694.441,3.632,3.632,0,0,1,1.7,1.195,4.626,4.626,0,0,1,.761,2.016l-2.156.294a2.389,2.389,0,0,0-.85-1.568,3.126,3.126,0,0,0-2-.564,3.614,3.614,0,0,0-2.166.5,1.464,1.464,0,0,0-.649,1.177,1.217,1.217,0,0,0,.27.773,1.93,1.93,0,0,0,.845.588q.333.122,1.948.564a27.4,27.4,0,0,1,3.264,1.024,3.3,3.3,0,0,1,1.452,1.158,3.217,3.217,0,0,1,.527,1.888,3.708,3.708,0,0,1-.644,2.076,4.138,4.138,0,0,1-1.853,1.508,6.794,6.794,0,0,1-2.746.533,6.1,6.1,0,0,1-3.865-1.055A4.916,4.916,0,0,1,3162.7,1275.2Z" transform="translate(-3115.958 -1261.52)"/></g><g transform="translate(88.497 11.853)"><rect class="c" width="69.505" height="58.19" rx="4.181"/></g><text class="d" transform="translate(104.142 50.337)"><tspan x="0" y="0">10</tspan></text></g><g transform="translate(289.915 266.608)"><path class="b" d="M3634.9,1234.531H3426.646l-15.076,14.548H3385.7l-16.158-14.009h-18.926a9.778,9.778,0,0,1-1.6-.48,5.638,5.638,0,0,0-5.065,5.6v72.334a5.657,5.657,0,0,0,5.657,5.657h20.187l15.906,13.79h25.869l14.291-13.79H3634.9a5.657,5.657,0,0,0,5.657-5.657v-72.334A5.657,5.657,0,0,0,3634.9,1234.531Z" transform="translate(-3343.95 -1234.531)"/><g transform="translate(12.085 38.884)"><path class="c" d="M3354.3,1281.156v-13.014h1.975v1.827a4.593,4.593,0,0,1,3.945-2.121,4.268,4.268,0,0,1,2.372.6,3.211,3.211,0,0,1,1.3,1.677,4.674,4.674,0,0,1,4.023-2.278,3.972,3.972,0,0,1,2.978,1.071,4.6,4.6,0,0,1,1.041,3.3v8.933h-2.2v-8.2a6.047,6.047,0,0,0-.211-1.907,1.833,1.833,0,0,0-.781-.937,2.425,2.425,0,0,0-1.32-.355,3.091,3.091,0,0,0-2.281.911,4.038,4.038,0,0,0-.908,2.924v7.562h-2.2V1272.7a3.721,3.721,0,0,0-.539-2.206,2.054,2.054,0,0,0-1.768-.735,3.229,3.229,0,0,0-1.723.489,2.811,2.811,0,0,0-1.145,1.434,8.043,8.043,0,0,0-.355,2.72v6.753Z" transform="translate(-3354.305 -1267.848)"/><path class="c" d="M3371.644,1274.65q0-3.617,2.006-5.357a6.07,6.07,0,0,1,4.093-1.445,5.837,5.837,0,0,1,4.388,1.759,6.689,6.689,0,0,1,1.707,4.859,8.627,8.627,0,0,1-.755,3.952,5.334,5.334,0,0,1-2.192,2.236,6.4,6.4,0,0,1-3.147.8,5.841,5.841,0,0,1-4.415-1.754A6.994,6.994,0,0,1,3371.644,1274.65Zm2.265,0a5.535,5.535,0,0,0,1.094,3.744,3.631,3.631,0,0,0,5.476-.007,5.67,5.67,0,0,0,1.088-3.812,5.385,5.385,0,0,0-1.094-3.658,3.635,3.635,0,0,0-5.47-.007A5.511,5.511,0,0,0,3373.909,1274.65Z" transform="translate(-3351.408 -1267.848)"/><path class="c" d="M3388.158,1281.114l-4.953-13.014h2.328l2.794,7.793c.306.843.58,1.717.835,2.624q.292-1.029.824-2.475l2.889-7.941h2.27l-4.926,13.014Z" transform="translate(-3349.476 -1267.806)"/><path class="c" d="M3404.115,1276.965l2.28.282a5.554,5.554,0,0,1-2,3.1,6.764,6.764,0,0,1-8.254-.655,6.879,6.879,0,0,1-1.675-4.933,7.209,7.209,0,0,1,1.69-5.1,5.736,5.736,0,0,1,4.389-1.814,5.567,5.567,0,0,1,4.267,1.776,7.057,7.057,0,0,1,1.654,5c0,.131-.006.328-.01.589h-9.707a5.009,5.009,0,0,0,1.209,3.284,3.623,3.623,0,0,0,2.726,1.139,3.373,3.373,0,0,0,2.07-.637A4.224,4.224,0,0,0,3404.115,1276.965Zm-7.241-3.567h7.267a4.366,4.366,0,0,0-.835-2.463,3.371,3.371,0,0,0-2.73-1.275,3.507,3.507,0,0,0-2.556,1.016A4.025,4.025,0,0,0,3396.874,1273.4Z" transform="translate(-3347.593 -1267.848)"/></g><g transform="translate(195.805 32.21)"><path class="c" d="M3511.721,1275.2l2.182-.344a3.068,3.068,0,0,0,1.024,2.011,3.558,3.558,0,0,0,2.345.7,3.462,3.462,0,0,0,2.261-.62,1.86,1.86,0,0,0,.733-1.452,1.339,1.339,0,0,0-.649-1.177,9.531,9.531,0,0,0-2.255-.747,20.44,20.44,0,0,1-3.363-1.061,3.2,3.2,0,0,1-1.907-2.984,3.35,3.35,0,0,1,.4-1.611,3.57,3.57,0,0,1,1.088-1.232,4.536,4.536,0,0,1,1.4-.644,6.736,6.736,0,0,1,1.906-.263,7.555,7.555,0,0,1,2.693.441,3.629,3.629,0,0,1,1.705,1.195,4.626,4.626,0,0,1,.761,2.016l-2.155.294a2.389,2.389,0,0,0-.851-1.568,3.126,3.126,0,0,0-2-.564,3.611,3.611,0,0,0-2.165.5,1.465,1.465,0,0,0-.65,1.177,1.22,1.22,0,0,0,.27.773,1.939,1.939,0,0,0,.845.588q.333.122,1.949.564a27.479,27.479,0,0,1,3.263,1.024,3.3,3.3,0,0,1,1.452,1.158,3.218,3.218,0,0,1,.529,1.888,3.712,3.712,0,0,1-.645,2.076,4.14,4.14,0,0,1-1.854,1.508,6.785,6.785,0,0,1-2.745.533,6.1,6.1,0,0,1-3.867-1.055A4.917,4.917,0,0,1,3511.721,1275.2Z" transform="translate(-3511.721 -1261.52)"/><path class="c" d="M3528.217,1277.716l.322,1.949a8.214,8.214,0,0,1-1.668.2,3.781,3.781,0,0,1-1.865-.38,2.141,2.141,0,0,1-.929-1,7.922,7.922,0,0,1-.27-2.6v-7.488h-1.615v-1.716h1.615v-3.224l2.192-1.322v4.546h2.218v1.716H3526V1276a3.939,3.939,0,0,0,.117,1.214.937.937,0,0,0,.379.428,1.485,1.485,0,0,0,.755.159A6.945,6.945,0,0,0,3528.217,1277.716Z" transform="translate(-3509.971 -1262.129)"/><path class="c" d="M3538.218,1274.889l2.282.282a5.558,5.558,0,0,1-2,3.1,6.766,6.766,0,0,1-8.255-.655,6.88,6.88,0,0,1-1.674-4.933,7.2,7.2,0,0,1,1.69-5.1,5.734,5.734,0,0,1,4.388-1.814,5.568,5.568,0,0,1,4.267,1.778,7.051,7.051,0,0,1,1.653,5c0,.131,0,.328-.011.589h-9.706a5.009,5.009,0,0,0,1.209,3.284,3.623,3.623,0,0,0,2.726,1.14,3.369,3.369,0,0,0,2.069-.638A4.215,4.215,0,0,0,3538.218,1274.889Zm-7.239-3.565h7.266a4.364,4.364,0,0,0-.834-2.464,3.371,3.371,0,0,0-2.73-1.274,3.505,3.505,0,0,0-2.556,1.016A4.021,4.021,0,0,0,3530.979,1271.324Z" transform="translate(-3508.904 -1261.52)"/><path class="c" d="M3540.589,1284.068v-18h2.007v1.691a4.956,4.956,0,0,1,1.6-1.489,4.41,4.41,0,0,1,2.17-.5,5.14,5.14,0,0,1,2.941.858,5.25,5.25,0,0,1,1.922,2.421,9.386,9.386,0,0,1-.063,7.022,5.407,5.407,0,0,1-2.085,2.451,5.341,5.341,0,0,1-2.874.852,4.184,4.184,0,0,1-1.98-.466,4.546,4.546,0,0,1-1.441-1.176v6.335Zm2-11.422a5.64,5.64,0,0,0,1.019,3.714,3.107,3.107,0,0,0,2.461,1.2,3.187,3.187,0,0,0,2.519-1.244,5.91,5.91,0,0,0,1.046-3.855,5.753,5.753,0,0,0-1.02-3.725,3.09,3.09,0,0,0-2.444-1.237,3.18,3.18,0,0,0-2.5,1.318A5.887,5.887,0,0,0,3542.586,1272.646Z" transform="translate(-3506.897 -1261.52)"/><path class="c" d="M3551.77,1275.2l2.181-.344a3.066,3.066,0,0,0,1.025,2.011,3.555,3.555,0,0,0,2.344.7,3.46,3.46,0,0,0,2.26-.62,1.863,1.863,0,0,0,.734-1.452,1.34,1.34,0,0,0-.649-1.177,9.53,9.53,0,0,0-2.255-.747,20.433,20.433,0,0,1-3.364-1.061,3.2,3.2,0,0,1-1.906-2.984,3.366,3.366,0,0,1,.4-1.611,3.6,3.6,0,0,1,1.087-1.232,4.567,4.567,0,0,1,1.4-.644,6.748,6.748,0,0,1,1.907-.263,7.545,7.545,0,0,1,2.692.441,3.632,3.632,0,0,1,1.707,1.195,4.614,4.614,0,0,1,.76,2.016l-2.155.294a2.387,2.387,0,0,0-.849-1.568,3.128,3.128,0,0,0-2-.564,3.611,3.611,0,0,0-2.165.5,1.463,1.463,0,0,0-.649,1.177,1.217,1.217,0,0,0,.27.773,1.925,1.925,0,0,0,.845.588q.333.122,1.948.564a27.326,27.326,0,0,1,3.263,1.024,3.3,3.3,0,0,1,1.453,1.158,3.217,3.217,0,0,1,.527,1.888,3.708,3.708,0,0,1-.644,2.076,4.14,4.14,0,0,1-1.854,1.508,6.8,6.8,0,0,1-2.746.533,6.1,6.1,0,0,1-3.865-1.055A4.915,4.915,0,0,1,3551.77,1275.2Z" transform="translate(-3505.029 -1261.52)"/></g><g transform="translate(88.497 11.853)"><rect class="c" width="69.505" height="58.19" rx="4.181"/></g><text class="e" transform="translate(99.175 49.813)"><tspan x="0" y="0">-10</tspan></text></g></g></g></svg>