<svg xmlns="http://www.w3.org/2000/svg" width="1366" height="773.567" viewBox="0 0 1366 773.567"><defs><style>.a{fill:#ccc1d8;}.b{fill:#e6def0;}.c,.d,.o{fill:#000;}.d,.o{stroke:#4b3d64;}.d,.j,.o{stroke-miterlimit:10;}.d{stroke-width:6.876px;}.e,.l{fill:#caa267;}.e{fill-rule:evenodd;}.f{fill:#8c7cc9;}.g{fill:#f1c759;}.h{opacity:0.3;}.i,.r{opacity:0.5;}.j{fill:none;stroke:#8c7cc9;stroke-width:1.407px;}.k{fill:#c2934e;}.m{opacity:0.15;}.n{fill:#f0c659;}.o{stroke-width:6px;}.p{fill:#4b3d64;}.q{fill:#dca226;}.r{fill:#f1f1f1;}.s{fill:#cf592f;}.t{fill:#383130;}.u{fill:#e2e3e4;}.v{fill:#414142;}.w{fill:#fdfdfd;}.x{fill:#8d8f91;}</style></defs><g transform="translate(-4957.937 -3623.087)"><path class="a" d="M6323.938,3632.623v758.464L6081.709,4323.5l-32.991-6.263,1.636-558.092,30.118-25.561Z"/><path class="a" d="M5274.234,3748.558l-16.051,556.371-300.044,74.4V3629.274l298.844,93.571Z"/><path class="b" d="M5655.915,3712.158H5231.307v617.384h849.165V3712.158Z"/><path class="c" d="M4957.937,3683.867c121.657,30.38,335.7,73.888,615,80.372,352.971,8.194,622.428-47.1,751-78.7v-62.454h-1366Z"/><path class="c" d="M6323.937,4344.147v47.19l-202.109.41-11.321.02-3.8.01-18.8.04-20.92.04-17.04.03-2.22.01-15.089.03-17.361.03-22.719.05-20.741.04-19.75.04-993.929,2-.2-48.32c.07-.02.13-.03.2-.05a2722.805,2722.805,0,0,1,273.17-51q13.423-1.815,27.279-3.56a3058.565,3058.565,0,0,1,314.35-23.14,3116.363,3116.363,0,0,1,384.04,15q8,.81,15.871,1.66,10.513,1.11,20.819,2.29,10.665,1.215,21.09,2.48,9.887,1.185,19.54,2.43,3.72.465,7.41.95,3.557.465,7.08.93,5.88.78,11.681,1.58,10.066,1.365,19.86,2.78a.674.674,0,0,1,.14.02c2.21.31,4.4.63,6.59.95q7.018,1.02,13.91,2.06c2.789.42,5.549.84,8.3,1.27C6200.437,4316.437,6273.167,4332.087,6323.937,4344.147Z"/><path class="d" d="M6114.438,3867.087v207l66.988,8.1,21.016,2.53,77.5,9.37v-247l-77.5,9.37-21.016,2.53Z"/><path class="e" d="M5687.764,4233.759s7.187-8.2,15.568-9.845c4.982-.98,4.812-2.237,5.652-2.648,2.786-1.366.256,4.013-3.948,5.54-3.415,1.24-5.1,7.233-7.135,8.574s-8.159,3.9-9.746,3.146S5687.764,4233.759,5687.764,4233.759Z"/><path class="e" d="M5665.672,4244.95c1.529-.583,17.492-11.057,26.332-12.24s22.093-2.1,26.621-3.59c5.326-1.753,6.775.331.663,2.956-3.971,1.706-12.14,4.433-13.968,4.583-.886.072,4.864-.942,11.094-2.5,6.623-1.659,13.791-3.839,14.172-2.663.738,2.281-18.291,8.259-21.666,8.765a85.213,85.213,0,0,0,8.893-1.45c4-.881,8.568-2.5,9.511-1.7,1.485,1.26-8.543,5.677-16.917,7.191-.136.279,2.6.593,12.429-1.873.987-.247,3.541.084.342,1.725-6.734,3.457-9.375,5.44-19.31,6.159-9.689.7-20.479-.856-27.36,1.771Z"/><path class="f" d="M5672.675,4256.79c-7.765,3.039-64.148,13.379-115.9,2.012-32.665-7.16-63.473-22.986-79.06-54.751-40.275-82.112,53.836-128.689,53.836-128.689a1.572,1.572,0,0,1,.141.225c4.08,6.161,91.805,137.777,152.675,158.316C5684.365,4233.9,5685.336,4251.825,5672.675,4256.79Z"/><path class="g" d="M5260.859,4391.747l11.32.02,3.8.01a107.1,107.1,0,0,0,18.51,3.61,101.062,101.062,0,0,0,20.97.03,83.067,83.067,0,0,0,17.28-3.53l2.22.01c.36-5.61.72-11.33,1.06-17.07.38-6.18.74-12.4,1.1-18.56.38-6.54.75-13.01,1.11-19.33.15-2.49.3-4.96.44-7.39q.3-5.22.6-10.22c.58-9.67,1.15-18.65,1.71-26.5.37-5.13.73-9.78,1.1-13.82.88-9.68,1.77-15.87,2.69-16.87.35-.38.67-.26.97.3.95,1.81,1.64,8.29,2.17,18.12.18,3.39.34,7.18.48,11.32q.12,3.345.22,6.98c.19,6.76.35,14.23.49,22.23.04,2.76.09,5.58.13,8.46.05,2.97.09,6,.14,9.09.09,6.94.18,14.15.28,21.51.06,5.39.13,10.87.2,16.39.06,5.1.13,10.24.2,15.39l17.36.03,22.72.05,20.74.04,19.75.04c-.21-3.92-.42-7.99-.62-12.16-.33-6.59-.66-13.46-.99-20.48-.3-6.56-.61-13.25-.91-19.97-.14-3.31-.29-6.62-.43-9.93q-.27-5.94-.52-11.86c-.27-6.42-.53-12.77-.79-18.96-.23-5.38-.44-10.63-.65-15.71-.04-1.13-.09-2.26-.13-3.37-.23-5.58-.44-10.93-.64-15.96v-.05c-.06-1.54-.12-3.06-.18-4.54-.21-5.24-.39-10.08-.56-14.41-.54-14-.86-22.73-.86-22.73a11.408,11.408,0,0,1-6.71,2.43c-1.8-.12-4.3-.29-7.37-.49-3.68-.26-8.18-.58-13.28-.95h-.01q-3.631-.27-7.62-.57c-.59-.05-1.18-.09-1.78-.13h-.01c-5.71-.44-11.87-.93-18.28-1.46-1.85-.15-3.73-.31-5.63-.47-.54-.05-1.08-.09-1.63-.14h-.01c-3.99-.34-8.04-.69-12.1-1.06-5.11-.47-10.22-.95-15.23-1.45-2.08-.21-4.15-.42-6.18-.63-3.24-.34-6.42-.69-9.5-1.04h-.04c-3.06-.35-6.03-.71-8.87-1.07-2.38-.3-4.68-.6-6.87-.91-.11-.01-.22-.03-.33-.04-.93-.13-1.44-.21-1.44-.21-5.12-.74-9.6-1.49-13.21-2.24-1.05-.22-2.03-.44-2.93-.66-.12-.04-.25-.07-.37-.1-.2-.05-.4-.1-.59-.15-.58-.15-1.11-.3-1.6-.45-.56-.17-1.07-.34-1.52-.52-.13-.05-.26-.1-.38-.15a9.263,9.263,0,0,1-1.13-.54,2.8,2.8,0,0,1-.86-.69v.15c-.01.2-.02.61-.04,1.21-.01.15-.01.3-.02.46-.02.54-.04,1.19-.07,1.96-.02.61-.05,1.28-.07,2.03-.02.56-.04,1.16-.06,1.79-.02.34-.03.69-.04,1.05,0,.09-.01.17-.01.26-.01.34-.02.69-.04,1.05q-.059,1.965-.15,4.26-.03.825-.06,1.71c-.03,1.05-.07,2.14-.11,3.27-.05,1.42-.1,2.91-.15,4.46v.1c-.01.2-.01.41-.02.62q-.015.42-.03.84c-.02.51-.03,1.02-.05,1.53-.02.57-.04,1.15-.06,1.73-.02.52-.03,1.05-.05,1.59-.12,3.44-.24,7.09-.36,10.92-.03.63-.05,1.27-.07,1.91-.05,1.29-.09,2.6-.13,3.92-.08,2.39-.16,4.85-.24,7.35-.15,4.62-.37,9.4-.65,14.29-.34,5.79-.76,11.75-1.26,17.79q-.33,3.93-.7,7.9c-.88,9.5-1.93,19.15-3.1,28.68-.04.33-.08.66-.13.99-.76,6.15-1.57,12.24-2.42,18.21-.9,6.3-1.84,12.47-2.81,18.42-1.02,6.25-2.07,12.26-3.12,17.94C5261.509,4388.387,5261.189,4390.087,5260.859,4391.747Z"/><g class="h"><path d="M5362.544,4220.315c.248,0,.5,0,.736,0C5363.28,4220.317,5363.02,4220.313,5362.544,4220.315Z"/><path class="i" d="M5362.544,4220.315c-19.658-.121-62.093-6.551-62.093-6.551-12.477-1.8-21.188-3.671-22.589-5.5,0,0,0,.051,0,.145-.076,1.967-.881,24.492-1.832,54.026a14.59,14.59,0,0,0,2.073-.06c4.463-.437,8.069-2.87,10.964-6.454a35.66,35.66,0,0,0,4.74-8.045C5310.743,4221.435,5356.241,4220.339,5362.544,4220.315Z"/></g><path class="j" d="M5409.219,4219.317l.04,4.58.2,20.15.21,22.49v.04l.17,17.18v.92l.16,16.68.22,22.4.05,5.79.14,14.7.2,20.92.19,19.49.07,7.39"/><path class="j" d="M5388.339,4221.876l.01.5.03,3.68.18,16.93.21,19.58.06,5.62.18,17.43.01,1.35.17,16.12.24,22.91.04,3.55.18,16.56.21,20.49.2,19.05.07,6.36"/><path class="j" d="M5368.279,4220.157v.63l-.05,8.96-.02,4.56-.04,7.49-.08,14.98-.05,10.35-.09,17.26-.02,5.06-.07,13.12-.11,22.05-.03,4.93-.07,14.44-.1,20.32-.1,18.09-.04,9.56"/><line class="j" x1="4.197" y2="43.649" transform="translate(5344.771 4218.492)"/><path class="j" d="M5315.459,4395.417l.24-3.56.96-14.25,1.29-19.07,1.22-18.12.74-10.87.56-8.31.1-1.46,1.28-19.02.37-5.42.81-12.05,1.47-21.77,1.31-19.36.23-3.46.17-2.53.03-.41.6-8.93.08-1.19.56-8.24.02-.36.03-.39"/><path class="j" d="M5294.489,4395.387l.29-3.57,1.25-15.41,1.52-18.8,1.43-17.7,1.31-16.22.27-3.26,1.65-20.47.01-.1.14-1.74,1.27-15.72,1.72-21.29,1.97-24.26.16-2.02.03-.4.48-5.94,1.09-13.48.01-.08"/><path class="j" d="M5290.959,4213.367l-1.39,13.21-.2,1.91-.62,5.91-2.5,23.69-.08.81v.01l-2.11,19.98-1.86,17.64-.48,4.62-1.59,15.1v.01l-1.42,13.45-.52,4.91-1.95,18.52-1.95,18.58-2,18.92-.11,1.13"/><path class="j" d="M5424.2,4244.687s-116.879-4.517-147.163-12.657"/><path class="j" d="M5344.771,4262.141c39.936,12.728,80.168,1.5,80.168,1.5"/><path class="j" d="M5345.447,4259.422s-37.644,7.167-69.18-4.332"/><path class="j" d="M5425.578,4279.651s-30.673,12.843-77.675.908"/><path class="j" d="M5426.359,4298.723s-46.875,10.016-77.755.131"/><path class="j" d="M5427.156,4317.672s-24.831,16.235-78.062,3.416"/><path class="j" d="M5428.106,4339.471s-37.064,15.483-78.741-.835"/><path class="j" d="M5429.015,4359.445s-26.656,15.672-79.374.7"/><path class="j" d="M5430,4379.925s-36.233,15.144-80.156-3.386"/><path class="j" d="M5342.08,4279.009s-16.447,11.359-67.653-2.528"/><path class="j" d="M5340.035,4298.057s-22.412,8.194-65.92-3.542"/><path class="j" d="M5339.264,4319.327s-34.134,7.16-66.789-5.744"/><path class="j" d="M5338.233,4336.933s-33.581,11.6-67.913-5.841"/><path class="j" d="M5337.118,4356.263s-31.722,8.158-69.349-5.964"/><path class="j" d="M5336.022,4374.827s-26.958,9.413-71.06-6.112"/><path class="j" d="M5261.839,4386.657a109.86,109.86,0,0,0,10.45,3.98q1.86.615,3.69,1.14a107.1,107.1,0,0,0,18.51,3.61,101.062,101.062,0,0,0,20.97.03,83.067,83.067,0,0,0,17.28-3.53c1.22-.4,1.87-.67,1.87-.67"/><path class="k" d="M5436.743,3991.232s-3.438,16.9-16.306,22.967,23.393,6.984,23.393,6.984-1.536-17.625,2.789-27S5436.743,3991.232,5436.743,3991.232Z"/><ellipse class="l" cx="18.521" cy="25.269" rx="18.521" ry="25.269" transform="translate(5418.321 3956.953) rotate(-21.079)"/><path class="f" d="M5556.773,4258.8c-32.665-7.16-63.473-22.986-79.06-54.751-.056.085-.112.155-.169.239-.168.211-.337.436-.506.69a.77.77,0,0,0-.113.154c-4.487,6.134-26.517,36.252-26.517,36.267-7.99,10.41-20.2,20.412-29.893,24.435-.633.281-1.28.52-1.871.731-23.76,3.714-122.711-33.888-134.5-43.285-5.317-4.235-7.4-24.084-7.822-45.607-.534-26.236,1.365-55,2.758-61.067,2.363-10.171,49.081-122.7,122.387-115.579a75.244,75.244,0,0,1,19.076,4.473s.548.577,1.519,1.435a36.1,36.1,0,0,0,6.626,4.713,28.1,28.1,0,0,0,6.766,2.715,20.738,20.738,0,0,0,13.829-1.126c4.586-2.053,14.77.352,27.136,7.259,17.176,9.58,38.6,27.854,55.13,54.864a1.572,1.572,0,0,1,.141.225,176.7,176.7,0,0,1,23.69,65.034A419.4,419.4,0,0,1,5556.773,4258.8Z"/><path class="m" d="M5477.71,4204.045c-.056.086-.12.155-.175.241-.167.214-.338.442-.5.688-.043.046-.073.1-.12.155-4.488,6.133-26.506,36.262-26.51,36.275-7.994,10.4-20.2,20.41-29.9,24.428,11.024-17.6,44.138-68.273,50.193-90.865C5467.4,4197.5,5477.714,4204.031,5477.71,4204.045Z"/><path class="m" d="M5433.094,4017.986c-.533,1.588,0,2.893,2.681,3.311,8.36,1.307,17.364,4.245,23.054,9.232a5.843,5.843,0,0,0,5.487,1.389c4.955-1.207,9.768-7.786,11.78-10.739a2.36,2.36,0,0,0,.321-.682c-12.369-6.908-22.544-9.314-27.139-7.251a20.705,20.705,0,0,1-13.824,1.114A11.4,11.4,0,0,0,5433.094,4017.986Z"/><path class="n" d="M5445.968,3957.833s-23.524,28.12-24.91-1.935C5420.1,3935.1,5461.8,3938.1,5445.968,3957.833Z"/><path class="n" d="M5439.178,3953.142s20.568,3.48,22.793,14.067c0,0-7.774-31.17-24.706-25.5s-22.757,9.758-9.155,40.645C5428.11,3982.351,5423.3,3955.465,5439.178,3953.142Z"/><path class="n" d="M5438.065,3941.621s-4.413-8.945-13.1-4.091-10.6,11.623-9.885,17.379.916,10.2-.4,10.706c0,0,5.455,2.42,6.262.6,0,0,.232,10.753,7.548,16.835,0,0-2.9-12.6,3.158-16.439S5438.065,3941.621,5438.065,3941.621Z"/><path class="n" d="M5437.193,3941.864s5.045-6.467,15.15.191l6.974,6.358s-.807,1.819-3.938,1.518c0,0,4.761,8.788,5.519,14.491l-9.963-14.286Z"/><path class="m" d="M5293.539,4178.215s10.265-40.773,114.077,4.9-88.524,1.464-88.524,1.464Z"/><path class="m" d="M5339.738,4075.36s3.647,110.087-102.058,124.82l-2.266.692,7.508-23.4s62.089-48.074,62.725-49.6S5339.738,4075.36,5339.738,4075.36Z"/><path class="e" d="M5393.072,4195.2c1.406-.047,17.3-4.1,24.817-2.589s18.539,4.467,22.634,4.521c4.817.063,5.412,2.162-.287,2.587-3.7.277-11.1.21-12.63-.179-.74-.188,4.215.594,9.713,1.066,5.845.5,12.279.734,12.26,1.8-.038,2.059-17.17,1.6-20.054,1.069a73.581,73.581,0,0,0,7.631,1.306c3.5.4,7.661.363,8.2,1.276.855,1.439-8.527,2.226-15.755,1.116-.188.189,1.949,1.21,10.623,1.952.871.074,2.854,1.057-.2,1.5-6.438.927-9.138,1.8-17.412-.391-8.068-2.138-16.4-6.417-22.726-6.206Z"/><path class="e" d="M5414.151,4192.278s8.13-4.653,15.4-3.65c4.322.6,4.536-.473,5.332-.573,2.646-.331-.913,3.333-4.755,3.4-3.122.053-6.17,4.451-8.193,4.973s-7.719.887-8.8-.166S5414.151,4192.278,5414.151,4192.278Z"/><path class="f" d="M5326.524,3997.415c-32.173,15.137-56.041,30.992-87.723,97.131-16.074,33.555-25.14,69.2-29.237,88.206a22.9,22.9,0,0,0,9.383,23.581c71.718,49.991,181.635.593,181.635.593,5.062-.335.741-19.318.741-19.318-43.844-13.587-77.945-22.3-117.016-19.284.2-.03,53.7-54.177,63.64-70.554,26.054-42.951,78.072-71.321,73.177-92.665C5419.434,3997.723,5358.977,3982.146,5326.524,3997.415Z"/><path class="o" d="M5155.64,3854.572V4084.98L5098.873,4094l-17.81,2.816-65.672,10.43V3832.311l65.672,10.43,17.81,2.816Z"/><path class="g" d="M5078.909,4000.223a1.088,1.088,0,0,0,.465-.483c1.221-2.508,5.329-4.4,9.678-6.4,5.951-2.737,12.7-5.838,14.78-11.742,1.235-3.5.7-7.486-1.632-12.18-7.016-14.116-17.885-14.085-27.474-14.057-8.3.024-14.859.042-18.024-8.325a7.616,7.616,0,0,1,.007-6.433c2.7-5.25,12.642-7.876,23.166-10.656,12.254-3.238,24.926-6.587,29.042-14.781,1.857-3.7,1.773-8.126-.248-13.164a1.088,1.088,0,1,0-2.02.81c1.805,4.5,1.911,8.219.324,11.378-3.676,7.318-15.866,10.538-27.654,13.653-11,2.907-21.4,5.653-24.544,11.765a9.789,9.789,0,0,0-.109,8.2c3.7,9.777,11.65,9.754,20.066,9.73,9.393-.027,19.1-.055,25.52,12.85,2.058,4.139,2.558,7.57,1.528,10.488-1.776,5.035-8.077,7.932-13.637,10.489-4.711,2.167-9.164,4.214-10.725,7.422a1.087,1.087,0,0,0,1.491,1.435Z"/><path class="g" d="M5084.156,4027.048l-11.29,22.09a17.184,17.184,0,0,1-23.653,5.6l-6.946-4.288a17.187,17.187,0,0,1-5.6-23.655l14.693-19.989Z"/><path class="p" d="M5083.039,3999.945c8.078,4.988,8.517,14.3,3.532,22.378l-2.415,4.725-16.4-10.123,11.807-19.124Z"/><path class="p" d="M5054.5,4002.525c4.985-8.074,13.51-11.856,21.589-6.868l3.473,2.144-11.807,19.124-16.4-10.123Z"/><path class="q" d="M5066.14,4017.851l1.52.938a1.375,1.375,0,0,0,1.774-.694l7.045-11.41a1.381,1.381,0,0,0-.172-1.9l-1.52-.938a1.378,1.378,0,0,0-1.775.7l-7.045,11.41A1.375,1.375,0,0,0,5066.14,4017.851Z"/><rect class="q" width="7.653" height="1.15" transform="translate(5075.058 4004.012) rotate(-58.309)"/><ellipse class="r" cx="10.15" cy="4.728" rx="10.15" ry="4.728" transform="matrix(0.582, -0.813, 0.813, 0.582, 5040.303, 4031.399)"/><path class="s" d="M6209.977,3907.6l-1.1-1.442c-1.189.11-1.549-.867-2.09-1.6a34.607,34.607,0,0,1-4.259-8.875c-.284.093-.489.1-.587.2-.579.622-1.135,1.266-1.7,1.905-5.641,6.417-11.58,12.425-19.265,16.525-6.468,3.452-12.323,7.876-18.115,12.378-7.935,6.167-13.617,13.759-15.493,23.8-.591,3.167-1.5,6.369-.65,10.437,2.133-4.1,4.11-7.467,5.691-11.014,3.682-8.263,10.157-12.9,18.662-15.272,6.072-1.7,12.166-1.047,18.272-.711a43.161,43.161,0,0,1,22.342,7.86,22.47,22.47,0,0,1,7.518,7.86c.733,1.4,1.362,1.5,2.458.762.248.717-.107,1.02-.31,1.376-5.481,9.619-7.511,19.811-4.914,30.7,1.805,7.567,9.736,13.077,17.344,12.034-1.656-2.739-3.259-5.5-3.628-8.634a48.68,48.68,0,0,1,8.853-35.034c3.388-4.736,7.627-8.935,14.487-7.507.068.014.187-.217.338-.4a17.127,17.127,0,0,0-8.7-5.441c-4.61-1.437-8.3.824-12.01,3.222a10.344,10.344,0,0,1,6.547-4.5c2.136-.392,2.171-1.358,1.242-2.752-4.46-6.688-9.294-13.037-16.227-17.437a86.3,86.3,0,0,0-12.264-6.242C6211.426,3909.367,6209.986,3909.214,6209.977,3907.6Z"/><path class="t" d="M6216.5,3910.367a51.041,51.041,0,0,1,26.039,24.441,2.442,2.442,0,0,0,1.886,1.431c9.873,2,16.924,11.783,17.032,22.405a45.231,45.231,0,0,1-7.262,24.632c-6.4,10.244-16.169,16.965-30.318,10.1a1.93,1.93,0,0,0-2.132.1c-4.388,3.2-9.551,4.776-14.487,6.936a10.12,10.12,0,0,0,2.422,3.87c5.426,6.652,6.457,18.277-.447,27.162a2.139,2.139,0,0,0-.305,1.883q.536,3.783.949,7.582c.1.941.144,1.946-1.325,1.9q-9.186-.279-18.375-.512c-.86-.023-1.52-.243-1.554-1.258a1.821,1.821,0,0,1,1.289-1.971,4.941,4.941,0,0,1,2.022-.145c1.634.208,1.908-.56,1.578-1.927-.82-3.388-.756-7.176-4.34-9.286a1.981,1.981,0,0,1-.775-.995c-.574-1.653-1.463-1.906-2.9-.9-3.317,2.329-6.282-1.088-5.9-4.049a14.393,14.393,0,0,1,2.771-7.028,6.22,6.22,0,0,0,1.394-2.682c.493-2.849.947-5.7,1.5-8.542.233-1.187-.048-1.61-1.313-1.762a104.637,104.637,0,0,1-16.159-3.586c-8.844-2.522-16.2-6.969-20.711-15.322a4.423,4.423,0,0,0-1.4-1.431,14.486,14.486,0,0,1-5.743-7.888c-3.341-10.625-1.926-20.636,4.764-29.509a110.271,110.271,0,0,1,29.922-27.068c6.9-4.318,14.332-7.9,19.682-14.382,2.219-2.686,4.73-5.13,7.06-7.726,1.043-1.163,1.856-1.222,2.3.376a45.213,45.213,0,0,0,5.21,10.928c-1.189.11-1.549-.867-2.09-1.6a34.607,34.607,0,0,1-4.259-8.875c-.284.093-.489.1-.587.2-.579.622-1.135,1.266-1.7,1.905-5.641,6.417-11.58,12.425-19.265,16.525-6.468,3.452-12.323,7.876-18.115,12.378-7.935,6.167-13.617,13.759-15.493,23.8-.591,3.167-1.5,6.369-.65,10.437,2.133-4.1,4.11-7.467,5.691-11.014,3.682-8.263,10.157-12.9,18.662-15.272,6.072-1.7,12.166-1.047,18.272-.711a43.161,43.161,0,0,1,22.342,7.86,22.47,22.47,0,0,1,7.518,7.86c.733,1.4,1.362,1.5,2.458.762.957.043-.107,1.02-.31,1.376-5.481,9.619-7.511,19.811-4.914,30.7,1.805,7.567,9.736,13.077,17.344,12.034-1.656-2.739-3.259-5.5-3.628-8.634a48.68,48.68,0,0,1,8.853-35.034c3.388-4.736,7.627-8.935,14.487-7.507.068.014.187-.217.338-.4a17.127,17.127,0,0,0-8.7-5.441c-4.61-1.437-8.3.824-12.01,3.222a10.344,10.344,0,0,1,6.547-4.5c2.136-.392,2.171-1.358,1.242-2.752-4.46-6.688-9.294-13.037-16.227-17.437a86.3,86.3,0,0,0-12.264-6.242c-1-.428-2.435-.581-2.444-2.2Q6213.238,3908.982,6216.5,3910.367Zm-73.26,40.948a51.416,51.416,0,0,0,.187,17.743,21.427,21.427,0,0,0,.7,2.064c.712-4.041,1.583-7.476,1.231-11.239-.5-5.379.857-10.619,2.687-15.7.43-1.194.807-2.407,1.209-3.611.217-.133.4-.282.106-.5-.019-.014-.2.184-.3.283A16.27,16.27,0,0,0,6143.237,3951.315Zm71.446,16.405a38.488,38.488,0,0,1,4.274-14.068,2.6,2.6,0,0,0-.22-2.808,23.811,23.811,0,0,0-7.623-8.1c-10.292-7.251-21.977-8.82-34.083-7.917-7.844.585-15.175,3.267-19.952,9.894a67.852,67.852,0,0,0-10.928,22c-2.793,10.467,3.429,22.337,13.989,27.359,7.427,3.532,15.4,5.336,23.483,6.533a21.039,21.039,0,0,1,9.184,3.508c.857.6,1.4.873,2.181-.285,1.143-1.7,3.052-2.359,5.009-2.756,7.67-1.558,14.647-4.846,21.7-8.607C6213.64,3985.674,6213.685,3976.777,6214.683,3967.72Zm19.344,24.693a3.884,3.884,0,0,0,4.9,1.864c7.707-2.079,12.353-7.477,15.741-14.169a52.426,52.426,0,0,0,5.48-17.368c.633-5.273.179-10.62-3.443-14.925-3.836-4.558-7.773-4.665-12.356-.8-5.392,4.547-8.416,10.607-10.641,17.078a49.463,49.463,0,0,0-2.824,15.565C6230.884,3983.03,6231.138,3988,6234.027,3992.413Zm-26.339,49.279c1.635.056,1.144-1.264,1.037-2.024-.462-3.281-1.063-6.542-1.6-9.812-.09-.545-.564-1.118.081-1.657,1.359.071.668,1.5,1.423,2.114a6.067,6.067,0,0,0,2.244-3.5c-4.666-.733-5.97-1.75-6.074-6.539-.082-3.777-.508-7.7-2.586-10.954-.264-.414-.562-.908-.374-1.362.02-.048.054-.1.106-.1a.156.156,0,0,1,.1.043,3.812,3.812,0,0,1,.933.994,15.438,15.438,0,0,1,.913,1.691c.325.762.95.769,1.687.429.6-.277.314.987.294,1.5a40.206,40.206,0,0,0,.181,8.915,6.808,6.808,0,0,0,1.016,2.857,2.7,2.7,0,0,0,4.859-.607,17.4,17.4,0,0,0,.717-9.792,27.391,27.391,0,0,0-5.417-11.429,2.466,2.466,0,0,0-3.026-1.147c-1.944.6-3.95.993-5.931,1.467-1.145.273-2.31.872-2.478,1.972-.447,2.932-1.517,1.514-2.841.686s-2.987-2.425-4.26-1.707c-1.175.663-.622,2.782-.357,4.246.313,1.724-.289,3.81,1.6,5.15.145.1-.15.942-.349,1.392-4.242,9.617.585,15.876,9.563,16.648.218.018.419.224.659.36-1.625.842-1.625.842-6.369-.5.544,2.663,1.095,5.191,1.557,7.734.136.746.242.876,1.085.723,3.983-.727,3.985-.672,3.312-4.773a1.847,1.847,0,0,1,.344-1.888c1.164,1.884,1.368,3.994,1.847,5.972.307,1.267-.963,1.12-1.725,1.314-1.146.292-2.488-.239-4.177,1.079C6200.153,4041.38,6203.92,4041.564,6207.688,4041.692Zm-23.38-26.873c-.148.793-.2,1.4-1.314,1.814-1.911.7-2.925,6.177-1.694,7.785a2.357,2.357,0,0,0,2.742.837c1.278-.419,2.613-1.006,2.956-2.5,1.085-4.727.854-14.41-.447-20.133C6185.779,4006.829,6185.051,4010.826,6184.308,4014.819Zm-43.065-59.9c-3.8,5.378-1.306,20.026,4.092,24.275C6141.867,3971.559,6140.992,3963.5,6141.243,3954.923Zm52.772,86.32c.434.033.876-.109.861-.675s-.473-.638-.9-.578a22.479,22.479,0,0,0-3.259.194.434.434,0,0,0,.017.841A17.7,17.7,0,0,0,6194.015,4041.243Zm-52.336-88.209c.069-.13.193-.26.193-.39s-.128-.252-.2-.378l-.219.393Z"/><path class="u" d="M6200,4001.083c-1.957.4-3.866,1.056-5.009,2.756-.778,1.158-1.324.882-2.181.285a21.039,21.039,0,0,0-9.184-3.508c-8.088-1.2-16.056-3-23.483-6.533-10.56-5.022-16.782-16.892-13.989-27.359a67.852,67.852,0,0,1,10.928-22c4.777-6.627,12.108-9.309,19.952-9.894,12.106-.9,23.791.666,34.083,7.917a23.811,23.811,0,0,1,7.623,8.1,2.6,2.6,0,0,1,.22,2.808,38.488,38.488,0,0,0-4.274,14.068c-1,9.057-1.043,17.954,7.012,24.756C6214.644,3996.237,6207.667,3999.525,6200,4001.083Zm-38.266-37.478a5.841,5.841,0,0,0,6.017-5.659c.03-3.3-2.322-5.66-5.811-5.828-3.54-.172-5.849,1.913-5.992,5.41A5.729,5.729,0,0,0,6161.731,3963.6Zm33.083-3a5.9,5.9,0,1,0,11.8.124,5.7,5.7,0,0,0-5.874-5.748A5.561,5.561,0,0,0,6194.814,3960.608Zm-2.873,13.024c.525-.175,1.443-.275,1.211-1-.351-1.1-1.147-.2-1.665-.041-6.457,2.053-12.941,2.886-19.5.516-1.093-.4-2.3-.725-2.812-2-.152-.374-.424-.871-.919-.536-.6.406-.2.919.1,1.3a7.247,7.247,0,0,0,3.061,2.231,18.031,18.031,0,0,0,7.131,1.406A35.22,35.22,0,0,0,6191.941,3973.632Z"/><path class="v" d="M6233.707,3964.093c2.225-6.471,5.249-12.531,10.641-17.078,4.583-3.865,8.52-3.758,12.356.8,3.622,4.305,4.076,9.652,3.443,14.925a52.426,52.426,0,0,1-5.48,17.368c-3.388,6.692-8.034,12.09-15.741,14.169a3.884,3.884,0,0,1-4.9-1.864c-2.889-4.415-3.143-9.383-3.144-12.755A49.463,49.463,0,0,1,6233.707,3964.093Zm6.727,19.752c1.22,2.831,3.433,3.514,5.853,1.621,5.537-4.331,8.518-10.235,10.125-16.916.428-1.779,1.007-3.532.4-5.488-1.106-3.554-3.876-4.561-6.723-2.136a28.047,28.047,0,0,0-8.711,13.49c-.611,2.011-1.516,3.988-1.31,6.06A6.731,6.731,0,0,0,6240.434,3983.845Z"/><path class="s" d="M6195.678,4041.187c4.475.193,8.242.377,12.01.5,1.635.056,1.144-1.264,1.037-2.024-.462-3.281-1.063-6.542-1.6-9.812-.09-.545-.564-1.118.081-1.657,1.359.071.668,1.5,1.423,2.114a6.067,6.067,0,0,0,2.244-3.5c-4.666-.733-5.97-1.75-6.074-6.539-.091-4.188-.315-8.023-2.761-11.515a1.586,1.586,0,0,1-.2-.857c1.156.174,1.515,4.924,3.657,3.194.516-.417.393.9.373,1.417a40.206,40.206,0,0,0,.181,8.915,6.808,6.808,0,0,0,1.016,2.857,2.7,2.7,0,0,0,4.859-.607,17.4,17.4,0,0,0,.717-9.792,27.391,27.391,0,0,0-5.417-11.429,2.466,2.466,0,0,0-3.026-1.147c-1.944.6-3.95.993-5.931,1.467-1.145.273-2.31.872-2.478,1.972-.447,2.932-1.517,1.514-2.841.686s-2.987-2.425-4.26-1.707c-1.175.663-.932,2.818-.667,4.281.311,2.141.021,3.947,1.907,5.115.151.093-.15.942-.349,1.392-4.242,9.617.585,15.876,9.563,16.648.218.018.419.224.659.36-1.625.842-1.625.842-6.369-.5.544,2.663,1.095,5.191,1.557,7.734.136.746.242.876,1.085.723,3.983-.727,3.985-.672,3.312-4.773a2.262,2.262,0,0,1,.007-1.385.347.347,0,0,1,.621,0,22.73,22.73,0,0,1,1.563,5.472c.307,1.267-.963,1.12-1.725,1.314C6198.709,4040.4,6197.367,4039.869,6195.678,4041.187Z"/><path class="s" d="M6186.551,4002.625c-.772,4.2-1.5,8.2-2.243,12.194-.148.793-.2,1.4-1.314,1.814-1.911.7-2.925,6.177-1.694,7.785a2.357,2.357,0,0,0,2.742.837c1.278-.419,2.613-1.006,2.956-2.5C6188.083,4018.031,6187.852,4008.348,6186.551,4002.625Z"/><path class="s" d="M6149.057,3940.354a16.274,16.274,0,0,0-5.82,10.961,51.416,51.416,0,0,0,.187,17.743,21.427,21.427,0,0,0,.7,2.064c.712-4.041,1.583-7.476,1.231-11.239-.5-5.379.857-10.619,2.687-15.7.43-1.194.807-2.407,1.209-3.611C6149.189,3940.5,6149.122,3940.429,6149.057,3940.354Z"/><path class="v" d="M6145.335,3979.2c-3.468-7.639-4.343-15.7-4.092-24.275C6137.444,3960.3,6139.937,3974.949,6145.335,3979.2Z"/><path class="s" d="M6190.123,4040.384a.248.248,0,0,0,.014.461,12.48,12.48,0,0,0,3.878.4c.434.033.876-.109.861-.675s-.473-.638-.9-.578C6192.823,4040.154,6191.592,4039.778,6190.123,4040.384Z"/><path class="v" d="M6141.454,3952.659l.225.375c.069-.13.193-.26.193-.39s-.128-.252-.2-.378Z"/><path class="s" d="M6149.255,3940.577c.217-.133.4-.282.106-.5-.019-.014-.2.184-.3.283C6149.122,3940.429,6149.189,3940.5,6149.255,3940.577Z"/><path class="t" d="M6161.937,3952.118c3.489.168,5.841,2.528,5.811,5.828a5.841,5.841,0,0,1-6.017,5.659,5.729,5.729,0,0,1-5.786-6.077C6156.088,3954.031,6158.4,3951.946,6161.937,3952.118Zm-.44,9.3c2.315.127,3.793-1.1,3.958-3.279a3.717,3.717,0,1,0-3.958,3.279Z"/><path class="t" d="M6206.614,3960.732a5.9,5.9,0,1,1-11.8-.124,5.561,5.561,0,0,1,5.926-5.624A5.7,5.7,0,0,1,6206.614,3960.732Zm-6.152,3.606a3.538,3.538,0,0,0,4.055-3.264,3.97,3.97,0,0,0-3.694-4.1,3.8,3.8,0,0,0-3.917,3.536A3.561,3.561,0,0,0,6200.462,3964.338Z"/><path class="t" d="M6178.549,3975.508a35.22,35.22,0,0,0,13.392-1.876c.525-.175,1.443-.275,1.211-1-.351-1.1-1.147-.2-1.665-.041-6.457,2.053-12.941,2.886-19.5.516-1.093-.4-2.3-.725-2.812-2-.152-.374-.424-.871-.919-.536-.6.406-.2.919.1,1.3a7.247,7.247,0,0,0,3.061,2.231A18.031,18.031,0,0,0,6178.549,3975.508Z"/><path class="t" d="M6241.377,3974.416a28.047,28.047,0,0,1,8.711-13.49c2.847-2.425,5.617-1.418,6.723,2.136.608,1.956.029,3.709-.4,5.488-1.607,6.681-4.588,12.585-10.125,16.916-2.42,1.893-4.633,1.21-5.853-1.621a6.731,6.731,0,0,1-.367-3.369C6239.861,3978.4,6240.766,3976.427,6241.377,3974.416Zm1.3,10.213c.926,1.065,2.449.31,3.438-.544,6.21-5.362,9.209-12.255,9.476-20.38.047-1.418-.14-1.511-1.889-2.765a24.416,24.416,0,0,1-2.614,12.411,32,32,0,0,1-5.774,8.351c-.358.367-.64.811-1.253.683-.274-1.359.972-1.816,1.6-2.612,3.867-4.906,6.673-10.241,6.935-16.639.023-.565.312-1.306-.25-1.658-.7-.442-1.324.194-1.784.617a27.22,27.22,0,0,0-9.109,19.286c-.144,2.825,1.975.052,2.621,1C6244.033,3983.444,6241.77,3983.589,6242.675,3984.629Z"/><path class="w" d="M6158.048,3957.616a3.419,3.419,0,0,0,3.449,3.8c2.315.127,3.793-1.1,3.958-3.279a3.713,3.713,0,0,0-7.407-.518Z"/><path class="w" d="M6196.906,3960.507a3.826,3.826,0,0,0,7.611.567,3.97,3.97,0,0,0-3.694-4.1A3.8,3.8,0,0,0,6196.906,3960.507Z"/><path class="x" d="M6244.059,3982.385c-.274-1.359.972-1.816,1.6-2.612,3.867-4.906,6.673-10.241,6.935-16.639.023-.565.312-1.306-.25-1.658-.7-.442-1.324.194-1.784.617a27.22,27.22,0,0,0-9.109,19.286c-.144,2.825,1.975.052,2.621,1Z"/><path class="x" d="M6244.071,3982.375c-.038,1.069-2.3,1.214-1.4,2.254.926,1.065,2.449.31,3.438-.544,6.21-5.362,9.209-12.255,9.476-20.38.047-1.418-.14-1.511-1.889-2.765a24.416,24.416,0,0,1-2.614,12.411,32,32,0,0,1-5.774,8.351c-.358.367-.64.811-1.253.683Z"/></g></svg>