<svg xmlns="http://www.w3.org/2000/svg" width="245.513" height="146.748" viewBox="0 0 245.513 146.748"><defs><style>.a{fill:#bed5d9;opacity:0.3;}.b{fill:#6f96f3;}.c{fill:#fff;}.d{font-size:15px;font-family:HelveticaNeueLTGEO-85Heavy, Helvetica Neue LT GEO;font-weight:800;}</style></defs><g transform="translate(-545.487 -277)"><rect class="a" width="245.513" height="146.748" rx="29.5" transform="translate(545.487 277)"/><g transform="translate(591.987 326.448)"><path class="b" d="M3754.45,9765.6H3635.1l-8.641,8.338h-14.824l-9.26-8.029h-10.847a5.388,5.388,0,0,1-.917-.274,3.23,3.23,0,0,0-2.9,3.208v41.454a3.241,3.241,0,0,0,3.242,3.242h11.569q4.557,3.952,9.116,7.9h14.824l8.191-7.9h119.8a3.242,3.242,0,0,0,3.242-3.242v-41.454A3.242,3.242,0,0,0,3754.45,9765.6Z" transform="translate(-3587.707 -9765.597)"/><g transform="translate(6.926 22.285)"><path class="c" d="M3596.267,9800.767v-7.46h1.132v1.047a2.646,2.646,0,0,1,.935-.881,2.611,2.611,0,0,1,1.325-.334,2.441,2.441,0,0,1,1.358.345,1.832,1.832,0,0,1,.748.962,2.679,2.679,0,0,1,2.306-1.307,2.275,2.275,0,0,1,1.707.615,2.631,2.631,0,0,1,.6,1.892v5.121h-1.259v-4.7a3.467,3.467,0,0,0-.122-1.092,1.046,1.046,0,0,0-.447-.538,1.393,1.393,0,0,0-.757-.2,1.77,1.77,0,0,0-1.308.522,2.314,2.314,0,0,0-.521,1.676v4.334H3600.7v-4.847a2.136,2.136,0,0,0-.309-1.265,1.179,1.179,0,0,0-1.014-.421,1.855,1.855,0,0,0-.986.28,1.605,1.605,0,0,0-.657.822,4.619,4.619,0,0,0-.2,1.559v3.871Z" transform="translate(-3596.267 -9793.139)"/><path class="c" d="M3610.6,9797.036a3.85,3.85,0,0,1,1.15-3.069,3.475,3.475,0,0,1,2.345-.828,3.349,3.349,0,0,1,2.516,1.008,3.835,3.835,0,0,1,.978,2.785,4.941,4.941,0,0,1-.433,2.265,3.056,3.056,0,0,1-1.256,1.281,3.661,3.661,0,0,1-1.8.458,3.342,3.342,0,0,1-2.53-1.006A4.01,4.01,0,0,1,3610.6,9797.036Zm1.3,0a3.173,3.173,0,0,0,.626,2.146,2.079,2.079,0,0,0,3.138,0,3.243,3.243,0,0,0,.623-2.183,3.088,3.088,0,0,0-.626-2.1,2.083,2.083,0,0,0-3.135,0A3.16,3.16,0,0,0,3611.9,9797.036Z" transform="translate(-3599.003 -9793.139)"/><path class="c" d="M3623,9800.806l-2.838-7.459h1.334l1.6,4.467c.176.482.333.983.479,1.5q.167-.589.472-1.419l1.656-4.551h1.3l-2.824,7.459Z" transform="translate(-3600.827 -9793.179)"/><path class="c" d="M3635,9798.363l1.307.162a3.186,3.186,0,0,1-1.144,1.777,3.443,3.443,0,0,1-2.136.633,3.407,3.407,0,0,1-2.594-1.009,3.942,3.942,0,0,1-.96-2.827,4.133,4.133,0,0,1,.969-2.922,3.289,3.289,0,0,1,2.515-1.039,3.188,3.188,0,0,1,2.446,1.019,4.043,4.043,0,0,1,.947,2.865c0,.075,0,.188-.007.337h-5.562a2.871,2.871,0,0,0,.693,1.883,2.074,2.074,0,0,0,1.562.653,1.934,1.934,0,0,0,1.186-.366A2.408,2.408,0,0,0,3635,9798.363Zm-4.149-2.043h4.165a2.5,2.5,0,0,0-.478-1.411,1.931,1.931,0,0,0-1.565-.731,2.012,2.012,0,0,0-1.464.582A2.312,2.312,0,0,0,3630.847,9796.32Z" transform="translate(-3602.605 -9793.139)"/></g><g transform="translate(112.215 18.46)"><path class="c" d="M3726.4,9796.822l1.25-.2a1.76,1.76,0,0,0,.587,1.153,2.042,2.042,0,0,0,1.343.4,1.986,1.986,0,0,0,1.3-.355,1.065,1.065,0,0,0,.421-.832.77.77,0,0,0-.373-.675,5.529,5.529,0,0,0-1.292-.428,11.887,11.887,0,0,1-1.928-.606,1.836,1.836,0,0,1-1.092-1.712,1.934,1.934,0,0,1,.228-.924,2.044,2.044,0,0,1,.623-.705,2.582,2.582,0,0,1,.8-.368,3.819,3.819,0,0,1,1.093-.151,4.323,4.323,0,0,1,1.543.253,2.07,2.07,0,0,1,.977.685,2.643,2.643,0,0,1,.437,1.155l-1.235.169a1.363,1.363,0,0,0-.487-.9,1.782,1.782,0,0,0-1.144-.324,2.069,2.069,0,0,0-1.241.288.839.839,0,0,0-.372.674.7.7,0,0,0,.154.443,1.108,1.108,0,0,0,.484.337q.192.07,1.118.322a15.649,15.649,0,0,1,1.87.587,1.894,1.894,0,0,1,.833.663,1.847,1.847,0,0,1,.3,1.082,2.123,2.123,0,0,1-.369,1.19,2.375,2.375,0,0,1-1.062.864,3.9,3.9,0,0,1-1.574.306,3.5,3.5,0,0,1-2.215-.6A2.815,2.815,0,0,1,3726.4,9796.822Z" transform="translate(-3726.395 -9788.986)"/><path class="c" d="M3738.5,9797.344l.184,1.117a4.75,4.75,0,0,1-.955.112,2.173,2.173,0,0,1-1.069-.218,1.222,1.222,0,0,1-.532-.572,4.529,4.529,0,0,1-.155-1.492V9792h-.926v-.983h.926v-1.847l1.256-.758v2.6h1.271V9792h-1.271v4.362a2.255,2.255,0,0,0,.067.7.547.547,0,0,0,.218.246.852.852,0,0,0,.433.09A3.85,3.85,0,0,0,3738.5,9797.344Z" transform="translate(-3728.047 -9788.411)"/><path class="c" d="M3745.854,9796.647l1.307.163a3.185,3.185,0,0,1-1.144,1.775,3.875,3.875,0,0,1-4.73-.376,3.938,3.938,0,0,1-.96-2.826,4.127,4.127,0,0,1,.969-2.922,3.286,3.286,0,0,1,2.515-1.039,3.191,3.191,0,0,1,2.446,1.018,4.046,4.046,0,0,1,.947,2.865c0,.076,0,.188-.006.338h-5.563a2.871,2.871,0,0,0,.693,1.883,2.077,2.077,0,0,0,1.562.653,1.928,1.928,0,0,0,1.186-.366A2.413,2.413,0,0,0,3745.854,9796.647Zm-4.149-2.043h4.165a2.511,2.511,0,0,0-.478-1.412,1.934,1.934,0,0,0-1.565-.73,2.012,2.012,0,0,0-1.465.582A2.309,2.309,0,0,0,3741.705,9794.6Z" transform="translate(-3729.055 -9788.986)"/><path class="c" d="M3750.259,9801.908v-10.317h1.15v.97a2.86,2.86,0,0,1,.92-.854,2.537,2.537,0,0,1,1.245-.284,2.948,2.948,0,0,1,1.685.491,3.015,3.015,0,0,1,1.1,1.387,5.08,5.08,0,0,1,.372,1.963,5.01,5.01,0,0,1-.409,2.062,3.111,3.111,0,0,1-1.2,1.406,3.062,3.062,0,0,1-1.646.487,2.378,2.378,0,0,1-1.135-.268,2.6,2.6,0,0,1-.826-.674v3.631Zm1.144-6.546a3.231,3.231,0,0,0,.584,2.128,1.779,1.779,0,0,0,1.41.689,1.829,1.829,0,0,0,1.444-.714,3.385,3.385,0,0,0,.6-2.208,3.3,3.3,0,0,0-.584-2.136,1.772,1.772,0,0,0-1.4-.708,1.821,1.821,0,0,0-1.431.754A3.375,3.375,0,0,0,3751.4,9795.362Z" transform="translate(-3730.95 -9788.986)"/><path class="c" d="M3759.5,9796.822l1.249-.2a1.761,1.761,0,0,0,.588,1.153,2.043,2.043,0,0,0,1.344.4,1.986,1.986,0,0,0,1.3-.355,1.064,1.064,0,0,0,.42-.832.77.77,0,0,0-.372-.675,5.533,5.533,0,0,0-1.292-.428,11.814,11.814,0,0,1-1.927-.606,1.837,1.837,0,0,1-1.093-1.712,1.934,1.934,0,0,1,.227-.924,2.059,2.059,0,0,1,.623-.705,2.6,2.6,0,0,1,.8-.368,3.81,3.81,0,0,1,1.093-.151,4.315,4.315,0,0,1,1.543.253,2.068,2.068,0,0,1,.978.685,2.652,2.652,0,0,1,.436,1.155l-1.235.169a1.363,1.363,0,0,0-.487-.9,1.782,1.782,0,0,0-1.144-.324,2.064,2.064,0,0,0-1.24.288.838.838,0,0,0-.373.674.7.7,0,0,0,.155.443,1.107,1.107,0,0,0,.484.337q.191.07,1.117.322a15.626,15.626,0,0,1,1.87.587,1.894,1.894,0,0,1,.833.663,1.843,1.843,0,0,1,.3,1.082,2.127,2.127,0,0,1-.369,1.19,2.376,2.376,0,0,1-1.062.864,3.9,3.9,0,0,1-1.574.306,3.5,3.5,0,0,1-2.215-.6A2.814,2.814,0,0,1,3759.5,9796.822Z" transform="translate(-3732.715 -9788.986)"/></g><g transform="translate(50.717 6.794)"><rect class="c" width="39.833" height="33.349" rx="4.181"/></g><text class="d" transform="translate(56.836 28.851)"><tspan x="0" y="0">-10</tspan></text></g></g></svg>