<svg xmlns="http://www.w3.org/2000/svg" width="284.053" height="311.902" viewBox="0 0 284.053 311.902">
    <defs>
        <style>
            .a{fill:#927dcc;}.b,.c{fill:#b4d5d9;}.b{opacity:0.49;}.d{fill:#99d7ff;}.e{fill:#91aafe;}.f{fill:#92dad6;}.g{fill:#49557f;}
        </style>
    </defs>
    <g transform="translate(-224.44 -2064.663)">
        <path class="a"
              d="M381.189,2269.392c5.8,0,13.422-2.256,15.776-3a.546.546,0,0,1,.724.495v16.682c0,12.89-16.248,23.339-16.248,23.339s-16.247-10.449-16.247-23.339v-15.908a.544.544,0,0,1,.689-.5C368.123,2267.711,375.39,2269.392,381.189,2269.392Z"/>
        <path class="b"
              d="M381.441,2272.136a36.77,36.77,0,0,0,12.48-2.639,1.221,1.221,0,0,1,1.729,1.057v13.387c0,11.272-14.209,20.41-14.209,20.41s-14.208-9.138-14.208-20.41v-12.8a1.218,1.218,0,0,1,1.653-1.087A44.312,44.312,0,0,0,381.441,2272.136Z"/>
        <path class="c"
              d="M381.592,2275.767v25.023s-11.3-7.445-11.3-16.291v-10.14a.887.887,0,0,1,1.207-.79C373.608,2274.327,378.08,2275.767,381.592,2275.767Z"/>
        <path class="c"
              d="M381.592,2275.767v25.023s11.7-7.445,11.7-16.291v-10.164a.884.884,0,0,0-1.192-.794C389.913,2274.291,385.148,2275.767,381.592,2275.767Z"/>
        <path class="a"
              d="M377.15,2281.79c.175.131.344.268.509.406s.329.276.485.429.314.3.467.458c.076.079.155.156.228.235l.219.241c.146.16.288.324.43.488s.273.338.41.507.264.345.393.52q.1.13.192.264c.063.089.127.177.187.268q.181.272.36.546c.118.184.229.371.342.559s.22.378.326.57l.157.289c.051.1.1.2.148.294s.1.2.146.3l.136.3c.091.2.176.406.257.612s.157.416.229.63c.036.107.07.214.1.324.016.056.034.108.05.167l.052.183-2.24-.139c.046-.087.084-.158.128-.235l.128-.223c.085-.149.17-.3.258-.442l.527-.869,1.06-1.723q.534-.857,1.1-1.69c.377-.557.775-1.1,1.179-1.637s.827-1.059,1.264-1.569.889-1.006,1.359-1.484a19.537,19.537,0,0,1,1.477-1.358c.256-.214.521-.417.792-.61s.547-.377.832-.545a.119.119,0,0,1,.166.046.13.13,0,0,1-.027.158q-.366.324-.708.671c-.227.231-.446.471-.661.715s-.421.493-.622.749-.4.514-.589.776q-.576.786-1.1,1.613c-.174.276-.347.552-.515.83s-.334.561-.5.844c-.327.564-.638,1.138-.946,1.713s-.6,1.158-.894,1.743q-.217.439-.425.883c-.138.3-.269.6-.395.9s-.249.6-.368.908l-.176.454-.168.443-1.027,2.716-1.212-2.856-.457-1.077c-.041-.092-.08-.185-.118-.279s-.082-.185-.119-.28l-.233-.563-.932-2.281c-.076-.193-.161-.381-.237-.575l-.117-.29-.12-.288c-.079-.194-.161-.386-.237-.583s-.163-.386-.239-.584-.155-.4-.236-.589-.156-.394-.232-.595-.159-.4-.235-.609-.151-.413-.218-.626a.132.132,0,0,1,.082-.165A.125.125,0,0,1,377.15,2281.79Z"/>
        <path class="a"
              d="M244.258,2308.5c7.187,0,16.63-2.8,19.547-3.717a.676.676,0,0,1,.9.613v20.668c0,15.971-20.131,28.918-20.131,28.918s-20.131-12.947-20.131-28.918v-19.709a.675.675,0,0,1,.854-.626C228.07,2306.414,237.073,2308.5,244.258,2308.5Z"/>
        <path class="b"
              d="M244.571,2311.9a45.553,45.553,0,0,0,15.462-3.271,1.513,1.513,0,0,1,2.142,1.311v16.585c0,13.967-17.6,25.289-17.6,25.289s-17.6-11.322-17.6-25.289v-15.864a1.509,1.509,0,0,1,2.048-1.348A54.863,54.863,0,0,0,244.571,2311.9Z"/>
        <path class="c"
              d="M244.757,2316.4v31s-14-9.224-14-20.184V2314.65a1.1,1.1,0,0,1,1.5-.978C234.866,2314.611,240.406,2316.4,244.757,2316.4Z"/>
        <path class="c"
              d="M244.757,2316.4v31s14.5-9.224,14.5-20.184v-12.593a1.1,1.1,0,0,0-1.477-.984C255.067,2314.566,249.163,2316.4,244.757,2316.4Z"/>
        <path class="a"
              d="M239.253,2323.858c.218.162.427.331.632.5s.407.342.6.531.389.375.579.568c.094.1.192.193.283.291l.27.3c.182.2.358.4.534.6s.337.418.507.628.327.427.488.644c.08.108.159.218.237.328s.158.218.232.331c.151.224.3.45.446.677s.284.46.424.692.272.469.4.706l.195.358c.063.121.123.243.184.365s.122.243.18.366l.17.374c.112.248.217.5.317.758s.195.516.284.781c.044.132.087.264.129.4.02.069.042.133.062.206l.064.227-2.775-.172c.057-.108.1-.2.159-.291l.158-.278c.106-.183.211-.366.32-.546l.653-1.077L246.3,2330c.442-.708.9-1.407,1.368-2.094s.96-1.362,1.46-2.028,1.025-1.312,1.566-1.944,1.1-1.247,1.684-1.839,1.194-1.154,1.83-1.683c.318-.265.646-.516.982-.756s.678-.467,1.031-.675a.148.148,0,0,1,.205.058.159.159,0,0,1-.033.195q-.455.4-.877.831c-.282.287-.553.584-.819.886s-.522.611-.771.928-.491.638-.73.962c-.476.649-.927,1.317-1.36,2-.215.342-.429.684-.638,1.029s-.413.694-.614,1.045c-.406.7-.791,1.411-1.173,2.123s-.748,1.435-1.107,2.16c-.179.363-.356.726-.527,1.093s-.333.738-.49,1.112-.308.749-.455,1.125l-.219.562-.207.549L245.134,2339l-1.5-3.539-.566-1.334c-.051-.115-.1-.23-.146-.346s-.1-.23-.147-.347l-.289-.7-1.154-2.826c-.1-.239-.2-.472-.294-.713l-.145-.359-.149-.357c-.1-.24-.2-.477-.293-.721s-.2-.479-.3-.724-.192-.49-.292-.73-.193-.488-.288-.737-.2-.5-.29-.755-.188-.511-.271-.775a.164.164,0,0,1,.1-.205A.152.152,0,0,1,239.253,2323.858Z"/>
        <path class="a"
              d="M333.517,2136.283a39.8,39.8,0,0,0,10.231-1.946.355.355,0,0,1,.47.321v10.819c0,8.359-10.537,15.136-10.537,15.136s-10.537-6.777-10.537-15.136V2135.16a.352.352,0,0,1,.446-.327A47.5,47.5,0,0,0,333.517,2136.283Z"/>
        <path class="b"
              d="M333.681,2138.062a23.841,23.841,0,0,0,8.093-1.712.792.792,0,0,1,1.121.686v8.682c0,7.31-9.214,13.237-9.214,13.237s-9.215-5.927-9.215-13.237v-8.3a.789.789,0,0,1,1.072-.705A28.755,28.755,0,0,0,333.681,2138.062Z"/>
        <path class="c"
              d="M333.778,2140.417v16.228s-7.329-4.828-7.329-10.565V2139.5a.575.575,0,0,1,.783-.512A22.184,22.184,0,0,0,333.778,2140.417Z"/>
        <path class="c"
              d="M333.778,2140.417v16.228s7.59-4.828,7.59-10.565v-6.592a.574.574,0,0,0-.773-.515A24.514,24.514,0,0,1,333.778,2140.417Z"/>
        <path class="a"
              d="M330.9,2144.323c.114.085.223.174.331.264s.213.178.314.278.2.2.3.3c.049.05.1.1.148.152l.142.156c.1.1.187.21.279.317s.177.219.265.328.172.224.256.338c.042.056.083.113.124.171s.083.115.121.174c.079.117.156.235.234.354s.149.241.222.362.142.245.211.37l.1.187c.034.063.065.127.1.191s.064.127.094.192l.089.195c.059.13.114.263.166.4s.1.27.149.409c.023.069.045.138.067.21.011.036.022.07.033.108l.033.119-1.452-.09c.029-.056.054-.1.083-.153l.083-.145c.055-.1.11-.191.167-.286l.342-.563.687-1.118q.346-.555.716-1.1c.245-.361.5-.713.765-1.061s.536-.687.819-1.018.577-.653.882-.963a12.647,12.647,0,0,1,.958-.88c.166-.139.338-.271.513-.4s.355-.245.54-.354a.077.077,0,0,1,.107.031.084.084,0,0,1-.017.1q-.237.21-.459.435c-.147.15-.29.306-.428.464s-.274.32-.4.485-.257.334-.382.5q-.374.51-.712,1.046c-.113.179-.225.358-.334.538s-.216.364-.322.547c-.212.366-.414.739-.613,1.112s-.392.751-.58,1.13c-.094.19-.186.38-.276.572s-.174.387-.256.582-.161.392-.238.589l-.115.295-.108.287-.667,1.762-.786-1.853-.3-.7c-.027-.06-.052-.121-.077-.181s-.052-.121-.077-.182l-.151-.365-.6-1.48c-.05-.124-.1-.247-.154-.372l-.076-.188-.078-.187c-.051-.126-.1-.25-.153-.378s-.106-.251-.156-.379-.1-.256-.152-.382-.1-.256-.151-.386-.1-.262-.152-.4-.1-.267-.141-.406a.085.085,0,0,1,.053-.107A.079.079,0,0,1,330.9,2144.323Z"/>
        <path class="d"
              d="M302.642,2106.491a1.439,1.439,0,0,1-.253.779c-.8,1.169-1.6,2.379-2.374,3.594a1.452,1.452,0,0,1-2.447-1.563c.793-1.241,1.608-2.476,2.424-3.669a1.452,1.452,0,0,1,2.65.859Z"/>
        <path class="d"
              d="M508.492,2305.12a1.452,1.452,0,0,1-.191.684c-1.768,3.072-3.235,5.579-4.359,7.448a1.452,1.452,0,0,1-2.489-1.5c1.115-1.854,2.572-4.344,4.329-7.4a1.452,1.452,0,0,1,2.71.765ZM497,2322.676a1.444,1.444,0,0,1-.308.856c-1.792,2.285-3.642,4.53-5.5,6.67a1.452,1.452,0,1,1-2.193-1.9c1.826-2.1,3.647-4.311,5.408-6.559a1.452,1.452,0,0,1,2.594.936Zm-13.922,15.648a1.449,1.449,0,0,1-.432,1c-2.06,2.034-4.192,4.018-6.334,5.9a1.451,1.451,0,1,1-1.915-2.18c2.1-1.846,4.189-3.792,6.209-5.786a1.453,1.453,0,0,1,2.472,1.072Zm-15.926,13.595a1.451,1.451,0,0,1-.6,1.135c-2.342,1.713-4.751,3.355-7.162,4.885a1.453,1.453,0,0,1-1.555-2.455c2.357-1.493,4.714-3.1,7-4.775a1.452,1.452,0,0,1,2.308,1.21Zm-17.858,10.934a1.452,1.452,0,0,1-.8,1.26c-2.582,1.3-5.239,2.509-7.9,3.606a1.452,1.452,0,1,1-1.109-2.683c2.592-1.072,5.184-2.255,7.7-3.519a1.45,1.45,0,0,1,2.1,1.336Zm-19.482,7.676a1.454,1.454,0,0,1-1.044,1.355c-2.767.81-5.6,1.525-8.422,2.128a1.452,1.452,0,0,1-.607-2.84c2.752-.588,5.516-1.286,8.213-2.075a1.452,1.452,0,0,1,1.8.985A1.5,1.5,0,0,1,429.81,2370.529Zm-20.545,4.037a1.452,1.452,0,0,1-1.3,1.4q-.99.1-1.983.19c-2.21.194-4.456.331-6.676.4a1.452,1.452,0,0,1-.1-2.9c2.169-.072,4.361-.206,6.52-.4.647-.055,1.292-.118,1.935-.185a1.453,1.453,0,0,1,1.6,1.294A1.538,1.538,0,0,1,409.265,2374.566Zm-20.94.378c0,.019,0,.039,0,.058a1.452,1.452,0,0,1-1.544,1.353c-2.862-.19-5.765-.483-8.63-.871a1.452,1.452,0,0,1,.39-2.877c2.8.379,5.637.665,8.431.85A1.453,1.453,0,0,1,388.325,2374.944Zm-20.707-3.117a1.456,1.456,0,0,1-1.784,1.377c-2.787-.656-5.6-1.416-8.37-2.263a1.452,1.452,0,0,1,.848-2.777c2.707.828,5.462,1.572,8.186,2.213A1.452,1.452,0,0,1,367.618,2371.827Zm-19.941-6.407a1.452,1.452,0,0,1-2,1.3c-2.656-1.091-5.316-2.287-7.908-3.551a1.453,1.453,0,1,1,1.275-2.611c2.536,1.239,5.14,2.407,7.738,3.476A1.454,1.454,0,0,1,347.677,2365.42Zm-18.7-9.448a1.434,1.434,0,0,1-.21.713,1.45,1.45,0,0,1-1.994.488c-2.456-1.489-4.9-3.08-7.266-4.727a1.452,1.452,0,1,1,1.659-2.384c2.316,1.613,4.71,3.17,7.113,4.629A1.446,1.446,0,0,1,328.982,2355.972Zm-17.02-12.212a1.453,1.453,0,0,1-2.386,1.072c-2.206-1.853-4.377-3.8-6.457-5.786a1.453,1.453,0,0,1,2.007-2.1c2.034,1.944,4.16,3.85,6.318,5.663A1.451,1.451,0,0,1,311.962,2343.76Zm-14.938-14.688a1.452,1.452,0,0,1-2.553.908c-1.886-2.194-3.7-4.492-5.384-6.827a1.452,1.452,0,1,1,2.353-1.7c1.64,2.27,3.4,4.5,5.234,6.635A1.453,1.453,0,0,1,297.024,2329.072ZM294,2120.821a1.435,1.435,0,0,1-.169.641c-1.31,2.465-2.587,5.025-3.793,7.607a1.452,1.452,0,0,1-2.632-1.227c1.229-2.63,2.527-5.235,3.861-7.743a1.452,1.452,0,0,1,2.733.722Zm-8.908,191.064a1.452,1.452,0,0,1-2.722.665c-1.385-2.5-2.694-5.115-3.9-7.768a1.452,1.452,0,0,1,2.646-1.2c1.169,2.583,2.443,5.126,3.79,7.561A1.45,1.45,0,0,1,285.089,2311.885Zm.239-171.988a1.47,1.47,0,0,1-.1.483c-1.008,2.615-1.977,5.31-2.882,8.01a1.452,1.452,0,1,1-2.753-.924c.918-2.739,1.9-5.475,2.924-8.129a1.452,1.452,0,0,1,2.807.56Zm-8.562,152.784a1.452,1.452,0,0,1-2.831.415c-.883-2.69-1.7-5.491-2.427-8.326a1.452,1.452,0,0,1,2.814-.721c.71,2.772,1.509,5.51,2.372,8.14A1.427,1.427,0,0,1,276.766,2292.681Zm2.073-132.857a1.442,1.442,0,0,1-.05.342c-.73,2.692-1.429,5.473-2.078,8.267a1.452,1.452,0,1,1-2.829-.656c.657-2.829,1.365-5.645,2.1-8.371a1.452,1.452,0,0,1,2.853.418Zm-7.02,112.5a1.452,1.452,0,0,1-2.884.2c-.464-2.777-.871-5.659-1.207-8.569a1.452,1.452,0,0,1,2.885-.333c.33,2.862.729,5.7,1.187,8.422A1.566,1.566,0,0,1,271.819,2272.328Zm2.429-92.052a1.4,1.4,0,0,1-.023.222c-.5,2.765-.967,5.6-1.387,8.421a1.452,1.452,0,0,1-2.872-.429c.425-2.851.9-5.714,1.4-8.51a1.451,1.451,0,0,1,2.879.3Zm-2.967,20.756c0,.04,0,.079-.008.118-.3,2.788-.569,5.65-.8,8.508a1.452,1.452,0,1,1-2.894-.237c.235-2.882.506-5.769.809-8.581a1.452,1.452,0,0,1,2.9.192Zm-1.686,50.452a1.452,1.452,0,0,1-2.9.038c-.147-2.785-.248-5.688-.3-8.629a1.452,1.452,0,0,1,2.9-.049c.049,2.907.149,5.774.295,8.522C269.6,2251.406,269.6,2251.446,269.6,2251.484Zm.089-29.541v.033c-.137,2.776-.241,5.494-.309,8.077l-.013.462a1.452,1.452,0,1,1-2.9-.078l.012-.462c.069-2.6.175-5.344.311-8.141a1.452,1.452,0,0,1,2.9.109Z"/>
        <path class="e" d="M316.367,2064.663l-27.057,42.074,10.4,10.759Z"/>
        <path class="f" d="M321.222,2107.6l-20.032-1.149,15.177-41.788Z"/>
        <path class="f" d="M272.715,2106.343l43.652-41.68-27.057,42.074Z"/>
        <path class="g" d="M299.712,2117.5l1.478-11.045,2.909.168Z"/>
    </g>
</svg>
