<svg xmlns:xlink="http://www.w3.org/1999/xlink" xmlns="http://www.w3.org/2000/svg" width="363" height="327"
     viewBox="0 0 363 327">
    <defs>
        <style>
            .a,.o{fill:none;}.b{clip-path:url(#a);}.c,.d{fill:#d8a35d;}.c{fill-rule:evenodd;}.e{fill:#d19442;}.f{fill:#947dce;}.g{fill:#ffc84f;}.h{opacity:0.15;}.i{fill:#62548a;}.j{opacity:0.3;}.k{opacity:0.5;}.l{fill:#999;}.m{fill:#ccc;}.n{fill:gray;}.o{stroke:#947dce;stroke-miterlimit:10;stroke-width:1.154px;}
        </style>
        <clipPath id="a">
            <rect class="a" width="363" height="327" transform="translate(888.366 429)"/>
        </clipPath>
    </defs>
    <g transform="translate(-888.366 -429)">
        <g class="b">
            <path class="c"
                  d="M933.9,487.93c-2.146-5.241-8.959-9.331-13.522-10.593a45.674,45.674,0,0,1-5.813-2.443c-3.534-1.192,2.058,3.85,4.171,4.7,1.717.688,4.793,5.8,6.477,7.553s5.292,4.293,7.233,4.311S933.622,488.9,933.9,487.93Z"/>
            <path class="c"
                  d="M945.746,506.106c-4.1-7.363-7.169-16.111-15.042-19.767s-19.656-3.594-25.912-4.551c-7.359-1.127-4.274,1.268-.4,2.307,2.52.676,10.669,3.091,13.215,3.073,1.234-.009-10.021-1.9-10.626-1.729s-12.28-3.018-11.487-.87c1.538,4.165,14.726,4.7,18.926,5.612-2.216-.081-5.818-.745-7.952-.833-1.813-.074-7.284-2.067-7.824-.4-.849,2.625,12.654,4.332,14.45,4.479-1.777,1.428-8.552-.711-10.914-.874-.237-.016-2.388.5.2,1.409,5.443,1.917,9.658,3.669,15.881,4.588s13.522,1.878,17.67,7.562C939.254,505.927,942.505,506.507,945.746,506.106Z"/>
            <path class="d"
                  d="M1154.589,869.692s-14.334,147.9-8.239,150.448c10.934,4.638,53.756,19.81,6.545,16.476-24.252,1.462-22.473-3.957-22.851-8.548-.31-3.751.4-136.117-.594-146.41-.223-2.306-.359-3.7-.359-3.7Z"/>
            <path class="d"
                  d="M1065.7,869.692s6.215,147.9.12,150.448c-10.934,4.638-53.757,19.81-6.545,16.476,24.252,1.462,22.472-3.957,22.851-8.548.31-3.751,3.061-32.223,4.057-42.517.223-2.305,4.976-117.981,4.976-117.981Z"/>
            <path class="e"
                  d="M1113.241,488.028s-1.262,14.093,7.43,21.886-20.033,0-20.033,0,5.345-13.5,4.146-21.886S1113.241,488.028,1113.241,488.028Z"/>
            <ellipse class="d" cx="15.198" cy="20.735" rx="15.198" ry="20.735" transform="translate(1093.458 452.021)"/>
            <path class="f"
                  d="M984.893,577.636c23.007-48.125,64.068-70.081,90.283-75.911,11.348-2.528,19.913-2.032,23.042.67a16.994,16.994,0,0,0,10.608,4.121,23,23,0,0,0,5.957-.543,29.625,29.625,0,0,0,6.314-2.147c.97-.45,1.536-.773,1.536-.773a61.55,61.55,0,0,1,16.045.958c59.312,11.613,69.632,111.062,69.1,119.615-.323,5.091-5.587,28.155-12.167,48.657-5.391,16.831-11.682,31.941-16.854,34.031-11.474,4.617-98.11,10.955-115.922,2.459-.415-.312-.866-.647-1.293-1.016-6.683-5.437-13.933-16.173-17.777-26.227,0-.012-10.239-28.871-12.329-34.747-.023-.058-.034-.1-.057-.15-.07-.231-.15-.45-.231-.658-.023-.081-.058-.15-.081-.231"/>
            <path class="g"
                  d="M1058.866,705.363a9.363,9.363,0,0,0,5.317,2.453c12.494.245,66.455,1.169,95.727-.513,10.328-.594,17.581-1.512,18.855-2.9a1.116,1.116,0,0,1-.009.118c-.076,1.614-1,20.086-2.3,44.3-2.565,47.8,2.375,116.257,8.147,137.036,1.246,4.485-65.8-2.309-65.8-2.309-.187-49.327,4.494-135.925,1.471-139.806-3.678-4.722-9.641,71.449-16.478,135.189-26.55,6.926-68.593,2.721-68.107,0C1041.46,846.6,1058.866,705.363,1058.866,705.363Z"/>
            <path class="h"
                  d="M1031.071,645.744c.023.081.058.15.081.231.081.208.162.427.231.658.023.046.034.092.058.15,2.089,5.876,12.328,34.735,12.328,34.747,3.844,10.054,11.094,20.79,17.778,26.227-4.537-16.427-18.678-64.045-18.136-83.23C1040.71,643.02,1031.071,645.733,1031.071,645.744Z"/>
            <path class="h"
                  d="M1169.767,576.949s-28.711,85.706,50.946,122.1l1.619,1.077-.411-20.159s-37.535-52.376-37.677-53.725S1169.767,576.949,1169.767,576.949Z"/>
            <path class="h"
                  d="M1109.831,509.921c.046,1.374-.681,2.274-2.886,1.974-6.88-.935-14.649-.739-20.294,1.847a4.8,4.8,0,0,1-4.641-.2c-3.613-2.113-5.852-8.416-6.741-11.209a1.932,1.932,0,0,1-.093-.612c11.348-2.528,19.913-2.032,23.042.67a16.994,16.994,0,0,0,10.608,4.121A9.384,9.384,0,0,1,1109.831,509.921Z"/>
            <path class="i"
                  d="M1084.172,1018.6c.283-2.135-14.911-1.935-16.631-.2s-32,7.982-31.4,16.975,42.565,1.922,45.562,1.71S1083.617,1022.8,1084.172,1018.6Z"/>
            <path class="i"
                  d="M1129.193,1015.142c-.283-2.135,17.9.574,19.624,2.309s28.2,8.936,27.6,17.929-42.565,1.922-45.562,1.71S1129.748,1019.339,1129.193,1015.142Z"/>
            <g class="j">
                <path d="M1108.684,708.293l-.6-.05S1108.3,708.258,1108.684,708.293Z"/>
                <path class="k"
                      d="M1108.684,708.293c16.08,1.283,51.226-.99,51.226-.99,10.328-.594,17.581-1.512,18.855-2.9a1.116,1.116,0,0,1-.009.118c-.076,1.614-1,20.086-2.3,44.3a12,12,0,0,1-1.69-.2,13.153,13.153,0,0,1-8.51-6.047,29.218,29.218,0,0,1-3.31-6.911C1150.956,712.851,1113.835,708.755,1108.684,708.293Z"/>
            </g>
            <path class="g"
                  d="M1102.945,460.855s26.311,14.588,18.5-8.834C1116.044,435.817,1085,450.414,1102.945,460.855Z"/>
            <path class="g"
                  d="M1106.759,455.26s-14.721,8.734-13.3,17.5c0,0-3.246-26.161,11.391-26.819s20.305.756,19.005,28.419C1123.854,474.357,1119.6,452.352,1106.759,455.26Z"/>
            <path class="g"
                  d="M1104.211,446.109s.74-8.151,8.82-7,11.544,5.772,12.7,10.389,2.309,8.081,3.464,8.081c0,0-3.464,3.463-4.618,2.309,0,0,3,8.3-.811,15.117,0,0-1.5-10.5-7.269-11.654S1104.211,446.109,1104.211,446.109Z"/>
            <path class="g"
                  d="M1104.951,446.038s-5.772-3.463-11.544,4.618l-3.463,6.926s1.154,1.154,3.463,0c0,0-1.052,8.133.051,12.724l3.412-13.878Z"/>
            <path class="l"
                  d="M1070.712,602.525l14.638,93.769a10.014,10.014,0,0,0,11.428,8.346l64-10a3.128,3.128,0,0,0,.45-.092,9.979,9.979,0,0,0,7.885-11.336l-14.638-93.77a10,10,0,0,0-11.428-8.334l-61.032,9.524-2.966.461A10,10,0,0,0,1070.712,602.525Z"/>
            <path class="m"
                  d="M1074.129,601.97l14.638,93.77a10,10,0,0,0,11.428,8.334l61.031-9.523a9.979,9.979,0,0,0,7.885-11.336l-14.638-93.77a10,10,0,0,0-11.428-8.334l-61.032,9.524A9.977,9.977,0,0,0,1074.129,601.97Z"/>
            <circle class="n" cx="7.725" cy="7.725" r="7.725" transform="translate(1114.547 635.654)"/>
            <path class="h" d="M1181.948,668.669s1.5-34.469-90.85-22.925,69.263,21.933,69.263,21.933Z"/>
            <path class="c"
                  d="M1099.7,658.658c-1.095-.367-12.644-7.284-18.906-7.862s-15.625-.839-18.858-1.758c-3.8-1.081-4.763.429-.382,2.1a61.9,61.9,0,0,0,9.973,2.824c.626.025-3.453-.523-7.887-1.442-4.715-.977-9.828-2.306-10.062-1.466-.454,1.628,13.125,5.289,15.518,5.548a60.42,60.42,0,0,1-6.307-.765c-2.847-.505-6.109-1.513-6.75-.922-1.01.931,6.182,3.752,12.126,4.576.1.193-1.817.494-8.81-.959-.7-.146-2.493.161-.192,1.225,4.845,2.24,6.763,3.561,13.783,3.78,6.846.213,14.4-1.2,19.326.455Z"/>
            <path class="c"
                  d="M1083.81,651.413s-5.3-5.567-11.253-6.486c-3.538-.545-3.455-1.436-4.058-1.7-2-.881-.064,2.835,2.941,3.789,2.442.775,3.806,4.948,5.275,5.834s5.861,2.509,6.957,1.935S1083.81,651.413,1083.81,651.413Z"/>
            <path class="f"
                  d="M1198.455,518.763c21.744,19.456,36.789,37.526,46.175,96.968,4.761,30.157,3.521,60.315,2.281,76.219A18.789,18.789,0,0,1,1234,708.289c-68.127,22.472-142.958-42.173-142.958-42.173-3.9-1.452,3.952-15.364,3.952-15.364,37.664-.39,66.523.764,96.537,12.308-.153-.072-29.505-55.206-33.477-70.417-10.4-39.889-44.646-74.407-35.786-90.041C1125.328,497.2,1176.522,499.139,1198.455,518.763Z"/>
            <line class="o" x1="17.025" y2="178.029" transform="translate(1053.565 704.196)"/>
            <line class="o" x1="16.897" y2="174.929" transform="translate(1070.59 707.757)"/>
            <line class="o" x1="14.051" y2="173.706" transform="translate(1089.953 707.757)"/>
            <line class="o" x2="0.362" y2="35.981" transform="translate(1119.912 707.757)"/>
            <line class="o" x1="3.26" y2="177.226" transform="translate(1134.309 707.757)"/>
            <line class="o" x1="0.908" y2="178.713" transform="translate(1151.855 707.646)"/>
            <line class="o" x2="3.437" y2="179.739" transform="translate(1167.697 707.646)"/>
            <path class="o" d="M1056.563,723.883s95.875,4.526,121.207,0"/>
            <path class="o" d="M1120.274,743.738c-33.546,7.6-65.649-4.413-65.649-4.413"/>
            <path class="o" d="M1119.912,741.468s30.273,8.507,56.865,1.323"/>
            <path class="o" d="M1052.976,752.372s24.175,12.656,63.442,6.2"/>
            <path class="o" d="M1051,767.91s37.619,11.485,63.561,5.575"/>
            <path class="o" d="M1049.013,783.346s19.159,15.019,63.581,8.282"/>
            <path class="o" d="M1046.7,801.1s29.214,15.264,64.436,4.854"/>
            <path class="o" d="M1044.556,817.367s20.691,14.688,64.844,6.157"/>
            <path class="o" d="M1042.31,834.042s28.559,14.929,65.772,2.868"/>
            <path class="o" d="M1040.513,847.056s16.849,16.2,66.143,4.191"/>
            <path class="o" d="M1038.4,861.827s27.244,14.353,66.806,3.739"/>
            <path class="o" d="M1121.287,757.718s12.648,10.443,55.49,2.691"/>
            <path class="o" d="M1121.62,773.435s17.747,8.275,54.143,1.74"/>
            <path class="o" d="M1120.754,790.88s27.4,8.253,55.009,0"/>
            <path class="o" d="M1120.36,805.346s26.639,11.842,55.934,0"/>
            <path class="o" d="M1119.912,821.228s25.362,8.9,57.117,0"/>
            <path class="o" d="M1119.5,836.483s21.379,9.591,58.528,0"/>
            <path class="o" d="M1119.5,849.979s25.382,13.08,59.819,1.39"/>
            <path class="o" d="M1118.892,866.85s28.87,9.786,62.312.72"/>
            <path class="f"
                  d="M1031.441,646.783s-70.268,29.81-87.317-34.48,6.394-78.51-15.628-105.143l14.207-11s49.017,25.929,63.579,66.421S1031.441,646.783,1031.441,646.783Z"/>
        </g>
    </g>
</svg>
