<svg xmlns:xlink="http://www.w3.org/1999/xlink" xmlns="http://www.w3.org/2000/svg" width="463.813" height="321.792"
     viewBox="0 0 463.813 321.792">
    <defs>
        <style>
            .a,.l{fill:none;}.b{fill:#eadff1;}.c{clip-path:url(#a);}.d{fill:#d19442;}.e,.k{fill:#d8a35d;}.f{fill:#947dce;}.g{fill:#ffc84f;}.h{opacity:0.15;}.i{opacity:0.3;}.j{opacity:0.5;}.k{fill-rule:evenodd;}.l{stroke:#947dce;stroke-miterlimit:10;stroke-width:1.093px;}.m{fill:#9c84d9;}.n{fill:#fff;}
        </style>
        <clipPath id="a">
            <path class="a"
                  d="M2205.084-628.561c57.815-46.325,86.722-69.487,113.861-77.023,90.672-25.178,219.487,26.641,247.814,120.558,1.474,4.887,20.9,72.748-16.744,117.209-31.518,37.224-71.17,20.4-187.535,40.186-124.582,21.183-154.613,53.3-197.582,28.518-40.681-23.464-62.739-80.5-53.581-125.634C2118.128-558.312,2147.206-582.185,2205.084-628.561Z"/>
        </clipPath>
    </defs>
    <g transform="translate(-2109.26 711.921)">
        <path class="b"
              d="M2205.084-628.561c57.815-46.325,86.722-69.487,113.861-77.023,90.672-25.178,219.487,26.641,247.814,120.558,1.474,4.887,20.9,72.748-16.744,117.209-31.518,37.224-71.17,20.4-187.535,40.186-124.582,21.183-154.613,53.3-197.582,28.518-40.681-23.464-62.739-80.5-53.581-125.634C2118.128-558.312,2147.206-582.185,2205.084-628.561Z"/>
        <g class="c">
            <path class="d"
                  d="M2356.342-626.231s-1.2,13.344,7.035,20.723-18.968,0-18.968,0,5.062-12.781,3.926-20.723S2356.342-626.231,2356.342-626.231Z"/>
            <ellipse class="e" cx="14.389" cy="19.632" rx="14.389" ry="19.632"
                     transform="translate(2337.612 -660.322)"/>
            <path class="f"
                  d="M2445.851-497.846c-.306,4.82-5.29,26.658-11.52,46.069-5.1,15.935-11.061,30.242-15.957,32.22-10.864,4.372-92.891,10.372-109.755,2.328-.394-.295-.82-.612-1.225-.962-6.328-5.147-13.192-15.312-16.831-24.832,0-.01-9.7-27.334-11.673-32.9-.022-.054-.033-.1-.055-.142-.065-.218-.141-.426-.218-.623-.022-.076-.055-.142-.077-.218-10.208,34.854-89.994,32.318-43.718-64.485,21.783-45.565,60.659-66.354,85.48-71.873,10.744-2.393,18.854-1.924,21.816.634a16.09,16.09,0,0,0,10.044,3.9,21.764,21.764,0,0,0,5.64-.514,28.092,28.092,0,0,0,5.978-2.033c.919-.426,1.454-.732,1.454-.732a58.3,58.3,0,0,1,15.192.907C2436.582-600.1,2446.353-505.944,2445.851-497.846Z"/>
            <path class="g"
                  d="M2418.558-285.839h-56.546q.116-5.2.254-10.475c.119-4.809.254-9.652.39-14.445.144-5.08.288-10.119.423-15.03.136-4.708.263-9.3.381-13.7.322-12.439.542-23.421.5-31.4-.034-7.553-.3-12.4-.957-13.235-.245-.313-.5-.254-.771.17-.855,1.338-1.82,6.308-2.878,13.878-.568,4.022-1.152,8.78-1.762,14.115-.6,5.216-1.219,11-1.862,17.18-.449,4.336-.907,8.874-1.381,13.565-.533,5.377-1.083,10.94-1.642,16.63-.415,4.166-.83,8.4-1.254,12.676q-.495,5-.99,10.068h-63.04c.017-.153.034-.314.059-.466.551-3.921,1.118-8.044,1.7-12.32.694-5.081,1.406-10.373,2.126-15.783.669-5.056,1.354-10.221,2.032-15.4,1.388-10.575,2.769-21.27,4.064-31.422,1.245-9.712,2.405-18.933,3.438-27.071,2.388-19,4.013-32.15,4.013-32.15a6.768,6.768,0,0,0,.517.465.151.151,0,0,0,.042.034,7.427,7.427,0,0,0,1.787,1.067,11.116,11.116,0,0,0,2.692.754l5.724.1c4.234.076,9.856.153,16.309.22,4.826.051,10.118.094,15.622.111,1.439.008,2.888.016,4.344.008h.068c3.53.008,7.112.008,10.7-.008,5.64-.026,11.287-.085,16.707-.187,5.055-.093,9.923-.22,14.394-.4q2.909-.126,5.58-.262c.017.008.034,0,.051,0l.44-.026c.449-.025.7-.042.7-.042.905-.051,1.778-.11,2.633-.169s1.677-.11,2.473-.178h.008c.66-.051,1.295-.1,1.914-.161.406-.034.813-.076,1.2-.119.2-.016.39-.033.576-.059s.381-.042.567-.059.373-.042.551-.059.355-.043.533-.068c.254-.025.5-.059.745-.093.948-.127,1.8-.254,2.566-.39a17.908,17.908,0,0,0,2.913-.736c.076-.026.152-.06.228-.094a3.355,3.355,0,0,0,.4-.177c.059-.034.119-.068.169-.094a1.711,1.711,0,0,0,.144-.1,1.042,1.042,0,0,0,.229-.195.951.951,0,0,1-.009.11c0,.068-.008.178-.016.322-.009.186-.017.432-.034.737-.009.2-.017.431-.034.677-.026.466-.051,1.016-.077,1.643-.008.161-.017.321-.025.491a.432.432,0,0,0-.008.1c-.009.238-.026.483-.034.737s-.034.525-.043.8c-.025.5-.05,1.025-.084,1.575-.009.229-.017.466-.034.7-.017.338-.034.686-.051,1.041-.017.237-.025.483-.034.737-.05.94-.1,1.931-.161,2.98-.025.525-.05,1.067-.084,1.618s-.051,1.117-.085,1.7c-.042.8-.085,1.634-.127,2.481-.068,1.3-.135,2.65-.212,4.047-.033.7-.076,1.414-.11,2.142-.084,1.66-.178,3.387-.271,5.165-.076,1.279-.135,2.591-.211,3.929-.043.864-.093,1.736-.136,2.617q-.152,2.781-.3,5.707c-.194,3.59-.338,7.3-.44,11.1-.381,13.471-.237,28.094.279,42.421.2,5.072.424,10.1.7,15.03s.593,9.771.949,14.445Q2418.093-290.915,2418.558-285.839Z"/>
            <path class="h"
                  d="M2278.543-476.9c.022.076.055.142.077.218.076.2.153.4.219.623.021.044.032.088.054.142,1.978,5.564,11.673,32.888,11.673,32.9,3.64,9.52,10.5,19.685,16.832,24.832-4.3-15.552-17.685-60.637-17.171-78.8C2287.67-479.484,2278.543-476.915,2278.543-476.9Z"/>
            <path class="h"
                  d="M2402.694-537.408s-33.438,78.775,39.059,119.023l1.449,1.135,1.1-19.058s-31.556-52.214-31.59-53.5S2402.694-537.408,2402.694-537.408Z"/>
            <path class="h"
                  d="M2353.113-605.5c.044,1.3-.645,2.153-2.732,1.869-6.514-.885-13.87-.7-19.215,1.749a4.539,4.539,0,0,1-4.393-.186c-3.421-2-5.542-7.968-6.383-10.613a1.811,1.811,0,0,1-.088-.579c10.744-2.394,18.854-1.924,21.816.634a16.09,16.09,0,0,0,10.044,3.9A8.854,8.854,0,0,1,2353.113-605.5Z"/>
            <g class="i">
                <path d="M2352.027-417.683l-.57-.047S2351.659-417.716,2352.027-417.683Z"/>
                <path class="j"
                      d="M2352.027-417.683c15.225,1.215,48.5-.937,48.5-.937,9.778-.563,16.645-1.431,17.851-2.75,0,0,0,.04-.008.112-.072,1.528-.949,19.018-2.179,41.943a11.207,11.207,0,0,1-1.6-.185,12.46,12.46,0,0,1-8.058-5.725,27.71,27.71,0,0,1-3.133-6.544C2392.051-413.367,2356.905-417.245,2352.027-417.683Z"/>
            </g>
            <path class="g"
                  d="M2346.594-651.958s24.911,13.812,17.517-8.364C2359-675.664,2329.6-661.844,2346.594-651.958Z"/>
            <path class="g"
                  d="M2350.205-657.256s-13.938,8.27-12.593,16.567c0,0-3.074-24.77,10.785-25.392s19.224.715,17.994,26.907C2366.391-639.174,2362.364-660.009,2350.205-657.256Z"/>
            <path class="g"
                  d="M2347.793-665.92s.7-7.717,8.351-6.624,10.929,5.465,12.022,9.836,2.186,7.651,3.279,7.651c0,0-3.279,3.279-4.372,2.186,0,0,2.837,7.86-.767,14.313,0,0-1.419-9.941-6.883-11.034S2347.793-665.92,2347.793-665.92Z"/>
            <path class="g"
                  d="M2348.493-665.987s-5.465-3.278-10.93,4.372l-3.279,6.558s1.093,1.093,3.279,0c0,0-1,7.7.049,12.048l3.23-13.141Z"/>
            <path class="h" d="M2407.409-449.932s3.965-32.424-84.058-28.357,63.755,25.824,63.755,25.824Z"/>
            <path class="k"
                  d="M2330.513-465.464c-1.006-.428-11.4-7.81-17.264-8.819s-14.687-1.948-17.67-3.054c-3.51-1.3-4.528.053-.516,1.955a58.485,58.485,0,0,0,9.205,3.4c.589.07-3.221-.749-7.339-1.945-4.377-1.271-9.106-2.9-9.389-2.128-.549,1.5,12,5.963,14.237,6.385a57.057,57.057,0,0,1-5.9-1.188c-2.649-.687-5.654-1.88-6.3-1.37-1.022.8,5.559,4,11.108,5.216.083.19-1.751.332-8.245-1.557-.653-.189-2.365-.032-.271,1.143,4.407,2.472,6.119,3.861,12.73,4.587,6.446.707,13.682-.064,18.208,1.859Z"/>
            <path class="k"
                  d="M2316.052-473.478s-4.592-5.647-10.142-6.954c-3.3-.776-3.155-1.611-3.7-1.906-1.825-.98-.27,2.671,2.5,3.793,2.248.912,3.227,4.953,4.548,5.9s5.347,2.8,6.424,2.341S2316.052-473.478,2316.052-473.478Z"/>
            <path class="f"
                  d="M2434.076-590.209c19.086,19.972,31.951,38.141,36.414,94.943,2.264,28.818-1.136,57.193-3.483,72.113a17.79,17.79,0,0,1-13.4,14.468c-65.967,16.173-131.821-50.38-131.821-50.38-3.575-1.659,4.867-14.21,4.867-14.21,35.58,2.417,62.735,5.641,90.211,18.757-.138-.079-23.767-54.291-26.391-68.943-6.87-38.421-36.639-73.535-27.12-87.637C2366.645-615.976,2414.824-610.354,2434.076-590.209Z"/>
            <path class="l"
                  d="M2302.986-285.839l.745-7.849,1.439-15.072,1.55-16.173,1.516-15.859,1.659-17.316,1.3-13.607,1.27-13.294,1.668-17.426,1.228-12.82.262-2.777.339-3.531"/>
            <path class="l"
                  d="M2319.176-285.839l.55-5.7,1.423-14.725,1.532-15.851,1.5-15.546,1.71-17.731,1.3-13.5,1.3-13.489,1.888-19.484,1.126-11.719.415-4.234.034-.381"/>
            <path class="l"
                  d="M2347.592-418.194l-.042.491-.356,4.42-.957,11.863-1.592,19.611-1.075,13.362-1.143,14.081-1.38,17.087-1.211,14.979-1.27,15.741-1.135,14.005-.542,6.715"/>
            <line class="l" x2="0.343" y2="34.067" transform="translate(2362.658 -418.191)"/>
            <path class="l"
                  d="M2376.94-285.839l.127-7.036.28-14.835.254-14.115.28-14.928.3-15.953.246-13.6.313-16.96.33-17.756.186-10.169.059-3.3.059-3.108v-.288l.008-.3"/>
            <path class="l"
                  d="M2393.765-418.3v.068l-.017,2.557-.059,12.583-.009,1.888-.1,18.908-.085,16.6-.068,13.675-.085,15.961-.076,15.174-.068,13.81-.076,14.657-.034,6.579"/>
            <path class="l"
                  d="M2407.906-418.3l.017.948.3,15.487.356,18.5.008.635.3,15.614.271,13.768.288,15.4.28,14.344.271,14.471.279,14.513.169,8.772"/>
            <path class="l" d="M2302.679-402.922s90.775,4.285,114.76,0"/>
            <path class="l" d="M2363-384.123c-31.762,7.193-62.156-4.179-62.156-4.179"/>
            <path class="l" d="M2362.658-386.273s28.663,8.054,53.84,1.253"/>
            <path class="l" d="M2299.283-375.949s22.889,11.983,60.067,5.874"/>
            <path class="l" d="M2297.409-361.238s35.619,10.875,60.18,5.279"/>
            <path class="l" d="M2295.531-346.623s18.14,14.221,60.2,7.842"/>
            <path class="l" d="M2293.344-329.811s27.66,14.452,61.008,4.6"/>
            <path class="l" d="M2291.311-314.411s19.59,13.906,61.394,5.829"/>
            <path class="l" d="M2289.184-298.623s27.04,14.135,62.273,2.715"/>
            <path class="l" d="M2288.033-285.839c-.373-.3-.551-.466-.551-.466"/>
            <path class="l" d="M2363.961-370.887s11.974,9.888,52.537,2.548"/>
            <path class="l" d="M2364.275-356.006s16.8,7.835,51.263,1.647"/>
            <path class="l" d="M2363.456-339.49s25.946,7.815,52.082,0"/>
            <path class="l" d="M2363.082-325.793s25.223,11.213,52.959,0"/>
            <path class="l" d="M2362.658-310.755s24.013,8.426,54.079,0"/>
            <path class="l" d="M2362.27-296.312s20.241,9.081,55.414,0"/>
            <path class="h"
                  d="M2347.793-590.849c.623,2.041,5.024,9.216,3.664,15.6s-30.9,70.034-43.066,78.26-34.146,17.577-34.146,17.577l60.048-83.077,3.319-28.356S2343.9-603.6,2347.793-590.849Z"/>
            <path class="k"
                  d="M2342.257-592.653s3.667-6.423,2.868-12.163c-.474-3.411.37-3.581.448-4.211.259-2.088-2.631.725-2.679,3.758-.04,2.465-3.509,4.876-3.92,6.474s-.693,6.095.139,6.947S2342.257-592.653,2342.257-592.653Z"/>
            <path class="k"
                  d="M2339.97-576.007c.035-1.11,3.219-13.666,2.022-19.6s-3.6-16.216-3.65-19.449c-.055-3.8-1.712-4.272-2.043.228a79.228,79.228,0,0,0,.213,11.555,46.83,46.83,0,0,1-1.124-7.6c-.148-2.54-.748-1.536-1.595-1.3-1.567.437-.88,4.726-.457,7a21.987,21.987,0,0,1-1.138-5.585c-.112-1.294-.736-.957-1.5-.839s-1.09,1.049-.208,6.755c-.149.148-.383,1.581-.976-5.266-.06-.688-2.069-2.08-2.144.359-.131,4.278-1.025,3.9.713,10.431,1.694,6.369,5.081,12.944,4.92,17.939Z"/>
            <path class="m"
                  d="M2328.122-586.595a157.014,157.014,0,0,0-56.712,19.14c-15.129,8.67-52.693,30.2-56.712,65.928-.352,3.122-3.013,30,13.469,41.116,11.029,7.441,24.9,3.956,28.581,3.031,6.542-1.644,15.3-5.329,49.4-50.528,19.379-25.686,29.3-41.4,36.862-62.383,1.271-3.526,2.216-6.485,2.836-8.506Z"/>
        </g>
        <path class="n"
              d="M2413.55-652.422c-2.424-3.064-6.372-3.422-8.373-1.674-1.7,1.489-1.777,4.315-.837,6.279a6.39,6.39,0,0,0,6.7,3.349,5.1,5.1,0,0,0,.837,6.279,5.2,5.2,0,0,0,5.861.419,5.77,5.77,0,0,0,2.93-5.442c.243.026,3.674.35,5.023-1.675,1.509-2.266-.626-5.912-2.93-7.535C2420.241-654.194,2416.663-654.155,2413.55-652.422Z"/>
        <path class="n"
              d="M2446.106-699.35c-6.294-7.958-16.549-8.888-21.744-4.348-4.425,3.866-4.617,11.207-2.175,16.307,2.916,6.09,9.931,9.71,17.4,8.7-3.156,5.607-2.123,12.437,2.175,16.308,4.573,4.119,11.094,3.311,15.221,1.088a14.982,14.982,0,0,0,7.611-14.134c.632.068,9.543.909,13.046-4.35,3.919-5.885-1.625-15.355-7.61-19.57C2463.487-703.953,2454.193-703.85,2446.106-699.35Z"/>
    </g>
</svg>
