<svg xmlns="http://www.w3.org/2000/svg" width="605.287" height="456.509" viewBox="0 0 605.287 456.509"><defs><style>.a{fill:#bec9f2;opacity:0.49;}.b{fill:#b35328;}.c{fill:#e9e9e9;}.d{fill:#8e94a0;}.e{fill:#4b3d64;}.f{fill:#cecfd4;}.g,.j,.r{fill:#fff;}.h{fill:#8c7cc9;}.i{fill:#4c97fe;}.j{font-size:11px;font-family:DejaVuSans, DejaVu Sans;}.k{fill:#7aff66;}.l{fill:none;stroke:#000;stroke-miterlimit:10;}.m{fill:#1c1f29;}.n{fill:#f7a81d;}.o{fill:#fdfdfd;}.p{fill:#cf9239;}.q{fill:#f5ad43;}.r{font-size:13px;font-family:MyriadPro-Regular, Myriad Pro;}</style></defs><g transform="translate(-714.713 -279.798)"><g transform="translate(714.713 279.798)"><path class="a" d="M1320,434.424V736.307H999.2c-59.182-46.105-115.318-96.3-172.248-145.17-30.342-26.045-57.8-53.623-82.844-84.825-8.573-10.694-28.416-29.515-29.374-44.322-.544-8.5,10.346-22.812,18.407-26.011,18.723-7.441,39.557,6.082,55.657,13.707,17.037,8.073,84.563,48.423,88.1,9.683,2.589-28.45-15.949-50.665-32.92-70.932-17.036-20.354-37.989-39.741-50.391-63.468-9.411-17.995-11.717-45.443,14.915-45.17,84.051.826,157.322,55.494,228.286,93.4,27.393,14.643,53.133,26.958,82.5,36.837,9.922,3.329,38.958,19.669,41.6,2.077,2.557-17-10.2-35.226-19.778-48.053-10.531-14.121-30.635-25.7-36.587-42.232-5.711-15.873,17.9-13.806,26.676-11.489,18.788,4.961,36.76,22.5,52.731,33.595C1228.844,375.133,1272.458,407.8,1320,434.424Z" transform="translate(-714.713 -279.798)"/></g><g transform="translate(920.588 377.993)"><path class="b" d="M976.17,490.143h0a.886.886,0,0,1-.524-1.135l.719-1.954,1.659.611-.719,1.954A.887.887,0,0,1,976.17,490.143Z" transform="translate(-939.014 -392.632)"/><path class="b" d="M986.118,493.806h0a.887.887,0,0,1-.524-1.135l.719-1.954c.048-.132,1.652.628,1.652.628l-.713,1.936A.886.886,0,0,1,986.118,493.806Z" transform="translate(-939.716 -392.889)"/><path class="c" d="M975.978,489.674h0a.887.887,0,0,1-.524-1.136l.787-2.138a.887.887,0,0,1,1.135-.523h0a.886.886,0,0,1,.524,1.135l-.787,2.139A.887.887,0,0,1,975.978,489.674Z" transform="translate(-939 -392.545)"/><path class="c" d="M985.906,493.33h0a.886.886,0,0,1-.523-1.135l.787-2.138a.886.886,0,0,1,1.135-.524h0a.886.886,0,0,1,.524,1.135l-.787,2.138A.887.887,0,0,1,985.906,493.33Z" transform="translate(-939.702 -392.803)"/><rect class="d" width="5.797" height="3.758" transform="translate(34.752 117.535) rotate(20.217)"/><rect class="d" width="5.797" height="3.758" transform="translate(37.231 111.32) rotate(20.217)"/><path class="e" d="M1237.743,632.339H943.307c-3.27,0-6.722-1.649-7.073-6.451v-4.413l32.23-59.553a10.257,10.257,0,0,1,9.188-5.7h225.317c4.2,0,13.476,8.281,15.356,12.042l26.588,54.2v1.946C1244.978,630.063,1241.329,632.339,1237.743,632.339Z" transform="translate(-936.234 -397.517)"/><path class="f" d="M1237.771,625.631H943.335c-3.27,0-8.651-2.867-6.629-6.392l31.786-64.024a10.257,10.257,0,0,1,9.188-5.7H1203a11.1,11.1,0,0,1,9.929,6.137l31.465,62.964C1246.6,622.633,1241.358,625.631,1237.771,625.631Z" transform="translate(-936.236 -397.043)"/><rect class="f" width="241.121" height="152.363" rx="9.485" transform="translate(32.208)"/><rect class="g" width="222.52" height="132.024" transform="translate(41.466 8.31)"/><path class="e" d="M1141.488,626.4H1054.73a1.565,1.565,0,0,1-1.545-1.811l3.659-22.852a2.54,2.54,0,0,1,2.509-2.139H1137.6a2.233,2.233,0,0,1,2.21,1.911l3.353,22.981A1.694,1.694,0,0,1,1141.488,626.4Z" transform="translate(-944.493 -400.58)"/><path class="h" d="M1209.547,592.143H973.822c-2.616,0-4.611-1-4.2-2.114l9.94-26.678c.536-1.44,3.426-2.5,6.818-2.5H1199c3.013,0,5.57.95,6,2.23l9.111,26.828C1214.469,591.095,1212.324,592.143,1209.547,592.143Z" transform="translate(-938.589 -397.844)"/><g transform="translate(30.361 157.053)"><rect class="f" width="245.823" height="1.242" transform="translate(0 10.553)"/><rect class="f" width="245.823" height="1.242" transform="translate(0 16.761)"/><rect class="f" width="245.823" height="1.242" transform="translate(0 24.21)"/><rect class="f" width="245.823" height="1.242" transform="translate(0 31.038)"/><rect class="f" width="1.862" height="40.97" transform="translate(29.771 0.663) rotate(17.439)"/><rect class="f" width="1.862" height="40.97" transform="translate(47.773 0.663) rotate(17.439)"/><rect class="f" width="1.862" height="40.97" transform="translate(62.051 0.663) rotate(17.439)"/><rect class="f" width="1.862" height="40.97" transform="translate(76.328 0.663) rotate(17.439)"/><rect class="f" width="1.862" height="40.97" transform="translate(91.227 0.663) rotate(17.439)"/><rect class="f" width="1.862" height="40.97" transform="translate(106.344 0.198) rotate(10.978)"/><rect class="f" width="1.862" height="40.97" transform="translate(119.187)"/><rect class="f" width="1.862" height="40.97" transform="translate(215.516 1.221) rotate(-17.439)"/><rect class="f" width="1.862" height="40.97" transform="translate(198.135 1.221) rotate(-17.439)"/><rect class="f" width="1.862" height="40.97" transform="translate(180.754 1.221) rotate(-17.439)"/><rect class="f" width="1.862" height="40.97" transform="translate(163.372 1.221) rotate(-17.439)"/><rect class="f" width="1.862" height="40.97" transform="translate(145.991 1.221) rotate(-17.439)"/><rect class="f" width="1.862" height="40.97" transform="translate(128.609 1.221) rotate(-17.439)"/></g></g><rect class="i" width="222.52" height="132.024" transform="translate(962.054 386.304)"/><text class="j" transform="translate(975.469 405.411)"><tspan x="0" y="0">ქულა 1</tspan><tspan x="0" y="13">ტური 1</tspan></text><rect class="k" width="222.391" height="17.511" transform="translate(962.118 500.817)"/><line class="l" x2="222.391" transform="translate(962.118 500.817)"/><g transform="translate(1110.089 436.922)"><path class="m" d="M1152.367,476.142c-3.23-1.2-6.027-2.925-7.275-6.39-.145-.4-.4-.306-.686-.252a11.8,11.8,0,0,1-3.015.194c-.247-.018-.6.046-.59-.323s.355-.315.6-.285a15.069,15.069,0,0,0,2.243-.072c.866-.026,1.323-.336,1.151-1.295a1.75,1.75,0,0,1,.128-.931c.246-.585.069-.776-.533-.862a8.778,8.778,0,0,1-3.835-1.49c-.187-.131-.551-.27-.372-.575.23-.394.5-.071.715.08a9.492,9.492,0,0,0,4.019,1.484.745.745,0,0,0,.825-.277,5.934,5.934,0,0,1,2.548-1.875,1.082,1.082,0,0,0,.7-.957,10.563,10.563,0,0,1,3.148-5.961c.616-.565,1.253-1.111,1.909-1.627a1.591,1.591,0,0,0,.621-.982c.31-1.407.659-2.806,1.011-4.2.161-.639.666-.888,1.058-.474.781.826,1.694,1.5,2.471,2.344.532.577,1.062,1.388,2.089,1.268a15.277,15.277,0,0,1,6.587.569,1.64,1.64,0,0,0,1.585-.281c1.538-1.035,3.1-2.03,4.678-3.011.226-.141.464-.458.824-.208s.252.605.213.942c-.288,2.493-.567,4.986-.877,7.476a1.5,1.5,0,0,0,.272,1.127,13.871,13.871,0,0,1,2.1,4.523c.131.513.295.595.812.387a2.329,2.329,0,0,1,1.943-.309,4.7,4.7,0,0,1-1.04.528c-1.345.308-1.382.411-1.364,1.783a10.934,10.934,0,0,1-.171,2.258,5.769,5.769,0,0,0,1.82-.1c.209-.022.442-.019.482.236s-.168.344-.386.362a14.427,14.427,0,0,1-1.467.1.842.842,0,0,0-.886.616,11.731,11.731,0,0,1-3.4,4.307c-.613.5-1.273.934-1.979,1.447a10.405,10.405,0,0,1,2.664,1.381c.785.586,1.58,1.162,2.333,1.787a2.643,2.643,0,0,1,.858,3.323c-.231.546-.507,1.073-.731,1.623-.049.119-.312.213-.1.414.157.149.261.065.439.012a8.1,8.1,0,0,0,4.453-3.506,16.614,16.614,0,0,1,2.1-2.954,1.5,1.5,0,0,1,2.445.222,3.713,3.713,0,0,1,.646,2.032,7.3,7.3,0,0,1-4.926,7.1,20.541,20.541,0,0,1-4.279.919c.968.368,1.744,1.125,2.96.8,1.809-.487,2.815.395,2.656,2.135a6.151,6.151,0,0,1-1.06,2.807c-.993,1.519-2.035,3.012-3.878,3.621a2.223,2.223,0,0,1-2.76-1.6c-.257-1.043.34-1.82.735-2.644.224-.468.125-.546-.3-.688a27.514,27.514,0,0,1-6.694-3.375.7.7,0,0,0-1.078.088q-3.549,3.361-7.144,6.675a3.41,3.41,0,0,1-1.763,1.166,16.726,16.726,0,0,1-6.782-.228,2.3,2.3,0,0,1-1.953-2.13,2.446,2.446,0,0,1,1.83-2.351,7.986,7.986,0,0,1,4.013-.345,3.11,3.11,0,0,0,2.752-1.017c1.526-1.445,3.023-2.922,4.544-4.374.335-.319.482-.536.064-.954a7.983,7.983,0,0,1-1.308-1.71c-.352-.624-.543-.7-1.123-.179-3.408,3.072-6.984,1.857-9.318-1.676a1.888,1.888,0,0,1,.1-2.479,2.289,2.289,0,0,1,2.773-.455,6.093,6.093,0,0,1,1.822,1.428.9.9,0,0,0,1.352.111,16.223,16.223,0,0,0,2.941-2.755A28.671,28.671,0,0,1,1152.367,476.142Zm27.9,6.217a6.637,6.637,0,0,1-4.006,2.224c-.952.141-1.274.981-1.978,1.369a.34.34,0,0,0,.087.575,3.311,3.311,0,0,0,1.168.494,11.558,11.558,0,0,0,6.956-1.486c.373-.231.815-.427.964-.911a.215.215,0,0,0,.283-.186l-.007.017a5.67,5.67,0,0,0,1.7-5.632c-.14-.59-.405-1.178-1.112-1.291-.692-.11-1.016.4-1.345.891-.848,1.257-1.7,2.507-2.558,3.759l.015-.008C1180.3,482.164,1180.282,482.259,1180.267,482.359Zm-15.951,3.366a5.75,5.75,0,0,1-1.386,1.516,61.908,61.908,0,0,1-5.229,4.815,1.4,1.4,0,0,1-1.18.324,10.35,10.35,0,0,0-4.205.129,3.3,3.3,0,0,0-1.1.494,1.517,1.517,0,0,0,.244,2.715,6.906,6.906,0,0,0,2.758.643c.892.038,1.791-.047,2.68.018a4.63,4.63,0,0,0,3.6-1.63q3.69-3.492,7.391-6.975a13.2,13.2,0,0,1,1.068-.8,1.829,1.829,0,0,0,.892-2.17c-.3-1.177.688-2.076,1.4-2.923.36-.424.353-.476-.107-.833a17.617,17.617,0,0,1-2.488-1.931c-.25-.277-.487-.566-.711-.863a.345.345,0,0,1,.072-.531c.188-.119.341-.06.479.173a8.3,8.3,0,0,0,2.8,2.466c.984.664,1.079,1.05.36,1.979-.317.409-.621.83-.905,1.262a1.507,1.507,0,0,0-.188,1.7,1.775,1.775,0,0,0,1.658.92,2.827,2.827,0,0,0,2.023-.9,10.958,10.958,0,0,0,2.284-3.919,1.885,1.885,0,0,0-.486-1.919,15.547,15.547,0,0,0-4.637-3.244,2.535,2.535,0,0,0-2.4.116c-1.525.927-3.268.79-4.9,1.17a10.157,10.157,0,0,1-2.035.165c-1.111.026-1.425.2-1.347,1.238a4.591,4.591,0,0,0,.73,2.669A8.8,8.8,0,0,0,1164.316,485.726Zm-17.637-20.837c-.2.214-.736.37-.26.861.165.169-.051.326-.277.4a2.1,2.1,0,0,0-.793,2.232c.16.282.336.077.514.046a.316.316,0,0,1,.4.237.284.284,0,0,1-.225.324c-.758.2-.426.672-.248,1.061a10.261,10.261,0,0,0,5.823,5.139,24.534,24.534,0,0,0,11,1.794c.372-.022.746-.006,1.12-.007a15.255,15.255,0,0,0,6.51-1.808,13.025,13.025,0,0,0,5.308-5.081c.523-.886.473-.99-.523-1.041a5.8,5.8,0,0,1-1.609-.3c-.189-.065-.429-.162-.367-.392.073-.274.338-.282.574-.194a10.454,10.454,0,0,0,1.95.35.574.574,0,0,0,.76-.577c.006-.058.026-.113.031-.17.065-.787.443-1.922-.153-2.249-.556-.3-1.405.555-2.073.993-.178.116-.267.365-.522.409-.146.026-.294.064-.393-.074-.122-.169-.035-.276.1-.426a5.51,5.51,0,0,1,2.148-1.383c.746-.289.758-.731.562-1.336a14.349,14.349,0,0,0-1.952-4.026,2.1,2.1,0,0,1-.389-1.6c.281-2.29.541-4.581.806-6.873.023-.2.021-.395.031-.608a1.989,1.989,0,0,0-1.173.554c-1.415.93-2.814,1.887-4.216,2.839a.838.838,0,0,1-.811.047,14.529,14.529,0,0,0-7.324-.664,1.067,1.067,0,0,1-.977-.406c-1.188-1.112-2.385-2.215-3.688-3.421a31.3,31.3,0,0,0-.933,3.81,3.6,3.6,0,0,1-1.8,2.542,10.188,10.188,0,0,0-4.095,6.846.606.606,0,0,0,.069.5A9.849,9.849,0,0,0,1146.68,464.888Zm27.57,22.152a1.442,1.442,0,0,0-1.336-.287,2.542,2.542,0,0,1-1.527-.02c-.323-.075-.579-.54-.93-.275a12.781,12.781,0,0,0-1.673,1.477c-.164.177.165.4.37.534a26.294,26.294,0,0,0,6.24,3.115c1.294.421,1.333.507.655,1.727-.152.275-.282.561-.43.839a1.455,1.455,0,0,0,.192,2.009,1.861,1.861,0,0,0,2.26.219,9.4,9.4,0,0,0,3.889-5.58c.282-1.229-.19-1.785-1.27-1.734C1178.091,489.777,1176.226,488.2,1174.25,487.041Zm-16.122-6.394c-1.244.939-1.886.9-2.873-.266a4.122,4.122,0,0,0-1.462-1.013,1.534,1.534,0,0,0-1.928.465,1.218,1.218,0,0,0-.005,1.657c2.209,3.262,5.424,4.415,8.677,1.309.295-.282.492-.559.275-.977a6.508,6.508,0,0,1-.707-3.019A9.273,9.273,0,0,1,1158.128,480.647Z" transform="translate(-1140.136 -448.863)"/><path class="n" d="M1164.448,477.027a15.24,15.24,0,0,0,6.508-1.807,13.025,13.025,0,0,0,5.308-5.081c.523-.886.473-.99-.523-1.041a5.8,5.8,0,0,1-1.609-.3c-.189-.065-.429-.162-.367-.392.073-.274.338-.282.574-.194a10.454,10.454,0,0,0,1.95.35.574.574,0,0,0,.76-.577c.006-.058.026-.113.031-.17.065-.787.443-1.922-.153-2.249-.556-.3-1.405.555-2.073.993-.178.116-.267.365-.522.409-.146.026-.294.064-.393-.074-.122-.169-.035-.276.1-.426a5.51,5.51,0,0,1,2.148-1.383c.746-.289.758-.731.562-1.336a14.349,14.349,0,0,0-1.952-4.026,2.1,2.1,0,0,1-.389-1.6c.281-2.29.541-4.581.806-6.873.023-.2.021-.395.031-.608a1.989,1.989,0,0,0-1.173.554c-1.415.93-2.814,1.887-4.216,2.839a.838.838,0,0,1-.811.047,14.529,14.529,0,0,0-7.324-.664,1.067,1.067,0,0,1-.977-.406c-1.188-1.112-2.385-2.215-3.688-3.421a31.3,31.3,0,0,0-.933,3.81,3.6,3.6,0,0,1-1.8,2.542,10.188,10.188,0,0,0-4.095,6.846.606.606,0,0,0,.069.5l.863-.063a12.743,12.743,0,0,1,.165-1.858,6.161,6.161,0,0,1,3.761-5.071c2.054-.934,3.758.233,3.712,2.487a6.875,6.875,0,0,1-3.782,5.967c.254.226.689.218.8.625-.12-.545.162-.8.651-.917a7.992,7.992,0,0,1,3.423-.027.892.892,0,0,1,.822,1.1l2.583-.636c0-.485,0-.97-.008-1.455a6.066,6.066,0,0,1,3.5-5.639,2.719,2.719,0,0,1,4.233,2.2,6.6,6.6,0,0,1-1.812,5.116c.318.285.651.555.951.859a5.8,5.8,0,0,1,.859,6.74,8.636,8.636,0,0,1-3.913,3.308A21.045,21.045,0,0,0,1164.448,477.027Z" transform="translate(-1140.847 -448.914)"/><path class="o" d="M1154.7,465.78c.254.226.689.218.8.625.2.865.521,1.74,1.45,1.951,1.234.281,2.169-.481,3.036-1.249a3.264,3.264,0,0,0,.409-.544l2.583-.635a3.07,3.07,0,0,0,4.542,1.236,14.3,14.3,0,0,0,1.371-1.011c.318.285.651.555.951.859a5.8,5.8,0,0,1,.859,6.74,8.636,8.636,0,0,1-3.913,3.308,21.116,21.116,0,0,0-2.661,1c-.375,0-.749-.015-1.121.007a24.534,24.534,0,0,1-11-1.794,10.261,10.261,0,0,1-5.823-5.139c-.177-.389-.51-.859.248-1.061a.284.284,0,0,0,.225-.324.316.316,0,0,0-.4-.237c-.178.032-.354.236-.514-.046a2.1,2.1,0,0,1,.793-2.232c.226-.074.442-.231.277-.4-.476-.491.056-.647.26-.861a9.849,9.849,0,0,1,2.906-1.658l.863-.063C1151.753,466.1,1152.547,466.418,1154.7,465.78Zm10.558,4.259c-.033-.889-.28-1.084-1.13-.81a25.7,25.7,0,0,1-9.109,1.219c-.458-.021-.916-.072-1.372-.134-.968-.13-1.284.224-.9,1.112a6.965,6.965,0,0,0,5.376,4.386,7.036,7.036,0,0,0,4.7-.615c1.855-.989,2.377-2.7,2.435-4.639C1165.254,470.385,1165.258,470.211,1165.253,470.039Z" transform="translate(-1140.525 -449.95)"/><path class="n" d="M1165.1,487.788a5.75,5.75,0,0,1-1.386,1.516,61.908,61.908,0,0,1-5.229,4.815,1.4,1.4,0,0,1-1.18.324,10.35,10.35,0,0,0-4.205.129,3.3,3.3,0,0,0-1.1.494,1.517,1.517,0,0,0,.244,2.715,6.906,6.906,0,0,0,2.758.643c.892.038,1.791-.047,2.68.018a4.63,4.63,0,0,0,3.6-1.63q3.69-3.492,7.391-6.975a13.2,13.2,0,0,1,1.068-.8,1.829,1.829,0,0,0,.892-2.17c-.3-1.177.688-2.076,1.4-2.923.36-.424.353-.476-.107-.833a17.617,17.617,0,0,1-2.488-1.931c-.25-.277-.487-.566-.711-.863a.345.345,0,0,1,.072-.531c.188-.119.341-.06.479.173a8.3,8.3,0,0,0,2.8,2.466c.984.664,1.079,1.05.36,1.979-.317.409-.621.83-.905,1.262a1.507,1.507,0,0,0-.188,1.7,1.775,1.775,0,0,0,1.658.92,2.827,2.827,0,0,0,2.023-.9,10.958,10.958,0,0,0,2.284-3.919,1.885,1.885,0,0,0-.486-1.919,15.547,15.547,0,0,0-4.637-3.244,2.535,2.535,0,0,0-2.4.116c-1.525.927-3.268.79-4.9,1.17a10.157,10.157,0,0,1-2.035.165c-1.111.026-1.425.2-1.347,1.238a4.587,4.587,0,0,0,.73,2.667c.271-.1.345-.355.475-.578.744-1.276,2.687-1.94,3.653-1.19a5.047,5.047,0,0,1,1.54,2,1.48,1.48,0,0,1-.257,1.674A10.414,10.414,0,0,1,1165.1,487.788Z" transform="translate(-1140.923 -450.925)"/><path class="n" d="M1182.862,491.916c-2.6.712-4.462-.861-6.439-2.024a1.442,1.442,0,0,0-1.336-.287,2.542,2.542,0,0,1-1.527-.02c-.323-.075-.579-.54-.93-.275a12.781,12.781,0,0,0-1.673,1.477c-.164.177.165.4.37.534a26.294,26.294,0,0,0,6.24,3.115c1.294.421,1.333.507.655,1.727-.152.275-.282.561-.43.839a1.455,1.455,0,0,0,.192,2.009,1.861,1.861,0,0,0,2.26.219,9.4,9.4,0,0,0,3.889-5.58C1184.414,492.421,1183.942,491.865,1182.862,491.916Z" transform="translate(-1142.31 -451.714)"/><path class="n" d="M1160.971,481.079a9.273,9.273,0,0,1-1.977,1.843c-1.244.939-1.886.9-2.873-.266a4.122,4.122,0,0,0-1.462-1.013,1.534,1.534,0,0,0-1.928.465,1.218,1.218,0,0,0-.005,1.657c2.209,3.262,5.424,4.415,8.677,1.309.295-.282.492-.559.275-.977A6.508,6.508,0,0,1,1160.971,481.079Z" transform="translate(-1141.002 -451.138)"/><path class="n" d="M1182.853,484.891a6.637,6.637,0,0,1-4.006,2.224c-.952.141-1.274.981-1.978,1.369a.34.34,0,0,0,.087.575,3.311,3.311,0,0,0,1.168.494,11.558,11.558,0,0,0,6.956-1.486c.373-.231.815-.427.964-.911l.283-.186-.007.017c-.184-1.508-.808-2.148-2.2-2.238-.371-.024-.743-.023-1.114-.034l.015-.008Z" transform="translate(-1142.722 -451.394)"/><path class="o" d="M1165.937,488.055a10.414,10.414,0,0,0,2.553-2.219,1.48,1.48,0,0,0,.257-1.674,5.047,5.047,0,0,0-1.54-2c-.967-.751-2.91-.086-3.653,1.19-.13.223-.2.477-.475.578A8.808,8.808,0,0,0,1165.937,488.055Z" transform="translate(-1141.756 -451.192)"/><path class="o" d="M1183.485,484.361c.372.011.744.01,1.114.034,1.389.09,2.014.73,2.2,2.238a5.67,5.67,0,0,0,1.7-5.632c-.14-.59-.405-1.178-1.112-1.291-.692-.11-1.016.4-1.345.891C1185.2,481.859,1184.338,483.109,1183.485,484.361Z" transform="translate(-1143.198 -451.04)"/><path class="o" d="M1183.317,484.891l.171-.184C1183.353,484.7,1183.332,484.791,1183.317,484.891Z" transform="translate(-1143.186 -451.394)"/><path class="o" d="M1187.035,487.143l-.283.186A.215.215,0,0,0,1187.035,487.143Z" transform="translate(-1143.428 -451.566)"/><path class="m" d="M1164.284,464.027a6.066,6.066,0,0,1,3.5-5.639,2.719,2.719,0,0,1,4.233,2.2,6.6,6.6,0,0,1-1.812,5.116,14.3,14.3,0,0,1-1.371,1.011,3.07,3.07,0,0,1-4.542-1.236C1164.289,465,1164.292,464.512,1164.284,464.027Zm3.551-4.978a5.915,5.915,0,0,0-3.1,4.981c-.084,2.008,1.069,3.012,3.105,2.441,1.972-.552,3.74-3.231,3.644-5.391C1171.385,458.88,1169.721,457.929,1167.835,459.049Z" transform="translate(-1141.841 -449.504)"/><path class="m" d="M1151.4,461.845a6.161,6.161,0,0,1,3.761-5.071c2.054-.934,3.758.233,3.712,2.487a6.875,6.875,0,0,1-3.782,5.967c-2.148.638-2.942.323-3.857-1.526A12.743,12.743,0,0,1,1151.4,461.845Zm3.421,2.78a5.956,5.956,0,0,0,3.444-5.322c.066-1.939-1.133-2.659-2.876-1.991a6.471,6.471,0,0,0-3.605,5.415C1151.791,464.6,1153.139,465.483,1154.819,464.625Z" transform="translate(-1140.92 -449.398)"/><path class="m" d="M1156.245,466.483c.2.865.521,1.74,1.45,1.951,1.234.281,2.169-.481,3.036-1.249a3.264,3.264,0,0,0,.409-.544.892.892,0,0,0-.822-1.1,7.992,7.992,0,0,0-3.423.027C1156.407,465.682,1156.125,465.939,1156.245,466.483Z" transform="translate(-1141.272 -450.028)"/><path class="m" d="M1163.346,475.566a7.036,7.036,0,0,1-4.7.615,6.965,6.965,0,0,1-5.376-4.386c-.381-.888-.065-1.242.9-1.112.455.061.914.112,1.372.134a25.7,25.7,0,0,0,9.109-1.219c.85-.273,1.1-.079,1.13.81.006.172,0,.346,0,.519C1165.723,472.87,1165.2,474.577,1163.346,475.566Zm-4.139.1a7.148,7.148,0,0,0,2.659-.166c2.548-.68,3.363-2.518,3.344-4.986-.005-.636-.389-.322-.646-.243a26.67,26.67,0,0,1-9.57,1.1c-.369-.024-.738-.062-1.184-.1A6.277,6.277,0,0,0,1159.207,475.669Z" transform="translate(-1141.052 -450.319)"/><path class="o" d="M1167.873,466.519c-2.036.571-3.189-.433-3.105-2.441a5.915,5.915,0,0,1,3.1-4.981c1.886-1.12,3.55-.169,3.648,2.031C1171.612,463.288,1169.845,465.967,1167.873,466.519Zm-1.174-3.746a.968.968,0,0,0-.042,1.929c.6.01.833-.417.925-.93C1167.522,463.211,1167.3,462.779,1166.7,462.773Z" transform="translate(-1141.875 -449.552)"/><path class="o" d="M1155.429,457.359c1.743-.668,2.942.052,2.876,1.991a5.956,5.956,0,0,1-3.444,5.322c-1.68.858-3.029-.022-3.037-1.9A6.471,6.471,0,0,1,1155.429,457.359Zm-1.718,5.825a.969.969,0,0,0-.06-1.929c-.63.011-.808.454-.842.967C1152.853,462.819,1153.1,463.216,1153.712,463.185Z" transform="translate(-1140.962 -449.445)"/><path class="o" d="M1153.863,471.317a6.277,6.277,0,0,0,5.4,4.4,7.148,7.148,0,0,0,2.659-.166c2.548-.68,3.364-2.518,3.344-4.986-.006-.636-.389-.322-.646-.243a26.671,26.671,0,0,1-9.57,1.1C1154.678,471.393,1154.309,471.355,1153.863,471.317Z" transform="translate(-1141.105 -450.368)"/><path class="m" d="M1167.66,464.087c-.059-.561-.279-.993-.883-1a.968.968,0,0,0-.042,1.929C1167.337,465.028,1167.568,464.6,1167.66,464.087Z" transform="translate(-1141.953 -449.867)"/><path class="m" d="M1152.884,462.537c.044.6.291.993.9.962a.969.969,0,0,0-.06-1.929C1153.1,461.581,1152.918,462.024,1152.884,462.537Z" transform="translate(-1141.036 -449.76)"/></g><g transform="translate(1044.922 488.275)"><rect class="p" width="51.998" height="22.064" rx="10.053" transform="translate(2.155 2.364)"/><rect class="q" width="51.998" height="22.064" rx="10.053"/><text class="r" transform="translate(8.799 13.356)"><tspan x="0" y="0">space</tspan></text></g></g></svg>