<svg xmlns="http://www.w3.org/2000/svg" width="528" height="420.911" viewBox="0 0 528 420.911"><defs><style>.a{fill:#bec9f2;opacity:0.49;}.b{fill:#e4a653;}.c,.e{fill:#caa267;}.c{fill-rule:evenodd;}.d{fill:#c2934e;}.f{fill:#8c7cc9;}.g{opacity:0.15;}.h{fill:#f0c659;}</style></defs><g transform="translate(-766.793 -256.858)"><path class="a" d="M956.582,671.527S821.545,663.994,779.741,596.9s28.6-103.949,56.105-118.893,60.505-26.9,74.806-120.542,100.109-104.6,136.961-99.621,61.422,34.867,75.54,55.788,46.021,53.381,95.525,87.958,102.309,116.931,61.605,203.27-138.062,70.647-138.062,70.647S1025.336,682.655,956.582,671.527Z" transform="translate(0 0)"/><path class="b" d="M1274.545,643.66H908.705l55.229-57.253h257.276Z" transform="translate(14.689 34.109)"/><g transform="translate(863.186 338.551)"><g transform="translate(0 40.54)"><path class="c" d="M899.378,396.2c-1-.815-10.329-12.6-16.64-15.673s-15.987-7.045-19-9.282c-3.544-2.63-5.145-1.431-1.228,2.045,2.545,2.259,7.972,6.321,9.3,6.886.644.274-3.4-1.909-7.667-4.619-4.538-2.881-9.353-6.288-9.928-5.5-1.118,1.521,11.618,10.705,14.015,11.92a67.33,67.33,0,0,1-6.286-3.288c-2.773-1.651-5.781-3.991-6.684-3.627-1.422.573,4.975,6.358,10.856,9.565.032.242-2.091-.2-8.821-4.479-.677-.43-2.667-.817-.683,1.2,4.175,4.251,5.655,6.388,12.9,9.388,7.066,2.925,15.512,4.437,20,8.105Z" transform="translate(-854.145 -367.399)"/><path class="c" d="M883.981,382.592s-3.338-7.907-9.191-11.215c-3.478-1.966-3.04-2.865-3.566-3.38-1.743-1.71-1.186,2.935,1.576,5.118,2.245,1.773,2.022,6.67,3.206,8.175s5.13,4.934,6.5,4.767S883.981,382.592,883.981,382.592Z" transform="translate(-852.48 -367.626)"/></g><g transform="translate(27.953)"><path class="d" d="M1059.651,380.88s-1.41,15.734,8.294,24.435-22.366,0-22.366,0,5.969-15.071,4.63-24.435S1059.651,380.88,1059.651,380.88Z" transform="translate(-862.284 -326.145)"/><ellipse class="e" cx="16.967" cy="23.149" rx="16.967" ry="23.149" transform="translate(175.28 14.537)"/><path class="f" d="M928.48,479.269c25.685-53.728,71.527-78.241,100.794-84.749,12.668-2.822,22.231-2.268,25.724.748a18.977,18.977,0,0,0,11.844,4.6,25.671,25.671,0,0,0,6.65-.606,33.08,33.08,0,0,0,7.049-2.4c1.083-.5,1.715-.864,1.715-.864a68.757,68.757,0,0,1,17.913,1.07c66.217,12.965,77.739,123.992,77.146,133.541-.361,5.683-6.238,31.432-13.584,54.321-6.019,18.789-13.042,35.66-18.816,37.993-12.811,5.154-109.532,12.23-129.417,2.744-.465-.348-.967-.722-1.444-1.133-7.462-6.07-15.555-18.056-19.846-29.282,0-.012-11.431-32.231-13.764-38.791-.025-.064-.039-.116-.064-.168-.077-.257-.168-.5-.258-.734-.025-.091-.064-.168-.09-.258Z" transform="translate(-874.404 -324.493)"/><path class="g" d="M975.2,542.274c.025.09.064.168.089.258.09.232.181.477.258.734.025.052.039.1.064.168,2.333,6.56,13.764,38.779,13.764,38.791,4.292,11.226,12.386,23.211,19.848,29.281-5.065-18.339-20.853-71.5-20.247-92.92C985.959,539.233,975.2,542.26,975.2,542.274Z" transform="translate(-869.569 -311.461)"/><path class="g" d="M1116.046,470.452s-32.053,95.684,56.877,136.319l1.808,1.2-.459-22.5s-41.9-58.475-42.064-59.98S1116.046,470.452,1116.046,470.452Z" transform="translate(-855.573 -316.443)"/><path class="g" d="M1058.509,403.67c.052,1.534-.76,2.539-3.222,2.2-7.681-1.044-16.354-.824-22.656,2.062a5.349,5.349,0,0,1-5.181-.22c-4.034-2.358-6.534-9.394-7.526-12.514a2.116,2.116,0,0,1-.1-.683c12.668-2.822,22.231-2.268,25.724.748a18.977,18.977,0,0,0,11.844,4.6A10.481,10.481,0,0,1,1058.509,403.67Z" transform="translate(-864.95 -324.493)"/><g transform="translate(171.357)"><g transform="translate(3.581 6.454)"><path class="h" d="M1048.492,354.682s29.374,16.287,20.655-9.862C1063.116,326.729,1028.458,343.025,1048.492,354.682Z" transform="translate(-1037.559 -336.737)"/><path class="h" d="M1053.2,348.326s-16.435,9.752-14.85,19.534c0,0-3.624-29.206,12.717-29.94s22.668.843,21.218,31.727C1072.283,369.646,1067.535,345.079,1053.2,348.326Z" transform="translate(-1038.006 -336.628)"/></g><path class="h" d="M1049.195,338.824s.825-9.1,9.847-7.811,12.888,6.443,14.177,11.6,2.578,9.021,3.866,9.021c0,0-3.866,3.866-5.154,2.577,0,0,3.345,9.269-.9,16.878,0,0-1.673-11.722-8.116-13.011S1049.195,338.824,1049.195,338.824Z" transform="translate(-1033.267 -330.889)"/><path class="h" d="M1051.514,338.086s-6.443-3.867-12.888,5.154l-3.866,7.733s1.288,1.289,3.866,0c0,0-1.174,9.08.057,14.205l3.809-15.494Z" transform="translate(-1034.761 -330.229)"/></g><path class="g" d="M1152.946,565.118s-16.579-34.768-101.576,24.993,79.774-14.662,79.774-14.662Z" transform="translate(-864.206 -307.686)"/><path class="f" d="M985.518,556.907s-78.447,33.28-97.481-38.494.765-88.989-6.975-123.928l12.619-6.075s47.494,29.281,63.752,74.486S985.518,556.907,985.518,556.907Z" transform="translate(-879.476 -324.935)"/></g><g transform="translate(162.275 68.1)"><g transform="translate(0 226.078)"><path class="c" d="M1052.7,614.268c-1.222-.409-14.116-8.132-21.107-8.776s-17.444-.938-21.054-1.963c-4.245-1.207-5.318.479-.426,2.346,3.179,1.213,9.692,3.094,11.134,3.153.7.029-3.856-.584-8.806-1.61-5.264-1.09-10.972-2.575-11.234-1.637-.506,1.817,14.654,5.9,17.324,6.194a67.249,67.249,0,0,1-7.04-.853c-3.178-.564-6.82-1.689-7.536-1.03-1.128,1.038,6.9,4.189,13.538,5.108.116.215-2.028.551-9.837-1.07-.785-.163-2.782.18-.213,1.367,5.408,2.5,7.549,3.976,15.387,4.22,7.643.238,16.079-1.334,21.576.509Z" transform="translate(-1001.2 -596.89)"/><path class="c" d="M1033.488,606.764s-5.918-6.215-12.562-7.24c-3.95-.609-3.858-1.6-4.531-1.9-2.236-.984-.072,3.165,3.283,4.23,2.727.865,4.25,5.524,5.889,6.513s6.544,2.8,7.768,2.161S1033.488,606.764,1033.488,606.764Z" transform="translate(-999.721 -597.474)"/></g><path class="f" d="M1155.741,413.55c24.276,21.72,41.072,41.895,51.55,108.256,5.317,33.669,3.932,67.338,2.548,85.093a20.977,20.977,0,0,1-14.417,18.241c-76.058,25.088-157.243,20.077-157.243,20.077-4.356-1.62.342-17.379.342-17.379,38.913-52.809,94.526-43.929,109.487-53.193,4.667-27.375-32.94-61.632-37.375-78.614-11.614-44.533-49.842-83.069-39.951-100.524C1074.1,389.47,1131.256,391.641,1155.741,413.55Z" transform="translate(-997.564 -392.601)"/></g></g></g></svg>