<svg xmlns="http://www.w3.org/2000/svg" width="321.634" height="433.999" viewBox="0 0 321.634 433.999"><defs><style>.a{fill:none;stroke:#634f41;stroke-miterlimit:10;stroke-width:2px;}.b,.e{fill:#f8cb48;}.c{fill:#634f41;}.d{fill:#fefefe;}.e{opacity:0.3;}</style></defs><g transform="translate(-954.843 -328.758)"><line class="a" y2="299.856" transform="translate(1118.901 346.874)"/><g transform="translate(996.699 328.758)"><path class="b" d="M1182.785,409.514a69.807,69.807,0,0,0-3.152,9.449c-1.175,5.411,1.657,7.926,6.826,5.939,3.485-1.34,6.8-3.133,10.164-4.774a17.741,17.741,0,0,1,9.6-2.183l.551,1.209c.839,1.24-.286,2.1-.7,3-4.277,9.36-9.891,18.014-14.45,27.227-2.786,5.629-5.089,11.383-5.391,17.812-.291,6.231,3.477,10.567,6.727,15.087,6.222,8.656,11.193,17.834,13.085,28.451.216,1.212.277,2.452.47,4.237-2.516-1.223-4.683-2.117-6.689-3.284-5.307-3.087-11.126-4.918-16.784-7.163-5.293-2.1-10.746-2.346-16.291-2.106-2.8.122-4.225,1.722-4.249,4.695-.032,3.952,1.764,7.249,3.978,10.33,4.223,5.876,9.516,10.774,14.705,15.75,5.862,5.622,11.692,11.262,17.193,17.249,1.3,1.417.313,2.061-.158,2.789a97.138,97.138,0,0,1-21.962,24.544c-1.874,1.447-2.534,2.61-1.63,5.133a50.8,50.8,0,0,1,2.928,19.054,15.128,15.128,0,0,1-.953,4.888c-.906,2.383-2.376,4.188-5.112,4.458-2.685.265-3.454-1.922-4.5-3.682-6.023-10.141-13.751-18.54-24.427-23.929-5.883-2.97-11.81-1.92-17.935-.618-17.789,3.783-35.449,2.657-52.83-2.494-14.733-4.365-27.894-11.542-38.386-22.981a66.363,66.363,0,0,1-17.43-38.708c-2.355-21.85,4.971-40.893,17.569-58.016,7.3-9.927,10.812-21.1,14.4-32.527,4.541-14.48,6.173-29.565,10-44.174a25.115,25.115,0,0,1,3.446-8.333c1.875-2.655,3.751-2.527,5.036.421,1.974,4.527,2.4,9.447,3.221,14.25.6,3.473.863,7,1.437,10.479.779,4.712,7.069,9.328,11.815,8.91,1.321-.117,1.989-.99,2.831-1.747,12.585-11.327,23.7-24.027,34.688-36.866,9.757-11.4,19.635-22.7,30.615-32.979a37.952,37.952,0,0,1,9.228-6.89c1.232-.6,2.536-1.45,3.761-.444,1.114.914.621,2.417.285,3.547a106.759,106.759,0,0,1-7.656,18.114c-6.089,11.88-12.565,23.589-17.206,36.135-1.8,4.877-3.385,9.935-2.76,15.378.585,5.1,3.777,8.389,8.973,8.669,5.074.273,8.942-2.306,12.558-5.441,5.442-4.719,9.658-10.577,14.625-15.739a43.545,43.545,0,0,1,6.826-5.937,8.487,8.487,0,0,1,7.991-.963c.693.143,1.322.369,1.52,1.162C1190.122,394.6,1185.637,401.85,1182.785,409.514Zm-65.018,119.249c6.133.1,14.617-5.919,14.358-14.557-.216-7.239-5.509-14.616-14.682-14.6-8.014.015-14.7,6.486-14.327,14.5C1102.461,523.225,1110.844,528.654,1117.768,528.764Zm-70.338.459c9.78-.678,15.636-6.339,15.8-14.738a14.161,14.161,0,0,0-14.181-14.806,14.674,14.674,0,0,0-14.79,14.614C1034.25,521.173,1041.543,529.631,1047.43,529.223Zm43.287,25.452a16.563,16.563,0,0,0,2.16-1.792,1.8,1.8,0,0,0,.285-2.749c-.775-.908-1.676-.621-2.519-.056-1.209.81-2.365,1.706-3.609,2.456a33.367,33.367,0,0,1-14.482,4.521,9.266,9.266,0,0,0-1.554.132c-1.211.325-3.068.04-2.839,2.078.2,1.806,1.768,1.756,3.161,1.728A41.185,41.185,0,0,0,1090.717,554.675Z" transform="translate(-990.791 -328.584)"/><path class="c" d="M1210.689,423.845c-.79,4.286-2.839,8.038-4.87,11.794-3.717,6.877-7.7,13.611-10.767,20.827-3.263,7.673-4.089,15.063,1.976,21.885a20.235,20.235,0,0,1,1.714,2.613,70.126,70.126,0,0,1,11.157,32.819,3.755,3.755,0,0,0,2.061,3.487,48.594,48.594,0,0,1,11.3,8.837c7.03,7.128,13.215,14.835,15.616,24.842,1.5,6.244,1.225,12.243-3.657,17.194l-.447-.446c3.523-5.136,3.154-10.7,1.376-16.193-5.752-17.764-16.474-31.019-34.456-37.732-8.5-3.174-16.933-6.5-25.985-7.77-2.641-.37-5.794-1.315-7.525,1.309-1.635,2.481.235,4.977,1.668,7.176,3.953,6.068,8.965,11.224,14.187,16.172,7.49,7.1,14.893,14.311,21.281,22.41,3.171,4.019,6.815,7.533,10.157,11.353.342.391.738.734,1.11,1.1,4.91,4.845,10.268,7.5,16.992,3.469.08.092.158.186.235.28-5.574,4.506-10.586,4.672-16.132.359a36.61,36.61,0,0,1-4.991-4.713c-3.307-3.76-6.464-7.649-9.84-11.673-5.693,10.428-12.524,19.667-21.313,27.344-1.284,1.121-.7,2.246-.41,3.406,1.774,7.085,2.321,14.2.281,21.311-1.056,3.683-2.917,6.688-7.17,7.361-4.172.658-6.953-1.425-9.286-4.507-2.454-3.241-4.9-6.489-7.4-9.7a35.272,35.272,0,0,0-9.824-8.412c-.381,5.686-.61,10.9-2.585,15.812-1.578,3.924-3.92,7.063-8.138,8.521a1.974,1.974,0,0,1-2.225-.3c4.193-1.613,6.432-4.737,7.353-9.073a75.463,75.463,0,0,0,1.495-15.488c.007-1.668-.789-2.483-2.094-3.44-4.364-3.2-8.67-2.653-13.507-1.046-7.686,2.552-7.825,2.3-4.419,9.576,1.593,3.4,2.72,6.966,3.969,10.49,1.285,3.627,2.785,7.071,6.419,9.01-3.019,1.08-4.884-.6-6.448-2.792-1.473-2.068-2.1-4.524-2.886-6.9a52.8,52.8,0,0,0-6.094-13.083c-.838,1-1.489,1.792-2.153,2.574-5.6,6.6-11.094,13.381-18.87,17.6-6.84,3.709-11.328.977-11.671-6.83a67.468,67.468,0,0,1,.977-12.15c.427-3.109-.412-4.24-3.612-4.809-18.125-3.23-34.083-10.808-46.976-24.253a77.456,77.456,0,0,1-11.023-14.979c-.949,1.464-1.715,2.556-2.392,3.7a41.594,41.594,0,0,1-6.627,9.066c-3.517,3.4-7.719,4.212-11.216,2.244,5.039.365,8.387-2.522,11.3-6.046,2.322-2.806,4.284-5.885,6.323-8.907a5.222,5.222,0,0,0,.213-5.786c-3.752-7.608-5.412-15.687-6.033-24.108-.213-2.878-.58-5.75-.631-8.65-.012-.691-.125-1.667-.573-2-.727-.54-1.223.451-1.752.863-6.464,5.031-10.338,11.935-13.4,19.278a52.626,52.626,0,0,0-4.549,21.517c.113,5.377,2,9.606,6.3,12.779-3.8-.555-5.693-3.362-7.16-6.417-2.608-5.434-2.453-11.165-.963-16.827a64.25,64.25,0,0,1,19.692-32.012,7.664,7.664,0,0,0,2.865-5.168c2.358-19.3,9.955-36.46,21.687-51.85a13.5,13.5,0,0,0,2.371-5.008c4.206-16.455,8.249-32.939,11.348-49.653,1.234-6.659,3.147-13.2,7.388-18.736,1.86-2.429,4.219-4.229,7.453-3.684,3.3.557,5.03,3.008,6.088,6.006a60.3,60.3,0,0,1,3.31,17.125c.245,4.955,2.628,8.353,6.231,11.354,2,1.664,3.2,1.407,4.793-.588,12.35-15.5,25.474-30.338,38.512-45.25,8.506-9.729,17.058-19.44,27.2-27.562a25.167,25.167,0,0,1,9.221-5.139c4.153-1.091,7.05,1.1,7.045,5.411a24.428,24.428,0,0,1-2.02,8.781c-3.131,8.082-7.236,15.7-11.028,23.475-5.748,11.774-12.329,23.209-14.874,36.313-.485,2.5-.7,4.868,1.29,6.651,2.179,1.953,4.826,1.71,7.371.669a23.366,23.366,0,0,0,8-5.877c4.944-5.22,9.773-10.551,14.765-15.725,2.695-2.79,5.721-5.288,9.7-5.967,2.717-.464,5.513-.563,7.391,2.154a8.487,8.487,0,0,0-7.991.963,43.551,43.551,0,0,0-6.826,5.937c-4.967,5.162-9.183,11.02-14.625,15.739-3.615,3.135-7.484,5.713-12.558,5.441-5.2-.279-8.388-3.572-8.973-8.669-.624-5.443.956-10.5,2.76-15.378,4.641-12.546,11.117-24.255,17.207-36.135a106.749,106.749,0,0,0,7.655-18.114c.336-1.131.83-2.633-.285-3.547-1.224-1.006-2.529-.152-3.761.444a37.951,37.951,0,0,0-9.228,6.89c-10.98,10.274-20.858,21.577-30.615,32.979-10.985,12.839-22.1,25.539-34.687,36.866-.842.757-1.51,1.631-2.831,1.747-4.746.418-11.036-4.2-11.815-8.91-.575-3.477-.84-7.006-1.437-10.479-.825-4.8-1.247-9.724-3.221-14.25-1.286-2.947-3.162-3.076-5.037-.421a25.117,25.117,0,0,0-3.446,8.333c-3.823,14.608-5.455,29.694-10,44.174-3.585,11.429-7.093,22.6-14.4,32.527-12.6,17.123-19.924,36.167-17.569,58.016a66.362,66.362,0,0,0,17.431,38.708c10.492,11.439,23.653,18.616,38.386,22.981,17.381,5.151,35.042,6.276,52.83,2.494,6.125-1.3,12.052-2.353,17.935.618,10.675,5.389,18.4,13.788,24.427,23.929,1.045,1.759,1.814,3.946,4.5,3.682,2.736-.269,4.207-2.075,5.112-4.457a15.128,15.128,0,0,0,.953-4.888,50.793,50.793,0,0,0-2.928-19.054c-.9-2.523-.244-3.686,1.63-5.133a97.14,97.14,0,0,0,21.962-24.544c.471-.729,1.461-1.373.158-2.789-5.5-5.987-11.331-11.627-17.193-17.249-5.189-4.976-10.482-9.874-14.705-15.75-2.214-3.081-4.01-6.378-3.978-10.33.023-2.973,1.453-4.573,4.249-4.695,5.545-.241,11,.007,16.291,2.106,5.658,2.245,11.478,4.076,16.784,7.163,2.007,1.167,4.174,2.06,6.689,3.284-.193-1.786-.254-3.025-.47-4.237-1.892-10.617-6.863-19.795-13.085-28.451-3.25-4.52-7.018-8.855-6.727-15.087.3-6.429,2.6-12.183,5.391-17.812,4.559-9.213,10.173-17.867,14.45-27.227.413-.9,1.537-1.764.7-3C1210.765,420.388,1211.038,421.946,1210.689,423.845ZM1101.362,589.593c-2.8-.152-5.609-.3-8.41-.5-1.287-.091-2.223.186-2.582,1.6a95.949,95.949,0,0,0-2.689,15.023c-.159,1.8-.407,4.032,1.624,5.029,1.78.876,3.434-.337,4.9-1.288,6.685-4.329,12.082-10.075,17.3-16,1.276-1.451,2.779-2.779,3.72-4.919C1110.4,588.995,1105.915,589.839,1101.362,589.593Z" transform="translate(-993.02 -328.758)"/><path class="b" d="M1004.752,547.379c5.039.365,8.387-2.522,11.3-6.046,2.322-2.806,4.284-5.885,6.323-8.907a5.222,5.222,0,0,0,.213-5.786c-3.752-7.608-5.412-15.687-6.033-24.108-.213-2.878-.58-5.75-.631-8.65-.012-.691-.125-1.667-.573-2-.727-.54-1.223.451-1.752.863-6.464,5.031-10.338,11.935-13.4,19.278a52.627,52.627,0,0,0-4.549,21.517c.113,5.377,2,9.606,6.3,12.779C1002.79,546.919,1003.584,547.643,1004.752,547.379Z" transform="translate(-992.76 -312.631)"/><path class="b" d="M1123.218,591.122c4.192-1.613,6.432-4.737,7.353-9.073a75.472,75.472,0,0,0,1.495-15.488c.006-1.668-.789-2.483-2.094-3.44-4.364-3.2-8.67-2.653-13.507-1.046-7.686,2.552-7.825,2.3-4.419,9.576,1.594,3.4,2.72,6.966,3.969,10.49,1.285,3.627,2.785,7.071,6.419,9.01Z" transform="translate(-981.452 -305.796)"/><path class="c" d="M1174.428,380.92c.942,8.7-3.543,15.943-6.4,23.607a69.807,69.807,0,0,0-3.152,9.449c-1.175,5.411,1.657,7.926,6.826,5.939,3.485-1.34,6.8-3.133,10.164-4.774a17.741,17.741,0,0,1,9.6-2.183c.164-2.115-1.645-1.83-2.758-2.043-2.881-.552-5.609.359-8.156,1.577-3.755,1.793-7.391,3.835-11.12,5.686-.7.347-1.295,1.665-2.375.568-.926-.941-.047-1.811.259-2.556,2.251-5.488,4.952-10.785,6.84-16.432,1.427-4.265,2.852-8.527,2.539-13.1C1176.555,384.559,1176.561,382.285,1174.428,380.92Z" transform="translate(-976.038 -323.596)"/><path class="c" d="M1212.152,547.758l1.407-1.13-.447-.446a1.675,1.675,0,0,0-1.195,1.3C1212,547.57,1212.075,547.663,1212.152,547.758Z" transform="translate(-971.358 -307.242)"/><path class="d" d="M1109.561,484.382c9.173-.018,14.466,7.36,14.682,14.6.259,8.638-8.224,14.653-14.358,14.557-6.923-.11-15.306-5.539-14.651-14.653C1094.86,490.868,1101.548,484.4,1109.561,484.382Zm8.262,14.074a10.106,10.106,0,1,0-9.951,10.193A9.851,9.851,0,0,0,1117.823,498.456Z" transform="translate(-982.908 -313.358)"/><path class="d" d="M1047.366,484.446a14.161,14.161,0,0,1,14.181,14.806c-.166,8.4-6.022,14.06-15.8,14.738-5.887.408-13.18-8.05-13.169-14.93A14.674,14.674,0,0,1,1047.366,484.446Zm7.893,13.863a10.007,10.007,0,0,0-10.387-9.837,10.151,10.151,0,0,0-9.841,10.4,10,10,0,0,0,10.426,9.773A9.827,9.827,0,0,0,1055.258,498.31Z" transform="translate(-989.105 -313.351)"/><path class="c" d="M1066.583,541.265a41.133,41.133,0,0,0,19.4-6.314,16.568,16.568,0,0,0,2.16-1.792,1.8,1.8,0,0,0,.285-2.749c-.775-.908-1.676-.621-2.519-.056-1.209.81-2.365,1.706-3.609,2.456a33.368,33.368,0,0,1-14.482,4.521,9.278,9.278,0,0,0-1.554.132c-1.211.325-3.068.04-2.839,2.078C1063.627,541.347,1065.192,541.3,1066.583,541.265Z" transform="translate(-986.055 -308.86)"/><path class="b" d="M1217.863,553.076a1.675,1.675,0,0,1,1.195-1.3c3.523-5.135,3.154-10.7,1.376-16.193-5.752-17.764-16.474-31.019-34.456-37.732-8.5-3.174-16.933-6.5-25.985-7.77-2.641-.37-5.794-1.315-7.525,1.309-1.635,2.481.235,4.977,1.668,7.176,3.953,6.068,8.965,11.224,14.187,16.172,7.491,7.1,14.893,14.311,21.281,22.41,3.171,4.019,6.815,7.533,10.157,11.353.342.391.738.734,1.11,1.1C1205.781,554.452,1211.138,557.109,1217.863,553.076Z" transform="translate(-977.304 -312.84)"/><path class="b" d="M1106.707,565.147c-4.82.455-9.307,1.3-13.86,1.053-2.8-.152-5.609-.3-8.41-.5-1.287-.091-2.223.186-2.582,1.6a95.947,95.947,0,0,0-2.689,15.023c-.159,1.8-.407,4.032,1.624,5.029,1.78.876,3.434-.337,4.9-1.288,6.685-4.329,12.082-10.075,17.3-16C1104.263,568.615,1105.767,567.287,1106.707,565.147Z" transform="translate(-984.505 -305.365)"/><path class="c" d="M1107.655,508.281a9.851,9.851,0,0,0,9.951-10.193,10.106,10.106,0,1,0-9.951,10.193Z" transform="translate(-982.691 -312.99)"/><path class="c" d="M1045.235,508.281a9.827,9.827,0,0,0,9.8-10.333,10.007,10.007,0,0,0-10.387-9.837,10.151,10.151,0,0,0-9.841,10.4A10,10,0,0,0,1045.235,508.281Z" transform="translate(-988.885 -312.989)"/></g><line class="a" y2="207.802" transform="translate(955.843 346.874)"/><line class="a" y2="207.802" transform="translate(1275.478 391.991)"/><line class="a" y2="59.987" transform="translate(1040.169 605.744)"/><line class="a" y2="59.987" transform="translate(987.569 563.562)"/><line class="a" y2="64.283" transform="translate(1212.986 614.43)"/><ellipse class="e" cx="111.179" cy="23.667" rx="111.179" ry="23.667" transform="translate(1012.335 715.424)"/></g></svg>