<svg xmlns="http://www.w3.org/2000/svg" width="723.695" height="359.779" viewBox="0 0 723.695 359.779"><defs><style>.a{fill:#c3f4f7;}.b{fill:#b25209;}.c{fill:#0fb4ff;}.d{fill:#1c1f29;}.e{fill:#f7a81d;}.f{fill:#fdfdfd;}.g{fill:#115489;}.h{fill:#fbb040;}.i{fill:#fbad18;opacity:0.29;}.j{fill:#dba08c;}.k,.l,.m,.s{fill:#9c8679;}.k,.l,.s{stroke:#362e29;}.k,.l,.p,.q,.r,.s{stroke-miterlimit:10;}.k{stroke-width:1.947px;}.l{stroke-width:1.879px;}.aa,.n{fill:#362e29;}.o{fill:#ee4036;stroke-linejoin:round;}.p{fill:#e7e7e8;}.p,.r{stroke:#282829;stroke-width:2.658px;}.q{fill:none;stroke:#030000;stroke-linecap:round;stroke-width:3.722px;}.r{fill:#58585a;}.s{stroke-width:1.994px;}.t{fill:#ee5928;}.u{fill:#382d2c;}.v{fill:#e4e5e6;}.w{fill:#3f3f40;}.x{fill:#fefefe;}.y{fill:#8f9193;}.aa,.z{stroke:none;}</style></defs><g transform="translate(-236.259 -287.538)"><g transform="translate(439.663 287.538)"><rect class="a" width="326.05" height="239.718" rx="13.065"/><rect class="b" width="47.308" height="21.422" transform="translate(63.627 48.12)"/><rect class="b" width="47.754" height="21.199" transform="translate(158.466 51.468)"/><rect class="b" width="47.977" height="21.199" transform="translate(228.535 74.452)"/><rect class="b" width="47.977" height="21.646" transform="translate(262.008 139.166)"/><rect class="b" width="48.87" height="20.976" transform="translate(168.731 180.226)"/><rect class="b" width="47.754" height="20.976" transform="translate(92.86 157.911)"/><rect class="b" width="47.531" height="20.976" transform="translate(7.935 168.399)"/><path class="c" d="M810.2,509.65v46.906a10.743,10.743,0,0,1-10.711,10.711H494.866a10.743,10.743,0,0,1-10.711-10.711V521.584c16.37-.2,110.469-.857,138.327,8.507,0,0,84.728,18.139,113.294,10.857a10.942,10.942,0,0,0,2.01-.748c5.027-2.4,29.046-13.516,49.866-17.383a38.523,38.523,0,0,0,20.292-10.989C808.7,511.056,809.465,510.319,810.2,509.65Z" transform="translate(-484.155 -327.55)"/><g transform="translate(13.893 131.864)"><path class="d" d="M521.087,470.656a12.551,12.551,0,0,0,2.277,2.132.7.7,0,0,0,1.046-.086,4.726,4.726,0,0,1,1.41-1.105,1.771,1.771,0,0,1,2.146.353,1.462,1.462,0,0,1,.079,1.918c-1.805,2.733-4.573,3.673-7.211,1.3-.448-.4-.6-.344-.868.139a6.226,6.226,0,0,1-1.013,1.324c-.323.324-.209.491.05.739,1.177,1.123,2.336,2.265,3.516,3.384a2.4,2.4,0,0,0,2.13.786,6.18,6.18,0,0,1,3.1.266,1.893,1.893,0,0,1,1.416,1.82,1.783,1.783,0,0,1-1.51,1.649,12.938,12.938,0,0,1-5.248.175,2.644,2.644,0,0,1-1.365-.9q-2.774-2.572-5.528-5.165a.545.545,0,0,0-.835-.069,21.279,21.279,0,0,1-5.181,2.612c-.327.11-.4.17-.23.533a2.927,2.927,0,0,1,.569,2.046,1.72,1.72,0,0,1-2.136,1.24,6.007,6.007,0,0,1-3-2.8,4.748,4.748,0,0,1-.821-2.171c-.123-1.347.656-2.03,2.055-1.653.941.253,1.541-.332,2.291-.617a15.911,15.911,0,0,1-3.311-.711,5.654,5.654,0,0,1-3.812-5.5,2.873,2.873,0,0,1,.5-1.572,1.162,1.162,0,0,1,1.892-.172,12.906,12.906,0,0,1,1.624,2.286,6.263,6.263,0,0,0,3.445,2.714c.137.041.218.106.339-.01.166-.156-.039-.228-.075-.321-.174-.425-.387-.833-.566-1.256a2.044,2.044,0,0,1,.664-2.571c.582-.484,1.2-.929,1.8-1.383a8.062,8.062,0,0,1,2.062-1.068c-.546-.4-1.057-.736-1.531-1.12a9.072,9.072,0,0,1-2.63-3.333.652.652,0,0,0-.685-.477,10.988,10.988,0,0,1-1.135-.079c-.169-.015-.33-.084-.3-.28s.211-.2.373-.183a4.458,4.458,0,0,0,1.409.078,8.476,8.476,0,0,1-.133-1.748c.014-1.062-.015-1.141-1.055-1.379a3.615,3.615,0,0,1-.805-.409,1.8,1.8,0,0,1,1.5.239c.4.161.527.1.628-.3a10.736,10.736,0,0,1,1.624-3.5,1.158,1.158,0,0,0,.211-.872c-.24-1.927-.456-3.857-.678-5.785-.03-.262-.12-.533.165-.73s.463.052.638.161c1.217.76,2.43,1.53,3.62,2.331a1.27,1.27,0,0,0,1.227.217,11.823,11.823,0,0,1,5.1-.44c.794.094,1.2-.535,1.617-.981.6-.65,1.308-1.175,1.913-1.814.3-.32.694-.128.818.367.273,1.081.543,2.164.782,3.253a1.234,1.234,0,0,0,.48.76c.508.4,1,.821,1.477,1.258a8.176,8.176,0,0,1,2.436,4.613.837.837,0,0,0,.541.74,4.588,4.588,0,0,1,1.972,1.452.577.577,0,0,0,.639.215,7.345,7.345,0,0,0,3.111-1.149c.17-.116.375-.367.553-.062.139.236-.143.344-.288.445a6.783,6.783,0,0,1-2.969,1.153c-.465.066-.6.215-.412.667a1.358,1.358,0,0,1,.1.721c-.134.741.221.982.89,1a11.57,11.57,0,0,0,1.736.056c.19-.022.459-.066.466.221s-.266.237-.457.25a9.123,9.123,0,0,1-2.333-.15c-.225-.042-.419-.116-.531.2-.966,2.681-3.13,4.017-5.63,4.945A22.186,22.186,0,0,1,521.087,470.656Zm-15.56,3.5.011.007c-.66-.969-1.323-1.937-1.979-2.909-.254-.377-.505-.775-1.04-.69s-.753.542-.862,1a4.393,4.393,0,0,0,1.318,4.358l-.006-.012a.165.165,0,0,0,.22.143c.115.375.458.526.745.705a8.938,8.938,0,0,0,5.383,1.15,2.555,2.555,0,0,0,.9-.383.263.263,0,0,0,.067-.445c-.544-.3-.794-.95-1.53-1.059a5.136,5.136,0,0,1-3.1-1.721C505.648,474.22,505.632,474.147,505.527,474.155Zm14.688-.445a3.549,3.549,0,0,0,.566-2.065c.061-.8-.182-.938-1.043-.958a7.8,7.8,0,0,1-1.574-.127c-1.263-.294-2.612-.189-3.792-.905a1.961,1.961,0,0,0-1.858-.09,12.033,12.033,0,0,0-3.588,2.511,1.456,1.456,0,0,0-.376,1.485,8.455,8.455,0,0,0,1.768,3.033,2.183,2.183,0,0,0,1.566.694,1.371,1.371,0,0,0,1.282-.712,1.165,1.165,0,0,0-.145-1.315c-.221-.335-.455-.66-.7-.976-.557-.719-.484-1.018.278-1.532a6.41,6.41,0,0,0,2.164-1.908c.106-.18.225-.225.37-.134a.267.267,0,0,1,.056.411c-.173.23-.357.454-.55.668a13.764,13.764,0,0,1-1.925,1.495c-.357.276-.362.316-.083.644.554.655,1.316,1.352,1.086,2.262a1.417,1.417,0,0,0,.69,1.68,10.143,10.143,0,0,1,.826.618q2.869,2.69,5.72,5.4a3.585,3.585,0,0,0,2.787,1.262c.688-.05,1.384.016,2.074-.013a5.369,5.369,0,0,0,2.135-.5,1.174,1.174,0,0,0,.188-2.1,2.531,2.531,0,0,0-.848-.382,8.008,8.008,0,0,0-3.255-.1,1.085,1.085,0,0,1-.913-.251,48.18,48.18,0,0,1-4.047-3.726A4.473,4.473,0,0,1,518,476.9,6.819,6.819,0,0,0,520.215,473.71Zm9.187-14.216a.467.467,0,0,0,.054-.385,7.885,7.885,0,0,0-3.17-5.3,2.786,2.786,0,0,1-1.392-1.967,24.358,24.358,0,0,0-.721-2.949c-1.008.934-1.935,1.787-2.854,2.647a.825.825,0,0,1-.757.314,11.243,11.243,0,0,0-5.668.515.65.65,0,0,1-.628-.037c-1.084-.737-2.166-1.477-3.262-2.2a1.538,1.538,0,0,0-.907-.429c.007.166,0,.319.023.471.2,1.773.407,3.547.624,5.318a1.624,1.624,0,0,1-.3,1.24,11.126,11.126,0,0,0-1.51,3.115c-.152.469-.142.811.435,1.035a4.262,4.262,0,0,1,1.662,1.07c.1.116.171.2.078.33-.076.107-.191.076-.3.057-.2-.034-.266-.227-.4-.317-.517-.339-1.175-1-1.6-.768-.462.253-.17,1.131-.119,1.741,0,.044.019.088.024.132a.443.443,0,0,0,.588.446,8.009,8.009,0,0,0,1.509-.271c.182-.068.387-.062.444.15.048.179-.138.253-.284.3a4.5,4.5,0,0,1-1.245.234c-.771.039-.81.12-.405.805a10.074,10.074,0,0,0,4.108,3.932,11.791,11.791,0,0,0,5.038,1.4c.289,0,.579-.012.867,0a18.986,18.986,0,0,0,8.514-1.388,7.94,7.94,0,0,0,4.506-3.977c.138-.3.394-.664-.192-.822a.219.219,0,0,1-.174-.251.245.245,0,0,1,.308-.184c.139.025.274.183.4-.035a1.621,1.621,0,0,0-.613-1.727c-.175-.058-.343-.18-.215-.311.368-.38-.043-.5-.2-.666A7.62,7.62,0,0,0,529.4,459.494Zm-24.068,19.992c-.836-.039-1.2.391-.984,1.342a7.278,7.278,0,0,0,3.01,4.318,1.443,1.443,0,0,0,1.75-.17,1.127,1.127,0,0,0,.148-1.555c-.114-.215-.216-.436-.334-.649-.524-.944-.494-1.01.507-1.336a20.31,20.31,0,0,0,4.83-2.41c.159-.1.413-.277.286-.413a9.868,9.868,0,0,0-1.295-1.143c-.272-.2-.471.154-.72.212a1.966,1.966,0,0,1-1.182.016,1.114,1.114,0,0,0-1.034.222C508.787,478.821,507.345,480.037,505.335,479.486Zm15.928-7.94a5.025,5.025,0,0,1-.548,2.335c-.167.324-.015.539.213.757,2.518,2.4,5.005,1.511,6.715-1.013a.942.942,0,0,0,0-1.282,1.186,1.186,0,0,0-1.491-.36,3.2,3.2,0,0,0-1.132.784c-.763.906-1.26.932-2.223.206A7.164,7.164,0,0,1,521.263,471.546Z" transform="translate(-501.101 -448.376)"/><path class="e" d="M520.087,470.246a11.792,11.792,0,0,1-5.036-1.4,10.073,10.073,0,0,1-4.107-3.932c-.405-.685-.366-.766.4-.805a4.5,4.5,0,0,0,1.245-.234c.146-.05.332-.125.284-.3-.057-.212-.262-.218-.444-.15a8.008,8.008,0,0,1-1.509.271.443.443,0,0,1-.588-.446c0-.044-.021-.088-.024-.132-.051-.609-.343-1.487.119-1.741.43-.235,1.087.43,1.6.768.138.09.206.283.4.317.113.019.228.049.3-.057.094-.132.027-.214-.078-.33A4.261,4.261,0,0,0,511,461c-.577-.224-.587-.566-.435-1.035a11.127,11.127,0,0,1,1.51-3.115,1.625,1.625,0,0,0,.3-1.24c-.217-1.772-.419-3.545-.624-5.318-.018-.152-.016-.3-.023-.471a1.538,1.538,0,0,1,.907.429c1.1.72,2.178,1.46,3.262,2.2a.651.651,0,0,0,.628.037,11.243,11.243,0,0,1,5.668-.515.826.826,0,0,0,.757-.314c.919-.86,1.845-1.714,2.854-2.647a24.358,24.358,0,0,1,.721,2.949,2.787,2.787,0,0,0,1.392,1.967,7.885,7.885,0,0,1,3.17,5.3.467.467,0,0,1-.054.385l-.667-.048a9.981,9.981,0,0,0-.128-1.439,4.769,4.769,0,0,0-2.91-3.924,1.9,1.9,0,0,0-2.873,1.925,5.319,5.319,0,0,0,2.927,4.618c-.2.175-.534.169-.622.483.093-.421-.125-.62-.5-.709a6.177,6.177,0,0,0-2.648-.021.69.69,0,0,0-.636.853l-2-.492c0-.375,0-.751.007-1.126a4.693,4.693,0,0,0-2.709-4.363,2.1,2.1,0,0,0-3.276,1.7,5.108,5.108,0,0,0,1.4,3.959c-.246.221-.5.43-.735.665a4.485,4.485,0,0,0-.665,5.215,6.684,6.684,0,0,0,3.028,2.56A16.2,16.2,0,0,1,520.087,470.246Z" transform="translate(-502.735 -448.49)"/><path class="f" d="M531.309,461.878l.667.048a7.621,7.621,0,0,1,2.25,1.283c.158.166.569.286.2.666-.128.131.04.253.215.311a1.62,1.62,0,0,1,.613,1.727c-.124.218-.259.06-.4.035a.245.245,0,0,0-.308.184.219.219,0,0,0,.174.251c.586.157.33.52.192.822a7.94,7.94,0,0,1-4.506,3.977,18.986,18.986,0,0,1-8.514,1.388c-.288-.017-.578,0-.867,0a16.253,16.253,0,0,0-2.059-.778,6.684,6.684,0,0,1-3.028-2.56,4.485,4.485,0,0,1,.665-5.215c.231-.235.489-.444.735-.665a11.006,11.006,0,0,0,1.061.783,2.375,2.375,0,0,0,3.515-.957l2,.491a2.527,2.527,0,0,0,.316.421,2.67,2.67,0,0,0,2.35.967c.718-.164.967-.84,1.122-1.51.089-.314.425-.308.622-.483C529.986,463.552,530.6,463.309,531.309,461.878Zm-11.156,4.877a3.776,3.776,0,0,0,1.884,3.59,5.441,5.441,0,0,0,3.64.476,5.386,5.386,0,0,0,4.16-3.393c.3-.686.051-.961-.7-.86-.352.048-.707.087-1.062.1a19.89,19.89,0,0,1-7.048-.944c-.658-.212-.85-.061-.875.627C520.149,466.488,520.153,466.622,520.153,466.755Z" transform="translate(-503.674 -450.808)"/><path class="e" d="M519.625,481.517a4.47,4.47,0,0,0,1.072,1.172,48.2,48.2,0,0,0,4.047,3.726,1.085,1.085,0,0,0,.913.251,8.009,8.009,0,0,1,3.255.1,2.531,2.531,0,0,1,.848.382,1.174,1.174,0,0,1-.188,2.1,5.37,5.37,0,0,1-2.135.5c-.69.029-1.386-.037-2.074.013a3.585,3.585,0,0,1-2.787-1.262q-2.857-2.7-5.72-5.4a10.129,10.129,0,0,0-.826-.618,1.417,1.417,0,0,1-.69-1.68c.23-.91-.532-1.607-1.086-2.262-.279-.328-.274-.368.083-.644a13.758,13.758,0,0,0,1.925-1.495c.193-.214.377-.438.55-.668a.267.267,0,0,0-.056-.411c-.145-.092-.264-.047-.37.134a6.409,6.409,0,0,1-2.164,1.908c-.762.515-.835.813-.278,1.532.245.316.48.642.7.976a1.165,1.165,0,0,1,.145,1.315,1.371,1.371,0,0,1-1.282.712,2.183,2.183,0,0,1-1.566-.694,8.455,8.455,0,0,1-1.768-3.033,1.456,1.456,0,0,1,.375-1.485,12.034,12.034,0,0,1,3.588-2.511,1.962,1.962,0,0,1,1.858.09c1.18.717,2.528.611,3.792.905a7.8,7.8,0,0,0,1.574.127c.861.02,1.1.154,1.043.958a3.551,3.551,0,0,1-.565,2.064c-.211-.079-.267-.276-.367-.448-.576-.988-2.079-1.5-2.828-.921a3.918,3.918,0,0,0-1.192,1.549,1.147,1.147,0,0,0,.2,1.3A8.061,8.061,0,0,0,519.625,481.517Z" transform="translate(-502.722 -452.989)"/><path class="e" d="M506.035,485.865c2.01.551,3.452-.666,4.982-1.566a1.114,1.114,0,0,1,1.034-.222,1.966,1.966,0,0,0,1.182-.016c.249-.058.448-.417.72-.212a9.871,9.871,0,0,1,1.295,1.143c.127.136-.127.308-.286.413a20.31,20.31,0,0,1-4.83,2.41c-1,.326-1.031.392-.507,1.336.118.213.22.435.334.649a1.127,1.127,0,0,1-.148,1.555,1.442,1.442,0,0,1-1.75.17,7.278,7.278,0,0,1-3.01-4.318C504.834,486.256,505.2,485.826,506.035,485.865Z" transform="translate(-501.801 -454.754)"/><path class="e" d="M525.557,476.637a7.169,7.169,0,0,0,1.53,1.426c.962.726,1.459.7,2.223-.206a3.2,3.2,0,0,1,1.132-.784,1.186,1.186,0,0,1,1.491.36.942.942,0,0,1,0,1.282c-1.709,2.524-4.2,3.416-6.715,1.013-.228-.218-.38-.433-.213-.757A5.023,5.023,0,0,0,525.557,476.637Z" transform="translate(-505.395 -453.467)"/><path class="e" d="M506.071,479.962a5.136,5.136,0,0,0,3.1,1.721c.736.109.985.76,1.53,1.059a.263.263,0,0,1-.067.445,2.555,2.555,0,0,1-.9.383,8.938,8.938,0,0,1-5.383-1.15c-.288-.179-.63-.33-.745-.705l-.22-.143.006.012c.143-1.167.625-1.662,1.7-1.732.286-.019.575-.018.862-.027l-.011-.007Z" transform="translate(-501.512 -454.04)"/><path class="f" d="M521.214,482.115a8.061,8.061,0,0,1-1.975-1.718,1.147,1.147,0,0,1-.2-1.3,3.918,3.918,0,0,1,1.192-1.549c.749-.58,2.252-.067,2.828.921.1.172.157.369.367.448A6.825,6.825,0,0,1,521.214,482.115Z" transform="translate(-504.311 -453.588)"/><path class="f" d="M505.631,479.034c-.287.009-.576.008-.862.027-1.076.07-1.559.564-1.7,1.732a4.392,4.392,0,0,1-1.318-4.358c.109-.457.314-.913.862-1s.786.312,1.04.69C504.308,477.1,504.971,478.065,505.631,479.034Z" transform="translate(-501.193 -453.248)"/><path class="f" d="M506.633,479.962l-.133-.143C506.6,479.811,506.621,479.884,506.633,479.962Z" transform="translate(-502.073 -454.04)"/><path class="f" d="M503.381,481.957l.22.143A.165.165,0,0,1,503.381,481.957Z" transform="translate(-501.512 -454.425)"/><path class="d" d="M522.028,462.175a2.375,2.375,0,0,1-3.515.957,11,11,0,0,1-1.061-.783,5.108,5.108,0,0,1-1.4-3.959,2.1,2.1,0,0,1,3.276-1.7,4.693,4.693,0,0,1,2.709,4.363C522.028,461.424,522.031,461.8,522.028,462.175Zm-5.564-3.407a4.559,4.559,0,0,0,2.82,4.172c1.577.441,2.468-.336,2.4-1.89a4.577,4.577,0,0,0-2.4-3.854C517.827,456.33,516.54,457.066,516.464,458.768Z" transform="translate(-503.787 -449.81)"/><path class="d" d="M533.508,460.645c-.708,1.431-1.323,1.674-2.984,1.181a5.32,5.32,0,0,1-2.927-4.618,1.9,1.9,0,0,1,2.873-1.925,4.769,4.769,0,0,1,2.911,3.924A9.99,9.99,0,0,1,533.508,460.645Zm-.425-.756a5.01,5.01,0,0,0-2.79-4.19c-1.35-.517-2.278.04-2.227,1.541a4.613,4.613,0,0,0,2.665,4.118A1.5,1.5,0,0,0,533.083,459.889Z" transform="translate(-505.874 -449.575)"/><path class="d" d="M529.573,463.717c-.154.67-.4,1.346-1.122,1.51a2.669,2.669,0,0,1-2.35-.967,2.527,2.527,0,0,1-.316-.421.69.69,0,0,1,.636-.853,6.178,6.178,0,0,1,2.648.021C529.448,463.1,529.665,463.3,529.573,463.717Z" transform="translate(-505.545 -450.984)"/><path class="d" d="M521.2,467.582c0-.134,0-.267,0-.4.025-.688.216-.839.875-.627a19.89,19.89,0,0,0,7.048.944c.355-.016.71-.056,1.062-.1.749-.1.995.174.7.86a5.386,5.386,0,0,1-4.16,3.393,5.442,5.442,0,0,1-3.64-.476A3.776,3.776,0,0,1,521.2,467.582Zm9.264.264c-.345.03-.63.06-.916.078a20.632,20.632,0,0,1-7.406-.848c-.2-.061-.5-.3-.5.189-.016,1.91.616,3.332,2.587,3.858a5.532,5.532,0,0,0,2.058.129A4.858,4.858,0,0,0,530.463,467.846Z" transform="translate(-504.721 -451.634)"/><path class="f" d="M516.562,458.876c.076-1.7,1.363-2.438,2.823-1.572a4.577,4.577,0,0,1,2.4,3.854c.064,1.554-.827,2.331-2.4,1.89A4.558,4.558,0,0,1,516.562,458.876Zm3.045,2.046c.071.4.25.728.716.72a.749.749,0,0,0-.032-1.492C519.823,460.154,519.654,460.488,519.607,460.922Z" transform="translate(-503.885 -449.918)"/><path class="f" d="M533.186,459.994a1.5,1.5,0,0,1-2.351,1.469,4.613,4.613,0,0,1-2.665-4.118c-.051-1.5.876-2.059,2.227-1.541A5.01,5.01,0,0,1,533.186,459.994Zm-.763-.426c-.027-.4-.164-.74-.652-.749a.75.75,0,0,0-.048,1.493C532.2,460.337,532.39,460.028,532.424,459.568Z" transform="translate(-505.977 -449.68)"/><path class="f" d="M530.561,467.955a4.858,4.858,0,0,1-4.176,3.406,5.531,5.531,0,0,1-2.058-.129c-1.972-.526-2.6-1.948-2.587-3.858,0-.492.3-.249.5-.189a20.63,20.63,0,0,0,7.406.848C529.931,468.015,530.216,467.984,530.561,467.955Z" transform="translate(-504.819 -451.743)"/><path class="d" d="M520.277,461.627c.047-.434.216-.768.684-.772a.749.749,0,0,1,.032,1.492C520.527,462.355,520.348,462.025,520.277,461.627Z" transform="translate(-504.555 -450.624)"/><path class="d" d="M533.06,460.272c-.034.461-.225.769-.7.744a.75.75,0,0,1,.048-1.493C532.9,459.531,533.033,459.874,533.06,460.272Z" transform="translate(-506.613 -450.384)"/></g><rect class="g" width="47.308" height="42.101" rx="4.5" transform="translate(5.728 5.355)"/><path class="h" d="M533.1,315.373l-16.8-16.766-16.8,16.766h5.752v16.115h22.087V315.373Z" transform="translate(-486.92 -289.532)"/><rect class="g" width="6.513" height="13.625" transform="translate(26.125 31.464)"/></g><path class="i" d="M592.966,712.609c-8.7-1.085-17.078-2.815-25.786-4.052-10.871-1.543-21.871-2.691-32.919-3.554-44.345-3.462-89.12-2.338-133.63-4.143-32.162-1.3-64.393-4.226-94.819-11.323-3.234-.754-6.584-1.618-8.813-3.307-4.664-3.532-2.227-9.338,3.253-12.344s12.947-3.911,20.065-4.585c100.7-9.529,203.447,5.6,304.867.142,41.863-2.255,83.139-8,125.021-10.1,51.3-2.573,102.857.357,153.985,4.071,9.844.715,21.721,2.5,24.547,8.623,2.01,4.354-2.042,9.129-7.876,11.676s-13.055,3.329-20.055,3.847c-56.072,4.148-114.544-4.558-168.4,6.338-23.191,4.692-44.525,12.873-68.1,16.674a271.647,271.647,0,0,1-65.782,2.631C596.654,713.039,594.8,712.838,592.966,712.609Z" transform="translate(-10.334 -66.801)"/><ellipse class="j" cx="31.962" cy="8.276" rx="31.962" ry="8.276" transform="translate(298.178 604.936)"/><ellipse class="j" cx="31.962" cy="8.276" rx="31.962" ry="8.276" transform="translate(841.265 443.424)"/><g transform="translate(237.168 454.643)"><path class="k" d="M322.035,663.61a54.051,54.051,0,0,0-.6,9.586c.257,4.107.275,6.675.275,6.675s-1.559.856-1.559,1.883h15.234s1.059-4.451-2.123-5.307,0-8.558,0-8.558Z" transform="translate(-252.117 -522.389)"/><path class="l" d="M350.034,663.61a24.3,24.3,0,0,1,4.151,9.072,20.652,20.652,0,0,1,.058,7.189s1.453.856,1.453,1.883H341.5s-1.923-4.793,1.043-5.649-.514-8.387-.514-8.387Z" transform="translate(-255.853 -522.389)"/><path class="k" d="M319.651,642.625a14.762,14.762,0,0,0-1.712,10.612c1.749,7.072,6.632,10.066,8.559,10.785,1.4.52,12.834,3.426,18.486-1.883,3.338-3.137,3.65-7.584,3.766-9.243.284-4.059-.945-8.617-3.6-11.468C340.149,636.042,329.054,635.657,319.651,642.625Z" transform="translate(-251.651 -517.665)"/><path class="m" d="M255.735,556.208c.266-21.475,13.768-36.986,17.117-40.624,3.986-4.331,13.636-14.533,29.441-18.03a50.889,50.889,0,0,1,13.237-1.14l.457,14.834a29.175,29.175,0,0,1,9.585-13.237c9.773-7.486,20.972-5.825,23.051-5.478q-3.651,9.928-7.3,19.855a20.861,20.861,0,0,1,6.39-7.531,21.459,21.459,0,0,1,13.693-3.88L359.578,514.9a112.93,112.93,0,0,1,11.867,14.378c3.17,4.562,6.838,9.839,9.357,16.2,1.057,2.669,8.24,21.669-.685,40.852-4.536,9.75-11.365,15.531-16.2,19.627a58.2,58.2,0,0,1-17.8,10.955c-9.606,3.6-17.529,3.322-27.615,2.967-10.229-.36-18.585-.654-28.757-4.793-6.056-2.465-16.785-6.829-23.735-17.573-3.386-5.234-4.554-9.941-6.847-19.171C257.376,571.167,255.637,564.163,255.735,556.208Z" transform="translate(-240.512 -491.499)"/><g transform="translate(14.499)"><path class="n" d="M326.563,620.539c-2.634,0-5.351-.1-8.242-.2-11.275-.4-22.548-1.432-32.917-6.228a50.767,50.767,0,0,1-18.548-14.648c-4.912-6.26-6.55-13.512-8.437-21.115-1.747-7.039-4.223-15.015-3.232-22.336-.308-.089-.351-.5-.33-.821,1.535-24.076,17.2-46.686,39.853-55.448q1.048-.406,2.11-.771a80.584,80.584,0,0,1,17-3.378,19.4,19.4,0,0,1,2.358.034s.024,3.913-.069,5.47c-.061,1.013-.458,3.878.418,4.668,1.3,1.176,6.165-6.752,7.5-7.866,6.615-5.523,16-7.528,24.535-6.1l.711.118s-5.037,11.82-5.155,13.95a40.271,40.271,0,0,1,7.787-4.172,22.048,22.048,0,0,1,9.375-1.459l.642.038-1.872,14.272c4.279,4.412,8.923,8.526,12.427,13.569a85.674,85.674,0,0,1,8.723,17,54.085,54.085,0,0,1,.358,38.2c-3.6,10.074-11.764,19.089-20.237,25.419A57.034,57.034,0,0,1,326.563,620.539ZM313.1,496.823A50.112,50.112,0,0,0,302.265,498c-15.944,3.528-25.524,13.933-29.13,17.851-5.016,5.45-16.71,20.279-16.958,40.226-.1,7.876,1.6,14.727,3.4,21.981,2.078,8.367,4,16.15,9.8,22.775,12.489,14.261,30.938,17.677,48.976,18.312,10,.352,17.894.63,27.387-2.929,11.108-4.164,21.5-12.689,28.576-22.138,10.325-13.784,12.065-32.606,5.767-48.515-2.495-6.3-6.106-11.5-9.292-16.082a112.631,112.631,0,0,0-11.8-14.3l-.2-.207,1.778-13.563a20.676,20.676,0,0,0-12.665,3.8,20.3,20.3,0,0,0-6.206,7.315l-1.1-.476,7.05-19.166c-3.712-.506-13.405-1.015-21.871,5.47a24.311,24.311,0,0,0-5.852,6.893c-.646,1.07-4.455,8.893-4.455,8.893s-.364-6.994-.4-8.035q-.143-4.624-.285-9.248Q313.944,496.824,313.1,496.823Z" transform="translate(-254.853 -491.359)"/></g><path class="k" d="M262.893,605.174c-6.608-2.469-14.671-6.772-20.527-14.229-.573-.7-1.113-1.44-1.619-2.192-1.946-2.928-4.58-6.951-3.189-10.729,1.455-3.958,6.477-5.332,8.668-5.937,6.853-1.881,12.888.638,15.293,1.832.066,1.374.115,2.747.18,4.121Q262.287,591.606,262.893,605.174Z" transform="translate(-237.168 -505.78)"/><path class="k" d="M424.9,573.535a67.708,67.708,0,0,1-5.708,7,54.7,54.7,0,0,1-16.667,12.545,80.08,80.08,0,0,0-1.145-22.817c-.49-2.519-1.079-4.874-1.7-7.065a81.816,81.816,0,0,0-3.091-8.686c8.326-5.561,18.139-6.2,24.649-1.6.964.687,5.823,4.269,6.624,10.272C428.363,566.993,427.038,570.33,424.9,573.535Z" transform="translate(-265.885 -501.897)"/><g class="o" transform="translate(-238.31 -507.236)"><path class="z" d="M 262.9361267089844 605.0978393554688 C 259.7192993164063 603.7985229492188 256.7358703613281 602.262451171875 254.0499877929688 600.521484375 C 250.4098052978516 598.1619262695313 247.2898712158203 595.4061889648438 244.7664947509766 592.3229370117188 C 246.1759643554688 590.0975952148438 247.8898010253906 588.1177368164063 249.8684997558594 586.4302368164063 C 253.2510528564453 583.5430297851563 257.2810668945313 581.624267578125 261.8621215820313 580.7173461914063 C 262.0470275878906 584.9691772460938 262.2375183105469 589.2691650390625 262.4222717285156 593.439453125 C 262.5916137695313 597.261474609375 262.7660217285156 601.1983032226563 262.9361267089844 605.0978393554688 Z"/><path class="aa" d="M 261.8349914550781 603.5165405273438 C 261.6876525878906 600.1524047851563 261.5380859375 596.7763061523438 261.3922729492188 593.485107421875 C 261.2252197265625 589.7149658203125 261.0534973144531 585.8388671875 260.8854675292969 581.9879760742188 C 256.9639892578125 582.9406127929688 253.4916687011719 584.6931762695313 250.5375366210938 587.2147216796875 C 248.8254852294922 588.6748046875 247.3195953369141 590.3634033203125 246.0476531982422 592.2474975585938 C 248.4150390625 595.0156860351563 251.289794921875 597.5036010742188 254.6107788085938 599.6563110351563 C 256.8233947753906 601.0905151367188 259.2440185546875 602.3834838867188 261.8349914550781 603.5165405273438 M 264.0348510742188 606.6309204101563 C 257.4267578125 604.1614379882813 249.3634338378906 599.8588256835938 243.5079956054688 592.4013671875 C 244.8164978027344 590.2090454101563 246.6480712890625 587.8216552734375 249.199462890625 585.645751953125 C 253.7792053222656 581.7366943359375 258.8172302246094 580.1337890625 262.8410949707031 579.4959716796875 C 263.2330017089844 588.5407104492188 263.6421203613281 597.5861206054688 264.0348510742188 606.6309204101563 Z"/></g><g class="o" transform="translate(-266.564 -504.829)"><path class="z" d="M 404.3768005371094 594.24853515625 C 404.8742980957031 587.1035766601563 404.4345092773438 579.9638671875 403.06591796875 572.996826171875 C 402.6951904296875 571.0924682617188 402.2507019042969 569.1799926757813 401.7147827148438 567.1865234375 C 405.898681640625 567.3434448242188 409.9453125 568.2249755859375 413.7617492675781 569.8128662109375 C 417.6263122558594 571.41259765625 421.1434020996094 573.6941528320313 424.2289733886719 576.6011352539063 C 422.7920837402344 578.6221313476563 421.0434875488281 580.5899658203125 419.2033996582031 582.6608276367188 L 419.0957336425781 582.781982421875 C 414.9853210449219 587.3734741210938 410.03955078125 591.2255859375 404.3768005371094 594.24853515625 Z"/><path class="aa" d="M 403.0697937011719 568.2970581054688 C 403.4554138183594 569.8246459960938 403.7887268066406 571.3140869140625 404.0775756835938 572.798095703125 C 405.3434143066406 579.241943359375 405.8247375488281 585.8317260742188 405.5150146484375 592.4375 C 410.3951721191406 589.6211547851563 414.6939392089844 586.152587890625 418.3273315429688 582.094482421875 L 418.4326782226563 581.9759521484375 C 420.0277404785156 580.180908203125 421.5534057617188 578.4638671875 422.8520812988281 576.73681640625 C 420.0220336914063 574.2073364257813 416.8389282226563 572.2025146484375 413.3656616210938 570.7648315429688 C 410.0885620117188 569.4013061523438 406.6358947753906 568.5746459960938 403.0697937011719 568.2970581054688 M 400.35302734375 566.1300048828125 C 404.279296875 566.1300048828125 409.0877685546875 566.75146484375 414.1578063964844 568.8609619140625 C 419.0974731445313 570.9057006835938 422.8270263671875 573.75146484375 425.5743713378906 576.4667358398438 C 423.9879455566406 578.838623046875 421.9440307617188 581.1285400390625 419.8664855957031 583.466796875 C 416.7912292480469 586.9019775390625 411.4752197265625 591.9236450195313 403.1995849609375 596.0122680664063 C 403.7390441894531 590.1732177734375 403.8373718261719 582.2730102539063 402.05419921875 573.195556640625 C 401.5639343261719 570.677001953125 400.9753112792969 568.321533203125 400.35302734375 566.1300048828125 Z"/></g><path class="p" d="M323.1,571.748a107.188,107.188,0,0,0-21.224,8.9c-9.783,5.4-14.675,8.106-16.6,13.523C282.125,603,288.4,613.806,295.2,619.5c7.644,6.4,16.236,6.589,28.243,6.847,15.7.337,29.6.635,39.026-9.585A31.41,31.41,0,0,0,370.34,591.6a32.141,32.141,0,0,0-10.27-19.171,38.037,38.037,0,0,1-11.468,9.756,38.743,38.743,0,0,1-21.225,4.622,19.007,19.007,0,0,0,7.874-13.01,52.3,52.3,0,0,1-15.405,9.586Z" transform="translate(-245.683 -505.841)"/><path class="q" d="M304.555,597.834a16.469,16.469,0,0,1,6.933-2.31,12.524,12.524,0,0,1,7.275,1.113,10.362,10.362,0,0,1,1.369.856" transform="translate(-249.307 -510.103)"/><path class="q" d="M355.666,597.834a16.469,16.469,0,0,1,6.933-2.31,12.525,12.525,0,0,1,7.275,1.113,10.443,10.443,0,0,1,1.37.856" transform="translate(-258.514 -510.103)"/><path class="r" d="M319.274,610.275c0-1.423,2.621-2.187,3.663-2.491a24.813,24.813,0,0,1,5.394-.767q5.928-.376,11.87-.457c2.722-.037,5.443-.024,8.165-.054,1.477-.016,1.567.622,1.524,1.914a22.537,22.537,0,0,1-.457,3.83,21.428,21.428,0,0,1-4.518,9.539,10.088,10.088,0,0,1-7.24,3.719C326.721,625.937,319.285,615.175,319.274,610.275Z" transform="translate(-251.959 -512.102)"/><path class="s" d="M315.069,645.467s-3.507,1.476-3.507.107,9.586-10.441,10.1-12.5-9.585-7.189-11.468-5.648-8.559,13.865-6.847,19.171,8.015,5.033,11.609,2.465Z" transform="translate(-249.039 -515.82)"/><path class="k" d="M353.611,644.738s2.938,1.369,2.938,0-9.14-10.441-9.629-12.5,9.139-7.189,10.935-5.648,8.16,13.865,6.528,19.171-6.879,5.054-10.307,2.486Z" transform="translate(-256.935 -515.67)"/><path class="n" d="M270.426,608.3c-1.6-2.767-.835-6.094-1.055-9.219-.226-3.217-.457-6.433-.671-9.651-.457-6.879-2.073-13.94-.841-20.758.24-1.331-.456-1.764-.7-.426-1.315,7.284-1.021,14.641-.521,21.99.24,3.529.444,7.065.744,10.589a19.421,19.421,0,0,0,2.215,8.341C270.282,610.347,271.111,609.482,270.426,608.3Z" transform="translate(-242.401 -505.064)"/><path class="n" d="M394.811,551.779c-.483-.976-.972-.416-.49.557,6.87,13.87,8.412,29.94,6.152,45.256-.157,1.065.918.772,1.076-.3C403.88,581.488,401.9,566.1,394.811,551.779Z" transform="translate(-265.442 -502.152)"/></g><g transform="translate(811.668 432.635)"><path class="t" d="M1026.411,481.319l-1.322-1.735c-1.431.132-1.864-1.044-2.515-1.927-2.383-3.228-3.756-6.959-5.123-10.677-.342.112-.589.118-.706.243-.7.749-1.365,1.524-2.041,2.293-6.786,7.719-13.931,14.947-23.177,19.881-7.781,4.153-14.826,9.475-21.794,14.891-9.546,7.42-16.382,16.554-18.64,28.636-.712,3.81-1.812,7.662-.783,12.557,2.566-4.927,4.946-8.983,6.847-13.251,4.431-9.941,12.22-15.513,22.452-18.374,7.3-2.041,14.637-1.259,21.983-.855a51.934,51.934,0,0,1,26.879,9.456,27.041,27.041,0,0,1,9.045,9.456c.881,1.686,1.638,1.811,2.957.917.3.863-.13,1.227-.374,1.656-6.594,11.572-9.036,23.835-5.912,36.935,2.172,9.1,11.714,15.732,20.867,14.479-1.993-3.3-3.921-6.616-4.365-10.388-1.809-15.379,1.668-29.594,10.651-42.15,4.076-5.7,9.176-10.749,17.429-9.031.082.017.225-.261.406-.483-2.72-3.415-6.443-5.289-10.471-6.546-5.546-1.729-9.989.992-14.449,3.875a12.449,12.449,0,0,1,7.877-5.418c2.57-.471,2.612-1.633,1.495-3.31-5.365-8.046-11.182-15.686-19.522-20.979a103.836,103.836,0,0,0-14.755-7.51C1028.153,483.448,1026.421,483.263,1026.411,481.319Z" transform="translate(-940.058 -464.96)"/><path class="u" d="M1032.094,484.207a61.406,61.406,0,0,1,31.327,29.4,2.943,2.943,0,0,0,2.269,1.723c11.878,2.4,20.36,14.175,20.491,26.955a54.408,54.408,0,0,1-8.737,29.635c-7.7,12.324-19.452,20.41-36.475,12.155a2.323,2.323,0,0,0-2.565.125c-5.28,3.844-11.49,5.746-17.43,8.345.468,1.9,1.786,3.274,2.914,4.655,6.528,8,7.769,21.989-.536,32.679a2.564,2.564,0,0,0-.368,2.264c.43,3.034.817,6.076,1.143,9.123.12,1.132.172,2.341-1.594,2.288q-11.052-.336-22.107-.617c-1.036-.027-1.828-.292-1.87-1.513a2.189,2.189,0,0,1,1.551-2.37,5.943,5.943,0,0,1,2.432-.175c1.966.251,2.3-.674,1.9-2.319-.985-4.076-.909-8.633-5.222-11.171a2.38,2.38,0,0,1-.931-1.2c-.691-1.989-1.76-2.293-3.486-1.081-3.99,2.8-7.557-1.309-7.093-4.871a17.324,17.324,0,0,1,3.334-8.455,7.486,7.486,0,0,0,1.677-3.227c.593-3.427,1.14-6.864,1.808-10.277.28-1.428-.058-1.937-1.58-2.12a125.8,125.8,0,0,1-19.441-4.314c-10.641-3.033-19.487-8.384-24.918-18.433a5.3,5.3,0,0,0-1.686-1.722,17.427,17.427,0,0,1-6.909-9.49c-4.02-12.783-2.317-24.827,5.731-35.5a132.677,132.677,0,0,1,36-32.565c8.3-5.195,17.242-9.506,23.679-17.3,2.67-3.233,5.691-6.172,8.494-9.3,1.255-1.4,2.233-1.47,2.768.453,1.323,4.758,3.771,8.961,6.269,13.148-1.431.132-1.864-1.044-2.515-1.927-2.383-3.228-3.756-6.959-5.123-10.677-.342.112-.589.118-.706.243-.7.749-1.365,1.524-2.041,2.293-6.786,7.719-13.931,14.947-23.177,19.881-7.781,4.153-14.826,9.475-21.794,14.891-9.546,7.421-16.382,16.554-18.64,28.636-.712,3.81-1.812,7.662-.783,12.557,2.566-4.927,4.946-8.983,6.847-13.251,4.431-9.941,12.22-15.513,22.452-18.374,7.3-2.041,14.637-1.259,21.983-.855a51.933,51.933,0,0,1,26.879,9.456,27.041,27.041,0,0,1,9.046,9.456c.881,1.686,1.638,1.811,2.957.917,1.15.052-.13,1.227-.374,1.656-6.594,11.572-9.036,23.835-5.912,36.935,2.172,9.1,11.714,15.732,20.867,14.479-1.993-3.3-3.921-6.616-4.365-10.388-1.808-15.379,1.668-29.594,10.651-42.15,4.076-5.7,9.176-10.749,17.429-9.031.082.017.225-.261.406-.483-2.72-3.416-6.443-5.289-10.471-6.546-5.546-1.729-9.989.992-14.449,3.875a12.449,12.449,0,0,1,7.876-5.418c2.57-.471,2.612-1.633,1.495-3.31-5.365-8.046-11.182-15.686-19.522-20.979a103.82,103.82,0,0,0-14.755-7.51c-1.2-.515-2.929-.7-2.939-2.644Q1028.172,482.54,1032.094,484.207Zm-88.138,49.265c-.988,7.109-1.263,14.248.226,21.347a25.355,25.355,0,0,0,.846,2.483c.857-4.862,1.9-8.995,1.482-13.522-.6-6.472,1.031-12.775,3.232-18.883.518-1.436.972-2.895,1.455-4.344.261-.161.479-.339.127-.607-.022-.017-.239.221-.365.34C946.727,523.672,944.677,528.282,943.956,533.471Zm85.956,19.736a46.313,46.313,0,0,1,5.142-16.925c.717-1.334.331-2.266-.266-3.378a28.633,28.633,0,0,0-9.17-9.742c-12.382-8.723-26.44-10.611-41.005-9.525-9.437.7-18.257,3.931-24,11.9-5.791,8.032-10.579,16.839-13.148,26.468-3.359,12.593,4.126,26.874,16.831,32.916,8.936,4.249,18.521,6.42,28.252,7.859A25.332,25.332,0,0,1,1003.593,597c1.031.719,1.688,1.05,2.624-.343,1.375-2.046,3.672-2.837,6.026-3.315,9.228-1.875,17.622-5.83,26.1-10.355C1028.657,574.808,1028.71,564.1,1029.912,553.208Zm23.273,29.708c1.437,2.2,3.065,3,5.894,2.242,9.272-2.5,14.862-8.995,18.938-17.047a63.062,63.062,0,0,0,6.592-20.895c.762-6.343.216-12.778-4.141-17.956-4.616-5.484-9.352-5.613-14.866-.963-6.487,5.47-10.124,12.76-12.8,20.546a59.505,59.505,0,0,0-3.4,18.726C1049.4,571.627,1049.709,577.6,1053.184,582.916ZM1021.5,642.2c1.967.067,1.376-1.521,1.248-2.435-.556-3.947-1.279-7.871-1.927-11.805-.107-.656-.679-1.345.1-1.994,1.636.085.8,1.805,1.712,2.544a7.3,7.3,0,0,0,2.7-4.21c-5.614-.881-7.183-2.1-7.307-7.867-.1-4.544-.612-9.262-3.111-13.178-.317-.5-.677-1.092-.45-1.638.024-.058.065-.12.127-.125a.189.189,0,0,1,.122.052,4.542,4.542,0,0,1,1.123,1.2,18.642,18.642,0,0,1,1.1,2.034c.391.917,1.143.926,2.029.516.725-.334.378,1.188.354,1.808-.138,3.58-.439,7.157.217,10.724a8.2,8.2,0,0,0,1.222,3.438,3.243,3.243,0,0,0,5.846-.73,20.927,20.927,0,0,0,.863-11.781A32.936,32.936,0,0,0,1020.942,595c-.96-1.281-1.95-1.9-3.64-1.379-2.34.716-4.753,1.194-7.137,1.764-1.377.329-2.779,1.049-2.981,2.373-.537,3.528-1.825,1.821-3.418.825s-3.593-2.918-5.125-2.053c-1.413.8-.749,3.347-.429,5.108.375,2.075-.348,4.584,1.921,6.2.175.124-.181,1.135-.42,1.676-5.1,11.57.7,19.1,11.505,20.028.262.023.5.271.793.434-1.955,1.013-1.955,1.013-7.662-.6.654,3.2,1.317,6.244,1.873,9.3.164.9.291,1.054,1.305.87,4.791-.874,4.794-.808,3.985-5.742a2.226,2.226,0,0,1,.412-2.273c1.4,2.268,1.646,4.805,2.223,7.184.37,1.525-1.158,1.349-2.075,1.582-1.379.35-2.993-.289-5.026,1.3C1012.431,641.826,1016.962,642.047,1021.5,642.2Zm-28.129-32.33c-.177.953-.241,1.688-1.58,2.182-2.3.848-3.52,7.432-2.038,9.367a2.835,2.835,0,0,0,3.3,1.007c1.537-.5,3.143-1.211,3.556-3,1.306-5.686,1.027-17.336-.539-24.222C995.137,600.259,994.262,605.068,993.367,609.872Zm-51.81-72.06c-4.572,6.47-1.572,24.092,4.922,29.2C942.308,557.826,941.255,548.129,941.557,537.812Zm63.489,103.85c.522.04,1.054-.132,1.036-.812-.019-.7-.569-.768-1.078-.7-1.2.17-2.463-.142-3.92.234a.522.522,0,0,0,.021,1.013A21.449,21.449,0,0,0,1005.046,641.662ZM942.081,535.54c.084-.157.233-.313.232-.47s-.153-.3-.239-.455l-.263.474Z" transform="translate(-937.898 -464.516)"/><path class="v" d="M1014.168,604.079c-2.354.478-4.651,1.27-6.026,3.315-.936,1.393-1.593,1.062-2.624.343a25.333,25.333,0,0,0-11.049-4.221c-9.73-1.44-19.316-3.61-28.252-7.859-12.7-6.042-20.19-20.323-16.831-32.916,2.569-9.628,7.357-18.435,13.148-26.467,5.747-7.972,14.566-11.2,24-11.9,14.566-1.086,28.623.8,41.005,9.525a28.631,28.631,0,0,1,9.17,9.742c.6,1.112.982,2.044.266,3.378a46.31,46.31,0,0,0-5.142,16.925c-1.2,10.9-1.254,21.6,8.436,29.784C1031.79,598.248,1023.4,602.2,1014.168,604.079Zm-46.038-45.09a7.027,7.027,0,0,0,7.239-6.807c.036-3.971-2.793-6.81-6.991-7.012-4.258-.207-7.037,2.3-7.209,6.509A6.891,6.891,0,0,0,968.13,558.989Zm39.8-3.606a7.1,7.1,0,1,0,14.2.15c.084-3.838-2.946-6.8-7.066-6.915A6.688,6.688,0,0,0,1007.933,555.383Zm-3.457,15.67c.631-.211,1.736-.331,1.458-1.206-.423-1.324-1.381-.247-2-.049-7.768,2.47-15.568,3.473-23.461.621-1.315-.475-2.764-.872-3.384-2.408-.182-.451-.51-1.049-1.1-.645-.72.488-.246,1.106.122,1.568a8.7,8.7,0,0,0,3.683,2.684,21.7,21.7,0,0,0,8.579,1.691A42.379,42.379,0,0,0,1004.475,571.053Z" transform="translate(-939.823 -475.248)"/><path class="w" d="M1077.3,562.126c2.678-7.785,6.315-15.076,12.8-20.546,5.513-4.65,10.25-4.522,14.866.963,4.358,5.178,4.9,11.612,4.141,17.956a63.064,63.064,0,0,1-6.592,20.895c-4.076,8.052-9.666,14.546-18.938,17.047-2.829.763-4.457-.044-5.894-2.241-3.475-5.313-3.782-11.289-3.783-15.346A59.505,59.505,0,0,1,1077.3,562.126Zm8.094,23.764c1.468,3.406,4.13,4.228,7.041,1.951,6.661-5.21,10.247-12.314,12.182-20.352.515-2.139,1.212-4.249.479-6.6-1.331-4.276-4.662-5.487-8.087-2.57a33.748,33.748,0,0,0-10.481,16.23c-.735,2.419-1.823,4.8-1.577,7.291A8.1,8.1,0,0,0,1085.392,585.89Z" transform="translate(-962.398 -477.798)"/><path class="t" d="M1020.159,669.922c5.384.231,9.915.453,14.449.607,1.967.067,1.377-1.521,1.248-2.435-.556-3.947-1.279-7.871-1.927-11.805-.107-.656-.679-1.345.1-1.994,1.636.085.8,1.805,1.712,2.544a7.3,7.3,0,0,0,2.7-4.21c-5.614-.881-7.183-2.1-7.307-7.867-.109-5.038-.379-9.652-3.322-13.853a1.893,1.893,0,0,1-.234-1.031c1.39.21,1.823,5.925,4.4,3.843.62-.5.472,1.086.448,1.706-.139,3.58-.439,7.157.217,10.724a8.2,8.2,0,0,0,1.222,3.438,3.243,3.243,0,0,0,5.846-.73,20.928,20.928,0,0,0,.863-11.781,32.934,32.934,0,0,0-6.516-13.751c-.96-1.281-1.949-1.9-3.64-1.379-2.34.717-4.753,1.194-7.137,1.764-1.377.329-2.778,1.049-2.981,2.373-.537,3.528-1.825,1.821-3.418.825s-3.593-2.918-5.125-2.053c-1.413.8-1.121,3.39-.8,5.15.374,2.576.025,4.748,2.294,6.153.182.112-.18,1.135-.42,1.676-5.1,11.57.7,19.1,11.505,20.028.262.023.5.271.793.434-1.955,1.013-1.955,1.013-7.662-.6.654,3.2,1.317,6.244,1.873,9.3.164.9.291,1.054,1.305.87,4.791-.874,4.794-.808,3.985-5.742a2.723,2.723,0,0,1,.007-1.668.417.417,0,0,1,.748,0c1.1,2.109,1.354,4.413,1.88,6.583.37,1.525-1.158,1.349-2.075,1.582C1023.806,668.974,1022.191,668.335,1020.159,669.922Z" transform="translate(-951.01 -492.843)"/><path class="t" d="M1007.316,623.915c-.928,5.059-1.8,9.867-2.7,14.671-.177.953-.241,1.688-1.58,2.182-2.3.848-3.52,7.432-2.038,9.367a2.835,2.835,0,0,0,3.3,1.007c1.537-.5,3.143-1.211,3.556-3C1009.161,642.45,1008.882,630.8,1007.316,623.915Z" transform="translate(-949.148 -493.23)"/><path class="t" d="M952.109,532.538c-4.231,3.388-6.281,8-7,13.187-.988,7.109-1.263,14.248.225,21.347a25.355,25.355,0,0,0,.846,2.483c.857-4.862,1.9-8.995,1.482-13.522-.6-6.472,1.031-12.775,3.232-18.883.518-1.436.972-2.895,1.455-4.344Q952.227,532.673,952.109,532.538Z" transform="translate(-939.05 -476.769)"/><path class="w" d="M946.8,583.122c-4.172-9.191-5.224-18.888-4.922-29.205C937.306,560.387,940.306,578.009,946.8,583.122Z" transform="translate(-938.219 -480.621)"/><path class="t" d="M1014.05,679.215a.3.3,0,0,0,.016.555c1.768.635,3.241.371,4.666.479.522.04,1.054-.132,1.036-.812-.019-.7-.569-.768-1.078-.7C1017.3,678.938,1015.816,678.486,1014.05,679.215Z" transform="translate(-951.584 -503.103)"/><path class="w" d="M942.67,550.491l.271.451c.084-.157.233-.313.232-.47s-.153-.3-.239-.455Z" transform="translate(-938.758 -479.918)"/><path class="t" d="M954.066,532.731c.261-.161.479-.339.127-.607-.022-.017-.239.221-.366.339Q953.945,532.6,954.066,532.731Z" transform="translate(-940.767 -476.695)"/><path class="u" d="M971.143,549.8c4.2.2,7.027,3.041,6.991,7.012a7.027,7.027,0,0,1-7.239,6.807,6.891,6.891,0,0,1-6.961-7.311C964.106,552.1,966.884,549.591,971.143,549.8Zm-.53,11.183c2.786.153,4.563-1.32,4.763-3.945.212-2.81-1.437-4.637-4.305-4.767a4.166,4.166,0,0,0-4.607,4.144A4.113,4.113,0,0,0,970.613,560.98Z" transform="translate(-942.587 -479.876)"/><path class="u" d="M1035.168,560.921a7.1,7.1,0,1,1-14.2-.15,6.688,6.688,0,0,1,7.129-6.765C1032.223,554.118,1035.253,557.083,1035.168,560.921Zm-7.4,4.339c2.7.171,4.784-1.505,4.878-3.927a4.776,4.776,0,0,0-4.445-4.936,4.567,4.567,0,0,0-4.712,4.253A4.286,4.286,0,0,0,1027.768,565.26Z" transform="translate(-952.863 -480.636)"/><path class="u" d="M994.3,582.788a42.378,42.378,0,0,0,16.111-2.256c.631-.211,1.736-.331,1.458-1.206-.423-1.324-1.381-.247-2-.049-7.768,2.47-15.568,3.473-23.461.621-1.315-.475-2.764-.872-3.384-2.408-.182-.451-.51-1.049-1.1-.645-.72.488-.246,1.106.122,1.568a8.7,8.7,0,0,0,3.683,2.684A21.7,21.7,0,0,0,994.3,582.788Z" transform="translate(-945.76 -484.727)"/><path class="u" d="M1088.94,578.6a33.747,33.747,0,0,1,10.481-16.23c3.425-2.917,6.756-1.706,8.087,2.57.733,2.353.036,4.463-.479,6.6-1.935,8.038-5.521,15.142-12.182,20.352-2.911,2.277-5.573,1.456-7.041-1.951a8.1,8.1,0,0,1-.443-4.053C1087.116,583.4,1088.205,581.024,1088.94,578.6Zm1.561,12.286c1.115,1.282,2.947.373,4.138-.654,7.47-6.451,11.079-14.744,11.4-24.518.056-1.707-.169-1.818-2.273-3.327a29.37,29.37,0,0,1-3.146,14.932,38.506,38.506,0,0,1-6.946,10.047c-.43.441-.771.976-1.508.821-.33-1.635,1.17-2.184,1.924-3.142,4.652-5.9,8.028-12.321,8.343-20.018.028-.68.376-1.572-.3-1.995-.849-.531-1.594.234-2.147.743a32.752,32.752,0,0,0-10.958,23.2c-.174,3.4,2.375.061,3.153,1.2C1092.135,589.466,1089.414,589.64,1090.5,590.891Z" transform="translate(-964.811 -481.857)"/><path class="x" d="M967.019,556.956a4.113,4.113,0,0,0,4.149,4.568c2.786.152,4.563-1.32,4.763-3.945.212-2.81-1.437-4.637-4.305-4.767A4.166,4.166,0,0,0,967.019,556.956Z" transform="translate(-943.142 -480.421)"/><path class="x" d="M1024.039,561.173a4.286,4.286,0,0,0,4.279,4.61c2.7.171,4.784-1.505,4.878-3.927a4.776,4.776,0,0,0-4.445-4.936A4.567,4.567,0,0,0,1024.039,561.173Z" transform="translate(-953.413 -481.16)"/><path class="y" d="M1092.545,588.647c-.33-1.635,1.17-2.184,1.924-3.142,4.652-5.9,8.028-12.321,8.343-20.018.028-.68.376-1.572-.3-1.995-.849-.531-1.594.234-2.147.743a32.753,32.753,0,0,0-10.958,23.2c-.174,3.4,2.375.061,3.153,1.2Z" transform="translate(-965.189 -482.313)"/><path class="y" d="M1092.828,588.534c-.047,1.286-2.768,1.461-1.681,2.711,1.115,1.282,2.948.373,4.138-.654,7.47-6.451,11.079-14.744,11.4-24.518.056-1.707-.169-1.818-2.273-3.327a29.369,29.369,0,0,1-3.146,14.932,38.508,38.508,0,0,1-6.946,10.047c-.43.441-.771.976-1.508.821Z" transform="translate(-965.458 -482.211)"/></g></g></svg>