<svg xmlns="http://www.w3.org/2000/svg" width="341" height="253.904" viewBox="0 0 341 253.904"><defs><style>.a,.b{fill:#bc1e2d;}.b{stroke:#333;stroke-miterlimit:10;stroke-width:0.856px;}.c{fill:#999;}.d{fill:#e3e4e5;}.e{fill:#1a1a1a;}.f{fill:#333;}</style></defs><g transform="translate(307.651 121.258)"><path class="a" d="M1175.825,510.86l-1.205-.312a4.162,4.162,0,0,0-2.154.225,18.277,18.277,0,0,1,.453,2.346,10.624,10.624,0,0,1,.663,1.464,2.766,2.766,0,0,1-.849,1.215,6.965,6.965,0,0,1-1.5,1.081c-.553.3-.921.4-1.105.3a.63.63,0,0,1-.161-.121,5.113,5.113,0,0,1-.6-2.21,14.1,14.1,0,0,0-.712-3.1,5.873,5.873,0,0,1-.569-1.463,5.15,5.15,0,0,1,.936-1.937,11.772,11.772,0,0,1,1.62-2.129.709.709,0,0,1,.938-.163,3.907,3.907,0,0,0,.99.516l2.285.106a14.559,14.559,0,0,1,4.2.879,3.513,3.513,0,0,1-.314,1.778,4.465,4.465,0,0,1-.942,1.645.936.936,0,0,1-.986.208A8.539,8.539,0,0,0,1175.825,510.86Z" transform="translate(-1168.091 -505.944)"/><path class="a" d="M1201.375,519.133q-2.627-.418-14.339,2.056-11.055,2.35-11.98,2.957a1.011,1.011,0,0,0-.5.29,4.831,4.831,0,0,1-.5.385,1.948,1.948,0,0,1-1.1.228,1.014,1.014,0,0,1-.831-.347,5.366,5.366,0,0,1-.538-2.174,4.267,4.267,0,0,1,.118-2.273,1.307,1.307,0,0,1,.67-.659q1.9-.535,12.279-2.74,11.619-2.476,14.918-2.787a4.576,4.576,0,0,1,.826-.329,1.894,1.894,0,0,1,1.318.478,1.754,1.754,0,0,1,.2.261,5.941,5.941,0,0,1,.046,2.3,4.8,4.8,0,0,1-.492,2.31A.139.139,0,0,1,1201.375,519.133Z" transform="translate(-1168.681 -507.29)"/><path class="a" d="M1201.133,538.464a11.874,11.874,0,0,1-2.21,1.506,5.8,5.8,0,0,1-1.96.859,9.291,9.291,0,0,1-1.43-.644,13.543,13.543,0,0,0-3.082-.9,5.213,5.213,0,0,1-2.153-.686.459.459,0,0,1-.112-.166q-.134-.284.343-1.1a6.5,6.5,0,0,1,1.147-1.452,2.515,2.515,0,0,1,1.28-.76c.094-.029.328.082.7.333a2.864,2.864,0,0,0,.725.4q.534.083,2.319.573a4.429,4.429,0,0,0,.36-2.162q-.148-.588-.272-1.2-.021-.117-.278-1.011a.931.931,0,0,1,.237-1,4.458,4.458,0,0,1,1.691-.855,3.346,3.346,0,0,1,1.814-.2,14.018,14.018,0,0,1,.638,4.218q.016,1.166.01,2.311a3.919,3.919,0,0,0,.463,1.016A.706.706,0,0,1,1201.133,538.464Z" transform="translate(-1171.903 -510.092)"/></g><g transform="translate(81.736 0)"><path class="a" d="M919.857,391.7a3.381,3.381,0,0,1,.268,2.226,2.074,2.074,0,0,1-1.257,1.578q-.71.285-4.236-.229t-3.9-1.183a3.7,3.7,0,0,1-.251-.859,3.651,3.651,0,0,0-.23-.817l-8.633-18.1q-.473-.991-2.618-.5-2.4.511-3.135-.251a2.913,2.913,0,0,1-.6-.823,4.456,4.456,0,0,1-.12-2.694,25,25,0,0,0,.462-3.024l-.568-3.855a2.872,2.872,0,0,1,1.639-3.11,7.887,7.887,0,0,1,4.241-.647q2.665.264,3.426,1.858l13.627,28.578a2.514,2.514,0,0,0,.934.9A2.552,2.552,0,0,1,919.857,391.7Z" transform="translate(-895.002 -359.366)"/></g><g transform="translate(252.637 223.073)"><path class="a" d="M1107.42,658.431a2.616,2.616,0,0,1-1.225,1.224,1.605,1.605,0,0,1-1.559-.012,9.641,9.641,0,0,1-1.878-2.684q-1.368-2.388-1.137-2.933a2.849,2.849,0,0,1,.4-.561,2.843,2.843,0,0,0,.386-.529l6.892-13.868q.377-.759-.944-1.828-1.456-1.217-1.341-2.025a2.27,2.27,0,0,1,.213-.759,3.439,3.439,0,0,1,1.58-1.356,19.5,19.5,0,0,0,2.058-1.16l2.072-2.181a2.217,2.217,0,0,1,2.67-.485,6.093,6.093,0,0,1,2.413,2.27,2.978,2.978,0,0,1,.5,2.967L1107.646,656.4a1.934,1.934,0,0,0-.1,1A1.964,1.964,0,0,1,1107.42,658.431Z" transform="translate(-1101.589 -629.019)"/></g><g transform="translate(0 126.13)"><g transform="translate(3.234 14.776)"><path class="a" d="M814.726,537.963a1.384,1.384,0,0,1,.519.754.848.848,0,0,1-.155.808,5.084,5.084,0,0,1-1.573.721q-1.371.483-1.632.311a1.484,1.484,0,0,1-.253-.262,1.424,1.424,0,0,0-.238-.251l-6.55-4.9q-.359-.268-1.04.317-.771.639-1.18.5a1.194,1.194,0,0,1-.374-.183,1.822,1.822,0,0,1-.554-.95,10.372,10.372,0,0,0-.406-1.181l-.936-1.285a1.171,1.171,0,0,1,0-1.433,3.217,3.217,0,0,1,1.41-1.038,1.574,1.574,0,0,1,1.589.021l10.34,7.737a1.027,1.027,0,0,0,.509.149A1.052,1.052,0,0,1,814.726,537.963Z" transform="translate(-800.109 -529.695)"/></g><g transform="translate(13.716)"><path class="a" d="M827.4,520.1a1.382,1.382,0,0,1,.519.753.847.847,0,0,1-.155.809,5.09,5.09,0,0,1-1.573.72q-1.37.484-1.631.312a1.522,1.522,0,0,1-.254-.262,1.5,1.5,0,0,0-.237-.251l-6.55-4.9q-.359-.268-1.04.317-.771.64-1.18.5a1.2,1.2,0,0,1-.375-.182,1.822,1.822,0,0,1-.554-.951,10.351,10.351,0,0,0-.406-1.18l-.936-1.285a1.172,1.172,0,0,1,0-1.434,3.214,3.214,0,0,1,1.409-1.037,1.571,1.571,0,0,1,1.589.022l10.341,7.737a1.02,1.02,0,0,0,.508.15A1.039,1.039,0,0,1,827.4,520.1Z" transform="translate(-812.779 -511.833)"/></g><g transform="translate(10.489 7.553)"><path class="a" d="M812.184,521.161q.628-.459,2.009.15a11.876,11.876,0,0,1,2.786,1.9,16.87,16.87,0,0,1,3.037,3.5q1.838,2.82.686,4.139a2.175,2.175,0,0,1-.553.422q-.615.326-.668.363-.4.2-1.293.7-.707.411-2.493-.491a16.672,16.672,0,0,1-3.421-2.373,14.029,14.029,0,0,1-2.649-2.951,2.954,2.954,0,0,1-.636-2.593.513.513,0,0,1,.069-.1.544.544,0,0,1,.244-.137c.114-.037.181-.082.2-.134a2.825,2.825,0,0,1,.495-.8,4.888,4.888,0,0,1,1.052-.85Q812.068,521.246,812.184,521.161Zm-.538,2.124q-.49.56.5,1.976a13.671,13.671,0,0,0,2.155,2.315,15.83,15.83,0,0,0,2.526,1.774q1.451.835,1.655.6.4-.455-.771-1.991a20.5,20.5,0,0,0-2.7-2.794,15.24,15.24,0,0,0-2.107-1.593Q811.9,522.992,811.646,523.284Z" transform="translate(-808.878 -520.963)"/></g><g transform="translate(0 21.272)"><path class="a" d="M799.35,537.776q.607-.486,2.013.059a11.842,11.842,0,0,1,2.87,1.77,16.879,16.879,0,0,1,3.192,3.355q1.964,2.734.874,4.1a2.142,2.142,0,0,1-.534.447c-.4.236-.616.367-.65.393q-.393.221-1.259.76-.689.443-2.513-.376a16.7,16.7,0,0,1-3.527-2.215,14.05,14.05,0,0,1-2.78-2.828,2.954,2.954,0,0,1-.754-2.561.444.444,0,0,1,.3-.255q.17-.063.194-.144a2.831,2.831,0,0,1,.458-.824,4.91,4.91,0,0,1,1.012-.9Q799.24,537.867,799.35,537.776Zm-.44,2.146q-.464.582.585,1.951a13.577,13.577,0,0,0,2.258,2.215,15.794,15.794,0,0,0,2.6,1.657q1.488.77,1.681.526.376-.473-.861-1.953a20.49,20.49,0,0,0-2.828-2.669,15.231,15.231,0,0,0-2.177-1.5Q799.151,539.619,798.91,539.922Z" transform="translate(-796.199 -537.547)"/></g></g><g transform="translate(267.973 13.656)"><path class="a" d="M1146.212,382.8q1.417,1.381.472,5.1a30.174,30.174,0,0,1-3.583,7.784,42.949,42.949,0,0,1-7.482,9.086q-6.291,5.8-10.082,3.465a5.457,5.457,0,0,1-1.291-1.209q-1.079-1.4-1.193-1.52-.679-.926-2.305-2.943-1.328-1.6.178-6.456a42.484,42.484,0,0,1,4.5-9.577,35.654,35.654,0,0,1,6.279-7.883q3.574-3.257,6.23-2.689a1.329,1.329,0,0,1,.29.132,1.371,1.371,0,0,1,.446.552q.212.407.421.443a7.193,7.193,0,0,1,2.219.9,12.381,12.381,0,0,1,2.576,2.277Q1145.952,382.549,1146.212,382.8Zm-5.548-.452q-1.611-.989-4.744,2.077a34.6,34.6,0,0,0-4.892,6.377,40.275,40.275,0,0,0-3.38,7.077q-1.482,3.989-.811,4.4,1.308.8,4.664-2.773a52.149,52.149,0,0,0,5.861-7.955,38.736,38.736,0,0,0,3.1-5.951Q1141.5,382.865,1140.665,382.35Z" transform="translate(-1120.127 -375.873)"/></g><g transform="translate(35.564 220.656)"><path class="a" d="M1146.212,382.8q1.417,1.381.472,5.1a30.174,30.174,0,0,1-3.583,7.784,42.949,42.949,0,0,1-7.482,9.086q-6.291,5.8-10.082,3.465a5.457,5.457,0,0,1-1.291-1.209q-1.079-1.4-1.193-1.52-.679-.926-2.305-2.943-1.328-1.6.178-6.456a42.484,42.484,0,0,1,4.5-9.577,35.654,35.654,0,0,1,6.279-7.883q3.574-3.257,6.23-2.689a1.329,1.329,0,0,1,.29.132,1.371,1.371,0,0,1,.446.552q.212.407.421.443a7.193,7.193,0,0,1,2.219.9,12.381,12.381,0,0,1,2.576,2.277Q1145.952,382.549,1146.212,382.8Zm-5.548-.452q-1.611-.989-4.744,2.077a34.6,34.6,0,0,0-4.892,6.377,40.275,40.275,0,0,0-3.38,7.077q-1.482,3.989-.811,4.4,1.308.8,4.664-2.773a52.149,52.149,0,0,0,5.861-7.955,38.736,38.736,0,0,0,3.1-5.951Q1141.5,382.865,1140.665,382.35Z" transform="translate(-1120.127 -375.873)"/></g><g transform="translate(73.16 25.056)"><path class="b" d="M1073.019,520.857a46.892,46.892,0,0,1-12.1,15.36,10.827,10.827,0,0,0-3.5,4.688c-1.842,5.358-4.753,10.706-8.956,13.8-5.318,3.911-8.6,10.035-14.805,12.745-.875.382-1.683,1.546-2.593,1.076-1.395-.721-.017-2-.173-3.022-.054-.352-.109-.7-.235-1.517a62.525,62.525,0,0,1-22.227,9.41c3.559,2.862,3.673,7.892,8.278,9.273.258.077.625.726.537.888-1.109,2.033-1.488,4.489-3.2,6.148-1.578,1.525-3.409.931-5.1.072-1.048-.533-2.018-1.223-3.248-1.981-1,2.034-.235,3.98.105,5.769.873,4.583.845,9.371,2.99,13.684,1.008,2.027-.5,2.8-1.966,3.2-1.793.487-3.77,1.136-5.508.825-4.678-.838-9.305.016-13.947-.126-2.6-.079-3.839-.733-3.561-4.032a80.092,80.092,0,0,0-.486-14.922c-.326-3.124-1.621-3.407-3.943-1.443-3.57,3.019-5.314,2.389-7.789-1.4-1.787-2.735-2.226-3.987.668-6.386,2.071-1.716,2.721-5.147,4.144-8.1a110.373,110.373,0,0,1-22.237-5.093c.17,4.909,4.358,4.934,7.246,6.616-5.275,1.871-12.279.339-15.5-4.532-3.033-4.592-8.22-5.865-11.723-9.493a1.208,1.208,0,0,0-1.695-.062c-1.794,1.591-1.779,1.611-3.52.149-6.951-5.837-12.18-12.751-13.589-22a5.893,5.893,0,0,0-3.024-3.918c-6.581-3.958-9.866-10.6-14.125-16.456,2.215-.874,2.875,1.018,3.661,2.267a55.676,55.676,0,0,0,6.115,7.512c1.394,1.541,2.238,1.28,2.722-.606,1.443-5.63,1.093-11.145-2.106-16.063a59.18,59.18,0,0,1-5.74-10c-1.805-4.5-5.12-7.235-9.29-9.2-1.408-.662-3.192-2.042-4.379-1.01-1.113.969.63,2.626.835,4.044.521,3.6,3.649,6.633,2.317,10.638-3.743-6.765-5.534-14.225-7.573-21.582-.638-2.3.626-3.2,2.923-2.771,10.06,1.9,18.591,6.245,24.294,15.135a1.718,1.718,0,0,0,.209.309c1.21,1.187,2.067,3.557,3.821,3.122,1.731-.429.871-2.769,1-4.25.618-7.041,1.521-13.977,4.331-20.582,2.035-4.782,5.529-8.443,8.632-12.43,1.281-1.645,2.336-3.47,3.656-5.078,2.541-3.093,5.857-5.288,9.05-7.641,8.555-6.3,17.411-12.139,26.393-17.818,13.605-8.6,20.281-21.268,20.831-37.256.072-2.1.01-4.2.01-7.17,6.4,5.974,9.435,13.249,12.907,21.163.265-2.13.428-3.432.6-4.849,1.8.591,1.63,2.057,2.09,3.1,3.148,7.1,5.632,14.663,10.594,20.687,3.7,4.488,7.472,9.089,12.588,12.327,4.995,3.161,8.045,8.279,11.76,12.744,8.045,9.67,13.386,20.806,18.2,32.26,1.161,2.762,2.019,5.652,3.165,8.905a30.722,30.722,0,0,1,14-10.2c3.02-1.066,6.182-1.743,9.3-2.528,2.727-.687,3.125.245,2.426,2.895a189.945,189.945,0,0,1-8.671,24.946c-2.909.489-1.243-1.275-.946-2.1,1.962-5.457,4-10.886,6.225-16.874-5.823,1.771-11.026,3.508-13.6,8.949-2.082,4.406-4.816,8.4-7.172,12.621-3.157,5.657-3.213,11.687-.928,18.03a58.4,58.4,0,0,0,7.755-9.126C1070.87,521.744,1071.075,519.784,1073.019,520.857ZM937.056,539.073l-.478.977a11.429,11.429,0,0,0,.323,1.8c2.448,7.082,7.011,12.077,13.605,15.893,9.521,5.51,19.877,8.669,30.389,10.509a61.638,61.638,0,0,0,24.848-1.138c12.859-3.112,24.12-8.761,30.692-21.1.8-1.5,1.863-2.988,1.6-5.174-2.674,1.566-3.943,4.226-6.468,5.387-.548.252-1.025.9-1.643.55-.808-.454-.641-1.317-.319-1.979,1.842-3.781,2.152-7.932,2.451-11.966.448-6.06-.168-12.4-4.842-16.665-7.815-7.128-17.736-10.015-28.172-12.173,1.623,3.592,5.107,4.906,6.821,7.807.414.7,1.369,1.386.82,2.277-.634,1.028-1.627.224-2.362,0-15.739-4.734-31.478-9.464-47.158-14.385-1.293-.406-1.552-.366-2.193.647a65.524,65.524,0,0,0-7.19,14.3c-2.693,8.082-1.133,16.061.485,23.953.827,4.04,4.293,5.694,8.528,5.7C948.72,548.527,942.405,545.865,937.056,539.073Zm49.617,49.852c-.034,3.993,2.579,6.727,6.448,6.748,4.018.022,9.065-2.979,9.149-5.44.218-6.353-3.375-10.819-8.728-10.852C988.843,579.352,986.729,582.29,986.673,588.924Zm9.615,16.53c-.266-2.389,1.03-4.624.68-6.942-.108-.716-.123-2.163-1.621-2.058-1.688.119-1.177,1.442-.989,2.235C994.894,600.944,994.787,603.373,996.288,605.455Z" transform="translate(-884.636 -389.654)"/><path class="c" d="M893.254,529.166c1.332-4-1.8-7.038-2.317-10.638-.205-1.418-1.948-3.075-.835-4.044,1.187-1.032,2.971.348,4.379,1.01,4.17,1.961,7.485,4.691,9.29,9.2a59.173,59.173,0,0,0,5.74,10c3.2,4.918,3.549,10.433,2.106,16.063-.484,1.886-1.328,2.148-2.722.606a55.687,55.687,0,0,1-6.115-7.512c-.786-1.248-1.445-3.14-3.661-2.267C897.006,537.515,893.616,534.056,893.254,529.166Z" transform="translate(-885.516 -411.153)"/><path class="c" d="M1109.825,542.255c-1.944-1.074-2.149.887-2.77,1.746a58.405,58.405,0,0,1-7.755,9.126c-2.285-6.343-2.229-12.373.928-18.03,2.356-4.221,5.09-8.215,7.172-12.621,2.57-5.442,7.774-7.178,13.6-8.949-2.22,5.989-4.263,11.417-6.225,16.874-.3.826-1.962,2.59.946,2.1-.45,3.415-2.933,5.627-4.843,8.177-.406-.246-.8-.4-1.187.048a.874.874,0,0,0,.108,1.43Z" transform="translate(-921.442 -411.052)"/><path class="a" d="M1112.233,547.78a.875.875,0,0,1-.109-1.43c.386-.449.781-.294,1.187-.048C1112.931,546.779,1113.256,547.771,1112.233,547.78Z" transform="translate(-923.877 -416.672)"/><path class="d" d="M947.9,562c5.349,6.792,11.664,9.455,19.736,5.234-4.236-.011-7.7-1.665-8.528-5.7-1.618-7.892-3.178-15.871-.486-23.953a65.535,65.535,0,0,1,7.19-14.3c.641-1.013.9-1.053,2.193-.647,15.68,4.921,31.419,9.652,47.158,14.385.734.221,1.728,1.025,2.362,0,.549-.891-.405-1.575-.82-2.277-1.713-2.9-5.2-4.215-6.821-7.807,10.436,2.158,20.357,5.045,28.172,12.173,4.674,4.264,5.29,10.605,4.842,16.665-.3,4.035-.609,8.185-2.451,11.966-.322.662-.489,1.525.319,1.979.618.348,1.094-.3,1.643-.55,2.525-1.161,3.794-3.821,6.468-5.387.265,2.186-.8,3.671-1.6,5.174-6.572,12.337-17.833,17.986-30.692,21.1a61.638,61.638,0,0,1-24.848,1.138c-10.512-1.84-20.868-5-30.388-10.509-6.594-3.816-11.157-8.811-13.605-15.893a11.443,11.443,0,0,1-.323-1.8Zm37.066-5.223a1.935,1.935,0,0,0,2.025-1.717,2,2,0,0,0-1.854-2.374,62.414,62.414,0,0,0-7.431-.746c-1.884-.041-3.759-4.8-5.663-.069a2.51,2.51,0,0,1-.664-.3c-.847-.74-1.942-1.193-2.569-.117-.753,1.293.678,2.492.768,3.853.079,1.2,1.155,1.63,2.237,1.407A37.212,37.212,0,0,1,984.968,556.777Zm38.2-5.582a10.633,10.633,0,0,0-5.912,1.068,2.267,2.267,0,0,0-1.324,2.778,1.719,1.719,0,0,0,2.307,1.322c3.79-1.6,7.512-.841,11.313-.1,1.883.367,4.866-4.075,4.078-5.816-.394-.87-1.376-1.144-1.785-.614-1.059,1.371-1.709,1.786-2.713-.038a1.068,1.068,0,0,0-1.87.151C1026.366,551.814,1024.813,551.153,1023.169,551.2Zm-8.805,19.939c-5.5,4.547-12.159,4.316-18.791,4.191C1002.583,577.016,1009.153,576.886,1014.363,571.135Z" transform="translate(-895.482 -412.582)"/><path class="d" d="M1007.979,628.541c.056-6.635,2.171-9.572,6.869-9.544,5.352.033,8.945,4.5,8.728,10.852-.084,2.461-5.131,5.462-9.149,5.44C1010.558,635.268,1007.945,632.534,1007.979,628.541Z" transform="translate(-905.942 -429.271)"/><path class="d" d="M1019.153,648.635c-1.5-2.081-1.394-4.51-1.929-6.765-.189-.793-.7-2.116.989-2.235,1.5-.105,1.512,1.342,1.621,2.058C1020.183,644.011,1018.887,646.246,1019.153,648.635Z" transform="translate(-907.501 -432.835)"/><path class="e" d="M989.389,562.5a37.211,37.211,0,0,0-13.151-.064c-1.082.223-2.158-.2-2.237-1.407-.089-1.362-1.52-2.56-.768-3.853.626-1.075,1.721-.622,2.569.117a2.508,2.508,0,0,0,.664.3c1.9-4.73,3.779.027,5.663.069a62.415,62.415,0,0,1,7.431.746,2,2,0,0,1,1.854,2.374A1.935,1.935,0,0,1,989.389,562.5Z" transform="translate(-899.902 -418.302)"/><path class="e" d="M1037.452,556.818c1.645-.043,3.2.618,4.094-1.249a1.068,1.068,0,0,1,1.87-.151c1,1.824,1.654,1.409,2.713.038.409-.53,1.391-.256,1.785.614.788,1.741-2.195,6.183-4.078,5.816-3.8-.741-7.523-1.5-11.313.1a1.719,1.719,0,0,1-2.307-1.322,2.267,2.267,0,0,1,1.324-2.778A10.632,10.632,0,0,1,1037.452,556.818Z" transform="translate(-909.765 -418.204)"/><path class="f" d="M1024.417,581.314c-5.21,5.751-11.78,5.882-18.791,4.191C1012.258,585.63,1018.915,585.861,1024.417,581.314Z" transform="translate(-905.536 -422.762)"/></g></svg>