<svg xmlns="http://www.w3.org/2000/svg" width="156" height="87.603" viewBox="0 0 156 87.603"><defs><style>.a{fill:#5998f7;}.b,.c{fill:#fff;}.b,.d{font-size:11px;font-family:BPGArial, BPG Arial;}</style></defs><g transform="translate(-879.509 -185.319)"><g transform="translate(879.545 226.529)"><path class="a" d="M1018.074,225.271H918.918L911.74,232.2H899.423l-7.693-6.67h-9.011a4.562,4.562,0,0,1-.762-.229,2.686,2.686,0,0,0-2.413,2.665V262.4a2.693,2.693,0,0,0,2.694,2.693h9.611l7.573,6.566H911.74l6.8-6.566h99.529a2.693,2.693,0,0,0,2.693-2.693v-34.44A2.693,2.693,0,0,0,1018.074,225.271Z" transform="translate(-879.544 -225.271)"/><text class="b" transform="translate(18.185 24.537)"><tspan x="-13.492" y="0">move</tspan></text><text class="b" transform="translate(105.535 23.382)"><tspan x="-12.993" y="0">steps</tspan></text><rect class="c" width="33.093" height="27.706" rx="13.43" transform="translate(42.136 5.644)"/><text class="d" transform="translate(58.494 23.382)"><tspan x="-6.118" y="0">10</tspan></text></g><g transform="translate(879.509 185.319)"><path class="a" d="M1032.815,185.319H918.882l-7.178,6.926H899.388l-7.694-6.67h-9.011a4.56,4.56,0,0,1-.762-.229,2.685,2.685,0,0,0-2.412,2.665v34.44a2.693,2.693,0,0,0,2.693,2.693h9.611l7.574,6.566H911.7l6.8-6.566h114.306a2.694,2.694,0,0,0,2.694-2.693v-34.44A2.694,2.694,0,0,0,1032.815,185.319Z" transform="translate(-879.509 -185.319)"/><text class="b" transform="translate(55.911 24.537)"><tspan x="-39.985" y="0">point in direction</tspan></text><rect class="c" width="33.093" height="27.706" rx="13.43" transform="translate(112.267 5.644)"/><text class="d" transform="translate(128.562 23.382)"><tspan x="-7.949" y="0">-90</tspan></text></g></g></svg>