<?xml version="1.0" encoding="utf-8"?>
<!-- Generator: Adobe Illustrator 24.2.3, SVG Export Plug-In . SVG Version: 6.00 Build 0)  -->
<svg version="1.1" id="Layer_1" xmlns="http://www.w3.org/2000/svg" xmlns:xlink="http://www.w3.org/1999/xlink" x="0px" y="0px"
	 viewBox="0 0 342.8 492.6" style="enable-background:new 0 0 342.8 492.6;" xml:space="preserve">
<style type="text/css">
	.st0{fill:none;stroke:#942222;stroke-width:0.75;stroke-miterlimit:10;}
</style>
<g transform="translate(-130.696 -173.308)">
	<g transform="translate(139.318 173.558)">
		<circle class="st0" cx="14.8" cy="14.8" r="14.8"/>
		<circle class="st0" cx="92.2" cy="65.3" r="18.3"/>
		<circle class="st0" cx="38.5" cy="63.2" r="25.4"/>
	</g>
	<g transform="translate(326.414 176.258)">
		<circle class="st0" cx="17.9" cy="14.8" r="14.8"/>
		<circle class="st0" cx="95.3" cy="65.3" r="18.3"/>
		<circle class="st0" cx="41.6" cy="63.2" r="25.4"/>
		<path class="st0" d="M9.7,32.1c-1,11.5,1.2,23,6.4,33.2"/>
		<path class="st0" d="M2.1,13.2c0.7-1.4,1.9-2.4,3.3-2.9c1-0.3,1.9-0.4,2.9-0.5c2.1-0.2,4.3-0.2,6.4,0c2.1,0.2,4.2,1.1,5.8,2.5"/>
		<path class="st0" d="M10.4,7C9.3,11.9,6.1,16,1.6,18.1c-0.7,0.3-1.6,0.8-1.6,1.5c0,0.3,0,0.5,0.1,0.8L1.2,24
			c0.3,1.4,0.9,2.6,1.8,3.7c0.2,0.2,0.4,0.3,0.6,0.4c0.3,0,0.6,0,0.9-0.1l6.5-2c0.8-0.3,1.7-0.4,2.6-0.4c0.9,0.1,1.6,0.8,1.8,1.7"/>
		<path class="st0" d="M32.3,12.4c0.8,1.4,1.7,2.7,2.4,4.1c4.6,8,8.3,12.5,10,21.5"/>
		<path class="st0" d="M54.4,41.3c15.7,0.4,37.1,0.4,47,6.7"/>
		<path class="st0" d="M42.4,87.7c11.2,4.7,24.4,1.7,35-4.3c4.6-2.6,9.1-5.9,14.4-6.4"/>
	</g>
	<g transform="translate(132.034 336.553)">
		<circle class="st0" cx="19.9" cy="28.4" r="14.8"/>
		<circle class="st0" cx="97.3" cy="78.8" r="18.3"/>
		<circle class="st0" cx="43.6" cy="76.8" r="25.4"/>
		<path class="st0" d="M11.7,45.6c-1,11.5,1.2,23,6.4,33.2"/>
		<path class="st0" d="M4.1,26.7c0.7-1.4,1.9-2.4,3.3-2.9c1-0.3,1.9-0.4,2.9-0.5c2.1-0.2,4.3-0.2,6.4,0c2.1,0.2,4.2,1.1,5.8,2.5"/>
		<path class="st0" d="M12.4,20.6c-1.1,4.9-4.3,8.9-8.8,11.1C2.9,32,2.1,32.4,2,33.2c0,0.3,0,0.5,0.1,0.8l1.1,3.6
			c0.3,1.4,0.9,2.6,1.8,3.7c0.2,0.2,0.4,0.3,0.6,0.4c0.3,0,0.6,0,0.9-0.1l6.5-2c0.8-0.3,1.7-0.4,2.6-0.4c0.9,0.1,1.6,0.8,1.8,1.7"/>
		<path class="st0" d="M34.3,25.9c0.8,1.4,1.7,2.7,2.4,4.1c4.6,8,8.3,12.5,10,21.5"/>
		<path class="st0" d="M56.4,54.8c15.7,0.4,37.1,0.4,47,6.7"/>
		<path class="st0" d="M44.4,101.2c11.2,4.7,24.4,1.7,35-4.3c4.6-2.6,9.1-5.9,14.4-6.4"/>
		<ellipse class="st0" cx="5.1" cy="36.9" rx="5.1" ry="5.2"/>
		<path class="st0" d="M8.6,17.1C8.4,12.6,8.5,8.2,9,3.8"/>
		<path class="st0" d="M9.1,3.5l0.6-0.9c0.7-0.2,1.4,0.5,1.8,1.1c2.1,3,3.6,6.3,4.5,9.9"/>
		<path class="st0" d="M25.1,13.8c0.8-4.4,2.2-8.6,4.3-12.6C29.7,0.7,30,0.1,30.6,0c1-0.2,1.6,1,1.9,1.9c1.6,6.1,1.7,12.6,0.3,18.8"
			/>
		<path class="st0" d="M18.4,82.4c-0.6,1.8-0.7,3.8-0.1,5.7c0.7,3.3,2.3,6.2,4.7,8.5c2.4,2.3,5.8,3.4,9.1,2.9"/>
		<ellipse class="st0" cx="47.2" cy="90.2" rx="11" ry="11.4"/>
		<ellipse transform="matrix(0.975 -0.222 0.222 0.975 -16.1406 26.0095)" class="st0" cx="107.6" cy="84.8" rx="13.4" ry="25.8"/>
		<path class="st0" d="M77.2,98.5c-0.8,2,0,4.2,0.8,6.1c0.3,1.1,1,2,1.9,2.5c0.7,0.2,1.5,0.2,2.2,0.1c2.3-0.3,4.7-0.8,6.5-2.2
			c0.6-0.5,1.2-1.1,1.8-1.8c1.7-1.7,3.1-3.7,4.1-5.9"/>
	</g>
	<g transform="translate(322.644 336.553)">
		<circle class="st0" cx="19.9" cy="28.4" r="14.8"/>
		<circle class="st0" cx="97.3" cy="78.8" r="18.3"/>
		<circle class="st0" cx="43.6" cy="76.8" r="25.4"/>
		<path class="st0" d="M11.7,45.6c-1,11.5,1.2,23,6.4,33.2"/>
		<path class="st0" d="M4.1,26.7c0.7-1.4,1.9-2.4,3.3-2.9c1-0.3,1.9-0.4,2.9-0.5c2.1-0.2,4.3-0.2,6.4,0c2.1,0.2,4.2,1.1,5.8,2.5"/>
		<path class="st0" d="M12.4,20.6c-1.1,4.9-4.3,8.9-8.8,11.1C2.9,32,2.1,32.4,2,33.2c0,0.3,0,0.5,0.1,0.8l1.1,3.6
			c0.3,1.4,0.9,2.6,1.8,3.7c0.2,0.2,0.4,0.3,0.6,0.4c0.3,0,0.6,0,0.9-0.1l6.5-2c0.8-0.3,1.7-0.4,2.6-0.4c0.9,0.1,1.6,0.8,1.8,1.7"/>
		<path class="st0" d="M34.3,25.9c0.8,1.4,1.7,2.7,2.4,4.1c4.6,8,8.3,12.5,10,21.5"/>
		<path class="st0" d="M56.4,54.8c15.7,0.4,37.1,0.4,47,6.7"/>
		<path class="st0" d="M44.4,101.2c11.2,4.7,24.4,1.7,35-4.3c4.6-2.6,9.1-5.9,14.4-6.4"/>
		<ellipse class="st0" cx="5.1" cy="36.9" rx="5.1" ry="5.2"/>
		<path class="st0" d="M8.6,17.1C8.4,12.6,8.5,8.2,9,3.8"/>
		<path class="st0" d="M9.1,3.5l0.6-0.9c0.7-0.2,1.4,0.5,1.8,1.1c2.1,3,3.6,6.3,4.5,9.9"/>
		<path class="st0" d="M25.1,13.8c0.8-4.4,2.2-8.6,4.3-12.6C29.7,0.7,30,0.1,30.6,0c1-0.2,1.6,1,1.9,1.9c1.6,6.1,1.7,12.6,0.3,18.8"
			/>
		<path class="st0" d="M18.4,82.4c-0.6,1.8-0.7,3.8-0.1,5.7c0.7,3.3,2.3,6.2,4.7,8.5c2.4,2.3,5.8,3.4,9.1,2.9"/>
		<ellipse class="st0" cx="47.2" cy="90.2" rx="11" ry="11.4"/>
		<ellipse transform="matrix(0.975 -0.222 0.222 0.975 -16.1406 26.0095)" class="st0" cx="107.6" cy="84.8" rx="13.4" ry="25.8"/>
		<path class="st0" d="M77.2,98.5c-0.8,2,0,4.2,0.8,6.1c0.2,1.7,1.8,3,3.6,2.7c0.2,0,0.4-0.1,0.6-0.1c2.3-0.3,4.7-0.8,6.5-2.2
			c0.6-0.5,1.2-1.1,1.8-1.8c1.7-1.7,3.1-3.7,4.1-5.9"/>
		<path class="st0" d="M115.7,67.7c2.2-0.1,4,1.4,5.6,2.9c3.6,3.5,6.9,7.2,9.9,11.2c2.5,3.2,4.8,6.6,8,9.1s7.8,3.6,11.4,1.9"/>
		<path class="st0" d="M24.3,98.1c-0.3,7.5-0.2,15.1,0.4,22.6c0.3,3.8,1,7.5,1.9,11.2c0.4,1.8,1.9,6.7,2.9,6.9
			c2.1,0,4.2-0.1,6.2-0.6c1.4-0.6,1.7-5.8,1.8-7.3c0.3-3.1-0.1-6.2,0-9.2c0.1-1.5-0.1-3-0.1-4.5s0.3-3,0.3-4.5
			c-0.1-1.7-0.1-3.3-0.1-5c0-1.3,0.5-2.5,0.4-3.7c-0.1-0.7-0.2-1.3-0.3-2v0.5"/>
		<path class="st0" d="M44.6,95.5l-0.4,10.7c-0.4,10.8-0.9,21.6-0.3,32.4"/>
		<path class="st0" d="M60,95.9c-1.2,13.8-4.5,27.4-7.7,40.9c-0.1,1.3-1.1,2.3-2.4,2.2c-0.1,0-0.2,0-0.3,0l-3.3,0.2
			c-0.8,0.1-2-0.3-1.8-1.1"/>
		<path class="st0" d="M82.9,137.3c2.6-5.8,5.3-11.5,8-17.3l9.1-0.3c-3.4,5.8-6.4,11.8-9.2,17.9c-0.2,0.4-0.4,0.9-0.8,1.2
			c-0.4,0.3-1,0.4-1.5,0.4c-2.1,0.2-4.2,0.1-6.2,0c0.1-0.5,0.3-0.9,0.6-1.2"/>
		<path class="st0" d="M124.2,118l7.1-5.8c0.4,0.4,0.6,0.8,0.7,1.4c1.8,8.3,2.9,16.6,3.5,25c-2.4,0.3-4.8,0.5-7.2,0.5
			c-2.1-6.7-3.6-13.7-4.3-20.7"/>
	</g>
	<g transform="translate(131.012 511.832)">
		<circle class="st0" cx="19.9" cy="28.4" r="14.8"/>
		<circle class="st0" cx="97.3" cy="78.8" r="18.3"/>
		<circle class="st0" cx="43.6" cy="76.8" r="25.4"/>
		<path class="st0" d="M11.7,45.6c-1,11.5,1.2,23,6.4,33.2"/>
		<path class="st0" d="M4.1,26.7c0.7-1.4,1.9-2.4,3.3-2.9c1-0.3,1.9-0.4,2.9-0.5c2.1-0.2,4.3-0.2,6.4,0c2.1,0.2,4.2,1.1,5.8,2.5"/>
		<path class="st0" d="M12.4,20.5c-1.1,4.9-4.3,8.9-8.8,11.1C2.9,32,2.1,32.4,2,33.2c0,0.3,0,0.5,0.1,0.8l1.1,3.6
			c0.3,1.4,0.9,2.6,1.8,3.7c0.2,0.2,0.4,0.3,0.6,0.4c0.3,0,0.6,0,0.9-0.1l6.5-2c0.8-0.3,1.7-0.4,2.6-0.4c0.9,0.1,1.6,0.8,1.8,1.7"/>
		<path class="st0" d="M34.3,25.9c0.8,1.4,1.7,2.7,2.4,4.1c4.6,8,8.3,12.5,10,21.5"/>
		<path class="st0" d="M56.4,54.8c15.7,0.4,37.1,0.4,47,6.7"/>
		<path class="st0" d="M44.4,101.2c11.2,4.7,24.4,1.7,35-4.3c4.6-2.6,9.1-5.9,14.4-6.4"/>
		<ellipse class="st0" cx="5.1" cy="36.9" rx="5.1" ry="5.2"/>
		<path class="st0" d="M8.6,17.1C8.4,12.6,8.5,8.2,9,3.8"/>
		<path class="st0" d="M9.1,3.5l0.6-0.9c0.7-0.2,1.4,0.5,1.8,1.1c2.1,3,3.6,6.3,4.5,9.9"/>
		<path class="st0" d="M25.1,13.8c0.8-4.4,2.2-8.6,4.3-12.6C29.7,0.7,30,0.1,30.6,0c1-0.2,1.6,1,1.9,1.9c1.6,6.1,1.7,12.6,0.3,18.8"
			/>
		<path class="st0" d="M18.4,82.4c-0.6,1.8-0.7,3.8-0.1,5.7c0.7,3.3,2.3,6.2,4.7,8.5c2.4,2.3,5.8,3.4,9.1,2.9"/>
		<ellipse class="st0" cx="47.2" cy="90.2" rx="11" ry="11.4"/>
		<ellipse transform="matrix(0.975 -0.222 0.222 0.975 -16.1403 26.0095)" class="st0" cx="107.6" cy="84.8" rx="13.4" ry="25.8"/>
		<path class="st0" d="M77.2,98.5c-0.8,2,0,4.2,0.8,6.1c0.2,1.7,1.8,3,3.6,2.7c0.2,0,0.4-0.1,0.6-0.1c2.3-0.3,4.7-0.8,6.5-2.2
			c0.6-0.5,1.2-1.1,1.8-1.8c1.7-1.7,3.1-3.7,4.1-5.9"/>
		<path class="st0" d="M115.7,67.7c2.2-0.1,4,1.4,5.6,2.9c3.6,3.5,6.9,7.2,9.9,11.2c2.5,3.2,4.8,6.6,8,9.1s7.8,3.6,11.4,1.9"/>
		<path class="st0" d="M24.3,98.1c-0.3,7.5-0.2,15.1,0.4,22.6c0.3,3.8,1,7.5,1.9,11.2c0.4,1.8,1.9,6.7,2.9,6.9
			c2.1,0,4.2-0.2,6.2-0.6c1.4-0.6,1.7-5.8,1.8-7.3c0.3-3.1-0.1-6.2,0-9.2c0.1-1.5-0.1-3-0.1-4.5s0.3-3,0.3-4.5
			c-0.1-1.7-0.1-3.3-0.1-5c0-1.3,0.5-2.5,0.4-3.7c-0.1-0.7-0.2-1.3-0.3-2v0.5"/>
		<path class="st0" d="M44.6,95.5l-0.4,10.7c-0.4,10.8-0.9,21.6-0.3,32.4"/>
		<path class="st0" d="M60,95.9c-1.2,13.8-4.5,27.4-7.7,40.9c-0.1,1.3-1.2,2.3-2.4,2.2c-0.1,0-0.2,0-0.3,0l-3.3,0.2
			c-0.8,0.1-2-0.3-1.8-1.1"/>
		<path class="st0" d="M82.9,137.3c2.6-5.8,5.3-11.5,8-17.3l9.2-0.3c-3.4,5.8-6.4,11.8-9.2,17.9c-0.2,0.4-0.4,0.9-0.8,1.2
			c-0.4,0.3-1,0.4-1.5,0.4c-2.1,0.2-4.2,0.1-6.2,0c0.1-0.5,0.3-0.9,0.6-1.2"/>
		<path class="st0" d="M124.2,118l7.1-5.8c0.4,0.4,0.6,0.8,0.7,1.4c1.8,8.3,2.9,16.6,3.5,25c-2.4,0.3-4.8,0.5-7.2,0.5
			c-2.1-6.7-3.6-13.7-4.3-20.7"/>
		<path class="st0" d="M15.3,23.5c-0.3,0-0.5,0-0.8,0c0.5,0.1,1,0.3,1.4,0.5c-0.4,0.1-0.8,0.3-1.2,0.5c1.7,0.8,3.8,0.7,5.6,1.4"/>
		<path class="st0" d="M7.1,25.1c-0.1,0-0.2,0.1-0.2,0.2c0.6-0.4,1.3-0.7,2.1-0.8c-1,0.2-2,0.6-2.9,1.2"/>
		<path class="st0" d="M0.6,34.4c-0.1,0.5,0.2,1,0.7,1.2c0,0,0.1,0,0.1,0c0.6,0,1.1-0.2,1.5-0.6c0.8-0.8,0.9-2.1,0.2-2.9"/>
		<path class="st0" d="M18.2,45.5C22.7,56.8,24,69,22.2,80.9"/>
		<path class="st0" d="M151.1,93.2c-0.9,0.5-1.7,1.2-2.5,1.8c-2.2,1.6-4.9,2.2-7.6,1.8"/>
		<path class="st0" d="M146.7,100.5c-3.6,2.2-8.2,1.9-11.5-0.7"/>
		<path class="st0" d="M138.1,105.2l-3.6-1.3c-0.8-0.3-1.5-0.7-2.2-1.3c-1.3-1.1-2.6-2.3-2.9-3.9"/>
		<path class="st0" d="M80.9,106.9c0.6,0.8,1.3,1.6,1.9,2.5l8.3,11.4"/>
		<path class="st0" d="M91.3,101.9c0.5,1.6,1.2,3.2,2,4.7l7.2,13.5"/>
		<path class="st0" d="M111.3,110.2c0.2-0.3,0.6-0.1,0.9,0c4.4,2.2,8.4,5,12.1,8.2"/>
		<path class="st0" d="M121.3,98.5c-0.3,3.2,1.5,6.2,3.6,8.8c0.4,0.5,0.8,0.9,1.2,1.4c1.5,1.5,3.6,2.3,5,3.9"/>
		<path class="st0" d="M17.3,147.8c1.3-2.2,2.9-4.5,5.3-5.2c0.4-0.1,0.8-0.2,1.2-0.2c1.9-0.1,3.7,0.7,4.9,2.2
			c0.3,0.4,0.6,0.9,0.9,1.3c0.3,0.5,0.6,1.1,0.7,1.6c0,0.1,0,0.2-0.1,0.3c-0.1,0.1-0.2,0.1-0.2,0.1c-1.6,0.3-3.3,0.4-4.9,0.3
			c-0.5-0.1-1.1-0.2-1.6-0.2c-0.6,0-1.2-0.1-1.9,0l-4.4,0.1"/>
		<path class="st0" d="M34.7,147.8c1.3-2.2,2.9-4.5,5.3-5.2c0.4-0.1,0.8-0.2,1.2-0.2c1.9-0.1,3.7,0.7,4.9,2.2
			c0.3,0.4,0.6,0.9,0.9,1.3c0.3,0.5,0.6,1.1,0.7,1.6c0,0.1,0,0.2-0.1,0.3c-0.1,0.1-0.2,0.1-0.2,0.1c-1.6,0.3-3.3,0.4-4.9,0.3
			c-0.5-0.1-1.1-0.2-1.6-0.2c-0.6,0-1.2-0.1-1.9,0l-4.4,0.1"/>
		<path class="st0" d="M73.7,144.1c1.3-2.2,2.9-4.5,5.3-5.2c0.4-0.1,0.8-0.2,1.2-0.2c1.9-0.1,3.7,0.7,4.9,2.2
			c0.3,0.4,0.6,0.9,0.9,1.3c0.3,0.5,0.6,1.1,0.7,1.6c0,0.1,0,0.2-0.1,0.3c-0.1,0.1-0.2,0.1-0.2,0.1c-1.6,0.3-3.3,0.4-4.9,0.3
			c-0.5-0.1-1.1-0.2-1.6-0.2c-0.6,0-1.2-0.1-1.9,0l-4.4,0.1"/>
		<path class="st0" d="M123,144.1c1.3-2.2,2.9-4.5,5.3-5.2c0.4-0.1,0.8-0.2,1.2-0.2c1.9-0.1,3.7,0.7,4.9,2.2
			c0.3,0.4,0.6,0.9,0.9,1.3c0.3,0.5,0.6,1.1,0.7,1.6c0,0.1,0,0.2-0.1,0.3c-0.1,0.1-0.2,0.1-0.2,0.1c-1.6,0.3-3.3,0.4-4.9,0.3
			c-0.5-0.1-1.1-0.2-1.6-0.2c-0.6,0-1.2-0.1-1.9,0l-4.4,0.1"/>
	</g>
	<g transform="translate(321.472 516.395)">
		<path class="st0" d="M9.2,19.1C8.6,13.6,8.9,8,9.8,2.6"/>
		<path class="st0" d="M10.1,2.3c3.6,2.8,6.1,6.9,8.2,11"/>
		<path class="st0" d="M10.2,2.4c2.8,3.5,4.6,7.8,5,12.3"/>
		<path class="st0" d="M24.8,14.1c1.1-3.7,2.5-7.3,4.2-10.7C29.6,2,30.5,0.5,32,0c2.6,6.5,2.3,13.7,2,20.7"/>
		<path class="st0" d="M32.1,0.1c3,4.2,3.8,9.6,4.1,14.7c0.2,3.5,0.3,7.1,0.2,10.6"/>
		<path class="st0" d="M18.7,13.8c1.3-1.1,3.5-0.3,4.9,0.1c0.4,0.1,0.7,0.2,1,0.4"/>
		<path class="st0" d="M9.2,19.4l-1.8,2.1c-0.3,0.4-0.7,0.8-0.9,1.2c-1.1,1.8-0.8,4.1-0.6,6.2"/>
		<path class="st0" d="M11.2,23.5c-2.3,4.3-6.1,7.6-10.6,9.5"/>
		<path class="st0" d="M0.9,32.8C0.4,32.7,0,33.2,0,33.7c0.1,0.5,0.2,0.9,0.6,1.3c0.4,0.6,0.9,1.2,1.6,1.3c0.6,0,1.1-0.3,1.5-0.8
			c0.5-0.5,1-1.1,1.4-1.8c0.2-0.2,0.2-0.4,0.2-0.7c0-0.1-0.1-0.2-0.2-0.3c-1-0.8-2.3-0.9-3.4-0.4c-0.6,0.2-1.1,0.6-1.3,1.2"/>
		<path class="st0" d="M0.8,35.6C0.9,37.1,1.1,40,2,41.1c0.4,0.5,1,0.8,1.6,1c2.4,0.7,5-0.1,7.3-0.9l3.7-1.2
			c0.7-0.3,1.4-0.4,2.2-0.4c0.8,0.1,1.4,0.7,1.5,1.4"/>
		<path class="st0" d="M12.8,41.1l2.2-0.8c0.1-0.1,0.3-0.1,0.4,0c0.1,0.1,0.1,0.3,0.1,0.4l-0.4,2.9c0,0.2,0,0.4,0.1,0.5
			c0.2,0.3,0.7,0.1,1.1-0.2s1-0.2,1,0.2c0,0.1-0.1,0.2-0.2,0.3c-0.3,0.5-0.5,1.1-0.4,1.7c0,0.1,0.1,0.3,0.2,0.4c0.1,0.1,0.3,0,0.4,0
			c0.5,0.1,0.5,0.7,0.3,1.1s-0.5,0.9-0.3,1.3c0.4-0.3,0.8-0.6,1.2-1l-0.3,7.4"/>
		<path class="st0" d="M12.4,41.6c-1,7.4-0.9,14.9,0.3,22.2c0.2-0.5,0.5-1,0.9-1.3l0.4,2.8c0,0.3,0.1,0.5,0.3,0.7
			c0.2,0.2,0.5,0.2,0.7,0l-0.1,1.9c-0.1,0.5,0,1.1,0.3,1.5c0.4,0.4,1.2,0.3,1.2-0.3c0.1,3,0.7,6,1.6,9"/>
		<path class="st0" d="M36.5,25.5c4.7,6,6.9,13.5,9,20.9c0.1,0.4,0.2,0.7,0.5,1c0.3,0.3,0.7,0.5,1.1,0.7c4.2,1.7,7.9,4.2,11.1,7.4"
			/>
		<path class="st0" d="M34,32.7c-0.8,2.7-2.3,5.2-4.2,7.3l-3.5,4.1"/>
		<path class="st0" d="M40.7,55.1c-0.9,0.4-1.7,1-2.4,1.6c-2,1.6-4,3.2-5,5.5l2.4-1c0.1-0.1,0.2-0.1,0.3-0.1
			c0.2,0.1,0.3,0.2,0.2,0.4c0,0.2-0.1,0.3-0.2,0.5c-0.8,1.1-1.4,2.4-1.8,3.7"/>
		<path class="st0" d="M5.1,42c0.1-0.3,0.2-0.7,0.1-1c0.3,0.6,0.9,0.9,1.5,0.8"/>
		<path class="st0" d="M17.5,75.2c-0.5,2.1-0.8,4.2-0.9,6.4c-0.2,1.6,0,3.2,0.7,4.7c0.3,0.4,0.6,0.9,0.7,1.4c0,0.3,0,0.7,0,1
			s0.4,0.7,0.8,0.5c-0.4,1.3,0.6,2.6,1.4,3.6l4.2,5"/>
		<path class="st0" d="M24.6,92.7c0.7,1.8,2.6,2.8,4.3,3.8c0.7,0.4,1.5,0.8,2.3,1c0.3,0.1,0.7,0.2,1,0.3c0.9,0.3,1.5,1.1,2.4,1.3
			c0.2,0,0.5,0,0.4-0.2"/>
		<path class="st0" d="M28.7,90.8l3.1,4.7c1.3,2.7,3.7,4.6,6.6,5.1c1.5,0.5,3.2,0.8,4.8,0.9"/>
		<path class="st0" d="M37.2,90.9c0.3,1.2,0.7,2.5,1.2,3.6c0.1,0.2,0.2,0.4,0.4,0.5c0.5,0.1,0.8-0.9,1.2-0.7
			c-0.2,0.8-0.2,1.6,0.1,2.3c0.4,0.7,1.6,0.9,1.9,0.2c1.4,5.8,1.2,11.9,1,17.9c-0.3,8.4-0.7,16.8-1.2,25.2"/>
		<path class="st0" d="M24.3,98.2c0.5,11.5,1,23.1,1.7,34.6l0.4-0.6l0,1.5c-0.1-0.2,0.2-0.4,0.4-0.2c0.1,0.2,0.2,0.4,0.2,0.6
			l-0.3,6.1"/>
		<path class="st0" d="M38.2,100.5c0.4,4.7,0.5,9.4,0.3,14.1c-0.3-0.4-0.6-0.9-0.7-1.4c-0.2,0.7-0.2,1.5-0.2,2.3
			c-0.3-0.3-0.6,0.2-0.7,0.6c-0.4,5.3-0.5,10.6-0.1,15.9c0,0.2,0,0.3-0.1,0.5c-0.1,0.1-0.4,0-0.3-0.1c-0.4,1.9-0.5,3.8-0.3,5.8
			c-0.5-0.7-1.5-0.2-2.1,0.4c-2,2.1-2.7,5.1-1.8,7.8"/>
		<path class="st0" d="M59.1,93.8v-0.7c0.7,2.7,0.6,5.5,0,8.1c-0.2-0.2-0.6-0.2-0.8,0c0,0,0,0,0,0c-0.2,0.3-0.3,0.6-0.4,0.9
			c-0.5,1.9-0.8,3.9-0.8,5.9c0,1.3,0.3,2.7-0.4,3.8c-0.2,0.3-0.4,0.6-0.6,0.9c-0.1,0.3-0.2,0.6-0.2,0.9l-0.5,5.9
			c-0.3,0.7-0.6,1.4-0.8,2.1l-1.2,4.3c-0.9,3-1.7,6.2-1.4,9.3c0.1,0.4,0.1,0.8,0,1.3c-0.3,0.9-1.5,1.2-2.4,1.3l0,1.1
			c-0.2,0.1-0.4,0-0.5-0.1c0,0,0-0.1,0-0.1c-0.4,2.9-0.5,5.9-0.2,8.9"/>
		<path class="st0" d="M48.5,128.3c0,1.1,0.3,2.1,0.9,3c0.4-2.5,0.6-5,0.4-7.6l1.1,1.7c-0.3-2-0.2-4.1,0.2-6.1l0.4,0.8
			c0.3-2.9,0.7-5.8,1.2-8.6"/>
		<path class="st0" d="M32.3,128.1c0.3-3.5,0.3-7,0.1-10.5c0,0.7,0.4,1.3,0.9,1.7l0.5-7.2c0.1,0.4,0.4,0.6,0.8,0.8
			c0.7-3.1,0.9-6.4,0.7-9.6"/>
		<path class="st0" d="M58.7,102.4c5.2,1,10.4-1,15.2-3s9.9-4.3,15.1-3.8c2.4,0.2,4.7,0.9,6.8,2.2c0.9,0.7,1.6,1.6,2.1,2.7"/>
		<path class="st0" d="M76.5,98.4c0,0-0.8,1.2-0.8,1.3c-1,1.7-0.3,4,1,5.5s3,2.6,4.5,3.9c2.2,2.1,4,4.5,5.5,7.1
			c1.1,1.8,1.4,4,0.9,6.1c-0.5,2-1.3,4-2.3,5.9l-5.1,10.4"/>
		<path class="st0" d="M86.3,141.1c0.5-1.3,1.3-2.4,2.4-3.2l0.3,0.7c1.3-1.1,2.4-2.6,3.1-4.2l6.1-11.4c1.7-2.3,1.6-5.5-0.4-7.6
			l-3.1-5c-0.8-1.2-1.5-2.5-2-3.9c-1.1-3.2-0.4-6.8,2-9.3"/>
		<path class="st0" d="M97.4,99.7c1.9,3,4.2,5.9,6.6,8.5c1.2,1.5,2.8,2.6,4.5,3.4c2.6,0.9,5.5,0.1,8,1.3c1.3,0.8,2.5,1.8,3.4,3
			c1.9,2,3.5,4.4,4.7,6.9c0.8,2.5,1.2,5.2,1.2,7.9c0.1,2.8,0.2,5.6,0.2,8.3"/>
		<path class="st0" d="M133.4,140l0.6-3.9l0.6,0.8c-0.3-0.8-0.3-1.7,0-2.6c-1-2.1-1.6-4.4-1.6-6.7c-0.3-4.5-0.4-9.1-0.3-13.6
			c0.1-0.6,0-1.2-0.3-1.8c-0.4-0.5-0.9-0.8-1.5-1c-1.9-0.9-3.7-2.1-5.2-3.6c-4.5-4.5-5.8-11.2-6.5-17.6s-0.9-13-4-18.5
			c-1.4-2.4-3.2-4.7-5.1-6.7c-2.2-2.1-4.7-3.8-7.6-4.8"/>
		<path class="st0" d="M121.6,145.1c0.2-1.4,0.6-2.7,1.4-3.9c0.3-0.4,0.6-0.8,0.9-1.1c0.9-0.7,2-1.1,3.2-1.2c1.4-0.2,2.8,0,4.2,0.3
			c0.7,0.2,1.4,0.5,2,1c1,0.9,1.2,2.4,1.3,3.8c-1.7,0-3.5,0.3-5.2,0.7c-0.2,0.1-0.4,0.1-0.6,0c-0.5-0.2-0.5-0.8-0.4-1.4
			c-0.3,0.2-0.2,0.9-0.6,1.1c-0.1,0-0.3,0.1-0.4,0c-1.8-0.1-3.5-0.1-5.3,0.3"/>
		<path class="st0" d="M72.6,145.1c-0.5-3.1,1.7-6.1,4.8-6.6c0.2,0,0.4,0,0.6-0.1c0.9-0.2,1.7,0.2,2.2,1c0.2,0.4,0.3,1,0.7,1
			c0.2,0,0.3-0.2,0.5-0.3c0.3-0.1,0.6-0.2,0.9-0.1c0.8,0,1.5,0.2,2.2,0.5c1.2,0.8,1.5,2.5,1.6,3.9c-1.6,0.4-3.3,0-4.9,0.2
			c-0.8,0.1-1.6,0.3-2.4,0.4c-1.8,0.3-3.6,0.1-5.4-0.5"/>
		<path class="st0" d="M112.5,66.6c6.9,6.3,10.6,15.3,16.6,22.5c1.2,1.4,2.5,2.8,3.9,3.9c4.5,3.5,10.5,4.7,16,3.2"/>
		<path class="st0" d="M148.9,96.7c0.1,0.4-0.3,0.8-0.7,1l-3.7,1.9c-0.3,0.2-0.7,0.3-1,0.5c-1.5,0.4-3.1,0.4-4.6,0"/>
		<path class="st0" d="M138.7,100.4c2,0.7,2.5,3.1,7.4,2.1"/>
		<path class="st0" d="M146.1,102.5c-3.2,3.2-7.7,4.9-12.2,4.4"/>
		<path class="st0" d="M130.3,110.4c1.3,1.1,3.7,0.8,5.4,0.9c2.8,0,5.7-0.7,8.2-1.9"/>
		<path class="st0" d="M136.8,106.8c1.8,0.9,2.7,2.3,7.1,2.3"/>
		<path class="st0" d="M57.8,54.6c0.2,0.4,0.7,0.5,1.1,0.5c3,0.1,6-0.7,9-1c3.3-0.3,6.6-0.2,9.8,0.2c8.8,0.9,17.4,2.8,25.8,5.9"/>
		<path class="st0" d="M89.6,91.9c-0.1-1.3,0.8-2.4,2.1-2.5c0.1,0,0.2,0,0.3,0c0.8,0.1,1.5,0.6,2,1.3c0.5,0.7,0.8,1.4,1.1,2.2
			c0.4,1.1,2,5.7,2.4,6.9"/>
		<path class="st0" d="M53.2,97c5-3.9,9.2-9.1,10.4-15.3"/>
		<path class="st0" d="M26.7,139.3c-0.2,1-1.4,1.5-2.3,2.1c-0.7,0.3-1.5,0.6-2.3,0.8c-1.2,0.5-2.7,0.3-3.7,1.1
			c-0.7,0.5-1.3,1.3-1.5,2.2c-0.2,0.9-0.3,1.8-0.3,2.7"/>
		<path class="st0" d="M20.1,145.3c-0.3,0.4-0.4,0.9-0.5,1.4c0,0.5,0.2,1,0.6,1.3"/>
		<path class="st0" d="M22.6,145.6c-0.2,0.4-0.3,0.8-0.4,1.2c0,0.4,0.2,0.9,0.6,1.1"/>
		<path class="st0" d="M25.1,148.4c0.7-0.3,1.4-0.4,2.2-0.4c1.4-0.1,2.9-0.2,4.3-0.4c0.2,0,0.4-0.1,0.6-0.2c0.3-0.3,0.1-0.7-0.1-1.1
			"/>
		<path class="st0" d="M41.9,140.1c-1.1,1.8-2.8,3.1-4.8,3.9"/>
		<path class="st0" d="M36.6,147.6c-0.4-0.5-0.5-1.1-0.3-1.7c0.1-0.5,0.3-1,0.6-1.4c0.3-0.4,0.8-0.6,1.3-0.5c0.7,0.2,1.1,1,1.2,1.7
			c0.2,0.6,0.2,1.3,0.1,2"/>
		<path class="st0" d="M39.1,143.9c0.2,0.3,0.5,0.5,0.9,0.5c0.4,0,0.7-0.2,1-0.4c0.9-0.5,2-1,2.9-0.6c0.6,0.3,1,0.8,1.2,1.5
			c0.2,0.6,0.2,1.3,0.2,1.9v1.7"/>
		<path class="st0" d="M26.7,14.7c1.2,0.6,2.3,1.3,3.2,2.3c0.9,0.7,1.6,1.6,1.9,2.7"/>
		<path class="st0" d="M14,15.4c-1.6,0.5-2.9,1.6-3.6,3.2"/>
		<path class="st0" d="M7.7,23.4c0.6-0.7,2.5-0.8,3.4-1.1c0.1,0,0.2,0,0.2,0.1c0,0,0,0.1,0,0.1c-0.3,0.8-0.6,1.5-1.1,2.2"/>
		<path class="st0" d="M16.5,23.3c0.6-0.3,1.3-0.5,2.1-0.6c0.7-0.1,1.4,0.1,2,0.6c0.3,0.3,0.7,0.7,1.1,0.6c0.1,0,0.2-0.1,0.3-0.1
			c0.2,0,0.3,0.1,0.4,0.3c0.5,0.5,1,0.8,1.6,1.1"/>
		<path class="st0" d="M16.3,25.7c0.2,0.4,0.5,0.7,0.9,0.9c0.5,0.5,1.1,0.8,1.7,0.9c0.2,0,0.4,0,0.7-0.1l0.9-0.2"/>
		<path class="st0" d="M16.4,25.2c0.4,0.5,1,0.9,1.6,1.1c1,0,1.9-0.4,2.6-1.1l0.7,0.2c0,0-0.7,0.3-1,0.5c-1.1,0.9-2.7,0.7-3.6-0.4
			C16.6,25.5,16.5,25.4,16.4,25.2z"/>
		<path class="st0" d="M20.6,25.3c0,0-0.8-0.4-1.9-1s-1.9,0.1-2.6,0.9c-0.3,0.3,0.5-0.5,0.8-0.8c0.2-0.2,0.4-0.4,0.7-0.5
			c0.6-0.1,1.2,0,1.6,0.4C19.6,24.7,20.1,25,20.6,25.3"/>
		<path class="st0" d="M17.6,24.4c0.2,0.2,0.4,0.4,0.4,0.7c0,0.4,0,0.8-0.2,0.9s-0.5,0.1-0.9-0.4s-0.7-0.7-0.2-1.1
			S17.6,24.4,17.6,24.4z"/>
		<path class="st0" d="M7.7,24.3C7.9,24.5,8,24.7,8,25c0,0.4,0.3,0.8,0.2,0.9c-0.4,0.2-0.8,0.1-1.1-0.2c-0.5-0.5-0.6-0.8,0-1.2
			S7.7,24.3,7.7,24.3z"/>
		<path class="st0" d="M7,26.8c0.2,0,0.4,0,0.5-0.1c0.2,0,0.3-0.1,0.5-0.1c0.7-0.1,1.3-0.5,1.7-1.1"/>
		<path class="st0" d="M10.2,24.5c-0.5-0.1-0.9-0.3-1.3-0.5c-0.5-0.3-1.7,0.2-1.7,0.2s1-0.3,1.3,0C9.1,24.4,9.6,24.5,10.2,24.5z"/>
		<path class="st0" d="M36.4,148.9l2.8-0.4c0.3-0.1,0.7-0.1,1.1-0.1c0.3,0.1,0.6,0.2,0.9,0.3c2.6,0.9,5.4,0.4,7.4-1.4"/>
		<path class="st0" d="M16.6,148.4h3c0.3,0,0.6,0,0.8,0.1c0.6,0.1,1.1,0.4,1.7,0.2c0.1-0.1,0.3-0.1,0.4-0.2c0.4-0.1,0.8,0.2,1.2,0.3
			c0.6,0.2,1.3,0,1.7-0.6"/>
	</g>
</g>
</svg>
