<svg xmlns="http://www.w3.org/2000/svg" xmlns:xlink="http://www.w3.org/1999/xlink" width="295.03" height="219.29" viewBox="0 0 295.03 219.29"><defs><style>.a{fill:#3a94d5;}.b{fill:#1a65ba;}.c{opacity:0.69;fill:url(#a);}.d{fill:#4f4698;}.e{fill:#f1eff0;opacity:0.53;}</style><linearGradient id="a" y1="0.5" x2="1" y2="0.5" gradientUnits="objectBoundingBox"><stop offset="0.142" stop-color="#55b7e1" stop-opacity="0"/><stop offset="1" stop-color="#e7cfe9"/></linearGradient></defs><g transform="translate(-555.817 -484.436)"><rect class="a" width="291.171" height="121.427" transform="translate(559.676 484.436)"/><path class="b" d="M851.514,606.852V721.777H561.153L560.7,657.9l-.046-6.174-.046-6.472-.046-6.464L560.5,628.76l-.031-4.142v-.7l-.122-17.063Z" transform="translate(-0.667 -18.051)"/><path class="c" d="M852.557,606.852V721.777h-108.2c.924-2.736,1.8-5.533,2.5-8.123,2.858-10.553-24.873-4.058-32.2-6.495-7.344-2.438,40.758-10.554,66.441-23.551s23.642-22.336,17.123-30.459-6.113-11.775.818-20.3c4.326-5.326-5.02-7.641-15.626-8.933-6.38-.772-13.212-1.169-17.8-1.628-12.226-1.215-60.336,2.032-69.307,0s-51.77,1.215-86.828,0c-17.568-.611-31.964-7.955-42.058-15.435Z" transform="translate(-1.71 -18.051)"/><path class="d" d="M620.145,712.857H616.11L614.8,648.288l-.153-7.3-.115-5.907-.145-6.923-.267-13.166-.038-1.727-.313-15.336-1.024-50.356,1.322-1.215,1.887,51.571.565,15.451.054,1.612.489,13.258.206,5.792.306,8.207.252,6.893Z" transform="translate(-8.394 -9.131)"/><path class="d" d="M605.961,539.6s-1.421,9.035-3.452,12.589a19.282,19.282,0,0,0-2.335,7.107,25.934,25.934,0,0,1,.609-20.1s.305-2.131-1.523,0-8.934,11.473-14.315,17.463c0,0-1.421-1.218.812-6.7s4.975-10.355,10.965-15.127-22.234,6.4-22.234,6.4l-3.959,1.421s3.655-7.411,11.066-10.355a54.408,54.408,0,0,1,14.416-3.452s.305-1.828-11.98-3.96-14.518-3.553-14.518-3.553,5.99-3.248,9.442-3.35a44.612,44.612,0,0,1,18.173,4.568s2.945-.507,0-2.437-14.619-12.183-15.838-15.228c0,0-3.655-1.726,1.218-.914a30.309,30.309,0,0,1,18.985,12.386s1.218.914.507-1.523-6.294-16.447-6.294-16.447,5.381,2.843,8.021,6.7,2.234,5.482,2.234,5.482-.61-10.355,8.629-12.792c0,0-1.726,5.482-2.741,8.122s-1.625,9.949-1.625,9.949,7.208-11.066,18.173-13.5c0,0,2.132.3.305,1.015s-8.935,12.691-12.387,14.925-1.928,3.452-1.928,3.452,5.787-4.061,10.456-4.772,15.636.3,16.447.914-9.34,5.888-14.518,6.7-11.473,1.828-9.442,2.437,12.284.3,19.8,6.193,6.294,6.5,3.248,6.193-25.584-7.411-24.873-6.294,12.792,7.005,14.214,15.229,0,8.021,0,8.021-11.27-11.371-12.589-13.3a44.143,44.143,0,0,0-3.046-3.859s3.96,6.4,2.843,11.27-1.625,6.294-1.625,6.294-4.669-12.183-6.4-14.924S605.961,539.6,605.961,539.6Z" transform="translate(-2.02 -1.967)"/><path class="d" d="M590.374,730.892H588.02l-1.246-61.008.657-.6.665-.612.038,1.146Z" transform="translate(-4.565 -27.167)"/><path class="d" d="M616.221,661.7a68.23,68.23,0,0,1-6.793-1.689c-.963-.268-1.987-.558-3.026-.856-7.19-2.033-15.488-4.432-15.053-3.744.711,1.115,12.792,7,14.214,15.229s0,8.016,0,8.016-11.271-11.37-12.593-13.3a42.055,42.055,0,0,0-3.034-3.844c.206.336,3.92,6.511,2.836,11.256-1.124,4.867-1.628,6.288-1.628,6.288s-4.669-12.18-6.4-14.923a7.96,7.96,0,0,0-1.177-1.49,3.621,3.621,0,0,0-.7-.534,1.287,1.287,0,0,0-1.062-.207s-1.421,9.033-3.455,12.585a19.28,19.28,0,0,0-2.338,7.107,25.919,25.919,0,0,1,.611-20.1s.305-2.131-1.521,0-8.932,11.47-14.319,17.461c0,0-1.421-1.215.818-6.7s4.975-10.354,10.965-15.13c3.568-2.842-5.013-.022-12.532,2.713l-.045-6.174a54.43,54.43,0,0,1,11.866-2.521s.3-1.827-11.913-3.952l-.046-6.464a44.621,44.621,0,0,1,13.075,4.119s2.941-.512,0-2.437a108.972,108.972,0,0,1-13.144-11.706,14.922,14.922,0,0,1-2.7-3.523s-3.652-1.727,1.223-.917c.451.077.94.176,1.444.3a30.569,30.569,0,0,1,17.537,12.089s1.223.917.512-1.521c-.42-1.452-2.576-7.014-4.248-11.271-1.093-2.773-1.98-5-2.041-5.166a28.563,28.563,0,0,1,6.786,5.166,15.493,15.493,0,0,1,1.223,1.529,11.478,11.478,0,0,1,2.239,4.844,15.513,15.513,0,0,1,1.483-6.373,10.576,10.576,0,0,1,5.172-5.081,12.4,12.4,0,0,1,1.972-.7s-.145.466-.39,1.2c-.359,1.147-.948,2.95-1.513,4.585-.3.871-.6,1.689-.841,2.339-1.016,2.636-1.62,9.948-1.62,9.948s5.586-8.573,14.4-12.287a21.335,21.335,0,0,1,3.775-1.215s2.132.305.305,1.016a1.615,1.615,0,0,0-.328.2c-2.231,1.735-8.787,12.6-12.058,14.725-3.455,2.231-1.934,3.454-1.934,3.454s5.792-4.065,10.461-4.776a35.16,35.16,0,0,1,5.3-.237c.879.015,1.781.046,2.675.092,4.1.214,8,.7,8.466,1.062.543.4-3.774,2.881-8.26,4.73-.916.382-1.841.733-2.735,1.039a22.112,22.112,0,0,1-3.523.932c-5.173.81-11.47,1.827-9.437,2.431,1.459.442,7.175.4,13.074,2.544a27.582,27.582,0,0,1,2.927,1.261,22.583,22.583,0,0,1,3.8,2.391C620.485,661.4,619.262,662.009,616.221,661.7Z" transform="translate(0 -20.002)"/><path class="e" d="M722.616,549.373l134.153,1.164a7.258,7.258,0,0,0-2.132-3.877c-2.948-2.685-8.5-2.52-13.571.775-1.821-5.958-7.1-9.461-11.826-8.723-4.289.668-6.613,4.594-6.979,5.234a42.378,42.378,0,0,0-27.916-10.08c-17.5.348-28.23,11.764-30.049,13.764a38.3,38.3,0,0,0-17.254,0,54.756,54.756,0,0,0-24.427,1.744Z" transform="translate(-24.596 -7.287)"/></g></svg>