<svg xmlns="http://www.w3.org/2000/svg" width="1366" height="707.17" viewBox="0 0 1366 707.17"><defs><style>.a{fill:#70b8b8;}.b{fill:#9cd6d6;}.c{fill:#fff;}.d{fill:#e8d9a9;}.e{fill:#d7bb67;}.f{fill:#c4d5d7;}.g{fill:#d7a372;}.h{fill:#d7b25c;}.i,.j,.k,.y{fill:none;}.i,.j{stroke:#000;}.i,.j,.k{stroke-miterlimit:10;}.i{stroke-width:0.2px;}.j{stroke-width:0.218px;}.k{stroke:#5e98b7;stroke-width:1.469px;}.l{fill:#77aab6;}.m{fill:#773728;}.n{fill:#a66b34;}.o{fill:#c47f3d;}.p{fill:#ce521f;}.q{fill:#ebebeb;}.r{fill:#8e96a3;}.s{fill:#2b2b2b;}.t{fill:#e3e3e3;}.u{fill:#f6da9b;}.v{fill:#d63e23;}.w{fill:#164b55;}.x{fill:#f8d24b;}.y{stroke:#f8d24b;stroke-linecap:round;stroke-linejoin:round;}.aa,.z{opacity:0.3;}.ab{fill:#d8a35d;fill-rule:evenodd;}.ac{fill:#999;}.ad{fill:#ccc;}.ae{fill:gray;}.af{fill:#f7cf43;}.ag{opacity:0.15;}.ah{fill:#d6bf87;}.ai{fill:#438591;}.aj{fill:#fe674c;}</style></defs><g transform="translate(0 -1649.911)"><path class="a" d="M1366,1651.541v705.54l-.04-.01-242.19-67.58-1.24-.24-31.75-6.02.07-22.59.29-98.94.02-7.2.03-11.74,1.22-417.62,30.12-25.56,1.78-.74C1228.2,1683.351,1310.31,1665.231,1366,1651.541Z"/><path class="a" d="M316.29,1714.551l-15.68,543.41-.37,12.96-26.87,6.66L.2,2345.321v-695.41a2644.97,2644.97,0,0,0,273.17,52.72q18.765,2.625,38.35,5.11Z"/><path class="b" d="M1122.53,1699.111v596.43H273.37v-592.91q18.765,2.625,38.35,5.11a2967.265,2967.265,0,0,0,303.27,22.49A2991.735,2991.735,0,0,0,1122.53,1699.111Z"/><path class="c" d="M1366,2312.741v44.34l-.04-.01H.17L0,2314.411c.07-.02.13-.03.2-.05a2637.062,2637.062,0,0,1,263.78-51.39c3.11-.44,6.24-.89,9.39-1.33,3.18-.44,6.38-.89,9.6-1.32,1.14-.16,2.28-.32,3.43-.47q7.05-.96,14.21-1.89c1.55-.21,3.11-.41,4.68-.61l3.51-.45q15.72-2.01,31.96-3.89,45.51-5.3,94.92-9.46,8.685-.72,17.5-1.41,6.78-.51,13.65-1.02,8.88-.645,17.88-1.24,62.46-4.17,130.28-5.84a3016.356,3016.356,0,0,1,387.29,15.84q15.18,1.6,29.92,3.32c.97.12,1.94.23,2.91.34q9.03,1.065,17.87,2.16c.94.12,1.88.23,2.82.35q9.09,1.14,17.99,2.3,8.61,1.125,17.06,2.29,16.155,2.22,31.68,4.52C1227.26,2280.711,1309.99,2298.981,1366,2312.741Z"/><path class="d" d="M242.839,1955.827v69.514L65.39,2042.824V1921.015s11.055-1.883,23.006-2.771a128.722,128.722,0,0,1,14.626-.386,51.647,51.647,0,0,1,12.847,1.972c4.386,1.286,8.651,2.859,12.877,4.39,3.421,1.239,6.862,2.287,10.209,3.568,3.365,1.287,6.428,3.134,9.661,4.591,2.3,1.037,4.606,2.024,6.9,2.985,6.132,2.566,12.218,4.941,18.24,7.169l.852.315c.371.135.745.275,1.12.409.432.16.868.319,1.3.473s.873.317,1.311.476c.879.317,1.759.628,2.646.938.222.079.443.158.664.232.442.157.887.314,1.332.466.106.039.217.078.323.113s.228.083.346.117c.444.156.891.308,1.337.459.666.234,1.338.458,2.008.682.206.072.416.14.622.208a.157.157,0,0,0,.048.019c1.062.354,2.126.706,3.191,1.049.275.091.555.182.834.269.307.1.614.2.924.3l.02.01,1.414.444a.088.088,0,0,0,.035.01c.179.057.357.115.539.172.356.109.711.219,1.071.333l1.3.4c.008,0,.019.005.027.005.872.27,1.742.525,2.606.784.012,0,.02.005.031.005q.657.2,1.306.381c.172.052.343.1.51.15l.792.225c.43.122.859.244,1.289.36l.695.2c.254.07.505.14.759.2s.5.14.754.2.5.134.752.2.5.129.743.194.493.125.738.19h.011c.416.11.824.216,1.235.318.571.142,1.136.28,1.7.418.242.055.48.114.722.169.008.005.019.005.027.009.231.055.457.1.684.16s.467.105.7.16c.008,0,.019,0,.03,0,.226.055.448.1.674.155s.44.1.661.141c.158.036.315.073.473.1a.109.109,0,0,0,.03.009c.67.14,1.324.28,1.958.407.477.094.946.185,1.41.274.412.081.82.153,1.22.225.193.036.381.067.57.1l.561.094.387.066.74.121c.022,0,.041,0,.063.009.184.031.371.057.555.084.154.027.312.049.466.071l.077.013c.183.027.359.053.535.075l.091.014c.5.07.995.137,1.473.2q.9.113,1.734.2c.022.005.04.005.062.009,11.83,1.226,15.622-1.06,15.972-1.291Z"/><path class="e" d="M173.462,1948.771c-6.28-1.015-26.278-3.594-29.659-2.813-3.41.788-.078-1.4-.078-1.4s-2.322-.115-3.488.946.078-1.818.078-1.818a6.957,6.957,0,0,0-1.481,1.3c-.392.576-3.769.45-3.769.45a3.149,3.149,0,0,1,1.889-1.222c1.409-.4-2.6.3-3.389,1.288s-4.7.365-4.536-.055-1.683-.272-2.648.22-.485-1.1-1.615-1.031-7.751,2.882-9.733,2.863l-5.834-.056c-.588-.006-1.009-.873-1.683-.793a11.989,11.989,0,0,0-2.2.756s-1.187-.531-5.2-.05c-.475.058-1.009.128-1.6.206a116,116,0,0,1-19.85,1.371l-13.285-.211h-.043v-21.789l.043-.012a137.081,137.081,0,0,1,26.1-3.835,71.385,71.385,0,0,1,10.941.359c15.816,1.874,23.386,3.413,42.528,11.984,18.275,8.182,34.049,13.39,34.049,13.39S179.643,1949.771,173.462,1948.771Z"/><path class="f" d="M98.612,1876.345c1.065,1.844,7.711,4.687,17.061,4.643,0,0,2.724-.621,3.437-.3s2.179-.109,2.321-.856-.426-2.471-1.562-2.578-1.425-1.253-1.949-1.606-2.533-1.265-2.966-.949-1.972-.854-2.358-1.3-3.877-1.46-5.244-.513-1.96,1.718-1.372,2.6-1.964,1.572-2.409-.176-4.359-1.193-4.61-.8S97.915,1875.135,98.612,1876.345Z"/><path class="f" d="M167.976,1905.142c3.184.958,8.437.392,12.071,3.456,3.6,3.038,13.455,3.892,14.452,2.78s2.233-2.641,5.086.005c2.833,2.626,11.462,1.96,12.888.756a4.6,4.6,0,0,1,3.657-.638,68.2,68.2,0,0,0,6.962.416c5.813.209,2.654-2.223,7.538-.385,4.818,1.815,7.7-.769,7.7-.769,2.86,1.413,2.092-1.929.993-2.689s-2.764.507-2.764.507a12.535,12.535,0,0,0-1-2.694c-.445-.584-2.457-1.418-3.242-1.89s-2.592,1.765-2.592,1.069-.678-1.862-2.61-2.995-2.86.084-4.47-.034-2.895-1.061-4.643-2.323-2.225-.737-4.347-1.043-1.183-1.377-2.8-3.077a11.971,11.971,0,0,0-4.36-3.23c-1.449-.554-3.268-1.577-2.176-2.2s-2.431-1.516-7.467-2.984c-4.4-1.283-8.373,1.078-11.084,3.128-.436.327-.838.648-1.2.943-1.576,1.273-3.68,3.342-5.542,4.807-1.29,1.013-2.466,1.735-3.265,1.7-1.964-.095-5.79,2.389-6.853,3.673s-4.545.446-5.759,1.125S164.764,1904.176,167.976,1905.142Z"/><path class="f" d="M161.005,1893.7c.536,1.007,4.376,1.184,7.339,1.292,2.939.108,4.3-3.24,5.025-1.991.689,1.182,1.935,2.084,5.656,3.057,1.862-1.465,3.966-3.534,5.542-4.807.365-.295.767-.616,1.2-.943a5.423,5.423,0,0,0-2.035-4.806,15.147,15.147,0,0,0-6.022-1.615c-1.546-.024-5.7.784-6.013.28s-2.935-2.662-4.517-2.571-2.97,1.043-4.571.655-2.36-1.672-5.491,3.011C153.964,1889.976,160.468,1892.688,161.005,1893.7Z"/><path class="g" d="M173.029,1952.453s1.235,2.42-5.683,3.394c-4.347.613-10.616,5.558-13.4,5.737-2.833.182-3.79,2.062-5.42,3.34-1.674,1.315-6.124,2.276-5.209,3.745.93,1.492-1.777,1.37-6.84,4.446-5.4,3.277-9.517,6.363-13.037,7.219-3.608.878-5.249,1.63-9.923,5.005-3.185,2.3-17.307,6.834-22.32,8.987-5.22,2.243-9.092,3.668-12.086,8.1,0,0-13.138-.6-9.315-10.986,0,0,19.255-20.591,38.6-24.559,8.456-1.221,13.905-1.358,18.179-5.145,2.854-2.529,7.053-3.324,10.116-3.908,2.994-.571,7.6-2.359,9.346-2.469,1.727-.111,1.508-1.435,6.049-3.272a16.89,16.89,0,0,1,7.2-1.485S170.327,1950.949,173.029,1952.453Z"/><path class="h" d="M199.218,1956.344s2.062.484.382,4.49c-.382.911-1.762,1.771-2.274,2.526-.523.771,0,1.144-.03,2.45-.031,1.347-3.038,5.421-3.974,7.145a20.439,20.439,0,0,0-1.843,7.825c.036,2.262-7.367,12.323-7.367,12.323s-10.479,21.347-21.668,31.022c-9.29,8.036-26.9,7.331-35.059,5.651-3.8-.783-10.267-1.426-9.476-5.269.093-.451,5.857-4.782,6.134-5.088,7.166-7.922,13.132-11.52,14.816-12.966,1.643-1.414,13.141-10.554,14.546-12.136,1.368-1.539,4.64-3.454,6.281-4.432a12.017,12.017,0,0,0,3.752-4.447c.248-.791.292-1.661.751-2.08s2.581-1.925,2.828-2.224,7.65-8.575,8.793-10.907c1.086-2.216,1.332-1.967,2.918-2.86a17.357,17.357,0,0,0,4.348-4.221,7,7,0,0,1,3.345-3.547,8.816,8.816,0,0,0,3.51-3.825C192.773,1954.068,199.218,1956.344,199.218,1956.344Z"/><path class="i" d="M156.414,1997.9s6.246-.953,7.833-.49"/><path class="i" d="M159.757,1993.762c.1.217,5.757-1.309,7.317.11"/><path class="i" d="M163.151,1989.911s7.882-1.752,11.489.7"/><path class="h" d="M187.91,1954.779a2.7,2.7,0,0,1-1.759,2.657c-1.71.827-3.965,1.707-4.623,3.214-.683,1.562-2.132,3.91-6.2,5.506-4.263,1.672-1.467,2.849-4.733,6.394-3.536,3.835-7.419,8.328-8.537,9.056-1.135.74-3.341,1.476-3.242,2.69.1,1.239-.889,2.678-2.787,4.057-1.953,1.416-5.558,1.692-8.348,5.494-2.981,4.068-7.752,5.778-11.786,8.486-4.236,2.838-27.2,20.583-32.226,21.761-9.071,2.123-21.4-14.81-21.4-14.81s1.017-4.619,8.793-6.5c7.468-1.8,19.1-11.608,34.686-19.367a14.691,14.691,0,0,1,7.094-4.49c4.362-1.177,11.978-7.566,12.909-8.438.913-.855,1.836-1.149,1.555-1.815s-.268-.99.832-1.331a26.283,26.283,0,0,0,5.065-3.116,7.746,7.746,0,0,1,3.973-1.757c1.572-.118,5.57-2.939,5.982-3.1a24.063,24.063,0,0,1,5.539-1.954c2.527-.452,5.782-3.037,6.045-4.09l-.018-.325s3.244-.821,11.167,1.26A7.691,7.691,0,0,1,187.91,1954.779Z"/><path class="i" d="M170.877,1969.541a25.6,25.6,0,0,0-6.078-1.055"/><path class="i" d="M171.439,1967.746a39.111,39.111,0,0,0-6.434-1.343"/><path class="i" d="M166.653,1975.174a30.5,30.5,0,0,0-6.041-.946"/><path class="i" d="M181.81,1958.774a7.05,7.05,0,0,0-3.017-.748c-1.821-.046-3.029-.134-3.029-.134"/><path class="h" d="M152.429,1950.709s-5.309.978-7.411,2.862c-.892.8-6.269,1.648-10.048,2.807-3.881,1.192-8.964,1.187-13.3,3.745-5.272,3.106-20.059,3.542-26.828,5.967-7.083,2.536-16.947,6.4-23.035,12.176-3.633,3.45.228-3.695,1.8-14.479.935-6.4,18.76-12.915,28.943-11.877.05,0,.1.009.143.015,3.238.353,4.573-1.1,5.613-.874s1.459.254,1.6-.185a1.546,1.546,0,0,1,2.243-.2c.91.748.778,1.186.778,1.186a5.368,5.368,0,0,0,2.3-.035c.522-.33,2.112-.923,2.516-.487s2,.5,2.306.464a5.394,5.394,0,0,1,2.791-.95c1.6.043,4.274.822,8.049.726,3.708-.094,6.477-.005,7.427-.209s3.7-1.335,6.191-1.271A69.113,69.113,0,0,1,152.429,1950.709Z"/><path class="j" d="M133.757,1955.335s-1.012-1.013-3.936-1.317"/><path class="j" d="M131.173,1956.054a14.611,14.611,0,0,0-3.573-1.115,13.607,13.607,0,0,0-2.9,0"/><path class="j" d="M115.141,1960.852s.122-.471-1.019-.981a26.421,26.421,0,0,0-4.277-1.015"/><path class="h" d="M211.267,1958.768c.489,1.055-.626,3.467-.488,4.685a36.4,36.4,0,0,1-.025,5.214c-.11,2.285-2.661,4.65-2.167,7.008.512,2.447-.067,7.9-.559,9.975-.5,2.11-4.719,14.849-4.913,17.181a38.551,38.551,0,0,0,.284,10.609c1.881,9.67-1.9,10.046-9.734,11.656l-21.886,3.321a.274.274,0,0,1-.291-.152,5.152,5.152,0,0,1,.069-3.374,67.323,67.323,0,0,1,4.661-9.391c.759-.983,11.835-21.674,12.091-22.742s4.977-10.324,4.945-11.038a13.847,13.847,0,0,1,4.281-10.732c.108-.318,1.587-2.691,1.635-3.055.176-1.359-1.007-2.581.262-4.146a12.153,12.153,0,0,0,2.629-5.65C205.7,1955.842,210.789,1957.735,211.267,1958.768Z"/><path class="i" d="M210.02,1964.749s-.482-.267-3.351.462l-2.793.71"/><path class="i" d="M209.747,1966.9s-.647-.428-2.4.224c-1.732.644-2.729.969-2.729.969"/><path class="i" d="M207.919,1974.164a5.929,5.929,0,0,0-3.348.223l-1.753.653"/><path class="g" d="M221.95,1959.856c.308.932,3.107,5.363,2.978,7.025a12.741,12.741,0,0,0,.812,5.4c1.3,3.2,1.207,5.285,1.718,8.077a91.557,91.557,0,0,1,1.745,11.979c.1,2.676,3.918,13.762,6.607,19.521,1.562,3.344.887,6.562-1.674,7.389L211,2021.284c-.033.011-.066.018-.1.026s-.042.007-.062.008a.784.784,0,0,1-.1.011c-.028,0-.058,0-.088,0a.291.291,0,0,1-.051,0h-.009a.419.419,0,0,1-.093-.014.251.251,0,0,1-.057-.013l0,0-.01,0a.476.476,0,0,1-.087-.025c-.031-.01-.062-.02-.094-.033a1.761,1.761,0,0,1-.242-.128,1.978,1.978,0,0,1-.742-.923,1.95,1.95,0,0,1-.1-.35c-1.007-5.958-2.315-16.139-2.137-17.88.171-1.7,3.67-14.222,4.305-18.115.6-3.672-.48-6.928-.471-8.537.009-1.573,2.121-3.579,2.081-4.877-.04-1.272-.739-5.157-.773-5.423-.026-.2.431-3.51.669-5.212a1.423,1.423,0,0,1,1.021-1.243C217.136,1957.8,221.673,1959.018,221.95,1959.856Z"/><path class="i" d="M212,1984.678a9.546,9.546,0,0,1,4.988.417"/><path class="i" d="M212.548,1983.11a3.772,3.772,0,0,1,2.658.152"/><path class="i" d="M212.72,1980.065c.262.119,4.881-.751,7.607.63"/><path class="g" d="M242.84,2012.565c-.01,0-.018-.011-.027-.015a8.256,8.256,0,0,1-3.062-3.152c-2.517-4.813-6.185-10.566-6.756-16.175a85.63,85.63,0,0,0-4.859-19.171,27.192,27.192,0,0,1-1.375-3.963c-.318-.848.16-3.77-.108-4.156s-3.009-5.677-3.009-5.677c.078-1.073,3.326-.928,6.449-1.3,4.6-.552,10.789,4.85,12.072,6.537l.648.851.027.036"/><path class="i" d="M230.192,1975.107s.075-3.651,5.316-4.276"/><path class="i" d="M230.995,1976.671s-.1-1.2,2.049-1.626"/><path class="i" d="M227.7,1965.594s-.432-1.167,1.422-1.961"/><path class="k" d="M66.891,1836.64l186.562,38.28-1.567,149.3L64.649,2050.206Z"/><path class="c" d="M242.3,1875.851l11.157-.931L66.891,1836.64l-.074,7.027Z"/><path class="l" d="M253.453,1874.92l-12.206.689-1.532,145.966,12.171,2.646Z"/><path class="l" d="M239.714,2021.575,64.736,2041.923l-.087,8.283,105.642-14.661,81.595-11.324Z"/><rect class="m" width="143.949" height="4.075" transform="translate(751.989 2146.325)"/><rect class="m" width="147.046" height="8.011" transform="translate(751.718 2115.055)"/><path class="n" d="M892.754,2113.671h10.8L886.529,2267.1h-4.987Z"/><path class="n" d="M753.817,2113.671h-10.6L759.927,2267.1h4.892Z"/><path class="o" d="M907.9,2152.071h13.714l-21.624,167.865h-6.334Z"/><path class="o" d="M731.04,2152.071H717.585L738.8,2319.936h6.209Z"/><rect class="o" width="182.823" height="4.073" transform="translate(729.059 2172.328)"/><rect class="o" width="230.53" height="9.781" transform="translate(706.646 2147.459)"/><path class="g" d="M706.646,2147.459l30.418-35.639,169.085-.5,31.027,36.14Z"/><path class="p" d="M781.44,2093.53h0a.316.316,0,0,1-.187-.405l.256-.7.592.218-.257.7A.316.316,0,0,1,781.44,2093.53Z"/><path class="p" d="M784.738,2094.744h0a.316.316,0,0,1-.187-.4l.256-.7c.018-.046.59.225.59.225l-.255.69A.315.315,0,0,1,784.738,2094.744Z"/><path class="q" d="M781.376,2093.393h0a.316.316,0,0,1-.187-.405l.281-.763a.318.318,0,0,1,.405-.187h0a.317.317,0,0,1,.187.405l-.281.763A.316.316,0,0,1,781.376,2093.393Z"/><path class="q" d="M784.667,2094.6h0a.318.318,0,0,1-.187-.405l.281-.762a.316.316,0,0,1,.405-.187h0a.315.315,0,0,1,.187.4l-.281.763A.316.316,0,0,1,784.667,2094.6Z"/><rect class="r" width="2.068" height="1.341" transform="translate(780.582 2100.672) rotate(20.217)"/><rect class="r" width="2.068" height="1.341" transform="translate(781.466 2098.455) rotate(20.217)"/><path class="s" d="M875.738,2142.51H770.708a2.335,2.335,0,0,1-2.523-2.3v-1.574l11.5-21.244a3.661,3.661,0,0,1,3.277-2.032h80.375c1.5,0,4.807,2.954,5.478,4.3l9.484,19.335v.694A2.5,2.5,0,0,1,875.738,2142.51Z"/><path class="t" d="M875.748,2140.286H770.718c-1.167,0-3.087-1.023-2.365-2.28l11.338-22.839a3.661,3.661,0,0,1,3.278-2.032h80.374a3.96,3.96,0,0,1,3.542,2.19l11.224,22.46C878.9,2139.217,877.027,2140.286,875.748,2140.286Z"/><rect class="t" width="86.012" height="54.35" rx="3.145" transform="translate(779.675 2058.746)"/><rect class="s" width="79.376" height="47.095" transform="translate(782.977 2061.71)"/><path class="s" d="M838.457,2139.3H807.509a.558.558,0,0,1-.551-.646l1.3-8.152a.906.906,0,0,1,.9-.763h27.914a.8.8,0,0,1,.788.681l1.2,8.2A.6.6,0,0,1,838.457,2139.3Z"/><path class="s" d="M864.841,2128.055H780.754c-.933,0-1.645-.358-1.5-.754l3.546-9.517c.191-.513,1.222-.891,2.432-.891h75.843c1.075,0,1.987.339,2.142.8l3.25,9.57C866.6,2127.681,865.831,2128.055,864.841,2128.055Z"/><rect class="t" width="87.689" height="0.443" transform="translate(779.016 2118.533)"/><rect class="t" width="87.689" height="0.443" transform="translate(779.016 2120.748)"/><rect class="t" width="87.689" height="0.443" transform="translate(779.016 2123.405)"/><rect class="t" width="87.689" height="0.443" transform="translate(779.016 2125.841)"/><rect class="t" width="0.664" height="14.615" transform="translate(789.635 2115.005) rotate(17.439)"/><rect class="t" width="0.664" height="14.615" transform="translate(796.057 2115.005) rotate(17.439)"/><rect class="t" width="0.664" height="14.615" transform="translate(801.15 2115.005) rotate(17.439)"/><rect class="t" width="0.664" height="14.615" transform="translate(806.243 2115.005) rotate(17.439)"/><rect class="t" width="0.664" height="14.615" transform="translate(811.558 2115.005) rotate(17.439)"/><rect class="t" width="0.664" height="14.615" transform="translate(816.95 2114.84) rotate(10.978)"/><rect class="t" width="0.664" height="14.615" transform="translate(821.531 2114.769)"/><rect class="t" width="0.664" height="14.615" transform="translate(855.894 2115.204) rotate(-17.439)"/><rect class="t" width="0.664" height="14.615" transform="translate(849.694 2115.204) rotate(-17.439)"/><rect class="t" width="0.664" height="14.615" transform="translate(843.493 2115.204) rotate(-17.439)"/><rect class="t" width="0.664" height="14.615" transform="translate(837.293 2115.204) rotate(-17.439)"/><rect class="t" width="0.664" height="14.615" transform="translate(831.093 2115.204) rotate(-17.439)"/><rect class="t" width="0.664" height="14.615" transform="translate(824.893 2115.204) rotate(-17.439)"/><path class="u" d="M1075.407,2291.855s4.7,22.712.786,25.325c-7.008,4.738-34.862,21.2-2.32,12.411,17.15-2.3,15.165-5.84,14.8-9.1-.3-2.664-2.269-22.941-2.981-30.271-.16-1.642-.256-2.635-.256-2.635Z"/><path class="v" d="M1088.229,2303.26c-.094-1.531-11.456,4.418-13.281,2.6,0,0,2.907,8.477,1.942,9.924s-21.273,9.958-19.624,16.161,30.013-4.48,32.079-5.038S1088.415,2306.269,1088.229,2303.26Z"/><path class="u" d="M1120.614,2294.421s-1.775,23.125,2.437,25.22c7.553,3.809,37.273,16.6,3.878,12.016-17.3-.1-15.784-3.866-15.838-7.147-.044-2.68-.663-23.043-.889-30.405-.05-1.649-.081-2.646-.081-2.646Z"/><path class="w" d="M1142.762,2096.27a6.671,6.671,0,0,1-3.894,1.493c-8.89-.412-47.281-2.286-68.005-4.855-7.311-.907-12.423-1.9-13.263-2.949a.8.8,0,0,0,0,.085c-.022,1.15-.23,14.321-.443,31.59-.42,34.088-.839,84.144.211,89.19a25.963,25.963,0,0,0,3.358,8.266l8.263,77.2,22.263.189s-2.57-11.844-3.761-33.77c-.327-6.012-1.361-14.4-1.036-21.255l0-.036c.784-16.546,1.858-34.939,3.07-52.287l0-.036c2.447-35.046,5.46-65.818,7.791-68.434,2.835-3.183,5.958,42.336,7.827,87.953.486,12,.894,24.016,1.177,35.146.174,6.637.3,12.962.385,18.787a200.437,200.437,0,0,1-2.3,34.8l22.706,1.5s2.336-36.9,5.086-79.125c2.368-4.2,2.656-11.289,3.068-11.915C1135.811,2206.985,1142.762,2096.27,1142.762,2096.27Z"/><path class="c" d="M1063.6,2192.59c-.228-.181-.3-.559.1-.528a.725.725,0,0,1-.678-.3c.27.021.209-.211.2-.357-.2.107-.242.27-.326.595.568.332-.36.909.272,1.222C1063.311,2193.024,1063.734,2192.847,1063.6,2192.59Z"/><path class="c" d="M1065.446,2191.363l-.158-.054.223.526C1065.385,2191.724,1065.255,2191.367,1065.446,2191.363Z"/><path class="x" d="M1065.136,2189.685c.291.069.481-.177.751-.15-.594-.038-.089-.415-.146-.644l-.447-.129c-.347.188-.248.751-.327,1.213Z"/><path class="c" d="M1065.506,2189.294l-.28-.171C1065.294,2189.252,1065.315,2189.539,1065.506,2189.294Z"/><path class="c" d="M1063.881,2189.479c-.068.364.213-.206.28.172C1064.094,2189.521,1064.083,2189.375,1063.881,2189.479Z"/><path class="x" d="M1064.926,2188.026c.049.265.09.529.144.794l.227-.3Z"/><path class="x" d="M1065.9,2188.074a.2.2,0,0,1-.338.085c.387-.242-.1-.461.228-.688l.129.26c.381,0-.336-.549.334-.469-.439-.379-.6.194-.89-.271a1.57,1.57,0,0,1-.246,1.036c.147-.086.126-.129.252-.258-.005.245.167.591.183.878C1066,2188.533,1065.627,2188.288,1065.9,2188.074Z"/><path class="x" d="M1066.116,2186.859c.059-.257.121-.655-.379-.782-.39.236.03.332.229.478-.091.071-.152.328-.408.194C1065.671,2186.722,1065.912,2186.957,1066.116,2186.859Z"/><path class="x" d="M1066.319,2185.848l-.428-.242.062.132-.324-.023c.077.031.654.189.587.445C1066.478,2186.052,1066.19,2185.973,1066.319,2185.848Z"/><path class="x" d="M1064.1,2185.53c.243-.154.123-.274.021-.5.01.292-.052.7.123.806l-.077-.032a2.521,2.521,0,0,0,.495.52C1064.383,2186,1064.917,2185.536,1064.1,2185.53Z"/><path class="x" d="M1064.017,2185.892l-.237-.239Z"/><path class="x" d="M1066.307,2185.031l-.194.38.149-.081Z"/><path class="x" d="M1064.892,2185.347c.1-.316-.376.135-.33-.168-.041-.089-.04.449.17.5C1064.824,2185.607,1064.511,2185.337,1064.892,2185.347Z"/><path class="x" d="M1066.373,2184.776l-.3-.37Z"/><path class="x" d="M1066.693,2183.987l-.232-.1c.243-.289-.032-.762.516-.919-.3.012-.592-.218-.72.048.152.065.135.165.326.174-.075.111-.285.058-.379.126.233.24-.009.53.2.726-.04-.087.017-.1.053-.155.371.4-.661.331.014.573C1066.278,2184.313,1066.772,2184.162,1066.693,2183.987Z"/><path class="x" d="M1065.053,2183.8l-.129.271c-.307-.129.032-.348-.255-.433-.191-.008-.319.264-.435.143.744.132-.013.393.843.354.051.378-.473.054-.479.447l.386.159C1064.836,2184.286,1065.192,2184.256,1065.053,2183.8Z"/><path class="x" d="M1065.32,2182.726l.264-.1-.36.024c.024-.641,1.52-.791,1.378-1.2-.4-.544.373-.869.376-1.356-.266-.284-.213.194-.4.187-.58-.164.347-.175-.12-.365-.423-.1-.539.416-.83.581.032.19.166.209.4.3-.245.008-.347.18-.593.188.276.428-.389.528-.086.953-.343.068-.019-.287-.087-.171l-.024.2.056-.013c.294.324-.084.786-.329.934.13-.123.414-.182.494,0l-.4.082.5.43C1065.231,2183.084,1066.007,2182.877,1065.32,2182.726Z"/><path class="x" d="M1064.583,2183.024c-.26.4.572.027.331.466l.03-.493Z"/><path class="c" d="M1065.822,2181.145l.291-.166C1065.566,2181.008,1066.222,2181.445,1065.822,2181.145Z"/><path class="c" d="M1065.939,2180.379l.468.188-.244-.24Z"/><path class="x" d="M1066.638,2179.781c-.219-.2-.459-.046-.428.144C1066.256,2179.766,1066.483,2179.718,1066.638,2179.781Z"/><path class="x" d="M1066.888,2181.956a.286.286,0,0,1-.033.12Z"/><path class="x" d="M1066.909,2181.877l-.021.079A.255.255,0,0,1,1066.909,2181.877Z"/><path class="x" d="M1065.74,2190.353a.382.382,0,0,1,.017.166l-.02-.164Z"/><path class="x" d="M1065.045,2190.493c-.291-.313.762-.255.573-.741a5.321,5.321,0,0,1,.119.6C1065.226,2190.587,1065.493,2190.127,1065.045,2190.493Z"/><path class="x" d="M1064.815,2186.508c-.006-.006-.006-.011-.013-.018C1064.788,2186.46,1064.8,2186.476,1064.815,2186.508Z"/><path class="c" d="M1065.37,2203.279l.135,0-.161.267Z"/><path class="c" d="M1065.613,2203.233l.241-.448c.053.864.125,1.728.206,2.59l-.192-.073C1065.62,2205.352,1065.817,2203.147,1065.613,2203.233Z"/><path class="c" d="M1065.4,2203.117c-.568-.232.188-.428-.219-.725.272.2.569.334.435.539Z"/><path class="y" d="M1064.284,2202.283c.107-.145-.137-.3-.056-.387C1064.66,2201.932,1064.337,2202.16,1064.284,2202.283Z"/><path class="x" d="M1062.634,2201.952a.107.107,0,0,1-.006-.066.51.51,0,0,0,.082.066Z"/><path class="x" d="M1062.71,2201.952l.194,0A.163.163,0,0,1,1062.71,2201.952Z"/><path class="x" d="M1062.628,2201.886a.808.808,0,0,0-.208-.159l-.028.062c-.053-.083-.213-.227-.1-.27-.03.167.1.166.376.164l.03-.269C1063.338,2201.448,1062.664,2201.646,1062.628,2201.886Z"/><path class="y" d="M1062.456,2201.042l.374.268C1062.478,2201.394,1062.455,2201.145,1062.456,2201.042Z"/><path class="x" d="M1062.867,2200.627c.107.063.076.331.241.165.073.043.059.095.059.15C1063.075,2200.763,1062.645,2200.941,1062.867,2200.627Z"/><path class="x" d="M1063.167,2200.942a.185.185,0,0,1,.02.077A.12.12,0,0,1,1063.167,2200.942Z"/><path class="y" d="M1064.859,2203.738a.151.151,0,0,1,.14-.023Z"/><path class="x" d="M1063.253,2200.072v-.1a.253.253,0,0,0,.02.082Z"/><path class="x" d="M1067.088,2208.291a1.371,1.371,0,0,0-.1-1.176c-.458.047-.144-.192-.63-.185a4.853,4.853,0,0,1-.2-.725c-.136-.5-.3-1.011-.393-.8l.219.112-.489-.1c.107-.26.471-.626.184-.781.147-.056.151,2.144.293,2.05-.555.238-.725-2.9-.967-2.975l.292-.049c-.327-.376-.76-.611-.978-.935l.351-.087c-.107.246.137.3.3.543-.083-.425.133-.51.05-.833-.459.027-.215.288-.487-.115.188-.125.7.132.593-.231.108-.447-.564-.339-.614-.727l-.166.266c-.025-.142-.129-.408.116-.551a.64.64,0,0,0,.695.545c-.106-.161.061-.527.036-.668l.323.08c.3-.162-.158-.242.115-.444-.186-.182-.461.121-.595.019.109-.04.276-.4.062-.526-.677.1.21.425-.443.668l.114-.346c-.673-.205.019.55-.52.448-.7-.247.656-.549-.232-.777-.165.162-.172.674-.415.613.248-.185-.231-.307-.322-.557l.308-.306c-.215-.125-.216-.023-.352.079.386-.448-.07-1.2.409-1.823-.1-.373-.3-.049-.533-.22.409-.2.074-.533.086-.739.03-.061-.369-.178-.534-.122l.243.525c-.216-.027-.57.046-.522.234.788-.125-.484.736.407.776l-.406-.008.276.669.054-.02c-.133,0,.275.562.111.932-.136-.1.016-.724-.427-.356-.234-.273.133-.766-.039-1.266l-.274.1c-.388-.529.12-1.225.047-1.809l.37.179c.146-.2.457-.459.143-.658.014.249-.2.117-.356.069-.2-.341.041-.83-.09-1.294a.271.271,0,0,0,.135.007l-.209-.49c.071-.226.293-.3.546-.426-.048-.086-.033-.294-.255-.224-.023.044-.045.088-.025.119-.4-.261.127-.166-.111-.481.334.25.492-.052.841-.008-.137-.361-.619-.061-.778-.113.219-.423.521-.464.616-.892-.214-.037-.164.3-.41.323.065-.12.052-.266-.027-.293l-.187.258a1.586,1.586,0,0,0,.236-1.378l-.112.032.029-.31.394.137c-.092-.174.275-.329-.04-.44l-.033.06-.115-.219.384.242c.184-.253-.6-.677-.505-1.107.549-.052.132.762.827.866.124-.134.259-.369.08-.469-.191,0-.2.1-.214.208-.335-.405.294-.925-.3-1.213l-.247.267c-.044-.339.707-.49.316-.635l.671.319c-.314-.364-.211-.789-.436-1.126-.4-.045-.033.455-.111.425l-.276-.176c.279-.469.261-.118.554-.687l-.269-.032c.43-.157-.307-.766.393-.494l-.183.144.325.018-.153-.7c.234.092.2-.245.508-.122l-.26-.283c.471-.063.5.521.847.584.212.013.2-.107.173-.168.31.336-.5.4-.544.7l.276.178-.4-.048a.994.994,0,0,0,.474.324c-.576.243.051.623-.11,1.057-.2-.391-.4.2-.5.132-.023.2.648.766.143.9-.2.1-.268-.273-.381.005a.3.3,0,0,0,.437.227,6.273,6.273,0,0,1-.059,1.352l-.26-.125c-.242.269.11.566.394.731-.112.032-.033.059-.19.006-.466.335.523.491.388,1.073.381-.015.432-.276.26-.471l.428.071a2.758,2.758,0,0,0-.24-1.506l.306.21c.6-.315-.544-.292.138-.579-.135-.257-.236.163-.4-.036.137-.165.741.1.791-.191.145,1.1.025,2.338.058,3.482.079.025.111-.034.142-.092.288.209-.009,1.085-.2,1.937s-.32,1.672.25,1.727c-.165.056-.347-.13-.329.112a.492.492,0,0,0,.351.03c-.613.609.027,1.428-.367,2.167.189-.018.295.143.43.144-.436.259.044.683-.2.924l.217-.081.016.744c.081.02.082-.081.11-.142.106.16-.138.2-.327.224l.485.316c-.752,1,.518,2.152.095,3.285.382.145.548.277.608.554l.1-.145c.331.264-.188.029-.021.261.247.147.568.012.346-.2.12-.147.254-.07.351.023A3.634,3.634,0,0,1,1067.088,2208.291Z"/><path class="v" d="M1109.073,2307.345c-.1-1.531,11.924,2.927,13.5.892,0,0-1.807,8.777-.666,10.09s22.366,7.174,21.518,13.537-30.339-.631-32.46-.922S1109.27,2310.353,1109.073,2307.345Z"/><g class="z"><path d="M1107.221,2096.014l.43-.007S1107.5,2096.008,1107.221,2096.014Z"/><path d="M1107.221,2096.014c-11.488.158-36.358-3.106-36.358-3.106-7.311-.907-12.423-1.9-13.263-2.949a.8.8,0,0,0,0,.085c-.022,1.15-.23,14.321-.443,31.59a8.529,8.529,0,0,0,1.21-.06,9.371,9.371,0,0,0,6.332-3.9,20.81,20.81,0,0,0,2.676-4.756C1076.966,2097.271,1103.538,2096.1,1107.221,2096.014Z"/></g><path class="aa" d="M1086.458,2241.417c0-.06,0-.115.006-.175.25-5.349-2.6-24.565-2.6-24.565,3.4-3.74,5.568-26.493,5.668-27.547C1088.316,2206.478,1087.242,2224.871,1086.458,2241.417Z"/><path class="aa" d="M1113.7,2224.854s-6.162,5.8-7.371,18.905c-.283-11.13-.691-23.141-1.177-35.146C1106.928,2214.435,1110.2,2223.471,1113.7,2224.854Z"/><path class="ab" d="M974.744,2142.79c-.719.792-10.892,8.023-13.714,13.125s-6.53,12.955-8.514,15.357c-2.334,2.827-1.409,4.205,1.642,1.107a57.2,57.2,0,0,0,6.111-7.416c.255-.523-1.729,2.737-4.161,6.16-2.585,3.639-5.617,7.486-4.991,8,1.213.992,9.378-9.174,10.488-11.11a55.816,55.816,0,0,1-3,5.071c-1.488,2.229-3.559,4.623-3.3,5.388.414,1.2,5.488-3.853,8.4-8.593.2-.016-.257,1.726-4.094,7.124-.386.542-.792,2.176.969.618,3.705-3.279,5.541-4.415,8.341-10.295,2.73-5.733,4.347-12.673,7.582-16.24Z"/><path class="ac" d="M943.874,2159.514l13.921,19.645a2.459,2.459,0,0,0,3.446.635l8.915-6.51a.731.731,0,0,0,.087-.07,2.528,2.528,0,0,0,.422-3.438l-13.921-19.645a2.455,2.455,0,0,0-3.445-.632l-8.322,6.076-.594.431A2.528,2.528,0,0,0,943.874,2159.514Z"/><path class="ad" d="M944.325,2159.129l14.048,19.581a2.539,2.539,0,0,0,3.544.582l8.684-6.259a2.534,2.534,0,0,0,.49-3.472l-14.048-19.581a2.539,2.539,0,0,0-3.544-.582l-8.684,6.259A2.533,2.533,0,0,0,944.325,2159.129Z"/><path class="s" d="M945.814,2159.176l12.133,16.911a2.192,2.192,0,0,0,3.061.5l7.5-5.406a2.188,2.188,0,0,0,.423-3L956.8,2151.274a2.194,2.194,0,0,0-3.062-.5l-7.5,5.405A2.19,2.19,0,0,0,945.814,2159.176Z"/><circle class="ae" cx="0.848" cy="0.848" r="0.848" transform="translate(964.704 2174.099)"/><path class="ab" d="M964.126,2152.515s-6.7,2.427-9.7,7.139c-1.781,2.8-2.506,2.4-2.957,2.812-1.493,1.372,2.384,1.11,4.312-1.086,1.568-1.786,5.619-1.39,6.918-2.307s4.313-4.042,4.233-5.187S964.126,2152.515,964.126,2152.515Z"/><path class="af" d="M1175.751,2039.948c-.408,3.107-3.7,14.539-8.08,26.912-1.3,3.694-2.7,7.463-4.145,11.127-1.76,4.464-3.591,8.758-5.408,12.537-3.524,7.324-6.007,6.952-8.787,7.865-9.363,3.068-78.93.009-92.643-7.679-.314-.27-.654-.559-.975-.875-5.027-4.673-10.846-4.272-13.375-12.466,0-.009-6.624-23.487-7.976-28.267-.016-.047-.022-.084-.038-.122-.043-.187-.1-.366-.149-.535-.014-.066-.038-.123-.052-.188-10.5,28.7-37.548,91.461-57.336,110.6-2.077,2.01-10.2-10.571-10.2-10.571s-14.367-82.393,29.85-161.1c20.813-37.048,59.156-47.842,80.3-51.1,9.153-1.414,15.935-.57,18.28,1.741a13.534,13.534,0,0,0,8.217,3.833,18.294,18.294,0,0,0,4.763-.119,23.543,23.543,0,0,0,5.132-1.375c.795-.307,1.261-.534,1.261-.534a49.1,49.1,0,0,1,12.7,1.6C1173.637,1953.583,1176.622,2033.177,1175.751,2039.948Z"/><path class="ag" d="M1034.128,2048.257c.014.066.038.123.052.188.053.169.106.348.149.535.016.038.022.075.038.122,1.352,4.781,7.977,28.258,7.977,28.267,2.528,8.2,8.347,7.793,13.375,12.466-2.745-13.3-12.107-42.574-10.669-57.8C1041.933,2046.6,1034.128,2048.248,1034.128,2048.257Z"/><path class="ag" d="M1167.671,2066.86c-1.3,3.694-2.7,7.463-4.145,11.127-1.76,4.464-3.591,8.758-5.408,12.537-24.837-34.072-7.229-77.008-7.229-77.008s8.881,38.87,8.929,39.951C1159.829,2053.855,1163.256,2059.6,1167.671,2066.86Z"/><path class="ab" d="M1227.268,2166.857c.43.813,7.355,9,8.615,13.85s2.673,12.176,3.812,14.6c1.339,2.85.275,3.8-1.6.571a49.155,49.155,0,0,1-3.505-7.477c-.1-.489.856,2.647,2.149,6.015,1.376,3.58,3.079,7.429,2.449,7.721-1.222.567-5.849-9.637-6.36-11.485a47.871,47.871,0,0,0,1.413,4.86c.763,2.173,1.976,4.608,1.594,5.188-.6.914-3.746-4.377-5.159-8.944-.165-.056-.154,1.492,1.889,6.8.2.534.194,1.98-.939.308-2.385-3.52-3.67-4.857-4.746-10.348-1.05-5.355-.915-11.477-2.848-15.135Z"/><path class="ab" d="M1235.01,2178.414s5.059,3.45,6.548,8.011c.885,2.711,1.574,2.531,1.861,2.971.951,1.46-2.221.416-3.358-1.824-.923-1.821-4.38-2.355-5.265-3.4s-2.728-4.284-2.417-5.22S1235.01,2178.414,1235.01,2178.414Z"/><path class="af" d="M1156.218,1991.719s-56.077-50.73-41.82-52.083,36.973,5.72,36.973,5.72c20.533,6.01,45.933,17.159,61.7,56.621,33.486,83.838,19.6,168.219,19.6,168.219s-9.793,11.474-11.5,9.139c-31.615-43.338-50.966-86.026-58.446-114.381S1156.218,1991.719,1156.218,1991.719Z"/><path class="ah" d="M1106.451,1930.012s-2.639,8.4,4.774,15.982-17.508,3.1-17.508,3.1,5.653-11.915,5.068-19.59S1106.451,1930.012,1106.451,1930.012Z"/><ellipse class="u" cx="17.771" cy="13.025" rx="17.771" ry="13.025" transform="translate(1090.21 1933.478) rotate(-86.223)"/><path class="w" d="M1066.658,2089.028c6.424,13.114,65.229,14.095,72.324,4.775,0,0,27.787-55.679,24.045-72.623,0,0-13.914,1.47-29.744,4.378-17.652,3.237-37.679,8.27-43.415,15.049-6.518,7.7-15.865,18.848-20.928,29.369,0,.007,0,.007-.008.013-.474.993-.913,1.982-1.309,2.96s-.737,1.924-1.042,2.873v.021C1065.04,2080.711,1064.81,2085.251,1066.658,2089.028Z"/><path class="w" d="M1138.894,1942.216s29.282,25.3,23.356,92.4l-9.313,2.335s8.132-66.977-20.433-96.021C1132.5,1940.928,1135.6,1939.2,1138.894,1942.216Z"/><path class="ai" d="M1068.932,2069.989c-.173.633-.344,1.237-.507,1.808,8.2-10.064,39.144-5.612,39.144-5.612,2.505-25.358,25.714-40.627,25.714-40.627-17.652,3.237-37.679,8.27-43.415,15.049-6.518,7.7-15.865,18.848-20.928,29.369C1068.94,2069.983,1068.94,2069.983,1068.932,2069.989Z"/><path class="aj" d="M1142.365,2050.783c1.511-.929,2.8-2.149,4.107-3.123l-1.555,1.168a7.175,7.175,0,0,0,1.852-2.116c-.488-.108-.773.549-1.239.244a24.136,24.136,0,0,0-4.416,5.557C1142.6,2052.817,1141.86,2051.18,1142.365,2050.783Z"/><path class="aj" d="M1148.4,2044.532c-.194.145-.379.291-.558.439A1.366,1.366,0,0,0,1148.4,2044.532Z"/><path class="aj" d="M1127.989,2058.473a3.516,3.516,0,0,0-.62.558A2.514,2.514,0,0,0,1127.989,2058.473Z"/><path class="aj" d="M1138.109,2050.694a2.268,2.268,0,0,0-.472.126q-1.053,1.265-2.026,2.647C1136.363,2052.5,1137.656,2051.988,1138.109,2050.694Z"/><path class="aj" d="M1138.206,2049.059a6.877,6.877,0,0,0,2-2.751A12.522,12.522,0,0,1,1138.206,2049.059Z"/><path class="aj" d="M1117.813,2062.517a.45.45,0,0,0-.247-.069.338.338,0,0,1-.164.027c-.127.523-.226,1.06-.327,1.586.107-.09.336-.109.4-.221C1117.594,2063.263,1117.209,2062.919,1117.813,2062.517Z"/><path class="aj" d="M1128.208,2058.255l.062.012.235-.17,0-.047A1.332,1.332,0,0,0,1128.208,2058.255Z"/><path class="aj" d="M1118.079,2061.912a2.628,2.628,0,0,1-.448-.324l-.227.881a.808.808,0,0,1,.162-.021C1117.781,2062.343,1117.753,2061.98,1118.079,2061.912Z"/><path class="aj" d="M1120.357,2055.431c.121-.144.543-.04.676-.05a6.856,6.856,0,0,1,.37-1.639c.135-.007.259-.147.529-.158a2.583,2.583,0,0,1-.123-.521q-.555.753-1.074,1.574c-.352.536-.689,1.106-1.013,1.7A5.73,5.73,0,0,0,1120.357,2055.431Z"/><path class="aj" d="M1116.6,2085a12.558,12.558,0,0,0-.249-2.492,3.092,3.092,0,0,1,.518-2.436c.5,1.829.882,4.233,2.642,4.324.876.048.869-.49.667-1.211a7.415,7.415,0,0,1-.467-2.3l.35.35c-.175-.172-.35-.351-.138-.488.355.355.651,1,1.236,1.184l.413-.273a5.635,5.635,0,0,1,1.448,1.495,4.112,4.112,0,0,0,1.53,1.309,6.191,6.191,0,0,1-2.492-6.4,23.272,23.272,0,0,1,2.634-6.922,12.948,12.948,0,0,1,6.721-4.616,4.526,4.526,0,0,0,1.147-1.757,11.3,11.3,0,0,1,3.313-2.228c2.3-1.537,3.416-4.116,5.772-6.083.469-.382-.071-2.2-1.527-1.509a8.3,8.3,0,0,0-3.267,2.115c.49.265.673-.393,1.163-.311a6.676,6.676,0,0,1-1.5,2.156c.432-.414.88-.82,1.331-1.225-1.136,1.011-2.181,2.28-3.456,3.318-.427.432.6,1.9-.87,1.775a17.324,17.324,0,0,1,3.331-5.713l-.037-.02c.738-.675,1.34-1.362,2.053-2.031a1.577,1.577,0,0,0-.684.56,14.126,14.126,0,0,1,2.622-3.438,13,13,0,0,0-5.231,3.61c-1.473,1.533-2.752,3.2-4.254,4.547,0-1.455,1.958-1.771,1.79-3.236a24.745,24.745,0,0,0-3.252,4.577,2.157,2.157,0,0,1,.432-.19,3.464,3.464,0,0,1-.783,1.613,7.7,7.7,0,0,0-1.021,1.42l-.12.286a2.835,2.835,0,0,1,.12-.286,26.71,26.71,0,0,1,1.372-2.843,2.472,2.472,0,0,0-1,1.224,2.65,2.65,0,0,1,.174-1.437c.351-.524.7-1.047,1.051-1.566a8.393,8.393,0,0,1-2.263,1.814,21.632,21.632,0,0,1,1.969-3.585c-.512.54-1.039,1.07-1.534,1.625-.606,1.1-1.2,2.207-1.775,3.325l.107-.1-.173.228q-.346.65-.695,1.3a3.266,3.266,0,0,1-1.115.873l-.116.189c.216-.041.4-.016.345.261-.109,1.221-1.427,1.95-1.336,3.426a1.928,1.928,0,0,1-.553,1.166c.067.172-.032.207-.174.219l-.209.265a2.16,2.16,0,0,1-.412.686,3.7,3.7,0,0,1,.412-.686,2.759,2.759,0,0,1,.144-.261c-.159.009-.347.012-.412.145a23.612,23.612,0,0,1,2.2-5.221c-.178.033-.379.111-.493.127l.609-.316a11.9,11.9,0,0,1,1.109-1.509,1.552,1.552,0,0,1-.642.207,21.218,21.218,0,0,1,3.184-4.325,41.986,41.986,0,0,1,2.684-4.329,9.127,9.127,0,0,1-1.15,2.7,40.765,40.765,0,0,0,5.018-5.751,7.783,7.783,0,0,1-2.294-.3c-.271-.287.227-.981-.282-.792-2.043.533-2.2,2.153-4.329,1.25-.557-.284-.668-3.255-1.448-3.048a13.388,13.388,0,0,0-2.232,1.717,8.5,8.5,0,0,1-.586.851c0,.06-.139.038-.307.021a11.265,11.265,0,0,0-1.914,2.448l-.326.676a1.35,1.35,0,0,0,.192.54,1.765,1.765,0,0,0-.551.17c-.293.606-.6,1.188-.909,1.762-.041.408-.057.826-.116,1.209-.112-.081-.237-.229-.389-.246l-1.145,2.144a2.526,2.526,0,0,0,.26,1.173c-1.495.167-1.787,2.327-2.506,3.547l-.041-.021c-.29.652-.541,1.334-.79,2.023a2.543,2.543,0,0,0,.261.471c-.261.091-.337.266-.464.315a7.192,7.192,0,0,0,.119,1.707c-.129.049-.558.084-.626.265a5.862,5.862,0,0,1-.335,1.073c-.09.418-.149.853-.2,1.293a17.563,17.563,0,0,0-.142,2.222,19.167,19.167,0,0,0,.088,2.21,2.681,2.681,0,0,0,.532.148c-.281.18-.138.51-.3.688a.432.432,0,0,1,.253-.023c-.4.6.067.784.169,1.369-.021.128-.228.232-.3.356.013.065.022.129.039.2.843.718.506,1.327.517,2.056.239.726.438,1.436.722,2.132C1115.623,2084.489,1116.206,2084.66,1116.6,2085Z"/><path class="aj" d="M1117.039,2064.254c-.131.686-.209,1.4-.3,2.082C1117.02,2065.672,1117.531,2065.213,1117.039,2064.254Z"/><path class="aj" d="M1126.366,2048.715a2.525,2.525,0,0,1,0-1.175c-1.092,1.25-2.2,2.5-3.278,3.845l.033.03C1124.134,2050.47,1124.9,2048.5,1126.366,2048.715Z"/><path class="aj" d="M1117.566,2062.448a.808.808,0,0,0-.162.021l0,.006A.338.338,0,0,0,1117.566,2062.448Z"/><path class="aj" d="M1133.859,2051.741l.094-.113q-.486.3-.943.633A2.556,2.556,0,0,0,1133.859,2051.741Z"/><path class="aj" d="M1136.4,2048.628l1.817-1.385a8.691,8.691,0,0,0,1.543-2.555C1138.6,2045.941,1137.5,2047.279,1136.4,2048.628Z"/><path class="aj" d="M1128.216,2046.1c.126-.352.216-.752.33-1.122l-.658.8C1128.03,2045.824,1128.122,2045.993,1128.216,2046.1Z"/><path class="aj" d="M1131.382,2053.678l.162-.16-.676.173C1130.985,2053.7,1131.2,2053.67,1131.382,2053.678Z"/><path class="aj" d="M1130.152,2042.885l-.45.611a1.746,1.746,0,0,1,.555-.054A1.373,1.373,0,0,1,1130.152,2042.885Z"/><path class="aj" d="M1133.018,2040.33a7.045,7.045,0,0,0,.658-.718c-.319.216-.642.449-.956.689C1132.879,2040.345,1133.014,2040.39,1133.018,2040.33Z"/><path class="ag" d="M1101.349,1947.213c1.287,1.469,4.328,4.723,7.089,5.053a3.186,3.186,0,0,0,2.888-1.109c2.754-3.073,7.444-5.253,11.888-6.506,1.425-.4,1.629-1.145,1.243-1.967a10.556,10.556,0,0,0-3.233-3.151c-6.566-.21-11.063.568-12.524,1.74a.654.654,0,0,0-.167.19,27.235,27.235,0,0,1-5.848,1.562C1101.431,1944.69,1100.558,1946.31,1101.349,1947.213Z"/><path class="w" d="M1005.215,2050.129s12.168,19.106,17.216,20.22,51.5,15.75,71.424-38.587c8.335-22.727,8.465-42.487,3.4-61.882a41.344,41.344,0,0,1-.934-14.25,36.74,36.74,0,0,1,1.663-8.177,7.779,7.779,0,0,1,.652-1.467,18.1,18.1,0,0,1-2.771-.14c-2.724-.274-6.094-.832-6.094-.832a27.834,27.834,0,0,0-5.873,6.637c-3.51,5.334-6.988,13.924-5.344,25.923C1084.987,2024.539,1038.574,2054.214,1005.215,2050.129Z"/><path class="aa" d="M1096.32,1955.63c-2.655-1.219-7.968-3.612-12.423-3.979a27.834,27.834,0,0,1,5.873-6.637s3.37.558,6.094.832l2.119,1.607Z"/><path class="w" d="M1108.111,1938.343s-8.1,4.069-11.758.318-6.028-4.226-7.917-1.617-4.954,12.647,5.673,12.862,12.956,6.548,18.7.062S1116.583,1936.506,1108.111,1938.343Z"/><path class="v" d="M1100.166,1906.1s21.677,13.961,16.321-6.51C1112.781,1885.43,1085.409,1896.16,1100.166,1906.1Z"/><path class="v" d="M1103.743,1901.533s-13.082,6.639-12.362,14.213c0,0-1.3-22.556,11.255-22.292s17.322,1.792,14.649,25.376C1117.285,1918.83,1114.89,1899.771,1103.743,1901.533Z"/><path class="v" d="M1105.843,1895.442c1.674,2.627,29.3-34.993-1.819-47.786-28.19-11.59-53.68,5.768-62.6,27.106-7.782,18.614-12.391,42.093,20.428,91.24,13.187,30.391,6.81,38.8,6.81,38.8s27.209-42.957,10.625-72.756S1093.556,1876.16,1105.843,1895.442Z"/><path class="t" d="M842.276,2085.921h0a1.688,1.688,0,0,1-1.752,1.615H805.2a1.688,1.688,0,0,1-1.752-1.615h0a1.689,1.689,0,0,1,1.752-1.616h35.328A1.689,1.689,0,0,1,842.276,2085.921Z"/><path class="v" d="M829.907,2084.3l-.1,3.231H805.2a1.688,1.688,0,0,1-1.752-1.615h0a1.689,1.689,0,0,1,1.752-1.616Z"/></g></svg>