<svg xmlns="http://www.w3.org/2000/svg" width="342.839" height="492.622" viewBox="0 0 342.839 492.622"><defs><style>.fff{fill:#fff;}.a,.b,.c,.d,.e,.f,.g,.h,.i,.j,.k{fill:none;stroke-miterlimit:10;}.a,.b,.c,.d,.e,.f,.g,.h{stroke:#942222;}.a,.k{stroke-width:0.5px;}.b{stroke-width:0.616px;}.c{stroke-width:0.857px;}.d,.i{stroke-width:0.75px;}.e{stroke-width:0.631px;}.f{stroke-width:0.763px;}.h,.j{stroke-width:0.25px;}.i,.j,.k{stroke:#fff;}</style></defs><g transform="translate(-130.696 -173.308)"><g transform="translate(139.318 173.558)"><circle class="a" cx="14.824" cy="14.824" r="14.824"/><circle class="b" cx="18.251" cy="18.251" r="18.251" transform="translate(73.912 47.013)"/><circle class="c" cx="25.407" cy="25.407" r="25.407" transform="translate(13.082 37.812)"/></g><g transform="translate(326.414 176.258)"><circle class="a" cx="14.824" cy="14.824" r="14.824" transform="translate(3.115)"/><circle class="b" cx="18.251" cy="18.251" r="18.251" transform="translate(77.027 47.013)"/><circle class="c" cx="25.407" cy="25.407" r="25.407" transform="translate(16.197 37.812)"/><path class="d" d="M299.04,202.025a61.858,61.858,0,0,0,6.374,33.22" transform="translate(-289.309 -169.963)"/><path class="d" d="M292.726,187.192a5.85,5.85,0,0,1,3.317-2.928,11.6,11.6,0,0,1,2.944-.466,31.31,31.31,0,0,1,6.417-.017,10.523,10.523,0,0,1,5.808,2.508" transform="translate(-290.652 -174.033)"/><path class="a" d="M301.436,181.515a16.191,16.191,0,0,1-8.782,11.1c-.709.335-1.553.762-1.622,1.544a2.127,2.127,0,0,0,.128.772l1.065,3.6a8.383,8.383,0,0,0,1.8,3.7,1.4,1.4,0,0,0,.639.412,1.716,1.716,0,0,0,.885-.1l6.54-1.97a5.91,5.91,0,0,1,2.617-.372,2.025,2.025,0,0,1,1.779,1.707" transform="translate(-291.028 -174.498)"/><path class="d" d="M317.48,185.909c.828,1.359,1.657,2.717,2.447,4.1,4.568,7.995,8.306,12.478,10,21.529" transform="translate(-285.178 -173.527)"/><path class="d" d="M335.594,209.576c15.7.414,37.1.449,47.012,6.693" transform="translate(-281.172 -168.293)"/><path class="d" d="M325.734,249.49c11.227,4.7,24.409,1.74,34.97-4.311,4.6-2.634,9.121-5.914,14.4-6.406" transform="translate(-283.353 -161.836)"/></g><g transform="translate(132.034 336.553)"><circle class="a" cx="14.824" cy="14.824" r="14.824" transform="translate(5.108 13.537)"/><circle class="b" cx="18.251" cy="18.251" r="18.251" transform="translate(79.02 60.55)"/><circle class="c" cx="25.407" cy="25.407" r="25.407" transform="translate(18.191 51.349)"/><path class="d" d="M141.494,344.377a61.855,61.855,0,0,0,6.373,33.219" transform="translate(-129.769 -298.777)"/><path class="d" d="M135.18,329.544a5.842,5.842,0,0,1,3.317-2.928,11.536,11.536,0,0,1,2.943-.468,31.486,31.486,0,0,1,6.417-.017,10.529,10.529,0,0,1,5.809,2.509" transform="translate(-131.112 -302.848)"/><path class="a" d="M143.89,323.867a16.2,16.2,0,0,1-8.784,11.1c-.708.335-1.553.762-1.62,1.542a2.125,2.125,0,0,0,.127.772l1.065,3.6a8.422,8.422,0,0,0,1.8,3.7,1.434,1.434,0,0,0,.64.412,1.713,1.713,0,0,0,.884-.1l6.54-1.968a5.917,5.917,0,0,1,2.618-.372,2.022,2.022,0,0,1,1.779,1.707" transform="translate(-131.488 -303.313)"/><path class="d" d="M159.933,328.261c.829,1.358,1.658,2.716,2.447,4.1,4.57,7.995,8.306,12.476,10,21.529" transform="translate(-125.638 -302.341)"/><path class="d" d="M178.048,351.927c15.7.415,37.1.449,47.01,6.693" transform="translate(-121.632 -297.108)"/><path class="d" d="M168.188,391.841c11.226,4.7,24.409,1.74,34.97-4.309,4.6-2.635,9.119-5.915,14.4-6.407" transform="translate(-123.813 -290.651)"/><ellipse class="e" cx="5.108" cy="5.232" rx="5.108" ry="5.232" transform="translate(0 31.7)"/><path class="d" d="M138.945,323.421a79.212,79.212,0,0,1,.33-13.291" transform="translate(-130.31 -306.351)"/><path class="d" d="M139.282,310.083l.554-.869c.719-.19,1.36.47,1.79,1.077a28.233,28.233,0,0,1,4.456,9.9" transform="translate(-130.205 -306.561)"/><path class="d" d="M152.388,320.795a42.084,42.084,0,0,1,4.339-12.557c.274-.51.624-1.066,1.191-1.181.974-.2,1.609.982,1.861,1.943a39.258,39.258,0,0,1,.256,18.785" transform="translate(-127.307 -307.035)"/><path class="d" d="M146.984,374.475a9.612,9.612,0,0,0-.131,5.68,16.314,16.314,0,0,0,4.711,8.536,11.11,11.11,0,0,0,9.118,2.9" transform="translate(-128.611 -292.121)"/><ellipse class="f" cx="10.981" cy="11.369" rx="10.981" ry="11.369" transform="translate(36.175 78.801)"/><ellipse class="d" cx="13.448" cy="25.801" rx="13.448" ry="25.801" transform="matrix(0.975, -0.222, 0.222, 0.975, 88.783, 62.629)"/><path class="d" d="M195.113,387.881c-.814,1.96.017,4.179.843,6.134a4.257,4.257,0,0,0,1.943,2.513,4.213,4.213,0,0,0,2.236.066c2.3-.349,4.711-.75,6.542-2.185a13.671,13.671,0,0,0,1.783-1.794,22.636,22.636,0,0,0,4.146-5.883" transform="translate(-117.932 -289.411)"/></g><g transform="translate(322.644 336.553)"><circle class="a" cx="14.824" cy="14.824" r="14.824" transform="translate(5.108 13.537)"/><circle class="b" cx="18.251" cy="18.251" r="18.251" transform="translate(79.02 60.55)"/><circle class="c" cx="25.407" cy="25.407" r="25.407" transform="translate(18.191 51.349)"/><path class="d" d="M297.586,344.377A61.855,61.855,0,0,0,303.96,377.6" transform="translate(-285.86 -298.777)"/><path class="d" d="M291.272,329.544a5.839,5.839,0,0,1,3.315-2.928,11.545,11.545,0,0,1,2.944-.468,31.486,31.486,0,0,1,6.417-.017,10.525,10.525,0,0,1,5.808,2.509" transform="translate(-287.204 -302.848)"/><path class="a" d="M299.981,323.867a16.193,16.193,0,0,1-8.782,11.1c-.708.335-1.553.762-1.62,1.542a2.1,2.1,0,0,0,.127.772l1.065,3.6a8.4,8.4,0,0,0,1.8,3.7,1.427,1.427,0,0,0,.64.412,1.713,1.713,0,0,0,.884-.1l6.54-1.968a5.915,5.915,0,0,1,2.618-.372,2.019,2.019,0,0,1,1.778,1.707" transform="translate(-287.579 -303.313)"/><path class="d" d="M316.025,328.261c.829,1.358,1.658,2.716,2.447,4.1,4.568,7.995,8.306,12.476,10,21.529" transform="translate(-281.73 -302.341)"/><path class="d" d="M334.14,351.927c15.7.415,37.1.449,47.01,6.693" transform="translate(-277.724 -297.108)"/><path class="d" d="M324.279,391.841c11.227,4.7,24.411,1.74,34.97-4.309,4.6-2.635,9.121-5.915,14.4-6.407" transform="translate(-279.905 -290.651)"/><ellipse class="e" cx="5.108" cy="5.232" rx="5.108" ry="5.232" transform="translate(0 31.7)"/><path class="d" d="M295.037,323.421a79.08,79.08,0,0,1,.33-13.291" transform="translate(-286.402 -306.351)"/><path class="d" d="M295.374,310.083l.554-.869c.718-.19,1.36.47,1.79,1.077a28.231,28.231,0,0,1,4.455,9.9" transform="translate(-286.297 -306.561)"/><path class="d" d="M308.48,320.795a42.083,42.083,0,0,1,4.339-12.557c.272-.51.624-1.066,1.191-1.181.973-.2,1.609.982,1.861,1.943a39.243,39.243,0,0,1,.255,18.785" transform="translate(-283.398 -307.035)"/><path class="d" d="M303.075,374.475a9.622,9.622,0,0,0-.131,5.68,16.324,16.324,0,0,0,4.712,8.536,11.109,11.109,0,0,0,9.118,2.9" transform="translate(-284.703 -292.121)"/><ellipse class="f" cx="10.981" cy="11.369" rx="10.981" ry="11.369" transform="translate(36.175 78.801)"/><ellipse class="d" cx="13.448" cy="25.801" rx="13.448" ry="25.801" transform="matrix(0.975, -0.222, 0.222, 0.975, 88.783, 62.629)"/><path class="d" d="M351.206,387.881c-.816,1.96.016,4.179.843,6.134a3.177,3.177,0,0,0,4.179,2.579c2.3-.349,4.711-.75,6.542-2.185a13.663,13.663,0,0,0,1.782-1.794,22.64,22.64,0,0,0,4.147-5.883" transform="translate(-274.024 -289.411)"/><path class="g" d="M382.688,362.507c2.169-.132,4.037,1.43,5.6,2.944a101.631,101.631,0,0,1,9.916,11.158c2.463,3.219,4.791,6.643,8.049,9.054s7.757,3.634,11.415,1.889" transform="translate(-266.988 -294.77)"/><path class="d" d="M307.836,387.391a189.424,189.424,0,0,0,.391,22.589,74.992,74.992,0,0,0,1.873,11.169c.449,1.783,1.922,6.709,2.871,6.89a29.968,29.968,0,0,0,6.249-.551c1.377-.642,1.672-5.8,1.828-7.318.315-3.063-.117-6.233.028-9.237.073-1.512-.137-3.025-.131-4.508s.333-2.988.258-4.5c-.083-1.671-.105-3.324-.127-4.981-.017-1.259.46-2.461.383-3.715a15.12,15.12,0,0,1-.255-2.026v.492" transform="translate(-283.573 -289.265)"/><path class="d" d="M324.674,385.264l-.424,10.67c-.429,10.8-.858,21.62-.3,32.415" transform="translate(-280.036 -289.736)"/><path class="d" d="M339.892,385.6c-1.177,13.831-4.452,27.385-7.718,40.876a2.348,2.348,0,0,1-2.734,2.216l-3.34.22c-.817.054-1.982-.25-1.83-1.055" transform="translate(-279.909 -289.661)"/><path class="d" d="M355.951,422.638q3.922-8.675,8.041-17.258l9.15-.275q-5.043,8.7-9.217,17.876a2.922,2.922,0,0,1-.784,1.172,2.8,2.8,0,0,1-1.5.427,35.843,35.843,0,0,1-6.239-.049,2.72,2.72,0,0,1,.619-1.224" transform="translate(-273.022 -285.348)"/><path class="d" d="M389.711,404.685l7.114-5.837a2.185,2.185,0,0,1,.667,1.371,174.856,174.856,0,0,1,3.453,25.047,47.449,47.449,0,0,1-7.208.473,101.648,101.648,0,0,1-4.295-20.733" transform="translate(-265.494 -286.732)"/></g><g transform="translate(131.012 511.832)"><circle class="a" cx="14.824" cy="14.824" r="14.824" transform="translate(5.108 13.536)"/><circle class="b" cx="18.251" cy="18.251" r="18.251" transform="translate(79.02 60.549)"/><circle class="c" cx="25.407" cy="25.407" r="25.407" transform="translate(18.19 51.348)"/><path class="d" d="M140.657,487.914a61.857,61.857,0,0,0,6.373,33.22" transform="translate(-128.932 -442.315)"/><path class="d" d="M134.343,473.081a5.839,5.839,0,0,1,3.315-2.928,11.6,11.6,0,0,1,2.944-.466,31.308,31.308,0,0,1,6.417-.017,10.518,10.518,0,0,1,5.809,2.508" transform="translate(-130.275 -446.386)"/><path class="a" d="M143.053,467.4a16.2,16.2,0,0,1-8.784,11.1c-.708.335-1.553.762-1.62,1.542a2.1,2.1,0,0,0,.127.773l1.065,3.6a8.409,8.409,0,0,0,1.8,3.7,1.428,1.428,0,0,0,.64.411,1.712,1.712,0,0,0,.884-.1l6.54-1.97a5.915,5.915,0,0,1,2.618-.372,2.023,2.023,0,0,1,1.779,1.707" transform="translate(-130.651 -446.851)"/><path class="d" d="M159.1,471.8c.829,1.358,1.658,2.717,2.447,4.1,4.568,7.995,8.306,12.476,10,21.529" transform="translate(-124.801 -445.879)"/><path class="d" d="M177.211,495.465c15.7.414,37.1.449,47.01,6.692" transform="translate(-120.795 -440.646)"/><path class="d" d="M167.35,535.378c11.227,4.7,24.411,1.74,34.97-4.309,4.6-2.635,9.121-5.914,14.4-6.407" transform="translate(-122.976 -434.189)"/><ellipse class="e" cx="5.108" cy="5.232" rx="5.108" ry="5.232" transform="translate(0 31.699)"/><path class="d" d="M138.108,466.958a79.212,79.212,0,0,1,.33-13.291" transform="translate(-129.473 -449.889)"/><path class="d" d="M138.445,453.62l.554-.87c.718-.189,1.36.47,1.79,1.077a28.239,28.239,0,0,1,4.456,9.906" transform="translate(-129.368 -450.099)"/><path class="d" d="M151.551,464.332a42.083,42.083,0,0,1,4.339-12.557c.274-.509.624-1.065,1.191-1.18.974-.2,1.609.981,1.861,1.942a39.262,39.262,0,0,1,.256,18.786" transform="translate(-126.47 -450.573)"/><path class="d" d="M146.147,518.012a9.612,9.612,0,0,0-.131,5.68,16.313,16.313,0,0,0,4.711,8.536,11.1,11.1,0,0,0,9.118,2.9" transform="translate(-127.774 -435.659)"/><ellipse class="f" cx="10.981" cy="11.369" rx="10.981" ry="11.369" transform="translate(36.175 78.8)"/><ellipse class="d" cx="13.448" cy="25.801" rx="13.448" ry="25.801" transform="matrix(0.975, -0.222, 0.222, 0.975, 88.783, 62.628)"/><path class="d" d="M194.276,531.418c-.815,1.96.017,4.179.843,6.134a3.177,3.177,0,0,0,4.179,2.579c2.3-.349,4.711-.75,6.542-2.185a13.67,13.67,0,0,0,1.783-1.793,22.693,22.693,0,0,0,4.146-5.885" transform="translate(-117.095 -432.949)"/><path class="g" d="M225.759,506.044c2.17-.132,4.037,1.431,5.6,2.945a101.759,101.759,0,0,1,9.917,11.156c2.462,3.219,4.789,6.643,8.047,9.054s7.757,3.634,11.415,1.89" transform="translate(-110.059 -438.308)"/><path class="d" d="M150.908,530.928a189.168,189.168,0,0,0,.39,22.589,75.142,75.142,0,0,0,1.873,11.169c.449,1.783,1.922,6.709,2.871,6.891a30.053,30.053,0,0,0,6.249-.552c1.377-.642,1.672-5.8,1.828-7.318.315-3.063-.117-6.232.028-9.237.073-1.512-.137-3.024-.129-4.508s.332-2.987.258-4.495c-.083-1.671-.105-3.324-.128-4.981-.017-1.258.46-2.461.383-3.715a15.121,15.121,0,0,1-.255-2.026v.492" transform="translate(-126.645 -432.803)"/><path class="d" d="M167.745,528.8l-.424,10.67c-.429,10.8-.858,21.62-.3,32.415" transform="translate(-123.107 -433.274)"/><path class="d" d="M182.963,529.139c-1.177,13.831-4.452,27.385-7.718,40.876a2.348,2.348,0,0,1-2.733,2.216l-3.341.221c-.817.054-1.981-.252-1.83-1.056" transform="translate(-122.981 -433.199)"/><path class="d" d="M199.022,566.175q3.922-8.673,8.041-17.257l9.151-.276q-5.045,8.7-9.218,17.876a2.909,2.909,0,0,1-.784,1.172,2.794,2.794,0,0,1-1.5.427,35.843,35.843,0,0,1-6.239-.049,2.738,2.738,0,0,1,.619-1.224" transform="translate(-116.094 -428.886)"/><path class="d" d="M232.781,548.222l7.114-5.837a2.18,2.18,0,0,1,.667,1.373,174.8,174.8,0,0,1,3.453,25.047,47.771,47.771,0,0,1-7.208.473,101.59,101.59,0,0,1-4.294-20.734" transform="translate(-108.565 -430.27)"/><path class="h" d="M143.638,469.793a3.594,3.594,0,0,1-.76-.026,8.632,8.632,0,0,1,1.441.469,6.231,6.231,0,0,0-1.216.532c1.73.829,3.767.735,5.564,1.408" transform="translate(-128.388 -446.328)"/><path class="h" d="M136.978,471.272a.191.191,0,0,0-.189.16,4.817,4.817,0,0,1,2.1-.807,6.342,6.342,0,0,0-2.883,1.2" transform="translate(-129.908 -446.139)"/><path class="h" d="M131.509,479.179a.965.965,0,0,0,.815,1.205,1.8,1.8,0,0,0,1.484-.641,2.151,2.151,0,0,0,.2-2.931" transform="translate(-130.913 -444.771)"/><path class="d" d="M145.95,487.858a67.475,67.475,0,0,1,3.917,35.368" transform="translate(-127.708 -442.328)"/><path class="d" d="M256.576,526.916a22.907,22.907,0,0,0-2.525,1.816,10.42,10.42,0,0,1-7.62,1.773" transform="translate(-105.488 -433.69)"/><path class="d" d="M253.254,532.988a10.014,10.014,0,0,1-11.458-.658" transform="translate(-106.513 -432.493)"/><path class="d" d="M245.626,537.9l-3.566-1.346a5.554,5.554,0,0,1-2.152-1.279c-1.27-1.073-2.621-2.284-2.909-3.921" transform="translate(-107.573 -432.708)"/><path class="d" d="M197.3,538.126c.65.8,1.259,1.625,1.867,2.453l8.348,11.36" transform="translate(-116.353 -431.211)"/><path class="d" d="M205.761,533.991a21.124,21.124,0,0,0,2.044,4.715l7.2,13.5" transform="translate(-114.482 -432.126)"/><path class="d" d="M222.192,540.807c.216-.265.641-.133.948.022a59.449,59.449,0,0,1,12.142,8.21" transform="translate(-110.848 -430.652)"/><path class="d" d="M230.358,531.257c-.326,3.225,1.545,6.246,3.582,8.768a14.052,14.052,0,0,0,1.2,1.352c1.518,1.453,3.561,2.3,4.955,3.871" transform="translate(-109.05 -432.73)"/><path class="d" d="M145.21,572.605c1.342-2.164,2.893-4.493,5.335-5.216a5.433,5.433,0,0,1,1.227-.214,5.868,5.868,0,0,1,4.869,2.169,11.354,11.354,0,0,1,.863,1.315,4.537,4.537,0,0,1,.7,1.641.358.358,0,0,1-.051.293.389.389,0,0,1-.244.1,18.575,18.575,0,0,1-4.9.265c-.539-.066-1.07-.18-1.608-.233a14.643,14.643,0,0,0-1.866-.028l-4.391.12" transform="translate(-127.887 -424.79)"/><path class="d" d="M159.428,572.605c1.343-2.164,2.894-4.493,5.335-5.216a5.444,5.444,0,0,1,1.227-.214,5.869,5.869,0,0,1,4.87,2.169,11.677,11.677,0,0,1,.863,1.315,4.557,4.557,0,0,1,.7,1.641.363.363,0,0,1-.051.293.392.392,0,0,1-.244.1,18.584,18.584,0,0,1-4.9.265c-.537-.066-1.068-.18-1.608-.233a14.636,14.636,0,0,0-1.866-.028l-4.391.12" transform="translate(-124.743 -424.79)"/><path class="d" d="M191.342,569.524c1.342-2.164,2.893-4.491,5.335-5.216a5.5,5.5,0,0,1,1.227-.214,5.872,5.872,0,0,1,4.869,2.169,11.348,11.348,0,0,1,.863,1.315,4.536,4.536,0,0,1,.7,1.641.358.358,0,0,1-.051.293.389.389,0,0,1-.244.1,18.575,18.575,0,0,1-4.9.265c-.539-.066-1.07-.18-1.608-.233a14.643,14.643,0,0,0-1.866-.028l-4.391.12" transform="translate(-117.685 -425.471)"/><path class="d" d="M231.716,569.524c1.342-2.164,2.894-4.491,5.335-5.216a5.513,5.513,0,0,1,1.227-.214,5.87,5.87,0,0,1,4.869,2.169,11.358,11.358,0,0,1,.863,1.315,4.516,4.516,0,0,1,.7,1.641.358.358,0,0,1-.051.293.389.389,0,0,1-.244.1,18.572,18.572,0,0,1-4.9.265c-.539-.066-1.07-.18-1.608-.233a14.639,14.639,0,0,0-1.866-.028l-4.391.12" transform="translate(-108.757 -425.471)"/></g><g transform="translate(321.472 516.395)"><path class="i" d="M294.544,472.926a62,62,0,0,1,.63-16.494" transform="translate(-285.371 -453.839)"/><path class="i" d="M295.287,456.2c3.638,2.834,6.141,6.864,8.243,10.967" transform="translate(-285.144 -453.891)"/><path class="i" d="M295.333,456.311a23.255,23.255,0,0,1,5,12.294" transform="translate(-285.134 -453.866)"/><path class="i" d="M307.259,468.367a68.328,68.328,0,0,1,4.18-10.711c.68-1.388,1.547-2.875,3.02-3.347,2.65,6.482,2.336,13.742,1.981,20.735" transform="translate(-282.497 -454.309)"/><path class="i" d="M313.268,454.4c3.006,4.195,3.756,9.569,4.076,14.72q.33,5.308.181,10.63" transform="translate(-281.168 -454.289)"/><path class="i" d="M302.275,465.691c1.275-1.054,3.494-.259,4.9.092a2,2,0,0,1,.971.446" transform="translate(-283.599 -451.908)"/><path class="i" d="M295.189,470.21l-1.794,2.07a9.328,9.328,0,0,0-.937,1.211c-1.1,1.8-.846,4.086-.557,6.178" transform="translate(-285.948 -450.793)"/><path class="i" d="M298.035,473.526a21.237,21.237,0,0,1-10.6,9.455" transform="translate(-286.88 -450.059)"/><path class="i" d="M287.837,481.352c-.456-.1-.862.4-.856.865a2.368,2.368,0,0,0,.553,1.26c.414.589.931,1.237,1.65,1.266a2.13,2.13,0,0,0,1.48-.764,9.731,9.731,0,0,0,1.429-1.778.858.858,0,0,0,.181-.674.742.742,0,0,0-.2-.3,3.261,3.261,0,0,0-3.431-.4,2.062,2.062,0,0,0-1.338,1.194" transform="translate(-286.981 -448.51)"/><path class="i" d="M287.648,483.483c.128,1.5.3,4.347,1.2,5.452a3.156,3.156,0,0,0,1.59.95c2.4.711,4.958-.1,7.327-.9l3.654-1.239a4.794,4.794,0,0,1,2.183-.379,1.648,1.648,0,0,1,1.489,1.419" transform="translate(-286.833 -447.857)"/><path class="i" d="M297.5,488.162l2.177-.806a.439.439,0,0,1,.383-.018c.136.088.131.284.11.445l-.382,2.925a.722.722,0,0,0,.068.532c.241.318.731.052,1.06-.173s.96-.247.951.153a.68.68,0,0,1-.151.337,2.533,2.533,0,0,0-.39,1.732.456.456,0,0,0,.19.361c.12.062.265.017.4.035.459.06.5.728.307,1.148s-.5.889-.292,1.305a9.635,9.635,0,0,0,1.167-1.006l-.343,7.379" transform="translate(-284.654 -447.013)"/><path class="i" d="M297.228,488.351a72.2,72.2,0,0,0,.311,22.208,2.758,2.758,0,0,1,.9-1.342l.353,2.815a1.234,1.234,0,0,0,.254.723c.18.187.549.206.664-.027l-.106,1.94a2.073,2.073,0,0,0,.324,1.531c.36.4,1.211.282,1.231-.254a36.886,36.886,0,0,0,1.559,8.95" transform="translate(-284.872 -446.781)"/><path class="i" d="M316.859,475.175c4.672,6.02,6.885,13.536,9.016,20.853a2.672,2.672,0,0,0,.459,1.015,2.759,2.759,0,0,0,1.1.664,34.082,34.082,0,0,1,11.1,7.417" transform="translate(-280.374 -449.695)"/><path class="i" d="M316.2,481.1a18.406,18.406,0,0,1-4.248,7.3l-3.533,4.138" transform="translate(-282.241 -448.384)"/><path class="i" d="M321.663,499.434a13.262,13.262,0,0,0-2.384,1.614c-1.981,1.561-4.038,3.221-5.021,5.544l2.379-1.016a.55.55,0,0,1,.322-.065.378.378,0,0,1,.243.432,1.18,1.18,0,0,1-.247.482,11.566,11.566,0,0,0-1.76,3.721" transform="translate(-280.949 -444.33)"/><path class="i" d="M291.128,488.841a2.611,2.611,0,0,0,.134-.984,1.376,1.376,0,0,0,1.519.813" transform="translate(-286.064 -446.89)"/><path class="i" d="M301.479,515.884a41.693,41.693,0,0,0-.922,6.359,8.171,8.171,0,0,0,.7,4.675,4,4,0,0,1,.691,1.424c.044.344-.043.7.034,1.038s.44.661.75.506c-.36,1.311.57,2.6,1.443,3.64l4.162,4.977" transform="translate(-283.989 -440.692)"/><path class="i" d="M307.092,530.224c.73,1.794,2.556,2.849,4.259,3.771a10.478,10.478,0,0,0,2.255,1,9.588,9.588,0,0,1,1.016.275c.863.335,1.526,1.138,2.441,1.288.186.031.451-.04.432-.228" transform="translate(-282.534 -437.521)"/><path class="i" d="M310.522,528.688l3.14,4.687a9.252,9.252,0,0,0,6.609,5.141,18.042,18.042,0,0,0,4.778.9" transform="translate(-281.775 -437.861)"/><path class="i" d="M317.406,528.741a23.076,23.076,0,0,0,1.224,3.63c.088.2.212.433.432.464.5.072.751-.921,1.211-.719a3.317,3.317,0,0,0,.143,2.291c.4.67,1.575.863,1.912.156,1.355,5.844,1.21,11.92,1.005,17.915q-.43,12.617-1.176,25.218" transform="translate(-280.253 -437.849)"/><path class="i" d="M306.92,534.71q.714,17.308,1.662,34.6l.4-.643.034,1.519c-.123-.169.2-.368.361-.238a.668.668,0,0,1,.156.583l-.328,6.085" transform="translate(-282.572 -436.529)"/><path class="i" d="M319.43,536.6a114.64,114.64,0,0,1,.3,14.146,3.434,3.434,0,0,1-.69-1.369,8.5,8.5,0,0,0-.194,2.277c-.258-.3-.644.23-.675.624a106.666,106.666,0,0,0-.125,15.926.586.586,0,0,1-.107.477c-.122.116-.394.018-.342-.143a21.919,21.919,0,0,0-.31,5.77c-.485-.656-1.539-.212-2.115.365a7.663,7.663,0,0,0-1.766,7.791" transform="translate(-281.227 -436.111)"/><path class="i" d="M337.295,531.273v-.67a16.646,16.646,0,0,1-.034,8.132.6.6,0,0,0-.866.039,1.738,1.738,0,0,0-.376.889,23.772,23.772,0,0,0-.761,5.864c.049,1.294.286,2.7-.391,3.8a6.875,6.875,0,0,0-.561.885,2.939,2.939,0,0,0-.169.9l-.466,5.869a9.282,9.282,0,0,0-.778,2.092l-1.214,4.291c-.862,3.05-1.733,6.195-1.376,9.345a2.875,2.875,0,0,1-.023,1.263c-.316.918-1.478,1.162-2.445,1.261l-.031,1.1a.363.363,0,0,1-.547-.276,39.232,39.232,0,0,0-.2,8.9" transform="translate(-278.155 -437.437)"/><path class="i" d="M326.721,562.462a5.665,5.665,0,0,0,.949,3.043,32.961,32.961,0,0,0,.435-7.578l1.054,1.685a18.785,18.785,0,0,1,.234-6.135l.364.763q.495-4.336,1.216-8.64" transform="translate(-278.193 -434.121)"/><path class="i" d="M313.446,563.688a64.834,64.834,0,0,0,.079-10.455,2.3,2.3,0,0,0,.88,1.661l.481-7.207a1.488,1.488,0,0,0,.775.786,35.608,35.608,0,0,0,.673-9.57" transform="translate(-281.128 -435.602)"/><path class="i" d="M335.087,539.448c5.154,1.023,10.388-.952,15.223-3.013s9.891-4.29,15.123-3.788A15.044,15.044,0,0,1,372.2,534.8a7.247,7.247,0,0,1,2.059,2.7" transform="translate(-276.343 -437.001)"/><path class="i" d="M349.875,534.852c-.027.048-.777,1.241-.8,1.288-.985,1.74-.278,4.008,1,5.549s3.03,2.595,4.53,3.916a32.656,32.656,0,0,1,5.545,7.092,8.287,8.287,0,0,1,.878,6.079,24.634,24.634,0,0,1-2.264,5.855L353.7,575" transform="translate(-273.352 -436.498)"/><path class="i" d="M357.689,577.812a7.42,7.42,0,0,1,2.439-3.208l.313.677a11.949,11.949,0,0,0,3.054-4.152l6.051-11.369a5.918,5.918,0,0,0-.377-7.561l-3.066-4.987a19,19,0,0,1-2-3.9,9.286,9.286,0,0,1,1.976-9.342" transform="translate(-271.344 -436.692)"/><path class="i" d="M366.764,535.979a59.737,59.737,0,0,0,6.614,8.533A11.851,11.851,0,0,0,377.9,547.9c2.557.888,5.526.149,7.966,1.32a11.076,11.076,0,0,1,3.422,3.046,25.059,25.059,0,0,1,4.675,6.947,24.289,24.289,0,0,1,1.194,7.886q.152,4.169.214,8.34" transform="translate(-269.338 -436.248)"/><path class="i" d="M401.782,583.438l.573-3.924.62.779a3.171,3.171,0,0,1,.039-2.557,15.252,15.252,0,0,1-1.567-6.748q-.454-6.8-.287-13.634a3.123,3.123,0,0,0-.3-1.761,3.287,3.287,0,0,0-1.454-1.047,19.264,19.264,0,0,1-5.229-3.6c-4.518-4.484-5.83-11.219-6.466-17.553s-.888-12.958-3.955-18.535a37.573,37.573,0,0,0-5.109-6.746,20.893,20.893,0,0,0-7.591-4.78" transform="translate(-268.388 -443.466)"/><path class="i" d="M386.544,574.263a9.1,9.1,0,0,1,1.392-3.872,5.368,5.368,0,0,1,.924-1.114,5.706,5.706,0,0,1,3.185-1.218,11.477,11.477,0,0,1,4.208.315,4.567,4.567,0,0,1,1.986.978c.994.933,1.18,2.419,1.305,3.777a22.442,22.442,0,0,0-5.158.734,1.158,1.158,0,0,1-.645.045c-.492-.165-.5-.849-.418-1.36-.342.244-.2.9-.575,1.077a.743.743,0,0,1-.377.034,20.285,20.285,0,0,0-5.285.266" transform="translate(-264.963 -429.169)"/><path class="i" d="M346.475,574.339a5.762,5.762,0,0,1,5.362-6.647,2.15,2.15,0,0,1,2.207,1.008c.166.407.288,1.027.723.965.178-.026.309-.177.464-.269a1.5,1.5,0,0,1,.867-.112,4.652,4.652,0,0,1,2.171.518c1.241.775,1.459,2.461,1.551,3.922-1.584.434-3.271.046-4.908.189-.793.07-1.568.263-2.354.377a11.9,11.9,0,0,1-5.371-.463" transform="translate(-273.839 -429.237)"/><path class="i" d="M379.144,508.858c6.87,6.338,10.647,15.316,16.616,22.508a26.1,26.1,0,0,0,3.927,3.939,18.446,18.446,0,0,0,16.016,3.2" transform="translate(-266.6 -442.246)"/><path class="i" d="M410.769,533.488c.14.438-.338.807-.745,1.022l-3.716,1.949a8.933,8.933,0,0,1-1.027.484,8.265,8.265,0,0,1-4.587-.034" transform="translate(-261.834 -436.799)"/><path class="i" d="M400.582,536.519c2.033.712,2.527,3.115,7.37,2.077" transform="translate(-261.859 -436.129)"/><path class="i" d="M408.829,538.22a15.17,15.17,0,0,1-12.214,4.417" transform="translate(-262.736 -435.753)"/><path class="i" d="M393.651,544.893c1.348,1.073,3.7.813,5.423.926a19.673,19.673,0,0,0,8.228-1.866" transform="translate(-263.392 -434.485)"/><path class="i" d="M399.041,541.788c1.827.873,2.7,2.32,7.069,2.32" transform="translate(-262.2 -434.964)"/><path class="i" d="M334.3,499.15c.176.4.706.487,1.147.495,3.026.052,6.008-.668,9.021-.967a49.845,49.845,0,0,1,9.833.171,105.962,105.962,0,0,1,25.75,5.869" transform="translate(-276.518 -444.536)"/><path class="i" d="M360.333,530.028a2.3,2.3,0,0,1,2.371-2.486,2.961,2.961,0,0,1,2.014,1.253,8.755,8.755,0,0,1,1.077,2.182c.438,1.147,1.956,5.725,2.395,6.87" transform="translate(-270.764 -438.116)"/><path class="i" d="M330.575,536.486c4.988-3.856,9.163-9.127,10.419-15.307" transform="translate(-277.34 -439.521)"/><path class="i" d="M310.662,568.392c-.19.977-1.436,1.489-2.329,2.127a11.484,11.484,0,0,1-2.253.816c-1.217.471-2.654.347-3.749,1.058a3.794,3.794,0,0,0-1.476,2.167,11.244,11.244,0,0,0-.325,2.654" transform="translate(-283.985 -429.08)"/><path class="i" d="M303.538,573.32a2.758,2.758,0,0,0-.471,1.37,1.466,1.466,0,0,0,.606,1.265" transform="translate(-283.424 -427.991)"/><path class="i" d="M305.519,573.567a3.141,3.141,0,0,0-.375,1.247,1.208,1.208,0,0,0,.565,1.11" transform="translate(-282.964 -427.936)"/><path class="i" d="M307.568,576.236a5.058,5.058,0,0,1,2.181-.393,36.677,36.677,0,0,0,4.279-.424.96.96,0,0,0,.568-.226c.265-.283.105-.741-.068-1.088" transform="translate(-282.428 -427.817)"/><path class="i" d="M322.164,569.03a9.577,9.577,0,0,1-4.758,3.858" transform="translate(-280.253 -428.939)"/><path class="i" d="M317.027,575.8a1.887,1.887,0,0,1-.253-1.712,3.043,3.043,0,0,1,.607-1.365,1.417,1.417,0,0,1,1.344-.506c.721.173,1.061.993,1.216,1.717a5.391,5.391,0,0,1,.112,1.961" transform="translate(-280.411 -428.241)"/><path class="i" d="M319.039,572.3a.907.907,0,0,0,.9.5,2.533,2.533,0,0,0,1.028-.358c.9-.476,1.95-1.006,2.893-.615a2.249,2.249,0,0,1,1.2,1.469,6.689,6.689,0,0,1,.187,1.944l0,1.683" transform="translate(-279.892 -428.351)"/><path class="j" d="M308.814,466.347A10.735,10.735,0,0,1,312,468.618a4.843,4.843,0,0,1,1.85,2.738" transform="translate(-282.153 -451.647)"/><path class="j" d="M299.075,466.895a5.728,5.728,0,0,0-3.622,3.153" transform="translate(-285.107 -451.526)"/><path class="j" d="M293.256,473.648c.614-.73,2.487-.751,3.392-1.056.088-.029.22-.033.234.059a.138.138,0,0,1-.011.073,12.776,12.776,0,0,1-1.077,2.177" transform="translate(-285.593 -450.27)"/><path class="j" d="M300.471,473.47a6.374,6.374,0,0,1,2.052-.558,2.766,2.766,0,0,1,1.993.6c.324.283.657.7,1.076.6a1.352,1.352,0,0,1,.294-.074.638.638,0,0,1,.414.256,4.913,4.913,0,0,0,1.59,1.1" transform="translate(-283.998 -450.196)"/><path class="j" d="M300.3,475.326a3.438,3.438,0,0,0,.9.948,2.963,2.963,0,0,0,1.733.862,2.9,2.9,0,0,0,.668-.1l.857-.192" transform="translate(-284.037 -449.661)"/><path class="fff" d="M300.429,474.96a3.244,3.244,0,0,0,1.6,1.143,3.73,3.73,0,0,0,2.582-1.067l.652.2s-.69.347-.99.523A2.539,2.539,0,0,1,300.429,474.96Z" transform="translate(-284.007 -449.742)"/><path class="fff" d="M304.665,475.288s-.783-.368-1.863-1-1.861.137-2.585.929c-.253.276.521-.532.783-.8a2.071,2.071,0,0,1,.684-.526,1.723,1.723,0,0,1,1.595.392,7.014,7.014,0,0,0,1.387,1" transform="translate(-284.065 -449.995)"/><path class="fff" d="M301.614,474.32a1,1,0,0,1,.41.736c0,.447-.038.843-.178.933s-.462.1-.918-.368-.741-.711-.173-1.108S301.614,474.32,301.614,474.32Z" transform="translate(-284.005 -449.895)"/><path class='fff' d="M293.513,474.21a.962.962,0,0,1,.238.679c0,.446.32.771.18.862a.9.9,0,0,1-1.088-.237c-.458-.464-.572-.843,0-1.239S293.513,474.21,293.513,474.21Z" transform="translate(-285.771 -449.937)"/><path class="j" d="M292.719,476.458a.9.9,0,0,0,.513-.082,4.009,4.009,0,0,1,.465-.079,2.551,2.551,0,0,0,1.7-1.1" transform="translate(-285.712 -449.691)"/><path class='fff' d="M295.875,474.492a5.061,5.061,0,0,1-1.307-.468c-.537-.313-1.688.233-1.688.233s.959-.308,1.342-.044A4.606,4.606,0,0,0,295.875,474.492Z" transform="translate(-285.676 -449.97)"/><path class="k" d="M316.826,576.538l2.8-.426a3.5,3.5,0,0,1,1.062-.052,4.656,4.656,0,0,1,.924.3,7.372,7.372,0,0,0,7.439-1.413" transform="translate(-280.381 -427.63)"/><path class="k" d="M300.583,575.872h2.96a4.352,4.352,0,0,1,.846.055c.557.109,1.126.435,1.656.232a3.647,3.647,0,0,1,.431-.19c.4-.1.778.2,1.169.336a1.506,1.506,0,0,0,1.684-.558" transform="translate(-283.973 -427.454)"/></g></g></svg>