<svg xmlns="http://www.w3.org/2000/svg" xmlns:xlink="http://www.w3.org/1999/xlink" width="245.5" height="401.861" viewBox="0 0 245.5 401.861"><defs><style>.a{fill:none;}.b{fill:#164b55;}.c{fill:#e2e2e2;}.d{clip-path:url(#a);}.e{fill:#020202;}.e,.l{opacity:0.13;}.f{fill:#afafaf;}.g,.o,.p{fill:#fff;}.g{opacity:0.2;}.h{fill:#444343;}.i{fill:#f8d24b;}.j{fill:#ebdddb;}.k{fill:#e5d7d1;opacity:0.31;mix-blend-mode:overlay;isolation:isolate;}.m{fill:#32a0b5;}.n{fill:#2c8c9e;opacity:0.65;}.o{opacity:0.39;}.p{opacity:0.63;}.q{fill:#0c292e;}</style><clipPath id="a"><path class="a" d="M119.694,559.414a5.456,5.456,0,0,1,3.71-1.469,7.634,7.634,0,0,1,.437-.738l11.413-16.958c-4.419,19.979,16.715,31.882,16.715,31.882s18.984,15.1,35.83,3.48L176.384,592.57a7.705,7.705,0,0,1-.52.683,5.453,5.453,0,0,1,.036,3.99,22.849,22.849,0,0,1-2.4,4.6c-3.011,4.474-20.566,28.966-25.11,35.3a8.124,8.124,0,0,1-3.142,2.617,33.188,33.188,0,0,1-15.071,3.008c-14.217-.411-26.955-9.783-34.06-21.7a30.236,30.236,0,0,1-4.267-17.246,8.133,8.133,0,0,1,1.241-3.9c4.158-6.6,20.238-32.08,23.249-36.554A22.9,22.9,0,0,1,119.694,559.414Z" transform="translate(-91.801 -540.249)"/></clipPath></defs><g transform="translate(-82.048 -108.736)"><g transform="translate(88.282 368.995)"><path class="b" d="M119.694,569.4a5.5,5.5,0,0,1,7.313-.156l21.377,18.2L173.292,600.4a5.5,5.5,0,0,1,2.609,6.833,22.854,22.854,0,0,1-2.4,4.6c-3.011,4.474-20.566,28.966-25.11,35.3a8.138,8.138,0,0,1-3.142,2.617,33.2,33.2,0,0,1-15.071,3.007c-14.217-.411-26.955-9.783-34.06-21.7a30.236,30.236,0,0,1-4.267-17.246,8.133,8.133,0,0,1,1.241-3.9c4.158-6.6,20.238-32.08,23.249-36.554A22.894,22.894,0,0,1,119.694,569.4Z" transform="translate(-91.801 -534.682)"/><path class="c" d="M169.308,572.131s18.984,15.1,35.83,3.48L193.725,592.57a7.774,7.774,0,0,1-5.294,3.343c-5.645.853-17.353,1.176-30.472-6.918-12.438-9.106-16.547-20.075-17.882-25.625a7.771,7.771,0,0,1,1.1-6.162l11.413-16.958C148.174,560.229,169.308,572.131,169.308,572.131Z" transform="translate(-109.142 -524.694)"/><path class="a" d="M119.694,556.01a5.455,5.455,0,0,1,3.71-1.469,7.768,7.768,0,0,1,.437-.738l11.413-16.958c-.005.023-.008.045-.012.068.105-.18.209-.36.326-.534,5.608-8.334,21.917-7.173,36.427,2.592s21.726,24.437,16.117,32.77c-.117.174-.245.338-.371.5.019-.013.038-.024.058-.037l-11.413,16.958a7.786,7.786,0,0,1-.52.683,5.458,5.458,0,0,1,.036,3.99,22.856,22.856,0,0,1-2.4,4.6c-3.011,4.474-20.566,28.966-25.11,35.3a8.137,8.137,0,0,1-3.142,2.617,33.2,33.2,0,0,1-15.071,3.007c-14.217-.411-26.954-9.783-34.06-21.7a30.236,30.236,0,0,1-4.267-17.246,8.133,8.133,0,0,1,1.241-3.9c4.158-6.6,20.238-32.08,23.249-36.554A22.893,22.893,0,0,1,119.694,556.01Z" transform="translate(-91.801 -521.29)"/><path class="a" d="M203.422,620.77s-8.784,10.011-35.246-4.258" transform="translate(-119.359 -552.212)"/><g transform="translate(0 15.555)"><g class="d"><path class="e" d="M132.211,543.7s-11.221,15.779-14.428,20.078a5.313,5.313,0,0,0-2.576.789c-2.409,1.79-28.68,43.515-28.68,43.515a2.57,2.57,0,0,0-.511,1.35c.08.524-8.531-1.414-8.531-1.414l-3.223-23.391,18.433-25.375s26.051-29.985,28.851-31.91S132.211,543.7,132.211,543.7Z" transform="translate(-85.473 -535.539)"/></g></g><ellipse class="f" cx="18.188" cy="31.668" rx="18.188" ry="31.668" transform="matrix(0.558, -0.83, 0.83, 0.558, 33.611, 30.177)"/><path class="b" d="M159.481,555.366s1.2-4.373,8.487,1.071,3.981,6.345,11.235,11.1,8.7,5.815,13.2,3.664,13.967-1.336,16.381-1.562,4.225-.892,5.048,1.43.786,7.457.187,9.006-2.515,5.448-3.319,6.187-3.27,2.964-4.759,3.044-3.049,1.856-4.725,2.885-4.369,2.905-6.428,1.007-3.154-3.378-5.2-3.954-6.737-4.706-8.256-5.9a30.41,30.41,0,0,0-4.7-2.646s-13.512-7.8-17.97-22.573Z" transform="translate(-115.926 -529.55)"/><path class="g" d="M231.763,585.511c.659,1.275,2.076,4.417.9,6.212s-.625,1.4-4.506,4-4.469,5.222-7.582,5.134-2.287-.678-5.109-2.073,2.928-1.837,5.785-2.668,4.83-.451,6.209-2.887,3.1-5.156,3.169-6.164A2.178,2.178,0,0,1,231.763,585.511Z" transform="translate(-136.148 -541.026)"/></g><g transform="translate(82.048 108.736)"><path class="h" d="M116.037,268.671l.356,1.312,6.174-1.439,0,.01.895-.219.947-.221,0-.01,5.739-1.4-.275-1.331s-2.228-23.189-6.251-34.767S90.09,110.525,90.09,110.525s-.328-1.644-2.723-1.72a5.787,5.787,0,0,0-3.625.864c-2.1,1.149-1.654,2.764-1.654,2.764s22.625,110.142,24.259,122.291S116.037,268.671,116.037,268.671Z" transform="translate(-82.048 -108.759)"/><path class="i" d="M143.747,440.027c-.2-2.25-.215-5.145-.215-5.145l27.327-4.977s2.779,8.122,3.586,9.546,4.9,14.895,5.108,16.326c.178,1.207.958,1.557-1.222,2.613-.412.2-.927.425-1.57.689-.1.041-.2.082-.3.115a36.576,36.576,0,0,1-7.345,2.041l-1.216-5.1.6,5.334s-3.713.834-4.409,1.051-2.036-1.76-2.446-3.482-.718-7.253-.984-7.657.325,7.142.486,8.388.65,3.3.65,3.3-1.273.3-2.867.675l-.008,0c-.515.123-1.064.245-1.618.385-2.126.5-4.275,1.011-4.641,1.115a11.758,11.758,0,0,1-2.9,0s-1.939-6.417-2.513-8.577S143.943,442.276,143.747,440.027Z" transform="translate(-104.233 -224.621)"/><path class="j" d="M154.407,408.868c.02.021.038.031.054.027.077-.019.222-.058.423-.116.205-.039.352-.069.429-.088.016,0,.027-.02.036-.049,3.189-.941,13.294-4.087,13.294-4.087s-2.759-7.178-3.179-8.171-9.691-24.022-10.581-26.225a45.9,45.9,0,0,0-3.406-7.024c-.953-1.322-.242-.443-.313-2.841s-2.141-3.818-1.968-3.859a4.766,4.766,0,0,0,.026-2.375c-.222-.357-7.288.006-7.288.006l-.183.043s-6.47,2.864-6.507,3.283a4.757,4.757,0,0,0,1.095,2.108c.173-.041-1.034,2.16-.015,4.332s1.257,1.067,1,2.677a45.943,45.943,0,0,0,.13,7.8c.2,2.367,2.316,27.1,2.391,28.178s.85,8.727.85,8.727S151.137,409.467,154.407,408.868Z" transform="translate(-101.242 -197.198)"/><path class="k" d="M187.332,457.17s4.115,6.63,6.8,11.057c-.412.2-.927.425-1.57.689-.1.041-.2.082-.3.115Z" transform="translate(-120.037 -234.459)"/><path class="a" d="M125.062,340.806c.575,2.159,2.513,8.576,2.513,8.576a11.757,11.757,0,0,0,2.9,0c.366-.1,2.515-.617,4.641-1.115.554-.14,1.1-.263,1.618-.385l.008,0c1.593-.38,2.867-.675,2.867-.675s-.492-2.06-.65-3.3-.755-8.8-.486-8.388.573,5.935.984,7.657,1.757,3.7,2.446,3.482,4.409-1.051,4.409-1.051l-.6-5.334,1.216,5.1a36.575,36.575,0,0,0,7.345-2.041c.1-.033.2-.074.3-.115.643-.264,1.159-.489,1.57-.689,2.18-1.056,1.4-1.406,1.222-2.613-.205-1.431-4.291-14.9-5.108-16.326-.543-.958-1.979-4.947-2.86-7.456l.049-.015s-.234-.608-.572-1.485l-.2-.589-.022,0c-.849-2.2-2.109-5.456-2.382-6.1-.419-.993-9.691-24.022-10.581-26.225a45.868,45.868,0,0,0-3.406-7.024c-.953-1.322-.242-.443-.313-2.841S129.83,268.038,130,268a4.766,4.766,0,0,0,.026-2.375.208.208,0,0,0-.117-.058l-.04-.191s-2.228-23.188-6.251-34.767-33.532-120.08-33.532-120.08-.328-1.644-2.723-1.72a5.787,5.787,0,0,0-3.625.864c-2.1,1.149-1.654,2.764-1.654,2.764s22.625,110.142,24.259,122.291,9.689,33.947,9.689,33.947l.06.222c-.018.021-.045.046-.046.061a2.524,2.524,0,0,0,.31.912l.032.117.024-.006c.279.556.63,1.108.729,1.085.173-.041-1.034,2.16-.015,4.332s1.257,1.067,1,2.677a45.944,45.944,0,0,0,.13,7.805c.2,2.367,2.316,27.1,2.391,28.177.059.867.575,6,.773,7.962.031.709.075,1.459.135,2.15C121.758,326.414,124.48,338.649,125.062,340.806Z" transform="translate(-82.048 -108.759)"/><g class="l" transform="translate(0.946)"><path d="M174.187,477.719l-1.129-4.732.438,3.9A4.421,4.421,0,0,0,174.187,477.719Z" transform="translate(-115.832 -240.166)"/><path d="M167.423,482.457l.283-.066.008,0c1.593-.38,2.866-.675,2.866-.675l0-.011C169.555,481.937,168.068,482.282,167.423,482.457Z" transform="translate(-113.799 -243.311)"/><path d="M162.678,473.2c-.411-1.722-.718-7.253-.984-7.657s.326,7.142.486,8.388c.155,1.2.619,3.165.647,3.286l1.169-.275c.353-.089.7-.171,1.041-.251C164.329,476.734,163.072,474.851,162.678,473.2Z" transform="translate(-111.707 -237.473)"/><path d="M157.608,485.115a1.939,1.939,0,0,0,.3-.06c.082-.023.257-.068.5-.127Z" transform="translate(-110.258 -244.474)"/><path d="M85.134,111.812s29.508,108.5,33.532,120.08,6.251,34.767,6.251,34.767l.04.191a.208.208,0,0,1,.117.058,4.758,4.758,0,0,1-.026,2.375c-.172.041,1.9,1.461,1.968,3.859s-.64,1.519.313,2.841a45.9,45.9,0,0,1,3.406,7.024c.89,2.2,10.162,25.232,10.581,26.225.273.646,1.531,3.9,2.381,6.1l.023,0,.2.589c.338.877.572,1.486.572,1.486l-.049.015c.881,2.508,2.316,6.5,2.86,7.456.817,1.43,4.9,14.895,5.108,16.326.178,1.207.958,1.557-1.222,2.613-.412.2-.927.425-1.57.689-.1.041-.2.082-.3.115-.584.23-1.154.434-1.705.619l.017.072a36.548,36.548,0,0,0,7.346-2.04c.1-.033.2-.074.3-.116.643-.263,1.159-.488,1.571-.689,2.18-1.055,1.4-1.4,1.222-2.613-.205-1.43-4.292-14.9-5.109-16.325-.543-.958-1.978-4.948-2.86-7.456l.049-.015-.572-1.486c-.128-.368-.2-.588-.2-.588l-.022,0c-.849-2.2-2.109-5.455-2.381-6.1-.419-.994-9.692-24.022-10.581-26.225a45.867,45.867,0,0,0-3.406-7.024c-.953-1.322-.242-.444-.313-2.841s-2.14-3.818-1.968-3.859a4.758,4.758,0,0,0,.026-2.375.215.215,0,0,0-.117-.058l-.04-.191s-2.228-23.188-6.251-34.767-33.531-120.08-33.531-120.08-.329-1.643-2.723-1.72a5.79,5.79,0,0,0-3.625.865,4.074,4.074,0,0,0-.916.665A2.254,2.254,0,0,1,85.134,111.812Z" transform="translate(-83.528 -108.736)"/><path d="M175.607,480.774a.419.419,0,0,0,.219,0c.118-.036.326-.092.583-.157C176.079,480.688,175.809,480.738,175.607,480.774Z" transform="translate(-116.752 -242.92)"/><path d="M180.262,479.538c.895-.206,1.654-.377,1.654-.377l-.012-.1C181.324,479.241,180.772,479.4,180.262,479.538Z" transform="translate(-118.432 -242.356)"/></g><path class="b" d="M146.07,454.529s2.245,11.17,4.648,9.657,2.325-.19,3.139.74.791-.444,1.4-1.823-1.918-1.662-1.036-4.344a31.835,31.835,0,0,1,1.557-4.565c3.87-7,6.373,1.484,7.344,3.969s-.383,4.949,1.144,4.8,1.839,2.705,2.986-.712-.212-4.574,2.228-4.86c1.518-.178.816,1.946,2.058,3.838s3.6,3.4,3.17,1.668-.8-2.509-1.2-4.144-1.533-2.133.081-3.319,3.176.314,2.145-3.141a24.628,24.628,0,0,1-1.091-4.576s.545-2.945,1.181-1.107.933.739,2.238,5.969,2.1,4.655,1.97,6.624,1.177,3.686.842,5.169-1.8,1.086-3.414,2.217-2.826,1.834-4.5,1.435-5.011.833-5.011.833-1.739.72-1.852.8c-2.4,1.749-.821,2.937-4.109,3.589-1.057.21-1.873-1.47-3.18-.148s-.646,2.191-3.877,1.831c-1.881-.21-2.233.036-4.312-1.22s-2.51-7.207-3.515-9.767S144.288,454.411,146.07,454.529Z" transform="translate(-104.877 -230.43)"/></g><path class="b" d="M360.967,701.9c-19.1,10.086-30.271,2.831-63.5,3.924-23.688.78-39.035,5.159-50.156,5.076-6.079-.039-10.9-1.406-15.129-5.433-5.344-5.081-7.146-11.927-7.849-16.766a17.4,17.4,0,0,1-.952-6.851,8.511,8.511,0,0,1,1.31-3.848c2.525-3.835,7.747-4.116,13.557-5,12.553-1.905,13-4.353,24.615-6.775,24.679-5.159,53.889-.633,68.852,1.783,26.3,4.238,45.4,7.325,46.737,15.7C379.765,691.962,363.044,700.8,360.967,701.9Z" transform="translate(-50.974 -200.299)"/><path class="m" d="M248.668,679.079s-12.843.713-12.486,8.919,2.854,16.054,5.351,18.194,16.768,2.854,23.9,0,14.984-1.071,18.551-2.5,3.211-7.849-3.925-5.351-19.264,5.351-23.189,1.427-4.281-10.346,0-9.275,2.141-1.427,2.854-5.708,5.708-6.778,12.486-7.135,14.984-2.854,10.346-3.568S248.668,679.079,248.668,679.079Z" transform="translate(-55.612 -203.968)"/><path class="g" d="M270.284,691.376c.713-2.725-.714-7.007,2.854-8.791s11.382-.871,12.129-3.211-9.491-2.235-13.084,0a39.985,39.985,0,0,0-9.034,7.135c-2.141,2.5-5.708,1.427-4.638,6.779s1.427,8.918,4.281,9.632,5.708,2.141,7.492-1.783S270.284,691.376,270.284,691.376Z" transform="translate(-63.601 -205.28)"/><path class="n" d="M394.478,677.142c1.56.458,26.4,4.484,24.259,12.333S395.9,709.81,389.126,707.313s-14.27-4.638-11.059-9.276,7.848-4.262,1.07-7.839-23.189-7.145-17.48-11.425S387.7,675.155,394.478,677.142Z" transform="translate(-100.462 -204.534)"/><path class="g" d="M332,673.372c5.413-1.11,9.678-.536,18.551,1.07,14.556,2.633,13.42,2.961,19.978,3.924,12.885,1.894,19.372.942,20.335,3.925.6,1.848-1.177,4.427-3.211,5.708-4.724,2.976-9.942-1.629-21.048-4.638-3.374-.914-11.287-1.56-27.113-2.854-12.375-1.011-17.3-1.124-17.481-2.5C321.816,676.508,327.4,674.315,332,673.372Z" transform="translate(-86.583 -203.526)"/><path class="o" d="M234.09,719.67s5.218,6.555,9.365,7.358,23.412,1.6,27.292,0,10.034-2.943,9.9-2.141-6.823,2.141-8.027,2.542-20.2,3.612-29.3.936S232.886,719.536,234.09,719.67Z" transform="translate(-54.725 -220.438)"/><path class="p" d="M230.33,711.767s-1.248-3.657-1.694-5.084-.713-3.032-.357-3.032,2.587,5.351,2.587,6.065S232.025,714.621,230.33,711.767Z" transform="translate(-52.704 -214.659)"/><path class="q" d="M247.308,721.05c-6.079-.039-10.9-1.406-15.129-5.433-5.344-5.081-7.146-11.927-7.849-16.766a17.4,17.4,0,0,1-.952-6.851,7.945,7.945,0,0,1,1.029,3.164,54.834,54.834,0,0,0,3.547,14C229.194,711.782,233.195,719.656,247.308,721.05Z" transform="translate(-50.974 -210.454)"/><path class="m" d="M159.581,472.362s.1-.041.252-.12c.568-.288,1.907-1.084,1.978-2.2a11.6,11.6,0,0,0-.446-4.188c-.357-.8.892-2.943,1.427-3.567s1.516-.713,2.051.535.5,4.638.52,6.332,1,3.125,1.353,4.862,1.071,3-.892,2.771-2.319-.581-3.612-.093-2.1.189-2.185-1.4A16.207,16.207,0,0,0,159.581,472.362Z" transform="translate(-27.976 -127.407)"/></g></svg>