<svg xmlns="http://www.w3.org/2000/svg" width="900.952" height="258.703" viewBox="0 0 900.952 258.703"><defs><style>.a{fill:#fff;}.b{fill:rgba(128,128,128,0.11);stroke-width:0.952px;}.b,.c,.d,.m,.o,.p,.q{stroke:#000;}.c,.d,.o,.p,.q{fill:rgba(128,128,128,0.09);stroke-linejoin:round;}.c{stroke-width:0.381px;}.d{stroke-width:0.568px;}.e,.f,.g,.h,.i,.j,.r{isolation:isolate;}.f{font-size:8px;}.f,.g,.h,.i,.j,.n,.r{font-family:Arial-ItalicMT, Arial;font-style:italic;}.g{font-size:9px;}.h{font-size:11px;}.i{font-size:10px;}.j{font-size:7px;}.k{fill:#010101;stroke:rgba(1,1,1,1);stroke-width:1.321px;}.k,.l{fill-rule:evenodd;}.m,.s,.t{fill:none;}.m{stroke-width:1.772px;}.n,.r{font-size:5px;}.o{stroke-width:0.542px;}.p{stroke-width:0.439px;}.q{stroke-width:0.464px;}.s,.t{stroke:#d6003b;stroke-miterlimit:10;}.s{stroke-width:1.508px;}.t{stroke-width:2.5px;}</style></defs><g transform="translate(-1501.418 38.086)"><g transform="translate(1501.894 -37.61)"><path class="a" d="M2.822,0H900a0,0,0,0,1,0,0V257.751a0,0,0,0,1,0,0H0a0,0,0,0,1,0,0V2.822A2.822,2.822,0,0,1,2.822,0Z"/><rect class="b" width="900" height="257.751" rx="2.686"/><rect class="c" width="37.278" height="37.278" rx="2.686" transform="translate(11.583 11.576)"/><rect class="c" width="37.278" height="37.278" rx="2.686" transform="translate(88.136 11.576)"/><rect class="c" width="37.278" height="37.278" rx="2.686" transform="translate(126.746 11.576)"/><rect class="c" width="37.278" height="37.278" rx="2.686" transform="translate(165.355 11.576)"/><rect class="c" width="37.278" height="37.278" rx="2.686" transform="translate(203.964 11.576)"/><rect class="c" width="37.278" height="37.278" rx="2.686" transform="translate(261.213 11.576)"/><rect class="c" width="37.278" height="37.278" rx="2.686" transform="translate(299.822 11.576)"/><rect class="c" width="37.278" height="37.278" rx="2.686" transform="translate(338.099 11.576)"/><rect class="c" width="37.278" height="37.278" rx="2.686" transform="translate(376.376 11.576)"/><rect class="c" width="37.278" height="37.278" rx="2.686" transform="translate(432.959 11.576)"/><rect class="c" width="37.278" height="37.278" rx="2.686" transform="translate(471.568 11.576)"/><rect class="c" width="37.278" height="37.278" rx="2.686" transform="translate(509.845 11.576)"/><rect class="c" width="37.278" height="37.278" rx="2.686" transform="translate(548.121 11.576)"/><rect class="c" width="37.278" height="37.278" rx="2.686" transform="translate(604.038 11.576)"/><rect class="c" width="37.278" height="37.278" rx="2.686" transform="translate(642.648 11.576)"/><rect class="c" width="37.278" height="37.278" rx="2.686" transform="translate(681.031 11.576)"/><rect class="c" width="37.278" height="37.278" rx="2.686" transform="translate(737.919 56.659)"/><rect class="c" width="37.278" height="37.278" rx="2.686" transform="translate(776.529 56.659)"/><rect class="c" width="37.278" height="37.278" rx="2.686" transform="translate(814.783 56.659)"/><rect class="c" width="37.278" height="37.278" rx="2.686" transform="translate(853.082 56.659)"/><rect class="c" width="37.278" height="37.278" rx="2.686" transform="translate(737.919 95.424)"/><rect class="c" width="37.278" height="37.278" rx="2.686" transform="translate(776.529 95.424)"/><rect class="c" width="37.278" height="37.278" rx="2.686" transform="translate(814.783 95.424)"/><rect class="c" width="37.278" height="37.278" rx="2.686" transform="translate(737.919 133.697)"/><rect class="c" width="37.278" height="37.278" rx="2.686" transform="translate(776.529 133.697)"/><rect class="c" width="37.278" height="37.278" rx="2.686" transform="translate(814.783 133.697)"/><rect class="c" width="37.278" height="37.278" rx="2.686" transform="translate(737.919 172.088)"/><rect class="c" width="37.278" height="37.278" rx="2.686" transform="translate(776.529 172.088)"/><rect class="c" width="37.278" height="37.278" rx="2.686" transform="translate(814.783 172.088)"/><rect class="c" width="37.278" height="37.278" rx="2.686" transform="translate(814.783 210.328)"/><rect class="c" width="37.278" height="37.278" rx="2.686" transform="translate(471.568 56.659)"/><rect class="c" width="37.278" height="37.278" rx="2.686" transform="translate(604.038 56.659)"/><rect class="c" width="37.278" height="37.278" rx="2.686" transform="translate(642.648 56.659)"/><rect class="c" width="37.278" height="37.278" rx="2.686" transform="translate(681.031 56.659)"/><rect class="c" width="37.278" height="37.278" rx="2.686" transform="translate(11.583 56.659)"/><rect class="c" width="37.278" height="37.278" rx="2.686" transform="translate(88.136 56.659)"/><rect class="c" width="37.278" height="37.278" rx="2.686" transform="translate(126.746 56.659)"/><rect class="c" width="37.278" height="37.278" rx="2.686" transform="translate(165.355 56.659)"/><rect class="c" width="37.278" height="37.278" rx="2.686" transform="translate(203.632 56.659)"/><rect class="c" width="37.278" height="37.278" rx="2.686" transform="translate(433.291 56.659)"/><rect class="c" width="37.278" height="37.278" rx="2.686" transform="translate(50.091 56.659)"/><rect class="c" width="37.278" height="37.278" rx="2.686" transform="translate(241.881 56.659)"/><rect class="c" width="37.278" height="37.278" rx="2.686" transform="translate(280.158 56.659)"/><rect class="c" width="37.278" height="37.278" rx="2.686" transform="translate(318.767 56.659)"/><rect class="c" width="37.278" height="37.278" rx="2.686" transform="translate(357.377 56.659)"/><rect class="c" width="37.278" height="37.278" rx="2.686" transform="translate(395.264 56.659)"/><rect class="c" width="37.278" height="37.278" rx="2.686" transform="translate(69.512 95.424)"/><rect class="c" width="37.278" height="37.278" rx="2.686" transform="translate(146.231 95.424)"/><rect class="c" width="37.278" height="37.278" rx="2.686" transform="translate(184.508 95.424)"/><rect class="c" width="37.278" height="37.278" rx="2.686" transform="translate(223.118 95.424)"/><rect class="c" width="37.278" height="37.278" rx="2.686" transform="translate(261.394 95.424)"/><rect class="c" width="37.278" height="37.278" rx="2.686" transform="translate(491.054 95.424)"/><rect class="c" width="37.278" height="37.278" rx="2.686" transform="translate(107.854 95.424)"/><rect class="c" width="37.278" height="37.278" rx="2.686" transform="translate(299.644 95.424)"/><rect class="c" width="37.278" height="37.278" rx="2.686" transform="translate(337.92 95.424)"/><rect class="c" width="37.278" height="37.278" rx="2.686" transform="translate(376.53 95.424)"/><rect class="c" width="37.278" height="37.278" rx="2.686" transform="translate(414.973 95.424)"/><rect class="c" width="37.278" height="37.278" rx="2.686" transform="translate(453.026 95.424)"/><rect class="c" width="37.278" height="37.278" rx="2.686" transform="translate(80.525 133.933)"/><rect class="c" width="37.278" height="37.278" rx="2.686" transform="translate(157.411 133.933)"/><rect class="c" width="37.278" height="37.278" rx="2.686" transform="translate(195.688 133.933)"/><rect class="c" width="37.278" height="37.278" rx="2.686" transform="translate(234.297 133.933)"/><rect class="c" width="37.278" height="37.278" rx="2.686" transform="translate(272.574 133.933)"/><rect class="d" width="83.352" height="37.093" rx="6.006" transform="translate(501.993 134.025)"/><rect class="c" width="37.278" height="37.278" rx="2.686" transform="translate(119.034 133.933)"/><rect class="c" width="37.278" height="37.278" rx="2.686" transform="translate(310.823 133.933)"/><rect class="c" width="37.278" height="37.278" rx="2.686" transform="translate(348.934 133.933)"/><rect class="c" width="37.278" height="37.278" rx="2.686" transform="translate(387.21 133.933)"/><rect class="c" width="37.278" height="37.278" rx="2.686" transform="translate(425.487 133.933)"/><rect class="c" width="37.278" height="37.278" rx="2.686" transform="translate(463.707 133.933)"/><rect class="c" width="37.278" height="37.278" rx="2.686" transform="translate(61.892 172.441)"/><rect class="c" width="37.278" height="37.278" rx="2.686" transform="translate(138.445 172.441)"/><rect class="c" width="37.278" height="37.278" rx="2.686" transform="translate(177.055 172.441)"/><rect class="c" width="37.278" height="37.278" rx="2.686" transform="translate(215.664 172.441)"/><rect class="c" width="37.278" height="37.278" rx="2.686" transform="translate(253.941 172.441)"/><rect class="c" width="37.278" height="37.278" rx="2.686" transform="translate(100.4 172.441)"/><rect class="c" width="37.278" height="37.278" rx="2.686" transform="translate(292.19 172.441)"/><rect class="c" width="37.278" height="37.278" rx="2.686" transform="translate(330.467 172.441)"/><rect class="c" width="37.278" height="37.278" rx="2.686" transform="translate(368.744 172.441)"/><rect class="c" width="37.278" height="37.278" rx="2.686" transform="translate(407.187 172.441)"/><rect class="c" width="37.278" height="37.278" rx="2.686" transform="translate(445.407 172.441)"/><rect class="c" width="37.278" height="37.278" rx="2.686" transform="translate(604.038 95.424)"/><rect class="c" width="37.278" height="37.278" rx="2.686" transform="translate(642.648 95.424)"/><rect class="c" width="37.278" height="37.278" rx="2.686" transform="translate(681.031 95.424)"/><rect class="c" width="37.278" height="37.278" rx="2.686" transform="translate(604.038 210.994)"/><rect class="c" width="37.278" height="37.278" rx="2.686" transform="translate(642.648 210.994)"/><rect class="c" width="37.278" height="37.278" rx="2.686" transform="translate(681.031 210.994)"/><rect class="c" width="37.278" height="37.278" rx="2.686" transform="translate(642.648 172.441)"/><rect class="c" width="102.494" height="37.278" rx="2.686" transform="translate(483.526 172.441)"/><rect class="c" width="57.153" height="37.278" rx="2.686" transform="translate(528.885 210.994)"/><rect class="c" width="57.153" height="37.278" rx="2.686" transform="translate(433.856 210.994)"/><rect class="c" width="57.153" height="37.278" rx="2.686" transform="translate(107.157 210.994)"/><rect class="c" width="267.707" height="37.278" rx="2.686" transform="translate(165.252 210.994)"/><rect class="c" width="57.153" height="37.278" rx="2.686" transform="translate(11.507 210.994)"/><rect class="c" width="57.153" height="37.278" rx="2.686" transform="translate(11.507 95.424)"/><rect class="c" width="49.079" height="37.278" rx="2.686" transform="translate(11.507 172.441)"/><rect class="c" width="67.712" height="37.278" rx="2.686" transform="translate(11.507 133.933)"/><g class="e" transform="translate(19.257 25.863)"><text class="f" transform="translate(0 7)"><tspan x="0" y="0">Esc</tspan></text></g><g class="e" transform="translate(16.396 213.475)"><text class="f" transform="translate(0 7)"><tspan x="0" y="0">Crtl</tspan></text></g><g class="e" transform="translate(112.045 213.475)"><text class="f" transform="translate(0 7)"><tspan x="0" y="0">Alt</tspan></text></g><g class="e" transform="translate(438.586 214.826)"><text class="f" transform="translate(0 7)"><tspan x="0" y="0">Alt</tspan></text></g><g class="e" transform="translate(533.773 213.475)"><text class="f" transform="translate(0 7)"><tspan x="0" y="0">Ctrl</tspan></text></g><g class="e" transform="translate(55.175 79.353)"><text class="g" transform="translate(0 8)"><tspan x="0" y="0">1</tspan></text></g><g class="e" transform="translate(55.175 57.95)"><text class="f" transform="translate(0 7)"><tspan x="0" y="0">!</tspan></text></g><g class="e" transform="translate(93.22 79.353)"><text class="g" transform="translate(0 8)"><tspan x="0" y="0">2</tspan></text></g><g class="e" transform="translate(93.22 57.95)"><text class="h" transform="translate(0 10)"><tspan x="0" y="0">@</tspan></text></g><g class="e" transform="translate(131.033 79.353)"><text class="g" transform="translate(0 8)"><tspan x="0" y="0">3</tspan></text></g><g class="e" transform="translate(131.033 57.95)"><text class="g" transform="translate(0 8)"><tspan x="0" y="0">#</tspan></text></g><g class="e" transform="translate(170.273 79.353)"><text class="g" transform="translate(0 8)"><tspan x="0" y="0">4</tspan></text></g><g class="e" transform="translate(170.273 57.95)"><text class="g" transform="translate(0 8)"><tspan x="0" y="0">$</tspan></text></g><g class="e" transform="translate(207.754 79.353)"><text class="g" transform="translate(0 8)"><tspan x="0" y="0">5</tspan></text></g><g class="e" transform="translate(207.754 57.95)"><text class="i" transform="translate(0 9)"><tspan x="0" y="0">%</tspan></text></g><g class="e" transform="translate(245.519 79.353)"><text class="g" transform="translate(0 8)"><tspan x="0" y="0">6</tspan></text></g><g class="e" transform="translate(245.519 57.95)"><text class="g" transform="translate(0 8)"><tspan x="0" y="0">^</tspan></text></g><g class="e" transform="translate(284.427 79.353)"><text class="i" transform="translate(0 9)"><tspan x="0" y="0">7</tspan></text></g><g class="e" transform="translate(284.427 57.95)"><text class="h" transform="translate(0 10)"><tspan x="0" y="0">&amp;</tspan></text></g><g class="e" transform="translate(324.38 79.353)"><text class="g" transform="translate(0 8)"><tspan x="0" y="0">8</tspan></text></g><g class="e" transform="translate(324.38 57.95)"><text class="i" transform="translate(0 9)"><tspan x="0" y="0">*</tspan></text></g><g class="e" transform="translate(362.194 79.353)"><text class="g" transform="translate(0 8)"><tspan x="0" y="0">9</tspan></text></g><g class="e" transform="translate(362.194 57.95)"><text class="f" transform="translate(0 7)"><tspan x="0" y="0">(</tspan></text></g><g class="e" transform="translate(400.007 79.353)"><text class="g" transform="translate(0 8)"><tspan x="0" y="0">0</tspan></text></g><g class="e" transform="translate(399.016 57.95)"><text class="g" transform="translate(0 8)"><tspan x="0" y="0">)</tspan></text></g><g class="e" transform="translate(17.361 79.353)"><text class="j" transform="translate(0 6)"><tspan x="0" y="0">`</tspan></text></g><g class="e" transform="translate(17.361 57.95)"><text class="h" transform="translate(0 10)"><tspan x="0" y="0">~</tspan></text></g><g class="e" transform="translate(73.891 97.242)"><text class="i" transform="translate(0 9)"><tspan x="0" y="0">Q</tspan></text></g><g class="e" transform="translate(111.769 97.242)"><text class="h" transform="translate(0 10)"><tspan x="0" y="0">W</tspan></text></g><g class="e" transform="translate(149.916 97.242)"><text class="i" transform="translate(0 9)"><tspan x="0" y="0">E</tspan></text></g><g class="e" transform="translate(188.823 97.242)"><text class="i" transform="translate(0 9)"><tspan x="0" y="0">R</tspan></text></g><g class="e" transform="translate(226.637 97.242)"><text class="i" transform="translate(0 9)"><tspan x="0" y="0">T</tspan></text></g><g class="e" transform="translate(263.404 97.242)"><text class="i" transform="translate(0 9)"><tspan x="0" y="0">Z</tspan></text></g><g class="e" transform="translate(303.309 97.242)"><text class="h" transform="translate(0 10)"><tspan x="0" y="0">U</tspan></text></g><g class="e" transform="translate(342.93 97.242)"><text class="f" transform="translate(0 7)"><tspan x="0" y="0">I</tspan></text></g><g class="e" transform="translate(380.743 97.242)"><text class="i" transform="translate(0 9)"><tspan x="0" y="0">O</tspan></text></g><g class="e" transform="translate(418.39 97.242)"><text class="i" transform="translate(0 9)"><tspan x="0" y="0">P</tspan></text></g><g class="e" transform="translate(86.724 135.475)"><text class="h" transform="translate(0 10)"><tspan x="0" y="0">A</tspan></text></g><g class="e" transform="translate(124.769 135.475)"><text class="h" transform="translate(0 10)"><tspan x="0" y="0">S</tspan></text></g><g class="e" transform="translate(162.915 135.475)"><text class="i" transform="translate(0 9)"><tspan x="0" y="0">D</tspan></text></g><g class="e" transform="translate(201.823 135.475)"><text class="h" transform="translate(0 10)"><tspan x="0" y="0">F</tspan></text></g><g class="e" transform="translate(239.636 135.475)"><text class="i" transform="translate(0 9)"><tspan x="0" y="0">G</tspan></text></g><g class="e" transform="translate(276.403 135.475)"><text class="h" transform="translate(0 10)"><tspan x="0" y="0">H</tspan></text></g><g class="e" transform="translate(316.309 135.475)"><text class="i" transform="translate(0 9)"><tspan x="0" y="0">J</tspan></text></g><g class="e" transform="translate(353.781 135.475)"><text class="h" transform="translate(0 10)"><tspan x="0" y="0">K</tspan></text></g><g class="e" transform="translate(393.243 135.475)"><text class="g" transform="translate(0 8)"><tspan x="0" y="0">L</tspan></text></g><g class="e" transform="translate(66.842 173.708)"><text class="i" transform="translate(0 9)"><tspan x="0" y="0">Z</tspan></text></g><g class="e" transform="translate(104.887 173.708)"><text class="i" transform="translate(0 9)"><tspan x="0" y="0">Y</tspan></text></g><g class="e" transform="translate(142.701 173.708)"><text class="h" transform="translate(0 10)"><tspan x="0" y="0">X</tspan></text></g><g class="e" transform="translate(181.941 173.708)"><text class="i" transform="translate(0 9)"><tspan x="0" y="0">C</tspan></text></g><g class="e" transform="translate(219.755 173.708)"><text class="h" transform="translate(0 10)"><tspan x="0" y="0">V</tspan></text></g><g class="e" transform="translate(256.521 173.708)"><text class="h" transform="translate(0 10)"><tspan x="0" y="0">B</tspan></text></g><g class="e" transform="translate(296.427 173.708)"><text class="h" transform="translate(0 10)"><tspan x="0" y="0">N</tspan></text></g><g class="e" transform="translate(336.048 173.708)"><text class="i" transform="translate(0 9)"><tspan x="0" y="0">M</tspan></text></g><g class="e" transform="translate(429.601 151.98)"><text class="f" transform="translate(0 7)"><tspan x="0" y="0">;</tspan></text></g><g class="e" transform="translate(430.1 135.159)"><text class="f" transform="translate(0 7)"><tspan x="0" y="0">:</tspan></text></g><g class="e" transform="translate(436.282 50.809)"><text class="g" transform="translate(1 8)"><tspan x="0" y="0">_</tspan></text></g><g class="e" transform="translate(373.331 193.289)"><text class="f" transform="translate(0 7)"><tspan x="0" y="0">,</tspan></text></g><g class="e" transform="translate(410.978 193.289)"><text class="f" transform="translate(0 7)"><tspan x="0" y="0">.</tspan></text></g><g class="e" transform="translate(437.776 77.639)"><text class="j" transform="translate(0 6)"><tspan x="0" y="0">-</tspan></text></g><g class="e" transform="translate(92.005 18.099)"><text class="j" transform="translate(0 6)"><tspan x="0" y="0">F1</tspan></text></g><g class="e" transform="translate(130.05 18.099)"><text class="j" transform="translate(0 6)"><tspan x="0" y="0">F2</tspan></text></g><g class="e" transform="translate(167.863 18.099)"><text class="j" transform="translate(0 6)"><tspan x="0" y="0">F3</tspan></text></g><g class="e" transform="translate(207.103 18.099)"><text class="j" transform="translate(0 6)"><tspan x="0" y="0">F4</tspan></text></g><g class="e" transform="translate(265.747 18.099)"><text class="j" transform="translate(0 6)"><tspan x="0" y="0">F5</tspan></text></g><g class="e" transform="translate(303.792 18.099)"><text class="j" transform="translate(0 6)"><tspan x="0" y="0">F6</tspan></text></g><g class="e" transform="translate(341.939 18.099)"><text class="f" transform="translate(0 7)"><tspan x="0" y="0">F7</tspan></text></g><g class="e" transform="translate(380.846 18.099)"><text class="j" transform="translate(0 6)"><tspan x="0" y="0">F8</tspan></text></g><g class="e" transform="translate(438.824 18.099)"><text class="j" transform="translate(0 6)"><tspan x="0" y="0">F9</tspan></text></g><g class="e" transform="translate(476.869 18.099)"><text class="f" transform="translate(0 7)"><tspan x="0" y="0">F10</tspan></text></g><g class="e" transform="translate(515.015 18.099)"><text class="f" transform="translate(0 7)"><tspan x="0" y="0">F11</tspan></text></g><g class="e" transform="translate(553.923 18.099)"><text class="f" transform="translate(0 7)"><tspan x="0" y="0">F12</tspan></text></g><g transform="translate(657.741 222.311)"><path class="k" d="M2169.028,186.667v9.414" transform="translate(-2165.486 -186.667)"/><path class="l" d="M2165.455,196.157l3.563,5.238,3.527-5.238Z" transform="translate(-2165.455 -186.75)"/></g><g transform="translate(657.742 183.758)"><path class="k" d="M2169.036,162.465V153.05" transform="translate(-2165.488 -147.819)"/><path class="l" d="M2172.545,153.012l-3.562-5.239-3.527,5.239Z" transform="translate(-2165.456 -147.773)"/></g><g transform="translate(692.347 226.088)"><path class="k" d="M2200.367,194.058h9.414" transform="translate(-2200.367 -190.509)"/><path class="l" d="M2209.857,197.568l5.239-3.562-5.239-3.528Z" transform="translate(-2200.45 -190.478)"/></g><g transform="translate(615.355 226.088)"><path class="k" d="M2137.385,194.05h-9.414" transform="translate(-2122.74 -190.509)"/><path class="l" d="M2127.931,190.478l-5.238,3.561,5.238,3.528Z" transform="translate(-2122.694 -190.478)"/></g><g transform="translate(513.854 78.818)"><path class="k" d="M2034.987,45.478h-9.415" transform="translate(-2020.341 -41.936)"/><path class="l" d="M2025.534,41.9l-5.239,3.561,5.239,3.528Z" transform="translate(-2020.295 -41.905)"/></g><g transform="translate(503.682 160.395)"><path class="k" d="M2024.725,129.7h-9.415" transform="translate(-2010.079 -124.252)"/><path class="l" d="M2015.271,127.634l-5.239,2.062,5.239,2.042Z" transform="translate(-2010.033 -124.234)"/><path class="k" d="M2024.808,129.654V124.2" transform="translate(-2010.162 -124.204)"/></g><g transform="translate(14.528 109.582)"><path class="k" d="M1516.778,87.326h9.415" transform="translate(-1516.553 -73.067)"/><path class="l" d="M1526.268,90.836l5.239-3.562-5.239-3.529Z" transform="translate(-1516.636 -73.036)"/><g transform="translate(0.225 1.296)"><path class="k" d="M1531.469,77.82h-9.415" transform="translate(-1516.824 -74.279)"/><path class="l" d="M1522.017,74.248l-5.239,3.561,5.239,3.528Z" transform="translate(-1516.778 -74.248)"/></g><path class="k" d="M1531.837,91.992V82.577" transform="translate(-1516.685 -73.026)"/><path class="k" d="M1516.551,82.356V72.941" transform="translate(-1516.551 -72.941)"/></g><g transform="translate(657.742 183.758)"><path class="k" d="M2169.036,162.465V153.05" transform="translate(-2165.488 -147.819)"/><path class="l" d="M2172.545,153.012l-3.562-5.239-3.527,5.239Z" transform="translate(-2165.456 -147.773)"/></g><g transform="translate(16.777 179.36)"><path class="m" d="M1526.963,149.353l-4.091-6.017-4.052,6.017Z" transform="translate(-1518.82 -143.336)"/><rect class="m" width="3.85" height="6.286" transform="translate(2.147 6.017)"/></g><g transform="translate(486.877 191.976)"><path class="m" d="M2001.222,162.081l-4.091-6.017-4.052,6.017Z" transform="translate(-1993.079 -156.064)"/><rect class="m" width="3.85" height="6.286" transform="translate(2.146 6.017)"/></g><g class="e" transform="translate(606.4 12.144)"><text class="f" transform="translate(0 7)"><tspan x="0" y="0">Prt Scr</tspan></text></g><g class="e" transform="translate(643.908 12.278)"><text class="f" transform="translate(0 7)"><tspan x="0" y="0">Scroll</tspan></text><text class="n" transform="translate(23.969 5)"><tspan x="0" y="0"> </tspan></text><text class="f" transform="translate(0 16.586)"><tspan x="0" y="0">Lock</tspan></text></g><g class="e" transform="translate(683.461 11.997)"><text class="f" transform="translate(0 7)"><tspan x="0" y="0">Pause</tspan></text><text class="n" transform="translate(27.18 5)"><tspan x="0" y="0"> </tspan></text><text class="f" transform="translate(0 16.586)"><tspan x="0" y="0">Break</tspan></text></g><g class="e" transform="translate(645.728 55.785)"><text class="f" transform="translate(0 7)"><tspan x="0" y="0">Home</tspan></text></g><g class="e" transform="translate(607.222 57.106)"><text class="f" transform="translate(0 7)"><tspan x="0" y="0">Insert</tspan></text></g><g class="e" transform="translate(645.469 95.399)"><text class="f" transform="translate(0 7)"><tspan x="0" y="0">End</tspan></text></g><g class="e" transform="translate(606.124 96.869)"><text class="f" transform="translate(0 7)"><tspan x="0" y="0">Delete</tspan></text></g><g class="e" transform="translate(683.042 55.299)"><text class="f" transform="translate(0 7)"><tspan x="0" y="0">Page</tspan></text><text class="n" transform="translate(22.387 5)"><tspan x="0" y="0"> </tspan></text><text class="j" transform="translate(0 15.586)"><tspan x="0" y="0">Up</tspan></text></g><g class="e" transform="translate(682.221 95.467)"><text class="f" transform="translate(0 7)"><tspan x="0" y="0">Page</tspan></text><text class="n" transform="translate(22.387 5)"><tspan x="0" y="0"> </tspan></text><text class="f" transform="translate(0 16.586)"><tspan x="0" y="0">Down</tspan></text></g><g class="e" transform="translate(739.271 174.185)"><text class="g" transform="translate(0 8)"><tspan x="0" y="0">1</tspan></text></g><g class="e" transform="translate(779.579 172.203)"><text class="g" transform="translate(0 8)"><tspan x="0" y="0">2</tspan></text></g><g class="e" transform="translate(817.861 172.203)"><text class="g" transform="translate(0 8)"><tspan x="0" y="0">3</tspan></text></g><g class="e" transform="translate(740.938 133.812)"><text class="g" transform="translate(0 8)"><tspan x="0" y="0">4</tspan></text></g><g class="e" transform="translate(779.432 133.98)"><text class="g" transform="translate(0 8)"><tspan x="0" y="0">5</tspan></text></g><g class="e" transform="translate(817.343 133.98)"><text class="g" transform="translate(0 8)"><tspan x="0" y="0">6</tspan></text></g><g class="e" transform="translate(740.064 95.539)"><text class="i" transform="translate(0 9)"><tspan x="0" y="0">7</tspan></text></g><g class="e" transform="translate(779.273 95.708)"><text class="g" transform="translate(0 8)"><tspan x="0" y="0">8</tspan></text></g><g class="e" transform="translate(817.577 95.708)"><text class="g" transform="translate(0 8)"><tspan x="0" y="0">9</tspan></text></g><g class="e" transform="translate(816.35 58.08)"><text class="i" transform="translate(0 9)"><tspan x="0" y="0">*</tspan></text></g><g class="e" transform="translate(857.424 53.027)"><text class="j" transform="translate(0 6)"><tspan x="0" y="0">-</tspan></text></g><g class="e" transform="translate(777.24 55.01)"><text class="g" transform="translate(0 8)"><tspan x="0" y="0">/</tspan></text></g><g class="e" transform="translate(739.518 56.213)"><text class="f" transform="translate(0 7)"><tspan x="0" y="0">Num</tspan></text><text class="n" transform="translate(20.239 5)"><tspan x="0" y="0"> </tspan></text><text class="f" transform="translate(0 16.586)"><tspan x="0" y="0">Lock</tspan></text></g><g class="e" transform="translate(856.364 174.046)"><text class="f" transform="translate(0 7)"><tspan x="0" y="0">Enter</tspan></text></g><g class="e" transform="translate(853.987 94.324)"><text class="h" transform="translate(0 10)"><tspan x="0" y="0">+</tspan></text></g><g class="e" transform="translate(817.11 234.011)"><text class="f" transform="translate(0 7)"><tspan x="0" y="0">Del</tspan></text></g><g class="e" transform="translate(816.918 202.711)"><text class="f" transform="translate(0 7)"><tspan x="0" y="0">.</tspan></text></g><g class="e" transform="translate(741.089 234.007)"><text class="f" transform="translate(0 7)"><tspan x="0" y="0">Ins</tspan></text></g><g class="e" transform="translate(740.044 209.287)"><text class="g" transform="translate(0 8)"><tspan x="0" y="0">0</tspan></text></g><rect class="o" width="75.555" height="37.278" rx="2.686" transform="translate(737.989 210.328)"/><rect class="o" width="37.278" height="75.555" rx="2.686" transform="translate(853.069 172.052)"/><rect class="o" width="37.278" height="75.555" rx="2.686" transform="translate(853.069 95.425)"/><rect class="p" width="75.982" height="37.278" rx="2.686" transform="translate(509.728 56.67)"/><g transform="translate(779.728 114.572)"><path class="k" d="M2292.1,92.666V83.252" transform="translate(-2288.552 -78.021)"/><path class="l" d="M2295.611,83.213l-3.562-5.238-3.529,5.238Z" transform="translate(-2288.521 -77.975)"/></g><g transform="translate(779.728 191.734)"><path class="k" d="M2292.094,155.82v9.414" transform="translate(-2288.552 -155.82)"/><path class="l" d="M2288.521,165.31l3.562,5.238,3.529-5.238Z" transform="translate(-2288.521 -155.903)"/></g><g transform="translate(816.187 160.889)"><path class="k" d="M2325.3,128.282h9.413" transform="translate(-2325.303 -124.733)"/><path class="l" d="M2334.793,131.792l5.238-3.561-5.238-3.529Z" transform="translate(-2325.386 -124.702)"/></g><g transform="translate(741.307 160.89)"><path class="k" d="M2264.45,128.275h-9.413" transform="translate(-2249.806 -124.734)"/><path class="l" d="M2255,124.7l-5.237,3.561,5.237,3.528Z" transform="translate(-2249.76 -124.703)"/></g><g class="e" transform="translate(483.714 176.01)"><text class="f" transform="translate(0 7)"><tspan x="0" y="0">Shift</tspan></text></g><rect class="q" width="55.419" height="37.196" rx="3.994" transform="translate(529.283 95.616)"/><g class="e" transform="translate(13.406 135.358)"><text class="f" transform="translate(0 7)"><tspan x="0" y="0">Caps</tspan></text><text class="n" transform="translate(22.378 5)"><tspan x="0" y="0"> </tspan></text><text class="f" transform="translate(0 16.586)"><tspan x="0" y="0">Lock</tspan></text></g><g class="e" transform="translate(13.406 97.509)"><text class="f" transform="translate(0 7)"><tspan x="0" y="0">Tab</tspan></text></g><g class="e" transform="translate(479.562 78.995)"><text class="h" transform="translate(0 10)"><tspan x="0" y="0">=</tspan></text></g><g class="e" transform="translate(476.758 55.865)"><text class="h" transform="translate(0 10)"><tspan x="0" y="0">+</tspan></text></g><g class="e" transform="translate(510.403 56.857)"><text class="f" transform="translate(0 7)"><tspan x="0" y="0">Backspace</tspan></text></g><g class="e" transform="translate(456.226 95.119)"><text class="i" transform="translate(0 9)"><tspan x="0" y="0">{</tspan></text></g><g class="e" transform="translate(455.985 117.548)"><text class="f" transform="translate(0 7)"><tspan x="0" y="0">[</tspan></text></g><g class="e" transform="translate(493.664 94.999)"><text class="j" transform="translate(1 6)"><tspan x="0" y="0">}</tspan></text></g><g class="e" transform="translate(493.664 116.147)"><text class="f" transform="translate(0 7)"><tspan x="0" y="0">]</tspan></text></g><g class="e" transform="translate(531.803 95.119)"><text class="r" transform="translate(0 5)"><tspan x="0" y="0">|</tspan></text></g><g class="e" transform="translate(530.642 116.147)"><text class="f" transform="translate(0 7)"><tspan x="0" y="0">\</tspan></text></g><g class="e" transform="translate(464.757 134.25)"><text class="i" transform="translate(0 9)"><tspan x="0" y="0">&quot;</tspan></text></g><g class="e" transform="translate(466.619 156.559)"><text class="r" transform="translate(0 5)"><tspan x="0" y="0">&apos;</tspan></text></g><g class="e" transform="translate(448.105 193.246)"><text class="g" transform="translate(0 8)"><tspan x="0" y="0">/</tspan></text></g><g class="e" transform="translate(449.798 171.518)"><text class="g" transform="translate(0 8)"><tspan x="0" y="0">?</tspan></text></g><g class="e" transform="translate(409.846 170.116)"><text class="h" transform="translate(0 10)"><tspan x="0" y="0">&gt;</tspan></text></g><g class="e" transform="translate(374.1 170.116)"><text class="h" transform="translate(0 10)"><tspan x="0" y="0">&lt;</tspan></text></g><g class="e" transform="translate(502.518 134.076)"><text class="f" transform="translate(0 7)"><tspan x="0" y="0">Enter</tspan></text></g></g><rect class="s" width="497.902" height="44.398" transform="translate(1590.031 -29.979)"/><line class="t" y1="119.525" x2="39.476" transform="translate(1735.093 26.464)"/></g></svg>