<svg xmlns="http://www.w3.org/2000/svg" xmlns:xlink="http://www.w3.org/1999/xlink" width="655" height="453" viewBox="0 0 655 453"><defs><style>.a{fill:#fff;stroke:#707070;}.b,.n{fill:none;}.c{clip-path:url(#a);}.d{fill:#eadff1;}.e{clip-path:url(#b);}.f{fill:#d19442;}.g,.m{fill:#d8a35d;}.h{fill:#947dce;}.i{fill:#ffc84f;}.j{opacity:0.15;}.k{opacity:0.3;}.l{opacity:0.5;}.m{fill-rule:evenodd;}.n{stroke:#947dce;stroke-miterlimit:10;stroke-width:1.093px;}.o{fill:#9c84d9;}</style><clipPath id="a"><rect class="a" width="655" height="453" transform="translate(488 315)"/></clipPath><clipPath id="b"><path class="b" d="M601.915,510.715C684.43,444.6,725.688,411.54,764.422,400.784c129.412-35.935,313.263,38.023,353.691,172.066,2.1,6.975,29.829,103.829-23.9,167.286-44.984,53.128-101.576,29.116-267.658,57.355-177.809,30.233-220.669,76.073-282,40.7C486.5,804.7,455.015,723.3,468.086,658.883,477.807,610.977,519.309,576.9,601.915,510.715Z" transform="translate(-465.15 -391.74)"/></clipPath></defs><g class="c" transform="translate(-488 -315)"><g transform="translate(17.689 -9.224)"><path class="d" d="M601.915,510.715C684.43,444.6,725.688,411.54,764.422,400.784c129.412-35.935,313.263,38.023,353.691,172.066,2.1,6.975,29.829,103.829-23.9,167.286-44.984,53.128-101.576,29.116-267.658,57.355-177.809,30.233-220.669,76.073-282,40.7C486.5,804.7,455.015,723.3,468.086,658.883,477.807,610.977,519.309,576.9,601.915,510.715Z" transform="translate(0 0)"/><g transform="translate(465.15 391.74)"><g class="e"><g transform="translate(149.96 56.049)"><path class="f" d="M717.331,478.938s-1.707,19.045,10.041,29.577-27.072,0-27.072,0,7.223-18.242,5.6-29.577S717.331,478.938,717.331,478.938Z" transform="translate(-514.645 -412.687)"/><ellipse class="g" cx="20.537" cy="28.02" rx="20.537" ry="28.02" transform="translate(175.954 17.595)"/><path class="h" d="M898.021,655.794c-.437,6.879-7.549,38.047-16.44,65.752-7.286,22.743-15.787,43.163-22.776,45.986-15.5,6.24-132.577,14.8-156.647,3.323-.561-.421-1.169-.873-1.747-1.373-9.032-7.347-18.828-21.854-24.023-35.441,0-.016-13.836-39.014-16.659-46.953-.031-.077-.047-.14-.078-.2-.094-.311-.2-.608-.311-.889-.031-.108-.078-.2-.11-.311-14.569,49.745-128.445,46.126-62.4-92.036,31.09-65.032,86.577-94.7,122-102.58,15.334-3.417,26.908-2.746,31.135.9a22.966,22.966,0,0,0,14.337,5.569,31.05,31.05,0,0,0,8.048-.734,40.11,40.11,0,0,0,8.534-2.9c1.31-.608,2.075-1.045,2.075-1.045a83.216,83.216,0,0,1,21.683,1.294C884.793,509.848,898.739,644.236,898.021,655.794Z" transform="translate(-567.584 -406.306)"/><path class="i" d="M830.475,875.727h-80.7q.163-7.416.362-14.95c.17-6.864.363-13.777.555-20.617.205-7.252.411-14.442.605-21.451.193-6.719.374-13.269.544-19.553.46-17.754.774-33.427.712-44.811-.049-10.78-.434-17.705-1.364-18.89-.351-.447-.714-.362-1.1.243-1.22,1.908-2.6,9-4.109,19.807-.809,5.74-1.643,12.531-2.513,20.146-.858,7.444-1.74,15.7-2.659,24.52-.641,6.189-1.293,12.665-1.97,19.361-.762,7.674-1.547,15.614-2.345,23.735-.592,5.946-1.185,11.989-1.788,18.092q-.707,7.142-1.414,14.37H643.313c.024-.218.049-.448.086-.665.785-5.6,1.594-11.481,2.429-17.584.99-7.252,2.005-14.8,3.033-22.528.955-7.215,1.934-14.586,2.9-21.982,1.982-15.095,3.952-30.357,5.8-44.847,1.777-13.863,3.432-27.023,4.907-38.637,3.408-27.119,5.729-45.886,5.729-45.886a9.621,9.621,0,0,0,.736.664.247.247,0,0,0,.061.048,10.584,10.584,0,0,0,2.549,1.523,15.857,15.857,0,0,0,3.844,1.076l8.17.144c6.043.109,14.067.218,23.275.314,6.889.073,14.442.134,22.3.157,2.054.013,4.121.024,6.2.013h.1c5.04.011,10.152.011,15.276-.013,8.048-.036,16.109-.12,23.844-.266,7.215-.133,14.164-.314,20.545-.568,2.767-.121,5.425-.241,7.964-.374.024.011.048,0,.073,0l.628-.037c.639-.036.991-.06.991-.06,1.293-.073,2.537-.157,3.758-.241s2.393-.157,3.53-.254h.011c.943-.073,1.85-.146,2.732-.23.581-.048,1.16-.108,1.717-.17.277-.024.555-.049.821-.084s.544-.06.809-.084.532-.061.786-.084.508-.061.761-.1c.363-.037.714-.084,1.063-.133,1.355-.181,2.575-.362,3.662-.557a25.507,25.507,0,0,0,4.157-1.052c.108-.036.217-.084.327-.133a4.8,4.8,0,0,0,.567-.253c.086-.049.17-.1.243-.134a2.459,2.459,0,0,0,.206-.144,1.487,1.487,0,0,0,.325-.278,1.489,1.489,0,0,1-.011.157c0,.1-.013.254-.024.46-.011.266-.024.617-.048,1.052-.012.29-.024.615-.049.966-.036.665-.071,1.45-.109,2.345-.011.23-.024.458-.036.7a.547.547,0,0,0-.013.144c-.011.338-.036.689-.047,1.052s-.049.749-.061,1.136c-.036.712-.073,1.461-.121,2.248-.012.327-.024.665-.049,1-.023.482-.049.979-.071,1.486-.024.338-.037.689-.049,1.052-.073,1.342-.146,2.755-.23,4.253-.037.749-.073,1.523-.121,2.309s-.071,1.594-.12,2.429c-.061,1.147-.121,2.332-.181,3.541-.1,1.848-.194,3.782-.3,5.776-.049,1-.11,2.018-.157,3.057-.121,2.369-.254,4.834-.387,7.372-.108,1.825-.194,3.7-.3,5.608-.06,1.233-.133,2.478-.194,3.735q-.216,3.969-.434,8.145c-.278,5.124-.484,10.417-.629,15.843-.542,19.228-.337,40.1.4,60.546.278,7.239.6,14.418,1,21.451s.846,13.946,1.353,20.617Q829.81,868.481,830.475,875.727Z" transform="translate(-538.992 -323.653)"/><path class="j" d="M634.434,635.34c.031.108.078.2.109.311.11.281.22.578.313.889.031.063.047.125.078.2,2.823,7.94,16.66,46.938,16.66,46.953,5.194,13.587,14.99,28.1,24.022,35.441-6.13-22.2-25.24-86.544-24.506-112.47C647.459,631.658,634.434,635.324,634.434,635.34Z" transform="translate(-542.785 -355.963)"/><path class="j" d="M761.874,566.253s-47.726,112.431,55.747,169.875l2.067,1.62,1.574-27.2s-45.039-74.522-45.088-76.355S761.874,566.253,761.874,566.253Z" transform="translate(-493.032 -373.23)"/><path class="j" d="M723.022,502.142c.061,1.855-.921,3.073-3.9,2.668-9.3-1.265-19.794-1-27.423,2.495a6.477,6.477,0,0,1-6.271-.264c-4.883-2.854-7.908-11.372-9.11-15.147a2.619,2.619,0,0,1-.124-.826c15.334-3.417,26.909-2.746,31.135.9a22.967,22.967,0,0,0,14.337,5.569A12.663,12.663,0,0,1,723.022,502.142Z" transform="translate(-524.944 -406.306)"/><g class="k" transform="translate(195.715 358.638)"><path d="M708.161,686c-.274-.021-.548-.044-.813-.067C707.348,685.931,707.636,685.951,708.161,686Z" transform="translate(-707.348 -680.736)"/><path class="l" d="M707.918,687.553c21.73,1.734,69.223-1.337,69.223-1.337,13.956-.8,23.756-2.042,25.479-3.925,0,0,0,.057-.011.16-.1,2.181-1.354,27.143-3.111,59.863a16.047,16.047,0,0,1-2.284-.264c-4.888-.906-8.642-3.936-11.5-8.171a39.435,39.435,0,0,1-4.472-9.34C765.042,693.713,714.879,688.178,707.918,687.553Z" transform="translate(-707.105 -682.291)"/></g><g transform="translate(171.205)"><g transform="translate(4.335 7.812)"><path class="i" d="M704.719,458.2s35.556,19.713,25-11.937C722.419,424.371,680.471,444.1,704.719,458.2Z" transform="translate(-691.485 -436.485)"/><path class="i" d="M711.6,450.22s-19.893,11.8-17.975,23.645c0,0-4.386-35.353,15.394-36.241s27.437,1.021,25.68,38.4C734.7,476.028,728.954,446.291,711.6,450.22Z" transform="translate(-693.212 -436.061)"/></g><path class="i" d="M703.683,440.616s1-11.014,11.919-9.454,15.6,7.8,17.16,14.038,3.12,10.92,4.68,10.92c0,0-4.68,4.68-6.24,3.12,0,0,4.049,11.218-1.1,20.428,0,0-2.024-14.188-9.824-15.748S703.683,440.616,703.683,440.616Z" transform="translate(-684.404 -431.011)"/><path class="i" d="M710.453,437.972s-7.8-4.679-15.6,6.24l-4.68,9.36s1.56,1.56,4.68,0c0,0-1.422,10.991.068,17.2l4.611-18.755Z" transform="translate(-690.175 -428.462)"/></g><path class="j" d="M810.944,666s5.659-46.278-119.973-40.474,91,36.859,91,36.859Z" transform="translate(-535.372 -348.123)"/><g transform="translate(104.465 85.491)"><g transform="translate(0 185.894)"><path class="m" d="M704.77,643.49c-1.436-.611-16.265-11.147-24.64-12.587s-20.96-2.78-25.219-4.359c-5.008-1.858-6.462.076-.736,2.79,3.722,1.766,11.4,4.65,13.138,4.857.841.1-4.6-1.067-10.473-2.775-6.249-1.814-13-4.143-13.4-3.037-.784,2.145,17.123,8.511,20.32,9.112a81.555,81.555,0,0,1-8.417-1.694c-3.782-.981-8.07-2.683-9-1.955-1.459,1.148,7.933,5.708,15.852,7.445.12.271-2.5.474-11.768-2.222-.931-.271-3.374-.046-.387,1.631,6.29,3.528,8.735,5.511,18.169,6.545,9.2,1.01,19.529-.09,25.989,2.655Z" transform="translate(-643.414 -619.17)"/><path class="m" d="M678.195,634.039s-6.552-8.06-14.475-9.925c-4.709-1.109-4.5-2.3-5.286-2.72-2.6-1.4-.387,3.812,3.562,5.414,3.208,1.3,4.606,7.069,6.49,8.416s7.632,4,9.169,3.341S678.195,634.039,678.195,634.039Z" transform="translate(-637.478 -621.157)"/></g><path class="h" d="M838.317,523.083c27.24,28.5,45.6,54.436,51.972,135.507,3.233,41.13-1.621,81.628-4.97,102.923A25.392,25.392,0,0,1,866.2,782.162c-94.151,23.083-188.141-71.9-188.141-71.9-5.1-2.368,6.948-20.281,6.948-20.281,50.78,3.45,89.537,8.051,128.753,26.771-.2-.113-33.923-77.487-37.668-98.4C766.284,563.512,723.8,513.4,737.382,493.269,742.078,486.307,810.841,494.329,838.317,523.083Z" transform="translate(-629.151 -490.911)"/></g><g transform="translate(126.534 358.361)"><path class="n" d="M658.876,875.809l1.063-11.2,2.055-21.511,2.211-23.083,2.163-22.635,2.369-24.714,1.849-19.421,1.813-18.973L674.78,709.4l1.752-18.3.375-3.964.483-5.04" transform="translate(-658.876 -682.097)"/><path class="n" d="M675.066,874.369l.786-8.133,2.03-21.016,2.188-22.623,2.139-22.188L684.65,775.1l1.861-19.264,1.861-19.251,2.695-27.808,1.607-16.726.592-6.043.048-.544" transform="translate(-651.96 -680.657)"/><path class="n" d="M708.056,685.467l-.06.7-.508,6.308-1.366,16.931L703.85,737.4l-1.535,19.07-1.632,20.1-1.97,24.388-1.728,21.379L695.173,844.8l-1.619,19.989-.773,9.583" transform="translate(-644.391 -680.657)"/><line class="n" x2="0.489" y2="48.622" transform="translate(85.166 4.814)"/><path class="n" d="M732.831,874.369l.181-10.043.4-21.173.363-20.146.4-21.306.423-22.768.35-19.409.447-24.207.471-25.342.266-14.514.085-4.713.085-4.435V685.9l.012-.435" transform="translate(-627.28 -680.657)"/><path class="n" d="M749.945,685.366v.1l-.024,3.65-.085,17.958-.012,2.7-.145,26.986-.121,23.687-.1,19.517-.121,22.78-.109,21.656-.1,19.711-.109,20.919-.048,9.39" transform="translate(-620.381 -680.701)"/><path class="n" d="M763.8,685.366l.024,1.354.423,22.1.508,26.406.012.906.423,22.285.387,19.65.411,21.983.4,20.472.387,20.653.4,20.714.242,12.52" transform="translate(-614.05 -680.701)"/></g><path class="n" d="M658.57,700.739s129.558,6.116,163.789,0" transform="translate(-532.473 -315.771)"/><path class="n" d="M745.447,721.323c-45.331,10.266-88.712-5.964-88.712-5.964" transform="translate(-533.258 -309.525)"/><path class="n" d="M718.548,717.388s40.909,11.5,76.843,1.788" transform="translate(-506.848 -308.658)"/><path class="n" d="M655.174,727.712s32.668,17.1,85.729,8.384" transform="translate(-533.924 -304.247)"/><path class="n" d="M653.3,742.423s50.836,15.521,85.892,7.534" transform="translate(-534.725 -297.962)"/><path class="n" d="M651.421,757.038s25.89,20.3,85.919,11.192" transform="translate(-535.528 -291.718)"/><path class="n" d="M649.235,773.85s39.476,20.627,87.072,6.56" transform="translate(-536.462 -284.535)"/><path class="n" d="M647.2,789.25s27.961,19.847,87.626,8.319" transform="translate(-537.331 -277.956)"/><path class="n" d="M645.075,805.038s38.591,20.174,88.879,3.875" transform="translate(-538.239 -271.21)"/><path class="n" d="M644.158,818.021c-.532-.424-.785-.665-.785-.665" transform="translate(-538.966 -265.947)"/><path class="n" d="M719.851,732.774s17.091,14.113,74.983,3.637" transform="translate(-506.292 -302.085)"/><path class="n" d="M720.166,747.655s23.982,11.182,73.165,2.351" transform="translate(-506.157 -295.727)"/><path class="n" d="M719.346,764.171s37.031,11.154,74.335,0" transform="translate(-506.507 -288.67)"/><path class="n" d="M718.972,777.868s36,16,75.586,0" transform="translate(-506.667 -282.818)"/><path class="n" d="M718.548,792.906s34.272,12.026,77.185,0" transform="translate(-506.848 -276.393)"/><path class="n" d="M718.161,807.348s28.889,12.962,79.089,0" transform="translate(-507.014 -270.223)"/><path class="j" d="M735.105,515.234c.889,2.913,7.171,13.154,5.231,22.259s-44.1,99.956-61.467,111.7-48.733,25.087-48.733,25.087l85.7-118.571,4.737-40.471S729.549,497.028,735.105,515.234Z" transform="translate(-544.622 -398.484)"/><g transform="translate(160.836 77.922)"><path class="m" d="M699.719,518.312s5.234-9.167,4.095-17.359c-.677-4.87.527-5.111.639-6.01.37-2.982-3.755,1.035-3.825,5.364-.056,3.518-5.008,6.959-5.593,9.24s-.99,8.7.2,9.915S699.719,518.312,699.719,518.312Z" transform="translate(-677.973 -482.059)"/><path class="m" d="M701.393,545.618c.051-1.584,4.6-19.5,2.886-27.97s-5.144-23.144-5.209-27.758c-.077-5.429-2.443-6.1-2.916.325-.307,4.175-.136,14.772.3,16.492a67.033,67.033,0,0,1-1.6-10.854c-.21-3.627-1.066-2.192-2.276-1.855-2.235.624-1.256,6.745-.652,10a31.455,31.455,0,0,1-1.624-7.971c-.158-1.847-1.051-1.366-2.147-1.2s-1.556,1.5-.3,9.641c-.213.211-.547,2.256-1.394-7.516-.084-.982-2.953-2.969-3.059.512-.187,6.106-1.464,5.566,1.016,14.888,2.419,9.09,7.252,18.474,7.022,25.6Z" transform="translate(-682.91 -485.607)"/></g><path class="o" d="M732.629,517.065a224.148,224.148,0,0,0-80.942,27.319c-21.593,12.374-75.2,43.1-80.942,94.1-.5,4.456-4.3,42.813,19.224,58.683,15.742,10.62,35.536,5.646,40.792,4.326,9.339-2.346,21.833-7.606,70.5-72.116,27.66-36.66,41.823-59.084,52.612-89.036,1.813-5.034,3.163-9.257,4.048-12.142Z" transform="translate(-570.22 -394.245)"/></g></g></g></g></g></svg>