<svg xmlns="http://www.w3.org/2000/svg" xmlns:xlink="http://www.w3.org/1999/xlink" width="1366" height="771" viewBox="0 0 1366 771"><defs><style>.aa,.ah{fill:#fff}.a{fill:#d2c3db;}.b{fill:#eadff1;},.c,.p{fill:#fff;}.d,.f{fill:#d8a35d;}.d{fill-rule:evenodd;}.e{fill:#d29647;}.g{fill:#d19442;}.h{fill:#947dce;}.i{fill:#ffc84f;}.j{opacity:0.15;}.k{fill:#62548a;}.l{opacity:0.3;}.m{opacity:0.5;}.ac,.ad,.n,.y,.z{fill:none;}.n{stroke:#947dce;stroke-width:0.823px;}.aa,.ac,.ad,.ah,.n,.p,.y,.z{stroke-miterlimit:10;}.o{fill:#b3b3b3;}.p{stroke:#4f3b65;stroke-width:7.018px;}.q{fill:#ce521f;}.r{fill:#ebebeb;}.s{fill:#8e96a3;}.t{fill:#292929;}.u{fill:#d0d1d6;}.v{fill:#2b579a;}.w{fill:#f3f3f3;}.x{fill:#e6e6e6;}.y{stroke:#c6c6c6;stroke-width:0.165px;}.z{stroke:#000;stroke-width:0.082px;}.aa,.ac,.ad,.ah{stroke:#595959;}.aa{stroke-width:0.052px;}.ab{font-size:1.313px;}.ab,.ae{font-family:SegoeUI, Segoe UI;letter-spacing:0.011em;}.ac{stroke-width:0.032px;}.ad{stroke-width:0.028px;}.ae{font-size:1.799px;}.af{fill:#595959;}.ag{fill:red;}.ah{stroke-width:0.06px;}.ai{fill:#c6c6c6;}.aj{fill:#00a6f0;}.ak{fill:#007dd6;}.al{fill:#005ac0;}.am{fill:#003d94;}.an{opacity:0.1;}.an,.ao{isolation:isolate;}.ao{opacity:0.2;}.ap{fill:url(#a);}</style><linearGradient id="a" x1="0.17" y1="-17.965" x2="0.847" y2="-16.878" gradientUnits="objectBoundingBox"><stop offset="0" stop-color="#0068c7"/><stop offset="0.5" stop-color="#005dc1"/><stop offset="1" stop-color="#0044af"/></linearGradient></defs><g transform="translate(-1794.488 -955.535)"><path class="a" d="M3160.489,965.071v758.464l-242.228-67.587-32.991-6.263,1.636-558.092,30.118-25.56Z"/><path class="a" d="M2110.785,1081.006l-16.051,556.371-300.045,74.4V961.722l298.845,93.57Z"/><path class="b" d="M2492.466,1044.606H2067.858V1661.99h849.165V1044.606Z"/><path class="c" d="M1794.488,1016.315c121.657,30.38,335.7,73.888,615,80.372,352.971,8.194,622.428-47.1,751-78.7V955.535h-1366Z"/><path class="c" d="M1794.488,1678.218c121.657-29.39,335.7-71.48,615-77.753,352.971-7.927,622.428,45.568,751,76.133v47.19l-1365.8,2.747Z"/><path class="d" d="M2586.607,1477.523c-.595.75-9.249,7.8-11.467,12.524s-5.066,11.948-6.7,14.209c-1.917,2.661-1.01,3.836,1.531.892a51.194,51.194,0,0,0,5.018-6.981c.2-.481-1.382,2.546-3.351,5.744-2.093,3.4-4.573,7.013-3.984,7.433,1.142.813,7.83-8.742,8.708-10.535a50,50,0,0,1-2.377,4.7c-1.2,2.077-2.9,4.336-2.625,5,.441,1.05,4.672-3.762,6.992-8.164.18-.027-.128,1.555-3.235,6.6-.312.507-.578,1.99.9.495,3.115-3.145,4.686-4.268,6.839-9.681,2.1-5.278,3.134-11.568,5.811-14.942Z"/><path class="d" d="M2577.7,1486.829s-5.839,2.562-8.235,6.944c-1.424,2.605-2.1,2.289-2.473,2.684-1.253,1.313,2.193.851,3.785-1.224,1.294-1.686,4.933-1.571,6.038-2.466s3.612-3.863,3.473-4.879S2577.7,1486.829,2577.7,1486.829Z"/><path class="e" d="M2722.065,1549.235s-10.215,105.4-5.871,107.213c7.792,3.305,38.308,14.117,4.664,11.741-17.283,1.042-16.015-2.819-16.285-6.091-.22-2.674.287-97-.423-104.336l-.255-2.636Z"/><path class="f" d="M2650.828,1539.379s55.168,89.917,52.257,93.615c-5.2,6.681-26.594,30.978,1.64,12.528,15.6-7.5,12.617-10.258,11.261-13.248-1.109-2.442-9.272-21.121-12.222-27.875-.66-1.512-37.823-75.172-37.823-75.172Z"/><path class="g" d="M2692.6,1277.25s-.9,10.043,5.294,15.6-14.276,0-14.276,0,3.809-9.619,2.955-15.6S2692.6,1277.25,2692.6,1277.25Z"/><ellipse class="f" cx="10.83" cy="14.777" rx="10.83" ry="14.777" transform="translate(2678.502 1251.591)"/><path class="h" d="M2759.967,1373.881c-.181,2.8-2.443,13.2-5.627,24.5-.937,3.372-1.966,6.819-3.043,10.176-1.308,4.088-2.69,8.029-4.089,11.508-2.714,6.746-5.5,11.764-7.922,12.743-8.177,3.29-69.916,7.807-82.609,1.752-.3-.222-.617-.461-.921-.724-4.763-3.874-9.929-11.525-12.669-18.69,0-.008-7.3-20.574-8.785-24.761-.017-.042-.025-.074-.042-.107-.049-.165-.106-.321-.164-.469-.017-.058-.041-.107-.058-.165-7.683,26.234-28.126,83.851-44.661,102.106-1.735,1.916-9.723-8.835-9.723-8.835s-13.352-68.945,21.479-141.806c16.4-34.3,45.656-49.942,64.338-54.1,8.087-1.8,14.191-1.448,16.42.477a12.107,12.107,0,0,0,7.56,2.937,16.417,16.417,0,0,0,4.245-.386,21.162,21.162,0,0,0,4.5-1.531c.691-.32,1.094-.551,1.094-.551a43.922,43.922,0,0,1,11.434.683C2752.991,1296.916,2760.346,1367.786,2759.967,1373.881Z"/><path class="i" d="M2653.85,1432.129a6.67,6.67,0,0,0,3.789,1.748c8.9.175,47.358.834,68.218-.365,7.36-.424,12.528-1.077,13.436-2.07,0,0,0,.03-.006.085-.054,1.15-.714,14.314-1.64,31.569-1.828,34.062,1.693,82.848,5.806,97.655.888,3.2-46.89-1.645-46.89-1.645-.133-35.152,3.2-96.864,1.048-99.63-2.621-3.365-6.87,50.917-11.742,96.34-18.921,4.935-48.882,1.939-48.536,0C2641.447,1532.782,2653.85,1432.129,2653.85,1432.129Z"/><path class="j" d="M2634.043,1389.643c.016.058.041.107.057.165.058.148.116.3.165.469.016.033.025.065.041.107,1.489,4.187,8.786,24.753,8.786,24.761,2.739,7.165,7.905,14.816,12.668,18.69-3.233-11.706-13.31-45.64-12.923-59.312C2640.912,1387.7,2634.043,1389.635,2634.043,1389.643Z"/><path class="j" d="M2754.34,1398.38c-.937,3.372-1.966,6.819-3.043,10.176-1.308,4.088-2.69,8.029-4.089,11.508-24.177-28.948-10.99-68.311-10.99-68.311s10.217,34.172,10.324,35.134C2746.575,1387.233,2749.972,1392.16,2754.34,1398.38Z"/><path class="j" d="M2690.169,1292.852c.033.979-.485,1.621-2.057,1.407-4.9-.667-10.439-.527-14.462,1.316a3.417,3.417,0,0,1-3.307-.14c-2.574-1.505-4.17-6-4.8-7.988a1.378,1.378,0,0,1-.066-.436c8.087-1.8,14.191-1.448,16.42.477a12.108,12.108,0,0,0,7.56,2.937A6.682,6.682,0,0,1,2690.169,1292.852Z"/><path class="k" d="M2713.976,1625.675c-.565-1.428-9.954,3.967-10.423,5.643s-17.151,16.068-13.659,21.459,27.164-13.567,28.957-14.739S2715.086,1628.48,2713.976,1625.675Z"/><path class="k" d="M2703.967,1652.887c-.2-1.522,12.759.409,13.985,1.645s20.093,6.368,19.666,12.776-30.333,1.37-32.469,1.219S2704.363,1655.877,2703.967,1652.887Z"/><g class="l"><path d="M2689.352,1434.217l-.429-.035S2689.075,1434.192,2689.352,1434.217Z"/><path class="m" d="M2689.352,1434.217c11.459.915,36.5-.705,36.5-.705,7.36-.424,12.528-1.077,13.436-2.07,0,0,0,.03-.006.085-.054,1.15-.714,14.314-1.64,31.569a8.556,8.556,0,0,1-1.2-.139,9.378,9.378,0,0,1-6.065-4.31,20.8,20.8,0,0,1-2.358-4.925C2719.476,1437.466,2693.023,1434.547,2689.352,1434.217Z"/></g><path class="i" d="M2685.262,1257.886s18.75,10.4,13.185-6.3C2694.6,1240.043,2672.475,1250.445,2685.262,1257.886Z"/><path class="i" d="M2687.98,1253.9s-10.491,6.224-9.478,12.469c0,0-2.314-18.643,8.117-19.112s14.47.538,13.544,20.252C2700.163,1267.508,2697.132,1251.827,2687.98,1253.9Z"/><path class="i" d="M2686.165,1247.378s.526-5.809,6.285-4.986,8.226,4.113,9.049,7.4,1.645,5.759,2.468,5.759c0,0-2.468,2.468-3.291,1.645,0,0,2.135,5.916-.577,10.773,0,0-1.068-7.482-5.181-8.305S2686.165,1247.378,2686.165,1247.378Z"/><path class="i" d="M2686.691,1247.327s-4.113-2.468-8.226,3.291l-2.468,4.936s.823.822,2.468,0c0,0-.749,5.8.037,9.068l2.431-9.891Z"/><path class="d" d="M2813.43,1484.125c.431.7,7.095,7.6,8.506,11.855s3.1,10.711,4.262,12.806c1.364,2.466.47,3.376-1.4.6a44,44,0,0,1-3.569-6.468c-.119-.43.92,2.313,2.273,5.243,1.438,3.114,3.185,6.45,2.64,6.747-1.057.578-5.788-8.257-6.353-9.876a42.811,42.811,0,0,0,1.547,4.255c.81,1.894,2.036,4,1.729,4.536-.483.851-3.6-3.686-5.132-7.679-.15-.041-.05,1.341,2.087,5.961.214.464.29,1.756-.82.33-2.336-3-3.562-4.119-4.846-8.957-1.253-4.718-1.493-10.19-3.434-13.342Z"/><path class="d" d="M2821.021,1493.985s4.72,2.781,6.317,6.765c.949,2.367,1.554,2.166,1.836,2.542.935,1.248-1.958.5-3.1-1.43-.932-1.571-4.049-1.844-4.9-2.721s-2.687-3.664-2.465-4.517S2821.021,1493.985,2821.021,1493.985Z"/><line class="n" x1="12.133" y2="126.868" transform="translate(2650.073 1431.298)"/><line class="n" x1="12.041" y2="124.659" transform="translate(2662.205 1433.835)"/><line class="n" x1="10.013" y2="123.788" transform="translate(2676.003 1433.835)"/><line class="n" x2="0.258" y2="25.641" transform="translate(2697.353 1433.835)"/><line class="n" x1="2.323" y2="126.296" transform="translate(2707.613 1433.835)"/><line class="n" x1="0.647" y2="127.355" transform="translate(2720.117 1433.756)"/><line class="n" x2="2.45" y2="128.087" transform="translate(2731.406 1433.756)"/><path class="n" d="M2652.209,1445.327s68.323,3.226,86.376,0"/><path class="n" d="M2697.611,1459.476c-23.906,5.415-46.783-3.145-46.783-3.145"/><path class="n" d="M2697.353,1457.859s21.574,6.062,40.524.943"/><path class="n" d="M2649.653,1465.629s17.228,9.02,45.21,4.421"/><path class="n" d="M2648.243,1476.7s26.808,8.184,45.3,3.973"/><path class="n" d="M2646.829,1487.7s13.653,10.7,45.309,5.9"/><path class="n" d="M2645.183,1500.355a66.421,66.421,0,0,0,45.918,3.46"/><path class="n" d="M2643.652,1511.947s14.745,10.467,46.21,4.387"/><path class="n" d="M2642.052,1523.83s20.352,10.639,46.871,2.043"/><path class="n" d="M2640.771,1533.1s12.007,11.548,47.136,2.987"/><path class="n" d="M2639.262,1543.63s19.415,10.228,47.608,2.664"/><path class="n" d="M2698.333,1469.439s9.013,7.442,39.544,1.918"/><path class="n" d="M2698.57,1480.639s12.647,5.9,38.584,1.24"/><path class="n" d="M2697.953,1493.071s19.529,5.882,39.2,0"/><path class="n" d="M2697.672,1503.38s18.984,8.439,39.86,0"/><path class="n" d="M2697.353,1514.7s18.074,6.342,40.7,0"/><path class="n" d="M2697.061,1525.569s15.235,6.835,41.708,0"/><path class="n" d="M2697.061,1535.186s18.088,9.322,42.629.991"/><path class="n" d="M2696.626,1547.209a83.625,83.625,0,0,0,44.406.513"/><path class="h" d="M2739.69,1331.983s-53.044-41.978-40.4-44.026,33.339,2.928,33.339,2.928c18.682,4.154,36.519,18.191,52.915,52.487,34.83,72.861,32.9,143.415,32.9,143.415s-8.065,10.819-9.723,8.835c-30.773-36.82-50.561-73.784-58.909-98.653S2739.69,1331.983,2739.69,1331.983Z"/><path class="o" d="M2394.394,1536.627H1980.789l60.117-72.141H2346.3Z"/><rect class="o" width="19.237" height="165.923" transform="translate(1995.217 1536.627)"/><rect class="o" width="13.226" height="195.982" transform="translate(2039.703 1464.487)"/><rect class="o" width="13.226" height="195.982" transform="translate(2331.872 1464.487)"/><rect class="o" width="19.237" height="165.923" transform="translate(2361.931 1536.627)"/><path class="p" d="M2953.915,1207.685V1413.46c0,.353.351.653.828.708l68.944,8,21.89,2.53,79.581,9.239c.6.069,1.136-.268,1.136-.709V1187.913c0-.441-.54-.778-1.136-.709l-79.581,9.238-21.89,2.53-68.944,8C2954.266,1207.032,2953.915,1207.332,2953.915,1207.685Z"/><path class="q" d="M2125.582,1446.8h0a.479.479,0,0,1-.3-.608l.368-1.063.9.312-.367,1.064A.48.48,0,0,1,2125.582,1446.8Z"/><path class="q" d="M2130.615,1448.545h0a.478.478,0,0,1-.295-.607l.368-1.064c.025-.072.9.322.9.322l-.365,1.054A.479.479,0,0,1,2130.615,1448.545Z"/><path class="r" d="M2125.481,1446.6h0a.479.479,0,0,1-.295-.608l.4-1.164a.48.48,0,0,1,.608-.3h0a.479.479,0,0,1,.3.608l-.4,1.164A.48.48,0,0,1,2125.481,1446.6Z"/><path class="r" d="M2130.5,1448.337h0a.48.48,0,0,1-.3-.608l.4-1.164a.48.48,0,0,1,.608-.3h0a.479.479,0,0,1,.295.608l-.4,1.164A.48.48,0,0,1,2130.5,1448.337Z"/><rect class="s" width="3.134" height="2.032" transform="translate(2124.497 1457.652) rotate(19.081)"/><rect class="s" width="3.134" height="2.032" transform="translate(2125.77 1454.266) rotate(19.081)"/><path class="t" d="M2269.931,1518.186l-159.138,3.154a3.538,3.538,0,0,1-3.892-3.411l-.047-2.384,16.781-32.533a5.546,5.546,0,0,1,4.905-3.178l121.781-2.413c2.273-.045,7.373,4.331,8.429,6.344l14.951,29.011.021,1.052C2273.818,1516.879,2271.87,1518.148,2269.931,1518.186Z"/><path class="u" d="M2269.879,1514.816l-159.139,3.154c-1.767.035-4.707-1.457-3.652-3.384l16.5-34.944a5.546,5.546,0,0,1,4.905-3.178l121.781-2.413a6,6,0,0,1,5.431,3.211l17.681,33.694C2274.616,1513.1,2271.817,1514.778,2269.879,1514.816Z"/><rect class="u" width="130.348" height="82.366" rx="4.766" transform="matrix(1, -0.02, 0.02, 1, 2121.863, 1394.153)"/><rect class="t" width="120.292" height="71.371" transform="matrix(1, -0.02, 0.02, 1, 2126.955, 1398.546)"/><path class="t" d="M2213.347,1514.439l-46.892.929a.845.845,0,0,1-.854-.962l1.733-12.391a1.373,1.373,0,0,1,1.333-1.183l42.294-.838a1.208,1.208,0,0,1,1.215,1.009l2.058,12.385A.915.915,0,0,1,2213.347,1514.439Z"/><path class="v" d="M2252.985,1496.612l-127.406,2.525c-1.414.028-2.5-.494-2.291-1.1l5.087-14.526c.274-.783,1.824-1.386,3.658-1.423l114.915-2.277c1.628-.032,3.02.454,3.269,1.141l5.212,14.4C2255.634,1495.993,2254.486,1496.582,2252.985,1496.612Z"/><rect class="u" width="132.89" height="0.671" transform="matrix(1, -0.02, 0.02, 1, 2122.66, 1484.762)"/><rect class="u" width="132.89" height="0.671" transform="matrix(1, -0.02, 0.02, 1, 2122.726, 1488.117)"/><rect class="u" width="132.89" height="0.671" transform="matrix(1, -0.02, 0.02, 1, 2122.806, 1492.143)"/><rect class="u" width="132.89" height="0.671" transform="matrix(1, -0.02, 0.02, 1, 2122.879, 1495.834)"/><rect class="u" width="1.007" height="22.148" transform="matrix(0.96, 0.281, -0.281, 0.96, 2138.645, 1479.097)"/><rect class="u" width="1.007" height="22.148" transform="matrix(0.96, 0.281, -0.281, 0.96, 2148.375, 1478.905)"/><rect class="u" width="1.007" height="22.148" transform="matrix(0.96, 0.281, -0.281, 0.96, 2156.092, 1478.752)"/><rect class="u" width="1.007" height="22.148" transform="matrix(0.96, 0.281, -0.281, 0.96, 2163.808, 1478.599)"/><rect class="u" width="1.007" height="22.148" transform="matrix(0.96, 0.281, -0.281, 0.96, 2171.861, 1478.439)"/><rect class="u" width="1.007" height="22.148" transform="translate(2180.026 1478.026) rotate(9.843)"/><rect class="u" width="1.007" height="22.148" transform="matrix(1, -0.02, 0.02, 1, 2186.966, 1477.782)"/><rect class="u" width="1.007" height="22.148" transform="translate(2239.043 1477.41) rotate(-18.574)"/><rect class="u" width="1.007" height="22.148" transform="translate(2229.649 1477.596) rotate(-18.574)"/><rect class="u" width="1.007" height="22.148" transform="translate(2220.255 1477.782) rotate(-18.574)"/><rect class="u" width="1.007" height="22.148" transform="translate(2210.86 1477.968) rotate(-18.574)"/><rect class="u" width="1.007" height="22.148" transform="translate(2201.466 1478.154) rotate(-18.574)"/><rect class="u" width="1.007" height="22.148" transform="translate(2192.072 1478.34) rotate(-18.574)"/><rect class="v" width="105.489" height="5.204" transform="translate(2134.726 1400.754) rotate(-1.088)"/><rect class="w" width="105.489" height="7.59" transform="translate(2134.825 1405.957) rotate(-1.088)"/><rect class="w" width="4.784" height="2.852" transform="translate(2139.784 1403.448) rotate(-1.088)"/><rect class="x" width="105.489" height="53.818" transform="translate(2134.969 1413.546) rotate(-1.088)"/><rect class="c" width="67.479" height="49.471" transform="translate(2153.094 1417.549) rotate(-1.088)"/><line class="y" x2="0.129" y2="6.806" transform="translate(2148.392 1406.137)"/><line class="y" x2="0.129" y2="6.806" transform="translate(2171.18 1405.704)"/><line class="y" x2="0.129" y2="6.806" transform="translate(2190.266 1405.341)"/><line class="y" x2="0.129" y2="6.806" transform="translate(2229.104 1404.604)"/><line class="y" x2="0.129" y2="6.806" transform="translate(2236.232 1404.469)"/><path class="z" d="M2147.578,1412.938l-.01-.535.575-.011"/><line class="z" x2="0.351" y2="0.338" transform="translate(2147.825 1412.634)"/><path class="z" d="M2148.179,1412.628l.007.345-.368.007"/><path class="z" d="M2170.412,1412.5l-.01-.535.575-.011"/><line class="z" x2="0.351" y2="0.338" transform="translate(2170.659 1412.201)"/><path class="z" d="M2171.013,1412.194l.006.345-.368.007"/><path class="z" d="M2189.521,1412.141l-.01-.535.575-.011"/><line class="z" x2="0.351" y2="0.338" transform="translate(2189.768 1411.838)"/><path class="z" d="M2190.122,1411.831l.007.345-.368.007"/><path class="z" d="M2228.281,1411.405l-.01-.535.575-.011"/><line class="z" x2="0.351" y2="0.338" transform="translate(2228.529 1411.102)"/><path class="z" d="M2228.882,1411.095l.007.345-.368.007"/><rect class="aa" width="9.885" height="1.658" transform="translate(2149.342 1406.949) rotate(-1.088)"/><text class="ab" transform="translate(2149.78 1408.204) rotate(-1.088)"><tspan x="0" y="0">Fonts</tspan></text><path class="ac" d="M2158.356,1407.5l-.354.368-.367-.354"/><rect class="aa" width="5.087" height="1.658" transform="translate(2160.054 1406.746) rotate(-1.088)"/><text class="ab" transform="translate(2160.636 1407.998) rotate(-1.088)"><tspan x="0" y="0">size</tspan></text><path class="ad" d="M2164.456,1407.384l-.317.329-.329-.317"/><text class="ae" transform="translate(2161.533 1411.425) rotate(-1.088)"><tspan x="0" y="0">A</tspan></text><path class="af" d="M2163.874,1410.632l.272.262.262-.272Z"/><rect class="ag" width="2.244" height="0.519" transform="translate(2160.951 1411.453) rotate(-1.088)"/><rect class="ah" width="5.454" height="1.721" transform="translate(2149.406 1410.314) rotate(-1.088)"/><path d="M2150.683,1411.073a.336.336,0,0,1,.153.063.143.143,0,0,1,.052.111.153.153,0,0,1-.035.1.176.176,0,0,1-.089.062.59.59,0,0,1-.156.019h-.078c-.03,0-.053,0-.07,0s-.052,0-.089.006l-.032,0c-.013,0-.02,0-.02-.013s0-.012.015-.013a.139.139,0,0,0,.045-.012.048.048,0,0,0,.022-.023.109.109,0,0,0,.007-.051v-.228q0-.106-.006-.171a.337.337,0,0,0-.01-.082.048.048,0,0,0-.017-.026.075.075,0,0,0-.034-.008.062.062,0,0,1-.025,0,.012.012,0,0,1-.006-.011.013.013,0,0,1,.011-.013.485.485,0,0,1,.065,0c.066,0,.127,0,.183-.01l.081-.006a.237.237,0,0,1,.145.038.126.126,0,0,1,.056.105C2150.852,1410.981,2150.8,1411.037,2150.683,1411.073Zm-.135-.005c.112,0,.167-.051.166-.148a.138.138,0,0,0-.032-.1.1.1,0,0,0-.07-.03.206.206,0,0,0-.069.015c0,.033,0,.067,0,.1S2150.544,1410.995,2150.548,1411.068Zm0,.038c0,.069,0,.127,0,.173a.388.388,0,0,0,.009.1c.005.008.021.013.047.012a.137.137,0,0,0,.1-.04.144.144,0,0,0,.033-.1.167.167,0,0,0-.038-.108.142.142,0,0,0-.112-.04Z"/><path d="M2153.368,1410.743l.233,0c.014,0,.02,0,.02.008s0,.009-.014.01a.082.082,0,0,0-.049.019.106.106,0,0,0-.023.053,1.071,1.071,0,0,0,0,.162,1.5,1.5,0,0,0,.013.205.135.135,0,0,0,.055.09.252.252,0,0,0,.249,0,.145.145,0,0,0,.054-.094,1.759,1.759,0,0,0,.007-.267.286.286,0,0,0-.024-.138.073.073,0,0,0-.065-.031c-.012,0-.018,0-.018-.01s.008-.009.023-.009l.186,0c.008,0,.013,0,.013.009s0,.007-.01.008a.087.087,0,0,0-.052.024.106.106,0,0,0-.02.062,1.275,1.275,0,0,0,0,.133,1.81,1.81,0,0,1,0,.186.258.258,0,0,1-.033.115.193.193,0,0,1-.081.062.394.394,0,0,1-.271,0,.153.153,0,0,1-.079-.067.313.313,0,0,1-.022-.127v-.129a.784.784,0,0,0-.019-.21.06.06,0,0,0-.063-.039c-.011,0-.016,0-.016-.007S2153.355,1410.743,2153.368,1410.743Z"/><path d="M2153.332,1411.473v-.048l.725-.013v.047Z"/><path d="M2152.382,1410.759c.006,0,.008.005.008.009s0,.008-.01.009a.125.125,0,0,0-.057.017.083.083,0,0,0-.027.035c-.007.016-.021.065-.042.146s-.038.157-.054.227a.923.923,0,0,0-.022.124c0,.029.018.045.053.047.015,0,.023.005.023.011s-.006.009-.019.009h-.17l-.066,0c-.01,0-.015,0-.015-.008s.007-.01.023-.013a.106.106,0,0,0,.061-.025.175.175,0,0,0,.029-.074l.046-.191.04-.173a.664.664,0,0,0,.017-.081c0-.033-.025-.051-.072-.053-.01,0-.015,0-.015-.01s0-.006,0-.007l.025,0Z"/><text class="ab" transform="translate(2140.436 1404.921) rotate(-1.088)"><tspan x="0" y="0">Home</tspan></text><rect class="ai" width="43.421" height="0.854" transform="translate(2165.201 1421.528) rotate(-1.088)"/><rect class="ai" width="43.421" height="0.427" transform="translate(2155.831 1426.504) rotate(-1.088)"/><rect class="ai" width="43.421" height="0.427" transform="translate(2155.86 1428.059) rotate(-1.088)"/><rect class="ai" width="43.421" height="0.427" transform="translate(2155.89 1429.614) rotate(-1.088)"/><rect class="ai" width="43.421" height="0.427" transform="translate(2155.919 1431.169) rotate(-1.088)"/><rect class="ai" width="43.421" height="0.427" transform="translate(2155.949 1432.723) rotate(-1.088)"/><rect class="ai" width="43.421" height="0.427" transform="translate(2155.979 1434.278) rotate(-1.088)"/><rect class="ai" width="43.421" height="0.427" transform="translate(2156.008 1435.833) rotate(-1.088)"/><rect class="ai" width="43.421" height="0.427" transform="translate(2156.038 1437.388) rotate(-1.088)"/><rect class="ai" width="57.609" height="0.427" transform="translate(2156.067 1438.943) rotate(-1.088)"/><rect class="ai" width="57.609" height="0.427" transform="translate(2156.097 1440.497) rotate(-1.088)"/><path class="aj" d="M3078.634,1257.138l-72.431,3.294a4.589,4.589,0,0,0-4.223,4.652h0v19.871l40.492,11.705,41.013-13.558v-21.385a4.573,4.573,0,0,0-4.851-4.579Z"/><path class="ak" d="M3083.485,1283.1l-81.505,1.853v24.331l40.492,7.576,41.013-7.576Z"/><path class="al" d="M3001.98,1309.286v24.331l38.026,5.9,43.479-4.05v-26.185Z"/><path class="am" d="M3006.2,1358.141l72.431,3.293a4.574,4.574,0,0,0,4.852-4.579h0v-21.384l-81.506-1.854v19.872a4.591,4.591,0,0,0,4.223,4.652Z"/><path class="an" d="M3030.652,1279.306l-28.672.783v60.828l28.672.847a4.386,4.386,0,0,0,4.453-4.466v-53.515A4.4,4.4,0,0,0,3030.652,1279.306Z"/><path class="ao" d="M3028.237,1281.865l-26.257.657v60.828l26.257.836a4.361,4.361,0,0,0,4.434-4.447v-53.4A4.4,4.4,0,0,0,3028.237,1281.865Z"/><path class="ao" d="M3028.237,1281.865l-26.257.657v55.962l26.257.716a4.385,4.385,0,0,0,4.434-4.467v-48.391A4.4,4.4,0,0,0,3028.237,1281.865Z"/><path class="ao" d="M3025.834,1281.925l-23.854.6v55.962l23.854.65a4.369,4.369,0,0,0,4.414-4.457v-48.285A4.382,4.382,0,0,0,3025.834,1281.925Z"/><path class="ap" d="M2983.558,1282.982l42.276-1.057a4.368,4.368,0,0,1,4.414,4.467v45.788a4.368,4.368,0,0,1-4.414,4.467l-42.276-1.057a4.343,4.343,0,0,1-4.047-4.468V1287.45A4.344,4.344,0,0,1,2983.558,1282.982Z"/><path class="c" d="M2996.322,1316.687c.082.686.137,1.282.162,1.793h.1q.054-.725.227-1.748c.116-.682.219-1.259.312-1.73l4.4-20.206,5.747-.078,4.656,20.057a31.211,31.211,0,0,1,.582,3.8h.078a30.32,30.32,0,0,1,.487-3.683l3.75-20.315,5.379-.073-6.635,29.461-6.2-.084-4.4-19.321c-.127-.553-.273-1.277-.432-2.166s-.258-1.539-.3-1.949h-.076q-.077.71-.3,2.108t-.355,2.069l-4.095,19.118-6.122-.083-6.323-28.667,5.179-.07,3.928,20.115C2996.157,1315.452,2996.241,1316,2996.322,1316.687Z"/></g></svg>