<svg xmlns="http://www.w3.org/2000/svg" xmlns:xlink="http://www.w3.org/1999/xlink" width="437" height="394"
     viewBox="0 0 437 394">
    <defs>
        <style>
            .a,.o{fill:none;}.b{clip-path:url(#a);}.c,.d{fill:#d8a35d;}.c{fill-rule:evenodd;}.e{fill:#d19442;}.f{fill:#947dce;}.g{fill:#ffc84f;}.h{opacity:0.15;}.i{fill:#62548a;}.j{opacity:0.3;}.k{opacity:0.5;}.l{fill:#999;}.m{fill:#ccc;}.n{fill:gray;}.o{stroke:#947dce;stroke-miterlimit:10;stroke-width:1.154px;}
        </style>
        <clipPath id="a">
            <rect class="a" width="437" height="394" transform="translate(0 0.34)"/>
        </clipPath>
    </defs>
    <g transform="translate(-479.517 -421.283)">
        <g class="b" transform="translate(479.517 420.943)">
            <g transform="translate(7.729 11.996)">
                <g transform="translate(0 43.075)">
                    <path class="c"
                          d="M528.488,482.526c-2.587-6.321-10.8-11.254-16.308-12.775-3.271-.9-5.727-2.514-7.011-2.947-4.263-1.439,2.482,4.642,5.031,5.664,2.071.829,5.781,6.994,7.812,9.109s6.383,5.179,8.724,5.2S528.153,483.7,528.488,482.526Z"
                          transform="translate(-482.124 -466.585)"/>
                    <path class="c"
                          d="M546.479,503.052c-4.945-8.881-8.647-19.432-18.144-23.84s-23.707-4.336-31.252-5.49c-8.877-1.359-5.155,1.531-.479,2.784,3.039.814,12.869,3.727,15.94,3.705,1.488-.011-12.088-2.289-12.816-2.085s-14.811-3.64-13.855-1.049c1.855,5.024,17.76,5.664,22.827,6.769-2.673-.1-7.017-.9-9.592-1-2.186-.09-8.785-2.494-9.436-.485-1.025,3.166,15.261,5.225,17.427,5.4-2.143,1.722-10.315-.858-13.163-1.054-.287-.019-2.88.6.239,1.7,6.565,2.311,11.648,4.425,19.155,5.534s16.309,2.264,21.312,9.12C538.649,502.836,542.569,503.536,546.479,503.052Z"
                          transform="translate(-485.826 -465.188)"/>
                </g>
                <path class="d"
                      d="M750.211,861.564s-17.288,178.391-9.936,181.461c13.188,5.594,64.837,23.894,7.894,19.872-29.251,1.763-27.105-4.773-27.563-10.31-.373-4.524.486-164.176-.716-176.59-.269-2.78-.432-4.461-.432-4.461Z"
                      transform="translate(-437.667 -342.091)"/>
                <path class="d"
                      d="M661.872,862s7.495,178.391.144,181.461c-13.188,5.594-64.837,23.893-7.894,19.872,29.251,1.763,27.105-4.773,27.563-10.31.373-4.524,3.691-38.865,4.893-51.281.269-2.78,6-142.3,6-142.3Z"
                      transform="translate(-456.536 -342.529)"/>
                <path class="e"
                      d="M706.206,480.669s-1.523,17,8.962,26.4-24.164,0-24.164,0,6.448-16.28,5-26.4S706.206,480.669,706.206,480.669Z"
                      transform="translate(-443.532 -421.534)"/>
                <ellipse class="d" cx="18.331" cy="25.01" rx="18.331" ry="25.01" transform="translate(238.813 15.705)"/>
                <path class="f"
                      d="M575.26,585.5c27.748-58.045,77.273-84.527,108.893-91.559,13.687-3.049,24.018-2.451,27.791.808a20.5,20.5,0,0,0,12.8,4.971,27.7,27.7,0,0,0,7.185-.655,35.752,35.752,0,0,0,7.615-2.59c1.17-.543,1.851-.932,1.851-.932a74.3,74.3,0,0,1,19.354,1.155c71.537,14.007,83.986,133.956,83.345,144.272-.391,6.14-6.74,33.96-14.676,58.687-6.5,20.3-14.09,38.526-20.327,41.046-13.84,5.569-118.334,13.213-139.818,2.966-.5-.376-1.044-.78-1.56-1.225-8.062-6.558-16.8-19.507-21.441-31.633,0-.014-12.351-34.822-14.87-41.91-.028-.07-.042-.125-.07-.181-.083-.279-.181-.543-.279-.794-.028-.1-.069-.181-.1-.279"
                      transform="translate(-467.391 -418.283)"/>
                <path class="g"
                      d="M654.01,697.434a11.3,11.3,0,0,0,6.414,2.959c15.068.3,80.154,1.411,115.46-.619,12.456-.716,21.2-1.824,22.74-3.5,0,0,0,.051-.01.143-.093,1.945-1.209,24.225-2.777,53.431-3.094,57.651,2.866,140.222,9.828,165.284,1.5,5.409-79.362-2.785-79.362-2.785-.226-59.5,5.42-163.944,1.773-168.625-4.435-5.7-11.627,86.177-19.873,163.056-32.023,8.354-82.734,3.282-82.148,0C633.018,867.789,654.01,697.434,654.01,697.434Z"
                      transform="translate(-456.921 -376.164)"/>
                <path class="h"
                      d="M621.438,641.99c.028.1.07.181.1.279.1.251.194.515.279.794.028.056.041.111.069.181,2.521,7.087,14.87,41.9,14.87,41.909,4.636,12.127,13.38,25.076,21.442,31.633-5.472-19.813-22.528-77.246-21.873-100.387C633.064,638.7,621.438,641.976,621.438,641.99Z"
                      transform="translate(-457.872 -392.628)"/>
                <path class="h"
                      d="M761.172,568.821S726.543,672.194,822.62,716.1l1.953,1.3-.5-24.315s-45.272-63.173-45.444-64.8S761.172,568.821,761.172,568.821Z"
                      transform="translate(-430.32 -402.436)"/>
                <path class="h"
                      d="M707.34,503.823c.055,1.657-.821,2.743-3.481,2.381-8.3-1.128-17.669-.891-24.477,2.228a5.78,5.78,0,0,1-5.6-.236c-4.358-2.549-7.06-10.151-8.132-13.52a2.33,2.33,0,0,1-.111-.738c13.687-3.049,24.018-2.451,27.791.808a20.5,20.5,0,0,0,12.8,4.971A11.288,11.288,0,0,1,707.34,503.823Z"
                      transform="translate(-448.78 -418.283)"/>
                <path class="i"
                      d="M684.442,1010.8c.34-2.576-17.986-2.335-20.059-.242s-38.6,9.627-37.873,20.474,51.339,2.318,54.954,2.064S683.771,1015.859,684.442,1010.8Z"
                      transform="translate(-456.829 -311.715)"/>
                <path class="i"
                      d="M719.577,1007.176c-.34-2.575,21.6.692,23.669,2.785s34.008,10.778,33.286,21.625-51.339,2.318-54.955,2.064S720.248,1012.238,719.577,1007.176Z"
                      transform="translate(-437.664 -312.271)"/>
                <g class="j" transform="translate(256.451 320.107)">
                    <path d="M699.174,700.175c-.245-.019-.488-.04-.726-.06C698.448,700.115,698.706,700.133,699.174,700.175Z"
                          transform="translate(-698.448 -695.479)"/>
                    <path class="k"
                          d="M699.05,700.968c19.4,1.547,61.787-1.194,61.787-1.194,12.456-.716,21.2-1.824,22.74-3.5,0,0,0,.051-.01.143-.093,1.945-1.209,24.225-2.777,53.431a14.522,14.522,0,0,1-2.038-.235c-4.364-.809-7.713-3.515-10.264-7.294a35.221,35.221,0,0,1-3.991-8.337C750.037,706.465,705.264,701.526,699.05,700.968Z"
                          transform="translate(-698.324 -696.271)"/>
                </g>
                <g transform="translate(234.575)">
                    <g transform="translate(3.869 6.973)">
                        <path class="g"
                              d="M694.451,456.04s31.735,17.6,22.315-10.655C710.249,425.841,672.807,443.447,694.451,456.04Z"
                              transform="translate(-682.639 -436.654)"/>
                        <path class="g"
                              d="M699.931,449.076s-17.755,10.534-16.043,21.1c0,0-3.915-31.554,13.739-32.347s24.489.912,22.923,34.277C720.55,472.11,715.42,445.569,699.931,449.076Z"
                              transform="translate(-683.519 -436.438)"/>
                    </g>
                    <path class="g"
                          d="M694.578,439.446s.891-9.831,10.638-8.439,13.924,6.962,15.316,12.531,2.785,9.747,4.177,9.747c0,0-4.177,4.177-5.569,2.785,0,0,3.614,10.013-.978,18.233,0,0-1.807-12.664-8.769-14.056S694.578,439.446,694.578,439.446Z"
                          transform="translate(-677.37 -430.872)"/>
                    <path class="g"
                          d="M698.41,438.062s-6.961-4.177-13.922,5.57l-4.177,8.354s1.392,1.392,4.177,0c0,0-1.269,9.81.062,15.348l4.115-16.74Z"
                          transform="translate(-680.311 -429.573)"/>
                </g>
                <g transform="translate(211.232 171.258)">
                    <path class="l"
                          d="M661.1,598.836l17.654,113.1A12.08,12.08,0,0,0,692.543,722l77.19-12.058a3.77,3.77,0,0,0,.543-.111,12.035,12.035,0,0,0,9.509-13.673l-17.654-113.1a12.059,12.059,0,0,0-13.784-10.053L674.735,584.5l-3.579.556A12.06,12.06,0,0,0,661.1,598.836Z"
                          transform="translate(-660.957 -572.861)"/>
                    <path class="m"
                          d="M664.521,598.167l17.654,113.1a12.058,12.058,0,0,0,13.784,10.052l73.613-11.486a12.035,12.035,0,0,0,9.509-13.673l-17.654-113.1a12.059,12.059,0,0,0-13.784-10.053L674.03,584.5A12.033,12.033,0,0,0,664.521,598.167Z"
                          transform="translate(-660.253 -572.861)"/>
                    <circle class="n" cx="9.318" cy="9.318" r="9.318" transform="translate(53.017 65.933)"/>
                </g>
                <path class="h" d="M796.917,665.754s1.81-41.573-109.576-27.651,83.539,26.454,83.539,26.454Z"
                      transform="translate(-451.374 -388.742)"/>
                <g transform="translate(190.697 73.573)">
                    <g transform="translate(0 172.588)">
                        <path class="c"
                              d="M699.574,652.588c-1.32-.443-15.249-8.785-22.8-9.483s-18.847-1.012-22.745-2.12c-4.587-1.3-5.746.517-.461,2.535,3.434,1.31,10.47,3.342,12.029,3.406.755.03-4.166-.631-9.514-1.739-5.686-1.178-11.853-2.781-12.135-1.768-.548,1.964,15.829,6.379,18.716,6.692a72.656,72.656,0,0,1-7.607-.922c-3.433-.61-7.367-1.825-8.141-1.113-1.217,1.123,7.457,4.526,14.626,5.519.125.233-2.19.6-10.626-1.157-.848-.176-3.006.194-.23,1.477,5.843,2.7,8.156,4.3,16.623,4.559,8.257.257,17.372-1.443,23.311.55Z"
                              transform="translate(-643.932 -633.812)"/>
                        <path class="c"
                              d="M677.5,645s-6.393-6.715-13.571-7.823c-4.267-.657-4.167-1.732-4.9-2.053-2.415-1.063-.077,3.419,3.548,4.57,2.945.935,4.591,5.968,6.361,7.037s7.07,3.026,8.392,2.334S677.5,645,677.5,645Z"
                              transform="translate(-641.022 -634.963)"/>
                    </g>
                    <path class="f"
                          d="M811.187,514.5c26.227,23.465,44.374,45.26,55.693,116.955,5.744,36.375,4.248,72.748,2.753,91.93A22.663,22.663,0,0,1,854.057,743.1c-82.169,27.1-172.427-50.866-172.427-50.866-4.705-1.751,4.768-18.531,4.768-18.531,45.427-.471,80.236.921,116.435,14.845-.183-.086-35.587-66.586-40.378-84.933-12.547-48.11-53.848-89.745-43.162-108.6C722.986,488.489,784.733,490.834,811.187,514.5Z"
                          transform="translate(-636.431 -491.871)"/>
                </g>
                <g transform="translate(190.696 319.863)">
                    <line class="o" x1="20.535" y2="214.727"/>
                    <line class="o" x1="20.38" y2="210.988" transform="translate(20.535 4.295)"/>
                    <line class="o" x1="16.948" y2="209.513" transform="translate(43.888 4.295)"/>
                    <line class="o" x2="0.437" y2="43.398" transform="translate(80.023 4.295)"/>
                    <line class="o" x1="3.932" y2="213.758" transform="translate(97.388 4.295)"/>
                    <line class="o" x1="1.095" y2="215.552" transform="translate(118.551 4.161)"/>
                    <line class="o" x2="4.146" y2="216.789" transform="translate(137.659 4.161)"/>
                </g>
                <path class="o" d="M646.93,715.755s115.638,5.459,146.192,0" transform="translate(-452.617 -372.148)"/>
                <path class="o" d="M724.172,736.52c-40.46,9.164-79.18-5.323-79.18-5.323"
                      transform="translate(-453.017 -368.964)"/>
                <path class="o" d="M710.278,733.34s36.514,10.261,68.587,1.6" transform="translate(-439.559 -368.523)"/>
                <path class="o" d="M643.343,744.244s29.158,15.266,76.518,7.483"
                      transform="translate(-453.357 -366.275)"/>
                <path class="o" d="M641.364,759.782s45.374,13.853,76.663,6.724"
                      transform="translate(-453.765 -363.072)"/>
                <path class="o" d="M639.379,775.218s23.109,18.115,76.688,9.989"
                      transform="translate(-454.174 -359.89)"/>
                <path class="o" d="M637.07,792.974s35.236,18.41,77.717,5.855" transform="translate(-454.65 -356.23)"/>
                <path class="o" d="M634.922,809.24s24.957,17.715,78.212,7.425"
                      transform="translate(-455.092 -352.877)"/>
                <path class="o" d="M632.677,825.914s34.445,18.006,79.329,3.459"
                      transform="translate(-455.555 -349.44)"/>
                <path class="o" d="M630.88,838.928s20.321,19.545,79.777,5.056"
                      transform="translate(-455.926 -346.757)"/>
                <path class="o" d="M628.762,853.7s32.86,17.312,80.576,4.51" transform="translate(-456.362 -343.712)"/>
                <path class="o" d="M711.654,749.59s15.255,12.6,66.927,3.246" transform="translate(-439.275 -365.173)"/>
                <path class="o" d="M711.987,765.307s21.405,9.981,65.3,2.1" transform="translate(-439.207 -361.933)"/>
                <path class="o" d="M711.121,782.752s33.053,9.956,66.348,0" transform="translate(-439.385 -358.337)"/>
                <path class="o" d="M710.726,797.218s32.131,14.284,67.464,0" transform="translate(-439.467 -355.355)"/>
                <path class="o" d="M710.278,813.1s30.59,10.735,68.892,0" transform="translate(-439.559 -352.081)"/>
                <path class="o" d="M709.869,828.355s25.785,11.568,70.591,0" transform="translate(-439.643 -348.937)"/>
                <path class="o" d="M709.869,841.851s30.614,15.776,72.15,1.676"
                      transform="translate(-439.643 -346.155)"/>
                <path class="o" d="M709.258,858.722s34.822,11.8,75.158.868" transform="translate(-439.769 -342.677)"/>
                <path class="f"
                      d="M643.028,669.7s-84.751,35.955-105.315-41.588,7.711-94.694-18.851-126.816L536,488.028s59.12,31.274,76.685,80.113S643.028,669.7,643.028,669.7Z"
                      transform="translate(-479.017 -419.09)"/>
            </g>
        </g>
    </g>
</svg>
