<svg xmlns="http://www.w3.org/2000/svg" xmlns:xlink="http://www.w3.org/1999/xlink" width="732.548" height="219.526" viewBox="0 0 732.548 219.526"><defs><style>.a{fill:#00a6f0;}.b{fill:#007dd6;}.c{fill:#005ac0;}.d{fill:#003d94;}.e{opacity:0.1;}.e,.f{isolation:isolate;}.f{opacity:0.2;}.g{fill:url(#a);}.h{fill:#fff;}.i{fill:#00a462;}.j{fill:#007d3a;}.k{fill:#00c47e;}.l{fill:#005c31;}.m{fill:rgba(0,0,0,0.09);}.n{fill:rgba(0,0,0,0.2);}.o{fill:none;}.p{fill:#ff6c43;}.q{fill:#ff8f69;}.r{fill:#f1512a;}.s{fill:url(#b);}.t{fill:#eadff1;}</style><linearGradient id="a" x1="0.174" y1="-19.901" x2="0.826" y2="-18.77" gradientUnits="objectBoundingBox"><stop offset="0" stop-color="#0068c7"/><stop offset="0.5" stop-color="#005dc1"/><stop offset="1" stop-color="#0044af"/></linearGradient><linearGradient id="b" x1="0.174" y1="-19.601" x2="0.826" y2="-18.47" gradientUnits="objectBoundingBox"><stop offset="0" stop-color="#e74b20"/><stop offset="0.5" stop-color="#e33e15"/><stop offset="1" stop-color="#d32b09"/></linearGradient></defs><g transform="translate(-387.386 -424.334)"><g transform="translate(387.386 424.334)"><g transform="translate(0 4.691)"><path class="a" d="M508.13,427.679H415.646a5.78,5.78,0,0,0-5.78,5.78h0v25.748l53.6,15.764,50.445-15.764V433.459a5.78,5.78,0,0,0-5.78-5.78Z" transform="translate(-378.338 -427.679)"/><path class="b" d="M513.91,450.159H409.866v31.529l53.6,9.458,50.445-9.458Z" transform="translate(-378.338 -418.631)"/><path class="c" d="M409.866,472.64v31.528l50.445,6.306,53.6-6.306V472.64Z" transform="translate(-378.338 -409.583)"/><path class="d" d="M415.646,526.648H508.13a5.779,5.779,0,0,0,5.78-5.778h0V495.12H409.866v25.75a5.779,5.779,0,0,0,5.78,5.778Z" transform="translate(-378.338 -400.535)"/><path class="e" d="M448.227,445.663H409.866v78.821h38.361a5.8,5.8,0,0,0,5.778-5.78V451.443A5.8,5.8,0,0,0,448.227,445.663Z" transform="translate(-378.338 -420.441)"/><path class="f" d="M445.074,447.911H409.866v78.821h35.208a5.8,5.8,0,0,0,5.778-5.78V453.691A5.8,5.8,0,0,0,445.074,447.911Z" transform="translate(-378.338 -419.536)"/><path class="f" d="M445.074,447.911H409.866v72.516h35.208a5.8,5.8,0,0,0,5.778-5.78V453.691A5.8,5.8,0,0,0,445.074,447.911Z" transform="translate(-378.338 -419.536)"/><path class="f" d="M441.921,447.911H409.866v72.516h32.055a5.8,5.8,0,0,0,5.778-5.78V453.691A5.8,5.8,0,0,0,441.921,447.911Z" transform="translate(-378.338 -419.536)"/><path class="g" d="M393.164,447.911h57.8a5.779,5.779,0,0,1,5.778,5.78v57.8a5.779,5.779,0,0,1-5.778,5.78h-57.8a5.779,5.779,0,0,1-5.778-5.78v-57.8A5.779,5.779,0,0,1,393.164,447.911Z" transform="translate(-387.386 -419.536)"/><path class="h" d="M408.058,487.675c.114.892.189,1.668.224,2.334h.132q.076-.947.316-2.28t.432-2.254l6.078-26.225H423.1l6.306,25.831a38.41,38.41,0,0,1,.785,4.874h.1a37.541,37.541,0,0,1,.655-4.729l5.029-25.988h7.154L434.3,496.818h-8.359l-5.99-24.889c-.174-.715-.372-1.652-.589-2.8s-.353-1.993-.407-2.523h-.105q-.1.917-.407,2.725T417.958,472l-5.631,24.81h-8.5l-8.881-37.563h7.283l5.477,26.278C407.828,486.068,407.944,486.786,408.058,487.675Z" transform="translate(-384.343 -414.977)"/></g><g transform="translate(570.654)"><path class="i" d="M869.237,430.372H824.071a5.674,5.674,0,0,0-5.646,5.645v24l50.812,29.64,25.4,10.719,25.406-10.719v-29.64Z" transform="translate(-784.552 -421.904)"/><path class="j" d="M818.425,451.506h50.812v29.64H818.425Z" transform="translate(-784.552 -413.398)"/><path class="k" d="M899.821,430.372H854.655v29.64h50.811v-24a5.674,5.674,0,0,0-5.645-5.645Z" transform="translate(-769.97 -421.904)"/><path class="l" d="M869.237,472.64H818.425v53.634a5.674,5.674,0,0,0,5.646,5.645H914.4a5.674,5.674,0,0,0,5.645-5.645v-24Z" transform="translate(-784.552 -404.892)"/><path class="j" d="M854.655,472.64h50.811v29.639H854.655Z" transform="translate(-769.97 -404.892)"/><g transform="translate(0 29.64)"><path class="m" d="M855.122,445.468h-36.7v80.451h36.7a5.689,5.689,0,0,0,5.645-5.646V451.113a5.687,5.687,0,0,0-5.645-5.645Z" transform="translate(-784.552 -445.468)"/><g transform="translate(33.873 4.234)"><path class="n" d="M850.888,448.487H818.425v80.451h32.463a5.69,5.69,0,0,0,5.645-5.646V454.132a5.688,5.688,0,0,0-5.645-5.645Z" transform="translate(-818.425 -448.487)"/><path class="n" d="M850.888,448.487H818.425v71.981h32.463a5.688,5.688,0,0,0,5.645-5.645V454.132a5.688,5.688,0,0,0-5.645-5.645Z" transform="translate(-818.425 -448.487)"/><path class="n" d="M846.654,448.487H818.425v71.981h28.229a5.688,5.688,0,0,0,5.645-5.645V454.132a5.689,5.689,0,0,0-5.645-5.645Z" transform="translate(-818.425 -448.487)"/></g><path class="j" d="M799.918,448.487h56.457a5.672,5.672,0,0,1,5.645,5.645v56.457a5.672,5.672,0,0,1-5.645,5.645H799.918a5.672,5.672,0,0,1-5.645-5.645V454.132a5.672,5.672,0,0,1,5.645-5.645Z" transform="translate(-794.273 -444.253)"/><path class="h" d="M804.94,499.887l13.7-21.231-12.549-21.112h10.1l6.851,13.493q.943,1.921,1.3,2.865h.088q.677-1.534,1.418-2.983l7.322-13.376h9.272l-12.875,20.994,13.2,21.349H832.9l-7.913-14.823a12.474,12.474,0,0,1-.945-1.977h-.118a9.38,9.38,0,0,1-.916,1.919l-8.15,14.882Z" transform="translate(-789.98 -440.608)"/></g><path class="o" d="M794.273,424.334h135.5v135.5h-135.5Z" transform="translate(-794.273 -424.334)"/></g><g transform="translate(289.447 1.373)"><path class="p" d="M677.2,498.325l-9.956-73.012H666.5a65.825,65.825,0,0,0-65.632,65.631v.745Z" transform="translate(-590.91 -425.313)"/><path class="q" d="M648.936,425.313h-.743v66.376l33.187,13.275,33.187-13.275v-.745A65.822,65.822,0,0,0,648.936,425.313Z" transform="translate(-571.861 -425.313)"/><path class="r" d="M733.616,472.64v.729a65.833,65.833,0,0,1-65.645,65.645h-1.46a65.834,65.834,0,0,1-65.645-65.645v-.729Z" transform="translate(-590.91 -406.264)"/><path class="e" d="M670.56,450.317v70.821a6.11,6.11,0,0,1-3.783,5.609,5.87,5.87,0,0,1-2.29.466H616.53c-.928-1.063-1.825-2.191-2.655-3.32A65.107,65.107,0,0,1,600.866,484.8v-1.46a64.905,64.905,0,0,1,10.687-35.776c.731-1.129,1.494-2.257,2.323-3.318h50.612A6.119,6.119,0,0,1,670.56,450.317Z" transform="translate(-590.91 -417.694)"/><path class="f" d="M667.242,452.683v70.823a5.882,5.882,0,0,1-.464,2.289,6.112,6.112,0,0,1-5.61,3.784H619.551q-1.576-1.6-3.021-3.318c-.928-1.063-1.825-2.191-2.655-3.32a65.1,65.1,0,0,1-13.009-39.094v-1.46a64.894,64.894,0,0,1,10.687-35.776h49.614A6.119,6.119,0,0,1,667.242,452.683Z" transform="translate(-590.91 -416.741)"/><path class="f" d="M667.242,452.683v64.185a6.119,6.119,0,0,1-6.074,6.073H613.876a65.107,65.107,0,0,1-13.009-39.094v-1.46a64.905,64.905,0,0,1,10.687-35.776h49.614A6.119,6.119,0,0,1,667.242,452.683Z" transform="translate(-590.91 -416.741)"/><path class="f" d="M663.922,452.683v64.185a6.119,6.119,0,0,1-6.073,6.073H613.876a65.107,65.107,0,0,1-13.009-39.094v-1.46a64.905,64.905,0,0,1,10.687-35.776h46.3A6.119,6.119,0,0,1,663.922,452.683Z" transform="translate(-590.91 -416.741)"/><path class="s" d="M599.851,446.61H660.7a6.082,6.082,0,0,1,6.083,6.083V513.54a6.083,6.083,0,0,1-6.083,6.083H599.851a6.083,6.083,0,0,1-6.084-6.083V452.693A6.083,6.083,0,0,1,599.851,446.61Z" transform="translate(-593.767 -416.741)"/><path class="h" d="M624.88,458.19a16.725,16.725,0,0,1,11.078,3.245,11.62,11.62,0,0,1,3.857,9.4,13.087,13.087,0,0,1-1.9,7.025,12.706,12.706,0,0,1-5.4,4.773,18.342,18.342,0,0,1-8.122,1.707h-7.7v14.3h-7.882V458.19Zm-8.19,19.971h6.784a8.807,8.807,0,0,0,6-1.788,6.641,6.641,0,0,0,2.028-5.234q0-6.686-7.773-6.687H616.69v13.709Z" transform="translate(-587.71 -412.096)"/></g></g><ellipse class="t" cx="77.209" cy="14.09" rx="77.209" ry="14.09" transform="translate(393.727 615.68)"/><ellipse class="t" cx="77.209" cy="14.09" rx="77.209" ry="14.09" transform="translate(675.955 615.68)"/><ellipse class="t" cx="77.209" cy="14.09" rx="77.209" ry="14.09" transform="translate(965.515 615.68)"/></g></svg>