<svg xmlns="http://www.w3.org/2000/svg" width="448.376" height="298.616" viewBox="0 0 448.376 298.616"><defs><style>.a{fill:#29a7e9;}.b{fill:#0178d3;}.c{fill:#0464b8;}.d{fill:#1590de;}.e{fill:#ffc84f;}.f{fill:#ce521f;}.g{fill:#ebebeb;}.h{fill:#8e96a3;}.i{fill:#3d3d3d;}.j{fill:#d0d1d6;}.k{fill:#aaa;}</style></defs><g transform="matrix(0.588, -0.809, 0.809, 0.588, -781.019, 709.715)"><g transform="translate(903.502 380.631)"><path class="a" d="M1190.472,567.352c-10.134,20.1-27.009,31.116-48.932,31.451q-80.13,1.226-160.29,0c-22.9-.351-41.762-10.724-54.841-30.241,1-1.576,2.741-1.836,4.294-2.487q33.389-14,66.757-28.052,41.223-17.293,82.467-34.538a8.353,8.353,0,0,1,3.778.98c26.4,15.792,52.753,31.664,79.3,47.213C1172.094,557,1180.611,563.368,1190.472,567.352Z" transform="translate(-913.046 -417.492)"/><path class="b" d="M1076.43,491.547q-41.234,17.267-82.466,34.538-33.387,14.006-66.757,28.052c-1.554.651-3.293.911-4.294,2.487-10.29-12.838-14.3-27.886-13.182-43.835,1.87-26.641,14.806-46.768,38.606-59.422a60.83,60.83,0,0,1,32.214-7.342c15.4-.525,29.124,4.249,42.12,12.324,17.75,11.031,35.851,21.5,53.8,32.207A9.629,9.629,0,0,1,1076.43,491.547Z" transform="translate(-909.549 -405.558)"/><path class="c" d="M1095.051,479.99c-17.951-10.709-36.052-21.176-53.8-32.207-13-8.075-26.723-12.85-42.12-12.324,3.105-8.329,9.723-13.924,16.085-19.4,47.276-40.7,122.052-19.693,141.221,39.583.493,1.524,2.34,3.3.43,5.165-11-.609-20.968,3-30.971,7.023C1115.642,471.947,1105.965,477.553,1095.051,479.99Z" transform="translate(-928.128 -394.991)"/><path class="d" d="M1120.139,497.193c10.914-2.436,20.592-8.043,30.843-12.163,10-4.02,19.974-7.632,30.971-7.023,3.448,1.738,7.321,1.537,10.964,2.393,26.755,6.284,45.1,32.015,43.44,54.457-.7,9.435-.119,18.891-5.715,27.2-9.862-3.984-18.379-10.351-27.471-15.677-26.543-15.549-52.9-31.421-79.3-47.213a8.353,8.353,0,0,0-3.778-.98A9.866,9.866,0,0,0,1120.139,497.193Z" transform="translate(-953.216 -412.195)"/></g><g transform="translate(880.393 325.75)"><path class="e" d="M887.744,481.729c.025-1.038.1-2.254.178-3.394q.125-1.739.3-3.487.342-3.492.85-6.982,1-6.974,2.559-13.868a177.322,177.322,0,0,1,8.31-26.923c6.951-17.431,16.893-33.7,29.88-47.129a123.357,123.357,0,0,1,10.248-9.518,120.54,120.54,0,0,1,11.222-8.345,124.76,124.76,0,0,1,12.067-7.088c2.052-1.117,4.193-2.061,6.293-3.084,2.154-.909,4.268-1.91,6.464-2.725,4.332-1.771,8.8-3.2,13.282-4.573,4.517-1.26,9.06-2.453,13.678-3.342,1.154-.224,2.3-.487,3.46-.679l3.479-.587,1.74-.293.583-.082.269-.036,1.076-.145.912,6.418,3.831-3.082,3.966-2.963,2.024-1.484,2.057-1.421,4.19-2.849-4.581-2.215-2.329-1.1-2.351-1.037-4.782-2.058-4.883-1.9.911,6.418-1.117.151-.279.038-.605.086-1.809.3-3.619.61c-1.206.2-2.4.473-3.6.707-4.809.927-9.557,2.169-14.281,3.491-4.692,1.435-9.374,2.936-13.93,4.8-2.3.858-4.534,1.908-6.8,2.868-2.215,1.075-4.466,2.073-6.632,3.249a132.061,132.061,0,0,0-12.743,7.485,127.964,127.964,0,0,0-11.868,8.825,130.734,130.734,0,0,0-10.835,10.064c-13.729,14.2-24.164,31.317-31.416,49.506a184.674,184.674,0,0,0-8.656,28.038q-1.616,7.16-2.663,14.436-.524,3.638-.889,7.307-.181,1.836-.315,3.685c-.086,1.254-.162,2.433-.195,3.793Z" transform="translate(-880.393 -325.75)"/></g><g transform="translate(1072.351 475.352)"><path class="e" d="M1265.5,514.5c-.026,1.038-.1,2.254-.178,3.394-.082,1.159-.184,2.322-.3,3.486q-.342,3.492-.85,6.982-1,6.974-2.559,13.869a177.225,177.225,0,0,1-8.31,26.923c-6.951,17.431-16.893,33.7-29.88,47.129a123.355,123.355,0,0,1-10.248,9.518,120.4,120.4,0,0,1-11.222,8.345,124.774,124.774,0,0,1-12.068,7.089c-2.052,1.116-4.192,2.061-6.293,3.084-2.154.909-4.268,1.909-6.464,2.725-4.332,1.771-8.8,3.2-13.281,4.573-4.517,1.26-9.06,2.453-13.678,3.341-1.153.224-2.3.488-3.459.68l-3.479.586-1.74.293-.583.082-.269.036-1.076.146-.911-6.419-3.832,3.082-3.966,2.964-2.023,1.484-2.058,1.421-4.19,2.849,4.581,2.215,2.329,1.1,2.351,1.037,4.782,2.058,4.882,1.9-.911-6.419,1.117-.151.279-.037.606-.086,1.809-.3,3.617-.609c1.207-.2,2.4-.474,3.6-.708,4.809-.927,9.557-2.169,14.281-3.49,4.693-1.435,9.375-2.937,13.93-4.8,2.3-.858,4.534-1.908,6.8-2.868,2.215-1.075,4.466-2.073,6.633-3.249a132.261,132.261,0,0,0,12.743-7.485,127.979,127.979,0,0,0,11.867-8.825,130.627,130.627,0,0,0,10.835-10.065c13.729-14.2,24.164-31.317,31.416-49.505a184.617,184.617,0,0,0,8.656-28.038q1.616-7.158,2.663-14.436.524-3.637.89-7.306.18-1.836.315-3.685c.086-1.254.162-2.433.2-3.793Z" transform="translate(-1122.58 -514.498)"/></g><g transform="translate(949.218 381.425)"><g transform="translate(8.376 32.146)"><path class="f" d="M978.02,437.043h0a.142.142,0,0,1-.165-.114l-.059-.328.279-.051.059.328A.142.142,0,0,1,978.02,437.043Z" transform="translate(-977.796 -436.55)"/></g><g transform="translate(9.93 31.868)"><path class="f" d="M979.979,436.69h0a.142.142,0,0,1-.164-.114l-.06-.328a1.188,1.188,0,0,1,.279-.048l.059.325A.142.142,0,0,1,979.979,436.69Z" transform="translate(-979.756 -436.2)"/></g><g transform="translate(8.313 31.96)"><path class="g" d="M977.948,436.956h0a.143.143,0,0,1-.165-.115l-.065-.359a.142.142,0,0,1,.114-.164h0a.142.142,0,0,1,.165.114l.065.359A.143.143,0,0,1,977.948,436.956Z" transform="translate(-977.716 -436.316)"/></g><g transform="translate(9.863 31.68)"><path class="g" d="M979.9,436.6h0a.142.142,0,0,1-.165-.114l-.065-.359a.143.143,0,0,1,.114-.165h0a.143.143,0,0,1,.165.114l.065.36A.142.142,0,0,1,979.9,436.6Z" transform="translate(-979.671 -435.962)"/></g><g transform="translate(9.895 35.433)"><rect class="h" width="0.928" height="0.602" transform="matrix(0.984, -0.178, 0.178, 0.984, 0, 0.165)"/></g><g transform="translate(9.732 34.374)"><rect class="h" width="0.928" height="0.602" transform="translate(0 0.165) rotate(-10.245)"/></g><g transform="translate(13.348 22.315)"><path class="i" d="M1026.965,431.963l-40.649,23.907a1.047,1.047,0,0,1-1.5-.316l-.358-.609-.387-10.839a1.645,1.645,0,0,1,.806-1.532l31.107-18.295a4.755,4.755,0,0,1,3.1.415l8.071,5.324.158.269A1.125,1.125,0,0,1,1026.965,431.963Z" transform="translate(-984.068 -424.147)"/></g><g transform="translate(12.845 21.338)"><path class="j" d="M1026.331,430.844l-40.649,23.907c-.451.266-1.428.307-1.435-.344l-.81-11.42a1.643,1.643,0,0,1,.806-1.533l31.107-18.295a1.777,1.777,0,0,1,1.869.041l9.456,6.138C1027.306,429.714,1026.827,430.553,1026.331,430.844Z" transform="translate(-983.434 -422.914)"/></g><g transform="translate(0 0)"><rect class="j" width="38.619" height="24.403" rx="1.781" transform="translate(0 19.578) rotate(-30.461)"/></g><g transform="translate(1.953 1.906)"><rect class="i" width="35.64" height="21.145" transform="translate(0 18.068) rotate(-30.461)"/></g><g transform="translate(27.369 33.939)"><path class="i" d="M1015.475,442.247l-11.978,7.045a.251.251,0,0,1-.361-.125l-1.35-3.452a.407.407,0,0,1,.173-.5l10.8-6.353a.358.358,0,0,1,.461.084l2.329,2.9A.271.271,0,0,1,1015.475,442.247Z" transform="translate(-1001.758 -438.813)"/></g><g transform="translate(14.645 23.303)"><path class="k" d="M1019.8,429.107l-32.543,19.14c-.361.212-.718.236-.751.049l-.793-4.49c-.043-.243.27-.623.738-.9l29.353-17.263c.416-.245.846-.321,1.01-.18l3.437,2.964C1020.392,428.563,1020.181,428.882,1019.8,429.107Z" transform="translate(-985.705 -425.394)"/></g><g transform="translate(13.354 22.907)"><g transform="translate(0 0)"><rect class="j" width="39.372" height="0.199" transform="translate(0 19.96) rotate(-30.461)"/></g><g transform="translate(0.504 0.857)"><rect class="j" width="39.372" height="0.199" transform="translate(0 19.96) rotate(-30.461)"/></g><g transform="translate(1.109 1.885)"><rect class="j" width="39.372" height="0.199" transform="translate(0 19.96) rotate(-30.461)"/></g><g transform="translate(1.663 2.828)"><rect class="j" width="39.372" height="0.199" transform="translate(0 19.96) rotate(-30.461)"/></g><g transform="translate(3.307 16.11)"><rect class="j" width="0.298" height="6.562" transform="matrix(0.974, -0.225, 0.225, 0.974, 0, 0.067)"/></g><g transform="translate(5.792 14.648)"><rect class="j" width="0.298" height="6.562" transform="matrix(0.974, -0.225, 0.225, 0.974, 0, 0.067)"/></g><g transform="translate(7.763 13.489)"><rect class="j" width="0.298" height="6.562" transform="matrix(0.974, -0.225, 0.225, 0.974, 0, 0.067)"/></g><g transform="translate(9.735 12.33)"><rect class="j" width="0.298" height="6.562" transform="matrix(0.974, -0.225, 0.225, 0.974, 0, 0.067)"/></g><g transform="translate(11.791 11.12)"><rect class="j" width="0.298" height="6.562" transform="matrix(0.974, -0.225, 0.225, 0.974, 0, 0.067)"/></g><g transform="translate(13.841 9.796)"><rect class="j" width="0.298" height="6.562" transform="translate(0 0.099) rotate(-19.483)"/></g><g transform="translate(15.598 8.674)"><rect class="j" width="0.298" height="6.562" transform="translate(0 0.151) rotate(-30.461)"/></g><g transform="translate(28.996 0.951)"><rect class="j" width="0.298" height="6.562" transform="translate(0 0.221) rotate(-47.9)"/></g><g transform="translate(26.596 2.362)"><rect class="j" width="0.298" height="6.562" transform="translate(0 0.221) rotate(-47.9)"/></g><g transform="translate(24.196 3.774)"><rect class="j" width="0.298" height="6.562" transform="translate(0 0.221) rotate(-47.9)"/></g><g transform="translate(21.797 5.185)"><rect class="j" width="0.298" height="6.562" transform="translate(0 0.221) rotate(-47.9)"/></g><g transform="translate(19.397 6.596)"><rect class="j" width="0.298" height="6.562" transform="translate(0 0.221) rotate(-47.9)"/></g><g transform="translate(16.998 8.008)"><rect class="j" width="0.298" height="6.562" transform="translate(0 0.221) rotate(-47.9)"/></g></g></g><g transform="translate(1083.429 392.458)"><g transform="translate(23.831 14.686)"><path class="f" d="M1166.643,428.871h0a.18.18,0,0,1,.079-.24l.376-.19.161.319-.375.19A.179.179,0,0,1,1166.643,428.871Z" transform="translate(-1166.624 -428.441)"/></g><g transform="translate(24.731 16.461)"><path class="f" d="M1167.779,431.112h0a.179.179,0,0,1,.078-.24l.375-.19c.025-.013.158.32.158.32l-.372.189A.18.18,0,0,1,1167.779,431.112Z" transform="translate(-1167.76 -430.682)"/></g><g transform="translate(23.857 14.567)"><path class="g" d="M1166.676,428.76h0a.179.179,0,0,1,.079-.24l.41-.208a.179.179,0,0,1,.24.078h0a.179.179,0,0,1-.079.24l-.41.208A.18.18,0,0,1,1166.676,428.76Z" transform="translate(-1166.657 -428.292)"/></g><g transform="translate(24.756 16.34)"><path class="g" d="M1167.81,431h0a.179.179,0,0,1,.078-.24l.411-.208a.18.18,0,0,1,.24.078h0a.18.18,0,0,1-.078.24l-.411.208A.18.18,0,0,1,1167.81,431Z" transform="translate(-1167.791 -430.528)"/></g><g transform="translate(20.062 17.749)"><rect class="h" width="0.759" height="1.171" transform="translate(0 0.343) rotate(-26.88)"/></g><g transform="translate(21.284 17.17)"><rect class="h" width="0.759" height="1.171" transform="translate(0 0.343) rotate(-26.88)"/></g><g transform="translate(0 24.207)"><path class="i" d="M1180.65,488.059l-43.588-40.508a1.324,1.324,0,0,1-.159-1.928l.607-.653,12.965-4.382a2.072,2.072,0,0,1,2.143.42l33.355,31c.623.579.856,3.08.617,3.9l-3.521,11.682-.268.288A1.418,1.418,0,0,1,1180.65,488.059Z" transform="translate(-1136.557 -440.454)"/></g><g transform="translate(0.823 23.288)"><path class="j" d="M1181.727,486.9l-43.588-40.508c-.484-.45-.886-1.615-.1-1.859l13.514-5.1a2.072,2.072,0,0,1,2.144.421l33.355,31a2.241,2.241,0,0,1,.625,2.274l-4,13.65C1183.446,487.669,1182.258,487.392,1181.727,486.9Z" transform="translate(-1137.595 -439.294)"/></g><g transform="translate(15.571 0)"><rect class="j" width="30.792" height="48.729" rx="2.248" transform="translate(0 22.555) rotate(-47.097)"/></g><g transform="translate(18.597 2.504)"><rect class="i" width="26.681" height="44.97" transform="translate(0 19.544) rotate(-47.097)"/></g><g transform="translate(16.916 40.695)"><path class="i" d="M1170.844,476.661,1158,464.725a.316.316,0,0,1,.021-.481l3.686-2.88a.514.514,0,0,1,.666.029l11.584,10.766a.451.451,0,0,1,.064.587l-2.666,3.864A.342.342,0,0,1,1170.844,476.661Z" transform="translate(-1157.899 -461.256)"/></g><g transform="translate(9.823 25.668)"><path class="k" d="M1184.273,478.239l-34.9-32.431c-.388-.36-.544-.783-.33-.89l5.141-2.582c.278-.139.851.1,1.353.568l31.474,29.252c.446.415.694.907.583,1.156l-2.342,5.226C1185.146,478.761,1184.684,478.621,1184.273,478.239Z" transform="translate(-1148.951 -442.297)"/></g><g transform="translate(10.211 24.558)"><g transform="translate(2.818 0)"><rect class="j" width="49.679" height="0.251" transform="translate(0.171 0) rotate(42.903)"/></g><g transform="translate(1.964 0.919)"><rect class="j" width="49.679" height="0.251" transform="translate(0.171 0) rotate(42.903)"/></g><g transform="translate(0.939 2.022)"><rect class="j" width="49.679" height="0.251" transform="translate(0.171 0) rotate(42.903)"/></g><g transform="translate(0 3.033)"><rect class="j" width="49.679" height="0.251" transform="translate(0.171 0) rotate(42.903)"/></g><g transform="translate(1.562 2.632)"><rect class="j" width="0.376" height="8.28" transform="translate(7.195) rotate(60.342)"/></g><g transform="translate(4.227 5.108)"><rect class="j" width="0.376" height="8.28" transform="translate(7.195) rotate(60.342)"/></g><g transform="translate(6.34 7.073)"><rect class="j" width="0.376" height="8.28" transform="translate(7.195 0) rotate(60.342)"/></g><g transform="translate(8.454 9.037)"><rect class="j" width="0.376" height="8.28" transform="translate(7.195 0) rotate(60.342)"/></g><g transform="translate(10.659 11.087)"><rect class="j" width="0.376" height="8.28" transform="translate(7.195 0) rotate(60.342)"/></g><g transform="translate(13.468 13.098)"><rect class="j" width="0.376" height="8.28" transform="matrix(0.589, 0.808, -0.808, 0.589, 6.688, 0)"/></g><g transform="translate(16.448 14.835)"><rect class="j" width="0.376" height="8.28" transform="translate(5.637 0) rotate(42.903)"/></g><g transform="translate(32.617 28.269)"><rect class="j" width="0.376" height="8.28" transform="matrix(0.903, 0.43, -0.43, 0.903, 3.56, 0)"/></g><g transform="translate(30.044 25.878)"><rect class="j" width="0.376" height="8.28" transform="matrix(0.903, 0.43, -0.43, 0.903, 3.56, 0)"/></g><g transform="translate(27.471 23.486)"><rect class="j" width="0.376" height="8.28" transform="matrix(0.903, 0.43, -0.43, 0.903, 3.56, 0)"/></g><g transform="translate(24.898 21.095)"><rect class="j" width="0.376" height="8.28" transform="matrix(0.903, 0.43, -0.43, 0.903, 3.56, 0)"/></g><g transform="translate(22.325 18.704)"><rect class="j" width="0.376" height="8.28" transform="matrix(0.903, 0.43, -0.43, 0.903, 3.56, 0)"/></g><g transform="translate(19.752 16.312)"><rect class="j" width="0.376" height="8.28" transform="matrix(0.903, 0.43, -0.43, 0.903, 3.56, 0)"/></g></g></g><g transform="translate(954.882 485.369)"><g transform="translate(10.268 39.968)"><path class="f" d="M987.6,578.184h0a.181.181,0,0,1-.205-.148l-.067-.415.353-.057.067.415A.18.18,0,0,1,987.6,578.184Z" transform="translate(-987.328 -577.563)"/></g><g transform="translate(12.233 39.655)"><path class="f" d="M990.08,577.785h0a.179.179,0,0,1-.2-.148l-.067-.415a1.522,1.522,0,0,1,.354-.053l.067.411A.181.181,0,0,1,990.08,577.785Z" transform="translate(-989.808 -577.168)"/></g><g transform="translate(10.19 39.729)"><path class="g" d="M987.51,578.071h0a.179.179,0,0,1-.2-.148l-.074-.454a.18.18,0,0,1,.148-.205h0a.18.18,0,0,1,.2.148l.074.454A.179.179,0,0,1,987.51,578.071Z" transform="translate(-987.229 -577.261)"/></g><g transform="translate(12.152 39.413)"><path class="g" d="M989.986,577.672h0a.18.18,0,0,1-.205-.148l-.073-.455a.179.179,0,0,1,.147-.2h0a.179.179,0,0,1,.205.148l.073.454A.179.179,0,0,1,989.986,577.672Z" transform="translate(-989.705 -576.862)"/></g><g transform="translate(12.102 44.166)"><rect class="h" width="1.171" height="0.759" transform="translate(0 0.187) rotate(-9.164)"/></g><g transform="translate(11.922 42.826)"><rect class="h" width="1.171" height="0.759" transform="translate(0 0.187) rotate(-9.164)"/></g><g transform="translate(16.302 28.453)"><path class="i" d="M1049.346,573.14,997.5,602.333a1.323,1.323,0,0,1-1.886-.434l-.438-.778-.229-13.683A2.074,2.074,0,0,1,996,585.524l39.678-22.34c.74-.417,3.194.122,3.9.6l10.057,6.908.193.343A1.419,1.419,0,0,1,1049.346,573.14Z" transform="translate(-994.941 -563.035)"/></g><g transform="translate(15.688 27.214)"><path class="j" d="M1048.571,571.715l-51.85,29.194c-.576.324-1.808.353-1.8-.469l-.751-14.426a2.073,2.073,0,0,1,1.053-1.914l39.678-22.34a2.245,2.245,0,0,1,2.357.1l11.783,7.969C1049.828,570.312,1049.2,571.359,1048.571,571.715Z" transform="translate(-994.167 -561.471)"/></g><g transform="translate(0 0)"><rect class="j" width="48.729" height="30.792" rx="2.248" transform="translate(0 23.907) rotate(-29.381)"/></g><g transform="translate(2.454 2.39)"><rect class="i" width="44.97" height="26.681" transform="translate(0 22.063) rotate(-29.381)"/></g><g transform="translate(34.026 42.942)"><path class="i" d="M1034.685,585.707l-15.278,8.6a.315.315,0,0,1-.451-.166l-1.622-4.387a.512.512,0,0,1,.23-.625l13.78-7.759a.451.451,0,0,1,.579.117l2.869,3.714A.342.342,0,0,1,1034.685,585.707Z" transform="translate(-1017.302 -581.315)"/></g><g transform="translate(17.95 29.689)"><path class="k" d="M1040.379,569.356l-41.512,23.372c-.461.26-.912.281-.949.044l-.895-5.684c-.048-.307.356-.78.953-1.116l37.442-21.081c.53-.3,1.075-.385,1.278-.2l4.264,3.82C1041.142,568.684,1040.868,569.081,1040.379,569.356Z" transform="translate(-997.02 -564.594)"/></g><g transform="translate(16.293 29.233)"><g transform="translate(0 0)"><rect class="j" width="49.679" height="0.251" transform="translate(0 24.373) rotate(-29.381)"/></g><g transform="translate(0.615 1.093)"><rect class="j" width="49.679" height="0.251" transform="translate(0 24.373) rotate(-29.381)"/></g><g transform="translate(1.354 2.405)"><rect class="j" width="49.679" height="0.251" transform="translate(0 24.373) rotate(-29.381)"/></g><g transform="translate(2.031 3.607)"><rect class="j" width="49.679" height="0.251" transform="translate(0 24.373) rotate(-29.381)"/></g><g transform="translate(4.262 19.602)"><rect class="j" width="0.376" height="8.28" transform="translate(0 0.078) rotate(-11.942)"/></g><g transform="translate(7.432 17.817)"><rect class="j" width="0.376" height="8.28" transform="translate(0 0.078) rotate(-11.942)"/></g><g transform="translate(9.947 16.401)"><rect class="j" width="0.376" height="8.28" transform="translate(0 0.078) rotate(-11.942)"/></g><g transform="translate(12.461 14.986)"><rect class="j" width="0.376" height="8.28" transform="translate(0 0.078) rotate(-11.942)"/></g><g transform="translate(15.084 13.509)"><rect class="j" width="0.376" height="8.28" transform="translate(0 0.078) rotate(-11.942)"/></g><g transform="translate(17.701 11.887)"><rect class="j" width="0.376" height="8.28" transform="translate(0 0.119) rotate(-18.403)"/></g><g transform="translate(19.943 10.513)"><rect class="j" width="0.376" height="8.28" transform="translate(0 0.185) rotate(-29.381)"/></g><g transform="translate(37.027 1.087)"><rect class="j" width="0.376" height="8.28" transform="translate(0 0.274) rotate(-46.82)"/></g><g transform="translate(33.966 2.81)"><rect class="j" width="0.376" height="8.28" transform="translate(0 0.274) rotate(-46.82)"/></g><g transform="translate(30.906 4.534)"><rect class="j" width="0.376" height="8.28" transform="translate(0 0.274) rotate(-46.82)"/></g><g transform="translate(27.845 6.257)"><rect class="j" width="0.376" height="8.28" transform="translate(0 0.274) rotate(-46.82)"/></g><g transform="translate(24.784 7.98)"><rect class="j" width="0.376" height="8.28" transform="translate(0 0.274) rotate(-46.82)"/></g><g transform="translate(21.723 9.704)"><rect class="j" width="0.376" height="8.28" transform="translate(0 0.274) rotate(-46.82)"/></g></g></g><g transform="translate(1056.721 493.522)"><g transform="translate(15.743 9.958)"><path class="f" d="M1122.736,550.279h0a.12.12,0,0,1,.05-.162l.248-.132.112.212-.248.132A.121.121,0,0,1,1122.736,550.279Z" transform="translate(-1122.723 -549.986)"/></g><g transform="translate(16.366 11.134)"><path class="f" d="M1123.522,551.763h0a.12.12,0,0,1,.049-.162l.249-.132c.017-.009.109.212.109.212l-.246.13A.119.119,0,0,1,1123.522,551.763Z" transform="translate(-1123.508 -551.47)"/></g><g transform="translate(15.76 9.878)"><path class="g" d="M1122.757,550.2h0a.12.12,0,0,1,.05-.162l.272-.143a.12.12,0,0,1,.162.049h0a.121.121,0,0,1-.05.162l-.272.144A.121.121,0,0,1,1122.757,550.2Z" transform="translate(-1122.744 -549.884)"/></g><g transform="translate(16.381 11.052)"><path class="g" d="M1123.541,551.684h0a.12.12,0,0,1,.05-.162l.272-.143a.12.12,0,0,1,.162.049h0a.121.121,0,0,1-.05.162l-.272.144A.121.121,0,0,1,1123.541,551.684Z" transform="translate(-1123.528 -551.365)"/></g><g transform="translate(13.261 12.048)"><rect class="h" width="0.508" height="0.783" transform="translate(0 0.238) rotate(-27.899)"/></g><g transform="translate(14.071 11.647)"><rect class="h" width="0.508" height="0.783" transform="translate(0 0.238) rotate(-27.899)"/></g><g transform="translate(0 16.435)"><path class="i" d="M1132.818,589.62l-29.608-26.551a.885.885,0,0,1-.13-1.286l.4-.444,8.612-3.082a1.383,1.383,0,0,1,1.437.256l22.657,20.318a4.008,4.008,0,0,1,.458,2.6l-2.214,7.848-.176.2A.948.948,0,0,1,1132.818,589.62Z" transform="translate(-1102.86 -558.158)"/></g><g transform="translate(0.537 15.811)"><path class="j" d="M1133.523,588.831l-29.608-26.551c-.328-.295-.611-1.068-.09-1.241l8.97-3.571a1.384,1.384,0,0,1,1.438.256l22.657,20.318a1.5,1.5,0,0,1,.445,1.512l-2.513,9.169C1134.681,589.326,1133.883,589.155,1133.523,588.831Z" transform="translate(-1103.537 -557.37)"/></g><g transform="translate(10.314 0)"><rect class="j" width="20.579" height="32.568" rx="1.502" transform="translate(0 15.321) rotate(-48.116)"/></g><g transform="translate(12.329 1.67)"><rect class="i" width="17.832" height="30.055" transform="translate(0 13.276) rotate(-48.116)"/></g><g transform="translate(11.466 27.378)"><path class="i" d="M1126.12,582.153l-8.724-7.824a.21.21,0,0,1,.008-.321l2.428-1.968a.344.344,0,0,1,.446.011l7.868,7.056a.3.3,0,0,1,.05.391l-1.735,2.613A.229.229,0,0,1,1126.12,582.153Z" transform="translate(-1117.326 -571.963)"/></g><g transform="translate(6.543 17.405)"><path class="k" d="M1135.112,583.043l-23.7-21.257c-.263-.235-.373-.517-.231-.59l3.405-1.787c.184-.1.57.058.911.364l21.38,19.172c.3.272.475.6.4.766l-1.5,3.519C1135.7,583.382,1135.391,583.294,1135.112,583.043Z" transform="translate(-1111.115 -559.381)"/></g><g transform="translate(6.794 16.687)"><g transform="translate(1.847 0)"><rect class="j" width="33.203" height="0.168" transform="translate(0.112) rotate(41.884)"/></g><g transform="translate(1.287 0.624)"><rect class="j" width="33.203" height="0.168" transform="translate(0.112 0) rotate(41.884)"/></g><g transform="translate(0.616 1.373)"><rect class="j" width="33.203" height="0.168" transform="translate(0.112 0) rotate(41.884)"/></g><g transform="translate(0 2.06)"><rect class="j" width="33.203" height="0.168" transform="translate(0.112 0) rotate(41.884)"/></g><g transform="translate(1.085 1.69)"><rect class="j" width="0.252" height="5.534" transform="translate(4.759 0) rotate(59.324)"/></g><g transform="translate(2.896 3.313)"><rect class="j" width="0.252" height="5.534" transform="translate(4.759 0) rotate(59.324)"/></g><g transform="translate(4.331 4.601)"><rect class="j" width="0.252" height="5.534" transform="translate(4.759 0) rotate(59.324)"/></g><g transform="translate(5.767 5.888)"><rect class="j" width="0.252" height="5.534" transform="translate(4.759 0) rotate(59.324)"/></g><g transform="translate(7.265 7.232)"><rect class="j" width="0.252" height="5.534" transform="translate(4.759 0) rotate(59.324)"/></g><g transform="translate(9.175 8.548)"><rect class="j" width="0.252" height="5.534" transform="matrix(0.604, 0.797, -0.797, 0.604, 4.411, 0)"/></g><g transform="translate(11.201 9.686)"><rect class="j" width="0.252" height="5.534" transform="translate(3.695 0) rotate(41.884)"/></g><g transform="translate(22.182 18.496)"><rect class="j" width="0.252" height="5.534" transform="matrix(0.91, 0.414, -0.414, 0.91, 2.29, 0)"/></g><g transform="translate(20.435 16.928)"><rect class="j" width="0.252" height="5.534" transform="matrix(0.91, 0.414, -0.414, 0.91, 2.29, 0)"/></g><g transform="translate(18.687 15.361)"><rect class="j" width="0.252" height="5.534" transform="matrix(0.91, 0.414, -0.414, 0.91, 2.29, 0)"/></g><g transform="translate(16.939 13.794)"><rect class="j" width="0.252" height="5.534" transform="matrix(0.91, 0.414, -0.414, 0.91, 2.29, 0)"/></g><g transform="translate(15.191 12.226)"><rect class="j" width="0.252" height="5.534" transform="matrix(0.91, 0.414, -0.414, 0.91, 2.29, 0)"/></g><g transform="translate(13.443 10.659)"><rect class="j" width="0.252" height="5.534" transform="matrix(0.91, 0.414, -0.414, 0.91, 2.29, 0)"/></g></g></g></g></svg>