<svg xmlns="http://www.w3.org/2000/svg" xmlns:xlink="http://www.w3.org/1999/xlink" width="588" height="441.966" viewBox="0 0 588 441.966"><defs><style>.a,.m,.u{fill:none;}.b,.h{fill:#f7f7f7;}.c{fill:#ffc84f;}.d,.x{fill:#62548a;}.d,.e,.f,.g,.h,.i,.j,.k{fill-rule:evenodd;}.e{fill:#eadff1;}.f{fill:#c98121;}.g,.l{fill:#947dce;}.i{fill:#fac74c;}.j{fill:#fff;}.k{fill:#b3b3b3;}.m{stroke:#000;stroke-width:10.497px;}.m,.u{stroke-miterlimit:10;}.n{fill:#060606;}.o{fill:#ccc;}.p{opacity:0.18;}.q{clip-path:url(#a);}.r{fill:#edba49;}.s{opacity:0.3;}.t{opacity:0.5;}.u{stroke:#947dce;stroke-width:0.704px;}.v{opacity:0.2;}.w{fill:#d8a35d;}.y{fill:#d19442;}.z{opacity:0.15;}.aa{opacity:0.1;}</style><clipPath id="a"><path class="a" d="M850.6,425.062s-.549-12.313.9-14.029,50.12-12.263,50.12-12.263l13.966,11.246Z" transform="translate(-850.493 -398.77)"/></clipPath></defs><g transform="translate(-366.982 -154.056)"><path class="b" d="M469.556,316.905c32.978-49.075,68.855-96.5,111.076-137.894,15.583-15.275,37.066-30.762,57.377-22.789,17.388,6.825,24.472,28.1,23.916,46.773s-6.5,37-5.75,55.666,11.26,39.29,29.686,42.359c17.515,2.918,32.865-10.686,46.737-21.769a226.626,226.626,0,0,1,95.759-44.794c10.1-2.059,22.2-2.807,29.089,4.867,7.532,8.393,4.293,21.493.623,32.157l-26.187,76.1c-3.661,10.64-5.666,25.575,4.554,30.283,7.454,3.435,16.176-1.72,24.3-.533,10.187,1.49,16.46,12.977,15.721,23.244s-6.6,19.384-12.585,27.759c-19.952,27.916-43.752,53.658-73.026,71.56s-64.481,27.488-98.355,22.02c-15.782-2.548-33.039-10.363-37.291-25.774-2.159-7.824-.511-16.329-2.76-24.126-4.347-15.074-22.192-22.673-37.819-21.282s-29.75,9.387-43.914,16.134A304.318,304.318,0,0,1,397.92,493.195c-11.192-1.6-23.823-4.934-28.852-15.06-5.172-10.411.227-22.767,5.84-32.946a629.386,629.386,0,0,1,113.614-148.46" transform="translate(0 0)"/><path class="c" d="M823.417,396.763c0-41.6-35.522-75.437-79.181-75.437a82.818,82.818,0,0,0-8.612.456c.152-2.27.226-4.51.226-6.667a98.308,98.308,0,0,0-196.284-8.062,82.925,82.925,0,1,0-11.388,165.131l82.84.02a7.578,7.578,0,0,0,7.568-7.972c0-.057,0-.116-.01-.183V402.279A7.579,7.579,0,0,0,611,394.7H600.389l33.021-40.651c.794-.98,1.558-.98,2.353,0L668.784,394.7H658.175a7.579,7.579,0,0,0-7.579,7.58v61.83c-.012.177-.019.356-.019.514a7.582,7.582,0,0,0,7.579,7.58H743.57l1.088-.012C788.087,471.978,823.417,438.138,823.417,396.763Zm-78.869,60.27-78.793.011V409.858h7.124c8.889,0,12.2-4.928,13.2-7.046.983-2.058,2.695-7.541-2.562-14.013l-35.989-44.306a16.313,16.313,0,0,0-25.89,0L585.646,388.8c-5.251,6.467-3.538,11.95-2.559,14.008,1.006,2.118,4.314,7.046,13.2,7.046h7.128v47.186H529.754l-1.436-.019a67.765,67.765,0,0,1,.364-135.529,68.906,68.906,0,0,1,8.991.594l7.811,1.034a7.577,7.577,0,0,0,8.545-6.9l.638-7.858a83.149,83.149,0,0,1,166.024,6.751c0,1.858-.063,3.792-.2,5.74l-.607,8.878a7.576,7.576,0,0,0,8.342,8.056l8.882-.919a67.191,67.191,0,0,1,7.124-.385c35.3,0,64.022,27.041,64.022,60.278C808.258,429.821,779.7,456.861,744.548,457.033Z" transform="translate(-5.405 -4.306)"/><g transform="translate(440.346 259.03)"><rect class="c" width="15.698" height="164.07" transform="translate(65.865 87.402)"/><path class="d" d="M540.66,542.268H505.693a5.924,5.924,0,0,1-5.872-5.941h0a5.924,5.924,0,0,1,5.872-5.94H540.66a5.924,5.924,0,0,1,5.873,5.94h0A5.924,5.924,0,0,1,540.66,542.268Z" transform="translate(-449.462 -284.856)"/><path class="e" d="M573.566,307.407V266.765H475.675a30.185,30.185,0,0,0-29.923,30.266v57.506a6.9,6.9,0,0,0,6.84,6.917H596.649a6.9,6.9,0,0,0,6.84-6.917V314.326a6.9,6.9,0,0,0-6.84-6.918Z" transform="translate(-445.752 -266.765)"/><path class="f" d="M531.719,374.643c.151,0,.3.006.449.017v-6.229h-15.7V519.273h5.461V374.643Z" transform="translate(-450.605 -273.742)"/><path class="g" d="M453.857,346.158h-8.1v8.379a6.9,6.9,0,0,0,6.839,6.917H585.4a6.9,6.9,0,0,0,6.839-6.917V307.407H573.566V269a29.415,29.415,0,0,0-13.431-2.153C544.394,268,532.4,281.65,532.4,297.613v48.545Z" transform="translate(-445.752 -266.765)"/><path class="d" d="M610.7,297.031a30.184,30.184,0,0,0-29.922-30.266h0a30.184,30.184,0,0,0-29.923,30.266v57.506a6.9,6.9,0,0,0,6.839,6.917h46.166a6.9,6.9,0,0,0,6.84-6.917Z" transform="translate(-452.965 -266.765)"/><path class="d" d="M553.042,286.243a30.279,30.279,0,0,0-2.186,11.321V355.07a6.9,6.9,0,0,0,6.839,6.917h39.127a6.373,6.373,0,0,0,6.318-6.389V302.483A27.879,27.879,0,0,0,575.5,274.529h0A27.562,27.562,0,0,0,553.042,286.243Z" transform="translate(-452.965 -267.298)"/><g transform="translate(123.095 23.368)"><path class="h" d="M597.657,292.086,679.4,319.642a4.543,4.543,0,0,1,2.826,5.715l-13.86,42.065a4.468,4.468,0,0,1-5.651,2.857l-81.745-27.556a4.543,4.543,0,0,1-2.826-5.715l13.86-42.065A4.469,4.469,0,0,1,597.657,292.086Z" transform="translate(-577.917 -291.855)"/><path class="i" d="M598.546,292.086l81.744,27.556a4.543,4.543,0,0,1,2.826,5.715l-1.95,5.92a1.251,1.251,0,0,1-1.582.8l-87.847-29.613a1.272,1.272,0,0,1-.792-1.6l1.95-5.92A4.47,4.47,0,0,1,598.546,292.086Z" transform="translate(-578.807 -291.855)"/><path class="j" d="M665.217,323.37A2.143,2.143,0,0,0,667.931,322a2.18,2.18,0,0,0-1.357-2.745,2.144,2.144,0,0,0-2.713,1.373A2.179,2.179,0,0,0,665.217,323.37Z" transform="translate(-583.807 -293.727)"/><path class="j" d="M673.1,326.026a2.144,2.144,0,0,0,2.714-1.372,2.18,2.18,0,0,0-1.357-2.745,2.145,2.145,0,0,0-2.714,1.373A2.179,2.179,0,0,0,673.1,326.026Z" transform="translate(-584.348 -293.91)"/><path class="j" d="M680.975,328.682a2.143,2.143,0,0,0,2.713-1.372,2.18,2.18,0,0,0-1.357-2.745,2.144,2.144,0,0,0-2.713,1.373A2.179,2.179,0,0,0,680.975,328.682Z" transform="translate(-584.889 -294.092)"/><path class="k" d="M649.506,332.3l-55.669-18.766a1.4,1.4,0,0,1-.875-1.771h0a1.38,1.38,0,0,1,1.75-.885l55.669,18.765a1.4,1.4,0,0,1,.875,1.771h0A1.38,1.38,0,0,1,649.506,332.3Z" transform="translate(-578.945 -293.156)"/><path class="k" d="M647.485,338.436,591.816,319.67a1.4,1.4,0,0,1-.875-1.771h0a1.382,1.382,0,0,1,1.751-.886l55.669,18.766a1.4,1.4,0,0,1,.876,1.771h0A1.382,1.382,0,0,1,647.485,338.436Z" transform="translate(-578.806 -293.576)"/><path class="k" d="M645.465,344.567,589.8,325.8a1.4,1.4,0,0,1-.875-1.771h0a1.38,1.38,0,0,1,1.75-.886l55.67,18.766a1.4,1.4,0,0,1,.875,1.771h0A1.379,1.379,0,0,1,645.465,344.567Z" transform="translate(-578.667 -293.997)"/><path class="k" d="M643.445,350.7l-55.67-18.766a1.4,1.4,0,0,1-.875-1.771h0a1.38,1.38,0,0,1,1.75-.885l55.669,18.765a1.4,1.4,0,0,1,.875,1.771h0A1.38,1.38,0,0,1,643.445,350.7Z" transform="translate(-578.529 -294.418)"/><path class="k" d="M615.3,348.023l-29.541-9.958a1.4,1.4,0,0,1-.875-1.771h0a1.382,1.382,0,0,1,1.751-.886l29.541,9.958a1.4,1.4,0,0,1,.875,1.771h0A1.38,1.38,0,0,1,615.3,348.023Z" transform="translate(-578.39 -294.839)"/><ellipse class="l" cx="13.109" cy="9.56" rx="13.109" ry="9.56" transform="translate(68.196 63.212) rotate(-72.208)"/></g></g><g transform="translate(686.001 255.997)"><line class="m" y2="78.456" transform="translate(224.116 169.006)"/><ellipse class="n" cx="18.449" cy="3.869" rx="18.449" ry="3.869" transform="translate(205.667 244.046)"/><path class="o" d="M990.041,405.214A53.776,53.776,0,0,1,968.3,433.431a46.054,46.054,0,0,1-9.753,4.879c-9.481,3.462-19.885,4.06-30.058,3.726-1.49-.048-18.51-.685-18.987-4.589-.581-4.744,23.589-11.595,43.789-16.582,9.034-7.912,13.025-15.777,14.949-20.85.693-1.833,2.132-5.976,4.021-22.939.78-7.024,1.3-13.159,1.642-18.09.1-1.508.2-2.9.273-4.177C990.405,365.291,995.648,387.393,990.041,405.214Z" transform="translate(-723.23 -269.773)"/><path class="p" d="M947.353,430.034l-.118.086c-1.3.925-10.716,8.923-30.621,9.684-21.109.807,43.255-30.176,43.255-30.176Z" transform="translate(-723.427 -273.535)"/><g transform="translate(131.312 125.98)"><g class="q"><g transform="translate(-5.121 -2.235)"><path class="r" d="M946.711,430.511s-.027,0-.066,0c-.894.022-11.143.236-24.581.469-26.518.454-64.139,6.111-75.373,10.308-2.425.907-1.538-38.312-1.538-38.312,27.247-2.114,75.3-2.92,77.316-4.837,2.151-2.041,15.434-1.8,18.645-1.709.446.01.7.02.7.02l.022.188,2.451,22.983a.513.513,0,0,1,.008.059C945.068,425.654,945.886,429.829,946.711,430.511Z" transform="translate(-844.995 -396.371)"/><g class="s" transform="translate(77.066 0.058)"><path class="t" d="M952.39,430.515s-.027,0-.066,0c-.894.022-11.143.236-24.581.469a7.345,7.345,0,0,1,.037-.99,7.668,7.668,0,0,1,2.977-5.191,15.89,15.89,0,0,1,3.678-2.2c8.617-5.625,11.435-18.276,12.359-26.168.446.01.7.02.7.02l.022.188c.665,9.623,2.326,22.028,2.451,22.983a.549.549,0,0,1,.008.059C950.747,425.659,951.565,429.833,952.39,430.515Z" transform="translate(-927.739 -396.433)"/></g><g transform="translate(0.017 10.349)"><line class="u" x1="98.07" y2="5.321" transform="translate(0.009)"/><line class="u" y1="6.747" x2="98.791" transform="translate(0 8.821)"/><line class="u" x1="99.172" y2="9.313" transform="translate(0.258 17.495)"/></g><path class="u" d="M942.6,433.258" transform="translate(-851.693 -398.902)"/><path class="u" d="M928.177,398.269" transform="translate(-850.703 -396.501)"/><path class="u" d="M929.426,397.945s-3.406,17.929,1.7,33.082" transform="translate(-850.712 -396.479)"/><path class="u" d="M919.777,399.513s-5.23,7.771.887,32.339" transform="translate(-849.984 -396.586)"/><path class="u" d="M910.52,400.407s-3.813,10.645,1.355,31.519" transform="translate(-849.398 -396.648)"/><path class="u" d="M900.158,400.63s-3.388,16.252,2.354,31.95" transform="translate(-848.712 -396.663)"/><path class="u" d="M891.5,401.016s-5.4,15.954,2.394,32.487" transform="translate(-848.061 -396.69)"/><path class="u" d="M882.1,401.431a63.1,63.1,0,0,0,2.444,33.175" transform="translate(-847.462 -396.718)"/><path class="u" d="M873.016,401.842s-4.385,12.807,2.5,33.994" transform="translate(-846.823 -396.746)"/><path class="u" d="M864.943,402.432s-6.141,15.275,1.792,34.8" transform="translate(-846.208 -396.787)"/><path class="u" d="M854.975,402.789a71.682,71.682,0,0,0,2.268,36.221" transform="translate(-845.589 -396.811)"/></g><path class="v" d="M849.737,427.132s-1.5-7.423,3.513-8.245,26.777-5.54,31.13-8.079S898.272,397.1,898.272,397.1l26.556,9.751S894.538,421.5,892.9,421.96,849.737,427.132,849.737,427.132Z" transform="translate(-850.427 -398.655)"/></g></g><path class="w" d="M835.385,437.409s-29.767,76.429-33.426,76.363c-6.58-.08-31.685-1.913-6.988,6.9,11.98,6.14,12.283,2.994,13.5.749.992-1.835,8.725-15.669,11.522-20.67.626-1.119,28.785-58.756,28.785-58.756Z" transform="translate(-714.64 -275.442)"/><path class="x" d="M813.061,519.073c.552-1.185-10.473-2.925-11.785-2.233s-17.955.046-19.244,5.363,24.3,8.857,26.076,9.28S811.976,521.4,813.061,519.073Z" transform="translate(-714.48 -280.882)"/><path class="w" d="M865.522,442.889s32.594,54.573,41.022,70.255c-.544,2.712-.649,3-1.126,3.142-6.311,1.866-30.84,7.522-4.64,8.658,13.258,2.331,12.619-.764,13.118-3.267.191-.961.6-3.553,1.556-8.031-1.618-5.3-36.084-73.839-36.084-73.839Z" transform="translate(-720.213 -275.606)"/><path class="x" d="M917.818,517.876c.2-1.291-10.875.074-11.945,1.1s-17.247,4.992-17.021,10.458,25.8,1.817,27.624,1.735S917.416,520.414,917.818,517.876Z" transform="translate(-721.813 -280.928)"/><path class="y" d="M883.543,284.791s6.72,7.287,13.487,6.575-7.831,8.663-7.831,8.663-3.747-7.588-7.843-10.348S883.543,284.791,883.543,284.791Z" transform="translate(-721.204 -264.969)"/><path class="w" d="M840.682,432.424c3.413-4.1,76.4-29.57,76.4-29.57l29.008,22.372s-95.071,14.678-96.208,16.953S837.27,436.528,840.682,432.424Z" transform="translate(-718.465 -273.071)"/><g transform="translate(117.646 124.424)"><path class="c" d="M958.843,426.512s-.026.007-.064.016c-.859.253-28.5,5.332-41.417,9.038-25.5,7.308-60.368,22.515-70.133,29.48-2.107,1.5-11.407-36.607-11.407-36.607,25.77-9.1,71.973-22.323,73.425-24.7,1.55-2.528,14.441-5.734,17.566-6.481.434-.105.681-.161.681-.161l.07.176,8.322,21.564c.017.037.023.054.023.054C938.2,424.466,957.869,426.068,958.843,426.512Z" transform="translate(-835.821 -397.1)"/><g class="s" transform="translate(81.228)"><path class="t" d="M964.828,426.512s-.026.007-.064.016c-.859.253-28.5,5.332-41.417,9.038a7.2,7.2,0,0,1-.221-.966,7.667,7.667,0,0,1,1.53-5.784,15.892,15.892,0,0,1,2.983-3.079c6.865-7.665,6.31-20.614,5.158-28.476.434-.105.681-.161.681-.161l.07.176c3.136,9.123,7.952,20.674,8.322,21.564.017.037.023.054.023.054C944.185,424.466,963.854,426.068,964.828,426.512Z" transform="translate(-923.034 -397.1)"/></g><g transform="translate(2.221 9.59)"><line class="u" x1="93.345" y2="30.541"/><line class="u" y1="32.105" x2="93.672" transform="translate(2.645 8.335)"/><path class="u" d="M948.6,425.369l-8.614,1.414A121.887,121.887,0,0,0,917.3,432.8L844.438,459.86" transform="translate(-838.633 -408.63)"/></g><path class="u" d="M937.647,434.292" transform="translate(-842.809 -399.652)"/><path class="u" d="M914.655,404.233" transform="translate(-841.231 -397.59)"/><path class="u" d="M915.856,403.574s1.355,18.2,10.213,31.513" transform="translate(-841.313 -397.544)"/><path class="u" d="M906.986,407.57s-3.038,8.86,9.234,31.005" transform="translate(-840.682 -397.818)"/><path class="u" d="M898.249,410.845s-.926,11.269,9.473,30.092" transform="translate(-840.104 -398.043)"/><path class="u" d="M888.274,413.751s.937,16.576,10.549,30.25" transform="translate(-839.42 -398.243)"/><path class="u" d="M880.065,416.352s-1.087,16.81,10.726,30.759" transform="translate(-838.855 -398.421)"/><path class="u" d="M871.053,419.2a63.109,63.109,0,0,0,10.953,31.411" transform="translate(-838.239 -398.616)"/><path class="u" d="M862.4,421.945s-.918,13.506,11.224,32.185" transform="translate(-837.644 -398.805)"/><path class="u" d="M854.811,424.588s-1.975,16.345,10.744,33.15" transform="translate(-837.117 -398.986)"/><path class="u" d="M845.216,427.533a71.69,71.69,0,0,0,11.573,34.4" transform="translate(-836.466 -399.188)"/></g><path class="w" d="M790.788,373.493A52.712,52.712,0,0,0,762.825,385.1l24.692.779a7.556,7.556,0,0,1,1.947-2.96,7.886,7.886,0,0,1,5.141-2.025Z" transform="translate(-713.165 -271.056)"/><g transform="translate(147.418 2.626)"><path class="c" d="M875.28,274.982s10.793,13.823,11.939-.523C888.126,263.111,867.917,265.139,875.28,274.982Z" transform="translate(-868.189 -266.356)"/><path class="c" d="M878.2,272.821s-4.859-.039-7.931,1.761c-.929.545-2.194.37-2.481,1.537,0,0,3.508-12.307,11.511-9.325s10.009,3.907,3.008,18.453C882.305,285.247,885.751,274.187,878.2,272.821Z" transform="translate(-867.786 -266.328)"/></g><path class="c" d="M873.563,265.447s3.7-3.879,9.916-.664a8.256,8.256,0,0,1,4.8,8.683c-.432,2.74.384,4.248,1,4.512,0,0-2.647,1.069-3,.186,0,0,.619,1.5-2.589,5.166a4.113,4.113,0,0,0-1.521-4.98C879.335,276.416,873.563,265.447,873.563,265.447Z" transform="translate(-720.764 -263.508)"/><path class="w" d="M868.292,275.075a13.41,13.41,0,0,1,1.325,4.236,20.748,20.748,0,0,1-.1,4.964c-.1,1.083-.236,1.978-.338,2.6l2.808.564a6.381,6.381,0,0,0,2.586,3.494c5.887,4.149,11.494-5.278,8.4-10.223.036.058.754-.572.8-.618a2.663,2.663,0,0,0,.715-1.583,1.336,1.336,0,0,0-.183-.813,1.58,1.58,0,0,0-1.206-.623c-1-.1-1.143.655-1.56,1.366-.5-.664.243-3.392-.258-4.056a4.95,4.95,0,0,1-2.675-.2c-1.432-.556-1.674-1.546-3.655-3.028-1.283-.961-2.443-2.192-3.192-1.871a6.579,6.579,0,0,0-2.93,2.623C868.193,272.775,868.783,274.791,868.292,275.075Z" transform="translate(-720.403 -263.901)"/><path class="c" d="M876.015,265.446s-1.5-2.382-4.9-.713a5.411,5.411,0,0,0-2.156,2.042,9.172,9.172,0,0,1-3.676,3.079s.445.841,1.929.593c-.615.1-.807,2.592-.835,3-.1,1.521.148,3.841,1.451,4.849.426-1.766.479-3.408,1.345-5.091a14.566,14.566,0,0,1,3.568-4.2C872.97,268.8,876.078,265.544,876.015,265.446Z" transform="translate(-720.196 -263.551)"/><path class="l" d="M960.5,428.8c-5.9,2.359-19.433-5.626-46.518-21.6-10.971-6.467-19.649-12.02-30.107-11.484-.893.045-1.786.134-2.708.267a29.9,29.9,0,0,0-4.228.953,34.369,34.369,0,0,0-10.323,5.277c-.022-.305-.037-.617-.06-.938-.334-5.292-.647-12.028-.767-19.835-.015-1.138-.03-2.329-.037-3.564-.3-22.418-.141-58.569,12.876-69.547a70.808,70.808,0,0,0,7.644-7.213c.767-.848,1.564-1.764,2.368-2.754a67.954,67.954,0,0,0,6.229-9.14c.358.067.73.142,1.1.216a91.484,91.484,0,0,1,33.381,13.9c33.724,22.955,39.321,61.114,40.706,70.626C972.441,390.226,973.67,423.541,960.5,428.8Z" transform="translate(-720.224 -265.273)"/><path class="z" d="M896.238,392.229a72.7,72.7,0,0,0-11.567,6.855c-.893.045-1.794.134-2.717.267a29.822,29.822,0,0,0-4.22.953c-.223-4.406-.416-9.542-.5-15.243q-.022-1.709-.045-3.565c11.663-19.649,36.009-57.638,38.823-37.557C919.727,370.465,909.947,385.686,896.238,392.229Z" transform="translate(-721.013 -268.637)"/><path class="l" d="M789.7,367.24c-.144,1.065,1,1.564,2.908,5.816a39.1,39.1,0,0,1,2.077,5.815c10.091.6,18.449,10.617,24.2,14,10.078,5.938,26.15,13.413,42.788,9.97,9.524-1.972,15.787-6.981,23.678-13.294a102.623,102.623,0,0,0,25.756-30.741c.62-2.07,8.419-29.6-8.723-47.358-2.248-2.329-8.026-8.313-15.37-9.14-16.72-1.879-37.6,23.418-49.436,63.559-6.157-1.6-13.18-2.9-25.454-3.721C800.4,362.068,794.069,363.153,789.7,367.24Z" transform="translate(-715.009 -266.164)"/><g transform="translate(0 63.803)"><path d="M709.506,333.1l2.025-1.09,27.885,49.695-.779,2.493Z" transform="translate(-709.506 -332.012)"/><path d="M797.489,387.861v-2.493H741.563l-.779,2.493Z" transform="translate(-711.653 -335.674)"/></g><path class="z" d="M897.489,289.442a6.366,6.366,0,0,1-.916,2.56c-1.25,1.689-.938,6.259-1.719,7.659s-.3,2.805-5.091,1.816c-.722-.149-1.377-.268-1.973-.358.767-.848,1.564-1.764,2.367-2.754a67.954,67.954,0,0,0,6.229-9.14C896.745,289.293,897.118,289.368,897.489,289.442Z" transform="translate(-721.741 -265.273)"/><path class="o" d="M946.406,430.577s16.416-13.739,18.829-18.236,8.216-17.376,8.216-17.376l4.172-12.7,4.747,28.515-6.139,15.591-4.852,5.066-5.463,4.909-7.52-.331Z" transform="translate(-725.763 -271.658)"/><path class="n" d="M914.172,436.117c4.114-.12,24.941-.854,40.8-18.027,20.512-22.21,18.223-57.991,17.95-61.637-.186-1.212.358-2.2.95-2.344.656-.157,1.761.633,1.96,2.109.288,3.358,3.206,42.6-19.159,63.467A62.242,62.242,0,0,1,914.172,436.117Z" transform="translate(-723.551 -269.724)"/><path class="aa" d="M993.656,405.214a53.776,53.776,0,0,1-21.738,28.217,46.055,46.055,0,0,1-9.753,4.879,93.175,93.175,0,0,0,20.026-19.962c8.974-12.683,12.574-29.755,6.157-44.339a44.878,44.878,0,0,0-10.828-15.022c.1-1.508.2-2.9.273-4.177C994.02,365.291,999.262,387.393,993.656,405.214Z" transform="translate(-726.845 -269.773)"/></g><path class="l" d="M462.176,554c19.549,5.037,40.6,3.393,60.569,3.412,19.667.019,40.724-4.118,60.217-1.322,5.817.834,15.059,3.079,12.353,11.232-2.513,7.569-20.559,7.051-26.73,8.485,8.119,9.837,37.307,5.7,48.31,5.694,22.878-.019,45.607-2.2,68.463-2.637,27.725-.524,55.51.041,83.241.041,28.381,0,59.006-3.229,87.16.819,5.247.754,16.253,3.079,11.972,11.467-2.841,5.565-13.92,4.037-18.5,4.169-13.8.4-28.436-.586-42.178.631-3.657.323-12.119.343-14.809,3.076-3.393,3.449-.51,2.324-1.857,6.439-2.048,6.259-1.686,9.953-9.87,13.864-16.994,8.121-43.208,1.69-61.312.114-20.536-1.789-41.238-1-61.835-1.031-41.308-.07-82.611,2.52-124,2.576-10.14.013-32.681,3.8-39.59-6.578-6.476-9.727,4.371-12.346,10.392-17.743,16.989-15.226-29.544-13.136-39.438-14.392-8.915-1.132-31.087-1.566-34.842-12.845-2.469-7.416,3.834-11.8,9.839-14.035C447.027,552.725,453.184,552.2,462.176,554Z" transform="translate(-4.28 -27.374)"/></g></svg>