<svg xmlns="http://www.w3.org/2000/svg" xmlns:xlink="http://www.w3.org/1999/xlink" width="1365.799" height="768" viewBox="0 0 1365.799 768"><defs><style>.a,.v{fill:none;}.b{clip-path:url(#a);}.c{fill:#d2c3db;}.d{fill:#eadff1;}.ac,.e{fill:#000;}.f{fill:#b3b3b3;}.g{fill:gray;}.h{fill:#f2f2f2;}.i{fill:#d0d1d6;}.j{fill:#333;}.k,.l{fill:#d8a35d;}.k{fill-rule:evenodd;}.m{fill:#d19442;}.n{fill:#947dce;}.o{fill:#ffc84f;}.p{opacity:0.15;}.q{fill:#62548a;}.r{opacity:0.3;}.s{opacity:0.5;}.t{fill:#999;}.u{fill:#ccc;}.v{stroke:#947dce;stroke-width:0.747px;}.ac,.v{stroke-miterlimit:10;}.w{isolation:isolate;}.x{clip-path:url(#b);}.y{fill:#b9b9b9;}.z{fill:#302f30;}.aa{fill:red;}.ab{fill:lime;}.ac{stroke:#4f3b65;stroke-width:6px;}.ad{fill:#6a676b;}.ae{clip-path:url(#c);}.af{fill:#ffda89;}.ag{fill:#e8b648;}.ah{clip-path:url(#d);}.ai{fill:#eb3d03;}.aj{fill:#fefefe;}.ak{fill:#f8ebe3;}</style><clipPath id="a"><rect class="a" width="1365.799" height="768" transform="translate(0.1 912.279)"/></clipPath><clipPath id="b"><path class="a" d="M659.426,1497.918l-8.584-26.79,31.881-2.2,8.585,26.79Z"/></clipPath><clipPath id="c"><path class="a" d="M1289.512,1302.946l-.141-75.634-84.582-11.887.141,75.634Z"/></clipPath><clipPath id="d"><path class="a" d="M135.748,1356.629l.16-86.277,65.974-9.272-.16,86.277Z"/></clipPath></defs><g transform="translate(-0.1 -912.279)"><g class="b"><path class="c" d="M1365.9,926.316v758.464l-242.228-67.586-32.991-6.263,1.636-558.092,30.118-25.56Z"/><path class="c" d="M316.2,1042.25l-16.051,556.371L.1,1673.019V922.967l298.845,93.57Z"/><path class="d" d="M697.877,1005.85H273.269v617.384h849.165V1005.85Z"/><path class="e" d="M-.1,977.559c121.657,30.38,335.7,73.888,615,80.372,352.971,8.194,622.428-47.1,751-78.7V916.779H-.1Z"/><path class="e" d="M-.1,1639.463c121.657-29.39,335.7-71.481,615-77.753,352.971-7.928,622.428,45.568,751,76.133v47.19L.1,1687.779Z"/></g><path class="f" d="M393.156,1519.368v120.213l-8.417,9.712-4.209-133.486Z"/><path class="g" d="M376.322,1515.807v133.486h8.417V1519.368Z"/><path class="f" d="M733.8,1519.368v120.213l8.417,9.712,4.209-133.486Z"/><path class="g" d="M750.631,1515.807v133.486h-8.417V1519.368Z"/><path class="f" d="M439.143,1489.383V1604.6l-6.1,7.042L429.988,1486.8Z"/><path class="g" d="M426.937,1486.8v124.841h6.1V1489.383Z"/><path class="f" d="M686.124,1489.383V1604.6l6.1,7.042,3.051-124.841Z"/><path class="g" d="M698.33,1486.8v124.841h-6.1V1489.383Z"/><path class="h" d="M363.8,1512.246l60.085-67.553H701.235l62.273,67.553Z"/><rect class="f" width="399.704" height="7.122" transform="translate(363.804 1512.246)"/><path class="i" d="M625.283,1500.083H479.6c-1.618,0-4.281-1-3.281-2.23l15.729-22.338a5.577,5.577,0,0,1,4.546-1.987H608.077a6.041,6.041,0,0,1,4.912,2.141l15.569,21.968C629.65,1499.037,627.058,1500.083,625.283,1500.083Z"/><path class="j" d="M610.154,1494.223H493.516c-1.294,0-2.281-.5-2.077-1.046l4.919-13.2c.265-.712,1.7-1.235,3.373-1.235h105.2c1.49,0,2.755.47,2.971,1.1l4.508,13.275C612.589,1493.7,611.528,1494.223,610.154,1494.223Z"/><rect class="i" width="121.634" height="0.614" transform="translate(491.105 1481.015)"/><rect class="i" width="121.634" height="0.614" transform="translate(491.105 1484.087)"/><rect class="i" width="121.634" height="0.614" transform="translate(491.105 1487.773)"/><rect class="i" width="121.634" height="0.614" transform="translate(491.105 1491.152)"/><rect class="i" width="0.921" height="20.272" transform="translate(505.836 1476.122) rotate(17.439)"/><rect class="i" width="0.921" height="20.272" transform="translate(514.744 1476.121) rotate(17.439)"/><rect class="i" width="0.921" height="20.272" transform="translate(521.808 1476.122) rotate(17.439)"/><rect class="i" width="0.921" height="20.272" transform="translate(528.873 1476.122) rotate(17.439)"/><rect class="i" width="0.921" height="20.272" transform="translate(536.244 1476.121) rotate(17.439)"/><rect class="i" width="0.921" height="20.272" transform="translate(543.725 1475.891) rotate(10.978)"/><rect class="i" width="0.921" height="20.272" transform="translate(550.079 1475.794)"/><rect class="i" width="0.921" height="20.272" transform="translate(597.743 1476.398) rotate(-17.439)"/><rect class="i" width="0.921" height="20.272" transform="translate(589.143 1476.398) rotate(-17.439)"/><rect class="i" width="0.921" height="20.272" transform="translate(580.543 1476.398) rotate(-17.439)"/><rect class="i" width="0.921" height="20.272" transform="translate(571.942 1476.398) rotate(-17.439)"/><rect class="i" width="0.921" height="20.272" transform="translate(563.342 1476.398) rotate(-17.439)"/><rect class="i" width="0.921" height="20.272" transform="translate(554.742 1476.398) rotate(-17.439)"/><path class="k" d="M886.473,1267.97c-1.388-3.393-5.8-6.04-8.751-6.856a29.68,29.68,0,0,1-3.762-1.581c-2.288-.772,1.332,2.491,2.7,3.039,1.112.445,3.1,3.754,4.192,4.888s3.425,2.779,4.681,2.79S886.293,1268.6,886.473,1267.97Z"/><path class="k" d="M894.14,1279.733c-2.653-4.765-4.64-10.427-9.736-12.793s-12.721-2.326-16.77-2.946c-4.764-.729-2.767.821-.257,1.494,1.631.437,6.906,2,8.553,1.988a52.361,52.361,0,0,0-6.877-1.119c-.391.11-7.948-1.953-7.434-.563.995,2.7,9.53,3.039,12.249,3.632-1.434-.052-3.766-.482-5.147-.538-1.173-.049-4.715-1.338-5.064-.26-.55,1.7,8.19,2.8,9.352,2.9-1.15.924-5.535-.46-7.063-.566-.154-.011-1.546.323.128.912a50.268,50.268,0,0,0,10.278,2.97c4.028.594,8.752,1.215,11.437,4.893C889.938,1279.617,892.042,1279.993,894.14,1279.733Z"/><path class="l" d="M1029.307,1515.054s-9.277,95.725-5.332,97.372c7.077,3,34.792,12.822,4.236,10.664-15.7.946-14.545-2.561-14.79-5.532-.2-2.428.26-88.1-.384-94.76-.145-1.492-.232-2.394-.232-2.394Z"/><path class="l" d="M971.778,1515.054s4.022,95.725.077,97.372c-7.077,3-34.792,12.822-4.236,10.664,15.7.946,14.545-2.561,14.79-5.532.2-2.428,1.981-20.856,2.626-27.518.144-1.492,3.22-76.36,3.22-76.36Z"/><path class="m" d="M1002.546,1268.033s-.817,9.121,4.809,14.165-12.966,0-12.966,0,3.46-8.736,2.684-14.165S1002.546,1268.033,1002.546,1268.033Z"/><ellipse class="l" cx="9.836" cy="13.42" rx="9.836" ry="13.42" transform="translate(989.742 1244.729)"/><path class="n" d="M919.477,1326.029c14.89-31.148,41.465-45.358,58.433-49.131,7.344-1.636,12.888-1.315,14.913.433a11,11,0,0,0,6.866,2.668,14.888,14.888,0,0,0,3.855-.352,19.15,19.15,0,0,0,4.087-1.389c.627-.292.993-.5.993-.5a39.9,39.9,0,0,1,10.386.62c38.387,7.516,45.066,71.882,44.723,77.418-.209,3.295-3.616,18.223-7.875,31.492-3.489,10.893-7.561,20.673-10.908,22.025-7.427,2.989-63.5,7.09-75.027,1.591-.269-.2-.56-.418-.837-.657-4.326-3.519-9.018-10.467-11.506-16.975,0-.007-6.627-18.686-7.979-22.489-.015-.037-.022-.067-.037-.1-.045-.149-.1-.291-.15-.426-.015-.052-.037-.1-.052-.149"/><path class="o" d="M967.353,1408.7a6.063,6.063,0,0,0,3.442,1.587c8.086.159,43.011.757,61.956-.332,6.684-.384,11.379-.978,12.2-1.88,0,0,0,.028-.005.077-.05,1.045-.649,13-1.49,28.672-1.66,30.936,1.538,75.244,5.273,88.692.807,2.9-42.586-1.494-42.586-1.494-.121-31.925,2.908-87.973.952-90.485-2.381-3.057-6.24,46.243-10.665,87.5-17.184,4.482-44.395,1.761-44.08,0C956.088,1500.111,967.353,1408.7,967.353,1408.7Z"/><path class="p" d="M949.364,1370.11c.015.052.037.1.052.149.053.135.1.277.15.426.015.03.022.06.037.1,1.352,3.8,7.979,22.482,7.979,22.489,2.488,6.508,7.18,13.456,11.506,16.975-2.936-10.632-12.088-41.451-11.737-53.868C955.6,1368.347,949.364,1370.1,949.364,1370.11Z"/><path class="p" d="M1039.131,1325.585s-18.583,55.47,32.973,79.028l1.048.7-.266-13.046s-24.294-33.9-24.386-34.772S1039.131,1325.585,1039.131,1325.585Z"/><path class="p" d="M1000.339,1282.2c.03.889-.441,1.471-1.868,1.277-4.453-.6-9.481-.478-13.135,1.2a3.1,3.1,0,0,1-3-.127c-2.339-1.368-3.788-5.447-4.363-7.255a1.242,1.242,0,0,1-.06-.4c7.344-1.636,12.888-1.315,14.913.433a11,11,0,0,0,6.866,2.668A6.069,6.069,0,0,1,1000.339,1282.2Z"/><path class="q" d="M983.732,1611.433c.183-1.381-9.651-1.252-10.764-.129s-20.711,5.166-20.323,10.986,27.549,1.244,29.489,1.107S983.373,1614.15,983.732,1611.433Z"/><path class="q" d="M1012.87,1609.192c-.183-1.382,11.589.372,12.7,1.494s18.249,5.784,17.861,11.6-27.549,1.244-29.489,1.107S1013.23,1611.908,1012.87,1609.192Z"/><g class="r"><path d="M999.6,1410.593l-.389-.032S999.345,1410.57,999.6,1410.593Z"/><path class="s" d="M999.6,1410.593c10.408.83,33.155-.641,33.155-.641,6.684-.384,11.379-.978,12.2-1.88,0,0,0,.028-.005.077-.05,1.045-.649,13-1.49,28.672a7.823,7.823,0,0,1-1.094-.127,8.518,8.518,0,0,1-5.508-3.913,18.963,18.963,0,0,1-2.142-4.473C1026.956,1413.543,1002.931,1410.892,999.6,1410.593Z"/></g><path class="o" d="M995.882,1250.446s17.029,9.442,11.975-5.717C1004.36,1234.241,984.268,1243.688,995.882,1250.446Z"/><path class="o" d="M998.351,1246.825s-9.528,5.653-8.609,11.324c0,0-2.1-16.932,7.373-17.357s13.141.488,12.3,18.393C1009.415,1259.185,1006.663,1244.943,998.351,1246.825Z"/><path class="o" d="M996.7,1240.9s.478-5.276,5.708-4.528,7.472,3.735,8.219,6.724,1.494,5.23,2.241,5.23c0,0-2.241,2.241-2.988,1.494,0,0,1.939,5.373-.525,9.784,0,0-.97-6.8-4.705-7.543S996.7,1240.9,996.7,1240.9Z"/><path class="o" d="M997.18,1240.856s-3.735-2.241-7.471,2.989l-2.241,4.483s.747.747,2.241,0c0,0-.681,5.264.033,8.235l2.208-8.982Z"/><path class="t" d="M975.021,1342.137l9.473,60.69a6.483,6.483,0,0,0,7.4,5.4l41.421-6.47a2,2,0,0,0,.291-.06,6.458,6.458,0,0,0,5.1-7.337l-9.474-60.69a6.471,6.471,0,0,0-7.4-5.394l-39.5,6.164-1.92.3A6.47,6.47,0,0,0,975.021,1342.137Z"/><path class="u" d="M977.232,1341.779l9.474,60.689a6.471,6.471,0,0,0,7.4,5.4l39.5-6.164a6.458,6.458,0,0,0,5.1-7.337l-9.474-60.69a6.471,6.471,0,0,0-7.4-5.394l-39.5,6.164A6.458,6.458,0,0,0,977.232,1341.779Z"/><circle class="g" cx="5" cy="5" r="5" transform="translate(1003.391 1363.579)"/><path class="p" d="M1047.014,1384.948s.971-22.309-58.8-14.838,44.828,14.2,44.828,14.2Z"/><path class="k" d="M993.78,1378.468c-.708-.238-8.183-4.714-12.236-5.088s-10.113-.543-12.205-1.138c-2.461-.7-3.083.278-.247,1.36a40.03,40.03,0,0,0,6.455,1.828c.405.016-2.235-.339-5.1-.933-3.051-.633-6.361-1.493-6.512-.949-.294,1.054,8.494,3.423,10.043,3.591a39.11,39.11,0,0,1-4.082-.495c-1.843-.327-3.954-.979-4.369-.6-.653.6,4,2.428,7.848,2.962.067.124-1.175.319-5.7-.621-.455-.095-1.613.1-.123.793,3.135,1.45,4.376,2.3,8.92,2.446,4.431.138,9.321-.774,12.508.3Z"/><path class="k" d="M983.5,1373.779s-3.43-3.6-7.282-4.2c-2.29-.353-2.237-.929-2.627-1.1-1.3-.571-.042,1.835,1.9,2.452,1.58.5,2.463,3.2,3.413,3.776s3.794,1.624,4.5,1.252S983.5,1373.779,983.5,1373.779Z"/><path class="n" d="M1057.7,1287.926c14.073,12.591,23.811,24.287,29.885,62.759,3.082,19.518,2.28,39.037,1.477,49.33a12.162,12.162,0,0,1-8.358,10.576c-44.093,14.543-92.525-27.3-92.525-27.3-2.525-.94,2.558-9.944,2.558-9.944,24.377-.252,43.055.495,62.48,7.966-.1-.046-19.1-35.73-21.667-45.575-6.733-25.817-28.895-48.158-23.161-58.276C1010.369,1273.966,1043.5,1275.224,1057.7,1287.926Z"/><line class="v" x1="11.019" y2="115.224" transform="translate(963.922 1407.941)"/><line class="v" x1="10.936" y2="113.217" transform="translate(974.942 1410.246)"/><line class="v" x1="9.094" y2="112.426" transform="translate(987.473 1410.246)"/><line class="v" x2="0.234" y2="23.288" transform="translate(1006.863 1410.246)"/><line class="v" x1="2.11" y2="114.704" transform="translate(1016.182 1410.246)"/><line class="v" x1="0.588" y2="115.666" transform="translate(1027.538 1410.174)"/><line class="v" x2="2.225" y2="116.331" transform="translate(1037.791 1410.174)"/><path class="v" d="M965.863,1420.683s62.052,2.93,78.448,0"/><path class="v" d="M1007.1,1433.534c-21.712,4.917-42.489-2.857-42.489-2.857"/><path class="v" d="M1006.863,1432.064s19.594,5.506,36.8.857"/><path class="v" d="M963.541,1439.121s15.647,8.192,41.061,4.016"/><path class="v" d="M962.26,1449.178s24.348,7.434,41.138,3.608"/><path class="v" d="M960.976,1459.169s12.4,9.721,41.151,5.36"/><path class="v" d="M959.481,1470.661a60.326,60.326,0,0,0,41.7,3.141"/><path class="v" d="M958.091,1481.188s13.392,9.506,41.969,3.985"/><path class="v" d="M956.638,1491.981s18.484,9.662,42.569,1.856"/><path class="v" d="M955.475,1500.4s10.905,10.488,42.809,2.713"/><path class="v" d="M954.1,1509.963s17.633,9.29,43.238,2.42"/><path class="v" d="M1007.754,1442.582s8.186,6.759,35.914,1.741"/><path class="v" d="M1007.969,1452.754s11.486,5.356,35.043,1.126"/><path class="v" d="M1007.409,1464.045s17.736,5.342,35.6,0"/><path class="v" d="M1007.153,1473.408s17.242,7.664,36.2,0"/><path class="v" d="M1006.863,1483.687s16.415,5.76,36.968,0"/><path class="v" d="M1006.6,1493.56s13.837,6.208,37.88,0"/><path class="v" d="M1006.6,1502.3s16.428,8.466,38.716.9"/><path class="v" d="M1006.2,1513.214a75.949,75.949,0,0,0,40.33.466"/><path class="n" d="M949.6,1370.782s-45.478,19.294-56.513-22.315,4.138-50.814-10.115-68.051l9.2-7.122s31.724,16.781,41.149,42.988S949.6,1370.782,949.6,1370.782Z"/><g class="w"><g class="x"><path class="g" d="M682.111,1487.076c-1.387.095-3.691-.832-5.678-2.364-2.4-1.856-3.418-3.9-2.282-4.561a1.723,1.723,0,0,1,.745-.2c1.387-.1,3.691.831,5.677,2.363,2.4,1.856,3.419,3.9,2.283,4.561a1.741,1.741,0,0,1-.745.2m-6.207-11.509-8.013,3.98.046.04c.335.293.367.645.076.795l-.832.41a.625.625,0,0,1-.236.059,1.325,1.325,0,0,1-.9-.327l-.043-.037-8.012,3.976,8.918,9.058a14.616,14.616,0,0,0,10.3,3.173,12.118,12.118,0,0,0,4.535-1.162l3.795-1.886c4.413-2.189,4.932-6.639,1.152-9.943l-10.782-8.136"/><path class="j" d="M661.044,1474.862h0m-3.051-2.662-1.893.942c-4.413,2.189-3.8,6.084-.02,9.382l1.907,1.939,8.012-3.976-5.3-4.624c-.335-.293-.369-.65-.076-.794l.146-.072-3.039-2.662.264-.132,0,0"/><path class="j" d="M663.7,1470.243a10.1,10.1,0,0,0-3.8,1.013l-1.9.944,0,0,.267-.134,3.048,2.661-.268.132.414-.2a.608.608,0,0,1,.239-.062,1.34,1.34,0,0,1,.9.325l5.3,4.626,8.013-3.98-2.307-1.739a14.013,14.013,0,0,0-9.9-3.585"/><path class="g" d="M661.7,1474.6a.608.608,0,0,0-.239.062l-.414.2h0l-.27.134h0l-.146.072c-.293.144-.259.5.076.794l5.3,4.624.043.037a1.325,1.325,0,0,0,.9.327.625.625,0,0,0,.236-.059l.832-.41c.291-.15.259-.5-.076-.795l-.046-.04-5.3-4.626a1.34,1.34,0,0,0-.9-.325"/><path class="g" d="M658.264,1472.069l-.267.134-.264.132,3.039,2.661h0l.27-.133h0l.267-.132-3.048-2.661"/><path class="y" d="M674.9,1479.95a1.723,1.723,0,0,0-.745.2c-1.136.661-.115,2.7,2.282,4.561,1.987,1.532,4.291,2.459,5.678,2.364a1.741,1.741,0,0,0,.745-.2c1.136-.661.115-2.705-2.283-4.561-1.986-1.532-4.29-2.459-5.677-2.363"/></g></g><path class="g" d="M6.09,0H67.957a6.091,6.091,0,0,1,6.091,6.091V141.278a6.091,6.091,0,0,1-6.091,6.091H6.09A6.09,6.09,0,0,1,0,141.28V6.09A6.09,6.09,0,0,1,6.09,0Z" transform="translate(773.615 1495.231)"/><path class="j" d="M847.663,1634.866v-69.655H773.615v69.655c0,4.273,2.731,7.735,6.091,7.735h61.867C844.936,1642.6,847.663,1639.139,847.663,1634.866Z"/><path class="z" d="M828.044,1548.853a1.861,1.861,0,1,1-1.861-1.86A1.859,1.859,0,0,1,828.044,1548.853Z"/><path class="aa" d="M826.183,1550.31a1.457,1.457,0,1,1,1.457-1.457A1.457,1.457,0,0,1,826.183,1550.31Z"/><path class="ab" d="M836.115,1548.853a1.454,1.454,0,1,1-1.455-1.456A1.456,1.456,0,0,1,836.115,1548.853Z"/><rect class="j" width="65.037" height="16.907" rx="3.045" transform="translate(778.12 1504.923)"/><rect class="j" width="65.037" height="16.909" rx="3.045" transform="translate(778.12 1524.431)"/><rect width="6.014" height="2.79" transform="translate(834.66 1527.325)"/><rect width="6.014" height="2.795" transform="translate(834.66 1507.653)"/><path d="M773.615,1634.606v1.909a6.091,6.091,0,0,0,6.091,6.086h61.867a6.088,6.088,0,0,0,6.09-6.086v-1.909Z"/><circle cx="2.198" cy="2.198" r="2.198" transform="translate(780.088 1574.55)"/><circle cx="2.198" cy="2.198" r="2.198" transform="translate(789.428 1574.55)"/><circle cx="2.198" cy="2.198" r="2.198" transform="translate(798.767 1574.55)"/><circle cx="2.198" cy="2.198" r="2.198" transform="translate(808.107 1574.55)"/><circle cx="2.198" cy="2.198" r="2.198" transform="translate(817.447 1574.55)"/><circle cx="2.198" cy="2.198" r="2.198" transform="translate(826.786 1574.55)"/><circle cx="2.198" cy="2.198" r="2.198" transform="translate(836.126 1574.55)"/><circle cx="2.198" cy="2.198" r="2.198" transform="translate(780.088 1582.791)"/><circle cx="2.198" cy="2.198" r="2.198" transform="translate(789.428 1582.791)"/><circle cx="2.198" cy="2.198" r="2.198" transform="translate(798.767 1582.791)"/><circle cx="2.198" cy="2.198" r="2.198" transform="translate(808.107 1582.791)"/><circle cx="2.198" cy="2.198" r="2.198" transform="translate(817.447 1582.791)"/><circle cx="2.198" cy="2.198" r="2.198" transform="translate(826.786 1582.791)"/><circle cx="2.198" cy="2.198" r="2.198" transform="translate(836.126 1582.791)"/><circle cx="2.198" cy="2.198" r="2.198" transform="translate(780.088 1591.032)"/><circle cx="2.198" cy="2.198" r="2.198" transform="translate(789.428 1591.032)"/><circle cx="2.198" cy="2.198" r="2.198" transform="translate(798.767 1591.032)"/><circle cx="2.198" cy="2.198" r="2.198" transform="translate(808.107 1591.032)"/><circle cx="2.198" cy="2.198" r="2.198" transform="translate(817.447 1591.032)"/><circle cx="2.198" cy="2.198" r="2.198" transform="translate(826.786 1591.032)"/><circle cx="2.198" cy="2.198" r="2.198" transform="translate(836.126 1591.032)"/><circle cx="2.198" cy="2.198" r="2.198" transform="translate(780.088 1599.273)"/><circle cx="2.198" cy="2.198" r="2.198" transform="translate(789.428 1599.273)"/><circle cx="2.198" cy="2.198" r="2.198" transform="translate(798.767 1599.273)"/><circle cx="2.198" cy="2.198" r="2.198" transform="translate(808.107 1599.273)"/><circle cx="2.198" cy="2.198" r="2.198" transform="translate(817.447 1599.273)"/><circle cx="2.198" cy="2.198" r="2.198" transform="translate(826.786 1599.273)"/><circle cx="2.198" cy="2.198" r="2.198" transform="translate(836.126 1599.273)"/><circle cx="2.198" cy="2.198" r="2.198" transform="translate(780.088 1607.514)"/><circle cx="2.198" cy="2.198" r="2.198" transform="translate(789.428 1607.514)"/><circle cx="2.198" cy="2.198" r="2.198" transform="translate(798.767 1607.514)"/><circle cx="2.198" cy="2.198" r="2.198" transform="translate(808.107 1607.514)"/><circle cx="2.198" cy="2.198" r="2.198" transform="translate(817.447 1607.514)"/><circle cx="2.198" cy="2.198" r="2.198" transform="translate(826.786 1607.514)"/><circle cx="2.198" cy="2.198" r="2.198" transform="translate(836.126 1607.514)"/><circle cx="2.198" cy="2.198" r="2.198" transform="translate(780.088 1615.754)"/><circle cx="2.198" cy="2.198" r="2.198" transform="translate(789.428 1615.754)"/><circle cx="2.198" cy="2.198" r="2.198" transform="translate(798.767 1615.754)"/><circle cx="2.198" cy="2.198" r="2.198" transform="translate(808.107 1615.754)"/><circle cx="2.198" cy="2.198" r="2.198" transform="translate(817.447 1615.754)"/><circle cx="2.198" cy="2.198" r="2.198" transform="translate(826.786 1615.754)"/><circle cx="2.198" cy="2.198" r="2.198" transform="translate(836.126 1615.754)"/><circle cx="2.198" cy="2.198" r="2.198" transform="translate(780.088 1623.995)"/><circle cx="2.198" cy="2.198" r="2.198" transform="translate(789.428 1623.995)"/><circle cx="2.198" cy="2.198" r="2.198" transform="translate(798.767 1623.995)"/><circle cx="2.198" cy="2.198" r="2.198" transform="translate(808.107 1623.995)"/><circle cx="2.198" cy="2.198" r="2.198" transform="translate(817.447 1623.995)"/><circle cx="2.198" cy="2.198" r="2.198" transform="translate(826.786 1623.995)"/><circle cx="2.198" cy="2.198" r="2.198" transform="translate(836.126 1623.995)"/><path class="ac" d="M231.815,1205.967v205.775a.718.718,0,0,1-.6.709l-50.4,8-16,2.53-58.17,9.238a.718.718,0,0,1-.83-.709V1186.195a.716.716,0,0,1,.83-.708l58.17,9.238,16,2.53,50.4,8A.716.716,0,0,1,231.815,1205.967Z"/><rect class="ad" width="17.682" height="20.534" transform="translate(550.891 1440.429)"/><rect class="i" width="187.161" height="114.853" rx="4.563" transform="translate(463.923 1326.35)"/><path class="j" d="M517.182,1465.576v-3.52c0-1.953,18.059-3.531,40.321-3.531s40.318,1.578,40.318,3.531v3.52Z"/><rect class="j" width="33.614" height="4.178" transform="translate(542.414 1433.387)"/><rect class="j" width="187.089" height="102.671" rx="4.563" transform="translate(463.923 1326.35)"/><rect class="ac" width="92.671" height="177.089" transform="translate(646.012 1331.35) rotate(90)"/><path class="ac" d="M1184.151,1158.311v207l51,8.1,16,2.53,59,9.37v-247l-59,9.37-16,2.53Z"/><g class="w"><g class="ae"><path class="af" d="M1250.481,1221.846l35.487,4.987a4.223,4.223,0,0,1,3.411,4.153l.123,66.236-.083-44.716a4.222,4.222,0,0,0-3.411-4.153l-.353-.05-.021-11.3-77.861-10.943.009,5.149a3.019,3.019,0,0,0-2.957,3.228l-.019-10.419a3,3,0,0,1,3.4-3.187l38.891,5.466,0-1.254a3,3,0,0,1,3.389-3.2"/><path class="e" d="M1207.773,1226.06,1285.634,1237l.021,11.3-36.071-5.069-1.264-3.93a4.128,4.128,0,0,0-3.209-2.879l-36.888-5.185a3.157,3.157,0,0,0-.441-.031l-.009-5.149"/><path class="o" d="M1286.288,1302.487l-.086-.008.086.008m-81.364-15.1a4.221,4.221,0,0,0,3.411,4.153l77.773,10.93.09.011-.09-.011-77.773-10.93a4.221,4.221,0,0,1-3.411-4.153m3.3-56.144a3.157,3.157,0,0,0-.441-.031,3.019,3.019,0,0,0-2.957,3.228l.042,22.461c23.54,27.96,64.3,40.293,83.7,44.774a2.861,2.861,0,0,1-2.274.816,3.007,3.007,0,0,0,3.215-3.217l0-2.049-.083-44.716a4.222,4.222,0,0,0-3.411-4.153l-.353-.05-36.071-5.069-1.264-3.93a4.128,4.128,0,0,0-3.209-2.879l-36.888-5.185"/><path class="ag" d="M1204.867,1256.9c23.54,27.96,64.3,40.293,83.7,44.774a2.861,2.861,0,0,1-2.274.816h0l-.086-.008h0l-.09-.011-77.773-10.93a4.221,4.221,0,0,1-3.411-4.153l-.057-30.486"/></g></g><g class="w"><g class="ah"><path class="q" d="M181.5,1271.681l-23.022,3.236c-2.4.336-3.83,1.273-3.945,2.568.115-1.3,1.55-2.232,3.945-2.568l23.022-3.236a2.022,2.022,0,0,1,2.079,2.025l-.024,12.7-.023,12.58-7.009.985-5.508,10.626a7.535,7.535,0,0,1,4.953,7.474,10.582,10.582,0,0,1-4.949,8.838l-.022,12.07a4.111,4.111,0,0,1-3.323,4.045,2.926,2.926,0,0,1-3.31-3.113l.022-12.07a6.769,6.769,0,0,1-1.825-.938l-14.514,28-7.994,1.124a3.79,3.79,0,0,1-4.293-4.038l.077-41.656-.077,41.656a3.79,3.79,0,0,0,4.293,4.038l7.994-1.124,49.368-6.938a5.341,5.341,0,0,0,4.319-5.248l.077-41.656a3.8,3.8,0,0,0-4.3-4.037l-6.809.957.047-25.281-.008-.155-7.185,13.863.024-12.7a2.022,2.022,0,0,0-2.079-2.025"/><path class="n" d="M181.8,1263.9l-23.31,3.276a12.957,12.957,0,0,0-8.578,4.508,11.057,11.057,0,0,0-2.551,6.72l-.047,25.67-7.17,1.007a5.342,5.342,0,0,0-4.31,5.248l-.077,41.656a3.79,3.79,0,0,0,4.293,4.038l7.994-1.124,14.514-28a7.855,7.855,0,0,1-3.086-6.514c.009-4.919,3.71-9.424,8.259-10.063a7.232,7.232,0,0,1,3.281.271l5.508-10.626-22.037,3.1.047-25.583c.115-1.3,1.55-2.232,3.945-2.568l23.022-3.236a2.022,2.022,0,0,1,2.079,2.025l-.024,12.7,7.185-13.863a8.31,8.31,0,0,0-8.464-8.672,2.892,2.892,0,0,0-.473.031"/><path class="j" d="M167.731,1310.326c-4.549.639-8.25,5.144-8.259,10.063a7.855,7.855,0,0,0,3.086,6.514,6.769,6.769,0,0,0,1.825.938l-.022,12.07a2.926,2.926,0,0,0,3.31,3.113,4.111,4.111,0,0,0,3.323-4.045l.022-12.07a10.582,10.582,0,0,0,4.949-8.838,7.535,7.535,0,0,0-4.953-7.474,7.232,7.232,0,0,0-3.281-.271"/></g></g><path class="n" d="M594.543,1376.1c0-7.875-6.725-14.282-14.991-14.282a15.654,15.654,0,0,0-1.63.086c.028-.43.043-.854.043-1.262a18.612,18.612,0,0,0-37.162-1.526,15.7,15.7,0,1,0-2.156,31.263l15.684,0a1.434,1.434,0,0,0,1.432-1.509c0-.011,0-.022,0-.035v-11.7a1.435,1.435,0,0,0-1.435-1.435h-2.009l6.252-7.7c.15-.186.295-.186.445,0l6.252,7.7h-2.008a1.434,1.434,0,0,0-1.435,1.435v11.706c0,.034,0,.068,0,.1a1.436,1.436,0,0,0,1.435,1.435h16.171l.206,0C587.854,1390.344,594.543,1383.937,594.543,1376.1Zm-14.932,11.411-14.917,0v-8.934h1.349a2.539,2.539,0,0,0,2.5-1.334,2.42,2.42,0,0,0-.485-2.653l-6.813-8.388a3.089,3.089,0,0,0-4.9,0l-6.815,8.389a2.419,2.419,0,0,0-.484,2.652,2.539,2.539,0,0,0,2.5,1.334h1.35v8.934H538.945l-.272,0a12.83,12.83,0,1,1,1.771-25.546l1.479.195a1.434,1.434,0,0,0,1.618-1.306l.121-1.488a15.742,15.742,0,0,1,31.433,1.278c0,.352-.013.718-.038,1.087l-.114,1.681a1.434,1.434,0,0,0,1.579,1.525l1.681-.174a12.549,12.549,0,0,1,1.349-.073c6.684,0,12.121,5.119,12.121,11.412C591.673,1382.363,586.266,1387.482,579.611,1387.515Z"/><path class="ai" d="M532.579,1396.278c-5.444,0-10.889.045-16.332-.012a9.953,9.953,0,0,1-1.143-19.8,1.138,1.138,0,0,0,.673-.339,9.649,9.649,0,0,1,5.993-2.879c.293-.031.429-.124.478-.431a10.228,10.228,0,0,1,18.492-4.213.456.456,0,0,0,.593.227,10.224,10.224,0,0,1,12.206,6.161,9.538,9.538,0,0,1,.693,3.74.663.663,0,0,0,.3.6,9.385,9.385,0,0,1-5.708,16.926q-4.073,0-8.145,0h-8.1Zm-17.82-8.807-.006-.017.008.011c.856.436,1.8.644,2.668,1.047a2.85,2.85,0,0,0,2.463.1,4.54,4.54,0,0,1,.837-.23c.241-.054.32-.181.319-.428q-.012-2.984,0-5.966a.366.366,0,0,0-.317-.421c-.6-.166-1.2-.347-1.8-.526a.885.885,0,0,0-.594.018c-1.206.458-2.411.92-3.625,1.359a.477.477,0,0,0-.363.541c.017,1.335.023,2.671.006,4.006,0,.385.108.421.418.261a3.41,3.41,0,0,1,.687-.272c.278-.075.347-.237.343-.507-.013-1.06,0-2.119-.009-3.179,0-.25.052-.4.333-.455.7-.145,1.385-.319,2.073-.495.284-.073.43-.045.427.306q-.02,2.438,0,4.877c0,.325-.1.373-.411.341C517.065,1387.725,515.921,1387.513,514.759,1387.471Zm14.121-1.57h0c0,.391.008.783,0,1.175-.006.213.047.312.288.314s.287-.111.284-.317c-.007-.58-.009-1.161,0-1.741.017-1.085-.156-.886.918-.92.294-.009.41.071.4.386-.02.754,0,1.509-.008,2.263,0,.242.074.33.323.328s.274-.134.272-.33c-.005-.711.02-1.423-.009-2.132-.015-.383.07-.58.492-.515.16.024.32.025.318-.227s-.158-.265-.347-.266c-.14,0-.351.068-.4-.069a1.177,1.177,0,0,1,.034-.887.482.482,0,0,1,.533-.284c.145.009.313.118.32-.171.006-.256-.108-.322-.334-.334a1.1,1.1,0,0,0-1.184,1.025c-.1.73-.1.73-.851.724-.087,0-.174,0-.261,0a.2.2,0,0,1-.2-.127.777.777,0,0,1,.689-1.1c.158,0,.252-.014.253-.2,0-.162-.028-.289-.221-.31a1.27,1.27,0,0,0-.517.032c-.535.161-.778.555-.785,1.3,0,.221.04.457-.315.41-.2-.026-.282.084-.279.286,0,.224.153.219.3.206.239-.021.3.094.3.31C528.873,1385.117,528.88,1385.509,528.88,1385.9Zm-.9-1.1c-.011-.082-.024-.285-.063-.483a2.054,2.054,0,0,0-1.376-1.707,2.3,2.3,0,0,0-2.372.418,2.88,2.88,0,0,0-.1,3.834,1.932,1.932,0,0,0,.933.531C526.693,1387.811,527.983,1386.741,527.976,1384.8Zm17.06.07c-.036-1.118.662-2.208,1.872-1.816.12.039.268.1.286-.119.014-.181.012-.343-.227-.394a1.847,1.847,0,0,0-1.782.412,3.557,3.557,0,0,0-.343,3.972,1.427,1.427,0,0,0,1.714.446,1.611,1.611,0,0,0,.926-1.748,1.314,1.314,0,0,0-1.075-1.249A1.384,1.384,0,0,0,545.036,1384.868Zm2.89,1.846c-.1.572-.076.608.449.721a2.322,2.322,0,0,0,1.162-.044,1.461,1.461,0,0,0,1.055-1.6,1.317,1.317,0,0,0-1.182-1.293c-.857-.126-.857-.126-.842-1.016a.637.637,0,0,0,0-.087c-.025-.224.075-.314.3-.309.405.008.812,0,1.218,0,.187,0,.3-.035.3-.259s-.106-.266-.3-.264c-.594.008-1.189.01-1.784,0-.226,0-.3.082-.3.307.012.594.015,1.189,0,1.783-.008.283.111.349.367.325a3.147,3.147,0,0,1,.693,0,.943.943,0,0,1,.946,1.028,1.028,1.028,0,0,1-1.087.96A2.649,2.649,0,0,1,547.926,1386.714Zm-6.629-3.448a2.026,2.026,0,0,1,1.008-.287c.479.033.737.232.792.644a.768.768,0,0,1-.625.942,3.788,3.788,0,0,1-.691.064c-.19.009-.247.1-.245.28s.088.227.245.225a2.607,2.607,0,0,1,.777.069c.537.156.747.429.713.936a.884.884,0,0,1-.865.819,1.838,1.838,0,0,1-1.016-.171c-.087-.041-.168-.151-.274-.079s-.05.213-.054.323c-.008.2.148.273.3.323a2.365,2.365,0,0,0,1.621-.021,1.359,1.359,0,0,0,.886-1.278,1.1,1.1,0,0,0-.824-1.142c-.031-.01-.05-.054-.086-.095.072-.05.13-.092.189-.131a1.193,1.193,0,0,0,.53-1.321,1.156,1.156,0,0,0-.984-.862,2.422,2.422,0,0,0-1.033.069C541.314,1382.662,541.173,1382.855,541.3,1383.266Zm-2.9,2.558c.319,0,.639,0,.958,0,.13,0,.248,0,.291-.185a1.5,1.5,0,0,0-1.593-1.794,1.462,1.462,0,0,0-1.32,1.1,1.989,1.989,0,0,0,.41,2.15,1.789,1.789,0,0,0,1.927.225c.262-.089.426-.271.313-.518-.131-.286-.312,0-.445.054a1.174,1.174,0,0,1-1.661-.616c-.091-.279-.066-.449.293-.424C537.846,1385.84,538.123,1385.824,538.4,1385.824Zm-4.683-.109c0,.058,0,.116,0,.174a1.67,1.67,0,0,0,2.351,1.473.38.38,0,0,0,.238-.49c-.055-.251-.2-.059-.293-.023a1.215,1.215,0,0,1-1.435-.262,1.645,1.645,0,0,1-.023-1.765,1.189,1.189,0,0,1,1.437-.392c.1.034.2.19.3.057a.476.476,0,0,0,.006-.42c-.047-.143-.2-.149-.327-.178A1.764,1.764,0,0,0,533.716,1385.715Zm-1.127-.091c0,.491.005.983,0,1.474,0,.189.034.295.26.29.209-.006.317-.047.314-.288-.01-.954-.007-1.908,0-2.862,0-.2-.045-.324-.288-.323s-.289.11-.284.322C532.6,1384.7,532.59,1385.162,532.589,1385.624Zm.3-3.271c-.21.024-.363.129-.371.35a.365.365,0,1,0,.73.016C533.244,1382.5,533.1,1382.382,532.885,1382.353Z"/><path class="aj" d="M514.759,1387.472c1.162.041,2.306.253,3.46.372.311.032.413-.016.411-.341q-.016-2.439,0-4.877c0-.351-.143-.379-.427-.306-.688.176-1.378.35-2.073.495-.281.059-.335.205-.333.455.008,1.06,0,2.119.009,3.179,0,.27-.065.432-.343.507a3.41,3.41,0,0,0-.687.272c-.31.16-.422.124-.418-.261.017-1.335.011-2.671-.006-4.006a.477.477,0,0,1,.363-.541c1.214-.439,2.419-.9,3.625-1.359a.885.885,0,0,1,.594-.018c.6.179,1.2.36,1.8.526a.366.366,0,0,1,.317.421q-.016,2.984,0,5.966c0,.247-.078.374-.319.428a4.54,4.54,0,0,0-.837.23,2.85,2.85,0,0,1-2.463-.1c-.865-.4-1.812-.611-2.668-1.047Z"/><path class="ak" d="M528.88,1385.9c0-.392-.007-.784,0-1.175.005-.216-.057-.331-.3-.31-.145.013-.295.018-.3-.206,0-.2.075-.312.279-.286.355.047.313-.189.315-.41.007-.742.25-1.136.785-1.3a1.27,1.27,0,0,1,.517-.032c.193.021.221.148.221.31,0,.183-.1.2-.253.2a.777.777,0,0,0-.689,1.1.2.2,0,0,0,.2.127c.087.005.174,0,.261,0,.752.006.752.006.851-.724a1.1,1.1,0,0,1,1.184-1.025c.226.012.34.078.334.334-.007.289-.175.18-.32.171a.482.482,0,0,0-.533.284,1.177,1.177,0,0,0-.034.887c.052.137.263.068.4.069.189,0,.345.005.347.266s-.158.251-.318.227c-.422-.065-.507.132-.492.515.029.709,0,1.421.009,2.132,0,.2-.015.329-.272.33s-.326-.086-.323-.328c.01-.754-.012-1.509.008-2.263.009-.315-.107-.4-.4-.386-1.074.034-.9-.165-.918.92-.01.58-.008,1.161,0,1.741,0,.206-.037.319-.284.317s-.294-.1-.288-.314c.011-.392,0-.784,0-1.175Z"/><path class="ak" d="M527.976,1384.8c.007,1.943-1.283,3.013-2.98,2.593a1.932,1.932,0,0,1-.933-.531,2.88,2.88,0,0,1,.1-3.834,2.3,2.3,0,0,1,2.372-.418,2.054,2.054,0,0,1,1.376,1.707C527.952,1384.513,527.965,1384.716,527.976,1384.8Zm-.624.285c-.021-1.042-.338-1.658-.926-1.929a1.649,1.649,0,0,0-2.147.682,2.364,2.364,0,0,0,.351,2.738,1.592,1.592,0,0,0,1.8.2A1.742,1.742,0,0,0,527.352,1385.083Z"/><path class="ak" d="M545.036,1384.868a1.384,1.384,0,0,1,1.371-.5,1.314,1.314,0,0,1,1.075,1.249,1.611,1.611,0,0,1-.926,1.748,1.427,1.427,0,0,1-1.714-.446,3.557,3.557,0,0,1,.343-3.972,1.847,1.847,0,0,1,1.782-.412c.239.051.241.213.227.394-.018.22-.166.158-.286.119C545.7,1382.66,545,1383.75,545.036,1384.868Zm1.861,1.023c0-.641-.341-1.039-.9-1.048a.959.959,0,0,0-.973.99,1.056,1.056,0,0,0,.948,1.134C546.535,1386.972,546.9,1386.551,546.9,1385.891Z"/><path class="ak" d="M547.926,1386.714a2.649,2.649,0,0,0,1,.257,1.028,1.028,0,0,0,1.087-.96.943.943,0,0,0-.946-1.028,3.147,3.147,0,0,0-.693,0c-.256.024-.375-.042-.367-.325.015-.594.012-1.189,0-1.783,0-.225.073-.311.3-.307.595.009,1.19.007,1.784,0,.192,0,.3.045.3.264s-.115.263-.3.259c-.406-.006-.813.005-1.218,0-.225-.005-.325.085-.3.309a.637.637,0,0,1,0,.087c-.015.89-.015.89.842,1.016a1.317,1.317,0,0,1,1.182,1.293,1.461,1.461,0,0,1-1.055,1.6,2.322,2.322,0,0,1-1.162.044C547.85,1387.322,547.826,1387.286,547.926,1386.714Z"/><path class="ak" d="M541.3,1383.266c-.124-.411.017-.6.364-.693a2.422,2.422,0,0,1,1.033-.069,1.156,1.156,0,0,1,.984.862,1.193,1.193,0,0,1-.53,1.321c-.059.039-.117.081-.189.131.036.041.055.085.086.095a1.1,1.1,0,0,1,.824,1.142,1.359,1.359,0,0,1-.886,1.278,2.365,2.365,0,0,1-1.621.021c-.152-.05-.308-.121-.3-.323,0-.11-.061-.244.054-.323s.187.038.274.079a1.838,1.838,0,0,0,1.016.171.884.884,0,0,0,.865-.819c.034-.507-.176-.78-.713-.936a2.607,2.607,0,0,0-.777-.069c-.157,0-.243-.053-.245-.225s.055-.271.245-.28a3.788,3.788,0,0,0,.691-.064.768.768,0,0,0,.625-.942c-.055-.412-.313-.611-.792-.644A2.026,2.026,0,0,0,541.3,1383.266Z"/><path class="ak" d="M538.4,1385.824c-.276,0-.553.016-.827,0-.359-.025-.384.145-.293.424a1.174,1.174,0,0,0,1.661.616c.133-.053.314-.34.445-.054.113.247-.051.429-.313.518a1.789,1.789,0,0,1-1.927-.225,1.989,1.989,0,0,1-.41-2.15,1.462,1.462,0,0,1,1.32-1.1,1.5,1.5,0,0,1,1.593,1.794c-.043.181-.161.183-.291.185C539.038,1385.827,538.718,1385.824,538.4,1385.824Zm-.212-1.494a1,1,0,0,0-.88.66c-.1.222-.082.356.215.343.332-.015.665.008,1-.009.175-.009.426.111.508-.1a.66.66,0,0,0-.212-.63A.817.817,0,0,0,538.187,1384.33Z"/><path class="ak" d="M533.716,1385.715a1.764,1.764,0,0,1,2.256-1.826c.126.029.28.035.327.178a.476.476,0,0,1-.006.42c-.1.133-.2-.023-.3-.057a1.189,1.189,0,0,0-1.437.392,1.645,1.645,0,0,0,.023,1.765,1.215,1.215,0,0,0,1.435.262c.091-.036.238-.228.293.023a.38.38,0,0,1-.238.49,1.67,1.67,0,0,1-2.351-1.473C533.714,1385.831,533.716,1385.773,533.716,1385.715Z"/><path class="ak" d="M532.59,1385.624c0-.462.007-.925,0-1.387-.005-.212.045-.32.284-.322s.289.119.288.323c0,.954-.007,1.908,0,2.862,0,.241-.1.282-.314.288-.226.005-.263-.1-.26-.29C532.594,1386.607,532.589,1386.115,532.59,1385.624Z"/><path class="ak" d="M532.885,1382.353c.219.029.359.144.359.366a.365.365,0,1,1-.73-.016C532.522,1382.482,532.675,1382.377,532.885,1382.353Z"/><path class="aj" d="M514.761,1387.465l-.008-.011.006.017Z"/><path class="ai" d="M527.352,1385.083a1.742,1.742,0,0,1-.923,1.694,1.592,1.592,0,0,1-1.8-.2,2.364,2.364,0,0,1-.351-2.738,1.649,1.649,0,0,1,2.147-.682C527.014,1383.425,527.331,1384.041,527.352,1385.083Z"/><path class="ai" d="M546.9,1385.891c0,.66-.362,1.081-.922,1.076a1.056,1.056,0,0,1-.948-1.134.959.959,0,0,1,.973-.99C546.556,1384.852,546.9,1385.25,546.9,1385.891Z"/><path class="ai" d="M538.187,1384.33a.817.817,0,0,1,.628.26.66.66,0,0,1,.212.63c-.082.215-.333.095-.508.1-.332.017-.665-.006-1,.009-.3.013-.314-.121-.215-.343A1,1,0,0,1,538.187,1384.33Z"/><path class="af" d="M590.341,1365.161v-.548A1.611,1.611,0,0,0,588.73,1363H571.935a1.611,1.611,0,0,0-1.61,1.611v29.045h40.033v-26.886a1.611,1.611,0,0,0-1.611-1.611Z"/><rect class="e" width="36.853" height="26.47" transform="translate(572.102 1367.482)"/><path class="o" d="M589.77,1370.792l-.594,1.647H571.935a1.611,1.611,0,0,0-1.61,1.611v20.508a1.61,1.61,0,0,0,1.61,1.61h36.812a1.61,1.61,0,0,0,1.611-1.61v-23.22a1.611,1.611,0,0,0-1.611-1.611H591.285A1.612,1.612,0,0,0,589.77,1370.792Z"/><path class="ag" d="M610.358,1394.558v-13.371c-11.12,10.816-30.407,13.71-39.586,14.483a1.6,1.6,0,0,0,1.163.5h36.812A1.61,1.61,0,0,0,610.358,1394.558Z"/><path class="q" d="M599.107,1377.12H597.07v-7.05a2.835,2.835,0,0,0-2.54-2.733,1.089,1.089,0,0,0-.14-.009h-6.971a3.465,3.465,0,0,0-2.564.914,2.593,2.593,0,0,0-.76,1.765v7.113h-2.145a1.287,1.287,0,0,0-1.287,1.287v11.542a1.287,1.287,0,0,0,1.287,1.287h17.158a1.287,1.287,0,0,0,1.287-1.287v-11.542A1.287,1.287,0,0,0,599.107,1377.12Zm-4.182,0h-8.686v-7.091c.034-.353.463-.556,1.179-.556H594.3c.168.034.623.169.623.641v7.006Z"/><path class="n" d="M586.239,1377.12v-7.091c.034-.353.463-.556,1.179-.556H594.3c.168.034.623.169.623.641v3.521l2.144-3.565a2.835,2.835,0,0,0-2.54-2.733,1.089,1.089,0,0,0-.14-.009h-6.971a3.465,3.465,0,0,0-2.564.914,2.593,2.593,0,0,0-.76,1.765v7.113h-2.145a1.287,1.287,0,0,0-1.287,1.287v11.542a1.287,1.287,0,0,0,1.287,1.287h2.392l8.488-14.116Z"/><path class="j" d="M592.673,1382.114a2.466,2.466,0,1,0-3.458,2.258v3.345a.991.991,0,1,0,1.983,0v-3.345A2.465,2.465,0,0,0,592.673,1382.114Z"/><ellipse class="n" cx="33.575" cy="5.288" rx="33.575" ry="5.288" transform="translate(524.758 1397.888)"/></g></svg>