<svg xmlns="http://www.w3.org/2000/svg" width="177.19" height="412.615" viewBox="0 0 177.19 412.615"><defs><style>.a{fill:#d8a35d;}.b{fill:#62548a;}.c{fill:#ffc84f;}.d{opacity:0.3;}.e{opacity:0.5;}.f{fill:none;stroke:#947dce;stroke-miterlimit:10;stroke-width:0.792px;}.g{fill:#947dce;}.h{fill:#d19442;}.i{fill:#999;}.j{fill:#ccc;}.k{fill:gray;}.l{opacity:0.15;}</style></defs><g transform="translate(-1023.114 -239.919)"><path class="a" d="M1130.811,537.1s-.222,101.29,4.137,102.625c7.823,2.445,38.268,9.988,5.575,10.76-16.586,2.551-15.716-1.24-16.275-4.332-.458-2.525-8.593-92.4-9.95-99.317-.3-1.55-.487-2.487-.487-2.487Z"/><path class="a" d="M1070.236,536.809s-6.461,100.7-10.834,101.994c-7.85,2.361-38.375,9.581-5.693,10.7,16.558,2.727,15.729-1.073,16.322-4.159.485-2.52,4.441-21.624,5.873-28.531.32-1.546,11.979-79.621,11.979-79.621Z"/><path class="b" d="M1072.122,639.076c.349-1.427-10.1-2.379-11.413-1.326s-22.567,3.12-22.807,9.259,29.108,4.35,31.183,4.421S1071.436,641.881,1072.122,639.076Z"/><path class="c" d="M1059.3,425.053a6.523,6.523,0,0,0,3.745,1.511c8.631-.206,45.908-1.19,66.063-3.21,7.111-.714,12.09-1.555,12.927-2.542,0,0,0,.029,0,.081,0,1.1-.083,13.708-.247,30.237-.322,32.627,5.163,79.1,9.777,93.076,1,3.018-45.49.4-45.49.4-1.624-33.586-1.017-92.7-3.221-95.251-2.682-3.106-4.49,48.944-7.278,92.555-18.118,5.51-47.267,3.9-47.014,2.036C1051.567,521.757,1059.3,425.053,1059.3,425.053Z"/><g class="d"><path d="M1093.779,425.559l-.417-.016S1093.51,425.547,1093.779,425.559Z"/><path class="e" d="M1093.779,425.559c11.139.393,35.331-2.2,35.331-2.2,7.111-.714,12.09-1.555,12.927-2.542,0,0,0,.029,0,.081,0,1.1-.083,13.708-.247,30.237a8.409,8.409,0,0,1-1.172-.083,9.106,9.106,0,0,1-6.058-3.864,19.871,19.871,0,0,1-2.494-4.607C1123.1,427.4,1097.349,425.72,1093.779,425.559Z"/></g><line class="f" x1="6.358" y2="121.745" transform="translate(1061.002 423.908)"/><line class="f" x1="6.364" y2="119.63" transform="translate(1072.768 425.827)"/><line class="f" x1="4.436" y2="118.712" transform="translate(1086.096 425.334)"/><line class="f" x2="1.34" y2="24.492" transform="translate(1101.514 424.858)"/><line class="f" x2="3.119" y2="120.787" transform="translate(1113.702 424.33)"/><line class="f" x2="4.788" y2="121.729" transform="translate(1124.187 423.801)"/><line class="f" x2="7.819" y2="122.298" transform="translate(1134.496 423.354)"/><path class="f" d="M1058.274,437.734s66.318.216,83.667-3.623"/><path class="f" d="M1102.854,449.35c-22.926,6.177-45.45-1.043-45.45-1.043"/><path class="f" d="M1102.535,447.815s21.155,4.888,39.293-.8"/><path class="f" d="M1056.661,457.241s17.071,7.9,43.98,2.329"/><path class="f" d="M1055.766,467.882s26.316,6.7,44.044,1.9"/><path class="f" d="M1054.864,478.453s13.68,9.655,44.14,3.739"/><path class="f" d="M1053.807,490.613a65.209,65.209,0,0,0,44.626,1.38"/><path class="f" d="M1052.818,501.755s14.728,9.383,44.947,2.254"/><path class="f" d="M1051.773,513.177s20.166,9.313,45.488-.013"/><path class="f" d="M1050.927,522.093s12.121,10.532,45.784.877"/><path class="f" d="M1049.912,532.215s19.241,8.96,46.228.549"/><path class="f" d="M1103.977,458.84s9.047,6.734,38.385.174"/><path class="f" d="M1104.683,469.533s12.5,5.105,37.427-.433"/><path class="f" d="M1104.614,481.439s19.166,4.8,37.971-1.644"/><path class="f" d="M1104.78,491.3s18.747,7.268,38.61-1.672"/><path class="f" d="M1104.952,502.131s17.776,5.3,39.427-1.707"/><path class="f" d="M1105.131,512.532s15.048,5.892,40.4-1.75"/><path class="f" d="M1105.54,521.722s17.917,8.149,41.334-.841"/><path class="f" d="M1105.63,533.23a82.145,82.145,0,0,0,43.035-1.373"/><path class="b" d="M1122.82,637.439c-.334-1.431,12.354-.762,13.649.3s19.978,4.251,20.151,10.392-29.153,4.041-31.229,4.09S1123.476,640.251,1122.82,637.439Z"/><path class="g" d="M1052.6,429.907c6.2,8.491,54.8,15.778,80.085,11.036a39.7,39.7,0,0,0,8.334-2.392c2.4-1.041,4.72-3.752,6.936-7.745,16.86-30.4,27.3-135.059,15.136-141.018-13.755-6.745-38.62.771-38.62.771l-9.239,11.81-44.581,26.263s-10.339,37.885-15.874,67.494c-.409,2.183-.79,4.322-1.141,6.393C1051.349,416.089,1050.438,426.945,1052.6,429.907Z"/><path class="h" d="M1121.191,276.9c.006.943-1.638,10.777-.66,13.232s6.625,4.254,6.238,4.664-8.022,8.188-15.115,6.2-3.076-6.2-3.076-6.2a14.367,14.367,0,0,0,3.651-11.211C1111.509,276.636,1121.191,276.9,1121.191,276.9Z"/><path class="g" d="M1034.655,422.228c20.978,3.058,65.794-17.873,65.794-17.873l-4.276-11.793s-26.475,1.21-30.767,1.915c0,0,12.935-10.583,17.075-24.693,3.047-10.379,39.819-54.785,50.862-74.143,3.969-6.96-8.872-5.082-8.872-5.082s-2.9,7.591-7.88,8.5a5.6,5.6,0,0,1-2.793-.215c-6.676-2.194-6.941-4.965-6.941-4.965a129.385,129.385,0,0,0-16.692,2.714c-8.659,1.965-19.205,5.251-27.859,10.641-18.114,11.289-30.77,46.395-32.894,58.709S1013.679,419.171,1034.655,422.228Z"/><path class="i" d="M1122.465,345.453l-3.367,68.609a7.309,7.309,0,0,1-7.686,6.885l-47.465-2.271a2.419,2.419,0,0,1-.336-.032,7.255,7.255,0,0,1-6.635-7.552l3.367-68.609a7.3,7.3,0,0,1,7.687-6.877l45.264,2.16,2.2.1A7.273,7.273,0,0,1,1122.465,345.453Z"/><path class="j" d="M1119.929,345.317l-3.366,68.609a7.3,7.3,0,0,1-7.687,6.877l-45.265-2.159a7.255,7.255,0,0,1-6.635-7.552l3.367-68.609a7.3,7.3,0,0,1,7.687-6.877l45.264,2.16A7.253,7.253,0,0,1,1119.929,345.317Z"/><ellipse class="k" cx="5.668" cy="5.591" rx="5.668" ry="5.591" transform="translate(1082.37 373.23)"/><ellipse class="a" cx="12.131" cy="16.329" rx="12.131" ry="16.329" transform="translate(1104.121 250.799) rotate(-2.516)"/><path class="c" d="M1112,257.4s21.472,10.609,14.46-7.562C1121.612,237.272,1097.343,249.782,1112,257.4Z"/><path class="c" d="M1114.858,252.876s-11.448,7.359-10.022,14.206c0,0-3.464-20.476,8.187-21.477s16.219-.076,16.108,21.733C1129.131,267.338,1125,250.164,1114.858,252.876Z"/><path class="c" d="M1112.52,245.761s.317-6.438,6.8-5.8,9.4,4.16,10.475,7.755,2.112,6.282,3.032,6.244c0,0-2.646,2.839-3.6,1.969,0,0,2.668,6.433-.14,11.921,0,0-1.547-8.212-6.188-8.93S1112.52,245.761,1112.52,245.761Z"/><path class="c" d="M1113.108,245.681s-4.72-2.535-9.052,4.014l-2.53,5.564s.959.87,2.761-.115c0,0-.566,6.434.467,10.01l2.257-11.032Z"/><path class="l" d="M1053.636,402.519a58.457,58.457,0,0,0,3.517,4.93c.012.015-.1,1.795-.087,1.81,2.431,3.069,5.153,5,10.242,9.561.046.042,1.411.059,1.457.1q.8.714,1.648,1.457c15.78,13.813,44.653,18.7,62.272,20.565a39.7,39.7,0,0,0,8.334-2.392c2.4-1.041,4.72-3.752,6.936-7.745l-93.178-34.68-3.16-1.177S1049.946,396.7,1053.636,402.519Z"/><path class="l" d="M1150.934,307.914s-16.387,18.821-26.512,37.881c-.761,1.432-5.018,12.074-5.026,12.1-6.565,22.566-9.81,56.268-9.81,56.268l15.662-37.322Z"/><path class="a" d="M1049.288,397.988c3.845.527,13.8,3.871,13.8,3.871l1.981-6.061s-4.729-2.9-6.036-4.467-2.009-2.9-3.091-3.727a14.9,14.9,0,0,0-3.917-1.522l-.321.411-.318.408-.1-.009a10.566,10.566,0,0,1-1.527-.2,5.469,5.469,0,0,0-1.682,1.133,2.765,2.765,0,0,0-.474.533,4.444,4.444,0,0,1-1.421,1.164c-.159.1-.289.172-.359.222s-.277.242-.535.493c-.642.634-1.64,1.685-1.955,2.058a21.023,21.023,0,0,0-2.042,1.986,2.174,2.174,0,0,0-.225.4C1040.664,395.622,1045.444,397.461,1049.288,397.988Z"/><path class="g" d="M1133.821,331.05c0-1.009,8.576-47.387,26.934-42.423s30.753,9.2,37.9,44.707-7.736,104.839-69.994,100.276-55.343-23.278-70.862-31.558l2.993-11.708s2.693,4.555,10.565,2.7,30.517-7.64,44.1-5.219c0,0,11.072-8.346,10.184-12.957s5.415-36.829,11.322-44.589S1133.821,331.05,1133.821,331.05Z"/><path class="l" d="M1051.279,386.892a.467.467,0,0,0,.111.1c.334.2,2.394.9,2.617.963s-.754-.545-1.021-.567a5.978,5.978,0,0,1-1.284-.9l-.318.408Z"/><path class="a" d="M1108.016,387.848a8.171,8.171,0,0,1,2.7.565c1.119.742,1.746,1.88,3.086,2.042.377.046,2.429.305,2.2-.481a3.162,3.162,0,0,0-1.236-1.645s.027,0,.082.006c.13.006.424.027.854.078a26.92,26.92,0,0,1,3.91.8c2.939.813,6.649-1.68,6.855-1.943s-.246-.643-1.649-.993l-.051-.015c-1.443-.356-4.428-.66-4.428-.66s5.458-.1,8.546-.1a5,5,0,0,0,.682-.045h.012a5.393,5.393,0,0,0,3.362-1.884.419.419,0,0,0-.312-.689c-.947-.032-2.547-.106-3.744-.258a43.692,43.692,0,0,0-7.055.517c-.373.048-.6.081-.6.081s-1.312-.063,3.064-1.995,4.079-7.884,4.079-7.884a.739.739,0,0,0-.388-.08c-.491.015-1.409.391-2.6,2.472-1.8,3.151-5.207,4.12-5.628,5.137s-3.649,2.912-3.649,2.912-1.754.75-2.682,1.022c-.66.2-.8,1.115-.824,1.624-.006.149,0,.266,0,.314v.027a9.449,9.449,0,0,1-1.806-.712C1109.955,385.6,1108.016,387.847,1108.016,387.848Z"/><path class="l" d="M1121.832,383.139c-.373.048-.6.081-.6.081s-1.312-.063,3.064-1.995,4.079-7.884,4.079-7.884a.739.739,0,0,0-.388-.08,2.727,2.727,0,0,1,.064,1.169c-.167.708-1.861,5.088-3.467,6.09s-4.016,2.377-4.313,2.586S1121.1,383.378,1121.832,383.139Z"/><path class="l" d="M1114.262,384.685a2.754,2.754,0,0,1,1.488.215,19.2,19.2,0,0,0,3.424.792c.467.117,3.692.41,5.646.583l-.051-.015c-1.443-.356-4.428-.66-4.428-.66s5.458-.1,8.546-.1a5,5,0,0,0,.682-.045c-2.924-.066-7.452-.188-8.195-.218-1.1-.042-3.173.332-3.891,0a6.655,6.655,0,0,0-2.706-.709A1.631,1.631,0,0,1,1114.262,384.685Z"/><path class="l" d="M1112.6,386.742l2.246,1.593c.13.006.424.027.854.078a2.2,2.2,0,0,0-.715-1.091,7.9,7.9,0,0,0-2.385-.894C1112.6,386.577,1112.6,386.694,1112.6,386.742Z"/><path class="l" d="M1090.165,296.589c1.983,1.8,4.55,3.521,6.947,3.3,4.859-.458,8.325.913,12.474,3.194,2.71,1.49,5.521-1.581,7-4.025a5.6,5.6,0,0,1-2.793-.215c-6.676-2.194-6.941-4.965-6.941-4.965A129.385,129.385,0,0,0,1090.165,296.589Z"/></g></svg>