<svg xmlns="http://www.w3.org/2000/svg" xmlns:xlink="http://www.w3.org/1999/xlink" width="577" height="384" viewBox="0 0 577 384"><defs><style>.a{fill:#fff;stroke:#707070;}.b,.o{fill:none;}.c{clip-path:url(#a);}.d{fill:#bcd3d7;opacity:0.49;}.e{clip-path:url(#b);}.f{fill:#c2934e;}.g,.n{fill:#caa267;}.h,.q,.r{fill:#8a7cc7;}.i{fill:#f1c759;}.j{opacity:0.15;}.k{opacity:0.3;}.l{opacity:0.5;}.m{fill:#eec459;}.n,.r{fill-rule:evenodd;}.o{stroke:#8a7cc7;stroke-miterlimit:10;stroke-width:1.093px;}.p{fill:#9180d2;}.q{opacity:0.8;}</style><clipPath id="a"><rect class="a" width="577" height="384" transform="translate(354 384)"/></clipPath><clipPath id="b"><path class="b" d="M545.438,485.7c-68.1-54.565-102.146-81.846-134.113-90.724-106.8-29.656-258.528,31.379-291.893,142-1.736,5.756-24.618,85.688,19.723,138.057,37.124,43.846,83.828,24.028,220.892,47.334,146.741,24.951,182.114,62.781,232.725,33.591,47.918-27.638,73.9-94.823,63.112-147.981C647.861,568.442,613.611,540.321,545.438,485.7Z" transform="translate(-111.995 -387.51)"/></clipPath></defs><g class="c" transform="translate(-354 -384)"><g transform="translate(242.057 50.499)"><g transform="translate(111.995 401.556)"><path class="d" d="M545.438,485.7c-68.1-54.565-102.146-81.846-134.113-90.724-106.8-29.656-258.528,31.379-291.893,142-1.736,5.756-24.618,85.688,19.723,138.057,37.124,43.846,83.828,24.028,220.892,47.334,146.741,24.951,182.114,62.781,232.725,33.591,47.918-27.638,73.9-94.823,63.112-147.981C647.861,568.442,613.611,540.321,545.438,485.7Z" transform="translate(-111.995 -387.51)"/><g class="e"><g transform="translate(119.952 46.256)"><path class="f" d="M316.675,468.468s1.407,15.717-8.286,24.409,22.341,0,22.341,0-5.961-15.054-4.623-24.409S316.675,468.468,316.675,468.468Z" transform="translate(-181.346 -413.792)"/><ellipse class="g" cx="16.949" cy="23.124" rx="16.949" ry="23.124" transform="translate(123.494 14.521)"/><path class="h" d="M230.922,616.059c.36,5.677,6.231,31.4,13.568,54.262,6.013,18.77,13.029,35.621,18.8,37.952,12.8,5.149,109.413,12.216,129.278,2.742.462-.348.965-.722,1.441-1.134,7.453-6.063,15.538-18.035,19.825-29.249,0-.013,11.42-32.2,13.75-38.75a1.707,1.707,0,0,1,.064-.166c.077-.258.166-.5.257-.735.025-.089.064-.167.091-.257,12.024,41.054,106,38.067,51.494-75.956-25.657-53.67-71.448-78.155-100.684-84.656-12.655-2.819-22.207-2.266-25.7.746a18.952,18.952,0,0,1-11.832,4.6,25.662,25.662,0,0,1-6.643-.6,33.013,33.013,0,0,1-7.041-2.4c-1.081-.5-1.712-.862-1.712-.862a68.665,68.665,0,0,0-17.894,1.069C241.84,495.613,230.33,606.519,230.922,616.059Z" transform="translate(-201.023 -410.161)"/><path class="i" d="M256.431,818.744h66.6q-.136-6.118-.3-12.337c-.14-5.664-.3-11.37-.459-17.015-.169-5.984-.339-11.918-.5-17.7-.159-5.546-.309-10.951-.449-16.138-.379-14.651-.638-27.587-.588-36.982.04-8.9.359-14.61,1.128-15.588.289-.369.587-.3.907.2,1.007,1.576,2.145,7.431,3.391,16.347.668,4.738,1.356,10.343,2.074,16.627.708,6.143,1.436,12.955,2.2,20.235.528,5.107,1.067,10.452,1.625,15.978.629,6.333,1.276,12.885,1.934,19.588.489,4.908.978,9.894,1.477,14.931q.584,5.9,1.167,11.858h74.253c-.02-.179-.04-.369-.071-.548-.648-4.618-1.317-9.474-2-14.511-.818-5.985-1.656-12.218-2.5-18.591-.788-5.954-1.6-12.039-2.393-18.142-1.636-12.457-3.261-25.053-4.787-37.012-1.467-11.439-2.833-22.3-4.05-31.885-2.812-22.38-4.728-37.87-4.728-37.87a7.647,7.647,0,0,1-.607.549.215.215,0,0,1-.05.039,8.767,8.767,0,0,1-2.1,1.258,13.106,13.106,0,0,1-3.172.887c-1.646.03-3.929.071-6.743.12-4.986.089-11.609.18-19.208.26-5.685.059-11.919.11-18.4.13-1.7.01-3.4.02-5.117.01h-.079c-4.16.01-8.378.01-12.607-.01-6.642-.03-13.294-.1-19.677-.219-5.954-.11-11.69-.26-16.955-.469q-3.427-.149-6.572-.31c-.02.01-.04,0-.059,0l-.519-.029c-.528-.03-.818-.05-.818-.05-1.067-.059-2.094-.13-3.1-.2s-1.976-.13-2.913-.21h-.01c-.777-.059-1.525-.12-2.254-.189-.479-.04-.956-.089-1.416-.14-.229-.02-.459-.039-.677-.069s-.45-.05-.669-.07-.439-.049-.649-.069-.418-.05-.628-.079c-.3-.03-.588-.071-.878-.11-1.116-.15-2.123-.3-3.022-.459a21.194,21.194,0,0,1-3.431-.868c-.089-.03-.179-.069-.268-.11a4.22,4.22,0,0,1-.469-.209c-.071-.04-.14-.081-.2-.11s-.12-.081-.169-.12a1.274,1.274,0,0,1-.27-.229,1.158,1.158,0,0,0,.01.13c0,.079.01.209.02.378.01.219.019.509.039.868.01.239.02.509.04.8.03.548.06,1.2.091,1.935.009.189.019.378.029.578a.477.477,0,0,1,.01.12c.01.279.03.568.04.867s.039.619.049.938c.03.588.06,1.207.1,1.855.009.27.019.549.039.828q.03.6.059,1.227c.02.28.03.568.04.868.06,1.106.12,2.273.19,3.511.029.617.059,1.256.1,1.9s.059,1.317.1,2c.05.948.1,1.925.15,2.923.079,1.526.159,3.121.248,4.767.04.828.091,1.666.13,2.523.1,1.956.21,3.989.32,6.085.089,1.506.16,3.052.25,4.627.049,1.018.11,2.045.159,3.082q.18,3.275.359,6.722c.229,4.229.4,8.6.519,13.075.449,15.868.278,33.093-.329,49.968-.229,5.974-.5,11.9-.828,17.7s-.7,11.51-1.118,17.015Q256.98,812.765,256.431,818.744Z" transform="translate(-194.383 -363.132)"/><path class="j" d="M394.327,612.08c-.026.09-.064.168-.091.257-.089.232-.18.476-.257.733-.025.052-.039.1-.064.168-2.33,6.554-13.749,38.737-13.749,38.75-4.288,11.213-12.373,23.186-19.826,29.25,5.059-18.32,20.829-71.423,20.224-92.819C383.577,609.042,394.327,612.067,394.327,612.08Z" transform="translate(-167.36 -381.516)"/><path class="j" d="M281.376,550.639s39.386,92.786-46.008,140.194l-1.706,1.337-1.3-22.448s37.169-61.5,37.21-63.013S281.376,550.639,281.376,550.639Z" transform="translate(-200.642 -391.341)"/><path class="j" d="M317.606,489.253c-.05,1.531.76,2.535,3.22,2.2,7.672-1.043,16.337-.824,22.631,2.059a5.352,5.352,0,0,0,5.176-.218c4.028-2.356,6.526-9.385,7.518-12.5a2.156,2.156,0,0,0,.1-.682c-12.655-2.82-22.207-2.266-25.7.746a18.946,18.946,0,0,1-11.831,4.6A10.459,10.459,0,0,0,317.606,489.253Z" transform="translate(-178.474 -410.161)"/><g class="k" transform="translate(62.257 295.975)"><path d="M318.621,662.565c.227-.018.452-.036.672-.055C319.293,662.51,319.055,662.526,318.621,662.565Z" transform="translate(-240.467 -658.222)"/><path class="l" d="M334.751,663.451c-17.932,1.431-57.128-1.1-57.128-1.1-11.517-.663-19.607-1.686-21.027-3.24,0,0,0,.048.009.134.086,1.8,1.118,22.4,2.567,49.4a13.269,13.269,0,0,0,1.885-.217c4.035-.748,7.132-3.25,9.491-6.744a32.632,32.632,0,0,0,3.691-7.708C287.609,668.534,329.007,663.966,334.751,663.451Z" transform="translate(-256.597 -659.107)"/></g><g transform="translate(117.54)"><g transform="translate(5.753 6.447)"><path class="m" d="M328.293,447.261s-29.343,16.269-20.634-9.851C313.684,419.338,348.3,435.616,328.293,447.261Z" transform="translate(-304.773 -429.335)"/><path class="m" d="M324.3,440.78s16.417,9.742,14.833,19.513c0,0,3.62-29.176-12.7-29.909s-22.643.843-21.194,31.693C305.237,462.078,309.979,437.537,324.3,440.78Z" transform="translate(-305.036 -429.095)"/></g><path class="m" d="M328.33,432.146s-.825-9.09-9.836-7.8-12.874,6.436-14.162,11.586-2.574,9.011-3.862,9.011c0,0,3.862,3.862,5.15,2.576,0,0-3.342,9.258.9,16.858,0,0,1.671-11.71,8.109-13S328.33,432.146,328.33,432.146Z" transform="translate(-300.47 -424.219)"/><path class="m" d="M321.925,430.618s6.438-3.862,12.874,5.149l3.862,7.724s-1.288,1.288-3.862,0c0,0,1.173,9.071-.057,14.191L330.937,442.2Z" transform="translate(-294.89 -422.769)"/></g><path class="j" d="M266.859,639.389s-4.67-38.193,99.01-33.4S290.773,636.4,290.773,636.4Z" transform="translate(-191.68 -377.055)"/><g transform="translate(0 70.554)"><g transform="translate(165.754 153.413)"><path class="n" d="M338.733,620.9c1.184-.5,13.422-9.2,20.334-10.387s17.3-2.294,20.814-3.6c4.134-1.534,5.334.063.607,2.3-3.071,1.457-9.41,3.838-10.842,4.008-.694.083,3.794-.882,8.644-2.29,5.155-1.5,10.724-3.42,11.058-2.506.646,1.77-14.132,7.024-16.769,7.52a67.349,67.349,0,0,0,6.945-1.4c3.121-.809,6.659-2.214,7.424-1.613,1.2.946-6.547,4.71-13.083,6.144-.1.223,2.063.391,9.711-1.835.769-.223,2.785-.038.319,1.346-5.19,2.913-7.208,4.549-14.994,5.4-7.593.834-16.116-.074-21.448,2.19Z" transform="translate(-338.733 -600.831)"/><path class="n" d="M352.3,612.593s5.408-6.652,11.947-8.19c3.885-.916,3.716-1.9,4.364-2.247,2.148-1.154.318,3.146-2.941,4.468-2.647,1.075-3.8,5.834-5.355,6.946s-6.3,3.3-7.567,2.758S352.3,612.593,352.3,612.593Z" transform="translate(-335.272 -601.962)"/></g><path class="h" d="M250.959,506.762c-22.481,23.524-37.634,44.925-42.891,111.831-2.668,33.944,1.338,67.366,4.1,84.94a20.954,20.954,0,0,0,15.78,17.041c77.7,19.05,155.268-59.34,155.268-59.34,4.211-1.954-5.732-16.737-5.732-16.737-41.909,2.847-73.894,6.643-106.258,22.091.163-.092,27.995-63.947,31.086-81.2,8.092-45.254,43.156-86.614,31.944-103.225C330.383,476.412,273.635,483.033,250.959,506.762Z" transform="translate(-207.189 -480.211)"/></g><g transform="translate(71.612 295.747)"><path class="o" d="M367.617,818.792l-.878-9.246-1.7-17.753-1.825-19.049-1.785-18.68-1.955-20.4-1.526-16.027-1.5-15.658-1.965-20.526-1.446-15.1-.309-3.271-.4-4.159" transform="translate(-241.053 -658.927)"/><path class="o" d="M352.438,817.973l-.648-6.712-1.676-17.344-1.805-18.67-1.765-18.311-2.015-20.885-1.536-15.9-1.536-15.888-2.224-22.949-1.327-13.8-.489-4.987-.04-.449" transform="translate(-244.944 -658.107)"/><path class="o" d="M322.767,662.077l.05.579.419,5.206,1.127,13.973,1.875,23.1,1.267,15.738,1.346,16.586,1.626,20.126,1.426,17.643,1.5,18.541,1.336,16.5.638,7.909" transform="translate(-248.744 -658.107)"/><line class="o" x1="0.404" y2="40.127" transform="translate(55.875 3.973)"/><path class="o" d="M295.926,817.973l-.15-8.288-.329-17.474-.3-16.626L294.819,758l-.349-18.79-.289-16.017-.369-19.977-.389-20.914-.219-11.978-.07-3.89-.07-3.66v-.339l-.01-.359" transform="translate(-256.471 -658.107)"/><path class="o" d="M279.606,661.982v.08l.02,3.012.07,14.821.01,2.224.12,22.271.1,19.548.08,16.107.1,18.8.09,17.873.08,16.267.09,17.264L280.4,818" transform="translate(-259.968 -658.132)"/><path class="o" d="M267,661.982l-.02,1.117-.349,18.242-.419,21.792-.01.748-.349,18.391-.319,16.217L265.2,756.63l-.329,16.9-.319,17.045-.329,17.095-.2,10.333" transform="translate(-264.021 -658.132)"/></g><path class="o" d="M392.648,676.352s-106.92,5.048-135.171,0" transform="translate(-194.111 -358.648)"/><path class="o" d="M308.364,694.94c37.41,8.474,73.211-4.921,73.211-4.921" transform="translate(-180.877 -355.093)"/><path class="o" d="M321.773,691.915s-33.761,9.487-63.417,1.476" transform="translate(-193.883 -354.6)"/><path class="o" d="M382.527,701.566s-26.96,14.114-70.75,6.919" transform="translate(-179.99 -352.09)"/><path class="o" d="M384.307,715.318s-41.954,12.807-70.885,6.217" transform="translate(-179.562 -348.514)"/><path class="o" d="M386.067,728.979s-21.367,16.75-70.906,9.236" transform="translate(-179.11 -344.961)"/><path class="o" d="M388.308,744.694s-32.58,17.022-71.859,5.413" transform="translate(-178.775 -340.874)"/><path class="o" d="M390.3,759.09s-23.076,16.38-72.315,6.865" transform="translate(-178.374 -337.13)"/><path class="o" d="M392.5,773.848s-31.849,16.648-73.35,3.2" transform="translate(-178.071 -333.292)"/><path class="o" d="M378.442,785.91c.439-.349.648-.548.648-.548" transform="translate(-162.652 -330.298)"/><path class="o" d="M320.239,706.3s-14.105,11.647-61.883,3" transform="translate(-193.883 -350.86)"/><path class="o" d="M319.634,720.208s-19.792,9.229-60.381,1.94" transform="translate(-193.649 -347.242)"/><path class="o" d="M320.6,735.647s-30.562,9.2-61.348,0" transform="translate(-193.649 -343.227)"/><path class="o" d="M321.162,748.45s-29.71,13.207-62.378,0" transform="translate(-193.771 -339.897)"/><path class="o" d="M321.831,762.507s-28.283,9.924-63.7,0" transform="translate(-193.941 -336.242)"/><path class="o" d="M322.518,776.007s-23.842,10.7-65.27,0" transform="translate(-194.171 -332.731)"/><path class="j" d="M323.534,502.062c-.735,2.4-5.919,10.855-4.317,18.371s36.393,82.49,50.728,92.18,40.219,20.7,40.219,20.7l-70.729-97.854-3.909-33.4S328.119,487.037,323.534,502.062Z" transform="translate(-178.134 -405.711)"/><g transform="translate(147.995 64.307)"><path class="n" d="M328.564,503.154s-4.318-7.567-3.378-14.327c.559-4.018-.435-4.219-.527-4.96-.306-2.461,3.1.853,3.155,4.427.047,2.9,4.133,5.742,4.617,7.625s.817,7.18-.164,8.183S328.564,503.154,328.564,503.154Z" transform="translate(-324.64 -473.235)"/><path class="n" d="M330.45,524.78c-.043-1.308-3.793-16.1-2.382-23.083s4.244-19.1,4.3-22.909c.064-4.48,2.017-5.031,2.407.27.253,3.445.112,12.19-.251,13.61a55.337,55.337,0,0,0,1.324-8.958c.174-2.993.88-1.809,1.877-1.531,1.846.514,1.037,5.567.539,8.248a25.945,25.945,0,0,0,1.339-6.579c.132-1.523.868-1.127,1.772-.988s1.284,1.236.244,7.956c.175.175.451,1.864,1.15-6.2.071-.81,2.437-2.449,2.525.422.154,5.04,1.208,4.594-.839,12.287-2,7.5-5.985,15.247-5.8,21.13Z" transform="translate(-323.83 -475.254)"/></g><path class="p" d="M345.277,504.66a184.967,184.967,0,0,1,66.8,22.545c17.82,10.212,62.066,35.567,66.8,77.654.413,3.678,3.548,35.333-15.864,48.429-12.992,8.765-29.327,4.66-33.665,3.57-7.707-1.935-18.018-6.276-58.185-59.514-22.826-30.255-34.516-48.761-43.419-73.479-1.5-4.154-2.61-7.64-3.34-10.02Z" transform="translate(-176.707 -403.299)"/></g></g></g><path class="q" d="M373.184,451.342c-5.213-6.59-13.707-7.361-18.01-3.6-3.666,3.2-3.824,9.283-1.8,13.507,2.414,5.044,8.224,8.042,14.408,7.205a10.983,10.983,0,0,0,1.8,13.507c3.788,3.412,9.188,2.743,12.607.9a12.407,12.407,0,0,0,6.3-11.707c.523.057,7.9.754,10.806-3.6,3.245-4.874-1.347-12.719-6.3-16.209C387.579,447.529,379.882,447.615,373.184,451.342Z" transform="translate(62.437 29.123)"/><path class="q" d="M398.653,421.388c2.786.325,4.972-1.5,5.1-3.4a3.938,3.938,0,0,0-2.762-3.613,4.586,4.586,0,0,0-5.1,1.7,3.666,3.666,0,0,0-3.613-2.763,3.732,3.732,0,0,0-3.188,2.763,4.142,4.142,0,0,0,1.275,4.25c-.137.11-2.043,1.687-1.7,3.4.384,1.917,3.319,2.684,5.312,2.339A6.252,6.252,0,0,0,398.653,421.388Z" transform="translate(71.942 20.755)"/><path class="q" d="M460.3,353.769c-18.038-22.807-47.425-25.475-62.317-12.463-12.68,11.081-13.228,32.118-6.231,46.736,8.355,17.452,28.46,27.825,49.852,24.928-9.046,16.068-6.086,35.643,6.231,46.736,13.108,11.8,31.8,9.49,43.623,3.119,14.224-7.661,22.777-23.475,21.81-40.506,1.811.2,27.349,2.606,37.389-12.466,11.231-16.865-4.657-44.007-21.811-56.083C510.114,340.575,483.481,340.87,460.3,353.769Z" transform="translate(71.59 0)"/><g transform="translate(526.075 369.318)"><path class="m" d="M452.7,361.926q8.73,0,14.394,4.32,6.235,4.7,6.237,13.241,0,10.845-10.171,15.545a36.993,36.993,0,0,0-6.237,4.51,9.575,9.575,0,0,0-3.071,6.717A5.621,5.621,0,0,0,455.87,410h-2.111a8.955,8.955,0,0,1-2.591-6.046,12.07,12.07,0,0,1,2.686-7.581,38.4,38.4,0,0,1,5.9-5.566,35.181,35.181,0,0,0,5.9-5.661,11.957,11.957,0,0,0,2.3-7.388q0-5.277-3.119-8.013t-8.493-2.736a13.88,13.88,0,0,0-11.611,6.046q-2.784,0-2.782-2.015l-1.343-4.894q.765-2.015,5.469-3.262A26.275,26.275,0,0,1,452.7,361.926Zm1.823,53.928a4.869,4.869,0,0,1,3.359,1.3,4.155,4.155,0,0,1,1.438,3.214,4.216,4.216,0,0,1-1.39,3.214,4.7,4.7,0,0,1-3.31,1.3,4.917,4.917,0,0,1-3.407-1.247,4.465,4.465,0,0,1,0-6.477A4.69,4.69,0,0,1,454.527,415.854Z" transform="translate(-440.613 -361.926)"/></g><path class="r" d="M488.358,686.876a5.57,5.57,0,0,1-.93,5.852,5.632,5.632,0,0,1-9.443-1.5,5.573,5.573,0,0,1,.93-5.852,5.631,5.631,0,0,1,9.443,1.5Zm3.395,9.66a11.31,11.31,0,0,0,1.976-3.225l5.233.833.8-5.034-5.234-.833a11.279,11.279,0,0,0-.877-3.681l4.287-3.11-2.993-4.127-4.288,3.111a11.26,11.26,0,0,0-3.226-1.977l.832-5.233-5.033-.8-.833,5.233a11.3,11.3,0,0,0-3.681.878l-3.109-4.287-4.127,2.993,3.11,4.288a11.273,11.273,0,0,0-1.976,3.226l-5.234-.834-.8,5.035,5.232.833a11.379,11.379,0,0,0,.878,3.681l-4.286,3.109,2.993,4.127,4.288-3.11a11.341,11.341,0,0,0,3.224,1.977l-.833,5.233,5.034.8.833-5.232a11.324,11.324,0,0,0,3.682-.88l3.109,4.287,4.125-2.994Z" transform="translate(92.216 88.152)"/><path class="r" d="M172.061,587.045a5.571,5.571,0,0,1-.931,5.85,5.631,5.631,0,0,1-9.442-1.5,5.573,5.573,0,0,1,.929-5.852,5.632,5.632,0,0,1,9.444,1.5Zm3.395,9.66a11.314,11.314,0,0,0,1.976-3.226l5.232.833.8-5.034-5.234-.833a11.233,11.233,0,0,0-.878-3.679l4.288-3.111-2.993-4.125-4.288,3.11a11.3,11.3,0,0,0-3.226-1.977l.832-5.233-5.034-.8-.832,5.233a11.293,11.293,0,0,0-3.681.878l-3.109-4.286-4.127,2.991,3.11,4.288a11.257,11.257,0,0,0-1.976,3.227l-5.234-.834-.8,5.034,5.232.833a11.366,11.366,0,0,0,.877,3.681l-4.284,3.109,2.993,4.128,4.288-3.11a11.369,11.369,0,0,0,3.225,1.977l-.833,5.232,5.034.8.833-5.233a11.356,11.356,0,0,0,3.682-.878l3.109,4.287,4.125-2.994Z" transform="translate(9.958 62.188)"/><path class="r" d="M149.277,529.118a3.618,3.618,0,0,1,.2,3.842,3.652,3.652,0,1,1-.2-3.842Zm3.46,5.677a7.346,7.346,0,0,0,.819-2.316l3.436-.178-.17-3.305-3.437.179a7.316,7.316,0,0,0-1.055-2.22l2.3-2.554-2.458-2.217-2.3,2.554a7.3,7.3,0,0,0-2.315-.819l-.179-3.437-3.305.17.178,3.437a7.338,7.338,0,0,0-2.219,1.055l-2.554-2.3-2.216,2.458,2.554,2.3a7.324,7.324,0,0,0-.819,2.316l-3.437.178.171,3.305,3.436-.178a7.351,7.351,0,0,0,1.053,2.219l-2.3,2.554,2.458,2.218,2.3-2.554a7.4,7.4,0,0,0,2.316.82l.178,3.435,3.305-.17-.176-3.436a7.393,7.393,0,0,0,2.219-1.055l2.554,2.3,2.215-2.458Z" transform="translate(6.128 48.627)"/><path class="r" d="M236.5,440.439a3.618,3.618,0,0,1,.2,3.842,3.658,3.658,0,0,1-6.2.321,3.652,3.652,0,1,1,6-4.163Zm3.46,5.677a7.359,7.359,0,0,0,.82-2.316l3.435-.178-.17-3.305-3.437.179a7.314,7.314,0,0,0-1.053-2.22l2.3-2.554L239.4,433.5l-2.3,2.554a7.349,7.349,0,0,0-2.316-.82L234.6,431.8l-3.305.17.179,3.437a7.332,7.332,0,0,0-2.22,1.055l-2.553-2.3-2.218,2.458,2.555,2.3a7.3,7.3,0,0,0-.82,2.316l-3.436.178.171,3.305,3.435-.178a7.324,7.324,0,0,0,1.055,2.219l-2.3,2.554,2.458,2.218,2.3-2.554a7.4,7.4,0,0,0,2.315.82l.178,3.435,3.306-.171-.178-3.435a7.341,7.341,0,0,0,2.219-1.056l2.554,2.3,2.216-2.458Z" transform="translate(28.812 25.565)"/><path class="r" d="M480.3,633.678a3.616,3.616,0,0,1,.2,3.842,3.656,3.656,0,0,1-6.2.321,3.619,3.619,0,0,1-.2-3.842,3.657,3.657,0,0,1,6.2-.321Zm3.46,5.678a7.34,7.34,0,0,0,.82-2.316l3.436-.178-.17-3.305-3.437.178a7.309,7.309,0,0,0-1.055-2.219l2.3-2.554-2.458-2.218-2.3,2.555a7.324,7.324,0,0,0-2.316-.82l-.178-3.436-3.305.17.178,3.436a7.343,7.343,0,0,0-2.219,1.056l-2.554-2.3-2.216,2.458,2.554,2.3a7.314,7.314,0,0,0-.819,2.316l-3.438.177.171,3.306,3.436-.178A7.364,7.364,0,0,0,471.242,640l-2.3,2.554,2.458,2.216,2.3-2.554a7.37,7.37,0,0,0,2.316.82l.178,3.436,3.305-.171-.178-3.436a7.365,7.365,0,0,0,2.22-1.055l2.553,2.3,2.216-2.46Z" transform="translate(92.216 75.82)"/></g></g></svg>