<svg xmlns="http://www.w3.org/2000/svg" width="584.089" height="502.881" viewBox="0 0 584.089 502.881"><defs><style>.a{opacity:0.7;}.b{fill:#bec9f2;opacity:0.49;}.c{fill:#a3add0;}.d,.g{fill:#caa267;}.d,.e,.t,.u{fill-rule:evenodd;}.e{fill:#b8945b;}.f{fill:#c2934e;}.h,.t{fill:#8a7cc7;}.i{opacity:0.15;}.j,.u{fill:#eec459;}.k{fill:#e2a353;}.l{fill:#b38343;}.m{fill:#b15328;}.n{fill:#e7e7e7;}.o{fill:#8c929e;}.p{fill:#3f3f3f;}.q{fill:#cccdd2;}.r{fill:#fff;}.s{fill:#a5a5a5;}.v{fill:none;stroke:#c7c7c7;stroke-miterlimit:10;stroke-width:1.166px;}.w{fill:#bf2d3a;}.x{fill:#8cced8;}</style></defs><g transform="translate(-751.686 -324.736)"><g transform="translate(842.269 324.736)"><g class="a"><path class="b" d="M1123.676,739.681c-81.624-1.707-122.437-2.562-150.708-15.377C878.514,681.491,806.246,546.621,848.693,447.2c2.209-5.173,33.759-76.276,97.014-87.251,52.961-9.189,74.588,33.066,186.951,98.6,120.3,70.163,168.389,64.239,187.195,115.567,17.805,48.6-3.87,112.41-43.516,144.09C1246.85,741.765,1205.39,741.391,1123.676,739.681Z" transform="translate(-836.25 -322.319)"/><circle class="b" cx="25.052" cy="25.052" r="25.052" transform="translate(253.325 431.725)"/><circle class="b" cx="10.507" cy="10.507" r="10.507" transform="translate(304.185 481.867)"/><circle class="b" cx="18.1" cy="18.1" r="18.1" transform="translate(188.519 26.906)"/><circle class="b" cx="7.368" cy="7.368" r="7.368" transform="translate(179.241)"/><circle class="b" cx="5.407" cy="5.407" r="5.407" transform="translate(216.183 452.042)"/><circle class="b" cx="5.407" cy="5.407" r="5.407" transform="translate(255.349 66.521)"/></g></g><g transform="translate(751.686 397.568)"><path class="c" d="M908.586,442.66a1.084,1.084,0,1,0,1.084-1.084A1.084,1.084,0,0,0,908.586,442.66Z" transform="translate(-740.519 -389.252)"/><path class="c" d="M910.794,454.551a1.649,1.649,0,0,0-.694-1.519.856.856,0,0,0-.9,0,1.649,1.649,0,0,0-.694,1.519,1.15,1.15,0,0,0,2.288,0Z" transform="translate(-740.525 -388.445)"/><path class="c" d="M924.7,453.808a.976.976,0,1,0,.973-.973A.976.976,0,0,0,924.7,453.808Z" transform="translate(-739.372 -388.45)"/><path class="c" d="M831.039,537.29a1.067,1.067,0,1,0,1.067-1.067A1.067,1.067,0,0,0,831.039,537.29Z" transform="translate(-746.038 -382.515)"/><path class="c" d="M843.406,476.753a1.084,1.084,0,1,0,1.084-1.084A1.084,1.084,0,0,0,843.406,476.753Z" transform="translate(-745.158 -386.825)"/><path class="c" d="M832.96,549.2a1.649,1.649,0,0,0-.694-1.519.857.857,0,0,0-.9,0,1.649,1.649,0,0,0-.694,1.519,1.15,1.15,0,0,0,2.288,0Z" transform="translate(-746.065 -381.709)"/><path class="c" d="M835.1,491.427a1.648,1.648,0,0,0-.694-1.518.856.856,0,0,0-.9,0,1.648,1.648,0,0,0-.694,1.518,1.149,1.149,0,0,0,2.288,0Z" transform="translate(-745.913 -385.821)"/><path class="c" d="M846.887,548.259a.96.96,0,1,0,.957-.957A.96.96,0,0,0,846.887,548.259Z" transform="translate(-744.91 -381.727)"/><path class="c" d="M850.39,485.209a.976.976,0,1,0,.973-.973A.976.976,0,0,0,850.39,485.209Z" transform="translate(-744.661 -386.215)"/><path class="c" d="M751.775,426.545a1.085,1.085,0,1,0,1.085-1.085A1.084,1.084,0,0,0,751.775,426.545Z" transform="translate(-751.68 -390.399)"/><path class="c" d="M753.983,438.435a1.647,1.647,0,0,0-.694-1.518.856.856,0,0,0-.9,0,1.647,1.647,0,0,0-.694,1.518,1.149,1.149,0,0,0,2.288,0Z" transform="translate(-751.686 -389.592)"/><path class="c" d="M767.88,437.693a.976.976,0,1,0,.973-.973A.976.976,0,0,0,767.88,437.693Z" transform="translate(-750.533 -389.597)"/><path class="c" d="M1265.921,454.827a1.084,1.084,0,1,0,1.084-1.084A1.085,1.085,0,0,0,1265.921,454.827Z" transform="translate(-715.086 -388.386)"/><path class="c" d="M1268.129,466.718a1.647,1.647,0,0,0-.694-1.518.856.856,0,0,0-.9,0,1.647,1.647,0,0,0-.694,1.518,1.149,1.149,0,0,0,2.288,0Z" transform="translate(-715.092 -387.579)"/><path class="c" d="M1282.036,465.976a.976.976,0,1,0,.973-.973A.975.975,0,0,0,1282.036,465.976Z" transform="translate(-713.939 -387.584)"/><path class="c" d="M1188.374,549.457a1.067,1.067,0,1,0,1.067-1.067A1.067,1.067,0,0,0,1188.374,549.457Z" transform="translate(-720.605 -381.649)"/><path class="c" d="M1200.741,488.921a1.084,1.084,0,1,0,1.084-1.085A1.084,1.084,0,0,0,1200.741,488.921Z" transform="translate(-719.725 -385.959)"/><path class="c" d="M1190.295,561.365a1.649,1.649,0,0,0-.693-1.518.858.858,0,0,0-.9,0,1.65,1.65,0,0,0-.694,1.518,1.149,1.149,0,0,0,2.288,0Z" transform="translate(-720.632 -380.843)"/><path class="c" d="M1192.431,503.6a1.647,1.647,0,0,0-.694-1.518.856.856,0,0,0-.9,0,1.647,1.647,0,0,0-.694,1.518,1.149,1.149,0,0,0,2.288,0Z" transform="translate(-720.48 -384.955)"/><path class="c" d="M1204.222,560.427a.96.96,0,1,0,.957-.957A.96.96,0,0,0,1204.222,560.427Z" transform="translate(-719.477 -380.861)"/><path class="c" d="M1207.725,497.376a.976.976,0,1,0,.973-.973A.977.977,0,0,0,1207.725,497.376Z" transform="translate(-719.228 -385.349)"/><path class="c" d="M1109.11,438.712a1.085,1.085,0,1,0,1.085-1.084A1.085,1.085,0,0,0,1109.11,438.712Z" transform="translate(-726.247 -389.533)"/><path class="c" d="M1111.318,450.6a1.647,1.647,0,0,0-.694-1.518.856.856,0,0,0-.9,0,1.647,1.647,0,0,0-.694,1.518,1.15,1.15,0,0,0,2.288,0Z" transform="translate(-726.253 -388.726)"/><path class="c" d="M1125.216,449.86a.976.976,0,1,0,.972-.972A.975.975,0,0,0,1125.216,449.86Z" transform="translate(-725.101 -388.731)"/><path class="c" d="M956.9,614.425a1.084,1.084,0,1,0,1.084-1.084A1.084,1.084,0,0,0,956.9,614.425Z" transform="translate(-737.08 -377.027)"/><path class="c" d="M959.113,626.316a1.65,1.65,0,0,0-.694-1.519.861.861,0,0,0-.9,0,1.65,1.65,0,0,0-.694,1.519,1.15,1.15,0,0,0,2.288,0Z" transform="translate(-737.086 -376.22)"/><path class="c" d="M973.02,625.573a.976.976,0,1,0,.973-.971A.976.976,0,0,0,973.02,625.573Z" transform="translate(-735.933 -376.225)"/><path class="c" d="M879.358,709.055a1.067,1.067,0,1,0,1.067-1.067A1.067,1.067,0,0,0,879.358,709.055Z" transform="translate(-742.599 -370.29)"/><path class="c" d="M891.725,648.518a1.084,1.084,0,1,0,1.084-1.084A1.084,1.084,0,0,0,891.725,648.518Z" transform="translate(-741.719 -374.6)"/><path class="c" d="M881.279,720.963a1.647,1.647,0,0,0-.694-1.518.856.856,0,0,0-.9,0,1.65,1.65,0,0,0-.694,1.518,1.15,1.15,0,0,0,2.288,0Z" transform="translate(-742.626 -369.484)"/><path class="c" d="M883.415,663.193a1.649,1.649,0,0,0-.694-1.519.856.856,0,0,0-.9,0,1.649,1.649,0,0,0-.694,1.519,1.15,1.15,0,0,0,2.288,0Z" transform="translate(-742.474 -373.596)"/><path class="c" d="M895.206,720.025a.96.96,0,1,0,.957-.958A.96.96,0,0,0,895.206,720.025Z" transform="translate(-741.471 -369.502)"/><path class="c" d="M898.709,656.974a.976.976,0,1,0,.973-.973A.976.976,0,0,0,898.709,656.974Z" transform="translate(-741.222 -373.99)"/><path class="c" d="M800.094,598.31a1.085,1.085,0,1,0,1.085-1.085A1.085,1.085,0,0,0,800.094,598.31Z" transform="translate(-748.241 -378.174)"/><path class="c" d="M802.3,610.2a1.647,1.647,0,0,0-.694-1.518.856.856,0,0,0-.9,0,1.647,1.647,0,0,0-.694,1.518,1.149,1.149,0,0,0,2.288,0Z" transform="translate(-748.247 -377.367)"/><path class="c" d="M816.2,609.458a.976.976,0,1,0,.973-.973A.978.978,0,0,0,816.2,609.458Z" transform="translate(-747.094 -377.372)"/><path class="c" d="M1279.029,661.965a1.084,1.084,0,1,0,1.084-1.085A1.084,1.084,0,0,0,1279.029,661.965Z" transform="translate(-714.153 -373.643)"/><path class="c" d="M1281.237,673.855a1.65,1.65,0,0,0-.694-1.518.858.858,0,0,0-.9,0,1.649,1.649,0,0,0-.693,1.518,1.149,1.149,0,0,0,2.287,0Z" transform="translate(-714.16 -372.837)"/><path class="c" d="M1295.144,673.113a.976.976,0,1,0,.973-.973A.977.977,0,0,0,1295.144,673.113Z" transform="translate(-713.006 -372.842)"/><path class="c" d="M1201.482,756.595a1.067,1.067,0,1,0,1.067-1.068A1.067,1.067,0,0,0,1201.482,756.595Z" transform="translate(-719.672 -366.907)"/><path class="c" d="M1213.849,696.058a1.084,1.084,0,1,0,1.084-1.084A1.084,1.084,0,0,0,1213.849,696.058Z" transform="translate(-718.792 -371.216)"/><path class="c" d="M1203.4,768.5a1.647,1.647,0,0,0-.694-1.518.856.856,0,0,0-.9,0,1.647,1.647,0,0,0-.694,1.518,1.149,1.149,0,0,0,2.288,0Z" transform="translate(-719.699 -366.1)"/><path class="c" d="M1205.539,710.732a1.647,1.647,0,0,0-.694-1.518.856.856,0,0,0-.9,0,1.648,1.648,0,0,0-.694,1.518,1.149,1.149,0,0,0,2.288,0Z" transform="translate(-719.547 -370.212)"/><path class="c" d="M1217.33,767.564a.96.96,0,1,0,.957-.956A.959.959,0,0,0,1217.33,767.564Z" transform="translate(-718.544 -366.118)"/><path class="c" d="M1220.833,704.513a.976.976,0,1,0,.973-.972A.976.976,0,0,0,1220.833,704.513Z" transform="translate(-718.295 -370.607)"/><path class="c" d="M1122.218,645.849a1.085,1.085,0,1,0,1.084-1.084A1.085,1.085,0,0,0,1122.218,645.849Z" transform="translate(-725.314 -374.79)"/><path class="c" d="M1124.425,657.74a1.647,1.647,0,0,0-.694-1.518.856.856,0,0,0-.9,0,1.647,1.647,0,0,0-.694,1.518,1.149,1.149,0,0,0,2.288,0Z" transform="translate(-725.32 -373.984)"/><path class="c" d="M1138.323,657a.976.976,0,1,0,.973-.973A.976.976,0,0,0,1138.323,657Z" transform="translate(-724.168 -373.988)"/><g transform="translate(4.897)"><g transform="translate(107.603 33.109)"><path class="d" d="M881.391,469.71c-.366-1.254-1.494-16.36-4.957-22.607s-9.184-15.221-10.414-18.827c-1.446-4.241-4.72-8.265-2.133.928.935,3.318,3.03,9.868,3.8,11.116.375.605-.357-.424-2.35-5.161-2.12-5.035-2.859,2.078-1.57,4.488,0,0,.361.26-1.236-3.261-1.356-2.989-4.993-1.945-1.954,4.154-.054.108-2.475-4.559-3.218-3.745-1.806,1.981.487,7.35,2.622,10.721,4.161,6.575,10.235,12.824,11.882,18.47Z" transform="translate(-856.711 -423.638)"/><path class="d" d="M876.887,449.583s1.21-7.135-.153-10.3c-1.61-3.732-2.3-3.031-5.806-4.948-2-1.233-2.445.933,2.367,3.947.857,2.773-2.349,3.574-2.211,5.5s1.472,7.054,2.685,7.734S876.887,449.583,876.887,449.583Z" transform="translate(-855.8 -422.901)"/><path class="e" d="M871.948,441.517s-3,4.363-3.069,7.508S866.11,439.729,871.948,441.517Z" transform="translate(-855.893 -422.378)"/></g><g transform="translate(117.533)"><path class="f" d="M1054.427,445.007s-1.434,16.011,8.441,24.865-22.759,0-22.759,0,6.074-15.336,4.711-24.865S1054.427,445.007,1054.427,445.007Z" transform="translate(-853.588 -389.309)"/><ellipse class="g" cx="17.266" cy="23.557" rx="17.266" ry="23.557" transform="translate(178.365 14.793)"/><path class="h" d="M917.353,545.618c26.137-54.674,72.785-79.617,102.567-86.24,12.892-2.872,22.623-2.308,26.177.761a19.3,19.3,0,0,0,12.052,4.682,26.086,26.086,0,0,0,6.767-.617,33.638,33.638,0,0,0,7.173-2.439c1.1-.511,1.745-.878,1.745-.878a69.951,69.951,0,0,1,18.228,1.088c67.382,13.194,79.106,126.173,78.5,135.891-.367,5.784-6.348,31.986-13.823,55.278-6.125,19.12-13.272,36.287-19.147,38.661-13.035,5.246-111.459,12.446-131.694,2.794-.472-.355-.983-.735-1.47-1.155-7.593-6.176-15.829-18.373-20.2-29.8,0-.013-11.632-32.8-14.006-39.474-.027-.065-.04-.118-.066-.17-.078-.262-.17-.512-.261-.748-.027-.092-.066-.17-.092-.262" transform="translate(-862.326 -388.118)"/><path class="i" d="M966.328,613.6c.027.092.065.17.092.262.092.236.183.485.262.748.026.052.04.1.065.17,2.374,6.676,14.007,39.461,14.007,39.474,4.367,11.423,12.6,23.619,20.2,29.8-5.155-18.661-21.219-72.758-20.6-94.555C977.279,610.5,966.328,613.586,966.328,613.6Z" transform="translate(-858.84 -378.724)"/><path class="i" d="M1113.806,539.034s-32.617,97.368,57.879,138.719l1.839,1.222-.467-22.9s-42.642-59.5-42.8-61.035S1113.806,539.034,1113.806,539.034Z" transform="translate(-848.751 -382.315)"/><path class="i" d="M1052.475,468.689c.053,1.56-.773,2.583-3.279,2.242-7.817-1.063-16.642-.839-23.055,2.1a5.448,5.448,0,0,1-5.272-.223c-4.1-2.4-6.649-9.56-7.659-12.734a2.2,2.2,0,0,1-.1-.7c12.892-2.872,22.623-2.308,26.177.761a19.3,19.3,0,0,0,12.052,4.682A10.614,10.614,0,0,1,1052.475,468.689Z" transform="translate(-855.51 -388.118)"/><g transform="translate(174.372)"><g transform="translate(3.644 6.568)"><path class="j" d="M1042.973,417.12s29.891,16.573,21.019-10.036C1057.855,388.675,1022.588,405.258,1042.973,417.12Z" transform="translate(-1031.848 -398.86)"/><path class="j" d="M1047.629,410.685s-16.724,9.923-15.111,19.878c0,0-3.688-29.721,12.941-30.467s23.068.858,21.59,32.285C1067.05,432.381,1062.219,407.382,1047.629,410.685Z" transform="translate(-1032.17 -398.781)"/></g><path class="j" d="M1043.9,400.8s.841-9.26,10.021-7.949,13.114,6.557,14.425,11.8,2.623,9.18,3.935,9.18c0,0-3.935,3.934-5.246,2.622,0,0,3.4,9.432-.921,17.175,0,0-1.7-11.929-8.259-13.241S1043.9,400.8,1043.9,400.8Z" transform="translate(-1027.691 -392.728)"/><path class="j" d="M1045.817,400.249s-6.558-3.934-13.114,5.246l-3.934,7.869s1.311,1.311,3.934,0c0,0-1.2,9.24.058,14.455l3.877-15.768Z" transform="translate(-1028.768 -392.253)"/></g><path class="i" d="M1148.795,637.965s-16.87-35.38-103.363,25.433,81.177-14.92,81.177-14.92Z" transform="translate(-854.974 -376.002)"/><path class="h" d="M973.89,624.492s-79.828,33.866-99.2-39.172.778-90.554-7.1-126.108l12.84-6.182s48.329,29.8,64.873,75.8S973.89,624.492,973.89,624.492Z" transform="translate(-865.982 -388.436)"/></g><path class="k" d="M756.258,757.306H1304.38L1221.633,680.9H829.924l-5.14,9.43Z" transform="translate(-756.258 -372.218)"/><path class="i" d="M968.325,680.9c6.93,7.237,24.971,19.757,68.732,23.812,62.848,5.816,150.938-23.812,150.938-23.812Z" transform="translate(-741.164 -372.218)"/><g transform="translate(254.22 69.299)"><g transform="translate(0 230.056)"><path class="d" d="M1046,689.457c-1.243-.417-14.363-8.275-21.477-8.932s-17.751-.953-21.425-2c-4.32-1.229-5.411.488-.434,2.388,3.235,1.235,9.862,3.149,11.33,3.208.711.03-3.923-.593-8.96-1.638-5.356-1.11-11.165-2.619-11.431-1.666-.516,1.85,14.911,6.009,17.628,6.3a68.448,68.448,0,0,1-7.165-.868c-3.234-.574-6.94-1.719-7.668-1.048-1.147,1.057,7.023,4.262,13.775,5.2.118.219-2.063.56-10.009-1.089-.8-.166-2.831.182-.217,1.391,5.5,2.545,7.682,4.046,15.658,4.294,7.777.242,16.362-1.358,21.956.517Z" transform="translate(-993.586 -671.772)"/><path class="d" d="M1026.88,681.647s-6.022-6.324-12.783-7.367c-4.02-.62-3.926-1.633-4.61-1.935-2.275-1-.073,3.221,3.341,4.305,2.774.881,4.324,5.622,5.992,6.627s6.659,2.85,7.9,2.2S1026.88,681.647,1026.88,681.647Z" transform="translate(-992.521 -672.193)"/></g><path class="h" d="M1151.926,478.74c24.7,22.1,41.795,42.631,52.457,110.161,5.41,34.261,4,68.523,2.592,86.59a21.347,21.347,0,0,1-14.671,18.562c-77.4,25.529-160.01,20.431-160.01,20.431-4.433-1.649.348-17.685.348-17.685,39.6-53.739,96.189-44.7,111.414-54.128,4.749-27.857-33.519-62.717-38.031-80-11.819-45.316-50.721-84.531-40.655-102.292C1068.849,454.236,1127.008,456.446,1151.926,478.74Z" transform="translate(-990.965 -457.423)"/></g><rect class="l" width="548.122" height="18.48" transform="translate(0 385.088)"/><g transform="translate(157.338 201.596)"><g transform="translate(203.945 71.41)"><path class="m" d="M1094.937,649.93h0a.67.67,0,0,0,.4-.858l-.544-1.477-1.254.462.543,1.477A.67.67,0,0,0,1094.937,649.93Z" transform="translate(-1093.535 -647.595)"/></g><g transform="translate(196.957 73.974)"><path class="m" d="M1088.409,652.335h0a.67.67,0,0,0,.4-.858l-.544-1.477c-.036-.1-1.249.476-1.249.476l.539,1.463A.67.67,0,0,0,1088.409,652.335Z" transform="translate(-1087.012 -649.988)"/></g><g transform="translate(203.987 70.543)"><path class="n" d="M1095.069,649.7h0a.671.671,0,0,0,.4-.858l-.6-1.617a.67.67,0,0,0-.858-.4h0a.669.669,0,0,0-.4.858l.6,1.617A.67.67,0,0,0,1095.069,649.7Z" transform="translate(-1093.575 -646.786)"/></g><g transform="translate(197.008 73.113)"><path class="n" d="M1088.554,652.1h0a.67.67,0,0,0,.4-.858l-.6-1.618a.67.67,0,0,0-.858-.4h0a.671.671,0,0,0-.4.859l.6,1.616A.67.67,0,0,0,1088.554,652.1Z" transform="translate(-1087.06 -649.185)"/></g><g transform="translate(203.051 88.889)"><rect class="o" width="4.384" height="2.842" transform="translate(0 1.515) rotate(-20.217)"/></g><g transform="translate(201.176 84.188)"><rect class="o" width="4.384" height="2.842" transform="translate(0 1.515) rotate(-20.217)"/></g><g transform="translate(0 120.027)"><path class="p" d="M908.564,750.544H1131.24c2.472,0,5.083-1.247,5.349-4.878v-3.338l-24.375-45.039a7.758,7.758,0,0,0-6.949-4.307h-170.4c-3.18,0-10.192,6.262-11.614,9.107l-20.108,40.992v1.472C903.093,748.822,905.853,750.544,908.564,750.544Z" transform="translate(-903.141 -692.982)"/></g><g transform="translate(0.001 115.312)"><path class="q" d="M908.545,746.142h222.674c2.472,0,6.543-2.168,5.014-4.834l-24.039-48.419a7.758,7.758,0,0,0-6.949-4.308h-170.4a8.394,8.394,0,0,0-7.508,4.641l-23.8,47.618C901.871,743.875,905.833,746.142,908.545,746.142Z" transform="translate(-903.142 -688.58)"/></g><g transform="translate(26.735)"><rect class="q" width="182.353" height="115.228" rx="6.224"/></g><g transform="translate(33.801 6.285)"><rect class="r" width="168.286" height="99.846"/></g><g transform="translate(83.184 150.509)"><path class="p" d="M982.079,741.708h65.612a1.182,1.182,0,0,0,1.168-1.37l-2.767-17.282a1.921,1.921,0,0,0-1.9-1.618h-59.18a1.688,1.688,0,0,0-1.671,1.445l-2.536,17.38A1.28,1.28,0,0,0,982.079,741.708Z" transform="translate(-980.798 -721.438)"/></g><g transform="translate(25.045 123.28)"><path class="s" d="M930.005,719.681h178.273c1.977,0,3.487-.76,3.174-1.6l-7.517-20.176c-.406-1.088-2.591-1.888-5.157-1.888H937.984c-2.278,0-4.212.718-4.541,1.687l-6.891,20.289C926.283,718.889,927.9,719.681,930.005,719.681Z" transform="translate(-926.523 -696.018)"/></g><g transform="translate(24.576 118.775)"><g transform="translate(0 7.981)"><rect class="q" width="185.909" height="0.939" transform="translate(185.909 0.939) rotate(-180)"/></g><g transform="translate(0 12.676)"><rect class="q" width="185.909" height="0.939" transform="translate(185.909 0.939) rotate(-180)"/></g><g transform="translate(0 18.309)"><rect class="q" width="185.909" height="0.939" transform="translate(185.909 0.939) rotate(-180)"/></g><g transform="translate(0 23.473)"><rect class="q" width="185.909" height="0.939" transform="translate(185.909 0.939) rotate(-180)"/></g><g transform="translate(162.05 0.501)"><rect class="q" width="1.408" height="30.985" transform="translate(10.63 29.561) rotate(162.561)"/></g><g transform="translate(148.436 0.501)"><rect class="q" width="1.408" height="30.985" transform="translate(10.63 29.561) rotate(162.561)"/></g><g transform="translate(137.638 0.501)"><rect class="q" width="1.408" height="30.985" transform="translate(10.63 29.561) rotate(162.561)"/></g><g transform="translate(126.84 0.501)"><rect class="q" width="1.408" height="30.985" transform="translate(10.63 29.561) rotate(162.561)"/></g><g transform="translate(115.573 0.501)"><rect class="q" width="1.408" height="30.985" transform="translate(10.63 29.561) rotate(162.561)"/></g><g transform="translate(104.101 0.149)"><rect class="q" width="1.408" height="30.985" transform="translate(7.283 30.418) rotate(169.022)"/></g><g transform="translate(94.363 0)"><rect class="q" width="1.408" height="30.985" transform="translate(1.408 30.985) rotate(-180)"/></g><g transform="translate(12.29 0.501)"><rect class="q" width="1.408" height="30.985" transform="translate(1.344 29.983) rotate(-162.561)"/></g><g transform="translate(25.435 0.501)"><rect class="q" width="1.408" height="30.985" transform="translate(1.344 29.983) rotate(-162.561)"/></g><g transform="translate(38.58 0.501)"><rect class="q" width="1.408" height="30.985" transform="translate(1.344 29.983) rotate(-162.561)"/></g><g transform="translate(51.726 0.501)"><rect class="q" width="1.408" height="30.985" transform="translate(1.344 29.983) rotate(-162.561)"/></g><g transform="translate(64.871 0.501)"><rect class="q" width="1.408" height="30.985" transform="translate(1.344 29.983) rotate(-162.561)"/></g><g transform="translate(78.016 0.501)"><rect class="q" width="1.408" height="30.985" transform="translate(1.344 29.983) rotate(-162.561)"/></g></g></g></g><path class="t" d="M792.088,651.988a4.8,4.8,0,0,1-.8,5.036,4.846,4.846,0,0,1-8.126-1.293,4.8,4.8,0,0,1,.8-5.036,4.846,4.846,0,0,1,8.126,1.293Zm2.921,8.313a9.756,9.756,0,0,0,1.7-2.777l4.5.717.69-4.331-4.5-.717a9.651,9.651,0,0,0-.755-3.167l3.69-2.676-2.576-3.551-3.689,2.676a9.748,9.748,0,0,0-2.776-1.7l.716-4.5-4.331-.69-.716,4.5a9.733,9.733,0,0,0-3.169.756l-2.675-3.688-3.551,2.575,2.676,3.689a9.716,9.716,0,0,0-1.7,2.777l-4.5-.718-.689,4.332,4.5.717a9.783,9.783,0,0,0,.755,3.167l-3.687,2.676,2.575,3.551,3.69-2.676a9.761,9.761,0,0,0,2.774,1.7l-.717,4.5,4.332.689.718-4.5a9.778,9.778,0,0,0,3.167-.756l2.675,3.688,3.551-2.576Z" transform="translate(-750.144 -375.159)"/><path class="t" d="M984.931,429.811a2.184,2.184,0,1,1-3.667-.583,2.165,2.165,0,0,1,3.667.583Zm1.318,3.751a4.4,4.4,0,0,0,.768-1.252l2.031.323.312-1.955-2.033-.323a4.364,4.364,0,0,0-.341-1.429l1.665-1.207-1.161-1.6-1.665,1.207a4.418,4.418,0,0,0-1.253-.767l.324-2.032-1.955-.312-.323,2.032a4.415,4.415,0,0,0-1.43.342l-1.207-1.665-1.6,1.162,1.207,1.665a4.372,4.372,0,0,0-.767,1.252l-2.032-.323-.312,1.955,2.032.323a4.392,4.392,0,0,0,.341,1.429l-1.664,1.207,1.162,1.6,1.665-1.207a4.419,4.419,0,0,0,1.252.767l-.324,2.032,1.955.311.322-2.031a4.429,4.429,0,0,0,1.43-.342l1.207,1.665,1.6-1.162Z" transform="translate(-735.687 -390.487)"/><path class="u" d="M784.847,631.82a3.114,3.114,0,0,1,.721,3.232,3.143,3.143,0,1,1-.721-3.232Zm3.752,4.319a6.293,6.293,0,0,0,.362-2.082l2.89-.645-.62-2.78-2.891.646a6.282,6.282,0,0,0-1.214-1.732l1.586-2.5-2.4-1.528-1.586,2.5a6.292,6.292,0,0,0-2.083-.362l-.646-2.89-2.78.619.646,2.89a6.325,6.325,0,0,0-1.731,1.215l-2.5-1.586-1.528,2.4,2.5,1.586a6.277,6.277,0,0,0-.362,2.082l-2.891.645.621,2.78,2.889-.645a6.329,6.329,0,0,0,1.214,1.732l-1.585,2.5,2.4,1.528,1.586-2.5a6.332,6.332,0,0,0,2.082.363l.645,2.889,2.78-.62-.644-2.89a6.358,6.358,0,0,0,1.731-1.214l2.5,1.586,1.526-2.4Z" transform="translate(-750.144 -376.213)"/><path class="t" d="M1170.884,417.515a4.8,4.8,0,0,1,4.127-2.994,4.845,4.845,0,0,1,4.831,6.659,4.794,4.794,0,0,1-4.126,3,4.846,4.846,0,0,1-4.832-6.661Zm3.812-7.943a9.744,9.744,0,0,0-3.165.761l-2.677-3.691-3.55,2.575,2.678,3.692a9.66,9.66,0,0,0-1.705,2.773l-4.5-.717-.69,4.332,4.5.717a9.726,9.726,0,0,0,.761,3.165l-3.69,2.678,2.574,3.551,3.691-2.678a9.721,9.721,0,0,0,2.774,1.705l-.717,4.5,4.332.69.717-4.5a9.713,9.713,0,0,0,3.165-.762l2.677,3.692,3.551-2.576-2.677-3.69a9.776,9.776,0,0,0,1.705-2.773l4.5.716.691-4.333-4.5-.717a9.774,9.774,0,0,0-.758-3.165l3.69-2.677-2.576-3.55-3.69,2.677a9.767,9.767,0,0,0-2.774-1.705l.717-4.5-4.333-.689Z" transform="translate(-722.547 -391.85)"/><path class="t" d="M1259.853,679.124a4.8,4.8,0,0,1,4.126-2.994,4.846,4.846,0,0,1,4.832,6.659,4.8,4.8,0,0,1-4.126,3,4.846,4.846,0,0,1-4.832-6.661Zm3.812-7.943a9.737,9.737,0,0,0-3.165.76l-2.677-3.691-3.551,2.575,2.679,3.692a9.68,9.68,0,0,0-1.706,2.773l-4.5-.717-.69,4.332,4.5.717a9.727,9.727,0,0,0,.759,3.165l-3.69,2.678,2.575,3.551,3.69-2.678a9.726,9.726,0,0,0,2.776,1.705l-.718,4.5,4.332.69.717-4.5a9.719,9.719,0,0,0,3.166-.762l2.677,3.692,3.55-2.576-2.677-3.69a9.772,9.772,0,0,0,1.706-2.773l4.5.716.69-4.333-4.5-.717a9.8,9.8,0,0,0-.758-3.165l3.69-2.677-2.576-3.55-3.691,2.677A9.755,9.755,0,0,0,1268,671.87l.717-4.5-4.332-.689Z" transform="translate(-716.215 -373.23)"/><path class="u" d="M1161.41,436.091a3.114,3.114,0,0,1,1.775-2.8,3.143,3.143,0,1,1-1.775,2.8Zm.4-5.707a6.3,6.3,0,0,0-1.729,1.216l-2.5-1.587-1.527,2.4,2.5,1.589a6.278,6.278,0,0,0-.365,2.082l-2.889.645.62,2.78,2.889-.645a6.313,6.313,0,0,0,1.216,1.729l-1.586,2.5,2.4,1.527,1.588-2.5a6.3,6.3,0,0,0,2.082.365l.645,2.888,2.78-.62-.645-2.889a6.276,6.276,0,0,0,1.729-1.216l2.5,1.587,1.526-2.4-2.5-1.587a6.342,6.342,0,0,0,.366-2.081l2.887-.646-.62-2.78-2.888.645a6.357,6.357,0,0,0-1.216-1.73l1.587-2.5-2.4-1.526-1.586,2.5a6.351,6.351,0,0,0-2.083-.365l-.644-2.888-2.781.62Z" transform="translate(-722.959 -390.298)"/><path class="u" d="M788.094,465.6a3.116,3.116,0,0,1,1.775-2.8,3.143,3.143,0,1,1-1.775,2.8Zm.4-5.707a6.32,6.32,0,0,0-1.729,1.216l-2.5-1.587-1.527,2.4,2.5,1.589a6.259,6.259,0,0,0-.366,2.082l-2.889.645.62,2.78,2.889-.645a6.328,6.328,0,0,0,1.217,1.729l-1.588,2.5,2.4,1.527,1.587-2.5A6.3,6.3,0,0,0,791.2,472l.644,2.888,2.781-.62-.645-2.889a6.278,6.278,0,0,0,1.729-1.217l2.5,1.589,1.528-2.4-2.5-1.588a6.343,6.343,0,0,0,.365-2.081l2.888-.646-.62-2.78-2.889.645a6.331,6.331,0,0,0-1.216-1.73l1.587-2.5-2.4-1.526-1.587,2.5a6.346,6.346,0,0,0-2.082-.365l-.645-2.888-2.78.62Z" transform="translate(-749.529 -388.198)"/><g transform="translate(210.901 216.883)"><g transform="translate(0 37.188)"><rect class="v" width="73.829" height="42.827"/><line class="v" x2="73.829" transform="translate(0 7.141)"/><line class="v" x2="73.829" transform="translate(0 14.272)"/><line class="v" x2="73.829" transform="translate(0 21.414)"/><line class="v" x2="73.829" transform="translate(0 28.555)"/><line class="v" x2="73.829" transform="translate(0 35.686)"/><line class="v" y1="42.827" transform="translate(61.519)"/><line class="v" y1="42.827" transform="translate(49.226)"/><line class="v" y1="42.827" transform="translate(36.915)"/><line class="v" y1="42.827" transform="translate(24.604)"/><line class="v" y1="42.827" transform="translate(12.311)"/><g transform="translate(0.241 2.643)"><path class="h" d="M990.11,672.291l11.118-31.749,11.119,31.749Z" transform="translate(-945.858 -631.805)"/><path class="j" d="M979.724,671.915l11.119-26.1,11.118,26.1Z" transform="translate(-946.597 -631.43)"/><path class="w" d="M965.651,672.871l11.118-40.486,11.119,40.486Z" transform="translate(-947.599 -632.385)"/><path class="x" d="M948.8,672.479l11.118-34.589,11.118,34.589Z" transform="translate(-948.799 -631.993)"/></g></g><g transform="translate(98.932)"><path class="x" d="M1068.574,617.113a9.1,9.1,0,0,1-1.973,3.395l6.732,9.4a20.6,20.6,0,0,0,6.78-11.517Z" transform="translate(-1039.105 -593.641)"/><path class="j" d="M1062.027,606.745a9.253,9.253,0,0,1,7.288,8.188l11.519,1.27c0-.128.015-.254.015-.389a20.706,20.706,0,0,0-18.823-20.614Z" transform="translate(-1039.431 -595.201)"/><path class="w" d="M1054.565,609.607a9.186,9.186,0,0,1,4.941-2.862V595.2a20.671,20.671,0,0,0-14.918,8.533Z" transform="translate(-1040.672 -595.201)"/><path class="h" d="M1065.378,623.488a9.1,9.1,0,0,1-3.735.8,9.257,9.257,0,0,1-9.255-9.255,9.1,9.1,0,0,1,.529-2.964l-9.979-5.88a20.676,20.676,0,0,0,29.161,26.691Z" transform="translate(-1040.932 -594.419)"/><g transform="translate(0.885 54.761)"><rect class="j" width="33.367" height="3.428"/><rect class="w" width="33.367" height="3.425" transform="translate(0 10.759)"/><rect class="h" width="33.367" height="3.421" transform="translate(0 21.522)"/></g></g></g></g></g></svg>