<svg xmlns="http://www.w3.org/2000/svg" width="27.334" height="27.333" viewBox="0 0 27.334 27.333"><defs><style>.a{fill:#21a366;}.b{fill:#107c41;}.c{fill:#33c481;}.d{fill:#185c37;}.e{fill:rgba(0,0,0,0.09);}.f{fill:rgba(0,0,0,0.2);}.g{fill:#fff;}.h{fill:none;}</style></defs><g transform="translate(-109.834 -141.523)"><path class="a" d="M139.861,146.467H130.75a1.144,1.144,0,0,0-1.139,1.139v4.84l10.25,5.979,5.125,2.163,5.125-2.163v-5.979Z" transform="translate(-12.944 -3.236)"/><path class="b" d="M129.611,163.772h10.25v5.979h-10.25Z" transform="translate(-12.944 -14.562)"/><path class="c" d="M168.388,146.467h-9.111v5.979h10.25v-4.84a1.145,1.145,0,0,0-1.139-1.139Z" transform="translate(-32.359 -3.236)"/><path class="d" d="M139.861,181.077h-10.25V191.9a1.144,1.144,0,0,0,1.139,1.139h18.223a1.145,1.145,0,0,0,1.139-1.139v-4.84Z" transform="translate(-12.944 -25.887)"/><path class="b" d="M159.277,181.077h10.25v5.979h-10.25Z" transform="translate(-32.359 -25.887)"/><g transform="translate(109.834 147.502)"><path class="e" d="M137.014,158.828h-7.4v16.229h7.4a1.148,1.148,0,0,0,1.139-1.139V159.967a1.148,1.148,0,0,0-1.139-1.139Z" transform="translate(-122.778 -158.828)"/><g transform="translate(6.833 0.854)"><path class="f" d="M136.16,161.3h-6.549v16.229h6.549a1.147,1.147,0,0,0,1.138-1.139V162.439a1.147,1.147,0,0,0-1.138-1.139Z" transform="translate(-129.611 -161.3)"/><path class="f" d="M136.16,161.3h-6.549v14.521h6.549a1.147,1.147,0,0,0,1.138-1.139V162.439a1.147,1.147,0,0,0-1.138-1.139Z" transform="translate(-129.611 -161.3)"/><path class="f" d="M135.306,161.3h-5.695v14.521h5.695a1.147,1.147,0,0,0,1.139-1.139V162.439a1.148,1.148,0,0,0-1.139-1.139Z" transform="translate(-129.611 -161.3)"/></g><path class="b" d="M110.973,161.3h11.389a1.144,1.144,0,0,1,1.139,1.139v11.389a1.144,1.144,0,0,1-1.139,1.139H110.973a1.144,1.144,0,0,1-1.139-1.139V162.439a1.144,1.144,0,0,1,1.139-1.139Z" transform="translate(-109.834 -160.446)"/><path class="g" d="M118.569,177.258l2.764-4.283-2.531-4.259h2.037l1.382,2.722q.191.388.262.578h.018q.137-.309.286-.6l1.477-2.7h1.871l-2.6,4.235,2.663,4.307h-1.99l-1.6-2.99a2.517,2.517,0,0,1-.191-.4H122.4a1.893,1.893,0,0,1-.185.387l-1.644,3Z" transform="translate(-115.551 -165.299)"/></g><path class="h" d="M109.834,141.523h27.334v27.333H109.834Z" transform="translate(0 0)"/></g></svg>