<svg xmlns="http://www.w3.org/2000/svg" xmlns:xlink="http://www.w3.org/1999/xlink" width="621" height="317.794" viewBox="0 0 621 317.794"><defs><style>.a{fill:none;}.b{fill:#164b55;}.c{fill:#f8d24b;}.d{fill:#e2e2e2;}.e{clip-path:url(#a);}.f{fill:#020202;opacity:0.13;}.g{fill:#afafaf;}.h{fill:#fff;opacity:0.2;}.i{clip-path:url(#b);}</style><clipPath id="a"><path class="a" d="M482.234,678.359a9.917,9.917,0,0,1-.488-7.233,14.04,14.04,0,0,1-1.036-1.164l-23.026-29.135c32.126,18.706,64.419-11.275,64.419-11.275s36.631-24.493,25.855-60.072l23.026,29.135a13.75,13.75,0,0,1,.894,1.277,9.906,9.906,0,0,1,6.923,2.146,41.511,41.511,0,0,1,6.626,6.7c6.074,7.686,38.737,51.618,47.185,62.988a14.769,14.769,0,0,1,2.79,6.886,60.315,60.315,0,0,1-3.136,27.743c-8.582,24.373-31.847,41.226-56.4,46.926a54.937,54.937,0,0,1-32.2-2.163,14.777,14.777,0,0,1-6.056-4.3c-9.111-10.846-44.307-52.776-50.383-60.462A41.616,41.616,0,0,1,482.234,678.359Z" transform="translate(-457.684 -569.48)"/></clipPath><clipPath id="b"><path class="a" d="M632.791,514.236a6.892,6.892,0,0,1,4.751-1.688,9.891,9.891,0,0,1,.586-.913l15.18-20.909c-6.482,25.04,19.68,41.026,19.68,41.026s23.3,19.926,45.1,6.008l-15.18,20.909a9.422,9.422,0,0,1-.687.839,6.892,6.892,0,0,1-.134,5.042,28.875,28.875,0,0,1-3.241,5.7c-4,5.516-27.281,35.664-33.308,43.464a10.271,10.271,0,0,1-4.086,3.164A41.959,41.959,0,0,1,642.283,620c-17.942-1.159-33.61-13.571-42.049-28.943a38.223,38.223,0,0,1-4.615-21.977,10.292,10.292,0,0,1,1.745-4.866c5.549-8.144,27.007-39.614,31.012-45.13A28.946,28.946,0,0,1,632.791,514.236Z" transform="translate(-595.459 -490.726)"/></clipPath></defs><g transform="translate(-443.011 -477.402)"><g transform="translate(866.159 488.74)"><path class="b" d="M769,525.975c-3.666-9.071-3.1-18.341-4.5-26.681.554,3.335,1.128,6.669,1.685,10-.844-5,.583-9.271,3.983-14.473,4.406,1.434,1.045,4.826,6.928,5.487.464,12.246-6.483,24.713-12.632,36.8C750.864,532.71,769.566,529.312,769,525.975Z" transform="translate(-727.095 -481.085)"/><path class="b" d="M771.363,485.279a33.133,33.133,0,0,1,.39,3.609C771.109,487.641,770.621,486.41,771.363,485.279Z" transform="translate(-722.046 -485.279)"/><path class="b" d="M805.942,571.81a12.164,12.164,0,0,1,1.77,4.134C806.295,574.607,806.194,573.2,805.942,571.81Z" transform="translate(-706.688 -447.257)"/><path class="b" d="M789.738,527.084a13.419,13.419,0,0,1,2.605,2.166c-1.32,5.666-3,11.417-4.907,17.27C788.828,540.17,782.977,533.57,789.738,527.084Z" transform="translate(-715.273 -466.91)"/><path class="b" d="M797.282,527.893c-.712-5.727,1.46-11.613,7.3-17.208A34.425,34.425,0,0,0,797.282,527.893Z" transform="translate(-710.551 -474.116)"/><path class="b" d="M855.655,600.487a11.081,11.081,0,0,1,2.739.181,4.981,4.981,0,0,0,1.439.419c-1.461,2.356-2.969,4.711-4.556,7.06-.616-.558-2.777-1.039-2.876-1.624C854.1,603.924,859.344,603.259,855.655,600.487Z" transform="translate(-686.274 -434.664)"/><path class="b" d="M806.1,571.256c-.216-.043-.423-.088-.616-.133-.312-.474-.619-.94-.907-1.406.115-.059.2-.114.353-.18A4.745,4.745,0,0,1,806.1,571.256Z" transform="translate(-707.287 -448.256)"/><path class="b" d="M855.061,598.556c2.14-.1,4.3-.2,6.007-.443-.769,1.33-1.575,2.656-2.385,3.981a13.97,13.97,0,0,0-1.457-.39C855.7,600.872,857.851,599.457,855.061,598.556Z" transform="translate(-685.105 -435.7)"/><path class="b" d="M868.125,581.259c-.141-.835-4.55-1.468-5.66-1.834,2.827-2.235,5.65-4.468,7.355-7.07-1.124-.368-1.264-1.2-3.527-1.937a39.7,39.7,0,0,0,4.551-1.619,110.864,110.864,0,0,1-2.62,17.351A9.946,9.946,0,0,1,868.125,581.259Z" transform="translate(-681.852 -448.581)"/><path class="b" d="M865.006,737.706c-3.388-7.409,7.948-16.339-3.941-23.35-7.083,8.737-9.368,20.611-28.343,22.338s-1.969-11.671-3.095-18.345c-1.986.936-1.986.936-3.973,1.868,1.986-.933,3.973-1.868,1.713-2.6-3.977,1.867-7.662,5.4-13.9,6.534l-4.528-1.467c-14.152,4.862-17.009,13.4-31.161,18.266,45.338-23.133,25.249-53.291,20.737-79.972-6.775-14.81-24.045-28.287-43.3-40.834-2.541-2.4-1.4-8.339.017-12.6-3.393-7.407-6.793-14.81-14.434-22.017-9.036-15.545,1.186-31.068-1.645-47.827-.566-3.338,17.844-8.4,23.508-.263,6.551,6.689,9.186,13.558,9.46,20.5-5.881-.661-2.507-4.052-6.932-5.484-3.407,5.2-4.821,9.468-3.977,14.472-.566-3.337-1.121-6.669-1.687-10.005,1.409,8.337.842,17.61,4.508,26.682.571,3.339-18.131,6.732-4.537,11.14,6.149-12.09,13.1-24.559,12.625-36.8.145.019.272.042.438.052-.92-5.444-.35-10.405-.715-15.671.845,1.619,1.971,3.263,1,4.733,5.1-7.8,5.965-15.406,6.813-23.01,20.65,20.883,7.606,45.029,15.521,66.506,9.638-6.331-4.517-14.074,7.375-19.675a114.682,114.682,0,0,1-3.354,30.181,13.768,13.768,0,0,0-2.605-2.169c-6.761,6.486-.921,13.087-2.3,19.438-.194.57-.364,1.134-.557,1.709a9.846,9.846,0,0,0,.557-1.709c1.9-5.85,3.576-11.6,4.907-17.268,2.326,2.526,2.441,5.268,1.347,8.575,3.967-1.868,5.673-4.468,7.364-7.069.217-3.365.43-6.732.943-10.07.639,5.13,3.577,10.135,8.409,14.672,3.813-7.072,3.951-14.264,6.024-21.329.8,3.836,1.7,7.663,2.528,11.491a178.346,178.346,0,0,0-4.487,19.656c-.135-.248-.259-.5-.4-.744.082.5.168,1,.273,1.493-.381,2.582-.687,5.176-.848,7.78.386,2.323,2.86,4.551,5.946,6.749.055.386.108.767.144,1.15-1.875-.684-3.745-.992-4.685.439-5.376,6.133,4.23,12.409-3.132,19.477-1.927,1.854-.826,4.263.793,6.853-1.376.747-.505,1.1.894,1.4.366.557.718,1.123,1.058,1.687.252,1.392.364,2.792,1.779,4.131a12.634,12.634,0,0,0-1.779-4.131,7.434,7.434,0,0,0-.419-1.554c1.589.317,3.488.648,3.619,1.418,1.082-9.663,2.959-19.7,1.873-29.722,1.54.563,3.075,1.379,4.091,1.708-1.457-.951-2.9-1.9-4.235-2.859a44.292,44.292,0,0,0-2.379-9.678,14.379,14.379,0,0,0,4.924,2.533c.715-9.264-.987-18.519-3.031-27.789,2.441-8.8,5.1-17.51,6.762-26.177a29.694,29.694,0,0,0-9.29,14.686c-2.748-13.093-4.426-26.239.823-39.5,6.785,2.2,11.61,5.34,20.373,6.61,4.268-.2,5.665-4.466,8.218-2.064,12.173,8.674,1.671,15.367,25.729,18.442,6.51.531,29.2-10.087,34.027-6.952,2.2,2.666,4.42,7.47,6.041,12.678a15.12,15.12,0,0,0-.967,4.733c-.449.214.914.521,2.45.913,1.185,5.655,1.464,11.062.091,14.093-.534,1.127-1.021,2.241-1.484,3.355a22.81,22.81,0,0,1-5.174,1.58,15.813,15.813,0,0,1,3.807,1.991,72.168,72.168,0,0,0-2.607,8.828c-2.021,1.66-4.325,3.322-6.03,4.957a24.991,24.991,0,0,1,5.036-.109c-.635,3.64-1.049,7.249-1.316,10.847a27.9,27.9,0,0,1-8.69,4.2c13.447,3.571,5.365,12.773,7.478,18.977l.5-.022c-.105,3.151-.235,6.326-.479,9.545a39.723,39.723,0,0,1-4.557,1.618c2.266.737,2.418,1.569,3.554,1.936-1.71,2.6-4.556,4.832-7.381,7.069,1.136.364,5.522,1,5.663,1.837a10.1,10.1,0,0,0,.121,4.887c-.438,1.871-.957,3.764-1.544,5.681a104.594,104.594,0,0,1-8.893,19.164c-1.709.24-3.849.341-5.989.445,2.775.9.626,2.313,2.165,3.145a10.748,10.748,0,0,0-2.726-.177c3.662,2.768-1.564,3.432-3.273,6.038.1.576,2.254,1.064,2.892,1.619-.2.285-.386.571-.586.862-9.516,3.138-6.237,5.949-6.438,9.19-2.376,3.289-4.789,6.577-7.2,9.866C875.2,734.705,868.98,735.837,865.006,737.706Z" transform="translate(-736.987 -468.251)"/><path class="b" d="M856.088,606.4c-2.079,3.072-4.235,6.133-6.44,9.192C849.854,612.352,846.564,609.542,856.088,606.4Z" transform="translate(-687.654 -432.059)"/><path class="b" d="M863.071,550.285a27.982,27.982,0,0,0,8.7-4.2c-.569,7.7-.512,15.348-.728,23.159l-.491.022C868.439,563.06,876.518,553.858,863.071,550.285Z" transform="translate(-681.586 -458.562)"/><path class="b" d="M856.565,600.608a13.97,13.97,0,0,1,1.457.39c-.017.01-.017.017-.017.029A4.975,4.975,0,0,1,856.565,600.608Z" transform="translate(-684.444 -434.604)"/><path class="b" d="M805.826,540.4c.042-.252.073-.5.115-.747a40.916,40.916,0,0,1,2.594,5.6A8.064,8.064,0,0,1,805.826,540.4Z" transform="translate(-706.739 -461.387)"/><path class="b" d="M809.81,533.991c-.851-3.827-1.75-7.661-2.546-11.491a29.832,29.832,0,0,1,9.311-14.686C814.9,516.479,812.233,525.193,809.81,533.991Z" transform="translate(-706.107 -475.377)"/><path class="b" d="M866.52,540.134c1.7-1.629,4.013-3.295,6.031-4.957q-.568,2.438-.99,4.848A25.275,25.275,0,0,0,866.52,540.134Z" transform="translate(-680.07 -463.354)"/><path class="b" d="M809.5,551.421c-.039-.384-.089-.77-.145-1.151,1.342.954,2.788,1.907,4.252,2.859C812.579,552.794,811.045,551.979,809.5,551.421Z" transform="translate(-705.187 -456.723)"/><path class="b" d="M875.067,526.565c-.5,1.2-.953,2.388-1.386,3.573a15.279,15.279,0,0,0-3.8-1.995A22.789,22.789,0,0,0,875.067,526.565Z" transform="translate(-678.595 -467.138)"/><path class="b" d="M872.769,515.25a15.038,15.038,0,0,1,.963-4.728c.577,1.855,1.078,3.761,1.483,5.644C873.679,515.771,872.317,515.465,872.769,515.25Z" transform="translate(-677.363 -474.187)"/></g><g transform="translate(443.011 477.402)"><g transform="translate(0 105.813)"><path class="c" d="M475.031,669.085a9.984,9.984,0,0,1,3.778-12.74l43.322-26.918,36.2-35.93a9.981,9.981,0,0,1,13.267-.733,41.511,41.511,0,0,1,6.626,6.7c6.074,7.686,38.737,51.618,47.185,62.988a14.77,14.77,0,0,1,2.79,6.886,60.314,60.314,0,0,1-3.136,27.743c-8.582,24.373-31.847,41.226-56.4,46.926a54.936,54.936,0,0,1-32.2-2.163,14.776,14.776,0,0,1-6.056-4.3c-9.111-10.846-44.308-52.776-50.383-60.462A41.619,41.619,0,0,1,475.031,669.085Z" transform="translate(-429.36 -533.483)"/><path class="d" d="M522.1,629.552s36.633-24.493,25.855-60.072l23.026,29.135a14.119,14.119,0,0,1,2.854,11.01c-1.647,10.238-7.568,30.678-28.836,48.9-22.642,16.481-43.9,17.52-54.239,16.758a14.113,14.113,0,0,1-10.051-5.32l-23.028-29.135C489.81,659.533,522.1,629.552,522.1,629.552Z" transform="translate(-436.563 -542.756)"/><path class="a" d="M483.784,681.176a9.917,9.917,0,0,1-.488-7.233,13.774,13.774,0,0,1-1.035-1.164l-23.028-29.135c.037.022.073.039.111.059-.252-.282-.507-.561-.743-.859-11.317-14.316-.281-41.9,24.647-61.6s54.31-24.068,65.625-9.75c.236.3.448.612.665.921-.013-.04-.02-.081-.032-.121l23.026,29.135a14.035,14.035,0,0,1,.894,1.277,9.906,9.906,0,0,1,6.923,2.146,41.509,41.509,0,0,1,6.626,6.7c6.074,7.686,38.737,51.618,47.185,62.988a14.769,14.769,0,0,1,2.79,6.886,60.314,60.314,0,0,1-3.137,27.743c-8.582,24.373-31.847,41.226-56.4,46.926a54.936,54.936,0,0,1-32.2-2.163,14.777,14.777,0,0,1-6.056-4.3c-9.111-10.846-44.308-52.776-50.383-60.462A41.616,41.616,0,0,1,483.784,681.176Z" transform="translate(-438.113 -545.574)"/><path class="a" d="M545.222,590.608s12.461,20.74-26.875,58.633" transform="translate(-409.908 -533.473)"/><g transform="translate(21.121 26.723)"><g class="e"><path class="f" d="M479.218,618.234s21.091,28.15,26.755,36.079a9.649,9.649,0,0,0-.059,4.9c1.765,5.159,59.423,73.71,59.423,73.71s1.1,1.48,2.051,1.632-7.168,13.978-7.168,13.978l-42.259-7.371-33.706-45.94s-37.466-61.672-39.247-67.584S479.218,618.234,479.218,618.234Z" transform="translate(-463.282 -548.057)"/></g></g><ellipse class="g" cx="57.532" cy="33.042" rx="57.532" ry="33.042" transform="matrix(0.785, -0.62, 0.62, 0.785, 0, 71.347)"/><path class="c" d="M470.6,648.926s-6.9-4.5,6.549-14.093,13.182-3.377,25.431-13.3,14.878-11.841,13.647-20.811,5.417-24.907,6.364-29.211.795-7.8,5.267-7.944,13.34,2.768,15.688,4.662,8.035,7.368,8.868,9.166,3.318,7.3,2.633,9.92,1.524,6.3,2.375,9.774,2.61,9.168-1.814,11.679-7.591,3.587-9.722,6.817-11.872,9.052-14.783,11.02a55.178,55.178,0,0,0-7.178,6.661s-20.982,19.061-49.006,18.6Z" transform="translate(-431.665 -545.355)"/><path class="h" d="M512.521,567.587c2.571-.435,8.792-1.147,11.246,1.881s2.081,1.858,4.43,10.013,6.564,10.623,4.687,15.961-2.437,3.581-6.414,7.692-1.559-6.084-1.415-11.486,1.894-8.606-1.559-12.341-7.208-8.213-8.911-8.9A3.957,3.957,0,0,1,512.521,567.587Z" transform="translate(-412.468 -543.763)"/></g><g transform="translate(219.433 0)"><path class="b" d="M632.791,507.577a6.946,6.946,0,0,1,9.244.132l26.185,23.95L699.1,549.141a6.947,6.947,0,0,1,2.988,8.75,28.836,28.836,0,0,1-3.241,5.7c-4,5.516-27.281,35.664-33.308,43.464a10.271,10.271,0,0,1-4.086,3.164,41.958,41.958,0,0,1-19.173,3.122c-17.942-1.159-33.61-13.571-42.049-28.942a38.23,38.23,0,0,1-4.615-21.978,10.292,10.292,0,0,1,1.745-4.867c5.549-8.144,27.007-39.614,31.012-45.13A28.944,28.944,0,0,1,632.791,507.577Z" transform="translate(-595.459 -464.889)"/><path class="d" d="M660.533,531.752s23.3,19.926,45.1,6.008l-15.18,20.909a9.822,9.822,0,0,1-6.837,3.984c-7.168.825-21.974.707-38.181-10.109-15.3-12.062-20-26.1-21.436-33.174a9.815,9.815,0,0,1,1.671-7.735l15.18-20.909C634.372,515.766,660.533,531.752,660.533,531.752Z" transform="translate(-583.004 -471.548)"/><path class="a" d="M632.791,516.386a6.892,6.892,0,0,1,4.751-1.688,9.7,9.7,0,0,1,.586-.913l15.18-20.909c-.007.029-.012.056-.019.085.141-.222.279-.445.436-.659,7.459-10.274,28.008-8.075,45.9,4.914s26.344,31.845,18.885,42.12c-.155.214-.325.416-.492.619.026-.016.05-.029.075-.045l-15.18,20.909a9.43,9.43,0,0,1-.687.839,6.9,6.9,0,0,1-.134,5.042,28.834,28.834,0,0,1-3.241,5.7c-4,5.516-27.281,35.664-33.308,43.464a10.271,10.271,0,0,1-4.086,3.164,41.957,41.957,0,0,1-19.173,3.122c-17.942-1.159-33.61-13.571-42.049-28.942a38.23,38.23,0,0,1-4.615-21.978,10.293,10.293,0,0,1,1.745-4.867c5.549-8.144,27.007-39.614,31.012-45.129A28.944,28.944,0,0,1,632.791,516.386Z" transform="translate(-595.459 -473.698)"/><path class="a" d="M683.166,540.637s-11.547,12.251-44.332-6.964" transform="translate(-576.4 -452.677)"/><g transform="translate(0 19.178)"><g class="i"><path class="f" d="M661.186,504.491s-14.885,19.428-19.13,24.714a6.714,6.714,0,0,0-3.289.881c-3.125,2.153-38.187,53.679-38.187,53.679a3.238,3.238,0,0,0-.705,1.681c.078.665-10.713-2.171-10.713-2.171l-3.018-29.693,24.425-31.225s34.258-36.706,37.881-39.012S661.186,504.491,661.186,504.491Z" transform="translate(-599.552 -494.039)"/></g></g><ellipse class="g" cx="22.989" cy="40.029" rx="22.989" ry="40.029" transform="matrix(0.588, -0.809, 0.809, 0.588, 44.76, 37.207)"/><path class="b" d="M635.773,500.342s1.714-5.47,10.673,1.734,4.743,8.193,13.693,14.532,10.731,7.735,16.508,5.222,17.7-1.061,20.763-1.236,5.378-.937,6.313,2.032.658,9.455-.17,11.386-3.423,6.769-4.471,7.666-4.264,3.6-6.149,3.63-3.934,2.207-6.1,3.432-5.65,3.473-8.164.983-3.832-4.409-6.4-5.229-8.3-6.247-10.164-7.826a38.381,38.381,0,0,0-5.814-3.554s-16.716-10.466-21.685-29.323Z" transform="translate(-578.254 -468.197)"/><path class="h" d="M687.273,517.746c.774,1.639,2.422,5.673.856,7.886s-.852,1.745-5.871,4.852-5.881,6.4-9.809,6.145-2.857-.959-6.361-2.849,3.783-2.189,7.427-3.109,6.122-.353,7.974-3.368,4.144-6.375,4.279-7.643A2.755,2.755,0,0,1,687.273,517.746Z" transform="translate(-564.832 -459.676)"/></g></g></g></svg>