<svg xmlns="http://www.w3.org/2000/svg" xmlns:xlink="http://www.w3.org/1999/xlink" width="232.657" height="477.763" viewBox="0 0 232.657 477.763"><defs><style>.a,.h{fill:none;}.b{fill:#d6bf87;}.c,.k{fill:#f6da9b;}.d{fill:#d63e23;}.e{fill:#164b55;}.f{fill:#fff;}.g{fill:#f8d24b;}.h{stroke:#f8d24b;stroke-linecap:round;stroke-linejoin:round;}.i,.j{opacity:0.3;}.k{fill-rule:evenodd;}.l,.r,.y{fill:#020202;}.m{fill:#d86466;}.n{fill:#d9d6da;}.o{fill:#d5c8b4;}.p{fill:#f7ac00;}.q{clip-path:url(#a);}.ab,.r{opacity:0.15;}.s{clip-path:url(#b);}.t{clip-path:url(#c);}.u{fill:#fe674c;}.v{fill:#4a7cdb;}.w{fill:#e2e2e2;}.x{clip-path:url(#d);}.y{opacity:0.2;}.z{fill:#f7cf43;}.aa{fill:#438591;}.ac{fill:#274e55;}</style><clipPath id="a"><path class="a" d="M1130.43,590.5,1099.983,546.4a.923.923,0,0,0-1.059.671s-.819-.178-1.253.895c0,0-.86-.05-1.047.372l30.624,44.349A4.557,4.557,0,0,0,1130.43,590.5Z" transform="translate(-1096.625 -546.389)"/></clipPath><clipPath id="b"><path class="a" d="M1123.693,580.764l-3.27,1.941,3.173,4.595c.075-.02.148-.045.222-.07.228.344.665,1.009.733,1.138a.584.584,0,0,0,.679.185c.244-.109,1.719-1.246,2.024-1.477a.43.43,0,0,0,.1-.566s-.611-.786-.91-1.174c.141-.166.216-.272.216-.272Z" transform="translate(-1120.423 -580.764)"/></clipPath><clipPath id="c"><path class="a" d="M1100.137,546.841a.923.923,0,0,0-1.059.671s-.82-.178-1.253.895c0,0-.749-.043-1,.294l-.753-3.338a1.3,1.3,0,0,0,.786-.543Z" transform="translate(-1096.072 -544.82)"/></clipPath><clipPath id="d"><path class="a" d="M1080.277,564.515a24.614,24.614,0,0,0-2.847-2.847,2.08,2.08,0,0,0-2.245-.165l-4.78,2.274-9.417,4.48a4.8,4.8,0,0,0-1.643,1.451s-.423.722-.887,1.484l-.055.09-.3.488h0c-.2.321-.389.616-.533.828a1.661,1.661,0,0,0-.2,1.583s2.026,2.685,2.749,3.484a1.785,1.785,0,0,0,1.9.3s9.547-5.061,12.816-6.759c.556-.288.929-.479,1.046-.533a18.914,18.914,0,0,0,2.071-1.236s.4-.554.929-1.318h0l.026-.037c.173-.249.358-.519.548-.8l.01-.015h0q.2-.3.409-.608C1080.814,565.249,1080.277,564.515,1080.277,564.515Z" transform="translate(-1057.254 -561.247)"/></clipPath></defs><g transform="translate(-1004.973 -324.844)"><path class="b" d="M1094.425,381.553s.919,10.259-5.409,15.932,14.583,0,14.583,0-3.891-9.826-3.018-15.932S1094.425,381.553,1094.425,381.553Z" transform="translate(23.066 15.033)"/><ellipse class="c" cx="11.063" cy="15.094" rx="11.063" ry="15.094" transform="translate(1109.765 370.375)"/><g transform="translate(1109.635 324.844)"><path class="d" d="M1097.608,367.452c-1.566,2.134-22.872-31.3,4.215-40.4,24.541-8.246,45.173,7.892,51.539,26.475,5.554,16.21,8.146,36.367-22.417,76.184-12.877,25.019-7.944,32.5-7.944,32.5s-20.657-37.929-4.933-62.256S1109.1,351.8,1097.608,367.452Z" transform="translate(-1086.472 -324.844)"/><g transform="translate(0 40.261)"><path class="d" d="M1102.012,368.037s-19.152,10.62-13.468-6.43C1092.477,349.811,1115.074,360.437,1102.012,368.037Z" transform="translate(-1086.661 -356.337)"/><path class="d" d="M1099.417,363.8s10.716,6.359,9.681,12.737c0,0,2.364-19.043-8.292-19.521s-14.78.55-13.834,20.687C1086.973,377.7,1090.068,361.682,1099.417,363.8Z" transform="translate(-1086.841 -356.171)"/></g></g><g transform="translate(1069.794 554.09)"><g transform="translate(15.798 199.68)"><path class="c" d="M1083.714,665.39s6.32,22.848,2.507,25.775c-6.828,5.3-34.127,23.969-1.53,12.815,17.336-3.5,15.073-6.978,14.483-10.278-.482-2.7-3.858-23.244-5.078-30.673l-.438-2.669Z" transform="translate(-1067.759 -660.359)"/><path class="d" d="M1097.835,672.769c-.2-1.556-11.387,5.276-13.37,3.545,0,0,3.535,8.449,2.649,9.991s-21.026,11.587-18.927,17.8,30.309-6.59,32.378-7.3S1098.228,675.824,1097.835,672.769Z" transform="translate(-1068.034 -656.969)"/></g><path class="c" d="M1119.089,664.464s-.253,23.7,4.184,25.557c7.959,3.378,39.131,14.422,4.764,11.994-17.655,1.065-16.36-2.88-16.635-6.222-.225-2.731-2.229-23.456-2.953-30.95l-.261-2.692Z" transform="translate(-1041.057 -460.18)"/><path class="e" d="M1142.957,504.868a6.815,6.815,0,0,1-3.871,1.785c-9.095.179-48.375.851-69.684-.373-7.518-.432-12.8-1.1-13.725-2.115a.842.842,0,0,0,.006.087c.055,1.175.729,14.621,1.675,32.248,1.868,34.795,4.811,85.872,6.22,90.949a26.559,26.559,0,0,0,3.982,8.2l13.624,78.177,22.719-1.305s-3.417-11.907-6.11-34.189c-.738-6.11-2.357-14.591-2.486-21.608v-.037c-.316-16.927-.458-35.758-.39-53.534v-.037c.136-35.907,1.138-67.493,3.338-70.318,2.677-3.438,8.928,42.776,13.905,89.174,1.3,12.21,2.527,24.433,3.567,35.765.624,6.758,1.181,13.2,1.657,19.134a204.814,204.814,0,0,1,0,35.649h23.258s-.1-37.794-.141-81.041c2.134-4.44,1.95-11.692,2.327-12.358C1143.323,618.252,1142.957,504.868,1142.957,504.868Z" transform="translate(-1055.677 -504.165)"/><g transform="translate(11.65 90.92)"><path class="f" d="M1066.03,585.983c-.244-.169-.345-.55.069-.546a.736.736,0,0,1-.711-.261c.276,0,.2-.229.175-.377-.2.123-.228.291-.293.629.6.3-.306.951.36,1.227C1065.77,586.444,1066.189,586.236,1066.03,585.983Z" transform="translate(-1064.656 -572.635)"/><path class="f" d="M1067.312,584.659l-.165-.045.263.522C1067.275,585.031,1067.119,584.675,1067.312,584.659Z" transform="translate(-1064.134 -572.687)"/><path class="g" d="M1066.974,583.534c.3.05.479-.214.755-.2-.609,0-.119-.418-.192-.648l-.465-.1c-.341.216-.2.782-.252,1.259Z" transform="translate(-1064.225 -573.253)"/><path class="f" d="M1067.281,583.029l-.3-.156C1067.061,583,1067.1,583.292,1067.281,583.029Z" transform="translate(-1064.18 -573.172)"/><path class="f" d="M1065.93,583.238c-.045.377.2-.224.3.157C1066.15,583.267,1066.13,583.119,1065.93,583.238Z" transform="translate(-1064.474 -573.082)"/><path class="g" d="M1066.686,582.014c.068.267.128.534.2.8l.21-.323Z" transform="translate(-1064.262 -573.411)"/><path class="g" d="M1067.641,582.235a.2.2,0,0,1-.34.109c.378-.272-.135-.463.187-.717l.148.257c.39-.022-.378-.538.311-.5-.474-.357-.6.238-.927-.216a1.6,1.6,0,0,1-.182,1.073c.145-.1.12-.141.24-.28.01.251.21.592.245.883C1067.776,582.7,1067.376,582.471,1067.641,582.235Z" transform="translate(-1064.22 -573.647)"/><path class="g" d="M1067.7,581.189c.043-.266.079-.676-.44-.772-.382.266.054.336.266.472-.088.078-.133.345-.4.225C1067.24,581.079,1067.5,581.3,1067.7,581.189Z" transform="translate(-1064.144 -573.855)"/><path class="g" d="M1067.837,580.252l-.453-.219.072.13-.331,0c.081.027.68.15.629.416C1068.013,580.448,1067.714,580.387,1067.837,580.252Z" transform="translate(-1064.14 -573.962)"/><path class="g" d="M1065.9,580.176c.236-.172.107-.288-.013-.506.031.3-.005.716.18.813l-.08-.027a2.577,2.577,0,0,0,.539.5C1066.219,580.64,1066.733,580.129,1065.9,580.176Z" transform="translate(-1064.485 -574.063)"/><path class="g" d="M1065.9,580.41l-.258-.227Z" transform="translate(-1064.552 -573.921)"/><path class="g" d="M1067.667,579.553l-.173.4.147-.093Z" transform="translate(-1064.037 -574.096)"/><path class="g" d="M1066.6,579.914c.083-.329-.375.164-.349-.15-.047-.088-.01.461.208.5C1066.547,580.183,1066.208,579.929,1066.6,579.914Z" transform="translate(-1064.389 -574.04)"/><path class="g" d="M1067.741,579.423l-.33-.357Z" transform="translate(-1064.06 -574.232)"/><path class="g" d="M1068,578.939l-.242-.082c.228-.312-.084-.776.464-.973-.308.033-.619-.183-.731.1.16.056.149.159.344.156-.068.118-.286.077-.377.152.253.23.026.542.256.727-.046-.086.012-.1.045-.161.405.385-.652.381.052.583C1067.6,579.3,1068.093,579.112,1068,578.939Z" transform="translate(-1064.047 -574.574)"/><path class="g" d="M1066.747,578.667l-.114.285c-.322-.111.009-.357-.289-.424-.2.005-.308.29-.435.175.768.084.013.4.883.3.078.382-.478.087-.458.488l.4.135C1066.558,579.176,1066.919,579.122,1066.747,578.667Z" transform="translate(-1064.478 -574.381)"/><path class="g" d="M1066.8,578.407l.263-.121-.367.05c-.018-.656,1.5-.91,1.326-1.313-.444-.528.322-.91.293-1.409-.29-.271-.2.212-.4.219-.6-.129.343-.2-.147-.364-.438-.075-.52.46-.807.649.046.192.183.2.427.281-.249.024-.341.206-.592.231.311.417-.362.564-.023.978-.346.091-.04-.292-.1-.17l-.01.21.056-.018c.321.311-.033.808-.274.975.125-.134.412-.213.5-.037l-.4.11.541.405C1066.732,578.779,1067.509,578.514,1066.8,578.407Z" transform="translate(-1064.33 -575.235)"/><path class="g" d="M1066.159,578.053c-.239.421.584-.011.369.453l0-.505Z" transform="translate(-1064.421 -574.528)"/><path class="f" d="M1067.038,576.519l.286-.189C1066.768,576.4,1067.466,576.8,1067.038,576.519Z" transform="translate(-1064.164 -574.993)"/><path class="f" d="M1067.091,575.875l.49.161-.265-.228Z" transform="translate(-1064.15 -575.138)"/><path class="g" d="M1067.711,575.365c-.235-.185-.47-.017-.426.175C1067.321,575.375,1067.55,575.31,1067.711,575.365Z" transform="translate(-1064.097 -575.284)"/><path class="g" d="M1067.936,577.068a.3.3,0,0,1-.024.125Z" transform="translate(-1063.921 -574.788)"/><path class="g" d="M1067.948,577.005l-.017.081A.291.291,0,0,1,1067.948,577.005Z" transform="translate(-1063.916 -574.805)"/><path class="g" d="M1067.459,583.828a.367.367,0,0,1,.028.167l-.032-.166Z" transform="translate(-1064.048 -572.906)"/><path class="g" d="M1066.924,584.149c-.318-.3.759-.312.534-.794a5.108,5.108,0,0,1,.161.606C1067.115,584.233,1067.356,583.746,1066.924,584.149Z" transform="translate(-1064.213 -573.037)"/><path class="g" d="M1066.523,580.816c-.008-.005-.008-.01-.015-.017C1066.491,580.769,1066.508,580.786,1066.523,580.816Z" transform="translate(-1064.314 -573.753)"/><path class="f" d="M1067.845,594.162l.138-.012-.147.283Z" transform="translate(-1063.942 -570.032)"/><path class="f" d="M1068.034,594.213l.216-.474c.113.878.244,1.754.385,2.628l-.2-.061C1068.185,596.374,1068.237,594.112,1068.034,594.213Z" transform="translate(-1063.887 -570.146)"/><path class="f" d="M1067.914,594.187c-.594-.2.163-.45-.272-.725.29.184.6.3.479.52Z" transform="translate(-1063.996 -570.223)"/><path class="h" d="M1066.945,593.507c.1-.155-.16-.3-.083-.391C1067.306,593.124,1066.991,593.378,1066.945,593.507Z" transform="translate(-1064.217 -570.32)"/><path class="g" d="M1065.593,593.26a.119.119,0,0,1-.01-.067.624.624,0,0,0,.089.061Z" transform="translate(-1064.57 -570.298)"/><path class="g" d="M1065.652,593.244l.2-.015A.167.167,0,0,1,1065.652,593.244Z" transform="translate(-1064.55 -570.288)"/><path class="g" d="M1065.671,593.3a.793.793,0,0,0-.223-.15l-.024.067c-.06-.082-.233-.217-.124-.268-.019.171.119.162.394.141l.014-.276C1066.366,592.8,1065.692,593.051,1065.671,593.3Z" transform="translate(-1064.658 -570.404)"/><path class="h" d="M1065.4,592.528l.4.248C1065.447,592.886,1065.406,592.634,1065.4,592.528Z" transform="translate(-1064.62 -570.483)"/><path class="g" d="M1065.719,592.176c.114.056.1.331.257.152.078.038.066.092.07.148C1065.94,592.3,1065.513,592.511,1065.719,592.176Z" transform="translate(-1064.547 -570.581)"/><path class="g" d="M1065.963,592.411a.167.167,0,0,1,.024.077A.126.126,0,0,1,1065.963,592.411Z" transform="translate(-1064.464 -570.516)"/><path class="h" d="M1067.46,594.561a.157.157,0,0,1,.141-.034Z" transform="translate(-1064.047 -569.928)"/><path class="g" d="M1065.987,591.735l-.006-.1a.267.267,0,0,0,.026.083Z" transform="translate(-1064.458 -570.733)"/><path class="g" d="M1070.783,602.952a1.4,1.4,0,0,0-.183-1.193c-.465.079-.161-.185-.656-.146a4.91,4.91,0,0,1-.256-.726c-.172-.5-.378-1.01-.455-.785l.23.1-.505-.069c.092-.272.438-.67.135-.809.146-.066.3,2.176.437,2.071-.551.281-.936-2.913-1.188-2.97l.294-.069c-.358-.362-.816-.573-1.058-.887l.351-.112c-.093.258.16.3.341.533-.113-.427.1-.529-.005-.853-.465.059-.2.308-.5-.084.184-.139.726.087.589-.276.08-.463-.6-.307-.675-.7l-.152.282c-.035-.143-.159-.408.082-.57a.655.655,0,0,0,.745.51c-.119-.157.027-.542-.008-.685l.335.06c.294-.184-.178-.237.087-.46-.2-.174-.463.155-.606.06.109-.049.254-.431.028-.542-.684.146.243.421-.407.712l.092-.361c-.7-.164.057.56-.5.492-.729-.206.633-.6-.289-.777-.156.176-.129.7-.381.653.239-.206-.257-.3-.367-.546l.294-.334c-.228-.114-.222-.008-.354.1.364-.483-.152-1.216.3-1.888-.123-.372-.306-.029-.559-.187.4-.227.04-.55.037-.761.027-.064-.387-.156-.552-.087l.283.518c-.221-.013-.578.086-.516.274.8-.18-.444.784.468.765l-.414.019.326.664.054-.024c-.135.008.318.555.177.943-.146-.1-.033-.739-.46-.335-.257-.262.084-.79-.125-1.289l-.272.119c-.431-.514.04-1.258-.073-1.849l.389.157c.136-.216.435-.5.1-.68.031.253-.192.132-.358.093-.224-.334-.014-.849-.179-1.313a.284.284,0,0,0,.138,0l-.245-.486c.056-.234.277-.321.528-.47-.055-.086-.054-.3-.276-.211-.019.046-.04.092-.017.123-.424-.239.118-.178-.146-.483.358.233.5-.086.857-.065-.164-.359-.635-.02-.8-.063.194-.446.5-.508.568-.951-.22-.023-.147.316-.4.358.059-.128.034-.276-.047-.3l-.173.275a1.623,1.623,0,0,0,.147-1.422l-.111.041.008-.318.412.114c-.106-.171.258-.354-.07-.446l-.029.063-.133-.215.408.221c.171-.27-.662-.651-.589-1.1.557-.089.187.768.9.828.116-.146.239-.4.05-.484-.194.017-.2.121-.2.228-.368-.391.238-.964-.386-1.217l-.234.288c-.068-.341.688-.547.279-.667l.706.279c-.344-.349-.267-.789-.52-1.119-.413-.018,0,.467-.084.441l-.293-.161c.253-.5.257-.137.518-.738l-.276-.014c.428-.19-.364-.761.367-.531l-.175.159.331,0-.2-.71c.245.078.184-.263.51-.159l-.284-.271c.475-.1.543.5.9.538.217,0,.194-.121.166-.183.339.322-.488.442-.509.75l.294.164-.413-.022a1.032,1.032,0,0,0,.506.3c-.572.286.093.633-.041,1.085-.231-.386-.4.235-.505.169-.01.211.712.738.206.909-.2.12-.292-.261-.387.031a.309.309,0,0,0,.46.2,6.428,6.428,0,0,1,.031,1.382l-.274-.11c-.229.29.151.57.45.718-.111.041-.029.063-.193.019-.453.373.568.467.468,1.069.389-.041.423-.311.235-.5l.44.045a2.813,2.813,0,0,0-.345-1.52l.326.193c.591-.362-.575-.261.1-.6-.155-.253-.23.181-.414-.009.129-.179.762.049.794-.249.223,1.116.183,2.384.294,3.548.082.02.11-.042.138-.1.308.193.064,1.108-.07,1.989s-.214,1.727.372,1.745c-.165.068-.364-.11-.328.136a.5.5,0,0,0,.359.006c-.584.663.124,1.455-.228,2.236.192-.032.311.127.449.118-.428.294.091.694-.145.956l.216-.1.066.757c.083.015.078-.088.1-.151.119.155-.128.215-.318.249l.515.29c-.7,1.069.674,2.161.318,3.344.4.121.578.245.658.523l.1-.155c.354.247-.19.042,0,.267.262.134.579-.026.34-.222.111-.159.254-.088.359,0A3.715,3.715,0,0,1,1070.783,602.952Z" transform="translate(-1064.79 -573.826)"/></g><path class="d" d="M1108.19,674.964c-.206-1.555,12.358,2.181,13.833,0,0,0-1.252,9.073,0,10.336s23.294,5.81,22.857,12.356-30.985,1.4-33.166,1.245S1108.594,678.018,1108.19,674.964Z" transform="translate(-1041.058 -456.721)"/><g class="i"><path d="M1095.582,506.391l.439-.037S1095.865,506.366,1095.582,506.391Z" transform="translate(-1044.567 -503.556)"/><path d="M1106.692,507c-11.706.935-37.29-.721-37.29-.721-7.518-.432-12.8-1.1-13.725-2.115a.842.842,0,0,0,.006.087c.055,1.175.729,14.621,1.675,32.248a8.808,8.808,0,0,0,1.231-.143,9.574,9.574,0,0,0,6.194-4.4,21.276,21.276,0,0,0,2.41-5.031C1075.919,510.318,1102.941,507.337,1106.692,507Z" transform="translate(-1055.677 -504.165)"/></g><path class="j" d="M1087.616,635.133c0-.061-.006-.118-.006-.179-.1-5.472-4.31-24.878-4.31-24.878,3.215-4.044,3.9-27.394,3.926-28.477C1087.158,599.374,1087.3,618.205,1087.616,635.133Z" transform="translate(-1047.986 -482.606)"/><path class="j" d="M1109.67,612.308s-5.894,6.326-6.244,19.777c-1.039-11.332-2.263-23.555-3.567-35.765C1102.066,602.138,1106.016,611.133,1109.67,612.308Z" transform="translate(-1043.376 -478.508)"/></g><g transform="translate(1121.179 605.48)"><path class="k" d="M1117.452,559.468s-6,2.526-8.518,6.965c-1.5,2.637-2.176,2.3-2.568,2.7-1.3,1.32,2.227.9,3.885-1.192,1.347-1.7,5.064-1.528,6.207-2.425s3.748-3.888,3.623-4.928S1117.452,559.468,1117.452,559.468Z" transform="translate(-1093.029 -540.157)"/><g transform="translate(0 0)"><path class="l" d="M1095.872,544.664s-.019-.405.277-.275a5.628,5.628,0,0,1,.883.633l-.863.656Z" transform="translate(-1095.872 -544.363)"/><g transform="translate(0.256 0.585)"><path class="m" d="M1125.575,584.176c.037.054,1.071,1.383,1.071,1.383a.428.428,0,0,1-.1.565c-.3.231-1.78,1.369-2.024,1.478a.584.584,0,0,1-.679-.185c-.092-.175-.871-1.344-.871-1.344Z" transform="translate(-1088.583 -533.863)"/><path class="n" d="M1123.693,580.764l2.969,4.3a6.449,6.449,0,0,1-3.066,2.236l-3.173-4.595Z" transform="translate(-1089.292 -534.813)"/><path class="o" d="M1100.137,546.841l-3.281-2.02a1.3,1.3,0,0,1-.785.542l.8,3.554A5.853,5.853,0,0,0,1100.137,546.841Z" transform="translate(-1096.072 -544.82)"/><path class="p" d="M1130.43,590.5,1099.983,546.4a.923.923,0,0,0-1.059.671s-.819-.178-1.253.895c0,0-.86-.05-1.047.372l30.624,44.349A4.557,4.557,0,0,0,1130.43,590.5Z" transform="translate(-1095.918 -544.383)"/><g transform="translate(0.707 2.005)"><g class="q"><path class="r" d="M1100.29,545.262l-1.937,1.994,31.6,45.764,2.248-3.251Z" transform="translate(-1096.144 -546.703)"/></g></g><path class="n" d="M1121.6,580.487" transform="translate(-1088.965 -534.89)"/><g transform="translate(31.131 45.951)"><g class="s"><path class="r" d="M1122.427,581.906l2.71,3.946s.146.019.141.084.841,1.174.871,1.215a.905.905,0,0,1,.079.4,10.087,10.087,0,0,0,1.289-.89s-1.611-4.554-1.64-4.6a24.032,24.032,0,0,1-2.631-1.175A4.743,4.743,0,0,1,1122.427,581.906Z" transform="translate(-1119.865 -580.729)"/></g></g><path class="p" d="M1096.671,547.856l.049.216-.1-.138A.344.344,0,0,1,1096.671,547.856Z" transform="translate(-1095.918 -543.975)"/><g class="t"><path class="r" d="M1099.265,547.887l-3.861-4.03,1.479-.382s4.393,4.086,4.517,4.2A12.586,12.586,0,0,1,1099.265,547.887Z" transform="translate(-1096.258 -545.195)"/></g></g></g><path class="k" d="M1127.567,551.327c-.62.757-9.569,7.826-11.908,12.613s-5.36,12.125-7.059,14.409c-2,2.687-1.092,3.9,1.549.934a52.273,52.273,0,0,0,5.234-7.052c.208-.488-1.452,2.578-3.512,5.814-2.191,3.44-4.78,7.091-4.186,7.53,1.153.849,8.133-8.807,9.058-10.625a50.9,50.9,0,0,1-2.5,4.766c-1.255,2.1-3.034,4.385-2.759,5.07.433,1.079,4.83-3.77,7.269-8.23.183-.024-.156,1.588-3.408,6.691-.326.513-.621,2.022.914.519,3.229-3.164,4.852-4.287,7.135-9.781,2.227-5.358,3.381-11.766,6.17-15.171Z" transform="translate(-1092.63 -542.424)"/></g><g transform="translate(1068.853 612.822)"><path class="k" d="M1064.907,559.341s5.583,3.352,7.442,8.1c1.106,2.824,1.827,2.591,2.158,3.04,1.1,1.493-2.332.578-3.675-1.731-1.093-1.875-4.8-2.232-5.8-3.283s-3.158-4.381-2.885-5.394S1064.907,559.341,1064.907,559.341Z" transform="translate(-1052.941 -547.544)"/><g transform="translate(2.957 14.242)"><path class="u" d="M1074.9,568.262l0,.082c0,.032,0,.066,0,.1,0,.073,0,.153,0,.238,0,.041,0,.083,0,.127v.034c0,.038,0,.075,0,.114l0,.116v.061c0,.056,0,.112,0,.17,0,.11-.006.22-.01.328v.013c-.006.146-.01.288-.017.422,0,.023,0,.046,0,.068l-.005.13c-.006.148-.013.28-.018.385-3.269,1.7-12.816,6.759-12.816,6.759a1.785,1.785,0,0,1-1.9-.3c-.722-.8-2.749-3.484-2.749-3.484a1.661,1.661,0,0,1,.2-1.583c.145-.212.334-.508.533-.828l.354-.578c.464-.762.887-1.484.887-1.484a4.8,4.8,0,0,1,1.643-1.451l9.417-4.48a1.95,1.95,0,0,1,.533.323c.533.534,3.383,3.582,3.383,3.582A1.473,1.473,0,0,1,1074.9,568.262Z" transform="translate(-1057.254 -560.696)"/><path class="v" d="M1077.013,566.656c-.937,1.407-1.923,2.777-1.923,2.777a18.914,18.914,0,0,1-2.071,1.236c-.116.054-.49.245-1.046.533.027-.539.081-1.8.059-2.389a1.473,1.473,0,0,0-.575-1.13s-2.85-3.048-3.383-3.582a1.95,1.95,0,0,0-.533-.323l4.78-2.274a2.08,2.08,0,0,1,2.245.165,24.614,24.614,0,0,1,2.847,2.847S1077.95,565.249,1077.013,566.656Z" transform="translate(-1054.39 -561.247)"/><path class="w" d="M1079.283,565.954l-4.573,2.36-11.816,6.1a.994.994,0,0,1-1.225-.447c-.425-.616-2.562-3.117-3.4-4.087l-.354.578,3.553,4.335s.242.6,1.1.262c.553-.22,7.366-3.727,12.122-6.182l4-2.07h0Z" transform="translate(-1057.069 -559.936)"/><g class="x"><path class="y" d="M1061.294,567.108c-.088-.008-.253.45-.276.508-.115.275-.509.616-.447.917a2.678,2.678,0,0,0,.331.775c.366.63.995,1.222,1.365,1.85a7.87,7.87,0,0,0,1.354,1.558,1.261,1.261,0,0,0,.571.366c.458.106.876-.21,1.275-.381.34-.146.679-.3,1.018-.447.88-.394,1.754-.8,2.627-1.207,3.209-1.5,6.439-2.966,9.551-4.661q.773-.422,1.534-.867a7.124,7.124,0,0,0,1.383-.9,1.241,1.241,0,0,0,.436-.892,11.125,11.125,0,0,0-.285,2.075c-.081.725-.153,1.451-.242,2.176-.11.9-.221,1.8-.348,2.7a6.16,6.16,0,0,1-.253,1.44.06.06,0,0,1-.013.023c-.23.3-11.51,8.311-14.36,7.932s-10.276,2.149-11.967-1.777-2.939-6.975-.22-9.249S1061.262,567.105,1061.294,567.108Z" transform="translate(-1058.511 -560.557)"/></g></g><path class="k" d="M1057.98,550.106c.506.837,8.36,9.107,9.995,14.178s3.583,12.764,4.94,15.266c1.6,2.944.526,4.018-1.667.7a52.373,52.373,0,0,1-4.178-7.723c-.137-.513,1.07,2.759,2.65,6.254,1.678,3.718,3.723,7.7,3.072,8.048-1.262.676-6.8-9.873-7.456-11.8a51.329,51.329,0,0,0,1.8,5.074c.945,2.259,2.38,4.77,2.011,5.409-.583,1.007-4.246-4.417-6.025-9.179-.179-.05-.072,1.593,2.421,7.107.25.554.328,2.09-.977.385-2.749-3.591-4.194-4.933-5.674-10.7-1.442-5.62-1.673-12.128-3.949-15.894Z" transform="translate(-1054.941 -550.106)"/></g><path class="z" d="M1166.3,519.965h-.005v.006c-2.794,7.32-8.44,14.992-13.3,18.955-.316.266-.638.506-.946.735-12.964,6.182-76.031,1.571-84.384-1.792-3.765-1.521-8.339-12.519-12.265-24.767-4.792-14.931-8.625-31.716-8.853-35.418-.39-6.226,7.122-78.622,50.3-87.073a44.954,44.954,0,0,1,11.678-.706s.408.242,1.12.569a21.752,21.752,0,0,0,4.594,1.558c3.549.772,8.16.761,12.055-2.6,4.945-4.271,43.552,2.071,60.189,12s42.689,39.7,39.275,87.011c-6.547,90.733-76.6,114.617-76.6,114.617s-2,12.472-4.536,12.555-4.451-5.776-6.285-6.227-6.139-2.007-6.006-3.539,2.611-6.29-.653-7.756,9.068-.878,8.92-3.513c-1.978-34.549,8.487-65.081,21.775-89.644" transform="translate(11.57 17.605)"/><path class="z" d="M1059.779,513.943h.007v.006c1.726,7.642,6.222,16.039,10.475,20.654.274.308.557.592.831.863,11.954,7.962,75.036,12.362,83.782,10.221,3.943-.97,10.034-11.207,15.662-22.771,6.865-14.1,13.045-30.168,13.8-33.8,1.271-6.107,4.128-78.835-37.41-93.338a44.894,44.894,0,0,0-11.46-2.359s-.438.182-1.189.4c-1.071.327-5.958,2.494-4.768.89,1.884-2.542-5.405-3.986-10.495-5.378-6.3-1.725-44.472-3.054-62.351,4.408s-47.9,33.225-51.246,80.545c-6.419,90.742,59.523,124.341,59.523,124.341s.207,12.631,2.705,13.073,5.228-5.084,7.105-5.27,6.363-1.115,6.448-2.649-1.69-6.6,1.749-7.585-8.849-2.158-8.329-4.745c6.869-33.918.85-65.627-8.809-91.828" transform="translate(0 17.581)"/><path class="e" d="M1133.013,518.647c-6.511,11.332-59.086,8.742-64.872,0,0,0-21.534-51.364-17.193-66.275,0,0,12.339,2.132,26.306,5.663,15.574,3.931,33.162,9.607,37.886,16,5.365,7.265,13.056,17.769,16.958,27.463,0,.006,0,.006.006.012.364.915.7,1.824.995,2.72s.545,1.763.761,2.628v.018C1134.947,511.315,1134.886,515.382,1133.013,518.647Z" transform="translate(12.639 35.505)"/><path class="e" d="M1077.138,389.2s-27.643,20.865-26.306,81.141l8.178,2.635s-3.314-60.3,23.91-84.549C1082.92,388.425,1080.259,386.7,1077.138,389.2Z" transform="translate(12.755 17.54)"/><path class="aa" d="M1126.249,500.276c.116.575.234,1.126.345,1.645-6.732-9.472-34.627-7.32-34.627-7.32-.742-22.794-20.568-37.8-20.568-37.8,15.573,3.931,33.162,9.607,37.886,16,5.365,7.265,13.056,17.769,16.958,27.463C1126.243,500.271,1126.243,500.271,1126.249,500.276Z" transform="translate(18.494 36.739)"/><path class="aa" d="M1114.574,492.1a7.243,7.243,0,0,1,.65,1.075,7.5,7.5,0,0,1,.761,2.628v.018C1116.417,499.989,1115.749,497.541,1114.574,492.1Z" transform="translate(30.514 46.565)"/><path class="ab" d="M1135.727,499.73v.005c-2.795,7.32-8.439,14.993-13.3,18.955,8.581-23.21,2.943-43.938,2.548-57.9,1.971,13.464,10.448,38.052,10.75,38.917A.1.1,0,0,1,1135.727,499.73Z" transform="translate(32.7 37.848)"/><path class="ab" d="M1066.133,521.5c-4.829,2.756-17.73-8.687-21.89-18.505-7.328-17.3-4.485-43.828.7-54.683C1043.588,477.808,1051.4,498.407,1066.133,521.5Z" transform="translate(9.699 34.375)"/><g transform="translate(1075.272 506.069)"><path class="u" d="M1064.7,474.854c-1.3-.919-2.377-2.085-3.484-3.031l1.319,1.134a6.42,6.42,0,0,1-1.529-2c.442-.068.658.536,1.092.292a21.583,21.583,0,0,1,3.617,5.222C1064.367,476.657,1065.122,475.239,1064.7,474.854Z" transform="translate(-1059.673 -465.39)"/><path class="u" d="M1059.962,469.36c.165.141.321.281.472.424A1.22,1.22,0,0,1,1059.962,469.36Z" transform="translate(-1059.962 -465.834)"/><path class="u" d="M1073.579,480.04a3.1,3.1,0,0,1,.52.534A2.221,2.221,0,0,1,1073.579,480.04Z" transform="translate(-1056.171 -462.861)"/><path class="u" d="M1066.868,474.139a2.02,2.02,0,0,1,.414.141q.865,1.191,1.653,2.483C1068.32,475.86,1067.2,475.322,1066.868,474.139Z" transform="translate(-1058.039 -464.504)"/><path class="u" d="M1067.23,473.553a6.156,6.156,0,0,1-1.627-2.575A11.139,11.139,0,0,0,1067.23,473.553Z" transform="translate(-1058.392 -465.384)"/><path class="u" d="M1080.5,483.345a.416.416,0,0,1,.225-.047.294.294,0,0,0,.144.034c.083.474.139.96.2,1.436-.089-.087-.293-.116-.345-.221C1080.653,484.025,1081.016,483.74,1080.5,483.345Z" transform="translate(-1054.244 -461.954)"/><path class="u" d="M1073.492,479.922l-.056.006-.2-.165.006-.042A1.206,1.206,0,0,1,1073.492,479.922Z" transform="translate(-1056.266 -462.95)"/><path class="u" d="M1080.343,482.958a2.3,2.3,0,0,0,.421-.265l.149.8a.779.779,0,0,0-.143-.029C1080.585,483.359,1080.631,483.037,1080.343,482.958Z" transform="translate(-1054.288 -462.122)"/><path class="u" d="M1079.334,478.746c-.1-.135-.483-.068-.6-.084a6.156,6.156,0,0,0-.234-1.487c-.12-.014-.222-.146-.463-.171a2.322,2.322,0,0,0,.141-.458q.451.706.867,1.469t.8,1.58A5.1,5.1,0,0,1,1079.334,478.746Z" transform="translate(-1054.93 -463.833)"/><path class="u" d="M1084.845,506.143a11.217,11.217,0,0,1,.368-2.21,2.769,2.769,0,0,0-.318-2.207c-.556,1.6-1.037,3.729-2.615,3.7-.785-.008-.748-.488-.524-1.12a6.611,6.611,0,0,0,.552-2.022l-.332.292c.166-.143.332-.293.152-.428-.339.3-.641.857-1.175.984l-.353-.267a5.039,5.039,0,0,0-1.381,1.249,3.677,3.677,0,0,1-1.443,1.079,5.545,5.545,0,0,0,2.6-5.566,20.878,20.878,0,0,0-1.944-6.337,11.594,11.594,0,0,0-5.731-4.518,4.067,4.067,0,0,1-.92-1.638,10.125,10.125,0,0,0-2.828-2.185c-1.958-1.509-2.807-3.877-4.8-5.773-.4-.368.193-1.962,1.452-1.257a7.421,7.421,0,0,1,2.793,2.081c-.454.207-.578-.39-1.02-.346a5.982,5.982,0,0,0,1.212,2.015c-.362-.4-.739-.785-1.117-1.174.955.97,1.814,2.166,2.892,3.167.355.412-.648,1.658.672,1.638a15.5,15.5,0,0,0-2.639-5.3l.033-.015c-.619-.647-1.116-1.3-1.713-1.936.231.159.486.306.578.541a12.649,12.649,0,0,0-2.139-3.225,11.635,11.635,0,0,1,4.459,3.534c1.225,1.455,2.269,3.018,3.531,4.311.084-1.3-1.644-1.7-1.408-3a22.185,22.185,0,0,1,2.634,4.279,1.956,1.956,0,0,0-.375-.2,3.1,3.1,0,0,0,.6,1.487,6.82,6.82,0,0,1,.827,1.33l.091.262a2.323,2.323,0,0,0-.091-.262,23.514,23.514,0,0,0-1.057-2.621,2.22,2.22,0,0,1,.825,1.153,2.375,2.375,0,0,0-.072-1.294c-.283-.488-.565-.977-.846-1.461a7.522,7.522,0,0,0,1.914,1.754,19.217,19.217,0,0,0-1.547-3.318c.426.511.865,1.016,1.275,1.54.476,1.023.94,2.043,1.39,3.075l-.089-.1.141.213q.27.6.543,1.206a2.95,2.95,0,0,0,.945.845l.093.175c-.19-.049-.354-.037-.325.214.026,1.1,1.161,1.826.992,3.138a1.722,1.722,0,0,0,.424,1.074c-.07.148.017.187.143.206l.17.248a1.918,1.918,0,0,0,.329.638,3.365,3.365,0,0,0-.329-.638,2.374,2.374,0,0,0-.113-.24c.142.017.309.031.359.153a21.106,21.106,0,0,0-1.652-4.793c.156.041.331.121.432.143l-.525-.318a10.732,10.732,0,0,0-.9-1.414,1.381,1.381,0,0,0,.561.224,19.032,19.032,0,0,0-2.589-4.051,37.739,37.739,0,0,0-2.141-4.024,8.165,8.165,0,0,0,.867,2.484,36.49,36.49,0,0,1-4.142-5.432,6.942,6.942,0,0,0,2.067-.137c.258-.24-.146-.888.3-.69,1.793.6,1.836,2.052,3.793,1.372.514-.221.787-2.867,1.473-2.637a11.964,11.964,0,0,1,1.892,1.666,7.577,7.577,0,0,0,.473.794c-.006.054.123.042.272.037a10.061,10.061,0,0,1,1.566,2.3l.251.623a1.2,1.2,0,0,1-.2.47,1.56,1.56,0,0,1,.482.184c.226.559.468,1.1.708,1.627.013.367,0,.741.032,1.087.106-.065.225-.191.362-.2l.9,1.982a2.271,2.271,0,0,1-.3,1.033c1.324.238,1.459,2.184,2.029,3.315l.037-.015c.221.6.405,1.223.587,1.854a2.233,2.233,0,0,1-.261.4c.227.1.285.258.395.309a6.392,6.392,0,0,1-.206,1.517c.113.051.493.107.543.274a5.317,5.317,0,0,0,.235.978c.056.378.083.771.106,1.167a15.671,15.671,0,0,1-.005,1.992,17.245,17.245,0,0,1-.208,1.969,2.419,2.419,0,0,1-.483.1c.239.178.092.464.223.632a.381.381,0,0,0-.224-.035c.317.563-.106.7-.233,1.212.011.115.191.221.245.335-.015.058-.027.114-.046.173-.8.592-.531,1.156-.583,1.805-.256.634-.476,1.257-.77,1.861C1085.745,505.743,1085.215,505.861,1084.845,506.143Z" transform="translate(-1058.827 -464.6)"/><path class="u" d="M1081.012,484.583c.077.621.1,1.258.144,1.877C1080.946,485.851,1080.516,485.411,1081.012,484.583Z" transform="translate(-1054.166 -461.596)"/><path class="u" d="M1075.163,473.527a2.253,2.253,0,0,0,.067-1.05c.9,1.181,1.819,2.36,2.7,3.627l-.031.026C1077.052,475.226,1076.486,473.423,1075.163,473.527Z" transform="translate(-1055.73 -464.966)"/><path class="u" d="M1080.677,483.3a.784.784,0,0,1,.143.029v.005A.294.294,0,0,1,1080.677,483.3Z" transform="translate(-1054.195 -461.954)"/><path class="u" d="M1069.806,475.089l-.078-.106c.277.2.547.4.805.621A2.282,2.282,0,0,1,1069.806,475.089Z" transform="translate(-1057.243 -464.269)"/><path class="u" d="M1068.758,473.583l-1.541-1.344a7.758,7.758,0,0,1-1.227-2.373C1066.958,471.056,1067.858,472.315,1068.758,473.583Z" transform="translate(-1058.284 -465.693)"/><path class="u" d="M1074.041,471.607c-.092-.322-.148-.684-.229-1.021l.541.752C1074.224,471.374,1074.132,471.52,1074.041,471.607Z" transform="translate(-1056.106 -465.493)"/><path class="u" d="M1071.46,476.567l-.136-.153.594.194C1071.813,476.611,1071.622,476.571,1071.46,476.567Z" transform="translate(-1056.799 -463.87)"/><path class="u" d="M1072.815,469.051l.366.571a1.607,1.607,0,0,0-.494-.081A1.217,1.217,0,0,0,1072.815,469.051Z" transform="translate(-1056.419 -465.92)"/><path class="u" d="M1071.022,467.282a6.287,6.287,0,0,1-.546-.68c.272.211.547.439.813.671C1071.145,467.3,1071.021,467.336,1071.022,467.282Z" transform="translate(-1057.035 -466.602)"/></g><g transform="translate(1185.813 540.91)"><path class="ac" d="M1149.278,497.281a9.454,9.454,0,0,1-.367-2.181c.045.272.092.545.137.817a1.579,1.579,0,0,1,.326-1.182c.36.118.086.4.566.449a6.625,6.625,0,0,1-1.033,3.008C1147.8,497.83,1149.324,497.553,1149.278,497.281Z" transform="translate(-1145.853 -493.61)"/><path class="ac" d="M1149.59,493.855a2.675,2.675,0,0,1,.032.3C1149.569,494.048,1149.53,493.948,1149.59,493.855Z" transform="translate(-1145.558 -493.855)"/><path class="ac" d="M1152.776,501.819a1,1,0,0,1,.145.337A.513.513,0,0,1,1152.776,501.819Z" transform="translate(-1144.663 -491.638)"/><path class="ac" d="M1151.25,497.7a1.059,1.059,0,0,1,.212.176c-.108.464-.245.933-.4,1.411C1151.176,498.772,1150.7,498.234,1151.25,497.7Z" transform="translate(-1145.164 -492.784)"/><path class="ac" d="M1151.977,497.6a1.64,1.64,0,0,1,.6-1.406A2.807,2.807,0,0,0,1151.977,497.6Z" transform="translate(-1144.888 -493.204)"/><path class="ac" d="M1157.317,504.458a.9.9,0,0,1,.225.014.371.371,0,0,0,.118.035c-.12.193-.243.385-.373.577-.05-.045-.226-.084-.235-.132C1157.19,504.738,1157.619,504.685,1157.317,504.458Z" transform="translate(-1143.473 -490.903)"/><path class="ac" d="M1152.775,501.751l-.051-.011c-.026-.038-.05-.077-.074-.115l.029-.014A.407.407,0,0,1,1152.775,501.751Z" transform="translate(-1144.698 -491.696)"/><path class="ac" d="M1157.3,504.276c.175-.008.352-.017.491-.036-.063.109-.128.216-.194.325-.038-.012-.075-.023-.119-.032C1157.349,504.465,1157.525,504.35,1157.3,504.276Z" transform="translate(-1143.405 -490.964)"/><path class="ac" d="M1158.44,502.56c-.012-.068-.371-.119-.461-.15a2.741,2.741,0,0,0,.6-.578c-.092-.029-.1-.1-.289-.159a3.087,3.087,0,0,0,.372-.132,8.91,8.91,0,0,1-.214,1.418A.814.814,0,0,1,1158.44,502.56Z" transform="translate(-1143.215 -491.715)"/><path class="ac" d="M1156.894,514.888c-.277-.606.65-1.336-.322-1.909-.579.713-.766,1.684-2.316,1.826s-.161-.954-.253-1.5l-.325.152c.162-.075.325-.152.139-.212a3.951,3.951,0,0,1-1.135.534l-.371-.12c-1.156.4-1.39,1.1-2.547,1.493,3.706-1.891,2.063-4.356,1.7-6.536a9.525,9.525,0,0,0-3.539-3.338c-.208-.2-.115-.681,0-1.03a5.2,5.2,0,0,0-1.18-1.8c-.739-1.271.1-2.539-.134-3.909-.047-.272,1.459-.687,1.922-.021a2.465,2.465,0,0,1,.773,1.675c-.482-.054-.206-.331-.568-.449a1.573,1.573,0,0,0-.325,1.184l-.138-.818a9.532,9.532,0,0,0,.368,2.181c.047.274-1.482.55-.371.91a6.627,6.627,0,0,0,1.033-3.008l.036.005a12.163,12.163,0,0,1-.059-1.281c.069.132.161.266.082.386a3.951,3.951,0,0,0,.556-1.881c1.688,1.707.623,3.681,1.27,5.436.788-.518-.369-1.151.6-1.608a9.344,9.344,0,0,1-.273,2.467,1.191,1.191,0,0,0-.214-.178c-.552.531-.075,1.07-.188,1.589-.015.046-.029.092-.046.139a.839.839,0,0,0,.046-.139c.155-.478.293-.949.4-1.411a.641.641,0,0,1,.11.7,1.376,1.376,0,0,0,.6-.578c.018-.275.034-.55.077-.823a2.034,2.034,0,0,0,.688,1.2,8.119,8.119,0,0,0,.492-1.742c.065.313.138.626.206.938a14.685,14.685,0,0,0-.365,1.607l-.033-.061c.007.041.014.082.022.123-.031.211-.055.423-.069.635.032.19.234.372.486.552.005.032.009.063.013.093-.153-.055-.307-.081-.384.036-.44.5.346,1.015-.256,1.593-.157.151-.068.348.065.56-.113.061-.042.09.073.115.03.045.059.091.086.137a.526.526,0,0,0,.146.339,1.02,1.02,0,0,0-.146-.339.654.654,0,0,0-.033-.127c.129.026.285.052.3.116a11.152,11.152,0,0,0,.153-2.43c.125.046.25.114.334.141-.119-.078-.237-.156-.346-.234a3.654,3.654,0,0,0-.194-.791,1.179,1.179,0,0,0,.4.207,7.784,7.784,0,0,0-.248-2.272c.2-.718.417-1.431.553-2.139a2.416,2.416,0,0,0-.759,1.2,5.449,5.449,0,0,1,.066-3.229,8.413,8.413,0,0,0,1.666.541c.349-.017.463-.366.671-.169,1,.708.137,1.255,2.1,1.507.533.044,2.388-.825,2.782-.569a3.294,3.294,0,0,1,.493,1.037,1.293,1.293,0,0,0-.079.386c-.036.018.075.044.2.075a2.12,2.12,0,0,1,.008,1.152c-.043.092-.083.183-.122.274a1.861,1.861,0,0,1-.423.129,1.326,1.326,0,0,1,.312.164,5.722,5.722,0,0,0-.214.721c-.165.135-.354.272-.493.405a2.114,2.114,0,0,1,.412-.009c-.051.3-.086.593-.107.887a2.277,2.277,0,0,1-.71.343c1.1.293.438,1.044.611,1.552l.04,0c-.008.258-.019.518-.039.78a3.229,3.229,0,0,1-.373.133c.186.06.2.128.292.159a2.814,2.814,0,0,1-.6.578c.092.029.451.082.463.15a.829.829,0,0,0,.009.4c-.036.152-.078.307-.125.464a8.61,8.61,0,0,1-.728,1.566c-.139.019-.314.028-.49.037.228.073.051.188.178.257a.879.879,0,0,0-.224-.015c.3.226-.128.281-.267.493.008.047.184.087.237.133l-.047.07c-.779.257-.51.486-.527.752q-.292.4-.59.805C1157.727,514.642,1157.219,514.734,1156.894,514.888Z" transform="translate(-1146.43 -492.862)"/><path class="ac" d="M1157.321,505c-.17.252-.346.5-.527.752C1156.811,505.489,1156.542,505.259,1157.321,505Z" transform="translate(-1143.553 -490.752)"/><path class="ac" d="M1158.033,499.795a2.273,2.273,0,0,0,.712-.344c-.046.63-.042,1.255-.06,1.893h-.04C1158.473,500.839,1159.132,500.086,1158.033,499.795Z" transform="translate(-1143.199 -492.297)"/><path class="ac" d="M1157.435,504.469c.043.009.081.02.119.032v0A.371.371,0,0,1,1157.435,504.469Z" transform="translate(-1143.366 -490.9)"/><path class="ac" d="M1152.765,498.92l.009-.06a3.236,3.236,0,0,1,.212.456A.655.655,0,0,1,1152.765,498.92Z" transform="translate(-1144.666 -492.462)"/><path class="ac" d="M1153.105,498.069c-.069-.313-.143-.626-.208-.94a2.453,2.453,0,0,1,.762-1.2C1153.522,496.637,1153.3,497.351,1153.105,498.069Z" transform="translate(-1144.629 -493.278)"/><path class="ac" d="M1158.351,498.853c.139-.134.327-.27.492-.405-.031.133-.057.265-.08.4A2.024,2.024,0,0,0,1158.351,498.853Z" transform="translate(-1143.111 -492.576)"/><path class="ac" d="M1153.1,499.93c0-.031-.008-.063-.013-.093.11.078.228.155.348.233C1153.353,500.043,1153.228,499.976,1153.1,499.93Z" transform="translate(-1144.576 -492.19)"/><path class="ac" d="M1159.084,497.655c-.042.1-.078.2-.114.292a1.267,1.267,0,0,0-.311-.162A1.852,1.852,0,0,0,1159.084,497.655Z" transform="translate(-1143.025 -492.797)"/><path class="ac" d="M1158.925,496.565a1.252,1.252,0,0,1,.079-.386c.047.151.088.307.121.46C1159,496.607,1158.888,496.583,1158.925,496.565Z" transform="translate(-1142.953 -493.208)"/></g><path class="ab" d="M1096.981,416.476s-20.9,62.389,37.087,88.885l1.179.784-.3-14.675s-27.322-38.127-27.426-39.108S1096.981,416.476,1096.981,416.476Z" transform="translate(24.595 25.512)"/><path class="ac" d="M1098.442,392.681c-.426-.055-.624-.16-.456-.327C1098.109,392.229,1098.27,392.353,1098.442,392.681Z" transform="translate(25.879 18.782)"/><path class="ab" d="M1096.779,395.418c-1.107,1.106-3.71,3.549-5.936,3.667a2.553,2.553,0,0,1-2.25-1.039c-2.04-2.6-5.675-4.593-9.162-5.83-1.119-.4-1.243-1-.89-1.639a8.454,8.454,0,0,1,2.751-2.348c5.261.179,8.816,1.038,9.923,2.052a.534.534,0,0,1,.123.161,21.747,21.747,0,0,0,4.595,1.557C1096.847,393.4,1097.459,394.738,1096.779,395.418Z" transform="translate(20.433 17.647)"/><g transform="translate(1109.697 402.91)"><path class="e" d="M1172.694,486.161s-11.382,15.512-15.72,16.173-44.532,10.466-58.375-36.7c-5.792-19.729-4.8-36.483.582-52.637a35.085,35.085,0,0,0,1.589-12.025,31.215,31.215,0,0,0-.952-7.024,6.592,6.592,0,0,0-.47-1.28,15.382,15.382,0,0,0,2.356.037c2.324-.081,5.212-.364,5.212-.364a23.613,23.613,0,0,1,4.6,5.954c2.677,4.717,5.144,12.192,3.08,22.269C1106.518,460.009,1144.195,487.756,1172.694,486.161Z" transform="translate(-1084.721 -384.117)"/><path class="j" d="M1099.65,400.974c2.318-.885,6.955-2.616,10.75-2.677a23.615,23.615,0,0,0-4.6-5.954s-2.888.284-5.212.364l-1.886,1.243Z" transform="translate(-1083.602 -384.117)"/><path class="e" d="M1093.912,387.455s6.637,3.9,9.946.927,5.346-3.243,6.8-.927,3.491,11-5.528,10.584-11.347,4.825-15.856-.995S1086.835,385.423,1093.912,387.455Z" transform="translate(-1086.89 -385.909)"/></g></g></svg>