<svg xmlns="http://www.w3.org/2000/svg" width="341.949" height="346.812" viewBox="0 0 341.949 346.812"><defs><style>.a,.h{fill:#f6da9b;}.b{fill:#d63e23;}.c{fill:#3065b8;}.d{fill:#164b55;}.e{fill:#d6bf87;}.f{fill:none;stroke:#d63e23;stroke-miterlimit:10;stroke-width:0.592px;}.g{fill:#bd9e33;}.g,.h,.i,.j,.k{fill-rule:evenodd;}.i{fill:#ad912f;}.j{fill:#f7cf43;}.k{opacity:0.15;}</style></defs><g transform="translate(-557.122 -404.023)"><g transform="translate(728.789 656.868)"><path class="a" d="M703.6,632.745s40.7,54.34,37.964,58.409c-4.881,7.346-25.22,34.258,2.68,12.889,15.629-9.009,12.311-11.64,10.669-14.641-1.342-2.452-11.278-21.225-14.869-28.012-.8-1.521-20.4-41.618-20.4-41.618Z" transform="translate(-703.602 -619.771)"/><path class="b" d="M744,665.177c-.7-1.438-9.3,8.8-11.778,7.77,0,0,6.162,7.022,5.8,8.8s-16.571,18.032-12.522,23.36,27.169-16.212,28.94-17.568S745.375,668.006,744,665.177Z" transform="translate(-699.947 -611.987)"/></g><g transform="translate(817.178 440.867)"><path class="c" d="M806.766,464.272c-1.759-5.91-2.278-12.066-3.4-17.617l1.322,6.632a24.879,24.879,0,0,1,.108-9.777c1.517.853.729,3.217,2.644,3.508,1.135,8.2-.154,16.662-1.443,24.64C801.447,469,807.156,466.473,806.766,464.272Z" transform="translate(-774.838 -434.077)"/><path class="c" d="M805.292,435.461c.169.824.308,1.63.429,2.428A4.737,4.737,0,0,1,805.292,435.461Z" transform="translate(-774.513 -435.461)"/><path class="c" d="M822.843,506.674a12.187,12.187,0,0,1,.313,2.883A8.7,8.7,0,0,1,822.843,506.674Z" transform="translate(-771.488 -423.216)"/><path class="c" d="M815.965,469.451a7.91,7.91,0,0,1,.933,1.42q-.206,5.717-.889,11.557C816.289,478.193,814.139,473.854,815.965,469.451Z" transform="translate(-772.799 -429.617)"/><path class="c" d="M818.915,467.372A23.922,23.922,0,0,1,820.1,455.6,43.4,43.4,0,0,0,818.915,467.372Z" transform="translate(-772.209 -431.999)"/><path class="c" d="M837.667,535.751a1.579,1.579,0,0,1,.8.391,1.194,1.194,0,0,0,.362.452c-.883,1.651-1.872,3.271-2.831,4.868-.067-.483-.618-1.062-.526-1.506C836.5,538.192,838.3,538.191,837.667,535.751Z" transform="translate(-769.319 -418.216)"/><path class="c" d="M822.849,505.936l-.187-.111-.217-.988.121-.109A4.66,4.66,0,0,1,822.849,505.936Z" transform="translate(-771.557 -423.551)"/><path class="c" d="M837.952,533.887a9.086,9.086,0,0,0,1.915.2l-1.455,2.81a3.123,3.123,0,0,0-.373-.432C837.727,535.694,838.64,534.818,837.952,533.887Z" transform="translate(-768.89 -418.537)"/><path class="c" d="M845.977,516.441c.021-.653-1.315-1.363-1.636-1.7a23.839,23.839,0,0,0,2.843-5.107c-.334-.331-.331-.979-1-1.633a9.057,9.057,0,0,0,1.526-1.068q-.308,3.242-.865,6.571c-.333,2.2-.779,4.463-1.326,6.762A20.051,20.051,0,0,1,845.977,516.441Z" transform="translate(-767.792 -423.171)"/><path class="d" d="M798.387,608.6c1.617-2.295,4.234-3.853,6.422-5.881,2.282-1.927,4.1-4.316,4.306-7.514-5.542,3.574-12.1,8.928-16.871,5.079-2.383-1.907-1.117-3.285,1.079-4.683,2.122-1.464,5.305-2.994,6.534-4.868l-1.718.1c.853-.04,1.719-.1,1.49-.945-1.745.1-4.01,1.088-5.949.2l-.438-1.665a19.676,19.676,0,0,0-7.218.517,14.28,14.28,0,0,1-7-.154c9.36,1.348,16.621-3.731,21.292-10.8,4.79-7.11,7.036-16.051,9.221-24.045,1.255-9.481-1.958-19.194-6.714-27.547-.54-1.525.367-4.814,1.1-7.212-.518-4.46-1.2-9-3.422-13.456-2.381-9.306.691-18.588-.852-29.15-.329-2.076,5.29-5.541,7.457-.368a28.846,28.846,0,0,1,3.562,13.054c-1.885-.449-.833-2.576-2.292-3.5a23.231,23.231,0,0,0-1.116,9.063c-.161-2.075-.38-4.167-.608-6.26.6,5.254.365,10.966,1.265,16.611.1,2.107-5.951,3.522-1.862,6.618,2.536-7.012,4.932-14.731,4.614-22.532l.139.035c-.346-3.46-.311-6.637-.607-10.024a5.482,5.482,0,0,1,.471,3.038c1.386-5.028,1.344-9.993,1.178-14.99,3.859,6.7,4.927,14.12,5.186,21.486.264,7.388-.284,14.67.481,21.648,3.369-3.775-.969-9.131,2.865-12.537a86.085,86.085,0,0,1-2.186,19.4,7.663,7.663,0,0,0-.68-1.5,12.033,12.033,0,0,0-1.71,6,26.577,26.577,0,0,1-.649,6.047l-.349,1.02a10.45,10.45,0,0,0,.349-1.02,92.364,92.364,0,0,0,3.039-10.548,8.61,8.61,0,0,1-.24,5.5,9.21,9.21,0,0,0,2.882-4.128c.3-2.172.606-4.342.907-6.5a29.233,29.233,0,0,0,1.658,9.95c1.825-4.417,2.257-9.213,3.21-13.855.076,2.584.212,5.179.208,7.766-.99,4.267-2.016,8.5-3.109,12.732l-.043-.511-.078.991q-.608,2.486-1.22,4.988a11.364,11.364,0,0,0,.865,4.85l-.137.758c-.466-.606-.991-.961-1.5-.124-2.547,3.419-.822,8.363-4.48,11.975-.919.945-1.17,2.516-1.272,4.3-.572.288-.4.611-.055.972l-.073,1.17a7.434,7.434,0,0,0-.523,2.735,13.149,13.149,0,0,0,.523-2.735,9.6,9.6,0,0,0,.23-1.009c.393.394.872.838.734,1.333,2.632-5.8,5.179-12.021,6.417-18.62.383.5.723,1.165.981,1.472-.284-.751-.566-1.5-.844-2.23a41.252,41.252,0,0,0,.625-6.484,5.347,5.347,0,0,0,1.182,2.024,73.76,73.76,0,0,0,1.779-18.589,145.834,145.834,0,0,0,3.082-17.442,31.745,31.745,0,0,0-3.291,9.676c-.383-8.847-.947-17.594.332-26.539,2.211,1.478,3.848,3.62,6.65,4.531,1.368-.117,1.685-3.068,2.567-1.4,4.06,6.119.7,10.676,8.32,13.277,2.1.556,9.278-6.886,10.821-4.541a46.414,46.414,0,0,1,1.8,9.625,29.4,29.4,0,0,0-.452,3.564c-.15.149.272.422.744.766.189,4.336-.06,8.517-.716,10.782-.244.845-.484,1.677-.723,2.508a4.667,4.667,0,0,1-1.749.954,6.118,6.118,0,0,1,1.034,1.718c-.646,2.251-1.194,4.472-1.73,6.675-.839,1.152-1.766,2.272-2.5,3.4a3.3,3.3,0,0,1,1.577.265c-.671,2.758-1.337,5.488-2,8.211a8.793,8.793,0,0,1-3.4,2.438c3.485,3.9-.764,10.176-1.729,15l.152.041c-.757,2.361-1.69,4.711-2.643,7.076a8.805,8.805,0,0,1-1.768.614c.466.839.257,1.472.47,1.892a24.768,24.768,0,0,1-4.263,4.148c.221.425,1.252,1.513,1.008,2.141a20.466,20.466,0,0,0-1.622,3.555c-.735,1.294-1.59,2.558-2.469,3.824a61.125,61.125,0,0,1-4.785,6.086,66.668,66.668,0,0,1-5.352,5.521,9.031,9.031,0,0,1-1.72-.848c.309,1.118-.829,1.641-.831,2.47a1.47,1.47,0,0,0-.6-.646c-.376,2.48-1.992,1.875-3.613,3.154-.242.381.054,1.131-.053,1.614-.183.138-.355.284-.552.416-3.85-.095-4.39,2.267-6.108,4.128-2.3,1.329-4.463,2.706-6.814,3.852C802.1,609.535,800.192,608.625,798.387,608.6Z" transform="translate(-779.023 -429.982)"/><path class="c" d="M836.214,541.122c-1.253,2.083-2.693,4.1-4.052,6.089C832.974,544.841,832.713,542.467,836.214,541.122Z" transform="translate(-769.886 -417.293)"/><path class="c" d="M845.738,488.757a8.773,8.773,0,0,0,2.715-3.054c-.065,5.772-.083,11.578-.419,17.565l-.157,0C847.453,498.478,850.037,491.608,845.738,488.757Z" transform="translate(-767.552 -426.822)"/><path class="c" d="M838.026,536.085a3.118,3.118,0,0,1,.372.432l-.01.02A1.194,1.194,0,0,1,838.026,536.085Z" transform="translate(-768.878 -418.159)"/><path class="c" d="M823.182,480.248l.016-.509q.568,1.9.979,3.826A8.849,8.849,0,0,1,823.182,480.248Z" transform="translate(-771.43 -427.848)"/><path class="c" d="M823.935,470.9l-1.5-7.8a30.16,30.16,0,0,1,1.928-10.2C824.481,458.85,824.22,464.859,823.935,470.9Z" transform="translate(-771.558 -432.463)"/><path class="c" d="M846.827,479.4c.489-1.2,1.185-2.447,1.747-3.672q-.074,1.811-.148,3.6A3.474,3.474,0,0,0,846.827,479.4Z" transform="translate(-767.364 -428.538)"/><path class="c" d="M824.832,489.474l-.047-.792,1.353,2.018C825.809,490.456,825.322,489.875,824.832,489.474Z" transform="translate(-771.154 -426.31)"/><path class="c" d="M849.131,467.926q-.127,1.324-.25,2.626a6.089,6.089,0,0,0-1.316-1.427A4.748,4.748,0,0,0,849.131,467.926Z" transform="translate(-767.237 -429.879)"/><path class="c" d="M847.63,457.1a24.753,24.753,0,0,1-.04-3.389c.327,1.3.624,2.656.88,4C847.956,457.462,847.5,457.265,847.63,457.1Z" transform="translate(-767.24 -432.322)"/></g><path class="b" d="M716.654,415.5c1.375,2.581,4.955,3.306,7.355,3.1,4.83-.421,9.869-5.062,8.9-9.29-.832-3.641-5.92-6.1-10.063-5.032C717.866,405.557,714.691,411.816,716.654,415.5Z" transform="translate(27.33)"/><path class="b" d="M658.977,421.234c6.459,1.877,12.135.128,23.226-3.45,27.1-8.739,29.827-9.882,32.129-8.163,2.543,1.9,4.546,7.286-.775,24.387A71.184,71.184,0,0,1,677.17,446.4,220.348,220.348,0,0,1,658.2,428.2c-2.793-3.033-5.862-6.561-5.032-7.742C653.877,419.455,657.034,420.67,658.977,421.234Z" transform="translate(16.492 0.846)"/><path class="e" d="M703.043,434.757c-.115,1.248.72,1.533,1.549,3.678,1.869,4.839-.573,8.066.967,9.87.9,1.059,3.209,1.662,9.485-.58-1.968-2.143-2.76-4.984-2.874-8.587-.164-5.181,2.46-8.276,1.326-9.606C711.985,427.76,703.4,430.881,703.043,434.757Z" transform="translate(25.089 4.299)"/><path class="f" d="M666.884,409.9a53.966,53.966,0,0,0,12.377.56c6.684-.469,13.218-2.177,19.868-2.994s13.684-.673,19.666,2.344" transform="translate(18.873 0.518)"/><path class="a" d="M702.45,413.946A40.583,40.583,0,0,0,700.9,418.2c-1.406,3.938-1.685,4.336-2.128,5.032-1.084,1.7-2.706,2.1-2.516,2.9.164.7,1.342.7,1.644,1.645a2.351,2.351,0,0,1-.387,1.742,10.545,10.545,0,0,0-.775,5.614c.074.5.593,3.45,3.243,4.112,2.9.727,7.013-.986,8.693-1.572a19.289,19.289,0,0,0,10.612-8.444c.907-1.6,3.648-6.427,1.743-10.839C717.974,411.324,705.162,410.4,702.45,413.946Z" transform="translate(23.921 1.36)"/><path class="g" d="M625.871,457.172s-13.354,32.806-14.225,50.225c0,0-1.161,5.175,2.032,4.329s63.241-8.684,63.241-8.684,11.405-1.014,7.016-8.419S652,465.88,649.677,461.236,625.871,457.172,625.871,457.172Z" transform="translate(9.34 9.135)"/><path class="h" d="M591.388,462.789s-1.8,3.4-4.554,4.654c-1.633.742-1.473,1.16-1.727,1.37-.847.7-.415-1.359.906-2.227,1.075-.7,1.168-2.9,1.757-3.53s2.489-2,3.1-1.875S591.388,462.789,591.388,462.789Z" transform="translate(4.737 9.827)"/><path class="h" d="M598.581,459.84c-3.721.08-4.47,3.2-7.415,4.329s-7.428,2.521-8.863,3.4c-1.69,1.037-2.358.438-.469-.962a30.91,30.91,0,0,1,4.431-2.713c.3-.1-1.6.72-3.612,1.764-2.143,1.11-4.431,2.442-4.658,2.068-.439-.724,5.62-4.329,6.74-4.777a30,30,0,0,0-2.942,1.222c-1.306.628-2.743,1.556-3.133,1.358-.614-.313,2.476-2.647,5.234-3.85.023-.107-.945.007-4.123,1.655-.32.166-1.225.26-.258-.565,2.035-1.737,2.781-2.635,6.14-3.689,3.276-1.03,7.782-2.25,10-1.7Z" transform="translate(3.585 9.152)"/><path class="h" d="M590.807,458.27s24.723-6.59,35.806-6.511,20.821.95,24.541.238,3.167,9.658,3.167,9.658-7.282-.713-9.024-.08-21.85-.711-26.916-.633-22.635-.111-22.635-.111Z" transform="translate(5.792 8.208)"/><path class="g" d="M715.352,517.215s-1.451,27.581-2.9,35.129,20.032-3.193,20.032-3.193l12.761-11.033-9.568-21.573Z" transform="translate(26.696 19.348)"/><path class="i" d="M662.437,482.188c-.291.871-5.323,31.741-5.323,31.741l23.612-5.612.291-24.678Z" transform="translate(17.193 13.44)"/><path class="j" d="M632.342,455.021c-.02,1.473,3.406,1.31,5.419,5.032,2.043,3.777.258,7.169-1.548,17.419-1.274,7.23-1.889,10.883-.775,12.774,2.514,4.265,9.361,4.628,19.355,5.032,14.568.589,21.426-1.947,23.612,1.548,1.953,3.118-1.382,8.535-2.322,10.065-5.33,8.658-14.381,9-14.71,13.548-.256,3.546,5.006,6.624,6.968,7.742,10.8,6.159,19.229,3.224,37.16,3.484,0,0,25.6.37,42.967,11.613,2.55,1.65,5.312,3.894,5.032,6.194s-3.477,3.372-7.742,5.419c-6.66,3.2-16.535,7.94-17.032,13.161-.362,3.816,4.287,7.854,8.129,9.678,9.651,4.579,17.914-3.059,28.258,1.935a20.044,20.044,0,0,1,5.419,3.871c.039-3.893.2-9.673.775-16.645,1.872-22.546,5.591-26.692,6.194-37.935.462-8.63-6.531-24.077-20.516-54.967-7.529-16.63-10.824-22.46-17.807-26.323-8.876-4.909-17.763-3.348-27.87-1.935C666.236,452.03,632.4,450.39,632.342,455.021Z" transform="translate(12.934 6.93)"/><path class="k" d="M705.764,457.168,672.5,496.931l-2.326,6.754s4.239-2.97,10.335-11.969,17.2-21.193,20.211-24.967A38.5,38.5,0,0,0,705.764,457.168Z" transform="translate(19.439 9.138)"/><path class="k" d="M731.469,460.636s-1.476,25.258-4.669,36-1.451,26.128,2.9,33.1,7.838,16.936,7.838,16.936-.824-14.033-6.073-25.646-.894-18,1.138-30.193S731.469,460.636,731.469,460.636Z" transform="translate(28.894 9.734)"/><path class="g" d="M746.857,572.26c-.308.062-.616.124-.925.17-.155.03-.308.062-.478.093-.37.077-.74.138-1.11.2-.154.031-.293.046-.446.077-.308.046-.616.108-.941.154-.185.031-.369.062-.57.093-.185.03-.386.062-.586.093-16.047,2.42-38.045,2.991-38.769,3.715l10.96-32.9s11.484,8.9,18.067,10.453c2.142.492,5.534,1.032,9.187,1.834.879.185,1.773.4,2.667.632,6.859,1.7,13.766,4.439,14.459,9.527C758.726,568.993,753.856,570.874,746.857,572.26Z" transform="translate(25.089 24.061)"/><path class="j" d="M769.921,686.247a166.89,166.89,0,0,1-75.873,15.1,162.02,162.02,0,0,1-38.9-6.387A177.077,177.077,0,0,1,587.6,657.216s-45.767-53.458-25.127-84.168a30.9,30.9,0,0,1,1.907-2.538c4.8-5.764,16.846-9.605,30.189-15.486,25.884-11.4,32.076-9.564,56.128-19.739,29.254-12.372,29.337-19,47.224-21.291,17.422-2.227,40.878,1.04,45.3,12.774.728,1.935.721,3.531-.389,10.453-2.572,16.047-3.856,24.072-8.517,38.318-6.553,20.036-10.167,23.746-7.74,30.973,2.025,6.033,5.368,5.853,12,13.544,10.3,11.943,9.168,20.418,18.968,42.584A201.273,201.273,0,0,0,769.921,686.247Z" transform="translate(0 18.797)"/><path class="g" d="M674.31,665.127c-.34,4.224-5.286,8.045-8.517,9.674-7.845,3.967-15.085-.152-16.645,2.324-1.165,1.852,2.136,5.326,6,9.1A177.074,177.074,0,0,1,587.6,648.481s-45.767-53.458-25.127-84.168c8.405-.756,16.506,1.082,19.322,1.721a55.443,55.443,0,0,1,17.692,7.1,38.4,38.4,0,0,1,11.728,11.478c2.275,3.523,5.118,7.934,3.482,10.839-3.662,6.513-25.259-2.684-32.492,3.017a5.58,5.58,0,0,0-1.179,1.242,5.783,5.783,0,0,0-.791,1.643l-.007.007c-1.234,3.974,1.228,9.2,1.956,10.736,6.332,13.42,21.43,14.433,50.323,25.932,8.538,3.4,19.474,7.754,28.019,12.553C668.705,655.167,674.7,660.168,674.31,665.127Z" transform="translate(0 27.531)"/><path class="i" d="M611.013,594.132c-3.662,6.513-25.259-2.684-32.492,3.017L595.8,571.815a38.393,38.393,0,0,1,11.728,11.478C609.806,586.816,612.649,591.227,611.013,594.132Z" transform="translate(3.679 28.851)"/><path class="i" d="M660.808,652.443c-.34,4.224-5.286,8.045-8.517,9.674-7.845,3.967-15.085-.152-16.645,2.324L647.02,637.9C655.2,642.484,661.2,647.484,660.808,652.443Z" transform="translate(13.502 40.214)"/><g transform="translate(569.197 663.432)"><path class="a" d="M625.02,625.372S597.29,687.345,592.4,686.927c-8.792-.7-42.2-5.406-9.965,8.6,15.467,9.288,16.155,5.108,17.98,2.216,1.492-2.364,13.076-20.167,17.265-26.6.939-1.442,26.469-38.049,26.469-38.049Z" transform="translate(-567.207 -625.372)"/><path class="b" d="M611.483,675.858c.919-1.309-12.208-3.853-12.512-6.522,0,0-3.147,8.8-4.874,9.349s-23.809-5.727-26.5.4,27.366,15.875,29.412,16.765S609.677,678.43,611.483,675.858Z" transform="translate(-567.426 -617.813)"/></g><path class="h" d="M736.834,558.912s2.779,2.67,3.225,5.656a2.964,2.964,0,0,0,.844,2.038c.437,1.006-1.422.026-1.893-1.483-.383-1.226-2.472-1.92-2.912-2.658s-1.245-2.944-.954-3.492S736.834,558.912,736.834,558.912Z" transform="translate(30.6 26.599)"/><path class="h" d="M737.677,571.215a1.633,1.633,0,0,1-.117-.253c-.387-1.042-.941-2.909-1.228-4.085.118.74.3,1.867.539,3.027.1.47.2.941.286,1.412.419,1.883.772,3.547.436,3.632-.42.117-1.076-1.565-1.648-3.414a34.6,34.6,0,0,1-1.109-4.371s.084,1.48.369,3.161c.084.421.169.874.253,1.295.218.992.4,1.883.2,2.1-.253.269-.757-.6-1.228-1.934a20.715,20.715,0,0,1-1.042-4.17c-.1-.05-.252.874.419,4.271.018.052.018.1.034.152.084.353-.084,1.243-.6.1-.018-.05-.05-.1-.068-.151-1.076-2.338-1.7-3.329-1.8-6.776-.084-3.43-.034-9.667,1.11-11.635l.084-.016c.959.2,1.934.437,2.909.689-.084,2.2,1.277,3.632,1.95,5.532h.018a6.2,6.2,0,0,1,.335,1.529c.084.925.151,1.968.2,3.027a46.5,46.5,0,0,0,.639,6.44c.016.083.05.168.067.252C739.073,572.644,738.4,573.014,737.677,571.215Z" transform="translate(29.957 25.713)"/><path class="b" d="M702.678,411.783c2.861-3.985,10.545-6.374,15.87-1.161,7.066,6.914,2.735,18.671,2.323,19.741-1.31,3.4-6.221,6.921-7.113,6.6s1.8-4.534,3.048-8.15c1.276-3.7,3.011-4.983,2.323-6.194-.779-1.369-4.069-1.6-5.807-.193-1.239,1-.825,2.138-1.741,2.71-2.145,1.338-8.437-2.374-10.838-8.129C700.2,415.716,700.726,414.5,702.678,411.783Z" transform="translate(24.661 0.62)"/></g></svg>