<svg xmlns="http://www.w3.org/2000/svg" width="1366" height="707.44" viewBox="0 0 1366 707.44"><defs><style>.a{fill:#70b8b8;}.b{fill:#9cd6d6;}.c{fill:#fff;}.d,.l{fill:#f6da9b;}.d{fill-rule:evenodd;}.e{fill:#444343;}.f{fill:#fe674c;}.g{fill:#ebdddb;}.h{fill:#e5d7d1;opacity:0.31;mix-blend-mode:overlay;isolation:isolate;}.ab,.ac,.am,.i,.r{fill:none;}.j{opacity:0.13;}.k{fill:#d6bf87;}.m{fill:#f7cf43;}.n{fill:#164b55;}.o{fill:#438591;}.p{opacity:0.15;}.q{fill:#f8d24b;}.r{stroke:#f8d24b;stroke-linecap:round;stroke-linejoin:round;}.s{fill:#274e55;}.t,.u{opacity:0.3;}.v{fill:#d63e23;}.w{fill:#b54d06;}.x{fill:#e1c9af;}.y{fill:#1a1611;}.z{fill:#c3d6db;}.aa{fill:#77aab6;}.ab,.ac{stroke:#4e91f2;}.ab,.ac,.am{stroke-miterlimit:10;}.ab{stroke-width:0.868px;}.ac{stroke-width:0.94px;}.ad{fill:#c29179;}.ae{fill:#624f24;}.af,.ah{fill:#231e1b;}.ag{fill:#d5a209;}.ah{opacity:0.42;}.ai{fill:#3a332d;}.aj{fill:#ca3117;}.ak{fill:#dba28e;}.al{fill:#372c28;}.am{stroke:#372c28;stroke-width:0.607px;}</style></defs><g transform="translate(0 2701.45)"><path class="a" d="M1366-2699.83v705.55l-242.23-67.59-1.24-.24-31.75-6.02.07-22.59,1.56-535.5,30.12-25.56,1.78-.74C1228.2-2668.01,1310.31-2686.14,1366-2699.83Z"/><path class="a" d="M316.29-2636.81,300.61-2093.4l-.37,12.96-26.87,6.66L.2-2006.04v-695.41a2644.97,2644.97,0,0,0,273.17,52.72q18.765,2.625,38.35,5.11Z"/><path class="b" d="M1122.53-2652.25v596.43H273.37v-592.91q18.765,2.625,38.35,5.11a2967.3,2967.3,0,0,0,303.27,22.49A2991.759,2991.759,0,0,0,1122.53-2652.25Z"/><path class="c" d="M1366-2038.62v44.34H379.55a2.448,2.448,0,0,1-.02.27,2.436,2.436,0,0,0-.01-.27H.17L0-2036.95c.07-.02.13-.03.2-.05a2638.3,2638.3,0,0,1,265.16-51.59c1.97-.28,3.96-.56,5.95-.84.68-.1,1.37-.19,2.06-.29q3.555-.5,7.14-.99c1.4-.19,2.8-.39,4.21-.57q6.21-.855,12.5-1.68c1.13-.15,2.26-.3,3.39-.44,1.78-.24,3.58-.47,5.38-.7l1.13-.15,1-.12c.34-.05.68-.09,1.02-.13a.248.248,0,0,1,.09-.01h.01q19.485-2.49,39.76-4.79,21.15-2.4,43.13-4.56,4.86-.48,9.76-.94,20.475-1.95,41.65-3.66c53.93-4.34,111.17-7.46,171.45-8.86a3022.141,3022.141,0,0,1,304.88,8.27q16.155,1.26,31.9,2.66c1.43.12,2.86.25,4.28.39q9.375.825,18.58,1.73c1.39.13,2.77.26,4.15.4q9.585.93,19,1.92,48.8,5.1,93.07,11.23,16.155,2.22,31.68,4.52C1227.26-2070.65,1309.99-2052.38,1366-2038.62Z"/><path class="d" d="M282.335-2085.216s5.056,5.223,5.694,10.882c.38,3.364,1.225,3.32,1.452,3.9.756,1.925-2.681-.049-3.466-2.926-.638-2.337-4.53-3.787-5.31-5.209s-2.145-5.635-1.56-6.648S282.335-2085.216,282.335-2085.216Z"/><path class="e" d="M292.43-2086.468l.294-.294,1.417,1.323,0,0,.2.194.217.2,0,0,1.307,1.246-.276.311s-4.125,5.8-6.956,8.259-27.19,26.7-27.19,26.7a.776.776,0,0,1-.984.041,2.231,2.231,0,0,1-.479-.322,2.2,2.2,0,0,1-.35-.46.776.776,0,0,1-.017-.984s22.786-25.734,25.071-28.7S292.43-2086.468,292.43-2086.468Z"/><path class="f" d="M302.354-2100.329c-.395.566-.842,1.33-.842,1.33l6.482,5.485s1.975-1.729,2.406-1.983a51.151,51.151,0,0,0,3.842-3.547c.231-.293.491-.266.074-.878-.078-.116-.181-.255-.311-.422a.93.93,0,0,0-.063-.077,11.173,11.173,0,0,0-1.635-1.661l-1.1,1.166.972-1.321s-.856-.787-1.008-.951-.807.156-1.179.55-1.3,1.812-1.428,1.878a21.228,21.228,0,0,1,1.408-2.148c.231-.3.675-.774.675-.774s-.293-.273-.657-.616l0,0c-.117-.111-.244-.227-.369-.349-.488-.456-.979-.919-1.06-1a3.582,3.582,0,0,0-.768-.442s-1.492,1.405-1.973,1.889S302.749-2100.9,302.354-2100.329Z"/><path class="g" d="M305.4-2097.259c.009,0,.015,0,.019,0s.049.049.094.095.083.072.1.088,0,.01,0,.019c.7.735,2.9,3.109,2.9,3.109s-1.826,1.481-2.088,1.681-6.23,4.887-6.8,5.335a14.067,14.067,0,0,1-1.974,1.342c-.454.2-.131.08-.516.7a1.972,1.972,0,0,1-1.109.722,1.452,1.452,0,0,1-.356.634,15.146,15.146,0,0,1-1.93-1.113l-.041-.04a15.21,15.21,0,0,1-1.224-1.861,1.457,1.457,0,0,1,.611-.392,1.982,1.982,0,0,1,.657-1.15c.6-.42.495-.091.674-.556a13.958,13.958,0,0,1,1.224-2.048c.414-.6,4.745-6.828,4.929-7.1s1.555-2.182,1.555-2.182S304.626-2097.916,305.4-2097.259Z"/><path class="h" d="M310.828-2098.03s2.1-1.129,3.488-1.892c-.078-.116-.181-.255-.311-.422a.93.93,0,0,0-.063-.077Z"/><path class="i" d="M305.818-2104.205c.481-.484,1.973-1.889,1.973-1.889a3.582,3.582,0,0,1,.768.442c.081.084.572.547,1.06,1,.125.122.252.238.369.349l0,0c.364.343.657.616.657.616s-.444.47-.675.774a21.228,21.228,0,0,0-1.408,2.148c.132-.066,1.057-1.485,1.428-1.878s1.029-.712,1.179-.55,1.008.951,1.008.951l-.972,1.321,1.1-1.166a11.173,11.173,0,0,1,1.635,1.661.93.93,0,0,1,.063.077c.13.167.233.306.311.422.417.612.157.585-.074.878a51.151,51.151,0,0,1-3.842,3.547c-.29.171-1.279,1.009-1.895,1.54l.011.011-.378.307-.144.125,0-.005c-.561.454-1.39,1.124-1.561,1.254-.263.2-6.23,4.887-6.8,5.335a14.067,14.067,0,0,1-1.974,1.342c-.454.2-.131.08-.516.7a1.972,1.972,0,0,1-1.109.722,1.452,1.452,0,0,1-.356.634.067.067,0,0,1-.039,0l-.04.045s-4.125,5.8-6.956,8.259-27.19,26.7-27.19,26.7a.776.776,0,0,1-.984.041,2.231,2.231,0,0,1-.479-.322,2.2,2.2,0,0,1-.35-.46.776.776,0,0,1-.017-.984s22.786-25.734,25.071-28.7,7.742-7.517,7.742-7.517l.05-.05a.051.051,0,0,1,0-.023.764.764,0,0,1,.221-.2l.026-.026.006.006c.159-.1.336-.2.358-.177a1.982,1.982,0,0,1,.657-1.15c.6-.42.495-.091.674-.556a13.958,13.958,0,0,1,1.224-2.048c.414-.6,4.745-6.828,4.929-7.1.148-.22,1.067-1.5,1.418-1.991.117-.184.243-.376.364-.549C302.749-2100.9,305.335-2103.722,305.818-2104.205Z"/><g class="j"><path d="M310.972-2103.181l-1.02,1.082.71-.966A1.337,1.337,0,0,1,310.972-2103.181Z"/><path d="M309.962-2104.325l.065.061,0,0c.364.343.656.616.656.616l0,0C310.448-2103.862,310.106-2104.18,309.962-2104.325Z"/><path d="M308.737-2103.822c-.371.394-1.3,1.812-1.428,1.879a21.133,21.133,0,0,1,1.408-2.149c.223-.294.646-.744.672-.772l.268.251c.08.078.159.152.238.226C309.714-2104.507,309.094-2104.2,308.737-2103.822Z"/><path d="M308.528-2105.677a.626.626,0,0,1,.069.061c.018.019.058.058.113.11Z"/><path d="M260.192-2049.705s24.358-24.25,27.19-26.7,6.956-8.259,6.956-8.259l.04-.044a.06.06,0,0,0,.039,0,1.455,1.455,0,0,0,.356-.633,1.975,1.975,0,0,0,1.109-.723c.385-.624.062-.5.516-.705a14.067,14.067,0,0,0,1.974-1.342c.571-.448,6.538-5.136,6.8-5.335.171-.13,1-.8,1.561-1.254l.005,0,.144-.125.378-.307-.011-.011c.616-.53,1.605-1.369,1.895-1.54a51.153,51.153,0,0,0,3.842-3.547c.231-.292.491-.266.074-.878-.078-.116-.181-.254-.311-.422-.02-.026-.041-.053-.063-.077-.119-.15-.239-.291-.357-.424l.015-.017a11.139,11.139,0,0,1,1.636,1.661c.022.024.042.05.063.077.13.168.232.306.311.422.417.612.156.585-.075.878a50.958,50.958,0,0,1-3.842,3.547c-.29.171-1.279,1.01-1.894,1.54l.01.011-.378.307-.143.125-.006,0c-.56.454-1.39,1.124-1.561,1.254-.262.2-6.23,4.887-6.8,5.335a14,14,0,0,1-1.973,1.342c-.454.205-.132.081-.516.705a1.979,1.979,0,0,1-1.11.723,1.462,1.462,0,0,1-.355.633.059.059,0,0,1-.04,0l-.04.045s-4.125,5.8-6.956,8.259-27.19,26.7-27.19,26.7a.776.776,0,0,1-.984.04,2.249,2.249,0,0,1-.479-.322,2.261,2.261,0,0,1-.349-.459,1.229,1.229,0,0,1-.141-.316A.692.692,0,0,0,260.192-2049.705Z"/><path d="M311.151-2103.185a.125.125,0,0,1,.058.033c.026.028.073.074.131.131C311.263-2103.09,311.2-2103.144,311.151-2103.185Z"/><path d="M311.837-2102.553l.38.352-.019.026C312.073-2102.312,311.951-2102.439,311.837-2102.553Z"/></g><path class="d" d="M276.1-2100.509c.3,1.048,6.395,12.228,6.7,18.168s.191,14.8.935,17.887c.875,3.635-.59,4.484-2,.28a58.441,58.441,0,0,1-2.284-9.533c0-.593.361,3.283,1.058,7.509.742,4.492,1.8,9.375,1,9.564-1.556.366-4.492-12.606-4.644-14.877a56.678,56.678,0,0,0,.479,5.989c.367,2.709,1.194,5.831.611,6.414-.918.918-3.307-5.987-3.857-11.635-.178-.1-.536,1.7.567,8.362.111.67-.248,2.349-1.165.133-1.93-4.663-3.1-6.527-3.04-13.168.062-6.478,1.684-13.564.314-18.28Z"/><path class="d" d="M553.9-2323.678c.171-1.077-.573-13.787,1.682-19.29s6.134-13.467,6.778-16.579c.758-3.662,2.445-3.806,1.929.6a58.345,58.345,0,0,1-2,9.6c-.253.536,1.073-3.124,2.243-7.244,1.243-4.379,2.367-9.248,3.173-9.076,1.564.331-1.309,13.318-2.139,15.437a57.118,57.118,0,0,0,2.12-5.622c.822-2.608,1.4-5.784,2.18-6.063,1.222-.439.44,6.825-1.47,12.169.116.171,1.209-1.307,3.051-7.806.185-.653,1.226-2.019,1.111.376-.242,5.041.026,7.227-2.862,13.209-2.817,5.833-7.305,11.551-8.075,16.4Z"/><path class="d" d="M554.781-2340.168s-2.348-6.88-.513-12.272c1.09-3.205.307-3.525.348-4.147.138-2.064,2.4,1.187,1.89,4.124-.419,2.386,2.483,5.356,2.582,6.975s-.461,6.012-1.422,6.679S554.781-2340.168,554.781-2340.168Z"/><path class="k" d="M393.319-2341.268s-1.026,11.452,6.038,17.785-16.279,0-16.279,0,4.344-10.968,3.369-17.785S393.319-2341.268,393.319-2341.268Z"/><ellipse class="l" cx="12.35" cy="16.85" rx="12.35" ry="16.85" transform="translate(377.244 -2370.527)"/><path class="m" d="M269.846-2095.678s-8.212,11.463-6.266,13.52,8.068-1.084,9.876,0,6.446,3.229,7.543,1.911,2.871-7.039,6.612-5.638-6.5-7.82-4.314-9.793c28.71-25.846,44.4-58.283,53.155-88.2h.007v.007c3.119,8.171,9.42,16.736,14.852,21.159.352.3.711.566,1.056.822,14.472,6.9,84.873,1.753,94.2-2,4.2-1.7,9.31-13.975,13.692-27.647,5.349-16.667,9.628-35.4,9.883-39.538.435-6.95-7.95-87.765-56.15-97.2a50.1,50.1,0,0,0-13.037-.787s-.455.269-1.249.635a24.332,24.332,0,0,1-5.128,1.739c-3.961.863-9.109.849-13.457-2.905-8.413-7.268-78.483,5.548-105.267,61.581C236.133-2184.934,269.846-2095.678,269.846-2095.678Z"/><path class="m" d="M400.255-2318.78c4.811,27.171,27.406,100.491,27.406,100.491a121.964,121.964,0,0,0,32.285,26.578c.1.062.207.117.31.172a133.723,133.723,0,0,0,15.715,7.6c27.819,11.27,51.836,10.462,51.836,10.462,98.89-35.68,37.019-148.808,37.019-148.808.49-3.906,10.235-6.818,11.208-11.111s-7.8.393-9.255-1.3,1.457-8.537-3.9-6.024-4.382,2.843-12.664,0,0,15.024,0,15.024c-24.541,31.981-29.069,65.135-29.731,72.775.007-.159.007-.324.014-.511-.29-.738-.58-1.476-.87-2.2-.393-.966-.794-1.926-1.2-2.864a.021.021,0,0,1-.007-.014c0-.007-.007-.014-.007-.028-7.633-17.709-17.674-31.014-28.689-41-28.889-26.177-61.823-31.946-78.807-31.36-5.873.2-9.841,1.16-11.077,2.291a.613.613,0,0,0-.138.18C399.068-2327.393,399.344-2323.908,400.255-2318.78Z"/><path class="n" d="M446.56-2165.44v.09c0,.05-.01.12-.01.21,0,.04-.01.09-.01.14q-.015.39-.06,1.14c0,.11-.01.22-.02.34v.02c0,.11-.01.23-.02.36s-.01.26-.02.41-.01.3-.02.45-.02.32-.02.49q-.03.555-.06,1.2-.03.51-.06,1.08c-.01.17-.02.34-.02.52-.01.25-.03.51-.04.77-.01.08-.01.16-.02.25q-.015.375-.03.78a.661.661,0,0,0-.01.14c-.03.52-.05,1.07-.09,1.64q-.03.57-.06,1.17c-.02.4-.04.81-.06,1.22-.03.5-.05,1.02-.08,1.54-.05,1.05-.11,2.14-.17,3.28-.03.57-.06,1.15-.09,1.75s-.06,1.19-.09,1.8c-.03.51-.06,1.03-.08,1.56-.01.18-.02.36-.03.55-.04.69-.08,1.39-.11,2.1-.07,1.28-.14,2.6-.21,3.95q-.045.855-.09,1.74c-.1,1.75-.19,3.56-.29,5.4-.35,6.56-.74,13.63-1.15,20.89-1.01,18.14-2.15,37.43-3.21,52.64-1.02,14.76-1.94,25.68-2.59,28a29.445,29.445,0,0,1-4.44,9.15l-2.2,24.39H402.31c.01-.29.01-.57.02-.86v-.24c0-.07.01-.14.01-.21v-.09c0-.1.01-.21.01-.32.01-.71.02-1.42.03-2.14.12-6.94.22-14.14.28-21.44.01-1.64.03-3.28.04-4.93.08-10.16.1-20.44.06-30.43v-.88c-.08-18.23-.35-35.42-.87-48.98-.6-16.01-1.54-26.98-2.86-28.68-1.51-1.94-4.04,10.32-6.9,29.62-1.98,13.41-4.12,30.23-6.18,48.04-.83,7.19-1.65,14.54-2.44,21.89-.73,6.82-1.43,13.63-2.1,20.33-.09.84-.17,1.67-.25,2.5-.15,1.52-.3,3.02-.44,4.52-.41,4.18-.8,8.29-1.17,12.3a2.448,2.448,0,0,1-.02.27,2.436,2.436,0,0,0-.01-.27H351.83c.02-9.2.03-18.99.04-29.04-2.38-4.96-2.17-13.05-2.59-13.8-.13-.23-.21-7.61-.25-18.7-.04-11.69-.05-27.52-.03-43.48.03-32.41.13-65.36.13-65.36.05.05.1.09.15.14a6.6,6.6,0,0,0,1.81,1.19,9.117,9.117,0,0,0,2.36.66c2.28.04,6.26.12,11.34.19h.01c6.79.09,15.53.19,24.76.2h.06c14.06.01,29.25-.14,40.43-.73.77-.04,1.19-.07,1.19-.07l.46-.03a93.035,93.035,0,0,0,12.17-1.3q.27-.06.51-.12a1.6,1.6,0,0,0,.21-.05c.13-.03.25-.07.37-.1a6.939,6.939,0,0,0,.77-.26q.18-.075.33-.15A1.737,1.737,0,0,0,446.56-2165.44Z"/><path class="n" d="M361.884-2165.376c7.267,12.651,65.956,9.759,72.416,0,0,0,24.038-57.336,19.193-73.983,0,0-13.775,2.381-29.366,6.322-17.384,4.389-37.019,10.725-42.291,17.861-5.991,8.109-14.576,19.835-18.931,30.656,0,.007,0,.007-.007.014-.407,1.021-.78,2.036-1.111,3.036s-.607,1.967-.849,2.933v.021C359.723-2173.561,359.792-2169.02,361.884-2165.376Z"/><path class="n" d="M424.127-2329.935s30.858,23.292,29.366,90.578l-9.13,2.941s3.7-67.307-26.691-94.383C417.672-2330.8,420.643-2332.727,424.127-2329.935Z"/><path class="o" d="M362.9-2184.506c-.131.642-.262,1.256-.386,1.836,7.515-10.573,38.654-8.172,38.654-8.172.828-25.445,22.961-42.2,22.961-42.2-17.384,4.389-37.019,10.725-42.291,17.861-5.991,8.109-14.576,19.835-18.931,30.656C362.9-2184.513,362.9-2184.513,362.9-2184.506Z"/><path class="o" d="M362.512-2182.67a8.114,8.114,0,0,0-.725,1.2,8.416,8.416,0,0,0-.849,2.933v.021C360.455-2173.857,361.2-2176.59,362.512-2182.67Z"/><path class="p" d="M336.459-2183.878v.007c3.119,8.171,9.42,16.736,14.852,21.159-9.578-25.909-3.285-49.048-2.844-64.638-2.2,15.031-11.663,42.478-12,43.444A.11.11,0,0,0,336.459-2183.878Z"/><path class="p" d="M459.946-2191.711a133.925,133.925,0,0,0,16.025,7.771c6.328-41.85-17.219-77.731-17.868-78.711C468.179-2241.1,462.7-2205.673,459.946-2191.711Z"/><path class="p" d="M500.2-2276.957c6.17,4.223,4.866,6.818,7.144,24s12.663,11.394,13.312,5.548a19.576,19.576,0,0,0-1.028-8.226,19.479,19.479,0,0,0-1.2-2.864.021.021,0,0,1-.007-.014c0-.007-.007-.014-.007-.028-7.633-17.709-17.674-31.014-28.689-41C485.557-2295.978,494.7-2280.719,500.2-2276.957Z"/><path class="c" d="M432.025-2049.051c.272-.189.384-.614-.078-.609a.827.827,0,0,0,.794-.292c-.308,0-.222-.256-.2-.421.22.138.255.326.327.7-.672.335.341,1.061-.4,1.37C432.316-2048.536,431.848-2048.769,432.025-2049.051Z"/><path class="c" d="M430.01-2050.587l.184-.05-.293.582C430.052-2050.172,430.227-2050.568,430.01-2050.587Z"/><path class="q" d="M430.49-2052.474c-.337.057-.536-.237-.844-.227.679,0,.132-.466.214-.722l.519-.114c.381.241.225.874.281,1.406Z"/><path class="c" d="M430.1-2052.947l.332-.174C430.342-2052.979,430.3-2052.654,430.1-2052.947Z"/><path class="c" d="M431.934-2052.614c.05.42-.228-.25-.332.174C431.688-2052.583,431.711-2052.747,431.934-2052.614Z"/><path class="q" d="M430.853-2054.347c-.075.3-.142.6-.224.893l-.235-.362Z"/><path class="q" d="M429.74-2054.365a.223.223,0,0,0,.379.121c-.423-.3.151-.517-.208-.8l-.166.285c-.434-.024.423-.6-.346-.558.529-.4.666.265,1.034-.242a1.8,1.8,0,0,0,.2,1.2c-.162-.109-.134-.157-.268-.313-.012.28-.235.661-.275.986C429.588-2053.851,430.035-2054.1,429.74-2054.365Z"/><path class="q" d="M429.586-2055.764c-.048-.3-.088-.756.49-.863.427.3-.059.376-.3.528.1.087.149.384.45.251C430.1-2055.887,429.81-2055.638,429.586-2055.764Z"/><path class="q" d="M429.431-2056.931l.506-.243-.081.145.371,0c-.091.029-.759.167-.7.463C429.234-2056.711,429.568-2056.779,429.431-2056.931Z"/><path class="q" d="M431.982-2057.127c-.264-.193-.12-.321.014-.566-.034.332.006.8-.2.908l.09-.03a2.883,2.883,0,0,1-.6.555C431.624-2056.61,431.05-2057.181,431.982-2057.127Z"/><path class="q" d="M432.049-2056.708l.288-.254Z"/><path class="q" d="M429.506-2057.86l.193.448-.164-.1Z"/><path class="q" d="M431.093-2057.394c-.093-.367.418.182.389-.167.053-.1.012.514-.232.554C431.15-2057.093,431.527-2057.377,431.093-2057.394Z"/><path class="q" d="M429.45-2058.156l.368-.4Z"/><path class="q" d="M429.145-2059.078l.271-.092c-.254-.347.094-.865-.519-1.085.345.037.692-.2.817.109-.178.063-.167.177-.384.174.076.132.319.086.422.171-.283.256-.03.6-.287.811.052-.1-.012-.114-.049-.18-.452.43.728.426-.059.651C429.593-2058.676,429.041-2058.885,429.145-2059.078Z"/><path class="q" d="M431.026-2059.167l.127.318c.359-.124-.011-.4.322-.473.218.005.344.324.485.2-.857.095-.014.449-.986.339-.087.428.534.1.511.546l-.451.151C431.237-2058.6,430.834-2058.659,431.026-2059.167Z"/><path class="q" d="M430.8-2060.41l-.294-.136.41.054c.019-.732-1.672-1.015-1.48-1.465.495-.588-.36-1.016-.327-1.572.324-.3.228.237.445.244.672-.144-.382-.226.164-.406.489-.086.582.513.9.723-.051.215-.2.226-.477.314.279.027.381.231.661.259-.347.466.4.63.026,1.091.386.1.044-.325.113-.188l.011.233-.063-.02c-.358.347.037.9.3,1.089-.14-.15-.459-.238-.562-.041l.447.123-.6.451C430.878-2060,430.009-2060.291,430.8-2060.41Z"/><path class="q" d="M431.62-2060.016c.266.47-.653-.013-.413.506l0-.564Z"/><path class="c" d="M430.35-2062.248l-.319-.212C430.652-2062.385,429.872-2061.937,430.35-2062.248Z"/><path class="c" d="M430.275-2063.129l-.546.179.3-.254Z"/><path class="q" d="M429.524-2063.862c.263-.207.526-.019.476.2C429.959-2063.851,429.7-2063.923,429.524-2063.862Z"/><path class="q" d="M429.076-2061.405a.338.338,0,0,0,.028.139Z"/><path class="q" d="M429.057-2061.5l.019.091A.3.3,0,0,0,429.057-2061.5Z"/><path class="q" d="M429.751-2051.759a.415.415,0,0,0-.031.187l.035-.185Z"/><path class="q" d="M430.532-2051.547c.355-.335-.848-.348-.6-.886a5.635,5.635,0,0,0-.181.676C430.319-2051.453,430.05-2052,430.532-2051.547Z"/><path class="q" d="M431.093-2056.066c.008-.007.008-.013.017-.02C431.128-2056.12,431.11-2056.1,431.093-2056.066Z"/><path class="c" d="M429.2-2037.014l-.154-.014.164.315Z"/><path class="c" d="M428.929-2037.085l-.241-.529c-.126.98-.272,1.958-.429,2.934l.223-.069C428.761-2034.673,428.7-2037.2,428.929-2037.085Z"/><path class="c" d="M429.184-2037.2c.665-.222-.181-.5.305-.809-.324.206-.673.338-.536.581Z"/><path class="r" d="M430.513-2038.068c-.111-.172.179-.336.093-.436C430.111-2038.495,430.461-2038.212,430.513-2038.068Z"/><path class="q" d="M432.416-2038.319a.125.125,0,0,0,.012-.075.578.578,0,0,1-.1.068Z"/><path class="q" d="M432.329-2038.326l-.22-.017A.187.187,0,0,0,432.329-2038.326Z"/><path class="q" d="M432.428-2038.394a.907.907,0,0,1,.249-.166l.027.073c.066-.09.259-.243.139-.3.021.191-.133.18-.441.157l-.014-.309C431.652-2038.947,432.4-2038.671,432.428-2038.394Z"/><path class="r" d="M432.687-2039.343l-.447.277C432.635-2038.943,432.68-2039.225,432.687-2039.343Z"/><path class="q" d="M432.251-2039.846c-.128.063-.113.371-.288.17-.086.043-.074.1-.078.166C432-2039.707,432.479-2039.471,432.251-2039.846Z"/><path class="q" d="M431.885-2039.51a.19.19,0,0,0-.028.086A.138.138,0,0,0,431.885-2039.51Z"/><path class="r" d="M429.749-2036.454a.177.177,0,0,0-.158-.037Z"/><path class="q" d="M431.853-2040.507l.006-.118a.266.266,0,0,1-.029.093Z"/><path class="q" d="M426.869-2031.438a1.563,1.563,0,0,1,.2-1.331c.518.088.179-.208.732-.163a6.006,6.006,0,0,0,.286-.81c.192-.558.422-1.129.508-.877l-.258.111.564-.077c-.1-.305-.489-.748-.151-.9-.163-.074-.333,2.43-.488,2.313.615.313,1.044-3.252,1.325-3.315l-.328-.077c.4-.4.91-.639,1.182-.991l-.392-.126c.1.288-.179.335-.382.6.126-.477-.113-.591.006-.952.52.065.222.344.562-.095-.205-.156-.81.1-.657-.307-.09-.517.667-.344.753-.781l.169.315c.039-.16.178-.455-.09-.636a.731.731,0,0,1-.833.568c.133-.175-.03-.6.009-.764l-.374.067c-.328-.206.2-.263-.1-.514.226-.193.516.172.676.067-.121-.054-.284-.481-.031-.6.764.162-.271.469.454.794l-.1-.4c.781-.183-.064.624.558.549.814-.229-.706-.675.322-.868.175.2.145.781.426.73-.267-.23.286-.332.409-.61l-.327-.372c.253-.127.247-.009.394.117-.406-.539.17-1.357-.329-2.107.137-.417.341-.033.624-.21-.452-.253-.044-.612-.042-.848-.03-.072.433-.175.617-.1l-.316.579c.247-.015.645.095.577.3-.889-.2.495.874-.522.854l.462.021-.364.74-.06-.027c.151.009-.355.62-.2,1.053.163-.108.037-.825.514-.373.287-.293-.1-.882.139-1.439l.3.132c.481-.574-.045-1.4.082-2.063l-.434.176c-.151-.242-.487-.557-.114-.76-.034.283.214.148.4.105.25-.373.016-.948.2-1.466a.311.311,0,0,1-.155,0l.275-.541c-.063-.263-.311-.36-.589-.527.061-.094.059-.331.307-.235.023.052.045.1.019.137.474-.267-.131-.2.163-.539-.4.259-.556-.1-.957-.073.183-.4.709-.023.894-.069-.217-.5-.557-.568-.633-1.063.246-.025.163.353.441.4-.065-.142-.038-.307.054-.331l.192.307a1.811,1.811,0,0,1-.164-1.587l.125.045-.01-.355-.459.127c.118-.191-.288-.4.079-.5l.033.07.147-.24-.455.247c-.19-.3.74-.726.658-1.223-.621-.1-.207.858-1.007.924-.13-.163-.267-.44-.055-.54.217.018.222.135.227.253.412-.436-.265-1.075.432-1.359l.261.323c.076-.382-.768-.611-.311-.747l-.788.313c.384-.39.3-.882.581-1.249.46-.021,0,.52.094.492l.327-.179c-.283-.556-.288-.154-.578-.825l.308-.015c-.477-.212.407-.85-.41-.593l.2.178-.371,0,.227-.792c-.274.087-.2-.294-.569-.178l.317-.3c-.532-.108-.606.554-1.008.6-.242,0-.216-.136-.185-.2-.378.359.544.493.567.837l-.328.182.461-.025a1.128,1.128,0,0,1-.564.333c.637.321-.106.706.045,1.213.258-.431.444.262.564.188.011.235-.8.823-.23,1.015.222.134.326-.291.433.034a.344.344,0,0,1-.514.226,7.048,7.048,0,0,0-.034,1.543l.3-.122c.255.323-.168.635-.5.8.124.045.033.07.215.021.505.416-.632.52-.522,1.193-.433-.046-.472-.347-.261-.557l-.493.05a3.145,3.145,0,0,1,.387-1.7l-.364.216c-.66-.4.641-.292-.114-.67.173-.282.257.2.463-.01-.144-.2-.851.054-.886-.278-.248,1.246-.2,2.661-.328,3.961-.092.022-.123-.047-.155-.116-.343.216-.071,1.237.078,2.22s.239,1.928-.414,1.948c.184.076.406-.122.366.152a.558.558,0,0,1-.4.008c.652.74-.139,1.623.255,2.495-.215-.035-.347.14-.5.131.477.328-.1.775.161,1.068l-.241-.109-.074.845c-.094.017-.087-.1-.115-.169-.133.173.142.24.356.279l-.576.324c.781,1.193-.752,2.411-.355,3.733-.446.135-.645.273-.735.584l-.108-.172c-.4.275.212.047,0,.3-.292.149-.647-.029-.379-.249-.125-.177-.284-.1-.4,0A4.145,4.145,0,0,0,426.869-2031.438Z"/><path class="f" d="M434.842-2208.486c1.445-1.026,2.652-2.327,3.889-3.384l-1.473,1.266a7.17,7.17,0,0,0,1.707-2.231c-.495-.076-.735.6-1.22.325a24.108,24.108,0,0,0-4.036,5.831C435.208-2206.474,434.364-2208.057,434.842-2208.486Z"/><path class="f" d="M440.449-2215.115c-.184.156-.359.314-.527.473A1.359,1.359,0,0,0,440.449-2215.115Z"/><path class="f" d="M421.016-2199.874a3.452,3.452,0,0,0-.581.6A2.506,2.506,0,0,0,421.016-2199.874Z"/><path class="f" d="M430.593-2208.295a2.29,2.29,0,0,0-.463.156q-.965,1.33-1.845,2.773C428.972-2206.374,430.226-2206.975,430.593-2208.295Z"/><path class="f" d="M430.582-2209.931a6.89,6.89,0,0,0,1.817-2.875A12.528,12.528,0,0,1,430.582-2209.931Z"/><path class="f" d="M411.137-2195.172a.452.452,0,0,0-.25-.053.34.34,0,0,1-.162.038c-.093.53-.156,1.071-.222,1.6.1-.1.328-.131.386-.248C410.968-2194.414,410.562-2194.732,411.137-2195.172Z"/><path class="f" d="M421.22-2200.106l.062.008.224-.185-.008-.046A1.375,1.375,0,0,0,421.22-2200.106Z"/><path class="f" d="M411.363-2195.793a2.608,2.608,0,0,1-.469-.294l-.168.894a.824.824,0,0,1,.161-.032C411.094-2195.344,411.042-2195.7,411.363-2195.793Z"/><path class="f" d="M413.208-2202.4c.11-.152.538-.076.67-.094a6.835,6.835,0,0,1,.261-1.659c.134-.016.248-.163.516-.192a2.591,2.591,0,0,1-.156-.512q-.5.789-.968,1.64c-.315.558-.614,1.148-.9,1.765A5.844,5.844,0,0,0,413.208-2202.4Z"/><path class="f" d="M411.4-2172.677a12.525,12.525,0,0,0-.412-2.467,3.087,3.087,0,0,1,.356-2.463c.621,1.79,1.157,4.163,2.918,4.136.877-.009.835-.545.585-1.25a7.4,7.4,0,0,1-.616-2.259l.372.326c-.186-.16-.372-.326-.17-.477.378.33.715.956,1.31,1.1l.394-.3a5.647,5.647,0,0,1,1.542,1.4,4.121,4.121,0,0,0,1.611,1.2,6.186,6.186,0,0,1-2.9-6.214,23.225,23.225,0,0,1,2.171-7.073,12.922,12.922,0,0,1,6.4-5.044,4.52,4.52,0,0,0,1.027-1.828,11.322,11.322,0,0,1,3.157-2.439c2.187-1.684,3.135-4.328,5.354-6.445.442-.411-.216-2.19-1.622-1.4a8.281,8.281,0,0,0-3.117,2.323c.506.232.644-.435,1.138-.386a6.66,6.66,0,0,1-1.352,2.248c.4-.441.824-.876,1.246-1.309-1.066,1.083-2.024,2.417-3.227,3.535-.4.459.723,1.851-.751,1.827a17.321,17.321,0,0,1,2.946-5.915l-.038-.017c.691-.721,1.246-1.447,1.912-2.16a1.562,1.562,0,0,0-.644.6,14.073,14.073,0,0,1,2.387-3.6,12.99,12.99,0,0,0-4.977,3.944c-1.368,1.625-2.534,3.369-3.942,4.813-.094-1.451,1.836-1.9,1.571-3.345a24.763,24.763,0,0,0-2.94,4.778,2.148,2.148,0,0,1,.418-.219,3.453,3.453,0,0,1-.675,1.66,7.653,7.653,0,0,0-.924,1.483l-.1.293c.028-.1.064-.2.1-.293a26.423,26.423,0,0,1,1.181-2.924,2.469,2.469,0,0,0-.92,1.286,2.648,2.648,0,0,1,.079-1.444l.945-1.631a8.387,8.387,0,0,1-2.137,1.958,21.677,21.677,0,0,1,1.727-3.7c-.474.572-.965,1.135-1.422,1.721-.531,1.141-1.048,2.28-1.551,3.432l.1-.108-.158.238q-.3.669-.606,1.344a3.279,3.279,0,0,1-1.055.945l-.1.2c.213-.054.394-.041.361.238-.028,1.225-1.294,2.038-1.106,3.5a1.928,1.928,0,0,1-.474,1.2c.078.167-.019.208-.16.23l-.191.277a2.12,2.12,0,0,1-.366.712,3.843,3.843,0,0,1,.366-.712c.038-.091.08-.181.127-.269-.159.02-.346.035-.4.172a23.636,23.636,0,0,1,1.845-5.35c-.175.045-.37.136-.483.16l.586-.355a11.79,11.79,0,0,1,1.007-1.578,1.531,1.531,0,0,1-.626.248,21.21,21.21,0,0,1,2.889-4.521,42.046,42.046,0,0,1,2.391-4.493,9.108,9.108,0,0,1-.969,2.772,40.652,40.652,0,0,0,4.624-6.063,7.774,7.774,0,0,1-2.307-.152c-.289-.269.162-.993-.333-.771-2,.665-2.049,2.291-4.233,1.531-.574-.247-.88-3.2-1.644-2.944a13.321,13.321,0,0,0-2.113,1.859,8.461,8.461,0,0,1-.528.887c.007.06-.136.047-.3.041a11.2,11.2,0,0,0-1.747,2.567l-.281.695a1.365,1.365,0,0,0,.227.526,1.757,1.757,0,0,0-.538.205c-.252.624-.522,1.224-.791,1.817-.014.409,0,.827-.035,1.213-.118-.074-.252-.214-.4-.22l-1,2.213a2.525,2.525,0,0,0,.337,1.152c-1.48.265-1.629,2.438-2.266,3.7l-.041-.018c-.247.669-.452,1.365-.655,2.069a2.572,2.572,0,0,0,.291.452c-.254.108-.318.288-.441.345a7.092,7.092,0,0,0,.23,1.693c-.125.057-.551.121-.607.306a5.921,5.921,0,0,1-.262,1.092c-.063.423-.094.86-.119,1.3a17.576,17.576,0,0,0,.006,2.225,19.071,19.071,0,0,0,.233,2.2,2.6,2.6,0,0,0,.539.112c-.267.2-.1.518-.249.706a.428.428,0,0,1,.251-.039c-.355.627.118.777.259,1.353-.013.129-.213.247-.274.375.017.063.03.127.051.192.888.66.592,1.289.651,2.015.286.708.531,1.4.86,2.078C410.4-2173.124,410.993-2172.991,411.4-2172.677Z"/><path class="f" d="M410.48-2193.39c-.085.693-.116,1.4-.161,2.095C410.554-2191.975,411.034-2192.466,410.48-2193.39Z"/><path class="f" d="M418.756-2209.5a2.5,2.5,0,0,1-.074-1.172c-1.007,1.318-2.031,2.635-3.015,4.049l.035.028C416.646-2207.6,417.278-2209.611,418.756-2209.5Z"/><path class="f" d="M410.887-2195.225a.824.824,0,0,0-.161.032v.006A.34.34,0,0,0,410.887-2195.225Z"/><path class="f" d="M426.425-2206.972l.087-.118q-.467.33-.9.693A2.559,2.559,0,0,0,426.425-2206.972Z"/><path class="f" d="M428.756-2210.242l1.721-1.5a8.64,8.64,0,0,0,1.369-2.649C430.766-2213.065,429.761-2211.659,428.756-2210.242Z"/><path class="f" d="M420.428-2212.227c.1-.359.165-.764.255-1.141l-.6.841C420.224-2212.487,420.327-2212.324,420.428-2212.227Z"/><path class="f" d="M424.083-2204.877l.151-.171-.663.217C423.688-2204.828,423.9-2204.873,424.083-2204.877Z"/><path class="f" d="M422.146-2215.556l-.408.638a1.769,1.769,0,0,1,.55-.09A1.368,1.368,0,0,1,422.146-2215.556Z"/><path class="f" d="M424.835-2218.292a7.122,7.122,0,0,0,.61-.76c-.3.237-.612.491-.909.75C424.7-2218.269,424.836-2218.233,424.835-2218.292Z"/><path class="s" d="M279.155-2169.369a10.507,10.507,0,0,0,.41-2.435c-.05.3-.1.609-.153.913a1.759,1.759,0,0,0-.364-1.32c-.4.13-.1.44-.632.5a7.4,7.4,0,0,0,1.153,3.358C280.81-2168.755,279.1-2169.065,279.155-2169.369Z"/><path class="s" d="M278.479-2173.465a2.931,2.931,0,0,0-.036.329C278.5-2173.25,278.547-2173.362,278.479-2173.465Z"/><path class="s" d="M273.922-2162.1a1.125,1.125,0,0,0-.161.378A.58.58,0,0,0,273.922-2162.1Z"/><path class="s" d="M276.184-2167.975a1.269,1.269,0,0,0-.237.2c.12.517.273,1.042.447,1.576C276.267-2166.781,276.8-2167.383,276.184-2167.975Z"/><path class="s" d="M275.065-2168.558a1.834,1.834,0,0,0-.666-1.57A3.132,3.132,0,0,1,275.065-2168.558Z"/><path class="s" d="M267.524-2158.335a.96.96,0,0,0-.25.017.447.447,0,0,1-.132.038c.134.215.271.43.416.644.056-.051.254-.095.263-.148C267.666-2158.021,267.187-2158.082,267.524-2158.335Z"/><path class="s" d="M273.963-2162.242l.056-.012.083-.129-.033-.016A.436.436,0,0,0,273.963-2162.242Z"/><path class="s" d="M267.471-2158.606c-.2-.009-.392-.018-.548-.04.07.121.144.242.218.363a1.136,1.136,0,0,1,.133-.035C267.413-2158.394,267.217-2158.523,267.471-2158.606Z"/><path class="s" d="M265.982-2161.359c.013-.076.416-.134.517-.167a3.03,3.03,0,0,1-.671-.646c.1-.033.115-.109.322-.176a3.6,3.6,0,0,1-.416-.148,10.234,10.234,0,0,0,.239,1.583A.9.9,0,0,0,265.982-2161.359Z"/><path class="s" d="M271.3-2148.879c.309-.676-.725-1.491.359-2.131.647.8.855,1.881,2.586,2.039s.18-1.065.283-1.674l.362.17c-.181-.085-.362-.17-.156-.237a4.413,4.413,0,0,0,1.268.6l.413-.134c1.292.444,1.552,1.223,2.844,1.667-4.137-2.111-2.3-4.863-1.893-7.3.619-1.351,2.194-2.581,3.951-3.726.232-.219.127-.761,0-1.15a5.81,5.81,0,0,1,1.317-2.009c.825-1.418-.108-2.835.151-4.364.051-.3-1.629-.766-2.145-.024a2.754,2.754,0,0,0-.864,1.87c.537-.06.229-.369.633-.5a1.755,1.755,0,0,1,.363,1.32q.076-.456.154-.912a10.621,10.621,0,0,1-.412,2.434c-.052.3,1.655.614.414,1.016a7.389,7.389,0,0,1-1.152-3.358l-.04,0a13.881,13.881,0,0,0,.066-1.43c-.077.148-.18.3-.091.432a4.408,4.408,0,0,1-.622-2.1c-1.884,1.905-.694,4.108-1.416,6.068-.88-.578.412-1.284-.673-1.8a10.474,10.474,0,0,0,.306,2.753,1.279,1.279,0,0,1,.238-.2c.616.592.084,1.2.21,1.774.017.052.033.1.05.156a.857.857,0,0,1-.05-.156c-.173-.534-.327-1.059-.448-1.576a.716.716,0,0,0-.123.783,1.537,1.537,0,0,1-.672-.645c-.02-.307-.039-.614-.086-.919a2.267,2.267,0,0,1-.767,1.339,8.967,8.967,0,0,1-.55-1.946c-.073.349-.155.7-.231,1.048a16.29,16.29,0,0,1,.41,1.793c.012-.022.023-.045.036-.067-.007.045-.015.091-.025.136.035.235.063.472.078.71-.036.212-.261.415-.543.615-.005.036-.01.071-.013.1.171-.062.342-.09.427.04.491.56-.386,1.133.286,1.778.176.169.076.389-.072.625.125.068.046.1-.082.128-.033.051-.065.1-.1.154a.578.578,0,0,1-.163.377,1.163,1.163,0,0,1,.163-.377.665.665,0,0,1,.038-.142c-.145.029-.318.059-.33.129a12.358,12.358,0,0,1-.171-2.712c-.141.052-.281.126-.373.156.133-.087.264-.173.386-.261a4.049,4.049,0,0,1,.217-.883,1.309,1.309,0,0,1-.449.232,8.74,8.74,0,0,1,.276-2.536c-.222-.8-.465-1.6-.617-2.388a2.7,2.7,0,0,1,.848,1.34,6.077,6.077,0,0,0-.075-3.6,9.25,9.25,0,0,1-1.859.6c-.389-.018-.517-.407-.75-.188-1.11.791-.152,1.4-2.347,1.683-.6.048-2.665-.921-3.105-.635a3.68,3.68,0,0,0-.551,1.157,1.39,1.39,0,0,1,.088.432c.041.019-.084.047-.224.083a2.38,2.38,0,0,0-.008,1.286c.049.1.093.2.135.306a2.079,2.079,0,0,0,.473.145,1.453,1.453,0,0,0-.348.181,6.594,6.594,0,0,1,.238.806c.184.151.395.3.55.452a2.206,2.206,0,0,0-.459-.01c.058.332.1.661.12.99a2.539,2.539,0,0,0,.793.383c-1.227.326-.49,1.166-.683,1.732l-.045,0c.01.287.021.577.044.87a3.467,3.467,0,0,0,.416.148c-.207.067-.221.143-.325.177a3.094,3.094,0,0,0,.674.645c-.1.033-.5.091-.517.167a.918.918,0,0,1-.011.446q.06.257.141.519a9.521,9.521,0,0,0,.811,1.748c.156.022.352.031.547.041-.253.082-.057.211-.2.287a.96.96,0,0,1,.249-.016c-.334.252.143.313.3.551-.009.052-.206.1-.264.147l.053.079c.869.286.57.543.588.839.217.3.437.6.657.9C270.368-2149.153,270.935-2149.05,271.3-2148.879Z"/><path class="s" d="M267.61-2157.558c.19.281.387.56.588.839C268.179-2157.014,268.479-2157.271,267.61-2157.558Z"/><path class="s" d="M266.419-2165.1a2.546,2.546,0,0,1-.794-.383c.052.7.047,1.4.067,2.113h.044C265.93-2163.93,265.192-2164.77,266.419-2165.1Z"/><path class="s" d="M267.274-2158.318a1.136,1.136,0,0,0-.133.035v0A.447.447,0,0,0,267.274-2158.318Z"/><path class="s" d="M273.938-2166.256c0-.023-.007-.045-.011-.068a3.833,3.833,0,0,0-.237.511A.74.74,0,0,0,273.938-2166.256Z"/><path class="s" d="M273.516-2168.117c.078-.349.16-.7.233-1.048a2.725,2.725,0,0,0-.85-1.341C273.052-2169.715,273.3-2168.92,273.516-2168.117Z"/><path class="s" d="M265.966-2166.459c-.155-.149-.366-.3-.55-.453.035.149.065.3.09.443A2.216,2.216,0,0,1,265.966-2166.459Z"/><path class="s" d="M273.46-2164.825c0-.035.009-.07.014-.1-.123.087-.255.174-.388.261C273.18-2164.7,273.32-2164.774,273.46-2164.825Z"/><path class="s" d="M265.052-2168.043c.046.109.087.218.126.326a1.4,1.4,0,0,1,.347-.182A2.1,2.1,0,0,1,265.052-2168.043Z"/><path class="s" d="M265.149-2169.718a1.356,1.356,0,0,0-.088-.432c-.052.169-.1.343-.135.515C265.066-2169.671,265.19-2169.7,265.149-2169.718Z"/><path class="p" d="M388.759-2290.585s23.33,69.644-41.4,99.222l-1.316.874.335-16.38s30.5-42.561,30.616-43.657S388.759-2290.585,388.759-2290.585Z"/><path class="s" d="M385.693-2324.66c.477-.062.7-.179.511-.366C386.066-2325.164,385.887-2325.026,385.693-2324.66Z"/><path class="p" d="M393.63-2322.872c1.235,1.235,4.141,3.961,6.625,4.092a2.849,2.849,0,0,0,2.513-1.159c2.277-2.906,6.335-5.128,10.227-6.508,1.249-.442,1.388-1.118.994-1.829a9.445,9.445,0,0,0-3.071-2.623c-5.873.2-9.841,1.16-11.077,2.291a.613.613,0,0,0-.138.18,24.332,24.332,0,0,1-5.128,1.739C393.554-2325.129,392.871-2323.632,393.63-2322.872Z"/><path class="n" d="M303.815-2220.3s12.706,17.316,17.551,18.054,49.71,11.684,65.163-40.967c6.466-22.022,5.355-40.725-.649-58.758a39.163,39.163,0,0,1-1.774-13.423,34.8,34.8,0,0,1,1.063-7.84,7.382,7.382,0,0,1,.524-1.429,17.061,17.061,0,0,1-2.629.041c-2.6-.089-5.818-.407-5.818-.407a26.4,26.4,0,0,0-5.141,6.646c-2.989,5.266-5.742,13.61-3.437,24.859C377.688-2249.49,335.631-2218.516,303.815-2220.3Z"/><path class="t" d="M384.106-2315.391c-2.588-.987-7.764-2.92-12-2.989a26.4,26.4,0,0,1,5.141-6.646s3.223.318,5.818.407l2.105,1.388Z"/><path class="n" d="M394.181-2332.483s-7.409,4.356-11.1,1.036-5.968-3.621-7.592-1.036-3.9,12.275,6.171,11.815,12.666,5.386,17.7-1.11S402.082-2334.75,394.181-2332.483Z"/><g class="u"><path d="M389.616-2162.28l-.489-.041S389.3-2162.308,389.616-2162.28Z"/><path d="M389.616-2162.28c13.067,1.043,41.627-.8,41.627-.8,8.392-.483,14.286-1.229,15.321-2.361a.966.966,0,0,1-.007.1c-.062,1.311-.814,16.322-1.87,36a9.728,9.728,0,0,1-1.374-.159,10.688,10.688,0,0,1-6.915-4.914,23.723,23.723,0,0,1-2.689-5.616C423.967-2158.576,393.8-2161.9,389.616-2162.28Z"/></g><path class="t" d="M402.326-1995.18c0-.069.007-.131.007-.2.117-6.108,4.81-27.771,4.81-27.771-3.589-4.514-4.348-30.581-4.382-31.788C402.837-2035.1,402.678-2014.076,402.326-1995.18Z"/><path class="t" d="M383.51-2033.93c-.73,6.82-1.43,13.63-2.1,20.33-.08.84-.17,1.67-.25,2.5-.15,1.52-.3,3.02-.44,4.52-.41,4.18-.8,8.29-1.17,12.3a2.448,2.448,0,0,1-.02.27,2.436,2.436,0,0,0-.01-.27c-.46-14.83-6.96-21.8-6.96-21.8C376.64-2017.4,381.05-2027.44,383.51-2033.93Z"/><path class="v" d="M384.953-2363.348s21.38,11.854,15.034-7.179C395.6-2383.7,370.371-2371.833,384.953-2363.348Z"/><path class="v" d="M388.052-2367.9s-11.962,7.1-10.808,14.218c0,0-2.638-21.258,9.256-21.793s16.5.614,15.444,23.094C401.944-2352.376,398.488-2370.258,388.052-2367.9Z"/><path class="v" d="M389.658-2373.789c1.748,2.381,25.532-34.936-4.7-45.095-27.395-9.205-50.426,8.809-57.533,29.554-6.2,18.1-9.094,40.6,25.025,85.044,14.374,27.929,8.867,36.286,8.867,36.286s23.059-42.34,5.507-69.5S376.83-2391.264,389.658-2373.789Z"/><path class="i" d="M1366-1994.28H.17"/><path class="w" d="M149.894-2403.507l-.262,9.238s6.054,31.807,13.835,39.151h.006a1.949,1.949,0,0,0,.212.207c7.787,6.876,11.84,32.512,14.147,34.152s3.768,4.118,2.665,6.493a66.84,66.84,0,0,1-3.921,6.741,32.3,32.3,0,0,1-3.1,4.9c-1.447,1.6-3.21,1.8-5.08,1.825a.583.583,0,0,1-.37-.077.665.665,0,0,1-.188-.323c-.163-.456-.647-1.269-.435-1.824.225-.587,1.2-.813,1.613-1.238,1.065-1.085,1.452-2.934,2-4.354q.748-1.937,1.512-3.862c.214-.538.521-1.1.682-1.651a4.945,4.945,0,0,0,0-1.508c-.5-.847-13.929-25.885-14.438-26.76a10.609,10.609,0,0,0-3.954-3.739c-2.409-1.421-2.316-4.7-2.316-4.7-2.235-1.188-5.271-5.914-7.681-10.194-2.231-3.97-3.917-7.542-3.917-7.542l-5.073,7.175-12.231,17.3c-1.086,4.923-3.519,9.691-5.793,14.189q-3,5.937-6.4,11.707c-1.131,1.925-2.272,3.85-3.487,5.732q-.928,1.438-1.921,2.837a17.381,17.381,0,0,0-1.821,2.5,3.979,3.979,0,0,0-.289,1.576c-.058,2.124.532,4.317.183,6.445-.243,1.48-2.09,1.362-3.055,1.137-2.032-.474-3.165-2.756-5.543-2.042a15.146,15.146,0,0,0-2.5,1.194,15.531,15.531,0,0,1-5.484,1.664,14.819,14.819,0,0,1-5.636-.174c-.84-.26-2.114-1.062-1.811-2.217.091-.345,1.267-.657,1.581-.791q1.8-.772,3.6-1.545c2.372-1.023,4.727-2.225,7.117-3.115,1.016-.378,1.98-.934,2.972-1.374a18.344,18.344,0,0,0,3-1.449c1.076-.731,1.552-2.074,2.093-3.231.584-1.249,1.127-2.515,1.652-3.787,1.279-3.1,2.449-6.247,3.474-9.423a54.706,54.706,0,0,0,1.815-6.759c1.381-7.437,6.86-15.879,6.86-15.879a14.114,14.114,0,0,1,.186-6.437l.7-1.58s.008-.022.03-.073l16.07-36.183-.089-.9-2.3-23.969c-2.769-2.51-4.006-8.932-4.006-8.932l-29.2,11.395c-4.357-4.481-12.28-22.6-12.28-22.6l-6.667-1.861.273-9.135a20.251,20.251,0,0,1,2.743.531c.751.271,5.04,2.06,6.287,3.454s.883,3.408,2.21,4.4,11.942,15.8,11.942,15.8c1.143-1.123,14.472-6.412,14.472-6.412s3.581-3.987,5.577-5.732c.781-.681,3.3-1.333,6.073-1.87l8.137-1.27c.633-.079,1-.119,1-.119l-.147-2.118-5.389-1.323v-4.92l-1.255-.827c.639-1.037,2.637-4.911,3.737-7.058.449-.875.749-1.464.749-1.464l10.438,6.327a90.536,90.536,0,0,0,4.461,9.193,17.84,17.84,0,0,0,2.383,3.376l.006.008c.605.6,1.146.877,1.582.691a1.7,1.7,0,0,1,.205-.076,10.108,10.108,0,0,1,2.5-.468c.684-.068,1.438-.1,2.209-.1h.007c3.077-.035,6.512.336,7.789.93,2.112.975,14.035.058,14.035.058,1.139-3.437,7.952-14.683,7.952-14.683l-.067-6.946,3.176-2.975,6.023,4.424s-9.028,20.262-11.655,24.2c-2.644,3.954-19.427,4.171-25.1,5.13-4.974.846-8.172,17.951-8.927,22.433C149.951-2403.9,149.894-2403.507,149.894-2403.507Z"/><path class="x" d="M117.206-2375.7s6.713-14.009,13.01-15.774l19.85-13.092s1.026,2.275.6,2.714.317.155.059,1.193-.269,1.484-.009,1.935,3.109,10.594,2.2,13.858l11.571,29.942s-19.315-3.359-23.234-8.993l.6,5.539s-4.813,2.939-5.512,2.952-.5-11.74-.5-11.74-14.876,10.594-20.753,12.261c0,0,9.751-26.143,13-31.738C128.1-2386.645,118.692-2372.347,117.206-2375.7Z"/><path class="x" d="M156.844-2437.142s-2.308,15.727-14.662,15.311c-12.594-.423-13.03-2.756-15.814-8.416-.772-1.568-1.433-5.938-.144-6.744l8.137-1.27c.577,1.648,2.634,6.273,7.021,4.282a10.478,10.478,0,0,0,5.216-4.837,7.357,7.357,0,0,0,.715-2l.644.246,7.122,2.75,1.758.677Z"/><path class="y" d="M132.68-2460.04s-4.131,3.528-2.118,4.936,5.947-1.228,8.244,4.024c2.288,5.232,2.878,11.34,6.326,11.878,3.429.536,7.375,4.143,9.506,2.159s1.388-14.937-2.6-20.283C148.813-2461.648,139.76-2464.926,132.68-2460.04Z"/><path class="z" d="M1186.187-2485.738l-19.871-1.846,154.814-15.292.079,7.263Z"/><path class="aa" d="M1166.316-2487.584l19.871,1.846.557,209.1-20.151,5.588Z"/><path class="aa" d="M1186.745-2276.635l134.377,13.742.1,8.867-154.625-17.021Z"/><path class="ab" d="M1321.131-2502.875l-154.814,15.292.277,216.537,154.625,17.021Z"/><path class="z" d="M211.846-2498.6l22.888-1.875L56.409-2516.072l-.09,7.391Z"/><path class="aa" d="M234.733-2500.479l-22.888,1.875-.6,212.784,23.212,5.69Z"/><path class="aa" d="M211.247-2285.82,56.47-2271.865l-.109,9.023,178.1-17.289Z"/><path class="ac" d="M56.409-2516.072l178.324,15.593-.274,220.349-178.1,17.289Z"/><path class="ad" d="M1280.3-2362.126c-.145.4-1.3,7.015-.434,9.91s2.32,3.8,2.32,3.8-1.162-9.235.438-5.793c1.611,3.465.731,5.452.731,5.452s4.878,1.777,5.327-.251-2.678-11.86-2.678-11.86Z"/><path class="ae" d="M1297.509-2294.737s-5.023,3.37-13.275,1.915c-7.356-1.3-13.528-4.806-13.9-5.746-.342-.869-.455-37.549-.47-42.982,0-.435,0-.67,0-.67a5.144,5.144,0,0,1,1.265-.485c1.947-.548,6.487-1.236,15.863-.121,0,0,9.9.108,10.518,4.051S1297.509-2294.737,1297.509-2294.737Z"/><path class="ad" d="M1213.04-2369.387c-.323.438-4.329,5.775-3.716,8.788s1.147,4.894,1.573,4.221.32-3.341,1.283-3.651,1.4,1.1.86,2.59-1.609,2.128-.86,1.817,4.663-5.166,4.225-8.812A6.353,6.353,0,0,0,1213.04-2369.387Z"/><path class="af" d="M1207.573-2288.652q.237-1.24.488-2.477c.608-2.975,1.932-6.3,1.2-9.626-.836-3.522-3.071-4.363-2.793-4.925s1.957-1.661,1.817-2.91-1.4-20.228-1.4-20.228-1.529-.173-1.252-1.359,1.252-3.984,1.112-4.456a47.83,47.83,0,0,1,1.258-13.653c1.548-5.428,2.114-8.069,3.392-7.286s4.313,7.021,5.044,15.346c.733,8.353-.149,26.528,0,27.8s1.173,2.8.587,3.355-1.022-.767-1.167.3c-.341,2.5-.293,5.18-.407,7.733-.213,4.763-.33,9.549-.677,14.267a1.407,1.407,0,0,1-.368,1.054c-.238-1.226-.447-5.093-2.127-5.379-.705-.12-1.307.772-1.722,1.2q-.9.938-1.737,1.936c-.356.427-.7,1.259-1.214,1.444-.21.074-.072-1.94-.048-2.064Z"/><path class="ad" d="M1226.752-2316.324c-.306.917-2.737,10.433-1.525,16.686,1.219,6.288,2.445,13.573,2.445,13.573s6.551,2.65,7.5-.086,2.719-19.625.956-24.967C1234.381-2316.418,1226.752-2316.324,1226.752-2316.324Z"/><path class="ad" d="M1253.222-2317.381l-1.309,16.421s1.894,14.76,2.627,17.475,8.248,1.975,8.248,1.975,1.382-13.22,1.536-16.316-3.517-16.028-3.517-16.028Z"/><path class="ag" d="M1237.743-2436.625a24.327,24.327,0,0,1-4.817-.578,22.457,22.457,0,0,1-9.334-5.286,11.563,11.563,0,0,1-2.632-2.936c-1.815-3.214.3-7.511,2.21-10.813a38.01,38.01,0,0,1,9.049-10.742,24.134,24.134,0,0,1,3.592-2.381c8.945-4.779,25.091-7.128,32.314-1.4,7.448,5.909,7.827,16.16,3.788,21.662a30.6,30.6,0,0,1-12.353,9.422c-5.277,2.334-10.15,2.717-15.358,2.919C1242.036-2436.671,1239.861-2436.559,1237.743-2436.625Z"/><path class="ah" d="M1296.975-2338.772c-.581,1.878-8.023,3.308-19.115,1.617-5.353-.816-7.336-2.707-7.995-4.4,0-.435,0-.67,0-.67a5.144,5.144,0,0,1,1.265-.485l.345.556c4.774-1.172,12.331-.149,15.73-.117C1290.65-2342.233,1297.558-2340.654,1296.975-2338.772Z"/><path class="ai" d="M1237.125-2441.371s-2.347-3.017-2.466-5.2a19.072,19.072,0,0,1,.476-6.27c.557-1.891,5.29-8.784,10.235-8.886,5.054-.1,7.791-.23,10.517,3.83,0,0,2.67,6.181,2.45,7.889a16.229,16.229,0,0,1-1.17,3.795Z"/><path class="af" d="M1219.555-2342.77a71.073,71.073,0,0,0-.925,24.191c.543,4.071,1.372,7.441,2.681,7.512l3.309.181s3.36,3.392,6.459,3.232a10.339,10.339,0,0,0,5.052-1.5s-.32,4.059,1.281,2.581,4.541-20.243,4.541-20.243,0,12.909,2.637,16.935a11.817,11.817,0,0,0,7.413,4.8s3.449,3.939,7.657,1.178c0,0,7.55,2.21,9.384-1.714,1.847-3.954,0-36.485,0-36.485l-48.626-4.723Z"/><path class="aj" d="M1211.4-2366.888s-3.111.544-1.7-10.8c1.418-11.418,7.48-38.824,10.429-42.251,2.223-2.585,20.806-12.061,20.806-12.061l.045-2.274,10.689-1.372v2.705s20.719,8.058,22.216,10.034,12.323,37.33,13.114,44.958c.794,7.652,1.192,17.871,1.192,19.331s-7.064-3.487-8.222-.291c-1.152,3.181-4.577,5.88-4.955,4.087s-4.485-36.8-6.33-37.788,5.2,48.368,3.7,52.861c-1.489,4.466-13.779,4.45-17.275,3.123-3.444-1.308-13.806-2.5-16.405-2.382-2.569.114-10.1-3.729-14.08-3.4-3.905.327-4.8,4.035-5.684.815s1.482-25.1,2.375-29.5c.9-4.422,2.4-16.491,1.2-15.509s-3.573,30.875-5.337,26.41A14.616,14.616,0,0,0,1211.4-2366.888Z"/><path class="ak" d="M1236.77-2448.783c.16-.353,1.849-4.325,5.1-4.715,3.3-.4,7.662-1.56,9.619-1.219,1.973.344,4.223,1.841,4.223,3.547s.435-.924,1.483-.239.439,4.3-.349,6.04-1.655,3.311-2,3.189-1.9,3.49-3.1,5.089-3.816,4.107-7.4,3.885c-3.533-.218-5.076-4.218-6.207-5.87s-1.044-3.21-1.765-4.493-1.275-4.046-.877-4.681A1.413,1.413,0,0,1,1236.77-2448.783Z"/><path class="al" d="M1243.923-2450.6a1.177,1.177,0,0,0-.214-.308,2.7,2.7,0,0,0-2.167-.7,3.809,3.809,0,0,0-2.367,1.435.545.545,0,0,0-.172.407.234.234,0,0,0,.154.19.3.3,0,0,0,.262-.051c.162-.12.293-.289.462-.409a2.826,2.826,0,0,1,3.006-.206c.128.075.263-.058.377-.14a.052.052,0,0,1,.022-.011c.016,0,.024.014.031.027.066.136.206.332.4.242A.389.389,0,0,0,1243.923-2450.6Z"/><path class="al" d="M1253.389-2452.218a1.512,1.512,0,0,0-.353-.292,3.174,3.174,0,0,0-1.371-.554,3.433,3.433,0,0,0-3.629,1.8c-.126.261.153.583.413.344a3.5,3.5,0,0,1,2.447-1.061,4.773,4.773,0,0,1,1.054.134,2.208,2.208,0,0,1,.475.178,3.308,3.308,0,0,0,.395.254.325.325,0,0,0,.278-.063.823.823,0,0,0,.358-.553A.314.314,0,0,0,1253.389-2452.218Z"/><path class="al" d="M1246.574-2444.094a6.87,6.87,0,0,1-.3-3.51c.008-.1-.141-.073-.15.023a9.994,9.994,0,0,0,.318,3.6c.135.557.614.485-.433,1.452-.041.038-.493.373-.542.4a1.124,1.124,0,0,1-1.188-.067,3.555,3.555,0,0,1-.826-1.5,3.46,3.46,0,0,1,.261-.525,8.861,8.861,0,0,0,.482-3.681c0-.075-.089-.076-.128-.027a.217.217,0,0,0,.009-.141c-.587-2.07-4.155-1.168-5.018.7l-.01.019c-.005.01-.012.019-.016.029a.2.2,0,0,0,.149.3c1,.835,3.916.516,4.8-.787a.281.281,0,0,0,.086-.1.076.076,0,0,0-.016.039,9.507,9.507,0,0,1-.328,3.247c-.174.51-.656,1.095-.62,1.648.038.581.444.661.837.889.08.046.737.623,1.024.544a8.077,8.077,0,0,0,1.4-.826c.339-.25.337-.044.52-.48C1247.077-2443.323,1246.731-2443.743,1246.574-2444.094Zm-7.059-3.276a2.816,2.816,0,0,1,1.16-1.077,1.2,1.2,0,0,0-.092.159.809.809,0,0,0-.084.145.909.909,0,0,0,.011.775.623.623,0,0,0,.02.062.5.5,0,0,0,.216.243A2.075,2.075,0,0,1,1239.515-2447.37Zm2.772.1a1,1,0,0,0,.139-.183,1.127,1.127,0,0,0,.153-.674,1.181,1.181,0,0,0-.071-.595,1.413,1.413,0,0,1,1.09.729A2.414,2.414,0,0,1,1242.287-2447.267Z"/><path class="al" d="M1253.643-2448.882c-1.033-1.893-3.863-1.714-5.244.305-.153.057-.271.275-.128.4,1.243,1.086,3.508.8,5.023-.356C1253.454-2448.411,1253.761-2448.665,1253.643-2448.882Zm-3.772-.5a1.063,1.063,0,0,0-.1.382,1.159,1.159,0,0,0-.019.318,1.261,1.261,0,0,0,.083.67,2.555,2.555,0,0,1-1.043-.4A3.09,3.09,0,0,1,1249.871-2449.385Zm1.86,1.182a1.474,1.474,0,0,0,.3-1.222.575.575,0,0,0-.117-.209,2.177,2.177,0,0,1,1.132.752A4.594,4.594,0,0,1,1251.731-2448.2Z"/><path class="aj" d="M1246.787-2439.919a.592.592,0,0,0-.376-.141,2.336,2.336,0,0,0-.567-.017c-.029,0-.057,0-.085.009q-.54.017-1.081.072c-.249.026-.5.052-.749.093a1.164,1.164,0,0,0-.6.262.516.516,0,0,0-.2.411c.04.412.81.518,1.145.554a3.483,3.483,0,0,0,1.5-.177c.378-.13.879-.275,1.058-.676A.357.357,0,0,0,1246.787-2439.919Z"/><path class="al" d="M1248.005-2440.211a4.7,4.7,0,0,0-.813-.807c-.37-.25-.562-.495-1.033-.546-.246-.026-.505.271-.8.307-.78.1-.7-.329-1.312-.218-.5.091-.894.65-1.244.992a9.951,9.951,0,0,1-1.405,1.145c-.174.117-.837.5-.539.725.692.523,1.356.008,2.084-.464a4.6,4.6,0,0,1,3.2-.9,4.09,4.09,0,0,1,1.348.912,1.654,1.654,0,0,0,1.563.144C1249.364-2439.131,1248.258-2440,1248.005-2440.211Z"/><path class="am" d="M1279.567-2336.2c.013-3.9-.217-8.711,2.525-11.807,1.244-1.4,2.618-.778,3.414.8a7.14,7.14,0,0,1,.717,4.251"/></g></svg>