<svg xmlns="http://www.w3.org/2000/svg" width="807" height="312.278" viewBox="0 0 807 312.278"><defs><style>.a{fill:#3065b8;}.b{fill:#d7cb8c;}.c,.g{opacity:0.96;}.d,.g{fill:#f46f30;}.e{fill:#4064af;}.f{fill:#02735d;}</style></defs><g transform="translate(-416.238 -401.969)"><g transform="translate(1076.133 445.413)"><path class="a" d="M902.324,470.767c-6.4-3.925-11.875-9.08-17.4-13.2l6.589,4.935a30.323,30.323,0,0,1-7.852-8.946c2.067-.461,3.275,2.321,5.247,1.029,7.7,6.508,13.406,15.219,18.724,23.5C901.349,479.38,904.465,472.445,902.324,470.767Z" transform="translate(-876.733 -423.427)"/><path class="a" d="M878.8,447.084c.823.611,1.6,1.227,2.364,1.852A5.772,5.772,0,0,1,878.8,447.084Z" transform="translate(-878.804 -426.167)"/><path class="a" d="M939.432,488.362a14.8,14.8,0,0,1,2.626,2.36A10.587,10.587,0,0,1,939.432,488.362Z" transform="translate(-852.94 -408.558)"/><path class="a" d="M909.372,465.323a9.591,9.591,0,0,1,2,.531q4.462,5.345,8.59,11.193C916.772,472.981,911.3,470.8,909.372,465.323Z" transform="translate(-865.764 -418.387)"/><path class="a" d="M911.62,463.952a29.129,29.129,0,0,1-8.5-11.634A52.844,52.844,0,0,0,911.62,463.952Z" transform="translate(-868.431 -423.934)"/><path class="a" d="M969.643,500.408a1.918,1.918,0,0,1,1.044-.3,1.451,1.451,0,0,0,.695.116c.542,2.213.963,4.484,1.392,6.712-.454-.382-1.424-.459-1.7-.936C970.575,503.567,972.2,502.1,969.643,500.408Z" transform="translate(-840.053 -403.545)"/><path class="a" d="M939.159,487.976l-.262.051-1-.718.02-.2A5.734,5.734,0,0,1,939.159,487.976Z" transform="translate(-853.595 -409.092)"/><path class="a" d="M968.851,498.938a10.969,10.969,0,0,0,1.9-1.377l.966,3.731a3.627,3.627,0,0,0-.688-.09C970.116,500.758,970.231,499.223,968.851,498.938Z" transform="translate(-840.39 -404.634)"/><path class="a" d="M964.059,482.3c-.512-.609-2.3-.166-2.86-.207a29.061,29.061,0,0,0-1.575-6.939c-.572-.029-1.1-.618-2.238-.662a11.046,11.046,0,0,0,.515-2.208q2.356,3.186,4.558,6.657c1.491,2.268,2.923,4.678,4.3,7.2A24.473,24.473,0,0,1,964.059,482.3Z" transform="translate(-845.282 -415.417)"/><path class="a" d="M1005.307,612.034c-.4-3.394.7-6.935,1.038-10.55.5-3.6.2-7.241-2.208-10.309-2.116,7.744-3.7,17.927-11.156,18.318-3.709.21-3.682-2.067-2.829-5.12.732-3.052,2.371-7.026,1.962-9.722l-1.479,1.484c.74-.729,1.479-1.486.582-2.066-1.5,1.5-2.749,4.245-5.226,5.019l-1.752-1.154a23.98,23.98,0,0,0-6.119,6.337c-1.812,2.22-3.644,4.327-6.467,5.552,9.575-6.39,12.023-16.894,10.51-27.1-1.441-10.336-6.674-20.263-11.193-29.282-6.569-9.609-17.377-15.8-28.478-19.5-1.729-.943-3.581-4.659-4.863-7.432-4.094-3.619-8.407-7.173-14.039-9.41-9.724-6.5-14.486-17.4-24.47-25.717-1.986-1.612.288-9.32,6.458-6.4a35.138,35.138,0,0,1,13.839,8.932c-2.073,1.124-2.85-1.656-4.923-1.307a28.255,28.255,0,0,0,6.358,9.117c-1.833-1.749-3.733-3.467-5.642-5.178,4.813,4.274,9.246,9.639,14.651,14.022,1.806,1.827-2.529,8.03,3.692,7.512-3.4-8.417-7.508-17.357-14.136-24.167l.156-.081c-3.127-2.853-5.679-5.761-8.7-8.588,1.14.673,2.385,1.288,2.9,2.37-2.832-5.684-6.908-10.147-11.12-14.54,8.942,2.932,15.942,8.788,22.166,15.252,6.246,6.48,11.67,13.523,18.035,19.222-.016-6.16-8.3-7.484-7.6-13.69a104.832,104.832,0,0,1,13.794,19.356,9.257,9.257,0,0,0-1.833-.8,14.637,14.637,0,0,0,3.327,6.823,32.47,32.47,0,0,1,4.328,6.006l.511,1.208a12.885,12.885,0,0,0-.511-1.208,112.652,112.652,0,0,0-5.822-12.026A10.488,10.488,0,0,1,953.3,518.4a11.229,11.229,0,0,0-.746-6.083q-2.234-3.321-4.459-6.624a35.527,35.527,0,0,0,9.591,7.666c-1.939-5.484-5.444-10.182-8.355-15.162,2.17,2.28,4.4,4.52,6.5,6.866,2.571,4.672,5.08,9.338,7.532,14.065l-.454-.428.735.962q1.47,2.745,2.949,5.511a13.828,13.828,0,0,0,4.726,3.69l.492.8c-.914-.17-1.679-.063-1.461,1.108.471,5.169,6.054,8.246,5.677,14.493-.066,1.6.986,3.23,2.347,4.933-.282.726.138.876.74.924l.884,1.12a9.038,9.038,0,0,0,1.75,2.9,15.983,15.983,0,0,0-1.75-2.9,11.841,11.841,0,0,0-.612-1.1c.676.037,1.471.05,1.748.611-2.325-7.39-5.08-15.1-9.323-22.088.752.141,1.6.469,2.086.536l-2.578-1.334a50.1,50.1,0,0,0-4.7-6.382,6.493,6.493,0,0,0,2.718.872,89.916,89.916,0,0,0-13.5-18.289,178.194,178.194,0,0,0-11.389-18.309,38.624,38.624,0,0,0,4.885,11.443c-7.54-7.7-15.162-15.17-21.275-24.315,3.206-.458,6.43.154,9.708-1.3,1.144-1.218-.967-4.15,1.188-3.355,8.652,2.244,9.317,9.1,18.332,5.266,2.357-1.206,2.807-13.781,6.111-12.911a56.6,56.6,0,0,1,9.458,7.254,35.547,35.547,0,0,0,2.487,3.6c-.014.257.589.161,1.3.09,3.7,3.775,6.869,7.765,8.117,10.35l1.382,2.86a5.673,5.673,0,0,1-.808,2.285,7.449,7.449,0,0,1,2.333.716c1.244,2.565,2.554,5.023,3.86,7.455.176,1.725.245,3.494.5,5.116.476-.344,1-.974,1.645-1.043q2.45,4.567,4.862,9.066a10.682,10.682,0,0,1-1.094,4.967c6.328.7,7.58,9.841,10.631,15l.171-.087c1.233,2.756,2.3,5.642,3.358,8.56a10.743,10.743,0,0,1-1.1,1.994c1.106.381,1.43,1.126,1.964,1.331a30.194,30.194,0,0,1-.491,7.224c.546.206,2.364.354,2.654,1.121a24.8,24.8,0,0,0,1.421,4.539c.385,1.768.639,3.609.87,5.471a74.3,74.3,0,0,1,.612,9.4,80.6,80.6,0,0,1-.361,9.354,11.075,11.075,0,0,1-2.247.629c1.188.762.584,2.16,1.254,2.915a1.782,1.782,0,0,0-1.068-.1c1.675,2.552-.281,3.318-.709,5.795.09.542.967.982,1.264,1.505-.053.274-.091.546-.163.826-3.565,3.044-2.134,5.621-2.178,8.705-1,3.074-1.845,6.08-3.042,9.029C1009.429,609.858,1006.959,610.586,1005.307,612.034Z" transform="translate(-870.436 -420.001)"/><path class="a" d="M972.206,505.469c.557,2.906.891,5.9,1.278,8.811C972.294,511.472,970.129,509.535,972.206,505.469Z" transform="translate(-839.328 -401.26)"/><path class="a" d="M944.213,460.891a10.7,10.7,0,0,0-.021-4.975c4.632,5.284,9.336,10.558,13.9,16.256l-.14.128C953.67,468.3,950.426,459.98,944.213,460.891Z" transform="translate(-850.91 -422.4)"/><path class="a" d="M970.375,500.113a3.626,3.626,0,0,1,.688.09l.007.026A1.452,1.452,0,0,1,970.375,500.113Z" transform="translate(-839.74 -403.545)"/><path class="a" d="M922.1,468.553l-.4-.474q2.061,1.26,4,2.672A10.782,10.782,0,0,1,922.1,468.553Z" transform="translate(-860.503 -417.211)"/><path class="a" d="M918.684,464.169l-7.7-5.852a36.734,36.734,0,0,1-6.544-10.808C909.384,452.809,914.032,458.465,918.684,464.169Z" transform="translate(-867.868 -425.986)"/><path class="a" d="M939.124,453.061c-.534-1.486-.916-3.181-1.4-4.748l2.792,3.38C939.912,451.905,939.522,452.623,939.124,453.061Z" transform="translate(-853.67 -425.643)"/><path class="a" d="M929.549,474.353l-.688-.679,2.866.729C931.232,474.449,930.317,474.319,929.549,474.353Z" transform="translate(-857.45 -414.824)"/><path class="a" d="M933.082,442.12l1.909,2.582a7.432,7.432,0,0,0-2.354-.224A5.763,5.763,0,0,0,933.082,442.12Z" transform="translate(-855.839 -428.285)"/><path class="a" d="M925.269,435.459a30.065,30.065,0,0,1-2.792-3.037c1.355.913,2.723,1.9,4.053,2.912C925.854,435.519,925.283,435.71,925.269,435.459Z" transform="translate(-860.173 -432.422)"/></g><g transform="translate(416.238 574.799)"><path class="b" d="M445.795,561.672c1.494,1.882,2,4.106,2.915,5.973-.362-.748-.729-1.492-1.093-2.24a4.739,4.739,0,0,1,.068,3.688c-1.137-.031-.582-1.066-2.014-.812-.96-2.853-.191-6.273.417-9.55C449.6,558.825,445.428,560.926,445.795,561.672Z" transform="translate(-403.876 -507.925)"/><path class="b" d="M446.69,568.814a8.241,8.241,0,0,1-.344-.823C446.584,568.241,446.785,568.5,446.69,568.814Z" transform="translate(-403.394 -503.975)"/><path class="b" d="M432.477,550.688a2.992,2.992,0,0,1-.7-.85A1.545,1.545,0,0,1,432.477,550.688Z" transform="translate(-409.611 -511.719)"/><path class="b" d="M439.749,561.274a3.269,3.269,0,0,1-.765-.33c-.083-1.427-.087-2.9-.044-4.409C439.053,558.128,440.892,559.276,439.749,561.274Z" transform="translate(-406.565 -508.862)"/><path class="b" d="M437.941,561.511a4.94,4.94,0,0,1-.521,4.562A8.454,8.454,0,0,0,437.941,561.511Z" transform="translate(-407.202 -506.74)"/><path class="b" d="M418.98,547.585a2.748,2.748,0,0,1-.659.148,1.2,1.2,0,0,0-.368,0c.18-.658.372-1.317.582-1.98.184.089.728.051.79.183C419.107,546.668,417.917,547.189,418.98,547.585Z" transform="translate(-415.506 -513.461)"/><path class="b" d="M432.415,550.672l.154-.011c.106.09.211.178.311.268-.023.021-.04.041-.07.067A1.162,1.162,0,0,1,432.415,550.672Z" transform="translate(-409.337 -511.368)"/><path class="b" d="M419.136,547.733c-.5.173-1,.347-1.384.522.088-.367.187-.735.285-1.1a3.25,3.25,0,0,0,.369-.009C418.825,547.232,418.417,547.714,419.136,547.733Z" transform="translate(-415.592 -512.87)"/><path class="b" d="M417.608,553.679c.091.185,1.174.029,1.462.037a8.185,8.185,0,0,0-1.241,2.178c.29.009.381.2.964.211a9.631,9.631,0,0,0-.959.7,27.254,27.254,0,0,1-.591-4.27A2.435,2.435,0,0,1,417.608,553.679Z" transform="translate(-415.809 -510.57)"/><g class="c"><path class="d" d="M422.247,529.95c1.314,1.509-.736,4.4,2.552,5.227,1.061-2.551.773-5.508,5.124-7.234s1.275,2.612,2,4.107l.806-.718c-.4.358-.806.718-.223.732a11.874,11.874,0,0,1,2.82-2.505l1.168.03c3-2.13,3.074-4.34,6.07-6.471-9.072,8.6-2.241,14.312.678,20.283,2.626,3.019,7.634,4.992,13.042,6.608.765.39.909,1.867.873,2.972a15.589,15.589,0,0,0,4.932,4.183c3.21,3.033,1.882,7.4,3.715,11.153.365.747-3.619,3.22-5.521,1.7a7.412,7.412,0,0,1-3.654-4.171c1.431-.254.872.78,2.014.81a4.728,4.728,0,0,0-.07-3.686c.365.746.728,1.494,1.094,2.24-.913-1.866-1.424-4.09-2.919-5.973-.367-.746,3.8-2.846.294-2.939-.608,3.275-1.378,6.7-.414,9.548a1.072,1.072,0,0,0-.107.019,36.993,36.993,0,0,1,1.258,3.642c-.311-.322-.69-.632-.563-1.046a11.882,11.882,0,0,0,0,5.895c-6.318-3.484-4.925-10.079-8.284-14.588-1.83,2.161,2.043,3-.368,5.149a28.133,28.133,0,0,1-1.31-7.344,3.326,3.326,0,0,0,.765.329c1.141-2-.693-3.147-.81-4.739.006-.148.007-.292.013-.441a2.417,2.417,0,0,0-.013.441c-.04,1.511-.036,2.981.046,4.41a1.923,1.923,0,0,1-.914-1.926,4.118,4.118,0,0,0-1.243,2.177c.183.809.367,1.616.478,2.438a6.115,6.115,0,0,0-3-2.872c-.407,1.932.061,3.636.064,5.444-.457-.847-.932-1.686-1.4-2.531a43.79,43.79,0,0,0-.31-4.943c.049.049.1.1.146.148-.054-.113-.108-.224-.168-.334-.09-.635-.2-1.267-.341-1.892a3.179,3.179,0,0,0-1.87-1.176c-.04-.087-.08-.174-.114-.261.489.03.952-.027,1.073-.429.84-1.819-1.86-2.629-.616-4.806.324-.572-.1-1.063-.663-1.559.271-.272.041-.3-.31-.268-.124-.107-.247-.215-.365-.325a1.571,1.571,0,0,0-.708-.849,3.086,3.086,0,0,0,.708.849,1.8,1.8,0,0,0,.205.338c-.4.036-.866.09-.95-.083a33.276,33.276,0,0,0,1.626,7.133c-.4-.026-.82-.111-1.083-.118.409.123.815.247,1.2.379a10.911,10.911,0,0,0,1.232,2.114,3.519,3.519,0,0,0-1.335-.254,23.443,23.443,0,0,0,2.646,6.336c.037,2.242.017,4.479.228,6.638a7.285,7.285,0,0,0,1.167-4.107c1.558,2.895,2.869,5.875,2.554,9.364-1.752-.047-3.106-.451-5.258-.14-.991.344-1.024,1.447-1.793,1.059-3.471-1.2-1.462-3.505-7.344-2.555-1.571.328-6.179,4.408-7.532,4A9.916,9.916,0,0,1,420.96,572a3.71,3.71,0,0,0-.1-1.183c.09-.081-.253-.059-.641-.044a6.388,6.388,0,0,1-1-3.314c.048-.3.086-.6.117-.893a5.557,5.557,0,0,1,1.108-.733,3.826,3.826,0,0,1-1.034-.2,17.845,17.845,0,0,0,0-2.261c.359-.532.787-1.083,1.076-1.586a6.232,6.232,0,0,1-1.18.375c-.1-.9-.257-1.78-.445-2.646a6.869,6.869,0,0,1,1.756-1.595c-3.417.094-2.153-2.636-3.083-3.95l-.114.039c-.2-.749-.385-1.506-.552-2.281a9.9,9.9,0,0,1,.962-.7c-.585-.016-.679-.2-.971-.208a8.25,8.25,0,0,1,1.247-2.178c-.292-.007-1.371.148-1.462-.039a2.488,2.488,0,0,0-.368-1.144q-.041-.706-.031-1.445a25.72,25.72,0,0,1,.762-5.134c.385-.175.883-.348,1.38-.521-.716-.02-.308-.5-.728-.591a2.631,2.631,0,0,0,.653-.148c-1.054-.4.13-.917.352-1.649-.064-.13-.606-.094-.795-.181.026-.081.051-.161.079-.244,2.023-1.4,1.056-1.835.877-2.613.331-.94.671-1.882,1.01-2.825C420.054,531.367,421.441,530.668,422.247,529.95Z" transform="translate(-416.238 -523.118)"/></g><path class="b" d="M418.414,546.367c.275-.867.571-1.739.877-2.614C419.468,544.531,420.438,544.964,418.414,546.367Z" transform="translate(-415.31 -514.315)"/><path class="b" d="M421.243,561.047a6.883,6.883,0,0,0-1.758,1.595c-.4-1.853-.947-3.652-1.439-5.507l.114-.039C419.09,558.411,417.826,561.14,421.243,561.047Z" transform="translate(-415.467 -508.623)"/><path class="b" d="M418.321,547.146a3.278,3.278,0,0,1-.369.009v-.007A1.206,1.206,0,0,1,418.321,547.146Z" transform="translate(-415.507 -512.873)"/><path class="b" d="M434.805,558.231c.009.063.019.123.026.184a9.971,9.971,0,0,1-1-1.137A1.967,1.967,0,0,1,434.805,558.231Z" transform="translate(-408.733 -508.546)"/><path class="b" d="M434.747,561.54c.467.843.944,1.683,1.4,2.531a7.333,7.333,0,0,1-1.173,4.107C434.766,566.021,434.788,563.781,434.747,561.54Z" transform="translate(-408.342 -506.727)"/><path class="b" d="M420.549,562.575c-.288.5-.716,1.056-1.076,1.588-.024-.409-.058-.812-.1-1.211A6.133,6.133,0,0,0,420.549,562.575Z" transform="translate(-414.902 -506.286)"/><path class="b" d="M433.211,555.646c.036.088.074.176.114.261-.382-.131-.789-.255-1.2-.376C432.391,555.536,432.809,555.621,433.211,555.646Z" transform="translate(-409.461 -509.291)"/><path class="b" d="M419.387,566.211c.036-.317.059-.629.078-.939a3.676,3.676,0,0,0,1.034.205A5.619,5.619,0,0,0,419.387,566.211Z" transform="translate(-414.895 -505.135)"/><path class="b" d="M420.651,568.929a3.691,3.691,0,0,1,.1,1.18c-.265-.4-.515-.81-.742-1.225C420.4,568.869,420.742,568.846,420.651,568.929Z" transform="translate(-414.629 -503.601)"/></g><g transform="translate(549.365 401.969)"><rect class="e" width="464.959" height="312.278" transform="translate(1.245)"/><path class="f" d="M975.388,609.749v51.737H510.428V631.93q9,4.169,18,8.357a167.811,167.811,0,0,1,23.612-30.62c8.557-8.776,44.757-44.893,98.845-49.857,22.442-2.058,22.618,3.574,45.478.878,35.166-4.147,47.767-19,71.722-27.988,65.454-24.542,149.777,19.494,194.178,62.979C967.4,600.692,971.762,605.487,975.388,609.749Z" transform="translate(-509.184 -349.208)"/><path class="d" d="M509.556,606.618" transform="translate(-509.556 -314.667)"/><path class="g" d="M967.954,524.231c-3.043-6.179-7.361-5.147-10.933-12.244-1.516-3.013-1.906-6.423-2.624-13.12-2.19-20.436-2.047-19.861-2.187-20.556-1.539-7.627-7.732-13.685-20.118-25.8-11.8-11.543-18.721-18.315-30.613-23.616a77.349,77.349,0,0,0-22.3-6.123,24.129,24.129,0,0,0-3.936-10.059c-6.042-8.735-17.148-11.659-25.8-10.5-3.191.428-10.22,1.372-13.558,6.56-3.2,4.967.027,9.116-3.06,12.682-3.665,4.233-9.483-.131-18.369,3.061-10.376,3.728-16.018,14.554-16.62,15.744-3.338,6.611-2.708,11.3-6.122,12.684-3.32,1.342-7.672-1.575-10.933-4.374a78.713,78.713,0,0,0-13.995-17.931c-6.611-6.3-10.869-10.718-17.932-12.246-7.02-1.518-10.333,1-19.68-1.311-1.84-.457-1.411-.479-13.557-5.248-12.5-4.907-14.788-5.6-17.056-4.374-3.782,2.049-3.271,7.146-7.872,8.748a9.151,9.151,0,0,1-5.248,0c-17.764-3.952-22.145-7.11-28.864-5.686-4.965,1.053-5.183,3.328-10.934,3.936a25.832,25.832,0,0,1-11.808-1.749c-13.14-4.512-29.355.432-33.676,1.749-6.294,1.919-22.606,6.893-30.613,22.741-6.173,12.219-4.089,24.328-3.061,28.866a5.778,5.778,0,0,1,0,3.716c-.883,2.3-3.427,3.281-3.936,3.5-4.847,2.071-14.744,15.922-20.336,28.864-7.3,16.89-6.915,31.425-6.561,44.828a57.843,57.843,0,0,0,1.531,13.12c2.939,11.645,7.535,12.076,7.217,18.149-.305,5.8-4.868,11.521-13.995,22.96a12.967,12.967,0,0,0-2.843,5.9,12.771,12.771,0,0,0,.438,5.9c1.679,6.156-2.474,11.57-5.03,22.085-2.808,11.547.827,10.668-2.187,20.336-2.331,7.481-5.584,11.46-4.154,17.275.351,1.428,1.177,3.753,0,5.248-1.514,1.922-4.862.6-5.9,2.405-.763,1.32.09,3.653,1.531,4.811,1.735,1.392,3.257.227,7,.874,4.453.773,5.631,3,7.217,2.187.756-.388,1.255-1.291,1.749-8.09.551-7.6.036-7.935.874-10.277,1.2-3.348,2.792-4.166,2.405-6.341-.419-2.37-2.542-2.723-3.28-4.812-1.109-3.134,2.144-6.677,4.372-9.621,6.634-8.766,8.983-18.574,10.715-25.8,1.469-6.134.866-7.484,2.843-12.684.944-2.484,4.652-12.236,8.746-12.026,2.808.144,2.37,4.8,7.654,11.59,6.367,8.18,13.47,9.732,13.995,15.744a13.969,13.969,0,0,0,1.093,5.248,13.157,13.157,0,0,0,3.5,4.592,46.625,46.625,0,0,0,4.154,10.277c8.5,15.4,20.5,15.962,23.836,28.428,1.285,4.8-.3,5.47,1.531,14.65,1.126,5.659,2.382,8.707.656,11.371-2.251,3.471-7.231,2.689-7.435,4.592-.205,1.922,4.606,5.107,8.746,4.154,1.087-.25,3.284-1.056,5.9-5.467,3.847-6.477,3.638-13.444,3.061-27.115-.217-5.134-.581-8.609-3.061-10.059a6.7,6.7,0,0,0-5.248-.218c-2.678-14.3-8.089-23.37-12.682-29.082-5.618-6.986-8.846-7.507-11.808-14.213-3.835-8.684-1.146-13.978-3.936-25.8A59.535,59.535,0,0,0,578.5,581.3a19.214,19.214,0,0,0,7.435-11.371c1.268-6.571-1.8-11.98-3.062-14.213-2.98-5.26-4.92-4.237-7.434-9.4-.6-1.231-3.826-7.862-1.531-14.213a26.019,26.019,0,0,1,1.967-3.936,47.305,47.305,0,0,1,4.811-7,157.56,157.56,0,0,0,13.12-9.839c3.187-2.661,6.1-5.3,8.746-7.872,7.824,9.945,14.914,17.755,20.338,23.4,7.741,8.052,11.254,10.821,15.306,13.12a51.309,51.309,0,0,0,20.556,6.341c10.839,10.182,16.818,11.31,20.336,9.839,3.093-1.292,4.729-4.779,7.216-4.154,2.345.589,1.909,3.946,5.685,8.092,3.161,3.47,5.189,3.006,5.686,5.029.8,3.261-4.381,4.8-9.4,12.682-3.689,5.788-2.489,7.46-6.561,12.246-2.613,3.073-4.285,3.769-4.592,6.123-.474,3.638,3.181,4.589,4.156,9.4,1.106,5.462-2.926,7.591-1.313,11.808,1.321,3.455,5.735,6.5,8.966,5.248a5.387,5.387,0,0,0,3.28-4.81c-.05-2.731-2.83-2.976-4.374-6.561-1.361-3.159.241-4.257-.656-10.059-.723-4.673-1.836-4.438-1.531-6.341.733-4.552,7-5.2,14.433-11.59a41.015,41.015,0,0,0,6.123-6.56,22.322,22.322,0,0,0,5.174,8.31,21.111,21.111,0,0,0,4.665,3.5c11.036,6.313,15.842,14.778,28.573,19.972,9.775,3.987,10.207.331,17.64,4.519,8.373,4.718,15.6,13.742,17.2,15.744,1.009,1.258,1.8,2.33,2.332,3.062-2.074,39.393,12.565,67.534,23.034,71.869,1.643.682,14.765,5.572,23.032,4.374a13.307,13.307,0,0,1,3.5-.146c5.179.5,6.471,3.846,10.933,5.54,4.079,1.548,4.083-.84,12.682-.146,5.947.479,8.674,1.842,10.788,0,1.75-1.528,2.091-4.392,1.458-4.812s-1.963,1.87-4.081,1.749c-1.692-.1-2.144-1.629-4.083-2.915-2.87-1.9-4.512-.291-7.872-1.458-5.2-1.8-6.211-7.384-8.6-6.852-1.971.439-1.766,4.341-3.645,4.665-1.785.307-2.6-3.11-6.414-6.559-4.555-4.124-7.568-3.027-9.621-6.561-1.475-2.537-.263-3.692-1.021-8.163-1.317-7.773-6.173-11.311-5.1-12.537,1.606-1.839,11.036,7.843,20.847,5.394,2.03-.508,3.176-1.31,5.394-1.021,3.716.485,4.942,3.315,9.912,4.957a21.2,21.2,0,0,0,4.52.875c9.627,1.351,14.373,9.715,25.221,14.14a36.658,36.658,0,0,0,12.244,2.624c2.555,4.995,5.065,6.423,7,6.706,2.324.341,4.2-.916,7,.291.9.388.755.539,3.207,2.187,3.029,2.036,4.561,3.044,5.394,2.625,1.049-.529,1.218-2.758.729-4.374-1.007-3.331-5-4.675-6.268-5.1-3.414-1.148-3.885.148-5.976-.875-4.039-1.973-2.9-7.114-7.144-9.184-1.877-.916-2.439-.073-4.665-.874-3.815-1.372-5.094-4.906-7.143-8.017-6.5-9.866-18.8-12.587-20.7-12.975-5.35-1.093-5.163.556-8.456-.729-7.505-2.927-7.384-11.066-15.453-20.409-4.554-5.27-5.141-3.315-11.517-9.475-11.384-11-9.2-16.939-18.514-25.512-9.453-8.7-21.256-11.377-20.847-12.391.231-.568,3.7.869,9.477.292A52.494,52.494,0,0,0,806.284,598c7.059-.943,10.117,7.227,19.827,11.517,8.62,3.809,17.159,2.208,17.2,3.5.037,1.116-6.388.957-7.143,3.644-.922,3.283,6.845,10.006,11.517,8.455,3.059-1.016,3.14-5.029,6.85-5.685,1.936-.344,3.494.469,5.249-.729,1.247-.852,1.214-1.776,2.041-2.041,1.92-.616,4.442,3.615,6.56,5.832,4.589,4.8,11.672,4.748,22.3,4.665a71.472,71.472,0,0,0,21.429-3.5c.8,18.724,5.781,25.1,11.226,29.593,7.357,6.067,19.375,9.116,19.243,15.307-.033,1.554-.793,1.522-1.751,5.248-1.489,5.8-.066,7.521-1.311,11.37-1.793,5.541-6.364,6.99-5.687,8.31.876,1.7,9.4,1.031,13.12-3.936,1.738-2.318.8-3.922,3.062-8.31,2.609-5.069,5.22-5.575,5.249-8.309.031-2.963-3.019-3.875-6.56-7.872-5.688-6.418-2.719-9.585-8.31-17.932-4.729-7.056-8.578-7.37-8.746-11.808-.157-4.1,3.11-4.551,5.247-11.37,2.2-7.029-.5-8.982,2.187-13.12,2.545-3.912,5.758-3.385,8.747-7.872a16.678,16.678,0,0,0,2.625-7.873c7.987-9.428,9.608-17.073,9.621-22.3.019-8.067-3.785-14.344,0-20.992,1.991-3.5,3.565-2.676,6.123-6.559C969.88,539.642,971.252,530.926,967.954,524.231Zm-303.3,15.964c-4.876-.669-7.4-4.241-10.5-7-7.671-6.822-12.951-2.477-19.243-7.654-4.816-3.962-2.16-6.193-7.654-15.088-6.761-10.948-14.7-13.906-17.275-24.054-.494-1.946-.709-3.833.218-5.467,1.9-3.354,6.632-2.127,11.59-4.374,5.917-2.682,11.751-10.127,10.277-16.838-1.228-5.6-7.43-10.147-13.119-10.277-6.617-.148-8.8,5.761-19.025,9.4a38.5,38.5,0,0,1-12.9,2.186,45.4,45.4,0,0,0-2.187-13.12c-1.6-4.888-3.3-7.134-2.187-9.4,1.3-2.646,4.527-1.428,9.621-3.936,6.505-3.2,5.689-7.374,13.558-11.59,1.534-.822,4.945-2.474,8.746-1.749.264.051,3.35.665,3.5,1.967.1.907-1.32,1.225-1.531,2.407-.314,1.76,2.245,4.445,5.03,4.811,2.526.331,3.023-1.538,6.559-2.187,3.4-.625,3.976.914,8.092.656,2.628-.166,7.207-1.1,7.872-3.5.525-1.9-1.742-3.451-1.094-4.592.79-1.392,4.94-.445,6.779,0,14.106,3.418,16.012,7.291,21.867,6.343,4.233-.686,6.621-3.26,9.622-1.75,1.28.645,2.622,2.007,2.623,3.5,0,2.1-2.646,3.073-4.81,5.029-4.393,3.969-6.675,11.869-4.156,16.838,1.676,3.305,5.187,4.738,10.715,7a18.357,18.357,0,0,0,5.9,1.531c1.989.131,2.534-.215,5.9-.437a28.885,28.885,0,0,1,6.779,0c3.518.544,3.776,1.641,7.435,2.186,3.124.465,4.9-.043,5.029.438.258.946-7.013,1.555-10.277,6.56-3.03,4.649.046,9.025-2.843,12.246-2.616,2.919-7.517,1.974-11.37,1.749-15.1-.882-32.872,8.19-38.487,20.556-.738,1.625-4,8.816-1.311,15.526,2.243,5.592,9.528,13.1,16.837,17.275,1.141.652,3.223,1.76,3.061,2.842C672.1,539.652,668.054,540.661,664.658,540.194Zm44.172-2.624c-4.916,2.882-5.829,9.855-5.9,10.5-.34,2.9.314,4.86-.218,5.029-.786.251-2.691-3.877-4.154-6.778-2.14-4.24-5.926-11.745-10.5-16.62-8.06-8.6-18.837-9.307-18.367-12.9.117-.9.887-1.529,1.967-2.405,2.932-2.378,6.414-2.238,8.31-2.405,9.433-.835,11.129-12.07,20.554-12.464a20.467,20.467,0,0,1,7,.874c2.915,1.029,3.585,2.237,5.9,2.405,3.418.247,5.574-2.12,6.123-1.531.718.769-3.771,3.942-5.467,9.4-1.568,5.046-.4,10.9.874,17.275.641,3.206,1.335,5.5,0,7.217C713.559,536.957,711.677,535.9,708.83,537.571ZM862.556,564.03c3.159,7.4,6.43,9.961,7.216,17.493a32.438,32.438,0,0,1-2.405,15.526,29.706,29.706,0,0,1-8.528,7.435c-2.9,1.669-7.785,4.481-12.9,3.28a13.69,13.69,0,0,1-7-4.592c-4.9-5.421-12.668-8.862-28.208-15.744-7.036-3.117-21.42-8.247-43.952-8.092A35.04,35.04,0,0,0,753,564.03c-3.5-2.041-11.784-6.878-20.118-3.718-1.138.432-6.569,2.491-8.528,7.654-1.89,4.982-.191,11.925,3.28,15.088.581.528,1.753,1.447,1.531,1.969-.271.635-2.619.668-4.372-.22-3.036-1.532-2.671-4.993-5.467-9.4a20.5,20.5,0,0,0-5.467-5.685,40.875,40.875,0,0,0,10.057-9.841c2.735-3.819,6.656-9.294,6.343-16.182-.164-3.6-1.307-3.681-1.094-6.778.368-5.346,3.86-6.44,6.779-12.684,2.171-4.644.852-5.347,3.28-14.869,1.415-5.545,2.688-8.542,3.718-11.59,1.331-3.939,5.592-16.553,3.5-31.706a59.962,59.962,0,0,0-10.714-26.9,56.391,56.391,0,0,0-3.936-4.811,24.083,24.083,0,0,0,7.872-1.531c4.482-1.7,5.679-3.755,7.872-3.28,2.661.575,2.224,3.89,5.9,8.308,2.325,2.79,5.194,4.412,10.935,7.654,6.189,3.5,6.018,2.448,8.528,4.374,5.806,4.455,4.491,8.358,9.839,12.026.964.662,6.132,4.207,11.153,2.405,4.106-1.472,6.465-5.93,7.216-9.184C802.2,450.393,800,447.66,802.2,444.2c.712-1.123,1.429-1.6,3.936-3.281,11.15-7.474,11.406-7.691,12.464-7.872,5.607-.951,5.929,3.886,12.682,3.936s9.619-4.761,17.056-3.5c1.732.294,2.943.516,3.936,1.531,2.655,2.709-.1,7.123,2.187,12.244.973,2.184,1.582,1.626,3.936,4.812,3.632,4.91,2.487,6.644,7,17.275,1.176,2.769,1.86,4.08,1.969,6.341.15,3.111-.964,4.405-1.093,7.435-.2,4.683,2.7,6.026,1.967,7.872-1.271,3.2-9.949.625-21.211,1.967a56.222,56.222,0,0,0-24.71,9.184A70.357,70.357,0,0,0,808.107,515.7c-.927,1.166-.718.981-4.592,6.122-7.936,10.53-8.033,10.266-9.184,12.246-4.529,7.8-1.325,8.989-5.467,15.088-3.88,5.715-7.86,6.387-9.184,12.028-.308,1.314-1.034,4.407.656,7,1.8,2.759,5.732,4.01,10.059,3.28-.154-6.721,1.78-10.36,3.718-12.464,2.555-2.775,5.8-3.631,6.341-6.778.445-2.614-1.505-3.732-.875-5.9.832-2.87,4.983-3.515,7.872-4.81,3.76-1.689,8.159-5.731,11.152-15.964a19.065,19.065,0,0,0,5.248-3.061c3.448-2.852,3.575-5.094,5.467-6.778,4.151-3.7,11.026.442,19.462.873,4.775.245,11.915-.6,20.992-6.34a3.824,3.824,0,0,1,2.624,1.749c1.663,3.5-7.2,8.11-11.59,16.4C853.716,541.772,860.817,559.956,862.556,564.03ZM901.7,616.182c-.563,4.12-17.627,6.291-21.211,1.969a16.293,16.293,0,0,0-3.28-3.608c-1.956-1.519-3.375-1.77-3.39-2.625-.02-1.117,2.39-1.284,3.936-3.39a6.972,6.972,0,0,0,1.2-4.263C898.315,610.611,901.977,614.133,901.7,616.182Zm43.37-103.321c-2.461,8.568-.758,10.764-3.79,18.367-1.506,3.779-2.3,5.7-4.374,7-4.445,2.8-9.043-.732-11.663,1.75-2.362,2.238.377,6.062-.291,12.828-.663,6.718-3.783,7.194-6.414,14.869-4.03,11.757.485,18.817-3.5,21.285-3.358,2.08-6.46-3.007-15.161-3.5-10.453-.591-17.607,6.091-19.827,3.5-1.248-1.458,1-3.588.292-8.164-.695-4.5-3.194-4.611-4.665-8.746-2.415-6.791,3.033-10.115,1.457-20.118-.723-4.6-1.947-4.36-1.749-7,.561-7.448,10.371-10.06,17.785-16.911,9.521-8.8,11.377-21.146,12.537-28.864,2.7-18-2.678-38.334-10.5-44.317a15.637,15.637,0,0,1-4.957-6.123c-1.478-3.37-2.021-8.254,0-9.621,1.672-1.13,3.711,1.08,9.039,2.916,8.6,2.962,11.918.185,16.036,3.207,3.963,2.907,1.676,6.059,5.247,11.953,6.167,10.176,17.163,7.679,21.285,17.494a41.653,41.653,0,0,1,2.332,9.33c.6,4.368.068,5.324.874,9.038,1.064,4.915,2.475,5.42,2.916,8.748C948.477,505.519,946.9,506.46,945.067,512.861Z" transform="translate(-509.184 -401.969)"/></g></g></svg>