<svg xmlns="http://www.w3.org/2000/svg" width="121.691" height="118.69" viewBox="0 0 121.691 118.69"><g transform="translate(-229.423 -101.733)"><g transform="translate(229.423 101.733)"><g transform="translate(0.672 0.672)" opacity="0.47"><path d="M429.169,540.868s4.951,4.126,4.951,18.153v70.34s8.87,15.883,56.313,14.233S541.59,627.71,541.59,627.71v-68.69s-.619-14.646,5.982-18.153-15.058-15.471-57.138-14.439S423.6,530.967,429.169,540.868Z" transform="translate(-428.392 -526.366)" fill="#e9f0f3"/></g><path d="M483.393,644.158c-41.377,0-49.733-14.068-50.084-14.7l-.085-.152V558.794c0-13.556-4.662-17.6-4.71-17.637l-.1-.079-.061-.108a5.035,5.035,0,0,1-.254-5.209c3.519-6.19,22.087-9.248,62.086-10.229,36.734-.9,57.57,7.812,58.914,12.941a2.318,2.318,0,0,1-1.445,2.76c-6.151,3.268-5.633,17.39-5.627,17.532v68.8l-.022.083c-.157.6-4.384,14.735-51.782,16.383Q486.67,644.16,483.393,644.158Zm-48.828-15.219c1.02,1.509,11.6,15.29,55.619,13.757,44.449-1.546,50.12-14.27,50.509-15.32V558.794c-.025-.587-.557-15.083,6.338-18.745.967-.514.834-1.02.777-1.236-.958-3.654-20.112-12.856-57.585-11.941-24.172.592-56.789,2.227-60.953,9.551a3.69,3.69,0,0,0,.206,3.8c.75.7,5.089,5.341,5.089,18.575Z" transform="translate(-427.494 -525.468)" fill="#e9f0f3"/><g transform="translate(5.71 4.146)"><path d="M489.129,553.151c-26.18,0-54-3.88-54-11.071s27.824-11.072,54-11.072,54,3.88,54,11.072S515.308,553.151,489.129,553.151Zm0-20.8c-31.035,0-52.663,5.129-52.663,9.731s21.628,9.73,52.663,9.73,52.662-5.128,52.662-9.73S520.163,532.349,489.129,532.349Z" transform="translate(-435.125 -531.008)" fill="#e9f0f3"/></g><g transform="translate(9.913 88.013)"><path d="M490.543,669c-24.48,0-49.8-4.846-49.8-12.955s25.321-12.955,49.8-12.955,49.8,4.846,49.8,12.955S515.023,669,490.543,669Zm0-24.513c-28.954,0-48.4,5.976-48.4,11.557s19.45,11.558,48.4,11.558,48.4-5.976,48.4-11.558S519.5,644.489,490.543,644.489Z" transform="translate(-440.742 -643.092)" fill="#bad6e3"/></g><g transform="translate(23.684 22.886)" opacity="0.38"><path d="M459.146,556.053l.91,91.394,11.076,2.37V557.67Z" transform="translate(-459.146 -556.053)" fill="#e9f0f3"/></g><g transform="translate(82.277 22.886)" opacity="0.38"><path d="M549.438,556.053l-.91,91.394-11.076,2.37V557.67Z" transform="translate(-537.452 -556.053)" fill="#e9f0f3"/></g><g transform="translate(99.546 20.972)" opacity="0.38"><path d="M560.532,554.656v90.087l4.6-1.892V553.5Z" transform="translate(-560.532 -553.495)" fill="#e9f0f3"/></g></g><g transform="translate(242.676 129.788)" opacity="0.5"><ellipse cx="47.156" cy="9.359" rx="47.156" ry="9.359" transform="translate(0.711 0.712)" fill="#d6e7ee"/><path d="M493.072,583.1c-23.2,0-47.867-3.529-47.867-10.071s24.662-10.071,47.867-10.071,47.868,3.53,47.868,10.071S516.278,583.1,493.072,583.1Zm0-18.719c-27.37,0-46.444,4.557-46.444,8.648s19.074,8.647,46.444,8.647,46.445-4.557,46.445-8.647S520.443,564.385,493.072,564.385Z" transform="translate(-445.205 -562.962)" fill="#bad6e3"/></g><g transform="translate(336.096 141.025)"><path d="M571.523,578.012s-1.89,54.513,1.616,61.651" transform="translate(-570.298 -577.987)" fill="#d6e7ee"/><path d="M572.259,639.968c-3.544-7.215-1.766-59.756-1.688-61.989l1.422.049c-.019.543-1.844,54.415,1.543,61.313Z" transform="translate(-570.057 -577.979)" fill="#bad6e3"/></g><g transform="translate(239.443 141.341)"><path d="M445.311,578.42s-1.032,53.013-3.507,62.3" transform="translate(-441.116 -578.406)" fill="#d6e7ee"/><path d="M442.26,640.894l-1.375-.367c2.425-9.094,3.473-61.6,3.483-62.126l1.422.028C445.749,580.6,444.73,631.634,442.26,640.894Z" transform="translate(-440.885 -578.401)" fill="#bad6e3"/></g></g></svg>