<svg xmlns="http://www.w3.org/2000/svg" width="436.761" height="214.636" viewBox="0 0 436.761 214.636"><defs><style>.a{fill:#fcdf56;}.b{fill:#44bbbd;}.c{fill:#f2f2f2;}.d{fill:#670617;}.e{fill:#ccc;}.f{opacity:0.2;}.g{fill:gray;}.h{fill:none;stroke:#670617;stroke-linecap:round;stroke-width:2.146px;}.h,.i{stroke-miterlimit:10;}.i{fill:#fff;stroke:#36a5ad;stroke-width:3.522px;}.j{fill:#4a566b;font-size:12px;font-family:FiraGO-Book, FiraGO;}.k{font-family:FiraGO-Book;}</style></defs><g transform="translate(-681.239 -115.239)"><g transform="translate(683 117)"><g transform="translate(298.712 92.375)"><g transform="translate(2.94 30.391)"><path class="a" d="M550.882,222.863c-.026-.04-2.7-3.989-12.117-4.652-7.277-.571-12.441-3.185-15.364-7.771-5.215-8.186-1.089-19.467-.911-19.943l3.825,1.428c-.036.1-3.587,9.878.539,16.334,2.2,3.439,6.308,5.417,12.214,5.88,11.542.812,14.951,6.013,15.3,6.6l-3.51,2.086Z" transform="translate(-520.774 -190.497)"/></g><g transform="translate(47.693 91.488)"><path class="a" d="M573.972,285.669l-2.265-3.4a1.781,1.781,0,0,0-.572.6c.652-1.24,4.568-13.094,7.922-23.618l3.89,1.241c-.019.059-1.913,6-3.858,11.914C574.942,285.022,574.737,285.159,573.972,285.669Z" transform="translate(-571.135 -259.251)"/></g><g transform="translate(35.527 108.774)"><path class="b" d="M575.633,279.534s2.121,9.324-2.019,10.895l-16.07-4.254s-1.948-8.9,11.379-7.273Z" transform="translate(-557.444 -278.703)"/></g><g transform="translate(81.13 91.488)"><path class="a" d="M617.737,285.669c-.764-.509-.97-.646-5.118-13.263-1.944-5.915-3.839-11.855-3.858-11.915l3.89-1.24c3.354,10.524,7.271,22.379,7.922,23.618a1.781,1.781,0,0,0-.572-.6Z" transform="translate(-608.762 -259.251)"/></g><g transform="translate(86.377 108.774)"><path class="b" d="M615.21,279.534s-2.121,9.324,2.019,10.895l16.07-4.254s1.948-8.9-11.379-7.273Z" transform="translate(-614.667 -278.703)"/></g><g transform="translate(114.428 41.336)"><path class="a" d="M655.916,227.033h-.069l.022-4.082h.05a7.849,7.849,0,0,0,7.2-4.845c1.421-3.116,1.118-6.766-.737-8.878-3.175-3.615-11.941-2.173-15.052-1.313l-1.094-3.934a37,37,0,0,1,7.234-1.126c5.554-.287,9.584.952,11.979,3.677,2.926,3.332,3.484,8.663,1.385,13.266A11.826,11.826,0,0,1,655.916,227.033Z" transform="translate(-646.232 -202.814)"/></g><g transform="translate(22.256)"><path class="b" d="M542.511,156.3l10.2,60.452h80.608l7.959-60.452Z" transform="translate(-542.511 -156.298)"/></g><g transform="translate(27.355 6.127)"><path class="c" d="M548.248,163.193l8.845,51.262h72.833l6.9-51.262Z" transform="translate(-548.248 -163.193)"/></g><g transform="translate(18.379 60.248)"><path class="b" d="M538.147,262.083,552.228,224.1h80.608l11.02,37.987Z" transform="translate(-538.147 -224.096)"/></g><g transform="translate(60.418 86.798)"><path class="c" d="M585.454,262.347l2.293-8.373h17.931l1.612,8.373Z" transform="translate(-585.454 -253.973)"/></g><g transform="translate(32.524 63.531)"><g transform="translate(58.141 9.379)"><path class="c" d="M624.558,238.345h-5.065l1.038,4.085h5.218Z" transform="translate(-619.492 -238.345)"/></g><g transform="translate(51.659 9.379)"><path class="c" d="M617.206,238.345H612.2l.692,4.085h5.354Z" transform="translate(-612.198 -238.345)"/></g><g transform="translate(28.574 9.379)"><path class="c" d="M590.583,238.345H586.54l-.319,4.085h4.185Z" transform="translate(-586.22 -238.345)"/></g><g transform="translate(39.706 9.379)"><path class="c" d="M602.871,238.345h-4.124l.138,4.085h4.436Z" transform="translate(-598.747 -238.345)"/></g><g transform="translate(34.189 9.379)"><path class="c" d="M596.626,238.345h-3.91l-.177,4.085h4.225Z" transform="translate(-592.539 -238.345)"/></g><g transform="translate(45.267 9.379)"><path class="c" d="M609.948,238.345h-4.943l.45,4.085h5.185Z" transform="translate(-605.005 -238.345)"/></g><g transform="translate(55.759)"><path class="c" d="M617.43,230.226h4.805l-.71-2.435h-4.714Z" transform="translate(-616.811 -227.791)"/></g><g transform="translate(50.071)"><path class="c" d="M610.823,230.226h4.42l-.619-2.435H610.41Z" transform="translate(-610.41 -227.791)"/></g><g transform="translate(56.741 3.865)"><path class="c" d="M617.916,232.14l1.038,4.085h5.012l-1.19-4.085Z" transform="translate(-617.916 -232.14)"/></g><g transform="translate(44.235)"><path class="c" d="M604.111,230.226h4.531l-.412-2.435h-4.387Z" transform="translate(-603.843 -227.791)"/></g><g transform="translate(63.087 3.865)"><path class="c" d="M630.1,232.14h-5.042l1.19,4.085h5.042Z" transform="translate(-625.058 -232.14)"/></g><g transform="translate(61.961)"><path class="c" d="M623.791,227.791l.71,2.435h5.042l-.71-2.435Z" transform="translate(-623.791 -227.791)"/></g><g transform="translate(17.174 3.865)"><path class="c" d="M573.391,236.225h4.768l.639-4.085h-4.271Z" transform="translate(-573.391 -232.14)"/></g><g transform="translate(50.725 3.865)"><path class="c" d="M615.688,232.14h-4.542l.692,4.085h4.887Z" transform="translate(-611.147 -232.14)"/></g><g transform="translate(44.66 3.865)"><path class="c" d="M604.772,236.225h4.858l-.692-4.085h-4.616Z" transform="translate(-604.322 -232.14)"/></g><g transform="translate(8.826 9.379)"><path class="c" d="M570.465,238.345h-4.9L564,242.43h5.332Z" transform="translate(-563.998 -238.345)"/></g><g transform="translate(39.519 3.865)"><path class="c" d="M598.675,236.225h4.015l-.45-4.085h-3.7Z" transform="translate(-598.537 -232.14)"/></g><g transform="translate(2.734 9.379)"><path class="c" d="M557.142,242.43H561.7l1.567-4.085H558.8Z" transform="translate(-557.142 -238.345)"/></g><g transform="translate(23.388 3.865)"><path class="c" d="M580.384,236.225h4.185l.319-4.085h-3.866Z" transform="translate(-580.384 -232.14)"/></g><g transform="translate(39.388)"><path class="c" d="M598.472,230.226h3.6l-.268-2.435h-3.409Z" transform="translate(-598.389 -227.791)"/></g><g transform="translate(15.641 9.379)"><path class="c" d="M577.1,242.43l.639-4.085H572.8l-1.136,4.085Z" transform="translate(-571.666 -238.345)"/></g><g transform="translate(29.006 3.865)"><path class="c" d="M586.706,236.225H590.7l.177-4.085h-3.851Z" transform="translate(-586.706 -232.14)"/></g><g transform="translate(34.429 3.865)"><path class="c" d="M592.809,236.225h3.8l-.138-4.085h-3.483Z" transform="translate(-592.809 -232.14)"/></g><g transform="translate(22.525 9.379)"><path class="c" d="M584.349,238.345h-4.3l-.639,4.085h4.616Z" transform="translate(-579.413 -238.345)"/></g><g transform="translate(71.225 9.379)"><path class="c" d="M638.953,238.345h-4.738l1.19,4.085h4.712Z" transform="translate(-634.215 -238.345)"/></g><g transform="translate(66.302 14.893)"><path class="c" d="M633.718,244.55h-5.042l1.548,5.31h5.042Z" transform="translate(-628.675 -244.55)"/></g><g transform="translate(64.695 9.379)"><path class="c" d="M626.867,238.345l1.19,4.085H633.1l-1.19-4.085Z" transform="translate(-626.867 -238.345)"/></g><g transform="translate(69.618 3.865)"><path class="c" d="M632.407,232.14l1.19,4.085h4.747l-1.165-4.085Z" transform="translate(-632.407 -232.14)"/></g><g transform="translate(52.593 14.893)"><path class="c" d="M618.724,244.55h-5.475l.9,5.31h5.925Z" transform="translate(-613.249 -244.55)"/></g><g transform="translate(59.542 14.893)"><path class="c" d="M626.34,244.55h-5.271l1.349,5.31h5.47Z" transform="translate(-621.069 -244.55)"/></g><g transform="translate(0 14.893)"><path class="c" d="M560.813,244.55h-4.594l-2.154,5.31h4.711Z" transform="translate(-554.065 -244.55)"/></g><g transform="translate(45.874 14.893)"><path class="c" d="M610.958,244.55h-5.27l.584,5.31h5.585Z" transform="translate(-605.688 -244.55)"/></g><g transform="translate(72.832 14.893)"><path class="c" d="M636.024,244.55l1.548,5.31h4.67l-1.514-5.31Z" transform="translate(-636.024 -244.55)"/></g><g transform="translate(4.97 3.865)"><path class="c" d="M564.1,236.225l1.567-4.085h-4.351l-1.657,4.085Z" transform="translate(-559.659 -232.14)"/></g><g transform="translate(68.491)"><path class="c" d="M631.14,227.791l.71,2.435h4.781l-.694-2.435Z" transform="translate(-631.14 -227.791)"/></g><g transform="translate(7.207)"><path class="c" d="M566.5,230.226l.934-2.435h-4.266l-.988,2.435Z" transform="translate(-562.175 -227.791)"/></g><g transform="translate(39.893 14.893)"><path class="c" d="M603.5,244.55h-4.544l.18,5.31h4.949Z" transform="translate(-598.957 -244.55)"/></g><g transform="translate(18.707)"><path class="c" d="M575.117,230.226h4.1l.381-2.435h-3.8Z" transform="translate(-575.117 -227.791)"/></g><g transform="translate(13.057)"><path class="c" d="M568.759,230.226h4.167l.677-2.435h-3.91Z" transform="translate(-568.759 -227.791)"/></g><g transform="translate(24.25)"><path class="c" d="M581.354,230.226h3.754l.19-2.435h-3.563Z" transform="translate(-581.354 -227.791)"/></g><g transform="translate(29.437)"><path class="c" d="M587.191,230.226h3.8l.106-2.435h-3.717Z" transform="translate(-587.191 -227.791)"/></g><g transform="translate(10.942 3.865)"><path class="c" d="M571.128,236.225l1.136-4.085h-4.318l-1.567,4.085Z" transform="translate(-566.378 -232.14)"/></g><g transform="translate(34.669)"><path class="c" d="M593.078,230.226h3.373l-.083-2.435h-3.185Z" transform="translate(-593.078 -227.791)"/></g><g transform="translate(33.897 14.893)"><path class="c" d="M596.776,244.55H592.44l-.231,5.31h4.747Z" transform="translate(-592.21 -244.55)"/></g><g transform="translate(6.241 14.893)"><path class="c" d="M567.132,249.86l1.477-5.31h-5.483l-2.037,5.31Z" transform="translate(-561.088 -244.55)"/></g><g transform="translate(28.047 14.893)"><path class="c" d="M590.277,244.55h-4.235l-.415,5.31h4.419Z" transform="translate(-585.627 -244.55)"/></g><g transform="translate(13.767 14.893)"><path class="c" d="M576.646,244.55h-5.612l-1.476,5.31h6.258Z" transform="translate(-569.557 -244.55)"/></g><g transform="translate(21.471 14.893)"><path class="c" d="M583.786,244.55h-4.728l-.83,5.31h5.143Z" transform="translate(-578.227 -244.55)"/></g></g><g transform="translate(84 23.483)"><path class="d" d="M626.334,192.883h-.007a.877.877,0,0,1-.871-.885c.032-4.12-2.568-7.491-5.8-7.517h-.036a5.259,5.259,0,0,0-4.057,2.087,8.525,8.525,0,0,0-1.82,5.338.879.879,0,0,1-.878.872h-.007a.877.877,0,0,1-.871-.885,10.272,10.272,0,0,1,2.217-6.437,6.977,6.977,0,0,1,5.414-2.73h.052c4.2.033,7.578,4.2,7.537,9.287A.878.878,0,0,1,626.334,192.883Z" transform="translate(-611.991 -182.724)"/><g transform="translate(2.031 3.735)"><circle class="d" cx="3.888" cy="3.888" r="3.888"/></g></g><g transform="translate(46.042 23.483)"><path class="d" d="M583.62,192.883h-.007a.878.878,0,0,1-.872-.885c.033-4.12-2.566-7.491-5.795-7.517h-.036a5.261,5.261,0,0,0-4.057,2.087,8.519,8.519,0,0,0-1.819,5.338.879.879,0,0,1-.879.872h-.007a.878.878,0,0,1-.871-.885,10.271,10.271,0,0,1,2.217-6.437,6.977,6.977,0,0,1,5.414-2.73h.052c4.2.033,7.577,4.2,7.537,9.287A.877.877,0,0,1,583.62,192.883Z" transform="translate(-569.277 -182.724)"/><g transform="translate(2.031 3.735)"><circle class="d" cx="3.888" cy="3.888" r="3.888"/></g></g><g transform="translate(117.992 57.775)"><path class="e" d="M659.306,222.23s-9.987-3.507-8.994,3.2S657.92,222.786,659.306,222.23Z" transform="translate(-650.243 -221.313)"/><g transform="translate(1.34 0.917)"><path class="e" d="M659.474,222.345s-6.988,3.052-7.64,6.163a2.959,2.959,0,0,0,3.488,3.556s-1.6,2.912,1.545,2.725S670.637,227.653,659.474,222.345Z" transform="translate(-651.751 -222.345)"/></g></g><g transform="translate(27.355 6.127)"><path class="e" d="M548.248,163.193l8.845,51.262H608.05l-48.392-2.718Z" transform="translate(-548.248 -163.193)"/></g><g class="f" transform="translate(18.379 60.248)"><path d="M552.228,224.1l-14.081,37.987h48.814L542.025,260Z" transform="translate(-538.147 -224.096)"/></g><g transform="translate(0 18.132)"><g transform="translate(0 6.26)"><path class="e" d="M525.446,186.336s1.771-4.482,3.083-1.651-.01,7.453-3.034,6.879-4.939,4.86-7.055,1.68S517.227,182.684,525.446,186.336Z" transform="translate(-517.465 -183.747)"/></g><g transform="translate(4.47)"><path class="e" d="M525.69,187.174a10.532,10.532,0,0,1-2.741-4.237c-.554-2.208-.93-6.819.915-6.173s2.171,2.255,2.206,4.48a11.431,11.431,0,0,0,1.433,4.7C527.718,186.453,527.016,188.163,525.69,187.174Z" transform="translate(-522.495 -176.702)"/></g><g transform="translate(7.147 7.53)"><path class="g" d="M527,185.175s-1.419,2.042-1.274,3.074.794,1.353,1.169,1.073c0,0-1.105.65-1.319-.15a4.617,4.617,0,0,1,.445-2.782A5.423,5.423,0,0,1,527,185.175Z" transform="translate(-525.508 -185.175)"/></g><g transform="translate(1.706 8.802)"><path class="g" d="M522.3,186.609c-.028-.115.419,4.5-1.18,4.925s-1.731,1.345-1.731,1.345a12.533,12.533,0,0,1,1.985-1.153C522.225,191.376,523.012,189.5,522.3,186.609Z" transform="translate(-519.385 -186.607)"/></g><g transform="translate(8.821 9.473)"><path class="g" d="M528.565,187.362s.046,1.608-1.173,2.079a1.453,1.453,0,0,0,.89-.5A2.092,2.092,0,0,0,528.565,187.362Z" transform="translate(-527.392 -187.362)"/></g><g transform="translate(5.479 8.074)"><path class="g" d="M523.882,185.788a18.559,18.559,0,0,0,1.419,1.548,12.043,12.043,0,0,1-1.67-1.512Z" transform="translate(-523.631 -185.788)"/></g></g><g transform="translate(4.459 19.092)"><path class="g" d="M522.661,177.783a11.005,11.005,0,0,0,1.093,7.114c1.149,2,1.419,1.548,1.419,1.548a8.87,8.87,0,0,1-1.9-3.933C522.859,180.232,522.875,179.107,522.661,177.783Z" transform="translate(-522.483 -177.783)"/></g><path class="h" d="M586.767,207.518s11.1,8.921,20.02,0C606.787,207.518,600.455,202.411,586.767,207.518Z" transform="translate(-525.182 -161.749)"/></g><g transform="translate(0 0)"><path class="i" d="M502.644,126.078l-.067.049c.043-.764.067-1.534.067-2.308V94.062a41.838,41.838,0,0,0-41.715-41.715H223.035A41.839,41.839,0,0,0,181.32,94.062V123.82a41.839,41.839,0,0,0,41.715,41.715h225.25l67.555,26.507Z" transform="translate(-181.32 -52.347)"/><text class="j" transform="translate(25.344 31.79)"><tspan x="0" y="0" xml:space="preserve">დათო და ანა,  დაფიქრდით, სად შეიძლება </tspan><tspan x="0" y="15">ჩავსვათ კვლევის ეს სამი ნაბიჯი?</tspan><tspan x="0" y="30">თუ სწორად დაგეგემავთ კვლევას, </tspan><tspan x="0" y="45">აღმოაჩენთ საინტერესო პასუხებს დასმულ </tspan><tspan x="0" y="60">შეკითხვებზე.</tspan><tspan x="0" y="75"></tspan><tspan class="k"><tspan x="0" y="90"></tspan></tspan></text></g></g></g></svg>