<svg xmlns="http://www.w3.org/2000/svg" xmlns:xlink="http://www.w3.org/1999/xlink" width="1366" height="771" viewBox="0 0 1366 771"><defs><style>.a,.ad,.g{fill:none;}.b{clip-path:url(#a);}.c,.t{fill:#000;}.d{fill:#d0c1d9;}.e{fill:#eadff1;}.f{fill:#deebdd;}.g{stroke:#323431;stroke-width:5.136px;}.ad,.g,.t{stroke-miterlimit:10;}.h{fill:#7288d4;}.i{fill:#5f73b1;}.j{fill:#8d9ed4;}.k{fill:#323431;}.l{fill:#6c4e49;}.m{fill:#4f3936;}.n{fill:#b0b0b0;}.o{fill:gray;}.p{fill:#efefef;}.q{fill:#cecfd5;}.r{fill:#333;}.s{fill:#69676b;}.t{stroke:#595959;stroke-width:0.911px;}.u{fill:#c6dffe;}.v{fill:#05132b;}.w{fill:#ff8965;}.x{fill:#e54a19;}.y{fill:#d8a35d;}.z{fill:#5f5585;}.aa{fill:#ffc84f;}.ab{opacity:0.3;}.ac{opacity:0.5;}.ad{stroke:#8f7fc8;stroke-width:0.423px;}.ae{fill:#62548a;}.af{fill:#8f7fc8;}.ag{fill:#d19442;}.ah{fill:#989898;}.ai{fill:#cbcbcb;}.aj{fill:#f6c865;}.ak{opacity:0.15;}</style><clipPath id="a"><rect class="a" width="1366" height="771" transform="translate(5374.086 -667.559)"/></clipPath></defs><g transform="translate(-5374.086 667.559)"><g class="b"><rect class="c" width="1366" height="771" transform="translate(5374.086 -667.559)"/><path class="d" d="M6740.086-658.022V100.441L6497.858,32.855l-32.991-6.263L6466.5-531.5l30.118-25.56Z"/><path class="d" d="M5690.383-542.087,5674.331,14.284l-300.044,74.4V-661.371l298.845,93.57Z"/><path class="e" d="M6072.063-578.487H5647.456V38.9h849.166V-578.487Z"/><path class="c" d="M5374.086-606.779c121.657,30.38,335.7,73.889,615,80.373,352.972,8.194,622.429-47.1,751-78.7v-62.455h-1366Z"/><path class="c" d="M5374.086,55.125c121.657-29.39,335.7-71.48,615-77.753,352.972-7.927,622.429,45.568,751,76.133v47.19l-1365.8,2.746Z"/></g><path class="f" d="M5465.726-426.387,5577.3-414.629v182.675s-115.9,14.028-115.182,14.791,0-205.724,0-205.724l.95-3.78Z"/><path class="g" d="M5465.726-426.387,5577.3-414.629v182.675s-115.9,14.028-115.182,14.791,0-205.724,0-205.724l.95-3.78Z"/><line class="g" y2="189.205" transform="translate(5525.008 -417.171)"/><line class="g" x1="110.049" y2="5.538" transform="translate(5465.087 -292.855)"/><line class="g" x1="110.049" y1="3.213" transform="translate(5465.087 -358.371)"/><path class="h" d="M5488.528-437.612s1.812.039-1.886,2.522c-3.731,2.505-1.251-3.388-1.251-3.388l-2.769.159s-.89,1.2-1.747.735a5.956,5.956,0,0,0-2.6-.312l-2,.621s-1.049-3.508-1.688-2.529c-.525.8-2.667-.371-4.305-1.047l-2.06-.221c-.873.428-1.425,1.424-2.332.387-1.232-1.41-.039,2.505-.617,1.51s-1.971.274-2.786-2.365c-.017-.057-.035-.109-.052-.157l-.549-.06c-.473,1.2-.963,5.052-2.273,5.158-1.715.139-2.317-2.507-2.77-5.719l-1.519-.174a9.093,9.093,0,0,0-.113,2.71c.355,2.761-3.1,2.312-3.1,2.312s-.1-2.917-.62-3.64a18.245,18.245,0,0,0-2.52-2.135q-1.333-.165-2.672-.335c-.142.511-.3,1.139-.54,1.783-.734,1.95-.475,2.031-2.755,1.562s-1.728,1.569-2.134-.252c-.371-1.665-.337-1.824-.834-3.925l-1.49-.21a33.524,33.524,0,0,1-1.334,3.145c-1.623,3.215-2.818.717-4.8-1.63a29.966,29.966,0,0,1-1.951-2.738l-.9-.147c-.036.057-.073.121-.112.2-.719,1.391-1.788,3.811-3.56,2.525-1.41-1.023-1.855-3.184-2.151-3.719l-.216-.038h0c-.346.641-.152,1.624-1.549,4.665s-1.4.127-2.039-3.018a9.374,9.374,0,0,0-.964-2.5l-.771-.148c.694,21.555.776,32.583,2.844,56.789,2.059,24.1,6.121,62.123,8.862,87.9.546,5.14.731,1.86.53,6.36-.012.29-.019.507-.019.665-.046.323-.1.674-.151,1.065-1.4,10.013-4.481,32.829-5.02,45.313-.107,2.626-.71,2.912-1.017,11.763-.392,11.284-.147,36.023-.7,45.613s-4.281,19.625.955,20.275c2.487.309,16.1-5.78,21.87-6.253,2.825-.231,5.757,2.875,11.035.545,7.509-3.316,6.309-5.49,9.167-6.323.281-.081.3-.168.3-.195a.782.782,0,0,0,.206.2c-1.1-8.009,1.152-7.094-.536-16.68-1.694-9.622-6.814-23.175-7.64-34.793-.488-6.846-.855-15.079-1.054-20.914-.167-4.873-.667-5.024-1.124-8.911-.113-.965-.3-1.729-.458-2.646-.76-4.293-1.661-8.639-2.486-12.841-.2-1.005-.406-2.078-.557-2.876-.3-1.6-.7-3.52-.91-4.85a35.321,35.321,0,0,1-.4-7.732c.019-.4.056-.591.086-.939s.076-.661.116-.982c.019-.158.047-.321.065-.442.035-.237.1-.614.133-.795a18.884,18.884,0,0,1,.464-1.906c.16-.513.171-.515.324-.92.57-.552,1.133-1.211,1.685-1.793.218-.23.445-.532.7-.825,9.234-10.578,15.158-26.367,19.292-39.786,9.428-30.61,13.741-61.838,16.009-93.585l-.366-.045Z"/><path class="i" d="M5473.3-345.5c-.192,3.669-.165,4.177-1.169,7.216-3.26,9.872-10.991,20.277-16.432,28.969-.2.318-.479.718-.634.967-1.3,2.083-2.75,4.545-3.838,6.542a5.879,5.879,0,0,0-.665,1.508,12.476,12.476,0,0,0-.393,2.854c-.034.4-.042.8-.045,1.306-.013,2.435.208,4.995.25,7.465v.02c.021,1.87.294,4.1.437,5.849.167,2.052.291,3.666.307,5.642,0,.018,0,.033,0,.046-.015.452,0,.775-.043,1.25-.24,2.782-.571,5.711-.881,8.481-.069.612-.173,1.545-.222,1.966-.233,2.022-.432,3.7-.664,5.622-.078-1.793-.208-3.812-.279-5.472s-.042.058-.12-2.351-.619-8.589-.587-11.827.4-5.132.646-8.764c.147-2.161.616-6.539.878-9.28.12-1.25.281-2.873.462-4.272.3-2.354.385-3.515.735-6.162,1.765-13.355,3.236-27.4,6.516-40.363.014-.057.02-.082.035-.144.2-.836.258-.99.462-1.934,3.575-16.53,4.428-33.783,7.311-50.354,2.256-12.969,2.993-26.567,4.1-39.775.906.319,1.829-.337,2.72.623-.034,17.493.164,41.946.018,57.957C5472.062-366.241,5474.009-359.063,5473.3-345.5Z"/><path class="j" d="M5452.009-267.5a9.281,9.281,0,0,1-.014,1.773c-1.967,11.038,1.956-2.352-1.876,14.052-3.865,16.543-3.159,53.773-3.186,69.472.129,8.533-.188-6.213-.092,3.455-7.057.84-14.283,3.879-21.476,6.454.383-17.122.9-32.274.964-50.272s2.553-39.3,5.416-57.792c.83-5.356.039-11.442-.051-16.759-.019-1.1-.222-4.318-.326-5.858-1.115-16.6-3.279-42.857-4.353-57.515-1.658-22.646-8.055-51.133-4.225-68.774,2.036-9.38,1.695-8.679,2.055-17.646,1.451,1.029,3.082.575,4.593,1.112.511,2.565.918,6.815,1.978,8.989,2.145,4.4,3.019,1.467,3.569-1.663.235-1.342.457-4.7.6-6.379,2.773.349,5.525.826,8.263,1.209.629,5.522,1.475,11.055,1.793,16.563,0,.006-.011.022-.01.03.449,12.565.713,25.7-.051,37.891-.765,12.216,1.978,18.3,2.353,31.872s-.769,37.288-3.976,51.571a19.009,19.009,0,0,0-.418,3.611,12.008,12.008,0,0,0,.747,4.581.988.988,0,0,0,.07.165c1.613,3.369,3.9,6.029,5.574,9.376a12.531,12.531,0,0,1,.523,1.246,22.842,22.842,0,0,1,1.011,3.453,34.84,34.84,0,0,1,.629,5.862c0,.056.007.158,0,.2s0,.039,0,.051C5452.017-273.847,5452.208-270.921,5452.009-267.5Z"/><path class="i" d="M5446.471-443.37c3.06,1.137,6.373.154,9.233,2.2-.59,16.939-2.362,46.974-4.208,61.245-2.167,16.759-2.716,22.256-3.562,34.66-.848,12.427-.334,21.073-2.213,32.5-.735,4.467-1.058,6.759-1.73,10.652-.385,2.231-.411,2.682-.7,4.63-.012.08-.011.11-.018.16a49.178,49.178,0,0,0-.4,6.728c.085,5.656.1,16.081.114,20.288s-.164,1.907-.2,3.637a13.66,13.66,0,0,1-.081,1.419c-.051,1.231-.175,2.684-.23,4-2.15-.345-4.309-.809-6.488-1.006.045-1.859.033-.8.1-3.062s-.112,4.319.057-1.481,1.263-23.019,1.867-29.429.087-1.331.48-6.109-.516,6.843.241-2.673c.757-9.5,2.947-31.127,3.5-42.649s-.579-20.847-.282-31.087.85-23.217,1.2-31.738,1.111-10.784,1.485-16.321.865-9.549,1.172-12.925S5446.2-440.915,5446.471-443.37Z"/><path class="k" d="M5429.2-302.605c8.25.471,16.373.693,24.347.965-.452,1.365-.842,2.757-1.247,4.143-7.274.122-14.7.571-22.2.411Q5429.653-299.844,5429.2-302.605Z"/><path class="k" d="M5457.933-290.9c-.651-2.423-2.288-3.992-3.609-5.782a8.131,8.131,0,0,0-1.8-1.565,2,2,0,0,0-.237-.129,1.279,1.279,0,0,0-.2-.1,2.01,2.01,0,0,0-1.419-.11c-.123.495-.15.569-.281,1.175-.069.317-.164.695-.277,1.309a34.236,34.236,0,0,0-.64,9.36,10,10,0,0,0,1,3.435,3.561,3.561,0,0,0,.346.547,4.111,4.111,0,0,0,.726.794c.636.467,1.451,1.027,2.188.793C5457.115-282.247,5458.916-287.245,5457.933-290.9Zm-4.749,6.853a1.157,1.157,0,0,1-.964-.154c-1.42-.775-1.781-2.638-1.846-4.45v-.017c.053-2.762.271-5.462.574-8.24.5.046.424-.18,1.006.422a20.559,20.559,0,0,1,3.728,4.277C5457.154-289.637,5456.39-284.8,5453.184-284.048Z"/><path class="k" d="M5457.676-299.179c-1.038-.7-3.377-.63-4.693-.573-.256.011-.5.018-.682.032s-.194.008-.343.026c.063.232.137.554.19.766s.09.365.135.543.087.354.125.507.055.237.1.378c.563.264,1.282.54,1.788.792s-.032-.1.677.323,3.222,2.142,3.965,2.627,2.62,1.27,2.5-.356S5459.16-298.18,5457.676-299.179Zm2.043,4.813c-1.754-.648-4.9-3.293-6.746-4.445,1.4-.845,4.415.253,5.139.892S5461.467-293.721,5459.719-294.366Z"/><path class="k" d="M5613.323-427.457c-.007.151-.019.293-.036.426a2.785,2.785,0,0,0-2.521-2.723L5414.4-455.345s-2.891-.837-3.329,2.091c-.026-.275-.038-.565-.038-.877.014-3.838,3.386-2.856,3.386-2.856l196.354,25.933S5613.484-430.94,5613.323-427.457Z"/><path class="l" d="M5613.287-427.031c-.351,2.985-2.792,2.19-2.792,2.19L5414.424-449.1c-1.287-.265-3.076-1.049-3.348-4.153v0c.438-2.928,3.329-2.091,3.329-2.091l196.361,25.591A2.785,2.785,0,0,1,5613.287-427.031Z"/><path class="k" d="M5424.115-455.607a1.433,1.433,0,0,1,1.2-.606c1.078.138,1.773,2.052,1.953,2.547,1.036,2.852.365,6.525-1.181,6.743-.334.047-1.007.124-2.048-.948-.695-.025-1.316-.156-2.013-.182a3.965,3.965,0,0,0,1.5,2.028,3.513,3.513,0,0,0,3.992-.031c.91-.679,1.082-1.7,1.318-3.09a8.142,8.142,0,0,0-.5-5.079c-.357-.761-1.241-2.66-2.768-2.974-1.588-.326-2.683.925-2.563,1.386C5423.071-455.565,5423.611-455.7,5424.115-455.607Z"/><path class="k" d="M5438.348-453.729a1.385,1.385,0,0,1,1.164-.6c1.046.133,1.72,2.017,1.9,2.505,1,2.806.353,6.424-1.146,6.643-.324.047-.977.124-1.986-.931-.674-.023-1.277-.151-1.952-.175a3.89,3.89,0,0,0,1.456,2,3.364,3.364,0,0,0,3.871-.038c.883-.67,1.05-1.675,1.279-3.046a8.137,8.137,0,0,0-.487-5c-.346-.748-1.2-2.617-2.685-2.923-1.54-.319-2.6.916-2.485,1.369C5437.335-453.686,5437.859-453.816,5438.348-453.729Z"/><path class="k" d="M5452.153-451.908a1.344,1.344,0,0,1,1.13-.592c1.015.13,1.669,1.984,1.838,2.464.975,2.762.343,6.328-1.112,6.546-.314.047-.947.124-1.927-.913-.653-.022-1.238-.147-1.894-.169a3.84,3.84,0,0,0,1.413,1.962,3.226,3.226,0,0,0,3.756-.044c.857-.662,1.019-1.652,1.241-3a8.118,8.118,0,0,0-.472-4.925c-.336-.737-1.168-2.576-2.6-2.875-1.5-.31-2.525.908-2.411,1.354C5451.171-451.863,5451.679-451.992,5452.153-451.908Z"/><path class="k" d="M5465.55-450.14a1.3,1.3,0,0,1,1.1-.585c.985.125,1.62,1.951,1.784,2.424.946,2.72.334,6.234-1.079,6.451-.305.047-.92.124-1.87-.9-.635-.02-1.2-.142-1.839-.163a3.763,3.763,0,0,0,1.372,1.93,3.093,3.093,0,0,0,3.646-.05c.831-.653.989-1.629,1.2-2.96a8.114,8.114,0,0,0-.458-4.853c-.326-.725-1.134-2.535-2.529-2.827-1.451-.3-2.451.9-2.34,1.339C5464.6-450.093,5465.09-450.222,5465.55-450.14Z"/><path class="k" d="M5482.968-447.841a1.247,1.247,0,0,1,1.054-.577c.947.121,1.557,1.909,1.716,2.372.909,2.665.32,6.112-1.038,6.328-.294.047-.884.124-1.8-.873-.611-.019-1.156-.137-1.768-.156a3.689,3.689,0,0,0,1.319,1.889,2.928,2.928,0,0,0,3.5-.057c.8-.643.951-1.6,1.158-2.906a8.09,8.09,0,0,0-.441-4.757c-.313-.71-1.09-2.484-2.431-2.766-1.4-.293-2.356.888-2.25,1.319C5482.051-447.794,5482.525-447.921,5482.968-447.841Z"/><path class="m" d="M5488.709-447.083a1.233,1.233,0,0,1,1.041-.575c.935.12,1.537,1.9,1.693,2.356.9,2.646.317,6.072-1.024,6.287-.289.047-.873.124-1.775-.866-.6-.018-1.14-.135-1.744-.153a3.659,3.659,0,0,0,1.3,1.876,2.877,2.877,0,0,0,3.46-.061c.789-.639.939-1.589,1.143-2.887a8.1,8.1,0,0,0-.435-4.726c-.309-.7-1.076-2.466-2.4-2.745-1.376-.29-2.325.884-2.22,1.311C5487.805-447.035,5488.273-447.162,5488.709-447.083Z"/><path class="h" d="M5558.631-429.126s-1.538-.353,1.588,2.711c3.1,3.04,1.045-2.836,1.045-2.836l2.295.728s.732,1.278,1.434,1.03a4.432,4.432,0,0,1,2.116.254l1.613.964s.839-2.921,1.348-1.916c.418.824,2.11.215,3.394-.05l1.6.223c.675.553,1.1,1.537,1.8.808.943-.986.03,2.2.473,1.444s1.5.624,2.118-1.513c.013-.047.027-.088.04-.126l.414.056c.356,1.131.725,4.569,1.706,4.906,1.276.439,1.722-1.725,2.057-4.4q.56.075,1.119.147a9.3,9.3,0,0,1,.082,2.343c-.26,2.3,2.261,2.551,2.261,2.551a10.235,10.235,0,0,1,.449-2.981,9.458,9.458,0,0,1,1.81-1.333q.952.115,1.9.224c.1.457.21,1.014.381,1.6.518,1.772.335,1.793,1.934,1.813s1.2,1.618,1.483.175c.257-1.317.234-1.456.577-3.11.342.035.684.068,1.025.1.228.774.516,1.791.912,2.844,1.1,2.936,1.912,1.09,3.246-.483a17.2,17.2,0,0,0,1.3-1.886l.6.043c.024.053.049.112.074.179.476,1.26,1.179,3.411,2.34,2.677.917-.58,1.206-2.241,1.4-2.619l.139.007h0a31.862,31.862,0,0,0,1,4.014c.9,2.676.9.339,1.3-2.065a6.883,6.883,0,0,1,.614-1.825l.489.017c-.44,17.057-.492,25.836-1.812,44.945-1.323,19.176-3.966,49.745-5.773,70.749-.363,4.214-.486,1.55-.352,5.207.008.236.012.413.013.541.03.261.063.544.1.859.925,8.054,2.948,26.252,3.3,36.265.069,2.1.461,2.255.66,9.341.254,9.022.095,28.976.451,36.576s2.745,14.732-.619,16.542c-1.622.872-10.785-.666-14.82.43s-10.556.331-14.9.43c-.216.005-.231-.066-.228-.091a1.117,1.117,0,0,1-.159.233c.847-7.315-.889-5.927.413-14.772,1.3-8.816,5.165-21.661,5.781-31.847.363-5.986.635-13.138.783-18.191.124-4.217.494-4.409.831-7.806.084-.842.219-1.519.339-2.325.558-3.765,1.219-7.577,1.822-11.245.143-.876.3-1.81.4-2.5.219-1.391.507-3.057.661-4.206a35.686,35.686,0,0,0,.291-6.607c-.013-.344-.04-.5-.062-.795s-.055-.558-.084-.828c-.014-.133-.034-.271-.047-.372-.025-.2-.074-.517-.1-.669-.075-.5-.241-1.243-.337-1.6-.116-.429-.124-.43-.235-.767-.415-.442-.827-.977-1.23-1.447-.16-.186-.327-.434-.514-.672-6.912-8.79-11.489-22.574-14.751-34.542-7.662-28.108-11.273-57.192-13.2-86.87l.311.037Z"/><path class="i" d="M5571.086-344.037a19.86,19.86,0,0,0,.922,6.432c2.55,8.736,8.456,17.7,12.5,25.017.146.264.351.6.465.8.948,1.724,2,3.755,2.792,5.4a5.1,5.1,0,0,1,.479,1.244,11.954,11.954,0,0,1,.283,2.4c.025.334.03.672.032,1.1.01,2.064-.149,4.249-.179,6.347v.014c-.015,1.59-.212,3.5-.315,5-.12,1.757-.21,3.139-.221,4.818,0,.016,0,.029,0,.04.011.382,0,.658.031,1.057.174,2.338.412,4.788.635,7.1.049.511.124,1.29.159,1.641.167,1.686.31,3.082.476,4.681.056-1.527.149-3.25.2-4.662s.03.043.086-2,.442-7.321.419-10.053-.284-4.3-.461-7.353c-.106-1.816-.442-5.489-.63-7.794-.086-1.052-.2-2.419-.331-3.6-.219-1.981-.277-2.962-.53-5.194-1.277-11.308-2.349-23.282-4.762-34.459-.01-.049-.014-.071-.026-.125-.15-.726-.191-.86-.342-1.68-2.673-14.463-3.318-29.517-5.51-44.285-1.734-11.683-2.3-23.764-3.165-35.614-.707.1-1.429-.67-2.13,0,.027,15.529-.129,37.2-.014,51.432C5572.063-362.411,5570.524-356.141,5571.086-344.037Z"/><path class="j" d="M5587.2-277.159a9.189,9.189,0,0,0,.01,1.507c1.418,9.128-1.422-1.782,1.353,11.7,2.755,13.38,2.255,44.852,2.274,58.067s.134-5.279.065,2.886c4.933-1.121,9.843-.452,14.593-.168-.25-13.732-.59-25.865-.629-40.4s-1.677-31.492-3.578-46.278c-.555-4.315-.026-9.347.035-13.7.012-.9.148-3.539.217-4.8.742-13.577,2.172-34.921,2.877-46.765,1.084-18.2,5.2-40.407,2.747-55.039-1.318-7.868-1.1-7.247-1.33-14.535-.947.571-2.015-.088-3.013.075-.338,2-.608,5.388-1.313,6.983-1.436,3.249-2.025.7-2.4-1.969-.16-1.144-.31-3.951-.4-5.354-1.889-.221-3.785-.335-5.693-.525-.441,4.509-1.036,9-1.26,13.575a.138.138,0,0,1,.007.027c-.318,10.491-.5,21.5.036,31.83s-1.4,15.239-1.668,26.668.547,31.45,2.809,43.34a18.586,18.586,0,0,1,.293,3,12.223,12.223,0,0,1-.524,3.876,1.1,1.1,0,0,1-.049.142c-1.135,2.927-2.762,5.322-3.957,8.276-.12.3-.25.679-.376,1.1a23.722,23.722,0,0,0-.728,3.014,35.81,35.81,0,0,0-.455,5.042c0,.048,0,.135,0,.168a.367.367,0,0,1,0,.044C5587.195-282.56,5587.057-280.05,5587.2-277.159Z"/><path class="i" d="M5591.166-425.749c-2.18.382-4.57-1.086-6.661.112.433,14.618,1.728,40.53,3.067,52.859,1.559,14.36,1.951,19.037,2.555,29.541.6,10.487.237,17.777,1.569,27.351.517,3.723.745,5.631,1.216,8.861.27,1.846.288,2.222.492,3.834.009.067.008.092.013.133a48.462,48.462,0,0,1,.279,5.6c-.06,4.731-.07,13.442-.08,16.958a17.32,17.32,0,0,0,.139,3.017c.024,1.441.02.153.056,1.176s.122,2.221.161,3.316c1.491-.541,2.976-1.178,4.461-1.59-.03-1.526-.022-.654-.064-2.512s.075,3.546-.039-1.215-.861-18.884-1.274-24.145-.059-1.1-.328-5.029.354,5.634-.166-2.2-2.034-25.806-2.419-35.421.4-17.356.2-25.912-.593-19.456-.835-26.618-.778-9.179-1.04-13.876-.609-8.157-.826-11.048S5591.359-423.633,5591.166-425.749Z"/><path class="k" d="M5602.98-308.155c-5.543.785-11.181,1.379-16.9,2.028.329,1.139.612,2.3.907,3.461,5.195-.332,10.345-.393,15.4-.951C5602.583-305.131,5602.778-306.644,5602.98-308.155Z"/><path class="k" d="M5585.952-288.639c.536.134,1.127-.415,1.588-.869a3.982,3.982,0,0,0,.523-.737,3.81,3.81,0,0,0,.25-.494,10.442,10.442,0,0,0,.716-2.991,33.59,33.59,0,0,0-.459-7.884c-.082-.513-.15-.828-.2-1.093-.1-.506-.114-.567-.2-.98a1.293,1.293,0,0,0-1.024.177.858.858,0,0,0-.144.093,1.537,1.537,0,0,0-.172.124,7.124,7.124,0,0,0-1.311,1.445c-.968,1.617-2.175,3.075-2.658,5.207C5582.129-293.413,5583.465-289.26,5585.952-288.639Zm-1.43-9.289a19.336,19.336,0,0,1,2.719-3.9c.42-.547.362-.35.726-.42.219,2.338.375,4.614.414,6.953v.014c-.047,1.542-.307,3.151-1.333,3.928a.792.792,0,0,1-.7.212C5584-291.516,5583.437-295.611,5584.522-297.928Z"/><path class="k" d="M5580.247-299.169c-.094,1.42,1.315.606,1.868.136s2.411-2.117,2.93-2.519.125-.072.5-.319.894-.527,1.3-.786c.03-.122.041-.194.069-.327s.059-.285.092-.439.059-.287.1-.471.093-.462.138-.662c-.108-.007-.118,0-.249,0s-.308.006-.495.011c-.959.026-2.677.1-3.444.762C5581.947-302.836,5580.341-300.589,5580.247-299.169Zm2.48-3.506c.536-.594,2.755-1.712,3.774-1.071-1.344,1.093-3.666,3.565-4.972,4.241S5582.19-302.08,5582.727-302.675Z"/><path class="m" d="M5606.308-431.565c-.159-.279-.436-.672-.78-.72-.7-.1-1.159,1.317-1.277,1.685-.68,2.116-.239,5.218.774,5.674.218.1.656.28,1.332-.4.449.1.85.11,1.3.215a2.286,2.286,0,0,1-.968,1.361,2.138,2.138,0,0,1-2.6-.735,5,5,0,0,1-.868-2.747,7.6,7.6,0,0,1,.33-4.03c.235-.548.816-1.915,1.814-1.87a1.939,1.939,0,0,1,1.662,1.611C5606.983-431.331,5606.634-431.54,5606.308-431.565Z"/><path class="m" d="M5596.823-432.816c-.163-.283-.446-.682-.8-.731-.721-.1-1.187,1.332-1.309,1.7-.7,2.141-.245,5.284.794,5.747.223.1.672.285,1.365-.4.461.106.872.113,1.332.22a2.316,2.316,0,0,1-.992,1.377,2.213,2.213,0,0,1-2.668-.748,5.045,5.045,0,0,1-.889-2.784,7.6,7.6,0,0,1,.339-4.08c.24-.555.836-1.938,1.86-1.891a1.979,1.979,0,0,1,1.7,1.634C5597.516-432.579,5597.158-432.791,5596.823-432.816Z"/><path class="k" d="M5587.1-434.1c-.168-.287-.459-.691-.821-.741-.74-.1-1.218,1.347-1.343,1.723-.716,2.168-.252,5.351.814,5.822.229.1.69.29,1.4-.4.473.109.894.116,1.366.225a2.338,2.338,0,0,1-1.018,1.393,2.289,2.289,0,0,1-2.736-.762,5.067,5.067,0,0,1-.913-2.821,7.6,7.6,0,0,1,.348-4.132c.247-.561.858-1.961,1.908-1.912a2.023,2.023,0,0,1,1.748,1.658C5587.807-433.858,5587.44-434.073,5587.1-434.1Z"/><path class="k" d="M5577.118-435.417c-.171-.29-.47-.7-.842-.752-.759-.1-1.25,1.362-1.378,1.743-.734,2.2-.258,5.42.835,5.9.236.1.708.3,1.438-.406.485.111.918.119,1.4.23a2.373,2.373,0,0,1-1.045,1.41,2.367,2.367,0,0,1-2.807-.777,5.085,5.085,0,0,1-.937-2.858,7.6,7.6,0,0,1,.357-4.186c.253-.568.88-1.985,1.958-1.933a2.065,2.065,0,0,1,1.793,1.683C5577.847-435.17,5577.47-435.389,5577.118-435.417Z"/><path class="k" d="M5563.275-437.244c-.178-.3-.487-.714-.873-.767-.786-.109-1.294,1.383-1.427,1.771-.761,2.232-.267,5.516.865,6.005.244.106.734.3,1.489-.409.5.113.951.123,1.452.236a2.4,2.4,0,0,1-1.082,1.433,2.485,2.485,0,0,1-2.908-.8,5.139,5.139,0,0,1-.97-2.911,7.607,7.607,0,0,1,.37-4.259c.262-.578.911-2.019,2.028-1.963a2.126,2.126,0,0,1,1.857,1.717C5564.029-436.991,5563.639-437.215,5563.275-437.244Z"/><path class="k" d="M5558.477-437.877c-.179-.3-.492-.718-.882-.772-.8-.11-1.311,1.39-1.445,1.78-.77,2.245-.271,5.549.876,6.042.246.106.742.3,1.507-.411.508.115.962.125,1.469.239a2.42,2.42,0,0,1-1.095,1.441,2.524,2.524,0,0,1-2.943-.8,5.145,5.145,0,0,1-.982-2.929,7.612,7.612,0,0,1,.374-4.285c.266-.581.923-2.03,2.053-1.973a2.148,2.148,0,0,1,1.88,1.728C5559.241-437.622,5558.847-437.847,5558.477-437.877Z"/><path class="n" d="M6216.212-53.911V66.3l8.417,9.712,4.208-133.487Z"/><path class="o" d="M6233.046-57.472V76.014h-8.417V-53.911Z"/><path class="n" d="M5875.572-53.911V66.3l-8.417,9.712-4.208-133.487Z"/><path class="o" d="M5858.737-57.472V76.014h8.417V-53.911Z"/><path class="n" d="M6170.226-83.9V31.321l6.1,7.042,3.051-124.841Z"/><path class="o" d="M6182.431-86.478V38.363h-6.1V-83.9Z"/><path class="n" d="M5923.244-83.9V31.321l-6.1,7.042L5914.09-86.478Z"/><path class="o" d="M5911.039-86.478V38.363h6.1V-83.9Z"/><path class="p" d="M6245.564-61.033l-60.085-67.553H5908.133L5845.86-61.033Z"/><rect class="n" width="399.704" height="7.122" transform="translate(5845.86 -61.033)"/><path class="q" d="M6120.973-77.518H5975.284c-1.617,0-4.281-1-3.28-2.23l15.728-22.338a5.577,5.577,0,0,1,4.546-1.987h111.488a6.042,6.042,0,0,1,4.913,2.141l15.569,21.968C6125.339-78.564,6122.747-77.518,6120.973-77.518Z"/><path class="r" d="M6105.843-83.378H5989.205c-1.294,0-2.281-.5-2.076-1.046l4.918-13.2c.265-.712,1.7-1.236,3.373-1.236h105.2c1.491,0,2.756.47,2.971,1.1l4.508,13.275C6108.279-83.9,6107.217-83.378,6105.843-83.378Z"/><rect class="q" width="121.634" height="0.614" transform="translate(5986.794 -96.586)"/><rect class="q" width="121.634" height="0.614" transform="translate(5986.794 -93.514)"/><rect class="q" width="121.634" height="0.614" transform="translate(5986.794 -89.828)"/><rect class="q" width="121.634" height="0.614" transform="translate(5986.794 -86.45)"/><rect class="q" width="0.921" height="20.272" transform="translate(6001.525 -101.48) rotate(17.439)"/><rect class="q" width="0.921" height="20.272" transform="translate(6010.433 -101.48) rotate(17.439)"/><rect class="q" width="0.921" height="20.272" transform="translate(6017.498 -101.48) rotate(17.439)"/><rect class="q" width="0.921" height="20.272" transform="translate(6024.563 -101.48) rotate(17.439)"/><rect class="q" width="0.921" height="20.272" transform="translate(6031.934 -101.48) rotate(17.439)"/><rect class="q" width="0.921" height="20.272" transform="translate(6039.414 -101.71) rotate(10.978)"/><rect class="q" width="0.921" height="20.272" transform="translate(6045.769 -101.807)"/><rect class="q" width="0.921" height="20.272" transform="translate(6093.433 -101.203) rotate(-17.439)"/><rect class="q" width="0.921" height="20.272" transform="translate(6084.833 -101.203) rotate(-17.439)"/><rect class="q" width="0.921" height="20.272" transform="translate(6076.232 -101.203) rotate(-17.439)"/><rect class="q" width="0.921" height="20.272" transform="translate(6067.632 -101.203) rotate(-17.439)"/><rect class="q" width="0.921" height="20.272" transform="translate(6059.031 -101.203) rotate(-17.439)"/><rect class="q" width="0.921" height="20.272" transform="translate(6050.431 -101.203) rotate(-17.439)"/><rect class="s" width="18.165" height="22.433" transform="translate(6038.918 -140.024)"/><path class="q" d="M6137.162-139.178h-182.9a4.842,4.842,0,0,1-4.687-4.985v-115.5a4.842,4.842,0,0,1,4.687-4.985h182.9a4.843,4.843,0,0,1,4.687,4.985v115.5A4.843,4.843,0,0,1,6137.162-139.178Z"/><path class="r" d="M6004.289-112.551V-116.4c0-2.133,18.552-3.857,41.422-3.857s41.42,1.724,41.42,3.857v3.846Z"/><rect class="r" width="34.532" height="4.565" transform="translate(6030.21 -147.717)"/><rect class="r" width="192.201" height="112.166" rx="4.985" transform="translate(5949.575 -264.652)"/><rect class="t" width="176.659" height="97.932" rx="4.985" transform="translate(5957.346 -257.535)"/><rect class="u" width="179.761" height="100.933" transform="translate(5956.167 -260.536)"/><circle class="v" cx="1.142" cy="1.142" r="1.142" transform="translate(6045.836 -164.43)"/><circle class="v" cx="1.142" cy="1.142" r="1.142" transform="translate(6052.739 -164.43)"/><circle class="v" cx="1.142" cy="1.142" r="1.142" transform="translate(6059.642 -164.43)"/><rect class="c" width="21.149" height="34.573" transform="translate(6023.291 -235.754)"/><path class="w" d="M6049.213-237.885h28.625v48.477h-31.395Z"/><path class="c" d="M6068.944-218.649a10.684,10.684,0,0,1-10.683,10.388,10.7,10.7,0,0,1-10.7-10.691,10.7,10.7,0,0,1,10.7-10.7v11Z"/><path class="c" d="M6071.727-222.107c0,.1,0,.205-.009.3h-10.682v-11A10.7,10.7,0,0,1,6071.727-222.107Z"/><rect class="c" width="18.854" height="3.77" transform="translate(6052.873 -204.951)"/><rect class="c" width="18.854" height="3.77" transform="translate(6052.873 -198.641)"/><path class="x" d="M6052.892-245.019a1.455,1.455,0,0,0-.752-.015q-2.85.537-5.705,1.067l-.1.018q-2.757.515-5.514,1.027a3.711,3.711,0,0,1-.836.083l-4.656.814a2.418,2.418,0,0,1-.565.155c-3.842.626-7.672,1.307-11.508,1.955l-.019,0q-2.409.406-4.82.789c-1.067.167-1.3.528-1.3,1.539q.056,22.693,0,45.394c-.006,1.31.5,1.619,1.61,1.8,2.205.355,4.4.752,6.6,1.144l27.782,4.3C6052.985-185.591,6052.892-245.019,6052.892-245.019ZM6041.14-217.5a6.837,6.837,0,0,1-7.58,5.717c-.99-.123-1.246.1-1.218,1.061.058,1.949-.022,3.9.037,5.85.024.9-.247,1.1-1.141,1.024-3.078-.25-3.081-.21-3.081-3.333v-8.009c0-3.284.025-6.569-.018-9.853-.013-.854.225-1.116,1.1-1.156,2.162-.093,4.308-.346,6.483-.265,3.9.148,5.091,2.362,5.581,5.455A11.806,11.806,0,0,1,6041.14-217.5Z"/><path class="x" d="M6036.79-219.205c0,2.4-1.263,3.706-3.405,3.559-.667-.046-1.048-.218-1.033-.981q.048-2.462,0-4.924c-.012-.664.27-.839.9-.921C6035.524-222.769,6036.788-221.634,6036.79-219.205Z"/><path class="y" d="M6382.081-59.851s-.216,98.718,4.032,100.02c7.625,2.382,37.3,9.734,5.434,10.487-16.165,2.486-15.317-1.209-15.862-4.222-.446-2.462-8.375-90.05-9.7-96.8l-.475-2.423Z"/><path class="y" d="M6323.044-60.137s-6.3,98.149-10.558,99.405c-7.651,2.3-37.4,9.338-5.549,10.429,16.138,2.657,15.33-1.047,15.908-4.054.473-2.456,4.328-21.075,5.723-27.806.313-1.508,11.676-77.6,11.676-77.6Z"/><path class="z" d="M6324.883,39.534c.34-1.391-9.849-2.318-11.123-1.292s-21.994,3.041-22.229,9.024,28.369,4.239,30.392,4.309S6324.214,42.268,6324.883,39.534Z"/><path class="aa" d="M6312.388-169.055a6.357,6.357,0,0,0,3.65,1.473c8.412-.2,44.742-1.16,64.386-3.129,6.93-.7,11.783-1.516,12.6-2.477,0,0,0,.028,0,.079,0,1.073-.081,13.36-.24,29.469-.314,31.8,5.032,77.091,9.528,90.713.971,2.941-44.335.385-44.335.385-1.582-32.733-.99-90.345-3.139-92.833-2.614-3.027-4.376,47.7-7.093,90.205-17.658,5.371-46.067,3.8-45.82,1.985C6304.849-74.806,6312.388-169.055,6312.388-169.055Z"/><g class="ab"><path d="M6345.99-168.562l-.406-.016S6345.728-168.574,6345.99-168.562Z"/><path class="ac" d="M6345.99-168.562c10.856.383,34.434-2.149,34.434-2.149,6.93-.7,11.783-1.516,12.6-2.477,0,0,0,.028,0,.079,0,1.073-.081,13.36-.24,29.469a8.149,8.149,0,0,1-1.143-.081,8.872,8.872,0,0,1-5.9-3.765,19.333,19.333,0,0,1-2.431-4.491C6374.564-166.768,6349.47-168.4,6345.99-168.562Z"/></g><line class="ad" x1="6.197" y2="118.654" transform="translate(6314.044 -170.171)"/><line class="ad" x1="6.202" y2="116.593" transform="translate(6325.512 -168.3)"/><line class="ad" x1="4.324" y2="115.698" transform="translate(6338.502 -168.781)"/><line class="ad" x2="1.306" y2="23.87" transform="translate(6353.528 -169.245)"/><line class="ad" x2="3.04" y2="117.72" transform="translate(6365.407 -169.759)"/><line class="ad" x2="4.666" y2="118.638" transform="translate(6375.626 -170.276)"/><line class="ad" x2="7.62" y2="119.193" transform="translate(6385.673 -170.711)"/><path class="ad" d="M6311.386-156.7s64.634.211,81.543-3.531"/><path class="ad" d="M6354.834-145.375c-22.344,6.02-44.3-1.016-44.3-1.016"/><path class="ad" d="M6354.523-146.871s20.618,4.764,38.3-.778"/><path class="ad" d="M6309.814-137.684s16.638,7.7,42.864,2.27"/><path class="ad" d="M6308.941-127.314s25.648,6.527,42.926,1.849"/><path class="ad" d="M6308.062-117.011s13.334,9.411,43.02,3.645"/><path class="ad" d="M6307.033-105.159a63.554,63.554,0,0,0,43.493,1.345"/><path class="ad" d="M6306.068-94.3s14.354,9.146,43.807,2.2"/><path class="ad" d="M6305.05-83.168s19.654,9.076,44.333-.013"/><path class="ad" d="M6304.225-74.479s11.814,10.265,44.622.855"/><path class="ad" d="M6303.237-64.613s18.752,8.732,45.054.535"/><path class="ad" d="M6355.929-136.126s8.817,6.563,37.41.17"/><path class="ad" d="M6356.617-125.7s12.184,4.975,36.476-.422"/><path class="ad" d="M6356.549-114.1s18.68,4.68,37.008-1.6"/><path class="ad" d="M6356.711-104.488s18.272,7.084,37.63-1.629"/><path class="ad" d="M6356.879-93.934s17.325,5.168,38.426-1.664"/><path class="ad" d="M6357.054-83.8s14.665,5.743,39.374-1.705"/><path class="ad" d="M6357.452-74.84s17.463,7.942,40.285-.82"/><path class="ad" d="M6357.54-63.625a80.061,80.061,0,0,0,41.942-1.337"/><path class="ae" d="M6374.293,37.939c-.325-1.4,12.04-.743,13.3.3s19.47,4.144,19.64,10.129-28.414,3.938-30.437,3.986S6374.932,40.679,6374.293,37.939Z"/><path class="af" d="M6305.857-164.324c6.04,8.275,53.409,15.377,78.051,10.756a38.707,38.707,0,0,0,8.122-2.332c2.337-1.014,4.6-3.657,6.76-7.548,16.432-29.63,26.6-131.63,14.752-137.438-13.406-6.573-37.64.751-37.64.751l-9,11.511-43.449,25.6s-10.076,36.923-15.471,65.781c-.4,2.127-.77,4.212-1.112,6.23C6304.637-177.791,6303.749-167.211,6305.857-164.324Z"/><path class="ag" d="M6372.706-313.441c.006.918-1.6,10.5-.643,12.9s6.456,4.145,6.079,4.545-7.818,7.98-14.731,6.042-3-6.042-3-6.042a14,14,0,0,0,3.559-10.927C6363.27-313.7,6372.706-313.441,6372.706-313.441Z"/><path class="af" d="M6288.367-171.808c20.445,2.98,64.123-17.419,64.123-17.419l-4.167-11.494s-25.8,1.179-29.986,1.867c0,0,12.606-10.315,16.642-24.067,2.969-10.116,38.807-53.394,49.57-72.261,3.869-6.782-8.647-4.953-8.647-4.953s-2.826,7.4-7.68,8.281a5.448,5.448,0,0,1-2.721-.21c-6.507-2.138-6.765-4.838-6.765-4.838a125.965,125.965,0,0,0-16.268,2.645c-8.44,1.915-18.718,5.117-27.152,10.37-17.654,11-29.989,45.218-32.059,57.219S6267.924-174.788,6288.367-171.808Z"/><path class="ah" d="M6373.948-246.634l-3.282,66.867a7.124,7.124,0,0,1-7.491,6.711l-46.26-2.214a2.3,2.3,0,0,1-.327-.031,7.071,7.071,0,0,1-6.467-7.36l3.282-66.867a7.112,7.112,0,0,1,7.491-6.7l44.115,2.1,2.145.1A7.09,7.09,0,0,1,6373.948-246.634Z"/><path class="ai" d="M6371.476-246.766l-3.281,66.867a7.113,7.113,0,0,1-7.492,6.7l-44.115-2.1a7.071,7.071,0,0,1-6.467-7.36l3.282-66.867a7.112,7.112,0,0,1,7.491-6.7l44.115,2.1A7.069,7.069,0,0,1,6371.476-246.766Z"/><ellipse class="o" cx="5.524" cy="5.449" rx="5.524" ry="5.449" transform="translate(6334.871 -219.563)"/><ellipse class="y" cx="11.823" cy="15.915" rx="11.823" ry="15.915" transform="translate(6356.069 -338.885) rotate(-2.516)"/><path class="aj" d="M6363.752-332.447s20.927,10.34,14.093-7.369C6373.117-352.068,6349.463-339.876,6363.752-332.447Z"/><path class="aj" d="M6366.534-336.86s-11.158,7.171-9.768,13.845c0,0-3.376-19.956,7.98-20.931s15.806-.075,15.7,21.18C6380.445-322.766,6376.421-339.5,6366.534-336.86Z"/><path class="aj" d="M6364.255-343.8s.309-6.275,6.628-5.649,9.16,4.054,10.208,7.558,2.058,6.122,2.956,6.085c0,0-2.579,2.767-3.514,1.919,0,0,2.6,6.269-.137,11.618,0,0-1.507-8-6.031-8.7S6364.255-343.8,6364.255-343.8Z"/><path class="aj" d="M6364.828-343.873s-4.6-2.47-8.823,3.912l-2.465,5.423s.935.848,2.691-.112c0,0-.552,6.271.455,9.756l2.2-10.752Z"/><path class="ak" d="M6306.866-191.017a56.962,56.962,0,0,0,3.427,4.8c.012.015-.1,1.75-.084,1.764,2.369,2.991,5.022,4.875,9.982,9.318.045.041,1.375.058,1.42.1q.78.7,1.606,1.421c15.38,13.462,43.519,18.226,60.691,20.043a38.707,38.707,0,0,0,8.122-2.332c2.337-1.014,4.6-3.657,6.76-7.548l-90.812-33.8-3.08-1.148S6303.27-196.684,6306.866-191.017Z"/><path class="ak" d="M6401.694-283.22s-15.972,18.343-25.839,36.919c-.742,1.4-4.891,11.768-4.9,11.8-6.4,21.994-9.561,54.839-9.561,54.839l15.265-36.374Z"/><path class="y" d="M6302.628-195.433c3.747.514,13.448,3.773,13.448,3.773l1.93-5.907s-4.608-2.825-5.882-4.354-1.959-2.831-3.012-3.632a14.521,14.521,0,0,0-3.818-1.483l-.313.4-.31.4-.1-.009a10.417,10.417,0,0,1-1.487-.193,5.312,5.312,0,0,0-1.64,1.1,2.676,2.676,0,0,0-.461.52,4.348,4.348,0,0,1-1.386,1.134c-.155.1-.282.168-.35.217s-.269.235-.521.48c-.626.618-1.6,1.642-1.906,2.006a20.442,20.442,0,0,0-1.989,1.935,2.153,2.153,0,0,0-.22.391C6294.224-197.738,6298.882-195.947,6302.628-195.433Z"/><path class="af" d="M6385.015-260.671c0-.983,8.358-46.184,26.25-41.347s29.972,8.964,36.942,43.573-7.539,102.177-68.217,97.73-53.938-22.687-69.063-30.757l2.917-11.41s2.624,4.438,10.3,2.629,29.743-7.446,42.986-5.087c0,0,10.791-8.134,9.926-12.628s5.277-35.894,11.034-43.457S6385.015-260.671,6385.015-260.671Z"/><path class="ak" d="M6304.568-206.247a.5.5,0,0,0,.109.1c.325.192,2.334.874,2.551.938s-.735-.532-1-.553a5.822,5.822,0,0,1-1.252-.875l-.31.4Z"/><path class="y" d="M6359.865-205.316a7.985,7.985,0,0,1,2.633.551c1.09.724,1.7,1.832,3.008,1.991.366.044,2.367.3,2.145-.47a3.083,3.083,0,0,0-1.205-1.6.788.788,0,0,1,.079.006c.127,0,.414.026.833.075a26.161,26.161,0,0,1,3.811.778c2.865.793,6.48-1.637,6.681-1.894s-.24-.626-1.607-.967l-.05-.015c-1.406-.346-4.316-.644-4.316-.644s5.32-.1,8.33-.1a4.906,4.906,0,0,0,.664-.043h.012a5.262,5.262,0,0,0,3.276-1.836.409.409,0,0,0-.3-.672c-.923-.032-2.482-.1-3.648-.252a42.585,42.585,0,0,0-6.876.5c-.364.047-.582.079-.582.079s-1.279-.061,2.986-1.944,3.975-7.684,3.975-7.684a.715.715,0,0,0-.378-.078c-.478.014-1.373.381-2.537,2.409-1.757,3.072-5.074,4.016-5.485,5.007s-3.556,2.838-3.556,2.838-1.71.731-2.614,1c-.644.19-.78,1.087-.8,1.582-.006.146,0,.26,0,.306v.027a9.169,9.169,0,0,1-1.761-.694C6361.755-207.507,6359.865-205.316,6359.865-205.316Z"/><path class="ak" d="M6373.331-209.9c-.364.047-.582.079-.582.079s-1.279-.061,2.986-1.944,3.975-7.684,3.975-7.684a.715.715,0,0,0-.378-.078,2.651,2.651,0,0,1,.062,1.139c-.162.691-1.813,4.959-3.379,5.936s-3.913,2.316-4.2,2.52S6372.622-209.672,6373.331-209.9Z"/><path class="ak" d="M6365.952-208.4a2.678,2.678,0,0,1,1.451.209,18.8,18.8,0,0,0,3.337.773c.455.113,3.6.4,5.5.568l-.05-.015c-1.406-.346-4.316-.644-4.316-.644s5.32-.1,8.33-.1a4.906,4.906,0,0,0,.664-.043c-2.85-.065-7.263-.184-7.986-.213-1.073-.041-3.093.323-3.793,0a6.472,6.472,0,0,0-2.637-.691A1.614,1.614,0,0,1,6365.952-208.4Z"/><path class="ak" d="M6364.337-206.394l2.188,1.554c.127,0,.414.026.833.075a2.145,2.145,0,0,0-.7-1.063,7.723,7.723,0,0,0-2.324-.872C6364.331-206.554,6364.334-206.44,6364.337-206.394Z"/><path class="ak" d="M6342.468-294.257c1.933,1.755,4.433,3.431,6.77,3.213,4.735-.446,8.114.89,12.157,3.113,2.641,1.452,5.382-1.541,6.827-3.923a5.448,5.448,0,0,1-2.721-.21c-6.507-2.138-6.765-4.838-6.765-4.838A125.965,125.965,0,0,0,6342.468-294.257Z"/></g></svg>