<svg xmlns="http://www.w3.org/2000/svg" xmlns:xlink="http://www.w3.org/1999/xlink" width="1366.001" height="771" viewBox="0 0 1366.001 771"><defs><style>.a,.i,.r{fill:none;}.b{fill:#d0c1d9;}.c{fill:#eadff1;}.d{fill:#000;}.e{fill:#b3d336;}.e,.f,.g{opacity:0.6;}.f{fill:#809627;}.g{fill:#687a20;}.h{fill:#5f73b1;}.i{stroke:#212122;stroke-linecap:round;stroke-width:3.996px;}.i,.r{stroke-miterlimit:10;}.j{clip-path:url(#a);}.k,.m{fill:#d8a35d;}.k{fill-rule:evenodd;}.l{fill:#8f7fc8;}.n{fill:#5f5585;}.o{fill:#ffc84f;}.p{opacity:0.3;}.q{opacity:0.5;}.r{stroke:#8f7fc8;stroke-width:0.423px;}.s{fill:#d19442;}.t{opacity:0.15;}.u{fill:#f6c865;}.v{fill:#989898;}.w{fill:#cbcbcb;}.x{fill:gray;}.y{fill:#62548a;}</style><clipPath id="a"><rect class="a" width="644.209" height="537.314" transform="translate(7149.625 -436.873)"/></clipPath></defs><g transform="translate(-6867.618 667.559)"><path class="b" d="M8233.618-658.022V100.441L7991.391,32.855,7958.4,26.592l1.636-558.092,30.118-25.56Z"/><path class="b" d="M7183.915-542.087,7167.864,14.284l-300.044,74.4V-661.371l298.844,93.57Z"/><path class="c" d="M7565.6-578.487H7140.988V38.9h849.165V-578.487Z"/><path class="d" d="M6867.618-606.779c121.657,30.38,335.7,73.889,615,80.373,352.971,8.194,622.428-47.1,751-78.7v-62.455h-1366Z"/><path class="d" d="M6867.618,55.125c121.657-29.39,335.7-71.48,615-77.753,352.971-7.927,622.428,45.568,751,76.133v47.19l-1365.8,2.746Z"/><path class="e" d="M7079.837-110.885s15.843-160.919,101.689-210.18,90.236-55.563,90.236-55.563,4.864,114.235-52.572,184.452-118.463,84.337-118.463,84.337Z"/><path class="f" d="M7113.009-105.816s23.817-87.982,94.808-103.572,111.092,4.53,111.092,4.53-37.582,105.88-92.684,112.026C7164.133-85.907,7113.009-105.816,7113.009-105.816Z"/><path class="g" d="M7108.631-105.185a1.261,1.261,0,0,0,.87-.346c.228-.214,23.14-21.68,58.362-43.235,32.456-19.862,82.308-43.867,135.485-45.432a1.269,1.269,0,0,0,1.231-1.306,1.267,1.267,0,0,0-1.306-1.232c-23.749.7-48.812,5.837-74.492,15.271a354.016,354.016,0,0,0-62.293,30.564c-35.433,21.691-58.5,43.307-58.728,43.523a1.27,1.27,0,0,0-.053,1.795A1.268,1.268,0,0,0,7108.631-105.185Z"/><path class="f" d="M7100.089-113.988a1.27,1.27,0,0,0,1.2-.845,958.637,958.637,0,0,1,45.471-103.043c16.232-31.728,40.416-54.091,63.8-75.719,18.053-16.7,35.106-32.464,46.248-50.911a1.268,1.268,0,0,0-.43-1.742,1.269,1.269,0,0,0-1.743.43c-10.956,18.139-27.881,33.79-45.8,50.359-23.551,21.778-47.9,44.3-64.339,76.427a960.94,960.94,0,0,0-45.6,103.35,1.27,1.27,0,0,0,.772,1.621A1.284,1.284,0,0,0,7100.089-113.988Z"/><path class="g" d="M7277.044-152.108a1.271,1.271,0,0,0,1.1-.626,1.271,1.271,0,0,0-.451-1.738,134.379,134.379,0,0,0-48.822-17.093c-12.894-1.826-21.222-1.036-21.57-1a1.268,1.268,0,0,0-1.137,1.387,1.271,1.271,0,0,0,1.387,1.139,98.5,98.5,0,0,1,21.053,1,131.826,131.826,0,0,1,47.8,16.755A1.265,1.265,0,0,0,7277.044-152.108Z"/><path class="g" d="M7243.312-118.31a1.264,1.264,0,0,0,.909-.383,1.27,1.27,0,0,0-.022-1.795c-.281-.274-7.018-6.784-19.547-14.075a143.817,143.817,0,0,0-54.438-18.279,1.269,1.269,0,0,0-1.414,1.107,1.269,1.269,0,0,0,1.106,1.413,141.275,141.275,0,0,1,53.47,17.953c12.26,7.135,18.984,13.634,19.051,13.7A1.262,1.262,0,0,0,7243.312-118.31Z"/><path class="f" d="M7197.96-265.8c1.814,0,3.759-.039,5.822-.13a134.446,134.446,0,0,0,49.775-11.975,1.27,1.27,0,0,0,.622-1.685,1.27,1.27,0,0,0-1.684-.621,131.879,131.879,0,0,1-48.825,11.745,102.954,102.954,0,0,1-21.107-.971,1.27,1.27,0,0,0-1.481,1.015,1.269,1.269,0,0,0,1.014,1.481A94.211,94.211,0,0,0,7197.96-265.8Z"/><path class="f" d="M7177.838-220.752c11.837,0,28.3-1.392,49.075-6.436a1.27,1.27,0,0,0,.934-1.533,1.27,1.27,0,0,0-1.533-.934c-26.512,6.435-45.855,6.856-57.411,6.075-12.513-.845-18.843-3.24-18.9-3.264a1.269,1.269,0,0,0-1.641.725,1.269,1.269,0,0,0,.723,1.642c.265.1,6.643,2.533,19.481,3.418C7171.244-220.874,7174.339-220.752,7177.838-220.752Z"/><path class="e" d="M7117.611-104.446s14.412-161.054-60.755-225.445-78.305-71.4-78.305-71.4-26.06,111.329,17.29,191.017,100.678,104.929,100.678,104.929Z"/><path class="f" d="M7084.075-105.646s-7.01-90.879-73.853-119.421-109.992-16.245-109.992-16.245,17.2,111.028,70.192,127.331C7030.137-95.61,7084.075-105.646,7084.075-105.646Z"/><path class="g" d="M7088.259-104.21a1.27,1.27,0,0,1-.791-.5c-.183-.253-18.695-25.612-49.285-53.351-28.188-25.561-72.7-58.433-124.65-69.876a1.27,1.27,0,0,1-.967-1.513,1.268,1.268,0,0,1,1.513-.967c23.2,5.112,46.87,14.828,70.343,28.881a354,354,0,0,1,55.51,41.634c30.771,27.911,49.407,53.447,49.591,53.7a1.268,1.268,0,0,1-.282,1.772A1.266,1.266,0,0,1,7088.259-104.21Z"/><path class="f" d="M7098.291-111.268a1.272,1.272,0,0,1-1.018-1.053,958.548,958.548,0,0,0-25.479-109.71c-10.036-34.2-29.631-60.674-48.58-86.28-14.628-19.766-28.444-38.435-35.955-58.635a1.27,1.27,0,0,1,.747-1.632,1.269,1.269,0,0,1,1.633.748c7.385,19.862,21.1,38.392,35.615,58.009,19.082,25.784,38.813,52.446,48.976,87.075a961.247,961.247,0,0,1,25.552,110.036,1.27,1.27,0,0,1-1.06,1.449A1.3,1.3,0,0,1,7098.291-111.268Z"/><path class="g" d="M6931.535-181.686a1.267,1.267,0,0,1-.959-.819,1.268,1.268,0,0,1,.766-1.623,134.351,134.351,0,0,1,51.152-7.7c13.008.608,21.043,2.935,21.379,3.033a1.269,1.269,0,0,1,.859,1.575,1.272,1.272,0,0,1-1.575.861,98.352,98.352,0,0,0-20.871-2.937,131.822,131.822,0,0,0-50.087,7.556A1.264,1.264,0,0,1,6931.535-181.686Z"/><path class="g" d="M6958.38-142.2a1.261,1.261,0,0,1-.821-.546,1.268,1.268,0,0,1,.356-1.759c.327-.217,8.159-5.358,21.826-10.187a143.812,143.812,0,0,1,56.891-7.817,1.269,1.269,0,0,1,1.183,1.35,1.269,1.269,0,0,1-1.35,1.183,141.254,141.254,0,0,0-55.878,7.678c-13.374,4.726-21.192,9.858-21.269,9.909A1.262,1.262,0,0,1,6958.38-142.2Z"/><path class="f" d="M7030.415-278.656c-1.783-.338-3.686-.738-5.7-1.212a134.449,134.449,0,0,1-46.673-21.039,1.269,1.269,0,0,1-.3-1.77,1.27,1.27,0,0,1,1.77-.3,131.878,131.878,0,0,0,45.782,20.636,103.066,103.066,0,0,0,20.919,2.978,1.272,1.272,0,0,1,1.267,1.273,1.269,1.269,0,0,1-1.273,1.266A94.2,94.2,0,0,1,7030.415-278.656Z"/><path class="f" d="M7041.792-230.647c-11.629-2.205-27.541-6.639-47.016-15.466a1.268,1.268,0,0,1-.632-1.68,1.27,1.27,0,0,1,1.68-.632c24.849,11.262,43.774,15.279,55.274,16.664,12.451,1.5,19.117.327,19.182.315a1.271,1.271,0,0,1,1.478,1.018,1.269,1.269,0,0,1-1.017,1.478c-.279.052-7,1.252-19.776-.27C7048.294-229.538,7045.23-229.995,7041.792-230.647Z"/><rect class="h" width="65.898" height="42.817" transform="translate(7126.208 -69.961) rotate(-180)"/><circle class="h" cx="32.949" cy="32.949" r="32.949" transform="translate(7060.311 -102.91)"/><line class="i" x1="88.31" transform="translate(7048.603 -80.134)"/><line class="i" x1="38.134" y1="167.057" transform="translate(7111.49 -80.134)"/><line class="i" y1="167.057" x2="38.134" transform="translate(7035.557 -80.134)"/><g class="j"><path class="k" d="M7655.61-18.858s6.458-7.366,13.989-8.847c4.476-.88,4.324-2.01,5.079-2.38,2.5-1.227.229,3.607-3.548,4.979-3.069,1.114-4.587,6.5-6.411,7.7s-7.332,3.5-8.758,2.828S7655.61-18.858,7655.61-18.858Z"/><path class="k" d="M7635.758-8.8c1.374-.525,15.718-9.936,23.662-11s19.853-1.886,23.921-3.226c4.786-1.575,6.088.3.6,2.657-3.569,1.533-10.909,3.983-12.551,4.118-.8.065,4.37-.847,9.968-2.249,5.952-1.491,12.393-3.45,12.735-2.393.663,2.049-16.436,7.421-19.469,7.876a76.86,76.86,0,0,0,7.991-1.3c3.6-.792,7.7-2.246,8.547-1.527,1.334,1.132-7.676,5.1-15.2,6.461-.121.25,2.339.533,11.169-1.683.887-.222,3.182.075.307,1.551-6.051,3.105-8.424,4.887-17.352,5.533-8.706.63-18.4-.768-24.585,1.592Z"/><path class="l" d="M7642.051,1.838c-6.978,2.73-57.643,12.021-104.149,1.807-29.353-6.434-57.037-20.655-71.043-49.2-36.191-73.786,48.377-115.64,48.377-115.64a1.448,1.448,0,0,1,.127.2c3.665,5.537,82.5,123.806,137.192,142.262C7652.555-18.729,7653.427-2.625,7642.051,1.838Z"/><path class="m" d="M7298.14,140.844s1.76,162.712-5.129,164.916c-12.365,4.035-60.509,16.57-8.687,17.362,26.323,3.871,24.89-2.208,25.734-7.182.69-4.063,12.334-148.544,14.387-159.681.459-2.495.738-4,.738-4Z"/><path class="m" d="M7409.874,129.383s11.64,161.686,18.588,163.7c12.473,3.686,60.949,14.865,9.17,17.111-26.2,4.608-24.941-1.508-25.925-6.457-.8-4.042-7.339-34.677-9.7-45.752-.53-2.48-20.092-127.74-20.092-127.74Z"/><path class="n" d="M7408.306,293.694c-.573-2.288,15.983-3.961,18.069-2.287s35.808,4.7,36.274,14.561-46.07,7.387-49.357,7.53S7409.433,298.19,7408.306,293.694Z"/><path class="o" d="M7418-29.46a10.26,10.26,0,0,1-6.032,2.177c-13.654-.9-72.614-4.96-104.393-9.542-11.211-1.618-19.039-3.3-20.3-4.939,0,0,0,.047,0,.131-.068,1.768-.791,22.008-1.646,48.548-1.686,52.39-13.5,126.617-21.748,148.745-1.78,4.777,72,3.656,72,3.656,4.833-53.8,7.852-148.72,11.515-152.671,4.455-4.806,3.813,78.858,5.291,149.041,28.318,10.048,74.583,9.406,74.308,6.391C7423.733,126.271,7418-29.46,7418-29.46Z"/><g class="p"><path d="M7363.369-30.939c.223,0,.445,0,.662,0C7364.031-30.937,7363.8-30.94,7363.369-30.939Z"/><path class="q" d="M7363.369-30.939c-17.665-.109-55.8-5.886-55.8-5.886-11.211-1.618-19.039-3.3-20.3-4.939,0,0,0,.047,0,.131-.068,1.768-.791,22.008-1.646,48.548a13.15,13.15,0,0,0,1.863-.055c4.01-.392,7.25-2.578,9.852-5.8a31.972,31.972,0,0,0,4.259-7.229C7316.821-29.932,7357.705-30.917,7363.369-30.939Z"/></g><line class="r" x2="1.87" y2="195.832" transform="translate(7405.314 -31.834)"/><line class="r" x2="2.02" y2="192.438" transform="translate(7386.545 -29.534)"/><line class="r" x1="0.97" y2="190.837" transform="translate(7367.555 -31.084)"/><line class="r" x1="3.771" y2="39.223" transform="translate(7347.398 -32.577)"/><line class="r" x1="13.074" y2="193.664" transform="translate(7318.831 -34.234)"/><line class="r" x1="15.779" y2="195.066" transform="translate(7299.559 -35.781)"/><line class="r" x1="20.617" y2="195.777" transform="translate(7278.428 -37.182)"/><path class="r" d="M7418.771-9.038s-105.027-4.059-132.24-11.374"/><path class="r" d="M7347.4,6.645c35.886,11.438,72.038,1.346,72.038,1.346"/><path class="r" d="M7348.006,4.2s-33.827,6.44-62.165-3.893"/><path class="r" d="M7420.011,22.38s-27.563,11.54-69.8.816"/><path class="r" d="M7420.712,39.518s-42.121,9-69.869.118"/><path class="r" d="M7421.429,56.546s-22.313,14.588-70.146,3.069"/><path class="r" d="M7422.282,76.134s-33.305,13.913-70.756-.75"/><path class="r" d="M7423.1,94.082s-23.953,14.083-71.324.632"/><path class="r" d="M7423.985,112.486s-32.559,13.608-72.028-3.043"/><path class="r" d="M7424.724,126.853s-19.9,16.1-72.557-1.634"/><path class="r" d="M7425.649,143.167s-31.072,13.1-73.238-2.19"/><path class="r" d="M7344.98,21.8s-14.779,10.207-60.793-2.271"/><path class="r" d="M7343.143,38.92s-20.14,7.363-59.236-3.183"/><path class="r" d="M7342.45,58.033s-30.673,6.434-60.016-5.162"/><path class="r" d="M7341.523,73.853s-30.176,10.421-61.026-5.248"/><path class="r" d="M7340.522,91.224s-28.506,7.33-62.317-5.36"/><path class="r" d="M7339.537,107.9s-24.225,8.458-63.855-5.492"/><path class="r" d="M7338.27,122.629s-28.92,11.89-65.394-4.1"/><path class="r" d="M7337.353,141.094s-32.417,7.967-68.052-5.062"/><path class="s" d="M7430.044-236.791s-3.09,15.183-14.653,20.638,21.021,6.276,21.021,6.276-1.38-15.839,2.506-24.265S7430.044-236.791,7430.044-236.791Z"/><ellipse class="m" cx="16.643" cy="22.706" rx="16.643" ry="22.706" transform="translate(7413.49 -267.595) rotate(-21.079)"/><path class="l" d="M7537.9,3.645c-29.353-6.434-57.037-20.655-71.043-49.2-.05.076-.1.139-.152.215-.151.189-.3.391-.455.619a.667.667,0,0,0-.1.139c-4.032,5.512-23.828,32.576-23.828,32.589-7.18,9.354-18.152,18.342-26.862,21.957-.569.253-1.15.468-1.681.657-21.351,3.338-110.268-30.452-120.861-38.9-4.778-3.8-6.649-21.641-7.028-40.982-.481-23.576,1.226-49.426,2.477-54.875,2.124-9.139,44.1-110.254,109.977-103.858a67.567,67.567,0,0,1,17.141,4.02s.493.518,1.366,1.289a32.385,32.385,0,0,0,5.953,4.235,25.3,25.3,0,0,0,6.081,2.44,18.635,18.635,0,0,0,12.426-1.012c4.121-1.845,13.273.316,24.384,6.523,15.435,8.609,34.687,25.029,49.54,49.3a1.448,1.448,0,0,1,.127.2,158.821,158.821,0,0,1,21.287,58.439A376.856,376.856,0,0,1,7537.9,3.645Z"/><path class="t" d="M7466.856-45.559c-.05.077-.108.139-.157.217-.15.192-.3.4-.449.618-.038.041-.065.086-.107.139-4.033,5.511-23.818,32.585-23.822,32.6-7.183,9.346-18.153,18.34-26.869,21.951,9.906-15.815,39.661-61.35,45.1-81.651C7457.6-51.437,7466.86-45.571,7466.856-45.559Z"/><path class="t" d="M7426.764-212.75c-.478,1.427,0,2.6,2.41,2.975,7.512,1.174,15.6,3.814,20.716,8.3a5.25,5.25,0,0,0,4.93,1.248c4.453-1.085,8.778-7,10.586-9.65a2.1,2.1,0,0,0,.288-.613c-11.115-6.207-20.258-8.37-24.386-6.516a18.605,18.605,0,0,1-12.423,1A10.267,10.267,0,0,0,7426.764-212.75Z"/><path class="u" d="M7438.333-266.8s-21.138,25.268-22.384-1.74C7415.088-287.228,7452.556-284.539,7438.333-266.8Z"/><path class="u" d="M7432.232-271.018s18.482,3.127,20.482,12.639c0,0-6.986-28.009-22.2-22.916s-20.449,8.769-8.226,36.523C7422.286-244.772,7417.965-268.932,7432.232-271.018Z"/><path class="u" d="M7431.231-281.372s-3.965-8.037-11.767-3.675-9.522,10.444-8.883,15.616.823,9.166-.356,9.621c0,0,4.9,2.174,5.627.54,0,0,.208,9.663,6.782,15.128,0,0-2.6-11.319,2.839-14.772S7431.231-281.372,7431.231-281.372Z"/><path class="u" d="M7430.448-281.153s4.534-5.812,13.614.172l6.266,5.713s-.725,1.634-3.538,1.364c0,0,4.278,7.9,4.959,13.022L7442.8-273.72Z"/><path class="v" d="M7441.88-48.412,7345.7-9.046a10.967,10.967,0,0,1-14.293-5.987l-26.861-65.649a3.372,3.372,0,0,1-.169-.474,10.925,10.925,0,0,1,6.163-13.808l96.182-39.366A10.948,10.948,0,0,1,7421-128.337l25.625,62.6,1.247,3.043A10.948,10.948,0,0,1,7441.88-48.412Z"/><path class="w" d="M7440.465-51.929l-96.182,39.366A10.948,10.948,0,0,1,7330-18.556l-25.626-62.6a10.925,10.925,0,0,1,6.163-13.808l96.182-39.366A10.948,10.948,0,0,1,7421-128.337l25.625,62.6A10.925,10.925,0,0,1,7440.465-51.929Z"/><circle class="x" cx="8.46" cy="8.46" r="8.46" transform="translate(7365.935 -82.073)"/><path class="t" d="M7301.361-68.77s9.224-36.638,102.509,4.406-79.547,1.316-79.547,1.316Z"/><path class="t" d="M7342.876-161.2s3.277,98.924-91.709,112.163l-2.036.622,6.746-21.023s55.793-43.2,56.365-44.57S7342.876-161.2,7342.876-161.2Z"/><path class="k" d="M7390.8-53.508c1.263-.042,15.548-3.682,22.3-2.326s16.658,4.014,20.338,4.062c4.329.057,4.864,1.943-.258,2.325-3.328.249-9.977.189-11.349-.161-.665-.169,3.787.533,8.728.958,5.253.452,11.034.659,11.017,1.614-.034,1.85-15.429,1.438-18.02.96a65.943,65.943,0,0,0,6.857,1.174c3.145.362,6.883.326,7.371,1.147.768,1.293-7.662,2-14.157,1-.169.169,1.751,1.086,9.545,1.753.783.067,2.565.95-.183,1.346-5.785.832-8.211,1.617-15.646-.352-7.25-1.921-14.738-5.766-20.422-5.576Z"/><path class="k" d="M7409.742-56.133s7.306-4.181,13.839-3.28c3.883.536,4.076-.425,4.792-.514,2.377-.3-.821,2.995-4.273,3.054-2.806.048-5.545,4-7.363,4.469s-6.936.8-7.906-.15S7409.742-56.133,7409.742-56.133Z"/><path class="l" d="M7331-231.235c-28.911,13.6-50.358,27.849-78.828,87.281-14.444,30.152-22.591,62.185-26.272,79.261a20.576,20.576,0,0,0,8.432,21.19c64.445,44.921,163.216.533,163.216.533,4.548-.3.665-17.359.665-17.359-39.4-12.209-70.04-20.038-105.15-17.328.182-.027,48.254-48.684,57.187-63.4,23.412-38.6,70.155-64.088,65.756-83.268C7414.49-230.958,7360.164-244.956,7331-231.235Z"/><path class="y" d="M7312.2,301.918c.509-2.3-19.588-1.054-21.627.678s-31.6,7.1-31.791,16.971,46.259,6.091,49.55,6.142S7311.2,306.445,7312.2,301.918Z"/></g></g></svg>