<svg xmlns="http://www.w3.org/2000/svg" xmlns:xlink="http://www.w3.org/1999/xlink" width="588" height="320.739" viewBox="0 0 588 320.739"><defs><style>.a,.g{fill:#937dcd;}.a{opacity:0.3;}.b{fill:#f8a84b;}.c{fill:#c6863c;}.d,.f{fill:#d8a35d;}.d{fill-rule:evenodd;}.e{fill:#d19442;}.h{opacity:0.15;}.i{fill:#ffc74f;}.j{fill:#cdced4;}.k{fill:#333;}.l{fill:#69676b;}.m{fill:#fff;}.n{fill:#b5d6da;opacity:0.49;}.o{fill:#db6c84;}.p{opacity:0.6;mix-blend-mode:screen;isolation:isolate;fill:url(#a);}</style><linearGradient id="a" x1="0.323" y1="1.083" x2="1.405" y2="0.125" gradientUnits="objectBoundingBox"><stop offset="0" stop-color="#898577"/><stop offset="0.166" stop-color="#706d61"/><stop offset="0.738" stop-color="#1f1e1b"/><stop offset="1"/></linearGradient></defs><g transform="translate(-450.273 -417.041)"><path class="a" d="M894.721,585.675c-8.853-24.254-39.282-37.292-58.18-52.225-11.686-9.234-25.923-17.314-33.909-30.332-9.317-15.187-13.089-23.509-31.819-29.354a221.748,221.748,0,0,0-89.947-8.619A138.65,138.65,0,0,0,632.5,479.96c-29.859,15.412-88.313,46.841-121.9,73.237-9.634,7.573-19.048,16.167-23.878,27.429s-3.922,25.8,5.1,34.085c11.883,10.909,35.069,9.983,39.2,25.574,3.517,13.27-11.188,23.992-15.209,37.118-4.13,13.483,4.4,28.577,16.862,35.179s27.63,6.085,41.226,2.342,26.158-10.432,39.147-15.918c59.626-25.185,126.45-24.5,190.461-34.1,35.27-5.286,98.43-22.109,93.453-69.471A40.761,40.761,0,0,0,894.721,585.675Z" transform="translate(3.772 5.257)"/><path class="b" d="M1038.273,697.262h-588l47.718-69.713h494.2Z" transform="translate(0 23.658)"/><rect class="c" width="588" height="16.86" transform="translate(450.273 720.92)"/><g transform="translate(670.166 417.041)"><g transform="translate(0 35.027)"><path class="d" d="M687.031,473.2c-.862-.7-8.924-10.885-14.376-13.541s-13.811-6.087-16.416-8.019c-3.062-2.273-4.444-1.237-1.061,1.766a59.668,59.668,0,0,0,8.036,5.949c.556.237-2.938-1.65-6.625-3.991-3.92-2.49-8.08-5.432-8.579-4.754-.964,1.314,10.038,9.248,12.109,10.3a58.18,58.18,0,0,1-5.431-2.841c-2.4-1.426-4.995-3.448-5.776-3.134-1.228.495,4.3,5.493,9.381,8.264.028.209-1.808-.174-7.622-3.87-.584-.372-2.3-.705-.591,1.04,3.607,3.673,4.887,5.52,11.146,8.112,6.1,2.527,13.4,3.833,17.282,7Z" transform="translate(-647.95 -448.318)"/><path class="d" d="M673.619,461.459s-2.885-6.831-7.941-9.69c-3.006-1.7-2.627-2.474-3.081-2.92-1.505-1.478-1.025,2.536,1.363,4.422,1.939,1.532,1.746,5.763,2.769,7.063s4.433,4.264,5.618,4.119S673.619,461.459,673.619,461.459Z" transform="translate(-646.401 -448.529)"/></g><g transform="translate(24.153)"><path class="e" d="M824.187,459.918s-1.218,13.593,7.167,21.111-19.324,0-19.324,0,5.156-13.02,4-21.111S824.187,459.918,824.187,459.918Z" transform="translate(-653.663 -412.626)"/><ellipse class="f" cx="14.66" cy="20.001" rx="14.66" ry="20.001" transform="translate(151.442 12.56)"/><path class="g" d="M711.664,544.816c22.192-46.421,61.8-67.6,87.085-73.223,10.946-2.438,19.209-1.96,22.225.646a16.391,16.391,0,0,0,10.233,3.975,22.2,22.2,0,0,0,5.747-.523,28.654,28.654,0,0,0,6.09-2.071c.935-.435,1.481-.746,1.481-.746A59.416,59.416,0,0,1,860,473.8c57.211,11.2,67.166,107.128,66.654,115.38-.312,4.91-5.389,27.158-11.737,46.934-5.2,16.234-11.268,30.81-16.256,32.825-11.068,4.454-94.636,10.566-111.817,2.372-.4-.3-.835-.623-1.247-.98-6.447-5.244-13.44-15.6-17.149-25.3,0-.011-9.876-27.849-11.891-33.516-.022-.056-.033-.1-.056-.145-.067-.224-.145-.435-.223-.635-.022-.078-.056-.145-.078-.222" transform="translate(-664.943 -411.089)"/><path class="h" d="M751.706,598.384c.022.078.056.145.078.222.078.2.157.412.224.635.022.045.033.089.056.145,2.015,5.668,11.891,33.505,11.891,33.516,3.709,9.7,10.7,20.054,17.149,25.3-4.376-15.845-18.017-61.776-17.493-80.282C761,595.756,751.706,598.373,751.706,598.384Z" transform="translate(-660.443 -398.961)"/><path class="h" d="M872.465,536.662s-27.694,82.67,49.142,117.779l1.562,1.038-.4-19.445s-36.2-50.521-36.343-51.822S872.465,536.662,872.465,536.662Z" transform="translate(-647.417 -403.597)"/><path class="h" d="M823.378,479.5c.044,1.325-.656,2.194-2.783,1.9-6.636-.9-14.131-.713-19.576,1.781a4.623,4.623,0,0,1-4.476-.189c-3.485-2.038-5.645-8.117-6.5-10.812a1.825,1.825,0,0,1-.09-.59c10.946-2.438,19.209-1.96,22.225.646a16.391,16.391,0,0,0,10.233,3.975A9.018,9.018,0,0,1,823.378,479.5Z" transform="translate(-656.144 -411.089)"/><g transform="translate(148.052)"><g transform="translate(3.094 5.577)"><path class="i" d="M814.57,437.558s25.379,14.072,17.846-8.521C827.2,413.407,797.26,427.487,814.57,437.558Z" transform="translate(-805.122 -422.054)"/><path class="i" d="M818.664,432.059s-14.2,8.425-12.83,16.878c0,0-3.131-25.234,10.988-25.87s19.586.729,18.332,27.413C835.154,450.48,831.052,429.255,818.664,432.059Z" transform="translate(-805.538 -421.952)"/></g><path class="i" d="M815.129,423.9s.713-7.862,8.508-6.749,11.135,5.567,12.249,10.021,2.227,7.794,3.34,7.794c0,0-3.34,3.341-4.454,2.227,0,0,2.89,8.008-.782,14.582,0,0-1.445-10.128-7.012-11.242S815.129,423.9,815.129,423.9Z" transform="translate(-801.367 -417.041)"/><path class="i" d="M817.232,423.216s-5.567-3.341-11.135,4.454l-3.34,6.681s1.113,1.113,3.34,0c0,0-1.015,7.846.049,12.274l3.292-13.388Z" transform="translate(-802.757 -416.427)"/></g><path class="h" d="M904.923,617.87s-14.324-30.04-87.762,21.594S886.085,626.8,886.085,626.8Z" transform="translate(-655.451 -395.447)"/><path class="g" d="M761.283,611.925s-67.78,28.754-84.224-33.259.661-76.886-6.027-107.074l10.9-5.248s41.034,25.3,55.081,64.357S761.283,611.925,761.283,611.925Z" transform="translate(-669.663 -411.5)"/></g><g transform="translate(140.207 58.839)"><g transform="translate(0 195.331)"><path class="d" d="M818.491,660c-1.055-.354-12.2-7.026-18.235-7.583s-15.072-.81-18.191-1.7c-3.668-1.042-4.594.414-.368,2.028a59.551,59.551,0,0,0,9.62,2.723c.6.025-3.33-.5-7.608-1.391-4.547-.942-9.48-2.224-9.706-1.414-.438,1.571,12.66,5.1,14.968,5.352a58.151,58.151,0,0,1-6.084-.738c-2.747-.487-5.892-1.459-6.511-.89-.974.9,5.964,3.62,11.7,4.414.1.186-1.753.476-8.5-.924-.679-.141-2.4.155-.185,1.181,4.673,2.16,6.523,3.435,13.294,3.645,6.6.207,13.893-1.152,18.642.44Z" transform="translate(-773.992 -644.989)"/><path class="d" d="M801.79,653.56s-5.113-5.371-10.854-6.256c-3.413-.526-3.333-1.386-3.915-1.642-1.931-.851-.062,2.734,2.837,3.654,2.356.748,3.672,4.773,5.088,5.628s5.654,2.421,6.711,1.867S801.79,653.56,801.79,653.56Z" transform="translate(-772.617 -645.533)"/></g><path class="g" d="M907.273,488.036c20.974,18.766,35.486,36.2,44.54,93.533,4.593,29.09,3.4,58.18,2.2,73.52a18.127,18.127,0,0,1-12.457,15.761C875.844,692.525,805.7,688.2,805.7,688.2c-3.763-1.4.295-15.016.295-15.016,33.621-45.627,81.671-37.955,94.6-45.958,4.032-23.653-28.459-53.251-32.29-67.923-10.035-38.476-43.065-71.772-34.518-86.852C836.736,467.231,886.117,469.106,907.273,488.036Z" transform="translate(-770.609 -469.936)"/></g></g><g transform="translate(532.583 675.054)"><path class="j" d="M690.22,678.526H528.159c-1.8,0-4.762-1.112-3.649-2.481l17.5-24.847a6.2,6.2,0,0,1,5.057-2.211H671.081a6.718,6.718,0,0,1,5.464,2.382l17.32,24.437C695.078,677.363,692.195,678.526,690.22,678.526Z" transform="translate(-524.267 -648.987)"/><path class="k" d="M671.67,671.422H541.923c-1.439,0-2.537-.553-2.31-1.164l5.472-14.683c.295-.792,1.885-1.375,3.752-1.375H665.863c1.659,0,3.066.523,3.3,1.228l5.015,14.766C674.378,670.846,673.2,671.422,671.67,671.422Z" transform="translate(-522.546 -648.401)"/><g transform="translate(16.696 2.521)"><rect class="j" width="135.304" height="0.683" transform="translate(0 5.809)"/><rect class="j" width="135.304" height="0.683" transform="translate(0 9.225)"/><rect class="j" width="135.304" height="0.683" transform="translate(0 13.325)"/><rect class="j" width="135.304" height="0.683" transform="translate(0 17.084)"/><rect class="j" width="1.025" height="22.551" transform="translate(16.386 0.365) rotate(17.439)"/><rect class="j" width="1.025" height="22.551" transform="translate(26.295 0.365) rotate(17.439)"/><rect class="j" width="1.025" height="22.551" transform="translate(34.154 0.365) rotate(17.439)"/><rect class="j" width="1.025" height="22.551" transform="translate(42.012 0.365) rotate(17.439)"/><rect class="j" width="1.025" height="22.551" transform="translate(50.212 0.365) rotate(17.439)"/><rect class="j" width="1.025" height="22.551" transform="translate(58.533 0.109) rotate(10.978)"/><rect class="j" width="1.025" height="22.551" transform="translate(65.602)"/><rect class="j" width="1.025" height="22.551" transform="translate(118.623 0.672) rotate(-17.439)"/><rect class="j" width="1.025" height="22.551" transform="translate(109.056 0.672) rotate(-17.439)"/><rect class="j" width="1.025" height="22.551" transform="translate(99.489 0.672) rotate(-17.439)"/><rect class="j" width="1.025" height="22.551" transform="translate(89.922 0.672) rotate(-17.439)"/><rect class="j" width="1.025" height="22.551" transform="translate(80.355 0.672) rotate(-17.439)"/><rect class="j" width="1.025" height="22.551" transform="translate(70.788 0.672) rotate(-17.439)"/></g></g><g transform="translate(507.876 503.753)"><rect class="l" width="20.207" height="24.954" transform="translate(99.385 138.635)"/><g transform="translate(0 0)"><path class="j" d="M710.725,634.568H507.271a5.388,5.388,0,0,1-5.215-5.545V500.538a5.388,5.388,0,0,1,5.215-5.545H710.725a5.388,5.388,0,0,1,5.215,5.545V629.023A5.388,5.388,0,0,1,710.725,634.568Z" transform="translate(-502.056 -494.993)"/></g><g transform="translate(60.864 160.627)"><path class="k" d="M556.771,647.96v-4.278c0-2.373,20.637-4.291,46.077-4.291s46.075,1.918,46.075,4.291v4.278Z" transform="translate(-556.771 -639.391)"/></g><g transform="translate(89.698 130.077)"><rect class="k" width="38.413" height="5.078"/></g><rect class="m" width="213.801" height="124.771" rx="4.985" transform="translate(0)"/></g><path class="n" d="M706.337,507.651v97.857a5.54,5.54,0,0,1-5.54,5.54H515.374a5.55,5.55,0,0,1-5.551-5.54V507.651a5.55,5.55,0,0,1,5.551-5.54H700.8a5.547,5.547,0,0,1,5.54,5.54Z" transform="translate(6.693 9.561)"/><path class="o" d="M584.623,517.006a42.3,42.3,0,1,0,42.3,42.3A42.3,42.3,0,0,0,584.623,517.006Z" transform="translate(10.345 11.235)"/><g transform="translate(632.393 541.125)"><circle class="o" cx="23.654" cy="23.654" r="23.654" transform="translate(0 33.451) rotate(-45)"/><path class="m" d="M654.6,555.53h-5.207v-5.207a1.429,1.429,0,0,0-1.43-1.429h-5.6a1.43,1.43,0,0,0-1.431,1.429v5.207h-5.207a1.43,1.43,0,0,0-1.429,1.43v5.6a1.429,1.429,0,0,0,1.429,1.429h5.207v5.207a1.431,1.431,0,0,0,1.431,1.43h5.6a1.43,1.43,0,0,0,1.43-1.43v-5.207H654.6a1.43,1.43,0,0,0,1.431-1.429v-5.6A1.431,1.431,0,0,0,654.6,555.53Z" transform="translate(-611.712 -526.307)"/></g><path class="m" d="M603.662,558.11c-4.88,8.066-13.055,13.186-15.058,14.358l-6.523,3.813-6.524-3.813c-2-1.171-10.178-6.292-15.06-14.358h13.835a1.306,1.306,0,0,0,1.113-.622l1-1.617,2.326,7.322a1.308,1.308,0,0,0,1.246.912h.044a1.31,1.31,0,0,0,1.227-1l2.422-9.886,1.932,7.519a1.309,1.309,0,0,0,2.327.44l2.22-3.071Zm-44.577-2.616H573.6l2.111-3.423a1.307,1.307,0,0,1,2.359.29l1.78,5.6,2.555-10.425a1.307,1.307,0,0,1,1.262-1h.008a1.308,1.308,0,0,1,1.267.982l2.535,9.865.979-1.354a1.31,1.31,0,0,1,1.06-.542h15.556a24.355,24.355,0,0,0,1.9-5.715,12.926,12.926,0,0,0-24.894-6.73,12.927,12.927,0,0,0-24.9,6.73A24.3,24.3,0,0,0,559.086,555.494Z" transform="translate(11.988 13.185)"/><path class="p" d="M705.557,508.114v97.857a5.54,5.54,0,0,1-5.54,5.54H516.763L702.787,503.32A5.53,5.53,0,0,1,705.557,508.114Z" transform="translate(7.472 9.696)"/></g></svg>