<svg xmlns="http://www.w3.org/2000/svg" xmlns:xlink="http://www.w3.org/1999/xlink" width="528" height="501" viewBox="0 0 528 501"><defs><style>.a{fill:rgba(255,255,255,0);stroke:rgba(112,112,112,0);}.b{fill:none;}.c{clip-path:url(#a);}.d{fill:#f9a94b;}.e{fill:#c7873c;}.f,.h{fill:#d8a35d;}.f{fill-rule:evenodd;}.g{fill:#d19442;}.i{fill:#947dce;}.j{opacity:0.15;}.k{fill:#ffc84f;}.l{fill:#4d388a;}.m{fill:#fefefe;}.n{fill:#1ebaed;}.o{fill:#f7c53d;}.p{fill:#52b429;}.q{fill:#e83e30;}.r{fill:#deb137;}.s{fill:#4aa225;}.t{fill:#d0382b;}.u{fill:#377eef;}.v{clip-path:url(#b);}.w{fill:#faf1f2;}.x{fill:#fe2131;}.y{fill:#fe4f4f;}.z{fill:#fb2030;}.aa{fill:#f71f30;}.ab{fill:#f31e30;}.ac{fill:#f01d2f;}.ad{fill:#d63030;}.ae{fill:#a60d0d;}.af{fill:#b2091d;}.ag{fill:#e5192c;}.ah{fill:#ec1b2e;}.ai{fill:#e1182b;}.aj{fill:#d91628;}.ak{fill:#b60a1e;}.al{fill:#d61427;}.am{fill:#d01225;}.an{fill:#dd172a;}.ao{fill:#e91b2d;}.ap{fill:#f44747;}.aq{fill:#c12121;}.ar{fill:#ac071b;}.as{fill:#ac1111;}.at{fill:#b0091c;}.au{fill:#b71a1a;}.av{fill:#d93333;}.aw{fill:#fa4c4c;}.ax{fill:#eb4040;}.ay{fill:#c92727;}.az{fill:#d22e2e;}.ba{fill:#a90f0f;}.bb{fill:#e33a3a;}.bc{fill:#df3737;}.bd{fill:#bf0d21;}.be{fill:#c30e21;}.bf{fill:#a9071b;}.bg{fill:#c50f22;}.bh{fill:#af1313;}.bi{fill:#c91024;}.bj{fill:#cc1124;}.bk{fill:#b21616;}.bl{fill:#e83e3e;}.bm{fill:#b41818;}.bn{fill:#bd1f1f;}.bo{fill:#ba1c1c;}.bp{fill:#cc2a2a;}.bq{fill:#c42323;}.br{fill:#ee4343;}.bs{fill:#f74949;}.bt{fill:#cf2c2c;}.bu{fill:#dc3535;}.bv{fill:#ba0b1f;}.bw{fill:#bc0c20;}.bx{fill:#d31326;}.by{fill:#c62525;}.bz{fill:#f04545;}.ca{fill:#e53c3c;}.cb{fill:#b81023;}.cc{fill:#c42b3c;}.cd{fill:#a30b0b;}.ce{fill:#a00808;}.cf{fill:#9f0707;}.cg{fill:#ad1818;}.ch{fill:#fe4352;}.ci{fill:#da444b;}.cj{fill:#b93030;}.ck{fill:#fe5151;}.cl{fill:#ea5f66;}</style><clipPath id="a"><rect class="a" width="528" height="501" transform="translate(419 267)"/></clipPath><clipPath id="b"><path class="b" d="M532.589,377.979c-17.325,0-31.367,14.318-31.367,31.985s14.042,31.986,31.367,31.986,31.362-14.318,31.362-31.986S549.908,377.979,532.589,377.979Zm.55,56.5c-9.741,0-17.638-10.975-17.638-24.512s7.9-24.511,17.638-24.511,17.639,10.973,17.639,24.511S542.88,434.476,533.139,434.476Z" transform="translate(-501.222 -377.979)"/></clipPath></defs><g class="c" transform="translate(-419 -267)"><g transform="translate(-82.222 -11.983)"><path class="d" d="M580.161,700.2H865.755L822.64,655.264H621.8Z" transform="translate(15.856 75.517)"/><rect class="e" width="285.594" height="10.868" transform="translate(596.017 775.719)"/><g transform="translate(635.235 509.47)"><g transform="translate(258.067 31.82)"><path class="f" d="M827.719,519.757c.778-.64,8.063-9.888,12.99-12.3s12.479-5.529,14.831-7.284c2.768-2.064,4.016-1.124.96,1.6a53.731,53.731,0,0,1-7.261,5.405c-.5.215,2.655-1.5,5.986-3.625,3.541-2.262,7.3-4.936,7.75-4.32.872,1.194-9.069,8.4-10.94,9.355a52.435,52.435,0,0,0,4.906-2.579c2.165-1.3,4.514-3.133,5.219-2.847,1.11.449-3.885,4.991-8.476,7.508-.025.19,1.633-.158,6.887-3.516.528-.337,2.081-.641.533.945-3.259,3.336-4.416,5.014-10.07,7.369-5.516,2.3-12.11,3.482-15.616,6.361Z" transform="translate(-827.719 -497.15)"/><path class="f" d="M836.645,509.215s2.606-6.206,7.175-8.8c2.716-1.544,2.374-2.249,2.784-2.653,1.361-1.344.926,2.3-1.23,4.016-1.753,1.393-1.578,5.236-2.5,6.416s-4.005,3.873-5.076,3.742S836.645,509.215,836.645,509.215Z" transform="translate(-825.926 -497.469)"/></g><g transform="translate(22.405)"><path class="g" d="M711.971,507.292s1.1,12.35-6.475,19.179,17.459,0,17.459,0-4.659-11.829-3.613-19.179S711.971,507.292,711.971,507.292Z" transform="translate(-616.895 -464.332)"/><ellipse class="h" cx="13.246" cy="18.17" rx="13.246" ry="18.17" transform="translate(85.827 11.41)"/><path class="i" d="M836.293,583.5c-20.051-42.171-55.837-61.41-78.684-66.518-9.891-2.216-17.355-1.781-20.082.586a14.766,14.766,0,0,1-9.246,3.612,19.992,19.992,0,0,1-5.191-.476,25.748,25.748,0,0,1-5.5-1.882c-.844-.4-1.338-.677-1.338-.677a53.389,53.389,0,0,0-13.984.839c-51.693,10.176-60.686,97.32-60.223,104.815.281,4.46,4.869,24.671,10.6,42.635,4.7,14.749,10.182,27.99,14.689,29.82,10,4.047,85.506,9.6,101.03,2.154.362-.273.754-.566,1.126-.89,5.826-4.764,12.143-14.171,15.494-22.982,0-.01,8.924-25.3,10.744-30.447.02-.051.031-.091.05-.132.061-.2.131-.394.2-.576.02-.071.05-.131.071-.2" transform="translate(-629.357 -462.019)"/><path class="j" d="M774.727,624.941c-.02.071-.05.131-.07.2-.071.183-.142.375-.2.576-.02.041-.03.082-.05.132-1.82,5.148-10.744,30.437-10.744,30.447-3.35,8.811-9.669,18.219-15.494,22.982,3.953-14.393,16.278-56.12,15.8-72.931C766.327,622.554,774.727,624.93,774.727,624.941Z" transform="translate(-608.037 -443.778)"/><path class="j" d="M677.288,571.632s25.022,75.1-44.4,106.995l-1.411.944.358-17.665s32.714-45.9,32.838-47.076S677.288,571.632,677.288,571.632Z" transform="translate(-631.476 -450.752)"/><path class="j" d="M713.124,524.164c-.04,1.2.593,1.993,2.516,1.731,6-.819,12.766-.647,17.686,1.619a4.159,4.159,0,0,0,4.045-.173c3.149-1.851,5.1-7.373,5.876-9.822a1.7,1.7,0,0,0,.081-.536c-9.891-2.216-17.355-1.781-20.082.586A14.766,14.766,0,0,1,714,521.181,8.241,8.241,0,0,0,713.124,524.164Z" transform="translate(-615.076 -462.019)"/><g transform="translate(81.174)"><g transform="translate(4.496 5.065)"><path class="k" d="M721.029,489.274s-22.931,12.783-16.124-7.741C709.614,467.334,736.669,480.125,721.029,489.274Z" transform="translate(-702.65 -475.189)"/><path class="k" d="M717.871,484.217s12.83,7.654,11.592,15.333c0,0,2.829-22.925-9.927-23.5s-17.7.662-16.562,24.9C702.973,500.953,706.679,481.67,717.871,484.217Z" transform="translate(-702.816 -475.036)"/></g><path class="k" d="M720.844,477.2s-.644-7.143-7.687-6.13-10.061,5.057-11.066,9.1-2.013,7.08-3.019,7.08c0,0,3.019,3.035,4.024,2.024,0,0-2.611,7.275.707,13.247,0,0,1.305-9.2,6.336-10.212S720.844,477.2,720.844,477.2Z" transform="translate(-699.072 -470.971)"/><path class="k" d="M716.666,476.215s5.03-3.035,10.061,4.046l3.018,6.069s-1.006,1.011-3.018,0c0,0,.916,7.127-.046,11.15l-2.973-12.161Z" transform="translate(-695.538 -470.048)"/></g><path class="j" d="M651.249,640.55s12.943-27.29,79.3,19.616-62.276-11.508-62.276-11.508Z" transform="translate(-627.504 -438.494)"/><path class="i" d="M770.016,644.711s61.241,26.121,76.1-30.214-.6-69.846,5.446-97.269l-9.851-4.769s-37.076,22.984-49.768,58.464S770.016,644.711,770.016,644.711Z" transform="translate(-603.648 -462.638)"/></g><g transform="translate(0 53.451)"><g transform="translate(126.49 177.447)"><path class="f" d="M718.151,676.07c.953-.322,11.019-6.383,16.477-6.889s13.618-.735,16.435-1.541c3.314-.948,4.151.376.333,1.842a53.518,53.518,0,0,1-8.692,2.474c-.545.023,3.009-.457,6.875-1.263,4.108-.856,8.564-2.02,8.769-1.285.395,1.427-11.44,4.635-13.524,4.862a52.408,52.408,0,0,0,5.5-.67c2.481-.442,5.325-1.326,5.883-.808.88.816-5.388,3.288-10.569,4.01-.09.169,1.584.432,7.678-.841.614-.127,2.172.142.167,1.074-4.222,1.963-5.894,3.121-12.011,3.312-5.967.187-12.553-1.047-16.844.4Z" transform="translate(-718.151 -662.429)"/><path class="f" d="M729.739,670.539s4.62-4.878,9.806-5.682c3.084-.479,3.012-1.26,3.538-1.491,1.745-.773.055,2.484-2.564,3.319-2.129.68-3.318,4.336-4.6,5.112s-5.108,2.2-6.064,1.7S729.739,670.539,729.739,670.539Z" transform="translate(-715.891 -663.247)"/></g><path class="i" d="M656.034,531.924c-18.951,17.048-32.063,32.882-40.243,84.969-4.15,26.426-3.07,52.853-1.989,66.789A16.451,16.451,0,0,0,625.056,698c59.376,19.691,122.753,15.758,122.753,15.758,3.4-1.272-.268-13.641-.268-13.641-30.377-41.449-73.791-34.48-85.47-41.75-3.644-21.486,25.714-48.375,29.175-61.7,9.068-34.952,38.91-65.2,31.189-78.9C719.766,513.024,675.149,514.728,656.034,531.924Z" transform="translate(-612.819 -515.481)"/></g></g><path class="l" d="M743.013,798.015h-.044q-4.006-.092-7.98-.31a1.982,1.982,0,0,1-1.865-2.091,1.946,1.946,0,0,1,2.08-1.875q3.911.212,7.854.3a1.987,1.987,0,0,1-.044,3.972Zm14.855-.112a1.987,1.987,0,0,1-.073-3.971q3.945-.151,7.851-.426a2.016,2.016,0,0,1,2.109,1.845,1.985,1.985,0,0,1-1.835,2.119q-3.967.277-7.975.431C757.92,797.9,757.893,797.9,757.868,797.9ZM720.3,796.442a1.925,1.925,0,0,1-.231-.013q-3.977-.463-7.917-1.053a1.986,1.986,0,0,1,.582-3.929q3.875.582,7.79,1.037a1.986,1.986,0,0,1-.224,3.958Zm60.257-.464a1.986,1.986,0,0,1-.255-3.955q3.913-.517,7.774-1.158a1.959,1.959,0,0,1,2.271,1.635,1.983,1.983,0,0,1-1.626,2.283q-3.931.652-7.905,1.178A1.894,1.894,0,0,1,780.556,795.979Zm-82.728-3.236a2.008,2.008,0,0,1-.412-.043c-2.583-.552-5.2-1.158-7.788-1.8a1.986,1.986,0,0,1,.95-3.856c2.54.633,5.118,1.229,7.657,1.769a1.988,1.988,0,0,1-.407,3.93Zm105.143-.811a1.987,1.987,0,0,1-.441-3.922q3.837-.888,7.632-1.889a1.985,1.985,0,0,1,1.007,3.84q-3.855,1.02-7.755,1.92A1.934,1.934,0,0,1,802.971,791.932Zm-127.171-5a2,2,0,0,1-.593-.091q-3.83-1.209-7.606-2.54a1.984,1.984,0,0,1,1.307-3.747q3.714,1.306,7.482,2.5a1.987,1.987,0,0,1-.59,3.881Zm149.1-1.15a1.987,1.987,0,0,1-.621-3.872q3.738-1.245,7.419-2.6a1.985,1.985,0,0,1,1.365,3.727q-3.743,1.385-7.543,2.648A2,2,0,0,1,824.905,785.781Zm-170.536-6.742a1.96,1.96,0,0,1-.765-.156c-2.469-1.045-4.934-2.138-7.33-3.246a1.985,1.985,0,0,1,1.654-3.609c2.355,1.093,4.781,2.166,7.208,3.193a1.988,1.988,0,0,1-.766,3.818Zm191.773-1.456a1.988,1.988,0,0,1-.8-3.805q3.6-1.585,7.126-3.286a1.972,1.972,0,0,1,2.636.935,1.992,1.992,0,0,1-.93,2.649q-3.588,1.726-7.241,3.34A1.981,1.981,0,0,1,846.142,777.584Zm-212.355-8.429a1.947,1.947,0,0,1-.932-.236c-2.327-1.255-4.679-2.575-6.988-3.922a1.993,1.993,0,0,1-.717-2.715,1.971,1.971,0,0,1,2.7-.722c2.272,1.326,4.585,2.624,6.873,3.86a1.987,1.987,0,0,1-.935,3.736Zm232.721-1.73a1.972,1.972,0,0,1-1.729-1.021,2,2,0,0,1,.766-2.7q3.431-1.92,6.792-3.946a1.965,1.965,0,0,1,2.71.682,1.99,1.99,0,0,1-.676,2.724q-3.419,2.059-6.905,4.013A1.981,1.981,0,0,1,866.507,767.424ZM614.23,757.373a1.966,1.966,0,0,1-1.093-.331c-2.227-1.489-4.444-3.024-6.587-4.56a2,2,0,0,1-.46-2.772,1.968,1.968,0,0,1,2.756-.464q3.2,2.3,6.479,4.487a1.987,1.987,0,0,1-1.1,3.64Zm271.616-1.992a1.967,1.967,0,0,1-1.63-.861,1.993,1.993,0,0,1,.509-2.762q3.244-2.237,6.4-4.572a1.967,1.967,0,0,1,2.761.425,1.99,1.99,0,0,1-.423,2.775q-3.214,2.374-6.505,4.646A1.953,1.953,0,0,1,885.846,755.381ZM595.863,743.812a1.962,1.962,0,0,1-1.24-.442q-3.109-2.529-6.132-5.154a1.993,1.993,0,0,1-.2-2.8,1.965,1.965,0,0,1,2.786-.205q2.974,2.583,6.033,5.071a1.993,1.993,0,0,1,.293,2.793A1.967,1.967,0,0,1,595.863,743.812Zm308.128-2.238a1.963,1.963,0,0,1-1.519-.716,1.992,1.992,0,0,1,.255-2.8q3.021-2.531,5.953-5.153a1.966,1.966,0,0,1,2.79.162,2,2,0,0,1-.162,2.805q-2.983,2.668-6.054,5.238A1.958,1.958,0,0,1,903.991,741.573ZM578.842,728.59a1.97,1.97,0,0,1-1.38-.564c-1.906-1.87-3.8-3.79-5.625-5.7a2,2,0,0,1,.058-2.809,1.972,1.972,0,0,1,2.793.059q2.722,2.853,5.534,5.61a2,2,0,0,1,.035,2.809A1.964,1.964,0,0,1,578.842,728.59Zm341.945-2.472a1.962,1.962,0,0,1-1.393-.578,1.994,1.994,0,0,1-.007-2.809q2.772-2.8,5.453-5.692a1.971,1.971,0,0,1,2.793-.1,2,2,0,0,1,.1,2.809q-2.727,2.936-5.543,5.782A1.965,1.965,0,0,1,920.786,726.118ZM563.308,711.851a1.97,1.97,0,0,1-1.507-.7q-2.583-3.06-5.069-6.2a1.993,1.993,0,0,1,.318-2.791,1.967,1.967,0,0,1,2.775.32q2.446,3.093,4.987,6.1a1.993,1.993,0,0,1-.228,2.8A1.964,1.964,0,0,1,563.308,711.851Zm372.776-2.7a1.971,1.971,0,0,1-1.256-.454,1.994,1.994,0,0,1-.265-2.8q2.5-3.05,4.906-6.18a1.968,1.968,0,0,1,2.77-.362,2,2,0,0,1,.359,2.786q-2.443,3.183-4.987,6.284A1.972,1.972,0,0,1,936.084,709.154ZM549.4,693.739a1.972,1.972,0,0,1-1.62-.845q-2.288-3.286-4.47-6.646a1.992,1.992,0,0,1,.575-2.749,1.965,1.965,0,0,1,2.733.576q2.147,3.309,4.4,6.536a2,2,0,0,1-.484,2.768A1.959,1.959,0,0,1,549.4,693.739Zm400.35-2.923a1.946,1.946,0,0,1-1.107-.344,1.991,1.991,0,0,1-.525-2.758q2.21-3.273,4.313-6.618a1.96,1.96,0,0,1,2.724-.616,1.988,1.988,0,0,1,.614,2.738q-2.138,3.4-4.383,6.727A1.97,1.97,0,0,1,949.749,690.816ZM537.235,674.409a1.97,1.97,0,0,1-1.718-1q-1.969-3.48-3.828-7.031a1.978,1.978,0,1,1,3.5-1.85q1.828,3.491,3.766,6.918a1.991,1.991,0,0,1-.741,2.708A1.948,1.948,0,0,1,537.235,674.409Zm424.418-3.138a1.947,1.947,0,0,1-.949-.246,1.988,1.988,0,0,1-.779-2.7q1.891-3.469,3.678-7a1.977,1.977,0,1,1,3.522,1.8q-1.814,3.59-3.74,7.113A1.971,1.971,0,0,1,961.653,671.271Zm-434.721-17.24a1.973,1.973,0,0,1-1.8-1.17q-1.634-3.648-3.153-7.354a1.978,1.978,0,1,1,3.654-1.513q1.491,3.648,3.1,7.234a1.98,1.98,0,0,1-1.8,2.8Zm444.751-3.352a1.971,1.971,0,0,1-.783-.162,1.994,1.994,0,0,1-1.029-2.613c1.029-2.386,2.041-4.849,3.009-7.321a1.977,1.977,0,1,1,3.677,1.455c-.986,2.513-2.015,5.017-3.059,7.444A1.981,1.981,0,0,1,971.683,650.68Zm-453.11-17.922a1.978,1.978,0,0,1-1.87-1.344q-1.288-3.794-2.457-7.642a1.977,1.977,0,1,1,3.779-1.16q1.149,3.786,2.416,7.518a1.982,1.982,0,0,1-1.869,2.628Zm461.172-3.545a1.959,1.959,0,0,1-.609-.1,1.987,1.987,0,0,1-1.269-2.5q1.212-3.751,2.3-7.555a1.976,1.976,0,1,1,3.8,1.1c-.735,2.564-1.524,5.149-2.339,7.678A1.98,1.98,0,0,1,979.744,629.213Zm-467.5-18.448a1.979,1.979,0,0,1-1.919-1.525q-.926-3.9-1.728-7.841a1.975,1.975,0,1,1,3.869-.8q.791,3.88,1.7,7.714a1.987,1.987,0,0,1-1.463,2.394A2.02,2.02,0,0,1,512.239,610.765Zm473.5-3.639a1.9,1.9,0,0,1-.431-.049,1.983,1.983,0,0,1-1.5-2.37c.567-2.553,1.1-5.155,1.584-7.738a1.975,1.975,0,1,1,3.881.735c-.492,2.626-1.034,5.273-1.61,7.868A1.978,1.978,0,0,1,985.737,607.127ZM507.994,588.273a1.979,1.979,0,0,1-1.953-1.709q-.556-3.965-.988-7.968a1.976,1.976,0,1,1,3.928-.427q.423,3.939.973,7.839a1.984,1.984,0,0,1-1.68,2.244A1.821,1.821,0,0,1,507.994,588.273Zm481.643-3.7a1.947,1.947,0,0,1-.249-.016,1.986,1.986,0,0,1-1.714-2.219q.492-3.909.855-7.854a1.976,1.976,0,1,1,3.935.366c-.247,2.662-.538,5.349-.869,7.986A1.978,1.978,0,0,1,989.637,584.571Zm-483.77-19.091a1.979,1.979,0,0,1-1.971-1.892q-.189-4-.249-8.028a1.983,1.983,0,0,1,1.945-2.016A1.947,1.947,0,0,1,507.6,555.5q.058,3.966.244,7.9a1.981,1.981,0,0,1-1.879,2.078Zm485.557-3.732h-.066a1.98,1.98,0,0,1-1.909-2.05q.124-3.934.125-7.9v-.521a1.975,1.975,0,1,1,3.951,0v.521q0,4.029-.13,8.029A1.978,1.978,0,0,1,991.424,561.747ZM505.847,542.582l-.09,0a1.983,1.983,0,0,1-1.885-2.073q.182-4.026.49-8.016a1.975,1.975,0,1,1,3.939.306q-.3,3.927-.482,7.887A1.981,1.981,0,0,1,505.847,542.582Zm485.221-4.251a1.981,1.981,0,0,1-1.969-1.863q-.247-3.957-.616-7.878a1.975,1.975,0,1,1,3.932-.376q.377,3.984.627,8.005a1.981,1.981,0,0,1-1.848,2.106C991.151,538.33,991.11,538.331,991.068,538.331ZM507.932,519.784a1.782,1.782,0,0,1-.275-.019,1.983,1.983,0,0,1-1.684-2.241q.553-3.99,1.23-7.934a1.964,1.964,0,0,1,2.282-1.62,1.985,1.985,0,0,1,1.612,2.295q-.667,3.882-1.211,7.808A1.979,1.979,0,0,1,507.932,519.784Zm480.662-4.213a1.979,1.979,0,0,1-1.95-1.678q-.611-3.911-1.346-7.784a1.976,1.976,0,1,1,3.881-.745q.746,3.936,1.369,7.911a1.985,1.985,0,0,1-1.645,2.271A1.946,1.946,0,0,1,988.593,515.571ZM512.127,497.282a2.056,2.056,0,0,1-.456-.053,1.988,1.988,0,0,1-1.468-2.391c.609-2.59,1.272-5.209,1.968-7.785a1.976,1.976,0,1,1,3.813,1.042q-1.03,3.8-1.937,7.658A1.977,1.977,0,0,1,512.127,497.282Zm471.878-4.133a1.977,1.977,0,0,1-1.912-1.5q-.976-3.837-2.07-7.624a1.975,1.975,0,1,1,3.792-1.107q1.112,3.848,2.105,7.748a1.981,1.981,0,0,1-1.915,2.479ZM518.413,475.276a1.952,1.952,0,0,1-.634-.107,1.986,1.986,0,0,1-1.236-2.518q1.288-3.821,2.7-7.586a1.977,1.977,0,1,1,3.7,1.4q-1.385,3.7-2.655,7.463A1.975,1.975,0,0,1,518.413,475.276Zm458.922-4.019a1.978,1.978,0,0,1-1.86-1.316q-1.328-3.725-2.776-7.393a1.977,1.977,0,1,1,3.674-1.464c.982,2.487,1.931,5.016,2.822,7.514a1.983,1.983,0,0,1-1.859,2.659ZM526.754,453.922a1.967,1.967,0,0,1-.807-.174,1.991,1.991,0,0,1-.994-2.625q1.639-3.676,3.395-7.29a1.977,1.977,0,1,1,3.55,1.744q-1.726,3.554-3.34,7.172A1.976,1.976,0,0,1,526.754,453.922Zm441.9-3.807a1.978,1.978,0,0,1-1.789-1.141q-1.67-3.574-3.448-7.08a1.99,1.99,0,0,1,.862-2.672,1.967,1.967,0,0,1,2.656.866q1.808,3.565,3.505,7.194a1.992,1.992,0,0,1-.947,2.643A1.956,1.956,0,0,1,968.655,450.116Zm-431.6-16.651a1.958,1.958,0,0,1-.973-.258,1.993,1.993,0,0,1-.745-2.707q1.974-3.5,4.059-6.931a1.971,1.971,0,0,1,2.716-.659,1.994,1.994,0,0,1,.656,2.731q-2.05,3.374-3.993,6.818A1.975,1.975,0,0,1,537.056,433.464ZM958.038,429.9a1.97,1.97,0,0,1-1.7-.978q-1.994-3.4-4.095-6.728a1.994,1.994,0,0,1,.609-2.742,1.971,1.971,0,0,1,2.728.614q2.135,3.381,4.161,6.84a1.991,1.991,0,0,1-.7,2.719A1.947,1.947,0,0,1,958.038,429.9Zm-408.821-15.82a1.961,1.961,0,0,1-1.129-.358,2,2,0,0,1-.489-2.767q2.291-3.3,4.683-6.513a1.968,1.968,0,0,1,2.764-.4,1.993,1.993,0,0,1,.4,2.78q-2.353,3.167-4.608,6.411A1.972,1.972,0,0,1,549.217,414.079Zm396.362-3.319a1.969,1.969,0,0,1-1.6-.823q-2.3-3.2-4.705-6.321a1.994,1.994,0,0,1,.353-2.786,1.971,1.971,0,0,1,2.773.357q2.441,3.17,4.782,6.423a1.994,1.994,0,0,1-.444,2.773A1.953,1.953,0,0,1,945.579,410.759ZM563.123,395.929a1.957,1.957,0,0,1-1.276-.471,1.993,1.993,0,0,1-.229-2.8q2.583-3.064,5.262-6.044a1.971,1.971,0,0,1,2.791-.141,1.994,1.994,0,0,1,.139,2.806q-2.635,2.929-5.179,5.947A1.965,1.965,0,0,1,563.123,395.929Zm368.271-3.067a1.963,1.963,0,0,1-1.486-.677q-2.59-2.969-5.274-5.855a2,2,0,0,1,.093-2.808,1.972,1.972,0,0,1,2.793.095q2.727,2.931,5.359,5.95a1.994,1.994,0,0,1-.184,2.8A1.958,1.958,0,0,1,931.395,392.862Zm-352.751-13.7a1.965,1.965,0,0,1-1.412-.6,1.994,1.994,0,0,1,.03-2.809q2.853-2.806,5.8-5.52a1.966,1.966,0,0,1,2.79.121,1.991,1.991,0,0,1-.12,2.805q-2.893,2.67-5.7,5.434A1.96,1.96,0,0,1,578.643,379.166Zm336.961-2.8a1.963,1.963,0,0,1-1.358-.544q-2.853-2.717-5.794-5.34a1.991,1.991,0,0,1-.168-2.8,1.966,1.966,0,0,1,2.787-.168q2.992,2.668,5.891,5.429a1.991,1.991,0,0,1,.076,2.806A1.96,1.96,0,0,1,915.6,376.364Zm-319.963-12.43a1.964,1.964,0,0,1-1.535-.735,1.993,1.993,0,0,1,.289-2.794q3.1-2.527,6.281-4.952a1.965,1.965,0,0,1,2.767.383,1.994,1.994,0,0,1-.381,2.782q-3.131,2.387-6.178,4.873A1.961,1.961,0,0,1,595.642,363.934ZM898.35,361.41a1.956,1.956,0,0,1-1.216-.424q-3.094-2.437-6.269-4.777a1.994,1.994,0,0,1-.426-2.775A1.968,1.968,0,0,1,893.2,353q3.226,2.376,6.372,4.855a1.994,1.994,0,0,1,.336,2.788A1.971,1.971,0,0,1,898.35,361.41ZM613.968,350.367a1.969,1.969,0,0,1-1.645-.884,1.993,1.993,0,0,1,.548-2.755q3.318-2.223,6.707-4.339a1.968,1.968,0,0,1,2.721.64,1.994,1.994,0,0,1-.638,2.736q-3.334,2.08-6.6,4.269A1.961,1.961,0,0,1,613.968,350.367Zm265.811-2.236a1.965,1.965,0,0,1-1.065-.315q-3.309-2.138-6.69-4.169a1.993,1.993,0,0,1-.683-2.725,1.972,1.972,0,0,1,2.709-.686q3.437,2.064,6.8,4.238a1.993,1.993,0,0,1,.6,2.744A1.972,1.972,0,0,1,879.779,348.131Zm-246.315-9.546a1.988,1.988,0,0,1-.939-3.735q3.505-1.9,7.077-3.685a1.973,1.973,0,0,1,2.649.893,1.993,1.993,0,0,1-.89,2.664q-3.513,1.756-6.96,3.625A1.971,1.971,0,0,1,633.464,338.585Zm226.58-1.93a1.947,1.947,0,0,1-.9-.222q-3.5-1.817-7.053-3.521a1.984,1.984,0,0,1,1.7-3.587c2.395,1.146,4.806,2.35,7.169,3.58a1.987,1.987,0,0,1-.909,3.75ZM653.959,328.7a1.989,1.989,0,0,1-.771-3.816q3.662-1.558,7.383-3a1.984,1.984,0,0,1,1.421,3.706q-3.662,1.418-7.264,2.951A1.953,1.953,0,0,1,653.959,328.7Zm185.354-1.607a1.935,1.935,0,0,1-.739-.145c-2.414-.979-4.889-1.933-7.355-2.839a1.985,1.985,0,0,1,1.353-3.731c2.509.92,5.026,1.891,7.48,2.887a1.988,1.988,0,0,1-.74,3.828ZM675.3,320.79a1.988,1.988,0,0,1-.593-3.881q3.8-1.207,7.656-2.292a1.985,1.985,0,0,1,1.065,3.825q-3.79,1.068-7.531,2.255A1.948,1.948,0,0,1,675.3,320.79Zm142.493-1.248a1.94,1.94,0,0,1-.561-.083q-3.759-1.12-7.571-2.123a1.985,1.985,0,0,1,1-3.843q3.875,1.018,7.7,2.158a1.988,1.988,0,0,1-.562,3.891Zm-120.479-4.611A1.986,1.986,0,0,1,696.9,311q3.9-.841,7.836-1.558a1.986,1.986,0,0,1,.7,3.909q-3.876.7-7.708,1.531A1.994,1.994,0,0,1,697.314,314.931Zm98.368-.859a1.982,1.982,0,0,1-.382-.037q-3.846-.76-7.735-1.4a1.985,1.985,0,0,1,.632-3.92q3.954.645,7.863,1.418a1.987,1.987,0,0,1-.378,3.935Zm-75.907-2.89a1.986,1.986,0,0,1-.228-3.958q3.954-.468,7.946-.812a1.986,1.986,0,0,1,.335,3.958q-3.927.337-7.819.8A1.914,1.914,0,0,1,719.775,311.182Zm53.383-.461c-.066,0-.133,0-.2-.01q-3.9-.395-7.832-.664a1.986,1.986,0,0,1,.266-3.963q4,.274,7.959.674a1.987,1.987,0,0,1-.195,3.963Zm-30.668-1.159a1.986,1.986,0,0,1-.047-3.971q3.053-.076,6.126-.078l1.864.007a1.986,1.986,0,0,1-.016,3.972H750.4l-1.83-.007q-3.023,0-6.032.076Z" transform="translate(0.487 5.263)"/><g transform="translate(963.689 556.383)"><path class="m" d="M951.577,539.809a29.284,29.284,0,0,0-3.248-9.937.618.618,0,0,1-.022-.6,36.676,36.676,0,0,0,1.542-4.1,19.743,19.743,0,0,0,1.021-6.963,7.783,7.783,0,0,0-5.444-7.272,17.719,17.719,0,0,0-9.148-.54,49.041,49.041,0,0,0-11.875,3.845,1.257,1.257,0,0,1-.63.127,30.214,30.214,0,0,0-6.464.408,28.617,28.617,0,0,0-10.213,3.885,29.453,29.453,0,0,0-12.566,15.735,24.526,24.526,0,0,0-.807,2.881c.088-.095.126-.133.159-.172,1.142-1.263,2.295-2.516,3.5-3.724a54.364,54.364,0,0,1,8.337-7.073,19.908,19.908,0,0,1,3.325-1.865.3.3,0,0,1,.044.044c-.1.1-.192.2-.3.3a77.01,77.01,0,0,0-6.942,7.3,90.8,90.8,0,0,0-12.693,20.128,20.36,20.36,0,0,0-1.235,3.029,42.854,42.854,0,0,0-1.459,7.481,19.158,19.158,0,0,0,.153,5.485,8.2,8.2,0,0,0,2.124,4.353,7.962,7.962,0,0,0,5.477,2.18,18.771,18.771,0,0,0,5.4-.557,42.5,42.5,0,0,0,9.445-3.532.666.666,0,0,1,.658-.016,29.043,29.043,0,0,0,16.535,2.654,28.32,28.32,0,0,0,11.167-3.879,29.445,29.445,0,0,0,12.621-15.173c.143-.376.137-.381-.2-.381q-7.425,0-14.855-.006a.445.445,0,0,0-.44.249,11.736,11.736,0,0,1-2.425,2.858,13.729,13.729,0,0,1-10.942,3.288,13.221,13.221,0,0,1-7.666-3.526,11.993,11.993,0,0,1-3.985-8.519c-.022-.507-.077-.447.45-.447h41.162c.094,0,.192,0,.291,0,.149.017.209-.039.226-.2.049-.6.137-1.193.169-1.793A30.843,30.843,0,0,0,951.577,539.809ZM907.133,569.57a24.637,24.637,0,0,1-7.15,2.654,9.293,9.293,0,0,1-5.57-.436,5.337,5.337,0,0,1-3.3-4.419,15.872,15.872,0,0,1,.614-6.279,41.582,41.582,0,0,1,2.782-7.233,1.411,1.411,0,0,1,.094-.149,29.826,29.826,0,0,0,12.759,15.686C907.321,569.5,907.216,569.525,907.133,569.57Zm28.53-29.921q-6.461-.016-12.922-.006c-4.3,0-8.6,0-12.9.011-.346,0-.418-.1-.39-.419a12.124,12.124,0,0,1,3.254-7.448,12.882,12.882,0,0,1,8.517-4.232c5.5-.48,9.928,1.489,13.022,6.174a11.409,11.409,0,0,1,1.789,5.523C936.059,539.56,935.992,539.654,935.663,539.649Zm11.754-11.383a29.721,29.721,0,0,0-14.327-11.939,23.017,23.017,0,0,1,2.315-1.027,21.9,21.9,0,0,1,5.236-1.44,8.554,8.554,0,0,1,4.78.442,6.09,6.09,0,0,1,3.874,5.683,17.287,17.287,0,0,1-.822,5.319c-.258.906-.56,1.793-.895,2.671C947.539,528.068,947.533,528.189,947.417,528.266Z" transform="translate(-886.333 -510.037)"/><path class="n" d="M951.577,539.809a29.284,29.284,0,0,0-3.248-9.937.618.618,0,0,1-.022-.6,36.676,36.676,0,0,0,1.542-4.1,19.743,19.743,0,0,0,1.021-6.963,7.783,7.783,0,0,0-5.444-7.272,17.719,17.719,0,0,0-9.148-.54,49.041,49.041,0,0,0-11.875,3.845,1.257,1.257,0,0,1-.63.127,30.214,30.214,0,0,0-6.464.408,28.617,28.617,0,0,0-10.213,3.885,29.453,29.453,0,0,0-12.566,15.735,24.526,24.526,0,0,0-.807,2.881c.088-.095.126-.133.159-.172,1.142-1.263,2.295-2.516,3.5-3.724a54.364,54.364,0,0,1,8.337-7.073,19.908,19.908,0,0,1,3.325-1.865c.033-.006.077-.028.082-.017.028.032-.011.049-.037.061-.1.1-.192.2-.3.3a77.01,77.01,0,0,0-6.942,7.3,90.8,90.8,0,0,0-12.693,20.128,20.36,20.36,0,0,0-1.235,3.029,42.854,42.854,0,0,0-1.459,7.481,19.158,19.158,0,0,0,.153,5.485,8.2,8.2,0,0,0,2.124,4.353,7.962,7.962,0,0,0,5.477,2.18,18.771,18.771,0,0,0,5.4-.557,42.5,42.5,0,0,0,9.445-3.532.666.666,0,0,1,.658-.016,29.043,29.043,0,0,0,16.535,2.654,28.32,28.32,0,0,0,11.167-3.879,29.445,29.445,0,0,0,12.621-15.173c.143-.376.137-.381-.2-.381q-7.425,0-14.855-.006a.445.445,0,0,0-.44.249,11.736,11.736,0,0,1-2.425,2.858,13.729,13.729,0,0,1-10.942,3.288,13.221,13.221,0,0,1-7.666-3.526,11.993,11.993,0,0,1-3.985-8.519c-.022-.507-.077-.447.45-.447h41.162c.094,0,.192,0,.291,0,.149.017.209-.039.226-.2.049-.6.137-1.193.169-1.793A30.843,30.843,0,0,0,951.577,539.809ZM907.133,569.57a24.637,24.637,0,0,1-7.15,2.654,9.293,9.293,0,0,1-5.57-.436,5.337,5.337,0,0,1-3.3-4.419,15.872,15.872,0,0,1,.614-6.279,41.582,41.582,0,0,1,2.782-7.233,1.411,1.411,0,0,1,.094-.149,29.826,29.826,0,0,0,12.759,15.686C907.321,569.5,907.216,569.525,907.133,569.57Zm28.53-29.921q-6.461-.016-12.922-.006c-4.3,0-8.6,0-12.9.011-.346,0-.418-.1-.39-.419a12.124,12.124,0,0,1,3.254-7.448,12.882,12.882,0,0,1,8.517-4.232c5.5-.48,9.928,1.489,13.022,6.174a11.409,11.409,0,0,1,1.789,5.523C936.059,539.56,935.992,539.654,935.663,539.649Zm11.754-11.383a29.721,29.721,0,0,0-14.327-11.939,23.017,23.017,0,0,1,2.315-1.027,21.9,21.9,0,0,1,5.236-1.44,8.554,8.554,0,0,1,4.78.442,6.09,6.09,0,0,1,3.874,5.683,17.287,17.287,0,0,1-.822,5.319c-.258.906-.56,1.793-.895,2.671C947.539,528.068,947.533,528.189,947.417,528.266Z" transform="translate(-886.333 -510.037)"/><path class="m" d="M905.242,522.032c.028-.006.072-.026.079-.017.028.036-.011.047-.035.061C905.271,522.062,905.256,522.047,905.242,522.032Z" transform="translate(-882.535 -507.632)"/></g><g transform="translate(769.285 279.31)"><path class="o" d="M812.644,302.8a48.639,48.639,0,0,1,3.349,37.75c-5.779,18.514-18.38,30.238-37.121,35.111a42.1,42.1,0,0,1-14.179,1.174c-.293-.43-.1-.836.055-1.245q9.181-15.866,18.444-31.688a9.818,9.818,0,0,0,.91-2.008,24.138,24.138,0,0,1,2.149-3.575,22.571,22.571,0,0,0,2.152-21.239c-.387-1.012-1.076-1.942-.971-3.114,2.068-2.005,4.873-2.615,7.359-3.788,4.771-2.247,9.552-4.477,14.361-6.644C810.248,303.043,811.3,302.156,812.644,302.8Z" transform="translate(-716.393 -274.637)"/><path class="p" d="M773.094,376.659c-.115.3-.231.6-.347.905-12.176-.369-22.633-5.017-31.619-13.089-17.855-16.039-21.906-43.363-9.583-63.981.3-.5.675-.946,1.015-1.418a.506.506,0,0,1,.6-.043c3.415,5.405,6.375,11.077,9.566,16.613,3.525,6.114,6.859,12.335,10.5,18.382a18.017,18.017,0,0,1,1.247,2.088c3.844,8.142,10.44,12.291,19.155,13.377a2.953,2.953,0,0,1,1.863.546c.674,2.351-.086,4.67-.286,6.976-.506,5.852-1.107,11.7-1.6,17.551C773.535,375.319,772.992,375.9,773.094,376.659Z" transform="translate(-724.446 -275.364)"/><path class="q" d="M731.519,303.1a.559.559,0,0,1-.316-.073,49.4,49.4,0,0,1,34.036-22.9,50.61,50.61,0,0,1,52.8,24.72c.4.693.7,1.451,1.044,2.177a10.527,10.527,0,0,1-4.729.736c-11.588-.041-23.177.1-34.759-.091-2.767.215-5.466-.656-8.307-.222a23.875,23.875,0,0,0-16.046,9.481,4.981,4.981,0,0,1-1.627,1.759,2.593,2.593,0,0,1-1.967-.786c-5.954-4.245-11.861-8.559-17.839-12.771C732.962,304.528,732.35,303.692,731.519,303.1Z" transform="translate(-723.089 -279.31)"/><path class="r" d="M770.812,302.435q17.844-.007,35.687-.016c1.541,0,3.083-.023,4.625-.036l.261.458c-4.984,1.709-9.57,4.322-14.394,6.395-3.55,1.524-7.068,3.125-10.6,4.692-.841-.086-1.2-.765-1.614-1.356a22.985,22.985,0,0,0-12.32-8.991C771.82,303.38,770.928,303.436,770.812,302.435Z" transform="translate(-715.133 -274.676)"/><path class="m" d="M775.671,302.478A25.4,25.4,0,0,1,791.25,313.97c3.868,7.636,4.213,15.322.185,23-.978,1.864-2.252,3.57-3.39,5.35-4.016,4.724-9.321,6.834-15.282,7.6a2.339,2.339,0,0,1-1.864-.429c-10.851-.506-18.21-6.016-22.527-15.889-2.694-5.8-2-11.562.234-17.29a3.684,3.684,0,0,1,1.614-2.273c3.713-5.761,8.671-9.783,15.449-11.353A30.306,30.306,0,0,1,775.671,302.478Z" transform="translate(-719.992 -274.719)"/><path class="s" d="M767.225,342.779a24.249,24.249,0,0,0,16.191-6.716,3.454,3.454,0,0,1,.955-.46c-1.449,3.707-3.784,6.923-5.745,10.341-4.486,7.824-9.1,15.574-13.66,23.354-.292-4.85.7-9.613,1.008-14.422C766.233,350.834,766.8,346.811,767.225,342.779Z" transform="translate(-716.318 -268.003)"/><path class="t" d="M753.264,314.656a26.409,26.409,0,0,0-1.848,19.562c-3.473-5.376-6.417-11.062-9.58-16.62-3.495-6.138-6.916-12.319-10.37-18.481,3.331,1.669,6.118,4.148,9.138,6.276C744.877,308.4,749.049,311.562,753.264,314.656Z" transform="translate(-723.036 -275.332)"/><path class="u" d="M769.79,306.729a18.285,18.285,0,0,1-.106,36.569,18.285,18.285,0,0,1,.106-36.569Z" transform="translate(-719.012 -273.803)"/></g><g transform="translate(501.222 397.798)"><g class="v"><g transform="translate(-0.549 -0.113)"><path class="w" d="M525.948,431.9c0-.074,0-.149,0-.223a3.177,3.177,0,0,1,3.491,0l0,.222Z" transform="translate(-495.707 -367.184)"/><path class="x" d="M501.421,403.238A31.255,31.255,0,0,1,516.9,382.117a31.751,31.751,0,0,1,35.385,2.505c.31.243.7.414.853.823-.5.367-.849-.073-1.25-.234a20.25,20.25,0,0,0-2.471-1.052,14.393,14.393,0,0,0-2.867-.856c-1.427-.352-2.908-.41-4.326-.811a3.006,3.006,0,0,0-1.979-.03,4.969,4.969,0,0,1-1.015.113,3.9,3.9,0,0,0-1.568.166,17.844,17.844,0,0,1-1.714.518,14.2,14.2,0,0,0-3.008.885c-.808.184-1.433.777-2.213,1.022-1.548.467-2.63,1.658-3.908,2.545-.342.306-.725.563-1.046.9a2.259,2.259,0,0,1-.251.24,2.99,2.99,0,0,0-.953,1.018,26.268,26.268,0,0,0-5.391,7.443,41.474,41.474,0,0,0-1.792,5.191c-.144.489-.1,1.3-1.048.988a4.341,4.341,0,0,0-2.088-.372C509.972,403.171,505.695,402.984,501.421,403.238Z" transform="translate(-500.633 -377.885)"/><path class="y" d="M558.937,413.474a31.025,31.025,0,0,1-8.922,13.709,5.281,5.281,0,0,1-2.049,1.4c-.329.3-.743.461-1.094.723a9.123,9.123,0,0,1-1.25.611,18.991,18.991,0,0,1-7.789,1.608,5.112,5.112,0,0,0-2.5-.044,16.894,16.894,0,0,1-2.937-.36,35.792,35.792,0,0,1-3.9-1.212c-.582-.268-1.149-.573-1.729-.847-.532-.307-1.094-.558-1.633-.851-.528-.4-1.138-.677-1.672-1.075a13.322,13.322,0,0,1-1.414-1.177.866.866,0,0,1-.205-.739.535.535,0,0,1,.484-.316c1.5.4,2.876,1.167,4.43,1.457a11.983,11.983,0,0,0,8.587-1.626c3.641-2.16,5.953-5.445,7.671-9.221.278-.61.5-1.246.743-1.871.185-.47.393-.94,1.055-.755,2.833.341,5.674.088,8.508.155,1.331.031,2.661-.011,3.992.014A2.056,2.056,0,0,1,558.937,413.474Z" transform="translate(-496.535 -370.861)"/><path class="z" d="M501.513,399.087c.339-.522.848-.542,1.4-.54,4.057.016,8.113,0,12.169.012.7,0,1.482-.094,1.7.877a3.867,3.867,0,0,1-.625,3.852q-6.553.018-13.1-.006a2.564,2.564,0,0,1-2.093-.683A11.733,11.733,0,0,1,501.513,399.087Z" transform="translate(-500.725 -373.735)"/><path class="aa" d="M501.006,401.921c4.545.585,9.112.114,13.667.279.545.02,1.168-.239,1.615.324a2.934,2.934,0,0,1,0,2.988,3.2,3.2,0,0,1-1.945.334c-3.528.012-7.058.059-10.583-.022-1.327-.031-2.349.176-2.82,1.56A18.8,18.8,0,0,1,501.006,401.921Z" transform="translate(-500.765 -373.057)"/><path class="ab" d="M500.914,406.8c.079-1.957.079-1.957,2.075-1.957h13.2a2.388,2.388,0,0,1,.064,2.79,2.988,2.988,0,0,1-1.8.339q-5.8.014-11.6,0a2.6,2.6,0,0,1-1.9-.431Z" transform="translate(-500.735 -372.47)"/><path class="ac" d="M500.95,407.085h15.306a1.5,1.5,0,0,1,.156,2.318,3.029,3.029,0,0,1-1.561.27q-5.944.016-11.891,0a2.6,2.6,0,0,1-1.781-.42A4.467,4.467,0,0,1,500.95,407.085Z" transform="translate(-500.733 -372.02)"/><path class="ad" d="M556.148,399.75a3.54,3.54,0,0,1,.294,1.844c-.089.782-.736.7-1.218.71q-6.087.085-12.173,0a1.64,1.64,0,0,1-1.506-.713c-.3-.725-.754-1.447-.066-2.2,4.521-.151,9.044-.055,13.565-.042A1.63,1.63,0,0,1,556.148,399.75Z" transform="translate(-492.659 -373.582)"/><path class="ae" d="M547.842,383.8c.4.079.638.518,1.088.467l1.05.855c-.372.883-1.178.64-1.828.644-4.754.02-9.507.038-14.261,0a3.757,3.757,0,0,0-1.057.07,20.308,20.308,0,0,1-3.975-.2,20.962,20.962,0,0,0-6.109,1.224c-.238-.048-.443-.126-.382-.438,1.255-1.027,2.375-2.261,4.036-2.665a4.815,4.815,0,0,0,1.848.085C534.782,383.828,541.313,383.915,547.842,383.8Z" transform="translate(-496.428 -376.706)"/><path class="af" d="M533.771,427.953l3,.456a6.564,6.564,0,0,1,2.343.012,22.377,22.377,0,0,0,7.052-1.34,2.655,2.655,0,0,1,1.01-.247c.457-.04.455.179.276.5-1.59.691-2.827,2.041-4.557,2.469a12.207,12.207,0,0,0-2.655-.124q-11.48-.018-22.959,0a1.529,1.529,0,0,0-.39.076,6.988,6.988,0,0,1-1.914-.944c.24-1,1.084-.748,1.716-.754,4.185-.042,8.369,0,12.554-.032A31.761,31.761,0,0,0,533.771,427.953Z" transform="translate(-497.91 -368.054)"/><path class="ag" d="M502.614,414.633a6.308,6.308,0,0,1-.794-2.462c.028-.645.556-.664.963-.67,4.685-.071,9.37-.109,14.055.007.082,0,.161.072.243.111.653.653,1.076,1.359.492,2.285a3.786,3.786,0,0,1-1.955.273c-3.289.01-6.578.018-9.866,0A8.14,8.14,0,0,0,502.614,414.633Z" transform="translate(-500.553 -371.146)"/><path class="ah" d="M501.136,408.892l15.328-.012c.353.8,1.262,1.532.325,2.507-4.382-.425-8.775-.083-13.16-.2-.74-.02-1.524.14-2.164-.42A4.22,4.22,0,0,1,501.136,408.892Z" transform="translate(-500.69 -371.659)"/><path class="ai" d="M502.481,414.244c.222-.969,1-.868,1.7-.869q6.665-.013,13.33,0c.74.572,1.365,1.172.52,2.138a6.324,6.324,0,0,1-2.117.173c-3.916.019-7.832-.026-11.747.026a2.643,2.643,0,0,1-1.179-.156A2.385,2.385,0,0,1,502.481,414.244Z" transform="translate(-500.42 -370.757)"/><path class="aj" d="M504.327,418.284a3.077,3.077,0,0,1-.708-1.379c.077-.789.716-.89,1.268-.9,4.315-.112,8.631-.094,12.947-.016a1.805,1.805,0,0,1,1,.33c.479.549,1.318.963.72,1.923a3.263,3.263,0,0,1-2.057.436c-3.791.012-7.582.007-11.373,0A3.036,3.036,0,0,1,504.327,418.284Z" transform="translate(-500.191 -370.244)"/><path class="ak" d="M534.128,427.979a3.439,3.439,0,0,1-2.16.51q-7.573-.013-15.145,0c-.505,0-1.09-.214-1.487.336a8.069,8.069,0,0,1-2.106-1.227c-.184-.9.545-.788,1-.836a24.883,24.883,0,0,1,2.54-.031c3.879-.019,7.758.042,11.636-.036.584-.011,1.146.181,1.728.135Z" transform="translate(-498.267 -368.079)"/><path class="al" d="M504.209,417.94c4.414-.012,8.829-.031,13.243-.026a6.466,6.466,0,0,0,2.1-.276c.736.173,1.015.82,1.352,1.379.214.354.329.776-.287.917-4.356-.023-8.71.008-13.064-.024-.681-.006-1.3.253-1.966.262A7.707,7.707,0,0,1,504.209,417.94Z" transform="translate(-500.073 -369.9)"/><path class="am" d="M506.565,421.6a2.314,2.314,0,0,1-.748-1.015c.022-.96.742-1.024,1.405-1.021,4.555.025,9.111-.146,13.664.091.9.3,1.633.7,1.16,1.861a2.726,2.726,0,0,1-1.9.471c-3.97.017-7.94.01-11.909.006A2.863,2.863,0,0,1,506.565,421.6Z" transform="translate(-499.75 -369.52)"/><path class="an" d="M519.008,416.83a2.477,2.477,0,0,0-1.546-.27q-5.932,0-11.865,0c-.666,0-1.346-.06-1.835.544a4.669,4.669,0,0,1-.86-1.866,3.04,3.04,0,0,1,1.68-.3q6.8.007,13.6,0A1.374,1.374,0,0,1,519.008,416.83Z" transform="translate(-500.335 -370.442)"/><path class="ao" d="M501.41,410.453q6.982,0,13.964,0c.578,0,1.168-.073,1.524.542.4.283.626.608.268,1.08H502.608a.776.776,0,0,0-.706.3A4.315,4.315,0,0,1,501.41,410.453Z" transform="translate(-500.635 -371.344)"/><path class="ap" d="M556.151,410.415,555.9,411.5a1.3,1.3,0,0,1-1.231.654c-4.257.046-8.514.092-12.771-.023a1.491,1.491,0,0,1-.512-.139c-.9-.935-.431-1.81.122-2.682a.485.485,0,0,1,.459.108c.419.479.986.317,1.5.319,3.545.016,7.09,0,10.634.011C554.847,409.75,555.624,409.7,556.151,410.415Z" transform="translate(-492.708 -371.576)"/><path class="aq" d="M553.622,392.528a2.02,2.02,0,0,1,.534,1.088c.346.7-.048.988-.652,1.128a6.4,6.4,0,0,1-1.462.091q-5.065,0-10.132,0a4.361,4.361,0,0,1-2.216-.336c-.551-.4-.914-.861-.572-1.583a1.762,1.762,0,0,1,1.454-.528c4.088-.043,8.176-.016,12.264-.017A2.416,2.416,0,0,1,553.622,392.528Z" transform="translate(-493.086 -374.977)"/><path class="ar" d="M540.394,430.1a8.617,8.617,0,0,1-2.427.8c-3.72.317-7.449.163-11.174.214-1.995.026-3.982-.077-5.971-.2a7.546,7.546,0,0,1-2.422-.789c-.336-.234-.393-.47,0-.7a2.471,2.471,0,0,1,1.3-.217q9.68-.005,19.359,0a2.53,2.53,0,0,1,1.3.207C540.741,429.619,540.767,429.852,540.394,430.1Z" transform="translate(-497.277 -367.577)"/><path class="as" d="M548.939,385.782a3.249,3.249,0,0,1,1.06,1.107c-.229.929-1.017.909-1.694.91-4.532.01-9.065.126-13.6-.056-.764-.336-1.909-.268-1.72-1.627a3.005,3.005,0,0,1,1.785-.466c4.37-.042,8.74-.01,13.11-.02A7.946,7.946,0,0,1,548.939,385.782Z" transform="translate(-494.296 -376.33)"/><path class="at" d="M540.706,430.169c.127-1.071-.688-.466-.981-.467-6.372-.04-12.744-.03-19.115-.03-.534,0-1.069.007-1.6,0-.44-.01-.387.24-.293.522a6.219,6.219,0,0,1-2.14-.848c.144-.651.67-.474,1.08-.474q11.944-.012,23.888,0c.42,0,.939-.137,1.038.528A5.037,5.037,0,0,1,540.706,430.169Z" transform="translate(-497.59 -367.648)"/><path class="au" d="M551.88,389.565a2.769,2.769,0,0,1,.837,1.284c-.017.807-.675.759-1.15.761-4.384.028-8.769.152-13.153-.054-.8-.361-1.724-.648-1.146-1.866a2.669,2.669,0,0,1,1.3-.237c4.087-.02,8.172,0,12.258-.014C551.183,389.438,551.524,389.557,551.88,389.565Z" transform="translate(-493.469 -375.564)"/><path class="av" d="M541.676,401.023a1.2,1.2,0,0,0,.986.55c4.346-.02,8.692-.013,13.038-.013a.765.765,0,0,0,.7-.31,2.822,2.822,0,0,1,.2,1.66,1.758,1.758,0,0,1-1.368.419q-6.024.038-12.045,0a2.6,2.6,0,0,1-1.173-.227C541.385,402.493,541.07,401.832,541.676,401.023Z" transform="translate(-492.612 -373.237)"/><path class="aw" d="M555.175,413.67c-4.4,0-8.8.007-13.193-.01-.476,0-1.13.264-1.281-.556-.305-.5-.109-.82.361-1.047a12.357,12.357,0,0,1,3.183-.155c3.335-.019,6.668,0,10-.007a2.888,2.888,0,0,1,1.44.163A4.192,4.192,0,0,1,555.175,413.67Z" transform="translate(-492.772 -371.057)"/><path class="ax" d="M556.553,407.118a2.836,2.836,0,0,1-.216,1.612,2.112,2.112,0,0,1-1.5.426c-3.822.016-7.645.028-11.467-.01-.778-.008-1.687.059-1.806-1.1a1.123,1.123,0,0,1,.264-.745,2.27,2.27,0,0,1,1.4-.333c4.184-.028,8.368,0,12.551-.016A1.486,1.486,0,0,1,556.553,407.118Z" transform="translate(-492.57 -372.047)"/><path class="ay" d="M555.012,395.7a.876.876,0,0,1,.276.769c.253.953-.5.9-1.023.963a28.1,28.1,0,0,1-3.2.052q-4.2.007-8.4,0a4.9,4.9,0,0,1-1.715-.18c-.626-.447-1.128-.936-.566-1.768a2.973,2.973,0,0,1,1.57-.231c3.753,0,7.5,0,11.256-.006A2.989,2.989,0,0,1,555.012,395.7Z" transform="translate(-492.854 -374.387)"/><path class="az" d="M556.173,399.973H543a2.552,2.552,0,0,1-1.544-.27c-.423-.363-.712-.741-.145-1.223a2.852,2.852,0,0,1,1.172-.239c4.057-.077,8.112-.037,12.168-.022a1.717,1.717,0,0,1,1.242.4Z" transform="translate(-492.684 -373.805)"/><path class="ba" d="M549.367,385.93c-.392.442-.914.262-1.38.264-3.6.014-7.193.01-10.789.007a14.9,14.9,0,0,0-3.959.286,2.412,2.412,0,0,1-2.4-1c.381-.573.969-.351,1.471-.352,4.855-.017,9.71,0,14.565-.018.471,0,.987.17,1.4-.223A3.041,3.041,0,0,1,549.367,385.93Z" transform="translate(-494.724 -376.477)"/><path class="bb" d="M556.523,404.688l0,1.347a1.761,1.761,0,0,1-1.374.4q-5.894.007-11.788,0a2.089,2.089,0,0,1-1.284-.3,1.183,1.183,0,0,1-.041-1.525,2.2,2.2,0,0,1,1.4-.347q5.8-.036,11.594,0A1.959,1.959,0,0,1,556.523,404.688Z" transform="translate(-492.527 -372.589)"/><path class="bc" d="M556.521,404.914l-14.436,0a1.018,1.018,0,0,1,.017-1.465,3.216,3.216,0,0,1,1.818-.311q5.346-.013,10.694,0a2.521,2.521,0,0,1,1.9.428Z" transform="translate(-492.525 -372.814)"/><path class="bd" d="M525.937,424.615c.547.337,1.219.488,1.6,1.071-.283.883-1.04.676-1.656.68-4.02.022-8.042.013-12.063.007a8.98,8.98,0,0,0-2.129.189,6,6,0,0,1-1.618-1.347c.019-.638.54-.687.946-.691C515.994,424.494,520.967,424.3,525.937,424.615Z" transform="translate(-498.895 -368.534)"/><path class="be" d="M526.157,424.792a2.933,2.933,0,0,1-1.684.282c-4.228,0-8.455-.008-12.684.008-.506,0-1.083-.211-1.5.309l-1.313-1.134c.1-.7.7-.646,1.14-.652,4.772-.07,9.545-.049,14.317-.028a.947.947,0,0,1,.372.142C525.248,424.091,525.835,424.273,526.157,424.792Z" transform="translate(-499.114 -368.711)"/><path class="bf" d="M520.371,430.663c.285-.3.658-.228,1.008-.228q7.562,0,15.125,0c.35,0,.722-.076,1.012.219a26.965,26.965,0,0,1-6.959,1.175h-3.491A25.951,25.951,0,0,1,520.371,430.663Z" transform="translate(-496.826 -367.331)"/><path class="bg" d="M524.987,423.9a7.113,7.113,0,0,1-2.24.283q-6.1-.025-12.2,0c-.469,0-.993-.179-1.393.255l-1.052-1.122c.133-.683.727-.609,1.161-.611,4.787-.02,9.575-.137,14.36.05a1.366,1.366,0,0,1,1.048.668Z" transform="translate(-499.29 -368.893)"/><path class="bh" d="M534.211,387.19q6.838,0,13.674,0a2.179,2.179,0,0,0,1.864-.514,3.961,3.961,0,0,1,1.1,1.287c-.257.9-1.032.7-1.637.71-3.349.042-6.7.019-10.048.018-.984,0-1.965.013-2.946.048A2,2,0,0,1,534.211,387.19Z" transform="translate(-494.047 -376.118)"/><path class="bi" d="M524.081,423.27q-7.211.007-14.424.023c-.471,0-.986-.168-1.407.211l-.86-.964c.256-1,1.1-.731,1.733-.738,3.437-.044,6.874-.022,10.309-.019.938,0,1.875-.023,2.81-.04a1.74,1.74,0,0,1,1.582.741A.862.862,0,0,1,524.081,423.27Z" transform="translate(-499.434 -369.079)"/><path class="bj" d="M522.917,422.081a3.026,3.026,0,0,1-1.687.276c-4.054,0-8.107-.008-12.161.008-.506,0-1.086-.211-1.488.324a4.217,4.217,0,0,1-1.141-1.377c4.486-.011,8.974-.031,13.46-.026a6.346,6.346,0,0,0,2.222-.309l.178.056C522.646,421.3,523.043,421.534,522.917,422.081Z" transform="translate(-499.625 -369.229)"/><path class="bk" d="M535.548,388.324a2.953,2.953,0,0,1,1.681-.27c4,0,7.992.006,11.987-.007.465,0,.992.178,1.365-.3a2.347,2.347,0,0,1,.818,1.052c-.217.929-1,.727-1.6.735-3.116.047-6.233.019-9.349.02-1.158,0-2.314,0-3.47.054C536.174,389.556,535.55,389.288,535.548,388.324Z" transform="translate(-493.778 -375.903)"/><path class="bl" d="M542.145,403.5c0,.448.01.9.013,1.345s0,.9-.006,1.349c.449.5,1.047.406,1.619.407,3.683.006,7.367,0,11.052.007a2.28,2.28,0,0,1,1.766.4l-.007.815a2.538,2.538,0,0,1-1.543.263H541.876a6.73,6.73,0,0,1-.16-4.448A.313.313,0,0,1,542.145,403.5Z" transform="translate(-492.599 -372.747)"/><path class="bm" d="M536.435,389.229a2.991,2.991,0,0,1,1.686-.274c3.916,0,7.831.006,11.747-.006.466,0,1,.175,1.356-.323a2.287,2.287,0,0,1,.79,1.1c-.418.508-.992.294-1.5.3-4.44.023-8.88.023-13.32.029C536.661,390.041,536.36,389.81,536.435,389.229Z" transform="translate(-493.602 -375.727)"/><path class="bn" d="M553.746,392.713c-.4.429-.917.251-1.385.253q-5.725.02-11.449.006a3.069,3.069,0,0,0-1.68.283c-.725-.384-1.273-.815-.432-1.624a13.509,13.509,0,0,1,3.465-.162c3.035-.022,6.069-.011,9.1-.006a3.161,3.161,0,0,1,1.932.4A1.324,1.324,0,0,1,553.746,392.713Z" transform="translate(-493.21 -375.162)"/><path class="bo" d="M553.4,392.031l-14.808.024c-.723-.01-.752-.484-.682-1.027,4.394-.015,8.789-.024,13.183-.054.5,0,1.088.208,1.464-.362A3.316,3.316,0,0,1,553.4,392.031Z" transform="translate(-493.309 -375.328)"/><path class="bp" d="M540.73,396.854c4.4,0,8.8.007,13.2-.007.482,0,1.131.245,1.273-.574a3.563,3.563,0,0,1,.508,1.661,1.684,1.684,0,0,1-1.359.408c-4.174.041-8.349-.013-12.523.032a1.357,1.357,0,0,1-.766-.187C540.658,397.819,540.377,397.416,540.73,396.854Z" transform="translate(-492.769 -374.191)"/><path class="bq" d="M539.593,393.925a2.279,2.279,0,0,0,1.149.276q6.135-.013,12.269,0c.562,0,1.118.032,1.048-.793a2.4,2.4,0,0,1,.558,1.3c.029.749-.534.926-1.06.927-4.4.016-8.8.189-13.194-.079C539.7,395.206,539.243,394.758,539.593,393.925Z" transform="translate(-492.99 -374.767)"/><path class="br" d="M541.864,407.687c-.024.944.616.9,1.274.9q6.629-.014,13.257,0l-.062.818c-.317.638-.911.654-1.5.656q-5.961.016-11.92,0a1.665,1.665,0,0,1-1.248-.377l-.073-.052C541.206,408.914,541.02,408.229,541.864,407.687Z" transform="translate(-492.629 -371.898)"/><path class="bs" d="M555.657,412.208a2.383,2.383,0,0,1-1.416.265q-6.665-.009-13.328-.011c-.246-.451-.382-.872.291-1.072l13.178,0a2.6,2.6,0,0,0,1.547-.263Z" transform="translate(-492.741 -371.207)"/><path class="bt" d="M540.978,397.655h14.688a1.568,1.568,0,0,1,.268,1.078H541.249C540.843,398.454,540.6,398.133,540.978,397.655Z" transform="translate(-492.725 -373.914)"/><path class="bu" d="M542.105,403.674h-.22a.689.689,0,0,1-.024-1.078h14.681l.01,1.078Z" transform="translate(-492.56 -372.922)"/><path class="bv" d="M530.36,426.968c-.422.5-1,.292-1.5.293-4.68.017-9.36,0-14.039.024-.469,0-1.116-.317-1.362.452a4.266,4.266,0,0,1-1.376-.938c0-.645.52-.706.927-.7,5.242.023,10.486-.2,15.725.1A3.823,3.823,0,0,1,530.36,426.968Z" transform="translate(-498.492 -368.213)"/><path class="bw" d="M528.862,426.306a7.111,7.111,0,0,1-2.1.277q-6.537-.027-13.074,0c-.5,0-1.084-.211-1.483.328a.929.929,0,0,1-.788-.558c.136-.823.786-.576,1.269-.578,4.4-.016,8.8,0,13.2-.017.466,0,.992.178,1.375-.281A3.49,3.49,0,0,1,528.862,426.306Z" transform="translate(-498.624 -368.325)"/><path class="bx" d="M521.229,420.018q-6.865,0-13.731,0c-.607,0-1.285-.146-1.589.635a1.418,1.418,0,0,1-.551-.8,1.6,1.6,0,0,1,1.518-.65c4.2,0,8.394-.006,12.59.012a7.5,7.5,0,0,1,1.3.234C521.127,419.473,521.365,419.593,521.229,420.018Z" transform="translate(-499.842 -369.585)"/><path class="by" d="M540.063,395.056q6.477,0,12.955,0c.564,0,1.193.134,1.5-.568.381.379.353.917.528,1.376h-14.69C540.019,395.683,539.86,395.436,540.063,395.056Z" transform="translate(-492.889 -374.55)"/><path class="bz" d="M541.6,409.394q6.555-.011,13.111-.022a2.545,2.545,0,0,0,1.554-.259l-.26,1.338a6.167,6.167,0,0,0-1.971-.277q-5.631.027-11.261,0C542.238,410.175,541.508,410.388,541.6,409.394Z" transform="translate(-492.563 -371.612)"/><path class="ca" d="M556.466,406.547q-6.523,0-13.043,0c-.611,0-1.311.126-1.394-.808h14.44Z" transform="translate(-492.476 -372.29)"/><path class="cb" d="M542.068,427.424a.516.516,0,0,0-.276-.5,1.791,1.791,0,0,1,1.078-.537c.283-.083.357.036.283.3A2.685,2.685,0,0,1,542.068,427.424Z" transform="translate(-492.524 -368.147)"/><path class="cc" d="M542.973,426.768l-.283-.3a1.49,1.49,0,0,1,1.084-.518C543.726,426.445,543.372,426.629,542.973,426.768Z" transform="translate(-492.343 -368.229)"/><path class="m" d="M545.354,396.965l.293.808.494,1.349.293,1.078.27,1.078.249,1.08.292,1.887.238,1.887.024,1.078-.049,4.584c-.014.151-.028.3-.042.454a5.1,5.1,0,0,0-.269,1.942,9.581,9.581,0,0,0-.5,2.453,1.594,1.594,0,0,0-.291,1.072.958.958,0,0,0-.244.791,34.445,34.445,0,0,1-3.526,7.029c-3.747,5.327-10.56,9.6-18.714,5.126a3.137,3.137,0,0,1-1.382-.734c-.6-.576-1.185-1.166-1.774-1.754l-.035.034a4.418,4.418,0,0,0-1.111-1.315l-.459-.566-1.447-2.13c-.019-.6-.779-.754-.808-1.349l-.826-1.887-.755-1.888-.561-1.887-.268-1.08c.1-.861-.658-1.55-.489-2.427a5.961,5.961,0,0,0-.251-2.157l-.07-2.695q.036-1.452.071-2.9l.541-3.765a46.137,46.137,0,0,1,2.177-6.432,24,24,0,0,1,5.589-7.574,7.538,7.538,0,0,1,1.058-.918.1.1,0,0,0,.017-.159,4.909,4.909,0,0,1,1.38-.6A13.084,13.084,0,0,1,533,385.2c.433.073.862.177,1.292.267l2.4,1,1.65,1.062,1.606,1.35,1.063,1.081.761.825,1.008,1.374.682,1.027.739,1.367.581,1.064Z" transform="translate(-498.18 -376.459)"/><path class="cd" d="M547.165,383.976c-.145.659-.68.467-1.088.468q-9.65.014-19.3,0c-.418,0-.943.15-1.051-.519a9.513,9.513,0,0,1,2.15-1.045c.555.323,1.136.049,1.7.058,4.893.071,9.787-.085,14.681.089a.841.841,0,0,0,.5-.157Z" transform="translate(-495.751 -376.883)"/><path class="ce" d="M544.4,383.04c-.126.664-.656.494-1.069.495q-7.368.013-14.736,0c-.411,0-.941.18-1.076-.483a7.39,7.39,0,0,1,3.2-.878,95.7,95.7,0,0,1,10.726.034A9.876,9.876,0,0,1,544.4,383.04Z" transform="translate(-495.391 -377.051)"/><path class="cf" d="M540.907,382.34a.814.814,0,0,1-.719.255h-9.17c-.311,0-.626.01-.837-.288l1.645-.546c.506-.276,1.1.085,1.6-.237l1.081-.043a3.79,3.79,0,0,1,1.819,0A37.094,37.094,0,0,1,540.907,382.34Z" transform="translate(-494.856 -377.185)"/><path class="cg" d="M522.884,386.284c-.411.316-.77.748-1.38.6.2-.466.689-.608,1.036-.909Z" transform="translate(-496.599 -376.261)"/><path class="ch" d="M535.606,381.506h-1.821A1.685,1.685,0,0,1,535.606,381.506Z" transform="translate(-494.132 -377.211)"/><path class="ci" d="M533.154,381.5c-.484.428-1.06.221-1.6.237C532.032,381.289,532.618,381.568,533.154,381.5Z" transform="translate(-494.581 -377.163)"/><path class="cj" d="M521.667,386.86c-.137.557-.635.693-1.058.917A1.162,1.162,0,0,1,521.667,386.86Z" transform="translate(-496.779 -376.082)"/><path class="ck" d="M521.073,422.254l1.322.921-.3.329-.739-.341-.306-.5A.271.271,0,0,1,521.073,422.254Z" transform="translate(-496.707 -368.973)"/><path class="y" d="M535.471,428.2l-2.344-.012A2.739,2.739,0,0,1,535.471,428.2Z" transform="translate(-494.264 -367.832)"/><path class="cl" d="M521.362,422.516l-.025.4c-.349-.277-.7-.556-1.048-.835-.168-.437-.7-.627-.76-1.137A8.728,8.728,0,0,1,521.362,422.516Z" transform="translate(-496.996 -369.235)"/></g></g></g></g></g></svg>