<svg xmlns="http://www.w3.org/2000/svg" width="528" height="425.871" viewBox="0 0 528 425.871"><defs><style>.a{fill:#947dce;}.b{fill:#00a9dd;}.c,.e{fill:#bc1e2d;}.c{stroke:#333;stroke-width:0.856px;}.c,.j,.k{stroke-miterlimit:10;}.d{fill:#999;}.f{fill:#e3e4e5;}.g{fill:#1a1a1a;}.h{fill:#333;}.i{fill:#f5ad43;}.j,.k{fill:none;}.j{stroke:#947dce;stroke-width:2px;}.k{stroke:#00a9dd;stroke-width:1.463px;}</style></defs><g transform="translate(-493.037 -372.12)"><g transform="translate(576.214 617.031)"><path class="a" d="M565.184,593.705c40.227-21.7,85.926-22.614,128.413-7.092,43.058,15.729,79.844,44.939,123.409,59.379,23.215,7.694,48.174,10.522,72.064,4.3,4.669-1.216,2.689-8.457-2-7.236C839.4,655.474,794.3,629.646,754.028,607.369c-38.486-21.291-79.549-41.177-124.68-39.112A158.449,158.449,0,0,0,561.4,587.224c-4.253,2.294-.468,8.776,3.788,6.481Z" transform="translate(-559.533 -568.11)"/></g><g transform="translate(561.787 622.89)"><path class="b" d="M549.916,630.608c53.056,25.889,108.719-4.6,157.322-25.928,51.42-22.563,107.607-30.153,162.986-19.636a268.656,268.656,0,0,1,85.745,32.044c4.177,2.445,7.958-4.038,3.789-6.481a279.3,279.3,0,0,0-152.308-37.568A271.479,271.479,0,0,0,729.6,587.733c-28.2,9.839-54.3,24.7-82.386,34.809-29.783,10.715-63.994,15.986-93.5,1.586-4.324-2.11-8.133,4.36-3.789,6.481Z" transform="translate(-547.999 -572.793)"/></g><g transform="translate(576.041 406.656)"><path class="c" d="M844.238,598.309c-4.328,9.134-10.717,16.685-18.291,23.225a16.376,16.376,0,0,0-5.291,7.089c-2.786,8.1-7.186,16.189-13.542,20.863-8.04,5.914-13.006,15.173-22.388,19.271-1.322.578-2.543,2.338-3.919,1.627-2.11-1.089-.028-3.02-.263-4.569-.081-.533-.164-1.066-.354-2.294a94.554,94.554,0,0,1-33.609,14.228c5.381,4.328,5.554,11.933,12.517,14.022.391.116.946,1.1.812,1.342-1.677,3.073-2.249,6.787-4.845,9.3-2.386,2.307-5.156,1.407-7.711.109-1.586-.806-3.051-1.849-4.912-2.995-1.509,3.076-.355,6.018.16,8.723,1.318,6.93,1.276,14.17,4.519,20.69,1.525,3.065-.751,4.232-2.973,4.837-2.711.737-5.7,1.717-8.328,1.247-7.072-1.267-14.07.024-21.088-.19-3.935-.119-5.805-1.108-5.385-6.1a121,121,0,0,0-.734-22.563c-.492-4.723-2.45-5.152-5.962-2.182-5.4,4.566-8.035,3.612-11.778-2.118-2.7-4.135-3.366-6.029,1.011-9.655,3.132-2.594,4.114-7.783,6.266-12.248-11.714-1.207-22.635-4.218-33.623-7.7.258,7.422,6.589,7.46,10.956,10-7.974,2.829-18.566.513-23.431-6.852-4.586-6.943-12.43-8.869-17.726-14.352a1.824,1.824,0,0,0-2.562-.1c-2.714,2.407-2.691,2.435-5.324.225-10.51-8.826-18.416-19.279-20.546-33.259-.442-2.9-2.767-4.84-4.572-5.925-9.952-5.984-14.919-16.026-21.359-24.882,3.35-1.321,4.348,1.54,5.536,3.427a84.019,84.019,0,0,0,9.246,11.359c2.108,2.33,3.384,1.935,4.114-.917,2.183-8.513,1.652-16.851-3.183-24.288-3.187-4.9-6.523-9.73-8.681-15.115-2.728-6.811-7.741-10.94-14.047-13.9-2.129-1-4.826-3.088-6.621-1.527-1.682,1.465.952,3.97,1.262,6.114.789,5.444,5.519,10.029,3.5,16.085-5.659-10.229-8.367-21.508-11.451-32.633-.965-3.481.948-4.846,4.419-4.19,15.213,2.873,28.11,9.443,36.734,22.884a2.569,2.569,0,0,0,.318.468c1.829,1.795,3.126,5.379,5.778,4.721,2.617-.649,1.316-4.187,1.513-6.427.934-10.646,2.3-21.133,6.548-31.121,3.076-7.231,8.361-12.766,13.051-18.794,1.935-2.488,3.531-5.246,5.529-7.678,3.84-4.677,8.856-8,13.684-11.554,12.934-9.533,26.327-18.355,39.907-26.942,20.57-13.008,30.665-32.158,31.5-56.332.109-3.168.015-6.344.015-10.841,9.683,9.032,14.266,20.034,19.517,32,.4-3.221.645-5.19.913-7.331,2.724.893,2.463,3.111,3.161,4.684,4.759,10.74,8.515,22.171,16.018,31.28,5.59,6.786,11.3,13.743,19.034,18.639,7.553,4.779,12.165,12.518,17.781,19.269,12.166,14.621,20.241,31.46,27.516,48.778,1.754,4.177,3.052,8.546,4.785,13.465a46.451,46.451,0,0,1,21.174-15.418c4.567-1.612,9.346-2.636,14.056-3.823,4.123-1.038,4.727.37,3.667,4.377a286.815,286.815,0,0,1-13.11,37.719c-4.4.739-1.88-1.928-1.431-3.177,2.967-8.252,6.055-16.46,9.413-25.515-8.8,2.678-16.671,5.3-20.559,13.532-3.147,6.662-7.282,12.7-10.845,19.083-4.773,8.555-4.858,17.671-1.4,27.262a88.263,88.263,0,0,0,11.728-13.8C840.99,599.65,841.3,596.685,844.238,598.309ZM638.658,625.852l-.724,1.476a17.3,17.3,0,0,0,.488,2.724c3.7,10.709,10.6,18.261,20.571,24.031,14.4,8.332,30.055,13.108,45.949,15.889,12.19,2.135,25.218,1.268,37.573-1.721,19.443-4.7,36.47-13.248,46.408-31.9,1.211-2.274,2.817-4.518,2.417-7.824-4.044,2.368-5.963,6.391-9.78,8.146-.828.382-1.549,1.358-2.484.832-1.221-.687-.969-1.991-.482-2.992,2.786-5.718,3.255-11.993,3.706-18.094.677-9.162-.255-18.752-7.322-25.2-11.816-10.779-26.817-15.143-42.6-18.406,2.454,5.431,7.721,7.419,10.312,11.8.628,1.061,2.07,2.1,1.24,3.444-.957,1.554-2.46.339-3.571,0-23.8-7.157-47.6-14.31-71.3-21.751-1.955-.613-2.347-.553-3.315.978-4.342,6.856-8.281,13.848-10.872,21.628-4.072,12.221-1.712,24.285.734,36.218,1.252,6.108,6.492,8.61,12.895,8.626C656.293,640.147,646.746,636.121,638.658,625.852Zm75.022,75.376c-.051,6.038,3.9,10.172,9.748,10.2,6.077.034,13.708-4.5,13.836-8.226.328-9.6-5.1-16.359-13.2-16.409C716.962,686.755,713.765,691.2,713.68,701.229Zm14.539,25c-.4-3.614,1.556-6.993,1.027-10.5-.164-1.082-.186-3.271-2.45-3.112-2.552.18-1.779,2.182-1.495,3.38C726.111,719.4,725.949,723.076,728.218,726.224Z" transform="translate(-559.395 -399.924)"/><path class="d" d="M569.817,547.143c2.014-6.055-2.716-10.641-3.5-16.085-.31-2.144-2.944-4.649-1.262-6.114,1.795-1.561,4.492.527,6.621,1.527,6.306,2.964,11.319,7.094,14.047,13.9,2.158,5.385,5.494,10.216,8.681,15.115,4.836,7.436,5.366,15.775,3.183,24.288-.73,2.852-2.006,3.247-4.114.917a84.023,84.023,0,0,1-9.246-11.359c-1.188-1.888-2.187-4.748-5.536-3.427C575.489,559.768,570.363,554.537,569.817,547.143Z" transform="translate(-558.116 -368.703)"/><path class="d" d="M790.79,567.235c-2.94-1.623-3.248,1.341-4.187,2.641a88.262,88.262,0,0,1-11.728,13.8c-3.455-9.591-3.37-18.708,1.4-27.262,3.563-6.382,7.7-12.421,10.845-19.083,3.888-8.228,11.754-10.854,20.559-13.532-3.357,9.055-6.446,17.263-9.413,25.515-.449,1.25-2.966,3.917,1.431,3.177-.681,5.165-4.434,8.508-7.321,12.365-.614-.371-1.212-.607-1.795.073a1.323,1.323,0,0,0,.163,2.163Z" transform="translate(-505.946 -368.85)"/><path class="e" d="M787.211,558.929a1.323,1.323,0,0,1-.163-2.163c.583-.679,1.181-.444,1.795-.073C788.266,557.415,788.759,558.916,787.211,558.929Z" transform="translate(-502.41 -360.689)"/><path class="f" d="M622.907,592.557c8.088,10.268,17.636,14.295,29.84,7.913-6.4-.016-11.643-2.518-12.895-8.626-2.447-11.933-4.806-24-.734-36.218,2.592-7.78,6.531-14.773,10.872-21.628.968-1.531,1.36-1.591,3.315-.978,23.709,7.441,47.508,14.594,71.3,21.751,1.111.335,2.614,1.55,3.571,0,.831-1.348-.612-2.383-1.24-3.444-2.59-4.385-7.858-6.373-10.312-11.8,15.779,3.263,30.781,7.628,42.6,18.406,7.067,6.447,8,16.036,7.322,25.2-.451,6.1-.921,12.376-3.706,18.094-.488,1-.739,2.305.482,2.992.936.527,1.656-.45,2.484-.832,3.818-1.755,5.736-5.778,9.78-8.146.4,3.306-1.206,5.55-2.417,7.824-9.938,18.654-26.965,27.2-46.408,31.9-12.355,2.99-25.384,3.856-37.573,1.721-15.893-2.782-31.553-7.558-45.949-15.89-9.971-5.77-16.87-13.323-20.572-24.031a17.289,17.289,0,0,1-.488-2.724Zm56.044-7.9a2.926,2.926,0,0,0,3.062-2.6,3.026,3.026,0,0,0-2.8-3.59,94.394,94.394,0,0,0-11.236-1.128c-2.847-.062-5.683-7.255-8.562-.1a3.831,3.831,0,0,1-1-.454c-1.281-1.118-2.936-1.8-3.883-.178-1.14,1.955,1.024,3.767,1.16,5.826.119,1.819,1.746,2.464,3.384,2.128C665.462,583.244,671.834,583.612,678.952,584.658Zm57.762-8.44a16.09,16.09,0,0,0-8.941,1.615,3.427,3.427,0,0,0-2,4.2c.49,1.632,1.91,2.664,3.49,2,5.73-2.415,11.359-1.272,17.1-.151,2.847.555,7.358-6.162,6.167-8.793-.6-1.316-2.081-1.73-2.7-.928-1.6,2.073-2.584,2.7-4.1-.058a1.615,1.615,0,0,0-2.827.228C741.547,577.153,739.2,576.153,736.713,576.218ZM723.4,606.366c-8.319,6.875-18.386,6.526-28.413,6.338C705.586,615.261,715.52,615.062,723.4,606.366Z" transform="translate(-543.645 -366.628)"/><path class="f" d="M682.739,643.7c.085-10.032,3.282-14.474,10.387-14.431,8.092.05,13.524,6.8,13.2,16.409-.128,3.721-7.759,8.259-13.836,8.226C686.637,653.87,682.688,649.736,682.739,643.7Z" transform="translate(-528.454 -342.393)"/><path class="f" d="M695.014,663.518c-2.269-3.148-2.108-6.821-2.918-10.231-.284-1.2-1.057-3.2,1.495-3.38,2.264-.159,2.286,2.03,2.45,3.112C696.57,656.525,694.61,659.9,695.014,663.518Z" transform="translate(-526.191 -337.218)"/><path class="g" d="M672.532,576.352c-7.117-1.046-13.489-1.413-19.883-.1-1.637.337-3.265-.309-3.384-2.128-.135-2.059-2.3-3.871-1.16-5.826.947-1.626,2.6-.941,3.883.177a3.827,3.827,0,0,0,1,.454c2.879-7.151,5.715.041,8.562.1a94.394,94.394,0,0,1,11.236,1.128,3.025,3.025,0,0,1,2.8,3.59A2.925,2.925,0,0,1,672.532,576.352Z" transform="translate(-537.225 -358.322)"/><path class="g" d="M715.971,568.054c2.485-.065,4.833.935,6.19-1.889a1.615,1.615,0,0,1,2.827-.228c1.516,2.759,2.5,2.13,4.1.058.619-.8,2.105-.388,2.7.928,1.191,2.632-3.32,9.349-6.167,8.793-5.745-1.121-11.374-2.264-17.1.151-1.58.665-3-.367-3.49-2a3.428,3.428,0,0,1,2-4.2A16.09,16.09,0,0,1,715.971,568.054Z" transform="translate(-522.902 -358.465)"/><path class="h" d="M708.8,591.584c-7.879,8.7-17.813,8.895-28.413,6.338C690.413,598.11,700.48,598.459,708.8,591.584Z" transform="translate(-529.044 -351.846)"/></g><g transform="translate(493.037 493.706)"><path class="i" d="M496.875,496.063c66.257,23.979,134.1-10.438,201.435-4.313,34.017,3.093,65.306,19.321,99.591,21.092,34.053,1.759,67.373-8.008,99.789-17.157,37.628-10.62,77.5-21.014,116.365-10.575,7,1.881,9.993-8.975,2.992-10.856-69.7-18.724-134.283,23.862-202.8,27.317-17.509.883-34.385-1.6-51.276-6.083-16.354-4.342-32.43-9.868-49.112-12.885-33.984-6.145-68.145-.659-101.842,4.646-37.135,5.845-75.919,11.073-112.156-2.043-6.823-2.469-9.764,8.406-2.992,10.856Z" transform="translate(-493.037 -469.517)"/></g><ellipse class="i" cx="76.639" cy="18.185" rx="76.639" ry="18.185" transform="translate(664.313 761.62)"/><path class="j" d="M798.306,392.445l6.373,12.913,14.25,2.071-10.311,10.051,2.434,14.192-12.746-6.7-12.746,6.7,2.434-14.192-10.311-10.051,14.25-2.071Z" transform="translate(71.404 4.856)"/><path class="i" d="M519.693,550.087l4.385,8.885,9.806,1.425-7.1,6.916,1.675,9.766-8.77-4.611-8.77,4.611,1.675-9.766-7.1-6.916,9.806-1.425Z" transform="translate(3.127 44.4)"/><path class="k" d="M809.693,667.917l3.208,6.5,7.173,1.042-5.19,5.059,1.225,7.144-6.415-3.373-6.416,3.373,1.225-7.144-5.19-5.059,7.173-1.042Z" transform="translate(76.829 73.958)"/><path class="c" d="M609.848,373.087l5.538,11.221,12.382,1.8-8.96,8.734,2.115,12.332-11.075-5.823-11.075,5.823,2.115-12.332-8.96-8.734,12.382-1.8Z" transform="translate(24.807)"/></g></svg>