<svg xmlns="http://www.w3.org/2000/svg" width="435" height="333.42" viewBox="0 0 435 333.42"><defs><style>.a{fill:#f0f0f0;}.b{fill:#703d00;}.c{fill:#a85b00;stroke-width:0.777px;}.c,.d{stroke:#a85b00;stroke-linecap:round;}.d,.j{fill:#f0c444;}.d{stroke-width:0.826px;}.e{fill:#115489;}.f{fill:#fbb040;}.g{fill:#f6c948;}.h{fill:#634f41;}.i{fill:#fcfcfc;}</style></defs><g transform="translate(-809.256 -193.233)"><rect class="a" width="435" height="333.42" transform="translate(809.256 193.233)"/><g transform="translate(930.153 228.553)"><path class="b" d="M956.423,252.808a18.666,18.666,0,0,1,6.772,1.137c1.734.7,2.807,1.674,2.807,2.744s-1.073,2.042-2.807,2.744a20.711,20.711,0,0,1-13.542,0c-1.734-.7-2.807-1.674-2.807-2.744s1.073-2.041,2.807-2.744A18.661,18.661,0,0,1,956.423,252.808Z" transform="translate(-936.81 -231.436)"/><path class="c" d="M953.236,239.938c4.079-.064,8.176-.009,12.249.176,1.02.046,2.57-.558,2.5.352-.263,3.636-1.958,7.268-3.436,10.757-.817,1.979-1.2,4.937-3.416,5.845-3.671,1.4-8.1.906-12.075.352-1.445-.211-2.349-1.416-3.145-2.359a25.8,25.8,0,0,1-3.164-5.105c-1.44-2.881-3.521-5.77-3.96-8.768-.12-.816,1.527-.771,2.543-.9A117.283,117.283,0,0,1,953.236,239.938Z" transform="translate(-936.42 -230.812)"/><path class="b" d="M954.187,241.216a38.311,38.311,0,0,1,9.539,1.068c2.443.66,3.955,1.571,3.955,2.577s-1.512,1.917-3.955,2.576a43.149,43.149,0,0,1-19.079,0c-2.443-.659-3.955-1.571-3.955-2.576s1.512-1.917,3.955-2.577A38.314,38.314,0,0,1,954.187,241.216Z" transform="translate(-936.512 -230.875)"/><path class="d" d="M953.585,230.355c4.8.136,9.415,2.222,13.542,4.426,1.837,1.116,3.817,3.162,3.567,5.1s-1.926,2.939-5.038,3.95a45.911,45.911,0,0,1-24.306,0c-3.112-1.012-5.229-1.965-5.038-3.95.28-2.633,3.241-4.614,5.661-6.072C945.51,231.984,949.582,230.239,953.585,230.355Z" transform="translate(-936.299 -230.349)"/></g><g transform="translate(1090.025 358.15)"><path class="b" d="M1124.423,388.994a18.666,18.666,0,0,1,6.772,1.137c1.734.7,2.807,1.674,2.807,2.744s-1.073,2.042-2.807,2.744a20.711,20.711,0,0,1-13.542,0c-1.734-.7-2.807-1.673-2.807-2.744s1.074-2.041,2.807-2.744A18.661,18.661,0,0,1,1124.423,388.994Z" transform="translate(-1104.81 -367.622)"/><path class="c" d="M1121.236,376.124c4.079-.064,8.176-.009,12.249.176,1.02.047,2.57-.558,2.5.352-.263,3.636-1.958,7.268-3.436,10.757-.817,1.979-1.2,4.937-3.416,5.845-3.671,1.4-8.1.906-12.075.352-1.445-.211-2.349-1.416-3.145-2.359a25.8,25.8,0,0,1-3.164-5.105c-1.44-2.881-3.521-5.77-3.96-8.768-.12-.816,1.527-.771,2.543-.9A117.3,117.3,0,0,1,1121.236,376.124Z" transform="translate(-1104.42 -366.998)"/><path class="b" d="M1122.187,377.4a38.311,38.311,0,0,1,9.539,1.068c2.443.66,3.955,1.571,3.955,2.577s-1.512,1.917-3.955,2.576a43.149,43.149,0,0,1-19.079,0c-2.443-.659-3.955-1.571-3.955-2.576s1.512-1.917,3.955-2.577A38.314,38.314,0,0,1,1122.187,377.4Z" transform="translate(-1104.512 -367.061)"/><path class="d" d="M1121.585,366.541c4.8.136,9.415,2.222,13.542,4.426,1.837,1.116,3.817,3.162,3.567,5.1s-1.926,2.939-5.038,3.95a45.91,45.91,0,0,1-24.306,0c-3.112-1.012-5.229-1.965-5.038-3.95.28-2.633,3.241-4.614,5.661-6.072C1113.51,368.17,1117.582,366.425,1121.585,366.541Z" transform="translate(-1104.299 -366.535)"/></g><g transform="translate(859.522 483.2)"><path class="b" d="M882.2,520.4a18.644,18.644,0,0,1,6.772,1.138c1.734.7,2.807,1.673,2.807,2.744s-1.073,2.041-2.807,2.744a20.728,20.728,0,0,1-13.542,0c-1.734-.7-2.807-1.674-2.807-2.744s1.073-2.042,2.807-2.744A18.639,18.639,0,0,1,882.2,520.4Z" transform="translate(-862.588 -499.029)"/><path class="c" d="M879.014,507.531c4.079-.064,8.177-.008,12.249.176,1.02.047,2.57-.557,2.5.352-.263,3.637-1.958,7.269-3.436,10.757-.817,1.98-1.2,4.938-3.416,5.846-3.671,1.4-8.1.906-12.075.352-1.445-.211-2.349-1.416-3.144-2.359a25.857,25.857,0,0,1-3.165-5.106c-1.44-2.88-3.521-5.769-3.96-8.767-.12-.817,1.527-.771,2.543-.9A117.83,117.83,0,0,1,879.014,507.531Z" transform="translate(-862.198 -498.405)"/><path class="b" d="M879.965,508.81a38.313,38.313,0,0,1,9.539,1.068c2.444.659,3.956,1.571,3.956,2.576s-1.512,1.917-3.956,2.577a43.15,43.15,0,0,1-19.079,0c-2.443-.66-3.955-1.571-3.955-2.577s1.512-1.916,3.955-2.576A38.316,38.316,0,0,1,879.965,508.81Z" transform="translate(-862.29 -498.468)"/><path class="d" d="M879.363,497.948c4.8.137,9.415,2.223,13.541,4.426,1.837,1.117,3.818,3.163,3.567,5.105s-1.926,2.939-5.038,3.95a45.907,45.907,0,0,1-24.305,0c-3.112-1.012-5.23-1.965-5.039-3.95.28-2.633,3.241-4.615,5.661-6.072C871.288,499.578,875.36,497.833,879.363,497.948Z" transform="translate(-862.078 -497.942)"/></g><g transform="translate(1154.823 221.547)"><path class="b" d="M1192.516,245.445a18.643,18.643,0,0,1,6.772,1.138c1.734.7,2.807,1.673,2.807,2.744s-1.073,2.041-2.807,2.744a20.728,20.728,0,0,1-13.543,0c-1.734-.7-2.807-1.674-2.807-2.744s1.073-2.042,2.807-2.744A18.64,18.64,0,0,1,1192.516,245.445Z" transform="translate(-1172.903 -224.073)"/><path class="c" d="M1189.329,232.575c4.079-.064,8.176-.008,12.249.176,1.02.047,2.57-.557,2.5.352-.263,3.637-1.958,7.269-3.436,10.758-.817,1.979-1.2,4.937-3.416,5.845-3.671,1.4-8.1.906-12.075.352-1.445-.211-2.349-1.416-3.145-2.359a25.9,25.9,0,0,1-3.164-5.106c-1.44-2.88-3.521-5.769-3.96-8.767-.12-.816,1.527-.771,2.543-.9A117.841,117.841,0,0,1,1189.329,232.575Z" transform="translate(-1172.513 -223.449)"/><path class="b" d="M1190.28,233.854a38.312,38.312,0,0,1,9.539,1.068c2.444.659,3.956,1.571,3.956,2.576s-1.512,1.917-3.956,2.577a43.148,43.148,0,0,1-19.079,0c-2.443-.66-3.955-1.571-3.955-2.577s1.512-1.917,3.955-2.576A38.313,38.313,0,0,1,1190.28,233.854Z" transform="translate(-1172.605 -223.512)"/><path class="d" d="M1189.678,222.992c4.8.137,9.415,2.223,13.542,4.426,1.837,1.117,3.817,3.163,3.567,5.105s-1.926,2.939-5.038,3.95a45.911,45.911,0,0,1-24.306,0c-3.112-1.012-5.229-1.965-5.038-3.95.28-2.633,3.241-4.615,5.661-6.072C1181.6,224.622,1185.675,222.877,1189.678,222.992Z" transform="translate(-1172.392 -222.986)"/></g><g transform="translate(1182.531 470.751)"><path class="e" d="M1252.244,484.861h-47.4a3.338,3.338,0,0,0-3.334,3.334v41.135a3.338,3.338,0,0,0,3.334,3.333h47.4a3.338,3.338,0,0,0,3.334-3.333V488.195A3.339,3.339,0,0,0,1252.244,484.861Z" transform="translate(-1201.509 -484.861)"/><g transform="translate(4.887 3.474)"><path class="f" d="M1229.33,488.512l-22.686,19.622h7.782v18.489h10.606V513.8h8.594v12.82h10.607V508.133h7.782Z" transform="translate(-1206.644 -488.512)"/></g></g><g transform="translate(818.807 202.355)"><path class="g" d="M830.666,215.93c.045-.181.188-.232.347-.266a1.938,1.938,0,0,1,1.824.22,9.992,9.992,0,0,1,1.558,1.356c1.134,1.178,2.1,2.516,3.34,3.593a4,4,0,0,0,2.867,1.243,2.063,2.063,0,0,0,2.049-1.979,7.577,7.577,0,0,0-.631-3.511,76.546,76.546,0,0,0-3.928-8.251,24.334,24.334,0,0,1-1.748-4.136c-.077-.258-.189-.6.065-.81.28-.229.578-.034.859.1a8.658,8.658,0,0,1,2.107,1.574,92.853,92.853,0,0,1,6.99,7.529,88.66,88.66,0,0,0,7.92,8.418,1.093,1.093,0,0,0,.646.4,2.848,2.848,0,0,0,2.7-2.035c.131-.794.191-1.6.328-2.392a13.776,13.776,0,0,1,.736-3.254c.293-.673.721-.7,1.15-.1a5.739,5.739,0,0,1,.787,1.9c.873,3.335,1.246,6.78,2.282,10.086a24.2,24.2,0,0,0,3.287,7.426c2.877,3.91,4.55,8.258,4.012,13.247a15.155,15.155,0,0,1-3.98,8.838,18.82,18.82,0,0,1-8.764,5.247,24.2,24.2,0,0,1-12.063.57,5.907,5.907,0,0,0-4.095.141,13.669,13.669,0,0,0-5.577,5.463c-.239.4-.414.9-1.027.84a1.37,1.37,0,0,1-1.168-1.017,3.472,3.472,0,0,1-.218-1.116,11.6,11.6,0,0,1,.669-4.351.869.869,0,0,0-.372-1.171,22.169,22.169,0,0,1-5.014-5.6c-.108-.167-.334-.313-.037-.637,1.257-1.367,2.587-2.655,3.926-3.939a26.8,26.8,0,0,0,3.357-3.6,3.98,3.98,0,0,0,.909-2.359.939.939,0,0,0-.971-1.072,8.837,8.837,0,0,0-3.72.481,27.892,27.892,0,0,0-3.832,1.636c-.458.266-.953.47-1.527.75.045-.408.058-.691.108-.968a15.907,15.907,0,0,1,2.988-6.5c.741-1.033,1.6-2.022,1.536-3.445a10.219,10.219,0,0,0-1.231-4.067c-1.041-2.1-2.322-4.08-3.3-6.216-.094-.206-.351-.4-.159-.686l.126-.276a4.052,4.052,0,0,1,2.192.5c.769.374,1.525.784,2.321,1.09,1.18.454,1.826-.12,1.559-1.356a15.938,15.938,0,0,0-.72-2.157C831.475,219.57,830.451,217.916,830.666,215.93ZM850.317,245.2a3.225,3.225,0,0,0-3.272-3.311,3.333,3.333,0,0,0-3.353,3.333,3.427,3.427,0,0,0,3.278,3.324A3.287,3.287,0,0,0,850.317,245.2Zm15.721.042a3.351,3.351,0,0,0-3.376-3.337,3.234,3.234,0,0,0-3.238,3.381c.038,1.918,1.375,3.211,3.609,3.365C864.375,248.746,866.041,246.815,866.038,245.244Zm-8.462,10.663c.319.007.676.018.722-.395.052-.465-.372-.4-.648-.475a2.186,2.186,0,0,0-.355-.03,7.613,7.613,0,0,1-3.307-1.033c-.284-.171-.548-.376-.824-.561-.192-.129-.4-.194-.575.012a.411.411,0,0,0,.065.628,3.888,3.888,0,0,0,.494.409A9.4,9.4,0,0,0,857.576,255.907Z" transform="translate(-819.645 -202.842)"/><path class="h" d="M826.3,223.5c-.192.284.065.48.159.686.977,2.136,2.258,4.113,3.3,6.216a10.221,10.221,0,0,1,1.231,4.067c.067,1.423-.795,2.412-1.536,3.445a15.907,15.907,0,0,0-2.988,6.5c-.049.277-.063.56-.108.968.575-.28,1.07-.483,1.527-.75a27.887,27.887,0,0,1,3.832-1.636,8.837,8.837,0,0,1,3.72-.481.938.938,0,0,1,.971,1.072,3.98,3.98,0,0,1-.909,2.359,26.8,26.8,0,0,1-3.357,3.6c-1.339,1.284-2.669,2.571-3.926,3.939-.3.324-.07.47.037.637a22.168,22.168,0,0,0,5.014,5.6.869.869,0,0,1,.372,1.171,11.594,11.594,0,0,0-.669,4.351,3.473,3.473,0,0,0,.218,1.116,1.37,1.37,0,0,0,1.168,1.017c.613.061.788-.439,1.027-.84a13.668,13.668,0,0,1,5.577-5.463,5.907,5.907,0,0,1,4.095-.141,24.2,24.2,0,0,0,12.063-.57,18.82,18.82,0,0,0,8.764-5.247,15.155,15.155,0,0,0,3.98-8.838c.538-4.988-1.135-9.336-4.012-13.247a24.2,24.2,0,0,1-3.287-7.426c-1.036-3.306-1.409-6.751-2.282-10.086a5.74,5.74,0,0,0-.787-1.9c-.428-.606-.856-.577-1.15.1a13.773,13.773,0,0,0-.736,3.254c-.137.793-.2,1.6-.328,2.392a2.848,2.848,0,0,1-2.7,2.035,1.093,1.093,0,0,1-.646-.4,88.666,88.666,0,0,1-7.92-8.418,92.855,92.855,0,0,0-6.99-7.529,8.658,8.658,0,0,0-2.107-1.574c-.282-.135-.58-.33-.859-.1-.254.208-.142.552-.065.81a24.334,24.334,0,0,0,1.748,4.136,76.523,76.523,0,0,1,3.928,8.251,7.576,7.576,0,0,1,.631,3.511,2.063,2.063,0,0,1-2.049,1.979,4,4,0,0,1-2.867-1.243c-1.243-1.077-2.206-2.415-3.34-3.593a9.99,9.99,0,0,0-1.558-1.356,1.938,1.938,0,0,0-1.824-.22,1.512,1.512,0,0,1,1.687-.491,4.1,4.1,0,0,1,2.213,1.363c1.14,1.181,2.243,2.4,3.372,3.589a5.348,5.348,0,0,0,1.827,1.343,1.513,1.513,0,0,0,1.683-.153,1.471,1.471,0,0,0,.294-1.519c-.581-2.992-2.083-5.6-3.4-8.291-.866-1.775-1.8-3.515-2.518-5.36a5.58,5.58,0,0,1-.462-2.005,1.172,1.172,0,0,1,1.608-1.235,5.752,5.752,0,0,1,2.106,1.173,49.936,49.936,0,0,1,6.21,6.293c2.977,3.4,5.973,6.794,8.793,10.332.364.455.638.514,1.094.134a3.453,3.453,0,0,0,1.423-2.592,13.766,13.766,0,0,1,.756-3.91,1.82,1.82,0,0,1,1.39-1.371,1.745,1.745,0,0,1,1.7.841,9.748,9.748,0,0,1,1.687,4.278c.708,3.816,1.63,7.58,2.591,11.337a3.074,3.074,0,0,0,.541,1.144,24.116,24.116,0,0,1,4.951,11.838,1.751,1.751,0,0,0,.654,1.18,14.672,14.672,0,0,1,4.5,7.309,5.441,5.441,0,0,1-.22,3.843,2.2,2.2,0,0,1-1.635,1.465,3.465,3.465,0,0,0,1.439-2.918,12,12,0,0,0-1.039-4.912,10.369,10.369,0,0,0-3.059-4.4c-.121-.094-.234-.32-.4-.2-.1.076-.128.3-.131.457-.011.662-.1,1.318-.144,1.975a14.678,14.678,0,0,1-1.378,5.505,1.193,1.193,0,0,0,.049,1.321c.466.69.914,1.393,1.445,2.034a3.012,3.012,0,0,0,2.581,1.381,2.111,2.111,0,0,1-2.561-.513,9.5,9.5,0,0,1-1.513-2.07c-.155-.262-.329-.511-.546-.845a17.713,17.713,0,0,1-2.517,3.42,19.023,19.023,0,0,1-10.726,5.537c-.731.129-.922.388-.825,1.1a15.352,15.352,0,0,1,.224,2.774c-.078,1.782-1.1,2.406-2.664,1.559a15.838,15.838,0,0,1-4.309-4.018c-.151-.178-.3-.359-.492-.588a12.086,12.086,0,0,0-1.391,2.988,5.686,5.686,0,0,1-.659,1.574c-.357.5-.783.884-1.472.638a3.343,3.343,0,0,0,1.465-2.057c.285-.8.542-1.618.907-2.394.778-1.661.745-1.6-1.01-2.187a3.1,3.1,0,0,0-3.084.239.893.893,0,0,0-.478.785,17.181,17.181,0,0,0,.342,3.536,2.62,2.62,0,0,0,1.679,2.072.451.451,0,0,1-.508.069,3.081,3.081,0,0,1-1.859-1.946,11.6,11.6,0,0,1-.59-3.609,8.053,8.053,0,0,0-2.243,1.92c-.57.732-1.128,1.474-1.688,2.213a2.124,2.124,0,0,1-2.12,1.03,2.018,2.018,0,0,1-1.637-1.681,9.221,9.221,0,0,1,.064-4.867c.067-.265.2-.521-.093-.777a22.309,22.309,0,0,1-4.867-6.244c-.771.919-1.492,1.807-2.247,2.665a8.361,8.361,0,0,1-1.14,1.076,2.624,2.624,0,0,1-3.683-.082c.017-.022.035-.043.053-.064,1.536.92,2.759.314,3.88-.793.085-.084.176-.162.254-.251.762-.872,1.595-1.675,2.318-2.592a48.957,48.957,0,0,1,4.86-5.117,20.884,20.884,0,0,0,3.238-3.692c.327-.5.755-1.072.382-1.639-.4-.6-1.115-.384-1.719-.3a28.384,28.384,0,0,0-5.933,1.774,12.764,12.764,0,0,0-7.867,8.616,4.011,4.011,0,0,0,.315,3.7l-.1.1a3.892,3.892,0,0,1-.835-3.926,12.249,12.249,0,0,1,3.566-5.672,11.065,11.065,0,0,1,2.58-2.017.857.857,0,0,0,.471-.8,16.006,16.006,0,0,1,2.548-7.493,4.563,4.563,0,0,1,.391-.6c1.385-1.558,1.2-3.245.451-5-.7-1.648-1.61-3.185-2.458-4.755a9.272,9.272,0,0,1-1.112-2.693A.876.876,0,0,1,826.3,223.5Zm21.412,38.635a4.24,4.24,0,0,0,.849,1.123,19.583,19.583,0,0,0,3.949,3.653c.335.217.713.494,1.119.294.463-.227.407-.737.371-1.149a22,22,0,0,0-.614-3.43c-.082-.324-.3-.386-.59-.365-.64.046-1.28.08-1.92.114A21.571,21.571,0,0,1,847.709,262.133Z" transform="translate(-819.292 -202.819)"/><path class="g" d="M875.381,258.5a3.012,3.012,0,0,1-2.581-1.381c-.53-.64-.978-1.344-1.445-2.034a1.193,1.193,0,0,1-.049-1.321,14.677,14.677,0,0,0,1.378-5.505c.049-.657.132-1.312.144-1.975,0-.158.029-.381.131-.457.166-.123.279.1.4.2a10.369,10.369,0,0,1,3.059,4.4,12,12,0,0,1,1.039,4.912,3.465,3.465,0,0,1-1.439,2.918C875.828,258.392,875.647,258.557,875.381,258.5Z" transform="translate(-821.8 -204.898)"/><path class="g" d="M844.357,270.926a2.62,2.62,0,0,1-1.679-2.072,17.177,17.177,0,0,1-.342-3.536.893.893,0,0,1,.478-.785,3.1,3.1,0,0,1,3.084-.239c1.755.582,1.787.526,1.01,2.187-.365.777-.621,1.59-.907,2.394a3.342,3.342,0,0,1-1.465,2.057Z" transform="translate(-820.407 -205.779)"/><path class="h" d="M830.676,216.573c-.215,1.986.809,3.64,1.46,5.39a15.938,15.938,0,0,1,.72,2.157c.267,1.236-.379,1.81-1.559,1.356-.8-.305-1.552-.716-2.321-1.09a4.052,4.052,0,0,0-2.192-.5c-.037-.482.376-.418.629-.466a3,3,0,0,1,1.863.36c.856.41,1.687.876,2.539,1.3.16.08.3.381.542.13.211-.215.01-.414-.06-.583-.514-1.253-1.13-2.463-1.562-3.752a7.752,7.752,0,0,1-.58-2.99C830.191,217.4,830.189,216.885,830.676,216.573Z" transform="translate(-819.654 -203.485)"/><path class="h" d="M820.684,260.509l-.322-.258.1-.1a.381.381,0,0,1,.272.3C820.719,260.466,820.7,260.487,820.684,260.509Z" transform="translate(-819.344 -205.593)"/><path class="i" d="M851.187,247.165a3.287,3.287,0,0,1-3.346,3.346,3.427,3.427,0,0,1-3.278-3.324,3.333,3.333,0,0,1,3.353-3.333A3.225,3.225,0,0,1,851.187,247.165Zm-2.886,2.23a2.3,2.3,0,1,0-2.272-2.328A2.248,2.248,0,0,0,848.3,249.394Z" transform="translate(-820.515 -204.805)"/><path class="i" d="M867.708,247.207c0,1.571-1.662,3.5-3.006,3.409-2.233-.154-3.57-1.447-3.609-3.365a3.234,3.234,0,0,1,3.238-3.381A3.351,3.351,0,0,1,867.708,247.207Zm-2.94,2.188a2.282,2.282,0,0,0,2.38-2.232,2.319,2.319,0,0,0-2.247-2.374,2.286,2.286,0,0,0-2.371,2.247A2.243,2.243,0,0,0,864.767,249.4Z" transform="translate(-821.315 -204.805)"/><path class="h" d="M858.893,258.448a9.392,9.392,0,0,1-4.429-1.442,3.888,3.888,0,0,1-.494-.409.411.411,0,0,1-.065-.628c.177-.206.383-.142.575-.012.276.185.54.389.824.56a7.613,7.613,0,0,0,3.307,1.033,2.189,2.189,0,0,1,.355.029c.276.075.7.01.648.475C859.568,258.467,859.211,258.456,858.893,258.448Z" transform="translate(-820.961 -205.384)"/><path class="g" d="M820.711,259.723a.381.381,0,0,0-.272-.3,4.011,4.011,0,0,1-.315-3.7,12.764,12.764,0,0,1,7.867-8.616,28.384,28.384,0,0,1,5.933-1.774c.6-.085,1.323-.3,1.719.3.373.567-.054,1.137-.382,1.639a20.883,20.883,0,0,1-3.238,3.692,48.955,48.955,0,0,0-4.86,5.117c-.723.917-1.556,1.72-2.318,2.592-.078.089-.169.167-.254.251C823.47,260.037,822.247,260.643,820.711,259.723Z" transform="translate(-819.318 -204.871)"/><path class="g" d="M849.154,265.149a21.579,21.579,0,0,0,3.164.241c.64-.034,1.281-.069,1.92-.114.294-.021.508.042.59.365a22.02,22.02,0,0,1,.614,3.43c.036.411.092.921-.371,1.149-.406.2-.784-.077-1.119-.294A19.581,19.581,0,0,1,850,266.272,4.239,4.239,0,0,1,849.154,265.149Z" transform="translate(-820.737 -205.835)"/><path class="h" d="M848.375,249.442a2.248,2.248,0,0,1-2.272-2.328,2.307,2.307,0,1,1,2.272,2.328Z" transform="translate(-820.589 -204.852)"/><path class="h" d="M864.84,249.442a2.243,2.243,0,0,1-2.238-2.359,2.286,2.286,0,0,1,2.371-2.247,2.319,2.319,0,0,1,2.247,2.374A2.282,2.282,0,0,1,864.84,249.442Z" transform="translate(-821.388 -204.852)"/></g><rect class="j" width="40.632" height="156.951" transform="translate(884.544 201.2)"/><rect class="j" width="102.775" height="162.926" transform="translate(978.555 201.2)"/><rect class="j" width="82.371" height="126.277" transform="translate(1124.44 275.293)"/><rect class="j" width="204.317" height="121.099" transform="translate(947.123 398.516)"/></g></svg>