<svg xmlns="http://www.w3.org/2000/svg" width="528" height="344.459" viewBox="0 0 528 344.459"><defs><style>.a{fill:#f0c0cc;opacity:0.7;}.b{fill:#7ebfce;}.c{fill:#3c838f;}.d{fill:#f42a39;}.e{fill:#93c4cc;}.f{fill:#dae2ea;}.g{fill:#1f3547;}.h{mix-blend-mode:overlay;isolation:isolate;}.i{fill:#d1cebd;}</style></defs><g transform="translate(-455.693 -361.572)"><path class="a" d="M978.187,485.125c-11.557-40.233-39.963-75.312-76.558-95.518-40.389-22.3-88.689-26.927-133.114-15.487-22.723,5.851-45.166,15.7-68.882,16.519-24.954.861-48.523-11.056-73.645-6.385-32.912,6.119-40.289,41.464-56.9,64.914-18.847,26.6-45.776,47.567-76.492,58.644-7.685,2.772-15.756,5.042-22.276,9.965-12.847,9.7-16.745,27.932-13.583,43.712,5.895,29.424,28.684,53.169,48.742,73.948,16.2,16.778,34.249,32.149,54.352,44.064a173.874,173.874,0,0,0,66.248,23.245c23.727,3.059,47.063-.385,69.251-9.172,22.685-8.983,44.214-20.432,67.5-27.946a185.012,185.012,0,0,1,71.33-8.614c25.335,1.763,49.991,3.52,73.86-6.905,20.62-9.006,37.787-24.983,50.52-43.324C982.769,571.885,989.884,525.854,978.187,485.125Z" transform="translate(0 2.19)"/><g transform="translate(594.375 361.572)"><g transform="translate(87.885)"><path class="b" d="M660.022,431.146a34.787,34.787,0,1,1,34.787-34.787A34.828,34.828,0,0,1,660.022,431.146Zm0-60.365A25.578,25.578,0,1,0,685.6,396.359,25.609,25.609,0,0,0,660.022,370.781Z" transform="translate(-625.232 -361.572)"/></g><g transform="translate(6.342 69.262)"><g transform="translate(11.777 12.662)"><path class="b" d="M591.564,422.875c-.13.1-.237.23-.374.329l-18.164,13.336,8.709,12.133a136.159,136.159,0,0,1,17.2-15.529Z" transform="translate(-573.026 -422.875)"/></g><g transform="translate(3.725 4.294)"><path class="c" d="M596.241,419.572l-2.423-2.959L567,440.171l1.632,1.994a7.821,7.821,0,0,0,11.008,1.1l15.5-12.684A7.824,7.824,0,0,0,596.241,419.572Z" transform="translate(-567.001 -416.613)"/></g><path class="c" d="M593.59,416.267a7.825,7.825,0,0,0-11.006-1.1l-15.5,12.685a7.824,7.824,0,0,0-1.1,11.006l1.958,2.392,26.817-23.558Z" transform="translate(-564.214 -413.4)"/></g><g transform="translate(101.988 27.024)"><g transform="translate(9.711 20.904)"><path class="b" d="M664.858,397.436H643.052v18a59.85,59.85,0,0,1,10.618-1.14c.179,0,.349-.04.528-.04a58.545,58.545,0,0,1,10.66,1.089Z" transform="translate(-643.052 -397.436)"/></g><path class="d" d="M677.886,390.037a8,8,0,0,0-7.723-8.243H643.508a8,8,0,0,0-7.723,8.243v3.738h42.1Z" transform="translate(-635.785 -381.794)"/><g transform="translate(0 11.981)"><path class="d" d="M635.785,390.759v1.719a8,8,0,0,0,7.723,8.243h26.655a8,8,0,0,0,7.723-8.243v-1.719Z" transform="translate(-635.785 -390.759)"/></g></g><g transform="translate(0 63.252)"><path class="e" d="M800.037,529.186A120.285,120.285,0,1,1,679.751,408.9,120.284,120.284,0,0,1,800.037,529.186Z" transform="translate(-559.468 -408.903)"/><g transform="translate(11.127 11.127)"><path class="b" d="M786.11,526.386A109.158,109.158,0,1,1,676.951,417.229,109.158,109.158,0,0,1,786.11,526.386Z" transform="translate(-567.794 -417.229)"/></g><g transform="translate(18.617 18.617)"><path class="f" d="M776.7,524.5a101.651,101.651,0,1,1-103.17-101.637c.521-.029,1.013-.029,1.536-.029a101.608,101.608,0,0,1,101.574,98.412C776.673,522.321,776.7,523.426,776.7,524.5Z" transform="translate(-573.399 -422.834)"/></g></g><g transform="translate(106.887 96.42)"><g transform="translate(12.185)"><path class="g" d="M654.992,505.191a13.671,13.671,0,0,1,5.589,3.169l16.854-72.711-7.219-1.927L648.569,505.15A13.7,13.7,0,0,1,654.992,505.191Z" transform="translate(-648.569 -433.722)"/></g><g transform="translate(0 94.859)"><path class="g" d="M653.569,527.483l4.314-19.287a12.511,12.511,0,0,1-13.076-3.492l-5.355,18.628Z" transform="translate(-639.451 -504.704)"/></g><g transform="translate(1.009 71.066)"><path class="g" d="M640.662,497.219a13.822,13.822,0,0,0,3.89,13.473,12.511,12.511,0,0,0,13.076,3.492,13.669,13.669,0,0,0,5.765-23.713,12.749,12.749,0,0,0-12.011-3.21,13.968,13.968,0,0,0-2.035.7A13.748,13.748,0,0,0,640.662,497.219Zm4.513,1.205a9.332,9.332,0,1,1,6.608,11.425A9.332,9.332,0,0,1,645.174,498.425Z" transform="translate(-640.206 -486.9)"/></g></g><g transform="translate(29.888 91.099)"><g transform="translate(85.479)"><path class="g" d="M645.8,433.453v12.24a3.552,3.552,0,0,0,2.755,3.314c.339.1.584.4.956.4a3.722,3.722,0,0,0,3.711-3.711V433.451a3.722,3.722,0,0,0-3.711-3.71c-.372,0-.616.293-.956.4A3.549,3.549,0,0,0,645.8,433.453Z" transform="translate(-645.796 -429.741)"/></g><g transform="translate(42.722 11.277)"><path class="g" d="M620.7,439.924a3.509,3.509,0,0,0-4.778-1.279l-.37.214a3.509,3.509,0,0,0-1.28,4.779l6.334,10.969a3.506,3.506,0,0,0,4.776,1.28l.37-.212a3.509,3.509,0,0,0,1.282-4.779Z" transform="translate(-613.802 -438.179)"/></g><g transform="translate(11.511 42.528)"><path class="g" d="M596.013,462.058a3.724,3.724,0,0,0-5.07,1.358h0a3.719,3.719,0,0,0,1.356,5.068l10.606,6.122a3.709,3.709,0,1,0,3.708-6.425Z" transform="translate(-590.447 -461.564)"/></g><g transform="translate(0 85.163)"><path class="g" d="M601.5,497.179a3.72,3.72,0,0,0-3.711-3.711h-12.24a3.72,3.72,0,0,0-3.711,3.711v0a3.719,3.719,0,0,0,3.711,3.707h12.24A3.72,3.72,0,0,0,601.5,497.179Z" transform="translate(-581.833 -493.468)"/></g><g transform="translate(11.356 121.727)"><path class="g" d="M602.785,521.324l-10.6,6.119a3.725,3.725,0,0,0-1.363,5.07h0a3.718,3.718,0,0,0,5.066,1.36l10.6-6.121a3.711,3.711,0,0,0-3.708-6.429Z" transform="translate(-590.33 -520.829)"/></g><g transform="translate(42.527 148.536)"><path class="g" d="M625.341,541.385a3.723,3.723,0,0,0-5.072,1.355l-6.119,10.6a3.712,3.712,0,0,0,6.425,3.718l6.123-10.605a3.72,3.72,0,0,0-1.358-5.066Z" transform="translate(-613.656 -540.889)"/></g><g transform="translate(85.163 158.402)"><path class="g" d="M645.56,551.983v12.238a3.6,3.6,0,0,0,3.071,3.445c.237.048.39.269.64.269a3.722,3.722,0,0,0,3.711-3.714V551.983a3.721,3.721,0,0,0-3.711-3.711c-.25,0-.4.219-.64.266A3.6,3.6,0,0,0,645.56,551.983Z" transform="translate(-645.56 -548.272)"/></g><g transform="translate(121.73 148.689)"><path class="g" d="M679.537,557.176a3.718,3.718,0,0,0,5.067,1.355h0a3.722,3.722,0,0,0,1.357-5.07l-6.121-10.606a3.712,3.712,0,0,0-6.424,3.72Z" transform="translate(-672.922 -541.004)"/></g><g transform="translate(148.532 122.003)"><path class="g" d="M705.433,534.075a3.725,3.725,0,0,0,5.07-1.358h0a3.717,3.717,0,0,0-1.355-5.066l-10.6-6.119a3.71,3.71,0,1,0-3.719,6.42Z" transform="translate(-692.979 -521.035)"/></g><g transform="translate(158.402 85.48)"><path class="g" d="M700.364,497.416a3.72,3.72,0,0,0,3.711,3.71h12.239a3.71,3.71,0,1,0,0-7.421H704.075A3.719,3.719,0,0,0,700.364,497.416Z" transform="translate(-700.364 -493.705)"/></g><g transform="translate(148.694 42.801)"><path class="g" d="M698.658,474.812l10.6-6.123a3.71,3.71,0,1,0-3.708-6.427l-10.6,6.119a3.711,3.711,0,0,0,3.706,6.431Z" transform="translate(-693.099 -461.768)"/></g><g transform="translate(121.922 11.434)"><path class="g" d="M675.183,456.005a3.508,3.508,0,0,0,4.779-1.28l6.332-10.969a3.506,3.506,0,0,0-1.279-4.779l-.369-.214a3.506,3.506,0,0,0-4.778,1.28l-6.336,10.97a3.509,3.509,0,0,0,1.28,4.779Z" transform="translate(-673.066 -438.297)"/></g></g><g class="h" transform="translate(18.617 81.869)"><path class="i" d="M675.068,422.834c-.523,0-1.014,0-1.536.029A101.625,101.625,0,0,0,600.9,594l147.81-139.561A101.326,101.326,0,0,0,675.068,422.834Z" transform="translate(-573.399 -422.834)"/></g></g></g></svg>