<svg xmlns="http://www.w3.org/2000/svg" xmlns:xlink="http://www.w3.org/1999/xlink" width="1366" height="771" viewBox="0 0 1366 771"><defs><style>.a,.ag,.n{fill:none;}.b{clip-path:url(#a);}.c{fill:#000;}.d{fill:#d2c3db;}.e{fill:#eadff1;}.f{fill:#b3b3b3;}.g{fill:#ce521f;}.h{fill:#ebebeb;}.i{fill:#8e96a3;}.j{fill:#4f3b65;}.k{fill:#d0d1d6;}.l{fill:#947dce;}.m{fill:#dfeddf;}.n{stroke:#313431;stroke-width:5.136px;}.ag,.n{stroke-miterlimit:10;}.o{fill:#728ad6;}.p{fill:#5f73b3;}.q{fill:#8fa0d6;}.r{fill:#313431;}.s{fill:#6c4e49;}.t{fill:#4f3936;}.u{fill:#f3f3f3;}.v{fill:#25aef3;}.w{fill:#fdfdfd;}.x{fill:#fcb827;}.y{fill:#fefcf9;}.z{clip-path:url(#b);}.aa{fill:#d8a35d;}.ab{fill:#62548a;}.ac{fill:#d19442;}.ad{fill:#ffc84f;}.ae{opacity:0.3;}.af{opacity:0.5;}.ag{stroke:#947dce;stroke-width:1.12px;}.ah{opacity:0.15;}.ai{fill:#ccc;}.aj{fill:#04005a;}.ak{fill:gray;}.al{fill:#78c7c7;}.am{fill:#a9dbdb;}.an{fill:#06a1b4;}.ao{fill:#009fb3;}.ap{fill:#036683;}.aq{fill:#080a0a;}.ar{fill:#006482;}.as{fill:#fcfdfd;}</style><clipPath id="a"><rect class="a" width="1366" height="771" transform="translate(5421.097 2434.85) rotate(-180)"/></clipPath><clipPath id="b"><rect class="a" width="443.721" height="567.856" transform="translate(4854.568 1866.247)"/></clipPath></defs><g transform="translate(-4055.097 -1663.85)"><g class="b"><rect class="c" width="1366" height="771" transform="translate(5421.097 2434.85) rotate(-180)"/><path class="d" d="M4055.1,1673.387V2431.85l242.228-67.586,32.991-6.263-1.636-558.092-30.118-25.56Z"/><path class="d" d="M5104.8,1789.322l16.051,556.371,300.044,74.4V1670.038l-298.844,93.571Z"/><path class="e" d="M4723.119,1752.922h424.608v617.384H4298.562V1752.922Z"/><path class="c" d="M5421.1,1724.63c-121.657,30.38-335.7,73.889-615,80.372-352.971,8.2-622.428-47.1-751-78.7V1663.85h1366Z"/><path class="c" d="M5421.1,2386.534c-121.657-29.39-335.7-71.48-615-77.753-352.971-7.927-622.428,45.568-751,76.133v47.19l1365.8,2.746Z"/></g><path class="f" d="M4386.188,2240.444h406.775l-59.124-70.949H4433.488Z"/><rect class="f" width="18.92" height="163.183" transform="translate(4778.773 2403.627) rotate(-180)"/><rect class="f" width="13.007" height="192.745" transform="translate(4735.021 2362.24) rotate(-180)"/><rect class="f" width="13.007" height="192.745" transform="translate(4447.678 2362.24) rotate(-180)"/><rect class="f" width="18.92" height="163.183" transform="translate(4418.115 2403.627) rotate(-180)"/><path class="g" d="M4658.608,2137.1h0a.519.519,0,0,0,.306-.664l-.421-1.144-.97.358.421,1.143A.519.519,0,0,0,4658.608,2137.1Z"/><path class="g" d="M4653.2,2139.091h0a.519.519,0,0,0,.307-.664l-.421-1.143c-.029-.077-.967.368-.967.368l.417,1.132A.519.519,0,0,0,4653.2,2139.091Z"/><path class="h" d="M4658.712,2136.875h0a.519.519,0,0,0,.307-.664l-.461-1.252a.519.519,0,0,0-.664-.306h0a.519.519,0,0,0-.307.664l.461,1.251A.519.519,0,0,0,4658.712,2136.875Z"/><path class="h" d="M4653.313,2138.863h0a.519.519,0,0,0,.307-.664l-.461-1.251a.519.519,0,0,0-.664-.307h0a.519.519,0,0,0-.307.664l.461,1.251A.519.519,0,0,0,4653.313,2138.863Z"/><rect class="i" width="3.392" height="2.199" transform="translate(4660.774 2150.877) rotate(159.783)"/><rect class="i" width="3.392" height="2.199" transform="translate(4659.324 2147.241) rotate(159.783)"/><path class="j" d="M4503.935,2217.438h172.274a3.829,3.829,0,0,0,4.138-3.774v-2.582l-18.857-34.844a6,6,0,0,0-5.376-3.333H4524.281c-2.46,0-7.885,4.845-8.984,7.046l-15.557,31.713v1.139C4499.7,2216.106,4501.837,2217.438,4503.935,2217.438Z"/><path class="k" d="M4503.92,2213.79h172.274c1.913,0,5.062-1.677,3.879-3.74l-18.6-37.46a6,6,0,0,0-5.376-3.333H4524.266a6.494,6.494,0,0,0-5.809,3.591l-18.41,36.84C4498.756,2212.037,4501.821,2213.79,4503.92,2213.79Z"/><rect class="k" width="141.08" height="89.147" rx="5.158" transform="translate(4520.423 2080.044)"/><rect class="j" width="130.196" height="77.247" transform="translate(4656.086 2162.154) rotate(-180)"/><path class="j" d="M4565.086,2212.17h50.762a.914.914,0,0,0,.9-1.06l-2.14-13.371a1.487,1.487,0,0,0-1.468-1.252h-45.785a1.307,1.307,0,0,0-1.293,1.118l-1.962,13.446A.991.991,0,0,0,4565.086,2212.17Z"/><path class="l" d="M4521.81,2193.729h137.923c1.53,0,2.7-.588,2.455-1.238l-5.815-15.609c-.314-.842-2-1.461-3.99-1.461h-124.4c-1.763,0-3.259.556-3.513,1.305l-5.331,15.7C4518.93,2193.115,4520.185,2193.729,4521.81,2193.729Z"/><rect class="k" width="143.831" height="0.726" transform="translate(4662.583 2178.837) rotate(-180)"/><rect class="k" width="143.831" height="0.726" transform="translate(4662.583 2182.469) rotate(-180)"/><rect class="k" width="143.831" height="0.726" transform="translate(4662.583 2186.828) rotate(-180)"/><rect class="k" width="143.831" height="0.726" transform="translate(4662.583 2190.823) rotate(-180)"/><rect class="k" width="1.09" height="23.972" transform="translate(4652.349 2195.194) rotate(162.561)"/><rect class="k" width="1.09" height="23.972" transform="translate(4641.815 2195.194) rotate(162.561)"/><rect class="k" width="1.09" height="23.972" transform="translate(4633.461 2195.194) rotate(162.561)"/><rect class="k" width="1.09" height="23.972" transform="translate(4625.108 2195.194) rotate(162.561)"/><rect class="k" width="1.09" height="23.972" transform="translate(4616.391 2195.194) rotate(162.561)"/><rect class="k" width="1.09" height="23.972" transform="translate(4604.926 2195.585) rotate(169.022)"/><rect class="k" width="1.09" height="23.972" transform="translate(4592.847 2195.908) rotate(-180)"/><rect class="k" width="1.09" height="23.972" transform="translate(4529.301 2195.521) rotate(-162.561)"/><rect class="k" width="1.09" height="23.972" transform="translate(4539.471 2195.521) rotate(-162.561)"/><rect class="k" width="1.09" height="23.972" transform="translate(4549.641 2195.521) rotate(-162.561)"/><rect class="k" width="1.09" height="23.972" transform="translate(4559.811 2195.521) rotate(-162.561)"/><rect class="k" width="1.09" height="23.972" transform="translate(4569.98 2195.52) rotate(-162.561)"/><rect class="k" width="1.09" height="23.972" transform="translate(4580.15 2195.52) rotate(-162.561)"/><path class="m" d="M4127.768,1881.925l111.571,11.759v182.674s-115.894,14.028-115.181,14.791,0-205.724,0-205.724l.949-3.78Z"/><path class="n" d="M4127.768,1881.925l111.571,11.759v182.674s-115.894,14.028-115.181,14.791,0-205.724,0-205.724l.949-3.78Z"/><line class="n" y2="189.205" transform="translate(4187.05 1891.141)"/><line class="n" x1="110.049" y2="5.538" transform="translate(4127.129 2015.457)"/><line class="n" x1="110.049" y1="3.213" transform="translate(4127.129 1949.941)"/><path class="o" d="M4150.57,1870.7s1.813.039-1.886,2.522c-3.731,2.505-1.251-3.388-1.251-3.388l-2.769.159s-.89,1.2-1.747.735a5.956,5.956,0,0,0-2.6-.312l-2,.621s-1.049-3.508-1.688-2.529c-.525.8-2.667-.371-4.305-1.047l-2.06-.221c-.873.428-1.424,1.424-2.331.387-1.233-1.409-.04,2.505-.618,1.511s-1.971.273-2.785-2.366c-.018-.057-.036-.109-.053-.157l-.549-.06c-.473,1.2-.963,5.052-2.273,5.158-1.715.139-2.317-2.507-2.77-5.719l-1.519-.173a9.086,9.086,0,0,0-.113,2.709c.355,2.761-3.1,2.312-3.1,2.312s-.1-2.917-.62-3.639a18.236,18.236,0,0,0-2.52-2.136q-1.332-.165-2.672-.335c-.142.511-.3,1.139-.54,1.783-.733,1.95-.474,2.031-2.755,1.562s-1.727,1.569-2.133-.252c-.372-1.665-.337-1.823-.835-3.925l-1.49-.21a33.51,33.51,0,0,1-1.334,3.145c-1.623,3.215-2.818.718-4.8-1.63a29.979,29.979,0,0,1-1.951-2.738l-.9-.147c-.037.057-.074.121-.113.2-.719,1.391-1.787,3.811-3.56,2.525-1.41-1.023-1.855-3.184-2.151-3.719l-.216-.038h0c-.346.641-.152,1.624-1.549,4.665s-1.4.127-2.039-3.018a9.367,9.367,0,0,0-.964-2.5l-.771-.148c.694,21.555.776,32.583,2.844,56.79,2.059,24.1,6.121,62.122,8.862,87.9.546,5.14.732,1.86.531,6.36-.013.29-.019.507-.02.665-.046.323-.1.674-.15,1.065-1.4,10.013-4.482,32.829-5.021,45.313-.107,2.626-.71,2.912-1.017,11.764-.391,11.283-.147,36.022-.7,45.612s-4.281,19.626.955,20.275c2.487.309,16.1-5.779,21.87-6.252,2.825-.232,5.757,2.874,11.035.544,7.509-3.315,6.309-5.49,9.167-6.323.281-.081.3-.168.3-.2a.782.782,0,0,0,.206.2c-1.1-8.009,1.152-7.094-.536-16.68-1.693-9.622-6.814-23.175-7.64-34.793-.487-6.846-.855-15.079-1.054-20.914-.167-4.873-.667-5.023-1.124-8.911-.113-.965-.3-1.728-.458-2.646-.76-4.293-1.661-8.639-2.486-12.841-.2-1.005-.406-2.078-.556-2.876-.3-1.6-.7-3.52-.91-4.849a35.274,35.274,0,0,1-.4-7.733c.019-.405.056-.591.086-.939s.076-.661.116-.982c.019-.157.047-.321.065-.442.035-.237.1-.614.133-.794a18.907,18.907,0,0,1,.464-1.907c.16-.513.171-.515.324-.919.57-.553,1.133-1.212,1.686-1.794.217-.23.444-.532.7-.825,9.234-10.578,15.159-26.367,19.292-39.786,9.428-30.609,13.742-61.837,16.009-93.585l-.365-.045Z"/><path class="p" d="M4135.342,1962.816c-.192,3.67-.165,4.177-1.169,7.216-3.26,9.872-10.991,20.277-16.431,28.969-.2.318-.479.718-.634.967-1.3,2.083-2.751,4.545-3.839,6.542a5.851,5.851,0,0,0-.664,1.508,12.432,12.432,0,0,0-.394,2.854c-.034.4-.042.8-.044,1.306-.014,2.436.207,4.995.249,7.465v.02c.021,1.87.294,4.1.437,5.849.167,2.052.291,3.666.307,5.642,0,.018,0,.033,0,.046-.015.452,0,.776-.043,1.25-.24,2.782-.571,5.711-.881,8.481-.068.612-.173,1.545-.222,1.966-.233,2.022-.432,3.7-.664,5.622-.078-1.793-.208-3.812-.279-5.471s-.042.057-.12-2.352-.619-8.589-.587-11.827.4-5.132.646-8.764c.147-2.161.616-6.538.878-9.28.12-1.25.281-2.873.462-4.272.3-2.354.385-3.515.735-6.162,1.765-13.355,3.236-27.4,6.516-40.363.014-.057.02-.082.035-.144.2-.836.258-.99.462-1.934,3.575-16.53,4.429-33.783,7.311-50.354,2.256-12.969,2.993-26.567,4.1-39.775.905.319,1.828-.337,2.719.623-.034,17.493.164,41.946.018,57.958C4134.1,1942.071,4136.051,1949.25,4135.342,1962.816Z"/><path class="q" d="M4114.051,2040.814a9.361,9.361,0,0,1-.013,1.773c-1.968,11.038,1.955-2.352-1.877,14.052-3.865,16.543-3.158,53.773-3.186,69.472.129,8.533-.188-6.213-.091,3.455-7.058.84-14.284,3.879-21.477,6.454.384-17.122.9-32.274.964-50.272s2.553-39.3,5.417-57.792c.829-5.356.038-11.442-.052-16.758-.019-1.1-.222-4.319-.326-5.859-1.115-16.6-3.279-42.857-4.353-57.514-1.658-22.647-8.055-51.134-4.225-68.775,2.036-9.38,1.7-8.679,2.055-17.645,1.452,1.029,3.082.574,4.593,1.111.511,2.565.918,6.815,1.978,8.989,2.145,4.4,3.019,1.467,3.569-1.663.235-1.342.457-4.705.6-6.379,2.772.349,5.524.826,8.262,1.209.629,5.522,1.476,11.055,1.793,16.563,0,.006-.011.022-.01.03.45,12.565.713,25.695-.051,37.891-.765,12.216,1.978,18.3,2.353,31.872s-.769,37.288-3.976,51.571a19.017,19.017,0,0,0-.418,3.611,12.007,12.007,0,0,0,.747,4.582,1.106,1.106,0,0,0,.07.164c1.613,3.369,3.9,6.029,5.575,9.376a12.7,12.7,0,0,1,.522,1.247,22.683,22.683,0,0,1,1.011,3.452,34.839,34.839,0,0,1,.629,5.862c0,.056.007.158,0,.2s0,.039,0,.051C4114.059,2034.465,4114.25,2037.391,4114.051,2040.814Z"/><path class="p" d="M4108.513,1864.942c3.06,1.137,6.373.155,9.234,2.2-.591,16.939-2.363,46.974-4.209,61.246-2.167,16.758-2.716,22.255-3.562,34.659-.848,12.427-.334,21.073-2.213,32.5-.734,4.468-1.058,6.759-1.73,10.652-.385,2.231-.411,2.682-.7,4.63-.012.08-.011.11-.018.16a49.178,49.178,0,0,0-.4,6.728c.085,5.656.1,16.081.114,20.288s-.164,1.907-.2,3.637a13.856,13.856,0,0,1-.082,1.419c-.051,1.231-.175,2.685-.23,4-2.15-.345-4.308-.809-6.487-1.006.045-1.858.032-.8.1-3.062s-.112,4.319.057-1.481,1.263-23.018,1.867-29.429.087-1.331.48-6.108-.516,6.842.241-2.674c.757-9.5,2.947-31.127,3.5-42.649s-.579-20.847-.282-31.087.85-23.217,1.2-31.738,1.111-10.784,1.485-16.32.865-9.55,1.172-12.926S4108.24,1867.4,4108.513,1864.942Z"/><path class="r" d="M4091.243,2005.707c8.25.471,16.373.693,24.347.965-.452,1.365-.841,2.757-1.247,4.144-7.274.121-14.7.57-22.2.41Q4091.7,2008.467,4091.243,2005.707Z"/><path class="r" d="M4119.975,2017.411c-.651-2.423-2.288-3.992-3.609-5.782a8.13,8.13,0,0,0-1.8-1.565,1.985,1.985,0,0,0-.237-.129,1.237,1.237,0,0,0-.2-.1,2.01,2.01,0,0,0-1.419-.11c-.123.495-.15.569-.281,1.175-.069.317-.164.695-.277,1.309a34.246,34.246,0,0,0-.64,9.361,10.018,10.018,0,0,0,1,3.434,3.565,3.565,0,0,0,.346.547,4.114,4.114,0,0,0,.726.794c.636.467,1.451,1.027,2.188.793C4119.157,2026.065,4120.958,2021.067,4119.975,2017.411Zm-4.749,6.853a1.157,1.157,0,0,1-.964-.154c-1.42-.775-1.781-2.638-1.846-4.45v-.016c.053-2.763.271-5.463.574-8.241.5.046.424-.18,1.006.422a20.541,20.541,0,0,1,3.728,4.278C4119.2,2018.675,4118.432,2023.513,4115.226,2024.264Z"/><path class="r" d="M4119.718,2009.133c-1.037-.7-3.377-.63-4.693-.573-.256.012-.5.019-.682.032s-.194.009-.343.026c.063.232.137.554.19.766s.09.365.135.544.087.353.126.507.054.237.095.378c.563.263,1.282.539,1.788.791s-.032-.094.677.324,3.222,2.141,3.965,2.626,2.62,1.27,2.5-.356S4121.2,2010.132,4119.718,2009.133Zm2.044,4.813c-1.755-.648-4.9-3.293-6.747-4.444,1.4-.845,4.416.252,5.139.891S4123.509,2014.591,4121.762,2013.946Z"/><path class="r" d="M4275.365,1880.855c-.007.151-.019.293-.036.426a2.783,2.783,0,0,0-2.521-2.722l-196.36-25.592s-2.892-.837-3.33,2.091c-.026-.275-.038-.565-.038-.877.014-3.838,3.386-2.856,3.386-2.856l196.354,25.933S4275.527,1877.372,4275.365,1880.855Z"/><path class="s" d="M4275.329,1881.281c-.351,2.985-2.792,2.19-2.792,2.19l-196.071-24.257c-1.287-.265-3.076-1.049-3.348-4.153v0c.438-2.928,3.33-2.091,3.33-2.091l196.36,25.592A2.783,2.783,0,0,1,4275.329,1881.281Z"/><path class="r" d="M4086.157,1852.7a1.436,1.436,0,0,1,1.2-.606c1.077.138,1.772,2.052,1.953,2.548,1.035,2.851.364,6.524-1.182,6.742-.334.048-1.007.124-2.048-.948-.7-.025-1.316-.156-2.013-.181a3.965,3.965,0,0,0,1.5,2.027,3.513,3.513,0,0,0,3.992-.031c.91-.678,1.082-1.7,1.318-3.089a8.149,8.149,0,0,0-.5-5.08c-.356-.76-1.241-2.66-2.768-2.974-1.588-.326-2.683.925-2.563,1.386C4085.113,1852.747,4085.653,1852.616,4086.157,1852.7Z"/><path class="r" d="M4100.39,1854.583a1.386,1.386,0,0,1,1.165-.6c1.045.133,1.719,2.017,1.894,2.505,1,2.806.354,6.424-1.146,6.643-.324.047-.977.124-1.986-.93-.674-.024-1.276-.152-1.952-.175a3.9,3.9,0,0,0,1.456,1.994,3.364,3.364,0,0,0,3.871-.038c.883-.67,1.05-1.674,1.279-3.046a8.136,8.136,0,0,0-.487-5c-.346-.748-1.2-2.617-2.685-2.923-1.54-.318-2.6.916-2.485,1.369C4099.377,1854.626,4099.9,1854.5,4100.39,1854.583Z"/><path class="r" d="M4114.195,1856.405a1.343,1.343,0,0,1,1.13-.593c1.015.13,1.669,1.984,1.838,2.464.975,2.763.344,6.328-1.112,6.546-.314.047-.947.124-1.927-.913-.653-.022-1.238-.146-1.893-.169a3.833,3.833,0,0,0,1.412,1.962,3.226,3.226,0,0,0,3.757-.044c.856-.662,1.018-1.651,1.24-3a8.118,8.118,0,0,0-.472-4.925c-.336-.737-1.168-2.576-2.6-2.875-1.494-.31-2.525.908-2.411,1.354C4113.213,1856.449,4113.721,1856.32,4114.195,1856.405Z"/><path class="r" d="M4127.592,1858.173a1.3,1.3,0,0,1,1.1-.586c.985.126,1.62,1.951,1.785,2.424.946,2.72.333,6.234-1.08,6.451-.305.047-.92.124-1.87-.9-.635-.02-1.2-.142-1.838-.163a3.749,3.749,0,0,0,1.371,1.93,3.093,3.093,0,0,0,3.646-.05c.831-.653.989-1.628,1.2-2.96a8.114,8.114,0,0,0-.458-4.853c-.326-.725-1.134-2.535-2.529-2.827-1.45-.3-2.451.9-2.34,1.339C4126.639,1858.219,4127.132,1858.09,4127.592,1858.173Z"/><path class="r" d="M4145.01,1860.471a1.247,1.247,0,0,1,1.054-.577c.947.121,1.557,1.909,1.716,2.372.909,2.665.32,6.112-1.038,6.328-.294.047-.884.124-1.8-.873-.61-.019-1.156-.137-1.767-.156a3.676,3.676,0,0,0,1.318,1.889,2.928,2.928,0,0,0,3.5-.057c.8-.643.951-1.6,1.158-2.906a8.089,8.089,0,0,0-.441-4.757c-.313-.71-1.089-2.484-2.431-2.766-1.394-.293-2.356.888-2.25,1.319C4144.093,1860.519,4144.567,1860.391,4145.01,1860.471Z"/><path class="t" d="M4150.752,1861.229a1.232,1.232,0,0,1,1.04-.575c.935.12,1.537,1.9,1.693,2.356.9,2.646.317,6.072-1.024,6.288-.289.046-.873.123-1.775-.867-.6-.018-1.14-.135-1.744-.153a3.666,3.666,0,0,0,1.3,1.876,2.877,2.877,0,0,0,3.46-.06c.789-.64.939-1.59,1.143-2.888a8.1,8.1,0,0,0-.435-4.726c-.309-.7-1.076-2.466-2.4-2.745-1.376-.29-2.325.884-2.22,1.311C4149.847,1861.277,4150.315,1861.15,4150.752,1861.229Z"/><path class="o" d="M4220.673,1879.186s-1.538-.353,1.588,2.711c3.1,3.04,1.046-2.836,1.046-2.836l2.294.728s.733,1.278,1.434,1.031a4.423,4.423,0,0,1,2.116.253l1.613.964s.839-2.921,1.348-1.916c.418.825,2.11.216,3.394-.05l1.6.223c.674.553,1.1,1.537,1.8.809.943-.986.03,2.2.473,1.443s1.5.624,2.118-1.513c.014-.046.027-.088.04-.126l.414.056c.357,1.131.725,4.569,1.706,4.907,1.277.438,1.723-1.725,2.057-4.4l1.119.146a9.276,9.276,0,0,1,.082,2.343c-.26,2.3,2.261,2.551,2.261,2.551a10.235,10.235,0,0,1,.449-2.981,9.451,9.451,0,0,1,1.81-1.333q.952.115,1.9.224c.1.457.21,1.014.381,1.6.518,1.772.335,1.793,1.934,1.813s1.2,1.618,1.484.175c.256-1.317.233-1.456.576-3.11.342.035.684.068,1.025.1.228.774.516,1.791.912,2.844,1.1,2.936,1.912,1.09,3.246-.483a17.17,17.17,0,0,0,1.3-1.885l.6.042c.024.053.049.112.075.18.475,1.259,1.178,3.41,2.339,2.676.917-.58,1.206-2.241,1.4-2.619l.139.008h0a32.017,32.017,0,0,0,1,4.014c.9,2.676.9.339,1.3-2.065a6.9,6.9,0,0,1,.614-1.825l.489.017c-.44,17.058-.492,25.836-1.812,44.945-1.323,19.176-3.966,49.745-5.773,70.749-.363,4.214-.486,1.55-.352,5.208.008.235.012.412.013.54.031.261.064.544.1.859.925,8.054,2.948,26.252,3.3,36.265.069,2.1.461,2.255.66,9.342.254,9.021.1,28.975.451,36.576s2.745,14.731-.619,16.541c-1.622.872-10.785-.665-14.82.43s-10.556.331-14.9.43c-.216,0-.231-.066-.228-.091a1.071,1.071,0,0,1-.159.233c.847-7.315-.889-5.927.413-14.772,1.3-8.816,5.165-21.661,5.781-31.847.363-5.986.635-13.137.783-18.191.124-4.217.494-4.409.832-7.806.083-.842.218-1.519.338-2.325.558-3.765,1.219-7.577,1.822-11.245.144-.876.3-1.81.4-2.5.219-1.391.507-3.057.661-4.2a35.7,35.7,0,0,0,.291-6.608c-.013-.344-.04-.5-.062-.794s-.055-.558-.084-.829c-.014-.133-.034-.271-.047-.372-.025-.2-.074-.517-.1-.669-.075-.5-.241-1.243-.337-1.6-.116-.429-.124-.43-.235-.767-.415-.442-.827-.977-1.23-1.447-.16-.186-.326-.434-.514-.672-6.912-8.79-11.489-22.574-14.751-34.542-7.662-28.108-11.273-57.192-13.2-86.87l.311.037Z"/><path class="p" d="M4233.128,1964.276a19.831,19.831,0,0,0,.923,6.431c2.549,8.737,8.456,17.7,12.5,25.017.146.264.352.595.465.8.948,1.724,2,3.755,2.793,5.4a5.132,5.132,0,0,1,.478,1.243,11.954,11.954,0,0,1,.283,2.4c.025.334.03.672.032,1.105.01,2.063-.149,4.248-.179,6.346v.014c-.015,1.59-.212,3.5-.315,5-.12,1.757-.21,3.139-.221,4.819,0,.015,0,.028,0,.039.011.382,0,.658.031,1.057.174,2.338.412,4.789.635,7.1.049.511.124,1.29.159,1.641.167,1.686.31,3.082.476,4.681.056-1.527.149-3.25.2-4.662s.03.043.086-2,.442-7.321.419-10.053-.284-4.3-.461-7.352c-.106-1.817-.442-5.49-.63-7.8-.085-1.052-.2-2.419-.331-3.595-.219-1.981-.277-2.962-.529-5.194-1.278-11.307-2.35-23.282-4.763-34.459-.01-.049-.014-.071-.026-.125-.15-.725-.191-.86-.342-1.68-2.673-14.463-3.318-29.517-5.51-44.285-1.734-11.683-2.3-23.764-3.165-35.614-.707.1-1.429-.67-2.13,0,.027,15.529-.129,37.2-.014,51.432C4234.1,1945.9,4232.566,1952.171,4233.128,1964.276Z"/><path class="q" d="M4249.243,2031.153a9.2,9.2,0,0,0,.01,1.508c1.419,9.127-1.421-1.783,1.353,11.694,2.755,13.38,2.255,44.852,2.274,58.067s.134-5.279.065,2.886c4.934-1.121,9.843-.452,14.593-.168-.25-13.732-.589-25.864-.629-40.4s-1.677-31.493-3.578-46.279c-.555-4.315-.026-9.347.035-13.7.012-.9.148-3.538.217-4.8.742-13.577,2.172-34.921,2.877-46.765,1.084-18.2,5.2-40.407,2.747-55.039-1.318-7.868-1.1-7.247-1.33-14.535-.946.572-2.015-.088-3.012.076-.338,2-.609,5.387-1.314,6.982-1.436,3.249-2.025.7-2.4-1.969-.159-1.144-.31-3.951-.4-5.354-1.889-.221-3.785-.334-5.693-.525-.441,4.509-1.036,9-1.26,13.575a.139.139,0,0,1,.007.027c-.317,10.491-.5,21.5.036,31.83s-1.4,15.239-1.667,26.668.546,31.45,2.808,43.34a18.586,18.586,0,0,1,.293,3,12.2,12.2,0,0,1-.524,3.876,1.1,1.1,0,0,1-.049.142c-1.135,2.927-2.762,5.323-3.957,8.276-.12.3-.25.679-.375,1.1a23.721,23.721,0,0,0-.729,3.014,35.81,35.81,0,0,0-.455,5.042c0,.048,0,.135,0,.168a.369.369,0,0,1,0,.044C4249.237,2025.752,4249.1,2028.262,4249.243,2031.153Z"/><path class="p" d="M4253.208,1882.563c-2.18.382-4.57-1.086-6.661.112.434,14.618,1.728,40.53,3.067,52.86,1.559,14.359,1.951,19.036,2.555,29.54.6,10.487.238,17.778,1.569,27.351.518,3.723.745,5.631,1.217,8.861.269,1.846.287,2.222.491,3.834.009.067.008.092.013.133a48.461,48.461,0,0,1,.279,5.6c-.06,4.731-.07,13.442-.08,16.958a17.322,17.322,0,0,0,.139,3.017c.024,1.441.02.153.056,1.176s.122,2.221.161,3.316c1.491-.541,2.976-1.177,4.461-1.59-.03-1.526-.022-.654-.064-2.512s.075,3.546-.039-1.215-.86-18.883-1.273-24.144-.06-1.1-.329-5.03.354,5.634-.165-2.2-2.034-25.805-2.42-35.421.4-17.356.2-25.912-.592-19.456-.835-26.618-.778-9.179-1.04-13.876-.609-8.157-.826-11.047S4253.4,1884.679,4253.208,1882.563Z"/><path class="r" d="M4265.022,2000.157c-5.543.785-11.181,1.379-16.9,2.028.33,1.139.612,2.3.907,3.461,5.195-.332,10.345-.392,15.4-.951C4264.625,2003.181,4264.82,2001.668,4265.022,2000.157Z"/><path class="r" d="M4247.994,2019.673c.536.134,1.127-.415,1.588-.869a3.933,3.933,0,0,0,.523-.737,3.633,3.633,0,0,0,.25-.494,10.409,10.409,0,0,0,.716-2.991,33.538,33.538,0,0,0-.459-7.884c-.082-.513-.149-.828-.2-1.093-.1-.506-.114-.567-.2-.98a1.293,1.293,0,0,0-1.024.177.881.881,0,0,0-.144.093,1.436,1.436,0,0,0-.172.125,7.118,7.118,0,0,0-1.311,1.444c-.968,1.617-2.175,3.075-2.658,5.207C4244.171,2014.9,4245.508,2019.052,4247.994,2019.673Zm-1.43-9.289a19.334,19.334,0,0,1,2.719-3.9c.42-.547.362-.35.727-.42.218,2.338.375,4.615.413,6.953v.014c-.047,1.542-.307,3.151-1.333,3.928a.789.789,0,0,1-.7.212C4246.043,2016.8,4245.479,2012.7,4246.564,2010.384Z"/><path class="r" d="M4242.289,2009.143c-.094,1.42,1.315.606,1.868.137s2.411-2.118,2.93-2.52.125-.072.5-.319.894-.527,1.3-.786c.029-.122.041-.194.069-.327s.058-.285.091-.439.059-.287.1-.471.093-.462.138-.662c-.108-.007-.118,0-.249,0s-.308.006-.495.011c-.958.027-2.677.1-3.444.762C4243.989,2005.477,4242.383,2007.723,4242.289,2009.143Zm2.48-3.506c.536-.594,2.755-1.711,3.775-1.071-1.345,1.094-3.666,3.565-4.973,4.242S4244.232,2006.232,4244.769,2005.637Z"/><path class="t" d="M4268.35,1876.747c-.159-.279-.435-.672-.78-.719-.7-.1-1.158,1.317-1.277,1.684-.68,2.116-.239,5.218.774,5.674.218.1.656.28,1.332-.4.449.1.85.111,1.3.215a2.29,2.29,0,0,1-.968,1.361,2.137,2.137,0,0,1-2.6-.734,5,5,0,0,1-.868-2.748,7.587,7.587,0,0,1,.331-4.03c.234-.548.815-1.915,1.813-1.87a1.94,1.94,0,0,1,1.662,1.611C4269.025,1876.981,4268.676,1876.772,4268.35,1876.747Z"/><path class="t" d="M4258.866,1875.5c-.163-.283-.447-.682-.8-.731-.721-.1-1.187,1.332-1.308,1.7-.7,2.141-.246,5.284.793,5.747.223.1.673.285,1.365-.4.461.107.873.113,1.333.22a2.323,2.323,0,0,1-.993,1.377,2.211,2.211,0,0,1-2.667-.748,5.034,5.034,0,0,1-.89-2.784,7.59,7.59,0,0,1,.339-4.08c.241-.555.836-1.938,1.86-1.891a1.979,1.979,0,0,1,1.7,1.634C4259.558,1875.733,4259.2,1875.521,4258.866,1875.5Z"/><path class="r" d="M4249.139,1874.212c-.167-.286-.459-.691-.821-.741-.74-.1-1.218,1.347-1.343,1.723-.716,2.168-.251,5.351.814,5.822.229.1.69.29,1.4-.4.473.109.894.116,1.366.225a2.338,2.338,0,0,1-1.018,1.393,2.289,2.289,0,0,1-2.736-.762,5.066,5.066,0,0,1-.913-2.82,7.607,7.607,0,0,1,.348-4.133c.247-.561.858-1.961,1.908-1.911a2.021,2.021,0,0,1,1.748,1.658C4249.849,1874.454,4249.482,1874.239,4249.139,1874.212Z"/><path class="r" d="M4239.16,1872.9c-.171-.29-.47-.7-.842-.752-.759-.1-1.25,1.362-1.377,1.743-.735,2.2-.259,5.421.834,5.9.236.1.709.295,1.438-.406.485.111.918.12,1.4.23a2.092,2.092,0,0,1-3.852.633,5.093,5.093,0,0,1-.937-2.858,7.608,7.608,0,0,1,.357-4.185c.253-.569.88-1.986,1.958-1.934a2.065,2.065,0,0,1,1.793,1.683C4239.889,1873.142,4239.512,1872.923,4239.16,1872.9Z"/><path class="r" d="M4225.317,1871.069c-.178-.3-.487-.714-.872-.768-.787-.108-1.295,1.383-1.427,1.771-.761,2.232-.268,5.516.864,6.005.244.106.734.3,1.489-.409.5.113.951.123,1.452.236a2.4,2.4,0,0,1-1.082,1.433,2.485,2.485,0,0,1-2.908-.8,5.139,5.139,0,0,1-.97-2.911,7.616,7.616,0,0,1,.37-4.259c.262-.578.912-2.019,2.028-1.963a2.127,2.127,0,0,1,1.857,1.717C4226.071,1871.321,4225.681,1871.1,4225.317,1871.069Z"/><path class="r" d="M4220.52,1870.435c-.18-.3-.493-.718-.883-.772-.8-.11-1.311,1.39-1.444,1.78-.771,2.245-.271,5.549.875,6.042.246.107.742.3,1.507-.411.508.115.962.125,1.469.24a2.415,2.415,0,0,1-1.095,1.44,2.525,2.525,0,0,1-2.943-.8,5.156,5.156,0,0,1-.982-2.93,7.612,7.612,0,0,1,.374-4.285c.266-.581.923-2.03,2.053-1.973a2.148,2.148,0,0,1,1.88,1.729C4221.283,1870.69,4220.889,1870.465,4220.52,1870.435Z"/><rect class="u" width="130.488" height="78.355" transform="translate(4656.378 2162.688) rotate(-180)"/><rect class="v" width="130.488" height="10.763" transform="translate(4656.378 2095.095) rotate(-180)"/><path class="w" d="M4651.283,2091.491a1.608,1.608,0,0,1-2.388,1.074.549.549,0,0,0-.564-.021,2.319,2.319,0,0,1-1.931.121,4.508,4.508,0,0,0-.839-.213.842.842,0,0,0-.448.044,1.842,1.842,0,0,1-2.006-.368c-.082-.073-.147-.134-.269-.1-.1.03-.2,0-.293.083a1.376,1.376,0,0,1-.865.366,7.15,7.15,0,0,1-1.5-.055.231.231,0,0,0-.132.014,2.754,2.754,0,0,1-1.651.089.682.682,0,0,0-.526.052,1.53,1.53,0,0,1-1.3.218,3.417,3.417,0,0,0-.618-.1,1.583,1.583,0,0,1-1.251-2.335,1.428,1.428,0,0,0,.188-.809.392.392,0,0,1,0-.068.377.377,0,0,0-.084-.276,1.6,1.6,0,0,1,1.094-2.51,7.552,7.552,0,0,1,1.092,0,1.167,1.167,0,0,1,.578.144.937.937,0,0,0,.522.109,1.523,1.523,0,0,1,.88.25.142.142,0,0,0,.191,0,1.477,1.477,0,0,1,.976-.291c.614.041,1.229.036,1.844.058a.262.262,0,0,0,.187-.061,1.632,1.632,0,0,1,.743-.322,2.922,2.922,0,0,1,.8.042,1.92,1.92,0,0,1,1.124.405.117.117,0,0,0,.1.024,5.481,5.481,0,0,1,1.241,0,1.781,1.781,0,0,1,.989.348c.069.056.1.023.139-.028a1.589,1.589,0,0,1,1.886-.467.544.544,0,0,0,.159.035,1.813,1.813,0,0,1,1.5.941,2.889,2.889,0,0,1,.322,1.518.335.335,0,0,0,0,.121,3.314,3.314,0,0,1,.143,1.1A4.28,4.28,0,0,1,4651.283,2091.491Zm-.886-1.368a.473.473,0,0,0-.084-.3.38.38,0,0,1-.053-.33,2.028,2.028,0,0,0-.126-1.033.966.966,0,0,0-1.021-.618.237.237,0,0,1-.164-.043.672.672,0,0,0-.725-.038.687.687,0,0,0-.374.638c0,.247,0,.21-.245.214a1.687,1.687,0,0,1-.72-.218.218.218,0,0,1-.095-.093.678.678,0,0,0-.5-.322,3.494,3.494,0,0,0-1.714.084c-.063.024-.086.005-.109-.053a.71.71,0,0,0-.637-.462c-.167-.018-.334-.043-.5-.069a.72.72,0,0,0-.832.42c-.035.069-.057.1-.136.049a.649.649,0,0,0-.353-.087c-.638-.015-1.276-.015-1.913-.057a.689.689,0,0,0-.681.474.217.217,0,0,1-.32.095.785.785,0,0,0-.334-.177c-.049-.01-.073-.05-.1-.085a.7.7,0,0,0-.562-.262c-.091,0-.182,0-.273,0a.66.66,0,0,1-.552-.151.527.527,0,0,0-.373-.108c-.265-.006-.529-.014-.793-.012a.706.706,0,0,0-.67.492.691.691,0,0,0,.266.785.185.185,0,0,1,.088.179q-.007.649,0,1.3a.216.216,0,0,1-.1.2.666.666,0,0,0-.269.723.676.676,0,0,0,.587.534,6.278,6.278,0,0,1,.846.144.592.592,0,0,0,.636-.22.246.246,0,0,1,.209-.094,2.092,2.092,0,0,0,.691-.054c.048-.018.086.016.129.031a1.508,1.508,0,0,0,1.489-.176c.052-.039.082-.049.136,0a.675.675,0,0,0,.443.154c.291,0,.583.013.874.016a.7.7,0,0,0,.721-.476c.03-.074.055-.072.117-.043a.691.691,0,0,0,.747-.074.367.367,0,0,1,.426.116,1.006,1.006,0,0,0,1.574.4.145.145,0,0,1,.133-.031,5.619,5.619,0,0,0,.877.127.99.99,0,0,1,.511.156,1.477,1.477,0,0,0,1.676-.268.1.1,0,0,1,.147-.03,1.248,1.248,0,0,0,.685.149.173.173,0,0,1,.142.062.67.67,0,0,0,.768.151.678.678,0,0,0,.433-.654c0-.169,0-.337,0-.506h-.019C4650.4,2090.487,4650.4,2090.3,4650.4,2090.123Z"/><path class="x" d="M4650.417,2090.669c0,.169,0,.337,0,.506a.678.678,0,0,1-.433.654.67.67,0,0,1-.768-.151.173.173,0,0,0-.142-.062,1.248,1.248,0,0,1-.685-.149.1.1,0,0,0-.147.03,1.477,1.477,0,0,1-1.676.268.99.99,0,0,0-.511-.156,5.619,5.619,0,0,1-.877-.127.145.145,0,0,0-.133.031,1.006,1.006,0,0,1-1.574-.4.367.367,0,0,0-.426-.116.691.691,0,0,1-.747.074c-.062-.029-.087-.031-.117.043a.7.7,0,0,1-.721.476c-.291,0-.583-.013-.874-.016a.675.675,0,0,1-.443-.154c-.054-.046-.084-.036-.136,0a1.508,1.508,0,0,1-1.489.176c-.043-.015-.081-.049-.129-.031a2.092,2.092,0,0,1-.691.054.246.246,0,0,0-.209.094.592.592,0,0,1-.636.22,6.278,6.278,0,0,0-.846-.144.676.676,0,0,1-.587-.534.666.666,0,0,1,.269-.723.216.216,0,0,0,.1-.2q0-.649,0-1.3a.185.185,0,0,0-.088-.179.691.691,0,0,1-.266-.785.706.706,0,0,1,.67-.492c.264,0,.528.006.793.012a.527.527,0,0,1,.373.108.66.66,0,0,0,.552.151c.091,0,.182,0,.273,0a.7.7,0,0,1,.562.262c.029.035.053.075.1.085a.785.785,0,0,1,.334.177.217.217,0,0,0,.32-.095.689.689,0,0,1,.681-.474c.637.042,1.275.042,1.913.057a.649.649,0,0,1,.353.087c.079.052.1.02.136-.049a.72.72,0,0,1,.832-.42c.167.026.334.051.5.069a.71.71,0,0,1,.637.462c.023.058.046.077.109.053a3.494,3.494,0,0,1,1.714-.084.678.678,0,0,1,.5.322.218.218,0,0,0,.095.093,1.687,1.687,0,0,0,.72.218c.244,0,.242.033.245-.214a.687.687,0,0,1,.374-.638.672.672,0,0,1,.725.038.237.237,0,0,0,.164.043.966.966,0,0,1,1.021.618,2.028,2.028,0,0,1,.126,1.033.38.38,0,0,0,.053.33.473.473,0,0,1,.084.3c0,.182,0,.364,0,.546Zm-12.557-1.825c0-.1.022-.146.128-.133a.561.561,0,0,0,.137,0,.144.144,0,0,0,.141-.155.137.137,0,0,0-.133-.148c-.282-.007-.565-.007-.847,0a.137.137,0,0,0-.133.16.142.142,0,0,0,.138.143l.027,0c.23.021.23.021.23.25,0,.2,0,.392,0,.588,0,.089-.024.123-.117.1-.229-.042-.458-.08-.687-.116-.075-.012-.108-.038-.106-.122.009-.287.01-.574.01-.861,0-.075.021-.11.1-.1a.806.806,0,0,0,.178,0,.141.141,0,0,0,.131-.15.135.135,0,0,0-.129-.15c-.278-.011-.556-.018-.833-.019a.141.141,0,0,0-.145.152.149.149,0,0,0,.142.156c.075.013.177-.028.221.028s.019.175.019.265c0,.7-.006,1.4,0,2.1,0,.1-.024.146-.131.115a.28.28,0,0,0-.081-.006c-.093,0-.16.044-.169.143a.145.145,0,0,0,.142.167c.136.018.272.026.408.042a1.669,1.669,0,0,1,.411.1.127.127,0,0,0,.176-.056.151.151,0,0,0-.038-.2.6.6,0,0,0-.318-.113c-.074-.011-.1-.04-.1-.115,0-.323.007-.647,0-.97,0-.094.041-.106.117-.092.229.04.458.079.687.114.085.013.112.052.11.136-.005.186-.005.373,0,.56,0,.092-.033.122-.12.115a.8.8,0,0,0-.164,0,.141.141,0,0,0-.133.148.137.137,0,0,0,.141.153c.283,0,.565,0,.848-.009a.144.144,0,0,0,.149-.161c0-.093-.064-.133-.149-.149s-.2.054-.251-.036a.633.633,0,0,1-.011-.27c0-.241,0-.483,0-.724h0C4637.862,2089.436,4637.866,2089.14,4637.86,2088.844Zm7.065-.315c-.465.123-.595.446-.3.824a.34.34,0,0,1,.061.444,1.411,1.411,0,0,0-.092.575c-.008.118-.02.236-.038.352a.163.163,0,0,1-.147.156c-.089.007-.129-.054-.161-.124l0-.012c-.075-.171-.138-.216-.239-.168s-.112.138-.044.3a.46.46,0,0,0,.489.314.466.466,0,0,0,.415-.408c.053-.246.031-.5.078-.746a1.218,1.218,0,0,1,.039-.159.2.2,0,0,1,.286-.151c.353.085.353.085.348.446,0,.137-.008.273,0,.41,0,.082-.031.1-.106.089a.6.6,0,0,0-.135-.017.144.144,0,0,0-.151.13.132.132,0,0,0,.1.167c.264.046.53.087.8.118a.133.133,0,0,0,.143-.136.15.15,0,0,0-.126-.169c-.065-.019-.155.008-.193-.048s-.015-.159-.016-.24c0-.178,0-.355,0-.533,0-.069.01-.109.093-.113a.133.133,0,0,0,.133-.145.139.139,0,0,0-.137-.156c-.075-.005-.088-.037-.087-.1,0-.173.007-.346,0-.519,0-.1.04-.107.115-.093a.99.99,0,0,0,.121.019.148.148,0,0,0,.177-.13.141.141,0,0,0-.129-.176,4.589,4.589,0,0,0-.736-.057A2.328,2.328,0,0,0,4644.925,2088.529Zm4.636,2.626c0,.1.034.173.144.176s.161-.068.164-.174c.01-.332,0-.665-.019-1a.144.144,0,0,0-.152-.157.146.146,0,0,0-.155.169.546.546,0,0,1-.305.523.5.5,0,0,1-.625-.131.3.3,0,0,1,.091-.467,1.241,1.241,0,0,1,.44-.138.6.6,0,0,0,.586-.7,2.024,2.024,0,0,0-.061-.472.478.478,0,0,0-.792-.288c-.047.033-.091.071-.165.129,0-.091,0-.156,0-.221,0-.1-.043-.182-.161-.178s-.155.084-.151.187c.012.305.027.61.04.914,0,.1.045.16.146.163s.156-.061.163-.161a.763.763,0,0,1,.279-.557c.166-.139.305-.1.345.111a1.629,1.629,0,0,1,.039.5.254.254,0,0,1-.232.245,2.51,2.51,0,0,0-.438.1.639.639,0,0,0-.5.75.779.779,0,0,0,.833.578,1.617,1.617,0,0,0,.486-.163C4649.561,2091,4649.562,2091.075,4649.561,2091.155Zm-5.418-.731c.1-.005.169-.057.167-.159s-.072-.152-.175-.149-.228.005-.341.012c-.066,0-.095-.016-.109-.086q-.155-.791-.317-1.579c-.017-.082.009-.107.09-.093.1.017.207.028.311.042s.176-.021.192-.126-.051-.168-.154-.184c-.2-.029-.4-.053-.6-.083-.137-.02-.2.058-.242.169q-.341.834-.686,1.666c-.087.211-.051.183-.241.1l-.076-.033a.155.155,0,1,0-.121.284c.088.037.178.069.265.109a1.226,1.226,0,0,1,.383.232.144.144,0,0,0,.219.008.15.15,0,0,0,0-.23c-.021-.023-.049-.041-.07-.064-.041-.044-.145-.046-.127-.121a1.85,1.85,0,0,1,.134-.327c.012-.026.049-.01.076,0,.184.031.367.067.552.09.084.01.09.06.094.121s.053.111-.042.142a.135.135,0,0,0-.084.178.148.148,0,0,0,.164.115h.355v-.013C4643.888,2090.436,4644.015,2090.429,4644.143,2090.424Zm-3.254.161c0,.118-.037.154-.147.139a.9.9,0,0,0-.164,0,.14.14,0,0,0-.147.147.134.134,0,0,0,.136.155c.314.01.629.017.943.019a.144.144,0,0,0,.159-.151c0-.1-.059-.146-.151-.16a.509.509,0,0,0-.055,0c-.263-.01-.263-.01-.263-.28,0-.538,0-1.075,0-1.613,0-.093.023-.13.122-.123.136.01.273.011.409.009.086,0,.124.017.1.115-.03.147-.044.3-.068.445-.017.109.021.186.131.2s.159-.057.174-.154c.038-.234.075-.467.109-.7.021-.15-.037-.209-.206-.214-.533-.017-1.066-.006-1.6-.041-.087-.006-.173-.013-.26-.016-.131,0-.2.057-.2.187,0,.187.013.373.021.56a.148.148,0,0,0,.152.159c.1,0,.148-.063.151-.158,0-.114,0-.228,0-.341,0-.066.017-.09.085-.085.15.011.3.022.45.02.095,0,.113.04.112.123,0,.3,0,.592,0,.888h-.006C4640.887,2090,4640.881,2090.294,4640.889,2090.585Zm5.974-1.511a.152.152,0,0,0-.3,0c0,.223,0,.446,0,.669a.147.147,0,0,0,.115.151.152.152,0,0,0,.175-.075.819.819,0,0,1,.433-.337c.218-.065.314-.017.383.2a2.594,2.594,0,0,1,.055.705c0,.041,0,.082,0,.123-.009.436-.218.606-.65.531a.394.394,0,0,1-.313-.323,1.693,1.693,0,0,1-.021-.326.137.137,0,0,0-.137-.143.147.147,0,0,0-.163.117.824.824,0,0,0,.4.919c.492.2,1.186.061,1.2-.708a4.041,4.041,0,0,0-.035-.845.61.61,0,0,0-.987-.473c-.04.02-.079.044-.146.082C4646.863,2089.235,4646.866,2089.154,4646.863,2089.074Zm-8.1-.149c0-.109-.038-.2-.16-.194s-.153.083-.153.187v.6a.167.167,0,0,0,.116.181.155.155,0,0,0,.184-.082.8.8,0,0,1,.449-.336c.2-.052.3,0,.356.189a2.733,2.733,0,0,1,.039,1.07.346.346,0,0,1-.313.3.976.976,0,0,1-.313,0,.4.4,0,0,1-.329-.4c-.007-.072,0-.146,0-.218a.143.143,0,0,0-.152-.144.136.136,0,0,0-.151.128.762.762,0,0,0,.744.952c.475-.011.771-.183.826-.583a2.877,2.877,0,0,0-.045-1.193.548.548,0,0,0-.763-.4,1.63,1.63,0,0,0-.329.155C4638.759,2089.057,4638.759,2088.991,4638.758,2088.925Z"/><path class="y" d="M4637.862,2089.733c0-.3,0-.593,0-.889,0-.1.022-.146.128-.133a.561.561,0,0,0,.137,0,.144.144,0,0,0,.141-.155.137.137,0,0,0-.133-.148c-.282-.007-.565-.007-.847,0a.137.137,0,0,0-.133.16.142.142,0,0,0,.138.143l.027,0c.23.021.23.021.23.25,0,.2,0,.392,0,.588,0,.089-.024.123-.117.1-.229-.042-.458-.08-.687-.116-.075-.012-.108-.038-.106-.122.009-.287.01-.574.01-.861,0-.075.021-.11.1-.1a.806.806,0,0,0,.178,0,.141.141,0,0,0,.131-.15.135.135,0,0,0-.129-.15c-.278-.011-.556-.018-.833-.019a.141.141,0,0,0-.145.152.149.149,0,0,0,.142.156c.075.013.177-.028.221.028s.019.175.019.265c0,.7-.006,1.4,0,2.1,0,.1-.024.146-.131.115a.28.28,0,0,0-.081-.006c-.093,0-.16.044-.169.143a.145.145,0,0,0,.142.167c.136.018.272.026.408.042a1.669,1.669,0,0,1,.411.1.127.127,0,0,0,.176-.056.151.151,0,0,0-.038-.2.6.6,0,0,0-.318-.113c-.074-.011-.1-.04-.1-.115,0-.323.007-.647,0-.97,0-.094.041-.106.117-.092.229.04.458.079.687.114.085.013.112.052.11.136-.005.186-.005.373,0,.56,0,.092-.033.122-.12.115a.8.8,0,0,0-.164,0,.141.141,0,0,0-.133.148.137.137,0,0,0,.141.153c.283,0,.565,0,.848-.009a.144.144,0,0,0,.149-.161c0-.093-.064-.133-.149-.149s-.2.054-.251-.036a.633.633,0,0,1-.011-.27c0-.241,0-.483,0-.724Z"/><path class="y" d="M4646.214,2088.527a.141.141,0,0,1,.129.176.148.148,0,0,1-.177.13.99.99,0,0,1-.121-.019c-.075-.014-.119,0-.115.093.008.173,0,.346,0,.519,0,.064.012.1.087.1a.139.139,0,0,1,.137.156.133.133,0,0,1-.133.145c-.083,0-.094.044-.093.113,0,.178,0,.355,0,.533,0,.081-.029.174.016.24s.128.029.193.048a.15.15,0,0,1,.126.169.133.133,0,0,1-.143.136c-.266-.031-.532-.072-.8-.118a.132.132,0,0,1-.1-.167.144.144,0,0,1,.151-.13.6.6,0,0,1,.135.017c.075.015.109-.007.106-.089,0-.137,0-.273,0-.41,0-.361,0-.361-.348-.446a.2.2,0,0,0-.286.151,1.218,1.218,0,0,0-.039.159c-.047.246-.025.5-.078.746a.466.466,0,0,1-.415.408.46.46,0,0,1-.489-.314c-.068-.16-.054-.251.044-.3s.164,0,.239.168l0,.012c.032.07.072.131.161.124a.163.163,0,0,0,.147-.156c.018-.116.03-.234.038-.352a1.411,1.411,0,0,1,.092-.575.34.34,0,0,0-.061-.444c-.3-.378-.167-.7.3-.824a2.328,2.328,0,0,1,.553-.059A4.589,4.589,0,0,1,4646.214,2088.527Zm-.957.234a1.179,1.179,0,0,0-.371.075.131.131,0,0,0-.075.206.471.471,0,0,0,.3.273c.127.033.252.073.377.113.1.033.142,0,.133-.107-.006-.077,0-.154,0-.231C4645.623,2088.731,4645.623,2088.729,4645.257,2088.761Z"/><path class="y" d="M4649.561,2090.9c0,.094,0,.174,0,.254,0,.1.034.173.144.176s.161-.068.164-.174c.01-.332,0-.665-.019-1a.144.144,0,0,0-.152-.157.146.146,0,0,0-.155.169.546.546,0,0,1-.305.523.5.5,0,0,1-.625-.131.3.3,0,0,1,.091-.467,1.241,1.241,0,0,1,.44-.138.6.6,0,0,0,.586-.7,2.024,2.024,0,0,0-.061-.472.478.478,0,0,0-.792-.288c-.047.033-.091.071-.165.129,0-.091,0-.156,0-.221,0-.1-.043-.182-.161-.178s-.155.084-.151.187c.012.305.027.61.04.914,0,.1.045.16.146.163s.156-.061.163-.161a.763.763,0,0,1,.279-.557c.166-.139.305-.1.345.111a1.629,1.629,0,0,1,.039.5.254.254,0,0,1-.232.245,2.51,2.51,0,0,0-.438.1.639.639,0,0,0-.5.75.779.779,0,0,0,.833.578A1.617,1.617,0,0,0,4649.561,2090.9Z"/><path class="y" d="M4643.761,2090.456h-.355a.148.148,0,0,1-.164-.115.135.135,0,0,1,.084-.178c.095-.031.046-.09.042-.142s-.01-.111-.094-.121c-.185-.023-.368-.059-.552-.09-.027-.005-.064-.021-.076,0a1.85,1.85,0,0,0-.134.327c-.018.075.086.077.127.121.021.023.049.041.07.064a.15.15,0,0,1,0,.23.144.144,0,0,1-.219-.008,1.226,1.226,0,0,0-.383-.232c-.087-.04-.177-.072-.265-.109a.155.155,0,1,1,.121-.284l.076.033c.19.08.154.108.241-.1q.345-.832.686-1.666c.045-.111.1-.189.242-.169.2.03.4.054.6.083.1.016.172.072.154.184s-.092.139-.192.126-.208-.025-.311-.042c-.081-.014-.107.011-.09.093q.162.789.317,1.579c.014.07.043.09.109.086.113-.007.227-.008.341-.012s.173.046.175.149-.065.154-.167.159c-.128,0-.255.012-.382.019Zm-.971-.945c-.018.044,0,.067.042.075.129.022.258.047.388.066.084.013.056-.047.048-.087q-.078-.387-.158-.772l-.026-.008Z"/><path class="y" d="M4640.887,2089.71c0,.292-.006.584,0,.875,0,.118-.037.154-.147.139a.9.9,0,0,0-.164,0,.14.14,0,0,0-.147.147.134.134,0,0,0,.136.155c.314.01.629.017.943.019a.144.144,0,0,0,.159-.151c0-.1-.059-.146-.151-.16a.509.509,0,0,0-.055,0c-.263-.01-.263-.01-.263-.28,0-.538,0-1.075,0-1.613,0-.093.023-.13.122-.123.136.01.273.011.409.009.086,0,.124.017.1.115-.03.147-.044.3-.068.445-.017.109.021.186.131.2s.159-.057.174-.154c.038-.234.075-.467.109-.7.021-.15-.037-.209-.206-.214-.533-.017-1.066-.006-1.6-.041-.087-.006-.173-.013-.26-.016-.131,0-.2.057-.2.187,0,.187.013.373.021.56a.148.148,0,0,0,.152.159c.1,0,.148-.063.151-.158,0-.114,0-.228,0-.341,0-.066.017-.09.085-.085.15.011.3.022.45.02.095,0,.113.04.112.123,0,.3,0,.592,0,.888Z"/><path class="y" d="M4646.863,2089.339c0-.1,0-.185,0-.265a.152.152,0,0,0-.3,0c0,.223,0,.446,0,.669a.147.147,0,0,0,.115.151.152.152,0,0,0,.175-.075.819.819,0,0,1,.433-.337c.218-.065.314-.017.383.2a2.594,2.594,0,0,1,.055.705c0,.041,0,.082,0,.123-.009.436-.218.606-.65.531a.394.394,0,0,1-.313-.323,1.693,1.693,0,0,1-.021-.326.137.137,0,0,0-.137-.143.147.147,0,0,0-.163.117.824.824,0,0,0,.4.919c.492.2,1.186.061,1.2-.708a4.041,4.041,0,0,0-.035-.845.61.61,0,0,0-.987-.473C4646.969,2089.277,4646.93,2089.3,4646.863,2089.339Z"/><path class="y" d="M4638.759,2089.144c0-.087,0-.153,0-.219,0-.109-.038-.2-.16-.194s-.153.083-.153.187v.6a.167.167,0,0,0,.116.181.155.155,0,0,0,.184-.082.8.8,0,0,1,.449-.336c.2-.052.3,0,.356.189a2.733,2.733,0,0,1,.039,1.07.346.346,0,0,1-.313.3.976.976,0,0,1-.313,0,.4.4,0,0,1-.329-.4c-.007-.072,0-.146,0-.218a.143.143,0,0,0-.152-.144.136.136,0,0,0-.151.128.762.762,0,0,0,.744.952c.475-.011.771-.183.826-.583a2.877,2.877,0,0,0-.045-1.193.548.548,0,0,0-.763-.4A1.63,1.63,0,0,0,4638.759,2089.144Z"/><path class="x" d="M4645.622,2089.09c0-.359,0-.361-.365-.329a1.179,1.179,0,0,0-.371.075.131.131,0,0,0-.075.206.471.471,0,0,0,.3.273c.127.033.252.073.377.113.1.033.142,0,.133-.107C4645.617,2089.244,4645.622,2089.167,4645.622,2089.09Z"/><path class="x" d="M4643.084,2088.785l-.294.726c-.018.044,0,.067.042.075.129.022.258.047.388.066.084.013.056-.047.048-.087q-.078-.387-.158-.772Z"/><g class="z"><path class="aa" d="M5160.868,2444.526s-.328,150.11,6.131,152.088c11.594,3.624,56.713,14.8,8.263,15.947-24.582,3.781-23.291-1.838-24.121-6.419-.677-3.744-12.734-136.93-14.744-147.187-.45-2.3-.723-3.686-.723-3.686Z"/><path class="aa" d="M5071.1,2444.091s-9.576,149.244-16.056,151.154c-11.633,3.5-56.871,14.2-8.436,15.858,24.539,4.041,23.309-1.591,24.189-6.164.718-3.735,6.581-32.047,8.7-42.282.475-2.292,17.753-118,17.753-118Z"/><path class="ab" d="M5073.892,2595.65c.518-2.115-14.976-3.526-16.913-1.966s-33.444,4.625-33.8,13.723,43.138,6.446,46.213,6.551S5072.876,2599.807,5073.892,2595.65Z"/><path class="ab" d="M5149.026,2593.223c-.5-2.12,18.307-1.128,20.228.453s29.606,6.3,29.863,15.4-43.205,5.989-46.281,6.061S5150,2597.391,5149.026,2593.223Z"/><path class="ac" d="M5116.221,2057.465c.555,1.372,3.851,16.68,6.7,19.7s12.134,2.372,11.807,3.195-6.967,16.6-18.473,17.8-8.08-7.267-8.08-7.267a22.564,22.564,0,0,0-1.165-18.481C5101.932,2062.681,5116.221,2057.465,5116.221,2057.465Z"/><ellipse class="aa" cx="25.359" cy="18.839" rx="25.359" ry="18.839" transform="translate(5087.462 2065.398) rotate(-81.107)"/><path class="ad" d="M5105.274,2027.767s29.427,22.746,24.335-7.068C5126.085,2000.072,5085.3,2011.66,5105.274,2027.767Z"/><path class="ad" d="M5111.01,2021.751s-19.687,7.685-19.62,18.547c0,0,1.016-32.235,19.061-30.179s24.712,4.866,17.844,38.031C5128.295,2048.15,5127.287,2020.739,5111.01,2021.751Z"/><path class="ad" d="M5109.637,2010.2s2.46-9.7,12.132-6.735,13.031,9.22,13.563,15.023,1.285,10.211,2.7,10.436c0,0-4.9,3.509-6.093,1.89,0,0,2.085,10.612-3.876,18.1,0,0,.169-12.976-6.677-15.494S5109.637,2010.2,5109.637,2010.2Z"/><path class="ad" d="M5110.556,2010.259s-6.406-5.307-15.013,3.331l-5.561,7.692s1.193,1.619,4.24.674c0,0-2.839,9.621-2.365,15.382l6.825-16.1Z"/><path class="l" d="M5221.548,2272.753c-1.357,9.738-17.769,15.688-29.914,32.223-5.884,8.017-21.64,14.382-35.642,14.9-34.4,1.323-62.3,4.562-103.745-14.9-47.67-22.38-11.056-105.342-13.815-114.693-3.627-12.35,63.46-48.111,67.8-49.548s70.758-5.565,72.673-4.926S5225.368,2245.282,5221.548,2272.753Z"/><path class="ad" d="M5063.7,2309.007c2.41.219,3.708.279,5.431.46,12.206-.292,64.92-1.683,93.422-4.54,10.056-1.009,17.1-2.2,18.28-3.594a1.129,1.129,0,0,1,0,.115c0,1.557-.118,19.385-.349,42.758-.455,46.139,7.3,111.857,13.825,131.623,1.409,4.266-64.328.558-64.328.558-2.3-47.495-1.438-131.088-4.555-134.7-3.792-4.392-6.349,69.214-10.292,130.885-25.621,7.793-66.841,5.52-66.484,2.879C5052.9,2444.082,5063.7,2309.007,5063.7,2309.007Z"/><g class="ae"><path d="M5112.591,2308.045l-.59-.022S5112.21,2308.028,5112.591,2308.045Z"/><path class="af" d="M5112.591,2308.045c15.751.556,49.962-3.118,49.962-3.118,10.056-1.009,17.1-2.2,18.28-3.594a1.129,1.129,0,0,1,0,.115c0,1.557-.118,19.385-.349,42.758a11.9,11.9,0,0,1-1.658-.117,12.875,12.875,0,0,1-8.566-5.464,28.048,28.048,0,0,1-3.526-6.515C5154.05,2310.648,5117.639,2308.273,5112.591,2308.045Z"/></g><line class="ag" x1="8.992" y2="172.163" transform="translate(5066.239 2305.71)"/><line class="ag" x1="8.999" y2="169.173" transform="translate(5082.878 2308.425)"/><line class="ag" x1="6.273" y2="167.875" transform="translate(5101.726 2307.727)"/><line class="ag" x2="1.895" y2="34.635" transform="translate(5123.528 2307.054)"/><line class="ag" x2="4.411" y2="170.808" transform="translate(5140.764 2306.308)"/><line class="ag" x2="6.771" y2="172.141" transform="translate(5155.591 2305.559)"/><line class="ag" x2="11.057" y2="172.945" transform="translate(5170.169 2304.928)"/><path class="ag" d="M5062.381,2325.262s93.783.306,118.316-5.123"/><path class="ag" d="M5125.423,2341.689c-32.42,8.735-64.272-1.475-64.272-1.475"/><path class="ag" d="M5124.972,2339.519s29.916,6.912,55.566-1.13"/><path class="ag" d="M5060.1,2352.848s24.141,11.167,62.194,3.294"/><path class="ag" d="M5058.834,2367.9s37.214,9.471,62.284,2.682"/><path class="ag" d="M5057.559,2382.844s19.346,13.655,62.419,5.288"/><path class="ag" d="M5056.065,2400.041s29.171,13.465,63.107,1.951"/><path class="ag" d="M5054.665,2415.8s20.828,13.27,63.562,3.188"/><path class="ag" d="M5053.188,2431.949s28.517,13.17,64.326-.018"/><path class="ag" d="M5051.991,2444.557s17.141,14.894,64.745,1.241"/><path class="ag" d="M5050.557,2458.872s27.209,12.67,65.372.776"/><path class="ag" d="M5127.011,2355.11s12.794,9.522,54.281.245"/><path class="ag" d="M5128.009,2370.231s17.679,7.219,52.927-.613"/><path class="ag" d="M5127.912,2387.067s27.1,6.79,53.7-2.325"/><path class="ag" d="M5128.146,2401.015s26.512,10.278,54.6-2.364"/><path class="ag" d="M5128.39,2416.329s25.138,7.5,55.755-2.414"/><path class="ag" d="M5128.644,2431.036s21.279,8.333,57.131-2.474"/><path class="ag" d="M5129.222,2444.033s25.337,11.524,58.451-1.19"/><path class="ag" d="M5129.349,2460.306s28.6,8.2,60.857-1.941"/><path class="ah" d="M5113.131,2223.668c2.6-2.273,9.964,6.072,19.811,4.057,9.154-1.872,14.17-11.413,14.8-12.649,5.584-10.992-.818-18.518,1.432-30.312,1.4-7.313,6.263-17.04,21.958-26.971,6.985,56.351,10.74,86.639,10.74,86.64h0l-58.476,5.012C5111.962,2230.423,5111.509,2225.084,5113.131,2223.668Z"/><path class="aa" d="M5179.11,2219.779l-10.183,27.638s-34.623-9.451-57.17-20.724-36.29-29.824-43.564-29.824-27.819,4.818-29.456,7.546,3.819,4.909,6.819,5.182,9.273-1.091,9.273-1.091-3,5.728-5.455,10.91,2.728,9,4.364,9.546c0,0,4.637,6,8.455,6,0,0,7.091,7.644,13.365,6s-.546-6.277-.546-6.277a17.045,17.045,0,0,0,8.728.819,26.334,26.334,0,0,0,8.182-2.728s11.5,4.668,18.4,12.773c15.068,17.7,34.13,47.975,46.6,54.959,18.183,10.182,26.548,16,38.185,10.546s32.184-42.582,37.093-63.277C5232.2,2247.781,5198.747,2246.326,5179.11,2219.779Z"/><path class="l" d="M5248.6,2245.556c-7.15,22.384-28.429,58.762-50.4,69.435a34.181,34.181,0,0,1-8.473,2.851c-26.388,5.2-71.363-35.5-89.745-77.829,5.724-8.7,2.235-11.175,7.959-19.876,13.377,9.283,30.676,15.737,47.12,14.175a10.848,10.848,0,0,0,5.667-1.745,9.781,9.781,0,0,0,3.09-5.177c2.475-8.325.548-17.048-1.129-25.316a187.183,187.183,0,0,1-3.284-24.916c-.1-1.585-1.574-12.5-.228-13.342-20.72,13.045-82.082-2.749-102.8,10.3-7.925,4.983,24.8,38.817,16.877,43.8-12.646,66.676-8.222,50.311-16.877,66.824-30.538,6.066-53.551-19.352-55.671-42-4.026-43.014-12.624-78.923,15.269-116.475,29.809-40.128,81.341-52.752,89.745-44.553a20.957,20.957,0,0,0,7.218,5.5,12.981,12.981,0,0,0,2.965.867,16.706,16.706,0,0,0,8.906-1.277c7.492-2.988,11.164-9.055,12.738-10.822,4.253-4.812,17.116-5.2,32.386-1.049,15.873,4.31,34.347,13.536,48.441,27.79C5264.664,2149.527,5254.926,2225.713,5248.6,2245.556Z"/><path d="M5057.268,2207.914a.877.877,0,0,1-.3-.051.9.9,0,0,1-.552-1.152,95.567,95.567,0,0,1,7.45-16,.9.9,0,0,1,1.532.956,95.423,95.423,0,0,0-7.277,15.642A.9.9,0,0,1,5057.268,2207.914Z"/><path d="M5065.723,2213.915a.974.974,0,0,1-.219-.026.906.906,0,0,1-.659-1.1c.092-.363,2.264-8.947,5.86-14.2a.9.9,0,1,1,1.493,1.02c-3.416,4.993-5.577,13.535-5.6,13.62A.9.9,0,0,1,5065.723,2213.915Z"/><path class="ac" d="M5044.657,2267.969s-8.943.28-16.21-3.074a29.047,29.047,0,0,1-11.045-8.936l18-4.47,23.073,3.635S5057.653,2265.594,5044.657,2267.969Z"/><path class="ai" d="M5086.5,2260.716l-119.978-18.777-27.038-106.259,115.943,14.182Z"/><path class="aj" d="M5055.432,2149.862l3.486,1.014,29.023,101.739,31.1-5.03,5.828,6.329-38.369,6.8Z"/><path class="ai" d="M5119.045,2247.585l-31.1,5.03-3.046-10.677Z"/><path class="aa" d="M5004.831,2244.353s13.275,14.394,21.1,16.49,23.057-9.782,25.433-13,0-3.773-1.957-3.494-6.568,3.913-6.568,3.913,8.944-13.974,6.568-16.21-13.92,13.7-13.92,13.7,1.064-20.124-1.311-20.264-8.106,17.8-8.106,17.8-7.406-19.058-10.76-19.058,1.817,19.144,1.817,19.144-13-5.729-15.511-5.17S5004.831,2244.353,5004.831,2244.353Z"/><path class="ak" d="M5015.881,2192.246c2.712,8.049.034,16.218-5.982,18.245s-13.091-2.855-15.8-10.905-.034-16.218,5.982-18.245S5013.169,2184.2,5015.881,2192.246Z"/><path class="ah" d="M5169.925,2074.926c-4.71,4.333-20.971,10.126-28.1,10.126-9.065,0-12.247,9.705-20.206,9.545-6.181-.126-8.131-5.155-8.69-7.39a12.981,12.981,0,0,0,2.965.867,16.706,16.706,0,0,0,8.906-1.277c7.492-2.988,11.164-9.055,12.738-10.822C5141.792,2071.163,5154.655,2070.775,5169.925,2074.926Z"/></g><path class="al" d="M4608.832,2106.31a7.744,7.744,0,0,1,.409-1.423,7.862,7.862,0,0,1,.965-1.753s.5-1.047,1.2-1.287c.059-.021.2-.068.287,0,.041.032.121.133,0,.572-.164.59-.382.672-.544,1.173a1.139,1.139,0,0,0-.029.944.756.756,0,0,0,.744.372c.263-.06.333-.318.687-.944.472-.835.756-1.325,1.144-1.345a.591.591,0,0,1,.544.315c.085.194-.022.392-.515,1.316-.279.522-.416.788-.343,1.03a.615.615,0,0,0,.372.4.829.829,0,0,0,.915-.487l1.059-.8a.6.6,0,0,1,.715.143.59.59,0,0,1,.086.6c-.3.411-.728,1.024-1.2,1.8a6.385,6.385,0,0,0-.629,1.173,4.506,4.506,0,0,0,0,2.546c.271,1.212.595,1.221.944,2.547a5.891,5.891,0,0,1,.286,2.175c-.089.934-.444,1.346-1.345,3.09a18.184,18.184,0,0,0-1.173,2.461c-.379,1.421-.065,2.638.515,4.778.635,2.34,1.021,2.4,1.145,3.806a6.914,6.914,0,0,1-.63,3.891c-.968,1.855-2.727,2.664-4.835,3.634a18.422,18.422,0,0,1-3.377,1.173q.2-2.633.4-5.265a4.723,4.723,0,0,0,2.718-1.8,5.056,5.056,0,0,0,.687-3.72c-.1-.526-.194-.53-.887-2.861-.267-.9-.3-1.042-.315-1.145a6.6,6.6,0,0,1,.2-2.976c.639-2.356,1.485-2.251,1.889-4.091a6.688,6.688,0,0,0-.286-3.806c-.495-1.222-.9-1-1.431-2.318A7.3,7.3,0,0,1,4608.832,2106.31Z"/><path class="am" d="M4614.9,2114.808a.622.622,0,1,0-.622.623A.622.622,0,0,0,4614.9,2114.808Z"/><path class="am" d="M4611.021,2120.045c-.667,0-1.06.927-1.223,1.309-.192.45-.47,1.1-.129,1.588a1.425,1.425,0,0,0,1.695.3,1.706,1.706,0,0,0,.859-1.781C4612.131,2120.808,4611.631,2120.041,4611.021,2120.045Z"/><path class="an" d="M4612.33,2123.822a.8.8,0,0,0-.751,1.33.729.729,0,0,0,.923-.3A.753.753,0,0,0,4612.33,2123.822Z"/><path class="al" d="M4574.055,2106.31a7.583,7.583,0,0,0-.409-1.423,7.825,7.825,0,0,0-.964-1.753s-.506-1.047-1.2-1.287c-.059-.021-.2-.068-.286,0-.041.032-.122.133,0,.572.163.59.382.672.544,1.173a1.139,1.139,0,0,1,.028.944.755.755,0,0,1-.744.372c-.262-.06-.332-.318-.686-.944-.472-.835-.757-1.325-1.145-1.345a.591.591,0,0,0-.544.315c-.085.194.022.392.516,1.316.278.522.416.788.343,1.03a.615.615,0,0,1-.372.4.83.83,0,0,1-.916-.487l-1.058-.8a.6.6,0,0,0-.716.143.6.6,0,0,0-.086.6c.3.411.728,1.024,1.2,1.8a6.468,6.468,0,0,1,.63,1.173,4.523,4.523,0,0,1,0,2.546c-.271,1.212-.595,1.221-.945,2.547a5.881,5.881,0,0,0-.286,2.175c.089.934.445,1.346,1.345,3.09a17.924,17.924,0,0,1,1.173,2.461c.379,1.421.065,2.638-.515,4.778-.634,2.34-1.02,2.4-1.144,3.806a6.924,6.924,0,0,0,.629,3.891c.968,1.855,2.727,2.664,4.836,3.634a18.4,18.4,0,0,0,3.376,1.173q-.2-2.633-.4-5.265a4.722,4.722,0,0,1-2.719-1.8,5.049,5.049,0,0,1-.686-3.72c.1-.526.193-.53.887-2.861a11.634,11.634,0,0,0,.314-1.145,6.574,6.574,0,0,0-.2-2.976c-.639-2.356-1.485-2.251-1.888-4.091a6.688,6.688,0,0,1,.286-3.806c.494-1.222.905-1,1.43-2.318A7.288,7.288,0,0,0,4574.055,2106.31Z"/><path class="am" d="M4567.982,2114.808a.623.623,0,1,1,.622.623A.623.623,0,0,1,4567.982,2114.808Z"/><path class="am" d="M4571.866,2120.045c.668,0,1.061.927,1.224,1.309.192.45.47,1.1.128,1.588a1.424,1.424,0,0,1-1.695.3,1.706,1.706,0,0,1-.858-1.781C4570.757,2120.808,4571.257,2120.041,4571.866,2120.045Z"/><path class="ao" d="M4605.055,2144.853a7.883,7.883,0,0,1,.515,4.721c-.174.843-.522,2.52-1.8,3.09a4.077,4.077,0,0,1-3-.257c-1.148-.5-1.6-1.234-2.146-1.03-.376.14-.432.592-.687,1.287-.214.587-.933,2.549-2.231,3.176a3.544,3.544,0,0,1-3.434-.6c-1.038-.794-.9-1.609-1.717-3.09-1.193-2.155-3.691-4.4-5.408-3.863-.856.268-1.3,1.252-1.717,2.146-.854,1.842-.307,2.826-1.116,3.606a3.151,3.151,0,0,1-3.176.343c-2.16-.9-3.112-4.359-2.489-6.781,1.057-4.11,6.743-5.615,9.528-6.353C4593.361,2139.344,4602.9,2140.311,4605.055,2144.853Z"/><path class="an" d="M4570.557,2123.822a.8.8,0,0,1,.751,1.33.728.728,0,0,1-.922-.3A.753.753,0,0,1,4570.557,2123.822Z"/><path class="am" d="M4606.228,2145.74c.084-9,.367-15.538.687-20.488a27.864,27.864,0,0,0-1.03-10.987,16.678,16.678,0,0,0-3.434-6.753c-3.975-4.346-11.528-6.362-17.4-3.434a15.1,15.1,0,0,0-6.524,6.982,18.788,18.788,0,0,0-1.945,10.644c-.625,11.865-1.056,20.579-1.259,23.463a6.992,6.992,0,0,0,.343,2.862c.145.418,1.082,3.527,2.861,3.662,1.521.116,2.8-2,2.976-2.289a7.568,7.568,0,0,0,.885-2.756,1.665,1.665,0,0,1,.642-1.179,1.62,1.62,0,0,1,1.676.2c1.8,1.156,1.738,3.208,2.323,5.035a5.2,5.2,0,0,0,2.44,3.276,4.2,4.2,0,0,0,5.775-4.025,3.138,3.138,0,0,1,.013-1.327c.464-1.264,2.735.069,3.439.433,1.295.67,2.661,1.536,4.186,1.184C4604.431,2149.888,4606.214,2147.3,4606.228,2145.74Z"/><path class="al" d="M4603.338,2111.2a1.406,1.406,0,0,1-1.373.6c-1.185-.115-1.855-1.633-2.575-3.262-.327-.739-.525-1.2-.344-1.373.338-.327,1.754.563,2.661,1.373C4602.2,2108.98,4603.727,2110.346,4603.338,2111.2Z"/><path class="al" d="M4588.66,2136.526a1.008,1.008,0,0,1-.6,1.2c-.672.162-1.512-1.042-1.288-1.459S4588.4,2135.856,4588.66,2136.526Z"/><path class="al" d="M4601.793,2139.359c-1.223-.107-2.332,1.605-2.747,2.833-.724,2.142-.224,5.438,1.8,6.094a3.368,3.368,0,0,0,3.434-1.2c1.49-1.883,0-4.689-.515-5.666C4603.293,2140.524,4602.718,2139.439,4601.793,2139.359Z"/><path class="al" d="M4597.587,2143.308c.065.267-.47.715-1.03.772-.806.083-1.471-.664-1.374-.944C4595.332,2142.705,4597.469,2142.824,4597.587,2143.308Z"/><path class="ap" d="M4598.1,2146.913c-.277.4-1.112.315-1.631,0-.737-.448-1.1-1.523-.772-1.889.361-.409,1.7-.063,2.231.773C4597.959,2145.841,4598.377,2146.516,4598.1,2146.913Z"/><path class="al" d="M4593.638,2151.033s-2.317-.171-1.631-.858S4594.153,2150.175,4593.638,2151.033Z"/><path class="aq" d="M4602.179,2125.227s.623-1.148-.171-.44-.859,1.095-.451,1.267a14.308,14.308,0,0,0,1.61.515c.085,0-.078-.545-.928-.945C4601.958,2125.493,4602.179,2125.227,4602.179,2125.227Z"/><path class="aq" d="M4584.167,2119.029c.047.022,1.016.615,1.188.7s.486.444.214.544a11.646,11.646,0,0,0-1.316.329c-.286.157-1.087-.086-.815-.2s1.459-.163,1.43-.389-.415-.469-.572-.6S4583.709,2118.814,4584.167,2119.029Z"/><path class="aq" d="M4583.609,2118.943s.115.243-.286.086-.629-.5-.343-.415A2.7,2.7,0,0,1,4583.609,2118.943Z"/><path class="ar" d="M4586.885,2124.567l.005.019c.235,1.187.91,2.056,2.255,3.787,1.243,1.6,1.889,2.406,3.006,2.775a5.007,5.007,0,0,0,3.634-.343,5.157,5.157,0,0,0,.833-.5,6.458,6.458,0,0,0,2.456-4.764,6.731,6.731,0,0,0-1.515-4.548,8.058,8.058,0,0,0-3.749-2.428,7.4,7.4,0,0,0-2.434-.347,4.69,4.69,0,0,0-2.944,1.087A5.754,5.754,0,0,0,4586.885,2124.567Z"/><path class="as" d="M4591.376,2118.216l.088.755s1.2,1.058,1.86.974.566-1.284.544-1.318a.4.4,0,0,0-.058-.064A7.4,7.4,0,0,0,4591.376,2118.216Z"/><path d="M4586.89,2124.586c.235,1.187.91,2.056,2.255,3.787,1.243,1.6,1.889,2.406,3.006,2.775a5.007,5.007,0,0,0,3.634-.343,5.157,5.157,0,0,0,.833-.5c-.64-.468-1.428-1.054-2.322-1.731a30.548,30.548,0,0,0-3.92-2.834A11.422,11.422,0,0,0,4586.89,2124.586Z"/></g></svg>