<svg xmlns="http://www.w3.org/2000/svg" xmlns:xlink="http://www.w3.org/1999/xlink" width="495.764" height="312.768" viewBox="0 0 495.764 312.768"><defs><style>.a,.k{fill:none;}.b{fill:#947dce;opacity:0.26;}.c{fill:#f7c042;stroke:#d1a338;stroke-width:0.816px;}.c,.e,.f,.j,.k,.l,.m,.n{stroke-miterlimit:10;}.d{clip-path:url(#a);}.e,.f,.g,.m{fill:#9c8679;}.e,.f,.m{stroke:#362e29;}.e{stroke-width:2.398px;}.f{stroke-width:2.315px;}.h,.q{fill:#362e29;}.i{fill:#ee4036;stroke-linejoin:round;}.j{fill:#e7e7e8;}.j,.l{stroke:#282829;stroke-width:3.275px;}.k{stroke:#030000;stroke-linecap:round;stroke-width:4.584px;}.l{fill:#58585a;}.m{stroke-width:2.456px;}.n{fill:#5998f7;stroke:#4b81d1;stroke-width:0.711px;}.o{fill:#8f6ef6;}.p,.q{stroke:none;}</style><clipPath id="a"><path class="a" d="M490.142,551.1c30.274,33.328,79.192,53.388,116.808,45.084,8.525-1.882,17.172-5.376,32.788-6.148,29.219-1.444,50.708,8.231,56.355,10.246,50.991,18.2,163.267-42.738,167.016-112.709,2.446-45.657-46.348-118.934-71.994-139.35-58.641-46.682-153.619-77.6-239.765-42.01C529.113,315.4,467.9,380.4,455.3,442.487,443.886,498.77,484.015,544.353,490.142,551.1Z" transform="translate(-453.271 -290.767)"/></clipPath></defs><g transform="translate(-405.123 -290.767)"><path class="b" d="M488.773,553.282c30.274,33.328,79.193,53.388,116.808,45.084,8.525-1.882,17.173-5.376,32.788-6.148,29.219-1.444,50.709,8.231,56.355,10.246,50.991,18.2,163.267-42.738,167.015-112.709,2.446-45.657-41.98-81.023-67.625-101.438-58.642-46.683-153.619-77.6-239.765-42.01-22.238,9.186-87.818,36.277-100.413,98.364C442.518,500.954,482.647,546.537,488.773,553.282Z" transform="translate(-2.526 -2.184)"/><g transform="translate(405.531 350.712)"><path class="c" d="M512.821,364.681H470.657a58.442,58.442,0,0,0-33.637-10.514c-15.755.135-26.675,8.628-31.1,11.563-.02.015-.037.033-.067.055a2.223,2.223,0,0,0-.325,1.158V395.86a2.262,2.262,0,0,0,2.262,2.262h8.071l6.359,5.513h10.341l5.714-5.513h74.544a2.262,2.262,0,0,0,2.262-2.262V366.943A2.262,2.262,0,0,0,512.821,364.681Z" transform="translate(-405.531 -354.165)"/></g><g transform="translate(450.671 290.767)"><g class="d"><g transform="translate(8.865 17.682)"><path class="e" d="M602.425,592.2s-1.62,10.369-1.134,18.146.521,12.637.521,12.637-2.952,1.62-2.952,3.565H627.7s2-8.425-4.02-10.045,0-16.2,0-16.2Z" transform="translate(-470.066 -324.868)"/><path class="f" d="M650.209,592.2s6.245,8.145,7.858,17.174a39.079,39.079,0,0,1,.109,13.609s2.75,1.62,2.75,3.565H634.059s-3.638-9.073,1.974-10.693-.972-15.877-.972-15.877Z" transform="translate(-471.921 -324.868)"/><path class="e" d="M598.562,559.077c-1.34,2.341-5.616,10.483-3.24,20.09,3.309,13.388,12.554,19.053,16.2,20.414,2.642.985,24.294,6.487,34.994-3.565,6.32-5.938,6.909-14.356,7.129-17.5.537-7.684-1.789-16.313-6.805-21.71C637.365,546.615,616.36,545.887,598.562,559.077Z" transform="translate(-469.835 -322.524)"/><path class="g" d="M493.126,432.034c.5-40.653,26.062-70.015,32.4-76.9,7.546-8.2,25.813-27.51,55.732-34.132a96.43,96.43,0,0,1,25.058-2.16l.863,28.082a55.223,55.223,0,0,1,18.146-25.058c18.5-14.172,39.7-11.027,43.635-10.369l-13.826,37.587a39.492,39.492,0,0,1,12.1-14.257,40.628,40.628,0,0,1,25.923-7.345q-1.729,13.177-3.457,26.355a213.672,213.672,0,0,1,22.467,27.218c6,8.636,12.944,18.626,17.714,30.675,2,5.051,15.6,41.019-1.3,77.333-8.586,18.457-21.513,29.4-30.674,37.156-6.854,5.8-17.514,14.671-33.7,20.737-18.184,6.817-33.183,6.289-52.276,5.616-19.364-.682-35.183-1.238-54.437-9.072-11.466-4.665-31.775-12.928-44.932-33.267-6.409-9.907-8.621-18.817-12.96-36.29C496.232,460.351,492.938,447.092,493.126,432.034Z" transform="translate(-464.307 -309.537)"/><g transform="translate(27.447)"><path class="h" d="M627.424,554.009c-4.986,0-10.129-.181-15.6-.373-21.343-.752-42.684-2.711-62.311-11.792A96.086,96.086,0,0,1,514.4,514.116c-9.3-11.849-12.4-25.578-15.971-39.97-3.308-13.324-7.994-28.424-6.119-42.282-.582-.169-.664-.95-.626-1.555,2.906-45.576,32.568-88.378,75.443-104.964q1.984-.766,3.995-1.459c10.5-3.611,21.215-5.094,32.185-6.394a36.759,36.759,0,0,1,4.463.066s.044,7.406-.131,10.354c-.113,1.918-.866,7.341.792,8.838,2.469,2.226,11.671-12.782,14.2-14.89,12.523-10.454,30.293-14.25,46.444-11.551l1.346.225s-9.536,22.375-9.759,26.406a76.247,76.247,0,0,1,14.741-7.9,41.758,41.758,0,0,1,17.749-2.762l1.214.073-3.543,27.017c8.1,8.351,16.89,16.139,23.525,25.686,6.1,8.779,11.694,20.012,16.513,32.186,9.208,23.263,9.064,48.875.678,72.317-6.823,19.07-22.269,36.135-38.31,48.119C673.766,546.213,651.711,554.008,627.424,554.009Zm-25.489-234.2a94.913,94.913,0,0,0-20.509,2.228c-30.182,6.679-48.318,26.376-55.143,33.792-9.5,10.317-31.635,38.389-32.1,76.148-.185,14.909,3.035,27.879,6.445,41.611,3.933,15.84,7.57,30.574,18.552,43.114,23.642,27,58.567,33.462,92.712,34.665,18.932.667,33.875,1.191,51.845-5.546,21.029-7.883,40.7-24.02,54.1-41.907,19.545-26.095,22.838-61.724,10.916-91.84-4.723-11.929-11.559-21.766-17.591-30.445a213.184,213.184,0,0,0-22.347-27.074l-.384-.393,3.367-25.674a39.142,39.142,0,0,0-23.975,7.186,38.433,38.433,0,0,0-11.747,13.847l-2.076-.9L667.34,312.34c-7.027-.957-25.377-1.921-41.4,10.355a46.008,46.008,0,0,0-11.078,13.049c-1.223,2.026-8.433,16.834-8.433,16.834s-.689-13.239-.75-15.209l-.539-17.506Q603.536,319.811,601.935,319.81Z" transform="translate(-491.675 -309.468)"/></g><path class="e" d="M511.345,504.781c-12.508-4.675-27.773-12.819-38.858-26.937-1.085-1.331-2.106-2.725-3.065-4.149-3.685-5.543-8.67-13.159-6.038-20.312,2.755-7.492,12.262-10.094,16.411-11.24,12.973-3.56,24.4,1.208,28.949,3.468.124,2.6.217,5.2.341,7.8Q510.2,479.1,511.345,504.781Z" transform="translate(-462.647 -316.625)"/><path class="e" d="M777.911,450.311A128.571,128.571,0,0,1,767.1,463.562a103.572,103.572,0,0,1-31.55,23.749,151.6,151.6,0,0,0-2.168-43.193c-.928-4.768-2.043-9.226-3.22-13.376a154.924,154.924,0,0,0-5.851-16.441c15.76-10.527,34.338-11.735,46.66-3.034,1.827,1.3,11.023,8.081,12.54,19.445C784.474,437.926,781.967,444.241,777.911,450.311Z" transform="translate(-476.9 -314.698)"/><g class="i" transform="translate(-463.214 -317.348)"><path class="p" d="M 510.5585632324219 503.6251220703125 C 504.052490234375 501.0679931640625 498.0324401855469 498.0065307617188 492.6396179199219 494.510986328125 C 485.5399169921875 489.9090881347656 479.4746704101562 484.5150756835938 474.5997619628906 478.4695129394531 C 477.35302734375 474.0293884277344 480.7316589355469 470.0885620117188 484.65234375 466.7458801269531 C 488.5166320800781 463.4475708007812 492.8799133300781 460.7775573730469 497.6215515136719 458.8094787597656 C 501.0268249511719 457.3960876464844 504.6614685058594 456.3295593261719 508.4454040527344 455.6322937011719 C 508.7978515625 463.7342529296875 509.1613464355469 471.94189453125 509.5135192871094 479.8943176269531 C 509.8580322265625 487.6731567382812 510.21337890625 495.6966247558594 510.5585632324219 503.6251220703125 Z"/><path class="q" d="M 509.2037353515625 501.7093505859375 C 508.8857421875 494.4256896972656 508.5606384277344 487.0847778320312 508.2446899414062 479.9505004882812 C 507.9138488769531 472.4806518554688 507.5730590820312 464.7854614257812 507.2407836914062 457.1640625 C 498.9455261230469 458.9143371582031 491.6356201171875 462.4552307128906 485.4763793945312 467.7123718261719 C 481.8822937011719 470.7765808105469 478.7552185058594 474.3573913574219 476.1626892089844 478.3745422363281 C 480.8524780273438 484.0314636230469 486.620361328125 489.0958251953125 493.3304138183594 493.4451904296875 C 498.146240234375 496.5667114257812 503.4718017578125 499.3385925292969 509.2037353515625 501.7093505859375 M 511.9115295410156 505.50390625 C 499.4031066894531 500.8291625976562 484.1384582519531 492.6853637695312 473.0540161132812 478.566650390625 C 475.5303649902344 474.4176635742188 478.9985656738281 469.8970947265625 483.8283386230469 465.7793579101562 C 492.4978942871094 458.3795776367188 502.0345153808594 455.3453979492188 509.6517028808594 454.1370239257812 C 510.3948974609375 471.2596435546875 511.1683349609375 488.3822021484375 511.9115295410156 505.50390625 Z"/></g><g class="i" transform="translate(-477.237 -316.153)"><path class="p" d="M 737.3500366210938 486.603271484375 C 738.426025390625 472.728759765625 737.6268310546875 458.8544921875 734.9697265625 445.3285522460938 C 734.2175903320312 441.4656677246094 733.3018798828125 437.5757446289062 732.181396484375 433.4872741699219 C 740.51220703125 433.6880493164062 748.5670776367188 435.3855285644531 756.1485595703125 438.5406799316406 C 763.71630859375 441.6729431152344 770.590576171875 446.1753845214844 776.597412109375 451.9312438964844 C 773.8020629882812 455.9440307617188 770.3606567382812 459.8186950683594 766.731689453125 463.9044494628906 L 766.4951171875 464.1707763671875 C 758.3931274414062 473.2203063964844 748.5967407226562 480.7592468261719 737.3500366210938 486.603271484375 Z"/><path class="q" d="M 733.8550415039062 434.8195495605469 C 734.782958984375 438.3355102539062 735.5609741210938 441.7196655273438 736.2160034179688 445.083740234375 C 738.7486572265625 457.9762573242188 739.6074829101562 471.1806335449219 738.7775268554688 484.4032592773438 C 749.045166015625 478.7917785644531 758.0337524414062 471.7167663574219 765.5459594726562 463.3268737792969 L 765.7819213867188 463.0611267089844 C 769.1136474609375 459.31005859375 772.2858276367188 455.7386474609375 774.9217529296875 452.0969848632812 C 769.220703125 446.8088989257812 762.7515869140625 442.6482849121094 755.6605224609375 439.7132873535156 C 748.742919921875 436.8343811035156 741.4228515625 435.1929016113281 733.8550415039062 434.8195495605469 M 730.5029907226562 432.1969909667969 C 737.934814453125 432.1969909667969 747.0374755859375 433.3732604980469 756.6365356445312 437.3680725097656 C 765.9868774414062 441.2381591796875 773.0462036132812 446.6257934570312 778.2484741210938 451.7656860351562 C 775.2445678710938 456.2550659179688 771.3744506835938 460.5893859863281 767.4420166015625 465.0172729492188 C 761.6204223632812 471.5197143554688 751.5580444335938 481.0251159667969 735.8916015625 488.7661743164062 C 736.9127197265625 477.7120056152344 737.0989990234375 462.7565307617188 733.7234497070312 445.5733947753906 C 732.7949829101562 440.8050842285156 731.68017578125 436.346923828125 730.5029907226562 432.1969909667969 Z"/></g><path class="j" d="M613.421,441.419a202.985,202.985,0,0,0-40.179,16.849c-18.519,10.23-27.78,15.344-31.43,25.6-5.95,16.713,5.92,37.169,18.793,47.955,14.47,12.124,30.733,12.473,53.464,12.96,29.726.638,56.026,1.2,73.879-18.145a59.457,59.457,0,0,0,14.9-47.632c-2.761-20.336-15.547-32.77-19.442-36.291a72,72,0,0,1-21.709,18.47,73.338,73.338,0,0,1-40.179,8.749,35.982,35.982,0,0,0,14.905-24.626,99.056,99.056,0,0,1-29.163,18.146Q610.343,452.436,613.421,441.419Z" transform="translate(-466.873 -316.655)"/><path class="k" d="M573.258,484.849a31.167,31.167,0,0,1,13.123-4.374c2.836-.269,8.247-.781,13.772,2.106a19.862,19.862,0,0,1,2.593,1.62" transform="translate(-468.672 -318.771)"/><path class="k" d="M657.153,484.849a31.168,31.168,0,0,1,13.124-4.374c2.835-.269,8.246-.781,13.771,2.106a19.863,19.863,0,0,1,2.593,1.62" transform="translate(-473.242 -318.771)"/><path class="l" d="M597.418,505.606c0-2.694,4.961-4.139,6.935-4.713a47,47,0,0,1,10.211-1.452q11.222-.711,22.47-.864c5.152-.07,10.3-.045,15.458-.1,2.793-.031,2.965,1.178,2.885,3.623a42.757,42.757,0,0,1-.865,7.249,40.571,40.571,0,0,1-8.552,18.059,19.1,19.1,0,0,1-13.706,7.039C611.514,535.254,597.438,514.883,597.418,505.606Z" transform="translate(-469.988 -319.763)"/><path class="m" d="M593.534,567.031s-6.638,2.795-6.638.2,18.145-19.765,19.118-23.654-18.146-13.609-21.71-10.693-16.2,26.246-12.961,36.291,15.172,9.528,21.977,4.668Z" transform="translate(-468.539 -321.608)"/><path class="e" d="M655.466,565.863s5.561,2.593,5.561,0-17.3-19.765-18.227-23.654,17.3-13.609,20.7-10.692,15.447,26.246,12.358,36.29-13.025,9.568-19.512,4.707Z" transform="translate(-472.458 -321.533)"/><path class="h" d="M518.3,511.7c-3.037-5.238-1.581-11.536-2-17.451-.428-6.089-.866-12.177-1.27-18.269-.864-13.023-3.923-26.389-1.593-39.3.455-2.519-.862-3.34-1.32-.8-2.49,13.79-1.933,27.716-.987,41.627.454,6.68.841,13.374,1.409,20.045.473,5.55,1.363,10.91,4.193,15.79C518.024,515.572,519.592,513.937,518.3,511.7Z" transform="translate(-465.244 -316.27)"/><path class="h" d="M721.579,408.77c-.914-1.847-1.842-.787-.929,1.055C733.656,436.083,736.574,466.5,732.3,495.5c-.3,2.016,1.737,1.461,2.038-.574C738.748,465.012,735,435.871,721.579,408.77Z" transform="translate(-476.68 -314.824)"/></g></g></g><g transform="translate(773.268 460.17)"><path class="n" d="M919.463,469.929H827.388l-6.005,5.794h-10.3l-6.435-5.58h-7.538a3.805,3.805,0,0,1-.637-.191,2.245,2.245,0,0,0-2.018,2.23V500.99a2.253,2.253,0,0,0,2.253,2.253h8.04l6.335,5.493h10.3l5.692-5.493h92.388a2.253,2.253,0,0,0,2.253-2.253V472.182A2.253,2.253,0,0,0,919.463,469.929Z" transform="translate(-794.453 -469.929)"/></g><g transform="translate(678.288 542.085)"><path class="o" d="M782.214,556.563H726.936l-6.005,5.794h-10.3l-6.434-5.58h-7.538a3.755,3.755,0,0,1-.637-.19A2.245,2.245,0,0,0,694,558.816v28.808a2.253,2.253,0,0,0,2.252,2.253h8.041l6.334,5.492h10.3l5.692-5.492h55.591a2.253,2.253,0,0,0,2.253-2.253V558.816A2.253,2.253,0,0,0,782.214,556.563Z" transform="translate(-694.001 -556.563)"/></g></g></svg>