<svg xmlns="http://www.w3.org/2000/svg" width="528" height="414.976" viewBox="0 0 528 414.976"><defs><style>.a{fill:#f0f0f0;}.b{fill:#703d00;}.c{fill:#a85b00;stroke-width:0.738px;}.c,.d{stroke:#a85b00;stroke-linecap:round;}.d,.h{fill:#f0c444;}.d{stroke-width:0.784px;}.e{fill:#f6c948;}.f{fill:#634f41;}.g{fill:#fcfcfc;}.i{fill:#7a46f2;}.j{fill:#6dbb63;}.k{fill:#74b159;}.l{fill:#f05656;}</style></defs><g transform="translate(-747.721 -265.155)"><rect class="a" width="465.356" height="356.688" transform="translate(810.365 265.155)"/><g transform="translate(1036.458 304.585)"><path class="b" d="M1051.093,325.217a18.964,18.964,0,0,1,6.88,1.155c1.761.714,2.852,1.7,2.852,2.788s-1.09,2.075-2.852,2.788a21.06,21.06,0,0,1-13.76,0c-1.761-.714-2.851-1.7-2.851-2.788s1.09-2.075,2.851-2.788A18.967,18.967,0,0,1,1051.093,325.217Z" transform="translate(-1031.166 -303.502)"/><path class="c" d="M1048.39,313c4.143-.065,8.307-.009,12.445.178,1.035.048,2.611-.566,2.544.358-.267,3.694-1.989,7.385-3.491,10.928-.83,2.012-1.216,5.017-3.472,5.939-3.73,1.426-8.229.92-12.268.357-1.468-.214-2.386-1.438-3.194-2.4a26.207,26.207,0,0,1-3.215-5.188c-1.464-2.926-3.577-5.862-4.024-8.908-.121-.83,1.552-.784,2.584-.912A119.362,119.362,0,0,1,1048.39,313Z" transform="translate(-1031.304 -303.723)"/><path class="b" d="M1049.229,314.208a38.95,38.95,0,0,1,9.693,1.084c2.482.671,4.018,1.6,4.018,2.618s-1.536,1.947-4.018,2.617a43.826,43.826,0,0,1-19.385,0c-2.482-.67-4.018-1.6-4.018-2.617s1.536-1.947,4.018-2.618A38.94,38.94,0,0,1,1049.229,314.208Z" transform="translate(-1031.271 -303.701)"/><path class="d" d="M1048.909,303.892c4.873.139,9.565,2.258,13.758,4.5,1.866,1.135,3.878,3.214,3.624,5.187s-1.958,2.986-5.119,4.013a46.629,46.629,0,0,1-24.694,0c-3.162-1.027-5.314-2-5.119-4.013.285-2.674,3.293-4.688,5.752-6.169C1040.7,305.547,1044.841,303.775,1048.909,303.892Z" transform="translate(-1031.346 -303.887)"/></g><g transform="translate(833.714 409.857)"><path class="e" d="M838.878,415.32c.028-.111.116-.143.214-.163a1.189,1.189,0,0,1,1.119.134,6.157,6.157,0,0,1,.956.832c.7.724,1.287,1.544,2.049,2.205a2.452,2.452,0,0,0,1.759.763,1.265,1.265,0,0,0,1.257-1.215,4.643,4.643,0,0,0-.387-2.154,47,47,0,0,0-2.411-5.063,14.889,14.889,0,0,1-1.072-2.537c-.048-.159-.116-.37.04-.5.171-.14.354-.02.526.062a5.3,5.3,0,0,1,1.293.966,56.791,56.791,0,0,1,4.289,4.62,54.45,54.45,0,0,0,4.86,5.164c.118.106.212.229.4.245a1.748,1.748,0,0,0,1.655-1.249c.08-.487.118-.981.2-1.468a8.531,8.531,0,0,1,.451-2c.18-.412.443-.431.705-.058a3.508,3.508,0,0,1,.484,1.167c.535,2.047.763,4.161,1.4,6.189a14.835,14.835,0,0,0,2.017,4.557,11.355,11.355,0,0,1,2.462,8.128,9.3,9.3,0,0,1-2.442,5.423,11.541,11.541,0,0,1-5.377,3.219,14.834,14.834,0,0,1-7.4.349,3.627,3.627,0,0,0-2.512.088,8.381,8.381,0,0,0-3.423,3.352c-.146.246-.254.552-.63.515a.84.84,0,0,1-.716-.624,2.117,2.117,0,0,1-.133-.685,7.126,7.126,0,0,1,.409-2.669.532.532,0,0,0-.228-.719,13.639,13.639,0,0,1-3.076-3.439c-.066-.1-.2-.192-.022-.391.771-.839,1.588-1.629,2.409-2.417a16.385,16.385,0,0,0,2.06-2.206,2.433,2.433,0,0,0,.557-1.448.576.576,0,0,0-.594-.658,5.418,5.418,0,0,0-2.282.3,17.023,17.023,0,0,0-2.352,1c-.281.163-.584.288-.937.46.026-.25.036-.425.065-.594a9.781,9.781,0,0,1,1.833-3.987,3.345,3.345,0,0,0,.943-2.113,6.286,6.286,0,0,0-.755-2.5c-.639-1.291-1.425-2.5-2.025-3.815-.058-.126-.215-.246-.1-.42l.077-.169a2.481,2.481,0,0,1,1.345.305c.471.23.936.482,1.424.669.724.278,1.121-.074.956-.832a9.808,9.808,0,0,0-.442-1.324A7.216,7.216,0,0,1,838.878,415.32Zm12.057,17.96a1.98,1.98,0,0,0-2.008-2.032,2.046,2.046,0,0,0-2.056,2.045,2.1,2.1,0,0,0,2.012,2.04A2.018,2.018,0,0,0,850.936,433.28Zm9.646.025a2.056,2.056,0,0,0-2.072-2.047,1.985,1.985,0,0,0-1.987,2.075,2.1,2.1,0,0,0,2.214,2.065C859.562,435.455,860.584,434.27,860.582,433.306Zm-5.192,6.543c.2,0,.414.011.443-.242.033-.286-.228-.245-.4-.291a1.285,1.285,0,0,0-.218-.018,4.687,4.687,0,0,1-2.029-.633c-.174-.1-.336-.231-.506-.344-.118-.079-.244-.119-.352.008a.251.251,0,0,0,.04.385,2.352,2.352,0,0,0,.3.25A5.766,5.766,0,0,0,855.39,439.849Z" transform="translate(-832.116 -407.29)"/><path class="f" d="M836.489,419.983c-.117.174.04.294.1.42.6,1.311,1.386,2.524,2.025,3.815a6.286,6.286,0,0,1,.755,2.5,3.345,3.345,0,0,1-.943,2.113,9.781,9.781,0,0,0-1.833,3.987c-.029.169-.039.343-.065.594.352-.172.656-.3.937-.46a17.023,17.023,0,0,1,2.352-1,5.418,5.418,0,0,1,2.282-.3.576.576,0,0,1,.594.658,2.433,2.433,0,0,1-.557,1.448,16.385,16.385,0,0,1-2.06,2.206c-.821.788-1.638,1.578-2.409,2.417-.182.2-.044.289.022.391a13.639,13.639,0,0,0,3.076,3.439.532.532,0,0,1,.228.719,7.126,7.126,0,0,0-.409,2.669,2.117,2.117,0,0,0,.133.685.84.84,0,0,0,.716.624c.377.037.485-.269.63-.515a8.381,8.381,0,0,1,3.423-3.352,3.627,3.627,0,0,1,2.512-.088,14.834,14.834,0,0,0,7.4-.349,11.541,11.541,0,0,0,5.377-3.219,9.3,9.3,0,0,0,2.442-5.423,11.355,11.355,0,0,0-2.462-8.128,14.835,14.835,0,0,1-2.017-4.557c-.636-2.028-.864-4.141-1.4-6.189a3.508,3.508,0,0,0-.484-1.167c-.263-.373-.525-.354-.705.058a8.531,8.531,0,0,0-.451,2c-.083.487-.121.981-.2,1.468a1.748,1.748,0,0,1-1.655,1.249c-.184-.016-.278-.139-.4-.245a54.45,54.45,0,0,1-4.86-5.164,56.791,56.791,0,0,0-4.289-4.62,5.3,5.3,0,0,0-1.293-.966c-.172-.082-.355-.2-.526-.062-.156.128-.088.339-.04.5a14.889,14.889,0,0,0,1.072,2.537,47,47,0,0,1,2.411,5.063,4.643,4.643,0,0,1,.387,2.154,1.265,1.265,0,0,1-1.257,1.215,2.452,2.452,0,0,1-1.759-.763c-.762-.661-1.353-1.481-2.049-2.205a6.157,6.157,0,0,0-.956-.832,1.189,1.189,0,0,0-1.119-.134.928.928,0,0,1,1.034-.3,2.523,2.523,0,0,1,1.359.837c.7.725,1.375,1.471,2.069,2.2a3.269,3.269,0,0,0,1.121.824.927.927,0,0,0,1.032-.095.9.9,0,0,0,.181-.932,20.815,20.815,0,0,0-2.084-5.087c-.531-1.088-1.107-2.156-1.544-3.288a3.413,3.413,0,0,1-.283-1.231.719.719,0,0,1,.986-.757,3.523,3.523,0,0,1,1.292.72,30.549,30.549,0,0,1,3.81,3.861c1.826,2.089,3.665,4.168,5.4,6.338.223.28.392.316.671.082a2.119,2.119,0,0,0,.874-1.59,8.461,8.461,0,0,1,.463-2.4,1.118,1.118,0,0,1,.853-.841,1.071,1.071,0,0,1,1.044.516,5.993,5.993,0,0,1,1.035,2.624c.434,2.341,1,4.651,1.589,6.956a1.909,1.909,0,0,0,.332.7,14.789,14.789,0,0,1,3.039,7.264,1.073,1.073,0,0,0,.4.725,9,9,0,0,1,2.759,4.484,3.343,3.343,0,0,1-.134,2.357,1.353,1.353,0,0,1-1,.9,2.127,2.127,0,0,0,.883-1.791,7.362,7.362,0,0,0-.637-3.014,6.36,6.36,0,0,0-1.877-2.7c-.074-.058-.144-.2-.245-.121-.063.047-.078.184-.08.281-.007.406-.058.808-.089,1.211a9,9,0,0,1-.845,3.378.731.731,0,0,0,.03.81c.286.424.561.854.887,1.247a1.849,1.849,0,0,0,1.583.848,1.294,1.294,0,0,1-1.571-.315,5.809,5.809,0,0,1-.928-1.271c-.095-.161-.2-.314-.336-.518a10.821,10.821,0,0,1-1.543,2.1,11.676,11.676,0,0,1-6.582,3.4c-.448.08-.566.238-.506.674a9.431,9.431,0,0,1,.136,1.7c-.048,1.094-.676,1.477-1.635.957a9.706,9.706,0,0,1-2.643-2.466c-.094-.109-.184-.22-.3-.36a7.4,7.4,0,0,0-.853,1.833,3.521,3.521,0,0,1-.4.966c-.22.307-.48.543-.9.391a2.055,2.055,0,0,0,.9-1.262c.175-.494.333-.993.556-1.47.477-1.018.458-.983-.619-1.341a1.9,1.9,0,0,0-1.893.147.546.546,0,0,0-.293.482,10.5,10.5,0,0,0,.21,2.169,1.608,1.608,0,0,0,1.029,1.272.275.275,0,0,1-.311.043,1.894,1.894,0,0,1-1.14-1.194,7.109,7.109,0,0,1-.361-2.215,4.927,4.927,0,0,0-1.376,1.179c-.35.449-.692.9-1.036,1.358a1.3,1.3,0,0,1-1.3.631,1.237,1.237,0,0,1-1-1.031,5.661,5.661,0,0,1,.039-2.986c.041-.162.122-.32-.057-.476a13.68,13.68,0,0,1-2.986-3.831c-.473.564-.915,1.109-1.378,1.635a5.168,5.168,0,0,1-.7.661,1.611,1.611,0,0,1-2.26-.051l.033-.039a1.789,1.789,0,0,0,2.381-.487c.052-.051.107-.1.155-.154.468-.535.979-1.027,1.423-1.59a29.945,29.945,0,0,1,2.982-3.14,12.844,12.844,0,0,0,1.987-2.266c.2-.307.463-.658.233-1-.242-.367-.684-.235-1.054-.183a17.318,17.318,0,0,0-3.64,1.088,7.828,7.828,0,0,0-4.826,5.286,2.461,2.461,0,0,0,.192,2.269l-.063.062a2.387,2.387,0,0,1-.512-2.409,7.53,7.53,0,0,1,2.188-3.481,6.787,6.787,0,0,1,1.583-1.238.525.525,0,0,0,.289-.489,9.829,9.829,0,0,1,1.563-4.6,2.912,2.912,0,0,1,.24-.366,2.652,2.652,0,0,0,.277-3.065c-.43-1.011-.988-1.955-1.509-2.918a5.7,5.7,0,0,1-.682-1.652A.538.538,0,0,1,836.489,419.983Zm13.139,23.706a2.612,2.612,0,0,0,.521.689,12.027,12.027,0,0,0,2.423,2.241c.206.133.437.3.686.18.285-.139.25-.452.228-.7a13.474,13.474,0,0,0-.377-2.1c-.051-.2-.181-.237-.361-.224-.393.027-.786.049-1.179.07A13.507,13.507,0,0,1,849.628,443.688Z" transform="translate(-832.192 -407.294)"/><path class="e" d="M864.531,439.737a1.849,1.849,0,0,1-1.583-.848c-.326-.393-.6-.824-.887-1.247a.731.731,0,0,1-.03-.81,9,9,0,0,0,.845-3.378c.031-.4.081-.805.089-1.211,0-.1.017-.234.08-.281.1-.075.171.063.245.121a6.36,6.36,0,0,1,1.877,2.7,7.362,7.362,0,0,1,.637,3.014,2.127,2.127,0,0,1-.883,1.791C864.806,439.672,864.7,439.774,864.531,439.737Z" transform="translate(-831.656 -406.85)"/><path class="e" d="M846.648,446.634a1.608,1.608,0,0,1-1.029-1.272,10.5,10.5,0,0,1-.21-2.169.546.546,0,0,1,.293-.482,1.9,1.9,0,0,1,1.893-.147c1.077.357,1.1.323.619,1.341-.223.477-.381.976-.556,1.47a2.055,2.055,0,0,1-.9,1.262Z" transform="translate(-831.953 -406.662)"/><path class="f" d="M838.876,415.183a7.216,7.216,0,0,0,.9,3.307,9.808,9.808,0,0,1,.442,1.324c.165.757-.232,1.11-.956.832-.489-.187-.953-.439-1.424-.669a2.481,2.481,0,0,0-1.345-.305c-.023-.3.23-.257.386-.286a1.841,1.841,0,0,1,1.143.22c.526.251,1.035.538,1.558.8.1.049.181.233.333.079.129-.131.006-.253-.037-.358-.315-.769-.693-1.511-.958-2.3a4.759,4.759,0,0,1-.355-1.834C838.579,415.693,838.578,415.374,838.876,415.183Z" transform="translate(-832.114 -407.152)"/><path class="f" d="M833,440.4l-.2-.158.063-.062a.234.234,0,0,1,.167.181Z" transform="translate(-832.18 -406.702)"/><path class="g" d="M850.75,432.861a2.018,2.018,0,0,1-2.052,2.053,2.1,2.1,0,0,1-2.012-2.04,2.046,2.046,0,0,1,2.056-2.045A1.98,1.98,0,0,1,850.75,432.861Zm-1.77,1.368a1.414,1.414,0,1,0-1.395-1.428A1.381,1.381,0,0,0,848.98,434.229Z" transform="translate(-831.93 -406.87)"/><path class="g" d="M860.225,432.886c0,.964-1.02,2.149-1.845,2.092a2.1,2.1,0,0,1-2.214-2.065,1.985,1.985,0,0,1,1.987-2.075A2.056,2.056,0,0,1,860.225,432.886Zm-1.8,1.343a1.4,1.4,0,0,0,1.461-1.369A1.423,1.423,0,0,0,858.5,431.4a1.4,1.4,0,0,0-1.455,1.378A1.377,1.377,0,0,0,858.421,434.229Z" transform="translate(-831.759 -406.87)"/><path class="f" d="M855.109,439.3a5.754,5.754,0,0,1-2.718-.885,2.352,2.352,0,0,1-.3-.25.251.251,0,0,1-.04-.385c.108-.127.234-.088.352-.008.17.113.332.239.506.344a4.687,4.687,0,0,0,2.029.633,1.285,1.285,0,0,1,.218.018c.169.046.43.005.4.291C855.523,439.317,855.3,439.309,855.109,439.3Z" transform="translate(-831.835 -406.746)"/><path class="e" d="M833.041,440.511a.234.234,0,0,0-.167-.181,2.461,2.461,0,0,1-.192-2.269,7.828,7.828,0,0,1,4.826-5.286,17.318,17.318,0,0,1,3.64-1.088c.37-.052.811-.184,1.054.183.23.347-.033.7-.233,1a12.844,12.844,0,0,1-1.987,2.266,29.945,29.945,0,0,0-2.982,3.14c-.444.563-.955,1.055-1.423,1.59-.048.055-.1.1-.155.154A1.789,1.789,0,0,1,833.041,440.511Z" transform="translate(-832.186 -406.856)"/><path class="e" d="M849.319,443.044a13.507,13.507,0,0,0,1.941.148c.393-.021.786-.043,1.179-.07.18-.013.311.025.361.224a13.474,13.474,0,0,1,.377,2.1c.022.252.057.565-.228.7-.249.123-.481-.047-.686-.18a12.027,12.027,0,0,1-2.423-2.241A2.612,2.612,0,0,1,849.319,443.044Z" transform="translate(-831.883 -406.65)"/><path class="f" d="M848.964,434.219a1.381,1.381,0,0,1-1.395-1.428,1.416,1.416,0,1,1,1.395,1.428Z" transform="translate(-831.914 -406.86)"/><path class="f" d="M858.405,434.219a1.377,1.377,0,0,1-1.373-1.448,1.4,1.4,0,0,1,1.455-1.378,1.423,1.423,0,0,1,1.379,1.457A1.4,1.4,0,0,1,858.405,434.219Z" transform="translate(-831.744 -406.86)"/></g><rect class="h" width="199.125" height="127.354" transform="translate(827.026 282.073)"/><rect class="h" width="226.916" height="147.663" transform="translate(827.026 459.343)"/><rect class="i" width="25.093" height="48.567" transform="translate(921.192 391.619)"/><rect class="i" width="105.229" height="150.018" transform="translate(1105.747 282.073)"/><rect class="i" width="35.616" height="148.939" transform="translate(1134.887 419.95)"/><rect class="i" width="23.474" height="51.069" transform="translate(1142.172 555.938)"/><rect class="i" width="36.425" height="65.566" transform="translate(1221.498 462.041)"/><path class="j" d="M1171.965,449.3a19.3,19.3,0,0,1,8.631-2.213,14.854,14.854,0,0,1,6.64,1.106c3.526,1.569,3.514,3.542,6.861,4.648a11.5,11.5,0,0,0,5.975.221,13.254,13.254,0,0,0,6.861-3.762q.222,10.734.443,21.467c-1.447,1.4-4.536,3.933-8.632,3.984-3.554.044-7.3-1.86-10.111-3.922-3.64-2.673-7.667-3.945-12.021-1.831a11,11,0,0,0-4.426,3.984Q1172.076,461.139,1171.965,449.3Z" transform="translate(7.647 3.279)"/><rect class="k" width="2.213" height="41.608" transform="translate(1177.989 448.409)"/><g transform="translate(747.721 373.389)"><path class="l" d="M913.278,404.713l-129.949-3.98v-2.22l129.949-3.98Z" transform="translate(-747.079 -371.057)"/><path class="l" d="M747.721,400.039c17.057-6.329,38.22-17.127,51.338-28.566l-10.332,28.566,10.332,28.56C785.941,417.16,764.778,406.362,747.721,400.039Z" transform="translate(-747.721 -371.473)"/></g><g transform="matrix(0.985, 0.174, -0.174, 0.985, 1053.143, 538.841)"><path class="l" d="M1141.7,548.366l-83.323,99.8-1.747-1.37,77.059-104.711Z" transform="translate(-1035.137 -542.084)"/><g transform="translate(0 75.896)"><path class="l" d="M1035.518,674.661c5.545-17.328,10.108-40.645,9.2-58.025l16.1,25.758,28.849,9.493C1072.576,655.152,1051.019,665.141,1035.518,674.661Z" transform="translate(-1035.518 -616.636)"/></g></g></g></svg>