<svg xmlns="http://www.w3.org/2000/svg" xmlns:xlink="http://www.w3.org/1999/xlink" width="428.425" height="314.187" viewBox="0 0 428.425 314.187"><defs><style>.a{fill:none;}.b{fill:#eadff1;}.c{fill:#ffc84f;}.d{fill:#d19442;}.e,.k{fill:#d8a35d;}.f{fill:#9bb6cc;}.g{fill:#dbfaff;}.h{fill:#b7cbd2;}.i{fill:#72727a;}.j{fill:#b6d6f0;}.k,.n{fill-rule:evenodd;}.l,.n{fill:#947dce;}.m{fill:#a088db;}.o{isolation:isolate;}.p{clip-path:url(#a);}.q{fill:#fff;}.r{fill:#e6e6e6;}.s{fill:#2b667e;}.t{fill:#fbfce2;}.u{fill:#3983c4;}</style><clipPath id="a"><path class="a" d="M909.637,439.084l-5.826-35.026,29.2-21.355,5.826,35.026Z" transform="translate(-903.811 -382.703)"/></clipPath></defs><g transform="translate(-829.627 -324.597)"><path class="b" d="M1096.461,592.428c-37.93,5.145-52.622,54.211-142.454,53.079-17.928-.226-34.848-10.349-48.848-21.551-7.092-5.674-13.532-13.883-12.436-22.9,1.713-14.094,19.536-19.943,26.348-32.4,1.366-2.5,2.273-5.423,1.6-8.189-1.16-4.8-6.354-7.264-10.966-9.028q-21.236-8.116-42.952-14.9c-12-3.747-25.125-7.926-31.924-18.5-3.633-5.65-4.955-12.511-5.171-19.225-.479-14.861,4.18-29.687,12.2-42.2,6.7-10.456,15.871-19.5,26.991-25.03,23.584-11.735,51.653-6.386,77.517-1.388,42.838,8.277,86.173,14.89,129.8,15.457,50.614.657,103.8-6.374,149.8,14.748,12.054,5.535,25.393,12.994,29.223,25.693C1277.227,559.126,1166.632,582.911,1096.461,592.428Z" transform="translate(0 -6.743)"/><g transform="translate(854.024 324.597)"><path class="c" d="M1140.309,347.863s-5.383-3.229-10.764,4.306l-3.23,6.459s1.077,1.076,3.23,0c0,0-.981,7.584.047,11.865l3.182-12.943Z" transform="translate(-874.044 -326.12)"/><path class="d" d="M1148.763,389.651s-1.178,13.142,6.929,20.409-18.682,0-18.682,0,4.985-12.587,3.867-20.409S1148.763,389.651,1148.763,389.651Z" transform="translate(-874.765 -328.752)"/><path class="e" d="M1129.83,373.232c0,10.678,6.345,19.336,14.172,19.336s14.173-8.658,14.173-19.336-6.346-19.337-14.173-19.337c-4.082,0-9.01-.424-11.6,3.343C1130.033,360.695,1129.83,368.122,1129.83,373.232Z" transform="translate(-874.281 -326.573)"/><g transform="translate(259.243 20.571)"><path class="c" d="M1138.943,361.645s24.536,13.6,17.254-8.238C1151.158,338.3,1122.21,351.908,1138.943,361.645Z" transform="translate(-1133.791 -346.656)"/><path class="c" d="M1142.594,356.5s-15.43-8.078-1.781-8.692,18.934.7,17.723,26.5C1158.536,374.307,1154.57,353.787,1142.594,356.5Z" transform="translate(-1133.885 -346.727)"/></g><path class="c" d="M1140.583,347.645s.237-5.623,7.773-4.546,11.284,5.452,12.361,9.759,2.958,8.2,4.034,8.2c0,0-4.1.518-5.177-.558,0,0,2.794,7.742-.756,14.1,0,0-1.4-9.792-6.779-10.868S1140.583,347.645,1140.583,347.645Z" transform="translate(-875.006 -325.836)"/><g transform="translate(19.969 81.174)"><path class="f" d="M1055.527,446.176l-73.15-27.737a4.559,4.559,0,0,0-4.023.67l-95.7,79.286-5.446-1.738.837,6.317a1.481,1.481,0,0,0,.959,1.1l73.425,31.5a4.587,4.587,0,0,0,4.095-.562l103.7-84.777a1.4,1.4,0,0,0,.682-1.327l-1.182-6.435-4.743.746Z" transform="translate(-877.204 -412.089)"/><path class="g" d="M981.368,411.838a4.687,4.687,0,0,0-4.015.676L877.861,495a1.309,1.309,0,0,0,.32,2.4l73.274,31.246a4.342,4.342,0,0,0,4.086-.568l103.516-84.7c1.075-.824.876-1.908-.448-2.436Z" transform="translate(-877.204 -411.644)"/><path class="h" d="M989.1,424.626l5.762,2.187,4.75-3.924-5.759-2.192Z" transform="translate(-884.754 -412.255)"/><path class="h" d="M979.537,432.539l5.728,2.225,4.762-3.942-5.755-2.183Z" transform="translate(-884.109 -412.791)"/><path class="h" d="M997.99,428.049l5.8,2.2,4.77-3.935-5.792-2.187Z" transform="translate(-885.354 -412.487)"/><path class="h" d="M997.886,436.917l5.8,2.213,12.042-9.918-5.857-2.243Z" transform="translate(-885.347 -412.678)"/><path class="h" d="M1005.557,439.878l5.812,2.218,12.082-9.92-5.858-2.264Z" transform="translate(-885.865 -412.877)"/><path class="h" d="M1013.391,442.857l5.852,2.279,12.135-9.969-5.9-2.251Z" transform="translate(-886.393 -413.08)"/><path class="h" d="M973.172,437.814l5.712,2.2,4.748-3.9L977.9,433.9Z" transform="translate(-883.679 -413.146)"/><path class="h" d="M966.815,443.076l5.706,2.239,4.724-3.925-5.7-2.206Z" transform="translate(-883.25 -413.503)"/><path class="h" d="M960.468,448.3l5.685,2.262,4.721-3.933-5.683-2.207Z" transform="translate(-882.822 -413.856)"/><path class="h" d="M990.3,434.4l5.769,2.233,4.752-3.946-5.766-2.206Z" transform="translate(-884.835 -412.916)"/><path class="h" d="M983.926,439.7l5.737,2.236L994.411,438l-5.752-2.235Z" transform="translate(-884.405 -413.272)"/><path class="h" d="M977.5,444.966l5.742,2.261,4.769-3.951-5.762-2.212Z" transform="translate(-883.972 -413.629)"/><path class="h" d="M971.14,450.232l5.712,2.269,4.763-3.942-5.747-2.232Z" transform="translate(-883.542 -413.985)"/><path class="h" d="M964.766,455.5l5.708,2.24,4.75-3.9-5.72-2.262Z" transform="translate(-883.112 -414.339)"/><path class="h" d="M958.437,460.779l5.663,2.237,4.74-3.876-5.7-2.27Z" transform="translate(-882.685 -414.696)"/><path class="h" d="M952.065,465.983l5.665,2.283,4.727-3.91-5.678-2.269Z" transform="translate(-882.255 -415.048)"/><path class="h" d="M945.743,471.225l5.621,2.283,4.735-3.893-5.673-2.273Z" transform="translate(-881.829 -415.402)"/><path class="h" d="M939.583,476.32l5.646,2.269,4.718-3.87-5.642-2.271Z" transform="translate(-881.413 -415.747)"/><path class="h" d="M933.269,481.53l5.61,2.274,4.713-3.858-5.625-2.277Z" transform="translate(-880.987 -416.099)"/><path class="h" d="M926.94,486.761l5.609,2.308,4.715-3.881-5.622-2.294Z" transform="translate(-880.56 -416.452)"/><path class="h" d="M920.631,491.97l5.6,2.31,4.716-3.87-5.609-2.289Z" transform="translate(-880.134 -416.805)"/><path class="h" d="M914.343,497.154l5.568,2.313,4.7-3.856-5.582-2.313Z" transform="translate(-879.71 -417.154)"/><path class="h" d="M908.057,502.339l5.553,2.336,4.683-3.863-5.561-2.336Z" transform="translate(-879.286 -417.503)"/><path class="h" d="M999.1,445.575l5.822,2.273,4.785-3.967-5.816-2.225Z" transform="translate(-885.429 -413.669)"/><path class="h" d="M992.66,450.86l5.8,2.276,4.8-3.959-5.816-2.225Z" transform="translate(-884.994 -414.027)"/><path class="h" d="M986.26,456.157l5.778,2.277,4.767-3.939-5.774-2.238Z" transform="translate(-884.562 -414.385)"/><path class="h" d="M979.836,461.468l5.766,2.282,4.781-3.933-5.782-2.281Z" transform="translate(-884.129 -414.741)"/><path class="h" d="M973.446,466.751l5.731,2.257,4.773-3.891-5.758-2.295Z" transform="translate(-883.698 -415.098)"/><path class="h" d="M967.042,472.021l5.729,2.277,4.758-3.9-5.733-2.295Z" transform="translate(-883.266 -415.454)"/><path class="h" d="M960.66,477.272l5.715,2.306,4.755-3.913-5.727-2.329Z" transform="translate(-882.835 -415.807)"/><path class="h" d="M954.5,482.37l5.677,2.3,4.745-3.893-5.7-2.33Z" transform="translate(-882.42 -416.152)"/><path class="h" d="M948.126,487.633l5.672,2.306,4.758-3.884-5.7-2.323Z" transform="translate(-881.989 -416.508)"/><path class="h" d="M941.756,492.86l5.669,2.367,4.737-3.931-5.677-2.319Z" transform="translate(-881.56 -416.862)"/><path class="h" d="M935.409,498.084l5.654,2.349,4.716-3.9-5.641-2.331Z" transform="translate(-881.131 -417.215)"/><path class="h" d="M929.079,503.314l5.612,2.361,4.735-3.895-5.649-2.338Z" transform="translate(-880.704 -417.569)"/><path class="h" d="M922.745,508.547l5.6,2.389,4.713-3.907-5.618-2.335Z" transform="translate(-880.277 -417.923)"/><path class="h" d="M1006.939,448.593l5.834,2.283,4.8-3.97-5.84-2.232Z" transform="translate(-885.958 -413.873)"/><path class="h" d="M1000.478,453.915l5.835,2.279,4.8-3.955-5.83-2.241Z" transform="translate(-885.522 -414.232)"/><path class="h" d="M994.029,459.244l5.817,2.285,4.811-3.949-5.838-2.283Z" transform="translate(-885.087 -414.59)"/><path class="h" d="M987.614,464.546l5.787,2.259,4.785-3.9-5.795-2.3Z" transform="translate(-884.654 -414.948)"/><path class="h" d="M981.172,469.837l5.778,2.281,4.8-3.914-5.8-2.3Z" transform="translate(-884.219 -415.306)"/><path class="h" d="M974.765,475.107l5.751,2.312,4.778-3.927-5.775-2.333Z" transform="translate(-883.787 -415.66)"/><path class="h" d="M968.35,480.4l5.749,2.333,4.764-3.935-5.75-2.327Z" transform="translate(-883.354 -416.019)"/><path class="h" d="M962.161,485.507l5.726,2.309,4.756-3.9-5.725-2.33Z" transform="translate(-882.936 -416.364)"/><path class="h" d="M955.779,490.751l5.7,2.373,4.748-3.944-5.713-2.325Z" transform="translate(-882.506 -416.719)"/><path class="h" d="M949.386,496l5.69,2.354,4.764-3.915-5.714-2.332Z" transform="translate(-882.074 -417.073)"/><path class="h" d="M943.005,501.249l5.679,2.363,4.752-3.908-5.691-2.342Z" transform="translate(-881.644 -417.428)"/><path class="h" d="M936.647,506.5l5.671,2.391,4.724-3.92-5.653-2.341Z" transform="translate(-881.215 -417.784)"/><path class="h" d="M923.955,516.613l5.61,2.352,10.681-8.746-5.667-2.379Z" transform="translate(-880.358 -418.135)"/><path class="h" d="M1027.688,440.878l5.894,2.267,6.1-5-5.927-2.234Z" transform="translate(-887.358 -413.281)"/><path class="h" d="M1014.7,451.624l5.888,2.3,4.8-3.991-5.868-2.258Z" transform="translate(-886.481 -414.076)"/><path class="h" d="M1021.175,446.278l5.9,2.3,4.824-4-5.9-2.241Z" transform="translate(-886.918 -413.715)"/><path class="h" d="M969.763,486.468l5.747,2.336,40.8-33.524-5.87-2.259Z" transform="translate(-883.449 -414.436)"/><path class="h" d="M963.323,493.855l5.779,2.365,4.754-3.937-5.736-2.366Z" transform="translate(-883.015 -416.926)"/><path class="h" d="M956.944,499.124l5.726,2.394,4.771-3.949-5.741-2.353Z" transform="translate(-882.584 -417.283)"/><path class="h" d="M950.533,504.39l5.719,2.381,4.774-3.925-5.729-2.354Z" transform="translate(-882.152 -417.639)"/><path class="h" d="M944.153,509.66l5.692,2.375,4.776-3.9-5.718-2.362Z" transform="translate(-881.721 -417.995)"/><path class="h" d="M931.408,519.784l5.651,2.391,10.719-8.811-5.7-2.382Z" transform="translate(-880.861 -418.347)"/><path class="h" d="M901.791,507.554l5.525,2.353L912,506.042l-5.547-2.317Z" transform="translate(-878.863 -417.857)"/><path class="h" d="M991.48,442.63l5.773,2.237,4.784-3.934-5.8-2.247Z" transform="translate(-884.915 -413.469)"/><path class="h" d="M985.072,447.887l5.77,2.29,4.77-3.974-5.777-2.2Z" transform="translate(-884.482 -413.827)"/><path class="h" d="M978.678,453.2l5.751,2.287,4.76-3.955-5.757-2.237Z" transform="translate(-884.051 -414.185)"/><path class="h" d="M972.292,458.467l5.737,2.279,4.763-3.934-5.747-2.245Z" transform="translate(-883.62 -414.54)"/><path class="h" d="M965.893,463.715l5.723,2.308,4.765-3.95-5.741-2.246Z" transform="translate(-883.188 -414.895)"/><path class="h" d="M959.524,469l5.71,2.3,4.755-3.928-5.719-2.266Z" transform="translate(-882.758 -415.252)"/><path class="h" d="M953.171,474.234l5.672,2.3,4.75-3.909-5.7-2.286Z" transform="translate(-882.33 -415.605)"/><path class="h" d="M947.013,479.327l5.664,2.324,4.729-3.919-5.673-2.286Z" transform="translate(-881.914 -415.949)"/><path class="h" d="M940.674,484.573l5.649,2.305,4.72-3.885-5.652-2.313Z" transform="translate(-881.487 -416.303)"/><path class="h" d="M934.339,489.786l5.622,2.33,4.73-3.9-5.653-2.313Z" transform="translate(-881.059 -416.655)"/><path class="h" d="M928.014,495l5.6,2.366,4.708-3.915-5.624-2.324Z" transform="translate(-880.632 -417.007)"/><path class="h" d="M921.677,500.248l5.622,2.316,4.7-3.856-5.6-2.341Z" transform="translate(-880.205 -417.361)"/><path class="h" d="M919.465,501.513l-10.539,8.715,12.554,5.348,4.728-3.881-7.036-2.974,5.9-4.875Z" transform="translate(-879.344 -417.708)"/><path class="h" d="M950.981,456.194l5.63,2.257,4.735-3.9-5.684-2.257Z" transform="translate(-882.182 -414.387)"/><path class="h" d="M944.645,461.417l5.647,2.271,4.714-3.908-5.65-2.246Z" transform="translate(-881.754 -414.741)"/><path class="h" d="M938.349,466.651l5.594,2.256,4.725-3.876-5.648-2.256Z" transform="translate(-881.33 -415.094)"/><path class="h" d="M932.043,471.855l5.588,2.3,4.7-3.9-5.614-2.241Z" transform="translate(-880.904 -415.448)"/><path class="h" d="M922.591,479.7l5.574,2.3,4.693-3.88-5.594-2.287Z" transform="translate(-880.266 -415.975)"/><path class="h" d="M916.317,484.9l5.552,2.312,4.674-3.879L920.974,481Z" transform="translate(-879.843 -416.324)"/><path class="h" d="M910.048,490.075l5.523,2.323,4.679-3.876-5.562-2.318Z" transform="translate(-879.42 -416.675)"/><path class="h" d="M903.758,495.272l5.542,2.313,4.643-3.852-5.511-2.313Z" transform="translate(-878.996 -417.027)"/><path class="h" d="M893.283,503.719l5.5,2.317,8.57-7.08-5.514-2.319Z" transform="translate(-878.289 -417.379)"/><path class="h" d="M975.191,494.113l17.765,7.273,31.463-25.757-18.059-7.134Z" transform="translate(-883.816 -415.48)"/></g><path class="f" d="M960.818,324.673a1.51,1.51,0,0,0-1.492.363l-102.042,79.8a4.532,4.532,0,0,0-1.448,3.9l14.326,82.2a1.392,1.392,0,0,0,.808,1.208h0c.008.039.039.034.039.034l3.669,1.334.128-3.731,99.1-82.833a4.521,4.521,0,0,0,1.43-3.885l-13.17-73.812.737.417,1.672-3.605-3.758-1.386Z" transform="translate(-855.79 -324.597)"/><path class="h" d="M963.309,326.493,861.268,406.3a4.579,4.579,0,0,0-1.433,3.905l14.328,82.21a1.273,1.273,0,0,0,2.259.829L977.891,408.4a4.546,4.546,0,0,0,1.454-3.906L965.561,327.32C965.334,326.013,964.344,325.631,963.309,326.493Z" transform="translate(-856.06 -324.693)"/><path class="i" d="M972.324,399.219l-94.447,78.947.347,1.991,96.1-80.329-11.566-64.6-1.658,1.36Z" transform="translate(-857.28 -325.314)"/><path class="j" d="M877.021,478.264l94.447-78.947-11.223-62.637-95.058,73.913Z" transform="translate(-856.424 -325.412)"/><g transform="translate(170.575 114.638)"><path class="k" d="M1067.289,481.037c-.835-.688-12.219-6.392-15.706-11.107s-8.191-12.076-10.517-14.193c-2.736-2.491-1.916-4.033,1.6-1.382a54.786,54.786,0,0,1,7.166,6.537c.321.488-2.1-2.5-5-5.576-3.084-3.272-6.657-6.685-6.059-7.3,1.161-1.2,10.761,7.8,12.126,9.58a53.074,53.074,0,0,0-3.666-4.656c-1.79-2.02-4.206-4.115-4.013-4.93.3-1.285,6.136,3.027,9.679,7.362.213-.016-.451-1.707-5.029-6.56-.461-.488-1.057-2.078.946-.781,4.215,2.731,6.252,3.59,9.8,9.1,3.459,5.37,5.883,12.139,9.639,15.235Z" transform="translate(-1038.707 -447.53)"/><path class="k" d="M1053.563,473.149s-7.251-1.392-10.878-5.686c-2.155-2.552-2.87-2.03-3.383-2.377-1.7-1.152,2.37-1.5,4.615.415,1.825,1.557,6.011.513,7.464,1.235s4.93,3.407,4.969,4.579S1053.563,473.149,1053.563,473.149Z" transform="translate(-1038.72 -448.651)"/></g><path class="l" d="M1070.008,508.326s-3.931-16.927-5.1-24.488a13.25,13.25,0,0,1,4.391-11.953l10.248-.683Z" transform="translate(-869.889 -334.489)"/><path class="m" d="M1058.9,526.366c5.771-39.325,13-63.315,29.825-85.091,10.444-13.521,28.9-30.551,38.1-34.96a17.944,17.944,0,0,0,8.17,1.274s9.3.085,12.519-2.387c8.6,3.3,22.163,13.955,31.619,26.38,16.7,21.941,17.558,35.055,22.25,82.855,3.6,36.622,4.638,29.989-2.816,51.018-13.591,38.34-46.788,40.582-51.6,41.469-33.264,6.136-82.161-1.021-97.3-30.521C1039.315,556.223,1048.819,595.091,1058.9,526.366Z" transform="translate(-868.57 -330.035)"/><g transform="translate(98.943 170.296)"><path class="k" d="M1000.01,531.072c-.844-.668-8.791-10.386-14.1-12.871s-13.443-5.674-15.989-7.5c-3-2.15-4.315-1.128-1,1.723a57.639,57.639,0,0,0,7.857,5.629c.542.221-2.865-1.55-6.464-3.757-3.827-2.347-7.894-5.129-8.365-4.466-.912,1.285,9.844,8.788,11.862,9.771a56.174,56.174,0,0,1-5.292-2.663c-2.338-1.343-4.882-3.258-5.631-2.942-1.18.5,4.238,5.245,9.193,7.846.03.2-1.749-.141-7.427-3.626-.571-.35-2.238-.646-.555,1.015,3.543,3.5,4.808,5.261,10.9,7.672,5.939,2.35,13.013,3.5,16.813,6.506Z" transform="translate(-961.892 -507.372)"/><path class="k" d="M989.43,519.537s-2.891-6.559-7.823-9.246c-2.931-1.6-2.577-2.352-3.022-2.775-1.478-1.406-.952,2.467,1.383,4.253,1.9,1.452,1.776,5.544,2.784,6.785s4.349,4.054,5.493,3.9S989.43,519.537,989.43,519.537Z" transform="translate(-962.963 -507.215)"/></g><path class="n" d="M1074.952,524.136c-1.925-9-6.476-36,8.253-62.4,13.753-24.645,44.632-49.331,66.342-40.749,18.344,7.251,22.326,35.163,25.156,55,3.4,23.852,10.762,75.446-26.743,108.4-21.463,18.86-52.846,27.425-82.784,20.308-36.422-8.657-64.883-39.138-72.437-77.858l8.611-8.239a211,211,0,0,1,73.6,5.535Z" transform="translate(-865.031 -330.983)"/><path class="d" d="M1130.168,370c-.691,1.957-1.7,4.956-2.118,6.2a.538.538,0,0,0,.4.7l3.422.753a.543.543,0,0,0,.649-.631l-1.31-6.929A.542.542,0,0,0,1130.168,370Z" transform="translate(-874.159 -327.636)"/><path class="c" d="M1140.583,362.9s8.813,4.815,8.944,11.321c0,0,2.7-6.563,2.212-8.046S1140.583,362.9,1140.583,362.9Z" transform="translate(-875.006 -327.181)"/><path class="c" d="M1152.086,369.121a3.442,3.442,0,0,1,3.161-1.968c2.212.131,1.041,8.818.26,9.029s2.233.21,1.822,6.456,5.814-12.868,3.737-17.95-4.127-1.7-6.469-.136A6.38,6.38,0,0,0,1152.086,369.121Z" transform="translate(-875.783 -327.12)"/><g transform="translate(44.781 54.185)"><g class="o"><g class="p"><g transform="translate(1.512 0)"><path class="q" d="M915.2,429.722c-1.221.892-1.593-1.379-.378-2.268l17.619-12.885c1.221-.892,1.592,1.379.377,2.268L915.2,429.722m-1.25-7.511c-1.221.892-1.592-1.379-.377-2.268l17.618-12.885c1.221-.893,1.592,1.379.377,2.268L913.946,422.21m-1.39-7.4c-1.221.892-1.6-1.375-.378-2.268l17.761-12.988c1.221-.893,1.592,1.379.377,2.268l-17.76,12.988M933.122,382.7,911.535,398.49l1.513,9.092-7.581,5.543-.027.066,4.307,25.892,29.2-21.355L933.122,382.7" transform="translate(-905.433 -382.703)"/><path class="r" d="M911.534,399.632l-6.1,14.66.034-.025,7.58-5.543-1.512-9.092" transform="translate(-905.433 -383.845)"/><path class="s" d="M930.372,400.757l-17.761,12.988c-1.22.892-.843,3.16.378,2.268l17.76-12.988c1.215-.889.844-3.161-.377-2.268" transform="translate(-905.867 -383.907)"/><path class="s" d="M931.721,408.805,914.1,421.69c-1.215.889-.844,3.16.377,2.268L932.1,411.073c1.215-.889.844-3.161-.377-2.268" transform="translate(-905.967 -384.451)"/><path class="s" d="M933.061,416.86l-17.619,12.885c-1.215.889-.843,3.16.378,2.268l17.618-12.885c1.215-.889.844-3.16-.377-2.268" transform="translate(-906.058 -384.994)"/></g></g></g></g></g><g transform="translate(832.596 544.565)"><path class="j" d="M832.811,581.985l38.127-21.5,63.9,20.741V589l-38.889,25.926-63.138-25.621,1.22-1.6-.153-4.5Z" transform="translate(-832.811 -560.482)"/><path class="t" d="M833.956,584.85l61.308,24.859L933.7,584.85v4.5l-37.669,25.24-61.918-25.24Z" transform="translate(-832.888 -562.126)"/><path class="u" d="M857.667,594.7s-7.946,3.774-8.174,12.7l15.022,5.719s1.3-10.142,8.938-12.014Z" transform="translate(-833.936 -562.791)"/></g></g></svg>