<svg xmlns="http://www.w3.org/2000/svg" width="464.664" height="336.866" viewBox="0 0 464.664 336.866"><defs><style>.a{fill:#eadff1;}.b{fill:#62548a;}.c{fill:#947dce;}.d{fill:#f3edf7;}.e{fill:#fff;}</style></defs><g transform="translate(-778.805 -381.281)"><path class="a" d="M872.347,529.791c30.074-44.753,62.792-88,101.3-125.751,14.209-13.93,33.8-28.053,52.324-20.783,15.857,6.225,22.317,25.628,21.81,42.654s-5.924,33.743-5.245,50.764,10.269,35.83,27.072,38.63c15.974,2.662,29.97-9.744,42.622-19.851a206.659,206.659,0,0,1,87.328-40.851c9.214-1.877,20.246-2.56,26.527,4.439,6.869,7.654,3.915,19.6.569,29.325l-23.88,69.4c-3.339,9.7-5.167,23.322,4.153,27.617,6.8,3.132,14.752-1.569,22.157-.486,9.289,1.359,15.01,11.834,14.336,21.2s-6.018,17.677-11.477,25.314c-18.194,25.458-39.9,48.934-66.595,65.26s-58.8,25.068-89.7,20.08c-14.393-2.324-30.129-9.45-34.008-23.5-1.968-7.135-.466-14.891-2.516-22-3.965-13.748-20.238-20.676-34.489-19.408S977.5,660.4,964.588,666.549a277.525,277.525,0,0,1-157.569,24.009c-10.206-1.461-21.724-4.5-26.311-13.734-4.716-9.494.208-20.763,5.326-30.046A574.024,574.024,0,0,1,889.643,511.39" transform="translate(0 0)"/><g transform="translate(800.086 456.929)"><g transform="translate(0 185.445)"><rect class="b" width="422.102" height="12.314" rx="5.736"/></g><g transform="translate(34.147 55.583)"><g transform="translate(4.822 83.757)"><path class="c" d="M874.076,616.139c3.034,0,10.053-.394,14.846-3.736a10.358,10.358,0,0,0,4.759-8.879,10.959,10.959,0,0,0-4.9-9.532c-5.256-3.629-12.681-3.152-13-3.132l.586,4.968c.052,0,4.92-.273,7.992,1.865a6.647,6.647,0,0,1,2.725,5.83,5.925,5.925,0,0,1-2.635,5.212c-3.96,2.762-11.238,2.4-11.309,2.4L872.6,616.1C872.691,616.1,873.226,616.139,874.076,616.139Z" transform="translate(-832.182 -580.913)"/><path class="c" d="M883.188,581.59H834.941l7.148,45.719h33.594Z" transform="translate(-834.941 -581.59)"/></g><path class="d" d="M859.624,577.282a40.366,40.366,0,0,0,7.649-7.382,25.318,25.318,0,0,0,5.01-10.505,18.888,18.888,0,0,0-2.324-13.09,29.856,29.856,0,0,0-8.45-8.865c-.424-.308-.725-.545-1.011-.773l-.893-.705-1.746-1.421c-1.139-.954-2.248-1.915-3.269-2.883-2.01-1.887-3.907-4.005-4.478-5.4-.28-.649-.041-.973.334-.245a3.935,3.935,0,0,1,.293,1.3c.016.427-.014.7.079.742.089.135.7-.423,1.5-1.014.823-.621,1.89-1.378,3.053-2.17a11.673,11.673,0,1,0-15.1-17.619l-.236.26c-1.205,1.3-2.471,2.694-3.817,4.378a30.429,30.429,0,0,0-4.145,6.575,17.615,17.615,0,0,0-1.176,11.219,18.464,18.464,0,0,0,4.522,8.171,30.185,30.185,0,0,0,4.955,4.225,53.4,53.4,0,0,0,4.736,2.928c1.555.869,3.094,1.643,4.628,2.386l4.449,2.053a17.966,17.966,0,0,1,5.563,3.727,7.28,7.28,0,0,1,2.064,4.953c.106,4.18-2.989,9.839-6.594,13.986l-.2.224a3.393,3.393,0,0,0,4.595,4.942Z" transform="translate(-830.448 -503.551)"/></g><g transform="translate(137.776)"><path class="e" d="M0,0H231.294a0,0,0,0,1,0,0V10.677A12.692,12.692,0,0,1,218.6,23.369H12.692A12.692,12.692,0,0,1,0,10.677V0A0,0,0,0,1,0,0Z" transform="translate(0 134.784)"/><rect class="c" width="47.468" height="20.448" transform="translate(92.373 158.153)"/><path class="c" d="M8.879,0H222.415a8.879,8.879,0,0,1,8.879,8.879V135.162a0,0,0,0,1,0,0H0a0,0,0,0,1,0,0V8.879A8.879,8.879,0,0,1,8.879,0Z"/><rect class="e" width="213.947" height="117.093" transform="translate(9.396 9.724)"/><path class="e" d="M1040.334,587.613a5.224,5.224,0,1,1-5.225-5.224A5.224,5.224,0,0,1,1040.334,587.613Z" transform="translate(-919.463 -442.192)"/><path class="b" d="M1082.288,625.014H993.343a6.845,6.845,0,0,1,6.845-6.844h75.255a6.844,6.844,0,0,1,6.844,6.844Z" transform="translate(-922.141 -439.57)"/><g transform="translate(24.799 24.006)"><rect class="c" width="95.094" height="91.036" rx="3.454" transform="translate(87.387)"/><rect class="a" width="70.53" height="51.045" rx="3.567" transform="translate(0 39.991)"/><g transform="translate(2.204 41.867)"><g transform="translate(5.82 31.187)"><path class="e" d="M1.208,0H53.215a1.208,1.208,0,0,1,1.208,1.208v.638a1.209,1.209,0,0,1-1.209,1.209H1.209A1.209,1.209,0,0,1,0,1.846V1.208A1.208,1.208,0,0,1,1.208,0Z"/><path class="e" d="M1.209,0H31.066a1.209,1.209,0,0,1,1.209,1.209v.638a1.208,1.208,0,0,1-1.208,1.208H1.208A1.208,1.208,0,0,1,0,1.846V1.209A1.209,1.209,0,0,1,1.209,0Z" transform="translate(0 7.172)"/></g><circle class="e" cx="9.696" cy="9.696" r="9.696" transform="translate(0 13.712) rotate(-45)"/></g><g transform="translate(0.595 10.418)"><rect class="e" width="41.161" height="3.054" rx="1.208"/><rect class="e" width="56.746" height="3.054" rx="1.208" transform="translate(0 19.232)"/><rect class="e" width="69.552" height="3.054" rx="1.208" transform="translate(0 9.575)"/></g><g transform="translate(105.324 16.44)"><rect class="e" width="59.533" height="59.533"/><path class="a" d="M1078.012,528.406l10.628-12.71,17.712,16v15.363h-28.339Z" transform="translate(-1046.059 -487.525)"/><path class="b" d="M1048.241,528.581l12-18.422,38.214,37.305h-50.214Z" transform="translate(-1048.241 -487.931)"/></g></g></g></g></g></svg>