<svg xmlns="http://www.w3.org/2000/svg" width="82.797" height="38.953" viewBox="0 0 82.797 38.953"><defs><style>.a{fill:none;stroke:#62548a;stroke-miterlimit:10;stroke-width:2px;}</style></defs><g transform="translate(1.176 1.414)"><rect class="a" width="12.174" height="12.174" transform="translate(3.183 23.637)"/><rect class="a" width="12.174" height="12.174" transform="translate(51.975) rotate(45)"/><ellipse class="a" cx="6.299" cy="6.299" rx="6.299" ry="6.299" transform="translate(23.339 23.424)"/><path class="a" d="M778.087,561.943h-7.34l-3.67,6.357,3.67,6.357h7.34l3.67-6.357Z" transform="translate(-701.291 -559.691)"/><path class="a" d="M730.38,604.331l1.929,3.909,4.314.627L733.5,611.91l.737,4.3-3.858-2.029-3.858,2.029.737-4.3-3.122-3.043,4.314-.627Z" transform="translate(-680.216 -580.495)"/><line class="a" y1="10.369" x2="10.369" transform="translate(67.172 24.539)"/><path class="a" d="M644.865,561.441l-6.981,5.072,2.667,8.207h8.629l2.667-8.207Z" transform="translate(-637.884 -559.445)"/><path class="a" d="M689.962,563.841l-6.357,11.01h12.714Z" transform="translate(-660.323 -560.623)"/></g></svg>