<svg xmlns="http://www.w3.org/2000/svg" width="86.633" height="27.75" viewBox="0 0 86.633 27.75"><defs><style>.a{fill:#5497f1;}</style></defs><g transform="translate(0 0.697)"><path class="a" d="M887.914,603.911a2.115,2.115,0,1,0,2.115-2.115A2.118,2.118,0,0,0,887.914,603.911Zm3.384,0a1.269,1.269,0,1,1-1.269-1.269A1.271,1.271,0,0,1,891.3,603.911Z" transform="translate(-886.645 -581.071)"/><path class="a" d="M898.121,585.471l-2.4-5.344,3.519-12.317a.419.419,0,0,0-.006-.25l-.423-1.269a.422.422,0,0,0-.38-.288.415.415,0,0,0-.407.249l-4.267,9.5-4.267-9.5a.417.417,0,0,0-.407-.249.423.423,0,0,0-.38.288l-.423,1.269a.429.429,0,0,0-.006.25l3.519,12.317-2.4,5.344c-.1-.008-.2-.013-.29-.013a3.39,3.39,0,1,0,2.236.848l1.141-2.118a1.289,1.289,0,0,1,2.552,0l1.14,2.118a3.381,3.381,0,1,0,1.946-.834Zm-9-17.767.039-.116,4.131,9.2-.962,2.142Zm5.155,14.387a3.25,3.25,0,0,0-2.542,1.7l-1.309,2.431a.422.422,0,0,0,.13.547,2.535,2.535,0,1,1-1.453-.46,2.569,2.569,0,0,1,.468.045.424.424,0,0,0,.463-.242l8.315-18.519.038.116Zm4.13,9.289a2.536,2.536,0,0,1-1.453-4.616.423.423,0,0,0,.13-.547l-1.309-2.43a3.253,3.253,0,0,0-.857-1.016.421.421,0,0,0,.09-.156l.35-1.225,2.118,4.718a.42.42,0,0,0,.463.243,2.57,2.57,0,0,1,.468-.045,2.538,2.538,0,1,1,0,5.076Z" transform="translate(-885.723 -566.001)"/><path class="a" d="M898.872,590.838h.846v.846h-.846Z" transform="translate(-891.259 -576.457)"/><path class="a" d="M906.1,601.8a2.115,2.115,0,1,0,2.115,2.115A2.117,2.117,0,0,0,906.1,601.8Zm0,3.384a1.269,1.269,0,1,1,1.269-1.269A1.271,1.271,0,0,1,906.1,605.18Z" transform="translate(-893.411 -581.071)"/></g><g transform="translate(27.209)"><path class="a" d="M956.424,568.564l-3.336-3.336a1.459,1.459,0,0,0-1.039-.43H941.267a1.471,1.471,0,0,0-1.469,1.469V569.5h-5.612a1.471,1.471,0,0,0-1.469,1.469v9.421a.555.555,0,0,0,1.11,0v-9.421a.36.36,0,0,1,.36-.359h10.547v2.481a1.471,1.471,0,0,0,1.469,1.469h2.462v16.515a.36.36,0,0,1-.36.36H934.185a.36.36,0,0,1-.36-.36v-6.141a.555.555,0,0,0-1.11,0v6.141a1.471,1.471,0,0,0,1.469,1.469H948.3a1.471,1.471,0,0,0,1.469-1.469v-3.235h5.612a1.47,1.47,0,0,0,1.469-1.469V569.6a1.461,1.461,0,0,0-.43-1.039Zm-1.386.184h-1.756a.36.36,0,0,1-.359-.359v-1.755Zm-9.2,4.345v-1.755l2.115,2.115H946.2A.359.359,0,0,1,945.842,573.094Zm9.543,13.639h-5.612V574.308a1.457,1.457,0,0,0-.431-1.039l-3.336-3.336a1.462,1.462,0,0,0-1.039-.43h-4.059v-3.235a.36.36,0,0,1,.359-.359h10.547v2.482a1.471,1.471,0,0,0,1.469,1.469h2.461v16.515a.359.359,0,0,1-.359.359Z" transform="translate(-932.716 -564.798)"/><path class="a" d="M938.738,584.44h3.834a.555.555,0,0,0,0-1.11h-3.834A.555.555,0,0,0,938.738,584.44Z" transform="translate(-935.026 -572.6)"/><path class="a" d="M938.738,588.456h9.572a.555.555,0,0,0,0-1.11h-9.572A.555.555,0,0,0,938.738,588.456Z" transform="translate(-935.026 -574.291)"/><path class="a" d="M938.738,592.721h9.572a.555.555,0,0,0,0-1.11h-9.572A.555.555,0,0,0,938.738,592.721Z" transform="translate(-935.026 -576.086)"/><path class="a" d="M938.738,596.862h9.572a.555.555,0,0,0,0-1.11h-9.572A.555.555,0,0,0,938.738,596.862Z" transform="translate(-935.026 -577.83)"/><path class="a" d="M938.738,601h9.572a.555.555,0,0,0,0-1.11h-9.572A.555.555,0,0,0,938.738,601Z" transform="translate(-935.026 -579.573)"/><path class="a" d="M933.275,595.792a.555.555,0,1,0-.383-.956.56.56,0,0,0,.383.956Z" transform="translate(-932.719 -577.381)"/></g><g transform="translate(62.484 0.598)"><path class="a" d="M1016.8,584.114a.986.986,0,0,0,.985-.985v-4.534a2.96,2.96,0,0,0-2.957-2.957h-1.922v-3.893a3.947,3.947,0,0,0-3.942-3.942h-2.343a2.854,2.854,0,0,0-2.718-1.971h-1.262a2.855,2.855,0,0,0-2.718,1.971h-2.342a3.947,3.947,0,0,0-3.943,3.942V587.12a3.947,3.947,0,0,0,3.943,3.942h4.337a.985.985,0,1,0,0-1.971h-4.337a1.974,1.974,0,0,1-1.972-1.971V571.744a1.974,1.974,0,0,1,1.972-1.972h.1v2.908a.985.985,0,0,0,.985.985h9.314a.985.985,0,0,0,.985-.985v-2.908a1.974,1.974,0,0,1,1.971,1.972v3.893h-3.2a2.96,2.96,0,0,0-2.957,2.956v9.512a2.96,2.96,0,0,0,2.958,2.956l7.1,0a2.96,2.96,0,0,0,2.957-2.956.986.986,0,1,0-1.972,0,.986.986,0,0,1-.986.985l-7.1,0a.987.987,0,0,1-.985-.985v-9.512a.986.986,0,0,1,.985-.985h7.1a.986.986,0,0,1,.985.985v4.534A.986.986,0,0,0,1016.8,584.114ZM1007,571.695h-7.344v-1.922h1.035a.985.985,0,0,0,.956-.746l.138-.552a.888.888,0,0,1,.862-.673h1.262a.887.887,0,0,1,.862.673l.138.552a.986.986,0,0,0,.957.746H1007Z" transform="translate(-993.64 -565.83)"/><path class="a" d="M1023.825,589.577h-3.154a.986.986,0,0,0,0,1.971h3.154a.986.986,0,1,0,0-1.971Z" transform="translate(-1004.605 -575.827)"/><path class="a" d="M1023.825,595.535h-3.154a.986.986,0,0,0,0,1.971h3.154a.986.986,0,1,0,0-1.971Z" transform="translate(-1004.605 -578.336)"/></g></svg>