<svg xmlns="http://www.w3.org/2000/svg" width="808.085" height="325.087" viewBox="0 0 808.085 325.087"><defs><style>.a,.i,.j{fill:none;}.a{stroke:#fcdf56;stroke-width:6.717px;}.a,.k{stroke-miterlimit:10;}.b{fill:#ccc;}.c{fill:#fcdf56;}.d{fill:#44bbbd;}.e{fill:#e6e6e6;}.f{fill:#f2f2f2;}.g{fill:#670617;}.h{opacity:0.2;}.i,.j{stroke:#670617;stroke-linejoin:round;stroke-width:2.43px;}.j{stroke-linecap:round;}.k{fill:#fff;stroke:#00d5d5;stroke-width:2.169px;}.l{fill:#4a566b;font-size:20px;font-family:FiraGO-Book, FiraGO;}.m{font-family:FiraGO-Book;}</style></defs><g transform="translate(-542.479 -48.947)"><path class="a" d="M725.041,250.127s3.634,24.216-10.764,29.877-36.973,3.745-38.587,2.641"/><path class="b" d="M732.317,250.636s15.413-8.855,14.262-12.655c-.951-3.139-11.821-.976-12.741,4.564,0,0,11.41-10.127,7.987-12.308-2.931-1.867-11.41,4.891-12.171,8.7,0,0,6.086-9.575,3.043-11.063s-8.367,5.358-7.987,7.64-3.043,3.639-3.043,3.639a12.666,12.666,0,0,1-5.324-6.73c-1.522-4.065-9.128-1.473-5.705,3.471S720.526,257.016,732.317,250.636Z"/><path class="c" d="M615.419,369.611l-5.164-3.65a2.423,2.423,0,0,0-.6,1.053c.412-1.958.748-19.7.855-35.4l6.642.035c0,.088-.062,8.95-.215,17.8C616.611,368.323,616.359,368.6,615.419,369.611Z"/><path class="d" d="M616.343,357s7.816,11.747,2.146,15.633l-27.025,1.046s-7.339-11.242,14.149-14.693Z"/><path class="c" d="M644.828,369.947c-.938-1.016-1.19-1.289-1.5-20.163-.144-8.847-.2-17.708-.2-17.8l6.642-.029c.091,15.7.408,33.438.817,35.4a2.4,2.4,0,0,0-.6-1.053Z"/><path class="d" d="M643.917,357.335s-7.828,11.74-2.162,15.631l27.024,1.068s7.35-11.236-14.133-14.7Z"/><path class="c" d="M559.085,302.746c-6.915.082-12.534-4.235-15.031-11.547-2.52-7.379-1.143-15.95,3.427-21.327,3.737-4.4,9.674-6.422,17.636-6.008a46.277,46.277,0,0,1,10.291,1.749l-2,6.334,1-3.167-1,3.168c-4.384-1.358-16.847-3.6-21.809,2.233-2.894,3.406-3.725,9.272-2.02,14.265.8,2.352,3.377,7.812,9.91,7.735Z"/><path class="e" d="M555.488,291.74s14.754-5.72,12.6,5.063S557.423,292.622,555.488,291.74Z"/><path class="e" d="M555.488,291.74s9.73,4.848,10.333,9.842-4.31,6.379-5.4,5.744c0,0,1.986,4.668-2.518,4.392S538.849,300.362,555.488,291.74Z"/><path class="d" d="M548.789,202.153l16.6,85.908H696.57l12.952-85.908Z"/><path class="f" d="M557.086,210.86l14.394,72.847H690l11.222-72.847Z"/><path class="d" d="M542.479,341.753l22.914-53.983H696.57L714.5,341.753Z"/><path class="f" d="M610.89,337.4l3.731-11.9H643.8l2.623,11.9Z"/><path class="f" d="M668.356,305.765h-8.243l1.689,5.8h8.491Z"/><path class="f" d="M657.715,305.765h-8.15l1.126,5.8H659.4Z"/><path class="f" d="M619.1,305.765h-6.579l-.52,5.8h6.81Z"/><path class="f" d="M636.825,305.765h-6.712l.225,5.8h7.218Z"/><path class="f" d="M627.787,305.765h-6.362l-.289,5.8h6.876Z"/><path class="f" d="M647.207,305.765h-8.044l.732,5.8h8.438Z"/><path class="f" d="M657.243,295.9h7.82l-1.155-3.461h-7.672Z"/><path class="f" d="M647.651,295.9h7.193l-1.007-3.461H646.98Z"/><path class="f" d="M657.834,297.928l1.689,5.8h8.156l-1.937-5.8Z"/><path class="f" d="M637.919,295.9h7.374l-.671-3.461h-7.139Z"/><path class="f" d="M676.368,297.928h-8.205l1.937,5.8h8.205Z"/><path class="f" d="M666.33,292.436l1.155,3.461h8.205l-1.155-3.461Z"/><path class="f" d="M593.446,303.733h7.759l1.04-5.8h-6.95Z"/><path class="f" d="M655.435,297.928h-7.39l1.126,5.8h7.953Z"/><path class="f" d="M638.907,303.733h7.906l-1.126-5.8h-7.512Z"/><path class="f" d="M590.386,305.765h-7.975l-2.55,5.8h8.677Z"/><path class="f" d="M630.034,303.733h6.534l-.732-5.8h-6.028Z"/><path class="f" d="M569.947,311.569h7.425l2.55-5.8h-7.278Z"/><path class="f" d="M603.558,303.733h6.81l.52-5.8H604.6Z"/><path class="f" d="M629.73,295.9h5.85l-.436-3.461H629.6Z"/><path class="f" d="M599.8,311.569l1.04-5.8H592.8l-1.848,5.8Z"/><path class="f" d="M612.7,303.733h6.5l.289-5.8H613.22Z"/><path class="f" d="M621.526,303.733h6.183l-.225-5.8h-5.669Z"/><path class="f" d="M610.187,305.765h-6.992l-1.04,5.8h7.512Z"/><path class="f" d="M689.115,305.765H681.4l1.937,5.8h7.668Z"/><path class="f" d="M681.6,313.6h-8.205l2.518,7.546h8.205Z"/><path class="f" d="M670.778,305.765l1.937,5.8h8.205l-1.937-5.8Z"/><path class="f" d="M678.79,297.928l1.937,5.8h7.724l-1.9-5.8Z"/><path class="f" d="M659.995,313.6h-8.91l1.463,7.546h9.642Z"/><path class="f" d="M670.971,313.6h-8.578l2.2,7.546h8.9Z"/><path class="f" d="M576.479,313.6H569l-3.505,7.546h7.666Z"/><path class="f" d="M648.727,313.6h-8.576l.951,7.546h9.088Z"/><path class="f" d="M684.02,313.6l2.518,7.546h7.6l-2.464-7.546Z"/><path class="f" d="M580.814,303.733l2.55-5.8h-7.081l-2.7,5.8Z"/><path class="f" d="M676.957,292.436l1.155,3.461h7.781l-1.13-3.461Z"/><path class="f" d="M584.256,295.9l1.52-3.461h-6.943l-1.607,3.461Z"/><path class="f" d="M637.812,313.6h-7.4l.293,7.546h8.054Z"/><path class="f" d="M595.941,295.9h6.667l.62-3.461h-6.185Z"/><path class="f" d="M586.747,295.9h6.782l1.1-3.461h-6.363Z"/><path class="f" d="M604.961,295.9h6.109l.31-3.461h-5.8Z"/><path class="f" d="M613.4,295.9h6.187l.172-3.461h-6.049Z"/><path class="f" d="M591.033,303.733l1.848-5.8h-7.027l-2.55,5.8Z"/><path class="f" d="M621.916,295.9H627.4l-.134-3.461h-5.182Z"/><path class="f" d="M628.091,313.6h-7.056l-.375,7.546h7.724Z"/><path class="f" d="M585.489,321.147l2.4-7.546h-8.922l-3.315,7.546Z"/><path class="f" d="M618.708,313.6h-6.891l-.676,7.546h7.192Z"/><path class="f" d="M599.438,313.6H590.3l-2.4,7.546h10.185Z"/><path class="f" d="M609.485,313.6h-7.694l-1.351,7.546h8.37Z"/><path class="g" d="M672.606,249.961h-.011a1.345,1.345,0,0,1-1.418-1.258c.052-5.854-4.178-10.645-9.431-10.681h-.06a9.019,9.019,0,0,0-6.6,2.965,11.166,11.166,0,0,0-2.961,7.585,1.349,1.349,0,0,1-1.428,1.239h-.012a1.343,1.343,0,0,1-1.417-1.259,13.482,13.482,0,0,1,3.608-9.149,11.994,11.994,0,0,1,8.811-3.879h.083c6.829.047,12.332,5.968,12.267,13.2A1.349,1.349,0,0,1,672.606,249.961Z"/><ellipse class="g" cx="6.327" cy="5.53" rx="6.327" ry="5.53" transform="translate(655.814 240.269)"/><path class="g" d="M610.837,249.961h-.012a1.343,1.343,0,0,1-1.417-1.258,11.119,11.119,0,0,0-2.824-7.625,8.974,8.974,0,0,0-6.608-3.056h-.059c-5.226,0-9.51,4.719-9.563,10.55a1.35,1.35,0,0,1-1.429,1.239h-.011a1.345,1.345,0,0,1-1.418-1.259c.065-7.2,5.63-13.028,12.421-13.028H600a11.935,11.935,0,0,1,8.823,4,13.421,13.421,0,0,1,3.443,9.2A1.349,1.349,0,0,1,610.837,249.961Z"/><ellipse class="g" cx="6.327" cy="5.53" rx="6.327" ry="5.53" transform="translate(594.045 240.269)"/><path class="b" d="M557.086,210.86l14.394,72.847H654.4l-78.749-3.862Z"/><g class="h"><path d="M565.394,287.77l-22.914,53.983h79.436l-73.127-2.962Z"/></g><path class="i" d="M620.124,260.445s15.505,3.468,21.806,1C641.93,261.449,619.373,274.245,620.124,260.445Z"/><path class="j" d="M592.726,252.454a14.312,14.312,0,0,1,14.311.48"/><path class="j" d="M654.495,252.92a14.31,14.31,0,0,1,14.311.481"/><g transform="translate(0 -25)"><path class="k" d="M665.475,199.808l.051.042c-.032-.659-.051-1.321-.051-1.988V110.956c0-19.757,14.187-35.924,31.525-35.924h620.953c17.338,0,31.525,16.166,31.525,35.924v86.906c0,19.759-14.187,35.924-31.525,35.924h-611.4L655.5,256.612Z"/><text class="l" transform="translate(697.338 112.112)"><tspan x="0" y="0">ბავშვებო, თქვენ კარგად გაერკვიეთ, თუ როგორ მოქმედებს ძალა</tspan><tspan x="0" y="24">და რა კვაშირშია ის სხეულის მასასთან. გამოიყენეთ სასწორი, </tspan><tspan x="0" y="48">ერთმანეთისგან საიდუმლოდ შექმენით კლასში გოგონებისა და</tspan><tspan x="0" y="72">ბიჭების ორი „დიდი მასის“ გუნდი და შეეჯიბრეთ შერკინებაში. </tspan><tspan x="0" y="96">წარმატებები!</tspan><tspan class="m"><tspan x="0" y="120"></tspan></tspan></text></g></g></svg>