<svg xmlns="http://www.w3.org/2000/svg" width="465" height="386.764" viewBox="0 0 465 386.764"><defs><style>.a{fill:#fcdf56;}.b{fill:#ccc;}.c{fill:#44bbbd;}.d{fill:#e6e6e6;}.e{fill:#f2f2f2;}.f{fill:#670617;}.g{opacity:0.2;}.h{fill:#b18451;}.i{fill:#c19261;}.j{fill:#98683b;}.k{fill:#71311c;}.l{fill:#b3b3b3;}</style></defs><g transform="translate(-233 -218)"><g transform="translate(-605.247 -31.105)"><g transform="translate(838.247 249.105)"><g transform="translate(123.025 50.152)"><path class="a" d="M976.7,329.284c-7.161,0-12.91-.786-14.214-1.677l3.552-5.195a1.984,1.984,0,0,0-.451-.241c2.292.773,21.481,2.23,33.675-2.565,12.919-5.079,31.849-19.709,32.038-19.857l3.858,4.971c-.8.624-19.842,15.335-33.593,20.742C994.3,328.319,984.63,329.284,976.7,329.284Z" transform="translate(-962.483 -299.75)"/></g><g transform="translate(184.45 34.08)"><path class="b" d="M1035.91,305.046s7.789-8.3,7.208-11.856c-.481-2.941-5.974-.915-6.44,4.276,0,0,5.766-9.489,4.036-11.532-1.48-1.749-5.766,4.583-6.151,8.146,0,0,3.076-8.97,1.538-10.364s-4.228,5.02-4.036,7.158a4.06,4.06,0,0,1-1.538,3.409s-1.754-1.665-2.691-6.306c-.769-3.809-4.613-1.379-2.883,3.253S1029.952,311.023,1035.91,305.046Z" transform="translate(-1024.512 -283.52)"/></g><g transform="translate(41.196 125.987)"><path class="a" d="M883.535,410.082l-2.736-5.254a2.246,2.246,0,0,0-.951.62c1.182-1.455,9.071-16.087,15.893-29.117l5.518,2.878c-.039.073-3.891,7.428-7.812,14.731C885.08,409.52,884.752,409.639,883.535,410.082Z" transform="translate(-879.848 -376.331)"/></g><g transform="translate(23.167 144.889)"><path class="c" d="M889.536,400.159s1.471,13.137-4.918,13.943l-22.958-10.72s-1.292-12.511,18.086-6.17Z" transform="translate(-861.642 -395.419)"/></g><g transform="translate(70.409 122.5)"><path class="a" d="M909.615,407.216c-.555-1.17-.7-1.485,4.316-18.443,2.353-7.949,4.791-15.885,4.816-15.964l5.945,1.836c-4.321,14.059-9.013,30.006-9.2,31.87a2.262,2.262,0,0,0-.239-1.109Z" transform="translate(-909.349 -372.81)"/></g><g transform="translate(66.169 145.378)"><path class="c" d="M912.3,395.913s-10.291,8.3-6.317,13.367l23.857,8.533s9.721-7.981-8.51-17.107Z" transform="translate(-905.067 -395.913)"/></g><g transform="translate(0.307 57.766)"><path class="a" d="M853.807,343.916c-6.477.076-11.742-3.968-14.081-10.819-2.361-6.913-1.071-14.943,3.21-19.98,3.5-4.124,9.064-6.017,16.522-5.629a43.352,43.352,0,0,1,9.641,1.639l-1.873,5.934.937-2.967-.935,2.968c-4.108-1.271-15.784-3.372-20.432,2.092-2.711,3.192-3.49,8.687-1.892,13.364.753,2.2,3.163,7.319,9.285,7.247Z" transform="translate(-838.557 -307.439)"/><g transform="translate(4.593 24.745)"><g transform="translate(7.288)"><path class="d" d="M850.554,333.848s13.823-5.359,11.806,4.743S852.368,334.675,850.554,333.848Z" transform="translate(-850.554 -332.428)"/></g><g transform="translate(0 1.42)"><path class="d" d="M850.482,333.862s9.116,4.542,9.682,9.221-4.038,5.976-5.062,5.381c0,0,1.861,4.373-2.36,4.115S834.894,341.941,850.482,333.862Z" transform="translate(-843.195 -333.862)"/></g></g></g><g transform="translate(5.911)"><path class="c" d="M844.217,249.1l15.556,80.485h122.9L994.8,249.1Z" transform="translate(-844.217 -249.105)"/></g><g transform="translate(13.685 8.157)"><path class="e" d="M852.066,257.342l13.486,68.249H976.593l10.513-68.249Z" transform="translate(-852.066 -257.342)"/></g><g transform="translate(0 80.213)"><path class="c" d="M838.247,380.681l21.468-50.575h122.9l16.8,50.575Z" transform="translate(-838.247 -330.107)"/></g><g transform="translate(64.093 115.561)"><path class="e" d="M902.97,376.951l3.5-11.148H933.8l2.457,11.148Z" transform="translate(-902.97 -365.802)"/></g><g transform="translate(21.566 84.584)"><g transform="translate(88.643 12.487)"><path class="e" d="M957.262,347.131H949.54l1.582,5.438h7.955Z" transform="translate(-949.54 -347.131)"/></g><g transform="translate(78.76 12.487)"><path class="e" d="M947.2,347.131H939.56l1.055,5.438h8.163Z" transform="translate(-939.56 -347.131)"/></g><g transform="translate(43.565 12.487)"><path class="e" d="M910.67,347.131h-6.164l-.487,5.438h6.38Z" transform="translate(-904.019 -347.131)"/></g><g transform="translate(60.536 12.487)"><path class="e" d="M927.445,347.131h-6.288l.211,5.438h6.762Z" transform="translate(-921.157 -347.131)"/></g><g transform="translate(52.125 12.487)"><path class="e" d="M918.895,347.131h-5.961l-.271,5.438h6.442Z" transform="translate(-912.663 -347.131)"/></g><g transform="translate(69.015 12.487)"><path class="e" d="M937.255,347.131h-7.536l.686,5.438h7.905Z" transform="translate(-929.719 -347.131)"/></g><g transform="translate(85.01)"><path class="e" d="M946.815,337.763h7.326l-1.082-3.242h-7.187Z" transform="translate(-945.872 -334.521)"/></g><g transform="translate(76.338)"><path class="e" d="M937.743,337.763h6.739l-.943-3.242h-6.425Z" transform="translate(-937.114 -334.521)"/></g><g transform="translate(86.507 5.146)"><path class="e" d="M947.383,339.717l1.582,5.438h7.641l-1.815-5.438Z" transform="translate(-947.383 -339.717)"/></g><g transform="translate(67.441)"><path class="e" d="M928.538,337.763h6.908l-.629-3.242h-6.688Z" transform="translate(-928.129 -334.521)"/></g><g transform="translate(96.184 5.146)"><path class="e" d="M964.843,339.717h-7.687l1.815,5.438h7.687Z" transform="translate(-957.155 -339.717)"/></g><g transform="translate(94.466)"><path class="e" d="M955.421,334.521l1.082,3.242h7.687l-1.082-3.242Z" transform="translate(-955.421 -334.521)"/></g><g transform="translate(26.184 5.146)"><path class="e" d="M886.466,345.155h7.269l.974-5.438H888.2Z" transform="translate(-886.466 -339.717)"/></g><g transform="translate(77.336 5.146)"><path class="e" d="M945.046,339.717h-6.924l1.055,5.438h7.451Z" transform="translate(-938.122 -339.717)"/></g><g transform="translate(68.089 5.146)"><path class="e" d="M929.47,345.155h7.407l-1.055-5.438h-7.038Z" transform="translate(-928.785 -339.717)"/></g><g transform="translate(13.457 12.487)"><path class="e" d="M883.475,347.131H876l-2.389,5.438h8.129Z" transform="translate(-873.614 -347.131)"/></g><g transform="translate(60.251 5.146)"><path class="e" d="M921.08,345.155H927.2l-.686-5.438h-5.647Z" transform="translate(-920.869 -339.717)"/></g><g transform="translate(4.168 12.487)"><path class="e" d="M864.234,352.569h6.956l2.389-5.438H866.76Z" transform="translate(-864.234 -347.131)"/></g><g transform="translate(35.657 5.146)"><path class="e" d="M896.033,345.155h6.381l.487-5.438h-5.893Z" transform="translate(-896.033 -339.717)"/></g><g transform="translate(60.052)"><path class="e" d="M920.793,337.763h5.481l-.409-3.242h-5.2Z" transform="translate(-920.668 -334.521)"/></g><g transform="translate(23.846 12.487)"><path class="e" d="M892.4,352.569l.974-5.438h-7.534l-1.732,5.438Z" transform="translate(-884.106 -347.131)"/></g><g transform="translate(44.222 5.146)"><path class="e" d="M904.683,345.155h6.088l.271-5.438H905.17Z" transform="translate(-904.683 -339.717)"/></g><g transform="translate(52.491 5.146)"><path class="e" d="M913.032,345.155h5.792l-.211-5.438H913.3Z" transform="translate(-913.032 -339.717)"/></g><g transform="translate(34.342 12.487)"><path class="e" d="M902.23,347.131h-6.551l-.974,5.438h7.038Z" transform="translate(-894.706 -347.131)"/></g><g transform="translate(108.59 12.487)"><path class="e" d="M976.907,347.131h-7.223l1.815,5.438h7.184Z" transform="translate(-969.683 -347.131)"/></g><g transform="translate(101.084 19.829)"><path class="e" d="M969.791,354.545H962.1l2.359,7.07h7.687Z" transform="translate(-962.104 -354.545)"/></g><g transform="translate(98.634 12.487)"><path class="e" d="M959.629,347.131l1.815,5.438h7.687l-1.815-5.438Z" transform="translate(-959.629 -347.131)"/></g><g transform="translate(106.14 5.146)"><path class="e" d="M967.209,339.717l1.815,5.438h7.237l-1.776-5.438Z" transform="translate(-967.209 -339.717)"/></g><g transform="translate(80.184 19.829)"><path class="e" d="M949.345,354.545H941l1.371,7.07H951.4Z" transform="translate(-940.998 -354.545)"/></g><g transform="translate(90.778 19.829)"><path class="e" d="M959.733,354.545H951.7l2.057,7.07h8.339Z" transform="translate(-951.697 -354.545)"/></g><g transform="translate(0 19.829)"><path class="e" d="M870.313,354.545h-7l-3.284,7.07h7.182Z" transform="translate(-860.025 -354.545)"/></g><g transform="translate(69.94 19.829)"><path class="e" d="M938.688,354.545h-8.034l.891,7.07h8.514Z" transform="translate(-930.654 -354.545)"/></g><g transform="translate(111.04 19.829)"><path class="e" d="M972.158,354.545l2.36,7.07h7.119l-2.309-7.07Z" transform="translate(-972.158 -354.545)"/></g><g transform="translate(7.578 5.146)"><path class="e" d="M874.449,345.155l2.389-5.438H870.2l-2.526,5.438Z" transform="translate(-867.678 -339.717)"/></g><g transform="translate(104.422)"><path class="e" d="M965.475,334.521l1.082,3.242h7.29l-1.059-3.242Z" transform="translate(-965.475 -334.521)"/></g><g transform="translate(10.988)"><path class="e" d="M877.707,337.763l1.424-3.242h-6.5l-1.506,3.242Z" transform="translate(-871.121 -334.521)"/></g><g transform="translate(60.821 19.829)"><path class="e" d="M928.373,354.545h-6.929l.274,7.07h7.546Z" transform="translate(-921.444 -354.545)"/></g><g transform="translate(28.521)"><path class="e" d="M888.827,337.763h6.246l.581-3.242h-5.795Z" transform="translate(-888.827 -334.521)"/></g><g transform="translate(19.907)"><path class="e" d="M880.128,337.763h6.353l1.032-3.242h-5.962Z" transform="translate(-880.128 -334.521)"/></g><g transform="translate(36.972)"><path class="e" d="M897.361,337.763h5.723l.29-3.242h-5.433Z" transform="translate(-897.361 -334.521)"/></g><g transform="translate(44.88)"><path class="e" d="M905.346,337.763h5.8l.161-3.242h-5.667Z" transform="translate(-905.346 -334.521)"/></g><g transform="translate(16.682 5.146)"><path class="e" d="M884.112,345.155l1.732-5.438H879.26l-2.389,5.438Z" transform="translate(-876.871 -339.717)"/></g><g transform="translate(52.856)"><path class="e" d="M913.4,337.763h5.142l-.126-3.242h-4.855Z" transform="translate(-913.401 -334.521)"/></g><g transform="translate(51.679 19.829)"><path class="e" d="M919.175,354.545h-6.611l-.352,7.07h7.237Z" transform="translate(-912.213 -354.545)"/></g><g transform="translate(9.515 19.829)"><path class="e" d="M878.847,361.614l2.251-7.07h-8.359l-3.106,7.07Z" transform="translate(-869.634 -354.545)"/></g><g transform="translate(42.761 19.829)"><path class="e" d="M910.3,354.545H903.84l-.633,7.07h6.738Z" transform="translate(-903.207 -354.545)"/></g><g transform="translate(20.989 19.829)"><path class="e" d="M892.029,354.545h-8.557l-2.251,7.07h9.542Z" transform="translate(-881.221 -354.545)"/></g><g transform="translate(32.735 19.829)"><path class="e" d="M901.557,354.545h-7.208l-1.266,7.07h7.841Z" transform="translate(-893.083 -354.545)"/></g></g><g transform="translate(100.046 31.265)"><path class="f" d="M961.144,294.2h-.011a1.26,1.26,0,0,1-1.328-1.179c.049-5.484-3.914-9.973-8.836-10.007h-.055a8.451,8.451,0,0,0-6.186,2.778,10.462,10.462,0,0,0-2.773,7.106,1.266,1.266,0,0,1-1.339,1.161H940.6a1.259,1.259,0,0,1-1.328-1.178,12.632,12.632,0,0,1,3.38-8.573,11.239,11.239,0,0,1,8.255-3.633h.078c6.4.044,11.553,5.591,11.493,12.364A1.265,1.265,0,0,1,961.144,294.2Z" transform="translate(-939.277 -280.677)"/><g transform="translate(1.639 4.854)"><ellipse class="f" cx="5.928" cy="5.18" rx="5.928" ry="5.18"/></g></g><g transform="translate(42.175 31.265)"><path class="f" d="M902.7,294.2h-.011a1.261,1.261,0,0,1-1.329-1.179,10.419,10.419,0,0,0-2.645-7.144,8.409,8.409,0,0,0-6.19-2.863h-.056c-4.9,0-8.909,4.42-8.959,9.884a1.265,1.265,0,0,1-1.339,1.161h-.011a1.26,1.26,0,0,1-1.328-1.178c.061-6.748,5.274-12.206,11.637-12.206h.076a11.185,11.185,0,0,1,8.267,3.748,12.577,12.577,0,0,1,3.225,8.616A1.264,1.264,0,0,1,902.7,294.2Z" transform="translate(-880.837 -280.677)"/><g transform="translate(1.64 4.854)"><ellipse class="f" cx="5.928" cy="5.18" rx="5.928" ry="5.18"/></g></g><g transform="translate(13.685 8.157)"><path class="b" d="M852.066,257.342l13.486,68.249h77.689l-73.778-3.618Z" transform="translate(-852.066 -257.342)"/></g><g class="g" transform="translate(0 80.213)"><path d="M859.715,330.107l-21.468,50.575h74.422l-68.51-2.775Z" transform="translate(-838.247 -330.107)"/></g><g transform="translate(71.588 53.474)"><path class="f" d="M917.172,311.378a7.569,7.569,0,0,1-4.02-.971c-1.882-1.166-2.754-3.26-2.593-6.225a1.138,1.138,0,0,1,1.385-1.049c.142.031,14.256,3.146,19.766.991a1.138,1.138,0,0,1,.976,2.05C931.557,306.815,923.3,311.378,917.172,311.378Zm-4.32-5.732a3.46,3.46,0,0,0,1.5,2.825c2.322,1.439,6.944.256,10.98-1.334A77.361,77.361,0,0,1,912.851,305.646Z" transform="translate(-910.539 -303.105)"/></g><g transform="translate(45.937 44.379)"><path class="f" d="M899.18,298.255a1.127,1.127,0,0,1-.6-.172,12.169,12.169,0,0,0-12.225-.438,1.138,1.138,0,0,1-1.167-1.955,14.449,14.449,0,0,1,14.594.459,1.139,1.139,0,0,1-.6,2.105Z" transform="translate(-884.636 -293.92)"/></g><g transform="translate(103.806 44.816)"><path class="f" d="M957.62,298.7a1.133,1.133,0,0,1-.6-.172,12.293,12.293,0,0,0-12.221-.441,1.138,1.138,0,1,1-1.17-1.952,14.449,14.449,0,0,1,14.6.46,1.139,1.139,0,0,1-.6,2.105Z" transform="translate(-943.075 -294.362)"/></g></g><g transform="translate(1032.015 255.208)"><rect class="h" width="178.232" height="162.623"/><g transform="translate(9.785 8.928)"><rect class="i" width="158.663" height="144.768"/></g><g transform="translate(9.785 24.174)"><rect class="j" width="157.978" height="1.815"/></g><g transform="translate(9.785 39.419)"><rect class="j" width="157.978" height="1.815"/></g><g transform="translate(9.785 54.665)"><rect class="j" width="157.978" height="1.815"/></g><g transform="translate(9.785 69.911)"><rect class="j" width="157.978" height="1.815"/></g><g transform="translate(9.785 85.157)"><rect class="j" width="157.978" height="1.815"/></g><g transform="translate(9.785 100.403)"><rect class="j" width="157.978" height="1.815"/></g><g transform="translate(9.785 115.649)"><rect class="j" width="157.978" height="1.815"/></g><g transform="translate(9.785 130.895)"><rect class="j" width="157.978" height="1.815"/></g><g transform="translate(9.785 146.141)"><rect class="j" width="157.978" height="1.815"/></g></g></g><g transform="translate(-518.806 -23.607)"><g transform="translate(781.806 451.102)"><g transform="translate(129.217 49.845)"><path class="a" d="M966.17,553.818c-.955-.406-23.541-10.065-35.2-19.637-11.719-9.62-21.656-30.391-21.346-33.777l6.4.583a2.156,2.156,0,0,0-.008-.521c.45,2.427,8.695,20.261,19.034,28.748,10.943,8.986,33.413,18.595,33.638,18.691Z" transform="translate(-909.616 -500.404)"/></g><g transform="translate(182.531 84.922)"><path class="b" d="M965.234,553.81s11.271,2.82,14.156.53c2.383-1.891,4.626-3.095,5.273-5.751,2.012-8.256-12.509-4.931-12.509-4.931s.611-2.391,4.284-5.535c3.013-2.579-1.065-4.8-4.334-.952S956.941,551.47,965.234,553.81Z" transform="translate(-962.349 -535.099)"/></g><g transform="translate(71.949 124.849)"><path class="a" d="M860.625,610.913l-5.21-3.076a2.3,2.3,0,0,0-.487,1.05c.239-1.9-.831-18.836-1.957-33.809l6.334-.487c.006.085.642,8.537,1.189,16.983C861.661,609.592,861.441,609.872,860.625,610.913Z" transform="translate(-852.971 -574.592)"/></g><g transform="translate(55.574 149.076)"><path class="c" d="M860.7,598.555s8.37,10.586,3.27,14.735L838.285,616.4s-7.876-10.141,12.337-15.114Z" transform="translate(-836.775 -598.555)"/></g><g transform="translate(101.344 122.98)"><path class="a" d="M890.622,609.311c-1.067-.781-1.354-.99-5.116-18.649-1.764-8.278-3.444-16.586-3.461-16.669l6.229-1.251c2.974,14.718,6.538,31.311,7.282,33.074a2.3,2.3,0,0,0-.754-.879Z" transform="translate(-882.046 -572.743)"/></g><g transform="translate(104.672 147.746)"><path class="c" d="M887.411,597.371s-5.186,12.461.848,15.07l25.561-3.972s4.832-11.9-15.972-11.2Z" transform="translate(-885.338 -597.24)"/></g><g transform="translate(0.313 58.976)"><path class="a" d="M797.686,546.677c-6.614.079-11.989-4.05-14.377-11.044-2.411-7.059-1.094-15.256,3.277-20.4,3.576-4.212,9.254-6.144,16.87-5.748a44.288,44.288,0,0,1,9.843,1.673l-1.912,6.059.955-3.029-.953,3.029c-4.194-1.3-16.115-3.442-20.86,2.137-2.769,3.257-3.563,8.868-1.932,13.644.768,2.25,3.229,7.472,9.479,7.4Z" transform="translate(-782.116 -509.436)"/><g transform="translate(4.689 25.264)"><g transform="translate(7.44)"><path class="d" d="M794.113,535.875s14.113-5.472,12.053,4.843S795.964,536.719,794.113,535.875Z" transform="translate(-794.113 -534.425)"/></g><g transform="translate(0 1.45)"><path class="d" d="M794.194,535.859s9.307,4.638,9.884,9.415-4.123,6.1-5.168,5.495c0,0,1.9,4.465-2.408,4.2S778.279,544.107,794.194,535.859Z" transform="translate(-786.754 -535.859)"/></g></g></g><g transform="translate(6.035)"><path class="c" d="M787.775,451.1l15.882,82.171H929.129L941.517,451.1Z" transform="translate(-787.775 -451.102)"/></g><g transform="translate(13.971 8.328)"><path class="e" d="M795.625,459.339l13.768,69.679H922.761l10.734-69.679Z" transform="translate(-795.625 -459.339)"/></g><g transform="translate(0 81.894)"><path class="c" d="M781.806,583.739,803.723,532.1H929.195l17.153,51.635Z" transform="translate(-781.806 -532.104)"/></g><g transform="translate(65.436 117.982)"><path class="e" d="M846.529,579.182,850.1,567.8h27.911l2.509,11.382Z" transform="translate(-846.529 -567.8)"/></g><g transform="translate(22.018 86.357)"><g transform="translate(90.5 12.749)"><path class="e" d="M900.983,549.128H893.1l1.615,5.552h8.122Z" transform="translate(-893.099 -549.128)"/></g><g transform="translate(80.41 12.749)"><path class="e" d="M890.914,549.128h-7.8l1.077,5.552h8.334Z" transform="translate(-883.118 -549.128)"/></g><g transform="translate(44.478 12.749)"><path class="e" d="M854.368,549.128h-6.293l-.5,5.552h6.514Z" transform="translate(-847.577 -549.128)"/></g><g transform="translate(61.805 12.749)"><path class="e" d="M871.135,549.128h-6.42l.215,5.552h6.9Z" transform="translate(-864.715 -549.128)"/></g><g transform="translate(53.218 12.749)"><path class="e" d="M862.584,549.128H856.5l-.276,5.552H862.8Z" transform="translate(-856.222 -549.128)"/></g><g transform="translate(70.461 12.749)"><path class="e" d="M880.972,549.128h-7.694l.7,5.552h8.071Z" transform="translate(-873.278 -549.128)"/></g><g transform="translate(86.792)"><path class="e" d="M890.393,539.828h7.48l-1.1-3.31H889.43Z" transform="translate(-889.43 -536.518)"/></g><g transform="translate(77.938)"><path class="e" d="M881.315,539.828H888.2l-.963-3.31h-6.56Z" transform="translate(-880.673 -536.518)"/></g><g transform="translate(88.32 5.253)"><path class="e" d="M890.942,541.714l1.615,5.552h7.8l-1.853-5.552Z" transform="translate(-890.942 -541.714)"/></g><g transform="translate(68.854)"><path class="e" d="M872.105,539.828h7.053l-.642-3.31h-6.829Z" transform="translate(-871.688 -536.518)"/></g><g transform="translate(98.199 5.253)"><path class="e" d="M908.562,541.714h-7.848l1.853,5.552h7.848Z" transform="translate(-900.714 -541.714)"/></g><g transform="translate(96.446)"><path class="e" d="M898.98,536.518l1.1,3.31h7.848l-1.1-3.31Z" transform="translate(-898.98 -536.518)"/></g><g transform="translate(26.732 5.253)"><path class="e" d="M830.025,547.266h7.421l.994-5.552h-6.648Z" transform="translate(-830.025 -541.714)"/></g><g transform="translate(78.957 5.253)"><path class="e" d="M888.75,541.714h-7.069l1.077,5.552h7.607Z" transform="translate(-881.681 -541.714)"/></g><g transform="translate(69.516 5.253)"><path class="e" d="M873.043,547.266H880.6l-1.077-5.552h-7.185Z" transform="translate(-872.343 -541.714)"/></g><g transform="translate(13.739 12.749)"><path class="e" d="M827.24,549.128h-7.628l-2.439,5.552h8.3Z" transform="translate(-817.173 -549.128)"/></g><g transform="translate(61.514 5.253)"><path class="e" d="M864.643,547.266h6.25l-.7-5.552h-5.766Z" transform="translate(-864.428 -541.714)"/></g><g transform="translate(4.255 12.749)"><path class="e" d="M807.793,554.68h7.1l2.439-5.552h-6.962Z" transform="translate(-807.793 -549.128)"/></g><g transform="translate(36.405 5.253)"><path class="e" d="M839.592,547.266h6.514l.5-5.552h-6.017Z" transform="translate(-839.592 -541.714)"/></g><g transform="translate(61.31)"><path class="e" d="M864.355,539.828h5.6l-.417-3.31h-5.307Z" transform="translate(-864.226 -536.518)"/></g><g transform="translate(24.346 12.749)"><path class="e" d="M836.13,554.68l.994-5.552h-7.692l-1.768,5.552Z" transform="translate(-827.665 -549.128)"/></g><g transform="translate(45.149 5.253)"><path class="e" d="M848.241,547.266h6.216l.276-5.552h-5.995Z" transform="translate(-848.241 -541.714)"/></g><g transform="translate(53.591 5.253)"><path class="e" d="M856.591,547.266H862.5l-.215-5.552h-5.422Z" transform="translate(-856.591 -541.714)"/></g><g transform="translate(35.062 12.749)"><path class="e" d="M845.947,549.128h-6.688l-.994,5.552h7.185Z" transform="translate(-838.264 -549.128)"/></g><g transform="translate(110.866 12.749)"><path class="e" d="M920.617,549.128h-7.375l1.853,5.552h7.335Z" transform="translate(-913.242 -549.128)"/></g><g transform="translate(103.202 20.244)"><path class="e" d="M913.511,556.542h-7.848l2.409,7.218h7.848Z" transform="translate(-905.662 -556.542)"/></g><g transform="translate(100.701 12.749)"><path class="e" d="M903.188,549.128l1.853,5.552h7.848l-1.853-5.552Z" transform="translate(-903.188 -549.128)"/></g><g transform="translate(108.364 5.253)"><path class="e" d="M910.768,541.714l1.853,5.552h7.388l-1.813-5.552Z" transform="translate(-910.768 -541.714)"/></g><g transform="translate(81.864 20.244)"><path class="e" d="M893.079,556.542h-8.523l1.4,7.218h9.223Z" transform="translate(-884.556 -556.542)"/></g><g transform="translate(92.681 20.244)"><path class="e" d="M903.46,556.542h-8.205l2.1,7.218h8.514Z" transform="translate(-895.255 -556.542)"/></g><g transform="translate(0 20.244)"><path class="e" d="M814.087,556.542h-7.151l-3.353,7.218h7.332Z" transform="translate(-803.584 -556.542)"/></g><g transform="translate(71.406 20.244)"><path class="e" d="M882.415,556.542h-8.2l.91,7.218h8.693Z" transform="translate(-874.212 -556.542)"/></g><g transform="translate(113.367 20.244)"><path class="e" d="M915.716,556.542l2.409,7.218h7.269l-2.357-7.218Z" transform="translate(-915.716 -556.542)"/></g><g transform="translate(7.737 5.253)"><path class="e" d="M818.149,547.266l2.439-5.552h-6.773l-2.579,5.552Z" transform="translate(-811.236 -541.714)"/></g><g transform="translate(106.611)"><path class="e" d="M909.034,536.518l1.1,3.31h7.442l-1.081-3.31Z" transform="translate(-909.034 -536.518)"/></g><g transform="translate(11.218)"><path class="e" d="M821.4,539.828l1.454-3.31h-6.641l-1.538,3.31Z" transform="translate(-814.68 -536.518)"/></g><g transform="translate(62.095 20.244)"><path class="e" d="M872.077,556.542H865l.28,7.218h7.7Z" transform="translate(-865.003 -556.542)"/></g><g transform="translate(29.119)"><path class="e" d="M832.386,539.828h6.377l.593-3.31H833.44Z" transform="translate(-832.386 -536.518)"/></g><g transform="translate(20.324)"><path class="e" d="M823.687,539.828h6.487l1.054-3.31h-6.086Z" transform="translate(-823.687 -536.518)"/></g><g transform="translate(37.747)"><path class="e" d="M840.92,539.828h5.843l.3-3.31h-5.547Z" transform="translate(-840.92 -536.518)"/></g><g transform="translate(45.82)"><path class="e" d="M848.9,539.828h5.918l.165-3.31H849.2Z" transform="translate(-848.905 -536.518)"/></g><g transform="translate(17.031 5.253)"><path class="e" d="M827.823,547.266l1.768-5.552h-6.722l-2.439,5.552Z" transform="translate(-820.43 -541.714)"/></g><g transform="translate(53.964)"><path class="e" d="M856.96,539.828h5.25l-.128-3.31h-4.957Z" transform="translate(-856.96 -536.518)"/></g><g transform="translate(52.762 20.244)"><path class="e" d="M862.88,556.542H856.13l-.359,7.218h7.388Z" transform="translate(-855.771 -556.542)"/></g><g transform="translate(9.714 20.244)"><path class="e" d="M822.6,563.76l2.3-7.218h-8.534l-3.171,7.218Z" transform="translate(-813.192 -556.542)"/></g><g transform="translate(43.658 20.244)"><path class="e" d="M854,556.542h-6.591l-.646,7.218h6.879Z" transform="translate(-846.766 -556.542)"/></g><g transform="translate(21.429 20.244)"><path class="e" d="M835.814,556.542h-8.736l-2.3,7.218h9.742Z" transform="translate(-824.779 -556.542)"/></g><g transform="translate(33.421 20.244)"><path class="e" d="M845.293,556.542h-7.359l-1.293,7.218h8.006Z" transform="translate(-836.641 -556.542)"/></g></g><g transform="translate(102.141 31.92)"><path class="f" d="M905.161,496.483h-.011a1.285,1.285,0,0,1-1.356-1.2c.05-5.6-4-10.181-9.021-10.216h-.058A8.631,8.631,0,0,0,888.4,487.9a10.682,10.682,0,0,0-2.832,7.255,1.291,1.291,0,0,1-1.367,1.186h-.01a1.287,1.287,0,0,1-1.357-1.2,12.9,12.9,0,0,1,3.452-8.751,11.47,11.47,0,0,1,8.428-3.71h.08c6.532.046,11.8,5.708,11.733,12.624A1.29,1.29,0,0,1,905.161,496.483Z" transform="translate(-882.835 -482.674)"/><g transform="translate(8.305 4.956)"><ellipse class="f" cx="6.052" cy="5.289" rx="6.052" ry="5.289"/></g></g><g transform="translate(43.059 31.92)"><path class="f" d="M846.721,496.483h-.011a1.286,1.286,0,0,1-1.356-1.2,10.633,10.633,0,0,0-2.7-7.292,8.585,8.585,0,0,0-6.321-2.924h-.057c-5,0-9.1,4.514-9.147,10.091a1.291,1.291,0,0,1-1.367,1.186h-.011a1.286,1.286,0,0,1-1.356-1.2c.062-6.888,5.385-12.462,11.88-12.462h.079a11.416,11.416,0,0,1,8.439,3.827,12.848,12.848,0,0,1,3.294,8.8A1.291,1.291,0,0,1,846.721,496.483Z" transform="translate(-824.396 -482.674)"/><g transform="translate(8.304 4.956)"><ellipse class="f" cx="6.052" cy="5.289" rx="6.052" ry="5.289"/></g></g><g transform="translate(13.971 8.328)"><path class="b" d="M795.625,459.339l13.768,69.679H888.71l-75.324-3.694Z" transform="translate(-795.625 -459.339)"/></g><g class="g" transform="translate(0 81.894)"><path d="M803.723,532.1l-21.918,51.635h75.981l-69.946-2.833Z" transform="translate(-781.806 -532.104)"/></g><g transform="translate(73.088 54.595)"><path class="f" d="M860.87,513.548a7.734,7.734,0,0,1-4.1-.991c-1.922-1.191-2.813-3.329-2.648-6.356a1.162,1.162,0,0,1,1.414-1.071c.144.032,14.555,3.211,20.18,1.012a1.163,1.163,0,0,1,1,2.094C875.556,508.889,867.122,513.548,860.87,513.548Zm-4.412-5.852a3.534,3.534,0,0,0,1.531,2.884c2.37,1.468,7.089.261,11.21-1.361A79.106,79.106,0,0,1,856.458,507.7Z" transform="translate(-854.098 -505.102)"/></g><g transform="translate(46.899 45.31)"><path class="f" d="M843.044,500.344a1.157,1.157,0,0,1-.614-.176,12.553,12.553,0,0,0-12.477-.45,1.162,1.162,0,1,1-1.2-1.994,14.763,14.763,0,0,1,14.9.47,1.163,1.163,0,0,1-.616,2.149Z" transform="translate(-828.194 -495.919)"/></g><g transform="translate(105.982 45.756)"><path class="f" d="M901.484,500.785a1.157,1.157,0,0,1-.614-.176,12.559,12.559,0,0,0-12.477-.449,1.162,1.162,0,1,1-1.2-1.994,14.75,14.75,0,0,1,14.9.47,1.162,1.162,0,0,1-.615,2.148Z" transform="translate(-886.634 -496.36)"/></g></g><g transform="translate(955.528 540.335)"><g transform="translate(0 0)"><path class="k" d="M1061.944,569.356c-18.452-.549-34.388-9.867-47.192-17.355-9.268-5.419-17.273-10.1-23.718-10.15h-.12c-15.3,0-35.2,22.685-35.4,22.914l-1.876-1.632c.848-.976,20.987-23.933,37.417-23.769,7.109.056,15.379,4.891,24.955,10.49,12.561,7.345,28.192,16.487,46.01,17.015Z" transform="translate(-953.636 -539.363)"/></g></g><g transform="translate(1034.839 462.34)"><rect class="h" width="181.967" height="166.031"/><g transform="translate(9.99 9.115)"><rect class="i" width="161.988" height="147.801"/></g><g transform="translate(9.99 24.68)"><rect class="j" width="161.289" height="1.853"/></g><g transform="translate(9.99 40.246)"><rect class="j" width="161.289" height="1.853"/></g><g transform="translate(9.99 55.811)"><rect class="j" width="161.289" height="1.853"/></g><g transform="translate(9.99 71.376)"><rect class="j" width="161.289" height="1.853"/></g><g transform="translate(9.99 86.942)"><rect class="j" width="161.289" height="1.853"/></g><g transform="translate(9.99 102.507)"><rect class="j" width="161.289" height="1.853"/></g><g transform="translate(9.99 118.073)"><rect class="j" width="161.289" height="1.853"/></g><g transform="translate(9.99 133.638)"><rect class="j" width="161.289" height="1.853"/></g><g transform="translate(9.99 149.203)"><rect class="j" width="161.289" height="1.853"/></g></g><g transform="translate(1008.714 535.154)"><g transform="translate(0 0)"><path class="l" d="M1025.881,549.707a.408.408,0,0,1-.205-.055c-.66-.378-16.2-9.319-19.376-14.79a.415.415,0,1,1,.717-.417c3.064,5.28,18.911,14.4,19.071,14.488a.414.414,0,0,1-.206.773Z" transform="translate(-1006.243 -534.239)"/></g></g><g transform="translate(1006.138 524.513)"><path class="l" d="M1023.333,539.181a.406.406,0,0,1-.205-.055c-.661-.377-16.2-9.319-19.376-14.79a.415.415,0,1,1,.717-.417c3.064,5.28,18.91,14.4,19.07,14.488a.414.414,0,0,1-.205.773Z" transform="translate(-1003.695 -523.714)"/></g><g transform="translate(990.287 556.878)"><g transform="translate(6.669 0)"><path class="l" d="M1013.278,557.314a.305.305,0,0,0-.145-.069c-.563-.106-13.823-2.573-18.311-.992a.312.312,0,0,0,.207.588c4.331-1.527,17.852.991,17.988,1.016a.312.312,0,0,0,.261-.544Z" transform="translate(-994.614 -555.726)"/></g><g transform="translate(0 4.834)"><path class="l" d="M1006.681,562.1a.317.317,0,0,0-.145-.07c-.562-.106-13.823-2.573-18.311-.991a.312.312,0,0,0,.207.588c4.332-1.527,17.852.99,17.989,1.015a.311.311,0,0,0,.26-.543Z" transform="translate(-988.017 -560.508)"/></g></g></g></g></svg>