<svg xmlns="http://www.w3.org/2000/svg" width="465" height="351.736" viewBox="0 0 465 351.736"><g transform="translate(-451 -217.959)"><g transform="translate(307.323 6.19)"><path d="M158.382,524.264c26.855-39.9,33.869-65.762,106.812-58.524s70.339,8.722,147.191,8.631,69.036,26.69,126.35,29.582,92.482,18.437,53.405,45.834-118.075,5.039-185.387,31.2-131.139,34.976-205.385,14.285S138.843,553.3,158.382,524.264Z" transform="translate(0 -43.237)" fill="#b0cc20"/><path d="M349.919,213.826s-16.069,9.726-13.609,38.817,42.551-.579,42.551-.579,1.077-24.84-3.08-32.1S349.919,213.826,349.919,213.826Z" transform="translate(-32.908 -0.341)" fill="#c1131a"/><path d="M301.321,258.787s-19.539,1.3-24.025,9.986a125.625,125.625,0,0,0,0-21.276c-1.014-11.288,8.1-2.6,13.025-4.921s7.382-6.368,7.237-9.842-6.8-7.092-10.855-7.381-9.841-1.013-12.881,4.2-4.2,13.895-6.513,19.1-5.5,22.578-5.5,31.407.144,8.828,6.947,8.828,33.289-1.447,41.1-4.631S301.321,258.787,301.321,258.787Z" transform="translate(-20.208 -2.289)" fill="#fec99d"/><path d="M355.173,391.7s-9.84.292-12.446,6.942-27.789,29.53-27.789,29.53a38.81,38.81,0,0,1-.367,7.16,53.357,53.357,0,0,1-9.473,24.1c-8.476,11.825-13.895,33-13.895,33H280.487s8.683-27.5,8.11-41.976c-.283-6.99,2.22-14.506,4.873-20.405a79.048,79.048,0,0,1,5.87-10.781c-.978-6.519,26.595-44.1,26.595-44.1Z" transform="translate(-23.403 -27.951)" fill="#fec99d"/><path d="M448.994,431.011a55.024,55.024,0,0,1-5.061,25.118c-7.235,15.344-5.2,28.656-5.2,28.656l-15.052,4.638s4.628-19.107,2.605-30.4-1.448-15.052.283-21.421a53.448,53.448,0,0,0,1.3-7.347c.6-5.137.734-10.019.734-10.019s-13.6-4.054-16.793-9.84-18.523-17.084-18.523-17.084,17.366-15.335,26.341-13.6,24.027,29.813,27.79,32.71,1.157,13.9,1.157,13.9A38.117,38.117,0,0,1,448.994,431.011Z" transform="translate(-42.698 -28.705)" fill="#fec99d"/><path d="M421.2,384.555c-9.375-1.525-17.607.862-23.235,5.007a20.254,20.254,0,0,0-6.391,7.444c-3.879,8.107-9.45,6.656-14.946,6.267s-13.031-19.3-15.344-9.74c-.7,2.876-2.868,6.341-5.637,9.533-.017.017-.033.041-.05.058-6.4,7.386-15.94,13.354-17.756,7.56-2.611-8.323-28.375-17.151-28.375-17.151,2.478-13.512,11.58-35.893,15.634-40.237s9.549-.87,14.183.29,21.71,5.206,26.054.58,18.237-7.527,21.13-3.763,11.58,11.29,20.558,18.527A69.878,69.878,0,0,1,421.2,384.555Z" transform="translate(-28.361 -23.419)" fill="#317138"/><path d="M303.186,265.269c-1.993,6.593,10.677,14.473,10.677,24.025,0,0,7.526,4.053,11.578,2.895a165.453,165.453,0,0,0,0,25.473c1.158,11.578-3.184,13.315,0,19.1s26.341,7.816,36.472,4.632,18.525-7.8,21.13-9.834,3.184-31.653,7.815-42.652,2.461-17.419.145-24.367-5.066-8.828-13.17-10.565-6.369-6.079-17.079-5.211-11.868,1.158-25.183,4.342-17.078,2.605-22.578,4.631S303.8,263.243,303.186,265.269Z" transform="translate(-27.25 -6.31)" fill="#1d421b"/><path d="M353.18,285.58s4.706,19.308,14.979,19.322c0,0-14.5,3.69-25.7,3.473s-15.584-.869-26.529-.869-18.969-5.778-21.147-8.032-7.165-11.288-9.335-13.894,2.823-6.513,6.513-4.994,6.947,6.947,9.552,8.467,2.605-.217,2.823-2.388,5.427-2.822,4.776,1.086-.217,5.21,3.908,8.032,11.506,1.52,17.8-.217S346.45,287.751,353.18,285.58Z" transform="translate(-24.161 -11.714)" fill="#e2a679"/><path d="M314.57,446.653a53.357,53.357,0,0,1-9.473,24.1c-8.476,11.825-13.895,33-13.895,33H280.487s8.683-27.5,8.11-41.976c-.283-6.99,2.22-14.506,4.873-20.405C296.875,444.423,303.291,447.772,314.57,446.653Z" transform="translate(-23.403 -39.277)" fill="#1d421b"/><path d="M450.206,466.587c-7.235,15.344-5.2,28.656-5.2,28.656l-15.052,4.638s4.628-19.107,2.605-30.4-1.448-15.052.283-21.421a53.438,53.438,0,0,0,1.3-7.347c7.874.574,14.779,1.073,21.129.753A55.023,55.023,0,0,1,450.206,466.587Z" transform="translate(-48.971 -39.164)" fill="#1d421b"/><path d="M432.3,503.779s-10.348,14.184-1.664,16.21,14.831-.137,18.377,5.653,13.17,4.775,17.512,2.171-1.882-6.219-8.828-11.579-14.324-18.823-14.324-18.823Z" transform="translate(-48.493 -48.862)" fill="#1d421b"/><path d="M284.019,508.231c-1.158,1.737-8.973,11.579-12.447,16.5s-.579,13.315,7.815,8.973,8.973-7.526,11.868-9.552,4.631-2.885,2.316-9.981S284.019,508.231,284.019,508.231Z" transform="translate(-21.632 -50.701)" fill="#1d421b"/><path d="M346.659,222.48c-1.8,6.414-.289,16.788,0,21.42s8.973,15.921,17.947,9.552,12.447-19.972,8.973-27.788S368.368,215.243,362,215.532,349.264,213.216,346.659,222.48Z" transform="translate(-34.574 -0.622)" fill="#fec99d"/><path d="M366.228,215.382a18.036,18.036,0,0,1-11.256,14.052l2.281-5.934s-6.082,8.474-11.58,11.256l.038-2.713s-5.97-24.319,19.647-19.687,6.369,31.888,6.369,31.888,2.171-9.31,1.447-15.1l-2.895,3.04S370.426,217.249,366.228,215.382Z" transform="translate(-34.457)" fill="#c1131a"/><path d="M355.045,253.013s3.184-4.921,11.361-.651c0,0,.072,4.052-4.848,4.414A6.378,6.378,0,0,1,355.045,253.013Z" transform="translate(-36.157 -6.646)" fill="#ac1336"/><g transform="translate(317.443 231.898)"><path d="M357.356,238.836v.123c-.047,1.476-.941,2.662-2.033,2.662-1.119,0-2.022-1.251-2.022-2.784a2.931,2.931,0,0,1,1.251-2.577,1.576,1.576,0,0,1,.771-.207C356.444,236.052,357.356,237.294,357.356,238.836Z" transform="translate(-353.302 -236.052)" fill="#fff"/><path d="M357.572,238.836v.123a1.542,1.542,0,0,1-1.27.781c-.96,0-1.741-1.073-1.741-2.39a2.883,2.883,0,0,1,.207-1.091,1.576,1.576,0,0,1,.771-.207C356.659,236.052,357.572,237.294,357.572,238.836Z" transform="translate(-353.517 -236.052)"/></g><g transform="translate(328.587 231.898)"><path d="M370.8,238.836v.123c-.047,1.476-.941,2.662-2.033,2.662-1.119,0-2.022-1.251-2.022-2.784A2.931,2.931,0,0,1,368,236.259a1.576,1.576,0,0,1,.771-.207C369.888,236.052,370.8,237.294,370.8,238.836Z" transform="translate(-366.746 -236.052)" fill="#fff"/><path d="M371.016,238.836v.123a1.542,1.542,0,0,1-1.27.781c-.96,0-1.741-1.073-1.741-2.39a2.884,2.884,0,0,1,.207-1.091,1.577,1.577,0,0,1,.771-.207C370.1,236.052,371.016,237.294,371.016,238.836Z" transform="translate(-366.961 -236.052)"/></g><path d="M360.638,244.357a4.61,4.61,0,0,0-.283.967,1.56,1.56,0,0,0,.147.981,1.357,1.357,0,0,0,1.044.647,1.89,1.89,0,0,0,1.208-.329" transform="translate(-37.062 -5.575)" fill="none" stroke="#e2a679" stroke-miterlimit="10" stroke-width="1.135"/><path d="M407.5,395.563a20.253,20.253,0,0,0-6.391,7.444c-3.879,8.107-9.45,6.656-14.946,6.267s-13.031-19.3-15.344-9.74c-.7,2.876-2.868,6.341-5.637,9.533,6.416-8.082,3.206-27.5,5.338-25.109C375.735,389.809,396.181,398.237,407.5,395.563Z" transform="translate(-37.891 -29.42)" opacity="0.3"/></g></g></svg>