<?xml version="1.0" encoding="utf-8"?>
<!-- Generator: Adobe Illustrator 23.0.1, SVG Export Plug-In . SVG Version: 6.00 Build 0)  -->
<svg version="1.1" id="Layer_1" xmlns="http://www.w3.org/2000/svg" xmlns:xlink="http://www.w3.org/1999/xlink" x="0px" y="0px"
	 viewBox="0 0 416.5 435.9" style="enable-background:new 0 0 416.5 435.9;" xml:space="preserve">
<style type="text/css">
	.st0{fill:#FFEDF1;}
</style>
<path class="st0" d="M47.2,369.2c-23.1-18.6-43.7-43.1-46.9-73c-1-10.8,1.3-21.6,6.7-30.9c4.3-7.2,9.3-13.2,15.8-17.6
	c7.2-4.8,14.6-9.4,21.9-14.1c19.1-9.8,36.4-22.7,51.1-38.3c7.3-7.7,13.9-16,19.9-24.7c6.3-9.2,12.5-18.6,17.9-28.3
	c2.7-4.9,5.2-9.8,7.5-14.9c2.3-5,4.1-10.2,5.4-15.6c9.2-46.4,35.3-90.7,80.7-107.7c28-9.9,59.9-1,81.1,19.1
	c6,5.3,11.8,11.1,17.4,17.1c22.4,24.1,42.1,52.5,63.6,76.8c24.5,28.3,36.9,72.6,18.6,107.6c-7.6,13.8-20.1,24.3-35,29.4
	c-35.5,12.4-75.3,20.1-101.4,49.1c-18.8,20.9-19.4,49.6-26.3,76.8c-9.5,39-46.4,62.2-88.2,54.4c-26.7-4.9-49.6-19.5-71-35.3
	C72.3,390.1,59.3,380.1,47.2,369.2z"/>
</svg>
