<svg xmlns="http://www.w3.org/2000/svg" width="528" height="371.012" viewBox="0 0 528 371.012"><defs><style>.a{fill:#947dce;}.b{fill:#ce521f;}.c{fill:#ebebeb;}.d{fill:#8e96a3;}.e{fill:#3d3d3d;}.f{fill:#d0d1d6;}.g{fill:#fff;}.h{fill:#aaa;}</style></defs><g transform="translate(-786.805 -360.783)"><g transform="translate(786.805 360.783)"><path class="a" d="M1182.75,668.894a197.906,197.906,0,0,0-53.052-3.772c-27.91,1.79-55.053,9.461-82.493,14.872a515.493,515.493,0,0,1-188.213,2c-19.7-3.453-39.429-8.138-57.22-17.277-4.579-2.352-9.192-5.166-11.868-9.563s-3.051-9.774-3.094-14.916c-.136-16.6,3.683-35.16,17.43-44.466,9.363-6.338,21.325-6.98,32.625-7.415l86.228-3.316c19.244-.74,38.757-1.525,57.133-7.288,13.012-4.082,25.128-10.563,37.818-15.556,22.072-8.686,46.935-12.758,69.549-5.6,15.343,4.852,28.653,14.5,43.179,21.424,41.433,19.749,89.54,16.266,135.285,20.008,17.238,1.409,36.844,5.492,45.265,20.6,9.118,16.359-.777,38.2-16.727,48.019s-35.791,10.436-54.489,9.385c-26.97-1.514-53.688-5.893-80.345-10.265" transform="translate(-786.805 -318.675)"/><g transform="translate(77.249 61.509)"><g transform="translate(42.669 110.15)"><path class="b" d="M885.841,505.187h0a1.034,1.034,0,0,1-.611-1.324l.839-2.279,1.936.713-.84,2.279A1.034,1.034,0,0,1,885.841,505.187Z" transform="translate(-885.167 -501.584)"/></g><g transform="translate(53.455 114.104)"><path class="b" d="M894.688,508.448h0a1.034,1.034,0,0,1-.611-1.324l.839-2.279c.056-.154,1.927.734,1.927.734l-.831,2.258A1.034,1.034,0,0,1,894.688,508.448Z" transform="translate(-894.014 -504.827)"/></g><g transform="translate(42.461 108.813)"><path class="c" d="M885.67,504.981h0a1.034,1.034,0,0,1-.611-1.324l.919-2.494a1.033,1.033,0,0,1,1.324-.611h0a1.034,1.034,0,0,1,.611,1.324l-.919,2.494A1.034,1.034,0,0,1,885.67,504.981Z" transform="translate(-884.996 -500.488)"/></g><g transform="translate(53.225 112.777)"><path class="c" d="M894.5,508.232h0a1.033,1.033,0,0,1-.612-1.324l.919-2.494a1.034,1.034,0,0,1,1.324-.611h0a1.034,1.034,0,0,1,.611,1.324l-.918,2.494A1.034,1.034,0,0,1,894.5,508.232Z" transform="translate(-893.825 -503.739)"/></g><g transform="translate(39.025 137.111)"><rect class="d" width="4.384" height="6.762" transform="translate(0 4.114) rotate(-69.783)"/></g><g transform="translate(41.916 129.86)"><rect class="d" width="4.384" height="6.762" transform="translate(0 4.114) rotate(-69.783)"/></g><g transform="translate(0 185.142)"><path class="e" d="M1201.893,651.885H858.418c-3.815,0-7.842-1.924-8.25-7.525v-5.147l37.6-69.472a11.966,11.966,0,0,1,10.718-6.644h262.846c4.9,0,15.72,9.659,17.913,14.047l31.016,63.23v2.27C1210.333,649.229,1206.076,651.885,1201.893,651.885Z" transform="translate(-850.168 -563.096)"/></g><g transform="translate(0.03 177.869)"><path class="f" d="M1201.918,645.92H858.443c-3.815,0-10.093-3.345-7.734-7.458l37.081-74.687a11.968,11.968,0,0,1,10.719-6.646h262.845a12.947,12.947,0,0,1,11.581,7.159l36.706,73.452C1212.212,642.423,1206.1,645.92,1201.918,645.92Z" transform="translate(-850.193 -557.13)"/></g><g transform="translate(37.572)"><rect class="f" width="281.28" height="177.739" rx="8.435"/></g><g transform="translate(48.371 9.695)"><rect class="g" width="259.581" height="154.013"/></g><g transform="translate(126.771 232.159)"><path class="e" d="M1057.184,632.929H955.976a1.825,1.825,0,0,1-1.8-2.113l4.268-26.659a2.964,2.964,0,0,1,2.927-2.5h91.284a2.606,2.606,0,0,1,2.579,2.23l3.911,26.808A1.975,1.975,0,0,1,1057.184,632.929Z" transform="translate(-954.151 -601.661)"/></g><g transform="translate(36.141 190.158)"><path class="h" d="M1159.758,603.713H884.771c-3.05,0-5.378-1.173-4.9-2.468l11.6-31.121c.627-1.679,4-2.914,7.954-2.914H1147.45c3.515,0,6.5,1.108,7,2.6l10.629,31.3C1165.5,602.489,1163,603.713,1159.758,603.713Z" transform="translate(-879.812 -567.21)"/></g><g transform="translate(35.417 183.211)"><g transform="translate(0 12.311)"><rect class="f" width="286.765" height="1.448"/></g><g transform="translate(0 19.552)"><rect class="f" width="286.765" height="1.448"/></g><g transform="translate(0 28.242)"><rect class="f" width="286.765" height="1.448"/></g><g transform="translate(0 36.208)"><rect class="f" width="286.765" height="1.448"/></g><g transform="translate(20.406 0.773)"><rect class="f" width="2.172" height="47.794" transform="translate(14.324 0) rotate(17.439)"/></g><g transform="translate(41.406 0.773)"><rect class="f" width="2.172" height="47.794" transform="translate(14.324 0) rotate(17.439)"/></g><g transform="translate(58.062 0.773)"><rect class="f" width="2.172" height="47.794" transform="translate(14.324 0) rotate(17.439)"/></g><g transform="translate(74.717 0.773)"><rect class="f" width="2.172" height="47.794" transform="translate(14.324 0) rotate(17.439)"/></g><g transform="translate(92.097 0.773)"><rect class="f" width="2.172" height="47.794" transform="translate(14.324 0) rotate(17.439)"/></g><g transform="translate(114.954 0.23)"><rect class="f" width="2.172" height="47.794" transform="translate(9.102 0) rotate(10.978)"/></g><g transform="translate(139.037)"><rect class="f" width="2.172" height="47.794"/></g><g transform="translate(251.411 0.773)"><rect class="f" width="2.172" height="47.794" transform="translate(0 0.651) rotate(-17.439)"/></g><g transform="translate(231.135 0.773)"><rect class="f" width="2.172" height="47.794" transform="translate(0 0.651) rotate(-17.439)"/></g><g transform="translate(210.858 0.773)"><rect class="f" width="2.172" height="47.794" transform="translate(0 0.651) rotate(-17.439)"/></g><g transform="translate(190.582 0.773)"><rect class="f" width="2.172" height="47.794" transform="translate(0 0.651) rotate(-17.439)"/></g><g transform="translate(170.306 0.773)"><rect class="f" width="2.172" height="47.794" transform="translate(0 0.651) rotate(-17.439)"/></g><g transform="translate(150.029 0.773)"><rect class="f" width="2.172" height="47.794" transform="translate(0 0.651) rotate(-17.439)"/></g></g></g><g transform="translate(46.273 120.194)"><path class="a" d="M841.593,566.627a131.7,131.7,0,0,1,1.335-101.654c1.875-4.27-4.426-8-6.316-3.692a138.848,138.848,0,0,0-2.073,107.29c1.73,4.316,8.808,2.432,7.054-1.945Z" transform="translate(-824.76 -459.37)"/></g><g transform="translate(200.399)"><path class="a" d="M955.565,377.615a131.7,131.7,0,0,1,101.656,1.335c4.269,1.875,8-4.426,3.692-6.316a138.852,138.852,0,0,0-107.292-2.073c-4.315,1.73-2.431,8.808,1.945,7.054Z" transform="translate(-951.181 -360.783)"/></g><g transform="translate(440.436 123.193)"><path class="a" d="M1149.748,466.215a131.7,131.7,0,0,1-1.335,101.656c-1.875,4.269,4.425,8,6.317,3.692a138.852,138.852,0,0,0,2.073-107.292c-1.73-4.315-8.809-2.431-7.054,1.945Z" transform="translate(-1148.068 -461.831)"/></g></g><g transform="translate(1015.771 478.577)"><path class="a" d="M995.3,512.2a2.608,2.608,0,0,1-2.609-2.6v-.017a24.415,24.415,0,0,1,1.456-8.875,20.182,20.182,0,0,1,3.443-5.674,65.46,65.46,0,0,1,6.28-6.087q4.535-4,5.893-6.377a10.284,10.284,0,0,0,1.358-5.189,12.1,12.1,0,0,0-3.978-8.947,13.467,13.467,0,0,0-9.747-3.856,13.11,13.11,0,0,0-9.312,3.492,16.586,16.586,0,0,0-4.446,8.582,2.642,2.642,0,0,1-2.876,2.042l-3.824-.455a2.631,2.631,0,0,1-2.265-3.142,21.887,21.887,0,0,1,6.744-12.411q5.989-5.285,15.833-5.285,10.427,0,16.635,5.674a17.929,17.929,0,0,1,6.208,13.724,17.387,17.387,0,0,1-2.182,8.584q-2.183,3.93-8.537,9.554a43.321,43.321,0,0,0-5.576,5.578,12.409,12.409,0,0,0-1.94,4.122,25.654,25.654,0,0,0-.642,5.068,2.633,2.633,0,0,1-2.624,2.5Zm-3.094,14.88V522.4a2.628,2.628,0,0,1,2.628-2.627h4.686a2.627,2.627,0,0,1,2.627,2.627v4.688a2.627,2.627,0,0,1-2.627,2.627h-4.686A2.628,2.628,0,0,1,992.2,527.084Z" transform="translate(-974.612 -457.402)"/></g></g></svg>