<svg xmlns="http://www.w3.org/2000/svg" xmlns:xlink="http://www.w3.org/1999/xlink" width="1365.799" height="756" viewBox="0 0 1365.799 756">
  <defs>
    <clipPath id="clip-path">
      <rect id="SVGID" width="1365.799" height="756" transform="translate(0.1 2853.209)" fill="none"/>
    </clipPath>
    <clipPath id="clip-path-2">
      <rect id="SVGID-2" data-name="SVGID" width="544.615" height="469.58" transform="translate(244.751 3139.63)" fill="none"/>
    </clipPath>
  </defs>
  <g id="Group_46964" data-name="Group 46964" transform="translate(-0.1 -2853.209)">
    <g id="Group_46946" data-name="Group 46946">
      <g id="Group_46945" data-name="Group 46945" clip-path="url(#clip-path)">
        <g id="Group_46944" data-name="Group 46944">
          <path id="Path_60142" data-name="Path 60142" d="M1365.9,2855.246v758.463l-242.228-67.586-32.991-6.263,1.636-558.092,30.118-25.561Z" fill="#d2c3db"/>
          <path id="Path_60143" data-name="Path 60143" d="M316.2,2971.181l-16.051,556.371L.1,3601.95V2851.9l298.845,93.571Z" fill="#d2c3db"/>
          <path id="Path_60144" data-name="Path 60144" d="M697.877,2934.781H273.269v617.384h849.165V2934.781Z" fill="#eadff1"/>
          <path id="Path_60145" data-name="Path 60145" d="M-.1,2906.489c121.657,30.38,335.7,73.888,615,80.372,352.971,8.195,622.428-47.1,751-78.7v-62.455H-.1Z" fill="#000"/>
          <path id="Path_60146" data-name="Path 60146" d="M-.1,3568.393c121.657-29.39,335.7-71.48,615-77.753,352.971-7.927,622.428,45.568,751,76.133v47.19L.1,3616.709Z" fill="#000"/>
        </g>
      </g>
    </g>
    <g id="Group_46947" data-name="Group 46947">
      <path id="Path_60147" data-name="Path 60147" d="M1160.033,3101.2v207l66.988,8.1,21.016,2.53,77.5,9.37v-247l-77.5,9.37-21.016,2.53Z" fill="#000" stroke="#4f3b65" stroke-miterlimit="10" stroke-width="6.876"/>
    </g>
    <path id="Path_60148" data-name="Path 60148" d="M201.235,3088.687V3319.1l-56.767,9.016-17.809,2.816-65.672,10.43V3066.425l65.672,10.43,17.809,2.816Z" fill="#000" stroke="#4f3b65" stroke-miterlimit="10" stroke-width="6"/>
    <g id="Group_46959" data-name="Group 46959">
      <g id="Group_46958" data-name="Group 46958" clip-path="url(#clip-path-2)">
        <g id="Group_46957" data-name="Group 46957">
          <g id="Group_46948" data-name="Group 46948">
            <path id="Path_60149" data-name="Path 60149" d="M733.359,3467.874s7.188-8.2,15.568-9.845c4.982-.98,4.813-2.237,5.652-2.649,2.786-1.365.256,4.014-3.947,5.54-3.416,1.241-5.106,7.234-7.135,8.574s-8.16,3.9-9.747,3.147S733.359,3467.874,733.359,3467.874Z" fill="#d8a35d" fill-rule="evenodd"/>
            <path id="Path_60150" data-name="Path 60150" d="M711.267,3479.065c1.529-.583,17.493-11.057,26.332-12.24s22.094-2.1,26.621-3.59c5.326-1.754,6.775.331.664,2.956-3.972,1.706-12.141,4.433-13.968,4.582-.886.073,4.863-.941,11.093-2.5,6.623-1.659,13.792-3.84,14.172-2.663.738,2.28-18.29,8.259-21.666,8.765a85.654,85.654,0,0,0,8.893-1.45c4-.882,8.568-2.5,9.511-1.7,1.485,1.26-8.542,5.677-16.917,7.191-.135.278,2.6.593,12.429-1.873.988-.248,3.541.083.342,1.725-6.734,3.456-9.375,5.44-19.31,6.159-9.689.7-20.479-.856-27.36,1.771Z" fill="#d8a35d" fill-rule="evenodd"/>
          </g>
          <path id="Path_60151" data-name="Path 60151" d="M718.27,3490.905c-7.765,3.039-64.148,13.378-115.9,2.012-32.665-7.161-63.473-22.986-79.06-54.751-40.275-82.112,53.837-128.69,53.837-128.69a1.772,1.772,0,0,1,.14.225c4.08,6.162,91.805,137.778,152.675,158.316C729.96,3468.017,730.931,3485.939,718.27,3490.905Z" fill="#947dce"/>
          <g id="Group_46952" data-name="Group 46952">
            <g id="Group_46949" data-name="Group 46949">
              <path id="Path_60152" data-name="Path 60152" d="M306.454,3625.861l11.32.02,3.8.01a106.937,106.937,0,0,0,18.51,3.61,100.959,100.959,0,0,0,20.97.03,83.07,83.07,0,0,0,17.28-3.53l2.22.01c.36-5.609.72-11.33,1.06-17.07.38-6.18.74-12.4,1.1-18.56.38-6.539.75-13.01,1.11-19.33.15-2.49.3-4.959.44-7.39q.3-5.22.6-10.22c.58-9.669,1.15-18.65,1.71-26.5.37-5.13.73-9.78,1.1-13.82.88-9.68,1.77-15.87,2.69-16.87.35-.38.67-.26.97.3.95,1.81,1.64,8.291,2.17,18.12.18,3.39.34,7.18.48,11.32q.12,3.345.22,6.98c.19,6.76.35,14.23.49,22.23.04,2.761.09,5.58.13,8.46.05,2.97.09,6,.14,9.09.09,6.94.18,14.151.28,21.51.06,5.391.13,10.87.2,16.391.06,5.1.13,10.239.2,15.389l17.36.03,22.72.05,20.74.04,19.75.04c-.21-3.92-.42-7.989-.62-12.16-.33-6.59-.66-13.46-.99-20.48-.3-6.56-.61-13.25-.91-19.969-.14-3.311-.29-6.621-.43-9.931q-.27-5.94-.52-11.86c-.27-6.42-.53-12.77-.79-18.959-.23-5.38-.44-10.63-.65-15.711-.04-1.13-.09-2.26-.13-3.37-.23-5.58-.44-10.93-.64-15.96v-.05c-.06-1.539-.12-3.06-.18-4.539-.21-5.241-.39-10.081-.56-14.411-.54-14-.86-22.73-.86-22.73a11.407,11.407,0,0,1-6.71,2.43c-1.8-.12-4.3-.289-7.37-.49-3.68-.26-8.18-.58-13.28-.95h-.01q-3.63-.27-7.62-.57c-.59-.05-1.18-.089-1.78-.13h-.01c-5.71-.44-11.87-.93-18.28-1.459q-2.775-.227-5.63-.471c-.54-.05-1.08-.089-1.63-.14h-.01c-3.99-.34-8.04-.69-12.1-1.06-5.11-.47-10.22-.95-15.23-1.45-2.08-.21-4.15-.42-6.18-.629-3.24-.341-6.42-.69-9.5-1.041h-.04c-3.06-.35-6.03-.709-8.87-1.07-2.38-.3-4.68-.6-6.87-.91-.11-.01-.22-.03-.33-.039-.93-.13-1.44-.211-1.44-.211-5.12-.74-9.6-1.49-13.21-2.24-1.05-.22-2.03-.44-2.93-.66-.12-.04-.25-.07-.37-.1-.2-.05-.4-.1-.59-.15-.58-.15-1.11-.3-1.6-.45-.56-.17-1.07-.34-1.52-.52-.13-.049-.26-.1-.38-.15a9.328,9.328,0,0,1-1.13-.54,2.787,2.787,0,0,1-.86-.69v.15c-.01.2-.02.61-.04,1.21-.01.15-.01.3-.02.46-.02.54-.04,1.19-.07,1.96-.02.611-.05,1.28-.07,2.03-.02.56-.04,1.16-.06,1.79-.02.34-.03.69-.04,1.05,0,.09-.01.17-.01.26-.01.34-.02.69-.04,1.051q-.06,1.965-.15,4.259c-.02.551-.04,1.12-.06,1.71-.03,1.05-.07,2.14-.11,3.27-.05,1.42-.1,2.91-.15,4.46v.1c-.01.2-.01.41-.02.62l-.03.84c-.02.51-.03,1.02-.05,1.53-.02.57-.04,1.15-.06,1.73-.02.52-.03,1.05-.05,1.59-.12,3.44-.24,7.09-.36,10.92-.03.63-.05,1.27-.07,1.91-.05,1.29-.09,2.6-.13,3.92-.08,2.391-.16,4.85-.24,7.35-.15,4.62-.37,9.4-.65,14.291-.34,5.789-.76,11.75-1.26,17.789q-.33,3.93-.7,7.9c-.88,9.5-1.93,19.15-3.1,28.681-.04.329-.08.659-.13.989-.76,6.15-1.57,12.24-2.42,18.21-.9,6.3-1.84,12.47-2.81,18.42-1.02,6.25-2.07,12.261-3.12,17.941C307.1,3622.5,306.784,3624.2,306.454,3625.861Z" fill="#ffc84f"/>
            </g>
            <g id="Group_46950" data-name="Group 46950" opacity="0.3">
              <path id="Path_60153" data-name="Path 60153" d="M408.139,3454.43c.249,0,.5,0,.737,0C408.876,3454.432,408.615,3454.428,408.139,3454.43Z"/>
              <path id="Path_60154" data-name="Path 60154" d="M408.139,3454.43c-19.658-.121-62.093-6.551-62.093-6.551-12.477-1.8-21.187-3.672-22.589-5.5,0,0,0,.052,0,.146-.076,1.967-.881,24.492-1.831,54.026a14.568,14.568,0,0,0,2.072-.061c4.463-.436,8.069-2.869,10.964-6.453A35.611,35.611,0,0,0,339.4,3482C356.338,3455.55,401.836,3454.454,408.139,3454.43Z" opacity="0.5"/>
            </g>
            <g id="Group_46951" data-name="Group 46951">
              <path id="Path_60155" data-name="Path 60155" d="M454.814,3453.431l.04,4.58.2,20.15.21,22.49v.04l.17,17.18v.92l.16,16.68.22,22.4.05,5.79.14,14.7.2,20.92.19,19.49.07,7.39" fill="none" stroke="#947dce" stroke-miterlimit="10" stroke-width="1.407"/>
              <path id="Path_60156" data-name="Path 60156" d="M433.934,3455.991l.01.5.03,3.68.18,16.93.21,19.58.06,5.62.18,17.43.01,1.35.17,16.12.24,22.91.04,3.55.18,16.56.21,20.49.2,19.05.07,6.36" fill="none" stroke="#947dce" stroke-miterlimit="10" stroke-width="1.407"/>
              <path id="Path_60157" data-name="Path 60157" d="M413.874,3454.271v.63l-.05,8.96-.02,4.56-.04,7.49-.08,14.98-.05,10.35-.09,17.26-.02,5.06-.07,13.12-.11,22.05-.03,4.93-.07,14.44-.1,20.32-.1,18.09-.04,9.56" fill="none" stroke="#947dce" stroke-miterlimit="10" stroke-width="1.407"/>
              <line id="Line_1704" data-name="Line 1704" x1="4.197" y2="43.649" transform="translate(390.366 3452.607)" fill="none" stroke="#947dce" stroke-miterlimit="10" stroke-width="1.407"/>
              <path id="Path_60158" data-name="Path 60158" d="M361.054,3629.531l.24-3.56.96-14.25,1.29-19.07,1.22-18.12.74-10.87.56-8.31.1-1.46,1.28-19.02.37-5.42.81-12.05,1.47-21.77,1.31-19.36.23-3.46.17-2.53.03-.41.6-8.93.08-1.19.56-8.24.02-.36.03-.39" fill="none" stroke="#947dce" stroke-miterlimit="10" stroke-width="1.407"/>
              <path id="Path_60159" data-name="Path 60159" d="M340.084,3629.5l.29-3.57,1.25-15.41,1.52-18.8,1.43-17.7,1.31-16.22.27-3.26,1.65-20.47.01-.1.14-1.74,1.27-15.72,1.72-21.29,1.97-24.26.16-2.02.03-.4.48-5.94,1.09-13.48.01-.08" fill="none" stroke="#947dce" stroke-miterlimit="10" stroke-width="1.407"/>
              <path id="Path_60160" data-name="Path 60160" d="M336.554,3447.481l-1.39,13.21-.2,1.91-.62,5.91-2.5,23.69-.08.81v.01l-2.11,19.98-1.86,17.64-.48,4.62-1.59,15.1v.01l-1.42,13.45-.52,4.91-1.95,18.52-1.95,18.58-2,18.92-.11,1.13" fill="none" stroke="#947dce" stroke-miterlimit="10" stroke-width="1.407"/>
            </g>
            <path id="Path_60161" data-name="Path 60161" d="M469.794,3478.8s-116.88-4.517-147.164-12.657" fill="none" stroke="#947dce" stroke-miterlimit="10" stroke-width="1.407"/>
            <path id="Path_60162" data-name="Path 60162" d="M390.366,3496.255c39.936,12.728,80.168,1.5,80.168,1.5" fill="none" stroke="#947dce" stroke-miterlimit="10" stroke-width="1.407"/>
            <path id="Path_60163" data-name="Path 60163" d="M391.043,3493.537s-37.645,7.167-69.181-4.332" fill="none" stroke="#947dce" stroke-miterlimit="10" stroke-width="1.407"/>
            <path id="Path_60164" data-name="Path 60164" d="M471.174,3513.765s-30.674,12.843-77.676.909" fill="none" stroke="#947dce" stroke-miterlimit="10" stroke-width="1.407"/>
            <path id="Path_60165" data-name="Path 60165" d="M471.954,3532.838s-46.875,10.016-77.755.131" fill="none" stroke="#947dce" stroke-miterlimit="10" stroke-width="1.407"/>
            <path id="Path_60166" data-name="Path 60166" d="M472.751,3551.787s-24.831,16.235-78.062,3.416" fill="none" stroke="#947dce" stroke-miterlimit="10" stroke-width="1.407"/>
            <path id="Path_60167" data-name="Path 60167" d="M473.7,3573.586s-37.064,15.483-78.741-.835" fill="none" stroke="#947dce" stroke-miterlimit="10" stroke-width="1.407"/>
            <path id="Path_60168" data-name="Path 60168" d="M474.61,3593.56s-26.656,15.672-79.373.7" fill="none" stroke="#947dce" stroke-miterlimit="10" stroke-width="1.407"/>
            <path id="Path_60169" data-name="Path 60169" d="M475.6,3614.04s-36.233,15.144-80.156-3.387" fill="none" stroke="#947dce" stroke-miterlimit="10" stroke-width="1.407"/>
            <path id="Path_60170" data-name="Path 60170" d="M387.675,3513.123s-16.446,11.359-67.653-2.527" fill="none" stroke="#947dce" stroke-miterlimit="10" stroke-width="1.407"/>
            <path id="Path_60171" data-name="Path 60171" d="M385.63,3532.172s-22.412,8.193-65.919-3.542" fill="none" stroke="#947dce" stroke-miterlimit="10" stroke-width="1.407"/>
            <path id="Path_60172" data-name="Path 60172" d="M384.86,3553.442s-34.135,7.16-66.789-5.744" fill="none" stroke="#947dce" stroke-miterlimit="10" stroke-width="1.407"/>
            <path id="Path_60173" data-name="Path 60173" d="M383.828,3571.048s-33.581,11.6-67.912-5.841" fill="none" stroke="#947dce" stroke-miterlimit="10" stroke-width="1.407"/>
            <path id="Path_60174" data-name="Path 60174" d="M382.714,3590.378s-31.723,8.157-69.35-5.965" fill="none" stroke="#947dce" stroke-miterlimit="10" stroke-width="1.407"/>
            <path id="Path_60175" data-name="Path 60175" d="M381.618,3608.942s-26.959,9.413-71.061-6.112" fill="none" stroke="#947dce" stroke-miterlimit="10" stroke-width="1.407"/>
            <path id="Path_60176" data-name="Path 60176" d="M307.434,3620.771a109.713,109.713,0,0,0,10.45,3.98q1.86.615,3.69,1.14a107.145,107.145,0,0,0,18.51,3.61,101.044,101.044,0,0,0,20.97.03,83.07,83.07,0,0,0,17.28-3.53c1.22-.4,1.87-.67,1.87-.67" fill="none" stroke="#947dce" stroke-miterlimit="10" stroke-width="1.407"/>
          </g>
          <path id="Path_60177" data-name="Path 60177" d="M482.339,3225.347s-3.439,16.9-16.306,22.967,23.393,6.984,23.393,6.984-1.536-17.626,2.788-27S482.339,3225.347,482.339,3225.347Z" fill="#d19442"/>
          <ellipse id="Ellipse_10036" data-name="Ellipse 10036" cx="18.521" cy="25.269" rx="18.521" ry="25.269" transform="translate(463.916 3191.067) rotate(-21.079)" fill="#d8a35d"/>
          <path id="Path_60178" data-name="Path 60178" d="M602.368,3492.917c-32.665-7.161-63.473-22.986-79.06-54.751-.056.084-.112.155-.168.239-.169.211-.338.436-.507.689a.766.766,0,0,0-.112.155C518.033,3445.383,496,3475.5,496,3475.515c-7.99,10.41-20.2,20.412-29.893,24.436-.633.281-1.28.52-1.871.731-23.76,3.714-122.711-33.889-134.5-43.286-5.317-4.234-7.4-24.083-7.821-45.607-.535-26.235,1.364-55,2.757-61.067,2.363-10.17,49.082-122.7,122.387-115.578a75.141,75.141,0,0,1,19.076,4.473s.549.577,1.519,1.435a36.075,36.075,0,0,0,6.626,4.713,28.121,28.121,0,0,0,6.767,2.715,20.735,20.735,0,0,0,13.828-1.126c4.586-2.054,14.771.352,27.136,7.259,17.177,9.58,38.6,27.854,55.131,54.863a1.772,1.772,0,0,1,.14.225,176.716,176.716,0,0,1,23.69,65.035A419.371,419.371,0,0,1,602.368,3492.917Z" fill="#947dce"/>
          <path id="Path_60179" data-name="Path 60179" d="M523.3,3438.159c-.055.087-.12.156-.175.242-.167.214-.338.442-.5.688-.043.046-.073.095-.12.155-4.488,6.132-26.5,36.262-26.509,36.275-7.994,10.4-20.2,20.409-29.9,24.428,11.025-17.6,44.138-68.273,50.193-90.865C513,3431.618,523.309,3438.146,523.3,3438.159Z" opacity="0.15"/>
          <path id="Path_60180" data-name="Path 60180" d="M478.689,3252.1c-.533,1.588,0,2.893,2.682,3.311,8.359,1.307,17.363,4.244,23.053,9.232a5.843,5.843,0,0,0,5.487,1.389c4.956-1.208,9.768-7.787,11.78-10.739a2.336,2.336,0,0,0,.321-.682c-12.369-6.908-22.544-9.315-27.139-7.251a20.706,20.706,0,0,1-13.824,1.114A11.388,11.388,0,0,0,478.689,3252.1Z" opacity="0.15"/>
          <g id="Group_46954" data-name="Group 46954">
            <g id="Group_46953" data-name="Group 46953">
              <path id="Path_60181" data-name="Path 60181" d="M491.563,3191.948s-23.524,28.119-24.91-1.936C465.7,3169.218,507.391,3172.21,491.563,3191.948Z" fill="#ffc84f"/>
              <path id="Path_60182" data-name="Path 60182" d="M484.774,3187.257s20.567,3.48,22.793,14.066c0,0-7.775-31.17-24.707-25.5s-22.757,9.758-9.155,40.644C473.7,3216.465,468.9,3189.579,484.774,3187.257Z" fill="#ffc84f"/>
            </g>
            <path id="Path_60183" data-name="Path 60183" d="M483.66,3175.735s-4.413-8.944-13.1-4.09-10.6,11.623-9.885,17.379.916,10.2-.4,10.706c0,0,5.456,2.42,6.262.6,0,0,.232,10.753,7.548,16.834,0,0-2.9-12.6,3.158-16.438S483.66,3175.735,483.66,3175.735Z" fill="#ffc84f"/>
            <path id="Path_60184" data-name="Path 60184" d="M482.788,3175.979s5.046-6.467,15.15.191l6.974,6.358s-.807,1.819-3.938,1.518c0,0,4.761,8.787,5.519,14.491l-9.963-14.286Z" fill="#ffc84f"/>
          </g>
          <path id="Path_60185" data-name="Path 60185" d="M339.134,3412.33s10.265-40.773,114.077,4.9-88.524,1.465-88.524,1.465Z" opacity="0.15"/>
          <path id="Path_60186" data-name="Path 60186" d="M385.333,3309.475s3.647,110.087-102.058,124.82l-2.266.692,7.508-23.4s62.09-48.074,62.725-49.6S385.333,3309.475,385.333,3309.475Z" opacity="0.15"/>
          <g id="Group_46956" data-name="Group 46956">
            <g id="Group_46955" data-name="Group 46955">
              <path id="Path_60187" data-name="Path 60187" d="M438.668,3429.314c1.4-.047,17.3-4.1,24.816-2.589s18.539,4.467,22.634,4.521c4.818.063,5.413,2.162-.287,2.587-3.7.277-11.1.21-12.63-.179-.74-.189,4.215.593,9.713,1.066,5.845.5,12.28.734,12.26,1.8-.037,2.059-17.17,1.6-20.054,1.068a73.319,73.319,0,0,0,7.631,1.307c3.5.4,7.661.363,8.2,1.276.855,1.439-8.527,2.226-15.754,1.116-.188.189,1.949,1.209,10.622,1.951.871.075,2.854,1.057-.2,1.5-6.438.926-9.138,1.8-17.412-.392-8.068-2.137-16.4-6.417-22.726-6.205Z" fill="#d8a35d" fill-rule="evenodd"/>
              <path id="Path_60188" data-name="Path 60188" d="M459.746,3426.393s8.13-4.653,15.4-3.65c4.322.6,4.536-.473,5.333-.573,2.645-.331-.914,3.333-4.756,3.4-3.122.054-6.169,4.452-8.193,4.974s-7.719.886-8.8-.166S459.746,3426.393,459.746,3426.393Z" fill="#d8a35d" fill-rule="evenodd"/>
            </g>
            <path id="Path_60189" data-name="Path 60189" d="M372.12,3231.53c-32.174,15.137-56.041,30.992-87.724,97.13-16.074,33.556-25.14,69.2-29.236,88.206a22.9,22.9,0,0,0,9.383,23.582c71.717,49.99,181.634.593,181.634.593,5.062-.336.741-19.319.741-19.319-43.843-13.586-77.945-22.3-117.016-19.283.2-.03,53.7-54.177,63.64-70.554,26.054-42.952,78.072-71.321,73.177-92.665C465.03,3231.838,404.572,3216.261,372.12,3231.53Z" fill="#947dce"/>
          </g>
        </g>
      </g>
    </g>
    <g id="Group_46960" data-name="Group 46960">
      <path id="Path_60190" data-name="Path 60190" d="M1253.349,3258.66a2.919,2.919,0,0,1-1.15-.065,3.179,3.179,0,0,1-1.9-4.271,3.944,3.944,0,0,1,3.059-2.713,2.9,2.9,0,0,1,1.15.064,3.179,3.179,0,0,1,1.9,4.271,3.943,3.943,0,0,1-3.059,2.714m-10.025-3.364-26.711-7.111,1.732-5.187,26.718,7.11-1.739,5.188m-34.25-8.41a2.888,2.888,0,0,1-1.147-.065,3.184,3.184,0,0,1-1.9-4.271,3.948,3.948,0,0,1,3.055-2.716,2.89,2.89,0,0,1,1.154.067,3.18,3.18,0,0,1,1.9,4.272,3.951,3.951,0,0,1-3.062,2.713m11.306-12.184a4.325,4.325,0,0,1-1.723-.1c-2.53-.673-3.806-3.536-2.848-6.4a5.925,5.925,0,0,1,4.591-4.071,4.31,4.31,0,0,1,1.727.1c2.53.673,3.806,3.536,2.848,6.4a5.938,5.938,0,0,1-4.595,4.072m56.383-46.1a2.922,2.922,0,0,1-1.146-.064,3.192,3.192,0,0,1-1.9-4.28,3.947,3.947,0,0,1,3.055-2.708,2.891,2.891,0,0,1,1.155.068,3.18,3.18,0,0,1,1.9,4.271,3.957,3.957,0,0,1-3.064,2.713m-31.426,42.938a20.234,20.234,0,0,1-8.046-.457c-11.807-3.138-17.748-16.53-13.279-29.908,3.467-10.368,12.184-17.69,21.426-18.989a20.2,20.2,0,0,1,8.039.457c11.807,3.146,17.756,16.529,13.279,29.907a28.932,28.932,0,0,1-14.131,16.674l3.982,5.739c1.781,2.568.677,6.595-2.265,8.271a5.134,5.134,0,0,1-1.823.636,4.254,4.254,0,0,1-4.835-3.642l-1.592-8.808c-.251.044-.5.084-.755.12m-12.841-54.717a2.869,2.869,0,0,1-1.151-.068,3.179,3.179,0,0,1-1.9-4.271,3.944,3.944,0,0,1,3.059-2.713,2.9,2.9,0,0,1,1.15.064,3.185,3.185,0,0,1,1.9,4.271,3.951,3.951,0,0,1-3.058,2.717m-2.654-10.644a2.968,2.968,0,0,0-2.293,2.034l-26.02,77.845a2.386,2.386,0,0,0,1.42,3.206l51.908,13.8a2.15,2.15,0,0,0,.866.05,2.965,2.965,0,0,0,2.293-2.033l26.02-77.845a2.385,2.385,0,0,0-1.42-3.206l-51.908-13.8a2.172,2.172,0,0,0-.866-.051" fill="#ccc"/>
      <path id="Path_60191" data-name="Path 60191" d="M1232.506,3169.774a3.944,3.944,0,0,0-3.059,2.713,3.179,3.179,0,0,0,1.9,4.271,2.869,2.869,0,0,0,1.151.068,3.951,3.951,0,0,0,3.058-2.717,3.185,3.185,0,0,0-1.9-4.271,2.9,2.9,0,0,0-1.15-.064" fill="#0d1917"/>
      <path id="Path_60192" data-name="Path 60192" d="M1276.774,3181.553a3.947,3.947,0,0,0-3.055,2.708,3.192,3.192,0,0,0,1.9,4.28,2.922,2.922,0,0,0,1.146.064,3.957,3.957,0,0,0,3.064-2.713,3.18,3.18,0,0,0-1.9-4.271,2.891,2.891,0,0,0-1.155-.068" fill="#0d1917"/>
      <path id="Path_60193" data-name="Path 60193" d="M1245.438,3182.189c-9.242,1.3-17.959,8.621-21.426,18.989-4.469,13.378,1.472,26.77,13.279,29.908a20.234,20.234,0,0,0,8.046.457c.253-.036.5-.076.755-.12l-.93-5.142a15.885,15.885,0,0,1-6.14-.382c-9.269-2.475-13.943-12.994-10.431-23.5,2.722-8.149,9.565-13.9,16.826-14.922a15.886,15.886,0,0,1,6.329.362c9.277,2.465,13.942,12.985,10.431,23.488a22.539,22.539,0,0,1-12.449,13.72l2.9,4.177a28.932,28.932,0,0,0,14.131-16.674c4.477-13.378-1.472-26.761-13.279-29.907a20.2,20.2,0,0,0-8.039-.457" fill="#0d1917"/>
      <path id="Path_60194" data-name="Path 60194" d="M1245.417,3187.48c-7.261,1.021-14.1,6.773-16.826,14.922-3.512,10.5,1.162,21.022,10.431,23.5a15.885,15.885,0,0,0,6.14.382l-.312-1.728a14.391,14.391,0,0,1-5.248-.387c-8.429-2.247-12.68-11.8-9.483-21.357,2.474-7.413,8.7-12.64,15.3-13.569a14.453,14.453,0,0,1,5.743.326c8.437,2.245,12.679,11.805,9.482,21.365a20.377,20.377,0,0,1-11.908,12.7l.988,1.423a22.539,22.539,0,0,0,12.449-13.72c3.511-10.5-1.154-21.023-10.431-23.488a15.886,15.886,0,0,0-6.329-.362" fill="#947dce"/>
      <path id="Path_60195" data-name="Path 60195" d="M1245.368,3214.8a6.53,6.53,0,0,1-2.585-.146c-3.794-1.014-5.708-5.309-4.267-9.617a8.883,8.883,0,0,1,6.884-6.1,6.5,6.5,0,0,1,2.585.146c3.794,1.014,5.708,5.317,4.267,9.617a8.887,8.887,0,0,1-6.884,6.1m.055-25.558c-6.6.929-12.83,6.156-15.3,13.569-3.2,9.552,1.054,19.11,9.483,21.357a14.391,14.391,0,0,0,5.248.387l-1.6-8.835,5.487,7.909a20.377,20.377,0,0,0,11.908-12.7c3.2-9.56-1.045-19.12-9.482-21.365a14.453,14.453,0,0,0-5.743-.326" fill="#0d1917"/>
      <path id="Path_60196" data-name="Path 60196" d="M1245.375,3213.035a5.052,5.052,0,0,1-2.013-.115c-2.953-.787-4.437-4.131-3.317-7.478a6.914,6.914,0,0,1,5.352-4.745,5.028,5.028,0,0,1,2.008.115c2.954.786,4.437,4.131,3.326,7.476a6.921,6.921,0,0,1-5.356,4.747m.025-14.1a8.883,8.883,0,0,0-6.884,6.1c-1.441,4.308.473,8.6,4.267,9.617a6.53,6.53,0,0,0,2.585.146,8.887,8.887,0,0,0,6.884-6.1c1.441-4.3-.473-8.6-4.267-9.617a6.5,6.5,0,0,0-2.585-.146" fill="#947dce"/>
      <path id="Path_60197" data-name="Path 60197" d="M1245.378,3210.39a2.875,2.875,0,0,1-1.146-.065,3.173,3.173,0,0,1-1.9-4.271,3.944,3.944,0,0,1,3.059-2.713,2.9,2.9,0,0,1,1.15.064,3.19,3.19,0,0,1,1.9,4.272,3.963,3.963,0,0,1-3.064,2.713m.019-9.693a6.914,6.914,0,0,0-5.352,4.745c-1.12,3.347.364,6.691,3.317,7.478a5.052,5.052,0,0,0,2.013.115,6.921,6.921,0,0,0,5.356-4.747c1.111-3.345-.372-6.69-3.326-7.476a5.028,5.028,0,0,0-2.008-.115" fill="#0d1917"/>
      <path id="Path_60198" data-name="Path 60198" d="M1245.393,3203.341a3.944,3.944,0,0,0-3.059,2.713,3.173,3.173,0,0,0,1.9,4.271,2.875,2.875,0,0,0,1.146.065,3.963,3.963,0,0,0,3.064-2.713,3.19,3.19,0,0,0-1.9-4.272,2.9,2.9,0,0,0-1.15-.064" fill="#947dce"/>
      <path id="Path_60199" data-name="Path 60199" d="M1220.391,3232.939a2.891,2.891,0,0,1-1.155-.067,3.18,3.18,0,0,1-1.9-4.272,3.961,3.961,0,0,1,3.064-2.713,2.921,2.921,0,0,1,1.146.064,3.193,3.193,0,0,1,1.9,4.28,3.947,3.947,0,0,1-3.055,2.708m.009-8.809a5.925,5.925,0,0,0-4.591,4.071c-.958,2.867.318,5.73,2.848,6.4a4.325,4.325,0,0,0,1.723.1,5.938,5.938,0,0,0,4.595-4.072c.958-2.866-.318-5.729-2.848-6.4a4.31,4.31,0,0,0-1.727-.1" fill="#0d1917"/>
      <path id="Path_60200" data-name="Path 60200" d="M1253.36,3251.611a3.944,3.944,0,0,0-3.059,2.713,3.179,3.179,0,0,0,1.9,4.271,2.919,2.919,0,0,0,1.15.065,3.943,3.943,0,0,0,3.059-2.714,3.179,3.179,0,0,0-1.9-4.271,2.9,2.9,0,0,0-1.15-.064" fill="#0d1917"/>
      <path id="Path_60201" data-name="Path 60201" d="M1220.4,3225.887a3.961,3.961,0,0,0-3.064,2.713,3.18,3.18,0,0,0,1.9,4.272,2.891,2.891,0,0,0,1.155.067,3.947,3.947,0,0,0,3.055-2.708,3.193,3.193,0,0,0-1.9-4.28,2.921,2.921,0,0,0-1.146-.064" fill="#947dce"/>
      <path id="Path_60202" data-name="Path 60202" d="M1218.345,3243l-1.731,5.188,26.711,7.111,1.74-5.188-26.719-7.11" fill="#0d1917"/>
      <path id="Path_60203" data-name="Path 60203" d="M1243.253,3215.718l1.6,8.835.312,1.728.93,5.142,1.592,8.808a4.254,4.254,0,0,0,4.835,3.642,5.134,5.134,0,0,0,1.823-.636c2.942-1.676,4.046-5.7,2.265-8.271l-3.982-5.739-2.9-4.177-.988-1.423-5.487-7.909" fill="#947dce"/>
    </g>
    <g id="Group_46961" data-name="Group 46961">
      <path id="Path_60204" data-name="Path 60204" d="M110.026,3259.945l.082-44.025,51.851-7.287-.081,44.025-51.852,7.287m63.563-99.613-11.543,1.622-.066,35.8-43.745,6.148.066-35.8-23.342,3.281a6.4,6.4,0,0,0-5.169,6.293l-.165,88.585c0,3.078,2.3,5.244,5.149,4.843l78.63-11.051a6.4,6.4,0,0,0,5.169-6.293l.165-88.585c0-3.078-2.3-5.244-5.149-4.843" fill="#333"/>
      <path id="Path_60205" data-name="Path 60205" d="M146.253,3196.717l.044-23.335,11.8-1.659-.043,23.336-11.8,1.658m-21.567-25.268.005-2.922,7.37-1.036-.006,2.922-7.369,1.036m23.831-3.349.005-2.923,7.378-1.036-.006,2.922-7.377,1.037m13.529-6.146L118.3,3168.1l-.066,35.8,43.745-6.148.066-35.8" fill="#d3d1c5"/>
      <path id="Path_60206" data-name="Path 60206" d="M158.1,3171.723l-11.8,1.658-.043,23.335,11.8-1.658.043-23.335" fill="#333"/>
      <path id="Path_60207" data-name="Path 60207" d="M114.712,3250.7l0-.865,41.774-5.871v.865l-41.775,5.871m.013-6.9,0-.856,41.774-5.871,0,.856-41.774,5.871m.013-6.89v-.865l41.775-5.871,0,.865-41.774,5.871m.013-6.9v-.864l41.775-5.871,0,.864-41.774,5.871m.012-6.891,0-.865,41.775-5.871,0,.865-41.775,5.871m47.2-14.49-51.851,7.287-.082,44.025,51.852-7.287.081-44.025" fill="#f9f9f9"/>
      <path id="Path_60208" data-name="Path 60208" d="M156.54,3216.387l-41.774,5.871,0,.865,41.774-5.871,0-.865" fill="#f52c3f"/>
      <path id="Path_60209" data-name="Path 60209" d="M156.527,3223.279l-41.774,5.871,0,.865,41.774-5.871,0-.865" fill="#f52c3f"/>
      <path id="Path_60210" data-name="Path 60210" d="M156.514,3230.178l-41.774,5.871,0,.865,41.774-5.871,0-.865" fill="#f52c3f"/>
      <path id="Path_60211" data-name="Path 60211" d="M156.5,3237.077l-41.774,5.871,0,.856,41.774-5.871,0-.856" fill="#f52c3f"/>
      <path id="Path_60212" data-name="Path 60212" d="M132.061,3167.491l-7.369,1.036-.005,2.922,7.369-1.036.005-2.922" fill="#333"/>
      <path id="Path_60213" data-name="Path 60213" d="M155.9,3164.141l-7.378,1.037-.005,2.922,7.378-1.037.005-2.922" fill="#333"/>
    </g>
    <g id="Group_46963" data-name="Group 46963">
      <path id="Path_60214" data-name="Path 60214" d="M892.949,3328.4h-8.93a71.147,71.147,0,0,0,1.262-13.322c0-33.492-23.058-60.643-51.5-60.643a44.329,44.329,0,0,0-14.608,2.489c-8.508-19.694-25.87-33.2-45.921-33.2-21.112,0-39.247,14.964-47.2,36.371a44.927,44.927,0,0,0-21.737-5.665c-28.444,0-51.5,27.151-51.5,60.643a71.147,71.147,0,0,0,1.262,13.322h-7.56c-11.052,0-20.095,10.647-20.095,23.662s9.043,23.661,20.095,23.661H892.949c11.052,0,20.1-10.648,20.1-23.661S904,3328.4,892.949,3328.4Z" fill="#000" stroke="#4f3b65" stroke-miterlimit="10" stroke-width="6"/>
      <g id="Group_46962" data-name="Group 46962">
        <path id="Path_60215" data-name="Path 60215" d="M823.656,3348.8l-42.418-63.627a9.1,9.1,0,0,0-15.138,0L723.682,3348.8a9.1,9.1,0,0,0,7.57,14.143h21.01v43.788a6.033,6.033,0,0,0,6.016,6.016h30.783a6.033,6.033,0,0,0,6.015-6.016v-43.788h21.011A9.1,9.1,0,0,0,823.656,3348.8Z" fill="#62548a"/>
        <path id="Path_60216" data-name="Path 60216" d="M819.666,3348.8l-42.418-63.627a9.1,9.1,0,0,0-15.138,0L719.692,3348.8a9.1,9.1,0,0,0,7.57,14.143h21.01v43.788a6.033,6.033,0,0,0,6.016,6.016h30.783a6.033,6.033,0,0,0,6.015-6.016v-43.788H812.1A9.1,9.1,0,0,0,819.666,3348.8Z" fill="#947dce"/>
      </g>
    </g>
  </g>
</svg>
