<?xml version="1.0" encoding="utf-8"?>
<!-- Generator: Adobe Illustrator 24.0.1, SVG Export Plug-In . SVG Version: 6.00 Build 0)  -->
<svg version="1.1" id="_x31_" xmlns="http://www.w3.org/2000/svg" xmlns:xlink="http://www.w3.org/1999/xlink" x="0px" y="0px"
	 viewBox="0 0 331.2 177.69" style="enable-background:new 0 0 331.2 177.69;" xml:space="preserve">
<style type="text/css">
	.st0{fill:#55739C;}
	.st1{fill:#D51C29;}
	.st2{fill:#DEDEDE;}
	.st3{fill:#FFBE32;}
	.st4{fill:#EDA328;}
</style>
<g>
	<g>
		<path class="st0" d="M194.17,163.46c0,0-5.03-21.82-38.61-21.33s-35.79,25.13-35.79,25.13l13.6-3.43c0,0,7.45-6.86,24.8-6.86
			s24.59,7.35,24.59,7.35L194.17,163.46z"/>
		<path class="st0" d="M181.97,172.04h15.44c2.81,0,5.09-2.28,5.09-5.09l0,0c0-2.81-2.28-5.09-5.09-5.09h-15.44
			c-2.81,0-5.09,2.28-5.09,5.09l0,0C176.88,169.76,179.16,172.04,181.97,172.04z"/>
		<path class="st0" d="M117.75,172.04h15.44c2.81,0,5.09-2.28,5.09-5.09l0,0c0-2.81-2.28-5.09-5.09-5.09h-15.44
			c-2.81,0-5.09,2.28-5.09,5.09l0,0C112.66,169.76,114.94,172.04,117.75,172.04z"/>
		<path class="st0" d="M160.3,114.65l13.76,23.84c1.25,2.17-0.31,4.88-2.82,4.88h-27.53c-2.5,0-4.07-2.71-2.82-4.88l13.76-23.84
			C155.92,112.48,159.05,112.48,160.3,114.65z"/>
	</g>
	<path class="st0" d="M55.88,116.87l220.06,36.65c2.26,0.38,4.4-1.15,4.78-3.41l0,0c0.38-2.26-1.15-4.4-3.41-4.78L57.24,108.68
		c-2.26-0.38-4.4,1.15-4.78,3.41l0,0C52.09,114.36,53.61,116.49,55.88,116.87z"/>
	<g>
		<path class="st0" d="M185.81,97.97c13.89,20.98,37.69,34.81,64.73,34.81s50.85-13.84,64.74-34.81H185.81z"/>
		<rect x="246.74" y="129.95" class="st0" width="8.38" height="12.39"/>
	</g>
	<g>
		<path class="st0" d="M14.39,69.94c13.89,20.98,37.69,34.81,64.73,34.81s50.85-13.84,64.74-34.81H14.39z"/>
		<rect x="75.32" y="101.92" class="st0" width="8.38" height="12.39"/>
	</g>
</g>
<g>
	<rect x="221.56" y="50.31" class="st1" width="60.25" height="11.4"/>
	<rect x="224.67" y="61.71" class="st1" width="54.04" height="36.42"/>
	<rect x="224.67" y="61.71" class="st2" width="54.04" height="3.35"/>
	<rect x="247.69" y="61.71" class="st3" width="7.99" height="36.42"/>
	<rect x="247.69" y="50.31" class="st3" width="7.99" height="11.4"/>
	<g>
		<g>
			<g>
				<path class="st4" d="M251.69,49.93c0,0,1.28-11.76,6.99-10.28c5.71,1.48,0,7.32,0,7.32s1.01-4.57-1.01-4.77
					S252.7,46.16,251.69,49.93z"/>
				<g>
					<path class="st4" d="M263.04,50.93l-3.43,2.42c0,0-5.1-1.01-7.92-3.43l3.16-1.45C254.85,48.47,259.08,50.76,263.04,50.93z"/>
					<path class="st3" d="M251.69,49.93c0,0,12.49-8.06,14.78-3.9c2.28,4.16,0.4,5.64-0.94,6.11s-5.91,1.21-5.91,1.21
						s2.14-4.62-0.25-5.74c-0.54-0.25-1.17-0.22-1.72-0.01L251.69,49.93z"/>
				</g>
			</g>
			<g>
				<g>
					<path class="st3" d="M240.34,50.93l3.43,2.42c0,0,5.1-1.01,7.92-3.43l-3.16-1.45C248.53,48.47,244.3,50.76,240.34,50.93z"/>
				</g>
				<path class="st3" d="M251.69,49.93c0,0-1.28-11.76-6.99-10.28s0,7.32,0,7.32s-1.01-4.57,1.01-4.77
					C247.73,42,250.68,46.16,251.69,49.93z"/>
			</g>
		</g>
		<path class="st4" d="M251.69,49.93c0,0-12.49-8.06-14.78-3.9c-2.28,4.16-0.4,5.64,0.94,6.11s5.91,1.21,5.91,1.21
			s-2.14-4.62,0.25-5.74c0.54-0.25,1.17-0.22,1.72-0.01L251.69,49.93z"/>
	</g>
</g>
<g>
	<rect x="49" y="22.01" class="st1" width="60.25" height="11.4"/>
	<rect x="52.11" y="33.41" class="st1" width="54.04" height="36.42"/>
	<rect x="52.11" y="33.41" class="st2" width="54.04" height="3.35"/>
	<rect x="75.13" y="33.41" class="st3" width="7.99" height="36.42"/>
	<rect x="75.13" y="22.01" class="st3" width="7.99" height="11.4"/>
	<g>
		<g>
			<g>
				<path class="st4" d="M79.13,21.63c0,0,1.28-11.76,6.99-10.28c5.71,1.48,0,7.32,0,7.32s1.01-4.57-1.01-4.77
					S80.14,17.86,79.13,21.63z"/>
				<g>
					<path class="st4" d="M90.48,22.63l-3.43,2.42c0,0-5.1-1.01-7.92-3.43l3.16-1.45C82.29,20.17,86.52,22.46,90.48,22.63z"/>
					<path class="st3" d="M79.13,21.63c0,0,12.49-8.06,14.78-3.9c2.28,4.16,0.4,5.64-0.94,6.11c-1.34,0.47-5.91,1.21-5.91,1.21
						s2.14-4.62-0.25-5.74c-0.54-0.25-1.17-0.22-1.72-0.01L79.13,21.63z"/>
				</g>
			</g>
			<g>
				<g>
					<path class="st3" d="M67.78,22.63l3.43,2.42c0,0,5.1-1.01,7.92-3.43l-3.16-1.45C75.97,20.17,71.74,22.46,67.78,22.63z"/>
				</g>
				<path class="st3" d="M79.13,21.63c0,0-1.28-11.76-6.99-10.28s0,7.32,0,7.32s-1.01-4.57,1.01-4.77
					C75.17,13.7,78.12,17.86,79.13,21.63z"/>
			</g>
		</g>
		<path class="st4" d="M79.13,21.63c0,0-12.49-8.06-14.78-3.9c-2.28,4.16-0.4,5.64,0.94,6.11c1.34,0.47,5.91,1.21,5.91,1.21
			s-2.14-4.62,0.25-5.74c0.54-0.25,1.17-0.22,1.72-0.01L79.13,21.63z"/>
	</g>
</g>
</svg>
