<?xml version="1.0" encoding="utf-8"?>
<!-- Generator: Adobe Illustrator 24.0.1, SVG Export Plug-In . SVG Version: 6.00 Build 0)  -->
<svg version="1.1" id="_x31_" xmlns="http://www.w3.org/2000/svg" xmlns:xlink="http://www.w3.org/1999/xlink" x="0px" y="0px"
	 viewBox="0 0 331.2 177.69" style="enable-background:new 0 0 331.2 177.69;" xml:space="preserve">
<style type="text/css">
	.st0{fill:#55739C;}
</style>
<g>
	<g>
		<path class="st0" d="M136.27,135.89c0,0,5.03-21.82,38.61-21.33s35.79,25.13,35.79,25.13l-13.6-3.43c0,0-7.45-6.86-24.8-6.86
			s-24.59,7.35-24.59,7.35L136.27,135.89z"/>
		<path class="st0" d="M148.46,144.47h-15.44c-2.81,0-5.09-2.28-5.09-5.09l0,0c0-2.81,2.28-5.09,5.09-5.09h15.44
			c2.81,0,5.09,2.28,5.09,5.09l0,0C153.55,142.19,151.27,144.47,148.46,144.47z"/>
		<path class="st0" d="M212.68,144.47h-15.44c-2.81,0-5.09-2.28-5.09-5.09l0,0c0-2.81,2.28-5.09,5.09-5.09h15.44
			c2.81,0,5.09,2.28,5.09,5.09l0,0C217.77,142.19,215.49,144.47,212.68,144.47z"/>
		<path class="st0" d="M170.13,87.08l-13.76,23.84c-1.25,2.17,0.31,4.88,2.82,4.88h27.53c2.5,0,4.07-2.71,2.82-4.88l-13.76-23.84
			C174.51,84.91,171.38,84.91,170.13,87.08z"/>
	</g>
	<path class="st0" d="M274.56,89.3L54.49,125.95c-2.26,0.38-4.4-1.15-4.78-3.41v0c-0.38-2.26,1.15-4.4,3.41-4.78l220.06-36.65
		c2.26-0.38,4.4,1.15,4.78,3.41v0C278.35,86.79,276.82,88.92,274.56,89.3z"/>
	<g>
		<path class="st0" d="M144.63,70.4c-13.89,20.98-37.69,34.81-64.73,34.81S29.05,91.38,15.16,70.4H144.63z"/>
		<rect x="75.31" y="102.39" class="st0" width="8.38" height="12.39"/>
	</g>
	<g>
		<path class="st0" d="M316.04,42.37c-13.89,20.98-37.69,34.81-64.73,34.81s-50.85-13.84-64.74-34.81H316.04z"/>
		<rect x="246.73" y="74.35" class="st0" width="8.38" height="12.39"/>
	</g>
</g>
</svg>
