<svg xmlns="http://www.w3.org/2000/svg" width="52.314" height="50.89" viewBox="0 0 52.314 50.89"><rect width="52.314" height="9.897" transform="translate(0 9.371)" fill="#d51c29"/><rect width="46.915" height="31.62" transform="translate(2.702 19.27)" fill="#d51c29"/><rect width="46.915" height="2.907" transform="translate(2.702 19.27)" fill="#dedede" style="mix-blend-mode:multiply;isolation:isolate"/><rect width="6.941" height="31.62" transform="translate(22.687 19.27)" fill="#ffbe32"/><rect width="6.941" height="9.897" transform="translate(22.687 9.371)" fill="#ffbe32"/><g transform="translate(12.398)"><g transform="translate(3.904)"><g transform="translate(9.856)"><path d="M593.282,608.377s1.108-10.206,6.065-8.923,0,6.357,0,6.357.874-3.966-.875-4.141S594.157,605.111,593.282,608.377Z" transform="translate(-593.282 -599.342)" fill="#eda328"/><g transform="translate(0 4.615)"><path d="M603.138,610.432l-2.976,2.1s-4.43-.875-6.88-2.975l2.741-1.261A19.568,19.568,0,0,0,603.138,610.432Z" transform="translate(-593.282 -605.137)" fill="#eda328"/><path d="M593.282,609.077s10.847-7,12.831-3.383.35,4.9-.817,5.307-5.134,1.05-5.134,1.05,1.854-4.009-.216-4.982a1.9,1.9,0,0,0-1.492-.006Z" transform="translate(-593.282 -604.658)" fill="#ffbe32"/></g></g><g transform="translate(0 7.773)"><path d="M581.93,610.432l2.976,2.1s4.431-.875,6.88-2.975l-2.741-1.261A19.568,19.568,0,0,1,581.93,610.432Z" transform="translate(-581.93 -608.295)" fill="#ffbe32"/></g><path d="M592.027,608.377s-1.108-10.206-6.065-8.923,0,6.357,0,6.357-.875-3.966.875-4.141S591.152,605.111,592.027,608.377Z" transform="translate(-582.171 -599.342)" fill="#ffbe32"/></g><path d="M591.193,609.077s-10.847-7-12.83-3.383-.35,4.9.816,5.307,5.135,1.05,5.135,1.05-1.854-4.009.216-4.982a1.9,1.9,0,0,1,1.492-.006Z" transform="translate(-577.434 -600.043)" fill="#eda328"/></g></svg>