<svg xmlns="http://www.w3.org/2000/svg" xmlns:xlink="http://www.w3.org/1999/xlink" width="700" height="653" viewBox="0 0 700 653"><defs><style>.a{fill:none;}.b{clip-path:url(#a);}.c,.e{fill:#d8a35d;}.c{fill-rule:evenodd;}.d{fill:#947dce;}.f{fill:#62548a;}.g{fill:#ffc84f;}.h{opacity:0.3;}.i{opacity:0.5;}.j{fill:#d19442;}.k{opacity:0.15;}.l{fill:#999;}.m{fill:#ccc;}.n{fill:gray;}</style><clipPath id="a"><rect class="a" width="700" height="653" transform="translate(700 652.664) rotate(-180)"/></clipPath></defs><g transform="translate(-954 -383.499)"><g transform="translate(954 383.835)"><g class="b" transform="translate(0 0)"><g transform="translate(9.473 41.014)"><g transform="translate(0 447.765)"><g transform="translate(32.136)"><path class="c" d="M1013.674,691.519s-11.294-12.882-24.463-15.471c-7.828-1.539-7.561-3.515-8.881-4.161-4.377-2.146-.4,6.307,6.2,8.706,5.367,1.949,8.023,11.366,11.212,13.472s12.821,6.123,15.315,4.944S1013.674,691.519,1013.674,691.519Z" transform="translate(-978.49 -671.542)"/></g><g transform="translate(0 11.67)"><path class="c" d="M1061.61,704.3c-2.4-.917-27.487-17.376-41.377-19.235s-34.716-3.3-41.83-5.641c-8.369-2.756-10.646.522-1.043,4.645,6.242,2.681,19.077,6.966,21.95,7.2,1.392.114-7.642-1.48-17.432-3.932-10.406-2.608-21.671-6.033-22.269-4.185-1.16,3.583,28.741,12.977,34.045,13.772a134.519,134.519,0,0,1-13.975-2.278c-6.291-1.385-13.463-3.928-14.945-2.671-2.334,1.979,13.422,8.92,26.581,11.3.214.438-4.09.933-19.529-2.943-1.553-.389-5.566.131-.539,2.712,10.582,5.43,14.732,8.546,30.343,9.676,15.225,1.1,32.178-1.344,42.992,2.783Z" transform="translate(-959.576 -678.41)"/></g></g><g transform="translate(72.634 218.847)"><path class="d" d="M1020.721,821.892c12.2,4.774,100.8,21.021,182.121,3.16,51.328-11.251,99.738-36.118,124.23-86.032,63.285-129.024-84.595-202.213-84.595-202.213a2.645,2.645,0,0,0-.221.353c-6.41,9.683-144.256,216.494-239.9,248.767C1002.353,785.927,1000.827,814.089,1020.721,821.892Z" transform="translate(-1002.326 -536.807)"/></g><g transform="translate(704.445 764.296)"><path class="e" d="M1416.447,857.843s54.722,279.23,67.3,280.561c22.6,2.521,109.487,6.9,21.036,26.646-43.7,15.968-43.4,5.051-46.613-3.165-2.621-6.715-73.826-249.973-81.293-268.316-1.672-4.106-2.685-6.589-2.685-6.589Z" transform="translate(-1374.192 -857.843)"/></g><g transform="translate(583.609 795.147)"><path class="e" d="M1303.071,893.842s92.424,267.974,82.636,275.982c-17.522,14.5-87.782,65.8-2.983,33.817,45.3-10.6,39.066-19.571,37.246-28.2-1.487-7.053-12.036-60.8-15.847-80.235-.855-4.351-55.5-219.2-55.5-219.2Z" transform="translate(-1303.071 -876.001)"/></g><g transform="translate(619.648 1075.044)"><path class="f" d="M1403.708,1041.8c-.651-4.073-28.42,4.618-30.625,8.741s-54.342,32.178-48.315,48.349,79.153-19.79,84.537-21.821S1404.987,1049.8,1403.708,1041.8Z" transform="translate(-1324.283 -1040.74)"/></g><g transform="translate(481.043 447.765)"><path class="g" d="M1242.7,738.992a17.932,17.932,0,0,0,11.1,1.589c23.059-6.393,122.576-34.259,175.364-53.382,18.625-6.747,31.43-12.4,33-15.657a2.142,2.142,0,0,1,.051.223c.742,3,9.165,37.4,20.043,82.542,21.479,89.109,68.046,212.013,90.02,246.978,4.742,7.546-122,31.808-122,31.808-27.365-90.405-66.216-251.862-73.889-257.326-9.335-6.65,21.452,136.378,43.823,257.075-44.921,27.254-124.367,42.569-124.967,37.311C1288.141,1007.683,1242.7,738.992,1242.7,738.992Z" transform="translate(-1242.704 -671.542)"/><g class="h" transform="translate(91.882)"><g transform="translate(0 45.536)"><path d="M1297.915,698.343c-.381.082-.761.161-1.132.238C1296.783,698.581,1297.182,698.491,1297.915,698.343Z" transform="translate(-1296.783 -698.343)"/></g><g class="i" transform="translate(1.132)"><path d="M1297.449,717.078c30.209-6.455,93.45-29.879,93.45-29.879,18.625-6.747,31.43-12.4,33-15.657a2.169,2.169,0,0,1,.051.223c.742,3,9.165,37.4,20.043,82.542a22.684,22.684,0,0,1-3.208.568c-7.006.751-13.33-1.842-18.927-6.432A55.9,55.9,0,0,1,1412,737.573C1377.511,702.284,1307.155,715.1,1297.449,717.078Z" transform="translate(-1297.449 -671.542)"/></g></g><g transform="translate(19.79 11.683)"><g transform="translate(0 46.989)"><rect class="d" width="2.212" height="342.458" transform="translate(0 0.428) rotate(-11.16)"/></g><g transform="translate(32.954 44.267)"><rect class="d" width="2.212" height="336.525" transform="translate(0 0.426) rotate(-11.106)"/></g><g transform="translate(63.261 35.202)"><rect class="d" width="2.212" height="333.712" transform="translate(0 0.46) rotate(-11.999)"/></g><g transform="translate(92.476 26.391)"><rect class="d" width="2.209" height="68.903" transform="translate(0 0.653) rotate(-17.2)"/></g><g transform="translate(124.865 16.748)"><rect class="d" width="2.212" height="339.422" transform="translate(0 0.594) rotate(-15.57)"/></g><g transform="translate(152.688 8.207)"><rect class="d" width="2.21" height="342.217" transform="matrix(0.96, -0.281, 0.281, 0.96, 0, 0.621)"/></g><g transform="translate(180.097 0)"><rect class="d" width="2.212" height="344.24" transform="matrix(0.953, -0.304, 0.304, 0.953, 0, 0.673)"/></g></g><g transform="translate(5.654 35.308)"><path class="d" d="M1246.564,760.782l-.532-2.146c1.782-.442,178.778-44.44,222.165-66.313l1,1.974C1425.585,716.281,1248.349,760.338,1246.564,760.782Z" transform="translate(-1246.032 -692.323)"/></g><g transform="translate(10.75 103.26)"><path class="d" d="M1257.028,762.435c-4.985,0-7.863-.178-8-.187l.15-2.205c.654.044,65.83,4.051,122.253-27.725l1.086,1.927C1327.207,759.761,1276.334,762.435,1257.028,762.435Z" transform="translate(-1249.031 -732.318)"/></g><g transform="translate(131.77 70.593)"><path class="d" d="M1320.3,743.859l-.036-2.21c.6-.008,60.427-1.295,104.5-28.557l1.16,1.879C1381.323,742.559,1320.9,743.848,1320.3,743.859Z" transform="translate(-1320.26 -713.091)"/></g><g transform="translate(14.734 132.567)"><path class="d" d="M1271.095,776.372a117.822,117.822,0,0,1-19.719-1.358l.421-2.17c.511.1,51.766,9.5,119.11-23.278l.969,1.988C1328.877,772.485,1292.319,776.372,1271.095,776.372Z" transform="translate(-1251.376 -749.567)"/></g><g transform="translate(19.819 160.973)"><path class="d" d="M1254.525,792.944l-.156,0,.013-2.21c.756-.005,75.537.173,119.127-24.446l1.089,1.923C1331.456,792.575,1258.413,792.944,1254.525,792.944Z" transform="translate(-1254.369 -766.286)"/></g><g transform="translate(24.237 195.3)"><path class="d" d="M1286.535,812.089c-19.112,0-29.356-3.853-29.566-3.937l.807-2.057c.432.168,43.923,16.426,120.325-19.605l.941,2C1338.709,807.51,1307.36,812.089,1286.535,812.089Z" transform="translate(-1256.969 -786.49)"/></g><g transform="translate(29.918 222.462)"><path class="d" d="M1284.025,832.6a141.236,141.236,0,0,1-23.712-1.724l.423-2.17c.617.119,62.232,11.46,120.072-26.231l1.208,1.85C1345.58,828.071,1307.656,832.6,1284.025,832.6Z" transform="translate(-1260.313 -802.477)"/></g><g transform="translate(34.745 255.595)"><path class="d" d="M1288.688,851.206c-16.345,0-25.333-2.909-25.534-2.977l.71-2.093c.457.153,46.523,14.962,121.486-24.159l1.023,1.959C1343.513,846.3,1309.9,851.206,1288.688,851.206Z" transform="translate(-1263.154 -821.978)"/></g><g transform="translate(39.903 280.948)"><path class="d" d="M1286.386,871.1a120.753,120.753,0,0,1-20.2-1.436l.421-2.171c.6.115,60.865,11.151,121.413-30.593l1.256,1.82A181.839,181.839,0,0,1,1286.386,871.1Z" transform="translate(-1266.19 -836.9)"/></g><g transform="translate(43.439 307.992)"><path class="d" d="M1294.013,887.795c-16.6,0-25-4.117-25.742-4.5l1.011-1.964c.394.2,40.359,19.576,122.6-28.515l1.116,1.908C1347.038,881.6,1314.364,887.795,1294.013,887.795Z" transform="translate(-1268.271 -852.817)"/></g><g transform="translate(47.938 335.074)"><path class="d" d="M1290.661,901.922a116.009,116.009,0,0,1-19.743-1.4l.428-2.168c.573.114,58.229,10.831,123.832-29.594l1.157,1.881C1353.2,897.222,1313.4,901.922,1290.661,901.922Z" transform="translate(-1270.919 -868.757)"/></g><g transform="translate(142.785 102.873)"><path class="d" d="M1341.728,761.6c-9.858,0-14.52-1.852-14.985-2.051l.858-2.037c.286.119,29.517,11.5,102.36-25.426l1,1.971C1385.7,757,1357.264,761.6,1341.728,761.6Z" transform="translate(-1326.743 -732.09)"/></g><g transform="translate(152.274 130.521)"><path class="d" d="M1339.214,777.241a55.378,55.378,0,0,1-6.886-.331l.323-2.187c.36.053,37.552,5,99.638-26.36l1,1.973C1385.946,774.251,1352.812,777.241,1339.214,777.241Z" transform="translate(-1332.328 -748.363)"/></g><g transform="translate(160.399 159.398)"><path class="d" d="M1337.117,797.523h-.007l.007-2.21h0c.78,0,55.113-.292,100.321-29.954l1.211,1.849C1392.9,797.229,1337.951,797.523,1337.117,797.523Z" transform="translate(-1337.11 -765.359)"/></g><g transform="translate(167.463 185.712)"><path class="d" d="M1352.171,813.951a98.3,98.3,0,0,1-10.9-.5l.282-2.192c.544.066,55.468,6.623,101.8-30.409l1.38,1.726C1410.128,810.23,1370.807,813.951,1352.171,813.951Z" transform="translate(-1341.268 -780.847)"/></g><g transform="translate(175.428 214.38)"><path class="d" d="M1348.029,831.079c-1.3,0-2.014-.029-2.073-.031l.105-2.209c.513.024,51.7,2.018,104.159-31.12l1.183,1.869C1404.329,829.322,1358.213,831.079,1348.029,831.079Z" transform="translate(-1345.956 -797.72)"/></g><g transform="translate(182.943 241.809)"><path class="d" d="M1357.284,848.273a62.167,62.167,0,0,1-6.9-.3l.289-2.193c.442.063,44.878,5.367,106.674-31.911l1.142,1.893C1410.171,844.9,1372.237,848.273,1357.284,848.273Z" transform="translate(-1350.379 -813.864)"/></g><g transform="translate(190.276 268.46)"><path class="d" d="M1370.62,862.837a98.115,98.115,0,0,1-15.925-1.082l.41-2.171c.53.1,53.964,9.52,109.674-30.034l1.281,1.8C1428,858.376,1390.928,862.837,1370.62,862.837Z" transform="translate(-1354.695 -829.55)"/></g><g transform="translate(198.562 297.118)"><path class="d" d="M1361.274,881.295c-1.064,0-1.648-.017-1.7-.02l.08-2.209c.579.022,58.669,1.713,114.1-32.649l1.166,1.877C1424.239,879.711,1371.344,881.295,1361.274,881.295Z" transform="translate(-1359.572 -846.417)"/></g></g><g transform="translate(444.951 83.274)"><path class="j" d="M1238.266,460.391s5.4,26.551,25.623,36.089-36.759,10.974-36.759,10.974,2.414-27.7-4.382-42.43S1238.266,460.391,1238.266,460.391Z" transform="translate(-1221.461 -457.013)"/></g><g transform="translate(407.835 11.854)"><ellipse class="e" cx="39.706" cy="29.102" rx="39.706" ry="29.102" transform="translate(0 74.098) rotate(-68.921)"/></g><g transform="translate(267.628 101.537)"><path class="d" d="M1122.616,873.317c51.328-11.251,99.738-36.118,124.23-86.032.088.134.177.245.265.377.265.331.53.685.8,1.082a1.159,1.159,0,0,1,.177.243c7.053,9.639,41.669,56.965,41.669,56.987,12.554,16.357,31.741,32.073,46.971,38.395,1,.443,2.012.819,2.941,1.15,37.334,5.836,192.819-53.251,211.342-68.017,8.356-6.653,11.628-37.842,12.291-71.663.839-41.225-2.144-86.43-4.332-95.956-3.714-15.981-77.124-192.8-192.311-181.613a118.27,118.27,0,0,0-29.974,7.029s-.861.907-2.387,2.255a56.589,56.589,0,0,1-10.412,7.406,44.2,44.2,0,0,1-10.631,4.266,32.589,32.589,0,0,1-21.729-1.769c-7.207-3.228-23.21.552-42.64,11.406-26.991,15.053-60.655,43.767-86.629,86.209a2.661,2.661,0,0,0-.221.353,277.672,277.672,0,0,0-37.224,102.19A658.994,658.994,0,0,0,1122.616,873.317Z" transform="translate(-1117.094 -467.762)"/></g><g class="k" transform="translate(397.385 375.36)"><path d="M1193.465,674.616c.087.136.189.245.275.381.262.336.53.695.783,1.081.068.071.115.15.188.243,7.053,9.637,41.65,56.98,41.655,57,12.563,16.343,31.745,32.069,46.987,38.384-17.323-27.655-69.354-107.28-78.869-142.78C1209.658,664.337,1193.458,674.6,1193.465,674.616Z" transform="translate(-1193.465 -628.926)"/></g><g class="k" transform="translate(399.417 120.121)"><path d="M1262.736,487.27c.838,2.5,0,4.547-4.214,5.2-13.137,2.054-27.285,6.67-36.225,14.506a9.175,9.175,0,0,1-8.623,2.182c-7.787-1.9-15.347-12.235-18.509-16.873a3.659,3.659,0,0,1-.5-1.072c19.435-10.855,35.423-14.635,42.644-11.394a32.532,32.532,0,0,0,21.722,1.75A17.961,17.961,0,0,1,1262.736,487.27Z" transform="translate(-1194.661 -478.7)"/></g><g transform="translate(422.114)"><g transform="translate(0 7.748)"><g transform="translate(19.507 0.932)"><path class="g" d="M1225.142,438.6s36.964,44.185,39.142-3.041C1265.789,402.885,1200.271,407.586,1225.142,438.6Z" transform="translate(-1219.501 -413.108)"/></g><path class="g" d="M1243.835,431.613s-32.317,5.467-35.815,22.1c0,0,12.218-48.978,38.823-40.073s35.76,15.334,14.386,63.866C1261.229,477.509,1268.784,435.261,1243.835,431.613Z" transform="translate(-1208.02 -412.56)"/></g><g transform="translate(37.566)"><path class="g" d="M1230.13,416.7s6.936-14.054,20.579-6.427,16.651,18.263,15.532,27.308-1.441,16.027.622,16.822c0,0-8.572,3.8-9.839.946,0,0-.365,16.9-11.861,26.452,0,0,4.555-19.792-4.963-25.83S1230.13,416.7,1230.13,416.7Z" transform="translate(-1230.13 -408)"/></g><g transform="translate(1.689 4.649)"><path class="g" d="M1246.26,415.165s-7.928-10.162-23.8.3l-10.957,9.99s1.268,2.858,6.188,2.385c0,0-7.481,13.808-8.672,22.77l15.653-22.448Z" transform="translate(-1209.014 -410.736)"/></g></g><g transform="translate(429.147 264.389)"><path class="l" d="M1224.071,715.284l168.19,68.838a19.177,19.177,0,0,0,24.993-10.469l46.971-114.8a5.927,5.927,0,0,0,.3-.829,19.108,19.108,0,0,0-10.777-24.147l-168.188-68.838a19.145,19.145,0,0,0-24.974,10.481l-44.81,109.465-2.18,5.321A19.143,19.143,0,0,0,1224.071,715.284Z" transform="translate(-1212.159 -563.612)"/><g transform="translate(2.485)"><path class="m" d="M1225.524,709.135l168.189,68.838a19.147,19.147,0,0,0,24.976-10.481l44.81-109.465a19.108,19.108,0,0,0-10.777-24.147l-168.188-68.838a19.145,19.145,0,0,0-24.974,10.481l-44.81,109.465A19.107,19.107,0,0,0,1225.524,709.135Z" transform="translate(-1213.622 -563.612)"/></g><g transform="translate(115.128 92.812)"><circle class="n" cx="14.793" cy="14.793" r="14.793"/></g></g><g class="k" transform="translate(459.209 354.141)"><path d="M1457.422,642.76s-16.13-64.067-179.252,7.7,139.1,2.3,139.1,2.3Z" transform="translate(-1229.853 -616.438)"/></g><g class="k" transform="translate(614.161 218.843)"><path d="M1321.077,536.8s-5.731,172.985,160.368,196.134l3.56,1.087-11.8-36.762s-97.563-75.541-98.562-77.936S1321.077,536.8,1321.077,536.8Z" transform="translate(-1321.053 -536.805)"/></g><g transform="translate(441.589 86.2)"><g transform="translate(0 309.692)"><g transform="translate(0 6.663)"><path class="c" d="M1308.271,649.528c-2.209-.073-27.189-6.438-38.994-4.068s-29.132,7.02-35.566,7.1c-7.569.1-8.506,3.4.45,4.066,5.821.435,17.448.33,19.846-.282,1.164-.3-6.623.933-15.262,1.677-9.185.788-19.294,1.152-19.263,2.82.058,3.237,26.979,2.516,31.51,1.679a115.414,115.414,0,0,1-11.99,2.054c-5.5.632-12.038.569-12.89,2-1.342,2.261,13.4,3.5,24.756,1.753.3.3-3.063,1.9-16.691,3.067-1.369.117-4.485,1.66.321,2.353,10.114,1.456,14.357,2.829,27.358-.615,12.678-3.359,25.771-10.084,35.71-9.751Z" transform="translate(-1219.482 -644.932)"/></g><g transform="translate(21.653)"><path class="c" d="M1266.242,647.68s-12.775-7.311-24.2-5.736c-6.791.936-7.125-.743-8.38-.9-4.156-.52,1.436,5.238,7.472,5.342,4.907.083,9.695,6.993,12.875,7.814s12.129,1.393,13.825-.26S1266.242,647.68,1266.242,647.68Z" transform="translate(-1232.226 -641.01)"/></g></g><g transform="translate(44.204)"><path class="d" d="M1394.653,468.9c50.555,23.785,88.059,48.7,137.844,152.624,25.258,52.728,39.5,108.741,45.94,138.6a35.981,35.981,0,0,1-14.744,37.054c-112.691,78.551-285.408.931-285.408.931-7.955-.527-1.164-30.355-1.164-30.355,68.892-21.348,122.476-35.041,183.871-30.3-.318-.048-84.379-85.132-100-110.865-40.94-67.491-122.678-112.068-114.985-145.607C1248.66,469.386,1343.66,444.91,1394.653,468.9Z" transform="translate(-1245.499 -458.735)"/></g></g></g></g></g></g></svg>