<svg xmlns="http://www.w3.org/2000/svg" width="346.733" height="354.251" viewBox="0 0 346.733 354.251"><defs><style>.a{fill:none;stroke:#2fc49e;stroke-miterlimit:10;stroke-width:1.419px;}.b,.e{fill:#2fc49e;}.c,.d{fill:#728ad6;}.d,.e{opacity:0.4;}</style></defs><g transform="translate(-941.705 -363.085)"><path class="a" d="M962.22,642.967l128.255,58.8,126.518-69.5L1063.669,561l-5.269,49.895,213.834-114.045-96.225-124.737"/><circle class="b" cx="20.515" cy="20.515" r="20.515" transform="translate(941.705 622.452)"/><circle class="b" cx="20.515" cy="20.515" r="20.515" transform="translate(1247.408 479.104)"/><circle class="b" cx="20.515" cy="20.515" r="20.515" transform="translate(1063.669 676.307)"/><circle class="c" cx="20.515" cy="20.515" r="20.515" transform="translate(1189.594 616.116)"/><circle class="c" cx="9.025" cy="9.025" r="9.025" transform="translate(1167.82 363.085)"/><circle class="c" cx="11.604" cy="11.604" r="11.604" transform="translate(1045.653 594.932)"/><circle class="b" cx="11.604" cy="11.604" r="11.604" transform="translate(1052.065 553.75)"/><circle class="d" cx="30.095" cy="30.095" r="30.095" transform="translate(1180.014 606.536)"/><circle class="e" cx="15.196" cy="15.196" r="15.196" transform="translate(1048.473 550.157)"/></g></svg>