<svg xmlns="http://www.w3.org/2000/svg" xmlns:xlink="http://www.w3.org/1999/xlink" width="361.919" height="410.758" viewBox="0 0 361.919 410.758"><defs><style>.a,.ab,.ac,.af,.o,.w,.x,.z{fill:none;}.b{clip-path:url(#a);}.c{fill:#fcb95d;}.c,.d,.e,.i,.j,.l,.m,.n,.o,.p,.t,.u{fill-rule:evenodd;}.d{fill:#a1dd6f;}.e,.h{opacity:0.15;}.f{opacity:0.5;}.g{fill:#243330;}.i,.k{fill:#d1d3d4;}.j{fill:#36a5ad;}.l{fill:#c98121;}.m{fill:#f7805c;}.n,.s{fill:#7fd1d8;}.o{stroke:#3e6569;stroke-width:7.837px;}.ac,.af,.o,.w{stroke-miterlimit:10;}.p,.q{opacity:0.2;}.r{fill:#bcbec0;}.t{fill:#243e41;}.u{fill:#171f1c;}.v{fill:#d5efff;}.w{stroke:#fff;}.ab,.ac,.w,.x,.z{stroke-linecap:round;}.ab,.w{stroke-width:2.213px;}.ab,.x{stroke:#45068b;}.ab,.x,.z{stroke-linejoin:round;}.x{stroke-width:3.319px;}.y{fill:#fff;}.z{stroke:#89e1ff;stroke-width:6.638px;}.aa{fill:#ffecb6;}.ac{stroke:#4e078b;stroke-width:1.659px;}.ad{fill:#ff8fb4;}.ae{fill:#ff4b94;}.af{stroke:#4f098d;stroke-width:1.106px;}</style><clipPath id="a"><rect class="a" width="361.919" height="234.349"/></clipPath></defs><g transform="translate(-563.735 -296.918)"><g transform="translate(563.735 473.326)"><g class="b"><g transform="translate(283.999 6.982)"><path class="c" d="M841.877,509.81c-.156-1.049-5.2-12.957-4.388-18.533s2.709-13.749,2.434-16.8c-.323-3.589,1.594-4,2.442.253.553,2.764,1.076,8.277.834,9.409-.117.548.221-3.131.228-7.222.006-4.348-.288-9.14.708-9.11,1.928.059,2.858,12.82,2.589,14.962a41.989,41.989,0,0,0,.617-5.667c.1-2.6-.267-5.7.544-6.094,1.278-.616,2.758,6.388,2.292,11.758.192.144.977-1.434.984-7.887,0-.648.762-2.111,1.417.175,1.377,4.811,2.408,6.837,1.014,12.97-1.36,5.981-4.646,12.065-4.552,17.333Z" transform="translate(-827.714 -467.807)"/><path class="c" d="M864.707,595.038C863.246,572.581,854.2,518.748,850.794,507a24.671,24.671,0,0,1-9.918-3.533c.044.3.086.589.128.874-.288,10.7-5.223,56.608-2.712,74.053,4.545,4.648-10.612,2.286-9.738,2.6,1.333.486,6.062,10.682-.18,16.17C839.974,603.093,866.01,614.931,864.707,595.038Z" transform="translate(-828.374 -465.198)"/><path class="c" d="M837.854,493.372s-5-6.129-4.635-11.532c.215-3.212-.8-3.387-.958-3.982-.519-1.976,3.189.731,3.555,3.6.3,2.328,4.653,4.665,5.3,6.181s1.441,5.766.542,6.554S837.854,493.372,837.854,493.372Z" transform="translate(-828.093 -467.121)"/><path class="c" d="M848.915,503.21l2.528,10.117-11.25-6.516s.664-.543-.875-6.32,5.486-2.338,5.486-2.338Z" transform="translate(-827.589 -465.661)"/></g><g transform="translate(104.036 361.997)"><path class="c" d="M706.124,958.992s3.3,14.776,5.622,19.387-9.64,4.86-10.131,5.121-10.469-4.365-10.469-4.365,5.549-2.639.882-20.83S706.124,958.992,706.124,958.992Z" transform="translate(-658.45 -787.519)"/><path class="d" d="M723.122,813.444c-.361,5.842-3.987,13.884-5.4,26.968a105.366,105.366,0,0,0,.086,22.465c2.484,23.7-4.687,31.981-5.267,39.621a11.39,11.39,0,0,0,.264,3.575c5.052,21.167,1.032,64.751,1.032,64.751s-2.169.516-5.282,1.088c-7.427,1.363-20.243,3.018-21.965-1.337-2.451-6.18-10.669-21.436-12-30.328s.177-25.076.864-29.05-1.068-21.294-4.03-26.91c-3.378-6.412-3.274-20.852-2.01-35.142,1.466-16.553,4.5-32.9,5.52-36.3,0,0,25.029-15.49,31.092-14.138S723.654,804.82,723.122,813.444Z" transform="translate(-660.099 -798.622)"/><path class="e" d="M723.066,813.444c-.361,5.842-3.987,13.884-5.4,26.968-6.733.135-15.842-2.366-24.833-4.119-7.527-1.464-17.015,6.439-23.475,12.851,1.466-16.553,4.5-32.9,5.52-36.3,0,0,25.029-15.49,31.093-14.138S723.6,804.82,723.066,813.444Z" transform="translate(-660.044 -798.622)"/><g class="f" transform="translate(11.098 55.321)"><g transform="translate(4.22)"><path class="g" d="M692.531,852.044l-.465.746-4.436,7.119L680.2,871.824q.457.5.884,1.043.274.349.534.71c1.614-3.006,3.889-7.243,6.18-11.512,1.853-3.469,3.717-6.956,5.246-9.818C692.875,852.181,692.7,852.113,692.531,852.044Z" transform="translate(-674.568 -850.035)"/><path class="g" d="M690.29,851.122l-1.677,2.69-3.542,5.681-6.641,10.649a14.025,14.025,0,0,1,1.353,1.18c1.289-2.4,3.348-6.237,5.426-10.106l4.7-8.793q.335-.634.632-1.192Z" transform="translate(-674.698 -850.102)"/><path class="g" d="M677.776,869.674c1.936-3.6,9.546-17.762,10.412-19.493l-.018-.01-11.214,17.976.18,1.14C677.353,869.41,677.567,869.538,677.776,869.674Z" transform="translate(-674.805 -850.172)"/><path class="g" d="M685.24,850.84c-.164.432-8.736,16.36-8.736,16.36l-.3-1.883Z" transform="translate(-674.86 -850.123)"/><path class="g" d="M682.636,851.409c-.131.346-6.976,13.066-6.976,13.066l-.241-1.5Z" transform="translate(-674.918 -850.081)"/><path class="g" d="M680.719,851.628c-.1.276-5.573,10.438-5.573,10.438l-.194-1.2Z" transform="translate(-674.952 -850.065)"/></g><g transform="translate(0 2.57)"><path class="g" d="M688.969,869.588,672.617,855.75q-.784.7-1.6,1.369c4.687,3.554,11.577,8.776,17.531,13.277C688.689,870.127,688.83,869.858,688.969,869.588Z" transform="translate(-671.02 -852.334)"/><path class="g" d="M690.025,867.4l-15.706-13.291q-.618.633-1.266,1.232c3.935,2.985,11.027,8.362,16.676,12.629Z" transform="translate(-670.871 -852.454)"/><path class="g" d="M691.036,865.256l-14.446-12.223-1.22-.113c-.176.2-.355.4-.535.593,2.714,2.059,10.578,8.025,16.008,12.122Z" transform="translate(-670.741 -852.541)"/><path class="g" d="M691.823,863.267l-12.178-10.306-2.177-.2s8.955,6.8,14.229,10.774C691.739,863.445,691.781,863.356,691.823,863.267Z" transform="translate(-670.548 -852.553)"/><path class="g" d="M692.448,861.453l-10.311-8.725-1.741-.161s7.873,5.976,11.972,9.063C692.395,861.571,692.422,861.512,692.448,861.453Z" transform="translate(-670.334 -852.567)"/><path class="g" d="M693.036,860.095l-8.65-7.319-1.393-.129s6.833,5.188,9.968,7.544Z" transform="translate(-670.144 -852.561)"/></g></g><path class="h" d="M710.426,898.993c5.052,21.167,1.032,64.751,1.032,64.751s-2.169.516-5.282,1.088c-.021-.453-5.358.39-5.123-.072,9.739-19.065,6.9-50.473,7.418-58.712.118-1.9.249-7.639,1.691-10.63A11.387,11.387,0,0,0,710.426,898.993Z" transform="translate(-657.726 -791.541)"/><g transform="translate(0 190.017)"><path class="i" d="M664.726,1000.324c5.617-.088,16.633-2.6,24.669-4.261h.007c.256-.058.494-.107.737-.157,4.193-.859,7.459-1.454,8.516-1.281.116.021.257.034.424.048.414.038.987.064,1.681.065,6.256.035,22.185-1.385,21.669-6.158a11.767,11.767,0,0,0-.665-2.682c-.068-.189-.136-.377-.217-.562-.009-.013-.009-.019-.017-.031-.1-.249-.2-.5-.319-.758-.007-.006-.007-.006-.009-.013-2.129-4.69-6.284-9.36-6.967-8.8-9.136,7.474-20,1.879-22.268.572-.282-.162-.428-.259-.428-.259s-.378.083-1.09.262c-.387.1-.883.238-1.467.4-.318.087-.66.185-1.034.293-.127.039-.253.072-.379.117q-.457.127-.969.283c-.164.052-.327.1-.5.161h-.006q-1.391.436-3.1,1.026c-.709.245-1.45.508-2.233.8-1.177.428-2.439.914-3.774,1.444-.123.058-.252.123-.375.188-.66.318-1.3.658-1.932,1a42.891,42.891,0,0,0-5.923,3.913l-.005.007C660.17,992.714,657.8,1000.437,664.726,1000.324Z" transform="translate(-660.679 -975.687)"/><path class="j" d="M668.2,985.939a13.315,13.315,0,0,1,10.879,8.183s4.2-1.441,8.983-2.891l1.26-.367c.765-.226,1.544-.455,2.318-.671.665-.186,1.326-.364,1.968-.532,3.573-.932,6.693-1.544,7.787-1.213,2.962.892,20.628,1.584,19.818-2.55a2.069,2.069,0,0,0-.217-.562c-.009-.013-.009-.019-.017-.031a4.849,4.849,0,0,1-.319-.758c-.008-.006-.008-.006-.009-.013-2.129-4.69-6.284-9.36-6.967-8.8-9.136,7.474-20,1.879-22.268.572-.282-.162-.428-.259-.428-.259s-.378.083-1.09.262c-.387.1-.883.238-1.467.4-.318.087-.66.185-1.034.293-.127.039-.253.072-.379.117q-.457.127-.969.283c-.164.052-.327.1-.5.161h-.006q-1.391.436-3.1,1.026c-.709.245-1.45.508-2.233.8-1.177.428-2.439.914-3.774,1.444-.123.058-.252.123-.375.188-.66.318-1.3.658-1.932,1a42.887,42.887,0,0,0-5.923,3.913Z" transform="translate(-660.128 -975.687)"/><g transform="translate(25.921 1.019)"><path class="k" d="M684.833,977.329c.214.147.517.358.89.64a19.475,19.475,0,0,1,3.619,3.43,9.247,9.247,0,0,1,.93,1.407c.1.19.191.387.274.587l1.811-.74a10.021,10.021,0,0,0-1.348-2.3v-.006a14.5,14.5,0,0,0-1.129-1.317,21.843,21.843,0,0,0-2.665-2.4c-.318.087-.66.185-1.033.293-.127.039-.253.072-.379.117Q685.345,977.173,684.833,977.329Z" transform="translate(-684.833 -976.636)"/></g><g transform="translate(20.08 2.9)"><path class="k" d="M679.39,979.185c1.232.853,4.428,3.269,5.505,5.923l1.819-.742c-1.014-2.492-3.431-4.687-5.091-5.978C680.914,978.634,680.173,978.9,679.39,979.185Z" transform="translate(-679.39 -978.389)"/></g><g transform="translate(13.999 5.329)"><path class="k" d="M673.724,981.655c1.448,1.064,4.043,3.214,4.994,5.556l1.813-.74a16.015,16.015,0,0,0-4.875-5.819C675,980.97,674.353,981.31,673.724,981.655Z" transform="translate(-673.724 -980.652)"/></g></g></g><path class="l" d="M698.753,611.812s26.305-.376,28.56-10.521,2.63-15.681,0-21.556,15.031,6.525,15.031,6.525-1.878,7.892,0,13.9,6.013,6.134,12.4,5.509,0,19.668,0,19.668-22.884,2.482-24.594,3.308-25.384.3-26.512,0S698.753,611.812,698.753,611.812Z" transform="translate(-553.857 -452.753)"/><path class="m" d="M691.367,757.2c1.069.081,6.166-2.066,14.316,3.1s16.484,13.251,22.65,12.009,2.036-8.273-1.53-9.816c-3.212-1.389-9.276-3.2-7.964-5.5s4.175-2.044,7.056.008,5.182.075,4.194-1.075-8.137-5.252-9.86-5.6c-1.276-.255-7.072,1.491-10.117.754s-15.141-4.749-15.141-4.749Z" transform="translate(-554.398 -440.45)"/><path class="n" d="M790.063,721.852l-.647-.889A9.731,9.731,0,0,1,790.063,721.852Z" transform="translate(-547.225 -442.306)"/><path class="n" d="M788.679,705.24l4.366,21.956,4.861,28.269,21.95,69.359a60.888,60.888,0,0,1-14.226,9.312c-1.02.5-2.1.987-3.215,1.457a64.9,64.9,0,0,1-23.518,5.189c-2.94,0-33.883.372-63.131.732a.019.019,0,0,1-.026,0c-.255.007-.5.007-.752.013-27.132.333-52.571.66-52.571.66l4.685-41.534,2.528-22.427,1.732-15.311,5.443-48.271.406-3.568-57.56-70.431s49.829-53.681,91.278-40.331a107.417,107.417,0,0,1,11.841,4.6c2.039.928,9.834,17.526,22.446,11.684.268-.124.535-.249.8-.386,11.514-5.555,14.147-11.886,16.036-14.487,0-.014.006-.014.013-.02.065-.078.125-.157.183-.235,1.326-1.673,4.554-3.444,8.972-4.946,7.96-2.713,19.8-4.7,30.014-3.509,5.188.595,9.959,2,13.592,4.555,10.168,7.142,19.591,19.78,25.348,37.044.353,1.053.693,2.117,1.013,3.2.163.5.327,1.013.5,1.516,1.457,4.5,24.683,9.05,21.519,12.756C853.108,663.908,788.679,705.24,788.679,705.24Z" transform="translate(-559.644 -451.691)"/><path class="o" d="M730.074,637.373l14.75,29.887,32.983,4.793-23.867,23.264,5.634,32.849-29.5-15.509-29.5,15.509,5.634-32.849-23.867-23.264,32.983-4.793Z" transform="translate(-555.058 -448.421)"/><path class="p" d="M677.238,758.614c-4.077,5.1-10.344,24.694-13.369,34.679l9.7-86,2.516-11.181c15.683-14.069,8.991,26.989,10.6,39.444S682.774,751.694,677.238,758.614Z" transform="translate(-556.409 -444.336)"/><path class="p" d="M740.168,615.693c-3.731,4.836-12.461,9.809-17.474,6.528-7.4-4.836-20.623-4.842-22.93-16.14-.914-4.47,1.758-6.038,5.32-6.293a108.7,108.7,0,0,1,11.841,4.6c2.038.928,9.834,17.526,22.446,11.685C739.639,615.948,739.907,615.824,740.168,615.693Z" transform="translate(-553.797 -451.17)"/><path class="m" d="M790.063,721.852l-.647-.889A9.731,9.731,0,0,1,790.063,721.852Z" transform="translate(-547.225 -442.306)"/><g transform="translate(23.868 6.905)"><path class="c" d="M628.1,597.946c-.909-.584-28.058-20.5-31.874-30.145s-5.751-56.467-1.757-69.883c0,0,7.309,12.584,7.984,13.353s12.368,47.107,15.606,50.928c1.1,1.3,14.049,10.146,26.024,22.874S628.1,597.946,628.1,597.946Z" transform="translate(-585.516 -465.527)"/><path class="c" d="M603.1,508.5c-.056-1.053,2.42-13.563.577-18.888s-5.2-13.012-5.529-16.047c-.385-3.569-2.273-3.652-2.257.657.011,2.8.576,8.288,1.023,9.357.217.517-.81-3.031-1.6-7.037-.842-4.257-1.486-9-2.42-8.8-1.809.381-.232,13.035.434,15.088a43.941,43.941,0,0,1-1.673-5.447c-.593-2.533-.844-5.632-1.685-5.878-1.324-.388-1.374,6.719.1,11.9-.153.172-1.2-1.242-2.445-7.56-.126-.634-1.126-1.939-1.3.409-.375,4.943-.958,7.1,1.537,12.873,2.434,5.631,6.771,11.089,7.018,15.827Z" transform="translate(-585.975 -467.735)"/><path class="c" d="M603.278,491.8s3.538-6.841,2.157-12.072c-.82-3.11.106-3.452.139-4.062.109-2.023-2.871,1.251-2.666,4.118.167,2.329-3.494,5.349-3.815,6.942s-.251,5.888.749,6.511S603.278,491.8,603.278,491.8Z" transform="translate(-585.028 -467.201)"/><path class="c" d="M602.424,506.152s-.442,2.651.94,10.522-5.3-1.716-5.3-1.716l-2.851-15.1Z" transform="translate(-585.3 -465.385)"/></g><path class="q" d="M718.891,812.255l-10.4,14.613,33.979-.446,2.941-33.016Z" transform="translate(-553.145 -437.006)"/><g transform="translate(168.634 348.366)"><path class="c" d="M815.82,924.421s5.183,14.225,5.71,19.36,10.74-1.1,11.294-1.145,6.466-9.318,6.466-9.318-6.1.767-11.967-17.072S815.82,924.421,815.82,924.421Z" transform="translate(-713.928 -776.843)"/><path class="d" d="M831.848,893.057c3.671,8.209,4.97,25.487,6.235,32.015s-22.818,14.892-22.818,14.892-26.873-34.548-34.023-55.1c-3.048-8.752-15.146-9.076-27.492-33.691a104.692,104.692,0,0,0-12.61-19.681c-8.013-9.773-15.138-14.483-18.51-19.1-5.1-6.978,2.086-17.218,6.463-21.631s33.81-4.846,33.81-4.846a195.522,195.522,0,0,1,13.6,14.628c11.866,13.777,27,33.537,27.857,43.663.531,6.326,8.39,21.868,11.108,24.84S828.178,884.849,831.848,893.057Z" transform="translate(-720.874 -785.92)"/><path class="e" d="M776.5,800.548a81.069,81.069,0,0,0-20.6,18.837c-3.85,4.9-9.122,8.847-14.766,12.107-8.013-9.773-15.138-14.483-18.51-19.1-5.1-6.978,2.086-17.218,6.463-21.631s33.81-4.846,33.81-4.846A195.522,195.522,0,0,1,776.5,800.548Z" transform="translate(-720.874 -785.92)"/><g class="f" transform="translate(71.082 69.17)"><path class="g" d="M788.618,850.684l.435.35,4.145,3.341,6.938,5.593c.233-.166.474-.326.724-.477.161-.1.324-.191.488-.283l-6.778-4.776-5.783-4.058C788.731,850.478,788.675,850.581,788.618,850.684Z" transform="translate(-787 -850.375)"/><path class="g" d="M787.868,851.994l1.566,1.263,3.308,2.667,6.2,5a8.847,8.847,0,0,1,.848-.763l-5.951-4.193-5.181-3.634-.7-.49C787.927,851.9,787.9,851.945,787.868,851.994Z" transform="translate(-787.055 -850.267)"/><path class="g" d="M798.6,861.264c-2.121-1.5-10.458-7.376-11.483-8.054l-.008.011,10.466,8.442.732-.026C798.4,861.51,798.5,861.385,798.6,861.264Z" transform="translate(-787.11 -850.168)"/><path class="g" d="M787.318,855.023c.26.137,9.638,6.758,9.638,6.758l-1.21.044Z" transform="translate(-787.095 -850.035)"/><path class="g" d="M787.486,856.629c.208.109,7.7,5.4,7.7,5.4l-.965.036Z" transform="translate(-787.082 -849.917)"/><path class="g" d="M787.485,857.791c.165.087,6.148,4.312,6.148,4.312l-.771.03Z" transform="translate(-787.082 -849.832)"/><g transform="translate(0.865 0.483)"><path class="g" d="M799.454,854.421l-9.971,9.242q.382.547.74,1.111c2.6-2.68,6.417-6.621,9.709-10.028Z" transform="translate(-787.801 -850.562)"/><path class="g" d="M798.156,853.549l-9.577,8.876q.351.438.679.892c2.182-2.25,6.113-6.306,9.234-9.538Z" transform="translate(-787.868 -850.626)"/><path class="g" d="M796.888,852.72l-8.808,8.164-.164.761q.169.188.333.382c1.506-1.552,5.867-6.049,8.864-9.156Z" transform="translate(-787.916 -850.686)"/><path class="g" d="M795.7,852l-7.426,6.882-.294,1.358s4.97-5.122,7.879-8.139Z" transform="translate(-787.911 -850.739)"/><path class="g" d="M794.6,851.378l-6.288,5.827-.234,1.085s4.369-4.5,6.628-6.848Z" transform="translate(-787.904 -850.784)"/><path class="g" d="M793.793,850.825l-5.275,4.888-.187.867s3.791-3.907,5.517-5.7Z" transform="translate(-787.885 -850.825)"/></g></g><g transform="translate(105.691 149.126)"><path class="i" d="M875.7,935.036c-4.779,2.953-15.41,6.776-23.077,9.7l-.006,0c-.246.089-.472.175-.7.265-4,1.536-7.068,2.8-7.865,3.509-.086.082-.2.167-.33.269-.331.255-.8.586-1.381.962-5.251,3.4-19.436,10.789-21.573,6.489a11.753,11.753,0,0,1-.884-2.617c-.044-.2-.088-.391-.12-.59,0-.015,0-.021,0-.035-.053-.263-.1-.534-.141-.81,0-.009,0-.009,0-.015-.734-5.1.25-11.271,1.126-11.169,11.723,1.373,17.863-9.2,19.066-11.517.15-.29.221-.45.221-.45s.363-.134,1.06-.367c.383-.121.873-.276,1.45-.455.314-.1.656-.2,1.029-.31.126-.035.251-.076.382-.106q.452-.139.968-.282c.166-.046.332-.091.512-.136l.006,0q1.407-.383,3.161-.806c.73-.176,1.495-.353,2.31-.532,1.222-.275,2.548-.545,3.958-.818.135-.017.279-.031.417-.043.727-.089,1.451-.148,2.167-.2a42.861,42.861,0,0,1,7.1.105l.009,0C875.435,926.171,881.6,931.4,875.7,935.036Z" transform="translate(-819.359 -924.88)"/><path class="j" d="M864.557,925.087a13.315,13.315,0,0,0-4.754,12.755s-4.313,1.048-9.125,2.406c-.412.119-.835.245-1.259.369-.767.221-1.546.449-2.314.684-.661.2-1.314.409-1.946.613-3.512,1.141-6.471,2.306-7.213,3.175-2.014,2.346-16.523,12.45-18.069,8.53a2.08,2.08,0,0,1-.12-.59c0-.015,0-.021,0-.035a4.847,4.847,0,0,0-.141-.81c0-.009,0-.009,0-.015-.734-5.1.25-11.271,1.126-11.169,11.723,1.373,17.863-9.2,19.066-11.517.15-.29.221-.45.221-.45s.363-.134,1.06-.367c.383-.121.873-.276,1.45-.455.314-.1.656-.2,1.029-.31.126-.035.251-.076.382-.106q.452-.139.968-.282c.166-.046.332-.091.512-.136l.006,0q1.407-.383,3.161-.806c.73-.176,1.495-.353,2.31-.532,1.222-.275,2.548-.545,3.958-.818.135-.017.279-.031.417-.043.727-.089,1.451-.148,2.167-.2a42.861,42.861,0,0,1,7.1.105Z" transform="translate(-819.359 -924.88)"/><g transform="translate(21.944 2.632)"><path class="k" d="M843.422,927.333c-.1.238-.242.581-.4,1.017a19.464,19.464,0,0,0-1.2,4.839,9.263,9.263,0,0,0-.026,1.687c.017.215.048.429.087.642l-1.926.352a9.971,9.971,0,0,1-.1-2.66l0-.005a14.582,14.582,0,0,1,.241-1.718,21.8,21.8,0,0,1,.953-3.454c.314-.1.656-.2,1.029-.31.127-.036.251-.076.382-.106Q842.907,927.477,843.422,927.333Z" transform="translate(-839.808 -927.333)"/></g><g transform="translate(28.028 1.156)"><path class="k" d="M849,925.957c-.577,1.382-1.968,5.139-1.447,7.955l-1.93.355c-.488-2.644.364-5.8,1.067-7.778C847.417,926.313,848.182,926.136,849,925.957Z" transform="translate(-845.477 -925.957)"/></g><g transform="translate(34.805 0.099)"><path class="k" d="M855.078,924.972c-.645,1.677-1.673,4.886-1.213,7.372l-1.925.353a15.992,15.992,0,0,1,.971-7.528C853.638,925.079,854.362,925.02,855.078,924.972Z" transform="translate(-851.792 -924.972)"/></g><g transform="translate(20.366 3.786)"><path class="r" d="M845.717,941.043a8.064,8.064,0,0,1-1,1.537,11.2,11.2,0,0,0-2.387,5.948c-.234,2.311.264,4.306,1.069,5.113l-.926.923a7.307,7.307,0,0,1-1.524-5.074,12.638,12.638,0,0,1,2.753-7.737c.022-.031.051-.066.072-.1,2.279-2.874,1-4.427-1.872-6.859-.163-.142-.336-.287-.516-.435-.32-.265-.641-.536-.957-.81-.163-.142-.321-.286-.47-.427a4.614,4.614,0,0,1-1.619-3.141,3.091,3.091,0,0,1,.083-.76c.15-.29.221-.45.221-.45s.363-.134,1.06-.367l.372.4a1.66,1.66,0,0,0-.435,1.175,2.632,2.632,0,0,0,.559,1.425,6.482,6.482,0,0,0,1.076,1.158l.651.545c.1.084.2.17.3.247C844.772,935.489,847.4,937.685,845.717,941.043Z" transform="translate(-838.337 -928.408)"/></g><g transform="translate(24.536 2.494)"><path class="r" d="M849.279,932.4a24.57,24.57,0,0,1-.169,3.7,17.747,17.747,0,0,0-.1,3.977,5.64,5.64,0,0,0,2.341,3.971l-.4.521-.006,0-.393.512c-.108-.081-.21-.164-.311-.247a6.8,6.8,0,0,1-2.493-4.39,18.108,18.108,0,0,1,.061-4.473,22.232,22.232,0,0,0,.166-3.5,3.511,3.511,0,0,0-.24-1.081,4,4,0,0,0-1.685-1.9,9.162,9.162,0,0,0-3.207-1.137c-.371-.062-.6-.087-.619-.088l.055-.647q.452-.138.968-.282c.166-.046.332-.091.512-.136l.006,0a10.513,10.513,0,0,1,2.609.952,6.3,6.3,0,0,1,1.693,1.3A4.685,4.685,0,0,1,849.279,932.4Z" transform="translate(-842.223 -927.204)"/></g></g></g><path class="s" d="M799.558,821.731c-1.019.5-2.1.987-3.215,1.457-6.868-8.338-23.609-22.956-47.658-6.5-15.383,10.528-34.907,12.181-38.992,12.416a.02.02,0,0,1-.026,0c-.484.032-.745.039-.745.039l-.007-.026-6.247-19.734,25.917-47.161,32.248.313s38.052,47.54,38.169,47.9C799.074,810.655,799.342,816.765,799.558,821.731Z" transform="translate(-553.571 -439.287)"/><g transform="translate(161.384 94.915)"><path class="t" d="M718.4,571.995c3.43,4.486,4.374,2.731-1.221,8.682-2.521,3.863,3.464,3.919,7.716,5.962a8.128,8.128,0,0,1,2.409,1.643c2.109,1.82,6.317,2.21,10.314,2.8,8.5-1.022,10.568,5.729,10.325-2.8-.033-.111-.078-.222-.1-.334-2.086-7.205,9.87-.6,7.427-7-5.584-2.532,6.839.244,2.8-10.314-5.952-4.441,7.272-8.116-2.8-10.325-.655-3.964-10.014-1.321-7.326-7.327-2.687-3.231-7.761-1.377-10.325-2.8-10.248-2.309-5.952,5.5-10.314,2.8-5.784-1.954-7.294,5.506-7.339,7.327C716.641,563.879,709.547,571.995,718.4,571.995Z" transform="translate(-714.117 -549.746)"/><path class="u" d="M724.156,585.044a8.125,8.125,0,0,1,2.409,1.643c2.109,1.82,6.317,2.21,10.314,2.8,8.5-1.022,10.568,5.728,10.325-2.8-.033-.112-.078-.222-.1-.334-2.786-.522-5.341-1.539-5.34-3.741.005-9.942-11.776-11.064-11.776-11.064s-3.2,6.757-3.4,7.49C726.487,579.415,725.344,582.224,724.156,585.044Z" transform="translate(-713.383 -548.151)"/><path class="c" d="M732.366,562.916s-12.776-3-12.776,11.88,1.5,16.759,12.776,12.248S745.143,563.59,732.366,562.916Z" transform="translate(-713.717 -548.801)"/></g><path class="n" d="M702.766,601.6s-23.582-19.5-61.332-65.542c0,0-44.991,30.871-59.468,55.089s49.982,60.384,70.146,89.8C670.014,707.055,702.766,601.6,702.766,601.6Z" transform="translate(-562.554 -455.832)"/><path class="n" d="M771.3,596.9s42.336-11.414,47.765-47.153c0,0,76.456,18.519,74.645,39.118s-30.518,66.07-61.113,81S771.3,596.9,771.3,596.9Z" transform="translate(-548.55 -454.831)"/></g></g><g transform="translate(605.915 296.918)"><path class="v" d="M762.025,458.483h-1.072c1.615,0,2.925-1.664,2.925-3.717s-1.31-3.717-2.925-3.717h-3.989c-1.616,0-2.926-1.664-2.926-3.717s1.31-3.717,2.926-3.717h13.065c1.615,0,2.925-1.664,2.925-3.717s-1.31-3.717-2.925-3.717H707.62c-1.616,0-2.925-1.664-2.925-3.717s1.309-3.717,2.925-3.717h25.222c1.616,0,2.925-1.664,2.925-3.717s-1.309-3.717-2.925-3.717H634.407c-1.616,0-2.926,1.664-2.926,3.717s1.31,3.717,2.926,3.717h5.99c1.616,0,2.925,1.664,2.925,3.717s-1.309,3.717-2.925,3.717H606.089c-1.616,0-2.927,1.664-2.927,3.717s1.31,3.717,2.927,3.717h51.086c1.615,0,2.925,1.664,2.925,3.717s-1.31,3.717-2.925,3.717H625.12c-1.616,0-2.925,1.665-2.925,3.717s1.309,3.717,2.925,3.717H762.025Z" transform="translate(-603.031 -287.818)"/><path class="v" d="M620.815,421.309a3.918,3.918,0,0,1,.767.076,3.959,3.959,0,0,1,.738.223,3.9,3.9,0,0,1,.679.364,3.952,3.952,0,0,1,.6.489,3.929,3.929,0,0,1,0,5.561,3.934,3.934,0,0,1-6.637-2.013,3.944,3.944,0,0,1,.587-2.952,3.956,3.956,0,0,1,1.085-1.085,3.945,3.945,0,0,1,2.185-.663Z" transform="translate(-602.027 -287.818)"/><path class="v" d="M863.357,296.918h-3.731c2.075,0,3.758,2.138,3.758,4.774s-1.683,4.774-3.758,4.774h-8.039c-2.075,0-3.757,2.138-3.757,4.774s1.682,4.774,3.757,4.774h16.726c2.075,0,3.758,2.138,3.758,4.774s-1.683,4.773-3.758,4.773h-71.8c-2.074,0-3.757-2.137-3.757-4.773s1.683-4.774,3.757-4.774h5.124c2.075,0,3.757-2.138,3.757-4.774s-1.682-4.774-3.757-4.774h-16.78c-2.075,0-3.757-2.138-3.757-4.774s1.682-4.774,3.757-4.774h78.5Z" transform="translate(-590.014 -296.918)"/><line class="w" x2="2.907" y2="5.021" transform="translate(176.011 64.165)"/><line class="x" x2="0.548" y2="71.32" transform="translate(163.376 46.88)"/><path class="x" d="M692.992,423.608q.008-24.669.015-49.338l-.548-23.475" transform="translate(-596.498 -292.977)"/><line class="x" x1="0.548" y2="124.319" transform="translate(196.262 49.497)"/><path class="x" d="M694.04,352.208s3.834,8.156,15.337,8.156,16.263-8.156,16.263-8.156" transform="translate(-596.383 -292.873)"/><path class="x" d="M724.7,343.041s3.974,17.994,15.9,17.994,16.853-17.994,16.853-17.994" transform="translate(-594.14 -293.544)"/><line class="x" y2="12.528" transform="translate(96.783 141.822)"/><line class="x" y2="12.528" transform="translate(163.376 125.368)"/><line class="x" y2="12.528" transform="translate(196.28 182.293)"/><path class="x" d="M754.96,341.671s3.973,17.994,15.894,17.994,16.854-17.994,16.854-17.994" transform="translate(-591.926 -293.644)"/><path class="y" d="M603.576,400.056s-2.434-6.9,3.064-10.119,11.278-6.332,15.053-10.8,9.307-11.768,11.361-15.82,6.279-9.954,10.461-12.274,9.771-5.417,16.616-3.783,17.779,5.68,21.785,7.2,15.618,5.351,20.04,5.286.677,18.068.677,18.068a56.2,56.2,0,0,1-4.078,5.65c-2.506,3.067-5.878,7.595-10.587,7.4s-9.885-.922-9.545-3.258a14.53,14.53,0,0,1,1.274-4.139s-3.637,4.083-6.413,5.507-10.1,3.972-14.563,3.262c0,0-7.386-.475-6.835-2.3-1.91,1.032-3.725,2.9-5.587,4.126s-8.091,6.145-12.96,4.651-6.361-3.57-6.361-3.57a98.813,98.813,0,0,1-8.914,5.678c-2.543,1.192-7.961,3.493-10,2.588A19.513,19.513,0,0,1,603.576,400.056Z" transform="translate(-603.04 -293.269)"/><path class="z" d="M696.561,379.517c-.5,1.218-4.786,11.261-13.29,12.336-3.619.458-8.686-.621-9.543-3.258-.547-1.682.867-3.233,3.492-7.217a101.824,101.824,0,0,0,5.819-10.009" transform="translate(-597.877 -291.472)"/><path class="z" d="M679.025,381.347a25.485,25.485,0,0,1-11.407,10.01,24.279,24.279,0,0,1-13.5,1.629c-2.113-.3-4.693-.677-5.12-2.095-.553-1.829,2.927-3.881,6.517-7.45a41.43,41.43,0,0,0,8.147-11.639" transform="translate(-599.682 -291.44)"/><path class="z" d="M652.153,387a31.1,31.1,0,0,1-8.858,8.137c-3.026,1.837-6.069,3.684-10.242,3.492a14.7,14.7,0,0,1-8.02-2.994" transform="translate(-601.431 -290.328)"/><path class="x" d="M701.2,359.755a87.906,87.906,0,0,1-12.571-2.872c-7.506-2.3-9.843-4.119-18.622-6.983-7.034-2.294-10.55-3.442-13.967-3.259-9.2.494-15.7,6.7-17.459,8.38-5.87,5.605-3.8,7.859-11.407,17.459-4.489,5.665-7.28,9.187-12.337,12.57-5.5,3.681-9.217,4.208-10.708,8.148-1.182,3.121-.605,7.426,1.862,9.311,3.6,2.747,9.981-.595,13.734-2.561,4.744-2.484,13.161-8.068,20.02-20.717" transform="translate(-603.003 -293.282)"/><path class="x" d="M696.127,376.914c-.5,1.218-4.786,11.261-13.289,12.336-3.619.458-8.687-.621-9.545-3.258-.547-1.682.866-3.233,3.492-7.217a102.557,102.557,0,0,0,5.82-10.009" transform="translate(-597.909 -291.662)"/><path class="x" d="M678.591,378.744a25.485,25.485,0,0,1-11.407,10.01,24.277,24.277,0,0,1-13.5,1.629c-2.114-.3-4.693-.677-5.121-2.095-.553-1.829,2.928-3.881,6.517-7.449a41.455,41.455,0,0,0,8.147-11.64" transform="translate(-599.714 -291.63)"/><path class="x" d="M651.719,384.394a31.082,31.082,0,0,1-8.858,8.137c-3.026,1.837-6.069,3.684-10.242,3.492a14.7,14.7,0,0,1-8.02-2.994" transform="translate(-601.463 -290.519)"/><line class="x" x1="3.259" y2="4.235" transform="translate(41.631 77.569)"/><path class="y" d="M788.171,350.081s12.773-2.963,18.043-5.145,15.522-6.714,20.855-7.34,10.879-.852,15.754,2.482,8.35,5.03,11.2,10.689,10.112,16.725,14.232,20.239,13.7,8.845,14.705,10.293,3.268,8.98.332,10.715-6.209,2.5-11.082,0a122.174,122.174,0,0,1-12.311-7.922s2.784,2.337.252,3.385-7.056,2.4-10.168,1.092a85.142,85.142,0,0,1-13.392-8.3c-1.755,2.4-8.829,2.7-10.857,2.415s-11.379-3.627-13.179-5.2l-1.8-1.57s-.28,3.534-3.21,4.363-7.435,1.732-10.334,0-10.338-8.623-10.338-8.623Z" transform="translate(-589.592 -293.97)"/><path class="z" d="M786.873,369.861c.5,1.218,4.786,11.262,13.29,12.336,3.618.458,8.686-.621,9.544-3.258.547-1.682-.867-3.233-3.492-7.217a101.821,101.821,0,0,1-5.819-10.009" transform="translate(-589.592 -292.178)"/><path class="z" d="M804.9,371.691A25.486,25.486,0,0,0,816.3,381.7a24.277,24.277,0,0,0,13.5,1.629c2.114-.3,4.694-.677,5.122-2.095.551-1.829-2.929-3.881-6.518-7.45a41.437,41.437,0,0,1-8.147-11.638" transform="translate(-588.273 -292.146)"/><path class="z" d="M831.567,377.341a31.085,31.085,0,0,0,8.857,8.137c3.026,1.837,6.069,3.684,10.242,3.492a14.7,14.7,0,0,0,8.02-2.994" transform="translate(-586.322 -291.035)"/><path class="x" d="M787.216,350.1a87.88,87.88,0,0,0,12.57-2.871c7.507-2.3,9.843-4.12,18.623-6.983,7.033-2.3,10.549-3.443,13.967-3.26,9.2.494,15.7,6.7,17.458,8.38,5.871,5.605,3.8,7.859,11.406,17.459,4.49,5.665,7.281,9.187,12.338,12.57,5.5,3.681,9.216,4.209,10.708,8.148,1.182,3.121.6,7.426-1.863,9.312-3.6,2.746-9.98-.6-13.733-2.562-4.745-2.484-13.161-8.068-20.021-20.717" transform="translate(-589.566 -293.988)"/><path class="x" d="M787.2,367.258c.5,1.218,4.787,11.262,13.29,12.336,3.619.458,8.686-.621,9.545-3.258.547-1.682-.867-3.233-3.492-7.217a102.117,102.117,0,0,1-5.82-10.009" transform="translate(-589.568 -292.368)"/><path class="x" d="M805.22,369.088a25.48,25.48,0,0,0,11.407,10.01,24.277,24.277,0,0,0,13.5,1.629c2.113-.3,4.693-.677,5.121-2.095.552-1.829-2.928-3.88-6.518-7.45a41.435,41.435,0,0,1-8.146-11.638" transform="translate(-588.249 -292.337)"/><path class="x" d="M831.89,374.738a31.112,31.112,0,0,0,8.857,8.137c3.027,1.837,6.07,3.684,10.242,3.492a14.692,14.692,0,0,0,8.02-2.994" transform="translate(-586.299 -291.225)"/><line class="x" x2="3.259" y2="4.235" transform="translate(250.957 67.207)"/><path class="aa" d="M695.157,350.406v99.462a31.123,31.123,0,0,0-18.3-5.792c-15.858,0-28.761,11.338-28.761,25.274s12.9,25.274,28.761,25.274,28.759-11.338,28.759-25.274V382.995l85.407-21.13v64.287a31.116,31.116,0,0,0-18.3-5.793c-15.858,0-28.759,11.338-28.759,25.274s12.9,25.274,28.759,25.274,28.761-11.338,28.761-25.274V324.1Z" transform="translate(-599.744 -294.929)"/><path class="ab" d="M695.157,350.406v99.462a31.123,31.123,0,0,0-18.3-5.792c-15.858,0-28.761,11.338-28.761,25.274s12.9,25.274,28.761,25.274,28.759-11.338,28.759-25.274V382.995l85.407-21.13v64.287a31.116,31.116,0,0,0-18.3-5.793c-15.858,0-28.759,11.338-28.759,25.274s12.9,25.274,28.759,25.274,28.761-11.338,28.761-25.274V324.1Z" transform="translate(-599.744 -294.929)"/><path class="ac" d="M724.7,353.522a4.141,4.141,0,1,1,8.089-1.776" transform="translate(-594.147 -293.145)"/><path class="ac" d="M739.994,350.164a4.141,4.141,0,0,1,8.091-1.775" transform="translate(-593.028 -293.391)"/><path class="ad" d="M726.038,356.906a1.931,1.931,0,0,1,.746.148,1.954,1.954,0,0,1,1.055,1.055,1.947,1.947,0,0,1-1.055,2.546,1.939,1.939,0,0,1-1.492,0,1.931,1.931,0,0,1-.632-.422,1.944,1.944,0,0,1-.571-1.378,1.948,1.948,0,0,1,1.949-1.949Z" transform="translate(-594.185 -292.53)"/><path class="ad" d="M748.653,351.943a1.95,1.95,0,1,1-1.8,2.694,1.935,1.935,0,0,1,0-1.491,1.945,1.945,0,0,1,1.8-1.2Z" transform="translate(-592.53 -292.893)"/><path class="ae" d="M732.863,359.206l10.171-2.232s1.054,3.946-4.211,5.1S732.863,359.206,732.863,359.206Z" transform="translate(-593.543 -292.525)"/><path class="af" d="M732.863,359.206l10.171-2.232s1.054,3.946-4.211,5.1S732.863,359.206,732.863,359.206Z" transform="translate(-593.543 -292.525)"/></g></g></svg>