<svg xmlns="http://www.w3.org/2000/svg" xmlns:xlink="http://www.w3.org/1999/xlink" width="1366" height="717.764" viewBox="0 0 1366 717.764"><defs><style>.a,.bn,.bo,.bp,.bw,.j{fill:none;}.b{fill:#70b8b8;}.c{fill:#9cd6d6;}.ah,.d{fill:#fff;}.e{fill:#d6bf87;}.f,.m{fill:#f6da9b;}.g{fill:#d63e23;}.h{fill:#164b55;}.i{fill:#f8d24b;}.j{stroke:#f8d24b;stroke-linecap:round;stroke-linejoin:round;}.k,.l{opacity:0.3;}.m{fill-rule:evenodd;}.aa,.n,.t{fill:#020202;}.o{fill:#d86466;}.p{fill:#d9d6da;}.q{fill:#d5c8b4;}.r{fill:#f7ac00;}.s{clip-path:url(#a);}.ad,.t{opacity:0.15;}.u{clip-path:url(#b);}.v{clip-path:url(#c);}.w{fill:#fe674c;}.x{fill:#4a7cdb;}.y{fill:#e2e2e2;}.z{clip-path:url(#d);}.aa,.ah{opacity:0.2;}.ab{fill:#f7cf43;}.ac{fill:#438591;}.ae{fill:#274e55;}.af{fill:#e8d9a9;}.ag{fill:#6a5342;}.ai{fill:#c5907b;}.aj{fill:#cfeaff;}.ak{fill:#f2e6e6;}.al{fill:#d9d7d2;}.am{fill:#ccc5be;}.an{fill:#f2e096;}.ao{fill:#faeeb9;}.ap{fill:#ccc2bc;}.aq{fill:#919599;}.ar{fill:#8ba5bf;}.as{fill:#dbecff;}.at{fill:#b3aca7;}.au{fill:#acada3;}.av{fill:#bab1ab;}.aw{fill:#e0f2ff;}.ax{fill:#cce7f7;}.ay{fill:#9da9b3;}.az{fill:#aeb3b8;}.ba{fill:#c6cbd1;}.bb{fill:#719dd1;}.bc{fill:#92afd1;}.bd{fill:#c9cfd4;}.be{fill:#cfc7c4;}.bf{fill:#d6d6d6;}.bg{opacity:0.19;}.bh{fill:#4e7494;}.bi{fill:#6698c2;}.bj{fill:#82b1d9;}.bk{fill:#bf371f;}.bl{fill:#a8301b;}.bm{fill:#0972b8;}.bn,.bo,.bp{stroke:#fff;}.bn,.bo,.bp,.bw{stroke-miterlimit:10;}.bn{stroke-width:0.215px;}.bo{stroke-width:0.26px;}.bp{stroke-width:0.314px;}.bq{fill:#cfecfb;}.br{fill:#017aa7;}.bs{fill:#f1f1f0;}.bt{fill:#7c7c7c;}.bu{fill:#a0a0a0;}.bv{fill:#77aab6;}.bw{stroke:#4e91f2;stroke-width:0.851px;}</style><clipPath id="a"><path class="a" d="M916,536.122l-27.477-39.791a.833.833,0,0,0-.955.606s-.739-.161-1.13.807c0,0-.777-.045-.946.336L913.13,538.1A4.116,4.116,0,0,0,916,536.122Z"/></clipPath><clipPath id="b"><path class="a" d="M915.9,535.976l-2.951,1.751,2.864,4.147c.067-.019.134-.041.2-.063.206.31.6.91.661,1.025a.527.527,0,0,0,.613.168c.22-.1,1.552-1.125,1.827-1.333a.389.389,0,0,0,.092-.511l-.822-1.059c.127-.15.2-.245.2-.245Z"/></clipPath><clipPath id="c"><path class="a" d="M888.523,496.331a.832.832,0,0,0-.955.605s-.74-.16-1.13.808c0,0-.677-.04-.9.265l-.68-3.012a1.173,1.173,0,0,0,.709-.49Z"/></clipPath><clipPath id="d"><path class="a" d="M860.847,516.408a22.213,22.213,0,0,0-2.57-2.57,1.879,1.879,0,0,0-2.026-.149l-4.313,2.053-8.5,4.043a4.327,4.327,0,0,0-1.483,1.309s-.382.652-.8,1.34l-.049.08-.271.441h0c-.179.289-.35.556-.481.748a1.5,1.5,0,0,0-.182,1.428s1.828,2.423,2.48,3.144a1.61,1.61,0,0,0,1.719.267s8.616-4.567,11.566-6.1c.5-.26.839-.433.944-.481a16.985,16.985,0,0,0,1.868-1.116s.36-.5.839-1.19h0l.022-.033c.156-.224.324-.468.495-.72l.01-.014h0c.122-.18.246-.364.369-.548C861.331,517.07,860.847,516.408,860.847,516.408Z"/></clipPath></defs><path class="b" d="M1366,1.62V707.17l-.04-.01-242.19-67.58-1.24-.24-31.75-6.02.07-22.59,1.56-535.5,30.12-25.56,1.79-.74C1228.2,33.43,1310.31,15.3,1366,1.62Z"/><path class="b" d="M316.29,64.64,300.61,608.05l-.37,12.96-26.87,6.66L.2,695.41V0A2644.964,2644.964,0,0,0,273.37,52.72q18.765,2.625,38.35,5.11Z"/><path class="c" d="M1122.53,49.19V645.62H273.37V52.72q18.765,2.625,38.35,5.11A2967.286,2967.286,0,0,0,614.99,80.32,2992.659,2992.659,0,0,0,1122.53,49.19Z"/><path class="d" d="M1366,662.82v44.35l-.04-.01H.17L0,664.5c.07-.02.13-.03.2-.05a2639.646,2639.646,0,0,1,270.5-52.34c.88-.13,1.77-.25,2.67-.38q8.205-1.155,16.56-2.27h.01q5.295-.72,10.67-1.41,36.315-4.74,75.4-8.83c72.92-7.57,152.85-13.1,238.98-15.1a3023.285,3023.285,0,0,1,305.62,8.34q9.915.765,19.68,1.6,12.63,1.065,25.01,2.23c1.78.16,3.56.33,5.33.5,1.08.1,2.16.2,3.24.31.46.04.92.09,1.38.13,40.8,3.95,79.39,8.54,115.6,13.5q16.155,2.205,31.68,4.53C1227.26,630.8,1309.99,649.06,1366,662.82Z"/><path class="e" d="M881.295,305.462s.829,9.258-4.881,14.378,13.16,0,13.16,0-3.511-8.868-2.724-14.378S881.295,305.462,881.295,305.462Z"/><ellipse class="f" cx="9.984" cy="13.622" rx="9.984" ry="13.622" transform="translate(874.323 281.808)"/><path class="g" d="M884.255,279.17c-1.413,1.925-20.641-28.243,3.8-36.456,22.146-7.442,40.765,7.121,46.511,23.892,5.012,14.629,7.352,32.82-20.231,68.753-11.62,22.579-7.168,29.335-7.168,29.335s-18.642-34.23-4.452-56.184S894.626,265.043,884.255,279.17Z"/><path class="g" d="M888.059,287.611s-17.285,9.583-12.155-5.8C879.454,271.162,899.847,280.751,888.059,287.611Z"/><path class="g" d="M885.553,283.935s9.671,5.738,8.738,11.494c0,0,2.132-17.186-7.483-17.617s-13.339.5-12.485,18.669C874.323,296.481,877.117,282.025,885.553,283.935Z"/><path class="f" d="M866.906,632.345s5.705,20.619,2.263,23.261c-6.162,4.787-30.8,21.632-1.382,11.565,15.646-3.156,13.6-6.3,13.071-9.276-.435-2.434-3.482-20.977-4.583-27.681l-.4-2.409Z"/><path class="g" d="M879.4,642.064c-.18-1.4-10.276,4.762-12.066,3.2,0,0,3.19,7.625,2.391,9.016s-18.975,10.457-17.08,16.066S880,664.4,881.865,663.76,879.755,644.822,879.4,642.064Z"/><path class="f" d="M908.671,631.96s-.229,21.393,3.775,23.064c7.183,3.048,35.315,13.015,4.3,10.824-15.932.961-14.763-2.6-15.012-5.615-.2-2.465-2.011-21.169-2.665-27.931l-.236-2.43Z"/><path class="h" d="M917.016,448.237a6.155,6.155,0,0,1-3.493,1.611c-8.208.161-43.657.768-62.887-.337-6.784-.39-11.549-.993-12.386-1.908a.732.732,0,0,0,.006.078c.05,1.06.658,13.2,1.512,29.1,1.685,31.4,4.34,77.5,5.613,82.078a23.935,23.935,0,0,0,3.593,7.4l12.295,70.552,20.5-1.178s-3.085-10.745-5.514-30.854c-.666-5.514-2.127-13.167-2.244-19.5v-.033c-.285-15.276-.413-32.271-.352-48.312v-.033c.123-32.4,1.027-60.91,3.013-63.459,2.416-3.1,8.057,38.6,12.548,80.476,1.177,11.019,2.282,22.049,3.219,32.276.564,6.1,1.066,11.912,1.5,17.268a185.025,185.025,0,0,1,0,32.171h20.989s-.092-34.107-.127-73.136c1.925-4.007,1.759-10.551,2.1-11.153C917.346,550.562,917.016,448.237,917.016,448.237Z"/><path class="d" d="M850,541.7c-.22-.153-.311-.5.063-.493a.665.665,0,0,1-.642-.236c.249,0,.18-.206.159-.34-.178.111-.207.263-.265.568.544.271-.275.858.325,1.108C849.769,542.116,850.147,541.928,850,541.7Z"/><path class="d" d="M851.632,540.458l-.148-.04.237.47C851.6,540.794,851.457,540.473,851.632,540.458Z"/><path class="i" d="M851.245,538.932c.272.046.433-.191.682-.183-.549,0-.107-.377-.173-.584l-.419-.092c-.309.2-.182.707-.227,1.137Z"/><path class="d" d="M851.562,538.55l-.268-.141C851.364,538.524,851.4,538.787,851.562,538.55Z"/><path class="d" d="M850.078,538.819c-.041.34.183-.2.268.141C850.276,538.845,850.257,538.711,850.078,538.819Z"/><path class="i" d="M850.952,537.418c.06.241.114.482.18.722l.19-.292Z"/><path class="i" d="M851.851,537.4a.18.18,0,0,1-.306.1c.341-.246-.122-.418.168-.647l.134.231c.351-.019-.342-.485.28-.451-.428-.322-.539.214-.837-.2a1.443,1.443,0,0,1-.163.968c.13-.088.108-.126.216-.252.01.226.19.534.223.8C851.974,537.819,851.613,537.617,851.851,537.4Z"/><path class="i" d="M851.976,536.272c.039-.24.071-.61-.4-.7-.345.241.048.3.24.427-.079.07-.12.311-.363.2C851.558,536.173,851.794,536.374,851.976,536.272Z"/><path class="i" d="M852.1,535.329l-.409-.2.065.117-.3,0c.073.024.613.135.567.374C852.26,535.507,851.99,535.452,852.1,535.329Z"/><path class="i" d="M850.038,535.171c.214-.157.1-.26-.011-.457.028.268,0,.646.163.734l-.073-.025a2.317,2.317,0,0,0,.487.449C850.328,535.589,850.792,535.127,850.038,535.171Z"/><path class="i" d="M849.985,535.51l-.233-.206Z"/><path class="i" d="M852.04,534.578l-.156.362.132-.084Z"/><path class="i" d="M850.757,534.955c.075-.3-.337.147-.314-.135-.043-.079-.01.416.187.448C850.711,535.2,850.406,534.968,850.757,534.955Z"/><path class="i" d="M852.086,534.339l-.3-.323Z"/><path class="i" d="M852.332,533.593l-.219-.074c.205-.281-.076-.7.419-.877-.279.03-.559-.165-.66.088.144.051.135.143.31.141-.061.106-.258.07-.34.138.228.207.024.489.231.656-.042-.078.01-.093.04-.146.365.347-.588.345.048.527C851.97,533.919,852.416,533.749,852.332,533.593Z"/><path class="i" d="M850.811,533.522l-.1.257c-.29-.1.008-.322-.261-.383-.176.005-.277.262-.392.158.693.076.012.363.8.274.069.346-.433.079-.414.441l.365.123C850.641,533.981,850.967,533.932,850.811,533.522Z"/><path class="i" d="M850.992,532.516l.237-.11-.331.045c-.016-.592,1.352-.821,1.2-1.185-.4-.476.291-.822.264-1.271-.262-.244-.184.192-.359.2-.543-.117.309-.183-.132-.329-.4-.069-.471.415-.729.585.041.173.165.182.386.254-.226.022-.309.186-.535.209.281.377-.326.509-.021.882-.312.083-.035-.263-.091-.152l-.009.188.051-.016c.29.281-.03.73-.246.881.112-.122.37-.193.454-.034l-.362.1.489.365C850.931,532.851,851.633,532.613,850.992,532.516Z"/><path class="i" d="M850.332,532.835c-.216.381.527-.01.333.409l0-.455Z"/><path class="d" d="M851.358,531.031l.258-.171C851.114,530.92,851.744,531.282,851.358,531.031Z"/><path class="d" d="M851.419,530.319l.442.145-.239-.206Z"/><path class="i" d="M852.026,529.726c-.213-.167-.425-.015-.385.158C851.674,529.735,851.88,529.677,852.026,529.726Z"/><path class="i" d="M852.388,531.712a.273.273,0,0,1-.022.112Z"/><path class="i" d="M852.4,531.639l-.015.073A.256.256,0,0,1,852.4,531.639Z"/><path class="i" d="M851.842,539.511a.328.328,0,0,1,.025.151l-.028-.15Z"/><path class="i" d="M851.211,539.682c-.287-.271.685-.282.482-.717a4.818,4.818,0,0,1,.146.547C851.383,539.758,851.6,539.318,851.211,539.682Z"/><path class="i" d="M850.757,536.028c-.006-.005-.006-.01-.013-.016C850.729,535.985,850.743,536,850.757,536.028Z"/><path class="d" d="M852.286,551.43l.125-.011-.133.255Z"/><path class="d" d="M852.507,551.373l.2-.427c.1.792.22,1.583.347,2.371l-.181-.055C852.643,553.323,852.69,551.282,852.507,551.373Z"/><path class="d" d="M852.3,551.279c-.537-.178.147-.4-.246-.653.262.166.544.273.433.469Z"/><path class="j" d="M851.226,550.579c.09-.139-.144-.272-.075-.353C851.551,550.233,851.268,550.463,851.226,550.579Z"/><path class="i" d="M849.687,550.375a.1.1,0,0,1-.009-.06.478.478,0,0,0,.08.055Z"/><path class="i" d="M849.758,550.37l.178-.013A.15.15,0,0,1,849.758,550.37Z"/><path class="i" d="M849.678,550.315a.712.712,0,0,0-.2-.134l-.022.059c-.054-.073-.21-.2-.112-.242-.017.155.107.146.356.127l.012-.249C850.3,549.868,849.7,550.091,849.678,550.315Z"/><path class="j" d="M849.469,549.548l.361.224C849.511,549.871,849.474,549.643,849.469,549.548Z"/><path class="i" d="M849.822,549.142c.1.05.09.3.232.137.07.035.06.083.063.134C850.022,549.254,849.637,549.444,849.822,549.142Z"/><path class="i" d="M850.117,549.413a.153.153,0,0,1,.023.07A.114.114,0,0,1,850.117,549.413Z"/><path class="j" d="M851.844,551.884a.142.142,0,0,1,.128-.03Z"/><path class="i" d="M850.143,548.607l-.005-.095a.242.242,0,0,0,.023.075Z"/><path class="i" d="M854.172,555.939a1.264,1.264,0,0,0-.165-1.077c-.419.072-.144-.167-.591-.131.063.235-.068-.205-.232-.655s-.341-.913-.41-.709l.208.09-.456-.063c.083-.246.4-.6.122-.73.132-.06.269,1.964.4,1.87-.5.253-.845-2.63-1.071-2.68l.265-.063c-.323-.326-.736-.516-.956-.8l.317-.1c-.083.233.145.271.309.482-.1-.386.091-.477-.005-.77-.42.053-.179.279-.455-.076.166-.126.655.079.532-.249.073-.417-.539-.277-.609-.631l-.137.255c-.031-.13-.143-.368.074-.515a.589.589,0,0,0,.672.46c-.107-.142.025-.489-.007-.618l.3.055c.266-.167-.16-.214.079-.416-.183-.156-.417.139-.546.054.1-.044.229-.388.024-.488-.617.131.219.379-.366.642l.083-.325c-.632-.149.051.5-.451.443-.658-.185.571-.545-.261-.7-.141.159-.117.631-.344.59.216-.186-.231-.269-.331-.493l.265-.3c-.205-.1-.2-.008-.319.095.328-.436-.137-1.1.266-1.7-.111-.337-.275-.026-.5-.169.365-.205.035-.5.034-.686.024-.058-.35-.142-.5-.079l.256.468c-.2-.012-.522.076-.467.246.719-.162-.4.707.422.69l-.374.018.294.6.049-.022c-.122.007.287.5.159.851-.132-.087-.03-.667-.415-.3-.232-.237.077-.713-.113-1.163l-.246.107c-.389-.464.036-1.136-.066-1.668l.351.142c.122-.2.393-.451.091-.615.028.229-.172.12-.322.086-.2-.3-.013-.767-.162-1.186a.25.25,0,0,0,.125,0l-.222-.438c.051-.212.251-.29.476-.426-.049-.076-.048-.268-.248-.19-.019.042-.036.084-.016.111-.383-.216.107-.16-.131-.436.322.21.449-.078.773-.059-.148-.324-.573-.018-.723-.056.176-.4.451-.459.513-.859-.2-.02-.133.285-.358.323.053-.115.032-.248-.043-.268l-.156.248a1.461,1.461,0,0,0,.133-1.283l-.1.037.008-.287.372.1c-.1-.154.232-.32-.065-.4l-.026.057-.119-.194.368.2c.154-.244-.6-.587-.532-.989.5-.081.167.694.814.747.1-.131.216-.355.045-.437-.176.015-.18.11-.184.205-.333-.352.214-.869-.349-1.1l-.211.26c-.062-.309.621-.493.251-.6l.637.253c-.31-.316-.241-.713-.469-1.01-.373-.017,0,.421-.076.4l-.265-.145c.229-.449.233-.125.468-.667l-.249-.012c.385-.171-.33-.687.331-.479l-.159.144.3,0-.184-.64c.221.07.166-.238.46-.144l-.256-.244c.43-.087.49.449.814.486.2,0,.175-.11.15-.165.306.29-.44.4-.458.677l.265.147-.373-.02a.926.926,0,0,0,.456.27c-.515.259.086.57-.036.98-.209-.349-.359.212-.456.152-.009.19.643.666.186.82-.18.109-.263-.235-.35.028a.279.279,0,0,0,.416.183,5.794,5.794,0,0,1,.027,1.247l-.247-.1c-.206.262.136.514.407.649-.1.036-.027.056-.174.017-.408.336.511.42.422.964.35-.037.382-.28.211-.45l.4.04a2.531,2.531,0,0,0-.312-1.371l.294.174c.534-.327-.518-.236.092-.541-.139-.228-.207.164-.374-.009.116-.16.688.044.716-.224.2,1.007.166,2.151.266,3.2.074.018.1-.038.125-.094.277.175.057,1-.064,1.795s-.193,1.558.335,1.575c-.148.061-.328-.1-.3.123a.453.453,0,0,0,.325.006c-.528.6.112,1.312-.206,2.017.173-.029.28.114.405.106-.386.265.081.626-.131.863l.2-.088.059.684c.076.013.071-.08.093-.137.107.14-.115.194-.287.225l.465.262c-.631.965.608,1.95.287,3.018.361.11.521.221.594.472l.087-.139c.321.223-.171.038,0,.241.236.121.523-.024.307-.2.1-.142.229-.079.324,0A3.351,3.351,0,0,1,854.172,555.939Z"/><path class="g" d="M898.833,644.557c-.185-1.4,11.154,1.969,12.484,0,0,0-1.13,8.188,0,9.328s21.021,5.244,20.628,11.151-27.963,1.263-29.932,1.124S899.2,647.314,898.833,644.557Z"/><g class="k"><path d="M884.289,450.161l.4-.032S884.544,450.138,884.289,450.161Z"/><path d="M884.289,450.161c-10.564.843-33.653-.65-33.653-.65-6.784-.39-11.549-.993-12.386-1.908a.732.732,0,0,0,.006.078c.05,1.06.658,13.2,1.512,29.1a7.88,7.88,0,0,0,1.11-.128,8.643,8.643,0,0,0,5.59-3.973,19.169,19.169,0,0,0,2.175-4.54C856.518,453.156,880.905,450.465,884.289,450.161Z"/></g><path class="l" d="M874.014,585.251c0-.056-.006-.106-.006-.162-.095-4.938-3.889-22.451-3.889-22.451,2.9-3.649,3.515-24.722,3.543-25.7C873.6,552.98,873.729,569.975,874.014,585.251Z"/><path class="l" d="M898.077,568.351s-5.319,5.709-5.635,17.848c-.937-10.227-2.042-21.257-3.219-32.276C891.215,559.173,894.78,567.291,898.077,568.351Z"/><path class="m" d="M906.665,511.407s-5.418,2.279-7.688,6.284c-1.35,2.381-1.964,2.081-2.318,2.44-1.173,1.192,2.01.814,3.506-1.075,1.217-1.536,4.57-1.379,5.6-2.189s3.384-3.509,3.27-4.448S906.665,511.407,906.665,511.407Z"/><path class="n" d="M884.623,494.25s-.016-.365.251-.247a5.016,5.016,0,0,1,.8.571l-.779.591Z"/><path class="o" d="M918.238,539.912c.034.048.967,1.248.967,1.248a.389.389,0,0,1-.092.511c-.275.208-1.607,1.235-1.827,1.333a.527.527,0,0,1-.613-.168c-.082-.157-.785-1.212-.785-1.212Z"/><path class="p" d="M915.9,535.976l2.679,3.88a5.819,5.819,0,0,1-2.766,2.018l-2.864-4.147Z"/><path class="q" d="M888.523,496.331l-2.96-1.823a1.173,1.173,0,0,1-.709.489l.724,3.207A5.274,5.274,0,0,0,888.523,496.331Z"/><path class="r" d="M916,536.122l-27.477-39.791a.833.833,0,0,0-.955.606s-.739-.161-1.13.807c0,0-.777-.045-.946.336L913.13,538.1A4.116,4.116,0,0,0,916,536.122Z"/><g class="s"><path class="t" d="M889.234,495.016l-1.748,1.8,28.519,41.3,2.028-2.934Z"/></g><path class="p" d="M914.307,535.656"/><g class="u"><path class="t" d="M915.261,537.038l2.446,3.562s.131.017.127.076.759,1.059.785,1.1a.8.8,0,0,1,.071.361,9.134,9.134,0,0,0,1.163-.8s-1.453-4.109-1.48-4.148A21.791,21.791,0,0,1,916,536.121,4.262,4.262,0,0,1,915.261,537.038Z"/></g><path class="r" d="M885.534,498.009l.044.2-.086-.124A.317.317,0,0,1,885.534,498.009Z"/><g class="v"><path class="t" d="M887.568,496.937l-3.484-3.637,1.334-.345s3.964,3.687,4.077,3.786A11.277,11.277,0,0,1,887.568,496.937Z"/></g><path class="m" d="M916.152,502.014c-.559.683-8.635,7.063-10.746,11.382s-4.838,10.942-6.372,13c-1.8,2.425-.985,3.521,1.4.843a47.255,47.255,0,0,0,4.723-6.363c.188-.441-1.31,2.326-3.169,5.247-1.977,3.1-4.314,6.4-3.777,6.795,1.04.766,7.34-7.948,8.174-9.588a46.133,46.133,0,0,1-2.257,4.3c-1.133,1.9-2.738,3.956-2.49,4.575.392.974,4.359-3.4,6.56-7.427.166-.022-.14,1.432-3.075,6.038-.295.462-.561,1.825.824.468,2.915-2.855,4.379-3.868,6.44-8.827,2.009-4.835,3.051-10.619,5.567-13.691Z"/><path class="m" d="M848.2,511.251s5.038,3.026,6.716,7.314c1,2.549,1.648,2.338,1.947,2.744.992,1.347-2.1.521-3.317-1.562-.986-1.693-4.327-2.015-5.233-2.963s-2.85-3.954-2.6-4.868S848.2,511.251,848.2,511.251Z"/><path class="w" d="M855.991,520.286c0,.024,0,.048,0,.074s0,.06,0,.091v.215c0,.037,0,.075,0,.114v.032c0,.034,0,.068,0,.1l0,.106v.054c0,.051,0,.1,0,.153,0,.1-.006.2-.01.3v.007c-.006.135-.01.264-.015.385,0,.021,0,.041,0,.061,0,.041,0,.08-.005.118-.006.134-.011.252-.016.347-2.95,1.532-11.566,6.1-11.566,6.1a1.61,1.61,0,0,1-1.719-.267c-.652-.721-2.48-3.144-2.48-3.144a1.5,1.5,0,0,1,.182-1.428c.131-.192.3-.459.481-.748l.32-.521c.419-.688.8-1.34.8-1.34a4.327,4.327,0,0,1,1.483-1.309l8.5-4.043a1.735,1.735,0,0,1,.48.292c.482.482,3.053,3.233,3.053,3.233A1.33,1.33,0,0,1,855.991,520.286Z"/><path class="x" d="M860.486,518.341c-.846,1.269-1.736,2.505-1.736,2.505a16.985,16.985,0,0,1-1.868,1.116c-.105.048-.443.221-.944.481.023-.488.072-1.623.053-2.157a1.33,1.33,0,0,0-.52-1.019s-2.571-2.751-3.053-3.233a1.735,1.735,0,0,0-.48-.292l4.313-2.053a1.879,1.879,0,0,1,2.026.149,22.213,22.213,0,0,1,2.57,2.57S861.331,517.07,860.486,518.341Z"/><path class="y" d="M860.117,518.889l-4.127,2.131-10.664,5.506a.9.9,0,0,1-1.1-.4c-.383-.556-2.313-2.813-3.065-3.688l-.32.521,3.207,3.912s.218.545.993.237c.5-.2,6.648-3.363,10.939-5.579l3.614-1.869h0Z"/><g class="z"><path class="aa" d="M842.581,519.37c-.08-.006-.228.406-.249.458-.1.248-.459.557-.4.828a2.376,2.376,0,0,0,.3.7c.329.57.9,1.1,1.232,1.671a7.154,7.154,0,0,0,1.222,1.406,1.144,1.144,0,0,0,.515.329c.413.1.791-.189,1.15-.343q.462-.2.919-.4c.794-.356,1.583-.721,2.371-1.089,2.9-1.352,5.812-2.677,8.619-4.207q.7-.381,1.385-.782a6.44,6.44,0,0,0,1.249-.813,1.123,1.123,0,0,0,.393-.8,9.912,9.912,0,0,0-.257,1.872c-.073.654-.139,1.31-.219,1.963-.1.814-.2,1.627-.313,2.439a5.561,5.561,0,0,1-.229,1.3.083.083,0,0,1-.011.021c-.208.267-10.387,7.5-12.96,7.159s-9.274,1.94-10.8-1.6-2.653-6.294-.2-8.347S842.553,519.368,842.581,519.37Z"/></g><path class="m" d="M840.144,500.605c.456.756,7.544,8.219,9.019,12.8s3.233,11.518,4.458,13.777c1.442,2.657.475,3.626-1.5.635a47.182,47.182,0,0,1-3.771-6.97c-.123-.463.966,2.49,2.392,5.645,1.515,3.354,3.36,6.948,2.772,7.263-1.139.61-6.136-8.911-6.728-10.653a46.091,46.091,0,0,0,1.622,4.578c.852,2.04,2.148,4.306,1.815,4.883-.526.908-3.831-3.987-5.438-8.284-.161-.045-.065,1.437,2.186,6.413.226.5.3,1.887-.882.347-2.48-3.241-3.785-4.451-5.12-9.653-1.3-5.072-1.511-10.945-3.564-14.343Z"/><path class="ab" d="M935.788,432.693h-.006v.006c-2.522,6.606-7.616,13.53-12.007,17.106-.284.24-.574.457-.853.664-11.7,5.579-68.615,1.417-76.153-1.618-3.4-1.373-7.526-11.3-11.069-22.351-4.324-13.474-7.783-28.622-7.99-31.964-.351-5.618,6.428-70.952,45.394-78.579a40.469,40.469,0,0,1,10.539-.636s.369.217,1.01.513a19.6,19.6,0,0,0,4.146,1.406c3.2.7,7.364.686,10.879-2.349,4.462-3.855,39.3,1.869,54.318,10.829s38.525,35.824,35.444,78.524c-5.907,81.882-69.124,103.437-69.124,103.437s-1.8,11.256-4.093,11.33-4.017-5.212-5.672-5.619-5.54-1.812-5.42-3.193,2.356-5.677-.589-7,8.182-.793,8.049-3.171c-1.785-31.179,7.66-58.733,19.651-80.9Z"/><path class="ab" d="M829.212,427.238h.006v.006c1.557,6.9,5.615,14.475,9.453,18.639.247.278.5.535.75.779,10.788,7.186,67.717,11.157,75.609,9.224,3.559-.875,9.056-10.113,14.135-20.55,6.2-12.723,11.773-27.225,12.452-30.5,1.147-5.511,3.725-71.145-33.761-84.234a40.555,40.555,0,0,0-10.342-2.128s-.4.163-1.073.365c-.967.3-5.377,2.251-4.3.8,1.7-2.293-4.878-3.6-9.472-4.854-5.687-1.555-40.133-2.755-56.269,3.979s-43.226,29.984-46.247,72.688c-5.793,81.89,53.717,112.213,53.717,112.213s.187,11.4,2.441,11.8,4.717-4.588,6.413-4.755,5.741-1.006,5.819-2.391-1.525-5.954,1.579-6.845-7.987-1.947-7.517-4.283c6.2-30.608.767-59.225-7.951-82.871Z"/><path class="h" d="M906.709,447.659c-5.876,10.227-53.322,7.889-58.544,0,0,0-19.433-46.353-15.517-59.811,0,0,11.137,1.925,23.741,5.111,14.054,3.549,29.927,8.67,34.19,14.439,4.843,6.556,11.783,16.035,15.3,24.784,0,.005,0,.005.005.011q.5,1.239.9,2.455.393,1.2.686,2.371v.017C908.455,441.042,908.4,444.713,906.709,447.659Z"/><path class="h" d="M856.389,314.623s-24.946,18.83-23.741,73.227l7.382,2.377s-2.991-54.413,21.577-76.3A4.5,4.5,0,0,0,856.389,314.623Z"/><path class="ac" d="M905.888,432.193c.106.519.212,1.015.313,1.484-6.076-8.547-31.25-6.606-31.25-6.606-.669-20.571-18.562-34.112-18.562-34.112,14.054,3.549,29.927,8.67,34.19,14.439,4.843,6.556,11.783,16.035,15.3,24.784C905.883,432.187,905.883,432.187,905.888,432.193Z"/><path class="ac" d="M906.2,433.677a6.692,6.692,0,0,1,.586.971,6.8,6.8,0,0,1,.686,2.371v.017C907.864,440.8,907.261,438.592,906.2,433.677Z"/><path class="ad" d="M927.263,432.7v.005c-2.522,6.606-7.616,13.53-12.007,17.107,7.743-20.947,2.656-39.653,2.3-52.257,1.78,12.152,9.429,34.341,9.7,35.122A.085.085,0,0,1,927.263,432.7Z"/><path class="ad" d="M843.7,449.212c-4.357,2.488-16-7.84-19.755-16.7-6.613-15.608-4.047-39.553.632-49.349C823.353,409.782,830.4,428.373,843.7,449.212Z"/><path class="w" d="M847.726,412.807c-1.167-.83-2.144-1.882-3.143-2.736l1.191,1.024a5.762,5.762,0,0,1-1.38-1.8c.4-.061.594.484.985.263a19.512,19.512,0,0,1,3.264,4.714C847.43,414.434,848.113,413.153,847.726,412.807Z"/><path class="w" d="M843.194,407.448c.148.126.289.254.426.382A1.09,1.09,0,0,1,843.194,407.448Z"/><path class="w" d="M858.9,419.769a2.853,2.853,0,0,1,.47.483A2.03,2.03,0,0,1,858.9,419.769Z"/><path class="w" d="M851.162,412.961a1.869,1.869,0,0,1,.374.127q.78,1.074,1.491,2.241C852.472,414.514,851.458,414.028,851.162,412.961Z"/><path class="w" d="M851.171,411.638a5.547,5.547,0,0,1-1.469-2.324A10.05,10.05,0,0,0,851.171,411.638Z"/><path class="w" d="M866.89,423.57a.373.373,0,0,1,.2-.043.273.273,0,0,0,.131.031c.075.429.126.866.179,1.3-.082-.079-.265-.106-.312-.2C867.027,424.183,867.355,423.926,866.89,423.57Z"/><path class="w" d="M858.739,419.582l-.05.006-.181-.149.006-.038A1.09,1.09,0,0,1,858.739,419.582Z"/><path class="w" d="M866.708,423.068a2.069,2.069,0,0,0,.379-.237l.136.722a.728.728,0,0,0-.13-.026C866.925,423.431,866.967,423.14,866.708,423.068Z"/><path class="w" d="M865.217,417.724c-.09-.123-.436-.061-.543-.077a5.517,5.517,0,0,0-.21-1.341c-.109-.012-.2-.131-.418-.155a2.113,2.113,0,0,0,.127-.413q.406.636.782,1.326c.254.451.5.928.725,1.426A4.629,4.629,0,0,1,865.217,417.724Z"/><path class="w" d="M866.674,441.756a10.072,10.072,0,0,1,.333-2,2.5,2.5,0,0,0-.288-1.99c-.5,1.447-.936,3.365-2.359,3.344-.709-.008-.675-.441-.473-1.011a5.97,5.97,0,0,0,.5-1.826l-.3.263c.15-.129.3-.264.137-.386-.3.267-.578.773-1.059.889l-.319-.242a4.531,4.531,0,0,0-1.246,1.128,3.328,3.328,0,0,1-1.3.973,5,5,0,0,0,2.349-5.023,18.814,18.814,0,0,0-1.755-5.719,10.459,10.459,0,0,0-5.171-4.077,3.668,3.668,0,0,1-.831-1.478,9.134,9.134,0,0,0-2.552-1.972c-1.768-1.361-2.534-3.5-4.328-5.21-.358-.332.174-1.771,1.311-1.135a6.692,6.692,0,0,1,2.52,1.879c-.409.187-.521-.352-.92-.312a5.4,5.4,0,0,0,1.093,1.817c-.326-.357-.666-.708-1.007-1.058.861.875,1.636,1.954,2.609,2.857.32.371-.585,1.5.606,1.478a13.966,13.966,0,0,0-2.381-4.782l.031-.014c-.559-.583-1.007-1.17-1.546-1.747.208.143.437.276.521.489a11.392,11.392,0,0,0-1.93-2.911,10.506,10.506,0,0,1,4.024,3.188c1.106,1.314,2.048,2.724,3.187,3.891.076-1.173-1.485-1.531-1.271-2.7a20.067,20.067,0,0,1,2.378,3.862,1.776,1.776,0,0,0-.339-.176,2.8,2.8,0,0,0,.546,1.342,6.165,6.165,0,0,1,.747,1.2l.082.236c-.023-.08-.052-.159-.082-.236a21.627,21.627,0,0,0-.954-2.365,2.008,2.008,0,0,1,.743,1.041,2.145,2.145,0,0,0-.064-1.168c-.255-.441-.511-.881-.764-1.318a6.805,6.805,0,0,0,1.727,1.582,17.368,17.368,0,0,0-1.4-2.994c.384.462.781.917,1.15,1.391.43.923.848,1.843,1.254,2.775l-.081-.088.128.193.49,1.087a2.652,2.652,0,0,0,.853.763l.083.158c-.172-.044-.319-.033-.292.192.023.99,1.047,1.648.894,2.832a1.56,1.56,0,0,0,.384.97c-.063.134.015.168.129.185l.154.225a1.722,1.722,0,0,0,.3.575,3.076,3.076,0,0,0-.3-.575,2.271,2.271,0,0,0-.1-.218c.128.016.279.029.325.139a19.089,19.089,0,0,0-1.492-4.325c.141.037.3.11.39.129l-.473-.287a9.725,9.725,0,0,0-.814-1.276,1.228,1.228,0,0,0,.506.2,17.15,17.15,0,0,0-2.336-3.655,33.9,33.9,0,0,0-1.933-3.632,7.384,7.384,0,0,0,.783,2.241,32.97,32.97,0,0,1-3.738-4.9,6.267,6.267,0,0,0,1.865-.123c.234-.217-.131-.8.269-.623,1.619.538,1.658,1.852,3.423,1.238.464-.2.711-2.588,1.329-2.38a10.75,10.75,0,0,1,1.708,1.5,6.729,6.729,0,0,0,.427.717c-.006.048.11.038.246.033a9.085,9.085,0,0,1,1.412,2.075l.227.562a1.077,1.077,0,0,1-.183.425,1.41,1.41,0,0,1,.435.166c.2.505.421.989.639,1.469.011.331,0,.669.029.98.1-.059.2-.172.326-.177l.809,1.788a2.039,2.039,0,0,1-.272.932c1.2.215,1.317,1.971,1.831,2.992l.034-.014c.2.54.365,1.1.53,1.672a2.02,2.02,0,0,1-.236.366c.205.087.258.232.357.279a5.753,5.753,0,0,1-.186,1.369c.1.046.445.1.49.247a4.775,4.775,0,0,0,.213.882c.05.342.075.7.1,1.053a14.211,14.211,0,0,1,0,1.8,15.338,15.338,0,0,1-.189,1.776,2.106,2.106,0,0,1-.436.091c.217.16.083.418.2.571a.34.34,0,0,0-.2-.033c.286.508-.1.629-.209,1.1.01.1.171.2.221.3-.013.052-.024.1-.041.156-.718.533-.479,1.042-.527,1.629-.231.572-.429,1.134-.695,1.68C867.486,441.395,867.007,441.5,866.674,441.756Z"/><path class="w" d="M867.422,425.011c.069.56.094,1.135.13,1.694C867.361,426.155,866.974,425.758,867.422,425.011Z"/><path class="w" d="M860.731,411.991a2.027,2.027,0,0,0,.06-.947c.814,1.065,1.642,2.13,2.437,3.273l-.028.023C862.437,413.524,861.926,411.9,860.731,411.991Z"/><path class="w" d="M867.093,423.527a.728.728,0,0,1,.13.026v.005A.273.273,0,0,1,867.093,423.527Z"/><path class="w" d="M854.531,414.031l-.07-.1q.376.267.727.56A2.064,2.064,0,0,1,854.531,414.031Z"/><path class="w" d="M852.646,411.387l-1.391-1.213a7.021,7.021,0,0,1-1.107-2.141C851.022,409.105,851.834,410.241,852.646,411.387Z"/><path class="w" d="M859.379,409.782c-.082-.289-.133-.617-.206-.922l.488.68C859.544,409.573,859.461,409.7,859.379,409.782Z"/><path class="w" d="M856.424,415.724l-.122-.138.536.176C856.743,415.764,856.571,415.728,856.424,415.724Z"/><path class="w" d="M857.99,407.091l.33.516a1.428,1.428,0,0,0-.445-.073A1.088,1.088,0,0,0,857.99,407.091Z"/><path class="w" d="M855.816,404.879a5.737,5.737,0,0,1-.492-.614c.246.192.494.4.734.607C855.927,404.9,855.816,404.927,855.816,404.879Z"/><path class="ae" d="M946.044,439.02a8.55,8.55,0,0,1-.332-1.968c.041.246.083.492.124.738a1.424,1.424,0,0,1,.294-1.068c.325.106.077.356.511.405a5.976,5.976,0,0,1-.932,2.714C944.706,439.516,946.086,439.266,946.044,439.02Z"/><path class="ae" d="M946.591,435.708a2.265,2.265,0,0,1,.028.267C946.572,435.883,946.536,435.792,946.591,435.708Z"/><path class="ae" d="M950.274,444.9a.893.893,0,0,1,.131.3A.469.469,0,0,1,950.274,444.9Z"/><path class="ae" d="M948.446,440.147a1,1,0,0,1,.192.16c-.1.418-.222.842-.362,1.274C948.378,441.112,947.947,440.626,948.446,440.147Z"/><path class="ae" d="M949.35,439.675a1.486,1.486,0,0,1,.539-1.269A2.534,2.534,0,0,0,949.35,439.675Z"/><path class="ae" d="M955.447,447.94a.792.792,0,0,1,.2.014.363.363,0,0,0,.106.03q-.16.261-.336.521c-.045-.041-.205-.076-.212-.119C955.332,448.194,955.719,448.145,955.447,447.94Z"/><path class="ae" d="M950.242,444.781l-.046-.009-.067-.1.026-.013A.347.347,0,0,1,950.242,444.781Z"/><path class="ae" d="M955.489,447.721c.158-.007.318-.014.444-.032-.057.1-.117.2-.176.293a1.059,1.059,0,0,0-.108-.028C955.537,447.892,955.7,447.788,955.489,447.721Z"/><path class="ae" d="M956.693,445.495c-.01-.061-.336-.108-.417-.135a2.5,2.5,0,0,0,.542-.521c-.083-.028-.093-.089-.26-.143a2.91,2.91,0,0,0,.336-.12,8.249,8.249,0,0,1-.193,1.28A.722.722,0,0,1,956.693,445.495Z"/><path class="ae" d="M952.4,455.585c-.25-.547.586-1.206-.291-1.723-.522.645-.691,1.521-2.09,1.648s-.146-.861-.229-1.353l-.293.138c.147-.069.293-.138.127-.192a3.609,3.609,0,0,1-1.026.482l-.334-.109c-1.043.359-1.254.989-2.3,1.348,3.344-1.707,1.862-3.931,1.53-5.9a8.6,8.6,0,0,0-3.194-3.012c-.188-.177-.1-.615,0-.93a4.668,4.668,0,0,0-1.065-1.624c-.666-1.147.088-2.292-.121-3.528-.042-.246,1.316-.62,1.734-.02a2.229,2.229,0,0,1,.7,1.512c-.434-.048-.185-.3-.511-.4a1.417,1.417,0,0,0-.294,1.067q-.063-.369-.124-.738a8.6,8.6,0,0,0,.332,1.968c.042.247-1.337.5-.335.822a5.963,5.963,0,0,0,.932-2.715.164.164,0,0,0,.032,0,11.05,11.05,0,0,1-.053-1.156c.063.12.146.241.074.349a3.576,3.576,0,0,0,.5-1.7c1.523,1.54.561,3.322,1.144,4.906.711-.467-.333-1.038.544-1.451a8.437,8.437,0,0,1-.247,2.226.968.968,0,0,0-.192-.16c-.5.478-.068.965-.17,1.434l-.041.126a.683.683,0,0,0,.041-.126c.14-.432.264-.856.362-1.274a.577.577,0,0,1,.1.632,1.237,1.237,0,0,0,.543-.521c.016-.248.031-.5.069-.743a1.831,1.831,0,0,0,.621,1.082,7.247,7.247,0,0,0,.444-1.573c.059.283.125.565.186.848a13.255,13.255,0,0,0-.331,1.45l-.029-.055c.006.036.012.073.02.11-.028.19-.051.382-.062.574.028.171.211.335.438.5,0,.029.008.057.011.085-.139-.05-.276-.073-.346.033-.4.452.312.915-.231,1.436-.142.137-.061.315.059.506-.1.055-.038.081.066.1.027.042.053.083.078.125a.469.469,0,0,0,.131.305.933.933,0,0,0-.131-.305.589.589,0,0,0-.031-.115c.117.024.257.048.267.105a10.065,10.065,0,0,0,.138-2.193c.113.042.227.1.3.126-.108-.07-.214-.14-.313-.211a3.244,3.244,0,0,0-.175-.713,1.067,1.067,0,0,0,.363.186,7.022,7.022,0,0,0-.224-2.049c.18-.649.376-1.292.5-1.931a2.185,2.185,0,0,0-.685,1.083,4.905,4.905,0,0,1,.061-2.914,7.505,7.505,0,0,0,1.5.488c.315-.015.418-.33.607-.153.9.64.123,1.134,1.9,1.361.48.039,2.154-.744,2.51-.513a2.984,2.984,0,0,1,.445.935,1.1,1.1,0,0,0-.071.349c-.033.016.067.039.181.068a1.914,1.914,0,0,1,.006,1.039c-.039.083-.075.166-.109.248a1.682,1.682,0,0,1-.382.116,1.158,1.158,0,0,1,.281.147,5.3,5.3,0,0,0-.192.651c-.149.123-.32.245-.445.366a1.842,1.842,0,0,1,.371-.008c-.046.268-.077.535-.1.8a2.062,2.062,0,0,1-.641.31c.992.263.4.942.552,1.4l.036,0c-.007.233-.017.467-.035.7a2.779,2.779,0,0,1-.336.12c.167.054.178.115.262.142a2.5,2.5,0,0,1-.544.522c.083.027.407.074.417.135a.746.746,0,0,0,.009.361c-.032.138-.07.278-.114.419a7.705,7.705,0,0,1-.656,1.414c-.126.017-.284.025-.441.032.2.067.046.171.159.232a.791.791,0,0,0-.2-.013c.27.2-.115.253-.241.446.007.042.166.078.213.119l-.043.064c-.7.231-.46.439-.475.678-.175.242-.354.485-.531.727C953.148,455.363,952.689,455.447,952.4,455.585Z"/><path class="ae" d="M955.377,448.569c-.153.226-.312.452-.475.678C954.917,449.008,954.675,448.8,955.377,448.569Z"/><path class="ae" d="M956.34,442.474a2.07,2.07,0,0,0,.642-.31c-.042.568-.038,1.132-.054,1.709h-.036C956.736,443.417,957.332,442.738,956.34,442.474Z"/><path class="ae" d="M955.649,447.954a1.059,1.059,0,0,1,.108.028l0,0A.363.363,0,0,1,955.649,447.954Z"/><path class="ae" d="M950.262,441.537l.008-.055a3.064,3.064,0,0,1,.192.413A.594.594,0,0,1,950.262,441.537Z"/><path class="ae" d="M950.6,440.032c-.062-.282-.129-.565-.187-.848a2.194,2.194,0,0,1,.686-1.083C950.978,438.74,950.781,439.383,950.6,440.032Z"/><path class="ae" d="M956.706,441.372c.126-.12.3-.243.445-.366-.028.12-.052.239-.073.358A1.852,1.852,0,0,0,956.706,441.372Z"/><path class="ae" d="M950.648,442.694c0-.029-.007-.057-.011-.085.1.07.206.14.314.211C950.875,442.8,950.761,442.735,950.648,442.694Z"/><path class="ae" d="M957.445,440.092c-.037.088-.07.176-.1.264a1.163,1.163,0,0,0-.28-.148A1.652,1.652,0,0,0,957.445,440.092Z"/><path class="ae" d="M957.367,438.737a1.1,1.1,0,0,1,.071-.348c.042.136.079.277.109.416C957.434,438.776,957.333,438.753,957.367,438.737Z"/><path class="ad" d="M884.982,346.435s-18.861,56.3,33.468,80.215l1.064.707-.271-13.243s-24.658-34.408-24.751-35.294S884.982,346.435,884.982,346.435Z"/><path class="ae" d="M887.46,318.888c-.385-.05-.564-.145-.413-.3C887.159,318.481,887.3,318.592,887.46,318.888Z"/><path class="ad" d="M881.044,320.333c-1,1-3.348,3.2-5.357,3.308a2.3,2.3,0,0,1-2.03-.937c-1.842-2.349-5.122-4.145-8.269-5.261-1.01-.357-1.121-.9-.8-1.479a7.641,7.641,0,0,1,2.482-2.12c4.748.162,7.956.937,8.955,1.852a.488.488,0,0,1,.112.146,19.729,19.729,0,0,0,4.145,1.406C881.1,318.508,881.657,319.719,881.044,320.333Z"/><path class="h" d="M953.653,403.259s-10.271,14-14.188,14.6-40.188,9.446-52.68-33.119c-5.228-17.8-4.33-32.923.524-47.5a31.662,31.662,0,0,0,1.434-10.852,28.109,28.109,0,0,0-.859-6.338,5.966,5.966,0,0,0-.424-1.155,13.814,13.814,0,0,0,2.126.033c2.1-.072,4.7-.329,4.7-.329a21.359,21.359,0,0,1,4.157,5.373c2.415,4.257,4.642,11,2.778,20.1C893.932,379.658,927.932,404.7,953.653,403.259Z"/><path class="l" d="M888.743,326.381c2.092-.8,6.277-2.36,9.7-2.416a21.359,21.359,0,0,0-4.157-5.373s-2.606.257-4.7.329l-1.7,1.122Z"/><path class="h" d="M880.6,312.564s5.99,3.521,8.976.837,4.825-2.928,6.138-.837,3.15,9.923-4.989,9.551-10.24,4.354-14.309-.9S874.211,310.731,880.6,312.564Z"/><path class="af" d="M479.523,706.99l-129.6,10.774c-.058-34.144-.111-69.518-.149-94.739,0-1.336-.006-2.657,0-3.932-.031-19.031-.056-31.349-.056-31.349l-.042-24.161-.007-2.672.01-.247-.031-15.712-.017-7.4s-1.381-21.054,16.7-31.559a41.865,41.865,0,0,1,14.03-4.93c5.587-.987,10.7-1.8,15.617-2.3a90.031,90.031,0,0,1,23.945.513,106.686,106.686,0,0,1,13.434,3.047c14.513,4.2,26.253,11.274,30.812,21.94l.752,9.785.355,4.456.724,9.449,5.019,64.993.483,6.181Z"/><path class="ag" d="M445.9,516.757a271,271,0,0,0-96.253,83.9l-.028-63.108s-2.079-17.845,30.672-23.58C399.445,510.6,425.43,510.823,445.9,516.757Z"/><path class="ah" d="M447.378,709.663l-5.386.447L434.246,616l-4.759-57.611-1.06-12.939-1.122-13.5-.976-11.916c1.195,3.833,2.333,7.917,3.383,12.238.826,3.281,1.6,6.7,2.341,10.237.05.226.1.437.148.663.1.453.183.907.282,1.359.806,3.973,1.58,8.1,2.316,12.343,3.1,17.9,5.487,37.918,7.319,58.473C445.01,647.552,446.565,681.034,447.378,709.663Z"/><path class="ah" d="M406.3,521.009l.173,9.663.327,18.346.005.429.2,10.661.084,4.709.965,53.363,1.705,94.61-5.31.442c-2.074-28.462-3.922-61.966-4.3-94.4-.232-18.123-.006-35.915.9-52.3.041-.618.067-1.235.107-1.853.282-4.923.637-9.715,1.051-14.343h.015a.433.433,0,0,1,0-.139c.624-6.9,1.4-13.435,2.342-19.5Q405.349,525.626,406.3,521.009Z"/><path class="af" d="M522.092,486.942l-120.4,67.7-120.077-58.3L399.257,437.8Z"/><path class="ai" d="M281.617,496.348,281.49,512.4l121.643,58.776L401.7,554.647Z"/><path class="ai" d="M522.092,486.942l-.024,3.412-.083,9.347L403.132,571.179,401.7,554.647Z"/><path class="aj" d="M443.638,413.832l-40.271-18.681-.045-1.11,40.237,18.65Z"/><path class="ak" d="M403.323,394.058,443.56,412.7l1.955-1.145-40.176-18.642Z"/><path class="al" d="M443.638,413.832l2.159.945,1.866-1.111-.08-1.131-1.874.992-2.149-.827Z"/><path class="ak" d="M445.515,411.555l2.068.979-1.846,1.1-2.176-.937Z"/><path class="aj" d="M353.933,423.293l39.061-22.133-.037-1.12-39.029,22.1Z"/><path class="ak" d="M392.958,400.056l-39.029,22.089-2.052-.991,38.978-22.084Z"/><path class="al" d="M353.933,423.293l-2.1,1.133-1.961-.964,0-1.147,1.959.844,2.1-1.012Z"/><path class="ak" d="M351.877,421.154l-2.01,1.16,1.94.958,2.122-1.126Z"/><path class="aj" d="M353.808,394l38.258-21.223-.035-1.075L353.8,392.894Z"/><path class="ak" d="M392.032,371.721,353.8,392.9l-2.009-.95,38.178-21.178Z"/><path class="al" d="M353.808,394l-2.059,1.086-1.919-.925,0-1.1,1.918.809,2.059-.97Z"/><path class="ak" d="M351.8,391.952l-1.968,1.112,1.9.918,2.077-1.08Z"/><path class="aj" d="M441.649,384.932,402.23,367.016l-.043-1.065,39.386,17.888Z"/><path class="ak" d="M402.188,365.967l39.385,17.881,1.916-1.1-39.327-17.881Z"/><path class="al" d="M441.649,384.932l2.112.906,1.829-1.065-.077-1.085-1.836.951-2.1-.793Z"/><path class="ak" d="M443.489,382.749l2.024.939-1.81,1.058-2.13-.9Z"/><path class="al" d="M448.782,488.387l-15.873,9.805-5.523-1.277-10.572,6.525.214,4.6L396.8,520.573l-4.029-123.447,47.855-27.144Z"/><path class="am" d="M396.8,520.573,354.2,498.855l-.508-120.034,39.085,18.305Z"/><path class="an" d="M392.786,397.476l-39.094-18.31,48-26.44,38.957,17.6Z"/><path class="al" d="M390.389,398.5,353,381.037l-.008-2.082,37.335,17.41Z"/><path class="ao" d="M352.988,378.972l37.334,17.4,2.029-1.149-37.329-17.374Z"/><path class="al" d="M390.389,398.5l2.1.924,1.888-1.087-.071-2.126-1.889.969-2.093-.807Z"/><path class="ao" d="M392.352,395.226l2.074.894-1.974,1.076-2.129-.821Z"/><path class="al" d="M394.375,398.325l47.072-26.608-.142-2.053-47,26.526Z"/><path class="ao" d="M441.306,369.68l-47,26.519-2.1-.981,47.01-26.481Z"/><path class="al" d="M391.258,413.736l-39.564-18.678,0-1.11L391.223,412.6Z"/><path class="ak" d="M351.691,393.965l39.531,18.64,2.053-1.176L353.749,392.82Z"/><path class="al" d="M391.258,413.736l2.123.945,1.908-1.111-.038-1.131-1.911.992-2.118-.826Z"/><path class="ak" d="M393.275,411.429l2.1.916-2,1.1-2.155-.841Z"/><path class="al" d="M395.288,413.556l48.483-27.729-.077-1.1L395.25,412.416Z"/><path class="ak" d="M443.7,384.749l-48.445,27.676-2.124-1,48.452-27.637Z"/><path class="al" d="M392.2,443.886l-40.424-19.491,0-1.158L392.16,442.7Z"/><path class="ak" d="M351.771,423.254,392.16,442.7l2.1-1.228L353.873,422.06Z"/><path class="al" d="M392.2,443.886l2.17.986,1.948-1.16-.039-1.181-1.952,1.036-2.164-.863Z"/><path class="ak" d="M394.256,441.477l2.145.956-2.039,1.15-2.2-.878Z"/><path class="al" d="M396.315,443.7l49.492-28.932-.08-1.142-49.452,28.884Z"/><path class="ak" d="M445.728,413.641l-49.452,28.876-2.17-1.049,49.461-28.834Z"/><path class="ap" d="M435.207,370.995l-35.089-15.819-.078-2,37.132,16.715Z"/><path class="ao" d="M400.04,353.189l37.208,16.742,1.968-1.195L402,352.111Z"/><path class="ap" d="M359.121,379.76l43.046-23.66-.1-2L357.1,378.791Z"/><path class="ao" d="M404.053,353.031l-47.134,25.86-2.045-.957,47.141-25.824Z"/><path class="aq" d="M376.775,400.771l11.224,5.3-.168-5.8-11.176-5.255Z"/><path class="ar" d="M397.611,432.559l-.573-16.251,9.5-5.473.681,16.123Z"/><path class="as" d="M406.6,426.663l-8.412,4.9-.534-14.966,8.324-4.8Z"/><path class="ar" d="M402.735,428.914l-.67.39-.574-14.918.663-.382Z"/><path class="at" d="M409.477,428.025l-2.259-1.076-.68-16.1,2.232,1.051Z"/><path class="al" d="M400.2,434.73l-3.641.152-.71-20.618,3.588-.148Z"/><path class="ak" d="M409.477,428.025l-9.321,5.465-.088-2.363,7.15-4.177Z"/><path class="al" d="M408.77,411.9l-12.747,7.364-.172-5,10.687-3.414Z"/><path class="ar" d="M413.628,423.085l-.753-16.034,9.374-5.4.858,15.909Z"/><path class="as" d="M422.488,417.268l-8.3,4.836-.7-14.766L421.7,402.6Z"/><path class="ar" d="M418.675,419.489l-.661.385-.739-14.719.654-.377Z"/><path class="at" d="M425.362,418.612l-2.256-1.061-.857-15.886,2.229,1.037Z"/><path class="al" d="M416.225,425.227l-3.614.15-.939-20.343,3.562-.146Z"/><path class="ak" d="M425.362,418.612l-9.2,5.391-.114-2.331,7.055-4.121Z"/><path class="al" d="M424.479,402.7l-12.58,7.267-.228-4.935,10.578-3.369Z"/><path class="ar" d="M429.43,413.738l-.928-15.822,9.252-5.329,1.03,15.7Z"/><path class="as" d="M438.166,408l-8.19,4.772-.86-14.571,8.108-4.673Z"/><path class="ar" d="M434.4,410.19l-.652.38-.9-14.525.646-.372Z"/><path class="at" d="M441.036,409.324l-2.253-1.047L437.755,392.6l2.226,1.023Z"/><path class="al" d="M432.034,415.851l-3.589.148-1.161-20.073,3.537-.144Z"/><path class="ak" d="M441.036,409.324l-9.075,5.32-.139-2.3,6.961-4.067Z"/><path class="al" d="M439.982,393.624,427.566,400.8l-.282-4.87,10.47-3.325Z"/><path class="ar" d="M388.208,430.645l-.464-16.207-9.818-4.664.348,16.1Z"/><path class="as" d="M378.874,425.526l8.7,4.177-.421-14.926-8.6-4.089Z"/><path class="ar" d="M382.87,427.446l.693.333-.378-14.886-.685-.326Z"/><path class="au" d="M376.09,427.121l2.185-1.258-.348-16.075-2.16,1.229Z"/><path class="am" d="M385.765,433.019l3.637-.152-.589-20.008-3.6-.4Z"/><path class="av" d="M376.09,427.121l9.642,4.661-.063-2.357-7.394-3.562Z"/><path class="am" d="M375.767,411.017l13.177,6.278-.135-4.591-10.882-2.916Z"/><path class="ar" d="M399.013,472.31l-.875-24.832,9.706-5.72,1.04,24.631Z"/><path class="aw" d="M408.246,466.077l-8.643,5.181-.838-23.476,8.506-5.015Z"/><path class="ar" d="M404.276,468.457l-.688.413-.9-23.4.677-.4Z"/><path class="at" d="M411.207,467.517l-2.324-1.137-1.039-24.606,2.283,1.1Z"/><path class="al" d="M401.679,474.605l-3.743.161-1.014-29.424,3.668-.155Z"/><path class="ak" d="M411.207,467.517l-9.577,5.777-.093-2.5,7.346-4.416Z"/><path class="al" d="M410.127,442.872l-13.026,7.7-.18-5.227,10.923-3.568Z"/><path class="ar" d="M415.468,462.3l-1.15-24.492,9.576-5.643,1.31,24.3Z"/><path class="as" d="M424.567,456.149l-8.525,5.11-1.1-23.156,8.392-4.947Z"/><path class="ar" d="M420.652,458.5l-.679.407-1.158-23.08.668-.394Z"/><path class="at" d="M427.524,457.569l-2.32-1.121L423.9,432.176l2.28,1.084Z"/><path class="al" d="M418.141,464.559l-3.716.159L413.087,435.7l3.641-.152Z"/><path class="ak" d="M427.524,457.569l-9.446,5.7-.12-2.464,7.246-4.355Z"/><path class="al" d="M426.175,433.259l-12.851,7.593-.238-5.157,10.809-3.52Z"/><path class="ar" d="M431.7,452.419l-1.416-24.16,9.448-5.567,1.572,23.967Z"/><path class="as" d="M440.666,446.356l-8.409,5.041-1.349-22.842,8.28-4.881Z"/><path class="ar" d="M436.8,448.671l-.67.4L434.725,426.3l.659-.389Z"/><path class="at" d="M443.618,447.756,441.3,446.65l-1.571-23.943,2.277,1.069Z"/><path class="al" d="M434.378,454.651l-3.688.157-1.655-28.628,3.615-.15Z"/><path class="ak" d="M443.618,447.756l-9.318,5.62-.147-2.43,7.147-4.3Z"/><path class="al" d="M442.007,423.776l-12.679,7.491-.294-5.087,10.7-3.473Z"/><path class="ar" d="M389.342,470.286l-.709-24.763-10.04-4.875.532,24.592Z"/><path class="ax" d="M379.742,464.876l8.945,4.416-.66-23.413-8.8-4.274Z"/><path class="ar" d="M383.852,466.9l.712.352-.592-23.348-.7-.34Z"/><path class="au" d="M376.88,466.561l2.245-1.329-.531-24.568-2.208,1.284Z"/><path class="am" d="M386.832,472.8l3.74-.161-.863-29.339-3.664.154Z"/><path class="av" d="M376.88,466.561l9.917,4.928L386.73,469l-7.6-3.765Z"/><path class="am" d="M376.387,441.948l13.475,6.561-.153-5.212-11.114-2.633Z"/><path class="g" d="M410.341,467.094l-8.745,5.275-.252-6.8,8.705-5.226Z"/><path class="g" d="M410.049,460.343l-1.445-.584-7.319,4.224.059,1.585Z"/><path class="ay" d="M368.385,461.015l-.348-24.449-9.906-4.813.176,24.282Z"/><path class="aw" d="M358.924,455.673l8.824,4.359-.319-23.116-8.682-4.22Z"/><path class="ay" d="M362.978,457.676l.7.347-.253-23.052-.691-.336Z"/><path class="aq" d="M356.056,457.337l2.25-1.312-.175-24.257-2.212,1.268Z"/><path class="az" d="M365.855,463.493l3.718-.158-.435-28.967-3.643.152Z"/><path class="ba" d="M356.056,457.337l9.783,4.865-.031-2.46-7.5-3.717Z"/><path class="az" d="M355.919,433.035l13.3,6.479-.077-5.147-11.007-2.6Z"/><path class="bb" d="M356.895,456.867l8.933,4.442-.083-6.7-8.891-4.4Z"/><path class="bc" d="M356.853,450.211l1.406-.7,7.466,3.535.019,1.561Z"/><path class="g" d="M377.717,466.031l9.055,4.5-.182-6.783-9.012-4.457Z"/><path class="g" d="M377.578,459.29l1.4-.7,7.565,3.58.042,1.581Z"/><path class="g" d="M426.66,457.151l-8.626,5.2-.327-6.707,8.587-5.154Z"/><path class="g" d="M426.294,450.492l-1.442-.576-7.221,4.167.076,1.564Z"/><path class="g" d="M442.754,447.331l-8.508,5.131-.4-6.615,8.471-5.084Z"/><path class="g" d="M442.316,440.763l-1.439-.568-7.125,4.11.093,1.542Z"/><path class="bd" d="M431.522,474.116l-5.432-1.236-17.732,9.693,3.185,3.72Z"/><path class="ar" d="M427.386,496.915,413.807,505.3l-1.294-29.1,13.321-8.056Z"/><path class="as" d="M426.6,497.4l-12,7.408L413.331,476.6l11.78-7.129Z"/><path class="ay" d="M426.555,481.5l-13.441,8.207-.04-.893,13.433-8.2Z"/><path class="ar" d="M420.77,501.035l-.778-15.792.784-.479.787,15.782Z"/><path class="as" d="M427.386,496.915l5.523,1.277-1.661-28.828-5.414-1.228Z"/><path class="ar" d="M427.334,495.945l5.519,1.267.057.982-5.523-1.277Z"/><path class="al" d="M416.968,506.748l-1.4-30.15-2.911,2.759,1.254,28.219Z"/><path class="ar" d="M401.881,511.528l-.949-26.183,9.952-6.028,1.123,25.965Z"/><path class="as" d="M411.35,504.953l-8.865,5.465-.908-24.753,8.721-5.285Z"/><path class="ar" d="M407.278,507.463l-.706.435-.974-24.67.695-.421Z"/><path class="at" d="M414.394,506.472l-2.389-1.2-1.122-25.939,2.346,1.157Z"/><path class="al" d="M404.623,513.949l-3.845.17-1.1-31.025,3.765-.163Z"/><path class="ak" d="M414.394,506.472l-9.824,6.094-.1-2.635,7.535-4.657Z"/><path class="bd" d="M413.23,480.491,399.874,488.6l-.2-5.509,11.205-3.76Z"/><path class="ar" d="M432.909,498.193l-1.1-19.041-.634.222,1.033,18.658Z"/><path class="ar" d="M368.385,461.015l-.348-24.449-9.906-4.813.176,24.282Z"/><path class="ax" d="M358.924,455.673l8.824,4.359-.319-23.116-8.682-4.22Z"/><path class="ar" d="M362.978,457.676l.7.347-.253-23.052-.691-.336Z"/><path class="au" d="M356.056,457.337l2.25-1.312-.175-24.257-2.212,1.268Z"/><path class="am" d="M365.855,463.493l3.718-.158-.435-28.967-3.643.152Z"/><path class="av" d="M356.056,457.337l9.783,4.865-.031-2.46-7.5-3.717Z"/><path class="am" d="M355.919,433.035l13.3,6.479-.077-5.147-11.007-2.6Z"/><path class="g" d="M356.895,456.867l8.933,4.442-.083-6.7-8.891-4.4Z"/><path class="g" d="M356.853,450.211l1.406-.7,7.466,3.535.019,1.561Z"/><path class="al" d="M432.919,498.35l2.282,1.064,1.988-1.25-.076-1.273-2,1.117-2.273-.93Z"/><path class="ak" d="M434.985,495.753l2.256,1.03-2.083,1.239-2.313-.946Z"/><path class="al" d="M437.189,498.147l13.889-8.465-.089-1.269-13.878,8.45Z"/><path class="ak" d="M450.99,488.433l-13.878,8.441-2.285-1.13,13.88-8.428Z"/><path class="be" d="M394.629,521.925l-42.648-21.676,0-1.287,42.61,21.638Z"/><path class="ak" d="M351.977,498.982l42.61,21.629,2.209-1.366-42.6-21.59Z"/><path class="bf" d="M394.629,521.925l2.291,1.1,2.053-1.291-.044-1.314-2.057,1.153-2.285-.96Z"/><path class="ak" d="M396.8,519.245l2.265,1.064-2.149,1.279-2.325-.977Z"/><path class="al" d="M398.972,521.716l20.346-12.538-.063-1.3-20.328,12.516Z"/><path class="ak" d="M419.256,507.9,398.928,520.4l-2.291-1.167,20.331-12.487Z"/><path class="ar" d="M369.876,500.383l-.383-25.8-10.177-5.076.2,25.613Z"/><path class="as" d="M360.151,494.745l9.07,4.6-.352-24.389-8.919-4.45Z"/><path class="ar" d="M364.318,496.859l.722.366-.282-24.319-.71-.354Z"/><path class="au" d="M357.207,496.5l2.31-1.385-.2-25.588-2.27,1.337Z"/><path class="am" d="M367.279,503l3.82-.167-.478-30.561-3.741.16Z"/><path class="av" d="M357.207,496.5l10.055,5.135-.034-2.6-7.71-3.923Z"/><path class="az" d="M357.045,470.865l13.66,6.832-.085-5.428-11.3-2.742Z"/><path class="ar" d="M381.726,506.372l-.592-26-10.258-5.116.408,25.819Z"/><path class="as" d="M371.917,500.689l9.143,4.638-.549-24.585-8.99-4.486Z"/><path class="ar" d="M376.117,502.82l.728.369-.479-24.515-.716-.357Z"/><path class="au" d="M368.974,502.459l2.309-1.4-.407-25.793-2.269,1.348Z"/><path class="am" d="M379.14,509.009l3.834-.169-.727-30.807-3.754.162Z"/><path class="av" d="M368.974,502.459l10.137,5.176-.055-2.618-7.773-3.955Z"/><path class="az" d="M368.606,476.617l13.77,6.887-.129-5.471-11.372-2.764Z"/><path class="ar" d="M393.672,512.411l-.805-26.213-10.341-5.157.617,26.027Z"/><path class="as" d="M383.777,506.681,393,511.357l-.75-24.784-9.063-4.522Z"/><path class="ar" d="M388.012,508.829l.734.372-.679-24.713-.722-.36Z"/><path class="au" d="M380.837,508.466l2.307-1.408-.617-26-2.267,1.359Z"/><path class="am" d="M391.1,515.069l3.848-.17-.979-31.057-3.768.163Z"/><path class="av" d="M380.837,508.466l10.22,5.218-.076-2.639-7.837-3.987Z"/><path class="am" d="M380.26,482.415l13.88,6.942-.174-5.515-11.44-2.786Z"/><path class="ar" d="M433.436,491.764l-1.485-25.5,9.7-5.872,1.649,25.288Z"/><path class="as" d="M442.642,485.363l-8.634,5.321-1.414-24.105,8.5-5.148Z"/><path class="ar" d="M438.677,487.807l-.688.424-1.477-24.026.677-.41Z"/><path class="at" d="M445.678,486.842l-2.382-1.167-1.648-25.263,2.34,1.127Z"/><path class="al" d="M436.193,494.121l-2.613.114-1.759-30.211,2.56-.109Z"/><path class="ak" d="M445.678,486.842l-9.566,5.933-.154-2.566,7.338-4.535Z"/><path class="bd" d="M443.988,461.538l-13.012,7.9-.308-5.366,10.981-3.663Z"/><path class="as" d="M357.189,391.759l11.075,5.23-.085-5.726-11.029-5.187Z"/><path class="au" d="M357.189,391.759l1.239-.789-.033-4.308-1.245-.585Z"/><path class="av" d="M368.264,396.989l-11.075-5.23,1.239-.789,9.813,4.5Z"/><path class="ar" d="M358.68,386.8l.031,3.968,9.524,4.276.006.426-9.813-4.5-.033-4.308Z"/><path class="as" d="M376.777,400.883l11.224,5.3-.168-5.8-11.177-5.256Z"/><path class="au" d="M376.777,400.883l1.236-.8-.1-4.365-1.261-.593Z"/><path class="av" d="M388,406.183l-11.224-5.3,1.236-.8,9.944,4.556Z"/><path class="ar" d="M378.207,395.853l.089,4.021,9.649,4.333.013.432-9.944-4.556-.1-4.365Z"/><path class="as" d="M440.046,381.87l-10.557,6.039-.338-5.651,10.515-5.99Z"/><path class="aq" d="M440.046,381.87l-1.282-.679-.284-4.246,1.186-.676Z"/><path class="ak" d="M429.489,387.91l10.557-6.039-1.282-.679-9.365,5.215Z"/><path class="ar" d="M438.208,377.1l.261,3.912-9.1,4.975.025.42,9.365-5.215-.284-4.246Z"/><path class="as" d="M423.8,391.189l-10.7,6.123-.272-5.729,10.659-6.072Z"/><path class="aq" d="M423.8,391.189l-1.282-.688-.235-4.3,1.2-.685Z"/><path class="ak" d="M413.1,397.312l10.7-6.123-1.282-.688-9.492,5.287Z"/><path class="ar" d="M422.012,386.353l.216,3.966-9.218,5.043.02.426,9.492-5.287-.235-4.3Z"/><path class="as" d="M407.363,400.613l-10.851,6.208-.2-5.808,10.806-6.156Z"/><path class="aq" d="M407.363,400.613l-1.283-.7-.184-4.364,1.219-.694Z"/><path class="ak" d="M396.512,406.821l10.851-6.208-1.283-.7-9.622,5.36Z"/><path class="ar" d="M405.616,395.71l.169,4.02-9.343,5.113.015.432,9.622-5.36-.184-4.364Z"/><path class="ad" d="M386.132,446.693l-5.1,12.774-3.457-.178,9.012,4.457Z"/><path class="ad" d="M365.534,437.667l-5.248,12.612-3.433-.175,8.89,4.4Z"/><path class="ad" d="M387.833,400.38l-7.861.6-3.2-.1,11.224,5.3Z"/><path class="ad" d="M368.18,391.314l-7.817.593-3.173-.1,11.075,5.23Z"/><path class="ad" d="M385.3,415.557l-5.387,11.093-3.82.47,9.642,4.661Z"/><path class="ad" d="M365.152,406.972l-5.513,10.957-3.8.464,9.515,4.6Z"/><path class="ad" d="M443.783,415.948l-.8,2.814L394.5,447.11l-.13-2.238Z"/><path class="ad" d="M441.734,387.036l-.792,2.7L393.449,416.9l-.126-2.144Z"/><path class="ad" d="M440.7,372.045l-.785,2.639-46.98,26.568-.123-2.1Z"/><path class="ad" d="M394.5,447.11l-40.6-19.068-.01-2.479,40.479,19.309Z"/><path class="ad" d="M393.507,416.819l-39.733-18.27-.01-2.376,39.618,18.5Z"/><path class="ad" d="M393,401.281l-39.289-17.867-.01-2.324,39.175,18.095Z"/><path class="bg" d="M447.642,471.836,445.4,482.724l-2.107,2.95-7.184,7.1-3.267,4.3.074,1.273-14.692,9.029-1.259-.631-19.054,13.137,1.061-2.086-.186-34.165,48.29-19.986Z"/><path class="bh" d="M399.3,488.2a.944.944,0,0,1-.421.758c-.242.147-.446.046-.456-.227a.947.947,0,0,1,.422-.758C399.085,487.83,399.289,487.931,399.3,488.2Z"/><path class="bi" d="M399.4,488.26a.949.949,0,0,1-.421.759c-.243.147-.447.045-.456-.227a.945.945,0,0,1,.421-.759C399.184,487.886,399.388,487.988,399.4,488.26Z"/><path class="bh" d="M399.128,488.4a.469.469,0,0,1-.209.376c-.12.073-.221.023-.226-.112a.47.47,0,0,1,.209-.376C399.022,488.211,399.123,488.261,399.128,488.4Z"/><path class="bh" d="M398.763,488.795l6.652,3.411.307-.528-6.652-3.41Z"/><path class="bj" d="M405.779,491.8a.47.47,0,0,1-.208.378c-.12.073-.222.023-.227-.113a.47.47,0,0,1,.208-.378C405.672,491.619,405.773,491.669,405.779,491.8Z"/><path class="bk" d="M452.992,466.635,405.6,495.95l-.384-.217-.14-3.609-7.735-8.852-.016-.471Z"/><path class="bl" d="M453.376,466.844,405.6,495.95l-.16-4.085,47.647-28.946Z"/><path class="g" d="M405.442,491.865l-8.115-9.065,47.5-28.592,8.267,8.711Z"/><path class="ar" d="M367.828,421.873l-.228-16.007-9.69-4.607.115,15.9Z"/><path class="as" d="M358.626,416.818l8.583,4.126-.2-14.742-8.492-4.039Z"/><path class="ar" d="M362.57,418.713l.684.329-.161-14.7-.676-.322Z"/><path class="au" d="M355.836,418.392l2.189-1.242-.115-15.877-2.164,1.214Z"/><path class="bg" d="M393.518,484l-2.751,19.656-5.527,4.466-4.4.341-19.086-6.981-7.557-3.83-.069-16.366Z"/><path class="am" d="M365.366,424.218l3.617-.15-.3-20.305-3.564.146Z"/><path class="av" d="M355.836,418.392l9.515,4.6-.029-2.328-7.3-3.518Z"/><path class="am" d="M355.746,402.488l13.006,6.2-.074-4.926-10.768-2.489Z"/><path class="bh" d="M391.887,489.1a.923.923,0,0,0,.47.721c.251.126.448.006.44-.266a.921.921,0,0,0-.47-.721C392.076,488.7,391.879,488.823,391.887,489.1Z"/><path class="bi" d="M391.792,489.16a.924.924,0,0,0,.469.721c.252.126.449.006.44-.266a.919.919,0,0,0-.47-.721C391.98,488.768,391.783,488.888,391.792,489.16Z"/><path class="bh" d="M392.07,489.272a.456.456,0,0,0,.233.358c.124.062.222,0,.218-.132a.461.461,0,0,0-.233-.358C392.163,489.078,392.066,489.137,392.07,489.272Z"/><path class="bh" d="M392.46,489.639l-6.419,3.984-.342-.5,6.419-3.982Z"/><path class="bj" d="M385.652,493.254a.454.454,0,0,0,.232.359c.124.063.222,0,.219-.132a.462.462,0,0,0-.232-.36C385.746,493.059,385.648,493.118,385.652,493.254Z"/><path class="bk" d="M349.641,478.6,386.1,497.377l.37-.251-.095-3.616L393.518,484l-.015-.472Z"/><path class="bl" d="M349.27,478.846,386.1,497.377l-.106-4.093-36.725-18.429Z"/><path class="g" d="M385.991,493.285l7.512-9.754-36.555-18.187-7.681,9.512Z"/><path class="ad" d="M439.982,393.624l1.055,15.7-8.608,2.666,4.255-16.461Z"/><path class="ad" d="M424.511,402.815l.883,15.912-8.7,2.7,4.472-16.684Z"/><path class="ad" d="M408.825,411.992l.707,16.126-8.786,2.739,4.693-16.909Z"/><path class="ad" d="M439.666,376.269l.38,5.6-9.222,3.743,6.26-7.873Z"/><path class="ad" d="M423.492,385.548l.315,5.678-9.331,3.795,6.4-7.982Z"/><path class="ad" d="M407.114,394.857l.248,5.756-9.441,3.847,6.539-8.092Z"/><path class="ad" d="M438.613,425.781l-1.983,16.863,1.574.586-1.8,7.928,7.212-3.4-1.611-23.98Z"/><path class="ad" d="M422.738,435.352l-2.189,17.1,1.578.595-1.9,8.038,7.3-3.45-1.349-24.311Z"/><path class="ad" d="M406.644,445.018l-2.4,17.332,1.582.6-2.007,8.151,7.392-3.5-1.08-24.648Z"/><path class="bm" d="M1332.612,173.762V387.328l-184.995-25.985V210.686Z"/><path class="bn" d="M1148.06,281.761l128.856-62.656.041,8.309-128.9,57.258Z"/><path class="bn" d="M1148.06,284.674l128.9-57.258.041,8.315L1148.06,287.586Z"/><path class="bn" d="M1148.06,287.586,1277,235.73l.041,8.32L1148.06,290.5Z"/><path class="bn" d="M1148.06,290.5l128.98-46.45.042,8.325L1148.06,293.414Z"/><path class="bn" d="M1148.06,293.414l129.022-41.039.041,8.331L1148.06,296.329Z"/><path class="bn" d="M1148.06,296.329l129.063-35.623.042,8.336-129.1,30.2Z"/><path class="bn" d="M1148.06,299.244l129.1-30.2.042,8.341L1148.06,302.161Z"/><path class="bn" d="M1148.06,302.161l129.146-24.777.042,8.347L1148.06,305.077Z"/><path class="bn" d="M1148.06,305.077l129.188-19.347.042,8.352L1148.06,307.995Z"/><path class="bn" d="M1148.06,307.995l129.229-13.912.042,8.358-129.271,8.473Z"/><path class="bn" d="M1148.06,310.913l129.271-8.473.042,8.363-129.313,3.029Z"/><path class="bn" d="M1148.06,313.832l129.313-3.029.042,8.368-129.354-2.42Z"/><path class="bn" d="M1148.06,316.751l129.354,2.42.042,8.374-129.4-7.874Z"/><path class="bn" d="M1148.06,319.671l129.4,7.874.042,8.379L1148.06,322.592Z"/><line class="bn" y2="66.115" transform="translate(1155.577 265.148)"/><line class="bn" y2="66.115" transform="translate(1160.067 265.148)"/><line class="bo" y2="96.674" transform="translate(1197.251 244.46)"/><line class="bo" y2="96.674" transform="translate(1201.741 244.46)"/><line class="bp" y2="140.386" transform="translate(1255.119 212.733)"/><line class="bp" y2="140.386" transform="translate(1259.609 212.733)"/><path class="bn" d="M1332.17,245.952v6.006l-55.253-24.543.043-8.31Z"/><path class="bn" d="M1332.17,251.958v6.01l-55.294-22.237.041-8.316Z"/><path class="bn" d="M1332.17,257.968v6.01l-55.335-19.927.041-8.32Z"/><path class="bn" d="M1332.17,263.977v6.012l-55.376-17.614.041-8.325Z"/><path class="bn" d="M1332.17,269.989V276l-55.419-15.295.043-8.331Z"/><path class="bn" d="M1332.17,276v6.014l-55.46-12.974.041-8.335Z"/><path class="bn" d="M1332.17,282.016v6.016l-55.5-10.648.041-8.342Z"/><path class="bn" d="M1332.17,288.032v6.016l-55.542-8.318.041-8.346Z"/><path class="bn" d="M1332.17,294.048v6.018l-55.585-5.984.043-8.353Z"/><path class="bn" d="M1332.17,300.067v6.018l-55.626-3.646.041-8.357Z"/><path class="bn" d="M1332.17,306.085v6.023l-55.667-1.3.041-8.363Z"/><path class="bn" d="M1332.17,312.108v6.021l-55.71,1.042.043-8.368Z"/><path class="bn" d="M1332.17,318.128v6.023l-55.751,3.394.041-8.374Z"/><path class="bn" d="M1332.17,324.151v6.027l-55.792,5.747.041-8.381Z"/><line class="bp" y2="140.386" transform="translate(1298.755 212.733)"/><path class="bp" d="M1332.17,330.178V245.952"/><line class="bp" y2="140.386" transform="translate(1294.265 212.733)"/><path class="bq" d="M53.192,349.386,213.612,330.56l-.439-124.109L56.657,187.807Z"/><path class="br" d="M194,318.133,89.211,327.2l-.419-105.781,104.857,7.067Z"/><path class="bs" d="M55.879,190.067l84.857,99.23,49.315,25.824-.008-2.012-47.932-26.217L61.426,187.807Z"/><path class="bt" d="M55.879,190.067l-.651,28.558,83.343,76.58,45.512,19.763-.458,4.147,2.96-.172,3.335-3.89-49.39-27.385Z"/><path class="bu" d="M148.434,299.461l5.07-3.479.1,25.611-4.808.171Z"/><path class="bs" d="M153.5,295.982l2.365,1.229.1,24.145-2.359.2v.245Z"/><path class="bu" d="M182.369,314.223l.02,5.084,3.9-.338-.021-5.356Z"/><path class="bs" d="M186.266,313.613l.77.4.02,4.97-.768.067Z"/><path class="d" d="M211.513,206.451l9.9-1.079L56.058,185.193l-.1,4.777Z"/><path class="bv" d="M221.462,205.375l-9.948,1.076.448,123.268,10.128,2.325Z"/><path class="bv" d="M211.961,329.719,53.252,347.005l-.122,5.886L222.089,332.04Z"/><path class="bw" d="M56.058,185.193l165.357,20.179.674,126.668L53.13,352.891Z"/></svg>