<svg xmlns="http://www.w3.org/2000/svg" width="432" height="313.748" viewBox="0 0 432 313.748"><defs><style>.a{fill:#2581b2;}.b{fill:#7ac7ef;}.c{fill:#eab63a;}.d{fill:#c98f11;}.e{fill:#ffcf73;}.f{fill:#539dce;}.g{fill:#f2e8ea;}.h{fill:#ddd2d5;}.i{fill:#fff;}.j{fill:#71a52e;}.k{fill:#58821b;}.l{fill:#a5d868;}.m{fill:#ce3346;}.n{fill:#a32642;}.o{fill:#e04c66;}.p{fill:#961b31;}.q{fill:#191919;opacity:0.3;}</style></defs><g transform="translate(90)"><g transform="translate(-90 52.179)"><g transform="translate(0 177.205)"><g transform="translate(0 0.428)"><path class="a" d="M1216.707,517.713l-16.955,10.052V506.753l16.955-10.033Z" transform="translate(-1166.795 -486.208)"/><path class="a" d="M1252.411,527.688l-32.958-10.508V496.163l32.958,10.512Z" transform="translate(-1219.454 -486.13)"/><path class="b" d="M1232.709,505.05l-32.958-10.512,16.956-10.033,32.957,10.512Z" transform="translate(-1199.752 -484.505)"/></g><g transform="translate(7.415 5.414)"><rect class="a" width="9.624" height="2.894" transform="translate(0 2.16)"/><g transform="translate(0)"><path class="a" d="M1247.575,495.822c0,1.193-2.154,2.16-4.812,2.16s-4.812-.967-4.812-2.16,2.155-2.161,4.813-2.161S1247.575,494.628,1247.575,495.822Z" transform="translate(-1237.951 -490.768)"/><path class="b" d="M1247.575,492.459c0,1.194-2.154,2.161-4.812,2.161s-4.812-.967-4.812-2.161,2.155-2.16,4.813-2.16S1247.575,491.266,1247.575,492.459Z" transform="translate(-1237.951 -490.299)"/></g></g><g transform="translate(16.072)"><rect class="a" width="9.624" height="2.894" transform="translate(0 2.161)"/><g transform="translate(0)"><path class="a" d="M1237.515,489.531c0,1.194-2.154,2.161-4.812,2.161s-4.812-.967-4.812-2.161,2.154-2.16,4.812-2.16S1237.515,488.338,1237.515,489.531Z" transform="translate(-1227.891 -484.477)"/><path class="b" d="M1237.515,486.169c0,1.193-2.154,2.16-4.812,2.16s-4.812-.967-4.812-2.16,2.154-2.161,4.812-2.161S1237.515,484.975,1237.515,486.169Z" transform="translate(-1227.891 -484.008)"/></g></g><g transform="translate(25.005 11.167)"><rect class="a" width="9.624" height="2.894" transform="translate(0 2.16)"/><g transform="translate(0)"><path class="a" d="M1227.136,502.507c0,1.193-2.155,2.16-4.812,2.16s-4.812-.967-4.812-2.16,2.155-2.161,4.812-2.161S1227.136,501.313,1227.136,502.507Z" transform="translate(-1217.511 -497.453)"/><path class="b" d="M1227.136,499.144c0,1.194-2.155,2.161-4.812,2.161s-4.812-.967-4.812-2.161,2.155-2.16,4.812-2.16S1227.136,497.951,1227.136,499.144Z" transform="translate(-1217.511 -496.984)"/></g></g><g transform="translate(33.345 6.127)"><rect class="a" width="9.624" height="2.894" transform="translate(0 2.16)"/><g transform="translate(0)"><path class="a" d="M1217.444,496.651c0,1.194-2.154,2.161-4.812,2.161s-4.812-.967-4.812-2.161,2.154-2.16,4.813-2.16S1217.444,495.458,1217.444,496.651Z" transform="translate(-1207.82 -491.597)"/><path class="b" d="M1217.444,493.288c0,1.194-2.154,2.161-4.812,2.161s-4.812-.967-4.812-2.161,2.154-2.16,4.813-2.16S1217.444,492.1,1217.444,493.288Z" transform="translate(-1207.82 -491.128)"/></g></g></g><g transform="translate(32.916 187.749)"><g transform="translate(0 0.428)"><path class="c" d="M1178.459,529.965,1161.5,540.017V519.005l16.955-10.033Z" transform="translate(-1128.547 -498.46)"/><path class="d" d="M1214.163,539.94l-32.958-10.508V508.415l32.958,10.512Z" transform="translate(-1181.206 -498.383)"/><path class="e" d="M1194.462,517.3,1161.5,506.79l16.956-10.033,32.957,10.512Z" transform="translate(-1161.504 -496.757)"/></g><g transform="translate(7.415 5.414)"><rect class="d" width="9.624" height="2.894" transform="translate(0 2.16)"/><g transform="translate(0)"><path class="d" d="M1209.327,508.074c0,1.194-2.154,2.161-4.812,2.161s-4.812-.967-4.812-2.161,2.154-2.16,4.813-2.16S1209.327,506.881,1209.327,508.074Z" transform="translate(-1199.703 -503.02)"/><path class="e" d="M1209.327,504.711c0,1.194-2.154,2.161-4.812,2.161s-4.812-.967-4.812-2.161,2.154-2.16,4.813-2.16S1209.327,503.518,1209.327,504.711Z" transform="translate(-1199.703 -502.551)"/></g></g><g transform="translate(16.072)"><rect class="d" width="9.624" height="2.894" transform="translate(0 2.161)"/><g transform="translate(0)"><path class="d" d="M1199.267,501.784c0,1.193-2.154,2.16-4.812,2.16s-4.812-.967-4.812-2.16,2.154-2.161,4.812-2.161S1199.267,500.59,1199.267,501.784Z" transform="translate(-1189.643 -496.729)"/><path class="e" d="M1199.267,498.421c0,1.193-2.154,2.16-4.812,2.16s-4.812-.967-4.812-2.16,2.154-2.161,4.812-2.161S1199.267,497.227,1199.267,498.421Z" transform="translate(-1189.643 -496.26)"/></g></g><g transform="translate(25.005 11.167)"><rect class="d" width="9.624" height="2.894" transform="translate(0 2.16)"/><g transform="translate(0)"><path class="d" d="M1188.888,514.759c0,1.194-2.154,2.161-4.812,2.161s-4.812-.967-4.812-2.161,2.154-2.161,4.813-2.161S1188.888,513.565,1188.888,514.759Z" transform="translate(-1179.264 -509.705)"/><path class="e" d="M1188.888,511.4c0,1.194-2.154,2.161-4.812,2.161s-4.812-.967-4.812-2.161,2.154-2.16,4.813-2.16S1188.888,510.2,1188.888,511.4Z" transform="translate(-1179.264 -509.236)"/></g></g><g transform="translate(33.345 6.127)"><rect class="d" width="9.624" height="2.894" transform="translate(0 2.161)"/><g transform="translate(0)"><path class="d" d="M1179.2,508.9c0,1.194-2.155,2.161-4.812,2.161s-4.812-.967-4.812-2.161,2.154-2.16,4.812-2.16S1179.2,507.71,1179.2,508.9Z" transform="translate(-1169.572 -503.849)"/><path class="e" d="M1179.2,505.541c0,1.193-2.155,2.16-4.812,2.16s-4.812-.967-4.812-2.16,2.154-2.161,4.812-2.161S1179.2,504.347,1179.2,505.541Z" transform="translate(-1169.572 -503.38)"/></g></g></g><g transform="translate(32.874 166.661)"><g transform="translate(0 0.428)"><path class="c" d="M1178.509,505.46l-16.955,10.053V494.5l16.955-10.033Z" transform="translate(-1128.596 -473.956)"/><path class="d" d="M1214.213,515.435l-32.958-10.508V483.911l32.958,10.512Z" transform="translate(-1181.255 -473.878)"/><path class="e" d="M1194.511,492.8l-32.958-10.512,16.956-10.033,32.957,10.512Z" transform="translate(-1161.553 -472.253)"/></g><g transform="translate(7.415 5.413)"><rect class="d" width="9.624" height="2.894" transform="translate(0 2.161)"/><g transform="translate(0)"><path class="d" d="M1209.376,483.57c0,1.193-2.154,2.16-4.812,2.16s-4.812-.967-4.812-2.16,2.154-2.161,4.812-2.161S1209.376,482.376,1209.376,483.57Z" transform="translate(-1199.752 -478.515)"/><path class="e" d="M1209.376,480.207c0,1.194-2.154,2.161-4.812,2.161s-4.812-.967-4.812-2.161,2.154-2.161,4.812-2.161S1209.376,479.013,1209.376,480.207Z" transform="translate(-1199.752 -478.046)"/></g></g><g transform="translate(16.072)"><rect class="d" width="9.624" height="2.894" transform="translate(0 2.16)"/><g transform="translate(0)"><path class="d" d="M1199.316,477.279c0,1.194-2.154,2.161-4.813,2.161s-4.812-.967-4.812-2.161,2.154-2.16,4.812-2.16S1199.316,476.086,1199.316,477.279Z" transform="translate(-1189.692 -472.225)"/><path class="e" d="M1199.316,473.916c0,1.194-2.154,2.161-4.813,2.161s-4.812-.967-4.812-2.161,2.154-2.16,4.812-2.16S1199.316,472.723,1199.316,473.916Z" transform="translate(-1189.692 -471.756)"/></g></g><g transform="translate(25.005 11.166)"><rect class="d" width="9.624" height="2.894" transform="translate(0 2.161)"/><g transform="translate(0)"><path class="d" d="M1188.937,490.255c0,1.193-2.154,2.16-4.812,2.16s-4.812-.967-4.812-2.16,2.154-2.161,4.812-2.161S1188.937,489.061,1188.937,490.255Z" transform="translate(-1179.313 -485.2)"/><path class="e" d="M1188.937,486.892c0,1.193-2.154,2.16-4.812,2.16s-4.812-.967-4.812-2.16,2.154-2.161,4.812-2.161S1188.937,485.7,1188.937,486.892Z" transform="translate(-1179.313 -484.731)"/></g></g><g transform="translate(33.345 6.127)"><rect class="d" width="9.624" height="2.894" transform="translate(0 2.16)"/><g transform="translate(0)"><path class="d" d="M1179.245,484.4c0,1.193-2.155,2.16-4.812,2.16s-4.812-.967-4.812-2.16,2.154-2.161,4.812-2.161S1179.245,483.205,1179.245,484.4Z" transform="translate(-1169.621 -479.345)"/><path class="e" d="M1179.245,481.036c0,1.194-2.155,2.161-4.812,2.161s-4.812-.967-4.812-2.161,2.154-2.16,4.812-2.16S1179.245,479.843,1179.245,481.036Z" transform="translate(-1169.621 -478.876)"/></g></g></g><g transform="translate(32.874 145.629)"><g transform="translate(0 0.428)"><path class="f" d="M1178.509,481.021l-16.955,10.053V470.062l16.955-10.033Z" transform="translate(-1128.596 -449.517)"/><path class="a" d="M1214.213,491l-32.958-10.508V459.472l32.958,10.512Z" transform="translate(-1181.255 -449.439)"/><path class="b" d="M1194.511,468.359l-32.958-10.512,16.956-10.033,32.957,10.512Z" transform="translate(-1161.553 -447.814)"/></g><g transform="translate(7.415 5.414)"><rect class="a" width="9.624" height="2.894" transform="translate(0 2.16)"/><g transform="translate(0)"><path class="a" d="M1209.376,459.131c0,1.193-2.154,2.16-4.812,2.16s-4.812-.967-4.812-2.16,2.154-2.161,4.812-2.161S1209.376,457.937,1209.376,459.131Z" transform="translate(-1199.752 -454.077)"/><path class="b" d="M1209.376,455.768c0,1.194-2.154,2.161-4.812,2.161s-4.812-.967-4.812-2.161,2.154-2.16,4.812-2.16S1209.376,454.575,1209.376,455.768Z" transform="translate(-1199.752 -453.608)"/></g></g><g transform="translate(16.072)"><rect class="a" width="9.624" height="2.894" transform="translate(0 2.161)"/><g transform="translate(0)"><path class="a" d="M1199.316,452.84c0,1.194-2.154,2.161-4.813,2.161s-4.812-.967-4.812-2.161,2.154-2.16,4.812-2.16S1199.316,451.647,1199.316,452.84Z" transform="translate(-1189.692 -447.786)"/><path class="b" d="M1199.316,449.477c0,1.194-2.154,2.161-4.813,2.161s-4.812-.967-4.812-2.161,2.154-2.16,4.812-2.16S1199.316,448.284,1199.316,449.477Z" transform="translate(-1189.692 -447.317)"/></g></g><g transform="translate(25.005 11.166)"><rect class="a" width="9.624" height="2.894" transform="translate(0 2.161)"/><g transform="translate(0)"><path class="a" d="M1188.937,465.816c0,1.193-2.154,2.16-4.812,2.16s-4.812-.967-4.812-2.16,2.154-2.161,4.812-2.161S1188.937,464.622,1188.937,465.816Z" transform="translate(-1179.313 -460.761)"/><path class="b" d="M1188.937,462.453c0,1.193-2.154,2.16-4.812,2.16s-4.812-.967-4.812-2.16,2.154-2.161,4.812-2.161S1188.937,461.259,1188.937,462.453Z" transform="translate(-1179.313 -460.292)"/></g></g><g transform="translate(33.345 6.127)"><rect class="a" width="9.624" height="2.894" transform="translate(0 2.16)"/><g transform="translate(0)"><path class="a" d="M1179.245,459.96c0,1.194-2.155,2.161-4.812,2.161s-4.812-.967-4.812-2.161,2.154-2.161,4.812-2.161S1179.245,458.766,1179.245,459.96Z" transform="translate(-1169.621 -454.906)"/><path class="b" d="M1179.245,456.6c0,1.194-2.155,2.161-4.812,2.161s-4.812-.967-4.812-2.161,2.154-2.16,4.812-2.16S1179.245,455.4,1179.245,456.6Z" transform="translate(-1169.621 -454.437)"/></g></g></g><g transform="translate(32.964 124.637)"><g transform="translate(0 0.428)"><path class="g" d="M1178.4,456.628l-16.955,10.053V445.669l16.955-10.033Z" transform="translate(-1128.49 -425.124)"/><path class="h" d="M1214.107,466.6,1181.15,456.1V435.079l32.958,10.512Z" transform="translate(-1181.15 -425.046)"/><path class="i" d="M1194.406,443.966l-32.958-10.512,16.956-10.033,32.957,10.512Z" transform="translate(-1161.448 -423.421)"/></g><g transform="translate(7.415 5.413)"><rect class="h" width="9.624" height="2.894" transform="translate(0 2.161)"/><g transform="translate(0)"><path class="h" d="M1209.271,434.738c0,1.193-2.154,2.16-4.812,2.16s-4.812-.967-4.812-2.16,2.155-2.161,4.812-2.161S1209.271,433.544,1209.271,434.738Z" transform="translate(-1199.647 -429.683)"/><path class="i" d="M1209.271,431.375c0,1.194-2.154,2.161-4.812,2.161s-4.812-.967-4.812-2.161,2.155-2.161,4.812-2.161S1209.271,430.181,1209.271,431.375Z" transform="translate(-1199.647 -429.214)"/></g></g><g transform="translate(16.073)"><rect class="h" width="9.624" height="2.894" transform="translate(0 2.16)"/><g transform="translate(0)"><path class="h" d="M1199.211,428.447c0,1.194-2.154,2.161-4.812,2.161s-4.812-.967-4.812-2.161,2.154-2.16,4.813-2.16S1199.211,427.254,1199.211,428.447Z" transform="translate(-1189.587 -423.393)"/><path class="i" d="M1199.211,425.084c0,1.194-2.154,2.161-4.812,2.161s-4.812-.967-4.812-2.161,2.154-2.16,4.813-2.16S1199.211,423.891,1199.211,425.084Z" transform="translate(-1189.587 -422.924)"/></g></g><g transform="translate(25.005 11.166)"><rect class="h" width="9.624" height="2.894" transform="translate(0 2.161)"/><g transform="translate(0)"><path class="h" d="M1188.832,441.423c0,1.193-2.155,2.16-4.812,2.16s-4.812-.967-4.812-2.16,2.155-2.161,4.813-2.161S1188.832,440.229,1188.832,441.423Z" transform="translate(-1179.207 -436.368)"/><path class="i" d="M1188.832,438.06c0,1.193-2.155,2.16-4.812,2.16s-4.812-.967-4.812-2.16,2.155-2.161,4.813-2.161S1188.832,436.866,1188.832,438.06Z" transform="translate(-1179.207 -435.899)"/></g></g><g transform="translate(33.345 6.127)"><rect class="h" width="9.624" height="2.894" transform="translate(0 2.16)"/><g transform="translate(0)"><path class="h" d="M1179.14,435.567c0,1.193-2.154,2.16-4.812,2.16s-4.812-.967-4.812-2.16,2.154-2.161,4.812-2.161S1179.14,434.373,1179.14,435.567Z" transform="translate(-1169.516 -430.513)"/><path class="i" d="M1179.14,432.2c0,1.194-2.154,2.161-4.812,2.161s-4.812-.967-4.812-2.161,2.154-2.16,4.812-2.16S1179.14,431.011,1179.14,432.2Z" transform="translate(-1169.516 -430.044)"/></g></g></g><g transform="translate(15.332 98.169)"><g transform="translate(0 0.428)"><path class="j" d="M1198.892,425.873l-16.955,10.052V414.913l16.955-10.033Z" transform="translate(-1148.979 -394.368)"/><path class="k" d="M1234.6,435.848l-32.958-10.508V404.323l32.958,10.512Z" transform="translate(-1201.638 -394.29)"/><path class="l" d="M1214.894,413.21,1181.936,402.7l16.956-10.033,32.957,10.512Z" transform="translate(-1181.936 -392.665)"/></g><g transform="translate(7.415 5.414)"><rect class="k" width="9.624" height="2.894" transform="translate(0 2.16)"/><g transform="translate(0)"><path class="k" d="M1229.759,403.982c0,1.193-2.154,2.161-4.812,2.161s-4.812-.968-4.812-2.161,2.154-2.161,4.813-2.161S1229.759,402.788,1229.759,403.982Z" transform="translate(-1220.135 -398.928)"/><path class="l" d="M1229.759,400.619c0,1.194-2.154,2.161-4.812,2.161s-4.812-.967-4.812-2.161,2.154-2.16,4.813-2.16S1229.759,399.426,1229.759,400.619Z" transform="translate(-1220.135 -398.459)"/></g></g><g transform="translate(16.073)"><rect class="k" width="9.624" height="2.894" transform="translate(0 2.161)"/><g transform="translate(0)"><path class="k" d="M1219.7,397.691c0,1.194-2.154,2.161-4.812,2.161s-4.812-.967-4.812-2.161,2.154-2.16,4.812-2.16S1219.7,396.5,1219.7,397.691Z" transform="translate(-1210.075 -392.637)"/><path class="l" d="M1219.7,394.329c0,1.193-2.154,2.16-4.812,2.16s-4.812-.967-4.812-2.16,2.154-2.161,4.812-2.161S1219.7,393.135,1219.7,394.329Z" transform="translate(-1210.075 -392.168)"/></g></g><g transform="translate(25.005 11.166)"><rect class="k" width="9.624" height="2.894" transform="translate(0 2.161)"/><g transform="translate(0)"><path class="k" d="M1209.32,410.667c0,1.193-2.154,2.16-4.812,2.16s-4.812-.967-4.812-2.16,2.155-2.161,4.813-2.161S1209.32,409.473,1209.32,410.667Z" transform="translate(-1199.696 -405.612)"/><path class="l" d="M1209.32,407.3c0,1.194-2.154,2.161-4.812,2.161s-4.812-.967-4.812-2.161,2.155-2.161,4.813-2.161S1209.32,406.11,1209.32,407.3Z" transform="translate(-1199.696 -405.143)"/></g></g><g transform="translate(33.345 6.127)"><rect class="k" width="9.624" height="2.894" transform="translate(0 2.16)"/><g transform="translate(0)"><path class="k" d="M1199.628,404.811c0,1.194-2.154,2.161-4.812,2.161S1190,406,1190,404.811s2.154-2.16,4.812-2.16S1199.628,403.618,1199.628,404.811Z" transform="translate(-1190.004 -399.757)"/><path class="l" d="M1199.628,401.448c0,1.194-2.154,2.161-4.812,2.161s-4.812-.967-4.812-2.161,2.154-2.16,4.812-2.16S1199.628,400.255,1199.628,401.448Z" transform="translate(-1190.004 -399.288)"/></g></g></g><g transform="translate(15.423 77.176)"><g transform="translate(0 0.428)"><path class="c" d="M1198.786,401.48l-16.955,10.052V390.52l16.955-10.033Z" transform="translate(-1148.873 -369.975)"/><path class="d" d="M1234.49,411.454l-32.958-10.508V379.93l32.958,10.512Z" transform="translate(-1201.533 -369.897)"/><path class="e" d="M1214.788,388.817,1181.831,378.3l16.956-10.033,32.957,10.512Z" transform="translate(-1181.831 -368.272)"/></g><g transform="translate(7.415 5.414)"><rect class="d" width="9.624" height="2.894" transform="translate(0 2.16)"/><g transform="translate(0)"><path class="d" d="M1229.654,379.589c0,1.193-2.154,2.16-4.812,2.16s-4.812-.967-4.812-2.16,2.155-2.161,4.813-2.161S1229.654,378.4,1229.654,379.589Z" transform="translate(-1220.03 -374.535)"/><path class="e" d="M1229.654,376.226c0,1.194-2.154,2.161-4.812,2.161s-4.812-.967-4.812-2.161,2.155-2.16,4.813-2.16S1229.654,375.033,1229.654,376.226Z" transform="translate(-1220.03 -374.066)"/></g></g><g transform="translate(16.073)"><rect class="d" width="9.624" height="2.894" transform="translate(0 2.161)"/><g transform="translate(0)"><path class="d" d="M1219.594,373.3c0,1.194-2.154,2.161-4.812,2.161s-4.812-.967-4.812-2.161,2.155-2.16,4.812-2.16S1219.594,372.105,1219.594,373.3Z" transform="translate(-1209.97 -368.244)"/><path class="e" d="M1219.594,369.936c0,1.193-2.154,2.16-4.812,2.16s-4.812-.967-4.812-2.16,2.155-2.161,4.812-2.161S1219.594,368.742,1219.594,369.936Z" transform="translate(-1209.97 -367.775)"/></g></g><g transform="translate(25.005 11.166)"><rect class="d" width="9.624" height="2.894" transform="translate(0 2.161)"/><g transform="translate(0)"><path class="d" d="M1209.215,386.274c0,1.193-2.155,2.16-4.812,2.16s-4.812-.967-4.812-2.16,2.155-2.161,4.813-2.161S1209.215,385.08,1209.215,386.274Z" transform="translate(-1199.59 -381.219)"/><path class="e" d="M1209.215,382.911c0,1.194-2.155,2.161-4.812,2.161s-4.812-.967-4.812-2.161,2.155-2.161,4.813-2.161S1209.215,381.717,1209.215,382.911Z" transform="translate(-1199.59 -380.75)"/></g></g><g transform="translate(33.345 6.127)"><rect class="d" width="9.624" height="2.894" transform="translate(0 2.16)"/><g transform="translate(0)"><path class="d" d="M1199.523,380.418c0,1.194-2.154,2.161-4.812,2.161s-4.812-.967-4.812-2.161,2.154-2.16,4.813-2.16S1199.523,379.225,1199.523,380.418Z" transform="translate(-1189.899 -375.364)"/><path class="e" d="M1199.523,377.055c0,1.194-2.154,2.161-4.812,2.161s-4.812-.967-4.812-2.161,2.154-2.16,4.813-2.16S1199.523,375.862,1199.523,377.055Z" transform="translate(-1189.899 -374.895)"/></g></g></g><g transform="translate(15.471 56.239)"><g transform="translate(0 0.428)"><path class="m" d="M1198.73,377.151,1181.775,387.2V366.191l16.955-10.033Z" transform="translate(-1148.817 -345.646)"/><path class="n" d="M1234.434,387.125l-32.958-10.508V355.6l32.958,10.512Z" transform="translate(-1201.476 -345.568)"/><path class="o" d="M1214.732,364.488l-32.958-10.512,16.956-10.033,32.957,10.512Z" transform="translate(-1181.775 -343.943)"/></g><g transform="translate(7.415 5.414)"><rect class="p" width="9.624" height="2.894" transform="translate(0 2.16)"/><g transform="translate(0)"><path class="p" d="M1229.6,355.26c0,1.193-2.155,2.16-4.812,2.16s-4.812-.967-4.812-2.16,2.155-2.161,4.813-2.161S1229.6,354.066,1229.6,355.26Z" transform="translate(-1219.973 -350.206)"/><path class="o" d="M1229.6,351.9c0,1.194-2.155,2.161-4.812,2.161s-4.812-.967-4.812-2.161,2.155-2.16,4.813-2.16S1229.6,350.7,1229.6,351.9Z" transform="translate(-1219.973 -349.737)"/></g></g><g transform="translate(16.072)"><rect class="p" width="9.624" height="2.894" transform="translate(0 2.161)"/><g transform="translate(0)"><path class="p" d="M1219.538,348.969c0,1.194-2.155,2.161-4.812,2.161s-4.812-.967-4.812-2.161,2.155-2.16,4.813-2.16S1219.538,347.776,1219.538,348.969Z" transform="translate(-1209.913 -343.915)"/><path class="o" d="M1219.538,345.607c0,1.193-2.155,2.16-4.812,2.16s-4.812-.967-4.812-2.16,2.155-2.161,4.813-2.161S1219.538,344.413,1219.538,345.607Z" transform="translate(-1209.913 -343.446)"/></g></g><g transform="translate(25.005 11.166)"><rect class="p" width="9.624" height="2.894" transform="translate(0 2.161)"/><g transform="translate(0)"><path class="p" d="M1209.158,361.945c0,1.193-2.155,2.16-4.812,2.16s-4.812-.967-4.812-2.16,2.154-2.161,4.812-2.161S1209.158,360.751,1209.158,361.945Z" transform="translate(-1199.534 -356.89)"/><path class="o" d="M1209.158,358.582c0,1.193-2.155,2.16-4.812,2.16s-4.812-.967-4.812-2.16,2.154-2.161,4.812-2.161S1209.158,357.388,1209.158,358.582Z" transform="translate(-1199.534 -356.421)"/></g></g><g transform="translate(33.345 6.127)"><rect class="p" width="9.624" height="2.894" transform="translate(0 2.16)"/><g transform="translate(0)"><path class="p" d="M1199.467,356.089c0,1.194-2.155,2.161-4.812,2.161s-4.812-.967-4.812-2.161,2.155-2.161,4.813-2.161S1199.467,354.9,1199.467,356.089Z" transform="translate(-1189.842 -351.035)"/><path class="o" d="M1199.467,352.726c0,1.194-2.155,2.161-4.812,2.161s-4.812-.967-4.812-2.161,2.155-2.16,4.813-2.16S1199.467,351.533,1199.467,352.726Z" transform="translate(-1189.842 -350.566)"/></g></g></g><g transform="translate(0.187 30.464)"><g transform="translate(0 0.428)"><path class="g" d="M1216.489,347.2l-16.955,10.053V336.241l16.955-10.033Z" transform="translate(-1166.577 -315.696)"/><path class="h" d="M1252.193,357.175l-32.958-10.508V325.651l32.958,10.512Z" transform="translate(-1219.236 -315.618)"/><path class="i" d="M1232.492,334.538l-32.958-10.512,16.956-10.033,32.957,10.512Z" transform="translate(-1199.534 -313.993)"/></g><g transform="translate(7.415 5.413)"><rect class="h" width="9.624" height="2.894" transform="translate(0 2.161)"/><g transform="translate(0)"><path class="h" d="M1247.357,325.31c0,1.193-2.154,2.16-4.812,2.16s-4.812-.967-4.812-2.16,2.154-2.161,4.812-2.161S1247.357,324.116,1247.357,325.31Z" transform="translate(-1237.733 -320.255)"/><path class="i" d="M1247.357,321.947c0,1.193-2.154,2.16-4.812,2.16s-4.812-.967-4.812-2.16,2.154-2.161,4.812-2.161S1247.357,320.753,1247.357,321.947Z" transform="translate(-1237.733 -319.786)"/></g></g><g transform="translate(16.073)"><rect class="h" width="9.624" height="2.894" transform="translate(0 2.16)"/><g transform="translate(0)"><path class="h" d="M1237.3,319.019c0,1.194-2.154,2.161-4.812,2.161s-4.812-.967-4.812-2.161,2.154-2.16,4.812-2.16S1237.3,317.826,1237.3,319.019Z" transform="translate(-1227.673 -313.965)"/><path class="i" d="M1237.3,315.656c0,1.194-2.154,2.161-4.812,2.161s-4.812-.967-4.812-2.161,2.154-2.16,4.812-2.16S1237.3,314.463,1237.3,315.656Z" transform="translate(-1227.673 -313.496)"/></g></g><g transform="translate(25.005 11.166)"><rect class="h" width="9.624" height="2.894" transform="translate(0 2.161)"/><g transform="translate(0)"><path class="h" d="M1226.918,331.994c0,1.194-2.154,2.161-4.812,2.161s-4.812-.967-4.812-2.161,2.155-2.16,4.812-2.16S1226.918,330.8,1226.918,331.994Z" transform="translate(-1217.294 -326.94)"/><path class="i" d="M1226.918,328.632c0,1.193-2.154,2.16-4.812,2.16s-4.812-.967-4.812-2.16,2.155-2.161,4.812-2.161S1226.918,327.438,1226.918,328.632Z" transform="translate(-1217.294 -326.471)"/></g></g><g transform="translate(33.345 6.127)"><rect class="h" width="9.624" height="2.894" transform="translate(0 2.16)"/><g transform="translate(0)"><path class="h" d="M1217.226,326.139c0,1.193-2.154,2.16-4.812,2.16s-4.812-.967-4.812-2.16,2.154-2.161,4.812-2.161S1217.226,324.945,1217.226,326.139Z" transform="translate(-1207.602 -321.085)"/><path class="i" d="M1217.226,322.776c0,1.194-2.154,2.161-4.812,2.161s-4.812-.967-4.812-2.161,2.154-2.16,4.812-2.16S1217.226,321.583,1217.226,322.776Z" transform="translate(-1207.602 -320.616)"/></g></g></g><g transform="translate(17.227 14.885)"><g transform="translate(0 0.428)"><path class="k" d="M1196.69,329.1l-16.955,10.053V318.138l16.955-10.033Z" transform="translate(-1146.777 -297.593)"/><path class="k" d="M1232.394,339.073l-32.957-10.508V307.548l32.957,10.512Z" transform="translate(-1199.437 -297.516)"/><path class="l" d="M1212.692,316.435l-32.957-10.512,16.956-10.033,32.957,10.512Z" transform="translate(-1179.734 -295.89)"/></g><g transform="translate(7.415 5.414)"><rect class="k" width="9.624" height="2.894" transform="translate(0 2.16)"/><g transform="translate(0)"><path class="k" d="M1227.558,307.207c0,1.194-2.155,2.161-4.812,2.161s-4.812-.967-4.812-2.161,2.155-2.16,4.812-2.16S1227.558,306.014,1227.558,307.207Z" transform="translate(-1217.933 -302.153)"/><path class="l" d="M1227.558,303.844c0,1.194-2.155,2.161-4.812,2.161s-4.812-.967-4.812-2.161,2.155-2.16,4.812-2.16S1227.558,302.651,1227.558,303.844Z" transform="translate(-1217.933 -301.684)"/></g></g><g transform="translate(16.072)"><rect class="k" width="9.624" height="2.894" transform="translate(0 2.161)"/><g transform="translate(0)"><ellipse class="k" cx="4.812" cy="2.161" rx="4.812" ry="2.161" transform="translate(0 2.894)"/><path class="l" d="M1217.5,297.554c0,1.193-2.155,2.16-4.812,2.16s-4.812-.967-4.812-2.16,2.155-2.161,4.813-2.161S1217.5,296.36,1217.5,297.554Z" transform="translate(-1207.873 -295.393)"/></g></g><g transform="translate(25.005 11.167)"><rect class="k" width="9.624" height="2.894" transform="translate(0 2.16)"/><g transform="translate(0)"><path class="k" d="M1207.118,313.892c0,1.194-2.155,2.161-4.812,2.161s-4.812-.967-4.812-2.161,2.154-2.161,4.812-2.161S1207.118,312.7,1207.118,313.892Z" transform="translate(-1197.494 -308.838)"/><path class="l" d="M1207.118,310.529c0,1.194-2.155,2.161-4.812,2.161s-4.812-.967-4.812-2.161,2.154-2.16,4.812-2.16S1207.118,309.336,1207.118,310.529Z" transform="translate(-1197.494 -308.369)"/></g></g><g transform="translate(33.345 6.127)"><rect class="k" width="9.624" height="2.894" transform="translate(0 2.161)"/><g transform="translate(0)"><path class="k" d="M1197.427,308.036c0,1.194-2.155,2.161-4.812,2.161s-4.812-.967-4.812-2.161,2.155-2.16,4.813-2.16S1197.427,306.843,1197.427,308.036Z" transform="translate(-1187.802 -302.982)"/><path class="l" d="M1197.427,304.674c0,1.193-2.155,2.16-4.812,2.16s-4.812-.967-4.812-2.16,2.155-2.161,4.813-2.161S1197.427,303.48,1197.427,304.674Z" transform="translate(-1187.802 -302.513)"/></g></g></g><g transform="translate(50.1 25.42)"><g transform="translate(0 0.428)"><path class="c" d="M1158.491,341.34l-16.955,10.052V330.38l16.955-10.033Z" transform="translate(-1108.578 -309.835)"/><path class="d" d="M1194.2,351.315l-32.958-10.508V319.79L1194.2,330.3Z" transform="translate(-1161.238 -309.758)"/><path class="e" d="M1174.493,328.677l-32.958-10.512,16.956-10.033,32.957,10.512Z" transform="translate(-1141.536 -308.132)"/></g><g transform="translate(7.415 5.414)"><rect class="d" width="9.624" height="2.894" transform="translate(0 2.16)"/><g transform="translate(0)"><path class="d" d="M1189.359,319.449c0,1.194-2.154,2.161-4.812,2.161s-4.812-.967-4.812-2.161,2.155-2.16,4.812-2.16S1189.359,318.256,1189.359,319.449Z" transform="translate(-1179.735 -314.395)"/><path class="e" d="M1189.359,316.086c0,1.194-2.154,2.161-4.812,2.161s-4.812-.967-4.812-2.161,2.155-2.16,4.812-2.16S1189.359,314.893,1189.359,316.086Z" transform="translate(-1179.735 -313.926)"/></g></g><g transform="translate(16.072)"><rect class="d" width="9.624" height="2.894" transform="translate(0 2.161)"/><g transform="translate(0)"><path class="d" d="M1179.3,313.159c0,1.193-2.154,2.16-4.812,2.16s-4.812-.967-4.812-2.16,2.154-2.161,4.813-2.161S1179.3,311.965,1179.3,313.159Z" transform="translate(-1169.675 -308.104)"/><path class="e" d="M1179.3,309.8c0,1.193-2.154,2.16-4.812,2.16s-4.812-.967-4.812-2.16,2.154-2.161,4.813-2.161S1179.3,308.6,1179.3,309.8Z" transform="translate(-1169.675 -307.635)"/></g></g><g transform="translate(25.005 11.167)"><rect class="d" width="9.624" height="2.894" transform="translate(0 2.16)"/><g transform="translate(0)"><path class="d" d="M1168.92,326.134c0,1.193-2.155,2.16-4.812,2.16s-4.812-.967-4.812-2.16,2.155-2.161,4.813-2.161S1168.92,324.94,1168.92,326.134Z" transform="translate(-1159.295 -321.08)"/><path class="e" d="M1168.92,322.771c0,1.194-2.155,2.161-4.812,2.161s-4.812-.967-4.812-2.161,2.155-2.16,4.813-2.16S1168.92,321.578,1168.92,322.771Z" transform="translate(-1159.295 -320.611)"/></g></g><g transform="translate(33.345 6.127)"><rect class="d" width="9.624" height="2.894" transform="translate(0 2.161)"/><g transform="translate(0)"><path class="d" d="M1159.228,320.278c0,1.194-2.154,2.161-4.812,2.161s-4.812-.967-4.812-2.161,2.154-2.16,4.813-2.16S1159.228,319.085,1159.228,320.278Z" transform="translate(-1149.604 -315.224)"/><path class="e" d="M1159.228,316.916c0,1.193-2.154,2.16-4.812,2.16s-4.812-.967-4.812-2.16,2.154-2.161,4.813-2.161S1159.228,315.722,1159.228,316.916Z" transform="translate(-1149.604 -314.755)"/></g></g></g><g transform="translate(35.98)"><g transform="translate(0 0.428)"><path class="f" d="M1174.9,311.8l-16.955,10.053V300.842l16.955-10.033Z" transform="translate(-1124.986 -280.297)"/><path class="a" d="M1210.6,321.776l-32.957-10.508V290.252l32.957,10.512Z" transform="translate(-1177.645 -280.219)"/><path class="b" d="M1190.9,299.139l-32.958-10.512,16.956-10.033,32.957,10.512Z" transform="translate(-1157.943 -278.594)"/></g><g transform="translate(7.415 5.414)"><rect class="a" width="9.624" height="2.894" transform="translate(0 2.16)"/><g transform="translate(0)"><path class="a" d="M1205.766,289.911c0,1.193-2.154,2.16-4.812,2.16s-4.812-.967-4.812-2.16,2.154-2.161,4.812-2.161S1205.766,288.717,1205.766,289.911Z" transform="translate(-1196.142 -284.857)"/><path class="b" d="M1205.766,286.548c0,1.194-2.154,2.161-4.812,2.161s-4.812-.967-4.812-2.161,2.154-2.16,4.812-2.16S1205.766,285.355,1205.766,286.548Z" transform="translate(-1196.142 -284.388)"/></g></g><g transform="translate(16.073)"><rect class="a" width="9.624" height="2.894" transform="translate(0 2.161)"/><g transform="translate(0)"><path class="a" d="M1195.706,283.62c0,1.194-2.154,2.161-4.812,2.161s-4.812-.967-4.812-2.161,2.154-2.16,4.813-2.16S1195.706,282.427,1195.706,283.62Z" transform="translate(-1186.082 -278.566)"/><path class="b" d="M1195.706,280.257c0,1.194-2.154,2.161-4.812,2.161s-4.812-.967-4.812-2.161,2.154-2.16,4.813-2.16S1195.706,279.064,1195.706,280.257Z" transform="translate(-1186.082 -278.097)"/></g></g><g transform="translate(25.005 11.166)"><rect class="a" width="9.624" height="2.894" transform="translate(0 2.161)"/><g transform="translate(0)"><path class="a" d="M1185.327,296.6c0,1.193-2.154,2.16-4.812,2.16s-4.812-.967-4.812-2.16,2.155-2.161,4.813-2.161S1185.327,295.4,1185.327,296.6Z" transform="translate(-1175.703 -291.541)"/><path class="b" d="M1185.327,293.233c0,1.193-2.154,2.16-4.812,2.16s-4.812-.967-4.812-2.16,2.155-2.161,4.813-2.161S1185.327,292.039,1185.327,293.233Z" transform="translate(-1175.703 -291.072)"/></g></g><g transform="translate(33.345 6.127)"><rect class="a" width="9.624" height="2.894" transform="translate(0 2.16)"/><g transform="translate(0)"><path class="a" d="M1175.635,290.74c0,1.193-2.154,2.161-4.812,2.161s-4.812-.968-4.812-2.161,2.154-2.161,4.812-2.161S1175.635,289.546,1175.635,290.74Z" transform="translate(-1166.011 -285.686)"/><path class="b" d="M1175.635,287.377c0,1.194-2.154,2.161-4.812,2.161s-4.812-.967-4.812-2.161,2.154-2.16,4.812-2.16S1175.635,286.184,1175.635,287.377Z" transform="translate(-1166.011 -285.217)"/></g></g></g></g><g transform="translate(287.374 160.221)"><g transform="translate(0 0.468)"><path class="a" d="M902.261,440.528l18.556,11v-23l-18.556-10.98Z" transform="translate(-902.261 -406.048)"/><path class="f" d="M860.349,451.445l36.07-11.5v-23l-36.07,11.5Z" transform="translate(-841.792 -405.963)"/><path class="b" d="M878.905,426.669l36.07-11.5-18.557-10.98-36.069,11.5Z" transform="translate(-860.349 -404.185)"/></g><g transform="translate(35.978 5.924)"><rect class="a" width="10.533" height="3.167" transform="translate(0 2.365)"/><g transform="translate(0)"><path class="a" d="M869.779,416.57c0,1.306,2.358,2.365,5.267,2.365s5.266-1.059,5.266-2.365-2.358-2.365-5.266-2.365S869.779,415.264,869.779,416.57Z" transform="translate(-869.779 -411.038)"/><path class="b" d="M869.779,412.89c0,1.306,2.358,2.364,5.267,2.364s5.266-1.059,5.266-2.364-2.358-2.365-5.266-2.365S869.779,411.584,869.779,412.89Z" transform="translate(-869.779 -410.525)"/></g></g><g transform="translate(26.503)"><rect class="a" width="10.533" height="3.167" transform="translate(0 2.364)"/><g transform="translate(0)"><path class="a" d="M880.789,409.685c0,1.306,2.358,2.365,5.267,2.365s5.266-1.059,5.266-2.365-2.357-2.364-5.266-2.364S880.789,408.38,880.789,409.685Z" transform="translate(-880.789 -404.154)"/><path class="b" d="M880.789,406.005c0,1.306,2.358,2.365,5.267,2.365s5.266-1.059,5.266-2.365-2.357-2.364-5.266-2.364S880.789,404.7,880.789,406.005Z" transform="translate(-880.789 -403.641)"/></g></g><g transform="translate(16.727 12.22)"><rect class="a" width="10.533" height="3.167" transform="translate(0 2.365)"/><g transform="translate(0)"><path class="a" d="M892.148,423.886c0,1.306,2.358,2.365,5.266,2.365s5.267-1.059,5.267-2.365-2.358-2.365-5.267-2.365S892.148,422.58,892.148,423.886Z" transform="translate(-892.148 -418.354)"/><path class="b" d="M892.148,420.206c0,1.306,2.358,2.364,5.266,2.364s5.267-1.059,5.267-2.364-2.358-2.365-5.267-2.365S892.148,418.9,892.148,420.206Z" transform="translate(-892.148 -417.841)"/></g></g><g transform="translate(7.599 6.706)"><rect class="a" width="10.533" height="3.167" transform="translate(0 2.364)"/><g transform="translate(0)"><path class="a" d="M902.755,417.477c0,1.306,2.358,2.365,5.267,2.365s5.266-1.059,5.266-2.365-2.358-2.364-5.266-2.364S902.755,416.172,902.755,417.477Z" transform="translate(-902.755 -411.946)"/><path class="b" d="M902.755,413.8c0,1.306,2.358,2.365,5.267,2.365s5.266-1.059,5.266-2.365-2.358-2.364-5.266-2.364S902.755,412.492,902.755,413.8Z" transform="translate(-902.755 -411.433)"/></g></g></g><g transform="translate(251.305 171.738)"><g transform="translate(0 0.469)"><path class="n" d="M944.174,453.912l18.556,11v-23l-18.556-10.98Z" transform="translate(-944.174 -419.432)"/><path class="m" d="M902.261,464.829l36.07-11.5v-23l-36.07,11.5Z" transform="translate(-883.705 -419.347)"/><path class="o" d="M920.818,440.053l36.07-11.5-18.557-10.98-36.069,11.5Z" transform="translate(-902.261 -417.569)"/></g><g transform="translate(35.977 5.925)"><rect class="p" width="10.533" height="3.167" transform="translate(0 2.365)"/><g transform="translate(0)"><path class="p" d="M911.691,429.954c0,1.306,2.358,2.365,5.267,2.365s5.267-1.059,5.267-2.365-2.358-2.365-5.267-2.365S911.691,428.648,911.691,429.954Z" transform="translate(-911.691 -424.422)"/><path class="o" d="M911.691,426.274c0,1.306,2.358,2.364,5.267,2.364s5.267-1.059,5.267-2.364-2.358-2.365-5.267-2.365S911.691,424.968,911.691,426.274Z" transform="translate(-911.691 -423.909)"/></g></g><g transform="translate(26.503)"><rect class="p" width="10.533" height="3.167" transform="translate(0 2.365)"/><g transform="translate(0)"><path class="p" d="M922.7,423.069c0,1.306,2.357,2.365,5.266,2.365s5.267-1.059,5.267-2.365-2.358-2.364-5.267-2.364S922.7,421.764,922.7,423.069Z" transform="translate(-922.701 -417.537)"/><path class="o" d="M922.7,419.389c0,1.306,2.357,2.365,5.266,2.365s5.267-1.059,5.267-2.365-2.358-2.365-5.267-2.365S922.7,418.083,922.7,419.389Z" transform="translate(-922.701 -417.024)"/></g></g><g transform="translate(16.727 12.221)"><rect class="p" width="10.533" height="3.167" transform="translate(0 2.365)"/><g transform="translate(0)"><path class="p" d="M934.06,437.27c0,1.306,2.358,2.365,5.267,2.365s5.267-1.059,5.267-2.365-2.358-2.365-5.267-2.365S934.06,435.964,934.06,437.27Z" transform="translate(-934.06 -431.738)"/><path class="o" d="M934.06,433.59c0,1.306,2.358,2.364,5.267,2.364s5.267-1.059,5.267-2.364-2.358-2.365-5.267-2.365S934.06,432.284,934.06,433.59Z" transform="translate(-934.06 -431.225)"/></g></g><g transform="translate(7.599 6.707)"><rect class="p" width="10.533" height="3.167" transform="translate(0 2.364)"/><g transform="translate(0)"><path class="p" d="M944.667,430.861c0,1.306,2.358,2.365,5.267,2.365s5.267-1.059,5.267-2.365-2.358-2.364-5.267-2.364S944.667,429.556,944.667,430.861Z" transform="translate(-944.667 -425.33)"/><path class="o" d="M944.667,427.181c0,1.306,2.358,2.365,5.267,2.365s5.267-1.059,5.267-2.365-2.358-2.364-5.267-2.364S944.667,425.876,944.667,427.181Z" transform="translate(-944.667 -424.817)"/></g></g></g><g transform="translate(269.716 142.799)"><g transform="translate(0 0.468)"><path class="n" d="M922.78,420.284l18.556,11v-23L922.78,397.31Z" transform="translate(-922.78 -385.805)"/><path class="m" d="M880.868,431.2l36.07-11.5v-23l-36.07,11.5Z" transform="translate(-862.312 -385.72)"/><path class="o" d="M899.424,406.426l36.07-11.5-18.557-10.98-36.069,11.5Z" transform="translate(-880.868 -383.941)"/></g><g transform="translate(35.978 5.925)"><rect class="p" width="10.533" height="3.167" transform="translate(0 2.364)"/><g transform="translate(0)"><path class="p" d="M890.3,396.327c0,1.306,2.358,2.364,5.267,2.364s5.266-1.059,5.266-2.364-2.358-2.365-5.266-2.365S890.3,395.021,890.3,396.327Z" transform="translate(-890.298 -390.795)"/><path class="o" d="M890.3,392.646c0,1.306,2.358,2.365,5.267,2.365s5.266-1.059,5.266-2.365-2.358-2.364-5.266-2.364S890.3,391.341,890.3,392.646Z" transform="translate(-890.298 -390.282)"/></g></g><g transform="translate(26.503)"><rect class="p" width="10.533" height="3.167" transform="translate(0 2.365)"/><g transform="translate(0)"><path class="p" d="M901.308,389.442c0,1.306,2.358,2.365,5.267,2.365s5.266-1.059,5.266-2.365-2.358-2.365-5.266-2.365S901.308,388.136,901.308,389.442Z" transform="translate(-901.308 -383.91)"/><path class="o" d="M901.308,385.762c0,1.306,2.358,2.364,5.267,2.364s5.266-1.059,5.266-2.364-2.358-2.365-5.266-2.365S901.308,384.456,901.308,385.762Z" transform="translate(-901.308 -383.397)"/></g></g><g transform="translate(16.727 12.221)"><rect class="p" width="10.533" height="3.167" transform="translate(0 2.364)"/><g transform="translate(0)"><path class="p" d="M912.667,403.643c0,1.306,2.358,2.364,5.266,2.364s5.267-1.059,5.267-2.364-2.358-2.365-5.267-2.365S912.667,402.337,912.667,403.643Z" transform="translate(-912.667 -398.111)"/><path class="o" d="M912.667,399.962c0,1.306,2.358,2.365,5.266,2.365s5.267-1.059,5.267-2.365-2.358-2.364-5.267-2.364S912.667,398.657,912.667,399.962Z" transform="translate(-912.667 -397.598)"/></g></g><g transform="translate(7.599 6.706)"><rect class="p" width="10.533" height="3.167" transform="translate(0 2.365)"/><g transform="translate(0)"><path class="p" d="M923.274,397.234c0,1.306,2.358,2.365,5.267,2.365s5.266-1.059,5.266-2.365-2.358-2.365-5.266-2.365S923.274,395.928,923.274,397.234Z" transform="translate(-923.274 -391.702)"/><path class="o" d="M923.274,393.554c0,1.306,2.358,2.364,5.267,2.364s5.266-1.059,5.266-2.364-2.358-2.365-5.266-2.365S923.274,392.248,923.274,393.554Z" transform="translate(-923.274 -391.189)"/></g></g></g><g transform="translate(269.716 120.182)"><g transform="translate(0 0.468)"><path class="d" d="M922.78,394l18.556,11v-23l-18.556-10.98Z" transform="translate(-922.78 -359.524)"/><path class="c" d="M880.868,404.921l36.07-11.5v-23l-36.07,11.5Z" transform="translate(-862.312 -359.439)"/><path class="e" d="M899.424,380.145l36.07-11.5-18.557-10.98-36.069,11.5Z" transform="translate(-880.868 -357.661)"/></g><g transform="translate(35.978 5.924)"><rect class="d" width="10.533" height="3.167" transform="translate(0 2.365)"/><g transform="translate(0)"><path class="d" d="M890.3,370.046c0,1.306,2.358,2.365,5.267,2.365s5.266-1.059,5.266-2.365-2.358-2.365-5.266-2.365S890.3,368.74,890.3,370.046Z" transform="translate(-890.298 -364.514)"/><path class="e" d="M890.3,366.366c0,1.306,2.358,2.364,5.267,2.364s5.266-1.059,5.266-2.364S898.473,364,895.565,364,890.3,365.06,890.3,366.366Z" transform="translate(-890.298 -364.001)"/></g></g><g transform="translate(26.503)"><rect class="d" width="10.533" height="3.167" transform="translate(0 2.364)"/><g transform="translate(0)"><path class="d" d="M901.308,363.161c0,1.306,2.358,2.365,5.267,2.365s5.266-1.059,5.266-2.365-2.358-2.364-5.266-2.364S901.308,361.856,901.308,363.161Z" transform="translate(-901.308 -357.63)"/><path class="e" d="M901.308,359.481c0,1.306,2.358,2.365,5.267,2.365s5.266-1.059,5.266-2.365-2.358-2.364-5.266-2.364S901.308,358.176,901.308,359.481Z" transform="translate(-901.308 -357.117)"/></g></g><g transform="translate(16.727 12.22)"><rect class="d" width="10.533" height="3.167" transform="translate(0 2.365)"/><g transform="translate(0)"><path class="d" d="M912.667,377.362c0,1.306,2.358,2.365,5.266,2.365s5.267-1.059,5.267-2.365S920.842,375,917.933,375,912.667,376.056,912.667,377.362Z" transform="translate(-912.667 -371.83)"/><path class="e" d="M912.667,373.682c0,1.306,2.358,2.364,5.266,2.364s5.267-1.059,5.267-2.364-2.358-2.365-5.267-2.365S912.667,372.376,912.667,373.682Z" transform="translate(-912.667 -371.317)"/></g></g><g transform="translate(7.599 6.706)"><rect class="d" width="10.533" height="3.167" transform="translate(0 2.364)"/><g transform="translate(0)"><path class="d" d="M923.274,370.953c0,1.306,2.358,2.365,5.267,2.365s5.266-1.059,5.266-2.365-2.358-2.364-5.266-2.364S923.274,369.648,923.274,370.953Z" transform="translate(-923.274 -365.422)"/><path class="e" d="M923.274,367.273c0,1.306,2.358,2.365,5.267,2.365s5.266-1.058,5.266-2.365-2.358-2.364-5.266-2.364S923.274,365.968,923.274,367.273Z" transform="translate(-923.274 -364.909)"/></g></g></g><g transform="translate(269.689 97.238)"><g transform="translate(0 0.468)"><path class="a" d="M922.811,367.343l18.556,11v-23l-18.556-10.98Z" transform="translate(-922.811 -332.863)"/><path class="f" d="M880.9,378.26l36.07-11.5v-23l-36.07,11.5Z" transform="translate(-862.342 -332.779)"/><path class="b" d="M899.455,353.485l36.07-11.5L916.967,331,880.9,342.5Z" transform="translate(-880.899 -331)"/></g><g transform="translate(35.978 5.924)"><rect class="a" width="10.533" height="3.167" transform="translate(0 2.365)"/><g transform="translate(0)"><path class="a" d="M890.329,343.385c0,1.306,2.358,2.365,5.267,2.365s5.266-1.059,5.266-2.365-2.357-2.364-5.266-2.364S890.329,342.08,890.329,343.385Z" transform="translate(-890.329 -337.853)"/><path class="b" d="M890.329,339.7c0,1.306,2.358,2.365,5.267,2.365s5.266-1.059,5.266-2.365-2.357-2.365-5.266-2.365S890.329,338.4,890.329,339.7Z" transform="translate(-890.329 -337.34)"/></g></g><g transform="translate(26.502)"><rect class="a" width="10.533" height="3.167" transform="translate(0 2.364)"/><g transform="translate(0)"><path class="a" d="M901.338,336.5c0,1.306,2.358,2.364,5.267,2.364s5.267-1.059,5.267-2.364-2.358-2.365-5.267-2.365S901.338,335.195,901.338,336.5Z" transform="translate(-901.338 -330.969)"/><path class="b" d="M901.338,332.82c0,1.306,2.358,2.365,5.267,2.365s5.267-1.058,5.267-2.365-2.358-2.364-5.267-2.364S901.338,331.515,901.338,332.82Z" transform="translate(-901.338 -330.456)"/></g></g><g transform="translate(16.727 12.22)"><rect class="a" width="10.533" height="3.167" transform="translate(0 2.365)"/><g transform="translate(0)"><path class="a" d="M912.7,350.7c0,1.306,2.358,2.365,5.267,2.365s5.266-1.059,5.266-2.365-2.358-2.364-5.266-2.364S912.7,349.4,912.7,350.7Z" transform="translate(-912.698 -345.169)"/><path class="b" d="M912.7,347.021c0,1.306,2.358,2.365,5.267,2.365s5.266-1.059,5.266-2.365-2.358-2.365-5.266-2.365S912.7,345.715,912.7,347.021Z" transform="translate(-912.698 -344.656)"/></g></g><g transform="translate(7.599 6.706)"><rect class="a" width="10.533" height="3.167" transform="translate(0 2.364)"/><g transform="translate(0)"><path class="a" d="M923.3,344.293c0,1.306,2.358,2.364,5.267,2.364s5.266-1.059,5.266-2.364-2.357-2.365-5.266-2.365S923.3,342.987,923.3,344.293Z" transform="translate(-923.305 -338.761)"/><path class="b" d="M923.3,340.612c0,1.306,2.358,2.365,5.267,2.365s5.266-1.059,5.266-2.365-2.357-2.364-5.266-2.364S923.3,339.307,923.3,340.612Z" transform="translate(-923.305 -338.248)"/></g></g></g><g transform="translate(269.636 74.263)"><g transform="translate(0 0.469)"><path class="k" d="M922.873,340.647l18.556,11v-23l-18.556-10.98Z" transform="translate(-922.873 -306.167)"/><path class="j" d="M880.96,351.563l36.07-11.5v-23l-36.07,11.5Z" transform="translate(-862.404 -306.082)"/><path class="l" d="M899.517,326.788l36.07-11.5L917.029,304.3l-36.069,11.5Z" transform="translate(-880.96 -304.303)"/></g><g transform="translate(35.977 5.925)"><rect class="k" width="10.533" height="3.167" transform="translate(0 2.364)"/><g transform="translate(0)"><path class="k" d="M890.39,316.689c0,1.306,2.358,2.364,5.267,2.364s5.267-1.059,5.267-2.364-2.358-2.365-5.267-2.365S890.39,315.383,890.39,316.689Z" transform="translate(-890.39 -311.157)"/><path class="l" d="M890.39,313.009c0,1.306,2.358,2.364,5.267,2.364s5.267-1.059,5.267-2.364-2.358-2.365-5.267-2.365S890.39,311.7,890.39,313.009Z" transform="translate(-890.39 -310.644)"/></g></g><g transform="translate(26.503)"><rect class="k" width="10.533" height="3.167" transform="translate(0 2.365)"/><g transform="translate(0)"><path class="k" d="M901.4,309.8c0,1.306,2.357,2.365,5.266,2.365s5.267-1.059,5.267-2.365-2.358-2.364-5.267-2.364S901.4,308.5,901.4,309.8Z" transform="translate(-901.4 -304.272)"/><path class="l" d="M901.4,306.124c0,1.306,2.357,2.365,5.266,2.365s5.267-1.059,5.267-2.365-2.358-2.365-5.267-2.365S901.4,304.818,901.4,306.124Z" transform="translate(-901.4 -303.759)"/></g></g><g transform="translate(16.727 12.221)"><rect class="k" width="10.533" height="3.167" transform="translate(0 2.364)"/><g transform="translate(0)"><path class="k" d="M912.759,324c0,1.306,2.358,2.364,5.267,2.364s5.267-1.059,5.267-2.364-2.358-2.365-5.267-2.365S912.759,322.7,912.759,324Z" transform="translate(-912.759 -318.473)"/><path class="l" d="M912.759,320.325c0,1.306,2.358,2.364,5.267,2.364s5.267-1.059,5.267-2.364-2.358-2.365-5.267-2.365S912.759,319.019,912.759,320.325Z" transform="translate(-912.759 -317.96)"/></g></g><g transform="translate(7.599 6.706)"><rect class="k" width="10.533" height="3.167" transform="translate(0 2.365)"/><g transform="translate(0)"><path class="k" d="M923.366,317.6c0,1.306,2.357,2.365,5.266,2.365S933.9,318.9,933.9,317.6s-2.358-2.364-5.267-2.364S923.366,316.291,923.366,317.6Z" transform="translate(-923.366 -312.064)"/><path class="l" d="M923.366,313.916c0,1.306,2.357,2.365,5.266,2.365s5.267-1.059,5.267-2.365-2.358-2.365-5.267-2.365S923.366,312.61,923.366,313.916Z" transform="translate(-923.366 -311.551)"/></g></g></g><g transform="translate(269.636 51.258)"><g transform="translate(0 0.468)"><path class="h" d="M922.873,313.914l18.556,11v-23l-18.556-10.98Z" transform="translate(-922.873 -279.435)"/><path class="g" d="M880.96,324.831l36.07-11.5v-23l-36.07,11.5Z" transform="translate(-862.404 -279.35)"/><path class="i" d="M899.517,300.056l36.07-11.5-18.557-10.98-36.069,11.5Z" transform="translate(-880.96 -277.571)"/></g><g transform="translate(35.977 5.925)"><rect class="h" width="10.533" height="3.167" transform="translate(0 2.364)"/><g transform="translate(0)"><path class="h" d="M890.39,289.957c0,1.306,2.358,2.364,5.267,2.364s5.267-1.059,5.267-2.364-2.358-2.365-5.267-2.365S890.39,288.651,890.39,289.957Z" transform="translate(-890.39 -284.425)"/><path class="i" d="M890.39,286.276c0,1.306,2.358,2.365,5.267,2.365s5.267-1.059,5.267-2.365-2.358-2.364-5.267-2.364S890.39,284.971,890.39,286.276Z" transform="translate(-890.39 -283.912)"/></g></g><g transform="translate(26.503)"><rect class="h" width="10.533" height="3.167" transform="translate(0 2.365)"/><g transform="translate(0)"><path class="h" d="M901.4,283.072c0,1.306,2.357,2.365,5.266,2.365s5.267-1.059,5.267-2.365-2.358-2.365-5.267-2.365S901.4,281.766,901.4,283.072Z" transform="translate(-901.4 -277.54)"/><path class="i" d="M901.4,279.392c0,1.306,2.357,2.364,5.266,2.364s5.267-1.059,5.267-2.364-2.358-2.365-5.267-2.365S901.4,278.086,901.4,279.392Z" transform="translate(-901.4 -277.027)"/></g></g><g transform="translate(16.727 12.221)"><rect class="h" width="10.533" height="3.167" transform="translate(0 2.364)"/><g transform="translate(0)"><path class="h" d="M912.759,297.273c0,1.306,2.358,2.364,5.267,2.364s5.267-1.059,5.267-2.364-2.358-2.365-5.267-2.365S912.759,295.967,912.759,297.273Z" transform="translate(-912.759 -291.741)"/><path class="i" d="M912.759,293.592c0,1.306,2.358,2.365,5.267,2.365s5.267-1.059,5.267-2.365-2.358-2.364-5.267-2.364S912.759,292.287,912.759,293.592Z" transform="translate(-912.759 -291.228)"/></g></g><g transform="translate(7.599 6.706)"><rect class="h" width="10.533" height="3.167" transform="translate(0 2.365)"/><g transform="translate(0)"><path class="h" d="M923.366,290.864c0,1.306,2.357,2.365,5.266,2.365s5.267-1.059,5.267-2.365-2.358-2.364-5.267-2.364S923.366,289.559,923.366,290.864Z" transform="translate(-923.366 -285.332)"/><path class="i" d="M923.366,287.184c0,1.306,2.357,2.364,5.266,2.364s5.267-1.059,5.267-2.364-2.358-2.365-5.267-2.365S923.366,285.878,923.366,287.184Z" transform="translate(-923.366 -284.819)"/></g></g></g><g transform="translate(269.636 28.283)"><g transform="translate(0 0.468)"><path class="n" d="M922.873,287.218l18.556,11v-23l-18.556-10.98Z" transform="translate(-922.873 -252.738)"/><path class="m" d="M880.96,298.135l36.07-11.5v-23l-36.07,11.5Z" transform="translate(-862.404 -252.653)"/><path class="o" d="M899.517,273.36l36.07-11.5-18.557-10.98-36.069,11.5Z" transform="translate(-880.96 -250.875)"/></g><g transform="translate(35.977 5.924)"><rect class="p" width="10.533" height="3.167" transform="translate(0 2.365)"/><g transform="translate(0)"><path class="p" d="M890.39,263.26c0,1.306,2.358,2.365,5.267,2.365s5.267-1.059,5.267-2.365-2.358-2.364-5.267-2.364S890.39,261.955,890.39,263.26Z" transform="translate(-890.39 -257.728)"/><path class="o" d="M890.39,259.58c0,1.306,2.358,2.365,5.267,2.365s5.267-1.059,5.267-2.365-2.358-2.365-5.267-2.365S890.39,258.274,890.39,259.58Z" transform="translate(-890.39 -257.215)"/></g></g><g transform="translate(26.503)"><rect class="p" width="10.533" height="3.167" transform="translate(0 2.364)"/><g transform="translate(0)"><path class="p" d="M901.4,256.376c0,1.306,2.357,2.364,5.266,2.364s5.267-1.059,5.267-2.364-2.358-2.365-5.267-2.365S901.4,255.07,901.4,256.376Z" transform="translate(-901.4 -250.844)"/><path class="o" d="M901.4,252.7c0,1.306,2.357,2.365,5.266,2.365s5.267-1.059,5.267-2.365-2.358-2.364-5.267-2.364S901.4,251.39,901.4,252.7Z" transform="translate(-901.4 -250.331)"/></g></g><g transform="translate(16.727 12.22)"><rect class="p" width="10.533" height="3.167" transform="translate(0 2.365)"/><g transform="translate(0)"><path class="p" d="M912.759,270.576c0,1.306,2.358,2.365,5.267,2.365s5.267-1.059,5.267-2.365-2.358-2.364-5.267-2.364S912.759,269.271,912.759,270.576Z" transform="translate(-912.759 -265.044)"/><path class="o" d="M912.759,266.9c0,1.306,2.358,2.365,5.267,2.365s5.267-1.059,5.267-2.365-2.358-2.365-5.267-2.365S912.759,265.59,912.759,266.9Z" transform="translate(-912.759 -264.531)"/></g></g><g transform="translate(7.599 6.706)"><rect class="p" width="10.533" height="3.167" transform="translate(0 2.364)"/><g transform="translate(0)"><path class="p" d="M923.366,264.168c0,1.306,2.357,2.364,5.266,2.364s5.267-1.059,5.267-2.364-2.358-2.365-5.267-2.365S923.366,262.862,923.366,264.168Z" transform="translate(-923.366 -258.636)"/><path class="o" d="M923.366,260.487c0,1.306,2.357,2.365,5.266,2.365s5.267-1.059,5.267-2.365-2.358-2.364-5.267-2.364S923.366,259.182,923.366,260.487Z" transform="translate(-923.366 -258.123)"/></g></g></g><g transform="translate(286.071)"><g transform="translate(0 0.468)"><path class="n" d="M903.776,254.353l18.556,11v-23l-18.556-10.98Z" transform="translate(-903.776 -219.874)"/><path class="m" d="M861.863,265.27l36.07-11.5v-23l-36.07,11.5Z" transform="translate(-843.307 -219.789)"/><path class="o" d="M880.42,240.495l36.07-11.5-18.557-10.98-36.069,11.5Z" transform="translate(-861.863 -218.01)"/></g><g transform="translate(35.978 5.925)"><rect class="p" width="10.533" height="3.167" transform="translate(0 2.364)"/><g transform="translate(0)"><path class="p" d="M871.293,230.4c0,1.306,2.358,2.364,5.266,2.364s5.267-1.059,5.267-2.364-2.358-2.365-5.267-2.365S871.293,229.09,871.293,230.4Z" transform="translate(-871.293 -224.864)"/><path class="o" d="M871.293,226.715c0,1.306,2.358,2.365,5.266,2.365s5.267-1.059,5.267-2.365-2.358-2.364-5.267-2.364S871.293,225.41,871.293,226.715Z" transform="translate(-871.293 -224.351)"/></g></g><g transform="translate(26.503)"><rect class="p" width="10.533" height="3.167" transform="translate(0 2.365)"/><g transform="translate(0)"><path class="p" d="M882.3,223.511c0,1.306,2.358,2.365,5.267,2.365s5.266-1.059,5.266-2.365-2.358-2.365-5.266-2.365S882.3,222.205,882.3,223.511Z" transform="translate(-882.303 -217.979)"/><path class="o" d="M882.3,219.831c0,1.306,2.358,2.364,5.267,2.364s5.266-1.059,5.266-2.364-2.358-2.365-5.266-2.365S882.3,218.525,882.3,219.831Z" transform="translate(-882.303 -217.466)"/></g></g><g transform="translate(16.727 12.221)"><rect class="p" width="10.533" height="3.167" transform="translate(0 2.364)"/><g transform="translate(0)"><path class="p" d="M893.662,237.712c0,1.306,2.357,2.364,5.266,2.364s5.267-1.059,5.267-2.364-2.358-2.365-5.267-2.365S893.662,236.406,893.662,237.712Z" transform="translate(-893.662 -232.18)"/><path class="o" d="M893.662,234.031c0,1.306,2.357,2.365,5.266,2.365s5.267-1.059,5.267-2.365-2.358-2.364-5.267-2.364S893.662,232.726,893.662,234.031Z" transform="translate(-893.662 -231.667)"/></g></g><g transform="translate(7.599 6.706)"><rect class="p" width="10.533" height="3.167" transform="translate(0 2.365)"/><g transform="translate(0)"><path class="p" d="M904.269,231.3c0,1.306,2.358,2.365,5.266,2.365s5.267-1.059,5.267-2.365-2.358-2.365-5.267-2.365S904.269,230,904.269,231.3Z" transform="translate(-904.269 -225.771)"/><path class="o" d="M904.269,227.623c0,1.306,2.358,2.364,5.266,2.364s5.267-1.059,5.267-2.364-2.358-2.365-5.267-2.365S904.269,226.317,904.269,227.623Z" transform="translate(-904.269 -225.258)"/></g></g></g><g transform="translate(249.869 11.54)"><g transform="translate(0 0.468)"><path class="d" d="M945.842,267.762l18.556,11v-23l-18.556-10.98Z" transform="translate(-945.842 -233.283)"/><path class="c" d="M903.929,278.679l36.07-11.5v-23l-36.07,11.5Z" transform="translate(-885.373 -233.198)"/><path class="e" d="M922.486,253.9l36.07-11.5L940,231.419l-36.069,11.5Z" transform="translate(-903.93 -231.419)"/></g><g transform="translate(35.977 5.925)"><rect class="d" width="10.533" height="3.167" transform="translate(0 2.364)"/><g transform="translate(0)"><path class="d" d="M913.359,243.8c0,1.306,2.358,2.364,5.267,2.364s5.267-1.059,5.267-2.364-2.358-2.365-5.267-2.365S913.359,242.5,913.359,243.8Z" transform="translate(-913.359 -238.273)"/><path class="e" d="M913.359,240.124c0,1.306,2.358,2.365,5.267,2.365s5.267-1.059,5.267-2.365-2.358-2.364-5.267-2.364S913.359,238.819,913.359,240.124Z" transform="translate(-913.359 -237.76)"/></g></g><g transform="translate(26.502)"><rect class="d" width="10.533" height="3.167" transform="translate(0 2.365)"/><g transform="translate(0)"><path class="d" d="M924.369,236.92c0,1.306,2.358,2.365,5.267,2.365s5.267-1.059,5.267-2.365-2.358-2.364-5.267-2.364S924.369,235.615,924.369,236.92Z" transform="translate(-924.369 -231.388)"/><path class="e" d="M924.369,233.24c0,1.306,2.358,2.365,5.267,2.365s5.267-1.059,5.267-2.365-2.358-2.365-5.267-2.365S924.369,231.934,924.369,233.24Z" transform="translate(-924.369 -230.875)"/></g></g><g transform="translate(16.727 12.221)"><rect class="d" width="10.533" height="3.167" transform="translate(0 2.365)"/><g transform="translate(0)"><path class="d" d="M935.729,251.121c0,1.306,2.358,2.364,5.267,2.364s5.266-1.059,5.266-2.364-2.357-2.365-5.266-2.365S935.729,249.815,935.729,251.121Z" transform="translate(-935.729 -245.589)"/><path class="e" d="M935.729,247.441c0,1.306,2.358,2.364,5.267,2.364s5.266-1.059,5.266-2.364-2.357-2.365-5.266-2.365S935.729,246.135,935.729,247.441Z" transform="translate(-935.729 -245.076)"/></g></g><g transform="translate(7.599 6.706)"><rect class="d" width="10.533" height="3.167" transform="translate(0 2.365)"/><g transform="translate(0)"><path class="d" d="M946.335,244.712c0,1.306,2.358,2.365,5.267,2.365s5.267-1.059,5.267-2.365-2.358-2.364-5.267-2.364S946.335,243.407,946.335,244.712Z" transform="translate(-946.335 -239.18)"/><path class="e" d="M946.335,241.032c0,1.306,2.358,2.365,5.267,2.365s5.267-1.059,5.267-2.365-2.358-2.365-5.267-2.365S946.335,239.726,946.335,241.032Z" transform="translate(-946.335 -238.667)"/></g></g></g><g transform="translate(215.235 183.195)"><g transform="translate(0 0.468)"><path class="d" d="M986.087,467.224l18.556,11v-23l-18.556-10.98Z" transform="translate(-986.087 -432.745)"/><path class="c" d="M944.174,478.141l36.07-11.5v-23l-36.07,11.5Z" transform="translate(-925.618 -432.66)"/><path class="e" d="M962.73,453.366l36.07-11.5-18.557-10.98-36.069,11.5Z" transform="translate(-944.174 -430.881)"/></g><g transform="translate(35.978 5.925)"><rect class="d" width="10.533" height="3.167" transform="translate(0 2.364)"/><g transform="translate(0)"><path class="d" d="M953.6,443.266c0,1.306,2.358,2.365,5.266,2.365s5.267-1.059,5.267-2.365-2.358-2.364-5.267-2.364S953.6,441.961,953.6,443.266Z" transform="translate(-953.604 -437.735)"/><path class="e" d="M953.6,439.586c0,1.306,2.358,2.365,5.266,2.365s5.267-1.059,5.267-2.365-2.358-2.364-5.267-2.364S953.6,438.281,953.6,439.586Z" transform="translate(-953.604 -437.222)"/></g></g><g transform="translate(26.503)"><rect class="d" width="10.533" height="3.167" transform="translate(0 2.365)"/><g transform="translate(0)"><path class="d" d="M964.614,436.382c0,1.306,2.358,2.365,5.267,2.365s5.266-1.059,5.266-2.365-2.358-2.365-5.266-2.365S964.614,435.076,964.614,436.382Z" transform="translate(-964.614 -430.85)"/><path class="e" d="M964.614,432.7c0,1.306,2.358,2.364,5.267,2.364s5.266-1.059,5.266-2.364-2.358-2.365-5.266-2.365S964.614,431.4,964.614,432.7Z" transform="translate(-964.614 -430.337)"/></g></g><g transform="translate(16.727 12.221)"><rect class="d" width="10.533" height="3.167" transform="translate(0 2.364)"/><g transform="translate(0)"><path class="d" d="M975.973,450.583c0,1.305,2.357,2.364,5.266,2.364s5.267-1.059,5.267-2.364-2.358-2.365-5.267-2.365S975.973,449.277,975.973,450.583Z" transform="translate(-975.973 -445.051)"/><path class="e" d="M975.973,446.9c0,1.306,2.357,2.365,5.266,2.365s5.267-1.059,5.267-2.365-2.358-2.364-5.267-2.364S975.973,445.6,975.973,446.9Z" transform="translate(-975.973 -444.538)"/></g></g><g transform="translate(7.599 6.706)"><rect class="d" width="10.533" height="3.167" transform="translate(0 2.365)"/><g transform="translate(0)"><path class="d" d="M986.58,444.174c0,1.306,2.358,2.365,5.267,2.365s5.266-1.059,5.266-2.365-2.358-2.365-5.266-2.365S986.58,442.868,986.58,444.174Z" transform="translate(-986.58 -438.642)"/><path class="e" d="M986.58,440.494c0,1.305,2.358,2.364,5.267,2.364s5.266-1.059,5.266-2.364-2.358-2.365-5.266-2.365S986.58,439.188,986.58,440.494Z" transform="translate(-986.58 -438.129)"/></g></g></g><g transform="translate(19.313 262.912)"><path class="q" d="M1100.119,566.683l-35.21-5.14,5.365-6.145,41.28-4.093Z" transform="translate(-1064.909 -526.918)"/><g transform="translate(19.151 0.405)"><path class="d" d="M1078.2,554.89l16.059,9.521v-19.9l-16.059-9.5Z" transform="translate(-1078.196 -525.05)"/><path class="c" d="M1041.924,564.337l31.215-9.953V534.479l-31.215,9.956Z" transform="translate(-1025.865 -524.977)"/><path class="e" d="M1057.983,542.9l31.215-9.956-16.06-9.5-31.215,9.956Z" transform="translate(-1041.924 -523.438)"/></g><g transform="translate(50.287 5.127)"><rect class="d" width="9.116" height="2.741" transform="translate(0 2.046)"/><g transform="translate(0)"><path class="d" d="M1050.084,534.156c0,1.13,2.04,2.046,4.558,2.046s4.558-.916,4.558-2.046-2.041-2.047-4.558-2.047S1050.084,533.026,1050.084,534.156Z" transform="translate(-1050.084 -529.369)"/><path class="e" d="M1050.084,530.971c0,1.13,2.04,2.046,4.558,2.046s4.558-.916,4.558-2.046-2.041-2.047-4.558-2.047S1050.084,529.841,1050.084,530.971Z" transform="translate(-1050.084 -528.925)"/></g></g><g transform="translate(42.087)"><rect class="d" width="9.116" height="2.741" transform="translate(0 2.046)"/><g transform="translate(0)"><path class="d" d="M1059.613,528.2c0,1.13,2.041,2.046,4.558,2.046s4.558-.916,4.558-2.046-2.04-2.047-4.558-2.047S1059.613,527.068,1059.613,528.2Z" transform="translate(-1059.613 -523.411)"/><path class="e" d="M1059.613,525.013c0,1.13,2.041,2.046,4.558,2.046s4.558-.916,4.558-2.046-2.04-2.047-4.558-2.047S1059.613,523.883,1059.613,525.013Z" transform="translate(-1059.613 -522.967)"/></g></g><g transform="translate(33.627 10.576)"><rect class="d" width="9.116" height="2.741" transform="translate(0 2.047)"/><g transform="translate(0)"><path class="d" d="M1069.443,540.487c0,1.13,2.041,2.047,4.558,2.047s4.558-.917,4.558-2.047-2.041-2.047-4.558-2.047S1069.443,539.358,1069.443,540.487Z" transform="translate(-1069.443 -535.7)"/><path class="e" d="M1069.443,537.3c0,1.13,2.041,2.047,4.558,2.047s4.558-.917,4.558-2.047-2.041-2.047-4.558-2.047S1069.443,536.172,1069.443,537.3Z" transform="translate(-1069.443 -535.256)"/></g></g><g transform="translate(25.727 5.803)"><rect class="d" width="9.116" height="2.741" transform="translate(0 2.046)"/><g transform="translate(0)"><path class="d" d="M1078.622,534.942c0,1.13,2.041,2.046,4.558,2.046s4.559-.917,4.559-2.046-2.041-2.047-4.559-2.047S1078.622,533.812,1078.622,534.942Z" transform="translate(-1078.622 -530.154)"/><path class="e" d="M1078.622,531.757c0,1.13,2.041,2.046,4.558,2.046s4.559-.917,4.559-2.046-2.041-2.047-4.559-2.047S1078.622,530.627,1078.622,531.757Z" transform="translate(-1078.622 -529.71)"/></g></g></g><g transform="translate(152.847 243.444)"><path class="q" d="M952.9,534.989l-45.454,14.491-22.714-10.671,20.893-3.388Z" transform="translate(-884.734 -505.175)"/><g transform="translate(20.893 0.405)"><path class="n" d="M921.006,532.269l16.059,9.521v-19.9l-16.059-9.5Z" transform="translate(-921.006 -502.43)"/><path class="m" d="M884.735,541.717l31.215-9.953V511.859l-31.215,9.956Z" transform="translate(-868.676 -502.357)"/><path class="o" d="M900.794,520.276l31.215-9.956-16.06-9.5-31.215,9.956Z" transform="translate(-884.734 -500.817)"/></g><g transform="translate(52.029 5.127)"><rect class="p" width="9.116" height="2.741" transform="translate(0 2.047)"/><g transform="translate(0)"><path class="p" d="M892.9,511.536c0,1.13,2.04,2.047,4.558,2.047s4.558-.917,4.558-2.047-2.041-2.046-4.558-2.046S892.9,510.406,892.9,511.536Z" transform="translate(-892.895 -506.748)"/><path class="o" d="M892.9,508.35c0,1.13,2.04,2.046,4.558,2.046s4.558-.917,4.558-2.046-2.041-2.047-4.558-2.047S892.9,507.221,892.9,508.35Z" transform="translate(-892.895 -506.304)"/></g></g><g transform="translate(43.829)"><rect class="p" width="9.116" height="2.741" transform="translate(0 2.047)"/><g transform="translate(0)"><path class="p" d="M902.423,505.578c0,1.13,2.041,2.046,4.558,2.046s4.559-.917,4.559-2.046-2.041-2.046-4.559-2.046S902.423,504.448,902.423,505.578Z" transform="translate(-902.423 -500.79)"/><path class="o" d="M902.423,502.393c0,1.13,2.041,2.046,4.558,2.046s4.559-.917,4.559-2.046-2.041-2.047-4.559-2.047S902.423,501.263,902.423,502.393Z" transform="translate(-902.423 -500.346)"/></g></g><g transform="translate(35.369 10.577)"><rect class="p" width="9.116" height="2.741" transform="translate(0 2.046)"/><g transform="translate(0)"><path class="p" d="M912.254,517.867c0,1.13,2.041,2.046,4.558,2.046s4.558-.916,4.558-2.046-2.04-2.047-4.558-2.047S912.254,516.737,912.254,517.867Z" transform="translate(-912.254 -513.08)"/><path class="o" d="M912.254,514.682c0,1.13,2.041,2.047,4.558,2.047s4.558-.917,4.558-2.047-2.04-2.047-4.558-2.047S912.254,513.552,912.254,514.682Z" transform="translate(-912.254 -512.636)"/></g></g><g transform="translate(27.469 5.804)"><rect class="p" width="9.116" height="2.741" transform="translate(0 2.046)"/><g transform="translate(0)"><path class="p" d="M921.433,512.322c0,1.13,2.041,2.046,4.558,2.046s4.558-.916,4.558-2.046-2.04-2.047-4.558-2.047S921.433,511.191,921.433,512.322Z" transform="translate(-921.433 -507.534)"/><path class="o" d="M921.433,509.137c0,1.13,2.041,2.046,4.558,2.046s4.558-.916,4.558-2.046-2.04-2.046-4.558-2.046S921.433,508.006,921.433,509.137Z" transform="translate(-921.433 -507.09)"/></g></g></g><g transform="translate(94.648 273.982)"><path class="q" d="M1010.222,564.69l-37.309,2.582,5.283,9.766,45.2,2.582Z" transform="translate(-972.913 -539.854)"/><g transform="translate(19.265 0.405)"><path class="f" d="M970.312,567.753l-16.059,9.521v-19.9l16.059-9.5Z" transform="translate(-923.037 -537.914)"/><path class="a" d="M1004.128,577.2l-31.215-9.953V547.343l31.215,9.956Z" transform="translate(-972.913 -537.841)"/><path class="b" d="M985.468,555.76,954.253,545.8l16.06-9.5,31.214,9.956Z" transform="translate(-954.253 -536.301)"/></g><g transform="translate(26.288 5.127)"><rect class="a" width="9.115" height="2.741" transform="translate(0 2.046)"/><g transform="translate(0)"><path class="a" d="M999.547,547.02c0,1.131-2.04,2.046-4.558,2.046s-4.558-.916-4.558-2.046,2.04-2.047,4.558-2.047S999.547,545.89,999.547,547.02Z" transform="translate(-990.432 -542.233)"/><path class="b" d="M999.547,543.835c0,1.131-2.04,2.046-4.558,2.046s-4.558-.916-4.558-2.046,2.04-2.046,4.558-2.046S999.547,542.7,999.547,543.835Z" transform="translate(-990.432 -541.789)"/></g></g><g transform="translate(34.488)"><rect class="a" width="9.116" height="2.741" transform="translate(0 2.046)"/><g transform="translate(0)"><path class="a" d="M990.019,541.062c0,1.131-2.041,2.046-4.558,2.046s-4.558-.916-4.558-2.046,2.04-2.047,4.558-2.047S990.019,539.932,990.019,541.062Z" transform="translate(-980.904 -536.275)"/><path class="b" d="M990.019,537.877c0,1.131-2.041,2.046-4.558,2.046s-4.558-.916-4.558-2.046,2.04-2.046,4.558-2.046S990.019,536.747,990.019,537.877Z" transform="translate(-980.904 -535.831)"/></g></g><g transform="translate(42.948 10.576)"><rect class="a" width="9.116" height="2.741" transform="translate(0 2.046)"/><g transform="translate(0)"><path class="a" d="M980.189,553.351c0,1.13-2.041,2.047-4.559,2.047s-4.558-.917-4.558-2.047,2.041-2.046,4.558-2.046S980.189,552.222,980.189,553.351Z" transform="translate(-971.073 -548.564)"/><path class="b" d="M980.189,550.167c0,1.13-2.041,2.046-4.559,2.046s-4.558-.917-4.558-2.046,2.041-2.047,4.558-2.047S980.189,549.037,980.189,550.167Z" transform="translate(-971.073 -548.12)"/></g></g><g transform="translate(50.848 5.803)"><rect class="a" width="9.116" height="2.741" transform="translate(0 2.046)"/><g transform="translate(0)"><path class="a" d="M971.009,547.806c0,1.13-2.041,2.046-4.558,2.046s-4.558-.917-4.558-2.046,2.04-2.047,4.558-2.047S971.009,546.675,971.009,547.806Z" transform="translate(-961.894 -543.018)"/><path class="b" d="M971.009,544.621c0,1.13-2.041,2.046-4.558,2.046s-4.558-.917-4.558-2.046,2.04-2.047,4.558-2.047S971.009,543.49,971.009,544.621Z" transform="translate(-961.894 -542.574)"/></g></g></g></g></svg>