<svg xmlns="http://www.w3.org/2000/svg" width="114.177" height="155.871" viewBox="0 0 114.177 155.871"><path d="M871.893,451.333c0,.152,0,.3-.005.455A115.24,115.24,0,0,1,757.732,566.573l-.005-38.391v-.068a6.147,6.147,0,0,1,7.477-5.076.133.133,0,0,1,.05.005,8.866,8.866,0,0,1,2.474.916,55.167,55.167,0,0,0,7.651,3.683c.14.057.281.1.427.146.062.023.124.045.191.067a14.234,14.234,0,0,0,11.9-1.017c9.063-4.924,12.925-16.905,7.7-25.787-6.437-10.951-18.159-9.608-27.632-3.7a6.844,6.844,0,0,1-10.249-4.132V468.024l-.005-16.235v-1.1l42.945-.005a6.887,6.887,0,0,0,3.637-3.912v-.006a6.733,6.733,0,0,0-.489-5.728c-3.418-5.988-6.442-11.9-4.081-18.439l.068-.169a.085.085,0,0,1,.01-.034,16.659,16.659,0,0,1,.933-2.029,19.133,19.133,0,0,1,26-7.19c7.584,4.458,9.27,11.451,7.623,18.472,0,.011-.006.017-.006.029a30.9,30.9,0,0,1-3.924,9.13,6.834,6.834,0,0,0-.989,2.721v.01a6.9,6.9,0,0,0,4,7.14l38.453-.005C871.893,450.9,871.893,451.114,871.893,451.333Z" transform="translate(-757.715 -410.702)" fill="#e6ab44"/></svg>