<svg xmlns="http://www.w3.org/2000/svg" xmlns:xlink="http://www.w3.org/1999/xlink" width="1366" height="771" viewBox="0 0 1366 771"><defs><style>.a,.n{fill:none;}.b{font-size:36.321px;font-family:MyriadPro-Regular, Myriad Pro;}.c,.w{fill:#000;}.d{clip-path:url(#a);}.e{fill:#ccc1d8;}.f{fill:#e6def0;}.g,.i{fill:#caa267;}.g{fill-rule:evenodd;}.h{fill:#8c7cc9;}.j{fill:#5e5586;}.k{fill:#f1c759;}.l{opacity:0.3;}.m{opacity:0.5;}.n{stroke:#8c7cc9;stroke-width:1.118px;}.n,.w{stroke-miterlimit:10;}.o{fill:#c2934e;}.p{opacity:0.15;}.q{fill:#f0c659;}.r{fill:#979797;}.s{fill:#cacaca;}.t{fill:#7f7f7f;}.u{fill:#5e5587;}.v{fill:#4b3d64;}.w{stroke:#5e5587;stroke-width:11px;}.x{fill:#a1a4ad;}.y{fill:#bec9f2;opacity:0.49;}</style><clipPath id="a"><rect class="a" width="1366" height="771" transform="translate(2069.689 13639.198)"/></clipPath></defs><g transform="translate(-2069.689 -13639.198)"><text class="b" transform="translate(3027.917 13731.838)"><tspan x="0" y="0">kompleqsuri davaleba</tspan></text><rect class="c" width="1366" height="771" transform="translate(2069.689 13639.198)"/><g class="d"><rect class="c" width="1366" height="771" transform="translate(2069.689 13639.198)"/><path class="e" d="M3435.689,13648.734V14407.2l-242.228-67.587-32.991-6.263,1.636-558.092,30.118-25.561Z"/><path class="e" d="M2385.985,13764.669l-16.051,556.371-300.044,74.4v-750.053l298.844,93.57Z"/><path class="f" d="M2767.666,13728.27H2343.058v617.384h849.165V13728.27Z"/><path class="c" d="M2069.689,13699.978c121.657,30.381,335.7,73.889,615,80.372,352.971,8.194,622.428-47.1,751-78.7V13639.2h-1366Z"/><path class="c" d="M2069.689,14361.882c121.657-29.39,335.7-71.48,615-77.753,352.971-7.928,622.428,45.568,751,76.133v47.19l-1365.8,2.746Z"/><path class="g" d="M2804.419,14248.753s-5.711-6.515-12.371-7.824c-3.959-.777-3.825-1.777-4.492-2.1-2.214-1.085-.2,3.189,3.137,4.4,2.715.985,4.058,5.748,5.67,6.813s6.485,3.1,7.745,2.5S2804.419,14248.753,2804.419,14248.753Z"/><path class="g" d="M2821.976,14257.646c-1.216-.464-13.9-8.787-20.926-9.728s-17.557-1.668-21.155-2.853c-4.233-1.394-5.384.263-.528,2.349,3.157,1.356,9.648,3.523,11.1,3.642.7.059-3.865-.749-8.816-1.988-5.263-1.318-10.96-3.052-11.263-2.116-.586,1.812,14.536,6.563,17.218,6.965a67.966,67.966,0,0,1-7.067-1.152c-3.182-.7-6.809-1.985-7.558-1.351-1.18,1,6.788,4.511,13.443,5.714.108.222-2.068.472-9.877-1.487-.784-.2-2.814.066-.272,1.37,5.352,2.747,7.451,4.323,15.346,4.895,7.7.557,16.274-.681,21.743,1.408Z"/><path class="h" d="M2816.41,14267.055c6.171,2.415,50.977,10.632,92.106,1.6,25.958-5.69,50.44-18.268,62.827-43.511,32.006-65.252-42.783-102.267-42.783-102.267a1.287,1.287,0,0,0-.112.179c-3.242,4.9-72.955,109.489-121.328,125.812C2807.12,14248.867,2806.349,14263.109,2816.41,14267.055Z"/><path class="i" d="M3120.551,14389.987s-1.556,143.9,4.536,145.845c10.935,3.569,53.512,14.654,7.682,15.354-23.278,3.424-22.011-1.952-22.757-6.352-.61-3.593-10.908-131.367-12.723-141.216l-.653-3.539Z"/><path class="i" d="M3021.738,14379.851s-10.294,142.989-16.438,144.768c-11.031,3.261-53.9,13.146-8.11,15.133,23.173,4.075,22.057-1.334,22.927-5.71.71-3.575,6.49-30.667,8.581-40.462.469-2.193,17.769-112.968,17.769-112.968Z"/><path class="j" d="M3023.125,14525.161c.506-2.023-14.135-3.5-15.98-2.022s-31.667,4.159-32.079,12.877,40.742,6.533,43.65,6.659S3022.128,14529.138,3023.125,14525.161Z"/><path class="k" d="M3014.555,14239.376a9.06,9.06,0,0,0,5.334,1.926c12.075-.8,64.217-4.387,92.321-8.438,9.915-1.432,16.837-2.918,17.951-4.367,0,0,0,.041,0,.115.061,1.563.7,19.464,1.456,42.934,1.492,46.332,11.94,111.975,19.233,131.545,1.575,4.225-63.678,3.233-63.678,3.233-4.274-47.579-6.944-131.522-10.184-135.017-3.94-4.251-3.372,69.738-4.679,131.807-25.043,8.886-65.958,8.317-65.715,5.651C3009.482,14377.1,3014.555,14239.376,3014.555,14239.376Z"/><g class="l"><path d="M3062.865,14238.069l-.585,0S3062.488,14238.068,3062.865,14238.069Z"/><path class="m" d="M3062.865,14238.069c15.622-.1,49.345-5.206,49.345-5.206,9.915-1.432,16.837-2.918,17.951-4.367,0,0,0,.041,0,.115.061,1.563.7,19.464,1.456,42.934a11.6,11.6,0,0,1-1.647-.048,12.744,12.744,0,0,1-8.713-5.128,28.346,28.346,0,0,1-3.767-6.395C3104.031,14238.959,3067.874,14238.088,3062.865,14238.069Z"/></g><line class="n" x1="1.653" y2="173.186" transform="translate(3024.117 14237.277)"/><line class="n" x1="1.787" y2="170.184" transform="translate(3040.583 14239.311)"/><line class="n" x2="0.858" y2="168.768" transform="translate(3058.305 14237.94)"/><line class="n" x2="3.335" y2="34.687" transform="translate(3073.654 14236.62)"/><line class="n" x2="11.562" y2="171.269" transform="translate(3090.691 14235.155)"/><line class="n" x2="13.954" y2="172.508" transform="translate(3105.343 14233.787)"/><line class="n" x2="18.232" y2="173.138" transform="translate(3119.752 14232.548)"/><path class="n" d="M3013.87,14257.437s92.882-3.59,116.948-10.059"/><path class="n" d="M3076.989,14271.307c-31.736,10.115-63.707,1.19-63.707,1.19"/><path class="n" d="M3076.452,14269.147s29.915,5.694,54.977-3.443"/><path class="n" d="M3012.773,14285.222s24.376,10.206,61.727.723"/><path class="n" d="M3012.153,14300.378s37.251,7.96,61.79.105"/><path class="n" d="M3011.52,14315.437s19.732,12.9,62.034,2.715"/><path class="n" d="M3010.765,14332.76s29.454,12.3,62.574-.663"/><path class="n" d="M3010.042,14348.633s21.183,12.454,63.077.56"/><path class="n" d="M3009.259,14364.908s28.794,12.035,63.7-2.691"/><path class="n" d="M3008.6,14377.614s17.6,14.236,64.167-1.445"/><path class="n" d="M3007.788,14392.042s27.478,11.587,64.768-1.937"/><path class="n" d="M3079.128,14284.712s13.07,9.026,53.763-2.009"/><path class="n" d="M3080.753,14299.849s17.81,6.512,52.385-2.813"/><path class="n" d="M3081.365,14316.752s27.126,5.69,53.076-4.565"/><path class="n" d="M3082.185,14330.743s26.687,9.216,53.969-4.643"/><path class="n" d="M3083.071,14346.105s25.209,6.481,55.111-4.74"/><path class="n" d="M3083.942,14360.857s21.423,7.479,56.47-4.857"/><path class="n" d="M3085.062,14373.879s25.575,10.514,57.832-3.623"/><path class="n" d="M3085.873,14390.208s28.668,7.046,60.182-4.477"/><path class="o" d="M3003.9,14056.021s2.732,13.428,12.958,18.252-18.59,5.55-18.59,5.55,1.22-14.007-2.216-21.459S3003.9,14056.021,3003.9,14056.021Z"/><ellipse class="i" cx="20.081" cy="14.718" rx="20.081" ry="14.718" transform="translate(2976.631 14055.667) rotate(-68.921)"/><path class="h" d="M2908.516,14268.654c25.958-5.69,50.44-18.268,62.827-43.511.044.068.089.123.134.191.134.167.268.346.4.547a.6.6,0,0,1,.09.123c3.566,4.874,21.073,28.81,21.073,28.82,6.349,8.272,16.053,16.221,23.755,19.418.5.224,1.018.414,1.487.582,18.882,2.951,97.516-26.932,106.884-34.4,4.226-3.365,5.881-19.138,6.216-36.243.425-20.849-1.084-43.71-2.191-48.527-1.878-8.083-39-97.5-97.259-91.85a59.778,59.778,0,0,0-15.159,3.556s-.436.459-1.207,1.141a28.693,28.693,0,0,1-5.266,3.745,22.333,22.333,0,0,1-5.377,2.157,16.482,16.482,0,0,1-10.989-.895c-3.644-1.632-11.738.279-21.565,5.769-13.65,7.612-30.675,22.135-43.811,43.6a1.287,1.287,0,0,0-.112.179,140.454,140.454,0,0,0-18.826,51.682A333.259,333.259,0,0,0,2908.516,14268.654Z"/><path class="p" d="M2971.346,14225.139c.043.069.095.123.139.192.132.17.268.352.4.547.034.036.058.076.095.123,3.567,4.873,21.064,28.817,21.067,28.827,6.353,8.265,16.054,16.219,23.763,19.413-8.761-13.986-35.076-54.256-39.888-72.209C2979.535,14219.941,2971.342,14225.128,2971.346,14225.139Z"/><path class="p" d="M3006.8,14077.282c.423,1.262,0,2.3-2.131,2.631-6.643,1.039-13.8,3.373-18.32,7.337a4.645,4.645,0,0,1-4.361,1.1c-3.938-.959-7.762-6.187-9.361-8.532a1.863,1.863,0,0,1-.255-.543c9.829-5.489,17.915-7.4,21.567-5.763a16.453,16.453,0,0,0,10.986.886A9.059,9.059,0,0,1,3006.8,14077.282Z"/><path class="q" d="M2996.57,14029.479s18.694,22.348,19.795-1.537C3017.127,14011.417,2983.992,14013.794,2996.57,14029.479Z"/><path class="q" d="M3001.966,14025.752s-16.345,2.765-18.114,11.178c0,0,6.179-24.77,19.634-20.266s18.085,7.754,7.275,32.3C3010.761,14048.963,3014.583,14027.6,3001.966,14025.752Z"/><path class="q" d="M3002.85,14016.6s3.508-7.107,10.407-3.251,8.421,9.236,7.856,13.812-.728,8.105.315,8.508c0,0-4.336,1.923-4.977.478,0,0-.184,8.545-6,13.378,0,0,2.3-10.01-2.51-13.062S3002.85,14016.6,3002.85,14016.6Z"/><path class="q" d="M3003.543,14016.789s-4.009-5.139-12.039.152l-5.542,5.053s.641,1.445,3.129,1.206c0,0-3.783,6.982-4.385,11.516l7.917-11.353Z"/><path class="r" d="M2993.433,14222.616l85.06,34.813a9.7,9.7,0,0,0,12.64-5.295l23.755-58.057a3.064,3.064,0,0,0,.149-.419,9.662,9.662,0,0,0-5.449-12.212l-85.06-34.814a9.685,9.685,0,0,0-12.631,5.3l-22.662,55.361-1.1,2.69A9.683,9.683,0,0,0,2993.433,14222.616Z"/><path class="s" d="M2994.685,14219.506l85.059,34.814a9.683,9.683,0,0,0,12.631-5.3l22.662-55.359a9.662,9.662,0,0,0-5.449-12.212l-85.06-34.814a9.685,9.685,0,0,0-12.631,5.3l-22.662,55.361A9.661,9.661,0,0,0,2994.685,14219.506Z"/><circle class="t" cx="7.481" cy="7.481" r="7.481" transform="translate(3045.633 14192.849)"/><path class="p" d="M3117.7,14204.613s-8.158-32.4-90.655,3.9,70.348,1.164,70.348,1.164Z"/><path class="p" d="M3080.989,14122.876s-2.9,87.484,81.1,99.192l1.8.55-5.966-18.592s-49.341-38.2-49.847-39.416S3080.989,14122.876,3080.989,14122.876Z"/><path class="g" d="M3038.6,14218.11c-1.117-.038-13.75-3.257-19.721-2.059s-14.732,3.55-17.987,3.593c-3.828.051-4.3,1.719.228,2.057a59.749,59.749,0,0,0,10.037-.143c.588-.149-3.349.472-7.719.848-4.645.4-9.758.583-9.743,1.427.03,1.637,13.645,1.272,15.937.849a58.133,58.133,0,0,1-6.064,1.038c-2.782.32-6.088.289-6.519,1.016-.679,1.143,6.776,1.768,12.52.887.149.149-1.549.961-8.441,1.55-.693.06-2.269.84.162,1.19,5.116.736,7.261,1.431,13.836-.312,6.412-1.7,13.034-5.1,18.06-4.931Z"/><path class="g" d="M3021.855,14215.789s-6.461-3.7-12.239-2.9c-3.434.474-3.6-.376-4.237-.455-2.1-.264.726,2.648,3.779,2.7,2.481.043,4.9,3.538,6.511,3.953s6.134.7,6.992-.132S3021.855,14215.789,3021.855,14215.789Z"/><path class="h" d="M3091.49,14060.934c25.567,12.03,44.534,24.631,69.712,77.188,12.774,26.666,19.978,55,23.233,70.1a18.2,18.2,0,0,1-7.456,18.74c-56.992,39.726-144.342.471-144.342.471-4.022-.267-.588-15.352-.588-15.352,34.841-10.8,61.941-17.721,92.99-15.324-.161-.024-42.673-43.054-50.573-56.068-20.705-34.133-62.043-56.677-58.153-73.64C3017.656,14061.179,3065.7,14048.8,3091.49,14060.934Z"/><path class="u" d="M3108.118,14532.435c-.45-2.036,17.323-.932,19.126.6s27.947,6.282,28.115,15.008-40.91,5.388-43.82,5.432S3109,14536.438,3108.118,14532.435Z"/></g><path class="c" d="M3256.479,13914.808v205.78a.719.719,0,0,0,.6.71l50.4,8,16,2.53,58.21,9.28a.72.72,0,0,0,.82-.6,1.022,1.022,0,0,0,0-.109v-245.36a.72.72,0,0,0-.72-.72h-.1l-58.17,9.239-16,2.53-50.4,8A.72.72,0,0,0,3256.479,13914.808Z"/><path class="v" d="M3287.489,13908.108l15.88-3.12,15.76-3,15.67-3c5.23-1,10.44-2.061,15.7-2.83s10.51-1.6,15.76-2.44l15.75-2.5,2.64-.42a.72.72,0,0,1,.82.6.682.682,0,0,1,0,.109v252.37a.72.72,0,0,1-.72.72h-.06l-2.64-.42-126-20-1.93-.31a.721.721,0,0,1-.6-.71v-2l.18-104.54c0-4.36-.07-8.75,0-13.09s.26-8.61.38-12.91l.8-25.68,1.61-50.211a.709.709,0,0,1,.58-.68C3267.049,13912.2,3277.159,13910.108,3287.489,13908.108Zm-29.38,58.8.8,26.069c.12,4.33.32,8.681.38,13s0,8.521,0,12.79l.18,100.511a.72.72,0,0,1-1.26.47h0a.72.72,0,0,1,.66-1.17l122.54,19.45a.72.72,0,0,1,.35,1.25l-1.1.939a.72.72,0,0,1-1.18-.55v-243.91a.72.72,0,0,1,1.21-.56l1.1.939a.721.721,0,0,1,.065,1.017.708.708,0,0,1-.415.233l-14.21,2.261c-5.25.829-10.5,1.659-15.74,2.56s-10.53,1.48-15.8,2.17l-15.83,2-15.75,2-15.62,1.89c-10.26,1.25-20.75,2.46-31.34,3.841a.718.718,0,0,0-.63.739Z"/><path class="c" d="M2268.079,13906.448v207l-51,8.1-16,2.53-59,9.37v-247l59,9.37,16,2.529Z"/><path class="v" d="M2268.079,13906.448l1.61,50.75.8,25.68c.12,4.3.32,8.57.38,12.91s0,8.729,0,13.09l.18,104.54v2.56l-2.53.4-126,20-3.47.55v-254l3.47.55,15.75,2.5c5.25.841,10.5,1.671,15.76,2.44s10.47,1.86,15.7,2.83l15.67,3,15.76,3,15.88,3.12C2247.6,13902.428,2257.889,13904.528,2268.079,13906.448Zm0,0c-10.81-1.42-21.51-2.65-32-3.92l-15.62-1.891-15.75-2-15.83-2c-5.27-.689-10.56-1.27-15.8-2.17s-10.49-1.74-15.74-2.56l-15.75-2.5,3.47-3v247l-3.47-3,126-20-2.53,3,.18-102.46c0-4.271-.07-8.5,0-12.79s.26-8.641.38-13l.8-26.07Z"/><path class="w" d="M2268.049,13906.428v207l-51,8.1-16,2.529-59,9.37v-247l59,9.37,16,2.53Z"/><path class="u" d="M2217.049,13898.328v223.2l-16,2.529V13895.8Z"/><path class="u" d="M2268.049,13969.248v18.12l-51-5.9-16-1.85-59-6.82v-18.12l59,6.82,16,1.85Z"/><path class="x" d="M3342.937,14052.991a66.579,66.579,0,0,1-3.654,9.792,50.215,50.215,0,0,1-4.708,8.479q-2.818,3.866-6.05,3.972a11.23,11.23,0,0,1-5.588-1.989,11.761,11.761,0,0,0-6.016-1.982,12.116,12.116,0,0,0-6.187,1.982,12.512,12.512,0,0,1-5.346,2.095q-3.1.2-6.186-4.077a52.569,52.569,0,0,1-4.924-8.778,75.517,75.517,0,0,1-5.206-15.413,81.7,81.7,0,0,1-2.187-18.37,47.021,47.021,0,0,1,2.956-17.55,23.8,23.8,0,0,1,6.191-9.333,12.894,12.894,0,0,1,8.369-3.521c1.642,0,3.8.758,6.473,2.246s4.383,2.25,5.134,2.25c.562,0,2.466-.885,5.694-2.65q4.578-2.455,7.738-2.048,8.578,1.033,12.872,10.1-7.671,6.929-7.594,19.385.069,9.7,4.712,16.113a16.6,16.6,0,0,0,4.707,4.6q-.567,2.448-1.2,4.7Zm-13.115-76.916a28.346,28.346,0,0,1-3.717,14.174c-2.987,5.205-6.6,8.213-10.519,7.738-.05-.607-.079-1.247-.079-1.919a28.849,28.849,0,0,1,3.944-14.324,17.615,17.615,0,0,1,4.8-5.376,10.989,10.989,0,0,1,5.5-2.32c.05.677.071,1.355.071,2.027Z"/><circle class="y" cx="9.802" cy="9.802" r="9.802" transform="translate(3290.288 13954.441)"/><circle class="y" cx="4.111" cy="4.111" r="4.111" transform="translate(3284.084 13923.842)"/><circle class="y" cx="4.111" cy="4.111" r="4.111" transform="translate(3364.131 13904.176)"/><circle class="y" cx="4.111" cy="4.111" r="4.111" transform="translate(3352.958 14030.842)"/><circle class="y" cx="2.116" cy="2.116" r="2.116" transform="translate(3350.842 13954.44)"/><circle class="y" cx="2.116" cy="2.116" r="2.116" transform="translate(3274.64 14011.511)"/><circle class="y" cx="9.802" cy="9.802" r="9.802" transform="translate(3343.156 14103.413)"/><circle class="y" cx="9.802" cy="9.802" r="9.802" transform="translate(3266.953 14063.43)"/><circle class="y" cx="4.111" cy="4.111" r="4.111" transform="translate(3266.952 14106.354)"/><circle class="y" cx="2.116" cy="2.116" r="2.116" transform="translate(3341.038 14073.232)"/></g></svg>