<svg xmlns="http://www.w3.org/2000/svg" width="402" height="306.35" viewBox="0 0 402 306.35"><defs><style>.a{opacity:0.7;}.b{fill:#bec9f2;opacity:0.49;}.c{fill:#b35328;}.d{fill:#e9e9e9;}.e{fill:#8e94a0;}.f{fill:#4b3d64;}.g{fill:#cecfd4;}.h{fill:#fff;}.i{fill:#8c7cc9;}.j{fill:#0077c0;}</style></defs><g transform="translate(-778.128 -7516.063)"><g transform="translate(778.128 7516.063)"><g class="a"><path class="b" d="M846.045,7613.072c44.039-48.19,66.057-72.285,88.662-82.534,75.52-34.246,194.713-6.64,232.141,71.278,1.947,4.053,28.084,60.5,1.353,104.321-22.381,36.692-59.189,27.434-157.812,60.478C904.8,7801.99,883.024,7834.036,842.246,7818.3c-38.608-14.9-65.565-61.561-63.726-102.1C779.886,7686.054,801.958,7661.315,846.045,7613.072Z" transform="translate(-778.163 -7516.063)"/><circle class="b" cx="20.032" cy="20.032" r="20.032" transform="translate(28.914 50.767)"/><circle class="b" cx="8.401" cy="8.401" r="8.401" transform="translate(0 65.481)"/><circle class="b" cx="14.473" cy="14.473" r="14.473" transform="translate(319.929 230.148)"/><circle class="b" cx="5.892" cy="5.892" r="5.892" transform="translate(361.69 246.528)"/><circle class="b" cx="4.323" cy="4.323" r="4.323" transform="translate(74.142 31.969)"/><circle class="b" cx="4.323" cy="4.323" r="4.323" transform="translate(285.361 258.67)"/></g><g transform="translate(34.678 57.131)"><path class="c" d="M857.783,7686.6h0a.854.854,0,0,1-.5-1.094l.693-1.881,1.6.588-.693,1.883A.854.854,0,0,1,857.783,7686.6Z" transform="translate(-821.97 -7592.609)"/><path class="c" d="M867.863,7690.308h0a.854.854,0,0,1-.5-1.094l.693-1.883c.047-.126,1.592.605,1.592.605l-.687,1.866A.854.854,0,0,1,867.863,7690.308Z" transform="translate(-823.138 -7593.037)"/><path class="d" d="M857.589,7686.083h0a.854.854,0,0,1-.506-1.094l.759-2.06a.852.852,0,0,1,1.094-.5h0a.853.853,0,0,1,.506,1.093l-.759,2.061A.853.853,0,0,1,857.589,7686.083Z" transform="translate(-821.948 -7592.464)"/><path class="d" d="M867.648,7689.789h0a.855.855,0,0,1-.5-1.094l.759-2.062a.856.856,0,0,1,1.094-.506h0a.856.856,0,0,1,.5,1.095l-.759,2.062A.855.855,0,0,1,867.648,7689.789Z" transform="translate(-823.113 -7592.893)"/><rect class="e" width="5.587" height="3.622" transform="translate(33.496 113.289) rotate(20.217)"/><rect class="e" width="5.587" height="3.622" transform="translate(35.885 107.298) rotate(20.217)"/><path class="f" d="M1107.965,7827.066h-283.8c-3.152,0-6.48-1.589-6.817-6.217V7816.6l31.064-57.4a9.887,9.887,0,0,1,8.856-5.49h217.177c4.053,0,12.99,7.981,14.8,11.607l25.628,52.243v1.876C1114.939,7824.873,1111.422,7827.066,1107.965,7827.066Z" transform="translate(-817.35 -7600.729)"/><path class="g" d="M1107.994,7820.269h-283.8c-3.151,0-8.339-2.763-6.391-6.159l30.639-61.712a9.887,9.887,0,0,1,8.856-5.491h217.178a10.7,10.7,0,0,1,9.569,5.917l30.328,60.688C1116.5,7817.38,1111.45,7820.269,1107.994,7820.269Z" transform="translate(-817.353 -7599.94)"/><rect class="g" width="232.409" height="146.858" rx="9.611" transform="translate(31.044)"/><rect class="h" width="214.48" height="127.254" transform="translate(39.967 8.01)"/><path class="f" d="M1020.954,7823.478H937.331a1.508,1.508,0,0,1-1.489-1.745l3.526-22.026a2.45,2.45,0,0,1,2.419-2.063h75.424a2.153,2.153,0,0,1,2.13,1.843l3.232,22.149A1.633,1.633,0,0,1,1020.954,7823.478Z" transform="translate(-831.077 -7605.819)"/><path class="i" d="M1082.432,7788.551H855.223c-2.521,0-4.444-.968-4.046-2.037l9.581-25.714c.516-1.388,3.3-2.408,6.572-2.408h204.933c2.9,0,5.369.916,5.788,2.151l8.782,25.857C1087.176,7787.541,1085.109,7788.551,1082.432,7788.551Z" transform="translate(-821.263 -7601.271)"/><g transform="translate(29.263 151.379)"><rect class="g" width="236.941" height="1.197" transform="translate(0 10.171)"/><rect class="g" width="236.941" height="1.197" transform="translate(0 16.155)"/><rect class="g" width="236.941" height="1.197" transform="translate(0 23.335)"/><rect class="g" width="236.941" height="1.197" transform="translate(0 29.917)"/><rect class="g" width="1.795" height="39.49" transform="translate(28.695 0.638) rotate(17.439)"/><rect class="g" width="1.795" height="39.49" transform="translate(46.047 0.638) rotate(17.439)"/><rect class="g" width="1.795" height="39.49" transform="translate(59.809 0.638) rotate(17.439)"/><rect class="g" width="1.795" height="39.49" transform="translate(73.571 0.638) rotate(17.439)"/><rect class="g" width="1.795" height="39.49" transform="translate(87.931 0.638) rotate(17.439)"/><rect class="g" width="1.795" height="39.49" transform="translate(102.502 0.19) rotate(10.978)"/><rect class="g" width="1.795" height="39.49" transform="translate(114.881)"/><rect class="g" width="1.795" height="39.49" transform="translate(207.73 1.176) rotate(-17.439)"/><rect class="g" width="1.795" height="39.49" transform="translate(190.977 1.176) rotate(-17.439)"/><rect class="g" width="1.795" height="39.49" transform="translate(174.223 1.176) rotate(-17.439)"/><rect class="g" width="1.795" height="39.49" transform="translate(157.47 1.176) rotate(-17.439)"/><rect class="g" width="1.795" height="39.49" transform="translate(140.716 1.176) rotate(-17.439)"/><rect class="g" width="1.795" height="39.49" transform="translate(123.963 1.176) rotate(-17.439)"/></g></g></g><g transform="translate(917.622 7607.21)"><path class="j" d="M968.078,7657.387c0,.359-.1.433-.44.433q-10.657.042-21.315.1-5.211.028-10.419.051v-26.793q5.293-.719,10.587-1.437c3.372-.461,6.742-.932,10.114-1.391q4.8-.656,9.607-1.3c.471-.063.945-.112,1.409-.206.356-.073.444.019.444.383q-.016,7.352,0,14.7Q968.065,7649.661,968.078,7657.387Z" transform="translate(-935.903 -7620.045)"/><path class="j" d="M968.073,7696.448c0,.382-.1.462-.462.411q-5.114-.719-10.231-1.417-4.761-.657-9.524-1.318c-3.174-.437-6.351-.864-9.527-1.3-.783-.106-1.565-.229-2.346-.344q0-13.094,0-26.188c0-.164.066-.346-.076-.489v-.159c2.507.025,5.016.059,7.524.075q9.469.063,18.937.115c1.73.01,3.46.04,5.19.034.372,0,.48.075.48.468q-.013,8.323.006,16.641Q968.05,7689.713,968.073,7696.448Z" transform="translate(-935.903 -7624.542)"/><path class="j" d="M935.979,7666.312q.005,13.1,0,26.188l-.08.035v-26.712C936.045,7665.966,935.979,7666.148,935.979,7666.312Z" transform="translate(-935.903 -7624.563)"/><path class="j" d="M1019.273,7656.064c0,.383-.091.472-.473.474-4.994.021-9.986.068-14.979.1-1.955.013-3.91,0-5.864,0v.157q-7.054,0-14.106,0c-2.246,0-4.491.026-6.736.059-.339,0-.47-.055-.47-.44q.02-15.337.008-30.674c0-.256,0-.413.351-.464,4.91-.7,9.817-1.42,14.724-2.136l14.135-2.062c4.347-.634,8.695-1.262,13.038-1.916.39-.059.365.095.365.358q-.007,7.232,0,14.464Q1019.264,7645.028,1019.273,7656.064Z" transform="translate(-940.624 -7619.156)"/><path class="j" d="M1019.264,7703.077c0,.344-.11.376-.407.334q-4.68-.672-9.364-1.327l-9.758-1.378q-3.859-.543-7.719-1.085-4.6-.65-9.207-1.31c-1.919-.271-3.838-.556-5.762-.8-.369-.046-.4-.193-.4-.5q-.012-9.729-.039-19.458c-.007-3.633,0-7.266-.021-10.9,0-.386.072-.5.485-.5q10.423.023,20.844.01v.038q5.847,0,11.691,0c3.091,0,6.182.023,9.273.023.308,0,.4.078.4.393Q1019.256,7684.849,1019.264,7703.077Z" transform="translate(-940.616 -7624.602)"/></g></g></svg>