<svg xmlns="http://www.w3.org/2000/svg" width="342" height="306.434" viewBox="0 0 342 306.434"><defs><style>.a{fill:#060505;}.b{fill:#0165b1;}.c{fill:#f9cdac;}.d{fill:#e91c24;}.e{fill:#fdfdfd;}.f{fill:#864b2f;}.g{fill:#5998f7;}.h{fill:#fff;}.i,.j{fill:none;stroke-miterlimit:10;}.i{stroke:#fff;stroke-dasharray:12;}.j{stroke:#5998f7;stroke-dasharray:7;}</style></defs><g transform="translate(-510.749 -6924.143)"><g transform="translate(591.085 6924.143)"><path class="a" d="M602.953,7019.183c.615-1.107,1.38-2.194,1.3-3.517-.377-6.238,2.878-10.433,7.828-13.467,7.063-4.329,14.637-5.53,22.659-2.989.4.126.788.521,1.273-.053,2.218-2.619,7.317-2.66,10.557-.265a2.955,2.955,0,0,0,2.975.466,60.387,60.387,0,0,1,6.325-1.362c.69-.123.964-.185.658-.963-.991-2.519-.47-3.844,2.03-5.3a5.44,5.44,0,0,0-3.041-2.233c-6.134-1.631-11.4-4.654-14.884-10.157-3.7-5.851-3.565-13.843,2.215-19a22.32,22.32,0,0,1,5.593-3.878,3.23,3.23,0,0,0,2.041-2.918c1.478-12.17,6.426-22.9,13.832-32.531A43.8,43.8,0,0,1,679.73,6907.9c4.525-2.208,9.28-3.393,14.32-2.395,5.606,1.11,9.436,4.67,12.314,9.411a34.11,34.11,0,0,1,3.621,8.191c.285.979.546,1.183,1.534.6,5.692-3.349,11.72-5.719,18.446-5.748,3.226-.013,5.191,1.223,5.834,3.52a7.353,7.353,0,0,1-.21,4.137,37.154,37.154,0,0,1-16.547,20.473c-.666.364-.74.693-.407,1.381a67.8,67.8,0,0,1,3.269,7.875c.311.929.577.909,1.355.294a24.951,24.951,0,0,1,12.994-5.611c7.4-.8,13.113,5.344,14,11.985a16.787,16.787,0,0,1-3.507,13.079,14.9,14.9,0,0,1-9.336,5.42c-1.522.282-2.049.72-2.015,2.344a6.972,6.972,0,0,1-3.96,6.895,1,1,0,0,0-.633,1.271,5.981,5.981,0,0,1-3.3,6.308,2.543,2.543,0,0,0-1.359,1.329,13.946,13.946,0,0,1-10.63,7.494c-1.43.24-1.157.66-.559,1.461.838,1.125,1.464,2.865,2.544,3.213.9.291,2.3-1.1,3.525-1.643a25.875,25.875,0,0,1,16.406-1.763c3.929.88,5.555,2.832,5.753,6.84a1.584,1.584,0,0,0,.708,1.327c2.084,1.574,2.6,3.782,2.408,6.248a2.738,2.738,0,0,0,.66,2.374c1.9,2.048,1.635,4.512.917,6.963a7.379,7.379,0,0,0-.291,3.395c.9,6.033-2.967,9.682-7.964,10.13a9.422,9.422,0,0,0-4.843,1.458,11.147,11.147,0,0,1-8.338,1.532c-1.776-.294-2.125-.063-2.636,1.7-.32,1.11-.627,2.225-1.009,3.314-.2.571-.115.845.469,1.081a118.7,118.7,0,0,1,13.858,7.09,1.247,1.247,0,0,0,1.638-.134c1.868-1.434,3.933-2.1,6.237-1.09.7.306.8-.2,1.078-.579a20.771,20.771,0,0,1,7.92-6.708c5.2-2.459,12.2-1.363,16.114,2.673a10.248,10.248,0,0,1,2.842,6.524,1.344,1.344,0,0,0,.843,1.335,25.9,25.9,0,0,1,3.017,1.749c2.212,1.458,2.42,2.6,1.65,5.225-2.3,7.852-6.421,14.7-11.43,21.058-1.11,1.409-2.455,2.632-3.693,3.942,1.643,1.441,1.8,2.064.877,4.177a54.833,54.833,0,0,1-5.25,9.543c-2.286,3.263-2.638,3.436-6.983,2.577a15.576,15.576,0,0,0-4.967-.409c-3.724.412-6.837-1.286-9.352-4.034a3.839,3.839,0,0,1-.536-.685,5.414,5.414,0,0,0-4.052-2.937c-2.13-.386-3.417-2.123-4.154-4.136a3.443,3.443,0,0,0-1.33-1.793,113.251,113.251,0,0,0-18.4-9.993c-3.257-1.452-6.616-2.677-9.893-4.087a1.815,1.815,0,0,0-2.5.54,40.337,40.337,0,0,1-10.936,9.318,24.062,24.062,0,0,1-10.605,3.079c-6.987.491-13.3-1.911-19.585-4.455-.737-.3-1.349-.515-1.968.157a.812.812,0,0,1-.511.267c-2.665.032-3.19,2.287-4.222,4.023a21.925,21.925,0,0,1-7.808,8.07c-4.992,2.9-12.041,2.583-16.406-1.152a10,10,0,0,1-3.294-6,1.669,1.669,0,0,0-1.153-1.434c-.838-.372-1.686-.723-2.511-1.122-2.792-1.349-3.327-2.291-2.725-5.3a63.559,63.559,0,0,1,7.506-19.207,34.609,34.609,0,0,1,4.728-6.618c.331-.351.612-.765-.068-.989-1.6-.526-1.353-1.87-1.05-2.889a46.882,46.882,0,0,1,5.564-12.565,3.876,3.876,0,0,1,3.884-1.673,4.175,4.175,0,0,1,1.286.2c2.264.886,4.451-.07,6.678-.18,4.028-.2,7.208,1.664,9.7,4.695a3.572,3.572,0,0,0,3.075,1.652c2.305-.006,3.523,1.76,4.15,3.7.487,1.5,1.7,1.507,2.727,1.723.645.135.335-.646.234-1.075a36.007,36.007,0,0,1-.991-7.578,37.765,37.765,0,0,1,3.435-15.7,46.291,46.291,0,0,0,2.608-7.783c.23-.983.237-1.639-1.15-1.51a93.162,93.162,0,0,0-12.411,1.714,1.969,1.969,0,0,0-1.346,1.215c-1.176,2.355-2.961,3.833-5.75,3.647-.794-.053-1.067.327-1.349,1-1.755,4.19-4.065,7.977-8.163,10.3-2.732,1.549-5.547,2.357-8.381.208-.593-.45-.916.081-1.293.247-4.426,1.952-8.778,2.1-13.047-.432a7.69,7.69,0,0,1-3.253-3.806,2.119,2.119,0,0,0-1.635-1.417c-3.71-.8-5.948-4.736-5.959-7.734-.007-1.991-.95-3.4-1.845-4.931Zm104-95.533.005.041c-.168-1.84-1.2-3.355-1.883-5-.106-.155-.094-.445-.41-.366l.044.013a14.589,14.589,0,0,0-3.485-5.115c-2.441-2.657-2.927-2.727-6.246-.059a5.764,5.764,0,0,0-1.392,1.865,12.714,12.714,0,0,0-1.278,7.946,16.43,16.43,0,0,0,5.79,10.669c.344.291.626.588,1.077.1.759-.819,1.571-1.588,2.36-2.377.282-.157.6-.28.636-.671,1.56-.915,2.665-2.423,4.2-3.334,1.554-.922,1.5-2.045.814-3.41C707.193,6923.785,707.132,6923.671,706.951,6923.65Zm-92.915,104.564.248.2c-.048.139-.1.276-.141.417a9.114,9.114,0,0,0,2.684,9.979c2.384,1.957,7.278,2.278,10.309.665.444-.236,1.043-.351.754-1.147-.321-.883-.524-1.806-.806-2.807a9.92,9.92,0,0,0-1.689,1c-.779.7-1.1.183-1.581-.36-.628-.709-.126-1.02.355-1.365a15.621,15.621,0,0,1,8.409-3.039c.518-.027,1.188-.321,1.181.722-.005.816-.127,1.277-1.063,1.325a12.392,12.392,0,0,0-2.148.407.71.71,0,0,0-.649.652,4.535,4.535,0,0,0,2.792,4.534c2.023.635,3.754-.128,5.344-1.25,4.875-3.44,7.015-8.466,7.991-14.114.293-1.695.384-3.424.58-5.252a2.726,2.726,0,0,1,.855,1.674,13.034,13.034,0,0,1,.344,5.515c-.212,1.284.408,1.284,1.263,1.046a4.3,4.3,0,0,0,3.1-3.868,27.98,27.98,0,0,0-2.085-15.311,17.886,17.886,0,0,0-4.81-6.725c-2.026-1.774-5.663-1.931-7.035-.238,2.22,2.072,2.309,2.194,2.666,3.645-.57.235-.9-.2-1.277-.467-8.355-5.908-22.381-4.592-29.477,2.8a9.146,9.146,0,0,0-2.979,5.931,12.046,12.046,0,0,1,4.039-1.956,21.856,21.856,0,0,0-4.54,5.74c-1.317,2.69-1.52,4.917-.577,6.584,2.293-2.72,3.971-4.038,5.432-4.195-.437.6-.844,1.129-1.224,1.681a13,13,0,0,0-2.536,6.3c-.25,2.979,1.09,5.319,3.6,6.218C611.74,7031.234,612.227,7029.358,614.037,7028.214Zm102.063-5.865a16.914,16.914,0,0,1,1.482,5.382c.051,1.705.092,3.414.132,5.116.066,2.779-.49,5.431-2.705,7.457-2.766,2.528-8.763,2-11.374-1.886a28.491,28.491,0,0,1-3.923-10.615c-.255-1.276-.536-1.487-1.723-.808-4.74,2.716-9.516,5.372-14.386,7.855a2.12,2.12,0,0,1-2.652-.246c-1.38-1.163-2.846-2.224-4.253-3.354-1.852-1.489-3.682-3-5.67-4.629-1.12,4.084-2.8,7.77-4.035,11.612a30.494,30.494,0,0,0,.01,19.391c2.512,7.534,7.844,12.315,14.939,15.55,8.045,3.669,16.418,6.458,24.655,9.612,7.942,3.041,15.712,6.424,22.8,11.211A5.485,5.485,0,0,1,732,7097.4c.743,2.986,3.912,3.606,6.012,1.347a10.281,10.281,0,0,0,1.715-2.539,74.214,74.214,0,0,0,5.987-19.789c.672-3.844,1.14-7.722.052-11.584-.747-2.653-2.612-3.449-5.047-2.181a5.057,5.057,0,0,0-1.7,1.365.9.9,0,0,1-1.443.242c-8.313-5.286-17.313-9.162-26.428-12.8-.406-.162-.918-.187-1.167-.783a26.133,26.133,0,0,1,8.844,1.448c1.049.353,1.506.243,1.828-.924,2.573-9.3,2.006-18.51-.664-27.677-.127-.438-.2-.9-.8-.835A14.16,14.16,0,0,1,716.1,7022.349Zm-3.236-73.917c-1.122-.908-2.051-1.6-2.907-2.369-.874-.785-1.467-.649-2.262.212a24.028,24.028,0,0,1-14.43,7.714c-2.417.362-4.8.214-6.821-1.409-.5-.4-.726-.247-1.046.146-1.323,1.63-2.645,3.261-4,4.863a.954.954,0,0,0-.132,1.292c1.759,2.822,3.934,4.99,7.562,4.975a9.516,9.516,0,0,1,3.444.6c3.487,1.327,4.392,4.85,1.927,7.629-.422.475-.442.736-.07,1.205a6.688,6.688,0,0,1,1.286,2.763,4.7,4.7,0,0,1-4.263,6.009,8.419,8.419,0,0,1-5.906-1.705,37.973,37.973,0,0,1-4.856-4.226c-2.122-2.085-4.23-4.214-7.025-5.436-4.526-1.978-8.765-.1-9.932,4.7-1.266,5.208-.3,10.048,3.71,13.885a14.116,14.116,0,0,0,14.434,3.68,1.073,1.073,0,0,1,1.41.479,21.273,21.273,0,0,0,6.558,5.547,41.159,41.159,0,0,0,24.148,4.992,12.188,12.188,0,0,0,10.457-7.637,1.557,1.557,0,0,1,1.2-1.037,4.1,4.1,0,0,0,3.162-3.778c.057-.714-.091-1.065-.916-1.089a6.408,6.408,0,0,1-3.935-1.412c-.966-.8-1.637-.6-2.622-.062-4.52,2.445-9.418.607-10.717-4.074-.346-1.246-.892-1.5-2.037-1.6-3.917-.337-6.323-2.379-6.816-5.676a9.651,9.651,0,0,1,2.274-7.491c.381-.5.68-.539,1.164-.069a24.038,24.038,0,0,0,9.328,5.323,13.7,13.7,0,0,0,5.624.74c.464-.041.735-.053.978-.7.555-1.483,1.962-1.689,3.215-.7.459.362.928.718,1.417,1.039,5.055,3.322,11.252,3.127,16.649-.516,4.348-2.935,6.187-7.947,5.025-13.691-1.262-6.234-6.125-9.634-12.2-8.5a23.43,23.43,0,0,0-12.59,6.713c-.279.281-.43.777-1.073.743a108.588,108.588,0,0,0-8.649-19.276c-1.778,1.591-1.769,1.585-.788,3.557A8.213,8.213,0,0,1,712.863,6948.432Zm-16.014-38.448c-2.625-1.632-5.55-1.947-9.492-1.077-7.855,1.734-13.872,6.334-18.83,12.4-9.329,11.415-14.557,24.684-17.28,39.044a5.1,5.1,0,0,1-1.087,2.969l-.323-4.2a20.853,20.853,0,0,0-5.109,3.7,11.092,11.092,0,0,0-2.543,12.552c2.417,6.278,7.477,9.658,13.6,11.735.358.122.687.16.884-.225,1.513-2.926,4.762-5.074,4.017-9.022a5.468,5.468,0,0,1,.117-1.6c.6-5.024,3.469-8.218,7.9-8.548a2.957,2.957,0,0,0,2.36-1.336q5.134-6.583,10.36-13.09c4.786-5.933,9.934-11.546,15.227-17.028.415-.43,1.233-.771.186-1.528-4.7-3.4-6.641-8.254-6.632-13.826C690.2,6916.117,691.711,6911.935,696.849,6909.984ZM673.5,7093.112a20.315,20.315,0,0,0,10.864-2.908,52.668,52.668,0,0,0,9.279-7.791c.9-.893.722-1.172-.379-1.564a108.692,108.692,0,0,1-14.946-6.293c-4.825-2.583-9.027-5.927-11.626-10.8-1.132-2.123-2.437-3.445-4.789-3.823-2.007-.322-3.368-1.2-3.661-3.562-.24-1.939-1.739-2.61-3.622-2.014a7.52,7.52,0,0,0-4.171,3.5c-4.216,7.05-5.611,14.783-5.238,22.87a12.143,12.143,0,0,0,2.326,6.832c1.913,2.55,4.009,2.94,6.517.994a2.051,2.051,0,0,1,2.569-.166C661.964,7090.973,667.461,7093.032,673.5,7093.112Zm-3.1-93.7c-1.8.1-4.971.185-8.127.46a76.515,76.515,0,0,0-11.242,1.8c-.885.212-1.128.5-.545,1.361a26.528,26.528,0,0,1,2.019,3.557,30.067,30.067,0,0,1,2.48,14.409c-.03.652-.211,1.331.878,1.1a78.673,78.673,0,0,1,13.478-1.581,95.028,95.028,0,0,1,15.9.575c1.174.15,1.2.61,1.071,1.629-.148,1.162-.64,1.112-1.542.992a83.271,83.271,0,0,0-12.114-.655c-.375,0-.831-.1-.984.4-.1.334.186.529.4.72,3.024,2.7,6.046,5.394,9.268,7.856a1.87,1.87,0,0,0,2.253.12c4.6-2.362,9.05-5,13.545-7.558a2.489,2.489,0,0,0,1.434-3.234c-1.435-6.117-3.217-12.082-7.129-17.143-1.3-1.686-2.734-3.2-5.112-3.589A97.4,97.4,0,0,0,670.405,6999.413Zm90,54.333c-5.2.241-9.369,2.321-12.145,6.868a1.96,1.96,0,0,0-.367,2.038,15.742,15.742,0,0,1,1.183,8.153,85.869,85.869,0,0,1-4.985,22.274c-1.222,3.337-2.64,6.64-5.4,9.1-.621.553-.307,1.051-.01,1.554a9.527,9.527,0,0,0,6.982,4.55,4.067,4.067,0,0,0,4.6-2.2c3.162-5.107,6.036-10.371,8.734-15.726,4.274-8.488,8.61-16.956,11.631-26.007a4.9,4.9,0,0,0,.04-3C769.592,7057.562,765.665,7053.387,760.41,7053.746Zm-127.107,49.6a15.3,15.3,0,0,0,14.27-10.651c.153-.5.269-.873-.249-1.269-3.693-2.816-4.533-6.921-4.775-11.175a46.6,46.6,0,0,1,1.96-14.984c1.295-4.719,2.856-9.37,6.971-12.549.56-.433.213-.75-.017-1.1a8.921,8.921,0,0,0-6.556-3.948c-3.4-.465-4.028-.056-5.6,3.088-2.7,5.417-4.977,11.02-7.134,16.668-3.334,8.73-6.681,17.46-8.786,26.6a3.371,3.371,0,0,0-.058,1.713A10.529,10.529,0,0,0,633.3,7103.347Zm92.893-174.7a6.277,6.277,0,0,1-.673.635,47.889,47.889,0,0,0-9.12,7.756c-1.917,1.952-1.918,1.949-.623,4.422a18.509,18.509,0,0,1,.851,1.7c.277.692.577.721,1.176.3a40.927,40.927,0,0,0,12.072-12.576,16.83,16.83,0,0,0,2.7-7.348c.122-1.709-.415-2.328-2.095-2.536a15.611,15.611,0,0,0-4.661.153,38.831,38.831,0,0,0-16.036,7.134c-7.8,5.655-14.192,12.788-20.56,19.932-.561.631-1.73,1.282-1.43,2.017.411,1.007,1.777,1.019,2.82,1.208a5.493,5.493,0,0,0,1.46.019c4.918-.459,8.96-2.8,12.614-5.941.3-.262.741-.485.736-1-2.478-.2-2.478-.2-7.489,3.828a3.228,3.228,0,0,1-.455-2.088c-.154-3.412.977-7.631,5.558-8.069a6.616,6.616,0,0,1,5.27,2.064c.739.7,1.09.512,1.708-.12,3.375-3.457,6.73-6.946,10.84-9.57A10.8,10.8,0,0,1,726.2,6928.65Zm-32.9,40.466c.019-1.9-1.487-3.161-3.611-3.3-2.236-.146-4.475-.278-6.425-1.589a13.56,13.56,0,0,1-3.446-3.124c-.322-.435-.634-.807-1.106-.16q-2.492,3.425-4.991,6.844c-.3.4-.313.671.181.9,3.712,1.718,6.407,4.693,9.32,7.425,1.8,1.683,3.678,3.379,6.348,3.613a3.145,3.145,0,0,0,3.423-4.314,5.6,5.6,0,0,0-1.419-2.353c-.589-.554-.668-.9.085-1.417A3.15,3.15,0,0,0,693.292,6969.116ZM618,7090.265c-.166,1.156,1.1,1.543,2.3,2.032.927.375,1.453.477,1.785-.8.694-2.678,1.58-5.311,2.474-7.933A309.768,309.768,0,0,1,638,7049.337c.138-.288.558-.587.035-.98a3.562,3.562,0,0,0-4.775.743,41.06,41.06,0,0,0-4.276,9.414c-.43,1.278-.287,2.151,1.154,2.56.787.224,1.127.6.456,1.441a70.109,70.109,0,0,0-9.246,16.2A35.708,35.708,0,0,0,618,7090.265Zm157.568-21.2c.1-1.656-.156-1.926-1.659-2.8-1.113-.651-1.68-.7-2.243.75-2.012,5.176-4.309,10.237-6.75,15.226-4.134,8.449-8.216,16.928-13.194,24.93-.173.278-.6.537-.1.96a3.617,3.617,0,0,0,4.938-.443,41.682,41.682,0,0,0,5.08-8.856c.513-1.146.487-2.031-.861-2.557-1.031-.4-.945-.912-.211-1.689a75.242,75.242,0,0,0,12.764-19.164A21.566,21.566,0,0,0,775.569,7069.063Zm-81.554-65.047c.766,1.3,1.441,2.357,2.025,3.46,2.862,5.412,4.173,11.276,5.155,17.266.693,4.225,1.607,8.431,4.09,12.076a6.536,6.536,0,0,0,3.674,2.739c3.021.859,5.764-.629,6.109-3.318-3.442,1.5-6.644,1.029-8.787-1.481a11.541,11.541,0,0,1-2.652-9.7c.585-3.594,2.2-6.367,6.333-6.7,1.013-.082.391-.684.233-1.014a49.127,49.127,0,0,0-6.29-10.183c-.3-.367-.564-.835-1.1-.916A49.786,49.786,0,0,1,694.015,7004.016Zm35.545,7.942a7.428,7.428,0,0,0-2.88,3.4c-.194.446-.41.861.247,1.2a11.767,11.767,0,0,1,4.415,4.385c.184.288.333.595.788.465,3.373-.959,6.422-2.414,8.168-5.673a3.542,3.542,0,0,0-.795-4.527,6.544,6.544,0,0,0-4.1-1.714,25.767,25.767,0,0,0-15.247,3.079c-1.188.623-1.391,1.2-.637,2.306.333.486.592.674,1.158.565a7.045,7.045,0,0,1,2.768-.032c.7.146.974-.068,1.323-.7A4.814,4.814,0,0,1,729.56,7011.958Zm-13.988,16.854a11.541,11.541,0,0,0-1.869-6.5,4.014,4.014,0,0,0-6.763-.254c-2.474,3.228-1.348,10.144,2.027,12.447a3.794,3.794,0,0,0,5.912-1.7A9.944,9.944,0,0,0,715.572,7028.813Zm15.718-1.575a11.369,11.369,0,0,0-5.307-8.851,6.089,6.089,0,0,0-4.277-1.141c-.628.086-1.052.17-.667,1.059a49.454,49.454,0,0,1,3.462,11.865,1.593,1.593,0,0,0,.973,1.3C728.768,7033.132,731.334,7031.516,731.29,7027.237Zm-48.422-30.009c-.83-1.785-2.178-1.682-3.487-1.394a12.258,12.258,0,0,1-5.915-.39,17.3,17.3,0,0,1-11.906-10.374,22.546,22.546,0,0,1-1.376,2.009,1.806,1.806,0,0,0,.054,2.581,21.806,21.806,0,0,0,3.063,3.1,5.436,5.436,0,0,0-4.017,1.208,1.828,1.828,0,0,0-.49,2.132,1.581,1.581,0,0,0,1.811,1.142,21.415,21.415,0,0,1,2.318-.252c4.735-.062,9.472-.132,14.207-.116C679.009,6996.879,680.887,6997.1,682.868,6997.229Zm42.162,36.21a54.967,54.967,0,0,1-.137,10.884c-.064.49-.322,1.1.584,1.174a14.6,14.6,0,0,0,7.591-1.066c.662-.312.9-.546.247-1.22a4.984,4.984,0,0,1-1.177-5.65c.138-.354.362-.69,0-1.06a4.324,4.324,0,0,1-1.129-2.487c-.047-.306-.11-.66-.508-.422C728.7,7034.666,726.939,7034.19,725.031,7033.439Zm10.321-4.872a9.018,9.018,0,0,0,8.484-5.17,5.192,5.192,0,0,0-.706-5.628c-.494-.56-.728-.55-1.154.079a13.478,13.478,0,0,1-6.254,4.879c-.9.369-2.191.367-2.667,1.007-.545.734.483,1.853.4,2.862C733.32,7028.36,734.275,7028.761,735.352,7028.567Zm.729,2.336c-2.776-.087-3.26.426-3.022,2.4a3.149,3.149,0,0,0,2.818,2.909c4.146.952,9.26-2.136,10.312-6.257a4.043,4.043,0,0,0-.4-2.971c-.389-.734-.606-1.1-1.333-.187A10.538,10.538,0,0,1,736.081,7030.9Zm-29.7-24.285c1.379,2.163,2.655,4.108,3.874,6.089a44.594,44.594,0,0,1,3.174,6.407.9.9,0,0,0,.9.6c1.426,0,2.853,0,4.353,0a41.782,41.782,0,0,0-7.463-12.615,1.312,1.312,0,0,0-1.146-.49C708.915,7006.631,707.751,7006.618,706.383,7006.618Zm39.185,28.771c-.136-.031-.2-.066-.223-.048-.237.162-.467.333-.7.5-2.937,2.14-6.061,3.537-9.787,2.342-.711-.227-.83.161-.958.683a3.232,3.232,0,0,0,2.643,3.753,8.2,8.2,0,0,0,8.058-2.919A5.005,5.005,0,0,0,745.568,7035.39Z" transform="translate(-602.953 -6905.143)"/><path class="b" d="M725.327,7039.664a14.16,14.16,0,0,0,3.091.349c.6-.063.671.4.8.835,2.67,9.167,3.237,18.375.664,27.677-.322,1.167-.779,1.277-1.828.924a26.133,26.133,0,0,0-8.844-1.448c.248.6.761.621,1.167.783,9.115,3.636,18.115,7.511,26.428,12.8a.9.9,0,0,0,1.443-.242,5.057,5.057,0,0,1,1.7-1.365c2.434-1.269,4.3-.472,5.047,2.181,1.087,3.862.62,7.74-.052,11.584a74.214,74.214,0,0,1-5.987,19.789,10.281,10.281,0,0,1-1.715,2.539c-2.1,2.259-5.269,1.639-6.012-1.347a5.485,5.485,0,0,0-2.608-3.406c-7.086-4.787-14.856-8.17-22.8-11.211-8.237-3.154-16.609-5.943-24.655-9.612-7.095-3.235-12.427-8.016-14.939-15.55a30.494,30.494,0,0,1-.01-19.391c1.233-3.842,2.915-7.528,4.035-11.612,1.988,1.625,3.818,3.14,5.67,4.629,1.407,1.131,2.873,2.192,4.253,3.354a2.12,2.12,0,0,0,2.652.246c4.87-2.484,9.646-5.139,14.386-7.855,1.187-.68,1.467-.469,1.723.808a28.491,28.491,0,0,0,3.923,10.615c2.61,3.883,8.608,4.415,11.374,1.886,2.216-2.026,2.772-4.678,2.705-7.457-.04-1.7-.082-3.411-.132-5.116A16.914,16.914,0,0,0,725.327,7039.664Z" transform="translate(-612.18 -6922.457)"/><path class="c" d="M721.72,6953.763a8.213,8.213,0,0,0-1.024-3.646c-.981-1.971-.991-1.965.788-3.557a108.588,108.588,0,0,1,8.649,19.276c.644.034.795-.462,1.073-.743a23.43,23.43,0,0,1,12.59-6.713c6.08-1.135,10.943,2.265,12.2,8.5,1.162,5.745-.677,10.757-5.025,13.691-5.4,3.643-11.593,3.838-16.649.516-.489-.321-.958-.677-1.417-1.039-1.253-.989-2.66-.783-3.215.7-.243.65-.515.662-.978.7a13.7,13.7,0,0,1-5.624-.74,24.038,24.038,0,0,1-9.328-5.323c-.484-.47-.783-.429-1.164.069a9.651,9.651,0,0,0-2.274,7.491c.493,3.3,2.9,5.339,6.816,5.676,1.145.1,1.691.352,2.037,1.6,1.3,4.681,6.2,6.519,10.717,4.074.985-.534,1.655-.738,2.622.063a6.408,6.408,0,0,0,3.935,1.412c.825.024.972.375.916,1.089a4.1,4.1,0,0,1-3.162,3.778,1.557,1.557,0,0,0-1.2,1.037,12.188,12.188,0,0,1-10.457,7.637,41.159,41.159,0,0,1-24.148-4.992,21.273,21.273,0,0,1-6.558-5.547,1.073,1.073,0,0,0-1.41-.479,14.116,14.116,0,0,1-14.434-3.68c-4.012-3.836-4.976-8.676-3.71-13.885,1.167-4.8,5.405-6.677,9.932-4.7,2.8,1.221,4.9,3.351,7.025,5.436a37.973,37.973,0,0,0,4.856,4.226,8.419,8.419,0,0,0,5.906,1.705,4.7,4.7,0,0,0,4.263-6.009,6.688,6.688,0,0,0-1.286-2.763c-.372-.469-.352-.73.07-1.205,2.465-2.779,1.56-6.3-1.927-7.629a9.516,9.516,0,0,0-3.444-.6c-3.628.015-5.8-2.153-7.562-4.975a.954.954,0,0,1,.132-1.292c1.357-1.6,2.678-3.233,4-4.863.32-.394.545-.55,1.046-.146,2.018,1.624,4.4,1.771,6.821,1.409a24.028,24.028,0,0,0,14.43-7.714c.795-.861,1.388-1,2.262-.212C719.669,6952.165,720.6,6952.855,721.72,6953.763Zm4.755,14.479c-.342-3.729-1.171-8.069-4.086-11.689a5.416,5.416,0,0,0-5.825-2.143,5.3,5.3,0,0,0-4.155,4.271,16.889,16.889,0,0,0,4.007,15.245,5.814,5.814,0,0,0,7.612,1.013C726.151,6973.535,726.492,6971.319,726.476,6968.243Zm-39.928,24.369a7.1,7.1,0,0,0-1.865-9.084c-2.457-1.843-5.634-2.176-7.007-.736,4.585,1.348,5.563,1.905,6.425,3.694a6.4,6.4,0,0,0-3.672.638C684,6987.214,686.6,6988.369,686.548,6992.611Z" transform="translate(-611.81 -6910.474)"/><path class="d" d="M702.508,6910.47c-5.138,1.951-6.647,6.133-6.654,10.917-.009,5.571,1.936,10.43,6.632,13.826,1.046.757.228,1.1-.186,1.528-5.293,5.482-10.441,11.1-15.227,17.028q-5.241,6.5-10.36,13.09a2.957,2.957,0,0,1-2.36,1.336c-4.426.33-7.3,3.524-7.9,8.548a5.468,5.468,0,0,0-.117,1.6c.745,3.948-2.5,6.1-4.017,9.022-.2.384-.526.346-.884.225-6.119-2.077-11.18-5.457-13.6-11.735a11.092,11.092,0,0,1,2.543-12.552,20.855,20.855,0,0,1,5.109-3.7l.323,4.2a5.1,5.1,0,0,0,1.087-2.969c2.723-14.36,7.951-27.629,17.28-39.044,4.959-6.066,10.976-10.666,18.83-12.4C696.958,6908.523,699.883,6908.838,702.508,6910.47Z" transform="translate(-608.612 -6905.629)"/><path class="e" d="M614.415,7042.181c-1.81,1.144-2.3,3.021-2.672,4.948-2.506-.9-3.846-3.239-3.6-6.218a13,13,0,0,1,2.536-6.3c.38-.552.788-1.083,1.224-1.681-1.461.157-3.139,1.475-5.432,4.195-.944-1.667-.741-3.894.577-6.584a21.856,21.856,0,0,1,4.54-5.74,12.046,12.046,0,0,0-4.039,1.956,9.146,9.146,0,0,1,2.979-5.931c7.1-7.4,21.122-8.713,29.477-2.8.374.264.708.7,1.277.467-.357-1.451-.446-1.572-2.666-3.645,1.371-1.692,5.009-1.536,7.035.238a17.886,17.886,0,0,1,4.81,6.725,27.98,27.98,0,0,1,2.085,15.311,4.3,4.3,0,0,1-3.1,3.868c-.856.237-1.475.237-1.263-1.046a13.034,13.034,0,0,0-.344-5.515,2.726,2.726,0,0,0-.855-1.674c-.2,1.828-.288,3.558-.58,5.252-.977,5.647-3.117,10.674-7.991,14.114-1.59,1.122-3.321,1.885-5.344,1.25a4.535,4.535,0,0,1-2.792-4.534.71.71,0,0,1,.649-.652,12.392,12.392,0,0,1,2.148-.407c.936-.048,1.058-.509,1.063-1.325.007-1.043-.662-.749-1.181-.722a15.621,15.621,0,0,0-8.409,3.039c-.481.345-.983.655-.355,1.365.482.543.8,1.063,1.581.36a9.92,9.92,0,0,1,1.689-1c.281,1,.485,1.924.806,2.807.289.8-.309.911-.754,1.147-3.031,1.613-7.925,1.292-10.309-.665a9.114,9.114,0,0,1-2.684-9.979c.043-.141.093-.278.14-.417.01-.122.075-.31.022-.353C614.544,7041.916,614.462,7042.049,614.415,7042.181Zm17.558-12.1a14.461,14.461,0,0,0-4.078,1.323,3.124,3.124,0,0,0-1.6,1.447,1.693,1.693,0,0,0,.01,1.928,1.86,1.86,0,0,0,1.838.652,2.715,2.715,0,0,0,1.831-1.1A11.778,11.778,0,0,0,631.973,7030.083Zm-2.24-4.806a10.255,10.255,0,0,0-5.921-.625,1.87,1.87,0,1,0,1,3.526A21.216,21.216,0,0,0,629.733,7025.277Zm-2.414-5.436a14.644,14.644,0,0,0-5.041-2.154c-1.112-.179-2.351.617-2.337,1.5.021,1.258,1,1.644,2,1.663A14.787,14.787,0,0,0,627.318,7019.841Z" transform="translate(-603.331 -6919.11)"/><path class="b" d="M679.739,7115.126c-6.043-.083-11.54-2.142-16.878-4.727a2.051,2.051,0,0,0-2.569.166c-2.508,1.946-4.6,1.556-6.517-.994a12.143,12.143,0,0,1-2.326-6.832c-.373-8.087,1.022-15.82,5.238-22.87a7.52,7.52,0,0,1,4.171-3.5c1.883-.6,3.382.075,3.622,2.014.293,2.365,1.655,3.24,3.661,3.562,2.352.377,3.657,1.7,4.789,3.823,2.6,4.875,6.8,8.219,11.626,10.8a108.692,108.692,0,0,0,14.946,6.293c1.1.393,1.283.672.379,1.564a52.668,52.668,0,0,1-9.279,7.791A20.334,20.334,0,0,1,679.739,7115.126Z" transform="translate(-609.188 -6927.154)"/><path class="d" d="M677.381,7013.339a97.4,97.4,0,0,1,15.929,1.214c2.378.385,3.808,1.9,5.112,3.589,3.912,5.062,5.694,11.026,7.129,17.143a2.489,2.489,0,0,1-1.434,3.234c-4.495,2.556-8.94,5.2-13.545,7.558a1.87,1.87,0,0,1-2.253-.12c-3.222-2.462-6.244-5.161-9.268-7.856-.214-.191-.5-.385-.4-.72.152-.5.609-.4.984-.4a83.271,83.271,0,0,1,12.114.655c.9.12,1.394.17,1.542-.992.13-1.019.1-1.479-1.071-1.629a95.028,95.028,0,0,0-15.9-.575,78.673,78.673,0,0,0-13.478,1.581c-1.089.235-.908-.444-.878-1.1a30.067,30.067,0,0,0-2.48-14.409,26.528,26.528,0,0,0-2.019-3.557c-.583-.863-.34-1.149.545-1.361a76.515,76.515,0,0,1,11.242-1.8C672.41,7013.523,675.583,7013.437,677.381,7013.339Z" transform="translate(-609.929 -6919.069)"/><path class="f" d="M780.411,7075.7c5.255-.358,9.182,3.815,10.265,7.606a4.9,4.9,0,0,1-.04,3c-3.021,9.052-7.357,17.52-11.631,26.008-2.7,5.355-5.572,10.619-8.734,15.726a4.067,4.067,0,0,1-4.6,2.2,9.529,9.529,0,0,1-6.982-4.55c-.3-.5-.612-1,.01-1.555,2.758-2.458,4.175-5.761,5.4-9.1a85.873,85.873,0,0,0,4.985-22.274,15.743,15.743,0,0,0-1.183-8.153,1.959,1.959,0,0,1,.367-2.037C771.042,7078.017,775.213,7075.937,780.411,7075.7Z" transform="translate(-622.954 -6927.093)"/><path class="f" d="M636.3,7124.378a10.528,10.528,0,0,1-9.97-7.606,3.369,3.369,0,0,1,.058-1.713c2.105-9.141,5.452-17.871,8.786-26.6,2.157-5.648,4.434-11.251,7.134-16.668,1.567-3.145,2.195-3.554,5.6-3.089a8.92,8.92,0,0,1,6.557,3.948c.23.35.578.667.017,1.1-4.115,3.179-5.677,7.83-6.971,12.549a46.6,46.6,0,0,0-1.96,14.984c.241,4.253,1.081,8.358,4.775,11.175.518.4.4.765.249,1.269A15.3,15.3,0,0,1,636.3,7124.378Z" transform="translate(-605.951 -6926.174)"/><path class="d" d="M738.723,6930.978a10.8,10.8,0,0,0-5.338,1.915c-4.11,2.624-7.465,6.113-10.84,9.57-.618.632-.969.817-1.708.12a6.618,6.618,0,0,0-5.27-2.064c-4.581.438-5.712,4.657-5.558,8.069a3.226,3.226,0,0,0,.455,2.088c5.011-4.027,5.011-4.027,7.489-3.827.005.519-.432.742-.736,1-3.654,3.143-7.7,5.482-12.614,5.941a5.493,5.493,0,0,1-1.46-.02c-1.044-.189-2.409-.2-2.82-1.208-.3-.735.869-1.386,1.43-2.017,6.367-7.145,12.762-14.277,20.56-19.933a38.837,38.837,0,0,1,16.036-7.134,15.611,15.611,0,0,1,4.661-.153c1.68.208,2.217.826,2.095,2.536a16.835,16.835,0,0,1-2.7,7.348,40.938,40.938,0,0,1-12.072,12.576c-.6.421-.9.393-1.176-.3a18.517,18.517,0,0,0-.851-1.7c-1.295-2.473-1.294-2.47.623-4.422a47.889,47.889,0,0,1,9.12-7.756A6.2,6.2,0,0,0,738.723,6930.978Z" transform="translate(-615.479 -6907.47)"/><path class="f" d="M703.714,6977.308a3.15,3.15,0,0,1-1.639,2.529c-.754.517-.674.862-.085,1.417a5.6,5.6,0,0,1,1.419,2.353,3.145,3.145,0,0,1-3.423,4.314c-2.67-.234-4.552-1.931-6.348-3.613-2.914-2.732-5.609-5.708-9.32-7.425-.494-.229-.477-.5-.181-.9q2.508-3.412,4.991-6.844c.471-.647.784-.275,1.106.16a13.561,13.561,0,0,0,3.446,3.124c1.95,1.311,4.189,1.443,6.425,1.589C702.227,6974.147,703.733,6975.413,703.714,6977.308Z" transform="translate(-613.375 -6913.334)"/><path class="c" d="M620.222,7111.333a35.708,35.708,0,0,1,3.345-11.546,70.109,70.109,0,0,1,9.246-16.2c.672-.84.331-1.217-.456-1.441-1.44-.409-1.584-1.282-1.154-2.56a41.06,41.06,0,0,1,4.276-9.414,3.562,3.562,0,0,1,4.775-.743c.524.394.1.693-.035.98a309.768,309.768,0,0,0-13.438,34.225c-.894,2.622-1.78,5.255-2.474,7.933-.332,1.279-.858,1.178-1.785.8C621.317,7112.875,620.056,7112.489,620.222,7111.333Z" transform="translate(-605.174 -6926.21)"/><path class="c" d="M797.5,7092.8a21.576,21.576,0,0,1-2.233,6.353,75.25,75.25,0,0,1-12.764,19.164c-.734.777-.82,1.286.211,1.689,1.348.525,1.374,1.411.861,2.557a41.658,41.658,0,0,1-5.08,8.856,3.616,3.616,0,0,1-4.938.443c-.5-.423-.074-.682.1-.96,4.978-8,9.06-16.48,13.194-24.93,2.441-4.989,4.738-10.05,6.75-15.226.563-1.45,1.129-1.4,2.243-.75C797.341,7090.874,797.594,7091.144,797.5,7092.8Z" transform="translate(-624.881 -6928.88)"/><path class="b" d="M707.467,7018.622a49.827,49.827,0,0,0,8.792,2.229c.532.081.792.549,1.1.916a49.114,49.114,0,0,1,6.29,10.183c.159.33.781.932-.233,1.014-4.128.335-5.747,3.108-6.333,6.7a11.54,11.54,0,0,0,2.652,9.7c2.143,2.511,5.345,2.982,8.787,1.481-.345,2.688-3.088,4.177-6.109,3.318a6.536,6.536,0,0,1-3.674-2.739c-2.483-3.645-3.4-7.851-4.09-12.075-.982-5.989-2.292-11.854-5.155-17.266C708.908,7020.979,708.233,7019.924,707.467,7018.622Z" transform="translate(-616.405 -6919.749)"/><path class="e" d="M746.713,7027.35a4.814,4.814,0,0,0-4.8,2.758c-.349.633-.626.846-1.323.7a7.045,7.045,0,0,0-2.768.032c-.566.109-.825-.08-1.158-.565-.754-1.1-.552-1.683.637-2.306a25.767,25.767,0,0,1,15.247-3.079,6.544,6.544,0,0,1,4.1,1.714,3.542,3.542,0,0,1,.795,4.527c-1.746,3.259-4.8,4.713-8.168,5.673-.455.13-.6-.177-.788-.465a11.767,11.767,0,0,0-4.415-4.385c-.657-.34-.441-.755-.247-1.2A7.428,7.428,0,0,1,746.713,7027.35Z" transform="translate(-620.107 -6920.534)"/><path class="e" d="M714.711,6932.261c-.789.789-1.6,1.558-2.36,2.377-.451.487-.733.189-1.077-.1a16.43,16.43,0,0,1-5.79-10.669,12.714,12.714,0,0,1,1.278-7.946,5.764,5.764,0,0,1,1.392-1.865c3.319-2.668,3.8-2.6,6.246.059a14.589,14.589,0,0,1,3.485,5.115c-1.645-.487-2.912-1.645-4.343-2.5-1-.6-1.371-.51-1.577.67-.728,4.162-1.461,8.322-1.949,12.523a.967.967,0,0,0,.789,1.175C712.1,6931.508,713.408,6931.875,714.711,6932.261Z" transform="translate(-616.131 -6906.037)"/><path class="c" d="M730.737,7045.829a9.944,9.944,0,0,1-.694,3.995,3.794,3.794,0,0,1-5.912,1.7c-3.375-2.3-4.5-9.219-2.027-12.447a4.014,4.014,0,0,1,6.763.254A11.541,11.541,0,0,1,730.737,7045.829Zm-7.3-2.156a5.68,5.68,0,0,0,1.662,6.1,2.23,2.23,0,0,0,1.839.718,1.061,1.061,0,0,0,.716-.408c.177-.327-.187-.505-.427-.643a6.8,6.8,0,0,1-2.892-3.365C724.007,7045.286,723.737,7044.473,723.44,7043.673Z" transform="translate(-618.117 -6922.159)"/><path class="e" d="M748.713,7043.791c.044,4.279-2.522,5.9-5.816,4.236a1.593,1.593,0,0,1-.973-1.3,49.452,49.452,0,0,0-3.462-11.865c-.386-.889.038-.973.667-1.059a6.089,6.089,0,0,1,4.277,1.141A11.369,11.369,0,0,1,748.713,7043.791Z" transform="translate(-620.376 -6921.696)"/><path class="f" d="M691.1,7009.036c-1.981-.13-3.859-.35-5.737-.356-4.735-.016-9.472.053-14.207.116a21.415,21.415,0,0,0-2.318.252,1.581,1.581,0,0,1-1.811-1.142,1.828,1.828,0,0,1,.49-2.132,5.436,5.436,0,0,1,4.017-1.208,21.806,21.806,0,0,1-3.063-3.1,1.806,1.806,0,0,1-.054-2.581,22.546,22.546,0,0,0,1.376-2.009,17.3,17.3,0,0,0,11.906,10.374,12.258,12.258,0,0,0,5.915.39C688.917,7007.354,690.266,7007.251,691.1,7009.036Z" transform="translate(-611.18 -6916.95)"/><path class="d" d="M715.4,6932.893c-1.3-.386-2.611-.753-3.905-1.164a.967.967,0,0,1-.789-1.175c.488-4.2,1.221-8.361,1.949-12.523.206-1.18.58-1.267,1.577-.67,1.432.856,2.7,2.014,4.343,2.5l-.044-.013c-.055.337.21.315.41.366.686,1.646,1.715,3.161,1.883,5-1.633-.568-2.726-2.069-4.788-2.784v9.79C716,6932.613,715.683,6932.736,715.4,6932.893Z" transform="translate(-616.821 -6906.669)"/><path class="e" d="M743.033,7052.392c1.908.751,3.673,1.227,5.468.152.4-.237.461.116.508.422a4.321,4.321,0,0,0,1.129,2.487c.365.37.14.706,0,1.06a4.984,4.984,0,0,0,1.177,5.65c.657.674.415.907-.247,1.22a14.594,14.594,0,0,1-7.591,1.066c-.905-.071-.647-.684-.584-1.174A54.967,54.967,0,0,0,743.033,7052.392Z" transform="translate(-620.955 -6924.095)"/><path class="e" d="M754.548,7045.145c-1.077.194-2.032-.207-1.893-1.971.079-1.009-.949-2.128-.4-2.862.476-.641,1.77-.639,2.667-1.007a13.478,13.478,0,0,0,6.254-4.879c.426-.628.66-.639,1.154-.079a5.192,5.192,0,0,1,.706,5.628A9.018,9.018,0,0,1,754.548,7045.145Z" transform="translate(-622.149 -6921.72)"/><path class="e" d="M755.294,7048.795a10.538,10.538,0,0,0,8.378-4.107c.727-.916.944-.547,1.333.187a4.043,4.043,0,0,1,.4,2.971c-1.052,4.121-6.165,7.209-10.312,6.257a3.149,3.149,0,0,1-2.818-2.909C752.033,7049.221,752.518,7048.708,755.294,7048.795Z" transform="translate(-622.165 -6923.034)"/><path class="d" d="M721.662,7021.608c1.369,0,2.533.013,3.7-.006a1.312,1.312,0,0,1,1.146.49,41.782,41.782,0,0,1,7.463,12.615c-1.5,0-2.927,0-4.353,0a.9.9,0,0,1-.9-.6,44.594,44.594,0,0,0-3.174-6.407C724.317,7025.716,723.041,7023.771,721.662,7021.608Z" transform="translate(-618.232 -6920.132)"/><path class="e" d="M764.9,7054.623a5,5,0,0,1-.966,4.313,8.2,8.2,0,0,1-8.058,2.919,3.232,3.232,0,0,1-2.643-3.753c.127-.521.247-.91.958-.683,3.727,1.194,6.85-.2,9.787-2.342.233-.169.463-.341.7-.5C764.7,7054.557,764.765,7054.592,764.9,7054.623Z" transform="translate(-622.286 -6924.375)"/><path class="e" d="M716.826,6933.025v-9.79c2.061.715,3.155,2.216,4.788,2.784l-.005-.041c-.1.239.069.269.234.3.69,1.365.741,2.488-.814,3.41C719.491,6930.6,718.386,6932.11,716.826,6933.025Z" transform="translate(-617.61 -6907.471)"/><path class="d" d="M722.544,6926.686c-.165-.034-.335-.063-.234-.3C722.491,6926.4,722.552,6926.519,722.544,6926.686Z" transform="translate(-618.312 -6907.876)"/><path class="e" d="M720.1,6920.635c-.2-.05-.465-.028-.41-.366C720,6920.19,719.992,6920.479,720.1,6920.635Z" transform="translate(-617.977 -6907.088)"/><path class="a" d="M732.419,6969.376c.017,3.076-.325,5.292-2.447,6.7a5.813,5.813,0,0,1-7.612-1.013,16.889,16.889,0,0,1-4.007-15.245,5.3,5.3,0,0,1,4.155-4.271,5.417,5.417,0,0,1,5.825,2.143C731.248,6961.307,732.077,6965.646,732.419,6969.376Zm-3.374-6.949c.109.042.257.149.318.113.147-.088.071-.208-.052-.287-.379-1.227-1.158-2.144-2.474-2.047-1.24.092-1.729,1.189-1.928,2.29a13.746,13.746,0,0,0,1.608,9.874,4.478,4.478,0,0,0,1.893,1.783,1.557,1.557,0,0,0,2.3-.831c.289-.567.5-1.163-.581-1.021a1.473,1.473,0,0,1-1.493-.742,9.83,9.83,0,0,1-1.553-7.657C727.328,6962.888,727.873,6962.229,729.045,6962.427Zm-1.462-3.167a4.408,4.408,0,0,0-4.417-2.4,4.089,4.089,0,0,0-3.549,3.765c-.606,4.753.156,9.253,3.362,13.041,1.623,1.919,3.568,2.433,5.554,1.62a6.151,6.151,0,0,1-2.438-2.046,15.145,15.145,0,0,1-2.152-10.229C724.238,6960.613,725.473,6959.451,727.583,6959.26Zm2.391,7.881c-.26-.771-.112-1.946-1.3-2.094-.615-.078-.768.65-.693,1.21.12.895.132,1.991,1.257,2.171C729.839,6968.523,729.926,6967.753,729.974,6967.141Z" transform="translate(-617.753 -6911.607)"/><path class="a" d="M687.421,6997.831c.051-4.243-2.544-5.4-6.119-5.488a6.4,6.4,0,0,1,3.672-.638c-.862-1.789-1.84-2.346-6.425-3.694,1.373-1.44,4.55-1.107,7.007.736A7.1,7.1,0,0,1,687.421,6997.831Z" transform="translate(-612.683 -6915.693)"/><path class="a" d="M634.943,7032.509a11.776,11.776,0,0,1-2,4.249,2.714,2.714,0,0,1-1.831,1.1,1.86,1.86,0,0,1-1.838-.652,1.693,1.693,0,0,1-.01-1.928,3.124,3.124,0,0,1,1.6-1.447A14.461,14.461,0,0,1,634.943,7032.509Z" transform="translate(-606.301 -6921.536)"/><path class="a" d="M632.127,7026.87a21.216,21.216,0,0,1-4.917,2.9,1.87,1.87,0,1,1-1-3.526A10.255,10.255,0,0,1,632.127,7026.87Z" transform="translate(-605.726 -6920.703)"/><path class="a" d="M629.394,7020.433a14.787,14.787,0,0,1-5.374,1.01c-1-.019-1.983-.4-2-1.663-.014-.884,1.225-1.68,2.337-1.5A14.644,14.644,0,0,1,629.394,7020.433Z" transform="translate(-605.407 -6919.701)"/><path class="a" d="M615.674,7046.366c.047-.132.13-.266.269-.153.053.042-.011.23-.022.353Z" transform="translate(-604.59 -6923.295)"/><path class="a" d="M723.795,7044.607c.3.8.566,1.613.9,2.4a6.8,6.8,0,0,0,2.892,3.365c.24.137.6.316.427.643a1.061,1.061,0,0,1-.716.408,2.23,2.23,0,0,1-1.839-.718A5.68,5.68,0,0,1,723.795,7044.607Z" transform="translate(-618.472 -6923.093)"/><path class="e" d="M727.8,6959.473c-2.11.192-3.346,1.354-3.639,3.752a15.143,15.143,0,0,0,2.152,10.229,6.147,6.147,0,0,0,2.438,2.046c-1.987.813-3.931.3-5.554-1.62-3.206-3.789-3.968-8.289-3.362-13.042a4.089,4.089,0,0,1,3.549-3.765A4.409,4.409,0,0,1,727.8,6959.473Z" transform="translate(-617.973 -6911.82)"/><path class="b" d="M730.033,6963.141c-1.173-.2-1.717.46-1.966,1.475a9.83,9.83,0,0,0,1.553,7.657,1.473,1.473,0,0,0,1.493.742c1.082-.142.87.454.581,1.021a1.558,1.558,0,0,1-2.3.832,4.481,4.481,0,0,1-1.893-1.783,13.747,13.747,0,0,1-1.608-9.874c.2-1.1.688-2.2,1.928-2.29,1.317-.1,2.1.82,2.474,2.047Z" transform="translate(-618.741 -6912.321)"/><path class="e" d="M731.455,6968.57c-.048.612-.135,1.383-.734,1.287-1.126-.18-1.137-1.276-1.257-2.171-.075-.56.078-1.288.693-1.21C731.344,6966.624,731.2,6967.8,731.455,6968.57Z" transform="translate(-619.234 -6913.036)"/><path class="b" d="M730.952,6963.271c.123.079.2.2.052.287-.061.037-.209-.071-.318-.113Z" transform="translate(-619.394 -6912.625)"/></g><g transform="translate(510.749 7147.419)"><path class="g" d="M847.92,7183.21h-266.6l-12.867,12.416H546.38l-13.79-11.956H516.438a8.232,8.232,0,0,1-1.366-.408,4.811,4.811,0,0,0-4.323,4.777v61.731a4.828,4.828,0,0,0,4.828,4.829h17.229l13.575,11.768h22.077l12.2-11.768H847.92a4.829,4.829,0,0,0,4.829-4.829v-61.731A4.829,4.829,0,0,0,847.92,7183.21Z" transform="translate(-510.749 -7183.21)"/><rect class="h" width="53.37" height="49.662" rx="24.831" transform="translate(158.336 10.347)"/><line class="i" x2="93.37" transform="translate(12.324 48.144)"/><line class="i" x2="93.37" transform="translate(227.754 48.144)"/><path class="h" d="M667.392,7239.746c-2.34,2.25-13.055-1.052-15.864-9.139-2.122-6.108.5-14.282,7.07-17.071a13.807,13.807,0,0,1,13.968,2.415l4.139-4.311q2.155,6.984,4.311,13.967l-13.8-.172,2.931-6.036a8.834,8.834,0,0,0-10.518-.517,8.49,8.49,0,0,0-3.448,8.794c1.153,4.715,6.383,6.106,7.415,6.38a11.238,11.238,0,0,0,3.621.345C668,7236.6,668.408,7238.77,667.392,7239.746Z" transform="translate(-528.776 -7186.869)"/><line class="j" x2="29.664" transform="translate(169.885 48.144)"/></g></g></svg>