<svg xmlns="http://www.w3.org/2000/svg" width="900" height="154.147" viewBox="0 0 900 154.147"><defs><style>.a,.d{fill:#8f6ef6;}.b,.c,.g{fill:#fff;}.b{font-size:24px;}.b,.d,.g{font-family:BPGArial, BPG Arial;}.d{font-size:15px;}.e{fill:#ffc84f;}.f{fill:#eb9734;}.g{font-size:20px;}</style></defs><g transform="translate(-283.907 -4223.558)"><g transform="translate(931.983 4264.809)"><path class="a" d="M1091.609,4259.182H900.257q-5.169,4.983-10.336,9.972H872.187l-11.078-9.6H848.135a6.471,6.471,0,0,1-1.1-.328,3.865,3.865,0,0,0-3.473,3.838v49.589a3.877,3.877,0,0,0,3.878,3.878h13.84q5.453,4.726,10.9,9.454h17.733l9.8-9.454h191.89a3.878,3.878,0,0,0,3.879-3.878v-49.589A3.878,3.878,0,0,0,1091.609,4259.182Z" transform="translate(-843.564 -4259.182)"/><text class="b" transform="translate(51.153 38.039)"><tspan x="-29.438" y="0">move</tspan></text><text class="b" transform="translate(193.178 38.039)"><tspan x="-28.348" y="0">steps</tspan></text><rect class="c" width="43.191" height="39.892" rx="17.225" transform="translate(104.96 8.126)"/><text class="d" transform="translate(125.291 34.728)"><tspan x="-8.342" y="0">10</tspan></text></g><g transform="translate(736.977 4274.675)"><g transform="translate(0 20.637)"><rect class="e" width="66.409" height="5.79"/></g><g transform="translate(49.684)"><path class="e" d="M775.673,4291.234l-57.605,23.538,13.669-23.538L718.068,4267.7Z" transform="translate(-718.068 -4267.701)"/></g></g><rect class="f" width="377.127" height="154.147" rx="12.14" transform="translate(283.907 4223.558)"/><text class="g" transform="translate(471.078 4258.83)"><tspan x="-132.354" y="0">01101101 01101111 01110110</tspan><tspan x="-137.549" y="24">01100101 00100000 00110001</tspan><tspan x="-136.064" y="48">00110000 00100000 01110011</tspan><tspan x="-135.322" y="72">01110100 01100101 01110000</tspan><tspan x="-42.266" y="96">01110011</tspan></text></g></svg>