<svg xmlns="http://www.w3.org/2000/svg" xmlns:xlink="http://www.w3.org/1999/xlink" width="38.588" height="50.251" viewBox="0 0 38.588 50.251"><defs><style>.a{fill:none;}.b{fill:#084500;}.c{fill:#a1dd6f;}.d{clip-path:url(#a);}.e{fill:#4a5e3a;}.f{fill:#fff;}</style><clipPath id="a"><path class="a" d="M543.594,402.577v4.148a2.641,2.641,0,0,1-2.64,2.643H508.867a2.64,2.64,0,0,1-2.64-2.569l-.1-3.638a6.171,6.171,0,0,1,2.179-4.881l.269-.227q.241-.206.5-.429l1.335-1.138c.111-.094.224-.192.341-.289l2.193-1.885c.336-.289.679-.585,1.027-.886,1.1-.95,2.241-1.942,3.376-2.937.692-.6,1.38-1.212,2.053-1.811.271-.238.538-.477.8-.711a76.07,76.07,0,0,0,7.445-7.2c2.315-3.215,2.016-7.1-2.744-7.748-3.23-.437-6.2,3.528-7.781,6.12a2.65,2.65,0,0,1-3.447,1.009l-7.147-3.573a2.65,2.65,0,0,1-1.249-3.41c5.281-12.287,14.385-14.5,20.695-13.982.1.007.2.017.3.024s.178.017.267.027c.279.032.552.067.819.106s.526.084.777.134.5.1.733.155c.318.074.624.156.913.24.245.072.479.146.7.222l.293.1c.2.069.395.143.6.22l.3.116c.21.082.425.168.64.26l.274.118c.2.089.41.18.617.277l.308.148c.1.049.205.1.308.153s.205.1.308.158.205.109.308.165.205.113.309.173.2.116.306.178.2.123.305.185c4.052,2.507,7.745,6.9,8.2,15.337.482,8.867-7.027,16.275-11.514,19.884l-.064.051c-.083.068-.167.135-.249.2l-.332.26a.1.1,0,0,0-.02.017q-.407.31-.762.577a.469.469,0,0,0-.042.029c-.1.077-.2.151-.3.22l-.311.225c-.264.185-.489.341-.669.464l-.112.074c-.244.165-.38.249-.38.249h12.149A2.642,2.642,0,0,1,543.594,402.577Z" transform="translate(-505.065 -359.118)"/></clipPath></defs><path class="b" d="M525.735,409.239q.355-.267.763-.577C526.229,408.871,525.972,409.064,525.735,409.239Z" transform="translate(-509.414 -369.684)"/><path class="c" d="M543.594,402.577v4.148a2.641,2.641,0,0,1-2.64,2.643H508.867a2.64,2.64,0,0,1-2.64-2.569l-.1-3.638a6.171,6.171,0,0,1,2.179-4.881l.269-.227q.241-.206.5-.429l1.335-1.138c.111-.094.224-.192.341-.289l2.193-1.885c.336-.289.679-.585,1.027-.886,1.1-.95,2.241-1.942,3.376-2.937.692-.6,1.38-1.212,2.053-1.811.271-.238.538-.477.8-.711a76.07,76.07,0,0,0,7.445-7.2c2.315-3.215,2.016-7.1-2.744-7.748-3.23-.437-6.2,3.528-7.781,6.12a2.65,2.65,0,0,1-3.447,1.009l-7.147-3.573a2.65,2.65,0,0,1-1.249-3.41c5.281-12.287,14.385-14.5,20.695-13.982.1.007.2.017.3.024s.178.017.267.027c.279.032.552.067.819.106s.526.084.777.134.5.1.733.155c.318.074.624.156.913.24.245.072.479.146.7.222l.293.1c.2.069.395.143.6.22l.3.116c.21.082.425.168.64.26l.274.118c.2.089.41.18.617.277l.308.148c.1.049.205.1.308.153s.205.1.308.158.205.109.308.165.205.113.309.173.2.116.306.178.2.123.305.185c4.052,2.507,7.745,6.9,8.2,15.337.482,8.867-7.027,16.275-11.514,19.884l-.064.051c-.083.068-.167.135-.249.2l-.332.26a.1.1,0,0,0-.02.017q-.407.31-.762.577a.469.469,0,0,0-.042.029c-.1.077-.2.151-.3.22l-.311.225c-.264.185-.489.341-.669.464l-.112.074c-.244.165-.38.249-.38.249h12.149A2.642,2.642,0,0,1,543.594,402.577Z" transform="translate(-505.006 -359.118)"/><g transform="translate(0.059)"><g class="d"><path class="e" d="M500.949,372.431a7.057,7.057,0,0,1,8,3.355c2.839,4.9,8.257,2.322,13.934-1.806s9.548-.516,10.838,3.355-.258,9.547-6.451,14.192-7.678,11.389-4.387,13.676c5.174,3.6,20.127,2.839,22.191,5.161s-22.965,11.611-24.514,11.353-19.094-3.1-22.19-10.063Z" transform="translate(-503.637 -361.897)"/></g></g><path class="f" d="M517.493,414.121v-.008l2.691-10.061h0l.046-.172-8.416-1.247-.31,1.2-2.064,7.75a2.7,2.7,0,0,0-1.576-1.1,1.947,1.947,0,1,0-.993,3.652,2.167,2.167,0,0,0,2.817-1.2h0l0,.017v-.011l2.106-7.871,7.234.989-1.782,6.691a2.7,2.7,0,0,0-1.576-1.1,1.967,1.967,0,1,0,1.8,2.552h0Zm-5.539-9.648.143-.535,7.221,1.035-.131.49Z" transform="translate(-504.99 -368.399)"/></svg>