<svg xmlns="http://www.w3.org/2000/svg" xmlns:xlink="http://www.w3.org/1999/xlink" width="900" height="423.746" viewBox="0 0 900 423.746"><defs><style>.a,.f,.g,.u{fill:none;}.b,.c,.h,.i,.j,.m,.n,.r,.s,.t,.u,.v,.w,.x{fill-rule:evenodd;}.b{fill:url(#a);}.c{fill:#e3f5f6;}.d{clip-path:url(#b);}.e,.i{fill:#a1dd6f;}.f,.g{stroke:#fbc732;stroke-linecap:round;}.f,.g,.u{stroke-miterlimit:10;}.f{stroke-width:3.301px;}.g{stroke-width:1.392px;}.h{fill:#fcb95d;}.j,.q{opacity:0.15;}.k{opacity:0.5;}.l{fill:#243330;}.m,.o{fill:#d1d3d4;}.n{fill:#36a5ad;}.p{fill:#bcbec0;}.r{fill:#c98121;}.s{fill:#f7805c;}.ah,.t{fill:#7fd1d8;}.u{stroke:#3e6569;stroke-width:7.837px;}.v{opacity:0.2;}.w{fill:#243e41;}.x{fill:#171f1c;}.y{fill:#5b5b5b;}.z{fill:#111;}.aa{fill:#f2cc83;}.ab{fill:#d6a85f;}.ac{fill:#f7cf43;}.ad{fill:#db9c42;}.ae{fill:#c69032;}.af{fill:#f4be67;}.ag{fill:#b77c27;}</style><linearGradient id="a" x1="-0.313" y1="0.407" x2="1.933" y2="0.657" gradientUnits="objectBoundingBox"><stop offset="0" stop-color="#fff"/><stop offset="1" stop-color="#f7cf43"/></linearGradient><clipPath id="b"><path class="a" d="M740.046,286.4a545.026,545.026,0,0,0-263.6-49.343c-36.807,2.389-75.335,9.41-103.6,33.109-32.212,27.01-45.352,72.526-39.434,114.145s28.806,79.384,57.871,109.755c59.4,62.067,146.86,96.18,232.6,90.721,51.614-3.286,101.854-20.05,153.56-21.1,54.435-1.106,107.569,15.215,161.586,22.031,61.515,7.763,126.1,2.634,181.624-24.967s100.617-79.939,109.826-141.254-23.1-129.208-80.534-152.556c-37.085-15.075-78.8-11.135-118.611-6.949l-288.2,30.3" transform="translate(-332.034 -235.936)"/></clipPath></defs><g transform="translate(-332.034 -214.47)"><path class="b" d="M580.746,596.339c43.785-22.627,65.7-21.751,100.414-22.721s70.463.963,103.066-10.99,61.618-42.789,58.027-77.329c-1.87-17.984-12.214-35.059-9.917-52.994,2.089-16.3,14.313-29.523,27.649-39.129s28.4-16.859,40.63-27.842c22.28-20.014,32.89-52.187,26.885-81.528s-28.4-54.76-56.75-64.414c-28.967-9.863-61.111-3.667-89.547,7.636-27.617,10.976-54.281,27.6-69.8,52.946-11.017,18-15.647,39.059-22.992,58.845s-18.713,39.693-37.7,48.9c-24.231,11.75-52.755,2.89-79.091-2.734-37.849-8.083-77.934-8.857-114.719,3.17s-69.929,37.823-85.986,73.036-12.8,79.769,12.121,109.375c22.363,26.564,53.811,49.692,88.531,50.08s59.65-4.984,109.178-24.312" transform="translate(1.323 0)"/><path class="c" d="M827.97,549.558c-4.95,3.048-11.223,5.139-16.451,8.276-21.957,14.638-37.641,33.458-60.643,43.911-6.448,3.314-12.954,6.567-19.521,9.679-32.837,15.557-67.217,27.577-103.589,25.64A119.515,119.515,0,0,1,606.705,633c-34.783-9.962-66.037-35.185-71.162-70.29-3.2-21.935,3.942-45.345-4.2-65.964-7.4-18.742-25.911-30.767-44.656-38.159s-38.836-11.469-56.677-20.833c-32.51-17.065-54.819-52.1-56.533-88.774s17.234-73.637,48.013-93.656c31.449-20.457,71.514-22.787,108.715-17.931,36.128,4.716,72.825,16.426,98.905,41.87,18.52,18.069,30.372,41.7,45.067,62.993S708.388,383.781,733.731,389c32.339,6.656,63.562-12.474,93.162-27.1,42.539-21.018,89.939-34.026,137.28-30.827s94.5,23.858,124.2,60.862a136.531,136.531,0,0,1,28.186,64.679,128.511,128.511,0,0,1,1.372,23.55c-4.728,25.991-19.447,43.7-38.643,57.846a190.038,190.038,0,0,1-20.691,12.917c-23.329,10.046-48.423,11.091-73.516,6.909-52.279-8.365-107.694-33.458-157.114-8.276" transform="translate(1.884 0.947)"/><g transform="translate(332.034 236.914)"><g class="d"><g transform="translate(107.108 38.56)"><g transform="translate(0.011 10.068)"><path class="e" d="M482.266,282.445l42.347,15.587L513.72,308.766l18.022,11.192-31.493-8.234,11.468-10.011Z" transform="translate(-432.306 -282.445)"/><path class="e" d="M434.484,316.637l69.636,3.066-10.994,20.909,31.775,8.014-50.211,2.661,12.18-20.115Z" transform="translate(-434.484 -280.886)"/></g><path class="e" d="M616.32,272.815l3.885,44.957-14.346-5.3-2.473,21.07-5.929-32.007,13.936,6.127Z" transform="translate(-427.045 -272.815)"/><path class="e" d="M631.09,334.716l32.9-7.868-2.337,11.223,15.895-.5-23.071,7.946,3-11.011Z" transform="translate(-425.512 -270.352)"/><g transform="translate(119.436 57.463)"><path class="f" d="M560.372,327.773S563.81,358,595.21,352.95" transform="translate(-548.171 -327.773)"/><path class="f" d="M560.372,327.773S563.81,358,595.21,352.95" transform="translate(-548.171 -327.773)"/><path class="f" d="M548.979,376.7s22.357-20.638-.276-42.981" transform="translate(-548.703 -327.502)"/><path class="f" d="M594.578,361.892s-29.053-9.037-37.082,21.736" transform="translate(-548.302 -326.275)"/></g><g transform="translate(0 1.902)"><path class="g" d="M444.56,274.634s-2.114,12.654,11.2,14.247" transform="translate(-434.019 -274.634)"/><path class="g" d="M444.56,274.634s-2.114,12.654,11.2,14.247" transform="translate(-434.019 -274.634)"/><path class="g" d="M434.473,293.144s11.457-5.773,4.874-17.456" transform="translate(-434.473 -274.586)"/><path class="g" d="M454.579,292.317s-10.73-7.035-17.554,4.509" transform="translate(-434.357 -273.925)"/></g></g><g transform="translate(259.693 64.31)"><g transform="translate(131.556 268.805)"><path class="h" d="M745.654,712.287s-1.048,14.713-2.62,19.492,9.99,3.292,10.5,3.472,9.456-5.716,9.456-5.716-5.728-1.743-3.854-19.944S745.654,712.287,745.654,712.287Z" transform="translate(-704.559 -547.804)"/><path class="i" d="M771.487,686.658c0,8.761-5.717,24.645-7.187,30.955s-26.219,4.17-26.219,4.17-10.161-41.415-8.347-62.54c.771-9-9.862-14.1-11.053-40.9a102.009,102.009,0,0,0-3.387-22.519c-3.24-11.881-7.7-18.9-8.869-24.347-1.758-8.232,8.7-14.483,14.351-16.668s32,9.136,32,9.136a190.155,190.155,0,0,1,6.278,18.419c5.074,16.974,10.677,40.568,7.411,49.915-2.044,5.839-1.235,22.787,0,26.512S771.487,677.9,771.487,686.658Z" transform="translate(-706.229 -554.532)"/><path class="j" d="M759.052,582.365a78.983,78.983,0,0,0-25.811,8.563c-5.373,2.827-11.632,4.24-17.947,4.9-3.24-11.881-7.7-18.9-8.869-24.347-1.758-8.232,8.7-14.483,14.351-16.668s32,9.136,32,9.136A190.155,190.155,0,0,1,759.052,582.365Z" transform="translate(-706.229 -554.532)"/><g class="k" transform="translate(41.095 83.202)"><g transform="translate(0.973)"><path class="l" d="M750.409,634.315l.247.484,2.358,4.62,3.946,7.733q.411-.083.834-.136.273-.033.547-.056c-1.078-1.814-2.6-4.37-4.129-6.944l-3.531-5.91Z" transform="translate(-746.284 -634.107)"/><path class="l" d="M749.184,635.21l.891,1.746,1.881,3.688,3.527,6.913a8.533,8.533,0,0,1,1.056-.341c-.861-1.448-2.238-3.763-3.625-6.1l-3.162-5.294-.43-.714Z" transform="translate(-746.34 -634.061)"/><path class="l" d="M755.009,647.748c-1.291-2.174-6.369-10.719-7.01-11.73l-.012.007,5.951,11.671.661.269Q754.8,647.85,755.009,647.748Z" transform="translate(-746.395 -634.02)"/><path class="l" d="M747.441,637.756c.177.225,5.886,9.843,5.886,9.843l-1.094-.441Z" transform="translate(-746.42 -633.941)"/><path class="l" d="M746.94,639.29c.141.18,4.7,7.862,4.7,7.862l-.873-.351Z" transform="translate(-746.442 -633.871)"/><path class="l" d="M746.464,640.351c.113.143,3.754,6.28,3.754,6.28l-.7-.279Z" transform="translate(-746.464 -633.823)"/></g><g transform="translate(0 2.412)"><path class="l" d="M758.693,641.882l-12.545,4.254c.081.425.153.853.216,1.283,3.377-1.351,8.341-3.336,12.623-5.057Z" transform="translate(-745.505 -636.165)"/><path class="l" d="M757.867,640.567l-12.049,4.086c.092.352.175.708.25,1.064,2.836-1.135,7.945-3.178,12.006-4.812Z" transform="translate(-745.52 -636.225)"/><path class="l" d="M757.064,639.31l-11.081,3.758-.45.612c.05.157.1.315.144.473,1.956-.782,7.624-3.048,11.526-4.619Z" transform="translate(-745.533 -636.282)"/><path class="l" d="M756.288,638.2l-9.342,3.168-.8,1.089s6.458-2.578,10.245-4.1Z" transform="translate(-745.505 -636.332)"/><path class="l" d="M755.548,637.221l-7.91,2.682-.64.872s5.676-2.267,8.619-3.456Z" transform="translate(-745.466 -636.377)"/><path class="l" d="M755.039,636.414l-6.635,2.25-.512.7s4.927-1.967,7.176-2.877C755.056,636.461,755.047,636.438,755.039,636.414Z" transform="translate(-745.426 -636.414)"/></g></g><g transform="translate(32.629 179.285)"><path class="m" d="M794.736,745.528c-5.424.727-16.4-.1-24.385-.547h-.006c-.254-.019-.49-.032-.732-.045-4.163-.223-7.4-.324-8.392-.006-.108.039-.242.07-.4.109-.4.1-.942.2-1.611.305-6.022.936-21.576,1.865-21.768-2.807a11.485,11.485,0,0,1,.255-2.681c.038-.191.076-.382.128-.573.006-.013.006-.019.013-.031.057-.255.121-.516.2-.777.006-.006.006-.006.006-.014,1.375-4.825,4.705-9.926,5.443-9.486,9.881,5.882,19.546-1.077,21.539-2.662.248-.2.375-.312.375-.312s.375.025,1.088.1c.389.045.886.1,1.471.173.318.038.662.083,1.037.134.128.019.255.031.383.056.305.039.631.083.974.134.166.026.331.051.51.083h.006q1.4.22,3.132.542c.72.134,1.471.28,2.267.445,1.2.243,2.483.529,3.846.847.128.039.261.083.389.128.681.21,1.349.445,2.005.687a41.88,41.88,0,0,1,6.271,2.916l.006.006C798.027,737.539,801.427,744.637,794.736,745.528Z" transform="translate(-737.435 -726.002)"/><path class="n" d="M788.772,732.247a12.976,12.976,0,0,0-9.3,9.455s-4.252-.783-9.073-1.49c-.414-.057-.841-.115-1.267-.171-.769-.109-1.553-.216-2.329-.313-.669-.083-1.331-.159-1.974-.229-3.578-.382-6.672-.522-7.678-.045-2.726,1.286-19.648,4.5-19.463.4a2.038,2.038,0,0,1,.128-.573c.006-.013.006-.019.013-.031a4.9,4.9,0,0,0,.2-.777c.006-.006.006-.006.006-.014,1.375-4.825,4.705-9.926,5.443-9.486,9.881,5.882,19.546-1.077,21.539-2.662.248-.2.375-.312.375-.312s.375.025,1.088.1c.389.045.886.1,1.471.173.318.038.662.083,1.037.134.128.019.255.031.383.056.305.039.63.083.974.134.166.026.331.051.51.083h.006q1.4.22,3.132.542c.72.134,1.471.28,2.267.445,1.2.243,2.483.529,3.846.847.128.039.261.083.389.128.681.21,1.349.445,2.005.687a41.88,41.88,0,0,1,6.271,2.916Z" transform="translate(-737.424 -726.002)"/><g transform="translate(26.435 0.268)"><path class="o" d="M769.2,726.582c-.184.172-.445.42-.763.746a18.934,18.934,0,0,0-2.992,3.826,9.049,9.049,0,0,0-.694,1.49c-.07.2-.128.4-.178.605l-1.853-.453a9.681,9.681,0,0,1,.967-2.406v-.007a14.285,14.285,0,0,1,.9-1.432,21.078,21.078,0,0,1,2.222-2.692c.318.038.662.083,1.037.134.128.019.255.031.383.056C768.53,726.487,768.856,726.531,769.2,726.582Z" transform="translate(-762.718 -726.258)"/></g><g transform="translate(32.521 1.216)"><path class="o" d="M774.848,727.611c-1.063,1-3.794,3.788-4.45,6.5l-1.859-.452c.617-2.547,2.63-5.01,4.042-6.494C773.3,727.3,774.052,727.445,774.848,727.611Z" transform="translate(-768.539 -727.165)"/></g><g transform="translate(39.207 2.636)"><path class="o" d="M780.8,729.21c-1.242,1.236-3.432,3.68-4.012,6.075l-1.852-.453a15.582,15.582,0,0,1,3.858-6.309C779.472,728.733,780.14,728.969,780.8,729.21Z" transform="translate(-774.933 -728.523)"/></g><g transform="translate(20.873)"><path class="p" d="M765.9,739.728a7.908,7.908,0,0,1-1.5.968,10.9,10.9,0,0,0-4.489,4.342c-1.127,1.96-1.477,3.935-1.082,4.972l-1.191.453a7.118,7.118,0,0,1,.662-5.119,12.311,12.311,0,0,1,5.527-5.787c.031-.019.07-.039.1-.057,3.171-1.649,2.648-3.54,1.063-6.844-.089-.191-.185-.388-.286-.592-.178-.363-.357-.732-.528-1.1-.09-.19-.172-.382-.249-.567a4.5,4.5,0,0,1-.191-3.438,2.989,2.989,0,0,1,.376-.643c.248-.2.375-.312.375-.312s.375.025,1.088.1l.173.5a1.616,1.616,0,0,0-.853.873,2.548,2.548,0,0,0-.07,1.489,6.242,6.242,0,0,0,.5,1.459q.18.372.363.744c.058.115.108.229.165.338C767.27,734.413,768.734,737.411,765.9,739.728Z" transform="translate(-757.399 -726.002)"/></g><g transform="translate(31.44 0.458)"><path class="p" d="M772.336,733.469a23.89,23.89,0,0,1-1.623,3.228,17.257,17.257,0,0,0-1.675,3.5,5.5,5.5,0,0,0,.5,4.464l-.56.305h-.006l-.553.3c-.064-.115-.121-.229-.179-.344a6.629,6.629,0,0,1-.472-4.9,17.686,17.686,0,0,1,1.834-3.954,21.772,21.772,0,0,0,1.541-3.05,3.429,3.429,0,0,0,.216-1.056,3.9,3.9,0,0,0-.745-2.356,8.914,8.914,0,0,0-2.4-2.286c-.306-.2-.5-.319-.516-.325l.306-.554c.305.039.631.083.974.134.166.026.331.051.51.083h.006a10.328,10.328,0,0,1,1.942,1.885,6.126,6.126,0,0,1,.987,1.833A4.564,4.564,0,0,1,772.336,733.469Z" transform="translate(-767.505 -726.44)"/></g></g></g><g transform="translate(61.151 263.901)"><path class="h" d="M656.809,710.018s-2.884,14.466-5.043,19.008,9.5,4.519,9.982,4.762,10.1-4.487,10.1-4.487-5.464-2.447-1.325-20.269S656.809,710.018,656.809,710.018Z" transform="translate(-638.319 -542.936)"/><path class="i" d="M638.926,564.682c.482,5.683,4.194,13.435,5.868,26.147a102.734,102.734,0,0,1,.419,21.885c-1.889,23.14,5.281,31.046,6.017,38.475a11.141,11.141,0,0,1-.177,3.487c-4.448,20.732.444,63.093.444,63.093s2.125.455,5.168.942c7.266,1.162,19.785,2.487,21.365-1.793,2.25-6.076,9.913-21.12,11.01-29.81s-.734-24.422-1.491-28.278.563-20.765,3.322-26.3c3.147-6.322,2.722-20.385,1.171-34.275-1.8-16.09-5.122-31.944-6.19-35.236,0,0-24.726-14.526-30.6-13.074S638.213,556.294,638.926,564.682Z" transform="translate(-638.893 -549.841)"/><path class="j" d="M638.926,564.682c.482,5.683,4.194,13.435,5.868,26.147,6.561-.018,15.378-2.659,24.1-4.567,7.3-1.593,16.718,5.891,23.153,11.992-1.8-16.09-5.122-31.944-6.19-35.236,0,0-24.726-14.526-30.6-13.074S638.213,556.294,638.926,564.682Z" transform="translate(-638.893 -549.841)"/><g class="k" transform="translate(29.443 53.519)"><g transform="translate(0.013)"><path class="l" d="M667.563,603l.469.716,4.481,6.835,7.5,11.44q-.435.5-.838,1.035c-.173.232-.341.467-.505.7l-6.278-11.073-5.329-9.447Z" transform="translate(-667.065 -600.938)"/><path class="l" d="M669.739,602.025l1.694,2.583,3.577,5.455,6.708,10.225a13.445,13.445,0,0,0-1.292,1.179l-5.511-9.722-4.774-8.461q-.34-.609-.643-1.146Z" transform="translate(-666.954 -600.983)"/><path class="l" d="M682.344,619.791c-1.967-3.464-9.7-17.086-10.579-18.754l.018-.009,11.326,17.258-.151,1.115C682.75,619.525,682.545,619.654,682.344,619.791Z" transform="translate(-666.851 -601.028)"/><path class="l" d="M674.578,601.631c.171.418,8.875,15.741,8.875,15.741l.25-1.841Z" transform="translate(-666.723 -601.001)"/><path class="l" d="M677.07,602.144c.136.334,7.088,12.57,7.088,12.57l.2-1.469Z" transform="translate(-666.609 -600.977)"/><path class="l" d="M678.893,602.321c.108.266,5.662,10.042,5.662,10.042l.163-1.173Z" transform="translate(-666.526 -600.969)"/></g><g transform="translate(0 2.336)"><path class="l" d="M671.866,620.106l15.618-13.844q.779.665,1.587,1.3c-4.486,3.568-11.08,8.809-16.779,13.325Q672.08,620.5,671.866,620.106Z" transform="translate(-666.834 -603.125)"/><path class="l" d="M670.694,617.956l15-13.3q.616.6,1.261,1.172c-3.765,3-10.553,8.392-15.96,12.673C670.9,618.322,670.794,618.139,670.694,617.956Z" transform="translate(-666.887 -603.198)"/><path class="l" d="M669.584,615.864l13.8-12.229,1.187-.137c.176.191.354.38.534.566-2.6,2.067-10.124,8.054-15.322,12.166C669.715,616.109,669.649,615.986,669.584,615.864Z" transform="translate(-666.938 -603.251)"/><path class="l" d="M668.629,613.943l11.631-10.31,2.116-.246s-8.571,6.822-13.618,10.813C668.715,614.115,668.672,614.029,668.629,613.943Z" transform="translate(-666.981 -603.256)"/><path class="l" d="M667.807,612.186l9.848-8.729,1.692-.194s-7.534,6-11.458,9.1Z" transform="translate(-667.019 -603.262)"/><path class="l" d="M667.053,610.88l8.261-7.322,1.354-.157s-6.54,5.206-9.541,7.572C667.1,610.942,667.078,610.91,667.053,610.88Z" transform="translate(-667.053 -603.256)"/></g></g><path class="q" d="M650.6,650.258c-4.448,20.732.444,63.093.444,63.093s2.125.455,5.168.942c.011-.441,5.229.259,4.99-.184-9.913-18.353-7.853-49.009-8.539-57.023-.159-1.845-.414-7.435-1.886-10.316A11.141,11.141,0,0,1,650.6,650.258Z" transform="translate(-638.444 -545.424)"/><g transform="translate(5.476 185.117)"><path class="m" d="M700.6,749.939c-5.473.041-16.259-2.156-24.123-3.6h-.006c-.25-.05-.482-.092-.721-.136-4.1-.742-7.3-1.248-8.324-1.057-.112.024-.249.039-.412.056-.4.046-.96.085-1.636.1-6.093.175-21.64-.852-21.244-5.513a11.476,11.476,0,0,1,.589-2.626c.062-.185.123-.37.2-.553.008-.011.009-.018.017-.029.089-.246.185-.5.294-.747.006-.005.006-.005.007-.011,1.969-4.616,5.912-9.259,6.589-8.729,9.066,7.074,19.527,1.381,21.7.059.271-.165.411-.262.411-.262s.37.072,1.069.231l1.438.354c.31.078.646.165,1.013.262.123.036.248.064.371.106.3.075.615.161.949.254.161.046.323.092.5.146h.006q1.364.394,3.039.929c.7.224,1.424.463,2.194.727,1.156.39,2.4.835,3.709,1.322.121.054.249.115.369.176.649.294,1.284.611,1.9.933a41.822,41.822,0,0,1,5.856,3.679l.005.007C704.872,742.424,707.355,749.893,700.6,749.939Z" transform="translate(-644.13 -726.89)"/><path class="n" d="M696.338,736.017a12.971,12.971,0,0,0-10.413,8.214s-4.122-1.31-8.814-2.615c-.4-.109-.82-.219-1.236-.329-.751-.2-1.514-.409-2.273-.6-.652-.166-1.3-.324-1.929-.475-3.5-.827-6.554-1.354-7.612-1.006-2.865.934-20.057,2-19.36-2.041a2.005,2.005,0,0,1,.2-.553c.008-.011.009-.018.017-.029a4.864,4.864,0,0,0,.294-.747c.006-.005.006-.005.007-.011,1.969-4.616,5.912-9.259,6.589-8.729,9.066,7.074,19.527,1.381,21.7.059.271-.165.411-.262.411-.262s.37.072,1.069.231l1.438.354c.31.078.646.165,1.013.262.123.036.248.064.371.106.3.075.615.161.949.254.161.046.323.092.5.146h.006q1.364.394,3.039.929c.7.224,1.424.463,2.194.727,1.156.39,2.4.835,3.709,1.322.121.054.249.115.369.176.649.294,1.284.611,1.9.933a41.822,41.822,0,0,1,5.856,3.679Z" transform="translate(-644.105 -726.89)"/><g transform="translate(27.446 0.586)"><path class="o" d="M677.588,728.072c-.2.147-.495.362-.851.643a18.98,18.98,0,0,0-3.448,3.422,9.055,9.055,0,0,0-.875,1.391c-.094.187-.177.382-.252.578l-1.782-.681a9.7,9.7,0,0,1,1.262-2.267v-.006a14.332,14.332,0,0,1,1.071-1.309,21.213,21.213,0,0,1,2.542-2.393c.31.078.646.165,1.013.262.123.036.248.064.371.106C676.938,727.893,677.254,727.979,677.588,728.072Z" transform="translate(-670.38 -727.45)"/></g><g transform="translate(33.372 2.283)"><path class="o" d="M683.065,729.8c-1.18.858-4.24,3.283-5.23,5.892l-1.788-.682c.932-2.449,3.236-4.641,4.824-5.937C681.569,729.3,682.3,729.537,683.065,729.8Z" transform="translate(-676.047 -729.074)"/></g><g transform="translate(39.849 4.507)"><path class="o" d="M688.764,732.134c-1.386,1.071-3.865,3.221-4.741,5.524l-1.782-.681a15.592,15.592,0,0,1,4.618-5.776C687.51,731.495,688.144,731.812,688.764,732.134Z" transform="translate(-682.242 -731.201)"/></g></g></g><path class="r" d="M663.8,368.153s25.628-.366,27.825-10.252,2.564-15.277,0-21,14.645,6.357,14.645,6.357-1.831,7.688,0,13.546,5.858,5.975,12.083,5.368,0,19.162,0,19.162-22.3,2.417-23.963,3.222-24.732.294-25.831,0S663.8,368.153,663.8,368.153Z" transform="translate(-576.607 -295.715)"/><path class="s" d="M656.411,514.122c1.042.079,6.008-2.012,13.949,3.026s16.059,12.911,22.068,11.7,1.983-8.06-1.492-9.564c-3.13-1.354-9.037-3.115-7.758-5.361s4.066-1.991,6.875.008,5.049.073,4.085-1.048-7.927-5.117-9.607-5.454c-1.242-.249-6.889,1.452-9.856.736s-14.753-4.628-14.753-4.628Z" transform="translate(-576.944 -288.05)"/><path class="t" d="M824.076,434.269s-13.453,38.993-27.466,45.541c-12.5,5.843-22.659,4.846-31.646,1.685s-14.154-13.262-14.154-13.262l.128,1.311.923,5.361,28.421,108.27-152.754,3.371L638.87,475.612l.777-6.895.4-3.483-2.229,9.627A71.516,71.516,0,0,1,624.6,462.675a74.674,74.674,0,0,1-13.9-25.562c-2.769-8.64-4.877-16.216-6.417-22.876-8.932-38.633,1.177-46.572,11.6-53.257.357-.21.719-.414,1.082-.611a.263.263,0,0,1,.045-.02c14.14-7.684,33.514-10.231,55.881-3.03A105.8,105.8,0,0,1,684.43,361.8c1.987.9,9.583,17.075,21.87,11.383.261-.121.522-.241.777-.369,11.218-5.412,13.784-11.587,15.624-14.122,0-.006.006-.013.013-.019.064-.076.121-.153.178-.229,1.292-1.63,4.438-3.355,8.742-4.82,11.689-3.979,31.974-6.36,42.485,1.018s20.2,20.788,25.683,39.213C809.015,422.151,824.076,434.269,824.076,434.269Z" transform="translate(-579.476 -295.054)"/><path class="u" d="M693.892,394.579,708.263,423.7l32.135,4.67-23.253,22.666,5.489,32.005-28.743-15.111-28.743,15.111,5.489-32.005-23.253-22.666,32.135-4.67Z" transform="translate(-577.355 -293.016)"/><path class="v" d="M644.073,497.367c-3.973,4.966-9.719,24.06-12.667,33.788l9.1-83.792,2.451-10.893c15.28-13.708,50.1,31.582,51.668,43.716S649.466,490.625,644.073,497.367Z" transform="translate(-578.083 -291.223)"/><path class="v" d="M704.171,372.491c-3.635,4.711-12.142,9.557-17.025,6.36-7.207-4.711-20.094-4.718-22.341-15.725-.891-4.355,1.713-5.883,5.183-6.131a105.972,105.972,0,0,1,11.536,4.482c1.987.9,9.583,17.075,21.87,11.383C703.654,372.738,703.915,372.618,704.171,372.491Z" transform="translate(-576.569 -294.729)"/><path class="s" d="M754.46,478.169a9.262,9.262,0,0,1,.63.866Z" transform="translate(-572.475 -289.206)"/><path class="t" d="M641.9,402.74l-17.452,58.051a74.673,74.673,0,0,1-13.9-25.562c-2.769-8.64-4.877-16.216-6.417-22.876l23.792-21.162Z" transform="translate(-579.326 -293.17)"/><path class="v" d="M771.643,448.552s-12.738,9.741-4.169,18.026,9.669-14.185,9.669-14.185l-4.321-3.84Z" transform="translate(-572.017 -290.556)"/><g transform="translate(159.8 41.577)"><path class="h" d="M757.4,371.9c-.715-.744-11.451-7.343-13.955-12.23s-5.62-12.442-7.562-14.709c-2.285-2.666-1-4.077,2.082-1.18,2,1.882,5.532,5.962,5.98,7,.216.5-1.595-2.611-3.9-5.861-2.453-3.455-5.393-7.092-4.586-7.63,1.564-1.043,9.513,8.559,10.509,10.411a40.963,40.963,0,0,0-2.713-4.846c-1.392-2.121-3.435-4.376-3.012-5.144.667-1.211,5.8,3.512,8.465,8.036.232.005-.036-1.69-3.677-6.815-.366-.516-.588-2.107,1.223-.662,3.812,3.041,5.775,4.065,8.135,9.721,2.3,5.515,3.13,12.2,6.181,16.33Z" transform="translate(-733.175 -337.207)"/><path class="h" d="M802.229,413.228c-13.85-17-29.89-40.055-39.232-47.459a24.025,24.025,0,0,1-9.868,2.8l.595.622c13.424,7.888,17.243,38.8,29.094,51.225,2.062.371-2.541,1.6-6.551,5.69-8.11,8.263-2.377,26.14,5.174,27.933C790.128,447.023,814.505,428.28,802.229,413.228Z" transform="translate(-732.336 -335.906)"/><path class="h" d="M759.9,363.209l7.155,5.611-12.043,2.175s.221-.806-4.265-4.521,3.033-4.956,3.033-4.956Z" transform="translate(-732.509 -336.099)"/><path class="h" d="M746.567,361.495s-7.222-2.034-10.027-6.5c-1.667-2.653-2.526-2.222-2.982-2.6-1.513-1.267,2.8-1.211,4.7.843,1.546,1.669,6.132,1.073,7.479,1.9s4.359,3.74,4.135,4.866S746.567,361.495,746.567,361.495Z" transform="translate(-733.242 -336.554)"/></g><g transform="translate(104.415 12.484)"><path class="w" d="M716.875,340.261c-5.1,2.063-5.023.123-3.278,7.888.2,4.49-4.848,1.571-9.428,1.177a7.912,7.912,0,0,0-2.835.185c-2.672.482-6.394-1.278-10.039-2.764-6.628-5.071-11.705-.432-7.275-7.463a3.239,3.239,0,0,0,.249-.23c5.322-5.009-7.982-5.394-2.758-9.558,5.939.644-5.858-3.184,2.765-10.037,7.192-.777-2.079-10.412,7.463-7.275,2.514-3,9.055,3.854,9.777-2.516,3.855-1.378,7.193,2.691,10.048,2.77,9.741,3.141,2.269,7.559,7.266,7.458,5.82,1.227,3.39,8.234,2.524,9.783C722.367,334.322,724.3,344.646,716.875,340.261Z" transform="translate(-680.271 -309.383)"/><path class="x" d="M704.078,348.267a7.911,7.911,0,0,0-2.835.185c-2.673.482-6.394-1.278-10.039-2.764-6.628-5.071-11.705-.432-7.275-7.463a3.251,3.251,0,0,0,.249-.23c2.6.943,5.244,1.356,6.334-.492,4.923-8.342,15.362-3.445,15.362-3.445s-.664,7.254-.859,7.967C704.912,342.389,704.479,345.313,704.078,348.267Z" transform="translate(-680.18 -308.323)"/><path class="h" d="M708.245,325.63s12.2,3.817,4.829,16.3-9.565,13.312-16.787,3.943S697.193,319.863,708.245,325.63Z" transform="translate(-679.666 -308.696)"/></g><path class="v" d="M716.436,442.188s-23.717,25.281-21.625,45.806l-23.075-29.487,16.142-21.994Z" transform="translate(-576.245 -291.105)"/><path class="t" d="M806.243,431.236s-27.185,17.208-24,36.808-16.889,9.563-16.889,9.563L753.07,447.5l8.114-14.381,18.472-16.778Z" transform="translate(-572.539 -292.024)"/><g transform="translate(127.558)"><g transform="translate(0 45.434)"><g transform="translate(0 0.074)"><path class="y" d="M719.559,341.812l-5.3-.845s-8.749.416-11.855,2.851c0,0,3.48,2.9,10.551,3.652l-.157.987,5.871.936Z" transform="translate(-702.405 -340.967)"/><path class="z" d="M712.956,347.346l-.157.987,5.871.936.41-3.5v0a19.13,19.13,0,0,0-6.576-1.048c-2.88.251-10.1-1.025-10.1-1.025S705.885,346.592,712.956,347.346Z" transform="translate(-702.405 -340.843)"/></g><g transform="translate(16.265 0.918)"><path class="aa" d="M729.789,345.329l-1.61-.257-1.589-2.064-1.626,1.179-2.546-.406-1.647-1.7-1.921-.306-.889,7.582,1.87.3,1.919-1.345,2.365.537,1.171,1.678,2.375-1.539,1.507.24Z" transform="translate(-717.961 -341.775)"/><path class="ab" d="M727.661,348.807l1.507.239.3-1.9c-4.241.1-11.1-1.473-11.1-1.473l-.41,3.5,1.87.3,1.919-1.346,2.365.537,1.171,1.678Z" transform="translate(-717.961 -341.597)"/></g><g transform="translate(27.53)"><path class="ac" d="M782.371,427.48s-13.712,11.168-15.939,28.71-5.342,53.128-7.944,56.974-6.914.6-5.778-8.307,6.742-63.7,7.935-71.181,7.91-74.594,7.7-78.605c0,0-.031-8.493-5.749-12.067s-11.483-2.15-19.747.9-13.55,1.463-13.55,1.463l-.563,3.533A40.314,40.314,0,0,0,741.77,348c6.232-1.67,13.482-3.711,17.37.638s-3.975,49.013-4.479,53.514-7.634,47.9-8.332,54.285-6.987,43.845-7.4,49.745-.286,20.516,14.729,23.23,21.237-10.252,22.081-15.551,5.715-37.869,8.575-44.444,9.057-15.39,17.856-13.774C802.175,455.637,800.434,433.8,782.371,427.48Z" transform="translate(-728.735 -340.896)"/><path class="ad" d="M765.21,346.465c.809,9.892-9.166,79.973-10.517,94.666s-6.4,52.681-6.57,64.1,6.678,9.235,6.678,9.235v-.006c-2.009-.385-3.746-3.812-2.975-9.856,1.137-8.909,6.742-63.7,7.935-71.181s7.91-74.594,7.7-78.605A18.892,18.892,0,0,0,765.21,346.465Z" transform="translate(-727.852 -340.643)"/><path class="ad" d="M774.462,467.621c-3.078,19.4-4.158,58.907-25.751,56.867a20.814,20.814,0,0,0,4.042,1.145c15.016,2.713,21.237-10.252,22.081-15.551s5.715-37.869,8.575-44.444,9.057-15.39,17.856-13.774c0,0-1.741-21.833-19.8-28.157,0,0,8.075,14.516,7.537,19.179S777.542,448.221,774.462,467.621Z" transform="translate(-727.825 -337.122)"/><path class="ad" d="M759.14,348.534c1.217,1.361,1.283,6.675.782,13.469.008-.03,2.975-11.622.21-16.334s-12.73-1.918-17.428-.073-13.726,1.674-13.726,1.674l-.244,1.533a40.314,40.314,0,0,0,13.035-.906C748,346.226,755.252,344.186,759.14,348.534Z" transform="translate(-728.735 -340.797)"/><g transform="translate(5.737 24.262)"><g transform="translate(28.649)"><path class="ae" d="M767.993,367.24a2.588,2.588,0,1,1-2.12-3.108A2.662,2.662,0,0,1,767.993,367.24Z" transform="translate(-761.566 -364.101)"/><path class="ae" d="M766.761,376.723a2.588,2.588,0,1,1-2.12-3.107A2.663,2.663,0,0,1,766.761,376.723Z" transform="translate(-761.622 -363.668)"/></g><g transform="translate(0 35.722)"><g transform="translate(27.491 69.969)"><g transform="translate(2.8)"><path class="ae" d="M776.364,472.816a6.593,6.593,0,1,1-5.475-7.548A6.593,6.593,0,0,1,776.364,472.816Z" transform="translate(-763.19 -465.185)"/><path class="af" d="M775.735,473.172a6.316,6.316,0,1,1-5.274-7.019A6.209,6.209,0,0,1,775.735,473.172Z" transform="translate(-763.193 -465.144)"/></g><g transform="translate(0 17.568)"><path class="ae" d="M773.686,489.619a6.594,6.594,0,1,1-5.475-7.549A6.594,6.594,0,0,1,773.686,489.619Z" transform="translate(-760.512 -481.987)"/><path class="af" d="M773.057,489.976a6.316,6.316,0,1,1-5.274-7.02A6.209,6.209,0,0,1,773.057,489.976Z" transform="translate(-760.515 -481.946)"/></g><g transform="translate(0.027 36.822)"><path class="ae" d="M770.77,506.327a5.12,5.12,0,1,1-4.251-5.861A5.119,5.119,0,0,1,770.77,506.327Z" transform="translate(-760.538 -500.401)"/><path class="af" d="M770.282,506.605a4.905,4.905,0,1,1-4.1-5.452A4.824,4.824,0,0,1,770.282,506.605Z" transform="translate(-760.541 -500.37)"/></g></g><g transform="translate(13.04 1.941)"><g transform="translate(0 19.921)"><path class="ag" d="M750.244,419.527l2.028,2.181a5.067,5.067,0,0,1-.611,3.831l-2.636,1.632Z" transform="translate(-746.587 -419.159)"/><path class="ae" d="M747.554,423.017c-.35,2.2.119,4.1,1.048,4.251s1.966-1.516,2.316-3.715-.118-4.1-1.047-4.251S747.905,420.818,747.554,423.017Z" transform="translate(-746.66 -419.17)"/><path class="af" d="M746.81,422.9c-.35,2.2.117,4.1,1.047,4.25s1.966-1.515,2.316-3.715-.118-4.1-1.047-4.25S747.161,420.7,746.81,422.9Z" transform="translate(-746.694 -419.175)"/></g><g transform="translate(2.021)"><path class="ag" d="M752.176,400.475l2.028,2.182a5.064,5.064,0,0,1-.611,3.83l-2.636,1.632Z" transform="translate(-748.521 -400.106)"/><path class="ae" d="M749.487,403.965c-.351,2.2.118,4.1,1.047,4.25s1.966-1.515,2.316-3.714-.118-4.1-1.047-4.251S749.837,401.767,749.487,403.965Z" transform="translate(-748.593 -400.117)"/><path class="af" d="M748.743,403.846c-.35,2.2.117,4.1,1.046,4.25s1.966-1.515,2.316-3.714-.119-4.1-1.047-4.251S749.094,401.648,748.743,403.846Z" transform="translate(-748.627 -400.122)"/></g></g><g transform="translate(0 104.749)"><path class="ag" d="M738.468,498.871l2.425,2.606a6.063,6.063,0,0,1-.73,4.582l-3.151,1.95Z" transform="translate(-734.095 -498.429)"/><path class="ae" d="M735.251,503.042c-.419,2.629.141,4.906,1.252,5.083s2.35-1.813,2.769-4.442-.141-4.9-1.25-5.081S735.67,500.414,735.251,503.042Z" transform="translate(-734.181 -498.442)"/><path class="af" d="M734.361,502.9c-.419,2.63.14,4.906,1.251,5.082s2.349-1.813,2.769-4.442-.141-4.9-1.25-5.081S734.78,500.272,734.361,502.9Z" transform="translate(-734.222 -498.449)"/></g><g transform="translate(15.705)"><g transform="translate(7.856)"><g transform="translate(0 31.849)"><path class="ag" d="M760.737,428.835l-3.115,1.723a6.061,6.061,0,0,0-.73,4.581l2.389,2.835Z" transform="translate(-756.755 -428.722)"/><path class="ae" d="M762.509,433.82c-.418,2.628-1.659,4.618-2.77,4.441s-1.669-2.453-1.251-5.081,1.659-4.618,2.769-4.442S762.929,431.19,762.509,433.82Z" transform="translate(-756.683 -428.727)"/><path class="af" d="M763.4,433.962c-.419,2.628-1.658,4.618-2.769,4.441s-1.67-2.453-1.251-5.082,1.659-4.618,2.77-4.442S763.819,431.331,763.4,433.962Z" transform="translate(-756.642 -428.72)"/></g><g transform="translate(0.704 21.438)"><path class="ag" d="M761.41,418.877l-3.115,1.724a6.069,6.069,0,0,0-.73,4.582l2.389,2.833Z" transform="translate(-757.429 -418.765)"/><path class="ae" d="M763.184,423.863c-.419,2.629-1.659,4.618-2.77,4.442s-1.67-2.454-1.252-5.083,1.66-4.618,2.769-4.442S763.6,421.232,763.184,423.863Z" transform="translate(-757.356 -418.77)"/><path class="af" d="M764.074,424c-.419,2.63-1.658,4.619-2.769,4.443s-1.671-2.454-1.252-5.083,1.659-4.618,2.769-4.442S764.494,421.374,764.074,424Z" transform="translate(-757.316 -418.763)"/></g><g transform="translate(2.195 11.125)"><path class="ag" d="M762.836,409.014l-3.115,1.723a6.067,6.067,0,0,0-.73,4.581l2.389,2.835Z" transform="translate(-758.855 -408.901)"/><path class="ae" d="M764.609,414c-.419,2.63-1.659,4.618-2.77,4.441s-1.67-2.452-1.252-5.081,1.66-4.617,2.77-4.441S765.029,411.368,764.609,414Z" transform="translate(-758.782 -408.906)"/><path class="af" d="M765.5,414.14c-.418,2.629-1.657,4.618-2.769,4.441s-1.67-2.452-1.251-5.08,1.658-4.618,2.768-4.442S765.919,411.51,765.5,414.14Z" transform="translate(-758.741 -408.899)"/></g><g transform="translate(3.287)"><path class="ag" d="M763.881,398.374l-3.116,1.723a6.073,6.073,0,0,0-.73,4.581l2.389,2.835Z" transform="translate(-759.899 -398.261)"/><path class="ae" d="M765.654,403.358c-.419,2.63-1.659,4.618-2.771,4.442s-1.67-2.453-1.251-5.082,1.659-4.618,2.769-4.442S766.074,400.728,765.654,403.358Z" transform="translate(-759.826 -398.266)"/><path class="af" d="M766.544,403.5c-.419,2.63-1.658,4.618-2.769,4.442s-1.67-2.453-1.252-5.081,1.659-4.618,2.77-4.442S766.964,400.87,766.544,403.5Z" transform="translate(-759.786 -398.259)"/></g></g><g transform="translate(0 50.816)"><g transform="translate(3.353 13.385)"><path class="ag" d="M756.742,459.8l-3.331,2.014a7.458,7.458,0,0,0-.835,5.247l2.5,3.209Z" transform="translate(-752.449 -459.662)"/><path class="ae" d="M758.56,465.473c-.481,3.013-1.825,5.3-3,5.115s-1.741-2.781-1.26-5.794,1.822-5.3,3-5.116S759.04,462.462,758.56,465.473Z" transform="translate(-752.373 -459.668)"/><path class="af" d="M759.5,465.623c-.48,3.013-1.824,5.3-3,5.116s-1.74-2.781-1.26-5.795,1.823-5.3,3-5.115S759.983,462.612,759.5,465.623Z" transform="translate(-752.33 -459.661)"/></g><g transform="translate(1.653 26.872)"><path class="ag" d="M755.117,472.7l-3.331,2.014a7.461,7.461,0,0,0-.836,5.247l2.5,3.209Z" transform="translate(-750.823 -472.562)"/><path class="ae" d="M756.935,478.373c-.481,3.013-1.825,5.3-3,5.115s-1.741-2.781-1.261-5.794,1.823-5.3,3-5.116S757.415,475.362,756.935,478.373Z" transform="translate(-750.747 -472.568)"/><path class="af" d="M757.878,478.523c-.48,3.013-1.823,5.3-3,5.116s-1.74-2.781-1.26-5.795,1.822-5.3,3-5.115S758.358,475.512,757.878,478.523Z" transform="translate(-750.704 -472.561)"/></g><g transform="translate(4.933)"><path class="ag" d="M758.254,447l-3.332,2.013a7.46,7.46,0,0,0-.835,5.247l2.5,3.209Z" transform="translate(-753.96 -446.861)"/><path class="ae" d="M760.071,452.671c-.48,3.013-1.825,5.3-3,5.116s-1.742-2.781-1.261-5.795,1.822-5.3,3-5.115S760.551,449.66,760.071,452.671Z" transform="translate(-753.884 -446.867)"/><path class="af" d="M761.014,452.822c-.48,3.012-1.823,5.3-3,5.115s-1.74-2.781-1.26-5.793,1.823-5.3,3-5.116S761.494,449.81,761.014,452.822Z" transform="translate(-753.84 -446.86)"/></g><g transform="translate(0 40.129)"><path class="ag" d="M753.536,485.377,750.2,487.39a7.46,7.46,0,0,0-.835,5.247l2.5,3.209Z" transform="translate(-749.242 -485.241)"/><path class="ae" d="M755.353,491.052c-.48,3.012-1.825,5.3-3,5.115s-1.742-2.781-1.261-5.795,1.822-5.3,3-5.115S755.833,488.04,755.353,491.052Z" transform="translate(-749.165 -485.247)"/><path class="af" d="M756.3,491.2c-.48,3.013-1.824,5.3-3,5.115s-1.74-2.781-1.26-5.794,1.824-5.3,3-5.116S756.776,488.19,756.3,491.2Z" transform="translate(-749.122 -485.24)"/></g></g></g></g></g></g></g><g transform="translate(106.937)"><g transform="translate(211.904 9.618)"><path class="t" d="M1007.349,306.642c.065,4.047.146,8.216.2,12.264a4.581,4.581,0,0,0,4.479,4.918c1.025.092,2.07,0,2.609-1.06a2.214,2.214,0,0,0-.728-2.7,5.183,5.183,0,0,0-5.577-1.415c-.029-3.045-.059-6.027-.088-9.139,4.472.368,8.888.732,13.333,1.1.037,3.819.07,7.494.11,11.168a4.722,4.722,0,0,0,5.308,4.634,1.926,1.926,0,0,0,1.543-3.142c-1.082-1.794-3.42-2.621-6.107-2.088-.042-4.382-.085-8.743-.128-13.2Z" transform="translate(-1007.349 -306.642)"/></g><g transform="translate(234.633 35.712)"><path class="t" d="M1029.087,344.518c3.962,4.358,8.058,8.829,12.009,13.2,2.786,3.081,6.288,3.506,9.62,1.062,1.208-.885,2.265-1.986,1.829-3.665s-1.876-2.161-3.393-2.25a7.538,7.538,0,0,0-7.45,3.817c-2.959-3.3-5.857-6.523-8.883-9.893l15.61-11.624c3.713,4.134,7.282,8.114,10.857,12.087a6.871,6.871,0,0,0,10.252-.044c1.733-1.923,1.132-4.134-1.336-4.915-2.907-.918-6.254.427-8.675,3.593-4.261-4.744-8.5-9.465-12.827-14.285Z" transform="translate(-1029.087 -331.598)"/></g><g transform="translate(106.373 118.418)"><path class="t" d="M906.418,414.482c1.425,3.789,2.908,7.685,4.323,11.478a4.581,4.581,0,0,0,5.875,3.12c1-.258,1.951-.693,2.1-1.877s-.65-1.856-1.6-2.3a5.181,5.181,0,0,0-5.728.549c-1.054-2.858-2.087-5.654-3.164-8.575l12.922-3.463c1.323,3.583,2.592,7.032,3.868,10.477a4.723,4.723,0,0,0,6.56,2.574,1.927,1.927,0,0,0,.394-3.479c-1.624-1.325-4.1-1.315-6.454.092-1.517-4.111-3.026-8.2-4.568-12.381Z" transform="translate(-906.418 -410.699)"/></g><g transform="translate(172.073 44.489)"><path class="t" d="M969.254,340.084c.708,6.48,1.463,13.15,2.153,19.634.487,4.571,3.345,7.232,7.918,7.217,1.657-.005,3.321-.3,4.024-2.089s-.272-3.156-1.571-4.224a8.342,8.342,0,0,0-9.153-1.436c-.5-4.878-.994-9.655-1.507-14.64,7.226-.079,14.362-.156,21.543-.235.63,6.119,1.232,12.005,1.843,17.89a7.606,7.606,0,0,0,9.2,6.638c2.8-.592,3.708-2.963,2.006-5.269-2-2.715-5.875-3.692-10.1-2.436-.722-7.021-1.441-14.007-2.176-21.14Z" transform="translate(-969.254 -339.993)"/></g><g transform="translate(138.364 37.999)"><path class="t" d="M942.028,361.42c-1.409-9.292-2.733-18.47-4.13-27.633l-.883.121c.034.549.026,1.1.1,1.646,1.368,9.257,3,18.484,4,27.78.463,4.3,7.711,7.648,11.775,5.237,1.894-1.125,2.078-3.377.476-5.264a9.394,9.394,0,0,0-10.2-2.379Z" transform="translate(-937.014 -333.786)"/></g><g transform="translate(152.617 92.546)"><path class="t" d="M973.972,397.518c-7.728-3.873-15.324-7.749-22.949-11.563-.125.243-.252.485-.376.728.43.267.843.568,1.291.795,7.679,3.886,15.478,7.554,22.992,11.736,3.471,1.932,9.837-1.733,10.182-6.064.161-2.019-1.434-3.354-3.7-3.152a8.64,8.64,0,0,0-7.2,6.4C974.143,396.709,974.076,397.021,973.972,397.518Z" transform="translate(-950.646 -385.955)"/></g><g transform="translate(81.892 117.444)"><path class="t" d="M888.8,423.923c-1.807-4.757-3.554-9.463-5.34-14.155l-.453.165c.079.286.139.582.243.859,1.78,4.744,3.7,9.441,5.29,14.246.735,2.221,4.953,3.168,6.829,1.428a1.777,1.777,0,0,0-.348-2.841,5.087,5.087,0,0,0-5.67-.1Z" transform="translate(-883.004 -409.768)"/></g><g transform="translate(280.409 18.291)"><g transform="translate(12.431)"><path class="t" d="M1116.509,327.825c-.006-.083-.472-.343-.55-.4-.185-.131-.37-.26-.558-.386a11.474,11.474,0,0,0-1.174-.69,7.249,7.249,0,0,0-2.623-.849,5.057,5.057,0,0,0-3.94,1.554,5.881,5.881,0,0,0-1.661,4.011,7.779,7.779,0,0,0,.9,4.122,6.9,6.9,0,0,0,1.448,1.75,6.142,6.142,0,0,0,8.738-.53c3.977-4.374,3.467-12-1.248-16.452-5.512-5.2-12.188-5.934-19.141-4.129-6.621,1.718-10.43,6.489-11.44,13.086a28.081,28.081,0,0,0,.112,11.1c3.615,13.6,12.5,22.841,25.282,28.417,1.77.774,3.736,1.743,6.133-.087-1.224-.616-2.07-1.12-2.975-1.484-11.141-4.477-22.522-23.767-20.442-36.906a19.588,19.588,0,0,1,2.984-8.014c4.875-6.948,15.654-5.734,19.218,1.972A10.168,10.168,0,0,1,1116.509,327.825Z" transform="translate(-1084.757 -314.937)"/></g><g transform="translate(1.308 3.092)"><path class="t" d="M1074.133,320.755a3.15,3.15,0,0,0,3,3.576c1.986.043,3.274-.917,3.431-2.988a2.934,2.934,0,0,0-2.963-3.434A3.04,3.04,0,0,0,1074.133,320.755Z" transform="translate(-1074.119 -317.895)"/></g><g transform="translate(0 19.105)"><path class="t" d="M1072.868,336.144c.067,2.008.993,3.286,3.036,3.424a3.181,3.181,0,1,0,.469-6.344C1074.315,333.06,1073.254,334.228,1072.868,336.144Z" transform="translate(-1072.868 -333.209)"/></g></g><g transform="translate(106.17 82.457)"><path class="t" d="M921.752,394.358l-.714-.872q-6.84-8.339-13.676-16.681c-.34-.415-.642-.837-1.138-.082,1.415,2.621,1.095,5.549,1.3,8.4a35.858,35.858,0,0,0,.393,4.164c.693,3.611,3.152,5.619,6.453,6.79a1.078,1.078,0,0,0,.344.041c.049,0,.1-.047.291-.145-5.532-3.13-7.753-7.241-3.893-13.252l.707.862c3.4,4.142,6.806,8.274,10.18,12.433a4.4,4.4,0,0,0,3.094,1.754,7.919,7.919,0,0,0,6.732-2.179c1.8-1.814,1.187-4.11-1.258-4.9A7.578,7.578,0,0,0,921.752,394.358Z" transform="translate(-906.224 -376.306)"/></g><g transform="translate(75.835 139.478)"><path class="t" d="M881.469,440.118c-.041-.178-.072-.312-.1-.447q-.993-4.263-1.984-8.526c-.049-.211-.084-.419-.4-.233a8.029,8.029,0,0,1-1.034,3.29,14.489,14.489,0,0,0-.6,1.586,3.594,3.594,0,0,0,1.13,3.629.4.4,0,0,0,.118.076c.018.009.045,0,.132,0-1.451-2.132-1.522-4.026.961-5.522.041.175.072.307.1.44.493,2.117.992,4.233,1.474,6.352a1.788,1.788,0,0,0,.811,1.194,3.218,3.218,0,0,0,2.842.415,1.124,1.124,0,0,0,.42-2.008A3.074,3.074,0,0,0,881.469,440.118Z" transform="translate(-877.211 -430.841)"/></g><g transform="translate(250.267)"><path class="t" d="M1052.127,315.066c-.078-.337-.138-.591-.2-.847q-1.887-8.1-3.771-16.195c-.093-.4-.158-.8-.758-.444.085,2.3-1.134,4.209-1.965,6.25a27.615,27.615,0,0,0-1.148,3.014c-.752,2.732.265,4.959,2.148,6.895a.808.808,0,0,0,.224.145c.035.017.085,0,.251,0-2.758-4.051-2.893-7.649,1.826-10.49l.194.837c.937,4.021,1.885,8.039,2.8,12.066a3.4,3.4,0,0,0,1.541,2.268,6.108,6.108,0,0,0,5.4.788c1.863-.641,2.222-2.437.8-3.814A5.842,5.842,0,0,0,1052.127,315.066Z" transform="translate(-1044.04 -297.443)"/></g><g transform="translate(224.305 66.791)"><path class="t" d="M1028.05,384.848c-.016-.449-.028-.787-.041-1.127q-.393-10.778-.782-21.557c-.02-.535,0-1.055-.856-.753-.461,2.942-2.488,5.078-4.051,7.472a35.787,35.787,0,0,0-2.209,3.552c-1.635,3.294-.894,6.381,1.024,9.312a1.068,1.068,0,0,0,.249.241c.041.029.109.023.32.061-2.507-5.841-1.786-10.457,4.927-12.9.016.442.028.778.04,1.115.2,5.352.407,10.7.573,16.058a4.4,4.4,0,0,0,1.4,3.27,7.918,7.918,0,0,0,6.677,2.342c2.531-.353,3.434-2.552,1.964-4.657A7.577,7.577,0,0,0,1028.05,384.848Z" transform="translate(-1019.21 -361.323)"/></g><g transform="translate(0.001 7.433)"><path class="ah" d="M1113.375,313.973a.47.47,0,0,0-.005-.829c-.122-.065-12.472-6.491-33.132-8.188-19.045-1.565-49.277.674-85.15,20.224-41.408,22.565-58.276,45.351-74.588,67.387-8.4,11.345-17.086,23.078-29,34.506-20.813,19.958-38.127,15.181-54.869,10.559-10.975-3.029-21.342-5.891-31.675-1.095a.47.47,0,0,0,.4.853c10.019-4.649,20.224-1.832,31.029,1.149,16.2,4.472,34.568,9.542,55.77-10.787,11.976-11.482,20.685-23.248,29.108-34.625,16.252-21.955,33.058-44.655,74.283-67.122,68.206-37.169,116.907-12.285,117.391-12.029A.47.47,0,0,0,1113.375,313.973Z" transform="translate(-804.682 -304.552)"/></g><g transform="translate(0 29.064)"><path class="ah" d="M1122.724,335.865a.471.471,0,0,0-.037-.844c-.621-.273-62.877-26.805-128.015,8.692-32.892,17.924-53.575,40.449-71.825,60.323-13.075,14.238-24.367,26.536-37.269,33.567-16.311,8.888-30.916,4.749-45.04.747-11.4-3.231-23.186-6.57-35.523-2.78a.471.471,0,0,0,.277.9c12.072-3.711,23.2-.556,34.989,2.784,14.307,4.054,29.1,8.246,45.748-.826,13.039-7.106,24.381-19.456,37.512-33.756,18.2-19.82,38.827-42.284,71.582-60.134,64.721-35.269,126.57-8.926,127.187-8.655A.473.473,0,0,0,1122.724,335.865Z" transform="translate(-804.681 -325.24)"/></g><g transform="translate(0 52.396)"><path class="ah" d="M1131.076,358.587a.464.464,0,0,0,.217-.251.471.471,0,0,0-.28-.6c-.2-.072-20.154-7.277-48.213-9.521-25.906-2.071-64.223-.233-99.666,20.351-30.644,17.788-47.207,34.009-60.516,47.044-11.1,10.873-19.867,19.461-32.924,25.727-16.917,8.121-31.5,2.908-45.6-2.133-12.272-4.387-24.961-8.924-39.077-4.647a.471.471,0,0,0,.274.9c13.818-4.187,26.359.3,38.487,4.632,14.283,5.105,29.053,10.386,46.325,2.1,13.184-6.325,22.01-14.968,33.176-25.9,13.27-13,29.787-29.173,60.329-46.9,67.447-39.148,146.294-11.048,147.082-10.759A.472.472,0,0,0,1131.076,358.587Z" transform="translate(-804.682 -347.555)"/></g><g transform="translate(0 77.135)"><path class="ah" d="M1140.008,386.674a.46.46,0,0,0,.2-.224.47.47,0,0,0-.24-.62c-.686-.3-69.387-29.792-141.037-4.136-34.677,12.416-55.592,29.2-72.4,42.692-15.511,12.45-27.764,22.283-44.4,23.59-15.445,1.213-26.689-3.8-37.562-8.658-12.2-5.445-23.73-10.59-39.556-5.843a.47.47,0,0,0,.27.9c15.491-4.646,26.863.429,38.9,5.8,10.982,4.9,22.337,9.967,38.02,8.737,16.928-1.329,29.28-11.243,44.918-23.8,16.75-13.445,37.6-30.177,72.125-42.539,71.289-25.526,139.66,3.812,140.341,4.112A.47.47,0,0,0,1140.008,386.674Z" transform="translate(-804.682 -371.216)"/></g></g></g><g transform="translate(57.062 163.543)"><path class="h" d="M637.263,473.837c.818.663,22.231,25.141,32.317,25.731s59.306-17.345,70.5-25.135c0,0-13.874-2.923-14.792-3.313s-52.664,8.366-57.186,6.536c-1.544-.624-8.373-15.339-23.8-22.535S637.263,473.837,637.263,473.837Z" transform="translate(-634.982 -453.857)"/><g transform="translate(94.854 2.458)"><path class="h" d="M725.7,469.025c.99-.271,11.811-6.378,17.3-6.3s10.983.965,13.89.342c3.42-.732,6.717.867,2.725,2.166-2.594.845-7.845,2-8.969,1.908-.546-.042,3.051-.175,7-.663,4.2-.52,4.674.83,4.777,1.753.2,1.791-7.884,1.992-9.985,2a42.941,42.941,0,0,0,5.551-.115c2.524-.223,4.038.578,4.523,1.281.763,1.107-4.368,1.807-9.612,2.026-.112.194,1.514.729,7.741-.045.625-.077,2.138.45.02,1.331-4.46,1.855-6.277,3.053-12.381,2.505-5.951-.533-12.325-2.881-16.785-1.664Z" transform="translate(-725.702 -455.911)"/><path class="h" d="M739.706,463.346s5.251-5.361,10.512-5.68c3.127-.189,3.162-1.151,3.715-1.368,1.838-.719-.281,3.037-3,3.722-2.207.556-3.883,4.865-5.259,5.648s-5.372,2.029-6.254,1.293S739.706,463.346,739.706,463.346Z" transform="translate(-725.092 -456.208)"/></g><path class="h" d="M726.259,468.75s-2.319,1.217-10.023,2.341,3.2,4.381,3.2,4.381L734.28,473.5Z" transform="translate(-631.405 -453.178)"/></g><path class="t" d="M610.756,505.425s-16.818-15.47-25.41-39.038a82.4,82.4,0,0,1-3.951-14.869c-.069-.429-.134-.853-.194-1.282a71.56,71.56,0,0,1-.413-17.968c.92-8.863,1.243-17,4.448-27.37,16.227-52.538,50.6-52.4,62.646-49.549.036.009.067.015.1.024a10.9,10.9,0,0,1,1.088.329l.045.019c12.956,4.818,11.752,36.234,11.752,36.234l9.506,28.711s-7.818,28.343-2.027,49.58C668.348,470.247,621.388,485.384,610.756,505.425Z" transform="translate(-580.407 -294.849)"/></g></g></g></g></svg>