<svg xmlns="http://www.w3.org/2000/svg" width="56.157" height="42.721" viewBox="0 0 56.157 42.721"><defs><style>.a{fill:#ce521f;}.b{fill:#ebebeb;}.c{fill:#8e96a3;}.d{fill:#ff6501;}.e{fill:#d0d1d6;}.f{fill:#080808;}.g{fill:#231307;}</style></defs><path class="a" d="M366.933,502.479h0a.161.161,0,0,1-.1-.207l.131-.355.3.11-.132.356A.161.161,0,0,1,366.933,502.479Z" transform="translate(-360.174 -484.738)"/><path class="a" d="M368.5,503.057h0a.161.161,0,0,1-.1-.207l.131-.356c.009-.024.3.115.3.115l-.13.353A.161.161,0,0,1,368.5,503.057Z" transform="translate(-360.061 -484.697)"/><path class="b" d="M366.9,502.423h0a.161.161,0,0,1-.1-.207l.143-.389a.163.163,0,0,1,.207-.1h0a.163.163,0,0,1,.1.207l-.144.389A.161.161,0,0,1,366.9,502.423Z" transform="translate(-360.176 -484.752)"/><path class="b" d="M368.468,503h0a.161.161,0,0,1-.1-.206l.144-.389a.163.163,0,0,1,.207-.1h0a.163.163,0,0,1,.1.207l-.144.389A.161.161,0,0,1,368.468,503Z" transform="translate(-360.063 -484.711)"/><rect class="c" width="1.055" height="0.684" transform="translate(6.322 21.383) rotate(20.217)"/><rect class="c" width="1.055" height="0.684" transform="translate(6.773 20.252) rotate(20.217)"/><path class="d" d="M415.474,526.673H361.908a1.191,1.191,0,0,1-1.286-1.174v-.8l5.863-10.835a1.866,1.866,0,0,1,1.671-1.036h40.992c.765,0,2.452,1.506,2.794,2.19l4.837,9.861v.355A1.277,1.277,0,0,1,415.474,526.673Z" transform="translate(-360.621 -483.952)"/><path class="e" d="M415.479,525.615H361.911c-.6,0-1.574-.521-1.206-1.163l5.783-11.648a1.866,1.866,0,0,1,1.671-1.036h40.993a2.018,2.018,0,0,1,1.805,1.116l5.725,11.455C417.083,525.069,416.13,525.615,415.479,525.615Z" transform="translate(-360.621 -484.028)"/><rect class="e" width="43.867" height="27.719" rx="1.496" transform="translate(5.859)"/><rect class="f" width="40.483" height="24.019" transform="translate(7.543 1.512)"/><path class="g" d="M395.13,524.542H379.347a.284.284,0,0,1-.281-.329l.665-4.157a.462.462,0,0,1,.457-.389h14.237a.407.407,0,0,1,.4.347l.61,4.181A.308.308,0,0,1,395.13,524.542Z" transform="translate(-359.292 -483.459)"/><path class="d" d="M409.537,519.249H366.652c-.476,0-.839-.183-.764-.385l1.809-4.854c.1-.262.623-.453,1.24-.453h38.681c.548,0,1.013.173,1.092.405l1.657,4.881C410.432,519.058,410.042,519.249,409.537,519.249Z" transform="translate(-360.242 -483.899)"/><g transform="translate(5.523 28.573)"><rect class="e" width="44.723" height="0.226" transform="translate(0 1.92)"/><rect class="e" width="44.723" height="0.226" transform="translate(0 3.049)"/><rect class="e" width="44.723" height="0.226" transform="translate(0 4.404)"/><rect class="e" width="44.723" height="0.226" transform="translate(0 5.647)"/><rect class="e" width="0.339" height="7.454" transform="translate(5.416 0.121) rotate(17.439)"/><rect class="e" width="0.339" height="7.454" transform="translate(8.691 0.121) rotate(17.439)"/><rect class="e" width="0.339" height="7.454" transform="translate(11.289 0.121) rotate(17.439)"/><rect class="e" width="0.339" height="7.454" transform="translate(13.886 0.121) rotate(17.439)"/><rect class="e" width="0.339" height="7.454" transform="translate(16.597 0.121) rotate(17.439)"/><rect class="e" width="0.339" height="7.454" transform="translate(19.347 0.036) rotate(10.978)"/><rect class="e" width="0.339" height="7.454" transform="translate(21.684)"/><rect class="e" width="0.339" height="7.454" transform="translate(39.209 0.222) rotate(-17.439)"/><rect class="e" width="0.339" height="7.454" transform="translate(36.047 0.222) rotate(-17.439)"/><rect class="e" width="0.339" height="7.454" transform="translate(32.885 0.222) rotate(-17.439)"/><rect class="e" width="0.339" height="7.454" transform="translate(29.722 0.222) rotate(-17.439)"/><rect class="e" width="0.339" height="7.454" transform="translate(26.56 0.222) rotate(-17.439)"/><rect class="e" width="0.339" height="7.454" transform="translate(23.398 0.222) rotate(-17.439)"/></g></svg>