<svg xmlns="http://www.w3.org/2000/svg" width="65.664" height="51.647" viewBox="0 0 65.664 51.647"><defs><style>.a{fill:#080808;}.b{fill:#1970a9;}.c{fill:#161616;}.d{fill:#3c4146;}.e{fill:#606060;}.f{fill:#f6eed2;}.g{fill:#f6b1b1;}.h{fill:#fad779;}.i{fill:#f7f1d5;}</style></defs><g transform="translate(16.08)"><path class="a" d="M279.6,488.332l.085,34.675,49.158.085.341-34.845Z" transform="translate(-279.602 -488.247)"/><path class="b" d="M282.383,490.555v29.223h44.472V490.555S282.511,490.427,282.383,490.555Z" transform="translate(-279.401 -488.085)"/></g><g transform="translate(21.447 34.794)"><path class="c" d="M295.416,521.594l3.067,5.964,4-.256-3.323-6.39Z" transform="translate(-283.829 -520.687)"/><path class="c" d="M308.751,520.912l-3.323,6.219,3.919.511,3.408-6.39Z" transform="translate(-283.107 -520.687)"/><path class="c" d="M320.01,527.967c0,1.583-6.656,2.868-14.867,2.868s-14.869-1.284-14.869-2.868,6.657-2.869,14.869-2.869S320.01,526.382,320.01,527.967Z" transform="translate(-284.2 -520.385)"/><path class="d" d="M284.608,520.758s24.366,3.834,38.85.085C321.412,520.587,284.608,520.758,284.608,520.758Z" transform="translate(-284.608 -520.702)"/><path class="d" d="M320.01,527.774c0,1.583-6.656,2.868-14.867,2.868s-14.869-1.284-14.869-2.868a48.855,48.855,0,0,0,15.79,1.536A49.641,49.641,0,0,0,320.01,527.774Z" transform="translate(-284.2 -520.192)"/></g><circle class="e" cx="1.214" cy="1.214" r="1.214" transform="translate(39.658 32.029)"/><path class="f" d="M284.695,535.307a1.843,1.843,0,0,1-.554.683,3.412,3.412,0,0,1-.875.515,6.464,6.464,0,0,1-1.249.437H282q-.444.116-.926.193v.014c-.413.064-.837.129-1.262.166-.373.053-.747.078-1.12.1-.45.039-.9.052-1.313.064-.206,0-.4.013-.592.013-.527.013-.992,0-1.365-.013h-.193c-.425-.013-.682-.026-.682-.026s-8.446-20.032-8.446-20.3h.013l.76.206h.013l1.132.3c.233.065.477.116.709.168a14.659,14.659,0,0,0,1.468.27,15.3,15.3,0,0,0,2.767.142h.014a10.483,10.483,0,0,0,1.248-.116.047.047,0,0,0,.039-.013,13.629,13.629,0,0,0,2.6-.606,9.307,9.307,0,0,0,1.223-.463,11.969,11.969,0,0,0,2.15-1.185,9.636,9.636,0,0,0,1.21-.939,9.979,9.979,0,0,0,1.223-1.21c.347-.412.54-.695.592-.76Z" transform="translate(-264.494 -486.467)"/><g transform="translate(4.237 31.359)"><path class="g" d="M276.614,537.168c-.527.013-.992,0-1.365-.013L268.555,517.5a14.659,14.659,0,0,0,1.468.27Z" transform="translate(-268.555 -517.498)"/></g><g transform="translate(8.486 31.642)"><path class="g" d="M278.233,537.072c-.45.039-.9.052-1.313.064-1.339-5.922-3.45-15.166-4.4-19.246a10.483,10.483,0,0,0,1.248-.116.047.047,0,0,0,.039-.013C274.835,522.164,277.023,531.781,278.233,537.072Z" transform="translate(-272.518 -517.762)"/></g><g transform="translate(12.373 30.574)"><path class="g" d="M280.354,536.86v.014c-.413.064-.837.129-1.262.166-.9-6.063-2.318-15.55-2.948-19.812a9.307,9.307,0,0,0,1.223-.463C278.075,521.49,279.825,533.243,280.354,536.86Z" transform="translate(-276.144 -516.765)"/></g><g transform="translate(15.746 28.45)"><path class="g" d="M282.315,536.372a6.464,6.464,0,0,1-1.249.437h-.013l-1.764-21.087a9.636,9.636,0,0,0,1.21-.939Z" transform="translate(-279.29 -514.784)"/></g><g transform="translate(1.611 30.689)"><path class="g" d="M275.233,537.2c-.425-.013-.682-.026-.682-.026s-8.446-20.032-8.446-20.3h.013l.76.206h.013Z" transform="translate(-266.105 -516.873)"/></g><g transform="translate(18.18 26.479)"><path class="g" d="M283.581,535.307a1.843,1.843,0,0,1-.554.683l-.077-.606-1.389-21.678c.347-.412.54-.695.592-.76Z" transform="translate(-281.56 -512.946)"/></g><path class="g" d="M266.105,517.156a14.428,14.428,0,0,0,9.732,1c5.778-1.281,7.428-5.214,7.428-5.214" transform="translate(-264.494 -486.467)"/><g transform="translate(0 25.373)"><path class="h" d="M268.351,513.122a2.106,2.106,0,0,1,3.053-.539,1.861,1.861,0,0,1,.18,2.336c-.51.6-1.39.3-1.617.808-.271.607.822,1.387.538,1.886-.149.262-.577.265-1.347.269-1.1.008-1.765.012-2.066-.448-.385-.589.115-1.5.179-1.618a2.084,2.084,0,0,1-2.245,0c-.808-.708-.372-2.406.538-3.143a1.919,1.919,0,0,1,1.438-.449A1.96,1.96,0,0,1,268.351,513.122Z" transform="translate(-264.602 -511.898)"/><path class="i" d="M268.46,513.672a1.536,1.536,0,0,1,2.011,1.3,1.682,1.682,0,0,1-1.262,1.517c-.633.093-.947-.559-1.369-.37-.5.225-.352,1.282-.8,1.434-.236.079-.475-.146-.906-.553-.612-.58-.987-.934-.887-1.374.13-.563.94-.852,1.043-.888a1.49,1.49,0,0,1-1.248-1.2c-.036-.862,1.2-1.662,2.131-1.626a1.4,1.4,0,0,1,1.061.493A1.528,1.528,0,0,1,268.46,513.672Z" transform="translate(-264.571 -511.914)"/></g><g transform="translate(7.477 25.591)"><path class="h" d="M274.678,514.558a1.371,1.371,0,0,1,.351,1.989,1.21,1.21,0,0,1-1.52.118c-.391-.332-.2-.906-.526-1.054-.4-.176-.9.536-1.229.352-.17-.1-.173-.376-.176-.878,0-.713-.008-1.149.293-1.345.383-.25.979.075,1.053.118a1.358,1.358,0,0,1,0-1.462c.461-.526,1.567-.242,2.048.351a1.248,1.248,0,0,1,.293.936A1.274,1.274,0,0,1,274.678,514.558Z" transform="translate(-271.577 -512.118)"/><path class="i" d="M274.317,514.63a1,1,0,0,1-.846,1.31,1.1,1.1,0,0,1-.987-.822c-.061-.412.363-.616.24-.892-.146-.328-.835-.228-.934-.521-.053-.153.1-.309.36-.59.377-.4.608-.643.9-.578.366.085.554.612.578.68a.971.971,0,0,1,.778-.814c.562-.024,1.083.779,1.059,1.389a.914.914,0,0,1-.321.69A1,1,0,0,1,274.317,514.63Z" transform="translate(-271.563 -512.097)"/></g><g transform="translate(11.958 23.23)"><path class="h" d="M279.538,514.549a2.105,2.105,0,0,1-2.578,1.723,1.86,1.86,0,0,1-1.1-2.066c.225-.755,1.151-.833,1.155-1.39,0-.665-1.311-.939-1.252-1.509.031-.3.421-.475,1.125-.789,1-.447,1.611-.72,2.072-.42.589.383.5,1.422.486,1.552a2.086,2.086,0,0,1,2.055-.9c1.025.323,1.309,2.053.772,3.094a1.91,1.91,0,0,1-1.134.99A1.96,1.96,0,0,1,279.538,514.549Z" transform="translate(-275.756 -509.911)"/><path class="i" d="M279.13,514.121a1.536,1.536,0,0,1-2.364-.38,1.681,1.681,0,0,1,.545-1.9c.541-.341,1.091.13,1.4-.213.372-.408-.194-1.315.155-1.635.183-.168.494-.057,1.052.143.794.283,1.28.457,1.365.9.108.567-.518,1.159-.6,1.232a1.492,1.492,0,0,1,1.624.593c.38.774-.427,2-1.3,2.347a1.4,1.4,0,0,1-1.169-.025A1.524,1.524,0,0,1,279.13,514.121Z" transform="translate(-275.691 -509.915)"/></g><g transform="translate(7.829 20.477)"><path class="h" d="M275.687,511.98a2.105,2.105,0,0,1-2.578,1.723,1.86,1.86,0,0,1-1.1-2.066c.225-.755,1.151-.833,1.155-1.391,0-.665-1.311-.939-1.252-1.509.031-.3.421-.475,1.125-.789,1-.447,1.611-.72,2.072-.42.589.384.5,1.422.486,1.552a2.089,2.089,0,0,1,2.056-.9c1.025.323,1.308,2.053.772,3.1a1.92,1.92,0,0,1-1.135.99A1.965,1.965,0,0,1,275.687,511.98Z" transform="translate(-271.905 -507.343)"/><path class="i" d="M275.279,511.553a1.536,1.536,0,0,1-2.364-.38,1.682,1.682,0,0,1,.545-1.9c.542-.341,1.091.13,1.4-.212.372-.41-.194-1.317.155-1.636.184-.167.494-.057,1.053.143.793.284,1.279.457,1.364.9.108.567-.517,1.159-.6,1.233a1.491,1.491,0,0,1,1.624.592c.38.774-.427,2-1.3,2.347a1.4,1.4,0,0,1-1.169-.025A1.524,1.524,0,0,1,275.279,511.553Z" transform="translate(-271.84 -507.347)"/></g><g transform="translate(8.267 26.159)"><path class="h" d="M273.493,515.111a1.372,1.372,0,0,1-1.121-1.68,1.209,1.209,0,0,1,1.344-.718c.492.146.544.749.906.752.433,0,.612-.854.983-.816.2.02.31.276.515.733.291.651.468,1.049.273,1.349-.25.384-.926.326-1.011.317a1.358,1.358,0,0,1,.589,1.338c-.211.668-1.337.852-2.016.5a1.244,1.244,0,0,1-.644-.739A1.278,1.278,0,0,1,273.493,515.111Z" transform="translate(-272.314 -512.647)"/><path class="i" d="M273.729,514.844a1,1,0,0,1,.248-1.54,1.1,1.1,0,0,1,1.234.355c.222.353-.084.711.139.913.266.242.857-.126,1.065.1.109.12.038.322-.092.686-.185.517-.3.833-.587.888-.369.071-.754-.337-.8-.388a.971.971,0,0,1-.386,1.057c-.5.248-1.3-.278-1.528-.845a.91.91,0,0,1,.015-.761A1,1,0,0,1,273.729,514.844Z" transform="translate(-272.268 -512.604)"/></g><g transform="translate(5.213 26.454)"><path class="h" d="M270.644,515.387a1.372,1.372,0,0,1-1.121-1.68,1.209,1.209,0,0,1,1.344-.718c.492.146.544.749.906.752.433,0,.612-.854.983-.816.2.02.31.276.514.733.292.651.47,1.049.274,1.349-.25.384-.926.325-1.011.317a1.358,1.358,0,0,1,.589,1.338c-.211.668-1.338.852-2.016.5a1.244,1.244,0,0,1-.644-.739A1.273,1.273,0,0,1,270.644,515.387Z" transform="translate(-269.465 -512.923)"/><path class="i" d="M270.88,515.12a1,1,0,0,1,.248-1.54,1.093,1.093,0,0,1,1.234.355c.222.353-.085.711.139.913.266.242.857-.126,1.065.1.109.12.038.322-.092.686-.185.517-.3.833-.587.888-.369.071-.755-.337-.8-.388a.971.971,0,0,1-.386,1.057c-.5.248-1.3-.278-1.528-.845a.91.91,0,0,1,.015-.761A1,1,0,0,1,270.88,515.12Z" transform="translate(-269.419 -512.88)"/></g><g transform="translate(12.731 21.808)"><path class="h" d="M277.658,511.052a1.371,1.371,0,0,1-1.122-1.679,1.213,1.213,0,0,1,1.345-.719c.492.147.542.75.906.753.433,0,.611-.854.983-.816.2.02.309.274.514.732.292.651.47,1.05.273,1.35-.249.384-.925.325-1.011.316a1.359,1.359,0,0,1,.589,1.339c-.21.667-1.337.852-2.016.5a1.254,1.254,0,0,1-.644-.74A1.277,1.277,0,0,1,277.658,511.052Z" transform="translate(-276.478 -508.589)"/><path class="i" d="M277.894,510.786a1,1,0,0,1,.247-1.539,1.1,1.1,0,0,1,1.235.354c.222.354-.085.711.138.914.267.241.858-.126,1.066.1.109.12.038.322-.093.685-.184.517-.3.833-.586.889-.369.071-.755-.337-.8-.389a.974.974,0,0,1-.386,1.058c-.5.247-1.3-.278-1.529-.846a.911.911,0,0,1,.016-.761A.994.994,0,0,1,277.894,510.786Z" transform="translate(-276.432 -508.546)"/></g><g transform="translate(8.248 23.014)"><path class="h" d="M273.475,512.177a1.371,1.371,0,0,1-1.121-1.679,1.21,1.21,0,0,1,1.345-.719c.491.147.542.749.9.752.433,0,.612-.853.984-.815.2.02.309.274.514.732.291.651.468,1.05.273,1.35-.25.383-.926.325-1.011.316a1.359,1.359,0,0,1,.589,1.339c-.21.667-1.337.851-2.016.5a1.244,1.244,0,0,1-.644-.739A1.278,1.278,0,0,1,273.475,512.177Z" transform="translate(-272.296 -509.714)"/><path class="i" d="M273.711,511.911a1,1,0,0,1,.248-1.541,1.1,1.1,0,0,1,1.235.355c.222.354-.085.711.138.913.266.242.857-.126,1.065.1.109.119.038.322-.092.685-.184.517-.3.833-.586.889-.37.07-.755-.338-.8-.389a.97.97,0,0,1-.386,1.057c-.5.248-1.3-.278-1.528-.845a.91.91,0,0,1,.015-.761A.99.99,0,0,1,273.711,511.911Z" transform="translate(-272.25 -509.671)"/></g><g transform="translate(5.004 23.384)"><path class="h" d="M270.45,512.522a1.371,1.371,0,0,1-1.122-1.679,1.213,1.213,0,0,1,1.345-.719c.492.147.542.75.906.753.432,0,.611-.854.983-.816.2.02.309.274.514.732.292.651.47,1.05.273,1.35-.25.384-.925.325-1.011.316a1.358,1.358,0,0,1,.589,1.339c-.21.667-1.337.852-2.016.5a1.247,1.247,0,0,1-.644-.739A1.273,1.273,0,0,1,270.45,512.522Z" transform="translate(-269.27 -510.059)"/><path class="i" d="M270.686,512.256a1,1,0,0,1,.247-1.541,1.1,1.1,0,0,1,1.235.355c.222.354-.085.711.138.914.267.241.858-.127,1.066.1.109.119.038.322-.093.685-.184.517-.3.833-.586.889-.369.071-.755-.338-.8-.389a.971.971,0,0,1-.386,1.058c-.5.247-1.3-.278-1.528-.846a.911.911,0,0,1,.016-.761A.992.992,0,0,1,270.686,512.256Z" transform="translate(-269.224 -510.016)"/></g><path class="f" d="M288.077,537.79a1.864,1.864,0,0,1-.823.305,3.393,3.393,0,0,1-1.015,0,6.41,6.41,0,0,1-1.3-.259l-.011-.006q-.441-.127-.9-.306l-.006.011c-.387-.154-.786-.315-1.171-.5-.347-.146-.682-.314-1.016-.481-.407-.2-.8-.415-1.163-.613-.177-.1-.35-.192-.516-.291-.461-.258-.853-.5-1.169-.706l-.166-.1c-.359-.228-.574-.37-.574-.37s2.933-21.54,3.07-21.773l.012.006.549.564.011.006.824.832c.166.174.351.343.524.505a14.405,14.405,0,0,0,1.125.98,15.307,15.307,0,0,0,2.31,1.532l.011.006a10.511,10.511,0,0,0,1.134.536.048.048,0,0,0,.04.009,13.628,13.628,0,0,0,2.546.8,9.171,9.171,0,0,0,1.289.223,11.94,11.94,0,0,0,2.453.076,9.554,9.554,0,0,0,1.52-.193,9.861,9.861,0,0,0,1.668-.418c.509-.178.82-.323.9-.353Z" transform="translate(-263.619 -486.484)"/><g transform="translate(15.374 28.13)"><path class="g" d="M280.112,535.519c-.461-.258-.853-.5-1.169-.706l4.251-20.326a14.405,14.405,0,0,0,1.125.98Z" transform="translate(-278.943 -514.486)"/></g><g transform="translate(17.058 30.649)"><path class="g" d="M281.677,536.253c-.407-.2-.8-.415-1.163-.613,1.863-5.778,4.754-14.809,6.012-18.805a10.511,10.511,0,0,0,1.134.536.048.048,0,0,0,.04.009C286.344,521.693,283.33,531.084,281.677,536.253Z" transform="translate(-280.514 -516.835)"/></g><g transform="translate(19.238 31.997)"><path class="g" d="M283.724,537.132l-.006.011c-.387-.154-.786-.315-1.171-.5,2.312-5.677,5.925-14.563,7.553-18.551a9.171,9.171,0,0,0,1.289.223C289.592,522.744,285.112,533.75,283.724,537.132Z" transform="translate(-282.547 -518.093)"/></g><g transform="translate(21.311 32.103)"><path class="g" d="M285.79,537.7a6.41,6.41,0,0,1-1.3-.259l-.011-.006,9.221-19.045a9.554,9.554,0,0,0,1.52-.193Z" transform="translate(-284.481 -518.192)"/></g><g transform="translate(14.634 26.217)"><path class="g" d="M278.827,534.844c-.359-.228-.574-.37-.574-.37s2.933-21.54,3.07-21.773l.012.006.549.564.011.006Z" transform="translate(-278.253 -512.701)"/></g><g transform="translate(23.636 31.333)"><path class="g" d="M287.472,537.446a1.864,1.864,0,0,1-.823.305l.241-.561,9.844-19.365c.509-.178.82-.323.9-.353Z" transform="translate(-286.649 -517.473)"/></g><path class="g" d="M281.117,512.7a14.436,14.436,0,0,0,7.865,5.82c5.625,1.84,9.048-.7,9.048-.7" transform="translate(-263.412 -486.484)"/><g transform="translate(17.341 21.819)"><path class="h" d="M285.065,510.554a2.107,2.107,0,0,1,2.9,1.091,1.859,1.859,0,0,1-1.035,2.1c-.744.257-1.349-.449-1.8-.128-.542.385,0,1.613-.5,1.9-.263.15-.631-.065-1.3-.453-.946-.552-1.523-.89-1.549-1.439-.031-.7.865-1.234.979-1.3a2.086,2.086,0,0,1-1.933-1.143c-.335-1.022.906-2.26,2.065-2.431a1.921,1.921,0,0,1,1.466.345A1.965,1.965,0,0,1,285.065,510.554Z" transform="translate(-280.777 -508.59)"/><path class="i" d="M284.9,511.094a1.537,1.537,0,0,1,1.07,2.143,1.684,1.684,0,0,1-1.858.663c-.593-.242-.531-.963-.991-1.016-.549-.063-.956.925-1.419.828-.243-.052-.335-.368-.5-.938-.233-.81-.374-1.306-.063-1.634.4-.418,1.243-.255,1.349-.233a1.491,1.491,0,0,1-.464-1.665c.407-.76,1.875-.821,2.662-.313a1.394,1.394,0,0,1,.663.964A1.523,1.523,0,0,1,284.9,511.094Z" transform="translate(-280.764 -508.599)"/></g><g transform="translate(23.513 25.704)"><path class="h" d="M289.8,515.016a1.371,1.371,0,0,1-.71,1.89,1.211,1.211,0,0,1-1.369-.674c-.167-.484.293-.878.084-1.174-.251-.353-1.051,0-1.236-.324-.1-.17.043-.411.3-.844.359-.616.579-.993.937-1.009.457-.021.8.563.846.637a1.359,1.359,0,0,1,.745-1.259c.665-.219,1.472.59,1.583,1.344a1.25,1.25,0,0,1-.225.954A1.279,1.279,0,0,1,289.8,515.016Z" transform="translate(-286.535 -512.223)"/><path class="i" d="M289.382,514.908a1,1,0,0,1-1.395.7,1.1,1.1,0,0,1-.432-1.209c.158-.387.627-.346.661-.645.042-.358-.6-.623-.538-.924.033-.159.239-.219.611-.325.527-.151.85-.243,1.063-.041.272.258.166.809.152.878a.971.971,0,0,1,1.084-.3c.5.265.535,1.221.2,1.734a.91.91,0,0,1-.627.432A.994.994,0,0,1,289.382,514.908Z" transform="translate(-286.465 -512.214)"/></g><g transform="translate(27.841 26.089)"><path class="h" d="M294.033,517.477a2.105,2.105,0,0,1-3.1.168,1.859,1.859,0,0,1,.1-2.339c.579-.536,1.416-.131,1.7-.609.342-.57-.651-1.476-.309-1.937.18-.242.6-.194,1.37-.106,1.087.124,1.753.2,2,.694.312.629-.294,1.477-.372,1.583a2.087,2.087,0,0,1,2.229.269c.718.8.081,2.434-.911,3.056a1.916,1.916,0,0,1-1.481.273A1.957,1.957,0,0,1,294.033,517.477Z" transform="translate(-290.571 -512.582)"/><path class="i" d="M293.853,516.886a1.536,1.536,0,0,1-1.841-1.531A1.682,1.682,0,0,1,293.446,514c.64-.017.874.668,1.317.531.527-.162.5-1.231.966-1.327.243-.051.455.2.833.658.538.648.868,1.044.715,1.47-.2.542-1.035.733-1.141.756a1.492,1.492,0,0,1,1.1,1.337c-.068.86-1.387,1.507-2.312,1.358a1.4,1.4,0,0,1-.994-.615A1.525,1.525,0,0,1,293.853,516.886Z" transform="translate(-290.468 -512.538)"/></g><g transform="translate(25.69 21.616)"><path class="h" d="M292.027,513.305a2.105,2.105,0,0,1-3.1.168,1.858,1.858,0,0,1,.1-2.339c.578-.535,1.415-.131,1.7-.609.342-.57-.651-1.476-.309-1.937.18-.242.6-.194,1.37-.106,1.087.124,1.753.2,2,.694.311.63-.295,1.477-.373,1.583a2.089,2.089,0,0,1,2.23.269c.717.8.08,2.434-.912,3.057a1.908,1.908,0,0,1-1.48.273A1.957,1.957,0,0,1,292.027,513.305Z" transform="translate(-288.565 -508.41)"/><path class="i" d="M291.847,512.714a1.536,1.536,0,0,1-1.841-1.531,1.682,1.682,0,0,1,1.434-1.354c.64-.017.873.668,1.315.532.527-.163.5-1.232.966-1.328.244-.051.455.2.833.658.539.649.868,1.044.716,1.47-.2.544-1.036.733-1.142.757a1.49,1.49,0,0,1,1.1,1.337c-.068.859-1.386,1.506-2.311,1.357a1.392,1.392,0,0,1-.994-.615A1.528,1.528,0,0,1,291.847,512.714Z" transform="translate(-288.462 -508.366)"/></g><g transform="translate(24.607 26.174)"><path class="h" d="M288.437,514.916a1.37,1.37,0,0,1-.109-2.017,1.209,1.209,0,0,1,1.523.066c.348.376.085.921.4,1.109.371.222.962-.425,1.262-.2.158.117.125.393.069.892-.081.709-.131,1.142-.451,1.3-.411.2-.963-.192-1.031-.242a1.359,1.359,0,0,1-.176,1.452c-.521.467-1.585.052-1.99-.594a1.241,1.241,0,0,1-.179-.964A1.276,1.276,0,0,1,288.437,514.916Z" transform="translate(-287.543 -512.661)"/><path class="i" d="M288.805,514.8a1,1,0,0,1,1-1.2,1.1,1.1,0,0,1,.882.935c.011.416-.435.568-.346.857.106.343.8.327.865.629.033.159-.132.3-.429.542-.422.351-.681.565-.957.465-.354-.126-.478-.673-.493-.743a.972.972,0,0,1-.871.714c-.56-.044-.981-.9-.884-1.506a.912.912,0,0,1,.4-.646A.989.989,0,0,1,288.805,514.8Z" transform="translate(-287.555 -512.594)"/></g><g transform="translate(21.828 24.873)"><path class="h" d="M285.845,513.7a1.371,1.371,0,0,1-.11-2.017,1.213,1.213,0,0,1,1.524.066c.348.376.085.922.4,1.109.372.223.962-.423,1.262-.2.158.118.127.395.07.893-.081.708-.131,1.142-.452,1.3-.41.2-.962-.192-1.031-.242a1.358,1.358,0,0,1-.175,1.452c-.521.467-1.585.053-1.991-.594a1.247,1.247,0,0,1-.178-.965A1.276,1.276,0,0,1,285.845,513.7Z" transform="translate(-284.951 -511.448)"/><path class="i" d="M286.213,513.585a1,1,0,0,1,1-1.2,1.094,1.094,0,0,1,.882.934c.012.417-.434.568-.346.857.106.344.8.328.865.629.033.159-.131.3-.428.542-.422.352-.681.566-.957.466-.355-.128-.478-.674-.493-.743a.97.97,0,0,1-.871.713c-.56-.044-.981-.9-.884-1.505a.913.913,0,0,1,.4-.648A1,1,0,0,1,286.213,513.585Z" transform="translate(-284.963 -511.38)"/></g><g transform="translate(30.665 24.703)"><path class="h" d="M294.088,513.544a1.371,1.371,0,0,1-.109-2.017,1.21,1.21,0,0,1,1.523.066c.348.376.086.922.4,1.109.371.222.962-.425,1.262-.2.158.117.125.393.069.892-.081.709-.131,1.142-.451,1.3-.411.2-.963-.192-1.031-.242a1.359,1.359,0,0,1-.176,1.452c-.521.467-1.585.052-1.99-.594a1.246,1.246,0,0,1-.179-.964A1.276,1.276,0,0,1,294.088,513.544Z" transform="translate(-293.194 -511.289)"/><path class="i" d="M294.456,513.427a1,1,0,0,1,1-1.2,1.1,1.1,0,0,1,.882.935c.011.416-.435.568-.346.857.106.343.8.327.865.629.033.159-.132.3-.429.543-.422.351-.681.565-.957.466-.354-.128-.478-.674-.492-.744a.972.972,0,0,1-.872.714c-.56-.044-.981-.9-.884-1.506a.912.912,0,0,1,.4-.646A.989.989,0,0,1,294.456,513.427Z" transform="translate(-293.206 -511.222)"/></g><g transform="translate(26.193 23.457)"><path class="h" d="M289.916,512.382a1.371,1.371,0,0,1-.11-2.017,1.212,1.212,0,0,1,1.525.067c.348.376.085.922.4,1.109.371.222.961-.425,1.261-.2.159.117.126.393.07.892-.081.709-.131,1.142-.451,1.3-.411.2-.963-.192-1.031-.242a1.359,1.359,0,0,1-.176,1.452c-.521.467-1.585.053-1.991-.594a1.247,1.247,0,0,1-.178-.964A1.276,1.276,0,0,1,289.916,512.382Z" transform="translate(-289.022 -510.127)"/><path class="i" d="M290.284,512.265a1,1,0,0,1,1-1.2,1.1,1.1,0,0,1,.881.935c.012.416-.434.568-.345.857.106.343.8.327.865.629.033.159-.132.3-.429.542-.422.351-.681.565-.957.466-.354-.128-.478-.674-.493-.744a.97.97,0,0,1-.871.714c-.56-.044-.981-.9-.884-1.506a.912.912,0,0,1,.4-.646A.99.99,0,0,1,290.284,512.265Z" transform="translate(-289.034 -510.06)"/></g><g transform="translate(23.212 22.124)"><path class="h" d="M287.136,511.137a1.372,1.372,0,0,1-.109-2.017,1.211,1.211,0,0,1,1.523.066c.348.376.086.922.4,1.109.371.222.962-.423,1.262-.2.158.117.125.393.069.892-.082.709-.131,1.142-.451,1.3-.411.2-.963-.191-1.031-.242a1.361,1.361,0,0,1-.176,1.453c-.521.466-1.585.053-1.99-.594a1.247,1.247,0,0,1-.178-.965A1.279,1.279,0,0,1,287.136,511.137Z" transform="translate(-286.242 -508.884)"/><path class="i" d="M287.5,511.021a1,1,0,0,1,1-1.2,1.094,1.094,0,0,1,.882.934c.011.417-.435.568-.346.857.106.344.8.328.865.629.033.159-.132.3-.429.543-.422.351-.681.566-.957.466-.354-.128-.478-.674-.492-.744a.972.972,0,0,1-.872.714c-.56-.044-.981-.9-.884-1.505a.91.91,0,0,1,.4-.648A.992.992,0,0,1,287.5,511.021Z" transform="translate(-286.254 -508.816)"/></g></svg>