<svg xmlns="http://www.w3.org/2000/svg" xmlns:xlink="http://www.w3.org/1999/xlink" width="392.085" height="453.431" viewBox="0 0 392.085 453.431"><defs><style>.a,.j{fill:none;}.b,.i{fill:#7fd1d8;}.c{clip-path:url(#a);}.d{fill:#fcb95d;}.d,.e,.f,.g,.h,.i,.j,.k,.l{fill-rule:evenodd;}.e{fill:#243e41;}.f{fill:#171f1c;}.g{fill:#c98121;}.h{fill:#f7805c;}.j{stroke:#3e6569;stroke-miterlimit:10;stroke-width:11.826px;}.k{opacity:0.2;}.l{fill:#3e6569;}</style><clipPath id="a"><rect class="a" width="392.085" height="320.209" transform="translate(392.085 320.209) rotate(-180)"/></clipPath></defs><g transform="translate(-989.301 -355.546)"><path class="b" d="M1081.138,374.372a44.388,44.388,0,0,1-27.626-18.651l-.074-.175-4.384,1.879,34.2,78.821a21.243,21.243,0,0,0-16.329.359c-10.22,4.379-15.357,15.281-11.47,24.349s15.245,12.69,25.468,8.309c10.132-4.342,15.491-14.553,11.49-24.284l.281-.121.06.141-.011-.026-.014-.032-31.964-73.507c4.075,2.976,10.228,5.925,20.437,8.723,20.212,5.537,14.667,22.677,14.667,22.677C1103.318,393.812,1099.5,378.354,1081.138,374.372Z" transform="translate(32.581)"/><path class="b" d="M1151.167,504.193l.008-.017.011-.022,22.122-50.221h0l.377-.856-38.454-11.318-2.582,5.972-17,38.692a11.935,11.935,0,0,0-6.387-6.589c-5.71-2.54-12.164-.491-14.417,4.574s.6,11.109,6.313,13.649c5.643,2.51,11.875.839,14.387-4.515l.012.006-.039.087.008-.026.011-.032,17.313-39.292,33.129,9.307L1151.3,497a11.949,11.949,0,0,0-6.385-6.594c-5.71-2.539-12.164-.493-14.417,4.573s.5,11.348,6.206,13.889c5.643,2.51,11.988.586,14.28-4.277l.012.006Zm-17.013-52.885,1.176-2.669,33.027,9.528-1.075,2.448Z" transform="translate(57.127 47.01)"/><g transform="translate(1067.522 526.581)"><path class="b" d="M1081.109,516.614c-2.877-.408-6.557.845-9.048,2.109-1.309.666-1.316,1.015-2.474.45-1.073-.527-2.255-2.56-3.058-3.471l-6.1-6.915a30.783,30.783,0,0,0-10.9-40.945c-2.115-1.3-4.894-2.327-6.98-.98-1.559,1.009-2.134,3-2.386,4.841a31.87,31.87,0,0,0,2.87,17.2,61.092,61.092,0,0,0,9.785,14.634,3.224,3.224,0,0,1,.856,1.428,3.179,3.179,0,0,1-.36,1.762c-3.393,8.142-7.23,16.585-6.467,25.375a25.362,25.362,0,0,0,6,14.24c3.517,4.089,8.555,7.048,13.943,7.3a26.177,26.177,0,0,0,10.324-2.061,33.506,33.506,0,0,0,11.5-6.736c1.741,2.048,3.427,4.143,5.034,6.3,1.267,1.7,2.557,3.432,3.7,5.237.365.578.646,1.182.983,1.771a9.133,9.133,0,0,1,.709,4.129,9.842,9.842,0,0,1-.267,1.839,14.069,14.069,0,0,1-2.469,5.008,11.01,11.01,0,0,1-2.9,2.717,9.533,9.533,0,0,1-1.794.9l-.164.06a8.48,8.48,0,1,0-11.684,2.627l-.051.011c.218.141.441.244.661.368.087.045.167.1.255.142,7.317,3.882,15.566-1.266,15.566-1.266a12.481,12.481,0,0,0,2.862-2.2,14.439,14.439,0,0,0,3.987-6.657,13.981,13.981,0,0,0,.442-3.729,11.213,11.213,0,0,0-.4-3.057,13.185,13.185,0,0,0-2.026-3.726,97.264,97.264,0,0,0-6.2-7.706l-1.539-1.768-2.747-3.16-.139-.159s5.889-6.093,3.834-13.115C1094.259,529.4,1091.513,518.093,1081.109,516.614ZM1043.3,479.76a6.127,6.127,0,0,1,11.07-2.794s4.818,6.407,2.706,16.678a53.127,53.127,0,0,1-2.315,8.677l-2.684-3.021c-.195-.223-.6-.845-.781-1.077a59.156,59.156,0,0,1-7.381-12.1A13.065,13.065,0,0,1,1043.3,479.76Zm24.412,69.894a16.843,16.843,0,0,1-11.182-7.091c-2.8-4.4-2.86-10.009-2.038-15.157a51.149,51.149,0,0,1,4.891-15.057l6.867,7.436a3.277,3.277,0,0,1,1.051,1.808,3.663,3.663,0,0,1-.818,2.128,16.148,16.148,0,0,0-.235,16.054,11.1,11.1,0,0,0,4.268,4.627,5.853,5.853,0,0,0,6.057-.131c-.742.535-3.953-2.156-4.46-2.638a12.347,12.347,0,0,1-3.152-4.872,8.688,8.688,0,0,1,3.353-10.258c4.639,5.112,10.111,11.2,14.81,16.6l.068.081A21.587,21.587,0,0,1,1067.713,549.654Zm21.1-8.859-2.028-2.373c-.054-.067-.1-.141-.153-.207l-11.788-13.272c2.085-1.046,8.308-3.29,14.1,3.452C1088.945,528.394,1093.459,533.377,1088.815,540.795Z" transform="translate(-1039.921 -466.229)"/></g><g transform="translate(989.301 488.768)"><g class="c" transform="translate(0)"><g transform="translate(453.807 398.567)"><path class="d" d="M1290.276,753.763c1.927,1.338,53.6,52.236,76.122,51.881s129.024-48.375,152.631-67.546c0,0-31.337-4.209-33.445-4.925s-115.737,27.307-126.1,23.984c-3.536-1.133-21.153-32.727-56.662-46.183S1290.276,753.763,1290.276,753.763Z" transform="translate(-1282.975 -694.663)"/><g transform="translate(212.446)"><path class="d" d="M1420.457,728.661c2.159-.765,25.213-16.134,37.434-16.865s30.444-.38,36.807-2.245c7.485-2.194,9.221,1.527.558,5.078-5.63,2.307-17.116,5.734-19.631,5.727-1.219,0,6.758-.893,15.457-2.632,9.248-1.85,19.3-4.5,19.684-2.463.74,3.95-25.973,11.305-30.646,11.674a95.432,95.432,0,0,0,12.325-1.171c5.577-.913,12.005-2.989,13.2-1.5,1.882,2.335-12.344,8.346-23.969,9.7-.218.451,3.488,1.372,17.208-1.378,1.379-.276,4.831.646.264,2.956-9.611,4.863-13.455,7.827-27.12,7.618-13.323-.2-27.887-4.369-37.6-.927Z" transform="translate(-1420.457 -694.664)"/><path class="d" d="M1441.186,717.979s10.789-12.789,22.437-14.368c6.924-.938,6.841-3.081,8.037-3.656,3.968-1.9-.124,6.8-6.048,8.774-4.815,1.6-7.832,11.461-10.763,13.43s-11.613,5.4-13.693,3.911S1441.186,717.979,1441.186,717.979Z" transform="translate(-1409.67 -699.685)"/></g><path class="d" d="M1430.276,721.686s-4.954,3.091-21.9,6.863,7.852,9.214,7.852,9.214l32.675-6.83Z" transform="translate(-1217.83 -687.689)"/></g><path class="e" d="M1152.732,542.063c7.453,9.746,9.5,5.934-2.655,18.863-5.475,8.4,7.527,8.516,16.765,12.954a17.643,17.643,0,0,1,5.235,3.57c4.583,3.956,13.725,4.8,22.41,6.079,18.477-2.219,22.964,12.447,22.432-6.079-.073-.241-.168-.482-.216-.723-4.535-15.655,21.444-1.3,16.138-15.221-12.133-5.5,14.859.53,6.079-22.409-12.929-9.649,15.8-17.633-6.079-22.433-1.423-8.612-21.759-2.871-15.921-15.921-5.838-7.02-16.86-2.992-22.432-6.079-22.265-5.017-12.93,11.94-22.41,6.079-12.568-4.245-15.848,11.965-15.944,15.921C1148.92,524.43,1133.506,542.063,1152.732,542.063Z" transform="translate(-905.255 -413.425)"/><path class="f" d="M1158.583,555.942a17.645,17.645,0,0,1,5.235,3.57c4.583,3.956,13.725,4.8,22.41,6.079,18.477-2.219,22.964,12.447,22.433-6.079-.073-.241-.168-.482-.217-.723-6.054-1.134-11.6-3.344-11.6-8.13.011-21.6-25.587-24.04-25.587-24.04s-6.954,14.682-7.388,16.273C1163.65,543.713,1161.165,549.815,1158.583,555.942Z" transform="translate(-896.997 -395.487)"/><path class="g" d="M1263.374,607.114s-57.154-.816-62.053-22.861-5.715-34.07,0-46.837-32.658,14.178-32.658,14.178,4.081,17.146,0,30.21-13.064,13.327-26.945,11.97,0,42.733,0,42.733,49.722,5.393,53.439,7.187,55.154.655,57.6,0S1263.374,607.114,1263.374,607.114Z" transform="translate(-909.556 -391.471)"/><path class="h" d="M1260.183,811.353c-2.324.175-13.4-4.488-31.106,6.747s-35.813,28.791-49.212,26.092-4.423-17.975,3.327-21.328c6.979-3.02,20.153-6.946,17.3-11.954s-9.068-4.441-15.329.019-11.26.162-9.113-2.337,17.678-11.412,21.425-12.161c2.771-.555,15.365,3.239,21.979,1.64s32.9-10.318,32.9-10.318Z" transform="translate(-889.144 -253.098)"/><path class="d" d="M1179.453,513.758s-27.759-6.512-27.759,25.814,3.265,36.411,27.759,26.611S1207.214,515.222,1179.453,513.758Z" transform="translate(-900.753 -402.793)"/><path class="i" d="M1080.557,751.4l1.4-1.93A20.8,20.8,0,0,0,1080.557,751.4Z" transform="translate(-939.542 -273.972)"/><path class="i" d="M1153.579,800.472l-9.485,47.706L1133.531,909.6l-31.746,184.49,326.13,3.947-10.18-90.258-5.495-48.727-3.761-33.266-11.828-104.867-.881-7.767,9.953,42.935L1552.19,813.8s-8.035-35.631-54.208-176.306c-17.08-52.079-85.415-94.005-175.474-65a236.187,236.187,0,0,0-25.727,9.995c-4.43,2.017-21.368,38.08-48.771,25.387-.583-.27-1.165-.541-1.732-.823-25.018-12.069-30.739-25.842-34.843-31.491,0-.015-.014-.029-.028-.043-.142-.17-.271-.341-.4-.511-2.884-3.635-9.9-7.482-19.5-10.747-17.293-5.892-43.019-10.208-65.21-7.624-11.274,1.292-21.638,4.359-29.533,9.9-22.091,15.518-42.566,42.977-55.073,80.488q-1.15,3.428-2.2,6.957c-.355,1.094-.711,2.2-1.08,3.309-3.166,9.769-6.374,19.778-9.568,29.859-3.267,10.307-6.5,20.687-9.684,30.98-6.248,20.246-12.239,40.111-17.534,58.312a70.572,70.572,0,0,0,35.524,19.778C1118.084,814.67,1153.579,800.472,1153.579,800.472Z" transform="translate(-982.578 -379.538)"/><path class="j" d="M1212.514,623.339l-32.049,64.938L1108.8,698.69l51.856,50.547-12.242,71.374,64.1-33.7,64.1,33.7-12.242-71.374,51.856-50.547-71.663-10.413Z" transform="translate(-924.141 -342.748)"/><path class="k" d="M1259.576,849.7c8.859,11.075,22.474,53.655,29.048,75.349L1267.54,738.186l-5.465-24.293c-34.077-30.569-19.537,58.638-23.045,85.7S1247.549,834.662,1259.576,849.7Z" transform="translate(-853.468 -296.806)"/><path class="k" d="M1159.951,601.185c8.107,10.506,27.076,21.311,37.966,14.184,16.072-10.508,44.81-10.522,49.821-35.07,1.987-9.712-3.82-13.119-11.557-13.673a236.2,236.2,0,0,0-25.727,9.995c-4.431,2.017-21.368,38.08-48.771,25.387C1161.1,601.739,1160.518,601.468,1159.951,601.185Z" transform="translate(-896.25 -373.671)"/><path class="h" d="M1080.557,751.4l1.4-1.93A20.8,20.8,0,0,0,1080.557,751.4Z" transform="translate(-939.542 -273.972)"/><g transform="translate(91.061 112.379)"><path class="d" d="M1079.539,763.083c-.8-2.131-36.386-62.845-30.692-83.95s76.2-109.863,99.855-127.508c0,0-3.5,30.48-3.325,32.631s-53.225,102.376-52.564,112.911c.224,3.6,25.754,27.687,29.963,64.291S1079.539,763.083,1079.539,763.083Z" transform="translate(-1048.23 -494.231)"/><g transform="translate(94.294)"><path class="d" d="M1118.689,596.33c1.233-1.85,21.178-19.878,24.772-31.2s7.6-28.547,10.869-34.09c3.845-6.52.757-9.037-4.644-1.734-3.509,4.747-9.468,14.737-10.058,17.1-.286,1.148,2.448-6.144,6.153-13.914,3.941-8.26,8.825-17.088,7-17.931-3.539-1.635-16.814,21.744-18.275,26.052a92.673,92.673,0,0,1,4.036-11.316c2.185-5.028,5.667-10.582,4.556-12.059-1.749-2.324-10.788,9.627-14.827,20.24-.476.1-.462-3.607,5.39-15.859.589-1.232.543-4.7-2.718-.952-6.86,7.884-10.563,10.8-13.619,23.7-2.979,12.582-2.525,27.273-8.076,35.592Z" transform="translate(-1109.251 -514.483)"/><path class="d" d="M1132.5,559.871s14.6-7.107,18.854-17.689c2.531-6.291,4.527-5.7,5.351-6.691,2.735-3.281-6.427-1.5-9.692,3.6-2.652,4.149-12.645,4.64-15.195,6.929s-7.844,9.638-6.935,11.95S1132.5,559.871,1132.5,559.871Z" transform="translate(-1100.786 -503.933)"/></g><path class="d" d="M1121.883,574.407s-4.086,3.925-11.667,18.971-6.8-9.579-6.8-9.579l14.2-29.111Z" transform="translate(-1018.15 -492.56)"/></g><path class="l" d="M1062.07,605.769s1.191,41.841,29.72,44.22,43.491,32.332,43.491,32.332l-69.56,12.362-32.414-23.3Z" transform="translate(-965.306 -352.329)"/><path class="i" d="M1056.841,609.462s1.191,41.84,29.719,44.218,43.492,32.332,43.492,32.332l-69.559,12.362-32.415-23.3Z" transform="translate(-968.158 -350.315)"/></g></g></g></svg>