<svg xmlns="http://www.w3.org/2000/svg" xmlns:xlink="http://www.w3.org/1999/xlink" width="52.475" height="52.475" viewBox="0 0 52.475 52.475"><defs><style>.a{fill:none;}.b{clip-path:url(#a);}.c{fill:#c0e8ec;}.d{fill:#a4dbe0;}.e{fill:#68aab0;}.f{fill:#dc6c85;}.g{fill:#86cc42;}</style><clipPath id="a"><circle class="a" cx="26.238" cy="26.238" r="26.238" transform="translate(471.46 344.675)"/></clipPath></defs><g transform="translate(-471.46 -344.675)"><g class="b"><path class="c" d="M476.368,378.018c.043-1.063.07-2.109.042-3.125a54.228,54.228,0,0,1,.438-8.284c.886-6.957,3.172-14.341,8.563-19.149a19.307,19.307,0,0,1,8.126-4.268c20.021-5.076,35.226,17.778,33.8,33.091s-12.047,21.031-25.206,22.219-22.394-2.164-24.9-8.615C475.814,386.237,476.2,382.016,476.368,378.018Z"/><path class="d" d="M468.051,358.531s17.477-19.747,32.464-9.725a20.009,20.009,0,0,1,4.743,5.212q.484.764.91,1.574c.282.542.544,1.1.781,1.67.207,1.05.392,2.11.536,3.2.643,6.44-4.294,9.516-7.451,13.847-.453,1.041-.907,2.077-.461,3.068,2.233,5.546,9.9,5.985,9.477,15.131a28.039,28.039,0,0,1-.877,3.042,8.521,8.521,0,0,1-.857,1.831c-2.866,4.079-6.6,6.75-22.939,4.733-16.338-1.959-28.178-10.1-26.815-24.624C457.562,377.486,458.37,368.755,468.051,358.531Z"/></g><path class="e" d="M513.66,369.136a6.792,6.792,0,0,1-1.979-.639c-.269-.167-.441-.145-.614.033a.464.464,0,0,0-.024.656q.7,1.094,1.409,2.184,1.056,1.634,2.113,3.264c.108.165.063.2-.115.218a3.1,3.1,0,0,0-2.815,2.134,1.266,1.266,0,0,0,.579,1.6,2.168,2.168,0,0,0,1.861.053,3.313,3.313,0,0,0,1.432-.973,2.374,2.374,0,0,0,.637-1.446,1.782,1.782,0,0,0-.411-1.071q-1.311-2.037-2.633-4.068c-.18-.278-.152-.359.141-.513a2.2,2.2,0,0,1,1.349-.176,1.714,1.714,0,0,1,1.144.627,7.9,7.9,0,0,1,.629.986c.032.053.051.129.128.116s.058-.089.064-.138a2.776,2.776,0,0,0,.027-.762,1.891,1.891,0,0,0-1.064-1.429A7.96,7.96,0,0,0,513.66,369.136Z"/><path class="f" d="M506.326,367.365c-.923.074-1.85.035-2.775.145-.673.08-1.359.07-2.039.127-1.323.11-2.639.263-3.957.419q-1.27.152-2.536.341c-.629.094-1.258.189-1.883.3a1.083,1.083,0,0,0-.682.418,1.867,1.867,0,0,0-.258,1.058c-.1,1.244-.189,2.489-.306,3.732-.147,1.562-.276,3.127-.41,4.69-.086,1.009-.166,2.019-.251,3.027-.006.067.022.156-.054.193s-.121-.036-.177-.079a6.01,6.01,0,0,0-2.884-1.138,6.116,6.116,0,0,0-2.837.263,4.236,4.236,0,0,0-1.818,1.143,2.369,2.369,0,0,0-.614,2.146,3.528,3.528,0,0,0,2.035,2.4,6.232,6.232,0,0,0,2.736.68,5.843,5.843,0,0,0,3.093-.715,3.076,3.076,0,0,0,1.39-1.472,4.06,4.06,0,0,0,.23-1.266c.121-1.447.26-2.892.389-4.338q.119-1.324.229-2.65.12-1.468.23-2.936c.01-.133.041-.2.193-.232.663-.156,1.334-.273,2-.383,1.027-.169,2.06-.3,3.093-.437.879-.113,1.76-.2,2.642-.3.234-.025.471-.023.7-.055,1.059-.146,2.128-.145,3.192-.224h.708c.1,0,.184.007.169.154-.055.571-.1,1.142-.141,1.714-.1,1.323-.235,2.642-.351,3.964-.088.993-.167,1.988-.253,2.982-.006.066.013.159-.058.191s-.119-.057-.172-.1a5.728,5.728,0,0,0-2.672-1.1,6.69,6.69,0,0,0-2.364.054,4.91,4.91,0,0,0-2.073.918,2.59,2.59,0,0,0-1.075,2.066,2.636,2.636,0,0,0,.764,1.866,5.6,5.6,0,0,0,3.783,1.675,5.5,5.5,0,0,0,1.524-.064,5.3,5.3,0,0,0,2.218-.892,2.821,2.821,0,0,0,1.09-1.486,8.826,8.826,0,0,0,.209-1.749c.086-.9.152-1.8.229-2.7.109-1.259.215-2.519.331-3.777q.148-1.631.291-3.261c.118-1.345.214-2.693.34-4.037A1.082,1.082,0,0,0,506.326,367.365Z"/><path class="g" d="M497.438,359.284a13.536,13.536,0,0,0-1.609-3.409,9.746,9.746,0,0,1-1.364-2.858.557.557,0,0,0-.239-.364.75.75,0,0,0-1.186.477c-.149.65-.285,1.3-.433,1.953-.155.681-.32,1.359-.474,2.04-.213.949-.416,1.9-.63,2.849-.117.52-.254,1.036-.369,1.557-.167.75-.32,1.5-.483,2.255-.012.058-.008.145-.073.164-.08.022-.115-.062-.161-.113a3.737,3.737,0,0,0-.92-.713,5.69,5.69,0,0,0-1.32-.554,5.229,5.229,0,0,0-2.28-.158,3.617,3.617,0,0,0-1.778.745,2.176,2.176,0,0,0-.357.373,2.258,2.258,0,0,0-.436,1.638,3,3,0,0,0,1.341,1.941,5.128,5.128,0,0,0,2.03.894,4.9,4.9,0,0,0,2.9-.162,2.427,2.427,0,0,0,1.576-1.5c.129-.419.216-.851.313-1.279.169-.75.328-1.5.5-2.252.163-.719.341-1.435.5-2.155.236-1.048.463-2.1.695-3.147.029-.13.074-.217.246-.217a1.749,1.749,0,0,1,.573.1,3.366,3.366,0,0,1,1.466,1.092,3.117,3.117,0,0,1,.741,2.658c-.1.63-.339,1.224-.468,1.857.029.005.048.014.059.008a3.388,3.388,0,0,0,1.579-1.732A3.208,3.208,0,0,0,497.438,359.284Z"/></g></svg>