<svg xmlns="http://www.w3.org/2000/svg" width="528" height="414.983" viewBox="0 0 528 414.983"><defs><style>.a{fill:#edf9fa;}.a,.b,.c,.d,.e,.f,.g,.i,.j,.k,.l,.m,.n,.o,.r,.s,.w,.x{fill-rule:evenodd;}.b{fill:#243e41;}.c{fill:#171f1c;}.d{fill:#c98121;}.e{fill:#414143;}.f,.h,.m{fill:none;stroke:#414143;stroke-miterlimit:10;}.g{fill:#fcb95d;}.h,.m{stroke-width:0.604px;}.i{fill:#fff;}.j{fill:#cbdcf2;}.k{fill:#a9c6ea;}.l{fill:#403f44;}.n,.p{fill:#d1d3d4;}.o{fill:#36a5ad;}.q{fill:#bcbec0;}.r,.t{fill:#a1dd6f;}.s{opacity:0.15;}.u{opacity:0.5;}.v{fill:#243330;}.w{opacity:0.2;}.x{fill:#7fd1d8;}.y{fill:#3e6569;}</style></defs><g transform="translate(-458.065 -398.141)"><path class="a" d="M469.98,603.423c-13.885-20.108-12.11-43.246-11.492-50.072,4.7-51.952,56.9-85.306,87.83-105.068a302.369,302.369,0,0,1,86.188-37.759c29.486-7.618,122.247-31.588,215.881,18.88,22.908,12.347,97.923,57.208,124.768,146.931,7.732,25.837,31.277,104.536-14.775,154.317-28.967,31.314-75.355,40.253-109.993,34.476-19-3.168-26.006-9.352-106.709-62.383-65.668-43.152-70.485-45.272-77.159-47.61-41.63-14.582-53.673-1.994-122.306-17.238C493.23,627.019,478.67,616.008,469.98,603.423Z" transform="translate(0 0)"/><path class="b" d="M621.88,446.957c-4.653,3.468-5.092,1.468-1.236,8.926,1.4,4.528-4.526,2.9-9.3,3.722a8.33,8.33,0,0,0-2.844.946c-2.6,1.207-6.865.407-10.983-.136-8.118-3.4-12.058,2.688-9.419-5.671.065-.1.139-.2.193-.3,4.091-6.534-9.587-3.369-5.37-9.015,6.231-.93-6.83-1.682.136-10.981,7.131-2.716-4.9-10.069,5.671-9.419,1.763-3.733,10.27,1.512,9.305-5.18,3.564-2.438,8.058.822,10.992.14,10.778.6,4.336,7.107,9.407,5.668,6.267-.3,5.66,7.495,5.191,9.307C625.9,439.428,630.627,449.447,621.88,446.957Z" transform="translate(76.461 12.934)"/><path class="c" d="M608.911,449.829a8.331,8.331,0,0,0-2.844.946c-2.6,1.207-6.865.407-10.983-.136-8.118-3.4-12.058,2.688-9.419-5.671.065-.1.14-.2.193-.3,2.9.269,5.712-.018,6.332-2.195,2.793-9.827,14.754-7.623,14.754-7.623s1.262,7.579,1.252,8.361C608.19,443.609,608.529,446.707,608.911,449.829Z" transform="translate(78.891 22.709)"/><path class="d" d="M581.772,467.7s13.732,1.095,18.816-8.3,7.013-14.759,6.066-21.307,13.022,10.679,13.022,10.679-4.078,7.271-3.913,13.744,5.173,28.376,5.173,28.376-23.318-3.987-25.242-3.652-25.175-6.846-26.205-7.461S581.772,467.7,581.772,467.7Z" transform="translate(69.297 23.936)"/><path class="e" d="M552.44,559.065c-3.343,2.725-15.718,12.808-14.775,25.719,1.382,18.907,30.193,28.508,31.739,29,13.776,4.409,15.645-.905,54.176-1.095,14.685-.071,18.759.678,21.889-2.737,8.273-9.028-.378-35.939-17.511-50.345C606.706,541.743,572.21,542.956,552.44,559.065Z" transform="translate(49.498 92.375)"/><path class="f" d="M537.614,689.293c4.106-37.227,12.423-64.985,19.152-83.179,5.491-14.845,10.824-25.75,21.342-29,10.536-3.257,22.23,2.411,29,8.757,6.192,5.8,10.713,14.451,12.585,39.948a261.618,261.618,0,0,1-3.283,64.025" transform="translate(49.498 110.771)"/><path class="f" d="M551.782,684.512c.495-4.99,4.074-40.1,10.944-66.215a77.806,77.806,0,0,1,12.587-24.626c5.59-7.336,7.816-7.378,8.755-7.114,3.622,1.016,3.79,10.937,3.83,15.322.24,25.492-1.455,67.673-2.188,84.82" transform="translate(58.314 117.194)"/><path class="g" d="M603.577,428.872s13.471.633,9.286,15.338-6.2,16.141-16.076,8.512S590.758,425.942,603.577,428.872Z" transform="translate(82.849 18.934)"/><g transform="translate(685.893 528.637)"><path class="e" d="M706.143,568.916l52.945-3.57-4.1,12.134s-49.251,4.807-48.841,6.038S703.68,580.171,706.143,568.916Z" transform="translate(-532.157 -424.596)"/><path class="e" d="M771.344,619.72,600.35,483.7V499.7L771.344,634.322Z" transform="translate(-597.358 -475.4)"/><line class="h" x1="26.267" y2="5.746" transform="translate(99.29 81.762)"/><path class="i" d="M772.492,622.9l52.944-3.57L641.568,478.583l-43.062,3.2,2.992,5.093Z" transform="translate(-598.505 -478.583)"/><path class="j" d="M707.19,556.172l5.883,7.114,5.609-5.746-8.072-6.293Z" transform="translate(-530.878 -433.368)"/><path class="k" d="M710.816,561.135h27.5l5.2-6.43-27.088.684Z" transform="translate(-528.621 -431.217)"/><path class="l" d="M709.3,551.51l25.857-.684,9.3,6.293-27.088.684Z" transform="translate(-529.566 -433.63)"/><path class="j" d="M689.649,543.354l5.883,7.114,5.609-5.746-8.072-6.293Z" transform="translate(-541.793 -441.344)"/><path class="k" d="M693.275,548.317h27.5l5.2-6.43-27.088.684Z" transform="translate(-539.536 -439.193)"/><path class="l" d="M691.757,538.691l25.856-.684,9.3,6.293-27.088.684Z" transform="translate(-540.481 -441.606)"/><path class="j" d="M673.457,529.1l5.883,7.114,5.609-5.746-8.072-6.293Z" transform="translate(-551.868 -450.212)"/><path class="k" d="M677.083,534.064h27.5l5.2-6.43-27.088.684Z" transform="translate(-549.611 -448.061)"/><path class="l" d="M675.565,524.439l25.857-.684,9.3,6.293-27.088.684Z" transform="translate(-550.556 -450.475)"/><path class="j" d="M655.323,515.205l5.883,7.114,5.609-5.746-8.072-6.293Z" transform="translate(-563.151 -458.859)"/><path class="k" d="M658.949,520.168h27.5l5.2-6.43-27.088.684Z" transform="translate(-560.895 -456.708)"/><path class="l" d="M657.431,510.543l25.857-.684,9.3,6.293-27.088.684Z" transform="translate(-561.84 -459.122)"/><path class="j" d="M637.968,502.809l5.883,7.114,5.609-5.746-8.072-6.293Z" transform="translate(-573.95 -466.573)"/><path class="k" d="M641.594,507.771h27.5l5.2-6.43-27.088.684Z" transform="translate(-571.694 -464.422)"/><path class="l" d="M640.076,498.146l25.857-.684,9.3,6.293-27.088.684Z" transform="translate(-572.639 -466.836)"/><path class="j" d="M620.933,489.6l5.883,7.114,5.609-5.746-8.072-6.293Z" transform="translate(-584.55 -474.795)"/><path class="k" d="M624.559,494.558h27.5l5.2-6.43-27.088.684Z" transform="translate(-582.294 -472.643)"/><path class="l" d="M623.041,484.933l25.857-.684,9.3,6.293-27.088.684Z" transform="translate(-583.239 -475.057)"/><path class="m" d="M686.253,676.245,673.12,548.835l29.55-4.925" transform="translate(-552.078 -437.933)"/><line class="h" y1="4.925" x2="29.55" transform="translate(94.506 81.762)"/><line class="h" y1="4.925" x2="29.55" transform="translate(67.124 60.998)"/><line class="h" y1="4.925" x2="29.55" transform="translate(40.385 39.36)"/><path class="m" d="M689.075,643.083c-.41-1.415-8.619-90.065-8.619-90.065" transform="translate(-547.513 -432.266)"/><path class="m" d="M689.311,588.983V561.841l32.423-5.281" transform="translate(-542.003 -430.062)"/></g><g transform="translate(645.111 625.644)"><g transform="translate(24.62 137.079)"><path class="n" d="M639.243,659.151c-5.2-1.588-14.784-6.88-21.816-10.587l0,0c-.222-.122-.43-.23-.644-.342-3.671-1.926-6.552-3.356-7.582-3.48a3.774,3.774,0,0,1-.407-.068c-.4-.076-.936-.2-1.583-.389-5.832-1.647-20.276-7.243-18.515-11.547a11.494,11.494,0,0,1,1.34-2.318c.113-.156.227-.313.352-.464l.024-.024c.157-.206.323-.415.5-.62l.011-.01c3.241-3.793,8.361-7.024,8.846-6.322,6.5,9.407,18.114,7.117,20.572,6.509.307-.076.469-.127.469-.127s.329.178.944.537c.333.2.758.457,1.259.764.272.165.564.349.882.55.107.07.218.135.321.209.261.162.537.336.826.524.14.092.279.183.427.286l0,0q1.18.779,2.609,1.786c.6.419,1.214.861,1.864,1.34.982.714,2.026,1.505,3.126,2.357.1.088.2.183.3.276.529.472,1.035.962,1.528,1.452a41.5,41.5,0,0,1,4.461,5.232l0,.008C645.526,653.29,645.661,661.114,639.243,659.151Z" transform="translate(-588.543 -622.88)"/><path class="o" d="M638.843,644.683a12.9,12.9,0,0,0-12.321,4.7s-3.52-2.468-7.584-5.1l-1.074-.68c-.652-.415-1.316-.837-1.977-1.246-.571-.352-1.137-.694-1.69-1.024-3.076-1.827-5.814-3.233-6.922-3.219-2.995.036-19.623-4.062-17.759-7.693a1.974,1.974,0,0,1,.352-.464l.024-.024a4.622,4.622,0,0,0,.5-.62l.011-.01c3.241-3.793,8.361-7.024,8.846-6.322,6.5,9.407,18.114,7.117,20.572,6.509.307-.076.469-.127.469-.127s.329.178.944.537c.333.2.758.457,1.259.764.272.165.565.349.882.55.107.07.218.135.321.209.261.162.537.336.826.524.14.092.279.183.427.286l0,0q1.18.779,2.609,1.786c.6.419,1.214.861,1.864,1.34.981.714,2.026,1.505,3.126,2.357.1.088.2.183.3.276.529.472,1.035.962,1.528,1.452a41.5,41.5,0,0,1,4.461,5.232Z" transform="translate(-588.028 -622.88)"/><g transform="translate(28.063 7.78)"><path class="p" d="M614.273,628.959c-.238.079-.576.2-1,.359a18.87,18.87,0,0,0-4.287,2.219,8.982,8.982,0,0,0-1.244,1.059c-.144.151-.281.31-.412.474l-1.488-1.176a9.7,9.7,0,0,1,1.872-1.775l0,0a14.138,14.138,0,0,1,1.4-.923,20.95,20.95,0,0,1,3.123-1.515c.272.166.564.349.882.55.107.07.217.135.321.209C613.708,628.6,613.984,628.771,614.273,628.959Z" transform="translate(-605.842 -627.676)"/></g><g transform="translate(33.191 11.138)"><path class="p" d="M617.21,631.086c-1.374.464-5,1.854-6.713,4.035L609,633.943c1.612-2.047,4.451-3.441,6.343-4.2C615.941,630.165,616.559,630.607,617.21,631.086Z" transform="translate(-609.003 -629.746)"/></g><g transform="translate(38.723 15.11)"><path class="p" d="M620.041,633.647c-1.634.6-4.625,1.906-6.14,3.83l-1.487-1.174a15.493,15.493,0,0,1,6.1-4.108C619.042,632.667,619.547,633.157,620.041,633.647Z" transform="translate(-612.413 -632.195)"/></g><g transform="translate(15.945 6.479)"><path class="q" d="M610.286,639.867a7.814,7.814,0,0,1-1.758.253,10.845,10.845,0,0,0-5.855,2.067c-1.83,1.307-2.964,2.946-3.037,4.047l-1.264-.084a7.079,7.079,0,0,1,2.717-4.353,12.243,12.243,0,0,1,7.391-2.944c.037,0,.079-.006.115-.01,3.549-.178,3.859-2.1,3.794-5.748q0-.314-.015-.654c-.01-.4-.018-.81-.021-1.214,0-.209,0-.417.01-.615a4.467,4.467,0,0,1,1.251-3.188,2.925,2.925,0,0,1,.605-.425c.307-.076.469-.127.469-.127s.329.178.944.537l-.052.526a1.611,1.611,0,0,0-1.132.435,2.546,2.546,0,0,0-.68,1.319,6.167,6.167,0,0,0-.154,1.523l.02.822c0,.128,0,.253.01.375C613.723,635.628,613.806,638.945,610.286,639.867Z" transform="translate(-598.372 -626.874)"/></g><g transform="translate(28.233 8.539)"><path class="q" d="M614.388,636.289a23.886,23.886,0,0,1-2.8,2.247A17.08,17.08,0,0,0,608.624,641a5.462,5.462,0,0,0-1.393,4.244l-.633.044-.005,0-.624.042c-.01-.13-.015-.258-.02-.385a6.586,6.586,0,0,1,1.6-4.622,17.54,17.54,0,0,1,3.293-2.815,21.6,21.6,0,0,0,2.655-2.119,3.4,3.4,0,0,0,.633-.866,3.883,3.883,0,0,0,.3-2.438,8.85,8.85,0,0,0-1.225-3.058c-.191-.311-.323-.5-.331-.508l.5-.375c.261.162.537.336.826.524.14.093.279.183.427.286l0,0a10.231,10.231,0,0,1,.977,2.508,6.142,6.142,0,0,1,.133,2.065A4.536,4.536,0,0,1,614.388,636.289Z" transform="translate(-605.946 -628.144)"/></g></g><path class="g" d="M605.594,615.472s-7.037,12.868-10.436,16.534,7.668,7.112,8.054,7.487,10.915-1.254,10.915-1.254-4.456-3.947,4.769-19.624S605.594,615.472,605.594,615.472Z" transform="translate(-560.209 -493.364)"/><path class="r" d="M666.125,580.179c-.882,1.441-1.755,2.99-2.589,4.636-4.529,8.805-8.421,20.218-11.716,30.081-1.853,5.5-3.511,10.52-4.98,14.334-4.609,11.922-22.856,35.326-22.856,35.326l-28.3-10.726s-.088-20.708,9.54-32.492c5.676-6.932,8.079-18.08,10.118-26.9,1.441-6.186,2.7-11.226,4.784-12.882,1.942-1.53.461-4.335-2.117-7.216a76.488,76.488,0,0,0-11.167-9.5l44.758-21.1c2.323,5.715,8.814,10.021,12.186,11.971C663.791,555.716,674.42,566.786,666.125,580.179Z" transform="translate(-559.476 -535.043)"/><path class="g" d="M650.209,632.523s-1.1,15.52-2.764,20.559,10.538,3.473,11.077,3.665,9.975-6.03,9.975-6.03-6.041-1.84-4.065-21.039S650.209,632.523,650.209,632.523Z" transform="translate(-527.368 -486.459)"/><path class="s" d="M656,573.19c-4.529,8.805-8.421,20.218-11.716,30.081a112.463,112.463,0,0,0-16.9-14.521,38.185,38.185,0,0,0-19.569-5.933c1.44-6.186,2.7-11.226,4.784-12.882,1.942-1.53.461-4.335-2.117-7.216,9.725-1.217,29.217,1.6,39.639,3.97C653.016,567.347,654.878,569.779,656,573.19Z" transform="translate(-551.935 -523.418)"/><path class="t" d="M612.884,571.428a121.216,121.216,0,0,1-5.97,14.162s-1.541-.13-3.975-.5c-.033,0-.1-.032-.13-.032-6.716-1.055-19.937-3.991-26.118-11.275a13.731,13.731,0,0,1-3.017-5.97,13.453,13.453,0,0,1-.308-2.839,14.833,14.833,0,0,1,.195-2.352c2.839-17.974,29.2-27.984,39-20.684a8.7,8.7,0,0,1,1.281,1.168,8.466,8.466,0,0,1,1.265,1.817,11.754,11.754,0,0,1,.811,2.028C618.01,553.583,615.69,563.365,612.884,571.428Z" transform="translate(-573.366 -537.665)"/><path class="r" d="M708.879,683.137l-32.023,2.158s-9.247-19.937-5.159-35.56c4.1-15.655-6.31-38.853-3.2-44.952,3.147-6.1-20.2-10.269-20.2-10.269a107.556,107.556,0,0,0-22.241-6.2c-9.085-1.476-16.125-1.3-21.56-1.428-.795-.016-1.557-.049-2.287-.081a30.251,30.251,0,0,1-4.348-.5c-8.7-1.833-10.253-14.584-9.928-20.976.211-4.266,10.269-14.973,16.855-21.511,3.228-3.212,5.613-5.434,5.613-5.434.7-.016,1.849.016,3.407.13,3.358.195,8.549.665,14.616,1.411,5.954.7,12.719,1.671,19.467,2.9,14.5,2.644,28.843,6.473,34.278,11.567,4.753,4.478,12.913,5.775,17.034,6.165,0,0,15.136,5.986,13.059,22.565-2.076,16.6,2.239,42.292,3.066,55.837C716.147,652.509,708.879,683.137,708.879,683.137Z" transform="translate(-564.321 -538.381)"/><g class="u" transform="translate(111.179 29.115)"><g transform="translate(0 5.121)"><path class="v" d="M642.353,571.595l.865-.256,8.265-2.455,13.833-4.109c.248.393.511.78.793,1.16.18.245.367.487.556.725l-13.091,2.982c-3.942.891-7.907,1.786-11.159,2.519C642.4,571.973,642.374,571.783,642.353,571.595Z" transform="translate(-641.618 -556.193)"/><path class="v" d="M642.147,569.881l3.123-.926,6.6-1.96,12.365-3.676a14.072,14.072,0,0,0,.8,1.663l-11.494,2.62-10,2.256-1.353.3C642.175,570.066,642.16,569.974,642.147,569.881Z" transform="translate(-641.746 -557.099)"/><path class="v" d="M664.058,563.234c-4.1.936-20.2,4.614-22.155,5l0-.021,20.87-6.207,1.08.49C663.912,562.744,663.982,562.991,664.058,563.234Z" transform="translate(-641.9 -557.916)"/><path class="v" d="M642.839,566.047c.474-.045,18.594-4.19,18.594-4.19l-1.785-.811Z" transform="translate(-641.316 -558.514)"/><path class="v" d="M643.66,564.14c.378-.036,14.849-3.348,14.849-3.348l-1.423-.649Z" transform="translate(-640.805 -559.076)"/><path class="v" d="M644.131,562.679c.3-.027,11.863-2.673,11.863-2.673l-1.135-.521Z" transform="translate(-640.512 -559.485)"/></g><g transform="translate(3.669)"><path class="v" d="M657.493,577.516l-9.248-19.978q.908-.586,1.791-1.21c2.244,5.615,5.538,13.867,8.372,21Q657.951,577.418,657.493,577.516Z" transform="translate(-641.621 -556.328)"/><path class="v" d="M655.739,577.448l-8.883-19.188q.793-.44,1.565-.918c1.883,4.713,5.277,13.207,7.964,19.968Z" transform="translate(-642.486 -555.697)"/><path class="v" d="M653.913,577.446l-8.17-17.648.222-1.241c.246-.118.49-.242.733-.368,1.3,3.251,5.065,12.671,7.644,19.17Z" transform="translate(-643.178 -555.171)"/><path class="v" d="M652.035,576.875,645.147,562l.394-2.213s4.292,10.728,6.792,17.038Z" transform="translate(-643.549 -554.177)"/><path class="v" d="M650.37,576.035l-5.83-12.6.316-1.768s3.773,9.432,5.712,14.336Z" transform="translate(-643.927 -553.004)"/><path class="v" d="M649.055,575.369,644.162,564.8l.253-1.416s3.275,8.186,4.755,11.936Z" transform="translate(-644.162 -551.936)"/></g></g><g transform="translate(113.91 161.677)"><path class="n" d="M704.026,658.641c-5.722.766-17.3-.107-25.721-.577H678.3c-.269-.019-.518-.034-.772-.047-4.393-.235-7.8-.342-8.853-.006a4.034,4.034,0,0,1-.423.114c-.415.1-.993.216-1.7.323-6.353.988-22.76,1.968-22.961-2.962a12.082,12.082,0,0,1,.268-2.826c.041-.2.081-.4.135-.605l.015-.034c.06-.268.127-.544.208-.819l.006-.013c1.45-5.091,4.963-10.47,5.743-10.006,10.423,6.205,20.617-1.136,22.719-2.808.261-.208.4-.329.4-.329s.4.028,1.149.1l1.551.182c.336.041.7.088,1.095.141.135.021.269.034.4.06q.484.061,1.028.141c.174.028.349.054.537.088h.007c.988.154,2.089.342,3.3.571.759.141,1.551.3,2.391.47,1.262.255,2.618.556,4.056.892.135.04.276.088.41.135.719.222,1.423.47,2.115.725a44.263,44.263,0,0,1,6.614,3.076l.008.007C707.5,650.213,711.084,657.7,704.026,658.641Z" transform="translate(-643.584 -638.043)"/><path class="o" d="M697.643,644.631a13.686,13.686,0,0,0-9.813,9.974s-4.485-.826-9.57-1.572c-.436-.06-.886-.12-1.337-.18-.813-.115-1.639-.229-2.458-.329-.706-.088-1.4-.169-2.081-.242-3.775-.4-7.039-.552-8.1-.047-2.875,1.356-20.726,4.748-20.531.423a2.222,2.222,0,0,1,.135-.605l.014-.034a5.006,5.006,0,0,0,.208-.819l.006-.013c1.45-5.091,4.962-10.47,5.743-10.006,10.423,6.205,20.617-1.136,22.719-2.808.261-.208.4-.329.4-.329s.4.028,1.149.1l1.551.182c.336.041.7.088,1.095.141.135.021.269.034.4.06q.484.061,1.028.141c.174.028.349.054.537.088h.007c.988.154,2.089.342,3.3.571.759.141,1.551.3,2.391.47,1.262.255,2.618.556,4.056.892.135.04.276.088.41.135.719.222,1.423.47,2.115.725a44.273,44.273,0,0,1,6.614,3.076Z" transform="translate(-643.479 -638.043)"/><g transform="translate(27.883 0.282)"><path class="p" d="M667.61,638.559c-.195.182-.47.445-.806.787a19.989,19.989,0,0,0-3.157,4.036,9.448,9.448,0,0,0-.732,1.57,6.653,6.653,0,0,0-.188.639l-1.955-.477a10.271,10.271,0,0,1,1.022-2.539v-.007a15.116,15.116,0,0,1,.946-1.512,22.356,22.356,0,0,1,2.344-2.841c.336.041.7.088,1.095.141.135.021.269.034.4.06C666.9,638.459,667.246,638.506,667.61,638.559Z" transform="translate(-660.772 -638.217)"/></g><g transform="translate(34.304 1.283)"><path class="p" d="M671.386,639.3c-1.123,1.054-4,4-4.695,6.857l-1.961-.477c.652-2.687,2.774-5.285,4.265-6.851C669.754,638.975,670.546,639.129,671.386,639.3Z" transform="translate(-664.73 -638.834)"/></g><g transform="translate(41.356 2.781)"><path class="p" d="M675.263,640.482c-1.311,1.3-3.621,3.882-4.231,6.408l-1.955-.477c.618-2.579,2.6-5.078,4.07-6.656C673.866,639.979,674.57,640.228,675.263,640.482Z" transform="translate(-669.077 -639.757)"/></g><g transform="translate(22.017)"><path class="q" d="M666.125,652.523a8.369,8.369,0,0,1-1.585,1.021,11.521,11.521,0,0,0-4.735,4.58c-1.187,2.07-1.557,4.151-1.141,5.246l-1.257.477a7.51,7.51,0,0,1,.7-5.4,13,13,0,0,1,5.829-6.1l.109-.06c3.344-1.739,2.794-3.734,1.121-7.221-.094-.2-.195-.409-.3-.625-.188-.383-.376-.772-.558-1.161-.094-.2-.182-.4-.261-.6a4.747,4.747,0,0,1-.2-3.627,3.191,3.191,0,0,1,.4-.678c.261-.208.4-.329.4-.329s.4.028,1.148.1l.182.531a1.714,1.714,0,0,0-.9.921,2.7,2.7,0,0,0-.075,1.57,6.633,6.633,0,0,0,.524,1.538l.383.787c.06.12.115.242.175.355C667.569,646.915,669.114,650.078,666.125,652.523Z" transform="translate(-657.156 -638.043)"/></g><g transform="translate(33.164 0.483)"><path class="q" d="M669.123,645.756a25.119,25.119,0,0,1-1.712,3.405,18.243,18.243,0,0,0-1.767,3.686,5.792,5.792,0,0,0,.531,4.708l-.59.323h-.007l-.586.316c-.067-.122-.126-.242-.186-.363a6.981,6.981,0,0,1-.5-5.164,18.632,18.632,0,0,1,1.934-4.171,22.747,22.747,0,0,0,1.625-3.217,3.611,3.611,0,0,0,.229-1.114,4.114,4.114,0,0,0-.785-2.485,9.412,9.412,0,0,0-2.532-2.411c-.323-.216-.53-.336-.543-.342l.321-.586q.484.061,1.029.141c.174.028.349.054.537.088h.007a10.848,10.848,0,0,1,2.049,1.989,6.424,6.424,0,0,1,1.04,1.934A4.8,4.8,0,0,1,669.123,645.756Z" transform="translate(-664.027 -638.341)"/></g></g><path class="s" d="M637.477,539.926c-1.152.049-4.088.973-9.62,7.154-7.511,8.387-11.859,24.8-13.578,36.257a34.257,34.257,0,0,1-.73,3.553c-.795-.016-1.557-.049-2.287-.081a30.249,30.249,0,0,1-4.348-.5s-1.541-.13-3.975-.5c-.033,0-.1-.032-.13-.032-6.716-1.054-19.937-3.991-26.118-11.275a13.73,13.73,0,0,1-3.017-5.97,13.452,13.452,0,0,1-.308-2.839,14.833,14.833,0,0,1,.195-2.352c2.839-17.974,29.2-27.984,39-20.684a8.7,8.7,0,0,1,1.281,1.168c3.228-3.212,5.613-5.434,5.613-5.434.7-.016,1.849.016,3.407.13C626.219,538.709,631.41,539.179,637.477,539.926Z" transform="translate(-573.366 -538.381)"/></g><path class="w" d="M566.84,516.373c.105.79,9.091,33.61,18.858,37.518s16.8,7.032,22.27,1.562,8.6-8.986,8.6-8.986l-17.582-17.059Z" transform="translate(67.684 73.569)"/><g transform="translate(737.668 588.402)"><path class="g" d="M630.421,519.708c1.21-.015,15.784-3.251,22.093-1.8s15.355,4.226,19,4.354c4.309.149,4.219,1.968-.986,2.211-3.358.156-9.857-.053-11.1-.415-.6-.174,3.55.59,8.27,1.1,5.035.55,10.7.884,10.36,1.78-.649,1.721-15.549.951-17.922.446a57.677,57.677,0,0,0,6.307,1.252c2.948.412,6.6.475,6.821,1.241.341,1.2-8.014,1.611-13.958.539-.206.149,1.379,1.025,8.653,1.833.733.083,2.182.921-.571,1.2-5.74.574-8.243,1.2-14.738-.745-6.356-1.9-12.558-5.55-17.922-5.516Z" transform="translate(-630.421 -514.111)"/><path class="g" d="M642.769,518.867s8.351-4.012,14.681-2.993c3.77.607,4.265-.355,5.022-.435,2.523-.26-1.765,2.983-5.253,2.975-2.823-.007-6.628,3.785-8.535,4.2s-6.948.61-7.663-.31S642.769,518.867,642.769,518.867Z" transform="translate(-623.907 -515.424)"/></g><g transform="translate(725.438 565.847)"><path class="g" d="M622.882,508.025c.959.213,11.987,5.134,17.246,5.053s12.918-.735,15.836-.23c3.449.6,3.687-.826-.407-1.877a56.307,56.307,0,0,0-8.888-1.517c-.508.036,2.922.132,6.76.514,4.095.407,8.648,1.085,8.533.334-.222-1.441-12.189-3.311-14.162-3.313a47.721,47.721,0,0,1,5.224.075c2.412.167,5.329.723,5.631.167.475-.873-6.091-2.576-11-2.73-.14-.149,1.27-.564,7.187.011.6.058,1.89-.352-.25-1.02-4.463-1.4-6.345-2.294-11.836-1.864-5.373.42-10.922,2.222-15.178,1.308Z" transform="translate(-622.882 -501.52)"/><path class="g" d="M632.277,509.686s5.95,4.492,11.153,4.752a6.194,6.194,0,0,1,3.916,1.168c1.96.62-.894-2.6-3.666-3.176-2.243-.462-4.62-4.03-6.066-4.664s-5.415-1.624-6.14-1.029S632.277,509.686,632.277,509.686Z" transform="translate(-617.659 -498.388)"/></g><path class="x" d="M672.8,543.511l-8.283,15.574-30.273-22.851,12.215,31s5.089,39.561-2.735,45.562c-5.706,4.382-8.2,7.985-15.329,12.04-8.507,4.838-70.4,22.374-80.049-13.306a204.8,204.8,0,0,1-6.951-51.169,189.422,189.422,0,0,1,1.4-25.159q.84-6.823,2.235-13.609c.451-2.2.943-4.4,1.491-6.588a86.154,86.154,0,0,1,40.209-54c6.617-3.8,8.319-7.383,15.614-8.256.667-.079,8.358,2.2,9.789,4.618a51.252,51.252,0,0,0,6.471,8.775c3.206,3.343,6.951,5.7,10.608,4.421,4.922-1.715,5.981-3.97,5.874-5.725,2.51,6.246,11.018,20.9,15.186,40.418,1.257,5.872,8.515,6.338,12.026,17.84C667.319,539.549,672.8,543.511,672.8,543.511Z" transform="translate(51.844 33.978)"/><path class="g" d="M651.54,531.614s-15.94.763-28.376-1.977-19.759-8.059-19.759-8.059L617.9,510.429s26.282,12.8,39.026,12.175S651.54,531.614,651.54,531.614Z" transform="translate(90.436 69.87)"/><path class="g" d="M633,504.646l-16.914-5.294,6.338,12.061,9.054-1.2Z" transform="translate(98.328 62.978)"/><g transform="translate(655.566 514.341)"><path class="y" d="M614.105,524.659l-10.347-6.306-13.435,13.653,2.866-23.373-13.379-16.9,17.7-1.849,9.728-20.113,4.924,20.542,9.023,1.17L612.316,507Zm-10.347-12.091,6.744,4.544-1.209-11.532,4.894-8.179-6.925-1.99-3.5-11.606-3.8,11.215-9.777,1.585,7.265,9.753-1.622,13.763Z" transform="translate(-579.811 -469.77)"/></g><path class="x" d="M616.185,494.771s3.292,5.665,6.153,6.808c.628.25,1.783.849,1.783.849l-1.7,4.414-8.15-3.734Z" transform="translate(97.199 60.127)"/><path class="s" d="M559.287,472.983s-10.866,7.91-11.771,20.932c-1.582,22.75,3.006,52.8,22.092,67.891,8.165,6.455,18.374,9.336,28.425,11.292,8.617,1.676,36.465,6.1,44.453.727,11.688-7.865-8.63-18.9-8.63-18.9Z" transform="translate(55.48 46.57)"/><path class="x" d="M668.12,579.109c-30.758,13.768-52.659,12.157-80.565-1.492-16.422-8.03-23.48-18.459-29.749-28.74a59.28,59.28,0,0,1-6.684-15.071c-4.425-15.8-2.767-46.4,9.359-63.994,4.533-6.583,10.859-11.325,17-14.683a27.858,27.858,0,0,1,34.325,6.392c.135.154.261.292.378.412,7.483,7.709,10.145,17,14.232,26.58,3,7,6.752,14.146,13.724,20.938,15.476,15.093,29.458,28.709,43.731,34.628C685.16,544.606,674.37,576.311,668.12,579.109Z" transform="translate(56.512 33.379)"/></g></svg>