<svg xmlns="http://www.w3.org/2000/svg" width="984.447" height="328.673" viewBox="0 0 984.447 328.673"><defs><style>.a{fill:#f2634b;}.b{fill:#414042;}.ad,.c{fill:#bcbec0;}.d{fill:#585b60;}.e{fill:#a7a9ac;}.f{fill:#808285;}.ab,.ac,.g{fill:none;}.h{fill:#fff;}.i{fill:#ffea2f;}.j{fill:#f49819;}.k{fill:#403129;}.l{fill:#b04321;}.m{fill:#c24a24;}.n{fill:#caca1e;}.o{fill:#d3da66;}.p{fill:#fc8058;}.q{fill:#d75228;}.r{fill:#4f4f5e;}.s{fill:#5b4e47;}.t{fill:#992c59;}.u{fill:#e0ba8d;}.v{fill:#c98121;}.w{fill:#ff9fbf;}.x{fill:#ba3f6f;}.y{fill:#fefefe;}.z{fill:#090008;}.aa{fill:#9b2c52;}.ab,.ac{stroke:#765559;stroke-miterlimit:10;}.ab{stroke-width:0.372px;}.ac{stroke-width:0.743px;}.ad{opacity:0.5;}</style></defs><g transform="translate(-315.397 -397.066)"><g transform="translate(315.397 418.645)"><path class="a" d="M357.343,428.675s-3.008-2.768,0-8.736,11.328-.967,11.328-.967l-2.248.806s9.737.484,7,13.389l-.913-2.1s-5.858,16.292,9.382,22.582l-2.444.646s2.274,5,7.8,4.839c0,0-8.385,7.327-18.1,3.2S357.343,428.675,357.343,428.675Z" transform="translate(-312.067 -417.01)"/><path class="b" d="M369.776,445.752c-.06.454-2.36,5.431-4.1,9.143l-.965-.86-5.773.444V436.06s6.005-.9,6.145-.735,3.75,2.838,3.8,3.056S369.873,445.018,369.776,445.752Z" transform="translate(-311.827 -415.51)"/><path class="b" d="M369.6,458.49l-5.864,6.949a39.062,39.062,0,0,1-5.333.754,49.139,49.139,0,0,1-4.788-2.569l-2.423-3.949-.79-3.506,1.482-2.516,1.058-.081,6.7-.514,5.773-.444.965.86.815.73.79-.8Z" transform="translate(-312.527 -414.091)"/><path class="b" d="M359.763,436.06v18.418l-6.7.514c-1.743-3.722-4.081-8.783-4.141-9.24-.1-.734.835-7.154.887-7.371s3.663-2.894,3.8-3.056S359.763,436.06,359.763,436.06Z" transform="translate(-312.648 -415.51)"/><path class="c" d="M336.186,572.736s-2.575,4.212-1.49,13.534,2.511,21.188-1.613,31c0,0,1.924-3.755,7.527-4.287,0,0,5.36,1.077,6.652,6.31a74.526,74.526,0,0,1,.4-13.231c.878-5.639,4.365-11.724,5.255-19.051s-1.459-15.335-1.459-15.335l-8.2.383Z" transform="translate(-313.947 -404.328)"/><g transform="translate(23.186 127.307)"><path class="d" d="M357.068,534.67s-.406,6.322-1.437,14.322a152.572,152.572,0,0,1-3.492,18.884l-14.678-1.283s-.777-8.968-.612-18.195a72.43,72.43,0,0,1,1.2-13.109Z" transform="translate(-336.826 -534.67)"/></g><path class="e" d="M352.921,565.614s-9-7.849-17.281-1.779a24.209,24.209,0,0,0-.563,9.725s5.859,7.105,17.112,1.051A33.272,33.272,0,0,0,352.921,565.614Z" transform="translate(-313.805 -405.16)"/><path class="f" d="M347.193,538.569s4.394,1.072,13.035,1.072v-33l-9.4.395-4.6,30.218Z" transform="translate(-312.869 -409.66)"/><path class="f" d="M329.644,532.078a11.772,11.772,0,0,1,1.294,9.212,1.277,1.277,0,0,1-.813.85c-.1.034-.211.066-.33.094a1.239,1.239,0,0,1-1.5-1.333,11.707,11.707,0,0,0-.127-3.5,1.243,1.243,0,0,0-2.343-.257,20.919,20.919,0,0,0-1.6,8.892,1.239,1.239,0,0,1-2.107.912l-.034-.035a1.282,1.282,0,0,0-.766-.41,3.229,3.229,0,0,1-2.206-1.2s-2.914-3.506-1.531-9.529,4.74-3.407,4.987-3.457c.193-.038,4.134-.591,5.84-.829A1.238,1.238,0,0,1,329.644,532.078Z" transform="translate(-315.249 -407.625)"/><path class="f" d="M322.134,498.158l-.889,13.628,10.961,4.74,3.577-17.281-7.724-1.086Z" transform="translate(-314.917 -410.356)"/><path class="f" d="M342.081,474.885,337.908,495.1l-14.54-1.259,3.948-16.294Z" transform="translate(-314.743 -412.265)"/><path class="g" d="M359.167,455.08" transform="translate(-311.808 -413.889)"/><path class="b" d="M360.159,463.111v11.627s-11.233-5.554-13.085-15.183c0,0,2.061-3.982,3.956-5.472A15.749,15.749,0,0,0,360.159,463.111Z" transform="translate(-312.8 -413.97)"/><path class="c" d="M334.932,515.46l-4.369,12.96.815,5.258L315.4,537.441l1.612-8.354-.74-22.441S327.453,509.682,334.932,515.46Z" transform="translate(-315.397 -409.66)"/><rect class="e" width="14.961" height="4.987" transform="translate(32.398 93.43)"/><path class="c" d="M383.747,572.508s2.614,4.188,1.618,13.518-2.313,21.21,1.9,30.987c0,0-1.96-3.736-7.568-4.217,0,0-5.349,1.127-6.593,6.373a74.525,74.525,0,0,0-.527-13.226c-.929-5.631-4.475-11.682-5.434-19s1.315-15.349,1.315-15.349l8.2.306Z" transform="translate(-311.173 -404.335)"/><g transform="translate(51.001 127.276)"><path class="d" d="M382.437,566.376l-14.665,1.418a152.327,152.327,0,0,1-3.666-18.848c-1.108-7.989-1.573-14.305-1.573-14.305l19.02.437a72.241,72.241,0,0,1,1.324,13.1C383.129,557.4,382.437,566.376,382.437,566.376Z" transform="translate(-362.533 -534.641)"/></g><path class="e" d="M366.811,565.551s8.931-7.932,17.263-1.94a24.207,24.207,0,0,1,.654,9.72s-5.792,7.16-17.1,1.211A33.289,33.289,0,0,1,366.811,565.551Z" transform="translate(-311.187 -405.173)"/><path class="f" d="M372.2,538.569s-4.4,1.072-13.036,1.072v-33l9.4.395,4.6,30.218Z" transform="translate(-311.808 -409.66)"/><path class="c" d="M373.639,507.97s11.9,14.651,14.491,34.393c0,0-4.888,3.671-10.813,3.19s-8.813-10.649-8.665-15.759-2.073-18.318-3.554-21.824Z" transform="translate(-311.322 -409.552)"/><path class="c" d="M346.426,507.97s-11.9,14.651-14.491,34.393c0,0,4.888,3.671,10.813,3.19s8.813-10.649,8.665-15.759,2.074-18.318,3.555-21.824Z" transform="translate(-314.041 -409.552)"/><path class="f" d="M390.758,528.735a11.765,11.765,0,0,0-3.212,8.731,1.275,1.275,0,0,0,.613,1,3.269,3.269,0,0,0,.3.162,1.238,1.238,0,0,0,1.75-.985,11.7,11.7,0,0,1,.865-3.4,1.242,1.242,0,0,1,2.344.245,20.9,20.9,0,0,1-.313,9.029,1.239,1.239,0,0,0,1.867,1.337l.039-.027a1.292,1.292,0,0,1,.835-.239,3.228,3.228,0,0,0,2.412-.709s3.588-2.811,3.511-8.99-3.913-4.332-4.143-4.433c-.181-.079-3.916-1.452-5.533-2.046A1.239,1.239,0,0,0,390.758,528.735Z" transform="translate(-309.484 -407.882)"/><path class="f" d="M405.2,497.138l-2.013,13.507-11.716,2.315.159-17.647,7.779.572Z" transform="translate(-309.159 -410.59)"/><path class="f" d="M381.442,476.312l7.6,19.2,14.1-3.749-8-18.353Z" transform="translate(-309.982 -412.386)"/><path class="g" d="M359.165,455.08" transform="translate(-311.808 -413.889)"/><path class="b" d="M359.165,463.111v11.628s11.233-5.555,13.085-15.183c0,0-2.061-3.982-3.956-5.473A15.749,15.749,0,0,1,359.165,463.111Z" transform="translate(-311.808 -413.97)"/><path class="e" d="M400.36,477.475a3.786,3.786,0,0,1-3.663,3.565c-3.33.1-8.66-.144-12.771-2.216l-.284,4.816s1.507,10.069-6.592,23.4h-29.92c-8.1-13.333-6.588-23.4-6.588-23.4l-.282-4.816c-4.244,2.156-9.828,2.464-13.274,2.407a3.567,3.567,0,0,1-3.5-3.509,22.207,22.207,0,0,1,4.226-13.672c5.927-8,19.617-5.005,19.617-5.005s.014.05.039.147h1.639l13.085,14.071,13.082-14.071h1.639c.024-.1.038-.147.038-.147s13.69-2.995,19.618,5.005A20.332,20.332,0,0,1,400.36,477.475Z" transform="translate(-314.734 -413.608)"/><path class="c" d="M389.543,511.2l1.53,13.592-1.909,4.966,15.369,6.691-.354-8.141,5.47-21.776S398.075,507.139,389.543,511.2Z" transform="translate(-309.348 -409.669)"/><rect class="e" width="14.961" height="4.987" transform="translate(62.318 98.418) rotate(180)"/><path class="h" d="M358.985,463.066" transform="translate(-311.823 -413.234)"/><path class="f" d="M372.661,616.263s-3.23,11.191,11.806,8.594c7.714-1.526,14.057,3.566,16.566,2.222,4.639-2.484-2.71-11.113-15.905-18.105S372.661,616.263,372.661,616.263Z" transform="translate(-310.725 -401.428)"/><path class="f" d="M348.475,616.379s3.335,11.161-11.724,8.7c-7.727-1.453-14.023,3.7-16.545,2.378-4.661-2.441,2.605-11.138,15.735-18.253S348.475,616.379,348.475,616.379Z" transform="translate(-315.119 -401.414)"/><path class="c" d="M386.385,492.181l2.12,8.271,18.174-1.936-1.854-9.033Z" transform="translate(-309.576 -411.068)"/><path class="c" d="M340.251,493.776l-2.12,8.271-18.174-1.936,1.854-9.033Z" transform="translate(-315.023 -410.937)"/><path class="c" d="M370.44,457.88V441.942s-.346-12.985-11.455-14.516v22.219l9.726-7.11s.248,4.642.2,4.789-8.4,6.321-8.4,6.321.314,11.793.364,11.991S370.44,457.88,370.44,457.88Z" transform="translate(-311.823 -416.156)"/><path class="c" d="M348.4,457.88V441.942s.346-12.985,11.456-14.516v22.219l-9.727-7.11s-.248,4.642-.2,4.789,8.4,6.321,8.4,6.321-.314,11.793-.364,11.991S348.4,457.88,348.4,457.88Z" transform="translate(-312.691 -416.156)"/></g><g transform="translate(467.859 428.793)"><path class="i" d="M653.363,491.407a19.623,19.623,0,0,1-1.368,2.3c-2.334,3.454-9.617,5.174-12.985,7.614-2.171,1.576-4.16,3.738-6.164,5.525-2.323,2.08-4.99,4.263-6.7,6.87-1.133,1.713-1.354,5.218-3.211,6.424-5.148,3.32-8.34-2.938-4.3-6.808-11.882,8.419-24.172,16.293-35.564,25.331-5.393,4.276-16.212,15.9-23.326,17.285-6.019,1.175-8.1-2.243-11.837-6.243-11.353-12.161-31.461,8.05-39.44,16.412-6.781,7.11-16.773,9.928-26.468,11.822-5.255,1.019-20.083,6.239-23.306-.079,4.723-3.363,15.14-8.1,17.355-13.483,2.795-6.785-5.413-7.072-10.984-11.66-7.023-5.782-2.476-10.228,2.519-16.122.883-1.042,3.285-2.853,4.016-4.26a2.069,2.069,0,0,0,.162-.367c.556-1.781-.631-3.387-.326-4.695.667-2.868-.726-3.841,3.138-5.6,2.663-1.212,8.56,1.263,10.15-2.744,1.716-4.313-2.477-2.458-5.28-3.305C471.677,513.3,461.9,511.9,456.3,505.491c9.953-8.593,35.214,4.755,46.418,6.931,6.963,1.358,19.075,2.938,24.477-2.94,3.176-3.455.747-8.018,3.805-11.4,2.591-2.866,9.395-4,13.09-4.3,5.506-.462,7.077.83,9.971-3.725,1.321-2.077,1.331-5.6,3.369-7.169,3.74-2.882,10.341,1.319,13.749-2.956,3.2-4.012-2.07-9.655-1.029-13.954,7.83,3.3,15.685,9.107,24.179,11.1,10.97,2.579,27.925.192,37.553-4.166l10.712,9.254C648.172,487.544,656.383,485.2,653.363,491.407Z" transform="translate(-456.305 -423.143)"/><path class="j" d="M653.182,489.636a19.613,19.613,0,0,1-1.368,2.3c-2.334,3.454-9.617,5.174-12.985,7.614-2.172,1.576-4.16,3.738-6.164,5.525-2.323,2.08-4.99,4.263-6.7,6.87-1.133,1.713-1.354,5.218-3.211,6.424-5.148,3.319-8.34-2.938-4.3-6.808-11.882,8.419-24.172,16.293-35.564,25.331-5.393,4.276-16.212,15.9-23.326,17.285-6.019,1.175-8.1-2.243-11.837-6.243-11.353-12.161-31.461,8.05-39.44,16.412-6.781,7.11-16.773,9.928-26.468,11.822-5.255,1.019-20.083,6.239-23.306-.079,4.723-3.363,15.14-8.1,17.355-13.483,2.795-6.785-5.413-7.072-10.984-11.66-7.023-5.782-2.476-10.228,2.519-16.122.883-1.042,3.285-2.853,4.016-4.26,1.6-.5,3.2-.989,4.843-1.369,1.608-.373,6.9-2.029,8.5-.931,1.217.824.542,1.065.8,2.54.347,1.947-.2,3.7.936,5.523,1.052,1.681,3.225,2.476,4.306,4.178-2.925,2.417-6.281,3.069-3.141,7.416,3.259,4.519,6.648,1.37,10.086-1.014,5.4-3.756,11.3-6.5,16.995-9.686,4.069-2.284,10.542-9.88,15.818-9.03,2.746.436,1.606,1.117,1.9,3.794.371,3.42,1.463,10.188,4.966,11.352,3.587,1.19,9.695-1.025,12.854-2.57,5.069-2.465,9.335-6.46,13.927-9.689,6.636-4.659,13.8-8.929,19.86-14.336,2.948-2.634,5.252-6.562,9.113-7.931,1.442,2.268,1.734,5.466,2.209,8.155,9.854,1.9,14-13.141,20.021-17.329,2.873-1.994,6.742-.573,10.082-1.573,4.549-1.367,8.578-3.875,12.706-6.1,2.455-1.327,5.349-1.386,7.717-2.588s2.405-2.508,5.155-1.372A4.63,4.63,0,0,1,653.182,489.636Z" transform="translate(-456.124 -421.372)"/><g transform="translate(147.828)"><path class="k" d="M640.657,444.825s11.239-9.4,13.222-18.436c0,0,4.692,18.824-6.753,23.141C641.1,451.8,640.657,444.825,640.657,444.825Z" transform="translate(-589.017 -426.389)"/><path class="l" d="M799.574,552.643c.006-.006.006-.006,0-.014a44,44,0,0,0-.748-7.722c-.133-.734-.287-1.468-.469-2.194a33.079,33.079,0,0,0-4.067-9.491c-4.752-7.584-12.58-13.461-21.6-12.853a36.109,36.109,0,0,0-11.559,2.691,28.878,28.878,0,0,0-2.957,1.439,27.426,27.426,0,0,0-5.164,3.634,30.705,30.705,0,0,0-7.471,10.533,45.106,45.106,0,0,0-3.425,12.621,72.954,72.954,0,0,0-.594,12.643v.008c.273,5.772,1.453,11.538,4.284,16.312a21.991,21.991,0,0,0,3.613,4.619c-.265-.258-1.831.693-3.787,2.056-.881.2-1.755.4-2.628.615-4.529,1.091-8.918,2.537-12.594,5.479-.1.077-.2.168-.3.252a14.258,14.258,0,0,0-3.033,3.312,7.412,7.412,0,0,0-1.349,4.634c.657,5.962,5.857,9.156,9.695,10.134a6.958,6.958,0,0,0,3.452.2,22.457,22.457,0,0,0,3.111-1.58,12.854,12.854,0,0,1,4.2-1.146c4.109-.5,8.261.028,12.356.035,4.362.014,8.772-1.091,13.07-1.964,3.767-.776,11.944-2.4,13.817-6.269.937-1.929.42-4.2.315-6.346a16.139,16.139,0,0,1,2.174-8.883c1.614-2.747,4-4.948,5.808-7.576a27.6,27.6,0,0,0,3.675-8.275q.188-.67.357-1.342c.265-1.1.5-2.208.705-3.313A61.573,61.573,0,0,0,799.574,552.643Z" transform="translate(-582.044 -418.687)"/><path class="l" d="M689.393,528.935c-11.972,4.589-9.728,16.957-9.308,26.367q.722,16.22.132,32.458a9.5,9.5,0,0,1-.686,3.837c-.853,1.773-2.7,3-4.463,4.146l-9.413,6.095-4.042,2.617c-1.028.665-2.783,8.665,11.7,7.44,8.327-.7,16.808-.064,25.047-.885,3.211-.32,6.875-.992,8.417-3.482,1.624-2.624.037-7.818-.029-10.807-.12-5.523.5-11.139.749-16.661a23.486,23.486,0,0,1,1.1-7.271c.875-2.34,2.471-4.413,3.678-6.637C718.822,554.07,710.432,520.874,689.393,528.935Z" transform="translate(-587.354 -418.083)"/><g transform="translate(131.281 10.37)"><path class="m" d="M716.407,532.108a140.675,140.675,0,0,0,19.078-71.525,139.375,139.375,0,0,0,54.627-23.948s-7.825,22.447,4.548,35.739c0,0-19.567,7.788-18.694,26.628,0,0-17.073-.164-21.381,11.426C740.25,510.968,727.968,520.042,716.407,532.108Z" transform="translate(-714.087 -435.919)"/><path class="l" d="M794.841,471.7h-.029a126.553,126.553,0,0,1-15.048-.955c-2.5-.243-4.971-.73-7.45-1.1-2.462-.5-4.932-.933-7.366-1.545a147.815,147.815,0,0,1-14.445-4.125c-2.428-.827-4.859-1.72-7.246-2.677a140.863,140.863,0,0,0,47.459-24.022.728.728,0,0,0-.857-1.176,137.661,137.661,0,0,1-54.279,21.96c-.04,0-.079-.005-.12,0a2.426,2.426,0,0,0-.678.167c-.028.01-.054.022-.081.032a2.478,2.478,0,0,0-.263.129c-.031.016-.064.029-.094.047-.012.008-.025.011-.037.018-.03.019-.055.044-.084.065a2.467,2.467,0,0,0-.3.23l-.016.015a2.444,2.444,0,0,0-.794,1.767v.137a138.234,138.234,0,0,1-18.535,70.324,2.324,2.324,0,0,0,4.014,2.344,143.133,143.133,0,0,0,18.515-54.644c.96,2.958,2.037,5.871,3.267,8.715a106.1,106.1,0,0,0,6.2,12.2c1.1,1.993,2.408,3.862,3.632,5.773,1.257,1.891,2.65,3.691,3.964,5.533a.727.727,0,0,0,1.21-.8l-.028-.044c-1.183-1.9-2.438-3.753-3.554-5.688-1.082-1.955-2.245-3.86-3.2-5.879a103.766,103.766,0,0,1-5.281-12.241,98.53,98.53,0,0,1-3.6-12.764c-.28-1.341-.524-2.7-.747-4.07,1.077,1.346,2.175,2.671,3.315,3.977a116.07,116.07,0,0,0,21.331,18.954,118.232,118.232,0,0,0,12.175,7.345.728.728,0,0,0,.73-1.258l-.024-.014a116.277,116.277,0,0,1-11.514-7.933,113.014,113.014,0,0,1-19.6-19.652c-1.37-1.766-2.709-3.6-3.966-5.46,2.617.889,5.241,1.692,7.906,2.439a151.317,151.317,0,0,0,15,3.387c2.515.483,5.062.782,7.59,1.151,2.55.237,5.083.587,7.641.694a128.633,128.633,0,0,0,15.31.111.727.727,0,0,0-.016-1.454Z" transform="translate(-714.263 -435.973)"/></g><path class="n" d="M652.261,453.33a8.88,8.88,0,0,1,3.816-4.45c.027.23.048.461.066.69.316,3.841.559,7.672.968,11.472a16.894,16.894,0,0,0-5.363,2.136C651.252,459.855,650.979,456.406,652.261,453.33Z" transform="translate(-588.142 -424.545)"/><path class="n" d="M658.485,468.87q1.084,4.708,2.388,9.38a36.3,36.3,0,0,0-5.313,3.325q-1.256-5.25-2.292-10.551A33.028,33.028,0,0,1,658.485,468.87Z" transform="translate(-587.983 -422.906)"/><path class="o" d="M651.883,463.338c-.057-.358-.111-.72-.166-1.081a16.894,16.894,0,0,1,5.363-2.136,78.828,78.828,0,0,0,1.463,9.179c.022.1.048.191.069.288a33.025,33.025,0,0,0-5.216,2.154C652.851,468.948,652.336,466.148,651.883,463.338Z" transform="translate(-588.11 -423.623)"/><path class="p" d="M831.711,547.617c-1.248-2.855-4.587-3.549-6.111-5.739-.281-.4-.57-.8-.856-1.205-.437.5-.868,1.011-1.32,1.5h0a70.956,70.956,0,0,1-17.553,13.677c-2.083,1.162-4.214,2.236-6.388,3.2a88.567,88.567,0,0,1-10.167,3.775,106.73,106.73,0,0,1-16.88,3.621,134.517,134.517,0,0,1-13.794,1.114c-.164,0-.329.005-.492.01a130.672,130.672,0,0,1-16.209-.534,104.334,104.334,0,0,1-16.012-2.792,88.9,88.9,0,0,1-9.021-2.837c-1.264-.475-2.481-1.017-3.674-1.595a50.787,50.787,0,0,1-11.608-7.865,76.631,76.631,0,0,1-8.5-8.989c-1.938-2.384-3.777-4.858-5.536-7.377-.79-1.131-1.56-2.275-2.322-3.424q-3.76-5.677-7.07-11.638-3.6-6.466-6.68-13.208c-2.36-5.168-4.479-10.445-6.385-15.793q-2.465-6.917-4.433-13.983a36.3,36.3,0,0,0-5.313,3.325q1.79,7.479,4.021,14.841,2.6,8.526,5.832,16.839c.443,1.144.87,2.3,1.33,3.432q2,4.96,4.273,9.828a150.88,150.88,0,0,0,7.217,13.665,113.816,113.816,0,0,0,8.526,12.374c1.543,1.94,3.149,3.83,4.842,5.651,1.458,1.568,2.982,3.051,4.552,4.476a78.437,78.437,0,0,0,11.881,8.889,84.9,84.9,0,0,0,13.285,6.571,92.567,92.567,0,0,0,16.294,4.682,98.817,98.817,0,0,0,16.512,1.727,100.892,100.892,0,0,0,17.875-1.214,97.316,97.316,0,0,0,17.677-4.514c2.743-.986,5.438-2.081,8.061-3.316A92.716,92.716,0,0,0,826.48,553.46h0C827.641,552.188,830.625,548.949,831.711,547.617Z" transform="translate(-587.809 -422.195)"/><path class="q" d="M894.128,598.933c-.189,1.411-.7,8.106-3.544,6.6-1.188-.629-2.46-4.053-3.166-5.235q-1.5-2.495-2.985-4.983-3.092-5.169-6.185-10.337c-3.634-6.073-6.877-12.433-11.847-17.571-7.981-8.261-18.052-15.488-29.731-16.781-.517-.063-1.034-.1-1.558-.14a36.057,36.057,0,0,0-15.1,2.341c-.315.245-.636.489-.958.72-1.118.84-2.265,1.642-3.431,2.4-.392.266-.79.517-1.182.769-.245.154-.489.307-.734.454q-1.678,1.037-3.4,1.984c-.343.189-.693.378-1.042.553-.908.489-1.831.958-2.76,1.4-.677.329-1.362.644-2.055.951q-2.6,1.152-5.263,2.131c-.685.252-1.37.5-2.055.727-.517.182-1.041.349-1.558.51-.426.141-.86.273-1.293.406-.685.21-1.377.412-2.069.608s-1.391.378-2.083.559c-1.39.364-2.8.691-4.208.985a1.322,1.322,0,0,1-.154.036c-1.336.282-2.68.532-4.028.766-.153.026-.305.049-.458.075q-1.8.305-3.613.551c-.089.013-.177.029-.267.041-.17.023-.34.041-.51.063-.629.082-1.258.162-1.889.235q-1.381.159-2.766.29c-1.055.1-2.111.181-3.166.259-1.034.077-2.076.132-3.111.182l-1.041.041c-.44.022-.873.035-1.313.049-.727.022-1.454.036-2.188.05h-.224c-1.034.021-2.075.021-3.11.006-.343,0-.685-.006-1.028-.014q-1.216-.01-2.432-.063c-.51-.014-1.027-.035-1.544-.063-.273-.007-.545-.021-.824-.035l-.721-.042-1.544-.1c-1.028-.07-2.055-.161-3.083-.259q-2.024-.188-4.047-.469c-1.342-.174-2.691-.378-4.026-.615q-1.058-.186-2.112-.393c-.544-.1-1.087-.218-1.63-.332l-.456-.1c-2.156-.465-4.3-.994-6.417-1.61-.616-.182-1.23-.364-1.838-.559a.048.048,0,0,1-.035-.014q-1.688-.524-3.355-1.125c-.37-.132-.748-.273-1.118-.412-.315-.119-.63-.237-.937-.37-.364-.14-.727-.293-1.083-.448a45.863,45.863,0,0,1-6.192-3.277c-.769-.483-1.517-.992-2.258-1.517-.209-.146-.426-.3-.635-.454-.929-.677-1.838-1.39-2.726-2.124-1.014-.845-1.99-1.737-2.949-2.647-.127-.12-.252-.239-.377-.36-.426-.41-.849-.823-1.265-1.245-.2-.206-.4-.415-.6-.624-.354-.368-.709-.734-1.056-1.109q-.821-.883-1.619-1.793c-.37-.427-.734-.853-1.09-1.28-.335-.4-.664-.8-.993-1.2-.391-.481-.775-.964-1.16-1.453a4.4,4.4,0,0,1-.273-.35c-.95-1.216-1.873-2.453-2.768-3.7-.455-.622-.894-1.251-1.334-1.88-.245-.356-.5-.706-.741-1.055-11.281-15.956-24.329-30.088-29.949-48.8-.09.041-.174.091-.265.14-7.506,3.871-10.33,9.2-29.815,12.5-3.467.587-21.249,2.854-18.29.8,3-2.085,4.825-3.052,10.968-4.733,8.662-2.37,15.409-15.445,4.96-7.617a50.121,50.121,0,0,1-23.3,9.673c-2.076-.357-4.18.279-6.234-1.37a11.5,11.5,0,0,1-3.2-4.69,21.04,21.04,0,0,1-1.8-8.764,14.714,14.714,0,0,1,1.726-6.52,17.006,17.006,0,0,1,3.278-4.333,17.589,17.589,0,0,1,8.24-4.487.263.263,0,0,1,.069-.014c1.132-.259,2.293-.4,3.446-.545.384-.041.761-.091,1.146-.14a20.914,20.914,0,0,0,3.082-.608c4.7-1.356,8.345-5.073,11.295-8.981,3.131-4.145,5.9-9.554,9.959-12.783a25.093,25.093,0,0,1,9.261-4.4,30.309,30.309,0,0,1,8.289-.964c.762.021,1.53.077,2.293.174.174.022.349.042.53.07.406.056.8.119,1.21.2a24.868,24.868,0,0,1,8.617,3.355c.014.006.028.021.042.028.216.14.434.279.643.419a23.477,23.477,0,0,1,2.551,2.006,20.558,20.558,0,0,1,2.705,2.964c.014.014.021.028.042.049a20.186,20.186,0,0,1,2.613,4.752,19.681,19.681,0,0,1,.8,2.509c.042.154.077.307.111.462a20.244,20.244,0,0,1,.455,6.122c.539,1.768,1.077,3.5,1.727,5.088a51.4,51.4,0,0,0,12.916,18.221c10.867,10.064,25.209,17,39.655,20.058,1.077.232,2.153.454,3.229.685l2.37.5c.79.168,1.572.335,2.362.5q3.418.734,6.836,1.454c1.237.259,2.473.524,3.711.782s2.467.525,3.7.783l.1.021q6.06,1.289,12.119,2.572c1.411.3,2.816.594,4.227.895,1.426.3,2.859.608,4.285.909,3.837.81,10.505,2.11,17.85,3.27,1.6.252,3.236.5,4.879.727,4.857.685,9.8,1.258,14.265,1.545a67.461,67.461,0,0,1,10.811,1.671c2.153.5,4.291,1.083,6.416,1.712a92.659,92.659,0,0,1,16.11,6.451,94.434,94.434,0,0,1,14.893,9.526l.343.259A86.216,86.216,0,0,1,873.42,554.72c1.691,2.069,3.291,4.214,4.773,6.443,5.675,8.548,11.938,16.249,14.621,26.405.426,1.628.832,3.312,1.111,5.017A21.787,21.787,0,0,1,894.128,598.933Z" transform="translate(-592.772 -425.201)"/><path class="h" d="M631.282,462.119c.459,1.253,9.49,1.923,8.956-.764s-5.241-4.934-7.526-4.481S630.341,459.547,631.282,462.119Z" transform="translate(-589.832 -423.894)"/><path class="r" d="M630.872,460.862a1.891,1.891,0,1,0,1.4-2.516A2.05,2.05,0,0,0,630.872,460.862Z" transform="translate(-589.824 -423.771)"/><path class="l" d="M655.717,451.084c.472-2.031,2-3.591,4.193-4.777,2.959-1.6,6.481-1.9,9.863-1.987s6.835-.017,10.076-1.005a37.9,37.9,0,0,0,4.1-1.642c.668-.292,1.526-.558,2.061-.113.566.472.307,1.345-.017,2a29.334,29.334,0,0,1-9.882,11.2c-1.184.8-2.425,1.518-3.671,2.227a26.336,26.336,0,0,1-6.129,2.788c-4.426,1.177-9.09-.491-10.423-5.181A6.972,6.972,0,0,1,655.717,451.084Z" transform="translate(-587.795 -425.165)"/><path class="q" d="M695.861,534.168c-12.707,4.87-10.324,18-9.88,27.983q.768,17.214.141,34.446a10.08,10.08,0,0,1-.728,4.072c-.9,1.883-2.862,3.187-4.736,4.4-3.33,2.155-6.918,3.958-9.99,6.468-10.163,8.3,4.662,10.544,8.123,10.673a195.492,195.492,0,0,0,26.581-.939c3.408-.34,7.3-1.052,8.932-3.695,1.725-2.785.04-8.3-.03-11.469-.128-5.861.531-11.822.794-17.681a24.931,24.931,0,0,1,1.167-7.717c.929-2.483,2.623-4.683,3.9-7.043C727.093,560.844,718.189,525.612,695.861,534.168Z" transform="translate(-586.844 -417.66)"/><g transform="translate(112.504 31.484)"><path class="p" d="M700.035,558.942a215.416,215.416,0,0,0,62.676-94.456,213.444,213.444,0,0,0,90.984-8.025s-22.337,28.744-10.886,54.087c0,0-32.2,1.728-40.154,29.493,0,0-24.692-8.591-36.616,6.121C744.975,539.932,722.715,547.088,700.035,558.942Z" transform="translate(-696.653 -455.408)"/><path class="q" d="M843.412,509.626l-.039-.014a194.232,194.232,0,0,1-21.39-8.722c-3.51-1.573-6.862-3.484-10.282-5.23-3.329-1.93-6.706-3.759-9.945-5.834a226.547,226.547,0,0,1-18.971-13.033c-3.255-2.485-6.476-5.08-9.593-7.746a215.706,215.706,0,0,0,81.077-11.493,1.062,1.062,0,0,0-.637-2.026,210.975,210.975,0,0,1-89.605,5.436c-.047-.014-.088-.037-.135-.049a3.513,3.513,0,0,0-1.013-.088c-.042,0-.083,0-.125.006a3.625,3.625,0,0,0-.435.057c-.019,0-.038,0-.057.008s-.061.005-.091.012-.035,0-.053.007c-.1.024-.194.068-.292.1l-.015.005a3.536,3.536,0,0,0-.55.232,3.691,3.691,0,0,0-.368.216c-.064.045-.122.1-.183.146-.033.025-.061.056-.092.082-.05.042-.1.084-.146.13a3.46,3.46,0,0,0-.522.6,3.423,3.423,0,0,0-.339.6c-.032.075-.09.129-.117.207l-.06.169-.005.015a211.883,211.883,0,0,1-61.366,93.049,3.39,3.39,0,0,0,4.456,5.109,218.987,218.987,0,0,0,53.853-70.834c-.087,5,.046,10,.451,14.966a162.507,162.507,0,0,0,3,20.72c.617,3.429,1.595,6.78,2.429,10.153.894,3.359,2.03,6.65,3.031,9.969a1.06,1.06,0,0,0,2.046-.551l-.017-.074c-.79-3.339-1.712-6.638-2.391-9.991-.619-3.367-1.381-6.7-1.781-10.1a158.685,158.685,0,0,1-1.707-20.356,150.837,150.837,0,0,1,.985-20.3c.269-2.282.616-4.58,1-6.87.958,2.67,1.966,5.315,3.053,7.952a177.712,177.712,0,0,0,21.614,37.943,180.772,180.772,0,0,0,14.043,16.628,1.061,1.061,0,0,0,1.595-1.4l-.025-.031a178.034,178.034,0,0,1-12.856-17.132,173.132,173.132,0,0,1-18.9-38.1c-1.186-3.392-2.284-6.871-3.234-10.347,3.483,2.683,7.021,5.238,10.652,7.72a231.332,231.332,0,0,0,20.079,12.269c3.407,1.935,6.953,3.618,10.439,5.395,3.58,1.6,7.079,3.348,10.736,4.759a197.023,197.023,0,0,0,22.144,7.676,1.061,1.061,0,0,0,.655-2.017Z" transform="translate(-696.909 -455.487)"/></g><path class="l" d="M595.024,482.622s-5.593-14.782,1.506-16.593c4.148-1.057,6.489,2.729,15.271.7S600.979,484.738,595.024,482.622Z" transform="translate(-592.931 -423.154)"/><path class="s" d="M648.1,448.563s12.778-10.691,15.033-20.965c0,0,5.335,21.406-7.678,26.314C648.606,456.5,648.1,448.563,648.1,448.563Z" transform="translate(-588.407 -426.29)"/><path class="q" d="M805.953,557.762c-2.822-11.409-13.087-23.2-25.661-22.339-7.166.489-14.328,2.975-19.683,7.764-6.557,5.864-9.828,14.692-10.9,23.154-1.393,10.989-1.271,25.253,7.306,33.58-.266-.259-1.833.689-3.786,2.058q-1.318.3-2.63.614a39.072,39.072,0,0,0-8.972,3.147l-.014-.009s-9.271,3.6-10.835,11.951,23,6.19,23,6.19c4.1-.5,8.26.029,12.352.04,4.365.011,8.774-1.092,13.074-1.97,3.769-.771,11.94-2.4,13.815-6.268.935-1.93.421-4.2.314-6.345a16.089,16.089,0,0,1,2.177-8.882c1.611-2.747,4-4.952,5.8-7.578A27.651,27.651,0,0,0,805,584.6c.429-1.533.769-3.1,1.059-4.656C807.417,572.616,807.742,564.994,805.953,557.762Z" transform="translate(-581.634 -417.452)"/></g></g><g transform="translate(1023.763 397.066)"><path class="t" d="M1039.315,456.348s49.794,123.4,102.681,132.59,99.93-.557,99.93,5.567-34.517,9.186-42.866,12.8-3.619,6.638-12.8,7.772-22.547,2.806-33.959,8.651-21.155,8.908-36.464,8.908-29.506-3.34-33.682,0-21.711-3.062-23.66-9.186-33.958-126.373-33.958-128.043-2.781-30.062-2.781-30.062Z" transform="translate(-965.845 -392.205)"/><path class="u" d="M991.469,449.977a10.519,10.519,0,0,0-5.289-3.34c-3.34-.835-7.887-3.8-8.351-2.969s3.062,2.969,4.453,3.525.742,2.042-1.113,1.857-4.732-2.56-6.5-2.3-5.567.444-4.36,2.021,8.4,1.485,10.462,3.248,7.816,3.525,9.672,3.433a18.579,18.579,0,0,1,2.691,0Z" transform="translate(-970.082 -393.257)"/><path class="v" d="M1010.093,416.257s-5.48-5.8-.183-11.182c0,0,1.964-7.424,13-7.98s24.028,6.958,20.595,14.753c0,0,6.031,3.432,1.856,8.165,0,0,2.574,7.422,1.473,11.134,0,0,1.5,7.887-2.864,11.877,0,0,.185,4.639-6.68,6.216a6.659,6.659,0,0,1-4.483,5.451s-.005,3.556-5.788,4.574c0,0,1.084,2.595-2.256,6.491s-2.784,7.516-2.784,7.516-3.618-9.371-.278-15.031c0,0,.742-6.4,4.268-8.211,0,0-1.02-5.52,3.062-6.727,0,0,1.992-4.771,7.026-4.009,0,0-1.924-2.671-.439-4.713s-1.937-4.037-1.937-4.037S1021.772,414.45,1010.093,416.257Z" transform="translate(-967.005 -397.066)"/><path class="w" d="M1086.326,626c-3.341.37-6.867.928-9.464,4.64s-2.875.37-12.9,3.06-11.318,2.69-18.185,2.971-6.4-1.765-10.205-3.433-2.782.928-4.361,3.341-8.814.554-10.39-1.114-2.787-2.878-5.662-2.786-4.23-3.526-4.23-3.526,1.291-7.908,1.584-26.227c.056-3.418.077-7.193.049-11.35-.044-6.333-.269-13.522-.579-20.949-.635-14.945-1.621-30.846-2.2-42.663-.341-6.839-.542-12.311-.466-15.439a67.244,67.244,0,0,1,3.249-19.392c2.907-4.21,18.185-7.8,18.185-7.8s.639,1.319,2.288,4.826,9.279,10.453,10.083,22.949c.454,7.048,3.012,22.83,5.935,36.987,1.427,6.908,2.94,13.429,4.334,18.354a53.564,53.564,0,0,0,2.287,6.763c4.33,9.65,12.187,40.022,13.578,41.875.028.04.061.077.089.113,1.391,1.693,3.5.539,10.582.539C1087.163,617.737,1089.668,625.621,1086.326,626Z" transform="translate(-966.866 -389.829)"/><path class="w" d="M1086.29,623.517c-3.341.37-6.868.928-9.464,4.64s-2.875.37-12.9,3.06-11.318,2.69-18.185,2.971-6.4-1.765-10.205-3.433-2.782.928-4.361,3.341-8.814.554-10.39-1.114-2.787-2.878-5.662-2.786-4.23-3.526-4.23-3.526,1.291-7.908,1.584-26.226c.056-3.418.077-7.193.049-11.35-.044-6.333-.269-13.522-.579-20.949-.635-14.945-1.621-30.846-2.2-42.663.238-5.207.592-9.022,1.11-9.593,1.858-2.043.928,6.123,2.971,9.649s1.484-5.384,3.153-3.526-2.413,14.286,1.672,18.371,8.167,8.351,10.579,2.227,5.01-9.6,5.38-3.968,2.336,13.244,4.323,8.049,3.658-11.828,4.583-8.049c.459,1.857,2.959,5.608,5.5,8.974,1.427,6.908,2.94,13.429,4.334,18.354a53.564,53.564,0,0,0,2.287,6.763c4.33,9.65,12.187,40.022,13.578,41.875.028.04.061.077.089.113,1.391,1.693,3.5.539,10.582.539C1087.126,615.258,1089.631,623.142,1086.29,623.517Z" transform="translate(-966.829 -387.35)"/><path class="w" d="M1086.2,620.405c-3.341.37-6.868.928-9.464,4.64s-2.875.37-12.9,3.06-11.318,2.69-18.185,2.971-6.4-1.765-10.205-3.433-2.782.928-4.362,3.341-8.814.554-10.39-1.114-2.787-2.878-5.662-2.786-4.23-3.526-4.23-3.526,1.291-7.908,1.584-26.226c.056-3.418.077-7.193.049-11.35-.044-6.333-.269-13.522-.579-20.949,2.408-2.609,4.415-5.443,5.03-8.093,1.857-7.977,2.786-.185,4.085,5.195s.37,15.963,5.754,11.137,6.308-23.938,8.351-18.928,5.934,17.072,5.934,23.569,5.754,15.957,5.754,10.019-2.038-15.218,0-24.124c.752-3.276,3.337-2.964,6.5-.949a53.548,53.548,0,0,0,2.287,6.763c4.33,9.65,12.187,40.022,13.578,41.875.028.04.061.077.089.113,1.391,1.693,3.5.539,10.582.539C1087.039,612.146,1089.544,620.031,1086.2,620.405Z" transform="translate(-966.742 -384.238)"/><path class="x" d="M1010.807,621.391s1.291-7.908,1.584-26.226a44.872,44.872,0,0,0,3.575-8.845c2.038-7.422,2.782-8.906,4.825-1.668s6.308,13.272,7.607,8.306,6.123-7.652,7.052,0-1.114,24.722,1.484,24.352,1.483-5.379,2.782-11.318,3.156,2.224,6.312,8.351,10.2,11.688,10.764,6.308-4.64-27.649-2.6-26.721,7.426,14.844,9.839,15.588a32.056,32.056,0,0,0,5.19-.077c1.391,1.693,3.5.539,10.582.539,7.237,0,9.742,7.884,6.4,8.259s-6.868.928-9.464,4.64-2.875.37-12.9,3.06-11.318,2.69-18.185,2.971-6.4-1.765-10.205-3.433-2.782.928-4.362,3.341-8.814.554-10.39-1.114-2.787-2.878-5.662-2.786S1010.807,621.391,1010.807,621.391Z" transform="translate(-966.742 -382.072)"/><path class="u" d="M1012.163,456.951s-1.578-11.506,3.247-12.433,6.216.834,7.887-.928,1.763-7.887,1.763-7.887l10.764-5.938s-1.021,13.175,2.134,15.587,7.609,3.8,8.536,10.393-10.113,9.185-10.113,9.185l-18.371-1.113Z" transform="translate(-966.651 -394.385)"/><path class="w" d="M1015.282,444.676s-3.474,6.608-3.653,9.526-7.044,11.547-6.766,14.423c0,0-7.051-7.609-9.371-10.763s-5.567-7.98-5.567-7.98.927,5.011-1.021,5.475c0,0,6.4,11.412,8.722,16.794s5.567,10.3,8.629,8.536,7.548-9.835,7.548-9.835l3.03-13.175-2.456-9.215Z" transform="translate(-968.538 -393.162)"/><path class="u" d="M1044.712,510.833s-3.2,4.877-3.353,8.145-.115,9.649,1.12,7.525.677-6.763,1.513-6.391.408,8.688.185,11.876,1.369,2.042,1.983.835A42.554,42.554,0,0,0,1049,526.7c.742-2.32,2.135-8.908,0-13.362S1044.712,510.833,1044.712,510.833Z" transform="translate(-964.242 -387.772)"/><path class="u" d="M1012.678,412.86s-.835,8.629.464,9.557.278,6.4,1.763,8.444,6.773,8.907,11.6,7.236,10.671-5.567,11.135-11.041c0,0,3.433.185,4.176-2.6s1.948-7.98-2.506-6.217c0,0-3.711-10.3-11.829-9.742s-9.789,3.433-9.789,3.433S1015.647,410.262,1012.678,412.86Z" transform="translate(-966.61 -396.13)"/><path class="v" d="M1013.826,413.226s3.8-.464,5.1.742c0,0,1.484-4.175,3.247-2.876s1.949,3.711,5.521,2.876a7.136,7.136,0,0,1-2-2.5c-.556-1.391,2.042-2.877,3.155-1.391s4.454,5.1,6.587,5.845,2.32,5.66,2.5,6.68.852.464.982-.464-.054-3.989,1.337-5.288-2.969-6.245-3.618-7.391-8.444-4.3-8.444-4.3l-12.154.463s-6.588,7.424-6.31,11.6,2.679,7.87,4.262,7.09a16.173,16.173,0,0,0-.272-4.864C1013.176,417.494,1012.906,413.3,1013.826,413.226Z" transform="translate(-966.83 -396.403)"/><g transform="translate(47.563 23.585)"><path class="y" d="M1025.932,424.488s-1.245-1.982-.921-3.016a4.973,4.973,0,0,1,4.778-2.551c2.087.418,2.227.6,2,1.438s-.65,2.206-3.373,2.928A8.83,8.83,0,0,0,1025.932,424.488Z" transform="translate(-1013.145 -418.863)"/><path class="y" d="M1019.782,425s-.847-3.1-3.48-2.711-2.5,1.691-1.9,2.711,1.763.742,3.294.511S1019.225,424.814,1019.782,425Z" transform="translate(-1014.04 -418.585)"/></g><g transform="translate(45.265 22.39)"><g transform="translate(4.004 1.878)"><circle class="z" cx="1.438" cy="1.438" r="1.438" transform="translate(0 3.086)"/><circle class="z" cx="1.648" cy="1.648" r="1.648" transform="translate(11.663)"/></g><path class="z" d="M1025.307,420.983a11.188,11.188,0,0,1,1.322-1.612,4.913,4.913,0,0,1,2.156-1.288v.65l1.624-.975-.232,1.195,1.66-.777-.268.777h1.113l-.511,1.218S1030.317,418.2,1025.307,420.983Z" transform="translate(-1010.818 -417.759)"/><path class="z" d="M1018.9,423.18s-.525-1.39-2.983-1.39h-2.97l.186.232.047.789-1.267-.208.539.718v.51l.913.418a2.446,2.446,0,0,0,1.393-.789C1015.5,422.717,1018.672,422.676,1018.9,423.18Z" transform="translate(-1011.916 -417.428)"/></g><path class="aa" d="M1022,431.574a4.32,4.32,0,0,1,2.783-.882,3.314,3.314,0,0,0,2.552-.927s-2.366,3.711-4.872,3.525-2.69-1.252-2.69-1.252A4.147,4.147,0,0,1,1022,431.574Z" transform="translate(-966.007 -394.385)"/><g transform="translate(46.346 21.362)"><path class="ab" d="M1020.076,429.307a3.79,3.79,0,0,0,1.3.789c.789.278,1.856-.789,2.366-.974" transform="translate(-1012.328 -415.799)"/><path class="ac" d="M1022.4,418.48a9,9,0,0,0,3.736-.828,10.506,10.506,0,0,1,5.935-.742" transform="translate(-1012.137 -416.809)"/><path class="ac" d="M1017.786,419.428s-3.107-.882-4.871-.325" transform="translate(-1012.915 -416.636)"/></g><path class="w" d="M1013.395,444.676s-.119,5.949,1.086,6.691,10.486,1.763,13.733,1.02,16.7-8.721,18.928,1.671,2.134,14.2,3.34,19.671,2.6,8.536,2.5,14.474.093,34.294-.464,35.194-.649.621-2.041-1.606-1.484-3.8-2.877-4.175.742-6.68-.185-10.763-3.526-11.691-2.784-20.042c0,0-5.946-18.254-6.309-21.99s-18.929-7.516-18.929-7.516l-7.483-2.134S1012.308,446.429,1013.395,444.676Z" transform="translate(-966.651 -393.162)"/><path class="x" d="M1012.769,450.86s1.206,3.155,6.959,2.413,7.33,2.134,11.041,3.618,10.113,2.784,7.98,7.423-9.464,12.155-8.258,18.464,2.042,6.866,2.042,6.866a14.311,14.311,0,0,0-11.691,2.876c-5.66,4.455-6.5,6.031-8.073,6.124s-1.578-1.763-1.67-4.082,2.69-12.526,0-20.784S1002.1,461.345,1012.769,450.86Z" transform="translate(-967.072 -392.655)"/><path class="v" d="M1046.118,431.761c-3.656-1.069-10.074-1.683-11-.415-1.484,2.041-.025,5.195-.025,5.195-5.034-.762-7.026,4.009-7.026,4.009-4.082,1.206-3.062,6.727-3.062,6.727-3.526,1.809-4.268,8.211-4.268,8.211-3.34,5.66.278,15.031.278,15.031s-.556-3.618,2.784-7.516,2.256-6.491,2.256-6.491c5.782-1.017,5.788-4.574,5.788-4.574a6.659,6.659,0,0,0,4.483-5.451c6.865-1.578,6.68-6.216,6.68-6.216C1045.518,437.975,1046.087,434.392,1046.118,431.761Z" transform="translate(-966.044 -394.313)"/></g><path class="ad" d="M1106.393,669.192c10.612,4.339,78.9,7.72,78.168-14.057-.25-7.469-14.957-9.377-21.647-9.964-19.974-1.755-40.942-1.943-61.042-1.946-21.651,0-46.294,3.7-67.051-2.442-15.531-4.6-28.35-9.734-44.881-10.565C948.3,628.125,909.7,637,868.666,638.452c-26.562.943-53.846,2.424-80.262-.5-12.61-1.4-25.064-2.689-37.776-2.716-13.352-.028-27.021,3.365-40.291,2.014-23.42-2.386-44.9-14.457-68.805-17.51-26.292-3.356-54.492-8-79.167,3.106-32,14.4-63.116,13.38-98.088,13.385-35.233.005-70.213,2.988-105.506,3-10.929,0-29.926-2.99-38.125,6.7-8.42,9.948,2.706,17.1,11.573,20.607,23.41,9.271,54.8,5.684,79.562,5.651q32.546-.042,65.092,0c2.345,0,16.979-1.752,19.164.279,3.363,3.126.325,7.7,2.437,10.8,7.094,10.436,35.329,8.693,45.976,8.93,32.336.721,60.964,7.513,92.414,13.8,34.515,6.9,69-8.13,103.333-10.639,28.146-2.058,57.5-2.391,85.2,3.8,35.605,7.954,72.335,6.981,108.69,6.981,31.722,0,67.765,3.318,99.014-2.7,17.585-3.385,7.788-6.8,4.266-17.37,7.5-8.652,40.482-11.8,50.806-12.683,7.929-.678,17.988,1.874,25.214-2.2" transform="translate(0.185 17.94)"/></g></svg>