<svg xmlns="http://www.w3.org/2000/svg" xmlns:xlink="http://www.w3.org/1999/xlink" width="439" height="340.897" viewBox="0 0 439 340.897"><defs><style>.a,.f,.j{fill:none;}.b{fill:#b2b2b2;}.c{fill:#5e4e3f;}.d{fill:#88715a;}.e{fill:#12667c;}.f,.j{stroke:#670617;stroke-miterlimit:10;}.f{stroke-linecap:round;stroke-width:0.537px;}.g{fill:#3be5fe;}.h{fill:#fff;opacity:0.3;}.i{opacity:0.2;}.j{stroke-width:0.567px;}.k{fill:#670617;}.l,.r{fill:#020202;}.m{fill:#d86466;}.n{fill:#d9d6da;}.o{fill:#d5c8b4;}.p{fill:#fbad18;}.q{clip-path:url(#a);}.r{opacity:0.15;}.s{clip-path:url(#b);}.t{fill:#f7ac00;}.u{clip-path:url(#c);}</style><clipPath id="a"><path class="a" d="M944.2,435.4l61.89,69.627s3.191.435,4.2-3.321c0,0,3.56.4,4.928-4.356,0,0,3.679-.17,4.289-2.044l-62.761-70.646A19.485,19.485,0,0,0,944.2,435.4Z" transform="translate(-944.2 -424.657)"/></clipPath><clipPath id="b"><path class="a" d="M952.222,444.91l13.041-9.692-15.518-18.127c-.31.123-.613.257-.915.4-1.119-1.36-3.272-3.991-3.616-4.509a2.491,2.491,0,0,0-2.969-.488c-.987.57-6.756,6.059-7.95,7.172a1.838,1.838,0,0,0-.183,2.451s2.945,3.07,4.389,4.586c-.524.769-.8,1.251-.8,1.251Z" transform="translate(-933.713 -412.207)"/></clipPath><clipPath id="c"><path class="a" d="M980.329,475.475s3.191.435,4.2-3.32c0,0,3.563.394,4.926-4.358,0,0,3.207-.146,4.128-1.692l4.678,13.854a5.55,5.55,0,0,0-3.1,2.655Z" transform="translate(-980.329 -466.105)"/></clipPath></defs><g transform="translate(-933.713 -379.57)"><g transform="translate(1041.733 534.769)"><g transform="translate(0 0.341)"><rect class="b" width="145.282" height="14.371" transform="translate(20.208 13.022)"/><circle class="b" cx="20.208" cy="20.208" r="20.208"/><circle class="b" cx="20.208" cy="20.208" r="20.208" transform="translate(145.282)"/></g><g transform="translate(145.282 0.341)"><rect class="b" width="145.282" height="14.371" transform="translate(20.208 13.022)"/><circle class="b" cx="20.208" cy="20.208" r="20.208"/><circle class="b" cx="20.208" cy="20.208" r="20.208" transform="translate(145.283)"/></g><g transform="translate(290.565)"><rect class="b" width="14.371" height="145.282" transform="translate(13.022 20.208)"/><circle class="b" cx="20.208" cy="20.208" r="20.208"/><circle class="b" cx="20.208" cy="20.208" r="20.208" transform="translate(0 145.282)"/></g><rect class="b" width="14.371" height="145.282" transform="translate(13.022 20.208)"/><circle class="b" cx="20.208" cy="20.208" r="20.208"/><circle class="b" cx="20.208" cy="20.208" r="20.208" transform="translate(0 145.282)"/><g transform="translate(0 145.282)"><rect class="b" width="145.282" height="14.371" transform="translate(20.208 13.022)"/><circle class="b" cx="20.208" cy="20.208" r="20.208"/><circle class="b" cx="20.208" cy="20.208" r="20.208" transform="translate(145.282)"/></g><g transform="translate(145.282 145.282)"><rect class="b" width="145.282" height="14.371" transform="translate(20.208 13.022)"/><circle class="b" cx="20.208" cy="20.208" r="20.208"/><circle class="b" cx="20.208" cy="20.208" r="20.208" transform="translate(145.283)"/></g></g><g transform="translate(933.713 397.128)"><path class="c" d="M984.968,421.856v0a11.929,11.929,0,0,1-1.348,3.883,50.722,50.722,0,0,0-2.686-15.4l0-.005c-2.355-6.523-6.782-12.784-15.09-13.454a24.639,24.639,0,0,1,3.6-2.313,21.637,21.637,0,0,1,2.253-1.029c3.758-1.446,8.428-1.8,11.129,3.342C986.712,404.286,986.3,415.684,984.968,421.856Z" transform="translate(-910.807 -387.836)"/><g transform="translate(42.216 52.934)"><path class="d" d="M978.467,455.021c-.245,2.679-8.908,8.561-8.908,8.561s-11.689-4.87-10.471-11.2c.752-3.909.3-14.78-.163-22.524-.283-4.8-.567-8.4-.567-8.4l19.239-.731c-.737,2.948-.882,7.986-.791,13.253C976.956,442.641,978.617,453.354,978.467,455.021Z" transform="translate(-958.358 -420.722)"/><path class="d" d="M976.805,433.975c-5.629.077-14.1-2.741-17.88-4.118-.283-4.8-.567-8.4-.567-8.4l19.239-.731C976.86,423.67,976.714,428.708,976.805,433.975Z" transform="translate(-958.358 -420.722)"/></g><path class="e" d="M969.082,473.476s3.9,5.6.732,7.3H955.2s-3.652-5.356,8.036-6.574l4.872-4.627Z" transform="translate(-918.777 -332.954)"/><path class="e" d="M970.262,456.5,968.8,483.53h-6.819c-1.218-1.441-2.486-7.16-3.506-12.971-1.227-6.967-2.1-14.058-2.1-14.058Z" transform="translate(-917.552 -342.279)"/><path class="e" d="M967.009,473.476s-3.9,5.6-.73,7.3h14.612s3.652-5.356-8.037-6.574l-4.87-4.627Z" transform="translate(-911.378 -332.954)"/><path class="e" d="M979.136,455.8s-1.209,8.253-2.431,15.2c-.158.893-.32,1.785-.488,2.659-.922,4.831-1.992,9.139-3.027,10.362h-6.819L964.91,457Z" transform="translate(-911.47 -342.776)"/><path class="d" d="M993.332,419.136c0,13.322-7.195,24.12-19.9,24.12s-20.735-10.8-20.735-24.12,8.023-24.119,20.735-24.119S993.332,405.816,993.332,419.136Z" transform="translate(-920.181 -386.115)"/><path class="a" d="M957.661,406.941" transform="translate(-916.638 -377.613)"/><path class="f" d="M968.833,419.641s2.506.92,4.992-1.674" transform="translate(-908.673 -369.752)"/><path class="g" d="M985.524,475.547a4.361,4.361,0,0,1-.492.243c-9.985,4.152-23.375,0-23.375,0L956.3,453.45l-2.191-9.49,7.448-14.269,25.054.1s3.089,15.376,3.3,28.411C990.039,466.313,989.056,473.512,985.524,475.547Z" transform="translate(-919.173 -361.393)"/><path class="g" d="M958.868,424.656s6.574,2.534,11.444,2.3,8.524-2.994,9.5-3.226,2.436,6.218,1.461,11.746-21.429,3.455-22.4.922S957.163,423.966,958.868,424.656Z" transform="translate(-916.507 -365.644)"/><path class="c" d="M985.094,400.9c-9.567-1.8-10.932,6.586-15.778,13.519-.908,1.3-6.09,26.784-6.09,26.784s-32.378-15.511-1.876-47.627C972.351,381.99,985.253,400.925,985.094,400.9Z" transform="translate(-923.339 -389.82)"/><path class="c" d="M960.567,406.273c-.908,1.3-1.734,2.624-2.482,3.924a17.445,17.445,0,0,1-4.969-1.018s.716-6.84,6.651-10.427C963.677,396.387,962.1,402.1,960.567,406.273Z" transform="translate(-919.88 -383.847)"/><path class="c" d="M980.075,396.879s-6.286,12.109-15.925,13.551-10.1,0-10.1,0S957.9,387.175,980.075,396.879Z" transform="translate(-919.213 -386.476)"/><path class="h" d="M973.881,396.245s-7.7,7.285-16.883,8.729C957,404.974,959.552,394.732,973.881,396.245Z" transform="translate(-917.111 -385.348)"/><path class="i" d="M962.706,466.1l2.008-.153a7.976,7.976,0,0,0-.807-7.5c-2.58-3.558-6.646-9.565-7.4-13s1.734,14.838,1.734,14.838Z" transform="translate(-917.564 -350.469)"/><g transform="translate(22.536 68.842)"><path class="d" d="M970.073,455.688c2.881-.214,5.307-2.609,8.75-.952,1.98,1.244-2.256.731-3.051,1.876-.43.622,5.7.925,5.852,1.651-.534,1.561-3.354.423-5.29.218,0,0,5.959,1.34,5.273,2.172s-4.817.01-5.915-.3c0,0,5.12,1.444,4.541,1.965s-3.613.007-5.442-.509c0,0,3.551,1.345,3.81,1.759s-2.989.526-6.432-1.13a77.352,77.352,0,0,0-10.026-3.513l.617-5.3S967.192,455.9,970.073,455.688Z" transform="translate(-935.98 -413.172)"/><g transform="translate(0 0.747)"><path class="g" d="M981.935,473.735c.007.026,0,.031-.007.065a2.956,2.956,0,0,1-.351,1.423c-2.119,3.549-4.8,4.231-8.743,3.3-12.53-2.958-27.209-22.719-25.881-32.291,1.108-8.013,2.708-10.067,5.654-12.04,1.062-.713,2.3-1.413,3.755-2.383.606-.4,1.247-.851,1.932-1.367l.442,1.411.716,2.283,6.929,22.15A42.544,42.544,0,0,0,978.9,468.723C981.255,470.172,981.432,471.419,981.935,473.735Z" transform="translate(-946.869 -430.445)"/></g><path class="i" d="M971.194,433.82a40.268,40.268,0,0,1-9.557-.353c-2.554-.473-4.94-1.362-6.158-2.987v0c1.268-.168,2.689-.245,4.423-.469.123.062.194.1.194.1s.754.427,1.913,1C964.376,432.258,968.429,433.985,971.194,433.82Z" transform="translate(-940.73 -430.009)"/></g><g transform="translate(59.528 68.306)"><path class="d" d="M980.66,457.485c-1.6,2.157-5.047,2.922-5.141,6.408.223,2.141,1.788-1.422,3.26-1.5.8-.043-1.883,4.908-1.266,5.37,1.742.32,2.025-2.429,2.768-4.043,0,0-1.612,5.307-.488,5.163s2.34-3.772,2.578-4.777c0,0-1.107,4.7-.332,4.491s1.756-2.83,2.151-4.507c0,0-.442,3.419-.173,3.82s1.946-2.093,2.04-5.577a59.453,59.453,0,0,1,1.516-9.526l-5.333-2.033S982.258,455.329,980.66,457.485Z" transform="translate(-963.434 -414.67)"/><path class="g" d="M994.443,469.264c.043,2.751-3.1,5.456-6.662,5.624a3.945,3.945,0,0,1-1.507-.171.713.713,0,0,1-.072-.024,5.085,5.085,0,0,1-3.5-4.077c-.468-3.745-1.67-12.1-3.527-16.319l-9.815-21.225-.582-1.257-.317-.685a5.2,5.2,0,0,1,.647-.339,11.931,11.931,0,0,1,4.464-.987c2.873-.1,6.842.651,11.576,3.846C993.138,439.036,994.3,460.509,994.443,469.264Z" transform="translate(-968.464 -429.626)"/><path class="i" d="M975.152,429.7c-.671,1.713-2.647,2.718-4.212,3.268a13.619,13.619,0,0,1-2.107.564,3.681,3.681,0,0,0,1.525-1.821,6.138,6.138,0,0,0,.331-1.024A11.93,11.93,0,0,1,975.152,429.7Z" transform="translate(-968.201 -429.696)"/></g><g transform="translate(60.249 30.032)"><path class="j" d="M975.381,411.48c0-2.28-1.454-4.128-3.248-4.128s-3.248,1.848-3.248,4.128" transform="translate(-968.885 -407.352)"/><ellipse class="k" cx="1.876" cy="1.924" rx="1.876" ry="1.924" transform="translate(2.416 0.45)"/></g><g transform="translate(67.091 38.674)"><path class="k" d="M974.22,412.95c.243.541,1.3,1.494.555,1.951a4.721,4.721,0,0,1-1.634.3c-.457.074-.264.769.192.7.733-.116,1.891-.081,2.349-.791.565-.882-.505-1.783-.838-2.523-.188-.423-.812-.056-.623.365Z" transform="translate(-972.88 -412.397)"/></g><g transform="translate(39.556 30.402)"><path class="d" d="M962.412,407.882a6.807,6.807,0,0,0-2.893-.212,3.824,3.824,0,0,0-2.5,2.585,5.436,5.436,0,0,0,2.215,5.935,2.588,2.588,0,0,0,3.246,0,1.909,1.909,0,0,0,0-2.9,2.1,2.1,0,0,1-1.093-1.6c.014-.468.331-.509-.439-.221-.343.127-.884.1-.514.214a5.057,5.057,0,0,0,.754.147,2.409,2.409,0,0,0,2.823-1.432,2.046,2.046,0,0,0-1.6-2.518Z" transform="translate(-956.805 -407.568)"/></g><g transform="translate(0 38.347)"><path class="l" d="M993.768,477.921s.257,1.71-1.062,1.288a24.007,24.007,0,0,1-4.032-2.3l3.38-3.166Z" transform="translate(-894.528 -368.334)"/><path class="m" d="M939.277,427.521c-.182-.212-5.165-5.406-5.165-5.406a1.841,1.841,0,0,1,.183-2.453c1.194-1.113,6.963-6.6,7.95-7.172a2.491,2.491,0,0,1,2.969.488c.468.7,4.293,5.327,4.293,5.327Z" transform="translate(-933.713 -412.207)"/><path class="n" d="M950.561,442.877l-14.519-16.96s4.433-7.835,12.042-10.859L963.6,433.185Z" transform="translate(-932.052 -410.174)"/><path class="o" d="M980.33,475.845l14.834,7.14a5.552,5.552,0,0,1,3.1-2.652l-4.976-14.75S983.556,468.952,980.33,475.845Z" transform="translate(-900.476 -374.151)"/><path class="p" d="M944.2,435.4l61.89,69.627s3.191.435,4.2-3.321c0,0,3.56.4,4.928-4.356,0,0,3.679-.17,4.289-2.044l-62.761-70.646A19.485,19.485,0,0,0,944.2,435.4Z" transform="translate(-926.236 -403.33)"/><g transform="translate(17.964 21.327)"><g class="q"><path class="r" d="M1007.18,511l7.352-9.332-67.539-76.227-8.117,14.81Z" transform="translate(-947.997 -424.095)"/></g></g><path class="n" d="M948.988,431.723" transform="translate(-922.822 -398.292)"/><g class="s"><path class="r" d="M955.846,437.5l-13.264-15.578s-.625-.017-.635-.293-4.094-4.618-4.234-4.783a3.8,3.8,0,0,1-.514-1.662c.038-.488-5.082,4.349-5.082,4.349s8.854,18.642,9,18.814,9.731,2.557,11.7,3.834A20.2,20.2,0,0,1,955.846,437.5Z" transform="translate(-934.851 -410.109)"/></g><path class="t" d="M988.2,466.479l-.3-.9.468.547A1.562,1.562,0,0,1,988.2,466.479Z" transform="translate(-895.085 -374.152)"/><g transform="translate(79.852 92.326)"><g class="u"><path class="r" d="M986.532,469.635l18.19,15.424-6.115,2.28S978.13,471.913,977.551,471.5,986.532,469.635,986.532,469.635Z" transform="translate(-982.328 -463.588)"/></g></g></g><path class="d" d="M970.073,455.688c2.881-.214,5.307-2.609,8.75-.952,1.98,1.244-2.256.731-3.051,1.876-.43.622,5.7.925,5.852,1.651-.534,1.561-3.354.423-5.29.218,0,0,5.959,1.34,5.273,2.172s-4.817.01-5.915-.3c0,0,5.12,1.444,4.541,1.965s-3.613.007-5.442-.509c0,0,3.551,1.345,3.81,1.759s-2.989.526-6.432-1.13a77.352,77.352,0,0,0-10.026-3.513l.617-5.3S967.192,455.9,970.073,455.688Z" transform="translate(-913.444 -344.33)"/><g transform="translate(22.536 84.624)"><path class="g" d="M978.9,462.465a41.294,41.294,0,0,1-10.673-9.891,25.916,25.916,0,0,1-3.767-1.473,26.569,26.569,0,0,1-17.394-11.879c-.038.252-.075.492-.111.755-1.327,9.572,13.351,29.333,25.881,32.291,3.943.93,6.624.247,8.743-3.3a2.96,2.96,0,0,0,.351-1.423c.007-.034.014-.039.007-.065C981.432,465.162,981.255,463.914,978.9,462.465Z" transform="translate(-946.869 -439.222)"/></g></g><g transform="translate(1047.533 379.57)"><path d="M1306.652,551.636H1015.877a15.735,15.735,0,0,1-15.718-15.716V395.287a15.735,15.735,0,0,1,15.718-15.716h290.775a15.735,15.735,0,0,1,15.717,15.716V535.92A15.735,15.735,0,0,1,1306.652,551.636ZM1015.877,393.724a1.564,1.564,0,0,0-1.564,1.562V535.92a1.564,1.564,0,0,0,1.564,1.562h290.775a1.565,1.565,0,0,0,1.564-1.562V395.287a1.565,1.565,0,0,0-1.564-1.562Z" transform="translate(-1000.159 -379.57)"/></g></g></svg>