<svg xmlns="http://www.w3.org/2000/svg" xmlns:xlink="http://www.w3.org/1999/xlink" width="186" height="157.15" viewBox="0 0 186 157.15"><defs><style>.a{fill:#ecb370;}.b{fill:#4ee6fe;}.c{fill:#283172;}.d{fill:#ff45b8;}.e{fill:#fff;}.f{fill:#1ecbdc;}.g{fill:#f27480;}.h{clip-path:url(#a);}.i{fill:#efe6d9;mix-blend-mode:multiply;isolation:isolate;}.j{fill:#ffc84f;}.k{fill:#ffe7b2;}.l{fill:#947dce;}.m{fill:#a088db;}</style><clipPath id="a"><path class="a" d="M1032.492,498.812l-13.069-28.867h30.722l-13.07,28.867C1036.35,500.415,1033.218,500.415,1032.492,498.812Z" transform="translate(-1019.423 -469.945)"/></clipPath></defs><g transform="translate(-1012.209 -318.006)"><g transform="translate(1025.282 318.006)"><path class="b" d="M1042.059,391.507,1052.68,370.9h-10.621s8.5-10.409,16.145-12.746l-8.072-6.8s9.559-8.285,21.88-5.311L1067.338,335s13.595.638,15.082,4.674c0,0,.849-12.958,5.523-15.72l4.248,4.461,8.922-10.409s10.2,7.86,9.772,23.367c0,0,4.674-10.409,8.072-13.382,0,0,11.046,12.321,8.71,20.818a72.408,72.408,0,0,1,15.295-4.036,10.563,10.563,0,0,1-4.036,7.435s12.958,2.336,16.569,11.9l-11.683,1.7s21.668,31.652,24.641,57.993c0,0,15.507,5.31,16.145-10.409,0,0-14.021-4.886-15.72-6.374s-.849-8.5,5.311-5.948,7.222,5.068,7.222,5.068-4.673-16.751,1.7-18.026,4.673,11.471,4.673,11.471,4.673-11.684,9.346-8.285-4.249,11.9-4.249,11.9,11.259-1.062,10.621,7.01-11.046.637-11.046.637,4.249,12.533-7.01,19.118-15.72,3.611-15.72,3.611-.425,12.746-3.4,12.958a4.541,4.541,0,0,1-4.249-2.549s-.637,8.5-3.611,9.559-4.886-2.124-4.886-2.124,1.275,5.311-1.487,5.948-4.036-2.974-4.036-2.974.213,20.605-4.036,20.605-11.046-4.249-14.658-10.621c0,0-1.274,5.311-4.036,5.523s-5.735-4.461-5.735-4.461-1.912,5.523-3.4,5.735-5.31-4.886-5.31-4.886-3.84,3.824-7.974,4.036-5.622-5.523-5.622-5.523-.213,6.8-4.461,6.8-7.01-7.01-7.01-7.01-2.124,3.611-5.1,3.611-6.374-6.585-6.374-6.585-3.186,15.295-12.958,13.383-14.657-19.331-14.657-19.331-3.4.85-4.673-3.186c0,0-4.527,5.855-9.135-2.974C1031.644,447.044,1025.065,407.438,1042.059,391.507Z" transform="translate(-1030.604 -318.006)"/><g transform="translate(27.41 93.028)"><path class="c" d="M1150.314,466.626c-2.264,2.614-4.639,5.192-7.161,7.612a65.782,65.782,0,0,1-9.39,7.613,46.293,46.293,0,0,1-6.582,3.664,40.789,40.789,0,0,1-19.248,3.637,51.044,51.044,0,0,1-12.068-2.136,57.332,57.332,0,0,1-8.6-3.323,48.574,48.574,0,0,1-10.19-6.5c-4.851-4.087-7.907-8.708-7.907-13.007a10.21,10.21,0,0,1,5.053-9.067,17.4,17.4,0,0,1,11.479-1.951c.286.046.58.1.866.156a19.666,19.666,0,0,1,5.863,2.154c1.786,1.013,3.581,1.979,5.376,2.836,7.622,3.7,15.226,5.7,21.495,2.688,4.989-2.394,10.6-6.287,15.557-9a24.819,24.819,0,0,1,7.383-3,10.113,10.113,0,0,1,4.087.294C1152.285,450.83,1158.747,456.915,1150.314,466.626Z" transform="translate(-1069.171 -448.903)"/><path class="d" d="M1136.583,495.318a40.79,40.79,0,0,1-19.249,3.637,51.047,51.047,0,0,1-12.068-2.136,8.342,8.342,0,0,1-3.01-9.868c2.338-6.379,10.089-.746,14.121,1.905s6.591,1.492,11.368-2.863,10.3-4.465,11.581.847C1140.053,489.868,1138.258,493.1,1136.583,495.318Z" transform="translate(-1078.572 -458.705)"/><path class="e" d="M1104.8,460.114c-.4,1.758-1.795,4.078-6.121,5.238-5.946,1.592-5.551-6.674-5.118-10.228a19.666,19.666,0,0,1,5.863,2.154C1101.211,458.291,1103.006,459.257,1104.8,460.114Z" transform="translate(-1076.164 -450.702)"/><path class="e" d="M1167.776,457.55c-4.593-1.225-5.872-3.756-6.177-5.551a24.82,24.82,0,0,1,7.383-3,10.112,10.112,0,0,1,4.087.294C1173.3,453.232,1172.8,458.894,1167.776,457.55Z" transform="translate(-1095.911 -448.903)"/><path class="e" d="M1169.122,483.559a65.794,65.794,0,0,1-9.39,7.613c-1-3.765-2.062-10.54,3.571-10.024C1166.3,481.415,1168.073,482.427,1169.122,483.559Z" transform="translate(-1095.14 -458.223)"/><path class="e" d="M1090.487,493.756a48.571,48.571,0,0,1-10.19-6.5c.837-1.537,2.669-3.185,6.628-3.544C1092.577,483.2,1091.5,490,1090.487,493.756Z" transform="translate(-1072.39 -458.965)"/><path class="e" d="M1087.76,454.811c.046,1.639-.571,5.146-6.251,6.665-3.6.967-4.878-1.685-5.229-4.713A17.4,17.4,0,0,1,1087.76,454.811Z" transform="translate(-1071.228 -450.546)"/></g><g transform="translate(33.785 57.78)"><circle class="e" cx="15.082" cy="15.082" r="15.082"/><circle class="c" cx="6.337" cy="6.337" r="6.337" transform="translate(14.764 8.426)"/><circle class="e" cx="1.947" cy="1.947" r="1.947" transform="translate(19.933 10.197)"/></g><g transform="translate(72.508 57.78)"><circle class="e" cx="15.082" cy="15.082" r="15.082"/><circle class="c" cx="6.337" cy="6.337" r="6.337" transform="translate(2.726 8.426)"/><circle class="e" cx="1.947" cy="1.947" r="1.947" transform="translate(6.337 10.197)"/></g><g transform="translate(21.671 135.636)"><path class="f" d="M1061.1,511.967c.014,3.267.609,6.5,2.957,8.946a7.957,7.957,0,0,0,9.114,1.908c1.6-.679,1.954-3.043,1.156-4.408-.97-1.659-2.8-1.838-4.408-1.156.721-.306.153.024-.083-.107-.112-.062-.34-.135-.477-.206a2.753,2.753,0,0,1-1.065-1.042,6.878,6.878,0,0,1-.75-3.935c-.018-4.145-6.462-4.153-6.443,0Z" transform="translate(-1061.096 -508.856)"/></g><g transform="translate(101.596 136.471)"><path class="f" d="M1180.276,512.3c-.478,1.67-.716,3.421-1.333,5.049-.082.211-.078.215.011.011q-.133.3-.291.581a5.866,5.866,0,0,1-.334.531q.284-.382-.087.03.411-.288-.063.011.471-.181-.089-.009c.461-.058-.4-.075-.506-.1-4.042-.888-5.768,5.322-1.714,6.213,3.367.74,6.453-.257,8.275-3.289,1.34-2.229,1.642-4.861,2.344-7.317,1.141-3.994-5.074-5.7-6.213-1.713Z" transform="translate(-1173.557 -510.031)"/></g><g transform="translate(90.745 143.138)"><path class="f" d="M1161.4,521.253a2.541,2.541,0,0,1,0,.33c.035-.24.029-.261-.019-.062l.083-.195c-.106.171-.083.151.072-.059-.141.137-.323.2-.011.045a2.536,2.536,0,0,0-.405.229q-.182.086.124-.048-.131.052-.264.1c-.134.048-.27.091-.406.134-.311.1-.623.193-.931.3a1.889,1.889,0,0,0-1.286,2.265,1.857,1.857,0,0,0,2.265,1.286,13.035,13.035,0,0,0,2.708-1.05,3.7,3.7,0,0,0,1.76-3.274,1.841,1.841,0,0,0-3.682,0Z" transform="translate(-1158.288 -519.412)"/></g><g transform="translate(46.584 142.181)"><path class="f" d="M1096.162,519.447a3.4,3.4,0,0,0,.694,2.581,3.092,3.092,0,0,0,2.527.782,1.381,1.381,0,0,0,0-2.762c-.161.011-.322.018-.484.013-.07,0-.139-.007-.21-.014.207.031.237.032.091,0-.114-.011-.325-.154.028.029-.195-.1.222.257,0-.005.139.19.171.224.1.1q.126.326.052.117a2.093,2.093,0,0,0-.058-.248c.1.4.012-.014.011-.128,0-.157.006-.314.015-.471a1.39,1.39,0,0,0-1.381-1.381,1.412,1.412,0,0,0-1.381,1.381Z" transform="translate(-1096.151 -518.065)"/></g><g transform="translate(56.791 144.872)"><path class="f" d="M1110.514,523.233a3.536,3.536,0,0,0,1.4,2.817,1.423,1.423,0,0,0,1.953,0,1.392,1.392,0,0,0,0-1.953,3.877,3.877,0,0,1-.305-.264q-.1-.094-.185-.2.1.126.016.009a1.65,1.65,0,0,1-.1-.175c.039.1.043.111.013.018a1.327,1.327,0,0,1-.05-.2c.026.136.035.117.026-.056a1.393,1.393,0,0,0-1.381-1.381,1.408,1.408,0,0,0-1.381,1.381Z" transform="translate(-1110.512 -521.851)"/></g><g transform="translate(125.622 126.085)"><path class="f" d="M1209.484,496.75a1.276,1.276,0,0,1-.35.967,7.062,7.062,0,0,1-1.09.957,1.426,1.426,0,0,0-.5,1.89,1.39,1.39,0,0,0,1.889.5c1.463-1.114,2.836-2.308,2.808-4.308a1.381,1.381,0,0,0-2.761,0Z" transform="translate(-1207.363 -495.417)"/></g><g transform="translate(131.86 117.163)"><path class="f" d="M1219.1,484.2a6.664,6.664,0,0,1-.076,1.224c-.011.053-.173.568-.093.355-.08.215-.108.188-.118.2a7.135,7.135,0,0,1-2,1.136,1.392,1.392,0,0,0-.5,1.889,1.411,1.411,0,0,0,1.889.5,7.077,7.077,0,0,0,2.8-1.855,5.535,5.535,0,0,0,.862-3.444,1.382,1.382,0,0,0-2.762,0Z" transform="translate(-1216.141 -482.862)"/></g><g transform="translate(70.399 2.467)"><path class="f" d="M1129.711,322.178c1.293,2.667,2.583,5.307,3.824,8,.247.538,1.041.07.794-.464-1.24-2.694-2.531-5.334-3.823-8-.259-.533-1.052-.067-.8.465Z" transform="translate(-1129.661 -321.478)"/></g><g transform="translate(55.159 7.655)"><path class="f" d="M1110.267,328.994a11.213,11.213,0,0,0-2.045,6.11c.021.591.941.593.92,0a10.356,10.356,0,0,1,1.92-5.645c.313-.5-.483-.967-.795-.465Z" transform="translate(-1108.217 -328.777)"/></g><g transform="translate(41.147 18.631)"><path class="f" d="M1088.834,345.114a15.308,15.308,0,0,1,5.767,2.148.461.461,0,0,0,.465-.795,15.988,15.988,0,0,0-5.987-2.242c-.579-.08-.83.807-.245.888Z" transform="translate(-1088.501 -344.221)"/></g><g transform="translate(23.527 29.878)"><path class="f" d="M1064.385,363.878a20.1,20.1,0,0,1,9.469-2.911.46.46,0,0,0,0-.92,20.525,20.525,0,0,0-9.933,3.037c-.5.321-.034,1.119.465.795Z" transform="translate(-1063.708 -360.047)"/></g><g transform="translate(89.347 13.692)"><path class="f" d="M1156.355,337.825a15.748,15.748,0,0,0,1.7,2.861,21.109,21.109,0,0,1,1.459,3.41c.234.542,1.028.074.8-.465a25.9,25.9,0,0,0-1.246-3.082,21.223,21.223,0,0,1-1.824-2.968c-.214-.545-1.1-.308-.888.245Z" transform="translate(-1156.322 -337.272)"/></g><g transform="translate(101.717 28.243)"><path class="f" d="M1182.936,357.824a18.409,18.409,0,0,0-8.9,1.5c-.542.221-.3,1.112.245.888a17.853,17.853,0,0,1,8.658-1.47c.588.059.585-.862,0-.92Z" transform="translate(-1173.728 -357.746)"/></g><g transform="translate(115.663 39.485)"><path class="f" d="M1193.549,374.445c1.65,1.2,4.231,2.4,4.887,4.469.178.563,1.068.323.888-.245-.748-2.364-3.431-3.654-5.309-5.02-.481-.348-.94.45-.465.8Z" transform="translate(-1193.349 -373.564)"/></g></g><g transform="translate(1012.209 402.614)"><path class="g" d="M1035.2,477.995" transform="translate(-1018.859 -448.899)"/><g transform="translate(5.127 23.375)"><path class="a" d="M1032.492,498.812l-13.069-28.867h30.722l-13.07,28.867C1036.35,500.415,1033.218,500.415,1032.492,498.812Z" transform="translate(-1019.423 -469.945)"/><g class="h"><path class="i" d="M1046.551,452.943a4.583,4.583,0,0,0,1.6-3.358c0-3.011-3.372-5.452-7.532-5.452-.107,0-.213,0-.319.006.942-1.724.131-3.89-3.48-6.228a18.992,18.992,0,0,0-7.589-2.723c.525,1.032.722,2.4-4.024,3.284-3.959.741-6.386,3.317-4.644,5.665-.073,0-.146,0-.221,0-4.16,0-7.531,2.441-7.531,5.452a4.328,4.328,0,0,0,.98,2.684l-8.775,2.792s-.405,16.3-.468,16.68,24.642,32.789,24.642,32.789l4.191-15.072s-2.979.683-3.349-1.927c-.207-1.459-1.188-10.406-2.014-18.014a5.784,5.784,0,0,1,2.236-4.911q.116-.1.226-.209a8.179,8.179,0,0,0,5.682,2.075c3.019,0,5.595-1.372,6.607-3.3,4.118-.08,7.424-2.519,7.424-5.52C1050.193,455.66,1048.735,453.914,1046.551,452.943Z" transform="translate(-1015.12 -459.89)"/></g></g><g transform="translate(10.87)"><path class="j" d="M1055.574,453.506a13.373,13.373,0,1,0-26.028,0,8.572,8.572,0,0,0,13.014,10.3,30.019,30.019,0,0,1,9.471-.4,5.585,5.585,0,0,0,3.543-9.9Z" transform="translate(-1027.504 -437.055)"/><g transform="translate(7.506 1.235)"><path class="k" d="M1053.477,448.39h0l-.006.046c-.026.244-.055.492-.1.744-.011.071-.026.14-.038.21-.154,1.384-.139,3.523,1.743,4.283,2.447.989,5.77-.676,5.608-3.721-.286-5.226-4.734-10.944-10.582-11.16A11.7,11.7,0,0,1,1053.477,448.39Z" transform="translate(-1041.55 -438.793)"/><path class="k" d="M1057.351,462.27c-1.384-.894-3.185.283-6.123.955a24.88,24.88,0,0,1-9.059.043,3.674,3.674,0,0,0-3.4,5.76c1.841,2.406,5.1,1.982,7.927,0,2.549,2.831,6.6,1.363,6.919-.814C1058.48,469.674,1060.695,464.428,1057.351,462.27Z" transform="translate(-1038.066 -445.492)"/></g></g><g transform="translate(0 3.62)"><path class="l" d="M1036.7,456.5a11.669,11.669,0,1,0-22.71,0,7.479,7.479,0,0,0,11.355,8.985,26.121,26.121,0,0,1,8.263-.345,4.873,4.873,0,0,0,3.092-8.641Z" transform="translate(-1012.209 -442.149)"/><g transform="translate(6.55 1.078)"><path class="m" d="M1034.871,452.039h0l-.006.04c-.022.213-.048.429-.083.65-.01.062-.022.122-.033.183-.134,1.207-.122,3.074,1.52,3.737,2.136.864,5.035-.589,4.893-3.246-.25-4.56-4.131-9.549-9.233-9.737A10.2,10.2,0,0,1,1034.871,452.039Z" transform="translate(-1024.464 -443.666)"/><path class="m" d="M1038.25,464.149c-1.207-.78-2.779.247-5.341.834a21.724,21.724,0,0,1-7.905.038,3.205,3.205,0,0,0-2.964,5.026c1.605,2.1,4.446,1.729,6.916,0,2.223,2.47,5.759,1.189,6.037-.71C1039.236,470.61,1041.169,466.033,1038.25,464.149Z" transform="translate(-1021.425 -449.511)"/></g></g></g><path class="b" d="M1019.662,489.9a13.8,13.8,0,0,1,8.015-12.453c8.445-4.151,11.38,2.362,9.447,3.578,0,0,3.722,1.288,3.221,4.438s-5.44,3.292-5.44,3.292,4.867,3.221-.644,4.366-11.881-3.507-11.881-3.507S1020.377,489.109,1019.662,489.9Z" transform="translate(-2.155 -45.73)"/></g></svg>