<svg xmlns="http://www.w3.org/2000/svg" width="503.965" height="449.148" viewBox="0 0 503.965 449.148">
    <defs>
        <style>
            .a,.c{fill:#d8a35d;}.a{fill-rule:evenodd;}.b{fill:#d29647;}.d{fill:#d19442;}.e{fill:#947dce;}.f{fill:#ffc84f;}.g{opacity:0.15;}.h{fill:#62548a;}.i{opacity:0.3;}.j{opacity:0.5;}.k{fill:none;stroke:#947dce;stroke-miterlimit:10;stroke-width:0.68px;}.l{opacity:0.2;}.m{fill:#fac235;}.n{fill:#f7fafb;}.o{fill:#64e3e3;}.p{opacity:0.1;}
        </style>
    </defs>
    <g transform="translate(-838.458 -329.983)">
        <g transform="translate(1066.97 329.983)">
            <g transform="translate(0 246.695)">
                <path class="a"
                      d="M1039.373,524.54c-.624.786-9.7,8.185-12.027,13.135s-5.314,12.531-7.022,14.9c-2.011,2.79-1.06,4.022,1.605.935a53.768,53.768,0,0,0,5.263-7.321c.207-.5-1.45,2.67-3.515,6.024-2.195,3.567-4.8,7.356-4.178,7.8,1.2.853,8.211-9.169,9.132-11.049a52.422,52.422,0,0,1-2.493,4.932c-1.255,2.178-3.046,4.548-2.753,5.247.463,1.1,4.9-3.945,7.334-8.563.188-.028-.135,1.632-3.394,6.922-.327.533-.606,2.087.946.52,3.266-3.3,4.915-4.477,7.173-10.154,2.2-5.536,3.287-12.133,6.1-15.672Z"
                      transform="translate(-1018.522 -524.54)"/>
                <path class="a"
                      d="M1030.187,532.238s-6.123,2.687-8.636,7.282c-1.495,2.732-2.2,2.4-2.594,2.816-1.314,1.376,2.3.891,3.97-1.284,1.357-1.768,5.173-1.648,6.333-2.587s3.788-4.051,3.642-5.118S1030.187,532.238,1030.187,532.238Z"
                      transform="translate(-1018.675 -522.477)"/>
            </g>
            <path class="b"
                  d="M1151.192,583.857S1140.478,694.4,1145.034,696.3c8.172,3.467,40.179,14.806,4.892,12.315-18.127,1.092-16.8-2.957-17.08-6.389-.232-2.8.3-101.735-.444-109.43-.167-1.723-.268-2.764-.268-2.764Z"
                  transform="translate(-988.269 -261.949)"/>
            <path class="c"
                  d="M1088.24,577.954s57.862,94.308,54.807,98.186c-5.451,7.007-27.891,32.491,1.721,13.139,16.367-7.868,13.234-10.759,11.811-13.894-1.163-2.561-9.724-22.152-12.818-29.236-.694-1.586-39.67-78.842-39.67-78.842Z"
                  transform="translate(-1000.032 -266.384)"/>
            <path class="d"
                  d="M1124.783,359.472s-.945,10.533,5.553,16.358-14.974,0-14.974,0,4-10.088,3.1-16.358S1124.783,359.472,1124.783,359.472Z"
                  transform="translate(-992.764 -322.827)"/>
            <ellipse class="c" cx="11.359" cy="15.498" rx="11.359" ry="15.498" transform="translate(117.232 9.733)"/>
            <path class="e"
                  d="M1219.048,458.325c-.2,2.933-2.57,13.841-5.91,25.694-.3,1.065-.6,2.142-.912,3.207-.285,1.011-.593,2.033-.9,3.043a1.144,1.144,0,0,1-.054.186c-.153.528-.318,1.055-.483,1.581-.275.89-.549,1.78-.834,2.659-1.373,4.285-2.824,8.426-4.3,12.073-2.844,7.074-5.755,12.335-8.3,13.368a.151.151,0,0,1-.066.022,44.959,44.959,0,0,1-8.2,1.724c-3.141.462-6.952.912-11.182,1.319-3.548.34-7.392.659-11.39.933q-3.2.215-6.492.385h-.011q-3.279.181-6.613.307c-4.12.153-8.238.242-12.226.252h-.011c-4.349.033-8.535-.044-12.379-.231a93.584,93.584,0,0,1-12.753-1.317,22.516,22.516,0,0,1-5.328-1.561c-.307-.229-.636-.472-.955-.757-.473-.384-.945-.8-1.429-1.241-.12-.12-.252-.252-.384-.374,0,0-.01.011-.01-.01-.023-.023-.033-.044-.066-.077,0,0,0-.011-.011,0-.78-.791-1.571-1.647-2.351-2.57-.153-.188-.308-.374-.462-.56-.956-1.164-1.878-2.427-2.768-3.746-.264-.4-.538-.8-.8-1.208a.432.432,0,0,1-.056-.1c-.274-.429-.538-.857-.8-1.286-.813-1.362-1.583-2.768-2.285-4.184-.472-.945-.9-1.889-1.3-2.834-.2-.473-.4-.945-.572-1.418,0,0-.033-.088-.088-.241a.575.575,0,0,0-.044-.132c-.022-.056-.033-.11-.055-.165-.033-.1-.077-.209-.12-.33-.2-.549-.473-1.352-.824-2.318-.066-.209-.153-.429-.231-.659-1.109-3.142-2.735-7.733-4.252-11.974-.132-.373-.252-.735-.384-1.1-.33-.912-.636-1.8-.933-2.636-.12-.341-.242-.671-.351-.989-.188-.527-.374-1.032-.539-1.505-.087-.264-.175-.5-.264-.747-.495-1.383-.89-2.494-1.131-3.174a.319.319,0,0,0-.044-.11,4.982,4.982,0,0,0-.175-.495.066.066,0,0,0-.011-.044c-.011-.043-.033-.076-.044-.131a635.291,635.291,0,0,1-22,61.679,290.589,290.589,0,0,1-15.279,31.658,83.267,83.267,0,0,1-9.557,13.753c-.615.681-2-.165-3.548-1.593a62.156,62.156,0,0,1-6.108-6.942c-.351-.45-.549-.725-.549-.725s-.934-4.844-1.691-13.347a265.375,265.375,0,0,1,.747-52.3,259.731,259.731,0,0,1,23.474-83.089c17.191-35.963,47.882-52.374,67.478-56.736,8.48-1.889,14.885-1.515,17.224.494.242.209.495.407.747.593.231.176.462.33.692.483a.173.173,0,0,0,.077.044c.252.165.5.318.769.462.209.11.429.219.638.318.043.023.1.044.142.066h.011c.2.087.406.176.6.252s.407.153.615.219a11.2,11.2,0,0,0,1.3.353c.285.066.571.11.846.153a.232.232,0,0,0,.088.011c.143.022.285.043.417.055.33.044.659.066.989.077a17.1,17.1,0,0,0,4.448-.407c.583-.12,1.142-.274,1.66-.429a23.2,23.2,0,0,0,2.559-.945c.176-.077.351-.153.506-.231.636-.3,1.032-.516,1.12-.571.011-.011.011-.011.023-.011a46.4,46.4,0,0,1,11.995.715C1211.72,377.61,1219.444,451.933,1219.048,458.325Z"
                  transform="translate(-1016.367 -320.335)"/>
            <path class="f"
                  d="M1094.4,487.144a7,7,0,0,0,3.974,1.833c9.337.184,49.669.875,71.549-.383,7.718-.445,13.14-1.13,14.092-2.171,0,0,0,.032-.006.089-.057,1.206-.75,15.013-1.721,33.11-1.917,35.725,1.775,86.894,6.09,102.424.931,3.353-49.18-1.726-49.18-1.726-.14-36.868,3.359-101.594,1.1-104.493-2.749-3.53-7.206,53.4-12.316,101.042-19.844,5.177-51.268,2.034-50.9,0C1081.392,592.712,1094.4,487.144,1094.4,487.144Z"
                  transform="translate(-1003.024 -288.059)"/>
            <path class="g"
                  d="M1074.356,455.2c.018.06.043.112.061.172.06.155.12.32.172.492.016.034.025.068.043.112,1.561,4.392,9.214,25.962,9.214,25.971,2.873,7.514,8.292,15.538,13.287,19.6-3.391-12.277-13.96-47.868-13.555-62.207C1081.561,453.165,1074.356,455.193,1074.356,455.2Z"
                  transform="translate(-1003.753 -300.676)"/>
            <path class="g"
                  d="M1178.674,469.412c-.984,3.538-2.062,7.153-3.193,10.673-1.372,4.288-2.821,8.421-4.287,12.071-25.359-30.362-11.527-71.648-11.527-71.648s10.716,35.841,10.827,36.85C1170.53,457.721,1174.093,462.889,1178.674,469.412Z"
                  transform="translate(-981.9 -305.724)"/>
            <path class="g"
                  d="M1126.255,373.343c.034,1.027-.509,1.7-2.157,1.476-5.142-.7-10.949-.553-15.167,1.38a3.586,3.586,0,0,1-3.469-.146c-2.7-1.58-4.373-6.29-5.038-8.378a1.435,1.435,0,0,1-.07-.458c8.481-1.889,14.884-1.519,17.222.5a12.7,12.7,0,0,0,7.929,3.08A6.975,6.975,0,0,1,1126.255,373.343Z"
                  transform="translate(-996.786 -320.335)"/>
            <path class="h"
                  d="M1145.917,647.138c-.592-1.5-10.439,4.16-10.931,5.919S1117,669.909,1120.66,675.562s28.49-14.229,30.37-15.458S1147.082,650.08,1145.917,647.138Z"
                  transform="translate(-991.479 -245.057)"/>
            <path class="h"
                  d="M1132.208,669.717c-.211-1.6,13.382.429,14.668,1.726s21.074,6.68,20.626,13.4-31.814,1.437-34.054,1.278S1132.624,672.854,1132.208,669.717Z"
                  transform="translate(-988.267 -239.097)"/>
            <g class="i" transform="translate(128.162 198.365)">
                <path d="M1120.2,488.727c-.152-.011-.3-.024-.45-.037C1119.75,488.69,1119.91,488.7,1120.2,488.727Z"
                      transform="translate(-1119.75 -485.817)"/>
                <path class="j"
                      d="M1120.105,489.334c12.019.96,38.288-.739,38.288-.739,7.718-.445,13.14-1.13,14.092-2.171,0,0,0,.032-.006.089-.057,1.206-.75,15.013-1.721,33.11a8.948,8.948,0,0,1-1.263-.146,9.83,9.83,0,0,1-6.36-4.519,21.8,21.8,0,0,1-2.474-5.166C1151.7,492.741,1123.956,489.68,1120.105,489.334Z"
                      transform="translate(-1119.655 -486.424)"/>
            </g>
            <g transform="translate(114.606)">
                <g transform="translate(2.397 4.322)">
                    <path class="f"
                          d="M1117.595,345.405s19.667,10.9,13.829-6.6C1127.386,326.691,1104.183,337.6,1117.595,345.405Z"
                          transform="translate(-1110.275 -333.391)"/>
                    <path class="f"
                          d="M1121.121,341.058s-11,6.528-9.942,13.077c0,0-2.426-19.552,8.515-20.044s15.177.564,14.2,21.241C1133.9,355.332,1130.719,338.885,1121.121,341.058Z"
                          transform="translate(-1110.949 -333.226)"/>
                </g>
                <path class="f"
                      d="M1117.469,335.3s.553-6.093,6.592-5.23,8.627,4.315,9.491,7.765,1.726,6.041,2.588,6.041c0,0-2.588,2.588-3.451,1.726,0,0,2.24,6.2-.6,11.3,0,0-1.121-7.849-5.435-8.711S1117.469,335.3,1117.469,335.3Z"
                      transform="translate(-1106.805 -329.983)"/>
                <path class="f"
                      d="M1120.276,334.248s-4.314-2.588-8.629,3.451l-2.588,5.177s.862.862,2.588,0c0,0-.786,6.079.038,9.51l2.551-10.373Z"
                      transform="translate(-1109.059 -328.988)"/>
            </g>
            <g transform="translate(256.119 253.62)">
                <path class="a"
                      d="M1223.293,530c.453.734,7.442,7.972,8.921,12.434s3.255,11.233,4.47,13.432c1.432,2.585.493,3.54-1.465.633a46.067,46.067,0,0,1-3.743-6.782c-.124-.451.965,2.426,2.384,5.5,1.509,3.268,3.341,6.765,2.769,7.078-1.108.606-6.071-8.66-6.665-10.359a44.984,44.984,0,0,0,1.623,4.463c.849,1.987,2.135,4.191,1.813,4.758-.506.893-3.776-3.866-5.383-8.054-.157-.043-.051,1.406,2.19,6.252.224.487.3,1.841-.86.346-2.451-3.148-3.737-4.321-5.083-9.394-1.314-4.948-1.566-10.688-3.6-13.994Z"
                      transform="translate(-1220.664 -530.001)"/>
                <path class="a"
                      d="M1229.534,538.162s4.95,2.916,6.625,7.094c1,2.484,1.631,2.272,1.926,2.667.98,1.309-2.053.526-3.256-1.5-.976-1.647-4.246-1.935-5.139-2.854s-2.819-3.842-2.586-4.737S1229.534,538.162,1229.534,538.162Z"
                      transform="translate(-1218.943 -527.821)"/>
            </g>
            <g transform="translate(87.415 198.213)">
                <line class="k" x1="12.725" y2="133.062"/>
                <line class="k" x1="12.629" y2="130.745" transform="translate(12.725 2.661)"/>
                <line class="k" x1="10.502" y2="129.831" transform="translate(27.197 2.661)"/>
                <line class="k" x2="0.271" y2="26.893" transform="translate(49.589 2.661)"/>
                <line class="k" x1="2.437" y2="132.462" transform="translate(60.35 2.661)"/>
                <line class="k" x1="0.679" y2="133.573" transform="translate(73.464 2.578)"/>
                <line class="k" x2="2.569" y2="134.34" transform="translate(85.305 2.578)"/>
            </g>
            <path class="k" d="M1089.382,497.909s71.66,3.383,90.593,0" transform="translate(-999.726 -284.981)"/>
            <path class="k" d="M1137.307,510.31c-25.073,5.678-49.067-3.3-49.067-3.3"
                  transform="translate(-1000.032 -282.542)"/>
            <path class="k" d="M1126.723,508.275s22.627,6.358,42.5.988" transform="translate(-989.719 -282.204)"/>
            <path class="k" d="M1087.268,514.7s18.069,9.459,47.418,4.637" transform="translate(-1000.293 -280.481)"/>
            <path class="k" d="M1086.1,523.861s28.116,8.584,47.506,4.167" transform="translate(-1000.605 -278.027)"/>
            <path class="k" d="M1084.932,532.96s14.319,11.225,47.522,6.189" transform="translate(-1000.919 -275.588)"/>
            <path class="k" d="M1083.571,543.426a69.659,69.659,0,0,0,48.159,3.628"
                  transform="translate(-1001.284 -272.784)"/>
            <path class="k" d="M1082.305,553.014s15.464,10.977,48.465,4.6" transform="translate(-1001.623 -270.214)"/>
            <path class="k" d="M1080.981,562.843s21.345,11.158,49.159,2.143" transform="translate(-1001.978 -267.58)"/>
            <path class="k" d="M1079.922,570.514s12.592,12.112,49.436,3.133" transform="translate(-1002.261 -265.524)"/>
            <path class="k" d="M1078.673,579.221s20.363,10.727,49.932,2.793" transform="translate(-1002.596 -263.191)"/>
            <path class="k" d="M1127.534,517.853s9.454,7.806,41.474,2.011" transform="translate(-989.502 -279.637)"/>
            <path class="k" d="M1127.73,527.118s13.266,6.184,40.468,1.3" transform="translate(-989.45 -277.154)"/>
            <path class="k" d="M1127.22,537.4s20.482,6.17,41.115,0" transform="translate(-989.586 -274.398)"/>
            <path class="k" d="M1126.987,545.928s19.911,8.851,41.807,0" transform="translate(-989.649 -272.113)"/>
            <path class="k" d="M1126.723,555.29s18.956,6.652,42.692,0" transform="translate(-989.719 -269.604)"/>
            <path class="k" d="M1126.482,564.281s15.979,7.169,43.744,0" transform="translate(-989.784 -267.195)"/>
            <path class="k" d="M1126.482,572.237s18.972,9.776,44.71,1.039" transform="translate(-989.784 -265.063)"/>
            <path class="k" d="M1126.122,582.181a87.7,87.7,0,0,0,46.573.539" transform="translate(-989.881 -262.398)"/>
            <path class="e"
                  d="M1171.13,414.023S1115.5,370,1128.759,367.849s34.967,3.071,34.967,3.071c19.594,4.357,38.3,19.079,55.5,55.05,36.531,76.418,34.508,150.417,34.508,150.417s-8.459,11.347-10.2,9.266c-32.276-38.619-53.031-77.386-61.786-103.47S1171.13,414.023,1171.13,414.023Z"
                  transform="translate(-989.722 -319.975)"/>
        </g>
        <path class="l"
              d="M1064.965,506.725a290.589,290.589,0,0,1-15.279,31.658c-7.173-1.164-15.17-5.13-21.453-8.854a265.375,265.375,0,0,1,.747-52.3C1033.45,478.89,1056.727,488.336,1064.965,506.725Z"
              transform="translate(50.603 39.46)"/>
        <g transform="translate(838.458 347.445)">
            <g transform="translate(199.928 308.25)">
                <path class="m"
                      d="M1067.711,624.885c3.174,22.519,2.5,37.348,20.26,80.544.037.094.074.188.12.284l-.221-.218c-32.969-33.083-46.907-38.19-66.448-49.824-19.627-11.687-25.291-38.028-25.291-38.028l22.024-16.968.1-.066,24.163-13.751S1064.521,602.266,1067.711,624.885Z"
                      transform="translate(-996.132 -586.857)"/>
            </g>
            <g transform="translate(84.342 215.453)">
                <path class="e"
                      d="M968.759,587.655A37.1,37.1,0,0,0,956.6,600.888c-5.3,10.122-6.079,25.691,15.629,45.466,16.631,15.141,26.029,27.263,31.326,35.857a5.472,5.472,0,0,1-7.283,7.67c-22.893-12.426-67.33-39.382-82.593-68.621-10.148-19.434-9.876-45.5-6.9-67.188a247.293,247.293,0,0,1,9.1-40.4c13.741,24.206,28.333,45.459,43.058,62.917l.009.013c.361.429.723.857,1.085,1.274C962.928,581.286,965.851,584.546,968.759,587.655Z"
                      transform="translate(-904.975 -513.672)"/>
                <path class="l"
                      d="M968.378,587.655a37.1,37.1,0,0,0-12.159,13.233c-5.3,10.122-6.079,25.691,15.629,45.466,16.631,15.141,26.029,27.263,31.326,35.857a5.339,5.339,0,0,1-.507,6.43,19.845,19.845,0,0,1-5.914-6.9c-9.353-17.652-45.022-36.583-57.385-57.094a42.166,42.166,0,0,1-6.032-19.811,65.973,65.973,0,0,0-20.572-44.786l-6.368-5.982a247.293,247.293,0,0,1,9.1-40.4c13.741,24.206,28.333,45.459,43.058,62.917l.009.013c.361.429.723.857,1.085,1.274.14.165.278.331.42.486.46.544.921,1.088,1.391,1.614.6.691,1.193,1.381,1.8,2.057l.255.3q.892,1,1.778,1.968C966.322,585.44,967.353,586.56,968.378,587.655Z"
                      transform="translate(-904.594 -513.672)"/>
            </g>
            <g transform="translate(171.372 164.822)">
                <path class="e"
                      d="M1021.394,551.115a37.141,37.141,0,0,1,16.9-6.1c11.385-.973,26.043,4.326,35.888,31.993,7.534,21.192,15.079,34.546,20.958,42.753a5.472,5.472,0,0,0,9.889-3.751c-2.608-25.919-10.288-77.32-31.351-102.7-14-16.872-38.145-26.7-59.295-32.342a247.4,247.4,0,0,0-40.777-7.226c17.01,22.031,30.968,43.7,41.376,64.036l.009.013c.255.5.511,1,.754,1.494C1017.775,543.276,1019.652,547.232,1021.394,551.115Z"
                      transform="translate(-973.611 -473.742)"/>
            </g>
            <g transform="translate(0.003)">
                <path class="n"
                      d="M1083.034,639.26c3.634,8.928,5.71,14.135,5.71,14.135a92.738,92.738,0,0,1-29.343,25.417,96.18,96.18,0,0,1-21.754,8.566s-4.29-4.21-11.57-11.465C991.844,641.782,891.5,540.152,860.556,491.4a131.7,131.7,0,0,1-15.841-37.464c-1.089-4.135-2.006-8.3-2.779-12.469-.595-3.236-1.1-6.481-1.531-9.709-4.288-32.355-.529-63.33,2.138-79.116a10.679,10.679,0,0,1,12.938-8.6c15.783,3.692,46.354,12.369,74.84,29.255q3.939,2.334,7.806,4.875,5.314,3.5,10.413,7.419a131.214,131.214,0,0,1,27.926,28.724C1009.712,462.04,1065.2,595.45,1083.034,639.26Z"
                      transform="translate(-838.46 -343.754)"/>
                <path class="e"
                      d="M1043.382,576.806c3.634,8.928,5.71,14.135,5.71,14.135a92.738,92.738,0,0,1-29.343,25.417A96.177,96.177,0,0,1,998,624.925s-4.29-4.21-11.57-11.465c4.083-.354,17.1-2.241,32.5-12.477A88.285,88.285,0,0,0,1043.382,576.806Z"
                      transform="translate(-798.808 -281.3)"/>
                <g transform="translate(3.478 34.414)">
                    <path class="e"
                          d="M947.806,378.311c-12.388,13.978-28.9,30.46-46.681,42.286-17.465,11.616-39.092,20.2-57.148,26.062q-1.634-6.2-2.774-12.468c17.03-5.578,37.049-13.584,52.912-24.134,16.154-10.744,31.512-25.971,43.278-39.163Q942.712,374.391,947.806,378.311Z"
                          transform="translate(-841.203 -370.895)"/>
                </g>
                <path class="l"
                      d="M1059.4,678.36a96.1,96.1,0,0,1-21.754,8.566S898.082,550.065,860.556,490.944a131.705,131.705,0,0,1-15.84-37.464c-1.09-4.135-2.007-8.3-2.781-12.468-.595-3.237-1.1-6.482-1.531-9.71-4.288-32.354-.529-63.33,2.138-79.116a10.626,10.626,0,0,1,4.117-6.743C851.113,373.869,879.838,469.154,1059.4,678.36Z"
                      transform="translate(-838.46 -343.302)"/>
            </g>
            <path class="e"
                  d="M930.318,373.282a196.015,196.015,0,0,1-19.753,19.479,222.1,222.1,0,0,1-21.53,16.259c-20.147,13.4-36.56,19.786-48.634,22.726-4.288-32.354-.525-63.323,2.145-79.1a10.674,10.674,0,0,1,12.932-8.6c14.271,3.328,40.615,10.742,66.583,24.605l.005,0Q926.206,370.856,930.318,373.282Z"
                  transform="translate(-838.458 -343.752)"/>
            <g transform="translate(143.802 206.558)">
                <path class="e"
                      d="M1049.989,647.19a3.2,3.2,0,0,1-4.965,3.3C1000.684,619.2,965.375,542.8,952.137,511.1a3.189,3.189,0,0,1,5.216-3.469C981.463,532.1,1038.275,594.2,1049.989,647.19Z"
                      transform="translate(-951.868 -506.657)"/>
                <path class="l"
                      d="M953.31,507.094l95.327,143.332a3.156,3.156,0,0,1-3.614-.051c-44.339-31.289-79.648-107.7-92.886-139.388A3.113,3.113,0,0,1,953.31,507.094Z"
                      transform="translate(-951.868 -506.54)"/>
            </g>
            <g transform="translate(58.967 98.965)">
                <circle class="e" cx="37.09" cy="37.09" r="37.09" transform="translate(0 72.817) rotate(-78.999)"/>
                <path class="o"
                      d="M949.882,446.053c.071.107.145.217.211.326a29.361,29.361,0,0,1-8.071,40.125c-.1.075-.214.15-.319.219a29.349,29.349,0,1,1,8.18-40.671Z"
                      transform="translate(-881.97 -418.81)"/>
                <path class="p"
                      d="M944.561,440.031a29.337,29.337,0,0,0-43.529,38.513q.671,1.01,1.409,1.938a29.345,29.345,0,0,1,44.793-36.432,28.835,28.835,0,0,1,3.9,4.078c-.321-.592-.676-1.175-1.043-1.749-.066-.109-.14-.219-.211-.326A29.278,29.278,0,0,0,944.561,440.031Z"
                      transform="translate(-881.97 -418.81)"/>
            </g>
            <path class="m" d="M1011.648,598.986l0,.006-.047.031Z" transform="translate(-792.057 -275.356)"/>
        </g>
    </g>
</svg>
