<svg xmlns="http://www.w3.org/2000/svg" width="47.679" height="48.906" viewBox="0 0 47.679 48.906">
  <g id="Group_46651" data-name="Group 46651" transform="translate(-1211.6 -527.415)">
    <path id="Path_58159" data-name="Path 58159" d="M1171.929,617.731c.032-6.739-2.489-13.311-6.616-19.053a54.786,54.786,0,0,0-7.139-8.064,76.876,76.876,0,0,0-7.08-5.823l-5.019,6.872a86.921,86.921,0,0,0-12.174-22.131,99.8,99.8,0,0,1,27.906.6l-5.02,6.871a86.7,86.7,0,0,1,7.98,6.57,64.465,64.465,0,0,1,8.4,9.506c5.006,6.914,8.472,15.64,8.409,24.659Z" transform="translate(77.699 -41.41)" fill="#947dce"/>
  </g>
</svg>
