<svg xmlns="http://www.w3.org/2000/svg" xmlns:xlink="http://www.w3.org/1999/xlink" width="436.546" height="397.063" viewBox="0 0 436.546 397.063"><defs><style>.a{fill:#ecb370;}.b{fill:#62548a;}.c{fill:none;stroke:#947dce;stroke-miterlimit:10;stroke-width:1.546px;}.d{fill:#f27480;}.e{clip-path:url(#a);}.f{fill:#efe6d9;mix-blend-mode:multiply;isolation:isolate;}.g{fill:#ffc84f;}.h{fill:#ffe7b2;}.i{fill:#947dce;}.j{fill:#a088db;}.k{fill:#4ee6fe;}.l{fill:#283172;}.m{fill:#ff45b8;}.n{fill:#fff;}.o{fill:#1ecbdc;}</style><clipPath id="a"><path class="a" d="M902.715,626.563,887.781,593.58h35.1L907.95,626.563C907.122,628.394,903.543,628.394,902.715,626.563Z" transform="translate(-887.781 -593.58)"/></clipPath></defs><g transform="translate(-564.821 -281.141)"><g transform="translate(565.594 281.915)"><rect class="b" width="108.75" height="316.413" transform="translate(326.25)"/><rect class="b" width="108.75" height="316.413" transform="translate(0 79.103)"/><rect class="b" width="108.75" height="79.103" transform="translate(108.75 79.103)"/><rect class="b" width="108.75" height="79.103" transform="translate(216.859 237.31)"/><rect class="c" width="435" height="395.517"/><line class="c" x2="435" transform="translate(0 316.413)"/><line class="c" x2="435" transform="translate(0 237.31)"/><line class="c" x2="435" transform="translate(0 158.207)"/><line class="c" x2="435" transform="translate(0 79.103)"/><line class="c" y2="395.517" transform="translate(326.25)"/><line class="c" y2="395.517" transform="translate(217.5)"/><line class="c" y2="395.517" transform="translate(108.75)"/></g><g transform="translate(927.579 611.036)"><path class="d" d="M899,599.3" transform="translate(-880.334 -566.061)"/><g transform="translate(5.857 26.708)"><path class="a" d="M902.715,626.563,887.781,593.58h35.1L907.95,626.563C907.122,628.394,903.543,628.394,902.715,626.563Z" transform="translate(-887.781 -593.58)"/><g class="e"><path class="f" d="M925.194,589.146a5.235,5.235,0,0,0,1.828-3.836c0-3.441-3.853-6.23-8.606-6.23-.122,0-.243,0-.364.007,1.077-1.971.15-4.446-3.977-7.116a21.71,21.71,0,0,0-8.671-3.111c.6,1.18.825,2.739-4.6,3.753-4.523.846-7.3,3.79-5.306,6.472-.084,0-.168,0-.252,0-4.753,0-8.606,2.789-8.606,6.23a4.946,4.946,0,0,0,1.12,3.067l-10.025,3.19s-.462,18.629-.535,19.059,28.156,37.464,28.156,37.464l4.789-17.22s-3.4.781-3.827-2.2c-.236-1.667-1.356-11.89-2.3-20.583a6.605,6.605,0,0,1,2.554-5.61c.089-.079.175-.158.258-.24a9.339,9.339,0,0,0,6.492,2.371c3.45,0,6.392-1.568,7.549-3.772,4.706-.09,8.483-2.877,8.483-6.306C929.355,592.25,927.69,590.256,925.194,589.146Z" transform="translate(-889.28 -597.083)"/></g></g><g transform="translate(12.419)"><path class="g" d="M925.6,588.984a15.28,15.28,0,1,0-29.739,0,6.382,6.382,0,0,0,4.049,11.316,6.437,6.437,0,0,0,1.258-.125,21.787,21.787,0,0,1,14.092,2.462,6.368,6.368,0,0,0,5.034-2.462,6.385,6.385,0,0,0,7.64-6.258A6.368,6.368,0,0,0,925.6,588.984Z" transform="translate(-893.529 -570.187)"/><g transform="translate(8.577 1.412)"><path class="h" d="M913.456,582.389h0l-.008.054c-.029.279-.063.562-.108.85-.013.081-.029.161-.043.241-.176,1.581-.159,4.026,1.991,4.895,2.8,1.129,6.592-.773,6.407-4.252-.327-5.971-5.408-12.5-12.091-12.751A13.364,13.364,0,0,1,913.456,582.389Z" transform="translate(-899.828 -571.424)"/><path class="h" d="M923.075,588.26c-1.581-1.021-3.639.324-7,1.093a28.458,28.458,0,0,1-10.351.049c-3.72-.275-5.985,3.833-3.882,6.582s5.823,2.264,9.057,0c2.911,3.234,7.541,1.556,7.905-.931C924.366,596.72,926.9,590.727,923.075,588.26Z" transform="translate(-901.041 -569.091)"/></g></g><g transform="translate(0 4.137)"><path class="i" d="M910.634,590.212a13.332,13.332,0,1,0-25.947,0,8.545,8.545,0,0,0,12.974,10.265,5.565,5.565,0,0,0,8.344-.5,5.568,5.568,0,0,0,4.63-9.764Z" transform="translate(-882.651 -573.811)"/><g transform="translate(7.483 1.231)"><path class="j" d="M900.037,584.456h0l-.007.047c-.025.243-.055.49-.095.742-.011.071-.025.139-.038.209-.153,1.38-.139,3.513,1.737,4.271,2.44.985,5.753-.674,5.591-3.709-.285-5.21-4.719-10.91-10.549-11.126A11.66,11.66,0,0,1,900.037,584.456Z" transform="translate(-888.146 -574.889)"/><path class="j" d="M908.43,589.579c-1.38-.891-3.175.283-6.1.953a24.808,24.808,0,0,1-9.032.042,3.663,3.663,0,0,0-3.386,5.744c1.835,2.4,5.081,1.975,7.9,0,2.54,2.822,6.58,1.358,6.9-.812C909.557,596.961,911.764,591.731,908.43,589.579Z" transform="translate(-889.205 -572.853)"/></g></g></g><g transform="translate(581.648 290.873)"><path class="k" d="M594.523,317.871l4.062-7.88h-4.062s3.249-3.981,6.174-4.875l-3.087-2.6a10.124,10.124,0,0,1,8.368-2.031l-1.787-4.224s5.2.243,5.768,1.787c0,0,.325-4.955,2.112-6.011l1.625,1.706,3.412-3.981a11.219,11.219,0,0,1,3.737,8.937s1.788-3.981,3.088-5.118c0,0,4.224,4.712,3.33,7.961a27.712,27.712,0,0,1,5.85-1.544,4.041,4.041,0,0,1-1.544,2.844s4.955.893,6.337,4.55l-4.469.65s8.286,12.105,9.425,22.179c0,0,5.93,2.031,6.174-3.98,0,0-5.363-1.869-6.012-2.437a1.553,1.553,0,0,1,2.031-2.275c2.357.975,2.762,1.939,2.762,1.939s-1.787-6.406.651-6.894,1.787,4.386,1.787,4.386,1.788-4.467,3.575-3.168-1.625,4.55-1.625,4.55,4.305-.406,4.062,2.681-4.224.244-4.224.244,1.625,4.793-2.682,7.311-6.011,1.381-6.011,1.381-.163,4.874-1.3,4.956a1.737,1.737,0,0,1-1.625-.975s-.244,3.249-1.382,3.656-1.868-.813-1.868-.813.486,2.031-.57,2.275-1.543-1.138-1.543-1.138.082,7.881-1.544,7.881-4.224-1.625-5.606-4.062c0,0-.488,2.031-1.544,2.112s-2.193-1.706-2.193-1.706-.731,2.112-1.3,2.193-2.031-1.869-2.031-1.869a5.6,5.6,0,0,1-3.05,1.544c-1.581.082-2.15-2.112-2.15-2.112s-.081,2.6-1.706,2.6-2.681-2.681-2.681-2.681-.813,1.382-1.95,1.382-2.438-2.519-2.438-2.519-1.218,5.849-4.956,5.118-5.606-7.394-5.606-7.394a1.519,1.519,0,0,1-1.787-1.218s-1.732,2.239-3.494-1.137C590.539,339.111,588.023,323.964,594.523,317.871Z" transform="translate(-578.169 -289.761)"/><path class="k" d="M583.727,316.454s-3.411-3.249-1.625-4.55,3.575,3.169,3.575,3.169-.65-4.875,1.788-4.388.65,6.894.65,6.894.406-.962,2.762-1.937a1.553,1.553,0,0,1,2.032,2.274c-.651.569-6.012,2.438-6.012,2.438.216,5.335,4.907,4.337,5.962,4.044a13.819,13.819,0,0,0-.405,2.745c-.015.333-.009.663.008.992-.458.2-2.24.691-5.89-1.444-4.305-2.519-2.681-7.312-2.681-7.312s-3.981,2.844-4.225-.243S583.727,316.454,583.727,316.454Z" transform="translate(-579.655 -286.801)"/><g transform="translate(22.455 35.578)"><path class="l" d="M630.357,327.7c-.867,1-1.774,1.987-2.739,2.911a25.136,25.136,0,0,1-3.592,2.912,17.856,17.856,0,0,1-2.516,1.4,15.612,15.612,0,0,1-7.362,1.391,19.565,19.565,0,0,1-4.616-.816,21.939,21.939,0,0,1-3.288-1.272,18.572,18.572,0,0,1-3.9-2.486c-1.855-1.563-3.024-3.33-3.024-4.974a3.9,3.9,0,0,1,1.933-3.467,6.66,6.66,0,0,1,4.39-.747c.11.018.221.039.331.06a7.5,7.5,0,0,1,2.242.823c.683.387,1.37.757,2.056,1.085,2.915,1.416,5.823,2.18,8.22,1.028,1.908-.915,4.055-2.4,5.949-3.442a9.492,9.492,0,0,1,2.823-1.149,3.879,3.879,0,0,1,1.564.113C631.11,321.66,633.581,323.987,630.357,327.7Z" transform="translate(-599.323 -320.923)"/><path class="m" d="M620.413,333.783a15.611,15.611,0,0,1-7.362,1.391,19.564,19.564,0,0,1-4.616-.816,3.191,3.191,0,0,1-1.151-3.774c.894-2.44,3.859-.285,5.4.728s2.521.571,4.347-1.095,3.94-1.707,4.43.324A4.177,4.177,0,0,1,620.413,333.783Z" transform="translate(-598.227 -319.78)"/><path class="n" d="M609.46,324.313c-.155.672-.686,1.56-2.342,2-2.274.609-2.122-2.553-1.957-3.911a7.5,7.5,0,0,1,2.242.823C608.087,323.615,608.774,323.985,609.46,324.313Z" transform="translate(-598.508 -320.713)"/><path class="n" d="M623.689,324.23c-1.756-.468-2.246-1.436-2.362-2.122a9.492,9.492,0,0,1,2.823-1.149,3.879,3.879,0,0,1,1.564.113C625.8,322.58,625.612,324.744,623.689,324.23Z" transform="translate(-596.205 -320.923)"/><path class="n" d="M624.59,329.526A25.141,25.141,0,0,1,621,332.438c-.384-1.441-.788-4.031,1.367-3.834A3.3,3.3,0,0,1,624.59,329.526Z" transform="translate(-596.295 -319.836)"/><path class="n" d="M605.869,333.055a18.573,18.573,0,0,1-3.9-2.485,2.925,2.925,0,0,1,2.535-1.355C606.668,329.017,606.256,331.619,605.869,333.055Z" transform="translate(-598.948 -319.75)"/><path class="n" d="M605.406,322.363c.017.627-.218,1.968-2.391,2.549-1.376.37-1.866-.645-2-1.8A6.661,6.661,0,0,1,605.406,322.363Z" transform="translate(-599.083 -320.732)"/></g><g transform="translate(24.893 22.098)"><circle class="n" cx="5.768" cy="5.768" r="5.768"/><circle class="l" cx="2.424" cy="2.424" r="2.424" transform="translate(5.646 3.223)"/><circle class="n" cx="0.745" cy="0.745" r="0.745" transform="translate(7.623 3.9)"/></g><g transform="translate(39.703 22.098)"><circle class="n" cx="5.768" cy="5.768" r="5.768"/><circle class="l" cx="2.424" cy="2.424" r="2.424" transform="translate(1.043 3.223)"/><circle class="n" cx="0.745" cy="0.745" r="0.745" transform="translate(2.424 3.9)"/></g><g transform="translate(20.26 51.873)"><path class="o" d="M597.4,336.387a4.756,4.756,0,0,0,1.13,3.422,3.045,3.045,0,0,0,3.486.73,1.239,1.239,0,0,0,.442-1.686,1.264,1.264,0,0,0-1.685-.442c.275-.118.058.009-.032-.041-.043-.024-.13-.051-.183-.079a1.06,1.06,0,0,1-.408-.4,2.635,2.635,0,0,1-.286-1.5,1.233,1.233,0,0,0-2.464,0Z" transform="translate(-597.401 -335.196)"/></g><g transform="translate(50.828 52.193)"><path class="o" d="M626.744,336.345c-.183.638-.274,1.307-.51,1.931-.031.081-.03.082,0,0-.034.075-.071.15-.112.221a1.977,1.977,0,0,1-.128.2c.073-.1.062-.094-.033.011q.158-.11-.024,0,.18-.069-.034,0c.177-.023-.152-.029-.193-.038-1.546-.34-2.206,2.036-.655,2.376a2.772,2.772,0,0,0,3.165-1.258,11.156,11.156,0,0,0,.9-2.8,1.233,1.233,0,0,0-2.376-.654Z" transform="translate(-624.174 -335.476)"/></g><g transform="translate(46.677 54.742)"><path class="o" d="M621.731,338.413a.906.906,0,0,1,0,.127c.013-.093.01-.1-.008-.024l.032-.075c-.041.065-.032.058.027-.022-.054.053-.123.075,0,.017a.981.981,0,0,0-.155.088c-.046.022-.031.015.048-.019-.033.014-.067.026-.1.038-.051.018-.1.035-.155.051-.119.038-.239.074-.356.115a.724.724,0,0,0-.492.867.712.712,0,0,0,.867.492,5.039,5.039,0,0,0,1.035-.4,1.413,1.413,0,0,0,.672-1.252.7.7,0,1,0-1.408,0Z" transform="translate(-620.539 -337.709)"/></g><g transform="translate(29.788 54.377)"><path class="o" d="M605.751,337.918a1.3,1.3,0,0,0,.266.986,1.18,1.18,0,0,0,.966.3.528.528,0,1,0,0-1.056,1.655,1.655,0,0,1-.185.006l-.08-.006c.079.011.09.013.034,0s-.124-.058.011.011c-.075-.039.084.1,0,0,.052.073.065.086.036.039.032.083.039.1.019.046a.863.863,0,0,0-.022-.095c.036.151,0-.006,0-.049,0-.061,0-.121.006-.18a.531.531,0,0,0-.527-.529.541.541,0,0,0-.529.529Z" transform="translate(-605.746 -337.389)"/></g><g transform="translate(33.692 55.406)"><path class="o" d="M609.166,338.819a1.353,1.353,0,0,0,.533,1.078.544.544,0,0,0,.747,0,.531.531,0,0,0,0-.747,1.408,1.408,0,0,1-.116-.1c-.024-.024-.048-.049-.071-.075.024.032.026.033.006,0s-.027-.045-.039-.067c.015.04.017.042.006.007a.409.409,0,0,1-.019-.075c.01.052.014.044.01-.022a.528.528,0,0,0-1.056,0Z" transform="translate(-609.166 -338.291)"/></g><g transform="translate(60.015 48.221)"><path class="o" d="M633.034,332.507a.488.488,0,0,1-.134.369,2.683,2.683,0,0,1-.418.367.546.546,0,0,0-.19.723.533.533,0,0,0,.723.19,2.071,2.071,0,0,0,1.074-1.648.528.528,0,0,0-1.056,0Z" transform="translate(-632.222 -331.997)"/></g><g transform="translate(62.402 44.809)"><path class="o" d="M635.446,329.518a2.471,2.471,0,0,1-.03.468c0,.021-.065.217-.035.136-.031.082-.041.072-.044.077a2.758,2.758,0,0,1-.766.434.533.533,0,0,0-.19.723.54.54,0,0,0,.723.19,2.712,2.712,0,0,0,1.069-.709,2.119,2.119,0,0,0,.33-1.318.528.528,0,0,0-1.056,0Z" transform="translate(-634.312 -329.008)"/></g><g transform="translate(38.896 0.944)"><path class="o" d="M613.743,290.855c.494,1.021.987,2.03,1.462,3.06.095.205.4.027.3-.177-.474-1.031-.968-2.04-1.462-3.061-.1-.2-.4-.025-.3.178Z" transform="translate(-613.724 -290.587)"/></g><g transform="translate(33.067 2.928)"><path class="o" d="M609.4,292.408a4.287,4.287,0,0,0-.782,2.337c.008.225.36.226.352,0a3.961,3.961,0,0,1,.735-2.159c.12-.193-.185-.37-.3-.178Z" transform="translate(-608.619 -292.326)"/></g><g transform="translate(27.709 7.126)"><path class="o" d="M604.053,296.343a5.866,5.866,0,0,1,2.206.822.176.176,0,0,0,.177-.3,6.111,6.111,0,0,0-2.289-.857c-.222-.031-.317.308-.094.339Z" transform="translate(-603.925 -296.002)"/></g><g transform="translate(20.97 11.427)"><path class="o" d="M598.281,301.235a7.7,7.7,0,0,1,3.621-1.113.176.176,0,0,0,0-.352,7.845,7.845,0,0,0-3.8,1.161c-.189.123-.014.428.177.3Z" transform="translate(-598.023 -299.77)"/></g><g transform="translate(46.143 5.236)"><path class="o" d="M620.084,294.559a6.055,6.055,0,0,0,.652,1.094,8.115,8.115,0,0,1,.558,1.3c.089.208.393.029.3-.177a10.1,10.1,0,0,0-.476-1.179,8.039,8.039,0,0,1-.7-1.135c-.082-.209-.422-.118-.34.094Z" transform="translate(-620.071 -294.348)"/></g><g transform="translate(50.874 10.802)"><path class="o" d="M627.736,299.252a7.039,7.039,0,0,0-3.4.574c-.207.084-.116.426.094.34a6.821,6.821,0,0,1,3.311-.563c.226.023.224-.33,0-.352Z" transform="translate(-624.215 -299.222)"/></g><g transform="translate(56.207 15.101)"><path class="o" d="M628.963,303.325c.631.458,1.619.918,1.869,1.709.068.215.409.123.34-.094-.287-.9-1.313-1.4-2.031-1.919-.184-.134-.359.171-.178.3Z" transform="translate(-628.886 -302.988)"/></g></g></g></svg>