<svg xmlns="http://www.w3.org/2000/svg" xmlns:xlink="http://www.w3.org/1999/xlink" width="1365.799" height="756" viewBox="0 0 1365.799 756"><defs><style>.a,.y{fill:none;}.b{clip-path:url(#a);}.c{fill:#d2c3db;}.d{fill:#eadff1;}.e,.i,.j{fill:#000;}.f{fill:#b3b3b3;}.g{fill:gray;}.h{fill:#f2f2f2;}.i,.j{stroke:#4f3b65;}.i,.j,.y{stroke-miterlimit:10;}.i{stroke-width:6.876px;}.j{stroke-width:6px;}.k{clip-path:url(#b);}.l,.q{fill:#d8a35d;}.l{fill-rule:evenodd;}.m{fill:#999;}.n{fill:#ccc;}.o{fill:#2b2b2b;}.p{fill:#d29647;}.r{fill:#d19442;}.s{fill:#947dce;}.t{fill:#ffc84f;}.u{opacity:0.15;}.v{fill:#62548a;}.w{opacity:0.3;}.x{opacity:0.5;}.y{stroke:#947dce;stroke-width:0.823px;}.z{isolation:isolate;}.aa{clip-path:url(#c);}.ab{fill:#4ee6fe;}.ac{fill:#283172;}.ad{fill:#ff45b8;}.ae{fill:#1ecbdc;}.af{fill:#ecb370;}.ag{clip-path:url(#d);}.ah{fill:#dda15f;}.ai{fill:#ffe7b2;}.aj{fill:#a088db;}.ak{fill:#ffea2f;}.al{fill:#f49819;}.am{fill:#403129;}.an{fill:#b04321;}.ao{fill:#c24a24;}.ap{fill:#caca1e;}.aq{fill:#d3da66;}.ar{fill:#fc8058;}.as{fill:#d75228;}.at{fill:#4f4f5e;}.au{fill:#5b4e47;}.av{clip-path:url(#e);}.aw{fill:#f2634b;}.ax{fill:#414042;}.ay{fill:#bcbec0;}.az{fill:#585b60;}.ba{fill:#a7a9ac;}.bb{fill:#808285;}</style><clipPath id="a"><rect class="a" width="1365.799" height="756" transform="translate(6068.88 -1841.86)"/></clipPath><clipPath id="b"><rect class="a" width="390.462" height="372.512" transform="translate(7008.146 -1458.372)"/></clipPath><clipPath id="c"><path class="a" d="M6143.547-1384.1l.214-115.01,126.1-17.723-.214,115.01Z"/></clipPath><clipPath id="d"><path class="a" d="M6155.913-1400.69l-8.821-19.881,20.831-2.928-8.9,22.372c-.5,1.244-2.617,1.542-3.11.437"/></clipPath><clipPath id="e"><path class="a" d="M7289.083-1393.477l.242-130.151,53.455-7.512-.242,130.15Z"/></clipPath></defs><g transform="translate(-6068.88 1841.86)"><g class="b"><path class="c" d="M7434.68-1839.824v758.464l-242.228-67.586-32.991-6.263L7161.1-1713.3l30.118-25.56Z"/><path class="c" d="M6384.976-1723.889l-16.051,556.371-300.044,74.4v-750.053l298.845,93.571Z"/><path class="d" d="M6766.657-1760.289H6342.049v617.384h849.165v-617.384Z"/><path class="e" d="M6068.68-1788.58c121.657,30.38,335.7,73.888,615,80.372,352.971,8.194,622.428-47.1,751-78.7v-62.454h-1366Z"/><path class="e" d="M6068.68-1126.677c121.657-29.39,335.7-71.48,615-77.753,352.971-7.927,622.428,45.568,751,76.133v47.19l-1365.8,2.747Z"/></g><path class="f" d="M6594.835-1260.969v120.213l-8.417,9.712-4.208-133.486Z"/><path class="g" d="M6578-1264.53v133.486h8.417v-129.925Z"/><path class="f" d="M6935.476-1260.969v120.213l8.417,9.712,4.208-133.486Z"/><path class="g" d="M6952.31-1264.53v133.486h-8.417v-129.925Z"/><path class="f" d="M6640.822-1290.955v115.218l-6.1,7.042-3.051-124.841Z"/><path class="g" d="M6628.616-1293.536V-1168.7h6.1v-122.26Z"/><path class="f" d="M6887.8-1290.955v115.218l6.1,7.042,3.051-124.841Z"/><path class="g" d="M6900.009-1293.536V-1168.7h-6.1v-122.26Z"/><path class="h" d="M6565.483-1268.091l60.085-67.553h277.346l62.273,67.553Z"/><rect class="f" width="399.704" height="7.122" transform="translate(6565.483 -1268.091)"/><path class="i" d="M6291.8-1561.872v207l-66.988,8.1-21.016,2.53-77.5,9.37v-247l77.5,9.37,21.016,2.53Z"/><path class="j" d="M7252.931-1564.872v207l51,8.1,16,2.53,59,9.37v-247l-59,9.37-16,2.53Z"/><g class="k"><path class="l" d="M7085.755-1183.629c-.675.85-10.487,8.848-13,14.2s-5.744,13.547-7.592,16.111c-2.173,3.016-1.145,4.349,1.736,1.01a58,58,0,0,0,5.69-7.914c.223-.545-1.568,2.886-3.8,6.513-2.373,3.855-5.184,7.951-4.517,8.427,1.294.922,8.878-9.912,9.872-11.945a56.465,56.465,0,0,1-2.694,5.332c-1.358,2.355-3.293,4.917-2.976,5.673.5,1.191,5.3-4.265,7.928-9.257.2-.03-.146,1.764-3.669,7.483-.354.575-.655,2.255,1.022.561,3.532-3.566,5.313-4.839,7.754-10.976,2.38-5.985,3.553-13.117,6.589-16.942Z"/><path class="m" d="M7055.63-1164.641l15.4,18.952a2.494,2.494,0,0,0,3.53.412l8.587-7.184a.763.763,0,0,0,.084-.077,2.565,2.565,0,0,0,.2-3.507l-15.4-18.952a2.49,2.49,0,0,0-3.528-.409l-8.017,6.7-.572.476A2.563,2.563,0,0,0,7055.63-1164.641Z"/><path class="n" d="M7056.06-1165.061l15.526,18.879a2.574,2.574,0,0,0,3.625.352l8.371-6.914a2.571,2.571,0,0,0,.264-3.547l-15.525-18.878a2.574,2.574,0,0,0-3.626-.352l-8.371,6.914A2.571,2.571,0,0,0,7056.06-1165.061Z"/><path class="o" d="M7057.571-1165.113l13.408,16.305a2.225,2.225,0,0,0,3.132.3l7.229-5.971a2.218,2.218,0,0,0,.228-3.063l-13.408-16.305a2.225,2.225,0,0,0-3.132-.3l-7.229,5.971A2.219,2.219,0,0,0,7057.571-1165.113Z"/><circle class="g" cx="0.86" cy="0.86" r="0.86" transform="translate(7077.74 -1151.33)"/><path class="l" d="M7075.658-1173.077s-6.619,2.9-9.336,7.873c-1.615,2.953-2.376,2.595-2.8,3.043-1.42,1.489,2.486.965,4.291-1.387,1.467-1.912,5.594-1.782,6.847-2.8s4.1-4.379,3.938-5.532S7075.658-1173.077,7075.658-1173.077Z"/><path class="p" d="M7239.337-1102.322s-11.581,119.5-6.656,121.56c8.834,3.748,43.434,16.006,5.288,13.312-19.6,1.181-18.158-3.2-18.464-6.906-.25-3.031.326-109.98-.48-118.3-.18-1.863-.289-2.989-.289-2.989Z"/><path class="q" d="M7158.569-1113.5s62.55,101.949,59.248,106.142c-5.893,7.574-30.151,35.123,1.86,14.2,17.693-8.505,14.306-11.63,12.768-15.019-1.257-2.77-10.512-23.948-13.857-31.605-.749-1.715-42.884-85.231-42.884-85.231Z"/><path class="r" d="M7205.929-1410.7s-1.02,11.387,6,17.684-16.187,0-16.187,0,4.319-10.907,3.35-17.684S7205.929-1410.7,7205.929-1410.7Z"/><ellipse class="q" cx="12.28" cy="16.754" rx="12.28" ry="16.754" transform="translate(7189.945 -1439.792)"/><path class="s" d="M7282.312-1301.138c-.206,3.171-2.771,14.961-6.38,27.776-1.063,3.824-2.229,7.732-3.451,11.538-1.483,4.635-3.05,9.1-4.636,13.048-3.078,7.649-6.23,13.338-8.982,14.448-9.271,3.731-79.271,8.851-93.663,1.987-.335-.252-.7-.523-1.044-.821-5.4-4.393-11.258-13.067-14.364-21.191,0-.01-8.273-23.327-9.961-28.075-.019-.046-.028-.084-.047-.121-.056-.187-.121-.364-.186-.532-.019-.065-.047-.121-.066-.186-8.711,29.744-31.889,95.071-50.637,115.768-1.967,2.173-11.024-10.018-11.024-10.018s-15.138-78.17,24.353-160.78c18.589-38.885,51.765-56.625,72.947-61.335,9.169-2.043,16.089-1.642,18.617.541a13.733,13.733,0,0,0,8.571,3.33,18.577,18.577,0,0,0,4.813-.439,23.872,23.872,0,0,0,5.1-1.735c.784-.363,1.241-.625,1.241-.625a49.79,49.79,0,0,1,12.964.775C7274.4-1388.4,7282.741-1308.049,7282.312-1301.138Z"/><path class="t" d="M7162-1235.1a7.568,7.568,0,0,0,4.3,1.982c10.1.2,53.695.945,77.346-.415,8.344-.48,14.2-1.221,15.234-2.346a.911.911,0,0,1-.007.1c-.062,1.3-.809,16.229-1.859,35.793-2.073,38.62,1.919,93.934,6.583,110.722,1.006,3.624-53.165-1.865-53.165-1.865-.151-39.856,3.631-109.825,1.188-112.961-2.971-3.815-7.789,57.73-13.313,109.23-21.452,5.6-55.422,2.2-55.03,0C7147.932-1120.976,7162-1235.1,7162-1235.1Z"/><path class="u" d="M7139.537-1283.267c.019.065.047.121.066.186.065.168.13.345.186.532.019.037.028.075.047.121,1.688,4.748,9.961,28.065,9.961,28.075,3.106,8.124,8.964,16.8,14.364,21.191-3.666-13.272-15.091-51.747-14.653-67.248C7147.326-1285.468,7139.537-1283.277,7139.537-1283.267Z"/><path class="u" d="M7275.932-1273.362c-1.063,3.824-2.229,7.732-3.451,11.538-1.483,4.635-3.05,9.1-4.636,13.048-27.412-32.822-12.461-77.452-12.461-77.452s11.584,38.745,11.706,39.836C7267.127-1286,7270.979-1280.413,7275.932-1273.362Z"/><path class="u" d="M7203.174-1393.01c.037,1.11-.551,1.838-2.332,1.595-5.559-.755-11.836-.6-16.4,1.492a3.875,3.875,0,0,1-3.75-.158c-2.919-1.707-4.729-6.8-5.447-9.057a1.549,1.549,0,0,1-.074-.494c9.168-2.043,16.089-1.642,18.617.541a13.731,13.731,0,0,0,8.571,3.33A7.555,7.555,0,0,1,7203.174-1393.01Z"/><path class="v" d="M7230.166-1015.653c-.64-1.618-11.286,4.5-11.817,6.4s-19.447,18.219-15.487,24.33,30.8-15.382,32.831-16.71S7231.425-1012.473,7230.166-1015.653Z"/><path class="v" d="M7218.818-984.8c-.229-1.725,14.467.464,15.856,1.865s22.781,7.221,22.3,14.487-34.392,1.553-36.813,1.382S7219.267-981.409,7218.818-984.8Z"/><g class="w"><path d="M7202.247-1232.729l-.487-.04S7201.933-1232.757,7202.247-1232.729Z"/><path class="x" d="M7202.247-1232.729c12.993,1.037,41.39-.8,41.39-.8,8.344-.48,14.2-1.221,15.234-2.346a.911.911,0,0,1-.007.1c-.062,1.3-.809,16.229-1.859,35.793a9.752,9.752,0,0,1-1.366-.158,10.633,10.633,0,0,1-6.876-4.886,23.624,23.624,0,0,1-2.674-5.584C7236.4-1229.046,7206.409-1232.355,7202.247-1232.729Z"/></g><path class="t" d="M7197.61-1432.654s21.259,11.786,14.949-7.138C7208.194-1452.885,7183.112-1441.091,7197.61-1432.654Z"/><path class="t" d="M7200.692-1437.175s-11.894,7.057-10.747,14.137c0,0-2.623-21.137,9.2-21.669s16.406.611,15.355,22.962C7214.5-1421.745,7211.068-1439.525,7200.692-1437.175Z"/><path class="t" d="M7198.633-1444.569s.6-6.586,7.127-5.653,9.327,4.663,10.26,8.394,1.865,6.529,2.8,6.529c0,0-2.8,2.8-3.731,1.866,0,0,2.421,6.707-.655,12.214,0,0-1.211-8.484-5.874-9.416S7198.633-1444.569,7198.633-1444.569Z"/><path class="t" d="M7199.231-1444.626s-4.664-2.8-9.327,3.731l-2.8,5.6s.932.933,2.8,0c0,0-.85,6.572.041,10.281l2.757-11.214Z"/><path class="l" d="M7342.928-1176.143c.489.794,8.044,8.619,9.644,13.441s3.518,12.144,4.832,14.52c1.547,2.8.533,3.828-1.584.685a49.772,49.772,0,0,1-4.046-7.333c-.135-.488,1.043,2.623,2.577,5.945,1.631,3.531,3.612,7.312,2.994,7.65-1.2.655-6.563-9.362-7.2-11.2a48.674,48.674,0,0,0,1.754,4.824c.918,2.148,2.308,4.531,1.96,5.143-.547.965-4.083-4.179-5.818-8.706-.171-.046-.056,1.52,2.366,6.758.243.527.329,1.991-.93.375-2.648-3.4-4.039-4.671-5.5-10.156-1.419-5.349-1.692-11.553-3.892-15.127Z"/><path class="l" d="M7351.535-1164.964s5.351,3.154,7.162,7.67c1.076,2.685,1.762,2.456,2.081,2.883,1.06,1.414-2.219.569-3.519-1.622-1.057-1.781-4.591-2.091-5.556-3.085s-3.047-4.154-2.795-5.122S7351.535-1164.964,7351.535-1164.964Z"/><line class="y" x1="13.756" y2="143.844" transform="translate(7157.712 -1236.039)"/><line class="y" x1="13.652" y2="141.339" transform="translate(7171.468 -1233.162)"/><line class="y" x1="11.353" y2="140.351" transform="translate(7187.112 -1233.162)"/><line class="y" x2="0.292" y2="29.072" transform="translate(7211.319 -1233.162)"/><line class="y" x1="2.634" y2="143.195" transform="translate(7222.952 -1233.162)"/><line class="y" x1="0.734" y2="144.396" transform="translate(7237.129 -1233.252)"/><line class="y" x2="2.777" y2="145.226" transform="translate(7249.929 -1233.252)"/><path class="y" d="M7160.134-1220.132s77.466,3.657,97.934,0"/><path class="y" d="M7211.611-1204.09c-27.1,6.139-53.042-3.566-53.042-3.566"/><path class="y" d="M7211.319-1205.924s24.46,6.873,45.946,1.069"/><path class="y" d="M7157.236-1197.114s19.533,10.226,51.26,5.013"/><path class="y" d="M7155.637-1184.56s30.4,9.28,51.356,4.505"/><path class="y" d="M7154.034-1172.088s15.48,12.136,51.372,6.692"/><path class="y" d="M7152.168-1157.741a75.312,75.312,0,0,0,52.063,3.922"/><path class="y" d="M7150.433-1144.6s16.718,11.868,52.393,4.975"/><path class="y" d="M7148.618-1131.126s23.075,12.063,53.142,2.317"/><path class="y" d="M7147.166-1120.611s13.614,13.093,53.443,3.387"/><path class="y" d="M7145.455-1108.676s22.013,11.6,53.978,3.021"/><path class="y" d="M7212.431-1192.794s10.219,8.438,44.834,2.174"/><path class="y" d="M7212.7-1180.095s14.34,6.686,43.747,1.406"/><path class="y" d="M7212-1166s22.141,6.669,44.446,0"/><path class="y" d="M7211.681-1154.312s21.524,9.569,45.194,0"/><path class="y" d="M7211.319-1141.479s20.492,7.191,46.15,0"/><path class="y" d="M7210.988-1129.154s17.273,7.75,47.289,0"/><path class="y" d="M7210.988-1118.249s20.508,10.568,48.333,1.123"/><path class="y" d="M7210.5-1104.618a94.815,94.815,0,0,0,50.347.582"/><path class="s" d="M7259.321-1348.643s-60.142-47.6-45.8-49.916,37.8,3.319,37.8,3.319c21.181,4.71,41.405,20.625,59.994,59.51,39.491,82.61,37.306,162.6,37.306,162.6s-9.145,12.267-11.025,10.018c-34.89-41.748-57.326-83.657-66.791-111.854S7259.321-1348.643,7259.321-1348.643Z"/></g><g class="z"><g class="aa"><path class="ab" d="M6216.053-1403.094l-.015.011.015-.011m-30.364,3.528a.2.2,0,0,0,.078.027.35.35,0,0,0-.078-.027m-12.518,1.681-.067.039.067-.039m.1-.057-.008,0-.088.049.1-.053m.069-.035h0l-.067.034.013-.005a.245.245,0,0,0,.056-.03m-19.718-7.87a7.7,7.7,0,0,0,.4,1.505,10.09,10.09,0,0,0,.949,1.526l-1.345-3.031m38.953,9.232a.96.96,0,0,1-.7-.187,2.28,2.28,0,0,1-.942-1.926,1.184,1.184,0,0,1,.939-1.143l.033-.006a.838.838,0,0,1,.9.885.4.4,0,0,1,0,.106s-.006-.012-.011-.039a.682.682,0,0,0,.03.113l.006.026.05.084.02.026c.031.032.064.065.1.093a1.642,1.642,0,0,0,.208.167c.394.286.323,1.031,0,1.428a.987.987,0,0,1-.626.373m23.5-6.495c0-.029,0-.057,0-.087a1.57,1.57,0,0,1,1.252-1.519,1.116,1.116,0,0,1,1.246,1.168,3.217,3.217,0,0,1-1.2,2.564,9.78,9.78,0,0,1-1.836,1.026,1.034,1.034,0,0,1-.335.11,1.118,1.118,0,0,1-1.2-.835,1.613,1.613,0,0,1,.875-1.78c.208-.109.421-.2.629-.308.1-.046.186-.087.278-.137l.092-.049,0,0a1.291,1.291,0,0,1,.189-.147l.005,0m-30.1,5.579a1.657,1.657,0,0,1-1.477-.377,2.372,2.372,0,0,1-.469-1.82,1.192,1.192,0,0,1,.938-1.142l.033-.006a.835.835,0,0,1,.9.885,3.2,3.2,0,0,0-.009.348.986.986,0,0,0,.009.1l.069-.008c.08-.012.16-.027.243-.046l.052-.009a.848.848,0,0,1,.883.889,1.19,1.19,0,0,1-.939,1.143c-.078.016-.156.03-.235.041m38.96-7.661a1.212,1.212,0,0,1,.039-.122c.419-1.252.586-2.558.909-3.824a2.462,2.462,0,0,1,2.027-1.946,1.946,1.946,0,0,1,2.187,2.608,25.409,25.409,0,0,1-1.6,5.579,5.571,5.571,0,0,1-4.212,3.169,5.914,5.914,0,0,1-1.4.025c-2.562-.247-1.709-4.367.645-4.7a2.181,2.181,0,0,1,.525-.01c.055,0,.384-.034.429-.018l.053-.024.006-.005a.856.856,0,0,1,.1-.123v0c.051-.091.1-.183.145-.279s.1-.222.152-.336m-51.848,11.921a4.6,4.6,0,0,1-3.962-1.339c-1.584-1.57-1.987-3.876-1.991-6.267a2.527,2.527,0,0,1,2.179-2.582,1.833,1.833,0,0,1,2.193,1.968,4.962,4.962,0,0,0,.5,2.807,1.566,1.566,0,0,0,.718.662c.1.038.247.073.325.1a.182.182,0,0,0,.1.011.558.558,0,0,0,.113-.031.8.8,0,0,1,.075-.038,3,3,0,0,1,.934-.306,1.7,1.7,0,0,1,1.816.863,2.684,2.684,0,0,1-.791,3.336,5.931,5.931,0,0,1-2.216.812m65.516-22.64a.867.867,0,0,1-.848-.39,1.183,1.183,0,0,1,.341-1.429,6.155,6.155,0,0,0,.739-.805,1.112,1.112,0,0,0,.24-.741,1.071,1.071,0,0,1,.924-1.107.794.794,0,0,1,.949.844c.015,1.463-.919,2.465-1.914,3.419a.76.76,0,0,1-.431.209m5.152-9.358s.072-.274.079-.31a5.493,5.493,0,0,0,.054-.9,1.1,1.1,0,0,1,.945-1.108.776.776,0,0,1,.929.845,4.742,4.742,0,0,1-.591,2.6,5.847,5.847,0,0,1-1.9,1.624,1.23,1.23,0,0,1-.493.192.753.753,0,0,1-.79-.372,1.152,1.152,0,0,1,.34-1.429,5.889,5.889,0,0,0,1.36-1.024c0-.01.025.011.078-.156a.3.3,0,0,1-.014.039m-58.111-15.377c-5.647.794-10.218-3.506-10.206-9.6s4.6-11.682,10.247-12.476,10.218,3.506,10.206,9.6-4.6,11.686-10.247,12.48m26.257-3.69c-5.647.793-10.218-3.506-10.207-9.606s4.6-11.681,10.248-12.475,10.217,3.506,10.206,9.6-4.6,11.686-10.247,12.48m22.837-34.518a.256.256,0,0,1-.3-.193c-.439-1.454-2.19-2.088-3.307-2.806-.265-.172-.1-.631.153-.666a.24.24,0,0,1,.165.041c1.273.818,3.088,1.508,3.593,3.164a.366.366,0,0,1-.308.46m-65.906.942c-.261.036-.432-.38-.149-.616a15.249,15.249,0,0,1,6.739-3.17h.009c.39-.055.386.61-.01.675a14.963,14.963,0,0,0-6.427,3.033.328.328,0,0,1-.162.079m52.985-9.667c-.287.04-.377-.482-.049-.67a13.772,13.772,0,0,1,4.973-1.856,9.616,9.616,0,0,1,1.062-.092c.387-.013.4.62.034.671a.2.2,0,0,1-.035,0,9.578,9.578,0,0,0-1.035.089,13.352,13.352,0,0,0-4.835,1.813.332.332,0,0,1-.115.042m-37.021-1.388a.265.265,0,0,1-.159-.03,8.766,8.766,0,0,0-3.909-1.023c-.377,0-.238-.617.119-.667a.271.271,0,0,1,.051,0,9.1,9.1,0,0,1,4.057,1.068c.287.148.108.617-.159.655m30.781-5.047a.206.206,0,0,1-.228-.142,13.561,13.561,0,0,0-.984-2.361,9.678,9.678,0,0,1-1.15-1.93.335.335,0,0,1,.29-.444.277.277,0,0,1,.313.181,13.127,13.127,0,0,0,1.232,2,16.764,16.764,0,0,1,.842,2.137.433.433,0,0,1-.315.56m-25.239-1.085a.274.274,0,0,1-.326-.279,9.787,9.787,0,0,1,1.4-4.666.352.352,0,0,1,.256-.2.292.292,0,0,1,.286.456,8.99,8.99,0,0,0-1.313,4.317.344.344,0,0,1-.3.367m12.872-4.019a.214.214,0,0,1-.235-.141c-.838-1.852-1.706-3.663-2.583-5.492a.413.413,0,0,1,.3-.553.221.221,0,0,1,.24.14c.873,1.829,1.745,3.635,2.583,5.492a.42.42,0,0,1-.308.554m-2.77-7.956-6.064,8.467-2.874-2.858c-3.174,2.468-3.769,12.032-3.769,12.032-1-2.812-10.22-1.984-10.22-1.984l3.155,7.638a14.185,14.185,0,0,0-3.667.044c-6.508.915-11.177,5.927-11.177,5.927l5.464,4.207c-5.186,2.437-10.964,10.868-10.964,10.868l7.2-1.013-7.232,16.09a29.744,29.744,0,0,0-5.893,11.841c.1.013.209.028.313.045a10.314,10.314,0,0,1,6.515-3.888c5-.7,9.061,3.107,9.051,8.514a10.924,10.924,0,0,1-.252,2.286,3.563,3.563,0,0,1,1.372,2.66,8.995,8.995,0,0,1,3.1-4.618,11.93,11.93,0,0,1,5.743-2.4,12.717,12.717,0,0,1,2.045-.12c.195.006.394.02.585.031a11.254,11.254,0,0,1,3.974,1.018c1.209.574,2.426,1.11,3.644,1.566a20.473,20.473,0,0,0,9.977,1.632,11.041,11.041,0,0,0,4.592-1.714c3.386-2.226,7.2-5.612,10.56-8.074a19.112,19.112,0,0,1,5.009-2.9,5.055,5.055,0,0,1,.84-.187,6.952,6.952,0,0,1,1.931.013c4.04.555,8.412,4.4,2.682,12.305-1.539,2.13-3.155,4.244-4.868,6.253a55.588,55.588,0,0,1-6.377,6.465,36.968,36.968,0,0,1-4.467,3.31,29.036,29.036,0,0,1-11.565,4.328c-.491.069-.987.126-1.491.17a30.823,30.823,0,0,1-8.181-.414,32.133,32.133,0,0,1-5.824-1.615,26.951,26.951,0,0,1-6.9-3.785c-3.287-2.528-5.353-5.617-5.348-8.762,0-.162,0-.32.013-.478a4.561,4.561,0,0,1-3.464,2.9,3.534,3.534,0,0,1-.586.033l-7.594,19.089a5.031,5.031,0,0,0,.779-.883c.6,1.992,1.925,2.115,2.655,2.012a2.3,2.3,0,0,0,.511-.127s3.29,12.281,9.91,12.75a5.282,5.282,0,0,0,1.124-.037c5.749-.807,7.681-10.991,7.681-10.991s2.3,4.5,4.316,4.214,3.461-3.13,3.461-3.13,1.86,4.867,4.744,4.462,3.032-5.4,3.032-5.4.967,3.912,3.655,3.534c.049-.007.1-.015.15-.025,2.8-.548,5.414-3.714,5.414-3.714s2.478,3.232,3.529,3.084a.446.446,0,0,0,.064-.013c1.006-.3,2.31-4.523,2.31-4.523s1.92,3,3.757,2.739c.042-.006.085-.013.128-.023,1.874-.418,2.744-4.424,2.744-4.424,2.442,4.318,7.042,6.778,9.926,6.373s2.765-15.462,2.765-15.462.725,2.128,2.3,1.907a1.958,1.958,0,0,0,.434-.115c1.87-.731,1.015-4.495,1.015-4.495a2.788,2.788,0,0,0,2.491,1.362,2.492,2.492,0,0,0,.819-.274c2.018-1.06,2.464-7.342,2.464-7.342a2.628,2.628,0,0,0,2.658,1.5c.071-.01.144-.023.218-.039,2.017-.438,2.321-9.808,2.321-9.808a3.7,3.7,0,0,0,2.214.179c1.7-.238,4.437-1.224,8.451-4.317,7.642-5.9,4.779-14.66,4.779-14.66s2.96,1.868,5.164,1.558c1.2-.168,2.171-.979,2.327-3.079.349-4.725-4.364-4.549-6.342-4.271-.521.073-.852.153-.852.153s6.062-7.071,2.9-9.111a1.706,1.706,0,0,0-1.2-.285c-2.72.382-5.149,7.237-5.149,7.237s1.063-8.606-2.57-8.095a2.94,2.94,0,0,0-.58.147c-4.326,1.539-1.178,13.353-1.178,13.353s-.717-1.743-4.89-3.019a3.829,3.829,0,0,0-1.658-.172c-2.656.373-2.928,4.244-1.954,5.032,1.151.924,10.652,3.164,10.652,3.164-.272,6.9-4.121,8.826-7.182,9.256a11.548,11.548,0,0,1-3.779-.1c-1.981-18.994-16.632-40.091-16.632-40.091l7.926-2.358c-2.437-6.654-11.217-7.129-11.217-7.129a9.234,9.234,0,0,0,2.747-5.824,53.218,53.218,0,0,0-10.38,4.412c1.6-6.444-5.874-14.407-5.874-14.407-2.311,2.5-5.492,10.562-5.492,10.562.308-11.387-6.6-16.169-6.6-16.169"/><path class="ac" d="M6183.31-1411.149a26.951,26.951,0,0,1-6.9-3.785,6.163,6.163,0,0,1,4.5-3.224c.137-.033.269-.058.4-.076,3.386-.476,2.672,4.343,2.007,7.085m16.037-4.612c1.5-.211,2.959-1.5,5.042-3.84a8.438,8.438,0,0,1,4.654-3c1.529-.215,2.753.561,3.2,2.517.49,2.145-.733,4.68-1.872,6.464a29.036,29.036,0,0,1-11.565,4.328c-.491.069-.987.126-1.491.17a30.823,30.823,0,0,1-8.181-.414s-3.621-2.051-2.029-6.936a3.2,3.2,0,0,1,2.612-2.511c2.227-.313,5.15,1.525,6.962,2.561a4.13,4.13,0,0,0,2.668.659m15.491-1.167c-.651-2.561-1.331-7.166,2.039-7.64.126-.017.257-.029.4-.035a4.92,4.92,0,0,1,3.943,1.21,55.588,55.588,0,0,1-6.377,6.465m8.563-25.023c.135,2.568-.127,6.206-2.645,6.56a3.292,3.292,0,0,1-.953-.013c-3.113-.456-3.977-2.188-4.182-3.475-3.361,2.462-7.174,5.848-10.56,8.074a11.041,11.041,0,0,1-4.592,1.714,20.473,20.473,0,0,1-9.977-1.632c-.28,1.321-1.224,3.153-4.158,4.412a3.713,3.713,0,0,1-.951.281c-3.037.427-2.779-4.862-2.509-7.277-.191-.011-.39-.025-.585-.031.028,1.2-.393,3.823-4.247,5.474a3.724,3.724,0,0,1-.952.281c-1.725.243-2.388-1.359-2.589-3.233a8.995,8.995,0,0,0-3.1,4.618c.007.1.01.2.01.305a4.7,4.7,0,0,1-.334,1.719c-.008.158-.012.316-.013.478,0,3.145,2.061,6.234,5.348,8.762a26.951,26.951,0,0,0,6.9,3.785,32.133,32.133,0,0,0,5.824,1.615,30.823,30.823,0,0,0,8.181.414c.5-.044,1-.1,1.491-.17a29.036,29.036,0,0,0,11.565-4.328,36.968,36.968,0,0,0,4.467-3.31,55.588,55.588,0,0,0,6.377-6.465c1.713-2.009,3.329-4.123,4.868-6.253,5.73-7.909,1.358-11.75-2.682-12.305"/><path class="ad" d="M6209.043-1422.6a8.438,8.438,0,0,0-4.654,3c-2.083,2.339-3.541,3.629-5.042,3.84a4.13,4.13,0,0,1-2.668-.659c-1.812-1.036-4.735-2.874-6.962-2.561a3.2,3.2,0,0,0-2.612,2.511c-1.592,4.885,2.029,6.936,2.029,6.936a30.823,30.823,0,0,0,8.181.414c.5-.044,1-.1,1.491-.17a29.036,29.036,0,0,0,11.565-4.328c1.139-1.784,2.362-4.319,1.872-6.464-.447-1.956-1.671-2.732-3.2-2.517"/><path class="e" d="M6182.874-1433.307c-.27,2.415-.528,7.7,2.509,7.277a3.713,3.713,0,0,0,.951-.281c2.934-1.259,3.878-3.091,4.158-4.412-1.218-.456-2.435-.992-3.644-1.566a11.254,11.254,0,0,0-3.974-1.018"/><path class="e" d="M6221.47-1441.964a5.055,5.055,0,0,0-.84.187,19.112,19.112,0,0,0-5.009,2.9c.205,1.287,1.069,3.019,4.182,3.475a3.292,3.292,0,0,0,.953.013c2.518-.354,2.78-3.992,2.645-6.56a6.952,6.952,0,0,0-1.931-.013"/><path class="e" d="M6216.877-1424.568c-3.37.474-2.69,5.079-2.039,7.64a55.588,55.588,0,0,0,6.377-6.465,4.92,4.92,0,0,0-3.943-1.21c-.138.006-.269.018-.4.035"/><path class="e" d="M6181.3-1418.234c-.126.018-.258.043-.4.076a6.163,6.163,0,0,0-4.5,3.224,26.951,26.951,0,0,0,6.9,3.785c.665-2.742,1.379-7.561-2.007-7.085"/><path class="e" d="M6180.244-1433.218a11.93,11.93,0,0,0-5.743,2.4c.2,1.874.864,3.476,2.589,3.233a3.724,3.724,0,0,0,.952-.281c3.854-1.651,4.275-4.279,4.247-5.474a12.717,12.717,0,0,0-2.045.12"/><path class="e" d="M6189.734-1447.857a3.789,3.789,0,0,1-4.289-4.031,5.335,5.335,0,0,1,4.307-5.243,3.79,3.79,0,0,1,4.289,4.035,5.333,5.333,0,0,1-4.307,5.239m-4.052-14.87c-5.647.794-10.236,6.381-10.247,12.476s4.559,10.4,10.206,9.6,10.236-6.381,10.247-12.48-4.559-10.394-10.206-9.6"/><path class="ac" d="M6190.273-1453.057a1.169,1.169,0,0,1-1.32-1.242,1.639,1.639,0,0,1,1.325-1.609,1.162,1.162,0,0,1,1.316,1.237,1.642,1.642,0,0,1-1.321,1.614m-.521-4.074a5.335,5.335,0,0,0-4.307,5.243,3.789,3.789,0,0,0,4.289,4.031,5.333,5.333,0,0,0,4.307-5.239,3.79,3.79,0,0,0-4.289-4.035"/><path class="e" d="M6190.278-1455.908a1.639,1.639,0,0,0-1.325,1.609,1.169,1.169,0,0,0,1.32,1.242,1.642,1.642,0,0,0,1.321-1.614,1.162,1.162,0,0,0-1.316-1.237"/><path class="e" d="M6207.829-1450.4a3.79,3.79,0,0,1-4.29-4.031,5.334,5.334,0,0,1,4.307-5.243,3.79,3.79,0,0,1,4.289,4.035,5.332,5.332,0,0,1-4.306,5.239m4.11-16.017c-5.647.794-10.236,6.381-10.248,12.475s4.56,10.4,10.207,9.606,10.235-6.381,10.247-12.48-4.555-10.4-10.206-9.6"/><path class="ac" d="M6207.309-1455.452a1.166,1.166,0,0,1-1.316-1.242,1.637,1.637,0,0,1,1.321-1.609,1.164,1.164,0,0,1,1.321,1.238,1.642,1.642,0,0,1-1.326,1.613m.537-4.222a5.334,5.334,0,0,0-4.307,5.243,3.79,3.79,0,0,0,4.29,4.031,5.332,5.332,0,0,0,4.306-5.239,3.79,3.79,0,0,0-4.289-4.035"/><path class="e" d="M6207.314-1458.3a1.637,1.637,0,0,0-1.321,1.609,1.166,1.166,0,0,0,1.316,1.242,1.642,1.642,0,0,0,1.326-1.613,1.164,1.164,0,0,0-1.321-1.238"/><path class="ae" d="M6173.341-1397.976a.8.8,0,0,0-.075.038l.008,0,.067-.034m-.237.13.067-.039-.067.039m-3.794-5.613a2.527,2.527,0,0,0-2.179,2.582c0,2.391.407,4.7,1.991,6.267a4.6,4.6,0,0,0,3.962,1.339,5.931,5.931,0,0,0,2.216-.812,2.684,2.684,0,0,0,.791-3.336,1.7,1.7,0,0,0-1.816-.863,3,3,0,0,0-.934.306h0a.245.245,0,0,1-.056.03l-.013.005-.1.053.088-.049a.558.558,0,0,1-.113.031.182.182,0,0,1-.1-.011c-.078-.031-.229-.066-.325-.1a1.566,1.566,0,0,1-.718-.662,4.962,4.962,0,0,1-.5-2.807,1.833,1.833,0,0,0-2.193-1.968"/><path class="ae" d="M6227.907-1411.084a2.462,2.462,0,0,0-2.027,1.946c-.323,1.266-.49,2.572-.909,3.824a1.212,1.212,0,0,0-.039.122c-.049.114-.1.228-.152.336s-.094.188-.145.279v0a.856.856,0,0,0-.1.123l-.006.005-.053.024c-.045-.016-.374.02-.429.018a2.181,2.181,0,0,0-.525.01c-2.354.331-3.207,4.451-.645,4.7a5.914,5.914,0,0,0,1.4-.025,5.571,5.571,0,0,0,4.212-3.169,25.409,25.409,0,0,0,1.6-5.579,1.946,1.946,0,0,0-2.187-2.608"/><path class="ae" d="M6216.038-1403.083l.015-.011-.015.011m1.284-1.633a1.57,1.57,0,0,0-1.252,1.519c0,.03,0,.058,0,.087l-.005,0a1.291,1.291,0,0,0-.189.147l0,0-.092.049c-.092.05-.183.091-.278.137-.208.1-.421.2-.629.308a1.613,1.613,0,0,0-.875,1.78,1.118,1.118,0,0,0,1.2.835,1.034,1.034,0,0,0,.335-.11,9.78,9.78,0,0,0,1.836-1.026,3.217,3.217,0,0,0,1.2-2.564,1.116,1.116,0,0,0-1.246-1.168"/><path class="ae" d="M6185.767-1399.539a.2.2,0,0,1-.078-.027.35.35,0,0,1,.078.027m-.77-1.337-.033.006a1.192,1.192,0,0,0-.938,1.142,2.372,2.372,0,0,0,.469,1.82,1.657,1.657,0,0,0,1.477.377c.079-.011.157-.025.235-.041a1.19,1.19,0,0,0,.939-1.143.848.848,0,0,0-.883-.889l-.052.009c-.083.019-.163.034-.243.046l-.069.008a.986.986,0,0,1-.009-.1,3.2,3.2,0,0,1,.009-.348.835.835,0,0,0-.9-.885"/><path class="ae" d="M6191.907-1399.877l-.033.006a1.184,1.184,0,0,0-.939,1.143,2.28,2.28,0,0,0,.942,1.926.96.96,0,0,0,.7.187.987.987,0,0,0,.626-.373c.326-.4.4-1.142,0-1.428a1.642,1.642,0,0,1-.208-.167c-.033-.028-.066-.061-.1-.093l-.02-.026-.05-.084-.006-.026a.682.682,0,0,1-.03-.113c0,.027.009.04.011.039a.4.4,0,0,0,0-.106.838.838,0,0,0-.9-.885"/><path class="ae" d="M6240-1420.383a1.071,1.071,0,0,0-.924,1.107,1.112,1.112,0,0,1-.24.741,6.155,6.155,0,0,1-.739.805,1.183,1.183,0,0,0-.341,1.429.867.867,0,0,0,.848.39.76.76,0,0,0,.431-.209c1-.954,1.929-1.956,1.914-3.419a.794.794,0,0,0-.949-.844"/><path class="ae" d="M6244.83-1427.589a1.1,1.1,0,0,0-.945,1.108,5.493,5.493,0,0,1-.054.9c-.007.036-.083.311-.079.31a.3.3,0,0,0,.014-.039c-.053.167-.074.146-.078.156a5.889,5.889,0,0,1-1.36,1.024,1.152,1.152,0,0,0-.34,1.429.753.753,0,0,0,.79.372,1.23,1.23,0,0,0,.493-.192,5.847,5.847,0,0,0,1.9-1.624,4.742,4.742,0,0,0,.591-2.6.776.776,0,0,0-.929-.845"/><path class="ae" d="M6200.692-1505.3a.413.413,0,0,0-.3.553c.877,1.829,1.745,3.64,2.583,5.492a.214.214,0,0,0,.235.141.42.42,0,0,0,.308-.554c-.838-1.857-1.71-3.663-2.583-5.492a.221.221,0,0,0-.24-.14"/><path class="ae" d="M6191.661-1500.239a.352.352,0,0,0-.256.2,9.787,9.787,0,0,0-1.4,4.666.274.274,0,0,0,.326.279.344.344,0,0,0,.3-.367,8.99,8.99,0,0,1,1.313-4.317.292.292,0,0,0-.286-.456"/><path class="ae" d="M6180.844-1490.687c-.357.05-.5.666-.119.667a8.766,8.766,0,0,1,3.909,1.023.265.265,0,0,0,.159.03c.267-.038.446-.507.159-.655a9.1,9.1,0,0,0-4.057-1.068.271.271,0,0,0-.051,0"/><path class="ae" d="M6175.428-1481.7h-.009a15.249,15.249,0,0,0-6.739,3.17c-.283.236-.112.652.149.616a.328.328,0,0,0,.162-.079,14.963,14.963,0,0,1,6.427-3.033c.4-.065.4-.73.01-.675"/><path class="ae" d="M6213.5-1498.891a.335.335,0,0,0-.29.444,9.678,9.678,0,0,0,1.15,1.93,13.561,13.561,0,0,1,.984,2.361.206.206,0,0,0,.228.142.433.433,0,0,0,.315-.56,16.764,16.764,0,0,0-.842-2.137,13.127,13.127,0,0,1-1.232-2,.277.277,0,0,0-.313-.181"/><path class="ae" d="M6226.738-1490.1a13.772,13.772,0,0,0-4.973,1.856c-.328.188-.238.71.049.67a.332.332,0,0,0,.115-.042,13.352,13.352,0,0,1,4.835-1.813,9.578,9.578,0,0,1,1.035-.089.2.2,0,0,0,.035,0c.368-.051.353-.684-.034-.671a9.616,9.616,0,0,0-1.062.092"/><path class="ae" d="M6231.285-1482.519c-.25.035-.418.494-.153.666,1.117.718,2.868,1.352,3.307,2.806a.256.256,0,0,0,.3.193.366.366,0,0,0,.308-.46c-.5-1.656-2.32-2.346-3.593-3.164a.24.24,0,0,0-.165-.041"/><path class="af" d="M6167.025-1421.241l-.063.159c-.091.03-.182.059-.275.086a4.618,4.618,0,0,1-1.676,1.4,6.282,6.282,0,0,1-3.659,1.84,5.34,5.34,0,0,1-2.756-.293c.941.789,1.071,2.093.441,2.612,0,0,2.518.586,2.175,2.937s-3.691,2.929-3.691,2.929,3.3,1.891-.444,3.259c-.128.046-.257.088-.386.125.229,2.235.409,3.935.473,4.43a1.279,1.279,0,0,0,1.4,1.252,2.182,2.182,0,0,1-1.1.48,1.4,1.4,0,0,1-1.554-.662l-2.377-5.358.089.2,1.345,3.031.943,2.126a1.4,1.4,0,0,0,1.554.662,1.94,1.94,0,0,0,1.556-1.1l.408-1.025,7.594-19.089"/><g class="ag"><path class="ah" d="M6153.536-1406.048l2.377,5.358a1.4,1.4,0,0,0,1.554.662,2.182,2.182,0,0,0,1.1-.48,1.279,1.279,0,0,1-1.4-1.252c-.064-.495-.244-2.195-.473-4.43a6.246,6.246,0,0,1-.855.182,7.858,7.858,0,0,1-2.3-.04m3.078-12.727c-.037.031-.074.061-.112.09.106,0,.21,0,.311,0-.067-.027-.134-.056-.2-.088m-4.1.067a3.74,3.74,0,0,1-2.344,1.382,2.827,2.827,0,0,1-1.778-.309l1.374,3.1a12.555,12.555,0,0,1,2.867-2.624,12.025,12.025,0,0,1,1.4-.818,2.734,2.734,0,0,1-1.524-.728m8.675-1.374a4.312,4.312,0,0,1-2.692,1.586,3.464,3.464,0,0,1-.588.033,2.609,2.609,0,0,1,.684.411,5.34,5.34,0,0,0,2.756.293,6.282,6.282,0,0,0,3.659-1.84,3.87,3.87,0,0,1-1.137.348,3.188,3.188,0,0,1-2.682-.831m5.673-1.167c-.056.087-.116.171-.178.253.093-.027.184-.056.275-.086l.063-.159c-.054,0-.107,0-.16-.008"/></g><path class="t" d="M6166.283-1428.37a2.418,2.418,0,0,1-1.022-.066c-1.274-.378-1.28-1.94-1.174-2.966.009-.053.018-.1.022-.157.031-.192.049-.372.066-.557l.005-.034a7.75,7.75,0,0,0-2.273-6.7c3.968-.4,6.975,3.363,7.163,7.16a3.284,3.284,0,0,1-2.787,3.32m-5.055-11.288a10.314,10.314,0,0,0-6.515,3.888c3.317.549,5.743,3.5,5.735,7.407a9.574,9.574,0,0,1-.22,2,2.875,2.875,0,0,1,.783.9q.573-.045,1.1-.119a13.014,13.014,0,0,0,2.892-.723,25.446,25.446,0,0,1,3.364-1.407,1.219,1.219,0,0,1,.788.126c1.994,1.109,1.064,4.384-1.436,4.736a3.434,3.434,0,0,1-1.1-.032,2.787,2.787,0,0,1-2.4,2.079,2.581,2.581,0,0,1-2.3-.82,6.476,6.476,0,0,1-2.859,1.6,3.386,3.386,0,0,1-.947.282,2.966,2.966,0,0,1-.65.021,4.265,4.265,0,0,1-.857.952c.065.032.132.061.2.088a3.174,3.174,0,0,1,1.1.224,3.464,3.464,0,0,0,.588-.033,4.312,4.312,0,0,0,2.692-1.586,3.188,3.188,0,0,0,2.682.831,3.87,3.87,0,0,0,1.137-.348,4.618,4.618,0,0,0,1.676-1.4c.062-.082.122-.166.178-.253.053,0,.106.007.16.008a3.534,3.534,0,0,0,.586-.033,4.561,4.561,0,0,0,3.464-2.9,4.7,4.7,0,0,0,.334-1.719c0-.1,0-.205-.01-.305a3.563,3.563,0,0,0-1.372-2.66,10.924,10.924,0,0,0,.252-2.286c.01-5.407-4.046-9.217-9.051-8.514"/><path class="ai" d="M6161.907-1438.85a7.75,7.75,0,0,1,2.273,6.7l-.005.034c-.017.185-.035.365-.066.557,0,.052-.013.1-.022.157-.106,1.026-.1,2.588,1.174,2.966a2.418,2.418,0,0,0,1.022.066,3.284,3.284,0,0,0,2.787-3.32c-.188-3.8-3.195-7.559-7.163-7.16"/><path class="ai" d="M6168.37-1427.72a25.446,25.446,0,0,0-3.364,1.407,13.014,13.014,0,0,1-2.892.723q-.529.073-1.1.119a3.421,3.421,0,0,1,.422,1.691,4.219,4.219,0,0,1-2.365,3.75,6.476,6.476,0,0,0,2.859-1.6,2.581,2.581,0,0,0,2.3.82,2.787,2.787,0,0,0,2.4-2.079,3.434,3.434,0,0,0,1.1.032c2.5-.352,3.43-3.627,1.436-4.736a1.219,1.219,0,0,0-.788-.126"/><path class="s" d="M6153.331-1423.517a11.4,11.4,0,0,0,2.518-.629,22.331,22.331,0,0,1,2.936-1.227,1.058,1.058,0,0,1,.686.109c1.74.968.926,3.826-1.257,4.133a2.962,2.962,0,0,1-.957-.026,2.434,2.434,0,0,1-2.091,1.811,2.245,2.245,0,0,1-2-.716,5.406,5.406,0,0,1-2.687,1.429,2.047,2.047,0,0,1-2.006-.77c-1.047-1.338.02-3.688,1.836-3.943.06-.009.121-.015.183-.019a17.622,17.622,0,0,0,2.843-.152m1.794-5.722a6.766,6.766,0,0,0-1.979-5.848c3.461-.346,6.082,2.936,6.245,6.25a2.867,2.867,0,0,1-2.432,2.9,2.109,2.109,0,0,1-.89-.058c-1.109-.33-1.116-1.691-1.023-2.589l.022-.139c.022-.162.04-.323.057-.481l0-.033h0m-2.576-6.55c-4.367.613-7.918,4.936-7.927,9.65a8.773,8.773,0,0,0,.209,1.936,4.264,4.264,0,0,0-1.215,2.927,2.916,2.916,0,0,0,3.3,3.1,3.2,3.2,0,0,0,.651-.162,2.8,2.8,0,0,0,.83.7,2.827,2.827,0,0,0,1.778.309,3.74,3.74,0,0,0,2.344-1.382,2.734,2.734,0,0,0,1.524.728,6.848,6.848,0,0,1,2.038-.666c.146-.02.286-.033.423-.039.038-.029.075-.059.112-.09a4.265,4.265,0,0,0,.857-.952,2.966,2.966,0,0,0,.65-.021,3.386,3.386,0,0,0,.947-.282,4.219,4.219,0,0,0,2.365-3.75,3.421,3.421,0,0,0-.422-1.691,2.875,2.875,0,0,0-.783-.9,9.574,9.574,0,0,0,.22-2c.008-3.9-2.418-6.858-5.735-7.407-.1-.017-.208-.032-.313-.045a7.188,7.188,0,0,0-1.851.026"/><path class="aj" d="M6153.146-1435.087a6.766,6.766,0,0,1,1.979,5.848h0l0,.033c-.017.158-.035.319-.057.481l-.022.139c-.093.9-.086,2.259,1.023,2.589a2.109,2.109,0,0,0,.89.058,2.867,2.867,0,0,0,2.432-2.9c-.163-3.314-2.784-6.6-6.245-6.25"/><path class="aj" d="M6158.785-1425.373a22.331,22.331,0,0,0-2.936,1.227,11.4,11.4,0,0,1-2.518.629,17.622,17.622,0,0,1-2.843.152c-.062,0-.123.01-.183.019-1.816.255-2.883,2.6-1.836,3.943a2.047,2.047,0,0,0,2.006.77,5.406,5.406,0,0,0,2.687-1.429,2.245,2.245,0,0,0,2,.716,2.434,2.434,0,0,0,2.091-1.811,2.962,2.962,0,0,0,.957.026c2.183-.307,3-3.165,1.257-4.133a1.058,1.058,0,0,0-.686-.109"/><path class="ab" d="M6156.079-1418.646a6.848,6.848,0,0,0-2.038.666,12.025,12.025,0,0,0-1.4.818,12.555,12.555,0,0,0-2.867,2.624,11.862,11.862,0,0,0-2.589,7.255,1.433,1.433,0,0,1,.962-.46,3.757,3.757,0,0,1,.886-.011,12.976,12.976,0,0,0,4.508,1.706,7.858,7.858,0,0,0,2.3.04,6.246,6.246,0,0,0,.855-.182c.129-.037.258-.079.386-.125,3.74-1.368.444-3.259.444-3.259s3.349-.574,3.691-2.929-2.175-2.937-2.175-2.937c.63-.519.5-1.823-.441-2.612a2.609,2.609,0,0,0-.684-.411,3.174,3.174,0,0,0-1.1-.224c-.1,0-.205,0-.311,0-.137.006-.277.019-.423.039"/></g></g><path class="ak" d="M6667.63-1401.2a15.506,15.506,0,0,1-1.072,1.805c-1.828,2.706-7.533,4.053-10.172,5.965-1.7,1.235-3.259,2.928-4.829,4.328a29.95,29.95,0,0,0-5.25,5.382c-.887,1.342-1.061,4.088-2.516,5.033-4.033,2.6-6.534-2.3-3.365-5.334-9.309,6.6-18.937,12.765-27.862,19.845-4.224,3.35-12.7,12.457-18.274,13.541-4.715.921-6.344-1.757-9.273-4.891-8.894-9.527-24.647,6.307-30.9,12.857-5.312,5.571-13.141,7.779-20.736,9.262-4.117.8-15.733,4.888-18.258-.061,3.7-2.635,11.861-6.348,13.6-10.564,2.19-5.315-4.24-5.54-8.6-9.134-5.5-4.53-1.94-8.013,1.973-12.63.692-.816,2.573-2.236,3.147-3.337a1.68,1.68,0,0,0,.127-.288c.436-1.4-.494-2.652-.255-3.678.522-2.247-.569-3.008,2.458-4.391,2.086-.949,6.706.99,7.952-2.149,1.345-3.379-1.941-1.926-4.137-2.59-6.089-1.821-13.749-2.917-18.131-7.938,7.8-6.732,27.587,3.725,36.364,5.43,5.455,1.064,14.944,2.3,19.177-2.3,2.487-2.707.584-6.282,2.981-8.93,2.03-2.245,7.36-3.134,10.254-3.372,4.314-.362,5.545.65,7.811-2.918,1.036-1.628,1.043-4.384,2.64-5.618,2.93-2.257,8.1,1.034,10.772-2.315,2.5-3.143-1.622-7.564-.807-10.932,6.135,2.587,12.288,7.135,18.943,8.695,8.6,2.021,21.877.15,29.419-3.263l8.392,7.25C6663.563-1404.229,6670-1406.068,6667.63-1401.2Z"/><path class="al" d="M6667.63-1401.2a15.506,15.506,0,0,1-1.072,1.805c-1.828,2.706-7.533,4.053-10.172,5.965-1.7,1.235-3.259,2.928-4.829,4.328a29.95,29.95,0,0,0-5.25,5.382c-.887,1.342-1.061,4.088-2.516,5.033-4.033,2.6-6.534-2.3-3.365-5.334-9.309,6.6-18.937,12.765-27.862,19.845-4.224,3.35-12.7,12.457-18.274,13.541-4.715.921-6.344-1.757-9.273-4.891-8.894-9.527-24.647,6.307-30.9,12.857-5.312,5.571-13.141,7.779-20.736,9.262-4.117.8-15.733,4.888-18.258-.061,3.7-2.635,11.861-6.348,13.6-10.564,2.19-5.315-4.24-5.54-8.6-9.134-5.5-4.53-1.94-8.013,1.973-12.63.692-.816,2.573-2.236,3.147-3.337,1.25-.393,2.51-.775,3.794-1.073,1.26-.292,5.405-1.589,6.662-.729.954.645.425.833.627,1.99.273,1.525-.156,2.9.734,4.326.824,1.317,2.527,1.94,3.374,3.273-2.292,1.894-4.921,2.4-2.461,5.81,2.553,3.54,5.208,1.073,7.9-.794,4.227-2.942,8.85-5.092,13.314-7.589,3.188-1.789,8.258-7.74,12.392-7.074,2.151.342,1.258.875,1.485,2.973.291,2.679,1.147,7.981,3.891,8.893,2.81.933,7.595-.8,10.07-2.013,3.971-1.931,7.314-5.061,10.911-7.591,5.2-3.649,10.813-6.995,15.559-11.231,2.31-2.063,4.114-5.141,7.139-6.213,1.13,1.776,1.359,4.282,1.731,6.388,7.72,1.49,10.971-10.3,15.685-13.576,2.25-1.562,5.282-.449,7.9-1.232,3.564-1.071,6.721-3.036,9.955-4.776,1.923-1.039,4.191-1.085,6.045-2.028s1.884-1.965,4.039-1.074A3.617,3.617,0,0,1,6667.63-1401.2Z"/><path class="am" d="M6669.518-1440.238s8.8-7.366,10.358-14.444c0,0,3.676,14.748-5.29,18.129C6669.863-1434.772,6669.518-1440.238,6669.518-1440.238Z"/><path class="an" d="M6799.48-1349.737c.006-.006.006-.006,0-.011a34.469,34.469,0,0,0-.586-6.05c-.1-.575-.224-1.15-.367-1.72a25.933,25.933,0,0,0-3.186-7.435c-3.723-5.941-9.856-10.546-16.919-10.069a28.287,28.287,0,0,0-9.056,2.108,22.463,22.463,0,0,0-2.316,1.128,21.413,21.413,0,0,0-4.047,2.847,24.065,24.065,0,0,0-5.853,8.251,35.383,35.383,0,0,0-2.683,9.889,57.327,57.327,0,0,0-.465,9.9v.005a27.62,27.62,0,0,0,3.356,12.779,17.273,17.273,0,0,0,2.831,3.62c-.208-.2-1.434.542-2.968,1.609-.689.159-1.374.318-2.058.482a24.467,24.467,0,0,0-9.867,4.293c-.082.06-.153.131-.235.2a11.162,11.162,0,0,0-2.377,2.6,5.8,5.8,0,0,0-1.056,3.63c.514,4.671,4.588,7.173,7.594,7.94a5.458,5.458,0,0,0,2.7.153,17.632,17.632,0,0,0,2.436-1.237,10.049,10.049,0,0,1,3.291-.9c3.219-.389,6.472.022,9.68.027,3.417.011,6.872-.854,10.239-1.539,2.951-.607,9.358-1.883,10.825-4.911.734-1.511.328-3.291.246-4.972a12.649,12.649,0,0,1,1.7-6.959c1.265-2.151,3.138-3.876,4.55-5.935a21.591,21.591,0,0,0,2.88-6.483q.149-.525.28-1.051c.208-.86.388-1.73.553-2.6A48.3,48.3,0,0,0,6799.48-1349.737Z"/><path class="an" d="M6709-1367.837c-9.38,3.594-7.622,13.284-7.293,20.656q.565,12.707.1,25.428a7.434,7.434,0,0,1-.537,3.006,9.1,9.1,0,0,1-3.5,3.248l-7.375,4.775-3.167,2.051c-.8.521-2.18,6.788,9.164,5.828,6.523-.552,13.167-.05,19.622-.693,2.515-.251,5.386-.777,6.594-2.728,1.272-2.056.029-6.125-.023-8.467-.1-4.326.392-8.727.586-13.052a18.384,18.384,0,0,1,.862-5.7,43.6,43.6,0,0,1,2.881-5.2C6732.057-1348.146,6725.484-1374.154,6709-1367.837Z"/><path class="ao" d="M6733.728-1371.2a110.21,110.21,0,0,0,14.946-56.035,109.181,109.181,0,0,0,42.8-18.761s-6.131,17.586,3.563,28c0,0-15.33,6.1-14.646,20.861,0,0-13.375-.129-16.75,8.952C6752.407-1387.762,6742.785-1380.655,6733.728-1371.2Z"/><path class="an" d="M6795.037-1418.567h-.022a99.338,99.338,0,0,1-11.79-.749c-1.958-.191-3.894-.572-5.836-.862-1.928-.394-3.863-.731-5.77-1.21a115.635,115.635,0,0,1-11.317-3.232c-1.9-.647-3.807-1.347-5.676-2.1a110.413,110.413,0,0,0,37.18-18.82.573.573,0,0,0,.121-.773.57.57,0,0,0-.793-.149,107.863,107.863,0,0,1-42.523,17.2c-.032,0-.063-.005-.095,0a1.874,1.874,0,0,0-.531.13l-.064.025a2.092,2.092,0,0,0-.206.1c-.024.013-.05.023-.074.037s-.019.008-.029.014-.042.035-.065.051a1.768,1.768,0,0,0-.235.181l-.012.012a1.911,1.911,0,0,0-.622,1.384v.107a108.305,108.305,0,0,1-14.521,55.094,1.821,1.821,0,0,0,.652,2.483,1.821,1.821,0,0,0,2.493-.647,112.139,112.139,0,0,0,14.505-42.809c.752,2.317,1.6,4.6,2.559,6.828a83.35,83.35,0,0,0,4.857,9.553c.863,1.562,1.887,3.026,2.846,4.524.985,1.481,2.076,2.891,3.106,4.335a.571.571,0,0,0,.764.153.569.569,0,0,0,.183-.784l-.021-.035c-.927-1.491-1.91-2.941-2.785-4.456-.848-1.532-1.759-3.024-2.506-4.6a81.35,81.35,0,0,1-4.137-9.59,77.074,77.074,0,0,1-2.823-10c-.22-1.051-.411-2.119-.585-3.19.843,1.054,1.7,2.093,2.6,3.116a87.761,87.761,0,0,0,7.914,7.954,87.463,87.463,0,0,0,8.8,6.9,92.569,92.569,0,0,0,9.537,5.755.572.572,0,0,0,.755-.2.571.571,0,0,0-.183-.785l-.018-.011a91.063,91.063,0,0,1-9.02-6.216,85.539,85.539,0,0,1-8.168-7.238,85.221,85.221,0,0,1-7.189-8.157c-1.074-1.384-2.123-2.82-3.107-4.277,2.05.7,4.106,1.325,6.194,1.91a118.313,118.313,0,0,0,11.749,2.653c1.97.378,3.965.613,5.947.9,2,.185,3.982.46,5.986.544a100.616,100.616,0,0,0,11.994.086.572.572,0,0,0,.548-.559A.571.571,0,0,0,6795.037-1418.567Z"/><path class="ap" d="M6679.294-1432.131a6.961,6.961,0,0,1,2.99-3.487c.021.181.038.362.052.541.248,3.01.438,6.011.758,8.988a13.233,13.233,0,0,0-4.2,1.674C6678.5-1427.019,6678.291-1429.721,6679.294-1432.131Z"/><path class="ap" d="M6684.295-1418.673q.849,3.69,1.871,7.349a28.347,28.347,0,0,0-4.162,2.6q-.984-4.113-1.8-8.266A25.918,25.918,0,0,1,6684.295-1418.673Z"/><path class="aq" d="M6679.023-1423.568c-.045-.281-.088-.564-.131-.847a13.233,13.233,0,0,1,4.2-1.674,61.729,61.729,0,0,0,1.147,7.191c.017.075.037.15.054.225a25.918,25.918,0,0,0-4.087,1.688C6679.781-1419.173,6679.378-1421.367,6679.023-1423.568Z"/><path class="ar" d="M6820.14-1356.424c-.977-2.237-3.593-2.78-4.788-4.5-.22-.316-.446-.63-.67-.944-.342.394-.68.792-1.034,1.176h0a55.57,55.57,0,0,1-13.752,10.715c-1.631.911-3.3,1.752-5,2.509a69.262,69.262,0,0,1-7.966,2.957,83.391,83.391,0,0,1-13.224,2.837,104.911,104.911,0,0,1-10.807.873c-.129,0-.257.005-.386.009a102.431,102.431,0,0,1-12.7-.419,81.7,81.7,0,0,1-12.545-2.187,69.434,69.434,0,0,1-7.067-2.223c-.99-.372-1.944-.8-2.878-1.249a39.817,39.817,0,0,1-9.094-6.162,60.165,60.165,0,0,1-6.659-7.043c-1.518-1.866-2.959-3.806-4.336-5.778-.619-.887-1.222-1.783-1.819-2.684q-2.947-4.448-5.539-9.117-2.818-5.065-5.233-10.347c-1.849-4.049-3.51-8.183-5-12.373q-1.931-5.42-3.472-10.954a28.347,28.347,0,0,0-4.162,2.6q1.4,5.859,3.15,11.626,2.038,6.68,4.568,13.192c.347.9.682,1.8,1.042,2.689q1.57,3.885,3.348,7.7a118.107,118.107,0,0,0,5.654,10.7,89.092,89.092,0,0,0,6.679,9.694c1.209,1.52,2.467,3,3.793,4.428,1.142,1.228,2.337,2.39,3.566,3.507a61.471,61.471,0,0,0,9.309,6.963,66.385,66.385,0,0,0,10.408,5.148,72.515,72.515,0,0,0,12.764,3.668,77.511,77.511,0,0,0,12.936,1.353,79.12,79.12,0,0,0,14-.952,76.254,76.254,0,0,0,13.848-3.536c2.148-.772,4.26-1.63,6.315-2.6a72.984,72.984,0,0,0,7.525-4.108,72.221,72.221,0,0,0,15.128-12.6h0C6816.951-1352.842,6819.289-1355.381,6820.14-1356.424Z"/><path class="as" d="M6865.151-1318.577c-.147,1.106-.547,6.351-2.775,5.169-.931-.493-1.928-3.176-2.481-4.1q-1.175-1.954-2.338-3.9l-4.845-8.1c-2.848-4.758-5.388-9.741-9.281-13.765-6.253-6.472-14.143-12.134-23.292-13.147-.406-.049-.811-.082-1.221-.109a28.252,28.252,0,0,0-11.833,1.834c-.246.192-.5.383-.75.564q-1.314.985-2.688,1.884c-.307.208-.619.405-.925.6-.192.12-.384.241-.575.356q-1.314.813-2.667,1.555c-.268.148-.542.3-.816.432-.711.384-1.434.751-2.162,1.1-.532.258-1.068.5-1.61.745q-2.037.9-4.123,1.67c-.537.2-1.073.389-1.61.57-.405.142-.816.273-1.221.4-.334.11-.673.214-1.013.318-.536.164-1.078.323-1.621.476s-1.089.3-1.631.438q-1.635.428-3.3.772a1.084,1.084,0,0,1-.121.028c-1.047.221-2.1.417-3.156.6l-.358.058q-1.412.238-2.83.432c-.071.01-.14.023-.21.032-.133.018-.266.032-.4.05-.493.064-.986.127-1.48.183q-1.082.125-2.167.227c-.827.077-1.654.142-2.48.2-.811.06-1.627.1-2.437.142l-.816.033c-.345.016-.684.027-1.029.038-.569.016-1.139.027-1.714.038H6761c-.81.017-1.626.017-2.437.006-.268,0-.536-.006-.8-.011q-.954-.009-1.906-.049c-.4-.011-.8-.028-1.21-.05-.214,0-.427-.016-.646-.027l-.564-.033-1.21-.082c-.805-.055-1.61-.126-2.415-.2q-1.586-.147-3.17-.366c-1.051-.137-2.108-.3-3.154-.482q-.829-.145-1.655-.307c-.426-.083-.852-.171-1.277-.261l-.357-.076c-1.69-.365-3.368-.78-5.028-1.262-.482-.142-.963-.284-1.44-.438a.037.037,0,0,1-.027-.011c-.882-.273-1.758-.569-2.628-.881-.291-.1-.586-.214-.876-.323-.247-.093-.493-.186-.734-.29-.285-.11-.57-.23-.849-.351a35.857,35.857,0,0,1-4.851-2.568c-.6-.378-1.188-.777-1.769-1.188-.164-.115-.334-.235-.5-.356-.728-.531-1.44-1.089-2.135-1.664-.794-.662-1.559-1.361-2.31-2.074l-.3-.281c-.333-.322-.665-.646-.99-.976-.16-.162-.316-.326-.474-.49-.278-.288-.556-.574-.828-.868q-.642-.693-1.267-1.405-.437-.5-.855-1c-.262-.312-.52-.625-.777-.942-.307-.378-.608-.756-.909-1.139a3.266,3.266,0,0,1-.213-.274c-.745-.953-1.468-1.922-2.169-2.9-.356-.488-.7-.98-1.046-1.473-.191-.279-.388-.553-.58-.827-8.837-12.5-19.06-23.571-23.462-38.229-.071.033-.137.071-.208.11-5.88,3.033-8.093,7.2-23.358,9.79-2.716.46-16.647,2.236-14.329.624,2.349-1.634,3.78-2.391,8.593-3.708,6.786-1.856,12.071-12.1,3.886-5.967a39.266,39.266,0,0,1-18.255,7.578c-1.626-.279-3.274.219-4.884-1.073a9.017,9.017,0,0,1-2.508-3.674,16.5,16.5,0,0,1-1.413-6.866,11.532,11.532,0,0,1,1.353-5.109,13.307,13.307,0,0,1,2.568-3.4,13.794,13.794,0,0,1,6.455-3.515.23.23,0,0,1,.055-.011c.887-.2,1.8-.312,2.7-.427.3-.033.6-.071.9-.109a16.437,16.437,0,0,0,2.415-.477c3.685-1.062,6.537-3.975,8.848-7.036,2.453-3.246,4.621-7.484,7.8-10.014a19.652,19.652,0,0,1,7.255-3.449,23.737,23.737,0,0,1,6.494-.756,17.79,17.79,0,0,1,1.8.137c.137.016.274.033.416.055.318.043.63.093.947.158a19.47,19.47,0,0,1,6.751,2.629c.011.005.022.016.033.021.17.11.34.219.5.329a18.29,18.29,0,0,1,2,1.571,16.046,16.046,0,0,1,2.119,2.322c.011.011.017.022.033.038a15.835,15.835,0,0,1,2.048,3.723,15.627,15.627,0,0,1,.63,1.966c.033.121.06.241.087.362a15.872,15.872,0,0,1,.356,4.8c.422,1.385.844,2.743,1.353,3.986a40.29,40.29,0,0,0,10.118,14.274,66.671,66.671,0,0,0,31.067,15.714c.844.181,1.687.356,2.53.537l1.856.394c.619.132,1.232.263,1.851.389q2.678.574,5.355,1.139c.969.2,1.938.411,2.907.613s1.933.411,2.9.613l.076.017q4.748,1.009,9.494,2.015c1.106.235,2.207.465,3.313.7s2.239.476,3.356.711c3.006.635,8.23,1.654,13.984,2.563,1.254.2,2.536.389,3.822.569,3.806.537,7.677.986,11.175,1.21a53.1,53.1,0,0,1,8.471,1.309c1.686.394,3.362.849,5.026,1.341a72.61,72.61,0,0,1,12.621,5.054,74.012,74.012,0,0,1,11.668,7.463l.268.2a67.565,67.565,0,0,1,10.447,10.255c1.325,1.621,2.579,3.3,3.74,5.048,4.446,6.7,9.352,12.73,11.454,20.686.334,1.276.652,2.595.871,3.931A17.068,17.068,0,0,1,6865.151-1318.577Z"/><path class="e" d="M6661.535-1424.735c.359.981,7.434,1.505,7.016-.6s-4.107-3.866-5.9-3.51S6660.8-1426.75,6661.535-1424.735Z"/><path class="at" d="M6661.22-1425.624a1.6,1.6,0,0,0,1.769,1.4,1.605,1.605,0,0,0,1.1-1.97,1.607,1.607,0,0,0-1.769-1.4A1.606,1.606,0,0,0,6661.22-1425.624Z"/><path class="an" d="M6682.273-1434.377a5.962,5.962,0,0,1,3.285-3.742,17.093,17.093,0,0,1,7.727-1.556,29.533,29.533,0,0,0,7.894-.788,29.617,29.617,0,0,0,3.208-1.286c.523-.229,1.195-.438,1.615-.088.443.369.241,1.053-.014,1.57a22.973,22.973,0,0,1-7.741,8.776c-.927.626-1.9,1.189-2.877,1.744a20.591,20.591,0,0,1-4.8,2.185c-3.468.922-7.122-.385-8.166-4.059A5.458,5.458,0,0,1,6682.273-1434.377Z"/><path class="as" d="M6714.468-1363.406c-9.954,3.814-8.088,14.1-7.739,21.921q.6,13.486.109,26.986a7.9,7.9,0,0,1-.57,3.19c-.709,1.475-2.242,2.5-3.711,3.447a84.9,84.9,0,0,0-7.826,5.068c-7.962,6.5,3.653,8.26,6.364,8.362a153.212,153.212,0,0,0,20.824-.736c2.67-.266,5.716-.825,7-2.9,1.351-2.182.031-6.5-.024-8.985-.1-4.592.416-9.262.622-13.852a19.532,19.532,0,0,1,.915-6.046,46.261,46.261,0,0,1,3.057-5.517C6738.936-1342.509,6731.96-1370.11,6714.468-1363.406Z"/><path class="ar" d="M6719.85-1348.905a168.763,168.763,0,0,0,49.1-74,167.21,167.21,0,0,0,71.28-6.287s-17.5,22.519-8.529,42.373c0,0-25.228,1.353-31.457,23.1,0,0-19.345-6.73-28.686,4.8C6755.057-1363.8,6737.618-1358.192,6719.85-1348.905Z"/><path class="as" d="M6831.975-1387.6l-.032-.01a152.24,152.24,0,0,1-16.756-6.833c-2.751-1.233-5.377-2.73-8.056-4.1-2.608-1.512-5.254-2.945-7.791-4.571a177.16,177.16,0,0,1-14.861-10.21c-2.551-1.947-5.074-3.98-7.516-6.068a168.992,168.992,0,0,0,63.517-9,.835.835,0,0,0,.529-1.013.832.832,0,0,0-1.027-.574,165.263,165.263,0,0,1-70.2,4.259c-.037-.011-.069-.029-.107-.038a2.748,2.748,0,0,0-.793-.069c-.033,0-.066,0-.1.006a2.74,2.74,0,0,0-.341.044c-.015,0-.03,0-.045.006s-.048,0-.071.009-.028,0-.041.006c-.081.019-.152.053-.229.078l-.013.005a2.713,2.713,0,0,0-.43.181,2.832,2.832,0,0,0-.288.17c-.051.035-.1.076-.144.114-.025.019-.047.044-.072.065s-.078.066-.114.1a2.766,2.766,0,0,0-.409.47,2.747,2.747,0,0,0-.265.469c-.025.059-.071.1-.092.162l-.046.133,0,.011a165.986,165.986,0,0,1-48.076,72.9,2.657,2.657,0,0,0-.255,3.737,2.656,2.656,0,0,0,3.746.266,171.579,171.579,0,0,0,42.189-55.493c-.068,3.919.036,7.832.353,11.725a127.343,127.343,0,0,0,2.349,16.233c.484,2.686,1.25,5.311,1.9,7.954.7,2.632,1.59,5.21,2.375,7.811a.832.832,0,0,0,.986.568.831.831,0,0,0,.617-1l-.014-.057c-.619-2.616-1.341-5.2-1.873-7.828-.485-2.638-1.082-5.249-1.4-7.91a124.434,124.434,0,0,1-1.337-15.947,118.046,118.046,0,0,1,.771-15.9c.211-1.788.483-3.589.784-5.382.75,2.091,1.541,4.163,2.393,6.229a134.54,134.54,0,0,0,7.565,15.412,134.04,134.04,0,0,0,9.367,14.314,141.856,141.856,0,0,0,11,13.026.834.834,0,0,0,1.139.074.83.83,0,0,0,.11-1.17l-.019-.024a139.573,139.573,0,0,1-10.072-13.422,131.173,131.173,0,0,1-8.336-14.495,130.532,130.532,0,0,1-6.469-15.355c-.929-2.657-1.789-5.382-2.533-8.106,2.728,2.1,5.5,4.1,8.344,6.048a181.253,181.253,0,0,0,15.73,9.612c2.67,1.516,5.447,2.835,8.178,4.227,2.8,1.25,5.547,2.622,8.411,3.727a154.317,154.317,0,0,0,17.348,6.014.833.833,0,0,0,1.019-.519A.832.832,0,0,0,6831.975-1387.6Z"/><path class="an" d="M6630.7-1408.094s-4.382-11.581,1.18-13c3.25-.829,5.083,2.137,11.964.545S6635.367-1406.436,6630.7-1408.094Z"/><path class="au" d="M6675.831-1437.233s10.011-8.376,11.778-16.424c0,0,4.18,16.77-6.015,20.615C6676.224-1431.017,6675.831-1437.233,6675.831-1437.233Z"/><path class="as" d="M6804.8-1344.76c-2.21-8.938-10.252-18.173-20.1-17.5a25.747,25.747,0,0,0-15.42,6.083c-5.137,4.594-7.7,11.51-8.539,18.139-1.091,8.609-1,19.783,5.724,26.308-.209-.2-1.436.539-2.966,1.611q-1.033.235-2.061.481a30.633,30.633,0,0,0-7.029,2.466l-.011-.007s-7.263,2.819-8.489,9.363,18.023,4.849,18.023,4.849c3.215-.39,6.47.023,9.676.031,3.419.009,6.874-.854,10.243-1.544,2.952-.6,9.354-1.88,10.822-4.91.733-1.512.33-3.292.246-4.97a12.614,12.614,0,0,1,1.706-6.959c1.262-2.152,3.135-3.879,4.546-5.937a21.654,21.654,0,0,0,2.884-6.481c.335-1.2.6-2.425.829-3.647A41.244,41.244,0,0,0,6804.8-1344.76Z"/><g class="z"><g class="av"><path class="aw" d="M7316.06-1527.385a3.222,3.222,0,0,0-2.61,2.052c-1.61,3.659-.009,5.023-.009,5.023v0a7.617,7.617,0,0,1,1.008-.369c5.916.051,6.086,7.493,6.086,7.493l-.017,9.164-.2.21a14.786,14.786,0,0,1,1.173,1.878l.87-.122.027-.088a16.159,16.159,0,0,1,3.118-.755c.417-.058.858-.1,1.312-.124a13.08,13.08,0,0,0,2.532-2.007l-.138.022a3.908,3.908,0,0,1-4.014-2.221l1.3-.551c-8.117-2.483-4.977-12.29-4.977-12.29l.482,1.14c1.473-7.631-3.717-7.177-3.717-7.177l1.205-.635a6.666,6.666,0,0,0-3.433-.645"/><path class="ax" d="M7319.618-1512.716l-5.192,4.82-.026-.017-.006,3.171.857-.191-.018-.774s4.458-4.18,4.484-4.268-.1-2.741-.1-2.741"/><path class="ax" d="M7315.251-1504.933l-.857.191-.809.181c-.038,1.379-.11,3.959-.153,5.242a8.011,8.011,0,0,0,1.082.409l0,1.648,0-1.648c.31-.18.6-.369.877-.564-.039-1.264-.107-4.089-.14-5.459"/><path class="ax" d="M7309.249-1511.258s-.136,2.689-.11,2.77,4.471,3.009,4.471,3.009l-.025.918.809-.181.006-3.171-5.151-3.345"/><path class="ay" d="M7300.831-1428.034a16.372,16.372,0,0,0-.644,7.507c.475,4.389,1.071,9.771-.01,14.882l.021-.015a7.985,7.985,0,0,1,3.379-1.62c2.346-.329,3.028,1.928,3.223,3.46a42.211,42.211,0,0,1,.278-6.3c.477-3.309,2.343-7.068,2.822-11.345a24.938,24.938,0,0,0-.466-7.454,10.3,10.3,0,0,1-4.433,1.933,5.287,5.287,0,0,1-4.17-1.052"/><path class="az" d="M7308.17-1452c-.767,2.151-2,4.071-3.693,4.457-.193.044-.384.079-.572.1a7.324,7.324,0,0,1-2.229-.036c-.069,1.062-.109,2.155-.13,3.239-.075,3.927.129,7.734.24,9.458a6.326,6.326,0,0,1,2.682-1.05,7.859,7.859,0,0,1,5.271,1.374,103.444,103.444,0,0,0,1.815-10.85c.342-2.86.558-5.342.674-6.84a30.136,30.136,0,0,1-4.058.143"/><path class="ba" d="M7304.468-1435.831a6.326,6.326,0,0,0-2.682,1.05,7.939,7.939,0,0,0-.992.791,15.406,15.406,0,0,0-.311,5.63,2.881,2.881,0,0,0,.348.326,5.287,5.287,0,0,0,4.17,1.052,10.3,10.3,0,0,0,4.433-1.933l.166-.118a21.339,21.339,0,0,0,.4-5.234s-.092-.074-.263-.19a7.859,7.859,0,0,0-5.271-1.374"/><path class="bb" d="M7314.461-1470.564l-3.43.482a57.778,57.778,0,0,0-1.915,12.821,15.912,15.912,0,0,1-.946,5.257,30.136,30.136,0,0,0,4.058-.143c.664-.063,1.4-.146,2.2-.259l.034-18.158"/><path class="bb" d="M7296.844-1453.149l-6.271,2.473q-.077.267-.141.583c-.746,3.565.8,5.368.8,5.368a1.482,1.482,0,0,0,1.177.527.548.548,0,0,1,.406.176l.019.018a.522.522,0,0,0,.452.147.835.835,0,0,0,.675-.828,13.883,13.883,0,0,1,.861-5.235.765.765,0,0,1,.595-.5.569.569,0,0,1,.655.474,6.973,6.973,0,0,1,.061,2,.6.6,0,0,0,.648.692.66.66,0,0,0,.149-.041l.177-.074a.862.862,0,0,0,.433-.548,6.747,6.747,0,0,0-.677-5.2l-.02-.032"/><path class="bb" d="M7293.022-1472.736l-.342,5.494a25.528,25.528,0,0,1,5.94,2.371l1.515-8.044-7.113.179"/><path class="bb" d="M7302.858-1488.026a16.308,16.308,0,0,1-6.724,2.332c-.12.017-.236.033-.348.047-.044.005-.088.008-.131.01l-1.675,7.618,7.635.135,1.383-7.35,0-.043-.145-2.749"/><path class="ax" d="M7308.643-1502.05a21.314,21.314,0,0,0-1.1,2.078l6.956,7.11.009-4.4,0-1.648a8.011,8.011,0,0,1-1.082-.409c-.015.449-.026.74-.032.763l0,0c-.122.017-3.643-2.652-4.754-3.5"/><path class="ay" d="M7289.686-1467.909l.375,12.852-.873,4.926,1.385-.545,6.271-2.473.865-.34-.427-2.964,2.344-7.781c-.323-.225-.66-.437-1.006-.637a25.528,25.528,0,0,0-5.94-2.371,30.116,30.116,0,0,0-2.994-.667"/><path class="ba" d="M7314.466-1473.432l-7.973,1.12,0,2.868,4.542-.638,3.43-.482.005-2.868"/><path class="ay" d="M7328-1431.988a7.063,7.063,0,0,1-4.229,2.276,8.345,8.345,0,0,1-4.378-.654,26.429,26.429,0,0,0-.429,7.582c.5,4.139,2.388,7.357,2.879,10.523a41.8,41.8,0,0,1,.3,6.515c.136-1.565.735-4.353,3.268-4.709a6.342,6.342,0,0,1,3.344.637c-1.1-4.791-.533-10.337-.085-14.853.425-4.231-.319-6.511-.672-7.317"/><path class="az" d="M7320.68-1453.761a33.5,33.5,0,0,1-4.2,1.022c.125,1.465.353,3.871.705,6.612a88.637,88.637,0,0,0,1.871,10.315,10.53,10.53,0,0,1,5.323-2.923,5.226,5.226,0,0,1,2.623.278c.1-1.756.282-5.619.193-9.522-.026-1.023-.069-2.048-.138-3.039a8.254,8.254,0,0,1-2.138.622c-.189.027-.38.046-.573.056-1.69.09-2.913-1.485-3.671-3.421"/><path class="ba" d="M7324.384-1438.735a10.53,10.53,0,0,0-5.323,2.923c-.169.166-.261.266-.261.266a19.742,19.742,0,0,0,.423,5.111c.055.024.111.047.166.069a8.345,8.345,0,0,0,4.378.654,7.063,7.063,0,0,0,4.229-2.276,4.407,4.407,0,0,0,.34-.42,14.364,14.364,0,0,0-.337-5.547,5.51,5.51,0,0,0-.992-.5,5.226,5.226,0,0,0-2.623-.278"/><path class="bb" d="M7314.463-1471.391l-.036,18.985c.746-.1,1.432-.218,2.058-.333a33.5,33.5,0,0,0,4.2-1.022,13.731,13.731,0,0,1-.927-4.995c.084-2.95-1.087-10.386-1.875-12.288l1.674-.236-5.091.716,0-.827"/><path class="ay" d="M7322.434-1471.685l-2.882.405-1.674.236c.788,1.9,1.959,9.338,1.875,12.288a13.731,13.731,0,0,0,.927,4.995c.758,1.936,1.981,3.511,3.671,3.421.193-.01.384-.029.573-.056a8.254,8.254,0,0,0,2.138-.622,11.646,11.646,0,0,0,3.053-1.969,39.061,39.061,0,0,0-7.681-18.7"/><path class="ay" d="M7311.031-1470.082l-4.543.638h-.006a52.79,52.79,0,0,0-7.762,20.869,8.216,8.216,0,0,0,2.956,1.1,7.324,7.324,0,0,0,2.229.036c.188-.026.379-.061.572-.1,1.695-.386,2.926-2.306,3.693-4.457a15.912,15.912,0,0,0,.946-5.257,57.778,57.778,0,0,1,1.915-12.821"/><path class="bb" d="M7332.554-1460.254l-.044.051a8.073,8.073,0,0,0-1.724,5.264.643.643,0,0,0,.326.534l.164.068a.575.575,0,0,0,.275.029.83.83,0,0,0,.662-.725,7.655,7.655,0,0,1,.462-2.022.785.785,0,0,1,.6-.5.56.56,0,0,1,.646.469,13.058,13.058,0,0,1-.18,5.217.614.614,0,0,0,.644.8.673.673,0,0,0,.349-.166l.02-.017a.8.8,0,0,1,.4-.2l.047-.005c.056,0,.119-.008.188-.017a1.82,1.82,0,0,0,1.1-.567,7.815,7.815,0,0,0,1.881-5.434,6.63,6.63,0,0,0-.061-.878l-5.76-1.9"/><path class="bb" d="M7340.333-1480.433l-7.174,1.835-.069,6.68a33.046,33.046,0,0,1,6.441-2.682l.8-5.833"/><path class="bb" d="M7334.912-1494.278c0,.347,0,.674-.023.974a2.5,2.5,0,0,1-1.955,2.323c-.208.036-.43.071-.664.1a15.446,15.446,0,0,1-4.4.048l3.035,7.885,7.845-2.336-3.84-9"/><path class="ax" d="M7320.316-1503.81c-.929.967-4.769,4.955-4.9,4.973l0,0c0-.02-.014-.258-.026-.635-.275.195-.567.384-.877.564l0,1.648-.009,4.4,6.987-9.07a14.786,14.786,0,0,0-1.173-1.878"/><path class="ba" d="M7325.5-1502.9a16.159,16.159,0,0,0-3.118.755l-.027.088-.87.122-6.987,9.07-6.956-7.11-.877.123-.02-.082a14.722,14.722,0,0,0-3.117.122c-2.372.334-5.53,1.34-7.342,4.223a14.973,14.973,0,0,0-2.266,8.18,1.678,1.678,0,0,0,1.731,1.769c.043,0,.087-.005.131-.01.112-.014.228-.03.348-.047a16.308,16.308,0,0,0,6.724-2.332l.145,2.749,0,.043c-.063.544-.591,6.206,3.5,12.922l7.973-1.121,7.973-1.12c4.328-8.272,3.534-13.952,3.534-13.952l.156-2.791a8.017,8.017,0,0,0,1.743.467,15.446,15.446,0,0,0,4.4-.048c.234-.033.456-.068.664-.1a2.5,2.5,0,0,0,1.955-2.323c.018-.3.027-.627.023-.974a10.853,10.853,0,0,0-2.078-6.458c-1.485-1.957-3.89-2.382-6.018-2.285-.454.021-.9.066-1.312.124"/><path class="ay" d="M7342.676-1475.419s-1.3.255-3.145.819a33.046,33.046,0,0,0-6.441,2.682c-.386.218-.766.448-1.135.689l.8,7.7-1.027,3.005.822.27,5.76,1.9,1.6.527-.175-4.651,2.937-12.936"/><path class="ba" d="M7322.439-1474.553l-7.973,1.121,0,2.042v.826l5.091-.716,2.882-.4.005-2.868"/><path class="bb" d="M7325.409-1410.455c-2.533.356-3.132,3.144-3.268,4.709a8.77,8.77,0,0,0-.034,1.054s-1.392,5.364,4.088,4.594a12.864,12.864,0,0,0,2.193-.532,8.129,8.129,0,0,1,1.589-.389,11.312,11.312,0,0,1,3.922.236,9.782,9.782,0,0,0,2.743.4,1.244,1.244,0,0,0,.568-.214c2.477-1.775-1.429-6.185-8.451-9.217l-.006,0a6.342,6.342,0,0,0-3.344-.637"/><path class="bb" d="M7303.577-1407.28a7.985,7.985,0,0,0-3.379,1.62l-.021.015c-6.985,5.07-10.86,10.606-8.384,11.662a1.006,1.006,0,0,0,.541.049,12.2,12.2,0,0,0,2.779-1.207,13.123,13.123,0,0,1,4-1.387,7.571,7.571,0,0,1,1.5-.065,11.965,11.965,0,0,0,2.109-.093c5.582-.784,4.152-5.794,4.152-5.794a8.937,8.937,0,0,0-.074-1.34c-.195-1.532-.877-3.789-3.223-3.46"/><path class="ay" d="M7340-1485.653l-1.253.373-7.844,2.336-.737.22,1.124,4.6,1.865-.477,7.174-1.834.651-.166-.979-5.054"/><path class="ay" d="M7292.859-1478.038l-1,5.332,1.161-.029,7.113-.179,1.405-.036,1.141-4.914-1.067-.019-7.635-.135-1.121-.02"/><path class="ay" d="M7314.449-1520.677l-.023,12.781,5.192-4.82s.126,2.653.1,2.741-4.484,4.268-4.484,4.268l.018.774c.033,1.37.1,4.195.14,5.459.012.377.021.615.026.635l0,0c.127-.018,3.967-4.006,4.9-4.973l.2-.21.017-9.164s-.17-7.442-6.086-7.493"/><path class="ay" d="M7314.449-1520.677a7.617,7.617,0,0,0-1.008.369c-4.94,2.221-5.115,8.84-5.115,8.84l-.017,9.164.334.254c1.111.845,4.632,3.514,4.754,3.5l0,0c.006-.023.017-.314.032-.763.043-1.283.115-3.863.153-5.242l.025-.918s-4.445-2.928-4.471-3.009.11-2.77.11-2.77l5.151,3.345.026.017.023-12.781"/></g></g></g></svg>