<svg xmlns="http://www.w3.org/2000/svg" width="569.665" height="536.622" viewBox="0 0 569.665 536.622"><defs><style>.a{fill:#f5ad43;}.b,.c,.e{fill:#fff;}.b{font-size:30px;}.b,.e,.h{font-family:BPGArial, BPG Arial;}.d{fill:#f7c042;}.e{font-size:28px;}.f{font-family:BPGArial;}.g{fill:none;stroke:#966a29;stroke-miterlimit:10;stroke-width:0.393px;}.h{font-size:23px;}.i{fill:#8f6ef6;}.j{fill:#6eb0d2;}</style></defs><g transform="translate(-2216.788 -2146.508)"><path class="a" d="M2543.261,2219.305l-222.22-.737q-9.505,9.146-19.009,18.3l-32.574-.039q-10.162-8.832-20.325-17.665l-23.834-.03a12.136,12.136,0,0,1-2.014-.605,7.1,7.1,0,0,0-6.388,7.042l-.109,91.086a7.124,7.124,0,0,0,7.115,7.132l58.493.07c6.67,5.8,13.292,12.789,19.962,18.584l32.574.04c6.006-5.78,10.861-11.563,16.867-17.345l191.335-.494a7.123,7.123,0,0,0,7.132-7.115l.109-91.084A7.126,7.126,0,0,0,2543.261,2219.305Z" transform="translate(0 63.403)"/><path class="a" d="M2601.1,2387.419H2354.726q-9.494,9.159-18.986,18.319h-31.929l-20.347-17.64H2225.2a12.468,12.468,0,0,1-2.016-.6,7.1,7.1,0,0,0-6.378,7.048v52a7.123,7.123,0,0,0,7.123,7.122h25.42c6.677,5.79,28.238,11.578,34.914,17.366h32.574q9-8.681,18-17.366H2601.1a7.123,7.123,0,0,0,7.125-7.122v-52A7.124,7.124,0,0,0,2601.1,2387.419Z" transform="translate(0.02 212.095)"/><text class="b" transform="translate(2313.745 2346.803)"><tspan x="-46.802" y="0">forever</tspan></text><g transform="translate(2546.879 2614.618)"><path class="c" d="M2412.312,2395.451l-12.943,15.5h25.887Z" transform="translate(-2386.137 -2395.451)"/><path class="c" d="M2423.763,2402.784a16.964,16.964,0,0,1-31.431,8.857,12.474,12.474,0,0,0,21.222-8.857Z" transform="translate(-2392.332 -2388.995)"/></g><path class="a" d="M2216.811,2267.538v237.846h67.626l-.974-12.062H2255.1a5.843,5.843,0,0,1-5.844-5.844V2286.906a5.843,5.843,0,0,1,5.844-5.844h28.676l-17.835-13.524Z" transform="translate(0.02 106.554)"/><g transform="translate(2219.168 2146.508)"><path class="d" d="M2778.528,2178.178H2414.175c-16.565-11.527-52.4-32.083-101.3-31.664-47.446.408-80.328,25.981-93.643,34.821-.061.047-.111.1-.2.165a6.711,6.711,0,0,0-.98,3.488v87.081a6.811,6.811,0,0,0,6.811,6.811h24.306q9.573,8.3,19.148,16.6h31.143q8.6-8.3,17.206-16.6h461.86a6.811,6.811,0,0,0,6.811-6.811v-87.081A6.81,6.81,0,0,0,2778.528,2178.178Z" transform="translate(-2218.054 -2146.508)"/><text class="e" transform="translate(59.341 83.126)"><tspan x="-33.469" y="0">when</tspan><tspan class="f"><tspan x="0" y="33"></tspan></tspan></text><text class="e" transform="translate(207.595 83.126)"><tspan x="-36.969" y="0">space</tspan></text><text class="e" transform="translate(448.568 85.721)"><tspan x="-75.093" y="0">key pressed</tspan><tspan class="f"><tspan x="0" y="33"></tspan></tspan></text><rect class="g" width="216.664" height="56.815" rx="5.22" transform="translate(122.095 50.776)"/><path class="c" d="M2373.531,2184.745h30.616l-14.565,14.565Z" transform="translate(-2081.175 -2112.844)"/></g><g transform="translate(2253.292 2495.172)"><path class="a" d="M2626.365,2331.929H2336.407l-18.27,17.627h-31.344l-19.58-16.974H2244.28a11.766,11.766,0,0,1-1.939-.581,6.831,6.831,0,0,0-6.14,6.782v87.651a6.855,6.855,0,0,0,6.856,6.854h24.462L2286.793,2450h31.344l17.319-16.709h290.909a6.854,6.854,0,0,0,6.854-6.854v-87.651A6.854,6.854,0,0,0,2626.365,2331.929Z" transform="translate(-2236.201 -2331.929)"/><text class="e" transform="translate(48.621 60.041)"><tspan x="-24.896" y="0">wait</tspan></text><text class="e" transform="translate(305.447 57.101)"><tspan x="-52.254" y="0">seconds</tspan></text><rect class="c" width="84.221" height="70.511" rx="18.749" transform="translate(107.236 14.363)"/><text class="h" transform="translate(147.824 53.101)"><tspan x="-6.396" y="0">1</tspan></text></g><g transform="translate(2253.86 2392.38)"><path class="i" d="M2586.329,2277.264h-250.4l-18.127,17.491h-31.1l-19.428-16.844H2244.52a11.481,11.481,0,0,1-1.924-.576,6.779,6.779,0,0,0-6.093,6.73v86.97a6.8,6.8,0,0,0,6.8,6.8h24.272q9.562,8.29,19.125,16.579h31.1l17.183-16.579h251.34a6.8,6.8,0,0,0,6.8-6.8v-86.97A6.8,6.8,0,0,0,2586.329,2277.264Z" transform="translate(-2236.503 -2277.264)"/><text class="e" transform="translate(48.994 59.55)"><tspan x="-21.786" y="0">say</tspan></text><g transform="translate(115.507 15.92)"><rect class="j" width="190.743" height="73.264" rx="19.481"/><text class="e" transform="translate(84.956 41.69)"><tspan x="-60.04" y="0" xml:space="preserve"> loudness</tspan></text></g></g></g></svg>