<svg xmlns="http://www.w3.org/2000/svg" width="419.794" height="478.425" viewBox="0 0 419.794 478.425"><defs><style>.a{fill:#eadff1;}.b,.c{fill:#d8a35d;}.b{fill-rule:evenodd;}.d{fill:#d19442;}.e{fill:#947dce;}.f{fill:#ffc84f;}.g{opacity:0.15;}.h{fill:#62548a;}.i{opacity:0.3;}.j{opacity:0.5;}.k{fill:#999;}.l{fill:#ccc;}.m{fill:gray;}</style></defs><g transform="translate(-5901.549 -260.909)"><g transform="translate(5901.549 260.909)"><path class="a" d="M5950.2,555.8c-8.065-10.759-13.05-22.853-16.45-35.665-10.253-39-11.173-78.308-29.35-113.717-9.547-19.659,6.4-43.414,25.564-44.634,64.575-4.322,137.53-19.133,175.472-78.624,10.741-14.7,25.7-21.1,41.85-22.107s33.491,3.363,49,10.192c13.842,6.7,27.965,10.517,42.3,16.6,50.419,20.977,47.714,86.31,21.991,129.247-6.638,11.467-8.75,24.224-10.834,36.721a166.766,166.766,0,0,0-2.491,30.813,150.575,150.575,0,0,0,27.8,85.744c4.417,9.541,6.965,19.864,4.629,31.182-8.4,38.687-41.163,73.695-79.277,79.423-28.664,4.506-50.063-10.512-68.809-30.746-6.249-6.744-12.2-14.069-18.034-21.443a141.616,141.616,0,0,0-16.418-22.665c-29.512-32.273-74.7-50.314-116.779-40.631C5968.35,564.678,5957.987,561.591,5950.2,555.8Z" transform="translate(-5901.549 -260.909)"/></g><g transform="translate(6015.756 305.56)"><g transform="translate(0 238.812)"><g transform="translate(0 10.478)"><path class="b" d="M6049.727,613.667s-5.914,2.595-8.341,7.034c-1.444,2.638-2.123,2.318-2.5,2.719-1.27,1.329,2.221.862,3.833-1.24,1.31-1.708,5-1.591,6.116-2.5s3.659-3.913,3.519-4.943S6049.727,613.667,6049.727,613.667Z" transform="translate(-6038.608 -613.667)"/></g><g transform="translate(1.944)"><path class="b" d="M6060.381,601.092c-.6.759-9.369,7.9-11.615,12.685s-5.132,12.1-6.782,14.394c-1.941,2.695-1.023,3.886,1.551.9a51.775,51.775,0,0,0,5.083-7.07c.2-.487-1.4,2.578-3.395,5.819-2.12,3.444-4.632,7.1-4.036,7.528,1.157.825,7.932-8.854,8.82-10.671a50.743,50.743,0,0,1-2.407,4.764c-1.212,2.1-2.941,4.392-2.658,5.068.445,1.064,4.731-3.811,7.082-8.27.182-.027-.13,1.576-3.277,6.685-.316.513-.585,2.015.913.5,3.155-3.186,4.746-4.324,6.927-9.807,2.127-5.346,3.174-11.718,5.887-15.135Z" transform="translate(-6040.942 -601.092)"/></g></g><g transform="translate(139.47 310.889)"><path class="c" d="M6224.391,687.591s-10.347,106.762-5.947,108.6c7.893,3.349,38.8,14.3,4.725,11.893-17.506,1.056-16.222-2.856-16.5-6.17-.224-2.707.291-98.254-.429-105.684-.161-1.664-.259-2.67-.259-2.67Z" transform="translate(-6205.986 -687.591)"/></g><g transform="translate(73.394 309.357)"><path class="c" d="M6147.009,687.285s4.484,106.762.086,108.6c-7.893,3.349-38.8,14.3-4.725,11.893,17.506,1.056,16.221-2.856,16.5-6.17.223-2.707,2.209-23.26,2.928-30.69.162-1.664,3.592-85.163,3.592-85.163Z" transform="translate(-6126.689 -685.753)"/></g><g transform="translate(118.932 32.699)"><path class="d" d="M6190.436,356.427s-.912,10.173,5.363,15.8-14.461,0-14.461,0,3.858-9.743,2.994-15.8S6190.436,356.427,6190.436,356.427Z" transform="translate(-6181.337 -353.736)"/></g><g transform="translate(113.749 9.399)"><ellipse class="c" cx="10.97" cy="14.968" rx="10.97" ry="14.968"/></g><g transform="translate(11.079 44.086)"><path class="e" d="M6237.095,456.585c-.233,3.675-4.033,20.323-8.783,35.122-3.892,12.149-8.433,23.056-12.165,24.565-8.283,3.333-70.819,7.908-83.677,1.775-.3-.225-.625-.467-.934-.733-4.824-3.925-10.058-11.674-12.832-18.932,0-.008-7.391-20.84-8.9-25.081a1.155,1.155,0,0,0-.042-.108c-.05-.167-.107-.325-.166-.475-.017-.058-.042-.108-.059-.167-7.782,26.573-28.489,84.935-45.238,103.425-1.758,1.942-9.849-8.949-9.849-8.949s-13.523-69.836,21.756-143.638c16.607-34.739,46.247-50.588,65.17-54.8,8.191-1.825,14.374-1.467,16.633.483a12.265,12.265,0,0,0,7.657,2.975,16.588,16.588,0,0,0,4.3-.392,21.385,21.385,0,0,0,4.558-1.55c.7-.325,1.108-.558,1.108-.558a44.465,44.465,0,0,1,11.583.692C6230.028,378.625,6237.478,450.411,6237.095,456.585Z" transform="translate(-6051.904 -367.401)"/></g><g transform="translate(72.046 191.574)"><path class="f" d="M6141.8,545.1a6.767,6.767,0,0,0,3.838,1.771c9.019.177,47.97.844,69.1-.371,7.454-.429,12.689-1.091,13.609-2.1a.833.833,0,0,1-.006.086c-.055,1.165-.723,14.5-1.661,31.977-1.852,34.5,1.715,83.919,5.881,98.918.9,3.237-47.5-1.667-47.5-1.667-.135-35.606,3.243-98.115,1.062-100.917-2.654-3.409-6.958,51.574-11.894,97.584-19.165,5-49.514,1.964-49.162,0C6129.24,647.051,6141.8,545.1,6141.8,545.1Z" transform="translate(-6125.071 -544.402)"/></g><g class="g" transform="translate(68.716 133.92)"><path d="M6121.074,490.526c.017.058.042.108.058.167.059.15.117.308.167.475.017.033.025.067.042.108,1.508,4.241,8.9,25.073,8.9,25.081,2.774,7.258,8.007,15.007,12.832,18.932-3.275-11.857-13.483-46.23-13.091-60.078C6128.031,488.56,6121.074,490.518,6121.074,490.526Z" transform="translate(-6121.074 -475.211)"/></g><g class="g" transform="translate(165.194 99.577)"><path d="M6240.495,434s-20.725,61.865,36.775,88.139l1.168.777-.3-14.551s-27.094-37.807-27.2-38.78S6240.495,434,6240.495,434Z" transform="translate(-6236.858 -433.996)"/></g><g class="g" transform="translate(100.552 44.086)"><path d="M6184.3,374.509c.033.992-.491,1.642-2.083,1.425-4.966-.675-10.575-.533-14.649,1.333a3.459,3.459,0,0,1-3.349-.142c-2.609-1.525-4.226-6.075-4.867-8.091a1.408,1.408,0,0,1-.067-.442c8.191-1.825,14.375-1.467,16.633.483a12.264,12.264,0,0,0,7.657,2.975A6.746,6.746,0,0,1,6184.3,374.509Z" transform="translate(-6159.28 -367.401)"/></g><g transform="translate(72.369 417.26)"><path class="h" d="M6160.135,816.367c.2-1.541-10.763-1.4-12.005-.145s-23.1,5.763-22.666,12.254,30.726,1.388,32.889,1.234S6159.734,819.4,6160.135,816.367Z" transform="translate(-6125.458 -815.247)"/></g><g transform="translate(139.479 415.314)"><path class="h" d="M6206.062,813.478c-.2-1.541,12.924.414,14.165,1.667s20.352,6.451,19.92,12.942-30.725,1.387-32.889,1.234S6206.462,816.507,6206.062,813.478Z" transform="translate(-6205.997 -812.911)"/></g><g class="i" transform="translate(124.305 191.574)"><g transform="translate(0 2.775)"><path d="M6188.221,547.768l-.435-.036S6187.94,547.743,6188.221,547.768Z" transform="translate(-6187.786 -547.732)"/></g><g class="j" transform="translate(0.435)"><path d="M6188.308,547.213c11.607.927,36.978-.714,36.978-.714,7.453-.429,12.689-1.091,13.61-2.1a.724.724,0,0,1-.007.086c-.055,1.165-.723,14.5-1.661,31.977a8.541,8.541,0,0,1-1.22-.141,9.5,9.5,0,0,1-6.142-4.365,21.047,21.047,0,0,1-2.39-4.989C6218.821,550.5,6192.027,547.547,6188.308,547.213Z" transform="translate(-6188.308 -544.402)"/></g></g><g transform="translate(111.212 0)"><g transform="translate(2.315 4.173)"><g transform="translate(3.081)"><path class="f" d="M6182.538,331.105s18.993,10.53,13.356-6.377C6191.995,313.032,6169.585,323.568,6182.538,331.105Z" transform="translate(-6178.55 -319.503)"/></g><g transform="translate(0 0.755)"><path class="f" d="M6184.675,327.217s-10.626,6.305-9.6,12.631c0,0-2.344-18.884,8.221-19.358s14.658.545,13.719,20.513C6197.015,341,6193.944,325.118,6184.675,327.217Z" transform="translate(-6174.853 -320.409)"/></g></g><g transform="translate(10.299)"><path class="f" d="M6184.434,319.625s.533-5.884,6.366-5.05,8.333,4.166,9.166,7.5,1.667,5.833,2.5,5.833c0,0-2.5,2.5-3.333,1.667,0,0,2.163,5.993-.585,10.912,0,0-1.081-7.579-5.248-8.413S6184.434,319.625,6184.434,319.625Z" transform="translate(-6184.434 -314.494)"/></g><g transform="translate(0 4.548)"><path class="f" d="M6182.907,320.484s-4.167-2.5-8.333,3.333l-2.5,5s.833.833,2.5,0c0,0-.76,5.871.037,9.185l2.463-10.018Z" transform="translate(-6172.074 -319.952)"/></g></g><g transform="translate(97.242 102.493)"><path class="k" d="M6155.4,453.04l10.566,67.686a7.229,7.229,0,0,0,8.25,6.025l46.2-7.216a2.245,2.245,0,0,0,.325-.067,7.2,7.2,0,0,0,5.691-8.183L6215.858,443.6a7.217,7.217,0,0,0-8.249-6.016l-44.055,6.874-2.142.333A7.217,7.217,0,0,0,6155.4,453.04Z" transform="translate(-6155.308 -437.495)"/></g><g transform="translate(99.708 102.493)"><path class="l" d="M6158.356,452.641l10.566,67.686a7.216,7.216,0,0,0,8.249,6.016l44.055-6.874a7.2,7.2,0,0,0,5.69-8.183L6216.351,443.6a7.216,7.216,0,0,0-8.249-6.016l-44.055,6.874A7.2,7.2,0,0,0,6158.356,452.641Z" transform="translate(-6158.268 -437.495)"/></g><g transform="translate(128.971 141.952)"><circle class="m" cx="5.576" cy="5.576" r="5.576"/></g><g class="g" transform="translate(91.471 147.528)"><path d="M6234.535,509.8s1.083-24.881-65.578-16.549,50,15.832,50,15.832Z" transform="translate(-6148.383 -491.542)"/></g><g transform="translate(84.952 44.031)"><g transform="translate(0 103.289)"><g transform="translate(0 4.029)"><path class="b" d="M6173.859,503.336c-.79-.265-9.127-5.258-13.646-5.675s-11.279-.606-13.612-1.27c-2.746-.78-3.438.31-.276,1.517a44.6,44.6,0,0,0,7.2,2.039c.453.018-2.492-.378-5.694-1.042-3.4-.7-7.094-1.664-7.263-1.058-.328,1.176,9.474,3.818,11.2,4a43.524,43.524,0,0,1-4.553-.551c-2.055-.365-4.409-1.092-4.872-.666-.729.672,4.463,2.708,8.752,3.3.075.138-1.311.356-6.359-.693-.507-.106-1.8.116-.138.884,3.5,1.617,4.881,2.571,9.948,2.728,4.942.154,10.4-.862,13.95.329Z" transform="translate(-6140.56 -496.129)"/></g><g transform="translate(10.19)"><path class="b" d="M6164.43,497.3s-3.826-4.019-8.122-4.681c-2.554-.394-2.494-1.037-2.929-1.229-1.445-.636-.047,2.046,2.122,2.735,1.764.559,2.748,3.572,3.808,4.211s4.23,1.812,5.023,1.4S6164.43,497.3,6164.43,497.3Z" transform="translate(-6152.788 -491.293)"/></g></g><g transform="translate(26.266)"><path class="e" d="M6250.4,380.881c15.7,14.044,26.556,27.087,33.33,69.994,3.438,21.769,2.543,43.538,1.647,55.018a13.563,13.563,0,0,1-9.322,11.794c-49.175,16.221-103.192-30.442-103.192-30.442-2.815-1.048,2.854-11.091,2.854-11.091,27.188-.282,48.019.552,69.684,8.884-.109-.051-21.3-39.849-24.165-50.829-7.509-28.793-32.227-53.71-25.83-64.995C6197.616,365.312,6234.57,366.715,6250.4,380.881Z" transform="translate(-6172.081 -367.336)"/></g></g><g transform="translate(84.535 191.389)"><g transform="translate(0 0)"><rect class="e" width="129.094" height="0.833" transform="translate(0 128.507) rotate(-84.534)"/></g><g transform="translate(12.288 2.57)"><rect class="e" width="126.857" height="0.833" transform="translate(0 126.269) rotate(-84.479)"/></g><g transform="translate(26.273 2.575)"><rect class="e" width="125.797" height="0.834" transform="translate(0 125.388) rotate(-85.38)"/></g><g transform="translate(47.892 2.605)"><rect class="e" width="0.833" height="25.974" transform="translate(0 0.008) rotate(-0.576)"/></g><g transform="translate(58.291 2.602)"><rect class="e" width="127.95" height="0.833" transform="translate(0 127.928) rotate(-88.951)"/></g><g transform="translate(70.948 2.527)"><rect class="e" width="129.003" height="0.833" transform="translate(0 129.001) rotate(-89.706)"/></g><g transform="translate(82.386 2.522)"><rect class="e" width="0.833" height="129.766" transform="translate(0 0.016) rotate(-1.096)"/></g></g><g transform="translate(87.097 205.223)"><path class="e" d="M6199.866,563.056c-25.748,0-56.272-1.42-56.733-1.443l.04-.832c.691.032,69.37,3.227,87.4.006l.147.82C6224.64,562.693,6212.859,563.056,6199.866,563.056Z" transform="translate(-6143.133 -560.782)"/></g><g transform="translate(85.572 216.395)"><path class="e" d="M6171.97,579.984a97.866,97.866,0,0,1-30.666-5.015l.291-.781c.23.087,23.342,8.562,47.149,3.17l.184.812A76.867,76.867,0,0,1,6171.97,579.984Z" transform="translate(-6141.304 -574.189)"/></g><g transform="translate(132.731 217.931)"><path class="e" d="M6221.973,579.87a100.31,100.31,0,0,1-24.073-3.035l.226-.8c.217.061,21.967,6.049,40.825.954l.218.8A66.492,66.492,0,0,1,6221.973,579.87Z" transform="translate(-6197.899 -576.033)"/></g><g transform="translate(84.334 225.834)"><path class="e" d="M6170.056,592.091c-18.82,0-30.1-5.763-30.238-5.836l.387-.738c.172.091,17.67,9.015,45.532,4.436l.136.822A97.541,97.541,0,0,1,6170.056,592.091Z" transform="translate(-6139.818 -585.517)"/></g><g transform="translate(82.978 237.021)"><path class="e" d="M6172.029,604.989c-16.406,0-33.622-5.184-33.839-5.25l.244-.8c.27.083,27.265,8.209,45.667,4.016l.184.812A55.789,55.789,0,0,1,6172.029,604.989Z" transform="translate(-6138.189 -598.942)"/></g><g transform="translate(81.41 248.233)"><path class="e" d="M6166.784,620.362c-20.862,0-30.362-7.219-30.476-7.309l.513-.656c.138.107,14.1,10.669,45.577,5.894l.125.824A104.973,104.973,0,0,1,6166.784,620.362Z" transform="translate(-6136.308 -612.398)"/></g><g transform="translate(79.806 261.009)"><path class="e" d="M6162.915,634.621a67.894,67.894,0,0,1-28.531-6.153l.386-.738c.209.109,21.242,10.851,46.2,3.474l.236.8A64.385,64.385,0,0,1,6162.915,634.621Z" transform="translate(-6134.384 -627.73)"/></g><g transform="translate(78.207 272.779)"><path class="e" d="M6160.685,648.96c-18.889,0-28.1-6.342-28.22-6.424l.483-.68c.148.1,15.191,10.422,46.488,4.375l.157.818A99.641,99.641,0,0,1,6160.685,648.96Z" transform="translate(-6132.465 -641.856)"/></g><g transform="translate(76.636 284.787)"><path class="e" d="M6157.057,662.492c-15.728,0-26.33-5.41-26.478-5.488l.385-.738c.2.107,20.782,10.591,47.155,2.043l.257.792A68.929,68.929,0,0,1,6157.057,662.492Z" transform="translate(-6130.579 -656.266)"/></g><g transform="translate(75.242 294.248)"><path class="e" d="M6152.845,674.593c-17.048,0-23.573-6.02-23.939-6.37l.578-.6c.121.116,12.469,11.424,47.358,2.922l.2.81A102.673,102.673,0,0,1,6152.845,674.593Z" transform="translate(-6128.906 -667.621)"/></g><g transform="translate(73.809 304.843)"><path class="e" d="M6154.744,686.62c-16.769,0-27.414-5.47-27.558-5.546l.387-.738c.195.1,19.865,10.192,47.921,2.665l.216.8A80.756,80.756,0,0,1,6154.744,686.62Z" transform="translate(-6127.186 -680.336)"/></g><g transform="translate(133.572 229.74)"><path class="e" d="M6218.551,594.968c-14.429,0-19.368-3.893-19.643-4.12l.53-.643c.091.074,9.423,7.336,39.715,1.854l.148.82A117.283,117.283,0,0,1,6218.551,594.968Z" transform="translate(-6198.908 -590.205)"/></g><g transform="translate(133.9 241.03)"><path class="e" d="M6219.578,607.6c-13.428,0-20.184-3.05-20.276-3.093l.353-.756c.127.059,13.023,5.858,38.833,1.224l.147.82A107.992,107.992,0,0,1,6219.578,607.6Z" transform="translate(-6199.302 -603.753)"/></g><g transform="translate(133.332 253.6)"><path class="e" d="M6219.357,622.285a80.372,80.372,0,0,1-20.737-2.647l.24-.8c.2.059,19.9,5.851,39.468,0l.238.8A67.343,67.343,0,0,1,6219.357,622.285Z" transform="translate(-6198.62 -618.839)"/></g><g transform="translate(132.998 264.056)"><path class="e" d="M6218.965,635.962a56.563,56.563,0,0,1-20.745-3.808l.338-.762c.19.085,19.321,8.374,40.05,0l.313.772A53.042,53.042,0,0,1,6218.965,635.962Z" transform="translate(-6198.22 -631.387)"/></g><g transform="translate(132.706 275.505)"><path class="e" d="M6218.432,648.78a68.9,68.9,0,0,1-20.562-2.859l.276-.786a74.836,74.836,0,0,0,40.979-.008l.225.8A77.542,77.542,0,0,1,6218.432,648.78Z" transform="translate(-6197.869 -645.127)"/></g><g transform="translate(132.378 286.514)"><path class="e" d="M6217.11,662.213c-12.532,0-19.53-3.044-19.635-3.091l.341-.76c.153.068,15.632,6.778,41.972-.023l.208.807A91.551,91.551,0,0,1,6217.11,662.213Z" transform="translate(-6197.475 -658.339)"/></g><g transform="translate(132.358 296.289)"><path class="e" d="M6220.1,675.34c-13.628,0-22.517-4.464-22.644-4.53l.382-.741c.181.093,18.464,9.258,42.854.979l.269.789A64.682,64.682,0,0,1,6220.1,675.34Z" transform="translate(-6197.451 -670.07)"/></g><g transform="translate(131.974 308.443)"><path class="e" d="M6220.807,688.746a82.507,82.507,0,0,1-23.816-3.3l.268-.789a85.022,85.022,0,0,0,44.736.512l.218.8A81.912,81.912,0,0,1,6220.807,688.746Z" transform="translate(-6196.991 -684.656)"/></g></g><g transform="translate(6277.334 462.334)"><path class="e" d="M6362.736,509.127l-1.592-.412a5.48,5.48,0,0,0-2.842.3,23.925,23.925,0,0,1,.6,3.1,13.942,13.942,0,0,1,.875,1.932,3.639,3.639,0,0,1-1.12,1.6,9.2,9.2,0,0,1-1.978,1.427c-.729.392-1.216.523-1.458.394a.83.83,0,0,1-.211-.16,6.722,6.722,0,0,1-.788-2.916,18.634,18.634,0,0,0-.94-4.09,7.85,7.85,0,0,1-.752-1.93,6.814,6.814,0,0,1,1.237-2.556A15.513,15.513,0,0,1,6355.9,503a.935.935,0,0,1,1.237-.215,5.174,5.174,0,0,0,1.307.682l3.015.14a19.189,19.189,0,0,1,5.545,1.16,4.634,4.634,0,0,1-.414,2.346,5.889,5.889,0,0,1-1.242,2.169,1.236,1.236,0,0,1-1.3.275A10.949,10.949,0,0,0,6362.736,509.127Z" transform="translate(-6352.528 -502.639)"/><g transform="translate(3.729 8.508)"><path class="e" d="M6396.421,519.969q-3.467-.551-18.923,2.713-14.591,3.1-15.81,3.9a1.329,1.329,0,0,0-.658.383,6.361,6.361,0,0,1-.66.507,2.58,2.58,0,0,1-1.456.3,1.337,1.337,0,0,1-1.1-.459,7.1,7.1,0,0,1-.712-2.869,5.641,5.641,0,0,1,.156-3,1.721,1.721,0,0,1,.884-.87q2.514-.706,16.2-3.616,15.331-3.267,19.685-3.678a6.1,6.1,0,0,1,1.09-.435,2.5,2.5,0,0,1,1.739.631,2.315,2.315,0,0,1,.269.346,7.839,7.839,0,0,1,.06,3.036q-.207,2.629-.649,3.048A.175.175,0,0,1,6396.421,519.969Z" transform="translate(-6357.004 -512.85)"/></g><g transform="translate(24.091 26.214)"><path class="e" d="M6395.924,545.325a15.646,15.646,0,0,1-2.916,1.989,7.644,7.644,0,0,1-2.586,1.132,12.233,12.233,0,0,1-1.887-.849,17.921,17.921,0,0,0-4.067-1.183,6.888,6.888,0,0,1-2.841-.9.6.6,0,0,1-.148-.22q-.176-.375.453-1.452a8.612,8.612,0,0,1,1.514-1.917,3.322,3.322,0,0,1,1.689-1q.185-.057.928.439a3.771,3.771,0,0,0,.957.534q.7.11,3.061.756a5.842,5.842,0,0,0,.474-2.853q-.195-.776-.359-1.58-.028-.154-.367-1.335a1.229,1.229,0,0,1,.313-1.316,5.9,5.9,0,0,1,2.231-1.128,4.407,4.407,0,0,1,2.394-.261,18.458,18.458,0,0,1,.841,5.566q.021,1.54.013,3.05a5.245,5.245,0,0,0,.612,1.341A.931.931,0,0,1,6395.924,545.325Z" transform="translate(-6381.44 -534.098)"/></g></g><g transform="translate(6020.108 296.659)"><path class="e" d="M6076.631,346.485a4.472,4.472,0,0,1,.354,2.938,2.74,2.74,0,0,1-1.659,2.083q-.938.376-5.59-.3t-5.144-1.562a4.9,4.9,0,0,1-.331-1.133,4.793,4.793,0,0,0-.3-1.077l-11.393-23.891q-.624-1.307-3.456-.657-3.17.675-4.137-.331a3.856,3.856,0,0,1-.8-1.086,5.869,5.869,0,0,1-.159-3.555,33.594,33.594,0,0,0,.61-3.991l-.751-5.088a3.79,3.79,0,0,1,2.162-4.1,10.4,10.4,0,0,1,5.6-.853q3.518.347,4.521,2.452l17.984,37.713a3.31,3.31,0,0,0,1.232,1.192A3.371,3.371,0,0,1,6076.631,346.485Z" transform="translate(-6043.831 -303.813)"/></g><g transform="translate(6027.915 621.094)"><g transform="translate(0 0)"><path class="e" d="M6060.9,731.979a3.457,3.457,0,0,1-1.618,1.614,2.114,2.114,0,0,1-2.056-.017q-.675-.39-2.478-3.541t-1.5-3.87a3.731,3.731,0,0,1,.531-.742,3.626,3.626,0,0,0,.51-.7l9.095-18.3q.5-1-1.246-2.413-1.92-1.6-1.769-2.671a2.971,2.971,0,0,1,.28-1,4.546,4.546,0,0,1,2.085-1.79,25.441,25.441,0,0,0,2.716-1.53l2.735-2.879a2.925,2.925,0,0,1,3.523-.639,8.03,8.03,0,0,1,3.185,2.995q1.463,2.3.663,3.915L6061.193,729.3a2.557,2.557,0,0,0-.137,1.317A2.608,2.608,0,0,1,6060.9,731.979Z" transform="translate(-6053.2 -693.166)"/></g></g><g transform="translate(6245.983 616.819)"><path class="e" d="M6322.6,726.85a3.46,3.46,0,0,1-1.616,1.614,2.117,2.117,0,0,1-2.057-.017q-.676-.391-2.479-3.541t-1.5-3.87a3.783,3.783,0,0,1,.532-.741,3.712,3.712,0,0,0,.509-.7l9.1-18.3q.5-1-1.247-2.412-1.92-1.606-1.77-2.672a2.994,2.994,0,0,1,.281-1,4.552,4.552,0,0,1,2.084-1.79,25.756,25.756,0,0,0,2.716-1.529l2.735-2.88a2.927,2.927,0,0,1,3.524-.639,8.036,8.036,0,0,1,3.184,2.995q1.463,2.3.662,3.916L6322.9,724.171a2.568,2.568,0,0,0-.138,1.317A2.606,2.606,0,0,1,6322.6,726.85Z" transform="translate(-6314.904 -688.036)"/></g><g transform="translate(5950.603 436.905)"><g transform="translate(4.268 19.499)"><path class="e" d="M5984.83,506.435a1.831,1.831,0,0,1,.685.994,1.118,1.118,0,0,1-.205,1.067,6.7,6.7,0,0,1-2.075.951q-1.808.637-2.154.411a1.993,1.993,0,0,1-.333-.347,1.954,1.954,0,0,0-.315-.331l-8.644-6.469q-.473-.354-1.373.418-1.015.845-1.556.665a1.58,1.58,0,0,1-.494-.241,2.387,2.387,0,0,1-.73-1.254,13.462,13.462,0,0,0-.538-1.557l-1.234-1.695a1.544,1.544,0,0,1,0-1.892,4.24,4.24,0,0,1,1.859-1.37,2.076,2.076,0,0,1,2.1.028l13.646,10.21a1.336,1.336,0,0,0,.67.2A1.384,1.384,0,0,1,5984.83,506.435Z" transform="translate(-5965.541 -495.523)"/></g><g transform="translate(18.1)"><path class="e" d="M6001.43,483.034a1.824,1.824,0,0,1,.685.994,1.115,1.115,0,0,1-.2,1.067,6.731,6.731,0,0,1-2.075.951q-1.811.637-2.154.411a1.923,1.923,0,0,1-.334-.347,2.046,2.046,0,0,0-.313-.331l-8.646-6.468q-.473-.355-1.372.417-1.017.845-1.557.665a1.586,1.586,0,0,1-.494-.241,2.4,2.4,0,0,1-.73-1.254,13.432,13.432,0,0,0-.537-1.557l-1.235-1.7a1.545,1.545,0,0,1,0-1.892,4.245,4.245,0,0,1,1.859-1.37,2.076,2.076,0,0,1,2.1.028l13.646,10.211a1.359,1.359,0,0,0,.672.2A1.38,1.38,0,0,1,6001.43,483.034Z" transform="translate(-5982.141 -472.122)"/></g><g transform="translate(13.842 9.968)"><path class="e" d="M5981.392,484.345q.829-.606,2.651.2a15.663,15.663,0,0,1,3.677,2.506,22.335,22.335,0,0,1,4.008,4.614q2.426,3.722.9,5.461a2.826,2.826,0,0,1-.73.557c-.541.288-.835.448-.881.48q-.532.267-1.706.927-.935.542-3.29-.647a22.03,22.03,0,0,1-4.517-3.13,18.544,18.544,0,0,1-3.5-3.9q-1.359-2.11-.839-3.421a.615.615,0,0,1,.092-.137.719.719,0,0,1,.322-.182c.15-.048.239-.107.263-.177a3.742,3.742,0,0,1,.653-1.059,6.428,6.428,0,0,1,1.388-1.122Q5981.24,484.456,5981.392,484.345Zm-.71,2.8q-.645.739.655,2.608a17.992,17.992,0,0,0,2.844,3.055,20.885,20.885,0,0,0,3.332,2.341q1.915,1.1,2.185.795.524-.6-1.019-2.627a27.03,27.03,0,0,0-3.568-3.687,20.007,20.007,0,0,0-2.78-2.1Q5981.019,486.762,5980.682,487.146Z" transform="translate(-5977.03 -484.084)"/></g><g transform="translate(0 28.071)"><path class="e" d="M5964.577,506.113q.8-.644,2.657.078a15.629,15.629,0,0,1,3.787,2.336,22.3,22.3,0,0,1,4.213,4.427q2.591,3.607,1.152,5.414a2.864,2.864,0,0,1-.706.589q-.79.469-.858.519-.52.293-1.662,1-.909.582-3.316-.5a22.082,22.082,0,0,1-4.653-2.922,18.514,18.514,0,0,1-3.668-3.732q-1.455-2.046-.995-3.38a.58.58,0,0,1,.4-.337c.148-.055.233-.118.255-.189a3.706,3.706,0,0,1,.6-1.087,6.44,6.44,0,0,1,1.335-1.185Q5964.43,506.232,5964.577,506.113Zm-.583,2.831q-.611.767.773,2.576a18,18,0,0,0,2.979,2.922,20.889,20.889,0,0,0,3.436,2.187q1.964,1.015,2.218.695.5-.624-1.137-2.578a26.983,26.983,0,0,0-3.732-3.521,20.033,20.033,0,0,0-2.872-1.974Q5964.313,508.544,5963.995,508.945Z" transform="translate(-5960.418 -505.81)"/></g></g><g transform="translate(6250.845 295.266)"><g transform="translate(0 0)"><path class="e" d="M6355.162,311.283q1.868,1.822.622,6.729a39.794,39.794,0,0,1-4.728,10.272,56.667,56.667,0,0,1-9.873,11.99q-8.3,7.648-13.3,4.572a7.241,7.241,0,0,1-1.7-1.6q-1.424-1.851-1.574-2-.9-1.222-3.042-3.884-1.752-2.114.234-8.519a56.057,56.057,0,0,1,5.938-12.639,47.13,47.13,0,0,1,8.287-10.4q4.717-4.3,8.222-3.548a1.711,1.711,0,0,1,.381.173,1.8,1.8,0,0,1,.59.729c.187.358.371.553.556.585a9.52,9.52,0,0,1,2.929,1.191,16.361,16.361,0,0,1,3.4,3Q6354.817,310.951,6355.162,311.283Zm-7.321-.6q-2.125-1.306-6.26,2.741a45.678,45.678,0,0,0-6.456,8.417,53.11,53.11,0,0,0-4.461,9.338q-1.954,5.266-1.069,5.81,1.727,1.061,6.155-3.66a68.773,68.773,0,0,0,7.734-10.5,51.2,51.2,0,0,0,4.1-7.854Q6348.946,311.368,6347.841,310.688Z" transform="translate(-6320.738 -302.14)"/></g></g></g></svg>