<svg xmlns="http://www.w3.org/2000/svg" width="125.26" height="152.441" viewBox="0 0 125.26 152.441"><defs><style>.a{fill:#1d1f1d;}.b,.d,.e,.f,.g,.h,.l{fill:none;}.b,.d,.e,.f,.g,.h{stroke:#08402d;stroke-miterlimit:10;}.b{stroke-width:2.801px;}.c{fill:#08402d;}.d{stroke-width:1.831px;}.e{stroke-width:1.571px;}.f{stroke-width:1.815px;}.g{stroke-width:1.236px;}.h{stroke-width:2.323px;}.i{fill:#0a4f38;}.j{fill:#072e20;}.k{fill:#083626;}.m{fill:#0a422f;}.n{fill:#c5e3c5;}.o{fill:#313431;}.p,.q,.r,.s,.t{fill:#cfe652;}.p{opacity:0.57;}.q{opacity:0.59;}.r{opacity:0.36;}.s{opacity:0.56;}</style></defs><g transform="translate(-724.826 -375.167)"><g transform="translate(724.826 375.167)"><path class="a" d="M752.994,462.035s7.585-7.36,34.95-3.945c0,0,9.865,1.409,10.147,3.945,0,0-12.4,12.825-24.663,8.6S752.994,468.377,752.994,462.035Z" transform="translate(-719.509 -359.687)"/><path class="b" d="M740.433,421.785s-1.764,39.64,28.745,55.014" transform="translate(-721.884 -366.368)"/><path class="c" d="M768.436,474.884l-1.755.654c-.467-1.737-.915-3.408-1.335-5.126a43.661,43.661,0,0,1-1.037-5.209c-.065-.44-.094-.906-.14-1.344-.065-.392-.1-.785-.187-1.2-.169-.821-.355-1.643-.579-2.474l-.252-.981c-.346-1.325-.7-2.67-1.064-4-.458-1.737-.944-3.464-1.438-5.182l-.252-.9c-.373-1.308-.747-2.6-1.121-3.912l-.531-1.839-.206-.7-2.147-7.432,1.5-.477.281-.093a.441.441,0,0,0,.037.1q1.639,4.888,3.146,9.832c1.008,3.324,1.943,6.675,2.829,10.045.243.971.485,1.942.71,2.923.158.728.317,1.456.448,2.193.158.859.289,1.746.41,2.633.056.448.065.925.1,1.392.018.42.008.831.046,1.251A29.221,29.221,0,0,0,768.436,474.884Z" transform="translate(-718.868 -363.936)"/><path class="d" d="M777.924,433.573s-3.884,20.407-5.261,29.472c-.763,5.026-2.507,11.341-2.507,11.341" transform="translate(-716.27 -364.144)"/><path class="e" d="M758.877,403.287a55.923,55.923,0,0,1,9.928,21.2c2.779,12.487-.076,56.649-.076,56.649" transform="translate(-718.399 -369.86)"/><path class="f" d="M781.664,402.358c.312-.188,7.879,5.663,7.736,20.042-.2,19.764-16.211,58.682-16.211,58.682" transform="translate(-715.698 -370.036)"/><path class="g" d="M793.349,442.955s-4.717-4.264-8.05,10.619-4.9,26.444-4.9,26.444" transform="translate(-714.336 -362.48)"/><path class="h" d="M809.286,409.654c.989.322,9.592,21.395-2.464,45.136-6.813,13.415-29.3,24.38-29.3,24.38" transform="translate(-714.881 -368.658)"/><g transform="translate(0 48.495)"><path class="i" d="M724.864,433.253c.025.336.061.672.1,1a12.916,12.916,0,0,1,9.683-5.241,1.834,1.834,0,0,1,1.05.175.694.694,0,0,1,.285.921,1.039,1.039,0,0,1-.591.335,21.324,21.324,0,0,0-7.981,3.887,4.529,4.529,0,0,0-1.457,1.941,4.766,4.766,0,0,0,.9,3.857,16.265,16.265,0,0,1,9.384-7.326c.139-.04.314-.069.406.042.114.137,0,.339-.124.47a15.623,15.623,0,0,1-4.309,2.828,8.522,8.522,0,0,0-3.828,3.367c-.772,1.545-.448,3.754,1.09,4.539a14.125,14.125,0,0,1,6.951-7.4.59.59,0,0,1,.572-.052.483.483,0,0,1,.156.442c-.055.8-.817,1.322-1.472,1.778a16.19,16.19,0,0,0-4.505,4.779,2.9,2.9,0,0,0-.5,1.268c-.081,1.091.922,1.92,1.821,2.545.843-2.261,1.814-4.684,3.863-5.957a.9.9,0,0,1,.647-.183.671.671,0,0,1,.388.854,2.046,2.046,0,0,1-.628.829,24.968,24.968,0,0,0-2.772,3.1,2.413,2.413,0,0,0-.609,1.331c-.021.881.826,1.5,1.551,2s1.5,1.272,1.267,2.121a2.243,2.243,0,0,0,2.6-1.312,5.865,5.865,0,0,0,.29-3.144,8.5,8.5,0,0,1,.018-3.179c1.7,2.208,1.272,5.327.759,8.067,1.167-.177,2.476-.461,3.1-1.466a3.54,3.54,0,0,0,.313-2.32,11.013,11.013,0,0,0-1.709-4.607,6.33,6.33,0,0,1-1.178-2.23.914.914,0,0,1,.155-.8c.4-.421,1.1,0,1.463.459,2.067,2.614,2.048,6.255,1.933,9.586a2.733,2.733,0,0,0,2.465-1.373,5.115,5.115,0,0,0,.623-2.865c-.116-3.332-2.031-6.372-4.41-8.706a2.419,2.419,0,0,1-.681-.9.78.78,0,0,1,.354-.972,1.067,1.067,0,0,1,.949.259,10.65,10.65,0,0,1,3.865,5.754,25.523,25.523,0,0,1,.833,6.99,4.541,4.541,0,0,0,3.638-4.073,9.122,9.122,0,0,0-1.511-5.586,16.025,16.025,0,0,0-4.322-4.866,2.083,2.083,0,0,1-.709-.7.652.652,0,0,1,.219-.873.887.887,0,0,1,.7.076,10.546,10.546,0,0,1,4.92,4.753,31.382,31.382,0,0,1,2.44,6.514c1.163-1.337,2.4-2.868,2.3-4.638a5.569,5.569,0,0,0-1.683-3.33c-1.883-2.042-4.339-3.457-6.438-5.276-.253-.22-.506-.625-.252-.842a.575.575,0,0,1,.483-.061,9.845,9.845,0,0,1,5.163,2.987,29.4,29.4,0,0,1,3.579,4.877c.683-1.328,1.388-2.809,1.022-4.258a5.119,5.119,0,0,0-2.194-2.733,13.757,13.757,0,0,0-6.072-2.388c-.32-.044-.7-.122-.813-.426-.176-.491.531-.8,1.053-.814a10.947,10.947,0,0,1,8.785,4.211,5.806,5.806,0,0,1,.146-1.174,7.755,7.755,0,0,0-.077-1.476,4.628,4.628,0,0,0-.592-2.085,5.708,5.708,0,0,0-3.841-2.205,54.686,54.686,0,0,0-5.8-.111.653.653,0,0,1-.522-.2c-.219-.313.2-.68.555-.823a13.957,13.957,0,0,1,8-.7c-.055-1.909-2.129-3.232-4.038-3.231s-3.674.932-5.4,1.743c-.256.12-.578.232-.8.057-.346-.275-.02-.821.32-1.1a11.159,11.159,0,0,1,5.079-2.368,4.333,4.333,0,0,0-6.684.515c-.842,1.207-1.014,2.741-1.53,4.119a.747.747,0,0,1-.307.433c-.468.236-.78-.51-.817-1.033a6.485,6.485,0,0,0-2.412-4.788,4.411,4.411,0,0,0-5.154-.132,8.568,8.568,0,0,1,3.789,3.515c-1.9.333-3.151-2.281-5.075-2.475a3.188,3.188,0,0,0-2.46,1.058A24.917,24.917,0,0,0,728.915,421a30.416,30.416,0,0,1,6.04,1.018c.529.145,1.158.432,1.176.979.02.669-3.046-.228-3.35-.313-1.514-.421-3.336-1.324-4.81-.319a3.5,3.5,0,0,0-1.044,1.247,6.4,6.4,0,0,0-.733,2.048c-.225,1.454,1.374.31,2.023.124a14.4,14.4,0,0,1,7.286-.164c.946.229,1.256,1.021.122,1.312-2.442.629-5.065.176-7.5.82a4.672,4.672,0,0,0-2.219,1.188C724.846,430.051,724.748,431.681,724.864,433.253Z" transform="translate(-724.826 -415.962)"/><path class="i" d="M725.792,425.056c0,.014.009.03.015.045l.046-.113C725.79,424.961,725.8,425.017,725.792,425.056Z" transform="translate(-724.644 -414.26)"/><path class="i" d="M725.844,424.988l.012,0h0l0-.013h-.012Z" transform="translate(-724.634 -414.26)"/></g><path class="j" d="M764.9,457.561a4.928,4.928,0,0,0-1.625,1.447,1.1,1.1,0,0,0-.121.187c-.346-1.325-.7-2.67-1.064-4-.458-1.737-.944-3.464-1.438-5.182a1.747,1.747,0,0,0,.046-.215.636.636,0,0,0-.233-.644.257.257,0,0,0-.065-.037c-.373-1.308-.747-2.6-1.121-3.912l-.531-1.839a.382.382,0,0,0,.075-.486.422.422,0,0,0-.281-.214l-2.147-7.432,1.5-.477a.518.518,0,0,0,.317.009q1.639,4.887,3.146,9.832c1.008,3.324,1.943,6.675,2.829,10.045C764.431,455.609,764.674,456.58,764.9,457.561Z" transform="translate(-718.868 -363.921)"/><path class="c" d="M774.946,440.636a6.706,6.706,0,0,1,.788,3.941,12.732,12.732,0,0,1-1.482,4.765,5.772,5.772,0,0,0-.869-2.669,11.741,11.741,0,0,0-3.018-3.167,11.444,11.444,0,0,0-2.486-1.435,2.589,2.589,0,0,0-.5-.121c-.316-.053-.64-.02-.768.31a.652.652,0,0,0,.31.781,18.37,18.37,0,0,1,2.095,1.5,11.784,11.784,0,0,1,3.04,3.854,3.856,3.856,0,0,1-.621,4.245,18.422,18.422,0,0,1-2.089,2.142c-.222.209-.283.088-.336-.121a15.164,15.164,0,0,0-.889-2.682,4.718,4.718,0,0,0-1.961-2.377c-.4-.216-.619-.081-.634.37a1.513,1.513,0,0,0,.411,1.012,6.831,6.831,0,0,1,1.126,2.028,5,5,0,0,1,.3,1.778,1.822,1.822,0,0,1-.95,1.637,5.983,5.983,0,0,0-2,1.692c-.047.074-.128.149-.128.222-.013.66-.344.377-.647.242a20.938,20.938,0,0,1-2.129-.99,3.747,3.747,0,0,1-1.846-3.659c0-.053.006-.114.006-.169a7.524,7.524,0,0,1,1.618-3.773,2.456,2.456,0,0,0,.553-1.084.649.649,0,0,0-.237-.654c-.2-.134-.391-.007-.593.108a4.692,4.692,0,0,0-1.927,2.52,8.336,8.336,0,0,0-.451,1.664,12.9,12.9,0,0,0,.006,3.638c.007.081.061.182-.026.229-.047.027-.149-.007-.2-.048a32.29,32.29,0,0,1-3.793-2.789,2.752,2.752,0,0,1-.876-2.709,11.863,11.863,0,0,1,4.157-6.859c.539-.458,1.145-.814,1.7-1.246a.629.629,0,0,0,.1-.074c.162-.209.431-.405.255-.708a.6.6,0,0,0-.775-.188,9.617,9.617,0,0,0-2.566,1.314,11.028,11.028,0,0,0-3.591,4.649,5.945,5.945,0,0,0-.432,1.967,4.112,4.112,0,0,1-.188.882,8.868,8.868,0,0,1-.971-1.462,12.047,12.047,0,0,1-1.63-4.264,4.877,4.877,0,0,1,.081-2.237v-.007a2.783,2.783,0,0,1,.634-1.038,12.48,12.48,0,0,1,4.9-3.443,11.218,11.218,0,0,1,1.644-.31.506.506,0,0,0,.485-.357.314.314,0,0,0-.156-.371,1.757,1.757,0,0,0-.707-.283,8.219,8.219,0,0,0-6.233,1.887c-.37.323-.761.634-1.145.944-.007.006-.027,0-.068-.007a7.638,7.638,0,0,1,.849-4.42,12.827,12.827,0,0,1,1.954-2.574,2.685,2.685,0,0,1,2.722-.687,11.646,11.646,0,0,1,3.7,1.623,2.017,2.017,0,0,0,.538.25c.162.048.344.088.478-.074.156-.176.088-.351,0-.519a3.447,3.447,0,0,0-1.064-1.077,8.234,8.234,0,0,0-2.871-1.422c-.289-.068-.276-.216-.081-.358a5.445,5.445,0,0,1,2.81-1.28,3.972,3.972,0,0,1,2.1.505,9.59,9.59,0,0,1,2.089,1.368c.391.344.674.3,1-.114.344-.439.647-.9,1-1.334a3.2,3.2,0,0,1,3.072-1.092,6.239,6.239,0,0,1,2.439,1.179c.242.149.472.31.781.52-.552.228-1.044.43-1.529.647-.62.276-1.247.552-1.859.849a1.707,1.707,0,0,0-.775.768c-.209.384-.088.559.349.539a5.108,5.108,0,0,0,1.611-.437c.613-.229,1.212-.492,1.839-.7a2.89,2.89,0,0,1,3.323.856,6.81,6.81,0,0,1,1.536,2.278,8.86,8.86,0,0,1,.351,1.772c.067.491.087.99.175,1.482a10.5,10.5,0,0,0-4.225-1.988,24.288,24.288,0,0,0-3.935-.674,1.018,1.018,0,0,0-.714.094c-.121.081-.329.1-.3.31a.451.451,0,0,0,.3.336c.378.156.762.31,1.146.439a33.789,33.789,0,0,1,3.74,1.4A6.22,6.22,0,0,1,774.946,440.636Z" transform="translate(-720.225 -365.116)"/><path class="i" d="M797.166,440.585a.505.505,0,0,0,.4.533,14.3,14.3,0,0,1,1.923.708,9.308,9.308,0,0,1,3.137,2.306,3.062,3.062,0,0,1,.43,3.371,15.71,15.71,0,0,1-1.148,2.081c-.122.206-.2.131-.28-.019a13.293,13.293,0,0,0-1.252-1.866,3.752,3.752,0,0,0-2-1.4c-.355-.074-.5.065-.411.421a1.182,1.182,0,0,0,.532.681,4.812,4.812,0,0,1,1.885,2.614,1.457,1.457,0,0,1-.373,1.457,4.7,4.7,0,0,0-1.176,1.708c-.019.065-.065.14-.047.206.131.5-.187.354-.448.317a17.325,17.325,0,0,1-1.829-.308,3,3,0,0,1-2.222-2.54,5.88,5.88,0,0,1,.439-3.22,1.865,1.865,0,0,0,.187-.952.5.5,0,0,0-.317-.449c-.177-.056-.3.075-.421.206a3.708,3.708,0,0,0-.943,2.335,8.529,8.529,0,0,0,.775,4.155c.029.056.094.121.029.177a.183.183,0,0,1-.159.009,27.687,27.687,0,0,1-3.491-1.325,2.18,2.18,0,0,1-1.242-1.886,9.35,9.35,0,0,1,1.727-6.124c.308-.467.7-.869,1.037-1.317a.636.636,0,0,0,.065-.083c.075-.187.243-.4.046-.588a.483.483,0,0,0-.635.019,8.063,8.063,0,0,0-1.689,1.549,8.671,8.671,0,0,0-1.756,4.314,4.591,4.591,0,0,0,.084,1.6,3.459,3.459,0,0,1,.046.71,6.7,6.7,0,0,1-1.056-.915,9.435,9.435,0,0,1-2.147-2.912,2.921,2.921,0,0,1-.15-2.662,9.989,9.989,0,0,1,3.016-3.668,8.317,8.317,0,0,1,1.195-.579c.159-.084.3-.187.3-.383a.26.26,0,0,0-.206-.252,1.4,1.4,0,0,0-.6-.065,6.506,6.506,0,0,0-4.359,2.764c-.215.326-.458.644-.682.962,0,.008-.019.008-.046.008a6.027,6.027,0,0,1-.29-3.557,9.9,9.9,0,0,1,.953-2.381,2.106,2.106,0,0,1,1.932-1.1,9.219,9.219,0,0,1,3.175.458,1.542,1.542,0,0,0,.466.075c.122,0,.271,0,.346-.158s-.01-.281-.112-.392a2.55,2.55,0,0,0-1.046-.6,6.509,6.509,0,0,0-2.493-.485c-.233.01-.252-.1-.131-.252a4.326,4.326,0,0,1,1.868-1.579,3.172,3.172,0,0,1,1.718-.056,7.564,7.564,0,0,1,1.895.607c.365.177.571.083.738-.3.1-.252.2-.5.3-.756.056-.158.112-.317.177-.475a2.32,2.32,0,0,1,.542-.785,2.848,2.848,0,0,1,1.587-.7,2.573,2.573,0,0,1,.887.027c.421.084.821.234,1.223.355.215.065.421.14.7.233-.373.29-.7.552-1.027.813-.42.345-.831.691-1.241,1.045a.164.164,0,0,0-.065.075,1.369,1.369,0,0,0-.365.673c-.074.345.048.447.383.345a4.3,4.3,0,0,0,1.14-.681c.42-.3.821-.625,1.251-.925a2.313,2.313,0,0,1,2.726-.046,7.467,7.467,0,0,1,1.167.859,2.826,2.826,0,0,1,.486.56,6.278,6.278,0,0,1,.569,1.11,1.294,1.294,0,0,1,.074.169c.15.364.281.737.448,1.1a5.705,5.705,0,0,0-.727-.281,7.616,7.616,0,0,0-1.279-.271,12.006,12.006,0,0,0-1.643-.084,19.917,19.917,0,0,0-3.156.317.857.857,0,0,0-.523.225l-.027.029c-.075.074-.2.139-.14.279a.376.376,0,0,0,.308.187.116.116,0,0,1,.056.01c.3.038.607.075.915.084a27.2,27.2,0,0,1,3.146.279c.289.048.587.1.868.178a4.443,4.443,0,0,1,1.27.475,3.291,3.291,0,0,1,.812.607,5.36,5.36,0,0,1,1.438,2.847,8.466,8.466,0,0,1,.121,2,13.182,13.182,0,0,1-.252,1.951,4.566,4.566,0,0,0-1.223-1.848,9.178,9.178,0,0,0-2.978-1.793,8.711,8.711,0,0,0-2.214-.56,1.879,1.879,0,0,0-.4,0C797.436,440.222,797.193,440.314,797.166,440.585Z" transform="translate(-713.865 -364.853)"/><path class="i" d="M766.633,432.207c.032,0,.048,0,.052-.007.227-.321.464-.637.679-.965a6.524,6.524,0,0,1,4.366-2.761,1.454,1.454,0,0,1,.6.067.257.257,0,0,1,.2.248.421.421,0,0,1-.295.38,9.086,9.086,0,0,0-1.194.581,9.945,9.945,0,0,0-3.022,3.671,2.918,2.918,0,0,0,.151,2.663A9.521,9.521,0,0,0,770.317,439a7,7,0,0,0,1.051.917,3.129,3.129,0,0,0-.044-.717,4.727,4.727,0,0,1-.087-1.6A8.766,8.766,0,0,1,773,433.288a7.813,7.813,0,0,1,1.688-1.551.48.48,0,0,1,.631-.015c.2.19.032.4-.046.592a.494.494,0,0,1-.064.08c-.333.447-.724.848-1.035,1.314a9.4,9.4,0,0,0-1.728,6.124,2.181,2.181,0,0,0,1.242,1.887,26.053,26.053,0,0,0,3.494,1.328.193.193,0,0,0,.159,0c.059-.056,0-.122-.027-.183a8.575,8.575,0,0,1-.782-4.15,3.725,3.725,0,0,1,.944-2.335c.126-.13.246-.269.427-.207a.513.513,0,0,1,.317.448,1.929,1.929,0,0,1-.19.95,5.955,5.955,0,0,0-.436,3.226,3.006,3.006,0,0,0,2.216,2.534,16.249,16.249,0,0,0,1.834.308c.264.038.576.185.447-.32-.016-.057.029-.131.049-.2a4.673,4.673,0,0,1,1.173-1.718,1.462,1.462,0,0,0,.38-1.456,4.808,4.808,0,0,0-1.894-2.608,1.206,1.206,0,0,1-.53-.684c-.082-.351.059-.5.409-.418a3.735,3.735,0,0,1,2,1.4,12.1,12.1,0,0,1,1.251,1.86c.084.15.157.229.282.026a14.961,14.961,0,0,0,1.146-2.083,3.056,3.056,0,0,0-.429-3.377,9.3,9.3,0,0,0-3.138-2.3,14.344,14.344,0,0,0-1.92-.706.508.508,0,0,1-.4-.53c.03-.279.268-.373.519-.4a1.793,1.793,0,0,1,.406-.01,8.926,8.926,0,0,1,2.208.569,9.283,9.283,0,0,1,2.975,1.784,4.586,4.586,0,0,1,1.233,1.852,10.259,10.259,0,0,0,.125-3.953,5.338,5.338,0,0,0-1.44-2.846,4.958,4.958,0,0,0-2.945-1.258,27.135,27.135,0,0,0-3.153-.278c-.324-.014-.648-.056-.97-.1a.357.357,0,0,1-.3-.19c-.066-.153.092-.215.167-.3a.812.812,0,0,1,.525-.223,19.338,19.338,0,0,1,3.154-.319,8.369,8.369,0,0,1,3.648.63c-.171-.363-.295-.738-.446-1.1a7,7,0,0,0-.647-1.278,5.314,5.314,0,0,0-1.652-1.416,2.3,2.3,0,0,0-2.725.048c-.431.291-.832.622-1.254.926a4.139,4.139,0,0,1-1.139.674c-.333.107-.46,0-.384-.34a1.365,1.365,0,0,1,.433-.749c.407-.355.823-.7,1.24-1.043.325-.267.657-.524,1.031-.819-.281-.092-.491-.169-.7-.229a4.876,4.876,0,0,0-2.112-.385,2.526,2.526,0,0,0-2.121,1.485c-.176.4-.311.823-.48,1.229-.164.391-.368.481-.741.3a7.66,7.66,0,0,0-1.89-.6,3.128,3.128,0,0,0-1.715.053,4.356,4.356,0,0,0-1.875,1.573c-.118.152-.1.268.136.257a6.576,6.576,0,0,1,2.5.483,2.618,2.618,0,0,1,1.041.6c.1.107.194.227.114.395s-.222.159-.352.157a1.683,1.683,0,0,1-.466-.075,9.3,9.3,0,0,0-3.169-.46,2.123,2.123,0,0,0-1.936,1.1,10.041,10.041,0,0,0-.951,2.382A6.058,6.058,0,0,0,766.633,432.207Z" transform="translate(-717.017 -366.754)"/><g transform="translate(78.791 65.013)"><path class="k" d="M803.086,440.427a5.36,5.36,0,0,0-1.438-2.847,3.294,3.294,0,0,0-.812-.607,7.672,7.672,0,0,0,.458,3.081,5.19,5.19,0,0,0,1.914,2.372A8.466,8.466,0,0,0,803.086,440.427Zm-1.765-5.984a1.3,1.3,0,0,0-.074-.169c-.048.178-.084.365-.121.542-.029.15-.065.3-.084.448a5.7,5.7,0,0,1,.728.281C801.6,435.18,801.47,434.807,801.321,434.443Zm-2.3-2.7a2.312,2.312,0,0,0-2.726.046c-.429.3-.831.625-1.251.925a4.3,4.3,0,0,1-1.14.681,6.631,6.631,0,0,0,.43,1.914,1.219,1.219,0,0,0,.075.169,3.558,3.558,0,0,0,.224.476,10.567,10.567,0,0,0,4.556,4.249c.1-1.233.214-2.475.373-3.706.056-.5.121-1.009.2-1.5.121-.8.261-1.6.429-2.389A7.464,7.464,0,0,0,799.024,431.745Zm-3.5-1.531c-.4-.121-.8-.271-1.223-.355a9.786,9.786,0,0,0-.41,2.521.164.164,0,0,1,.065-.075c.41-.354.822-.7,1.241-1.045.327-.261.654-.523,1.027-.813C795.944,430.354,795.738,430.279,795.523,430.213Zm-4.239,1.1c-.065.158-.121.317-.177.476l.169.225c.177-.5.364-.99.55-1.485A2.32,2.32,0,0,0,791.284,431.315Z" transform="translate(-791.107 -429.858)"/></g><g transform="translate(72.458 22.984)"><path class="l" d="M812.478,406.04c.314-.092.635-.159.955-.226.836-.174,1.65-.8,1.5-1.227-.267-.8-1.034-.764-1.613-.88a2.315,2.315,0,0,0-1.8.8.943.943,0,0,0-.2,1.134A1.013,1.013,0,0,0,812.478,406.04Z" transform="translate(-780.98 -392.764)"/><path class="l" d="M810.942,412.591c-.246.32-.533.66-.3,1.115s.656.422,1.163.393a3.573,3.573,0,0,0,1.847-.524c.744-.334.873-.884.379-1.3A2.249,2.249,0,0,0,810.942,412.591Z" transform="translate(-781.103 -391.236)"/><path class="l" d="M810.653,409.594a4.791,4.791,0,0,0,4.048-.549c.443-.275.415-.7-.014-1.079a3.048,3.048,0,0,0-1.858-.6,2.6,2.6,0,0,0-2.45,1.277C810.164,409.053,810.216,409.46,810.653,409.594Z" transform="translate(-781.16 -392.073)"/><path class="l" d="M811.52,422.8c.688.087,1-.423.683-1.046a2.06,2.06,0,0,0-1.848-1.223,1.185,1.185,0,0,0-1.228.623.611.611,0,0,0,.224.787A4.244,4.244,0,0,0,811.52,422.8Z" transform="translate(-781.386 -389.589)"/><path class="l" d="M812.506,416.229c-.629-.014-1.422.582-1.371,1.078.07.684.67.5,1.034.6.846,0,1.437-.341,1.362-.813A.971.971,0,0,0,812.506,416.229Z" transform="translate(-780.995 -390.401)"/><path class="l" d="M805.159,406.967a.7.7,0,0,0,.6-1.145,2.229,2.229,0,0,0-2.243-1.21,2.605,2.605,0,0,0-.636.091c-.671.225-.938.859-.491,1.218A3.9,3.9,0,0,0,805.159,406.967Z" transform="translate(-782.687 -392.594)"/><path class="l" d="M804.736,415.942c.023.371.126.758.624.762a2.817,2.817,0,0,0,2.289-1.046c.246-.3.295-.661-.02-.859a1.7,1.7,0,0,0-1.519-.371A1.867,1.867,0,0,0,804.736,415.942Z" transform="translate(-782.202 -390.754)"/><path class="l" d="M801.888,409.69c.547.256.956-.1,1.424-.169.563-.076,1.342-.3,1.317-.857-.033-.727-.857-.777-1.491-.842-.055,0-.111,0-.294,0a1.667,1.667,0,0,0-1.248.4C800.973,408.867,801.077,409.311,801.888,409.69Z" transform="translate(-782.871 -391.988)"/><path class="l" d="M805,410.35a2.671,2.671,0,0,0-2.584,1.643.76.76,0,0,0,.04.849.686.686,0,0,0,.769.133,5.376,5.376,0,0,0,2.31-1.305c.279-.276.62-.561.418-.977C805.777,410.339,805.356,410.354,805,410.35Z" transform="translate(-782.661 -391.511)"/><path class="m" d="M829.7,413.3l-.081-.018-.082.011.126.194Z" transform="translate(-777.522 -390.957)"/><path class="m" d="M823.373,415.545a19.357,19.357,0,0,1,7.269,2.068,19.585,19.585,0,0,1,7.594,6.819c.465-2.944.788-6.367-1.273-8.529-1.449-1.517-3.672-1.934-5.748-2.272-.215-.033-.431-.067-.647-.107q-3.962-.637-7.923-1.287c-.789-.127-1.8-.559-1.644-1.341.127-.626.93-.8,1.563-.849a39.16,39.16,0,0,1,7.794.068,13.812,13.812,0,0,1,6.791,2.634,23.99,23.99,0,0,0-.875-4.008,5.177,5.177,0,0,0-1.719-2.985,5.59,5.59,0,0,0-4.508-.722c-.478.1-.956.216-1.407.351-1.967.58-4.016,1.388-6.016.924a.911.911,0,0,1-.668-.418c-.222-.505.439-.922.964-1.071a34.829,34.829,0,0,1,7.256-1.227c.977-.061,1.954-.081,2.937-.061a11.767,11.767,0,0,0-1.731-2.761,11.491,11.491,0,0,0-1.611-1.577,4.6,4.6,0,0,0-2.109-1.071c-3.187-.5-5.626,4.252-8.725,3.356a13.794,13.794,0,0,1,6.293-5.108,7.373,7.373,0,0,0-8.834.29c-2.068,1.732-2.978,4.44-3.766,7.021-.121-2.412-.235-4.817-.351-7.23l-1.435-.808a52.86,52.86,0,0,1,.351,8.874c-.283-3.167-1.314-6.475-3.773-8.5s-6.609-2.149-8.543.377a16.821,16.821,0,0,1,7.654,4.036c.465.424.9,1.212.4,1.611a1.12,1.12,0,0,1-1.1-.014c-1.981-.761-3.78-1.94-5.761-2.695s-4.306-1.031-6.152.007c-1.57.876-2.513,2.526-3.382,4.1a22.887,22.887,0,0,1,12.317,1.6c.687.3,1.475,1.078.977,1.637a1.219,1.219,0,0,1-1.065.237,44.889,44.889,0,0,0-8-.418,10.882,10.882,0,0,0-7.2,3.119c-1.806,1.967-2.452,5.134-1.018,7.392a.606.606,0,0,1,.068-.068,17.992,17.992,0,0,1,14.021-5.847,2.361,2.361,0,0,1,1.327.357.889.889,0,0,1,.229,1.227,1.346,1.346,0,0,1-.815.316c-3.881.573-7.836,1.536-10.983,3.867a7.288,7.288,0,0,0-2.493,2.918c-.821,2.008-.2,4.231.606,6.292h.007c.121.317.25.626.378.931l.424-.587a44.646,44.646,0,0,1,5.45-6.514,16.047,16.047,0,0,1,8.011-4.32c.411-.067.917-.081,1.159.257.364.512-.229,1.152-.748,1.5q-2.992,1.992-6,3.975a24.512,24.512,0,0,0-4.709,3.72,9.743,9.743,0,0,0-1.752,2.675,6.8,6.8,0,0,0-.58,2.728c.014,2.48,1.517,4.684,3.053,6.631.364-1.012.735-2.022,1.125-3.025a39.307,39.307,0,0,1,3.133-6.589,17.351,17.351,0,0,1,7.62-7.041c.708-.3,1.752-.411,2.035.3.27.667-.445,1.286-1.044,1.684a25.789,25.789,0,0,0-8.5,9.284,14.983,14.983,0,0,0-1.638,4.514,7.811,7.811,0,0,0,.33,4.164,10.122,10.122,0,0,0,4.851,4.892c.162-1.894.344-3.8.647-5.673a30.867,30.867,0,0,1,1.308-5.336,16.306,16.306,0,0,1,6.63-8.759,1.669,1.669,0,0,1,1.1-.33c.714.114,1.018,1.071.749,1.752a4.289,4.289,0,0,1-1.469,1.582,19.737,19.737,0,0,0-6.913,10.848c-.047.175-.088.35-.121.525a9.231,9.231,0,0,0,.175,5.241,4.557,4.557,0,0,0,3.988,3.025,51.176,51.176,0,0,1,.411-6.42q.112-.859.3-1.7a13.957,13.957,0,0,1,3.706-7.135,1.462,1.462,0,0,1,1.091-.533c.93.1.862,1.5.445,2.345-1,2.008-2.406,3.793-3.457,5.774a13.419,13.419,0,0,0-1,2.406,7.407,7.407,0,0,0-.156,4.069c.593,2.169,2.823,3.982,5.013,3.463a20.4,20.4,0,0,1-.269-7.93,10.023,10.023,0,0,1,.417-1.7,4.549,4.549,0,0,1,1.725-2.458,7.2,7.2,0,0,1,.108,1.259v.007a18.976,18.976,0,0,1-.424,3.356,10.267,10.267,0,0,0-.082,4.615,3.767,3.767,0,0,0,3.262,2.877.9.9,0,0,0,.68-.208,1.463,1.463,0,0,0,.27-.836c.452-2.452,4.811-2.924,4.675-5.41a3.394,3.394,0,0,0-.612-1.563,28.811,28.811,0,0,0-4.1-5.242l-.034-.033a3.318,3.318,0,0,1-1.044-1.53c-.128-.613.3-1.381.93-1.327a1.293,1.293,0,0,1,.64.276,8.288,8.288,0,0,1,1.381,1.172c2.109,2.162,3.167,5.289,4.09,8.233,1.644.081,2.945-1.617,2.985-3.261a8.072,8.072,0,0,0-2.1-4.912A26.879,26.879,0,0,0,823.8,433.2c-1.051-1.058-2.17-2.041-3.3-3.025a4.08,4.08,0,0,1-1.475-2.257.852.852,0,0,1,.229-.855c.29-.2.687-.04,1,.134a21.815,21.815,0,0,1,10.092,12.3,6.851,6.851,0,0,0,2.594-4.192,6.557,6.557,0,0,0-1.852-5.079,19.237,19.237,0,0,0-4.44-3.349c.188.27.384.533.572.8a6.066,6.066,0,0,0-.977-1.064,8.236,8.236,0,0,0-.842-.687c-1.967-1.442-4.407-2.446-5.437-4.548-.054-.121-.114-.242-.162-.371.175.048.344.1.518.149a24.02,24.02,0,0,1,14.359,12.317c1.057-1.577,2.162-3.343,1.933-5.229a6.5,6.5,0,0,0-1.94-3.51,26.934,26.934,0,0,0-9.527-5.983c-.911-.377-1.82-.733-2.729-1.084-.424-.162-.9-.378-1.038-.808C821.1,415.949,822.436,415.477,823.373,415.545Zm-17.4-8.933a2.28,2.28,0,0,1,.634-.088,2.215,2.215,0,0,1,2.243,1.205.7.7,0,0,1-.6,1.146,3.883,3.883,0,0,1-2.77-1.045C805.033,407.474,805.3,406.834,805.976,406.612ZM804.8,412.2c-.808-.377-.915-.823-.289-1.469a1.671,1.671,0,0,1,1.246-.4c.182,0,.242-.007.3,0,.633.061,1.455.114,1.488.842.027.553-.755.782-1.321.856C805.753,412.1,805.342,412.459,804.8,412.2Zm1.543,3.76a.688.688,0,0,1-.768-.128.752.752,0,0,1-.04-.849,2.659,2.659,0,0,1,2.581-1.644c.364,0,.781-.014.957.344.2.411-.141.7-.418.977A5.413,5.413,0,0,1,806.339,415.964Zm4.892,3.443a2.82,2.82,0,0,1-2.291,1.044c-.5,0-.606-.39-.626-.761a1.863,1.863,0,0,1,1.374-1.516,1.707,1.707,0,0,1,1.516.37C811.521,418.745,811.473,419.11,811.231,419.406Zm5.094-13.158a2.319,2.319,0,0,1,1.8-.8c.58.114,1.348.081,1.618.883.141.424-.674,1.051-1.51,1.226-.316.061-.64.134-.95.222a1.016,1.016,0,0,1-1.152-.4A.942.942,0,0,1,816.325,406.248ZM815,411.078a2.6,2.6,0,0,1,2.452-1.28,3.031,3.031,0,0,1,1.852.593c.432.378.459.808.02,1.085a4.8,4.8,0,0,1-4.049.546C814.835,411.887,814.782,411.482,815,411.078Zm1.96,10.929c-.364-.1-.97.087-1.038-.6-.053-.492.741-1.091,1.368-1.078a.973.973,0,0,1,1.031.863C818.393,421.664,817.8,422.007,816.958,422.007Zm-.472-4.643c-.505.027-.93.062-1.165-.39s.054-.8.3-1.119a2.251,2.251,0,0,1,3.093-.31c.491.411.364.964-.378,1.293A3.541,3.541,0,0,1,816.486,417.364Zm-2.742,9.487a.605.605,0,0,1-.222-.782,1.184,1.184,0,0,1,1.227-.626,2.062,2.062,0,0,1,1.846,1.227c.323.619.006,1.132-.681,1.044A4.241,4.241,0,0,1,813.744,426.851Z" transform="translate(-785.78 -394.502)"/></g><path class="n" d="M755.84,495.171l.454,6.136a48.768,48.768,0,0,0,36,.389l.467-5.679Z" transform="translate(-718.972 -352.517)"/><g transform="translate(48.991 12.335)"><path class="c" d="M799.683,400.92a5.575,5.575,0,0,0-.207,1.166,10.963,10.963,0,0,0-8.529-4.709c-.523-.02-1.249.256-1.1.751.094.314.472.41.786.474a13.682,13.682,0,0,1,5.921,2.735,5.031,5.031,0,0,1,2.034,2.847c.29,1.467-.5,2.908-1.26,4.193a30.174,30.174,0,0,0-3.29-5.071,9.888,9.888,0,0,0-4.983-3.279.615.615,0,0,0-.487.027c-.265.209-.036.625.2.863,1.992,1.928,4.363,3.487,6.118,5.636a5.579,5.579,0,0,1,1.5,3.415c-.008,1.776-1.327,3.233-2.569,4.5a30.866,30.866,0,0,0-2.059-6.645,10.59,10.59,0,0,0-4.638-5.027.889.889,0,0,0-.7-.115.654.654,0,0,0-.264.864,2.1,2.1,0,0,0,.668.731,16.136,16.136,0,0,1,4.036,5.113,9.155,9.155,0,0,1,1.18,5.661,4.534,4.534,0,0,1-3.86,3.855,25.552,25.552,0,0,0-.428-7.029,10.755,10.755,0,0,0-3.528-5.964,1.087,1.087,0,0,0-.937-.315.78.78,0,0,0-.409.949,2.392,2.392,0,0,0,.628.944c2.243,2.467,3.979,5.616,3.9,8.949a5.163,5.163,0,0,1-.78,2.827,2.751,2.751,0,0,1-2.54,1.228c.3-3.321.531-6.955-1.379-9.684-.336-.478-1.012-.937-1.437-.541a.92.92,0,0,0-.2.783,6.422,6.422,0,0,0,1.046,2.3,10.936,10.936,0,0,1,1.45,4.7,3.517,3.517,0,0,1-.449,2.293c-.682.971-2,1.176-3.179,1.286.669-2.7,1.277-5.79-.292-8.1a8.5,8.5,0,0,0-.2,3.177,5.874,5.874,0,0,1-.469,3.124,2.233,2.233,0,0,1-2.675,1.155c.291-.835-.448-1.644-1.136-2.188s-1.512-1.209-1.442-2.084a2.5,2.5,0,0,1,.692-1.3c.321-.383.66-.746,1.018-1.11.019-.018.039-.044.059-.062a21.387,21.387,0,0,1,1.77-1.675.819.819,0,0,1,.1-.088l.059-.052a1.916,1.916,0,0,0,.612-.742.752.752,0,0,0-.108-.707.1.1,0,0,0-.034-.049.478.478,0,0,0-.2-.114.872.872,0,0,0-.654.15,6.641,6.641,0,0,0-1.988,1.718l-.061.081a17.584,17.584,0,0,0-2.109,3.825c-.012.027-.021.046-.033.074,0,.008-.01.018-.011.027a3.586,3.586,0,0,1-1.684-2.417v-.027a.819.819,0,0,1,.012-.206,2.918,2.918,0,0,1,.556-1.211c.01-.01.011-.019.02-.027a15.858,15.858,0,0,1,2.212-2.538.873.873,0,0,1,.09-.088,16.25,16.25,0,0,1,2.474-1.888,4.166,4.166,0,0,0,1.335-1.1c.02-.027.042-.064.062-.09a1.379,1.379,0,0,0,.169-.5.5.5,0,0,0-.124-.455.538.538,0,0,0-.505,0c-.029.007-.048.015-.076.024l-.057.025a13.681,13.681,0,0,0-4.049,2.582.84.84,0,0,0-.1.1,13.838,13.838,0,0,0-2.186,2.559c-.03.044-.051.081-.082.126a13.568,13.568,0,0,0-.887,1.6,2.972,2.972,0,0,1-1.329-2.741,3.784,3.784,0,0,1,.446-1.742.544.544,0,0,1,.053-.109,6.418,6.418,0,0,1,2.219-2.183,1.436,1.436,0,0,1,.137-.086c.533-.325,1.1-.61,1.658-.877.779-.367,1.574-.7,2.326-1.1a1.654,1.654,0,0,0,.183-.093,9.07,9.07,0,0,0,1.959-1.384c.12-.124.252-.313.149-.459-.087-.116-.265-.1-.408-.061a15.816,15.816,0,0,0-2.928.991c-.068.033-.145.067-.212.1a16.359,16.359,0,0,0-3.4,2.115c-.039.036-.088.07-.128.114a15.469,15.469,0,0,0-2.242,2.247,1.14,1.14,0,0,0-.1.134,12.848,12.848,0,0,0-.781,1.067,5.736,5.736,0,0,1-.861-2.92,2.189,2.189,0,0,1,.013-.233,3,3,0,0,1,.174-.748,4.443,4.443,0,0,1,1.419-1.743c.049-.035.1-.078.146-.113.011-.008.011-.008.02-.008a14.564,14.564,0,0,1,2.9-1.713c.068-.033.145-.067.221-.1a26.034,26.034,0,0,1,3.786-1.27c.086-.024.162-.048.247-.07.341-.093.674-.176,1.015-.259a1.04,1.04,0,0,0,.606-.3.692.692,0,0,0-.226-.939,1.837,1.837,0,0,0-1.044-.228,12.521,12.521,0,0,0-2.644.269c-.1.023-.218.044-.322.075a12.7,12.7,0,0,0-3.522,1.4,1.354,1.354,0,0,0-.194.12,12.212,12.212,0,0,0-2.436,1.879c-.05.053-.1.1-.15.151a9.326,9.326,0,0,0-.7.782c-.019-.328-.037-.666-.037-1,0-.075,0-.15,0-.225s0-.159,0-.244c0-.121,0-.242.013-.373.006-.112.023-.232.029-.344a5.036,5.036,0,0,1,.741-2.464,3.3,3.3,0,0,1,.5-.6,4.561,4.561,0,0,1,2.021-1,2.387,2.387,0,0,1,.266-.059c2.469-.5,5.062.1,7.532-.39.426-.088.66-.252.735-.435.131-.32-.193-.7-.781-.877a14.461,14.461,0,0,0-7.28-.259c-.6.133-1.994,1-2.046.134v-.01a1.265,1.265,0,0,1,.03-.363,6.453,6.453,0,0,1,.813-1.927c.011-.027.03-.045.042-.072a3.407,3.407,0,0,1,1.115-1.189.331.331,0,0,1,.077-.042c1.5-.85,3.237.139,4.705.635.275.1,3.015,1.071,3.3.592a.193.193,0,0,0,.024-.083c.023-.55-.6-.876-1.119-1.046a30.4,30.4,0,0,0-5.8-1.343c-.056,0-.112-.015-.168-.019a24.222,24.222,0,0,1,1.831-2.074,3.2,3.2,0,0,1,2.521-.912,6.088,6.088,0,0,1,2.712,1.8,2.849,2.849,0,0,0,2.208.959,8.512,8.512,0,0,0-3.583-3.722,4.4,4.4,0,0,1,5.138.427,6.486,6.486,0,0,1,2.14,4.92c.007.524.272,1.278.751,1.071a.761.761,0,0,0,.333-.41c.592-1.35.857-2.868,1.765-4.023a4.342,4.342,0,0,1,3.321-1.651,4.39,4.39,0,0,1,3.382,1.522,11.118,11.118,0,0,0-5.207,2.067c-.361.259-.719.791-.38,1.082.2.189.537.1.8-.011,1.771-.712,3.586-1.534,5.5-1.432s3.894,1.551,3.841,3.456a14.034,14.034,0,0,0-8.029.24c-.363.13-.8.468-.6.8a.641.641,0,0,0,.51.226c1.915.213,3.89.018,5.772.445a5.7,5.7,0,0,1,3.714,2.42,4.629,4.629,0,0,1,.468,2.112A7.073,7.073,0,0,1,799.683,400.92Z" transform="translate(-766.039 -385.544)"/><path class="c" d="M767.347,394.055a.542.542,0,0,1-.053.109c0-.008-.017-.029-.007-.046C767.289,394.08,767.283,394.025,767.347,394.055Z" transform="translate(-765.804 -383.939)"/><path class="c" d="M767.356,394.048c0,.008,0,.008-.011.018,0-.01,0-.01-.008-.011v-.008Z" transform="translate(-765.794 -383.939)"/></g><path class="o" d="M753.009,461.266c-.77-.448,3.383,40.305,3.383,40.305s16.315,9.843,36.922.846l4.792-41.152S775.277,474.231,753.009,461.266Z" transform="translate(-719.525 -358.918)"/><g transform="translate(48.979 14.142)"><path class="j" d="M776.475,404.679l-.067-.048-.08-.021.04.227Z" transform="translate(-764.084 -383.752)"/><path class="j" d="M767.512,395.65c-.011.018.007.038.007.048a.568.568,0,0,0,.052-.109C767.508,395.556,767.514,395.613,767.512,395.65Zm.061-.071v.009c.01,0,.01,0,.01.01.01-.008.01-.008.01-.018Zm.833,12.168c-.524-.638-1.069-1.259-1.642-1.852a5.508,5.508,0,0,0,.848,3.153c.276-.414.571-.818.882-1.2A.819.819,0,0,0,768.406,407.747Zm2.5,3.529a23.859,23.859,0,0,0-1.783-2.646,3.887,3.887,0,0,0-.433,1.508,3.045,3.045,0,0,0,1.316,2.974,13.5,13.5,0,0,1,.969-1.73A.63.63,0,0,0,770.905,411.276Zm1.941,5.106a8.554,8.554,0,0,0-.546-2.2c-.178-.478-.377-.947-.593-1.4a3.062,3.062,0,0,0-.555,1.184v.027c-.137,1.087.813,1.973,1.671,2.65.012-.037.032-.064.043-.1C772.86,416.485,772.854,416.438,772.847,416.382Zm1.694-24.4c-1.468-.5-3.207-1.485-4.705-.635a35.076,35.076,0,0,1,9.317,2.714,11.745,11.745,0,0,0-1.312-5.163,6.085,6.085,0,0,0-2.71-1.8,3.2,3.2,0,0,0-2.521.912,19.269,19.269,0,0,0-1.65,1.86l-.181.214a30.042,30.042,0,0,1,5.963,1.362c.477.158,1.022.433,1.108.9a.739.739,0,0,1,.011.15C777.849,393.149,774.834,392.078,774.541,391.977Zm5.07,4.687c-1-1.788-3.256-2.413-5.3-2.643-1.969-.235-4.069-.29-5.71-1.376a6.479,6.479,0,0,0-.812,1.927.7.7,0,0,0-.017.13v.01c-.175,1.234,1.388.239,2.033.1a14.461,14.461,0,0,1,7.28.259,1.034,1.034,0,0,1,.794.644c.069.276-.152.553-.749.668-2.469.493-5.062-.114-7.532.39a2.429,2.429,0,0,0-.265.059,30.747,30.747,0,0,1,3.747,1.683,3.411,3.411,0,0,1,.309.158,18.088,18.088,0,0,1,2.058,1.3c.081.051.153.1.233.163a12.527,12.527,0,0,1,3.586,3.985,23.8,23.8,0,0,0,.766-4.024A5.253,5.253,0,0,0,779.611,396.664Zm-12.8,1.761a5.123,5.123,0,0,0-.727,2.231c-.006.112-.023.232-.029.344-.008.131-.014.252-.013.373-.013.083-.008.159-.013.233.009,0,.009.011.018.011a8.318,8.318,0,0,1,.732.445c.05-.053.1-.1.15-.151a12.213,12.213,0,0,1,2.436-1.879C768.516,399.5,767.659,398.95,766.81,398.425Zm8.889,5.757c-.054-.05-.117-.09-.17-.14-.752.405-1.548.733-2.326,1.1-.558.267-1.126.553-1.658.877a1.429,1.429,0,0,0-.137.086c.044.049.078.1.122.147a17.792,17.792,0,0,1,1.643,2.338.837.837,0,0,1,.1-.1,13.68,13.68,0,0,1,4.049-2.582A7.36,7.36,0,0,0,775.7,404.182Zm2.2,2.867c-.008-.029-.025-.067-.032-.1s-.018-.03-.017-.048a4.167,4.167,0,0,1-1.335,1.1,16.248,16.248,0,0,0-2.474,1.888.875.875,0,0,0-.09.088l.076.145a19.038,19.038,0,0,1,.959,2.355l.061-.081a6.641,6.641,0,0,1,1.988-1.718.872.872,0,0,1,.654-.15.478.478,0,0,1,.2.114.1.1,0,0,1,.034.049A5.93,5.93,0,0,0,777.9,407.049Zm-.638,5.238a21.382,21.382,0,0,0-1.77,1.675c-.02.018-.04.044-.059.062l.046.171c.092.36.163.739.226,1.107a26.178,26.178,0,0,0,1.544-2.782c.053-.127.118-.256.171-.373l-.059.052A.819.819,0,0,0,777.263,412.287Zm-3.8-9.673-1.814-1.142c-.073-.042-.135-.083-.208-.134a14.561,14.561,0,0,0-2.9,1.713c-.009,0-.009,0-.02.008-.049.034-.1.078-.146.113a1.418,1.418,0,0,1,.152.112,18.023,18.023,0,0,1,2.228,2.083c.04-.044.089-.078.128-.114a16.358,16.358,0,0,1,3.4-2.115Q773.867,402.875,773.461,402.614Z" transform="translate(-766.028 -387.064)"/></g><g transform="translate(9.508)"><path class="l" d="M761.846,390.842c.325.039.645.1.966.165.837.166,1.83-.089,1.865-.541.064-.839-.655-1.108-1.142-1.441a2.31,2.31,0,0,0-1.966.037.94.94,0,0,0-.626.965A1.012,1.012,0,0,0,761.846,390.842Z" transform="translate(-727.52 -372.589)"/><path class="l" d="M757.874,396.273c-.352.2-.749.4-.709.911s.439.644.918.815a3.547,3.547,0,0,0,1.9.239c.815-.017,1.148-.473.855-1.045A2.248,2.248,0,0,0,757.874,396.273Z" transform="translate(-728.23 -371.23)"/><path class="l" d="M758.786,393.387a4.79,4.79,0,0,0,3.941,1.075c.516-.078.657-.485.408-1a3.046,3.046,0,0,0-1.478-1.273,2.6,2.6,0,0,0-2.753.22C758.547,392.7,758.436,393.093,758.786,393.387Z" transform="translate(-727.964 -372.008)"/><path class="l" d="M754.375,405.943c.6.348,1.088,0,1.038-.7a2.056,2.056,0,0,0-1.223-1.847,1.184,1.184,0,0,0-1.374.094.611.611,0,0,0-.1.812A4.243,4.243,0,0,0,754.375,405.943Z" transform="translate(-729.09 -369.871)"/><path class="l" d="M757.86,400.265c-.574-.26-1.537-.019-1.683.458-.2.656.421.724.719.952.777.334,1.456.247,1.572-.216A.97.97,0,0,0,757.86,400.265Z" transform="translate(-728.424 -370.45)"/><path class="l" d="M754.7,388.88c.651.218,1.076-.147,1-.819a2.23,2.23,0,0,0-1.593-1.99,2.64,2.64,0,0,0-.621-.164c-.706-.055-1.2.424-.928.931A3.9,3.9,0,0,0,754.7,388.88Z" transform="translate(-729.114 -373.141)"/><path class="l" d="M750.858,396.94c-.124.349-.18.748.277.945a2.817,2.817,0,0,0,2.517-.069c.342-.177.529-.493.317-.8a1.706,1.706,0,0,0-1.254-.934A1.869,1.869,0,0,0,750.858,396.94Z" transform="translate(-729.437 -371.221)"/><path class="l" d="M750.642,390.1c.4.448.921.277,1.378.4.548.15,1.353.245,1.546-.275.253-.682-.485-1.051-1.044-1.356-.049-.026-.1-.044-.27-.115a1.667,1.667,0,0,0-1.305-.121C750.12,388.984,750.044,389.433,750.642,390.1Z" transform="translate(-729.535 -372.644)"/><path class="l" d="M753.307,391.86a2.671,2.671,0,0,0-3.021.5c-.222.229-.4.465-.294.8a.684.684,0,0,0,.656.422,5.358,5.358,0,0,0,2.635-.3c.365-.145.791-.275.767-.736C754.03,392.156,753.637,392,753.307,391.86Z" transform="translate(-729.59 -372.064)"/><path class="m" d="M774.756,404.347l-.068-.048-.08-.021.042.227Z" transform="translate(-724.938 -369.673)"/><path class="m" d="M735.357,389.886a18,18,0,0,1,15.19.1,2.338,2.338,0,0,1,1.084.846.882.882,0,0,1-.267,1.214,1.311,1.311,0,0,1-.875-.024c-3.8-.985-7.808-1.645-11.619-.725a7.213,7.213,0,0,0-3.433,1.713c-1.776,1.756-1.9,4.536-1.909,7.034a47.854,47.854,0,0,1,8.18-4.246,16.065,16.065,0,0,1,9.062-.844c.406.1.876.279.966.687.134.611-.655.97-1.27,1.084l-7.072,1.321a24.384,24.384,0,0,0-5.792,1.585,8.19,8.19,0,0,0-4.255,4.062c-.956,2.289-.435,4.9.221,7.3a51.717,51.717,0,0,1,7.674-7.191,17.344,17.344,0,0,1,9.762-3.506c.769,0,1.775.3,1.759,1.071-.014.72-.914,1.016-1.623,1.146a25.822,25.822,0,0,0-11.455,5.223c-2.357,1.889-4.489,4.464-4.589,7.483a10.1,10.1,0,0,0,2.557,6.4,44.61,44.61,0,0,1,6.095-9.376,16.328,16.328,0,0,1,9.525-5.479,1.7,1.7,0,0,1,1.145.127,1.28,1.28,0,0,1,0,1.9,4.233,4.233,0,0,1-1.97.886,19.8,19.8,0,0,0-10.915,7.726,9.225,9.225,0,0,0-1.887,4.894,4.55,4.55,0,0,0,2.494,4.341,41.73,41.73,0,0,1,3.823-7.2,13.976,13.976,0,0,1,6.2-5.123,1.461,1.461,0,0,1,1.209-.064c.821.46.212,1.722-.5,2.335-1.7,1.462-3.7,2.553-5.441,3.969a9.044,9.044,0,0,0-3.592,5.507c-.3,2.225,1.047,4.766,3.261,5.147a20.535,20.535,0,0,1,2.846-7.407c.857-1.361,2.017-2.709,3.6-3a13.1,13.1,0,0,1-2.092,4.131,10.24,10.24,0,0,0-1.873,4.216,3.764,3.764,0,0,0,1.873,3.922.924.924,0,0,0,.711.077c.277-.113.409-.418.573-.667,1.372-2.079,5.567-.812,6.418-3.153a3.447,3.447,0,0,0,.046-1.681,29.028,29.028,0,0,0-1.743-6.468,3.3,3.3,0,0,1-.367-1.819c.124-.616.82-1.152,1.375-.861a1.39,1.39,0,0,1,.484.511c2.007,3.109,1.721,7.112,1.365,10.8,1.479.714,3.338-.344,4.019-1.838a8.1,8.1,0,0,0-.008-5.342,39.742,39.742,0,0,0-2.966-7.338,4.09,4.09,0,0,1-.477-2.653.843.843,0,0,1,.543-.7c.347-.073.649.233.867.512a21.773,21.773,0,0,1,4.49,15.26,6.841,6.841,0,0,0,4.023-2.841,6.549,6.549,0,0,0,.284-5.4,19.418,19.418,0,0,0-2.783-4.818l.215.961c-.748-3.289-4.328-5.664-4.228-9.036a23.959,23.959,0,0,1,8.829,17.284c1.592-1.039,3.3-2.231,3.823-4.06a6.5,6.5,0,0,0-.412-3.989c-1.65-4.461-5.1-7.984-8.524-11.288a1.553,1.553,0,0,1-.637-1.154c.094-.94,1.512-.851,2.351-.417a19.7,19.7,0,0,1,10.208,13.982c1.58-2.532,3.219-5.555,2.163-8.347-.743-1.963-2.631-3.216-4.405-4.334l-7.349-4.634c-.67-.423-1.434-1.218-.984-1.872.361-.527,1.165-.379,1.769-.171,4.786,1.652,9.919,3.752,12.375,8.18a24.125,24.125,0,0,0,.758-4.03,5.237,5.237,0,0,0-.416-3.424c-1-1.794-3.261-2.418-5.3-2.651s-4.238-.29-5.9-1.5a.9.9,0,0,1-.45-.647c-.01-.548.761-.679,1.305-.61a34.946,34.946,0,0,1,9.883,2.8,11.658,11.658,0,0,0-1.38-5.3,4.638,4.638,0,0,0-1.525-1.808c-2.739-1.707-6.836,1.715-9.344-.316a13.788,13.788,0,0,1,7.789-2.248,7.38,7.38,0,0,0-8.244-3.182c-2.578.787-4.478,2.929-6.211,4.994l2.5-6.79-1.006-1.305a52.763,52.763,0,0,1-3.139,8.307c.974-3.03,1.318-6.475-.156-9.3s-5.246-4.561-8.012-2.986a16.771,16.771,0,0,1,5.467,6.7c.259.577.353,1.467-.254,1.642-.37.107-.733-.17-1.01-.437-1.524-1.475-2.716-3.263-4.247-4.73s-3.561-2.634-5.669-2.4c-1.784.2-3.3,1.348-4.711,2.455a22.873,22.873,0,0,1,10.715,6.283c.517.54.936,1.571.259,1.891a1.235,1.235,0,0,1-1.071-.2,44.751,44.751,0,0,0-7.2-3.512,10.907,10.907,0,0,0-7.84.062c-2.436,1.108-4.263,3.772-3.823,6.411ZM761.3,406.392c-.3-.228-.921-.3-.719-.952.146-.477,1.109-.718,1.683-.458a.97.97,0,0,1,.608,1.194C762.753,406.639,762.074,406.726,761.3,406.392Zm3.285-4.216a3.547,3.547,0,0,1-1.9-.239c-.479-.171-.879-.309-.918-.815s.357-.712.708-.911a2.248,2.248,0,0,1,2.968.92C765.729,401.7,765.4,402.159,764.581,402.175Zm2.292-10.535a2.309,2.309,0,0,1,1.966-.037c.487.333,1.207.6,1.142,1.441-.036.452-1.028.707-1.865.541-.321-.064-.642-.126-.966-.165a1.012,1.012,0,0,1-.9-.814A.94.94,0,0,1,766.873,391.641Zm-3.11,3.926a2.6,2.6,0,0,1,2.753-.22,3.046,3.046,0,0,1,1.478,1.273c.25.515.108.921-.408,1a4.79,4.79,0,0,1-3.941-1.075C763.3,396.252,763.407,395.856,763.763,395.567Zm-7.214,13.224a1.184,1.184,0,0,1,1.374-.094,2.056,2.056,0,0,1,1.223,1.847c.05.7-.437,1.044-1.038.7a4.243,4.243,0,0,1-1.661-1.637A.611.611,0,0,1,756.549,408.79Zm.807-7.827c.212.306.025.622-.318.8a2.817,2.817,0,0,1-2.516.069c-.456-.2-.4-.6-.277-.945a1.869,1.869,0,0,1,1.857-.857A1.706,1.706,0,0,1,757.356,400.964Zm-.838-4.577a5.357,5.357,0,0,1-2.635.3.684.684,0,0,1-.656-.422c-.111-.333.071-.568.294-.8a2.671,2.671,0,0,1,3.021-.5c.33.144.724.3.744.688C757.308,396.113,756.883,396.242,756.518,396.387Zm.68-8.454a2.642,2.642,0,0,1,.621.164,2.23,2.23,0,0,1,1.593,1.99c.076.672-.348,1.037-1,.819a3.9,3.9,0,0,1-2.142-2.042C756,388.357,756.492,387.878,757.2,387.933Zm-2.961,3.221a1.667,1.667,0,0,1,1.305.121c.169.071.221.089.27.115.559.305,1.3.674,1.044,1.356-.194.52-1,.424-1.547.275-.456-.124-.974.048-1.378-.4C753.333,391.957,753.409,391.507,754.237,391.154Z" transform="translate(-732.824 -375.167)"/></g><path class="o" d="M756.032,494.3a5.965,5.965,0,0,0,.752,2.35c.263.454.426.719.751.846.685.266,1.218-.466,1.787-.188.4.2.225.6.752,1.128a2.49,2.49,0,0,0,1.41.657c.793.088,1.046-.316,1.5-.094.5.245.357.807.846,1.034s.757-.263,1.5-.188a4.11,4.11,0,0,1,1.692.94c.781.559.889.758,1.222.752.5-.011.636-.476,1.222-.659a1.985,1.985,0,0,1,1.6.282c.454.3.42.58.94.846a1.318,1.318,0,0,0,.94.188c.489-.134.434-.61.939-.845a1.693,1.693,0,0,1,1.5.188c.414.258.358.484.752.657a1.2,1.2,0,0,0,1.222-.094c.3-.278.081-.6.376-.94a1.236,1.236,0,0,1,1.316-.282c.435.182.357.54.846.846a1.319,1.319,0,0,0,1.41.094c.317-.289.017-.752.377-1.128a1.229,1.229,0,0,1,.94-.282c.506.036.565.325,1.128.47a1.7,1.7,0,0,0,1.41-.188c.365-.335.111-.718.47-1.128a1.594,1.594,0,0,1,1.6-.376c.617.2.6.7,1.222.845a1.9,1.9,0,0,0,1.128-.188,2,2,0,0,0,1.222-.846c.257-.53-.087-.93.188-1.316.246-.346.686-.185,1.034-.376.433-.237.752-1,.471-3.1Z" transform="translate(-718.936 -352.699)"/></g><path class="m" d="M783.846,398.3c-1-1.793-3.261-2.412-5.3-2.647s-4.238-.29-5.895-1.5a.914.914,0,0,1-.452-.647c-.013-.552.762-.68,1.307-.612a35.01,35.01,0,0,1,9.883,2.8,11.758,11.758,0,0,0-1.38-5.3,4.645,4.645,0,0,0-1.53-1.806c-2.735-1.7-6.832,1.718-9.339-.316a13.747,13.747,0,0,1,7.789-2.25,7.387,7.387,0,0,0-8.246-3.181c-2.581.789-4.48,2.931-6.212,4.993q1.254-3.4,2.507-6.784c-.338-.439-.674-.876-1.012-1.308a53.03,53.03,0,0,1-3.132,8.308c.97-3.033,1.314-6.475-.162-9.3s-5.242-4.561-8.011-2.985a16.816,16.816,0,0,1,5.471,6.7c.256.579.351,1.469-.256,1.644-.371.108-.735-.175-1.012-.437-1.523-1.476-2.715-3.268-4.244-4.73s-3.565-2.634-5.674-2.406a9.812,9.812,0,0,0-4.71,2.46,22.883,22.883,0,0,1,10.713,6.279c.52.54.937,1.578.263,1.894a1.247,1.247,0,0,1-1.071-.195,44.488,44.488,0,0,0-7.2-3.517,10.963,10.963,0,0,0-7.842.061,6.629,6.629,0,0,0-1.058.606,6.114,6.114,0,0,0-2.763,5.808l.081-.04a18.014,18.014,0,0,1,15.193.094,2.383,2.383,0,0,1,1.085.849.881.881,0,0,1-.27,1.214,1.316,1.316,0,0,1-.876-.027c-3.793-.983-7.809-1.644-11.615-.72a7.221,7.221,0,0,0-3.437,1.711c-1.771,1.759-1.9,4.535-1.907,7.034a47.619,47.619,0,0,1,8.18-4.244,19.679,19.679,0,0,1,3.928-1.01,13.964,13.964,0,0,1,5.134.168c.4.1.876.277.964.681.134.6-.626.956-1.233,1.077-.014,0-.02.007-.034.007q-3.536.667-7.074,1.321a24.3,24.3,0,0,0-5.788,1.59,8.16,8.16,0,0,0-4.258,4.056c-.957,2.291-.431,4.9.222,7.3a64.535,64.535,0,0,1,5.835-5.754q.888-.758,1.839-1.436a17.354,17.354,0,0,1,9.763-3.5c.768-.007,1.771.3,1.758,1.071-.013.722-.916,1.018-1.624,1.146a25.638,25.638,0,0,0-11.453,5.221c-2.359,1.894-4.488,4.467-4.589,7.486a10.15,10.15,0,0,0,2.554,6.4,44.717,44.717,0,0,1,6.1-9.379,16.351,16.351,0,0,1,9.528-5.478,1.705,1.705,0,0,1,1.145.128,1.28,1.28,0,0,1,0,1.907,4.285,4.285,0,0,1-1.967.882A19.8,19.8,0,0,0,741.54,417.4a9.239,9.239,0,0,0-1.887,4.89,4.544,4.544,0,0,0,2.493,4.34,41.272,41.272,0,0,1,3.828-7.19,13.985,13.985,0,0,1,6.2-5.127,1.432,1.432,0,0,1,1.207-.061c.822.458.215,1.718-.5,2.331-1.7,1.462-3.7,2.553-5.443,3.968a9.033,9.033,0,0,0-3.591,5.511c-.3,2.224,1.051,4.765,3.261,5.141a20.627,20.627,0,0,1,2.844-7.4c.862-1.361,2.021-2.708,3.6-3a13.124,13.124,0,0,1-2.1,4.13,10.234,10.234,0,0,0-1.872,4.218,3.761,3.761,0,0,0,1.872,3.922.95.95,0,0,0,.714.081c.277-.114.4-.417.573-.667,1.368-2.083,5.566-.816,6.415-3.154a3.476,3.476,0,0,0,.047-1.684,29.2,29.2,0,0,0-1.745-6.468,3.325,3.325,0,0,1-.365-1.819c.121-.613.823-1.152,1.375-.856a1.412,1.412,0,0,1,.485.505c2.008,3.113,1.718,7.115,1.361,10.8,1.482.714,3.341-.344,4.022-1.84a8.111,8.111,0,0,0-.006-5.342,40.112,40.112,0,0,0-2.965-7.338,4.055,4.055,0,0,1-.479-2.654c.068-.3.237-.632.54-.693.351-.075.654.228.869.511a21.781,21.781,0,0,1,4.487,15.261,6.86,6.86,0,0,0,4.029-2.843,6.584,6.584,0,0,0,.283-5.4,19.549,19.549,0,0,0-2.783-4.818c.068.323.142.64.209.964a2.9,2.9,0,0,0-.108-.351,11.276,11.276,0,0,0-1.6-3.1c-1.226-1.785-2.581-3.5-2.52-5.593a23.513,23.513,0,0,1,4.258,4.48,23.915,23.915,0,0,1,4.568,12.809c1.6-1.038,3.3-2.23,3.828-4.063a6.532,6.532,0,0,0-.411-3.988,23.733,23.733,0,0,0-4.818-7.5c-1.178-1.321-2.445-2.568-3.712-3.787a1.548,1.548,0,0,1-.632-1.159c.094-.937,1.509-.849,2.351-.41a18.4,18.4,0,0,1,3.187,2.089,19.706,19.706,0,0,1,7.021,11.891c1.576-2.533,3.22-5.559,2.162-8.347a8.585,8.585,0,0,0-3.6-3.821c-.269-.175-.539-.349-.808-.518q-3.679-2.314-7.351-4.629c-.667-.424-1.428-1.22-.983-1.874.364-.525,1.166-.377,1.772-.168,4.655,1.6,9.641,3.632,12.168,7.829.067.114.134.228.2.349.054-.162.1-.316.148-.478a33.059,33.059,0,0,0,.613-3.551A5.278,5.278,0,0,0,783.846,398.3Zm-28.3-7.027c.169.074.222.087.27.114.559.31,1.3.674,1.044,1.361-.195.518-1,.424-1.549.276-.452-.127-.97.048-1.374-.4a2.18,2.18,0,0,1-.182-.229c-.391-.546-.237-.922.485-1.24A1.677,1.677,0,0,1,755.541,391.274Zm-2.318,4.992a.769.769,0,0,1,.3-.8,2.664,2.664,0,0,1,3.018-.5c.331.141.728.289.748.687.02.458-.4.586-.768.733a5.319,5.319,0,0,1-2.634.3A.68.68,0,0,1,753.223,396.266Zm1.3,5.566c-.458-.195-.4-.593-.276-.943a1.849,1.849,0,0,1,1.853-.856,1.675,1.675,0,0,1,1.253.93c.215.31.026.619-.317.8A2.8,2.8,0,0,1,754.523,401.832Zm3.585,9.405a4.161,4.161,0,0,1-1.658-1.637.6.6,0,0,1,.1-.808,1.164,1.164,0,0,1,1.368-.094,2.05,2.05,0,0,1,1.226,1.846C759.193,411.244,758.708,411.588,758.109,411.237Zm.3-20.333a3.883,3.883,0,0,1-2.143-2.042c-.269-.505.222-.983.93-.93a2.871,2.871,0,0,1,.621.162,2.227,2.227,0,0,1,1.591,1.995C759.49,390.755,759.064,391.126,758.412,390.9Zm4.453,15.274a.529.529,0,0,1-.452.384,1.9,1.9,0,0,1-1.117-.169c-.3-.228-.916-.3-.722-.957.149-.471,1.112-.713,1.684-.458A.97.97,0,0,1,762.865,406.178Zm1.718-4a3.564,3.564,0,0,1-1.907-.235c-.478-.176-.875-.31-.915-.816s.357-.714.707-.917a2.249,2.249,0,0,1,2.971.924C765.728,401.7,765.4,402.162,764.582,402.175Zm3.005-4.554a4.785,4.785,0,0,1-3.941-1.078c-.351-.29-.242-.687.114-.977a2.6,2.6,0,0,1,2.755-.215,2.958,2.958,0,0,1,1.475,1.273C768.241,397.136,768.1,397.54,767.588,397.621Zm.525-4.036c-.316-.061-.64-.128-.963-.162a1.013,1.013,0,0,1-.9-.815.948.948,0,0,1,.628-.97,2.329,2.329,0,0,1,1.967-.035c.485.331,1.205.6,1.138,1.442C769.946,393.5,768.956,393.753,768.113,393.585Z" transform="translate(1.509 0)"/><path class="p" d="M733.569,407.561c-.654-2.392-1.179-5.006-.222-7.3a8.16,8.16,0,0,1,4.258-4.056,24.3,24.3,0,0,1,5.788-1.59q3.538-.656,7.074-1.321c.014,0,.02-.007.034-.007.188.4.02.85-.626,1.234-1.416.836-.567.694-2.682,1.4s-5.3-.283-7.1.983-3.624,1.146-3.483,3.255-.781,2.4.849,2.149a14.95,14.95,0,0,0,1.941-.505A64.536,64.536,0,0,0,733.569,407.561Z" transform="translate(1.509 3.42)"/><path class="q" d="M753.637,391.07a2.79,2.79,0,0,1-3.032,1.247c-2.116-.357-7.048-2.162-7.472-1.119-.256.626.957,1.563,2.392,2.265a19.678,19.678,0,0,0-3.928,1.01,47.623,47.623,0,0,0-8.18,4.244c.007-2.5.135-5.274,1.907-7.034a7.222,7.222,0,0,1,3.437-1.711c3.806-.924,7.822-.263,11.615.72a1.316,1.316,0,0,0,.876.027.881.881,0,0,0,.27-1.214,2.383,2.383,0,0,0-1.085-.849,18.014,18.014,0,0,0-15.193-.094l-.081.04a6.115,6.115,0,0,1,2.763-5.808c4.824-.626,9.008-.963,8.308-.141-1.55,1.833-2.393,1.692,1.7,2.816s6.5,2.9,6.192,4.359C753.4,390.148,753.246,390.525,753.637,391.07Z" transform="translate(1.621 1.322)"/><path class="r" d="M770.454,420.374a6.86,6.86,0,0,1-4.029,2.843,21.78,21.78,0,0,0-4.487-15.261c-.215-.283-.518-.586-.869-.511-.3.061-.472.39-.54.693a4.054,4.054,0,0,0,.479,2.654,40.12,40.12,0,0,1,2.965,7.338,8.112,8.112,0,0,1,.006,5.342c-.68,1.5-2.539,2.555-4.021,1.84.357-3.686.647-7.688-1.361-10.8a1.412,1.412,0,0,0-.485-.505c-.553-.3-1.254.243-1.375.856a3.327,3.327,0,0,0,.365,1.819,29.2,29.2,0,0,1,1.745,6.468,3.475,3.475,0,0,1-.048,1.684c-.849,2.338-5.046,1.071-6.415,3.154-.169.25-.3.553-.573.667a.95.95,0,0,1-.714-.081,3.761,3.761,0,0,1-1.872-3.922,10.233,10.233,0,0,1,1.872-4.218,13.126,13.126,0,0,0,2.1-4.13c-1.583.29-2.742,1.637-3.6,3a20.627,20.627,0,0,0-2.844,7.4c-2.21-.377-3.564-2.917-3.261-5.141a9.032,9.032,0,0,1,3.591-5.511c1.745-1.415,3.739-2.506,5.443-3.968.714-.613,1.321-1.873.5-2.331a1.432,1.432,0,0,0-1.207.061,13.986,13.986,0,0,0-6.2,5.127,41.272,41.272,0,0,0-3.828,7.19,4.544,4.544,0,0,1-2.493-4.34,9.239,9.239,0,0,1,1.887-4.89,19.8,19.8,0,0,1,10.915-7.729,4.285,4.285,0,0,0,1.967-.882,1.281,1.281,0,0,0,0-1.907,1.705,1.705,0,0,0-1.145-.128,16.351,16.351,0,0,0-9.528,5.478,44.722,44.722,0,0,0-6.1,9.379,10.149,10.149,0,0,1-2.553-6.4c.1-3.018,2.23-5.592,4.589-7.486a25.921,25.921,0,0,1,7.633-4.218,1.976,1.976,0,0,1-.41.8,15.484,15.484,0,0,1-3.949,3.18s-2.621,1.449-2.864,3.356-1.084,2.465.325,2.607,3.529-2.155,3.529-2.155a4.563,4.563,0,0,1,1.833-3.154,22.549,22.549,0,0,1,4.515-2.594c1.407-.559,3.1-1.624,4.224-.667s1.563.141,1.28,2.735-.41,4.993,1.482,4.919,4.016-.58,4.434-2.581a10.3,10.3,0,0,0-.424-3.558,1.9,1.9,0,0,0,1.117.169c1.6,1.725.634,2.27,1.846,3.834,1.267,1.644,1.591,3.2,2.278,2.136a7.292,7.292,0,0,1,1.987,3.086c-.068-.324-.141-.641-.209-.964a19.546,19.546,0,0,1,2.783,4.818A6.584,6.584,0,0,1,770.454,420.374Z" transform="translate(1.87 4.5)"/><path class="s" d="M770.869,410.55a6.533,6.533,0,0,1,.411,3.988c-.525,1.833-2.23,3.025-3.828,4.063a23.915,23.915,0,0,0-4.568-12.809,19.171,19.171,0,0,0,2.055-1.341,3.59,3.59,0,0,0,1.111-1.4A23.731,23.731,0,0,1,770.869,410.55Z" transform="translate(7.183 5.263)"/><path class="s" d="M775.735,403.967c1.058,2.789-.586,5.814-2.162,8.347a19.706,19.706,0,0,0-7.021-11.891,1.942,1.942,0,0,1,2.021-.742c1.212.128,2.445.3,3.564.465A8.585,8.585,0,0,1,775.735,403.967Z" transform="translate(7.875 4.623)"/><path class="o" d="M775.635,400.5c-.046.162-.094.316-.147.478-.068-.121-.136-.235-.2-.349C775.393,400.588,775.508,400.54,775.635,400.5Z" transform="translate(9.524 4.781)"/><path class="t" d="M788.1,421.057a5.3,5.3,0,0,1,.8.344l-.424.587C788.345,421.684,788.216,421.374,788.1,421.057Z" transform="translate(11.941 8.661)"/><path class="r" d="M790.052,422.429c.9,1.28,1.488,3.248,3.6,6.334-.39,1-.761,2.014-1.125,3.025-1.536-1.947-3.038-4.151-3.053-6.631A6.8,6.8,0,0,1,790.052,422.429Z" transform="translate(12.201 8.92)"/><path class="r" d="M799.485,433.074l.7-.121c-.3,1.872-.485,3.779-.647,5.673a10.123,10.123,0,0,1-4.851-4.892,7.811,7.811,0,0,1-.33-4.164C797.632,433.539,799.485,433.074,799.485,433.074Z" transform="translate(13.097 10.268)"/><path class="q" d="M804.167,431.673a8.482,8.482,0,0,0,.775,3.012,51.177,51.177,0,0,0-.411,6.42,4.557,4.557,0,0,1-3.988-3.025,9.231,9.231,0,0,1-.175-5.241q.05-.264.121-.525Z" transform="translate(14.203 10.665)"/><path class="q" d="M809.73,435.118a20.4,20.4,0,0,0,.269,7.93c-2.19.519-4.42-1.293-5.013-3.463a7.407,7.407,0,0,1,.156-4.069c.687.329,1.624.256,2.9-.641.917-.639,1.591-1.111,2.109-1.462A10,10,0,0,0,809.73,435.118Z" transform="translate(15.088 10.993)"/><path class="q" d="M814.829,417.107c1.031,2.1,3.47,3.106,5.437,4.548C816.877,419.552,809.485,420.522,814.829,417.107Z" transform="translate(16.632 7.916)"/><path class="q" d="M818.721,435.623a3.393,3.393,0,0,1,.612,1.563c.136,2.486-4.224,2.958-4.675,5.41a1.463,1.463,0,0,1-.27.836.9.9,0,0,1-.68.208,3.767,3.767,0,0,1-3.262-2.877,10.266,10.266,0,0,1,.082-4.615,18.975,18.975,0,0,0,.424-3.356v-.007c.6-.364,1.233-.741,2.761-1.765.317-.208.62-.424.911-.64A28.8,28.8,0,0,1,818.721,435.623Z" transform="translate(16.116 10.421)"/><path class="q" d="M820.479,429.628a8.072,8.072,0,0,1,2.1,4.912c-.04,1.644-1.341,3.342-2.985,3.261-.924-2.944-1.982-6.071-4.09-8.233a26.6,26.6,0,0,0,2.689-2.513A26.871,26.871,0,0,1,820.479,429.628Z" transform="translate(17.114 9.793)"/><path class="q" d="M824.736,425.122a6.557,6.557,0,0,1,1.852,5.079,6.851,6.851,0,0,1-2.594,4.192,21.57,21.57,0,0,0-4.6-7.93c1.172-1.274,2.156-3.126.5-4.952a6.066,6.066,0,0,1,.977,1.064c-.188-.269-.384-.531-.572-.8A19.238,19.238,0,0,1,824.736,425.122Z" transform="translate(17.849 8.747)"/><path class="q" d="M826.065,402.536c-.983-.02-1.96,0-2.937.061a8.4,8.4,0,0,1,.661-1.96,3.6,3.6,0,0,1,.546-.862A11.765,11.765,0,0,1,826.065,402.536Z" transform="translate(18.553 4.644)"/><path class="q" d="M823.33,408.468c-.175-2.473-.316-3.955-.31-5.081a5.59,5.59,0,0,1,4.508.722,5.176,5.176,0,0,1,1.719,2.985,23.985,23.985,0,0,1,.875,4.008A13.812,13.812,0,0,0,823.33,408.468Z" transform="translate(18.533 5.297)"/><path class="r" d="M831.122,424.389c.229,1.887-.876,3.652-1.933,5.229A24.02,24.02,0,0,0,814.83,417.3c.459-.283,1-.593,1.638-.937a24.986,24.986,0,0,1,3.187-1.469,26.933,26.933,0,0,1,9.527,5.983A6.5,6.5,0,0,1,831.122,424.389Z" transform="translate(16.987 7.498)"/><path class="q" d="M831.124,421.412a19.585,19.585,0,0,0-7.594-6.819c.216-.424.075-1.482-.074-4.089.215.04.432.074.647.107,2.076.338,4.3.755,5.748,2.272C831.912,415.045,831.589,418.467,831.124,421.412Z" transform="translate(18.616 6.669)"/><path class="r" d="M758.554,454.275c.007.081.061.182-.026.229-.048.027-.149-.007-.2-.048a32.3,32.3,0,0,1-3.793-2.789,2.752,2.752,0,0,1-.876-2.709,11.863,11.863,0,0,1,4.157-6.859c.539-.458,1.145-.814,1.7-1.246a.632.632,0,0,0,.1-.074c.162-.209.432-.405.255-.708a.6.6,0,0,0-.775-.188,9.618,9.618,0,0,0-2.566,1.314,11.028,11.028,0,0,0-3.591,4.649,5.945,5.945,0,0,0-.432,1.967,4.112,4.112,0,0,1-.188.882,8.87,8.87,0,0,1-.971-1.462,12.047,12.047,0,0,1-1.63-4.264,4.878,4.878,0,0,1,.081-2.237v-.007c1.69-.735,3.773-.728,3.011,1.186-1.132,2.822-3.106,3.1-1.132,3.288s4.265-6.313,5.99-6.637,3.786,2.594,3.786,2.594-5.45,3.577-4.6,6.016a17.825,17.825,0,0,0,1.692,3.464A12.9,12.9,0,0,0,758.554,454.275Z" transform="translate(4.682 11.961)"/><path class="q" d="M765.7,450.917a1.822,1.822,0,0,1-.95,1.637,5.983,5.983,0,0,0-2,1.692c-.048.074-.128.149-.128.222-.013.66-.344.377-.647.242a20.95,20.95,0,0,1-2.129-.99A3.747,3.747,0,0,1,758,450.061c.842.937,1.7,1.368,2.344.606,1.51-1.785.384-1.879,2.169-1.6,1.172.189,2.149-.162,2.891.075A5,5,0,0,1,765.7,450.917Z" transform="translate(6.26 13.925)"/></g></svg>