<svg xmlns="http://www.w3.org/2000/svg" width="628.664" height="282.34" viewBox="0 0 628.664 282.34"><defs><style>.a{fill:#ffdeb5;}.b{fill:#ffcd8f;}.c{fill:#fcbd47;}.d{fill:#ffae1c;}.e,.f,.g,.p,.q{fill:none;}.f,.g,.p,.q{stroke:#670617;}.f,.p{stroke-linecap:round;}.f,.g,.p,.q,.r{stroke-miterlimit:10;}.f,.g{stroke-width:1.28px;}.h{fill:#670617;}.i,.r{fill:#fff;}.i{opacity:0.3;}.j{fill:#ffa3ea;}.k{fill:#51dfe1;}.l{opacity:0.2;}.m{fill:#318787;}.n{fill:#7e8f4d;}.o{opacity:0.1;}.p{stroke-width:1.198px;}.q{stroke-width:1.355px;}.r{stroke:#36a5ad;stroke-width:4px;}.s{fill:#4a566b;font-size:17px;font-family:FiraGO-Book, FiraGO;}</style></defs><g transform="translate(-504.516 -98.96)"><g transform="translate(611.052 193.259)"><g transform="translate(28.471 145.009)"><path class="a" d="M651.79,361.574l.806,5.3,8.058-.663-2.418-4.639-2.015-1.988Z" transform="translate(-634.277 -329.057)"/><path class="a" d="M662.16,342.367c-.141,2.342-.395,4.993-.83,7.783-.036.232-.072.46-.109.689a73.867,73.867,0,0,1-2.131,10.132,6.884,6.884,0,0,1-.8,1.653h-6.447l-.58-9.31-.512-11.6-.512-11.6,11.975,3.121A76.538,76.538,0,0,1,662.16,342.367Z" transform="translate(-634.333 -330.107)"/><path class="b" d="M662.142,341.968c-.141,2.342-.395,4.993-.83,7.783-.036.232-.072.46-.109.689a27.941,27.941,0,0,1-9.956,2.475l-.512-11.6Z" transform="translate(-634.315 -329.708)"/><path class="a" d="M645.3,361.574l-.806,5.3-8.058-.663,2.417-4.639,2.015-1.988Z" transform="translate(-634.824 -329.057)"/><path class="a" d="M635.042,342.367c.141,2.342.395,4.993.829,7.783.036.232.073.46.109.689a73.878,73.878,0,0,0,2.131,10.132,6.884,6.884,0,0,0,.8,1.653h6.447l.58-9.31.512-11.6.512-11.6-11.975,3.121A76.268,76.268,0,0,0,635.042,342.367Z" transform="translate(-634.88 -330.107)"/><path class="b" d="M635.036,341.968c.141,2.342.395,4.993.829,7.783.036.232.073.46.109.689a27.94,27.94,0,0,0,9.956,2.475l.512-11.6Z" transform="translate(-634.874 -329.708)"/></g><path class="c" d="M651.782,361.505s-4.031,5.843-.224,7.892h17.569s3.232-6.428-10.824-7.892a6.257,6.257,0,0,1-3.539,1.657A2.639,2.639,0,0,1,651.782,361.505Z" transform="translate(-605.873 -183.98)"/><path class="c" d="M645.619,361.505s4.031,5.843.224,7.892H628.274s-3.174-6.428,10.882-7.892a5.949,5.949,0,0,0,3.482,1.657A2.638,2.638,0,0,0,645.619,361.505Z" transform="translate(-606.655 -183.98)"/><path class="c" d="M642.974,210.466s-8.357-12.262,5.98-17.914c30.454-12.006,55.632,21.17,42.784,70.01-5.6,21.267-13.613,29.819-13.613,29.819s-9.952-3.492-18.151-5.835-16.225-44.743-16.518-57.334S642.974,210.466,642.974,210.466Z" transform="translate(-606.207 -190.085)"/><path class="c" d="M652.141,218.415s7.165-11.019-5.127-16.1c-26.11-10.788-47.7,19.024-36.681,62.911,4.8,19.112,11.671,26.8,11.671,26.8s13-2.4,20.028-4.508,9.446-40.941,9.7-52.256S652.141,218.415,652.141,218.415Z" transform="translate(-607.388 -189.728)"/><path class="d" d="M682.966,234.322s1.657,52.682-26.175,55.332S615.376,275.407,623,233,682.966,234.322,682.966,234.322Z" transform="translate(-606.907 -189.216)"/><g transform="translate(31.999 76.755)"><path class="a" d="M662.468,305.444c-.3,3.22-10.711,10.294-10.711,10.294s-14.055-5.854-12.591-13.468c.905-4.7.358-17.773-.2-27.086-.341-5.775-.682-10.106-.682-10.106l23.134-.878c-.884,3.545-1.06,9.6-.951,15.937C660.652,290.557,662.65,303.439,662.468,305.444Z" transform="translate(-638.287 -264.2)"/><path class="b" d="M660.47,280.137c-6.769.093-16.951-3.3-21.5-4.953-.341-5.775-.682-10.106-.682-10.106l23.134-.878C660.536,267.745,660.36,273.8,660.47,280.137Z" transform="translate(-638.287 -264.2)"/></g><path class="a" d="M681.668,240.437c0,17.951-10.5,32.5-29.041,32.5s-30.252-14.552-30.252-32.5,11.707-32.5,30.252-32.5S681.668,222.485,681.668,240.437Z" transform="translate(-606.854 -189.449)"/><path class="e" d="M634.894,234.512" transform="translate(-606.408 -188.503)"/><path class="f" d="M656.773,255.117c3.789-6.33-12.006,0-12.006,0S650.8,265.1,656.773,255.117Z" transform="translate(-606.057 -187.869)"/><g transform="translate(53.669 48.059)"><path class="g" d="M668.191,242.054c0-3.073-2.01-5.563-4.49-5.563s-4.489,2.491-4.489,5.563" transform="translate(-659.211 -236.491)"/><circle class="h" cx="2.593" cy="2.593" r="2.593" transform="translate(0.747 0.433)"/></g><path class="g" d="M642.527,242.054c0-3.073-2.01-5.563-4.49-5.563s-4.489,2.491-4.489,5.563" transform="translate(-606.456 -188.432)"/><circle class="h" cx="2.593" cy="2.593" r="2.593" transform="translate(27.838 48.492)"/><path class="d" d="M680.738,240.781s5.769,3.82,6.1,7.133c0,0,3.459-7.612-.755-20.04s-6.455,6.047-6.455,6.047Z" transform="translate(-604.815 -188.892)"/><path class="c" d="M640.125,206.94c-.586.293,16.1,31.091,40.264,30.773,4.245-.026,7.467,4.952,7.467,4.952s2.049-15.813-4.978-27.234c-9.4-15.268-24.3-18.447-31.333-15.813A32.964,32.964,0,0,0,640.125,206.94Z" transform="translate(-606.223 -189.775)"/><path class="i" d="M649.1,207.988s23.65-9.371,32.727,17.276c0,0-11.128-.292-19.62-6.442S653.266,207.4,649.1,207.988Z" transform="translate(-605.903 -189.504)"/><path class="d" d="M618.834,227.726a33.9,33.9,0,0,0-2.305,14.739s5.067-4.127,5.681-4.051l.283-.919.663-4.97Z" transform="translate(-607.066 -188.744)"/><path class="c" d="M640.9,206.7s8.784,13.47-13.47,25.476c-8.2,3.514-9.078,7.028-9.078,7.028S616.3,197.918,640.9,206.7Z" transform="translate(-606.999 -189.537)"/><path class="i" d="M635.357,210.76s-10.543,0-13.47,17.57a16.978,16.978,0,0,0,9.663-7.907C634.771,214.274,635.357,210.76,635.357,210.76Z" transform="translate(-606.872 -189.349)"/><path class="j" d="M672.372,296.489a136.9,136.9,0,0,1-2.465,14.684,51,51,0,0,1-2.621,8.445,12.308,12.308,0,0,1-2.534,4.039,42.715,42.715,0,0,1-13.9,1.744,88.477,88.477,0,0,1-15.918-2.737,40.959,40.959,0,0,1-1.74-4.076,54.438,54.438,0,0,1-1.975-6.523,45.081,45.081,0,0,1-1.255-10.274c0-11.265,9.645-21.868,9.645-21.868s5.6,8.946,10.566,11.265c0,0,8.395-7.216,10.743-11.265Z" transform="translate(-606.584 -186.885)"/><path class="j" d="M640.016,279.932s-17.23-3.313-19.217,12.26-3.314,19.217-3.314,19.217l11.265,4.307,8.614-11.265Z" transform="translate(-607.028 -186.896)"/><path class="k" d="M635.081,321.194s-5.3,17.891-9.277,23.524a64.187,64.187,0,0,0,25.511,4.307,93.027,93.027,0,0,0,24.188-4.307s-8.947-10.934-10.6-22.531c0,0-8.163,2.874-15.85,2.133C643.809,323.815,638.529,323.151,635.081,321.194Z" transform="translate(-606.732 -185.416)"/><path class="l" d="M633.15,317.631a54.438,54.438,0,0,1-1.975-6.523,20.625,20.625,0,0,0,2.389-4.31S633,313.393,633.15,317.631Z" transform="translate(-606.541 -185.928)"/><path class="l" d="M668.624,310.193A51,51,0,0,1,666,318.638c.682-4.151,1.11-11.2,1.11-11.2A12.054,12.054,0,0,0,668.624,310.193Z" transform="translate(-605.3 -185.906)"/><path class="l" d="M639.251,322.959s-.663-3.508,0-5.379c0,0,.136,4.947,2.329,5.719h1.257a3.248,3.248,0,0,1-.468-1.976s.994,2.338,1.988,2.4,4.093.41,4.093.41,1.188-.234,1.909-2.046c0,0,.215,1.929-.174,2.279s3-.505,3-.505a6.47,6.47,0,0,0,2.046-3.236s-.238,3.019-.935,3.827,1.929-.435,1.87-.26a6.51,6.51,0,0,0,1.754-2.28,8.61,8.61,0,0,1-.818,2.455,28.386,28.386,0,0,0,3.684-.7s2.338-2.523,2.4-5.384c0,0,.234,4.25-.526,5.022s-10.291,1.424-10.291,1.424l-9.355-.71Z" transform="translate(-606.264 -185.544)"/><path class="m" d="M634.776,321.194s17.891,4.97,29.82.993l.292,1.687a63,63,0,0,1-30.52-1.34Z" transform="translate(-606.427 -185.416)"/><path class="a" d="M669.759,314.592s-5.556-1.519-7.6-4.092-1.726-6.812-5.938-8.1c-2.69-.467,1.083,2.544.645,4.269-.238.936-5.294-3.829-6.083-3.273-1.023,1.9,2.224,3.158,3.92,4.56,0,0-5.878-3.653-6.112-2.308s3.744,3.976,4.885,4.59c0,0-5.323-2.865-5.352-1.9s2.807,2.982,4.709,4c0,0-4.007-1.665-4.591-1.49s1.842,2.954,6.053,4.239a77.005,77.005,0,0,1,11.054,4.968,56.363,56.363,0,0,0,8.061,4.471l2.854-7.7A57.123,57.123,0,0,1,669.759,314.592Z" transform="translate(-605.937 -186.087)"/><path class="a" d="M630.283,307.263s5.494-1.776,7.38-4.493,1.272-7.049,5.426-8.533c2.679-.585-.915,2.65-.355,4.4.3.95,5.07-4.133,5.9-3.595,1.161,1.908-2.023,3.323-3.635,4.828,0,0,5.671-3.976,6-2.607s-3.5,4.222-4.606,4.9c0,0,5.166-3.146,5.262-2.158s-2.624,3.167-4.469,4.291c0,0,3.922-1.865,4.523-1.709s-1.653,3.1-5.808,4.583a74.594,74.594,0,0,0-10.8,5.527,54.462,54.462,0,0,1-7.815,4.9l-3.405-7.774A55.426,55.426,0,0,0,630.283,307.263Z" transform="translate(-606.8 -186.378)"/><path class="a" d="M626.109,309.177s-7.69.076-8.615,2.953.415,10.378,9.654,5.282S626.109,309.177,626.109,309.177Z" transform="translate(-607.037 -185.844)"/><path class="a" d="M670.625,311.055s2.062,4.378,2.58,5.6-.6,7.741-.6,7.741,7.8,3.1,9.559-3.172-2.872-15.08-2.872-15.08Z" transform="translate(-605.136 -185.952)"/><path class="j" d="M659.853,279.932s18.413-3.313,20.4,12.26,3.314,19.217,3.314,19.217L672.3,315.716l-8.614-11.265Z" transform="translate(-605.519 -186.896)"/></g><g transform="translate(504.516 183.46)"><g transform="translate(22.537 70.254)"><path class="a" d="M551.886,292.138c-.313,3.41-11.344,10.9-11.344,10.9s-14.885-6.2-13.334-14.264c.958-4.979.379-18.821-.207-28.684-.361-6.115-.723-10.7-.723-10.7l24.5-.929c-.937,3.754-1.123,10.168-1.007,16.876C549.963,276.373,552.078,290.015,551.886,292.138Z" transform="translate(-526.278 -248.461)"/><path class="b" d="M549.77,265.337c-7.169.1-17.951-3.491-22.769-5.245-.361-6.115-.723-10.7-.723-10.7l24.5-.929C549.839,252.215,549.654,258.629,549.77,265.337Z" transform="translate(-526.278 -248.461)"/></g><path class="k" d="M536.857,362.847s4.962,7.132.93,9.3H519.18s-4.651-6.822,10.234-8.372l6.2-5.893Z" transform="translate(-504.018 -174.31)"/><path class="n" d="M539.789,330.338l-1.86,34.421h-8.684c-1.551-1.835-3.165-9.12-4.467-16.519-1.562-8.87-2.667-17.9-2.667-17.9Z" transform="translate(-503.889 -175.291)"/><path class="k" d="M542.86,362.847s-4.962,7.132-.93,9.3h18.606s4.652-6.822-10.233-8.372l-6.2-5.893Z" transform="translate(-503.24 -174.31)"/><path class="n" d="M557.756,330.338s-1.1,8.989-2.655,17.838c-.2,1.137-.407,2.273-.621,3.385-1.175,6.152-2.537,11.639-3.857,13.2h-8.684l-1.86-34.421Z" transform="translate(-503.249 -175.291)"/><path class="o" d="M557.427,330.338s-1.1,8.989-2.655,17.838c-6.253-2.955-5.751-12.856-5.06-17.838Z" transform="translate(-502.92 -175.291)"/><path class="o" d="M524.779,348.24c-1.562-8.87-2.667-17.9-2.667-17.9h7.859C530.669,335.359,531.172,345.363,524.779,348.24Z" transform="translate(-503.889 -175.291)"/><path class="a" d="M570.972,225.683c0,19.011-10.759,34.422-29.77,34.422s-31.011-15.411-31.011-34.422,12-34.422,31.011-34.422S570.972,206.673,570.972,225.683Z" transform="translate(-504.314 -180.244)"/><path class="e" d="M522.169,219.409" transform="translate(-503.887 -179.242)"/><path class="p" d="M532.949,237.459s7.087,5.419,12.714,0" transform="translate(-503.503 -178.599)"/><path class="k" d="M520.112,304.124l6.823,28.449s17.056,5.287,29.771,0,2-58.576,2-58.576l-31.9-.13-9.486,18.173Z" transform="translate(-504.06 -177.302)"/><path class="k" d="M526.5,262.488s8.373,3.227,14.575,2.933,10.854-3.812,12.094-4.105,3.1,7.918,1.861,14.957-27.289,4.4-28.53,1.173S524.328,261.608,526.5,262.488Z" transform="translate(-503.779 -177.75)"/><path class="c" d="M554.767,194.743c-14.309-2.569-25.008,6.3-32.253,16.2-1.358,1.853-2.593,3.744-3.713,5.6a90.282,90.282,0,0,0-7.891,16.88s-11.561-36.776,8.348-49.134S555.005,194.784,554.767,194.743Z" transform="translate(-504.407 -180.623)"/><path class="c" d="M571.326,227.311v0a16.522,16.522,0,0,1-2.017,5.541,69.288,69.288,0,0,0-4.018-21.983l0-.007c-3.523-9.308-10.144-18.241-22.569-19.2a37.074,37.074,0,0,1,5.39-3.3,32.447,32.447,0,0,1,3.368-1.471c5.621-2.063,12.6-2.571,16.642,4.769C573.932,202.236,573.318,218.5,571.326,227.311Z" transform="translate(-503.155 -180.447)"/><path class="d" d="M522.383,210.3c-1.358,1.853-2.593,3.744-3.713,5.6a27.213,27.213,0,0,1-7.432-1.453s1.071-9.761,9.948-14.881C527.036,196.187,524.674,204.345,522.383,210.3Z" transform="translate(-504.276 -179.977)"/><path class="c" d="M552.473,193.445s-9.4,17.281-23.818,19.34-15.1,0-15.1,0S519.312,179.6,552.473,193.445Z" transform="translate(-504.194 -180.287)"/><path class="i" d="M546.094,194.018s-11.52,10.4-25.25,12.455C520.844,206.474,524.663,191.859,546.094,194.018Z" transform="translate(-503.934 -180.154)"/><path class="d" d="M570.55,226.44v0a16.522,16.522,0,0,1-2.017,5.541A69.288,69.288,0,0,0,564.514,210C564.676,210.268,569.852,218.833,570.55,226.44Z" transform="translate(-502.379 -179.577)"/><path class="d" d="M552.677,192.348l-4.755-3.951v-.077a32.447,32.447,0,0,1,3.368-1.471A35.517,35.517,0,0,1,552.677,192.348Z" transform="translate(-502.97 -180.401)"/><path class="l" d="M530.154,332.989l2.556-.195a10.16,10.16,0,0,0-1.027-9.553c-3.285-4.529-8.463-12.181-9.424-16.553s2.209,18.9,2.209,18.9Z" transform="translate(-503.89 -176.153)"/><g transform="translate(0 96.789)"><path class="a" d="M531.092,332.7c3.409,1.385,7.532.023,10.526,3.858,1.557,2.537-2.99-.44-4.542.417-.842.465,5.983,4.275,5.746,5.19-1.492,1.478-4.067-1.414-6.161-2.74,0,0,6.044,4.9,4.79,5.458s-5.5-2.711-6.58-3.685c0,0,5.027,4.542,4.071,4.808s-4.127-2.033-5.923-3.655c0,0,3.293,3.54,3.353,4.159s-3.707-1.089-6.7-4.924a98.537,98.537,0,0,0-9.457-9.675l3.7-5.7S527.684,331.318,531.092,332.7Z" transform="translate(-503.957 -272.227)"/><path class="k" d="M531.9,336.846c-.007.033-.018.036-.045.069-.436.614-.492.969-1.2,1.427-4.424,2.854-7.87,2.117-11.845-1.171-12.628-10.457-18.214-41.3-11.291-51.476,5.793-8.519,8.779-9.96,13.256-10.547,1.615-.212,3.425-.312,5.632-.6.92-.116,1.906-.265,2.979-.467l-.3,1.861-.473,3.011-4.607,29.192a54.168,54.168,0,0,0,7.26,21.262C533.138,332.4,532.637,333.919,531.9,336.846Z" transform="translate(-504.516 -274.084)"/><path class="l" d="M540.225,279.39a51.271,51.271,0,0,1-12.168-.45c-3.253-.6-6.291-1.733-7.843-3.8v0c1.615-.212,3.425-.312,5.632-.6.158.08.247.126.247.126s.961.545,2.438,1.268C531.545,277.4,536.706,279.6,540.225,279.39Z" transform="translate(-503.957 -274.068)"/></g><path class="l" d="M553.222,333.168s-2.333-1.951-2.2-6.47,6.731-18.193,7.97-24.751,0,28.68,0,27.926S553.222,333.168,553.222,333.168Z" transform="translate(-502.86 -176.331)"/><g transform="translate(45.297 96.563)"><path class="a" d="M557.193,329.241c-2.823,1.927-7.292,1.407-8.862,5.56-.628,2.669,2.744-.964,4.548-.444.978.282-4.314,5.116-3.766,5.932,1.959,1.112,3.451-2.075,5.02-3.706,0,0-4.158,5.708-2.746,6.006s4.392-3.558,5.1-4.671c0,0-3.3,5.19-2.276,5.265s3.294-2.669,4.471-4.523c0,0-1.961,3.929-1.8,4.523s3.215-1.7,4.784-5.856a75.7,75.7,0,0,1,5.8-10.826l-5.565-4.673S560.017,327.314,557.193,329.241Z" transform="translate(-548.255 -272.158)"/><path class="k" d="M568.863,330.784c-1.1,3.328-6,5.269-10.364,3.982a5.023,5.023,0,0,1-1.741-.836c-.028-.021-.053-.04-.077-.06a6.472,6.472,0,0,1-2.5-6.365c1-4.7,3.049-15.259,2.579-21.106l-2.937-29.634-.175-1.755-.1-.956a6.681,6.681,0,0,1,.92-.139,15.168,15.168,0,0,1,5.783.68c3.5,1.078,7.958,3.64,12.319,9.463C579.926,293.876,572.354,320.2,568.863,330.784Z" transform="translate(-548.066 -273.866)"/><path class="l" d="M560.339,274.6c-1.523,1.778-4.32,2.163-6.432,2.17a17.375,17.375,0,0,1-2.771-.2,4.689,4.689,0,0,0,2.6-1.553,7.952,7.952,0,0,0,.824-1.095A15.168,15.168,0,0,1,560.339,274.6Z" transform="translate(-548.152 -273.866)"/></g><g transform="translate(46.148 40.112)"><path class="q" d="M558.587,225.248c0-3.254-2.129-5.892-4.756-5.892s-4.754,2.638-4.754,5.892" transform="translate(-549.077 -219.356)"/><circle class="h" cx="2.746" cy="2.746" r="2.746" transform="translate(1.786 0.458)"/></g><g transform="translate(18.001 40.112)"><path class="q" d="M531.408,225.248c0-3.254-2.128-5.892-4.755-5.892s-4.755,2.638-4.755,5.892" transform="translate(-521.898 -219.356)"/><circle class="h" cx="2.746" cy="2.746" r="2.746" transform="translate(1.786 0.458)"/></g></g><g transform="translate(688.477 100.96)"><path class="r" d="M699.615,188.179l.089-31a4.5,4.5,0,0,0-.089-1.009A55.368,55.368,0,0,1,754.82,100.96h314.827a55.368,55.368,0,0,1,55.206,55.207v-2.045a55.368,55.368,0,0,1-55.206,55.206H771.552l-89.4,35.08Z" transform="translate(-682.151 -100.96)"/><text class="s" transform="translate(48.039 59.977)"><tspan x="0" y="0" xml:space="preserve">კოტიკო,  აი,  ჩვენი ოთახის მცენარეები!</tspan><tspan x="0" y="20"></tspan></text></g></g></svg>