<svg xmlns="http://www.w3.org/2000/svg" width="139.132" height="169.323" viewBox="0 0 139.132 169.323"><defs><style>.a{fill:#1d1f1d;}.b,.d,.e,.f,.g,.h,.l{fill:none;}.b,.d,.e,.f,.g,.h{stroke:#08402d;stroke-miterlimit:10;}.b{stroke-width:2.801px;}.c{fill:#08402d;}.d{stroke-width:1.831px;}.e{stroke-width:1.571px;}.f{stroke-width:1.815px;}.g{stroke-width:1.236px;}.h{stroke-width:2.323px;}.i{fill:#0a4f38;}.j{fill:#072e20;}.k{fill:#083626;}.m{fill:#0a422f;}.n{fill:#c5e3c5;}.o{fill:#313431;}</style></defs><g transform="translate(-467.439 -374.018)"><g transform="translate(467.439 374.018)"><path class="a" d="M495.607,461.423s8.425-8.175,38.821-4.382c0,0,10.958,1.566,11.271,4.382,0,0-13.776,14.246-27.394,9.549S495.607,468.467,495.607,461.423Z" transform="translate(-458.414 -347.74)"/><path class="b" d="M483.048,420.636s-1.961,44.03,31.927,61.107" transform="translate(-462.445 -359.082)"/><path class="c" d="M512.383,478.189l-1.95.726c-.518-1.929-1.015-3.786-1.483-5.694a49.012,49.012,0,0,1-1.151-5.786c-.073-.489-.1-1.006-.155-1.493-.073-.436-.115-.871-.207-1.328-.187-.912-.395-1.825-.643-2.748l-.28-1.089c-.384-1.472-.778-2.966-1.183-4.448-.508-1.929-1.047-3.848-1.6-5.756l-.28-1c-.416-1.452-.831-2.893-1.245-4.345l-.591-2.043-.227-.778-2.386-8.255,1.67-.529.31-.1a.5.5,0,0,0,.042.114q1.82,5.429,3.5,10.921c1.12,3.692,2.156,7.414,3.141,11.157.271,1.079.54,2.158.788,3.247.177.808.353,1.618.5,2.437.177.953.322,1.938.457,2.923.062.5.073,1.027.113,1.546.021.466.011.923.052,1.389A32.493,32.493,0,0,0,512.383,478.189Z" transform="translate(-457.325 -354.953)"/><path class="d" d="M521.4,432.424s-4.314,22.667-5.844,32.736c-.848,5.584-2.785,12.6-2.785,12.6" transform="translate(-452.915 -355.305)"/><path class="e" d="M501.49,402.138a62.115,62.115,0,0,1,11.028,23.547c3.087,13.869-.086,62.923-.086,62.923" transform="translate(-456.529 -365.009)"/><path class="f" d="M525.215,401.209c.346-.209,8.753,6.29,8.595,22.262-.217,21.953-18.006,65.181-18.006,65.181" transform="translate(-451.943 -365.308)"/><path class="g" d="M537.4,441.869s-5.239-4.736-8.942,11.8-5.437,29.372-5.437,29.372" transform="translate(-449.633 -352.481)"/><path class="h" d="M555.418,408.505c1.1.358,10.654,23.764-2.738,50.135-7.567,14.9-32.549,27.08-32.549,27.08" transform="translate(-450.557 -362.969)"/><g transform="translate(0 53.866)"><path class="i" d="M467.481,434.019c.028.375.066.746.108,1.109a14.347,14.347,0,0,1,10.756-5.822,2.032,2.032,0,0,1,1.165.194.77.77,0,0,1,.318,1.023,1.153,1.153,0,0,1-.658.372,23.679,23.679,0,0,0-8.864,4.318,5.034,5.034,0,0,0-1.62,2.156c-.466,1.442.191,3,1,4.285a18.074,18.074,0,0,1,10.423-8.138c.154-.045.35-.077.453.046.127.152,0,.376-.137.522a17.353,17.353,0,0,1-4.786,3.141,9.467,9.467,0,0,0-4.252,3.739c-.857,1.717-.5,4.17,1.211,5.041a15.69,15.69,0,0,1,7.719-8.223.658.658,0,0,1,.636-.058.537.537,0,0,1,.173.491c-.061.883-.907,1.468-1.635,1.975a17.975,17.975,0,0,0-5.006,5.308,3.234,3.234,0,0,0-.558,1.409c-.089,1.212,1.025,2.132,2.024,2.827.936-2.511,2.015-5.2,4.291-6.616a1,1,0,0,1,.718-.2.743.743,0,0,1,.429.948,2.269,2.269,0,0,1-.7.92,27.639,27.639,0,0,0-3.08,3.446,2.688,2.688,0,0,0-.676,1.479c-.022.978.918,1.662,1.724,2.218s1.669,1.413,1.406,2.356a2.493,2.493,0,0,0,2.892-1.458,6.516,6.516,0,0,0,.322-3.492,9.473,9.473,0,0,1,.019-3.531c1.892,2.452,1.414,5.917.842,8.96,1.3-.2,2.752-.512,3.442-1.628a3.933,3.933,0,0,0,.347-2.577,12.255,12.255,0,0,0-1.9-5.118,7.07,7.07,0,0,1-1.309-2.477,1.019,1.019,0,0,1,.172-.889c.448-.467,1.225,0,1.627.51,2.295,2.9,2.275,6.948,2.147,10.648a3.036,3.036,0,0,0,2.738-1.525,5.68,5.68,0,0,0,.691-3.182c-.128-3.7-2.255-7.077-4.9-9.671a2.686,2.686,0,0,1-.755-1,.865.865,0,0,1,.393-1.08,1.182,1.182,0,0,1,1.052.288,11.825,11.825,0,0,1,4.294,6.391,28.355,28.355,0,0,1,.926,7.764c2.167-.248,3.78-2.357,4.04-4.524a10.149,10.149,0,0,0-1.678-6.2,17.817,17.817,0,0,0-4.8-5.4,2.3,2.3,0,0,1-.787-.774.723.723,0,0,1,.243-.969.986.986,0,0,1,.776.084,11.714,11.714,0,0,1,5.465,5.279,34.929,34.929,0,0,1,2.711,7.236c1.291-1.485,2.661-3.186,2.555-5.152a6.193,6.193,0,0,0-1.87-3.7c-2.092-2.268-4.821-3.84-7.152-5.86-.281-.244-.561-.695-.279-.935a.638.638,0,0,1,.536-.067,10.944,10.944,0,0,1,5.735,3.318,32.647,32.647,0,0,1,3.976,5.418c.759-1.475,1.541-3.12,1.135-4.73a5.687,5.687,0,0,0-2.437-3.036,15.286,15.286,0,0,0-6.745-2.653c-.355-.049-.782-.136-.9-.473-.2-.545.59-.891,1.169-.9a12.158,12.158,0,0,1,9.758,4.677,6.549,6.549,0,0,1,.164-1.3,8.519,8.519,0,0,0-.087-1.64,5.139,5.139,0,0,0-.656-2.316,6.344,6.344,0,0,0-4.266-2.449c-2.12-.343-4.291-.007-6.437-.123a.725.725,0,0,1-.58-.219c-.244-.347.221-.755.615-.914a15.508,15.508,0,0,1,8.889-.778c-.061-2.121-2.365-3.59-4.485-3.589s-4.081,1.035-6,1.936c-.283.133-.64.258-.886.063-.384-.305-.024-.912.354-1.224a12.4,12.4,0,0,1,5.643-2.63,4.813,4.813,0,0,0-7.425.572c-.935,1.34-1.126,3.045-1.7,4.575a.83.83,0,0,1-.341.481c-.52.263-.866-.566-.907-1.147a7.2,7.2,0,0,0-2.68-5.319,4.9,4.9,0,0,0-5.725-.147,9.518,9.518,0,0,1,4.209,3.9c-2.117.37-3.5-2.534-5.637-2.749A3.541,3.541,0,0,0,473.884,418a27.666,27.666,0,0,0-1.9,2.412,33.757,33.757,0,0,1,6.708,1.13c.587.161,1.287.479,1.307,1.088.022.743-3.383-.254-3.721-.347-1.682-.467-3.7-1.471-5.342-.354a3.882,3.882,0,0,0-1.159,1.385,7.071,7.071,0,0,0-.815,2.275c-.25,1.615,1.526.345,2.247.137a16,16,0,0,1,8.091-.182c1.051.255,1.4,1.134.137,1.458-2.712.7-5.626.2-8.333.911a5.183,5.183,0,0,0-2.465,1.319C467.462,430.462,467.352,432.272,467.481,434.019Z" transform="translate(-467.439 -414.813)"/><path class="i" d="M468.4,423.915c0,.016.012.033.019.05l.05-.125C468.4,423.81,468.409,423.872,468.4,423.915Z" transform="translate(-467.13 -411.924)"/><path class="i" d="M468.456,423.84l.015.005h0l0-.015h-.013Z" transform="translate(-467.113 -411.924)"/></g><path class="j" d="M508.452,458.938a5.47,5.47,0,0,0-1.8,1.607c-.042.073-.115.135-.135.207-.384-1.472-.778-2.966-1.183-4.448-.508-1.929-1.047-3.848-1.6-5.756a2.224,2.224,0,0,0,.051-.239.708.708,0,0,0-.259-.716.314.314,0,0,0-.073-.041c-.416-1.452-.831-2.893-1.245-4.345l-.591-2.043a.422.422,0,0,0,.083-.54.467.467,0,0,0-.31-.238l-2.386-8.255,1.67-.529a.574.574,0,0,0,.353.011q1.82,5.429,3.5,10.921c1.12,3.692,2.156,7.414,3.141,11.157C507.935,456.77,508.2,457.848,508.452,458.938Z" transform="translate(-457.325 -354.928)"/><path class="c" d="M491.857,439.752c.045.007.066.016.074.01.426-.349.862-.687,1.277-1.048a9.143,9.143,0,0,1,6.923-2.1,2.048,2.048,0,0,1,.78.314.358.358,0,0,1,.177.411.587.587,0,0,1-.539.4,12.869,12.869,0,0,0-1.829.338,13.939,13.939,0,0,0-5.448,3.824,4.093,4.093,0,0,0-.791,3.651,13.3,13.3,0,0,0,1.812,4.731,9.676,9.676,0,0,0,1.076,1.631,4.537,4.537,0,0,0,.207-.985,6.61,6.61,0,0,1,.479-2.185,12.276,12.276,0,0,1,3.988-5.16,10.911,10.911,0,0,1,2.857-1.463.673.673,0,0,1,.858.214c.194.331-.107.551-.285.782a.544.544,0,0,1-.116.084c-.617.479-1.294.873-1.888,1.385a13.165,13.165,0,0,0-4.62,7.619,3.06,3.06,0,0,0,.973,3.009,36.606,36.606,0,0,0,4.217,3.1.268.268,0,0,0,.218.053c.1-.054.042-.166.032-.256a11.986,11.986,0,0,1,.494-5.893,5.2,5.2,0,0,1,2.146-2.8c.219-.128.432-.269.654-.12a.717.717,0,0,1,.26.724,2.707,2.707,0,0,1-.611,1.211,8.324,8.324,0,0,0-1.793,4.191,4.206,4.206,0,0,0,2.043,4.246,22.673,22.673,0,0,0,2.361,1.1c.341.151.709.466.721-.265,0-.083.088-.166.14-.246a6.565,6.565,0,0,1,2.224-1.88,2.046,2.046,0,0,0,1.059-1.822,6.736,6.736,0,0,0-1.582-4.228,1.687,1.687,0,0,1-.46-1.118c.02-.5.267-.652.708-.413a5.231,5.231,0,0,1,2.175,2.638,16.956,16.956,0,0,1,.993,2.979c.057.232.125.367.37.139a21.076,21.076,0,0,0,2.325-2.382,4.281,4.281,0,0,0,.683-4.718,13.039,13.039,0,0,0-3.376-4.278,20.089,20.089,0,0,0-2.326-1.67.712.712,0,0,1-.341-.865c.144-.366.5-.4.85-.347a2.452,2.452,0,0,1,.552.139,12.456,12.456,0,0,1,2.768,1.592,13.012,13.012,0,0,1,3.349,3.519,6.408,6.408,0,0,1,.97,2.96,14.347,14.347,0,0,0,1.645-5.287,7.482,7.482,0,0,0-.879-4.378,6.95,6.95,0,0,0-3.5-2.8,37.844,37.844,0,0,0-4.149-1.553c-.432-.141-.854-.317-1.274-.491a.5.5,0,0,1-.338-.368c-.032-.232.2-.256.339-.349a1.132,1.132,0,0,1,.792-.1,27.006,27.006,0,0,1,4.373.747,11.715,11.715,0,0,1,4.687,2.213c-.1-.553-.122-1.105-.189-1.652a9.8,9.8,0,0,0-.4-1.965,7.421,7.421,0,0,0-1.7-2.527,3.217,3.217,0,0,0-3.694-.955c-.692.231-1.356.528-2.037.78a5.814,5.814,0,0,1-1.789.486c-.489.019-.622-.172-.392-.6a1.92,1.92,0,0,1,.863-.849c.683-.327,1.372-.638,2.064-.944.537-.238,1.083-.46,1.7-.72-.343-.228-.6-.412-.865-.573a6.838,6.838,0,0,0-2.705-1.309,3.541,3.541,0,0,0-3.417,1.211c-.387.478-.726,1-1.106,1.479-.367.467-.679.512-1.112.129a10.723,10.723,0,0,0-2.327-1.516,4.389,4.389,0,0,0-2.336-.568,6.079,6.079,0,0,0-3.116,1.422c-.215.161-.234.322.087.4a9.193,9.193,0,0,1,3.187,1.583,3.662,3.662,0,0,1,1.183,1.2.457.457,0,0,1,.005.574.463.463,0,0,1-.533.082,2.426,2.426,0,0,1-.6-.276,13.035,13.035,0,0,0-4.105-1.8,2.971,2.971,0,0,0-3.024.764,13.942,13.942,0,0,0-2.172,2.859A8.483,8.483,0,0,0,491.857,439.752Z" transform="translate(-459.628 -356.956)"/><path class="i" d="M541.358,440.63a.563.563,0,0,0,.446.592,15.9,15.9,0,0,1,2.136.787,10.354,10.354,0,0,1,3.484,2.562,3.4,3.4,0,0,1,.477,3.745,17.154,17.154,0,0,1-1.276,2.312c-.135.228-.218.145-.31-.021a14.878,14.878,0,0,0-1.39-2.073,4.165,4.165,0,0,0-2.22-1.557c-.393-.082-.549.073-.455.467a1.308,1.308,0,0,0,.591.757,5.346,5.346,0,0,1,2.094,2.9,1.619,1.619,0,0,1-.415,1.619,5.233,5.233,0,0,0-1.307,1.9c-.02.073-.073.156-.052.228.145.56-.207.393-.5.353a19.17,19.17,0,0,1-2.032-.342,3.336,3.336,0,0,1-2.469-2.822,6.533,6.533,0,0,1,.489-3.577,2.07,2.07,0,0,0,.207-1.058.56.56,0,0,0-.352-.5c-.2-.062-.333.083-.467.228a4.119,4.119,0,0,0-1.047,2.593,9.441,9.441,0,0,0,.861,4.615c.03.062.1.135.03.2a.2.2,0,0,1-.176.011,30.86,30.86,0,0,1-3.879-1.472,2.42,2.42,0,0,1-1.378-2.1,10.378,10.378,0,0,1,1.918-6.8c.342-.519.778-.965,1.151-1.463a.845.845,0,0,0,.073-.092c.082-.207.269-.446.051-.654a.537.537,0,0,0-.705.021,8.934,8.934,0,0,0-1.878,1.722,9.621,9.621,0,0,0-1.949,4.79,5.126,5.126,0,0,0,.092,1.773,3.853,3.853,0,0,1,.053.788,7.422,7.422,0,0,1-1.172-1.017,10.478,10.478,0,0,1-2.385-3.235,3.241,3.241,0,0,1-.167-2.956,11.109,11.109,0,0,1,3.35-4.075,9.159,9.159,0,0,1,1.327-.643c.177-.094.333-.207.333-.425a.289.289,0,0,0-.228-.28,1.555,1.555,0,0,0-.664-.073,7.231,7.231,0,0,0-4.843,3.07c-.238.362-.508.716-.757,1.068,0,.009-.021.009-.052.009a6.686,6.686,0,0,1-.322-3.951,11.049,11.049,0,0,1,1.058-2.645,2.339,2.339,0,0,1,2.147-1.223,10.2,10.2,0,0,1,3.525.507,1.727,1.727,0,0,0,.519.083c.135,0,.3,0,.384-.176s-.011-.312-.126-.436a2.818,2.818,0,0,0-1.161-.664,7.235,7.235,0,0,0-2.769-.539c-.26.011-.28-.115-.145-.28a4.8,4.8,0,0,1,2.074-1.754,3.523,3.523,0,0,1,1.908-.062,8.406,8.406,0,0,1,2.1.675c.4.2.633.092.82-.333.114-.28.218-.56.331-.84.062-.176.124-.352.2-.528a2.555,2.555,0,0,1,.6-.872,3.159,3.159,0,0,1,1.763-.778,2.858,2.858,0,0,1,.985.03c.466.094.912.26,1.359.395.239.073.466.156.778.259-.415.322-.778.613-1.141.9-.466.383-.923.767-1.38,1.161a.19.19,0,0,0-.073.083,1.508,1.508,0,0,0-.4.747c-.083.383.052.5.425.383a4.765,4.765,0,0,0,1.265-.757c.467-.333.912-.695,1.39-1.027a2.569,2.569,0,0,1,3.028-.051,8.341,8.341,0,0,1,1.3.955,3.133,3.133,0,0,1,.539.622,6.794,6.794,0,0,1,.632,1.233,1.534,1.534,0,0,1,.083.187c.166.4.311.819.5,1.224a6.347,6.347,0,0,0-.808-.312,8.454,8.454,0,0,0-1.421-.3,13.333,13.333,0,0,0-1.826-.094,21.936,21.936,0,0,0-3.5.354.943.943,0,0,0-.581.248l-.032.032c-.083.082-.218.155-.156.31a.422.422,0,0,0,.343.207.131.131,0,0,1,.062.011c.331.042.673.083,1.015.094a30.172,30.172,0,0,1,3.5.31c.322.053.654.115.965.2a4.935,4.935,0,0,1,1.41.528,3.684,3.684,0,0,1,.9.675,5.952,5.952,0,0,1,1.6,3.162,9.4,9.4,0,0,1,.135,2.22,14.648,14.648,0,0,1-.28,2.167,5.086,5.086,0,0,0-1.359-2.053,10.213,10.213,0,0,0-3.309-1.991,9.651,9.651,0,0,0-2.457-.622,2.1,2.1,0,0,0-.446,0C541.659,440.226,541.39,440.329,541.358,440.63Z" transform="translate(-448.833 -356.51)"/><path class="i" d="M509.294,432.438c.034-.005.053,0,.057-.008.253-.357.515-.708.755-1.072a7.247,7.247,0,0,1,4.85-3.067,1.609,1.609,0,0,1,.663.074.284.284,0,0,1,.222.276.464.464,0,0,1-.326.423,10.184,10.184,0,0,0-1.327.646,11.07,11.07,0,0,0-3.356,4.077,3.244,3.244,0,0,0,.168,2.958,10.559,10.559,0,0,0,2.387,3.235A7.708,7.708,0,0,0,514.553,441a3.646,3.646,0,0,0-.049-.8,5.251,5.251,0,0,1-.1-1.773,9.736,9.736,0,0,1,1.956-4.789,8.718,8.718,0,0,1,1.876-1.723.533.533,0,0,1,.7-.017c.218.211.034.442-.053.658a.476.476,0,0,1-.07.088c-.371.5-.805.941-1.151,1.459a10.453,10.453,0,0,0-1.92,6.8,2.426,2.426,0,0,0,1.381,2.1,28.979,28.979,0,0,0,3.879,1.475.217.217,0,0,0,.178-.005c.066-.062,0-.136-.03-.2a9.509,9.509,0,0,1-.869-4.61,4.128,4.128,0,0,1,1.048-2.593c.14-.144.273-.3.474-.23a.571.571,0,0,1,.353.5,2.143,2.143,0,0,1-.213,1.055,6.613,6.613,0,0,0-.483,3.584,3.339,3.339,0,0,0,2.461,2.815,17.773,17.773,0,0,0,2.037.342c.292.042.64.206.5-.355-.016-.063.033-.145.054-.218a5.2,5.2,0,0,1,1.3-1.908,1.625,1.625,0,0,0,.424-1.618,5.341,5.341,0,0,0-2.1-2.9,1.338,1.338,0,0,1-.588-.759c-.091-.389.066-.555.454-.465a4.153,4.153,0,0,1,2.221,1.557,13.534,13.534,0,0,1,1.389,2.066c.094.166.173.255.312.029a16.776,16.776,0,0,0,1.274-2.313,3.4,3.4,0,0,0-.477-3.751,10.341,10.341,0,0,0-3.487-2.558,15.864,15.864,0,0,0-2.132-.784.566.566,0,0,1-.444-.589c.033-.31.3-.415.577-.446a1.988,1.988,0,0,1,.452-.011,9.924,9.924,0,0,1,2.453.633,10.339,10.339,0,0,1,3.3,1.982,5.091,5.091,0,0,1,1.368,2.057,11.366,11.366,0,0,0,.14-4.39,5.945,5.945,0,0,0-1.6-3.161,5.51,5.51,0,0,0-3.272-1.4,30.155,30.155,0,0,0-3.5-.309c-.36-.016-.72-.062-1.079-.106a.4.4,0,0,1-.335-.211c-.074-.17.1-.239.185-.337a.9.9,0,0,1,.584-.248,21.474,21.474,0,0,1,3.5-.354,9.29,9.29,0,0,1,4.052.7c-.19-.4-.326-.82-.494-1.223a7.782,7.782,0,0,0-.718-1.419,5.921,5.921,0,0,0-1.835-1.573,2.554,2.554,0,0,0-3.026.053c-.481.323-.926.691-1.393,1.029a4.634,4.634,0,0,1-1.265.749c-.37.119-.512,0-.428-.378a1.533,1.533,0,0,1,.481-.832c.453-.395.914-.778,1.377-1.158.362-.3.732-.582,1.145-.91-.31-.1-.544-.187-.782-.255a5.416,5.416,0,0,0-2.346-.428,2.806,2.806,0,0,0-2.356,1.649c-.2.448-.346.914-.533,1.365-.182.434-.411.535-.824.334a8.48,8.48,0,0,0-2.1-.667,3.48,3.48,0,0,0-1.907.059,4.846,4.846,0,0,0-2.082,1.747c-.129.169-.11.3.152.285a7.3,7.3,0,0,1,2.772.536,2.9,2.9,0,0,1,1.158.665c.116.119.215.252.125.438s-.246.177-.39.176a1.938,1.938,0,0,1-.519-.085,10.315,10.315,0,0,0-3.52-.511,2.36,2.36,0,0,0-2.151,1.224,11.147,11.147,0,0,0-1.055,2.646A6.729,6.729,0,0,0,509.294,432.438Z" transform="translate(-454.183 -359.736)"/><g transform="translate(87.517 72.214)"><path class="k" d="M547.026,440.449a5.952,5.952,0,0,0-1.6-3.162,3.681,3.681,0,0,0-.9-.675,8.5,8.5,0,0,0,.508,3.422,5.764,5.764,0,0,0,2.126,2.634A9.4,9.4,0,0,0,547.026,440.449Zm-1.961-6.647a1.513,1.513,0,0,0-.083-.187c-.051.2-.092.405-.135.6-.03.166-.073.331-.092.5a6.354,6.354,0,0,1,.808.312C545.376,434.62,545.231,434.206,545.065,433.8Zm-2.551-3a2.569,2.569,0,0,0-3.028.051c-.478.333-.923.695-1.39,1.027a4.765,4.765,0,0,1-1.265.757,7.323,7.323,0,0,0,.477,2.126,1.752,1.752,0,0,0,.083.187,4.123,4.123,0,0,0,.25.528A11.737,11.737,0,0,0,542.7,440.2c.114-1.369.238-2.749.415-4.117.062-.56.135-1.121.218-1.67.135-.891.289-1.773.477-2.654A8.349,8.349,0,0,0,542.514,430.8Zm-3.889-1.7c-.446-.135-.893-.3-1.359-.395a10.925,10.925,0,0,0-.457,2.8.19.19,0,0,1,.073-.083c.457-.393.914-.778,1.38-1.161.363-.291.726-.581,1.141-.9C539.091,429.26,538.864,429.176,538.625,429.1Zm-4.709,1.224c-.073.176-.135.353-.2.528l.186.25c.2-.551.405-1.1.613-1.649A2.556,2.556,0,0,0,533.917,430.328Z" transform="translate(-533.72 -428.709)"/></g><g transform="translate(80.483 25.528)"><path class="l" d="M555.232,405.15c.348-.1.7-.177,1.06-.251.927-.193,1.831-.885,1.672-1.363-.3-.886-1.149-.849-1.793-.977a2.573,2.573,0,0,0-2,.89,1.045,1.045,0,0,0-.221,1.26A1.126,1.126,0,0,0,555.232,405.15Z" transform="translate(-520.245 -390.402)"/><path class="l" d="M553.6,411.529c-.273.355-.591.733-.329,1.239s.728.469,1.291.437a3.972,3.972,0,0,0,2.052-.582c.827-.371.969-.982.42-1.439A2.5,2.5,0,0,0,553.6,411.529Z" transform="translate(-520.454 -387.808)"/><path class="l" d="M553.309,408.692a5.323,5.323,0,0,0,4.5-.61c.493-.3.461-.782-.017-1.2a3.383,3.383,0,0,0-2.064-.661,2.888,2.888,0,0,0-2.72,1.418C552.766,408.091,552.824,408.542,553.309,408.692Z" transform="translate(-520.551 -389.229)"/><path class="l" d="M554.405,421.9c.763.1,1.112-.47.759-1.162a2.288,2.288,0,0,0-2.053-1.359,1.315,1.315,0,0,0-1.364.692.679.679,0,0,0,.248.874A4.714,4.714,0,0,0,554.405,421.9Z" transform="translate(-520.935 -385.013)"/><path class="l" d="M555.271,415.08c-.7-.016-1.579.647-1.522,1.2.078.759.745.559,1.149.663.94.005,1.6-.379,1.513-.9A1.079,1.079,0,0,0,555.271,415.08Z" transform="translate(-520.27 -386.391)"/><path class="l" d="M548.1,406.08a.778.778,0,0,0,.668-1.27,2.477,2.477,0,0,0-2.493-1.345,2.892,2.892,0,0,0-.705.1c-.745.25-1.042.955-.545,1.353A4.329,4.329,0,0,0,548.1,406.08Z" transform="translate(-523.142 -390.113)"/><path class="l" d="M547.349,414.968c.025.412.14.843.693.846a3.131,3.131,0,0,0,2.543-1.162c.272-.33.327-.734-.022-.955a1.891,1.891,0,0,0-1.687-.412A2.074,2.074,0,0,0,547.349,414.968Z" transform="translate(-522.32 -386.989)"/><path class="l" d="M544.577,408.748c.607.284,1.062-.116,1.583-.187.626-.084,1.489-.337,1.462-.952-.036-.808-.952-.864-1.656-.935-.061-.005-.121,0-.325,0a1.855,1.855,0,0,0-1.388.441C543.561,407.834,543.678,408.327,544.577,408.748Z" transform="translate(-523.454 -389.085)"/><path class="l" d="M547.906,409.2a2.968,2.968,0,0,0-2.871,1.825.842.842,0,0,0,.046.943.761.761,0,0,0,.854.148,5.971,5.971,0,0,0,2.565-1.45c.31-.306.689-.623.464-1.085C548.775,409.189,548.307,409.205,547.906,409.2Z" transform="translate(-523.1 -388.274)"/><path class="m" d="M572.326,412.154l-.088-.02-.091.012.14.215Z" transform="translate(-514.375 -387.335)"/><path class="m" d="M529.336,418.274a20,20,0,0,1,15.574-6.491,2.6,2.6,0,0,1,1.475.395.98.98,0,0,1,.255,1.357,1.456,1.456,0,0,1-.906.355c-4.308.639-8.7,1.7-12.2,4.3a8.016,8.016,0,0,0-2.768,3.24c-1.055,2.565.025,5.462,1.1,8.02a53.234,53.234,0,0,1,6.523-7.888,17.815,17.815,0,0,1,8.9-4.793c.458-.079,1.017-.1,1.286.283.4.567-.249,1.276-.828,1.66l-6.657,4.417a27.02,27.02,0,0,0-5.235,4.133,9.1,9.1,0,0,0-2.589,6c.015,2.756,1.682,5.2,3.391,7.366a57.38,57.38,0,0,1,4.73-10.682,19.268,19.268,0,0,1,8.461-7.818c.786-.337,1.946-.462,2.264.331.3.745-.494,1.437-1.163,1.876a28.666,28.666,0,0,0-9.446,10.31c-1.592,2.954-2.655,6.511-1.447,9.642a11.213,11.213,0,0,0,5.39,5.436,49.556,49.556,0,0,1,2.167-12.231,18.143,18.143,0,0,1,7.364-9.734,1.89,1.89,0,0,1,1.225-.366c.8.129,1.13,1.192.83,1.945a4.691,4.691,0,0,1-1.629,1.76,21.975,21.975,0,0,0-7.81,12.635,10.246,10.246,0,0,0,.193,5.823,5.054,5.054,0,0,0,4.434,3.356,46.384,46.384,0,0,1,.787-9.016,15.526,15.526,0,0,1,4.12-7.929,1.616,1.616,0,0,1,1.208-.59c1.038.115.964,1.67.5,2.606-1.109,2.234-2.674,4.215-3.842,6.417s-1.941,4.784-1.285,7.191,3.137,4.418,5.565,3.848a22.81,22.81,0,0,1-.3-8.807c.286-1.764.887-3.646,2.381-4.627a14.534,14.534,0,0,1-.347,5.131,11.358,11.358,0,0,0-.087,5.124,4.182,4.182,0,0,0,3.617,3.2,1.023,1.023,0,0,0,.761-.231,1.681,1.681,0,0,0,.3-.93c.5-2.721,5.34-3.244,5.2-6.006a3.827,3.827,0,0,0-.683-1.74,32.2,32.2,0,0,0-4.587-5.857,3.671,3.671,0,0,1-1.165-1.7c-.141-.683.339-1.533,1.034-1.476a1.54,1.54,0,0,1,.716.312c3.4,2.309,4.844,6.527,6.076,10.448,1.822.088,3.265-1.8,3.314-3.623.053-2.033-1.125-3.908-2.325-5.459a44.28,44.28,0,0,0-6.216-6.219,4.54,4.54,0,0,1-1.638-2.5.936.936,0,0,1,.254-.949c.323-.224.764-.044,1.108.148a24.19,24.19,0,0,1,11.211,13.657,7.608,7.608,0,0,0,2.881-4.65,7.278,7.278,0,0,0-2.055-5.646,21.55,21.55,0,0,0-4.934-3.72l.637.889c-2.191-3.04-6.883-3.915-8.242-7.406A26.62,26.62,0,0,1,582.7,436.636c1.176-1.753,2.406-3.713,2.148-5.81a7.226,7.226,0,0,0-2.152-3.9c-3.623-3.848-8.68-5.951-13.612-7.846-.474-.182-1-.421-1.154-.9-.31-1,1.178-1.525,2.225-1.446a21.883,21.883,0,0,1,16.5,9.87c.517-3.275.882-7.077-1.409-9.474-1.611-1.685-4.084-2.147-6.385-2.522l-9.524-1.55c-.869-.141-1.994-.625-1.818-1.488.141-.7,1.026-.893,1.735-.941,5.61-.387,11.77-.466,16.2,3a26.822,26.822,0,0,0-.972-4.45,5.817,5.817,0,0,0-1.911-3.321c-1.8-1.4-4.382-1.058-6.57-.411s-4.46,1.541-6.682,1.026a1,1,0,0,1-.741-.466c-.248-.556.483-1.025,1.07-1.188a38.8,38.8,0,0,1,11.321-1.427,12.973,12.973,0,0,0-3.712-4.823,5.133,5.133,0,0,0-2.345-1.187c-3.54-.557-6.245,4.719-9.69,3.729a15.317,15.317,0,0,1,6.989-5.676,8.2,8.2,0,0,0-9.811.321c-2.295,1.924-3.309,4.938-4.184,7.8l-.384-8.029-1.6-.9a58.559,58.559,0,0,1,.393,9.857c-.318-3.52-1.46-7.192-4.191-9.437s-7.343-2.39-9.49.42a18.644,18.644,0,0,1,8.5,4.48c.515.477,1,1.345.453,1.788a1.254,1.254,0,0,1-1.224-.009c-2.2-.846-4.193-2.158-6.395-2.995s-4.784-1.147-6.838.005c-1.739.976-2.787,2.808-3.751,4.554a25.4,25.4,0,0,1,13.681,1.776c.764.329,1.638,1.2,1.085,1.822a1.373,1.373,0,0,1-1.182.261,49.658,49.658,0,0,0-8.889-.466,12.116,12.116,0,0,0-7.99,3.463c-2.01,2.189-2.723,5.705-1.129,8.213Zm33.685,5.628c-.4-.1-1.071.1-1.149-.663-.057-.551.823-1.213,1.523-1.2a1.079,1.079,0,0,1,1.14.957C564.617,423.523,563.961,423.907,563.021,423.9Zm1.53-5.736a3.971,3.971,0,0,1-2.052.582c-.564.032-1.033.063-1.291-.437s.056-.883.329-1.239a2.5,2.5,0,0,1,3.434-.346C565.52,417.184,565.377,417.8,564.551,418.166ZM562.323,406.4a2.573,2.573,0,0,1,2-.89c.644.128,1.5.091,1.793.977.16.478-.745,1.17-1.672,1.363-.357.074-.712.149-1.06.251a1.125,1.125,0,0,1-1.277-.441A1.045,1.045,0,0,1,562.323,406.4Zm-1.476,5.363a2.888,2.888,0,0,1,2.72-1.418,3.383,3.383,0,0,1,2.064.661c.478.417.51.894.017,1.2a5.323,5.323,0,0,1-4.5.61C560.666,412.665,560.608,412.214,560.847,411.762Zm-1.641,16.651a1.315,1.315,0,0,1,1.364-.692,2.288,2.288,0,0,1,2.053,1.359c.353.692,0,1.258-.759,1.162a4.714,4.714,0,0,1-2.41-.955A.679.679,0,0,1,559.206,428.414Zm-2.57-8.353c.35.221.294.625.022.955a3.131,3.131,0,0,1-2.543,1.162c-.553,0-.668-.434-.693-.846a2.074,2.074,0,0,1,1.526-1.682A1.891,1.891,0,0,1,556.636,420.061Zm-2.841-4.316a5.973,5.973,0,0,1-2.565,1.45.761.761,0,0,1-.854-.148.842.842,0,0,1-.046-.943,2.968,2.968,0,0,1,2.871-1.825c.4,0,.869-.012,1.059.38C554.484,415.121,554.105,415.438,553.795,415.745Zm-2.972-8.94a2.89,2.89,0,0,1,.705-.1,2.477,2.477,0,0,1,2.493,1.345.778.778,0,0,1-.668,1.27,4.329,4.329,0,0,1-3.075-1.161C549.781,407.759,550.078,407.054,550.823,406.8Zm-1.631,4.578a1.855,1.855,0,0,1,1.388-.441c.2,0,.264-.005.325,0,.7.071,1.62.127,1.656.935.028.615-.836.867-1.462.952-.522.071-.976.471-1.583.187C548.616,412.594,548.5,412.1,549.192,411.382Z" transform="translate(-528.393 -393.352)"/></g><path class="n" d="M498.452,494.022l.506,6.816a54.169,54.169,0,0,0,39.988.432l.519-6.308Z" transform="translate(-457.503 -335.57)"/><g transform="translate(54.417 13.701)"><path class="c" d="M546.022,401.474a6.189,6.189,0,0,0-.23,1.3,12.178,12.178,0,0,0-9.475-5.23c-.58-.022-1.386.284-1.221.834.1.349.524.456.874.527a15.2,15.2,0,0,1,6.577,3.038,5.6,5.6,0,0,1,2.259,3.162c.322,1.629-.56,3.23-1.4,4.657a33.523,33.523,0,0,0-3.655-5.633,10.982,10.982,0,0,0-5.535-3.642.682.682,0,0,0-.541.03c-.295.232-.041.695.224.959,2.214,2.142,4.847,3.873,6.8,6.26a6.2,6.2,0,0,1,1.662,3.793c-.009,1.973-1.474,3.591-2.853,5a34.292,34.292,0,0,0-2.287-7.381,11.765,11.765,0,0,0-5.154-5.584.984.984,0,0,0-.771-.128.727.727,0,0,0-.294.96,2.334,2.334,0,0,0,.743.812,17.927,17.927,0,0,1,4.483,5.679,10.178,10.178,0,0,1,1.311,6.288c-.384,2.148-2.11,4.158-4.287,4.282a28.385,28.385,0,0,0-.475-7.807,11.941,11.941,0,0,0-3.92-6.624,1.2,1.2,0,0,0-1.039-.35.866.866,0,0,0-.456,1.054,2.673,2.673,0,0,0,.7,1.048c2.492,2.74,4.419,6.238,4.331,9.94a5.711,5.711,0,0,1-.866,3.14,3.052,3.052,0,0,1-2.82,1.364c.337-3.689.59-7.726-1.532-10.756-.375-.531-1.125-1.04-1.6-.6a1.018,1.018,0,0,0-.227.87,7.134,7.134,0,0,0,1.163,2.55,12.161,12.161,0,0,1,1.611,5.223,3.9,3.9,0,0,1-.5,2.548c-.758,1.077-2.225,1.3-3.531,1.427.745-3,1.419-6.432-.323-8.993a9.406,9.406,0,0,0-.224,3.529,6.552,6.552,0,0,1-.522,3.47,2.482,2.482,0,0,1-2.972,1.283c.323-.927-.5-1.826-1.262-2.431s-1.678-1.343-1.6-2.315a2.8,2.8,0,0,1,.768-1.442c.358-.425.734-.829,1.13-1.233.022-.018.045-.049.067-.069a23.778,23.778,0,0,1,1.966-1.86.914.914,0,0,1,.11-.1l.065-.058a2.13,2.13,0,0,0,.681-.824.835.835,0,0,0-.12-.786.1.1,0,0,0-.04-.054.518.518,0,0,0-.221-.127.966.966,0,0,0-.726.166,7.378,7.378,0,0,0-2.208,1.908l-.069.09a19.592,19.592,0,0,0-2.342,4.249c-.012.03-.024.052-.036.082,0,.009-.012.02-.012.03-.885-.7-1.851-1.592-1.871-2.684v-.03a.854.854,0,0,1,.013-.228,3.227,3.227,0,0,1,.618-1.345c.011-.011.012-.021.023-.03a17.608,17.608,0,0,1,2.457-2.819.852.852,0,0,1,.1-.1,18.076,18.076,0,0,1,2.749-2.1,4.628,4.628,0,0,0,1.483-1.223c.022-.03.046-.071.069-.1a1.53,1.53,0,0,0,.187-.551.559.559,0,0,0-.137-.506.6.6,0,0,0-.561,0c-.032.008-.053.017-.085.026l-.063.028a15.182,15.182,0,0,0-4.5,2.868.941.941,0,0,0-.11.107,15.325,15.325,0,0,0-2.428,2.843c-.034.049-.057.09-.091.14a14.711,14.711,0,0,0-.985,1.781,3.3,3.3,0,0,1-1.478-3.045,4.224,4.224,0,0,1,.5-1.934.6.6,0,0,1,.058-.121,7.141,7.141,0,0,1,2.466-2.424,1.745,1.745,0,0,1,.151-.1c.593-.36,1.224-.677,1.843-.974.865-.407,1.748-.772,2.584-1.223a1.961,1.961,0,0,0,.2-.1,10.076,10.076,0,0,0,2.176-1.537c.132-.137.28-.347.165-.51-.1-.129-.3-.11-.454-.067a17.6,17.6,0,0,0-3.252,1.1c-.074.037-.16.074-.235.111a18.19,18.19,0,0,0-3.77,2.349,1.535,1.535,0,0,0-.143.127,17.177,17.177,0,0,0-2.491,2.5,1.4,1.4,0,0,0-.112.149,13.7,13.7,0,0,0-.868,1.186,6.37,6.37,0,0,1-.956-3.243,1.874,1.874,0,0,1,.014-.259,3.332,3.332,0,0,1,.193-.83,4.924,4.924,0,0,1,1.577-1.936c.054-.038.108-.087.162-.125.011-.009.011-.009.021-.009a16.18,16.18,0,0,1,3.226-1.9c.075-.037.16-.074.246-.11a28.871,28.871,0,0,1,4.205-1.41c.094-.026.18-.053.273-.078.38-.1.749-.2,1.129-.288a1.155,1.155,0,0,0,.673-.335.768.768,0,0,0-.252-1.043,2.036,2.036,0,0,0-1.159-.254,13.885,13.885,0,0,0-2.935.3c-.116.025-.242.049-.358.083a14.089,14.089,0,0,0-3.912,1.551,1.376,1.376,0,0,0-.215.133,13.6,13.6,0,0,0-2.707,2.087c-.056.059-.11.108-.165.168a10.376,10.376,0,0,0-.778.869c-.02-.364-.04-.739-.04-1.113.005-.083,0-.166,0-.25s0-.177-.005-.271c0-.135.005-.269.013-.415.008-.124.025-.257.033-.382a5.6,5.6,0,0,1,.823-2.737,3.664,3.664,0,0,1,.557-.664,5.067,5.067,0,0,1,2.245-1.107,2.683,2.683,0,0,1,.294-.066c2.744-.56,5.624.115,8.366-.433.474-.1.733-.28.817-.483.145-.355-.214-.78-.869-.975a16.058,16.058,0,0,0-8.085-.288c-.663.148-2.214,1.109-2.274.149v-.01a1.357,1.357,0,0,1,.033-.4,7.191,7.191,0,0,1,.9-2.14c.013-.03.034-.05.046-.08a3.787,3.787,0,0,1,1.24-1.32.342.342,0,0,1,.086-.046c1.664-.944,3.6.154,5.226.705.3.111,3.349,1.19,3.66.658a.214.214,0,0,0,.026-.092c.024-.611-.661-.973-1.242-1.162a33.756,33.756,0,0,0-6.438-1.492c-.062,0-.123-.017-.185-.021a26.7,26.7,0,0,1,2.033-2.3,3.557,3.557,0,0,1,2.8-1.013c1.183.193,2.081,1.19,3.01,2a3.17,3.17,0,0,0,2.453,1.066,9.464,9.464,0,0,0-3.98-4.134,4.891,4.891,0,0,1,5.707.474,7.2,7.2,0,0,1,2.375,5.465c.009.582.3,1.419.836,1.19a.849.849,0,0,0,.368-.456c.658-1.5.952-3.186,1.961-4.468a4.815,4.815,0,0,1,7.446-.144,12.35,12.35,0,0,0-5.782,2.3c-.4.288-.8.878-.423,1.2.227.21.6.107.883-.012,1.967-.791,3.982-1.7,6.106-1.591s4.327,1.723,4.268,3.84a15.576,15.576,0,0,0-8.918.265c-.4.144-.893.52-.664.886a.716.716,0,0,0,.568.251c2.126.238,4.32.02,6.412.494a6.329,6.329,0,0,1,4.125,2.688,5.142,5.142,0,0,1,.52,2.346A7.929,7.929,0,0,1,546.022,401.474Z" transform="translate(-508.652 -384.395)"/><path class="c" d="M509.966,392.909a.623.623,0,0,1-.058.12c0-.009-.02-.032-.008-.052C509.9,392.935,509.9,392.873,509.966,392.909Z" transform="translate(-508.253 -381.671)"/><path class="c" d="M509.972,392.9c0,.009,0,.009-.012.02,0-.011,0-.011-.011-.011V392.9Z" transform="translate(-508.236 -381.67)"/></g><path class="o" d="M495.633,460.117c-.856-.5,3.757,44.769,3.757,44.769s18.124,10.933,41.013.94l5.322-45.709S520.365,474.519,495.633,460.117Z" transform="translate(-458.44 -346.434)"/><g transform="translate(54.403 15.708)"><path class="j" d="M519.1,403.538l-.075-.053-.087-.024.045.252Z" transform="translate(-505.341 -380.293)"/><path class="j" d="M510.289,395.452c-.012.02.008.042.007.053a.642.642,0,0,0,.059-.121C510.284,395.348,510.292,395.411,510.289,395.452Zm.066-.079v.011c.011,0,.011,0,.009.011.012-.009.012-.009.012-.02Zm.927,13.516c-.582-.709-1.187-1.4-1.823-2.057a6.127,6.127,0,0,0,.94,3.5c.308-.46.635-.908.981-1.335A.919.919,0,0,0,511.282,408.889Zm2.777,3.92a26.54,26.54,0,0,0-1.982-2.939,4.342,4.342,0,0,0-.481,1.676,3.387,3.387,0,0,0,1.462,3.3,15.263,15.263,0,0,1,1.078-1.921A.7.7,0,0,0,514.059,412.809Zm2.156,5.671a9.458,9.458,0,0,0-.607-2.445c-.2-.531-.417-1.052-.659-1.554a3.4,3.4,0,0,0-.615,1.315v.03c-.153,1.207.9,2.192,1.857,2.943.012-.041.034-.071.048-.112C516.229,418.595,516.221,418.542,516.215,418.48Zm1.88-27.108c-1.629-.551-3.561-1.649-5.225-.705a38.958,38.958,0,0,1,10.349,3.014,13.066,13.066,0,0,0-1.458-5.734c-.93-.812-1.828-1.809-3.012-2a3.555,3.555,0,0,0-2.8,1.014,21.4,21.4,0,0,0-1.833,2.065l-.2.238a33.393,33.393,0,0,1,6.624,1.513c.53.176,1.136.481,1.231,1a.822.822,0,0,1,.011.166C521.771,392.674,518.421,391.485,518.1,391.372Zm5.633,5.206c-1.112-1.986-3.617-2.68-5.888-2.935-2.186-.261-4.521-.322-6.342-1.529a7.162,7.162,0,0,0-.9,2.14.76.76,0,0,0-.019.144v.011c-.193,1.371,1.544.265,2.259.11a16.058,16.058,0,0,1,8.085.288,1.151,1.151,0,0,1,.883.716c.077.306-.17.614-.832.742-2.742.548-5.622-.127-8.366.433a2.633,2.633,0,0,0-.294.066,34.151,34.151,0,0,1,4.162,1.87,3.794,3.794,0,0,1,.343.176,20.072,20.072,0,0,1,2.286,1.441c.09.057.169.114.259.181a13.917,13.917,0,0,1,3.984,4.426,26.46,26.46,0,0,0,.849-4.47A5.827,5.827,0,0,0,523.728,396.579Zm-14.219,1.955a5.689,5.689,0,0,0-.807,2.478c-.008.124-.025.257-.033.382-.008.145-.016.28-.013.415a2.251,2.251,0,0,0-.015.259c.011,0,.009.012.02.012a9.4,9.4,0,0,1,.813.494c.055-.059.11-.108.165-.168a13.6,13.6,0,0,1,2.707-2.088C511.4,399.724,510.451,399.118,509.509,398.534Zm9.875,6.395c-.059-.055-.129-.1-.189-.156-.836.45-1.719.816-2.584,1.223-.619.3-1.25.614-1.843.974a1.739,1.739,0,0,0-.151.1c.049.054.087.108.136.164a19.884,19.884,0,0,1,1.825,2.6.943.943,0,0,1,.11-.107,15.184,15.184,0,0,1,4.5-2.868A8.172,8.172,0,0,0,519.384,404.929Zm2.444,3.185c-.008-.032-.026-.074-.034-.106s-.02-.033-.018-.053a4.628,4.628,0,0,1-1.483,1.223,18.071,18.071,0,0,0-2.749,2.1.861.861,0,0,0-.1.1l.085.161a21.172,21.172,0,0,1,1.064,2.616l.069-.09a7.377,7.377,0,0,1,2.208-1.908.966.966,0,0,1,.726-.166.517.517,0,0,1,.221.127.1.1,0,0,1,.04.054A6.587,6.587,0,0,0,521.828,408.114Zm-.708,5.818a23.764,23.764,0,0,0-1.966,1.86c-.023.02-.045.05-.067.069l.052.19c.1.4.182.821.252,1.231a29.444,29.444,0,0,0,1.715-3.091c.059-.141.129-.284.189-.415l-.065.058A.915.915,0,0,0,521.12,413.931ZM516.9,403.187l-2.015-1.269c-.081-.046-.15-.092-.231-.149a16.179,16.179,0,0,0-3.226,1.9c-.011,0-.011,0-.021.009-.054.038-.108.087-.162.125a1.726,1.726,0,0,1,.169.124,20.123,20.123,0,0,1,2.474,2.313,1.552,1.552,0,0,1,.143-.127,18.2,18.2,0,0,1,3.77-2.349Z" transform="translate(-508.641 -385.915)"/></g><g transform="translate(10.56)"><path class="l" d="M504.56,389.917c.359.044.717.112,1.073.184.928.185,2.032-.1,2.07-.6.073-.932-.726-1.231-1.269-1.6a2.565,2.565,0,0,0-2.184.041,1.043,1.043,0,0,0-.695,1.072A1.124,1.124,0,0,0,504.56,389.917Z" transform="translate(-466.432 -369.642)"/><path class="l" d="M500.564,395.151c-.39.221-.831.444-.786,1.012s.487.716,1.018.906a3.948,3.948,0,0,0,2.117.265c.906-.019,1.276-.526.949-1.161A2.5,2.5,0,0,0,500.564,395.151Z" transform="translate(-467.638 -367.334)"/><path class="l" d="M501.421,392.4A5.325,5.325,0,0,0,505.8,393.6c.573-.087.73-.539.453-1.11a3.384,3.384,0,0,0-1.641-1.414,2.889,2.889,0,0,0-3.059.244C501.157,391.636,501.033,392.076,501.421,392.4Z" transform="translate(-467.187 -368.656)"/><path class="l" d="M497.184,405.1c.665.387,1.207,0,1.153-.772a2.285,2.285,0,0,0-1.36-2.052,1.316,1.316,0,0,0-1.526.1.681.681,0,0,0-.112.9A4.708,4.708,0,0,0,497.184,405.1Z" transform="translate(-469.098 -365.028)"/><path class="l" d="M500.663,399.128c-.636-.289-1.706-.021-1.868.508-.224.729.467.8.8,1.058.862.371,1.617.275,1.744-.24A1.076,1.076,0,0,0,500.663,399.128Z" transform="translate(-467.967 -366.011)"/><path class="l" d="M497.558,388.061c.724.242,1.2-.164,1.112-.91a2.476,2.476,0,0,0-1.771-2.21,2.892,2.892,0,0,0-.689-.182c-.783-.061-1.331.471-1.03,1.034A4.334,4.334,0,0,0,497.558,388.061Z" transform="translate(-469.138 -370.579)"/><path class="l" d="M493.481,395.887c-.137.388-.2.831.308,1.05a3.125,3.125,0,0,0,2.8-.077c.38-.2.588-.548.353-.887a1.894,1.894,0,0,0-1.394-1.038A2.074,2.074,0,0,0,493.481,395.887Z" transform="translate(-469.686 -367.319)"/><path class="l" d="M493.3,389.122c.448.5,1.022.308,1.529.445.61.166,1.5.272,1.719-.305.281-.758-.54-1.167-1.161-1.507-.053-.029-.112-.049-.3-.128a1.851,1.851,0,0,0-1.45-.135C492.719,387.885,492.634,388.384,493.3,389.122Z" transform="translate(-469.853 -369.735)"/><path class="l" d="M496.291,390.739a2.969,2.969,0,0,0-3.356.56c-.246.255-.449.516-.326.886a.763.763,0,0,0,.73.469,5.952,5.952,0,0,0,2.927-.333c.405-.161.878-.305.85-.817C497.093,391.068,496.658,390.9,496.291,390.739Z" transform="translate(-469.947 -368.751)"/><path class="m" d="M517.386,403.206l-.075-.053-.088-.024.045.252Z" transform="translate(-462.049 -364.691)"/><path class="m" d="M478.25,390.367a20,20,0,0,1,16.872.106,2.59,2.59,0,0,1,1.2.94.98.98,0,0,1-.3,1.348,1.461,1.461,0,0,1-.973-.026c-4.215-1.095-8.671-1.827-12.9-.805a8,8,0,0,0-3.813,1.9c-1.973,1.95-2.11,5.039-2.121,7.813a53.188,53.188,0,0,1,9.084-4.716,17.836,17.836,0,0,1,10.067-.936c.452.1.973.309,1.074.762.149.679-.729,1.077-1.412,1.2l-7.854,1.467a27.07,27.07,0,0,0-6.433,1.76,9.106,9.106,0,0,0-4.727,4.512c-1.062,2.543-.482,5.448.247,8.106a57.373,57.373,0,0,1,8.525-7.987,19.261,19.261,0,0,1,10.842-3.894c.854,0,1.973.335,1.956,1.19-.017.8-1.015,1.129-1.8,1.273a28.677,28.677,0,0,0-12.722,5.8c-2.618,2.1-4.987,4.958-5.1,8.312a11.226,11.226,0,0,0,2.839,7.109,49.557,49.557,0,0,1,6.771-10.414,18.137,18.137,0,0,1,10.58-6.086,1.888,1.888,0,0,1,1.27.141,1.421,1.421,0,0,1,.005,2.115,4.69,4.69,0,0,1-2.187.984,21.984,21.984,0,0,0-12.124,8.583,10.25,10.25,0,0,0-2.1,5.435,5.055,5.055,0,0,0,2.772,4.822,46.244,46.244,0,0,1,4.245-7.992,15.527,15.527,0,0,1,6.888-5.691,1.622,1.622,0,0,1,1.343-.071c.911.511.235,1.913-.559,2.595-1.893,1.623-4.106,2.835-6.043,4.407s-3.655,3.646-3.99,6.117,1.163,5.293,3.622,5.717a22.807,22.807,0,0,1,3.161-8.227c.952-1.512,2.239-3.009,4-3.33a14.513,14.513,0,0,1-2.323,4.588,11.34,11.34,0,0,0-2.081,4.683,4.18,4.18,0,0,0,2.081,4.356,1.026,1.026,0,0,0,.79.086c.306-.125.454-.465.636-.741,1.524-2.309,6.184-.9,7.129-3.5a3.827,3.827,0,0,0,.051-1.867,32.243,32.243,0,0,0-1.937-7.184,3.675,3.675,0,0,1-.407-2.02c.136-.684.91-1.28,1.528-.956a1.543,1.543,0,0,1,.537.568c2.229,3.453,1.912,7.9,1.514,11.991,1.643.794,3.709-.382,4.466-2.041.844-1.851.49-4.038-.009-5.934a44.237,44.237,0,0,0-3.294-8.151,4.536,4.536,0,0,1-.529-2.947.938.938,0,0,1,.6-.775c.386-.081.721.259.964.569a24.191,24.191,0,0,1,4.987,16.95,7.6,7.6,0,0,0,4.468-3.156,7.274,7.274,0,0,0,.314-6,21.563,21.563,0,0,0-3.09-5.352l.239,1.067c-.83-3.654-4.809-6.292-4.7-10.036a26.617,26.617,0,0,1,9.807,19.2c1.768-1.154,3.665-2.478,4.246-4.509a7.232,7.232,0,0,0-.458-4.431c-1.833-4.955-5.667-8.868-9.469-12.538a1.717,1.717,0,0,1-.708-1.282c.1-1.044,1.68-.945,2.612-.463a21.884,21.884,0,0,1,11.338,15.53c1.755-2.812,3.576-6.17,2.4-9.272-.824-2.18-2.921-3.572-4.893-4.814l-8.161-5.147c-.745-.47-1.592-1.353-1.093-2.08.4-.585,1.293-.421,1.965-.19C523.3,400.745,529,403.077,531.73,408a26.793,26.793,0,0,0,.844-4.476,5.816,5.816,0,0,0-.463-3.8c-1.113-1.992-3.62-2.686-5.888-2.944s-4.707-.322-6.553-1.664a1,1,0,0,1-.5-.718c-.012-.609.845-.754,1.448-.677a38.814,38.814,0,0,1,10.979,3.108,12.948,12.948,0,0,0-1.533-5.89,5.143,5.143,0,0,0-1.7-2.008c-3.041-1.895-7.592,1.905-10.377-.351a15.313,15.313,0,0,1,8.651-2.5,8.2,8.2,0,0,0-9.158-3.535c-2.864.874-4.974,3.254-6.9,5.547l2.781-7.542-1.117-1.45a58.721,58.721,0,0,1-3.487,9.227c1.081-3.366,1.464-7.192-.173-10.326s-5.828-5.066-8.9-3.317a18.617,18.617,0,0,1,6.072,7.44c.288.64.394,1.629-.281,1.823-.412.119-.815-.189-1.122-.486-1.693-1.639-3.018-3.624-4.718-5.254s-3.957-2.926-6.3-2.666c-1.982.219-3.664,1.5-5.233,2.727a25.405,25.405,0,0,1,11.9,6.978c.574.6,1.039,1.746.287,2.1a1.372,1.372,0,0,1-1.19-.22,49.706,49.706,0,0,0-8-3.9,12.119,12.119,0,0,0-8.709.069c-2.7,1.231-4.734,4.19-4.245,7.121ZM507.063,408.7c-.331-.254-1.023-.329-.8-1.058.162-.53,1.232-.8,1.868-.508a1.076,1.076,0,0,1,.675,1.326C508.681,408.975,507.926,409.072,507.063,408.7Zm3.648-4.683a3.947,3.947,0,0,1-2.117-.265c-.531-.19-.974-.343-1.018-.906s.4-.791.786-1.011a2.5,2.5,0,0,1,3.3,1.022C511.987,403.492,511.617,404,510.712,404.017Zm2.544-11.7a2.566,2.566,0,0,1,2.184-.041c.543.37,1.342.668,1.269,1.6-.038.5-1.142.786-2.07.6-.357-.071-.714-.14-1.073-.184a1.124,1.124,0,0,1-1-.9A1.043,1.043,0,0,1,513.256,392.316Zm-3.454,4.361a2.889,2.889,0,0,1,3.059-.244,3.384,3.384,0,0,1,1.641,1.414c.277.572.12,1.023-.453,1.11a5.325,5.325,0,0,1-4.378-1.194C509.283,397.438,509.407,397,509.8,396.677Zm-8.013,14.688a1.316,1.316,0,0,1,1.526-.1,2.285,2.285,0,0,1,1.36,2.052c.054.775-.487,1.159-1.153.772a4.708,4.708,0,0,1-1.846-1.818A.68.68,0,0,1,501.788,411.365Zm.9-8.694c.235.339.028.691-.353.887a3.125,3.125,0,0,1-2.8.077c-.508-.219-.445-.662-.308-1.05a2.074,2.074,0,0,1,2.061-.952A1.894,1.894,0,0,1,502.686,402.672Zm-.931-5.083a5.952,5.952,0,0,1-2.927.333.763.763,0,0,1-.73-.469c-.123-.37.081-.631.326-.886a2.969,2.969,0,0,1,3.356-.56c.367.16.8.329.825.765C502.633,397.283,502.161,397.427,501.755,397.588Zm.754-9.391a2.893,2.893,0,0,1,.689.182,2.477,2.477,0,0,1,1.771,2.21c.084.746-.388,1.151-1.112.91a4.334,4.334,0,0,1-2.378-2.268C501.178,388.669,501.726,388.137,502.509,388.2Zm-3.288,3.578a1.851,1.851,0,0,1,1.45.135c.186.079.246.1.3.128.621.339,1.442.749,1.161,1.507-.215.577-1.109.471-1.719.3-.507-.137-1.081.053-1.529-.445C498.218,392.667,498.3,392.168,499.221,391.776Z" transform="translate(-475.437 -374.018)"/></g></g><path class="o" d="M498.645,493.163a6.65,6.65,0,0,0,.835,2.61c.292.5.474.8.836.94.761.3,1.353-.518,1.985-.209.444.218.25.671.834,1.253a2.768,2.768,0,0,0,1.567.73c.881.1,1.162-.351,1.67-.1.557.272.4.9.94,1.149s.841-.292,1.67-.209a4.576,4.576,0,0,1,1.88,1.044c.867.621.988.842,1.357.836.56-.012.705-.528,1.357-.731a2.205,2.205,0,0,1,1.776.313c.5.334.466.644,1.043.94a1.465,1.465,0,0,0,1.044.209c.543-.149.483-.677,1.044-.939a1.882,1.882,0,0,1,1.672.209c.458.287.4.538.834.73a1.331,1.331,0,0,0,1.357-.1c.33-.309.09-.665.419-1.044a1.372,1.372,0,0,1,1.462-.313c.483.2.4.6.94.94a1.465,1.465,0,0,0,1.566.1c.352-.321.018-.836.417-1.253a1.367,1.367,0,0,1,1.044-.313c.564.04.628.36,1.253.522a1.886,1.886,0,0,0,1.567-.209c.405-.372.121-.8.522-1.253a1.769,1.769,0,0,1,1.775-.417c.685.224.671.783,1.359.939a2.107,2.107,0,0,0,1.253-.209,2.223,2.223,0,0,0,1.357-.94c.285-.589-.1-1.033.209-1.462.273-.384.762-.206,1.149-.417.481-.263.835-1.105.522-3.446Z" transform="translate(9.998 38.14)"/></g></svg>