<svg xmlns="http://www.w3.org/2000/svg" width="955.456" height="407.077" viewBox="0 0 955.456 407.077"><defs><style>.a{fill:#6acce1;}.b{fill:#6a8025;}.c{fill:#abbc46;}.d{fill:#fff;}.e{fill:#d76546;}.f{fill:#ba5b71;}.g{fill:#dc6c85;}.h{fill:#ff9cb2;}.i{fill:#dba20f;}.j{fill:#fdbb11;}.k{fill:#c98121;}.l{fill:#865917;}.m{fill:#f8f7e5;}.n{fill:#f6d49f;}.o{fill:#bf8922;}.p{fill:#ce3402;}.q{fill:#d98a4e;}.r{fill:#51301f;}.s{fill:#fbcb05;}.t{fill:#ffa04d;}.u{fill:#067447;}.v{fill:#5f873e;}.w{fill:#403129;}.x{fill:#5d483d;}.y{fill:#aa6828;}.ah,.z{fill:none;stroke:#556c11;stroke-linecap:round;stroke-miterlimit:10;}.z{stroke-width:13px;}.aa{fill:#57507d;}.ab{fill:#4f3b65;}.ac{fill:#fbad18;}.ad{fill:#afd0d8;}.ae{fill:#e78c24;opacity:0.5;}.af{fill:#f7cf43;}.ag{fill:#91911f;}.ah{stroke-width:6px;}.ai{fill:#fcb95d;}.aj{fill:#78781a;}</style></defs><g transform="translate(-134 -182.2)"><g transform="translate(445.059 86.954)"><g transform="translate(131.485 145.328)"><ellipse class="a" cx="104.327" cy="69.246" rx="104.327" ry="69.246" transform="translate(0 0)"/></g><g transform="translate(253.88 242.12)"><g transform="translate(0 37.456)"><path class="b" d="M340.592,309.367s-19.673-10.4-44.016-10.044-37.025,14.943-15.228,17.359,57.464,4.563,67.371,1.377c8.746-2.813,8.651-13.518-17.834-16s-27.742,6.629-27.742,6.629Z" transform="translate(-270.149 -299.313)"/></g><g transform="translate(14.556)"><path class="c" d="M299.12,271.175c-3.692-1.622-14.495,1.111-12.645-6.022s11.889-8.983,18.494-5.813,18.31,14.795,9.684,29.326-11.006,21.137-6.25,22.457,25.345.931,24.538-5.184c-.949-7.193,10.094-3.17,10.359,1.585s-4.777,18.13-25.121,17.073-25.627-6.6-22.985-17.437S304.369,273.483,299.12,271.175Z" transform="translate(-286.263 -257.846)"/></g><g transform="translate(48.513 39.879)"><path class="c" d="M346.639,312.656s1.742-3.76-3.226-6.607c-3.164-1.813-9.38-3.3-19.557-4.054,0,0,11.759,3.926,12.622,7.323Z" transform="translate(-323.856 -301.995)"/></g><g transform="translate(11.217 42.925)"><path class="c" d="M283.175,308.359c3.831-3.3,17.879-4.331,15.161-.707-.528.7-1.519,2.853-2.509,3.479S279.344,311.662,283.175,308.359Z" transform="translate(-282.567 -305.367)"/></g><g transform="translate(29.919 43.775)"><path class="c" d="M309.263,306.524c.094-.216,9.321,4.675-1.553,5s1.647-5.216,1.647-5.216" transform="translate(-303.271 -306.308)"/></g><g transform="translate(24.278 2.783)"><circle class="d" cx="1.982" cy="1.982" r="1.982"/></g><g transform="translate(24.536 3.574)"><circle cx="0.996" cy="0.996" r="0.996"/></g><g transform="translate(17.59 0.995)"><circle class="d" cx="1.982" cy="1.982" r="1.982"/></g><g transform="translate(17.848 1.786)"><circle cx="0.996" cy="0.996" r="0.996"/></g><g transform="translate(14.785 10.064)"><path class="e" d="M286.517,268.988a40.824,40.824,0,0,0,5.233,0S287.923,270.095,286.517,268.988Z" transform="translate(-286.517 -268.988)"/></g></g><g transform="translate(102.753 226.87)"><g transform="translate(33.528 69.595)"><path class="f" d="M145.117,335.441s2.545-2.666,4.246-1.279,3.881,1.87,3.484.44-3.171-10.941-1.585-13.715-11.69-3.765-11.295-1.982,2.774,10.9,2.774,10.9Z" transform="translate(-139.958 -318.009)"/></g><g transform="translate(91.8 6.932)"><path class="g" d="M204.47,262.286s2.181-15.456,16.448-13.474a26.232,26.232,0,0,0,0,13.474c1.982,7.133-1.982,7.32-1.982,7.32Z" transform="translate(-204.47 -248.637)"/></g><g transform="translate(100.422 13.754)"><circle class="d" cx="7.663" cy="7.663" r="7.663"/><g transform="translate(6.295 1.368)"><circle cx="3.148" cy="3.148" r="3.148"/></g></g><g transform="translate(13.118 14.63)"><path class="g" d="M226.158,289.925c-3.172,1.583-22.789,17.237-28.139,18.426-4.042.9-6.507,1.229-9.348,3.054a21.92,21.92,0,0,0-2.936,2.3c-4.363,3.964-2.577,16.843-2.179,19.02s-.994.2-3.964,0-5.154,2.577-6.541,1.589c-.533-.381-.567-2.4-.421-4.985.236-4.149.943-9.769.819-12.453a15.7,15.7,0,0,0-.208-2.262c-.163-.724-.4-.343-.78.544-.191.466-.426,1.067-.7,1.718-1.095,2.577-1.678,14.862-1.285,16.647s-1.387.791-3.761-.4-2.184,5.35-5.154,0-1.583-17.438-3.767-16.647-13.076-.791-14.862.4.4,10.5,0,12.683-.988-.4-2.571-1.387-7.136,3.964-7.136,1.779-2.774-5.148-7.136-12.683-14.659-22.985-4.161-45.969,42.6-11.689,46.767-8.916,14.266.6,21.4-.791,36.066,8.719,36.066,8.719S229.329,288.342,226.158,289.925Z" transform="translate(-117.363 -257.16)"/></g><g transform="translate(115.325 26.334)"><ellipse class="h" cx="7.997" cy="10.49" rx="7.997" ry="10.49"/></g><g transform="translate(85.651 17.417)"><circle class="d" cx="8.917" cy="8.917" r="8.917"/><g transform="translate(7.325 1.591)"><circle cx="3.663" cy="3.663" r="3.663"/></g></g><g transform="translate(71.184)"><path class="g" d="M182.585,265.016s-4.755-16.8,7.134-24.053c0,0,2.377,6.738,4.756,12.026s1.981,9.648,0,12.026S182.585,265.016,182.585,265.016Z" transform="translate(-181.646 -240.963)"/></g><g transform="translate(74.658 10.054)"><path class="h" d="M185.785,262.794s-1.785-4.359,3.467-10.7c0,0,2.874,7.53,2.478,9.907S185.785,262.794,185.785,262.794Z" transform="translate(-185.492 -252.094)"/></g><g transform="translate(20.129 19.009)"><path class="h" d="M139.523,262.007s-10.3.959-13.078,10.072-.793,17.433,2.377,13.074,3.567-13.071,10.7-13.074S154.186,265.412,139.523,262.007Z" transform="translate(-125.124 -262.007)"/></g><g transform="translate(0 16.333)"><path class="g" d="M114.025,272.727a15.15,15.15,0,0,1-1.683-.1c-5.148-.572-8.242-2.119-9.2-4.6-1.257-3.27,1.759-6.722,1.888-6.867l1.26,1.117c-.024.027-2.468,2.837-1.574,5.15.7,1.817,3.4,3.037,7.807,3.526a9.42,9.42,0,0,0,3.671-.2,9.5,9.5,0,0,1-3.657-3.312,7.126,7.126,0,0,1-.549-5.967c.829-2.709,2.675-2.492,3.221-2.362,2.632.631,5.663,5.591,5,9.387a5.046,5.046,0,0,1-.694,1.838c.69.219,1.154.314,1.169.317l-.326,1.652a14.767,14.767,0,0,1-2.146-.636A7.356,7.356,0,0,1,114.025,272.727Zm.587-12.006c-.272,0-.682.175-1.01,1.246a5.512,5.512,0,0,0,.384,4.61,8.584,8.584,0,0,0,3.893,3.134,3.1,3.1,0,0,0,.675-1.5c.517-2.963-2.053-7.056-3.733-7.458A.845.845,0,0,0,114.613,260.721Z" transform="translate(-102.84 -259.045)"/></g><g transform="translate(68.386 68.573)"><path class="f" d="M191.653,319.478c-4.363,3.964-2.577,16.843-2.179,19.02s-.994.2-3.964,0-5.154,2.577-6.541,1.589l-.421-4.985c.236-4.149.943-9.769.819-12.453a15.7,15.7,0,0,0-.208-2.262,22.218,22.218,0,0,1,15.428-3.207A21.919,21.919,0,0,0,191.653,319.478Z" transform="translate(-178.549 -316.879)"/></g></g><g transform="translate(280.648 171.071)"><g transform="translate(21.606 13.476)"><path class="i" d="M323.894,194.954s-1.33,10.779,3.03,12.364,8.322,2.775,10.3,5.152,3.943.335,2.17-3.2-2.439-8.6-3.358-9.842-1.151-2.57-4.142-4.473S323.894,194.954,323.894,194.954Z" transform="translate(-323.703 -194.109)"/></g><g transform="translate(40.949 18.795)"><path class="c" d="M366.6,200.49s19.459,3.832,24.215,1.453,5.944-.792,6.737,3.964,1.19,5.151,0,7.53-.792,3.566-1.585,6.341-1.189,5.151-4.359,7.925-1.981,5.152-3.566,7.53-.886,7.133-6.982,6.341-5.895-7.53-12.733-3.567-8.423,4.535-12.386,3.655-9.907-4.05-10.7-11.184,2.378-11.1,3.567-14.663,3.17-5.149,3.171-8.718-1.585-4.562,0-6.244S366.6,200.49,366.6,200.49Z" transform="translate(-345.117 -199.997)"/></g><g transform="translate(37.3 0)"><path class="i" d="M341.078,182.067c-.1-.037,9.859-3.034,14.02-2.871s3.171,1.218,9.115,2.871,7.53.539,10.5,1.492,2.18.918,3.368,4.5,2.377,3.981,4.161,7.151,5.548,6.539,2.18,6.539-12.762.3-14.663,0-3.157-1.387-6.335-3.567-11.9-9.348-13.877-10.123S341.078,182.067,341.078,182.067Z" transform="translate(-341.077 -179.19)"/></g><g transform="translate(0 0.006)"><path class="j" d="M299.783,185.354s18.428-5.747,24.967-6.143,27.544,7.926,33.488,14.862,6.539,5.944,4.954,8.718-3.964,6.341-5.944,4.558-17.041-11.493-28.137-10.7-14.465-1.516-16.249-3.136C308.9,193.512,299.783,189.119,299.783,185.354Z" transform="translate(-299.783 -179.197)"/></g><g transform="translate(21.797 5.165)"><path class="i" d="M323.914,187.839s5.112-4.954,10.284-1.982,5.171,4.558,6.757,3.964c0,0-.2,3.566-2.774,2.18s-4.262-5.747-7.332-6.143S323.914,187.839,323.914,187.839Z" transform="translate(-323.914 -184.908)"/></g><g transform="translate(11.493 0.007)"><circle class="d" cx="3.666" cy="3.666" r="3.666"/></g><g transform="translate(12.87 1.384)"><circle cx="1.492" cy="1.492" r="1.492"/></g><g transform="translate(51.203 34.635)"><path class="d" d="M357.211,217.587a8.427,8.427,0,0,0-.733,2.156c-.09.442.574.633.68.188a8.513,8.513,0,0,0,.257-2.289c0-.1-.154-.156-.2-.055Z" transform="translate(-356.469 -217.533)"/></g><g transform="translate(48.952 44.223)"><path class="d" d="M354.126,228.172a3.563,3.563,0,0,0-.135.721,1.035,1.035,0,0,0,.082.659.1.1,0,0,0,.17,0,1.035,1.035,0,0,0,.082-.659,3.556,3.556,0,0,0-.135-.721.033.033,0,0,0-.063,0Z" transform="translate(-353.976 -228.149)"/></g><g transform="translate(50.96 51.632)"><path class="d" d="M356.2,236.377a11.177,11.177,0,0,0,1.115,2.241c.18.286.635.023.455-.266a11.193,11.193,0,0,0-1.533-2c-.015-.015-.044,0-.037.021Z" transform="translate(-356.2 -236.35)"/></g><g transform="translate(52.449 42.888)"><path class="d" d="M357.868,226.724a7.994,7.994,0,0,0,0,.976,1.06,1.06,0,0,0,.231.7.123.123,0,0,0,.19-.024,1.052,1.052,0,0,0,.007-.729,7.7,7.7,0,0,0-.316-.933.055.055,0,0,0-.108.015Z" transform="translate(-357.848 -226.67)"/></g><g transform="translate(54.879 49.741)"><path class="d" d="M360.548,234.353a11.279,11.279,0,0,0,1.463,1.994c.229.243.551-.108.357-.357a11.06,11.06,0,0,0-1.717-1.717c-.054-.045-.144.011-.1.08Z" transform="translate(-360.538 -234.257)"/></g><g transform="translate(55.661 45.271)"><path class="d" d="M361.436,229.428l.51.3c.113.065.214-.12.1-.17l-.544-.239c-.076-.033-.142.07-.067.114Z" transform="translate(-361.403 -229.308)"/></g><g transform="translate(60.678 48.409)"><path class="d" d="M366.972,232.895a13.376,13.376,0,0,0,1.419,1.515c.335.325.795-.235.4-.517a12.841,12.841,0,0,0-1.712-1.1c-.061-.031-.155.038-.106.1Z" transform="translate(-366.958 -232.783)"/></g><g transform="translate(58.613 42.075)"><path class="d" d="M364.679,225.85c.125.251.228.5.333.763a5.389,5.389,0,0,0,.339.628c.132.235.508.014.359-.21a5.649,5.649,0,0,0-.4-.589c-.183-.214-.364-.421-.533-.648a.055.055,0,0,0-.095.055Z" transform="translate(-364.672 -225.77)"/></g><g transform="translate(56.889 32.008)"><path class="d" d="M363.1,214.667a1.958,1.958,0,0,0,.285,2.573.188.188,0,0,0,.274-.21,3.258,3.258,0,0,1-.4-2.294.088.088,0,0,0-.161-.068Z" transform="translate(-362.763 -214.625)"/></g><g transform="translate(60.554 35.486)"><path class="d" d="M366.934,218.532c-.039.3-.1.618-.112.924a4.7,4.7,0,0,0,.107.866c.055.348.665.27.62-.084a4.314,4.314,0,0,0-.166-.928c-.1-.275-.229-.54-.346-.807-.025-.057-.1-.019-.1.028Z" transform="translate(-366.821 -218.475)"/></g><g transform="translate(62.165 41.731)"><path class="d" d="M368.635,225.914a3.49,3.49,0,0,0,.966,1.671.365.365,0,0,0,.545-.313,3.411,3.411,0,0,0-.729-1.688c-.239-.4-.971-.134-.781.33Z" transform="translate(-368.604 -225.39)"/></g><g transform="translate(66.044 47.597)"><path class="d" d="M372.9,231.966c.1.205.157.463.255.677a6.375,6.375,0,0,0,.418.788c.145.223.28.458.437.673s.253.174.486.306a.133.133,0,0,0,.193-.148c-.033-.218.034-.311-.079-.509a8.363,8.363,0,0,0-.525-.725,4.879,4.879,0,0,0-.452-.534c-.2-.207-.457-.386-.648-.593-.043-.048-.112.013-.086.066Z" transform="translate(-372.899 -231.883)"/></g><g transform="translate(66.284 38.422)"><path class="d" d="M373.168,221.758c.159.248.316.5.477.747a5.6,5.6,0,0,0,.529.632c.073.083.22-.028.154-.119a5.878,5.878,0,0,0-.5-.655c-.205-.214-.418-.422-.627-.632a.022.022,0,0,0-.034.027Z" transform="translate(-373.164 -221.725)"/></g><g transform="translate(70.219 46.012)"><path class="d" d="M377.525,230.222a8.369,8.369,0,0,0,.658,1.29,2.856,2.856,0,0,1,.189.3.6.6,0,0,1,.062.414.93.93,0,0,0,.3.815c.531.6,1.408-.164,1.068-.824-.229-.444-.509-.492-.99-.528l.244.139a11.34,11.34,0,0,0-1.4-1.681c-.051-.049-.159,0-.128.074Z" transform="translate(-377.52 -230.128)"/></g><g transform="translate(75.267 55.066)"><path class="d" d="M383.11,240.18c.043.232.078.467.127.7a4.328,4.328,0,0,0,.243.666c.088.22.448.125.36-.1a5.048,5.048,0,0,0-.275-.652c-.125-.216-.276-.422-.414-.631a.022.022,0,0,0-.041.017Z" transform="translate(-383.109 -240.152)"/></g><g transform="translate(77.131 46.262)"><path class="d" d="M386.42,234.424a26.514,26.514,0,0,0-1.077-3.957.088.088,0,0,0-.169.047,26.331,26.331,0,0,0,1.161,3.934.044.044,0,0,0,.085-.023Z" transform="translate(-385.173 -230.406)"/></g><g transform="translate(72.083 37.7)"><path class="d" d="M382.961,223.872c-.556-.57-1.1-1.151-1.674-1.7a4.312,4.312,0,0,0-1.547-1.238c-.082-.024-.182.061-.148.148a4.248,4.248,0,0,0,1.346,1.44c.6.528,1.222,1.029,1.837,1.539.128.106.306-.063.186-.186Z" transform="translate(-379.584 -220.926)"/></g><g transform="translate(64.826 31.239)"><path class="d" d="M375.084,218.126a29.146,29.146,0,0,0-1.723-2.5,6.663,6.663,0,0,0-1.644-1.833.111.111,0,0,0-.161.124,6.6,6.6,0,0,0,1.415,2.009,29.394,29.394,0,0,0,2.061,2.245.033.033,0,0,0,.052-.04Z" transform="translate(-371.55 -213.774)"/></g><g transform="translate(63.621 28.624)"><path class="d" d="M370.229,210.953a12.131,12.131,0,0,0,1.222,1.156,3.174,3.174,0,0,0,1.154.779.122.122,0,0,0,.136-.177,3.194,3.194,0,0,0-1.041-.927,12.089,12.089,0,0,0-1.419-.9.044.044,0,0,0-.053.069Z" transform="translate(-370.216 -210.879)"/></g><g transform="translate(67.623 26.472)"><path class="d" d="M374.659,208.57a6.761,6.761,0,0,0,1.574,1.628.088.088,0,0,0,.12-.12,6.76,6.76,0,0,0-1.632-1.569.044.044,0,0,0-.062.061Z" transform="translate(-374.647 -208.497)"/></g><g transform="translate(70.709 31.49)"><path class="d" d="M378.09,214.2a18.375,18.375,0,0,0,1.445,1.361c.355.3.81.754,1.305.6a.178.178,0,0,0,.128-.169c-.02-.52-.573-.785-.975-1.02a18.083,18.083,0,0,0-1.8-.905.088.088,0,0,0-.106.137Z" transform="translate(-378.063 -214.051)"/></g><g transform="translate(73.2 27.473)"><path class="d" d="M380.829,209.686a9.041,9.041,0,0,0,.851,1.121,2.276,2.276,0,0,0,1.026.865.21.21,0,0,0,.256-.257,2.122,2.122,0,0,0-.841-.948,9.559,9.559,0,0,0-1.217-.857.055.055,0,0,0-.075.075Z" transform="translate(-380.821 -209.605)"/></g><g transform="translate(74.727 25.465)"><path class="d" d="M382.528,207.443c.371.2.7.474,1.085.654s.817.3,1.219.438.6-.525.181-.656a12.165,12.165,0,0,0-1.2-.37c-.415-.084-.849-.061-1.264-.126-.033-.005-.061.042-.025.061Z" transform="translate(-382.512 -207.382)"/></g><g transform="translate(78.171 31.833)"><path class="d" d="M386.339,214.474a4.08,4.08,0,0,1,1.394.894,9.109,9.109,0,0,1,.92,1.229c.058.077.214.066.2-.055a2.684,2.684,0,0,0-2.512-2.111c-.026,0-.027.035-.005.042Z" transform="translate(-386.324 -214.432)"/></g><g transform="translate(77.871 38.092)"><path class="d" d="M386.038,221.491a1.837,1.837,0,0,1,1.117,1.259.2.2,0,0,0,.142.142.223.223,0,0,0,.156-.021.2.2,0,0,0,.1-.174,1.541,1.541,0,0,0-1.5-1.336c-.077,0-.085.107-.017.13Z" transform="translate(-385.992 -221.361)"/></g><g transform="translate(81.048 45.545)"><path class="d" d="M389.53,229.644a15.319,15.319,0,0,0,.049,2.275,2.387,2.387,0,0,0,.4,1.539.165.165,0,0,0,.258-.033,2.38,2.38,0,0,0-.047-1.588,15.431,15.431,0,0,0-.592-2.2.033.033,0,0,0-.065.009Z" transform="translate(-389.509 -229.611)"/></g><g transform="translate(84.216 41.003)"><path class="d" d="M393.4,226.243c-.016-.3-.023-.612-.05-.915a1.447,1.447,0,0,0-.171-.709.078.078,0,0,0-.14.018,1.422,1.422,0,0,0,.065.724c.072.3.168.593.252.887.007.023.045.02.043-.005Z" transform="translate(-393.016 -224.583)"/></g><g transform="translate(82.551 36.706)"><path class="d" d="M391.6,222.629a8.182,8.182,0,0,0,.135-.923c.009-.324-.088-.9.127-1.169a.416.416,0,1,0-.589,0c.227.283.116.828.126,1.169a8.9,8.9,0,0,0,.136.923.033.033,0,0,0,.063,0Z" transform="translate(-391.173 -219.826)"/></g><g transform="translate(87.596 35.903)"><path class="d" d="M397.166,223.062c.092-.761.205-1.523.276-2.286a2.649,2.649,0,0,0-.168-1.76.167.167,0,0,0-.284,0,2.661,2.661,0,0,0-.168,1.76c.071.763.185,1.526.277,2.286a.033.033,0,0,0,.066,0Z" transform="translate(-396.758 -218.937)"/></g><g transform="translate(83.604 28.207)"><path class="d" d="M395.645,213a20.086,20.086,0,0,0-1.651-1.652c-.408-.349-.915-.984-1.493-.93a.169.169,0,0,0-.159.209c.089.574.829.911,1.265,1.223a20.055,20.055,0,0,0,2,1.2.033.033,0,0,0,.04-.052Z" transform="translate(-392.339 -210.418)"/></g><g transform="translate(81.133 28.625)"><path class="d" d="M392.241,214.1a3.762,3.762,0,0,0-.693-2.2c-.361-.454-1.2-1.281-1.828-.929a.247.247,0,0,0-.111.273c.11.514.885.813,1.239,1.159a4.9,4.9,0,0,1,1.306,1.711c.016.043.09.041.087-.011Z" transform="translate(-389.603 -210.88)"/></g><g transform="translate(87.423 24.572)"><path class="d" d="M396.575,206.528c.25.564.525,1.107.814,1.65a4.494,4.494,0,0,0,.935,1.391.265.265,0,0,0,.44-.256,4.8,4.8,0,0,0-.939-1.523c-.359-.471-.722-.925-1.113-1.369-.071-.08-.175.023-.137.107Z" transform="translate(-396.567 -206.393)"/></g><g transform="translate(90.36 25.151)"><path class="d" d="M399.869,207.108a17.86,17.86,0,0,0,.189,4.533c.045.182.282.119.3-.042a17.806,17.806,0,0,0-.337-4.491.077.077,0,0,0-.154,0Z" transform="translate(-399.818 -207.034)"/></g><g transform="translate(87.952 32.013)"><path class="d" d="M397.154,214.726l.23,1.154a2.379,2.379,0,0,0,.3.985.1.1,0,0,0,.184-.05,2.418,2.418,0,0,0-.213-1.012l-.358-1.117a.077.077,0,0,0-.148.041Z" transform="translate(-397.152 -214.631)"/></g><g transform="translate(79.641 23.971)"><path class="d" d="M392.6,206.685a7.857,7.857,0,0,0-4.551-.893c-.125.019-.135.206-.034.261a7.817,7.817,0,0,0,4.563.714c.039,0,.065-.06.022-.081Z" transform="translate(-387.952 -205.728)"/></g><g transform="translate(52.078 26.767)"><path class="d" d="M357.913,208.862a5.66,5.66,0,0,0-.306,3.487.134.134,0,0,0,.241.032,5.554,5.554,0,0,0,.171-3.518c-.013-.057-.088-.046-.106,0Z" transform="translate(-357.437 -208.823)"/></g><g transform="translate(48.573 33.391)"><path class="d" d="M353.589,216.221a.033.033,0,0,0,0-.065.033.033,0,0,0,0,.065Z" transform="translate(-353.557 -216.156)"/></g><g transform="translate(46.603 33.381)"><path class="d" d="M353.076,216.165a7.775,7.775,0,0,0-.973,1.65l.185-.185-.354.048a.749.749,0,0,0-.546.717l-.011.17a.687.687,0,0,0,1.161.481l.121-.125a.755.755,0,0,0,.117-.9l-.187-.267v.267a7.685,7.685,0,0,0,.567-1.82.044.044,0,0,0-.08-.034Z" transform="translate(-351.375 -216.145)"/></g><g transform="translate(46.776 38.929)"><path class="d" d="M352.033,222.318a6.1,6.1,0,0,0-.393,1.237,1.18,1.18,0,0,0,.057.955.133.133,0,0,0,.207.026c.3-.286.267-.592.3-.987a5.863,5.863,0,0,0-.083-1.231c-.007-.048-.071-.034-.085,0Z" transform="translate(-351.568 -222.287)"/></g><g transform="translate(43.773 44.71)"><path class="d" d="M348.245,228.782l.3,1.6a3.3,3.3,0,0,0,.44,1.359.144.144,0,0,0,.266-.072,3.322,3.322,0,0,0-.312-1.4l-.55-1.531a.077.077,0,0,0-.148.042Z" transform="translate(-348.243 -228.687)"/></g><g transform="translate(44.311 51.325)"><path class="d" d="M348.848,236.108a21.723,21.723,0,0,0,1.191,1.831c.314.411.654,1.094,1.2,1.191a.157.157,0,0,0,.194-.148c.015-.56-.573-1.022-.917-1.413a21.392,21.392,0,0,0-1.568-1.54c-.053-.05-.144.014-.1.079Z" transform="translate(-348.838 -236.01)"/></g><g transform="translate(47.723 48.928)"><path class="d" d="M352.621,233.464a8.18,8.18,0,0,0,.556,1.6c.038.07.13.018.12-.052a8.122,8.122,0,0,0-.508-1.591c-.038-.1-.2-.063-.169.047Z" transform="translate(-352.616 -233.357)"/></g><g transform="translate(51.149 57.103)"><path class="d" d="M356.457,242.59a9.689,9.689,0,0,0,2.619,1.237.276.276,0,0,0,.211-.5,9.66,9.66,0,0,0-2.754-.915.1.1,0,0,0-.076.18Z" transform="translate(-356.408 -242.407)"/></g><g transform="translate(58.575 54.986)"><path class="d" d="M364.685,240.212c.7.2,1.39.426,2.093.606a3.407,3.407,0,0,0,1.654.226.11.11,0,0,0,.048-.183,3.363,3.363,0,0,0-1.582-.48c-.719-.127-1.449-.213-2.172-.317a.077.077,0,0,0-.041.148Z" transform="translate(-364.63 -240.063)"/></g><g transform="translate(67.838 51.863)"><path class="d" d="M374.924,236.714l1.213.393c.258.084,1.075.21,1.158.5a.57.57,0,1,0,.146-.555c-.218.206-.992-.108-1.243-.164l-1.246-.277a.055.055,0,0,0-.029.106Z" transform="translate(-374.885 -236.606)"/></g><g transform="translate(79.776 52.892)"><path class="d" d="M388.6,237.808a4.728,4.728,0,0,0-.3,3.272.156.156,0,0,0,.266,0,4.706,4.706,0,0,0,.208-3.272c-.021-.093-.141-.074-.17,0Z" transform="translate(-388.101 -237.745)"/></g></g><g transform="translate(101.941 153.262)"><g transform="translate(0 0)"><path class="k" d="M142.093,173.784S157.07,187.15,156.969,190.5s-16.476,15.116-21.233,16.3-8.323,2.374-13.474-.006-8.8-4.361-11.334-1.985-4.123,4.779-6.5,7.539-4.758,4.791,1.583,4.571,17.156-.165,23.439.011a40,40,0,0,0,16.984-2.735c5.55-2.234,5.99.171,10.526-1.822s5.726-5.162,10.086-5.953,9.906,1.986,8.719-1.977-2.771-6.44-1.977-8.769A7.979,7.979,0,0,0,173,187.94c-1.98-3.314.407-22.847,1.2-24.176s-3.563-6.833-3.565-2.893-1.591,11.468-2.781,15.827-2.383,9.953-6.345,7.154-17.036-10.6-17.035-12.847-3.763-3.832-3.963-1.256S141.288,173.056,142.093,173.784Z" transform="translate(-101.941 -159.474)"/></g><g transform="translate(8.985 19.339)"><path class="l" d="M158.7,190.286s2.97,4.812-3.769,9.126-19.426,16.62-24.974,15.02-17.041,1.168-17.832-4.381.4-10.221,3.176-10.657c1.983-4.092,5.552-8.093,7.929-6.84,2.777-6.648,23.389-14.4,27.35-10.726S158.7,190.286,158.7,190.286Z" transform="translate(-111.888 -180.883)"/></g><g transform="translate(55.072 24.477)"><circle class="d" cx="3.501" cy="3.501" r="3.501"/><g transform="translate(2.737)"><circle cx="2.132" cy="2.132" r="2.132"/></g></g><g transform="translate(65.905 23.427)"><circle class="d" cx="2.974" cy="2.974" r="2.974"/><g transform="translate(2.325)"><circle cx="1.812" cy="1.812" r="1.812"/></g></g><g transform="translate(57.413 33.545)"><path class="l" d="M165.721,197.324c-.328,1.668-.527,3.94,1.2,4.951,1.681.982,2.959-.555,4.291-1.376,2.465-1.519,5.488.611,7.78-1a2.106,2.106,0,0,0,.5-3.25.136.136,0,0,0-.213.164c1.841,3.021-2.876,3.241-4.6,3.13a6.179,6.179,0,0,0-2.844.28,15.944,15.944,0,0,0-1.945,1.318c-3.648,2.193-4.387-1.614-4.12-4.21,0-.029-.046-.036-.051-.006Z" transform="translate(-165.502 -196.61)"/></g><g transform="translate(19.446 30.622)"><path class="k" d="M125.131,193.407a7.645,7.645,0,0,0-.023,9.487,7.3,7.3,0,0,0,8.291,2.291.144.144,0,0,0-.072-.266c-2.751.3-5.539-.122-7.51-2.26a7.691,7.691,0,0,1-.553-9.175c.054-.087-.074-.154-.133-.078Z" transform="translate(-123.469 -193.374)"/></g><g transform="translate(12.205 37.582)"><path class="k" d="M115.8,201.189c-1.607,4.933,2.66,10.458,7.963,9.263.113-.025.08-.187-.027-.193-4.923-.307-8.461-3.914-7.64-8.988a.154.154,0,0,0-.3-.082Z" transform="translate(-115.453 -201.08)"/></g><g transform="translate(26.694 29.47)"><path class="k" d="M131.5,198.061c1.031,1.3,3.333,1.383,4.682.574a3.8,3.8,0,0,0,1.726-4.153c-1.036-3.573-6.418-2.99-6.323.824a.3.3,0,0,0,.3.3,8.285,8.285,0,0,0,1.883-.366.141.141,0,0,0-.038-.276,7.987,7.987,0,0,0-1.845.05l.3.3a2.625,2.625,0,0,1,2.716-2.764,2.964,2.964,0,0,1,2.643,3.033,3.453,3.453,0,0,1-2.535,3.08c-1.31.36-2.307-.173-3.484-.622-.018-.007-.026.017-.017.029Z" transform="translate(-131.493 -192.099)"/></g><g transform="translate(59.96 41.815)"><path class="l" d="M168.506,205.828a6.862,6.862,0,0,0,1.854,6.589.353.353,0,0,0,.551-.425,13.393,13.393,0,0,1-2.233-6.141c-.006-.094-.149-.125-.173-.023Z" transform="translate(-168.322 -205.765)"/></g><g transform="translate(47.115 47.436)"><path class="l" d="M158.933,218.157a12.268,12.268,0,0,1-4.1-5.955.3.3,0,0,0-.575,0,4.958,4.958,0,0,0,4.573,6.195c.113,0,.2-.164.1-.239Z" transform="translate(-154.101 -211.988)"/></g><g transform="translate(66.803 42.515)"><path class="l" d="M179,210.686a10.691,10.691,0,0,1-2.717-4.01.194.194,0,0,0-.379.051,4.173,4.173,0,0,0,3.012,4.105.089.089,0,0,0,.085-.147Z" transform="translate(-175.898 -206.541)"/></g></g><g transform="translate(188.263 95.246)"><g transform="translate(45.033 35.4)"><path class="m" d="M265.327,174.067c2.269.117-8.983-10.832-10.568-20.344a67.909,67.909,0,0,1,0-19.287h-7.4s.528,15.853,2.378,21.665S255.023,173.538,265.327,174.067Z" transform="translate(-247.361 -134.436)"/></g><g transform="translate(15.707 18.858)"><path class="m" d="M214.9,119.719c1.057.265,13.21,11.889,16.645,22.986s8.982,22.986,15.852,26.42,11.4,2.536,11.4,2.536l-9.521-10a33.76,33.76,0,0,1-8.216-12.615c-2.906-7.926-5.548-16.381-9.775-22.457s-6.076-9.247-8.719-10.3S214.9,119.719,214.9,119.719Z" transform="translate(-214.895 -116.124)"/></g><path class="n" d="M202.645,96.857c-.7,2.3-3.171,8.509-3.434,14.939s-3.7,9.6,0,11.187,3.7,4.227,7.133,1.585,5.813-1.057,6.869-1.585,1.485.1,2.988-2.724,4.249-3.686,6.178-5.1,2.722-2.034,2.986-4.1,1.322-2.6,1.322-5.768,1.409-1.542,0-4.336c-1.575-3.123-2.378-3.795-4.227-4.089S203.707,93.383,202.645,96.857Z" transform="translate(-197.506 -95.246)"/><g transform="translate(33.722 19.747)"><path class="n" d="M246.15,117.7s-2.642,2.907-5.813,5.813-6.593,3.572-5.164,6.36,1.5,5.265,3.6,5.265.329,1.112,3.946,1.321,1.268-.593,5.813,0,5.585,1.057,6.756-1.057,1.7-1.321,3.812-2.642a6.078,6.078,0,0,0,3.171-4.954c.265-2.18.7-1.6,0-3.236C260.966,121.526,248.6,115.139,246.15,117.7Z" transform="translate(-234.839 -117.108)"/></g><g transform="translate(7.156 22.576)"><path class="m" d="M209.736,124.423a3.2,3.2,0,0,1-3.037-1.188,4.311,4.311,0,0,1-.5-2.888.11.11,0,0,0-.187-.077,2.723,2.723,0,0,0,.185,3.56,3.048,3.048,0,0,0,3.615.773c.111-.049.024-.2-.076-.181Z" transform="translate(-205.429 -120.24)"/></g><g transform="translate(12.8 19.252)"><path class="m" d="M217.554,120.13c-1.247.21-2.591.384-3.653-.486a5.591,5.591,0,0,1-1.536-2.95.189.189,0,0,0-.341-.044c-1.738,3.079,3.507,6.36,5.58,3.545.025-.034-.016-.07-.05-.065Z" transform="translate(-211.677 -116.559)"/></g><g transform="translate(17.891 15.007)"><path class="m" d="M222.294,117.613c1.357-2.913-1.7-6.965-4.9-5.408-.152.074-.057.271.078.286a5.725,5.725,0,0,1,3.6,1.392,4.585,4.585,0,0,1,1.107,3.7.066.066,0,0,0,.122.033Z" transform="translate(-217.313 -111.86)"/></g><g transform="translate(22.421 11.516)"><path class="m" d="M227.022,112.8a3.782,3.782,0,0,0-1.032-3.726,3.242,3.242,0,0,0-3.594-.813.145.145,0,0,0,.034.261,8.175,8.175,0,0,1,2.843,1.16,4.55,4.55,0,0,1,1.555,3.092c0,.106.173.14.194.026Z" transform="translate(-222.327 -107.995)"/></g><g transform="translate(23.813 5.799)"><path class="m" d="M229.152,104.865c1-3.264-4.631-4.613-5.277-1.227a.321.321,0,0,0,.532.309,2.958,2.958,0,0,1,2.549-.849,3.047,3.047,0,0,1,1.9,1.807.166.166,0,0,0,.3-.04Z" transform="translate(-223.868 -101.666)"/></g><g transform="translate(1.609 23.681)"><path class="m" d="M201.154,125.569a3.264,3.264,0,0,1-.676-3.861c.066-.169-.153-.3-.29-.223-1.618.906-.906,4.025.934,4.159a.045.045,0,0,0,.032-.075Z" transform="translate(-199.287 -121.463)"/></g><g transform="translate(36.212 32.301)"><path class="m" d="M239.731,135.768c-.153-.721-.868-1.181-1.081-1.919a4.056,4.056,0,0,1,.209-2.536c.1-.256-.251-.395-.422-.246a2.733,2.733,0,0,0-.654,3.021c.243.706,1.009,2.079,1.94,1.694a.011.011,0,0,0,.008-.013Z" transform="translate(-237.595 -131.005)"/></g><g transform="translate(40.872 32.846)"><path class="m" d="M245.7,136.812a2.921,2.921,0,0,1-1.25-4.726c.182-.226-.048-.61-.332-.431a2.982,2.982,0,0,0,1.537,5.48c.2.005.21-.261.044-.323Z" transform="translate(-242.755 -131.609)"/></g><g transform="translate(46.601 34.273)"><path class="m" d="M249.147,136.658c2.122,1.009,3.8-2.616,1.617-3.458-.151-.058-.267.135-.2.257a2.343,2.343,0,0,1,.392,1.865,1.986,1.986,0,0,1-1.76,1.152c-.087.008-.147.137-.05.183Z" transform="translate(-249.097 -133.189)"/></g><g transform="translate(50.783 31.877)"><path class="m" d="M256.7,136c1.883-2.235-.041-5.212-2.666-5.462-.37-.035-.413.52-.085.624,2.125.675,2.974,2.724,2.714,4.823,0,.019.025.029.037.015Z" transform="translate(-253.727 -130.536)"/></g><g transform="translate(55.812 30.315)"><path class="m" d="M262.144,132.824a2.952,2.952,0,0,0-2.61-4.017.242.242,0,0,0-.121.449,4.707,4.707,0,0,1,2.624,3.554.055.055,0,0,0,.108.014Z" transform="translate(-259.294 -128.807)"/></g><g transform="translate(55.728 27.351)"><path class="m" d="M264.053,128.058c.353-2.533-3.483-3.4-4.823-1.52-.1.135.062.318.211.274a4.2,4.2,0,0,1,2.652-.1,6.294,6.294,0,0,1,1.85,1.375c.033.029.1.023.11-.029Z" transform="translate(-259.201 -125.526)"/></g><g transform="translate(47.732 55.261)"><path class="n" d="M254.972,167.236a29.307,29.307,0,0,1-4.365-10.718c-.026-.146-.263-.111-.258.035a15.737,15.737,0,0,0,4.6,10.7c.01.01.028,0,.02-.015Z" transform="translate(-250.349 -156.424)"/></g><g transform="translate(51.62 63.817)"><path class="n" d="M259,172.453c-1.331-2.209-2.724-4.371-4.163-6.512-.07-.1-.238-.009-.171.1,1.366,2.19,2.77,4.346,4.243,6.466.038.055.126.005.091-.053Z" transform="translate(-254.654 -165.896)"/></g><g transform="translate(38.921 60.449)"><path class="n" d="M248,171.591a36.78,36.78,0,0,1-7.234-9.377c-.058-.1-.21-.013-.159.093a29.787,29.787,0,0,0,7.3,9.377c.063.056.155-.035.093-.093Z" transform="translate(-240.594 -162.168)"/></g><g transform="translate(37.101 54.516)"><path class="n" d="M243.8,164.929a32.983,32.983,0,0,1-5.061-9.276c-.033-.095-.184-.055-.153.042a26.492,26.492,0,0,0,5.172,9.265c.019.023.06-.008.042-.032Z" transform="translate(-238.58 -155.599)"/></g><g transform="translate(33.786 47.711)"><path class="n" d="M236.932,153.776c-.646-1.9-1.278-3.8-1.957-5.689-.014-.039-.077-.023-.063.018.634,1.9,1.315,3.789,1.982,5.681.008.023.046.014.038-.01Z" transform="translate(-234.91 -148.065)"/></g><g transform="translate(48.897 69.876)"><path class="n" d="M251.649,172.659a23.914,23.914,0,0,0,6.974,4.336c.075.03.131-.1.055-.133a27.8,27.8,0,0,1-6.982-4.25c-.033-.027-.079.018-.047.047Z" transform="translate(-251.638 -172.604)"/></g><g transform="translate(46.144 68.467)"><path class="n" d="M248.615,171.165c1.711,1.456,3.4,2.952,5.16,4.347.09.072.22-.05.13-.13-1.683-1.491-3.452-2.889-5.188-4.32-.071-.059-.173.042-.1.1Z" transform="translate(-248.591 -171.044)"/></g><g transform="translate(32.768 45.938)"><path class="n" d="M236.818,154.118a47.691,47.691,0,0,0-2.76-7.922c-.064-.161-.323-.1-.266.073a47.751,47.751,0,0,0,2.976,7.87c.015.029.057.008.051-.022Z" transform="translate(-233.783 -146.103)"/></g><g transform="translate(54.626 66.831)"><path class="n" d="M257.982,169.243a13.5,13.5,0,0,0,7.92,6.483c.2.062.347-.258.146-.349a23.015,23.015,0,0,1-8.056-6.142c-.005-.005-.014,0-.011.008Z" transform="translate(-257.981 -169.233)"/></g></g></g><g transform="translate(134 384)"><path class="o" d="M369.131,449.694a15.287,15.287,0,0,1-14.354-20.977c11.358-28.4,48.842-79.8,95.961-119.447,68.732-57.836,150.875,17.6,207.034,75.437s1.42,61.724-1.584,61.724Z" transform="translate(-353.666 -244.629)"/><g transform="translate(223.994 53.382)"><g transform="translate(0 0)"><path class="p" d="M806.534,358.285c.176,11.139-8.011,20.578-18.332,22.868a5.373,5.373,0,0,0-.906.272,2.132,2.132,0,0,0-1.381,2.357c.044,7.369.021,14.734.028,22.1v.028a2.579,2.579,0,0,1-2.621,2.581c-.172,0-.347-.012-.523-.024a2.619,2.619,0,0,1-2.486-2.625c0-.108,0-.22,0-.331-.115-6.946-.1-13.892-.008-20.833a3.935,3.935,0,0,0-.471-2.2c0-.008-.012-.02-.02-.032a3.934,3.934,0,0,0-2.621-1.432c-9.986-2.3-17.422-11.921-17.5-22.206-.048-6.527-.144-13.05-.215-19.577.072-3.615.184-7.229.215-10.84A23.412,23.412,0,0,1,779.9,305.9c11.605-1.425,22.249,5.346,25.433,16.1a2.51,2.51,0,0,0,.391.806c.092.128.192.259.287.391l.04-.04a87.373,87.373,0,0,1,.459,12.715C806.514,343.344,806.41,350.816,806.534,358.285Z" transform="translate(-759.477 -305.713)"/><path class="q" d="M781.1,411.336c-1.162.824-1.984.358-2.712-.892a5.545,5.545,0,0,1,2.08-7.371,1.613,1.613,0,0,1,2.447.637A5.051,5.051,0,0,1,781.1,411.336Z" transform="translate(-767.654 -349.191)"/><path class="p" d="M784.042,402.753a8.9,8.9,0,0,1-1.492,2.307,2.679,2.679,0,0,0,1-.407,15.563,15.563,0,0,0-.859,4.343s.814-4.117,1.357-4.433a1.125,1.125,0,0,0,.181.9C784.54,405.965,784.042,402.753,784.042,402.753Z" transform="translate(-769.814 -349.19)"/><path class="q" d="M783.507,344.626c-1.162.824-1.984.358-2.712-.891a5.545,5.545,0,0,1,2.08-7.372,1.613,1.613,0,0,1,2.447.637A5.051,5.051,0,0,1,783.507,344.626Z" transform="translate(-768.733 -319.302)"/><path class="p" d="M786.45,336.043a8.91,8.91,0,0,1-1.493,2.307,2.686,2.686,0,0,0,1-.407,15.577,15.577,0,0,0-.859,4.342s.814-4.117,1.357-4.433a1.126,1.126,0,0,0,.18.9C786.948,339.255,786.45,336.043,786.45,336.043Z" transform="translate(-770.893 -319.302)"/><path class="q" d="M821.467,383.929c1.162.824,1.984.358,2.712-.891a5.545,5.545,0,0,0-2.08-7.372,1.613,1.613,0,0,0-2.448.638A5.051,5.051,0,0,0,821.467,383.929Z" transform="translate(-785.973 -336.912)"/><path class="p" d="M822.13,375.347a8.906,8.906,0,0,0,1.493,2.307,2.68,2.68,0,0,1-1-.407,15.581,15.581,0,0,1,.859,4.343s-.814-4.117-1.357-4.433a1.126,1.126,0,0,1-.18.9C821.632,378.559,822.13,375.347,822.13,375.347Z" transform="translate(-787.419 -336.911)"/></g><path class="r" d="M806.241,404.551c-.3,2.661-.121,4.536-3.014,7.209-2.342,2.162-5.852,4.4-7.105,6.351a2.132,2.132,0,0,0-1.38,2.357c.044,7.369.02,14.734.028,22.1v.028a2.579,2.579,0,0,1-2.621,2.581c-.172,0-.347-.012-.523-.024a2.619,2.619,0,0,1-2.486-2.625c0-.108,0-.22,0-.331-.115-6.946-.1-13.892-.008-20.833a3.934,3.934,0,0,0-.471-2.2.373.373,0,0,0-.02-.032,11.141,11.141,0,0,0-3.48-3.754c-2.418-1.672-5.871-7.182-5.983-7.848s3.31,4.175,5.983,6.178,6.931-1.948,6.261-7.738-1.891-8.438-1.556-12.18a10.63,10.63,0,0,1,2.892-6.192s.187.11-.926,1.893a9.548,9.548,0,0,0-1.188,7.237c.666,2.9,2.561,8.686,2.561,10.688s-1.61,6.82-.273,6.708,3.058-.582,3.169-2.7.22-4.676,1.332-5.454,0,.027-.332,1.475a10.415,10.415,0,0,0-.1,3.69c.18,2.489-1.909,3.852.321,3.52s6.823-6.013,7.456-7.683a34.712,34.712,0,0,0,1.56-6.79A14.423,14.423,0,0,1,806.241,404.551Z" transform="translate(-768.302 -342.401)"/></g><g transform="translate(94.015 107.214)"><path class="p" d="M557.511,440.686a16.692,16.692,0,0,1-13.057,16.288,3.818,3.818,0,0,0-.645.193,1.518,1.518,0,0,0-.983,1.68c.031,5.249.014,10.495.02,15.743v.02a1.837,1.837,0,0,1-1.867,1.839c-.122,0-.247-.009-.372-.017a1.865,1.865,0,0,1-1.771-1.87c0-.077,0-.156,0-.236-.082-4.947-.073-9.9-.005-14.84a2.808,2.808,0,0,0-.335-1.569l-.014-.023a2.8,2.8,0,0,0-1.867-1.02,16.619,16.619,0,0,1-12.466-15.817c-.034-4.649-.1-9.3-.154-13.944.051-2.574.13-5.149.154-7.721a16.645,16.645,0,0,1,32.506-4.552,1.792,1.792,0,0,0,.278.574c.066.091.136.184.2.278l.028-.028a62.127,62.127,0,0,1,.327,9.056C557.5,430.043,557.423,435.366,557.511,440.686Z" transform="translate(-523.993 -403.24)"/><path class="q" d="M539.393,478.474c-.828.587-1.413.254-1.932-.635a3.949,3.949,0,0,1,1.482-5.251,1.149,1.149,0,0,1,1.743.454A3.6,3.6,0,0,1,539.393,478.474Z" transform="translate(-529.817 -434.208)"/><path class="p" d="M541.49,472.36A6.346,6.346,0,0,1,540.426,474a1.9,1.9,0,0,0,.709-.29,11.124,11.124,0,0,0-.612,3.093s.58-2.932.967-3.158a.8.8,0,0,0,.129.645C541.844,474.648,541.49,472.36,541.49,472.36Z" transform="translate(-531.355 -434.208)"/><path class="q" d="M541.109,430.957c-.828.587-1.413.255-1.932-.635a3.95,3.95,0,0,1,1.482-5.251,1.149,1.149,0,0,1,1.743.454A3.6,3.6,0,0,1,541.109,430.957Z" transform="translate(-530.586 -412.919)"/><path class="p" d="M543.205,424.844a6.336,6.336,0,0,1-1.063,1.643,1.91,1.91,0,0,0,.709-.29,11.069,11.069,0,0,0-.612,3.093s.58-2.932.967-3.157a.8.8,0,0,0,.129.644C543.559,427.131,543.205,424.844,543.205,424.844Z" transform="translate(-532.124 -412.919)"/><path class="q" d="M568.147,458.953c.828.586,1.413.254,1.932-.635a3.95,3.95,0,0,0-1.482-5.25,1.149,1.149,0,0,0-1.743.454A3.6,3.6,0,0,0,568.147,458.953Z" transform="translate(-542.866 -425.462)"/><path class="p" d="M568.62,452.839a6.338,6.338,0,0,0,1.063,1.643,1.908,1.908,0,0,1-.709-.29,11.058,11.058,0,0,1,.612,3.093s-.58-2.932-.966-3.158a.8.8,0,0,1-.129.645C568.265,455.127,568.62,452.839,568.62,452.839Z" transform="translate(-543.896 -425.462)"/></g><path class="r" d="M557.3,473.641c-.211,1.9-.086,3.231-2.147,5.135-1.668,1.54-4.169,3.132-5.061,4.524a1.518,1.518,0,0,0-.983,1.68c.031,5.249.014,10.495.02,15.743v.02a1.837,1.837,0,0,1-1.867,1.839c-.122,0-.247-.009-.372-.017a1.865,1.865,0,0,1-1.771-1.87c0-.077,0-.156,0-.236-.082-4.947-.073-9.9-.005-14.84a2.809,2.809,0,0,0-.335-1.569l-.014-.023a7.941,7.941,0,0,0-2.479-2.674,18.53,18.53,0,0,1-4.262-5.589c-.079-.477,2.358,2.974,4.262,4.4s4.937-1.388,4.46-5.511-1.347-6.01-1.108-8.676a7.573,7.573,0,0,1,2.06-4.41s.133.078-.66,1.348a6.8,6.8,0,0,0-.846,5.155c.475,2.063,1.824,6.186,1.824,7.613s-1.146,4.857-.194,4.778,2.178-.415,2.258-1.924.156-3.331.949-3.885,0,.019-.237,1.05a7.426,7.426,0,0,0-.069,2.628c.129,1.773-1.36,2.743.229,2.508s4.86-4.283,5.311-5.473a24.755,24.755,0,0,0,1.111-4.836A10.275,10.275,0,0,1,557.3,473.641Z" transform="translate(-436.264 -322.159)"/><g transform="translate(44.241 64.642)"><path class="s" d="M473.525,370.473a19.776,19.776,0,0,1-15.469,19.3,4.5,4.5,0,0,0-.764.229,1.8,1.8,0,0,0-1.165,1.989c.037,6.218.017,12.433.024,18.651v.023a2.177,2.177,0,0,1-2.212,2.179c-.145,0-.293-.01-.441-.02a2.209,2.209,0,0,1-2.1-2.215c0-.091,0-.185,0-.279-.1-5.861-.088-11.723-.007-17.58a3.324,3.324,0,0,0-.4-1.859c0-.007-.01-.017-.017-.027a3.319,3.319,0,0,0-2.212-1.209c-8.426-1.942-14.7-10.059-14.769-18.738-.04-5.507-.121-11.012-.182-16.519.06-3.05.155-6.1.182-9.147a19.756,19.756,0,0,1,17.048-18.977c9.794-1.2,18.775,4.511,21.462,13.584a2.124,2.124,0,0,0,.329.68c.078.108.162.219.242.33l.034-.034a73.648,73.648,0,0,1,.387,10.729C473.508,357.866,473.421,364.172,473.525,370.473Z" transform="translate(-433.817 -326.112)"/><path class="t" d="M452.062,415.24c-.981.695-1.674.3-2.288-.752a4.679,4.679,0,0,1,1.756-6.221,1.361,1.361,0,0,1,2.065.538A4.262,4.262,0,0,1,452.062,415.24Z" transform="translate(-440.717 -362.8)"/><path class="s" d="M454.545,408a7.509,7.509,0,0,1-1.26,1.947,2.261,2.261,0,0,0,.84-.343,13.118,13.118,0,0,0-.725,3.664s.687-3.474,1.145-3.741a.95.95,0,0,0,.153.763C454.965,410.708,454.545,408,454.545,408Z" transform="translate(-442.539 -362.8)"/><path class="t" d="M454.094,358.948c-.981.695-1.674.3-2.289-.752a4.678,4.678,0,0,1,1.756-6.22,1.361,1.361,0,0,1,2.065.538A4.263,4.263,0,0,1,454.094,358.948Z" transform="translate(-441.627 -337.579)"/><path class="s" d="M456.578,351.706a7.526,7.526,0,0,1-1.26,1.947,2.261,2.261,0,0,0,.84-.344,13.157,13.157,0,0,0-.725,3.665s.687-3.474,1.145-3.741a.949.949,0,0,0,.152.763C457,354.416,456.578,351.706,456.578,351.706Z" transform="translate(-443.45 -337.579)"/><path class="t" d="M486.126,392.114c.981.695,1.674.3,2.288-.752a4.679,4.679,0,0,0-1.755-6.221,1.361,1.361,0,0,0-2.065.538A4.262,4.262,0,0,0,486.126,392.114Z" transform="translate(-456.175 -352.438)"/><path class="s" d="M486.686,384.872a7.51,7.51,0,0,0,1.26,1.947,2.264,2.264,0,0,1-.84-.344,13.123,13.123,0,0,1,.725,3.664s-.687-3.474-1.145-3.741a.95.95,0,0,1-.153.763C486.266,387.582,486.686,384.872,486.686,384.872Z" transform="translate(-457.396 -352.438)"/></g><path class="r" d="M473.278,409.516c-.25,2.245-.1,3.827-2.543,6.083-1.976,1.825-4.939,3.71-6,5.36a1.8,1.8,0,0,0-1.165,1.989c.037,6.218.017,12.433.024,18.651v.023a2.177,2.177,0,0,1-2.212,2.179c-.145,0-.293-.01-.441-.02a2.209,2.209,0,0,1-2.1-2.215c0-.091,0-.185,0-.279-.1-5.861-.088-11.723-.007-17.58a3.324,3.324,0,0,0-.4-1.858c0-.007-.011-.017-.017-.027a9.4,9.4,0,0,0-2.936-3.168c-2.04-1.411-4.954-6.06-5.049-6.622s2.793,3.523,5.049,5.212,5.849-1.644,5.283-6.529-1.6-7.12-1.313-10.278a8.969,8.969,0,0,1,2.441-5.225s.157.093-.782,1.6a8.053,8.053,0,0,0-1,6.106c.562,2.444,2.161,7.33,2.161,9.02s-1.358,5.755-.231,5.66,2.58-.492,2.675-2.28.185-3.945,1.124-4.6,0,.022-.28,1.244a8.788,8.788,0,0,0-.082,3.114c.152,2.1-1.611,3.25.271,2.971s5.758-5.074,6.292-6.484a29.31,29.31,0,0,0,1.316-5.73A12.174,12.174,0,0,1,473.278,409.516Z" transform="translate(-397.023 -292.429)"/><g transform="translate(182.574 115.266)"><g transform="translate(0 0)"><path class="s" d="M724.144,462.19a19.777,19.777,0,0,1-15.469,19.3,4.543,4.543,0,0,0-.765.228,1.8,1.8,0,0,0-1.165,1.99c.037,6.218.017,12.432.024,18.65v.024a2.176,2.176,0,0,1-2.212,2.178c-.145,0-.293-.01-.441-.02a2.209,2.209,0,0,1-2.1-2.216c0-.09,0-.185,0-.279-.1-5.861-.088-11.722-.007-17.58a3.324,3.324,0,0,0-.4-1.858.182.182,0,0,0-.017-.027,3.319,3.319,0,0,0-2.212-1.209c-8.426-1.942-14.7-10.059-14.769-18.738-.04-5.507-.121-11.012-.182-16.52.06-3.05.155-6.1.182-9.147a19.756,19.756,0,0,1,17.048-18.977c9.794-1.2,18.775,4.511,21.462,13.584a2.13,2.13,0,0,0,.329.68c.078.108.162.219.242.33l.034-.034a73.632,73.632,0,0,1,.387,10.729C724.127,449.583,724.04,455.888,724.144,462.19Z" transform="translate(-684.436 -417.829)"/><path class="t" d="M702.681,506.957c-.981.695-1.674.3-2.289-.752a4.678,4.678,0,0,1,1.756-6.22,1.361,1.361,0,0,1,2.065.538A4.263,4.263,0,0,1,702.681,506.957Z" transform="translate(-691.336 -454.517)"/><path class="s" d="M705.164,499.715a7.519,7.519,0,0,1-1.26,1.947,2.27,2.27,0,0,0,.84-.343,13.109,13.109,0,0,0-.725,3.664s.687-3.474,1.145-3.741a.948.948,0,0,0,.152.763C705.584,502.425,705.164,499.715,705.164,499.715Z" transform="translate(-693.158 -454.516)"/><path class="t" d="M704.713,450.665c-.981.694-1.674.3-2.289-.752a4.679,4.679,0,0,1,1.756-6.221,1.361,1.361,0,0,1,2.065.538A4.263,4.263,0,0,1,704.713,450.665Z" transform="translate(-692.246 -429.295)"/><path class="s" d="M707.2,443.422a7.513,7.513,0,0,1-1.26,1.947,2.258,2.258,0,0,0,.84-.343,13.148,13.148,0,0,0-.725,3.665s.687-3.474,1.145-3.741a.948.948,0,0,0,.152.763C707.616,446.133,707.2,443.422,707.2,443.422Z" transform="translate(-694.069 -429.295)"/><path class="t" d="M736.745,483.83c.981.695,1.674.3,2.288-.752a4.679,4.679,0,0,0-1.755-6.221,1.361,1.361,0,0,0-2.065.538A4.262,4.262,0,0,0,736.745,483.83Z" transform="translate(-706.794 -444.155)"/><path class="s" d="M737.3,476.588a7.507,7.507,0,0,0,1.26,1.947,2.26,2.26,0,0,1-.84-.343,13.118,13.118,0,0,1,.725,3.665s-.687-3.474-1.145-3.741a.95.95,0,0,1-.153.763C736.885,479.3,737.3,476.588,737.3,476.588Z" transform="translate(-708.015 -444.155)"/></g><path class="r" d="M723.9,501.232c-.25,2.245-.1,3.828-2.543,6.083-1.976,1.825-4.939,3.71-6,5.36a1.8,1.8,0,0,0-1.165,1.99c.037,6.218.017,12.432.024,18.65v.024A2.176,2.176,0,0,1,712,535.517c-.145,0-.293-.01-.441-.02a2.209,2.209,0,0,1-2.1-2.216c0-.091,0-.185,0-.279-.1-5.861-.088-11.722-.007-17.58a3.322,3.322,0,0,0-.4-1.858.208.208,0,0,0-.017-.027,9.4,9.4,0,0,0-2.936-3.168c-2.04-1.41-4.954-6.059-5.049-6.622s2.793,3.523,5.049,5.213,5.849-1.644,5.283-6.529-1.6-7.12-1.313-10.278a8.969,8.969,0,0,1,2.441-5.225s.157.093-.781,1.6a8.055,8.055,0,0,0-1,6.107c.562,2.444,2.161,7.329,2.161,9.019s-1.358,5.755-.231,5.66,2.58-.491,2.675-2.279.185-3.946,1.124-4.6,0,.022-.28,1.244a8.787,8.787,0,0,0-.082,3.114c.152,2.1-1.611,3.251.271,2.971s5.758-5.074,6.292-6.484a29.29,29.29,0,0,0,1.316-5.729A12.171,12.171,0,0,1,723.9,501.232Z" transform="translate(-691.883 -448.787)"/></g><g transform="translate(138.669 0)"><path class="u" d="M627.409,342.336v.246C627.06,342.345,627.12,342.293,627.409,342.336Z" transform="translate(-614.874 -268.733)"/><path class="u" d="M627.285,257.517c.56.824,1,1.691,1.489,2.542.517.894,1.149,1.738,1.684,2.626l1.435,2.371c.448.742,1.031,1.423,1.432,2.187.574,1.094.211,1.276-1.042,1.265-2.734-.026-5.474.042-8.205-.011h-.028l-.816-.02a6.322,6.322,0,0,0-.844.024c-1.06.12-1.453.619-1.434,1.769.082,5.55.021,7.026.041,12.578,0,.766-2.737-.126-3.57-.244v-1.851c0-3.119.025-6.242-.008-9.364-.022-2.253.336-2.781-1.3-2.868H616.1c-.528-.029-1.261-.011-2.275.009-2.36,0-4.724.016-7.084.009-2.176-.007-2.193-.035-1.212-1.624,1.866-3.028,3.7-6.069,5.62-9.075.61-.954.283-1.19-.912-1.152-1.242.038-2.495-.051-3.734.024-1.808.111-1.828-.442-1.111-1.538,1.468-2.244,2.833-4.531,4.246-6.8,2.262-3.623,2.264-3.621-2.723-3.641-2.4-.011-2.415-.053-1.319-1.8,1.844-2.919,3.635-5.862,5.49-8.775.6-.953.4-1.339-.984-1.286-1.245.049-2.495-.035-3.737.022-1.426.065-1.77-.266-1.1-1.352a30.624,30.624,0,0,0,2.855-4.857c.4-.539.838-1.061,1.185-1.623,3.284-5.275,6.551-10.555,9.969-16.069,1.712,2.7,3.308,5.217,4.9,7.731.129.242.245.486.387.722,2.932,4.728,5.856,9.459,8.812,14.176.555.886.594,1.352-.912,1.274-1.372-.068-2.754.023-4.13-.029-1.335-.051-1.412.358-.876,1.2,1.476,2.3,2.88,4.63,4.347,6.933,2.369,3.72,2.38,3.714-2.69,3.722a3.336,3.336,0,0,1-.393,0c-1.734-.164-1.871.333-1.124,1.487,1.948,3,3.753,6.058,5.677,9.064.662,1.032.659,1.53-1.028,1.438-1.374-.073-2.756-.013-4.133-.015C627.412,256.7,626.837,256.859,627.285,257.517Z" transform="translate(-604.893 -209)"/><path class="u" d="M627.409,342.336v.246C627.06,342.345,627.12,342.293,627.409,342.336Z" transform="translate(-614.874 -268.733)"/><path class="r" d="M630.068,318.566c.082,5.55.022,7.026.041,12.578,0,.766-2.737-.126-3.57-.244v-1.851c0-3.119.025-6.242-.008-9.364-.022-2.253.336-2.781-1.3-2.868l6.273-.02C630.442,316.917,630.049,317.416,630.068,318.566Z" transform="translate(-614.004 -257.297)"/></g><g transform="translate(173.37 25.79)"><path class="u" d="M690.277,364.633v.2C689.928,364.64,689.989,364.6,690.277,364.633Z" transform="translate(-677.742 -304.514)"/><path class="v" d="M690.153,295.352c.56.673,1,1.382,1.489,2.076.517.731,1.149,1.42,1.685,2.145l1.434,1.937c.448.606,1.031,1.162,1.432,1.786.574.894.211,1.043-1.042,1.034-2.734-.022-5.474.034-8.2-.009h-.028l-.816-.016a7.627,7.627,0,0,0-.844.02c-1.06.1-1.453.506-1.434,1.445.082,4.533.022,5.739.041,10.273,0,.625-2.737-.1-3.569-.2v-1.512c0-2.547.024-5.1-.008-7.648-.022-1.84.335-2.272-1.3-2.342h-.019c-.528-.023-1.261-.009-2.275.008-2.36,0-4.724.012-7.084.007-2.176-.006-2.193-.029-1.212-1.328,1.866-2.473,3.7-4.957,5.619-7.412.61-.779.283-.971-.912-.941-1.242.03-2.5-.042-3.734.02-1.808.091-1.828-.361-1.11-1.257,1.467-1.833,2.833-3.7,4.245-5.552,2.261-2.959,2.264-2.957-2.723-2.973-2.4-.009-2.415-.044-1.319-1.467,1.844-2.384,3.635-4.788,5.49-7.167.6-.778.4-1.093-.984-1.05-1.245.04-2.495-.029-3.737.018-1.426.052-1.77-.217-1.1-1.1a24.489,24.489,0,0,0,2.855-3.967c.4-.44.839-.867,1.185-1.325,3.284-4.308,6.551-8.622,9.969-13.126,1.712,2.207,3.309,4.261,4.9,6.316.129.2.245.4.388.589,2.932,3.862,5.856,7.726,8.813,11.579.555.723.593,1.1-.912,1.04-1.371-.056-2.753.018-4.13-.024-1.335-.041-1.412.292-.877.979,1.476,1.881,2.88,3.783,4.347,5.663,2.368,3.039,2.379,3.034-2.69,3.041-.132,0-.267.009-.393,0-1.734-.135-1.871.272-1.124,1.214,1.949,2.45,3.754,4.948,5.677,7.4.662.843.66,1.249-1.027,1.175-1.374-.06-2.757-.01-4.133-.013C690.28,294.685,689.705,294.816,690.153,295.352Z" transform="translate(-667.762 -255.724)"/><path class="u" d="M690.277,364.633v.2C689.928,364.64,689.989,364.6,690.277,364.633Z" transform="translate(-677.742 -304.514)"/><path class="r" d="M692.936,345.218c.082,4.533.022,5.739.041,10.273,0,.625-2.737-.1-3.569-.2V353.78c0-2.547.024-5.1-.008-7.648-.022-1.84.335-2.272-1.3-2.342l6.273-.016C693.31,343.871,692.917,344.279,692.936,345.218Z" transform="translate(-676.873 -295.173)"/></g><g transform="translate(123.028 44.246)"><path class="u" d="M594.186,374.435v.158C593.912,374.441,593.959,374.409,594.186,374.435Z" transform="translate(-584.37 -327.362)"/><path class="v" d="M594.089,320.189c.439.527.783,1.082,1.166,1.626.4.572.9,1.112,1.319,1.68l1.123,1.516c.351.474.807.91,1.12,1.4.45.7.166.816-.815.809-2.14-.017-4.286.027-6.424-.007h-.021l-.639-.013a5.925,5.925,0,0,0-.661.015c-.83.077-1.138.4-1.123,1.132.065,3.549.017,4.494.032,8.044,0,.49-2.143-.081-2.795-.156v-1.184c0-1.994.019-3.992-.006-5.988-.017-1.441.262-1.779-1.02-1.834h-.015c-.413-.018-.987-.007-1.782.006-1.848,0-3.7.01-5.547.006-1.7,0-1.717-.023-.949-1.039,1.461-1.936,2.9-3.881,4.4-5.8.477-.61.221-.761-.714-.737-.973.024-1.954-.033-2.924.016-1.416.071-1.431-.283-.869-.984,1.149-1.435,2.218-2.9,3.324-4.347,1.771-2.317,1.773-2.315-2.132-2.329-1.878-.007-1.891-.034-1.033-1.148,1.443-1.867,2.847-3.75,4.3-5.612.474-.609.31-.856-.77-.822-.975.031-1.954-.023-2.927.014-1.117.041-1.385-.171-.86-.865a19.164,19.164,0,0,0,2.235-3.106c.312-.345.656-.679.927-1.038,2.571-3.374,5.129-6.751,7.806-10.278l3.838,4.945c.1.155.192.311.3.461,2.3,3.024,4.585,6.049,6.9,9.066.434.566.465.864-.714.815-1.074-.044-2.156.014-3.234-.018-1.046-.033-1.106.228-.687.767,1.156,1.472,2.255,2.961,3.4,4.433,1.855,2.38,1.863,2.375-2.106,2.381-.1,0-.209.007-.308,0-1.357-.1-1.465.213-.88.951,1.526,1.918,2.939,3.875,4.445,5.8.519.66.517.978-.8.92-1.076-.047-2.158-.009-3.236-.01C594.187,319.667,593.737,319.769,594.089,320.189Z" transform="translate(-576.556 -289.16)"/><path class="u" d="M594.186,374.435v.158C593.912,374.441,593.959,374.409,594.186,374.435Z" transform="translate(-584.37 -327.362)"/><path class="r" d="M596.267,359.234c.065,3.549.017,4.493.032,8.044,0,.49-2.143-.081-2.795-.156v-1.184c0-1.994.019-3.992-.007-5.988-.017-1.441.262-1.778-1.02-1.834l4.912-.013C596.56,358.179,596.252,358.5,596.267,359.234Z" transform="translate(-583.689 -320.048)"/></g></g><g transform="translate(372.674 190.514)"><g transform="translate(620.319 330.537)"><path class="w" d="M691.025,567.94l5.795,33.17H751l6.656-33.17Z" transform="translate(-686.227 -540.413)"/><path class="x" d="M758.135,542.568l-2.195,8.28-5.375,6.007-41.712,2.985L683.342,551.2l-2.317-8.636Z" transform="translate(-681.025 -527.214)"/><ellipse class="x" cx="36.636" cy="14.634" rx="36.636" ry="14.634" transform="translate(1.919 7.197)"/><ellipse class="y" cx="38.555" cy="14.634" rx="38.555" ry="14.634"/><ellipse class="w" cx="27.09" cy="7.529" rx="27.09" ry="7.529" transform="translate(10.594 53.168)"/></g><path class="z" d="M724.979,284.171s-41.251,26.867,12.487,62.852S728.83,409.4,728.83,409.4" transform="translate(-75.702 -62.26)"/><g transform="translate(564.326 164.486)"><g transform="translate(83.936)"><path class="aa" d="M777.976,174.634c-10.844,5.945,1.622,11.717-.269,16.8-2.351,6.3-20.339-2.063-27.857,3.915-.945.748-1.665,1.363-2.289,1.89a17.463,17.463,0,0,1-5.062,3.253,76.582,76.582,0,0,0-3.234-8c2.725-37.3,34.33-29.009,39.493-21.821C779.852,172.182,779.765,173.655,777.976,174.634Z" transform="translate(-739.265 -164.486)"/></g><path class="ab" d="M783.424,181.334c-10.844,5.945,1.622,11.717-.269,16.8-2.351,6.3-20.339-2.063-27.857,3.915-.945.749-1.665,1.363-2.289,1.89-2.226-1.219-3.627-2.812-3.191-4.836,1.439-6.717,21.111-1.439,21.111-11.515,0-6.338,7.211-9.068,13.276-10.22C785.3,178.882,785.214,180.355,783.424,181.334Z" transform="translate(-660.777 -171.186)"/><path class="ab" d="M702.883,183.48s-6.159,3-7.022,7.8-9.61,7.947-9.61,7.947L673.745,201.2l-.831-10.565s11.551-9.087,12.6-9.395,14.908-1.54,14.908-1.54Z" transform="translate(-620.813 -172.4)"/><path class="aa" d="M660.462,326.239c-2.436-4.428-6.131-5.139-10.244-5.2-5.16-.082-10.972.866-15.766-3.207-5.951-5.056,9.986-27.569,20.4-40.991,4.644-5.994,8.193-10.175,8.193-10.175l7.828,7.554C684.779,328.492,665.948,336.241,660.462,326.239Z" transform="translate(-600.133 -217.638)"/><path class="ab" d="M650.219,332.066c-5.16-.082-10.972.866-15.766-3.207-5.951-5.056,9.986-27.569,20.4-40.991l3.293,1.734S633.439,311.342,650.219,332.066Z" transform="translate(-600.133 -228.669)"/><g transform="translate(0 35.169)"><path class="ab" d="M633.606,246.478c-25.139,2.458-34.387,38.96-43.976,35.3s.656-16.083-20.149-19.289,26.085-30.253,56.714-23.681C627.346,241.282,629.422,246.887,633.606,246.478Z" transform="translate(-564.326 -237.784)"/></g><g transform="translate(94.228 25.426)"><path class="aa" d="M812.9,246.721c-.374,16.428-29.35,12.211-45.346-.259a32.816,32.816,0,0,1-6.842-7.029c2.006-.494,5.043-4.86,7.84-4.174,16.505,5.95,26.2-30.818,32.435-12.729,3.685,10.685,7.605,13.238,9.9,16.443C812.207,240.8,812.994,242.84,812.9,246.721Z" transform="translate(-760.715 -217.479)"/></g><g transform="translate(75.684 52.61)"><path class="aa" d="M761.246,301.3c-4.078,2.058-5.777,4.313-6.29,6.674-1.535,7.053,7.5,15.018-5.014,21.25-9.044,4.5-16.011-8.588-20.751-23.1a215.9,215.9,0,0,1-7.125-30.108,90.77,90.77,0,0,1,10.129-1.881C739.458,276,777.525,293.088,761.246,301.3Z" transform="translate(-722.065 -274.136)"/></g><g transform="translate(48.258 17.359)"><path class="ac" d="M717.683,227.055a26.325,26.325,0,0,1-1.8,9.6l0,0a26.393,26.393,0,0,1-46.666,4.851l0,0a26.39,26.39,0,1,1,48.475-14.447Z" transform="translate(-664.905 -200.666)"/><g transform="translate(31.516 15.702)"><circle class="d" cx="6.477" cy="6.477" r="6.477" transform="translate(0.162 1.529)"/><circle cx="3.599" cy="3.599" r="3.599" transform="translate(1.708 6.622)"/><path class="ac" d="M744.614,233.392s-.056,6.311,8.093,12.985,1.157-7.1,1.157-7.1Z" transform="translate(-737.885 -233.392)"/><path class="ad" d="M730.974,258.326s1.1-.793,2.841.463,1.024-.319,2.368.386,4.06.367,3.335,1.125-1.9,2.025-3.247,1.32-2.61-1.884-3.634-1.565S729.8,259.593,730.974,258.326Z" transform="translate(-730.59 -246.234)"/></g><g transform="translate(1.706 12.475)"><circle class="d" cx="6.477" cy="6.477" r="6.477" transform="translate(6.451 1.439)"/><circle cx="3.599" cy="3.599" r="3.599" transform="translate(10.289 6.717)"/><path class="ac" d="M682.588,226.666s-.96,6.237-10.076,11.515,0-7.2,0-7.2Z" transform="translate(-668.461 -226.666)"/><path class="ad" d="M697.326,253.2s-.96-.96-2.879,0-.96-.48-2.4,0-4.065-.29-3.472.574,1.553,2.3,2.992,1.825,2.879-1.439,3.838-.96S698.285,254.643,697.326,253.2Z" transform="translate(-678.88 -240.249)"/></g><path d="M715.555,278.432c-.434,2.21-2.388-.713-5.392-1.3s-5.917,1.379-5.484-.831,3.219-3.525,6.223-2.935S715.988,276.222,715.555,278.432Z" transform="translate(-685.573 -238.41)"/><path class="ad" d="M739.8,275.666s-1.919,2.879-.48,2.879S739.8,276.146,739.8,275.666Z" transform="translate(-703.339 -239.681)"/><path class="ad" d="M691.8,262.666s-1.919,2.879-.48,2.879S691.8,263.146,691.8,262.666Z" transform="translate(-678.37 -232.918)"/><path class="ae" d="M720.551,275.676a26.393,26.393,0,0,1-46.666,4.851C674.331,280.815,697.856,296.106,720.551,275.676Z" transform="translate(-669.576 -239.686)"/></g><path class="ab" d="M757.666,363.909c-9.044,4.5-16.011-8.589-20.752-23.1,4.026,5.988,13.718,19.24,19.667,10.489,2.418-3.551,3.6-8.358,6.1-8.636C761.145,349.711,770.185,357.676,757.666,363.909Z" transform="translate(-654.106 -256.207)"/><path class="aa" d="M671.306,168.344c-15.771-3.327-25.935.8-37.425,17.833-12.013,17.809,3.665,27.938,14.815,15.555s14.662-23.655,25.536-23.439S683.485,170.913,671.306,168.344Z" transform="translate(-598.26 -165.942)"/><path class="ab" d="M820.321,270.025c-.374,16.428-29.35,12.211-45.346-.259,6.583,3.32,28.361,12.139,43.336-7.49C819.625,264.1,820.412,266.143,820.321,270.025Z" transform="translate(-673.905 -215.356)"/></g><g transform="translate(668.878 267.923)"><path class="af" d="M831.74,411.158c-2.305-3.6-5.064-6.9-7.125-10.647-1.854-3.365-3.113-7.025-4.86-10.446s-4.1-6.7-7.471-8.546a13.264,13.264,0,0,0-16.418,3.632,13.662,13.662,0,0,0,.925,16.879s4.3-3.992,17.445,4.759,15.293,3.019,21.7,16.293C835.936,418.81,834.046,414.755,831.74,411.158Z" transform="translate(-788.032 -380.068)"/><path class="ag" d="M790.992,424.857c-2.7,1.434-6.178,1.888-7.864,4.436a6.4,6.4,0,0,0-.589,5.281,13.226,13.226,0,0,0,2.763,4.693,10.207,10.207,0,0,0,3.613,2.961c2.212.946,4.742.526,7.108.091l11.344-2.088a36.172,36.172,0,0,1,4.292-.614c6.6-.411,12.866,2.786,18.477,6.292-6.406-13.273-8.549-7.541-21.7-16.293S790.992,424.857,790.992,424.857Z" transform="translate(-782.232 -402.894)"/></g><path class="ah" d="M719.905,415.383s3.365-11.586,17.876-8.126" transform="translate(-80.932 -125.953)"/><g transform="translate(621.979 274.474)"><path class="ai" d="M684.555,426.089c.221-3.352.863-6.677.861-10.036,0-3.021-.525-6.019-.622-9.038a15.282,15.282,0,0,1,1.9-8.721,10.43,10.43,0,0,1,12.683-3.736,10.742,10.742,0,0,1,5.775,11.972s-4.473-1.117-10.2,9.9-9.382,7.888-8.749,19.46C684.574,432.95,684.335,429.441,684.555,426.089Z" transform="translate(-684.486 -393.722)"/><path class="aj" d="M706.927,419.92c2.4-.037,4.97-1.047,7.1.067a5.029,5.029,0,0,1,2.411,3.411,10.4,10.4,0,0,1-.119,4.28,8.022,8.022,0,0,1-1.363,3.411c-1.164,1.491-3.064,2.163-4.859,2.762l-8.6,2.872a28.4,28.4,0,0,0-3.188,1.208c-4.7,2.226-7.8,6.806-10.33,11.351-.632-11.571,3.021-8.44,8.749-19.46S706.927,419.92,706.927,419.92Z" transform="translate(-686.265 -407.114)"/></g><path class="y" d="M735.952,527.358s-.738,7.989,19.783,6.578-8.924,10.695-8.924,10.695l-18.691-2.214v-7.761Z" transform="translate(-85.205 -188.765)"/></g></g></svg>