<svg xmlns="http://www.w3.org/2000/svg" width="152.456" height="234.277" viewBox="0 0 152.456 234.277"><defs><style>.a{fill:#403129;}.b{fill:#5d483d;}.c{fill:#aa6828;}.d,.m{fill:none;stroke:#556c11;stroke-linecap:round;stroke-miterlimit:10;}.d{stroke-width:13px;}.e{fill:#57507d;}.f{fill:#4f3b65;}.g{fill:#fbad18;}.h{fill:#fff;}.i{fill:#afd0d8;}.j{fill:#e78c24;opacity:0.5;}.k{fill:#f7cf43;}.l{fill:#91911f;}.m{stroke-width:6px;}.n{fill:#fcb95d;}.o{fill:#78781a;}</style></defs><g transform="translate(-564.326 -164.486)"><g transform="translate(620.319 330.537)"><path class="a" d="M691.025,567.94l5.795,33.17H751l6.656-33.17Z" transform="translate(-686.227 -540.413)"/><path class="b" d="M758.135,542.568l-2.195,8.28-5.375,6.007-41.712,2.985L683.342,551.2l-2.317-8.636Z" transform="translate(-681.025 -527.214)"/><ellipse class="b" cx="36.636" cy="14.634" rx="36.636" ry="14.634" transform="translate(1.919 7.197)"/><ellipse class="c" cx="38.555" cy="14.634" rx="38.555" ry="14.634"/><ellipse class="a" cx="27.09" cy="7.529" rx="27.09" ry="7.529" transform="translate(10.594 53.168)"/></g><path class="d" d="M724.979,284.171s-41.251,26.867,12.487,62.852S728.83,409.4,728.83,409.4" transform="translate(-75.702 -62.26)"/><g transform="translate(564.326 164.486)"><g transform="translate(83.936)"><path class="e" d="M777.976,174.634c-10.844,5.945,1.622,11.717-.269,16.8-2.351,6.3-20.339-2.063-27.857,3.915-.945.748-1.665,1.363-2.289,1.89a17.463,17.463,0,0,1-5.062,3.253,76.582,76.582,0,0,0-3.234-8c2.725-37.3,34.33-29.009,39.493-21.821C779.852,172.182,779.765,173.655,777.976,174.634Z" transform="translate(-739.265 -164.486)"/></g><path class="f" d="M783.424,181.334c-10.844,5.945,1.622,11.717-.269,16.8-2.351,6.3-20.339-2.063-27.857,3.915-.945.749-1.665,1.363-2.289,1.89-2.226-1.219-3.627-2.812-3.191-4.836,1.439-6.717,21.111-1.439,21.111-11.515,0-6.338,7.211-9.068,13.276-10.22C785.3,178.882,785.214,180.355,783.424,181.334Z" transform="translate(-660.777 -171.186)"/><path class="f" d="M702.883,183.48s-6.159,3-7.022,7.8-9.61,7.947-9.61,7.947L673.745,201.2l-.831-10.565s11.551-9.087,12.6-9.395,14.908-1.54,14.908-1.54Z" transform="translate(-620.813 -172.4)"/><path class="e" d="M660.462,326.239c-2.436-4.428-6.131-5.139-10.244-5.2-5.16-.082-10.972.866-15.766-3.207-5.951-5.056,9.986-27.569,20.4-40.991,4.644-5.994,8.193-10.175,8.193-10.175l7.828,7.554C684.779,328.492,665.948,336.241,660.462,326.239Z" transform="translate(-600.133 -217.638)"/><path class="f" d="M650.219,332.066c-5.16-.082-10.972.866-15.766-3.207-5.951-5.056,9.986-27.569,20.4-40.991l3.293,1.734S633.439,311.342,650.219,332.066Z" transform="translate(-600.133 -228.669)"/><g transform="translate(0 35.169)"><path class="f" d="M633.606,246.478c-25.139,2.458-34.387,38.96-43.976,35.3s.656-16.083-20.149-19.289,26.085-30.253,56.714-23.681C627.346,241.282,629.422,246.887,633.606,246.478Z" transform="translate(-564.326 -237.784)"/></g><g transform="translate(94.228 25.426)"><path class="e" d="M812.9,246.721c-.374,16.428-29.35,12.211-45.346-.259a32.816,32.816,0,0,1-6.842-7.029c2.006-.494,5.043-4.86,7.84-4.174,16.505,5.95,26.2-30.818,32.435-12.729,3.685,10.685,7.605,13.238,9.9,16.443C812.207,240.8,812.994,242.84,812.9,246.721Z" transform="translate(-760.715 -217.479)"/></g><g transform="translate(75.684 52.61)"><path class="e" d="M761.246,301.3c-4.078,2.058-5.777,4.313-6.29,6.674-1.535,7.053,7.5,15.018-5.014,21.25-9.044,4.5-16.011-8.588-20.751-23.1a215.9,215.9,0,0,1-7.125-30.108,90.77,90.77,0,0,1,10.129-1.881C739.458,276,777.525,293.088,761.246,301.3Z" transform="translate(-722.065 -274.136)"/></g><g transform="translate(48.258 17.359)"><path class="g" d="M717.683,227.055a26.325,26.325,0,0,1-1.8,9.6l0,0a26.393,26.393,0,0,1-46.666,4.851l0,0a26.39,26.39,0,1,1,48.475-14.447Z" transform="translate(-664.905 -200.666)"/><g transform="translate(31.516 15.702)"><circle class="h" cx="6.477" cy="6.477" r="6.477" transform="translate(0.162 1.529)"/><circle cx="3.599" cy="3.599" r="3.599" transform="translate(1.708 6.622)"/><path class="g" d="M744.614,233.392s-.056,6.311,8.093,12.985,1.157-7.1,1.157-7.1Z" transform="translate(-737.885 -233.392)"/><path class="i" d="M730.974,258.326s1.1-.793,2.841.463,1.024-.319,2.368.386,4.06.367,3.335,1.125-1.9,2.025-3.247,1.32-2.61-1.884-3.634-1.565S729.8,259.593,730.974,258.326Z" transform="translate(-730.59 -246.234)"/></g><g transform="translate(1.706 12.475)"><circle class="h" cx="6.477" cy="6.477" r="6.477" transform="translate(6.451 1.439)"/><circle cx="3.599" cy="3.599" r="3.599" transform="translate(10.289 6.717)"/><path class="g" d="M682.588,226.666s-.96,6.237-10.076,11.515,0-7.2,0-7.2Z" transform="translate(-668.461 -226.666)"/><path class="i" d="M697.326,253.2s-.96-.96-2.879,0-.96-.48-2.4,0-4.065-.29-3.472.574,1.553,2.3,2.992,1.825,2.879-1.439,3.838-.96S698.285,254.643,697.326,253.2Z" transform="translate(-678.88 -240.249)"/></g><path d="M715.555,278.432c-.434,2.21-2.388-.713-5.392-1.3s-5.917,1.379-5.484-.831,3.219-3.525,6.223-2.935S715.988,276.222,715.555,278.432Z" transform="translate(-685.573 -238.41)"/><path class="i" d="M739.8,275.666s-1.919,2.879-.48,2.879S739.8,276.146,739.8,275.666Z" transform="translate(-703.339 -239.681)"/><path class="i" d="M691.8,262.666s-1.919,2.879-.48,2.879S691.8,263.146,691.8,262.666Z" transform="translate(-678.37 -232.918)"/><path class="j" d="M720.551,275.676a26.393,26.393,0,0,1-46.666,4.851C674.331,280.815,697.856,296.106,720.551,275.676Z" transform="translate(-669.576 -239.686)"/></g><path class="f" d="M757.666,363.909c-9.044,4.5-16.011-8.589-20.752-23.1,4.026,5.988,13.718,19.24,19.667,10.489,2.418-3.551,3.6-8.358,6.1-8.636C761.145,349.711,770.185,357.676,757.666,363.909Z" transform="translate(-654.106 -256.207)"/><path class="e" d="M671.306,168.344c-15.771-3.327-25.935.8-37.425,17.833-12.013,17.809,3.665,27.938,14.815,15.555s14.662-23.655,25.536-23.439S683.485,170.913,671.306,168.344Z" transform="translate(-598.26 -165.942)"/><path class="f" d="M820.321,270.025c-.374,16.428-29.35,12.211-45.346-.259,6.583,3.32,28.361,12.139,43.336-7.49C819.625,264.1,820.412,266.143,820.321,270.025Z" transform="translate(-673.905 -215.356)"/></g><g transform="translate(668.878 267.923)"><path class="k" d="M831.74,411.158c-2.305-3.6-5.064-6.9-7.125-10.647-1.854-3.365-3.113-7.025-4.86-10.446s-4.1-6.7-7.471-8.546a13.264,13.264,0,0,0-16.418,3.632,13.662,13.662,0,0,0,.925,16.879s4.3-3.992,17.445,4.759,15.293,3.019,21.7,16.293C835.936,418.81,834.046,414.755,831.74,411.158Z" transform="translate(-788.032 -380.068)"/><path class="l" d="M790.992,424.857c-2.7,1.434-6.178,1.888-7.864,4.436a6.4,6.4,0,0,0-.589,5.281,13.226,13.226,0,0,0,2.763,4.693,10.207,10.207,0,0,0,3.613,2.961c2.212.946,4.742.526,7.108.091l11.344-2.088a36.172,36.172,0,0,1,4.292-.614c6.6-.411,12.866,2.786,18.477,6.292-6.406-13.273-8.549-7.541-21.7-16.293S790.992,424.857,790.992,424.857Z" transform="translate(-782.232 -402.894)"/></g><path class="m" d="M719.905,415.383s3.365-11.586,17.876-8.126" transform="translate(-80.932 -125.953)"/><g transform="translate(621.979 274.474)"><path class="n" d="M684.555,426.089c.221-3.352.863-6.677.861-10.036,0-3.021-.525-6.019-.622-9.038a15.282,15.282,0,0,1,1.9-8.721,10.43,10.43,0,0,1,12.683-3.736,10.742,10.742,0,0,1,5.775,11.972s-4.473-1.117-10.2,9.9-9.382,7.888-8.749,19.46C684.574,432.95,684.335,429.441,684.555,426.089Z" transform="translate(-684.486 -393.722)"/><path class="o" d="M706.927,419.92c2.4-.037,4.97-1.047,7.1.067a5.029,5.029,0,0,1,2.411,3.411,10.4,10.4,0,0,1-.119,4.28,8.022,8.022,0,0,1-1.363,3.411c-1.164,1.491-3.064,2.163-4.859,2.762l-8.6,2.872a28.4,28.4,0,0,0-3.188,1.208c-4.7,2.226-7.8,6.806-10.33,11.351-.632-11.571,3.021-8.44,8.749-19.46S706.927,419.92,706.927,419.92Z" transform="translate(-686.265 -407.114)"/></g><path class="c" d="M735.952,527.358s-.738,7.989,19.783,6.578-8.924,10.695-8.924,10.695l-18.691-2.214v-7.761Z" transform="translate(-85.205 -188.765)"/></g></svg>