<svg xmlns="http://www.w3.org/2000/svg" width="454.968" height="202.061" viewBox="0 0 454.968 202.061"><defs><style>.a{fill:#fff;stroke:#36a5ad;stroke-miterlimit:10;stroke-width:4px;}.b{fill:#4a566b;font-size:11px;font-family:FiraGO-Book, FiraGO;}.c{fill:#fcdf56;}.d{fill:#ccc;}.e{fill:#44bbbd;}.f{fill:#e6e6e6;}.g{fill:#f2f2f2;}.h{fill:#670617;}.i{opacity:0.2;}</style></defs><g transform="translate(0 2)"><g transform="translate(114.402)"><path class="a" d="M226.381,193.316l.069.05c-.043-.774-.069-1.552-.069-2.336V160.913a42.344,42.344,0,0,1,42.22-42.219h240.77a42.344,42.344,0,0,1,42.22,42.219V191.03a42.344,42.344,0,0,1-42.22,42.219H281.4l-68.372,26.828Z" transform="translate(-213.025 -118.694)"/><text class="b" transform="translate(36.739 30.96)"><tspan x="0" y="0" xml:space="preserve">დათო და ანა,  დაფიქრდით, სად შეიძლება </tspan><tspan x="0" y="14">ჩავსვათ კვლევის ეს სამი ნაბიჯი?</tspan><tspan x="0" y="28">თუ სწორად დაგეგემავთ კვლევას, </tspan><tspan x="0" y="42">აღმოაჩენთ საინტერესო პასუხებს დასმულ </tspan><tspan x="0" y="56">შეკითხვებზე.</tspan><tspan x="0" y="70"></tspan><tspan x="0" y="84"></tspan></text></g><g transform="translate(0 72.707)"><g transform="translate(97.297 18.899)"><g transform="translate(0 16.278)"><path class="c" d="M202.964,282.765c-2.263,0-9.72-.1-11.537-1.338l2.809-4.108a1.618,1.618,0,0,0-.356-.19c1.812.611,16.987,1.763,26.632-2.029,8.584-3.375,6.449-19.292,6.426-19.452l4.922-.738c.122.813,2.844,19.959-9.526,24.821-6.087,2.393-13.544,2.969-18.728,3.03C203.549,282.762,203.321,282.765,202.964,282.765Z" transform="translate(-191.427 -254.91)"/></g><g transform="translate(26.65)"><path class="d" d="M241.787,251.381s11.421-6.561,10.568-9.377c-.7-2.326-8.759-.723-9.44,3.382,0,0,8.454-7.5,5.918-9.12-2.172-1.383-8.455,3.624-9.018,6.442,0,0,4.509-7.094,2.254-8.2s-6.2,3.97-5.918,5.66-2.254,2.7-2.254,2.7a9.388,9.388,0,0,1-3.946-4.987c-1.127-3.012-6.763-1.091-4.227,2.572S233.051,256.109,241.787,251.381Z" transform="translate(-225.075 -234.357)"/></g></g><g transform="translate(49.775 95.926)"><path class="c" d="M135.695,359.763l-3.826-2.7a1.773,1.773,0,0,0-.444.779c.3-1.45.554-14.6.634-26.226l4.921.025c0,.066-.046,6.632-.159,13.186C136.578,358.809,136.391,359.012,135.695,359.763Z" transform="translate(-131.425 -331.613)"/></g><g transform="translate(35.399 114.732)"><path class="e" d="M132.6,355.358s5.791,8.7,1.59,11.583l-20.024.775s-5.437-8.329,10.484-10.885Z" transform="translate(-113.274 -355.358)"/></g><g transform="translate(74.58 96.178)"><path class="c" d="M164,360.078c-.695-.752-.882-.954-1.109-14.939-.107-6.555-.146-13.121-.146-13.187l4.921-.021c.067,11.631.3,24.776.606,26.227a1.772,1.772,0,0,0-.443-.78Z" transform="translate(-162.744 -331.931)"/></g><g transform="translate(72.033 114.98)"><path class="e" d="M162.656,355.671s-5.8,8.7-1.6,11.582l20.023.791s5.447-8.326-10.472-10.895Z" transform="translate(-159.528 -355.671)"/></g><g transform="translate(0.243 45.685)"><path class="c" d="M80.946,297.026c-5.123.061-9.287-3.138-11.137-8.555-1.868-5.468-.847-11.818,2.539-15.8,2.769-3.262,7.168-4.759,13.067-4.452a34.242,34.242,0,0,1,7.625,1.3l-1.481,4.693.741-2.347-.739,2.348c-3.249-1.006-12.483-2.667-16.159,1.654-2.144,2.524-2.759,6.87-1.5,10.569.595,1.742,2.5,5.789,7.343,5.731Z" transform="translate(-68.885 -268.177)"/><g transform="translate(3.632 19.571)"><g transform="translate(5.764)"><path class="f" d="M80.749,294.011s10.932-4.239,9.336,3.751S82.183,294.664,80.749,294.011Z" transform="translate(-80.749 -292.888)"/></g><g transform="translate(0 1.123)"><path class="f" d="M79.235,294.306s7.21,3.592,7.656,7.293-3.194,4.726-4,4.255c0,0,1.472,3.459-1.866,3.254S66.906,300.694,79.235,294.306Z" transform="translate(-73.471 -294.306)"/></g></g></g><g transform="translate(4.675)"><path class="e" d="M74.482,210.495l12.3,63.653h97.194l9.6-63.653Z" transform="translate(-74.482 -210.495)"/></g><g transform="translate(10.823 6.451)"><path class="g" d="M82.244,218.64l10.665,53.976h87.819l8.315-53.976Z" transform="translate(-82.244 -218.64)"/></g><g transform="translate(0 63.438)"><path class="e" d="M68.579,330.59l16.978-40h97.194l13.287,40Z" transform="translate(-68.579 -290.592)"/></g><g transform="translate(50.689 91.393)"><path class="g" d="M132.579,334.706l2.765-8.817h21.62l1.944,8.817Z" transform="translate(-132.579 -325.889)"/></g><g transform="translate(17.056 66.895)"><g transform="translate(70.105 9.876)"><path class="g" d="M184.736,307.426h-6.107l1.251,4.3h6.291Z" transform="translate(-178.629 -307.426)"/></g><g transform="translate(62.288 9.876)"><path class="g" d="M174.8,307.426H168.76l.834,4.3h6.456Z" transform="translate(-168.76 -307.426)"/></g><g transform="translate(34.454 9.876)"><path class="g" d="M138.876,307.426H134l-.385,4.3h5.046Z" transform="translate(-133.616 -307.426)"/></g><g transform="translate(47.876 9.876)"><path class="g" d="M155.535,307.426h-4.973l.167,4.3h5.348Z" transform="translate(-150.562 -307.426)"/></g><g transform="translate(41.224 9.876)"><path class="g" d="M147.092,307.426h-4.714l-.214,4.3h5.095Z" transform="translate(-142.164 -307.426)"/></g><g transform="translate(54.582 9.876)"><path class="g" d="M164.989,307.426h-5.96l.542,4.3h6.252Z" transform="translate(-159.029 -307.426)"/></g><g transform="translate(67.232)"><path class="g" d="M175.747,297.521h5.794l-.856-2.564H175Z" transform="translate(-175.001 -294.957)"/></g><g transform="translate(60.373)"><path class="g" d="M166.839,297.521h5.33l-.746-2.564h-5.081Z" transform="translate(-166.342 -294.957)"/></g><g transform="translate(68.415 4.069)"><path class="g" d="M176.5,300.1l1.251,4.3h6.043l-1.435-4.3Z" transform="translate(-176.496 -300.095)"/></g><g transform="translate(53.337)"><path class="g" d="M157.78,297.521h5.464l-.5-2.564h-5.29Z" transform="translate(-157.457 -294.957)"/></g><g transform="translate(76.068 4.069)"><path class="g" d="M192.238,300.1h-6.08l1.435,4.3h6.08Z" transform="translate(-186.159 -300.095)"/></g><g transform="translate(74.71)"><path class="g" d="M184.444,294.957l.856,2.564h6.08l-.856-2.564Z" transform="translate(-184.444 -294.957)"/></g><g transform="translate(20.708 4.069)"><path class="g" d="M116.26,304.4h5.749l.77-4.3h-5.15Z" transform="translate(-116.26 -300.095)"/></g><g transform="translate(61.162 4.069)"><path class="g" d="M172.814,300.1h-5.476l.834,4.3h5.893Z" transform="translate(-167.338 -300.095)"/></g><g transform="translate(53.85 4.069)"><path class="g" d="M158.647,304.4H164.5l-.834-4.3H158.1Z" transform="translate(-158.105 -300.095)"/></g><g transform="translate(10.642 9.876)"><path class="g" d="M111.349,307.426H105.44l-1.889,4.3h6.429Z" transform="translate(-103.551 -307.426)"/></g><g transform="translate(47.651 4.069)"><path class="g" d="M150.445,304.4h4.842l-.542-4.3h-4.466Z" transform="translate(-150.278 -300.095)"/></g><g transform="translate(3.296 9.876)"><path class="g" d="M94.275,311.727h5.5l1.889-4.3H96.273Z" transform="translate(-94.275 -307.426)"/></g><g transform="translate(28.2 4.069)"><path class="g" d="M125.719,304.4h5.046l.385-4.3H126.49Z" transform="translate(-125.719 -300.095)"/></g><g transform="translate(47.493)"><path class="g" d="M150.178,297.521h4.335l-.323-2.564h-4.111Z" transform="translate(-150.079 -294.957)"/></g><g transform="translate(18.859 9.876)"><path class="g" d="M120.483,311.727l.77-4.3h-5.959l-1.369,4.3Z" transform="translate(-113.925 -307.426)"/></g><g transform="translate(34.974 4.069)"><path class="g" d="M134.272,304.4h4.815l.214-4.3h-4.644Z" transform="translate(-134.272 -300.095)"/></g><g transform="translate(41.513 4.069)"><path class="g" d="M142.529,304.4h4.581l-.167-4.3h-4.2Z" transform="translate(-142.529 -300.095)"/></g><g transform="translate(27.16 9.876)"><path class="g" d="M130.358,307.426h-5.181l-.77,4.3h5.566Z" transform="translate(-124.407 -307.426)"/></g><g transform="translate(85.88 9.876)"><path class="g" d="M204.26,307.426h-5.713l1.435,4.3h5.682Z" transform="translate(-198.547 -307.426)"/></g><g transform="translate(79.944 15.682)"><path class="g" d="M197.132,314.757h-6.08l1.866,5.591H199Z" transform="translate(-191.052 -314.757)"/></g><g transform="translate(78.006 9.876)"><path class="g" d="M188.605,307.426l1.435,4.3h6.08l-1.435-4.3Z" transform="translate(-188.605 -307.426)"/></g><g transform="translate(83.942 4.069)"><path class="g" d="M196.1,300.1l1.435,4.3h5.723l-1.4-4.3Z" transform="translate(-196.1 -300.095)"/></g><g transform="translate(63.414 15.682)"><path class="g" d="M176.784,314.757h-6.6l1.084,5.591h7.144Z" transform="translate(-170.182 -314.757)"/></g><g transform="translate(71.794 15.682)"><path class="g" d="M187.117,314.757h-6.356l1.626,5.591h6.6Z" transform="translate(-180.761 -314.757)"/></g><g transform="translate(0 15.682)"><path class="g" d="M98.25,314.757H92.711l-2.6,5.591h5.68Z" transform="translate(-90.114 -314.757)"/></g><g transform="translate(55.313 15.682)"><path class="g" d="M166.307,314.757h-6.354l.7,5.591h6.734Z" transform="translate(-159.953 -314.757)"/></g><g transform="translate(87.818 15.682)"><path class="g" d="M200.994,314.757l1.866,5.591h5.631l-1.826-5.591Z" transform="translate(-200.994 -314.757)"/></g><g transform="translate(5.993 4.069)"><path class="g" d="M103.036,304.4l1.889-4.3H99.678l-2,4.3Z" transform="translate(-97.681 -300.095)"/></g><g transform="translate(82.584)"><path class="g" d="M194.386,294.957l.856,2.564h5.765l-.837-2.564Z" transform="translate(-194.386 -294.957)"/></g><g transform="translate(8.69)"><path class="g" d="M106.294,297.521l1.126-2.564h-5.144l-1.191,2.564Z" transform="translate(-101.086 -294.957)"/></g><g transform="translate(48.101 15.682)"><path class="g" d="M156.326,314.757h-5.48l.217,5.591h5.968Z" transform="translate(-150.847 -314.757)"/></g><g transform="translate(22.557)"><path class="g" d="M118.594,297.521h4.94l.459-2.564H119.41Z" transform="translate(-118.594 -294.957)"/></g><g transform="translate(15.744)"><path class="g" d="M109.992,297.521h5.025l.816-2.564h-4.715Z" transform="translate(-109.992 -294.957)"/></g><g transform="translate(29.24)"><path class="g" d="M127.032,297.521h4.526l.23-2.564h-4.3Z" transform="translate(-127.032 -294.957)"/></g><g transform="translate(35.494)"><path class="g" d="M134.929,297.521h4.584l.128-2.564h-4.482Z" transform="translate(-134.929 -294.957)"/></g><g transform="translate(13.193 4.069)"><path class="g" d="M112.5,304.4l1.369-4.3h-5.207l-1.889,4.3Z" transform="translate(-106.771 -300.095)"/></g><g transform="translate(41.802)"><path class="g" d="M142.893,297.521h4.067l-.1-2.564h-3.84Z" transform="translate(-142.893 -294.957)"/></g><g transform="translate(40.871 15.682)"><path class="g" d="M147.225,314.757H142l-.278,5.591h5.723Z" transform="translate(-141.718 -314.757)"/></g><g transform="translate(7.525 15.682)"><path class="g" d="M106.9,320.348l1.78-5.591h-6.611l-2.456,5.591Z" transform="translate(-99.615 -314.757)"/></g><g transform="translate(33.818 15.682)"><path class="g" d="M138.42,314.757h-5.106l-.5,5.591h5.329Z" transform="translate(-132.813 -314.757)"/></g><g transform="translate(16.6 15.682)"><path class="g" d="M119.62,314.757h-6.767l-1.78,5.591h7.546Z" transform="translate(-111.073 -314.757)"/></g><g transform="translate(25.889 15.682)"><path class="g" d="M129.5,314.757h-5.7l-1,5.591H129Z" transform="translate(-122.802 -314.757)"/></g></g><g transform="translate(79.122 24.726)"><path class="h" d="M185.774,252.412h-.009a1,1,0,0,1-1.05-.933c.039-4.337-3.1-7.887-6.989-7.914h-.044a6.685,6.685,0,0,0-4.892,2.2,8.27,8.27,0,0,0-2.193,5.62,1,1,0,0,1-1.059.918h-.009a1,1,0,0,1-1.05-.932,9.992,9.992,0,0,1,2.674-6.78,8.885,8.885,0,0,1,6.528-2.874h.063a9.443,9.443,0,0,1,9.088,9.779A1,1,0,0,1,185.774,252.412Z" transform="translate(-168.48 -241.714)"/><g transform="translate(4.852 3.516)"><ellipse class="h" cx="4.688" cy="4.097" rx="4.688" ry="4.097"/></g></g><g transform="translate(33.355 24.726)"><path class="h" d="M127.987,252.412h-.009a1,1,0,0,1-1.05-.933,8.244,8.244,0,0,0-2.092-5.649,6.654,6.654,0,0,0-4.9-2.264H119.9c-3.872,0-7.046,3.5-7.085,7.817a1,1,0,0,1-1.059.918h-.009a1,1,0,0,1-1.05-.932,9.5,9.5,0,0,1,9.2-9.654h.061a8.84,8.84,0,0,1,6.537,2.964,9.949,9.949,0,0,1,2.552,6.815A1,1,0,0,1,127.987,252.412Z" transform="translate(-110.693 -241.714)"/><g transform="translate(4.852 3.516)"><ellipse class="h" cx="4.688" cy="4.097" rx="4.688" ry="4.097"/></g></g><g transform="translate(10.823 6.451)"><path class="d" d="M82.244,218.64l10.665,53.976H154.35L96,269.755Z" transform="translate(-82.244 -218.64)"/></g><g class="i" transform="translate(0 63.438)"><path d="M85.557,290.592l-16.978,40h58.858L73.254,328.4Z" transform="translate(-68.579 -290.592)"/></g><g transform="translate(56.617 42.291)"><path class="h" d="M145.309,270.434a5.991,5.991,0,0,1-3.179-.767c-1.488-.922-2.179-2.578-2.051-4.923a.9.9,0,0,1,1.1-.829c.112.024,11.272,2.488,15.632.783a.9.9,0,0,1,.772,1.622C156.686,266.826,150.153,270.434,145.309,270.434Zm-3.417-4.532a2.734,2.734,0,0,0,1.186,2.233c1.837,1.14,5.491.2,8.683-1.054A61.35,61.35,0,0,1,141.892,265.9Z" transform="translate(-140.064 -263.893)"/></g><g transform="translate(36.33 35.098)"><path class="h" d="M125.952,258.239a.9.9,0,0,1-.475-.135,9.623,9.623,0,0,0-9.667-.347.9.9,0,0,1-.923-1.546,11.428,11.428,0,0,1,11.543.364.9.9,0,0,1-.477,1.665Z" transform="translate(-114.45 -254.81)"/></g><g transform="translate(82.096 35.444)"><path class="h" d="M183.738,258.675a.9.9,0,0,1-.474-.135,9.719,9.719,0,0,0-9.666-.348.9.9,0,0,1-.925-1.545,11.432,11.432,0,0,1,11.542.364.9.9,0,0,1-.477,1.665Z" transform="translate(-172.235 -255.247)"/></g></g></g></svg>