<svg xmlns="http://www.w3.org/2000/svg" width="797.061" height="245.77" viewBox="0 0 797.061 245.77"><defs><style>.a{fill:#fcdf56;}.b{fill:#e6e6e6;}.c{fill:#44bbbd;}.d{fill:#f2f2f2;}.e{fill:#670617;}.f{fill:#ccc;}.g{opacity:0.2;}.h{fill:#fff;stroke:#002246;stroke-miterlimit:10;stroke-width:2.931px;}.i{fill:#4a566b;font-size:15px;font-family:FiraGO-Book, FiraGO;}</style></defs><g transform="translate(-127.589 -133.656)"><g transform="translate(127.589 216.068)"><g transform="translate(143.668 57.956)"><g transform="translate(3.876)"><path class="a" d="M317.177,347.642l-.094-.046,1.908-5.375a10.22,10.22,0,0,0,12.059-1.674,11.569,11.569,0,0,0,3.077-12.187c-2.644-6.84-15.2-10.652-19.81-11.544l.327-5.9a56.828,56.828,0,0,1,10.327,3.23c7.661,3.244,12.559,7.5,14.552,12.659a17.126,17.126,0,0,1-4.215,18.4C330.42,349.843,323.648,350.752,317.177,347.642Z" transform="translate(-314.317 -310.912)"/></g><g transform="translate(0 24.116)"><g transform="translate(0.061)"><path class="b" d="M323.311,346.909s-11.932-11.139-13.667-1.646S321.175,346.74,323.311,346.909Z" transform="translate(-309.489 -341.433)"/></g><g transform="translate(0 5.45)"><path class="b" d="M323.295,348.357s-10.88-.529-13.195,3.15,1.841,6.978,3.1,6.965c0,0-3.506,2.8.843,4.6S335.992,362.636,323.295,348.357Z" transform="translate(-309.411 -348.331)"/></g></g></g><g transform="translate(63.846 123.046)"><path class="a" d="M213.868,429.4l-4.908-3.469a2.291,2.291,0,0,0-.569,1c.391-1.861.71-18.721.813-33.641l6.312.033c0,.085-.059,8.506-.2,16.914C215,428.172,214.761,428.432,213.868,429.4Z" transform="translate(-208.391 -393.287)"/></g><g transform="translate(45.407 147.169)"><path class="c" d="M209.849,423.817s7.428,11.164,2.039,14.858l-25.685.994s-6.975-10.685,13.447-13.964Z" transform="translate(-185.055 -423.817)"/></g><g transform="translate(95.665 123.369)"><path class="a" d="M250.269,429.8c-.892-.966-1.132-1.225-1.423-19.163-.137-8.408-.186-16.83-.186-16.915l6.312-.028c.087,14.92.389,31.78.778,33.642a2.291,2.291,0,0,0-.568-1Z" transform="translate(-248.659 -393.696)"/></g><g transform="translate(92.397 147.488)"><path class="c" d="M248.536,424.22s-7.44,11.159-2.055,14.857l25.683,1.015s6.987-10.679-13.432-13.975Z" transform="translate(-244.524 -424.22)"/></g><g transform="translate(0.311 58.601)"><path class="a" d="M143.454,348.733c-6.571.077-11.912-4.025-14.285-10.975-2.395-7.013-1.086-15.159,3.257-20.27,3.552-4.184,9.194-6.1,16.762-5.711a43.922,43.922,0,0,1,9.781,1.663l-1.9,6.019.951-3.01-.948,3.011c-4.167-1.29-16.012-3.421-20.727,2.123-2.751,3.237-3.54,8.812-1.919,13.557.763,2.235,3.209,7.425,9.419,7.352Z" transform="translate(-127.983 -311.727)"/><g transform="translate(4.659 25.104)"><g transform="translate(7.393)"><path class="b" d="M143.236,344.938s14.023-5.436,11.976,4.812S145.075,345.778,143.236,344.938Z" transform="translate(-143.236 -343.498)"/></g><g transform="translate(0 1.441)"><path class="b" d="M141.273,345.321s9.248,4.607,9.821,9.355-4.1,6.063-5.135,5.459c0,0,1.888,4.436-2.393,4.174S125.458,353.516,141.273,345.321Z" transform="translate(-133.879 -345.321)"/></g></g></g><g transform="translate(5.997)"><path class="c" d="M135.178,237.564l15.781,81.648H275.633l12.309-81.648Z" transform="translate(-135.178 -237.564)"/></g><g transform="translate(13.883 8.275)"><path class="d" d="M145.158,248.037l13.681,69.235H271.485l10.665-69.235Z" transform="translate(-145.158 -248.037)"/></g><g transform="translate(0 81.372)"><path class="c" d="M127.589,391.853l21.778-51.306H274.04l17.044,51.306Z" transform="translate(-127.589 -340.547)"/></g><g transform="translate(65.019 117.231)"><path class="d" d="M209.875,397.238l3.546-11.309h27.733l2.493,11.309Z" transform="translate(-209.875 -385.929)"/></g><g transform="translate(21.878 85.807)"><g transform="translate(89.924 12.668)"><path class="d" d="M276.916,362.19h-7.834l1.6,5.517h8.07Z" transform="translate(-269.082 -362.19)"/></g><g transform="translate(79.898 12.668)"><path class="d" d="M264.14,362.19h-7.746l1.07,5.517h8.281Z" transform="translate(-256.394 -362.19)"/></g><g transform="translate(44.195 12.668)"><path class="d" d="M217.955,362.19H211.7l-.494,5.517h6.473Z" transform="translate(-211.208 -362.19)"/></g><g transform="translate(61.411 12.668)"><path class="d" d="M239.375,362.19H233l.214,5.517h6.86Z" transform="translate(-232.997 -362.19)"/></g><g transform="translate(52.879 12.668)"><path class="d" d="M228.52,362.19h-6.047l-.274,5.517h6.535Z" transform="translate(-222.199 -362.19)"/></g><g transform="translate(70.013 12.668)"><path class="d" d="M251.527,362.19h-7.645l.7,5.517H252.6Z" transform="translate(-243.882 -362.19)"/></g><g transform="translate(86.239)"><path class="d" d="M265.375,349.448h7.432l-1.1-3.289h-7.291Z" transform="translate(-264.418 -346.159)"/></g><g transform="translate(77.442)"><path class="d" d="M253.922,349.448h6.837l-.957-3.289h-6.518Z" transform="translate(-253.284 -346.159)"/></g><g transform="translate(87.758 5.22)"><path class="d" d="M266.34,352.765l1.6,5.517H275.7l-1.841-5.517Z" transform="translate(-266.34 -352.765)"/></g><g transform="translate(68.416)"><path class="d" d="M242.276,349.448h7.008l-.638-3.289h-6.785Z" transform="translate(-241.862 -346.159)"/></g><g transform="translate(97.574 5.22)"><path class="d" d="M286.562,352.765h-7.8l1.841,5.517h7.8Z" transform="translate(-278.763 -352.765)"/></g><g transform="translate(95.832)"><path class="d" d="M276.559,346.159l1.1,3.289h7.8l-1.1-3.289Z" transform="translate(-276.559 -346.159)"/></g><g transform="translate(26.562 5.22)"><path class="d" d="M188.893,358.282h7.374l.988-5.517H190.65Z" transform="translate(-188.893 -352.765)"/></g><g transform="translate(78.454 5.22)"><path class="d" d="M261.59,352.765h-7.024l1.07,5.517h7.559Z" transform="translate(-254.566 -352.765)"/></g><g transform="translate(69.074 5.22)"><path class="d" d="M243.39,358.282H250.9l-1.07-5.517h-7.139Z" transform="translate(-242.694 -352.765)"/></g><g transform="translate(13.651 12.668)"><path class="d" d="M182.556,362.19h-7.579l-2.424,5.517H180.8Z" transform="translate(-172.553 -362.19)"/></g><g transform="translate(61.122 5.22)"><path class="d" d="M232.845,358.282h6.21l-.7-5.517h-5.729Z" transform="translate(-232.631 -352.765)"/></g><g transform="translate(4.228 12.668)"><path class="d" d="M160.628,367.707h7.056l2.424-5.517H163.19Z" transform="translate(-160.628 -362.19)"/></g><g transform="translate(36.173 5.22)"><path class="d" d="M201.056,358.282h6.473l.494-5.517h-5.979Z" transform="translate(-201.056 -352.765)"/></g><g transform="translate(60.92)"><path class="d" d="M232.5,349.448h5.56l-.415-3.289h-5.273Z" transform="translate(-232.375 -346.159)"/></g><g transform="translate(24.191 12.668)"><path class="d" d="M194.3,367.707l.988-5.517h-7.643l-1.757,5.517Z" transform="translate(-185.892 -362.19)"/></g><g transform="translate(44.862 5.22)"><path class="d" d="M212.052,358.282h6.176l.274-5.517h-5.957Z" transform="translate(-212.052 -352.765)"/></g><g transform="translate(53.25 5.22)"><path class="d" d="M222.668,358.282h5.876l-.214-5.517h-5.388Z" transform="translate(-222.668 -352.765)"/></g><g transform="translate(34.839 12.668)"><path class="d" d="M207,362.19h-6.646l-.988,5.517h7.14Z" transform="translate(-199.368 -362.19)"/></g><g transform="translate(110.16 12.668)"><path class="d" d="M302.019,362.19h-7.328l1.841,5.517h7.288Z" transform="translate(-294.691 -362.19)"/></g><g transform="translate(102.545 20.115)"><path class="d" d="M292.853,371.616h-7.8l2.394,7.172h7.8Z" transform="translate(-285.055 -371.616)"/></g><g transform="translate(100.06 12.668)"><path class="d" d="M281.909,362.19l1.841,5.517h7.8l-1.841-5.517Z" transform="translate(-281.909 -362.19)"/></g><g transform="translate(107.674 5.22)"><path class="d" d="M291.546,352.765l1.841,5.517h7.341l-1.8-5.517Z" transform="translate(-291.546 -352.765)"/></g><g transform="translate(81.343 20.115)"><path class="d" d="M266.69,371.616h-8.468l1.391,7.172h9.164Z" transform="translate(-258.222 -371.616)"/></g><g transform="translate(92.091 20.115)"><path class="d" d="M279.977,371.616h-8.153l2.086,7.172h8.46Z" transform="translate(-271.824 -371.616)"/></g><g transform="translate(0 20.115)"><path class="d" d="M165.713,371.616h-7.105l-3.331,7.172h7.286Z" transform="translate(-155.277 -371.616)"/></g><g transform="translate(70.952 20.115)"><path class="d" d="M253.221,371.616h-8.15l.9,7.172h8.637Z" transform="translate(-245.071 -371.616)"/></g><g transform="translate(112.645 20.115)"><path class="d" d="M297.837,371.616l2.394,7.172h7.222l-2.342-7.172Z" transform="translate(-297.837 -371.616)"/></g><g transform="translate(7.687 5.22)"><path class="d" d="M171.875,358.282l2.424-5.517h-6.73l-2.562,5.517Z" transform="translate(-165.006 -352.765)"/></g><g transform="translate(105.932)"><path class="d" d="M289.341,346.159l1.1,3.289h7.4l-1.074-3.289Z" transform="translate(-289.341 -346.159)"/></g><g transform="translate(11.147)"><path class="d" d="M176.065,349.448l1.445-3.289h-6.6l-1.528,3.289Z" transform="translate(-169.384 -346.159)"/></g><g transform="translate(61.7 20.115)"><path class="d" d="M240.391,371.616h-7.029l.278,7.172H241.3Z" transform="translate(-233.362 -371.616)"/></g><g transform="translate(28.934)"><path class="d" d="M191.894,349.448h6.337l.589-3.289h-5.878Z" transform="translate(-191.894 -346.159)"/></g><g transform="translate(20.195)"><path class="d" d="M180.835,349.448h6.445l1.047-3.289h-6.048Z" transform="translate(-180.835 -346.159)"/></g><g transform="translate(37.507)"><path class="d" d="M202.744,349.448h5.806l.294-3.289h-5.511Z" transform="translate(-202.744 -346.159)"/></g><g transform="translate(45.529)"><path class="d" d="M212.9,349.448h5.88l.164-3.289h-5.749Z" transform="translate(-212.896 -346.159)"/></g><g transform="translate(16.923 5.22)"><path class="d" d="M184.04,358.282l1.757-5.517h-6.679l-2.424,5.517Z" transform="translate(-176.694 -352.765)"/></g><g transform="translate(53.62)"><path class="d" d="M223.137,349.448h5.217l-.128-3.289H223.3Z" transform="translate(-223.137 -346.159)"/></g><g transform="translate(52.426 20.115)"><path class="d" d="M228.689,371.616h-6.706l-.357,7.172h7.341Z" transform="translate(-221.626 -371.616)"/></g><g transform="translate(9.652 20.115)"><path class="d" d="M176.839,378.788l2.284-7.172h-8.48l-3.151,7.172Z" transform="translate(-167.492 -371.616)"/></g><g transform="translate(43.38 20.115)"><path class="d" d="M217.368,371.616h-6.55l-.642,7.172h6.835Z" transform="translate(-210.176 -371.616)"/></g><g transform="translate(21.293 20.115)"><path class="d" d="M193.188,371.616h-8.681l-2.284,7.172h9.68Z" transform="translate(-182.224 -371.616)"/></g><g transform="translate(33.209 20.115)"><path class="d" d="M205.9,371.616h-7.313l-1.284,7.172h7.955Z" transform="translate(-197.305 -371.616)"/></g></g><g transform="translate(101.492 31.717)"><path class="e" d="M278.217,291.425h-.011a1.278,1.278,0,0,1-1.347-1.2c.05-5.563-3.971-10.116-8.964-10.151h-.057a8.576,8.576,0,0,0-6.275,2.818,10.613,10.613,0,0,0-2.814,7.209,1.282,1.282,0,0,1-1.357,1.177h-.011a1.277,1.277,0,0,1-1.347-1.2,12.813,12.813,0,0,1,3.429-8.7,11.4,11.4,0,0,1,8.374-3.686h.079c6.49.044,11.72,5.672,11.659,12.544A1.284,1.284,0,0,1,278.217,291.425Z" transform="translate(-256.034 -277.704)"/><g transform="translate(6.136 2.563)"><ellipse class="e" cx="6.013" cy="5.255" rx="6.013" ry="5.255"/></g></g><g transform="translate(42.785 31.717)"><path class="e" d="M203.92,291.425h-.011a1.277,1.277,0,0,1-1.347-1.2,10.573,10.573,0,0,0-2.683-7.247,8.533,8.533,0,0,0-6.28-2.9h-.057c-4.967,0-9.039,4.485-9.088,10.027a1.284,1.284,0,0,1-1.358,1.177h-.011a1.278,1.278,0,0,1-1.347-1.2c.062-6.844,5.351-12.382,11.806-12.382h.077a11.347,11.347,0,0,1,8.386,3.8,12.76,12.76,0,0,1,3.272,8.742A1.282,1.282,0,0,1,203.92,291.425Z" transform="translate(-181.736 -277.704)"/><g transform="translate(6.137 2.563)"><ellipse class="e" cx="6.013" cy="5.255" rx="6.013" ry="5.255"/></g></g><g transform="translate(65.452 58.903)"><path class="e" d="M228.151,319.618a28.581,28.581,0,0,1-6.65-.817,35.471,35.471,0,0,1-10.5-4.4,1.174,1.174,0,0,1-.273-1.79,1.605,1.605,0,0,1,2.047-.239h0a32.948,32.948,0,0,0,9.586,3.987c7.171,1.693,13.381.382,18.461-3.892a1.613,1.613,0,0,1,2.065.034,1.166,1.166,0,0,1-.039,1.8A22.328,22.328,0,0,1,228.151,319.618Z" transform="translate(-210.423 -312.11)"/></g><g transform="translate(13.883 8.275)"><path class="f" d="M145.158,248.037l13.681,69.235h78.812L162.806,313.6Z" transform="translate(-145.158 -248.037)"/></g><g class="g" transform="translate(0 81.372)"><path d="M149.367,340.547l-21.778,51.306h75.5l-69.5-2.815Z" transform="translate(-127.589 -340.547)"/></g></g><g transform="translate(243.673 135.122)"><path class="h" d="M284.266,218.634l.05.036c-.031-.566-.05-1.135-.05-1.708V165.99a30.959,30.959,0,0,1,30.868-30.868h608.01a30.959,30.959,0,0,1,30.868,30.868v50.972a30.958,30.958,0,0,1-30.868,30.868H324.49L274.5,267.445Z" transform="translate(-274.501 -135.122)"/><text class="i" transform="translate(44.668 30.079)"><tspan x="0" y="0">ბავშვებო, მიღებულ ცოდნაზე დაყრდნობით, შეარჩიეთ სამი სხვადსხვა</tspan><tspan x="0" y="18" xml:space="preserve"> ტიპის მცენარე თქვენი კლასისათვის. შეისწავლეთ რა საარსებო </tspan><tspan x="0" y="36">პირობებია. ამ ვებ-გვერდებზე თქვენ ნახავთ სრულ ინფორმაციას </tspan><tspan x="0" y="54">თქვენი ახალი კველვისათვის. წარმატებები!</tspan><tspan x="0" y="72"></tspan></text></g></g></svg>