<svg xmlns="http://www.w3.org/2000/svg" width="298.352" height="408.95" viewBox="0 0 298.352 408.95"><defs><style>.a{fill:#ffc50b;}.b,.l{fill:#c4dddf;}.c{fill:#1d1c1a;}.d{fill:#383838;}.e{fill:#93c9cb;}.f{fill:#b2b2b2;}.g{fill:#61a547;}.h{fill:#338440;}.i{fill:#6568b2;}.j{fill:#252b54;}.k{fill:#a7abc4;}.l{opacity:0.5;}.m{fill:#bcb4d4;opacity:0.74;}.n{opacity:0.6;}.o{fill:#a87a48;}.p{fill:#916a3f;}.q{fill:#8a5f38;}.r{fill:#b68043;}.s{fill:#855935;}.t{fill:#674020;}.u{fill:#7b5331;}.v{fill:#815733;}.w{fill:#a27646;}.x,.y{fill:none;stroke-miterlimit:10;}.x{stroke:#815733;stroke-linecap:round;stroke-width:2.064px;}.y{stroke:#61a547;stroke-width:3.538px;}</style></defs><g transform="translate(-590.061 -132.39)"><g transform="translate(768.299 140.458)"><path class="a" d="M844.655,199.019a29.807,29.807,0,0,1,16.958-18.34c10.121-4.093,22.228-3.005,30.979,3.52,8.9,6.638,13.67,19.87,9.192,30.638-7.231,17.388-30.574,27.856-47.248,16.278C843.552,223.49,840.876,210.292,844.655,199.019Z" transform="translate(-820.282 -151.487)"/><path class="a" d="M839.534,239.056a96.946,96.946,0,0,1-9.179,6.12,1.378,1.378,0,0,0,1.39,2.378,97.088,97.088,0,0,0,9.179-6.12C842.311,240.367,840.942,237.973,839.534,239.056Z" transform="translate(-817.533 -163.955)"/><path class="a" d="M831.321,223.68a133.3,133.3,0,0,1-15.275,5.369,1.378,1.378,0,0,0,.731,2.655,139,139,0,0,0,15.933-5.646C834.336,225.353,832.932,222.981,831.321,223.68Z" transform="translate(-814.52 -160.817)"/><path class="a" d="M832.872,211.1a89.317,89.317,0,0,0-12.6-1.886c-1.771-.141-1.757,2.614,0,2.754a84.056,84.056,0,0,1,11.873,1.786C833.87,214.148,834.6,211.493,832.872,211.1Z" transform="translate(-815.317 -157.862)"/><path class="a" d="M834.4,193.662c-6.221-2.949-12.533-5.929-18.051-10.1-1.418-1.071-2.788,1.322-1.389,2.378,5.518,4.167,11.83,7.148,18.051,10.1C834.607,196.8,836.006,194.422,834.4,193.662Z" transform="translate(-814.376 -152.522)"/><path class="a" d="M844.921,182.808c-2.57-2.477-5.983-3.943-8.261-6.731-1.123-1.377-3.06.584-1.947,1.947,2.286,2.8,5.69,4.252,8.26,6.731C844.252,185.987,846.2,184.042,844.921,182.808Z" transform="translate(-818.497 -150.938)"/><path class="a" d="M854.343,170.74c-4.374-5-8.773-9.979-13.462-14.686A1.377,1.377,0,0,0,838.934,158c4.689,4.707,9.088,9.689,13.462,14.687C853.567,174.026,855.507,172.07,854.343,170.74Z" transform="translate(-819.352 -146.825)"/><path class="a" d="M845.315,250.752c-3,5.164-8.073,8.714-11.626,13.462-1.065,1.424,1.327,2.794,2.378,1.39,3.563-4.763,8.609-8.263,11.626-13.462A1.378,1.378,0,0,0,845.315,250.752Z" transform="translate(-818.3 -166.284)"/><path class="a" d="M860.956,255.365c-2.176,4.675-4.248,9.4-6.425,14.074-.744,1.6,1.629,3,2.378,1.39,2.177-4.676,4.248-9.4,6.426-14.074C864.077,255.155,861.7,253.756,860.956,255.365Z" transform="translate(-822.62 -167.225)"/><path class="a" d="M869.035,167.772a43.069,43.069,0,0,1-2.7-10.343c-.18-1.748-2.935-1.766-2.753,0a45.678,45.678,0,0,0,2.8,11.075C866.991,170.155,869.653,169.441,869.035,167.772Z" transform="translate(-824.512 -146.921)"/><path class="a" d="M882,145.865c-.3,6.728-.306,13.461-.306,20.193a1.377,1.377,0,0,0,2.753,0c0-6.733.009-13.465.306-20.193C884.83,144.089,882.076,144.1,882,145.865Z" transform="translate(-828.246 -144.536)"/><path class="a" d="M899.026,161.337c-1.5,3.077-2.557,6.329-3.811,9.508-.652,1.654,2.012,2.364,2.656.732,1.166-2.957,2.134-5.989,3.532-8.85C902.179,161.139,899.8,159.742,899.026,161.337Z" transform="translate(-831.011 -147.853)"/><path class="a" d="M920.166,157.191c-4.168,5.339-7.794,11.092-12.239,16.216-1.158,1.335.781,3.291,1.947,1.948,4.448-5.127,8.07-10.876,12.239-16.217C923.191,157.756,921.257,155.792,920.166,157.191Z" transform="translate(-833.578 -147.044)"/><path class="a" d="M880.591,258.006a1.377,1.377,0,0,0-2.753,0c.045,6.36,1.485,12.609,1.53,18.969a1.377,1.377,0,0,0,2.753,0C882.076,270.615,880.637,264.367,880.591,258.006Z" transform="translate(-827.452 -167.641)"/><path class="a" d="M898.943,263.931c-1.487-3.346-2.435-6.914-4.283-10.1a1.378,1.378,0,0,0-2.378,1.39c1.844,3.174,2.8,6.755,4.283,10.1C897.285,266.941,899.658,265.539,898.943,263.931Z" transform="translate(-830.387 -166.919)"/><path class="a" d="M920.547,263.442c-4.8-5.444-8.655-11.655-13.768-16.829a1.378,1.378,0,0,0-1.948,1.948c5.113,5.173,8.972,11.384,13.768,16.828C919.776,266.724,921.716,264.769,920.547,263.442Z" transform="translate(-832.931 -165.484)"/><path class="a" d="M930.144,246.987a112.351,112.351,0,0,1-9.512-6.516c-1.377-1.09-3.339.845-1.948,1.947a118.9,118.9,0,0,0,10.07,6.946C930.258,250.321,931.638,247.938,930.144,246.987Z" transform="translate(-835.77 -164.237)"/><path class="a" d="M944.424,233.637c-6.264-2.5-12.571-4.9-18.969-7.037-1.689-.565-2.407,2.094-.732,2.655,6.4,2.142,12.7,4.535,18.969,7.038C945.343,236.952,946.052,234.288,944.424,233.637Z" transform="translate(-836.916 -161.429)"/><path class="a" d="M938.491,213.071H927.782a1.377,1.377,0,0,0,0,2.753h10.709A1.377,1.377,0,0,0,938.491,213.071Z" transform="translate(-837.468 -158.657)"/><path class="a" d="M943.152,192.3c-6,1.9-11.947,3.963-18.051,5.508a1.378,1.378,0,0,0,.732,2.655c6.1-1.544,12.054-3.606,18.052-5.507C945.57,194.426,944.85,191.767,943.152,192.3Z" transform="translate(-836.988 -154.364)"/><path class="a" d="M925.223,181.9c-1.859,1.467-3.872,2.756-5.841,4.068-1.469.98-.092,3.366,1.39,2.378,2.167-1.445,4.352-2.884,6.4-4.5C928.563,182.743,926.6,180.809,925.223,181.9Z" transform="translate(-835.882 -152.168)"/></g><g transform="translate(615.601 328.157)"><g transform="translate(0)"><path class="b" d="M701.143,425.5q.3.429.573.869c3.894,6.162,4.868,13.646-1.189,19.192-4.5,4.125-15.439,6.406-18.97-.547,2.575,5.7-4.314,11.4-9.928,10.4-5.926-1.058-7.851-7.362-9.084-12.192-2.991,8.457-20.623,10.051-26.935,6.312C627.99,445.012,625.6,434,631.7,427.234c-2.106,2.34-12.423-6.078-4.734-9.233-3.052-.806-5.025-4.11-4.907-7.265a11.392,11.392,0,0,1,4.417-8.06c2.826-2.336,8.188-2.882,10.444-5.531a3.8,3.8,0,0,0,.636-1.9c1.158-6.9,7.3-12.336,14.139-13.795a24.514,24.514,0,0,1,18.022,3.323c1.031.659,2.6,2.6,3.68,2.912,5.3,1.538,9.862-3.405,15.343-1.586,4.1,1.362,5.721,5.358,6.621,9.162,3.335-.353,9.3,2.329,11.475,4.942,3.252,3.906,4.608,9.722,4.1,14.7a12.506,12.506,0,0,1-2.861,7.257C707.411,422.885,702.05,426.808,701.143,425.5Z" transform="translate(-622.051 -380.946)"/><path class="c" d="M711.905,425.266c3.978,3.069,4.861-5.205,1.79-5.574C710.808,419.347,709.93,423.742,711.905,425.266Z" transform="translate(-640.346 -388.925)"/><path class="c" d="M664.139,425.6c3.978,3.069,4.861-5.206,1.79-5.574C663.042,419.677,662.164,424.072,664.139,425.6Z" transform="translate(-630.504 -388.994)"/><path class="d" d="M634.064,439.12l-.389.329a3.528,3.528,0,0,1,.384-.329l.041-.029Z" transform="translate(-624.446 -392.926)"/><path class="e" d="M702.069,457.312c-4.5,4.125-15.439,6.406-18.97-.547,2.575,5.7-4.314,11.4-9.928,10.4-5.926-1.058-7.851-7.362-9.084-12.192-2.991,8.457-20.623,10.051-26.934,6.312-6.648-3.937-9.956-13.389-5.744-19.747a11.522,11.522,0,0,0-.752,4.53c.331,5.13,6.525,7.554,10.775,8.762a25.964,25.964,0,0,0,18.521-2.019,21.592,21.592,0,0,0,4.494-3.562c.764,2.053,2.139,5.356,4.056,6.53,1.849,1.134,4.7,1,6.753.655,1.9-.322,6.427-1.512,6.99-3.778,1.223,1.907,3.659,2.232,5.8,2.3,3.924.127,8.394-1.049,11.187-4.051a16.682,16.682,0,0,0,3.709-8.36c.2-1.308.69-3.549.154-4.541l.163.119C707.152,444.282,708.126,451.766,702.069,457.312Z" transform="translate(-623.593 -392.702)"/><path class="c" d="M700.392,439.644c-.5.349-1.058.3-1.589.548a2.8,2.8,0,0,0-1.326,1.927c-.3,1.042.982,1.9,1.923,2,.9.09,1.632-.5,2.44-.8.953-.345.549-1.873-.422-1.532a15.708,15.708,0,0,0-1.489.656c-.548.258-.891-.01-1.319-.395l.183.7c.1-.534.194-1.285.774-1.52a3.08,3.08,0,0,0,1.377-.865c.3-.372-.094-1.036-.553-.716Z" transform="translate(-637.583 -393.023)"/><path class="c" d="M694.19,437.053a3.349,3.349,0,0,0,.65.817,6.044,6.044,0,0,0,1.278.726,21.074,21.074,0,0,0,3.143,1c.846.226,1.207-1.107.36-1.3-.935-.218-1.859-.458-2.784-.715a11.238,11.238,0,0,1-1.2-.421,6.792,6.792,0,0,1-1.1-.444c-.2-.133-.5.141-.345.345Z" transform="translate(-636.906 -392.428)"/><path class="c" d="M701.448,442.731a23.2,23.2,0,0,0-3.581,1.837c-1.026.615-2.584,1.36-3.1,2.506-.082.183.008.5.265.461,1.177-.156,2.236-1.116,3.209-1.739,1.177-.753,2.406-1.421,3.582-2.174.445-.286.162-1.1-.376-.892Z" transform="translate(-637.028 -393.67)"/></g><path class="f" d="M717.364,436.512c1.193,1.57,6.549,8.265,15.682,9.316,2.334.268,9.8,1.128,15.061-4.193.537-.544,6.425-6.7,3.882-13.818a12.683,12.683,0,0,0-13.2-8.074c-.415.063-5.985.982-7.142,4.969a6.009,6.009,0,0,0,.155,3.571c-.037-.437-.529-7.475,4.814-11.335a12.329,12.329,0,0,1,9.937-1.708c6.865,1.631,11.792,9.051,11.955,16.3.237,10.471-9.555,16.2-10.558,16.769a21.487,21.487,0,0,1-21.738-.622A22.094,22.094,0,0,1,717.364,436.512Z" transform="translate(-641.689 -387.934)"/><path class="f" d="M761.561,454.828a8.309,8.309,0,0,1,8.384-2.795c.342.1,4.261,1.317,4.814,4.813a5.369,5.369,0,0,1-2.174,5.279,4.966,4.966,0,0,1-5.59,0,4.752,4.752,0,0,1-1.708-2.639,4.864,4.864,0,0,0,3.416,1.708c1.614.05,3.593-.8,4.036-2.329.554-1.913-1.587-3.871-2.949-4.658C766.229,452.15,761.933,454.607,761.561,454.828Z" transform="translate(-650.796 -395.536)"/><path class="f" d="M746.558,430.241c1.229,2.761.072,5.6-1.863,6.366a4.031,4.031,0,0,1-4.658-1.709c-1.37-2.413.808-6.687,4.037-7.608,3.331-.95,6.828,1.941,7.763,4.969,1.235,4-2.121,7.824-4.814,9.471a11.243,11.243,0,0,1-8.54,1.087A11.379,11.379,0,0,0,750.75,440.8c2.462-2.385,4.522-6.83,2.639-10.714-2.144-4.425-8.608-6.472-12.421-3.726-2.99,2.152-4.449,7.322-2.018,10.092,1.793,2.044,5.9,3.007,7.919.776C748.359,435.583,748.378,432.573,746.558,430.241Z" transform="translate(-645.885 -390.047)"/><g transform="translate(113.869 41.765)"><path class="g" d="M769.271,433.55s5.724,4.974-1.68,9.542C767.591,443.092,761.859,437.9,769.271,433.55Z" transform="translate(-765.472 -433.55)"/><path class="h" d="M767.59,443.092l1.68-9.542s-7.284,4.131-1.68,9.542Z" transform="translate(-765.471 -433.55)"/></g><g transform="translate(87.021 56.689)"><g transform="translate(1.988 3.74)"><path class="g" d="M744.488,458.654s-1.875,8.306-10.329,3.412C734.159,462.065,736.25,453.633,744.488,458.654Z" transform="translate(-734.159 -457.058)"/><path class="h" d="M734.159,462.1l10.329-3.412s-7.959-5.007-10.329,3.412Z" transform="translate(-734.159 -457.089)"/></g><path class="g" d="M734.909,452.347s4.9,4.259-1.439,8.168C733.469,460.515,728.563,456.066,734.909,452.347Z" transform="translate(-731.656 -452.347)"/><path class="h" d="M733.468,460.515l1.439-8.168s-6.237,3.535-1.439,8.168Z" transform="translate(-731.655 -452.347)"/></g></g><g transform="translate(769.741 301.321)"><g transform="translate(0)"><g transform="translate(0 61.027)"><path class="e" d="M827.023,458.984a6.3,6.3,0,0,0-1.554,3.227c-.327,1.361-1.008,3.255-.324,4.594a1.563,1.563,0,0,0,2.665.2c.8-.959.761-2.652.988-3.836a14.377,14.377,0,0,0,.406-3.416,1.339,1.339,0,0,0-2.182-.772Z" transform="translate(-817.976 -431.153)"/><path class="b" d="M819.812,424.952c-.781,2.54-1.606,5.624-.449,8.14a1.458,1.458,0,0,0,2.747-.5c.247-1.215.351-2.445.531-3.681a9.956,9.956,0,0,0-.057-3.73,1.448,1.448,0,0,0-2.772-.227Z" transform="translate(-816.727 -424.011)"/><path class="e" d="M818.935,441.223c-1,.242-1.316,1.254-1.564,2.138a26.625,26.625,0,0,0-.76,3.731c-.189,1.431-1.4,7.508,1.433,7,1.228-.219,1.58-2.083,1.656-3.113.095-1.283.233-2.564.383-3.842.11-.94.972-6.431-1.149-5.915Z" transform="translate(-816.191 -427.55)"/><path class="b" d="M845.713,453.058a18.985,18.985,0,0,0-1.639,5.616c-.242,1.161-1.2,4.98.8,5.15,1.95.166,2.208-3.605,2.429-4.879a11.206,11.206,0,0,0-.148-5.778.84.84,0,0,0-1.446-.11Z" transform="translate(-821.845 -429.921)"/><path class="e" d="M837.16,425.481a5.446,5.446,0,0,0-.869,2.935,8.187,8.187,0,0,0,.2,3.713,1.182,1.182,0,0,0,2.035.155,6.813,6.813,0,0,0,.77-3.615,4.484,4.484,0,0,0-.93-3.258.78.78,0,0,0-1.2.071Z" transform="translate(-820.309 -424.247)"/><path class="b" d="M831.681,440.3a5.128,5.128,0,0,0-1.181,3.027,11.137,11.137,0,0,0-.06,3.821,1.357,1.357,0,0,0,2.6.214,11.324,11.324,0,0,0,.634-3.42,5.432,5.432,0,0,0-.6-3.543.982.982,0,0,0-1.392-.1Z" transform="translate(-819.099 -427.318)"/><path class="b" d="M838.135,468.993c-1.278,1.378-1.2,3.75-1.4,5.519-.141,1.223-.888,5.042,1.123,5.213,2.08.177,2.21-3.6,2.26-4.929.066-1.783.391-4.167-.673-5.709a.923.923,0,0,0-1.309-.094Z" transform="translate(-820.372 -433.232)"/><path class="e" d="M845.446,436.883c-.523,1.12-.349,2.6-.523,3.812-.138.963-.32,2.944,1.03,3.1.663.075,1.182-.59,1.512-1.077a4.5,4.5,0,0,0,.626-2.31c.059-1.411-.094-3.04-1.277-3.972a.922.922,0,0,0-1.369.449Z" transform="translate(-822.092 -426.535)"/></g><path class="i" d="M864.7,351.422a19.22,19.22,0,0,0-6.117,7.666c-4.309,9.528-1.291,21.041-1.291,21.041l-10.661,6.152c-1.716-2.579-5.817-4.072-6.4-4.273l-.006,0-.066-.023,6.021,19.911c.059-.043.114-.089.17-.137l0,0c4.608-3.781,2.188-11.793,2.188-11.793l11.529-3.812c9.726,14.818,16.208,15.744,16.208,15.744A73.688,73.688,0,0,0,897.794,383.9c.535-.654,1.05-1.308,1.547-1.955q.225-.3.446-.594c.084-.109.165-.218.244-.327.32-.429.626-.852.926-1.276,1.319-1.859,2.478-3.666,3.492-5.376a73.608,73.608,0,0,0,4.007-7.766,46.72,46.72,0,0,0,2.087-5.465C897.114,349.107,877.2,342.161,864.7,351.422Zm8.435,10.8c-.318.451-.637.91-.964,1.37l-.244.345c-.129.18-.256.36-.385.54-.528.733-1.065,1.466-1.605,2.191a54.9,54.9,0,0,1-8.014,9.069s-3.01-12.734,1.157-17.365,11.808-6.946,16.669-6.252c0,0-1.732,2.838-4.243,6.609C874.774,359.827,873.975,361.006,873.136,362.218Z" transform="translate(-821.13 -347.146)"/><path class="j" d="M846.5,411a1.44,1.44,0,0,1-1.385.629,1.442,1.442,0,0,0,1.03-.629c.949-1.293.893-3.135.772-4.652a45.273,45.273,0,0,0-1.142-6.585,18.23,18.23,0,0,0-1.106-3.694,12.756,12.756,0,0,0-4.4-5,1.27,1.27,0,0,0-.345-.183.613.613,0,0,1,.274-.02l.066.015a1.27,1.27,0,0,1,.36.187,12.8,12.8,0,0,1,4.4,5,18.234,18.234,0,0,1,1.106,3.694,45.24,45.24,0,0,1,1.142,6.585C847.388,407.868,847.445,409.71,846.5,411Z" transform="translate(-821.081 -356.153)"/><path class="k" d="M845.706,411.011a1.442,1.442,0,0,1-1.03.629h0c-1.852-.187-4.394-3.206-5.195-6.321a40.846,40.846,0,0,1-1.664-10.055,8.212,8.212,0,0,1,.4-2.851c.167-.457.675-1.365,1.279-1.517a1.27,1.27,0,0,1,.345.183,12.756,12.756,0,0,1,4.4,5,18.231,18.231,0,0,1,1.106,3.694,45.266,45.266,0,0,1,1.142,6.585C846.6,407.876,846.654,409.717,845.706,411.011Z" transform="translate(-820.646 -356.16)"/><path class="l" d="M915.324,361.146a46.72,46.72,0,0,1-2.087,5.465c-23.747-24.622-41.6-15.026-49.872-7.522a19.22,19.22,0,0,1,6.117-7.666C881.985,342.161,901.9,349.107,915.324,361.146Z" transform="translate(-825.911 -347.146)"/><path class="m" d="M912.183,378.738a45.481,45.481,0,0,1-2.669,4.019,40.317,40.317,0,0,0-27.82-17.534c.839-1.212,1.638-2.391,2.371-3.493C893.179,363.032,906.288,371.664,912.183,378.738Z" transform="translate(-829.688 -350.151)"/><path class="m" d="M907.069,386.446c-.5.646-1.012,1.3-1.547,1.955-2.376-4.3-10.862-17.075-27.856-17.24.54-.725,1.077-1.458,1.605-2.191C884.891,369.55,897.381,372.462,907.069,386.446Z" transform="translate(-828.858 -351.642)"/><g class="n" transform="translate(50.798 16.442)"><path class="b" d="M908.275,385.3c-.079.109-.16.218-.244.327-5.82-9.272-15.6-15.409-27.858-17.423l.244-.345C892.641,369.909,902.417,376.044,908.275,385.3Z" transform="translate(-880.173 -367.855)"/></g></g><g transform="translate(19.745 42.624)"><path class="j" d="M843.23,406.29a.907.907,0,0,0-.107.514,1.3,1.3,0,0,0,.11.722c.117.172.3.163.378.02a1.426,1.426,0,0,0,.008-.607,2.561,2.561,0,0,0-.059-.538c-.041-.161-.256-.213-.33-.11Z" transform="translate(-841.485 -401.945)"/><path class="j" d="M841.071,400.985a2.149,2.149,0,0,0,.212,1.279c.139.221.372.116.365-.091-.006-.192-.033-.386-.05-.58a1.88,1.88,0,0,0-.134-.585c-.088-.206-.38-.253-.393-.022Z" transform="translate(-841.06 -400.831)"/><path class="j" d="M841.517,403.541c-.131.043-.141.2-.146.343a4.447,4.447,0,0,0,.021.588c.021.225.057,1.185.435,1.092.163-.04.149-.333.126-.5-.03-.2-.054-.4-.076-.605-.017-.148-.082-1.014-.359-.923Z" transform="translate(-841.123 -401.388)"/><path class="j" d="M845.135,405.046a3.05,3.05,0,0,0-.039.888c.006.183,0,.787.286.8s.185-.576.173-.776a2.118,2.118,0,0,0-.215-.906c-.049-.089-.181-.1-.2-.01Z" transform="translate(-841.889 -401.688)"/><path class="j" d="M843.487,400.988a.859.859,0,0,0-.022.464,1.561,1.561,0,0,0,.152.581c.068.129.254.131.288.015a1.137,1.137,0,0,0-.015-.571.907.907,0,0,0-.238-.507c-.066-.055-.132-.048-.165.017Z" transform="translate(-841.551 -400.853)"/><path class="j" d="M843.23,403.338a.776.776,0,0,0-.062.48,2.073,2.073,0,0,0,.121.6c.078.211.345.219.368.021a1.947,1.947,0,0,0-.027-.54,1.1,1.1,0,0,0-.2-.553.13.13,0,0,0-.2-.009Z" transform="translate(-841.493 -401.339)"/><path class="j" d="M845.021,402.738a2.419,2.419,0,0,0,.056.6c.014.152.055.464.248.481.094.009.144-.1.174-.176a.725.725,0,0,0,.01-.365.937.937,0,0,0-.311-.617.109.109,0,0,0-.176.076Z" transform="translate(-841.874 -401.203)"/></g></g><g transform="translate(694.135 407.98)"><path class="o" d="M820.069,490.749c.082-.262.164-.508.229-.753a1.155,1.155,0,0,0-1.377-.476c-1.114.213-2.72-.885-3.162,1.229a4.41,4.41,0,0,1-5.474,3.655c-1.262-.245-2.59-.18-3.754-.967-1.2-.786-2-1.753-1.622-3.228.311-1.213-.164-1.524-1.262-1.508-2.081.016-4.179,0-6.277,0-.688.016-1.409.1-1.54.9-.328,2.147-2,2.36-3.622,2.606a15.47,15.47,0,0,1-2.753.033c-1.655-.049-3.179-.23-4.884.59-2.245,1.065-6.212-.853-7.326-3.065-.328-.656-.819-1.213-1.164-.377-1.18,2.8-3.523,2.475-5.8,2.458h-1.77c1.786,1.557,2.048,2.737.853,3.884a3.852,3.852,0,0,1-5-.164,1.3,1.3,0,0,1-.066-1.771c.573-.917.753.066,1.1.263a2.456,2.456,0,0,0,2.606.114c1.066-.639-.066-1.557.229-2.31-.8-2.983-2.884-3.246-5.638-3.246-6.457-.049-12.833,1.295-19.322.951a59.591,59.591,0,0,1-6.7-1.164c-.885-.148-2.622-.753-1.245,1.458.835,1.344-.59,3.409-2.36,3.491a31.5,31.5,0,0,0-6.178.738,3.73,3.73,0,0,1-4.261-3.081,2.916,2.916,0,0,0-.819-1.917,5.5,5.5,0,0,0,.032,3.442l3.9,20.8c1.443-.066,2.885-.115,4.311-.115,4.622.017,9.242.229,13.865.262,1.048,0,1.605.771,2.392,1.213,1.672-.017,3.343-.017,5.031-.017a3.868,3.868,0,0,1,3.311-1.229c14.734.049,29.451.033,44.168.033H816.5l.984-5.834a10.74,10.74,0,0,1-3.949-.311c-1.836-.476-1.836-3.065-.1-4.524,1.18-1.524,2.573-2.54,4.638-1.9a2,2,0,0,1,.541.017l1.426-8.506a5.6,5.6,0,0,0,.017-1.655Zm-58.279,18.028c-1,.049-1.951-.245-2-1.36-.065-1.295,1.115-.885,1.7-1.016,1.081,0,2.164-.016,2.164,1.213C763.675,508.744,762.626,508.727,761.791,508.777Zm15.536-4.523a8.287,8.287,0,0,1-5.081.77c-1.015-.2-2.147-.541-2.409-1.721-.262-1.246-.18-2.491,1.115-3.262a3.411,3.411,0,0,1,3.507-1.9c2.016-.64,3.49.114,4.474,2.475C779.638,502.3,778.933,503.5,777.327,504.253Zm28.3,7.572a1.38,1.38,0,0,1-1.557-1.361c-.082-.934.672-.9,1.328-.934.721.033,1.557.016,1.589.967A1.273,1.273,0,0,1,805.631,511.825Zm1.2-5.769a4.239,4.239,0,0,1-4.343-3.885c0-2.016,1.737-2.048,3-1.982,2.983.148,4.638.672,4.409,2.868C809.892,504.958,808.794,505.86,806.827,506.057Z" transform="translate(-721.066 -482.872)"/><path class="p" d="M799.8,519.968c-14.717,0-29.434.017-44.168-.033a3.869,3.869,0,0,0-3.311,1.229c.41.95,1.786,1,1.917,2.294a3.737,3.737,0,0,1-2.737,3.573,4.567,4.567,0,0,1-5.081-2.442c-.77-1.442-.114-2.458.869-3.408-.787-.442-1.344-1.213-2.392-1.213-4.622-.033-9.243-.245-13.865-.262-1.427,0-2.869.049-4.311.115l.591,3.179a3.362,3.362,0,0,1,.655-1.049l.017-.016c.115-.263.245-.525.377-.787,1.115-.722,2.36-.279,3.54-.394a2.216,2.216,0,0,1,2.327,2.131,2.472,2.472,0,0,1-2.016,2.737c-1.344.36-2.835.656-4.114-.262a2.3,2.3,0,0,1-.41-.377l1.721,9.177c9.21-.59,18.437-.442,27.664-.426h3.146c4.852,0,9.7-.049,14.554.016a26.346,26.346,0,0,1,5.441.557c3.589.819,7.08,2.048,10.882,1.8,2.868-.18,5.769-.017,8.653-.033a6.347,6.347,0,0,0,1.934-.164c4.36-1.442,8.965-1.081,13.423-1.655a.152.152,0,0,0,.082-.016l2.392-14.275Zm-62.523,12.44a.408.408,0,0,1-.491-.443c.1-.688.7-.869,1.18-1.131.344,0,.541.18.491.459A1.262,1.262,0,0,1,737.276,532.408Zm45.512-1.115c-.918.2-1.852.148-2.114-1.081-.672-1.278.114-2.262.918-2.966a1.147,1.147,0,0,1,1.852.589c.95.017,1.2.591,1.131,1.427A2.17,2.17,0,0,1,782.788,531.293Zm16.569-2.688a2,2,0,0,1-2.131,1.59,14.836,14.836,0,0,0-2.54-.967c-.722-.148-1.7-.476-1.475-1.491.311-1.312,1.524-1.771,2.655-2.082,1.115-.311,1.278.59,1.36,1.426.181.049.426.033.541.164C798.275,527.753,799.537,527.606,799.357,528.605Z" transform="translate(-722.151 -489.36)"/><path class="q" d="M820.51,486.4c-1.967,0-3.95.017-5.917.033-.164,1.983-2.114,2.753-3.081,4.179-.836,1.212-2.95.393-4.31-.41-1.032-.607-1.967-1.459-.983-2.884a2.8,2.8,0,0,0,.229-.934c-2.966-.033-5.916-.049-8.882-.082a3.334,3.334,0,0,1-2.065-.295.961.961,0,0,1-.443-.935c-.1-.131-.213-.246-.311-.377a8.75,8.75,0,0,0-1.378-1.836c-.07-.056-.736-.457-.737-.476.017,1.852-.344,3.442-2.409,4.114a3.561,3.561,0,0,0-1.311,1.131c-1.033,1.213-1.983,1.066-2.557-.41a4.922,4.922,0,0,1-.049-3.032c-.376-.213-.754-.442-1.131-.655-1.032.295-1.474.9-.8,1.868.738,1.081,1.786,2.245.738,3.458-1.1,1.278-2.835.639-4.229.476a2.806,2.806,0,0,1-2.393-2.7c-.032-.262-.016-.525-.032-.787-1.721-.066-3.639.426-4.72-1.54-1.032.606-.262,1.393-.131,2.065.3,1.77-.066,2.36-1.852,2.245-1.443-.1-3.328.279-3.459-2.147-.049-.77-.77-.541-1.246-.541-1.426-.049-2.868-.033-4.294-.049-2.426.017-4.867-.148-7.26.1-4.9.491-9.833.787-14.652-.131a45.619,45.619,0,0,0-7.72-.738c-1.147-.033-2.36.3-3.458-.377-.033,2.8-2.589,3.474-4.245,4.835-.885.721-2.279-.541-1.869-2,.443-1.524-.131-1.622-.934-1.655a8.273,8.273,0,0,0-.852,1.983,2.916,2.916,0,0,1,.819,1.917,3.73,3.73,0,0,0,4.261,3.081,31.5,31.5,0,0,1,6.178-.738c1.771-.082,3.2-2.147,2.36-3.491-1.377-2.212.36-1.606,1.245-1.458a59.6,59.6,0,0,0,6.7,1.164c6.49.344,12.865-1,19.322-.951,2.754,0,4.834.263,5.638,3.246a1.566,1.566,0,0,1,.279-.017h1.77c2.279.017,4.622.345,5.8-2.458.345-.836.836-.279,1.164.377,1.114,2.212,5.081,4.129,7.326,3.065,1.7-.82,3.229-.639,4.884-.59a15.47,15.47,0,0,0,2.753-.033c1.623-.245,3.294-.459,3.622-2.606.131-.8.853-.885,1.54-.9,2.1,0,4.2.016,6.277,0,1.1-.017,1.574.295,1.262,1.508-.377,1.475.426,2.442,1.622,3.228,1.164.787,2.491.722,3.754.967a4.409,4.409,0,0,0,5.474-3.655c.442-2.114,2.048-1.016,3.162-1.229a1.155,1.155,0,0,1,1.377.476A6.7,6.7,0,0,0,820.51,486.4Zm-88.352,3.458c-1.2.017-2.081-.2-2-1.474a1.976,1.976,0,0,1,2.082-1.934c1.655.033.95,1.622,1.2,2.475C733.748,490.039,732.6,489.728,732.158,489.859Z" transform="translate(-721.131 -481.67)"/><path class="r" d="M833.616,487.115c-.167,1.984-2.112,2.75-3.091,4.177-.836,1.218-2.942.4-4.308-.409-1.028-.609-1.964-1.451-.981-2.872a2.76,2.76,0,0,0,.23-.942c-.24-.732-.852-.375-1.277-.379-3.223-.025-6.446,0-9.669.006a.966.966,0,0,1-.445-.932c3.362.542,6.745.16,10.117.21a50.773,50.773,0,0,0,5.255-.249C831.067,485.581,832.126,486.962,833.616,487.115Z" transform="translate(-740.148 -482.356)"/><path class="r" d="M799.891,483.591c-1.031.289-1.477.9-.813,1.86.75,1.085,1.8,2.255.747,3.469-1.1,1.266-2.841.64-4.24.476a2.812,2.812,0,0,1-2.381-2.712c-.03-.257-.03-.518-.044-.777C794.086,482.926,797.647,481.631,799.891,483.591Z" transform="translate(-735.841 -481.726)"/><path class="r" d="M809.333,482.2c.014,1.849-.356,3.435-2.413,4.117a3.481,3.481,0,0,0-1.308,1.123c-1.046,1.212-1.989,1.068-2.56-.416A4.86,4.86,0,0,1,803,484c1.234-.761,2.287-1.831,3.723-2.248C807.651,481.483,808.619,481.159,809.333,482.2Z" transform="translate(-737.823 -481.484)"/><path class="r" d="M729.888,485.089c-.033,2.8-2.589,3.474-4.245,4.835-.885.721-2.279-.542-1.869-2,.443-1.524-.131-1.622-.934-1.655.131-.2.262-.41.41-.623a7.6,7.6,0,0,0,3.95-1.164A1.812,1.812,0,0,1,729.888,485.089Z" transform="translate(-721.352 -482.031)"/><path class="r" d="M784.366,484.645c-1.031.62-.248,1.4-.131,2.072.307,1.77-.053,2.369-1.846,2.245-1.442-.1-3.33.272-3.458-2.139-.041-.776-.77-.54-1.241-.553-1.431-.038-2.865-.029-4.3-.04.922-.884,2.078-.526,3.147-.575a8.7,8.7,0,0,0,4.628-1.027A2.626,2.626,0,0,1,784.366,484.645Z" transform="translate(-731.768 -482.02)"/><path class="r" d="M813.689,485.29" transform="translate(-740.07 -482.268)"/><path class="s" d="M830.926,506.16c0,1.893-1.111,2.8-3.065,3a4.247,4.247,0,0,1-4.353-3.889c.01-2.012,1.736-2.049,2.995-1.983C829.5,503.445,831.142,503.961,830.926,506.16Z" transform="translate(-742.093 -485.973)"/><path class="r" d="M783.717,502.615a3.39,3.39,0,0,1,3.511-1.9c1.663.3,3.078,3.82,2.036,5.074a1.2,1.2,0,0,1-.46.345,5.41,5.41,0,0,1-4.544,0c-1.537-.756-.5-2.06-.553-3.129C783.7,502.875,783.713,502.745,783.717,502.615Z" transform="translate(-733.832 -485.443)"/><path class="r" d="M842.22,505.121l-.77,4.557a7.005,7.005,0,0,1-2.475.033,5.538,5.538,0,0,1-1-.263,1.534,1.534,0,0,1-1.1-.884,2.425,2.425,0,0,1,.033-.967c.082-.508.2-1.016.3-1.541,1.18-1.524,2.573-2.54,4.638-1.9C841.958,504.482,842.089,504.793,842.22,505.121Z" transform="translate(-744.84 -486.115)"/><path class="q" d="M783.474,502.562c0,.13-.017.26-.01.39.057,1.069-.984,2.373.553,3.129a5.41,5.41,0,0,0,4.544,0,1.2,1.2,0,0,0,.46-.345c1.042-1.254-.372-4.771-2.036-5.074,2.007-.649,3.492.1,4.479,2.477.7,1.677-.011,2.88-1.619,3.629a8.183,8.183,0,0,1-5.081.769c-1.015-.2-2.137-.534-2.4-1.714C782.091,504.582,782.173,503.331,783.474,502.562Z" transform="translate(-733.59 -485.39)"/><path class="q" d="M841.21,510.221l-.2,1.212a10.741,10.741,0,0,1-3.949-.311c-1.836-.476-1.836-3.065-.1-4.524-.1.525-.214,1.033-.3,1.541a2.424,2.424,0,0,0-.033.967,1.534,1.534,0,0,0,1.1.884A6.923,6.923,0,0,0,841.21,510.221Z" transform="translate(-744.6 -486.659)"/><path class="q" d="M843.683,504.218l-.164.95c-.131-.328-.262-.639-.377-.967A2,2,0,0,1,843.683,504.218Z" transform="translate(-746.139 -486.163)"/><path class="o" d="M779.27,492.8c.092,0,.184-.008.275-.015,1.786,1.565,2.047,2.75.855,3.889a3.855,3.855,0,0,1-5-.159,1.3,1.3,0,0,1-.075-1.775c.576-.924.767.069,1.108.26a2.436,2.436,0,0,0,2.6.114C780.094,494.471,778.973,493.55,779.27,492.8Z" transform="translate(-732.101 -483.812)"/><path class="s" d="M771.447,511.116c1.076-.006,2.155-.021,2.167,1.215.01,1.13-1.047,1.112-1.879,1.158-1,.056-1.939-.245-2-1.348C769.673,510.835,770.85,511.248,771.447,511.116Z" transform="translate(-731.014 -487.59)"/><path class="s" d="M826.839,515.061c.713.037,1.561.019,1.6.969a1.294,1.294,0,0,1-1.364,1.334A1.407,1.407,0,0,1,825.5,516C825.422,515.069,826.187,515.09,826.839,515.061Z" transform="translate(-742.503 -488.403)"/><path class="t" d="M818.539,576c-1.161,1.337-2.461,2.337-4.4,1.939-1.37-.282-2.813-.938-2.827-2.309-.019-1.954-1.17-1.844-2.384-1.947-.584-.05-1.175-.028-1.763-.038l-.79-.411-.37-.363c-.243-1.073-.965-2.2.336-3.106l.064.409q.429,3.464,4.387,2.366c2.245-.075,1.794-1.759,1.867-3.131l3.083.093c1.149,1.111,2.594.791,3.783.407,1.127-.364.5-1.694.59-2.593a25.458,25.458,0,0,0,.01-2.7c1.087.7,1.651,3.223,1,5.177-.434,1.3-1.578,1.633-2.854,1.495-.9-.1-1.794-.291-2.7-.349-.684-.043-1.486-.187-1.781.76q-.164.408-.33.817a13.378,13.378,0,0,0-1.032,1.157c-.865,1.22-.389,2.577,1.06,2.761,1.051.134,2.2.4,3.175-.375.972-.36,1.066-1.186,1.093-2.049l.78.078c0,.252,0,.5,0,.756Q818.544,575.426,818.539,576Z" transform="translate(-738.401 -498.614)"/><path class="t" d="M792.969,560.339c1-1.007,1-1.007.655-3.387,1.149.4,1.182,1.293,1.167,2.183s.187,1.535,1.27,1.559c1.04.022,1.789.5,1.8,1.639.006.692-.292,1.374-1.073,1.42-.992.058-2.449.572-2.8-.654-.543-1.894-1.786-1.307-2.887-1.179-1.49.175-2.949.617-4.356-.352-1.316-.907-1.363-2.142-.056-3.255-.083.757-.345,1.523.512,2.09A4.714,4.714,0,0,0,792.969,560.339Z" transform="translate(-734.31 -497.034)"/><path class="r" d="M793.19,560.243a4.714,4.714,0,0,1-5.77.063c-.857-.567-.595-1.332-.512-2.09.838-.371,1.305-1.266,2.256-1.506C791.648,556.082,792.269,556.609,793.19,560.243Z" transform="translate(-734.531 -496.938)"/><path class="r" d="M811.008,573.661q-3.963,1.1-4.387-2.367a.966.966,0,0,0,.762-.824l.769-.419,3.936.022-.011-.011C812.881,571.606,811.146,572.4,811.008,573.661Z" transform="translate(-738.614 -499.733)"/><path class="q" d="M820.491,563.134l1.1.007.835,1.152c.114,0,.229.012.344.025l0,0a25.441,25.441,0,0,1-.01,2.7c-.094.9.538,2.229-.59,2.593-1.189.384-2.634.7-3.783-.408.256-.04.511-.1.769-.114.923-.056,2.149.515,2.59-.685.367-1-.719-1.681-1.157-2.5a.762.762,0,0,0-.264-.283C818.776,564.67,819.467,563.892,820.491,563.134Z" transform="translate(-741.037 -498.308)"/><path class="t" d="M760.536,564.878c-.36-.672-2.481.175-1.458-1.69a8.132,8.132,0,0,0,6.154.1c1.782-.653,1.046-1.957.808-3.132,1.678,1.546,1.413,3.616-.6,4.437C763.849,565.243,762.222,565.688,760.536,564.878Z" transform="translate(-728.761 -497.695)"/><path class="u" d="M768.445,573.811h-.784l-.784-.386c-2.15-.7-2.692-1.921-1.577-3.549l.426.007c.052.543-.272,1.307.569,1.445a1.285,1.285,0,0,0,1.4-.865c.279-.723-.3-.882-.812-1.039,1.207-.893,1.6.466,2.352.846a4.1,4.1,0,0,1,.016,1.975C768.955,572.753,768.484,573.171,768.445,573.811Z" transform="translate(-729.984 -499.542)"/><path class="u" d="M782.284,559.237a1.758,1.758,0,0,1-1.74,1.811,1.786,1.786,0,0,1-2.01-1.487,1.926,1.926,0,0,1,1.734-2.024A1.955,1.955,0,0,1,782.284,559.237Z" transform="translate(-732.825 -497.153)"/><path class="t" d="M767.764,538.875a3.349,3.349,0,0,1,.372,4.192c-.612.737-3.312.916-4.225.279-.58-.4-.871-.832-.088-1.329l.788.354c2.755.534,3.4.015,2.884-2.333l-.231-1.158Z" transform="translate(-729.698 -493.309)"/><path class="u" d="M785.31,554.876c-.88-.133-1.559-.466-1.481-1.485a1.558,1.558,0,0,1,1.754-1.48c.792.01,1.662.348,1.6,1.351C787.121,554.342,786.32,554.8,785.31,554.876Z" transform="translate(-733.917 -495.995)"/><path class="u" d="M754.717,569.484q.007.985.015,1.971a1.831,1.831,0,0,1-2.727.4,1.224,1.224,0,0,1-.161-1.757A1.953,1.953,0,0,1,754.717,569.484Z" transform="translate(-727.268 -499.54)"/><path class="t" d="M793.548,548.685c-1.329-.048-2.475-.31-2.388-2.026l.432-.4c.159.865.846,1.078,1.555,1.266a3.574,3.574,0,0,0,4.691-1.244q.019-1.011.04-2.022c.984,2.863.457,4.053-1.954,4.41Z" transform="translate(-735.427 -494.419)"/><path class="r" d="M767.373,538.883q.116.579.23,1.158c-1.16.533-2.526.809-2.884,2.333l-.788-.354c-.018-.135-.036-.271-.054-.406a4.524,4.524,0,0,1,.874-2.726l0,.012Z" transform="translate(-729.805 -493.311)"/><path class="t" d="M743.295,574.54a2.322,2.322,0,0,1,.569,3.005c-.362.865-1.388.556-2.122.5-1.805-.128-2.2-1.154-1.126-2.731-.18.925-.029,1.622,1.123,1.628a1.109,1.109,0,0,0,1.663-.272c.4-.485.068-.8-.436-.962l-.091-.751.031-.408Q743.1,574.544,743.295,574.54Z" transform="translate(-724.892 -500.658)"/><path class="v" d="M732.979,552.575c-.017.017-.033.017-.049.033l-.18-1.016v-.017a.052.052,0,0,1,.033-.016.035.035,0,0,0,.033-.033.253.253,0,0,1,.066-.049,8.946,8.946,0,0,0,1.065-1.262C734.339,551.641,734.208,551.8,732.979,552.575Z" transform="translate(-723.393 -495.646)"/><path class="u" d="M798.5,543.752q-.02,1.011-.04,2.022c-1.4-.453-.071-2.3-1.425-2.781a2.481,2.481,0,0,0-2.852-.455c0-.106-.005-.214-.009-.32C796.642,541.371,797.684,541.741,798.5,543.752Z" transform="translate(-736.049 -493.91)"/><path class="r" d="M767.135,569.5c.517.157,1.092.316.812,1.039a1.285,1.285,0,0,1-1.4.865c-.841-.138-.518-.9-.569-1.445Z" transform="translate(-730.236 -499.62)"/><path class="u" d="M778.807,543.358c-.015.356-.1.789-.594.788a1.123,1.123,0,0,1-1.167-1.077c-.06-.494.325-.659.751-.678C778.423,542.364,778.777,542.659,778.807,543.358Z" transform="translate(-732.519 -494.034)"/><path class="u" d="M756.713,567.586a1.534,1.534,0,0,1,1.184.4l0,.787c-.786.545-1.573.172-2.359,0A1.02,1.02,0,0,1,756.713,567.586Z" transform="translate(-728.088 -499.225)"/><path class="r" d="M732.422,550.218l-.148-.705a.581.581,0,0,1,.115.2A.625.625,0,0,1,732.422,550.218Z" transform="translate(-723.295 -495.501)"/><path class="u" d="M834.629,552.375c-.021.471-.277.756-.726.735-.64-.029-.842-.531-.915-1.068a.5.5,0,0,1,.555-.617A1.188,1.188,0,0,1,834.629,552.375Z" transform="translate(-744.045 -495.895)"/><path class="u" d="M794.169,549.83l2.376-.015C795.759,550.916,794.967,550.91,794.169,549.83Z" transform="translate(-736.048 -495.563)"/><path class="t" d="M823.817,564.619c-.114-.013-.229-.021-.344-.025Z" transform="translate(-742.086 -498.609)"/><path class="t" d="M767.826,560.067l-.4-.4Z" transform="translate(-730.539 -497.594)"/><path class="s" d="M732.333,525.895c-1.344.36-2.835.656-4.114-.262a2.3,2.3,0,0,1-.41-.377,1.918,1.918,0,0,1-.376-1.983,3.36,3.36,0,0,1,.655-1.049l.017-.016a5.593,5.593,0,0,0,.229,1.508c.622,1.442,1.967,1.393,3.146,1.114,1.426-.328.77-1.36.41-2.147a1.791,1.791,0,0,1,.132-1.655,2.216,2.216,0,0,1,2.327,2.131A2.472,2.472,0,0,1,732.333,525.895Z" transform="translate(-722.272 -489.632)"/><path class="r" d="M732.224,521.021a1.79,1.79,0,0,0-.138,1.651c.368.788,1.022,1.814-.4,2.148-1.183.278-2.517.335-3.148-1.112a5.852,5.852,0,0,1-.233-1.508l-.013.014.4-.805C729.8,520.7,731.042,521.128,732.224,521.021Z" transform="translate(-722.474 -489.624)"/><path class="r" d="M814.475,531.717a14.08,14.08,0,0,0-2.539-.958c-.719-.147-1.705-.482-1.47-1.5.3-1.3,1.521-1.771,2.651-2.082,1.11-.306,1.271.587,1.35,1.419C813.631,529.642,814.709,530.678,814.475,531.717Z" transform="translate(-739.399 -490.887)"/><path class="q" d="M797.441,529.953c.963,0,1.206.591,1.128,1.416a2.134,2.134,0,0,1-1.779,2.028c-.919.2-1.857.163-2.106-1.077C795.941,531.924,796.5,530.717,797.441,529.953Z" transform="translate(-736.154 -491.471)"/><path class="q" d="M815.439,532.1c.233-1.039-.844-2.075-.009-3.116.185.053.426.049.545.168.51.509,1.77.366,1.6,1.368A2,2,0,0,1,815.439,532.1Z" transform="translate(-740.363 -491.272)"/><path class="r" d="M797.375,529.727c-.941.764-1.5,1.971-2.757,2.366-.674-1.278.106-2.252.908-2.959A1.139,1.139,0,0,1,797.375,529.727Z" transform="translate(-736.088 -491.245)"/><path class="v" d="M740.569,533.716c.346,0,.544.189.493.469a1.276,1.276,0,0,1-1.169,1.116.43.43,0,0,1-.5-.458C739.486,534.172,740.093,533.983,740.569,533.716Z" transform="translate(-724.76 -492.246)"/><path class="s" d="M728.684,521.519l-.4.805Z" transform="translate(-722.474 -489.733)"/><path class="r" d="M734.341,490.923c-1.206.007-2.09-.206-2.007-1.478a1.964,1.964,0,0,1,2.086-1.932c1.649.026.94,1.617,1.185,2.46C735.929,491.09,734.776,490.79,734.341,490.923Z" transform="translate(-723.306 -482.727)"/><path class="r" d="M814.637,486.929c3.223-.009,6.446-.032,9.669-.006.426,0,1.038-.353,1.277.379-2.961-.025-5.923-.04-8.884-.081A3.29,3.29,0,0,1,814.637,486.929Z" transform="translate(-740.266 -482.587)"/><path class="r" d="M759.951,559.691c.19-.041.383-.067.568-.125,3.682-1.149,4.674-.422,4.772,3.5a8.135,8.135,0,0,1-6.154-.1C758.864,561.737,759.705,560.787,759.951,559.691Z" transform="translate(-728.819 -497.471)"/><path class="t" d="M769.877,586.684c-1.208,1.271-1.843,3.019-3.853,3.095-1.347.05-2.437-.171-3.061-1.511-.264-.568-.484-1.188.036-1.617a3.732,3.732,0,0,1,3.553-1.088C767.65,585.894,768.559,586.783,769.877,586.684Z" transform="translate(-729.561 -502.902)"/><path class="r" d="M812.129,589.89c2.521-2.388,3.122-2.47,5.789-.792q.061.6.121,1.209c-.792.21-1.364.6-1.283,1.542C814.106,592.419,812.73,591.837,812.129,589.89Z" transform="translate(-739.749 -503.421)"/><path class="t" d="M817.838,590.6q-.061-.605-.121-1.209c1.079.01,1.221.715,1.21,1.581-.013.981.038,1.894-1.058,2.484-1.788.961-5.355.076-6.379-1.653-.439-.741-.6-1.317.437-1.619.6,1.948,1.978,2.529,4.628,1.959C817.632,592.173,818.512,592.036,817.838,590.6Z" transform="translate(-739.547 -503.719)"/><path class="t" d="M776.205,584.919c1.16-.079,2.1.048,2.011,1.6-.075,1.357-.641,2-2.055,1.962a2.034,2.034,0,0,1-2.213-2.171C773.912,584.746,775.2,584.965,776.205,584.919Z" transform="translate(-731.882 -502.793)"/><path class="t" d="M828.058,591.3l-.049.345a1.85,1.85,0,0,1-.213.524,1.215,1.215,0,0,1-.18.229,1.515,1.515,0,0,1-.344.3.989.989,0,0,1-.23.114,1.558,1.558,0,0,1-.262.083.5.5,0,0,1-.213.048,2.183,2.183,0,0,1-.573.017c-1.262-.114-2.082-.721-2.049-2.081a1.344,1.344,0,0,1,1.737-1.361C826.731,589.69,828.141,589.8,828.058,591.3Z" transform="translate(-742.183 -503.736)"/><path class="t" d="M801.018,584.72a1.372,1.372,0,0,1-1.408,1.4c-1-.013-2.051-.236-2.275-1.428-.184-.978.591-1.176,1.368-1.217C799.74,583.418,800.672,583.561,801.018,584.72Z" transform="translate(-736.695 -502.496)"/><path class="s" d="M769.408,574.62c.039-.64.51-1.058.805-1.566,1.32.025,1.348,1.14,1.827,2.067C770.981,575.4,770.314,574.319,769.408,574.62Z" transform="translate(-730.946 -500.352)"/><path class="r" d="M743.013,575.06l.09.751c-.568.254-1.169.475-1.227,1.235-1.152-.006-1.3-.7-1.123-1.628A3.685,3.685,0,0,1,743.013,575.06Z" transform="translate(-725.029 -500.757)"/><path class="s" d="M767.433,574.54l.784.386C767.685,575.344,767.537,574.987,767.433,574.54Z" transform="translate(-730.539 -500.658)"/><path class="s" d="M758.508,568.878l0-.787.512.394Z" transform="translate(-728.701 -499.329)"/><path class="s" d="M806.583,575.472l.79.41C806.8,576.333,806.673,575.944,806.583,575.472Z" transform="translate(-738.606 -500.85)"/><path class="s" d="M762.95,572.186l-.169-.224c.045-.029.122-.09.131-.083a2.143,2.143,0,0,1,.175.219Z" transform="translate(-729.581 -500.11)"/><path class="r" d="M819.364,562.843c-1.023.758-1.715,1.536-.172,2.476a.763.763,0,0,1,.264.284c.437.824,1.524,1.5,1.157,2.5-.441,1.2-1.666.629-2.59.685-.258.016-.513.075-.769.114l-3.083-.093-.8-.468.011.011c-.962-3.474-.515-4.687,1.912-6.161C816.933,561.2,818.121,561.934,819.364,562.843Z" transform="translate(-739.911 -498.017)"/><path class="r" d="M815.133,574.544c3.135-.688,2.4,2.121,3.2,3.542-.977.776-2.124.51-3.175.376-1.449-.183-1.925-1.541-1.06-2.761A13.379,13.379,0,0,1,815.133,574.544Z" transform="translate(-740.066 -500.637)"/><path class="w" d="M764.94,542.674c.357-1.524,1.724-1.8,2.884-2.333C768.337,542.689,767.7,543.207,764.94,542.674Z" transform="translate(-730.026 -493.611)"/><path class="r" d="M792.529,543.179l1.138-.514a2.479,2.479,0,0,1,2.851.454c-.574,1.759-2.6,2.339-3.266,4.025-.709-.188-1.4-.4-1.555-1.266C791.529,544.841,792.206,544.064,792.529,543.179Z" transform="translate(-735.534 -494.036)"/><path class="q" d="M793.664,547.329c.663-1.686,2.692-2.266,3.266-4.025,1.355.476.027,2.328,1.426,2.781A3.574,3.574,0,0,1,793.664,547.329Z" transform="translate(-735.944 -494.222)"/><g transform="translate(7.258 31.809)"><path class="v" d="M815.8,537.893c-4.458.574-9.063.214-13.423,1.655a6.347,6.347,0,0,1-1.934.164c-2.885.017-5.786-.147-8.653.033-3.8.245-7.293-.984-10.882-1.8a26.354,26.354,0,0,0-5.441-.557c-4.851-.065-9.7-.016-14.552-.016v-.006l-3.149,0v0c-9.227-.017-18.454-.164-27.664.426l1.72,9.195V547a.578.578,0,0,1,.115.2.625.625,0,0,1,.033.508v.017l.229,1.2v.017a3.325,3.325,0,0,0,.065-.066.255.255,0,0,1,.066-.049,8.947,8.947,0,0,0,1.065-1.262c.393,1.426.262,1.59-.967,2.36-.017.017-.033.017-.049.033l1.737,9.243.721,3.884.574,3.015,3.425,18.225.557.344a65.523,65.523,0,0,0,16.012,7.375,61.553,61.553,0,0,0,37.727-.491,66.5,66.5,0,0,0,14.963-7.227l.573-3.425a1.854,1.854,0,0,1-.213.524,1.222,1.222,0,0,1-.18.229,1.516,1.516,0,0,1-.344.3.99.99,0,0,1-.23.114,1.569,1.569,0,0,1-.262.083.507.507,0,0,1-.213.048,2.185,2.185,0,0,1-.573.017c-1.262-.114-2.082-.721-2.049-2.081a1.344,1.344,0,0,1,1.737-1.361c1.049.18,2.459.3,2.376,1.786l1.574-9.342,1.54-9.227.705-4.179,3.343-19.928A.152.152,0,0,1,815.8,537.893Zm-6.863,30.231.012.007a14.37,14.37,0,0,1-3.112-.029A14.313,14.313,0,0,0,808.941,568.123Zm-52.58-3.14c-.049.033-.1.049-.148.082-.049-.065-.114-.147-.164-.213.049-.033.1-.082.131-.082A2.387,2.387,0,0,1,756.362,564.983Zm-.082,11.751a3.773,3.773,0,0,1,3.556-1.082c1.1.328,2.016,1.23,3.328,1.115-1.213,1.278-1.836,3.032-3.852,3.1-1.344.049-2.442-.164-3.065-1.508C755.985,577.783,755.772,577.177,756.28,576.735Zm10.849,1.95a2.047,2.047,0,0,1-2.212-2.179c-.033-1.557,1.245-1.344,2.261-1.393,1.147-.065,2.1.049,2,1.606C769.112,578.078,768.538,578.717,767.129,578.685Zm18.634-2.065c-1-.017-2.048-.245-2.278-1.426-.18-.983.59-1.18,1.377-1.229,1.032-.049,1.967.1,2.31,1.246A1.377,1.377,0,0,1,785.763,576.619Zm-10.754-1.243c.034-.017.068-.036.1-.052.144-.052.3-.1.461-.144A3.16,3.16,0,0,0,775.009,575.377Zm.626-.217c.017,0,.033-.011.049-.015a3.517,3.517,0,0,1,.368-.031A3.033,3.033,0,0,0,775.635,575.16Zm-1.234.582c.056-.046.108-.1.168-.139.11-.06.221-.114.332-.171A3.236,3.236,0,0,0,774.4,575.742Zm-.653.691c.025-.034.04-.075.068-.108.006-.008.014-.015.019-.022C773.8,576.343,773.779,576.391,773.748,576.433Zm.2-.26c.054-.064.1-.129.165-.193s.156-.126.233-.191A3.249,3.249,0,0,0,773.945,576.173Zm-.806,2.229a1.645,1.645,0,0,1-.012-.176,2.729,2.729,0,0,1,.082-.639c.006-.022.015-.042.021-.064a3.172,3.172,0,0,0-.093.706C773.14,578.285,773.139,578.343,773.139,578.4Zm.037.414a.746.746,0,0,1-.01-.1.7.7,0,0,0,.013.1c.068.214.107.453.158.685C773.287,579.267,773.246,579.029,773.177,578.816Zm.1-1.427a3.807,3.807,0,0,1,.133-.409c.016-.033.04-.06.057-.092A3.194,3.194,0,0,0,773.274,577.389Zm2.2,1.874a2.078,2.078,0,0,1-.075.735A2.157,2.157,0,0,0,775.471,579.263Zm1.618-1.845c.576-.036,1.015-.345.983-.992a1.219,1.219,0,0,0-.911-1.208,1.205,1.205,0,0,1,.915,1.205c.033.656-.41.951-.984,1-.04,0-.076.006-.116.009C777.017,577.428,777.049,577.42,777.089,577.417Zm-.725-2.329c.031,0,.062.01.093.011C776.426,575.1,776.395,575.088,776.364,575.088Zm.841,8.317a.73.73,0,0,1,.355-.284A.752.752,0,0,0,777.205,583.4Zm1-.453a1.28,1.28,0,0,0,1.169-1.107A1.26,1.26,0,0,1,778.208,582.951Zm-1.051.6a.934.934,0,0,0-.063.194A.987.987,0,0,1,777.157,583.553Zm-.063.226a1.692,1.692,0,0,0,0,.385.946.946,0,0,0,.073.231.947.947,0,0,1-.078-.237A1.728,1.728,0,0,1,777.093,583.779Zm4.666-1.96c-.071-.364.02-.834-.069-1.223.091.39,0,.861.075,1.219a2.964,2.964,0,0,1-1.79,3.017A2.968,2.968,0,0,0,781.759,581.819Zm3.545-38.977c.983,2.852.459,4.048-1.967,4.409-.77,1.1-1.573,1.081-2.376.017-1.327-.049-2.475-.312-2.376-2.033l0,0,.43-.4c-.168-1.037.508-1.813.831-2.7l1.138-.515c0-.107-.005-.213-.009-.319h0C783.436,540.449,784.485,540.826,785.3,542.842Zm-5.507-.753a.9.9,0,0,1,.927-.768.9.9,0,0,0-.924.769c-1.646.671-2.167,1.527-1.593,2.591C777.629,543.617,778.156,542.762,779.8,542.089Zm-1.554,2.67-.006-.008ZM781.5,556.3c1.016-1,1.016-1,.656-3.393,1.147.41,1.18,1.3,1.18,2.2-.017.885.18,1.524,1.262,1.557,1.032.017,1.786.492,1.8,1.64,0,.688-.3,1.376-1.081,1.409-.984.065-2.442.573-2.8-.656-.541-1.885-1.786-1.295-2.884-1.163-1.491.164-2.95.606-4.36-.361-1.311-.9-1.36-2.147-.049-3.261.836-.361,1.311-1.262,2.262-1.508C779.962,552.135,780.584,552.659,781.5,556.3Zm-6.982-7.391c.787.016,1.655.344,1.59,1.36-.049,1.081-.853,1.524-1.868,1.606-.885-.131-1.557-.459-1.475-1.492A1.564,1.564,0,0,1,774.52,548.906Zm-2.212,6.179a1.762,1.762,0,0,1-1.737,1.8,1.789,1.789,0,0,1-2.016-1.491,1.925,1.925,0,0,1,1.737-2.016A1.952,1.952,0,0,1,772.308,555.085Zm-4.179-13.734c.622-.033.983.262,1.016.967-.016.36-.114.786-.607.786a1.128,1.128,0,0,1-1.163-1.081C767.309,541.531,767.7,541.367,768.129,541.351Zm-6.015,24.337c1.327.033,1.344,1.147,1.836,2.082-1.065.278-1.737-.8-2.638-.508h-.786c-.525.426-.673.065-.788-.394-2.146-.688-2.688-1.917-1.573-3.539h.426c.394-.148.771-.3,1.164-.459,1.2-.885,1.59.475,2.344.852A3.994,3.994,0,0,1,762.114,565.688ZM757.8,538.582l2.618-.017.5-.006,0-.831v.838a3.348,3.348,0,0,1,.377,4.179c-.622.738-3.327.918-4.228.279-.59-.393-.869-.819-.1-1.328l-.049-.393a2.043,2.043,0,0,1-.619-.136,1.987,1.987,0,0,0,.621.129,4.527,4.527,0,0,1,.873-2.725l0,0Zm-3.959,16.487.024.024-.024-.024Zm6.053.154-.152-.152a3.809,3.809,0,0,0-4.51-1.038,3.794,3.794,0,0,1,4.509,1.036Zm-2.1-16.657.005,0a1.768,1.768,0,0,0-1.661,1.161A1.765,1.765,0,0,1,757.787,538.565Zm-10.194,26.746a1.228,1.228,0,0,1-.164-1.77,1.955,1.955,0,0,1,2.869-.607c0,.656.016,1.311.016,1.967A1.819,1.819,0,0,1,747.594,565.311Zm-5.769,4.572c-.36.869-1.393.557-2.131.508-1.8-.131-2.2-1.163-1.114-2.737a3.668,3.668,0,0,1,2.245-.36,3.575,3.575,0,0,0,.033-.41,3.1,3.1,0,0,0,.393-.017A2.338,2.338,0,0,1,741.825,569.884Zm10.833-7.342c-.787.541-1.573.164-2.36,0a1.018,1.018,0,0,1,1.18-1.18,1.507,1.507,0,0,1,1.18.393c.164.131.345.262.508.393C753,562.279,752.821,562.411,752.658,562.542Zm.508-4.048c-.279-1.229.574-2.179.819-3.277l0,0c.189-.041.382-.068.566-.125,3.682-1.149,4.674-.422,4.772,3.5,1.782-.653,1.048-1.956.809-3.13l0,0c1.671,1.54,1.409,3.605-.607,4.425-1.589.656-3.212,1.1-4.9.295C754.264,559.51,752.15,560.346,753.166,558.493Zm48,24.24c-1.786.967-5.359.082-6.375-1.655-.443-.738-.607-1.311.442-1.623,2.507-2.376,3.114-2.458,5.786-.787,1.081.017,1.212.722,1.212,1.59C802.218,581.225,802.266,582.143,801.168,582.733ZM798.6,572.326c-1.377-.3-2.819-.95-2.835-2.311-.017-1.95-1.164-1.852-2.377-1.95-.589-.049-1.18-.033-1.77-.033-.573.442-.705.049-.787-.41l-.377-.377c-.245-1.065-.965-2.194.341-3.095.021.134.044.27.064.4a.965.965,0,0,0,.759-.817c.262-.148.524-.295.769-.426,1.636-1.114,2.1-3.091,3.115-4.684-1.015,1.6-1.473,3.57-3.111,4.684l3.928.022c.788,1.536-.936,2.326-1.074,3.588,2.245-.076,1.794-1.76,1.867-3.131l-.788-.462c-.96-3.47-.512-4.683,1.913-6.156,1.635-.992,2.824-.262,4.066.647l1.1.007c-.558-1.284-2.434-1.806-4.218-1.562,1.783-.247,3.655.273,4.216,1.557.279.393.557.77.836,1.163.114,0,.229.017.344.017,1.081.705,1.656,3.228,1,5.179-.426,1.295-1.574,1.623-2.851,1.491-.9-.1-1.8-.295-2.705-.344-.687-.049-1.474-.2-1.77.754a8.951,8.951,0,0,1,1.034-.011,8.894,8.894,0,0,0-1.04.013q-.164.408-.33.817c3.135-.688,2.4,2.121,3.2,3.542.972-.359,1.066-1.186,1.093-2.049a3.906,3.906,0,0,0-.652-1.349,3.934,3.934,0,0,1,.658,1.348c.245.033.508.049.77.082a1.9,1.9,0,0,1,1.915-1.411,1.9,1.9,0,0,0-1.911,1.408q0,.375,0,.752l-.006.006v1.147C801.824,571.719,800.529,572.72,798.6,572.326Zm.29-16.027.011,0Zm6.209,10.76c-.05,0-.1,0-.15,0C804.994,567.057,805.045,567.06,805.095,567.059Zm7.612-16.859c-.638-.016-.835-.524-.918-1.065a.494.494,0,0,1,.557-.607,1.182,1.182,0,0,1,1.081.95C813.411,549.939,813.149,550.234,812.706,550.2Z" transform="translate(-730.107 -524.802)"/><path class="v" d="M756.521,527.414a3.727,3.727,0,0,0,2.735-3.578c-.114-1.289-1.5-1.348-1.912-2.287l-5.034.006c-.981.962-1.627,1.967-.855,3.411A4.549,4.549,0,0,0,756.521,527.414Z" transform="translate(-734.435 -521.548)"/><path class="v" d="M743.411,576.015c-.568.254-1.169.475-1.227,1.235a1.109,1.109,0,0,0,1.663-.272C744.248,576.492,743.916,576.176,743.411,576.015Z" transform="translate(-732.595 -532.771)"/><path class="v" d="M817.955,592.46c1.077.027,1.958-.11,1.283-1.542C818.446,591.128,817.875,591.522,817.955,592.46Z" transform="translate(-748.206 -535.841)"/></g><path class="x" d="M720.965,487.913c.033.694,15.993,86.225,15.993,86.225s16.824,14.1,45.294,9.51a80.77,80.77,0,0,0,23.966-9.51L820.3,488.155" transform="translate(-720.965 -482.809)"/></g><g transform="translate(706.198 265.198)"><g transform="translate(29.82 0)"><path class="g" d="M773.874,302.033s19.7-4.667,18.071,18.5C791.946,320.533,771.752,324.87,773.874,302.033Z" transform="translate(-773.718 -301.648)"/><path class="h" d="M791.964,320.633l-18.071-18.5s-2.386,22.226,18.071,18.5Z" transform="translate(-773.737 -301.748)"/></g><g transform="translate(16.281 23.186)"><path class="g" d="M756.665,335.442s20.029-15.9,30.588,11.471C787.253,346.913,766.481,362.7,756.665,335.442Z" transform="translate(-756.665 -330.851)"/><path class="h" d="M787.253,348.105l-30.588-11.471s9.187,26.7,30.588,11.471Z" transform="translate(-756.665 -332.042)"/></g><g transform="translate(9.759 57.479)"><path class="g" d="M748.451,384.148s17.357-24.536,38.289,2.863C786.74,387.011,768.508,411.666,748.451,384.148Z" transform="translate(-748.451 -374.044)"/><path class="h" d="M786.74,389.633l-38.289-2.863s19.163,27.1,38.289,2.863Z" transform="translate(-748.451 -376.666)"/></g><path class="g" d="M795.135,325.434,789.2,461.36h10.066Z" transform="translate(-747.087 -306.549)"/><g transform="translate(44.513 39.891)"><g transform="translate(3.788 12.583)"><path class="g" d="M828.172,374.867s-9.455,22.79-31.177,4.641C796.995,379.509,807.129,356.465,828.172,374.867Z" transform="translate(-796.995 -367.74)"/><path class="h" d="M796.995,379.572l31.177-4.641s-20.251-18.226-31.177,4.641Z" transform="translate(-796.995 -367.803)"/></g><path class="g" d="M803.968,351.891s11.89,14.58-8.142,22.613C795.826,374.5,784.012,359.376,803.968,351.891Z" transform="translate(-792.251 -351.891)"/><path class="h" d="M795.8,374.5l8.142-22.613s-19.553,7.017-8.142,22.613Z" transform="translate(-792.224 -351.891)"/></g><path class="g" d="M778.267,496.421s-5.439,14.143-16.046,19.038-8.431,7.615-8.431,7.615a4.97,4.97,0,0,1,4.623-3.263c3.536,0,14.142-8.976,16.046-11.151s3.264,1.9,0,6.256-17.677,19.854-26.108,19.037-13.327-.753-11.966.031,8.7,4.592,13.87,2.417,8.431-1.393,5.439.663-6.255,3.689-6.255,6.68,3.808-4.352,6.8-4.9,6.5-3.264,8.825-7.071,4.773-5.439,6.677-1.36-2.176,21.485-4.9,24.477-6.8,7.071-4.352,7.343S772.556,550,773.372,545.92s.819-13.327,1.77-15.774,4.944-7.615,5.531-4.895,1.131,27.469-.773,32.092-7.071,14.958-7.343,17.678,0,6.8,1.9,3.263,8.706-17.677,8.841-21.485-.5-11.695.907-15.5,2.491-5.168,3.307-1.632,1.359,5.983,2.175,3.807,1.632-5.167,0-7.071-1.967-.272-3.159-3.808-2.28-4.351-.92-6.527,9.79,5.712,11.15,10.335,11.7,12.239,10.607,8.7-5.936-4.607-7.319-7.063-6.28-8.439-6.823-10.887,1.088-3.807,3.264-.544,5.487,2.448,3.559,0-.675-4.9-4.157-5.439-3.754.272-5.114,1.088-2.448-3.263-1.632-4.623,7.391-3.263,10.9-.815,6.935,8.975,7.4,5.711.464-6.8-2.8-8.159-7.295-2.72-4.6-3.536,5.416-.544,6.5-1.088,1.632-.815-1.36-2.175-6.8-1.632-8.7-.544-4.624,3.807-5.983,3.536-2.2-14.966-2.2-14.966Z" transform="translate(-736.159 -341.61)"/></g><rect class="y" width="294.814" height="405.411" transform="translate(591.83 134.159)"/></g></svg>