<svg xmlns="http://www.w3.org/2000/svg" width="204.221" height="113.533" viewBox="0 0 204.221 113.533"><defs><style>.a,.b,.c{fill:none;stroke:#4d4d4d;stroke-miterlimit:10;}.a{stroke-width:1.329px;}.b{stroke-width:1.192px;}.c{stroke-width:1.107px;}.d{fill:#0039dd;}.e{fill:#b32229;}.f{opacity:0.75;}.g{fill:#fff;}</style></defs><g transform="translate(0.593 0.206)"><g transform="translate(0 0)"><g transform="translate(57.099 50.414)"><line class="a" x1="5.976" y1="0.12"/></g><g transform="translate(87.459 53.654)"><line class="a" x1="4.088" y1="4.361"/></g><g transform="translate(35.14 31.985)"><line class="a" x1="3.109" y1="5.106"/></g><g transform="translate(26.932 31.773)"><line class="a" x1="3.977" y1="4.463"/></g><g transform="translate(83.14 44.55)"><line class="a" x1="4.053" y1="4.394"/></g><g transform="translate(52.936 28.803)"><line class="a" x1="1.597" y1="5.76"/></g><g transform="translate(42.115 31.787)"><line class="a" x1="3.461" y1="4.874"/></g><g transform="translate(68.889 39.363)"><line class="a" x1="2.932" y1="5.209"/></g><g transform="translate(60.678 36.64)"><line class="a" x1="1.902" y1="5.667"/></g><g transform="translate(72.295 46.349)"><line class="a" x1="5.834" y1="1.304"/></g><g transform="translate(49.146 44.976)"><line class="a" x1="5.886" y1="1.04"/></g><g transform="translate(61.71 55.677)"><line class="a" x1="5.224" y1="2.905"/></g><g transform="translate(14.462 42.713)"><line class="a" x1="5.061" y1="3.181"/></g><g transform="translate(54.569 60.293)"><line class="a" x1="4.746" y1="3.634"/></g><g transform="translate(4.242 55.195)"><line class="a" x1="5.976" y2="0.149"/></g><g transform="translate(45.607 60.789)"><line class="a" x1="5.782" y1="1.515"/></g><g transform="translate(50.437 66.958)"><line class="a" y1="5.475" x2="2.4"/></g><g transform="translate(8.291 68.119)"><line class="a" y1="4.293" x2="4.16"/></g><g transform="translate(8.933 77.618)"><line class="a" y1="4.309" x2="4.143"/></g><g transform="translate(34.683 67.267)"><line class="a" y1="4.554" x2="3.872"/></g><g transform="translate(0 74.631)"><line class="a" y1="5.333" x2="2.701"/></g><g transform="translate(40.852 53.134)"><line class="a" x1="5.973" y2="0.238"/></g><g transform="translate(18.719 56)"><line class="a" x1="4.375" y1="4.073"/></g><g transform="translate(30.788 70.46)"><line class="a" y1="4.902" x2="3.421"/></g><g transform="translate(22.263 79.379)"><line class="a" y1="5.163" x2="3.012"/></g><g transform="translate(33.95 49.053)"><line class="a" x1="5.975" y2="0.184"/></g><g transform="translate(17.286 53.354)"><line class="a" x1="5.974" y1="0.194"/></g><g transform="translate(12.784 54.537)"><line class="a" x1="3.717" y1="4.681"/></g><g transform="translate(18.945 66.079)"><line class="a" y1="4.348" x2="4.102"/></g><g transform="translate(20.72 84.028)"><line class="a" y1="5.104" x2="3.112"/></g><g transform="translate(25.947 95.359)"><line class="a" x1="1.115" y1="5.873"/></g><g transform="translate(19.978 75.178)"><line class="a" y1="4.231" x2="4.223"/></g><g transform="translate(38.759 57.015)"><line class="a" x1="5.667" y1="1.901"/></g><g transform="translate(10.967 87.29)"><line class="a" y1="5.768" x2="1.568"/></g><g transform="translate(42.46 80.543)"><line class="a" y1="3.651" x2="4.733"/></g><g transform="translate(33.304 92.938)"><line class="a" y1="5.837" x2="1.288"/></g><g transform="translate(38.873 85.922)"><line class="a" y1="3.996" x2="4.446"/></g><g transform="translate(62.73 49.44)"><line class="a" x1="5.911" y1="0.891"/></g><g transform="translate(32.828 33.664)"><line class="a" x1="4.215" y1="4.239"/></g><g transform="translate(26.712 21.447)"><line class="a" x1="1.848" y1="5.685"/></g><g transform="translate(40.792 26.54)"><line class="a" x1="1.683" y1="5.736"/></g><g transform="translate(14.203 14.884)"><line class="a" x1="0.257" y1="5.972"/></g><g transform="translate(52.555 37.901)"><line class="a" x1="3.962" y1="4.476"/></g><g transform="translate(56.58 43.605)"><line class="a" x1="5.376" y1="2.613"/></g><g transform="translate(42.712 47.597)"><line class="a" x1="5.975" y2="0.184"/></g><g transform="translate(34.205 62.388)"><line class="a" x1="2.509" y1="5.426"/></g><g transform="translate(29.403 64.46)"><line class="a" x1="0.617" y1="5.946"/></g><g transform="translate(25.553 68.201)"><line class="a" x1="0.658" y1="5.941"/></g><g transform="translate(28.987 58.999)"><line class="a" x1="2.263" y1="5.533"/></g><g transform="translate(24.893 60.2)"><line class="a" x1="1.813" y1="5.696"/></g><g transform="translate(28.533 46.163)"><line class="a" x1="5.427" y1="2.505"/></g><g transform="translate(29.727 73.565)"><line class="a" x1="2.043" y1="5.618"/></g><g transform="translate(31.639 54.776)"><line class="a" x1="4.552" y1="3.874"/></g><g transform="translate(39.368 72.419)"><line class="a" x1="3.066" y1="5.131"/></g><g transform="translate(35.38 58.22)"><line class="a" x1="5.044" y1="3.208"/></g><g transform="translate(78.857 55.686)"><line class="a" x1="5.902" y1="0.945"/></g><g transform="translate(41.381 65.441)"><line class="a" x1="4.624" y1="3.788"/></g><g transform="translate(73.386 61.155)"><line class="a" x1="5.915" y1="0.863"/></g><g transform="translate(34.157 77.977)"><line class="a" x1="2.362" y1="5.491"/></g><g transform="translate(66.796 67.472)"><line class="a" x1="5.185" y1="2.974"/></g><g transform="translate(26.422 84.328)"><line class="a" y1="5.977" x2="0.1"/></g><g transform="translate(33.719 84.787)"><line class="a" y1="4.761" x2="3.615"/></g><g transform="translate(9.927 104.375)"><line class="a" y1="5.104" x2="3.112"/></g><g transform="translate(11.125 98.071)"><line class="a" y1="5.465" x2="2.421"/></g><g transform="translate(12.932 60.372)"><line class="a" x1="1.464" y1="5.795"/></g><g transform="translate(17.718 103.168)"><line class="a" y1="5.807" x2="1.42"/></g><g transform="translate(20.26 107.317)"><line class="a" x1="0.872" y1="5.914"/></g><g transform="translate(22.553 105.26)"><line class="a" x1="0.588" y1="5.949"/></g><g transform="translate(22.634 46.864)"><line class="a" x1="3.733" y1="4.669"/></g><g transform="translate(34.029 38.497)"><line class="a" x1="5.786" y1="1.5"/></g><g transform="translate(36.056 41.474)"><line class="a" x1="5.613" y1="2.056"/></g><g transform="translate(34.489 13.861)"><line class="a" x1="4.378" y1="4.07"/></g><g transform="translate(46.191 19.717)"><line class="a" x1="5.443" y1="2.47"/></g><g transform="translate(40.369 18.714)"><line class="a" x1="4.637" y1="3.772"/></g><g transform="translate(24.121 8.686)"><line class="a" x1="1.848" y1="5.685"/></g><g transform="translate(18.421 2.245)"><line class="a" x1="1.848" y1="5.685"/></g><g transform="translate(24.246)"><line class="a" x1="1.848" y1="5.685"/></g><g transform="translate(40.307 37.065)"><line class="a" x1="5.838" y1="1.282"/></g><g transform="translate(71.893 53.308)"><line class="a" x1="5.976" y1="0.137"/></g><g transform="translate(13.81 13.754)"><g transform="translate(43.131 43.312)"><line class="b" x1="5.361" y1="0.108"/></g><g transform="translate(71.17 45.381)"><line class="b" x1="3.667" y1="3.912"/></g><g transform="translate(26.225 29.431)"><line class="b" x1="2.789" y1="4.58"/></g><g transform="translate(20.124 29.172)"><line class="b" x1="3.567" y1="4.003"/></g><g transform="translate(67.235 37.624)"><line class="b" x1="3.635" y1="3.941"/></g><g transform="translate(40.727 26.294)"><line class="b" x1="1.432" y1="5.167"/></g><g transform="translate(31.805 29.16)"><line class="b" x1="3.105" y1="4.372"/></g><g transform="translate(53.666 33.874)"><line class="b" x1="2.63" y1="4.673"/></g><g transform="translate(46.014 32.892)"><line class="b" x1="1.706" y1="5.083"/></g><g transform="translate(57.253 39.302)"><line class="b" x1="5.233" y1="1.169"/></g><g transform="translate(36.585 39.387)"><line class="b" x1="5.28" y1="0.933"/></g><g transform="translate(46.954 47.39)"><line class="b" x1="4.686" y1="2.606"/></g><g transform="translate(11.19 39.168)"><line class="b" x1="4.54" y1="2.853"/></g><g transform="translate(40.319 51.264)"><line class="b" x1="4.257" y1="3.26"/></g><g transform="translate(3.732 48.912)"><line class="b" x1="5.36" y2="0.134"/></g><g transform="translate(31.808 52.817)"><line class="b" x1="5.187" y1="1.359"/></g><g transform="translate(35.741 55.956)"><line class="b" y1="4.911" x2="2.152"/></g><g transform="translate(7.782 58.255)"><line class="b" y1="3.851" x2="3.731"/></g><g transform="translate(7.087 65.323)"><line class="b" y1="3.865" x2="3.717"/></g><g transform="translate(24.096 56.503)"><line class="b" y1="4.085" x2="3.474"/></g><g transform="translate(0 63.151)"><line class="b" y1="4.783" x2="2.423"/></g><g transform="translate(28.907 47.505)"><line class="b" x1="5.358" y2="0.214"/></g><g transform="translate(15.534 50.143)"><line class="b" x1="3.925" y1="3.654"/></g><g transform="translate(22.177 57.114)"><line class="b" y1="4.397" x2="3.068"/></g><g transform="translate(15.508 64.164)"><line class="b" y1="4.631" x2="2.702"/></g><g transform="translate(24.497 44.546)"><line class="b" x1="5.359" y2="0.165"/></g><g transform="translate(14.541 49.42)"><line class="b" x1="5.359" y1="0.174"/></g><g transform="translate(11.574 48.925)"><line class="b" x1="3.334" y1="4.199"/></g><g transform="translate(16.661 55.929)"><line class="b" y1="3.9" x2="3.679"/></g><g transform="translate(14.554 68.203)"><line class="b" y1="4.578" x2="2.791"/></g><g transform="translate(18.715 78.591)"><line class="b" x1="1" y1="5.268"/></g><g transform="translate(15.956 60.991)"><line class="b" y1="3.795" x2="3.788"/></g><g transform="translate(25.925 50.78)"><line class="b" x1="5.083" y1="1.706"/></g><g transform="translate(7.615 71.907)"><line class="b" y1="5.174" x2="1.406"/></g><g transform="translate(29.206 64.805)"><line class="b" y1="3.275" x2="4.246"/></g><g transform="translate(24.673 76.289)"><line class="b" y1="5.236" x2="1.155"/></g><g transform="translate(28.468 69.741)"><line class="b" y1="3.584" x2="3.988"/></g><g transform="translate(47.984 42.499)"><line class="b" x1="5.302" y1="0.799"/></g><g transform="translate(25.104 31.373)"><line class="b" x1="3.781" y1="3.802"/></g><g transform="translate(19.471 19.36)"><line class="b" x1="1.658" y1="5.099"/></g><g transform="translate(31.195 24.505)"><line class="b" x1="1.51" y1="5.145"/></g><g transform="translate(9.549 12.957)"><line class="b" x1="0.231" y1="5.357"/></g><g transform="translate(39.424 34.16)"><line class="b" x1="3.554" y1="4.015"/></g><g transform="translate(42.003 38.304)"><line class="b" x1="4.823" y1="2.344"/></g><g transform="translate(31.479 42.572)"><line class="b" x1="5.359" y2="0.165"/></g><g transform="translate(24.268 54.485)"><line class="b" x1="2.25" y1="4.867"/></g><g transform="translate(21.855 54.861)"><line class="b" x1="0.554" y1="5.333"/></g><g transform="translate(20.051 55.508)"><line class="b" x1="0.59" y1="5.329"/></g><g transform="translate(21.287 52.553)"><line class="b" x1="2.03" y1="4.963"/></g><g transform="translate(20.01 53.222)"><line class="b" x1="1.626" y1="5.11"/></g><g transform="translate(20.836 42.687)"><line class="b" x1="4.868" y1="2.247"/></g><g transform="translate(22.27 58.092)"><line class="b" x1="1.833" y1="5.039"/></g><g transform="translate(22.813 49.867)"><line class="b" x1="4.083" y1="3.475"/></g><g transform="translate(26.404 58.479)"><line class="b" x1="2.751" y1="4.603"/></g><g transform="translate(24.403 51.693)"><line class="b" x1="4.525" y1="2.877"/></g><g transform="translate(63.248 47.179)"><line class="b" x1="5.295" y1="0.847"/></g><g transform="translate(27.832 55.761)"><line class="b" x1="4.148" y1="3.398"/></g><g transform="translate(58.066 51.809)"><line class="b" x1="5.306" y1="0.774"/></g><g transform="translate(24.528 62.116)"><line class="b" x1="2.118" y1="4.926"/></g><g transform="translate(51.685 56.832)"><line class="b" x1="4.651" y1="2.668"/></g><g transform="translate(18.734 68.263)"><line class="b" y1="5.361" x2="0.09"/></g><g transform="translate(24.261 68.311)"><line class="b" y1="4.27" x2="3.243"/></g><g transform="translate(5.618 87.173)"><line class="b" y1="4.578" x2="2.791"/></g><g transform="translate(6.823 81.138)"><line class="b" y1="4.902" x2="2.172"/></g><g transform="translate(12.717 52.667)"><line class="b" x1="1.314" y1="5.199"/></g><g transform="translate(12.168 86.045)"><line class="b" y1="5.209" x2="1.273"/></g><g transform="translate(14.24 90.036)"><line class="b" x1="0.782" y1="5.305"/></g><g transform="translate(16.165 88.017)"><line class="b" x1="0.527" y1="5.336"/></g><g transform="translate(17.021 43.958)"><line class="b" x1="3.348" y1="4.188"/></g><g transform="translate(25.389 35.609)"><line class="b" x1="5.19" y1="1.345"/></g><g transform="translate(26.343 38.141)"><line class="b" x1="5.035" y1="1.844"/></g><g transform="translate(26.123 12.243)"><line class="b" x1="3.927" y1="3.651"/></g><g transform="translate(35.876 17.634)"><line class="b" x1="4.883" y1="2.216"/></g><g transform="translate(30.626 17.565)"><line class="b" x1="4.16" y1="3.383"/></g><g transform="translate(17.134 7.671)"><line class="b" x1="1.658" y1="5.099"/></g><g transform="translate(12.632 2.125)"><line class="b" x1="1.658" y1="5.099"/></g><g transform="translate(17.318)"><line class="b" x1="1.658" y1="5.099"/></g><g transform="translate(30.158 33.66)"><line class="b" x1="5.237" y1="1.15"/></g><g transform="translate(56.565 45.352)"><line class="b" x1="5.361" y1="0.123"/></g></g><g transform="translate(111.488)"><g transform="translate(28.472 50.414)"><line class="a" y1="0.12" x2="5.976"/></g><g transform="translate(0 53.654)"><line class="a" y1="4.361" x2="4.088"/></g><g transform="translate(53.298 31.985)"><line class="a" y1="5.106" x2="3.109"/></g><g transform="translate(60.638 31.773)"><line class="a" y1="4.463" x2="3.977"/></g><g transform="translate(4.354 44.55)"><line class="a" y1="4.394" x2="4.053"/></g><g transform="translate(37.014 28.803)"><line class="a" y1="5.76" x2="1.597"/></g><g transform="translate(45.972 31.787)"><line class="a" y1="4.874" x2="3.461"/></g><g transform="translate(19.727 39.363)"><line class="a" y1="5.209" x2="2.932"/></g><g transform="translate(28.968 36.64)"><line class="a" y1="5.667" x2="1.902"/></g><g transform="translate(13.419 46.349)"><line class="a" y1="1.304" x2="5.834"/></g><g transform="translate(36.515 44.976)"><line class="a" y1="1.04" x2="5.886"/></g><g transform="translate(24.613 55.677)"><line class="a" y1="2.905" x2="5.224"/></g><g transform="translate(72.025 42.713)"><line class="a" y1="3.181" x2="5.061"/></g><g transform="translate(32.232 60.293)"><line class="a" y1="3.634" x2="4.746"/></g><g transform="translate(81.329 55.195)"><line class="a" x2="5.976" y2="0.149"/></g><g transform="translate(40.158 60.789)"><line class="a" y1="1.515" x2="5.782"/></g><g transform="translate(38.711 66.958)"><line class="a" x1="2.4" y1="5.475"/></g><g transform="translate(79.096 68.119)"><line class="a" x1="4.16" y1="4.293"/></g><g transform="translate(78.472 77.618)"><line class="a" x1="4.143" y1="4.309"/></g><g transform="translate(52.992 67.267)"><line class="a" x1="3.872" y1="4.554"/></g><g transform="translate(88.847 74.631)"><line class="a" x1="2.701" y1="5.333"/></g><g transform="translate(44.722 53.134)"><line class="a" x2="5.973" y2="0.238"/></g><g transform="translate(68.453 56)"><line class="a" y1="4.073" x2="4.375"/></g><g transform="translate(57.339 70.46)"><line class="a" x1="3.421" y1="4.902"/></g><g transform="translate(66.272 79.379)"><line class="a" x1="3.012" y1="5.163"/></g><g transform="translate(51.623 49.053)"><line class="a" x2="5.975" y2="0.184"/></g><g transform="translate(68.287 53.354)"><line class="a" y1="0.194" x2="5.974"/></g><g transform="translate(75.047 54.537)"><line class="a" y1="4.681" x2="3.717"/></g><g transform="translate(68.5 66.079)"><line class="a" x1="4.102" y1="4.348"/></g><g transform="translate(67.715 84.028)"><line class="a" x1="3.112" y1="5.104"/></g><g transform="translate(64.486 95.359)"><line class="a" y1="5.873" x2="1.115"/></g><g transform="translate(67.347 75.178)"><line class="a" x1="4.223" y1="4.231"/></g><g transform="translate(47.121 57.015)"><line class="a" y1="1.901" x2="5.667"/></g><g transform="translate(79.013 87.29)"><line class="a" x1="1.568" y1="5.768"/></g><g transform="translate(44.354 80.543)"><line class="a" x1="4.733" y1="3.651"/></g><g transform="translate(56.955 92.938)"><line class="a" x1="1.288" y1="5.837"/></g><g transform="translate(48.228 85.922)"><line class="a" x1="4.446" y1="3.996"/></g><g transform="translate(22.907 49.44)"><line class="a" y1="0.891" x2="5.911"/></g><g transform="translate(54.505 33.664)"><line class="a" y1="4.239" x2="4.215"/></g><g transform="translate(62.986 21.447)"><line class="a" y1="5.685" x2="1.848"/></g><g transform="translate(49.072 26.54)"><line class="a" y1="5.736" x2="1.683"/></g><g transform="translate(77.087 14.884)"><line class="a" y1="5.972" x2="0.257"/></g><g transform="translate(35.03 37.901)"><line class="a" y1="4.476" x2="3.962"/></g><g transform="translate(29.591 43.605)"><line class="a" y1="2.613" x2="5.376"/></g><g transform="translate(42.86 47.597)"><line class="a" x2="5.975" y2="0.184"/></g><g transform="translate(54.834 62.388)"><line class="a" y1="5.426" x2="2.509"/></g><g transform="translate(61.527 64.46)"><line class="a" y1="5.946" x2="0.617"/></g><g transform="translate(65.337 68.201)"><line class="a" y1="5.941" x2="0.658"/></g><g transform="translate(60.297 58.999)"><line class="a" y1="5.533" x2="2.263"/></g><g transform="translate(64.841 60.2)"><line class="a" y1="5.696" x2="1.813"/></g><g transform="translate(57.587 46.163)"><line class="a" y1="2.505" x2="5.427"/></g><g transform="translate(59.777 73.565)"><line class="a" y1="5.618" x2="2.043"/></g><g transform="translate(55.356 54.776)"><line class="a" y1="3.874" x2="4.552"/></g><g transform="translate(49.113 72.419)"><line class="a" y1="5.131" x2="3.066"/></g><g transform="translate(51.124 58.22)"><line class="a" y1="3.208" x2="5.044"/></g><g transform="translate(6.788 55.686)"><line class="a" y1="0.945" x2="5.902"/></g><g transform="translate(45.543 65.441)"><line class="a" y1="3.788" x2="4.624"/></g><g transform="translate(12.246 61.155)"><line class="a" y1="0.863" x2="5.915"/></g><g transform="translate(55.029 77.977)"><line class="a" y1="5.491" x2="2.362"/></g><g transform="translate(19.566 67.472)"><line class="a" y1="2.974" x2="5.185"/></g><g transform="translate(65.025 84.328)"><line class="a" x1="0.1" y1="5.977"/></g><g transform="translate(54.214 84.787)"><line class="a" x1="3.615" y1="4.761"/></g><g transform="translate(78.509 104.375)"><line class="a" x1="3.112" y1="5.104"/></g><g transform="translate(78.001 98.071)"><line class="a" x1="2.421" y1="5.465"/></g><g transform="translate(77.151 60.372)"><line class="a" y1="5.795" x2="1.464"/></g><g transform="translate(72.41 103.168)"><line class="a" x1="1.42" y1="5.807"/></g><g transform="translate(70.416 107.317)"><line class="a" y1="5.914" x2="0.872"/></g><g transform="translate(68.407 105.26)"><line class="a" y1="5.949" x2="0.588"/></g><g transform="translate(65.18 46.864)"><line class="a" y1="4.669" x2="3.733"/></g><g transform="translate(51.732 38.497)"><line class="a" y1="1.5" x2="5.786"/></g><g transform="translate(49.879 41.474)"><line class="a" y1="2.056" x2="5.613"/></g><g transform="translate(52.681 13.861)"><line class="a" y1="4.07" x2="4.378"/></g><g transform="translate(39.914 19.717)"><line class="a" y1="2.47" x2="5.443"/></g><g transform="translate(46.541 18.714)"><line class="a" y1="3.772" x2="4.637"/></g><g transform="translate(65.577 8.686)"><line class="a" y1="5.685" x2="1.848"/></g><g transform="translate(71.278 2.245)"><line class="a" y1="5.685" x2="1.848"/></g><g transform="translate(65.453)"><line class="a" y1="5.685" x2="1.848"/></g><g transform="translate(45.402 37.065)"><line class="a" y1="1.282" x2="5.838"/></g><g transform="translate(13.679 53.308)"><line class="a" y1="0.137" x2="5.976"/></g></g><g transform="translate(114.388 13.754)"><g transform="translate(26.345 43.312)"><line class="b" y1="0.108" x2="5.361"/></g><g transform="translate(0 45.381)"><line class="b" y1="3.912" x2="3.667"/></g><g transform="translate(45.824 29.431)"><line class="b" y1="4.58" x2="2.789"/></g><g transform="translate(51.146 29.172)"><line class="b" y1="4.003" x2="3.567"/></g><g transform="translate(3.967 37.624)"><line class="b" y1="3.941" x2="3.635"/></g><g transform="translate(32.678 26.294)"><line class="b" y1="5.167" x2="1.432"/></g><g transform="translate(39.927 29.16)"><line class="b" y1="4.372" x2="3.105"/></g><g transform="translate(18.54 33.874)"><line class="b" y1="4.673" x2="2.63"/></g><g transform="translate(27.117 32.892)"><line class="b" y1="5.083" x2="1.706"/></g><g transform="translate(12.351 39.302)"><line class="b" y1="1.169" x2="5.233"/></g><g transform="translate(32.972 39.387)"><line class="b" y1="0.933" x2="5.28"/></g><g transform="translate(23.197 47.39)"><line class="b" y1="2.606" x2="4.686"/></g><g transform="translate(59.107 39.168)"><line class="b" y1="2.853" x2="4.54"/></g><g transform="translate(30.261 51.264)"><line class="b" y1="3.26" x2="4.257"/></g><g transform="translate(65.744 48.912)"><line class="b" x2="5.36" y2="0.134"/></g><g transform="translate(37.842 52.817)"><line class="b" y1="1.359" x2="5.187"/></g><g transform="translate(36.944 55.956)"><line class="b" x1="2.152" y1="4.911"/></g><g transform="translate(63.324 58.255)"><line class="b" x1="3.731" y1="3.851"/></g><g transform="translate(64.033 65.323)"><line class="b" x1="3.717" y1="3.865"/></g><g transform="translate(47.268 56.503)"><line class="b" x1="3.474" y1="4.085"/></g><g transform="translate(72.414 63.151)"><line class="b" x1="2.423" y1="4.783"/></g><g transform="translate(40.572 47.505)"><line class="b" x2="5.358" y2="0.214"/></g><g transform="translate(55.378 50.143)"><line class="b" y1="3.654" x2="3.925"/></g><g transform="translate(49.592 57.114)"><line class="b" x1="3.068" y1="4.397"/></g><g transform="translate(56.627 64.164)"><line class="b" x1="2.702" y1="4.631"/></g><g transform="translate(44.981 44.546)"><line class="b" x2="5.359" y2="0.165"/></g><g transform="translate(54.937 49.42)"><line class="b" y1="0.174" x2="5.359"/></g><g transform="translate(59.928 48.925)"><line class="b" y1="4.199" x2="3.334"/></g><g transform="translate(54.497 55.929)"><line class="b" x1="3.679" y1="3.9"/></g><g transform="translate(57.491 68.203)"><line class="b" x1="2.791" y1="4.578"/></g><g transform="translate(55.122 78.591)"><line class="b" y1="5.268" x2="1"/></g><g transform="translate(55.093 60.991)"><line class="b" x1="3.788" y1="3.795"/></g><g transform="translate(43.828 50.78)"><line class="b" y1="1.706" x2="5.083"/></g><g transform="translate(65.816 71.907)"><line class="b" x1="1.406" y1="5.174"/></g><g transform="translate(41.386 64.805)"><line class="b" x1="4.246" y1="3.275"/></g><g transform="translate(49.009 76.289)"><line class="b" x1="1.155" y1="5.236"/></g><g transform="translate(42.381 69.741)"><line class="b" x1="3.988" y1="3.584"/></g><g transform="translate(21.551 42.499)"><line class="b" y1="0.799" x2="5.302"/></g><g transform="translate(45.952 31.373)"><line class="b" y1="3.802" x2="3.781"/></g><g transform="translate(53.708 19.36)"><line class="b" y1="5.099" x2="1.658"/></g><g transform="translate(42.132 24.505)"><line class="b" y1="5.145" x2="1.51"/></g><g transform="translate(65.057 12.957)"><line class="b" y1="5.357" x2="0.231"/></g><g transform="translate(31.859 34.16)"><line class="b" y1="4.015" x2="3.554"/></g><g transform="translate(28.012 38.304)"><line class="b" y1="2.344" x2="4.823"/></g><g transform="translate(37.999 42.572)"><line class="b" x2="5.359" y2="0.165"/></g><g transform="translate(48.318 54.485)"><line class="b" y1="4.867" x2="2.25"/></g><g transform="translate(52.428 54.861)"><line class="b" y1="5.333" x2="0.554"/></g><g transform="translate(54.196 55.508)"><line class="b" y1="5.329" x2="0.59"/></g><g transform="translate(51.52 52.553)"><line class="b" y1="4.963" x2="2.03"/></g><g transform="translate(53.201 53.222)"><line class="b" y1="5.11" x2="1.626"/></g><g transform="translate(49.133 42.687)"><line class="b" y1="2.247" x2="4.868"/></g><g transform="translate(50.735 58.092)"><line class="b" y1="5.039" x2="1.833"/></g><g transform="translate(47.941 49.867)"><line class="b" y1="3.475" x2="4.083"/></g><g transform="translate(45.682 58.479)"><line class="b" y1="4.603" x2="2.751"/></g><g transform="translate(45.91 51.693)"><line class="b" y1="2.877" x2="4.525"/></g><g transform="translate(6.295 47.179)"><line class="b" y1="0.847" x2="5.295"/></g><g transform="translate(42.857 55.761)"><line class="b" y1="3.398" x2="4.148"/></g><g transform="translate(11.465 51.809)"><line class="b" y1="0.774" x2="5.306"/></g><g transform="translate(48.191 62.116)"><line class="b" y1="4.926" x2="2.118"/></g><g transform="translate(18.501 56.832)"><line class="b" y1="2.668" x2="4.651"/></g><g transform="translate(56.013 68.263)"><line class="b" x1="0.09" y1="5.361"/></g><g transform="translate(47.333 68.311)"><line class="b" x1="3.243" y1="4.27"/></g><g transform="translate(66.427 87.173)"><line class="b" x1="2.791" y1="4.578"/></g><g transform="translate(65.842 81.138)"><line class="b" x1="2.172" y1="4.902"/></g><g transform="translate(60.807 52.667)"><line class="b" y1="5.199" x2="1.314"/></g><g transform="translate(61.396 86.045)"><line class="b" x1="1.273" y1="5.209"/></g><g transform="translate(59.815 90.036)"><line class="b" y1="5.305" x2="0.782"/></g><g transform="translate(58.145 88.017)"><line class="b" y1="5.336" x2="0.527"/></g><g transform="translate(54.468 43.958)"><line class="b" y1="4.188" x2="3.348"/></g><g transform="translate(44.257 35.609)"><line class="b" y1="1.345" x2="5.19"/></g><g transform="translate(43.459 38.141)"><line class="b" y1="1.844" x2="5.035"/></g><g transform="translate(44.787 12.243)"><line class="b" y1="3.651" x2="3.927"/></g><g transform="translate(34.078 17.634)"><line class="b" y1="2.216" x2="4.883"/></g><g transform="translate(40.052 17.565)"><line class="b" y1="3.383" x2="4.16"/></g><g transform="translate(56.045 7.671)"><line class="b" y1="5.099" x2="1.658"/></g><g transform="translate(60.547 2.125)"><line class="b" y1="5.099" x2="1.658"/></g><g transform="translate(55.861)"><line class="b" y1="5.099" x2="1.658"/></g><g transform="translate(39.442 33.66)"><line class="b" y1="1.15" x2="5.237"/></g><g transform="translate(12.911 45.352)"><line class="b" y1="0.123" x2="5.361"/></g></g><g transform="translate(57.562 9.998)"><g transform="translate(21.237 30.149)"><line class="a" x1="0.257" y1="5.972"/></g><g transform="translate(19.099 27.053)"><line class="a" x1="0.235" y1="5.973"/></g><g transform="translate(26.738 8.883)"><line class="a" y1="5.022" x2="3.242"/></g><g transform="translate(24.029 35.173)"><line class="a" x1="0.257" y1="5.972"/></g><g transform="translate(8.967 20.298)"><line class="a" y1="5.098" x2="3.121"/></g><g transform="translate(56.195 17.096)"><line class="a" y1="3.872" x2="4.554"/></g><g transform="translate(64.856 42.381)"><line class="a" y1="5.966" x2="0.373"/></g><g transform="translate(23.12 13.016)"><line class="a" y1="4.851" x2="3.493"/></g><g transform="translate(53.58 22.311)"><line class="a" y1="2.355" x2="5.494"/></g><g transform="translate(52.119 30.215)"><line class="a" y1="4.685" x2="3.712"/></g><g transform="translate(56.93 13.57)"><line class="a" y1="1.015" x2="5.891"/></g><g transform="translate(44.362 14.089)"><line class="a" y1="3.689" x2="4.703"/></g><g transform="translate(58.57 0.917)"><line class="a" y1="5.505" x2="2.33"/></g><g transform="translate(39.331 17.224)"><line class="a" y1="2.975" x2="5.185"/></g><g transform="translate(42.716 10.3)"><line class="a" y1="2.377" x2="5.484"/></g><g transform="translate(18.175 5.554)"><line class="a" y1="5.89" x2="1.019"/></g><g transform="translate(40.528 5.569)"><line class="a" y1="4.226" x2="4.228"/></g><g transform="translate(19.868 21.456)"><line class="a" y1="4.177" x2="4.276"/></g><g transform="translate(59.883 22.557)"><line class="a" y1="0.751" x2="5.93"/></g><g transform="translate(34.394 41.137)"><line class="a" x1="0.257" y1="5.972"/></g><g transform="translate(65.148 25.462)"><line class="a" x2="4.399" y2="4.047"/></g><g transform="translate(20.917 36.456)"><line class="a" x1="0.257" y1="5.972"/></g><g transform="translate(42.55 12.712)"><line class="a" y1="2.889" x2="5.233"/></g><g transform="translate(24.397 45.077)"><line class="a" x1="0.257" y1="5.972"/></g><g transform="translate(34.238 5.619)"><line class="a" y1="4.206" x2="4.248"/></g><g transform="translate(31.919 24.646)"><line class="a" y1="5.957" x2="0.497"/></g><g transform="translate(49.785 8.085)"><line class="a" y1="4.218" x2="4.235"/></g><g transform="translate(34.187 11.186)"><line class="a" y1="2.841" x2="5.259"/></g><g transform="translate(70.954 24.628)"><line class="a" x2="3.436" y2="4.891"/></g><g transform="translate(70.146 19.483)"><line class="a" x2="5.61" y2="2.065"/></g><g transform="translate(32.915 14.596)"><line class="a" y1="3.588" x2="4.781"/></g><g transform="translate(73.773 30.26)"><line class="a" x2="1.465" y2="5.795"/></g><g transform="translate(30.982 9.363)"><line class="a" y1="3.836" x2="4.584"/></g><g transform="translate(47.811 45.487)"><line class="a" x1="0.257" y1="5.972"/></g><g transform="translate(62.881 14.825)"><line class="a" x2="5.754" y2="1.619"/></g><g transform="translate(30.299)"><line class="a" y1="5.959" x2="0.469"/></g><g transform="translate(14.164 32.936)"><line class="a" x1="0.257" y1="5.972"/></g><g transform="translate(13.851 16.044)"><line class="a" y1="4.529" x2="3.902"/></g><g transform="translate(66.867 22.35)"><line class="a" x2="5.093" y2="3.13"/></g><g transform="translate(79.226 37.201)"><line class="a" x2="5.283" y2="2.797"/></g><g transform="translate(41.85 17.63)"><line class="a" y1="3.881" x2="4.546"/></g><g transform="translate(16.676 40.609)"><line class="a" x1="0.257" y1="5.972"/></g><g transform="translate(28.284 12.858)"><line class="a" y1="4.095" x2="4.355"/></g><g transform="translate(84.271 21.253)"><line class="a" y1="1.523" x2="5.78"/></g><g transform="translate(75.211 21.342)"><line class="a" x2="5.838" y2="1.283"/></g><g transform="translate(2.039 12.612)"><line class="a" x1="0.257" y1="5.972"/></g><g transform="translate(2.093 28.342)"><line class="a" x1="0.257" y1="5.972"/></g><g transform="translate(51.155 2.878)"><line class="a" y1="3.523" x2="4.829"/></g><g transform="translate(79.983 26.722)"><line class="a" x2="5.642" y2="1.974"/></g><g transform="translate(30.75 38.106)"><line class="a" x1="0.257" y1="5.972"/></g><g transform="translate(31.822 31.111)"><line class="a" x1="0.257" y1="5.972"/></g><g transform="translate(67.187 6.529)"><line class="a" x1="5.158" y1="3.022"/></g><g transform="translate(43.235 17.412)"><line class="a" y1="3.006" x2="5.167"/></g><g transform="translate(49.358 38.743)"><line class="a" x1="0.257" y1="5.972"/></g><g transform="translate(42.909 24.933)"><line class="a" y1="5.947" x2="0.606"/></g><g transform="translate(42.773 43.358)"><line class="a" x1="0.257" y1="5.972"/></g><g transform="translate(43.593 35.99)"><line class="a" x1="0.257" y1="5.972"/></g><g transform="translate(53.733 42.772)"><line class="a" x1="0.257" y1="5.972"/></g><g transform="translate(35.934 19.201)"><line class="a" y1="3.795" x2="4.618"/></g><g transform="translate(73.688 11.812)"><line class="a" y1="2.54" x2="5.411"/></g><g transform="translate(45.645 6.88)"><line class="a" y1="3.14" x2="5.086"/></g><g transform="translate(0 20.953)"><line class="a" x1="0.257" y1="5.972"/></g><g transform="translate(43.762 0.039)"><line class="a" y1="5.506" x2="2.326"/></g><g transform="translate(66.371 31.74)"><line class="a" x2="5.278" y2="2.805"/></g><g transform="translate(24.388 25.121)"><line class="a" y1="5.833" x2="1.305"/></g><g transform="translate(49.601 25.577)"><line class="a" y1="5.196" x2="2.955"/></g><g transform="translate(28.659 16.553)"><line class="a" y1="3.946" x2="4.49"/></g><g transform="translate(47.003 20.604)"><line class="a" y1="4.612" x2="3.803"/></g><g transform="translate(55.703 28.202)"><line class="a" y1="2.857" x2="5.251"/></g></g><g transform="translate(60.096 22.039)"><g transform="translate(17.691 25.114)"><line class="c" x1="0.214" y1="4.975"/></g><g transform="translate(15.909 22.536)"><line class="c" x1="0.196" y1="4.976"/></g><g transform="translate(22.273 7.4)"><line class="c" y1="4.183" x2="2.701"/></g><g transform="translate(20.017 29.299)"><line class="c" x1="0.214" y1="4.975"/></g><g transform="translate(7.47 16.908)"><line class="c" y1="4.247" x2="2.6"/></g><g transform="translate(46.811 14.241)"><line class="c" y1="3.225" x2="3.793"/></g><g transform="translate(54.025 35.304)"><line class="c" y1="4.97" x2="0.311"/></g><g transform="translate(19.259 10.842)"><line class="c" y1="4.041" x2="2.909"/></g><g transform="translate(44.632 18.586)"><line class="c" y1="1.962" x2="4.577"/></g><g transform="translate(43.415 25.17)"><line class="c" y1="3.903" x2="3.092"/></g><g transform="translate(47.423 11.304)"><line class="c" y1="0.846" x2="4.907"/></g><g transform="translate(36.954 11.737)"><line class="c" y1="3.073" x2="3.918"/></g><g transform="translate(48.789 0.764)"><line class="c" y1="4.586" x2="1.941"/></g><g transform="translate(32.763 14.347)"><line class="c" y1="2.478" x2="4.319"/></g><g transform="translate(35.583 8.58)"><line class="c" y1="1.98" x2="4.569"/></g><g transform="translate(15.14 4.626)"><line class="c" y1="4.907" x2="0.849"/></g><g transform="translate(33.76 4.639)"><line class="c" y1="3.52" x2="3.522"/></g><g transform="translate(16.55 17.873)"><line class="c" y1="3.48" x2="3.562"/></g><g transform="translate(49.883 18.791)"><line class="c" y1="0.625" x2="4.94"/></g><g transform="translate(28.65 34.268)"><line class="c" x1="0.214" y1="4.975"/></g><g transform="translate(54.269 21.21)"><line class="c" x2="3.665" y2="3.371"/></g><g transform="translate(17.424 30.368)"><line class="c" x1="0.214" y1="4.975"/></g><g transform="translate(35.444 10.589)"><line class="c" y1="2.406" x2="4.359"/></g><g transform="translate(20.323 37.55)"><line class="c" x1="0.214" y1="4.975"/></g><g transform="translate(28.521 4.68)"><line class="c" y1="3.503" x2="3.538"/></g><g transform="translate(26.588 20.53)"><line class="c" y1="4.962" x2="0.414"/></g><g transform="translate(41.472 6.735)"><line class="c" y1="3.514" x2="3.528"/></g><g transform="translate(28.478 9.318)"><line class="c" y1="2.367" x2="4.381"/></g><g transform="translate(59.105 20.516)"><line class="c" x2="2.862" y2="4.074"/></g><g transform="translate(58.432 16.23)"><line class="c" x2="4.673" y2="1.72"/></g><g transform="translate(27.418 12.159)"><line class="c" y1="2.989" x2="3.982"/></g><g transform="translate(61.453 25.207)"><line class="c" x2="1.22" y2="4.828"/></g><g transform="translate(25.809 7.8)"><line class="c" y1="3.195" x2="3.819"/></g><g transform="translate(39.827 37.891)"><line class="c" x1="0.214" y1="4.975"/></g><g transform="translate(52.38 12.349)"><line class="c" x2="4.793" y2="1.349"/></g><g transform="translate(25.239)"><line class="c" y1="4.964" x2="0.391"/></g><g transform="translate(11.799 27.436)"><line class="c" x1="0.214" y1="4.975"/></g><g transform="translate(11.538 13.365)"><line class="c" y1="3.772" x2="3.25"/></g><g transform="translate(55.7 18.618)"><line class="c" x2="4.242" y2="2.607"/></g><g transform="translate(65.996 30.988)"><line class="c" x2="4.401" y2="2.33"/></g><g transform="translate(34.862 14.686)"><line class="c" y1="3.233" x2="3.787"/></g><g transform="translate(13.891 33.828)"><line class="c" x1="0.214" y1="4.975"/></g><g transform="translate(23.561 10.711)"><line class="c" y1="3.411" x2="3.628"/></g><g transform="translate(70.198 17.704)"><line class="c" y1="1.269" x2="4.815"/></g><g transform="translate(62.651 17.778)"><line class="c" x2="4.863" y2="1.068"/></g><g transform="translate(1.699 10.506)"><line class="c" x1="0.214" y1="4.975"/></g><g transform="translate(1.744 23.609)"><line class="c" x1="0.214" y1="4.975"/></g><g transform="translate(42.612 2.397)"><line class="c" y1="2.935" x2="4.023"/></g><g transform="translate(66.627 22.259)"><line class="c" x2="4.7" y2="1.645"/></g><g transform="translate(25.615 31.743)"><line class="c" x1="0.214" y1="4.975"/></g><g transform="translate(26.508 25.916)"><line class="c" x1="0.214" y1="4.975"/></g><g transform="translate(55.967 5.439)"><line class="c" x1="4.296" y1="2.517"/></g><g transform="translate(36.015 14.504)"><line class="c" y1="2.504" x2="4.304"/></g><g transform="translate(41.115 32.273)"><line class="c" x1="0.214" y1="4.975"/></g><g transform="translate(35.743 20.77)"><line class="c" y1="4.954" x2="0.504"/></g><g transform="translate(35.63 36.118)"><line class="c" x1="0.214" y1="4.975"/></g><g transform="translate(36.314 29.98)"><line class="c" x1="0.214" y1="4.975"/></g><g transform="translate(44.76 35.629)"><line class="c" x1="0.214" y1="4.975"/></g><g transform="translate(29.933 15.995)"><line class="c" y1="3.162" x2="3.847"/></g><g transform="translate(61.383 9.839)"><line class="c" y1="2.115" x2="4.508"/></g><g transform="translate(38.023 5.731)"><line class="c" y1="2.616" x2="4.237"/></g><g transform="translate(0 17.454)"><line class="c" x1="0.214" y1="4.975"/></g><g transform="translate(36.454 0.032)"><line class="c" y1="4.587" x2="1.938"/></g><g transform="translate(55.287 26.439)"><line class="c" x2="4.397" y2="2.337"/></g><g transform="translate(20.315 20.926)"><line class="c" y1="4.859" x2="1.087"/></g><g transform="translate(41.318 21.306)"><line class="c" y1="4.328" x2="2.462"/></g><g transform="translate(23.873 13.789)"><line class="c" y1="3.287" x2="3.74"/></g><g transform="translate(39.154 17.163)"><line class="c" y1="3.842" x2="3.168"/></g><g transform="translate(46.401 23.492)"><line class="c" y1="2.38" x2="4.374"/></g></g><g transform="translate(57.562 56.542)"><g transform="translate(21.237 15.338)"><line class="a" x1="0.257" y2="5.972"/></g><g transform="translate(19.099 18.433)"><line class="a" x1="0.235" y2="5.973"/></g><g transform="translate(26.738 37.554)"><line class="a" x2="3.242" y2="5.022"/></g><g transform="translate(24.029 10.315)"><line class="a" x1="0.257" y2="5.972"/></g><g transform="translate(8.967 26.064)"><line class="a" x2="3.121" y2="5.098"/></g><g transform="translate(56.195 30.491)"><line class="a" x2="4.554" y2="3.872"/></g><g transform="translate(64.856 3.112)"><line class="a" x2="0.373" y2="5.966"/></g><g transform="translate(23.12 33.593)"><line class="a" x2="3.493" y2="4.851"/></g><g transform="translate(53.58 26.793)"><line class="a" x2="5.494" y2="2.355"/></g><g transform="translate(52.119 16.558)"><line class="a" x2="3.712" y2="4.685"/></g><g transform="translate(56.93 36.873)"><line class="a" x2="5.891" y2="1.015"/></g><g transform="translate(44.362 33.681)"><line class="a" x2="4.703" y2="3.689"/></g><g transform="translate(58.57 45.037)"><line class="a" x2="2.33" y2="5.505"/></g><g transform="translate(39.331 31.26)"><line class="a" x2="5.185" y2="2.975"/></g><g transform="translate(42.716 38.782)"><line class="a" x2="5.484" y2="2.377"/></g><g transform="translate(18.175 40.016)"><line class="a" x2="1.019" y2="5.89"/></g><g transform="translate(40.528 41.664)"><line class="a" x2="4.228" y2="4.226"/></g><g transform="translate(19.868 25.827)"><line class="a" x2="4.276" y2="4.177"/></g><g transform="translate(59.883 28.151)"><line class="a" x2="5.93" y2="0.751"/></g><g transform="translate(34.394 4.35)"><line class="a" x1="0.257" y2="5.972"/></g><g transform="translate(65.148 21.95)"><line class="a" y1="4.047" x2="4.399"/></g><g transform="translate(20.917 9.031)"><line class="a" x1="0.257" y2="5.972"/></g><g transform="translate(42.55 35.858)"><line class="a" x2="5.233" y2="2.889"/></g><g transform="translate(24.397 0.41)"><line class="a" x1="0.257" y2="5.972"/></g><g transform="translate(34.238 41.635)"><line class="a" x2="4.248" y2="4.206"/></g><g transform="translate(31.919 20.857)"><line class="a" x2="0.497" y2="5.957"/></g><g transform="translate(49.785 39.156)"><line class="a" x2="4.235" y2="4.218"/></g><g transform="translate(34.187 37.432)"><line class="a" x2="5.259" y2="2.841"/></g><g transform="translate(70.954 21.94)"><line class="a" y1="4.891" x2="3.436"/></g><g transform="translate(70.146 29.911)"><line class="a" y1="2.065" x2="5.61"/></g><g transform="translate(32.915 33.275)"><line class="a" x2="4.781" y2="3.588"/></g><g transform="translate(73.773 15.404)"><line class="a" y1="5.795" x2="1.465"/></g><g transform="translate(30.982 38.26)"><line class="a" x2="4.584" y2="3.836"/></g><g transform="translate(47.811)"><line class="a" x1="0.257" y2="5.972"/></g><g transform="translate(62.881 35.015)"><line class="a" y1="1.619" x2="5.754"/></g><g transform="translate(30.299 45.5)"><line class="a" x2="0.469" y2="5.959"/></g><g transform="translate(14.164 12.552)"><line class="a" x1="0.257" y2="5.972"/></g><g transform="translate(13.851 30.887)"><line class="a" x2="3.902" y2="4.529"/></g><g transform="translate(66.867 25.98)"><line class="a" y1="3.13" x2="5.093"/></g><g transform="translate(79.226 11.461)"><line class="a" y1="2.797" x2="5.283"/></g><g transform="translate(41.85 29.949)"><line class="a" x2="4.546" y2="3.881"/></g><g transform="translate(16.676 4.878)"><line class="a" x1="0.257" y2="5.972"/></g><g transform="translate(28.284 34.507)"><line class="a" x2="4.355" y2="4.095"/></g><g transform="translate(84.271 28.683)"><line class="a" x2="5.78" y2="1.523"/></g><g transform="translate(75.211 28.835)"><line class="a" y1="1.283" x2="5.838"/></g><g transform="translate(2.039 32.875)"><line class="a" x1="0.257" y2="5.972"/></g><g transform="translate(2.093 17.145)"><line class="a" x1="0.257" y2="5.972"/></g><g transform="translate(51.155 45.058)"><line class="a" x2="4.829" y2="3.523"/></g><g transform="translate(79.983 22.763)"><line class="a" y1="1.974" x2="5.642"/></g><g transform="translate(30.75 7.381)"><line class="a" x1="0.257" y2="5.972"/></g><g transform="translate(31.822 14.376)"><line class="a" x1="0.257" y2="5.972"/></g><g transform="translate(67.187 41.909)"><line class="a" x1="5.158" y2="3.022"/></g><g transform="translate(43.235 31.041)"><line class="a" x2="5.167" y2="3.006"/></g><g transform="translate(49.358 6.744)"><line class="a" x1="0.257" y2="5.972"/></g><g transform="translate(42.909 20.579)"><line class="a" x2="0.606" y2="5.947"/></g><g transform="translate(42.773 2.129)"><line class="a" x1="0.257" y2="5.972"/></g><g transform="translate(43.593 9.498)"><line class="a" x1="0.257" y2="5.972"/></g><g transform="translate(53.733 2.715)"><line class="a" x1="0.257" y2="5.972"/></g><g transform="translate(35.934 28.462)"><line class="a" x2="4.618" y2="3.795"/></g><g transform="translate(73.688 37.108)"><line class="a" x2="5.411" y2="2.54"/></g><g transform="translate(45.645 41.439)"><line class="a" x2="5.086" y2="3.14"/></g><g transform="translate(0 24.534)"><line class="a" x1="0.257" y2="5.972"/></g><g transform="translate(43.762 45.914)"><line class="a" x2="2.326" y2="5.506"/></g><g transform="translate(66.371 16.915)"><line class="a" y1="2.805" x2="5.278"/></g><g transform="translate(24.388 20.505)"><line class="a" x2="1.305" y2="5.833"/></g><g transform="translate(49.601 20.686)"><line class="a" x2="2.955" y2="5.196"/></g><g transform="translate(28.659 30.96)"><line class="a" x2="4.49" y2="3.946"/></g><g transform="translate(47.003 26.243)"><line class="a" x2="3.803" y2="4.612"/></g><g transform="translate(55.703 20.401)"><line class="a" x2="5.251" y2="2.857"/></g></g><g transform="translate(60.096 53.095)"><g transform="translate(17.691 12.777)"><line class="c" x1="0.214" y2="4.975"/></g><g transform="translate(15.909 15.355)"><line class="c" x1="0.196" y2="4.976"/></g><g transform="translate(22.273 31.283)"><line class="c" x2="2.701" y2="4.183"/></g><g transform="translate(20.017 8.592)"><line class="c" x1="0.214" y2="4.975"/></g><g transform="translate(7.47 21.711)"><line class="c" x2="2.6" y2="4.247"/></g><g transform="translate(46.811 25.399)"><line class="c" x2="3.793" y2="3.225"/></g><g transform="translate(54.025 2.593)"><line class="c" x2="0.311" y2="4.97"/></g><g transform="translate(19.259 27.983)"><line class="c" x2="2.909" y2="4.041"/></g><g transform="translate(44.632 22.319)"><line class="c" x2="4.577" y2="1.962"/></g><g transform="translate(43.415 13.793)"><line class="c" x2="3.092" y2="3.903"/></g><g transform="translate(47.423 30.716)"><line class="c" x2="4.907" y2="0.846"/></g><g transform="translate(36.954 28.056)"><line class="c" x2="3.918" y2="3.073"/></g><g transform="translate(48.789 37.516)"><line class="c" x2="1.941" y2="4.586"/></g><g transform="translate(32.763 26.04)"><line class="c" x2="4.319" y2="2.478"/></g><g transform="translate(35.583 32.305)"><line class="c" x2="4.569" y2="1.98"/></g><g transform="translate(15.14 33.333)"><line class="c" x2="0.849" y2="4.907"/></g><g transform="translate(33.76 34.706)"><line class="c" x2="3.522" y2="3.52"/></g><g transform="translate(16.55 21.514)"><line class="c" x2="3.562" y2="3.48"/></g><g transform="translate(49.883 23.45)"><line class="c" x2="4.94" y2="0.625"/></g><g transform="translate(28.65 3.624)"><line class="c" x1="0.214" y2="4.975"/></g><g transform="translate(54.269 18.284)"><line class="c" y1="3.371" x2="3.665"/></g><g transform="translate(17.424 7.523)"><line class="c" x1="0.214" y2="4.975"/></g><g transform="translate(35.444 29.87)"><line class="c" x2="4.359" y2="2.406"/></g><g transform="translate(20.323 0.342)"><line class="c" x1="0.214" y2="4.975"/></g><g transform="translate(28.521 34.682)"><line class="c" x2="3.538" y2="3.503"/></g><g transform="translate(26.588 17.374)"><line class="c" x2="0.414" y2="4.962"/></g><g transform="translate(41.472 32.617)"><line class="c" x2="3.528" y2="3.514"/></g><g transform="translate(28.478 31.181)"><line class="c" x2="4.381" y2="2.367"/></g><g transform="translate(59.105 18.276)"><line class="c" y1="4.074" x2="2.862"/></g><g transform="translate(58.432 24.916)"><line class="c" y1="1.72" x2="4.673"/></g><g transform="translate(27.418 27.718)"><line class="c" x2="3.982" y2="2.989"/></g><g transform="translate(61.453 12.831)"><line class="c" y1="4.828" x2="1.22"/></g><g transform="translate(25.809 31.871)"><line class="c" x2="3.819" y2="3.195"/></g><g transform="translate(39.827)"><line class="c" x1="0.214" y2="4.975"/></g><g transform="translate(52.38 29.168)"><line class="c" y1="1.349" x2="4.793"/></g><g transform="translate(25.239 37.902)"><line class="c" x2="0.391" y2="4.964"/></g><g transform="translate(11.799 10.456)"><line class="c" x1="0.214" y2="4.975"/></g><g transform="translate(11.538 25.729)"><line class="c" x2="3.25" y2="3.772"/></g><g transform="translate(55.7 21.641)"><line class="c" y1="2.607" x2="4.242"/></g><g transform="translate(65.996 9.547)"><line class="c" y1="2.33" x2="4.401"/></g><g transform="translate(34.862 24.947)"><line class="c" x2="3.787" y2="3.233"/></g><g transform="translate(13.891 4.063)"><line class="c" x1="0.214" y2="4.975"/></g><g transform="translate(23.561 28.744)"><line class="c" x2="3.628" y2="3.411"/></g><g transform="translate(70.198 23.893)"><line class="c" x2="4.815" y2="1.269"/></g><g transform="translate(62.651 24.019)"><line class="c" y1="1.068" x2="4.863"/></g><g transform="translate(1.699 27.385)"><line class="c" x1="0.214" y2="4.975"/></g><g transform="translate(1.744 14.282)"><line class="c" x1="0.214" y2="4.975"/></g><g transform="translate(42.612 37.534)"><line class="c" x2="4.023" y2="2.935"/></g><g transform="translate(66.627 18.962)"><line class="c" y1="1.645" x2="4.7"/></g><g transform="translate(25.615 6.148)"><line class="c" x1="0.214" y2="4.975"/></g><g transform="translate(26.508 11.975)"><line class="c" x1="0.214" y2="4.975"/></g><g transform="translate(55.967 34.91)"><line class="c" x1="4.296" y2="2.517"/></g><g transform="translate(36.015 25.857)"><line class="c" x2="4.304" y2="2.504"/></g><g transform="translate(41.115 5.618)"><line class="c" x1="0.214" y2="4.975"/></g><g transform="translate(35.743 17.143)"><line class="c" x2="0.504" y2="4.954"/></g><g transform="translate(35.63 1.773)"><line class="c" x1="0.214" y2="4.975"/></g><g transform="translate(36.314 7.911)"><line class="c" x1="0.214" y2="4.975"/></g><g transform="translate(44.76 2.262)"><line class="c" x1="0.214" y2="4.975"/></g><g transform="translate(29.933 23.709)"><line class="c" x2="3.847" y2="3.162"/></g><g transform="translate(61.383 30.911)"><line class="c" x2="4.508" y2="2.115"/></g><g transform="translate(38.023 34.519)"><line class="c" x2="4.237" y2="2.616"/></g><g transform="translate(0 20.437)"><line class="c" x1="0.214" y2="4.975"/></g><g transform="translate(36.454 38.246)"><line class="c" x2="1.938" y2="4.587"/></g><g transform="translate(55.287 14.09)"><line class="c" y1="2.337" x2="4.397"/></g><g transform="translate(20.315 17.081)"><line class="c" x2="1.087" y2="4.859"/></g><g transform="translate(41.318 17.232)"><line class="c" x2="2.462" y2="4.328"/></g><g transform="translate(23.873 25.79)"><line class="c" x2="3.74" y2="3.287"/></g><g transform="translate(39.154 21.861)"><line class="c" x2="3.168" y2="3.842"/></g><g transform="translate(46.401 16.994)"><line class="c" x2="4.374" y2="2.38"/></g></g></g><g transform="translate(52.608 47.816)"><rect class="d" width="50.811" height="19.088"/><g transform="translate(50.811)"><rect class="e" width="50.811" height="19.088"/></g><g class="f" transform="translate(3.958 6.622)"><path class="g" d="M372.711,1081.52a2.378,2.378,0,0,0,1.2.339c.685,0,1.086-.362,1.086-.886,0-.486-.276-.762-.978-1.033-.847-.3-1.371-.741-1.371-1.473a1.5,1.5,0,0,1,1.681-1.41,2.356,2.356,0,0,1,1.149.255l-.185.547a2.066,2.066,0,0,0-.986-.246c-.709,0-.98.423-.98.777,0,.486.316.724,1.032,1,.878.339,1.325.764,1.325,1.526,0,.8-.594,1.5-1.819,1.495a2.679,2.679,0,0,1-1.326-.333Z" transform="translate(-372.54 -1077.058)"/></g><g class="f" transform="translate(93.757 6.705)"><path class="g" d="M511.032,1082.382l0-5.195h.732l1.664,2.629a14.761,14.761,0,0,1,.932,1.688l.016-.007c-.062-.694-.077-1.325-.076-2.135v-2.174h.632l0,5.2h-.678l-1.648-2.637a16.549,16.549,0,0,1-.971-1.734l-.023.007c.038.655.054,1.279.053,2.143v2.219Z" transform="translate(-511.032 -1077.187)"/></g></g></g></svg>