<svg xmlns="http://www.w3.org/2000/svg" width="465.859" height="524.247" viewBox="0 0 465.859 524.247">
  <g id="Group_48584" data-name="Group 48584" transform="translate(-668 -218.555)">
    <g id="Group_48579" data-name="Group 48579" transform="translate(17.766 -17.844)">
      <path id="Path_62315" data-name="Path 62315" d="M1123.877,646.854c-72.22-27.654-108.33-41.48-129.431-61.956-70.5-68.406-91.745-211.777-22.076-286.822,3.625-3.9,54.515-57.191,114.419-46.725,50.156,8.763,55.908,53.356,135.1,147.751,84.781,101.061,129.551,111.177,129.884,162.956.315,49.022-39.437,98.972-84.923,114.522C1233.019,688.145,1196.178,674.539,1123.877,646.854Z" transform="translate(-279.375 -13.593)" fill="#bec9f2" opacity="0.49"/>
      <circle id="Ellipse_10401" data-name="Ellipse 10401" cx="17.145" cy="17.145" r="17.145" transform="translate(874.526 258.296)" fill="#bec9f2" opacity="0.49"/>
      <circle id="Ellipse_10404" data-name="Ellipse 10404" cx="5.122" cy="5.122" r="5.122" transform="translate(926.193 311.652)" fill="#bec9f2" opacity="0.49"/>
      <g id="Group_48572" data-name="Group 48572" transform="translate(810.229 303.622)">
        <g id="Group_48566" data-name="Group 48566" transform="translate(0 251.021)">
          <path id="Path_62316" data-name="Path 62316" d="M1107.915,548.193c-.635.8-9.871,8.327-12.239,13.365s-5.407,12.752-7.145,15.165c-2.046,2.839-1.078,4.094,1.634.951a54.628,54.628,0,0,0,5.355-7.449c.21-.513-1.475,2.717-3.576,6.13-2.234,3.628-4.88,7.484-4.252,7.933,1.219.868,8.356-9.33,9.292-11.243a53.22,53.22,0,0,1-2.536,5.018c-1.278,2.218-3.1,4.629-2.8,5.34.471,1.121,4.985-4.015,7.462-8.714.191-.028-.137,1.661-3.452,7.044-.334.541-.617,2.123.962.528,3.324-3.356,5-4.555,7.3-10.332,2.24-5.633,3.343-12.347,6.2-15.947Z" transform="translate(-1078.996 -548.193)" fill="#caa267" fill-rule="evenodd"/>
          <g id="Group_48565" data-name="Group 48565" transform="translate(0 7.078)">
            <path id="Path_62317" data-name="Path 62317" d="M1080.092,565.61l14.5,17.84a2.348,2.348,0,0,0,3.323.387l8.082-6.762a.639.639,0,0,0,.079-.073,2.413,2.413,0,0,0,.186-3.3l-14.5-17.838a2.344,2.344,0,0,0-3.321-.385l-7.546,6.311-.538.447A2.412,2.412,0,0,0,1080.092,565.61Z" transform="translate(-1079.528 -554.816)" fill="#979797"/>
            <path id="Path_62318" data-name="Path 62318" d="M1080.47,565.224l14.613,17.77a2.424,2.424,0,0,0,3.413.331l7.879-6.508a2.419,2.419,0,0,0,.249-3.338l-14.613-17.769a2.423,2.423,0,0,0-3.413-.332l-7.879,6.508A2.419,2.419,0,0,0,1080.47,565.224Z" transform="translate(-1079.501 -554.825)" fill="#cacaca"/>
            <path id="Path_62319" data-name="Path 62319" d="M1081.8,565.089l12.622,15.348a2.092,2.092,0,0,0,2.947.286l6.8-5.621a2.088,2.088,0,0,0,.216-2.883l-12.621-15.348a2.094,2.094,0,0,0-2.948-.286l-6.8,5.621A2.088,2.088,0,0,0,1081.8,565.089Z" transform="translate(-1079.407 -554.739)" fill="#2f2f2f"/>
            <circle id="Ellipse_10405" data-name="Ellipse 10405" cx="0.809" cy="0.809" r="0.809" transform="translate(21.375 23.324)" fill="#7f7f7f"/>
          </g>
          <path id="Path_62320" data-name="Path 62320" d="M1098.458,557.5s-6.23,2.734-8.787,7.411c-1.52,2.78-2.237,2.443-2.639,2.864-1.337,1.4,2.341.908,4.04-1.306,1.381-1.8,5.264-1.677,6.444-2.632s3.855-4.123,3.706-5.208S1098.458,557.5,1098.458,557.5Z" transform="translate(-1079.042 -547.568)" fill="#caa267" fill-rule="evenodd"/>
        </g>
        <path id="Path_62321" data-name="Path 62321" d="M1243.3,619.9s-10.9,112.484-6.266,114.419c8.316,3.528,40.883,15.067,4.977,12.531-18.445,1.112-17.091-3.01-17.38-6.5-.235-2.853.307-103.52-.451-111.348l-.272-2.813Z" transform="translate(-1069.823 -292.352)" fill="#c39652"/>
        <path id="Path_62322" data-name="Path 62322" d="M1170.846,610.73s58.876,95.962,55.77,99.908c-5.547,7.129-28.382,33.06,1.75,13.369,16.653-8.005,13.465-10.946,12.018-14.137-1.184-2.607-9.9-22.541-13.044-29.749-.7-1.614-40.365-80.225-40.365-80.225Z" transform="translate(-1073.39 -293.697)" fill="#caa267"/>
        <path id="Path_62323" data-name="Path 62323" d="M1213.221,348.1s-.959,10.718,5.651,16.645-15.236,0-15.236,0,4.065-10.266,3.154-16.645S1213.221,348.1,1213.221,348.1Z" transform="translate(-1071.186 -310.812)" fill="#c2934e"/>
        <ellipse id="Ellipse_10406" data-name="Ellipse 10406" cx="11.558" cy="15.77" rx="11.558" ry="15.77" transform="translate(126.99 9.903)" fill="#caa267"/>
        <path id="Path_62324" data-name="Path 62324" d="M1292.273,450.469c-.193,2.985-2.607,14.082-6.005,26.145-1,3.6-2.1,7.278-3.248,10.86-1.4,4.364-2.871,8.569-4.364,12.283-2.9,7.2-5.864,12.555-8.454,13.6-8.727,3.511-74.615,8.331-88.161,1.87-.316-.237-.658-.492-.983-.773-5.083-4.135-10.6-12.3-13.521-19.946,0,0-7.787-21.957-9.377-26.426a1.214,1.214,0,0,0-.044-.114c-.052-.175-.114-.341-.175-.5-.018-.061-.044-.113-.062-.175-8.2,28-30.016,89.487-47.663,108.968-1.852,2.046-10.376-9.429-10.376-9.429s-14.25-73.579,22.923-151.337c17.5-36.6,48.725-53.3,68.662-57.732,8.63-1.923,15.144-1.545,17.524.509a12.921,12.921,0,0,0,8.068,3.134,17.474,17.474,0,0,0,4.53-.413,22.521,22.521,0,0,0,4.8-1.633c.739-.343,1.168-.588,1.168-.588a46.871,46.871,0,0,1,12.2.729C1284.829,368.33,1292.678,443.964,1292.273,450.469Z" transform="translate(-1078.343 -310.056)" fill="#8c7cc9"/>
        <path id="Path_62325" data-name="Path 62325" d="M1174.978,502.845a7.119,7.119,0,0,0,4.044,1.865c9.5.187,50.541.89,72.8-.39,7.855-.453,13.37-1.15,14.339-2.209,0,0,0,.032-.006.09-.058,1.227-.762,15.276-1.75,33.691-1.951,36.352,1.807,88.418,6.2,104.22.948,3.411-50.042-1.756-50.042-1.756-.142-37.515,3.417-103.375,1.118-106.326-2.8-3.591-7.332,54.339-12.531,102.814-20.193,5.268-52.167,2.07-51.8,0C1161.741,610.263,1174.978,502.845,1174.978,502.845Z" transform="translate(-1074.297 -300.269)" fill="#f1c759"/>
        <path id="Path_62326" data-name="Path 62326" d="M1154.061,461.329c.017.062.044.114.061.176.062.158.123.324.176.5.017.035.026.07.044.114,1.589,4.469,9.376,26.417,9.376,26.417,2.923,7.656,8.436,15.82,13.52,19.956-3.45-12.493-14.2-48.708-13.792-63.3C1161.392,459.258,1154.061,461.321,1154.061,461.329Z" transform="translate(-1074.518 -304.095)" opacity="0.15"/>
        <path id="Path_62327" data-name="Path 62327" d="M1275.817,472.183c-1,3.6-2.1,7.278-3.248,10.86-1.4,4.364-2.871,8.569-4.364,12.283-25.8-30.895-11.729-72.9-11.729-72.9s10.9,36.47,11.018,37.5C1267.53,460.288,1271.156,465.546,1275.817,472.183Z" transform="translate(-1067.892 -305.625)" opacity="0.15"/>
        <path id="Path_62328" data-name="Path 62328" d="M1211.847,363.994c.035,1.045-.518,1.729-2.2,1.5-5.232-.711-11.141-.561-15.434,1.405a3.649,3.649,0,0,1-3.529-.149c-2.748-1.607-4.45-6.4-5.127-8.525a1.474,1.474,0,0,1-.071-.465c8.631-1.923,15.145-1.545,17.524.509a12.921,12.921,0,0,0,8.068,3.134A7.124,7.124,0,0,1,1211.847,363.994Z" transform="translate(-1072.405 -310.056)" opacity="0.15"/>
        <path id="Path_62329" data-name="Path 62329" d="M1235.645,696.36c-.6-1.523-10.623,4.235-11.124,6.023s-18.3,17.148-14.577,22.9,28.99-14.478,30.9-15.729S1236.83,699.355,1235.645,696.36Z" transform="translate(-1070.796 -287.23)" fill="#5e5586"/>
        <path id="Path_62330" data-name="Path 62330" d="M1223.989,723.594c-.216-1.623,13.617.436,14.925,1.757s21.444,6.8,20.987,13.635-32.371,1.462-34.651,1.3S1224.412,726.786,1223.989,723.594Z" transform="translate(-1069.823 -285.423)" fill="#5e5587"/>
        <g id="Group_48567" data-name="Group 48567" transform="translate(138.111 201.843)" opacity="0.3">
          <path id="Path_62331" data-name="Path 62331" d="M1209.4,504.889c-.155-.013-.308-.025-.459-.038C1208.94,504.851,1209.1,504.863,1209.4,504.889Z" transform="translate(-1208.94 -501.928)"/>
          <path id="Path_62332" data-name="Path 62332" d="M1209.37,505.074c12.229.975,38.959-.752,38.959-.752,7.855-.453,13.37-1.15,14.339-2.209,0,0,0,.032-.006.09-.058,1.227-.762,15.276-1.75,33.691a9,9,0,0,1-1.285-.148,10.006,10.006,0,0,1-6.473-4.6,22.2,22.2,0,0,1-2.516-5.256C1241.519,508.54,1213.288,505.426,1209.37,505.074Z" transform="translate(-1208.911 -502.112)" opacity="0.5"/>
        </g>
        <g id="Group_48569" data-name="Group 48569" transform="translate(124.317)">
          <g id="Group_48568" data-name="Group 48568" transform="translate(2.44 4.397)">
            <path id="Path_62333" data-name="Path 62333" d="M1205.545,329.326s20.01,11.095,14.071-6.718C1215.507,310.284,1191.9,321.385,1205.545,329.326Z" transform="translate(-1198.097 -317.102)" fill="#f0c659"/>
            <path id="Path_62334" data-name="Path 62334" d="M1208.65,325.02s-11.2,6.643-10.115,13.307c0,0-2.469-19.9,8.663-20.4s15.443.574,14.453,21.613C1221.651,339.545,1218.417,322.808,1208.65,325.02Z" transform="translate(-1198.302 -317.051)" fill="#f0c659"/>
          </g>
          <path id="Path_62335" data-name="Path 62335" d="M1206.182,318.387s.562-6.2,6.708-5.321,8.779,4.389,9.657,7.9,1.756,6.145,2.634,6.145c0,0-2.634,2.634-3.512,1.757,0,0,2.278,6.314-.617,11.5,0,0-1.139-7.986-5.528-8.863S1206.182,318.387,1206.182,318.387Z" transform="translate(-1195.332 -312.981)" fill="#f0c659"/>
          <path id="Path_62336" data-name="Path 62336" d="M1207.428,318.032s-4.389-2.634-8.779,3.512l-2.634,5.267s.878.878,2.634,0c0,0-.8,6.187.04,9.677l2.594-10.555Z" transform="translate(-1196.015 -312.68)" fill="#f0c659"/>
        </g>
        <g id="Group_48570" data-name="Group 48570" transform="translate(268.312 258.067)">
          <path id="Path_62337" data-name="Path 62337" d="M1333.617,554.795c.46.747,7.572,8.112,9.078,12.652s3.312,11.43,4.548,13.667c1.456,2.631.5,3.6-1.491.645a46.958,46.958,0,0,1-3.809-6.9c-.127-.46.982,2.468,2.426,5.6,1.535,3.323,3.4,6.882,2.817,7.2-1.128.617-6.177-8.812-6.781-10.54a45.827,45.827,0,0,0,1.652,4.54c.864,2.022,2.173,4.266,1.845,4.842-.516.908-3.844-3.934-5.477-8.2-.161-.044-.053,1.43,2.227,6.362.228.5.31,1.874-.875.352-2.493-3.2-3.8-4.4-5.172-9.559-1.337-5.035-1.595-10.875-3.665-14.239Z" transform="translate(-1330.941 -554.795)" fill="#caa267" fill-rule="evenodd"/>
          <path id="Path_62338" data-name="Path 62338" d="M1341.2,564.657s5.036,2.968,6.742,7.219c1.013,2.527,1.659,2.313,1.959,2.714,1,1.331-2.09.536-3.313-1.527-.995-1.676-4.321-1.968-5.23-2.9s-2.868-3.91-2.631-4.821S1341.2,564.657,1341.2,564.657Z" transform="translate(-1330.419 -554.134)" fill="#caa267" fill-rule="evenodd"/>
        </g>
        <g id="Group_48571" data-name="Group 48571" transform="translate(96.65 201.689)">
          <line id="Line_824" data-name="Line 824" x1="12.948" y2="135.395" fill="none" stroke="#8c7cc9" stroke-miterlimit="10" stroke-width="0.823"/>
          <line id="Line_825" data-name="Line 825" x1="12.851" y2="133.038" transform="translate(12.948 2.708)" fill="none" stroke="#8c7cc9" stroke-miterlimit="10" stroke-width="0.823"/>
          <line id="Line_826" data-name="Line 826" x1="10.686" y2="132.108" transform="translate(27.674 2.708)" fill="none" stroke="#8c7cc9" stroke-miterlimit="10" stroke-width="0.823"/>
          <line id="Line_827" data-name="Line 827" x2="0.275" y2="27.365" transform="translate(50.458 2.708)" fill="none" stroke="#8c7cc9" stroke-miterlimit="10" stroke-width="0.823"/>
          <line id="Line_828" data-name="Line 828" x1="2.479" y2="134.785" transform="translate(61.408 2.708)" fill="none" stroke="#8c7cc9" stroke-miterlimit="10" stroke-width="0.823"/>
          <line id="Line_829" data-name="Line 829" x1="0.691" y2="135.915" transform="translate(74.752 2.624)" fill="none" stroke="#8c7cc9" stroke-miterlimit="10" stroke-width="0.823"/>
          <line id="Line_830" data-name="Line 830" x2="2.614" y2="136.696" transform="translate(86.801 2.624)" fill="none" stroke="#8c7cc9" stroke-miterlimit="10" stroke-width="0.823"/>
        </g>
        <path id="Path_62339" data-name="Path 62339" d="M1172.227,516s72.915,3.442,92.181,0" transform="translate(-1073.297 -299.336)" fill="none" stroke="#8c7cc9" stroke-miterlimit="10" stroke-width="0.823"/>
        <path id="Path_62340" data-name="Path 62340" d="M1220.773,530.357c-25.513,5.779-49.927-3.356-49.927-3.356" transform="translate(-1073.39 -298.596)" fill="none" stroke="#8c7cc9" stroke-miterlimit="10" stroke-width="0.823"/>
        <path id="Path_62341" data-name="Path 62341" d="M1217.371,528.528s23.024,6.471,43.247,1.006" transform="translate(-1070.263 -298.494)" fill="none" stroke="#8c7cc9" stroke-miterlimit="10" stroke-width="0.823"/>
        <path id="Path_62342" data-name="Path 62342" d="M1169.671,536.3s18.386,9.625,48.249,4.718" transform="translate(-1073.469 -297.971)" fill="none" stroke="#8c7cc9" stroke-miterlimit="10" stroke-width="0.823"/>
        <path id="Path_62343" data-name="Path 62343" d="M1168.261,547.372s28.61,8.734,48.339,4.239" transform="translate(-1073.563 -297.227)" fill="none" stroke="#8c7cc9" stroke-miterlimit="10" stroke-width="0.823"/>
        <path id="Path_62344" data-name="Path 62344" d="M1166.846,558.372s14.572,11.422,48.355,6.3" transform="translate(-1073.659 -296.488)" fill="none" stroke="#8c7cc9" stroke-miterlimit="10" stroke-width="0.823"/>
        <path id="Path_62345" data-name="Path 62345" d="M1165.2,571.025a70.882,70.882,0,0,0,49,3.691" transform="translate(-1073.769 -295.637)" fill="none" stroke="#8c7cc9" stroke-miterlimit="10" stroke-width="0.823"/>
        <path id="Path_62346" data-name="Path 62346" d="M1163.67,582.617s15.736,11.169,49.316,4.682" transform="translate(-1073.872 -294.858)" fill="none" stroke="#8c7cc9" stroke-miterlimit="10" stroke-width="0.823"/>
        <path id="Path_62347" data-name="Path 62347" d="M1162.07,594.5s21.719,11.353,50.02,2.18" transform="translate(-1073.98 -294.06)" fill="none" stroke="#8c7cc9" stroke-miterlimit="10" stroke-width="0.823"/>
        <path id="Path_62348" data-name="Path 62348" d="M1160.789,603.773s12.814,12.324,50.3,3.188" transform="translate(-1074.066 -293.436)" fill="none" stroke="#8c7cc9" stroke-miterlimit="10" stroke-width="0.823"/>
        <path id="Path_62349" data-name="Path 62349" d="M1159.28,614.3s20.72,10.916,50.807,2.843" transform="translate(-1074.167 -292.729)" fill="none" stroke="#8c7cc9" stroke-miterlimit="10" stroke-width="0.823"/>
        <path id="Path_62350" data-name="Path 62350" d="M1218.351,540.109s9.619,7.942,42.2,2.046" transform="translate(-1070.197 -297.715)" fill="none" stroke="#8c7cc9" stroke-miterlimit="10" stroke-width="0.823"/>
        <path id="Path_62351" data-name="Path 62351" d="M1218.588,551.309s13.5,6.293,41.177,1.323" transform="translate(-1070.181 -296.963)" fill="none" stroke="#8c7cc9" stroke-miterlimit="10" stroke-width="0.823"/>
        <path id="Path_62352" data-name="Path 62352" d="M1217.971,563.741s20.842,6.276,41.836,0" transform="translate(-1070.223 -296.127)" fill="none" stroke="#8c7cc9" stroke-miterlimit="10" stroke-width="0.823"/>
        <path id="Path_62353" data-name="Path 62353" d="M1217.69,574.05s20.26,9.006,42.539,0" transform="translate(-1070.241 -295.434)" fill="none" stroke="#8c7cc9" stroke-miterlimit="10" stroke-width="0.823"/>
        <path id="Path_62354" data-name="Path 62354" d="M1217.371,585.368s19.289,6.768,43.439,0" transform="translate(-1070.263 -294.673)" fill="none" stroke="#8c7cc9" stroke-miterlimit="10" stroke-width="0.823"/>
        <path id="Path_62355" data-name="Path 62355" d="M1217.079,596.239s16.259,7.294,44.511,0" transform="translate(-1070.282 -293.943)" fill="none" stroke="#8c7cc9" stroke-miterlimit="10" stroke-width="0.823"/>
        <path id="Path_62356" data-name="Path 62356" d="M1217.079,605.856s19.3,9.949,45.494,1.058" transform="translate(-1070.282 -293.296)" fill="none" stroke="#8c7cc9" stroke-miterlimit="10" stroke-width="0.823"/>
        <path id="Path_62357" data-name="Path 62357" d="M1216.644,617.879a89.242,89.242,0,0,0,47.39.547" transform="translate(-1070.312 -292.488)" fill="none" stroke="#8c7cc9" stroke-miterlimit="10" stroke-width="0.823"/>
        <path id="Path_62358" data-name="Path 62358" d="M1262.554,405.645s-56.609-44.8-43.113-46.985,35.58,3.125,35.58,3.125c19.938,4.433,38.974,19.414,56.47,56.015,37.172,77.757,35.115,153.054,35.115,153.054s-8.607,11.546-10.376,9.429c-32.841-39.3-53.959-78.743-62.868-105.284S1262.554,405.645,1262.554,405.645Z" transform="translate(-1070.263 -309.947)" fill="#8c7cc9"/>
      </g>
      <g id="Group_48574" data-name="Group 48574" transform="translate(836.22 636.254) rotate(45)">
        <ellipse id="Ellipse_10407" data-name="Ellipse 10407" cx="17.145" cy="17.157" rx="17.145" ry="17.157" transform="translate(38.608 0)" fill="#bec9f2" opacity="0.49"/>
        <ellipse id="Ellipse_10408" data-name="Ellipse 10408" cx="6.98" cy="6.985" rx="6.98" ry="6.985" transform="translate(88.787 15.585)" fill="#bec9f2" opacity="0.49"/>
        <circle id="Ellipse_10409" data-name="Ellipse 10409" cx="5.122" cy="5.122" r="5.122" transform="translate(0 38.823)" fill="#bec9f2" opacity="0.49"/>
        <path id="Path_62359" data-name="Path 62359" d="M17.461,17.178a4.72,4.72,0,0,1-4.833,1.351,4.769,4.769,0,0,1-2.18-7.8,4.718,4.718,0,0,1,4.832-1.353,4.77,4.77,0,0,1,2.181,7.8ZM11.225,23.2a9.549,9.549,0,0,0,3.181.381l1.207,4.322,4.158-1.161-1.208-4.323a9.524,9.524,0,0,0,2.522-1.976l3.909,2.2,2.118-3.762-3.909-2.2a9.558,9.558,0,0,0,.382-3.181l4.321-1.209L26.745,8.135,22.423,9.345a9.573,9.573,0,0,0-1.977-2.523l2.2-3.907L18.885.8,16.684,4.7A9.578,9.578,0,0,0,13.5,4.323L12.3,0,8.137,1.163,9.345,5.484A9.627,9.627,0,0,0,6.822,7.461l-3.907-2.2L.8,9.023l3.909,2.2a9.635,9.635,0,0,0-.382,3.18L0,15.613l1.163,4.158,4.322-1.208a9.623,9.623,0,0,0,1.976,2.523l-2.2,3.908,3.762,2.117Z" transform="translate(34.347 45.768)" fill="#8a7cc7" fill-rule="evenodd"/>
        <path id="Path_62360" data-name="Path 62360" d="M11.686,10.6A3.065,3.065,0,0,1,8.8,12.109,3.1,3.1,0,0,1,6.361,7.449,3.065,3.065,0,0,1,9.247,5.938,3.1,3.1,0,0,1,11.686,10.6ZM8.539,15.267a6.233,6.233,0,0,0,2.073-.187l1.35,2.582,2.484-1.3L13.094,13.78a6.182,6.182,0,0,0,1.336-1.6l2.78.871.838-2.676-2.78-.87a6.2,6.2,0,0,0-.188-2.073l2.582-1.352L16.363,3.6,13.781,4.952a6.218,6.218,0,0,0-1.6-1.335l.87-2.779L10.379,0l-.87,2.78a6.178,6.178,0,0,0-2.073.188L6.085.384,3.6,1.685,4.953,4.267a6.217,6.217,0,0,0-1.336,1.6L.838,4.992,0,7.669l2.78.87a6.234,6.234,0,0,0,.187,2.073L.385,11.961l1.3,2.484,2.582-1.351a6.24,6.24,0,0,0,1.6,1.335l-.87,2.78,2.676.837Z" transform="translate(27.299 32.695)" fill="#8a7cc7" fill-rule="evenodd"/>
      </g>
      <g id="Group_48576" data-name="Group 48576" transform="translate(1081.138 431.273)">
        <g id="Group_48575" data-name="Group 48575" transform="translate(0)">
          <path id="Path_62361" data-name="Path 62361" d="M865.136,416.39a4.717,4.717,0,0,1-4.832,1.351,4.769,4.769,0,0,1-2.181-7.8,4.721,4.721,0,0,1,4.833-1.352,4.769,4.769,0,0,1,2.18,7.8Zm-6.236,6.026a9.582,9.582,0,0,0,3.181.381l1.208,4.321,4.158-1.161-1.209-4.323a9.52,9.52,0,0,0,2.523-1.975l3.909,2.2,2.118-3.762-3.909-2.2a9.588,9.588,0,0,0,.381-3.181l4.322-1.21-1.161-4.157-4.322,1.209a9.584,9.584,0,0,0-1.978-2.523l2.2-3.908-3.762-2.118-2.2,3.909a9.523,9.523,0,0,0-3.181-.381l-1.208-4.323-4.158,1.162,1.208,4.322a9.609,9.609,0,0,0-2.523,1.975l-3.908-2.2-2.118,3.763,3.909,2.2a9.641,9.641,0,0,0-.383,3.181l-4.321,1.208,1.163,4.158,4.321-1.208a9.605,9.605,0,0,0,1.978,2.523l-2.2,3.908,3.762,2.116Z" transform="translate(-840.627 -386.139)" fill="#8a7cc7" fill-rule="evenodd"/>
          <path id="Path_62362" data-name="Path 62362" d="M852.757,397.559a3.062,3.062,0,0,1-2.887,1.511,3.093,3.093,0,1,1,2.887-1.511Zm-3.146,4.67a6.2,6.2,0,0,0,2.071-.188l1.351,2.583,2.484-1.3-1.352-2.584a6.174,6.174,0,0,0,1.335-1.6l2.78.87.838-2.676-2.78-.87a6.229,6.229,0,0,0-.187-2.073l2.582-1.351-1.3-2.484-2.583,1.352a6.2,6.2,0,0,0-1.6-1.336l.871-2.779-2.675-.838-.871,2.78a6.226,6.226,0,0,0-2.072.188l-1.351-2.583-2.484,1.3,1.351,2.582a6.232,6.232,0,0,0-1.335,1.6l-2.779-.869-.839,2.676,2.78.87a6.287,6.287,0,0,0,.187,2.073l-2.582,1.351,1.3,2.483,2.583-1.35a6.258,6.258,0,0,0,1.6,1.335l-.87,2.779,2.676.837Z" transform="translate(-841.071 -386.962)" fill="#8a7cc7" fill-rule="evenodd"/>
        </g>
      </g>
      <g id="Group_48578" data-name="Group 48578" transform="translate(699.339 292.11) rotate(11)">
        <g id="Group_48577" data-name="Group 48577" transform="translate(0 60.035) rotate(-40)">
          <ellipse id="Ellipse_10410" data-name="Ellipse 10410" cx="23.73" cy="23.747" rx="23.73" ry="23.747" transform="translate(33.677 25.462)" fill="#bec9f2" opacity="0.49"/>
          <ellipse id="Ellipse_10411" data-name="Ellipse 10411" cx="9.953" cy="9.96" rx="9.953" ry="9.96" transform="translate(0 47.519)" fill="#bec9f2" opacity="0.49"/>
          <circle id="Ellipse_10412" data-name="Ellipse 10412" cx="5.122" cy="5.122" r="5.122" transform="translate(83.155 0)" fill="#bec9f2" opacity="0.49"/>
          <path id="Path_62363" data-name="Path 62363" d="M11.686,10.6A3.065,3.065,0,0,1,8.8,12.109,3.1,3.1,0,0,1,6.361,7.449,3.065,3.065,0,0,1,9.247,5.938,3.1,3.1,0,0,1,11.686,10.6ZM8.539,15.266a6.205,6.205,0,0,0,2.073-.187l1.35,2.582,2.484-1.3L13.094,13.78a6.177,6.177,0,0,0,1.336-1.6l2.78.87.838-2.676-2.78-.87a6.2,6.2,0,0,0-.188-2.073l2.582-1.352L16.363,3.6,13.781,4.952a6.237,6.237,0,0,0-1.6-1.335l.87-2.779L10.379,0l-.87,2.78a6.179,6.179,0,0,0-2.072.188L6.085.384,3.6,1.685,4.953,4.267a6.216,6.216,0,0,0-1.336,1.6L.838,4.992,0,7.669l2.78.87a6.235,6.235,0,0,0,.187,2.073L.385,11.961l1.3,2.484,2.582-1.351a6.219,6.219,0,0,0,1.6,1.335l-.87,2.78,2.676.837Z" transform="translate(5.752 109.812)" fill="#8a7cc7" fill-rule="evenodd"/>
        </g>
      </g>
    </g>
  </g>
</svg>
